<?xml version="1.0" encoding="utf-8"?>
<!-- Generator: Adobe Illustrator 27.0.0, SVG Export Plug-In . SVG Version: 6.00 Build 0)  -->
<svg version="1.1" xmlns="http://www.w3.org/2000/svg" xmlns:xlink="http://www.w3.org/1999/xlink" x="0px" y="0px"
	 viewBox="0 0 702 317" style="enable-background:new 0 0 702 317;" xml:space="preserve">
<style type="text/css">
	.st0{fill:none;}
	.st1{fill:#4E4E4C;}
	.st2{fill:#F18B5C;}
	.st3{fill:#3A5BA6;}
</style>
<g id="Clear_Space">
	<rect class="st0" width="702" height="317"/>
</g>
<g id="Calque_1">
</g>
<g id="Layer_3">
	<g>
		<path class="st1" d="M287.1,177.2c2-4.5,3.8-8.7,5.7-12.8c7.7-17.6,15.4-35.2,23.2-52.8c0.5-1.1,1-2.2,1.6-3.3
			c1.8-3.2,5.8-4.4,9-2.6c1.8,1,3.1,2.8,3.4,4.8c0.7,3.7,1.3,7.4,2,11.1c3.3,18.2,6.5,36.3,9.6,54.5c0.1,0.4,0.3,0.8,0.5,1.1
			c0.5-1,0.8-1.7,1.1-2.5c9.2-21.2,18.3-42.4,27.5-63.6c0.6-1.3,1.3-2.6,2.1-3.8c1.7-2.6,5.1-3.4,7.8-1.8c2.5,1.4,3.5,4.6,2.2,7.2
			c-2,4.9-4.2,9.9-6.4,14.8c-9.3,20.9-18.6,41.9-27.8,62.8c-0.7,1.7-1.6,3.4-2.7,4.9c-1.5,2.3-4.3,3.5-7,3c-2.8-0.3-5.1-2.5-5.6-5.3
			c-1.1-4.9-1.8-9.7-2.7-14.6c-3-17.1-6-34.1-9-51.1c-0.1-0.4-0.3-0.8-0.5-1.1c-0.5,1-0.8,1.6-1.1,2.3c-9.3,21.3-18.6,42.5-28,63.8
			c-0.6,1.5-1.5,2.9-2.6,4.2c-2.3,2.6-6.3,2.9-8.9,0.6c-0.8-0.7-1.4-1.6-1.7-2.5c-1-2.9-1.7-5.9-2.1-8.9
			c-4.1-22.2-8.1-44.4-12.2-66.6c-0.4-2.2-0.8-4.4-1.1-6.6c-0.8-3.4,1.3-6.7,4.7-7.5c3.4-0.8,6.7,1.3,7.5,4.7
			c0.1,0.3,0.1,0.5,0.1,0.8c1.2,7,2.3,13.9,3.5,20.9c2.5,14.8,4.9,29.7,7.4,44.6C286.7,176.2,286.8,176.7,287.1,177.2z"/>
		<path class="st1" d="M476.1,174.6c0.4-2.6,0.8-4.8,1.1-7l5.1-37.2c0.9-6.5,1.8-13.1,2.7-19.7c0.2-3.5,3.2-6.1,6.6-5.9
			c0.5,0,1.1,0.1,1.6,0.3c2.6,0.7,4.4,3.3,4.1,6c-0.3,4.4-1,8.8-1.6,13.2c-1.6,11.2-3.2,22.4-4.8,33.6c-1.2,8.3-2.4,16.6-3.5,25
			c0,1-0.9,1.9-1.9,1.9c-4.9,0.6-9.9,1.4-14.9,2.1c-1.3,0.3-2.5-0.4-3-1.6c-10.9-18.4-21.8-36.8-32.8-55.2c-0.4-0.8-1-1.5-1.8-2.1
			c-0.4,3-0.9,6.1-1.3,9.1c-1.8,12.6-3.5,25.2-5.2,37.8c-0.8,5.7-1.6,11.3-2.3,17c0,0.9-0.7,1.7-1.7,1.7c-2.9,0.4-5.8,0.9-8.7,1.2
			c-1.7,0.2-2.3-0.6-2.2-2.9c0.2-2.3,0.5-4.7,0.9-7c1.7-12.4,3.5-24.7,5.2-37c1.8-12.2,3.4-24.4,5.3-36.6c0-3.3,2.4-6,5.7-6.5
			c3.1-0.5,6.2,1.1,7.6,4c5.9,9.6,11.7,19.3,17.5,28.9c7.1,11.6,14.1,23.2,21.1,34.8C475.1,173.1,475.5,173.6,476.1,174.6z"/>
		<path class="st1" d="M561,174c9.1-10,12.6-23.9,9.2-37c-2.1-9.4-9.5-16.7-18.9-18.7c-7.8-2-15.8-0.8-23.9-1.2
			c-0.7,4.8-1.4,9.4-2,14l-4.8,33.6c-0.7,4.7-1.3,9.3-2,14c0,0.5-0.5,1.4-0.8,1.4c-4,0.7-8.1,1.2-12.3,1.8c0.7-5.1,1.4-9.9,2.1-14.6
			l4.8-33.8c1.1-7.4,2-14.8,3.2-22.2c0.2-3.5,3.3-6.2,6.8-5.9c0.1,0,0.1,0,0.2,0c7.4,0,14.8,0,22.2,0c9.8-0.1,19.3,3.2,26.9,9.3
			c7.7,6.6,12.5,15.9,13.3,26c1.2,10-0.7,20.2-5.3,29.2c-0.5,1.2-1.6,2-2.9,2.1c-4.7,0.6-9.3,1.3-14,2C562,174,561.5,174,561,174z"
			/>
		<path class="st1" d="M381.4,191.1c0.7-4.6,1.4-9.6,2.1-14.6c1.6-11.3,3.2-22.7,4.8-34c1.5-10.7,3-21.4,4.6-32.1
			c0.3-3.4,3.2-5.8,6.6-5.6c0.6,0,1.2,0.2,1.7,0.4c3,1,4.7,4.1,4.1,7.2c-0.4,4.1-1,8.2-1.6,12.3c-1.6,11.3-3.3,22.5-4.9,33.8
			c-1.6,11.1-3.1,22.2-4.7,33.3c-0.1,2.5-1.5,4.8-3.8,6C385.9,199.8,381.3,196.6,381.4,191.1z"/>
		<path class="st2" d="M349.9,209.1c0,0,193-22.5,223.2-29s49-27.8,50.3-27.8s-13.2,34.4-50.7,40.2S422.8,209.4,349.9,209.1z"/>
		<path class="st3" d="M307.2,41L324.4,53c7.1,4.9,11.7,8.5,14.1,10.6c2.3,2,3,3.8,2.1,5.3c-0.9,1.5-8.3,1.6-22.7,0.9
			c-14.3-0.7-26.3-1-36.1-1.1c-14.4,0.3-28.8,1.5-43,3.6c-20.4,2.8-40.5,7.3-60.2,13.5c-4.4,1.4-8.6,2.9-12.5,4.5
			c-4,1.6-7.6,3.2-10.9,4.8s-5.1,2.5-5.5,2.5c20.4-5.5,37.3-8.5,51-8.9c12.8-0.6,25.5,2.6,36.5,9.3c11.1,7,17.8,15.8,20.1,26.4
			c2.3,10.6-0.2,21.8-7.4,33.6c-8.1,13.2-21.5,24.9-40.4,35.1c-18.3,10.1-38.4,16.7-59.2,19.2c-20.5,2.5-37.2-0.2-50-8.1
			c-7.9-4.9-13.8-12.8-17.5-23.6c-3.8-11.3-5-23.4-3.5-35.3c1.3-12.2,5.3-24,11.7-34.5c8.6-14,23.6-27.1,44.9-39.2
			s46.9-21.2,76.8-27.1C243.8,38.4,275.7,37.3,307.2,41z M110.2,171.7c6.1,3.8,17.2,5,33.4,3.5c16.5-1.6,32.7-5.7,47.9-12.3
			c15.8-6.8,27-15.5,33.5-26.1c5.9-9.6,5.3-16.7-1.9-21.1c-8.2-5.1-25.7-5.6-52.4-1.7c-13.1,1.6-25.9,5-38.2,10.1
			c-9.4,4.3-17.2,11.3-22.5,20.2c-4.3,7-6.5,12.6-6.5,16.9C103.7,165.6,106.2,169.7,110.2,171.7L110.2,171.7z"/>
	</g>
	<g>
		<path class="st1" d="M48.3,237.2h2.4l6.1,19.2c1.3,4,2.1,7.1,3.5,11.1h0.2c1.4-4,2.2-7,3.5-11.1l6.1-19.2h2.3l-10.8,33h-2.5
			L48.3,237.2z"/>
		<path class="st1" d="M75.1,238.4c0-1.2,0.9-2,2-2s2,0.7,2,2c0,1.1-0.9,2-2,2S75.1,239.5,75.1,238.4z M76,246.1h2.2v24H76V246.1z"
			/>
		<path class="st1" d="M86.2,246.1H88l0.2,4.5h0.1c1.6-3,4-5.1,6.8-5.1c0.9,0,1.6,0.1,2.4,0.5l-0.5,2c-0.8-0.3-1.3-0.4-2.2-0.4
			c-2.2,0-4.7,1.6-6.6,6.2v16.3h-2.2V246.1z"/>
		<path class="st1" d="M101.3,263.5v-15.5h-3.8v-1.7l3.8-0.2l0.3-7h1.9v7h7v1.9h-7v15.6c0,3.1,0.8,5.1,4.1,5.1c0.9,0,2.1-0.4,3-0.8
			l0.6,1.8c-1.4,0.5-2.9,0.9-3.9,0.9C102.7,270.7,101.3,267.8,101.3,263.5z"/>
		<path class="st1" d="M114.7,261.5v-15.4h2.2v15.1c0,5.1,1.6,7.5,5.5,7.5c2.9,0,4.9-1.5,7.7-4.9v-17.7h2.2v24h-1.9l-0.2-4h-0.1
			c-2.4,2.8-4.8,4.6-8.2,4.6C117,270.7,114.7,267.7,114.7,261.5z"/>
		<path class="st1" d="M138.6,264.2c0-5.3,4.8-7.9,15.5-9.1c0.1-3.7-0.9-7.6-5.7-7.6c-3.2,0-6,1.6-7.7,2.8l-1-1.6
			c1.7-1.2,5-3.1,8.9-3.1c5.7,0,7.6,4.1,7.6,9.3v15.3h-1.9l-0.2-3.1h-0.1c-2.5,2-5.4,3.7-8.5,3.7
			C141.7,270.7,138.6,268.7,138.6,264.2z M154.1,265v-8.2c-9.9,1.1-13.2,3.4-13.2,7.3c0,3.4,2.3,4.8,5.1,4.8
			C148.7,268.8,151.1,267.5,154.1,265z"/>
		<path class="st1" d="M163.6,266.9v-32.8h2.2v33.1c0,1.1,0.4,1.6,1,1.6c0.2,0,0.4,0,0.9-0.1l0.4,1.8c-0.5,0.1-0.9,0.2-1.6,0.2
			C164.6,270.7,163.6,269.6,163.6,266.9z"/>
		<path class="st1" d="M173.3,238.4c0-1.2,0.9-2,2-2s2,0.7,2,2c0,1.1-0.9,2-2,2S173.3,239.5,173.3,238.4z M174.2,246.1h2.2v24h-2.2
			V246.1z"/>
		<path class="st1" d="M181.2,269l14.2-20.9h-12.6v-1.9h15.5v1.2L184,268.2h14.7v1.9h-17.5V269z"/>
		<path class="st1" d="M200.8,258.2c0-7.8,5.1-12.7,10.5-12.7c5.7,0,9.2,4.1,9.2,11.1c0,0.6,0,1.2-0.1,1.8h-17.3
			c0.1,6.1,3.6,10.4,9,10.4c2.6,0,4.7-0.9,6.5-2.1l0.9,1.7c-1.9,1.2-4.1,2.4-7.6,2.4C205.8,270.7,200.8,266,200.8,258.2z
			 M218.4,256.6c0-6.1-2.8-9.2-7.1-9.2c-4.1,0-7.7,3.4-8.2,9.2H218.4z"/>
		<path class="st1" d="M223.8,258.2c0-7.8,4.9-12.7,10.7-12.7c2.9,0,4.8,1.1,7.2,3l-0.1-4.4v-9.9h2.2v36h-1.9l-0.2-3.1h-0.1
			c-2,2-4.6,3.7-7.8,3.7C227.7,270.7,223.8,266.3,223.8,258.2z M241.5,264.8v-14.2c-2.5-2.2-4.6-3.1-7-3.1c-4.8,0-8.5,4.7-8.5,10.7
			c0,6.4,2.8,10.6,7.9,10.6C236.7,268.8,239,267.4,241.5,264.8z"/>
		<path class="st1" d="M260.7,237.2h2.4l13.9,23.2l3.7,6.6h0.2c-0.1-3.2-0.3-6.4-0.3-9.6v-20.2h2.2v33h-2.4l-13.9-23.2l-3.7-6.6
			h-0.2c0.1,3.2,0.3,6.1,0.3,9.3v20.5h-2.2V237.2z"/>
		<path class="st1" d="M289,258.2c0-7.8,5.1-12.7,10.5-12.7c5.7,0,9.2,4.1,9.2,11.1c0,0.6,0,1.2-0.1,1.8h-17.3
			c0.1,6.1,3.6,10.4,9,10.4c2.6,0,4.7-0.9,6.5-2.1l0.9,1.7c-1.9,1.2-4.1,2.4-7.6,2.4C293.9,270.7,289,266,289,258.2z M306.6,256.6
			c0-6.1-2.8-9.2-7.1-9.2c-4.1,0-7.7,3.4-8.2,9.2H306.6z"/>
		<path class="st1" d="M314,263.5v-15.5h-3.8v-1.7l3.8-0.2l0.3-7h1.9v7h7v1.9h-7v15.6c0,3.1,0.8,5.1,4.1,5.1c0.9,0,2.1-0.4,3-0.8
			l0.6,1.8c-1.4,0.5-2.9,0.9-3.9,0.9C315.3,270.7,314,267.8,314,263.5z"/>
		<path class="st1" d="M324.3,246.1h2.4l4.3,15.5c0.6,2.2,1.1,4.3,1.6,6.4h0.2c0.6-2.1,1.2-4.2,1.8-6.4l4.4-15.5h2.6l4.4,15.5
			c0.6,2.2,1.2,4.3,1.8,6.4h0.2c0.6-2.1,1.1-4.2,1.7-6.4l4.2-15.5h2.2l-6.9,24h-2.9l-4.2-14.9c-0.7-2.3-1.2-4.5-1.8-6.9h-0.2
			c-0.6,2.3-1.1,4.6-1.9,6.9l-4.1,14.8h-2.7L324.3,246.1z"/>
		<path class="st1" d="M358.7,258.2c0-8,5-12.7,10.8-12.7c5.8,0,10.8,4.6,10.8,12.7c0,7.9-5,12.6-10.8,12.6
			C363.7,270.7,358.7,266.1,358.7,258.2z M378,258.2c0-6.3-3.6-10.7-8.5-10.7c-4.9,0-8.5,4.4-8.5,10.7c0,6.3,3.6,10.6,8.5,10.6
			C374.4,268.8,378,264.5,378,258.2z"/>
		<path class="st1" d="M386.2,246.1h1.9l0.2,4.5h0.1c1.6-3,4-5.1,6.8-5.1c0.9,0,1.6,0.1,2.4,0.5l-0.5,2c-0.8-0.3-1.2-0.4-2.2-0.4
			c-2.2,0-4.7,1.6-6.6,6.2v16.3h-2.2V246.1z"/>
		<path class="st1" d="M400.8,234.2h2.2v26.5h0.1l11.9-14.6h2.5l-7.8,9.5l9.1,14.5h-2.5l-8-12.9l-5.4,6.3v6.5h-2.2V234.2z"/>
		<path class="st1" d="M421.9,238.4c0-1.2,0.9-2,2-2s2,0.7,2,2c0,1.1-0.9,2-2,2S421.9,239.5,421.9,238.4z M422.8,246.1h2.2v24h-2.2
			V246.1z"/>
		<path class="st1" d="M433,246.1h1.9l0.2,3.7h0.1c2.5-2.4,5-4.3,8.3-4.3c5,0,7.3,3,7.3,9.2v15.4h-2.2V255c0-5.1-1.6-7.5-5.5-7.5
			c-2.9,0-4.9,1.5-7.9,4.5v18.1H433V246.1z"/>
		<path class="st1" d="M456.3,275.1c0-2.1,1.4-4.2,3.6-5.8v-0.2c-1.2-0.7-2.1-2-2.1-3.9c0-2.2,1.6-3.7,2.6-4.4v-0.2
			c-1.5-1.3-3-3.7-3-6.6c0-4.9,3.8-8.5,8.5-8.5c1.3,0,2.4,0.3,3.2,0.6h8.1v1.9h-5.6c1.6,1.3,2.7,3.5,2.7,6c0,4.9-3.7,8.5-8.4,8.5
			c-1.3,0-2.9-0.4-4-1c-1,0.9-2,1.9-2,3.5c0,1.7,1,3.1,4.6,3.1h5.1c5.4,0,7.9,1.7,7.9,5.5c0,4.1-4.4,8.1-11.4,8.1
			C460.1,281.7,456.3,279.1,456.3,275.1z M475.3,273.8c0-2.7-1.9-3.7-5.6-3.7h-5.1c-0.5,0-1.7-0.1-3-0.4c-2.2,1.5-3.2,3.4-3.2,5
			c0,3,2.9,5.1,8,5.1C471.8,279.9,475.3,276.9,475.3,273.8z M472,254c0-4.1-2.8-6.6-6.2-6.6c-3.4,0-6.2,2.5-6.2,6.6
			c0,4,2.9,6.7,6.2,6.7C469.1,260.7,472,258,472,254z"/>
		<path class="st1" d="M487.9,265.8l1.5-1.6c2.4,2.7,5.8,4.5,9.7,4.5c5,0,8.2-2.7,8.2-6.6c0-4.1-2.7-5.4-5.9-6.9l-5-2.2
			c-2.9-1.3-6.7-3.3-6.7-8.2c0-4.8,4.1-8.1,9.6-8.1c4,0,7.2,1.8,9.2,3.9l-1.3,1.5c-1.9-2-4.6-3.4-7.9-3.4c-4.4,0-7.3,2.3-7.3,5.9
			c0,3.8,3.3,5.3,5.7,6.4l5,2.2c3.7,1.6,6.9,3.7,6.9,8.7c0,5.1-4.1,8.9-10.5,8.9C494.2,270.7,490.5,268.7,487.9,265.8z"/>
		<path class="st1" d="M513,258.2c0-8,5-12.7,10.8-12.7c5.8,0,10.8,4.6,10.8,12.7c0,7.9-5,12.6-10.8,12.6
			C518,270.7,513,266.1,513,258.2z M532.2,258.2c0-6.3-3.6-10.7-8.5-10.7c-4.9,0-8.5,4.4-8.5,10.7c0,6.3,3.6,10.6,8.5,10.6
			C528.6,268.8,532.2,264.5,532.2,258.2z"/>
		<path class="st1" d="M552.4,263.5v-15.5h-14.9v-1.7l3.4-0.2h11.6l0.3-7h1.9v7h7v1.9h-7v15.6c0,3.1,0.8,5.1,4.1,5.1
			c0.9,0,2.1-0.4,3-0.8l0.6,1.8c-1.4,0.5-2.9,0.9-3.9,0.9C553.7,270.7,552.4,267.8,552.4,263.5z M540.8,240.8c0-4.8,2.1-7.2,5.9-7.2
			c1.1,0,2.4,0.3,3.5,0.8l-0.6,1.8c-1-0.5-2-0.7-2.9-0.7c-2.6,0-3.8,2-3.8,5.4v29.2h-2.2V240.8z"/>
		<path class="st1" d="M562.8,246.1h2.4l4.3,15.5c0.6,2.2,1.1,4.3,1.6,6.4h0.2c0.6-2.1,1.2-4.2,1.8-6.4l4.4-15.5h2.6l4.4,15.5
			c0.6,2.2,1.2,4.3,1.8,6.4h0.2c0.6-2.1,1.1-4.2,1.7-6.4l4.2-15.5h2.2l-6.9,24h-2.9l-4.2-14.9c-0.7-2.3-1.2-4.5-1.8-6.9h-0.2
			c-0.6,2.3-1.1,4.6-1.9,6.9l-4.1,14.8h-2.7L562.8,246.1z"/>
		<path class="st1" d="M597,264.2c0-5.3,4.8-7.9,15.5-9.1c0.1-3.7-0.9-7.6-5.7-7.6c-3.2,0-6,1.6-7.7,2.8l-1-1.6
			c1.7-1.2,5-3.1,8.9-3.1c5.7,0,7.6,4.1,7.6,9.3v15.3h-1.9l-0.2-3.1h-0.1c-2.5,2-5.4,3.7-8.5,3.7C600.1,270.7,597,268.7,597,264.2z
			 M612.5,265v-8.2c-9.9,1.1-13.2,3.4-13.2,7.3c0,3.4,2.3,4.8,5.1,4.8C607.1,268.8,609.5,267.5,612.5,265z"/>
		<path class="st1" d="M622,246.1h1.9l0.2,4.5h0.1c1.6-3,4-5.1,6.8-5.1c0.9,0,1.6,0.1,2.4,0.5l-0.5,2c-0.8-0.3-1.3-0.4-2.2-0.4
			c-2.2,0-4.7,1.6-6.6,6.2v16.3H622V246.1z"/>
		<path class="st1" d="M634.1,258.2c0-7.8,5.1-12.7,10.5-12.7c5.7,0,9.2,4.1,9.2,11.1c0,0.6,0,1.2-0.1,1.8h-17.3
			c0.1,6.1,3.6,10.4,9,10.4c2.6,0,4.7-0.9,6.5-2.1l0.9,1.7c-1.9,1.2-4.1,2.4-7.6,2.4C639,270.7,634.1,266,634.1,258.2z M651.7,256.6
			c0-6.1-2.8-9.2-7.1-9.2c-4.1,0-7.7,3.4-8.2,9.2H651.7z"/>
	</g>
</g>
</svg>
