<?xml version="1.0" standalone="no"?>
<!DOCTYPE svg PUBLIC "-//W3C//DTD SVG 20010904//EN"
 "http://www.w3.org/TR/2001/REC-SVG-20010904/DTD/svg10.dtd">
<svg version="1.0" xmlns="http://www.w3.org/2000/svg"
 width="5392.000000pt" height="1046.000000pt" viewBox="0 0 5392.000000 1046.000000"
 preserveAspectRatio="xMidYMid meet">

<g transform="translate(0.000000,1046.000000) scale(0.100000,-0.100000)"
fill="#000000" stroke="none">
<path d="M4115 9993 c-47 -7 -145 -32 -200 -53 -100 -37 -2748 -1360 -2809
-1404 -35 -25 -94 -78 -132 -119 -94 -100 -226 -300 -264 -399 -20 -52 -146
-589 -362 -1546 l-332 -1467 0 -190 c1 -164 4 -201 23 -270 36 -134 100 -249
223 -407 339 -433 957 -1204 1293 -1612 490 -596 628 -738 794 -818 36 -18 95
-49 131 -69 36 -21 96 -50 134 -64 153 -57 74 -55 1765 -55 l1558 0 94 24 c52
13 124 37 161 54 99 45 294 182 369 259 74 76 1879 2352 1935 2440 45 69 85
166 110 263 15 61 19 110 19 260 l0 185 -303 1441 c-318 1519 -337 1598 -428
1779 -68 135 -170 250 -298 338 -51 34 -522 271 -971 487 -66 32 -489 239
-940 460 -451 221 -855 415 -898 431 -124 46 -224 59 -446 58 -108 -1 -209 -4
-226 -6z m1425 -1919 c969 -474 1179 -580 1184 -599 3 -12 125 -595 271 -1295
242 -1156 265 -1274 251 -1293 -8 -12 -369 -470 -803 -1017 l-790 -995 -1280
-3 -1280 -2 -62 37 c-51 30 -90 69 -211 213 -491 581 -1443 1774 -1435 1799 2
9 133 585 289 1281 157 695 288 1266 293 1268 4 1 539 268 1188 591 649 324
1186 590 1193 590 8 1 544 -258 1192 -575z"/>
<path d="M3645 6850 l-659 -309 194 -94 c107 -51 405 -194 662 -316 l467 -223
613 292 c337 161 635 304 662 317 l49 25 -659 309 c-363 169 -661 308 -664
308 -3 0 -302 -139 -665 -309z"/>
<path d="M2940 5658 l1 -823 647 -302 c356 -166 655 -305 665 -309 16 -6 17
37 17 808 l0 814 -647 308 c-357 170 -656 313 -665 318 -17 8 -18 -34 -18
-814z"/>
<path d="M5013 6162 l-663 -316 0 -813 c0 -447 3 -813 6 -813 9 0 1308 610
1316 618 4 4 7 375 6 824 l-3 816 -662 -316z"/>
<path d="M30450 5155 l0 -2765 570 0 570 0 2 1294 3 1293 1203 -1293 1203
-1294 761 0 761 0 -19 22 c-10 12 -637 663 -1392 1446 -755 783 -1372 1428
-1370 1433 2 5 557 554 1233 1220 677 666 1275 1255 1330 1310 l100 99 -697 0
-696 0 -1209 -1240 -1208 -1240 -3 1240 -2 1240 -570 0 -570 0 0 -2765z"/>
<path d="M11294 6408 c-340 -827 -850 -2068 -1134 -2758 l-517 -1255 590 -3
c325 -1 592 0 594 2 2 2 131 329 287 727 l283 724 1144 0 1144 0 280 -727 280
-728 617 0 617 0 -84 208 c-47 114 -550 1355 -1119 2757 l-1035 2550 -664 3
-664 2 -619 -1502z m1296 300 c17 -46 192 -501 388 -1013 l358 -930 -399 -3
c-219 -1 -575 -1 -791 0 l-392 3 396 1012 c217 557 398 1013 402 1013 3 0 21
-37 38 -82z"/>
<path d="M17970 7188 c-674 -62 -1308 -389 -1715 -883 -124 -151 -208 -282
-300 -470 -125 -253 -188 -457 -232 -742 -25 -168 -23 -527 5 -708 58 -370
167 -656 368 -960 102 -155 183 -252 325 -390 438 -426 994 -664 1645 -705
458 -29 897 64 1333 281 267 133 468 277 671 483 l95 96 -315 315 c-173 173
-319 315 -323 315 -5 0 -30 -23 -55 -52 -123 -136 -345 -300 -518 -384 -223
-107 -437 -154 -701 -154 -273 0 -477 42 -680 140 -444 215 -750 605 -839
1066 -100 523 48 1048 396 1408 121 125 233 209 380 285 264 136 540 192 840
170 222 -17 389 -65 610 -175 180 -91 317 -192 463 -343 l108 -112 217 210
c119 115 268 261 330 323 l113 114 -70 78 c-228 256 -550 470 -934 621 -382
149 -813 211 -1217 173z"/>
<path d="M22755 7194 c-470 -46 -822 -159 -1181 -379 -389 -238 -695 -574
-894 -980 -117 -240 -187 -462 -226 -720 -23 -151 -26 -551 -5 -690 69 -463
231 -842 507 -1183 341 -424 860 -738 1414 -856 364 -77 780 -79 1114 -5 511
113 986 372 1320 719 l89 92 -154 155 c-85 85 -229 227 -321 315 l-168 160
-82 -84 c-228 -233 -494 -389 -788 -463 -140 -35 -232 -45 -415 -45 -265 0
-482 48 -692 153 -441 222 -732 611 -820 1097 -21 118 -24 418 -4 535 72 435
302 801 651 1036 378 254 883 321 1340 177 129 -40 355 -153 470 -235 52 -37
153 -125 223 -196 l128 -128 322 316 c177 174 323 322 325 330 4 18 -192 221
-293 302 -351 284 -837 490 -1315 558 -109 16 -457 28 -545 19z"/>
<path d="M43070 7193 c-244 -23 -414 -57 -610 -122 -634 -211 -1127 -630
-1419 -1206 -189 -371 -266 -694 -265 -1110 1 -395 70 -704 235 -1044 88 -182
150 -286 264 -436 381 -507 1015 -862 1681 -940 164 -19 472 -19 635 0 585 68
1136 338 1520 743 362 381 587 852 654 1365 17 136 20 455 5 592 -31 275 -104
521 -235 790 -375 769 -1131 1283 -2005 1364 -105 10 -376 12 -460 4z m525
-922 c138 -32 209 -58 350 -126 263 -127 475 -326 628 -590 304 -524 267
-1237 -90 -1738 -157 -220 -421 -421 -673 -511 -334 -121 -703 -123 -1046 -8
-191 65 -397 195 -549 347 -222 224 -383 567 -425 908 -18 140 -8 413 20 542
138 651 619 1103 1275 1199 17 2 118 3 225 1 153 -3 214 -8 285 -24z"/>
<path d="M35887 7123 c-4 -3 -7 -1070 -7 -2370 l0 -2363 465 0 465 0 2 1581 3
1581 1205 -1581 1205 -1580 433 -1 432 0 0 2370 0 2370 -457 -2 -458 -3 -5
-1529 -5 -1528 -1175 1531 -1175 1530 -461 1 c-253 0 -464 -3 -467 -7z"/>
<path d="M45640 7125 c0 -3 383 -518 850 -1145 l850 -1141 -886 -1207 c-488
-664 -894 -1215 -902 -1224 -14 -17 13 -18 550 -18 l565 0 617 860 c339 473
620 860 624 860 4 -1 284 -388 622 -860 l615 -859 583 -1 c320 0 582 1 582 3
0 2 -409 552 -910 1223 -500 670 -910 1221 -910 1224 0 3 378 518 840 1145
462 626 840 1140 840 1142 0 2 -253 3 -562 3 l-563 -1 -559 -780 -558 -781
-64 89 c-35 48 -288 399 -562 778 l-498 690 -582 3 c-320 1 -582 0 -582 -3z"/>
<path d="M25400 5692 c0 -945 4 -1466 11 -1538 54 -552 301 -1061 662 -1361
340 -283 739 -430 1262 -463 428 -27 836 49 1191 220 515 249 865 706 998
1300 62 280 59 207 63 1808 l4 1462 -490 0 -490 0 -4 -1462 -3 -1463 -26 -105
c-52 -211 -132 -371 -256 -513 -161 -184 -378 -302 -620 -337 -136 -20 -405
-8 -523 23 -353 93 -615 342 -733 697 -74 224 -70 120 -73 1723 l-4 1437 -484
0 -485 0 0 -1428z"/>
</g>
</svg>
