<svg id="Layer_1" data-name="Layer 1" xmlns="http://www.w3.org/2000/svg" xmlns:xlink="http://www.w3.org/1999/xlink" viewBox="0 0 941.80988 306.08821"><defs><style>.cls-1{fill:none;}.cls-2{clip-path:url(#clip-path);}.cls-3{fill:#004ddf;}.cls-4{fill:url(#linear-gradient);}.cls-5{fill:url(#linear-gradient-2);}</style><clipPath id="clip-path"><rect class="cls-1" x="363.46238" y="105.60122" width="497.22667" height="116.13426"/></clipPath><linearGradient id="linear-gradient" x1="216.75891" y1="126.57476" x2="327.48376" y2="176.02509" gradientUnits="userSpaceOnUse"><stop offset="0.03273" stop-color="#ff7500"/><stop offset="0.46739" stop-color="#f90"/><stop offset="1" stop-color="#ffc200"/></linearGradient><linearGradient id="linear-gradient-2" x1="90.1556" y1="131.66841" x2="256.05583" y2="187.52841" gradientUnits="userSpaceOnUse"><stop offset="0.03273" stop-color="#007fff"/><stop offset="0.20156" stop-color="#0076f9"/><stop offset="1" stop-color="#004ddf"/></linearGradient></defs><title>Logo AgileOps</title><g class="cls-2"><path class="cls-3" d="M824.34249,150.62914c0-4.0862,4.31413-4.99429,7.1401-4.99429,9.37075,0,9.22189,8.47514,16.21319,8.47514a7.64673,7.64673,0,0,0,7.8842-7.26442v-.60536c0-6.96169-8.92513-14.83138-24.09739-14.83138-14.72581,0-24.98952,8.0211-24.98952,19.67435,0,23.30651,34.06345,15.89078,34.06345,26.182,0,3.17812-2.52915,5.14552-8.03306,5.14552-7.58571,0-12.64311-8.77777-16.8085-8.77777-4.46209,0-8.62658,2.42144-8.62658,8.17241,0,4.99429,8.77544,14.98278,26.92246,14.98278,19.933,0,24.09745-13.62065,24.09745-18.00959C858.10829,152.89926,824.34249,160.92036,824.34249,150.62914Z"/><path class="cls-3" d="M756.42285,164.043c0,7.88379,4.24535,15.46435,12.43238,15.46435,8.64213,0,12.12872-8.64185,12.12872-15.7675,0-5.45806-2.72872-15.46435-12.43152-15.46435C760.06173,148.42706,756.42285,157.22049,756.42285,164.043Zm-8.85717,57.69249c-6.97407,0-9.03266-6.44761-9.03266-14.63464V144.94c0-9.55157,3.27155-12.67093,9.03266-12.67093,3.79029,0,6.73494,1.14844,9.00944,5.242,3.79028-4.09351,8.35736-6.10221,15.93792-6.10221,13.03888,0,26.7952,11.33634,27.098,32.25866.1514,15.76759-10.59146,33.12321-28.02706,33.12321a23.39111,23.39111,0,0,1-14.55464-5.306v15.61619C757.02934,214.6814,754.99482,221.73548,747.56568,221.73548Z"/><path class="cls-3" d="M668.39653,153.66412c0,20.32443,11.97819,25.82576,20.31749,25.82576,9.70366,0,20.16605-7.33513,20.16605-25.82576,0-15.7399-7.43-26.43689-20.16605-26.43689C675.37147,127.22723,668.39653,138.994,668.39653,153.66412Zm-20.62028-.30557c0-29.95171,19.40732-44.31631,40.78634-44.31631,21.98464,0,40.93777,15.28146,40.93777,44.31631,0,29.79885-19.20946,44.289-40.8913,44.289C666.62441,197.79978,647.77625,182.85175,647.77625,153.35855Z"/><path class="cls-3" d="M594.88957,157.31951h24.40109c0-4.82061-4.09222-10.84634-12.27581-10.84634C598.679,146.47317,594.88957,154.75861,594.88957,157.31951Zm.15227,12.05146c0,4.36871,4.395,10.997,13.0337,10.997,10.003,0,16.36806-6.02573,20.46028-6.02573a6.9989,6.9989,0,0,1,7.1229,7.08023c0,7.68284-12.73091,15.36568-28.34107,15.36568-16.36806,0-31.37259-13.106-31.37259-32.68964,0-18.83044,13.943-32.68965,31.06979-32.68965,17.58015,0,30.00823,13.40732,30.00823,30.27938,0,5.12187-1.36436,7.3815-9.09376,7.3815H595.04184Z"/><path class="cls-3" d="M484.44675,187.054c-3.35069,4.54662-8.36425,8.87387-16.89366,8.87387-12.64229,0-26.66787-11.45033-26.66787-32.3649,0-16.82252,11.302-32.15414,28.8185-32.15414,6.39685,0,11.54461,2.14634,14.743,6.08673a8.86645,8.86645,0,0,1,8.48382-5.22647c4.8742,0,9.03267,2.80159,9.03267,12.6527v42.88993c0,26.825-16.5444,33.92376-32.68964,33.92376-18.12555,0-27.01757-6.94741-27.01757-13.91891a7.70418,7.70418,0,0,1,7.6154-8.03219c6.55,0,9.44387,4.85012,20.25812,4.85012C486.57932,204.7859,484.44675,187.96329,484.44675,187.054Zm-24.37013-23.64261c0,9.09331,4.8742,15.61016,12.1855,15.61016,8.07262,0,12.18463-7.57771,12.18463-15.45858,0-8.33552-4.56881-15.15543-12.18463-15.15543C463.7327,148.40754,460.07662,156.28832,460.07662,163.41139Z"/><path class="cls-3" d="M384.52432,178.90516c-2.71969,8.05542-4.3817,17.02271-11.93628,17.02271-6.19477,0-11.3319-5.77557-8.159-14.74286,4.38166-12.15909,15.86468-43.92464,21.60619-58.97143,1.96413-5.16763,5.28815-12.31109,14.80694-12.31109,8.76341,0,12.5407,7.90341,13.59829,11.09512L435.44231,181.033c3.47517,10.18326-1.511,14.89487-7.85678,14.89487-5.4393,0-8.159-1.976-12.38955-17.02271Zm5.28824-17.47863h19.79306l-9.51879-31.00561Z"/><path class="cls-3" d="M536.37339,116.35439a10.75318,10.75318,0,1,1-10.75317-10.75317A10.68714,10.68714,0,0,1,536.37339,116.35439Z"/><path class="cls-3" d="M525.84388,195.92787c-7.61411,0-9.25633-7.49153-9.25633-12.53691V144.863c0-8.8675,2.68743-13.4542,9.25633-13.4542,6.56976,0,8.809,5.80982,8.809,13.4542v38.68088C534.65288,188.74208,533.15949,195.92787,525.84388,195.92787Z"/><path class="cls-3" d="M558.3047,195.92787c-7.67346,0-9.02751-7.59045-9.02751-12.60023V118.505c0-5.00972,1.2035-12.90381,9.02751-12.90381,7.82314,0,9.02751,7.89409,9.02751,12.90381v64.67086C567.48189,188.33742,566.12784,195.92787,558.3047,195.92787Z"/></g><path class="cls-4" d="M264.32368,83.797a67.79835,67.79835,0,0,0-51.789,23.39284c7.75868,8.93907,14.17828,27.19409,16.65225,38.21164,3.67872-16.164,18.48972-28.68076,35.13676-28.68076,19.97543,0,36.37963,15.77625,36.37963,35.65514a36.75472,36.75472,0,0,1-30.08166,35.81427v33.17649c35.23725-3.21639,63.16612-33.07445,63.16612-68.99076C333.78777,114.30919,302.56839,83.797,264.32368,83.797Z"/><path class="cls-5" d="M152.93031,83.84934c-37.45206,0-69.87842,28.52277-69.87842,69.78828,0,35.53843,30.1331,68.06415,68.14778,68.06415,20.58322,0,39.97989-8.4622,53.10973-23.394-8.281-10.92808-13.84646-23.71069-17.38579-36.54846a35.84715,35.84715,0,0,1-34.931,26.976c-18.97706,0-35.83566-15.55194-35.83566-35.67521,0-20.63431,15.94392-36.29275,36.12142-36.29275,17.22,0,31.8888,10.69733,40.18426,40.59921,10.64224,38.36108,33.69257,64.27464,71.89051,64.27464-.00449-10.98117.00319-21.92986-.0013-32.911-27.95007-1.82491-35.92111-22.28852-45.62992-55.726C210.26975,103.89476,185.92287,83.84934,152.93031,83.84934Z"/></svg>