<svg id="Layer_1" data-name="Layer 1" xmlns="http://www.w3.org/2000/svg" viewBox="0 0 1083.78723 582.84053"><defs><style>.cls-1{fill:#4c81c2;}</style></defs><title>AIF360</title><polygon class="cls-1" points="1066.147 38.848 891.172 38.848 901.951 8.679 1066.147 8.679 1066.147 38.848"/><path class="cls-1" d="M599.69667,8.67413l162.45526-.01882L772.78916,38.8974c.07821-.043-173.03763.03711-173.03763,0C599.75153,38.85443,599.64715,8.67413,599.69667,8.67413Z"/><path class="cls-1" d="M470.67452,8.66772c26.77559,2.58333,50.04824,12.12249,69.87854,30.22314,0,0-294.47462.03057-294.47462,0V8.66118Z"/><rect class="cls-1" x="14.99459" y="8.66772" width="204.57093" height="30.16975"/><path class="cls-1" d="M1066.14744,95.45114H871.1209S881.75824,65.44169,881.693,65.42926h184.45447Z"/><polygon class="cls-1" points="792.888 95.488 599.689 95.488 599.689 65.423 782.304 65.423 792.888 95.488"/><path class="cls-1" d="M563.48362,65.41619c3.88028,9.9126,8.47487,18.38682,8.47487,30.02321H246.13383V65.41619Z"/><rect class="cls-1" x="14.99459" y="65.41619" width="204.57093" height="30.0232"/><polygon class="cls-1" points="851.171 152.194 861.874 122.033 1008.314 122.075 1008.314 152.127 851.171 152.194"/><polygon class="cls-1" points="802.287 122.025 812.955 152.194 657.291 152.194 657.291 122.025 802.287 122.025"/><path class="cls-1" d="M574.542,122.01945c0,10.344-1.29828,21.1227-4.30912,30.175H481.01972v-30.175Z"/><rect class="cls-1" x="72.01241" y="122.16614" width="87.92914" height="30.02173"/><rect class="cls-1" x="305.31988" y="122.01945" width="87.77725" height="30.16842"/><path class="cls-1" d="M743.75791,184.769s.02483,22.83406.00654,22.877H657.29123v-30.0224H822.06914L832.30357,205.616c.0483.01829,9.86828-28.06011,9.88777-27.99885h166.06832v30.02894H922.21259c-.00774-.043-.04818-22.87118-.04818-22.87118l-7.95873,22.87118-162.50211-.043Z"/><path class="cls-1" d="M305.31988,177.61714H557.3002v-.01174a113.39479,113.39479,0,0,1-24.99643,30.04068s-226.98977.04176-226.98977,0C305.314,207.6031,305.31988,177.6712,305.31988,177.61714Z"/><rect class="cls-1" x="72.01241" y="177.6106" width="87.92914" height="30.02961"/><rect class="cls-1" x="922.21259" y="234.22627" width="86.04706" height="30.02307"/><path class="cls-1" d="M743.75791,234.22627H657.29123v30.02307c-.043-.01562,86.49151.01041,86.49151,0C743.78274,264.23372,743.88045,234.22627,743.75791,234.22627Z"/><path class="cls-1" d="M904.83282,234.22627c-.39107-.04364-10.07945,30.00745-10.48614,30.02307l-122.56376.05219c-.09648-.047-10.7767-30.1189-10.78458-30.07526Z"/><path class="cls-1" d="M305.30813,234.21906H531.87158a148.20316,148.20316,0,0,1,27.01357,30.03028c.41323-.01562-253.57115.01041-253.57115,0C305.314,264.23372,305.30813,234.2503,305.30813,234.21906Z"/><path class="cls-1" d="M159.92846,264.2416V234.21906H72.15776s.01815,30.01466,0,30.01466Z"/><rect class="cls-1" x="922.21259" y="290.82886" width="86.04052" height="30.02827"/><rect class="cls-1" x="657.28601" y="290.82886" width="86.4719" height="30.02307"/><path class="cls-1" d="M874.22435,320.99794c.02349-.1356,10.61253-30.19512,10.77683-30.16908H780.81051c-.18127-.01308,10.68152,30.03348,10.68152,30.03348S874.20486,321.123,874.22435,320.99794Z"/><path class="cls-1" d="M305.314,320.85193c0,.12-.00587-30.02307,0-30.02827h89.08006s.07955,30.03868,0,30.03868C394.3093,320.86234,305.314,320.8259,305.314,320.85193Z"/><path class="cls-1" d="M571.3863,290.82366c4.30657,9.05092,4.73928,19.82242,5.59818,30.16641H482.59694V290.82366Z"/><rect class="cls-1" x="72.15776" y="290.82366" width="87.77071" height="30.02053"/><rect class="cls-1" x="922.21259" y="346.27399" width="143.92964" height="30.03615"/><rect class="cls-1" x="599.68372" y="346.27399" width="144.07419" height="30.03615"/><polygon class="cls-1" points="854.863 376.31 810.918 376.31 800.374 346.274 865.026 346.274 854.863 376.31"/><path class="cls-1" d="M14.983,346.274v30.02307h204.43c.08542.047-.09183-30.00478,0-30.00478C219.49838,346.29228,14.745,346.274,14.983,346.274Z"/><path class="cls-1" d="M573.24368,346.274c-2.15194,9.90608-4.124,21.98092-11.362,30.03615l-2.69932-.01308H246.12208V346.274Z"/><polygon class="cls-1" points="834.946 432.978 830.901 432.978 820.63 402.882 845.486 402.882 834.946 432.978"/><rect class="cls-1" x="922.20485" y="402.88179" width="143.93738" height="30.16909"/><path class="cls-1" d="M246.07844,432.97787V402.93131s295.35126.03657,296.1984.03657c-19.82963,18.957-47.03793,29.65816-76.3416,30.083L246.12208,432.991"/><rect class="cls-1" x="599.68372" y="402.88179" width="144.07419" height="30.16909"/><path class="cls-1" d="M219.413,403.01473s-.09183,29.96314,0,29.96314c.08542,0-204.37006.12252-204.43.06006-.05552-.06006.05473-30.10662,0-30.10662C14.92745,402.93131,219.32113,403.11376,219.413,403.01473Z"/><path d="M118.51317,524.95778l16.18834,43.29027h-9.883l-3.274-9.64027H105.35614l-3.39541,9.64027H92.38136l16.37018-43.29027Zm.54554,26.5564-5.45659-15.88555h-.12137l-5.63885,15.88555Z"/><path d="M147.97951,524.95778v43.29027h-9.5189V524.95778Z"/><path d="M203.63813,524.95778V532.961H182.72058v10.004h18.12857v7.39724H182.72058v17.88583h-9.5189V524.95778Z"/><path d="M207.88145,546.54223a10.00071,10.00071,0,0,1,1.51565-5.03242,10.32094,10.32094,0,0,1,3.3954-3.21315,14.785,14.785,0,0,1,4.63829-1.72794,26.38894,26.38894,0,0,1,5.18382-.5155,35.19933,35.19933,0,0,1,4.78969.33366,14.67619,14.67619,0,0,1,4.426,1.30335,8.71925,8.71925,0,0,1,3.274,2.69806,7.53765,7.53765,0,0,1,1.27333,4.57781v16.30929a32.63166,32.63166,0,0,0,.24274,4.06231,7.31893,7.31893,0,0,0,.84875,2.91035H228.7381a12.12506,12.12506,0,0,1-.39372-1.48562,12.60872,12.60872,0,0,1-.21229-1.5461,11.21389,11.21389,0,0,1-4.85058,2.97124,19.48141,19.48141,0,0,1-5.69932.84875,15.37984,15.37984,0,0,1-4.18326-.546,9.56927,9.56927,0,0,1-3.39541-1.69749,7.89651,7.89651,0,0,1-2.27389-2.91035,9.83817,9.83817,0,0,1-.8183-4.18326,9.132,9.132,0,0,1,.93967-4.396,7.85526,7.85526,0,0,1,2.42529-2.75853,10.87135,10.87135,0,0,1,3.39541-1.5461,36.65429,36.65429,0,0,1,3.85-.81872q1.93939-.30216,3.81957-.48505a22.91663,22.91663,0,0,0,3.33493-.54554,5.81338,5.81338,0,0,0,2.30392-1.061,2.32953,2.32953,0,0,0,.78786-2.03116,4.56953,4.56953,0,0,0-.45461-2.213,3.35036,3.35036,0,0,0-1.21244-1.27333,4.78682,4.78682,0,0,0-1.75839-.606A14.46591,14.46591,0,0,0,222.19,541.813a6.533,6.533,0,0,0-4.00141,1.09148,4.87059,4.87059,0,0,0-1.69792,3.63773Zm19.88654,6.36623a3.84891,3.84891,0,0,1-1.36384.75782,13.99357,13.99357,0,0,1-1.75838.455q-.94092.18142-1.97068.3028-1.03164.12261-2.06119.30321a15.55969,15.55969,0,0,0-1.90978.48506,5.65216,5.65216,0,0,0-1.637.81872,3.886,3.886,0,0,0-1.12193,1.30335,4.19306,4.19306,0,0,0-.42416,2.00071,4.04336,4.04336,0,0,0,.42416,1.94023,3.24308,3.24308,0,0,0,1.152,1.24289,4.86025,4.86025,0,0,0,1.69791.63687,10.81486,10.81486,0,0,0,2.00071.18184,7.60817,7.60817,0,0,0,3.94094-.84874,5.68465,5.68465,0,0,0,2.0616-2.03116,6.507,6.507,0,0,0,.8183-2.39484,16.562,16.562,0,0,0,.1514-1.94023Z"/><path d="M243.28942,532.0518v-7.094h8.60926v7.094Zm8.60926,4.85016v31.34609h-8.60926V536.902Z"/><path d="M266.87417,536.902v5.8207h.12137a10.54723,10.54723,0,0,1,1.637-2.69806,10.73647,10.73647,0,0,1,2.3644-2.12207,11.58285,11.58285,0,0,1,2.84987-1.36426,10.28019,10.28019,0,0,1,3.15267-.48505,6.73,6.73,0,0,1,1.87976.30321v8.00325q-.60686-.12075-1.45518-.21229a15.43955,15.43955,0,0,0-1.637-.09093,9.17873,9.17873,0,0,0-4.00183.78827,6.9305,6.9305,0,0,0-2.63716,2.15211,8.61772,8.61772,0,0,0-1.42515,3.18311,17.31708,17.31708,0,0,0-.42416,3.94136v14.12674h-8.60968V536.902Z"/><path d="M291.54956,536.902v4.36552h.18184a9.88141,9.88141,0,0,1,4.24416-3.97138,12.28238,12.28238,0,0,1,5.33563-1.24288,14.63352,14.63352,0,0,1,5.66888.93967A8.41586,8.41586,0,0,1,310.4664,539.6a10.0995,10.0995,0,0,1,1.78842,4.06231,25.2907,25.2907,0,0,1,.5155,5.30519v19.28053h-8.60967v-17.704a10.99224,10.99224,0,0,0-1.21244-5.79025q-1.21368-1.91-4.30463-1.90978-3.51718,0-5.09331,2.09163-1.57717,2.09142-1.57613,6.88131v16.43108h-8.60967V536.902Z"/><path d="M328.53324,560.72986a8.82831,8.82831,0,0,0,10.06485.576,5.41006,5.41006,0,0,0,2.30392-2.75853h7.57867q-1.81866,5.63864-5.578,8.06372a16.41949,16.41949,0,0,1-9.09431,2.42529,17.89728,17.89728,0,0,1-6.66945-1.18241,13.85969,13.85969,0,0,1-5.03242-3.365,15.12905,15.12905,0,0,1-3.18311-5.21426,19.07406,19.07406,0,0,1-1.12152-6.66945,18.28155,18.28155,0,0,1,1.152-6.54807,15.15522,15.15522,0,0,1,8.33649-8.73062,16.2339,16.2339,0,0,1,6.518-1.27333,14.906,14.906,0,0,1,6.97223,1.54609,13.92452,13.92452,0,0,1,4.881,4.15323,17.08,17.08,0,0,1,2.75853,5.94165,22.16089,22.16089,0,0,1,.60643,6.97265H326.41117Q326.59322,558.85031,328.53324,560.72986Zm9.73119-16.49155a6.04924,6.04924,0,0,0-4.69876-1.6975,7.4956,7.4956,0,0,0-3.42544.69694,6.53516,6.53516,0,0,0-2.183,1.72835,6.33454,6.33454,0,0,0-1.152,2.18256,9.86124,9.86124,0,0,0-.39413,2.0616H340.417A9.95184,9.95184,0,0,0,338.26443,544.23831Z"/><path d="M361.36412,560.45709a5.03406,5.03406,0,0,0,1.4852,1.637,6.37078,6.37078,0,0,0,2.09205.93967,9.81908,9.81908,0,0,0,2.45532.30321,9.156,9.156,0,0,0,1.90978-.21229,6.48091,6.48091,0,0,0,1.81928-.6669,4.12717,4.12717,0,0,0,1.36383-1.21244,3.183,3.183,0,0,0,.546-1.9102q0-1.93939-2.57669-2.90993a51.63726,51.63726,0,0,0-7.18495-1.94023q-1.88-.42354-3.66817-1.00056a12.486,12.486,0,0,1-3.18312-1.51565,7.35667,7.35667,0,0,1-2.24344-2.36482,6.69274,6.69274,0,0,1-.84875-3.48591,9.43376,9.43376,0,0,1,1.18241-4.97194,8.71785,8.71785,0,0,1,3.12264-3.06175,13.69248,13.69248,0,0,1,4.3651-1.57654,26.91114,26.91114,0,0,1,4.97195-.45461,24.84507,24.84507,0,0,1,4.94108.48505,13.10256,13.10256,0,0,1,4.2746,1.637,9.82532,9.82532,0,0,1,3.12264,3.06175,10.29457,10.29457,0,0,1,1.48521,4.82013H372.611a3.769,3.769,0,0,0-1.87934-3.365,8.6018,8.6018,0,0,0-4.00183-.87919,14.89076,14.89076,0,0,0-1.57612.09092,5.26524,5.26524,0,0,0-1.5461.39414,3.18459,3.18459,0,0,0-1.18241.87919,2.32088,2.32088,0,0,0-.48505,1.5461,2.35943,2.35943,0,0,0,.84874,1.87975,6.54318,6.54318,0,0,0,2.213,1.182,27.673,27.673,0,0,0,3.12264.81872q1.75734.36348,3.57725.78827a36.66574,36.66574,0,0,1,3.66817,1.03059,12.10355,12.10355,0,0,1,3.18312,1.60657,7.78539,7.78539,0,0,1,2.243,2.48577,7.30205,7.30205,0,0,1,.84874,3.66817,9.52107,9.52107,0,0,1-4.48647,8.5492,13.28314,13.28314,0,0,1-4.57781,1.78842,26.73793,26.73793,0,0,1-5.2443.5155,25.9501,25.9501,0,0,1-5.33564-.546,14.069,14.069,0,0,1-4.63829-1.81886,10.39193,10.39193,0,0,1-3.33451-3.365,10.5287,10.5287,0,0,1-1.42473-5.2443h8.1851A4.71465,4.71465,0,0,0,361.36412,560.45709Z"/><path d="M393.92222,560.45709a5.03418,5.03418,0,0,0,1.4852,1.637,6.37078,6.37078,0,0,0,2.092.93967,9.81908,9.81908,0,0,0,2.45532.30321,9.15607,9.15607,0,0,0,1.90979-.21229,6.48091,6.48091,0,0,0,1.81928-.6669,4.12727,4.12727,0,0,0,1.36383-1.21244,3.183,3.183,0,0,0,.546-1.9102q0-1.93939-2.57669-2.90993A51.63666,51.63666,0,0,0,395.832,554.485q-1.88-.42354-3.66818-1.00056a12.48575,12.48575,0,0,1-3.18311-1.51565,7.35657,7.35657,0,0,1-2.24344-2.36482,6.69274,6.69274,0,0,1-.84875-3.48591,9.43376,9.43376,0,0,1,1.1824-4.97194,8.71793,8.71793,0,0,1,3.12264-3.06175,13.69262,13.69262,0,0,1,4.36511-1.57654,26.911,26.911,0,0,1,4.97195-.45461,24.84514,24.84514,0,0,1,4.94108.48505,13.10265,13.10265,0,0,1,4.2746,1.637A9.82553,9.82553,0,0,1,411.869,541.237a10.29457,10.29457,0,0,1,1.4852,4.82013h-8.18509a3.769,3.769,0,0,0-1.87934-3.365,8.60183,8.60183,0,0,0-4.00183-.87919,14.89109,14.89109,0,0,0-1.57613.09092,5.26517,5.26517,0,0,0-1.54609.39414,3.18451,3.18451,0,0,0-1.18241.87919,2.32083,2.32083,0,0,0-.48506,1.5461,2.35941,2.35941,0,0,0,.84875,1.87975,6.543,6.543,0,0,0,2.213,1.182,27.67246,27.67246,0,0,0,3.12264.81872q1.75734.36348,3.57725.78827a36.66725,36.66725,0,0,1,3.66817,1.03059,12.10348,12.10348,0,0,1,3.18311,1.60657,7.78528,7.78528,0,0,1,2.243,2.48577,7.30205,7.30205,0,0,1,.84875,3.66817,9.52105,9.52105,0,0,1-4.48648,8.5492,13.28306,13.28306,0,0,1-4.57781,1.78842,26.73793,26.73793,0,0,1-5.2443.5155,25.94993,25.94993,0,0,1-5.33563-.546,14.06894,14.06894,0,0,1-4.63829-1.81886,10.39173,10.39173,0,0,1-3.33451-3.365,10.5287,10.5287,0,0,1-1.42473-5.2443h8.18509A4.71475,4.71475,0,0,0,393.92222,560.45709Z"/><path d="M449.61046,542.965a9.32621,9.32621,0,0,0,2.94037-.69693,5.64428,5.64428,0,0,0,2.24345-1.66747,4.50657,4.50657,0,0,0,.87919-2.91035,5.04511,5.04511,0,0,0-1.81886-4.18367,6.50817,6.50817,0,0,0-4.18368-1.45476,5.86733,5.86733,0,0,0-4.9415,2.15211,8.32989,8.32989,0,0,0-1.60657,5.42656h-8.18509a18.02074,18.02074,0,0,1,1.18241-5.9721,13.63844,13.63844,0,0,1,2.97082-4.63828,13.164,13.164,0,0,1,4.57739-3.00127,15.96706,15.96706,0,0,1,5.94207-1.061,17.7958,17.7958,0,0,1,5.0929.75782,14.52522,14.52522,0,0,1,4.57739,2.27389,12.311,12.311,0,0,1,3.30449,3.69821,9.80507,9.80507,0,0,1,1.27332,5.03242,10.04025,10.04025,0,0,1-1.48562,5.45659,7.45119,7.45119,0,0,1-4.456,3.21356v.12137a9.248,9.248,0,0,1,5.51706,3.3954,9.95672,9.95672,0,0,1,2.00113,6.24486,12.85585,12.85585,0,0,1-4.79011,10.30717,15.38036,15.38036,0,0,1-5.03242,2.66761,20.50265,20.50265,0,0,1-12.45927-.12095,13.6552,13.6552,0,0,1-5.002-3.00127,13.28814,13.28814,0,0,1-3.18312-4.82013,16.9853,16.9853,0,0,1-1.061-6.54808h8.18509a12.18329,12.18329,0,0,0,.54553,3.24359,7.968,7.968,0,0,0,1.3947,2.66761,6.61631,6.61631,0,0,0,2.27347,1.78884,7.30908,7.30908,0,0,0,3.24359.6669,7.1009,7.1009,0,0,0,4.91106-1.78883,7.25707,7.25707,0,0,0,1.061-8.57923,5.39438,5.39438,0,0,0-2.39485-1.84889,10.04043,10.04043,0,0,0-3.18311-.66732q-1.72794-.09072-3.30407-.09093v-6.063A18.007,18.007,0,0,0,449.61046,542.965Z"/><path d="M488.111,533.0215a5.00759,5.00759,0,0,0-3.75909-1.57613,5.60572,5.60572,0,0,0-3.85,1.36426,9.9471,9.9471,0,0,0-2.45573,3.33451,18.00015,18.00015,0,0,0-1.33381,4.2137,26.68788,26.68788,0,0,0-.48506,4.00184l.12137.12137a10.2961,10.2961,0,0,1,4.12279-3.63815,13.37318,13.37318,0,0,1,10.79222.09092,13.35656,13.35656,0,0,1,4.426,3.18312,12.30828,12.30828,0,0,1,2.48618,4.426,16.58725,16.58725,0,0,1,.78786,5.03242,17.16826,17.16826,0,0,1-1.061,6.09346,14.555,14.555,0,0,1-3.0313,4.91106,14.05417,14.05417,0,0,1-4.69877,3.274,16.87411,16.87411,0,0,1-14.00578-.72737,14.71246,14.71246,0,0,1-5.03243-5.002,20.60624,20.60624,0,0,1-2.60713-7.0031,43.49258,43.49258,0,0,1-.72738-7.9728,34.97224,34.97224,0,0,1,.90922-7.88188,22.99272,22.99272,0,0,1,2.91035-7.12406,16.39127,16.39127,0,0,1,5.15379-5.18424,14.08347,14.08347,0,0,1,7.7-2.0007,16.03074,16.03074,0,0,1,5.0929.78827,13.10967,13.10967,0,0,1,4.18367,2.27347,11.77087,11.77087,0,0,1,2.97083,3.66818,14.69084,14.69084,0,0,1,1.51565,5.03242h-8.18509A7.31534,7.31534,0,0,0,488.111,533.0215Zm-7.24542,13.85439a6.02378,6.02378,0,0,0-2.1521,1.72794,7.55252,7.55252,0,0,0-1.27333,2.51621,10.45286,10.45286,0,0,0-.42459,3.00127,9.42989,9.42989,0,0,0,.45462,2.8799,8.049,8.049,0,0,0,1.33422,2.54624,6.56411,6.56411,0,0,0,2.1521,1.78884,6.174,6.174,0,0,0,2.91035.6669,5.51571,5.51571,0,0,0,2.75853-.6669,6.76833,6.76833,0,0,0,2.03116-1.75839,7.6279,7.6279,0,0,0,1.27333-2.48577,9.7553,9.7553,0,0,0,.42458-2.84987,10.999,10.999,0,0,0-.39414-2.94037,8.22683,8.22683,0,0,0-1.1824-2.54666,6.09016,6.09016,0,0,0-2.03116-1.81887,5.79372,5.79372,0,0,0-2.8799-.69734A6.75359,6.75359,0,0,0,480.86562,546.87589Z"/><path d="M502.75329,536.44735a18.70524,18.70524,0,0,1,3.365-6.76036,12.0628,12.0628,0,0,1,4.9415-3.63773,16.3898,16.3898,0,0,1,5.97209-1.09148,16.56092,16.56092,0,0,1,6.03257,1.09148,12.29176,12.29176,0,0,1,4.97195,3.63773,18.44551,18.44551,0,0,1,3.395,6.76036,37.27421,37.27421,0,0,1,1.24288,10.39809,38.732,38.732,0,0,1-1.24288,10.64083,18.43375,18.43375,0,0,1-3.395,6.82084,12.29185,12.29185,0,0,1-4.97195,3.63773,16.56092,16.56092,0,0,1-6.03257,1.09148,16.3898,16.3898,0,0,1-5.97209-1.09148,12.06289,12.06289,0,0,1-4.9415-3.63773,18.6919,18.6919,0,0,1-3.365-6.82084,38.69952,38.69952,0,0,1-1.24289-10.64083A37.24279,37.24279,0,0,1,502.75329,536.44735ZM510.241,551.241a23.60168,23.60168,0,0,0,.75782,4.97195,10.65682,10.65682,0,0,0,2.03116,4.09234,4.881,4.881,0,0,0,4.00183,1.69791,5.04217,5.04217,0,0,0,4.09234-1.69791,10.439,10.439,0,0,0,2.0616-4.09234,23.62891,23.62891,0,0,0,.75782-4.97195q.12075-2.57627.12137-4.39555,0-1.09107-.03044-2.63758a29.51375,29.51375,0,0,0-.24233-3.18311,29.85187,29.85187,0,0,0-.60642-3.24359,9.959,9.959,0,0,0-1.18241-2.8799,6.51538,6.51538,0,0,0-2.00071-2.0616,5.34516,5.34516,0,0,0-2.97082-.78786,5.193,5.193,0,0,0-2.94079.78786,6.3291,6.3291,0,0,0-1.94024,2.0616,11.1438,11.1438,0,0,0-1.182,2.8799,22.343,22.343,0,0,0-.60642,3.24359q-.18205,1.63722-.21229,3.18311-.03129,1.54651-.03045,2.63758Q510.11966,548.6641,510.241,551.241Z"/><path d="M551.59107,532.961v-8.00324h35.46887V532.961h-12.9752v35.287h-9.51847V532.961Z"/><path d="M584.57417,545.7844a14.3335,14.3335,0,0,1,8.36736-8.54878,17.89519,17.89519,0,0,1,6.669-1.1824,18.14459,18.14459,0,0,1,6.69989,1.1824,14.275,14.275,0,0,1,8.39738,8.54878,19.25722,19.25722,0,0,1,1.152,6.82084,19.00409,19.00409,0,0,1-1.152,6.79082,14.73572,14.73572,0,0,1-3.274,5.18382,14.27086,14.27086,0,0,1-5.12335,3.30448,18.5842,18.5842,0,0,1-6.69989,1.152,18.32807,18.32807,0,0,1-6.669-1.152,14.30883,14.30883,0,0,1-5.09332-3.30448,14.70046,14.70046,0,0,1-3.274-5.18382,18.98588,18.98588,0,0,1-1.152-6.79082A19.23867,19.23867,0,0,1,584.57417,545.7844Zm7.82182,10.489a9.74341,9.74341,0,0,0,1.24289,3.21356,6.60263,6.60263,0,0,0,2.334,2.27347,7.11674,7.11674,0,0,0,3.63772.84875,7.28839,7.28839,0,0,0,3.66859-.84875,6.54815,6.54815,0,0,0,2.364-2.27347,9.76155,9.76155,0,0,0,1.24288-3.21356,18.33474,18.33474,0,0,0,.36369-3.66818,18.79584,18.79584,0,0,0-.36369-3.6982,9.43959,9.43959,0,0,0-1.24288-3.21356,6.90969,6.90969,0,0,0-2.364-2.27347,7.10008,7.10008,0,0,0-3.66859-.8792,6.621,6.621,0,0,0-5.97167,3.15267A9.42266,9.42266,0,0,0,592.396,548.907a18.79715,18.79715,0,0,0-.36452,3.6982A18.33567,18.33567,0,0,0,592.396,556.27342Z"/><path d="M621.61875,545.7844a14.3335,14.3335,0,0,1,8.36736-8.54878,17.89519,17.89519,0,0,1,6.669-1.1824,18.14463,18.14463,0,0,1,6.69989,1.1824,14.275,14.275,0,0,1,8.39738,8.54878,19.25722,19.25722,0,0,1,1.152,6.82084,19.00409,19.00409,0,0,1-1.152,6.79082,14.73572,14.73572,0,0,1-3.274,5.18382,14.27094,14.27094,0,0,1-5.12335,3.30448,18.58424,18.58424,0,0,1-6.69989,1.152,18.32807,18.32807,0,0,1-6.669-1.152,14.30883,14.30883,0,0,1-5.09332-3.30448,14.70046,14.70046,0,0,1-3.274-5.18382,18.98588,18.98588,0,0,1-1.152-6.79082A19.23867,19.23867,0,0,1,621.61875,545.7844Zm7.82182,10.489a9.74361,9.74361,0,0,0,1.24288,3.21356,6.60266,6.60266,0,0,0,2.334,2.27347,7.11671,7.11671,0,0,0,3.63772.84875,7.28839,7.28839,0,0,0,3.66859-.84875,6.54815,6.54815,0,0,0,2.364-2.27347,9.76155,9.76155,0,0,0,1.24288-3.21356,18.33474,18.33474,0,0,0,.36369-3.66818,18.79584,18.79584,0,0,0-.36369-3.6982,9.43959,9.43959,0,0,0-1.24288-3.21356,6.90969,6.90969,0,0,0-2.364-2.27347,7.10008,7.10008,0,0,0-3.66859-.8792,6.621,6.621,0,0,0-5.97168,3.15267,9.42285,9.42285,0,0,0-1.24288,3.21356,18.79639,18.79639,0,0,0-.36452,3.6982A18.33494,18.33494,0,0,0,629.44057,556.27342Z"/><path d="M667.33348,524.95778v43.29027h-8.60926V524.95778Z"/><path d="M683.52182,524.95778v23.22147L694.37494,536.902h10.1858l-11.82324,11.52,13.157,19.82607H695.466l-8.60926-14.00579-3.33493,3.21356v10.79223h-8.60926V524.95778Z"/><path d="M709.16858,532.0518v-7.094h8.60926v7.094Zm8.60926,4.85016v31.34609h-8.60926V536.902Z"/><path d="M741.78716,536.902v5.75981H735.481V558.1832a2.91614,2.91614,0,0,0,3.63856,3.63814q.727,0,1.39386-.06089a11.657,11.657,0,0,0,1.27375-.18184v6.66944a20.4982,20.4982,0,0,1-2.42571.24232q-1.3338.06006-2.60671.06089a25.13919,25.13919,0,0,1-3.78954-.27276,8.93739,8.93739,0,0,1-3.15309-1.061A5.6104,5.6104,0,0,1,727.66,564.974a8.00922,8.00922,0,0,1-.78827-3.81957V542.66177h-5.21427V536.902h5.21427v-9.39752H735.481V536.902Z"/><path d="M772.8292,537.2961a63.41534,63.41534,0,0,0-1.57654,14.09671,65.64771,65.64771,0,0,0,1.54568,14.24811,54.86529,54.86529,0,0,0,5.00239,13.5812h-7.1545a56.4824,56.4824,0,0,1-5.91162-13.15662,48.32956,48.32956,0,0,1-2.09121-14.06627,52.08073,52.08073,0,0,1,.51467-7.12447,59.704,59.704,0,0,1,1.51648-7.42685,53.26054,53.26054,0,0,1,2.48577-7.1545,36.96171,36.96171,0,0,1,3.48591-6.36622h7.21539A52.79307,52.79307,0,0,0,772.8292,537.2961Z"/><path d="M803.20392,524.95778l16.18834,43.29027h-9.88217l-3.274-9.64027H790.04771l-3.39582,9.64027h-9.57937l16.37018-43.29027Zm.54637,26.5564-5.457-15.88555h-.12179l-5.638,15.88555Z"/><path d="M832.67108,524.95778v43.29027h-9.51931V524.95778Z"/><path d="M871.47405,524.95778V532.961H850.55692v10.004h18.12857v7.39724H850.55692v17.88583H841.0376V524.95778Z"/><path d="M889.60178,542.965a9.329,9.329,0,0,0,2.94038-.69693,5.64582,5.64582,0,0,0,2.243-1.66747,4.50657,4.50657,0,0,0,.87919-2.91035,5.04367,5.04367,0,0,0-1.81844-4.18367,6.50871,6.50871,0,0,0-4.18326-1.45476,5.86625,5.86625,0,0,0-4.9415,2.15211,8.32513,8.32513,0,0,0-1.60658,5.42656h-8.18551a18.04242,18.04242,0,0,1,1.182-5.9721,13.65833,13.65833,0,0,1,2.97124-4.63828,13.15808,13.15808,0,0,1,4.57782-3.00127,15.96164,15.96164,0,0,1,5.94164-1.061,17.793,17.793,0,0,1,5.09249.75782,14.51864,14.51864,0,0,1,4.57781,2.27389,12.31813,12.31813,0,0,1,3.3049,3.69821,9.80889,9.80889,0,0,1,1.27291,5.03242,10.04025,10.04025,0,0,1-1.48562,5.45659,7.45245,7.45245,0,0,1-4.456,3.21356v.12137a9.24687,9.24687,0,0,1,5.51707,3.3954,9.95677,9.95677,0,0,1,2.00112,6.24486,12.85714,12.85714,0,0,1-4.78968,10.30717,15.38885,15.38885,0,0,1-5.03243,2.66761,20.504,20.504,0,0,1-12.45969-.12095,13.66039,13.66039,0,0,1-5.00239-3.00127,13.28814,13.28814,0,0,1-3.18312-4.82013,17.00892,17.00892,0,0,1-1.061-6.54808h8.1855a12.21662,12.21662,0,0,0,.54554,3.24359,7.96022,7.96022,0,0,0,1.3947,2.66761,6.61778,6.61778,0,0,0,2.27389,1.78884,7.30716,7.30716,0,0,0,3.24317.6669,7.10193,7.10193,0,0,0,4.91147-1.78883,7.26057,7.26057,0,0,0,1.061-8.57923,5.39666,5.39666,0,0,0-2.39484-1.84889,10.04055,10.04055,0,0,0-3.18312-.66732q-1.72794-.09072-3.3049-.09093v-6.063A18.012,18.012,0,0,0,889.60178,542.965Z"/><path d="M928.102,533.0215a5.00667,5.00667,0,0,0-3.75867-1.57613,5.60606,5.60606,0,0,0-3.85044,1.36426,9.94145,9.94145,0,0,0-2.45573,3.33451,18.00015,18.00015,0,0,0-1.33381,4.2137,26.62643,26.62643,0,0,0-.48464,4.00184l.12095.12137a10.29441,10.29441,0,0,1,4.1232-3.63815,13.37331,13.37331,0,0,1,10.79223.09092,13.36081,13.36081,0,0,1,4.426,3.18312,12.30719,12.30719,0,0,1,2.48577,4.426,16.58776,16.58776,0,0,1,.78827,5.03242,17.17737,17.17737,0,0,1-1.061,6.09346,14.55678,14.55678,0,0,1-3.03213,4.91106,14.04591,14.04591,0,0,1-4.69876,3.274,16.87315,16.87315,0,0,1-14.00537-.72737,14.71612,14.71612,0,0,1-5.03243-5.002,20.60572,20.60572,0,0,1-2.60671-7.0031,43.45612,43.45612,0,0,1-.72822-7.9728,34.94944,34.94944,0,0,1,.91006-7.88188,22.97237,22.97237,0,0,1,2.91035-7.12406,16.39419,16.39419,0,0,1,5.15337-5.18424,14.08446,14.08446,0,0,1,7.7-2.0007,16.02624,16.02624,0,0,1,5.09248.78827,13.11177,13.11177,0,0,1,4.18409,2.27347,11.77556,11.77556,0,0,1,2.97041,3.66818,14.70022,14.70022,0,0,1,1.51648,5.03242h-8.18551A7.31525,7.31525,0,0,0,928.102,533.0215Zm-7.24542,13.85439a6.02752,6.02752,0,0,0-2.15211,1.72794,7.56922,7.56922,0,0,0-1.27374,2.51621,10.46724,10.46724,0,0,0-.42375,3.00127,9.40467,9.40467,0,0,0,.45461,2.8799,8.03978,8.03978,0,0,0,1.33381,2.54624,6.57258,6.57258,0,0,0,2.1521,1.78884,6.17633,6.17633,0,0,0,2.91035.6669,5.51571,5.51571,0,0,0,2.75853-.6669,6.76833,6.76833,0,0,0,2.03116-1.75839,7.63672,7.63672,0,0,0,1.27374-2.48577,9.76819,9.76819,0,0,0,.42375-2.84987,10.9818,10.9818,0,0,0-.39372-2.94037,8.23543,8.23543,0,0,0-1.182-2.54666,6.10229,6.10229,0,0,0-2.03115-1.81887,5.79758,5.79758,0,0,0-2.88032-.69734A6.75483,6.75483,0,0,0,920.85653,546.87589Z"/><path d="M942.74461,536.44735a18.72534,18.72534,0,0,1,3.365-6.76036,12.06825,12.06825,0,0,1,4.9415-3.63773,17.05069,17.05069,0,0,1,12.00508,0,12.28772,12.28772,0,0,1,4.97153,3.63773,18.44612,18.44612,0,0,1,3.39583,6.76036,37.30565,37.30565,0,0,1,1.24288,10.39809,38.76448,38.76448,0,0,1-1.24288,10.64083,18.43429,18.43429,0,0,1-3.39583,6.82084,12.28781,12.28781,0,0,1-4.97153,3.63773,17.05069,17.05069,0,0,1-12.00508,0,12.06834,12.06834,0,0,1-4.9415-3.63773,18.71172,18.71172,0,0,1-3.365-6.82084,38.732,38.732,0,0,1-1.24288-10.64083A37.27421,37.27421,0,0,1,942.74461,536.44735Zm7.48816,14.79364a23.6019,23.6019,0,0,0,.75824,4.97195,10.63335,10.63335,0,0,0,2.03116,4.09234,4.8796,4.8796,0,0,0,4.00141,1.69791,5.0416,5.0416,0,0,0,4.09234-1.69791,10.4271,10.4271,0,0,0,2.06118-4.09234,23.65577,23.65577,0,0,0,.75825-4.97195q.12136-2.57627.12095-4.39555,0-1.09107-.03-2.63758a29.30626,29.30626,0,0,0-.24274-3.18311,29.651,29.651,0,0,0-.60643-3.24359,9.94667,9.94667,0,0,0-1.182-2.8799,6.51225,6.51225,0,0,0-2.00112-2.0616,5.34183,5.34183,0,0,0-2.97041-.78786,5.1916,5.1916,0,0,0-2.94037.78786,6.32491,6.32491,0,0,0-1.94024,2.0616,11.14528,11.14528,0,0,0-1.18282,2.8799,22.45533,22.45533,0,0,0-.60643,3.24359q-.18142,1.63722-.21187,3.18311-.03128,1.54651-.03,2.63758Q950.11182,548.6641,950.23277,551.241Z"/><path d="M978.51711,565.91368a61.5728,61.5728,0,0,0,1.60657-14.03581,65.22288,65.22288,0,0,0-1.57654-14.309,58.77014,58.77014,0,0,0-4.91064-13.64168h7.09361a56.17315,56.17315,0,0,1,5.91162,13.21751,48.9419,48.9419,0,0,1,2.09121,14.12674,56.39756,56.39756,0,0,1-1.97026,14.52087,51.53994,51.53994,0,0,1-2.51579,7.12447,36.37935,36.37935,0,0,1-3.51678,6.30534h-7.1545A56.976,56.976,0,0,0,978.51711,565.91368Z"/></svg>