<svg id="Ebene_1" data-name="Ebene 1" xmlns="http://www.w3.org/2000/svg" xmlns:xlink="http://www.w3.org/1999/xlink" viewBox="0 0 570 310"><defs><style>.cls-1,.cls-2{fill:none;}.cls-2{clip-path:url(#clip-path);clip-rule:evenodd;}.cls-3{clip-path:url(#clip-path-7);}.cls-4{fill:#0e1515;}.cls-5{clip-path:url(#clip-path-8);}.cls-6{clip-path:url(#clip-path-9);}.cls-7{clip-path:url(#clip-path-10);}.cls-8{fill:#8ed7f1;}.cls-9{clip-path:url(#clip-path-11);}.cls-10{fill:#f8dc51;}.cls-11{clip-path:url(#clip-path-12);}.cls-12{fill:#79e093;}</style><clipPath id="clip-path"><rect class="cls-1" width="570" height="310"/></clipPath><clipPath id="clip-path-7"><path class="cls-2" d="M198.25,125.26,148.42,38.94l-.1-.14c-.18-.32-.39-.62-.59-.92s-.21-.32-.33-.47-.42-.54-.63-.8l-.42-.5c-.19-.21-.4-.41-.6-.62s-.39-.39-.59-.57l-.53-.45c-.25-.2-.5-.41-.76-.6l-.51-.35c-.29-.2-.58-.39-.88-.57l-.16-.1-.42-.22c-.29-.15-.57-.3-.87-.44l-.72-.31-.75-.29c-.29-.11-.57-.19-.86-.28l-.66-.18c-.31-.08-.62-.15-.93-.2l-.66-.12-.9-.11-.74-.05c-.27,0-.54,0-.81,0s-.56,0-.85,0l-.7.05-.93.11-.63.11c-.32.06-.64.13-.95.21s-.43.11-.64.18-.59.17-.89.28l-.72.28-.74.32c-.3.14-.58.29-.87.44l-.42.22-.15.1c-.31.18-.6.37-.89.57l-.5.34c-.27.2-.52.41-.77.62l-.53.44c-.2.18-.39.38-.58.57s-.41.4-.61.62-.27.33-.41.5-.44.52-.64.8l-.32.46c-.21.31-.41.61-.6.93l-.09.14L37.55,181A16.66,16.66,0,1,0,66.4,197.65L134,80.58l25.8,44.68Z"/></clipPath><clipPath id="clip-path-8"><path class="cls-2" d="M276.35,44.77a15.68,15.68,0,1,0-31.35,0v80.49h31.35V44.77Z"/></clipPath><clipPath id="clip-path-9"><path class="cls-2" d="M533.59,184.15,480.85,39.24v0l0-.11c-.05-.14-.12-.26-.17-.4-.13-.33-.26-.65-.41-1s-.23-.43-.34-.65-.24-.47-.38-.69-.3-.47-.45-.7l-.39-.57c-.17-.22-.35-.43-.53-.65s-.29-.36-.45-.53-.36-.38-.55-.57-.35-.35-.54-.52-.37-.32-.55-.47-.41-.35-.63-.51l-.6-.4c-.22-.15-.44-.3-.67-.44s-.48-.27-.72-.39-.4-.23-.62-.33-.66-.29-1-.42l-.37-.16-.05,0c-.47-.16-.94-.31-1.43-.44h-.06a13.12,13.12,0,0,0-1.54-.31h0a14.81,14.81,0,0,0-1.48-.14c-.18,0-.35,0-.53,0s-.67,0-1,0-.53.05-.8.08-.48,0-.72.07c-.51.08-1,.18-1.51.3l-.26.08c-.42.11-.83.24-1.24.38l-.05,0c-.15.05-.29.13-.44.18-.31.13-.63.25-.93.4s-.44.23-.67.35-.45.23-.67.36l-.7.46c-.19.13-.38.25-.56.39s-.44.35-.66.52l-.53.45c-.19.18-.38.36-.56.55l-.53.54-.47.55-.51.64c-.14.19-.26.39-.4.59s-.3.44-.44.68-.26.46-.39.7-.23.42-.33.64-.28.65-.42,1c-.05.13-.11.25-.16.39l0,.11s0,0,0,0l-38,104.44-38-104.44v0l0-.11c0-.14-.11-.26-.17-.4-.13-.33-.26-.65-.41-1s-.22-.43-.34-.65-.24-.47-.38-.69-.3-.46-.45-.69l-.39-.58c-.17-.22-.35-.43-.52-.64s-.3-.37-.46-.54-.36-.38-.54-.56-.36-.36-.55-.53l-.55-.47-.63-.51c-.19-.14-.39-.27-.59-.4l-.68-.44c-.23-.14-.47-.26-.7-.39s-.42-.23-.64-.33-.65-.29-1-.42l-.39-.16,0,0c-.46-.16-.92-.3-1.4-.43l-.09,0a13.12,13.12,0,0,0-1.54-.31h0a14.73,14.73,0,0,0-1.49-.14c-.17,0-.33,0-.49,0-.35,0-.7,0-1.05,0s-.45,0-.67.07-.57,0-.85.08c-.51.08-1,.18-1.51.3l-.35.11c-.38.1-.77.22-1.14.35l-.06,0c-.17.06-.32.14-.48.2l-.88.37-.7.37-.64.35c-.25.15-.49.32-.73.48l-.54.37c-.23.17-.45.35-.67.54l-.52.43c-.2.18-.38.37-.57.56l-.52.53c-.16.18-.32.38-.47.57s-.34.4-.5.62-.28.4-.41.6-.3.43-.44.66-.26.48-.39.72-.23.41-.33.63-.28.65-.41,1c-.06.13-.12.25-.17.39l0,.11v0l-31.31,86h33.36l12.73-35,38,104.44,0,0,0,.11c.15.42.32.82.5,1.22l.12.24q.25.53.54,1c.06.11.13.22.2.33q.27.45.57.87a3.71,3.71,0,0,0,.23.32c.22.29.45.58.68.85l.21.25a13,13,0,0,0,1,1l.2.18c.28.25.56.49.85.71.13.11.27.21.41.31l.76.52.42.26c.39.24.8.47,1.21.67l.08,0c.42.2.84.38,1.27.54l.14.06.24.08.86.27.43.11.84.19.45.08q.43.08.87.12l.4,0c.42,0,.83.05,1.25.05h.05c.42,0,.83,0,1.25-.05l.4,0q.44,0,.87-.12l.45-.08.84-.19.43-.11.86-.27.24-.08.14-.06c.43-.16.85-.34,1.27-.54l.08,0c.41-.2.82-.43,1.21-.67l.42-.26.76-.52c.14-.1.28-.2.41-.31.29-.22.57-.46.85-.71l.2-.18a13,13,0,0,0,1-1l.21-.25c.23-.27.46-.56.68-.85.08-.11.16-.21.23-.32q.3-.42.57-.87c.07-.11.14-.22.2-.33q.29-.49.54-1l.12-.24c.18-.4.35-.8.5-1.22l0-.11,0,0,38-104.44,38.07,104.58a15.67,15.67,0,1,0,29.45-10.72"/></clipPath><clipPath id="clip-path-10"><path class="cls-2" d="M209.2,144.23H170.74l30.84,53.42A16.66,16.66,0,1,0,230.43,181L209.2,144.23Z"/></clipPath><clipPath id="clip-path-11"><path class="cls-2" d="M245,144.23v45.5a15.68,15.68,0,0,0,31.35,0v-45.5Z"/></clipPath><clipPath id="clip-path-12"><path class="cls-2" d="M307.48,144.23,293,184.15a15.67,15.67,0,1,0,29.46,10.72l18.43-50.64Z"/></clipPath></defs><g class="cls-3"><rect class="cls-4" x="30.32" y="25.63" width="172.93" height="185.35"/></g><g class="cls-5"><rect class="cls-4" x="240" y="24.09" width="41.35" height="106.17"/></g><g class="cls-6"><rect class="cls-4" x="309.39" y="23.79" width="230.15" height="186.4"/></g><g class="cls-7"><rect class="cls-8" x="165.74" y="139.23" width="71.92" height="71.75"/></g><g class="cls-9"><rect class="cls-10" x="240" y="139.23" width="41.35" height="71.17"/></g><g class="cls-11"><rect class="cls-12" x="287" y="139.23" width="58.84" height="70.96"/></g></svg>