<?xml version="1.0" encoding="UTF-8"?>
<svg width="2155px" height="2155px" viewBox="0 0 2155 2155" version="1.1" xmlns="http://www.w3.org/2000/svg" xmlns:xlink="http://www.w3.org/1999/xlink">
    <!-- Generator: Sketch 51.3 (57544) - http://www.bohemiancoding.com/sketch -->
    <title>icon</title>
    <desc>Created with Sketch.</desc>
    <defs>
        <polygon id="path-1" points="736.510909 1260.07374 0.216278296 834.666207 0.216278296 0.874579505 736.510909 431.494059"></polygon>
        <polygon id="path-3" points="735.083211 0.0979766184 1470.32355 430.848978 735.083211 861.59998 0.624745058 431.276045"></polygon>
    </defs>
    <g id="icon" stroke="none" stroke-width="1" fill="none" fill-rule="evenodd">
        <g id="Cube-Main" transform="translate(1082.718465, 1066.562500) scale(-1, -1) translate(-1082.718465, -1066.562500) translate(346.718465, 220.562500)">
            <g id="left" transform="translate(733.196900, 0.031032)">
                <mask id="mask-2" fill="white">
                    <use xlink:href="#path-1"></use>
                </mask>
                <use id="Rectangle-5" fill="#78FFC9" xlink:href="#path-1"></use>
                <polygon id="Path-6" fill="#3E446F" fill-rule="nonzero" mask="url(#mask-2)" points="502.222737 976.009984 502.222737 562.000218 -11.7049975 256.218968 -11.7049975 704.834202 -0.406169355 709.677952 115.398518 781.086156 115.398518 896.48264 115.398518 938.336156 252.853596 1000.676 252.853596 704.834202 113.54012 617.864476 113.54012 485.941624 375.115315 640.916234 375.115315 1067.07541 754.408284 1286.15842 754.408284 416.343968 -4.5428881 -18.6657975 -4.5428881 131.847874 -0.406169355 139.543187 614.492268 501.853734 614.492268 1040.10569"></polygon>
            </g>
            <g id="top" transform="translate(0.168183, 829.292558)">
                <mask id="mask-4" fill="white">
                    <use xlink:href="#path-3"></use>
                </mask>
                <use id="Rectangle-5" fill="#FFFFFF" xlink:href="#path-3"></use>
                <polygon id="Path-4" fill="#3E446F" fill-rule="nonzero" mask="url(#mask-4)" points="1469.51122 430.610762 735.300282 861.523848 0.534413027 431.187666 131.842274 353.501387 735.049306 706.604903 1353.26513 345.782637 997.751454 141.303145 986.938954 147.441817 735.300282 286.668379 597.999501 202.891035 478.897938 272.332442 735.300282 419.596114 985.938954 278.28752 1123.05028 359.43791 736.300282 578.135176 235.241688 290.164473 630.196767 60.0492386 737.300282 126.559004 900.712392 38.4222854 1510.46434 380.139082"></polygon>
            </g>
            <g id="right" transform="translate(0.000000, 1.000000)" fill-rule="nonzero">
                <polygon id="Path-3" fill="#8CCFCE" points="734.120809 0.466796875 1.05635579 433.042969 1.05635579 1258.4707 734.120809 828.15625"></polygon>
                <polygon id="Path-2" fill="#524886" points="131.652059 1183.03418 131.652059 744.347656 505.511434 532.667969 505.511434 671.394531 239.343465 821.285156 239.343465 1120.14844 372.820028 1042.08203 372.820028 897.035156 625.316121 750.742188 625.316121 319.703125 1.13030316 677.331281 0.718465169 1259.80469"></polygon>
                <polygon id="Path-7" fill="#524886" points="734.040731 0.0625 734.040731 138.318359 0.63289388 565.779419 0.00557454427 433.400391"></polygon>
            </g>
        </g>
    </g>
</svg>