<?xml version="1.0" encoding="UTF-8" standalone="no"?>
<svg
   xmlns:dc="http://purl.org/dc/elements/1.1/"
   xmlns:cc="http://creativecommons.org/ns#"
   xmlns:rdf="http://www.w3.org/1999/02/22-rdf-syntax-ns#"
   xmlns:svg="http://www.w3.org/2000/svg"
   xmlns="http://www.w3.org/2000/svg"
   viewBox="0 0 1067.3333 290.43201"
   height="290.43201"
   width="1067.3333"
   xml:space="preserve"
   id="svg2"
   version="1.1"><metadata
     id="metadata8"><rdf:RDF><cc:Work
         rdf:about=""><dc:format>image/svg+xml</dc:format><dc:type
           rdf:resource="http://purl.org/dc/dcmitype/StillImage" /></cc:Work></rdf:RDF></metadata><defs
     id="defs6"><clipPath
       id="clipPath18"
       clipPathUnits="userSpaceOnUse"><path
         id="path16"
         d="M 0,217.824 H 800.5 V 0 H 0 Z" /></clipPath></defs><g
     transform="matrix(1.3333333,0,0,-1.3333333,0,290.432)"
     id="g10"><g
       id="g12"><g
         clip-path="url(#clipPath18)"
         id="g14"><g
           transform="translate(324.7764,107.4243)"
           id="g20"><path
             id="path22"
             style="fill:#3cafe4;fill-opacity:1;fill-rule:nonzero;stroke:none"
             d="m 0,0 v -65.926 h -28.953 v 29.74 21.87 14.795 c 0.116,20.249 -16.21,36.752 -36.453,36.864 -16.406,0.089 -30.344,-10.611 -35.113,-25.442 l -10.909,-5.378 9.169,-7.616 c 0.982,-18.082 7.371,-48.37 60.247,-64.833 h -24.27 c -36.42,0.199 -65.777,30.235 -65.574,66.642 0.199,36.411 29.875,65.767 66.289,65.568 C -29.157,66.09 0.194,36.411 0,0" /></g><g
           transform="translate(251.0635,104.8291)"
           id="g24"><path
             id="path26"
             style="fill:#3cafe4;fill-opacity:1;fill-rule:nonzero;stroke:none"
             d="m 0,0 c -0.014,-4.215 -3.448,-7.612 -7.661,-7.59 -4.209,0.027 -7.611,3.461 -7.582,7.676 0.016,4.208 3.454,7.607 7.664,7.583 C -3.363,7.649 0.033,4.212 0,0" /></g><path
           id="path28"
           style="fill:#9f9fa0;fill-opacity:1;fill-rule:nonzero;stroke:none"
           d="m 378.304,83.598 h 7.624 V 41.227 h -7.624 z" /><g
           transform="translate(452.9854,54.8682)"
           id="g30"><path
             id="path32"
             style="fill:#9f9fa0;fill-opacity:1;fill-rule:nonzero;stroke:none"
             d="m 0,0 c 0,-7.567 -6.557,-13.642 -13.466,-13.642 -6.971,0 -13.465,6.075 -13.465,13.642 v 12.75 h 7.625 V 0.182 c 0,-1.789 0.657,-3.459 1.611,-4.648 1.19,-1.253 2.741,-1.966 4.229,-1.966 1.489,0 3.035,0.713 4.171,1.966 1.012,1.189 1.667,2.859 1.667,4.648 V 12.75 H 0 Z" /></g><g
           transform="translate(576.7314,53.8174)"
           id="g34"><path
             id="path36"
             style="fill:#9f9fa0;fill-opacity:1;fill-rule:nonzero;stroke:none"
             d="M 0,0 C 0,7.567 6.556,13.642 13.467,13.642 20.438,13.642 26.931,7.567 26.931,0 v -12.75 h -7.628 v 12.57 c 0,1.787 -0.654,3.457 -1.608,4.646 -1.193,1.255 -2.739,1.966 -4.228,1.966 -1.488,0 -3.039,-0.711 -4.175,-1.966 C 8.28,3.277 7.627,1.607 7.627,-0.18 V -12.75 H 0 Z" /></g><g
           transform="translate(468.332,49.9248)"
           id="g38"><path
             id="path40"
             style="fill:#9f9fa0;fill-opacity:1;fill-rule:nonzero;stroke:none"
             d="m 0,0 c 1.251,-1.312 2.921,-2.027 4.71,-2.027 1.787,0 3.512,0.715 4.762,2.027 1.253,1.312 1.968,3.097 1.968,4.943 0,1.852 -0.715,3.575 -1.968,4.944 -1.25,1.312 -2.975,2.03 -4.762,2.03 C 2.921,11.917 1.251,11.199 0,9.887 -1.25,8.518 -1.963,6.795 -1.963,4.943 -1.963,3.097 -1.25,1.312 0,0 m 13.289,-4.826 c -2.445,-2.384 -5.84,-3.872 -9.533,-3.872 -7.509,0 -13.583,6.074 -13.583,13.641 0,7.506 6.074,13.643 13.583,13.643 3.693,0 7.088,-1.489 9.533,-3.87 v 18.957 h 7.026 V -7.863 h -7.026 z" /></g><g
           transform="translate(513.5176,49.6465)"
           id="g42"><path
             id="path44"
             style="fill:#9f9fa0;fill-opacity:1;fill-rule:nonzero;stroke:none"
             d="m 0,0 c -1.311,-1.312 -2.918,-2.027 -4.77,-2.027 -1.722,0 -3.454,0.715 -4.642,2.027 -1.374,1.37 -2.028,3.1 -2.028,5.006 0,1.847 0.654,3.631 2.028,4.943 1.188,1.369 2.92,2.087 4.642,2.087 1.852,0 3.459,-0.718 4.77,-2.087 C 1.252,8.637 1.906,6.912 1.906,5.062 1.906,3.156 1.252,1.37 0,0 m 9.412,5.006 c 0,7.506 -6.315,13.584 -14.239,13.584 -7.863,0 -14.179,-6.078 -14.179,-13.584 0,-7.569 6.316,-13.585 14.179,-13.585 2.945,0 5.664,0.835 7.924,2.262 v -1.546 h 6.315 z" /></g><g
           transform="translate(410.8105,49.8057)"
           id="g46"><path
             id="path48"
             style="fill:#9f9fa0;fill-opacity:1;fill-rule:nonzero;stroke:none"
             d="m 0,0 c -1.312,-1.31 -2.92,-2.027 -4.767,-2.027 -1.729,0 -3.457,0.717 -4.647,2.027 -1.371,1.369 -2.025,3.099 -2.025,5.006 0,1.846 0.654,3.631 2.025,4.943 1.19,1.369 2.918,2.087 4.647,2.087 1.847,0 3.455,-0.718 4.767,-2.087 C 1.251,8.637 1.906,6.914 1.906,5.062 1.906,3.156 1.251,1.369 0,0 m 9.412,5.006 c 0,7.505 -6.314,13.584 -14.238,13.584 -7.865,0 -14.179,-6.079 -14.179,-13.584 0,-7.569 6.314,-13.585 14.179,-13.585 2.944,0 5.666,0.835 7.924,2.262 v -1.546 h 6.314 z" /></g><g
           transform="translate(362.9189,49.8057)"
           id="g50"><path
             id="path52"
             style="fill:#9f9fa0;fill-opacity:1;fill-rule:nonzero;stroke:none"
             d="m 0,0 c -1.31,-1.31 -2.92,-2.027 -4.767,-2.027 -1.727,0 -3.456,0.717 -4.647,2.027 -1.368,1.369 -2.024,3.099 -2.024,5.006 0,1.846 0.656,3.631 2.024,4.943 1.191,1.369 2.92,2.087 4.647,2.087 C -2.92,12.036 -1.31,11.318 0,9.949 1.25,8.637 1.906,6.914 1.906,5.062 1.906,3.156 1.25,1.369 0,0 m 9.413,5.006 c 0,7.505 -6.316,13.584 -14.237,13.584 -7.866,0 -14.181,-6.079 -14.181,-13.584 0,-7.569 6.315,-13.585 14.181,-13.585 2.942,0 5.662,0.835 7.921,2.262 v -1.546 h 6.316 z" /></g><g
           transform="translate(562.7822,51.2236)"
           id="g54"><path
             id="path56"
             style="fill:#9f9fa0;fill-opacity:1;fill-rule:nonzero;stroke:none"
             d="m 0,0 c -0.287,-0.567 -0.647,-1.1 -1.083,-1.577 -1.312,-1.312 -2.92,-2.027 -4.767,-2.027 -0.008,0 -0.019,0.003 -0.028,0.003 -0.007,0 -0.02,-0.003 -0.029,-0.003 -1.847,0 -3.454,0.715 -4.767,2.027 -1.25,1.372 -1.906,3.156 -1.906,5.062 0,1.85 0.656,3.575 1.906,4.887 1.313,1.369 2.92,2.087 4.767,2.087 0.009,0 0.022,-0.002 0.029,-0.002 0.009,0 0.02,0.002 0.028,0.002 1.847,0 3.455,-0.718 4.767,-2.087 0.224,-0.236 0.42,-0.488 0.605,-0.747 h 8.107 c -1.838,5.438 -7.144,9.372 -13.507,9.384 -6.846,-0.014 -12.478,-4.562 -13.87,-10.648 -0.015,-0.07 -0.039,-0.128 -0.053,-0.194 -0.013,-0.074 -0.022,-0.154 -0.035,-0.225 -0.159,-0.817 -0.25,-1.654 -0.25,-2.513 0,-4.763 2.503,-8.907 6.315,-11.327 v 0.003 c 0.515,-0.322 1.056,-0.614 1.613,-0.875 0.095,-0.043 0.19,-0.087 0.285,-0.131 0.252,-0.107 0.508,-0.217 0.767,-0.314 0.085,-0.031 0.171,-0.057 0.255,-0.089 0.497,-0.172 1.003,-0.322 1.527,-0.446 0.104,-0.024 0.206,-0.051 0.309,-0.075 0.228,-0.048 0.462,-0.084 0.696,-0.123 0.194,-0.033 0.391,-0.063 0.588,-0.084 0.201,-0.025 0.402,-0.049 0.605,-0.067 0.349,-0.026 0.698,-0.044 1.054,-0.048 0.063,0 0.13,-0.007 0.194,-0.009 0.068,0.002 0.13,0.009 0.196,0.009 0.354,0.004 0.703,0.022 1.052,0.048 0.203,0.018 0.404,0.042 0.606,0.067 0.198,0.021 0.392,0.051 0.586,0.084 0.235,0.039 0.469,0.075 0.697,0.123 0.103,0.024 0.207,0.051 0.308,0.075 0.524,0.124 1.03,0.274 1.527,0.446 0.084,0.032 0.17,0.058 0.257,0.089 0.257,0.097 0.511,0.207 0.766,0.314 l 0.284,0.131 c 0.557,0.261 1.101,0.553 1.616,0.875 V -7.898 C 4.879,-6.081 7.002,-3.291 7.881,0 Z" /></g><g
           transform="translate(537.3887,45.4805)"
           id="g58"><path
             id="path60"
             style="fill:#9f9fa0;fill-opacity:1;fill-rule:nonzero;stroke:none"
             d="m 0,0 c 0,-2.438 -1.979,-4.413 -4.416,-4.413 -2.438,0 -4.415,1.975 -4.415,4.413 0,2.438 1.977,4.414 4.415,4.414 C -1.979,4.414 0,2.438 0,0" /></g><g
           transform="translate(350.9912,156.1411)"
           id="g62"><path
             id="path64"
             style="fill:#9f9fa0;fill-opacity:1;fill-rule:nonzero;stroke:none"
             d="m 0,0 h 64.971 v 6.245 c 0,1.99 -1.539,3.527 -3.53,3.527 H 0 v 6.154 h 61.441 c 5.248,0 9.681,-4.433 9.681,-9.681 v -18.1 c 0,-5.336 -4.433,-9.772 -9.681,-9.772 H 0 v 6.154 h 61.441 c 1.991,0 3.53,1.63 3.53,3.618 v 5.61 L 0,-6.245 Z" /></g><g
           transform="translate(368.0029,111.4399)"
           id="g66"><path
             id="path68"
             style="fill:#9f9fa0;fill-opacity:1;fill-rule:nonzero;stroke:none"
             d="m 0,0 -17.103,13.483 3.801,4.886 L 3.8,4.886 Z" /></g><g
           transform="translate(401.1211,116.145)"
           id="g70"><path
             id="path72"
             style="fill:#9f9fa0;fill-opacity:1;fill-rule:nonzero;stroke:none"
             d="m 0,0 c 7.059,3.799 13.302,8.054 17.282,13.121 l 4.797,-3.8 C 17.556,3.53 10.678,-1.175 2.986,-5.339 Z" /></g><path
           id="path74"
           style="fill:#9f9fa0;fill-opacity:1;fill-rule:nonzero;stroke:none"
           d="m 537.31,170.258 h 59.16 v -6.154 h -59.16 z m -10.326,-25.157 h 79.812 V 138.95 H 550.65 l -4.488,-38.912 h 40.017 c 2.895,0 5.248,2.353 5.248,5.248 l -1.796,17.919 h 6.154 l 1.796,-17.919 c 0,-6.244 -5.067,-11.4 -11.402,-11.4 h -47.257 l 4.488,45.064 h -16.426 z" /><g
           transform="translate(427.5879,98.1094)"
           id="g76"><path
             id="path78"
             style="fill:#9f9fa0;fill-opacity:1;fill-rule:nonzero;stroke:none"
             d="m 0,0 v 0.236 c -8.925,1.784 -17.555,6.505 -24.687,11.904 -7.132,5.397 -12.048,11.886 -14.748,19.471 0.169,0.932 0.313,1.898 0.446,2.881 -2.339,0.099 -4.68,0.15 -7.024,0.172 -1.049,-9.07 -4.122,-16.385 -9.229,-21.947 C -61.025,6.421 -69.894,2.571 -81.845,0 l 1.446,-6.848 c 0,0 7.291,1.286 13.59,3.855 6.361,2.508 11.567,5.785 15.616,9.832 4.047,4.049 7.132,9.092 9.252,15.133 1.607,-3.086 3.503,-5.898 5.687,-8.433 2.184,-2.541 4.659,-4.869 7.422,-6.992 5.525,-4.175 16.513,-11.228 26.375,-13.395 z" /></g><g
           transform="translate(460.752,166.9097)"
           id="g80"><path
             id="path82"
             style="fill:#9f9fa0;fill-opacity:1;fill-rule:nonzero;stroke:none"
             d="M 0,0 -4.617,3.98 C -9.865,-2.081 -16.2,-7.329 -24.342,-11.946 l 3.076,-5.336 C -12.489,-12.308 -5.704,-6.604 0,0" /></g><path
           id="path84"
           style="fill:#9f9fa0;fill-opacity:1;fill-rule:nonzero;stroke:none"
           d="m 451.974,105.829 h 25.441 v -5.7 h -25.441 z m 0,12.489 h 25.441 v -6.335 h -25.441 z m 0,12.666 h 25.441 v -6.516 h -25.441 z m 0,6.335 c 9.421,1.465 17.767,3.517 25.441,6.145 v -6.326 h -25.441 z m 52.573,19.094 8.146,-6.517 3.799,4.798 -20.451,16.558 -3.8,-4.795 6.874,-5.611 c -6.264,-3.616 -8.334,-5.339 -15.057,-7.521 v 19.319 h -0.489 -6.154 v -22.016 c -10.499,-2.805 -26.617,-7.698 -41.099,-8.873 l 0.455,-6.154 c 3.076,0.269 6.155,0.543 9.048,0.905 V 93.975 h 6.155 60.264 v 6.154 h -28.143 v 5.7 h 28.143 v 6.154 h -28.143 v 6.335 h 28.143 v 6.15 h -28.143 v 6.516 h 28.143 v 6.154 h -28.143 v 8.822 c 7.227,2.934 13.918,6.419 20.452,10.453" /></g></g></g></svg>
