<svg id="图层_1" data-name="图层 1" xmlns="http://www.w3.org/2000/svg" viewBox="0 0 145.23099 48"><defs><style>.cls-1{fill:#00a5dd;}.cls-2{isolation:isolate;}.cls-3{fill:#231815;}</style></defs><title>alibaba-cloud-ahas</title><g id="polygon8"><polygon class="cls-1" points="20.367 23.588 6.294 16.115 6.885 15 20.38 22.166 33.824 15.338 34.395 16.462 20.367 23.588"/></g><g id="rect10"><rect class="cls-1" x="11.84581" y="30.74038" width="16.9893" height="1.26271" transform="translate(-11.10703 51.59488) rotate(-89.78601)"/></g><g id="path12"><path class="cls-1" d="M20.2255,40.40983,5.81241,31.91643l.14915-16.72861L20.52319,6.9532l14.41309,8.494-.14915,16.72743ZM7.081,31.1996l13.15747,7.753,13.293-7.51838L33.66768,16.164,20.51022,8.41044,7.21716,15.92826Z"/></g><g id="polygon14"><polygon class="cls-1" points="34.94 37.533 33.696 35.334 36.83 33.561 37.001 14.342 26.813 8.337 28.094 6.161 39.539 12.905 39.342 35.042 34.94 37.533"/></g><g id="polygon16"><polygon class="cls-1" points="3.605 25.734 1.08 25.711 1.197 12.565 20.466 1.667 24.956 4.313 23.675 6.489 20.441 4.582 3.709 14.045 3.605 25.734"/></g><g id="polygon18"><polygon class="cls-1" points="20.073 45.939 1 34.701 1.047 29.352 3.573 29.376 3.538 33.265 20.099 43.024 30.524 37.129 31.766 39.327 20.073 45.939"/></g><g id="text24"><g class="cls-2"><path class="cls-3" d="M55.1995,19.83538H52.04218l-.6396,1.92174H50.06679l3.02586-8.59479H54.149l3.02586,8.59479H55.8444ZM54.83991,18.68,53.635,14.92019h-.023L52.40766,18.68Z"/><path class="cls-3" d="M58.19,15.6382h1.1896v.63665a2.02213,2.02213,0,0,1,1.52973-.71329,1.8249,1.8249,0,0,1,1.59222.80171,1.63293,1.63293,0,0,1,.33542.76044,9.95629,9.95629,0,0,1,.08548,1.57984,9.82049,9.82049,0,0,1-.08548,1.55626,1.71388,1.71388,0,0,1-.3366.77223,1.79682,1.79682,0,0,1-.6449.56591,2.02518,2.02518,0,0,1-.94672.2299,1.61591,1.61591,0,0,1-.81586-.20514,2.57874,2.57874,0,0,1-.71329-.5164V24.233H58.19Zm2.36033,4.96352a1.17856,1.17856,0,0,0,.66848-.16506.93843.93843,0,0,0,.34839-.4374,2.354,2.354,0,0,0,.15445-.61543c.00707-.22047.0112-.448.0112-.68027,0-.244-.00413-.48338-.0112-.71564a2.21878,2.21878,0,0,0-.15445-.61543.8644.8644,0,0,0-.34839-.4374,1.28917,1.28917,0,0,0-.66848-.14737,1.05074,1.05074,0,0,0-.6337.171,1.001,1.001,0,0,0-.36018.44919,2.355,2.355,0,0,0-.14266.60364,6.92145,6.92145,0,0,0-.03419.69206,6.17061,6.17061,0,0,0,.03419.6508,2.37661,2.37661,0,0,0,.14266.62132,1.001,1.001,0,0,0,.36018.44919A1.02761,1.02761,0,0,0,60.55032,20.60172Z"/><path class="cls-3" d="M64.45629,15.6382h1.1896v.63665a2.02213,2.02213,0,0,1,1.52973-.71329,1.8249,1.8249,0,0,1,1.59222.80171,1.63293,1.63293,0,0,1,.33542.76044,9.95628,9.95628,0,0,1,.08548,1.57984,9.82049,9.82049,0,0,1-.08548,1.55626,1.71388,1.71388,0,0,1-.3366.77223,1.79682,1.79682,0,0,1-.6449.56591,2.02518,2.02518,0,0,1-.94672.2299,1.61591,1.61591,0,0,1-.81586-.20514,2.57874,2.57874,0,0,1-.71329-.5164V24.233h-1.1896Zm2.36033,4.96352a1.17856,1.17856,0,0,0,.66848-.16506.93843.93843,0,0,0,.34839-.4374,2.354,2.354,0,0,0,.15445-.61543c.00707-.22047.0112-.448.0112-.68027,0-.244-.00413-.48338-.0112-.71564a2.21878,2.21878,0,0,0-.15445-.61543.8644.8644,0,0,0-.34839-.4374,1.28917,1.28917,0,0,0-.66848-.14737,1.05074,1.05074,0,0,0-.6337.171,1.001,1.001,0,0,0-.36018.44919,2.355,2.355,0,0,0-.14266.60364,6.92145,6.92145,0,0,0-.03419.69206,6.17061,6.17061,0,0,0,.03419.6508,2.37661,2.37661,0,0,0,.14266.62132,1.001,1.001,0,0,0,.36018.44919A1.02761,1.02761,0,0,0,66.81662,20.60172Z"/><path class="cls-3" d="M70.72259,13.16233h1.1896v7.02085q0,.41913.44684.41854h.41205v1.1554h-.53054a1.67488,1.67488,0,0,1-1.07288-.33483,1.35072,1.35072,0,0,1-.44507-1.14479Z"/><path class="cls-3" d="M73.87048,13.16233h1.1896v1.22614h-1.1896Zm0,2.47587h1.1896v6.11893h-1.1896Z"/><path class="cls-3" d="M81.09117,20.77267a3.2168,3.2168,0,0,1-.91371.74394,2.50133,2.50133,0,0,1-1.21671.31125,2.61952,2.61952,0,0,1-1.84157-.73687,3.12933,3.12933,0,0,1-.84356-2.38744,3.19266,3.19266,0,0,1,.84415-2.41692,2.57592,2.57592,0,0,1,1.84334-.72508,2.64067,2.64067,0,0,1,1.21553.29357,3.047,3.047,0,0,1,.91253.77106l-.87952.80525a1.477,1.477,0,0,0-1.20492-.64373q-1.51912-.02476-1.54152,1.91585.023,1.92764,1.54152,1.89816a1.4415,1.4415,0,0,0,1.20492-.63783Z"/><path class="cls-3" d="M85.19993,21.21479h-.0224a.99974.99974,0,0,1-.514.4598,2.35991,2.35991,0,0,1-.94672.15327,2.125,2.125,0,0,1-1.53032-.54233,1.72106,1.72106,0,0,1-.56473-1.32636,1.76883,1.76883,0,0,1,.49046-1.2792,1.9275,1.9275,0,0,1,1.43836-.53054h1.6494v-.6449q.01238-.81173-1.21553-.78756a2.081,2.081,0,0,0-.70267.09432.86943.86943,0,0,0-.42208.37845l-.93611-.73687a2.28168,2.28168,0,0,1,2.00192-.89131,3.10133,3.10133,0,0,1,1.78616.43622,1.80469,1.80469,0,0,1,.67792,1.57984v4.1795h-1.1896Zm0-2.05143H83.76982q-1.03986.023-1.02925.73687a.65993.65993,0,0,0,.26881.53054,1.22545,1.22545,0,0,0,.85241.24169,2.02847,2.02847,0,0,0,1.05755-.18274q.28119-.19453.2806-.88424Z"/><path class="cls-3" d="M88.19455,13.7754h1.1896v1.8628h.86891v.94319h-.86891v3.56643c-.00707.31125.13323.46216.42326.45391h.44566v1.1554h-.62132a1.38578,1.38578,0,0,1-1.0269-.40085,1.43876,1.43876,0,0,1-.41029-1.10707V16.58138H87.598V15.6382h.59657Z"/><path class="cls-3" d="M91.51339,13.16233H92.703v1.22614h-1.1896Zm0,2.47587H92.703v6.11893h-1.1896Z"/><path class="cls-3" d="M94.07768,18.69177a5.52012,5.52012,0,0,1,.15445-1.48788,2.17443,2.17443,0,0,1,.49046-.85712,2.25889,2.25889,0,0,1,.68617-.54469,2.482,2.482,0,0,1,1.113-.24051,2.52839,2.52839,0,0,1,1.13654.24169,2.16393,2.16393,0,0,1,.66259.54823,1.94922,1.94922,0,0,1,.50107.85476,5.96561,5.96561,0,0,1,.14148,1.48552,5.75793,5.75793,0,0,1-.14266,1.47373,2.11406,2.11406,0,0,1-.50225.87834,1.78352,1.78352,0,0,1-.27942.26527,1.30668,1.30668,0,0,1-.382.25348,2.32886,2.32886,0,0,1-1.13654.26527,2.43694,2.43694,0,0,1-1.798-.784,2.36723,2.36723,0,0,1-.49046-.87834A5.36867,5.36867,0,0,1,94.07768,18.69177Zm3.69612.01179a5.77309,5.77309,0,0,0-.05659-.95851,1.15833,1.15833,0,0,0-.23462-.50814.89076.89076,0,0,0-.38906-.3254,1.358,1.358,0,0,0-1.133,0,1.05922,1.05922,0,0,0-.40085.3254,1.4199,1.4199,0,0,0-.22283.50814,4.65829,4.65829,0,0,0-.06956.94672,4.53325,4.53325,0,0,0,.06956.93493,1.5387,1.5387,0,0,0,.22283.53172,1.42875,1.42875,0,0,0,.40085.31361,1.302,1.302,0,0,0,1.133,0,1.13607,1.13607,0,0,0,.38906-.31361,1.25,1.25,0,0,0,.23462-.53172A5.41117,5.41117,0,0,0,97.7738,18.70355Z"/><path class="cls-3" d="M100.40883,15.6382h1.1896v.64844h.02358a1.88516,1.88516,0,0,1,1.53975-.72508,1.99632,1.99632,0,0,1,1.3464.53644,2.11,2.11,0,0,1,.63311,1.59163v4.0675h-1.1896V18.10935a1.33547,1.33547,0,0,0-.33129-.97974,1.10368,1.10368,0,0,0-.83944-.34191,1.12208,1.12208,0,0,0-.84533.34191,1.32776,1.32776,0,0,0-.33719.97974v3.64778h-1.1896Z"/><path class="cls-3" d="M114.45642,18.00206h-3.30233v3.75506h-1.26033V13.16233h1.26033v3.68433h3.30233V13.16233h1.26033v8.59479h-1.26033Z"/><path class="cls-3" d="M117.64557,13.16233h1.1896v1.22614h-1.1896Zm0,2.47587h1.1896v6.11893h-1.1896Z"/><path class="cls-3" d="M123.83524,21.11811a1.98529,1.98529,0,0,1-1.52914.70975,1.83989,1.83989,0,0,1-.95851-.25348,2.12254,2.12254,0,0,1-.60953-.49517,1.88419,1.88419,0,0,1-.33719-.738,8.04368,8.04368,0,0,1-.10847-1.64,8.32351,8.32351,0,0,1,.10847-1.66944,1.81839,1.81839,0,0,1,.33719-.72508,1.92312,1.92312,0,0,1,.60953-.5164,2.01192,2.01192,0,0,1,.95851-.22872,1.98216,1.98216,0,0,1,1.52914.72508V15.6382h1.1896v5.97155a2.47036,2.47036,0,0,1-2.57136,2.694,2.67741,2.67741,0,0,1-2.05261-1.02336l.92432-.75927a2.23463,2.23463,0,0,0,.52465.37374,1.34966,1.34966,0,0,0,.62722.18274,1.37115,1.37115,0,0,0,.98209-.349,1.34482,1.34482,0,0,0,.3761-.98327ZM121.482,18.70355a6.739,6.739,0,0,0,.046.9703.93159.93159,0,0,0,.18864.461,1.095,1.095,0,0,0,.36549.30182,1.11008,1.11008,0,0,0,1.16484,0,1.12076,1.12076,0,0,0,.35487-.30182,1.01075,1.01075,0,0,0,.19925-.461,8.83108,8.83108,0,0,0,.03419-.9703,9.33929,9.33929,0,0,0-.03419-.99388.92859.92859,0,0,0-.19925-.44919,1.399,1.399,0,0,0-.35487-.3254,1.22454,1.22454,0,0,0-1.16484,0,1.34879,1.34879,0,0,0-.36549.3254.8593.8593,0,0,0-.18864.44919A7.12693,7.12693,0,0,0,121.482,18.70355Z"/><path class="cls-3" d="M126.77091,13.16233h1.18959v3.12431h.02358a1.88516,1.88516,0,0,1,1.53975-.72508,1.99632,1.99632,0,0,1,1.3464.53644,2.11,2.11,0,0,1,.63311,1.59163v4.0675h-1.1896V18.10935a1.33547,1.33547,0,0,0-.33129-.97974,1.10368,1.10368,0,0,0-.83944-.34191,1.12208,1.12208,0,0,0-.84533.34191,1.32776,1.32776,0,0,0-.33719.97974v3.64778h-1.18959Z"/></g><g class="cls-2"><path class="cls-3" d="M55.1995,34.32274H52.04218l-.6396,1.92174H50.06679l3.02586-8.59479H54.149l3.02586,8.59479H55.8444Zm-.35959-1.1554L53.635,29.40755h-.023l-1.20433,3.75978Z"/></g><g class="cls-2"><path class="cls-3" d="M57.1289,30.12555h1.26092l1.39179,4.288h.0224l1.38649-4.288h1.26623l-2.17346,6.11893h-.98091Z"/><path class="cls-3" d="M66.44288,35.70215h-.023a.99619.99619,0,0,1-.51345.4598,2.365,2.365,0,0,1-.94731.15327,2.12348,2.12348,0,0,1-1.52973-.54233,1.71906,1.71906,0,0,1-.56473-1.32636,1.7664,1.7664,0,0,1,.49046-1.2792,1.92564,1.92564,0,0,1,1.43836-.53054h1.6494v-.6449q.0115-.81173-1.21612-.78756a2.07723,2.07723,0,0,0-.70209.09432.87069.87069,0,0,0-.42267.37845l-.93611-.73687a2.28235,2.28235,0,0,1,2.00192-.89131,3.10008,3.10008,0,0,1,1.78616.43622,1.80644,1.80644,0,0,1,.67851,1.57984v4.1795h-1.1896Zm0-2.05143H65.01277q-1.04075.023-1.02925.73687a.65993.65993,0,0,0,.26881.53054,1.22345,1.22345,0,0,0,.85241.24169,2.03118,2.03118,0,0,0,1.05755-.18274q.2803-.19453.2806-.88424Z"/><path class="cls-3" d="M69.40213,27.64969h1.1896v1.22614h-1.1896Zm0,2.47587h1.1896v6.11893h-1.1896Z"/><path class="cls-3" d="M72.26117,27.64969h1.1896v7.02085q0,.41913.44684.41854h.41205v1.1554h-.53054a1.67488,1.67488,0,0,1-1.07288-.33483,1.35072,1.35072,0,0,1-.44507-1.14479Z"/><path class="cls-3" d="M78.48561,35.70215h-.0224a.99974.99974,0,0,1-.514.4598,2.35991,2.35991,0,0,1-.94672.15327,2.12348,2.12348,0,0,1-1.52973-.54233,1.71906,1.71906,0,0,1-.56473-1.32636,1.7664,1.7664,0,0,1,.49046-1.2792,1.92564,1.92564,0,0,1,1.43836-.53054h1.64881v-.6449q.01238-.81173-1.21553-.78756a2.07723,2.07723,0,0,0-.70209.09432.87069.87069,0,0,0-.42267.37845l-.93611-.73687a2.28235,2.28235,0,0,1,2.00192-.89131,3.10133,3.10133,0,0,1,1.78616.43622,1.80469,1.80469,0,0,1,.67792,1.57984v4.1795h-1.1896Zm0-2.05143H77.0561q-1.04075.023-1.02925.73687a.65993.65993,0,0,0,.26881.53054,1.22345,1.22345,0,0,0,.85241.24169,2.02734,2.02734,0,0,0,1.057-.18274q.28119-.19453.2806-.88424Z"/><path class="cls-3" d="M81.4095,27.64969h1.1896V30.774a3.04155,3.04155,0,0,1,.71329-.53054,1.69052,1.69052,0,0,1,.817-.19453,1.82384,1.82384,0,0,1,1.59163.80171,1.6393,1.6393,0,0,1,.336.76044,9.94419,9.94419,0,0,1,.08489,1.568,9.91212,9.91212,0,0,1-.08489,1.55626,1.65135,1.65135,0,0,1-.33719.784,1.79682,1.79682,0,0,1-.6449.56591,2.02336,2.02336,0,0,1-.94672.2299,1.9998,1.9998,0,0,1-1.52914-.70975v.639H81.4095Zm2.36033,3.62538a1.04761,1.04761,0,0,0-.63311.171,1.00614,1.00614,0,0,0-.36077.44919,2.37976,2.37976,0,0,0-.14266.60364,6.61645,6.61645,0,0,0-.03419.68027c0,.21693.01179.4374.03419.66259a2.40049,2.40049,0,0,0,.14266.62132,1.00614,1.00614,0,0,0,.36077.44919,1.02458,1.02458,0,0,0,.63311.17685,1.17856,1.17856,0,0,0,.66848-.16506.9397.9397,0,0,0,.349-.4374,2.39648,2.39648,0,0,0,.15445-.62722c.00707-.22047.01061-.448.01061-.68027,0-.244-.00354-.48338-.01061-.71564a2.374,2.374,0,0,0-.15445-.60364.8655.8655,0,0,0-.349-.4374A1.28917,1.28917,0,0,0,83.76982,31.27506Z"/><path class="cls-3" d="M87.71117,27.64969h1.1896v1.22614h-1.1896Zm0,2.47587h1.1896v6.11893h-1.1896Z"/><path class="cls-3" d="M90.5702,27.64969h1.1896v7.02085c0,.27942.14973.41854.44684.41854h.41264v1.1554h-.53054a1.67374,1.67374,0,0,1-1.07288-.33483,1.35094,1.35094,0,0,1-.44566-1.14479Z"/><path class="cls-3" d="M93.71809,27.64969h1.1896v1.22614h-1.1896Zm0,2.47587h1.1896v6.11893h-1.1896Z"/><path class="cls-3" d="M96.64787,28.26276h1.1896v1.8628h.86891v.94319h-.86891v3.56643c-.00707.31125.13323.46216.42326.45391h.44566v1.1554H98.085a1.38578,1.38578,0,0,1-1.0269-.40085,1.43876,1.43876,0,0,1-.41029-1.10707V31.06874H96.0513v-.94319h.59657Z"/><path class="cls-3" d="M99.07657,30.12555h1.26151l1.403,4.28679h.0224l1.39828-4.28679H104.428l-2.55014,7.38634a1.74925,1.74925,0,0,1-.67909.955,1.95239,1.95239,0,0,1-.9927.25348h-.39378v-1.1554h.349a.77252.77252,0,0,0,.43269-.12969.72.72,0,0,0,.2806-.40085l.32422-1.02807Z"/><path class="cls-3" d="M108.39409,34.1624a3.57761,3.57761,0,0,0,2.365.85594q1.62346-.023,1.64586-1.19667.01238-.96205-1.08467-1.15658-.50225-.07074-1.10235-.15916a2.69445,2.69445,0,0,1-1.63289-.82057,2.32154,2.32154,0,0,1-.5777-1.59281,2.39228,2.39228,0,0,1,.72508-1.81681,2.77009,2.77009,0,0,1,1.99013-.69678,4.57858,4.57858,0,0,1,2.69869.88778l-.70267,1.07052a3.72539,3.72539,0,0,0-2.062-.66141,1.53991,1.53991,0,0,0-.97148.30064,1.13467,1.13467,0,0,0-.41736.9314.96054.96054,0,0,0,.2806.6732,1.57785,1.57785,0,0,0,.896.42443q.34308.06013.93729.13558a2.56488,2.56488,0,0,1,1.72957.86773,2.48331,2.48331,0,0,1,.55412,1.6046q-.0619,2.467-2.92034,2.5018a4.64349,4.64349,0,0,1-3.17854-1.17309Z"/><path class="cls-3" d="M116.00561,33.65072a1.4591,1.4591,0,0,0,.41147,1.12,1.34922,1.34922,0,0,0,1.00567.38906,1.75419,1.75419,0,0,0,1.29688-.59539l.863.76044a2.754,2.754,0,0,1-2.13514.99035,3.00015,3.00015,0,0,1-.91371-.14148,2.19645,2.19645,0,0,1-.43269-.20632,2.1039,2.1039,0,0,1-.41736-.27706,2.4255,2.4255,0,0,1-.61071-.955,3.88,3.88,0,0,1-.257-1.53268,4.38777,4.38777,0,0,1,.22283-1.5091,2.63956,2.63956,0,0,1,.57063-.96677,2.11911,2.11911,0,0,1,.79346-.51875,2.47041,2.47041,0,0,1,.85594-.15916,2.42446,2.42446,0,0,1,1.71778.68971,2.54846,2.54846,0,0,1,.72508,1.89816v1.01393Zm2.50652-1.01393a1.59751,1.59751,0,0,0-.37138-1.08349,1.28727,1.28727,0,0,0-1.76258,0,1.67815,1.67815,0,0,0-.37256,1.08349Z"/><path class="cls-3" d="M121.14716,30.12555h1.1896V30.774h.02476a1.95064,1.95064,0,0,1,2.7883-.25466l-.86891,1.06226a1.22711,1.22711,0,0,0-.78285-.30654,1.10184,1.10184,0,0,0-.784.30654,1.22006,1.22006,0,0,0-.37727.97384v3.689h-1.1896Z"/><path class="cls-3" d="M125.00244,30.12555h1.26151l1.3912,4.288h.0224l1.38649-4.288h1.26623l-2.17287,6.11893h-.98091Z"/><path class="cls-3" d="M131.23926,27.64969h1.1896v1.22614h-1.1896Zm0,2.47587h1.1896v6.11893h-1.1896Z"/><path class="cls-3" d="M138.46054,35.26a3.2168,3.2168,0,0,1-.91371.74394,2.50133,2.50133,0,0,1-1.21671.31125,2.61952,2.61952,0,0,1-1.84157-.73687,3.12948,3.12948,0,0,1-.84415-2.38744,3.19493,3.19493,0,0,1,.84415-2.41692,2.57825,2.57825,0,0,1,1.84393-.72508,2.64067,2.64067,0,0,1,1.21553.29357,3.047,3.047,0,0,1,.91253.77106l-.87952.80525a1.477,1.477,0,0,0-1.20492-.64373q-1.51912-.02476-1.54211,1.91585.023,1.92764,1.54211,1.89816a1.4415,1.4415,0,0,0,1.20492-.63783Z"/><path class="cls-3" d="M140.35163,33.65072a1.4591,1.4591,0,0,0,.41147,1.12,1.34922,1.34922,0,0,0,1.00567.38906,1.75419,1.75419,0,0,0,1.29688-.59539l.863.76044a2.754,2.754,0,0,1-2.13514.99035,3.00015,3.00015,0,0,1-.91371-.14148,2.19644,2.19644,0,0,1-.43269-.20632,2.1039,2.1039,0,0,1-.41736-.27706,2.4255,2.4255,0,0,1-.61071-.955,3.88,3.88,0,0,1-.257-1.53268,4.38777,4.38777,0,0,1,.22283-1.5091,2.63956,2.63956,0,0,1,.57063-.96677,2.11911,2.11911,0,0,1,.79346-.51875,2.47041,2.47041,0,0,1,.85594-.15916,2.42446,2.42446,0,0,1,1.71778.68971,2.54846,2.54846,0,0,1,.72508,1.89816v1.01393Zm2.50652-1.01393a1.59751,1.59751,0,0,0-.37138-1.08349,1.28727,1.28727,0,0,0-1.76258,0,1.67815,1.67815,0,0,0-.37256,1.08349Z"/></g></g></svg>