<?xml version="1.0" standalone="no"?><!DOCTYPE svg PUBLIC "-//W3C//DTD SVG 1.1//EN" "http://www.w3.org/Graphics/SVG/1.1/DTD/svg11.dtd"><svg t="1527475568268" class="icon" style="" viewBox="0 0 1024 1024" version="1.1" xmlns="http://www.w3.org/2000/svg" p-id="945" xmlns:xlink="http://www.w3.org/1999/xlink" width="200" height="200"><defs><style type="text/css"></style></defs><path d="M249.557333 291.306667l51.968 51.946666-205.973333 205.952-51.946667-51.946666z" fill="#00C1DE" p-id="946"></path><path d="M43.605333 497.706667l51.946667-51.946667 205.952 205.952-51.946667 51.968zM717.546667 703.68l-51.968-51.946667 205.952-205.952 51.968 51.946667z" fill="#00C1DE" p-id="947"></path><path d="M923.52 497.28l-51.968 51.946667L665.6 343.253333l51.946667-51.968z" fill="#00C1DE" p-id="948"></path><path d="M619.733333 135.872l25.984 25.984L283.946667 523.605333l-25.962667-25.962666z" fill="#00C1DE" p-id="949"></path><path d="M437.482667 626.325333l-25.984 25.962667-154.453334-154.453333 25.984-25.962667z" fill="#00C1DE" p-id="950"></path><path d="M489.642667 523.306667l25.984 25.984-102.997334 102.997333-25.984-25.984zM657.770667 188.202667c-35.456 0-64.277333-28.586667-64.277334-63.701334 0-35.136 28.821333-63.722667 64.277334-63.722666s64.298667 28.586667 64.298666 63.722666-28.842667 63.701333-64.298666 63.701334z m0-91.008c-15.189333 0-27.541333 12.245333-27.541334 27.306666 0 15.04 12.373333 27.306667 27.541334 27.306667 15.210667 0 27.562667-12.266667 27.562666-27.306667 0-15.061333-12.373333-27.306667-27.562666-27.306666z" fill="#00C1DE" p-id="951"></path><path d="M346.88 859.690667l-25.984-25.984L682.666667 471.936l25.962666 25.984z" fill="#00C1DE" p-id="952"></path><path d="M529.152 369.216l25.962667-25.962667 154.453333 154.453334-25.984 25.962666z" fill="#00C1DE" p-id="953"></path><path d="M477.013333 472.234667l-25.984-25.984 102.976-102.976 25.984 25.962666zM308.842667 807.338667c35.456 0 64.298667 28.586667 64.298666 63.722666s-28.842667 63.722667-64.298666 63.722667c-35.456 0-64.298667-28.586667-64.298667-63.722667s28.842667-63.722667 64.298667-63.722666z m0 91.029333c15.189333 0 27.541333-12.245333 27.541333-27.306667 0-15.061333-12.373333-27.306667-27.541333-27.306666-15.210667 0-27.562667 12.245333-27.562667 27.306666 0 15.061333 12.373333 27.306667 27.562667 27.306667z" fill="#00C1DE" p-id="954"></path></svg>