 <svg version="1.0" xmlns="http://www.w3.org/2000/svg" width="700.000000pt" height="123.000000pt" viewBox="0 0 700.000000 123.000000" preserveAspectRatio="xMidYMid meet">
<metadata>
Created by potrace 1.12, written by Peter Selinger 2001-2015
</metadata>
<g transform="translate(0.000000,123.000000) scale(0.100000,-0.100000)" fill="#000000" stroke="none">
<path d="M412 1216 c-4 -6 -95 -272 -203 -591 -108 -319 -200 -588 -204 -598
-7 -16 2 -17 109 -17 l115 0 50 72 c119 176 339 444 353 430 4 -4 43 -118 86
-252 l78 -245 112 -3 c93 -2 112 0 112 12 0 8 -49 160 -110 337 -103 303 -109
324 -93 341 9 10 63 55 120 100 l103 82 0 48 c0 26 -3 48 -6 48 -10 0 -121
-68 -192 -117 -35 -23 -68 -43 -75 -43 -7 0 -40 85 -76 193 -35 105 -68 197
-73 202 -12 14 -197 14 -206 1z m143 -434 c17 -53 30 -100 30 -103 0 -3 -44
-45 -97 -93 -54 -48 -98 -85 -98 -82 0 3 23 74 50 159 28 85 50 157 50 160 0
14 20 57 27 57 5 0 22 -44 38 -98z"></path>
<path d="M1090 708 c0 -329 4 -537 10 -560 33 -116 149 -161 318 -123 96 22
93 18 78 110 -11 70 -15 80 -32 77 -84 -16 -103 -14 -128 12 l-26 25 0 491 0
490 -110 0 -110 0 0 -522z"></path>
<path d="M1562 682 l3 -548 27 -41 c39 -59 85 -78 188 -78 85 0 172 18 189 39
9 11 -10 150 -22 162 -3 3 -14 1 -25 -5 -12 -6 -39 -11 -61 -11 -31 0 -44 6
-60 26 -21 26 -21 36 -21 515 l0 489 -110 0 -111 0 3 -548z"></path>
<path d="M4900 1193 c-1 -4 0 -248 0 -541 0 -329 -3 -533 -9 -530 -5 1 -194
241 -421 533 -317 407 -417 531 -436 533 l-24 3 0 -586 0 -586 28 3 27 3 5
525 5 524 320 -409 c514 -660 502 -645 530 -645 l25 0 -2 587 -3 588 -22 3
c-13 2 -23 0 -23 -5z"></path>
<path d="M5220 605 l0 -585 375 0 375 0 0 25 0 25 -347 2 -348 3 -3 558 -2
557 -25 0 -25 0 0 -585z"></path>
<path d="M6205 1178 c-3 -7 -4 -269 -3 -583 l3 -570 27 -3 28 -3 2 223 3 223
245 5 c285 6 302 10 389 106 164 180 115 475 -99 586 -43 22 -54 23 -318 26
-216 2 -273 0 -277 -10z m563 -62 c96 -49 162 -149 170 -257 9 -130 -51 -252
-148 -301 l-55 -28 -235 -1 -235 0 -3 293 c-1 161 0 298 3 305 3 10 58 13 230
13 219 0 227 -1 273 -24z"></path>
<path d="M2320 886 c-203 -44 -340 -220 -340 -436 0 -132 47 -246 137 -331
187 -177 522 -148 664 57 31 45 31 64 1 64 -9 0 -45 9 -80 19 l-64 20 -41 -44
c-109 -113 -296 -88 -361 47 -48 102 -77 93 297 96 l327 2 0 74 c0 294 -252
495 -540 432z m197 -167 c24 -11 56 -37 72 -56 28 -33 59 -118 49 -129 -6 -6
-428 -7 -434 -1 -9 8 26 100 50 131 54 72 176 97 263 55z"></path>
<path d="M3374 886 c-67 -16 -132 -55 -177 -105 -20 -23 -39 -41 -42 -41 -2 0
-5 33 -7 73 l-3 72 -92 3 -93 3 0 -436 0 -435 105 0 104 0 3 264 3 264 30 44
c36 51 109 103 160 112 44 9 99 -16 129 -57 20 -27 21 -45 26 -325 l5 -297
108 -3 107 -3 0 310 c0 387 -11 446 -94 519 -59 52 -159 65 -272 38z"></path>
</g>
</svg>