<svg id="Layer_1" data-name="Layer 1" xmlns="http://www.w3.org/2000/svg" xmlns:xlink="http://www.w3.org/1999/xlink" viewBox="0 0 307.51066 188.49493"><defs><style>.cls-1{fill:url(#linear-gradient);}.cls-2{fill:url(#linear-gradient-2);}.cls-3{fill:url(#linear-gradient-3);}.cls-4{fill:url(#linear-gradient-4);}.cls-5{fill:url(#linear-gradient-5);}.cls-6{fill:url(#linear-gradient-6);}.cls-7{fill:url(#linear-gradient-7);}</style><linearGradient id="linear-gradient" x1="120.57764" y1="71.70362" x2="186.60411" y2="71.70362" gradientUnits="userSpaceOnUse"><stop offset="0" stop-color="#1b660f"/><stop offset="1" stop-color="#6cae3e"/></linearGradient><linearGradient id="linear-gradient-2" x1="120.57765" y1="39.41568" x2="120.84563" y2="39.41568" xlink:href="#linear-gradient"/><linearGradient id="linear-gradient-3" x1="186.27409" y1="39.41568" x2="186.54207" y2="39.41568" xlink:href="#linear-gradient"/><linearGradient id="linear-gradient-4" x1="84.76234" y1="17.85372" x2="114.21752" y2="17.85372" xlink:href="#linear-gradient"/><linearGradient id="linear-gradient-5" x1="192.81968" y1="17.85372" x2="222.27486" y2="17.85372" xlink:href="#linear-gradient"/><linearGradient id="linear-gradient-6" x1="84.76234" y1="125.91106" x2="114.21753" y2="125.91106" xlink:href="#linear-gradient"/><linearGradient id="linear-gradient-7" x1="192.81968" y1="125.91106" x2="222.27486" y2="125.91106" xlink:href="#linear-gradient"/></defs><title>azure-disk-storage</title><path d="M10.98509,181.57845l-.84276-4.07964H6.3287l-.82011,4.07964H2.84788l3.61383-15.91837H9.98725l3.70269,15.91837Zm-4.19057-6.40754h2.882l-1.41893-6.939H8.19137Z"/><path d="M26.68275,181.57845V173.752c0-1.28592-.46581-1.68494-1.0867-1.68494a2.42139,2.42139,0,0,0-1.77381,1.0867v8.42471h-2.35v-7.73761c0-1.21913-.266-1.7738-1.042-1.7738a2.56119,2.56119,0,0,0-1.81795,1.175v8.33643h-2.35V170.04987h2.28376V171.402a3.87071,3.87071,0,0,1,2.90407-1.574,2.03648,2.03648,0,0,1,2.12868,1.574,3.85544,3.85544,0,0,1,2.97086-1.574c1.84,0,2.46091,1.39686,2.46091,3.547v8.20342Z"/><path d="M37.5916,181.57845l-.133-1.21913a4.24154,4.24154,0,0,1-3.12594,1.41893c-1.61873,0-2.59391-1.10878-2.59391-3.03766a3.51227,3.51227,0,0,1,1.46307-3.03766,13.55069,13.55069,0,0,1,4.14585-1.707c.133-1.50721-.19922-2.239-1.37421-2.239-.97576,0-1.52986.57617-1.86267,1.59608l-1.90681-.46523a3.69338,3.69338,0,0,1,3.90249-3.05973c2.50505,0,3.547,1.19706,3.547,3.63589v5.94173l.17715,2.17283Zm-.31015-5.91966a6.64051,6.64051,0,0,0-2.48356,1.064,2.039,2.039,0,0,0-.643,1.66287c0,.86484.377,1.41893,1.13085,1.41893a2.5801,2.5801,0,0,0,1.99568-1.10819Z"/><path d="M42.20385,181.57845v-1.77381l4.52279-7.78174h-4.1017v-1.973h6.89484v1.79588l-4.52222,7.75967h4.65581v1.973Z"/><path d="M51.8924,175.85859c0-3.99077,1.37479-6.03059,4.25679-6.03059,2.85993,0,4.21265,2.03982,4.21265,6.03059,0,4.10113-1.46366,5.91966-4.21265,5.91966C53.35548,181.77825,51.8924,179.95972,51.8924,175.85859Zm6.0306,0c0-2.68278-.48789-4.07964-1.77381-4.07964-1.33006,0-1.81795,1.39686-1.81795,4.07964,0,2.72692.51,3.99077,1.81795,3.99077C57.43511,179.84936,57.923,178.58551,57.923,175.85859Z"/><path d="M68.80978,181.57845v-7.73761c0-1.26385-.377-1.7738-1.19764-1.7738A2.61651,2.61651,0,0,0,65.68325,173.22v8.3585h-2.35V170.04987H65.617v1.37421a3.89606,3.89606,0,0,1,3.015-1.59608,2.152,2.152,0,0,1,2.03982,1.042,5.14473,5.14473,0,0,1,.46581,2.70485v8.00362Z"/><path d="M79.98464,181.57845V165.66008h8.13662v2.39411H82.6227V172.2h4.1017v2.30584H82.6227v4.67787h5.78665v2.3947Z"/><path d="M91.20364,181.57845V165.66008h2.35v15.91837Z"/><path d="M102.22285,181.57845l-.133-1.21913a4.24154,4.24154,0,0,1-3.12594,1.41893c-1.61815,0-2.59392-1.10878-2.59392-3.03766a3.51368,3.51368,0,0,1,1.46307-3.03766,13.55722,13.55722,0,0,1,4.14586-1.707c.133-1.50721-.19922-2.239-1.37421-2.239-.97577,0-1.52987.57617-1.86267,1.59608l-1.90623-.46523a3.69278,3.69278,0,0,1,3.90191-3.05973c2.505,0,3.547,1.19706,3.547,3.63589v5.94173l.17773,2.17283Zm-.31016-5.91966a6.637,6.637,0,0,0-2.483,1.064,2.03727,2.03727,0,0,0-.643,1.66287c0,.86484.377,1.41893,1.13027,1.41893a2.58007,2.58007,0,0,0,1.99567-1.10819Z"/><path d="M112.26686,173.109c-.37694-1.042-.8869-1.41893-1.68494-1.41893a1.10429,1.10429,0,0,0-1.24178,1.13084c0,2.106,5.07748,1.707,5.07748,5.67572,0,2.106-1.41893,3.2816-3.72476,3.2816-2.1949,0-3.25953-.93163-3.81363-2.99352l1.92889-.532c.399,1.15291.909,1.68494,1.90681,1.68494.86483,0,1.441-.46523,1.441-1.2412,0-2.43884-5.01068-1.97361-5.01068-5.76458,0-1.86209,1.308-3.10387,3.4146-3.10387a3.2832,3.2832,0,0,1,3.5691,2.77106Z"/><path d="M122.2,181.51165a9.35877,9.35877,0,0,1-1.81795.17773c-1.90681,0-2.61657-.70975-2.61657-2.90465V172.0229h-1.52928v-1.973h1.52928V166.303h2.3279v3.74683H122.2v1.973h-2.10662v6.36281c0,.82069.31074,1.15292.99784,1.15292a3.92925,3.92925,0,0,0,1.10878-.15508Z"/><path d="M124.86124,168.16513v-2.616h2.43883v2.616Zm.04414,13.41332V170.04987h2.35v11.52858Z"/><path d="M138.40814,178.07556c-.57674,2.54977-1.75173,3.70269-4.03549,3.70269-2.92614,0-4.14585-2.08454-4.14585-5.94231,0-3.4361,1.13084-6.00794,4.23471-6.00794,2.30583,0,3.45875,1.175,3.85777,3.61382l-2.106.33223c-.31074-1.28534-.776-1.95095-1.7076-1.95095-1.26327,0-1.88416,1.55193-1.88416,4.01284,0,2.94879.62089,3.94663,1.86209,3.94663.97577,0,1.5078-.59882,1.86267-2.15075Z"/><path d="M146.67836,181.57845V165.66008h3.94605c3.63647,0,5.29934,1.19705,5.29934,4.14585a3.39134,3.39134,0,0,1-2.06189,3.36988V173.22a3.57479,3.57479,0,0,1,2.43826,3.79156c0,3.68-2.372,4.56694-5.47591,4.56694Zm4.03491-9.31161c1.35272,0,2.54977-.48789,2.54977-2.23962,0-1.707-1.26385-2.01717-2.54977-2.01717H149.2502v4.25679Zm.266,6.96163c1.84,0,2.63864-.643,2.63864-2.37262,0-1.72908-.8869-2.43884-2.61657-2.43884H149.2502v4.81146Z"/><path d="M159.228,181.57845V165.66008h2.35v15.91837Z"/><path d="M164.54942,175.85859c0-3.99077,1.37479-6.03059,4.25679-6.03059,2.85993,0,4.21264,2.03982,4.21264,6.03059,0,4.10113-1.46365,5.91966-4.21264,5.91966C166.01249,181.77825,164.54942,179.95972,164.54942,175.85859Zm6.0306,0c0-2.68278-.48789-4.07964-1.77381-4.07964-1.33006,0-1.81795,1.39686-1.81795,4.07964,0,2.72692.51,3.99077,1.81795,3.99077C170.09213,179.84936,170.58,178.58551,170.58,175.85859Z"/><path d="M183.66169,178.07556c-.57675,2.54977-1.75173,3.70269-4.0355,3.70269-2.92614,0-4.14585-2.08454-4.14585-5.94231,0-3.4361,1.13085-6.00794,4.23472-6.00794,2.30583,0,3.45875,1.175,3.85777,3.61382l-2.106.33223c-.31073-1.28534-.776-1.95095-1.70759-1.95095-1.26327,0-1.88416,1.55193-1.88416,4.01284,0,2.94879.62089,3.94663,1.86209,3.94663.97577,0,1.50779-.59882,1.86267-2.15075Z"/><path d="M192.37506,181.57845l-2.28376-5.47592-1.33006,1.77323v3.70269h-2.30583V165.66008h2.30583V174.661h.04414l3.0818-4.61108H194.437L191.71,173.90764l3.17008,7.67081Z"/><path d="M208.4944,169.87214c-.33223-1.35213-.909-2.1949-2.15018-2.1949a1.59427,1.59427,0,0,0-1.79588,1.6408c0,3.32575,6.5179,2.92673,6.5179,8.13663,0,2.77164-1.81795,4.32358-4.65581,4.32358s-4.16792-1.37479-4.67787-4.23472l2.43884-.42167c.31015,1.61873.909,2.43884,2.3279,2.43884a1.81233,1.81233,0,0,0,2.01717-1.90623c0-3.50347-6.45169-3.0818-6.45169-8.18135,0-2.46091,1.61873-4.01284,4.25679-4.01284,2.77164,0,4.01284,1.55193,4.45659,3.9687Z"/><path d="M219.22552,181.51165a9.35877,9.35877,0,0,1-1.81795.17773c-1.90681,0-2.61657-.70975-2.61657-2.90465V172.0229h-1.52928v-1.973H214.791V166.303h2.3279v3.74683h2.10662v1.973H217.1189v6.36281c0,.82069.31074,1.15292.99784,1.15292a3.92925,3.92925,0,0,0,1.10878-.15508Z"/><path d="M221.421,175.85859c0-3.99077,1.37479-6.03059,4.25679-6.03059,2.85993,0,4.21264,2.03982,4.21264,6.03059,0,4.10113-1.46365,5.91966-4.21264,5.91966C222.88464,181.77825,221.421,179.95972,221.421,175.85859Zm6.0306,0c0-2.68278-.48789-4.07964-1.77381-4.07964-1.33006,0-1.818,1.39686-1.818,4.07964,0,2.72692.51,3.99077,1.818,3.99077C226.9637,179.84936,227.45159,178.58551,227.45159,175.85859Z"/><path d="M232.86187,181.57845V170.04987h2.28376v1.90623c.7539-1.3742,1.50779-2.1281,2.72692-2.1281a2.83935,2.83935,0,0,1,.377.04414v2.41677a4.6038,4.6038,0,0,0-.46581-.04414,2.86551,2.86551,0,0,0-2.57185,1.973v7.36066Z"/><path d="M244.258,181.77825c-2.77106,0-4.12378-1.8406-4.12378-6.03059,0-3.72476,1.441-5.91966,4.16792-5.91966,2.99352,0,4.0355,2.372,4.0355,5.32084,0,.3328,0,.70975-.02207,1.13084h-5.91966c.08829,2.41677.59824,3.547,1.973,3.547,1.06405,0,1.6408-.73124,1.973-1.92888l1.97361.3996C247.6947,180.73569,246.342,181.77825,244.258,181.77825Zm-1.84-7.20558h3.658c0-1.70759-.532-2.85993-1.77381-2.85993C243.14983,171.71274,242.57308,172.73207,242.418,174.57267Z"/><path d="M258.9805,182.75343a16.05259,16.05259,0,0,1,0-17.29315h1.90681a15.59766,15.59766,0,0,0,0,17.29315Z"/><path d="M264.25777,181.57845V165.66008h8.13663v2.39411h-5.49857V172.2h4.10171v2.30584h-4.10171v4.67787h5.78665v2.3947Z"/><path d="M275.69807,181.57845V165.66008h3.94605c3.63647,0,5.29935,1.19705,5.29935,4.14585a3.39136,3.39136,0,0,1-2.06189,3.36988V173.22a3.5748,3.5748,0,0,1,2.43825,3.79156c0,3.68-2.372,4.56694-5.47591,4.56694Zm4.03491-9.31161c1.35272,0,2.54978-.48789,2.54978-2.23962,0-1.707-1.26386-2.01717-2.54978-2.01717h-1.46307v4.25679Zm.266,6.96163c1.84,0,2.63863-.643,2.63863-2.37262,0-1.72908-.8869-2.43884-2.61656-2.43884h-1.75116v4.81146Z"/><path d="M294.54432,169.87214c-.33222-1.35213-.909-2.1949-2.15017-2.1949a1.59427,1.59427,0,0,0-1.79588,1.6408c0,3.32575,6.5179,2.92673,6.5179,8.13663,0,2.77164-1.81795,4.32358-4.65581,4.32358s-4.16792-1.37479-4.67788-4.23472l2.43884-.42167c.31016,1.61873.909,2.43884,2.32791,2.43884a1.81233,1.81233,0,0,0,2.01716-1.90623c0-3.50347-6.45168-3.0818-6.45168-8.18135,0-2.46091,1.61873-4.01284,4.25679-4.01284,2.77164,0,4.01284,1.55193,4.45658,3.9687Z"/><path d="M299.77746,182.75343a15.70826,15.70826,0,0,0,0-17.29315h1.88416a16.05264,16.05264,0,0,1,0,17.29315Z"/><g id="Icon_Test" data-name="Icon Test"><path class="cls-1" d="M186.4391,39.952a7.53525,7.53525,0,0,0-.24752-1.0726c-2.44772-7.48068-17.65661-11.35853-32.673-11.35853s-30.25275,3.87785-32.673,11.35853a7.53662,7.53662,0,0,0-.24752,1.0726,6.68309,6.68309,0,0,0,0,1.04509v61.41309c0,8.85581,16.5015,13.47624,33.003,13.47624s33.003-4.62043,33.003-13.47624V40.99708A6.68282,6.68282,0,0,0,186.4391,39.952Zm-33.003-6.93063c15.73143,0,25.13729,4.12537,27.11747,6.93063-2.03519,2.75025-11.441,6.90313-27.11747,6.90313s-25.08228-4.07037-27.11747-6.90313c2.06268-2.80525,11.46854-6.93063,27.2-6.93063Zm27.5025,69.38881c0,2.75025-9.70838,7.97574-27.5025,7.97574s-27.50251-5.28048-27.50251-7.97574V46.69009c6.24307,3.74035,16.91405,5.66552,27.50251,5.66552s21.25943-1.92518,27.5025-5.66552Z"/><path class="cls-2" d="M120.84563,38.87938a7.53662,7.53662,0,0,0-.24752,1.0726,7.039,7.039,0,0,1,0-1.0726Z"/><path class="cls-3" d="M186.52161,38.87938a7.039,7.039,0,0,1,0,1.0726,7.53662,7.53662,0,0,0-.24752-1.0726Z"/><path class="cls-4" d="M114.21752,28.676l-3.90536,3.90535L90.26284,12.532v15.3464h-5.5005V5.87638a2.75025,2.75025,0,0,1,2.75025-2.75025h22.002v5.5005H94.1682Z"/><path class="cls-5" d="M222.27486,5.87638v22.002h-5.5005V12.532L196.725,32.58131,192.81968,28.676,212.869,8.62662h-15.3464V3.12612h22.002a2.75025,2.75025,0,0,1,2.75025,2.75025Z"/><path class="cls-6" d="M94.1682,135.13815h15.34639v5.5005h-22.002a2.75025,2.75025,0,0,1-2.75025-2.75025v-22.002h5.5005v15.3464l20.04933-20.04933,3.90536,3.90535Z"/><path class="cls-7" d="M222.27486,115.8864v22.002a2.75025,2.75025,0,0,1-2.75025,2.75025h-22.002v-5.5005H212.869l-20.04933-20.04933,3.90535-3.90535,20.04933,20.04933V115.8864Z"/></g></svg>