<?xml version="1.0" encoding="utf-8"?>
<!-- Generator: Adobe Illustrator 24.3.0, SVG Export Plug-In . SVG Version: 6.00 Build 0)  -->
<svg version="1.1" id="Layer_1" xmlns="http://www.w3.org/2000/svg" xmlns:xlink="http://www.w3.org/1999/xlink" x="0px" y="0px"
	 viewBox="0 0 1400 625" style="enable-background:new 0 0 1400 625;" xml:space="preserve">
<style type="text/css">
	.st0{fill:#FFFFFF;}
</style>
<g>
	<path d="M801.51,343.06v-55.47c0-15.36-7.23-25.91-28.68-25.91c-23.94,0-30.26,12.28-30.26,26.3v1.73h19.87v-1.92
		c0-6.91,2.03-11.9,9.71-11.9c7.9,0,9.26,4.8,9.26,13.05v13.82h-3.61c-20.78,0-38.84,7.1-38.84,30.52v1.73
		c0,15.16,6.77,28.41,23.94,28.41c8.58,0,15.35-2.49,19.19-9.02c0,1.34,0.9,5.37,1.35,7.48h18.52
		C801.51,358.41,801.51,349.39,801.51,343.06z M781.86,328.66c0,14.01-3.61,19.58-12.64,19.58c-7.9,0-11.07-5.76-11.07-13.63v-1.53
		c0-13.05,7.45-17.08,18.97-17.08h4.74V328.66z M822.06,291.8c0-19,0-23.99-0.22-28.6h19.19c0.68,2.88,0.68,5.57,0.91,8.83
		c3.61-6.53,10.39-10.37,20.09-10.37c9.26,0,15.58,3.26,18.29,10.94c3.84-5.76,9.93-10.94,21.9-10.94
		c12.19,0,22.58,4.99,22.58,24.19v76.01h-20.32v-72.75c0-7.29-2.03-11.9-9.48-11.9c-9.26,0-11.52,6.53-11.52,16.7v67.95h-20.32
		v-72.17c0-9.79-3.16-12.48-9.71-12.48c-9.26,0-11.29,6.72-11.29,16.89v67.76h-20.1V291.8z M1001.81,343.06v-55.47
		c0-15.36-7.23-25.91-28.68-25.91c-23.94,0-30.26,12.28-30.26,26.3v1.73h19.87v-1.92c0-6.91,2.03-11.9,9.71-11.9
		c7.9,0,9.26,4.8,9.26,13.05v13.82h-3.61c-20.78,0-38.84,7.1-38.84,30.52v1.73c0,15.16,6.77,28.41,23.94,28.41
		c8.58,0,15.35-2.49,19.19-9.02c0,1.34,0.91,5.37,1.36,7.48h18.52C1001.81,358.41,1001.81,349.39,1001.81,343.06z M982.17,328.66
		c0,14.01-3.61,19.58-12.64,19.58c-7.9,0-11.07-5.76-11.07-13.63v-1.53c0-13.05,7.45-17.08,18.97-17.08h4.74V328.66z
		 M1014.69,350.16c4.29-7.87,24.84-48.18,37.03-71.21h-33.64V263.2h56v12.09c-2.48,5.38-26.64,53.36-35.9,70.83h36.35l-1.81,15.74
		h-58.03V350.16z M1147.24,316.76v-22.27c0-18.62-7.45-32.82-31.16-32.82c-26.65,0-32.29,18.81-32.29,32.82v34.17
		c0,19.96,4.97,34.74,32.29,34.74c28,0,30.71-19.19,30.71-29.94v-0.58h-19.65v0.58c0,8.06-1.58,15.35-11.52,15.35
		c-9.93,0-11.97-8.25-11.97-16.89v-15.16H1147.24z M1103.88,292.19c0-10.18,3.16-15.93,12.19-15.93c9.71,0,11.74,6.72,11.74,15.74
		v11.13h-23.94V292.19z M1224.92,316.76v-22.27c0-18.62-7.45-32.82-31.16-32.82c-26.65,0-32.29,18.81-32.29,32.82v34.17
		c0,19.96,4.97,34.74,32.29,34.74c28,0,30.71-19.19,30.71-29.94v-0.58h-19.65v0.58c0,8.06-1.58,15.35-11.52,15.35
		c-9.93,0-11.97-8.25-11.97-16.89v-15.16H1224.92z M1181.57,292.19c0-10.18,3.16-15.93,12.19-15.93c9.71,0,11.74,6.72,11.74,15.74
		v11.13h-23.94V292.19z M1269.62,228.08h20.32v20.54h-20.32V228.08z M1269.62,263.2h20.1v98.66h-20.1V263.2z M1337.94,261.67
		c-19.64,0-32.97,9.79-32.97,30.33v40.12c0,20.92,11.29,31.29,32.29,31.29c20.55,0,32.74-10.36,32.74-31.48v-39.35
		C1370,272.61,1358.26,261.67,1337.94,261.67z M1349.68,332.5c0,10.56-3.84,15.55-11.97,15.55c-9.03,0-12.42-6.14-12.42-15.36
		v-41.08c0-9.41,3.84-14.78,12.19-14.78c9.26,0,12.19,6.33,12.19,14.78V332.5z M1245.93,341.54c-5.61,0-10.16,4.55-10.16,10.16
		c0,5.61,4.55,10.16,10.16,10.16s10.16-4.55,10.16-10.16C1256.09,346.09,1251.54,341.54,1245.93,341.54z"/>
	<ellipse transform="matrix(0.7071 -0.7071 0.7071 0.7071 -129.4418 312.4998)" cx="312.5" cy="312.5" rx="282.5" ry="282.5"/>
	<path class="st0" d="M214.59,375.86c0,8.2-6.65,14.85-14.85,14.85h-3.67c-8.2,0-14.85-6.65-14.85-14.85V249.15
		c0-8.2,6.65-14.85,14.85-14.85h3.67c8.2,0,14.85,6.65,14.85,14.85V375.86z M345.05,190.43L278.34,439.4
		c-1.09,4.08-4.79,6.91-9.01,6.91h-6c-6.13,0-10.6-5.82-9.01-11.74l66.71-248.98c1.09-4.08,4.79-6.91,9.01-6.91h6
		C342.18,178.68,346.64,184.5,345.05,190.43z M424.82,230.38h-3.71c-17.05,0-46.33,6.22-46.33,50.54c0,17.56,0,45.62,0,63.17
		c0,44.32,29.28,50.54,46.33,50.54h3.71c17.05,0,46.33-6.22,46.33-50.54c0-17.56,0-45.62,0-63.17
		C471.15,236.6,441.88,230.38,424.82,230.38z M437.8,345.89c0,8.54-5.84,16.24-14.82,16.24c-8.98,0-14.83-8.08-14.83-16.24
		c0-8.16,0-58.62,0-66.78s5.84-16.24,14.83-16.24c8.98,0,14.82,7.71,14.82,16.24S437.8,337.36,437.8,345.89z"/>
</g>
</svg>
