<svg xmlns="http://www.w3.org/2000/svg" viewBox="0 0 400 245" width="400" height="245"><defs><clipPath id="a"><path d="M30.928 118.27l5.712 6.383 19.922-23.758zm5.712-31.583v8.618l30.649-4.286zm25.355-19.565l-5.758 6.382L81.87 90.879zm31.856 2.422l-8.545.885 7.477 30.14zm22.104 23.199l-6.966-5.031-14.535 27.39zm.928 32.096l-1.81-8.432-29.07 10.621zm-20.71 24.456l4.272-7.5-28.698-11.6zm-31.717 4.24l8.173-2.656-13.56-27.904zM38.033 135.46l7.848 3.494 8.544-29.86zm-7.523-31.211l3.483 7.873 26.284-16.444zm15.185-28.23l-2.647 8.2 30.463 5.403zm30.138-10.76l-7.476 4.285 19.085 24.503zm29.58 12.204l-8.405-1.816-2.182 30.978zm13.839 28.929l-5.062-6.988-22.29 21.568zm-9.01 30.745l.883-8.572-30.927 1.072zM83.032 154l6.362-5.776-23.683-19.985zm-31.485-5.776h8.591l-4.318-30.745zM18 16.903v27.925h10.069c8.18 0 13.53-5.585 13.53-13.845 0-8.26-5.31-14.08-13.609-14.08zm33.156-.472c-4.011 0-6.686 2.32-6.686 5.82 0 1.889.826 3.462 2.4 4.445 1.415.826 3.303 1.337 6.41 1.77l4.17.511v.512c0 2.95-1.141 4.208-3.658 4.208-2.321 0-3.698-1.22-3.855-3.461H45.1c.315 4.208 3.619 6.804 8.693 6.804 5.82 0 8.416-2.478 8.416-8.18v-5.861c0-2.675.197-4.72.59-6.096h-4.72a27.566 27.566 0 0 0-.314 3.382c-.944-2.4-3.422-3.854-6.608-3.854zm14.16 16.716v3.421h3.54v4.956l4.72 1.888v-6.844h4.798v-3.421h-4.799v-9.4c0-2.125.905-3.108 2.871-3.108.787 0 1.298.079 1.928.236v-3.972c-1.141-.236-2.006-.354-3.226-.354-4.72 0-6.293 2.478-6.293 6.45v10.148zm17.148 6.686v4.916h5.113v-4.916zm.236-22.93v19.665h4.72V16.903zm18.958-.472c-5.86 0-9.636 4.05-9.636 10.305 0 6.41 3.697 10.304 9.675 10.304 4.877 0 8.063-2.596 8.653-7.08l-4.602-.747c-.314 2.675-1.848 4.13-4.169 4.13-2.91 0-4.72-2.438-4.72-6.49 0-4.247 1.77-6.686 4.799-6.686 2.36 0 3.815 1.455 4.248 4.209l4.444-.905c-.708-4.366-4.012-7.04-8.692-7.04zm18.21 0c-4.012 0-6.686 2.32-6.686 5.82 0 1.889.826 3.462 2.4 4.445 1.415.826 3.303 1.337 6.41 1.77l4.17.511v.512c0 2.95-1.141 4.208-3.659 4.208-2.32 0-3.697-1.22-3.854-3.461h-4.838c.315 4.208 3.619 6.804 8.692 6.804 5.821 0 8.417-2.478 8.417-8.18v-5.861c0-2.675.197-4.72.59-6.096h-4.72a27.544 27.544 0 0 0-.314 3.382c-.944-2.4-3.422-3.854-6.608-3.854zm1.534 3.343c2.91 0 4.877 2.045 4.877 5.192v1.258l-4.444-.668c-2.596-.433-3.776-1.377-3.776-3.068 0-1.652 1.259-2.714 3.343-2.714zm-68.712 0c2.91 0 4.877 2.045 4.877 5.192v1.258l-4.444-.668c-2.596-.433-3.776-1.377-3.776-3.068 0-1.652 1.259-2.714 3.343-2.714zm-29.616 1.101h4.759c5.428 0 8.456 4.563 8.456 10.108 0 5.664-2.91 9.872-8.377 9.872h-4.838z" clip-rule="evenodd"/></clipPath><clipPath id="b"><path d="M0 0h149v171H0z"/></clipPath><clipPath id="c"><path d="M0 747h714V0H0z"/></clipPath><clipPath id="d"><path d="M0 747h714V0H0z"/></clipPath><clipPath id="e"><path d="M0 747h714V0H0z"/></clipPath><clipPath id="f"><path d="M0 747h714V0H0z"/></clipPath><clipPath id="g"><path d="M0 747h714V0H0z"/></clipPath><clipPath id="h"><path d="M0 747h714V0H0z"/></clipPath><clipPath id="i"><path d="M0 747h714V0H0z"/></clipPath><clipPath id="j"><path d="M0 747h714V0H0z"/></clipPath></defs><path fill="none" pointer-events="none" d="M0 0h400v245H0z"/><path class="st0" d="M116.454 91.17c0 4.713.51 8.533 1.401 11.335 1.02 2.802 2.293 5.858 4.076 9.17.637 1.019.891 2.037.891 2.929 0 1.273-.764 2.547-2.42 3.82l-8.023 5.35c-1.146.764-2.292 1.146-3.311 1.146-1.274 0-2.547-.637-3.82-1.783a39.4 39.4 0 0 1-4.586-5.986c-1.273-2.165-2.547-4.585-3.948-7.514-9.934 11.717-22.414 17.575-37.442 17.575-10.698 0-19.231-3.056-25.472-9.17-6.24-6.113-9.424-14.263-9.424-24.452 0-10.825 3.82-19.613 11.59-26.235 7.768-6.623 18.084-9.934 31.202-9.934 4.33 0 8.787.382 13.5 1.019 4.712.637 9.551 1.656 14.645 2.802v-9.297c0-9.68-2.037-16.43-5.985-20.377-4.076-3.948-10.953-5.859-20.76-5.859-4.457 0-9.042.51-13.754 1.656s-9.297 2.547-13.754 4.33c-2.038.892-3.566 1.401-4.458 1.656-.891.254-1.528.382-2.038.382-1.783 0-2.674-1.274-2.674-3.948v-6.24c0-2.038.255-3.567.891-4.458.637-.892 1.783-1.783 3.566-2.675 4.458-2.292 9.807-4.202 16.047-5.73 6.24-1.656 12.863-2.42 19.868-2.42 15.155 0 26.235 3.438 33.367 10.315 7.005 6.878 10.57 17.32 10.57 31.33V91.17zM64.748 110.53c4.203 0 8.533-.765 13.118-2.293 4.584-1.528 8.66-4.33 12.098-8.15 2.038-2.42 3.566-5.095 4.33-8.151.765-3.057 1.274-6.75 1.274-11.08v-5.35c-3.693-.89-7.641-1.655-11.717-2.164a95.965 95.965 0 0 0-11.971-.765c-8.533 0-14.774 1.656-18.976 5.095-4.203 3.438-6.24 8.278-6.24 14.646 0 5.985 1.528 10.443 4.711 13.5 3.057 3.183 7.514 4.712 13.373 4.712zm102.267 13.754c-2.293 0-3.82-.382-4.84-1.274-1.019-.764-1.91-2.547-2.674-4.966l-29.929-98.447c-.764-2.547-1.146-4.202-1.146-5.094 0-2.038 1.019-3.184 3.056-3.184h12.481c2.42 0 4.076.382 4.967 1.274 1.02.764 1.783 2.547 2.547 4.967l21.396 84.31 19.868-84.31c.636-2.548 1.4-4.203 2.42-4.967 1.018-.764 2.801-1.274 5.094-1.274h10.188c2.42 0 4.076.382 5.094 1.274 1.02.764 1.91 2.547 2.42 4.967l20.122 85.328 22.033-85.328c.764-2.548 1.656-4.203 2.547-4.967 1.02-.764 2.675-1.274 4.967-1.274h11.844c2.038 0 3.184 1.019 3.184 3.184 0 .637-.127 1.274-.255 2.038-.127.764-.382 1.783-.891 3.184l-30.693 98.446c-.764 2.547-1.656 4.203-2.674 4.967-1.02.764-2.675 1.273-4.84 1.273h-10.953c-2.42 0-4.075-.382-5.094-1.273-1.019-.892-1.91-2.547-2.42-5.094l-19.74-82.145-19.613 82.017c-.636 2.547-1.4 4.203-2.42 5.094-1.018.892-2.801 1.274-5.094 1.274h-10.952zm163.652 3.439c-6.622 0-13.245-.765-19.612-2.293-6.368-1.528-11.335-3.184-14.646-5.094-2.038-1.146-3.439-2.42-3.948-3.566a8.99 8.99 0 0 1-.765-3.566v-6.495c0-2.675 1.02-3.948 2.93-3.948.764 0 1.528.127 2.292.382.764.255 1.91.764 3.184 1.273a69.274 69.274 0 0 0 14.01 4.458c5.093 1.019 10.06 1.528 15.154 1.528 8.024 0 14.264-1.4 18.594-4.203 4.33-2.801 6.623-6.877 6.623-12.098 0-3.566-1.146-6.496-3.439-8.915-2.292-2.42-6.622-4.585-12.863-6.623l-18.466-5.73c-9.297-2.93-16.174-7.26-20.377-12.991-4.203-5.604-6.368-11.844-6.368-18.467 0-5.349 1.146-10.061 3.439-14.136 2.292-4.076 5.349-7.642 9.17-10.444 3.82-2.929 8.15-5.094 13.244-6.622 5.094-1.528 10.443-2.165 16.047-2.165 2.802 0 5.731.127 8.533.51 2.93.381 5.604.89 8.278 1.4 2.547.637 4.967 1.274 7.26 2.038 2.292.764 4.075 1.528 5.348 2.292 1.783 1.02 3.057 2.038 3.821 3.184.764 1.02 1.146 2.42 1.146 4.203v5.986c0 2.674-1.019 4.075-2.929 4.075-1.019 0-2.674-.51-4.84-1.528-7.259-3.311-15.41-4.967-24.452-4.967-7.26 0-12.99 1.146-16.938 3.566-3.948 2.42-5.986 6.113-5.986 11.335 0 3.566 1.274 6.622 3.82 9.042 2.548 2.42 7.26 4.84 14.01 7.004l18.084 5.731c9.17 2.93 15.793 7.005 19.74 12.227 3.949 5.221 5.86 11.207 5.86 17.83 0 5.476-1.147 10.443-3.312 14.773-2.293 4.33-5.35 8.15-9.297 11.207-3.948 3.184-8.66 5.476-14.137 7.132-5.73 1.783-11.716 2.675-18.212 2.675z" fill="#252f3e"/><path class="st1" d="M354.738 189.617c-41.9 30.947-102.777 47.376-155.12 47.376-73.357 0-139.455-27.127-189.379-72.21-3.948-3.567-.382-8.406 4.33-5.604 54 31.33 120.607 50.305 189.506 50.305 46.485 0 97.555-9.679 144.55-29.546 7.004-3.184 12.99 4.584 6.113 9.679z" fill-rule="evenodd" clip-rule="evenodd" fill="#f90"/><path class="st1" d="M372.185 169.75c-5.349-6.878-35.405-3.312-49.032-1.657-4.075.51-4.712-3.056-1.019-5.73 23.943-16.812 63.296-11.972 67.881-6.368 4.585 5.73-1.273 45.084-23.688 63.932-3.439 2.93-6.75 1.401-5.222-2.42 5.095-12.608 16.43-41.008 11.08-47.758z" fill-rule="evenodd" clip-rule="evenodd" fill="#f90"/></svg>
