<svg id="Layer_1" data-name="Layer 1" xmlns="http://www.w3.org/2000/svg" viewBox="0 0 433.33334 262.07999"><defs><style>.cls-1{fill:#b7ca9d;}.cls-2{fill:#4c622c;}.cls-3{fill:#759c3f;}.cls-4{fill:#779d3f;}</style></defs><title>amazon-cloudwatch</title><polygon class="cls-1" points="305.536 141.015 217.126 128.1 128.622 141.11 217.031 203.5 305.536 141.015"/><polygon class="cls-2" points="146.285 139.591 161.289 144.054 196.425 90.21 161.289 36.272 146.285 42.065 146.285 139.591"/><polygon class="cls-3" points="214.183 134.937 161.289 144.244 161.289 36.272 214.183 48.237 214.183 134.937"/><polygon class="cls-2" points="190.632 153.075 169.93 146.808 169.93 13.671 190.632 3.32 251.693 82.139 190.632 153.075"/><polygon class="cls-3" points="261.284 136.647 190.632 153.17 190.632 3.32 261.284 30.859 261.284 136.647"/><polygon class="cls-2" points="217.031 172.447 128.622 141.11 128.622 159.248 217.031 203.5 217.031 172.447"/><polygon class="cls-3" points="305.536 159.248 217.031 203.5 217.031 172.447 305.536 141.015 305.536 159.248"/><polygon class="cls-1" points="280.656 110.912 259.195 110.912 198.134 115.09 217.031 160.957 280.656 110.912"/><polygon class="cls-2" points="198.134 155.259 217.031 160.957 217.031 117.085 198.134 115.09 198.134 155.259"/><polygon class="cls-3" points="280.656 110.912 217.031 117.085 217.031 160.957 280.656 141.87 280.656 110.912"/><path class="cls-4" d="M50.86923,229.89551h6.12939l9.17188,25.9248h-5.874l-1.71094-5.3291h-9.5469l-1.75732,5.3291H41.61483Zm-.35693,16.12793h6.63916l-3.2749-10.20117Z"/><path class="cls-4" d="M92.98348,236.71973a5.57543,5.57543,0,0,1,2.23389,1.72363,5.50844,5.50844,0,0,1,1.09033,2.46191,17.0439,17.0439,0,0,1,.17578,2.832l-.03516,12.083H91.31258v-12.206a4.00851,4.00851,0,0,0-.35156-1.79395,2.5008,2.5008,0,0,0-2.4624-1.33691,2.88139,2.88139,0,0,0-2.8667,1.72363,5.40936,5.40936,0,0,0-.40479,2.19824v11.415H80.17977v-11.415a6.411,6.411,0,0,0-.35205-2.47949,2.456,2.456,0,0,0-2.48-1.38965,2.9601,2.9601,0,0,0-2.88428,1.38965,5.3474,5.3474,0,0,0-.40479,2.35645v11.53809H68.97616V236.68457h4.87158v2.79688a8.07708,8.07708,0,0,1,1.75879-2.12891,6.96287,6.96287,0,0,1,7.33447-.1582,5.63677,5.63677,0,0,1,1.65332,2.30469,6.36817,6.36817,0,0,1,2.44434-2.48047,7.46418,7.46418,0,0,1,3.44727-.791A6.67675,6.67675,0,0,1,92.98348,236.71973Z"/><path class="cls-4" d="M108.68465,244.15918a7.93043,7.93043,0,0,0,2.002-.43945,1.50777,1.50777,0,0,0,1.081-1.4248,1.6846,1.6846,0,0,0-.8291-1.627,5.24226,5.24226,0,0,0-2.43359-.44824,3.19276,3.19276,0,0,0-2.54932.87988,3.6243,3.6243,0,0,0-.71338,1.75879h-4.83646a7.33617,7.33617,0,0,1,1.41309-4.13379q1.99585-2.53271,6.854-2.53223a12.22836,12.22836,0,0,1,5.61719,1.248q2.45508,1.24953,2.45508,4.71387v8.79395q0,.91555.03516,2.21582a2.78637,2.78637,0,0,0,.29883,1.33691,1.78826,1.78826,0,0,0,.73877.58105v.73828h-5.45216a5.53884,5.53884,0,0,1-.31689-1.09082q-.08789-.50974-.14062-1.16016a10.35838,10.35838,0,0,1-2.40576,1.917,7.27417,7.27417,0,0,1-3.67969.93163,6.34811,6.34811,0,0,1-4.32568-1.48633,5.28358,5.28358,0,0,1-1.707-4.21191,5.45941,5.45941,0,0,1,2.74609-5.11816A12.28971,12.28971,0,0,1,106.966,244.37Zm3.065,2.33981a5.5391,5.5391,0,0,1-.97168.4834,8.2137,8.2137,0,0,1-1.3457.34277l-1.14111.21094a7.49836,7.49836,0,0,0-2.3042.68652,2.288,2.288,0,0,0-1.18408,2.12793,2.22458,2.22458,0,0,0,.72314,1.85547,2.75055,2.75055,0,0,0,1.75928.57129,5.24063,5.24063,0,0,0,3.02686-.94922,4.023,4.023,0,0,0,1.4375-3.46484Z"/><path class="cls-4" d="M120.03378,240.72949v-4.08008h15.16113v4.168l-9.40674,10.8877h9.74072v4.11523H119.36581V251.916l9.50293-11.18652Z"/><path class="cls-4" d="M155.12215,253.47461q-2.42723,2.99707-7.36914,2.99609-4.94313,0-7.36963-2.99609a11.893,11.893,0,0,1,0-14.40039q2.42726-3.041,7.36963-3.04,4.94166,0,7.36914,3.04A11.893,11.893,0,0,1,155.12215,253.47461Zm-4.00977-2.76953a8.951,8.951,0,0,0,0-8.87793,4.45445,4.45445,0,0,0-6.7627,0,8.89033,8.89033,0,0,0,0,8.87793,4.44,4.44,0,0,0,6.7627,0Z"/><path class="cls-4" d="M176.59628,237.749q1.88232,1.55564,1.8833,5.16211v12.90918h-5.13623v-11.6611a5.35666,5.35666,0,0,0-.40137-2.32129,2.82074,2.82074,0,0,0-2.79395-1.47754,3.462,3.462,0,0,0-3.47412,2.16309,7.47729,7.47729,0,0,0-.48877,2.91992v10.377h-5.0127V236.68457h4.854v2.79688a8.50572,8.50572,0,0,1,1.82178-2.12891,6.31164,6.31164,0,0,1,3.90527-1.16016A7.34752,7.34752,0,0,1,176.59628,237.749Z"/><path class="cls-4" d="M196.0284,232.60449a10.67136,10.67136,0,0,1,7.96973-3.20117q6.47314,0,9.46582,4.291a9.35514,9.35514,0,0,1,1.77441,4.83691h-5.417a7.38308,7.38308,0,0,0-1.32715-2.81445,5.34079,5.34079,0,0,0-4.29-1.68848,5.28756,5.28756,0,0,0-4.56641,2.38379,11.64561,11.64561,0,0,0-1.6709,6.74512q0,4.3623,1.76367,6.5332a5.52737,5.52737,0,0,0,4.48145,2.17285,5.08036,5.08036,0,0,0,4.25-1.86426,8.18424,8.18424,0,0,0,1.3418-3.00781h5.38184a11.67566,11.67566,0,0,1-3.55859,6.89453,10.35571,10.35571,0,0,1-7.334,2.65526,11.00034,11.00034,0,0,1-8.69922-3.58789q-3.167-3.605-3.167-9.88379Q192.42683,236.2798,196.0284,232.60449Z"/><path class="cls-4" d="M224.2784,255.82031h-5.0127v-25.9248h5.0127Z"/><path class="cls-4" d="M245.15537,253.47461q-2.42727,2.99707-7.37012,2.99609-4.94241,0-7.36914-2.99609a11.89485,11.89485,0,0,1,0-14.40039q2.42722-3.041,7.36914-3.04,4.94236,0,7.37012,3.04A11.89485,11.89485,0,0,1,245.15537,253.47461Zm-4.01074-2.76953a8.94776,8.94776,0,0,0,0-8.87793,4.45445,4.45445,0,0,0-6.7627,0,8.89668,8.89668,0,0,0,0,8.87793,4.44,4.44,0,0,0,6.7627,0Z"/><path class="cls-4" d="M256.16512,236.64941v11.55566a6.0893,6.0893,0,0,0,.38477,2.46191,2.66211,2.66211,0,0,0,2.67773,1.46,3.49988,3.49988,0,0,0,3.501-2.0752,7.55919,7.55919,0,0,0,.48926-2.97266V236.64941h5.083v19.1709H263.4288v-2.709q-.06887.08936-.35059.52832a3.52012,3.52012,0,0,1-.666.77344,6.94812,6.94812,0,0,1-2.27148,1.44238,7.72136,7.72136,0,0,1-2.56934.38673q-4.24365,0-5.71777-3.06055a11.72993,11.72993,0,0,1-.82422-4.97656V236.64941Z"/><path class="cls-4" d="M283.339,236.957a6.0829,6.0829,0,0,1,2.19824,2.11914v-9.14551h5.083v25.88965h-4.87109V253.164a7.0691,7.0691,0,0,1-2.44531,2.48047,6.8649,6.8649,0,0,1-3.41211.77344,7.12388,7.12388,0,0,1-5.6543-2.7168,10.43332,10.43332,0,0,1-2.29492-6.97363,12.00491,12.00491,0,0,1,2.25977-7.72168,7.35245,7.35245,0,0,1,6.041-2.81348A6.18458,6.18458,0,0,1,283.339,236.957Zm1.23145,13.65723a6.99591,6.99591,0,0,0,1.1084-4.09766q0-3.51858-1.77637-5.03027a3.82861,3.82861,0,0,0-2.5332-.915,3.52264,3.52264,0,0,0-3.22754,1.66211,8.96587,8.96587,0,0,0,.01758,8.37207,3.53924,3.53924,0,0,0,3.1748,1.5918,3.7007,3.7007,0,0,0,3.23628-1.583Z"/><path class="cls-4" d="M304.21591,236.64941h5.082l2.91992,13.80664,2.99023-13.80664h5.22363l-5.55762,19.1709h-5.15332L306.713,241.85547l-3.043,13.96484h-5.206l-5.38184-19.1709H298.464l2.99023,13.75391Z"/><path class="cls-4" d="M330.7872,244.15918a7.94658,7.94658,0,0,0,2.002-.43945,1.50778,1.50778,0,0,0,1.08105-1.4248,1.68523,1.68523,0,0,0-.83008-1.627,5.23642,5.23642,0,0,0-2.43262-.44824,3.19254,3.19254,0,0,0-2.5498.87988,3.61943,3.61943,0,0,0-.71289,1.75879h-4.837a7.33631,7.33631,0,0,1,1.41309-4.13379q1.99658-2.53271,6.85352-2.53223a12.22408,12.22408,0,0,1,5.61719,1.248q2.45508,1.24953,2.45508,4.71387v8.79395q0,.91555.03516,2.21582a2.77252,2.77252,0,0,0,.2998,1.33691,1.7898,1.7898,0,0,0,.73828.58105v.73828h-5.45215a5.56947,5.56947,0,0,1-.31641-1.09082c-.05957-.33984-.10547-.72656-.14062-1.16016a10.36117,10.36117,0,0,1-2.40625,1.917,7.27282,7.27282,0,0,1-3.67969.93163,6.34509,6.34509,0,0,1-4.3252-1.48633,5.282,5.282,0,0,1-1.707-4.21191,5.45853,5.45853,0,0,1,2.74609-5.11816,12.2838,12.2838,0,0,1,4.42969-1.23145Zm3.06445,2.33984a5.52117,5.52117,0,0,1-.97168.4834,8.227,8.227,0,0,1-1.3457.34277l-1.1416.21094a7.50349,7.50349,0,0,0-2.30371.68652,2.28926,2.28926,0,0,0-1.18457,2.12793,2.22336,2.22336,0,0,0,.72363,1.85547,2.7501,2.7501,0,0,0,1.75879.57129,5.241,5.241,0,0,0,3.02734-.94922,4.02166,4.02166,0,0,0,1.4375-3.46484Z"/><path class="cls-4" d="M341.256,240.39551V236.8252h2.67383v-5.34668h4.96v5.34668h3.1123v3.57031h-3.1123v10.13086a2.27735,2.27735,0,0,0,.29883,1.46875,3.29237,3.29237,0,0,0,1.8291.29q.22852,0,.4834-.00879t.501-.02637V255.996l-2.374.08788q-3.55225.123-4.85449-1.23145a3.66459,3.66459,0,0,1-.84375-2.65527v-11.8017Z"/><path class="cls-4" d="M366.68857,243.52637a4.44041,4.44041,0,0,0-.72266-1.93457,3.03356,3.03356,0,0,0-2.627-1.16113,3.459,3.459,0,0,0-3.47363,2.51563,10.43659,10.43659,0,0,0-.49316,3.543,9.603,9.603,0,0,0,.49316,3.38672,3.35212,3.35212,0,0,0,3.38574,2.3916,2.98543,2.98543,0,0,0,2.50293-.9502,4.71,4.71,0,0,0,.89941-2.46191h5.11816a8.38059,8.38059,0,0,1-1.65527,4.32617,8.046,8.046,0,0,1-6.98926,3.28906q-4.63037,0-6.81348-2.74316a11.0838,11.0838,0,0,1-2.18262-7.11523q0-4.93211,2.41113-7.67676a8.4,8.4,0,0,1,6.65527-2.74316,10.028,10.028,0,0,1,5.90723,1.61816q2.29688,1.61721,2.71973,5.71582Z"/><path class="cls-4" d="M389.03232,236.75586a5.62429,5.62429,0,0,1,2.373,1.88281,5.02989,5.02989,0,0,1,.96289,2.21,27.44359,27.44359,0,0,1,.1748,3.70508v11.2666h-5.11816V244.14648a5.17293,5.17293,0,0,0-.52344-2.5,2.62454,2.62454,0,0,0-2.584-1.33887,3.5427,3.5427,0,0,0-2.99414,1.33008,6.11992,6.11992,0,0,0-1.02148,3.79395v10.38867h-5.0127V229.9834h5.0127v9.14551a6.1314,6.1314,0,0,1,2.5127-2.33008,7.08449,7.08449,0,0,1,3.00391-.65918A8.1112,8.1112,0,0,1,389.03232,236.75586Z"/></svg>