<svg width="2457" height="501" viewBox="0 0 2457 501" fill="none" xmlns="http://www.w3.org/2000/svg">
<path d="M0 249.844C0 378.706 94.4016 484.557 215.867 499.35V0.338013C94.4016 15.1309 0 120.982 0 249.844Z" fill="#7950ED"/>
<path d="M490.045 249.835C490.045 120.315 394.677 13.8067 271.923 0V499.998H489.723V256.738C490.045 254.437 490.045 252.136 490.045 249.835Z" fill="#7950ED"/>
<path d="M707.378 250.166C733.797 250.166 751.84 262.987 761.506 276.794V252.796H803.39V420.12H761.506V395.794C751.84 410.258 733.153 423.078 707.056 423.078C665.493 423.078 632.308 388.233 632.308 335.965C632.308 283.697 665.493 250.166 707.378 250.166ZM718.01 287.313C695.779 287.313 674.837 304.407 674.837 335.965C674.837 367.523 695.779 385.932 718.01 385.932C740.886 385.932 761.506 368.509 761.506 336.622C761.506 304.736 740.886 287.313 718.01 287.313Z" fill="#15192C"/>
<path d="M1074.97 327.746C1074.97 301.119 1060.48 287.312 1038.57 287.312C1016.34 287.312 1001.84 301.119 1001.84 327.746V420.119H960.275V327.746C960.275 301.119 945.777 287.312 923.868 287.312C901.314 287.312 886.816 301.119 886.816 327.746V420.119H845.253V252.795H886.816V273.177C897.126 259.37 914.524 250.494 935.144 250.494C960.597 250.494 981.54 261.671 992.816 282.381C1003.45 263.315 1025.04 250.494 1049.2 250.494C1088.51 250.494 1116.54 275.806 1116.54 322.157V420.448H1074.97V327.746Z" fill="#15192C"/>
<path d="M1253.17 250.166C1295.38 250.166 1328.24 283.697 1328.24 335.965C1328.24 388.233 1295.38 423.078 1253.17 423.078C1227.4 423.078 1209.03 409.929 1199.04 396.451V500.001H1157.48V252.796H1199.04V277.122C1208.71 262.658 1227.72 250.166 1253.17 250.166ZM1242.22 287.313C1219.98 287.313 1199.04 304.736 1199.04 336.622C1199.04 368.509 1219.98 385.932 1242.22 385.932C1264.77 385.932 1285.71 367.852 1285.71 335.965C1285.71 304.078 1264.77 287.313 1242.22 287.313Z" fill="#15192C"/>
<path d="M1359.82 196.581H1401.38V420.446H1359.82V196.581Z" fill="#15192C"/>
<path d="M1439.07 208.087C1439.07 194.281 1449.7 183.433 1464.52 183.433C1479.02 183.433 1489.98 194.281 1489.98 208.087C1489.98 221.894 1479.02 232.742 1464.52 232.742C1449.7 232.742 1439.07 221.894 1439.07 208.087ZM1443.58 252.795H1485.14V420.118H1443.58V252.795Z" fill="#15192C"/>
<path d="M1597.93 250.166C1638.84 250.166 1666.23 271.863 1675.25 309.338H1630.47C1625.63 295.202 1614.68 285.998 1597.6 285.998C1574.41 285.998 1558.94 303.749 1558.94 336.622C1558.94 369.167 1574.41 386.918 1597.6 386.918C1614.68 386.918 1625.31 379.029 1630.47 363.907H1675.25C1666.23 399.739 1638.84 423.078 1597.93 423.078C1550.56 423.078 1516.74 389.219 1516.74 336.622C1516.74 284.026 1550.56 250.166 1597.93 250.166Z" fill="#15192C"/>
<path d="M1771.55 250.166C1797.97 250.166 1816.01 262.987 1825.68 276.794V252.796H1867.56V420.12H1825.68V395.794C1816.01 410.258 1797.32 423.078 1771.23 423.078C1729.66 423.078 1696.48 388.233 1696.48 335.965C1696.48 283.697 1729.66 250.166 1771.55 250.166ZM1782.18 287.313C1759.95 287.313 1739.01 304.407 1739.01 335.965C1739.01 367.523 1759.95 385.932 1782.18 385.932C1805.06 385.932 1825.68 368.509 1825.68 336.622C1825.68 304.736 1805.06 287.313 1782.18 287.313Z" fill="#15192C"/>
<path d="M1916.23 287.641H1896.57V252.796H1916.23V211.376H1958.11V252.796H1994.84V287.641H1957.79V368.509C1957.79 379.686 1962.3 384.617 1975.19 384.617H1994.52V420.448H1968.42C1937.17 420.448 1915.91 406.97 1915.91 368.509V287.641H1916.23Z" fill="#15192C"/>
<path d="M2021.59 208.087C2021.59 194.281 2032.22 183.433 2047.04 183.433C2061.54 183.433 2072.49 194.281 2072.49 208.087C2072.49 221.894 2061.54 232.742 2047.04 232.742C2032.22 232.742 2021.59 221.894 2021.59 208.087ZM2026.1 252.795H2067.66V420.118H2026.1V252.795Z" fill="#15192C"/>
<path d="M2182.68 423.078C2135.32 423.078 2099.56 389.219 2099.56 336.622C2099.56 283.697 2136.61 250.166 2183.97 250.166C2231.33 250.166 2268.39 283.697 2268.39 336.622C2268.39 389.219 2230.69 423.078 2182.68 423.078ZM2182.68 386.261C2204.59 386.261 2225.54 369.824 2225.54 336.622C2225.54 303.092 2205.24 286.984 2183.01 286.984C2160.78 286.984 2141.12 303.092 2141.12 336.622C2141.77 369.824 2160.45 386.261 2182.68 386.261Z" fill="#15192C"/>
<path d="M2415.31 327.747C2415.31 300.791 2400.81 286.327 2378.9 286.327C2356.35 286.327 2341.85 300.791 2341.85 327.747V420.12H2300.28V252.796H2341.85V273.506C2352.48 259.371 2370.2 250.166 2391.46 250.166C2429.8 250.166 2456.87 275.479 2456.87 321.83V420.12H2415.31V327.747Z" fill="#15192C"/>
</svg>
