<svg width="655" height="101" viewBox="0 0 655 101" fill="none" xmlns="http://www.w3.org/2000/svg">
<path d="M164.784 25.0654L136.964 69.9952L108.755 25.0654H94.0109L93.9609 99.9318H108.136L108.186 50.8294L131.344 87.7036L142.684 87.6736L165.324 51.1189L165.274 99.9318H179.448L179.498 25.0654H164.784Z" fill="#0016BE"/>
<path d="M45.1694 25.0654H32.7915L0 99.9318H15.4724L38.9704 46.2576L62.4784 99.9318H77.9608L45.1694 25.0654Z" fill="#0016BE"/>
<path d="M66.93 0H11.0298V14.1248H66.93V0Z" fill="#0016BE"/>
<path d="M252.22 25.0659V67.3105C252.22 78.0713 243.465 86.8257 232.704 86.8257C221.944 86.8257 213.189 78.0713 213.189 67.3105V24.9761H199.015V67.3105C199.015 85.8873 214.128 101 232.704 101C251.281 101 266.394 85.8873 266.394 67.3105V25.0659H252.22Z" fill="#0016BE"/>
<path d="M353.458 24.9761H282.455V39.1009H310.844V99.8424H325.019V39.1009H353.458V24.9761Z" fill="#0016BE"/>
<path d="M400.628 24.9761H388.25L355.458 99.8424H370.941L394.449 46.1682L417.967 99.8424H433.449L400.628 24.9761Z" fill="#0016BE"/>
<path d="M654.068 85.6971L614.18 85.767V69.2365H645.404V55.7706H614.18V39.2101H654.068V25.0454H600.025V99.9117L654.088 99.8219L654.068 85.6971Z" fill="#0016BE"/>
<path d="M545.432 85.6971V25.0454H531.257V99.9117H584.053V85.6971H545.432Z" fill="#0016BE"/>
<path d="M501.135 62.4888C507.085 60.0731 511.257 54.2336 511.257 47.5255C511.257 35.1277 501.165 25.0557 488.767 25.0557H447.202V99.922H488.767C501.175 99.922 511.257 89.84 511.257 77.4521C511.257 70.7341 507.075 64.9045 501.135 62.4988V62.4888ZM461.376 55.7608V39.2304H488.807C493.369 39.2304 497.083 42.9337 497.083 47.4956C497.083 52.0575 493.369 55.7708 488.807 55.7708H461.376V55.7608ZM461.376 69.1969H488.807C493.369 69.1969 497.083 72.9002 497.083 77.4621C497.083 82.024 493.369 85.7373 488.807 85.7373H461.376V69.2068V69.1969Z" fill="#0016BE"/>
</svg>
