<svg width="3180" height="464" viewBox="0 0 3180 464" fill="none" xmlns="http://www.w3.org/2000/svg">
<g clip-path="url(#clip0_903_5)">
<path d="M2428.58 335.577C2428.58 342.786 2428.17 350.412 2427.34 358.453H2246.48C2247.86 380.913 2255.43 398.52 2269.19 411.275C2283.23 423.752 2300.16 429.991 2319.98 429.991C2336.23 429.991 2349.71 426.248 2360.45 418.761C2371.46 410.998 2379.17 400.738 2383.57 387.983H2424.04C2417.98 409.888 2405.87 427.773 2387.7 441.637C2369.53 455.224 2346.96 462.017 2319.98 462.017C2298.51 462.017 2279.24 457.165 2262.17 447.46C2245.38 437.755 2232.17 424.03 2222.53 406.284C2212.9 388.26 2208.08 367.464 2208.08 343.895C2208.08 320.327 2212.76 299.669 2222.12 281.923C2231.48 264.177 2244.56 250.59 2261.35 241.163C2278.42 231.458 2297.96 226.605 2319.98 226.605C2341.46 226.605 2360.45 231.319 2376.97 240.747C2393.48 250.174 2406.15 263.207 2414.96 279.843C2424.04 296.203 2428.58 314.781 2428.58 335.577ZM2389.77 327.675C2389.77 313.256 2386.6 300.917 2380.27 290.657C2373.94 280.121 2365.27 272.218 2354.26 266.95C2343.52 261.404 2331.55 258.631 2318.33 258.631C2299.34 258.631 2283.1 264.732 2269.61 276.932C2256.39 289.132 2248.82 306.047 2246.9 327.675H2389.77Z" fill="#001E46"/>
<path d="M2464.15 343.48C2464.15 320.188 2468.83 299.808 2478.19 282.339C2487.55 264.593 2500.35 250.868 2516.59 241.163C2533.11 231.458 2551.41 226.605 2571.51 226.605C2591.33 226.605 2608.53 230.903 2623.12 239.499C2637.71 248.095 2648.59 258.909 2655.74 271.941V230.349H2693.73V458.274H2655.74V415.85C2648.31 429.159 2637.16 440.251 2622.3 449.124C2607.71 457.719 2590.64 462.017 2571.1 462.017C2551 462.017 2532.83 457.026 2516.59 447.044C2500.35 437.062 2487.55 423.059 2478.19 405.036C2468.83 387.013 2464.15 366.494 2464.15 343.48ZM2655.74 343.895C2655.74 326.704 2652.3 311.731 2645.42 298.976C2638.54 286.221 2629.18 276.516 2617.34 269.861C2605.78 262.929 2592.98 259.463 2578.94 259.463C2564.9 259.463 2552.1 262.791 2540.54 269.445C2528.98 276.1 2519.76 285.805 2512.87 298.56C2505.99 311.315 2502.55 326.288 2502.55 343.48C2502.55 360.948 2505.99 376.199 2512.87 389.231C2519.76 401.986 2528.98 411.829 2540.54 418.761C2552.1 425.416 2564.9 428.744 2578.94 428.744C2592.98 428.744 2605.78 425.416 2617.34 418.761C2629.18 411.829 2638.54 401.986 2645.42 389.231C2652.3 376.199 2655.74 361.087 2655.74 343.895Z" fill="#001E46"/>
<path d="M2837.33 462.017C2819.99 462.017 2804.44 459.106 2790.67 453.283C2776.91 447.183 2766.04 438.864 2758.05 428.328C2750.07 417.514 2745.67 405.175 2744.84 391.311H2783.65C2784.76 402.679 2789.99 411.968 2799.35 419.177C2808.98 426.387 2821.51 429.991 2836.92 429.991C2851.24 429.991 2862.52 426.803 2870.78 420.425C2879.04 414.048 2883.17 406.007 2883.17 396.302C2883.17 386.32 2878.76 378.972 2869.96 374.258C2861.15 369.267 2847.52 364.414 2829.08 359.701C2812.28 355.264 2798.52 350.828 2787.78 346.391C2777.32 341.677 2768.24 334.884 2760.53 326.011C2753.1 316.861 2749.38 304.937 2749.38 290.242C2749.38 278.596 2752.82 267.92 2759.71 258.216C2766.59 248.511 2776.36 240.885 2789.02 235.34C2801.69 229.517 2816.14 226.605 2832.38 226.605C2857.43 226.605 2877.66 232.983 2893.08 245.738C2908.49 258.493 2916.75 275.962 2917.85 298.144H2880.28C2879.45 286.221 2874.64 276.655 2865.83 269.445C2857.29 262.236 2845.73 258.631 2831.14 258.631C2817.65 258.631 2806.92 261.543 2798.93 267.366C2790.95 273.189 2786.96 280.814 2786.96 290.242C2786.96 297.728 2789.3 303.967 2793.98 308.958C2798.93 313.672 2804.99 317.554 2812.15 320.604C2819.58 323.377 2829.76 326.565 2842.7 330.17C2858.94 334.607 2872.16 339.043 2882.34 343.48C2892.53 347.639 2901.2 354.016 2908.36 362.612C2915.79 371.208 2919.64 382.438 2919.92 396.302C2919.92 408.779 2916.48 420.009 2909.6 429.991C2902.71 439.973 2892.94 447.876 2880.28 453.699C2867.89 459.244 2853.58 462.017 2837.33 462.017Z" fill="#001E46"/>
<path d="M3179.42 335.577C3179.42 342.786 3179.01 350.412 3178.18 358.453H2997.32C2998.7 380.913 3006.27 398.52 3020.03 411.275C3034.07 423.752 3051 429.991 3070.82 429.991C3087.06 429.991 3100.55 426.248 3111.29 418.761C3122.3 410.998 3130.01 400.738 3134.41 387.983H3174.88C3168.82 409.888 3156.71 427.773 3138.54 441.637C3120.37 455.224 3097.8 462.017 3070.82 462.017C3049.35 462.017 3030.08 457.165 3013.01 447.46C2996.22 437.755 2983.01 424.03 2973.37 406.284C2963.74 388.26 2958.92 367.464 2958.92 343.895C2958.92 320.327 2963.6 299.669 2972.96 281.923C2982.32 264.177 2995.39 250.59 3012.19 241.163C3029.25 231.458 3048.8 226.605 3070.82 226.605C3092.29 226.605 3111.29 231.319 3127.8 240.747C3144.32 250.174 3156.98 263.207 3165.79 279.843C3174.88 296.203 3179.42 314.781 3179.42 335.577ZM3140.6 327.675C3140.6 313.256 3137.44 300.917 3131.11 290.657C3124.78 280.121 3116.1 272.218 3105.09 266.95C3094.36 261.404 3082.38 258.631 3069.17 258.631C3050.17 258.631 3033.93 264.732 3020.44 276.932C3007.23 289.132 2999.66 306.047 2997.73 327.675H3140.6Z" fill="#001E46"/>
<path d="M1128.62 460.405L1058.43 363.08V460.405H987.82V152.623H1058.43V322.735L1128.21 228.321H1215.34L1119.54 344.779L1216.16 460.405H1128.62Z" fill="#001E46"/>
<path d="M1321.94 152.623V460.405H1251.33V152.623H1321.94Z" fill="#001E46"/>
<path d="M1478 463.731C1455.42 463.731 1435.05 458.879 1416.88 449.174C1398.99 439.469 1384.81 425.605 1374.35 407.582C1364.17 389.559 1359.07 368.485 1359.07 344.362C1359.07 320.516 1364.3 299.581 1374.77 281.558C1385.23 263.257 1399.54 249.254 1417.71 239.549C1435.88 229.845 1456.25 224.992 1478.82 224.992C1501.39 224.992 1521.77 229.845 1539.93 239.549C1558.1 249.254 1572.42 263.257 1582.88 281.558C1593.34 299.581 1598.57 320.516 1598.57 344.362C1598.57 368.208 1593.2 389.281 1582.47 407.582C1572 425.605 1557.55 439.469 1539.11 449.174C1520.94 458.879 1500.57 463.731 1478 463.731ZM1478 402.175C1491.48 402.175 1502.91 397.184 1512.27 387.202C1521.9 377.22 1526.72 362.94 1526.72 344.362C1526.72 325.784 1522.04 311.504 1512.68 301.522C1503.6 291.54 1492.31 286.549 1478.82 286.549C1465.06 286.549 1453.63 291.54 1444.55 301.522C1435.46 311.227 1430.92 325.507 1430.92 344.362C1430.92 362.94 1435.33 377.22 1444.14 387.202C1453.22 397.184 1464.51 402.175 1478 402.175Z" fill="#001E46"/>
<path d="M1863.54 228.32V460.405H1792.93V428.795C1785.77 439.054 1776 447.373 1763.61 453.75C1751.5 459.85 1738.01 462.9 1723.15 462.9C1705.53 462.9 1689.98 459.018 1676.49 451.255C1663 443.213 1652.54 431.706 1645.11 416.733C1637.67 401.76 1633.96 384.152 1633.96 363.911V228.32H1704.15V354.345C1704.15 369.872 1708.15 381.934 1716.13 390.53C1724.11 399.126 1734.85 403.423 1748.34 403.423C1762.1 403.423 1772.97 399.126 1780.96 390.53C1788.94 381.934 1792.93 369.872 1792.93 354.345V228.32H1863.54Z" fill="#001E46"/>
<path d="M1900.23 343.947C1900.23 320.101 1904.63 299.166 1913.44 281.143C1922.52 263.12 1934.77 249.256 1950.19 239.551C1965.61 229.846 1982.81 224.993 2001.81 224.993C2016.95 224.993 2030.71 228.182 2043.1 234.56C2055.76 240.937 2065.67 249.533 2072.83 260.347V152.623H2143.44V460.405H2072.83V427.132C2066.22 438.223 2056.72 447.096 2044.34 453.751C2032.22 460.405 2018.05 463.733 2001.81 463.733C1982.81 463.733 1965.61 458.88 1950.19 449.175C1934.77 439.193 1922.52 425.191 1913.44 407.167C1904.63 388.867 1900.23 367.793 1900.23 343.947ZM2072.83 344.363C2072.83 326.617 2067.87 312.614 2057.96 302.355C2048.33 292.096 2036.49 286.966 2022.45 286.966C2008.41 286.966 1996.44 292.096 1986.53 302.355C1976.89 312.337 1972.08 326.201 1972.08 343.947C1972.08 361.693 1976.89 375.835 1986.53 386.371C1996.44 396.631 2008.41 401.76 2022.45 401.76C2036.49 401.76 2048.33 396.631 2057.96 386.371C2067.87 376.112 2072.83 362.109 2072.83 344.363Z" fill="#001E46"/>
<path d="M416.756 27.8457C462.356 1.35216 516.277 -6.61367 567.511 5.57277C618.744 17.7592 663.429 49.1798 692.447 93.4219C719.124 134.096 730.708 182.79 725.431 230.981H564.642L375.957 435.975V58.9076C388.132 46.9847 401.812 36.5274 416.756 27.8457Z" fill="#001E46"/>
<path d="M235.228 460.81H107.799C79.2093 460.81 51.7895 449.37 31.573 429.007C11.3568 408.644 0.000121036 381.025 0 352.227C0 323.429 11.3567 295.81 31.573 275.447C51.7895 255.083 79.2093 243.644 107.799 243.644H140.065C144.425 224.478 152.866 206.495 164.803 190.938C176.739 175.38 191.888 162.62 209.201 153.538C217.521 149.174 226.245 145.711 235.228 143.186V460.81Z" fill="#001E46"/>
<path d="M759.254 243.641C787.844 243.641 815.264 255.081 835.48 275.444C855.697 295.807 867.054 323.426 867.054 352.224C867.054 381.022 855.697 408.641 835.48 429.004C815.264 449.367 787.844 460.807 759.254 460.807H533L736.81 243.641H759.254Z" fill="#001E46"/>
</g>
<defs>
<clipPath id="clip0_903_5">
<rect width="3179.5" height="463.913" fill="white"/>
</clipPath>
</defs>
</svg>
