<?xml version="1.0" encoding="UTF-8" standalone="no"?>
<!-- Created with Inkscape (http://www.inkscape.org/) -->

<svg
   xmlns:dc="http://purl.org/dc/elements/1.1/"
   xmlns:cc="http://creativecommons.org/ns#"
   xmlns:rdf="http://www.w3.org/1999/02/22-rdf-syntax-ns#"
   xmlns:svg="http://www.w3.org/2000/svg"
   xmlns="http://www.w3.org/2000/svg"
   xmlns:sodipodi="http://sodipodi.sourceforge.net/DTD/sodipodi-0.dtd"
   xmlns:inkscape="http://www.inkscape.org/namespaces/inkscape"
   width="208.84283mm"
   height="82.598816mm"
   viewBox="0 0 208.84283 82.598816"
   version="1.1"
   id="svg4245"
   inkscape:version="0.92.3 (2405546, 2018-03-11)"
   sodipodi:docname="samza.svg">
  <defs
     id="defs4239" />
  <sodipodi:namedview
     id="base"
     pagecolor="#ffffff"
     bordercolor="#666666"
     borderopacity="1.0"
     inkscape:pageopacity="0.0"
     inkscape:pageshadow="2"
     inkscape:zoom="0.35"
     inkscape:cx="-455.0439"
     inkscape:cy="154.83242"
     inkscape:document-units="mm"
     inkscape:current-layer="layer1"
     showgrid="false"
     fit-margin-top="0"
     fit-margin-left="0"
     fit-margin-right="0"
     fit-margin-bottom="0"
     inkscape:window-width="3726"
     inkscape:window-height="2049"
     inkscape:window-x="114"
     inkscape:window-y="55"
     inkscape:window-maximized="1" />
  <metadata
     id="metadata4242">
    <rdf:RDF>
      <cc:Work
         rdf:about="">
        <dc:format>image/svg+xml</dc:format>
        <dc:type
           rdf:resource="http://purl.org/dc/dcmitype/StillImage" />
        <dc:title></dc:title>
      </cc:Work>
    </rdf:RDF>
  </metadata>
  <g
     inkscape:label="Layer 1"
     inkscape:groupmode="layer"
     id="layer1"
     transform="translate(-0.57858058,-107.2006)">
    <rect
       style="opacity:1;fill:#d31d23;fill-opacity:1;stroke:#000000;stroke-width:0.17226084;stroke-linecap:round;stroke-linejoin:bevel;stroke-miterlimit:4;stroke-dasharray:none;stroke-opacity:1"
       id="rect4796"
       width="208.67058"
       height="82.426552"
       x="0.664711"
       y="107.28673"
       rx="2.000267"
       ry="1.4834933" />
    <g
       aria-label="samza"
       style="font-style:normal;font-variant:normal;font-weight:normal;font-stretch:normal;font-size:77.69824219px;line-height:125%;font-family:'Myriad Pro';-inkscape-font-specification:'Myriad Pro';letter-spacing:0px;word-spacing:0px;fill:#ffffff;fill-opacity:1;stroke:none;stroke-width:2.82539058px;stroke-linecap:butt;stroke-linejoin:miter;stroke-opacity:1"
       id="text4792">
      <path
         d="m 6.9982359,165.51592 c 2.6417402,1.55396 6.4489541,2.64174 10.5669611,2.64174 8.935298,0 14.063382,-4.73959 14.063382,-11.34394 0,-5.59428 -3.341025,-8.8576 -9.867677,-11.34395 -4.894989,-1.86476 -7.148238,-3.26332 -7.148238,-6.37125 0,-2.79714 2.253249,-5.12809 6.293557,-5.12809 3.496421,0 6.21586,1.24317 7.692126,2.17555 l 1.709362,-4.97268 c -2.097853,-1.24318 -5.438877,-2.33095 -9.246091,-2.33095 -8.080617,0 -12.9756067,4.97269 -12.9756067,11.03315 0,4.5065 3.1856277,8.23601 9.9453747,10.64466 5.050386,1.86476 6.992842,3.65182 6.992842,6.91514 0,3.10793 -2.330947,5.59428 -7.303635,5.59428 -3.418722,0 -6.992841,-1.39857 -9.0129958,-2.71944 z"
         style="fill:#ffffff;fill-opacity:1;stroke-width:2.82539058px"
         id="path4798" />
      <path
         d="m 66.863517,144.2266 c 0,-7.53673 -2.797136,-15.38425 -14.296476,-15.38425 -4.739593,0 -9.246091,1.32087 -12.354021,3.34102 l 1.553965,4.5065 c 2.64174,-1.70936 6.293558,-2.79714 9.789979,-2.79714 7.692126,0 8.546806,5.59428 8.546806,8.70221 v 0.77698 c -14.529571,-0.0777 -22.610188,4.89499 -22.610188,13.98568 0,5.43888 3.884912,10.80006 11.49934,10.80006 5.361178,0 9.401487,-2.64174 11.49934,-5.59427 h 0.233094 l 0.543888,4.73959 h 6.215859 c -0.466189,-2.56404 -0.621586,-5.74967 -0.621586,-9.013 z m -6.60435,10.41157 c 0,0.69928 -0.155397,1.47626 -0.388491,2.17555 -1.087776,3.18562 -4.195705,6.29355 -9.090695,6.29355 -3.496421,0 -6.448954,-2.09785 -6.448954,-6.52665 0,-7.30363 8.469109,-8.6245 15.92814,-8.46911 z"
         style="fill:#ffffff;fill-opacity:1;stroke-width:2.82539058px"
         id="path4800" />
      <path
         d="m 77.929443,167.30298 h 6.682049 v -22.68789 c 0,-1.16547 0.155396,-2.33095 0.543888,-3.34102 1.087775,-3.41873 4.195705,-6.83745 8.469108,-6.83745 5.205782,0 7.847522,4.3511 7.847522,10.33387 v 22.53249 h 6.68205 V 144.0712 c 0,-1.24317 0.23309,-2.48634 0.54389,-3.41872 1.16547,-3.34102 4.1957,-6.21586 8.08061,-6.21586 5.51658,0 8.15832,4.3511 8.15832,11.57704 v 21.28932 h 6.68205 v -22.144 c 0,-13.05331 -7.38133,-16.31663 -12.35402,-16.31663 -3.57412,0 -6.06047,0.93238 -8.31371,2.64174 -1.55397,1.16547 -3.03024,2.79714 -4.19571,4.89499 h -0.1554 c -1.63166,-4.4288 -5.51657,-7.53673 -10.644655,-7.53673 -6.215859,0 -9.71228,3.34102 -11.810133,6.91514 h -0.233094 l -0.310793,-6.06046 H 77.61865 c 0.233095,3.10793 0.310793,6.29356 0.310793,10.17847 z"
         style="fill:#ffffff;fill-opacity:1;stroke-width:2.82539058px"
         id="path4802" />
      <path
         d="m 138.45517,167.30298 h 30.5354 v -5.43888 h -21.9886 v -0.15539 c 1.70936,-1.94246 3.26333,-3.80722 4.81729,-5.90507 l 16.78282,-21.83321 0.0777,-4.2734 h -28.67065 v 5.51657 h 20.35694 v 0.1554 c -1.70936,2.02016 -3.26333,3.80721 -4.89499,5.82737 l -17.01591,22.144 z"
         style="fill:#ffffff;fill-opacity:1;stroke-width:2.82539058px"
         id="path4804" />
      <path
         d="m 202.38018,144.2266 c 0,-7.53673 -2.79714,-15.38425 -14.29648,-15.38425 -4.73959,0 -9.24609,1.32087 -12.35402,3.34102 l 1.55397,4.5065 c 2.64174,-1.70936 6.29355,-2.79714 9.78997,-2.79714 7.69213,0 8.54681,5.59428 8.54681,8.70221 v 0.77698 c -14.52957,-0.0777 -22.61019,4.89499 -22.61019,13.98568 0,5.43888 3.88491,10.80006 11.49934,10.80006 5.36118,0 9.40149,-2.64174 11.49934,-5.59427 h 0.2331 l 0.54388,4.73959 h 6.21586 c -0.46619,-2.56404 -0.62158,-5.74967 -0.62158,-9.013 z m -6.60435,10.41157 c 0,0.69928 -0.1554,1.47626 -0.38849,2.17555 -1.08778,3.18562 -4.19571,6.29355 -9.0907,6.29355 -3.49642,0 -6.44895,-2.09785 -6.44895,-6.52665 0,-7.30363 8.46911,-8.6245 15.92814,-8.46911 z"
         style="fill:#ffffff;fill-opacity:1;stroke-width:2.82539058px"
         id="path4806" />
    </g>
  </g>
</svg>
