<?xml version="1.0" encoding="utf-8"?>
<!-- Generator: Adobe Illustrator 27.1.1, SVG Export Plug-In . SVG Version: 6.00 Build 0)  -->
<svg version="1.1" id="Layer_1" xmlns="http://www.w3.org/2000/svg" xmlns:xlink="http://www.w3.org/1999/xlink" x="0px" y="0px"
	 viewBox="0 0 1440 200" style="enable-background:new 0 0 1440 200;" xml:space="preserve">
<style type="text/css">
	.st0{fill:#758EBF;}
	.st1{enable-background:new    ;}
</style>
<path d="M81.8,112.8c-0.1,0-0.2,0-0.2,0v0c-9.7-0.6-18.1-10.9-18.1-18.4c0.2-5.8,0.5-12.8,0.8-13.9c5.4-30.2,28.1-54.4,57.4-62
	c-10.5-5.4-22.4-8.5-35-8.5C44.4,10,10,44.4,10,86.7V155c0,14.8,12,26.7,26.7,26.7s26.7-12,26.7-26.7v-14.3c0-10.4,8-18.8,18.2-19.5
	v0c0.1,0,0.2,0,0.2,0c2.3,0,4.2-1.9,4.2-4.2S84.1,112.8,81.8,112.8L81.8,112.8z"/>
<g>
	<path class="st0" d="M146.7,47c4.1,0,8.1,0.3,12,0.9c-4.9-8.3-11.2-15.6-18.7-21.5C112.5,29,89.2,45.7,77.3,69.1
		c4.1-3.5,9.4-5.7,15.2-5.7c1.7,0,3.3,0.2,4.9,0.5C111,53.4,128.1,47,146.7,47L146.7,47z"/>
	<path class="st0" d="M165.3,62.7c-6.9-1.9-14.1-2.9-21.5-2.9c-13.2,0-25.7,3.2-36.7,8.9c5.3,4.3,8.7,10.8,8.7,18.1v7.8
		c0,7.5-8.4,17.7-18.1,18.4v0c-0.1,0-0.2,0-0.2,0c-2.3,0-4.2,1.9-4.2,4.2s1.9,4.2,4.2,4.2c0.1,0,0.2,0,0.2,0v0
		c9.8,0.7,17.6,8.5,18.1,18.4V155c0,14.8,12,26.7,26.7,26.7s26.7-12,26.7-26.7V86.7C169.2,78.3,167.8,70.2,165.3,62.7L165.3,62.7z"
		/>
</g>
<g class="st1">
	<path d="M278.3,58.4l46.3,99.3h-10.7L298.3,125h-42.8l-15.5,32.7H229l46.9-99.3H278.3z M277.1,79.5l-17,35.9H294L277.1,79.5z"/>
</g>
<g class="st1">
	<path d="M333.7,58.4h19.8c11.3,0,19,0.5,22.9,1.5c5.7,1.4,10.3,4.3,13.9,8.6c3.6,4.3,5.4,9.8,5.4,16.4c0,6.6-1.8,12.1-5.3,16.4
		c-3.5,4.3-8.3,7.2-14.5,8.7c-4.5,1.1-12.9,1.6-25.2,1.6h-7.1v46.2h-9.9V58.4z M343.6,68.1v33.7l16.8,0.2c6.8,0,11.8-0.6,14.9-1.9
		c3.1-1.2,5.6-3.2,7.4-6c1.8-2.8,2.7-5.8,2.7-9.3c0-3.3-0.9-6.4-2.7-9.1c-1.8-2.8-4.2-4.7-7.1-5.9c-2.9-1.2-7.8-1.8-14.5-1.8H343.6z
		"/>
</g>
<g class="st1">
	<path d="M407.2,58.4h9.9v99.3h-9.9V58.4z"/>
</g>
<g class="st1">
	<path d="M526.8,76.8l-7.8,6c-4.3-5.6-9.5-9.9-15.6-12.8c-6.1-2.9-12.7-4.4-19.9-4.4c-7.9,0-15.2,1.9-22,5.7
		c-6.7,3.8-12,8.9-15.7,15.3c-3.7,6.4-5.6,13.6-5.6,21.6c0,12.1,4.1,22.2,12.4,30.3c8.3,8.1,18.8,12.1,31.4,12.1
		c13.9,0,25.5-5.4,34.9-16.3l7.8,5.9c-4.9,6.3-11.1,11.2-18.5,14.6c-7.4,3.4-15.7,5.2-24.8,5.2c-17.4,0-31.1-5.8-41.1-17.3
		c-8.4-9.8-12.6-21.5-12.6-35.4c0-14.5,5.1-26.8,15.3-36.7s23-14.9,38.3-14.9c9.3,0,17.6,1.8,25.1,5.5C515.9,65,522,70.2,526.8,76.8
		z"/>
</g>
<g class="st1">
	<path d="M539.5,58.4h9.9v59.9c0,7.1,0.1,11.5,0.4,13.3c0.5,3.9,1.6,7.2,3.4,9.8c1.8,2.6,4.6,4.8,8.3,6.6c3.7,1.8,7.5,2.7,11.3,2.7
		c3.3,0,6.4-0.7,9.4-2.1c3-1.4,5.5-3.3,7.6-5.8c2-2.5,3.5-5.5,4.5-9c0.7-2.5,1-7.7,1-15.5V58.4h9.9v59.9c0,8.9-0.9,16-2.6,21.5
		c-1.7,5.5-5.2,10.2-10.4,14.3c-5.2,4-11.5,6.1-18.9,6.1c-8,0-14.9-1.9-20.6-5.7c-5.7-3.8-9.5-8.9-11.5-15.2
		c-1.2-3.9-1.8-10.8-1.8-20.9V58.4z"/>
	<path d="M623.2,58.4H643c11,0,18.5,0.5,22.4,1.4c5.9,1.4,10.7,4.2,14.4,8.7c3.7,4.4,5.5,9.9,5.5,16.4c0,5.4-1.3,10.2-3.8,14.3
		c-2.5,4.1-6.2,7.2-10.9,9.3c-4.7,2.1-11.2,3.2-19.6,3.2l35.7,46.1h-12.3l-35.7-46.1h-5.6v46.1h-9.9V58.4z M633.2,68.1v33.7
		l17.1,0.1c6.6,0,11.5-0.6,14.7-1.9c3.2-1.3,5.7-3.3,7.4-6c1.8-2.8,2.7-5.9,2.7-9.3c0-3.3-0.9-6.4-2.7-9.1c-1.8-2.7-4.2-4.7-7.1-5.8
		c-2.9-1.2-7.8-1.8-14.6-1.8H633.2z"/>
</g>
<g class="st1">
	<path d="M698.2,58.4h9.9v99.3h-9.9V58.4z"/>
</g>
<g class="st1">
	<path d="M772.6,55.9c15,0,27.6,5,37.7,15c10.1,10,15.2,22.4,15.2,37c0,14.5-5.1,26.9-15.2,37s-22.4,15.2-37,15.2
		c-14.7,0-27.1-5-37.3-15.1C726,134.9,721,122.7,721,108.4c0-9.5,2.3-18.4,6.9-26.5c4.6-8.1,10.9-14.5,18.9-19.1
		C754.7,58.2,763.4,55.9,772.6,55.9z M773.1,65.5c-7.3,0-14.3,1.9-20.9,5.7c-6.6,3.8-11.7,9-15.4,15.5c-3.7,6.5-5.5,13.7-5.5,21.7
		c0,11.8,4.1,21.8,12.3,29.9c8.2,8.1,18,12.2,29.6,12.2c7.7,0,14.8-1.9,21.4-5.6s11.7-8.8,15.3-15.3c3.7-6.5,5.5-13.7,5.5-21.6
		c0-7.9-1.8-15-5.5-21.4c-3.7-6.4-8.8-11.5-15.5-15.3S780.6,65.5,773.1,65.5z"/>
</g>
<g class="st1">
	<path d="M871.8,58.4h20c11,0,18.8,1,23.4,2.9s8.4,5.2,11.2,9.8c2.8,4.5,4.2,9.9,4.2,16.1c0,6.5-1.6,12-4.7,16.4
		c-3.1,4.4-7.8,7.7-14.1,10l23.5,44.1h-20.7l-22.3-42h-1.7v42h-18.9V58.4z M890.7,97.2h5.9c6,0,10.1-0.8,12.4-2.4s3.4-4.2,3.4-7.9
		c0-2.2-0.6-4-1.7-5.7s-2.6-2.8-4.5-3.5c-1.9-0.7-5.3-1-10.4-1h-5.2V97.2z"/>
	<path d="M945.4,58.4h54.2v18.5h-35.4v17.9h35.4V113h-35.4v26.1h35.4v18.6h-54.2V58.4z"/>
	<path d="M1103.4,74.6l-13.3,13.2c-8.4-8.9-18.2-13.4-29.4-13.4c-9.8,0-18,3.2-24.5,9.7c-6.6,6.5-9.9,14.4-9.9,23.6
		c0,9.6,3.4,17.7,10.3,24.4c6.8,6.7,15.3,10,25.3,10c6.5,0,12-1.4,16.5-4.1c4.5-2.7,8.1-7,10.8-12.9h-28.7v-17.7h49.9l0.1,4.2
		c0,8.7-2.2,16.9-6.7,24.7s-10.3,13.7-17.5,17.8s-15.5,6.1-25.2,6.1c-10.3,0-19.5-2.2-27.6-6.7c-8.1-4.5-14.5-10.9-19.2-19.1
		c-4.7-8.3-7.1-17.2-7.1-26.8c0-13.1,4.3-24.6,13-34.3c10.3-11.6,23.7-17.3,40.2-17.3c8.6,0,16.7,1.6,24.2,4.8
		C1091.2,63.4,1097.4,68,1103.4,74.6z"/>
	<path d="M1121.1,58.4h18.8v99.3h-18.8V58.4z"/>
	<path d="M1207.8,71.9l-14,12.3c-4.9-6.8-9.9-10.3-15-10.3c-2.5,0-4.5,0.7-6.1,2c-1.6,1.3-2.4,2.8-2.4,4.5c0,1.7,0.6,3.2,1.7,4.7
		c1.5,2,6.2,6.2,13.9,12.8c7.2,6,11.6,9.8,13.1,11.4c3.8,3.9,6.5,7.6,8.1,11.1c1.6,3.5,2.4,7.4,2.4,11.6c0,8.1-2.8,14.9-8.4,20.2
		c-5.6,5.3-13,8-22,8c-7.1,0-13.2-1.7-18.5-5.2c-5.2-3.5-9.7-8.9-13.5-16.3l15.9-9.6c4.8,8.8,10.3,13.2,16.5,13.2
		c3.2,0,6-0.9,8.2-2.8c2.2-1.9,3.3-4.1,3.3-6.5c0-2.2-0.8-4.5-2.5-6.7c-1.7-2.2-5.3-5.7-11-10.3c-10.8-8.8-17.8-15.6-21-20.4
		s-4.7-9.6-4.7-14.3c0-6.9,2.6-12.8,7.9-17.7c5.2-4.9,11.7-7.4,19.4-7.4c5,0,9.7,1.1,14.2,3.4C1197.8,61.6,1202.6,65.8,1207.8,71.9z
		"/>
	<path d="M1212.4,58.4h54.9V77h-18.1v80.6H1230V77h-17.6V58.4z"/>
	<path d="M1276.1,58.4h20c11,0,18.8,1,23.4,2.9s8.4,5.2,11.2,9.8c2.8,4.5,4.2,9.9,4.2,16.1c0,6.5-1.6,12-4.7,16.4
		c-3.1,4.4-7.8,7.7-14.1,10l23.5,44.1h-20.7l-22.3-42h-1.7v42h-18.9V58.4z M1295,97.2h5.9c6,0,10.1-0.8,12.4-2.4s3.4-4.2,3.4-7.9
		c0-2.2-0.6-4-1.7-5.7s-2.6-2.8-4.5-3.5c-1.9-0.7-5.3-1-10.4-1h-5.2V97.2z"/>
	<path d="M1342.6,58.4h20.3l18.5,35.7l18.4-35.7h20l-29,56.3v43h-19v-43L1342.6,58.4z"/>
</g>
</svg>
