<svg width="1584" height="1582" viewBox="0 0 1584 1582" fill="none" xmlns="http://www.w3.org/2000/svg">
<g clip-path="url(#clip0_4042_1130)">
<path d="M382.91 1401.78C378.384 1401.78 374.043 1400.01 370.843 1396.86C367.643 1393.71 365.845 1389.43 365.845 1384.98V1144.48C365.845 1140.02 367.643 1135.75 370.843 1132.6C374.043 1129.45 378.384 1127.68 382.91 1127.68H487.142C510.641 1127.68 533.181 1136.86 549.816 1153.19C566.452 1169.53 575.825 1191.7 575.879 1214.83C575.852 1237.64 566.626 1259.51 550.23 1275.62C533.834 1291.74 511.608 1300.79 488.439 1300.78H458.985C454.459 1300.78 450.119 1299.01 446.918 1295.86C443.718 1292.71 441.92 1288.44 441.92 1283.98C441.92 1279.52 443.718 1275.25 446.918 1272.1C450.119 1268.95 454.459 1267.18 458.985 1267.18H488.439C495.431 1267.19 502.356 1265.84 508.819 1263.22C515.282 1260.59 521.156 1256.74 526.107 1251.88C531.057 1247.02 534.986 1241.24 537.67 1234.89C540.354 1228.53 541.74 1221.72 541.749 1214.83C541.695 1200.61 535.918 1186.99 525.683 1176.95C515.448 1166.91 501.589 1161.28 487.142 1161.28H399.873V1384.98C399.873 1389.41 398.089 1393.67 394.911 1396.82C391.732 1399.97 387.418 1401.75 382.91 1401.78V1401.78Z" fill="#2FA6DD"/>
<path d="M768.012 1401.78C740.478 1401.78 713.562 1393.74 690.669 1378.68C667.775 1363.62 649.931 1342.22 639.394 1317.17C628.858 1292.13 626.101 1264.58 631.472 1237.99C636.844 1211.41 650.103 1186.99 669.572 1167.82C689.042 1148.65 713.848 1135.6 740.853 1130.31C767.858 1125.03 795.849 1127.74 821.287 1138.11C846.726 1148.48 868.468 1166.05 883.765 1188.59C899.062 1211.13 907.227 1237.62 907.227 1264.73C907.191 1301.06 892.512 1335.9 866.412 1361.6C840.312 1387.29 804.923 1401.74 768.012 1401.78ZM768.012 1161.28C747.228 1161.28 726.911 1167.35 709.63 1178.71C692.349 1190.08 678.88 1206.24 670.926 1225.14C662.972 1244.04 660.891 1264.84 664.946 1284.91C669.001 1304.98 679.009 1323.41 693.706 1337.88C708.402 1352.35 727.127 1362.2 747.511 1366.19C767.896 1370.18 789.024 1368.13 808.226 1360.3C827.428 1352.47 843.84 1339.21 855.387 1322.2C866.934 1305.19 873.097 1285.19 873.097 1264.73C873.061 1237.3 861.978 1211.01 842.279 1191.62C822.579 1172.22 795.871 1161.31 768.012 1161.28V1161.28Z" fill="#2FA6DD"/>
<path d="M1426.78 1401.78C1399.24 1401.78 1372.33 1393.74 1349.43 1378.68C1326.54 1363.62 1308.7 1342.22 1298.16 1317.17C1287.62 1292.13 1284.87 1264.58 1290.24 1237.99C1295.61 1211.41 1308.87 1186.99 1328.34 1167.82C1347.81 1148.65 1372.61 1135.6 1399.62 1130.31C1426.62 1125.03 1454.61 1127.74 1480.05 1138.11C1505.49 1148.48 1527.23 1166.05 1542.53 1188.59C1557.83 1211.13 1565.99 1237.62 1565.99 1264.73C1565.96 1301.06 1551.28 1335.9 1525.18 1361.6C1499.08 1387.29 1463.69 1401.74 1426.78 1401.78V1401.78ZM1426.78 1161.28C1405.99 1161.28 1385.68 1167.35 1368.4 1178.71C1351.11 1190.08 1337.65 1206.24 1329.69 1225.14C1321.74 1244.04 1319.66 1264.84 1323.71 1284.91C1327.77 1304.98 1337.77 1323.41 1352.47 1337.88C1367.17 1352.35 1385.89 1362.2 1406.28 1366.19C1426.66 1370.18 1447.79 1368.13 1466.99 1360.3C1486.19 1352.47 1502.61 1339.21 1514.15 1322.2C1525.7 1305.19 1531.86 1285.19 1531.86 1264.73C1531.83 1237.3 1520.74 1211.01 1501.04 1191.62C1481.34 1172.22 1454.64 1161.31 1426.78 1161.28V1161.28Z" fill="#2FA6DD"/>
<path d="M1198.2 1401.78C1195.7 1401.78 1193.22 1401.23 1190.96 1400.19C1188.7 1399.14 1186.69 1397.62 1185.09 1395.73L1013.73 1193.26V1384.78C1013.73 1389.23 1011.93 1393.5 1008.73 1396.65C1005.53 1399.8 1001.19 1401.57 996.661 1401.57C992.136 1401.57 987.795 1399.8 984.595 1396.65C981.395 1393.5 979.597 1389.23 979.597 1384.78V1146.97C979.598 1143.51 980.679 1140.15 982.693 1137.32C984.707 1134.5 987.556 1132.35 990.853 1131.18C994.149 1130 997.733 1129.86 1001.12 1130.76C1004.5 1131.66 1007.52 1133.56 1009.77 1136.21L1181.13 1338.58V1144.48C1181.13 1140.02 1182.93 1135.75 1186.13 1132.6C1189.33 1129.45 1193.67 1127.68 1198.2 1127.68C1202.72 1127.68 1207.06 1129.45 1210.26 1132.6C1213.46 1135.75 1215.26 1140.02 1215.26 1144.48V1384.98C1215.26 1389.43 1213.46 1393.71 1210.26 1396.86C1207.06 1400.01 1202.72 1401.78 1198.2 1401.78V1401.78Z" fill="#2FA6DD"/>
<path d="M303.44 1379.9L177.16 1135.51C175.731 1132.75 173.555 1130.43 170.871 1128.81C168.188 1127.19 165.102 1126.34 161.955 1126.34C158.808 1126.34 155.722 1127.19 153.039 1128.81C150.356 1130.43 148.179 1132.75 146.75 1135.51L20.4709 1379.9C18.4207 1383.88 18.0582 1388.49 19.4631 1392.73C20.868 1396.97 23.9251 1400.48 27.9622 1402.5C31.9993 1404.52 36.6856 1404.87 40.9899 1403.49C45.2943 1402.11 48.8641 1399.1 50.9143 1395.12C57.9911 1381.24 67.8369 1368.9 79.8636 1358.85C91.8903 1348.79 105.851 1341.22 120.914 1336.6C135.382 1332.13 150.431 1329.76 165.59 1329.54C171.294 1329.55 176.993 1329.9 182.655 1330.58C201.647 1333.11 219.724 1340.17 235.315 1351.14C250.905 1362.11 263.536 1376.67 272.108 1393.54L272.928 1395.12C273.901 1397.16 275.279 1398.98 276.981 1400.48C278.683 1401.98 280.673 1403.13 282.834 1403.86C284.995 1404.59 287.282 1404.88 289.561 1404.72C291.84 1404.57 294.063 1403.96 296.1 1402.94C298.136 1401.92 299.943 1400.51 301.415 1398.79C302.887 1397.07 303.994 1395.08 304.669 1392.93C305.344 1390.78 305.574 1388.52 305.345 1386.28C305.116 1384.05 304.433 1381.88 303.337 1379.9H303.44ZM165.488 1295.91C141.378 1296.09 117.51 1300.65 95.0782 1309.35L161.904 1180.06L227.399 1306.73C207.532 1299.7 186.597 1296.05 165.488 1295.94V1295.91Z" fill="#2FA6DD"/>
<path d="M768 536C786.79 536 805.157 530.516 820.779 520.242C836.402 509.968 848.578 495.366 855.768 478.281C862.959 461.196 864.84 442.396 861.175 424.259C857.509 406.122 848.461 389.462 835.175 376.386C821.889 363.309 804.962 354.404 786.533 350.797C768.105 347.189 749.005 349.041 731.646 356.117C714.287 363.194 699.449 375.178 689.01 390.554C678.572 405.93 673 424.007 673 442.5C673.015 467.293 683.029 491.067 700.842 508.598C718.654 526.129 742.81 535.985 768 536V536ZM811.494 389.554C816.101 389.554 820.604 390.899 824.434 393.418C828.265 395.937 831.25 399.517 833.013 403.706C834.776 407.895 835.238 412.504 834.339 416.951C833.44 421.398 831.222 425.483 827.964 428.689C824.707 431.895 820.556 434.078 816.038 434.963C811.52 435.847 806.837 435.393 802.581 433.658C798.325 431.923 794.686 428.985 792.127 425.215C789.568 421.445 788.202 417.013 788.202 412.479C788.202 406.399 790.656 400.568 795.024 396.269C799.392 391.969 805.317 389.554 811.494 389.554V389.554Z" fill="#2FA6DD"/>
<path d="M768.007 65C663.988 64.9965 563.428 101.774 484.639 168.636C405.851 235.498 354.076 327.995 338.742 429.283C323.409 530.572 345.537 633.913 401.098 720.487C456.658 807.062 541.955 871.11 641.454 900.969C645.642 902.226 650.166 901.794 654.03 899.767C657.894 897.741 660.782 894.286 662.059 890.163C663.336 886.04 662.897 881.586 660.839 877.782C658.781 873.978 655.272 871.134 651.084 869.877C579.953 848.6 516.225 808.284 467.012 753.427C417.798 698.57 385.033 631.33 372.374 559.209C359.714 487.088 367.657 412.923 395.317 344.987C422.976 277.051 469.265 218.018 529.017 174.472C588.77 130.927 659.637 104.583 733.711 98.3783C807.785 92.174 882.154 106.354 948.519 139.336C1014.88 172.318 1070.64 222.805 1109.56 285.164C1148.47 347.524 1169.03 419.302 1168.93 492.492C1168.6 577.606 1140.49 660.36 1088.74 728.545C1037 796.73 964.36 846.733 881.548 871.175C877.754 872.288 874.493 874.707 872.359 877.99C870.225 881.273 869.361 885.201 869.923 889.059C870.486 892.917 872.439 896.448 875.425 899.007C878.411 901.566 882.232 902.983 886.191 903C887.782 902.996 889.365 902.768 890.891 902.323C979.665 876.285 1057.74 823.152 1113.85 750.59C1171.31 676.467 1202.3 585.736 1202 492.492C1201.94 379.172 1156.2 270.506 1074.83 190.355C993.462 110.204 883.111 65.1196 768.007 65V65Z" fill="#2FA6DD"/>
<path d="M1004.24 532.205C1035.71 525.43 1078.43 532.205 1097.15 542.987C1100.62 544.969 1104.7 545.643 1108.64 544.885C1112.58 544.127 1116.1 541.988 1118.55 538.866C1121 535.745 1122.22 531.853 1121.97 527.917C1121.72 523.98 1120.02 520.268 1117.19 517.47L779.657 178.743C778.102 177.223 776.255 176.022 774.225 175.208C772.195 174.394 770.021 173.983 767.828 174.001C763.514 174.031 759.386 175.735 756.343 178.743L418.806 517.47C415.979 520.268 414.282 523.98 414.032 527.917C413.782 531.853 414.996 535.745 417.448 538.866C419.9 541.988 423.422 544.127 427.359 544.885C431.296 545.643 435.379 544.969 438.847 542.987C457.51 532.43 500.29 525.43 531.758 532.205C640.117 555.633 726.425 739.788 751.692 1001.4C752.109 1005.4 754.022 1009.11 757.061 1011.81C760.1 1014.51 764.049 1016 768.143 1016C772.238 1016 776.187 1014.51 779.226 1011.81C782.265 1009.11 784.178 1005.4 784.595 1001.4C809.574 739.619 895.882 555.464 1004.24 532.205ZM767.828 213.406L845.062 290.523C794.362 279.458 741.81 279.458 691.109 290.523L767.828 213.406ZM601.988 528.704C582.992 515.18 561.407 505.578 538.535 500.477C527.206 498.144 515.655 497.008 504.081 497.09C497.592 497.09 490.988 497.372 484.327 497.993L602.677 379.439C624.041 357.866 649.523 340.648 677.665 328.771C705.807 316.895 736.056 310.592 766.679 310.225H769.149C799.77 310.601 830.016 316.908 858.157 328.784C886.297 340.66 911.781 357.873 933.15 379.439L1051.44 497.993C1033.33 496.114 1015.03 496.952 997.178 500.477C974.413 505.635 952.933 515.234 934.012 528.704C914.373 541.565 892.915 551.514 870.329 558.23C803.992 579.682 732.41 579.682 666.073 558.23C643.338 551.493 621.743 541.487 601.988 528.535V528.704ZM767.828 879.795C744.169 751.869 706.499 648.332 661.422 587.812C730.689 609.341 805.024 609.341 874.291 587.812C829.213 648.388 791.544 751.7 767.828 879.626V879.795Z" fill="#2FA6DD"/>
</g>
<defs>
<clipPath id="clip0_4042_1130">
<rect width="1584" height="1582" rx="75" fill="white"/>
</clipPath>
</defs>
</svg>
