<?xml version="1.0" encoding="UTF-8"?>
<svg id="Layer_2" data-name="Layer 2" xmlns="http://www.w3.org/2000/svg" viewBox="0 0 831 338">
  <defs>
    <style>
      .cls-1 {
        fill: #79c842;
      }

      .cls-1, .cls-2, .cls-3 {
        stroke-width: 0px;
      }

      .cls-2 {
        fill: #3ea8f4;
      }

      .cls-3 {
        fill: #141416;
      }
    </style>
  </defs>
  <path class="cls-3" d="m242.06,123.64c-10.42,0-20.06,3.36-27.92,9.03-.65-4.89-4.83-8.67-9.9-8.67-5.52,0-10,4.48-10,10v132c0,5.52,4.48,10,10,10s10-4.48,10-10v-55.68c7.84,5.63,17.45,8.96,27.82,8.96,26.37,0,47.82-21.45,47.82-47.82s-21.45-47.82-47.82-47.82Zm0,75.64c-15.34,0-27.82-12.48-27.82-27.82s12.48-27.82,27.82-27.82,27.82,12.48,27.82,27.82-12.48,27.82-27.82,27.82Z"/>
  <path class="cls-3" d="m167.06,124c-5.52,0-10,4.48-10,10v1.7c-8.45-7.49-19.55-12.06-31.7-12.06-26.37,0-47.82,21.45-47.82,47.82s21.45,47.82,47.82,47.82c12.15,0,23.25-4.56,31.7-12.06v4.96c0,5.52,4.48,10,10,10s10-4.48,10-10v-78.19c0-5.52-4.48-10-10-10Zm-41.7,75.29c-15.34,0-27.82-12.48-27.82-27.82s12.48-27.82,27.82-27.82,27.82,12.48,27.82,27.82-12.48,27.82-27.82,27.82Z"/>
  <path class="cls-3" d="m349.85,123.64c-10.42,0-20.06,3.36-27.92,9.03-.65-4.89-4.83-8.67-9.9-8.67-5.52,0-10,4.48-10,10v132c0,5.52,4.48,10,10,10s10-4.48,10-10v-55.68c7.84,5.63,17.45,8.96,27.82,8.96,26.37,0,47.82-21.45,47.82-47.82s-21.45-47.82-47.82-47.82Zm0,75.64c-15.34,0-27.82-12.48-27.82-27.82s12.48-27.82,27.82-27.82,27.82,12.48,27.82,27.82-12.48,27.82-27.82,27.82Z"/>
  <path class="cls-3" d="m473.91,222.79c-36.33,0-65.89-29.56-65.89-65.89s29.56-65.89,65.89-65.89c14.04,0,27.45,4.37,38.78,12.63,4.46,3.25,5.44,9.51,2.19,13.97-3.25,4.46-9.51,5.44-13.97,2.19-7.89-5.75-17.22-8.79-27-8.79-25.3,0-45.89,20.59-45.89,45.89s20.59,45.89,45.89,45.89c9.77,0,19.11-3.04,27-8.79,4.46-3.25,10.72-2.28,13.97,2.19,3.25,4.46,2.27,10.72-2.19,13.97-11.33,8.26-24.74,12.63-38.78,12.63Z"/>
  <path class="cls-3" d="m555.6,223.03c-2.01,0-4-.02-6.02-.07-11.09-.27-19.78-9.16-19.78-20.25v-88.06c0-13.09,10.66-23.76,23.77-23.77h0c3.08,0,5.97.05,9.03.12,2.97.06,6.04.12,9.46.13,17.6.04,34.88,7.31,47.4,19.97,12.47,12.6,19.26,29.1,19.11,46.48-.3,36.03-29.85,65.33-65.89,65.33-3.18,0-6.17.03-9.06.07-2.74.03-5.39.06-8.03.06Zm-2.01-112.15c-2.09,0-3.79,1.69-3.79,3.77v88.06c0,.14.12.26.26.26,4.3.1,8.69.05,13.34,0,2.96-.03,6.03-.07,9.29-.07,25.09,0,45.68-20.41,45.89-45.5.1-12.01-4.63-23.46-13.33-32.24-8.8-8.9-20.92-14.01-33.23-14.04-3.6,0-6.77-.07-9.82-.13-2.95-.06-5.75-.11-8.6-.11h0Zm-.01-10h0,0Z"/>
  <g>
    <path class="cls-1" d="m727.58,162.84l-15.79,15.79c1.42,4.66.3,9.93-3.38,13.61l-34.07,34.07c-4.02,4.02-4.03,10.57-.04,14.61,1.95,1.97,4.56,3.07,7.34,3.07h.03c2.77,0,5.37-1.08,7.32-3.03l51.04-51.04c4.04-4.04,4.04-10.61,0-14.65l-12.44-12.44Z"/>
    <path class="cls-2" d="m682.04,194.79h.03c2.77,0,5.37-1.08,7.32-3.03l51.04-51.04c1.96-1.96,3.03-4.56,3.03-7.32s-1.08-5.37-3.03-7.32l-51.04-51.04c-1.96-1.96-4.56-3.03-7.32-3.03h-.03c-2.78,0-5.38,1.1-7.34,3.07-4,4.04-3.98,10.59.04,14.61l34.07,34.07c2.58,2.58,3.99,6,3.99,9.64s-1.42,7.07-3.99,9.64l-34.07,34.07c-4.02,4.02-4.03,10.57-.04,14.61,1.95,1.97,4.56,3.07,7.34,3.07Z"/>
    <path class="cls-1" d="m688.98,124.24c-1.96-1.96-4.56-3.03-7.32-3.03h-.03c-2.78,0-5.38,1.1-7.34,3.07-4,4.04-3.98,10.59.04,14.61l14.67,14.67,14.65-14.65-14.67-14.67Z"/>
  </g>
</svg>