<?xml version="1.0" encoding="utf-8"?>
<!-- Generator: Adobe Illustrator 21.1.0, SVG Export Plug-In . SVG Version: 6.00 Build 0)  -->
<svg version="1.1" id="Layer_1" xmlns="http://www.w3.org/2000/svg" xmlns:xlink="http://www.w3.org/1999/xlink" x="0px" y="0px"
	 viewBox="0 0 288 288" style="enable-background:new 0 0 288 288;" xml:space="preserve">
<style type="text/css">
	.st0{fill:#455DA6;}
</style>
<g>
	<path class="st0" d="M169.6,125.7c0-5.3,0-10.7,0-16c0-0.5-0.1-0.7-0.7-0.7c-1.8,0-3.5,0-5.3,0c-0.6,0-0.8,0.1-0.8,0.8
		c0,6.2,0,12.5,0,18.7c0,0.2,0,0.5,0,0.7c-0.2,0-0.3-0.2-0.4-0.3c-4.4-4.9-12.4-5.3-17.1-2.7c-3.7,2-6,5.2-7.4,9
		c-1.4,3.8-1.7,7.7-1.5,11.7c0.2,3.7,0.9,7.3,2.7,10.6c4.3,8.1,12.2,9.6,19.2,6.8c1.9-0.7,3.4-2,4.8-3.6c0.1,1.3,0.2,2.5,0.3,3.6
		c0,0.5,0.2,0.6,0.7,0.6c1.6,0,3.2,0,4.8,0c0.7,0,0.8-0.1,0.8-0.8C169.6,151.3,169.6,138.5,169.6,125.7z M162.9,145
		c0,2.8,0,5.7,0,8.5c0,0.2,0,0.5-0.1,0.7c-3.3,6.8-11.7,6.8-15.3,3.5c-1.9-1.7-3-3.8-3.6-6.3c-1.1-5-1-9.9,0.7-14.7
		c1.2-3.2,3.4-5.5,6.9-6.1c4.3-0.8,8.5,0.5,11.1,4.9c0.2,0.3,0.3,0.7,0.3,1C162.9,139.4,162.9,142.2,162.9,145z"/>
	<path class="st0" d="M84,127.7c-3.9-3.2-8.5-3.5-13.2-2.5c-2.8,0.6-5.1,2.2-7.1,4.5c-0.1-1.3-0.2-2.4-0.3-3.6
		c0-0.5-0.1-0.6-0.6-0.6c-1.6,0-3.2,0-4.8,0c-0.6,0-0.8,0.1-0.8,0.8c0,9.3,0,18.7,0,28c0,8.3,0,16.6,0,24.9c0,0.6,0.2,0.8,0.8,0.8
		c1.7,0,3.5,0,5.2,0c0.6,0,0.8-0.2,0.7-0.8c0-5.8,0-11.6,0-17.4c0-0.2-0.1-0.5,0.1-0.7c0.4,0.3,0.7,0.6,1,0.9
		c2.4,2.1,5.3,3.1,8.4,3.4c4.1,0.3,7.9-0.4,11-3.3c2.2-2,3.7-4.5,4.6-7.3c1.9-5.9,1.9-12,0.5-18C88.6,133.2,86.9,130,84,127.7z
		 M82.4,153c-1.2,3.4-3.5,5.9-7.2,6.6c-4.1,0.8-8.4-0.4-11-4.7c-0.2-0.3-0.3-0.7-0.3-1c0-2.9,0-5.9,0-8.8c0-2.9,0-5.8,0-8.7
		c0-0.4,0.1-0.8,0.3-1.2c3.6-6,11.5-5.9,15.1-2.6c2.1,1.9,3.2,4.3,3.7,7C84,144.1,83.9,148.7,82.4,153z"/>
	<path class="st0" d="M123.8,127.2c-2.8-2.1-6-2.7-9.4-2.5c-3.3,0.2-6.3,1.2-8.7,3.4c-0.5,0.5-1,1-1.6,1.6c-0.1-1.2-0.2-2.3-0.3-3.4
		c0-0.5-0.1-0.7-0.7-0.7c-1.6,0-3.1,0-4.7,0c-0.7,0-0.9,0.1-0.9,0.8c0,8.2,0,16.5,0,24.7c0,9.4,0,18.7,0,28.1c0,0.6,0.2,0.8,0.8,0.8
		c1.7,0,3.5,0,5.2,0c0.6,0,0.8-0.1,0.8-0.8c0-5.8,0-11.5,0-17.3c0-0.2,0-0.5,0-0.9c0.5,0.4,0.8,0.7,1.1,1c4,3.3,8.6,4,13.5,3
		c4.3-0.9,7.2-3.7,9.2-7.5c1.6-2.9,2.3-6.1,2.5-9.4c0.3-4.1,0.1-8.1-1-12.1C128.6,132.6,126.8,129.5,123.8,127.2z M122.8,153
		c-1.2,3.4-3.4,5.9-7.2,6.6c-4.1,0.8-8.4-0.4-11-4.6c-0.2-0.3-0.3-0.7-0.3-1.1c0-3,0-5.9,0-8.9c0-2.8,0-5.7,0-8.5
		c0-0.5,0.1-1,0.4-1.4c3.5-5.8,11.4-5.8,15.1-2.4c2,1.9,3.2,4.3,3.7,7C124.4,144.1,124.3,148.6,122.8,153z"/>
	<path class="st0" d="M41.4,137.7c-3.2-8.4-6.4-16.8-9.6-25.2c-0.2-0.4-0.3-0.6-0.9-0.6c-1.6,0-3.3,0-4.9,0c-0.5,0-0.7,0.2-0.9,0.6
		c-6.1,16.1-12.3,32.2-18.4,48.3c-0.5,1.3-1,2.6-1.5,4c2.3,0,4.4,0,6.6,0c0.5,0,0.7-0.1,0.8-0.6c1.5-4.3,3-8.5,4.5-12.7
		c0.1-0.4,0.3-0.6,0.8-0.6c7,0,14,0,20.9,0c0.5,0,0.7,0.2,0.8,0.6c1.5,4.3,3.1,8.5,4.6,12.8c0.1,0.2,0.1,0.5,0.5,0.5
		c2.3,0,4.5,0,6.8,0c0.1-0.3-0.1-0.4-0.1-0.6C48.1,155.4,44.7,146.5,41.4,137.7z M36.8,145.3c-5.6,0-11.2,0-16.7,0
		c-0.4,0-0.6,0-0.4-0.5c2.9-7.8,5.7-15.7,8.5-23.5c0.1-0.1,0-0.3,0.3-0.5c1.8,4.9,3.6,9.9,5.4,14.8c1.1,3,2.2,6.1,3.3,9.1
		C37.4,145.1,37.4,145.3,36.8,145.3z"/>
	<path class="st0" d="M284.2,139c0-2.2-0.2-4.4-0.9-6.5c-1.1-3.5-3.3-6-7-7.1c-2.9-0.9-5.9-0.9-8.9-0.1c-3,0.8-5.4,2.4-7.5,4.9
		c0-0.4,0-0.7,0-0.9c0-6.5,0-13,0-19.6c0-0.5-0.1-0.7-0.6-0.7c-1.8,0-3.7,0-5.5,0c-0.5,0-0.6,0.2-0.6,0.7c0,18.2,0,36.3,0,54.5
		c0,0.5,0.1,0.7,0.7,0.7c1.8,0,3.6,0,5.4,0c0.6,0,0.7-0.2,0.7-0.8c0-8.9,0-17.8,0-26.7c0-0.5,0.1-0.9,0.4-1.4
		c2.4-4.3,6.5-6.3,11.3-5.5c3,0.5,4.8,2.2,5.5,5.2c0.3,1.2,0.3,2.5,0.3,3.7c0,8.2,0,16.4,0,24.7c0,0.6,0.1,0.8,0.7,0.8
		c1.7-0.1,3.5-0.1,5.2,0c0.6,0,0.8-0.2,0.8-0.8C284.2,155.7,284.2,147.3,284.2,139z"/>
	<path class="st0" d="M208.2,155.4c0-5.8,0-11.5,0-17.3c0-0.9,0-1.8-0.1-2.7c-0.6-4.2-2.8-7.4-6.7-9.2c-4.1-1.9-8.4-2-12.7-1
		c-3.7,0.9-6.8,2.7-9,5.8c-1,1.4-1.6,3-1.8,4.7c0,0.3-0.1,0.6,0.4,0.6c2,0,3.9,0,5.9,0c0.2,0,0.4,0,0.4-0.3c0.2-2.2,1.5-3.5,3.3-4.5
		c2.4-1.3,4.9-1.5,7.5-1c3.3,0.6,5.3,2.6,5.8,6c0.2,1.3,0,2.6,0.1,3.9c0,0.5-0.2,0.6-0.6,0.6c-2.3,0-4.7,0-7,0
		c-3.6,0.1-7.1,0.7-10.4,2.3c-7.9,3.9-8.4,15-1.9,19.5c4.6,3.2,9.6,3.4,14.8,1.5c2-0.7,3.6-2,5.2-3.6c0.2,1.2,0.4,2.4,0.7,3.5
		c0.1,0.4,0.3,0.6,0.8,0.6c2,0,3.9,0,5.9,0c0.7,0,0.8-0.2,0.6-0.8C208.5,161.2,208.3,158.3,208.2,155.4z M201,154.8
		c-2.4,3.8-7.8,5.9-12.2,4.7c-4.4-1.2-6.4-6-4.1-9.8c0.9-1.4,2.2-2.3,3.8-2.8c2.6-0.9,5.3-1.1,8-1.1c1.4,0,2.9,0,4.3,0
		c0.4,0,0.6,0.1,0.6,0.6c0,1.2,0,2.4,0,3.6c0,1.1,0,2.1,0,3.2C201.5,153.8,201.3,154.3,201,154.8z"/>
	<path class="st0" d="M240.3,144.7c-2.6-1.3-5.4-2.1-8.2-2.8c-2.3-0.5-4.7-1.1-6.9-2.2c-1.4-0.7-2.2-1.9-2.3-3.6
		c-0.1-2.2,0.9-3.8,2.8-4.7c3.1-1.5,6.3-1.6,9.4-0.1c2.1,1,3.5,2.6,3.8,5c0.1,0.5,0.2,0.6,0.7,0.6c1.5,0,3.1,0,4.6,0
		c1.7,0,1.7,0,1.4-1.7c-0.6-4.1-3-6.9-6.5-8.7c-3.2-1.7-6.7-2-10.3-1.7c-2.8,0.2-5.4,1-7.7,2.6c-3.7,2.6-5.5,6.2-4.7,10.8
		c0.5,3,2.5,4.9,5,6.3c2.7,1.5,5.6,2.3,8.5,2.9c2.3,0.5,4.6,1,6.7,2.2c1.8,1,2.8,2.6,2.8,4.6c0,2-1.1,3.5-2.9,4.4
		c-2.8,1.4-5.8,1.5-8.8,0.8c-3.3-0.8-5.6-2.8-6-6.4c0-0.4-0.2-0.4-0.5-0.4c-1,0-1.9,0-2.9,0c-1,0-1.9,0-2.9,0
		c-0.4,0-0.6,0.1-0.5,0.5c0.1,0.6,0.1,1.2,0.2,1.8c0.9,3.9,3.3,6.7,6.8,8.5c3.5,1.8,7.2,2.2,11.1,2c3-0.2,5.8-1.1,8.4-2.7
		C247.4,158.9,248.4,148.6,240.3,144.7z"/>
</g>
</svg>
