<svg id="Layer_1" data-name="Layer 1" xmlns="http://www.w3.org/2000/svg" viewBox="0 0 1366 768"><defs><style>.cls-1{fill:#333132;}.cls-2{fill:#c2282d;}</style></defs><path class="cls-1" d="M464.64,529.75v1.84c0,6.84,1.43,9.59,5.82,11,4,1.33,11.54,1.94,23.79,1.94,26.65,0,31.45-2,31.45-13.37,0-5.72-1.74-8.27-6.33-9.6s-4.9-1.23-35.33-1.43c-12.36-.1-17.67-1-21.85-3.78s-5.72-6.53-5.72-13.27c0-10.21,3.68-16,11.74-18.38C474,483,483,482.16,497,482.16c15.72,0,23.79,1.13,28.49,4.09,5,3.06,6.53,6.64,6.84,16.13h-8c-.1-5.41-1-7.86-3.27-9.6-3.16-2.45-10.21-3.47-24-3.47-26.86,0-32.06,2.15-32.06,13.07,0,4.7,1.32,7.35,4.18,8.68,3.58,1.64,6.64,1.84,25.94,1.94,21.65.1,26.34.51,31.24,2.86,5.52,2.66,7.76,7.25,7.76,15.73,0,9.39-3.16,15-9.9,17.56-5,1.84-12.76,2.55-28.49,2.55-16.54,0-24.3-.71-29.81-2.55-6.13-2.15-9.5-7.35-9.5-14.71v-4.69Z"/><path class="cls-1" d="M653.53,489.72H618.91v-6.84h77.3v6.84H661.69V551h-8.16Z"/><path class="cls-1" d="M861.2,482.88v46.26c0,7.55-.2,9.59-1,12C857,549.76,850,551.7,821.07,551.7c-23.58,0-31.34-1.22-35.84-5.51-2.45-2.35-3.67-5.11-4.08-9.09a66.77,66.77,0,0,1-.21-8V482.88h8.17V527.7c0,6.34,0,6.95.41,8.58,1.63,7.15,5.92,8.27,31.55,8.27,21.65,0,27.16-.81,29.92-4.59,1.84-2.55,2-3.68,2-12.26V482.88Z"/><path class="cls-1" d="M945.94,482.88h53c15,0,22.57,2.76,26.65,9.9,3.07,5,4.49,13.07,4.49,24.1s-1.42,19.2-4.49,24.2c-4.08,7.15-11.64,9.91-26.65,9.91h-53Zm53.61,61.26c9.59,0,15.82-2.24,18.58-6.63,2.35-3.88,3.47-10.21,3.47-20.22q0-15.78-3.68-21.44c-2.75-4.19-8.57-6.13-19-6.13H954.11v54.42Z"/><path class="cls-1" d="M1114.81,482.88H1123V551h-8.17Z"/><path class="cls-1" d="M1289.92,488.39c4.39,4.6,5.41,9.91,5.41,28.49s-1,24-5.41,28.59c-5.21,5.41-10.42,6.23-38.4,6.23s-33.18-.82-38.39-6.23c-4.39-4.59-5.41-9.9-5.41-28.49s1-24.09,5.41-28.59c5.21-5.41,10.42-6.23,38.8-6.23C1279.4,482.16,1284.71,483.08,1289.92,488.39Zm-70.15,5.11c-2.86,3-3.58,7.86-3.58,23.48s.72,20.43,3.58,23.39c3.47,3.67,7.76,4.18,31.75,4.18s28.29-.61,31.76-4.18c2.86-3,3.57-7.87,3.57-23.39s-.71-20.52-3.57-23.48c-3.17-3.47-8.89-4.19-31.35-4.19C1228.45,489.31,1223,490,1219.77,493.5Z"/><path class="cls-2" d="M1136,324.28H1043a14.85,14.85,0,0,0-14.85,14.86V437.3A14.85,14.85,0,0,0,1043,452.15H1136a14.86,14.86,0,0,0,14.86-14.85V339.14A14.86,14.86,0,0,0,1136,324.28ZM1127,412a15.11,15.11,0,0,1-15.11,15.11h-43.76A15.11,15.11,0,0,1,1053.05,412V364.23a15.11,15.11,0,0,1,15.11-15.11h43.76A15.11,15.11,0,0,1,1127,364.23Z"/><path class="cls-2" d="M1281.34,323.42h-87.42c-13.84,0-20,5.06-20,17v3l-.05,99.87c0,5.61,1.9,8,6.22,8h15c3.18,0,4-2.28,4-4.67V362.43c0-5.7,2.81-14,16.82-14l44.39.05c5.39.8,12.48,4.68,12.48,16.86l-.88,80.93c0,3.06,1.9,5,5.8,5l14,0c4-.06,5.28-1.33,5.28-5.06V343.33C1297,330.05,1292.27,323.9,1281.34,323.42Z"/><path class="cls-2" d="M625.39,427.59c2.39,0,4.66.82,4.66,4v13.84c0,4.32-2.39,6.22-8,6.22l-76-.06c-11.94,0-17-6.16-17-20V328.51c0-3.73,1.29-5,5.28-5.06l14,0c3.9,0,5.79,2,5.79,5L554,409.58c0,14,8.31,18,14,18Z"/><path class="cls-2" d="M1000.1,428.09c2.39,0,4.67.82,4.67,4v13.84c0,4.32-2.4,6.22-8,6.22l-76,0c-11.94,0-17-6.17-17-20V329c0-3.73,1.29-5,5.28-5.05h14c3.89,0,5.79,2,5.79,5l-.07,81.08c0,14,8.3,18,14,18Z"/><path class="cls-2" d="M880.27,324.31l-76.21,0,0-102.27c0-3.06-1.9-5-5.79-5.05h-14c-4,.06-5.28,1.33-5.28,5.06V324.34l-108.1,0c-6.33,0-10.68,1.79-13.42,5.48-2.42,3.27-3.59,8-3.59,14.52v87.22c0,6.5,1.17,11.25,3.59,14.52,2.74,3.69,7.09,5.49,13.42,5.49l76,0c5.61,0,8-1.9,8-6.22V431.59c0-3.18-2.27-4-4.67-4H692.92c-5.61,0-13.72-3.93-14-17.44V365.81c.24-13.51,8.35-17.44,14-17.44H779v83.22c0,13.84,5.07,20,17,20l76,.06c5.61,0,8-1.91,8-6.22V431.59c0-3.18-2.28-4-4.67-4H818c-5.7,0-14-4-14-18l0-61.21H883.6c2.39,0,4.67-.82,4.67-4V330.53C888.27,326.22,885.88,324.31,880.27,324.31Z"/><path class="cls-2" d="M194.14,340.48c0-11.64-8.79-17-16.68-17H87.31c-10,0-17.21,6-17.21,17.84v96c0,8.36,5.2,14,18,14h52a6.88,6.88,0,0,0,7-7V432.56a4,4,0,0,0-4.37-4.17H101.11c-2.83,0-8-2-8-8v-60s0-12,10-12h54.57c7.08,0,13.45,3.5,13.45,12v84.77c0,2.89,1,6.25,5.24,6.25h11.76c6.13,0,6-3.36,6-6.25Z"/><path class="cls-2" d="M253.8,427.59c-2.39,0-4.66.82-4.66,4v13.84c0,4.32,2.39,6.22,8,6.22l76-.06c11.94,0,17-6.16,17-20V222.53c0-3.73-1.29-5-5-5h-14c-4.18,0-6.07,1.93-6.07,5l.07,187c0,14-8.31,18-14,18Z"/><path class="cls-2" d="M313.52,341.37c2.39,0,4.67-.82,4.67-4V323.53c0-4.32-2.39-6.22-8-6.22l-76,.05c-11.94,0-17,6.17-17,20V546.43c0,3.73,1.29,5,5,5h14c4.17,0,6.07-1.93,6.07-5l-.07-187c0-14,8.3-18,14-18Z"/><path class="cls-2" d="M409.92,427.59c-2.39,0-4.66.82-4.66,4v13.84c0,4.32,2.39,6.22,8,6.22l76-.06c11.94,0,17-6.16,17-20V222.53c0-3.73-1.29-5-5-5h-14c-4.18,0-6.07,1.93-6.07,5l.07,187c0,14-8.3,18-14,18Z"/><path class="cls-2" d="M469.64,341.37c2.4,0,4.67-.82,4.67-4V323.53c0-4.32-2.39-6.22-8-6.22l-76,.05c-11.94,0-17,6.17-17,20V546.43c0,3.73,1.3,5,5,5h14c4.18,0,6.07-1.93,6.07-5l-.07-187c0-14,8.3-18,14-18Z"/><path class="cls-2" d="M533,259.29H555.8a1.11,1.11,0,0,1,1.11,1.11v21.06a1.06,1.06,0,0,1-1.06,1.06H533a1.11,1.11,0,0,1-1.11-1.11v-21A1.11,1.11,0,0,1,533,259.29Z"/><path class="cls-2" d="M906.11,259.35H931.9a1.11,1.11,0,0,1,1.11,1.11V284.3a1.06,1.06,0,0,1-1.06,1.06H906.11a1.11,1.11,0,0,1-1.11-1.11V260.45a1.11,1.11,0,0,1,1.11-1.11Z"/></svg>