<svg xmlns="http://www.w3.org/2000/svg" role="img" viewBox="96.03 -0.22 207.93 245.18"><title>Apple (member) logo</title><style>svg {enable-background:new 0 0 336 235.2}</style><path id="ee-background" fill="#fff" fill-opacity="0" d="M0 0h400v245H0z" pointer-events="none"/><defs><style id="ee-google-fonts">@import url(https://fonts.googleapis.com/css?family=Audiowide:400);</style></defs><path d="M295.227 188.447c-3.565 8.237-7.785 15.819-12.675 22.79-6.665 9.503-12.123 16.08-16.329 19.734-6.52 5.996-13.505 9.066-20.985 9.24-5.37 0-11.846-1.527-19.385-4.627-7.563-3.085-14.513-4.613-20.869-4.613-6.665 0-13.813 1.528-21.46 4.613-7.657 3.1-13.826 4.715-18.543 4.875-7.173.306-14.323-2.852-21.46-9.488-4.555-3.973-10.252-10.784-17.078-20.433-7.323-10.303-13.343-22.251-18.06-35.873-5.051-14.713-7.584-28.96-7.584-42.754 0-15.8 3.415-29.427 10.253-40.847 5.374-9.173 12.524-16.409 21.473-21.72s18.618-8.02 29.03-8.192c5.698 0 13.17 1.762 22.454 5.226 9.259 3.475 15.204 5.237 17.81 5.237 1.949 0 8.553-2.06 19.748-6.169 10.588-3.81 19.523-5.387 26.843-4.766 19.836 1.601 34.738 9.42 44.65 23.508-17.741 10.749-26.517 25.804-26.342 45.117.16 15.043 5.618 27.562 16.343 37.502 4.86 4.613 10.29 8.178 16.329 10.71a176.47 176.47 0 0 1-4.163 10.93zM249.735 9.43c0 11.791-4.308 22.8-12.894 32.99-10.362 12.114-22.895 19.114-36.486 18.01a36.706 36.706 0 0 1-.274-4.468c0-11.32 4.928-23.433 13.679-33.338 4.369-5.015 9.925-9.184 16.663-12.511 6.723-3.277 13.083-5.09 19.064-5.4a42.75 42.75 0 0 1 .248 4.716z"/>

 <rect x="0" y="-100" width="3" height="3" fill="black" fill-opacity="0.1" />
 <rect x="407" y="-100" width="3" height="3" fill="black" fill-opacity="0.1" />
 <rect x="0" y="340" width="3" height="3" fill="black" fill-opacity="0.1" />
 <rect x="407" y="340" width="3" height="3" fill="black" fill-opacity="0.1" />

</svg>
