<?xml version="1.0" encoding="utf-8"?>
<!-- Generator: Adobe Illustrator 21.1.0, SVG Export Plug-In . SVG Version: 6.00 Build 0)  -->
<svg version="1.1"
	 id="svg3355" xmlns:cc="http://creativecommons.org/ns#" xmlns:dc="http://purl.org/dc/elements/1.1/" xmlns:rdf="http://www.w3.org/1999/02/22-rdf-syntax-ns#" xmlns:svg="http://www.w3.org/2000/svg"
	 xmlns="http://www.w3.org/2000/svg" xmlns:xlink="http://www.w3.org/1999/xlink" x="0px" y="0px" viewBox="0 0 557.5 153.8"
	 style="enable-background:new 0 0 557.5 153.8;" xml:space="preserve">
<style type="text/css">
	.st0{clip-path:url(#SVGID_2_);}
	.st1{fill:#00B6F9;}
</style>
<g id="g3363" transform="matrix(1.25,0,0,-1.25,0,376.875)">
	<g id="g3367">
		<g>
			<defs>
				<rect id="SVGID_1_" x="-55.8" y="-37.7" width="557.5" height="376.9"/>
			</defs>
			<clipPath id="SVGID_2_">
				<use xlink:href="#SVGID_1_"  style="overflow:visible;"/>
			</clipPath>
			<g id="g3369" class="st0">
				<g id="g3375" transform="translate(169.985,241.6664)">
					<path id="path3377" class="st1" d="M0,0c-3.9-1.8-6.8-4.3-8.3-8.3c-1.1-2.8-0.7-5.5-0.8-8.3c-0.1-4.5,1.8-8.1,5.3-10.8
						c3.1-2.4,6.5-3.6,10.6-2.7c8.6,2,11.9,11.2,10.5,17.8c-1,5-2.9,9.5-8.1,11.7C6.1,0.7,3,0,0,0 M-19.3-63.2c0,1.8,0,4.1,0,5.9
						c0,11.7,0,23.3,0,35c0,2.2,0,30.1,0,30.1l10,0c0,0,0-2.8,0-4C-9,3.8-8.2,4.9-8,5c1,0.6,1.9,1.4,2.9,2c12,7.4,24.4,2.4,30.3-7.3
						c5.6-9.2,5.7-24-3-33.4c-3.1-3.3-6.9-5.5-11.6-6.3c-7.4-1.3-14,0.9-19.9,5.8v-29C-9.3-63.2-19.3-63.2-19.3-63.2z M98.1,2.1
						C89-8.5,89.9-21.3,97-30.9c7.8-10.6,24.8-12.1,33.6-5.9c0,4.2,0,7.9,0,12.7c-3.6-3.7-7.7-5.8-12.4-6.2c-5-0.4-9,1.8-12.1,5.7
						c-6,7.7-3,17.1,2.1,21.6c4.8,4.3,14.8,5.5,22.4-3.6c0,4.6,0,9.1,0,13.5C118.7,14.1,104.7,9.7,98.1,2.1 M253.7-9.1
						c-1.7,6.4-4.9,9.3-10.8,9.3c-5.8,0-9.9-3.3-11.5-9.3C238.5-9.1,246.3-9.1,253.7-9.1 M264.5-17.1c-3.7,0-30.2,0-34,0
						c0.8-4.1,2.5-8.5,5.8-10.9c5.4-3.9,11.4-2.4,15,1c1.8,1.7,3.2,2.9,5.1,5c2.9-1.6,5.7-2.8,8.9-4.5c-4.3-7.4-9.2-12.6-18.2-13.4
						c-2.8-0.2-5.5-0.3-8.3,0c-9.3,1.1-15.2,6.4-18.2,14.9c-2.4,6.9-2.2,13.9,0.2,21c3.9,11.5,15.6,16,25.5,14.4
						c12.2-2,17.8-11.4,18.3-20C264.9-12.1,265.2-16.1,264.5-17.1 M149.8-14.9c0-3.5,1-6.3,2.5-8.9c4.3-7.5,14.4-9.2,21.1-2.1
						c6,6.3,4.6,17.7-1.1,23c-5.6,5.2-17,4.5-21-5.1C150.3-10.3,150.2-12.8,149.8-14.9 M176.5,3.2c0,1.5,0,4.7,0,4.7l11,0v-47h-11
						c0,0,0,4.2,0,5c-0.5,0.3-1.6-1-2-1.3c-13.6-10.9-32-2.6-35.3,14.2c-1.2,5.9-1,11.5,1.1,17.1c3.7,9.4,11.8,14.9,21.6,14.7
						C167.1,10.3,172.5,6.9,176.5,3.2 M42.1-33.5c3-3.4,6.9-5.8,11.6-6.3c3.7-0.4,7.5-0.9,11.3-0.1c9.2,2,16.8,8.8,18.6,17.9
						c0.5,2.6,0.4,8.2,0.2,10.2c-0.4,3.1-1.6,6.2-4.3,9.7c-2.5,3.4-6.3,5.3-10,7c-2.8,1.2-5.6,2.4-8.5,3.6c-3.5,1.4-6.8,3.1-9.2,6.2
						c-0.6,0.9-1.3,1.8-1.3,2.9v2.9c0,0.6,0.5,1.1,0.8,1.6c2,3.7,5.3,5.5,9.5,5.9c5.7,0.5,9.1-3,12.1-7.5c1.6,0.9,3.1,1.6,4.5,2.5
						c1.5,0.9,3,2,4.4,2.9c-4.1,9.3-12.9,13.8-24.5,12.5C53,38,49.3,36.2,46,33.5c-4.8-4-7.6-9.2-7.3-15.6c0.2-4.5,2.1-8.9,5.8-12.5
						c3.4-3.4,7.6-5.3,11.9-7.1c3.1-1.3,6.2-2.5,9-4.2c5.9-3.6,8.2-7.7,6.7-14.6c-1.2-5.3-6.6-10.1-12.3-10.1
						c-5.2,0-10.5,4.8-11.8,10c-0.5,1.8-0.6,2.5-1.4,4.3c-3.3-0.8-7.4-1-10.9-1.9C36.1-24.1,38.4-29.2,42.1-33.5 M-121.9,15.8
						c-4.5-8.6-8-16.6-11.8-25.2c8,0,15.3,0,22.9,0C-114.5-1.1-118,6.8-121.9,15.8 M-85.1-39.2h-12.8c-1.5,2.5-3,6.7-4.4,9.7
						c-1.4,3-2.6,6.1-3.8,9.3c-4,0-21.9,0-31.9,0c-2.2-4.3-2.9-6.1-4.5-9.1c-1.6-3-3.4-6.7-4.9-9.9c-4.5,0-7.3,0-12,0
						c11.6,26.9,25.3,53.7,37.4,81.1c7.2-13.6,12.4-27.2,18.4-40.3C-97.5-11.6-91.4-25.4-85.1-39.2 M198.6,59.8c-0.1-0.3,0-99,0-99
						h11c0,0,0,93.8,0,99H198.6z M-58.2,0c-3.9-1.8-6.8-4.3-8.3-8.3c-1.1-2.8-0.7-5.5-0.8-8.3c-0.1-4.5,1.8-8.1,5.3-10.8
						c3.1-2.4,6.5-3.6,10.7-2.7c8.6,2,11.9,11.2,10.5,17.8c-1,5-2.9,9.5-8.1,11.7C-52.1,0.7-55.2,0-58.2,0 M-77.4-63.2
						c0,1.8,0,4.1,0,5.9c0,11.7,0,23.3,0,35c0,2.2,0,30.1,0,30.1l10,0c0,0,0-2.8,0-4c0.3,0,1.1,1.1,1.3,1.2c1,0.6,1.9,1.4,2.9,2
						c12,7.4,24.3,2.4,30.3-7.3c5.6-9.2,5.7-24-3-33.4C-39-37-42.9-39.1-47.5-40c-7.4-1.3-14,0.9-19.9,5.8v-29H-77.4z"/>
				</g>
			</g>
		</g>
	</g>
</g>
</svg>
