<svg xmlns="http://www.w3.org/2000/svg" viewBox="0 0 433 204" xmlns:xlink="http://www.w3.org/1999/xlink"><defs><path id="b" d="M399.45 1.25h-388C5.1 1.25 0 6.38 0 12.7l2.52 128.5c0 6.32 5.12 11.45 11.44 11.45h290.87v31.6l23.94-31.6h70.68c6.3 0 11.44-5.13 11.44-11.45V12.7c0-6.32-5.2-11.45-11.5-11.45"/><filter id="a" width="200%" height="200%" x="-50%" y="-50%" filterUnits="objectBoundingBox"><feOffset dy="4" in="SourceAlpha" result="shadowOffsetOuter1"/><feGaussianBlur stdDeviation="5.5" in="shadowOffsetOuter1" result="shadowBlurOuter1"/><feColorMatrix values="0 0 0 0 0 0 0 0 0 0.184313725 0 0 0 0 0.278431373 0 0 0 0.6 0" in="shadowBlurOuter1"/></filter></defs><g fill="none" fill-rule="evenodd"><g transform="translate(11 6.502)"><use fill="#000" filter="url(#a)" xlink:href="#b"/><use fill="#FFD301" xlink:href="#b"/></g><path fill="#002F47" d="M59.2 80.2l11.96-29.27L83.1 80.2H59.2zm6.5-46.9l-29.97 71.85h13.6l5.86-14.33h31.9l5.9 14.33h13.5L76.6 33.3H65.7zm74.98 35.05h-13.9v-23.4h13.9c5.15 0 11.22 3.62 11.22 11.76 0 8-6.07 11.7-11.22 11.7m.6-35H113.9v71.9h12.87V80h14.52c11.9 0 23.3-9.58 23.3-23.3 0-14.52-12-23.4-23.4-23.4m44.4 11.66h13.9c5.1 0 11.2 3.6 11.2 11.75 0 8-6.1 11.7-11.2 11.7h-13.9V45zm0 35.04h14.5c11.9 0 23.3-9.58 23.3-23.3 0-14.52-12-23.4-23.4-23.4h-27.4v71.85h12.9V80zm103.6-46.7h-12.8v43c0 12.77-6.5 18.34-16.2 18.34-9.8 0-16.3-5.57-16.3-18.35v-43h-12.8v44.3c0 19.1 12.8 28.6 29.1 28.6 16.1 0 29-9.5 29-28.7V33.3zm11.4 71.85H313V53.2h-12.3m6.18-20.7c-4 0-7.4 3.18-7.4 7.3 0 4.13 3.4 7.32 7.4 7.32 3.9 0 7.3-3.2 7.3-7.32s-3.4-7.3-7.3-7.3m52.77 11.22c14.3 0 25.23 11.34 25.23 25.67 0 14.4-10.9 25.5-25.2 25.5-14.3 0-25.24-11.1-25.24-25.6 0-14.5 10.9-25.7 25.23-25.7m0 62.8c21.1 0 38-16.1 38-37.2 0-21.2-16.9-37.3-38-37.3-21 0-37.9 16.2-37.9 37.3 0 21.1 16.9 37.2 37.9 37.2m-322.84 23c.78 1.5 2.23 2.6 4.3 2.6 2.38 0 2.9-1.4 2.9-2.2 0-1.6-1.4-2.2-3.5-3-2.74-1.1-4.9-2.2-4.9-5.2 0-2.8 2.4-4.6 5.3-4.6 2.6 0 4.27 1.2 5.28 2.7l-2.2 1.5c-.6-1-1.5-1.5-3-1.5-1.3 0-2.3.7-2.3 1.8 0 1.53 1.4 1.8 3.9 2.83 3.1 1.27 4.6 2.6 4.6 5.2 0 2.9-1.9 5.1-6 5.1-3.2 0-5.5-1.55-6.5-3.9l2.3-1.46zm11.47-12h3l3.47 11.5 3.54-11.5h2.3l3.6 11.5 3.5-11.5h3l-5.1 17.1h-2.5L59.5 123l-3.6 11.5h-2.4m19.7 0h3.08v-17.1h-3.1m8.1 12.06c.8 1.55 2.2 2.6 4.3 2.6 2.4 0 2.9-1.4 2.9-2.23 0-1.56-1.4-2.15-3.5-2.94-2.76-1.1-4.9-2.2-4.9-5.2 0-2.8 2.4-4.6 5.3-4.6 2.6 0 4.26 1.2 5.3 2.7l-2.2 1.5c-.6-1-1.6-1.6-3.05-1.6-1.4 0-2.36.72-2.36 1.8 0 1.6 1.4 1.84 3.9 2.9 3.1 1.23 4.55 2.6 4.55 5.2 0 2.9-2 5.05-6 5.05-3.27 0-5.53-1.5-6.6-3.9l2.3-1.43zm14.5 0c.8 1.55 2.2 2.6 4.3 2.6 2.4 0 2.9-1.4 2.9-2.23 0-1.56-1.4-2.15-3.5-2.94-2.77-1.1-4.9-2.2-4.9-5.2 0-2.8 2.4-4.6 5.3-4.6 2.6 0 4.25 1.2 5.3 2.7l-2.2 1.5c-.6-1-1.6-1.6-3.07-1.6-1.3 0-2.3.72-2.3 1.8 0 1.6 1.4 1.84 3.9 2.9 3.1 1.23 4.6 2.6 4.6 5.2 0 2.9-2 5.05-6 5.05-3.3 0-5.5-1.5-6.6-3.9l2.3-1.43zm31.8-12.36c2.7 0 5.1 1.18 6.8 3.07l-2.1 1.8c-1.16-1.3-2.8-2.1-4.7-2.1-3.4 0-6 2.6-6 6.1 0 3.5 2.6 6.1 6 6.1 1.9 0 3.6-.8 4.73-2.16l2.1 1.8c-1.6 2-4 3.1-6.8 3.1-5 0-9.1-3.7-9.1-8.8 0-5.1 4.1-8.8 9.1-8.8m17.3 15c3.4 0 6-2.6 6-6.1 0-3.4-2.6-6.1-6-6.1s-6 2.7-6 6.1 2.6 6.1 6.07 6.1m0-15c5 0 9.05 3.8 9.05 8.9 0 5-4.03 8.8-9.06 8.8-5 0-9-3.8-9-8.8 0-5.06 4-8.9 9-8.9m12.25.3h2.7l9.1 11.9v-11.9h2.96v17.1h-2.5L160 122.3v12.1h-3v-17.1m21.83 2.78h-4.64v-2.77h12.3v2.8h-4.7v14.4h-3.1v-14.3m18.4 8.5l-2.9-7-2.9 7h5.7zm-4.2-11.2h2.6l7.1 17.2h-3.3l-1.4-3.4h-7.6l-1.4 3.4h-3.3l7.14-17.14zm12.2 17.2h3v-17.1h-3.07m7.26 0h2.7l9.1 11.9v-11.9h2.97v17.1h-2.5l-9.25-12.1v12.1h-3v-17.1m18.9 0h10.9v2.7h-7.84v4.1h7.4v2.8h-7.35v4.7h8v2.8h-11.1m20.9-8.9c1.66 0 2.8-1.2 2.8-2.8 0-1.6-1.1-2.7-2.57-2.7H249v5.5h3.26zm-6.35-8.3h6.67c3.02 0 5.53 2.3 5.53 5.4 0 2.2-1.3 4.1-3.1 4.8l4.14 6.84H256l-3.66-6.1h-3.04v6.1h-3.07v-17.1zm32.6 8.3c1.2 0 2.7-.9 2.7-2.8 0-1.95-1.44-2.8-2.7-2.8H275v5.6h3.3zm-6.4-8.4h6.58c2.73 0 5.6 2.1 5.6 5.6 0 3.26-2.74 5.55-5.6 5.55h-3.5v6H272v-17.1zm14.8 0h3.1v14.38h6.8v2.8H287m23.1-5.95l-2.8-7-2.83 7h5.7zm-4.1-11.2h2.6l7.17 17.16h-3.25l-1.4-3.4h-7.6l-1.4 3.4H299l7.15-17.16zm13.87 2.8h-4.66v-2.8h12.4v2.8H323v14.37h-3v-14.3m10.14-2.78h10.36v2.73h-7.3v4.3h6.66v2.8h-6.65v7.3h-3m21.4-2.4c3.4 0 6-2.6 6-6.1 0-3.4-2.6-6.1-6-6.1s-6 2.7-6 6.1 2.6 6.1 6.1 6.1m0-15c5 0 9.1 3.9 9.1 8.9s-4 8.9-9 8.9-9.03-3.83-9.03-8.87c0-5.04 4-8.9 9-8.9m18.57 8.6c1.7 0 2.8-1.16 2.8-2.8 0-1.6-1.1-2.7-2.6-2.7H367v5.5h3.3zm-6.32-8.3h6.7c3 0 5.5 2.34 5.5 5.43 0 2.24-1.3 4.1-3.13 4.84l4.17 6.85h-3.5l-3.7-6.1h-3v6.1h-3.1v-17.1zm15.9 0h2.7l6.14 9.6 6.1-9.6h2.64v17.1h-2.9V123l-5.83 9.05-5.84-9.02v11.57H380"/></g></svg>