<?xml version="1.0" encoding="utf-8"?>
<!-- Generator: Adobe Illustrator 21.1.0, SVG Export Plug-In . SVG Version: 6.00 Build 0)  -->
<svg version="1.1" id="Layer_1" xmlns="http://www.w3.org/2000/svg" xmlns:xlink="http://www.w3.org/1999/xlink" x="0px" y="0px"
	 viewBox="0 0 720 404.2" style="enable-background:new 0 0 720 404.2;" xml:space="preserve">
<style type="text/css">
	.st0{fill:none;}
	.st1{fill:#FFFFFF;}
	.st2{fill:#1CB3DE;}
</style>
<g>
	<path class="st0" d="M258.1,297.6c-16.3,0.2-29.3,13.4-29,29.5c0.3,18,12.6,30.5,29.9,30.4c16.2-0.1,29.3-13.6,29.2-30.1
		C288.1,310.5,274.9,297.4,258.1,297.6z"/>
	<path class="st0" d="M359.5,162.6c-15.3,0.1-27.7-9.4-31.9-23l-8.8,22.1c1.7,2.1,3.6,4.2,5.8,6.1c12.2,11.1,26.9,14.3,42.1,12.2
		c-11.7,12.7-23.6,25.6-35.5,38.4c6.5,2.5,13.7,3.8,21.1,4.4c3.2,0.3,5.1-0.8,6.9-3.4c10.5-15.3,21.2-30.4,31.7-45.7L373,159.4
		C368.8,161.4,364.2,162.5,359.5,162.6z"/>
	<path class="st0" d="M44.3,321.4c11.8,0,22.7,0,34.3,0c-5.7-12.1-11.2-23.7-17.2-36.5C55.4,297.8,49.9,309.5,44.3,321.4z"/>
	<path class="st0" d="M317.8,96.9c-12.1,9.4-24.2,18.8-36.3,28.2c-17.9,13.9-17.9,13.9-10.3,35.8c0.1,0.4,0.6,0.6,1.6,1.4
		c10.5-11.5,21.1-23,32.8-35.7L317.8,96.9z"/>
	<path class="st0" d="M449.1,297.3c-11.6,0-22.4,7.7-26.3,18.5c-1.3,3.7,0,4.3,3.3,4.2c7.9-0.2,15.7-0.1,23.6-0.1s15.7-0.2,23.6,0.1
		c4.3,0.1,4.5-1.4,3.1-4.9C472.1,304.3,461.6,297.3,449.1,297.3z"/>
	<path class="st0" d="M360.5,95.4c18.3-0.1,33.3,15,33.1,33.3c-0.1,5.1-1.4,10-3.7,14.4l14,11c1.9-3.1,3.5-6.4,4.7-9.6l-25.3-62.5
		c-9.6-4.5-20.5-5.9-31.2-3.9l-8.9,22.3C348.4,97.2,354.3,95.4,360.5,95.4z"/>
	<path class="st0" d="M163.1,297.6c-16.1-0.4-29.7,12.6-30.1,28.6c-0.4,17.7,11.9,30.9,29,31.3c16.3,0.4,29.7-12.6,30.1-29.2
		C192.6,311.4,179.9,298,163.1,297.6z"/>
	<path class="st0" d="M616.8,297.8c-15.7,0-29,13.2-29.1,28.9c-0.1,17.9,12.2,30.8,29.4,30.7c16.8-0.1,29.2-12.9,29.1-30.4
		C646.2,311.1,632.7,297.8,616.8,297.8z"/>
	<path class="st1" d="M361.1,23.1c8.8,0.2,17.2,1.4,25.3,3.5l-7.7-18.4c-2.2-5.3-6.6-8.1-11.9-8.1c-5.3,0-10,2.8-12.2,8.1l-6.4,15.5
		C352.5,23.2,356.7,23,361.1,23.1z"/>
	<path class="st1" d="M431.7,206.8l0.2,0.2c4,3.2,6.9,4.7,10.6,4.7c7.5,0,14-5.6,14-13.7c0-1.3-0.5-3.4-1.3-5.7l-4.1-9.8
		C445.9,191.6,439.3,199.8,431.7,206.8z"/>
	<path class="st1" d="M276.9,195.2l-6.2,14.9h20.8C286.2,205.6,281.3,200.7,276.9,195.2z"/>
	<path class="st1" d="M308,123.8c-0.8,15.3,2.6,27.7,10.7,37.9l8.8-22.1c-0.9-3.1-1.5-6.4-1.5-9.9c0-12.3,7-23.4,17.2-29.5l8.9-22.3
		c-8.3,1.5-16.3,5-23.4,10.4c-3.7,2.8-7.3,5.7-11,8.5l-12.4,29.7C306.3,125.7,307.2,124.7,308,123.8z"/>
	<path class="st1" d="M394.6,89.4c-3.4-3.1-7.2-5.5-11.2-7.5l25.3,62.5C415.9,125,410.6,103.7,394.6,89.4z"/>
	<path class="st1" d="M373,159.4l17.8,14.4c4.1-6,8.2-12.1,12.2-18.2c0.3-0.5,0.6-1,1-1.5l-14-11C386.4,150.1,380.3,156,373,159.4z"
		/>
	<path class="st2" d="M229.7,302.3c0-3.1-0.2-5.8,0.1-8.5c0.4-3.9-1.8-4-4.7-3.9c-2.5,0.1-5-0.7-5,3.6c0.1,31.7,0.1,63.4,0,95.2
		c0,2.6,0.8,3.2,3.3,3.4c4.7,0.4,6.6-0.7,6.4-5.9c-0.4-10.9-0.1-21.8-0.1-33.4c21.2,21,44.6,14.7,56.2,3.2
		c16.2-16.1,16.3-39.8,0.7-56.2C271.4,283.9,249.9,284.7,229.7,302.3z M259,357.5c-17.3,0.1-29.6-12.4-29.9-30.4
		c-0.2-16.1,12.8-29.3,29-29.5c16.8-0.2,30,12.9,30.1,29.8C288.2,343.9,275.2,357.4,259,357.5z"/>
	<path class="st2" d="M133.8,302.3c0-3.2-0.2-5.9,0.1-8.5c0.4-3.9-1.8-4.1-4.6-3.9c-2.5,0.1-5-0.7-5,3.6c0.1,31.7,0.1,63.4,0,95.1
		c0,2.5,0.7,3.3,3.3,3.5c4.5,0.3,6.7-0.5,6.4-5.9c-0.5-10.9-0.1-21.8-0.1-33.3c19.9,17.1,42.2,17.9,56.6,2.7
		c15.8-16.7,15.7-40-0.1-56.2C175.2,283.8,153.4,284.8,133.8,302.3z M192.1,328.4c-0.4,16.6-13.8,29.6-30.1,29.2
		c-17.2-0.4-29.4-13.6-29-31.3c0.4-16,14-29,30.1-28.6C179.9,298,192.6,311.4,192.1,328.4z"/>
	<path class="st2" d="M64.3,267c-0.6-1.3-0.8-3.3-2.9-3.2c-1.7,0.1-1.9,1.8-2.4,3c-4.5,9.4-8.9,18.8-13.4,28.2
		c-10.8,22.9-21.6,45.8-32.6,69.2c10.8,0.9,10.8,0.9,14.9-7.8c3.2-6.8,6.5-13.4,9.4-20.3c1.5-3.5,3.3-5,7.4-4.9
		c11,0.4,22.1,0.3,33.1,0c4.2-0.1,6.2,1.3,7.9,5.1c3.7,8.7,8,17.1,12.1,25.6c1.1,2.2,8.3,3.9,10.4,2.5c2.2-1.4,0.2-2.8-0.3-4
		C93.3,329.3,78.8,298.1,64.3,267z M44.3,321.4c5.6-11.9,11.1-23.6,17.2-36.5c6,12.8,11.5,24.4,17.2,36.5
		C67,321.4,56.1,321.4,44.3,321.4z"/>
	<path class="st2" d="M457.7,288.7c-18.7-3.4-34.7,4.8-42.9,21.8c-8.9,18.4-1.7,41.9,15.9,51.3c15.1,8,40.6,6.9,52.6-13.2
		c1-1.7,4-3.8,0.1-5.6c-2.7-1.3-5.5-4.6-8.1,0.5c-1.2,2.4-3.3,4.5-5.3,6.3c-8.9,7.7-19.3,9.8-30.4,6.1
		c-10.7-3.5-16.1-11.9-18.5-22.7c-1-4.3,0.5-5.5,4.7-5.3c9.7,0.3,19.3,0.1,29,0.1c9.7,0,19.3-0.2,29,0.1c4.2,0.1,4.9-1.4,4.4-5.2
		C486.2,305.8,473.6,291.6,457.7,288.7z M473.3,320c-7.9-0.2-15.7-0.1-23.6-0.1s-15.7-0.1-23.6,0.1c-3.4,0.1-4.7-0.6-3.3-4.2
		c4-10.8,14.7-18.5,26.3-18.5c12.5,0,23,7,27.3,17.9C477.7,318.6,477.5,320.1,473.3,320z"/>
	<path class="st2" d="M617.4,288.3c-22.7,0.2-39.8,17.3-39.6,39.6c0.1,21.4,17.8,38.9,39.3,38.7c22.1-0.1,39.1-17.7,38.9-40.3
		C655.7,305.3,638.3,288.1,617.4,288.3z M617.1,357.4c-17.1,0.1-29.5-12.9-29.4-30.7c0.1-15.6,13.4-28.8,29.1-28.9
		c15.9,0,29.4,13.3,29.4,29.2C646.2,344.5,633.9,357.4,617.1,357.4z"/>
	<path class="st2" d="M384.8,272.1c-8.5,19.4-16.9,38.9-25.4,58.3c-1.5,3.4-3.1,6.8-5,11c-1.2-2.5-2-4-2.7-5.6
		c-9.1-21.1-18.1-42.2-27.2-63.3c-4-9.2-3.9-9.2-14.6-8.5c13.9,32.4,27.5,64.1,41.2,95.8c0.7,1.7,0.7,4.4,3.1,4.5
		c2.5,0.1,2.5-2.7,3.2-4.4c13.4-30.6,26.8-61.2,40-91.8c0.6-1.3,2-2.5,1-4.3C388.6,263.4,388.6,263.4,384.8,272.1z"/>
	<path class="st2" d="M567.1,290.2c-3.5-0.6-7.9-2.1-10.1,3.8c-4.1,10.8-9.1,21.3-13.8,31.9c-3,6.7-6,13.5-9.4,21.2
		c-7.8-17.2-15.3-33.2-22.1-49.4c-2.6-6.1-5.4-9.9-13.2-7.2c0.9,2.1,1.7,4.3,2.6,6.4c8.6,19.2,17.2,38.4,25.9,57.5
		c1.3,2.9,1.4,5.3,0,8.2c-4.3,9.4-8.3,19-12.5,28.5c6.6,1.9,10.8,0.8,13.1-6.1c2.4-7.4,6.1-14.5,9.3-21.7c10-22.9,20-45.7,29.9-68.6
		C567.5,293.5,570.2,290.8,567.1,290.2z"/>
	<path class="st2" d="M702.1,288.7c-5.3-0.9-10.2,0.4-14.4,3.8c-2.5,2.1-4.8,4.4-8,7.3c0-2.3-0.1-3.5,0-4.6c0.6-3.9-0.7-5.4-5-5.5
		c-4.7-0.1-4.9,2-4.8,5.6c0.1,21.5,0.2,43,0,64.5c0,3.8,1,4.9,4.9,5c4.3,0.1,5.1-1.4,5.1-5.4c0-15.1-1.2-30.4,1.8-45.4
		c2.1-10.8,8.6-16.2,19.1-15.9c4.6,0.2,5.3-3.9,6.1-6.6C707.6,289.2,704,289,702.1,288.7z"/>
	<path class="st2" d="M291.5,200.1c17.9,14.8,41.1,23.9,67.1,24.4c28,0.6,53.8-9.9,73.1-27.7c7.6-7,14.2-15.2,19.5-24.3
		c8.7-14.9,13.9-32.4,14.5-51.3c1.7-49.4-32.1-92.4-79.3-104.6c-8.1-2.1-16.6-3.3-25.3-3.5c-4.3-0.1-8.6,0.1-12.8,0.5
		c-51.1,5.1-91.6,46.5-94.1,99.7c-1.3,27.5,7.3,52.6,22.7,71.9C281.3,190.7,286.2,195.6,291.5,200.1z M272.7,152.3
		c-0.9-0.8-1.4-1-1.6-1.4c-7.5-21.8-7.5-21.9,10.3-35.8c12.1-9.4,24.2-18.8,36.3-28.2c3.7-2.8,7.3-5.7,11-8.5
		c7.1-5.4,15.1-8.9,23.4-10.4c10.7-1.9,21.6-0.6,31.2,3.9c4,1.9,7.8,4.4,11.2,7.5c16,14.4,21.3,35.6,14.1,55.1
		c-1.2,3.3-2.8,6.5-4.7,9.6c-0.3,0.5-0.6,1-1,1.5c-4,6.1-8.1,12.2-12.2,18.2c-10.5,15.3-21.2,30.4-31.7,45.7
		c-1.8,2.6-3.7,3.7-6.9,3.4c-7.4-0.6-14.6-1.9-21.1-4.4c11.9-12.9,23.7-25.7,35.5-38.4c-15.2,2.1-29.9-1.1-42.1-12.2
		c-2.1-1.9-4.1-4-5.8-6.1c-8.2-10.2-11.5-22.6-10.7-37.9c-0.9,1-1.7,1.9-2.6,2.8C293.8,129.3,283.2,140.8,272.7,152.3z"/>
	<path class="st2" d="M359.5,152.6c4.7,0,9.3-1.2,13.6-3.2c7.2-3.4,13.3-9.3,17-16.4c2.3-4.4,3.6-9.3,3.7-14.4
		c0.2-18.3-14.9-33.4-33.1-33.3c-6.2,0-12.1,1.8-17.2,4.9c-10.2,6.1-17.2,17.2-17.2,29.5c0,3.5,0.5,6.8,1.5,9.9
		C331.7,143.2,344.2,152.7,359.5,152.6z"/>
</g>
</svg>
