<?xml version="1.0" encoding="UTF-8" standalone="no"?>
<svg
   xmlns:dc="http://purl.org/dc/elements/1.1/"
   xmlns:cc="http://creativecommons.org/ns#"
   xmlns:rdf="http://www.w3.org/1999/02/22-rdf-syntax-ns#"
   xmlns:svg="http://www.w3.org/2000/svg"
   xmlns="http://www.w3.org/2000/svg"
   xmlns:sodipodi="http://sodipodi.sourceforge.net/DTD/sodipodi-0.dtd"
   xmlns:inkscape="http://www.inkscape.org/namespaces/inkscape"
   version="1.1"
   id="svg2"
   xml:space="preserve"
   width="2456.6934"
   height="566.92932"
   viewBox="0 0 2456.6934 566.92932"
   sodipodi:docname="ArangoDB Logo.ai"><metadata
     id="metadata8"><rdf:RDF><cc:Work
         rdf:about=""><dc:format>image/svg+xml</dc:format><dc:type
           rdf:resource="http://purl.org/dc/dcmitype/StillImage" /></cc:Work></rdf:RDF></metadata><defs
     id="defs6"><clipPath
       clipPathUnits="userSpaceOnUse"
       id="clipPath18"><path
         d="M 0,0 H 1842.52 V 425.197 H 0 Z"
         id="path16" /></clipPath></defs><sodipodi:namedview
     pagecolor="#ffffff"
     bordercolor="#666666"
     borderopacity="1"
     objecttolerance="10"
     gridtolerance="10"
     guidetolerance="10"
     inkscape:pageopacity="0"
     inkscape:pageshadow="2"
     inkscape:window-width="640"
     inkscape:window-height="480"
     id="namedview4" /><g
     id="g10"
     inkscape:groupmode="layer"
     inkscape:label="ArangoDB Logo"
     transform="matrix(1.3333333,0,0,-1.3333333,0,566.92933)"><g
       id="g12"><g
         id="g14"
         clip-path="url(#clipPath18)"><g
           id="g20"
           transform="translate(1508.541,211.0742)"><path
             d="m 0,0 h 32.744 c 8.402,0 14.553,-2.14 18.454,-6.416 3.902,-4.201 5.853,-10.313 5.853,-18.34 0,-7.427 -2.291,-13.05 -6.866,-16.876 -4.577,-3.751 -11.211,-5.629 -19.914,-5.629 H 0 Z m 0,66.052 h 22.505 c 9.453,0 16.543,-1.8 21.27,-5.401 4.801,-3.601 7.202,-9.186 7.202,-16.762 0,-6.902 -2.368,-12.153 -7.094,-15.754 C 39.156,24.534 32.405,22.734 23.628,22.734 H 0 Z m -151.891,0 h 21.719 c 11.778,0 21.009,-3.973 27.686,-11.925 6.676,-7.952 10.01,-18.265 10.01,-30.943 V -4.165 c 0,-12.828 -3.334,-23.214 -10.01,-31.166 -6.677,-7.952 -15.908,-11.93 -27.686,-11.93 h -21.719 z m 101.593,25.32 V 71.567 l 17.441,-3.372 V -49.397 l -17.441,-3.38 v -19.691 h 80.569 c 18.98,0 33.645,4.012 43.998,12.039 10.351,8.102 15.525,19.994 15.525,35.673 0,9.077 -2.473,17.068 -7.424,23.97 -4.876,6.901 -12.227,11.403 -22.055,13.503 7.652,3.001 13.464,7.463 17.44,13.389 4.052,6.002 6.079,12.792 6.079,20.369 0,14.929 -5.4,26.143 -16.204,33.644 -10.802,7.502 -25.845,11.253 -45.125,11.253 h -55.362 z m -151.89,0 V 71.567 l 17.439,-3.372 V -49.397 l -17.439,-3.38 v -19.691 h 73.704 c 20.029,0 36.533,6.341 49.511,19.019 12.978,12.753 19.469,29.179 19.469,49.284 v 27.121 c 0,20.029 -6.491,36.422 -19.469,49.176 -12.978,12.828 -29.482,19.24 -49.511,19.24 h -56.265 z"
             style="fill:#577138;fill-opacity:1;fill-rule:nonzero;stroke:none"
             id="path22" /></g><g
           id="g24"
           transform="translate(822.4609,191.9063)"><path
             d="m 0,0 h 16.768 v -20.105 c -2.25,-3.226 -5.401,-5.926 -9.452,-8.102 -4.051,-2.101 -8.552,-3.151 -13.503,-3.151 -4.727,0 -8.439,1.168 -11.139,3.493 -2.626,2.326 -3.943,5.549 -3.943,9.675 0,4.576 1.8,10.012 5.401,13.239 C -12.267,-1.65 -6.977,0 0,0 m 274.681,45.161 c 4.876,0 9.038,-1.012 12.489,-3.037 3.525,-2.025 6.337,-4.876 8.437,-8.552 v -52.885 c -2.1,-3.527 -4.912,-6.226 -8.437,-8.102 -3.451,-1.801 -7.691,-2.7 -12.717,-2.7 -8.102,0 -13.954,3.033 -17.555,9.109 -3.601,6.152 -5.401,14.554 -5.401,25.206 v 2.365 c 0,11.478 1.839,20.781 5.515,27.907 3.751,7.127 9.642,10.689 17.669,10.689 m 134.708,0.228 c 8.552,0 14.815,-3.412 18.791,-10.24 3.976,-6.825 5.965,-15.645 5.965,-26.448 V 6.343 c 0,-11.028 -1.989,-19.918 -5.965,-26.67 -3.901,-6.752 -10.092,-10.13 -18.569,-10.13 -8.702,0 -15.004,3.339 -18.904,10.016 -3.901,6.752 -5.853,15.681 -5.853,26.784 v 2.358 c 0,10.803 1.952,19.623 5.853,26.448 3.9,6.828 10.13,10.24 18.682,10.24 m 0,25.319 C 391.46,70.708 377.39,64.891 367.187,53.263 357.06,41.709 351.997,26.855 351.997,8.701 V 6.343 c 0,-18.305 5.063,-33.237 15.19,-44.788 10.203,-11.479 24.345,-17.219 42.424,-17.219 17.855,0 31.847,5.74 41.975,17.219 10.202,11.551 15.303,26.483 15.303,44.788 v 2.358 c 0,18.23 -5.101,33.123 -15.303,44.675 -10.128,11.554 -24.192,17.332 -42.197,17.332 m -257.252,0 c -7.352,0 -13.993,-1.728 -19.919,-5.179 -5.926,-3.45 -10.911,-8.29 -14.962,-14.517 l -1.464,17.446 H 67.744 V 48.653 L 85.185,45.274 V -30.229 L 69.431,-33.608 V -53.3 h 61.887 v 19.692 l -13.275,3.379 v 65.265 c 2.325,3.226 5.215,5.698 8.666,7.423 3.45,1.802 7.351,2.702 11.702,2.702 6.677,0 11.661,-1.723 14.962,-5.174 3.301,-3.376 4.951,-9.155 4.951,-17.332 v -52.884 l -14.061,-3.379 V -53.3 h 62.787 v 19.692 l -15.754,3.379 v 52.998 c 0,16.503 -3.451,28.618 -10.353,36.345 -6.901,7.727 -16.504,11.594 -28.806,11.594 m -153.259,0 c -7.956,0 -15.372,-1.112 -22.308,-3.21 -3.289,-0.867 -6.739,-1.986 -10.1,-3.476 -12.915,-5.719 -17.458,-10.525 -17.458,-10.525 l 15.567,-20.585 c 0,0 4.962,5.357 19.043,11.366 4.122,1.742 9.214,2.443 13.113,2.461 6.602,0 11.592,-1.612 14.968,-4.838 3.376,-3.225 5.065,-7.765 5.065,-13.616 V 17.89 H 0 c -17.704,0 -31.13,-4.649 -40.282,-10.874 -9.152,-6.228 -13.731,-15.04 -13.731,-26.444 0,-11.176 3.49,-20.029 10.466,-26.555 7.052,-6.453 16.543,-9.681 28.471,-9.681 7.202,0 13.576,1.39 19.127,4.165 5.626,2.775 10.388,6.416 14.289,10.917 0.376,-2.176 0.904,-4.355 1.579,-6.53 0.675,-2.101 1.464,-4.162 2.364,-6.188 h 37.918 v 19.692 l -10.011,1.349 c -0.225,1.5 -0.375,3.079 -0.45,4.73 v 5.288 50.298 c 0,13.652 -4.729,24.155 -14.181,31.506 -9.378,7.428 -21.603,11.145 -36.681,11.145 m -72.132,0 c -5.926,0 -11.139,-1.767 -15.64,-5.292 -4.501,-3.526 -8.18,-8.438 -11.03,-14.74 l -1.465,17.782 h -48.047 V 48.653 l 17.44,-3.379 v -75.503 l -15.754,-3.379 V -53.3 h 64.366 v 19.692 l -15.754,3.379 v 59.186 c 1.65,3.451 4.051,6.118 7.202,7.994 3.15,1.875 7.129,2.809 11.931,2.809 l 13.503,-0.338 3.487,29.936 c -1.276,0.375 -2.887,0.676 -4.837,0.901 -1.876,0.3 -3.676,0.449 -5.402,0.449 m 373.627,0.409 -2.737,-17.962 c -3.676,5.626 -8.105,9.938 -13.282,12.939 -5.175,3.075 -11.177,4.614 -18.003,4.614 -15.08,0 -26.815,-5.89 -35.217,-17.667 C 222.807,41.263 218.639,25.77 218.639,6.565 V 4.2 c 0,-17.929 4.168,-32.404 12.495,-43.432 8.402,-10.953 20.066,-16.432 34.995,-16.432 6.301,0 11.891,1.2 16.767,3.601 4.877,2.401 9.111,5.89 12.711,10.466 v -7.987 c 0,-8.702 -1.983,-15.493 -5.959,-20.369 -3.976,-4.876 -9.977,-7.317 -18.004,-7.317 -5.851,0 -11.403,0.678 -16.654,2.03 -5.251,1.274 -10.504,3.036 -15.754,5.287 l -6.079,-23.07 c 5.851,-2.925 12.231,-5.209 19.132,-6.86 6.902,-1.725 13.425,-2.593 19.577,-2.593 17.629,0 31.472,4.801 41.524,14.404 10.127,9.527 15.19,22.32 15.19,38.374 v 21.035 l 0.029,-0.078 v 76.674 l 17.442,3.379 v 19.805 h -45.677 z m -540.845,1.729 h 0.678 l 15.015,-46.974 h -30.727 z m -16.312,37.695 -49.854,-142.457 -11.703,-1.692 V -53.3 h 55.813 v 19.692 l -11.36,2.028 10.64,33.26 h 46.013 l 10.863,-33.26 -11.367,-2.028 V -53.3 h 55.814 v 19.692 l -11.703,1.692 -49.512,142.457 z"
             style="fill:#a3b34f;fill-opacity:1;fill-rule:nonzero;stroke:none"
             id="path26" /></g><g
           id="g28"
           transform="translate(447.4272,227.9946)"><path
             d="m 0,0 c -4.251,11.345 -9.235,18.872 -15.154,27.803 -7.242,10.935 -13.716,18.387 -18.916,24.315 -11.086,12.659 -16.634,18.988 -24.168,23.584 -13.003,7.935 -25.568,9.369 -32.715,10.114 -16.864,1.748 -29.747,-1.827 -36.013,-3.626 -6.446,-1.857 -19.22,-5.663 -32.556,-16.137 -12.084,-9.489 -19.518,-23.774 -23.56,-31.47 3.474,0.73 6.845,1.396 10.217,2.022 -0.07,-0.012 -0.143,-0.025 -0.213,-0.037 8.293,16.863 20.099,28.781 40.328,35.892 12.936,4.536 26.44,7.179 33.649,6.884 9.799,-0.404 24.238,-0.589 36.72,-8.752 7.274,-4.766 14.242,-8.18 28.158,-26.598 C -15.429,19.099 -13.619,16.307 -6.615,3.023 -1.28,-7.096 3.289,-27.692 1.223,-43.754 0.627,-48.412 0.128,-58.306 -10.236,-68.089 -24.162,-81.242 -47.912,-79.75 -50.401,-79.451 c -7.587,0.926 -13.399,4.462 -31.086,11.233 -19.872,7.609 -2.721,0.884 -21.844,8.951 -2.038,0.856 -3.574,1.28 -4.761,1.769 -1.742,-2.08 -2.923,-3.38 -3.088,-3.409 2.7,-1.396 10.217,-4.827 14.86,-7.176 1.511,-0.765 2.899,-1.45 4.198,-2.08 2.096,-0.96 4.051,-1.879 5.892,-2.759 5.927,-2.676 9.598,-4.037 14.454,-6.579 16.829,-8.799 34.599,-6.291 37.23,-5.879 3.492,0.537 27.775,4.294 37.832,23.618 5.305,10.192 4.381,20.345 3.119,34.24 C 6.048,-23.581 4.845,-12.917 0,0"
             style="fill:#a3b34f;fill-opacity:1;fill-rule:nonzero;stroke:none"
             id="path30" /></g><g
           id="g32"
           transform="translate(365.9404,159.7764)"><path
             d="m 0,0 c 17.687,-6.771 23.499,-10.307 31.086,-11.232 2.489,-0.298 26.239,-1.791 40.165,11.36 10.364,9.784 10.863,19.679 11.459,24.336 2.066,16.062 -2.503,36.659 -7.838,46.777 -7.004,13.284 -8.814,16.076 -27.608,40.971 -13.916,18.418 -20.884,21.832 -28.158,26.599 -12.482,8.162 -26.921,8.347 -36.72,8.752 -7.209,0.294 -20.713,-2.349 -33.649,-6.885 -20.229,-7.111 -32.035,-19.029 -40.328,-35.892 0.07,0.012 0.143,0.026 0.213,0.037 0.78,0.145 1.561,0.29 2.343,0.43 l 10e-4,0.01 c 0.323,0.058 0.635,0.112 0.955,0.167 7.695,1.355 14.496,2.371 20.807,3.292 17.089,2.508 26.969,3.269 34.093,2.631 0.411,-0.037 0.811,-0.081 1.21,-0.126 4.433,2.478 13.99,8.541 26.287,3.544 C 7.669,109.344 15.045,99.628 19.241,92.685 23.686,85.308 30.357,74.245 27.131,60.986 24.839,51.604 17.329,40.03 6.052,38.06 3.193,37.563 -3.89,37.711 -7.533,38.071 -7.784,37.526 -8.035,36.997 -8.286,36.502 -12.138,28.889 -21.653,16.633 -26.605,10.721 c 1.187,-0.49 2.723,-0.913 4.761,-1.77 C -2.721,0.884 -19.872,7.609 0,0"
             style="fill:#dde072;fill-opacity:1;fill-rule:nonzero;stroke:none"
             id="path34" /></g><g
           id="g36"
           transform="translate(371.9922,197.8359)"><path
             d="m 0,0 c 11.277,1.971 18.787,13.545 21.08,22.927 3.226,13.259 -3.446,24.322 -7.891,31.698 -4.196,6.944 -11.572,16.66 -24.923,22.086 -12.297,4.997 -21.854,-1.065 -26.287,-3.544 3.483,-0.397 6.527,-1.152 9.95,-2.464 4.845,-1.855 15.894,-5.285 19.736,-15.302 0,0 3.766,-7.443 3.414,-18.458 C -5.314,24.642 -9.432,9.035 -13.585,0.012 -9.942,-0.348 -2.859,-0.498 0,0"
             style="fill:#a3b34f;fill-opacity:1;fill-rule:nonzero;stroke:none"
             id="path38" /></g><g
           id="g40"
           transform="translate(315.9722,176.7979)"><path
             d="m 0,0 c -17.354,-10.188 -42.804,-24.021 -74.672,-23.659 -1.026,0.013 -2.059,0.038 -3.101,0.08 -10.685,0.431 -39.064,1.573 -53.667,20.548 -4.027,5.245 -6.408,11.041 -7.697,14.982 l -0.035,0.085 h 0.003 c -0.781,2.402 -1.069,3.813 -1.078,3.865 -0.221,1.023 -0.403,2.025 -0.559,3.062 l -0.02,0.07 c -0.002,0.011 -0.003,0.022 -0.005,0.033 l 0.003,0.001 -0.005,0.014 c -0.82,5.444 -1.101,13.608 2.181,21.677 5.372,13.178 17.527,19.058 31.601,25.866 11.797,5.707 22.116,8.222 40.844,12.787 2.399,0.58 4.707,1.131 6.933,1.642 2.516,0.571 4.933,1.111 7.252,1.602 4.544,0.963 8.889,1.815 13.284,2.603 l 0.022,0.015 c 8.067,1.436 15.144,2.491 21.702,3.45 16.92,2.482 26.663,3.241 33.626,2.616 3.813,-0.337 6.989,-1.074 10.622,-2.466 4.962,-1.9 14.199,-5.436 18.662,-14.33 1.343,-2.682 2.138,-5.65 2.366,-8.839 0.027,-0.31 0.045,-0.629 0.054,-0.947 0.273,-8.013 -3.03,-15.89 -4.804,-20.122 C 33.542,20.9 15.011,8.824 0,0 m 134.741,-10.564 c -10.057,-19.326 -34.34,-23.082 -37.832,-23.62 -2.631,-0.411 -20.4,-2.919 -37.23,5.879 -4.856,2.541 -8.527,3.905 -14.454,6.578 -1.739,0.786 -3.677,1.686 -5.892,2.76 -1.299,0.631 -2.687,1.317 -4.198,2.08 -4.643,2.349 -12.16,5.781 -14.86,7.177 0.165,0.028 1.346,1.329 3.089,3.409 4.951,5.912 14.467,18.168 18.318,25.782 0.251,0.496 0.502,1.023 0.753,1.569 4.153,9.023 8.271,24.63 8.664,36.931 0.352,11.015 -3.414,18.458 -3.414,18.458 -3.842,10.017 -14.891,13.447 -19.736,15.302 -3.423,1.312 -6.467,2.067 -9.95,2.464 -0.399,0.046 -0.799,0.089 -1.21,0.126 -7.123,0.639 -17.004,-0.123 -34.093,-2.63 -6.31,-0.922 -13.111,-1.937 -20.807,-3.292 -0.32,-0.056 -0.632,-0.11 -0.955,-0.167 l -10e-4,-0.01 c -0.782,-0.141 -1.562,-0.285 -2.343,-0.43 -3.372,-0.626 -6.743,-1.292 -10.217,-2.022 4.042,7.696 11.476,21.981 23.56,31.47 13.336,10.474 26.11,14.28 32.556,16.137 6.266,1.799 19.149,5.374 36.013,3.625 7.147,-0.744 19.712,-2.178 32.715,-10.113 7.534,-4.596 13.082,-10.925 24.168,-23.584 5.2,-5.928 11.674,-13.38 18.916,-24.315 5.919,-8.931 10.903,-16.458 15.154,-27.803 4.846,-12.917 6.048,-23.581 6.405,-27.523 1.262,-13.894 2.186,-24.047 -3.119,-34.238 m 9.936,30.695 c -0.813,4.653 -0.825,12.923 -4.245,24.285 -2.67,8.869 -4.004,13.304 -5.938,18.02 -3.728,9.123 -8.473,16.54 -15.581,25.724 -16.635,21.478 -24.958,32.227 -38.519,40.794 -29.436,18.612 -60.427,15.32 -63.949,14.892 -10.574,-1.273 -33.83,-5.913 -53.757,-25.144 -11.291,-10.909 -18.387,-26.543 -21.716,-34.544 -0.234,-0.052 -0.456,-0.101 -0.691,-0.155 -2.236,-0.513 -4.551,-1.066 -6.959,-1.649 -18.864,-4.598 -29.256,-7.13 -41.244,-12.929 -13.843,-6.697 -26.92,-13.022 -32.582,-26.913 -3.464,-8.513 -3.162,-17.086 -2.3,-22.778 0,0 3.734,-37.259 29.374,-56.269 21.482,-15.927 53.134,-21.804 76.747,-15.356 18.615,3.539 36.37,20.995 51.126,36.244 4.722,-2.248 15.587,-7.031 24.41,-11.585 20.356,-10.509 34.473,-12.683 41.75,-13.957 15.867,-2.782 40.544,3.501 52.26,16.63 11.223,12.582 14.492,29.56 11.814,44.69"
             style="fill:#577138;fill-opacity:1;fill-rule:nonzero;stroke:none"
             id="path42" /></g><g
           id="g44"
           transform="translate(237.9409,158.0977)"><path
             d="m 0,0 c -12.177,0.042 -29.848,1.645 -42.669,15.02 -2.663,2.78 -15.763,17.542 -12.051,35.254 2.991,14.267 14.777,21.668 24.247,27.615 6.769,4.254 15.06,7.012 29.768,11.104 0,0 2.72,0.827 7.132,2.075 9.344,5.958 21.486,9.48 35.004,8.64 0.639,0.128 1.276,0.254 1.91,0.377 22.942,5 30.427,5.399 35.643,5.381 11.474,-0.04 24.105,0.087 33.399,-7.845 2.496,-2.129 9.856,-6.503 8.72,-18.207 C 120.091,68.984 115.411,56.133 103.932,43.501 97.018,35.892 83.611,26.132 67.09,17.628 55.116,11.479 38.06,1.825 13.311,0.458 9.315,0.236 4.784,-0.018 0,0 M 78.031,18.7 C 60.677,8.512 35.227,-5.32 3.359,-4.958 2.333,-4.947 1.3,-4.921 0.258,-4.879 c -10.685,0.431 -39.064,1.574 -53.667,20.549 -4.027,5.244 -6.408,11.04 -7.697,14.98 l -0.035,0.086 0.003,10e-4 c -0.781,2.401 -1.069,3.812 -1.078,3.864 -0.221,1.024 -0.403,2.025 -0.559,3.062 l -0.02,0.07 c -0.002,0.011 -0.003,0.023 -0.005,0.033 l 0.003,0.001 -0.005,0.014 c -0.82,5.444 -1.101,13.608 2.181,21.677 5.372,13.179 17.527,19.059 31.601,25.867 11.797,5.706 22.116,8.221 40.844,12.786 2.399,0.581 4.707,1.132 6.933,1.643 2.516,0.57 4.933,1.11 7.252,1.601 4.544,0.963 8.889,1.815 13.284,2.604 l 0.022,0.014 c 8.067,1.436 15.144,2.492 21.702,3.45 16.92,2.482 26.663,3.242 33.626,2.616 3.813,-0.336 6.989,-1.074 10.622,-2.466 4.962,-1.9 14.199,-5.436 18.662,-14.33 1.343,-2.681 2.138,-5.649 2.366,-8.839 0.027,-0.309 0.045,-0.628 0.054,-0.946 0.273,-8.013 -3.03,-15.891 -4.804,-20.122 C 111.573,39.6 93.042,27.524 78.031,18.7"
             style="fill:#a3b34f;fill-opacity:1;fill-rule:nonzero;stroke:none"
             id="path46" /></g><g
           id="g48"
           transform="translate(305.0308,175.7256)"><path
             d="M 0,0 C 16.521,8.503 29.928,18.264 36.842,25.873 48.321,38.505 53.001,51.356 54.013,61.786 55.149,73.49 47.789,77.864 45.293,79.993 36,87.925 23.369,87.798 11.894,87.838 6.678,87.856 -0.807,87.457 -23.749,82.457 c -0.634,-0.123 -1.271,-0.249 -1.909,-0.378 0.639,-0.039 1.277,-0.075 1.923,-0.134 0.64,-0.062 1.28,-0.125 1.919,-0.207 1.34,-0.155 2.689,-0.369 4.058,-0.614 2.596,-0.455 4.153,-0.987 5.455,-1.389 C -9.522,78.741 1.096,73.479 6.777,68.059 12.119,62.97 19.99,51.683 20.356,44.792 21.312,26.348 -3.483,13.174 -22.104,10.119 c -2.071,-0.223 -0.761,-0.248 -3.762,-0.516 -1.15,-0.086 -2.75,-0.152 -3.84,-0.198 L -43.167,9.393 c -16.186,0.945 -26.092,8.149 -36.943,13.397 -0.778,0.523 -1.918,0.806 -4.088,3.424 -4.233,5.105 1.343,24.02 9.157,33.835 l 4.409,4.931 c 1.585,1.624 4.674,4.661 6.569,6.094 0.371,0.289 0.742,0.558 1.123,0.837 0.737,0.527 1.501,1.034 2.277,1.529 -4.411,-1.249 -7.132,-2.075 -7.132,-2.075 -14.707,-4.093 -22.999,-6.85 -29.768,-11.104 -9.47,-5.947 -21.256,-13.349 -24.247,-27.615 -3.711,-17.711 9.388,-32.474 12.051,-35.253 12.821,-13.375 30.492,-14.979 42.669,-15.021 4.785,-0.017 9.315,0.235 13.311,0.457 C -29.03,-15.803 -11.974,-6.148 0,0"
             style="fill:#dde072;fill-opacity:1;fill-rule:nonzero;stroke:none"
             id="path50" /></g><g
           id="g52"
           transform="translate(240.9678,246.8003)"><path
             d="m 0,0 c -1.895,-1.433 -4.984,-4.47 -6.569,-6.095 l -4.409,-4.93 c -7.814,-9.815 -13.39,-28.731 -9.157,-33.835 2.17,-2.618 3.31,-2.902 4.088,-3.425 10.851,-5.247 20.757,-12.452 36.943,-13.398 l 13.461,0.014 c 1.09,0.045 2.69,0.11 3.84,0.196 3.001,0.27 1.691,0.295 3.762,0.516 18.621,3.057 43.416,16.231 42.46,34.674 -0.366,6.892 -8.237,18.179 -13.579,23.268 -5.681,5.419 -16.299,10.682 -19.08,11.676 -1.302,0.402 -2.859,0.933 -5.455,1.389 -1.369,0.244 -2.718,0.459 -4.058,0.614 -0.639,0.082 -1.279,0.144 -1.919,0.206 -0.646,0.06 -1.284,0.095 -1.923,0.135 C 24.886,11.846 12.744,8.323 3.4,2.365 2.624,1.87 1.86,1.364 1.123,0.836 0.742,0.557 0.371,0.289 0,0"
             style="fill:#5e3108;fill-opacity:1;fill-rule:nonzero;stroke:none"
             id="path54" /></g></g></g></g></svg>
