<?xml version="1.0" encoding="utf-8"?>
<!-- Generator: Adobe Illustrator 21.1.0, SVG Export Plug-In . SVG Version: 6.00 Build 0)  -->
<svg version="1.1" id="Layer_1" xmlns="http://www.w3.org/2000/svg" xmlns:xlink="http://www.w3.org/1999/xlink" x="0px" y="0px"
	 viewBox="0 0 1151.8 1710.1" style="enable-background:new 0 0 1151.8 1710.1;" xml:space="preserve">
<style type="text/css">
	.st0{fill:#FEFEFE;}
	.st1{fill:#F4A755;}
	.st2{fill:#88CCE0;}
	.st3{fill:#717174;}
	.st4{fill:#727275;}
	.st5{fill:#1B3F77;}
	.st6{fill:#146B93;}
	.st7{fill:#1896D3;}
	.st8{fill:#737376;}
	.st9{fill:#747477;}
	.st10{fill:#EBF0F4;}
	.st11{fill:#F0F4F8;}
	.st12{fill:#F39D42;}
	.st13{fill:#F4A049;}
	.st14{fill:#F3A149;}
	.st15{fill:#F3A048;}
	.st16{fill:#F4A34E;}
	.st17{fill:#F39B3E;}
	.st18{fill:#F39C40;}
	.st19{fill:#F29634;}
	.st20{fill:#F39D41;}
	.st21{fill:#F39E44;}
	.st22{fill:#F29838;}
	.st23{fill:#F2922D;}
	.st24{fill:#F39F47;}
	.st25{fill:#F29635;}
	.st26{fill:#E0F1F6;}
	.st27{fill:#E6F2F8;}
	.st28{fill:#C8DCEC;}
	.st29{fill:#FDFDFD;}
	.st30{fill:none;}
	.st31{fill:#F39A3D;}
	.st32{fill:#757578;}
	.st33{fill:#F39A3C;}
	.st34{fill:#F3993B;}
	.st35{fill:#F39839;}
	.st36{fill:#F29736;}
	.st37{fill:#F29839;}
	.st38{fill:#F29431;}
	.st39{fill:#F29737;}
	.st40{fill:#F29532;}
	.st41{fill:#F29533;}
	.st42{fill:#F2932E;}
	.st43{fill:#F29531;}
	.st44{fill:#F2902A;}
	.st45{fill:#F29029;}
	.st46{fill:#F2912B;}
	.st47{fill:#1595D2;}
	.st48{fill:#E1EAF4;}
	.st49{fill:#E2EFF7;}
	.st50{fill:#E1F1F7;}
	.st51{fill:#FE733E;}
	.st52{fill:#B5D2F3;}
	.st53{fill:#010101;}
	.st54{fill:#FE684B;}
	.st55{fill:#FE6446;}
	.st56{fill:#FED6C8;}
	.st57{fill:#FEEBE3;}
	.st58{fill:#FE9166;}
	.st59{fill:#FE8F64;}
	.st60{fill:#E2F5FC;}
	.st61{fill:#CDECF6;}
	.st62{fill:#FE6B3C;}
	.st63{fill:#FE6142;}
	.st64{fill:#FE6143;}
	.st65{fill:#070909;}
	.st66{fill:#FDFCFB;}
	.st67{fill:#FEA777;}
	.st68{fill:#FDFEFE;}
	.st69{fill:#FBFDFE;}
	.st70{fill:#090B0B;}
	.st71{fill:#090C0C;}
</style>
<g>
	<path class="st30" d="M744,1395.4c-0.7-44.1-37-79.6-81.6-79.8c-45.4-0.2-82.7,36.5-82.5,81.3c0.1,44.9,37.4,81.3,82.9,81
		C707.9,1477.7,744.7,1440.3,744,1395.4z"/>
	<path class="st30" d="M178.9,1316c-44.4-0.2-82.7,36.7-83.9,80.7c-1.2,44.3,35.3,80.6,81.9,81.2c46.3,0.6,80.9-32.5,81.4-78.1
		C258.9,1353.6,223.5,1316.2,178.9,1316z"/>
	<path class="st30" d="M978.6,1315.6c-45.5,0.2-82.3,37.4-81.5,82.3c0.8,44.2,37.1,79.9,81.6,80c45.5,0.2,82.8-36.4,82.8-81.2
		C1061.4,1351.9,1024.1,1315.4,978.6,1315.6z"/>
	<path class="st0" d="M514.2,967c0.1,0,0.2,0.3,0.2,0.9c0.1,4.2,0.2,8.3,0.3,12.5c0.6-3.2,1.2-6.4,1.9-9.7
		C516.1,964.6,511.3,967.7,514.2,967z"/>
	<path class="st0" d="M776.6,625c-0.1,0.1-0.3,0.1-0.4,0.2c0.1,0.1,0.3,0.2,0.4,0.3C776.5,625.4,776.6,625.2,776.6,625L776.6,625z"
		/>
	<path class="st0" d="M611.3,205.2c0,0,0,0.1,0,0.1c0.1,0,0.2,0,0.3,0C611.5,205.3,611.4,205.2,611.3,205.2z"/>
	<path d="M698.8,1256.4c-63.5-15.7-128.1,10.3-161.5,64.9c-33,53.9-26.6,124.5,15.4,171.2c44.5,49.5,111.8,63.1,172.2,34.9
		c5.8-2.7,10.7-8.7,18.3-6.1c1.6,31.1-2.5,48.2-15.8,65.6c-36.3,47.5-103.3,42.6-137.4-10.1c-13.4-20.7-28.7-26.3-45.8-16.8
		c-18.1,10.1-21.5,27.9-9,49.6c17.9,31.2,44.2,52.5,77.7,65.2c5.9,2.2,5.1,2.2,14.1,5.6c10.3,4,42,5,56.7,2.3
		c9-1.6,12.7-3.6,18.7-5.3c61.2-18.3,104.1-72.2,105.6-136.1c1.1-49.9,1.3-99.8-0.1-149.7C806,1327.4,760.1,1271.5,698.8,1256.4z
		 M579.8,1396.9c-0.1-44.8,37.1-81.5,82.5-81.3c44.5,0.2,80.9,35.8,81.6,79.8c0.7,44.9-36.1,82.3-81.2,82.6
		C617.2,1478.2,580,1441.8,579.8,1396.9z"/>
	<path d="M1118.7,1353.8c-22-68-89.7-111.2-159-101c-72.1,10.6-125.2,70.2-126.5,141.9c-1.2,70.3,49.4,131.3,120.3,144.9
		c68.7,13.2,139-27.3,163.4-93.8c2.4-6.7,8.2-20.8,8.9-31.1c1-16,0.8-30.3-1.8-42.3C1122,1363.7,1120.6,1359.8,1118.7,1353.8z
		 M978.6,1478c-44.5-0.2-80.8-35.8-81.6-80c-0.8-44.9,36-82.1,81.5-82.3c45.6-0.2,82.9,36.2,82.9,81.1
		C1061.4,1441.6,1024.2,1478.1,978.6,1478z"/>
	<path class="st51" d="M751.8,1048.3c1.3-14.5,0.6-29.2,2.4-43.6c4-31.7,0.2-64.1,8.5-95.4c4.1-16.2-9-35.2,7.8-49.4c0,0,0,0,0,0
		c-1.4-4.6-2.8-9.2-4.2-13.8c-4.7-7.8-2.3-15.4,0.5-23c0,0,0,0,0,0c-0.3-27.8,0-55.6,5-83.1c1.5-38.2,3.1-76.4,4.6-114.7
		c-0.1-0.1-0.3-0.2-0.4-0.3C694.3,662.5,617.3,610,604.2,547c-8.6-41.4-4-80.5,28.3-112.1c5.4-5.3,10-11.4,15-17.2
		c13.2-79.1,4-151.7-63.6-208.3c10.1-5.8,19.2-2.5,27.4-4c0,0,0-0.1,0-0.1c-82.9-20.8-183.5,35.9-216.8,122.5
		c-10,26-15.4,52.8-13.7,80.7c82.2-38.1,155.9,7.4,176.2,76.7c21.1,72.1-35.1,148.4-109.8,149.5c-21.8,0.3-42.5-3.3-63.1-9.4
		c1.5,39.8,3.1,79.6,4.6,119.4c0,0,0,0,0,0c2.9,26.1,6,52.1,4.7,78.4c0.2,6.2,0.4,12.4,0.6,18.6c0,0,0,0,0,0c0,0,0,0,0,0
		c-0.2,4.1-0.4,8.2-0.6,12.4c6.1,25,7.4,50.7,9.3,76.3c-0.2-0.7-0.3-1.3-0.4-2c0.1,0.7,0.3,1.3,0.4,2c2,43.5,3.2,87.1,6.3,130.6
		c1.3,18-5.2,27-21.8,31.6c-19.6,5.5-38.9,12.1-58.3,18.3c26,3.6,51.6,4,77.2,3.4c27.7-0.6,40.3-12.9,43-40.4
		c1.7-17.5,3.2-35,4.8-52.5c1.8-31.7,3.6-63.5,5.4-95.2c1.3,0,2.6,0,3.9,0c0,30.2,0,60.4,0,90.5c0,0,0,0,0,0
		c0.5,13.7,0.7,27.5,1.6,41.2c4,63.9,5.9,63.5-57.8,76.4c-1.5,0.3-2.8,1.2-4.2,1.8c3.8,2.5,7.6,5,11.4,7.6c1.2,0.3,2.2,0.8,2.8,1.9
		c15.2,0.1,30.5,1.4,45.5,0c27.3-2.6,40.2-17.2,42.2-44.3c1.2-17.4,3-34.8,4.5-52.2c-2.4-23.1,1.1-45.8,5.4-68.5
		c-0.1-4.2-0.2-8.3-0.3-12.5c0-0.6-0.2-1-0.2-0.9c-2.9,0.7,1.9-2.4,2.4,3.7c0.5-2.7,1.1-5.4,1.6-8.1c0,34.9,0,69.8,0,104.8l0,0v0
		c0.3,12.3,0.7,24.5,0.9,36.8c0.5,44.5-2.3,48.5-44.7,61.2c-11.7,3.5-23.9,5.6-35.5,9.5c-8.4,2.9-19.1,1.3-27,11.2
		c34.5-1.3,66.8,2.6,98.9-2.6c33.2-5.4,46.4-18.8,53.2-51.2c5-23.8,7.1-48.3,16.2-72.4c1.3,2.6,2.3,3.8,2.6,5.2
		c4.6,22.5,9.2,45.1,13.6,67.6c6.2,31.5,19,44.9,51,50.5c33.1,5.7,66.6,1.8,100.9,2.6c-4.9-8.4-12.6-7-18.8-8.8
		c-21.3-6.2-43-11.5-63.9-18.7c-15.2-5.3-26.1-15-25.9-33.7c0.5-51.2,0.2-102.4,0.2-153.6c2.1,0,4.2,0,6.2,0
		c2.2,32.1,4.8,64.1,6.5,96.2c3.9,74.2,12.7,82.3,87.2,78.2c4.2-7,14.5-1.5,18.4-9c-17.9-0.1-33.5-8.7-49.9-14.2
		c-9.2-3.1-14.4-11.4-14.2-21.6c0.8-52.6-1.2-105.4,5.9-157.8c4.3,44,7.7,88.1,11.1,132.1c1.6,20.6,10.9,36.7,32.5,38.1
		c29.2,2,58.5,0.5,87.8,0.5c-15.5-7.8-31.4-12.4-47.2-17.4C748.3,1084.8,748.5,1084.7,751.8,1048.3z M526.6,298
		c-0.3,14.7-11.7,26.3-26.6,26.6c-15.7,0.3-27.5-8.7-27.8-29.1c1.7-14.8,10-24.9,27.6-25.3C518.5,269.9,526.9,282.5,526.6,298z
		 M646.8,735.4c0.1,40.5-30.9,75.8-66.3,75.7c-33.4-0.1-67.5-39.5-66.3-76.7c0,0,0,0,0,0c-1.8-11-3.7-22.1-6.2-37.5
		c23.9,16.3,44,33,70.9,33.6c27.5,0.5,49.1-13.6,71.6-30.1C655.3,713.6,643.2,723.9,646.8,735.4z"/>
	<path class="st52" d="M393.5,823c-2-0.7-3.9-1.6-5.8-2.3c-27.4-11.2-51.1-28.4-73.1-47.5c-79.4-68.6-131.8-154.5-144.5-258.7
		c-14.4-118.4,12.1-227.7,91.1-321.6c72.1-85.6,164-135.5,273.7-147c121.9-12.7,231.4,21.4,323.6,105.6
		c76.9,70.2,121.8,157.2,133.3,259.5c9.8,87.1-5.9,171.3-50.7,247.8c-40.7,69.5-94.9,125.9-168.2,161.6c-2,1-4,2-6,2.9c0,0,0,0,0,0
		c0,0,0,0,0,0c-2.8,7.6-5.3,15.2-0.5,23c0,0,0,0,0,0c1.7-1.5,3.2-3.4,5.2-4.5C882.3,783.2,959.1,696.1,995,574.9
		c3.1-10.3,7.9-15.4,19.4-14.2c15.6,1.6,19.8-8.8,19.8-21.8c0.1-49.9,0.1-99.7,0.1-149.6c0-10.7-2.6-22.5-13.7-23.7
		c-20.4-2.4-22.9-17.3-27-31.8c-24-84.4-70.2-154.6-138.8-208.5C713.8,14.6,559-5.4,396.6,69.4C275.9,124.9,199,221.2,164.2,350.1
		c-2.2,8-1.2,17.5-14.8,14.7c-19.4-4-26.7,7.4-26.8,24.6c-0.3,49.9-0.1,99.7-0.1,149.6c0,16.6,8.4,25.4,24.4,21.5
		c14.7-3.6,18.2,3.7,21.2,14.9c13,47.8,34.7,91.5,64.1,131.4c43,58.3,95.4,105.1,162,134.9c0,0,0,0,0,0
		C394,835.5,393.8,829.2,393.5,823z"/>
	<path d="M318.2,1365.8c-19.1-84.4-101.7-132-183.5-106.4c-82.2,25.8-124.8,115-92.4,193.7c31.3,76.2,126.1,111.1,200.8,73.8
		c8.8-4.4,15.4-10.8,23.9,2.4c7.5,11.6,20.6,15.4,34.8,9.7c13.8-5.6,19.8-16.1,19.7-30.6c-0.1-20.7,0-41.4,0-67.4
		C320.2,1419.4,324.2,1392.3,318.2,1365.8z M176.9,1478c-46.6-0.6-83.2-36.9-81.9-81.2c1.2-44,39.6-80.9,83.9-80.7
		c44.6,0.2,80,37.6,79.4,83.8C257.8,1445.4,223.2,1478.6,176.9,1478z"/>
	<path class="st53" d="M525.6,1281.3c-1.6-20.9-19.2-31.6-46.5-28.6c-65.5,7.3-116.5,54.1-129,119c-4.8,25-1.1,50.5-2.2,71.5
		c0,22.6-0.1,41,0,59.4c0.2,25.3,11.4,39.3,31.4,39.5c20,0.3,32.2-13.9,32.5-38.8c0.3-35.2-0.3-70.5,0.2-105.7
		c0.6-44,31.1-79,74.6-80.8C512.4,1315.7,526.9,1298.6,525.6,1281.3z"/>
	<path class="st54" d="M393.6,854c-14.8,41.5-54.2,40.5-87.7,50.9c25.2,6.5,50.8,14,76,9.7c15-2.6,17.9,2.8,20.1,11.7
		c0.2,0.7,0.3,1.4,0.5,2.1c0.1,0.6,0.3,1.3,0.4,2C401,904.7,399.7,879.1,393.6,854z"/>
	<path class="st55" d="M762.7,909.4c32,14.5,62.2-0.1,93.1-4.3c-30.2-12.8-69.3-6.2-85.2-45.1c0,0,0,0,0,0
		C753.7,874.2,766.8,893.2,762.7,909.4z"/>
	<path class="st56" d="M518.2,962.6c-0.5,2.7-1.1,5.4-1.6,8.1c-0.6,3.2-1.3,6.4-1.9,9.7c-4.3,22.7-7.8,45.4-5.4,68.5
		c7.5,3.9,2,14.2,8.9,18.4l0,0C518.2,1032.5,518.2,997.6,518.2,962.6z"/>
	<path class="st57" d="M459.5,926c-1.8,31.7-3.6,63.5-5.4,95.2c3.1-1.6,6.2-3.1,9.3-4.7c0,0,0,0,0,0c0-30.2,0-60.4,0-90.5
		C462.1,926,460.8,926,459.5,926z"/>
	<path class="st58" d="M365.5,1145.4c21.5,0,36.6,0,51.6,0c-0.9-0.6-1.9-1.2-2.8-1.9c-3.8-2.5-7.6-5-11.4-7.6
		C391.6,1135.3,381,1137.8,365.5,1145.4z"/>
	<path class="st59" d="M739.7,1145.4c16.7,0,33.5,0,50.2,0c-10.2-5.9-20.2-10.9-31.8-9C754.2,1144,743.8,1138.4,739.7,1145.4z"/>
	<path class="st60" d="M773,820.3c73.3-35.6,127.4-92,168.2-161.6c44.8-76.5,60.5-160.7,50.7-247.8
		c-11.5-102.4-56.3-189.4-133.3-259.5C766.4,67.3,656.9,33.1,535,45.9c-109.6,11.4-201.6,61.4-273.7,147
		c-79.1,93.9-105.5,203.2-91.1,321.6c12.7,104.3,65.1,190.1,144.5,258.7c22.1,19.1,45.8,36.4,73.1,47.5c1.9,0.8,3.8,1.6,5.8,2.3
		c1.3-26.3-1.8-52.3-4.7-78.4c-2-1.4-4-2.8-6-4.3c-20.3-14.7-37.7-32.8-55.2-50.6c-5.3-5.4-11.9-10-11.9-18.8
		c-11.8,8.5-20.3,2.6-27.2-6.8c-38.4-52.4-61.6-110.5-64.7-175.9c-2.8-57.8,2.4-114,26.7-168.1c30.9-68.7,78.4-121.2,142.2-160.2
		c10.8-6.6,17-0.7,24.5,4.2c7.3-0.7,13.8-3.2,18.5-9.2c-0.3-0.7-0.6-1.4-0.9-2.1c-6.4-13.5-6.7-28.8,8.7-32.4
		c15.5-3.7,24.3,8.9,24.4,25.2c115.7-38,223.3-22.6,320.4,51.5c72.6,55.4,114.2,129.7,126.9,220.3c16.4,116.5-23,213.1-104.2,294.8
		c-9.6,9.6-20.4,18.3-32.6,24.8c-2.1,1.1-4.2,2.1-6.3,3.1c-5,27.5-5.3,55.3-5,83.1c0,0,0,0,0,0C769,822.3,770.9,821.3,773,820.3z"/>
	<path class="st61" d="M810.9,712.3C892,630.6,931.4,534,915.1,417.5c-12.7-90.7-54.3-165-126.9-220.3
		c-97.1-74.1-204.8-89.4-320.4-51.5c-0.2,0.1-0.4,0.3-0.6,0.4c-9.1,5.8-16.2,18.3-29.3,10.5c-0.8-0.5-1.5-0.9-2.3-1.5
		c-4.7,6-11.1,8.5-18.5,9.2c-0.3,1.2-0.7,2.3-1.1,3.5c-8.3,23.3-33.2,29.4-49.9,43.4c-45.3,37.9-78.9,83.3-98.7,138.3
		c-31.8,88.6-25.3,175.4,17.3,259.2c6.9,13.6,15.4,26.5,24.5,38.8c5.4,7.4,7.1,14.8,6.4,23.3c0,0.1,0,0.2,0,0.3c0,0,0,0,0,0
		c0,8.7,6.6,13.4,11.9,18.8c17.6,17.8,34.9,35.9,55.2,50.6c2,1.4,4,2.9,6,4.3c0,0,0,0,0,0c-1.5-39.8-3.1-79.6-4.6-119.4
		c-0.1,0-0.1-0.1-0.2-0.1c-34.6-22.7-60-51.7-64.4-94.9c-5.5-53.3,16.9-92.7,60.5-121.4c0.2-0.1,0.4-0.3,0.6-0.4c0,0,0,0,0,0
		c-1.7-28,3.7-54.8,13.7-80.7c33.3-86.5,133.9-143.3,216.8-122.5c0.1,0,0.2,0,0.3,0.1c55,8.9,100.2,34,132.6,80.1
		c25.9,36.9,39.3,77.6,36.5,123h0c31.2,23.7,56.4,51.5,60.5,92.6c5.5,55.3-18.1,95.7-64.6,123.9v0c0,0.2,0,0.3,0,0.5
		c-1.5,38.2-3.1,76.4-4.6,114.7c2.2-1,4.3-2,6.3-3.1C790.5,730.7,801.3,722,810.9,712.3z"/>
	<path class="st62" d="M676.2,404.1c34.3-16.9,67.6-7.8,100.7,3.1c1.2,0.4,2.5,0.8,3.7,1.2c2.8-45.5-10.6-86.2-36.5-123
		c-32.4-46.1-77.6-71.2-132.6-80.1c-0.1,0-0.2,0-0.3,0c-8.2,1.6-17.3-1.8-27.4,4c67.6,56.6,76.9,129.2,63.6,208.3
		c2.1-1,4.1-1.9,6.2-2.9C661.3,411.2,668.8,407.8,676.2,404.1z"/>
	<path class="st63" d="M841.2,501.1c-4.1-41.1-29.3-68.9-60.5-92.6h0c-1.2-0.4-2.5-0.8-3.7-1.2c-33.2-10.9-66.4-20-100.7-3.1
		c-7.4,3.7-15,7.2-22.5,10.7c-2.1,1-4.1,1.9-6.2,2.9c-5,5.7-9.6,11.9-15,17.2c-32.4,31.6-36.9,70.7-28.3,112.1
		c13.1,63.1,90.1,115.6,171.9,78.2c0.1-0.1,0.3-0.1,0.4-0.2C823.1,596.8,846.8,556.3,841.2,501.1z M718.9,611.6
		c-53.1-0.4-94.5-42.6-94-95.9c0.5-52.5,43.4-94.1,96.3-93.7c53.2,0.4,93.9,42.3,93.5,96.1C814.3,571.5,772.7,612.1,718.9,611.6z"/>
	<path class="st64" d="M380.1,408.8c-43.6,28.7-66,68.1-60.5,121.4c4.4,43.2,29.8,72.2,64.4,94.9c0.1,0,0.1,0.1,0.2,0.1
		c20.6,6.1,41.2,9.7,63.1,9.4c74.6-1.1,130.9-77.3,109.8-149.5c-20.3-69.3-94.1-114.8-176.2-76.7c0,0,0,0,0,0
		C380.5,408.5,380.3,408.7,380.1,408.8z M439.7,611.6c-54.5,0.2-96.7-41.6-96.5-95.8c0.1-53.2,41.6-94.4,95.1-94.7
		c54.1-0.3,97.3,42.3,97.1,95.5C535.2,568.9,492.3,611.4,439.7,611.6z"/>
	<path class="st65" d="M526.8,743.2c-3.7-3.7-6.4-8.7-12.6-8.8v0c0,0,0,0,0,0c-1.2,37.2,32.8,76.6,66.3,76.7
		c35.5,0.1,66.4-35.2,66.3-75.7c-13.4,6.9-21.9,21.1-37.3,25.3C578.8,769.1,550.6,767,526.8,743.2z"/>
	<path class="st66" d="M650.5,700.4c-22.5,16.5-44,30.6-71.6,30.1c-27-0.5-47-17.3-70.9-33.6c2.6,15.4,4.4,26.4,6.2,37.5v0
		c6.2,0.2,8.9,5.1,12.6,8.8c23.7,23.8,52,25.9,82.7,17.5c15.4-4.2,23.9-18.3,37.3-25.3C643.2,723.9,655.3,713.6,650.5,700.4z"/>
	<path class="st67" d="M499.8,270.3c-17.7,0.3-26,10.4-27.6,25.3c0.3,20.4,12.1,29.3,27.8,29.1c14.9-0.3,26.3-11.9,26.6-26.6
		C526.9,282.5,518.5,269.9,499.8,270.3z"/>
	<path class="st68" d="M315.6,670.7c0.7-8.5-1-15.9-6.4-23.3c-9-12.3-17.6-25.2-24.5-38.8c-42.6-83.8-49.2-170.6-17.3-259.2
		c19.8-55,53.4-100.4,98.7-138.3c16.7-14,41.6-20,49.9-43.4c0.4-1.1,0.8-2.3,1.1-3.5c-7.5-4.9-13.7-10.8-24.5-4.2
		c-63.8,39-111.3,91.5-142.2,160.2c-24.3,54.1-29.5,110.3-26.7,168.1c3.2,65.3,26.3,123.5,64.7,175.9c6.9,9.4,15.5,15.3,27.2,6.8
		c0,0,0,0,0,0C315.6,670.9,315.6,670.8,315.6,670.7z"/>
	<path class="st69" d="M467.1,146.1c0.2-0.1,0.4-0.3,0.6-0.4c-0.2-16.3-8.9-28.9-24.4-25.2c-15.4,3.7-15.1,19-8.7,32.4
		c0.3,0.7,0.6,1.4,0.9,2.1c0.8,0.6,1.6,1.1,2.3,1.5C450.9,164.4,458,151.8,467.1,146.1z"/>
	<path class="st0" d="M814.7,518.2c0.4-53.7-40.3-95.6-93.5-96.1c-53-0.4-95.8,41.2-96.3,93.7c-0.5,53.2,40.9,95.4,94,95.9
		C772.7,612.1,814.3,571.5,814.7,518.2z M723.6,528.6c-18,0.3-28.5-9.9-30.1-27.6c-1.5-16.5,13.3-31.9,29.7-30.8
		c17.6,1.3,27.5,11.6,29.6,30C750.4,516.6,742,528.3,723.6,528.6z"/>
	<path class="st0" d="M438.3,421.2c-53.5,0.3-94.9,41.5-95.1,94.7c-0.1,54.2,42,96,96.5,95.8c52.6-0.2,95.5-42.7,95.7-94.9
		C535.5,463.5,492.3,420.9,438.3,421.2z M438.4,528.6c-17.8,0.2-28.5-10-29.9-27.9c-1.3-16.5,13.6-31.8,30.1-30.4
		c17.4,1.5,27.6,11.6,29.2,30C465.6,517.2,456.4,528.4,438.4,528.6z"/>
	<path class="st70" d="M723.2,470.2c-16.4-1.2-31.2,14.2-29.7,30.8c1.6,17.8,12.1,27.9,30.1,27.6c18.3-0.3,26.8-12,29.2-28.4
		C750.7,481.8,740.8,471.5,723.2,470.2z"/>
	<path class="st71" d="M438.6,470.3c-16.5-1.4-31.4,13.9-30.1,30.4c1.4,17.9,12.1,28.1,29.9,27.9c18-0.2,27.2-11.4,29.4-28.3
		C466.1,481.8,455.9,471.7,438.6,470.3z"/>
</g>
</svg>
