<?xml version="1.0" encoding="utf-8"?>
<!-- Generator: Adobe Illustrator 28.1.0, SVG Export Plug-In . SVG Version: 6.00 Build 0)  -->
<svg version="1.1" id="Livello_1" xmlns="http://www.w3.org/2000/svg" xmlns:xlink="http://www.w3.org/1999/xlink" x="0px" y="0px"
	 viewBox="0 0 425.2 283.46" style="enable-background:new 0 0 425.2 283.46;" xml:space="preserve">
<style type="text/css">
	.st0{fill:#0063AF;}
	.st1{fill:#EA580C;}
	.st2{fill-rule:evenodd;clip-rule:evenodd;fill:#FFFFFF;}
	.st3{fill:#0063AE;}
</style>
<g>
	<path class="st0" d="M136.15,186.13l6.58,5.86c-5.16,5.27-12.51,8.57-20.68,8.57c-15.63,0-28.29-12.08-28.29-26.99
		c0-14.91,12.66-26.99,28.29-26.99c8.17,0,15.52,3.3,20.68,8.57l-6.58,5.86c-3.52-3.6-8.54-5.84-14.1-5.84
		c-10.65,0-19.3,8.24-19.3,18.4c0,10.17,8.65,18.4,19.3,18.4C127.61,191.97,132.63,189.73,136.15,186.13z"/>
	<g>
		<path class="st1" d="M271.65,135.83c-0.03-0.86-0.06-2.48-0.09-4.97c-0.03-2.5-0.08-4.24-0.14-5.17c-0.09-1.3-0.25-2.09-0.53-2.73
			c-0.67-1.5-2.13-2.34-3.72-2.15c-0.96,0.12-1.81,0.59-2.4,1.34l-0.08-0.02c-0.92-0.23-1.68-0.36-2.33-0.41
			c-0.88-0.06-1.78,0.07-2.7,0.4c-0.57,0.2-1.08,0.39-1.5,0.57c-0.61,0.26-1.17,0.58-1.67,0.96c-0.73,0.57-1.29,1.37-1.71,2.45
			c-0.19,0.49-0.37,0.95-0.54,1.37c-0.17-0.42-0.35-0.89-0.55-1.39c-0.42-1.09-0.98-1.89-1.71-2.45c-0.49-0.38-1.05-0.71-1.67-0.96
			c-0.42-0.17-0.92-0.36-1.5-0.57c-0.91-0.32-1.84-0.46-2.69-0.4c-0.53,0.04-1.12,0.13-1.82,0.28c0.01-0.61,0.02-1.3,0.03-2.09
			c0.09-4.96,0.15-5.66,0.16-5.72c0.18-1.45-0.29-3.29-2.15-4.1c-1.35-0.58-2.78-0.41-3.82,0.46c-0.95,0.8-1.11,1.81-1.2,2.77
			c-0.08,0.97-0.13,2.71-0.15,5.49c-0.02,1.82-0.03,3.31-0.05,4.45c-0.6-1.22-1.31-2.05-2.47-2.41c-1.06-0.33-2.21-0.19-3.24,0.37
			c-0.45,0.25-0.84,0.59-1.15,1c-0.07-0.19-0.15-0.37-0.25-0.55c-0.48-0.87-1.28-1.48-2.25-1.71c-1.08-0.26-2.22-0.02-3.22,0.67
			l-0.07,0.05c-0.38,0.26-0.68,0.61-0.88,1.01l-0.04,0.09c-0.48,0.97-0.86,1.79-1.15,2.48c-0.26-0.3-0.57-0.56-0.92-0.78
			c-0.05-0.03-0.21-0.14-0.56-0.43c-0.74-0.61-1.56-1.04-2.45-1.27c-0.66-0.17-1.41-0.29-2.24-0.33c-0.91-0.05-1.83,0.04-2.74,0.27
			c-0.12,0.03-0.23,0.06-0.34,0.09c-1.1-0.65-2.5-0.66-3.62-0.02c-0.4,0.23-0.76,0.54-1.05,0.92c-0.71-1.32-2.12-2.07-3.58-1.89
			c-0.96,0.12-1.81,0.59-2.4,1.34l-0.08-0.02c-0.92-0.23-1.68-0.36-2.33-0.41c-0.85-0.06-1.78,0.07-2.7,0.4
			c-0.57,0.2-1.07,0.39-1.5,0.57c-0.61,0.26-1.17,0.58-1.67,0.96c-0.73,0.57-1.29,1.37-1.71,2.45c-0.21,0.54-0.41,1.04-0.59,1.5
			c-0.29,0.72-0.48,1.55-0.57,2.44c-0.07,0.65-0.12,1.27-0.15,1.83c-0.04,0.64-0.04,1.29,0,1.93c0.06,1.07,0.37,2.03,0.92,2.85
			l0.74,1.11c0.47,0.7,1.15,1.36,2.05,1.95c0.94,0.63,1.76,0.98,2.58,1.12c0.39,0.06,0.92,0.15,1.59,0.24
			c0.86,0.12,1.59,0.16,2.24,0.12c0.79-0.06,1.59-0.3,2.42-0.73c0.62,0.51,1.38,0.79,2.19,0.79c0.95,0,2.13-0.43,2.84-1.58
			c0.41,0.64,0.94,1.01,1.34,1.21c1.42,0.71,3.18,0.33,4.21-0.91c0.74-0.9,0.94-1.92,0.89-4.55c-0.03-1.47-0.05-3.05-0.05-4.69
			c0-0.81,0-1.37-0.01-1.78c0.07-0.07,0.14-0.14,0.23-0.21c0.01-0.01,0.08-0.06,0.29-0.1c0.12-0.02,0.23-0.04,0.32-0.04
			c0.43,0.38,0.76,0.64,1.07,0.82c0.06,0.04,0.17,0.11,0.35,0.24c1.19,0.85,2.6,1,3.79,0.45c-0.02,0.44-0.02,0.8-0.01,1.13
			c0.05,1.15,0.41,2.24,1.09,3.25c0.58,0.87,1.27,1.57,2.04,2.08c0.58,0.38,1.17,0.71,1.78,0.97c0.84,0.37,1.7,0.56,2.55,0.56h1.7
			c0.98,0,1.71-0.07,2.3-0.22c0.68-0.17,1.42-0.52,2.4-1.14c0.71-0.45,1.3-0.98,1.77-1.57c-0.01,0.26-0.01,0.48-0.02,0.66
			c-0.04,1.19-0.01,1.94,0.1,2.5c0.43,2.15,2.08,2.91,3.36,2.91c0.81,0,1.56-0.27,2.19-0.79c0.81,0.42,1.63,0.67,2.43,0.73
			c0.63,0.05,1.36,0.01,2.23-0.11c0.69-0.1,1.21-0.18,1.6-0.24c0.82-0.14,1.63-0.49,2.57-1.12c0.89-0.59,1.58-1.25,2.04-1.95
			l0.74-1.11c0.05-0.08,0.1-0.15,0.15-0.24c0.05,0.09,0.1,0.18,0.16,0.26l0.74,1.11c0.47,0.7,1.16,1.36,2.05,1.95
			c0.94,0.63,1.76,0.98,2.58,1.12c0.39,0.06,0.92,0.15,1.59,0.24c0.87,0.12,1.6,0.16,2.24,0.11c0.78-0.06,1.58-0.3,2.42-0.73
			c0.62,0.51,1.38,0.79,2.19,0.79c1.28,0,2.92-0.76,3.36-2.91C271.66,137.76,271.69,137.01,271.65,135.83z M262.65,133.84
			c-0.39-0.09-0.78-0.21-1.15-0.35c-0.27-0.1-0.37-0.17-0.37-0.18c-0.13-0.1-0.26-0.21-0.39-0.31c-0.02-0.36-0.03-0.81-0.03-1.33
			c0-0.61,0.08-1.16,0.25-1.64c0.06-0.17,0.23-0.38,0.46-0.6c0.15-0.07,0.29-0.14,0.42-0.21h0.85c0.17,0,0.35,0.01,0.53,0.03
			c0.11,0.1,0.17,0.17,0.17,0.17c0.01,0.02,0.14,0.23,0.43,0.88c0.15,0.35,0.25,0.69,0.26,0.92c0.01,0.3-0.02,0.59-0.09,0.87
			c-0.07,0.28-0.21,0.58-0.41,0.9c-0.24,0.38-0.42,0.55-0.51,0.62C262.95,133.73,262.81,133.8,262.65,133.84z M247.76,131.66
			c0,0.52-0.01,0.96-0.03,1.33c-0.13,0.1-0.27,0.21-0.4,0.31c0,0-0.1,0.07-0.37,0.17c-0.39,0.15-0.77,0.26-1.16,0.35
			c-0.15-0.04-0.29-0.12-0.41-0.21c-0.07-0.05-0.26-0.22-0.51-0.62c-0.2-0.32-0.34-0.62-0.41-0.9c-0.07-0.28-0.1-0.57-0.09-0.87
			c0.01-0.24,0.1-0.57,0.26-0.92c0.23-0.54,0.36-0.78,0.4-0.84c0.03-0.03,0.09-0.1,0.19-0.21c0.19-0.02,0.37-0.03,0.54-0.03h0.85
			c0.13,0.07,0.27,0.14,0.42,0.21c0.24,0.22,0.41,0.44,0.46,0.6C247.68,130.5,247.76,131.05,247.76,131.66z M230.96,128.68
			c0,0.57-0.04,1.07-0.12,1.43c-0.07,0.32-0.11,0.43-0.1,0.42c0,0-0.08,0.12-0.32,0.34c-0.02,0.02-0.05,0.04-0.14,0.07
			c-0.54,0.15-0.94,0.15-1.35,0.03c-0.12-0.03-0.23-0.09-0.32-0.17c-0.01-0.01-0.02-0.02-0.03-0.03c-0.02-0.11-0.04-0.29-0.06-0.53
			c-0.04-0.46,0-0.89,0.1-1.28c0.15-0.59,0.36-1.21,0.62-1.86c0.21-0.53,0.34-0.8,0.4-0.91c0.09-0.12,0.17-0.25,0.25-0.38
			c0.03,0.09,0.07,0.18,0.11,0.27c0.23,0.52,0.51,1.11,0.83,1.77C230.91,128.08,230.96,128.35,230.96,128.68z M200.41,133.84
			c-0.4-0.09-0.79-0.21-1.15-0.35c-0.27-0.1-0.36-0.17-0.37-0.17c-0.13-0.1-0.27-0.21-0.4-0.31c-0.02-0.37-0.03-0.81-0.03-1.33
			c0-0.61,0.08-1.16,0.25-1.64c0.06-0.17,0.22-0.38,0.46-0.6c0.15-0.07,0.29-0.14,0.42-0.21h0.85c0.17,0,0.35,0.01,0.53,0.03
			c0.08,0.08,0.14,0.14,0.18,0.19c0.03,0.05,0.16,0.28,0.41,0.86c0.16,0.36,0.25,0.69,0.26,0.92l0,0c0.01,0.3-0.01,0.59-0.09,0.87
			c-0.07,0.28-0.21,0.58-0.42,0.9c-0.25,0.39-0.44,0.56-0.51,0.62C200.71,133.73,200.57,133.8,200.41,133.84z"/>
		<g id="inside_00000152944989308468311980000013070868100107680445_" transform="translate(7.999950, 8.000029)">
			<g id="Fill-17_00000174596911650036225750000013101072899217344932_">
				<path class="st2" d="M188.18,121.17c-0.26,0.76-0.4,1.6-0.4,2.51c0,0.94,0.03,1.67,0.09,2.17c0.05,0.41,0.18,0.7,0.4,0.85
					c0.31,0.22,0.63,0.46,0.94,0.71c0.28,0.22,0.65,0.42,1.1,0.59c0.48,0.18,0.97,0.33,1.48,0.45c0.46,0.11,0.92,0.09,1.38-0.04
					c0.48-0.14,0.92-0.37,1.31-0.68c0.4-0.31,0.77-0.75,1.12-1.29c0.35-0.55,0.6-1.11,0.74-1.65c0.14-0.55,0.2-1.12,0.17-1.69
					c-0.03-0.57-0.19-1.19-0.48-1.86c-0.37-0.85-0.58-1.21-0.7-1.36c-0.17-0.23-0.42-0.49-0.74-0.78c-0.29-0.26-0.6-0.41-0.96-0.46
					c-0.41-0.06-0.82-0.09-1.2-0.09h-1.15c-0.37,0-0.55,0.07-0.63,0.12c-0.2,0.13-0.5,0.29-0.94,0.47
					C188.95,119.77,188.43,120.45,188.18,121.17 M197.95,130.55c-0.23,0-0.55-0.1-0.78-0.57c-0.09-0.19-0.19-0.6-0.22-2.11
					l-1.04,1.13c-0.39,0.43-0.85,0.78-1.34,1.04c-0.5,0.27-0.99,0.42-1.44,0.46c-0.43,0.03-0.97,0-1.65-0.09
					c-0.65-0.09-1.16-0.17-1.53-0.23c-0.42-0.07-0.92-0.3-1.53-0.7c-0.59-0.39-1.03-0.8-1.3-1.21l-0.74-1.11
					c-0.28-0.42-0.44-0.93-0.48-1.52c-0.03-0.53-0.03-1.08,0-1.61c0.03-0.53,0.08-1.11,0.14-1.72c0.06-0.65,0.2-1.22,0.39-1.71
					c0.18-0.46,0.38-0.97,0.6-1.52c0.24-0.62,0.52-1.05,0.85-1.31c0.3-0.23,0.66-0.44,1.05-0.6c0.38-0.16,0.83-0.33,1.36-0.51
					c0.57-0.2,1.11-0.29,1.62-0.25c0.48,0.03,1.11,0.14,1.86,0.33c0.76,0.19,1.38,0.4,1.83,0.63c0.3,0.15,0.57,0.34,0.8,0.55
					c-0.03-0.28-0.06-0.54-0.08-0.75c-0.04-0.39,0-0.74,0.11-1.04c0.14-0.37,0.42-0.6,0.8-0.65c0.4-0.05,0.74,0.16,0.93,0.58
					c0.14,0.32,0.24,0.9,0.31,1.83c0.06,0.86,0.11,2.55,0.14,5.01c0.03,2.45,0.06,4.14,0.09,5.02c0.03,0.93,0.01,1.55-0.05,1.88
					C198.54,130.46,198.16,130.55,197.95,130.55"/>
			</g>
			<g id="Fill-19_00000042703449645553807740000014387307068377487534_">
				<path class="st2" d="M203.66,130.55c-0.11,0-0.23-0.03-0.34-0.08c-0.31-0.16-0.48-0.53-0.52-1.13
					c-0.03-0.46-0.2-4.22-0.51-11.68v-0.23l0.04-0.38c0.04-0.38,0.24-0.74,0.57-0.92c0.14-0.08,0.27-0.12,0.41-0.12
					c0.29,0,0.61,0.09,0.74,0.37c0.2,0.4,0.18,1,0.22,1.15c0.07-0.07,0.15-0.16,0.25-0.26c0.42-0.45,0.97-0.77,1.66-0.94
					c0.65-0.16,1.3-0.23,1.95-0.2c0.64,0.03,1.2,0.11,1.69,0.24c0.52,0.14,1,0.4,1.42,0.75c0.34,0.28,0.63,0.5,0.85,0.64
					c0.34,0.21,0.54,0.48,0.58,0.81c0.04,0.31-0.03,0.6-0.21,0.83c-0.24,0.3-0.51,0.37-0.7,0.37c-0.23,0-0.48-0.1-0.76-0.3
					c-0.21-0.15-0.39-0.27-0.53-0.35c-0.18-0.11-0.44-0.32-0.8-0.64c-0.29-0.27-0.63-0.43-1.03-0.51c-0.41-0.08-0.91-0.07-1.47,0.05
					c-0.56,0.11-1.03,0.32-1.42,0.62c-0.4,0.31-0.73,0.67-0.98,1.07c-0.19,0.3-0.27,0.45-0.31,0.51c0.04,0.28,0.04,0.92,0.04,2.52
					c0,1.67,0.02,3.26,0.05,4.75c0.05,2.21-0.11,2.59-0.27,2.78C204.1,130.45,203.89,130.55,203.66,130.55"/>
			</g>
			<g id="Fill-21_00000147938276960383075970000002145160466926209408_">
				<path class="st2" d="M222.37,127.39h-1.7c-0.48,0-0.98-0.11-1.47-0.33c-0.47-0.21-0.94-0.46-1.38-0.76
					c-0.47-0.31-0.9-0.76-1.29-1.33c-0.4-0.59-0.61-1.22-0.64-1.86c-0.02-0.59,0.01-1.29,0.09-2.07c0.09-0.78,0.21-1.52,0.36-2.22
					c0.16-0.72,0.69-1.98,1.62-3.86l0.04-0.08l0.08-0.05c0.31-0.21,0.59-0.32,0.85-0.32c0.32,0,0.58,0.16,0.73,0.44
					c0.13,0.24,0.17,0.51,0.13,0.82c-0.04,0.29-0.17,0.59-0.39,0.89c-0.11,0.16-0.33,0.54-0.7,1.46c-0.3,0.75-0.54,1.49-0.72,2.18
					c-0.17,0.67-0.23,1.4-0.17,2.16c0.07,0.93,0.22,1.37,0.33,1.58c0.16,0.3,0.42,0.6,0.78,0.88c0.36,0.29,0.77,0.5,1.21,0.63
					c0.9,0.27,1.81,0.27,2.83,0c0.49-0.13,0.91-0.36,1.27-0.69c0.37-0.34,0.64-0.66,0.81-0.94c0.16-0.28,0.31-0.69,0.42-1.23
					c0.12-0.55,0.18-1.22,0.18-1.99c0-0.74-0.14-1.41-0.43-1.99c-0.31-0.63-0.57-1.2-0.79-1.69c-0.41-0.93,0.07-1.32,0.29-1.44
					c0.39-0.22,0.78-0.27,1.16-0.16c0.31,0.09,0.68,0.42,1.33,2.19c0.47,1.27,0.7,2.35,0.7,3.22c0,0.85-0.06,1.6-0.19,2.22
					c-0.13,0.62-0.32,1.23-0.58,1.8c-0.27,0.61-0.78,1.15-1.51,1.61c-0.71,0.45-1.24,0.71-1.62,0.81
					C223.65,127.35,223.11,127.39,222.37,127.39"/>
			</g>
			<g id="Fill-23_00000156570196363961964640000005447674185169796758_">
				<path class="st2" d="M237.78,118.53c-0.38,0-0.78,0.03-1.2,0.09c-0.36,0.05-0.68,0.2-0.96,0.46c-0.32,0.29-0.57,0.55-0.74,0.78
					c-0.11,0.15-0.33,0.51-0.7,1.36c-0.29,0.66-0.45,1.29-0.48,1.86c-0.03,0.58,0.03,1.14,0.17,1.69c0.14,0.55,0.39,1.1,0.74,1.65
					c0.35,0.55,0.72,0.98,1.12,1.29c0.39,0.31,0.83,0.54,1.31,0.68c0.46,0.14,0.93,0.15,1.38,0.04c0.5-0.12,1-0.27,1.48-0.45
					c0.45-0.17,0.82-0.37,1.1-0.59c0.31-0.25,0.63-0.49,0.94-0.71c0.22-0.15,0.35-0.44,0.4-0.85c0.06-0.51,0.09-1.24,0.09-2.17
					c0-0.91-0.13-1.75-0.4-2.51c-0.25-0.72-0.77-1.4-1.55-2.02c-0.43-0.19-0.74-0.34-0.94-0.47c-0.08-0.06-0.26-0.12-0.63-0.12
					H237.78z M232.28,130.53c-0.21,0-0.59-0.1-0.72-0.75c-0.07-0.34-0.09-0.95-0.05-1.88c0.03-0.89,0.06-2.58,0.09-5.02
					c0.03-2.46,0.08-4.14,0.14-5.01c0.06-0.85,0.11-3.22,0.14-7.04c0.05-5.94,0.21-6.07,0.39-6.23c0.18-0.15,0.5-0.28,1.02-0.06
					c0.31,0.13,0.65,0.47,0.55,1.3c-0.06,0.48-0.12,2.5-0.18,6.01c-0.06,3.5-0.08,5.6-0.05,6.24c0.28-0.31,0.61-0.56,1-0.76
					c0.45-0.23,1.07-0.44,1.83-0.63c0.75-0.19,1.38-0.3,1.86-0.33c0.51-0.03,1.05,0.05,1.62,0.25c0.53,0.19,0.98,0.36,1.36,0.51
					c0.4,0.17,0.75,0.37,1.05,0.6c0.33,0.26,0.61,0.69,0.85,1.31c0.22,0.55,0.41,1.06,0.6,1.52c0.2,0.49,0.33,1.07,0.39,1.71
					c0.06,0.62,0.11,1.2,0.14,1.72c0.03,0.54,0.03,1.08,0,1.61c-0.03,0.59-0.19,1.1-0.48,1.52l-0.74,1.11
					c-0.27,0.41-0.71,0.81-1.3,1.21c-0.6,0.4-1.1,0.63-1.53,0.7c-0.36,0.06-0.86,0.14-1.53,0.23c-0.68,0.1-1.22,0.13-1.65,0.09
					c-0.45-0.03-0.93-0.19-1.43-0.46c-0.5-0.26-0.95-0.61-1.34-1.04l-1.04-1.13c-0.03,1.51-0.12,1.92-0.22,2.11
					C232.83,130.43,232.51,130.53,232.28,130.53L232.28,130.53z"/>
			</g>
			<g id="Fill-25_00000023242562947481902930000013282048202671959947_">
				<path class="st2" d="M250.42,121.17c-0.26,0.76-0.4,1.6-0.4,2.51c0,0.94,0.03,1.67,0.09,2.17c0.05,0.41,0.18,0.7,0.4,0.85
					c0.31,0.22,0.63,0.46,0.94,0.71c0.28,0.22,0.65,0.42,1.1,0.59c0.48,0.18,0.97,0.33,1.48,0.45c0.46,0.11,0.92,0.09,1.39-0.04
					c0.48-0.14,0.92-0.37,1.31-0.68c0.4-0.31,0.77-0.75,1.12-1.29c0.35-0.55,0.6-1.11,0.74-1.65c0.14-0.55,0.2-1.11,0.17-1.69
					c-0.03-0.57-0.19-1.19-0.48-1.86c-0.37-0.85-0.58-1.21-0.7-1.36c-0.17-0.23-0.42-0.49-0.74-0.78c-0.29-0.26-0.6-0.41-0.96-0.46
					c-0.41-0.06-0.82-0.09-1.2-0.09h-1.15c-0.37,0-0.55,0.07-0.63,0.12c-0.2,0.13-0.5,0.29-0.94,0.47
					C251.19,119.77,250.67,120.45,250.42,121.17L250.42,121.17z M260.19,130.55c-0.23,0-0.55-0.1-0.78-0.57
					c-0.09-0.19-0.19-0.6-0.22-2.11l-1.04,1.13c-0.4,0.43-0.85,0.78-1.34,1.04c-0.5,0.27-0.99,0.42-1.43,0.46
					c-0.43,0.03-0.97,0-1.65-0.09c-0.65-0.09-1.16-0.17-1.53-0.23c-0.42-0.07-0.92-0.3-1.53-0.7c-0.59-0.39-1.03-0.8-1.3-1.21
					l-0.74-1.11c-0.28-0.42-0.44-0.93-0.48-1.52c-0.03-0.53-0.03-1.08,0-1.61c0.03-0.52,0.08-1.1,0.14-1.72
					c0.06-0.65,0.2-1.22,0.39-1.71c0.18-0.46,0.38-0.97,0.6-1.52c0.24-0.62,0.52-1.05,0.85-1.31c0.3-0.23,0.65-0.44,1.05-0.6
					c0.38-0.16,0.83-0.33,1.36-0.52c0.57-0.2,1.11-0.28,1.62-0.25c0.48,0.03,1.11,0.14,1.86,0.33c0.76,0.19,1.38,0.4,1.83,0.63
					c0.3,0.15,0.57,0.34,0.8,0.55c-0.03-0.28-0.06-0.53-0.08-0.75c-0.04-0.39,0-0.74,0.11-1.04c0.14-0.37,0.42-0.6,0.8-0.65
					c0.4-0.05,0.74,0.16,0.93,0.58c0.14,0.32,0.24,0.9,0.31,1.83c0.06,0.87,0.11,2.55,0.14,5.01c0.03,2.49,0.06,4.14,0.09,5.02
					c0.03,0.93,0.01,1.54-0.05,1.88C260.78,130.46,260.4,130.55,260.19,130.55L260.19,130.55z"/>
			</g>
		</g>
	</g>
	<g>
		<path class="st0" d="M295.51,138.47h-9.12c0-27.81-22.63-50.44-50.44-50.44c-16.64,0-32.2,8.21-41.62,21.95l-2.46,3.59l-3.7-2.3
			c-4.7-2.92-10.12-4.46-15.67-4.46c-16.41,0-29.77,13.35-29.77,29.77h-9.12c0-21.44,17.44-38.89,38.89-38.89
			c5.83,0,11.55,1.3,16.76,3.8c11.27-14.22,28.43-22.59,46.69-22.59C268.79,78.91,295.51,105.63,295.51,138.47z"/>
	</g>
	<path class="st0" d="M271.66,153.49v25.06c0,8.6-3.49,12.27-11.68,12.27c-8.23,0-11.75-3.67-11.75-12.27v-25.06h-8.57v25.06
		c0,13.25,7.4,20.84,20.32,20.84c12.87,0,20.25-7.6,20.25-20.84v-25.06H271.66z"/>
	<path class="st3" d="M271.44,153.49"/>
	<polygon class="st0" points="156.56,162.29 156.52,153.49 147.99,153.49 147.99,199.01 182.12,199.01 182.12,190.45 156.56,190.45 
			"/>
	<path class="st0" d="M209.54,152.84c-14.21,0-24.53,9.85-24.53,23.41c0,13.57,10.32,23.42,24.53,23.42
		c14.22,0,24.53-9.85,24.53-23.42C234.07,162.69,223.76,152.84,209.54,152.84z M209.54,191.1c-9.4,0-15.96-6.11-15.96-14.85
		c0-8.74,6.56-14.85,15.96-14.85c9.4,0,15.96,6.11,15.96,14.85C225.51,185,218.94,191.1,209.54,191.1z"/>
	<g>
		<path class="st0" d="M306.57,153.49h-19.87v45.52h19.87c14.87,0,24.86-9.15,24.86-22.76
			C331.44,162.64,321.44,153.49,306.57,153.49z M306.57,190.44h-11.3v-28.36l11.3-0.01c10.2,0,16.29,5.3,16.29,14.19
			C322.87,185.14,316.78,190.44,306.57,190.44z"/>
	</g>
</g>
</svg>
