<svg xmlns="http://www.w3.org/2000/svg" xmlns:xlink="http://www.w3.org/1999/xlink" width="1132.42" height="1178" viewBox="0 0 1132.42 1178">
  <defs>
    <linearGradient id="linear-gradient" x1="0.5" x2="0.5" y2="1" gradientUnits="objectBoundingBox">
      <stop offset="0" stop-color="#70d0d3"/>
      <stop offset="1" stop-color="#048a8f"/>
    </linearGradient>
    <clipPath id="clip-aserto-vertical-color">
      <rect width="1132.42" height="1178"/>
    </clipPath>
  </defs>
  <g id="aserto-vertical-color" clip-path="url(#clip-aserto-vertical-color)">
    <g id="Group_1" data-name="Group 1" transform="translate(-581.001 -78.674)">
      <g id="Group_3" data-name="Group 3" transform="translate(580.586 992.674)">
        <path id="Path_2" data-name="Path 2" d="M533.966,307.581q-5.124-14.99-10.613-29.62t-10.61-29.987H405.875q-5.124,15.357-10.431,30.167t-10.428,29.439H337.183Q351.4,267,364.174,232.624t24.992-65.106Q401.378,136.8,413.419,109t24.812-54.855h43.908Q494.914,81.219,506.964,109t24.275,58.515q12.236,30.715,25.2,65.1t27.2,74.957ZM459.305,103.153q-8.4,19.388-19.167,47.178t-22.449,60.34h83.23q-11.687-32.544-22.633-60.707t-18.982-46.811" transform="translate(-337.183 -54.149)"/>
        <path id="Path_3" data-name="Path 3" d="M537.46,247.916q17.517,0,25.555-4.206t8.029-14.442a18.749,18.749,0,0,0-8.578-15.729q-8.583-6.214-28.3-13.533a222.249,222.249,0,0,1-22.086-9.321,75.185,75.185,0,0,1-17.339-11.519,47.155,47.155,0,0,1-11.5-15.908,55.514,55.514,0,0,1-4.2-22.856q0-26.336,19.351-41.508t52.566-15.178a161.683,161.683,0,0,1,32.124,3.107,156.624,156.624,0,0,1,23,6.033L598.054,128.7a107.856,107.856,0,0,0-18.621-6.036,112.389,112.389,0,0,0-26.282-2.746q-13.512,0-21.9,4.571a15.014,15.014,0,0,0-8.4,14.081,20.31,20.31,0,0,0,1.642,8.414,18.045,18.045,0,0,0,5.658,6.764,57.461,57.461,0,0,0,10.585,6.214,162.055,162.055,0,0,0,16.063,6.4,245.916,245.916,0,0,1,26.651,11.521,72.247,72.247,0,0,1,18.07,12.8,43.8,43.8,0,0,1,10.4,16.275,65.1,65.1,0,0,1,3.284,21.943q0,27.431-20.26,41.508T537.09,284.485q-25.2,0-40.513-4.206a208.085,208.085,0,0,1-21.538-6.764l7.667-36.937a197.557,197.557,0,0,0,23.546,7.68,121.286,121.286,0,0,0,31.208,3.655" transform="translate(-207.815 -31.285)"/>
        <path id="Path_4" data-name="Path 4" d="M564.123,185.022a120.319,120.319,0,0,1,7.485-44.25A92.953,92.953,0,0,1,591.5,109.131a82.317,82.317,0,0,1,28.476-19.015,88.059,88.059,0,0,1,32.854-6.408q39.428,0,61.514,24.5t22.081,73.159q0,3.662-.183,8.23t-.547,8.23H609.753q1.824,23.036,16.246,35.657t41.8,12.622a136.905,136.905,0,0,0,29.386-2.924,120.774,120.774,0,0,0,20.988-6.214l5.844,36.2a69.808,69.808,0,0,1-10.04,3.839,139.966,139.966,0,0,1-14.6,3.658q-8.215,1.645-17.705,2.744a168.326,168.326,0,0,1-19.349,1.1q-25.187,0-43.808-7.5a81.463,81.463,0,0,1-30.664-20.844,85.394,85.394,0,0,1-17.889-31.449,128.6,128.6,0,0,1-5.842-39.681m128.131-19.747a58.449,58.449,0,0,0-2.554-17.37,41.967,41.967,0,0,0-7.485-14.265,35.422,35.422,0,0,0-12.047-9.515,38.383,38.383,0,0,0-16.974-3.476,39.491,39.491,0,0,0-17.89,3.839,40.793,40.793,0,0,0-12.957,10.061,45.907,45.907,0,0,0-8.215,14.261,77.211,77.211,0,0,0-4.017,16.458Z" transform="translate(-124.237 -31.291)"/>
        <path id="Path_5" data-name="Path 5" d="M786.834,127.983a142.459,142.459,0,0,0-15.149-3.843,111.64,111.64,0,0,0-22.451-2.008,89.189,89.189,0,0,0-15.507,1.46,94.078,94.078,0,0,0-11.5,2.56V279.382H678.049V97.262a243.285,243.285,0,0,1,31.939-8.96A199.038,199.038,0,0,1,752.52,84.1q4.38,0,10.219.548t11.684,1.464q5.836.915,11.316,2.194t8.76,2.379Z" transform="translate(-17.304 -25.839)"/>
        <path id="Path_6" data-name="Path 6" d="M753.759,63.722l44.172-7.313V114.19h67.9v36.937h-67.9v77.9q0,23.036,7.3,32.913t24.824,9.875a80.748,80.748,0,0,0,21.355-2.559A142.744,142.744,0,0,0,866.2,264.5l7.3,35.109a165.363,165.363,0,0,1-20.078,6.764,109.1,109.1,0,0,1-29.2,3.476q-20.451,0-34.135-5.488a50.3,50.3,0,0,1-21.72-15.906,63.122,63.122,0,0,1-11.317-25.245,156.973,156.973,0,0,1-3.285-33.826Z" transform="translate(53.734 -56.409)"/>
        <path id="Path_7" data-name="Path 7" d="M1010.084,183.922a123.644,123.644,0,0,1-6.571,41.325A91.5,91.5,0,0,1,984.9,257.063a83.645,83.645,0,0,1-29.029,20.481,93.665,93.665,0,0,1-37.411,7.313,92.317,92.317,0,0,1-37.235-7.313,84.061,84.061,0,0,1-28.838-20.481,93.721,93.721,0,0,1-18.8-31.816,120.518,120.518,0,0,1-6.754-41.325,119,119,0,0,1,6.754-41.143,92.529,92.529,0,0,1,18.983-31.633,83.943,83.943,0,0,1,29.021-20.3,93.4,93.4,0,0,1,36.871-7.131,94.771,94.771,0,0,1,37.054,7.131,81.771,81.771,0,0,1,29.022,20.3,94.181,94.181,0,0,1,18.8,31.633,119.147,119.147,0,0,1,6.756,41.143m-45.266,0q0-28.523-12.23-45.163t-34.134-16.64q-21.9,0-34.132,16.64T872.1,183.922q0,28.9,12.229,45.714t34.132,16.823q21.9,0,34.134-16.823t12.23-45.714" transform="translate(122.31 -31.287)"/>
      </g>
      <path id="Subtraction_117" data-name="Subtraction 117" d="M-3630-3160a424.579,424.579,0,0,1-77.165-7.071,417.494,417.494,0,0,1-72.267-20.293L-3546-3645.1l193.827,380.084a422.673,422.673,0,0,1-59.659,43.98A419.4,419.4,0,0,1-3478.91-3188a417.617,417.617,0,0,1-73.148,20.787A423.292,423.292,0,0,1-3630-3160Zm335.507-167.3L-3630-4000a423.218,423.218,0,0,1,84.646,8.525,417.658,417.658,0,0,1,78.834,24.479,419.927,419.927,0,0,1,71.344,38.727,423.449,423.449,0,0,1,62.167,51.284,424.467,424.467,0,0,1,51.288,62.162A420.629,420.629,0,0,1-3243-3743.475a417.47,417.47,0,0,1,24.469,78.843A423.069,423.069,0,0,1-3210-3580a419.392,419.392,0,0,1-22.354,135.547,418.516,418.516,0,0,1-62.138,117.137Zm-671.015,0a418.287,418.287,0,0,1-62.134-117.133A419.392,419.392,0,0,1-4050-3580a423.567,423.567,0,0,1,8.562-84.823A418.437,418.437,0,0,1-4017-3743.484a420.246,420.246,0,0,1,38.732-71.344,423.932,423.932,0,0,1,51.293-62.162,423.541,423.541,0,0,1,62.157-51.279,420.124,420.124,0,0,1,71.339-38.746,417.915,417.915,0,0,1,78.843-24.46A423.445,423.445,0,0,1-3630-4000Z" transform="translate(4776.335 4078.674)" fill="url(#linear-gradient)"/>
    </g>
  </g>
</svg>
