<?xml version="1.0" encoding="UTF-8"?>
<svg width="1038px" height="282px" viewBox="0 0 1038 282" version="1.1" xmlns="http://www.w3.org/2000/svg" xmlns:xlink="http://www.w3.org/1999/xlink">
    <!-- Generator: Sketch 63.1 (92452) - https://sketch.com -->
    <title>Group 11 Copy</title>
    <desc>Created with Sketch.</desc>
    <defs>
        <linearGradient x1="120.198592%" y1="-32.6321938%" x2="43.7920188%" y2="66.6752628%" id="linearGradient-1">
            <stop stop-color="#00E1C6" offset="0%"></stop>
            <stop stop-color="#3292E1" offset="100%"></stop>
        </linearGradient>
        <linearGradient x1="171.883756%" y1="49.9994737%" x2="10.7761421%" y2="49.9994737%" id="linearGradient-2">
            <stop stop-color="#00E1C6" offset="0%"></stop>
            <stop stop-color="#3292E1" offset="100%"></stop>
        </linearGradient>
        <linearGradient x1="138.328169%" y1="79.8490158%" x2="82.3633803%" y2="47.671097%" id="linearGradient-3">
            <stop stop-color="#1E0B4F" offset="0%"></stop>
            <stop stop-color="#1E0B4F" stop-opacity="0" offset="100%"></stop>
        </linearGradient>
        <linearGradient x1="47.2854406%" y1="-43.1842259%" x2="49.1123127%" y2="24.9875519%" id="linearGradient-4">
            <stop stop-color="#1E0B4F" offset="0%"></stop>
            <stop stop-color="#1E0B4F" stop-opacity="0" offset="100%"></stop>
        </linearGradient>
        <linearGradient x1="0.00606060606%" y1="50%" x2="99.9939394%" y2="50%" id="linearGradient-5">
            <stop stop-color="#00E1C6" offset="0%"></stop>
            <stop stop-color="#3292E1" offset="100%"></stop>
        </linearGradient>
        <linearGradient x1="40.7990028%" y1="107.108421%" x2="76.5574331%" y2="5.47087719%" id="linearGradient-6">
            <stop stop-color="#00E1C6" offset="0%"></stop>
            <stop stop-color="#3292E1" offset="100%"></stop>
        </linearGradient>
    </defs>
    <g id="Symbols" stroke="none" stroke-width="1" fill="none" fill-rule="evenodd">
        <g id="Group-11-Copy" transform="translate(-3.000000, 0.000000)">
            <g id="components/logo" transform="translate(0.000000, 0.000000)">
                <g id="XMLID_308_">
                    <polygon id="XMLID_314_" fill="url(#linearGradient-1)" fill-rule="nonzero" points="126 281.647059 3.70588235 211.235294 161.576471 133.411765 161.576471 220.129412"></polygon>
                    <polygon id="XMLID_313_" fill="url(#linearGradient-2)" fill-rule="nonzero" points="3.70588235 70.4117647 3.70588235 211.235294 149.717647 113.4 74.8588235 70.4117647"></polygon>
                    <polygon id="XMLID_312_" fill="url(#linearGradient-3)" fill-rule="nonzero" points="126 281.647059 3.70588235 211.235294 161.576471 133.411765 161.576471 220.129412"></polygon>
                    <polygon id="XMLID_311_" fill="url(#linearGradient-4)" fill-rule="nonzero" points="3.70588235 70.4117647 3.70588235 211.235294 149.717647 113.4 74.8588235 70.4117647"></polygon>
                    <polygon id="XMLID_310_" fill="url(#linearGradient-5)" fill-rule="nonzero" points="3.70588235 70.4117647 248.294118 70.4117647 126 0"></polygon>
                    <polygon id="XMLID_309_" fill="url(#linearGradient-6)" fill-rule="nonzero" points="248.294118 70.4117647 126 281.647059 248.294118 211.235294"></polygon>
                </g>
            </g>
            <g id="aspecto-logo_white-horizontal" transform="translate(309.756000, 77.564900)" fill="#3391E1">
                <path d="M95.5167,82.7281 L64.9967,14.4231 L34.4777,82.7281 L95.5167,82.7281 Z M100.4207,93.6281 L29.5717,93.6281 L14.3137,127.5991 L0.3237,127.5991 L58.4567,0.4351 L71.7187,0.4351 L129.8507,127.5991 L115.6807,127.5991 L100.4207,93.6281 Z" id="Fill-19"></path>
                <g id="Group-32" transform="translate(134.000000, 10.465000)">
                    <path d="M16.6502,114.6824 C9.5642,112.4424 4.0242,109.6264 0.0262,106.2344 L5.8402,96.0604 C9.8362,99.2124 14.8612,101.7844 20.9182,103.7824 C26.9722,105.7804 33.2722,106.7804 39.8122,106.7804 C48.5322,106.7804 54.9802,105.4164 59.1582,102.6924 C63.3372,99.9664 65.4262,96.1244 65.4262,91.1564 C65.4262,87.6444 64.2742,84.8884 61.9742,82.8904 C59.6722,80.8924 56.7662,79.3804 53.2542,78.3494 C49.7402,77.3224 45.0802,76.3224 39.2662,75.3524 C31.5142,73.8994 25.2782,72.4164 20.5542,70.9014 C15.8322,69.3884 11.8042,66.8134 8.4742,63.1814 C5.1432,59.5474 3.4782,54.5224 3.4782,48.1034 C3.4782,40.1094 6.8082,33.5694 13.4702,28.4834 C20.1292,23.3954 29.3942,20.8534 41.2642,20.8534 C47.4422,20.8534 53.6182,21.6714 59.7942,23.3054 C65.9712,24.9414 71.0572,27.0934 75.0542,29.7554 L69.4222,40.1094 C61.5482,34.6594 52.1642,31.9354 41.2642,31.9354 C33.0262,31.9354 26.8222,33.3874 22.6442,36.2954 C18.4662,39.2014 16.3762,43.0154 16.3762,47.7394 C16.3762,51.3734 17.5582,54.2794 19.9202,56.4594 C22.2802,58.6394 25.2162,60.2444 28.7302,61.2734 C32.2402,62.3034 37.0862,63.3634 43.2642,64.4534 C50.8922,65.9054 57.0062,67.3594 61.6112,68.8124 C66.2122,70.2654 70.1492,72.7484 73.4192,76.2604 C76.6892,79.7744 78.3232,84.6164 78.3232,90.7924 C78.3232,99.1504 74.8412,105.7804 67.8782,110.6844 C60.9122,115.5904 51.2562,118.0424 38.9042,118.0424 C31.1502,118.0424 23.7342,116.9244 16.6502,114.6824" id="Fill-20"></path>
                    <path d="M168.6105,101.9648 C174.0605,98.8768 178.3285,94.4888 181.4185,88.7948 C184.5065,83.1048 186.0505,76.6228 186.0505,69.3568 C186.0505,62.0908 184.5065,55.6408 181.4185,50.0098 C178.3285,44.3788 174.0605,39.9908 168.6105,36.8398 C163.1605,33.6918 157.1035,32.1158 150.4445,32.1158 C143.6595,32.1158 137.5735,33.6918 132.1865,36.8398 C126.7975,39.9908 122.5595,44.3788 119.4715,50.0098 C116.3835,55.6408 114.8375,62.0908 114.8375,69.3568 C114.8375,76.6228 116.3835,83.1048 119.4715,88.7948 C122.5595,94.4888 126.7975,98.8768 132.1865,101.9648 C137.5735,105.0548 143.6595,106.5988 150.4445,106.5988 C157.1035,106.5988 163.1605,105.0548 168.6105,101.9648 M175.6945,26.9398 C182.9625,30.9968 188.6525,36.7208 192.7725,44.1058 C196.8865,51.4948 198.9485,59.9108 198.9485,69.3568 C198.9485,78.9248 196.8865,87.4048 192.7725,94.7908 C188.6525,102.1788 182.9905,107.9008 175.7865,111.9568 C168.5785,116.0158 160.4345,118.0428 151.3525,118.0428 C143.6005,118.0428 136.6075,116.4388 130.3705,113.2288 C124.1315,110.0218 119.0165,105.3268 115.0195,99.1508 L115.0195,152.3758 L102.1215,152.3758 L102.1215,21.5798 L114.4755,21.5798 L114.4755,40.4728 C118.3495,34.1768 123.4675,29.3318 129.8255,25.9398 C136.1835,22.5508 143.3585,20.8538 151.3525,20.8538 C160.3125,20.8538 168.4285,22.8828 175.6945,26.9398" id="Fill-22"></path>
                    <path d="M239.1859,40.7453 C232.9469,46.6213 229.4049,54.2793 228.5579,63.7253 L296.3179,63.7253 C295.4699,54.2793 291.9279,46.6213 285.6909,40.7453 C279.4519,34.8733 271.6719,31.9353 262.3479,31.9353 C253.1419,31.9353 245.4219,34.8733 239.1859,40.7453 L239.1859,40.7453 Z M308.4889,73.3533 L228.5579,73.3533 C229.2839,83.2843 233.0999,91.3103 240.0039,97.4243 C246.9059,103.5403 255.6259,106.5983 266.1619,106.5983 C272.0959,106.5983 277.5459,105.5383 282.5129,103.4183 C287.4779,101.3023 291.7769,98.1823 295.4099,94.0623 L302.6769,102.4203 C298.4339,107.5063 293.1389,111.3843 286.7799,114.0463 C280.4229,116.7123 273.4299,118.0423 265.7999,118.0423 C255.9899,118.0423 247.2979,115.9543 239.7299,111.7743 C232.1599,107.5963 226.2559,101.8143 222.0179,94.4263 C217.7789,87.0403 215.6599,78.6843 215.6599,69.3573 C215.6599,60.0333 217.6869,51.6773 221.7459,44.2873 C225.8019,36.9013 231.3739,31.1493 238.4599,27.0293 C245.5439,22.9133 253.5059,20.8533 262.3479,20.8533 C271.1859,20.8533 279.1219,22.9133 286.1459,27.0293 C293.1659,31.1493 298.6809,36.8713 302.6769,44.1973 C306.6729,51.5253 308.6729,59.9113 308.6729,69.3573 L308.4889,73.3533 Z" id="Fill-24"></path>
                    <path d="M349.2711,111.8664 C341.8231,107.7504 335.9771,101.9644 331.7391,94.5164 C327.5001,87.0684 325.3811,78.6844 325.3811,69.3574 C325.3811,60.0324 327.5001,51.6764 331.7391,44.2874 C335.9771,36.9014 341.8231,31.1494 349.2711,27.0294 C356.7191,22.9134 365.1671,20.8534 374.6131,20.8534 C382.8471,20.8534 390.2051,22.4594 396.6851,25.6674 C403.1631,28.8774 408.2801,33.5694 412.0341,39.7454 L402.4061,46.2854 C399.2571,41.5634 395.2591,38.0194 390.4171,35.6594 C385.5731,33.2974 380.3031,32.1154 374.6131,32.1154 C367.7091,32.1154 361.5011,33.6594 355.9931,36.7494 C350.4791,39.8374 346.1831,44.2274 343.0931,49.9194 C340.0051,55.6124 338.4611,62.0914 338.4611,69.3574 C338.4611,76.7444 340.0051,83.2544 343.0931,88.8864 C346.1831,94.5164 350.4791,98.8764 355.9931,101.9644 C361.5011,105.0544 367.7091,106.5984 374.6131,106.5984 C380.3031,106.5984 385.5731,105.4484 390.4171,103.1464 C395.2591,100.8464 399.2571,97.3324 402.4061,92.6104 L412.0341,99.1504 C408.2801,105.3264 403.1341,110.0224 396.5941,113.2284 C390.0541,116.4384 382.7251,118.0424 374.6131,118.0424 C365.1671,118.0424 356.7191,115.9844 349.2711,111.8664" id="Fill-26"></path>
                    <path d="M488.694,111.3206 C486.27,113.5006 483.272,115.1686 479.702,116.3166 C476.128,117.4666 472.404,118.0426 468.53,118.0426 C459.565,118.0426 452.663,115.6226 447.82,110.7766 C442.975,105.9346 440.553,99.0906 440.553,90.2486 L440.553,32.4796 L423.477,32.4796 L423.477,21.5796 L440.553,21.5796 L440.553,0.6876 L453.452,0.6876 L453.452,21.5796 L482.518,21.5796 L482.518,32.4796 L453.452,32.4796 L453.452,89.5206 C453.452,95.2166 454.873,99.5446 457.72,102.5106 C460.565,105.4796 464.653,106.9606 469.982,106.9606 C472.645,106.9606 475.22,106.5386 477.704,105.6906 C480.184,104.8446 482.336,103.6326 484.152,102.0566 L488.694,111.3206 Z" id="Fill-28"></path>
                    <path d="M566.1714,101.9648 C571.5594,98.8768 575.7674,94.4888 578.7974,88.7948 C581.8234,83.1048 583.3394,76.6228 583.3394,69.3568 C583.3394,62.0908 581.8234,55.6128 578.7974,49.9188 C575.7674,44.2268 571.5594,39.8378 566.1714,36.7498 C560.7814,33.6598 554.6954,32.1158 547.9134,32.1158 C541.1304,32.1158 535.0444,33.6598 529.6574,36.7498 C524.2664,39.8378 520.0294,44.2268 516.9404,49.9188 C513.8524,55.6128 512.3084,62.0908 512.3084,69.3568 C512.3084,76.6228 513.8524,83.1048 516.9404,88.7948 C520.0294,94.4888 524.2664,98.8768 529.6574,101.9648 C535.0444,105.0548 541.1304,106.5988 547.9134,106.5988 C554.6954,106.5988 560.7814,105.0548 566.1714,101.9648 M523.0264,111.7748 C515.6384,107.5968 509.8244,101.8148 505.5864,94.4268 C501.3464,87.0408 499.2284,78.6848 499.2284,69.3568 C499.2284,60.0328 501.3464,51.6768 505.5864,44.2878 C509.8244,36.9008 515.6384,31.1488 523.0264,27.0298 C530.4124,22.9138 538.7094,20.8538 547.9134,20.8538 C557.1164,20.8538 565.4134,22.9138 572.8014,27.0298 C580.1874,31.1488 585.9734,36.9008 590.1514,44.2878 C594.3294,51.6768 596.4184,60.0328 596.4184,69.3568 C596.4184,78.6848 594.3294,87.0408 590.1514,94.4268 C585.9734,101.8148 580.1874,107.5968 572.8014,111.7748 C565.4134,115.9548 557.1164,118.0428 547.9134,118.0428 C538.7094,118.0428 530.4124,115.9548 523.0264,111.7748" id="Fill-30"></path>
                </g>
            </g>
        </g>
    </g>
</svg>