<svg xmlns="http://www.w3.org/2000/svg" role="img" viewBox="-20.46 -20.46 1063.92 1063.92"><path fill="#8DD9FF" d="M0 512a512 512 0 1 0 1024 0A512 512 0 1 0 0 512z"/><path fill="#3C9BD4" d="M2.312 560C26.524 820.25 245.426 1024 512 1024s485.476-203.75 509.688-464H2.312z"/><path fill="#9AF4EF" d="M979.09 721.766A508.962 508.962 0 0 0 1021.688 560H2.312a509.546 509.546 0 0 0 25.48 118.472c181.78 20.098 660.592 39.49 951.298 43.294z"/><path fill="#93DDE8" d="M5.276 584H1018.44c1.126-7.988 2.494-15.898 3.248-24H2.312c.752 8.072 1.842 16.042 2.964 24z"/><path fill="#52C883" d="M432 352c-53.334 21.334-112 22.666-128 34.666C291.908 395.736 203.644 560 103.644 560h338.398L432 352z"/><path fill="#926E79" d="M330.666 476c-21.354-3.39-63.928-7.972-74-8.334-4.894-.176-27.166-11.974-38.166-11.974-15.202 0-24.276 32.308-42 52.158-10.302 11.536-52 52.15-90 52.15H213l117.666-84z"/><path fill="#52C883" d="M944 560c-42.666 0-115.384-96.198-160-144-37.334-40-100.05 24-128.05 24v120H944z"/><path fill="#FFF" d="M366.718 214.602c-1.94 0-3.796.306-5.598.754-6.076-6.56-14.688-10.732-24.334-10.732-6.084 0-11.71 1.754-16.616 4.604-6.082-4.644-13.592-7.51-21.836-7.51-3.014 0-5.896.478-8.696 1.172-9.436-10.19-22.816-16.67-37.8-16.67-28.532 0-51.662 23.13-51.662 51.662H390c0-12.858-10.424-23.28-23.282-23.28zm-15.462 110.774c0-14.45-11.714-26.162-26.162-26.162-2.18 0-4.266.344-6.292.848-6.826-7.372-16.506-12.06-27.346-12.06-20.642 0-37.376 16.734-37.376 37.376h97.176zm493.798-7.27c-2.12 0-4.148.336-6.118.824-6.638-7.17-16.052-11.728-26.594-11.728-10.278 0-19.518 4.304-26.128 11.164-6.602-6.812-15.722-11.164-25.958-11.164-20.074 0-36.346 16.274-36.346 36.346h146.588c-.002-14.05-11.392-25.442-25.444-25.442zM799.5 249.8c0-23.826-19.316-43.142-43.142-43.142-4.526 0-8.804.89-12.904 2.184-12.988-18.67-34.532-30.946-59-30.946-18.174 0-34.718 6.794-47.358 17.928-10.524-13.092-26.614-21.52-44.72-21.52-16.656 0-31.526 7.202-42.016 18.53-3.112-.772-6.314-1.302-9.666-1.302-22.2 0-40.196 17.998-40.196 40.196h72.992c-2.556 5.514-4.084 11.594-4.084 18.072H799.5zM465 125.084h79.668c0-12.56-10.182-22.742-22.742-22.742-2.386 0-4.642.47-6.802 1.152-6.846-9.842-18.204-16.312-31.1-16.312s-24.254 6.47-31.1 16.312c-2.162-.682-4.416-1.152-6.802-1.152-6.786 0-12.808 3.032-16.974 7.744-7.25-4.842-15.768-7.918-25.144-7.918-15.596 0-29.33 7.824-37.608 19.726-2.614-.824-5.34-1.392-8.226-1.392-15.188 0-27.5 12.312-27.5 27.5h146.666c-.002-9.58-4.91-17.996-12.336-22.918z"/><path fill="#52C883" d="M128 560c50 0 138.666-34.666 160-64 13.152-18.084 28.36-55.53 42.666-67.208C349.324 413.564 365.332 413.332 384 400s101.334-112 128-112c26.666 0 78 60 112 80 37.134 21.844 53.746 76.418 96 96 54.666 25.334 77.334 96 144 96"/><path fill="#34BE69" d="M507.942 560A2479.98 2479.98 0 0 0 538 549.5c-30.422-4.68-30.916-44.854-62.716-57.854s-61.55 2.956-80.018-21.646C378 447 382.85 428.706 364 424c-5.04-1.258-9.356-4.03-13.14-7.512-6.544 2.978-13.182 6.582-20.194 12.304C316.36 440.468 301.152 477.916 288 496c-13.744 18.896-55.426 39.956-96.716 52.584A939.792 939.792 0 0 0 182.856 560h325.086z"/><path fill="#53DC92" d="M720 464c-42.254-19.582-58.868-74.158-96-96-34-20-85.334-80-112-80-10.154 0-28.434 14.33-48.202 32.782 12.772-4.37 28.832-7.824 44.202-7.448 27.334.666 22.666 23.334 56.666 45.064s56 56.27 61.334 78.936 24.666 34 51.334 44.09c26.666 10.09 34 18.576 44 35.242 0 0 38.12 7.092 75.87 14.054-24.798-22.51-45.7-52.12-77.204-66.72z"/><path fill="#926E79" d="M400 608s-32.666-70.666-59.334-70.666c-60 0-62 70.666-116.666 70.666m631.202-48l.62-.486c-31.104-9.058-26.646-54.458-67.822-50.848-38 3.334-43.334-10.666-66.666-.816-22.88 9.66-29.334 14.816-62.666 9.482-33.332-5.334-58.598 28.334-113.932 27.666-17.162-.206-9.958-3.666-21.236 15h331.702zM435.476 424c19.63 18.692 64.024-22.5 73.024-34.5s33.5-14.5 52.5-.788 30.184 18.472 50 9.288c20.5-9.5 29.968-6.064 44.756.13-9.474-11.954-19.458-22.896-31.756-30.13-34-20-85.334-80-112-80-22.96 0-87.34 73.026-116.734 101.87 11.234-5.87 20.626-8.912 32.234.63 10.984 9.028-2 24 7.976 33.5z"/><path fill="#A17988" d="M505.65 289.49c-1.106.416-2.22.848-3.424 1.44-.82.406-1.696.914-2.558 1.394-1.088.606-2.182 1.228-3.332 1.95-1.016.64-2.064 1.342-3.124 2.066-1.072.732-2.158 1.49-3.272 2.3a164.938 164.938 0 0 0-6.696 5.142c-1.442 1.16-2.888 2.328-4.376 3.58-.756.634-1.528 1.308-2.294 1.966-1.778 1.526-3.56 3.06-5.384 4.692l-.416.378a477.356 477.356 0 0 0-6.976 6.382c12.772-4.37 28.832-7.824 44.202-7.448 27.334.666 22.666 23.334 56.666 45.064 17.77 11.358 32.162 26.208 42.71 41.042 1.206-.476 2.352-.848 3.622-1.438 20.5-9.5 29.968-6.064 44.756.13a215.844 215.844 0 0 0-9.936-11.624c-2.214-2.402-4.468-4.742-6.812-6.926a103.03 103.03 0 0 0-3.584-3.186c-3.632-3.084-7.362-6.006-11.424-8.396-34-20-85.334-80-112-80-1.358 0-2.884.296-4.516.784-.574.174-1.224.48-1.832.708z"/><path fill="#674447" d="M242 560c-25 0-27-21-55-21s-31 21-40 21h95zm408 0c-15 0-19.5-14-69.5-16.5-22.472-1.124-15.698-3.172-44.008-3.172-28.31 0-36.616 10.138-51.054 10.138C471 550.466 456.47 560 456.47 560H650z"/><path fill="#53DC92" d="M784 416c-20.318-21.77-48.14-12.7-73.808.058 14.474 16.61 39.168-6.868 56.474 7.942 22.22 19.014 60.43 75.334 81.728 101.486C872.238 554.766 873.334 560 944 560c-42.666 0-115.384-96.198-160-144z"/><path fill="#A17988" d="M416.666 608h-36c-6-50.666-43.36-75.158-64.332-65.996 0 0 40.332-25.67 69.666 7.496s30.666 58.5 30.666 58.5zm439.156-48.486c-31.104-9.058-26.646-54.458-67.822-50.848-38 3.334-43.334-10.666-66.666-.814-13.162 5.556-20.978 9.534-31.512 10.97 1.684.884 3.332 1.572 4.846 1.758 10.032 1.236 22.666 13.418 44.666 4.084 22-9.334 22.666-.666 40.666 6.054 14.94 5.578 14.846 21.93 22.728 29.28h52.474l.62-.484z"/></svg>