<svg xmlns="http://www.w3.org/2000/svg" viewBox="0 0 400 245" width="400" height="245"><path fill="none" pointer-events="none" d="M0 0h400v245H0z"/><defs><linearGradient id="a" x1="341.85" y1="30.59" x2="309.48" y2="108.21" gradientUnits="userSpaceOnUse"><stop offset="0" stop-color="#1cce28"/><stop offset=".21" stop-color="#20c52b"/><stop offset=".56" stop-color="#2aad33"/><stop offset="1" stop-color="#3b8640"/></linearGradient><linearGradient id="b" x1="91.017" y1="97.946" x2="43.843" y2="179.654" gradientUnits="userSpaceOnUse"><stop offset="0" stop-color="#0052cc"/><stop offset=".923" stop-color="#2684ff"/></linearGradient></defs><g transform="matrix(1.10133 0 0 1.10133 89.867 0)"><title>Atlassian-vertical-blue-rgb</title><g data-name="Layer 2"><path class="cls-1" d="M66.519 84.151c-2.725-2.911-6.971-2.746-8.823.958l-44.687 89.376a5.342 5.342 0 0 0 4.778 7.732H80.02a5.151 5.151 0 0 0 4.779-2.954c13.419-27.745 5.289-69.93-18.28-95.112z" fill="url(#b)"/><path class="cls-2" d="M99.307 2.862c-24.994 39.6-23.345 83.458-6.882 116.385l30.008 60.016a5.342 5.342 0 0 0 4.778 2.953h62.232a5.342 5.342 0 0 0 4.778-7.732S110.5 7.018 108.394 2.828c-1.883-3.751-6.666-3.802-9.087.034z" fill="#2681ff"/><path class="cls-3" d="M91.246 204.611c0 3.592 1.666 6.443 8.184 7.7 3.888.815 4.7 1.444 4.7 2.74 0 1.259-.815 2.074-3.555 2.074a20.062 20.062 0 0 1-9.443-2.555v5.851a19.318 19.318 0 0 0 9.369 2.037c6.814 0 9.517-3.036 9.517-7.554m0 0c0-4.258-2.259-6.258-8.628-7.628-3.518-.778-4.37-1.555-4.37-2.666 0-1.407 1.259-2 3.592-2a20.235 20.235 0 0 1 8.221 2.037v-5.592a18.58 18.58 0 0 0-8.036-1.666c-6.3 0-9.554 2.74-9.554 7.221M178.782 197.76v24.329h5.184v-18.552l2.185 4.925 7.332 13.627H200V197.76h-5.184v15.701l-1.963-4.555-5.888-11.146h-8.183zM140.143 197.76h5.666v24.329h-5.666V197.76zM133.606 214.9c0-4.258-2.259-6.258-8.628-7.628-3.518-.778-4.37-1.555-4.37-2.666 0-1.407 1.259-2 3.592-2a20.235 20.235 0 0 1 8.221 2.037v-5.592a18.58 18.58 0 0 0-8.036-1.666c-6.3 0-9.554 2.74-9.554 7.221 0 3.592 1.666 6.443 8.184 7.7 3.888.815 4.7 1.444 4.7 2.74 0 1.259-.815 2.074-3.555 2.074a20.062 20.062 0 0 1-9.443-2.555v5.851a19.318 19.318 0 0 0 9.369 2.037c6.814 0 9.517-3.036 9.517-7.554M47.233 197.76v24.329h11.646l1.833-5.258h-7.776V197.76h-5.703zM24.226 197.76v5.258h6.295v19.071h5.703v-19.071h6.739v-5.258H24.226zM15.957 197.76H8.484L0 222.089h6.48l1.2-4.1a16.1 16.1 0 0 0 9.074 0l1.2 4.1h6.48zm-3.737 15.846a11.065 11.065 0 0 1-3.118-.448l3.118-10.621 3.118 10.621a11.065 11.065 0 0 1-3.118.448zM78.955 197.76h-7.474L63 222.089h6.48l1.2-4.1a16.1 16.1 0 0 0 9.074 0l1.2 4.1h6.48zm-3.737 15.846a11.065 11.065 0 0 1-3.118-.448l3.118-10.621 3.118 10.621a11.065 11.065 0 0 1-3.118.448zM166.225 197.76h-7.473l-8.484 24.329h6.48l1.2-4.1a16.1 16.1 0 0 0 9.074 0l1.2 4.1h6.48zm-3.737 15.846a11.065 11.065 0 0 1-3.118-.448l3.118-10.621 3.118 10.621a11.065 11.065 0 0 1-3.118.448z" fill="#0052cc"/></g></g></svg>
