<?xml version="1.0" encoding="utf-8"?>
<!-- Generator: Adobe Illustrator 21.1.0, SVG Export Plug-In . SVG Version: 6.00 Build 0)  -->
<svg version="1.1" id="Layer_1" xmlns="http://www.w3.org/2000/svg" xmlns:xlink="http://www.w3.org/1999/xlink" x="0px" y="0px"
	 viewBox="0 0 331.3 424.1" style="enable-background:new 0 0 331.3 424.1;" xml:space="preserve">
<style type="text/css">
	.st0{fill:#0B5565;}
	.st1{fill:#27AAE0;}
	.st2{fill:#375C92;}
	.st3{fill:#8DC53E;}
	.st4{fill:#34A474;}
	.st5{enable-background:new    ;}
	.st6{fill:#003399;}
	.st7{fill:#0088D1;}
	.st8{fill:#4299D0;}
	.st9{fill:none;}
	.st10{fill:#E95028;}
	.st11{fill:#FB6D26;}
	.st12{fill:#FBA226;}
	.st13{fill:#E14329;}
	.st14{fill:#BC5A34;}
	.st15{fill:#FFFFFF;}
	.st16{fill:#195C8B;}
	.st17{fill:#0E89C8;}
	.st18{fill:#54AEDE;}
	.st19{fill:#1F608E;}
	.st20{fill:#246391;}
	.st21{fill:none;stroke:#246391;stroke-width:0;stroke-linecap:round;stroke-linejoin:round;}
	.st22{fill:#83C6EB;}
	.st23{fill:none;stroke:#83C6EB;stroke-width:0;stroke-linecap:round;stroke-linejoin:round;}
	.st24{fill:#369BD1;}
	.st25{fill:none;stroke:#369BD1;stroke-width:0;stroke-linecap:round;stroke-linejoin:round;}
	.st26{fill:#0D538A;}
	.st27{fill:#0B528A;}
	.st28{fill:none;stroke:#0B528A;stroke-width:0;stroke-linecap:round;stroke-linejoin:round;}
	.st29{fill:#0B487D;}
	.st30{fill:none;stroke:#0B487D;stroke-width:0;stroke-linecap:round;stroke-linejoin:round;}
	.st31{fill:#010101;}
	.st32{fill:#818181;}
	.st33{clip-path:url(#SVGID_2_);fill:#32324B;}
	.st34{clip-path:url(#SVGID_2_);}
	.st35{clip-path:url(#SVGID_4_);fill:#32324B;}
	.st36{clip-path:url(#SVGID_4_);fill:#00D2FF;}
	.st37{clip-path:url(#SVGID_4_);fill:#FF4B19;}
	.st38{fill:#6DBECA;}
	.st39{fill:#2194D2;}
	.st40{fill:#2295D2;}
	.st41{fill:#6BB045;}
	.st42{fill:#2797D3;}
	.st43{fill:#84BF68;}
	.st44{fill:#7ABC6D;}
	.st45{fill:#87C06D;}
	.st46{fill:#62B68B;}
	.st47{fill:#68B776;}
	.st48{fill:#52B3B2;}
	.st49{fill:#48AC94;}
	.st50{fill:#58AF66;}
	.st51{fill:#49AC8A;}
	.st52{fill:#56B4B3;}
	.st53{fill:#53B1A2;}
	.st54{fill:#5BB170;}
	.st55{fill:#78BF8E;}
	.st56{fill:#61B794;}
	.st57{fill:#FEFEFE;}
	.st58{fill:#A6A6A6;}
	.st59{fill:#939393;}
	.st60{fill:#9CCDEC;}
	.st61{fill:#9ED1EE;}
	.st62{fill:#9ACFF2;}
	.st63{fill:#9ED5F6;}
	.st64{fill:#9DD2F4;}
	.st65{fill:#A0D6F6;}
	.st66{fill:#B0B0B0;}
	.st67{fill:#A7A7A7;}
	.st68{fill:#949494;}
	.st69{fill:#D6EEFD;}
	.st70{fill:#9AC9E9;}
	.st71{fill:#91B5DC;}
	.st72{fill:#D4EBFB;}
	.st73{fill:#D1E8F8;}
	.st74{fill:#A8A8A8;}
	.st75{fill:#93B9DF;}
	.st76{fill:#8FB1D9;}
	.st77{fill:#93C2EB;}
	.st78{fill:#96C6ED;}
	.st79{fill:#959595;}
	.st80{fill:#8EB6E5;}
	.st81{fill:#8EADD7;}
	.st82{fill:#96BFE3;}
	.st83{fill:#98C5E6;}
	.st84{fill:#92BEE9;}
	.st85{fill:#90BAE7;}
	.st86{fill:#88ABDE;}
	.st87{fill:#86A7DC;}
	.st88{fill:#8AAFE0;}
	.st89{fill:#C7DDEF;}
	.st90{fill:#97C1E4;}
	.st91{fill:#99CCF1;}
	.st92{fill:#CCE2F3;}
	.st93{fill:#829ED7;}
	.st94{fill:#CAE0F2;}
	.st95{fill:#C4D9EC;}
	.st96{fill:#83A2D9;}
	.st97{fill:#7F9AD5;}
	.st98{fill:#8CB2E3;}
	.st99{fill:#A3A3A3;}
	.st100{fill:#7B90CF;}
	.st101{fill:#7E96D3;}
	.st102{fill:#7584C9;}
	.st103{fill:#798CCD;}
	.st104{fill:#C1D6EA;}
	.st105{fill:#7889CB;}
	.st106{fill:#6F73BF;}
	.st107{fill:#97C3E5;}
	.st108{fill:#7D93D1;}
	.st109{fill:#7380C6;}
	.st110{fill:#BBCEE4;}
	.st111{fill:#707BC3;}
	.st112{fill:#A2A2A2;}
	.st113{fill:#BFD2E7;}
	.st114{fill:#C0D4E8;}
	.st115{fill:#B9CCE1;}
	.st116{fill:#6F77C1;}
	.st117{fill:#A1A1A1;}
	.st118{fill:#E9EBF4;}
	.st119{fill:#D7EEFD;}
	.st120{fill:#D2E9F9;}
	.st121{fill:#CFE6F7;}
	.st122{fill:#96C1E8;}
	.st123{fill:#95BDE5;}
	.st124{fill:#8EABD8;}
	.st125{fill:#8A9FD0;}
	.st126{fill:#CDE3F4;}
	.st127{fill:#98C6EB;}
	.st128{fill:#90AFDB;}
	.st129{fill:#9BCDF0;}
	.st130{fill:#8CA4D4;}
	.st131{fill:#93B7E1;}
	.st132{fill:#889ACD;}
	.st133{fill:#94BCE1;}
	.st134{fill:#9ACAEE;}
	.st135{fill:#8CA9D4;}
	.st136{fill:#C6DBEE;}
	.st137{fill:#9DD1F3;}
	.st138{fill:#C9DEF0;}
	.st139{fill:#8DA7D6;}
	.st140{fill:#89A3D0;}
	.st141{fill:#838CC3;}
	.st142{fill:#889FCD;}
	.st143{fill:#8BA6D2;}
	.st144{fill:#8695CA;}
	.st145{fill:#C3D8EB;}
	.st146{fill:#8591C7;}
	.st147{fill:#8394C6;}
	.st148{fill:#8598C9;}
	.st149{fill:#869CCB;}
	.st150{fill:#C1D5E9;}
	.st151{fill:#8190C3;}
	.st152{fill:#BDD0E5;}
	.st153{fill:#8185BF;}
	.st154{fill:#BACDE3;}
	.st155{fill:#BFD3E7;}
	.st156{fill:#808CC0;}
	.st157{fill:#B6C8DE;}
	.st158{fill:#B3C4DB;}
	.st159{fill:#7F89BF;}
	.st160{fill:#7D85BC;}
	.st161{fill:#B9CBE1;}
	.st162{fill:#94BAE3;}
	.st163{fill:#8CA7D2;}
	.st164{fill:#DDE0ED;}
	.st165{fill:#D5ECFC;}
	.st166{fill:#CFE6F6;}
	.st167{fill:#CBE0F2;}
	.st168{fill:#C8DEF0;}
	.st169{fill:#C5DAED;}
	.st170{fill:#BFD3E8;}
	.st171{fill:#8CB3E3;}
	.st172{fill:#BACCE2;}
	.st173{fill:#B6C9DF;}
	.st174{fill:#B2C3DB;}
	.st175{fill:#B0C1DA;}
	.st176{fill:#84A2DA;}
	.st177{fill:#C2D7EA;}
	.st178{fill:#97C9EF;}
	.st179{fill:#F6F6F6;}
	.st180{fill:#F5F5F5;}
	.st181{fill:#F7F7F7;}
	.st182{fill:#A4A4A4;}
	.st183{fill:#CEE5F6;}
	.st184{fill:#B5C7DE;}
	.st185{fill:#91B2DE;}
	.st186{fill:#8183BD;}
	.st187{fill:#CACFE3;}
	.st188{fill:#DC7B17;}
	.st189{fill:#CE451E;}
	.st190{fill:#D76B19;}
	.st191{fill:#D6671A;}
	.st192{fill:#F1B934;}
	.st193{fill:#D2591B;}
	.st194{fill:#D1541C;}
	.st195{fill:#F5C446;}
	.st196{fill:#F0B228;}
	.st197{fill:#FBD460;}
	.st198{fill:#E39119;}
	.st199{fill:#EDAB1F;}
	.st200{fill:#F1B833;}
	.st201{fill:#F9D05D;}
	.st202{fill:#E89C3A;}
	.st203{fill:#FDF8E8;}
	.st204{fill:#0C0C0C;}
	.st205{fill:#090909;}
	.st206{fill:#0B0B0B;}
	.st207{fill:#0D0D0D;}
	.st208{fill:#121212;}
	.st209{fill:#0E0E0E;}
	.st210{fill:#4A4747;}
	.st211{fill:#101010;}
	.st212{fill:#484545;}
	.st213{fill:#474545;}
	.st214{fill:#4D4B4B;}
	.st215{fill:#343434;}
	.st216{fill:#838181;}
	.st217{fill:#111111;}
	.st218{fill:#757373;}
	.st219{fill:#181818;}
	.st220{fill:#525050;}
	.st221{fill:#515151;}
	.st222{fill:#494949;}
	.st223{fill:#7B7979;}
	.st224{fill:#545454;}
	.st225{fill:#363636;}
	.st226{fill:#3E3E3E;}
	.st227{fill:#393939;}
	.st228{fill:#7D7B7B;}
	.st229{fill:#D4D3D3;}
	.st230{fill:#525252;}
	.st231{fill:#EAEAEA;}
	.st232{fill:#ABABAB;}
	.st233{fill:#5B5959;}
	.st234{fill:#2C2C2C;}
	.st235{fill:#3C3C3C;}
	.st236{fill:#373737;}
	.st237{fill:#454545;}
	.st238{fill:#D1D1D1;}
	.st239{fill:#E1E1E1;}
	.st240{fill:#BEBDBD;}
	.st241{fill:#2A2A2A;}
	.st242{fill:#5E5E5E;}
	.st243{fill:#565656;}
	.st244{fill:#5D5A5A;}
	.st245{fill:#5F5F5F;}
	.st246{fill:#807E7E;}
	.st247{fill:#615F5F;}
	.st248{fill:#ECECEC;}
	.st249{fill:#3F3F3F;}
	.st250{fill:#CECECE;}
	.st251{fill:#6A6868;}
	.st252{fill:#ADADAD;}
	.st253{fill:#5A5A5A;}
	.st254{fill:#606060;}
	.st255{fill:#C9C9C9;}
	.st256{fill:#D8D8D8;}
	.st257{fill:#646161;}
	.st258{fill:#C8C8C8;}
	.st259{fill:#C3C3C3;}
	.st260{fill:#EEEEEE;}
	.st261{fill:#D7D7D7;}
	.st262{fill:#D9D9D9;}
	.st263{fill:#B3B3B3;}
	.st264{fill:#CBCBCB;}
	.st265{fill:#707070;}
	.st266{fill:#FDFDFD;}
	.st267{fill:#10679D;}
	.st268{fill:#BFBFBF;}
	.st269{fill:#005D96;}
	.st270{fill:#C4C4C5;}
	.st271{fill:#767575;}
	.st272{fill:#BEBFBF;}
	.st273{fill:#787777;}
	.st274{fill:#B9BABA;}
	.st275{fill:#B0B1B1;}
	.st276{fill:#7A7979;}
	.st277{fill:#CDCDCE;}
	.st278{fill:#7B7A7A;}
	.st279{fill:#B4B5B5;}
	.st280{fill:#FBFBFB;}
	.st281{fill:#797878;}
	.st282{fill:#DFDFE0;}
	.st283{fill:#7C7B7B;}
	.st284{fill:#ACADAD;}
	.st285{fill:#D8D9D9;}
	.st286{fill:#858484;}
	.st287{fill:#7D7C7C;}
	.st288{fill:#727171;}
	.st289{fill:#7F7E7E;}
	.st290{fill:#E6E7E7;}
	.st291{fill:#EDEEEE;}
	.st292{fill:#F3F3F3;}
	.st293{fill:#D1D1D2;}
	.st294{fill:#D5D6D6;}
	.st295{fill:#7E7D7D;}
	.st296{fill:#F1F1F1;}
	.st297{fill:#F6F7F7;}
	.st298{fill:#F3F4F5;}
	.st299{fill:#EAEBEB;}
	.st300{fill:#F9FAFA;}
	.st301{fill:#F5F6F7;}
	.st302{fill:#888787;}
	.st303{fill:#878686;}
	.st304{fill:#F1F3F4;}
	.st305{fill:#357EAC;}
	.st306{fill:#E0E0E0;}
	.st307{fill:#156A9F;}
	.st308{fill:#2574A5;}
	.st309{fill:#2776A6;}
	.st310{fill:#2272A4;}
	.st311{fill:#2D79A9;}
	.st312{fill:#E1EBF2;}
	.st313{fill:#2071A3;}
	.st314{fill:#1D6FA2;}
	.st315{fill:#689EC1;}
	.st316{fill:#1B6EA2;}
	.st317{fill:#1E70A3;}
	.st318{fill:#B3CEDF;}
	.st319{fill:#D8D8D9;}
	.st320{fill:#EBECEC;}
	.st321{fill:#F3F4F4;}
	.st322{fill:#E7E8E8;}
	.st323{fill:#EFF0F0;}
	.st324{fill:#F4F5F5;}
	.st325{fill:#F7F8F8;}
	.st326{fill:#F8F8F8;}
	.st327{fill:#E3E3E4;}
	.st328{fill:#F8F9F9;}
	.st329{fill:#76A7C6;}
	.st330{fill:#E3E9EC;}
	.st331{fill:#D6E4EE;}
	.st332{fill:#D8E6EF;}
	.st333{fill:#D9E7EF;}
	.st334{fill:#C0D6E5;}
	.st335{fill:#DEE9F1;}
	.st336{fill:#DEEAF1;}
	.st337{fill:#E1ECF2;}
	.st338{fill:#FAFBFB;}
	.st339{fill:#F5F7F8;}
	.st340{fill:#F2F6F9;}
	.st341{fill:#FCFCFC;}
	.st342{fill:#D5D5D6;}
	.st343{fill:#DFE0E0;}
	.st344{fill:#DBDCDC;}
	.st345{fill:#AAABAB;}
	.st346{fill:#A5A6A6;}
	.st347{fill:#B5B6B6;}
	.st348{fill:#D6D6D7;}
	.st349{fill:#C6C6C7;}
	.st350{fill:#CBCCCC;}
	.st351{fill:#AFB0B0;}
	.st352{fill:#B2B3B3;}
	.st353{fill:#A6A7A7;}
	.st354{fill:#D0DAE4;}
	.st355{fill:#1F3961;}
	.st356{fill:#275598;}
	.st357{fill:#68CFEB;}
	.st358{fill:#FE5859;}
	.st359{fill:#49B64F;}
	.st360{clip-path:url(#SVGID_6_);fill:#C7E7DF;}
	.st361{fill:#A2D8CC;}
	.st362{clip-path:url(#SVGID_8_);fill:#C7E7DF;}
	.st363{clip-path:url(#SVGID_8_);fill:#2F7DC1;}
	.st364{clip-path:url(#SVGID_8_);fill:#36BBA5;}
	.st365{clip-path:url(#SVGID_8_);fill:#034EA2;}
	.st366{fill:#034EA2;}
	.st367{fill:#36BBA5;}
	.st368{fill:#2D4147;}
	.st369{fill:#C4DB71;}
	.st370{fill:#2C7E7E;}
	.st371{fill:#909CA8;}
	.st372{fill:#1B344B;}
	.st373{fill:#1F6B37;}
	.st374{fill:#297D7D;}
	.st375{fill:#041924;}
	.st376{fill:#031510;}
</style>
<g>
	<path class="st369" d="M10.3,326.9c3.2,11.4,14,18.6,25.2,18.2c13.7-0.4,27.5-0.4,41.2,0c10.2,0.3,17.8-3.8,24.1-11.3
		c6.6-7.8,13.8-15.1,20.6-22.9c0.9-1.1,1.9-2.5,3.6-2c-0.1-0.3-0.1-0.7-0.2-1c-3.5-13.9-6.9-27.8-10.4-41.7
		c-6.3-25.1-12.7-50.2-19.1-75.3c-1.3-5-0.3-9.7,1.3-14.4c9.4-27.6,18.8-55.2,28.3-82.7c0.3-1,0.6-2,0.9-3.1c-4-0.2-8-0.6-12,0.6
		c-7,2.2-12.3,6.2-15.4,12.9c-5.1,10.8-9.4,21.9-14.1,32.8c-12.8,30.3-25.5,60.6-38.3,90.9c-11.5,27.4-23,54.8-34.6,82.2
		c-0.6,1.5-1.1,3.1-1.5,4.6c-0.2,0.7-0.2,1.7-1.4,1.6c0,2.6,0,5.3,0,7.9C10.1,324.6,10,326,10.3,326.9z"/>
	<path class="st369" d="M9.9,314.9c0.4-1.6,0.9-3.1,1.5-4.6C23,282.9,34.4,255.5,46,228.1c12.8-30.3,25.5-60.6,38.3-90.9
		c4.6-11,9-22.1,14.1-32.8c3.2-6.7,8.5-10.7,15.4-12.9c4-1.2,8-0.9,12-0.6c0-0.1,0.1-0.3,0.1-0.4c0,0,0,0,0,0
		c-10-2.1-18.2,1-24.9,8.4c-3.7,4.2-5.4,9.5-7.5,14.6C75.8,155.2,58.1,197,40.6,238.9c-10.8,25.8-22.4,51.3-32.1,77.6
		C9.7,316.6,9.7,315.6,9.9,314.9z"/>
	<path class="st369" d="M35.3,346c14.5-0.4,29.1-0.1,43.6-0.1c7.7,0,14.1-2.7,19.3-8.2c5.5-5.9,10.8-12.1,16.4-18
		c3.4-3.6,6.2-7.8,10.3-10.7c0,0,0,0,0,0c0,0,0,0,0,0c-1.8-0.5-2.7,1-3.6,2c-6.8,7.7-14,15-20.6,22.9c-6.4,7.5-13.9,11.6-24.1,11.3
		c-13.7-0.5-27.5-0.4-41.2,0c-11.2,0.4-22-6.8-25.2-18.2c-0.3-1-0.2-2.4-1.8-2.5c0.2,0.3,0.5,0.7,0.6,1
		C11.5,337.3,22.3,346.3,35.3,346z"/>
	<g>
		<path class="st9" d="M36,399c-1.1-3-2.2-6-3.6-9.8c-1.4,3.8-2.5,6.8-3.6,9.7c-0.2,0.5-0.7,1.5,0,1.6c2.3,0.2,4.6,0.1,7,0
			c0.6,0,0.5-0.8,0.4-1.2C36,399.2,36,399.1,36,399z"/>
		<path class="st9" d="M122.5,388.1c-4.8-0.1-8.3,3.4-8.4,8.5c-0.1,5.3,3.2,9,8.1,9.1c4.7,0,8.2-3.6,8.3-8.7
			C130.6,392,127.2,388.2,122.5,388.1z"/>
		<path class="st370" d="M190,388c0-3.6-1.6-4.9-5.1-4.5c-2.5,0.2-3.7,1.8-4.6,3.9c-1.5,3.7-3,7.4-4.7,11.7c0,0-0.1,0-0.1,0
			c-0.1,0-0.2,0-0.3-0.1c-1.9-4.6-3.4-8.5-5-12.3c-1.2-2.7-3.5-3.8-6.5-3.1c-2.8,0.6-3,2.6-3,4.9c0,5.8,0.1,11.6,0,17.4
			c0,2.1,0.4,4.2,2.4,4.8c0.2,0.1,0.4,0,0.6,0c2.4-0.4,2.9-2.5,2.9-4.7c-0.1-4.2,0-8.3,0.2-12.6c3.1,5.6,4.8,11.8,7.9,17.3
			c0.4,0,0.8,0,1.2,0c3-4.6,4.3-10,6.6-14.9c0.5-1,0.5-2.1,1.8-3.1c0,4.7,0.1,9.1,0,13.4c-0.1,2.2,0.5,4.1,2.6,4.6
			c0.2,0,0.4,0,0.6,0c2.1-0.5,2.6-2.5,2.5-4.7C190,400,190.1,394,190,388z"/>
		<path class="st370" d="M118.6,383.5c-7.6,1.9-11.8,8.9-10.1,16.6c1.3,5.8,5.1,9.6,10.5,10.6c2,0.4,4.1,0.3,6.1-0.1
			c0.5-0.1,0.9-0.4,1.4-0.5c7.4-2.3,11.5-9.6,9.2-17.3C133.7,385.6,126.2,381.6,118.6,383.5z M122.2,405.6c-4.8,0-8.2-3.8-8.1-9.1
			c0.1-5.1,3.6-8.6,8.4-8.5c4.7,0.1,8.1,3.9,8,8.9C130.4,402,126.9,405.7,122.2,405.6z"/>
		<path class="st370" d="M37.4,387.3c-0.9-2.4-2.4-4.1-5.1-4.1c-2.7,0-4.2,1.6-5.1,4c-2.3,5.9-4.5,11.7-7,17.5
			c-1.1,2.6-1,5.1,1.7,5.9c0.4,0.1,0.8,0,1.2,0c1.2-0.4,2-0.9,2.1-2c0.5-3.3,2.8-2.9,5.2-3c1.2,0,2.4,0,3.6,0c2.4,0,4.7-0.3,5.2,3
			c0.1,1.1,1,1.8,2.2,2c0.2,0,0.4,0,0.6,0c3-0.6,3.4-3,2.2-5.8C41.9,399.1,39.7,393.2,37.4,387.3z M35.7,400.5c-2.3,0.1-4.7,0.2-7,0
			c-0.7-0.1-0.1-1.1,0-1.6c1-3,2.2-5.9,3.6-9.7c1.4,3.8,2.5,6.8,3.6,9.8c0,0.1,0,0.2,0.1,0.3C36.1,399.8,36.3,400.5,35.7,400.5z"/>
		<path class="st370" d="M261.5,394.8c-2.2-0.7-4.5-1.2-6.7-1.9c-1.3-0.4-2.7-0.8-2.6-2.5c0.2-1.8,1.6-2.2,3.1-2.3
			c2.3-0.3,4.4,0.5,6.5,1.4c1.7,0.8,3.3,0.5,4.1-1.3c0.8-1.7-0.4-2.7-1.8-3.4c-4.3-2-8.8-2.6-13.3-0.5c-3,1.4-4.7,3.8-4.6,7.2
			c0.1,3.4,2.1,5.4,5.1,6.5c2.3,0.8,4.7,1.3,7,2.1c1.5,0.5,3.5,0.7,3.2,3c-0.3,2.2-2.2,2.5-3.9,2.6c-2.6,0.2-5-0.7-7.2-2
			c-1.6-0.9-3.1-0.7-3.9,1c-0.8,1.5,0,2.7,1.3,3.6c1.7,1.4,3.8,1.8,5.9,2.3c2,0.5,4.1,0.4,6.1,0c0.5-0.1,0.9-0.4,1.4-0.6
			c4.2-1.3,6.4-3.9,6.5-7.8C267.6,398.7,265.7,396.2,261.5,394.8z"/>
		<path class="st370" d="M84.3,383.6c-5.8-0.1-11.6,0-17.4,0c-1.3,0-2.1,0.8-2.2,2.1c-0.1,1.5,0.7,2.4,2,2.6
			c1.2,0.2,2.4,0.3,3.6,0.2c1.9-0.2,2.4,0.5,2.4,2.4c-0.1,5,0,10-0.1,14.9c0,2.1,0.6,3.7,2.4,4.8c0.4,0,0.8,0,1.2,0
			c1.8-1.1,2.4-2.7,2.4-4.8c-0.1-4,0-7.9,0-11.9c0-5,0-5,4.8-5.4c0.3,0,0.6,0,0.9-0.1c1.3-0.3,2.3-1.1,2.3-2.5
			C86.6,384.6,85.7,383.6,84.3,383.6z"/>
		<path class="st370" d="M311.2,385.7c-0.1-1.1-0.7-2-1.9-2.1c-6-0.1-12-0.1-18,0c-1.1,0-1.8,0.9-1.9,2c-0.1,1.3,0.4,2.3,1.6,2.6
			c1.3,0.3,2.6,0.4,3.9,0.3c2.1-0.2,2.6,0.7,2.5,2.6c-0.1,5,0,10-0.1,14.9c-0.1,2.2,0.4,4.2,2.5,4.7c0.2,0,0.4,0,0.6,0
			c2.1-0.4,2.7-2.4,2.6-4.6c-0.1-4.1,0-8.1,0-12.2c0-5,0-5,4.9-5.4c0.5,0,1-0.1,1.5-0.3C310.8,387.9,311.4,387,311.2,385.7z"/>
		<path class="st370" d="M221.5,387.3c0-2-0.4-3.9-2.8-4c-2.5-0.1-3.1,1.8-3.1,4c0,6.2,0.1,12.4,0,18.6c0,2.1,0.4,4.2,2.5,4.8
			c0.2,0.1,0.4,0,0.6,0c2.2-0.4,2.9-2.3,2.8-4.5C221.5,399.9,221.5,393.6,221.5,387.3z"/>
	</g>
	<path class="st371" d="M322.7,259.2c0,2.2,0,4.3,0,6.5c0.2,0,0.3,0,0.5,0.1c0-2.2,0-4.5,0-6.7C323,259.2,322.9,259.3,322.7,259.2z"
		/>
	<path class="st371" d="M322.7,259c0,0.1,0,0.1,0,0.2c0.2,0,0.3,0,0.5-0.1C323,259,322.9,259,322.7,259z"/>
	<path class="st371" d="M322.7,265.7c0,0.1,0,0.1,0,0.2l0.3,0l0.3-0.1C323,265.7,322.9,265.7,322.7,265.7z"/>
	<path class="st372" d="M322.6,259.2c-0.1,0-0.1-0.1-0.2-0.1c-2.9-9.7-8.1-18.4-12.6-27.4c-20.2-40.5-40.1-81.1-60.4-121.6
		c-5.9-11.8-12-23.6-17.5-35.6c-5.3-11.8-16.6-19-29.8-16.3c-0.3,0-0.6-0.1-0.9-0.1c-0.1,0.1-0.2,0.1-0.3,0.2
		c3.2,8.9,6.3,17.8,9.5,26.6c4.5,12.5,9.1,24.9,13.7,37.4c7.5,20.4,14.9,40.8,22.4,61.1c2.3,6.3,2.7,12.6,0.8,19.1
		c-4.3,14.5-7.7,29.2-11.5,43.8c-5.1,19.8-10.2,39.6-15.3,59.4c-0.2,0.7-0.4,1.4-1.1,1.7c0.3,0.4,0.6,0.8,0.8,1.2c0.1,0,0.2,0,0.4,0
		c3.2,3.6,5,8.1,7.5,12.2c2,3.3,3.9,6.7,5.8,10.1c5.4,9.5,13.2,14.5,24.4,14.3c12.9-0.3,25.9,0,38.8-0.1c11,0,19.9-6.3,23.6-16.6
		c0.8-2.2,1.1-4.5,1.1-6.9c0-17,0-34,0-51c0-1.5-0.2-3.1,0.6-4.5c0.1-0.1,0.2-0.2,0.3-0.3C321.2,263.6,321.2,261.4,322.6,259.2z"/>
	<path class="st372" d="M201.2,58c0.3,0.1,0.6,0.1,0.9,0.1c13.2-2.8,24.5,4.5,29.8,16.3c5.5,12,11.6,23.8,17.5,35.6
		c20.2,40.5,40.2,81.1,60.4,121.6c4.5,9,9.7,17.7,12.6,27.4c0.1,0.1,0.1,0.1,0.2,0.1c0-0.1,0.1-0.1,0.1-0.2c-0.3-3.6-1.8-6.8-3.4-10
		c-15.6-31.5-31.2-62.9-46.8-94.4c-13.6-27.5-27.2-54.9-40.9-82.4c-5.9-11.9-16.9-17.4-29.4-14.7c0,0,0,0,0,0
		C201.8,57.7,201.5,57.8,201.2,58z"/>
	<path class="st372" d="M322.3,266c-0.8,1.4-0.6,3-0.6,4.5c0,17,0,34,0,51c0,2.4-0.3,4.7-1.1,6.9c-3.7,10.3-12.6,16.5-23.6,16.6
		c-12.9,0-25.9-0.2-38.8,0.1c-11.2,0.2-19-4.8-24.4-14.3c-1.9-3.4-3.7-6.8-5.8-10.1c-2.5-4.1-4.3-8.6-7.5-12.2c-0.1,0-0.3,0-0.4,0
		c0,0.1,0.1,0.1,0.1,0.2c0,0,0,0,0,0c4.9,8.6,9.5,17.2,14.7,25.6c4.3,7,10.9,11.2,19.1,11.4c15.1,0.4,30.3,0.4,45.5,0
		c12.6-0.3,22.9-11.7,23-24.4c0-18.5,0.1-37,0.1-55.5c0,0,0-0.1-0.1-0.1C322.5,265.8,322.4,265.9,322.3,266z"/>
	<path class="st372" d="M322.6,265.8C322.6,265.8,322.7,265.7,322.6,265.8c0.1-2.2,0.1-4.4,0.1-6.6c0,0-0.1,0-0.1,0
		C321.2,261.4,321.2,263.6,322.6,265.8z"/>
	<path class="st372" d="M322.7,259.2c0-0.1,0-0.1,0-0.2C322.7,259.1,322.6,259.1,322.7,259.2C322.6,259.2,322.7,259.2,322.7,259.2z"
		/>
	<path class="st372" d="M322.6,265.8c0,0,0,0.1,0.1,0.1C322.7,265.8,322.7,265.8,322.6,265.8C322.7,265.7,322.6,265.8,322.6,265.8z"
		/>
	<path class="st373" d="M132,300.7c5.2-5.5,10.2-11.3,15.3-16.9c4-4.4,8.1-8.8,12-13.3c3.5-4.1,4.8-9.2,5.7-14.5
		c1.7-10.8,3.6-21.7,5.5-32.5c0.1-0.4,0.3-0.7,0.5-1.1c0,0,0,0,0,0c0,0,0,0,0,0c-0.3-0.6-0.7-1.2-1-1.9c0,0,0,0,0,0c0,0,0,0,0,0
		c-12.9-22.6-26-45-38.6-67.7c-5.2-9.5-3.8-19.2,3-27.6c5.5-6.8,11.9-13,17.8-19.5c0-0.2,0-0.4,0-0.5c-5.2-3.3-10.4-6.6-15.5-9.9
		c-3.1-2-6.4-3.7-10-4.8c-0.2,0.2-0.4,0.3-0.6,0.4c0.6,1.2,0,2.3-0.4,3.4c-9.5,27.3-18.6,54.7-28.1,82c-1.9,5.5-2.6,10.9-1,16.7
		c8.1,31.2,16,62.5,23.8,93.8c1.7,6.8,3.8,13.5,4.9,20.4c0,0.1,0,0.3,0,0.4C128,305.6,129.8,303,132,300.7z"/>
	<path class="st373" d="M126.7,90.4c-0.1,0-0.3-0.1-0.4-0.1c0,0,0,0,0,0c-0.2,0-0.3,0.1-0.4,0.1c0.1,0.1,0.2,0.2,0.2,0.4
		C126.3,90.7,126.5,90.6,126.7,90.4z"/>
	<path class="st373" d="M125.4,307.2c-1.1-6.9-3.2-13.6-4.9-20.4c-7.8-31.3-15.7-62.6-23.8-93.8c-1.5-5.8-0.8-11.3,1-16.7
		c9.4-27.3,18.6-54.7,28.1-82c0.4-1.1,1-2.3,0.4-3.4c-0.1,0-0.1,0.1-0.2,0.1c0,0-0.1,0-0.1,0c-0.3,1-0.5,2.1-0.9,3.1
		c-9.4,27.6-18.9,55.2-28.3,82.7c-1.6,4.6-2.6,9.4-1.3,14.4c6.4,25.1,12.8,50.2,19.1,75.3c3.5,13.9,6.9,27.8,10.4,41.7
		c0.2-0.1,0.4-0.3,0.6-0.4C125.4,307.4,125.4,307.3,125.4,307.2z"/>
	<path class="st373" d="M126.1,90.8c-0.1-0.1-0.1-0.2-0.2-0.4c0,0,0,0,0,0c0,0.1-0.1,0.3-0.1,0.4c0,0,0.1,0,0.1,0
		C126,90.9,126,90.8,126.1,90.8z"/>
	<path class="st374" d="M129.2,90.5c8.3,3.8,15.7,9.1,23.1,14.4c0,0,0,0.1,0,0.1c7.9-8.5,15.7-17.1,23.6-25.6
		c5.4-5.8,10.3-12.1,16.3-17.2c2.4-2.1,5.1-3.8,8.4-4c0.1-0.1,0.2-0.2,0.3-0.3c-1.2-0.5-1.7-1.6-2.2-2.9c-2.9-7.6-5.7-15.3-8.4-22.9
		c-2.4-6.7-6.1-12.2-12.7-15.3c-11.6-5.4-24.8,0-29.6,12.2c-4.4,11.2-8.1,22.6-11.8,34c-2.7,8.4-5.9,16.7-8.6,25.1
		c-0.2,0.6-0.4,1.3-0.8,1.8C127.7,89.9,128.5,90.2,129.2,90.5z"/>
	<path class="st374" d="M127,90.1c0.4-0.6,0.6-1.2,0.8-1.8c2.6-8.4,5.8-16.7,8.6-25.1c3.7-11.4,7.4-22.8,11.8-34
		c4.8-12.3,18-17.6,29.6-12.2c6.6,3.1,10.3,8.6,12.7,15.3c2.8,7.7,5.5,15.3,8.4,22.9c0.5,1.2,1,2.4,2.2,2.9c0.4-0.2,0.8-0.2,1.2-0.4
		c0,0,0,0,0,0c-1.6,0.3-2-0.9-2.4-2c-3.2-8.9-6.2-17.8-9.8-26.5c-3.7-9-10.5-14.4-20.4-14.9c-9.9-0.5-18.4,5.3-22.2,15
		c-2.4,6-4.3,12.2-6.4,18.4c-4.9,14.3-9.7,28.6-14.5,42.9c0,0,0,0,0,0C126.5,90.2,126.7,90.1,127,90.1z"/>
	<path class="st374" d="M200.7,58.2c0.1,0,0.1,0,0.2,0c0,0,0,0,0,0c0.1-0.1,0.2-0.1,0.3-0.2c-0.1,0-0.2-0.1-0.2-0.1
		C200.9,58,200.8,58.1,200.7,58.2z"/>
	<path class="st374" d="M201,57.9c0.1,0,0.2,0.1,0.2,0.1c0.3-0.2,0.6-0.3,0.9-0.5c0,0,0,0,0,0c0,0,0,0,0,0
		C201.8,57.7,201.3,57.7,201,57.9z"/>
	<path class="st374" d="M152.2,105.2C152.2,105.2,152.2,105.2,152.2,105.2c0,0,0.1-0.1,0.1-0.1c0,0,0-0.1,0-0.1
		c-7.3-5.4-14.7-10.6-23.1-14.4c-0.7-0.3-1.5-0.6-2.3-0.4c-0.1,0.1-0.2,0.3-0.3,0.4c0,0,0,0,0,0c3.6,1.1,6.8,2.8,10,4.8
		C141.8,98.6,147,101.9,152.2,105.2z"/>
	<path class="st374" d="M126.7,90.4C126.7,90.4,126.7,90.4,126.7,90.4c0.1-0.1,0.2-0.3,0.3-0.4c-0.2,0.1-0.4,0.1-0.7,0.3
		c0,0,0,0,0,0c0,0,0,0,0,0C126.4,90.4,126.6,90.4,126.7,90.4z"/>
	<path class="st374" d="M219.2,307c0,0,0-0.1,0-0.1c-16-27.9-31.9-55.9-47.9-83.8c-1.9,11-3.8,22-5.5,33c-1.1,6.9-3.6,12.9-8.4,18
		c-7.4,7.8-14.5,16-21.9,23.9c-2.7,2.8-5.2,5.8-7.8,8.6c-0.7,0.8-1.2,1.9-2.4,1.7c-0.1,0.3-0.2,0.6-0.3,0.9c0.1,0,0.3,0.1,0.4,0.1
		c1.3,1.8,1.7,3.9,2.7,5.8c4.5,8.3,11.3,12.9,20.9,12.9c15.6,0,31.1,0,46.7,0c10.6,0,19-6.2,22.3-16.2c0.4-1.2,0.5-2.8,2.1-3.1
		C219.5,308.2,218.9,307.9,219.2,307z"/>
	<path class="st374" d="M220.1,308.5c-1.6,0.3-1.7,1.9-2.1,3.1c-3.4,10.1-11.7,16.2-22.3,16.2c-15.6,0-31.1,0-46.7,0
		c-9.6,0-16.4-4.6-20.9-12.9c-1-1.9-1.4-4-2.7-5.8c-0.1-0.1-0.3-0.1-0.4-0.1c0,0,0,0,0,0c0,0,0,0,0,0c3,12.5,12,19.7,24.7,19.7
		c15.5,0,30.9,0,46.4,0c10.9,0,20-7,23-17.5c0.3-0.9-0.1-2.2,1.3-2.5c0,0,0,0,0,0C220.3,308.6,220.2,308.6,220.1,308.5z"/>
	<path class="st374" d="M125.4,308.1c-0.2,0-0.3-0.1-0.5-0.1c0.1,0.3,0.1,0.7,0.2,1c0,0,0,0,0,0
		C125.2,308.7,125.3,308.4,125.4,308.1z"/>
	<path class="st374" d="M125,309C125,309,125,309,125,309C125,309,125,309,125,309C125,309,125,309,125,309z"/>
	<path class="st374" d="M219.2,306.9c0,0,0,0.1,0,0.1c-0.2,0.9,0.4,1.2,1,1.6c0,0,0.1,0,0.1,0c-0.3-0.4-0.6-0.8-0.8-1.2
		C219.4,307.1,219.3,307,219.2,306.9z"/>
	<path class="st374" d="M220.3,308.5c-0.1,0-0.1,0-0.1,0c0.1,0.1,0.2,0.1,0.3,0.2c0,0,0,0,0,0c0,0,0,0,0,0
		C220.4,308.6,220.3,308.6,220.3,308.5z"/>
	<path class="st374" d="M127.8,306.5c2.6-2.8,5.1-5.8,7.8-8.6c7.4-7.8,14.4-16,21.9-23.9c4.8-5,7.3-11.1,8.4-18
		c1.7-11,3.6-22,5.5-33c-0.1-0.2-0.2-0.4-0.3-0.6c0,0,0,0,0,0c-0.2,0.4-0.4,0.7-0.5,1.1c-1.9,10.8-3.8,21.6-5.5,32.5
		c-0.8,5.3-2.2,10.4-5.7,14.5c-3.9,4.6-8,8.9-12,13.3c-5.1,5.6-10,11.4-15.3,16.9c-2.2,2.3-4.1,4.9-6.6,6.9c0,0.2,0,0.4-0.1,0.6
		C126.5,308.3,127.1,307.2,127.8,306.5z"/>
	<path class="st374" d="M125.4,307.6c-0.2,0.1-0.4,0.3-0.6,0.4c0.2,0.1,0.3,0.1,0.5,0.1C125.4,308,125.4,307.8,125.4,307.6z"/>
	<path class="st375" d="M182.6,73.3c-4.6,5.1-9.3,10.2-13.9,15.3c-4.1,4.5-8.2,8.9-12.3,13.5c-1.1,1.3-2.1,3-4.1,3.1
		c0,0.2,0,0.4,0,0.6c2.1,0.6,3.8,2.1,5.6,3.2c5.5,3.4,11.1,6.9,16.2,10.8c7.9,6.2,11,14.6,9.4,24.5c-1.8,11.6-3.8,23.1-5.7,34.7
		c-1.9,11.7-3.8,23.3-5.9,34.9c-0.4,2,0.2,4.4-1.4,6.1c0.4,0.8,1,1.6,0.9,2.5c0,0,0,0,0,0c1.6,0.9,2.1,2.6,2.9,4
		c14.5,25.5,29.1,50.9,43.7,76.4c0.6,1,1.3,2,1.5,3.1c1.8-5.9,3.2-11.8,4.7-17.8c6.8-26.6,13.8-53.2,20.5-79.8
		c0.4-1.7,0.9-3.3,1.5-5c2.4-7,1.9-13.9-0.7-20.9c-8.3-22.3-16.3-44.7-24.5-67.1c-6.5-17.9-13.1-35.7-19.5-53.6
		c-0.4-1.1-1.1-2.2-0.7-3.5c0-0.1,0-0.1,0.1-0.2C192.8,61.1,187.9,67.4,182.6,73.3z"/>
	<path class="st375" d="M200.6,58.3c0,0.1-0.1,0.1-0.1,0.2c-0.3,1.3,0.3,2.4,0.7,3.5c6.5,17.9,13,35.8,19.5,53.6
		c8.2,22.4,16.2,44.8,24.5,67.1c2.6,7,3.1,13.8,0.7,20.9c-0.6,1.6-1.1,3.3-1.5,5c-6.7,26.6-13.7,53.2-20.5,79.8
		c-1.5,5.9-2.9,11.9-4.7,17.8c0.1,0.4,0.1,0.7,0,1.1c0.7-0.3,0.9-1,1.1-1.7c5.1-19.8,10.2-39.6,15.3-59.4
		c3.8-14.6,7.2-29.3,11.5-43.8c1.9-6.4,1.5-12.8-0.8-19.1c-7.5-20.4-14.9-40.8-22.4-61.1c-4.6-12.5-9.2-24.9-13.7-37.4
		c-3.2-8.9-6.4-17.7-9.5-26.6c0,0,0,0,0,0C200.8,58.2,200.7,58.3,200.6,58.3z"/>
	<path class="st375" d="M171.4,222.6c0-1-0.5-1.7-0.9-2.5c-0.1,0.2-0.3,0.3-0.5,0.5c0,0,0,0,0,0c0.3,0.6,0.7,1.2,1,1.9c0,0,0,0,0,0
		C171.1,222.5,171.2,222.6,171.4,222.6C171.4,222.6,171.4,222.6,171.4,222.6z"/>
	<path class="st375" d="M152.3,105.2c-0.1,0-0.1,0-0.2,0c0,0,0,0,0,0c0,0.2,0,0.4,0,0.5c0.1,0,0.1,0,0.2,0.1
		C152.4,105.6,152.4,105.4,152.3,105.2z"/>
	<path class="st375" d="M156.4,102c4-4.5,8.2-9,12.3-13.5c4.7-5.1,9.3-10.2,13.9-15.3c5.3-5.9,10.2-12.2,18-15c0,0,0-0.1,0-0.1
		c-3.4,0.2-6,1.9-8.4,4c-6,5.2-10.9,11.5-16.3,17.2c-7.9,8.5-15.8,17.1-23.6,25.6c0,0,0,0.1,0,0.1C154.3,105,155.3,103.3,156.4,102z
		"/>
	<path class="st375" d="M200.7,58.2C200.7,58.2,200.7,58.3,200.7,58.2c0,0.1,0.1,0,0.2,0c0,0,0,0,0,0c0,0,0,0,0,0
		C200.8,58.2,200.8,58.2,200.7,58.2z"/>
	<path class="st375" d="M152.3,105.2c0,0,0-0.1,0-0.1c0,0-0.1,0.1-0.1,0.1c0,0,0,0,0,0c0,0,0,0,0,0
		C152.2,105.2,152.3,105.2,152.3,105.2z"/>
	<path class="st375" d="M217.9,303.1c-14.6-25.5-29.2-50.9-43.7-76.4c-0.8-1.4-1.3-3.1-2.9-4c0,0.1,0,0.3-0.1,0.4
		c16,27.9,31.9,55.9,47.9,83.8c0.1-0.2,0.1-0.5,0.2-0.7C219.2,305,218.5,304.1,217.9,303.1z"/>
	<path class="st375" d="M219.4,306.2c-0.1,0.2-0.1,0.5-0.2,0.7c0.1,0.1,0.2,0.3,0.2,0.4C219.5,306.9,219.5,306.5,219.4,306.2z"/>
	<path class="st375" d="M171,222.4c0.1,0.2,0.2,0.4,0.3,0.6c0-0.1,0-0.3,0.1-0.4C171.2,222.6,171.1,222.5,171,222.4z"/>
	<path class="st376" d="M172.7,119.8c-5.2-3.9-10.9-7.1-16.3-10.7c-1.4-1-3.1-1.6-4.1-3.2c-3,4.7-7.4,8.3-10.9,12.5
		c-3.6,4.3-8.1,8.1-10.2,13.6c-2.8,7.2-2.6,14.4,1.2,21.2c9.5,17,19.3,33.8,28.9,50.7c3,5.2,6,10.4,8.9,15.7
		c4.3-25,8.4-50,12.5-75.1C184.3,134.3,181,126,172.7,119.8z"/>
	<path class="st376" d="M161.2,203.9c-9.6-16.9-19.4-33.7-28.9-50.7c-3.8-6.8-4-14-1.2-21.2c2.1-5.5,6.6-9.2,10.2-13.6
		c3.6-4.2,7.9-7.8,10.9-12.5c0-0.1-0.1-0.1-0.1-0.2c-6,6.5-12.3,12.7-17.8,19.5c-6.7,8.4-8.2,18.1-3,27.6
		c12.6,22.7,25.7,45.2,38.6,67.7c0,0,0,0,0,0c0.1-0.4,0.1-0.7,0.2-1.1C167.3,214.2,164.2,209.1,161.2,203.9z"/>
	<path class="st376" d="M177.8,179c1.9-11.6,3.9-23.1,5.7-34.7c1.6-10-1.5-18.3-9.4-24.5c-5.1-4-10.7-7.4-16.2-10.8
		c-1.8-1.1-3.4-2.6-5.6-3.2c0,0,0,0,0,0c0,0,0,0.1-0.1,0.1c1,1.5,2.7,2.2,4.1,3.2c5.4,3.6,11.1,6.8,16.3,10.7
		c8.3,6.2,11.6,14.5,9.9,24.6c-4.1,25-8.2,50.1-12.5,75.1c0.1,0.2,0.2,0.4,0.3,0.5c0,0,0,0,0,0c1.6-1.7,1.1-4.1,1.4-6.1
		C173.9,202.3,175.8,190.7,177.8,179z"/>
	<path class="st376" d="M170.4,220.1C170.4,220.1,170.4,220.1,170.4,220.1c-0.1-0.2-0.2-0.4-0.3-0.6c-0.1,0.4-0.1,0.7-0.2,1.1
		C170.1,220.4,170.3,220.3,170.4,220.1z"/>
	<path class="st376" d="M152.3,105.8C152.3,105.8,152.3,105.8,152.3,105.8c-0.1-0.1-0.1-0.1-0.2-0.1
		C152.2,105.8,152.2,105.8,152.3,105.8C152.3,105.9,152.3,105.8,152.3,105.8z"/>
</g>
</svg>
