<?xml version="1.0" encoding="utf-8"?>
<!-- Generator: Adobe Illustrator 23.0.2, SVG Export Plug-In . SVG Version: 6.00 Build 0)  -->
<svg version="1.1" id="Layer_1" xmlns="http://www.w3.org/2000/svg" xmlns:xlink="http://www.w3.org/1999/xlink" x="0px" y="0px"
	 viewBox="0 0 400 245" style="enable-background:new 0 0 400 245;" xml:space="preserve">
<style type="text/css">
	.st0{clip-path:url(#SVGID_2_);fill:url(#SVGID_3_);}
	.st1{fill:#33CCFF;}
	.st2{fill:#000033;}
	.st3{fill:#EF5023;}
	.st4{fill:#2A2B2D;}
	.st5{fill-rule:evenodd;clip-rule:evenodd;fill:#C6DC71;}
	.st6{fill-rule:evenodd;clip-rule:evenodd;fill:#297D7D;}
	.st7{fill-rule:evenodd;clip-rule:evenodd;fill:#1A334B;}
	.st8{fill:#057AB5;}
	.st9{fill:none;}
	.st10{fill:#33A0D9;}
	.st11{fill:#49AFE1;}
	.st12{fill:#5CBAE6;}
	.st13{fill:#FFFFFF;}
	.st14{fill:#007DC3;}
	.st15{fill:url(#SVGID_7_);}
	.st16{fill:#EB008B;}
	.st17{fill:#302D45;}
	.st18{fill:#D60015;stroke:#00FF00;stroke-width:0.9433;stroke-miterlimit:10;}
	.st19{fill:#D60015;}
	.st20{fill:#3D3D3D;}
	.st21{fill:#3D3D3E;}
	.st22{fill:url(#XMLID_2_);}
	.st23{fill-rule:evenodd;clip-rule:evenodd;fill:#0C5BA9;}
	.st24{fill:#0C5BA9;}
	.st25{fill:#009F62;}
	.st26{fill-rule:evenodd;clip-rule:evenodd;fill:#0066A1;}
	.st27{fill:#93D500;}
	.st28{fill:#53575A;}
	.st29{fill:#EE283B;}
	.st30{fill:#3D4A45;}
	.st31{fill-rule:evenodd;clip-rule:evenodd;}
	.st32{fill-rule:evenodd;clip-rule:evenodd;fill:#ED1C24;}
	.st33{fill:#0074BC;}
	.st34{fill-rule:evenodd;clip-rule:evenodd;fill:#292929;}
	.st35{fill-rule:evenodd;clip-rule:evenodd;fill:#525252;}
	.st36{fill-rule:evenodd;clip-rule:evenodd;fill:#787878;}
	.st37{fill-rule:evenodd;clip-rule:evenodd;fill:#9C9C9C;}
	.st38{fill-rule:evenodd;clip-rule:evenodd;fill:#B8B8B8;}
	.st39{fill-rule:evenodd;clip-rule:evenodd;fill:#CFCFCF;}
	.st40{fill-rule:evenodd;clip-rule:evenodd;fill:#E3E3E3;}
	.st41{fill-rule:evenodd;clip-rule:evenodd;fill:#F2F2F2;}
</style>
<g>
	<g>
		<path class="st26" d="M41.52,151.97c-0.74,1.35-4.78,12.39-5.93,16.17c-0.11,0.35-0.14,0.73-0.2,1c0.47,0.6,1.02,0.48,1.52,0.48
			c2.12,0.02,4.24,0,6.36,0.01c0.69,0,1.39,0.06,2.15,0.09c0.13,0.46,0.31,0.82,0.31,1.17c0.02,4.24,0.02,8.48,0.01,12.73
			c0,0.37-0.14,0.74-0.23,1.18c-0.41,0.07-0.78,0.16-1.15,0.18c-0.58,0.03-1.16,0.01-1.74,0.01c-13.05,0-26.09,0-39.14,0
			c-0.76,0-1.53,0.09-2.4-0.21c-0.29-1.65-0.11-3.32-0.14-4.97c-0.03-1.61-0.03-3.21,0-4.82c0.03-1.66-0.13-3.33,0.11-4.93
			c0.45-0.52,0.99-0.43,1.49-0.43c2.19-0.01,4.37-0.01,6.56-0.01c0.32,0,0.64,0.01,0.96-0.01c1.47-0.05,1.57-0.09,2.07-1.51
			c1.58-4.41,3.13-8.84,4.69-13.25c9.19-25.96,18.39-51.92,27.57-77.89c0.31-0.89,0.81-1.75,0.74-2.74
			c-0.51-0.49-1.11-0.34-1.66-0.34c-3.15-0.02-6.3,0-9.45-0.01c-0.63,0-1.26-0.05-1.76-0.08c-0.17-0.18-0.22-0.22-0.25-0.28
			c-0.03-0.05-0.06-0.12-0.06-0.18c-0.03-4.5-0.05-8.99-0.07-13.49c0-0.31,0.06-0.63,0.09-1.04c0.36-0.11,0.71-0.28,1.06-0.32
			c0.57-0.06,1.16-0.04,1.73-0.04c16,0,32.01,0,48.01,0c0.83,0,1.66,0.04,2.38,0.06c0.78,0.61,0.87,1.42,1.12,2.12
			c3.27,9.19,6.52,18.39,9.79,27.59c9.36,26.38,18.73,52.76,28.09,79.13c0.79,2.22,0.54,2.26,3.08,2.26c1.86,0,3.73-0.01,5.59,0.01
			c0.63,0,1.25,0.07,1.94,0.11c0.4,1.77,0.15,3.43,0.2,5.08c0.04,1.61,0.01,3.21,0.01,4.82c0,1.66-0.01,3.33-0.01,5.07
			c-0.46,0.11-0.81,0.23-1.18,0.26c-0.51,0.04-1.03,0.02-1.54,0.02c-14.2,0-28.41,0-42.61,0c-0.82,0-1.66,0.11-2.54-0.2
			c-0.05-0.41-0.12-0.78-0.13-1.15c-0.16-4.76-0.06-12.09,0.19-13.8c0.45-0.06,0.93-0.19,1.42-0.2c1.99-0.02,3.98-0.01,5.98-0.02
			c0.63,0,1.28,0.07,1.84-0.21c0.4-0.56,0.12-1.03-0.05-1.51c-1.52-4.3-3.04-8.6-4.56-12.89c-0.21-0.6-0.4-1.22-0.64-1.82
			c-0.16-0.41-0.39-0.8-0.6-1.24c-0.4-0.05-0.78-0.14-1.15-0.15C84.09,151.63,43.26,151.75,41.52,151.97z M48.45,132.28
			c0.86,0.51,1.65,0.35,2.4,0.35c10.02,0.01,20.04,0.01,30.07,0.01c0.58,0,1.16,0.01,1.73-0.04c0.29-0.03,0.56-0.2,0.79-0.28
			c0.16-0.88-0.24-1.51-0.47-2.16c-4.45-12.58-8.91-25.16-13.38-37.74c-1.01-2.84-2.02-5.68-3.04-8.52
			c-0.12-0.33-0.2-0.78-0.81-0.66c-0.1,0.19-0.24,0.4-0.33,0.64c-5.61,15.85-11.21,31.7-16.81,47.56
			C48.52,131.65,48.52,131.91,48.45,132.28z"/>
		<path class="st26" d="M300.5,175.78c0.79-1.57,1.9-2.98,2.81-4.51c0.95-1.6,1.94-3.18,2.88-4.79c0.91-1.55,1.8-3.11,2.67-4.69
			c0.86-1.56,1.69-3.15,2.51-4.68c0.82-0.15,1.37,0.26,1.95,0.48c5.77,2.21,11.64,4.04,17.67,5.38c6.67,1.48,13.4,2.42,20.26,2.11
			c4.33-0.19,8.56-0.98,12.53-2.76c1.4-0.63,2.7-1.48,4.02-2.27c0.44-0.26,0.81-0.63,1.2-0.96c3.15-2.7,4-6.15,3.23-10.11
			c-0.4-2.08-1.42-3.84-2.9-5.34c-1.28-1.29-2.74-2.33-4.3-3.24c-2.56-1.5-5.24-2.73-8.03-3.72c-3.69-1.31-7.41-2.54-11.13-3.76
			c-5.56-1.82-11.07-3.76-16.37-6.24c-3.97-1.86-7.76-4.01-11.18-6.78c-6.01-4.86-9.7-11.05-10.79-18.73
			c-0.75-5.26-0.74-10.51,0.66-15.68c1.99-7.37,6.28-13.14,12.36-17.66c4.86-3.61,10.31-6,16.11-7.61
			c4.97-1.38,10.04-2.1,15.18-2.44c4.32-0.29,8.62-0.14,12.9,0.2c4.22,0.34,8.43,0.87,12.61,1.55c4.43,0.72,8.82,1.7,13.23,2.58
			c0.5,0.1,0.98,0.27,1.54,0.44c0.06,0.47,0.16,0.9,0.15,1.34c-0.07,2.25-0.16,4.49-0.25,6.74c-0.01,0.32-0.04,0.64-0.05,0.96
			c-0.18,4.88-0.34,9.76-0.52,14.64c-0.12,3.15-0.25,6.29-0.39,9.44c-0.02,0.37-0.11,0.74-0.18,1.19c-0.51,0.05-0.94,0.14-1.38,0.14
			c-6.19,0.06-16.25-0.28-17.71-0.58c-0.35-0.57-0.21-1.23-0.21-1.86c0-4.31,0.03-8.61,0.02-12.92c0-0.7,0.14-1.42-0.27-2.15
			c-1.43-0.69-3.06-0.71-4.63-0.92c-3.45-0.44-6.92-0.54-10.39-0.41c-4.05,0.16-8.06,0.66-11.95,1.89
			c-1.84,0.58-3.62,1.33-5.28,2.32c-1.73,1.03-3.24,2.31-4.41,3.96c-2.36,3.32-2.77,8.15,0.21,11.84c0.92,1.14,2,2.17,3.14,3.11
			c2.19,1.81,4.69,3.15,7.24,4.38c4.87,2.34,9.95,4.15,15.09,5.8c5.62,1.81,11.2,3.77,16.58,6.23c4.16,1.9,8.15,4.1,11.73,6.98
			c6.25,5.04,9.53,11.59,10.23,19.56c0.37,4.14,0.19,8.22-0.67,12.26c-1.87,8.7-6.64,15.49-13.79,20.67
			c-5.12,3.7-10.83,6.12-16.9,7.74c-3.79,1.01-7.65,1.67-11.56,2.03c-5.71,0.52-11.42,0.44-17.13,0.02
			c-8.63-0.63-17.04-2.32-25.22-5.12c-3.95-1.36-7.79-2.99-11.5-4.92C301.57,176.63,300.92,176.46,300.5,175.78z"/>
		<path class="st26" d="M303.64,125.65c-0.65-5.86-2.08-11.5-4.55-16.84c-6.28-13.64-16.42-23.28-30.29-29.01
			c-4.9-2.02-10.03-3.23-15.3-3.69c-2.87-0.25-5.78-0.15-8.67-0.11c-2.49,0.04-2.2-0.27-3.72,2.02c-5.4,8.15-8.45,17.08-9.21,26.85
			c-0.41,5.24-0.08,10.42,1.02,15.52c3.04,14.1,10.47,25.4,22.11,33.92c2.81,2.06,5.82,3.77,8.97,5.25
			c0.55,0.26,1.25,0.36,1.55,1.02c-0.06,0.12-0.09,0.27-0.18,0.34c-0.24,0.21-0.49,0.41-0.76,0.58c-5.92,3.7-12.37,5.33-19.31,4.66
			c-7.29-0.7-13.59-3.7-18.84-8.8c-6.13-5.96-9.54-13.25-10.53-21.74c-0.62-5.34,0.02-10.51,1.66-15.58
			c0.99-3.07,2.39-5.98,4.27-8.6c0.8-1.11,1.19-2.23,1.11-3.57c-0.04-0.64,0.02-1.29,0.08-1.92c0.41-4.09,1-8.16,1.93-12.17
			c1.15-4.95,2.58-9.81,5-14.33c0.04-0.08-0.03-0.22-0.04-0.33c-4.95,0.91-14.37,6.56-20.1,12.06c-8,7.67-13.4,16.89-15.91,27.68
			c-3.22,13.83-1.3,27.04,5.28,39.57c-0.56,1.1-1.46,1.74-2.29,2.43c-5.17,4.29-11.01,6.79-17.84,6.6c-3.33-0.09-6.3-1.17-8.9-3.22
			c-2.71-2.13-4.43-4.95-5.45-8.22c-0.83-2.67-1.05-5.41-1.05-8.19c0-15.23,0-30.47,0-45.7c0-0.51-0.02-1.03,0.03-1.54
			c0.04-0.37,0.17-0.73,0.26-1.06c0.81-0.37,1.59-0.23,2.35-0.23c7.97-0.01,15.94,0,23.91-0.01c0.69,0,1.41,0.16,2.16-0.28
			c0.31-1.54,0.11-3.14,0.14-4.73c0.04-1.54,0.01-3.09,0.01-4.63c0-1.61,0.02-3.21-0.01-4.82c-0.03-1.59,0.14-3.19-0.14-4.85
			c-0.54-0.05-0.98-0.12-1.42-0.13c-1.22-0.02-2.44-0.01-3.66-0.01c-7.01,0-14.01,0.01-21.02-0.01c-0.75,0-1.54,0.15-2.28-0.25
			c-0.45-0.7-0.33-1.49-0.33-2.24c-0.01-5.46,0-10.93-0.01-16.39c0-0.76,0.13-1.54-0.21-2.26c-0.65-0.47-1.38-0.32-2.07-0.32
			c-5.91-0.01-11.83-0.01-17.74-0.01c-1.35,0-2.7-0.02-4.05,0.02c-0.41,0.01-0.82,0.19-1.34,0.31c0,0.8,0,1.5,0,2.2
			c0,5.66,0.01,11.31-0.01,16.97c0,1.88-0.1,1.95-1.96,1.98c-0.45,0.01-0.9,0-1.35,0c-4.44,0-8.87,0-13.31,0.01
			c-0.69,0-1.41-0.1-2,0.14c-0.49,0.58-0.39,1.17-0.4,1.74c-0.22,8.8-0.1,15.86,0.3,17.31c0.63,0.43,1.36,0.25,2.05,0.26
			c4.76,0.02,9.51,0,14.27,0.02c0.69,0,1.41-0.15,2.15,0.27c0.39,0.72,0.25,1.57,0.25,2.39c0.01,10.61,0,21.21,0.01,31.82
			c0,6.56,0.01,13.11,0.02,19.67c0,3.16,0.43,6.28,1.18,9.34c2.58,10.5,8.88,17.81,19.01,21.65c7.93,3.01,16.13,3.57,24.47,2.13
			c9.94-1.71,18.46-6.12,25.37-13.54c0.34-0.37,0.73-0.69,1.05-0.99c0.24,0.07,0.38,0.07,0.48,0.15c0.45,0.36,0.88,0.75,1.32,1.12
			c10.55,9.17,22.77,13.95,36.79,14.05c4.85,0.04,9.62-0.52,14.3-1.76C288.68,178.62,306.7,153.35,303.64,125.65z M279.5,140.86
			c-0.11,0.42-0.31,0.82-0.49,1.28c-0.79,0.03-1.43-0.23-2.08-0.48c-5.55-2.06-10.17-5.43-13.89-10.01
			c-4.45-5.47-6.97-11.74-7.77-18.76c-0.49-4.27-0.12-8.45,0.84-12.6c0.1-0.44,0.23-0.87,0.38-1.29c0.06-0.17,0.19-0.32,0.29-0.48
			c0.91-0.22,1.66,0.23,2.42,0.52c6.28,2.45,11.31,6.5,15.15,12.03c3.2,4.61,5.18,9.71,5.96,15.27
			C280.99,131.25,280.78,136.08,279.5,140.86z"/>
	</g>
</g>
</svg>
