<svg width="2217" height="410" viewBox="0 0 2217 410" fill="none" xmlns="http://www.w3.org/2000/svg">
<path d="M448.175 305.431H477.422V353.858H438.106C419.246 353.858 402.942 350.181 389.197 342.83C375.451 335.478 364.902 324.929 357.549 311.183C350.197 297.119 346.522 280.658 346.522 261.796V140.489H300.012V130.42L390.155 34.5245H399.265V94.9391H475.984V140.491H399.748V257.484C399.748 272.827 403.902 284.656 412.214 292.967C420.525 301.278 432.513 305.433 448.175 305.433V305.431ZM659.221 305.431H688.471V353.858H649.152C630.292 353.858 613.99 350.181 600.247 342.83C586.5 335.478 575.953 324.929 568.6 311.183C561.247 297.119 557.573 280.658 557.573 261.796V140.489H511.061V130.42L601.203 34.5245H610.316V94.9391H687.032V140.491H610.796V257.484C610.796 272.827 614.953 284.656 623.262 292.967C631.573 301.278 643.561 305.433 659.223 305.433L659.221 305.431ZM878.899 93.4982H901.914V143.844H874.105C829.992 143.844 807.938 167.817 807.938 215.766V353.858H754.717V94.9369H790.675L799.786 130.418C818.327 105.805 844.698 93.4982 878.901 93.4982H878.899ZM956.842 54.662V-3.05176e-05H1011.98V54.662H956.842ZM957.799 353.858V94.9369H1011.02V353.858H957.799ZM1239.52 88.704C1278.52 88.704 1310.65 101.65 1335.9 127.542C1361.47 153.116 1374.26 185.401 1374.26 224.398C1374.26 263.396 1361.47 295.84 1335.9 321.735C1310.65 347.306 1278.52 360.093 1239.52 360.093C1203.4 360.093 1172.87 348.264 1147.94 324.61L1141.23 353.86H1100.95V1.91897H1154.17V118.912C1178.15 98.7749 1206.6 88.704 1239.52 88.704H1239.52ZM1174.31 284.811C1190.61 301.115 1210.91 309.264 1235.21 309.264C1259.5 309.264 1279.64 301.276 1295.62 285.293C1311.6 268.989 1319.59 248.693 1319.59 224.398C1319.59 200.104 1311.6 179.967 1295.62 163.984C1279.64 147.682 1259.5 139.53 1235.21 139.53C1219.22 139.53 1204.68 143.207 1191.57 150.557C1178.79 157.91 1168.72 168.138 1161.37 181.244C1154.01 194.031 1150.34 208.413 1150.34 224.396C1150.34 248.369 1158.33 268.507 1174.32 284.811H1174.31ZM1559.09 360.093C1523.6 360.093 1495.16 349.544 1473.74 328.446C1452.32 307.35 1441.61 279.379 1441.61 244.536V94.9369H1494.83V236.864C1494.83 259.56 1500.59 277.301 1512.1 290.087C1523.6 302.872 1539.27 309.267 1559.09 309.267C1578.91 309.267 1595.05 302.874 1606.56 290.087C1618.06 276.982 1623.82 259.242 1623.82 236.864V94.9369H1677.04V244.536C1677.04 279.379 1666.33 307.348 1644.91 328.446C1623.49 349.542 1594.89 360.093 1559.09 360.093ZM1878.34 305.431H1907.59V353.858H1868.27C1849.41 353.858 1833.11 350.181 1819.37 342.83C1805.62 335.478 1795.07 324.929 1787.72 311.183C1780.37 297.119 1776.69 280.658 1776.69 261.796V140.489H1730.18V130.42L1820.32 34.5245H1829.43V94.9391H1906.15V140.491H1829.91V257.484C1829.91 272.827 1834.07 284.656 1842.38 292.967C1850.69 301.278 1862.68 305.433 1878.34 305.433L1878.34 305.431ZM2217 224.876C2217 229.671 2216.68 235.585 2216.04 242.617H2006.03C2009.22 263.394 2017.85 279.855 2031.92 292.004C2046.3 304.149 2064.05 310.223 2085.14 310.223C2095.37 310.223 2104.96 308.784 2113.91 305.907C2122.86 302.711 2130.69 298.397 2137.4 292.963C2144.44 287.208 2150.19 280.335 2154.67 272.345H2210.77C2200.53 299.835 2184.23 321.411 2161.86 337.076C2139.48 352.419 2113.91 360.091 2085.14 360.091C2047.1 360.091 2015.3 347.144 1989.72 321.25C1964.47 295.36 1951.84 263.073 1951.84 224.396C1951.84 185.719 1964.47 153.433 1989.72 127.54C2015.3 101.648 2047.1 88.7018 2085.14 88.7018C2111.03 88.7018 2134.05 94.9347 2154.18 107.401C2174.32 119.548 2189.83 136.009 2200.7 156.788C2211.56 177.246 2217 199.94 2217 224.874V224.876ZM2085.14 136.653C2065.32 136.653 2048.38 142.246 2034.32 153.435C2020.57 164.623 2011.46 179.967 2006.99 199.464H2163.78C2160.58 186.359 2155.31 175.17 2147.96 165.901C2140.6 156.31 2131.49 149.119 2120.62 144.324C2110.08 139.209 2098.25 136.653 2085.14 136.653H2085.14Z" fill="#004742"/>
<path d="M263.112 353.775H131.557C59.0152 353.775 0 294.759 0 222.22C0 149.68 59.0152 90.6645 131.555 90.6645C204.095 90.6645 263.11 149.68 263.11 222.22V353.775H263.112ZM131.555 141.019C86.7828 141.019 50.3546 177.445 50.3546 222.22C50.3546 266.994 86.7828 303.42 131.555 303.42H212.756V222.22C212.756 177.445 176.327 141.019 131.555 141.019Z" fill="#004742"/>
<path d="M318.503 353.877H263.112V409.268H318.503V353.877Z" fill="#E6FF75"/>
</svg>
