<?xml version="1.0" encoding="UTF-8" standalone="no"?>
<svg
   width="359.11139"
   height="74.331451"
   id="svg4322"
   version="1.1"
   sodipodi:docname="black-path-nomargin.svg"
   inkscape:version="1.1 (c68e22c387, 2021-05-23)"
   xmlns:inkscape="http://www.inkscape.org/namespaces/inkscape"
   xmlns:sodipodi="http://sodipodi.sourceforge.net/DTD/sodipodi-0.dtd"
   xmlns="http://www.w3.org/2000/svg"
   xmlns:svg="http://www.w3.org/2000/svg"
   xmlns:rdf="http://www.w3.org/1999/02/22-rdf-syntax-ns#"
   xmlns:cc="http://creativecommons.org/ns#"
   xmlns:dc="http://purl.org/dc/elements/1.1/">
  <sodipodi:namedview
     id="namedview16"
     pagecolor="#ffffff"
     bordercolor="#666666"
     borderopacity="1.0"
     inkscape:pageshadow="2"
     inkscape:pageopacity="0.0"
     inkscape:pagecheckerboard="0"
     showgrid="false"
     fit-margin-top="0"
     fit-margin-left="0"
     fit-margin-right="0"
     fit-margin-bottom="0"
     inkscape:zoom="3.6228314"
     inkscape:cx="130.00881"
     inkscape:cy="36.987645"
     inkscape:current-layer="svg4322" />
  <defs
     id="defs4324" />
  <metadata
     id="metadata4327">
    <rdf:RDF>
      <cc:Work
         rdf:about="">
        <dc:format>image/svg+xml</dc:format>
        <dc:type
           rdf:resource="http://purl.org/dc/dcmitype/StillImage" />
      </cc:Work>
    </rdf:RDF>
  </metadata>
  <g
     id="g1983"
     transform="translate(-2.6859632,149.51257)">
    <g
       aria-label="awesome"
       transform="matrix(1.0239827,0,0,0.87807809,-80.274292,-192.57015)"
       id="flowRoot2985-3-7"
       style="line-height:0%;letter-spacing:-2.6365px;word-spacing:0px">
      <path
         d="m 99.887734,92.896167 q -5.78,0 -10.03,-2.635 -4.25,-2.635 -6.545,-7.565 -2.295,-4.93 -2.295,-11.73 0,-6.885 2.295,-11.73 2.38,-4.93 6.63,-7.565 4.25,-2.635 9.945,-2.635 6.034996,0 10.284996,3.145 4.335,3.145 5.695,8.67 h -1.02 l 0.85,-11.135 h 3.485 q -0.255,2.38 -0.51,4.675 -0.17,2.295 -0.17,4.505 v 33.32 h -3.57 v -11.135 h 0.935 q -1.36,5.525 -5.695,8.67 -4.335,3.145 -10.284996,3.145 z m 0,-3.315 q 6.969996,0 11.049996,-4.76 4.08,-4.845 4.08,-13.855 0,-9.01 -4.08,-13.77 -4.08,-4.845 -11.049996,-4.845 -6.97,0 -11.135,4.845 -4.08,4.76 -4.08,13.77 0,9.01 4.08,13.855 4.165,4.76 11.135,4.76 z"
         style="fill:#333333"
         id="path849" />
      <path
         d="m 141.45099,92.216167 -14.96,-42.5 h 3.995 l 14.195,41.31 h -2.295 l 14.79,-41.31 h 4.505 l 14.535,41.31 h -2.295 l 14.365,-41.31 h 3.91 l -15.045,42.5 h -4.25 l -14.705,-41.735 h 2.55 l -14.96,41.735 z"
         style="fill:#333333"
         id="path851" />
      <path
         d="m 217.69427,92.896167 q -6.205,0 -10.795,-2.55 -4.59,-2.55 -7.14,-7.395 -2.465,-4.93 -2.465,-11.815 0,-6.8 2.465,-11.73 2.465,-4.93 6.885,-7.65 4.505,-2.72 10.285,-2.72 5.525,0 9.35,2.38 3.91,2.295 5.95,6.715 2.125,4.335 2.125,10.37 v 2.295 h -34.765 v -3.23 h 32.895 l -1.445,1.105 q 0,-7.65 -3.57,-11.985 -3.57,-4.42 -10.625,-4.42 -5.015,0 -8.585,2.38 -3.57,2.295 -5.44,6.46 -1.87,4.08 -1.87,9.605 v 0.425 q 0,9.01 4.42,13.77 4.42,4.675 12.325,4.675 3.995,0 7.48,-1.275 3.485,-1.275 6.715,-4.335 l 1.785,2.805 q -2.635,2.89 -6.97,4.505 -4.335,1.615 -9.01,1.615 z"
         style="fill:#333333"
         id="path853" />
      <path
         d="m 256.79264,92.896167 q -4.76,0 -9.01,-1.445 -4.165,-1.53 -6.8,-4.165 l 1.785,-2.805 q 3.06,2.635 6.63,3.91 3.57,1.19 7.565,1.19 5.78,0 8.84,-2.21 3.06,-2.21 3.06,-6.035 0,-2.975 -1.955,-4.76 -1.955,-1.87 -6.46,-2.805 l -7.395,-1.615 q -5.44,-1.275 -8.075,-4.08 -2.635,-2.805 -2.635,-6.97 0,-3.485 1.785,-6.205 1.87,-2.72 5.27,-4.25 3.485,-1.615 8.16,-1.615 4.505,0 8.245,1.53 3.825,1.53 6.12,4.25 l -1.87,2.805 q -2.55,-2.635 -5.695,-3.91 -3.145,-1.36 -6.8,-1.36 -5.525,0 -8.5,2.38 -2.89,2.38 -2.89,6.29 0,2.975 1.785,4.845 1.87,1.87 5.865,2.805 l 7.395,1.7 q 5.78,1.36 8.585,3.995 2.805,2.55 2.805,6.8 0,3.57 -1.955,6.205 -1.955,2.635 -5.525,4.08 -3.57,1.445 -8.33,1.445 z"
         style="fill:#298edc"
         id="path855" />
      <path
         d="m 298.69602,92.896167 q -5.78,0 -10.03,-2.635 -4.25,-2.635 -6.545,-7.565 -2.295,-4.93 -2.295,-11.73 0,-6.8 2.295,-11.73 2.295,-4.93 6.545,-7.565 4.25,-2.635 10.03,-2.635 5.78,0 10.03,2.635 4.25,2.635 6.545,7.565 2.38,4.93 2.38,11.73 0,6.8 -2.38,11.73 -2.295,4.93 -6.545,7.565 -4.25,2.635 -10.03,2.635 z m 0,-3.315 q 6.97,0 11.135,-4.76 4.165,-4.845 4.165,-13.855 0,-9.01 -4.165,-13.77 -4.165,-4.845 -11.135,-4.845 -6.97,0 -11.135,4.845 -4.08,4.76 -4.08,13.77 0,9.01 4.08,13.855 4.165,4.76 11.135,4.76 z"
         style="fill:#298edc"
         id="path857" />
      <path
         d="m 327.08449,92.216167 v -33.32 q 0,-2.21 -0.255,-4.505 -0.17,-2.295 -0.425,-4.675 h 3.485 l 0.765,10.2 h -1.02 q 1.615,-5.27 5.355,-8.075 3.74,-2.805 9.095,-2.805 5.61,0 9.01,2.72 3.4,2.635 4.42,8.245 h -1.19 q 1.445,-5.015 5.44,-7.99 4.08,-2.975 9.775,-2.975 6.8,0 10.37,3.91 3.57,3.91 3.57,12.24 v 27.03 h -3.57 v -26.69 q 0,-6.885 -2.465,-10.03 -2.465,-3.145 -7.99,-3.145 -6.205,0 -9.86,4.165 -3.57,4.165 -3.57,11.22 v 24.48 h -3.57 v -26.69 q 0,-6.885 -2.465,-10.03 -2.465,-3.145 -7.99,-3.145 -6.205,0 -9.775,4.165 -3.57,4.165 -3.57,11.22 v 24.48 z"
         style="fill:#298edc"
         id="path859" />
      <path
         d="m 415.05787,92.896167 q -6.205,0 -10.795,-2.55 -4.59,-2.55 -7.14,-7.395 -2.465,-4.93 -2.465,-11.815 0,-6.8 2.465,-11.73 2.465,-4.93 6.885,-7.65 4.505,-2.72 10.285,-2.72 5.525,0 9.35,2.38 3.91,2.295 5.95,6.715 2.125,4.335 2.125,10.37 v 2.295 h -34.765 v -3.23 h 32.895 l -1.445,1.105 q 0,-7.65 -3.57,-11.985 -3.57,-4.42 -10.625,-4.42 -5.015,0 -8.585,2.38 -3.57,2.295 -5.44,6.46 -1.87,4.08 -1.87,9.605 v 0.425 q 0,9.01 4.42,13.77 4.42,4.675 12.325,4.675 3.995,0 7.48,-1.275 3.485,-1.275 6.715,-4.335 l 1.785,2.805 q -2.635,2.89 -6.97,4.505 -4.335,1.615 -9.01,1.615 z"
         style="fill:#298edc"
         id="path861" />
    </g>
    <g
       aria-label="information technology"
       transform="scale(1.1123091,0.89903067)"
       id="text4408"
       style="font-size:13.3477px;line-height:0%;letter-spacing:0px;word-spacing:0px;stroke-width:1.11231">
      <path
         d="M 2.764714,-90.846352 V -106.7532 h 1.3361754 v 15.906848 z M 2.4147633,-110.9208 v -2.00426 h 2.0360768 v 2.00426 z"
         style="font-weight:200;font-size:31.8137px;line-height:126%;font-family:Mulish;-inkscape-font-specification:'Mulish Ultra-Light';fill:#6e6e6e"
         id="path864" />
      <path
         d="m 9.700053,-90.846352 v -12.470968 q 0,-0.82716 -0.095441,-1.68613 -0.063627,-0.85897 -0.1590685,-1.74975 h 1.3043616 l 0.286323,3.81764 h -0.381764 q 0.668088,-2.00426 2.226959,-3.0223 1.590685,-1.04985 3.722203,-1.04985 2.831419,0 4.263036,1.46343 1.46343,1.46343 1.46343,4.58117 v 10.116758 h -1.336176 v -9.989498 q 0,-2.57691 -1.049852,-3.75402 -1.049852,-1.17711 -3.308624,-1.17711 -2.57691,0 -4.103968,1.55887 -1.495244,1.55888 -1.495244,4.19941 v 9.162348 z"
         style="font-weight:200;font-size:31.8137px;line-height:126%;font-family:Mulish;-inkscape-font-specification:'Mulish Ultra-Light';fill:#6e6e6e"
         id="path866" />
      <path
         d="m 28.470126,-90.846352 v -14.761558 h -3.18137 v -1.14529 h 3.499507 l -0.318137,0.34995 v -2.83142 q 0,-2.44965 1.177106,-3.78583 1.208921,-1.36799 3.404066,-1.36799 0.540833,0 1.145294,0.12726 0.60446,0.0954 0.954411,0.2545 v 1.27255 q -0.349951,-0.15907 -0.890784,-0.28632 -0.540833,-0.12726 -1.145293,-0.12726 -1.11348,0 -1.877009,0.47721 -0.731715,0.47721 -1.081665,1.3998 -0.349951,0.89079 -0.349951,2.25878 v 2.70416 l -0.25451,-0.44539 h 4.931124 v 1.14529 h -4.676614 v 14.761558 z"
         style="font-weight:200;font-size:31.8137px;line-height:126%;font-family:Mulish;-inkscape-font-specification:'Mulish Ultra-Light';fill:#6e6e6e"
         id="path868" />
      <path
         d="m 43.231606,-90.591842 q -2.163332,0 -3.754017,-0.986225 -1.590685,-0.986224 -2.449655,-2.831419 -0.85897,-1.845195 -0.85897,-4.390291 0,-2.545093 0.85897,-4.390293 0.85897,-1.84519 2.449655,-2.83142 1.590685,-0.98622 3.754017,-0.98622 2.163331,0 3.754016,0.98622 1.590685,0.98623 2.449655,2.83142 0.890784,1.8452 0.890784,4.390293 0,2.545096 -0.890784,4.390291 -0.85897,1.845195 -2.449655,2.831419 -1.590685,0.986225 -3.754016,0.986225 z m 0,-1.240734 q 2.608723,0 4.167594,-1.781567 1.558872,-1.813381 1.558872,-5.185634 0,-3.372253 -1.558872,-5.153823 -1.558871,-1.81338 -4.167594,-1.81338 -2.608724,0 -4.167595,1.81338 -1.527058,1.78157 -1.527058,5.153823 0,3.372253 1.527058,5.185634 1.558871,1.781567 4.167595,1.781567 z"
         style="font-weight:200;font-size:31.8137px;line-height:126%;font-family:Mulish;-inkscape-font-specification:'Mulish Ultra-Light';fill:#6e6e6e"
         id="path870" />
      <path
         d="m 54.779963,-90.846352 v -12.280088 q 0,-0.89078 -0.06363,-1.81338 -0.03181,-0.9226 -0.127255,-1.81338 h 1.304362 l 0.190882,3.46769 -0.286323,0.0318 q 0.318137,-1.27255 1.145293,-2.09971 0.85897,-0.82715 1.940635,-1.24073 1.11348,-0.41358 2.195146,-0.41358 0.381764,0 0.731715,0.0318 0.381764,0.0318 0.699901,0.12726 l -0.06363,1.24073 q -0.318137,-0.0954 -0.699902,-0.12725 -0.34995,-0.0318 -0.763528,-0.0318 -1.463431,0 -2.57691,0.76353 -1.081666,0.73172 -1.686126,1.8452 -0.60446,1.08166 -0.60446,2.13151 v 10.180388 z"
         style="font-weight:200;font-size:31.8137px;line-height:126%;font-family:Mulish;-inkscape-font-specification:'Mulish Ultra-Light';fill:#6e6e6e"
         id="path872" />
      <path
         d="m 65.532948,-90.846352 v -12.470968 q 0,-0.82716 -0.09544,-1.68613 -0.06363,-0.85897 -0.159068,-1.74975 H 66.5828 l 0.286324,3.81764 h -0.381765 q 0.604461,-1.97245 2.004263,-3.0223 1.399803,-1.04985 3.404066,-1.04985 2.099704,0 3.372252,1.01804 1.272548,0.98622 1.654313,3.08593 h -0.445392 q 0.540833,-1.87701 2.036077,-2.99049 1.527057,-1.11348 3.658575,-1.11348 2.545096,0 3.881272,1.46343 1.336175,1.46343 1.336175,4.58117 v 10.116758 h -1.336175 v -9.989498 q 0,-2.57691 -0.922598,-3.75402 -0.922597,-1.17711 -2.990487,-1.17711 -2.322401,0 -3.69039,1.55887 -1.336175,1.55888 -1.336175,4.19941 v 9.162348 H 75.77696 v -9.989498 q 0,-2.57691 -0.922598,-3.75402 -0.922597,-1.17711 -2.990487,-1.17711 -2.322401,0 -3.658576,1.55887 -1.336175,1.55888 -1.336175,4.19941 v 9.162348 z"
         style="font-weight:200;font-size:31.8137px;line-height:126%;font-family:Mulish;-inkscape-font-specification:'Mulish Ultra-Light';fill:#6e6e6e"
         id="path874" />
      <path
         d="m 98.873665,-90.591842 q -2.163332,0 -3.754017,-0.986225 -1.590685,-0.986224 -2.449654,-2.831419 -0.85897,-1.845195 -0.85897,-4.390291 0,-2.576913 0.85897,-4.390293 0.890783,-1.84519 2.481468,-2.83142 1.590685,-0.98622 3.722203,-0.98622 2.258775,0 3.849455,1.17711 1.6225,1.1771 2.13152,3.24499 h -0.38176 l 0.31813,-4.16759 h 1.30436 q -0.0954,0.89078 -0.19088,1.74975 -0.0636,0.85897 -0.0636,1.68613 v 12.470968 h -1.33618 v -4.167594 h 0.34995 q -0.50902,2.06789 -2.13152,3.244997 -1.6225,1.177107 -3.849455,1.177107 z m 0,-1.240734 q 2.608725,0 4.135785,-1.781567 1.52705,-1.813381 1.52705,-5.185634 0,-3.372253 -1.52705,-5.153823 -1.52706,-1.81338 -4.135785,-1.81338 -2.608723,0 -4.167595,1.81338 -1.527057,1.78157 -1.527057,5.153823 0,3.372253 1.527057,5.185634 1.558872,1.781567 4.167595,1.781567 z"
         style="font-weight:200;font-size:31.8137px;line-height:126%;font-family:Mulish;-inkscape-font-specification:'Mulish Ultra-Light';fill:#6e6e6e"
         id="path876" />
      <path
         d="m 116.08482,-90.591842 q -1.94063,0 -2.99049,-1.208921 -1.01803,-1.240734 -1.01803,-3.754016 v -10.053131 h -3.18137 v -1.14529 h 3.18137 v -4.54936 l 1.33617,-0.50902 v 5.05838 h 4.83568 v 1.14529 h -4.83568 v 9.766808 q 0,2.099704 0.63628,3.054115 0.66808,0.954411 2.13151,0.954411 0.63628,0 1.1453,-0.127255 0.50902,-0.127255 0.85897,-0.286323 v 1.272548 q -0.34995,0.159068 -0.95441,0.254509 -0.57265,0.127255 -1.1453,0.127255 z"
         style="font-weight:200;font-size:31.8137px;line-height:126%;font-family:Mulish;-inkscape-font-specification:'Mulish Ultra-Light';fill:#6e6e6e"
         id="path878" />
      <path
         d="M 121.74764,-90.846352 V -106.7532 h 1.33617 v 15.906848 z m -0.34995,-20.074448 v -2.00426 h 2.03608 v 2.00426 z"
         style="font-weight:200;font-size:31.8137px;line-height:126%;font-family:Mulish;-inkscape-font-specification:'Mulish Ultra-Light';fill:#6e6e6e"
         id="path880" />
      <path
         d="m 134.66396,-90.591842 q -2.16334,0 -3.75402,-0.986225 -1.59069,-0.986224 -2.44966,-2.831419 -0.85897,-1.845195 -0.85897,-4.390291 0,-2.545093 0.85897,-4.390293 0.85897,-1.84519 2.44966,-2.83142 1.59068,-0.98622 3.75402,-0.98622 2.16333,0 3.75401,0.98622 1.59069,0.98623 2.44966,2.83142 0.89078,1.8452 0.89078,4.390293 0,2.545096 -0.89078,4.390291 -0.85897,1.845195 -2.44966,2.831419 -1.59068,0.986225 -3.75401,0.986225 z m 0,-1.240734 q 2.60872,0 4.16759,-1.781567 1.55887,-1.813381 1.55887,-5.185634 0,-3.372253 -1.55887,-5.153823 -1.55887,-1.81338 -4.16759,-1.81338 -2.60873,0 -4.1676,1.81338 -1.52706,1.78157 -1.52706,5.153823 0,3.372253 1.52706,5.185634 1.55887,1.781567 4.1676,1.781567 z"
         style="font-weight:200;font-size:31.8137px;line-height:126%;font-family:Mulish;-inkscape-font-specification:'Mulish Ultra-Light';fill:#6e6e6e"
         id="path882" />
      <path
         d="m 146.27594,-90.846352 v -12.470968 q 0,-0.82716 -0.0954,-1.68613 -0.0636,-0.85897 -0.15907,-1.74975 h 1.30437 l 0.28632,3.81764 h -0.38176 q 0.66808,-2.00426 2.22695,-3.0223 1.59069,-1.04985 3.72221,-1.04985 2.83142,0 4.26303,1.46343 1.46343,1.46343 1.46343,4.58117 v 10.116758 h -1.33617 v -9.989498 q 0,-2.57691 -1.04985,-3.75402 -1.04986,-1.17711 -3.30863,-1.17711 -2.57691,0 -4.10397,1.55887 -1.49524,1.55888 -1.49524,4.19941 v 9.162348 z"
         style="font-weight:200;font-size:31.8137px;line-height:126%;font-family:Mulish;-inkscape-font-specification:'Mulish Ultra-Light';fill:#6e6e6e"
         id="path884" />
      <path
         d="m 177.0079,-90.591842 q -1.94063,0 -2.99048,-1.208921 -1.01804,-1.240734 -1.01804,-3.754016 v -10.053131 h -3.18137 v -1.14529 h 3.18137 v -4.54936 l 1.33617,-0.50902 v 5.05838 h 4.83568 v 1.14529 h -4.83568 v 9.766808 q 0,2.099704 0.63628,3.054115 0.66808,0.954411 2.13151,0.954411 0.63628,0 1.1453,-0.127255 0.50902,-0.127255 0.85897,-0.286323 v 1.272548 q -0.34995,0.159068 -0.95441,0.254509 -0.57265,0.127255 -1.1453,0.127255 z"
         style="font-weight:200;font-size:31.8137px;line-height:126%;font-family:Mulish;-inkscape-font-specification:'Mulish Ultra-Light';fill:#6e6e6e"
         id="path886" />
      <path
         d="m 189.06524,-90.591842 q -2.3224,0 -4.04034,-0.954411 -1.71794,-0.954411 -2.67235,-2.767792 -0.9226,-1.845194 -0.9226,-4.422104 0,-2.545101 0.9226,-4.390291 0.9226,-1.84519 2.57691,-2.86323 1.68612,-1.01804 3.84946,-1.01804 2.06789,0 3.4995,0.89078 1.46343,0.85897 2.22696,2.51328 0.79534,1.6225 0.79534,3.881276 v 0.85897 h -13.0118 v -1.208916 h 12.3119 l -0.54083,0.413574 q 0,-2.863234 -1.33618,-4.485734 -1.33617,-1.65431 -3.97671,-1.65431 -1.87701,0 -3.21318,0.89078 -1.33618,0.85897 -2.03608,2.41784 -0.6999,1.52706 -0.6999,3.594952 v 0.159069 q 0,3.372252 1.65431,5.153819 1.65431,1.749754 4.61299,1.749754 1.49524,0 2.7996,-0.477206 1.30437,-0.477205 2.51329,-1.622498 l 0.66808,1.049852 q -0.98622,1.081665 -2.60872,1.686126 -1.6225,0.60446 -3.37225,0.60446 z"
         style="font-weight:200;font-size:31.8137px;line-height:126%;font-family:Mulish;-inkscape-font-specification:'Mulish Ultra-Light';fill:#6e6e6e"
         id="path888" />
      <path
         d="m 205.86283,-90.591842 q -2.22696,0 -3.84946,-0.986225 -1.6225,-1.018038 -2.51328,-2.895046 -0.85897,-1.877009 -0.85897,-4.453918 0,-2.576909 0.89078,-4.390289 0.89078,-1.81338 2.51328,-2.73598 1.6225,-0.95441 3.81765,-0.95441 1.49524,0 2.86323,0.60446 1.3998,0.57265 2.3224,1.6225 l -0.66809,1.01804 q -1.01804,-1.04986 -2.19514,-1.52706 -1.17711,-0.47721 -2.35422,-0.47721 -2.73597,0 -4.29485,1.78157 -1.52705,1.74975 -1.52705,5.090192 0,3.372253 1.52705,5.217447 1.55888,1.845195 4.29485,1.845195 1.11348,0 2.29059,-0.445392 1.20892,-0.477206 2.25877,-1.558871 l 0.66809,1.018038 q -0.95441,1.081666 -2.38603,1.654312 -1.3998,0.572647 -2.7996,0.572647 z"
         style="font-weight:200;font-size:31.8137px;line-height:126%;font-family:Mulish;-inkscape-font-specification:'Mulish Ultra-Light';fill:#6e6e6e"
         id="path890" />
      <path
         d="m 215.21604,-90.846352 v -23.414878 h 1.33617 v 11.35749 h -0.38176 q 0.63627,-2.03608 2.25877,-3.05412 1.6225,-1.04985 3.75402,-1.04985 2.89505,0 4.26303,1.49524 1.39981,1.49525 1.39981,4.48573 v 10.180388 h -1.33618 v -10.053128 q 0,-2.5451 -1.01804,-3.69039 -1.01803,-1.17711 -3.30862,-1.17711 -2.5451,0 -4.10397,1.55887 -1.52706,1.55888 -1.52706,4.13579 v 9.225968 z"
         style="font-weight:200;font-size:31.8137px;line-height:126%;font-family:Mulish;-inkscape-font-specification:'Mulish Ultra-Light';fill:#6e6e6e"
         id="path892" />
      <path
         d="m 233.34984,-90.846352 v -12.470968 q 0,-0.82716 -0.0954,-1.68613 -0.0636,-0.85897 -0.15907,-1.74975 h 1.30436 l 0.28633,3.81764 h -0.38177 q 0.66809,-2.00426 2.22696,-3.0223 1.59069,-1.04985 3.72221,-1.04985 2.83141,0 4.26303,1.46343 1.46343,1.46343 1.46343,4.58117 v 10.116758 h -1.33617 v -9.989498 q 0,-2.57691 -1.04986,-3.75402 -1.04985,-1.17711 -3.30862,-1.17711 -2.57691,0 -4.10397,1.55887 -1.49524,1.55888 -1.49524,4.19941 v 9.162348 z"
         style="font-weight:200;font-size:31.8137px;line-height:126%;font-family:Mulish;-inkscape-font-specification:'Mulish Ultra-Light';fill:#6e6e6e"
         id="path894" />
      <path
         d="m 257.46461,-90.591842 q -2.16333,0 -3.75402,-0.986225 -1.59068,-0.986224 -2.44965,-2.831419 -0.85897,-1.845195 -0.85897,-4.390291 0,-2.545093 0.85897,-4.390293 0.85897,-1.84519 2.44965,-2.83142 1.59069,-0.98622 3.75402,-0.98622 2.16333,0 3.75401,0.98622 1.59069,0.98623 2.44966,2.83142 0.89078,1.8452 0.89078,4.390293 0,2.545096 -0.89078,4.390291 -0.85897,1.845195 -2.44966,2.831419 -1.59068,0.986225 -3.75401,0.986225 z m 0,-1.240734 q 2.60872,0 4.16759,-1.781567 1.55887,-1.813381 1.55887,-5.185634 0,-3.372253 -1.55887,-5.153823 -1.55887,-1.81338 -4.16759,-1.81338 -2.60873,0 -4.1676,1.81338 -1.52705,1.78157 -1.52705,5.153823 0,3.372253 1.52705,5.185634 1.55887,1.781567 4.1676,1.781567 z"
         style="font-weight:200;font-size:31.8137px;line-height:126%;font-family:Mulish;-inkscape-font-specification:'Mulish Ultra-Light';fill:#6e6e6e"
         id="path896" />
      <path
         d="m 269.0766,-90.846352 v -23.414878 h 1.33618 v 23.414878 z"
         style="font-weight:200;font-size:31.8137px;line-height:126%;font-family:Mulish;-inkscape-font-specification:'Mulish Ultra-Light';fill:#6e6e6e"
         id="path898" />
      <path
         d="m 281.99291,-90.591842 q -2.16333,0 -3.75401,-0.986225 -1.59069,-0.986224 -2.44966,-2.831419 -0.85897,-1.845195 -0.85897,-4.390291 0,-2.545093 0.85897,-4.390293 0.85897,-1.84519 2.44966,-2.83142 1.59068,-0.98622 3.75401,-0.98622 2.16333,0 3.75402,0.98622 1.59068,0.98623 2.44965,2.83142 0.89079,1.8452 0.89079,4.390293 0,2.545096 -0.89079,4.390291 -0.85897,1.845195 -2.44965,2.831419 -1.59069,0.986225 -3.75402,0.986225 z m 0,-1.240734 q 2.60873,0 4.1676,-1.781567 1.55887,-1.813381 1.55887,-5.185634 0,-3.372253 -1.55887,-5.153823 -1.55887,-1.81338 -4.1676,-1.81338 -2.60872,0 -4.16759,1.81338 -1.52706,1.78157 -1.52706,5.153823 0,3.372253 1.52706,5.185634 1.55887,1.781567 4.16759,1.781567 z"
         style="font-weight:200;font-size:31.8137px;line-height:126%;font-family:Mulish;-inkscape-font-specification:'Mulish Ultra-Light';fill:#6e6e6e"
         id="path900" />
      <path
         d="m 300.28577,-83.751897 q -1.94064,0 -3.65858,-0.572646 -1.68612,-0.540833 -3.05411,-1.654313 l 0.63627,-1.081665 q 1.04986,0.763528 1.97245,1.20892 0.9226,0.445392 1.90883,0.636274 1.01803,0.222696 2.22695,0.222696 2.48147,0 3.75402,-1.367989 1.30436,-1.336175 1.30436,-3.849458 v -5.440142 h 0.34995 q -0.50902,2.099704 -2.16333,3.276811 -1.6225,1.177107 -3.88127,1.177107 -2.19515,0 -3.81764,-0.954411 -1.59069,-0.986225 -2.48147,-2.767792 -0.85897,-1.781567 -0.85897,-4.199409 0,-2.417836 0.85897,-4.167596 0.89078,-1.78157 2.48147,-2.73598 1.62249,-0.98622 3.81764,-0.98622 2.25877,0 3.88127,1.17711 1.65431,1.1771 2.16333,3.30862 l -0.34995,-0.41358 0.28633,-3.81764 h 1.30436 q -0.0954,0.89078 -0.19088,1.74975 -0.0636,0.85897 -0.0636,1.68613 v 12.884546 q 0,3.308625 -1.6225,4.994751 -1.6225,1.686126 -4.80387,1.686126 z m -0.63627,-8.68514 q 2.64053,0 4.16759,-1.749753 1.55887,-1.781567 1.55887,-4.931124 0,-3.149556 -1.55887,-4.899306 -1.52706,-1.74976 -4.16759,-1.74976 -2.64054,0 -4.19941,1.74976 -1.55887,1.74975 -1.55887,4.899306 0,3.149557 1.55887,4.931124 1.55887,1.749753 4.19941,1.749753 z"
         style="font-weight:200;font-size:31.8137px;line-height:126%;font-family:Mulish;-inkscape-font-specification:'Mulish Ultra-Light';fill:#6e6e6e"
         id="path902" />
      <path
         d="m 311.38876,-83.624642 -0.31814,-1.240734 q 1.49525,-0.349951 2.44966,-0.890784 0.98622,-0.509019 1.65431,-1.336175 0.66809,-0.827156 1.20892,-2.067891 l 0.82716,-1.908822 -0.0318,0.668088 -6.93539,-16.35224 h 1.52706 l 6.39455,15.397829 h -0.73172 l 6.29912,-15.397829 h 1.52706 l -7.4126,17.624788 q -0.57264,1.367989 -1.24073,2.290587 -0.66809,0.954411 -1.46343,1.590685 -0.76353,0.636274 -1.71794,1.018038 -0.9226,0.381764 -2.03608,0.60446 z"
         style="font-weight:200;font-size:31.8137px;line-height:126%;font-family:Mulish;-inkscape-font-specification:'Mulish Ultra-Light';fill:#6e6e6e"
         id="path904" />
    </g>
    <g
       transform="scale(1.0289984,0.97181884)"
       id="text4408-9"
       style="font-size:12.348px;line-height:0%;letter-spacing:0px;word-spacing:0px;stroke-width:1.029" />
  </g>
</svg>
