<svg id="Layer_1" data-name="Layer 1" xmlns="http://www.w3.org/2000/svg" xmlns:xlink="http://www.w3.org/1999/xlink" viewBox="0 0 144 108"><defs><style>.cls-1{fill:url(#linear-gradient);}.cls-2{fill:url(#linear-gradient-2);}.cls-3{fill:url(#linear-gradient-3);}.cls-4{fill:url(#linear-gradient-4);}.cls-5{fill:url(#linear-gradient-5);}</style><linearGradient id="linear-gradient" x1="32.48133" y1="7.56527" x2="97.62737" y2="60.54549" gradientUnits="userSpaceOnUse"><stop offset="0" stop-color="#2e27ad"/><stop offset="1" stop-color="#527fff"/></linearGradient><linearGradient id="linear-gradient-2" x1="19.55355" y1="23.46165" x2="84.69959" y2="76.44187" xlink:href="#linear-gradient"/><linearGradient id="linear-gradient-3" x1="28.27713" y1="12.73487" x2="93.42318" y2="65.71509" xlink:href="#linear-gradient"/><linearGradient id="linear-gradient-4" x1="23.8107" y1="18.22693" x2="88.95675" y2="71.20714" gradientTransform="translate(98.99091 -31.33082) rotate(67.72)" xlink:href="#linear-gradient"/><linearGradient id="linear-gradient-5" x1="37.69586" y1="1.15332" x2="102.8419" y2="54.13354" xlink:href="#linear-gradient"/></defs><title>Amazon-logos</title><path d="M26.26135,104.09179l-.48926-2.01172H23.1676l-.50391,2.01172H20.984l2.46387-9.49609h2.1416l2.42188,9.49609Zm-1.75-7.98047h-.05567l-1.07812,4.708h2.18457Z"/><path d="M36.87365,104.09179H34.941L33.569,96.957h-.02734l-1.37207,7.13477H30.23693L28.34728,94.5957h1.708l1.27442,7.377h.05566l1.33008-7.377h1.76367l1.37207,7.377h.02832l1.27344-7.377h1.624Z"/><path d="M43.986,96.43359a1.74208,1.74208,0,0,0-1.37207-.63086,1.471,1.471,0,0,0-.46192.07422,1.14179,1.14179,0,0,0-.40625.23437,1.11509,1.11509,0,0,0-.28711.416,1.57294,1.57294,0,0,0-.10547.60351,1.16832,1.16832,0,0,0,.37891.93262,4.43667,4.43667,0,0,0,.99316.62305c.24317.11621.49024.251.74219.40234a3.37585,3.37585,0,0,1,.68652.5498,2.655,2.655,0,0,1,.50391.76465,2.57951,2.57951,0,0,1,.19531,1.0459,3.08907,3.08907,0,0,1-.23047,1.23438,2.73777,2.73777,0,0,1-.61621.90527,2.53449,2.53449,0,0,1-.90332.55664,3.17915,3.17915,0,0,1-1.09179.1875,3.72932,3.72932,0,0,1-1.52539-.30859,3.20371,3.20371,0,0,1-1.12012-.77735l.91015-1.18066a2.28856,2.28856,0,0,0,.77637.58984,2.15774,2.15774,0,0,0,.93164.21485,1.19823,1.19823,0,0,0,.88184-.34864,1.31947,1.31947,0,0,0,.34961-.97851,1.22624,1.22624,0,0,0-.41992-.97949,4.83875,4.83875,0,0,0-1.06348-.6709,6.45906,6.45906,0,0,1-.76367-.415,2.8531,2.8531,0,0,1-.62989-.54395,2.43365,2.43365,0,0,1-.43359-.7373,2.84279,2.84279,0,0,1-.16113-1.0127,2.99211,2.99211,0,0,1,.24512-1.26758,2.561,2.561,0,0,1,1.54687-1.39453,3.20357,3.20357,0,0,1,1.02148-.168,3.64911,3.64911,0,0,1,1.35157.23536,2.598,2.598,0,0,1,1.001.69043Z"/><path d="M54.14221,103.98437a3.04971,3.04971,0,0,1-1.53321.34863,3.08683,3.08683,0,0,1-1.51855-.375,3.42963,3.42963,0,0,1-1.14844-1.04,5.14929,5.14929,0,0,1-.72754-1.57519,7.87277,7.87277,0,0,1,0-4.00391,5.0514,5.0514,0,0,1,.73535-1.583,3.41909,3.41909,0,0,1,1.1543-1.03222,3.09963,3.09963,0,0,1,1.50488-.36915,3.49425,3.49425,0,0,1,1.498.30176,2.66637,2.66637,0,0,1,1.05078.86524l-.9668,1.127a1.75835,1.75835,0,0,0-1.48339-.792,1.45739,1.45739,0,0,0-.88184.27539,2.1749,2.1749,0,0,0-.62988.74414,3.95841,3.95841,0,0,0-.37891,1.10644,7.01725,7.01725,0,0,0-.126,1.36133,6.92547,6.92547,0,0,0,.126,1.34766,3.96538,3.96538,0,0,0,.37891,1.10742,2.1391,2.1391,0,0,0,.63672.74414,1.51036,1.51036,0,0,0,.90234.27442,1.47582,1.47582,0,0,0,.84766-.24122,2.21957,2.21957,0,0,0,.59472-.58984l.96582,1.08594A3.03307,3.03307,0,0,1,54.14221,103.98437Z"/><path d="M61.33166,100.68554a5.42033,5.42033,0,0,1-.18945,1.47461,3.45008,3.45008,0,0,1-.54786,1.14746,2.587,2.587,0,0,1-.86328.74414,2.60878,2.60878,0,0,1-2.30175,0,2.59659,2.59659,0,0,1-.86329-.74414,3.44881,3.44881,0,0,1-.54687-1.14746,5.38237,5.38237,0,0,1-.18945-1.47461,5.522,5.522,0,0,1,.18945-1.49609,3.59788,3.59788,0,0,1,.54-1.16016,2.4247,2.4247,0,0,1,.86328-.74414,2.518,2.518,0,0,1,1.1582-.26172,2.4711,2.4711,0,0,1,1.15039.26172,2.50163,2.50163,0,0,1,.86328.74414,3.52786,3.52786,0,0,1,.54786,1.16016A5.56091,5.56091,0,0,1,61.33166,100.68554Zm-1.582-.01367a5.60461,5.60461,0,0,0-.07031-.91895,2.86572,2.86572,0,0,0-.2168-.7373,1.40134,1.40134,0,0,0-.36426-.4961.84924.84924,0,0,0-1.0498,0,1.34361,1.34361,0,0,0-.35743.4961,3.08,3.08,0,0,0-.21.7373,6.07955,6.07955,0,0,0,0,1.83106,2.95369,2.95369,0,0,0,.21.7373,1.34852,1.34852,0,0,0,.35743.48926.79037.79037,0,0,0,.52539.18164.81713.81713,0,0,0,.53125-.18164,1.30788,1.30788,0,0,0,.36425-.48926,2.91275,2.91275,0,0,0,.21-.7373A5.64879,5.64879,0,0,0,59.74963,100.67187Z"/><path d="M66.45471,104.09179v-.97949h-.02735a1.92448,1.92448,0,0,1-.52539.8584,1.50675,1.50675,0,0,1-1.07129.34863,1.75977,1.75977,0,0,1-.97949-.28125,2.28865,2.28865,0,0,1-.72852-.78418,4.211,4.211,0,0,1-.44824-1.18067,7.10472,7.10472,0,0,1-.00683-2.90332,3.67384,3.67384,0,0,1,.4414-1.13378,2.26953,2.26953,0,0,1,.72071-.74415,1.844,1.844,0,0,1,1.001-.26855,1.572,1.572,0,0,1,.99414.31543,1.62087,1.62087,0,0,1,.56055.78418h.042v-4.1709h1.55371v10.13965Zm.02832-3.41992a5.179,5.179,0,0,0-.07715-.91895,3.06573,3.06573,0,0,0-.22364-.7373,1.33928,1.33928,0,0,0-.37792-.4961.86056.86056,0,0,0-1.05762,0,1.30335,1.30335,0,0,0-.36426.4961,3.07956,3.07956,0,0,0-.21.7373,5.60794,5.60794,0,0,0-.06934.91895,5.53036,5.53036,0,0,0,.06934.90527,3.07978,3.07978,0,0,0,.21.73731,1.30331,1.30331,0,0,0,.36426.49609.87056.87056,0,0,0,1.06445,0,1.37952,1.37952,0,0,0,.37109-.49609,3.066,3.066,0,0,0,.22364-.73731A5.10961,5.10961,0,0,0,66.483,100.67187Z"/><path d="M71.15881,101.06054a3.3005,3.3005,0,0,0,.084.75781,2.075,2.075,0,0,0,.24512.61719,1.34763,1.34763,0,0,0,.3916.416.95158.95158,0,0,0,.53906.15429.9209.9209,0,0,0,.69336-.26855,2.09855,2.09855,0,0,0,.41309-.61719l1.16211.64355a2.74188,2.74188,0,0,1-.875,1.13379,2.36361,2.36361,0,0,1-1.44922.42188,2.44131,2.44131,0,0,1-2.00195-.93848,4.207,4.207,0,0,1-.75586-2.69531,5.40331,5.40331,0,0,1,.19531-1.49609,3.54436,3.54436,0,0,1,.56055-1.16016,2.57754,2.57754,0,0,1,.86132-.74414,2.58542,2.58542,0,0,1,2.28125.00683,2.18987,2.18987,0,0,1,.78418.73047,3.29494,3.29494,0,0,1,.44141,1.09375,6.33956,6.33956,0,0,1,.13965,1.36817v.57617Zm2.19824-1.09961a2.6476,2.6476,0,0,0-.252-1.24023.83153.83153,0,0,0-.78418-.47657.81356.81356,0,0,0-.52539.17481,1.31284,1.31284,0,0,0-.34961.43554,2.4606,2.4606,0,0,0-.20313.56348,2.41536,2.41536,0,0,0-.07031.543Z"/><path d="M82.02307,97.39941A3.234,3.234,0,0,1,81.7926,98.667a2.70936,2.70936,0,0,1-.60645.90528,2.39506,2.39506,0,0,1-.86523.53613,2.96361,2.96361,0,0,1-1.00391.17481H78.14514v3.80859H76.49279V94.5957H79.2301a3.76821,3.76821,0,0,1,.97754.13476,2.33514,2.33514,0,0,1,.90039.46289,2.50271,2.50271,0,0,1,.65625.86426A3.07768,3.07768,0,0,1,82.02307,97.39941Zm-1.582.0205a1.43949,1.43949,0,0,0-.37793-1.10839,1.37287,1.37287,0,0,0-.96582-.34766h-.95214v3.00488h.95214a1.2807,1.2807,0,0,0,.96582-.39453A1.60358,1.60358,0,0,0,80.441,97.41991Z"/><path d="M84.87951,95.26659a.91279.91279,0,0,1-.2666.6709.95053.95053,0,0,1-1.32227,0,.92691.92691,0,0,1-.25976-.6709.95965.95965,0,0,1,.25976-.67089.9269.9269,0,0,1,1.33008,0A.9631.9631,0,0,1,84.87951,95.26659Zm-1.708,8.8252V97.25195h1.582v6.83984Z"/><path d="M92.24279,100.6582a6.69289,6.69289,0,0,1-.14746,1.45507,3.93147,3.93147,0,0,1-.44043,1.16016,2.25437,2.25437,0,0,1-.72851.77148,1.82109,1.82109,0,0,1-.99415.27442,1.54449,1.54449,0,0,1-1.01464-.32813,1.71018,1.71018,0,0,1-.55274-.79785h-.02832v4.11719H86.78283V97.25195h1.52539v.96582h.02832a2.138,2.138,0,0,1,.5459-.85254,1.48,1.48,0,0,1,1.0498-.3418,1.78124,1.78124,0,0,1,.98731.27539,2.27483,2.27483,0,0,1,.7207.76465,3.95767,3.95767,0,0,1,.44824,1.15332A6.3778,6.3778,0,0,1,92.24279,100.6582Zm-1.582,0a5.6487,5.6487,0,0,0-.07031-.91211,2.92463,2.92463,0,0,0-.21-.73731,1.29783,1.29783,0,0,0-.36426-.48926.8171.8171,0,0,0-.53125-.18164.79974.79974,0,0,0-.51856.18164,1.375,1.375,0,0,0-.37109.48926,2.90743,2.90743,0,0,0-.22363.73731,5.43031,5.43031,0,0,0,0,1.82422,3.01473,3.01473,0,0,0,.22363.74414,1.36857,1.36857,0,0,0,.37109.49609.79974.79974,0,0,0,.51856.18164.8171.8171,0,0,0,.53125-.18164,1.29347,1.29347,0,0,0,.36426-.49609,3.03093,3.03093,0,0,0,.21-.74414A5.64008,5.64008,0,0,0,90.66076,100.6582Z"/><path d="M95.0006,101.06054a3.29994,3.29994,0,0,0,.084.75781,2.07451,2.07451,0,0,0,.24512.61719,1.34763,1.34763,0,0,0,.3916.416.95156.95156,0,0,0,.53906.15429.92091.92091,0,0,0,.69336-.26855,2.09855,2.09855,0,0,0,.41309-.61719l1.1621.64355a2.7418,2.7418,0,0,1-.875,1.13379,2.36358,2.36358,0,0,1-1.44921.42188,2.44134,2.44134,0,0,1-2.002-.93848,4.20711,4.20711,0,0,1-.75586-2.69531,5.40292,5.40292,0,0,1,.19532-1.49609,3.54454,3.54454,0,0,1,.56054-1.16016,2.57766,2.57766,0,0,1,.86133-.74414,2.58542,2.58542,0,0,1,2.28125.00683,2.18987,2.18987,0,0,1,.78418.73047,3.29515,3.29515,0,0,1,.44141,1.09375,6.33956,6.33956,0,0,1,.13965,1.36817v.57617Zm2.19825-1.09961a2.64759,2.64759,0,0,0-.252-1.24023.83153.83153,0,0,0-.78418-.47657.81358.81358,0,0,0-.52539.17481,1.31309,1.31309,0,0,0-.34961.43554,2.46058,2.46058,0,0,0-.20312.56348,2.41478,2.41478,0,0,0-.07031.543Z"/><path d="M100.27892,104.09179V93.95214h1.582v10.13965Z"/><path d="M105.62658,95.26659a.91279.91279,0,0,1-.2666.6709.95053.95053,0,0,1-1.32227,0,.92691.92691,0,0,1-.25976-.6709.95965.95965,0,0,1,.25976-.67089.9269.9269,0,0,1,1.33008,0A.9631.9631,0,0,1,105.62658,95.26659Zm-1.708,8.8252V97.25195h1.582v6.83984Z"/><path d="M109.11291,97.25195v1.08593h.02734a2.1351,2.1351,0,0,1,.65137-.93164,1.92056,1.92056,0,0,1,2.07227-.14746,1.58591,1.58591,0,0,1,.55273.623,2.81713,2.81713,0,0,1,.26562.89258,7.38961,7.38961,0,0,1,.07032,1.02539v4.292h-1.582v-4.292a4.88421,4.88421,0,0,0-.02735-.5166,1.69826,1.69826,0,0,0-.11914-.47559.79827.79827,0,0,0-.2666-.3418.75419.75419,0,0,0-.45508-.12793.95771.95771,0,0,0-.84668.50977,2.41251,2.41251,0,0,0-.31543,1.28711v3.957h-1.581V97.25195Z"/><path d="M115.87463,101.06054a3.3005,3.3005,0,0,0,.084.75781,2.075,2.075,0,0,0,.24512.61719,1.34763,1.34763,0,0,0,.3916.416.95161.95161,0,0,0,.53906.15429.9209.9209,0,0,0,.69336-.26855,2.09855,2.09855,0,0,0,.41309-.61719l1.16211.64355a2.74188,2.74188,0,0,1-.875,1.13379,2.36361,2.36361,0,0,1-1.44922.42188,2.44131,2.44131,0,0,1-2.00195-.93848,4.207,4.207,0,0,1-.75586-2.69531,5.40331,5.40331,0,0,1,.19531-1.49609,3.54436,3.54436,0,0,1,.56055-1.16016,2.57754,2.57754,0,0,1,.86132-.74414,2.58542,2.58542,0,0,1,2.28125.00683,2.18987,2.18987,0,0,1,.78418.73047,3.29494,3.29494,0,0,1,.44141,1.09375,6.33956,6.33956,0,0,1,.13965,1.36817v.57617Zm2.19824-1.09961a2.6476,2.6476,0,0,0-.25195-1.24023.83153.83153,0,0,0-.78418-.47657.81356.81356,0,0,0-.52539.17481,1.313,1.313,0,0,0-.34961.43554,2.4606,2.4606,0,0,0-.20313.56348,2.41536,2.41536,0,0,0-.07031.543Z"/><g id="Reference"><g id="Icon_Test" data-name="Icon Test"><path class="cls-1" d="M103.963,1.59925H40.16479A8.94811,8.94811,0,0,0,31.16761,10.498q-.00027.0492,0,.09842V28.59079A8.94811,8.94811,0,0,0,40.06637,37.588q.04921.00027.09842,0h2.45378v44.168a1.63584,1.63584,0,0,0,1.63585,1.63585H99.87335a1.63585,1.63585,0,0,0,1.63585-1.63585V37.588H103.963a8.9481,8.9481,0,0,0,8.99718-8.89876q.00029-.0492,0-.09842V10.59643a8.9481,8.9481,0,0,0-8.89875-8.99718Q104.01218,1.599,103.963,1.59925ZM98.17206,80.12009H45.82483V37.588H98.17206ZM103.963,34.31627H40.16479a5.64369,5.64369,0,0,1-5.57825-4.90756H62.396V26.137H34.58654V10.59643A5.66,5.66,0,0,1,40.16479,4.871H103.963a5.66,5.66,0,0,1,5.72548,5.59385q.00076.06581,0,.13163V26.137H78.60729v3.2717h31.08116A5.64369,5.64369,0,0,1,103.963,34.31627Z"/><path class="cls-2" d="M51.74662,58.60865l9.35706,8.06474,2.143-2.47013-7.95024-6.85421,7.99931-7.05052L61.12,47.84475l-9.38978,8.31012a1.61583,1.61583,0,0,0,.01636,2.45378Z"/><path class="cls-3" d="M83.10588,66.73883l9.4225-8.17925a1.64935,1.64935,0,0,0,0-2.47014l-9.4225-8.17925-2.143,2.47013,7.99931,6.936-7.99931,7.0178Z"/><rect class="cls-4" x="58.01425" y="56.46693" width="29.65798" height="3.2717" transform="translate(-8.539 103.47901) rotate(-67.72)"/><rect class="cls-5" x="67.15633" y="26.13701" width="6.5434" height="3.2717"/></g></g></svg>