<svg width="240" height="240" viewBox="0 0 240 240" fill="none" xmlns="http://www.w3.org/2000/svg">
<path d="M37.8303 206L35.6463 200.176H26.6863L24.5023 206H22.8783L30.3263 186.596H32.0903L39.5383 206H37.8303ZM27.2183 198.804H35.1423L31.1663 188.332L27.2183 198.804Z" fill="#232F3E"/>
<path d="M55.4211 206L51.1651 189.396L46.9371 206H44.9771L39.0971 186.596H40.8891L45.9851 204.124L50.2131 187.24H52.2291L56.4291 204.18L61.6371 186.596H63.3731L57.3811 206H55.4211Z" fill="#232F3E"/>
<path d="M69.8475 196.2C68.4101 195.64 67.3555 194.977 66.6835 194.212C66.0115 193.428 65.6755 192.467 65.6755 191.328C65.6755 189.779 66.2261 188.528 67.3274 187.576C68.4474 186.605 69.9128 186.12 71.7235 186.12C72.5448 186.12 73.4035 186.223 74.2994 186.428C75.2141 186.615 76.0728 186.885 76.8755 187.24V188.668C74.9715 187.996 73.2821 187.66 71.8075 187.66C70.3701 187.66 69.2688 187.977 68.5035 188.612C67.7381 189.228 67.3555 190.115 67.3555 191.272C67.3555 191.925 67.4675 192.457 67.6915 192.868C67.9341 193.26 68.3168 193.624 68.8395 193.96C69.3808 194.277 70.1461 194.623 71.1355 194.996L74.1315 196.144C75.4755 196.667 76.4555 197.311 77.0715 198.076C77.6875 198.823 77.9955 199.765 77.9955 200.904C77.9955 202.565 77.3795 203.909 76.1475 204.936C74.9341 205.963 73.3288 206.476 71.3315 206.476C69.2595 206.476 67.4115 206.084 65.7875 205.3V203.872C67.7475 204.581 69.5488 204.936 71.1915 204.936C72.7408 204.936 73.9728 204.572 74.8875 203.844C75.8208 203.116 76.2875 202.127 76.2875 200.876C76.2875 200.111 76.0355 199.457 75.5315 198.916C75.0275 198.375 74.2155 197.889 73.0955 197.46L69.8475 196.2Z" fill="#232F3E"/>
<path d="M102.534 205.468C101.097 206.028 99.5195 206.308 97.8022 206.308C94.8155 206.308 92.5568 205.468 91.0262 203.788C89.4955 202.108 88.7302 199.635 88.7302 196.368C88.7302 193.12 89.5235 190.647 91.1102 188.948C92.6968 187.231 94.9742 186.372 97.9422 186.372C99.5475 186.372 100.985 186.624 102.254 187.128V188.584C100.668 188.173 99.2955 187.968 98.1382 187.968C95.5808 187.968 93.6675 188.64 92.3982 189.984C91.1475 191.309 90.5222 193.316 90.5222 196.004V196.704C90.5222 202.043 92.9955 204.712 97.9422 204.712C99.2115 204.712 100.742 204.479 102.534 204.012V205.468Z" fill="#232F3E"/>
<path d="M109.525 205.888C109.04 206.019 108.564 206.084 108.097 206.084C107.351 206.084 106.763 205.869 106.333 205.44C105.923 204.992 105.717 204.376 105.717 203.592V185.28H107.313V203.564C107.313 203.975 107.388 204.264 107.537 204.432C107.705 204.6 107.995 204.684 108.405 204.684C108.704 204.684 109.077 204.656 109.525 204.6V205.888Z" fill="#232F3E"/>
<path d="M118.485 206.42C116.432 206.42 114.836 205.767 113.697 204.46C112.559 203.135 111.989 201.296 111.989 198.944C111.989 196.592 112.559 194.763 113.697 193.456C114.836 192.149 116.432 191.496 118.485 191.496C120.539 191.496 122.135 192.149 123.273 193.456C124.412 194.763 124.981 196.592 124.981 198.944C124.981 201.296 124.412 203.135 123.273 204.46C122.135 205.767 120.539 206.42 118.485 206.42ZM118.485 204.964C121.715 204.964 123.329 202.957 123.329 198.944C123.329 194.949 121.715 192.952 118.485 192.952C115.256 192.952 113.641 194.949 113.641 198.944C113.641 202.957 115.256 204.964 118.485 204.964Z" fill="#232F3E"/>
<path d="M138.375 206L138.207 204.46C136.434 205.767 134.595 206.42 132.691 206.42C131.347 206.42 130.311 206.056 129.583 205.328C128.874 204.6 128.519 203.536 128.519 202.136V191.916H130.115V201.464C130.115 202.696 130.349 203.592 130.815 204.152C131.282 204.693 132.019 204.964 133.027 204.964C133.942 204.964 134.801 204.824 135.603 204.544C136.406 204.264 137.265 203.807 138.179 203.172V191.916H139.775V206H138.375Z" fill="#232F3E"/>
<path d="M154.327 206L154.159 204.432C153.468 205.011 152.694 205.468 151.835 205.804C150.995 206.14 150.183 206.308 149.399 206.308C147.551 206.308 146.086 205.664 145.003 204.376C143.939 203.069 143.407 201.287 143.407 199.028C143.407 196.713 143.949 194.884 145.031 193.54C146.114 192.177 147.589 191.496 149.455 191.496C151.191 191.496 152.759 192.112 154.159 193.344V185.28H155.755V206H154.327ZM149.763 204.852C151.163 204.852 152.628 204.255 154.159 203.06V194.772C153.375 194.137 152.619 193.68 151.891 193.4C151.182 193.101 150.426 192.952 149.623 192.952C148.13 192.952 146.991 193.456 146.207 194.464C145.442 195.472 145.059 196.965 145.059 198.944C145.059 202.883 146.627 204.852 149.763 204.852Z" fill="#232F3E"/>
<path d="M184.203 206V189.088L177.539 200.82H175.971L169.307 189.172V206H167.739V186.596H169.699L176.811 199.084L183.867 186.596H185.771V206H184.203Z" fill="#232F3E"/>
<path d="M198.912 206L198.772 204.376C197.167 205.664 195.487 206.308 193.732 206.308C192.444 206.308 191.417 205.944 190.652 205.216C189.905 204.469 189.532 203.48 189.532 202.248C189.532 200.885 189.999 199.812 190.932 199.028C191.865 198.244 193.135 197.852 194.74 197.852C195.991 197.852 197.325 198.067 198.744 198.496V196.144C198.744 195.005 198.473 194.193 197.932 193.708C197.391 193.204 196.495 192.952 195.244 192.952C193.751 192.952 192.155 193.251 190.456 193.848V192.532C191.165 192.215 191.968 191.963 192.864 191.776C193.76 191.589 194.637 191.496 195.496 191.496C197.139 191.496 198.352 191.841 199.136 192.532C199.939 193.223 200.34 194.268 200.34 195.668V206H198.912ZM193.956 204.852C194.665 204.852 195.431 204.712 196.252 204.432C197.073 204.133 197.904 203.723 198.744 203.2V199.7C197.493 199.364 196.28 199.196 195.104 199.196C192.491 199.196 191.184 200.204 191.184 202.22C191.184 203.079 191.417 203.732 191.884 204.18C192.351 204.628 193.041 204.852 193.956 204.852Z" fill="#232F3E"/>
<path d="M204.647 211.768V191.916H206.047L206.187 193.484C207.046 192.793 207.876 192.289 208.679 191.972C209.5 191.655 210.34 191.496 211.199 191.496C213.01 191.496 214.438 192.149 215.483 193.456C216.528 194.744 217.051 196.517 217.051 198.776C217.051 201.072 216.5 202.901 215.399 204.264C214.298 205.627 212.814 206.308 210.947 206.308C209.23 206.308 207.662 205.673 206.243 204.404V211.768H204.647ZM210.891 192.952C209.342 192.952 207.792 193.549 206.243 194.744V202.948C207.008 203.601 207.755 204.087 208.483 204.404C209.211 204.703 209.976 204.852 210.779 204.852C212.31 204.852 213.458 204.357 214.223 203.368C215.007 202.36 215.399 200.867 215.399 198.888C215.399 194.931 213.896 192.952 210.891 192.952Z" fill="#232F3E"/>
<path d="M180 34H60V154H180V34Z" fill="url(#paint0_linear)"/>
<path fill-rule="evenodd" clip-rule="evenodd" d="M116.893 107.324H124.505V99.7365H116.893V107.324ZM126.005 96.7014H115.393C114.564 96.7014 113.894 97.3812 113.894 98.2189V108.842C113.894 109.68 114.564 110.359 115.393 110.359H126.005C126.834 110.359 127.504 109.68 127.504 108.842V98.2189C127.504 97.3812 126.834 96.7014 126.005 96.7014ZM146.894 119.465L135.003 119.453V102.772H158.708C158.894 103.703 159 104.71 159 105.807C159 117.674 147.969 119.333 146.894 119.465ZM92.7148 119.014L106.507 106.221V119.422L94.5745 119.409C93.9401 119.316 93.3237 119.177 92.7148 119.014ZM81.0028 105.303L81.0103 104.893C81.0103 98.0808 84.1044 93.7952 90.2011 92.1487H106.507V94.4948L84.5273 113.956C82.4951 111.627 81.1962 108.761 81.0073 105.71C80.9953 105.526 80.9998 105.427 81.0028 105.303ZM103.237 70.0787C104.314 69.6158 105.409 69.2728 106.507 69.0209V80.0081H93.4422C95.5434 75.6603 99.146 71.8315 103.237 70.0787ZM117.006 114.912H124.505V119.441L117.006 119.433V114.912ZM150.493 89.9861L149.51 92.8543C152.026 93.7391 155.744 95.6891 157.694 99.7365H133.504C132.676 99.7365 132.004 100.416 132.004 101.254V119.45L127.504 119.444V113.395C127.504 112.557 126.834 111.877 126.005 111.877H115.506C114.678 111.877 114.006 112.557 114.006 113.395V119.43L109.507 119.425V102.772C109.507 102.171 109.156 101.624 108.611 101.382C108.068 101.142 107.432 101.245 106.993 101.653L89.5532 117.829C88.5438 117.325 87.6019 116.72 86.7305 116.038L108.994 96.325C109.321 96.0382 109.507 95.6224 109.507 95.1838V90.6311C109.507 89.7934 108.836 89.1135 108.007 89.1135H91.4789C91.4834 88.9951 91.4834 88.8829 91.4879 88.7645C91.4984 88.4321 91.5089 88.1059 91.5089 87.8054C91.5089 86.2423 91.7849 84.6321 92.2618 83.0433H108.007C108.836 83.0433 109.507 82.3634 109.507 81.5257V68.5945C111.015 68.5065 112.521 68.6097 114.006 68.8995V93.6662C114.006 94.5039 114.678 95.1838 115.506 95.1838H126.005C126.834 95.1838 127.504 94.5039 127.504 93.6662V84.5608H124.505V92.1487H117.006V69.7478C119.842 70.8117 122.542 72.5705 124.943 75.0093L127.066 72.8664C119.996 65.6899 110.651 63.6047 102.068 67.2833C94.4651 70.5415 88.5093 79.5559 88.5093 87.8054C88.5093 88.0725 88.4988 88.3638 88.4898 88.6613C88.4808 88.9375 88.4703 89.2198 88.4673 89.499C84.1044 90.9407 78.0106 94.7665 78.0106 104.893L78.0046 105.209C77.9986 105.423 77.9956 105.591 78.0136 105.901C78.5221 114.103 85.5082 121.209 94.2641 122.43C94.3316 122.439 94.4006 122.444 94.4681 122.444L115.342 122.467C115.398 122.473 115.447 122.5 115.506 122.5H126.005C126.044 122.5 126.075 122.48 126.114 122.477L146.978 122.5H146.979C147.03 122.5 147.08 122.497 147.131 122.492C147.279 122.477 162 120.785 162 105.807C162 95.1777 153.954 91.2017 150.493 89.9861ZM136.503 78.4906C136.503 76.9866 138.018 75.4554 139.503 75.4554C140.988 75.4554 142.502 76.9866 142.502 78.4906C142.502 79.9945 140.988 81.5257 139.503 81.5257C138.018 81.5257 136.503 79.9945 136.503 78.4906ZM145.502 78.4906C145.502 75.3143 142.643 72.4203 139.503 72.4203C136.362 72.4203 133.504 75.3143 133.504 78.4906C133.504 81.6668 136.362 84.5608 139.503 84.5608C142.643 84.5608 145.502 81.6668 145.502 78.4906ZM139.503 70.9027C143.779 70.9027 147.002 74.164 147.002 78.4906C147.002 81.8049 142.354 89.6265 139.503 93.9955C136.653 89.628 132.004 81.808 132.004 78.4906C132.004 74.164 135.228 70.9027 139.503 70.9027ZM139.503 98.2189C139.992 98.2189 140.452 97.9761 140.733 97.5709C141.681 96.1975 150.002 83.9932 150.002 78.4906C150.002 72.4339 145.487 67.8676 139.503 67.8676C133.519 67.8676 129.004 72.4339 129.004 78.4906C129.004 83.9932 137.325 96.1975 138.275 97.5709C138.553 97.9761 139.014 98.2189 139.503 98.2189Z" fill="white"/>
<defs>
<linearGradient id="paint0_linear" x1="60" y1="154" x2="180" y2="34" gradientUnits="userSpaceOnUse">
<stop stop-color="#4D27A8"/>
<stop offset="1" stop-color="#A166FF"/>
</linearGradient>
</defs>
</svg>
