<?xml version="1.0" encoding="utf-8"?>
<!-- Generator: Adobe Illustrator 21.1.0, SVG Export Plug-In . SVG Version: 6.00 Build 0)  -->
<svg version="1.1" id="Layer_1" xmlns="http://www.w3.org/2000/svg" xmlns:xlink="http://www.w3.org/1999/xlink" x="0px" y="0px"
	 viewBox="0 0 288 288" style="enable-background:new 0 0 288 288;" xml:space="preserve">
<style type="text/css">
	.st0{fill:#779D3F;}
	.st1{fill:#B7CA9D;}
	.st2{fill:#4C622C;}
	.st3{fill:#759C3F;}
</style>
<g>
	<path class="st0" d="M34.5,249.9l7.8,21h-4.8l-1.6-4.7h-7.8l-1.6,4.7h-4.6l7.9-21H34.5z M34.7,262.7l-2.6-7.7H32l-2.7,7.7H34.7z"/>
	<path class="st0" d="M58.8,270.9l-3.6-14.3h-0.1l-3.5,14.3H47l-5.6-21h4.6l3.3,14.3h0.1l3.6-14.3h4.3l3.6,14.4h0.1l3.4-14.4H69
		l-5.6,21H58.8z"/>
	<path class="st0" d="M74.7,265.7c0.3,0.5,0.6,0.9,1,1.2c0.4,0.3,0.9,0.5,1.5,0.7c0.6,0.1,1.2,0.2,1.8,0.2c0.4,0,0.9,0,1.3-0.1
		c0.5-0.1,0.9-0.2,1.3-0.4c0.4-0.2,0.8-0.5,1-0.8c0.3-0.3,0.4-0.8,0.4-1.3c0-0.6-0.2-1-0.5-1.4s-0.8-0.6-1.4-0.9
		c-0.6-0.2-1.3-0.4-2-0.6c-0.7-0.2-1.5-0.4-2.3-0.6c-0.8-0.2-1.5-0.4-2.3-0.7c-0.7-0.3-1.4-0.7-2-1.1s-1.1-1-1.4-1.7
		s-0.5-1.5-0.5-2.5c0-1.1,0.2-2,0.7-2.8c0.5-0.8,1.1-1.5,1.8-2c0.7-0.5,1.6-0.9,2.5-1.2c0.9-0.3,1.9-0.4,2.8-0.4
		c1.1,0,2.1,0.1,3.2,0.4c1,0.2,1.9,0.6,2.7,1.2c0.8,0.5,1.4,1.2,1.9,2.1s0.7,1.9,0.7,3.1h-4.5c0-0.6-0.2-1.1-0.4-1.6
		c-0.2-0.4-0.5-0.7-0.9-1c-0.4-0.2-0.8-0.4-1.3-0.5c-0.5-0.1-1-0.1-1.6-0.1c-0.4,0-0.7,0-1.1,0.1c-0.4,0.1-0.7,0.2-1,0.4
		c-0.3,0.2-0.6,0.4-0.7,0.7c-0.2,0.3-0.3,0.7-0.3,1.1c0,0.4,0.1,0.7,0.2,1c0.2,0.3,0.5,0.5,0.9,0.7c0.5,0.2,1.1,0.4,1.9,0.6
		s1.9,0.5,3.2,0.8c0.4,0.1,0.9,0.2,1.6,0.4c0.7,0.2,1.4,0.5,2.1,1c0.7,0.5,1.3,1.1,1.8,1.8c0.5,0.8,0.7,1.7,0.7,2.9
		c0,1-0.2,1.9-0.6,2.7c-0.4,0.8-0.9,1.5-1.7,2.1c-0.7,0.6-1.6,1.1-2.7,1.4c-1.1,0.3-2.3,0.5-3.8,0.5c-1.2,0-2.3-0.1-3.4-0.4
		s-2-0.7-2.9-1.3c-0.8-0.6-1.5-1.4-2-2.3c-0.5-0.9-0.7-2.1-0.7-3.3h4.5C74.3,264.6,74.4,265.2,74.7,265.7z"/>
	<path class="st0" d="M111.8,255.5c-0.3-0.4-0.6-0.8-1-1.2s-0.9-0.6-1.4-0.8c-0.5-0.2-1.1-0.3-1.6-0.3c-1,0-1.9,0.2-2.6,0.6
		c-0.7,0.4-1.3,0.9-1.8,1.6c-0.5,0.7-0.8,1.4-1,2.3s-0.3,1.8-0.3,2.7c0,0.9,0.1,1.7,0.3,2.6c0.2,0.8,0.5,1.6,1,2.2
		c0.5,0.7,1,1.2,1.8,1.6c0.7,0.4,1.6,0.6,2.6,0.6c1.4,0,2.5-0.4,3.3-1.3s1.3-2,1.5-3.4h4.5c-0.1,1.3-0.4,2.5-0.9,3.6
		c-0.5,1.1-1.1,2-1.9,2.7s-1.7,1.3-2.8,1.7c-1.1,0.4-2.3,0.6-3.6,0.6c-1.6,0-3-0.3-4.3-0.8c-1.3-0.6-2.4-1.3-3.2-2.3s-1.6-2.1-2-3.5
		c-0.5-1.3-0.7-2.7-0.7-4.3c0-1.6,0.2-3,0.7-4.4c0.5-1.3,1.1-2.5,2-3.5c0.9-1,2-1.8,3.2-2.3c1.3-0.6,2.7-0.9,4.3-0.9
		c1.2,0,2.2,0.2,3.3,0.5c1,0.3,1.9,0.8,2.8,1.5c0.8,0.6,1.5,1.4,2,2.4c0.5,0.9,0.9,2,1,3.2h-4.5
		C112.3,256.4,112.1,255.9,111.8,255.5z"/>
	<path class="st0" d="M124,249.9v21h-4.2v-21H124z"/>
	<path class="st0" d="M127.3,260c0.4-1,0.9-1.8,1.6-2.5c0.7-0.7,1.5-1.2,2.5-1.6c1-0.4,2-0.6,3.2-0.6c1.2,0,2.3,0.2,3.2,0.6
		c1,0.4,1.8,0.9,2.5,1.6c0.7,0.7,1.2,1.5,1.6,2.5c0.4,1,0.6,2.1,0.6,3.3s-0.2,2.3-0.6,3.3c-0.4,1-0.9,1.8-1.6,2.5s-1.5,1.2-2.5,1.6
		c-1,0.4-2.1,0.6-3.2,0.6c-1.2,0-2.3-0.2-3.2-0.6c-1-0.4-1.8-0.9-2.5-1.6s-1.2-1.5-1.6-2.5c-0.4-1-0.6-2.1-0.6-3.3
		S127,261,127.3,260z M131.1,265.1c0.1,0.6,0.3,1.1,0.6,1.6c0.3,0.5,0.7,0.8,1.1,1.1s1.1,0.4,1.8,0.4c0.7,0,1.3-0.1,1.8-0.4
		c0.5-0.3,0.9-0.6,1.1-1.1s0.5-1,0.6-1.6c0.1-0.6,0.2-1.2,0.2-1.8c0-0.6-0.1-1.2-0.2-1.8c-0.1-0.6-0.3-1.1-0.6-1.6
		c-0.3-0.5-0.7-0.8-1.1-1.1c-0.5-0.3-1.1-0.4-1.8-0.4c-0.7,0-1.3,0.1-1.8,0.4c-0.5,0.3-0.8,0.7-1.1,1.1c-0.3,0.5-0.5,1-0.6,1.6
		c-0.1,0.6-0.2,1.2-0.2,1.8C131,263.9,131,264.5,131.1,265.1z"/>
	<path class="st0" d="M155.5,270.9v-2.1h-0.1c-0.5,0.9-1.2,1.5-2.1,1.9c-0.8,0.4-1.7,0.6-2.6,0.6c-1.1,0-2-0.1-2.7-0.4
		s-1.3-0.7-1.7-1.2s-0.7-1.2-0.9-2c-0.2-0.8-0.2-1.6-0.2-2.6v-9.3h4.2v8.6c0,1.3,0.2,2.2,0.6,2.8s1.1,0.9,2.1,0.9c1.1,0,2-0.3,2.5-1
		c0.5-0.7,0.8-1.8,0.8-3.3v-8h4.2v15.2H155.5z"/>
	<path class="st0" d="M173.4,268.9c-0.5,0.8-1.1,1.4-1.9,1.8c-0.8,0.4-1.7,0.5-2.7,0.5c-1.1,0-2.1-0.2-3-0.7s-1.6-1-2.1-1.8
		c-0.6-0.8-1-1.6-1.3-2.6c-0.3-1-0.4-2-0.4-3.1c0-1,0.1-2,0.4-3s0.7-1.8,1.3-2.5c0.6-0.7,1.3-1.3,2.1-1.7s1.8-0.7,2.9-0.7
		c0.9,0,1.8,0.2,2.6,0.6c0.8,0.4,1.5,0.9,1.9,1.7h0.1v-7.6h4.2v21h-4L173.4,268.9L173.4,268.9z M173.2,261.4
		c-0.1-0.6-0.3-1.1-0.6-1.5c-0.3-0.4-0.7-0.8-1.1-1.1c-0.5-0.3-1-0.4-1.7-0.4c-0.7,0-1.3,0.1-1.7,0.4c-0.5,0.3-0.8,0.6-1.1,1.1
		c-0.3,0.5-0.5,1-0.6,1.5c-0.1,0.6-0.2,1.2-0.2,1.8c0,0.6,0.1,1.2,0.2,1.8c0.1,0.6,0.4,1.1,0.7,1.6s0.7,0.8,1.1,1.1
		c0.5,0.3,1,0.4,1.7,0.4c0.7,0,1.3-0.1,1.7-0.4s0.8-0.6,1.1-1.1c0.3-0.5,0.5-1,0.6-1.6c0.1-0.6,0.2-1.2,0.2-1.8
		C173.4,262.6,173.3,262,173.2,261.4z"/>
	<path class="st0" d="M196.4,270.9l-3.6-14.3h-0.1l-3.5,14.3h-4.7l-5.5-21h4.6l3.3,14.3h0.1l3.6-14.3h4.3l3.6,14.4h0.1l3.4-14.4h4.5
		l-5.6,21H196.4z"/>
	<path class="st0" d="M207.7,257.9c0.4-0.6,1-1.2,1.6-1.6c0.7-0.4,1.4-0.7,2.2-0.8s1.7-0.2,2.5-0.2c0.8,0,1.5,0.1,2.3,0.2
		c0.8,0.1,1.5,0.3,2.1,0.6c0.6,0.3,1.2,0.7,1.6,1.3s0.6,1.3,0.6,2.2v7.9c0,0.7,0,1.3,0.1,2c0.1,0.6,0.2,1.1,0.4,1.4h-4.2
		c-0.1-0.2-0.1-0.5-0.2-0.7c0-0.2-0.1-0.5-0.1-0.7c-0.7,0.7-1.4,1.2-2.3,1.4c-0.9,0.3-1.8,0.4-2.8,0.4c-0.7,0-1.4-0.1-2-0.3
		c-0.6-0.2-1.2-0.5-1.6-0.8c-0.5-0.4-0.8-0.8-1.1-1.4c-0.3-0.6-0.4-1.2-0.4-2c0-0.9,0.2-1.6,0.5-2.1s0.7-1,1.2-1.3s1-0.6,1.6-0.7
		c0.6-0.2,1.2-0.3,1.9-0.4c0.6-0.1,1.2-0.2,1.9-0.2c0.6-0.1,1.1-0.1,1.6-0.3c0.5-0.1,0.8-0.3,1.1-0.5c0.3-0.2,0.4-0.6,0.4-1
		c0-0.5-0.1-0.8-0.2-1.1c-0.1-0.3-0.3-0.5-0.6-0.6c-0.2-0.1-0.5-0.2-0.9-0.3s-0.7-0.1-1-0.1c-0.8,0-1.5,0.2-1.9,0.5
		s-0.7,0.9-0.8,1.8H207C207.1,259.4,207.3,258.5,207.7,257.9z M216,263.8c-0.3,0.1-0.5,0.2-0.9,0.2c-0.3,0.1-0.6,0.1-1,0.1
		c-0.3,0-0.7,0.1-1,0.1c-0.3,0.1-0.6,0.1-0.9,0.2c-0.3,0.1-0.6,0.2-0.8,0.4c-0.2,0.2-0.4,0.4-0.5,0.6c-0.1,0.3-0.2,0.6-0.2,1
		c0,0.4,0.1,0.7,0.2,0.9c0.1,0.3,0.3,0.5,0.6,0.6c0.2,0.1,0.5,0.2,0.8,0.3c0.3,0.1,0.6,0.1,1,0.1c0.8,0,1.5-0.1,1.9-0.4
		c0.5-0.3,0.8-0.6,1-1c0.2-0.4,0.3-0.8,0.4-1.2c0-0.4,0.1-0.7,0.1-0.9v-1.6C216.5,263.6,216.2,263.7,216,263.8z"/>
	<path class="st0" d="M232.4,255.7v2.8h-3.1v7.5c0,0.7,0.1,1.2,0.4,1.4c0.2,0.2,0.7,0.4,1.4,0.4c0.2,0,0.5,0,0.7,0
		c0.2,0,0.4,0,0.6-0.1v3.2c-0.4,0.1-0.7,0.1-1.2,0.1c-0.4,0-0.9,0-1.3,0c-0.6,0-1.3,0-1.8-0.1s-1.1-0.3-1.5-0.5
		c-0.4-0.3-0.8-0.6-1-1.1c-0.3-0.5-0.4-1.1-0.4-1.8v-9h-2.5v-2.8h2.5v-4.6h4.2v4.6H232.4z"/>
	<path class="st0" d="M241.6,258.4c-0.7,0-1.2,0.2-1.7,0.5s-0.8,0.7-1.1,1.2c-0.3,0.5-0.5,1-0.6,1.6c-0.1,0.6-0.2,1.2-0.2,1.7
		c0,0.5,0.1,1.1,0.2,1.7c0.1,0.6,0.3,1.1,0.6,1.5c0.3,0.5,0.6,0.8,1.1,1.1c0.5,0.3,1,0.4,1.6,0.4c1,0,1.8-0.3,2.3-0.8
		c0.5-0.6,0.9-1.3,1-2.2h4c-0.3,2-1.1,3.6-2.3,4.6c-1.3,1.1-2.9,1.6-5,1.6c-1.1,0-2.2-0.2-3.1-0.6c-0.9-0.4-1.8-0.9-2.4-1.6
		c-0.7-0.7-1.2-1.5-1.6-2.5c-0.4-0.9-0.6-2-0.6-3.1c0-1.2,0.2-2.3,0.5-3.3c0.3-1,0.8-1.9,1.5-2.6c0.7-0.7,1.5-1.3,2.4-1.7
		s2.1-0.6,3.3-0.6c0.9,0,1.8,0.1,2.6,0.4c0.8,0.2,1.6,0.6,2.2,1.1c0.7,0.5,1.2,1.1,1.6,1.8s0.6,1.6,0.7,2.5h-4.1
		C244.4,259.3,243.4,258.4,241.6,258.4z"/>
	<path class="st0" d="M255.4,249.9v7.9h0.1c0.5-0.9,1.2-1.5,2-1.9c0.8-0.4,1.6-0.6,2.4-0.6c1.1,0,2,0.2,2.7,0.5
		c0.7,0.3,1.3,0.7,1.7,1.3c0.4,0.5,0.7,1.2,0.9,2c0.2,0.8,0.2,1.6,0.2,2.6v9.3h-4.2v-8.6c0-1.3-0.2-2.2-0.6-2.8
		c-0.4-0.6-1.1-0.9-2.1-0.9c-1.1,0-2,0.3-2.5,1c-0.5,0.7-0.8,1.8-0.8,3.3v8h-4.2v-21H255.4z"/>
</g>
<g>
	<g>
		<polygon class="st1" points="237.6,159.1 144.5,145.5 51.3,159.2 144.4,224.9 237.6,159.1 		"/>
	</g>
	<g>
		<polygon class="st2" points="69.9,157.6 85.7,162.3 122.7,105.6 85.7,48.8 69.9,54.9 69.9,157.6 		"/>
	</g>
	<g>
		<polygon class="st3" points="141.4,152.7 85.7,162.5 85.7,48.8 141.4,61.4 141.4,152.7 		"/>
	</g>
	<g>
		<polygon class="st2" points="116.6,171.8 94.8,165.2 94.8,25 116.6,14.1 180.9,97.1 116.6,171.8 		"/>
	</g>
	<g>
		<polygon class="st3" points="191,154.5 116.6,171.9 116.6,14.1 191,43.1 191,154.5 		"/>
	</g>
	<g>
		<polygon class="st2" points="144.4,192.2 51.3,159.2 51.3,178.3 144.4,224.9 144.4,192.2 		"/>
	</g>
	<g>
		<polygon class="st3" points="237.6,178.3 144.4,224.9 144.4,192.2 237.6,159.1 237.6,178.3 		"/>
	</g>
	<g>
		<polygon class="st1" points="211.4,127.4 188.8,127.4 124.5,131.8 144.4,180.1 211.4,127.4 		"/>
	</g>
	<g>
		<polygon class="st2" points="124.5,174.1 144.4,180.1 144.4,133.9 124.5,131.8 124.5,174.1 		"/>
	</g>
	<g>
		<polygon class="st3" points="211.4,127.4 144.4,133.9 144.4,180.1 211.4,160 211.4,127.4 		"/>
	</g>
</g>
</svg>
