<svg id="Layer_1" data-name="Layer 1" xmlns="http://www.w3.org/2000/svg" viewBox="0 0 720 521.03998"><defs><style>.cls-1{fill:#dc5900;}.cls-2{fill:#de6d45;}.cls-3{fill:#fe9545;}.cls-4{fill:#fe8b00;}</style></defs><title>azure-service-fabric</title><polygon class="cls-1" points="323.089 332.019 403.796 332.019 403.796 368.799 306.247 368.799 323.089 332.019"/><polygon class="cls-2" points="210.247 232.51 234.668 319.036 274.668 303.668 263.299 284.72 242.457 211.457 210.247 232.51"/><polygon class="cls-1" points="474.246 231.247 452.63 309.878 496.352 319.036 492.878 298.826 516.472 218.299 474.246 231.247"/><polygon class="cls-1" points="403.924 118.557 455.931 163.036 478.036 133.547 409.825 78.405 391.51 118.848 403.924 118.557"/><polygon class="cls-2" points="300.801 88.814 253.825 125.786 277.551 159.201 280.88 149.66 326.327 115.363 300.801 88.814"/><path d="M36.55273,462.69824l19.248,51.47168H44.0498L40.15723,502.708h-19.248l-4.03711,11.46191H5.48193l19.46436-51.47168Zm.64893,31.5752-6.48828-18.8877h-.144l-6.70459,18.8877Z"/><path d="M76.27393,484.61328H58.32373v-7.71387H89.75488v7.71387L70.36279,506.45605H91.12451v7.71387H56.88184v-7.71387Z"/><path d="M121.834,514.16992v-5.19043h-.21631a11.51542,11.51542,0,0,1-5.0459,4.68555,14.89992,14.89992,0,0,1-6.34424,1.44238,17.888,17.888,0,0,1-6.74022-1.082,9.71579,9.71579,0,0,1-4.145-3.06347,11.98391,11.98391,0,0,1-2.127-4.83008,30.02215,30.02215,0,0,1-.6123-6.30762v-22.9248h10.23633V497.9502q0,4.61425,1.44189,6.88378,1.44141,2.272,5.11865,2.27149,4.17993,0,6.05519-2.48731,1.87426-2.4873,1.87451-8.18261V476.89941h10.23682v37.27051Z"/><path d="M149.0835,476.89941v6.9209h.144a12.56548,12.56548,0,0,1,1.94629-3.208,12.77526,12.77526,0,0,1,2.81153-2.52343,13.78853,13.78853,0,0,1,3.38818-1.62207,12.24452,12.24452,0,0,1,3.749-.57618,7.99348,7.99348,0,0,1,2.23487.36036v9.51562q-.72217-.14355-1.73047-.252a18.25113,18.25113,0,0,0-1.94629-.1084,10.9147,10.9147,0,0,0-4.75781.9375,8.24305,8.24305,0,0,0-3.13624,2.55859,10.2411,10.2411,0,0,0-1.69384,3.78516,20.57,20.57,0,0,0-.50489,4.68555v16.79687H139.35156V476.89941Z"/><path d="M177.0542,505.23047q2.3064,2.23534,6.63232,2.23535a9.12915,9.12915,0,0,0,5.33448-1.5498,6.43514,6.43514,0,0,0,2.73925-3.28028h9.01123q-2.16284,6.7046-6.63232,9.58789a19.5223,19.5223,0,0,1-10.81348,2.88379,21.27579,21.27579,0,0,1-7.92968-1.40625,16.46462,16.46462,0,0,1-5.9834-4.001,17.99525,17.99525,0,0,1-3.78467-6.19921,22.674,22.674,0,0,1-1.3335-7.93067,21.73116,21.73116,0,0,1,1.36963-7.78515,18.01929,18.01929,0,0,1,9.91211-10.38086,19.2908,19.2908,0,0,1,7.74951-1.51368,17.72276,17.72276,0,0,1,8.29053,1.8379,16.55932,16.55932,0,0,1,5.80322,4.93847,20.31688,20.31688,0,0,1,3.28028,7.06445,26.35169,26.35169,0,0,1,.7207,8.29H174.53076Q174.74755,502.99613,177.0542,505.23047Zm11.57031-19.6084q-1.83837-2.0171-5.58691-2.01855a8.9179,8.9179,0,0,0-4.07324.8291,7.77908,7.77908,0,0,0-2.59522,2.05468,7.52667,7.52667,0,0,0-1.36963,2.59571,11.6772,11.6772,0,0,0-.46875,2.45117h16.65283A11.83891,11.83891,0,0,0,188.62451,485.62207Z"/><path d="M237.24854,501.48242a8.17073,8.17073,0,0,0,2.48681,2.91895,10.73482,10.73482,0,0,0,3.64063,1.6582,17.20929,17.20929,0,0,0,4.32568.541,22.42942,22.42942,0,0,0,3.24365-.252,11.25174,11.25174,0,0,0,3.24414-.97363,7.06658,7.06658,0,0,0,2.52344-1.98242,4.97593,4.97593,0,0,0,1.00928-3.208,4.51911,4.51911,0,0,0-1.334-3.38867,10.58913,10.58913,0,0,0-3.49609-2.16211,34.86255,34.86255,0,0,0-4.90234-1.51367q-2.74076-.64893-5.55079-1.44239a48.92007,48.92007,0,0,1-5.623-1.76562,19.248,19.248,0,0,1-4.90185-2.7041,12.71232,12.71232,0,0,1-3.49658-4.14453,12.57852,12.57852,0,0,1-1.3335-6.01954,13.475,13.475,0,0,1,1.69385-6.88476,15.3387,15.3387,0,0,1,4.43359-4.86621,19.33867,19.33867,0,0,1,6.19971-2.88379,26.40484,26.40484,0,0,1,6.92041-.93653,32.814,32.814,0,0,1,7.75.9004,19.37129,19.37129,0,0,1,6.59617,2.91992,14.799,14.799,0,0,1,4.57764,5.15429,15.82042,15.82042,0,0,1,1.69385,7.60547H255.9917a9.12236,9.12236,0,0,0-.97315-3.82031,6.36892,6.36892,0,0,0-2.19873-2.37891,9.31432,9.31432,0,0,0-3.13574-1.22558,19.31538,19.31538,0,0,0-3.85693-.36035,13.3102,13.3102,0,0,0-2.73926.28808,7.32892,7.32892,0,0,0-2.4873,1.00977,6.24469,6.24469,0,0,0-1.83838,1.80176,4.83777,4.83777,0,0,0-.72071,2.73925,4.61624,4.61624,0,0,0,.57666,2.45118,5.1405,5.1405,0,0,0,2.271,1.73046,28.873,28.873,0,0,0,4.68555,1.58594q2.99048.794,7.82177,2.01856,1.44141.28857,4.001,1.04492a19.232,19.232,0,0,1,5.08252,2.415,15.38385,15.38385,0,0,1,4.36133,4.43359,12.61794,12.61794,0,0,1,1.83838,7.10059,15.74474,15.74474,0,0,1-1.36963,6.56054,14.25671,14.25671,0,0,1-4.07324,5.22657,19.56092,19.56092,0,0,1-6.70459,3.42382,31.71368,31.71368,0,0,1-9.26319,1.22559,32.54053,32.54053,0,0,1-8.25439-1.04492,20.74139,20.74139,0,0,1-7.06494-3.28028,16.18685,16.18685,0,0,1-4.86573-5.69531,16.98653,16.98653,0,0,1-1.73046-8.21777h10.958A9.43879,9.43879,0,0,0,237.24854,501.48242Z"/><path d="M285.25928,505.23047q2.3064,2.23534,6.63232,2.23535a9.12916,9.12916,0,0,0,5.33447-1.5498,6.43515,6.43515,0,0,0,2.73926-3.28028h9.01123q-2.16284,6.7046-6.63232,9.58789a19.5223,19.5223,0,0,1-10.81348,2.88379,21.27588,21.27588,0,0,1-7.92969-1.40625,16.46475,16.46475,0,0,1-5.98339-4.001A17.99472,17.99472,0,0,1,273.833,503.501a22.67493,22.67493,0,0,1-1.3335-7.93067,21.7316,21.7316,0,0,1,1.36963-7.78515,18.01926,18.01926,0,0,1,9.91211-10.38086,19.29063,19.29063,0,0,1,7.74951-1.51367,17.72266,17.72266,0,0,1,8.29053,1.83789,16.55923,16.55923,0,0,1,5.80322,4.93847,20.3172,20.3172,0,0,1,3.28028,7.06446,26.3516,26.3516,0,0,1,.7207,8.29H282.73584Q282.95264,502.9961,285.25928,505.23047Zm11.57031-19.6084q-1.83839-2.0171-5.58691-2.01855a8.918,8.918,0,0,0-4.07325.8291,7.77875,7.77875,0,0,0-2.59521,2.05468,7.52684,7.52684,0,0,0-1.36963,2.59571,11.67592,11.67592,0,0,0-.46875,2.45117h16.65283A11.83883,11.83883,0,0,0,296.82959,485.62207Z"/><path d="M325.41211,476.89941v6.9209h.144a12.56576,12.56576,0,0,1,1.94629-3.208,12.77566,12.77566,0,0,1,2.81152-2.52343,13.78894,13.78894,0,0,1,3.38819-1.62207,12.24461,12.24461,0,0,1,3.749-.57618,7.99341,7.99341,0,0,1,2.23486.36036v9.51562q-.72216-.14355-1.73046-.252a18.25127,18.25127,0,0,0-1.94629-.1084,10.91477,10.91477,0,0,0-4.75782.9375,8.24317,8.24317,0,0,0-3.13623,2.55859,10.24127,10.24127,0,0,0-1.69384,3.78516,20.57,20.57,0,0,0-.50489,4.68555v16.79687H315.68018V476.89941Z"/><path d="M352.9502,514.16992l-12.76026-37.27051h10.7417l7.85742,25.44825h.14453l7.85743-25.44825h10.165l-12.61621,37.27051Z"/><path d="M381.49707,471.13281v-8.43457H391.7334v8.43457Zm10.23633,5.7666v37.27051H381.49707V476.89941Z"/><path d="M417.61328,483.60352a7.18682,7.18682,0,0,0-4.10937,1.11816,8.8791,8.8791,0,0,0-2.70313,2.88281,12.46132,12.46132,0,0,0-1.47754,3.89356,21.06353,21.06353,0,0,0-.43262,4.21679,20.2,20.2,0,0,0,.43262,4.10938,12.6875,12.6875,0,0,0,1.40528,3.78418,8.06751,8.06751,0,0,0,2.63183,2.77539,7.22355,7.22355,0,0,0,4.03711,1.082,7.502,7.502,0,0,0,5.6582-2.05469,9.72542,9.72542,0,0,0,2.48731-5.51465h9.876q-1.01074,7.4253-5.76661,11.31739-4.75781,3.89351-12.18359,3.89352a20.38641,20.38641,0,0,1-7.67676-1.40625,16.99875,16.99875,0,0,1-5.94824-3.92871,17.8634,17.8634,0,0,1-3.82031-6.01953,20.87015,20.87015,0,0,1-1.37012-7.67774,24.84158,24.84158,0,0,1,1.26172-8.03808,18.07907,18.07907,0,0,1,3.71289-6.416,16.97519,16.97519,0,0,1,5.9834-4.21679,20.31712,20.31712,0,0,1,8.07422-1.51368,23.3569,23.3569,0,0,1,6.37988.86524,17.03822,17.03822,0,0,1,5.47852,2.63086,13.60561,13.60561,0,0,1,5.66015,10.63281H425.18262Q424.17188,483.605,417.61328,483.60352Z"/><path d="M452.14355,505.23047q2.30566,2.23534,6.63184,2.23535a9.1287,9.1287,0,0,0,5.335-1.5498,6.43525,6.43525,0,0,0,2.73926-3.28028h9.01172q-2.16357,6.7046-6.63281,9.58789a19.52232,19.52232,0,0,1-10.81348,2.88379,21.27825,21.27825,0,0,1-7.92969-1.40625,16.46076,16.46076,0,0,1-5.9834-4.001,17.98879,17.98879,0,0,1-3.78515-6.19921,22.68517,22.68517,0,0,1-1.333-7.93067,21.74161,21.74161,0,0,1,1.36914-7.78515,18.0247,18.0247,0,0,1,9.913-10.38083,19.28728,19.28728,0,0,1,7.749-1.51368,17.71907,17.71907,0,0,1,8.29,1.8379,16.55237,16.55237,0,0,1,5.80371,4.93847,20.317,20.317,0,0,1,3.28027,7.06446,26.36492,26.36492,0,0,1,.7207,8.29H449.62012Q449.83692,502.99611,452.14355,505.23047Zm11.57032-19.6084q-1.83839-2.0171-5.58692-2.01855a8.91539,8.91539,0,0,0-4.07324.8291,7.77216,7.77216,0,0,0-2.59473,2.05468,7.51974,7.51974,0,0,0-1.37011,2.59571,11.7078,11.7078,0,0,0-.46875,2.45117h16.65332A11.84347,11.84347,0,0,0,463.71387,485.62207Z"/><path d="M539.876,462.69824v9.51563h-24.8711V484.1084h21.55469v8.79492H515.00488v21.2666H503.6875V462.69824Z"/><path d="M546.72363,482.37793a12.26578,12.26578,0,0,1,4.03711-3.82031,17.59861,17.59861,0,0,1,5.51465-2.05469,31.44689,31.44689,0,0,1,6.16406-.61231,41.87684,41.87684,0,0,1,5.69434.39649,17.44686,17.44686,0,0,1,5.26269,1.5498,10.36678,10.36678,0,0,1,3.89258,3.208,8.96057,8.96057,0,0,1,1.51465,5.44238v19.39258a38.91556,38.91556,0,0,0,.28809,4.83008,8.71479,8.71479,0,0,0,1.00879,3.46H569.71973a14.4651,14.4651,0,0,1-.46778-1.7666,15.10556,15.10556,0,0,1-.25293-1.83789,13.32659,13.32659,0,0,1-5.7666,3.53223,23.15447,23.15447,0,0,1-6.77637,1.00976,18.298,18.298,0,0,1-4.9746-.64941,11.36788,11.36788,0,0,1-4.03711-2.01856,9.37666,9.37666,0,0,1-2.70313-3.46,11.69035,11.69035,0,0,1-.97363-4.97461,10.86733,10.86733,0,0,1,1.11719-5.22656,9.34784,9.34784,0,0,1,2.88378-3.2793,12.93218,12.93218,0,0,1,4.03711-1.83886,43.57952,43.57952,0,0,1,4.57813-.97266q2.30566-.36034,4.541-.57715a27.27341,27.27341,0,0,0,3.96485-.64844,6.926,6.926,0,0,0,2.74023-1.26171,2.77053,2.77053,0,0,0,.93653-2.415,5.42975,5.42975,0,0,0-.54-2.63086,3.98229,3.98229,0,0,0-1.44238-1.51465,5.697,5.697,0,0,0-2.09082-.7207,17.24583,17.24583,0,0,0-2.5586-.17969,7.7682,7.7682,0,0,0-4.75781,1.29687,5.79211,5.79211,0,0,0-2.01856,4.32618H544.9209A11.8969,11.8969,0,0,1,546.72363,482.37793Zm20.22071,14.4541a16.54333,16.54333,0,0,1-2.08985.541q-1.11914.2168-2.34375.36035-1.22607.145-2.45019.36035a18.557,18.557,0,0,0-2.27149.57715,6.75346,6.75346,0,0,0-1.94629.97265,4.63463,4.63463,0,0,0-1.334,1.54981,4.99911,4.99911,0,0,0-.50391,2.37891,4.81956,4.81956,0,0,0,.50391,2.30761,3.85964,3.85964,0,0,0,1.37012,1.47754,5.78876,5.78876,0,0,0,2.01855.75684,12.84721,12.84721,0,0,0,2.37891.21679,9.03806,9.03806,0,0,0,4.68554-1.00976,6.74542,6.74542,0,0,0,2.45118-2.415,7.7391,7.7391,0,0,0,.97363-2.84766,19.7497,19.7497,0,0,0,.17969-2.30664v-3.82031a4.5749,4.5749,0,0,1-1.62207.90036Z"/><path d="M596.96973,462.69824v18.74317h.14355a10.93,10.93,0,0,1,5.083-4.21778,17.20888,17.20888,0,0,1,6.668-1.333,14.2137,14.2137,0,0,1,10.48926,4.68555,18.09839,18.09839,0,0,1,3.56836,6.0918,29.16536,29.16536,0,0,1,0,17.66211,18.08391,18.08391,0,0,1-3.56836,6.09082,14.21,14.21,0,0,1-10.48926,4.68652,19.664,19.664,0,0,1-7.35352-1.29785,9.33159,9.33159,0,0,1-4.90136-4.39746h-.14454v4.75781h-9.73242V462.69824ZM613.5498,491.0293a11.88771,11.88771,0,0,0-1.58593-3.82129,7.777,7.777,0,0,0-10.52442-2.63086,8.18915,8.18915,0,0,0-2.74023,2.63086,11.86544,11.86544,0,0,0-1.58594,3.82129,19.89523,19.89523,0,0,0-.5039,4.541,19.56732,19.56732,0,0,0,.5039,4.46973,11.85582,11.85582,0,0,0,1.58594,3.82129,8.18,8.18,0,0,0,2.74023,2.63086,7.777,7.777,0,0,0,10.52442-2.63086A11.87815,11.87815,0,0,0,613.5498,500.04a19.62356,19.62356,0,0,0,.50489-4.46973A19.95119,19.95119,0,0,0,613.5498,491.0293Z"/><path d="M640.51074,476.89941v6.9209h.14453a12.52584,12.52584,0,0,1,1.94629-3.208,12.76466,12.76466,0,0,1,2.81153-2.52343,13.77643,13.77643,0,0,1,3.38769-1.62207,12.24466,12.24466,0,0,1,3.749-.57618,7.99008,7.99008,0,0,1,2.23438.36036v9.51562q-.7207-.14355-1.72949-.252a18.27673,18.27673,0,0,0-1.94727-.1084,10.91737,10.91737,0,0,0-4.75781.9375,8.24864,8.24864,0,0,0-3.13574,2.55859,10.2501,10.2501,0,0,0-1.69434,3.78516,20.626,20.626,0,0,0-.50391,4.68555v16.79687h-10.2373V476.89941Z"/><path d="M659.11035,471.13281v-8.43457h10.23633v8.43457Zm10.23633,5.7666v37.27051H659.11035V476.89941Z"/><path d="M695.22656,483.60352a7.18676,7.18676,0,0,0-4.10937,1.11816,8.86849,8.86849,0,0,0-2.70313,2.88281,12.48754,12.48754,0,0,0-1.47851,3.89356,21.1319,21.1319,0,0,0-.43164,4.21679,20.26475,20.26475,0,0,0,.43164,4.10938,12.71444,12.71444,0,0,0,1.40625,3.78418,8.06488,8.06488,0,0,0,2.63086,2.77539,7.22577,7.22577,0,0,0,4.03711,1.082,7.5029,7.5029,0,0,0,5.65918-2.05469,9.72528,9.72528,0,0,0,2.4873-5.51465h9.876q-1.01075,7.4253-5.76661,11.31739-4.75781,3.89351-12.18359,3.89352a20.39145,20.39145,0,0,1-7.67773-1.40625,17.00331,17.00331,0,0,1-5.94727-3.92871,17.8634,17.8634,0,0,1-3.82031-6.01953,20.84994,20.84994,0,0,1-1.37012-7.67774,24.81665,24.81665,0,0,1,1.26172-8.03808,18.06376,18.06376,0,0,1,3.71289-6.416,16.97519,16.97519,0,0,1,5.9834-4.21679,20.31378,20.31378,0,0,1,8.07422-1.51368,23.36153,23.36153,0,0,1,6.37988.86524,17.03851,17.03851,0,0,1,5.47852,2.63086,13.6085,13.6085,0,0,1,5.65918,10.63281H702.7959Q701.78516,483.605,695.22656,483.60352Z"/><path class="cls-2" d="M260.52579,284.27307c-11.92848,1.92392-21.8048,8.0806-31.80928,14.23724-5.25881-19.23947-10.51758-38.479-15.90464-57.71844,1.02611-1.28262,2.56527-1.4109,4.10442-1.28262,9.36322.12826,18.59816.38479,27.57658-3.33486.7696-.25651,1.92395.513,2.95006.76959,2.18047,1.02611,2.69353,3.07831,3.33486,5.13053,3.4631,12.05673,6.66969,24.24174,10.26106,36.29848C261.42361,280.16867,262.06494,282.22086,260.52579,284.27307Z"/><path class="cls-1" d="M403.924,117.40267c2.18048-5.77184,7.95233-8.46537,10.77411-13.72416,2.82181-5.13053,6.02838-10.13279,7.43924-15.90464,14.109,11.80021,28.2179,23.47216,42.32684,35.27238-1.41089,5.25879-6.92621,6.54143-9.87628,10.26106-3.97616,5.38706-7.95233,10.90238-11.92847,16.28942-1.66742.89784,3.68876,3.60063,2.5344,2.70277-10.90237-8.85016-28.31531-21.68573-38.96112-30.92068C405.20667,120.35272,403.28271,119.58315,403.924,117.40267Z"/><circle class="cls-3" cx="223.83925" cy="177.6638" r="63.84212"/><path class="cls-3" d="M335.34008,346.02306A63.84212,63.84212,0,0,1,271.498,409.86518q-2.865,0-5.66778-.24815a63.84472,63.84472,0,1,1,39.95525-117.45684q2.33374,1.48869,4.526,3.17016A63.73841,63.73841,0,0,1,335.34008,346.02306Z"/><path class="cls-4" d="M282.20224,408.56009c4.36093-19.62424,8.59363-39.24854,12.95459-58.74454,3.71963-16.93075,7.56754-33.73321,11.5437-50.664a6.473,6.473,0,0,1,1.28262-2.18048c9.10669,1.92395,12.82633,9.748,17.31553,16.41769a59.728,59.728,0,0,1,8.59362,21.80475c2.30875,9.10669,1.66742,18.08512-.64132,27.06354-.64133,2.56525-1.41089,4.874-3.59137,6.54144C321.066,388.551,307.08527,402.27521,285.92188,408.047A17.3457,17.3457,0,0,1,282.20224,408.56009Z"/><circle class="cls-3" cx="361.72542" cy="69.83977" r="63.84212"/><path class="cls-4" d="M373.26913,7.35285c37.19632,6.798,60.12934,42.83991,49.86829,80.421-1.15405,3.26262-2.03757,5.57362-3.06366,8.01063-3.8479,8.97842-9.73654,15.71806-16.14969,22.77253-14.75027,12.44153-31.93753,16.28941-50.79223,14.622-2.95008-.25651-6.02839-.513-8.3371-2.69353-1.28262-2.56526-.25653-5.00227.25653-7.43927,7.6958-35.01585,15.90463-69.90344,23.7287-104.791C369.5495,14.40733,369.67773,10.17464,373.26913,7.35285Z"/><circle class="cls-4" cx="499.75696" cy="177.6638" r="63.84212"/><circle class="cls-4" cx="452.62977" cy="346.02306" r="63.84212"/></svg>