<svg width="124.99999999999999" height="47" xmlns="http://www.w3.org/2000/svg" fill="none">
 <defs>
  <linearGradient id="paint0_linear_2_17" x1="0.5" y1="0.99904" x2="0.5" y2="0.00007">
   <stop stop-color="#198AB3"/>
   <stop offset="0.09" stop-color="#1F9DC4"/>
   <stop offset="0.24" stop-color="#28B5D9"/>
   <stop offset="0.4" stop-color="#2DC6E9"/>
   <stop offset="0.57" stop-color="#31D1F2"/>
   <stop offset="0.78" stop-color="#32D4F5"/>
  </linearGradient>
  <linearGradient id="paint1_linear_2_17" x1="0.49999" y1="0" x2="0.49999" y2="0.99679">
   <stop stop-color="#C69AEB"/>
   <stop offset="1" stop-color="#6F4BB2"/>
  </linearGradient>
 </defs>
 <g>
  <title>Layer 1</title>
  <g id="svg_5">
   <path d="m7.54801,43.38686l-1.08985,0l-0.89062,-2.3555l-3.5625,0l-0.83789,2.3555l-1.0957,0l3.22265,-8.4023l1.01953,0l3.23438,8.4023zm-2.30274,-3.2402l-1.31835,-3.5801c-0.04297,-0.1172 -0.08594,-0.3047 -0.12891,-0.5625l-0.02344,0c-0.03906,0.2383 -0.08398,0.4258 -0.13476,0.5625l-1.30665,3.5801l2.91211,0zm7.59957,-2.4844l-3.55074,4.9043l3.51564,0l0,0.8203l-4.92775,0l0,-0.2988l3.55075,-4.8809l-3.21676,0l0,-0.8203l4.62886,0l0,0.2754zm6.0938,5.7246l-0.9609,0l0,-0.9492l-0.0235,0c-0.3984,0.7265 -1.0156,1.0898 -1.8515,1.0898c-1.4297,0 -2.1446,-0.8515 -2.1446,-2.5547l0,-3.5859l0.9551,0l0,3.4336c0,1.2656 0.4844,1.8984 1.4531,1.8984c0.4688,0 0.8535,-0.1718 1.1543,-0.5156c0.3047,-0.3476 0.4571,-0.8008 0.4571,-1.3594l0,-3.457l0.9609,0l0,6zm5.0742,-5.0273c-0.168,-0.1289 -0.4101,-0.1934 -0.7265,-0.1934c-0.4102,0 -0.754,0.1934 -1.0313,0.5801c-0.2734,0.3867 -0.4102,0.914 -0.4102,1.582l0,3.0586l-0.9609,0l0,-6l0.9609,0l0,1.2363l0.0235,0c0.1367,-0.4218 0.3457,-0.75 0.6269,-0.9843c0.2813,-0.2383 0.5957,-0.3575 0.9434,-0.3575c0.25,0 0.4414,0.0274 0.5742,0.0821l0,0.9961zm5.8652,2.2675l-4.2363,0c0.0156,0.668 0.1953,1.1836 0.5391,1.5469c0.3437,0.3633 0.8164,0.5449 1.4179,0.5449c0.6758,0 1.2969,-0.2226 1.8633,-0.6679l0,0.9023c-0.5273,0.3828 -1.2246,0.5742 -2.0918,0.5742c-0.8476,0 -1.5136,-0.2715 -1.998,-0.8144c-0.4844,-0.5469 -0.7266,-1.3145 -0.7266,-2.3028c0,-0.9336 0.2637,-1.6933 0.791,-2.2793c0.5313,-0.5898 1.1895,-0.8847 1.9747,-0.8847c0.7851,0 1.3925,0.2539 1.8222,0.7617c0.4297,0.5078 0.6445,1.2129 0.6445,2.1152l0,0.5039zm-0.9843,-0.8144c-0.0039,-0.5547 -0.1387,-0.9863 -0.4043,-1.2949c-0.2617,-0.3086 -0.627,-0.4629 -1.0957,-0.4629c-0.4532,0 -0.8379,0.1621 -1.1543,0.4863c-0.3164,0.3242 -0.5117,0.748 -0.586,1.2715l3.2403,0zm12.3691,3.5742l-1.0898,0l-0.8907,-2.3555l-3.5625,0l-0.8378,2.3555l-1.0957,0l3.2226,-8.4023l1.0195,0l3.2344,8.4023zm-2.3027,-3.2402l-1.3184,-3.5801c-0.043,-0.1172 -0.0859,-0.3047 -0.1289,-0.5625l-0.0234,0c-0.0391,0.2383 -0.084,0.4258 -0.1348,0.5625l-1.3066,3.5801l2.9121,0zm4.5293,0.0644l0,3.1758l-0.9844,0l0,-8.4023l2.3086,0c0.8984,0 1.5937,0.2187 2.0859,0.6562c0.4961,0.4375 0.7442,1.0547 0.7442,1.8516c0,0.7968 -0.2754,1.4492 -0.8262,1.957c-0.5469,0.5078 -1.2871,0.7617 -2.2207,0.7617l-1.1074,0zm0,-4.3359l0,3.4453l1.0312,0c0.6797,0 1.1973,-0.1543 1.5528,-0.4629c0.3593,-0.3125 0.539,-0.7519 0.539,-1.3184c0,-1.1093 -0.6562,-1.664 -1.9687,-1.664l-1.1543,0zm6.7265,7.5117l-0.9843,0l0,-8.4023l0.9843,0l0,8.4023zm14.0743,0l-0.9786,0l0,-5.6367c0,-0.4453 0.0274,-0.9903 0.0821,-1.6348l-0.0235,0c-0.0937,0.3789 -0.1777,0.6504 -0.2519,0.8145l-2.8711,6.457l-0.4805,0l-2.8652,-6.4102c-0.082,-0.1875 -0.166,-0.4746 -0.252,-0.8613l-0.0234,0c0.0312,0.336 0.0469,0.8848 0.0469,1.6465l0,5.625l-0.9493,0l0,-8.4023l1.3008,0l2.5782,5.8593c0.1992,0.4492 0.3281,0.7852 0.3867,1.0078l0.0351,0c0.168,-0.4609 0.3028,-0.8046 0.4043,-1.0312l2.6309,-5.8359l1.2305,0l0,8.4023zm6.3808,0l-0.9609,0l0,-0.9375l-0.0235,0c-0.4179,0.7187 -1.0332,1.0781 -1.8457,1.0781c-0.5976,0 -1.0664,-0.1582 -1.4062,-0.4746c-0.336,-0.3164 -0.5039,-0.7363 -0.5039,-1.2598c0,-1.121 0.6601,-1.7734 1.9805,-1.957l1.7988,-0.2519c0,-1.0196 -0.4121,-1.5293 -1.2364,-1.5293c-0.7226,0 -1.375,0.2461 -1.957,0.7382l0,-0.9843c0.5899,-0.375 1.2696,-0.5625 2.0391,-0.5625c1.4101,0 2.1152,0.7461 2.1152,2.2383l0,3.9023zm-0.9609,-3.0352l-1.4473,0.1993c-0.4453,0.0625 -0.7812,0.1738 -1.0078,0.3339c-0.2266,0.1563 -0.3398,0.4356 -0.3398,0.8379c0,0.293 0.1035,0.5332 0.3105,0.7207c0.2109,0.1836 0.4902,0.2754 0.8379,0.2754c0.4766,0 0.8691,-0.166 1.1777,-0.498c0.3125,-0.336 0.4688,-0.7598 0.4688,-1.2715l0,-0.5977zm7.7519,3.0352l-0.9609,0l0,-3.4219c0,-1.2734 -0.4648,-1.9101 -1.3945,-1.9101c-0.4805,0 -0.8789,0.1816 -1.1953,0.5449c-0.3126,0.3594 -0.4688,0.8144 -0.4688,1.3652l0,3.4219l-0.9609,0l0,-6l0.9609,0l0,0.9961l0.0234,0c0.4532,-0.7578 1.1094,-1.1367 1.9688,-1.1367c0.6562,0 1.1582,0.2129 1.5058,0.6386c0.3477,0.4219 0.5215,1.0332 0.5215,1.834l0,3.668zm6.1114,0l-0.961,0l0,-0.9375l-0.0234,0c-0.418,0.7187 -1.0332,1.0781 -1.8457,1.0781c-0.5977,0 -1.0664,-0.1582 -1.4063,-0.4746c-0.3359,-0.3164 -0.5039,-0.7363 -0.5039,-1.2598c0,-1.121 0.6602,-1.7734 1.9805,-1.957l1.7988,-0.2519c0,-1.0196 -0.4121,-1.5293 -1.2363,-1.5293c-0.7227,0 -1.375,0.2461 -1.957,0.7382l0,-0.9843c0.5898,-0.375 1.2695,-0.5625 2.039,-0.5625c1.4102,0 2.1153,0.7461 2.1153,2.2383l0,3.9023zm-0.961,-3.0352l-1.4472,0.1993c-0.4454,0.0625 -0.7813,0.1738 -1.0079,0.3339c-0.2265,0.1563 -0.3398,0.4356 -0.3398,0.8379c0,0.293 0.1035,0.5332 0.3105,0.7207c0.211,0.1836 0.4903,0.2754 0.8379,0.2754c0.4766,0 0.8692,-0.166 1.1778,-0.498c0.3125,-0.336 0.4687,-0.7598 0.4687,-1.2715l0,-0.5977zm7.8926,2.5547c0,2.2032 -1.0547,3.3047 -3.1641,3.3047c-0.7422,0 -1.3906,-0.1406 -1.9453,-0.4219l0,-0.9609c0.6758,0.375 1.3203,0.5625 1.9336,0.5625c1.4766,0 2.2149,-0.7851 2.2149,-2.3555l0,-0.6562l-0.0235,0c-0.457,0.7656 -1.1445,1.1484 -2.0625,1.1484c-0.7461,0 -1.3476,-0.2656 -1.8047,-0.7968c-0.4531,-0.5352 -0.6797,-1.252 -0.6797,-2.1504c0,-1.0196 0.2442,-1.8301 0.7325,-2.4317c0.4922,-0.6015 1.164,-0.9023 2.0156,-0.9023c0.8086,0 1.4082,0.3242 1.7988,0.9726l0.0235,0l0,-0.832l0.9609,0l0,5.5195zm-0.9609,-2.2324l0,-0.8848c0,-0.4765 -0.1621,-0.8847 -0.4864,-1.2246c-0.3203,-0.3398 -0.7207,-0.5097 -1.2011,-0.5097c-0.5938,0 -1.0586,0.2168 -1.3946,0.6504c-0.3359,0.4296 -0.5039,1.0332 -0.5039,1.8105c0,0.668 0.1602,1.2031 0.4805,1.6055c0.3242,0.3984 0.7519,0.5976 1.2832,0.5976c0.5391,0 0.9766,-0.1914 1.3125,-0.5742c0.3398,-0.3828 0.5098,-0.873 0.5098,-1.4707zm7.7285,-0.0469l-4.2363,0c0.0156,0.668 0.1953,1.1836 0.539,1.5469c0.3438,0.3633 0.8164,0.5449 1.418,0.5449c0.6758,0 1.2969,-0.2226 1.8633,-0.6679l0,0.9023c-0.5274,0.3828 -1.2246,0.5742 -2.0918,0.5742c-0.8477,0 -1.5137,-0.2715 -1.9981,-0.8144c-0.4844,-0.5469 -0.7265,-1.3145 -0.7265,-2.3028c0,-0.9336 0.2636,-1.6933 0.791,-2.2793c0.5312,-0.5898 1.1894,-0.8847 1.9746,-0.8847c0.7851,0 1.3926,0.2539 1.8222,0.7617c0.4297,0.5078 0.6446,1.2129 0.6446,2.1152l0,0.5039zm-0.9844,-0.8144c-0.0039,-0.5547 -0.1387,-0.9863 -0.4043,-1.2949c-0.2617,-0.3086 -0.6269,-0.4629 -1.0957,-0.4629c-0.4531,0 -0.8379,0.1621 -1.1543,0.4863c-0.3164,0.3242 -0.5117,0.748 -0.5859,1.2715l3.2402,0zm10.9633,3.5742l-0.961,0l0,-3.4453c0,-0.6641 -0.104,-1.1445 -0.311,-1.4414c-0.203,-0.2969 -0.547,-0.4453 -1.031,-0.4453c-0.41,0 -0.76,0.1875 -1.049,0.5625c-0.285,0.375 -0.428,0.8242 -0.428,1.3476l0,3.4219l-0.961,0l0,-3.5625c0,-1.1797 -0.455,-1.7695 -1.365,-1.7695c-0.422,0 -0.769,0.1777 -1.043,0.5332c-0.2733,0.3515 -0.41,0.8105 -0.41,1.3769l0,3.4219l-0.9609,0l0,-6l0.9609,0l0,0.9492l0.0234,0c0.4256,-0.7265 1.0466,-1.0898 1.8636,-1.0898c0.41,0 0.767,0.1152 1.072,0.3457c0.305,0.2265 0.514,0.5254 0.627,0.8965c0.445,-0.8282 1.109,-1.2422 1.992,-1.2422c1.32,0 1.981,0.8144 1.981,2.4433l0,3.6973zm6.638,-2.7598l-4.236,0c0.016,0.668 0.195,1.1836 0.539,1.5469c0.344,0.3633 0.816,0.5449 1.418,0.5449c0.676,0 1.297,-0.2226 1.863,-0.6679l0,0.9023c-0.527,0.3828 -1.224,0.5742 -2.092,0.5742c-0.847,0 -1.513,-0.2715 -1.998,-0.8144c-0.484,-0.5469 -0.726,-1.3145 -0.726,-2.3028c0,-0.9336 0.264,-1.6933 0.791,-2.2793c0.531,-0.5898 1.189,-0.8847 1.974,-0.8847c0.786,0 1.393,0.2539 1.823,0.7617c0.429,0.5078 0.644,1.2129 0.644,2.1152l0,0.5039zm-0.984,-0.8144c-0.004,-0.5547 -0.139,-0.9863 -0.404,-1.2949c-0.262,-0.3086 -0.627,-0.4629 -1.096,-0.4629c-0.453,0 -0.838,0.1621 -1.154,0.4863c-0.317,0.3242 -0.512,0.748 -0.586,1.2715l3.24,0zm7.424,3.5742l-0.961,0l0,-3.4219c0,-1.2734 -0.465,-1.9101 -1.395,-1.9101c-0.48,0 -0.879,0.1816 -1.195,0.5449c-0.313,0.3594 -0.469,0.8144 -0.469,1.3652l0,3.4219l-0.961,0l0,-6l0.961,0l0,0.9961l0.024,0c0.453,-0.7578 1.109,-1.1367 1.968,-1.1367c0.657,0 1.159,0.2129 1.506,0.6386c0.348,0.4219 0.522,1.0332 0.522,1.834l0,3.668zm4.599,-0.0586c-0.226,0.125 -0.525,0.1875 -0.896,0.1875c-1.051,0 -1.576,-0.5859 -1.576,-1.7578l0,-3.5508l-1.032,0l0,-0.8203l1.032,0l0,-1.4648l0.961,-0.3106l0,1.7754l1.511,0l0,0.8203l-1.511,0l0,3.3809c0,0.4023 0.068,0.6894 0.205,0.8613c0.136,0.1719 0.363,0.2578 0.679,0.2578c0.243,0 0.452,-0.0664 0.627,-0.1992l0,0.8203z" fill="black" id="svg_3"/>
   <g id="svg_4">
    <path d="m72.22699,9.30112c-0.0693,-2.41662 -1.091,-4.70787 -2.8424,-6.37438c-1.7514,-1.66651 -4.0906,-2.57315 -6.5076,-2.52231c-1.9548,-0.02009 -3.8677,0.56689 -5.4747,1.67998c-1.6071,1.11309 -2.8291,2.69743 -3.4976,4.53447c-2.0717,0.28574 -3.9715,1.30759 -5.3519,2.87874c-1.3804,1.5711 -2.1492,3.5866 -2.1658,5.6779c0.0838,2.3232 1.0812,4.5193 2.7755,6.111c1.6943,1.5917 3.9484,2.4503 6.2722,2.389c0.2642,0.0186 0.5292,0.0186 0.7934,0l2.2666,0c-0.1377,-0.3356 -0.2082,-0.695 -0.2077,-1.0578l0,0c0.0068,-0.4842 0.1368,-0.9587 0.3777,-1.3788l-2.6444,0l-0.5856,0c-1.6803,0.057 -3.3164,-0.5452 -4.5588,-1.6781c-1.2423,-1.133 -1.9924,-2.7068 -2.0901,-4.3853c0.0153,-1.5199 0.5804,-2.9829 1.5909,-4.1184c1.0105,-1.1354 2.3979,-1.8666 3.9058,-2.0582l1.4356,-0.2267l0.4722,-1.3789c0.5059,-1.36076 1.4197,-2.53203 2.6166,-3.35363c1.1969,-0.8216 2.6184,-1.25341 4.0701,-1.23637c1.7814,-0.04112 3.5077,0.61863 4.8077,1.83734c1.2999,1.2187 2.0696,2.89897 2.1434,4.67936l0,2.0777l2.0589,0.2834c1.1548,0.1478 2.219,0.7026 3.0015,1.5647c0.7824,0.862 1.2318,1.9749 1.2673,3.1386c-0.0439,1.2846 -0.5841,2.5021 -1.507,3.3968c-0.9228,0.8947 -2.1565,1.3969 -3.4418,1.401l-0.2834,0l-0.1511,0l-1.8889,0c-0.3261,-1.6968 -1.2355,-3.2262 -2.5705,-4.3232c-1.335,-1.097 -3.0116,-1.6925 -4.7395,-1.6835c-0.1701,-0.0214 -0.3429,-0.0063 -0.5068,0.0442c-0.1638,0.0505 -0.3151,0.1353 -0.4437,0.2487c-0.1286,0.1134 -0.2316,0.2529 -0.3021,0.4093c-0.0706,0.1563 -0.1071,0.3258 -0.1071,0.4973c0,0.1715 0.0365,0.341 0.1071,0.4973c0.0705,0.1563 0.1735,0.2958 0.3021,0.4092c0.1286,0.1135 0.2799,0.1983 0.4437,0.2488c0.1639,0.0505 0.3367,0.0655 0.5068,0.0441c1.272,0.0783 2.4662,0.6387 3.3392,1.567c0.873,0.9284 1.359,2.1548 1.359,3.4291c0,1.2744 -0.486,2.5007 -1.359,3.4291c-0.873,0.9284 -2.0672,1.4888 -3.3392,1.567c-0.1701,-0.0214 -0.3429,-0.0063 -0.5068,0.0442c-0.1638,0.0505 -0.3151,0.1353 -0.4437,0.2487c-0.1286,0.1135 -0.2316,0.253 -0.3021,0.4093c-0.0706,0.1563 -0.1071,0.3258 -0.1071,0.4973c0,0.1715 0.0365,0.341 0.1071,0.4973c0.0705,0.1563 0.1735,0.2958 0.3021,0.4092c0.1286,0.1135 0.2799,0.1983 0.4437,0.2488c0.1639,0.0505 0.3367,0.0655 0.5068,0.0441c1.7717,-0.0031 3.4836,-0.6414 4.8249,-1.7989c1.3412,-1.1576 2.223,-2.7577 2.4851,-4.51l1.9834,0c0.1251,0.0198 0.2526,0.0198 0.3777,0c1.9163,-0.0341 3.7443,-0.8118 5.0978,-2.1688c1.3535,-1.357 2.1265,-3.187 2.1556,-5.1034c-0.0324,-1.7335 -0.6815,-3.3987 -1.8308,-4.6968c-1.1493,-1.2982 -2.7236,-2.1443 -4.4403,-2.3865l0,0z" fill="url(#paint0_linear_2_17)" id="svg_1"/>
    <path d="m61.27119,19.61472l-0.0755,0c-1.6066,0 -2.9089,1.3023 -2.9089,2.9089l0,0.0755c0,1.6065 1.3023,2.9089 2.9089,2.9089l0.0755,0c1.6065,0 2.9089,-1.3024 2.9089,-2.9089l0,-0.0755c0,-1.6066 -1.3024,-2.9089 -2.9089,-2.9089z" fill="url(#paint1_linear_2_17)" id="svg_2"/>
   </g>
  </g>
 </g>
</svg>