<svg width="96" height="96" viewBox="0 0 96 96" fill="none" xmlns="http://www.w3.org/2000/svg">
<g id="DevOpsIconRepos96">
<mask id="mask0" mask-type="alpha" maskUnits="userSpaceOnUse" x="4" y="0" width="88" height="96">
<path id="Union" d="M68 0C70.2091 0 72 1.79102 72 4V8H76C78.2091 8 80 9.79102 80 12V16H84C86.2091 16 88 17.791 88 20V92C88 94.209 86.2091 96 84 96H4C1.79086 96 0 94.209 0 92V20C0 17.791 1.79086 16 4 16H8V12C8 9.79102 9.79086 8 12 8H16V4C16 1.79102 17.7909 0 20 0H68Z" transform="translate(4)" fill="white"/>
</mask>
<g mask="url(#mask0)">
<path id="Rectangle" d="M0 4C0 1.79086 1.79086 0 4 0H32.9314H39.5H75C77.2091 0 79 1.79086 79 4V52C79 54.2091 77.2091 56 75 56H4C1.79086 56 0 54.2091 0 52L0 4Z" transform="translate(76) rotate(90)" fill="#C43601"/>
<g id="Rectangle_2" opacity="0.75" filter="url(#filter0_f)">
<path d="M0 4C0 1.79086 1.79086 0 4 0H32.5145H39H74C76.2091 0 78 1.79086 78 4V68C78 70.2091 76.2091 72 74 72H4C1.79086 72 0 70.2091 0 68L0 4Z" transform="translate(84 8) rotate(90)" fill="#5F1400"/>
</g>
<path id="Rectangle_3" d="M0 4C0 1.79086 1.79086 0 4 0H32.5145H39H74C76.2091 0 78 1.79086 78 4V68C78 70.2091 76.2091 72 74 72H4C1.79086 72 0 70.2091 0 68L0 4Z" transform="translate(84 8) rotate(90)" fill="#D83B01"/>
<rect id="Rectangle 2" width="56" height="8" transform="translate(20 8)" fill="#CA3701"/>
<g id="Rectangle_4" opacity="0.6" filter="url(#filter1_f)">
<path d="M0 4C0 1.79086 1.79086 0 4 0H33.3482H40H76C78.2091 0 80 1.79086 80 4V84C80 86.2091 78.2091 88 76 88H4C1.79086 88 0 86.2091 0 84L0 4Z" transform="translate(92 16) rotate(90)" fill="#7C1A00"/>
</g>
<path id="Rectangle_5" d="M0 4C0 1.79086 1.79086 0 4 0H33.3482H40H76C78.2091 0 80 1.79086 80 4V84C80 86.2091 78.2091 88 76 88H4C1.79086 88 0 86.2091 0 84L0 4Z" transform="translate(92 16) rotate(90)" fill="#D83B01"/>
<path id="Intersect" d="M72 0H0V66C0 68.209 1.59191 70 3.55556 70H68.4444C70.4081 70 72 68.209 72 66V0Z" transform="translate(12 16)" fill="url(#paint0_linear)"/>
<g id="Group 2">
<path id="Vector (Stroke)" fill-rule="evenodd" clip-rule="evenodd" d="M8 0V36H0V0H8Z" transform="translate(27 38)" fill="url(#paint1_linear)"/>
<path id="Subtract" fill-rule="evenodd" clip-rule="evenodd" d="M20 10C20 15.5229 15.5228 20 10 20C4.47717 20 0 15.5229 0 10C0 4.47705 4.47717 0 10 0C15.5228 0 20 4.47705 20 10ZM10 16C13.3137 16 16 13.3135 16 10C16 6.68652 13.3137 4 10 4C6.68628 4 4 6.68652 4 10C4 13.3135 6.68628 16 10 16Z" transform="translate(21 22)" fill="#FC9F7C"/>
</g>
<g id="Union_2" filter="url(#filter2_f)">
<path fill-rule="evenodd" clip-rule="evenodd" d="M49 19.168C52.5318 17.625 55 14.1006 55 10C55 4.47656 50.5228 0 45 0C39.4772 0 35 4.47656 35 10C35 14.1006 37.4682 17.625 41 19.168V24.2373L6 39.2373V48.832C2.4682 50.375 0 53.8994 0 58C0 63.5234 4.47717 68 10 68C15.5228 68 20 63.5234 20 58C20 53.8994 17.5318 50.375 14 48.832V44.5127L49 29.5127V19.168ZM45 16C48.3137 16 51 13.3135 51 10C51 6.68652 48.3137 4 45 4C41.6863 4 39 6.68652 39 10C39 13.3135 41.6863 16 45 16ZM4 58C4 54.6865 6.68628 52 10 52C13.3137 52 16 54.6865 16 58C16 61.3135 13.3137 64 10 64C6.68628 64 4 61.3135 4 58Z" transform="translate(21 22)" fill="#BF2200"/>
</g>
<g id="Group">
<path id="Subtract_2" fill-rule="evenodd" clip-rule="evenodd" d="M20 10C20 15.5229 15.5228 20 10 20C4.47717 20 0 15.5229 0 10C0 4.47705 4.47717 0 10 0C15.5228 0 20 4.47705 20 10ZM10 16C13.3137 16 16 13.3135 16 10C16 6.68652 13.3137 4 10 4C6.68628 4 4 6.68652 4 10C4 13.3135 6.68628 16 10 16Z" transform="translate(21 70)" fill="#FFD5C6"/>
<path id="Vector (Stroke)_2" fill-rule="evenodd" clip-rule="evenodd" d="M43 0V13.5126L8 28.5126V36H0V23.2374L35 8.23742V0H43Z" transform="translate(27 38)" fill="#FEBCA3"/>
<path id="Intersect_2" d="M0.00936455 3.43363L0 16.1999H7.99999L8.01642 0L0.00936455 3.43363Z" transform="translate(27 57.7998)" fill="#FFD5C6"/>
<path id="Subtract_3" fill-rule="evenodd" clip-rule="evenodd" d="M20 10C20 15.5229 15.5228 20 10 20C4.47717 20 0 15.5229 0 10C0 4.47705 4.47717 0 10 0C15.5228 0 20 4.47705 20 10ZM10 16C13.3137 16 16 13.3135 16 10C16 6.68652 13.3137 4 10 4C6.68628 4 4 6.68652 4 10C4 13.3135 6.68628 16 10 16Z" transform="translate(56 22)" fill="#FEBCA3"/>
</g>
<path id="Subtract_4" opacity="0.25" fill-rule="evenodd" clip-rule="evenodd" d="M0 84C0 86.2091 1.79102 88 4 88H76C78.209 88 80 86.2091 80 84V4C80 1.79086 78.209 0 76 0H4C1.79102 0 0 1.79086 0 4V8V80V84Z" transform="translate(92 16) rotate(90)" fill="url(#paint2_linear)"/>
</g>
</g>
<defs>
<filter id="filter0_f" x="4" y="0" width="88" height="94" filterUnits="userSpaceOnUse" color-interpolation-filters="sRGB">
<feFlood flood-opacity="0" result="BackgroundImageFix"/>
<feBlend mode="normal" in="SourceGraphic" in2="BackgroundImageFix" result="shape"/>
<feGaussianBlur stdDeviation="4" result="effect1_foregroundBlur"/>
</filter>
<filter id="filter1_f" x="-4" y="8" width="104" height="96" filterUnits="userSpaceOnUse" color-interpolation-filters="sRGB">
<feFlood flood-opacity="0" result="BackgroundImageFix"/>
<feBlend mode="normal" in="SourceGraphic" in2="BackgroundImageFix" result="shape"/>
<feGaussianBlur stdDeviation="4" result="effect1_foregroundBlur"/>
</filter>
<filter id="filter2_f" x="13" y="14" width="71" height="84" filterUnits="userSpaceOnUse" color-interpolation-filters="sRGB">
<feFlood flood-opacity="0" result="BackgroundImageFix"/>
<feBlend mode="normal" in="SourceGraphic" in2="BackgroundImageFix" result="shape"/>
<feGaussianBlur stdDeviation="4" result="effect1_foregroundBlur"/>
</filter>
<linearGradient id="paint0_linear" x2="1" gradientUnits="userSpaceOnUse" gradientTransform="translate(68.9143) scale(65.8286 64) rotate(90)">
<stop stop-color="#C82400"/>
<stop offset="1" stop-color="#D83B01" stop-opacity="0"/>
</linearGradient>
<linearGradient id="paint1_linear" x2="1" gradientUnits="userSpaceOnUse" gradientTransform="translate(7.76106 3.5) scale(7.52212 31.5) rotate(90)">
<stop stop-color="#FC9F7C"/>
<stop offset="1" stop-color="#D83B01"/>
</linearGradient>
<linearGradient id="paint2_linear" x2="1" gradientUnits="userSpaceOnUse" gradientTransform="translate(5.58874e-08 6.41667) scale(80 74.1667)">
<stop stop-color="#FFD7C1"/>
<stop offset="1" stop-color="#FFC29F" stop-opacity="0"/>
</linearGradient>
</defs>
</svg>
