<svg xmlns="http://www.w3.org/2000/svg" role="img" xmlns:xlink="http://www.w3.org/1999/xlink" viewBox="-8.19 -8.19 425.88 89.88"><title>Bamboo logo</title><defs><linearGradient id="a" x1="16.06" x2="16.06" y1="10.61" y2="53.94" gradientUnits="userSpaceOnUse"><stop offset="0" stop-color="#0052cc"/><stop offset="1" stop-color="#2684ff"/></linearGradient><linearGradient id="b" x1="15.91" x2="15.91" y1="10.61" y2="53.94" xlink:href="#a"/></defs><g data-name="Layer 2"><path fill="#253858" d="M117.53 7.88C129.32 7.88 135 13.69 135 23c0 7-3.17 11.26-9.68 12.85 8.54 1.41 12.76 6.07 12.76 14.25 0 9.24-6.25 15.58-19.18 15.58H95.09V7.88zM103 15.45V32.7h13.46c7.48 0 10.56-3.43 10.56-9s-3.34-8.27-10.56-8.27zm0 24.29v18h16.2c7.57 0 11-2.73 11-8.54 0-6.16-3.26-9.5-11.17-9.5zm74 18.04c-2.82 5.81-8.1 8.8-14.87 8.8-11.7 0-17.6-9.94-17.6-22.88 0-12.41 6.16-22.88 18.48-22.88 6.42 0 11.35 2.9 14 8.62V21.7h7.57v44H177zm-12.85 1.76c6.78 0 12.85-4.31 12.85-14.08v-3.52c0-9.77-5.54-14.08-12-14.08-8.54 0-12.94 5.63-12.94 15.84.05 10.56 4.28 15.84 12.11 15.84zm69.28 6.16h-7.57V39.12c0-7.92-3.17-11.44-10.38-11.44-7 0-11.88 4.66-11.88 13.55V65.7H196v-44h7.57v7.22a15.42 15.42 0 0 1 13.9-8.1c7.48 0 12.58 3.78 14.78 10.74 2.46-6.78 8.36-10.74 15.66-10.74 9.86 0 15.31 6.69 15.31 19.1V65.7h-7.57V41.23c0-9.06-3.17-13.55-10.38-13.55-7 0-11.88 4.66-11.88 13.55zm61.95.88c-6.42 0-11.35-2.9-14-8.62v7.74h-7.57V3.31h7.57v26.31c2.82-5.81 8.1-8.8 14.87-8.8 11.7 0 17.6 9.94 17.6 22.88.01 12.4-6.15 22.88-18.47 22.88zm-1.14-38.72c-6.78 0-12.85 4.31-12.85 14.08v3.52c0 9.77 5.54 14.08 12 14.08 8.54 0 12.94-5.63 12.94-15.84-.04-10.56-4.27-15.84-12.1-15.84zM320 43.61c0-13.2 7.74-22.79 20.94-22.79s20.77 9.59 20.77 22.79-7.66 23-20.77 23-20.94-9.8-20.94-23zm7.39 0c0 8.36 4.14 15.93 13.55 15.93s13.4-7.54 13.4-15.93-4-15.75-13.37-15.75-13.56 7.39-13.56 15.75zm40.5 0c0-13.2 7.74-22.79 20.94-22.79s20.77 9.59 20.77 22.79-7.66 23-20.77 23-20.94-9.8-20.94-23zm7.39 0c0 8.36 4.14 15.93 13.55 15.93s13.38-7.54 13.38-15.93-4-15.75-13.37-15.75-13.56 7.39-13.56 15.75z"/><path fill="#2684ff" d="M61.56 41.81H46.27a2 2 0 0 0-2 1.7 12.57 12.57 0 0 1-12.46 10.83l4.14 18.91a31.81 31.81 0 0 0 27.61-29.3 2 2 0 0 0-2-2.14zm-26.46-.48l22-18.91a2 2 0 0 0 0-3L35.1.48A2 2 0 0 0 31.81 2v37.81a2 2 0 0 0 3.29 1.52z"/><path fill="url(#a)" d="M.3 45.94a31.81 31.81 0 0 0 31.51 27.61V54.34a12.56 12.56 0 0 1-12.56-12.53z"/><path fill="url(#b)" d="M0 41.51v.3h19.25a12.56 12.56 0 0 1 12.56-12.53l-4.13-18.91A31.79 31.79 0 0 0 0 41.51"/></g></svg>