<svg xmlns="http://www.w3.org/2000/svg" width="159" height="37"><path d="M144.96 10.65c3.105 0 6.063 1.331 7.887 3.353v-2.86h5.523v24.653h-5.523v-2.958c-1.873 2.12-4.83 3.451-7.938 3.451-6.26 0-12.277-4.98-12.277-12.819 0-7.89 5.917-12.82 12.327-12.82Zm-42.355 16.715 4.536 2.613c-2.317 3.846-6.065 6.311-11.29 6.311-5.227 0-8.975-2.465-11.291-6.311l4.535-2.613c1.38 2.366 3.797 3.944 6.755 3.944 2.959 0 5.375-1.578 6.756-3.944Zm-54.729 0 4.536 2.613c-2.317 3.846-6.064 6.311-11.291 6.311s-8.974-2.465-11.291-6.311l4.536-2.613c1.38 2.366 3.797 3.944 6.755 3.944 2.958 0 5.375-1.578 6.755-3.944ZM5.522 0v14.003c1.824-2.022 4.783-3.353 7.89-3.353 6.41 0 12.326 4.93 12.326 12.82 0 7.839-6.016 12.819-12.278 12.819-3.106 0-6.064-1.331-7.938-3.451v2.958H0V0h5.522ZM114.34 11.143l6.312 17.159 6.311-17.159h5.917l-9.467 24.653h-5.522l-9.467-24.653h5.916Zm-44.473-.493c6.212 0 10.06 4.093 10.06 10.798v14.348h-5.623V21.892c0-3.895-1.972-6.361-5.719-6.361-3.353 0-6.015 2.564-6.015 6.706v13.559h-5.522V11.143h5.522v2.86c1.726-2.021 4.24-3.353 7.297-3.353Zm75.783 5.078c-4.19 0-7.445 3.353-7.445 7.692s3.254 7.741 7.445 7.741c4.34 0 7.494-3.451 7.494-7.741 0-4.24-3.155-7.692-7.494-7.692Zm-132.928 0c-4.339 0-7.495 3.452-7.495 7.692 0 4.29 3.156 7.741 7.495 7.741 4.191 0 7.445-3.402 7.445-7.741 0-4.339-3.254-7.692-7.445-7.692Zm83.13-5.078c7.197 0 12.818 5.67 12.818 12.918 0 .641-.049 1.282-.148 1.874H83.178a11.615 11.615 0 0 1-.148-1.874c0-7.248 5.621-12.918 12.82-12.918Zm-54.73 0c7.199 0 12.819 5.67 12.819 12.918 0 .641-.05 1.282-.148 1.874H28.45a11.502 11.502 0 0 1-.148-1.874c0-7.248 5.62-12.918 12.819-12.918Zm54.73 4.93c-3.354 0-6.066 2.17-7.1 5.08h14.2c-1.036-2.91-3.748-5.08-7.1-5.08Zm-54.73 0c-3.353 0-6.064 2.17-7.1 5.08h14.2c-1.035-2.91-3.747-5.08-7.1-5.08Z" fill="#4B009B" fill-rule="evenodd"/></svg>