<?xml version="1.0" encoding="UTF-8" standalone="no"?>
<svg
   xmlns:dc="http://purl.org/dc/elements/1.1/"
   xmlns:cc="http://creativecommons.org/ns#"
   xmlns:rdf="http://www.w3.org/1999/02/22-rdf-syntax-ns#"
   xmlns:svg="http://www.w3.org/2000/svg"
   xmlns="http://www.w3.org/2000/svg"
   xmlns:sodipodi="http://sodipodi.sourceforge.net/DTD/sodipodi-0.dtd"
   xmlns:inkscape="http://www.inkscape.org/namespaces/inkscape"
   id="Layer_1"
   data-name="Layer 1"
   viewBox="0 0 841.89 595.28"
   version="1.1"
   sodipodi:docname="4887-BlaYaks-Logotype-RGB-LOGO-POS-vART.svg"
   inkscape:version="0.92.4 (5da689c313, 2019-01-14)">
  <metadata
     id="metadata53">
    <rdf:RDF>
      <cc:Work
         rdf:about="">
        <dc:format>image/svg+xml</dc:format>
        <dc:type
           rdf:resource="http://purl.org/dc/dcmitype/StillImage" />
      </cc:Work>
    </rdf:RDF>
  </metadata>
  <sodipodi:namedview
     pagecolor="#ffffff"
     bordercolor="#666666"
     borderopacity="1"
     objecttolerance="10"
     gridtolerance="10"
     guidetolerance="10"
     inkscape:pageopacity="0"
     inkscape:pageshadow="2"
     inkscape:window-width="1600"
     inkscape:window-height="837"
     id="namedview51"
     showgrid="false"
     inkscape:zoom="1.3635985"
     inkscape:cx="429.28434"
     inkscape:cy="130.56896"
     inkscape:window-x="-8"
     inkscape:window-y="-8"
     inkscape:window-maximized="1"
     inkscape:current-layer="Layer_1" />
  <defs
     id="defs4">
    <style
       id="style2">.cls-1{fill:#ec6f2d;}.cls-2{fill:#1d1d1b;}</style>
  </defs>
  <path
     class="cls-1"
     d="M518.25,186.52H365.75V178.4h43.12a3.75,3.75,0,0,0,3.75-3.75V143.4a3.75,3.75,0,1,0-7.5,0v27.5H362a3.74,3.74,0,0,0-3.75,3.75v11.87H318.87V174.65a3.75,3.75,0,0,0-3.75-3.75H272V143.4a3.75,3.75,0,1,0-7.5,0v31.25a3.74,3.74,0,0,0,3.75,3.75h43.12v8.12H299.5a3.75,3.75,0,0,0,0,7.5h11.87v43.13a3.75,3.75,0,0,0,7.5,0V194H327v43.13a3.75,3.75,0,0,0,7.5,0V194h8.12v43.13a3.75,3.75,0,0,0,7.5,0V194h8.13v43.13a3.75,3.75,0,0,0,7.5,0V194H514.49l0,149.38a3.74,3.74,0,0,0,3.75,3.75h0A3.75,3.75,0,0,0,522,343.4l0-153.13a3.76,3.76,0,0,0-3.75-3.75Z"
     id="path6"
     inkscape:export-xdpi="1534.08"
     inkscape:export-ydpi="1534.08" />
  <path
     class="cls-1"
     d="M362,249a3.74,3.74,0,0,0-3.75,3.75v27.5H318.87v-27.5a3.75,3.75,0,1,0-7.5,0V284a3.75,3.75,0,0,0,3.75,3.75H362a3.75,3.75,0,0,0,3.75-3.75V252.77A3.75,3.75,0,0,0,362,249Z"
     id="path8"
     inkscape:export-xdpi="1534.08"
     inkscape:export-ydpi="1534.08" />
  <path
     class="cls-1"
     d="M377.62,202.15a3.75,3.75,0,0,0-3.75,3.75V346.52a3.75,3.75,0,0,0,7.5,0V205.9A3.75,3.75,0,0,0,377.62,202.15Z"
     id="path10"
     inkscape:export-xdpi="1534.08"
     inkscape:export-ydpi="1534.08" />
  <path
     class="cls-1"
     d="M361.87,295.9a3.75,3.75,0,0,0-3.75,3.75V330.9a3.75,3.75,0,0,0,7.5,0V299.65A3.75,3.75,0,0,0,361.87,295.9Z"
     id="path12"
     inkscape:export-xdpi="1534.08"
     inkscape:export-ydpi="1534.08" />
  <path
     class="cls-1"
     d="M393.25,280.27A3.74,3.74,0,0,0,389.5,284V330.9a3.75,3.75,0,0,0,7.5,0V284A3.75,3.75,0,0,0,393.25,280.27Z"
     id="path14"
     inkscape:export-xdpi="1534.08"
     inkscape:export-ydpi="1534.08" />
  <path
     class="cls-1"
     d="M408.87,280.27a3.75,3.75,0,0,0-3.75,3.75v31.25a3.75,3.75,0,0,0,7.5,0V284A3.75,3.75,0,0,0,408.87,280.27Z"
     id="path16"
     inkscape:export-xdpi="1534.08"
     inkscape:export-ydpi="1534.08" />
  <path
     class="cls-1"
     d="M424.5,295.9a3.74,3.74,0,0,0-3.75,3.75V330.9a3.75,3.75,0,0,0,7.5,0V299.65A3.75,3.75,0,0,0,424.5,295.9Z"
     id="path18"
     inkscape:export-xdpi="1534.08"
     inkscape:export-ydpi="1534.08" />
  <path
     class="cls-1"
     d="M440.12,280.27a3.75,3.75,0,0,0-3.75,3.75V330.9a3.75,3.75,0,0,0,7.5,0V284A3.75,3.75,0,0,0,440.12,280.27Z"
     id="path20"
     inkscape:export-xdpi="1534.08"
     inkscape:export-ydpi="1534.08" />
  <path
     class="cls-1"
     d="M455.75,295.9a3.74,3.74,0,0,0-3.75,3.75v15.62a3.75,3.75,0,0,0,7.5,0V299.65A3.75,3.75,0,0,0,455.75,295.9Z"
     id="path22"
     inkscape:export-xdpi="1534.08"
     inkscape:export-ydpi="1534.08" />
  <path
     class="cls-1"
     d="M471.37,280.27a3.75,3.75,0,0,0-3.75,3.75v31.25a3.75,3.75,0,0,0,7.5,0V284A3.75,3.75,0,0,0,471.37,280.27Z"
     id="path24"
     inkscape:export-xdpi="1534.08"
     inkscape:export-ydpi="1534.08" />
  <path
     class="cls-1"
     d="M487,295.9a3.74,3.74,0,0,0-3.75,3.75V330.9a3.75,3.75,0,0,0,7.5,0V299.65A3.75,3.75,0,0,0,487,295.9Z"
     id="path26"
     inkscape:export-xdpi="1534.08"
     inkscape:export-ydpi="1534.08" />
  <path
     class="cls-1"
     d="M502.62,280.27a3.75,3.75,0,0,0-3.75,3.75v31.25a3.75,3.75,0,0,0,7.5,0V284A3.75,3.75,0,0,0,502.62,280.27Z"
     id="path28"
     inkscape:export-xdpi="1534.08"
     inkscape:export-ydpi="1534.08" />
  <path
     class="cls-1"
     d="M533.87,186.52a3.75,3.75,0,0,0-3.75,3.75V268.4a3.75,3.75,0,0,0,7.5,0V190.27A3.75,3.75,0,0,0,533.87,186.52Z"
     id="path30"
     inkscape:export-xdpi="1534.08"
     inkscape:export-ydpi="1534.08" />
  <path
     class="cls-2"
     d="M265.85,407a4.59,4.59,0,0,1,4.65-4.65h18.9c6,0,10.73,1.65,13.73,4.65a11.79,11.79,0,0,1,3.52,8.7v.15c0,6.3-3.6,9.68-7.5,11.7,6.15,2.1,10.42,5.63,10.42,12.75v.15c0,9.38-7.72,14.4-19.42,14.4H270.5a4.58,4.58,0,0,1-4.65-4.65Zm21.68,17.48c5.92,0,9.89-2.33,9.89-7.13v-.15c0-4.12-3.29-6.67-9.22-6.67H274.93v13.95Zm2.7,22.2c6.3,0,10.12-2.48,10.12-7.2v-.15c0-4.43-3.52-7-10.8-7H274.93v14.4Z"
     id="path32"
     inkscape:export-xdpi="1534.08"
     inkscape:export-ydpi="1534.08" />
  <path
     class="cls-2"
     d="M315.72,404.18a4.46,4.46,0,0,1,4.5-4.5,4.53,4.53,0,0,1,4.58,4.5v46.5a4.54,4.54,0,0,1-9.08,0Z"
     id="path34"
     inkscape:export-xdpi="1534.08"
     inkscape:export-ydpi="1534.08" />
  <path
     class="cls-2"
     d="M330.28,443.4v-.15c0-8.55,6.67-12.75,16.34-12.75a33.17,33.17,0,0,1,10.65,1.65v-1c0-5.63-3.45-8.63-9.82-8.63a23.46,23.46,0,0,0-8.78,1.58,5,5,0,0,1-1.42.22,3.78,3.78,0,0,1-3.83-3.75,4,4,0,0,1,2.48-3.6,34,34,0,0,1,12.75-2.32c5.92,0,10.35,1.57,13.12,4.42,2.93,2.85,4.28,7,4.28,12.23v19.5a4.33,4.33,0,0,1-4.43,4.35c-2.62,0-4.42-1.8-4.42-3.83v-1.5a16.09,16.09,0,0,1-12.9,5.78C336.88,455.63,330.28,451.35,330.28,443.4Zm27.14-2.85v-2.7a25.15,25.15,0,0,0-9-1.57c-5.85,0-9.29,2.47-9.29,6.6V443c0,3.82,3.37,6,7.72,6C352.85,449,357.42,445.58,357.42,440.55Z"
     id="path36"
     inkscape:export-xdpi="1534.08"
     inkscape:export-ydpi="1534.08" />
  <path
     class="cls-2"
     d="M373.17,404.18a4.46,4.46,0,0,1,4.5-4.5,4.53,4.53,0,0,1,4.58,4.5v29.25l17-16.73a5.34,5.34,0,0,1,3.9-1.95,4,4,0,0,1,4,4.13,5.13,5.13,0,0,1-2,3.82l-10.5,9.68,12,15.67a4.8,4.8,0,0,1,1.2,3,4.1,4.1,0,0,1-4.27,4.13,4.51,4.51,0,0,1-4-2l-11.32-15.07-6,5.7v6.9a4.54,4.54,0,0,1-9.08,0Z"
     id="path38"
     inkscape:export-xdpi="1534.08"
     inkscape:export-ydpi="1534.08" />
  <path
     class="cls-2"
     d="M428.75,434.4l-18.08-24.82a5.71,5.71,0,0,1-1.05-3.23,4.49,4.49,0,0,1,4.65-4.42c2,0,3.38,1.12,4.5,2.77l14.63,21.08,14.85-21.15c1.12-1.65,2.47-2.78,4.42-2.78a4.38,4.38,0,0,1,4.5,4.5,5.61,5.61,0,0,1-1.27,3.3L438,434.18V450.6a4.61,4.61,0,0,1-9.22,0Z"
     id="path40"
     inkscape:export-xdpi="1534.08"
     inkscape:export-ydpi="1534.08" />
  <path
     class="cls-2"
     d="M451.25,443.4v-.15c0-8.55,6.67-12.75,16.35-12.75a33.27,33.27,0,0,1,10.65,1.65v-1c0-5.63-3.45-8.63-9.83-8.63a23.37,23.37,0,0,0-8.77,1.58,5.14,5.14,0,0,1-1.43.22,3.77,3.77,0,0,1-3.82-3.75,4,4,0,0,1,2.47-3.6,34.07,34.07,0,0,1,12.75-2.32c5.93,0,10.35,1.57,13.13,4.42s4.27,7,4.27,12.23v19.5a4.33,4.33,0,0,1-4.42,4.35c-2.63,0-4.43-1.8-4.43-3.83v-1.5a16.07,16.07,0,0,1-12.9,5.78C457.85,455.63,451.25,451.35,451.25,443.4Zm27.15-2.85v-2.7a25.19,25.19,0,0,0-9-1.57c-5.85,0-9.3,2.47-9.3,6.6V443c0,3.82,3.37,6,7.72,6C473.82,449,478.4,445.58,478.4,440.55Z"
     id="path42"
     inkscape:export-xdpi="1534.08"
     inkscape:export-ydpi="1534.08" />
  <path
     class="cls-2"
     d="M494.15,404.18a4.46,4.46,0,0,1,4.5-4.5,4.52,4.52,0,0,1,4.57,4.5v29.25l17-16.73a5.33,5.33,0,0,1,3.9-1.95,4,4,0,0,1,4,4.13,5.15,5.15,0,0,1-2,3.82l-10.5,9.68,12,15.67a4.86,4.86,0,0,1,1.2,3,4.1,4.1,0,0,1-4.28,4.13,4.48,4.48,0,0,1-4-2l-11.33-15.07-6,5.7v6.9a4.54,4.54,0,0,1-9.07,0Z"
     id="path44"
     inkscape:export-xdpi="1534.08"
     inkscape:export-ydpi="1534.08" />
  <path
     class="cls-2"
     d="M532.4,450.83a3.48,3.48,0,0,1-1.73-3.15,3.64,3.64,0,0,1,3.68-3.68,4,4,0,0,1,1.95.53,20.88,20.88,0,0,0,11.4,3.82c3.9,0,6.15-1.65,6.15-4.27v-.15c0-3.08-4.2-4.13-8.85-5.55-5.85-1.65-12.38-4.05-12.38-11.63v-.15c0-7.5,6.23-12.07,14.1-12.07a27.29,27.29,0,0,1,12.45,3.22,3.85,3.85,0,0,1,2.17,3.45,3.65,3.65,0,0,1-3.75,3.68,3.59,3.59,0,0,1-1.8-.45,21.56,21.56,0,0,0-9.29-2.7c-3.53,0-5.55,1.65-5.55,3.9v.15c0,2.92,4.27,4.12,8.92,5.62,5.78,1.8,12.3,4.43,12.3,11.55v.15c0,8.33-6.45,12.45-14.7,12.45A27,27,0,0,1,532.4,450.83Z"
     id="path46"
     inkscape:export-xdpi="1534.08"
     inkscape:export-ydpi="1534.08" />
  <path
     class="cls-1"
     d="M572.15,444.08a5.11,5.11,0,0,1,5.24,5.17V450a5.29,5.29,0,0,1-10.57,0v-.75A5.13,5.13,0,0,1,572.15,444.08Z"
     id="path48"
     inkscape:export-xdpi="1534.08"
     inkscape:export-ydpi="1534.08" />
</svg>
