<?xml version="1.0" standalone="no"?>
<!DOCTYPE svg PUBLIC "-//W3C//DTD SVG 20010904//EN"
 "http://www.w3.org/TR/2001/REC-SVG-20010904/DTD/svg10.dtd">
<svg version="1.0" xmlns="http://www.w3.org/2000/svg"
 width="348.000000pt" height="90.000000pt" viewBox="0 0 348.000000 90.000000"
 preserveAspectRatio="xMidYMid meet">

<g transform="translate(0.000000,90.000000) scale(0.100000,-0.100000)"
fill="#000000" stroke="none">
<path d="M579 656 c-59 -21 -96 -53 -123 -108 -35 -70 -34 -128 2 -199 64
-127 223 -159 328 -66 104 90 103 249 -1 335 -61 49 -135 63 -206 38z m142
-132 c71 -68 22 -184 -80 -184 -45 0 -101 55 -101 99 0 103 109 154 181 85z"/>
<path d="M1523 659 c-18 -5 -33 -12 -33 -14 0 -3 46 -5 103 -4 97 0 100 1 67
14 -41 16 -92 17 -137 4z"/>
<path d="M2280 656 c-33 -14 -30 -14 70 -15 78 0 100 2 87 10 -30 17 -119 20
-157 5z"/>
<path d="M22 448 l3 -213 130 0 c111 0 134 3 158 19 54 37 73 111 42 169 -13
25 -13 31 2 53 27 41 13 111 -31 151 l-36 33 -135 0 -135 0 2 -212z m226 110
c18 -18 14 -46 -7 -58 -20 -10 -94 -14 -102 -5 -3 2 -3 20 -1 40 4 34 5 35 51
35 26 0 52 -5 59 -12z m8 -184 c9 -36 -8 -48 -69 -49 l-52 0 -3 38 -3 37 60 0
c57 0 61 -2 67 -26z"/>
<path d="M920 445 l0 -215 55 0 55 0 0 115 c0 63 3 115 8 115 4 -1 43 -52 86
-115 l80 -115 53 0 53 0 0 215 0 215 -55 0 -55 0 0 -117 0 -116 -81 116 -82
117 -58 0 -59 0 0 -215z"/>
<path d="M1800 650 c0 -5 25 -10 55 -10 30 0 55 5 55 10 0 6 -25 10 -55 10
-30 0 -55 -4 -55 -10z"/>
<path d="M2630 650 c0 -5 25 -10 55 -10 30 0 55 5 55 10 0 6 -25 10 -55 10
-30 0 -55 -4 -55 -10z"/>
<path d="M2910 650 c0 -5 25 -10 55 -10 30 0 55 5 55 10 0 6 -25 10 -55 10
-30 0 -55 -4 -55 -10z"/>
<path d="M3070 650 c0 -6 49 -10 128 -9 80 0 120 4 107 9 -29 12 -235 12 -235
0z"/>
<path d="M1430 605 c-12 -14 3 -15 146 -13 203 4 211 22 10 26 -119 2 -145 0
-156 -13z"/>
<path d="M1800 605 c0 -12 13 -15 55 -15 42 0 55 3 55 15 0 12 -13 15 -55 15
-42 0 -55 -3 -55 -15z"/>
<path d="M2200 605 c-11 -13 7 -15 156 -15 150 0 166 2 148 15 -28 21 -286 22
-304 0z"/>
<path d="M2630 605 c0 -12 13 -15 55 -15 42 0 55 3 55 15 0 12 -13 15 -55 15
-42 0 -55 -3 -55 -15z"/>
<path d="M2910 605 c0 -12 13 -15 55 -15 42 0 55 3 55 15 0 12 -13 15 -55 15
-42 0 -55 -3 -55 -15z"/>
<path d="M3070 605 c0 -13 25 -15 161 -15 142 0 160 2 149 15 -10 12 -41 15
-161 15 -126 0 -149 -2 -149 -15z"/>
<path d="M1396 554 c-5 -14 4 -15 81 -10 128 9 153 9 169 -5 12 -10 19 -8 37
9 l21 22 -151 0 c-129 0 -152 -2 -157 -16z"/>
<path d="M1800 555 c0 -12 13 -15 55 -15 42 0 55 3 55 15 0 12 -13 15 -55 15
-42 0 -55 -3 -55 -15z"/>
<path d="M2159 554 c-13 -15 -6 -16 81 -10 111 8 109 8 225 0 81 -6 88 -5 76
10 -20 24 -362 24 -382 0z"/>
<path d="M2630 556 c0 -13 12 -16 56 -16 73 0 70 24 -4 28 -42 2 -52 0 -52
-12z"/>
<path d="M2910 556 c0 -13 12 -16 56 -16 73 0 70 24 -4 28 -42 2 -52 0 -52
-12z"/>
<path d="M3077 563 c-17 -16 -3 -23 48 -23 42 0 55 3 55 15 0 11 -12 15 -48
15 -27 0 -52 -3 -55 -7z"/>
<path d="M3294 555 c25 -19 130 -21 124 -2 -3 8 -29 13 -74 14 -63 3 -67 2
-50 -12z"/>
<path d="M1377 506 c-8 -21 2 -26 53 -26 42 0 70 13 70 32 0 15 -117 9 -123
-6z"/>
<path d="M1800 500 c0 -19 5 -21 53 -18 38 2 52 7 52 18 0 11 -14 16 -52 18
-48 3 -53 1 -53 -18z"/>
<path d="M2147 513 c-4 -3 -7 -12 -7 -20 0 -20 106 -18 114 3 3 9 6 18 6 20 0
7 -106 4 -113 -3z"/>
<path d="M2440 512 c0 -19 28 -32 70 -32 51 0 61 5 53 26 -6 15 -123 21 -123
6z"/>
<path d="M2630 500 c0 -19 5 -21 53 -18 38 2 52 7 52 18 0 11 -14 16 -52 18
-48 3 -53 1 -53 -18z"/>
<path d="M2910 500 c0 -19 5 -21 53 -18 38 2 52 7 52 18 0 11 -14 16 -52 18
-48 3 -53 1 -53 -18z"/>
<path d="M3075 510 c-12 -20 7 -30 56 -30 42 0 49 3 49 20 0 17 -7 20 -49 20
-28 0 -53 -4 -56 -10z"/>
<path d="M3344 505 c3 -9 6 -19 6 -21 0 -2 21 -4 46 -4 38 0 45 3 42 18 -2 13
-15 18 -52 20 -42 3 -48 1 -42 -13z"/>
<path d="M1370 445 c0 -12 13 -15 55 -15 42 0 55 3 55 15 0 12 -13 15 -55 15
-42 0 -55 -3 -55 -15z"/>
<path d="M1800 445 c0 -12 13 -15 55 -15 42 0 55 3 55 15 0 12 -13 15 -55 15
-42 0 -55 -3 -55 -15z"/>
<path d="M2132 448 c3 -8 26 -14 56 -16 42 -2 52 0 52 12 0 13 -12 16 -56 16
-40 0 -55 -4 -52 -12z"/>
<path d="M2460 445 c0 -12 13 -15 55 -15 42 0 55 3 55 15 0 12 -13 15 -55 15
-42 0 -55 -3 -55 -15z"/>
<path d="M2630 444 c0 -12 10 -14 52 -12 74 4 77 28 4 28 -44 0 -56 -3 -56
-16z"/>
<path d="M2910 444 c0 -12 10 -14 52 -12 74 4 77 28 4 28 -44 0 -56 -3 -56
-16z"/>
<path d="M3072 448 c3 -8 26 -14 56 -16 42 -2 52 0 52 12 0 13 -12 16 -56 16
-40 0 -55 -4 -52 -12z"/>
<path d="M3353 448 c2 -8 21 -13 47 -13 26 0 45 5 48 13 2 8 -11 12 -48 12
-37 0 -50 -4 -47 -12z"/>
<path d="M1376 395 c5 -11 22 -15 65 -15 48 0 57 3 53 15 -5 11 -22 15 -65 15
-48 0 -57 -3 -53 -15z"/>
<path d="M1800 395 c0 -12 13 -15 55 -15 42 0 55 3 55 15 0 12 -13 15 -55 15
-42 0 -55 -3 -55 -15z"/>
<path d="M2140 395 c0 -12 13 -15 61 -15 81 0 77 24 -4 28 -46 2 -57 0 -57
-13z"/>
<path d="M2447 403 c-17 -16 -3 -23 52 -23 43 0 60 4 65 15 4 12 -5 15 -53 15
-32 0 -61 -3 -64 -7z"/>
<path d="M2630 395 c0 -12 13 -15 60 -15 49 0 58 3 54 15 -5 11 -21 15 -60 15
-41 0 -54 -4 -54 -15z"/>
<path d="M2896 395 c-4 -12 5 -15 53 -15 43 0 60 4 65 15 4 12 -5 15 -53 15
-43 0 -60 -4 -65 -15z"/>
<path d="M3070 395 c0 -12 13 -15 55 -15 42 0 55 3 55 15 0 12 -13 15 -55 15
-42 0 -55 -3 -55 -15z"/>
<path d="M3347 403 c-17 -16 -3 -23 43 -23 38 0 50 4 50 15 0 11 -11 15 -43
15 -24 0 -47 -3 -50 -7z"/>
<path d="M1633 352 c-28 -13 -40 -14 -85 -3 -67 16 -161 12 -149 -7 6 -9 44
-12 155 -10 138 3 147 4 130 19 -17 15 -22 15 -51 1z"/>
<path d="M1800 345 c0 -12 13 -15 55 -15 42 0 55 3 55 15 0 12 -13 15 -55 15
-42 0 -55 -3 -55 -15z"/>
<path d="M2159 346 c11 -14 42 -16 196 -16 159 0 184 2 189 16 5 14 -3 15 -76
10 -97 -8 -125 -8 -237 0 -77 5 -84 4 -72 -10z"/>
<path d="M2646 346 c6 -15 26 -16 177 -14 133 2 171 6 175 17 4 11 -11 12 -79
7 -108 -7 -91 -7 -192 0 -79 6 -87 5 -81 -10z"/>
<path d="M3070 345 c0 -12 13 -15 55 -15 42 0 55 3 55 15 0 12 -13 15 -55 15
-42 0 -55 -3 -55 -15z"/>
<path d="M3296 345 c-18 -14 -14 -15 46 -15 46 0 69 4 78 15 11 13 5 15 -46
15 -36 -1 -67 -6 -78 -15z"/>
<path d="M1430 295 c11 -13 37 -15 156 -13 201 4 193 22 -10 26 -143 2 -158 1
-146 -13z"/>
<path d="M1800 295 c0 -13 23 -15 150 -15 127 0 150 2 150 15 0 13 -23 15
-150 15 -127 0 -150 -2 -150 -15z"/>
<path d="M2190 301 c0 -17 32 -21 170 -21 110 0 140 3 150 15 11 13 -7 15
-154 15 -91 0 -166 -4 -166 -9z"/>
<path d="M2680 295 c10 -12 39 -15 140 -15 101 0 130 3 140 15 11 13 -6 15
-140 15 -134 0 -151 -2 -140 -15z"/>
<path d="M3070 295 c0 -13 23 -15 149 -15 120 0 151 3 161 15 11 13 -7 15
-149 15 -136 0 -161 -2 -161 -15z"/>
<path d="M1498 248 c19 -19 122 -22 162 -5 34 15 33 15 -69 16 -81 1 -102 -2
-93 -11z"/>
<path d="M1800 245 c0 -13 23 -15 150 -15 127 0 150 2 150 15 0 13 -23 15
-150 15 -127 0 -150 -2 -150 -15z"/>
<path d="M2280 243 c40 -17 143 -14 162 5 9 9 -12 12 -92 11 -103 -1 -104 -1
-70 -16z"/>
<path d="M2745 248 c26 -16 124 -16 150 0 16 9 3 11 -75 11 -78 0 -91 -2 -75
-11z"/>
<path d="M3070 244 c0 -15 14 -16 115 -12 70 3 120 9 127 16 9 9 -17 12 -115
12 -111 0 -127 -2 -127 -16z"/>
</g>
</svg>
