<?xml version="1.0" encoding="UTF-8"?>
<svg id="Full_Color" data-name="Full Color" xmlns="http://www.w3.org/2000/svg" viewBox="0 0 1616.77 711.41">
  <defs>
    <style>
      .cls-1 {
        fill: #0c2541;
      }

      .cls-2 {
        fill: #f26200;
      }
    </style>
  </defs>
  <g id="primary_logo_braingu_lt-bg">
    <g id="Word_Mark" data-name="Word Mark">
      <path class="cls-1" d="M627.94,387.49v3.89c0,27.87-12.32,39.33-42.35,39.33h-71.09v-151.9h66.34c30.04,0,42.35,11.45,42.35,39.33v2.59c0,16.42-4.97,25.5-17.72,31.12,16.21,4.75,22.47,15.34,22.47,35.65ZM578.03,290.26h-50.56v57.04h50.56c25.07,0,32.2-5.83,32.2-26.15v-1.51c0-22.04-8.21-29.39-32.2-29.39ZM614.97,387.49c0-22.04-7.78-28.96-32.2-28.96h-55.32v60.72h55.32c23.98,0,32.2-7.35,32.2-29.39v-2.38Z"/>
      <path class="cls-1" d="M767.69,339.09v1.51l-12.53,1.3v-1.3c0-15.99-8-23.12-25.28-23.12h-6.05c-17.5,0-25.28,7.35-25.28,23.55v79.08h47.97v10.59h-94.21v-10.59h33.71v-88.81l-.65-11.67h-33.06v-10.59h43.43l1.3,12.96c4.54-10.16,13.4-15.13,28.52-15.13h7.78c22.9,0,34.36,10.8,34.36,32.2Z"/>
      <path class="cls-1" d="M885.15,430.71l-1.08-11.67c-4.75,9.29-14.04,13.83-28.74,13.83h-29.39c-22.69,0-34.14-10.8-34.14-32.2v-7.56c0-21.39,11.02-31.76,34.14-31.76h50.78c2.38,0,4.32.22,5.62.65v-20.96c0-16.42-7.56-23.55-25.28-23.55h-25.93c-17.29,0-25.28,7.13-25.28,23.12v1.3l-12.32-1.3c-.22-.43-.22-.65-.22-1.51,0-21.39,11.45-32.2,34.36-32.2h33.06c22.69,0,34.14,10.8,34.14,32.2v69.36l1.51,22.26h-11.24ZM882.34,398.94v-26.58c-1.08-.22-2.81-.43-4.75-.43h-48.19c-17.5,0-25.28,7.13-25.28,23.34v3.67c0,16.21,7.78,23.34,25.28,23.34h27.66c17.72,0,25.28-7.13,25.28-23.34Z"/>
      <path class="cls-1" d="M1010.44,420.12v10.59h-79.95v-10.59h33.71v-100.48h-33.71v-10.59h46.24v111.07h33.71ZM956.64,270.16v-1.94c0-5.62,2.59-7.35,9.94-7.35h.22c7.56,0,9.94,1.73,9.94,7.35v1.94c0,5.62-2.38,7.35-9.94,7.35h-.22c-7.35,0-9.94-1.73-9.94-7.35Z"/>
      <path class="cls-1" d="M1132.44,339.09v91.62h-12.53v-89.67c0-16.21-7.56-23.55-25.07-23.55h-20.96c-17.72,0-25.28,7.35-25.28,23.55v89.67h-12.53v-99.4l-1.51-22.26h11.24l1.08,12.1c4.54-9.51,13.4-14.26,28.52-14.26h22.9c22.69,0,34.14,10.8,34.14,32.2Z"/>
      <path class="cls-2" d="M1262.05,319.43v-1.51c0-14.26-5.19-19.23-21.18-19.23h-25.93c-15.99,0-21.39,4.97-21.39,19.66v71.74c0,14.69,5.4,19.66,21.39,19.66h25.93c15.99,0,21.18-4.97,21.18-19.45v-20.53h-41.27v-23.12h68.28v47.75c0,26.15-12.75,38.46-40.62,38.46h-41.06c-27.87,0-40.84-12.32-40.84-38.68v-79.95c0-26.58,12.96-38.89,40.84-38.89h41.06c27.87,0,40.62,12.32,40.62,38.46v2.38l-27.01,3.24Z"/>
      <path class="cls-2" d="M1407.66,430.71l-1.95-10.8c-4.54,8.86-11.88,12.96-26.79,12.96h-21.18c-23.34,0-34.57-10.37-34.57-32.63v-92.48h25.71l.22,88.16c0,11.67,4.75,16.21,17.07,16.21h19.01c12.32,0,17.29-4.54,17.29-16.21v-88.16h25.71v99.83l1.51,23.12h-22.04Z"/>
    </g>
    <path id="Brain" class="cls-2" d="M375.43,243.33c0-.92.21-1.78.52-2.59l-8.02-7.92-18.32-.11c-1.02,2.7-3.58,4.64-6.64,4.64-3.94,0-7.14-3.2-7.14-7.14s3.2-7.14,7.14-7.14c2.68,0,4.93,1.54,6.15,3.73l21.25.12,9.86,9.74c.74-.26,1.51-.47,2.34-.47,3.94,0,7.14,3.2,7.14,7.14s-3.2,7.14-7.14,7.14-7.14-3.2-7.14-7.14ZM344.22,300.02c-3.94,0-7.14,3.2-7.14,7.14s3.2,7.14,7.14,7.14c1.15,0,2.19-.33,3.15-.81l13.69,13.7h29.42c1.28,1.9,3.35,3.23,5.82,3.23,3.94,0,7.14-3.2,7.14-7.14s-3.2-7.14-7.14-7.14c-3.23,0-5.86,2.19-6.74,5.14h-26.06l-12.47-12.47-.02.02c.13-.54.33-1.07.33-1.65,0-3.94-3.2-7.14-7.14-7.14ZM336.06,490.57c0,3.94,3.2,7.14,7.14,7.14s7.14-3.2,7.14-7.14c0-2.91-1.75-5.39-4.25-6.5v-27.8c2.33-1.18,3.97-3.53,3.97-6.31,0-3.94-3.2-7.14-7.14-7.14s-7.14,3.2-7.14,7.14c0,2.97,1.82,5.51,4.4,6.59v27.62c-2.42,1.14-4.12,3.56-4.12,6.42ZM443.56,411.14c-3.94,0-7.14,3.2-7.14,7.14,0,2.67,1.52,4.9,3.69,6.13l.03,18.54-34.06,39.46c-.87-.37-1.82-.59-2.82-.59-3.94,0-7.14,3.2-7.14,7.14s3.2,7.14,7.14,7.14,7.14-3.2,7.14-7.14c0-.72-.21-1.38-.41-2.03l36.07-41.53-.03-20.47c2.72-1.01,4.68-3.57,4.68-6.64,0-3.94-3.2-7.14-7.14-7.14ZM354.4,348.02l-14.7,13.78v22.29c-2.4,1.15-4.09,3.56-4.09,6.4,0,3.94,3.2,7.14,7.14,7.14s7.14-3.2,7.14-7.14c0-2.92-1.77-5.42-4.28-6.52v-19.61l11.13-10.43,89.25-.12v33.97h-52.93l.11,23.51c-1.88,1.29-3.19,3.34-3.19,5.79,0,3.94,3.2,7.14,7.14,7.14s7.14-3.2,7.14-7.14c0-3.25-2.22-5.88-5.19-6.75l-.08-16.64h52.9v-45.8l-97.5.13ZM315.41,590.3c-4.97,0-9,4.03-9,9s4.03,9,9,9,9-4.03,9-9-4.03-9-9-9ZM441.6,296.69c0,3.94-3.2,7.14-7.14,7.14-2.93,0-5.43-1.77-6.53-4.29l-44.75-.09-26.73-27.17-32.02.1v-5.88c-4.59-.29-7.41-1.32-9.76-2.65-1.07-.6-2.03-1.25-3.03-1.93-3.57-2.43-7.62-5.19-16.33-5.22h-.03c-1.85,0-3.63.26-5.29.73-.29.05-.55.13-.81.23-3.7,1.17-6.94,3.37-9.73,5.95l-1.02,1.02c-.08.1-.21.23-.31.34-.99,1.02-1.9,2.09-2.77,3.16-2.43,3.05-6.05,5.06-9.94,4.9-.6-.03-1.2-.08-1.8-.16-3.08-.5-5.66-1.77-7.64-3.86-3.78-3.96-4.9-10.36-2.84-16.3,2.4-6.83,8.35-11.4,16.33-12.49,12.23-1.7,20.03-6.08,23.16-13.04.42-.94.73-1.9.97-2.84,2.32-9.31-3.81-18.7-4.1-19.15-.89-1.33-2.71-1.7-4.07-.81-.63.42-1.04,1.02-1.2,1.7l-.03.03c-.1.39-.1.81-.03,1.2v.03c.05.39.21.78.44,1.12.05.05,3.39,5.3,3.6,10.93.1,1.83-.16,3.68-.94,5.4-2.24,4.98-8.53,8.24-18.62,9.62-10.09,1.38-17.95,7.51-21.05,16.38-2.79,8.01-1.17,16.75,4.12,22.3,2.37,2.48,7.04,5.87,14.71,5.87.76,0,1.54-.03,2.37-.1.08,0,.18,0,.29-.03h.16s-.47.83-.99,1.77c-.08.13-.16.26-.21.39-.29.47-.55.94-.73,1.3-.03.03-.03.05-.03.05-.57,1.12-1.12,2.24-1.67,3.34-.31.65-.63,1.28-.94,1.88-.26.52-.52.99-.76,1.46-3.16,5.95-5.87,9.39-11.48,10.07-13.22,1.64-20.87-17.03-20.95-17.22-.6-1.49-2.32-2.24-3.83-1.64-1.49.6-2.22,2.32-1.62,3.81.34.91,8.55,21.02,24.65,21.02.81,0,1.64-.05,2.48-.16,9.31-1.15,13.2-7.67,16.85-14.92.05-.05.08-.13.1-.21.81-1.46,1.62-3.08,2.45-4.77,2.82-5.71,6.23-12.7,11.11-17.35.31-.31.65-.6.99-.89.73-.63,1.51-1.2,2.32-1.7.29-.18.57-.34.86-.5,1.02-.57,2.09-1.04,3.21-1.36,1.33-.42,2.74-.65,4.2-.65h.03c6.89.03,9.73,1.96,13.02,4.2,1.2.81,2.43,1.64,3.89,2.43.03.03.05.05.1.05,2.84,1.54,6.49,2.82,12.1,3.13v141.12l47.83-.08-.17,46.73,22.34-.16,16.83-20.47c-.58-1.04-1.01-2.17-1.01-3.44,0-3.94,3.2-7.14,7.14-7.14s7.14,3.2,7.14,7.14-3.2,7.14-7.14,7.14c-.48,0-.9-.18-1.36-.27l-19.16,22.94-30.69.21.17-46.77-41.92.08v98l44.3.09,7.13-5.06c-.02-.21-.13-.4-.13-.62,0-3.94,3.2-7.14,7.14-7.14s7.14,3.2,7.14,7.14-3.2,7.14-7.14,7.14c-1.53,0-2.86-.58-4.02-1.4l-8.24,5.85-46.18-.09-.1,46.16c-.01,5.02-3.9,9.09-8.67,9.08h-.63c-4.77-.01-8.64-4.1-8.63-9.12l.12-33.67c0-3.79-2.92-6.88-6.52-6.89h-.63c-2.9,0-6.02,2.15-6.39,6.29v3.55c-.01.71-.07,1.33-.2,1.95-.83,4.17-4.37,7.19-8.43,7.18h-.62c-4.74-.01-8.59-4.07-8.58-9.06l.02-10.98c0-3.76-2.89-6.82-6.46-6.82h-.63c-3.57,0-6.48,3.04-6.49,6.8l-.07,22.44c-.01,4.98-3.87,9.02-8.61,9.01h-.63c-4.74-.01-8.58-4.07-8.57-9.05,0,0,.05-23.09.1-48.29-8.56-4.42-17.39-13.35-18.63-31.31-14.85-11.43-34.37-38.96-20.19-79.35-24.76-22.61-23.79-76,2.5-98.08-8.09-27.99,9.32-56.37,31.22-59.68,2.43-35.98,35.19-35.76,35.71-35.71l.08-.16c4.19-5.94,12.52-10.43,23.85-10.43s21.19,4.36,24.62,12.17l12.84-12.17h37.14l57.52,55.36.06,8.5c2.2,1.22,3.75,3.47,3.75,6.17,0,3.94-3.2,7.14-7.14,7.14s-7.14-3.2-7.14-7.14c0-2.95,1.79-5.48,4.35-6.57l-.04-5.64-53.93-51.91h-32.03l-13.92,13.19v60.23s34.34-.14,34.34-.14l26.74,27.18,42.57.09c1.15-2.39,3.55-4.08,6.39-4.08,3.94,0,7.14,3.2,7.14,7.14ZM306.61,408.88c-17.58-8.14-26.27,2.06-29.19,6.81-4.77,7.77-5.06,14.95-.89,20.76.6.81,1.41,1.8,2.37,2.95,1.41,1.72,3.16,3.83,4.67,6.05,2.43,3.57,2.48,8.06.44,11.66-.63,1.17-1.51,2.27-2.61,3.18-.23.21-.5.39-.76.57-3.26,2.32-7.41,3-11.29,1.8-4.07-1.28-7.04-4.33-8.14-8.37l-.08-.31c-8.32-31.61-33-25.82-33.26-25.74-1.57.39-2.5,1.96-2.11,3.52.39,1.59,1.96,2.5,3.55,2.16.78-.18,19.33-4.33,26.14,21.52l.1.42c1.62,5.92,6.13,10.56,12.05,12.42,1.85.57,3.76.86,5.63.86.52,0,1.02-.03,1.54-.08-3.44,6.08-4.33,11.56-2.63,16.33,4.09,11.63,21.73,13.96,22.46,14.06.13,0,.26.03.37.03,1.46,0,2.74-1.1,2.92-2.58.21-1.62-.94-3.08-2.56-3.29-4.1-.5-15.26-3.31-17.66-10.17-1.59-4.59-.23-11.82,6.99-18.23.21-.18.37-.31.47-.42,6.91-5.53,8.19-15.36,3.29-22.61-1.64-2.45-3.5-4.7-5.01-6.49-.83-1.04-1.59-1.93-2.11-2.66-2.74-3.78-2.37-8.58,1.12-14.24,3.18-5.19,9.52-10.17,21.7-4.56,9.7,4.5,15.25,5.15,20.29,5.21v-5.91c-4.65-.06-9.24-.64-17.82-4.62ZM221.94,328.46c-1.7-.1-3.03,1.12-3.13,2.74-.1,1.62,1.12,3,2.74,3.13.1,0,11.61.91,14.92,8.11,2.53,5.53-.31,14.06-8.22,24.68-11.56,15.52-7.25,25.51-3.68,30.1,4.96,6.31,13.41,9.26,21.21,9.26,3.6,0,7.07-.63,9.99-1.85,12.23-5.14,16.09-15.05,12.83-33.15-1.85-10.43.39-18.21,6.31-21.94,5.63-3.5,14.27-2.95,20.11,1.33,2.58,1.88,3.91,4.54,3.91,7.9.05,5.56-3.52,12-8.87,15.99-1.3.96-1.56,2.82-.6,4.1.97,1.3,2.82,1.57,4.1.6,6.89-5.14,11.29-13.28,11.24-20.74-.03-5.17-2.27-9.65-6.31-12.6-1.15-.83-2.35-1.56-3.63-2.14,7.25-2.79,12.42-7.23,11.37-15.15-1.96-14.89-19.33-18.91-20.08-19.07-1.56-.34-3.13.65-3.47,2.24-.37,1.57.63,3.13,2.22,3.5.13.03,14.09,3.29,15.52,14.09.52,3.94-.29,9.89-18.94,11.87-3.42.36-8.11,1.9-10.1,3.44-4.36,3.42-11.69,10.15-8.56,27.62,3.16,17.63-1.23,23.29-9.36,26.71-7.04,2.95-18.94,1.17-24.28-5.63-4.46-5.71-3.16-13.64,3.78-22.95,9.39-12.62,12.36-22.95,8.82-30.68-4.77-10.36-19.22-11.45-19.85-11.5Z"/>
  </g>
</svg>