<?xml version="1.0" encoding="UTF-8"?>
<svg width="519px" height="100px" viewBox="0 0 519 100" version="1.1" xmlns="http://www.w3.org/2000/svg" xmlns:xlink="http://www.w3.org/1999/xlink">
    <!-- Generator: Sketch 55.2 (78181) - https://sketchapp.com -->
    <title>Group 29</title>
    <desc>Created with Sketch.</desc>
    <defs>
        <polygon id="path-1" points="0.0005 0.664 55.4845 0.664 55.4845 77.408 0.0005 77.408"></polygon>
        <polygon id="path-3" points="0.4662 0.0212 56.1517592 0.0212 56.1517592 78 0.4662 78"></polygon>
        <polygon id="path-5" points="1 0.5 1.5 0.5 1.5 1 1 1"></polygon>
    </defs>
    <g id="Page-1" stroke="none" stroke-width="1" fill="none" fill-rule="evenodd">
        <g id="Group-29" transform="translate(-1.000000, -1.000000)">
            <g id="Group-5" transform="translate(62.000000, 21.336300)">
                <path d="M300.0055,6.4782 L300.0055,6.4782 C295.2655,10.7492 292.7605,17.0062 292.7605,24.5702 L292.7605,56.7272 L305.2645,56.7272 L305.2645,24.5702 C305.2645,20.6122 306.3005,17.6532 308.3425,15.7752 C310.5885,13.7112 315.1525,12.8572 319.7915,13.2532 L326.7125,1.4572 L319.7275,1.0272 C311.6985,0.1972 304.8795,2.0832 300.0055,6.4782" id="Fill-1" fill="#662EFF"></path>
                <path d="M7.4706,6.4782 L7.4706,6.4782 C2.7306,10.7492 0.2256,17.0062 0.2256,24.5702 L0.2256,56.7272 L12.7296,56.7272 L12.7296,24.5702 C12.7296,20.6122 13.7656,17.6532 15.8076,15.7752 C18.0536,13.7112 22.6176,12.8572 27.2556,13.2532 L34.1776,1.4572 L27.1926,1.0272 C19.1636,0.1972 12.3446,2.0832 7.4706,6.4782" id="Fill-3" fill="#052882"></path>
            </g>
            <polygon id="Fill-6" fill="#052882" points="100.867 78.0633 113.37 78.0633 113.37 23.2253 100.867 23.2253"></polygon>
            <g id="Group-28" transform="translate(0.000000, 0.336300)">
                <path d="M507.415,23.7004 L507.415,55.9604 C507.415,61.4284 504.269,65.2464 498.749,65.2464 C493.281,65.2464 490.171,61.4284 490.171,55.9604 L490.171,23.7004 L477.792,23.7004 L477.792,55.9604 C477.792,61.4284 474.646,65.2464 469.127,65.2464 C463.572,65.2464 460.548,61.5144 460.548,55.9604 L460.548,23.7004 L448.083,23.7004 L448.083,55.9604 C448.083,68.3614 456.726,77.7134 469.127,77.7134 C475.176,77.7134 480.03,75.4084 483.967,71.3294 C487.929,75.4084 492.763,77.7134 498.749,77.7134 C511.353,77.7134 519.793,68.5654 519.793,55.9604 L519.793,23.7004 L507.415,23.7004 Z" id="Fill-7" fill="#662EFF"></path>
                <g id="Group-11" transform="translate(1.000000, 0.000000)">
                    <mask id="mask-2" fill="white">
                        <use xlink:href="#path-1"></use>
                    </mask>
                    <g id="Clip-10"></g>
                    <path d="M27.7425,21.924 C22.3075,21.924 17.0075,23.527 12.5035,26.49 L12.5035,0.664 L0.0005,0.664 L0.0005,18.249 L0.0005,44.786 C0.0005,52.449 0.7685,59.409 5.3565,65.803 C9.2735,71.26 15.1095,75.24 21.6735,76.732 C23.3795,77.12 25.1235,77.341 26.8725,77.395 C27.1625,77.404 27.4525,77.408 27.7425,77.408 C43.0395,77.408 55.4845,64.963 55.4845,49.666 C55.4845,34.369 43.0395,21.924 27.7425,21.924 M43.1445,49.666 C43.1445,58.159 36.2355,65.068 27.7425,65.068 C19.2495,65.068 12.3395,58.159 12.3395,49.666 C12.3395,41.173 19.2495,34.264 27.7425,34.264 C36.2355,34.264 43.1445,41.173 43.1445,49.666" id="Fill-9" fill="#052882" mask="url(#mask-2)"></path>
                </g>
                <path d="M161.9311,26.4901 C157.4271,23.5271 152.1271,21.9241 146.6931,21.9241 C131.3951,21.9241 118.9501,34.3691 118.9501,49.6661 C118.9501,64.9631 131.3951,77.4081 146.6921,77.4081 C160.1721,77.4081 173.7931,66.3831 174.1111,52.4081 C174.3441,42.1461 174.2121,31.8511 174.2851,21.5831 C174.3351,14.6101 174.3851,7.6371 174.4341,0.6641 L161.9311,0.6641 L161.9311,26.4901 Z M162.0951,49.6661 C162.0951,58.1591 155.1851,65.0681 146.6931,65.0681 C138.2001,65.0681 131.2901,58.1591 131.2901,49.6661 C131.2901,41.1731 138.2001,34.2641 146.6931,34.2641 C155.1851,34.2641 162.0951,41.1731 162.0951,49.6661 L162.0951,49.6661 Z" id="Fill-12" fill="#052882"></path>
                <g id="Group-16" transform="translate(179.000000, 22.000000)">
                    <mask id="mask-4" fill="white">
                        <use xlink:href="#path-3"></use>
                    </mask>
                    <g id="Clip-15"></g>
                    <path d="M56.0522,27.2982 C56.0012,26.4412 55.9272,25.5922 55.8232,24.7542 C54.1192,10.9632 42.4082,0.1202 28.4062,0.0222 C28.3402,0.0212 28.2742,0.0212 28.2082,0.0212 C12.9112,0.0212 0.4662,12.4662 0.4662,27.7632 C0.4662,43.0602 12.9112,55.5052 28.2082,55.5052 C33.7032,55.5052 39.0632,53.8652 43.6002,50.8382 C43.2932,59.0632 36.5072,65.6602 28.2082,65.6602 C23.0142,65.6602 18.2002,63.0562 15.3342,58.6932 L14.2162,56.9932 L5.2632,65.9022 L6.1452,67.0602 C11.4442,74.0122 19.4862,78.0002 28.2082,78.0002 C42.0102,78.0002 53.8782,67.2042 55.7452,53.6262 C56.3072,49.5412 55.9502,45.2532 55.9502,41.1362 C55.9502,36.6332 56.3252,31.8622 56.0522,27.2982 M43.6102,27.7632 C43.6102,36.2562 36.7012,43.1652 28.2082,43.1652 C19.7152,43.1652 12.8062,36.2562 12.8062,27.7632 C12.8062,19.2702 19.7152,12.3612 28.2082,12.3612 C36.7012,12.3612 43.6102,19.2702 43.6102,27.7632" id="Fill-14" fill="#052882" mask="url(#mask-4)"></path>
                </g>
                <path d="M339.0109,61.882 C336.2989,63.967 333.0609,65.068 329.6459,65.068 C321.1529,65.068 314.2429,58.159 314.2429,49.666 C314.2429,41.173 321.1529,34.264 329.6459,34.264 C332.6789,34.264 335.5789,35.147 338.0839,36.8 L339.9539,38.167 L339.9539,38.167 L348.6989,29.422 L347.2889,28.258 C342.3379,24.174 336.0729,21.924 329.6459,21.924 C314.3479,21.924 301.9029,34.369 301.9029,49.666 C301.9029,64.963 314.3479,77.408 329.6459,77.408 C336.0749,77.408 342.3429,75.158 347.2959,71.07 C347.3469,71.028 347.3969,70.984 347.4459,70.94 L348.8949,69.722 L340.1669,60.994 L339.0109,61.882 Z" id="Fill-17" fill="#662EFF"></path>
                <path d="M258.5856,23.597 C244.2106,28.829 236.7726,44.78 242.0046,59.155 C247.2366,73.529 263.1876,80.967 277.5626,75.735 C283.5186,73.567 288.5916,69.386 291.8486,63.96 C291.2446,63.225 281.6316,58.742 280.8976,58.181 C279.0696,60.945 276.4566,63.006 273.3416,64.139 C267.7356,66.18 261.4166,64.717 257.2396,60.606 L283.6306,51.001 L283.6336,51.033 L295.6856,46.646 L295.4686,45.291 C295.1876,43.543 294.7416,41.823 294.1426,40.178 C288.9106,25.803 272.9596,18.365 258.5856,23.597 L258.5856,23.597 Z M252.6856,48.958 C252.9656,42.82 256.9006,37.342 262.8056,35.193 C268.7116,33.043 275.2466,34.711 279.4066,39.232 L252.6856,48.958 Z" id="Fill-19" fill="#052882"></path>
                <path d="M404.4086,23.597 C390.0336,28.829 382.5956,44.78 387.8276,59.155 C393.0596,73.529 409.0106,80.967 423.3856,75.735 C429.3416,73.567 434.4146,69.386 437.6716,63.96 C437.0676,63.225 427.4546,58.742 426.7206,58.181 C424.8926,60.945 422.2796,63.006 419.1646,64.139 C413.5586,66.18 407.2396,64.717 403.0626,60.606 L429.4536,51.001 L429.4566,51.033 L441.5086,46.646 L441.2916,45.291 C441.0106,43.543 440.5646,41.823 439.9656,40.178 C434.7336,25.803 418.7826,18.365 404.4086,23.597 L404.4086,23.597 Z M398.5086,48.958 C398.7886,42.82 402.7236,37.342 408.6296,35.193 C414.5346,33.043 421.0696,34.711 425.2296,39.232 L398.5086,48.958 Z" id="Fill-21" fill="#662EFF"></path>
                <g id="Group-25" transform="translate(0.000000, 99.000000)">
                    <mask id="mask-6" fill="white">
                        <use xlink:href="#path-5"></use>
                    </mask>
                    <g id="Clip-24"></g>
                    <path d="" id="Stroke-23" stroke="#052882" stroke-width="13" mask="url(#mask-6)"></path>
                </g>
                <path d="M101.4156,16.1262 C101.4156,16.1262 101.4156,17.1262 102.4156,17.1262 L112.9186,17.1262 C112.9186,17.1262 113.9186,17.1262 113.9186,16.1262 L113.9186,5.6232 C113.9186,5.6232 113.9186,4.6232 112.9186,4.6232 L101.4156,16.1262 Z" id="Fill-26" fill="#052882"></path>
            </g>
        </g>
    </g>
</svg>