<?xml version="1.0" encoding="UTF-8" standalone="no"?>
<!-- Created with Inkscape (http://www.inkscape.org/) -->

<svg
   version="1.1"
   id="svg2"
   width="694.85333"
   height="94.239998"
   viewBox="0 0 694.85333 94.239998"
   sodipodi:docname="Broadcom_Logo_Red-Black_no-tag_PMS.eps"
   xmlns:inkscape="http://www.inkscape.org/namespaces/inkscape"
   xmlns:sodipodi="http://sodipodi.sourceforge.net/DTD/sodipodi-0.dtd"
   xmlns="http://www.w3.org/2000/svg"
   xmlns:svg="http://www.w3.org/2000/svg">
  <defs
     id="defs6" />
  <sodipodi:namedview
     id="namedview4"
     pagecolor="#ffffff"
     bordercolor="#000000"
     borderopacity="0.25"
     inkscape:showpageshadow="2"
     inkscape:pageopacity="0.0"
     inkscape:pagecheckerboard="0"
     inkscape:deskcolor="#d1d1d1" />
  <g
     id="g8"
     inkscape:groupmode="layer"
     inkscape:label="ink_ext_XXXXXX"
     transform="matrix(1.3333333,0,0,-1.3333333,0,94.24)">
    <g
       id="g10"
       transform="scale(0.1)">
      <path
         d="m 5159.24,514.516 c -23.11,0 -41.92,18.804 -41.92,41.925 0,23.118 18.81,41.926 41.92,41.926 23.12,0 41.93,-18.808 41.93,-41.926 0,-23.121 -18.81,-41.925 -41.93,-41.925 z m 0,94.125 c -28.78,0 -52.2,-23.418 -52.2,-52.2 0,-28.781 23.42,-52.199 52.2,-52.199 28.78,0 52.2,23.418 52.2,52.199 0,28.782 -23.42,52.2 -52.2,52.2"
         style="fill:#211c1d;fill-opacity:1;fill-rule:nonzero;stroke:none"
         id="path12" />
      <path
         d="m 5162.69,558.57 -11.02,-0.144 -0.18,13.316 11.02,0.149 c 4.22,0.054 7.44,-2.418 7.49,-6.563 0.06,-4.144 -3.09,-6.703 -7.31,-6.758 z m 18.04,6.899 c -0.12,9.176 -6.5,15.828 -16.78,15.691 l -23.09,-0.305 0.65,-49.359 10.51,0.141 -0.23,17.539 7.69,0.097 9.93,-17.406 12.06,0.156 -11.35,18.653 c 5.31,1.328 10.73,6.062 10.61,14.793"
         style="fill:#211c1d;fill-opacity:1;fill-rule:nonzero;stroke:none"
         id="path14" />
      <path
         d="m 4228.2,204.352 c -84.24,0 -152.54,68.296 -152.54,152.543 0,84.242 68.3,152.539 152.54,152.539 84.25,0 152.54,-68.297 152.54,-152.539 0,-84.247 -68.29,-152.543 -152.54,-152.543 z m 0,403.453 c -138.57,0 -250.91,-112.336 -250.91,-250.91 0,-138.575 112.34,-250.911 250.91,-250.911 138.58,0 250.91,112.336 250.91,250.911 0,138.574 -112.33,250.91 -250.91,250.91"
         style="fill:#211c1d;fill-opacity:1;fill-rule:nonzero;stroke:none"
         id="path16" />
      <path
         d="M 1122.03,207.91 H 991.457 v 110.598 h 130.573 c 39.96,0 61.36,-25.684 61.36,-55.649 0,-34.25 -22.83,-54.949 -61.36,-54.949 z M 991.457,509.02 h 127.003 c 34.25,0 55.66,-22.125 55.66,-52.086 0,-29.973 -21.41,-51.375 -55.66,-51.375 H 991.457 Z M 1195.52,365.605 c 44.96,9.274 82.06,49.227 82.06,109.161 0,63.507 -46.38,121.3 -137,121.3 H 890.137 v -475.91 h 258.293 c 90.62,0 138.42,57.078 138.42,128.438 0,59.929 -40.67,109.16 -91.33,117.011"
         style="fill:#211c1d;fill-opacity:1;fill-rule:nonzero;stroke:none"
         id="path18" />
      <path
         d="m 1583.43,378.453 h -106.32 v 128.426 h 106.32 c 40.67,0 71.35,-24.262 71.35,-64.215 0,-39.961 -30.68,-64.211 -71.35,-64.211 z m 174.81,64.211 c 0,88.473 -60.65,153.402 -159.83,153.402 h -222.62 v -475.91 h 101.32 v 169.106 h 74.21 l 93.47,-169.106 h 116.3 l -107.02,181.235 c 51.37,12.129 104.17,57.082 104.17,141.273"
         style="fill:#211c1d;fill-opacity:1;fill-rule:nonzero;stroke:none"
         id="path20" />
      <path
         d="m 2528.51,289.969 74.2,204.777 74.21,-204.777 z m 10.7,306.097 -184.09,-475.91 h 115.59 l 29.97,80.621 h 204.07 L 2734,120.156 h 115.59 l -183.37,475.91 h -127.01"
         style="fill:#211c1d;fill-opacity:1;fill-rule:nonzero;stroke:none"
         id="path22" />
      <path
         d="m 3124.8,209.348 h -86.34 v 297.531 h 86.34 c 97.76,0 149.12,-64.93 149.12,-149.125 0,-80.621 -54.94,-148.406 -149.12,-148.406 z m 0,386.718 h -187.66 v -475.91 h 187.66 c 149.12,0 252.58,94.184 252.58,237.598 0,143.41 -103.46,238.312 -252.58,238.312"
         style="fill:#211c1d;fill-opacity:1;fill-rule:nonzero;stroke:none"
         id="path24" />
      <path
         d="m 4912.35,596.156 -124.8,-201.777 -124.81,201.777 h -112.01 v -476 h 101.34 V 431.25 l 109.1,-165.879 c 12.48,-18.961 40.28,-18.961 52.75,0 L 4923.03,431.25 V 120.156 h 101.34 v 476 h -112.02"
         style="fill:#211c1d;fill-opacity:1;fill-rule:nonzero;stroke:none"
         id="path26" />
      <path
         d="m 2079.53,204.352 c -84.25,0 -152.54,68.296 -152.54,152.543 0,84.242 68.29,152.539 152.54,152.539 84.24,0 152.54,-68.297 152.54,-152.539 0,-84.247 -68.3,-152.543 -152.54,-152.543 z m 0,403.453 c -138.58,0 -250.91,-112.336 -250.91,-250.91 0,-138.575 112.33,-250.911 250.91,-250.911 138.57,0 250.91,112.336 250.91,250.911 0,138.574 -112.34,250.91 -250.91,250.91"
         style="fill:#211c1d;fill-opacity:1;fill-rule:nonzero;stroke:none"
         id="path28" />
      <path
         d="m 3833.37,283.082 c -26.01,-46.93 -76.01,-78.73 -133.46,-78.73 -84.25,0 -152.54,68.296 -152.54,152.543 0,84.242 68.29,152.539 152.54,152.539 56.98,0 106.58,-31.309 132.77,-77.606 l 71.16,71.156 c -45.53,63.446 -119.88,104.821 -203.93,104.821 -138.58,0 -250.91,-112.336 -250.91,-250.91 0,-138.575 112.33,-250.911 250.91,-250.911 84.52,0 159.22,41.832 204.68,105.875 l -71.22,71.223"
         style="fill:#211c1d;fill-opacity:1;fill-rule:nonzero;stroke:none"
         id="path30" />
      <path
         d="M 353.387,706.773 C 158.215,706.773 0,548.559 0,353.387 c 0,-37.25 5.80078,-73.141 16.4844,-106.856 8.2812,4 16.6875,7.86 25.5312,11.383 40.4102,16.098 77.4254,10.715 114.5044,-11.769 0,0 13.515,-8.247 17.57,-10.797 17.277,-10.856 33.594,-21.11 49.25,-21.11 14.965,0 29.668,3.989 35.894,32.918 9.707,45.121 33.403,155.992 43.735,210.907 6.074,32.281 9.398,49.679 12.863,61.488 6.059,20.668 17.121,31.957 32.813,33.84 0,0 2.722,0.394 4.742,0.394 2.019,0 4.488,-0.371 4.488,-0.371 15.824,-1.797 26.977,-13.086 33.07,-33.863 3.461,-11.809 6.789,-29.207 12.864,-61.488 10.332,-54.915 34.027,-165.786 43.734,-210.907 6.227,-28.929 20.93,-32.918 35.891,-32.918 15.656,0 31.976,10.254 49.254,21.11 4.05,2.55 17.57,10.797 17.57,10.797 37.074,22.484 74.09,27.867 114.5,11.769 8.844,-3.523 17.25,-7.383 25.531,-11.383 10.688,33.715 16.484,69.606 16.484,106.856 0,195.172 -158.214,353.386 -353.386,353.386"
         style="fill:#d21c2d;fill-opacity:1;fill-rule:nonzero;stroke:none"
         id="path32" />
      <path
         d="m 600.027,206.848 c -13.328,-4.469 -25.175,-12.368 -36.996,-19.785 -22.265,-13.993 -47.508,-29.848 -79.597,-29.848 -47.582,0 -80.985,28.402 -91.653,77.941 -8.254,38.375 -38.433,183.227 -38.433,183.227 -11.77,-59.125 -30.102,-144.852 -38.356,-183.227 -10.664,-49.539 -44.066,-77.941 -91.652,-77.941 -32.094,0 -57.328,15.855 -79.594,29.848 -11.82,7.417 -23.668,15.316 -37,19.785 -13.6991,4.597 -27.8515,4.386 -41.6444,0.312 -9.711,-2.867 -18.9571,-6.894 -28.0078,-11.363 C 95.0273,79.7461 212.215,0 350.742,0 c 138.524,0 261.004,79.7461 318.942,195.797 -9.055,4.469 -18.297,8.496 -28.008,11.363 -13.797,4.074 -27.946,4.285 -41.649,-0.312"
         style="fill:#d21c2d;fill-opacity:1;fill-rule:nonzero;stroke:none"
         id="path34" />
      <path
         d="m 664.758,257.914 c -40.41,16.098 -77.426,10.715 -114.5,-11.769 0,0 -13.52,-8.247 -17.57,-10.797 -17.278,-10.856 -33.598,-21.11 -49.254,-21.11 -14.961,0 -29.664,3.989 -35.891,32.918 -9.707,45.121 -33.402,155.992 -43.734,210.907 -6.075,32.281 -9.403,49.679 -12.864,61.488 -6.093,20.777 -17.246,32.066 -33.07,33.863 0,0 -2.469,0.371 -4.488,0.371 -2.02,0 -4.742,-0.394 -4.742,-0.394 -15.692,-1.883 -26.754,-13.172 -32.813,-33.84 -3.465,-11.809 -6.789,-29.207 -12.863,-61.488 -10.332,-54.915 -34.028,-165.786 -43.735,-210.907 -6.226,-28.929 -20.929,-32.918 -35.894,-32.918 -15.656,0 -31.973,10.254 -49.25,21.11 -4.055,2.55 -17.57,10.797 -17.57,10.797 -37.079,22.484 -74.0942,27.867 -114.5044,11.769 -8.7343,-3.476 -17.039,-7.289 -25.2187,-11.238 5.5859,-17.539 12.5078,-34.481 20.6406,-50.715 8.9453,4.398 18.0742,8.367 27.6641,11.199 13.7929,4.074 27.9453,4.285 41.6444,-0.312 13.332,-4.469 25.18,-12.368 37,-19.785 22.266,-13.993 47.5,-29.848 79.594,-29.848 47.586,0 80.988,28.402 91.652,77.941 8.254,38.375 26.586,124.102 38.356,183.227 0,0 30.179,-144.852 38.433,-183.227 10.668,-49.539 44.071,-77.941 91.653,-77.941 32.089,0 57.332,15.855 79.597,29.848 11.821,7.417 23.668,15.316 36.996,19.785 13.703,4.597 27.852,4.386 41.649,0.312 9.586,-2.832 18.719,-6.801 27.664,-11.195 8.133,16.23 15.055,33.172 20.64,50.715 -8.179,3.945 -16.488,7.758 -25.222,11.234"
         style="fill:#ffffff;fill-opacity:1;fill-rule:nonzero;stroke:none"
         id="path36" />
    </g>
  </g>
</svg>
