<svg width="813" height="347" viewBox="0 0 813 347" fill="none" xmlns="http://www.w3.org/2000/svg">
<rect x="110.222" y="89.8118" width="36.7412" height="257.188" fill="#0E5DF5"/>
<rect x="183.707" y="89.8118" width="36.7412" height="257.188" fill="#0E5DF5"/>
<rect x="257.188" y="89.8118" width="36.7412" height="257.188" fill="#0E5DF5"/>
<rect x="330.67" y="89.8118" width="36.7412" height="257.188" fill="#0E5DF5"/>
<rect width="36.7412" height="257.188" fill="#5FDCFF"/>
<rect x="73.4814" width="36.7412" height="257.188" fill="#5FDCFF"/>
<rect x="146.963" width="36.7412" height="257.188" fill="#5FDCFF"/>
<rect x="220.448" width="36.7412" height="257.188" fill="#5FDCFF"/>
<path d="M811.596 136.851V160.028H786.706V254.906H753.368V160.028H731.561V136.851H753.368V119.839C753.368 110.325 756.146 102.942 761.702 97.6897C767.335 92.4377 775.289 89.8118 785.564 89.8118H812.623L812.737 111.961H797.21C792.947 111.961 790.017 113.027 788.419 115.158C786.896 117.213 786.135 120.638 786.135 125.434V136.851H811.596Z" fill="#333333"/>
<path d="M644.654 257.189C639.174 257.189 633.77 256.352 628.441 254.678C623.19 253.003 618.394 250.529 614.056 247.256C609.717 243.983 606.216 239.949 603.552 235.154C600.964 230.359 599.67 224.802 599.67 218.485V136.851H633.008V214.26C633.008 219.741 634.797 224.231 638.375 227.733C641.952 231.234 647.204 232.985 654.13 232.985C660.676 232.985 665.852 231.31 669.658 227.961C673.54 224.536 675.481 219.779 675.481 213.69V136.851H708.477V254.906H683.359L679.477 231.5C678.107 238.427 675.519 243.755 671.713 247.485C667.983 251.138 663.683 253.65 658.811 255.02C654.016 256.466 649.297 257.189 644.654 257.189Z" fill="#333333"/>
<path d="M449.059 254.906V89.8118H508.885C530.502 89.8118 546.524 93.5414 556.952 101.001C567.456 108.384 572.708 119.078 572.708 133.083C572.708 141.304 570.615 148.459 566.428 154.548C562.242 160.561 554.783 165.813 544.05 170.304C550.977 172.054 556.571 174.414 560.834 177.382C565.096 180.351 568.369 183.662 570.653 187.315C572.936 190.893 574.496 194.66 575.334 198.618C576.171 202.5 576.59 206.344 576.59 210.15C576.59 225.373 571.414 236.638 561.062 243.945C550.71 251.252 534.232 254.906 511.625 254.906H449.059ZM482.283 229.103H512.31C522.358 229.103 529.931 227.086 535.031 223.051C540.207 219.017 542.795 213.613 542.795 206.839C542.795 201.968 541.539 197.895 539.027 194.622C536.515 191.273 533.09 188.762 528.751 187.087C524.489 185.412 519.617 184.575 514.137 184.575H482.283V229.103ZM482.283 158.087H514.137C517.562 158.087 520.835 157.707 523.956 156.945C527.153 156.108 529.969 154.852 532.405 153.178C534.917 151.503 536.896 149.372 538.342 146.784C539.788 144.12 540.511 140.999 540.511 137.422C540.511 130.267 537.809 124.863 532.405 121.209C527.077 117.48 520.226 115.615 511.854 115.615H482.283V158.087Z" fill="#333333"/>
</svg>
