<svg id="Layer_1" data-name="Layer 1" xmlns="http://www.w3.org/2000/svg" viewBox="0 0 595.276 107.99978"><title>byond</title><path d="M484.135,97.69477q-29.79027.00069-59.58049-.003c-7.9277-.00416-10.75466-2.806-10.75687-10.63843q-.00947-33.74026.00125-67.48052c.00305-7.50034,2.82257-10.311,10.3396-10.312,39.062-.00548,78.12447-.12054,117.18564.05776,15.18667.06932,28.77764,4.701,39.05607,16.53289,18.77436,21.61185,10.53678,56.147-15.90581,67.17624a60.68575,60.68575,0,0,1-23.72146,4.67558Q512.444,97.66078,484.135,97.69477Zm6.86171-17.211q24.34752,0,48.695.0125a40.788,40.788,0,0,0,12.67461-1.51263c8.94673-2.862,15.58082-8.32285,17.92387-17.62342,2.45973-9.76371,1.21089-19.0394-6.23283-26.58436-6.7021-6.79322-15.326-8.67087-24.42879-8.69127-34.32761-.077-68.65566.0065-102.98319-.0938-3.24531-.00949-4.41078.83524-4.37509,4.23782.16,15.243.06306,30.48851.07363,45.73313.00305,4.42678.1004,4.51666,4.69345,4.51863Q464.017,80.4919,490.9967,80.48378Z"/><path d="M373.71354,66.78664a7.51926,7.51926,0,0,0,.55593-4.07878c.0232-14.59247.00238-29.185.02139-43.77749.00824-6.3397,3.19189-9.91276,8.80516-9.9822,5.52859-.06842,9.15492,3.86311,9.16368,10.14021q.0469,33.57366.00784,67.14741c-.00169,4.63954-1.04932,8.96749-5.69676,10.979-5.01309,2.16976-9.78218.94983-13.66171-2.77541-5.09589-4.89318-8.65823-11.02894-12.8191-16.67035-8.26941-11.21178-16.3795-22.541-24.58087-33.80317-.54966-.75478-.8632-1.79883-2.03253-2.066-.85616,1.06361-.45023,2.312-.453,3.45013-.03444,14.15353.0135,28.30733-.04264,42.46075-.02641,6.66519-3.5031,10.27164-9.44988,10.05406-5.15787-.18868-8.43054-3.53069-8.48673-8.93171-.08328-8.00857-.02834-16.01859-.02894-24.028-.00105-14.59251.03014-29.1851-.01567-43.77745-.0158-5.03677,1.01113-9.50338,6.20179-11.61961,5.0727-2.06816,10.90691-.33374,14.6235,4.57939,4.89562,6.47171,9.48662,13.17355,14.2209,19.76762C357.84105,44.71235,365.64613,55.56258,373.71354,66.78664Z"/><path d="M5.644,53.3638q-.00012-16.95517.00522-33.91034c.01254-7.13622,3.04946-10.12362,10.274-10.13552,8.88908-.01464,17.78363-.19378,26.66573.05635,7.99788.22522,15.25863,2.651,21.2424,8.34022,8.38137,7.9688,10.47881,24.4887-2.5007,32.738-1.66175,1.05615-2.42173,1.76314-.05805,3.00106,8.61266,4.5107,12.53032,11.77291,11.61124,21.38476C71.97812,84.31,66.72946,90.84752,58.13443,94.66473a34.70218,34.70218,0,0,1-14.07912,2.9638q-14.32125.04224-28.64267.00015C8.916,97.60482,5.67413,94.3909,5.6541,87.93254,5.61837,76.40974,5.64405,64.88672,5.644,53.3638ZM23.54439,70.6021q0,4.26747-.00089,8.535c-.00142,1.36722.42376,2.43483,2.0095,2.40137,6.55124-.13832,13.14674.70829,19.64523-.54052,5.57551-1.07145,9.05513-5.14074,9.03494-10.124-.02018-4.97929-3.52179-9.043-9.07674-10.08085-6.50067-1.21447-13.094-.34679-19.64427-.50057-1.61719-.038-1.96576,1.092-1.96675,2.43109Q23.5425,66.66287,23.54439,70.6021ZM23.545,35.36478q0,3.77295.00071,7.54592c.00127,1.33263.33709,2.48408,1.952,2.44566,6.21558-.14773,12.48567.76625,18.635-.65318,5.0542-1.16658,7.91323-5.23031,7.58593-10.36566-.304-4.76963-4.49873-8.55116-10.5045-8.91833-5.01271-.30646-10.05646-.08922-15.086-.14545-1.77575-.01984-2.62075.74256-2.59292,2.54525C23.574,30.3337,23.545,32.84945,23.545,35.36478Z"/><path d="M205.08455,53.432c.01953-25.19615,20.74952-46.03913,45.80608-46.05575,24.83963-.01649,46.01049,21.11254,45.80978,46.14423-.2004,24.994-19.39806,45.63687-45.85512,45.95C225.743,99.76747,205.065,78.60812,205.08455,53.432Zm19.32416-.0402c0,.7671-.03567,1.53609.00523,2.301.95529,17.8636,18.36238,30.06361,34.9004,24.46665,14.64818-4.95736,22.20982-22.68154,16.06609-37.65826-5.18322-12.6354-17.57609-19.31076-30.51283-16.4356C233.1302,28.67411,224.391,40.32584,224.40871,53.39175Z"/><path d="M161.28377,98.02161C156.07328,97.982,152.53,94.69,152.408,89.44471c-.14284-6.14007-.08009-12.286-.03421-18.42878a9.12811,9.12811,0,0,0-1.3861-4.9651Q138.33957,45.05272,125.7782,24.00234c-.11269-.18816-.23994-.36763-.35109-.55663-3.252-5.52839-2.52526-10.70991,1.86772-13.32534,4.63915-2.762,10.224-1.127,13.4436,4.19966,6.41093,10.60653,12.68821,21.29379,19.02009,31.94809,1.92313,3.23588,1.93659,3.245,3.93562-.13038q8.38344-14.15526,16.75674-28.31654a47.21231,47.21231,0,0,1,3.25936-4.93863c3.286-4.216,8.88338-5.28624,12.88226-2.57023,3.72085,2.52719,4.28349,7.09734,1.35395,11.99526Q185.19417,43.62847,172.3399,64.888a13.26613,13.26613,0,0,0-2.03542,7.45015c.108,5.48275.1368,10.97269-.02,16.45344C170.12185,94.47386,166.4945,98.06126,161.28377,98.02161Z"/><path d="M114.46567,53.52877a11.17277,11.17277,0,0,1-11.29843,11.22576,11.28157,11.28157,0,1,1,.08446-22.56276A11.23734,11.23734,0,0,1,114.46567,53.52877Z"/></svg>