<svg id="Layer_1" data-name="Layer 1" xmlns="http://www.w3.org/2000/svg" viewBox="0 0 1684.8 673.09936"><title>cadence</title><path d="M495.95946,507.72159c-118.128,112.67135-278.26363,69.66168-349.51615-12.31427-73.7674-84.86955-79.18325-216.53779-8.18185-305.65275,38.43854-48.24494,88.2507-78.24735,149.03267-88.132,75.52181-12.28179,142.18716,8.86822,200.9972,59.078,13.327-17.59909,26.0262-34.36922,39.17687-51.7353-9.80874-7.57351-18.62239-14.37876-27.28527-21.06744-18.90131,16.3092-25.2236,17.44908-43.3746,8.30449-20.70629-10.43215-23.25614-15.48946-21.2476-42.80762-10.45079-3.304-21.02339-6.64656-31.38417-9.92208-12.58961,22.0098-18.31678,25.41511-37.8759,23.09793-21.74163-2.57593-27.5275-7.73936-33.98426-30.097H298.06107c-1.63549,20.62041-7.06318,27.67257-24.04051,32.12072-23.77921,6.23022-31.03727,3.2963-46.10592-19.03378-5.02862,1.96595-10.23574,3.89776-15.35836,6.03258-5.492,2.2887-10.90437,4.76815-16.23935,7.11506,6.09355,21.35151,3.45162,29.91075-11.90833,40.141-20.93331,13.94219-28.47207,13.62811-48.72569-2.55185-8.40171,7.62912-16.90542,15.35086-25.30377,22.977,12.93913,18.73415,13.51574,27.05955,3.38611,41.11543-15.10973,20.966-21.89963,23.27341-47.61368,15.56584-2.5619,4.675-5.27188,9.51882-7.88429,14.41469-2.762,5.17636-5.43112,10.40228-8.02984,15.39353,18.83621,13.97178,21.88876,22.02632,16.092,40.39285-7.35427,23.30149-12.56717,27.1497-38.88124,28.06606-1.18591,11.30281-2.38345,22.716-3.5664,33.98977,4.06587,1.1707,6.76767,1.928,9.45722,2.7265,14.41352,4.27955,18.4562,15.75826,19.2692,28.874.81251,13.108.94547,28.48309-13.20462,33.32941-15.21777,5.21187-13.33716,13.43323-10.20285,24.29162,1.42464,4.93523,2.47574,9.97823,4.0294,16.33535,22.03981-5.80673,32.90206,5.45,40.27477,24.39787,7.10253,18.25353,2.097,31.187-14.37009,40.86837,6.74538,10.71416,12.87939,20.45718,18.9461,30.09339,20.23042-10.10774,28.74865-9.246,40.9864,3.50936,18.87315,19.67115,19.73838,25.59789,6.60967,49.26535,8.97317,6.96916,18.05968,14.02642,27.50988,21.36609,9.81893-13.007,21.24292-18.3346,36.32272-12.05772,20.30281,8.45092,35.5649,19.89178,26.17842,45.37337,12.20892,3.89734,22.73355,7.2571,33.05745,10.55285,10.17807-20.646,16.63229-25.51421,34.26957-23.29764,8.91557,1.12047,18.96138,3.075,25.76849,8.2442,6.19347,4.70332,8.6968,14.2659,13.14826,22.264h31.98673c2.52287-21.51653,7.72849-28.24732,24.7818-32.54435,23.9081-6.02445,30.22345-3.4576,46.07729,19.063,5.07162-1.98357,10.31866-3.914,15.46564-6.082,5.44551-2.29379,10.79577-4.81357,16.05651-7.17589-6.06582-20.30413-3.64864-29.11689,10.11084-38.868,21.09421-14.94938,29.474-14.83845,50.654,1.10464,7.62527-6.83291,15.35988-13.76395,24.85034-22.26842-15.18164-14.82483-29.50164-28.81918-43.85383-42.78064A7.9302,7.9302,0,0,0,495.95946,507.72159Z"/><path d="M426.51606,225.94866q20.98317-23.119,41.96882-46.24018C395.18212,108.8549,258.68415,98.321,170.94111,191.0607c-86.91952,91.869-75.43607,237.998,25.28814,315.31457,97.27624,74.66958,224.84489,45.08186,280.78817-20.13842-14.24388-14.79772-28.44881-29.55483-43.19857-44.87789-67.094,65.19151-164.20157,51.50339-212.78378.26136-50.98355-53.77488-56.41887-133.80306-14.83144-192.165C245.7378,193.97494,348.5874,157.89508,426.51606,225.94866Z"/><path d="M798.95122,280.80245c-66.64581-27.15232-105.84683-20.44451-141.0188,23.47821-26.73817,33.39079-27.92161,83.36687-2.93894,119.18288,13.32787,19.10714,30.92008,32.58248,53.02713,39.76278,32.09622,10.42457,62.21582,4.739,90.87136-13.98362.57482,5.6534.97244,9.56423,1.43083,14.07129h47.074V199.30352H798.95122ZM742.45555,423.89186c-31.14029-.31339-57.05845-26.98055-56.839-58.48165.22152-31.79507,26.26768-57.63313,57.73024-57.26868,32.10826.372,56.44083,25.47705,56.346,58.13494C799.60037,398.1255,773.69074,424.20635,742.45555,423.89186Z"/><path d="M987.56457,265.6678C936.485,255.012,884.9923,285.086,869.90321,334.387c-16.37354,53.49783,8.7319,105.688,60.95835,126.72337,45.71229,18.41168,105.60728-.87823,125.55693-40.89232-11.24-8.22424-22.5646-16.51042-34.85926-25.50664-19.98172,25.325-44.86922,36.22533-76.121,23.35792-15.07965-6.20875-24.527-17.93685-29.4249-35.40216h147.31983C1070.73972,325.66341,1038.41483,276.27543,987.56457,265.6678Zm-69.05988,75.61953c7.07673-21.13185,24.89644-33.57315,47.503-33.40359,21.50889.16144,38.98081,12.702,45.55428,33.40359Z"/><path d="M1657.31731,383.0762c6.14419-59.8405-26.68148-108.91371-77.44729-117.70431-54.63413-9.46032-103.18075,21.4846-117.84221,75.11552-13.95678,51.05347,14.62017,103.63824,66.30565,122.00918,45.30124,16.10165,104.82958-4.48518,121.66688-42.526-11.47444-8.321-23.03957-16.7075-35.00729-25.38634-18.31395,23.79049-40.53861,34.38037-69.29888,25.86586-18.25836-5.40539-29.82308-17.595-35.85015-37.37388h147.47329Zm-98.81766-75.19851c22.33242-.1141,39.96083,12.14649,47.04932,33.77217h-93.31414C1518.96342,320.78612,1536.71749,307.989,1558.49965,307.87769Z"/><path d="M616.66808,399.09031c-.00379-20.90283.31112-41.81157-.08258-62.70711-.663-35.19295-14.64054-57.97708-44.2357-67.12827-40.11442-12.40388-76.49755-3.11367-109.82655,23.81128,7.68789,12.44089,14.97767,24.23753,22.95025,37.13921,16.58261-15.81908,35.53553-21.69283,56.95571-20.08005,19.04211,1.43358,27.43219,12.28206,24.048,32.28092-7.29783.735-14.84306,1.35788-22.35168,2.27851-16.69657,2.04728-33.752,2.71563-49.9767,6.71936-27.80415,6.8614-41.23889,23.69292-43.74793,50.63094a57.76866,57.76866,0,0,0,34.75267,58.20183c32.24981,14.09579,62.61131,9.64475,90.27073-13.82933,16.1117,21.05478,38.30744,18.40521,60.7287,16.93433V420.193C616.67166,418.48716,616.67159,418.48716,616.66808,399.09031Zm-66.854,21.637c-14.72387,8.33159-29.738,8.9486-44.34442-.09249a16.357,16.357,0,0,1,1.24812-28.53057c5.73281-3.0443,12.84629-3.90244,19.46374-4.77984,13.3684-1.77271,26.82468-2.88313,41.12692-4.35773C569.76011,400.70612,563.84087,412.79,549.8141,420.72727Z"/><path d="M1166.51583,264.796c-12.32445,1.93044-24.17215,6.90641-34.49336,9.96736-2.98126-2.58061-5.64322-6.88687-8.52057-7.03606-13.917-.7212-27.89209-.32509-42.25626-.32509V463.228h48.33481c0-5.24656-.00055-9.61543,0-13.98445.0044-33.3634-.45033-66.73767.33472-100.08277a53.12057,53.12057,0,0,1,7.04652-24.846c8.48-14.28214,26.63661-19.4369,43.49372-14.42541,15.34123,4.56087,24.5867,16.49624,24.82522,34.36468.47181,35.36678.21925,70.74306.32853,106.11521.01308,4.24542.41276,8.4896.64137,12.889h48.0089c0-44.97837,2.41572-89.2771-.6744-133.18839C1250.44906,285.50646,1211.16085,257.80375,1166.51583,264.796Z"/><path d="M1337.3381,406.85582c-23.31553-24.12288-22.39092-60.55783,2.13716-84.2312,24.32575-23.47821,56.78477-18.51876,88.91168,14.04858,11.77434-8.50983,23.634-17.08132,35.41275-25.59459-27.14364-41.37156-76.06326-58.42879-121.28991-42.70412-45.503,15.82088-74.77749,57.75288-70.23231,109.71362,3.53248,40.38253,39.96138,79.59656,83.85919,88.29633,42.33292,8.38953,90.30535-12.11182,106.98946-46.22284-11.56459-8.31219-23.22359-16.69209-34.75281-24.97868C1392.3942,428.77768,1362.123,432.49913,1337.3381,406.85582Z"/></svg>
