<?xml version="1.0" encoding="utf-8"?>
<!-- Generator: Adobe Illustrator 24.1.0, SVG Export Plug-In . SVG Version: 6.00 Build 0)  -->
<svg version="1.1" id="Calque_1" xmlns="http://www.w3.org/2000/svg" xmlns:xlink="http://www.w3.org/1999/xlink" x="0px" y="0px"
	 viewBox="0 0 430.9 214.82" style="enable-background:new 0 0 430.9 214.82;" xml:space="preserve">
<style type="text/css">
	.st0{fill:#7A7F82;}
	.st1{fill:#FF680A;}
</style>
<g>
	<g>
		<path class="st0" d="M313.24,202.73c-0.14-3.48-2.91-5.17-6.32-5.17c-3.41,0-6.06,1.67-6.06,5.03c0,3.01,2,4.11,6.11,5.03
			c1.88,0.4,3.48,0.8,3.48,2.37c0,1.34-1.13,2.16-3.1,2.16c-2.07,0-3.55-1.01-3.83-3.31h-3.12c0.14,3.88,3.27,5.99,6.91,5.99
			c3.38,0,6.18-1.79,6.18-5.12c0-3.08-2.11-3.99-5.8-4.77c-2.09-0.47-3.83-0.92-3.83-2.54c0-1.43,1.13-2.18,3.01-2.18
			c1.69,0,3.08,0.68,3.29,2.51H313.24z M285.17,197.96v2.84h5.42v13.6h3.01v-13.6h5.42v-2.84H285.17z M278.06,200.8
			c1.62,0,2.44,1.01,2.44,2.28c0,1.39-0.96,2.42-2.65,2.42h-3.64v-4.7H278.06z M271.2,214.4h3.01v-6.2h3.17l3.66,6.2h3.52l-4.3-6.88
			c2.11-0.73,3.29-2.56,3.29-4.67c0-2.54-1.62-4.88-5.26-4.88h-7.09V214.4z M256.99,214.4h11.37v-2.84H260v-4.04h7.26v-2.86H260
			v-3.85h7.94v-2.84h-10.94V214.4z M248.68,200.8c1.71,0,2.63,1.01,2.63,2.47c0,1.53-0.99,2.54-2.75,2.54h-3.59v-5H248.68z
			 M241.96,214.4h3.01v-5.82h3.88c3.66,0,5.52-2.56,5.52-5.45c0-2.68-1.69-5.17-5.19-5.17h-7.21V214.4z M229.84,205.9l-5.92,8.5
			h3.71l3.97-5.96l3.99,5.96h3.76l-5.94-8.57l5.45-7.87h-3.66l-3.57,5.35l-3.57-5.35h-3.73L229.84,205.9z M211.01,214.4h11.37v-2.84
			h-8.36v-4.04h7.26v-2.86h-7.26v-3.85h7.94v-2.84h-10.94V214.4z M191.16,214.4h11.37v-2.84h-8.36v-4.04h7.26v-2.86h-7.26v-3.85
			h7.94v-2.84h-10.94V214.4z M185.15,208.31c-0.12,2.44-1.97,3.69-4.27,3.69c-3.45,0-4.96-2.77-4.96-5.82
			c0-3.41,1.86-5.82,5.05-5.82c2.3,0,3.9,1.29,4.06,3.12h3.08c-0.3-3.71-3.22-5.92-7.02-5.92c-4.95,0-8.22,3.71-8.22,8.69
			c0,4.42,2.54,8.57,7.94,8.57c3.9,0,7.23-2.18,7.4-6.51H185.15z M165.05,200.8c1.62,0,2.44,1.01,2.44,2.28
			c0,1.39-0.96,2.42-2.65,2.42h-3.64v-4.7H165.05z M158.19,214.4h3.01v-6.2h3.17l3.66,6.2h3.52l-4.3-6.88
			c2.11-0.73,3.29-2.56,3.29-4.67c0-2.54-1.62-4.88-5.26-4.88h-7.09V214.4z M151.52,208.36c0,2.44-1.39,3.57-3.62,3.57
			c-2.35,0-3.83-1.27-3.83-3.83v-10.15h-3.01v10.29c0,4.32,2.84,6.58,6.76,6.58c3.95,0,6.69-2.28,6.69-6.58v-10.29h-3.01V208.36z
			 M130.08,200.49c3.36,0,5.07,2.63,5.07,5.73c0,3.1-1.74,5.66-5.07,5.66c-3.33,0-5.07-2.63-5.07-5.73S126.77,200.49,130.08,200.49
			 M130.08,197.56c-5.19,0-8.12,3.92-8.12,8.62c0,4.72,2.93,8.64,8.12,8.64c5.21,0,8.13-3.92,8.13-8.62
			C138.2,201.48,135.29,197.56,130.08,197.56 M119.56,202.73c-0.14-3.48-2.91-5.17-6.32-5.17s-6.06,1.67-6.06,5.03
			c0,3.01,2,4.11,6.11,5.03c1.88,0.4,3.48,0.8,3.48,2.37c0,1.34-1.13,2.16-3.1,2.16c-2.07,0-3.55-1.01-3.83-3.31h-3.12
			c0.14,3.88,3.27,5.99,6.9,5.99c3.38,0,6.18-1.79,6.18-5.12c0-3.08-2.11-3.99-5.8-4.77c-2.09-0.47-3.83-0.92-3.83-2.54
			c0-1.43,1.13-2.18,3.01-2.18c1.69,0,3.08,0.68,3.29,2.51H119.56z M95.3,197.96v11.58l-7.45-11.58h-3.29v16.44h2.98v-11.72
			l7.59,11.72h3.15v-16.44H95.3z M70.36,214.4h11.37v-2.84h-8.36v-4.04h7.26v-2.86h-7.26v-3.85h7.94v-2.84H70.36V214.4z
			 M62.04,200.8c1.71,0,2.63,1.01,2.63,2.47c0,1.53-0.99,2.54-2.75,2.54h-3.59v-5H62.04z M55.33,214.4h3.01v-5.82h3.88
			c3.66,0,5.52-2.56,5.52-5.45c0-2.68-1.69-5.17-5.19-5.17h-7.21V214.4z M44.57,200.49c3.36,0,5.07,2.63,5.07,5.73
			c0,3.1-1.74,5.66-5.07,5.66c-3.33,0-5.07-2.63-5.07-5.73S41.26,200.49,44.57,200.49 M44.57,197.56c-5.19,0-8.12,3.92-8.12,8.62
			c0,4.72,2.93,8.64,8.12,8.64c5.21,0,8.13-3.92,8.13-8.62C52.7,201.48,49.79,197.56,44.57,197.56 M23.69,205.21l-3.95-7.26h-3.57
			l5.96,9.89v6.55h3.03v-6.55l5.94-9.89h-3.48L23.69,205.21z M9.93,207.05c1.64,0,2.49,1.03,2.49,2.18c0,1.18-0.85,2.33-2.65,2.33
			H5.68v-4.51H9.93z M9.77,200.8c1.41,0,2.07,0.8,2.07,1.79c0,1.06-0.75,2-2.28,2H5.68v-3.78H9.77z M2.68,214.4h7.37
			c3.45,0,5.38-2.25,5.38-4.67c0-1.76-1.03-3.43-3.05-3.99c1.64-0.56,2.49-2.18,2.49-3.76c0-1.97-1.41-4.02-4.42-4.02H2.68V214.4z"
			/>
		<path class="st0" d="M287.92,176.18c-0.14-3.48-2.91-5.17-6.32-5.17c-3.4,0-6.06,1.67-6.06,5.02c0,3.01,2,4.11,6.11,5.03
			c1.88,0.4,3.48,0.8,3.48,2.37c0,1.34-1.13,2.16-3.1,2.16c-2.07,0-3.55-1.01-3.83-3.31h-3.12c0.14,3.88,3.26,5.99,6.9,5.99
			c3.38,0,6.18-1.79,6.18-5.12c0-3.08-2.11-3.99-5.8-4.77c-2.09-0.47-3.83-0.92-3.83-2.54c0-1.43,1.13-2.18,3.01-2.18
			c1.69,0,3.08,0.68,3.29,2.51H287.92z M268.83,171.41v11.58l-7.45-11.58h-3.29v16.44h2.98v-11.72l7.59,11.72h3.15v-16.44H268.83z
			 M246.87,173.95c3.36,0,5.07,2.63,5.07,5.73s-1.74,5.66-5.07,5.66s-5.07-2.63-5.07-5.73S243.56,173.95,246.87,173.95
			 M246.87,171.01c-5.19,0-8.13,3.92-8.13,8.62c0,4.72,2.94,8.64,8.13,8.64c5.21,0,8.13-3.92,8.13-8.62
			C254.99,174.93,252.08,171.01,246.87,171.01 M232.52,187.85h3.01v-16.44h-3.01V187.85z M216.24,171.41v2.84h5.43v13.6h3.01v-13.6
			h5.42v-2.84H216.24z M211.17,181.81c0,2.44-1.39,3.57-3.62,3.57c-2.35,0-3.83-1.27-3.83-3.83v-10.14h-3.01v10.29
			c0,4.32,2.84,6.58,6.76,6.58c3.95,0,6.69-2.28,6.69-6.58v-10.29h-3.01V181.81z M190.76,185.01v-13.6h-3.01v16.44h10.71v-2.84
			H190.76z M176.53,173.95c3.36,0,5.07,2.63,5.07,5.73s-1.74,5.66-5.07,5.66s-5.07-2.63-5.07-5.73S173.22,173.95,176.53,173.95
			 M176.53,171.01c-5.19,0-8.13,3.92-8.13,8.62c0,4.72,2.94,8.64,8.13,8.64c5.21,0,8.13-3.92,8.13-8.62
			C184.66,174.93,181.75,171.01,176.53,171.01 M166.01,176.18c-0.14-3.48-2.91-5.17-6.32-5.17c-3.41,0-6.06,1.67-6.06,5.02
			c0,3.01,2,4.11,6.11,5.03c1.88,0.4,3.48,0.8,3.48,2.37c0,1.34-1.13,2.16-3.1,2.16c-2.07,0-3.55-1.01-3.83-3.31h-3.12
			c0.14,3.88,3.26,5.99,6.9,5.99c3.38,0,6.18-1.79,6.18-5.12c0-3.08-2.11-3.99-5.8-4.77c-2.09-0.47-3.83-0.92-3.83-2.54
			c0-1.43,1.13-2.18,3.01-2.18c1.69,0,3.08,0.68,3.29,2.51H166.01z M132.85,187.85h11.37v-2.84h-8.36v-4.04h7.26v-2.86h-7.26v-3.85
			h7.94v-2.84h-10.94V187.85z M122.73,183.93l-4.56-12.52h-3.24l6.43,16.44h2.65l6.46-16.44h-3.19L122.73,183.93z M109.41,187.85
			h3.01v-16.44h-3.01V187.85z M93.14,171.41v2.84h5.43v13.6h3.01v-13.6h5.43v-2.84H93.14z M85.9,174.53l2.44,6.6h-4.89L85.9,174.53z
			 M94.12,187.85l-6.5-16.44h-3.34l-6.5,16.44h3.26l1.43-3.9h6.88l1.43,3.9H94.12z M70.47,183.93l-4.56-12.52h-3.24l6.43,16.44h2.65
			l6.46-16.44h-3.19L70.47,183.93z M53.92,173.95c3.36,0,5.07,2.63,5.07,5.73s-1.74,5.66-5.07,5.66c-3.33,0-5.07-2.63-5.07-5.73
			S50.61,173.95,53.92,173.95 M53.92,171.01c-5.19,0-8.13,3.92-8.13,8.62c0,4.72,2.93,8.64,8.13,8.64c5.21,0,8.12-3.92,8.12-8.62
			C62.04,174.93,59.13,171.01,53.92,171.01 M39.43,171.41v11.58l-7.45-11.58H28.7v16.44h2.98v-11.72l7.58,11.72h3.15v-16.44H39.43z
			 M21.04,171.41v11.58l-7.45-11.58h-3.29v16.44h2.98v-11.72l7.58,11.72h3.15v-16.44H21.04z M2.79,187.85H5.8v-16.44H2.79V187.85z"
			/>
	</g>
	<g>
		<path class="st0" d="M275.02,30.78c0,9.93-6.62,16.32-14.44,16.32c-7.83,0-14.34-6.51-14.34-16.32v-0.22
			c0-9.81,6.51-16.32,14.34-16.32c7.83,0,14.44,6.51,14.44,16.32V30.78z M290.11,30.78v-0.22c0-19.74-13.12-30.54-26.91-30.54
			c-8.71,0-14.34,4.08-18.41,9.59V1.12h-15.76v76.75h15.76V52.5c3.97,4.74,9.48,8.82,18.41,8.82
			C277.21,61.32,290.11,50.52,290.11,30.78"/>
		<path class="st0" d="M218.79,60.22V21.73c0-14.22-7.5-21.72-19.96-21.72c-8.05,0-14.23,3.31-19.41,9.37
			c-3.09-5.96-8.93-9.37-16.65-9.37c-8.49,0-13.56,4.52-17.42,9.48V1.11h-16.76v59.1h16.76V27.25c0-7.94,3.86-12.02,10.15-12.02
			c6.28,0,9.81,4.08,9.81,12.02v32.97h16.76V27.25c0-7.94,3.86-12.02,10.15-12.02c6.29,0,9.81,4.08,9.81,12.02v32.97H218.79z"/>
		<path class="st0" d="M89.4,49.43c-4.75,0-7.65-2.49-7.65-5.65c0-3.64,1.76-5.52,6.98-6.29c10.9-1.6,13.59-3.22,13.59-3.22
			C103.93,47.59,94.47,49.43,89.4,49.43 M118.56,60.19c0,0-0.1-28.42-0.1-38.38C118.47,10.05,109.32,0,92.09,0
			C74.58,0,66.59,9.88,66.59,22.82h15.65c0.2-1.37-0.51-8.38,9.36-8.38c7.11,0,10.55,2.1,10.55,5.7c0,9.89-36.23-1.51-36.23,24.75
			c0,12.73,9.29,16.65,18,16.65c13.4,0,18.23-7.56,18.23-7.56l-0.14,6.2L118.56,60.19z"/>
		<path class="st0" d="M43.88,38.92c-0.76,3.27-4.51,8.18-12.34,8.18c-9.15,0-15-7.28-15-16.32v-0.22c0-8.71,5.96-16.1,14.34-16.1
			c8.21,0,11.9,4.49,13,8.36h15.65c-0.25-7.38-7.03-22.8-28.54-22.8C12.9,0.01,0,13.91,0,30.78V31c0,16.87,13.01,30.54,30.77,30.54
			c21.19,0,28.51-15.67,28.76-22.62H43.88z"/>
		<path class="st1" d="M92.94,114.63c0,8.71-5.73,16.1-15.33,16.1c-9.26,0-15.55-7.61-15.55-16.32v-0.22
			c0-8.71,5.74-16.1,15.33-16.1c9.26,0,15.55,7.61,15.55,16.32V114.63z M109.48,114.41v-0.22c0-16.98-13.56-30.54-31.87-30.54
			c-18.42,0-32.09,13.78-32.09,30.76v0.22c0,16.98,13.56,30.55,31.87,30.55C95.81,145.17,109.48,131.39,109.48,114.41"/>
		<path class="st0" d="M390.85,114.41c0,9.93-6.62,16.32-14.44,16.32c-7.83,0-14.34-6.51-14.34-16.32v-0.22
			c0-9.81,6.51-16.32,14.34-16.32c7.83,0,14.44,6.51,14.44,16.32V114.41z M405.93,114.41v-0.22c0-19.74-13.12-30.54-26.91-30.54
			c-8.71,0-14.34,4.08-18.41,9.59v-8.49h-15.76v76.75h15.76v-25.36c3.97,4.74,9.48,8.82,18.41,8.82
			C393.03,144.95,405.93,134.15,405.93,114.41"/>
		<path class="st0" d="M334.61,143.85v-38.48c0-14.22-7.5-21.72-19.96-21.72c-8.05,0-14.23,3.31-19.41,9.37
			c-3.09-5.95-8.93-9.37-16.65-9.37c-8.49,0-13.56,4.52-17.42,9.48v-8.38h-16.76v59.1h16.76v-32.97c0-7.94,3.86-12.02,10.15-12.02
			c6.28,0,9.81,4.08,9.81,12.02v32.97h16.76v-32.97c0-7.94,3.86-12.02,10.15-12.02c6.29,0,9.81,4.08,9.81,12.02v32.97H334.61z"/>
		<path class="st0" d="M205.22,133.06c-4.75,0-7.65-2.49-7.65-5.65c0-3.64,1.76-5.52,6.98-6.29c10.9-1.61,13.59-3.22,13.59-3.22
			C219.75,131.22,210.29,133.06,205.22,133.06 M234.38,143.83c0,0-0.1-28.42-0.1-38.38c0-11.77-9.15-21.82-26.37-21.82
			c-17.51,0-25.51,9.88-25.51,22.82h15.65c0.2-1.37-0.51-8.38,9.36-8.38c7.11,0,10.55,2.1,10.55,5.7c0,9.89-36.23-1.51-36.23,24.75
			c0,12.73,9.29,16.65,18,16.65c13.4,0,18.23-7.56,18.23-7.56l-0.14,6.2L234.38,143.83z"/>
		<path class="st0" d="M159.7,122.55c-0.76,3.27-4.51,8.18-12.34,8.18c-9.15,0-15-7.28-15-16.32v-0.22c0-8.71,5.96-16.1,14.34-16.1
			c8.21,0,11.9,4.49,13,8.36h15.65c-0.25-7.38-7.03-22.8-28.54-22.8c-18.08,0-30.99,13.9-30.99,30.77v0.22
			c0,16.87,13.01,30.54,30.77,30.54c21.19,0,28.51-15.67,28.76-22.62H159.7z"/>
		<path class="st1" d="M417.29,62.96h2.72v-2.72h-2.72V62.96z M409.12,71.13h-2.72v5.45h2.72V71.13z M411.84,68.41h-2.72v2.72h2.72
			V68.41z M414.56,65.69h-2.72v2.72h2.72V65.69z M417.29,62.96h-2.72v2.72h2.72V62.96z M430.9,84.75V73.85h-2.72v-2.72h-2.72v-5.45
			h-2.72v-2.72h-2.72v5.45h-2.72v2.72h2.72v2.72h-2.72v-2.72h-2.72v2.72h-2.72v2.72h-2.72v2.72h-2.72v-2.72h-2.72v8.17H430.9z"/>
		<path class="st1" d="M40.82,129.86c0,0-2.21,0.24-5.95,0.24c-3.74,0-5.87-2.34-5.87-6.24V99.08h12.22V84.75H29V69.64H12.23v15.11
			h-9.4v14.34h9.4v26.97c0,13.68,6.87,18.46,17.2,18.46c7.22,0,11.38-0.71,11.38-0.71V129.86z"/>
	</g>
</g>
</svg>
