<svg xmlns="http://www.w3.org/2000/svg" width="264.6" height="264.6" viewBox="0 0 264.6 264.6"><defs><style>.cls-1{fill:#c4c4c4;}.cls-2{fill:#38444a;}.cls-3{fill:#39a4d3;}.cls-4{fill:#1f6e90;}</style></defs><title>C-icon-4C</title><g id="Layer_2" data-name="Layer 2"><g id="a"><circle class="cls-1" cx="132.3" cy="132.3" r="132.3"/><path class="cls-2" d="M117.78,213h-5.44q-16.95,0-30.13-14.22Q70.6,186.17,64,165.31a125.58,125.58,0,0,1-6.07-38q0-28.33,12.35-50.38,8.79-15.64,23.12-22a40.38,40.38,0,0,1,16.32-3.2h8.06V213Z"/><path class="cls-3" d="M185.57,185.34a26.42,26.42,0,0,1-7,18.61q-8.58,9-24.38,9H133.25V182h52.31v3.32Z"/><path class="cls-4" d="M191,134.61h-7.43q-27,0-38.71-10.55T133.26,88.15V51.64H191Z"/></g></g></svg>
