<?xml version="1.0" encoding="UTF-8"?><svg xmlns="http://www.w3.org/2000/svg" viewBox="0 0 800 314"><defs><style>.c{fill:none;}.d{fill:#442ee0;}</style></defs><g id="a"><rect class="c" x="243" y="-243" width="314" height="800" transform="translate(243 557) rotate(-90)"/></g><g id="b"><path class="d" d="M451.93,99.98h3.87v67.04h-3.87V99.98Zm-216.13,48.46v-3.87h26.96v3.87h-26.96Zm408.77-48.46h3.87v67.04h-3.87V99.98Zm21.92,0h-12.89v3.87h12.89c16.38,0,29.46,13.28,29.46,29.65s-13.08,29.65-29.46,29.65h-12.89v3.87h12.89c18.51,0,33.52-15.01,33.52-33.52s-15.01-33.52-33.52-33.52ZM134.49,165.08c-16.91,0-30.43-14.14-30.43-31.59s13.52-31.59,30.43-31.59c10.16,0,19.13,5.12,24.7,12.97l3.09-2.33c-6.28-8.79-16.37-14.52-27.79-14.52-19.05,0-34.49,15.87-34.49,35.45s15.44,35.46,34.49,35.46c11.42,0,21.51-5.73,27.79-14.52l-3.09-2.33c-5.57,7.85-14.55,12.97-24.7,12.97Zm232.56-31.26c10.96,0,18.62-6.96,18.62-16.92s-7.66-16.92-18.62-16.92h-22.88v67.04h3.87v-33.2h19.02Zm14.56-16.92c0,9.64-7.75,13.06-14.56,13.06h-19.02v-26.11h19.02c6.8,0,14.56,3.42,14.56,13.06Zm-11.63,20.56l-3.33,1.96,16.64,28.25,3.33-1.96-16.64-28.25Zm167.51,10.99v-3.87h26.96v3.87h-26.96Zm15.7-48.46h-4.43l-28.49,66.16,3.55,1.53,27.16-63.19,27.16,63.19,3.55-1.53-28.49-66.16Zm-301.69,0h-4.43l-28.49,66.16,3.55,1.53,27.16-63.12,27.16,63.12,3.55-1.53-28.49-66.16Zm16.88,98.37l-5.62,15.3v.33h1.94l1.58-4.41h6.69l1.6,4.41h1.92v-.33l-5.6-15.3h-2.52Zm-1.56,9.64l2.71-7.54h.21l2.69,7.54h-5.62Zm27.76,3.88h-.21l-4.83-13.52h-1.92v.32l5.6,15.3h2.52l5.62-15.3v-.32h-1.94l-4.83,13.52Zm17.95-13.78c-4.51,0-7.69,3-7.69,8.07,0,5.08,3.18,8.08,7.69,8.08,4.51,0,7.71-3,7.71-8.08,0-5.08-3.2-8.07-7.71-8.07Zm0,14.54c-3.46,0-5.75-2.41-5.75-6.47,0-4.06,2.29-6.47,5.75-6.47,3.46,0,5.75,2.41,5.75,6.47,0,4.06-2.29,6.47-5.75,6.47Zm14.95-14.28h-1.97v15.63h10.3v-1.65h-8.33v-13.97Zm25.96,.32v-.32h-2.37l-8.33,7.68h-.21v-7.68h-1.97v15.63h1.97v-5.34l3.23-2.93,5.73,8.27h2.11v-.33l-6.45-9.22,6.3-5.75Zm9.96-.56c-3.61,0-5.87,1.73-5.87,4.25,0,2.52,1.88,3.64,4.81,4.32l1.6,.37c2.09,.48,3.59,.96,3.59,2.8,0,1.84-1.64,2.8-4.02,2.8s-4.4-.96-4.7-3.63h-1.88v.33c.41,3.08,2.88,4.86,6.6,4.86,3.74,0,5.96-1.78,5.96-4.5,0-2.71-1.97-3.69-4.96-4.39l-1.6-.37c-2.09-.48-3.44-1.02-3.44-2.65,0-1.69,1.62-2.65,3.93-2.65s4.12,.95,4.25,3.41h1.88v-.33c-.26-2.89-2.54-4.64-6.16-4.64Zm25.28,13.52h-.21l-3.7-13.28h-2.16l-3.7,13.28h-.21l-3.25-13.28h-1.92v.32l3.93,15.3h2.52l3.61-12.98h.21l3.59,12.98h2.52l3.93-15.3v-.32h-1.92l-3.25,13.28Zm13.64-13.28l-5.62,15.3v.33h1.94l1.58-4.41h6.69l1.6,4.41h1.92v-.33l-5.6-15.3h-2.52Zm-1.56,9.64l2.71-7.54h.21l2.69,7.54h-5.62Zm35.37-1.2h7.76v-1.65h-7.76v-5.15h8.82v-1.65h-10.79v15.63h11v-1.65h-9.04v-5.53Zm24.28,4.34h-.21l-7.69-12.78h-2.39v15.63h1.92v-12.79h.21l7.67,12.79h2.39v-15.63h-1.9v12.78Zm46.9-8.27c0-2.84-2.16-4.51-4.81-4.51h-7.2v15.63h1.97v-6.6h3.72l4.06,6.6h2.07v-.33l-3.95-6.31c2.35-.26,4.14-1.87,4.14-4.47Zm-5.15,2.87h-4.89v-5.73h4.89c1.88,0,3.18,1.02,3.18,2.87,0,1.84-1.3,2.87-3.18,2.87Zm17.26-7.64c-4.51,0-7.69,3-7.69,8.07,0,5.08,3.18,8.08,7.69,8.08,4.51,0,7.71-3,7.71-8.08,0-5.08-3.2-8.07-7.71-8.07Zm0,14.54c-3.46,0-5.75-2.41-5.75-6.47,0-4.06,2.29-6.47,5.75-6.47,3.46,0,5.75,2.41,5.75,6.47,0,4.06-2.29,6.47-5.75,6.47Zm23.15-4.34c0,2.95-1.5,4.34-4.1,4.34-2.63,0-4.12-1.39-4.12-4.34v-9.94h-1.97v9.85c0,3.82,2.12,6.04,6.09,6.04,3.97,0,6.07-2.21,6.07-6.04v-9.85h-1.97v9.94Zm14.75-9.94h-6.73v15.63h1.97v-6.68h4.76c2.69,0,4.85-1.63,4.85-4.47,0-2.84-2.16-4.47-4.85-4.47Zm-.34,7.29h-4.42v-5.64h4.42c1.94,0,3.23,1.04,3.23,2.82,0,1.78-1.28,2.82-3.23,2.82Zm24.54,6.99c-3.4,0-5.73-2.41-5.73-6.47s2.33-6.47,5.73-6.47,4.59,2.14,4.76,3.73h1.86v-.32c-.28-2.19-2.18-5.01-6.62-5.01-4.47,0-7.67,3-7.67,8.07,0,5.08,3.2,8.08,7.67,8.08,4.49,0,6.41-2.95,6.75-5.01v-.33h-1.86c-.26,1.54-1.5,3.74-4.89,3.74Zm18.86-14.54c-4.51,0-7.69,3-7.69,8.07,0,5.08,3.18,8.08,7.69,8.08,4.51,0,7.71-3,7.71-8.08,0-5.08-3.2-8.07-7.71-8.07Zm0,14.54c-3.46,0-5.75-2.41-5.75-6.47,0-4.06,2.29-6.47,5.75-6.47,3.46,0,5.75,2.41,5.75,6.47,0,4.06-2.29,6.47-5.75,6.47Zm21.59-.69h-.21l-5.79-13.59h-2.5v15.63h1.92v-12.24h.21l5.21,12.24h2.09l5.21-12.24h.21v12.24h1.9v-15.63h-2.5l-5.77,13.59Zm21.18-13.59h-6.73v15.63h1.97v-6.68h4.76c2.69,0,4.85-1.63,4.85-4.47,0-2.84-2.16-4.47-4.85-4.47Zm-.34,7.29h-4.42v-5.64h4.42c1.94,0,3.23,1.04,3.23,2.82,0,1.78-1.28,2.82-3.23,2.82Zm13.41-7.29l-5.62,15.3v.33h1.94l1.58-4.41h6.69l1.6,4.41h1.92v-.33l-5.6-15.3h-2.52Zm-1.56,9.64l2.71-7.54h.21l2.69,7.54h-5.62Zm24.75,3.15h-.21l-7.69-12.78h-2.39v15.63h1.92v-12.79h.21l7.67,12.79h2.39v-15.63h-1.9v12.78Zm13.7-5.12h-.21l-4.79-7.66h-2.14v.32l6.05,9.36v5.95h1.97v-5.95l6.02-9.36v-.32h-2.11l-4.79,7.66Zm-271.47-7.92c-4.49,0-7.67,3-7.67,8.09,0,5.06,3.25,8.03,7.48,8.03,3.08,0,4.29-1.54,4.81-2.26h.21l.43,2.02h1.37v-8.83h-7.07v1.65h5.28v1.2c-.04,2.39-1.47,4.64-4.81,4.64-3.46,0-5.75-2.41-5.75-6.45,0-4.01,2.24-6.49,5.75-6.49,3.12,0,4.49,1.82,4.84,3.4h1.77v-.71c-.62-2.12-2.78-4.3-6.62-4.3Zm61.14,0c-4.49,0-7.67,3-7.67,8.09s3.25,8.03,7.48,8.03c3.08,0,4.29-1.54,4.81-2.26h.21l.43,2.02h1.37v-8.83h-7.07v1.65h5.28v1.2c-.04,2.39-1.47,4.64-4.81,4.64-3.46,0-5.75-2.41-5.75-6.45,0-4.01,2.24-6.49,5.75-6.49,3.12,0,4.49,1.82,4.84,3.4h1.77v-.71c-.62-2.12-2.78-4.3-6.62-4.3Z"/></g></svg>