<svg id="artwork" xmlns="http://www.w3.org/2000/svg" viewBox="0 0 310 240"><title>661602 Carvel OSS Logo</title>
<metadata><?xpacket begin="﻿" id="W5M0MpCehiHzreSzNTczkc9d"?>
<x:xmpmeta xmlns:x="adobe:ns:meta/" x:xmptk="Adobe XMP Core 6.0-c002 79.164352, 2020/01/30-15:50:38        ">
   <rdf:RDF xmlns:rdf="http://www.w3.org/1999/02/22-rdf-syntax-ns#">
      <rdf:Description rdf:about=""
            xmlns:lr="http://ns.adobe.com/lightroom/1.0/"
            xmlns:dc="http://purl.org/dc/elements/1.1/"
            xmlns:xmp="http://ns.adobe.com/xap/1.0/"
            xmlns:xmpMM="http://ns.adobe.com/xap/1.0/mm/"
            xmlns:stEvt="http://ns.adobe.com/xap/1.0/sType/ResourceEvent#">
         <lr:hierarchicalSubject>
            <rdf:Bag>
               <rdf:li>open source identity|661602</rdf:li>
               <rdf:li>open source identity|Carvel</rdf:li>
               <rdf:li>open source identity</rdf:li>
            </rdf:Bag>
         </lr:hierarchicalSubject>
         <dc:subject>
            <rdf:Bag>
               <rdf:li>661602</rdf:li>
               <rdf:li>Carvel</rdf:li>
               <rdf:li>open source identity</rdf:li>
            </rdf:Bag>
         </dc:subject>
         <dc:title>
            <rdf:Alt>
               <rdf:li xml:lang="x-default">661602 Carvel OSS Logo</rdf:li>
            </rdf:Alt>
         </dc:title>
         <xmp:MetadataDate>2020-10-20T12:45:20-07:00</xmp:MetadataDate>
         <xmpMM:InstanceID>xmp.iid:454eefd2-e686-4c61-b069-76e6cdb6e93a</xmpMM:InstanceID>
         <xmpMM:DocumentID>xmp.did:bedec835-13da-44fc-9d94-9670d97c4ad8</xmpMM:DocumentID>
         <xmpMM:OriginalDocumentID>xmp.did:bedec835-13da-44fc-9d94-9670d97c4ad8</xmpMM:OriginalDocumentID>
         <xmpMM:History>
            <rdf:Seq>
               <rdf:li>
                  <rdf:Description>
                     <stEvt:action>saved</stEvt:action>
                     <stEvt:instanceID>xmp.iid:bedec835-13da-44fc-9d94-9670d97c4ad8</stEvt:instanceID>
                     <stEvt:when>2020-10-20T12:40:16-07:00</stEvt:when>
                     <stEvt:softwareAgent>Adobe Bridge 2020 (Macintosh)</stEvt:softwareAgent>
                     <stEvt:changed>/metadata</stEvt:changed>
                  </rdf:Description>
               </rdf:li>
               <rdf:li>
                  <rdf:Description>
                     <stEvt:action>saved</stEvt:action>
                     <stEvt:instanceID>xmp.iid:454eefd2-e686-4c61-b069-76e6cdb6e93a</stEvt:instanceID>
                     <stEvt:when>2020-10-20T12:45:20-07:00</stEvt:when>
                     <stEvt:softwareAgent>Adobe Bridge 2020 (Macintosh)</stEvt:softwareAgent>
                     <stEvt:changed>/metadata</stEvt:changed>
                  </rdf:Description>
               </rdf:li>
            </rdf:Seq>
         </xmpMM:History>
      </rdf:Description>
   </rdf:RDF>
</x:xmpmeta>
                                                                                                    
                                                                                                    
                                                                                                    
                                                                                                    
                                                                                                    
                                                                                                    
                                                                                                    
                                                                                                    
                                                                                                    
                                                                                                    
                                                                                                    
                                                                                                    
                                                          
<?xpacket end="w"?></metadata>
<defs><style>.cls-1{fill:#727074;}.cls-2{fill:#fff;}.cls-3{fill:none;}.cls-4{fill:#17bed2;}.cls-5{fill:#794499;}.cls-6{fill:#1e4488;}.cls-7{fill:#208fce;}</style></defs><path class="cls-1" d="M48.32,202.14a21.73,21.73,0,0,1-7.76-7.83,21,21,0,0,1,0-21.21,21.78,21.78,0,0,1,7.76-7.79,20.34,20.34,0,0,1,18.51-1.26,21.16,21.16,0,0,1,6.78,4.64l-3.18,3.24a16.65,16.65,0,0,0-5.31-3.84,15.35,15.35,0,0,0-14.46.93,17.27,17.27,0,0,0-6,6.24,17,17,0,0,0,0,16.89,17.6,17.6,0,0,0,6,6.24,15.26,15.26,0,0,0,14.46,1,16.5,16.5,0,0,0,5.31-3.84l3.18,3.24a21.93,21.93,0,0,1-6.78,4.62,19.85,19.85,0,0,1-8,1.68A20.13,20.13,0,0,1,48.32,202.14Z"/><path class="cls-1" d="M107.75,195h-23l-4.14,9.36h-5.1l18.18-41.21h5.1L117,204.33h-5.1Zm-1.92-4.44-9.54-21.66-9.6,21.66Z"/><path class="cls-1" d="M153.49,182.55a13.18,13.18,0,0,1-4.59,4.62,16,16,0,0,1-6.6,2.22l10.5,14.94h-5.34L137,189.51H127.9v14.82h-4.68V163.12H140a17.43,17.43,0,0,1,7.68,1.68,13.5,13.5,0,0,1,5.49,4.7,12.58,12.58,0,0,1,.36,13.05Zm-25.59,2.52h11.22a13.23,13.23,0,0,0,8.19-2.34,8.21,8.21,0,0,0,0-12.84,13.22,13.22,0,0,0-8.19-2.33H127.9Z"/><path class="cls-1" d="M199.23,163.12l-18.17,41.21H176l-18.18-41.21h5.1l15.66,35.45,15.59-35.45Z"/><path class="cls-1" d="M210.21,167.56v13.55h22.38v4.44H210.21v14.34h24.84v4.44H205.47V163.12h29.58v4.44Z"/><path class="cls-1" d="M270.32,199.89v4.44H243.15V163.12h4.68v36.77Z"/><circle class="cls-2" cx="158.37" cy="78.88" r="45.74"/><path class="cls-3" d="M132.82,116.82a45.72,45.72,0,0,0,57.06-4.8C167.07,117.93,144.12,117.53,132.82,116.82Z"/><path class="cls-3" d="M193.21,79.91c3.36-.1,7-.06,10.89-.28,0-.25,0-.5,0-.75A45.75,45.75,0,0,0,118,57.44c9.34,5,24.47,11.51,48.52,18.7C171.3,77.58,188.18,80.06,193.21,79.91Z"/><path class="cls-3" d="M102.4,38.92s0,.84.07,2.36C102.45,40.5,102.42,39.72,102.4,38.92Z"/><path class="cls-1" d="M158.37,26.38A52.48,52.48,0,0,0,112.1,54.09c1.64,1,3.57,2.14,5.86,3.35a45.75,45.75,0,0,1,86.16,21.44c0,.25,0,.5,0,.75a45.51,45.51,0,0,1-.45,5.76.41.41,0,0,0,0,.11A47,47,0,0,1,202,92.76q-.25.81-.54,1.59a45,45,0,0,1-2.59,5.85c-.12.23-.24.47-.37.7a44.91,44.91,0,0,1-3.88,5.91l-.18.22a45.73,45.73,0,0,1-61.59,9.79c-3.51-.22-5.9-.47-6.8-.58l0,.05-.33-.08h-.12v0l-5.29-1.31-.25-.14a52.49,52.49,0,0,0,81.82-6.45c.66-1,1.27-2,1.87-3a1.62,1.62,0,0,1,.1-.18,53.12,53.12,0,0,0,2.54-5c.12-.27.25-.54.37-.82a52,52,0,0,0,2.05-5.82c.14-.49.29-1,.42-1.49a51.71,51.71,0,0,0,1.37-7.72.49.49,0,0,0,0-.12,50.17,50.17,0,0,0,.27-5.23v0A52.5,52.5,0,0,0,158.37,26.38Z"/><path class="cls-1" d="M108.06,85.42c-.13-.57-.27-1.12-.4-1.72C107.79,84.28,107.93,84.85,108.06,85.42Z"/><path class="cls-1" d="M108.37,86.77c.11.45.22.88.33,1.31-.23-.88-.43-1.77-.64-2.66C108.16,85.87,108.27,86.34,108.37,86.77Z"/><path class="cls-1" d="M107.66,83.7c-.24-1.09-.48-2.19-.7-3.28C107.19,81.55,107.42,82.64,107.66,83.7Z"/><path class="cls-4" d="M176.14,91.53s-43.86-6.65-63.32-16.67a31.08,31.08,0,0,1-5.64-3.58l.24,1.12c.72,3.32,1.6,6.78,2.66,10.32.5.19,1.45.54,2.81,1,11.92,4.25,54.59,18.46,86,16.46a45,45,0,0,0,2.59-5.85q.28-.78.54-1.59A137.05,137.05,0,0,1,176.14,91.53Z"/><path class="cls-4" d="M102.64,71.8l0-.22-7,10,0,0,3.34,6.33,0,0,5.71-5.09C103.94,79.5,103.25,75.84,102.64,71.8Z"/><path class="cls-5" d="M150.16,79.4c-17.29-5-28.66-9.87-35.66-13.48-2.57-1.32-4.55-2.47-6-3.39-1.76-1.1-2.78-1.86-3.18-2.17,0,0,0,.1,0,.15.37,2.74.84,5.67,1.44,8.76.13.66.27,1.34.41,2a31.08,31.08,0,0,0,5.64,3.58c19.46,10,63.32,16.67,63.32,16.67A137.05,137.05,0,0,0,202,92.76a47,47,0,0,0,1.67-7.26.41.41,0,0,1,0-.11C189.13,87.23,170.58,85.28,150.16,79.4Z"/><path class="cls-5" d="M125.6,116.2h.12l-.13,0Z"/><path class="cls-5" d="M118.28,100.91l-1.44-.46,0,.06A105.52,105.52,0,0,0,126,116.24c.9.11,3.29.36,6.8.58,11.3.71,34.25,1.11,57.06-4.8a45.53,45.53,0,0,0,4.53-5l.18-.22A170.88,170.88,0,0,1,118.28,100.91Z"/><path class="cls-5" d="M101.21,60.09,91.57,72.93l0,0,4,8.61,7-10q-.77-5.1-1.35-11C101.24,60.44,101.23,60.26,101.21,60.09Z"/><path class="cls-5" d="M109.44,99.43l-2.33,1.73s4.33,5.59,4.74,6c.78.8,1.5,1.45,2.14,2a62.27,62.27,0,0,1-4.51-9.65A.36.36,0,0,1,109.44,99.43Z"/><path class="cls-6" d="M166.48,76.14C142.43,69,127.3,62.42,118,57.44c-2.29-1.21-4.22-2.34-5.86-3.35a39.59,39.59,0,0,1-7.91-6c.16,3.29.48,7.46,1.12,12.25.4.31,1.42,1.07,3.18,2.17,1.46.92,3.44,2.07,6,3.39,7,3.61,18.37,8.5,35.66,13.48,20.42,5.88,39,7.83,53.49,6a45.51,45.51,0,0,0,.45-5.76c-3.84.22-7.53.18-10.89.28C188.18,80.06,171.3,77.58,166.48,76.14Z"/><path class="cls-6" d="M112.89,83.74c-1.36-.48-2.31-.83-2.81-1l0,.17a125,125,0,0,0,6.71,17.56l1.44.46a170.88,170.88,0,0,0,76.31,5.9,44.91,44.91,0,0,0,3.88-5.91c.13-.23.25-.47.37-.7C167.48,102.2,124.81,88,112.89,83.74Z"/><path class="cls-6" d="M107,80.42c-.33-1.58-.65-3.23-1-4.94a232.6,232.6,0,0,1-3.53-34.2c0-1.52-.07-2.36-.07-2.36L100,40.46q.12,4.23.33,8.18c0,.39.05.76.07,1.15L89.21,67.41,91.55,73l9.66-12.88c0,.17,0,.35.05.52q.58,5.88,1.35,11l0,.22c.61,4,1.3,7.7,2,11L99,87.94v0c.1.19,2.42,4.46,4,6.91s3.87,5.82,4.2,6.3l2.33-1.74a.36.36,0,0,0,0,.09,62.27,62.27,0,0,0,4.51,9.65,25.46,25.46,0,0,0,2.28,3.34,1.18,1.18,0,0,0,.27.23l3.51,2,.25.14s-6.51-6.56-11.6-26.79C108.05,85.55,107.48,83,107,80.42Z"/><path class="cls-7" d="M126,116.24a105.52,105.52,0,0,1-9.15-15.73l0-.06a125,125,0,0,1-6.71-17.56l0-.17c-1.06-3.54-1.94-7-2.66-10.32l-.24-1.12c-.14-.67-.28-1.35-.41-2-.6-3.09-1.07-6-1.44-8.76,0,0,0-.1,0-.15-.64-4.79-1-9-1.12-12.25-.24-5-.11-7.93-.11-7.93l-1.68-1.26c0,.8,0,1.58.07,2.36,0,.44,0,.95.06,1.49A210.74,210.74,0,0,0,106,75.48c.31,1.71.63,3.36,1,4.94.46,2.24.94,4.37,1.41,6.35.11.45.22.88.33,1.31,5.09,20.23,11.6,26.79,11.6,26.79l5.29,1.31.13,0,.33.08Z"/></svg>