<?xml version="1.0" encoding="utf-8"?>
<!-- Generator: Adobe Illustrator 21.1.0, SVG Export Plug-In . SVG Version: 6.00 Build 0)  -->
<svg version="1.1" id="Layer_1" xmlns="http://www.w3.org/2000/svg" xmlns:xlink="http://www.w3.org/1999/xlink" x="0px" y="0px"
	 width="600px" height="125.2px" viewBox="0 0 600 125.2" enable-background="new 0 0 600 125.2" xml:space="preserve">
<g id="XMLID_101_">
	<g id="XMLID_134_">
		<polygon id="XMLID_21_" fill="#7E9C35" points="125.2,62.6 73.5,91.3 21.9,62.6 21.9,31.3 73.5,60 97,47 		"/>
		<polygon id="XMLID_20_" fill="#B2D235" points="125.2,31.3 73.5,60 21.9,31.3 50,15.7 73.5,28.7 125.2,0 		"/>
		<g id="XMLID_135_">
			<polygon id="XMLID_19_" fill="#1E424F" points="125.2,62.6 125.2,31.3 97,47 			"/>
			<path id="XMLID_18_" fill="#1D414E" d="M21.9,62.6V31.3L50,15.7L21.9,0h-9C5.8,0,0,5.8,0,13v99.3c0,7.1,5.9,12.9,13,12.9h99.3
				c7.1,0,12.9-5.9,12.9-13V62.6L73.5,91.3L21.9,62.6z"/>
		</g>
	</g>
	<g id="XMLID_102_">
		<g id="XMLID_103_">
			<path id="XMLID_132_" fill="#1D414E" d="M176.3,85.7c-3,0-5.6-0.5-7.9-1.5c-2.3-1-4.3-2.4-5.8-4.2c-1.6-1.8-2.8-3.9-3.7-6.3
				c-0.8-2.4-1.3-5.1-1.3-7.9c0-2.8,0.4-5.4,1.3-7.9c0.8-2.4,2.1-4.5,3.7-6.3c1.6-1.8,3.5-3.2,5.8-4.2c2.3-1,5-1.5,7.9-1.5
				c4.7,0,8.6,0.9,11.5,2.8l-0.8,8.2c-3.2-2.1-6.5-3.2-9.9-3.2c-3.1,0-5.4,1.1-7.1,3.3c-1.7,2.2-2.5,5.1-2.5,8.8
				c0,3.7,0.8,6.6,2.5,8.8c1.7,2.2,4.1,3.3,7.1,3.3c3.4,0,6.7-1.1,9.9-3.2l0.8,8.2C184.9,84.8,181,85.7,176.3,85.7z"/>
			<path id="XMLID_129_" fill="#1D414E" d="M227.5,77.9l-0.8,7.8h-3.5c-4.2,0-7-1.5-8.6-4.5c-2.7,3-6.6,4.5-11.8,4.5
				c-1.6,0-3.1-0.3-4.4-0.8c-1.4-0.5-2.5-1.3-3.5-2.3c-1-1-1.8-2.2-2.3-3.6c-0.6-1.4-0.8-3-0.8-4.8c0-2.6,0.8-4.8,2.3-6.5
				c1.5-1.7,3.4-3.1,5.6-4.2c2.2-1.1,4.6-1.8,7-2.3c2.5-0.5,4.7-0.7,6.7-0.8c-0.1-2.3-0.7-3.9-1.7-4.9c-1-0.9-2.8-1.4-5.2-1.4
				c-3,0-6.5,1-10.5,2.9l-0.8-7.8c4.8-2.3,9.4-3.4,14-3.4c9.3,0,13.9,5.2,13.9,15.5v10.4c0,1.4,0,2.5,0.1,3.3
				c0.1,0.8,0.2,1.5,0.5,1.9s0.6,0.7,1,0.8c0.5,0.1,1.1,0.2,1.8,0.2H227.5z M213.4,75.7v-8.8c-1.5,0.1-2.9,0.3-4.3,0.6
				c-1.4,0.3-2.7,0.8-3.7,1.3c-1.1,0.6-1.9,1.3-2.6,2.1c-0.7,0.8-1,1.8-1,2.8c0,3.1,1.7,4.6,5.2,4.6
				C209.2,78.4,211.4,77.5,213.4,75.7z"/>
			<path id="XMLID_127_" fill="#1D414E" d="M251.9,77.9l-0.8,7.8h-6.9c-1.7,0-3.2-0.3-4.5-0.8c-1.3-0.5-2.4-1.3-3.2-2.2
				c-0.9-0.9-1.5-2-2-3.2c-0.4-1.2-0.7-2.5-0.7-3.9V54.3h-5.5l0.8-7.9h4.6V38l9.5-1v9.5h8.5v7.9h-8.5v17.4c0,1.5,0.1,2.6,0.2,3.5
				c0.1,0.8,0.3,1.4,0.7,1.8c0.4,0.4,1,0.7,1.7,0.7c0.8,0.1,1.8,0.1,3.2,0.1H251.9z"/>
			<path id="XMLID_124_" fill="#1D414E" d="M291.6,77.9l-0.8,7.8h-3.5c-4.2,0-7-1.5-8.6-4.5c-2.7,3-6.6,4.5-11.8,4.5
				c-1.6,0-3.1-0.3-4.4-0.8c-1.4-0.5-2.5-1.3-3.5-2.3c-1-1-1.8-2.2-2.3-3.6c-0.6-1.4-0.8-3-0.8-4.8c0-2.6,0.8-4.8,2.3-6.5
				c1.5-1.7,3.4-3.1,5.6-4.2c2.2-1.1,4.6-1.8,7-2.3c2.5-0.5,4.7-0.7,6.7-0.8c-0.1-2.3-0.7-3.9-1.7-4.9c-1-0.9-2.8-1.4-5.2-1.4
				c-3,0-6.5,1-10.5,2.9l-0.8-7.8c4.8-2.3,9.4-3.4,14-3.4c9.3,0,13.9,5.2,13.9,15.5v10.4c0,1.4,0,2.5,0.1,3.3
				c0.1,0.8,0.2,1.5,0.5,1.9c0.2,0.4,0.6,0.7,1,0.8c0.5,0.1,1.1,0.2,1.8,0.2H291.6z M277.4,75.7v-8.8c-1.5,0.1-2.9,0.3-4.3,0.6
				c-1.4,0.3-2.7,0.8-3.7,1.3c-1.1,0.6-1.9,1.3-2.6,2.1c-0.7,0.8-1,1.8-1,2.8c0,3.1,1.7,4.6,5.2,4.6
				C273.3,78.4,275.4,77.5,277.4,75.7z"/>
			<path id="XMLID_122_" fill="#1D414E" d="M310.7,77.9l-0.8,7.8h-3.5c-3.3,0-5.7-0.9-7.4-2.8c-1.6-1.9-2.5-4.3-2.5-7.3V27.2h9.5
				v44.5c0,1.5,0,2.6,0.1,3.5c0.1,0.8,0.3,1.4,0.6,1.8c0.3,0.4,0.8,0.6,1.4,0.7C308.8,77.8,309.6,77.9,310.7,77.9z"/>
			<path id="XMLID_120_" fill="#1D414E" d="M352.5,46.5l-24.1,57.1h-9.5l8.5-21.2l-16-35.9H322l9.9,24.8l10-24.8H352.5z"/>
			<path id="XMLID_118_" fill="#1D414E" d="M367.1,85.7c-5.8,0-10.2-0.9-13-2.8l0.8-8.2c0.6,0.5,1.4,0.9,2.3,1.4s1.9,0.9,3,1.2
				c1.1,0.4,2.1,0.7,3.3,0.9c1.1,0.2,2.2,0.3,3.2,0.3c2.2,0,3.7-0.4,4.5-1.2c0.9-0.8,1.3-1.8,1.3-3c0-1.1-0.3-2-0.9-2.6
				c-0.6-0.6-1.5-1.1-2.7-1.5s-2.6-0.9-4.2-1.4c-1.6-0.5-3.5-1.2-5.5-2.3c-1.5-0.9-2.7-1.9-3.5-3.2c-0.8-1.3-1.2-3-1.4-5.3
				c0-1.6,0.3-3.1,0.8-4.6c0.5-1.5,1.4-2.8,2.5-3.9c1.1-1.1,2.6-2,4.3-2.7c1.8-0.7,3.9-1,6.4-1c2.4,0,4.7,0.3,7,0.8
				c2.3,0.6,4,1.2,5.1,2l-0.8,8.2c-0.6-0.5-1.2-1-2-1.5c-0.8-0.5-1.7-1-2.6-1.3c-0.9-0.4-1.9-0.7-2.9-0.9c-1-0.2-2-0.3-3-0.3
				c-1.8,0-3.4,0.3-4.6,1c-1.2,0.7-1.8,1.8-1.8,3.2c0,1.2,0.4,2.2,1.2,2.8c0.8,0.6,1.9,1.2,3.2,1.7l1.3,0.4c0.3,0.1,0.8,0.2,1.5,0.4
				c0.7,0.2,1.2,0.3,1.6,0.4c1.6,0.5,3,1,4.3,1.6c1.3,0.6,2.4,1.4,3.3,2.3c0.9,0.9,1.6,2,2.1,3.3c0.5,1.3,0.7,2.8,0.7,4.5
				C382.2,82,377.2,85.7,367.1,85.7z"/>
			<path id="XMLID_116_" fill="#1D414E" d="M408.5,77.9l-0.8,7.8h-6.8c-1.7,0-3.2-0.3-4.5-0.8c-1.3-0.5-2.4-1.3-3.2-2.2
				c-0.9-0.9-1.5-2-2-3.2c-0.4-1.2-0.7-2.5-0.7-3.9V54.3H385l0.8-7.9h4.6V38l9.5-1v9.5h8.5v7.9H400v17.4c0,1.5,0.1,2.6,0.2,3.5
				c0.1,0.8,0.3,1.4,0.7,1.8c0.4,0.4,1,0.7,1.7,0.7c0.8,0.1,1.8,0.1,3.2,0.1H408.5z"/>
			<path id="XMLID_114_" fill="#7E9C35" d="M449.6,85.7c-3,0-5.7-0.5-8-1.5s-4.3-2.4-5.9-4.2c-1.6-1.8-2.8-3.8-3.7-6.2
				c-0.8-2.4-1.2-5-1.2-7.8c0-2.9,0.4-5.5,1.2-7.9c0.8-2.4,2-4.5,3.6-6.2c1.6-1.7,3.5-3.1,5.8-4c2.3-0.9,5-1.4,8-1.4
				c5,0,8.9,0.7,11.6,2.2l-1.1,6.2c-3.2-1.5-6.4-2.3-9.8-2.3c-4.2,0-7.3,1.2-9.3,3.5c-2.1,2.3-3.1,5.6-3.1,9.9s1,7.7,3.1,10
				s5.2,3.6,9.3,3.6c3.4,0,6.7-0.8,9.9-2.3l0.9,5.5C458.3,84.8,454.5,85.7,449.6,85.7z"/>
			<path id="XMLID_112_" fill="#7E9C35" d="M480,80.2l-1,5.5h-2.2c-3.4,0-5.9-0.9-7.4-2.6c-1.6-1.7-2.3-3.9-2.3-6.5V27.2h6.9v45.4
				c0,1.6,0.1,2.9,0.2,3.9s0.4,1.8,0.8,2.3c0.4,0.5,1,0.9,1.8,1.1C477.5,80.1,478.6,80.2,480,80.2z"/>
			<path id="XMLID_109_" fill="#7E9C35" d="M514.4,80.2c-3.3,3.7-7.9,5.5-13.6,5.5c-2.9,0-5.5-0.5-7.9-1.5s-4.3-2.4-5.9-4.1
				c-1.6-1.7-2.8-3.8-3.7-6.2c-0.8-2.4-1.3-5-1.3-7.8c0-2.8,0.4-5.4,1.3-7.8c0.9-2.4,2.1-4.5,3.7-6.2c1.6-1.7,3.6-3.1,5.9-4.1
				c2.3-1,4.9-1.5,7.8-1.5c2.9,0,5.5,0.5,7.8,1.5c2.3,1,4.3,2.4,5.9,4.2c1.6,1.8,2.9,3.8,3.7,6.2c0.9,2.4,1.3,5,1.3,7.7
				C519.5,71.8,517.8,76.5,514.4,80.2z M509.4,56.2c-2-2.4-4.8-3.5-8.5-3.5c-3.7,0-6.6,1.2-8.6,3.5c-2,2.3-3,5.7-3,10
				c0,4.3,1,7.6,3,10s4.9,3.5,8.6,3.5c3.7,0,6.6-1.2,8.6-3.6c2-2.4,3-5.7,3-9.9C512.4,61.9,511.4,58.5,509.4,56.2z"/>
			<path id="XMLID_107_" fill="#7E9C35" d="M557.4,85h-6.2l-0.8-4.2c-2.4,3.3-5.8,4.9-10.5,4.9c-9.3,0-13.9-5.5-13.9-16.5V47.3h6.9
				v20c0,8.2,2.9,12.3,8.8,12.3c4,0,6.9-1.4,8.7-4.3v-28h6.9V85z"/>
			<path id="XMLID_104_" fill="#7E9C35" d="M600,85h-6.2l-0.8-4.8c-0.6,0.9-1.4,1.6-2.3,2.3c-0.9,0.7-1.9,1.2-3,1.7
				c-1.1,0.5-2.1,0.9-3.2,1.1c-1.1,0.3-2.1,0.4-3,0.4c-2.4,0-4.7-0.5-6.8-1.5c-2.1-1-3.9-2.4-5.5-4.2c-1.5-1.8-2.7-3.8-3.6-6.2
				c-0.9-2.4-1.3-4.9-1.3-7.7c0-2.6,0.4-5.1,1.2-7.5c0.8-2.4,2-4.5,3.5-6.3c1.5-1.8,3.3-3.2,5.4-4.3c2.1-1.1,4.4-1.6,7-1.6
				c5.1,0,8.9,1.6,11.5,4.8v-24h6.9V85z M582.1,52.6c-1.6,0-3.1,0.3-4.4,1c-1.3,0.7-2.4,1.6-3.3,2.8c-0.9,1.2-1.6,2.6-2.1,4.2
				c-0.5,1.6-0.7,3.5-0.7,5.5c0,1.8,0.2,3.6,0.7,5.2c0.5,1.6,1.2,3.1,2.1,4.3c0.9,1.2,2,2.2,3.3,2.9c1.3,0.7,2.8,1.1,4.5,1.1
				c1.5,0,3-0.3,4.4-0.8c1.4-0.5,2.7-1.4,3.8-2.5s2-2.5,2.6-4.2c0.6-1.7,1-3.6,1-5.8c0-2.2-0.3-4.1-1-5.8c-0.7-1.7-1.6-3.1-2.7-4.3
				s-2.4-2.1-3.8-2.7C585,53,583.6,52.6,582.1,52.6z"/>
		</g>
	</g>
</g>
</svg>
