<?xml version="1.0" encoding="UTF-8"?>
<svg id="_圖層_1" data-name="圖層 1" xmlns="http://www.w3.org/2000/svg" xmlns:xlink="http://www.w3.org/1999/xlink" viewBox="0 0 174.79 181.66">
  <defs>
    <style>
      .cls-1 {
        fill: url(#linear-gradient-2);
      }

      .cls-2 {
        fill: #009043;
      }

      .cls-3 {
        fill: url(#linear-gradient);
      }

      .cls-4 {
        fill: #231815;
      }

      .cls-5 {
        fill: #00492c;
      }
    </style>
    <linearGradient id="linear-gradient" x1="104.06" y1="1.31" x2="41.21" y2="78.93" gradientUnits="userSpaceOnUse">
      <stop offset="0" stop-color="#6fba2c"/>
      <stop offset=".36" stop-color="#42a835"/>
      <stop offset=".79" stop-color="#12963f"/>
      <stop offset="1" stop-color="#009043"/>
    </linearGradient>
    <linearGradient id="linear-gradient-2" x1="123.76" y1="-1.08" x2="48.81" y2="91.48" gradientUnits="userSpaceOnUse">
      <stop offset="0" stop-color="#45b035"/>
      <stop offset=".22" stop-color="#2ca439"/>
      <stop offset=".52" stop-color="#14993e"/>
      <stop offset=".78" stop-color="#059241"/>
      <stop offset="1" stop-color="#009043"/>
    </linearGradient>
  </defs>
  <g>
    <g>
      <path class="cls-5" d="m61.81,34.88c24.48-10.98,49.31-14.15,68.38-10.22-2.13-.97-4.29-2.64-5.6-5-3.52-6.34-10.41-10.12-18.29-9.24-3.25.36-6.45-.46-8.57-1.9-2.96-2.02-6.31-3.27-10.36-3.27s-7.4,1.26-10.36,3.27c-2.11,1.44-5.32,2.26-8.57,1.9-7.89-.88-14.78,2.9-18.3,9.24-1.57,2.83-4.32,4.63-6.85,5.49-6.28,2.14-11.45,7.86-12.15,15.32-.32,3.52-2.39,6.29-3.94,7.84-4.21,4.22-5.98,9.14-5.98,14.19,0,.08,0,.17,0,.25,10.31-10.73,24.19-20.52,40.58-27.87Z"/>
      <path class="cls-5" d="m83.41,49.27c20.92-9.38,42.1-13.06,59.72-11.49-1.52-6.11-6.09-10.67-11.69-12.63h0c-.41-.13-.83-.3-1.25-.49-19.07-3.93-43.91-.75-68.38,10.22-16.38,7.35-30.26,17.14-40.58,27.87.12,9.91,7.52,18.08,17.11,19.39,10.6-12.67,26.17-24.4,45.07-32.88Z"/>
      <path class="cls-5" d="m147.53,48.31c-1.55-1.55-3.62-4.33-3.95-7.84-.09-.92-.24-1.82-.45-2.69-17.62-1.58-38.8,2.1-59.72,11.49-18.9,8.48-34.47,20.21-45.07,32.88.89.12,1.8.18,2.72.18h28.46c2.7,0,4.9,2.24,4.9,4.94v1.15c0,4.55-4.49,5.16-4.49,5.16l-23.14,3.98c-.82.13-1.53.7-1.53,1.51v2.84h84.25v-2.84c0-.81-.71-1.38-1.53-1.51l-23.14-3.98s-4.49-.61-4.49-5.16v-1.15c0-2.7,2.19-4.94,4.89-4.94h28.46c10.95,0,19.83-8.88,19.83-19.83,0-5.05-1.77-9.97-5.98-14.19Z"/>
    </g>
    <g>
      <path class="cls-3" d="m61.81,34.89c24.47-10.98,49.31-14.15,68.38-10.22-2.13-.97-4.28-2.64-5.59-5-3.52-6.34-10.41-10.12-18.29-9.25-3.25.36-6.46-.46-8.57-1.9-2.96-2.02-6.31-3.27-10.36-3.27s-7.4,1.26-10.36,3.27c-2.11,1.44-5.33,2.26-8.57,1.9-7.89-.88-14.78,2.9-18.3,9.25-1.57,2.83-4.32,4.63-6.85,5.49-6.28,2.13-11.45,7.86-12.15,15.32-.32,3.51-2.39,6.29-3.94,7.84-4.22,4.22-5.98,9.15-5.98,14.19v.25c10.31-10.73,24.19-20.52,40.58-27.87Z"/>
      <path class="cls-1" d="m83.41,49.27c20.92-9.38,42.1-13.06,59.72-11.49-1.52-6.11-6.09-10.67-11.69-12.63h0c-.41-.14-.83-.3-1.25-.49-19.07-3.93-43.91-.75-68.38,10.22-16.39,7.35-30.26,17.14-40.58,27.87.12,9.92,7.52,18.08,17.11,19.39,10.6-12.66,26.17-24.4,45.07-32.87Z"/>
      <path class="cls-2" d="m147.53,48.31c-1.55-1.55-3.62-4.32-3.94-7.84-.08-.93-.24-1.83-.45-2.69-17.62-1.58-38.8,2.1-59.72,11.49-18.9,8.47-34.47,20.21-45.07,32.87.89.12,1.79.18,2.72.18h28.46c2.7,0,4.9,2.24,4.9,4.95v1.15c0,4.55-4.5,5.16-4.5,5.16l-23.14,3.98c-.82.13-1.53.7-1.53,1.51v2.84h84.24v-2.84c0-.81-.71-1.38-1.53-1.51l-23.15-3.98s-4.49-.61-4.49-5.16v-1.15c0-2.7,2.19-4.94,4.89-4.95h28.47c10.95,0,19.82-8.87,19.82-19.82,0-5.04-1.76-9.97-5.98-14.19Z"/>
    </g>
  </g>
  <g>
    <g>
      <path class="cls-4" d="m100.56,149.01l-1.61-6.14h0c0-.15.13-.25.28-.25h2.72c.27,0,.49.2.49.44l.93,6.14s-.04.07-.08.07h-2.47c-.15,0-.28-.12-.28-.25Zm16-6.39c-.15,0-.28.12-.28.25l-1.61,6.14h0c0,.14.13.25.29.25h2.72c.27,0,.49-.2.49-.44l.93-6.14s-.04-.07-.08-.07h-2.47Zm9.69-8.42l-.47,1.42s-.24.73-.95.39c-2.56-.97-4.77-2.05-6.69-3.18v1.46c0,.19-.16.35-.35.35h-6.54v3.61h9.55c.19,0,.35.15.35.35v1.88c0,.2-.16.35-.35.35h-9.55v9.7h13.2c.19,0,.35.16.35.35v1.88c0,.19-.16.35-.35.35h-30.85c-.19,0-.35-.16-.35-.35v-1.88c0-.19.15-.35.35-.35h13.2v-9.7h-9.55c-.19,0-.35-.15-.35-.35v-1.88c0-.2.16-.35.35-.35h9.55v-3.61h-6.54c-.19,0-.35-.16-.35-.35v-1.46c-1.92,1.13-4.14,2.21-6.69,3.18-.71.33-.95-.39-.95-.39l-.46-1.42s-.09-.6.57-.79c7.6-3.18,11.55-8.23,13.88-11.25.33-.44.94-.53,1.22-.55,0,0,0,0,0,0h3.12,0c.28.03.89.12,1.22.56,2.33,3.02,6.27,8.07,13.88,11.25.66.18.57.79.57.79Zm-9.38-2.15c-3.71-2.38-6.2-4.89-7.84-6.89-1.65,2-4.13,4.51-7.84,6.89h15.69Z"/>
      <path class="cls-4" d="m154.44,129.6c.42,0,.38.35.38.35,0,5-2.5,7.55-7.52,9.2-.42.16-.38-.24-.38-.24v-1.74s0-.2.27-.31c2.92-1.26,3.9-3.25,4.17-6.92,0-.38.46-.35.46-.35h2.62Zm-8.21,2.13h2.05c.23,0,.43-.2.43-.45v-3.74h15.11v3.74c0,.25.19.45.43.45h2.05c.24,0,.43-.2.43-.45v-4.36c0-1.08-.83-1.96-1.87-1.96h-6.7v-2.65c0-.25-.19-.45-.42-.45h-2.94c-.24,0-.43.2-.43.44v2.65h-8.14c-.24,0-.43.2-.43.43v5.89c0,.25.19.45.43.45Zm20.95,18.73h-9.02v-7.12h7.05c.19,0,.35-.15.35-.35v-1.89c0-.19-.16-.35-.35-.35h-17.91c-.19,0-.35.15-.35.35v1.89c0,.2.16.35.35.35h7.05v7.12h-9.02c-.2,0-.35.15-.35.35v1.88c0,.2.15.35.35.35h21.84c.19,0,.35-.15.35-.35v-1.88c0-.19-.16-.35-.35-.35Zm-22.67-12.45c-.02-.12-.13-.13-.18-.1-1,.52-2.02.97-3.06,1.38v-7.57h2.87c.24,0,.43-.18.43-.43v-1.71c0-.24-.19-.44-.43-.44h-2.87v-6.36c0-.23-.19-.43-.43-.43h-2.92c-.24,0-.43.19-.43.43v6.36h-3.83c-.24,0-.43.19-.43.43v1.71c0,.24.19.43.43.43h3.82v8.87c-1.36.41-2.74.8-4.13,1.18-.15.03-.18.17-.13.28.31.66.9,1.99,1.13,2.48.08.17.16.28.43.18.84-.28,1.75-.65,2.69-1.05v6.03c-.02.94-.2,1.46-1.76,1.46h-1.58c-.1,0-.12.07-.13.1v1.86c0,.2.15.35.35.35h2.5c3.9,0,4.4-.51,4.4-3.72v-7.87c1.24-.64,2.43-1.28,3.46-1.88.11-.07.15-.09.11-.3l-.34-1.68Zm14.15-.59c.71.76,2.19.75,3.16.75h3.37c.19,0,.35-.16.35-.35v-2.1s.02-.12-.13-.12h-3.18c-.87-.09-.85-.03-.91-1.25v-4.43s.03-.35-.31-.35h-2.61c-.46,0-.44.35-.44.35v4.51c-.02.98-.02,2.23.7,3Z"/>
      <path class="cls-4" d="m39.79,122.18H9.11c-1.04,0-1.89.84-1.89,1.88v27.52c0,1.04.84,1.89,1.88,1.89h30.67c1.04,0,1.89-.84,1.89-1.88v-27.52c0-1.05-.84-1.89-1.87-1.89Zm-10.17,2.3h2.64c.14.7.33,1.78.52,3.13h-3.11c-.08-1.45-.07-2.54-.06-3.13Zm-18.1,0h14.75c.02.59.07,1.68.21,3.13h-14.96v-3.13Zm25.87,26.69H11.51v-21.24h15.23c.47,3.45,1.39,7.91,3.21,12.07-1.56,2.28-3.43,4.32-5.6,5.81-.19.12-.05.32-.05.32l.69,1.33s.1.27.32.1c2.27-1.28,4.21-3.05,5.87-5.04,1.12,2.01,2.49,3.88,4.18,5.41.17.2.34.04.34.04l1.04-1.24s.14-.11-.02-.25c-1.61-1.91-2.85-4.05-3.82-6.24,1.19-1.73,2.2-3.56,3.08-5.34.15-.29-.11-.38-.11-.38l-2.21-.89s-.25-.1-.34.16c-.47,1.11-1.01,2.23-1.61,3.34-1.07-3.3-1.62-6.56-1.88-9.19h5.57s.8,0,.76-.98c-.32-1.75-.64-3.49-.82-4.47h2.02v26.69Zm-11.99-6.27c-3.51,1.57-9.23,2.77-11.88,2.88h-.03c-.19,0-.35-.16-.35-.35v-2.59c0-.2.16-.35.36-.35h.02c2.36-.06,7.53-.49,11.86-1.73,0,0,.26-.07.26.2v1.62c0,.23-.22.32-.22.32Zm-10.38-3.79h8.72c1.04,0,1.88-.84,1.88-1.89v-5.39c0-1.04-.84-1.88-1.88-1.89h-8.72c-1.04,0-1.89.85-1.89,1.89v5.39c0,1.05.84,1.89,1.88,1.89Zm2.28-7.19h4.16v5.21h-4.16v-5.21Z"/>
      <path class="cls-4" d="m69.52,140.92v8.83c0,3.22-1.18,3.73-4.88,3.72h-1.63c-.29,0-.54-.23-.54-.54v-1.65s-.02-.12.13-.12h.89c1.55,0,1.71-.52,1.73-1.47v-10.23c0-.23.2-.43.43-.43h1.97c1.04,0,1.89.84,1.89,1.88Zm14.84.69c-2.14-1.01-4.58-2.54-6.39-4.32h6.39c.2,0,.35-.16.35-.35v-1.89c0-.19-.15-.35-.35-.35h-21.82c.77-.99,1.48-2,2.13-2.98h15.58c.19,0,.35-.15.35-.35v-1.88c0-.2-.16-.35-.35-.35h-14c.6-1.07,1.12-2.08,1.56-2.98h15.32c.2,0,.35-.15.35-.35v-1.89c0-.19-.15-.35-.35-.35h-14.17c.15-.38.27-.7.35-.94.12-.35.1-.61-.29-.71-.83-.18-2.53-.52-3.02-.65-.66-.17-.78.5-.78.5l-.27.89c-.09.28-.2.59-.31.91h-12.65c-.19,0-.35.15-.35.35v1.89c0,.2.16.35.35.35h11.59c-.42.94-.9,1.94-1.46,2.98h-7.31c-.19,0-.35.15-.35.35v1.88c0,.2.16.35.35.35h5.82c-.63,1-1.31,2.01-2.06,2.98h-7.94c-.19,0-.34.15-.34.35v1.89c0,.19.15.35.34.35h5.73c-1.7,1.77-3.61,3.3-5.75,4.31-.55.18-.29.68-.29.68l.41,1.01s.14.41.64.22c1.35-.48,2.62-1.12,3.82-1.88,2.79.7,6.12,2.2,6.96,2.55.26.14.37-.07.37-.07l1.01-2.13s.17-.27-.11-.39c-1.17-.5-3.78-1.25-5.82-1.7.98-.81,1.9-1.68,2.76-2.59h13.68c.82.86,1.75,1.67,2.75,2.44-1.62.76-4.26,1.34-5.72,1.52-.19.02-.27.14-.22.36.28.84.37,1.51.65,2.35.09.28.22.27.41.22.97-.14,5.19-1.72,7.03-2.96,1.51.94,3.11,1.73,4.69,2.31.49.18.64-.22.64-.22l.41-1.01s.26-.5-.29-.68Zm-20.5,5.8c-.11-.75-.12-.65-.28-1.42,0-.12-.14-.27-.34-.18-3.49,1.81-6.95,2.71-10.73,3.76-.22.08-.29.24-.2.44.31.66.83,1.81,1.05,2.29.08.17.31.3.58.2,3.08-1.04,6.95-3,9.76-4.62.19-.14.19-.26.16-.47Zm18.05,2.3c-3.14-1.47-6.8-2.76-10.08-3.51-.31-.1-.36.14-.36.14l-.64,1.38s-.15.29.14.39c3.15,1.36,5.92,2.47,8.87,4.24.31.14.67.12.87-.16.55-.81.78-1.18,1.33-1.99.11-.17.05-.38-.13-.49Z"/>
    </g>
    <g>
      <path class="cls-4" d="m7.22,168.66c0-2.65.97-5.17,4.71-5.17.83,0,1.72.17,2.3.34l-.25,1.41c-.58-.23-1.32-.37-2-.37-2.23,0-3.1,1.55-3.1,3.82s1,3.49,3.14,3.49c.67,0,1.59-.16,2.11-.35l.16,1.41c-.53.18-1.48.35-2.34.35-3.68,0-4.73-2.3-4.73-4.9v-.02Zm14.52,4.64l-1.28.23c-.25-.33-.4-.76-.47-1.2-.43.81-1.32,1.24-2.23,1.24-1.12,0-2.38-.57-2.38-2.29s.95-2.3,4.41-2.45v-.49c0-.75-.14-1.24-1.31-1.24-.75,0-1.48.22-2.19.59l-.33-1.27c.67-.31,1.71-.58,2.69-.58,1.93,0,2.57.81,2.57,2.49v2.86c0,.94.16,1.72.51,2.13Zm-4.93-2.06c0,.89.75,1.08,1.25,1.08.9,0,1.59-.63,1.75-1.36v-1.02c-2.3.12-3,.31-3,1.29Zm9.55,1.04v1.15l-.69.04c-1.25.06-2.06-.39-2.06-1.75v-4.39h-1.16v-1.19h1.16v-1.66l1.5-.38v2.05h1.53v1.19h-1.53v3.82c0,.86.19,1.13.83,1.13h.43Zm5.38-6.36c1.89,0,2.39,1.18,2.39,2.5v4.98h-1.5v-4.6c0-.94-.32-1.63-1.34-1.63-.71,0-1.42.34-1.81.81v5.42h-1.53v-10.04l1.53-.23v3.69c.48-.49,1.34-.91,2.26-.91Zm10.21,7.38l-1.28.23c-.25-.33-.4-.76-.47-1.2-.43.81-1.31,1.24-2.22,1.24-1.12,0-2.38-.57-2.38-2.29s.95-2.3,4.42-2.45v-.49c0-.75-.14-1.24-1.32-1.24-.75,0-1.48.22-2.19.59l-.33-1.27c.67-.31,1.71-.58,2.69-.58,1.94,0,2.57.81,2.57,2.49v2.86c0,.94.17,1.72.5,2.13Zm-4.93-2.06c0,.89.74,1.08,1.25,1.08.9,0,1.59-.63,1.75-1.36v-1.02c-2.3.12-3,.31-3,1.29Zm10.56-5.19h1.67c-.61,1.83-1.76,5.21-2.5,7.08-.62,1.57-1.23,2.66-1.79,3.28l-1.48-.65c.57-.53,1.24-1.53,1.79-2.86l-2.86-6.84h1.69l1.92,5.21c.53-1.53,1.16-3.73,1.54-5.21Z"/>
      <path class="cls-4" d="m54.21,173.4v-9.71h5.25v1.35h-3.71v2.88h3.31v1.36h-3.31v4.12h-1.54Zm8.21-8.44h-1.58v-1.39h1.58v1.39Zm-.03,8.44h-1.53v-7.35h1.53v7.35Zm3.23-7.46c.1.25.22.7.24.96.48-.53,1.42-.98,2.34-.98,1.89,0,2.4,1.18,2.4,2.5v4.98h-1.52v-4.6c0-.94-.31-1.63-1.34-1.63-.71,0-1.43.34-1.82.78v5.45h-1.52v-5.75c0-.52-.05-1.07-.18-1.52l1.39-.18Zm12.79,7.36l-1.28.23c-.25-.33-.41-.76-.47-1.2-.43.81-1.32,1.24-2.23,1.24-1.12,0-2.37-.57-2.37-2.29s.95-2.3,4.41-2.45v-.49c0-.75-.14-1.24-1.31-1.24-.75,0-1.48.22-2.19.59l-.33-1.27c.67-.31,1.71-.58,2.69-.58,1.93,0,2.57.81,2.57,2.49v2.86c0,.94.16,1.72.5,2.13Zm-4.93-2.06c0,.89.75,1.08,1.25,1.08.9,0,1.59-.63,1.74-1.36v-1.02c-2.3.12-3,.31-3,1.29Zm7.68-5.3c.1.25.22.7.24.96.48-.53,1.42-.98,2.34-.98,1.9,0,2.41,1.18,2.41,2.5v4.98h-1.52v-4.6c0-.94-.32-1.63-1.34-1.63-.71,0-1.42.34-1.82.78v5.45h-1.52v-5.75c0-.52-.05-1.07-.18-1.52l1.39-.18Zm6.62,3.84c0-2.06.81-3.96,3.64-3.96.7,0,1.34.14,1.72.26l-.28,1.28c-.43-.16-.98-.25-1.42-.25-1.54,0-2.14,1.12-2.14,2.68s.66,2.52,2.19,2.52c.44,0,1.07-.09,1.47-.26l.21,1.3c-.34.12-1.05.27-1.77.27-2.82,0-3.63-1.86-3.63-3.82h0Zm8.31-4.84h-1.58v-1.39h1.58v1.39Zm-.03,8.44h-1.53v-7.35h1.53v7.35Zm7.84-.1l-1.28.23c-.25-.33-.41-.76-.47-1.2-.43.81-1.31,1.24-2.23,1.24-1.12,0-2.37-.57-2.37-2.29s.94-2.3,4.41-2.45v-.49c0-.75-.14-1.24-1.31-1.24-.75,0-1.48.22-2.19.59l-.33-1.27c.67-.31,1.71-.58,2.69-.58,1.93,0,2.57.81,2.57,2.49v2.86c0,.94.16,1.72.5,2.13Zm-4.93-2.06c0,.89.75,1.08,1.25,1.08.9,0,1.59-.63,1.75-1.36v-1.02c-2.3.12-3,.31-3,1.29Zm7.97,2.16h-1.53v-10.04l1.53-.23v10.27Z"/>
      <path class="cls-4" d="m114.44,173.4h-1.57v-9.71h1.57v4.07h4.65v-4.07h1.55v9.71h-1.55v-4.29h-4.65v4.29Zm15.11-3.71c0,1.89-.81,3.97-3.55,3.97s-3.54-2.08-3.54-3.98.81-3.89,3.54-3.89,3.55,2.06,3.55,3.89h0Zm-3.54,2.7c1.26,0,1.99-.87,1.99-2.72s-.72-2.61-2-2.61-1.99.82-1.99,2.61.71,2.72,1.99,2.72h.01Zm6.75,1.02h-1.53v-10.04l1.53-.23v10.27Zm4.57.18c-1.91,0-2.88-1.39-2.88-3.71,0-2.16.8-4.02,3.1-4.02.81,0,1.59.36,2.04.81v-3.3l1.48-.23v7.75c0,.93.04,1.71.3,2.35l-1.31.25c-.19-.3-.29-.73-.33-1.07-.35.48-1.09,1.17-2.38,1.17h-.01Zm2.3-4.44c0-.4-.01-.81-.07-1.13-.29-.41-.9-.88-1.73-.88-1.37,0-1.82,1.15-1.82,2.72,0,1.38.45,2.46,1.66,2.46,1.04,0,1.67-.7,1.9-1.2.05-.24.07-.65.07-1v-.96Zm5.03-4.18h-1.58v-1.39h1.58v1.39Zm-.03,8.44h-1.53v-7.35h1.53v7.35Zm3.23-7.46c.1.25.21.7.24.96.48-.53,1.41-.98,2.34-.98,1.9,0,2.4,1.18,2.4,2.5v4.98h-1.51v-4.6c0-.94-.32-1.63-1.34-1.63-.71,0-1.43.34-1.82.78v5.45h-1.52v-5.75c0-.52-.05-1.07-.18-1.52l1.39-.18Zm9.83,9.23c1.61,0,1.97-1.07,1.97-1.94v-.8c-.36.54-1.1,1.15-2.26,1.15-1.92,0-2.88-1.39-2.88-3.71,0-2.16.79-4.02,3.1-4.02.87,0,1.73.37,2.16.9,0-.19.06-.52.1-.7h1.36c-.05.29-.1.97-.1,1.39v5.95c0,2.31-1.79,3.01-3.45,3.01-.93,0-1.93-.2-2.79-.53l.31-1.28c.67.32,1.66.57,2.48.57Zm2-6.03c0-.4-.01-.81-.07-1.13-.29-.41-.9-.88-1.73-.88-1.37,0-1.81,1.15-1.81,2.72,0,1.38.44,2.46,1.64,2.46,1.04,0,1.67-.7,1.9-1.2.05-.24.07-.65.07-1v-.96Zm7.38-1.73c-.43-.2-1.08-.36-1.62-.36-.47,0-1.08.17-1.08.84,0,.49.35.72,1.28,1.17,1.05.49,1.93,1.02,1.93,2.29,0,1.77-1.3,2.26-2.44,2.26-.76,0-1.88-.19-2.53-.44l.34-1.29c.61.26,1.47.46,2.04.46s1.09-.19,1.09-.92c0-.57-.52-.88-1.5-1.34-1.03-.47-1.7-.92-1.7-2.1,0-1.73,1.48-2.12,2.58-2.12.66,0,1.54.15,1.99.33l-.36,1.23Z"/>
    </g>
  </g>
</svg>