<?xml version="1.0" encoding="UTF-8"?>
<svg width="106px" height="24px" viewBox="0 0 106 24" version="1.1" xmlns="http://www.w3.org/2000/svg" xmlns:xlink="http://www.w3.org/1999/xlink">
    <!-- Generator: Sketch 46.2 (44496) - http://www.bohemiancoding.com/sketch -->
    <title>Logo</title>
    <desc>Created with Sketch.</desc>
    <defs>
        <linearGradient x1="3.061617e-15%" y1="50%" x2="66.0482097%" y2="50%" id="linearGradient-1">
            <stop stop-color="#FDA229" offset="0%"></stop>
            <stop stop-color="#FDA229" stop-opacity="0.6" offset="100%"></stop>
        </linearGradient>
    </defs>
    <g id="Website" stroke="none" stroke-width="1" fill="none" fill-rule="evenodd">
        <g id="Features" transform="translate(-260.000000, -36.000000)">
            <g id="Header">
                <g id="Logo" transform="translate(260.000000, 36.000000)">
                    <g id="Text" transform="translate(24.000000, 0.000000)" fill="#292E30">
                        <path d="M81.2978092,16.592775 C81.1849651,16.448775 81.0141945,16.365525 80.8306349,16.365525 L79.5434606,16.365525 C78.5602128,16.365525 77.9628917,16.231275 77.9628917,14.369775 L77.9628917,7.177275 L79.6262128,7.177275 C79.869956,7.177275 80.0858642,7.031775 80.1768917,6.806775 L80.595167,5.766525 C80.6681394,5.585025 80.6463229,5.378775 80.5357358,5.216025 C80.4251486,5.053275 80.241589,4.955775 80.0444881,4.955775 L77.9628917,4.955775 L77.9628917,2.086275 C77.9628917,1.760775 77.6973321,1.495275 77.3700844,1.495275 L76.3274055,1.495275 C76.0009101,1.495275 75.7345982,1.760775 75.7345982,2.086275 L75.7345982,4.955775 L74.7047083,4.955775 C74.4617174,4.955775 74.2458092,5.102025 74.1547817,5.327025 L73.7365064,6.366525 C73.6635339,6.548775 73.6853505,6.755025 73.7959376,6.917025 C73.9057725,7.079775 74.0893321,7.177275 74.2871853,7.177275 L75.7345982,7.177275 L75.7345982,14.369775 C75.7345982,17.201775 76.9450385,18.521025 79.5434606,18.521025 L80.5861394,18.521025 C80.859222,18.521025 81.0954422,18.336525 81.161644,18.073275 L81.4053872,17.100525 C81.4505248,16.922775 81.4106532,16.737525 81.2978092,16.592775" id="Fill-9"></path>
                        <path d="M73.3869908,16.644375 C72.8212661,16.522875 72.7151927,16.231125 72.7024037,15.586875 C72.7166972,15.535875 72.7234679,15.484125 72.7234679,15.430875 L72.7234679,10.366875 C72.7234679,5.684625 68.7212661,5.684625 67.4062569,5.684625 C66.2778165,5.684625 65.1742018,5.992875 64.1172294,6.602625 L64.1172294,6.298125 C64.1172294,5.971875 63.8509174,5.706375 63.524422,5.706375 L62.4817431,5.706375 C62.1544954,5.706375 61.8889358,5.971875 61.8889358,6.298125 L61.8889358,17.951625 C61.8889358,18.277875 62.1544954,18.543375 62.4817431,18.543375 L63.524422,18.543375 C63.8509174,18.543375 64.1172294,18.277875 64.1172294,17.951625 L64.1172294,9.222375 C65.0485688,8.348625 66.1544404,7.906125 67.4062569,7.906125 C68.6475413,7.906125 69.5194495,8.148375 69.9964037,8.626875 C70.5042018,9.137625 70.4996881,9.874875 70.4966789,10.414125 L70.4959266,16.094625 C70.4959266,17.455125 71.6033028,18.520875 73.018367,18.520875 C73.2711376,18.520875 73.4960734,18.361125 73.5788257,18.121875 L73.8225688,17.414625 C73.8774862,17.254875 73.8616881,17.079375 73.7781835,16.930875 C73.6946789,16.784625 73.5524954,16.679625 73.3869908,16.644375" id="Fill-13"></path>
                        <path d="M54.3720936,7.9062 C56.1467541,7.9062 57.0841119,8.54295 57.0841119,9.74745 C57.0841119,11.2332 55.0295982,11.54445 53.3060936,11.54445 C52.3213413,11.54445 51.3900018,11.43795 50.8679101,11.3652 C50.9190661,9.5787 51.3230477,7.9062 54.3720936,7.9062 M58.8971394,13.7787 L57.8206073,13.9167 C57.5272128,13.9557 57.3060385,14.2077 57.3060385,14.50245 C57.3060385,15.4197 56.1753413,16.4097 54.3495248,16.4097 C52.0618,16.4097 51.0642587,15.60645 50.8897266,13.56795 C51.4968275,13.6542 52.4221486,13.75545 53.4392495,13.75545 C58.2938,13.75545 59.3124055,11.57595 59.3124055,9.74745 C59.3124055,7.7832 58.0146991,5.6847 54.3720936,5.6847 C48.6335982,5.6847 48.6335982,10.3077 48.6335982,11.82645 L48.6335982,12.8652 C48.6335982,16.6377 50.6098734,18.63195 54.3495248,18.63195 C55.5253596,18.63195 56.7899651,18.2337 57.732589,17.56545 C58.8655431,16.76295 59.4899468,15.62745 59.4899468,14.3697 C59.4899468,14.19945 59.416222,14.03745 59.2883321,13.92495 C59.1800018,13.83045 59.0415798,13.7787 58.8971394,13.7787" id="Fill-11"></path>
                        <path d="M47.0317394,16.365675 L45.7453174,16.365675 C44.7613174,16.365675 44.1639963,16.231425 44.1639963,14.369175 L44.1639963,0.835425 C44.1639963,0.509175 43.8984367,0.243675 43.571189,0.243675 L42.5285101,0.243675 C42.2020147,0.243675 41.936455,0.509175 41.936455,0.835425 L41.936455,14.369175 C41.936455,17.201925 43.1461431,18.521175 45.7453174,18.521175 L46.787244,18.521175 C47.0603266,18.521175 47.2965468,18.336675 47.3627486,18.073425 L47.6064917,17.100675 C47.6516294,16.922925 47.6117578,16.737675 47.4989138,16.592925 C47.3860697,16.448175 47.2152991,16.365675 47.0317394,16.365675" id="Fill-7"></path>
                        <path d="M38.6708991,5.6844 L37.6282202,5.6844 C37.3017248,5.6844 37.0361651,5.9499 37.0361651,6.2754 L37.0361651,13.3299 C37.0361651,14.80965 36.6449725,16.32165 33.7463853,16.32165 C31.8212661,16.32165 30.4581101,16.1199 30.4581101,13.50765 L30.4581101,6.2754 C30.4581101,5.9499 30.1917982,5.6844 29.8645505,5.6844 L28.8226239,5.6844 C28.4953761,5.6844 28.2298165,5.9499 28.2298165,6.2754 L28.2298165,13.50765 C28.2298165,18.54315 32.3824771,18.54315 33.7463853,18.54315 C34.3549908,18.54315 35.7866055,18.45915 37.0135963,17.7564 L37.0135963,17.9514 C37.0135963,19.5654 35.7798349,21.3009 33.0708257,21.3009 C31.9002569,21.3009 30.8019083,20.9244 29.9788991,20.2404 C29.7705138,20.06715 29.4440183,20.0619 29.230367,20.2314 L28.3652294,20.91765 C28.238844,21.01665 28.1583486,21.1659 28.1433028,21.32565 C28.1282569,21.48615 28.1809174,21.64815 28.2869908,21.76815 C29.1784587,22.7859 31.2246972,23.4969 33.2619083,23.4969 C36.1635046,23.4969 39.2637064,22.03965 39.2637064,17.9514 L39.2637064,6.2754 C39.2637064,5.9499 38.9981468,5.6844 38.6708991,5.6844" id="Fill-5"></path>
                        <path d="M23.1967468,14.05965 C23.1967468,15.42465 21.8019945,16.4544 19.9521046,16.4544 C18.8642881,16.4544 17.0399761,16.2354 17.0399761,14.76765 C17.0399761,13.50765 17.7584165,13.10265 19.9957376,13.10265 C20.2439945,13.10265 20.4945083,13.10715 20.7502881,13.11165 C20.9947835,13.1154 21.237022,13.1199 21.4709853,13.1199 C22.031444,13.1199 22.6535908,13.10415 23.1967468,12.9549 L23.1967468,14.05965 Z M21.4326183,12.52815 L21.4326183,12.52815 C21.4288569,12.52815 21.4258477,12.52815 21.4228385,12.52815 L21.4326183,12.52815 Z M26.1818477,16.73115 C25.6590037,16.5474 25.4242881,15.97965 25.4242881,15.4974 L25.4242881,10.1679 C25.4242881,5.5074 21.3385817,5.5074 19.9964899,5.5074 C17.882545,5.5074 16.9670037,5.9139 15.5805266,6.5289 L15.4744532,6.57615 C15.3285083,6.64065 15.212655,6.76365 15.1577376,6.9144 C15.1035725,7.0644 15.1126,7.23165 15.1825633,7.3749 L15.648233,8.3259 C15.7843982,8.60415 16.1432422,8.73315 16.4253523,8.60565 C16.5547468,8.54715 16.6803798,8.4864 16.8060128,8.4264 C17.554545,8.0679 18.2609486,7.72965 20.0852606,7.72965 C23.2411321,7.72965 23.2411321,9.21165 23.2411321,9.76965 C23.2411321,10.54515 22.9710587,10.9149 21.4363798,10.9149 C21.1332055,10.9149 20.8104716,10.9014 20.4975174,10.8879 C20.1702697,10.87365 19.8317376,10.85865 19.5082514,10.85865 C16.5675358,10.85865 14.8116826,12.34515 14.8116826,14.83365 C14.8116826,16.1724 15.4782147,17.2404 16.7383064,17.92365 C17.9901229,18.6024 19.4029303,18.6759 19.9521046,18.6759 C21.9614807,18.6759 23.1839578,17.88615 23.791811,17.3364 C24.391389,18.2919 25.4363248,18.6504 25.4852239,18.6669 C25.5469119,18.68715 25.6108569,18.69765 25.6748018,18.69765 C25.9192972,18.69765 26.1419761,18.5439 26.2292422,18.3159 L26.5399394,17.49765 C26.5963615,17.34915 26.5895908,17.18265 26.523389,17.04015 C26.4564349,16.89615 26.3315541,16.78365 26.1818477,16.73115 L26.1818477,16.73115 Z" id="Fill-3"></path>
                        <path d="M11.1963853,7.2954 C10.0115229,6.11415 8.42117431,5.46315 6.71798165,5.46315 L6.36289908,5.46315 C4.64992661,5.46315 3.06559633,6.11565 1.90480734,7.29765 C0.707155963,8.49165 0.0473944954,10.0764 0.0473944954,11.76015 L0.0473944954,12.3129 C0.0473944954,13.99665 0.707908257,15.5814 1.90480734,16.7754 C3.0813945,17.9724 4.66422018,18.63165 6.36289908,18.63165 L6.71798165,18.63165 C8.40688073,18.63165 9.99722936,17.97315 11.1963853,16.77765 C11.7425505,16.23315 12.1848991,15.58815 12.4760367,14.91165 C12.5422385,14.7564 12.5392294,14.58015 12.4677615,14.4294 C12.3962936,14.2764 12.2623853,14.1609 12.0998899,14.1129 L11.0557064,13.8024 C10.7818716,13.7229 10.4786972,13.85865 10.3553211,14.1114 C9.67524771,15.5079 8.2473945,16.41015 6.71798165,16.41015 L6.36289908,16.41015 C4.1473945,16.41015 2.27568807,14.5134 2.27568807,12.26865 L2.27568807,11.8044 C2.27568807,9.53265 4.10977982,7.6854 6.36289908,7.6854 L6.71798165,7.6854 C8.3173578,7.6854 9.81893578,8.6709 10.4553761,10.13715 C10.5697248,10.40265 10.8774128,10.55265 11.1572661,10.47165 L12.199945,10.1844 C12.3631927,10.1394 12.4993578,10.02615 12.5730826,9.87615 C12.6483119,9.7254 12.6543303,9.5484 12.5911376,9.3924 C12.269156,8.6019 11.7997248,7.89615 11.1963853,7.2954" id="Fill-1"></path>
                    </g>
                    <g id="Icon" transform="translate(0.000000, 1.000000)">
                        <path d="M9,14.6332881 L17.9999599,10.412824 L17.9999599,16.7784334 L9,21 L9,14.6332881 Z M9.00004012,7.22046408 L18,3 L18,9.36597691 L9.00004012,13.587176 L9.00004012,7.22046408 Z" id="Right" fill="#FDA229" opacity="0.600000024"></path>
                        <path d="M0,16.778442 L0,10.4128456 L8.99991974,14.6333011 L8.99991974,21 L0,16.778442 Z M8.02596846e-05,9.36596391 L8.02596846e-05,3 L9,7.22045546 L9,13.5871544 L8.02596846e-05,9.36596391 Z" id="Left" fill="#FDA229"></path>
                        <g id="Top" transform="translate(1.500000, 0.000000)" fill="url(#linearGradient-1)">
                            <path d="M9.75,4.78727506 L9.75,3 C9.75,3.25517919 8.74265688,3.46170422 7.5,3.46170422 C6.25734312,3.46170422 5.25,3.25517919 5.25,3 L5.25,4.78727506 C5.25,5.0427945 6.25884513,5.25 7.5,5.25 C8.74265688,5.25 9.75,5.0427945 9.75,4.78727506" id="Fill-17"></path>
                            <path d="M12.7492487,3 C13.990818,3 15,2.79344374 15,2.53890653 L15,0.75 C15,1.0048775 13.990818,1.21245463 12.7492487,1.21245463 C11.506177,1.21245463 10.5,1.00589837 10.5,0.75 L10.5,2.53890653 C10.5,2.79344374 11.506177,3 12.7492487,3" id="Fill-15"></path>
                            <path d="M2.25,3 C3.49265688,3 4.5,2.7935062 4.5,2.5380254 L4.5,0.75 C4.5,1.0054808 3.49265688,1.2119746 2.25,1.2119746 C1.00884513,1.2119746 0,1.0054808 0,0.75 L0,2.5380254 C0,2.79452676 1.00884513,3 2.25,3" id="Fill-22"></path>
                            <path d="M7.5,2.25 C8.74265688,2.25 9.75,2.04375284 9.75,1.78883679 L9.75,0 C9.75,0.255937075 8.74265688,0.462184238 7.5,0.462184238 C6.25734312,0.462184238 5.25,0.255937075 5.25,0 L5.25,1.78883679 C5.25,2.04477386 6.25734312,2.25 7.5,2.25" id="Fill-19"></path>
                        </g>
                    </g>
                </g>
            </g>
        </g>
    </g>
</svg>