<?xml version="1.0" encoding="utf-8"?>
<!-- Generator: Adobe Illustrator 26.1.0, SVG Export Plug-In . SVG Version: 6.00 Build 0)  -->
<svg version="1.1" id="a" xmlns="http://www.w3.org/2000/svg" xmlns:xlink="http://www.w3.org/1999/xlink" x="0px" y="0px"
	 viewBox="0 0 389 389" style="enable-background:new 0 0 389 389;" xml:space="preserve">
<style type="text/css">
	.st0{fill:#0086FF;}
	.st1{fill:#93EAFF;}
</style>
<g>
	<path class="st0" d="M72.8,250.7h-48v112.6h112.2v-48.4H72.8V250.7z"/>
	<path class="st0" d="M314.1,251.2v63.7h-64.3v48.4h112.2V250.7h-48.5L314.1,251.2z"/>
	<path class="st0" d="M24.9,138.6h48.5l-0.5-0.5V74.5h64.3V26H24.9V138.6z"/>
	<path class="st0" d="M249.9,26v48.4h64.3v64.2h48V26C362.1,26,249.9,26,249.9,26z"/>
	<path class="st1" d="M243.5,138.6l-64.3-64.2h70.6V26H137.1v48.4l64.3,64.2H243.5z"/>
	<path class="st1" d="M185.6,250.7h-42.2l53.2,53.2l10.5,11h-70.1v48.4h112.8v-49l-32.1-31.6L185.6,250.7z"/>
	<path class="st1" d="M314.1,138.6v70l-11.1-11.1l-53.2-53.2V187l31.6,31.6l32.1,32.1h48.5V138.6H314.1L314.1,138.6z"/>
	<path class="st1" d="M137.1,202.3l-63.8-63.7H24.9v112h48v-70l64.3,64.2V202.3z"/>
</g>
</svg>
