<svg id="Layer_1" data-name="Layer 1" xmlns="http://www.w3.org/2000/svg" viewBox="0 0 504 273.91335"><defs><style>.cls-1{fill:#e50214;}.cls-2{fill:#e60617;}</style></defs><title>chainer</title><path class="cls-1" d="M270.67779,161.77965c-17.40013.03036-32.82018-10.40659-37.45553-23.95934-1.5087-4.41113-2.14822-8.87748-.40716-13.371.7502-1.93624.09162-2.91087-1.64809-3.89267-10.64136-6.00556-21.3528-11.90744-31.74717-18.32-4.17-2.57256-7.06144-1.03854-10.42821,1.00684-12.44449,7.56032-24.67144,6.05022-36.15487-1.85629-11.7237-8.072-11.65132-22.12281-.399-30.89059,5.97683-4.65714,12.88012-6.03406,20.16266-5.80969,3.4207.10539,5.1309-1.05913,6.36337-4.293,2.57808-6.7644,5.55828-13.38144,8.55251-19.97766.88041-1.9395.4666-2.63424-1.41349-3.32521-3.67879-1.352-7.3643-2.67834-10.12586-5.79-5.82637-6.5649-4.78555-14.99173,2.58621-19.75119,9.67331-6.24539,28.51119-4.46144,36.80291,3.49863.67135.64448,1.56033,1.27164,1.83745,2.08159,1.29809,3.79416,4.22817,3.74046,7.47919,3.71583,11.31341-.08571,22.62845.00074,33.94245.08083,1.71274.01213,2.68347-.05044,2.97874-2.30192.5763-4.39457,3.71877-7.04355,7.56415-8.78938a21.92535,21.92535,0,0,1,9.97454-2.00881,42.7833,42.7833,0,0,1,26.73759,10.288c6.99342,5.9462,5.806,13.90338-2.38564,17.998-4.46174,2.2302-4.39783,2.17791-1.31225,5.949,5.51482,6.74005,11.5131,13.08424,16.549,20.21718a5.20477,5.20477,0,0,0,5.82831,2.41161c3.60466-.70035,7.25351.05934,10.74536,1.09412,9.30669,2.758,17.57694,7.29312,24.13555,14.6093a20.14268,20.14268,0,0,1,3.89115,6.32254c2.77853,7.32136.14647,14.73289-6.87977,18.18881-9.00508,4.42927-18.25253,3.88179-27.4758.5206a8.94131,8.94131,0,0,1-2.52385-1.18993c-5.68188-4.515-10.38093-3.19216-15.60936,1.39406-6.13724,5.38341-13.0334,9.91469-19.70964,14.66195-1.79143,1.27384-1.89,2.14082-.59362,3.83859,3.68592,4.82719,5.89343,10.31571,5.62416,16.43764-.38063,8.65338-5.24771,14.3846-12.79428,18.036A30.62625,30.62625,0,0,1,270.67779,161.77965ZM315.172,66.66816c-6.245-7.81393-12.47983-15.31137-18.33818-23.09226-2.39542-3.18153-4.99654-4.41043-8.98563-4.67894-9.9449-.6694-18.85958-3.95817-24.7982-12.68061-.91223-1.33983-2.024-1.48928-3.44-1.48555-12.45869.03279-24.91772.05366-37.37605-.02159-1.70071-.01027-2.61057.34383-3.07306,2.1164-1.09011,4.17822-3.94322,6.96463-7.68545,8.89529a27.99967,27.99967,0,0,1-13.805,3.11478c-2.34252-.06657-3.62676.79493-4.15471,3.04784a18.4788,18.4788,0,0,1-1.06124,2.57908c-2.91966,7.22449-5.8346,14.45091-8.77729,21.74206,6.32919,1.6282,10.70912,5.38423,14.22538,10.3782,3.88886,5.52317,3.657,11.23537.97567,17.07992-.89753,1.95634.61189,2.29929,1.73547,2.91569,10.71474,5.8782,21.51193,11.612,32.112,17.68985,3.20324,1.83668,5.47733,1.78786,8.13683-.74454,6.07-5.77993,13.57289-6.64979,21.473-5.69351a42.97063,42.97063,0,0,1,18.69856,7.15452c2.10583,1.3978,3.5402,1.00618,5.217-.36422,1.84351-1.50665,3.68358-3.02809,5.624-4.4037,6.3449-4.4981,12.70236-8.98038,19.13022-13.35824,1.5962-1.08713,1.76556-1.84744.475-3.32815a30.11769,30.11769,0,0,1-4.39858-6.75742C303.19589,78.6971,306.48561,70.17457,315.172,66.66816Z"/><path class="cls-2" d="M14.49146,224.74118c.02285,8.02945,1.40807,15.71745,6.30889,22.3221C27.19,255.67434,36.281,258.88991,46.57,259.12207c8.99886.20305,17.83911-.6729,25.50444-6.17422,1.40779-1.01035,2.48329-.89223,3.11494.873.1392.389.33755.75664.50351,1.13635,2.48414,5.68378,2.61153,6.01716-3.13917,8.219-15.26771,5.8457-30.79427,6.42714-46.08.30572-9.4171-3.77125-15.69628-11.09541-18.94647-20.67727a54.37252,54.37252,0,0,1-1.11467-31.86111c4.246-16.06632,17.9533-27.39123,34.94288-29.28176a67.825,67.825,0,0,1,26.49873,1.76953,30.56867,30.56867,0,0,1,2.92741,1.00473c6.31963,2.53,6.9066,4.54511,3.065,10.14639-1.08775,1.586-2.11621.71392-3.15444.0598-10.45828-6.58938-21.75719-7.14113-33.22538-3.87594-14.30818,4.07378-22.61187,15.844-22.97279,31.48467C14.47479,223.08057,14.49146,223.91106,14.49146,224.74118Z"/><path class="cls-2" d="M405.6636,266.97025c-2.66747-.23628-6.00691-.30446-9.26285-.86109-12.16774-2.08-19.46624-9.57992-21.27146-22.20795a43.447,43.447,0,0,1,1.74583-20.58624c3.87026-11.1311,12.43365-16.12028,23.59165-17.23071a41.77676,41.77676,0,0,1,15.433,1.039c9.25038,2.56847,15.08017,9.14606,16.25175,18.6705.34093,2.77133.35374,5.58153.623,8.36364.21013,2.17121-.36275,3.02241-2.82694,2.99958-14.314-.13267-28.63076.01738-42.94431-.13723-2.7231-.02941-3.27157.81551-3.10472,3.30286.79936,11.91695,8.43079,18.69978,21.72327,19.06961,6.73265.18732,13.23286-.75257,19.09619-4.37858,1.47691-.91336,2.088-.5745,2.56655,1.134,1.87773,6.70422,1.6151,7.23419-5.26068,8.95916C416.86423,266.40125,411.58279,266.61405,405.6636,266.97025Zm-1.73723-36.85015c5.80028,0,11.60258-.088,17.39971.04749,2.0455.04783,2.38883-.62906,2.21616-2.50655-.58186-6.3252-4.24641-11.13878-10.27519-13.04172a28.8706,28.8706,0,0,0-14.11206-.70475,17.19271,17.19271,0,0,0-14.29017,13.72272c-.39606,1.80429-.19369,2.58817,1.97276,2.53231C392.53049,230.02285,398.22966,230.12,403.92637,230.1201Z"/><path class="cls-2" d="M98.9721,223.15645c0-12.97024.05048-25.94086-.04947-38.91034-.01673-2.17008.56481-2.80173,2.75289-2.77432,6.03526.07567,6.03656-.02821,6.03656,5.93123,0,6.74451.08921,13.49083-.04652,20.23263-.0501,2.48845.28955,3.11005,2.78074,1.82933,9.1411-4.6994,18.8793-5.34027,28.77258-3.32477,9.34581,1.904,14.05931,7.35738,14.35586,17.259.3943,13.16567.16722,26.34947.26469,39.52506.01128,1.52616-.554,1.87439-1.99051,1.94844-6.98346.36-6.98115.40462-6.98115-6.58566q0-15.40864-.00378-30.81728c-.01716-10.326-4.89513-15.00381-15.18639-14.69376-6.735.20292-13.11729,1.57458-18.97561,5.08694a4.81194,4.81194,0,0,0-2.62942,4.73261c.11607,13.073-.01388,26.1482.11811,39.22086.02524,2.49935-.691,3.13261-3.1156,3.07875-6.1004-.1355-6.103-.018-6.103-6.25221Q98.97206,240.89973,98.9721,223.15645Z"/><path class="cls-2" d="M229.6133,241.76479c0,6.32965-.06745,12.66045.04016,18.98827.03321,1.952-.40213,3.00814-2.53923,2.60692-4.96741-.93258-9.11728,2.25718-13.84424,2.70844-6.944.66288-13.85513,1.13268-20.72853-.37591-8.0387-1.76439-12.45726-6.14686-13.668-13.35543-1.2539-7.46573,1.83614-14.09067,8.5486-18.213,5.98227-3.67395,12.70866-4.857,19.52008-5.716,3.80532-.47985,7.60981-.981,11.42668-1.34742,1.53474-.14733,2.07216-.68279,2.13146-2.292.25-6.78408-2.91435-10.99577-9.95893-11.8365-8.66548-1.03417-17.21961-.3893-24.89417,4.41659-1.7876,1.11941-2.45755.64174-3.20078-1.06475-2.35168-5.39939-2.43942-5.50223,3.03649-7.4728,9.94215-3.57776,20.154-4.97905,30.52135-2.29,9.43748,2.4479,13.58835,8.15409,13.607,17.81112C229.62251,230.14312,229.61334,235.954,229.6133,241.76479Zm-8.968,2.82316c0-2.69868-.109-5.40323.03589-8.0941.108-2.00519-.39969-2.7927-2.572-2.436-4.5.739-9.05056,1.17208-13.54861,1.92137-4.61756.76922-9.16383,1.878-12.95345,4.87686-3.37224,2.66855-4.20614,6.26886-3.55542,10.325.55909,3.48495,2.54218,6.05258,5.89877,6.94922a36.17755,36.17755,0,0,0,23.7509-1.26321,4.29054,4.29054,0,0,0,2.99419-4.81047C220.46592,249.58685,220.64545,247.07905,220.6453,244.588Z"/><path class="cls-2" d="M296.02807,237.13928c0-8.30333.05715-16.60735-.04156-24.90951-.02362-1.98694.45477-2.89263,2.56959-2.57707,3.16352.472,6.02341-.5173,9.00915-1.552a49.016,49.016,0,0,1,24.2113-2.24595c12.12238,1.98333,18.32645,9.16248,18.47783,21.52748.14233,11.62293-.01715,23.24934.07612,34.87327.01647,2.04957-.553,2.63882-2.61663,2.63428-6.396-.01409-6.39617.0774-6.39617-6.26955,0-9.86022.02632-19.72051-.00737-29.58062-.0351-10.27887-5.11375-15.32347-15.42681-15.75972-6.1117-.25853-11.99929.18655-17.42313,3.339a6.03409,6.03409,0,0,0-3.45076,5.92959c.20123,13.17846.04015,26.36211.13463,39.543.01517,2.11687-.46328,2.83031-2.704,2.8039-6.41093-.07554-6.4122.03188-6.4122-6.2712Q296.028,247.88174,296.02807,237.13928Z"/><path class="cls-2" d="M457.7173,237.052c0-8.50528.07091-17.01155-.051-25.51511-.02965-2.06957.57429-2.74507,2.58348-2.51293,3.33963.38581,6.44434-.46046,9.66222-1.45629a46.1368,46.1368,0,0,1,25.14937-.63378c1.96538.48814,2.6804,1.15761,2.27844,3.36093-1.04579,5.73246-.89985,5.6664-6.485,4.34046a31.76837,31.76837,0,0,0-18.36459.72864c-4.52114,1.61978-5.51533,3.25247-5.51533,8.0465-.00008,12.75791-.04654,25.51612.04354,38.2734.01589,2.25186-.30694,3.28724-2.96285,3.22585-6.33483-.14642-6.33837.006-6.33837-6.387Q457.71726,247.78733,457.7173,237.052Z"/><path class="cls-2" d="M268.86206,236.03312c0,8.71845-.05307,17.43746.03977,26.15492.02146,2.01512-.29711,2.921-2.64842,2.90069-6.75335-.0584-6.75432.05655-6.75432-6.82642,0-13.28525-.07236-26.57122.06317-39.85509.026-2.547-.56793-3.69511-3.195-3.21883-2.47592.4489-3.13605-.595-3.05169-3.02271.17326-4.98616.03629-4.99091,5.07331-4.99091,2.69857,0,5.40433.1204,8.09329-.04046,1.93241-.1156,2.44846.50928,2.4257,2.43267C268.80357,218.388,268.862,227.21088,268.86206,236.03312Z"/><path class="cls-1" d="M269.06228,189.71539c0,5.00852,0,5.00852-4.94529,5.0085a11.44661,11.44661,0,0,0-1.85214.01523c-2.1675.36-3.021-.48-2.67646-2.6638a16.02622,16.02622,0,0,0,.02047-2.46965c0-4.8543,0-4.8543,4.77282-4.85428C269.06228,184.7514,269.06228,184.7514,269.06228,189.71539Z"/></svg>