<?xml version="1.0" encoding="UTF-8"?>
<svg id="Layer_1" data-name="Layer 1" xmlns="http://www.w3.org/2000/svg" version="1.1" viewBox="0 0 639.6 94.6">
  <defs>
    <style>
      .cls-1 {
        fill: #3443f4;
        stroke-width: 0px;
      }
    </style>
  </defs>
  <g>
    <g>
      <path class="cls-1" d="M161.5,74.8c-5,0-9.3-1-13-3-3.7-2-6.6-4.8-8.6-8.4-2-3.6-3.1-7.8-3.1-12.7s1-9.1,3.1-12.7c2-3.6,4.9-6.3,8.6-8.2,3.7-1.9,8-2.9,13-2.9s6.3.4,9.3,1.3c3,.9,5.5,2.1,7.3,3.7l-4,10.1c-1.5-1.2-3.3-2.2-5.3-2.9-2-.7-3.9-1-5.8-1-3.7,0-6.6,1.1-8.6,3.2-2.1,2.2-3.1,5.3-3.1,9.3s1,7.1,3.1,9.3c2.1,2.2,4.9,3.3,8.6,3.3s3.8-.4,5.8-1.1c2-.7,3.7-1.7,5.2-2.9l4.1,10.2c-1.9,1.5-4.4,2.8-7.4,3.7-3,.9-6.1,1.4-9.3,1.4Z"/>
      <path class="cls-1" d="M185.3,73.8V8.6h14.1v27.8h-.7c1.5-3,3.6-5.3,6.4-6.9,2.8-1.7,6-2.5,9.6-2.5s6.8.7,9.2,2.1c2.4,1.4,4.3,3.6,5.5,6.5,1.3,2.9,1.9,6.6,1.9,11.1v27h-14.4v-26.5c0-2.1-.3-3.8-.8-5.1-.5-1.3-1.3-2.3-2.4-2.9-1.1-.6-2.4-1-4-1s-3.7.4-5.2,1.3c-1.5.9-2.6,2.1-3.5,3.7s-1.2,3.4-1.2,5.4v25.1h-14.4Z"/>
      <path class="cls-1" d="M283.6,35.5c-1.6-2.9-4.1-5-7.3-6.4-3.2-1.4-7.2-2.1-11.8-2.1s-5,.2-7.6.6c-2.6.4-5.1,1.1-7.4,1.9-2.4.8-4.5,1.8-6.3,2.9l3.7,9.5c2.9-1.5,5.7-2.7,8.5-3.4,2.7-.7,5.3-1.1,7.7-1.1s5.6.6,7.1,1.7c1.4,1.1,2.2,3,2.2,5.7v1.3h-3.8c-6.5,0-11.8.5-15.8,1.4-4,.9-6.9,2.4-8.7,4.4-1.8,2-2.8,4.7-2.8,8s.8,5.4,2.3,7.6c1.5,2.2,3.7,4,6.3,5.3,2.7,1.3,5.7,2,9.1,2s4.9-.4,6.8-1.3c1.9-.9,3.6-2,4.9-3.6,1.2-1.4,2.1-3,2.6-4.8v8.6h12.8v-27c0-4.6-.8-8.4-2.5-11.3ZM270.9,60.3c-.9,1.5-2.1,2.7-3.6,3.5-1.5.8-3.1,1.2-5,1.2s-4-.5-5.3-1.5c-1.3-1-1.9-2.4-1.9-4.2s.3-1.9.8-2.6c.5-.7,1.3-1.3,2.5-1.7,1.1-.4,2.5-.8,4.3-1,1.7-.2,3.8-.3,6.2-.3h3.4v1.5c0,1.9-.4,3.6-1.3,5.1Z"/>
      <path class="cls-1" d="M297.8,73.8V27.9h14.4v45.9h-14.4Z"/>
      <path class="cls-1" d="M324.1,73.8V27.9h13.6v8.8h-.5c1.5-3.1,3.7-5.5,6.5-7.2,2.9-1.7,6.1-2.5,9.7-2.5s6.8.7,9.2,2.1c2.5,1.4,4.3,3.6,5.5,6.5,1.2,2.9,1.8,6.6,1.8,11.1v27h-14.4v-26.5c0-2.1-.3-3.8-.8-5.1-.5-1.3-1.3-2.3-2.4-2.9-1-.6-2.4-1-4.1-1s-3.7.4-5.2,1.3c-1.5.9-2.6,2.1-3.5,3.7s-1.2,3.4-1.2,5.4v25.1h-14.4Z"/>
      <path class="cls-1" d="M403.4,91.5c-4.1,0-8-.5-11.7-1.4-3.8-.9-7-2.3-9.8-4.2l3.7-10.2c1.7,1,3.5,1.8,5.4,2.6,1.9.7,3.9,1.3,5.9,1.6,2,.3,3.9.5,5.7.5,4.3,0,7.5-.9,9.7-2.8,2.1-1.8,3.2-4.7,3.2-8.4v-6.4h.3c-1.1,2.8-3.1,5-5.9,6.8-2.8,1.8-6,2.6-9.5,2.6s-7.8-.9-10.9-2.8c-3.1-1.9-5.5-4.5-7.3-8-1.7-3.4-2.6-7.4-2.6-11.9s.9-8.5,2.6-11.9c1.7-3.4,4.1-6,7.3-7.9,3.1-1.9,6.7-2.8,10.9-2.8s6.8.9,9.6,2.6c2.7,1.7,4.6,4,5.7,6.8h-.3v-8.5h13.7v40c0,5.1-1,9.3-3,12.9-2,3.5-4.9,6.2-8.6,8-3.8,1.8-8.4,2.7-13.9,2.7ZM404.3,61.5c3.2,0,5.8-1.1,7.7-3.2,1.9-2.1,2.9-5,2.9-8.7s-1-6.5-2.9-8.6c-1.9-2.1-4.5-3.2-7.7-3.2s-5.8,1.1-7.7,3.2c-1.9,2.1-2.9,5-2.9,8.6s1,6.6,2.9,8.7c1.9,2.1,4.5,3.2,7.7,3.2Z"/>
      <path class="cls-1" d="M458.2,74.8c-3.8,0-7-.7-9.6-2.2s-4.5-3.6-5.8-6.5c-1.3-2.9-1.9-6.6-1.9-11v-27.2h14.4v27.2c0,1.8.2,3.3.7,4.5.5,1.2,1.3,2.2,2.4,2.8,1.1.6,2.5.9,4.1.9s3.4-.4,4.8-1.3c1.4-.9,2.5-2.1,3.3-3.6.8-1.5,1.2-3.3,1.2-5.3v-25.3h14.4v45.9h-13.6v-9.1h.7c-1.4,3.2-3.4,5.7-6,7.4-2.6,1.8-5.6,2.6-9.2,2.6Z"/>
      <path class="cls-1" d="M538.8,35.5c-1.6-2.9-4.1-5-7.3-6.4-3.2-1.4-7.2-2.1-11.8-2.1s-5,.2-7.6.6c-2.6.4-5.1,1.1-7.4,1.9-2.4.8-4.5,1.8-6.3,2.9l3.7,9.5c2.9-1.5,5.7-2.7,8.5-3.4,2.7-.7,5.3-1.1,7.7-1.1s5.6.6,7.1,1.7c1.4,1.1,2.2,3,2.2,5.7v1.3h-3.8c-6.5,0-11.8.5-15.8,1.4-4,.9-6.9,2.4-8.7,4.4-1.8,2-2.8,4.7-2.8,8s.8,5.4,2.3,7.6c1.5,2.2,3.7,4,6.3,5.3,2.7,1.3,5.7,2,9.1,2s4.9-.4,6.8-1.3c1.9-.9,3.6-2,4.9-3.6,1.2-1.4,2.1-3,2.6-4.8v8.6h12.8v-27c0-4.6-.8-8.4-2.5-11.3ZM526.1,60.3c-.9,1.5-2.1,2.7-3.6,3.5-1.5.8-3.1,1.2-5,1.2s-4-.5-5.3-1.5c-1.3-1-1.9-2.4-1.9-4.2s.3-1.9.8-2.6c.5-.7,1.3-1.3,2.5-1.7,1.1-.4,2.5-.8,4.3-1,1.7-.2,3.8-.3,6.2-.3h3.4v1.5c0,1.9-.4,3.6-1.3,5.1Z"/>
      <path class="cls-1" d="M585.6,26.8l-4.9.4c-4,.2-7.3,1.4-9.8,3.5-2.2,1.8-3.7,4.2-4.7,7.2v-10h-13.3v45.9h14.5v-22.8c0-3.1.9-5.6,2.6-7.5,1.8-1.8,4.4-2.9,7.9-3.2l8.6-.8-1-12.6Z"/>
      <path class="cls-1" d="M610.9,74.8c-4.1,0-7.7-1-10.8-3-3.1-2-5.5-4.8-7.1-8.4-1.7-3.6-2.5-7.8-2.5-12.6s.8-9,2.5-12.6c1.7-3.6,4-6.4,7.1-8.3,3.1-2,6.6-3,10.7-3s6.8.8,9.4,2.5c2.7,1.7,4.5,3.8,5.6,6.5h-.6V8.6h14.4v65.2h-13.5v-9h.4c-1.2,3.1-3.1,5.6-5.9,7.4-2.8,1.8-6,2.6-9.7,2.6ZM615.1,64c3.2,0,5.7-1.1,7.6-3.3s2.8-5.5,2.8-9.8-.9-7.6-2.8-9.8c-1.8-2.2-4.4-3.2-7.6-3.2s-5.7,1.1-7.5,3.2c-1.9,2.2-2.8,5.4-2.8,9.8s.9,7.6,2.8,9.8c1.9,2.2,4.4,3.3,7.5,3.3Z"/>
    </g>
    <path class="cls-1" d="M305.1,10.6l5.5-5.8c-1.4-1.4-3.3-2.2-5.5-2.2-4.4,0-7.9,3.6-7.9,7.9s3.6,7.9,7.9,7.9,7.8-3.6,7.9-7.9h-7.9Z"/>
  </g>
  <g>
    <path class="cls-1" d="M116.1,77.7h0c-.5-1.7-5.6-3.7-4.4-4.9.9-.9.7-3.1-.5-4.7-1.1-1.4-2.7-2.2-4.2-3.1-.8-.4-1.9-.7-2.7-.9-2.5-.6-7.5-1.3-10.1-1.5-.5,0-1.2,0-1.4-.7,0-.3,1-4.1,1.1-4.4.2-.4.3-1.4.5-2.1.4-1.4.5-2.5.7-4,.8-7.4-1-15.7-4-22.8-3.6-8.6-8.7-16.8-16.1-22.7C69.7,1.8,64-.3,57.2,0c-18.3.2-29.2,18.9-34,33.2-2.4,7.1-3.2,14-1.7,21,.5,2.3,2.4,7.2,2.2,7.7-.4.8-3.1,1-4.1,1.1-1.8.3-7.2.8-9,1.5-3.2,1.2-5.2,2.2-7,5-1,1.6-.9,1.9-.7,2.7.2.8,1.1.7.6,1.2-.8.8-3.3,3.2-3.5,4.4-.2,2,.4,3,1.6,4.4,6,7.1,15.7,7.7,25.2,2.8.3-.1.6,0,.6.3.3,1.4.8,3,2,4.1,5.3,4.9,12.4,6.9,18.3,2.5,2-1.5,2.7-3.5,3.4-4.9.8-1.8,1.6-4.1,3.2-4.9,4-2.1,8.8-.9,10.1,1.6.9,1.8,2.6,6,4.2,7.3,3.2,2.5,4.9,3.2,8.8,3.1,3.3-.1,7.1-.7,9.6-3,1.8-1.7,2.3-4.7,3.7-5,.9-.2,3.3,1.3,5.2,1.8,4.2,1,8.3.8,12.4-.9,5.1-2,8.2-6.7,7.8-9.2ZM42.7,60.7c-5.4,0-9.8-4.4-9.8-9.8s4.4-9.8,9.8-9.8,9.8,4.4,9.8,9.8-4.4,9.8-9.8,9.8ZM74.1,60.7c-5.4,0-9.8-4.4-9.8-9.8s4.4-9.8,9.8-9.8,9.8,4.4,9.8,9.8-4.4,9.8-9.8,9.8Z"/>
    <path class="cls-1" d="M42.7,50.9l4.8-5.1c-1.3-1.2-2.9-1.9-4.8-1.9-3.9,0-7,3.1-7,7s3.1,7,7,7,6.9-3.2,7-7h-7Z"/>
    <path class="cls-1" d="M74.1,50.9l4.8-5.1c-1.3-1.2-2.9-1.9-4.8-1.9-3.9,0-7,3.1-7,7s3.1,7,7,7,6.9-3.2,7-7h-7Z"/>
  </g>
</svg>
