<svg width="287" height="56" viewBox="0 0 287 56" fill="none" xmlns="http://www.w3.org/2000/svg">
<path d="M48.9229 33.1709C55.0771 35.8785 63.7375 36.8536 64.0252 39.8547C64.2944 42.6286 59.0314 43.6415 53.1 43.2818C54.5851 45.1184 55.764 46.8793 55.6712 48.1384C55.5226 50.2496 53.3042 51.6223 49.8047 51.6223C45.8832 51.6223 39.8505 49.1197 38.4021 42.3603C38.4606 42.6398 38.9726 45.1983 38.666 47.6556C38.2761 50.7608 35.9741 55.7026 32.3354 55.7026C28.6968 55.7026 26.3948 50.7608 26.0049 47.6556C25.6983 45.1983 26.2103 42.6398 26.2687 42.3603C24.8203 49.1197 18.7784 51.6223 14.8661 51.6223C11.3667 51.6223 9.14823 50.2496 8.99971 48.1384C8.90689 46.8793 10.0765 45.1279 11.5709 43.2818C5.63952 43.6415 0.37645 42.6286 0.645637 39.8547C0.942671 36.8631 9.60306 35.8785 15.748 33.1709C14.4113 30.4539 12.3599 27.3771 13.2417 21.7158C14.4206 14.18 20.8254 0.869263 32.3354 0.869263C43.8455 0.869263 50.2503 14.1894 51.4291 21.7158C52.311 27.3771 50.2689 30.4539 48.9229 33.1709Z" fill="white"/>
<path d="M64.0252 39.8547C63.7375 36.8536 55.0771 35.8785 48.9229 33.1709C50.2689 30.4539 52.311 27.3771 51.4291 21.7158C50.2503 14.1894 43.8455 0.869263 32.3354 0.869263C20.8254 0.869263 14.4206 14.18 13.2417 21.7158C12.3599 27.3771 14.4113 30.4539 15.748 33.1709C9.60306 35.8785 0.942671 36.8631 0.645637 39.8547C0.37645 42.6286 5.63952 43.6415 11.5709 43.2818C10.0765 45.1279 8.90689 46.8793 8.99971 48.1384C9.14823 50.2496 11.3667 51.6223 14.8661 51.6223C18.7833 51.6223 24.8353 49.1135 26.2741 42.3351C26.2741 42.3351 25.68 45.0521 26.0049 47.6556C26.3948 50.7608 28.6968 55.7026 32.3354 55.7026C35.9741 55.7026 38.2761 50.7608 38.666 47.6556C38.9909 45.0521 38.3968 42.3351 38.3968 42.3351C39.8355 49.1135 45.8783 51.6223 49.8047 51.6223C53.3042 51.6223 55.5226 50.2496 55.6712 48.1384C55.764 46.8793 54.5851 45.1184 53.1 43.2818C59.0314 43.6415 64.2944 42.6286 64.0252 39.8547ZM20.2777 12.1256C19.5908 11.5292 19.7765 10.2417 20.6861 9.24763C21.5958 8.25359 22.8953 7.92224 23.5822 8.51866C24.2691 9.11509 24.0835 10.4026 23.1738 11.3967C22.2641 12.3907 20.9646 12.7126 20.2777 12.1256ZM26.5433 29.28C23.7122 29.28 21.4194 26.9416 21.4194 24.0541C21.4194 21.1667 23.7122 18.8283 26.5433 18.8283C29.3744 18.8283 31.6671 21.1667 31.6671 24.0541C31.6671 26.9321 29.3744 29.28 26.5433 29.28ZM29.6714 8.69854C27.6757 9.60738 25.5501 9.29496 24.9189 8.00744C24.2877 6.71045 25.3923 4.93064 27.388 4.0218C29.3837 3.11296 31.5093 3.42537 32.1405 4.7129C32.7717 6.00042 31.6671 7.7897 29.6714 8.69854ZM43.4556 29.28C40.6245 29.28 38.3318 26.9416 38.3318 24.0541C38.3318 21.1667 40.6245 18.8283 43.4556 18.8283C46.2867 18.8283 48.5795 21.1667 48.5795 24.0541C48.5795 26.9321 46.2867 29.28 43.4556 29.28ZM43.8733 24.0163L45.7577 21.7536C45.1729 21.1383 44.356 20.7596 43.4556 20.7596C41.6734 20.7596 40.2347 22.227 40.2347 24.0447C40.2347 25.8624 41.6734 27.3298 43.4556 27.3298C45.2378 27.3298 46.6766 25.8624 46.6766 24.0447C46.6766 24.0352 46.6766 24.0257 46.6766 24.0163H43.8733ZM29.755 24.0163C29.755 24.0257 29.755 24.0352 29.755 24.0447C29.755 25.8624 28.3162 27.3298 26.534 27.3298C24.7518 27.3298 23.313 25.8624 23.313 24.0447C23.313 22.227 24.7518 20.7596 26.534 20.7596C27.4344 20.7596 28.2512 21.1383 28.836 21.7536L26.9517 24.0163H29.755Z" fill="#3443F4"/>
<path d="M94.0421 23.2138H100.164C99.9759 21.5311 99.5194 20.0384 98.7945 18.7357C98.0695 17.4329 97.1432 16.3473 96.0155 15.4788C94.9147 14.5832 93.6528 13.9047 92.2297 13.4433C90.8336 12.9819 89.3434 12.7512 87.7593 12.7512C85.5576 12.7512 83.5707 13.1448 81.7987 13.9318C80.0534 14.7189 78.5767 15.8045 77.3685 17.1887C76.1602 18.5728 75.2339 20.2012 74.5895 22.0739C73.9452 23.9195 73.623 25.9278 73.623 28.0991C73.623 30.216 73.9452 32.1973 74.5895 34.0428C75.2339 35.8612 76.1602 37.4489 77.3685 38.8059C78.5767 40.163 80.0534 41.235 81.7987 42.0221C83.5707 42.782 85.5576 43.162 87.7593 43.162C89.5314 43.162 91.1558 42.8906 92.6325 42.3477C94.1092 41.8049 95.398 41.0179 96.4988 39.9865C97.5997 38.9552 98.4857 37.7068 99.157 36.2412C99.8282 34.7756 100.244 33.1336 100.405 31.3152H94.2837C94.0421 33.2693 93.3709 34.8434 92.27 36.0376C91.196 37.2318 89.6925 37.8289 87.7593 37.8289C86.3363 37.8289 85.128 37.5575 84.1346 37.0147C83.1411 36.4447 82.3357 35.6984 81.7181 34.7756C81.1006 33.8528 80.6441 32.8215 80.3488 31.6816C80.0803 30.5146 79.946 29.3204 79.946 28.0991C79.946 26.8235 80.0803 25.5886 80.3488 24.3944C80.6441 23.2002 81.1006 22.1418 81.7181 21.219C82.3357 20.2691 83.1411 19.5227 84.1346 18.9799C85.128 18.41 86.3363 18.125 87.7593 18.125C88.5379 18.125 89.2763 18.2607 89.9744 18.5321C90.6993 18.7764 91.3437 19.1292 91.9076 19.5906C92.4714 20.052 92.9413 20.5948 93.3172 21.219C93.6931 21.8161 93.9347 22.481 94.0421 23.2138Z" fill="#3443F4"/>
<path d="M103.314 13.4433V42.5106H109.033V31.478C109.033 29.334 109.382 27.8005 110.08 26.8778C110.778 25.9278 111.906 25.4529 113.463 25.4529C114.832 25.4529 115.785 25.8871 116.322 26.7556C116.859 27.597 117.128 28.8861 117.128 30.6231V42.5106H122.847V29.5647C122.847 28.2619 122.726 27.0813 122.484 26.0228C122.27 24.9372 121.88 24.028 121.316 23.2952C120.753 22.5353 119.974 21.9518 118.98 21.5447C118.014 21.1104 116.765 20.8933 115.235 20.8933C114.161 20.8933 113.06 21.1783 111.932 21.7482C110.805 22.291 109.878 23.1731 109.154 24.3944H109.033V13.4433H103.314Z" fill="#3443F4"/>
<path d="M126.14 27.9362C126.221 26.5792 126.556 25.4529 127.147 24.5573C127.738 23.6616 128.49 22.9424 129.402 22.3996C130.315 21.8568 131.336 21.4768 132.463 21.2597C133.618 21.0154 134.772 20.8933 135.927 20.8933C136.974 20.8933 138.035 20.9747 139.109 21.1376C140.183 21.2733 141.163 21.5583 142.049 21.9925C142.935 22.4267 143.66 23.0374 144.223 23.8245C144.787 24.5844 145.069 25.6022 145.069 26.8778V37.8289C145.069 38.7788 145.123 39.688 145.23 40.5565C145.338 41.425 145.526 42.0763 145.794 42.5106H139.995C139.887 42.1849 139.793 41.8592 139.713 41.5335C139.659 41.1807 139.619 40.8279 139.592 40.4751C138.679 41.425 137.605 42.0899 136.37 42.4699C135.135 42.8498 133.873 43.0398 132.584 43.0398C131.591 43.0398 130.664 42.9177 129.805 42.6734C128.946 42.4292 128.194 42.0492 127.55 41.5335C126.905 41.0179 126.395 40.3665 126.019 39.5794C125.67 38.7924 125.496 37.856 125.496 36.7704C125.496 35.5762 125.697 34.5992 126.1 33.8393C126.53 33.0522 127.067 32.428 127.711 31.9666C128.382 31.5052 129.134 31.1659 129.966 30.9488C130.825 30.7045 131.685 30.5146 132.544 30.3789C133.403 30.2432 134.249 30.1346 135.081 30.0532C135.913 29.9718 136.652 29.8496 137.296 29.6868C137.941 29.5239 138.451 29.2933 138.827 28.9947C139.203 28.669 139.377 28.2076 139.35 27.6105C139.35 26.9863 139.243 26.4978 139.028 26.145C138.84 25.765 138.572 25.48 138.223 25.2901C137.9 25.0729 137.511 24.9372 137.055 24.8829C136.625 24.8015 136.155 24.7608 135.645 24.7608C134.517 24.7608 133.631 25.0051 132.987 25.4936C132.342 25.9821 131.967 26.7963 131.859 27.9362H126.14ZM139.35 32.2108C139.109 32.428 138.8 32.6044 138.424 32.7401C138.075 32.8486 137.686 32.9436 137.256 33.025C136.853 33.1065 136.424 33.1743 135.967 33.2286C135.511 33.2829 135.054 33.3507 134.598 33.4321C134.168 33.5136 133.739 33.6221 133.309 33.7578C132.906 33.8935 132.544 34.0835 132.222 34.3278C131.926 34.5449 131.685 34.8299 131.497 35.1827C131.309 35.5355 131.215 35.9833 131.215 36.5261C131.215 37.0418 131.309 37.4761 131.497 37.8289C131.685 38.1817 131.94 38.4667 132.262 38.6838C132.584 38.8738 132.96 39.0095 133.39 39.0909C133.819 39.1723 134.262 39.213 134.719 39.213C135.846 39.213 136.719 39.0231 137.336 38.6431C137.954 38.2631 138.41 37.8153 138.706 37.2996C139.001 36.7568 139.176 36.214 139.229 35.6712C139.31 35.1284 139.35 34.6942 139.35 34.3685V32.2108Z" fill="#3443F4"/>
<path d="M154.583 18.2064V13.4433H148.864V18.2064H154.583ZM148.864 21.4633V42.5106H154.583V21.4633H148.864Z" fill="#3443F4"/>
<path d="M158.28 21.4633V42.5106H163.999V31.478C163.999 29.334 164.348 27.8005 165.047 26.8778C165.745 25.9278 166.872 25.4529 168.43 25.4529C169.799 25.4529 170.752 25.8871 171.289 26.7556C171.826 27.597 172.095 28.8861 172.095 30.6231V42.5106H177.814V29.5647C177.814 28.2619 177.693 27.0813 177.451 26.0228C177.236 24.9372 176.847 24.028 176.283 23.2952C175.719 22.5353 174.941 21.9518 173.947 21.5447C172.981 21.1104 171.732 20.8933 170.202 20.8933C168.993 20.8933 167.812 21.1783 166.658 21.7482C165.503 22.291 164.563 23.1731 163.838 24.3944H163.718V21.4633H158.28Z" fill="#3443F4"/>
<path d="M191.055 37.5439C190.169 37.5439 189.43 37.3539 188.84 36.974C188.249 36.594 187.766 36.1055 187.39 35.5084C187.041 34.9113 186.786 34.2464 186.625 33.5136C186.49 32.7536 186.423 31.9937 186.423 31.2338C186.423 30.4467 186.504 29.7004 186.665 28.9947C186.853 28.2619 187.135 27.6241 187.511 27.0813C187.913 26.5114 188.397 26.0636 188.96 25.7379C189.551 25.4122 190.249 25.2493 191.055 25.2493C191.994 25.2493 192.773 25.4258 193.391 25.7786C194.008 26.1314 194.505 26.6064 194.881 27.2034C195.257 27.8005 195.525 28.4926 195.686 29.2797C195.847 30.0396 195.928 30.8538 195.928 31.7223C195.928 32.4822 195.821 33.215 195.606 33.9207C195.418 34.5992 195.122 35.2098 194.72 35.7526C194.317 36.2955 193.807 36.7297 193.189 37.0554C192.572 37.3811 191.86 37.5439 191.055 37.5439ZM201.365 41.1671V21.4633H195.928V24.2723H195.847C195.149 23.051 194.277 22.1825 193.23 21.6668C192.209 21.1512 191.014 20.8933 189.645 20.8933C188.195 20.8933 186.906 21.1783 185.779 21.7482C184.678 22.3182 183.752 23.0917 183 24.0687C182.248 25.0186 181.671 26.1314 181.268 27.407C180.892 28.6555 180.704 29.9582 180.704 31.3152C180.704 32.7536 180.865 34.1242 181.187 35.427C181.537 36.7026 182.074 37.8289 182.798 38.8059C183.523 39.7558 184.45 40.5158 185.577 41.0857C186.705 41.6285 188.048 41.8999 189.605 41.8999C190.867 41.8999 192.062 41.6421 193.189 41.1264C194.344 40.5836 195.23 39.7558 195.847 38.6431H195.928V41.4114C195.955 42.9041 195.592 44.139 194.841 45.1161C194.116 46.0931 192.948 46.5816 191.337 46.5816C190.316 46.5816 189.417 46.3645 188.638 45.9303C187.86 45.5232 187.336 44.7768 187.068 43.6912H181.389C181.469 44.8854 181.792 45.9031 182.355 46.7445C182.946 47.613 183.671 48.3186 184.53 48.8614C185.416 49.4042 186.383 49.7978 187.43 50.042C188.504 50.3134 189.551 50.4491 190.571 50.4491C192.961 50.4491 194.867 50.1235 196.29 49.4721C197.713 48.8207 198.801 48.0201 199.553 47.0702C200.304 46.1474 200.788 45.1432 201.003 44.0576C201.244 42.972 201.365 42.0085 201.365 41.1671Z" fill="#3443F4"/>
<path d="M224.697 42.5106V21.4633H218.978V32.4958C218.978 34.6399 218.629 36.1869 217.931 37.1368C217.233 38.0596 216.105 38.521 214.548 38.521C213.179 38.521 212.225 38.1003 211.688 37.2589C211.151 36.3904 210.883 35.0877 210.883 33.3507V21.4633H205.164V34.4092C205.164 35.7119 205.271 36.9061 205.486 37.9917C205.728 39.0502 206.131 39.9594 206.694 40.7193C207.258 41.4521 208.023 42.0221 208.99 42.4292C209.984 42.8363 211.245 43.0398 212.776 43.0398C213.984 43.0398 215.165 42.7684 216.32 42.2256C217.475 41.6828 218.414 40.8007 219.139 39.5794H219.26V42.5106H224.697Z" fill="#3443F4"/>
<path d="M227.99 27.9362C228.071 26.5792 228.407 25.4529 228.997 24.5573C229.588 23.6616 230.34 22.9424 231.253 22.3996C232.166 21.8568 233.186 21.4768 234.314 21.2597C235.468 21.0154 236.623 20.8933 237.777 20.8933C238.824 20.8933 239.885 20.9747 240.959 21.1376C242.033 21.2733 243.013 21.5583 243.899 21.9925C244.785 22.4267 245.51 23.0374 246.074 23.8245C246.638 24.5844 246.919 25.6022 246.919 26.8778V37.8289C246.919 38.7788 246.973 39.688 247.081 40.5565C247.188 41.425 247.376 42.0763 247.644 42.5106H241.845C241.737 42.1849 241.644 41.8592 241.563 41.5335C241.509 41.1807 241.469 40.8279 241.442 40.4751C240.529 41.425 239.455 42.0899 238.22 42.4699C236.985 42.8498 235.723 43.0398 234.434 43.0398C233.441 43.0398 232.515 42.9177 231.655 42.6734C230.796 42.4292 230.044 42.0492 229.4 41.5335C228.756 41.0179 228.246 40.3665 227.87 39.5794C227.521 38.7924 227.346 37.856 227.346 36.7704C227.346 35.5762 227.547 34.5992 227.95 33.8393C228.38 33.0522 228.917 32.428 229.561 31.9666C230.232 31.5052 230.984 31.1659 231.817 30.9488C232.676 30.7045 233.535 30.5146 234.394 30.3789C235.253 30.2432 236.099 30.1346 236.931 30.0532C237.764 29.9718 238.502 29.8496 239.146 29.6868C239.791 29.5239 240.301 29.2933 240.677 28.9947C241.053 28.669 241.227 28.2076 241.2 27.6105C241.2 26.9863 241.093 26.4978 240.878 26.145C240.69 25.765 240.422 25.48 240.073 25.2901C239.751 25.0729 239.361 24.9372 238.905 24.8829C238.475 24.8015 238.005 24.7608 237.495 24.7608C236.368 24.7608 235.482 25.0051 234.837 25.4936C234.193 25.9821 233.817 26.7963 233.709 27.9362H227.99ZM241.2 32.2108C240.959 32.428 240.65 32.6044 240.274 32.7401C239.925 32.8486 239.536 32.9436 239.106 33.025C238.703 33.1065 238.274 33.1743 237.817 33.2286C237.361 33.2829 236.905 33.3507 236.448 33.4321C236.019 33.5136 235.589 33.6221 235.159 33.7578C234.757 33.8935 234.394 34.0835 234.072 34.3278C233.777 34.5449 233.535 34.8299 233.347 35.1827C233.159 35.5355 233.065 35.9833 233.065 36.5261C233.065 37.0418 233.159 37.4761 233.347 37.8289C233.535 38.1817 233.79 38.4667 234.112 38.6838C234.434 38.8738 234.81 39.0095 235.24 39.0909C235.669 39.1723 236.113 39.213 236.569 39.213C237.697 39.213 238.569 39.0231 239.187 38.6431C239.804 38.2631 240.261 37.8153 240.556 37.2996C240.851 36.7568 241.026 36.214 241.08 35.6712C241.16 35.1284 241.2 34.6942 241.2 34.3685V32.2108Z" fill="#3443F4"/>
<path d="M250.553 21.4633V42.5106H256.272V33.025C256.272 32.0751 256.366 31.1931 256.554 30.3789C256.742 29.5647 257.051 28.859 257.48 28.2619C257.937 27.6377 258.527 27.1492 259.252 26.7963C259.977 26.4435 260.863 26.2671 261.91 26.2671C262.259 26.2671 262.622 26.2942 262.998 26.3485C263.374 26.3757 263.696 26.4164 263.964 26.4707V21.0969C263.508 20.9612 263.092 20.8933 262.716 20.8933C261.991 20.8933 261.293 21.0019 260.622 21.219C259.95 21.4361 259.319 21.7482 258.729 22.1553C258.138 22.5353 257.614 23.0103 257.158 23.5802C256.702 24.123 256.339 24.7201 256.071 25.3715H255.99V21.4633H250.553Z" fill="#3443F4"/>
<path d="M280.585 31.9259C280.585 32.7944 280.504 33.6357 280.343 34.4499C280.182 35.2641 279.913 35.9969 279.537 36.6483C279.161 37.2725 278.651 37.7746 278.007 38.1546C277.389 38.5345 276.611 38.7245 275.671 38.7245C274.785 38.7245 274.02 38.5345 273.375 38.1546C272.758 37.7475 272.234 37.2318 271.805 36.6076C271.402 35.9562 271.107 35.2234 270.919 34.4092C270.731 33.595 270.637 32.7808 270.637 31.9666C270.637 31.0981 270.717 30.2703 270.878 29.4832C271.066 28.669 271.348 27.9498 271.724 27.3256C272.127 26.7013 272.65 26.1993 273.295 25.8193C273.939 25.4393 274.731 25.2493 275.671 25.2493C276.611 25.2493 277.389 25.4393 278.007 25.8193C278.624 26.1993 279.121 26.7013 279.497 27.3256C279.9 27.9227 280.182 28.6283 280.343 29.4425C280.504 30.2296 280.585 31.0574 280.585 31.9259ZM280.665 39.8237V42.5106H286.102V13.4433H280.383V24.028H280.303C279.658 22.9967 278.772 22.2232 277.644 21.7075C276.544 21.1647 275.376 20.8933 274.141 20.8933C272.61 20.8933 271.268 21.2054 270.113 21.8297C268.959 22.4267 267.992 23.2274 267.213 24.2316C266.462 25.2358 265.884 26.4028 265.482 27.7327C265.106 29.0354 264.918 30.3924 264.918 31.8037C264.918 33.2693 265.106 34.6806 265.482 36.0376C265.884 37.3946 266.462 38.6024 267.213 39.6609C267.992 40.6922 268.972 41.52 270.153 42.1442C271.335 42.7413 272.704 43.0398 274.261 43.0398C275.631 43.0398 276.852 42.7956 277.926 42.307C279.027 41.7914 279.913 40.9636 280.585 39.8237H280.665Z" fill="#3443F4"/>
</svg>
