<svg id="Layer_1" data-name="Layer 1" xmlns="http://www.w3.org/2000/svg" viewBox="0 0 1224 205.39493"><defs><style>.cls-1{fill:#2cba9c;}.cls-2{fill:#2dba9d;}.cls-3{fill:#fefefe;}</style></defs><title>chalice</title><path class="cls-1" d="M1107.71932,103.48655q0-30.9081.00171-61.81618c.00085-4.6405,1.69579-6.36448,6.28181-6.3653q42.87158-.00764,85.7433.00179c4.12582.00119,6.6235,2.79745,5.50527,6.15718-.88265,2.6515-2.94292,3.28714-5.51851,3.28183q-28.14358-.058-56.28715-.02064c-7.58278,0-15.167.08547-22.7472-.05242-2.24059-.04075-2.76061.6837-2.7495,2.817q.12392,23.7636-.014,47.52782c-.01866,2.53648.59978,3.26619,3.211,3.254,23.13661-.10782,46.27378-.06413,69.41081-.05879,1.34954.00032,2.739-.18727,3.95461.653a4.74194,4.74194,0,0,1-1.94647,8.70666,15.83924,15.83924,0,0,1-2.62.05763c-22.94261.002-45.88551.04912-68.82755-.06381-2.6102-.01285-3.20272.69468-3.18406,3.22432q.17818,24.05453.00171,48.11078c-.01823,2.53811.60391,3.273,3.21554,3.263,26.34473-.10063,52.6899-.06444,79.03506-.05771,3.80235.001,5.77119,1.28834,6.171,3.96259a4.61223,4.61223,0,0,1-3.67659,5.43689,14.84927,14.84927,0,0,1-3.18534.19187q-42.28832.01365-84.57665.00655c-5.70211-.00028-7.19878-1.51695-7.19878-7.27667Q1107.71911,133.95728,1107.71932,103.48655Z"/><path class="cls-2" d="M510.82166,167.75836a4.66828,4.66828,0,0,1-2.93274,4.21139,4.79,4.79,0,0,1-5.18409-.721c-1.51533-1.2098-2.1525-2.96322-2.91536-4.6337-4.63444-10.149-9.30862-20.28061-13.83418-30.478-.871-1.96252-1.88957-2.7327-4.099-2.72557q-37.32486.12051-74.65-.00213c-2.12174-.007-3.04569.75749-3.86147,2.59827-4.717,10.64336-9.55951,21.2312-14.36633,31.83473a9.46817,9.46817,0,0,1-1.95652,3.20974,4.76506,4.76506,0,0,1-5.65906.82277,4.044,4.044,0,0,1-2.35909-4.82183,14.64522,14.64522,0,0,1,1.1381-3.27774q28.63-62.11274,57.29065-124.21133c1.35538-2.938,3.03387-5.43614,6.73716-5.59791,4.12255-.18007,6.15761,1.143,8.20969,5.58408q10.25391,22.19138,20.48944,44.39129,18.27936,39.64953,36.5499,79.30308A10.43946,10.43946,0,0,1,510.82166,167.75836ZM444.75643,45.87859c-.57671,1.15979-.89447,1.75517-1.17435,2.36781q-16.67552,36.50556-33.3397,73.01623c-1.3182,2.88933-1.28794,2.91966,1.92853,2.92041q32.493.00771,64.986.00014c3.18955-.00071,3.18976-.01659,1.87155-2.92034q-11.18081-24.62817-22.36355-49.25546C452.77961,63.45752,448.87605,54.916,444.75643,45.87859Z"/><path class="cls-1" d="M203.36007,103.42628q.0001-31.34487.00587-62.68972c.00243-4.03151,1.70815-6.06289,5.01428-6.10311a4.71556,4.71556,0,0,1,5.05732,4.208,23.45281,23.45281,0,0,1,.15575,3.48782c.00869,17.68918.04169,35.37854-.03935,53.06736-.01,2.196.43445,2.96776,2.84066,2.9595q40.683-.13962,81.36652.00462c2.60016.00988,2.94179-.90561,2.9311-3.16755-.0851-18.07754-.05886-36.15571-.03888-54.23365.00474-4.26414,1.72086-6.32317,5.11486-6.32611a4.82256,4.82256,0,0,1,5.069,4.55669,25.86737,25.86737,0,0,1,.04529,2.62212q.00246,61.66919-.00195,123.33836a20.52849,20.52849,0,0,1-.0954,2.91,4.95836,4.95836,0,0,1-5.0606,4.29987,4.6877,4.6877,0,0,1-4.8984-4.09076,16.44115,16.44115,0,0,1-.17483-3.19242c-.00933-17.9807-.04694-35.96157.03973-53.94183.012-2.48852-.40261-3.50231-3.27792-3.48906q-40.391.18618-80.78319.01938c-2.43961-.00781-3.09615.6699-3.08322,3.08718.09678,18.07744.05569,36.15564.05053,54.2336-.00146,5.07009-1.54065,7.32283-5.00829,7.3863-3.60292.066-5.22853-2.23918-5.22874-7.42317Q203.35913,134.188,203.36007,103.42628Z"/><path class="cls-2" d="M16.76076,103.51478c-.00264-29.68387,16.37493-55.64825,42.74879-65.647,24.95761-9.46177,48.65772-6.08,70.27376,9.962a60.14086,60.14086,0,0,1,4.9739,4.04358c2.66247,2.45711,2.90315,5.43144.77027,7.68934-2.15905,2.28559-5.22507,2.41512-7.79575.10546-7.461-6.7033-15.68166-12.08722-25.38532-14.96623C68.14653,34.55512,34.14047,55.8645,28.44117,91.14765,25.008,112.402,29.5371,131.62593,44.59148,147.496c20.27469,21.37319,53.9655,23.09058,77.64,4.31136,2.35661-1.8693,4.55789-3.93466,6.82626-5.9148,2.459-2.14659,5.24422-2.16341,7.25333-.03524,1.99091,2.10888,1.85685,4.91427-.54608,7.2144-16.12085,15.43139-35.18715,22.4782-57.58636,20.627-32.14771-2.65684-57.201-27.83412-60.94629-60.588A80.93594,80.93594,0,0,1,16.76076,103.51478Z"/><path class="cls-2" d="M920.92985,103.67351c1.03327-27.316,11.49074-49.76119,36.415-62.64668,26.52192-13.71147,52.53842-10.70132,76.776,6.80656a61.26885,61.26885,0,0,1,4.99679,4.015c2.595,2.32445,2.858,5.46316.77041,7.73177-2.08534,2.26609-5.2328,2.36951-7.7987.0936-7.038-6.24251-14.67446-11.44311-23.70961-14.42876-33.42473-11.04515-67.59195,8.38436-75.00011,43.00761-4.40021,20.5651-.75083,39.62642,12.7742,56.15937,18.82441,23.011,53.29316,27.06577,77.78458,9.38555,3.39528-2.451,6.49958-5.23814,9.63892-7.99354,2.33973-2.05347,5.09222-2.01257,7.02146-.04063,2.0503,2.09568,1.96911,4.953-.343,7.2418-27.43533,27.15991-68.08249,26.63937-92.87814,6.99872-15.06585-11.93373-23.31735-27.732-25.77258-46.68A76.6214,76.6214,0,0,1,920.92985,103.67351Z"/><path class="cls-2" d="M794.29846,28.30111q29.31063,0,58.62125.00133c3.87229.00058,3.94009.07564,3.94038,3.8998.00206,26.49386-19.77543,51.70868-46.07317,58.42781-2.9175.74541-4.17581,2.05424-4.76462,4.83835-.8835,4.178-1.84456,8.32934-2.37925,12.57654a3.49332,3.49332,0,0,0,1.54018,3.68533,16.81663,16.81663,0,0,1,6.55129,11.60239c.458,3.191-.2583,4.00933-3.50261,4.04566-4.77865.05351-4.78684.05534-3.7018,4.89079,3.56863,15.9028,12.801,27.37338,27.23907,34.7642q1.1665.59714,2.34649,1.168c1.20967.58165,2.74152.94965,2.39855,2.78132-.37773,2.01714-2.06718,1.7414-3.487,1.74253q-29.019.02313-58.03792.01045-9.62439,0-19.24879-.004c-1.45479-.002-3.15621.18538-3.62474-1.64824-.5062-1.98076,1.29941-2.327,2.56463-2.92426,15.75643-7.43784,25.9769-19.34257,29.58049-36.59442.15853-.75878.20254-1.5431.38507-2.29487.3355-1.38231-.12342-2.03023-1.58-1.8914a8.05821,8.05821,0,0,1-.87453-.00009c-5.6759-.08-6.18659-.78153-4.78485-6.34833a16.31534,16.31534,0,0,1,6.08169-9.32881,3.41785,3.41785,0,0,0,1.58128-3.66181c-.72569-4.60387-1.56853-9.173-2.74537-13.69277-.53562-2.05679-1.55984-2.90038-3.57867-3.47877-24.58577-7.044-39.79142-23.11437-45.76693-47.94563a64.181,64.181,0,0,1-1.3056-10.685c-.2264-3.30173.408-3.932,3.71269-3.933Q764.8421,28.29487,794.29846,28.30111Zm.02094,4.00192H741.25455c-5.96938,0-5.96938,0-5.04849,6.09093a58.77279,58.77279,0,0,0,69.88311,49.361c24.81915-4.88155,44.35415-26.55672,46.63541-51.74467.3355-3.70315.3355-3.70644-3.29929-3.70667Q821.87235,32.30178,794.3194,32.303ZM762.52167,168.63072h62.96178c-.2078-.93836-.96269-1.08041-1.49211-1.4298-13.29614-8.77541-21.1118-21.0989-23.84834-36.72611-1.16409-6.648-1.17449-6.72464,5.63432-7.04966,1.8771-.08959,1.83758-.92991,1.4204-2.17562-.81756-2.44076-1.98458-4.90949-4.23692-6.089-3.51521-1.84078-4.09719-4.46987-3.27144-7.90613.18046-.751.20282-1.53849.34675-2.3.74413-3.93614,1.50408-7.8693,2.29408-11.989-4.87345,0-9.53011.06647-14.18328-.03147-1.97-.04146-1.91129.69122-1.4976,2.26307a87.74681,87.74681,0,0,1,2.569,14.59112c.171,1.92627-.22846,3.20385-2.08164,4.27595-3.43118,1.98508-5.389,5.13724-6.13275,9.31235,1.78075,0,3.32329-.01554,4.86532.00329,3.05687.03733,3.61257.5945,3.21625,3.65929-1.2645,9.77729-4.38889,18.85074-10.28136,26.87416C774.55843,159.69436,769.23668,164.29555,762.52167,168.63072Z"/><path class="cls-1" d="M578.80266,102.88191q0-30.76761.00677-61.53521c.00342-4.57552,1.82548-6.78691,5.40521-6.7126a4.77806,4.77806,0,0,1,4.89011,4.419,25.4328,25.4328,0,0,1,.05911,2.91326q.00342,58.32723-.06246,116.65429c-.00684,2.79077.68218,3.56236,3.50973,3.54835,23.43215-.11616,46.86516-.06675,70.298-.06237a17.76388,17.76388,0,0,1,2.90916.0986,4.50579,4.50579,0,0,1,4.11927,4.561c.08211,2.54119-1.40844,4.18011-3.87,4.78711a11.04528,11.04528,0,0,1-2.60835.14671q-38.7953.00983-77.59066.00384c-5.197-.00064-7.05358-1.80517-7.05821-6.99507Q578.78262,133.79536,578.80266,102.88191Z"/><path class="cls-3" d="M444.75643,45.87859c4.11962,9.03737,8.02318,17.57893,11.9085,26.12879q11.18989,24.624,22.36355,49.25546c1.31821,2.90375,1.318,2.91963-1.87155,2.92034q-32.493.00729-64.986-.00014c-3.21647-.00075-3.24673-.03108-1.92853-2.92041q16.65853-36.51332,33.3397-73.01623C443.862,47.63376,444.17972,47.03838,444.75643,45.87859Z"/><path class="cls-3" d="M794.3194,32.303q27.55295,0,55.10589.00055c3.63479.00023,3.63479.00352,3.29929,3.70667-2.28126,25.188-21.81626,46.86312-46.63541,51.74467a58.77279,58.77279,0,0,1-69.88311-49.361c-.92089-6.09092-.92089-6.09093,5.04849-6.09093Zm-.05263,25.30176c1.11873,2.79,2.06227,5.11328,2.98323,7.44546,2.8982,7.339,2.8742,7.28124,10.35094,4.65947,1.69942-.59592,1.7757-1.42572,1.20853-2.788-.5166-1.241-.45207-3.16478-2.76837-2.04161-1.8707.90713-2.71532-.06714-3.37919-1.79857-2.2193-5.78788-4.56522-11.52727-6.8697-17.28242-2.06055-5.14609-2.06426-5.10722-7.5701-5.047-1.5327.01678-2.64624.075-2.49569,2.12141.12349,1.67911-.23622,3.44636,2.4274,3.04234.743-.1127,1.69315-.169,1.99511.76822.71379,2.21567,1.81615,4.19154-.01339,6.72654-3.83326,5.3112-7.1985,10.96006-10.82431,16.57613,3.97449.86239,6.92467.50019,8.88916-3.42295C789.73289,63.50323,792.04071,60.83058,794.26677,57.60479Zm-51.478-20.99016c-1.86286.33088-2.24422,1.57263-1.92211,3.22645a54.24008,54.24008,0,0,0,19.09888,32.43c1.10577.91407,2.32954,1.36006,3.302.09409.92645-1.206.32054-2.34677-.78992-3.26768a49.603,49.603,0,0,1-17.67015-30.25955A2.5103,2.5103,0,0,0,742.78875,36.61463Zm29.59809,40.22972c.035-1.26369-3.30854-3.72528-5.00042-3.69126a1.88073,1.88073,0,0,0-1.983,1.7182c-.2051,1.2534,3.04682,3.83343,4.87956,3.85481A1.84988,1.84988,0,0,0,772.38684,76.84435Z"/><path class="cls-3" d="M762.52167,168.63072c6.715-4.33517,12.03676-8.93636,16.2825-14.71744,5.89247-8.02342,9.01686-17.09687,10.28136-26.87416.39632-3.06479-.15938-3.622-3.21625-3.65929-1.542-.01883-3.08457-.00329-4.86532-.00329.74371-4.17511,2.70157-7.32727,6.13275-9.31235,1.85318-1.0721,2.25263-2.34968,2.08164-4.27595a87.74681,87.74681,0,0,0-2.569-14.59112c-.41369-1.57185-.47237-2.30453,1.4976-2.26307,4.65317.09794,9.30983.03147,14.18328.03147-.79,4.11966-1.54995,8.05282-2.29408,11.989-.14393.76147-.16629,1.549-.34675,2.3-.82575,3.43626-.24377,6.06535,3.27144,7.90613,2.25234,1.17947,3.41936,3.6482,4.23692,6.089.41718,1.24571.4567,2.086-1.4204,2.17562-6.80881.325-6.79841.40165-5.63432,7.04966,2.73654,15.62721,10.5522,27.9507,23.84834,36.72611.52942.34939,1.28431.49144,1.49211,1.4298Z"/><path class="cls-2" d="M794.26677,57.60479c-2.22606,3.22579-4.53388,5.89844-6.06638,8.9591-1.96449,3.92314-4.91467,4.28534-8.88916,3.423,3.62581-5.61607,6.991-11.26493,10.82431-16.57613,1.82954-2.535.72718-4.51087.01339-6.72654-.302-.93723-1.25212-.88092-1.99511-.76822-2.66362.404-2.30391-1.36323-2.4274-3.04234-.15055-2.04645.963-2.10463,2.49569-2.12141,5.50584-.06025,5.50955-.09912,7.5701,5.047,2.30448,5.75515,4.6504,11.49454,6.8697,17.28242.66387,1.73143,1.50849,2.7057,3.37919,1.79857,2.3163-1.12317,2.25177.80065,2.76837,2.04161.56717,1.36223.49089,2.192-1.20853,2.788-7.47674,2.62177-7.45274,2.67957-10.35094-4.65947C796.329,62.71807,795.3855,60.39479,794.26677,57.60479Z"/><path class="cls-2" d="M742.78875,36.61463a2.5103,2.5103,0,0,1,2.01869,2.22326,49.603,49.603,0,0,0,17.67015,30.25955c1.11046.92091,1.71637,2.06168.78992,3.26768-.97245,1.266-2.19622.82-3.302-.09409a54.24008,54.24008,0,0,1-19.09888-32.42995C740.54453,38.18726,740.92589,36.94551,742.78875,36.61463Z"/><path class="cls-2" d="M772.3867,76.84417A1.84974,1.84974,0,0,1,770.283,78.7261c-1.83274-.02138-5.08466-2.60141-4.87956-3.85481a1.88073,1.88073,0,0,1,1.983-1.7182C769.0783,73.11907,772.42181,75.58066,772.3867,76.84417Z"/></svg>