<svg id="Layer_1" data-name="Layer 1" xmlns="http://www.w3.org/2000/svg" xmlns:xlink="http://www.w3.org/1999/xlink" viewBox="0 0 1152 192.55775"><defs><style>.cls-1{fill:#4c0067;}.cls-2{fill:#fcb3cf;}.cls-3{fill:none;}.cls-4{fill:url(#linear-gradient);}.cls-5{fill:url(#linear-gradient-2);}.cls-6{fill:url(#linear-gradient-3);}.cls-7{fill:url(#linear-gradient-4);}.cls-8{fill:url(#linear-gradient-5);}.cls-9{fill:url(#linear-gradient-7);}</style><linearGradient id="linear-gradient" x1="110.04517" y1="50.07536" x2="110.04517" y2="208.18971" gradientUnits="userSpaceOnUse"><stop offset="0" stop-color="#f60664"/><stop offset="0.61895" stop-color="#540067"/></linearGradient><linearGradient id="linear-gradient-2" x1="233.10866" y1="15.69901" x2="239.80632" y2="146.3034" gradientUnits="userSpaceOnUse"><stop offset="0" stop-color="#f60664"/><stop offset="0.21708" stop-color="#f30664"/><stop offset="0.37478" stop-color="#ea0664"/><stop offset="0.51378" stop-color="#da0565"/><stop offset="0.64193" stop-color="#c30465"/><stop offset="0.76263" stop-color="#a70365"/><stop offset="0.87781" stop-color="#830266"/><stop offset="0.9866" stop-color="#5a0067"/><stop offset="1" stop-color="#540067"/></linearGradient><linearGradient id="linear-gradient-3" x1="240.46118" y1="15.32196" x2="247.15884" y2="145.92635" xlink:href="#linear-gradient-2"/><linearGradient id="linear-gradient-4" x1="239.96401" y1="15.34745" x2="246.66168" y2="145.95184" xlink:href="#linear-gradient-2"/><linearGradient id="linear-gradient-5" x1="250.6425" y1="14.79984" x2="257.34016" y2="145.40423" xlink:href="#linear-gradient-2"/><linearGradient id="linear-gradient-7" x1="248.33594" y1="131.22159" x2="252.59109" y2="214.19709" xlink:href="#linear-gradient-2"/></defs><title>chaos-blade</title><path class="cls-1" d="M851.976,97.05517c6.42739-6.82951,8.80445-14.98276,6.881-24.11063-2.80755-13.32279-15.46919-22.92226-30.04145-22.9903-15.92572-.0744-31.85257.044-47.77771-.08083-2.46805-.0193-3.03834.61272-3.02,3.04218.11912,15.81612.06117,31.63357.06117,47.45051.00006,15.92609.059,31.85263-.06218,47.77778-.01866,2.45846.59974,3.08594,3.054,3.06771,15.707-.11659,31.41532-.05454,47.12324-.06413a32.38758,32.38758,0,0,0,8.41646-1.01862c11.39016-3.06343,19.79936-9.643,23.26888-21.19828,3.317-11.04757.12511-20.6418-8.01926-28.59586C850.39288,98.90179,850.82324,98.28005,851.976,97.05517Zm-55.0517-29.33288c-.02863-1.86251.71412-2.12407,2.29842-2.09468,4.581.08474,9.16482.02995,13.74748.03146,4.47351.00145,8.9508-.11483,13.42.02548,9.55041.29983,15.34389,6.52626,14.01616,14.90324-.83626,5.27673-4.9185,8.98353-11.067,9.97718-6.3987,1.03414-12.85.36712-19.276.51448-3.59891.08255-7.20268-.04931-10.801.04364-1.60285.04143-2.355-.28785-2.33109-2.12527C797.02359,81.90676,797.03343,74.81285,796.92428,67.72229Zm44.68086,57.54637a13.27286,13.27286,0,0,1-11.96524,9.71549c-10.3134,1.0492-20.70114.232-31.05515.42532-1.33768.025-1.63172-.60547-1.62787-1.784.02705-8.398.04729-16.79634-.0128-25.194-.012-1.68166.94163-1.62573,2.09487-1.62144,4.90791.01816,9.816.00769,14.72385.00769l.00013.0816c4.907,0,9.82893-.24529,14.71805.05164C838.325,107.54872,844.43848,116.17522,841.60514,125.26866Z"/><path class="cls-1" d="M386.39928,71.801c8.85534-9.04318,19.99787-9.73611,31.5893-8.43184,5.30328.59664,9.64891,2.42876,14.87544,6.51643,2.15106,2.04392,4.83849,4.5691,4.83849,4.5691l16.61045.10947c2.58571.21117,2.62663-.955,2.069-2.86127A32.2561,32.2561,0,0,0,443.215,53.95306c-8.58728-5.95705-18.334-8.42661-28.60419-8.99658-14.2317-.78979-27.70387,1.77587-39.0618,10.91225-16.4448,13.22833-21.20573,31.19072-18.87022,51.26672,2.29962,19.76676,12.16115,34.72827,31.14765,42.08922,16.181,6.27328,32.69059,5.78295,48.74841-.96376,9.88543-4.15337,16.31534-11.7144,19.69854-21.89582.67231-2.02312.51032-2.89223-1.99052-2.807-5.23095.17814-10.47445.14213-15.70817.01-1.13584-.02869-3.05857-.17221-3.05857-.17221s-.945,1.64667-1.47011,2.46748c-3.0285,4.734-7.56658,7.41052-13.03235,8.54005a50.0008,50.0008,0,0,1-15.93461.62143c-12.48684-1.44981-21.27281-7.84573-25.34976-19.98456a50.8135,50.8135,0,0,1-.64356-29.94289A29.47535,29.47535,0,0,1,386.39928,71.801Z"/><path class="cls-1" d="M1053.08023,53.12569V49.792c-5.75306,1.63008-10.943,3.25437-16.219,4.5203-2.13031.5112-2.75785,1.34462-2.72,3.48313.13154,7.41846-.07441,14.844.11943,22.25972.06659,2.55135-.73688,3.09427-3.10782,3.00025-4.68513-.18564-9.38388-.11432-14.07544-.04351-16.05763.24239-27.13433,8.495-31.009,23.0089a41.11142,41.11142,0,0,0-1.27451,9.04343c-.77307,19.91791,9.56176,34.87791,30.28882,35.81305,11.54339.52078,23.12593.11823,34.68679.34164,2.80124.0541,3.37808-.82365,3.37039-3.47765C1053.04718,116.203,1053.08023,84.6643,1053.08023,53.12569Zm-21.00729,83.42044c-4.79257-.12743-9.594.059-14.38492-.095-7.43674-.23893-11.70739-3.74457-13.31553-11.02683a37.43021,37.43021,0,0,1,.35255-18.1182c1.52768-5.59977,5.43241-9.119,11.14076-9.47531,5.53817-.34574,11.112-.08538,16.66733-.21282,1.98188-.04546,1.656,1.19865,1.65676,2.35833q.00606,8.66506.00177,17.33012c-.00013,5.66774-.05827,11.33643.03581,17.0026C1034.255,135.977,1033.85291,136.59343,1032.07294,136.54613Z"/><path class="cls-1" d="M1140.81483,111.8598c-.48554-9.4738-2.78484-18.3391-9.70105-25.33822-8.86189-8.96821-20.06584-10.75486-31.96128-9.92989-13.208.916-23.65819,6.38-29.49512,18.863-3.66928,7.84693-4.12682,16.21824-3.251,24.63684,1.70809,16.41794,11.67738,27.47585,27.85072,30.15419,12.96223,2.14658,26.128.53781,39.19744.89207,1.69711.046,1.50378-1.16725,1.50327-2.25567-.00126-3.70952-.12649-7.425.04793-11.12627.10215-2.1631-.58038-2.73989-2.72305-2.71561-9.92718.11231-19.85662.097-29.78481.03512-8.70059-.05416-13.95045-4.82549-15.08573-13.61884.53939-.041,1.07373-.117,1.6082-.11716,14.18339-.00668,28.367.032,42.55017-.03575,3.01021-.01438,7.12178.331,8.73112-1.63589C1141.81983,117.81218,1140.9697,114.87953,1140.81483,111.8598Zm-23.75152-4.88887c-4.5657-.15569-9.14022-.04717-13.71122-.04723-4.6797-.00006-9.36092-.06463-14.03861.0338-1.71061.036-2.281-.32815-1.91592-2.16645,1.56987-7.90538,6.93424-12.21525,15.61567-12.37838,8.90187-.16729,14.46727,3.963,16.3166,11.88875C1119.85169,106.53779,1119.24647,107.0454,1117.06331,106.97093Z"/><path class="cls-1" d="M530.12262,100.38375a23.61722,23.61722,0,0,0-21.61988-23.79414,123.79119,123.79119,0,0,0-16.33666-.27625c-2.84336.077-3.90978-.50484-3.79886-3.64652.26446-7.49312.08531-15.00181.08531-22.81241-6.06147,1.6693-11.80482,3.27454-17.564,4.82082-1.47471.39594-1.32849,1.46217-1.32823,2.55923q.00813,45.81914-.03891,91.63814c-.004,1.96549.70372,2.35032,2.45474,2.312,4.47068-.09787,8.95-.15891,13.41568.01853,2.39048.095,3.1449-.52955,3.12453-3.05643-.12681-15.70842-.10178-31.41848-.0326-47.12759.01419-3.22764-.65478-6.19245,1.40346-8.04033,1.77776-1.59609,5.22382-1.86339,8.36569-1.87191,8.5403-.02307,13.1176,4.55688,13.12208,13.08791.00776,14.72757.03594,29.45527-.0372,44.18246-.01,2.02135.35816,2.92262,2.64971,2.82854,4.46531-.18318,8.94658-.15253,13.41486-.01,2.0914.06671,2.82785-.47268,2.815-2.70275C530.125,132.45683,530.30536,116.41831,530.12262,100.38375Z"/><path class="cls-1" d="M672.92148,77.91614c-13.89238-5.29451-27.73306-4.69308-39.93816,4.76451-10.031,7.7729-12.79217,19.01607-13.11136,30.51955.19453,22.65742,12.34484,37.84057,33.57862,39.30557,18.17533,1.254,34.13687-6.58415,39.21944-26.45666a49.01305,49.01305,0,0,0,1.0359-18.81208C691.90325,93.79412,686.05025,82.91964,672.92148,77.91614Zm-.09635,48.95612c-2.728,7.7065-9.1582,11.03956-18.39206,10.17789-7.59962-.70914-12.82477-5.79386-14.50662-14.15987a40.47869,40.47869,0,0,1-.80675-9.10063,34.488,34.488,0,0,1,2.04109-13.1548c2.58275-6.6887,7.70795-10.11679,15.18221-10.19334,8.51237-.08721,13.71091,2.83472,16.32859,9.87105A38.088,38.088,0,0,1,672.82513,126.87226Z"/><path class="cls-1" d="M972.29834,104.13009a27.40607,27.40607,0,0,0-24.32206-27.45781c-8.35422-1.0284-16.77566-.20456-25.16267-.44437-1.4691-.042-1.875.58183-1.85123,1.94184.059,3.38017.17537,6.77175-.03436,10.13993-.151,2.42239.80631,2.88712,2.99091,2.83252,5.5591-.139,11.125-.111,16.68631-.02693a13.37691,13.37691,0,0,1,12.10516,8.95679c.53882,1.63778.39083,2.33632-1.5949,2.30259-5.888-.1-11.78067-.12574-17.66829-.01463-11.47982.2166-22.02212,7.77832-24.968,17.77726-4.23181,14.3631,6.19521,29.25613,22.01827,30.61734,13.25551,1.14038,26.59192.19081,39.88993.42318,2.05288.03581,1.93-1.17734,1.92714-2.54719q-.02355-11.4523-.0075-22.90473C972.3071,118.52724,972.34929,111.32835,972.29834,104.13009Zm-18.78321,31.74827-16.3009.48712c-6.32587-.34385-10.8398-4.03508-10.9702-8.66358-.1333-4.73381,4.29437-9.32208,10.07637-10.37457,5.18384-.94358,10.42356-.27095,15.63357-.47273,1.39387-.054,1.58418.74489,1.57081,1.8661C953.49243,121.44136,953.51432,133.15733,953.51513,135.87836Z"/><path class="cls-1" d="M608.10157,103.8889a27.40609,27.40609,0,0,0-24.23479-27.20452c-8.35586-1.03527-16.77522-.19919-25.16078-.46233-1.71111-.05373-1.964.76816-1.93685,2.19123.06431,3.37991.13235,6.76695-.02207,10.141-.09219,2.01467.53636,2.6354,2.56912,2.587,5.55929-.13216,11.12412-.08266,16.68612-.03455a13.25023,13.25023,0,0,1,12.21759,8.28883c.87826,2.08592.94043,3.08367-1.86623,2.99608-5.666-.17693-11.3428-.13286-17.01263-.03442-11.49363.19957-21.96965,7.65063-25.03788,17.69433-4.353,14.24966,6.11627,29.30652,21.92,30.69346,13.25374,1.16314,26.59078.19358,39.8881.43509,1.96025.03556,2.02652-1.00671,2.02-2.46477-.03393-7.63455-.01577-15.26936-.01577-22.904C608.11557,118.50379,608.18089,111.19555,608.10157,103.8889Zm-18.2925,31.90036s-7.14365.59557-10.35848.6836c-3.35816.09194-6.75516.31472-10.04125-.72976-3.76311-1.19612-6.81708-3.28627-7.23332-7.49406-.38849-3.9275,1.72492-6.81065,4.926-8.945a16.34806,16.34806,0,0,1,9.00187-2.42914l13.70523-.42261Z"/><path class="cls-1" d="M749.49974,109.33979a60.46619,60.46619,0,0,0-8.90968-3.14377c-6.257-1.83274-12.76171-2.86379-18.71611-5.6784-1.5821-.74791-3.258-1.53449-3.01482-3.7604.2318-2.1211,1.64377-3.2577,3.52028-3.86179a25.26884,25.26884,0,0,1,7.75468-.92183c7.53044-.01974,15.06177-.06974,22.59076.03449,2.035.02813,2.834-.37178,2.821-2.6593-.0222-3.89243.13009-6.77332-.00637-10.47217.10789-2.23373-.7563-2.70325-2.82621-2.67658-8.40221.10821-16.80712-.01784-25.20977.07088a33.13515,33.13515,0,0,0-12.736,2.52814c-9.32044,3.96426-14.31795,12.46887-12.46011,21.65853,1.84656,9.1338,7.47351,14.68016,16.53485,16.92826,7.066,1.753,14.272,3.11552,20.862,6.416,2.14072,1.07215,4.56532,2.13523,4.21661,5.14506-.3854,3.32581-2.88252,4.70436-5.7965,5.38651a16.01062,16.01062,0,0,1-3.58428.20065c-8.73092.01438-17.46241.05492-26.19245-.02964-1.87393-.01816-2.7957.29328-2.70773,2.46.15928,3.92246.12485,7.85834.00952,11.78389-.054,1.84069.52016,2.485,2.40373,2.44093,4.79932-.1123,9.60319-.03739,14.40516-.0372,4.36549.00012,8.73105.02453,13.09635-.00669A31.05608,31.05608,0,0,0,748.302,148.704c8.4333-3.81488,12.85642-10.42728,13.401-19.6578C762.25994,119.60924,757.84583,113.27643,749.49974,109.33979Z"/><path class="cls-1" d="M893.70515,100.3695c0-15.92067-.03108-31.8414.037-47.76169.00914-2.13089-.26711-2.8807-2.64864-2.10384-4.64862,1.51652-9.38754,2.77287-14.12967,3.97669a2.30416,2.30416,0,0,0-2.08006,2.67216q.06,45.799-.01967,91.59791c-.00524,2.19855.87226,2.47694,2.7018,2.43451,4.3595-.10121,8.72922-.17417,13.08216.02282,2.44194.11054,3.13368-.59551,3.11577-3.07717C893.649,132.2111,893.70515,116.29011,893.70515,100.3695Z"/><path class="cls-2" d="M174.34079,147.30983a15.72411,15.72411,0,0,1-.20669-5.10338c.008-.05476.02017-.10752.02871-.162a2.98846,2.98846,0,0,1-.7024-1.97377c-.48843-5.04522.16455-10.03381.86962-15.01225a2.84917,2.84917,0,0,1,1.35038-2.08736c-.01843-.00635-.03707-.011-.0555-.01737-.87563-3.559-.32195-6.72943,2.27983-9.3475a8.46729,8.46729,0,0,1,3.25329-8.34793,6.60675,6.60675,0,0,1,3.00821-6.26543c-.39014-1.606.38846-2.50655,1.782-3.03586-.06684-.05569-.1403-.1009-.20341-.16247-.06411-.09176-.12682-.184-.19046-.27588a7.10744,7.10744,0,0,1-4.02848.72064q-71.61744.03546-143.23489-.02805c-1.50077-.00181-3.347.48316-4.37147-1.08546a5.03818,5.03818,0,0,1-.6266.70614c1.44981.55756,2.28457,1.46631,1.931,3.05288,2.28711,1.31438,2.98176,2.58175,2.52906,4.70417.06731.15868.14084.31361.20541.47381h.00034c2.181.68978,2.86162,2.24985,2.83163,4.22208,1.66685,1.2277,3.18484,2.52378,2.40872,4.82859.00588.01556.01336.03018.01923.04574,1.82585.66494,2.69861,1.88242,2.41085,3.77244,2.25619,1.2637,2.86757,2.44071,2.49687,4.693l.26839.46286.0004.00007c1.74572.45811,2.42608,1.51926,2.05778,3.17388a5.7614,5.7614,0,0,1,3.16461,5.63249c2.70435,1.83113,4.20151,4.38616,3.964,6.7124l.31427.50841.00007.00006c2.15441.36362,3.00707,1.82926,3.41149,3.67461,2.52578.70174,4.08865,2.8096,5.89888,4.52333a1.3,1.3,0,0,1,.47367,1.28633l.13911.1184h.00013a6.82281,6.82281,0,0,1,5.7342,2.8866c5.4469.85259,10.61767,2.98523,16.13636,3.55027.08481.02671.171.03659.25624.05923,1.54738-.86321,3.34845-.52523,5.0326-.5279q37.56216-.05981,75.12454-.01109c2.35488.002,4.63157-.01863,6.24273-2.11508l.00006-.00127c-.03085-.086-.04888-.17383-.0786-.26C174.4268,150.6257,174.695,148.75544,174.34079,147.30983Z"/><path class="cls-3" d="M179.02258,90.03089c-.85217-1.96619-1.84558-3.866-2.70312-5.83149a65.40449,65.40449,0,0,1-4.05109-12.911c-.58783-2.82794-.84106-5.72821-1.18793-8.6029a66.98611,66.98611,0,0,1,.6521-17.636,30.42889,30.42889,0,0,1,.89356-3.71435c.47638-1.73328-.15186-2.48932-1.92853-2.44355-1.03894.02674-2.07812.06305-3.11719.06317q-35.09847.00541-70.1969.0116c-2.11322.00122-4.22436.00958-6.34234.1275-5.299.29517-10.41767,1.11829-15.264,3.48169A38.01943,38.01943,0,0,0,58.11835,58.50775c-.48749.91333-.88532,1.87732-1.41,2.76752-1.32977,2.2561-2.871,4.40369-4.02008,6.74561-1.09125,2.22393-2.4555,4.27716-3.63385,6.44195-2.16864,3.98407-4.64453,7.79956-6.91888,11.72791-1.635,2.824-3.14313,5.72137-4.727,8.57538-.25134.45288-.42951.9132-.10645,1.33752.75617.9931,1.1817,2.17847,1.85028,3.19714,2.32111,3.53669,4.29566,7.27521,6.39228,10.93543,1.92291,3.35705,3.86718,6.70929,5.70141,10.11688,1.703,3.16394,3.85889,6.04944,5.429,9.30127a35.777,35.777,0,0,0,3.87683,6.31512,40.6634,40.6634,0,0,0,12.96393,11.15619,37.70345,37.70345,0,0,0,17.67669,4.58362c12.87848.10956,25.75855.033,38.638.033q19.91911,0,39.83825-.00134a8.30458,8.30458,0,0,0,1.31684-.04041,1.779,1.779,0,0,0,1.64843-2.37805,20.86957,20.86957,0,0,0-.61389-2.30975c-.85821-2.70642-.669-5.53632-1.01733-8.30194a37.6354,37.6354,0,0,1-.20044-8.47766,87.5597,87.5597,0,0,1,3.855-19.68525c.72558-2.13006,1.86267-4.0639,2.63953-6.15112a45.68234,45.68234,0,0,1,3.92462-7.37842,2.59272,2.59272,0,0,0,.21515-2.60778C180.83185,92.8244,179.68286,91.55432,179.02258,90.03089Z"/><path class="cls-4" d="M196.17633,35.22418a50.08883,50.08883,0,0,1,8.10376-13.7597c.88214-1.05743,1.78314-2.09912,2.89508-3.40613-1.099,0-1.88415-.00036-2.66931.00006q-58.61372.03094-117.22748.07648a44.11788,44.11788,0,0,0-5.70447.56055c-4.72583.6239-9.07092,2.49768-13.42077,4.23455a55.17577,55.17577,0,0,0-13.37866,8.02149,64.091,64.091,0,0,0-10.0683,9.97534,54.8415,54.8415,0,0,0-4.812,7.2652c-1.50556,2.57434-3.04065,5.14636-4.50867,7.74054Q32.18482,61.58869,28.91,67.20368c-2.34314,4.01843-4.63244,8.07537-7.04968,12.05609-3.07446,5.063-5.63715,10.43072-8.94513,15.36352v1.2c.88245,1.91583,2.13355,3.627,3.11176,5.477,1.33954,2.53338,2.77417,5.01013,4.31744,7.40887,1.98755,3.08929,3.50421,6.43335,5.44983,9.54932,1.16547,1.86664,2.25482,3.824,3.30341,5.78448,1.23693,2.3125,2.83477,4.44086,3.97015,6.79657,1.34875,2.79852,2.95965,5.463,4.54932,8.08936,1.428,2.35931,2.79315,4.79748,4.31811,7.12042a77.98953,77.98953,0,0,0,5.46765,7.07617,45.3526,45.3526,0,0,0,7.78626,7.21008,63.30973,63.30973,0,0,0,15.28283,8.5586,53.68975,53.68975,0,0,0,19.3562,3.80408q56.215-.03315,112.43018-.00446c.95563.00018,1.911.09949,2.86694.13879.5376.0221,1.13221-.04852,1.37037-.5498.2171-.45691-.32624-.75879-.58967-1.0716a78.31785,78.31785,0,0,1-6.1538-8.38055,54.25984,54.25984,0,0,1-4.69568-9.59277A43.62386,43.62386,0,0,1,193.373,146.228a60.83362,60.83362,0,0,1-1.19886-15.12238,59.70186,59.70186,0,0,1,9.19245-28.93774,60.17291,60.17291,0,0,1,4.41082-5.60333c.8274-1.01093,1.048-1.2898.1269-2.24616-5.66284-5.88025-8.95349-13.05475-11.37415-20.718a56.94657,56.94657,0,0,1-2.42425-18.78A56.7154,56.7154,0,0,1,196.17633,35.22418ZM181.2215,97.01837a45.68234,45.68234,0,0,0-3.92462,7.37842c-.77686,2.08722-1.91395,4.02106-2.63953,6.15112a87.5597,87.5597,0,0,0-3.855,19.68525,34.19461,34.19461,0,0,0-.00411,7.67354c.33494,3.241.61469,6.01914,1.22188,9.10606.15366.78117.462,1.5293.61389,2.30975a1.779,1.779,0,0,1-1.64843,2.37805,8.30458,8.30458,0,0,1-1.31684.04041q-19.91913.00257-39.83825.00134c-12.87946,0-25.75953.07654-38.638-.033a37.70345,37.70345,0,0,1-17.67669-4.58362,40.6634,40.6634,0,0,1-12.96393-11.15619,35.777,35.777,0,0,1-3.87683-6.31512c-1.57013-3.25183-3.726-6.13733-5.429-9.30127-1.83423-3.40759-3.7785-6.75983-5.70141-10.11688-2.09662-3.66022-4.07117-7.39874-6.39228-10.93543-.66858-1.01867-1.09411-2.204-1.85028-3.19714-.32306-.42432-.14489-.88464.10645-1.33752,1.58386-2.854,3.092-5.75135,4.727-8.57538,2.27435-3.92835,4.75024-7.74384,6.91888-11.72791,1.17835-2.16479,2.5426-4.218,3.63385-6.44195,1.14911-2.34192,2.69031-4.48951,4.02008-6.74561.52472-.8902.92255-1.85419,1.41-2.76752A38.01943,38.01943,0,0,1,75.7771,42.57556c4.84637-2.3634,9.965-3.18652,15.264-3.48169,2.118-.11792,4.22912-.12628,6.34234-.1275q35.09839-.02106,70.1969-.0116c1.03907-.00012,2.07825-.03643,3.11719-.06317,1.77667-.04577,2.40491.71027,1.92853,2.44355a30.42889,30.42889,0,0,0-.89356,3.71435,66.98611,66.98611,0,0,0-.6521,17.636c.34687,2.87469.6001,5.775,1.18793,8.6029a65.40449,65.40449,0,0,0,4.05109,12.911c.85754,1.96552,1.851,3.8653,2.70312,5.83149.66028,1.52343,1.80927,2.79351,2.41407,4.3797A2.59272,2.59272,0,0,1,181.2215,97.01837Z"/><path class="cls-5" d="M249.90759,172.67621q-6.95718-.01923-13.9143-.084c-1.34876-.01221-2.695.01147-4.03638.12219h18.40765C250.20728,172.70368,250.05225,172.67664,249.90759,172.67621Z"/><path class="cls-6" d="M234.83429,18.0904c5.07788.0614,10.15735-.01154,15.23621-.0318l.15368-.00037H230.97882A32.50536,32.50536,0,0,0,234.83429,18.0904Z"/><path class="cls-7" d="M279.27423,119.01258q.00714-23.09931-.00342-46.19861c-.00024-1.47785.05017-2.9574-.00537-4.43311-.06512-1.72912-.64178-2.30255-2.34845-2.32788q-3.839-.05685-7.67944.00067c-1.90186.03156-2.4234.58551-2.42066,2.46753.00483,3.23889.04792,6.47772.05957,9.71661.00556,1.53858-.38781,1.94788-1.891,1.94941-7.47979.00738-14.95965.01812-22.43933-.00818a4.85356,4.85356,0,0,1-4.12933-2.02509c-.84631-1.15967-1.73621-2.28985-2.64917-3.39813a23.6686,23.6686,0,0,1-3.77472-6.89044A34.25314,34.25314,0,0,1,230.101,55.8888a44.79681,44.79681,0,0,1,.65088-4.71247,38.48627,38.48627,0,0,1,1.87982-8.69256,45.48694,45.48694,0,0,1,15.6308-21.71692c1.07678-.833,2.15271-1.667,3.49756-2.7085l-.36505-.00012h-1.17084l-.15368.00037c-5.07886.02026-10.15833.0932-15.23621.0318a32.50536,32.50536,0,0,1-3.85547-.03217h-2.725c-.18848.02307-.38978-.00415-.574.02313a5.68283,5.68283,0,0,0-3.6253,1.66254c-1.31055,1.48889-2.58393,3.0202-3.75391,4.6206a58.21951,58.21951,0,0,0-3.75885,5.80591,54.75772,54.75772,0,0,0-3.64838,7.76526c-.76013,2.04334-1.33105,4.14587-1.88714,6.265-1.18933,4.53222-1.25141,9.12921-1.50464,13.73407a33.34015,33.34015,0,0,0,.13959,3.61743,59.01633,59.01633,0,0,0,1.143,7.459c.35968,2.03577,1.03595,4.05048,1.59192,6.06024a50.19312,50.19312,0,0,0,4.87067,11.08692,51.80118,51.80118,0,0,0,6.09185,8.511c.42231.48767.72217.99665.13031,1.55823a36.66808,36.66808,0,0,0-3.41211,4.30286c-4.53619,5.81024-7.18579,12.47247-8.913,19.52191a44.968,44.968,0,0,0-1.32263,9.20752c-.09644,2.861-.28619,5.69256-.15741,8.57538a50.2865,50.2865,0,0,0,2.10193,11.9732c2.16357,7.35834,6.11694,13.808,10.80243,19.81641a8.2164,8.2164,0,0,0,4.62158,3.0896h4.76709c1.34143-.11072,2.68762-.1344,4.03638-.12219q6.957.06316,13.9143.084c.14466.00043.29969.02747.457.03821a1.45516,1.45516,0,0,0,.19843,0,.78388.78388,0,0,0,.59662-.31952c-1.34723-1.15936-2.63642-2.3537-4.01319-3.43665a40.74974,40.74974,0,0,1-8.58154-8.95538,51.01186,51.01186,0,0,1-7.46771-17.85821,40.373,40.373,0,0,1-.66077-12.75037,26.69294,26.69294,0,0,1,3.42816-10.50806,24.55669,24.55669,0,0,1,6.00482-7.36535,3.62345,3.62345,0,0,1,2.31824-.835q11.09766.02307,22.19531.06031c1.96021.00567,2.49543.5285,2.486,2.49359-.01471,3.03815-.07422,6.07617-.06873,9.11413.00275,1.5094.54553,2.11542,2.04132,2.28669a36.83648,36.83648,0,0,0,8.24524.01672c1.61249-.178,2.02319-.71661,2.21216-2.29285A27.895,27.895,0,0,0,279.27423,119.01258Z"/><path class="cls-8" d="M250.22418,18.05823H251.395C250.89172,18.058,250.54089,18.0575,250.22418,18.05823Z"/><path class="cls-8" d="M250.22418,18.05823H251.395C250.89172,18.058,250.54089,18.0575,250.22418,18.05823Z"/><path class="cls-9" d="M250.563,172.71442a1.45516,1.45516,0,0,1-.19843,0"/></svg>