<svg xmlns="http://www.w3.org/2000/svg" role="img" viewBox="-12.23 216.27 635.96 358.96"><path fill="#D91A21" d="M380.786 389.207l20.073-19.89-15.851-15.729 15.851-15.974-20.073-19.706-15.79 15.667-10.465-10.465c-16.646-16.708-44.003-16.708-60.71 0-8.446 8.384-12.607 19.461-12.607 30.478 0 10.894 4.101 21.909 12.607 30.355 16.707 16.769 44.063 16.769 60.71 0a1481.013 1481.013 0 0 0 10.465-10.466l15.79 15.73zm-46.022-25.337c-5.875 5.875-15.239 5.875-21.053 0-2.815-2.815-4.223-6.671-4.223-10.343a15.23 15.23 0 0 1 4.223-10.526c5.813-5.813 15.178-5.813 21.053 0 4.59 4.651 10.404 10.526 10.404 10.526s-5.814 5.631-10.404 10.343zm264.567-40.82c-16.708-16.708-44.003-16.708-60.771 0-4.713 4.835-10.465 10.465-10.465 10.465l-15.852-15.728-19.89 19.706 15.789 15.973-15.789 15.729 19.89 19.891 15.79-15.79s5.753 5.691 10.465 10.466c16.77 16.769 44.064 16.769 60.771 0 8.385-8.446 12.607-19.462 12.607-30.355s-4.16-21.973-12.545-30.357zm-19.951 40.82c-5.753 5.875-15.116 5.875-20.931 0-4.712-4.712-10.465-10.343-10.465-10.343s5.753-5.875 10.465-10.526c5.814-5.813 15.178-5.813 20.931 0 2.876 2.877 4.284 6.671 4.284 10.526 0 3.672-1.346 7.527-4.284 10.343zm-112.73-10.343s46.695-46.757 51.286-51.408c16.829-16.769 16.829-43.941 0-60.832-16.708-16.708-43.881-16.708-60.772 0-6.548 6.731-10.403 10.526-10.403 10.526s-3.795-3.795-10.404-10.526c-16.83-16.708-44.003-16.708-60.833 0-16.769 16.891-16.769 44.063 0 60.832l51.408 51.408s-46.757 46.573-51.408 51.286c-16.769 16.769-16.769 44.003 0 60.833 16.83 16.707 44.003 16.707 60.833 0 6.609-6.732 10.404-10.649 10.404-10.649s3.855 3.917 10.403 10.649c16.892 16.707 44.064 16.707 60.772 0 16.829-16.83 16.829-44.064 0-60.833-4.591-4.713-51.286-51.286-51.286-51.286zm-71.237-71.298c-5.692-5.875-5.692-15.116 0-20.931 5.813-5.691 15.238-5.691 20.93 0l10.526 10.526-15.851 15.729 19.829 19.951 15.851-15.851 15.851 15.851 19.829-19.951-15.79-15.729s4.896-4.957 10.527-10.526c5.752-5.691 15.116-5.691 20.869 0 5.813 5.814 5.813 15.056 0 20.931-6.06 6.059-51.47 51.592-51.47 51.592s-45.165-45.533-51.101-51.592zm102.694 163.466c-5.753 5.691-15.116 5.691-20.869 0-5.631-5.569-10.526-10.466-10.526-10.466l15.789-15.851-19.828-19.891-15.912 15.79-15.852-15.851-19.828 19.89 15.851 15.852s-4.957 4.896-10.526 10.465c-5.691 5.691-15.116 5.691-20.931 0-5.691-5.753-5.691-15.239 0-20.931 5.937-6.059 51.225-51.592 51.225-51.592s45.41 45.533 51.469 51.592c5.751 5.692 5.751 15.24-.062 20.993z"/><path d="M221.421 444.226v5.568c-4.59-4.59-9.792-6.793-15.605-6.793-6.671 0-12.302 2.387-16.769 7.038-4.468 4.713-6.732 10.648-6.732 17.748 0 7.222 2.325 13.28 6.732 17.993 4.528 4.834 10.159 7.16 17.074 7.16 5.447 0 10.526-2.081 15.239-6.426v5.079h11.628v-47.368h-11.567v.001zm-3.243 34.639c-2.632 2.815-5.998 4.223-10.404 4.223-3.978 0-7.282-1.591-9.914-4.345-2.509-2.815-3.733-6.427-3.733-10.955 0-4.161 1.225-7.834 3.795-10.588 2.631-2.876 5.997-4.345 9.976-4.345 4.223 0 7.589 1.469 10.22 4.345 2.632 2.754 3.979 6.427 3.979 10.771.059 4.407-1.287 7.956-3.919 10.894zM61.935 422.867h12.117v26.806s4.345-6.181 13.77-6.181c8.568 0 16.524 5.752 16.524 20.195v28.091H93.269v-28.947c0-4.957-1.958-11.139-8.936-11.139-6.854 0-10.22 5.019-10.22 11.139v28.947H61.995l-.06-68.911zm-4.284 57.161c-2.693 3.61-5.937 6.793-10.099 9.118-4.834 2.754-10.22 4.04-16.095 4.04-8.63 0-16.035-3.122-22.155-9.058-6.119-6.182-9.18-13.465-9.18-22.277 0-9.18 3.428-17.074 10.404-23.256 6.059-5.447 13.035-8.262 20.931-8.262 5.63 0 11.077 1.591 16.095 4.223 4.04 2.448 7.467 5.386 10.159 9.119l-10.343 7.404c-.611-1.774-1.713-3.305-2.938-4.773-3.427-3.855-7.711-5.937-13.097-5.937-5.202 0-9.547 2.081-12.975 6.06-3.488 3.978-5.201 9.18-5.201 15.36 0 6.427 1.713 11.629 5.201 15.729 3.366 3.856 7.65 5.814 12.975 5.814 5.202 0 9.486-1.958 13.097-5.998 1.163-1.529 2.265-3.06 2.938-4.773-.06.122 7.589 5.631 10.283 7.467zm102.571-36.536c-11.444-.245-15.117 6.181-15.117 6.181l-.551-5.569h-10.281v47.675h11.873v-28.947c0-6.059 3.672-11.2 10.404-11.2 7.037 0 9.118 6.304 9.118 11.2v28.947h11.017V463.75c0-14.628-7.896-20.258-16.463-20.258z"/><path fill="#D91A21" d="M113.342 491.717V443.92h11.139v47.797zm5.447-52.571c-3.917 0-6.426-2.938-6.426-6.365 0-3.61 2.754-6.426 6.548-6.426 4.101 0 6.549 2.754 6.549 6.426 0 3.366-2.448 6.365-6.549 6.365h-.122zm0 70.319c-3.917 0-6.426-2.876-6.426-6.242 0-3.733 2.754-6.609 6.548-6.609 4.101 0 6.549 2.815 6.549 6.609 0 3.305-2.448 6.242-6.549 6.242h-.122z"/><path d="M288.496 513.932c-7.099-.122-12.056 2.877-16.156 7.467-2.754-5.019-7.467-7.222-12.424-7.467-10.159-.244-14.382 6.182-14.382 6.182l-.489-5.691h-10.771v47.552h12.057v-28.642c0-6.181 3.243-11.138 9.485-11.138 6.427 0 8.263 6.181 8.263 11.138v28.642h10.954v-28.029.122c.123-8.078 3.733-11.872 9.303-11.872 6.426 0 8.385 6.181 8.385 11.138v28.642h10.954V534.13c-.001-14.445-7.223-19.953-15.179-20.198z"/><path fill="#D91A21" d="M113.342 561.974v-47.551h11.139v47.551z"/><path d="M203.673 513.321c4.529 0 8.568 1.102 12.547 3.365 3.978 2.203 7.099 5.325 9.18 8.936 2.203 3.917 3.366 8.14 3.366 12.424 0 4.528-1.225 8.629-3.366 12.546-2.203 3.855-5.202 7.038-8.996 9.119-3.856 2.264-8.079 3.243-12.607 3.243-6.854 0-12.607-2.325-17.381-7.16-4.896-4.835-7.222-10.71-7.222-17.688 0-7.344 2.754-13.464 8.201-18.299 4.712-4.283 10.22-6.486 16.278-6.486zm.858 8.323c-3.855 0-6.916 1.529-9.363 4.65-2.632 3.121-3.856 7.161-3.856 11.873 0 5.019 1.225 9.058 3.673 12.24 2.631 2.938 5.63 4.468 9.547 4.468 3.794 0 7.099-1.53 9.547-4.59 2.632-3.122 3.979-7.161 3.979-12.118 0-4.835-1.347-8.69-3.795-11.995-2.572-2.998-5.755-4.528-9.732-4.528zm-116.709-7.956c-11.321-.123-15.116 6.303-15.116 6.303l-.489-5.568H61.812v47.552h11.935v-28.764c0-6.304 3.549-11.139 10.22-11.139 7.1 0 9.119 6.12 9.119 11.139v28.764h11.199v-27.907c.061-14.566-7.895-20.136-16.463-20.38zm-61.567 48.96c11.383.184 15.116-6.182 15.116-6.182l.551 5.508h10.343v-47.552H40.27v28.886c0 6.12-3.428 11.2-10.221 11.2-7.099 0-9.854-6.304-9.854-11.2v-28.886H8.14v27.907c0 14.627 9.485 20.196 18.115 20.319zm152.021-9.915c-2.02 2.999-4.713 5.386-8.018 7.161-3.794 2.325-8.2 3.365-12.79 3.365-6.854 0-12.73-2.57-17.626-7.282-4.896-4.835-7.344-10.649-7.344-17.564 0-7.405 2.814-13.587 8.323-18.544 4.773-4.223 10.403-6.426 16.646-6.426 4.345 0 8.69 1.102 12.668 3.366 3.243 1.774 5.998 4.223 8.018 7.099l-8.813 6.426c-.551-1.407-1.346-2.509-2.203-3.427-2.448-2.938-5.569-4.468-9.547-4.468-3.672 0-6.793 1.53-9.241 4.468-2.57 2.938-3.795 6.793-3.795 11.506 0 4.712 1.225 8.567 3.795 11.628 2.509 2.876 5.569 4.284 9.241 4.284 3.855 0 6.977-1.408 9.425-4.407.979-1.102 1.774-2.325 2.325-3.61l8.936 6.425zm355.51 2.999c-2.081 0-3.733-1.714-3.733-3.733v-29.56H517.14v5.753h4.284v26.071c0 4.406 3.855 7.16 6.915 7.16h49.021v-5.691h-43.574zm20.38-39.168c-3.611-2.448-7.834-4.284-7.834-4.284l-2.999 3.855 2.999 2.693h-11.628V553.1h2.325c2.57 0 5.447-1.713 5.447-5.141v-4.712h8.935v9.853h2.51c2.938 0 5.141-1.591 5.263-5.202v-4.65h9.058v2.325c0 1.04-1.346 1.774-2.325 1.774h-3.488l1.529 5.814h5.631c3.795 0 6.916-2.999 6.916-6.916v-22.644c0-2.632-2.203-4.713-4.713-4.713h-9.058l11.995-7.16v-6.548h-40.453v5.63h29.56l-9.67 5.754zm-2.693 21.114h-8.936v-3.855h8.936v3.855zm0-9.302h-8.936v-3.855h8.936v3.855zm16.83 9.302h-9.058v-3.855h9.058v3.855zm0-13.158v3.855h-9.058v-3.855h9.058zm-37.148-8.996c-4.223-5.937-8.874-9.119-8.874-9.119l-4.528 3.243 7.649 10.221 5.753-4.345zm-50.551 26.377l-3.795 1.102v-31.946c0-3.611-2.203-5.814-4.896-5.814h-20.258v5.814h17.014v8.813h-6.977v-5.937h-7.65v35.435l-3.366 1.041v6.304l17.993-5.08v11.628h3.244c2.509 0 4.161-1.591 4.896-4.651v-9.18l3.795-1.102v-6.427zm-11.996 3.305l-6.977 1.958v-8.874h6.977v6.916zm0-12.668h-6.977v-6.978h6.977v6.978zm31.335 4.345h9.976v-5.753H498.78v-8.69h11.139v-5.691h-7.283l6.549-8.262-6.242-4.468-8.079 12.729h-5.875l4.835-3.488c-4.101-5.691-7.65-9.18-7.65-9.18l-4.528 2.814 5.875 9.915h-7.282v5.691h9.547v8.69h-9.547v5.753h8.445l-9.915 25.581h4.224c2.325 0 4.59-1.591 5.508-3.61l6.12-15.239 8.384 18.911h8.385l-11.447-25.703zm-132.131-24.847h-18.666v-8.018h-9.792v8.018h-12.24v5.813h12.24v23.256h-15.116v-29.069h-9.792v34.7h24.97v16.523h1.529c5.569-.244 8.079-2.692 8.263-6.793v-9.73h16.463c4.406 0 8.078-3.488 8.322-8.079v-20.746c-.245-3.244-2.815-5.875-6.181-5.875zm-3.55 25.336a3.644 3.644 0 0 1-3.672 3.673h-11.383v-23.257h15.055v19.584zm70.992-32.252h-40.453v5.63h37.638v41.494c0 2.081-1.591 3.61-3.61 3.61h-37.026V505.12h-8.935v56.487h50.429c4.467 0 8.2-3.61 8.2-8.262V511.3c-.001-3.365-2.755-6.18-6.243-6.18zm-5.814 39.474h-4.345l2.876-3.61c-3.794-3.488-6.854-5.264-6.854-5.264l-3.366 3.366 4.896 5.508h-6.671v-9.547h13.22v-5.753h-13.22v-7.099h13.22v-5.692h-34.149v5.692h11.934v7.099h-11.934v5.753h11.934v9.547h-12.179v5.692h34.639v-5.692h-.001z"/></svg>