<?xml version="1.0" encoding="utf-8"?>
<!-- Generator: Adobe Illustrator 28.0.0, SVG Export Plug-In . SVG Version: 6.00 Build 0)  -->
<svg version="1.1" xmlns="http://www.w3.org/2000/svg" xmlns:xlink="http://www.w3.org/1999/xlink" x="0px" y="0px"
	 viewBox="0 0 680 120" style="enable-background:new 0 0 680 120;" xml:space="preserve">
<style type="text/css">
	.st0{fill:#0085D0;}
	.st1{fill:#8FC31F;}
	.st2{fill:#FFFFFF;}
	.st3{font-family:'FZLTZHJW-GB1-0-GBpc-EUC-H';}
	.st4{font-size:51px;}
	.st5{font-size:50px;}
</style>
<g id="图层_3">
</g>
<g id="图层_2">
</g>
<g id="图层_1">
	<g>
		<g>
			<path class="st0" d="M112.5,78.9l2.5-21.6h4.7l-2.5,21.6H112.5z M130.7,54.6h-4.8v7.3l4.8,3.8v6.1l-4.8-3.8v13.3h-5V54.6h-8.2V50
				h8.2v-6.3l-8.2,0.4v-4.4l18.2-1V43l-5,0.3V50h4.8V54.6z M141,38l-0.7,1.7h18.1v11.1l-26.1,8.6v-4.6l8.7-2.9l-3-4.5h5.8l2,2.9
				l7.6-2.5v-3.7h-15.1l-1.3,2.7h-5.2l4-8.8H141z M141.7,58.7l-0.9,2h17.6v10.6L133.2,82v-5l7.6-3.3l-4.1-4.8h6.1l2.5,2.9l7.7-3.3
				v-3.3h-14.3l-1,2.4h-5.2l4-8.8H141.7z"/>
			<path class="st0" d="M187.9,53.7v4.6h-11.9l-3.3,17.4h10L181,65.1h5l2.5,15.2h-22l4.2-21.9h-4.2v-4.6H187.9z M167.6,39.7H187v4.6
				h-19.5V39.7z M190,81.3l5.5-31.4l0.3-3.8h-5.4v-4.6h5.7l0.2-3.6h5.1l-0.2,3.6h11.2l-0.6,39.7h-8.9l-2.7-4.6h6.4l0.6-30.6H201
				l-0.3,3.9L195,81.3H190z"/>
			<path class="st0" d="M258,67.9l6.3,13.1h-43.8L232,60.1h-11.5v-4.6h44.6v4.6h-27l-9,16.3h27.2l-4-8.6H258z M222,39.3h41v4.6h-41
				V39.3z"/>
		</g>
		<g>
			<g>
				<path class="st1" d="M68.6,66l-2.9-2.6l0,0l-1.3-1.2c-2.1-1.9-5.2-1.9-7.2,0l-9.4,8.4c-0.9,0.8-2.2,0.8-3,0l-0.5-0.4L42,68.1
					l-0.7,3.2l1.7,1.5l0,0l1.2,1l0,0l1.3,1.2c2.1,1.9,5.2,1.9,7.2,0l9-8.1l0,0l0.3-0.3c0.9-0.8,2.1-0.8,3,0l0.5,0.4l2.9,2.6L68.6,66
					z"/>
				<g>
					<g>
						<path class="st0" d="M36,50.8c0.8,0,1.4-0.6,1.5-1.4c0.9-9,8.5-16.1,17.8-16.1c9.8,0,17.7,7.8,17.9,17.5
							c2.1,0,4.2,0.4,6.2,1.2c0-0.2,0-0.5,0-0.7c0-13.3-10.8-24.1-24.1-24.1S31.1,37.9,31.1,51.3c0,0.2,0,0.3,0,0.5
							C32.7,51.2,34.4,50.9,36,50.8z"/>
					</g>
				</g>
				<path class="st0" d="M74.2,92.9c0.1,0,0.1,0,0.2,0c0.2,0,0.3,0,0.5,0c12.9-1,22.9-12,22.3-25.3c-0.6-12.9-11.5-23.1-24.5-22.9
					c-0.1,0-0.1,0-0.2,0l0,0c-7.3,0.1-13.9,2.9-19,7.4l0,0l0,0c-0.1,0.1-0.3,0.3-0.4,0.4l-12,10.8c-2.4,2.1-2.4,5.9,0,8l0.2,0.2
					l2.9,2.6l-0.6-0.6c-1.2-1-1.2-2.8-0.1-3.9l0,0l0.4-0.4c0,0,0,0,0,0l5.5-5c0,0,0,0,0,0l0,0c0,0,0,0,0,0l7-6.3
					c4.1-4.1,9.7-6.8,15.9-7C79.8,50.5,87,55,89.8,62.4c3.5,9.2-1.1,19.6-10.4,23.1c-0.5,0.2-0.9,0.3-1.4,0.5
					c-0.1,0-0.3,0.1-0.4,0.1c0,0,0,0-0.1,0c-0.1,0-0.3,0.1-0.4,0.1c0,0-0.1,0-0.1,0c-0.1,0-0.3,0.1-0.4,0.1c0,0-0.1,0-0.1,0
					c-0.1,0-0.3,0-0.4,0.1c0,0-0.1,0-0.1,0c-0.1,0-0.3,0-0.4,0.1c0,0,0,0-0.1,0c-0.1,0-0.3,0-0.4,0.1c0,0,0,0,0,0
					c-0.5,0.1-1,0.1-1.4,0.1c0,0,0,0-0.1,0c-0.1,0-0.3,0-0.4,0c0,0-0.1,0-0.1,0c-0.1,0-0.2,0-0.4,0c0,0-0.1,0-0.1,0
					c-2.8-0.1-5.6-0.8-8.1-2.1c-0.7-0.4-1.7-0.3-2.3,0.3l-3.7,3.3c3.6,2.7,7.9,4.4,12.6,4.7l0,0c0.1,0,0.1,0,0.2,0
					c0.1,0,0.1,0,0.2,0c0.1,0,0.2,0,0.3,0c0.1,0,0.1,0,0.2,0c0.1,0,0.2,0,0.3,0c0.1,0,0.1,0,0.2,0c0.2,0,0.3,0,0.5,0
					c0.2,0,0.4,0,0.6,0c0.1,0,0.1,0,0.2,0C74,92.9,74.1,92.9,74.2,92.9z"/>
				<path class="st0" d="M68.8,66.2L68.6,66l-2.2-2c1.2,1.1,1.2,2.9,0,4l-2,1.8l0,0l-3.9,3.5c0,0,0,0,0,0l-7,6.3
					c-4.1,4.1-9.7,6.8-15.9,7C30.1,87,22.9,82.5,20,75.1c-3.5-9.2,1.1-19.6,10.4-23.1c1.8-0.7,3.7-1.1,5.5-1.2
					c0.8,0,1.4-0.6,1.5-1.4c0.2-1.7,0.6-3.3,1.2-4.8c-0.6,0-1.2-0.1-1.9-0.1c-13.3,0-24.1,10.8-24.1,24.1
					c0,13.3,10.8,24.2,24.1,24.2c0.2,0,0.4,0,0.6,0c0.1,0,0.2,0,0.3,0c-0.1,0-0.2,0-0.3,0c0.2,0,0.3,0,0.5,0c0,0-0.1,0-0.1,0
					c7.1-0.2,13.6-2.9,18.7-7.3l0,0l0,0c0.2-0.2,0.3-0.3,0.5-0.5l12-10.8C71.2,72.1,71.2,68.4,68.8,66.2z"/>
			</g>
		</g>
		<g>
			<g>
				<path class="st0" d="M280.8,63.8h-7.9v-7.5h7.9V63.8z"/>
			</g>
		</g>
		<g>
			<text transform="matrix(1.0374 0 0 1 286.7169 75.2998)" class="st0 st3 st4">云</text>
		</g>
		<g>
			<text transform="matrix(1.0374 0 0 1 343.5031 74.9997)" class="st0 st3 st5">原</text>
		</g>
		<g>
			<text transform="matrix(1.0374 0 0 1 398.9783 75.5752)" class="st0 st3 st5">生</text>
		</g>
		<g>
			<text transform="matrix(1.0374 0 0 1 455.0101 75.6753)" class="st0 st3 st5">应</text>
		</g>
		<g>
			<text transform="matrix(1.0374 0 0 1 510.5764 75.0004)" class="st0 st3 st5">用</text>
		</g>
		<g>
			<text transform="matrix(1.0374 0 0 1 563.673 75.6501)" class="st0 st3 st5">安</text>
		</g>
		<g>
			<text transform="matrix(1.0374 0 0 1 619.8021 75.7247)" class="st0 st3 st5">全</text>
		</g>
	</g>
</g>
</svg>
