<?xml version="1.0" encoding="UTF-8" standalone="no"?>
<!-- Created with Inkscape (http://www.inkscape.org/) -->

<svg
   version="1.1"
   id="svg2"
   width="1333.3333"
   height="482.58667"
   viewBox="0 0 1333.3333 482.58667"
   sodipodi:docname="chkk_horizontal_Logo.eps"
   xmlns:inkscape="http://www.inkscape.org/namespaces/inkscape"
   xmlns:sodipodi="http://sodipodi.sourceforge.net/DTD/sodipodi-0.dtd"
   xmlns="http://www.w3.org/2000/svg"
   xmlns:svg="http://www.w3.org/2000/svg">
  <defs
     id="defs6" />
  <sodipodi:namedview
     id="namedview4"
     pagecolor="#ffffff"
     bordercolor="#000000"
     borderopacity="0.25"
     inkscape:showpageshadow="2"
     inkscape:pageopacity="0.0"
     inkscape:pagecheckerboard="0"
     inkscape:deskcolor="#d1d1d1" />
  <g
     id="g8"
     inkscape:groupmode="layer"
     inkscape:label="ink_ext_XXXXXX"
     transform="matrix(1.3333333,0,0,-1.3333333,0,482.58667)">
    <g
       id="g10"
       transform="scale(0.1)">
      <path
         d="m 2965.5,458.762 c 386.83,322.59 633.25,807.858 633.25,1350.918 0,971.27 -787.35,1758.63 -1758.62,1758.63 C 868.867,3568.31 81.5078,2780.95 81.5078,1809.68 81.5078,1147.32 448.051,571.031 989.027,271.121 L 2965.5,458.762"
         style="fill:#000000;fill-opacity:1;fill-rule:nonzero;stroke:none"
         id="path12" />
      <path
         d="m 2299.38,2326.63 c -442.22,138.48 -1681.4,41.76 -1681.4,41.76 0,-205.12 165.821,-371.42 370.696,-372.39 v -123.45 h -0.008 V 271.332 C 1241.04,131.34 1531.09,51.0508 1840.13,51.0508 c 427.92,0 819.88,153.1292 1124.8,407.1792 l -595.49,1162.69 178.84,349 c 93.04,181.57 -54.2,295.74 -248.9,356.71"
         style="fill:#ffffff;fill-opacity:1;fill-rule:nonzero;stroke:none"
         id="path14" />
      <path
         d="m 1833.55,1996.22 c -102.7,0 -185.94,-83.25 -185.94,-185.94 0,-102.7 83.24,-185.95 185.93,-185.95 102.7,0 185.95,83.25 185.95,185.95 0,102.69 -83.25,185.94 -185.94,185.94"
         style="fill:#ffffff;fill-opacity:1;fill-rule:nonzero;stroke:none"
         id="path16" />
      <path
         d="m 2397.36,1809.68 c 0,-307.75 -249.48,-557.23 -557.23,-557.23 -307.75,0 -557.23,249.48 -557.23,557.23 0,307.75 249.48,557.23 557.23,557.23 307.75,0 557.23,-249.48 557.23,-557.23"
         style="fill:#000000;fill-opacity:1;fill-rule:nonzero;stroke:none"
         id="path18" />
      <path
         d="m 2910.99,1922.88 -374.55,23.93 -186.88,-364.68 c -0.88,-1.71 1.08,1.55 0,0 -73.64,-160.44 -224.75,-283.09 -402.38,-318.05 l 951.34,54.98 c 50.09,5.05 100.98,-14.85 130.01,-55.99 17.83,-25.28 27.47,-56.57 25.35,-89.71 -0.93,-14.6 -4.11,-28.53 -9.12,-41.48 l 0.87,-1.16 150.14,255.77 c 134.47,229.05 -19.71,519.45 -284.78,536.39"
         style="fill:#f7941d;fill-opacity:1;fill-rule:nonzero;stroke:none"
         id="path20" />
      <path
         d="m 1833.55,1996.22 c -102.7,0 -185.94,-83.25 -185.94,-185.94 0,-102.7 83.24,-185.95 185.93,-185.95 102.7,0 185.95,83.25 185.95,185.95 0,102.69 -83.25,185.94 -185.94,185.94"
         style="fill:#ffffff;fill-opacity:1;fill-rule:nonzero;stroke:none"
         id="path22" />
      <path
         d="M 988.668,1252.46 V 271.332 C 1172.68,169.262 1377.21,100.68 1594.15,70.2305 L 988.668,1252.46"
         style="fill:#e7e7e7;fill-opacity:1;fill-rule:nonzero;stroke:none"
         id="path24" />
      <path
         d="m 4535.83,1786.17 v 4.52 c 0,342.06 264.4,629.22 626.96,629.22 189.37,0 319.31,-61.5 421.81,-150.44 18.24,-15.98 43.43,-50.21 43.43,-95.72 0,-70.71 -56.99,-125.43 -127.69,-125.43 -34.23,0 -63.93,13.72 -82.18,27.45 -70.7,59.24 -148.18,102.49 -257.62,102.49 -200.66,0 -348.84,-173.2 -348.84,-383.06 v -4.51 c 0,-214.37 148.18,-385.32 360.3,-385.32 109.45,0 193.7,43.25 268.93,107.19 15.98,13.54 43.43,29.53 75.39,29.53 66.01,0 118.48,-54.73 118.48,-120.74 0,-36.48 -13.73,-66.19 -38.74,-86.69 -107.18,-102.67 -237.13,-170.94 -437.78,-170.94 -358.05,0 -622.45,280.39 -622.45,622.45"
         style="fill:#000000;fill-opacity:1;fill-rule:nonzero;stroke:none"
         id="path26" />
      <path
         d="m 5984.34,2638.72 c 0,75.41 59.41,136.9 136.89,136.9 77.48,0 139.15,-61.49 139.15,-136.9 v -428.49 c 77.48,111.71 189.19,209.68 376.11,209.68 271.36,0 428.75,-182.4 428.75,-460.54 v -642.95 c 0,-77.48 -59.41,-136.89 -136.89,-136.89 -77.48,0 -138.97,59.41 -138.97,136.89 v 558.52 c 0,187.1 -93.47,294.29 -257.82,294.29 -159.47,0 -271.18,-111.87 -271.18,-298.8 v -554.01 c 0,-77.48 -61.67,-136.89 -139.15,-136.89 -75.22,0 -136.89,59.41 -136.89,136.89 v 1322.3"
         style="fill:#000000;fill-opacity:1;fill-rule:nonzero;stroke:none"
         id="path28" />
      <path
         d="m 7478.71,2638.72 c 0,75.41 59.42,136.9 136.9,136.9 77.48,0 139.15,-61.49 139.15,-136.9 V 1840.9 l 517.53,508.31 c 36.47,36.48 70.7,59.41 118.47,59.41 72.97,0 120.91,-59.41 120.91,-125.42 0,-45.69 -22.75,-79.92 -61.49,-116.4 l -319.31,-294.12 364.82,-476.52 c 25.19,-34.22 36.49,-59.24 36.49,-91.2 0,-75.23 -59.25,-125.43 -129.95,-125.43 -54.73,0 -86.69,18.24 -120.91,61.67 l -344.15,458.28 -182.41,-173.38 v -209.68 c 0,-77.48 -61.67,-136.89 -139.15,-136.89 -75.23,0 -136.9,59.41 -136.9,136.89 v 1322.3"
         style="fill:#000000;fill-opacity:1;fill-rule:nonzero;stroke:none"
         id="path30" />
      <path
         d="m 8865.03,2638.72 c 0,75.41 59.41,136.9 136.89,136.9 77.48,0 139.15,-61.49 139.15,-136.9 V 1840.9 l 517.53,508.31 c 36.48,36.48 70.71,59.41 118.48,59.41 72.97,0 120.91,-59.41 120.91,-125.42 0,-45.69 -22.76,-79.92 -61.5,-116.4 l -319.3,-294.12 364.82,-476.52 c 25.19,-34.22 36.49,-59.24 36.49,-91.2 0,-75.23 -59.25,-125.43 -129.96,-125.43 -54.72,0 -86.68,18.24 -120.9,61.67 l -344.15,458.28 -182.42,-173.38 v -209.68 c 0,-77.48 -61.67,-136.89 -139.15,-136.89 -75.22,0 -136.89,59.41 -136.89,136.89 v 1322.3"
         style="fill:#000000;fill-opacity:1;fill-rule:nonzero;stroke:none"
         id="path32" />
    </g>
  </g>
</svg>
