<svg width="557" height="182" viewBox="0 0 557 182" fill="none" xmlns="http://www.w3.org/2000/svg">
<path d="M89.8246 45.6399C98.6609 41.5424 108.502 40.115 118.138 41.5329C125 42.5427 131.546 44.9645 137.375 48.6111L126.479 59.5077C123.189 57.8762 119.647 56.7612 115.976 56.221C109.201 55.2241 102.283 56.2277 96.0703 59.1086C89.8578 61.9894 84.6217 66.6222 81.0057 72.4376C77.3898 78.253 75.551 84.9981 75.7154 91.8441C75.8798 98.6901 78.0402 105.339 81.9312 110.974C85.8221 116.609 91.2742 120.985 97.6177 123.565C103.961 126.144 110.92 126.815 117.64 125.494C124.329 124.179 130.49 120.947 135.375 116.194V134.577C130.765 137.171 125.748 139.03 120.504 140.061C110.946 141.94 101.048 140.986 92.0257 137.318C83.003 133.649 75.2483 127.425 69.7141 119.41C64.1799 111.395 61.1071 101.938 60.8733 92.2003C60.6395 82.4631 63.255 72.8696 68.398 64.5982C73.5412 56.3268 80.9884 49.7375 89.8246 45.6399Z" fill="url(#paint0_radial_355_3845)"/>
<path d="M156.786 115.453L145.845 126.632V94.5664L156.786 83.6253V115.453Z" fill="url(#paint1_radial_355_3845)"/>
<path d="M110.645 71.6695C106.763 71.6695 102.97 72.8387 99.7616 75.0247C96.553 77.2106 94.0768 80.3119 92.6558 83.925L84.9938 80.9116C87.02 75.7596 90.5508 71.3372 95.126 68.2202C99.7013 65.1033 105.109 63.4361 110.645 63.4361V71.6695Z" fill="url(#paint2_radial_355_3845)"/>
<path d="M152.697 59.5165C153.381 61.956 155.288 63.8626 157.727 64.5475L162.141 65.7865L157.727 67.0256C155.288 67.7105 153.381 69.6171 152.697 72.0566L151.457 76.4703L150.218 72.0566C149.533 69.617 147.627 67.7105 145.187 67.0256L140.773 65.7865L145.187 64.5475C147.627 63.8626 149.533 61.956 150.218 59.5165L151.457 55.1028L152.697 59.5165Z" fill="url(#paint3_radial_355_3845)"/>
<path d="M230.533 64.9336C241.086 64.9336 249.933 70.3693 254.09 78.8965L246.309 83.373C243.644 77.7239 237.675 73.9932 230.533 73.9932C225.204 73.9932 220.727 75.8056 217.103 79.4297C213.585 83.0537 211.773 87.5308 211.773 92.9668C211.773 98.2963 213.585 102.773 217.103 106.397C220.727 110.022 225.204 111.833 230.533 111.833C237.675 111.833 243.644 108.209 246.629 102.56L254.517 107.144C249.933 115.564 240.872 121 230.533 121C222.539 121 215.824 118.335 210.494 113.006C205.165 107.57 202.5 100.961 202.5 92.9668C202.5 84.9725 205.165 78.3637 210.494 73.0342C215.824 67.5981 222.539 64.9336 230.533 64.9336Z" fill="#121619"/>
<path d="M345.206 78.5264C347.372 78.5264 349.502 79.0807 351.394 80.1367C353.285 81.1928 354.875 82.7154 356.012 84.5596L352.933 86.457C352.12 85.1383 350.983 84.0492 349.631 83.2939C348.278 82.5388 346.755 82.1417 345.206 82.1416V78.5264Z" fill="#121619"/>
<path fill-rule="evenodd" clip-rule="evenodd" d="M344.202 64.9336C351.983 64.9336 358.699 67.5981 364.135 73.0342C369.571 78.4703 372.343 85.0791 372.343 92.9668C372.343 100.854 369.571 107.463 364.135 112.899C358.699 118.335 351.983 121 344.202 121C336.421 121 329.706 118.335 324.271 112.899C318.834 107.463 316.169 100.854 316.169 92.9668C316.169 85.0791 318.834 78.4703 324.271 73.0342C329.707 67.5983 336.421 64.9337 344.202 64.9336ZM344.202 73.9932C338.979 73.9933 334.503 75.8057 330.879 79.4297C327.255 83.0538 325.442 87.5307 325.442 92.9668C325.442 98.4028 327.255 102.88 330.879 106.504C334.503 110.128 338.979 111.939 344.202 111.939C349.532 111.939 354.009 110.128 357.633 106.504C361.257 102.88 363.069 98.4028 363.069 92.9668C363.069 87.5307 361.257 83.0538 357.633 79.4297C354.009 75.8056 349.532 73.9932 344.202 73.9932Z" fill="#121619"/>
<path d="M409.16 78.5264C411.326 78.5264 413.456 79.0807 415.348 80.1367C417.239 81.1928 418.829 82.7154 419.966 84.5596L416.888 86.457C416.075 85.1382 414.938 84.0492 413.585 83.2939C412.232 82.5388 410.709 82.1416 409.16 82.1416V78.5264Z" fill="#121619"/>
<path fill-rule="evenodd" clip-rule="evenodd" d="M408.323 64.9336C416.104 64.9336 422.82 67.5981 428.256 73.0342C433.692 78.4703 436.464 85.0791 436.464 92.9668C436.464 100.854 433.692 107.463 428.256 112.899C422.82 118.335 416.104 121 408.323 121C400.542 121 393.828 118.335 388.392 112.899C382.956 107.463 380.29 100.854 380.29 92.9668C380.29 85.0791 382.955 78.4703 388.392 73.0342C393.828 67.5983 400.542 64.9337 408.323 64.9336ZM408.323 73.9932C403.1 73.9933 398.624 75.8057 395 79.4297C391.376 83.0538 389.563 87.5307 389.563 92.9668C389.564 98.4028 391.376 102.88 395 106.504C398.624 110.128 403.101 111.939 408.323 111.939C413.653 111.939 418.13 110.128 421.754 106.504C425.378 102.88 427.19 98.4028 427.19 92.9668C427.19 87.5307 425.378 83.0538 421.754 79.4297C418.13 75.8056 413.653 73.9932 408.323 73.9932Z" fill="#121619"/>
<path d="M463.731 64.9336C472.365 64.9336 479.507 69.0902 482.918 76.0186L475.137 80.3887C473.218 75.8054 469.381 73.5674 463.731 73.5674C458.509 73.5675 454.245 76.1257 454.245 80.709C454.245 84.8658 458.936 87.1043 464.798 88.7031C473.112 90.5152 484.197 93.6066 484.091 105.012C484.091 109.808 482.172 113.752 478.441 116.63C474.711 119.508 470.021 121 464.158 121C453.819 121 446.038 116.097 442.946 108.529L450.94 103.945C452.646 109.062 457.656 112.26 464.158 112.26C470.234 112.26 474.711 110.021 474.711 105.012C474.711 100.855 470.021 98.5097 464.158 97.124C455.738 94.8856 444.865 92.1139 444.865 80.8154C444.865 76.2321 446.677 72.3947 450.194 69.4102C453.818 66.4257 458.295 64.9336 463.731 64.9336Z" fill="#121619"/>
<path d="M272.945 119.614H263.672V79.4473H272.945V119.614Z" fill="#121619"/>
<path d="M312.995 75.0596C308.412 74.8464 304.574 76.0188 301.27 78.6836C297.965 81.3484 296.366 85.5058 296.366 91.3682V119.614H287.093V66.3193H296.366V75.2725C299.457 68.6638 305.001 65.3594 312.995 65.3594V75.0596Z" fill="#121619"/>
<path d="M268.362 61C271.773 61 274.545 63.8782 274.545 67.2891C274.545 70.6999 271.773 73.4707 268.362 73.4707C264.845 73.4707 262.073 70.6999 262.073 67.2891C262.073 63.8782 264.845 61 268.362 61Z" fill="#121619"/>
<defs>
<radialGradient id="paint0_radial_355_3845" cx="0" cy="0" r="1" gradientUnits="userSpaceOnUse" gradientTransform="translate(64.0978 132.986) rotate(-41.4874) scale(127.724 270.473)">
<stop stop-color="#F8A078"/>
<stop offset="0.475962" stop-color="#F5773E"/>
<stop offset="1" stop-color="#F45D16"/>
</radialGradient>
<radialGradient id="paint1_radial_355_3845" cx="0" cy="0" r="1" gradientUnits="userSpaceOnUse" gradientTransform="translate(64.0978 132.986) rotate(-41.4874) scale(127.724 270.473)">
<stop stop-color="#F8A078"/>
<stop offset="0.475962" stop-color="#F5773E"/>
<stop offset="1" stop-color="#F45D16"/>
</radialGradient>
<radialGradient id="paint2_radial_355_3845" cx="0" cy="0" r="1" gradientUnits="userSpaceOnUse" gradientTransform="translate(64.0978 132.986) rotate(-41.4874) scale(127.724 270.473)">
<stop stop-color="#F8A078"/>
<stop offset="0.475962" stop-color="#F5773E"/>
<stop offset="1" stop-color="#F45D16"/>
</radialGradient>
<radialGradient id="paint3_radial_355_3845" cx="0" cy="0" r="1" gradientUnits="userSpaceOnUse" gradientTransform="translate(64.0978 132.986) rotate(-41.4874) scale(127.724 270.473)">
<stop stop-color="#F8A078"/>
<stop offset="0.475962" stop-color="#F5773E"/>
<stop offset="1" stop-color="#F45D16"/>
</radialGradient>
</defs>
</svg>
