<svg width="509" height="148" viewBox="0 0 509 148" fill="none" xmlns="http://www.w3.org/2000/svg">
<g clip-path="url(#clip0_205_5943)">
<rect width="509" height="148" fill="white"/>
<path d="M210.76 94.586C207.825 96.574 203.802 97.568 198.69 97.568C191.495 97.568 185.65 95.367 181.153 90.965C176.656 86.5157 174.408 80.4807 174.408 72.86C174.408 65.6653 176.68 59.8197 181.224 55.323C185.815 50.779 191.566 48.507 198.477 48.507C203.447 48.507 207.494 49.359 210.618 51.063V56.956C208.535 55.8673 206.666 55.0863 205.009 54.613C203.352 54.1397 201.175 53.903 198.477 53.903C193.318 53.903 189.01 55.6543 185.555 59.157C182.147 62.6597 180.443 67.2273 180.443 72.86C180.443 78.7293 182.147 83.4153 185.555 86.918C188.963 90.4207 193.483 92.172 199.116 92.172C203.66 92.172 207.541 90.965 210.76 88.551V94.586ZM223.012 97H217.403V46.803H223.012V97ZM237.808 97H232.199V61.003H237.808V97ZM237.595 47.087C238.305 47.797 238.66 48.6727 238.66 49.714C238.66 50.7553 238.305 51.631 237.595 52.341C236.885 53.0037 236.01 53.335 234.968 53.335C233.927 53.335 233.051 53.0037 232.341 52.341C231.679 51.631 231.347 50.7553 231.347 49.714C231.347 48.6727 231.679 47.797 232.341 47.087C233.051 46.377 233.927 46.022 234.968 46.022C236.01 46.022 236.885 46.377 237.595 47.087ZM271.491 95.722C269.219 97.0947 266.426 97.781 263.113 97.781C257.433 97.781 252.912 95.9823 249.552 92.385C246.238 88.7403 244.582 84.3147 244.582 79.108C244.582 73.996 246.238 69.594 249.552 65.902C252.912 62.21 257.48 60.364 263.255 60.364C266.331 60.364 269.077 61.0267 271.491 62.352V67.677C269.313 66.2097 266.757 65.476 263.823 65.476C259.752 65.476 256.486 66.8013 254.025 69.452C251.611 72.0553 250.404 75.2977 250.404 79.179C250.451 83.0603 251.634 86.3027 253.954 88.906C256.273 91.462 259.563 92.74 263.823 92.74C266.568 92.74 269.124 91.959 271.491 90.397V95.722ZM283.894 97H278.356V47.087H283.894V97ZM291.207 78.114L305.833 97H299.088L284.604 78.114L298.733 61.003H305.407L291.207 78.114ZM345.698 97H339.947V75.345H316.73V97H310.979V49.146H316.73V70.162H339.947V49.146H345.698V97ZM386.209 79.108C386.209 84.4567 384.694 88.8823 381.665 92.385C378.635 95.8877 374.47 97.639 369.169 97.639C364.009 97.639 359.915 95.9113 356.886 92.456C353.904 88.9533 352.413 84.5513 352.413 79.25C352.413 73.9013 353.951 69.452 357.028 65.902C360.152 62.3047 364.199 60.506 369.169 60.506C374.612 60.506 378.801 62.2573 381.736 65.76C384.718 69.2627 386.209 73.712 386.209 79.108ZM358.235 79.179C358.235 82.9183 359.229 86.1133 361.217 88.764C363.205 91.3673 365.855 92.669 369.169 92.669C372.766 92.669 375.535 91.391 377.476 88.835C379.416 86.2317 380.387 83.013 380.387 79.179C380.387 75.203 379.464 71.937 377.618 69.381C375.772 66.7777 372.955 65.476 369.169 65.476C365.761 65.476 363.086 66.8013 361.146 69.452C359.205 72.1027 358.235 75.345 358.235 79.179ZM420.61 97H415.001V90.752C413.108 95.2013 409.345 97.426 403.712 97.426C400.162 97.426 397.346 96.3847 395.263 94.302C393.228 92.172 392.21 89.332 392.21 85.782V61.003H397.819V84.362C397.819 86.9653 398.482 88.9533 399.807 90.326C401.132 91.6987 402.931 92.385 405.203 92.385C408.185 92.385 410.552 91.3437 412.303 89.261C414.102 87.1783 415.001 84.362 415.001 80.812V61.003H420.61V97ZM450.859 87.415C450.859 90.4917 449.77 92.9293 447.593 94.728C445.463 96.5267 442.528 97.426 438.789 97.426C434.434 97.426 430.908 96.6923 428.21 95.225V89.758C431.381 91.6513 434.789 92.598 438.434 92.598C440.611 92.598 442.268 92.172 443.404 91.32C444.54 90.468 445.108 89.3083 445.108 87.841C445.108 86.137 444.469 84.8117 443.191 83.865C441.96 82.9183 439.877 81.8533 436.943 80.67C434.245 79.6287 432.067 78.327 430.411 76.765C428.801 75.203 427.997 73.0967 427.997 70.446C427.997 67.464 429.109 65.0973 431.334 63.346C433.606 61.5473 436.422 60.648 439.783 60.648C443.522 60.648 446.528 61.1687 448.8 62.21V67.535C446.622 66.2097 443.64 65.547 439.854 65.547C437.96 65.547 436.446 65.9967 435.31 66.896C434.221 67.748 433.677 68.8603 433.677 70.233C433.677 71.085 433.842 71.8423 434.174 72.505C434.505 73.1203 435.144 73.7357 436.091 74.351C437.085 74.9663 437.795 75.3923 438.221 75.629C438.694 75.8183 439.688 76.2443 441.203 76.907C444.232 78.1377 446.599 79.534 448.303 81.096C450.007 82.658 450.859 84.7643 450.859 87.415ZM482.958 95.154C480.166 96.6213 476.758 97.355 472.734 97.355C467.291 97.355 462.889 95.6983 459.528 92.385C456.215 89.0243 454.558 84.5987 454.558 79.108C454.558 73.3807 456.049 68.8603 459.031 65.547C462.013 62.2337 465.847 60.577 470.533 60.577C475.03 60.577 478.604 62.0207 481.254 64.908C483.905 67.7953 485.23 71.8897 485.23 77.191C485.23 78.7057 485.112 80.102 484.875 81.38H460.309C460.735 84.93 462.084 87.6517 464.356 89.545C466.628 91.4383 469.61 92.385 473.302 92.385C477.326 92.385 480.544 91.5567 482.958 89.9V95.154ZM470.533 65.476C467.835 65.476 465.54 66.4463 463.646 68.387C461.753 70.3277 460.641 73.0967 460.309 76.694H479.621V75.274C479.621 72.292 478.817 69.9253 477.207 68.174C475.598 66.3753 473.373 65.476 470.533 65.476Z" fill="black"/>
<rect x="17.5625" y="12.5625" width="13.8745" height="124.871" rx="1.45943" fill="#FFB200"/>
<path d="M17.5625 123.562H31.4375V135.978C31.4375 136.784 30.7841 137.438 29.9781 137.438H19.0219C18.2159 137.438 17.5625 136.784 17.5625 135.978V123.562Z" fill="#FF0000"/>
<rect x="45.3132" y="12.5625" width="13.8745" height="124.871" rx="1.45943" fill="#FFB200"/>
<rect x="73.0638" y="12.5625" width="13.8745" height="124.871" rx="1.45943" fill="#FFB200"/>
<rect x="100.808" y="12.5625" width="13.8745" height="124.871" rx="1.45943" fill="#FFB200"/>
<rect x="128.565" y="61.126" width="13.8745" height="27.7491" rx="1.45943" fill="#FFB200"/>
</g>
<defs>
<clipPath id="clip0_205_5943">
<rect width="509" height="148" fill="white"/>
</clipPath>
</defs>
</svg>
