<?xml version="1.0" encoding="utf-8"?>
<!-- Generator: Adobe Illustrator 23.0.1, SVG Export Plug-In . SVG Version: 6.00 Build 0)  -->
<svg version="1.1" id="Layer_1" xmlns="http://www.w3.org/2000/svg" xmlns:xlink="http://www.w3.org/1999/xlink" x="0px" y="0px"
	 viewBox="0 0 283.46 198.43" style="enable-background:new 0 0 283.46 198.43;" xml:space="preserve">
<style type="text/css">
	.st0{fill:none;}
</style>
<rect x="-209.25" y="-143.03" class="st0" width="702.5" height="485.72"/>
<path d="M231.58,104.56c-0.3,5.08-4.85,8.48-11.38,8.48c-6.82,0-11.4-4.09-11.4-10.17c0-6.08,4.58-10.17,11.4-10.17
	c6.53,0,11.08,3.4,11.38,8.48h-6.76c-0.58-2.17-3.12-2.5-4.62-2.5c-1.78,0-4.78,0.54-4.78,4.2c0,3.65,2.99,4.2,4.78,4.2
	c1.52,0,4.07-0.34,4.63-2.5H231.58z M62.09,85.21v27.46h6.82V85.21H62.09z M74.12,95.32c-2.09,1.76-3.14,4.27-3.14,7.54
	s1.05,5.78,3.14,7.54c2.09,1.76,4.88,2.64,8.37,2.64c3.47,0,6.26-0.88,8.35-2.64c2.09-1.76,3.12-4.27,3.12-7.54
	s-1.03-5.78-3.12-7.54c-2.09-1.76-4.88-2.64-8.35-2.64C79,92.68,76.21,93.56,74.12,95.32z M79.21,105.99
	c-0.82-0.79-1.24-1.82-1.24-3.12s0.42-2.36,1.24-3.14c0.82-0.79,1.91-1.17,3.27-1.17c1.36,0,2.45,0.38,3.27,1.17
	c0.82,0.79,1.23,1.84,1.23,3.14s-0.4,2.34-1.23,3.12c-0.82,0.79-1.91,1.19-3.27,1.19C81.13,107.18,80.03,106.77,79.21,105.99z
	 M151,97.49C150.99,97.57,151,97.49,151,97.49v-4.43h-6.82v19.61H151v-8.23c0-2.89,1.41-4.79,4.86-4.79c1.63,0,2.83,0.23,3.64,0.71
	v-7.68c-3.34-0.41-5.46,0.55-6.75,1.61C151.76,95.11,151.14,96.22,151,97.49z M207.57,112.67L207.57,112.67L207.57,112.67l-6.82,0v0
	h0v-4.12c-0.14,0.95-1.01,4.15-6.39,4.47c-0.96,0.1-1.97,0-2.9-0.23c-2.16-0.53-3.6-1.79-4.55-3.1c-0.78-0.99-1.33-2.18-1.65-3.54
	c-0.05-0.2-0.07-0.31-0.07-0.31l0,0c-0.19-0.91-0.29-1.9-0.29-2.96c0-3.22,0.88-5.73,2.62-7.51c1.74-1.78,3.91-2.68,6.51-2.68
	c5.67,0,6.72,3.75,6.72,3.75v-3.37h6.82V112.67z M191.89,102.87c0,1.24,0.42,2.26,1.24,3.04c0.82,0.79,1.93,1.19,3.35,1.19
	c2.81,0,4.58-1.63,4.58-4.23c0-1.24-0.4-2.28-1.21-3.06c-0.82-0.78-1.95-1.17-3.39-1.17c-1.42,0-2.53,0.38-3.35,1.17
	C192.29,100.59,191.89,101.62,191.89,102.87z M110.65,93.06v9.65c0,2.66-1.12,4.38-3.95,4.38c-2.74,0-4.29-1.61-4.29-4.38v-9.65
	h-6.82v11.6c0,2.8,0.73,4.88,2.16,6.28c1.44,1.4,3.37,2.11,5.84,2.11c0.14,0,0.28,0,0.41-0.01c0.15,0.01,0.31,0.01,0.48,0.01
	c4.25,0,5.59-2.21,6-3.85c0.07-0.23,0.12-0.47,0.16-0.72v4.18h0.03v0.01h6.78v-0.01V93.16v-0.1H110.65z M240.08,97.49L240.08,97.49
	V85.21h-6.82v27.46h6.82v-9.65c0-2.66,1.12-4.38,3.95-4.38c2.7,0,4.27,1.61,4.27,4.38v9.65h6.82v-11.6c0-2.8-0.71-4.9-2.14-6.3
	c-1.44-1.4-3.37-2.09-5.84-2.09c-0.65,0-1.28,0.06-1.87,0.17c-2.09,0.38-3.88,1.7-4.79,3.61C240.18,97.08,240.08,97.49,240.08,97.49
	 M250.58,88.39v-2.71h1.04v-0.47h-2.66v0.47H250v2.71H250.58z M253.58,87.7l-1.09-2.49h-0.46v3.18h0.51v-1.95l0.85,1.95h0.38
	l0.84-1.97v1.97h0.51v-3.18h-0.46L253.58,87.7z M142.02,85.21v7.85v19.51v0.1h-6.82v-4.29c-0.18,1.18-0.78,2.2-1.71,2.97
	c-1.07,0.88-2.73,1.7-5.19,1.7c-0.04,0-0.08,0-0.13,0c-0.17,0-0.34,0-0.51-0.01c-0.01,0-0.02,0-0.02,0c-0.08,0-0.14-0.02-0.22-0.02
	c-0.07,0-0.14-0.01-0.2-0.02c-2.13-0.2-3.76-1.07-5.28-2.63c-1.74-1.78-2.6-4.29-2.6-7.51s0.88-5.73,2.62-7.51
	c0.44-0.45,0.91-0.84,1.4-1.18l0,0c0,0,2.16-1.83,5.91-1.59c4.34,0.11,5.94,2.47,5.94,2.47v-9.85H142.02z M135.5,102.87
	c0-0.58-0.09-1.11-0.26-1.58l0,0c0,0,0,0,0,0c-0.14-0.41-0.35-0.78-0.61-1.11c0,0-0.01-0.01-0.01-0.01
	c-0.06-0.07-0.12-0.14-0.19-0.21c-0.01-0.01-0.03-0.03-0.04-0.04c-0.06-0.07-0.13-0.13-0.2-0.19c0,0-0.01-0.01-0.01-0.01
	c-0.13-0.12-0.28-0.22-0.43-0.32c-0.03-0.02-0.06-0.04-0.09-0.06c-0.06-0.04-0.12-0.07-0.19-0.11c-0.05-0.03-0.1-0.05-0.15-0.08
	c-0.06-0.03-0.12-0.06-0.18-0.08c-0.07-0.03-0.13-0.05-0.2-0.08c-0.05-0.02-0.1-0.04-0.16-0.06c-0.12-0.04-0.24-0.08-0.37-0.11
	c-0.04-0.01-0.09-0.02-0.13-0.03c-0.1-0.02-0.19-0.04-0.29-0.06c-0.05-0.01-0.1-0.02-0.16-0.02c-0.1-0.01-0.2-0.03-0.31-0.04
	c-0.05,0-0.1-0.01-0.14-0.01c-0.15-0.01-0.31-0.02-0.47-0.02c-0.18,0-0.35,0.01-0.52,0.02c-1.17,0.08-2.11,0.46-2.83,1.15
	c-0.82,0.78-1.24,1.82-1.24,3.06c0,0.14,0.01,0.28,0.02,0.42c0,0.05,0.01,0.1,0.02,0.15c0.01,0.08,0.02,0.17,0.03,0.25
	c0.01,0.06,0.02,0.12,0.04,0.18c0.01,0.06,0.03,0.13,0.05,0.19c0.02,0.07,0.04,0.14,0.06,0.2c0.02,0.05,0.03,0.1,0.05,0.14
	c0.03,0.08,0.06,0.15,0.09,0.22c0.01,0.02,0.02,0.05,0.03,0.07c0.21,0.45,0.49,0.85,0.86,1.21c0.82,0.79,1.93,1.19,3.33,1.19
	c1.44,0,2.57-0.4,3.39-1.19C135.09,105.13,135.5,104.11,135.5,102.87z M183.73,104.51h-15.4c0.65,1.69,2.53,2.6,5.78,2.6
	c4.27-0.11,4.61-0.21,8.15-1.32v5.61c-2.71,0.98-5.08,1.65-10.06,1.65c-6.93,0-11.53-4.06-11.53-10.19c0-6.13,4.6-10.19,11.53-10.19
	c6.86,0,11.42,3.49,11.53,8.7V104.51z M176.26,101.64c-0.19-1.92-1.95-2.93-4.06-2.93c-1.95,0-3.64,0.94-4.06,2.93H176.26z
	 M52.06,101.77c-0.71,3.21-3.78,4.74-7.98,4.74c-4.92,0-8.2-2.51-8.2-7.36s3.28-7.36,8.2-7.36c4.15,0,7.2,1.52,7.96,4.69h7.73
	c-0.53-6.78-6.68-11.22-15.69-11.22c-9.43,0-15.73,5.54-15.73,13.89c0,8.35,6.3,13.89,15.73,13.89c9.03,0,15.19-4.46,15.69-11.27
	H52.06z"/>
</svg>
