<?xml version="1.0" encoding="UTF-8"?> <svg xmlns="http://www.w3.org/2000/svg" width="699" height="383" viewBox="0 0 699 383" fill="none"><path d="M423.1 102.2C421.5 85.3 423.1 66.5 418.5 50.4 409.9 20.1 378.2 0 347.3 0 317 0 289.1 19.3 277.5 48 275.1 55 275.9 68.1 279.9 70.5 291.5 78.3 294.7 68.1 299.2 58.2 303.8 43.4 315.6 32.7 329.3 27.3 343.3 21.9 359.5 23.5 372.6 30.5 385.8 37.4 395.2 49.8 398.9 64.5 402.1 78.5 399.7 94 391.2 106.4 373.4 133.5 340.1 137.2 313 117.1 301.4 107.8 289.1 100.8 275.9 95.4 256.6 90 236.4 92.2 218.7 101.6 201.7 110.5 189.4 126.9 183.8 145.4 170.6 184.8 192.3 226.7 231 239.8 269.7 253.8 312.4 234.4 326.4 195.8 328.8 189.6 328 178.1 324 174.9 310.8 165.5 309.2 177.3 305.4 186.4 300.8 201.2 289.1 212.7 275.3 218.1 260.5 223.5 245.2 221.9 232 214.3 218.1 208.2 208.7 195.8 204.9 181.1 201.1 167.1 204.1 151.6 211.9 139.2 230.4 112.1 263.7 107.6 290.9 128.5 343.5 167.9 383.8 160.1 419.5 104.6 420.1 102.8 422.3 102.8 423.1 102.2ZM423.1 102.2C426.9 110.7 435.4 116.1 444 114.5 469.5 114.5 491.3 133.1 495.1 157.8 498.9 180.9 487.3 204.2 466.3 214.1 444.6 224.1 419.9 219.5 403.5 202.6 399.7 198.8 394.2 195.6 389.6 193.2 385 202.6 377.2 209.5 388.8 220.3 410.5 242 443 248.2 471.7 237.2 501.2 224.9 520.6 195.4 519 162.9 517.6 131.5 495.9 103.6 465.8 94.4 451 88.2 434 91.2 423.1 102.2Z" fill="#FF9900"></path><path d="M0.5 335C0.5 326.9 3.5 319.3 9.1 313.7 15.2 308.1 22.7 305.1 30.8 305.7 40.4 305.7 49.5 310.2 54.1 318.8L45 323.4C42 318.3 36.9 315.3 30.8 315.3 25.7 315.3 20.6 317.4 17.1 320.9 13.6 324.4 11.5 329.5 12 335.1 11.5 340.2 13.6 344.7 17.1 348.8 20.6 352.3 25.7 354.4 30.8 354.4 36.9 354.4 41.9 351.4 45 346.3L54.1 350.8C49.5 359.4 40.4 364.5 30.8 364 22.7 364.5 15.2 361.5 9.6 355.9 3.5 350.7 0.5 342.5 0.5 335ZM63.1 351.1V295H73.8V348.6C73.8 352.1 75.3 354.7 78.3 354.7 80.4 354.7 81.8 354.2 82.9 352.7L85.4 360.7C82.9 363.2 79.2 364.2 75.2 363.7 72.2 364.2 68.7 363.2 66.1 360.7 63.6 358.3 62.6 354.7 63.1 351.1ZM88.9 337.9C88.9 324.3 99.9 312.7 114.1 312.7 128.3 312.7 139.4 324.3 139.4 337.9 139.4 352.1 128.3 363.2 114.1 363.2 100.1 363.3 88.9 352.1 88.9 337.9ZM128.3 337.9C128.3 329.4 123.3 321.8 114.1 321.8 105 321.8 99.9 329.4 99.9 337.9 99.9 346.5 105 354.6 114.1 354.6 123.3 354.7 128.3 347.1 128.3 337.9ZM183.4 362.8V356.3C178.9 361.4 172.7 363.9 165.7 363.9 155.5 363.9 150.1 358.3 150.1 348.8V313.7H160.8V344.6C160.8 352.1 164.8 354.7 170.9 354.7 176 354.7 180.5 352.3 183.5 348.2V313.7H194.2V362.8H183.4ZM242.7 362.8V356.3C238.6 360.9 233 363.9 226.5 363.9 214.4 363.9 204.8 354.2 204.8 338.1 204.8 321.9 213.9 312.3 226.5 312.3 233 312.3 238.6 315.3 242.7 320.4V295H253.3V362.7H242.7V362.8ZM242.7 348.1V328.4C239.7 324.4 234.6 321.9 230 321.9 221.4 321.9 215.8 329 215.8 338.1 215.8 347.7 221.4 354.7 230 354.7 234.6 354.7 239.5 352.1 242.7 348.1ZM263.9 335C263.9 326.9 266.9 319.3 273 313.7 278.6 308.1 286.2 305.1 294.2 305.7 303.3 305.7 311.9 309.7 317 316.7L308.4 322.3C304.9 317.8 299.8 315.3 294.2 315.3 289.1 315.3 284.1 317.4 280.6 320.9 277 324.9 275 329.5 275.5 335.1 275 340.2 277 345.2 280.6 348.8 284.1 352.3 289.1 354.4 294.2 354.4 298.8 354.4 303.3 352.8 306.9 349.8V341.7H291.8V332.6H318.1V353.8C311.5 360.3 303 364 294.2 364 286.2 364.5 278.6 361.5 273 355.9 266.9 350.2 263.9 342.5 263.9 335ZM327 337.9C326.5 331.4 329.1 324.8 334.1 319.7 338.6 315.2 345.1 312.2 351.8 312.2 366.5 312.2 376 323.8 376 339V341.5H338.1C338.6 349.5 345.7 355.7 353.7 355.1 358.8 355.1 363.9 353.1 367.4 349.5L372.5 356.6C367.4 361.1 359.9 364.1 352.8 363.6 345.8 364.1 339.2 361.5 334.1 356.6 329.1 351.6 326.5 345.1 327 337.9ZM351.9 321.3C344.4 320.8 338.2 326.9 338.2 333.9H365.6C365.6 330.4 364 327.4 361.5 324.8 358.9 322.3 355.4 320.8 351.9 321.3ZM383.7 337.9C383.7 324.3 394.8 312.7 408.9 312.7 422.6 312.7 434.2 324.3 434.2 337.9 434.2 352.1 422.6 363.2 408.9 363.2 394.9 363.3 383.7 352.1 383.7 337.9ZM423.1 337.9C423.1 329.4 418.1 321.8 408.9 321.8 399.3 321.8 394.8 329.4 394.8 337.9 394.8 346.5 399.8 354.6 408.9 354.6 418.1 354.7 423.1 347.1 423.1 337.9ZM505 362.8V330.9C505 325.8 503 321.8 497 321.8 492.4 322.3 488.4 324.8 485.9 328.3V362.7H475.2V330.9C475.2 325.8 472.8 321.8 467.2 321.8 462.6 322.3 458 324.8 455.6 328.3V362.7H444.9V313.7H455.6V320.2C459.6 315.2 465.7 312.7 471.7 312.2 477.8 311.6 483.3 315.7 484.9 321.3 488.9 315.7 495 312.7 501.5 312.2 510.6 312.2 515.7 317.2 515.7 327.3V362.7H505V362.8ZM526.8 337.9C526.3 331.4 528.9 324.8 533.3 319.7 538.4 315.2 544.9 312.2 551.5 312.2 566.3 312.2 575.8 323.8 575.8 339V341.5H537.9C538.4 349.5 545.4 355.7 553.5 355.1 558.6 355.1 563.6 353.1 567.2 349.5L572.2 356.6C566.6 361.1 559.6 364.1 552.6 363.6 545.5 364.1 538.9 361.5 533.8 356.6 528.9 351.6 526.3 345.1 526.8 337.9ZM551.5 321.3C544 320.8 537.9 326.9 537.9 333.9H565.2C565.2 330.4 563.6 327.4 561.2 324.8 558.7 322.3 555.2 320.8 551.5 321.3ZM588.5 351.1V322.8H580.4V313.7H588.5V300.1H599.2V313.7H609.4V322.8H599.1V348.6C599.1 352.1 600.6 354.7 603.6 354.7 605.7 354.7 607.1 354.2 608.7 352.7L611.2 360.7C608.2 363.2 604.7 364.2 601 363.7 597.5 364.2 594 363.2 591.4 360.7 589 358.3 588 354.7 588.5 351.1ZM618.9 362.8V313.7H629.5V320.8C633.6 315.7 639.2 312.7 645.7 312.7V323.4C644.1 322.8 643.2 322.8 642.2 322.8 637.1 322.8 632.5 325.3 629.5 329.4V362.7H618.9V362.8ZM653.8 375.4L658.8 367.9C662.4 371.9 667.9 374 673.5 374 677.1 374.5 681.1 373 683.7 370.5 686.2 368 687.7 364.4 687.2 360.3V354.7C683.2 359.8 676.5 362.3 670 362.3 659.4 362.3 654.4 356.7 654.4 347.2V313.7H665.1V343C665.1 350.6 669.1 353.2 675.2 353.2 680.3 352.7 684.9 350.7 687.9 346.7V313.7H698.6V360.2C698.6 375.3 687.9 383 673.8 383 666.4 383 658.8 380.5 653.8 375.4Z" fill="#031328"></path></svg> 