<?xml version="1.0" encoding="UTF-8"?>
<!-- Generator: Adobe Illustrator 23.0.1, SVG Export Plug-In . SVG Version: 6.00 Build 0)  -->
<svg version="1.1" id="Tryb_izolacji" xmlns="http://www.w3.org/2000/svg" xmlns:xlink="http://www.w3.org/1999/xlink" x="0px" y="0px" viewBox="0 0 348.7 98" style="enable-background:new 0 0 348.7 98;" xml:space="preserve">
<style type="text/css">
	.st0{fill:#202E58;}
	.st1{fill:url(#SVGID_1_);}
	.st2{fill:url(#SVGID_2_);}
	.st3{fill:url(#SVGID_3_);}
	.st4{fill:url(#SVGID_4_);}
	.st5{fill:url(#SVGID_5_);}
	.st6{fill:url(#SVGID_6_);}
	.st7{fill:url(#SVGID_7_);}
	.st8{fill:url(#SVGID_8_);}
	.st9{fill:url(#SVGID_9_);}
	.st10{fill:url(#SVGID_10_);}
	.st11{fill:url(#SVGID_11_);}
	.st12{fill:url(#SVGID_12_);}
	.st13{fill:url(#SVGID_13_);}
	.st14{fill:url(#SVGID_14_);}
	.st15{fill:url(#SVGID_15_);}
	.st16{fill:url(#SVGID_16_);}
	.st17{fill:url(#SVGID_17_);}
	.st18{fill:url(#SVGID_18_);}
	.st19{fill:url(#SVGID_19_);}
	.st20{fill:url(#SVGID_20_);}
	.st21{fill:url(#SVGID_21_);}
	.st22{fill:url(#SVGID_22_);}
	.st23{fill:url(#SVGID_23_);}
	.st24{fill:url(#SVGID_24_);}
	.st25{fill:url(#SVGID_25_);}
</style>
<g>
	<g>
		<g>
			<g>
				<path class="st0" d="M124.8,71.9h4.5v1.2h-4.5v3.7h-1.3v-9.1h6.4v1.2h-5.1V71.9z"/>
				<path class="st0" d="M137,76.8h-1.2v-0.6c-0.6,0.5-1.3,0.8-2.1,0.8c-1.6,0-2.7-1.1-2.7-2.9v-3.5h1.2V74c0,1.2,0.7,1.9,1.7,1.9      c0.7,0,1.4-0.4,1.9-1v-4.3h1.2V76.8z"/>
				<path class="st0" d="M145,74.1L145,74.1L145,74.1h-5.1c0.2,1,0.9,1.8,2.1,1.8c0.7,0,1.3-0.3,1.5-0.8h1.3      c-0.4,1.1-1.5,1.8-2.9,1.8c-2,0-3.3-1.4-3.3-3.3c0-1.9,1.3-3.3,3.3-3.3c1.8,0,3.1,1.3,3.1,3.2C145.1,73.8,145.1,74,145,74.1z       M139.9,73.2h3.9c-0.1-1.1-0.8-1.8-1.9-1.8C140.8,71.4,140.1,72.2,139.9,73.2z"/>
				<path class="st0" d="M147.9,76.8h-1.2v-9.5h1.2V76.8z"/>
				<path class="st0" d="M156,74.1L156,74.1L156,74.1h-5.1c0.2,1,0.9,1.8,2.1,1.8c0.7,0,1.3-0.3,1.5-0.8h1.3      c-0.4,1.1-1.5,1.8-2.9,1.8c-2,0-3.3-1.4-3.3-3.3c0-1.9,1.3-3.3,3.3-3.3c1.8,0,3.1,1.3,3.1,3.2C156,73.8,156,74,156,74.1z       M150.9,73.2h3.9c-0.1-1.1-0.8-1.8-1.9-1.8C151.7,71.4,151,72.2,150.9,73.2z"/>
				<path class="st0" d="M163.8,76.8h-1.2v-0.6c-0.5,0.5-1.3,0.7-2.1,0.7c-1.8,0-3.2-1.5-3.2-3.3s1.4-3.3,3.2-3.3      c0.8,0,1.6,0.3,2.1,0.7v-3.8h1.2V76.8z M162.6,74.9v-2.4c-0.5-0.7-1.2-1-1.9-1c-1.2,0-2.1,1-2.1,2.2c0,1.2,0.9,2.2,2.1,2.2      C161.4,75.9,162.1,75.6,162.6,74.9z"/>
				<path class="st0" d="M176,73.6c0,1.8-1.4,3.3-3.2,3.3c-0.8,0-1.6-0.3-2.1-0.7v0.6h-1.2v-9.5h1.2v3.8c0.5-0.4,1.2-0.7,2.1-0.7      C174.6,70.4,176,71.8,176,73.6z M174.8,73.6c0-1.2-0.9-2.2-2.1-2.2c-0.8,0-1.4,0.3-1.9,1v2.4c0.5,0.7,1.2,1,1.9,1      C173.8,75.9,174.8,74.8,174.8,73.6z"/>
				<path class="st0" d="M179.6,80h-1.3l1.3-3l-3.2-6.6h1.3l2.5,5.1l2.3-5.1h1.3L179.6,80z"/>
			</g>
			<g>
				<g>
					<path class="st0" d="M196,72.4c-0.3-0.3-0.7-0.4-1.3-0.4c-0.5,0-1,0.2-1.3,0.4c-0.3,0.3-0.4,0.6-0.4,1.1s0.2,0.8,0.4,1.1       c0.3,0.3,0.7,0.4,1.3,0.4c0.5,0,1-0.2,1.3-0.4c0.3-0.3,0.4-0.6,0.4-1.1S196.3,72.7,196,72.4 M199.5,70.3v6.5h1.9v-3.2       c0-0.4,0.2-0.8,0.4-1.1c0.3-0.3,0.7-0.4,1.3-0.4c0.2,0,0.4,0,0.6,0.1c0.2-0.5,0.5-1,0.9-1.4c0.1-0.1,0.1-0.1,0.2-0.2       c-0.4-0.2-0.9-0.3-1.5-0.3c-0.8,0-1.5,0.3-2,0.7v-0.6H199.5z M209.1,72.4c-0.3-0.3-0.7-0.4-1.3-0.4c-0.5,0-1,0.2-1.3,0.4       c-0.3,0.3-0.4,0.6-0.4,1.1s0.2,0.8,0.4,1.1c0.3,0.3,0.7,0.4,1.3,0.4c0.5,0,1-0.2,1.3-0.4c0.3-0.3,0.4-0.6,0.4-1.1       S209.3,72.7,209.1,72.4z M207.7,70.1c0.8,0,1.5,0.2,2,0.7v-0.5h1.9v6.5h-1.9v-0.5c-0.5,0.4-1.2,0.7-2,0.7       c-1.9,0-3.4-1.5-3.4-3.4C204.2,71.6,205.8,70.1,207.7,70.1z M214.7,72.4c0.3-0.3,0.7-0.4,1.3-0.4c0.5,0,1,0.2,1.3,0.4       c0.3,0.3,0.4,0.6,0.4,1.1s-0.2,0.8-0.4,1.1c-0.3,0.3-0.7,0.4-1.3,0.4c-0.5,0-1-0.2-1.3-0.4c-0.3-0.3-0.4-0.6-0.4-1.1       S214.5,72.7,214.7,72.4z M216.2,70.1c-0.8,0-1.5,0.2-2,0.7v-0.5h-1.9v8.8h1.9v-2.9c0.5,0.4,1.2,0.7,2,0.7       c1.9,0,3.4-1.5,3.4-3.4C219.6,71.6,218,70.1,216.2,70.1z M225.5,73c-0.2-0.7-0.8-1.2-1.7-1.2c-0.8,0-1.5,0.5-1.7,1.2H225.5z        M223.8,75.3c0.7,0,1-0.2,1.3-0.5h2.1c-0.2,0.5-0.5,0.9-0.8,1.2c-0.6,0.6-1.5,0.9-2.5,0.9c-1,0-1.9-0.4-2.5-0.9       c-0.7-0.6-1.1-1.5-1.1-2.4c0-1,0.4-1.8,1.1-2.4c0.6-0.6,1.5-0.9,2.5-0.9c1,0,1.9,0.4,2.5,0.9c0.8,0.7,1.2,1.8,1,3h-5.2       C222.3,74.8,223.1,75.3,223.8,75.3z M240.9,72.4c0.3-0.3,0.7-0.4,1.3-0.4c0.5,0,1,0.2,1.3,0.4c0.3,0.3,0.4,0.6,0.4,1.1       s-0.2,0.8-0.4,1.1c-0.3,0.3-0.7,0.4-1.3,0.4c-0.5,0-1-0.2-1.3-0.4c-0.3-0.3-0.4-0.6-0.4-1.1S240.7,72.7,240.9,72.4z        M242.3,70.1c-0.8,0-1.5,0.2-2,0.7v-0.5h-1.9v8.8h1.9v-2.9c0.5,0.4,1.2,0.7,2,0.7c1.9,0,3.4-1.5,3.4-3.4       C245.8,71.6,244.2,70.1,242.3,70.1z M237.7,70.3v6.5h-1.9v-0.5c-0.5,0.5-1.1,0.7-1.9,0.7c-1.9,0-3.4-1.5-3.4-3.4v-3.2h1.9v3.2       c0,0.4,0.2,0.8,0.4,1.1c0.3,0.3,0.7,0.4,1.3,0.4c0.5,0,1-0.2,1.3-0.4c0.3-0.3,0.4-0.6,0.4-1.1v-3.2H237.7z M247.3,70.1       c0.7,0,1.3,0.6,1.3,1.3c0,0.7-0.6,1.3-1.3,1.3c-0.7,0-1.3-0.6-1.3-1.3C246,70.7,246.6,70.1,247.3,70.1z M247.8,72l-0.3-0.5       c0.1-0.1,0.2-0.2,0.2-0.3c0-0.2-0.2-0.4-0.5-0.4h-0.4V72h0.2v-0.4h0.2c0,0,0,0,0,0l0.2,0.4H247.8z M247.1,71h0.2       c0.1,0,0.2,0.1,0.2,0.2c0,0.1-0.1,0.2-0.2,0.2h-0.2V71z M247.3,70.4c-0.5,0-1,0.4-1,1c0,0.5,0.4,1,1,1c0.5,0,1-0.4,1-1       C248.2,70.9,247.8,70.4,247.3,70.4z M197.9,71.8c0.3,0.5,0.4,1.1,0.4,1.7c0,0.9-0.4,1.8-1,2.4c0.6,0.5,1,1.2,1,2.1       c0,0.9-0.4,1.6-1.1,2.2c-0.6,0.5-1.5,0.8-2.5,0.8c-1,0-1.8-0.3-2.5-0.8c-0.7-0.5-1.1-1.3-1.1-2.2v-0.2h1.9V78       c0,0.3,0.1,0.5,0.4,0.7c0.3,0.2,0.8,0.4,1.3,0.4c0.6,0,1-0.1,1.3-0.4c0.2-0.2,0.4-0.4,0.4-0.7c0-0.3-0.1-0.5-0.4-0.7       c-0.3-0.2-0.8-0.4-1.3-0.4c-1,0-1.9-0.4-2.5-0.9c-0.7-0.6-1.1-1.5-1.1-2.4c0-1,0.4-1.8,1.1-2.4c0.6-0.6,1.5-0.9,2.5-0.9       c0.7,0,1.3,0.1,2.1,0.1h1.8v1.6H197.9z"/>
				</g>
			</g>
		</g>
	</g>
	<g>
		<linearGradient id="SVGID_1_" gradientUnits="userSpaceOnUse" x1="87.8904" y1="9.8357" x2="26.2113" y2="71.5148">
			<stop offset="0" style="stop-color:#E05B9C"/>
			<stop offset="0.9946" style="stop-color:#E00C19"/>
		</linearGradient>
		<path class="st1" d="M73.2,20.2c-1.1,0-2.2,0.4-3,1.3c-0.8,0.8-1.3,1.9-1.3,3c0,1.1,0.4,2.2,1.3,3c0.8,0.8,1.9,1.3,3,1.3    c1.1,0,2.2-0.4,3-1.3c0.8-0.8,1.3-1.9,1.3-3c0-1.1-0.4-2.2-1.3-3C75.4,20.7,74.4,20.2,73.2,20.2z"/>
		<linearGradient id="SVGID_2_" gradientUnits="userSpaceOnUse" x1="87.8925" y1="9.8377" x2="26.2134" y2="71.5169">
			<stop offset="0" style="stop-color:#E05B9C"/>
			<stop offset="0.9946" style="stop-color:#E00C19"/>
		</linearGradient>
		<path class="st2" d="M61,41c1.1,0,2.2-0.4,3-1.3c1.7-1.7,1.7-4.4,0-6.1c-1.7-1.7-4.4-1.7-6.1,0c-1.7,1.7-1.7,4.4,0,6.1    C58.8,40.6,59.9,41,61,41z"/>
		<linearGradient id="SVGID_3_" gradientUnits="userSpaceOnUse" x1="87.8946" y1="9.8398" x2="26.2155" y2="71.519">
			<stop offset="0" style="stop-color:#E05B9C"/>
			<stop offset="0.9946" style="stop-color:#E00C19"/>
		</linearGradient>
		<path class="st3" d="M48.8,53.3c1.1,0,2.2-0.4,3-1.3c1.7-1.7,1.7-4.4,0-6.1c-1.7-1.7-4.4-1.7-6.1,0c-1.7,1.7-1.7,4.4,0,6.1    C46.5,52.8,47.6,53.3,48.8,53.3z"/>
		<linearGradient id="SVGID_4_" gradientUnits="userSpaceOnUse" x1="88.2046" y1="10.1498" x2="26.5254" y2="71.829">
			<stop offset="0" style="stop-color:#E05B9C"/>
			<stop offset="0.9946" style="stop-color:#E00C19"/>
		</linearGradient>
		<path class="st4" d="M34.8,58.8c-1.3,1.3-1.3,3.4,0,4.7c0.7,0.7,1.5,1,2.4,1c0.9,0,1.7-0.3,2.4-1c1.3-1.3,1.3-3.4,0-4.7    C38.2,57.5,36.1,57.5,34.8,58.8z"/>
		<linearGradient id="SVGID_5_" gradientUnits="userSpaceOnUse" x1="81.7792" y1="3.7244" x2="20.1" y2="65.4035">
			<stop offset="0" style="stop-color:#E05B9C"/>
			<stop offset="0.9946" style="stop-color:#E00C19"/>
		</linearGradient>
		<path class="st5" d="M61,20.2c-1.1,0-2.2,0.4-3,1.3c-0.8,0.8-1.3,1.9-1.3,3c0,1.1,0.4,2.2,1.3,3c0.8,0.8,1.9,1.3,3,1.3    c1.1,0,2.2-0.4,3-1.3c0.8-0.8,1.3-1.9,1.3-3c0-1.1-0.4-2.2-1.3-3S62.1,20.2,61,20.2z"/>
		<linearGradient id="SVGID_6_" gradientUnits="userSpaceOnUse" x1="81.7833" y1="3.7286" x2="20.1042" y2="65.4077">
			<stop offset="0" style="stop-color:#E05B9C"/>
			<stop offset="0.9946" style="stop-color:#E00C19"/>
		</linearGradient>
		<path class="st6" d="M33.5,45.9c-1.7,1.7-1.7,4.4,0,6.1c0.8,0.8,1.9,1.3,3,1.3c1.1,0,2.2-0.4,3-1.3c1.7-1.7,1.7-4.4,0-6.1    C37.9,44.3,35.2,44.3,33.5,45.9z"/>
		<linearGradient id="SVGID_7_" gradientUnits="userSpaceOnUse" x1="81.7787" y1="3.7239" x2="20.0996" y2="65.4031">
			<stop offset="0" style="stop-color:#E05B9C"/>
			<stop offset="0.9946" style="stop-color:#E00C19"/>
		</linearGradient>
		<path class="st7" d="M73.2,15.6c0.9,0,1.7-0.3,2.4-1c1.3-1.3,1.3-3.4,0-4.7c-1.3-1.3-3.5-1.3-4.7,0c-1.3,1.3-1.3,3.4,0,4.7    C71.5,15.3,72.3,15.6,73.2,15.6z"/>
		<linearGradient id="SVGID_8_" gradientUnits="userSpaceOnUse" x1="69.5587" y1="-8.496" x2="7.8796" y2="53.1831">
			<stop offset="0" style="stop-color:#E05B9C"/>
			<stop offset="0.9946" style="stop-color:#E00C19"/>
		</linearGradient>
		<path class="st8" d="M24.3,40.1c0.9,0,1.7-0.3,2.4-1c1.3-1.3,1.3-3.4,0-4.7c-1.3-1.3-3.4-1.3-4.7,0c-1.3,1.3-1.3,3.4,0,4.7    C22.6,39.8,23.5,40.1,24.3,40.1z"/>
		<linearGradient id="SVGID_9_" gradientUnits="userSpaceOnUse" x1="75.6721" y1="-2.3827" x2="13.993" y2="59.2965">
			<stop offset="0" style="stop-color:#E05B9C"/>
			<stop offset="0.9946" style="stop-color:#E00C19"/>
		</linearGradient>
		<path class="st9" d="M22,46.6c-0.6,0.6-1,1.5-1,2.4c0,0.9,0.3,1.7,1,2.4c0.6,0.6,1.5,1,2.4,1c0.9,0,1.7-0.3,2.4-1    c0.6-0.6,1-1.5,1-2.4c0-0.9-0.3-1.7-1-2.4C25.4,45.3,23.2,45.3,22,46.6z"/>
		<linearGradient id="SVGID_10_" gradientUnits="userSpaceOnUse" x1="69.5608" y1="-8.4939" x2="7.8817" y2="53.1852">
			<stop offset="0" style="stop-color:#E05B9C"/>
			<stop offset="0.9946" style="stop-color:#E00C19"/>
		</linearGradient>
		<path class="st10" d="M9.7,46.6c-0.6,0.6-1,1.5-1,2.4c0,0.9,0.3,1.7,1,2.4s1.5,1,2.4,1c0.9,0,1.7-0.3,2.4-1c0.6-0.6,1-1.5,1-2.4    c0-0.9-0.3-1.7-1-2.4C13.2,45.3,11,45.3,9.7,46.6z"/>
		<linearGradient id="SVGID_11_" gradientUnits="userSpaceOnUse" x1="106.2322" y1="28.1774" x2="44.5531" y2="89.8566">
			<stop offset="0" style="stop-color:#E05B9C"/>
			<stop offset="0.9946" style="stop-color:#E00C19"/>
		</linearGradient>
		<path class="st11" d="M58.6,71.1c-0.6,0.6-1,1.5-1,2.4c0,0.9,0.3,1.7,1,2.4c0.6,0.6,1.5,1,2.4,1c0.9,0,1.7-0.3,2.4-1c0,0,0,0,0,0    s0,0,0,0c0.6-0.6,1-1.5,1-2.4c0-0.9-0.3-1.7-1-2.4C62.1,69.8,59.9,69.8,58.6,71.1z"/>
		<linearGradient id="SVGID_12_" gradientUnits="userSpaceOnUse" x1="100.429" y1="22.3742" x2="38.7498" y2="84.0533">
			<stop offset="0" style="stop-color:#E05B9C"/>
			<stop offset="0.9946" style="stop-color:#E00C19"/>
		</linearGradient>
		<path class="st12" d="M48.8,77.4c0.9,0,1.7-0.3,2.4-1c1.3-1.3,1.3-3.4,0-4.7c-1.3-1.3-3.4-1.3-4.7,0c-1.3,1.3-1.3,3.4,0,4.7    C47,77,47.9,77.4,48.8,77.4z"/>
		<linearGradient id="SVGID_13_" gradientUnits="userSpaceOnUse" x1="106.2342" y1="28.1794" x2="44.555" y2="89.8586">
			<stop offset="0" style="stop-color:#E05B9C"/>
			<stop offset="0.9946" style="stop-color:#E00C19"/>
		</linearGradient>
		<path class="st13" d="M46.4,83.3c-1.3,1.3-1.3,3.4,0,4.7c0.7,0.7,1.5,1,2.4,1c0.9,0,1.7-0.3,2.4-1c1.3-1.3,1.3-3.4,0-4.7    C49.8,82,47.7,82,46.4,83.3z"/>
		<linearGradient id="SVGID_14_" gradientUnits="userSpaceOnUse" x1="94.0018" y1="15.947" x2="32.3226" y2="77.6262">
			<stop offset="0" style="stop-color:#E05B9C"/>
			<stop offset="0.9946" style="stop-color:#E00C19"/>
		</linearGradient>
		<path class="st14" d="M83.1,22.2c-0.6,0.6-1,1.5-1,2.4c0,0.9,0.3,1.7,1,2.4c0.6,0.6,1.5,1,2.4,1s1.7-0.3,2.4-1c0,0,0,0,0,0    s0,0,0,0c0.6-0.6,1-1.5,1-2.4s-0.3-1.7-1-2.4C86.5,20.9,84.3,20.9,83.1,22.2z"/>
		<linearGradient id="SVGID_15_" gradientUnits="userSpaceOnUse" x1="94.0038" y1="15.949" x2="32.3246" y2="77.6281">
			<stop offset="0" style="stop-color:#E05B9C"/>
			<stop offset="0.9946" style="stop-color:#E00C19"/>
		</linearGradient>
		<path class="st15" d="M70.2,33.7c-1.7,1.7-1.7,4.4,0,6.1c0.8,0.8,1.9,1.3,3,1.3c1.1,0,2.2-0.4,3-1.3c1.7-1.7,1.7-4.4,0-6.1    C74.6,32,71.8,32,70.2,33.7z"/>
		<linearGradient id="SVGID_16_" gradientUnits="userSpaceOnUse" x1="81.7813" y1="3.7265" x2="20.1021" y2="65.4056">
			<stop offset="0" style="stop-color:#E05B9C"/>
			<stop offset="0.9946" style="stop-color:#E00C19"/>
		</linearGradient>
		<path class="st16" d="M48.8,41c1.1,0,2.2-0.4,3-1.3c1.7-1.7,1.7-4.4,0-6.1c-1.7-1.7-4.4-1.7-6.1,0c-1.7,1.7-1.7,4.4,0,6.1    C46.6,40.6,47.7,41,48.8,41z"/>
		<linearGradient id="SVGID_17_" gradientUnits="userSpaceOnUse" x1="94.0059" y1="15.9511" x2="32.3267" y2="77.6302">
			<stop offset="0" style="stop-color:#E05B9C"/>
			<stop offset="0.9946" style="stop-color:#E00C19"/>
		</linearGradient>
		<path class="st17" d="M58,45.9c-1.7,1.7-1.7,4.4,0,6.1c0.8,0.8,1.9,1.3,3,1.3c1.1,0,2.2-0.4,3-1.3c1.7-1.7,1.7-4.4,0-6.1    C62.3,44.3,59.6,44.3,58,45.9z"/>
		<linearGradient id="SVGID_18_" gradientUnits="userSpaceOnUse" x1="94.0075" y1="15.9527" x2="32.3283" y2="77.6319">
			<stop offset="0" style="stop-color:#E05B9C"/>
			<stop offset="0.9946" style="stop-color:#E00C19"/>
		</linearGradient>
		<path class="st18" d="M48.8,56.9c-1.1,0-2.2,0.4-3,1.3s-1.3,1.9-1.3,3c0,1.1,0.4,2.2,1.3,3c0.8,0.8,1.9,1.3,3,1.3    c1.1,0,2.2-0.4,3-1.3c0.8-0.8,1.3-1.9,1.3-3c0-1.1-0.4-2.2-1.3-3C51,57.4,49.9,56.9,48.8,56.9z"/>
		<linearGradient id="SVGID_19_" gradientUnits="userSpaceOnUse" x1="75.666" y1="-2.3887" x2="13.9869" y2="59.2904">
			<stop offset="0" style="stop-color:#E05B9C"/>
			<stop offset="0.9946" style="stop-color:#E00C19"/>
		</linearGradient>
		<path class="st19" d="M61,14.7c0.6,0,1.2-0.2,1.7-0.7c0.9-0.9,0.9-2.4,0-3.4c-0.9-0.9-2.4-0.9-3.4,0c-0.9,0.9-0.9,2.4,0,3.4    C59.8,14.4,60.4,14.7,61,14.7z"/>
		<linearGradient id="SVGID_20_" gradientUnits="userSpaceOnUse" x1="75.6679" y1="-2.3869" x2="13.9888" y2="59.2923">
			<stop offset="0" style="stop-color:#E05B9C"/>
			<stop offset="0.9946" style="stop-color:#E00C19"/>
		</linearGradient>
		<path class="st20" d="M48.8,26.9c0.6,0,1.2-0.2,1.7-0.7c0.9-0.9,0.9-2.4,0-3.4c-0.9-0.9-2.4-0.9-3.4,0c-0.9,0.9-0.9,2.4,0,3.4    C47.5,26.7,48.2,26.9,48.8,26.9z"/>
		<linearGradient id="SVGID_21_" gradientUnits="userSpaceOnUse" x1="75.67" y1="-2.3848" x2="13.9909" y2="59.2944">
			<stop offset="0" style="stop-color:#E05B9C"/>
			<stop offset="0.9946" style="stop-color:#E00C19"/>
		</linearGradient>
		<path class="st21" d="M36.5,40.6c1,0,2-0.4,2.7-1.1c1.5-1.5,1.5-3.9,0-5.4s-3.9-1.5-5.4,0c-1.5,1.5-1.5,3.9,0,5.4    C34.6,40.2,35.6,40.6,36.5,40.6z"/>
		<linearGradient id="SVGID_22_" gradientUnits="userSpaceOnUse" x1="100.1192" y1="22.0644" x2="38.4401" y2="83.7436">
			<stop offset="0" style="stop-color:#E05B9C"/>
			<stop offset="0.9946" style="stop-color:#E00C19"/>
		</linearGradient>
		<path class="st22" d="M58.3,58.5c-1.5,1.5-1.5,3.9,0,5.4C59,64.6,60,65,61,65c1,0,2-0.4,2.7-1.1h0c1.5-1.5,1.5-3.9,0-5.4    C62.2,57.1,59.7,57.1,58.3,58.5z"/>
		<linearGradient id="SVGID_23_" gradientUnits="userSpaceOnUse" x1="100.115" y1="22.0603" x2="38.4359" y2="83.7394">
			<stop offset="0" style="stop-color:#E05B9C"/>
			<stop offset="0.9946" style="stop-color:#E00C19"/>
		</linearGradient>
		<path class="st23" d="M83.7,35.1c-0.9,0.9-0.9,2.4,0,3.4c0.5,0.5,1.1,0.7,1.7,0.7s1.2-0.2,1.7-0.7l0,0c0.9-0.9,0.9-2.4,0-3.4    C86.2,34.1,84.7,34.1,83.7,35.1z"/>
		<linearGradient id="SVGID_24_" gradientUnits="userSpaceOnUse" x1="100.4748" y1="22.4201" x2="38.7957" y2="84.0992">
			<stop offset="0" style="stop-color:#E05B9C"/>
			<stop offset="0.9946" style="stop-color:#E00C19"/>
		</linearGradient>
		<path class="st24" d="M71.5,48c-0.9,0.9-0.9,2.4,0,3.4c0.5,0.5,1.1,0.7,1.7,0.7c0.6,0,1.2-0.2,1.7-0.7c0.9-0.9,0.9-2.4,0-3.4    C74,47.1,72.5,47.1,71.5,48z"/>
		<linearGradient id="SVGID_25_" gradientUnits="userSpaceOnUse" x1="87.8885" y1="9.8338" x2="26.2094" y2="71.5129">
			<stop offset="0" style="stop-color:#E05B9C"/>
			<stop offset="0.9946" style="stop-color:#E00C19"/>
		</linearGradient>
		<path class="st25" d="M85.4,16.1c1,0,2-0.4,2.7-1.1h0c0.7-0.7,1.1-1.7,1.1-2.7c0-1-0.4-2-1.1-2.7c-1.4-1.4-4-1.4-5.4,0    c-0.7,0.7-1.1,1.7-1.1,2.7c0,1,0.4,2,1.1,2.7C83.5,15.7,84.4,16.1,85.4,16.1z"/>
	</g>
	<g>
		<path class="st0" d="M140.5,42.8h6.4c-0.8,6.5-5.8,10.9-12.6,10.9c-7.6,0-13.3-5.5-13.3-13.1s5.7-13.1,13.3-13.1    c6.8,0,11.8,4.4,12.6,10.9h-6.4c-0.7-3.1-2.9-5.1-6.2-5.1c-4.1,0-6.9,3.1-6.9,7.2s2.8,7.2,6.9,7.2C137.7,47.9,139.9,46,140.5,42.8    z"/>
		<path class="st0" d="M156.5,53.2h-6V27h6V53.2z"/>
		<path class="st0" d="M179,44.3c0,5.5-4,9.5-9.7,9.5c-5.7,0-9.7-4.1-9.7-9.5c0-5.4,4.1-9.3,9.7-9.3C175,34.9,179,38.9,179,44.3z     M173.4,44.3c0-2.3-1.6-4.2-4-4.2c-2.5,0-4.1,1.9-4.1,4.2c0,2.4,1.6,4.3,4.1,4.3C171.7,48.6,173.4,46.7,173.4,44.3z"/>
		<path class="st0" d="M200.4,53.2h-6v-1.2c-1.4,1.1-3,1.7-4.9,1.7c-4.5,0-7.6-3.1-7.6-8.2V35.3h6v9.3c0,2.5,1.3,3.8,3.3,3.8    c1.1,0,2.3-0.6,3.3-1.8V35.3h6V53.2z"/>
		<path class="st0" d="M223.4,53.2h-6v-0.9c-1.3,0.8-2.9,1.4-4.9,1.4c-4.8,0-8.9-4-8.9-9.4c0-5.3,4.1-9.3,8.9-9.3    c2,0,3.6,0.5,4.9,1.4V27h6V53.2z M217.4,47.1v-5.6c-1.1-1.3-2.4-1.7-3.7-1.7c-2.4,0-4.2,2-4.2,4.4c0,2.5,1.8,4.5,4.2,4.5    C215,48.8,216.2,48.4,217.4,47.1z"/>
		<path class="st0" d="M247.2,44.3c0,5.4-4.1,9.4-8.9,9.4c-2,0-3.5-0.5-4.9-1.3v0.9h-6V27h6v9.3c1.3-0.8,2.9-1.3,4.9-1.3    C243.1,35,247.2,39,247.2,44.3z M241.3,44.3c0-2.4-1.8-4.4-4.2-4.4c-1.3,0-2.6,0.4-3.7,1.7v5.6c1.1,1.3,2.4,1.6,3.7,1.6    C239.6,48.8,241.3,46.8,241.3,44.3z"/>
		<path class="st0" d="M269,44.3c0,5.5-4,9.5-9.7,9.5c-5.7,0-9.7-4.1-9.7-9.5c0-5.4,4.1-9.3,9.7-9.3C265,34.9,269,38.9,269,44.3z     M263.4,44.3c0-2.3-1.6-4.2-4-4.2c-2.5,0-4.1,1.9-4.1,4.2c0,2.4,1.6,4.3,4.1,4.3C261.8,48.6,263.4,46.7,263.4,44.3z"/>
		<path class="st0" d="M290.9,44.3c0,5.5-4,9.5-9.7,9.5c-5.7,0-9.7-4.1-9.7-9.5c0-5.4,4.1-9.3,9.7-9.3    C286.9,34.9,290.9,38.9,290.9,44.3z M285.3,44.3c0-2.3-1.6-4.2-4-4.2c-2.5,0-4.1,1.9-4.1,4.2c0,2.4,1.6,4.3,4.1,4.3    C283.6,48.6,285.3,46.7,285.3,44.3z"/>
		<path class="st0" d="M298.2,47.1c0.3,1.5,1.5,2.3,3.4,2.3c1.6,0,2.6-0.5,2.6-1.3c0-0.6-0.6-1.1-1.7-1.3l-3.6-0.6    c-3.1-0.5-5.3-2.3-5.3-5.4c0-3.8,3.2-6,8-6c3.8,0,8.1,1.5,8.4,6.2h-5.4c-0.1-1.4-1.4-2-3-2c-1.5,0-2.3,0.6-2.3,1.3    c0,0.6,0.4,1.1,1.9,1.4l3.3,0.6c3.4,0.6,5.6,2.3,5.6,5.4c0,4.1-3.7,6.1-8.4,6.1c-4.6,0-8.4-2-8.8-6.7L298.2,47.1z"/>
		<path class="st0" d="M327.7,52.9c-2.3,0.7-3.7,0.9-5.4,0.9c-4.3,0-7.2-3.2-7.2-8v-5.3h-3.5v-5.1h3.5v-6.1h6v6.1h6.1v5.1H321v5.1    c0,1.8,1,2.7,2.8,2.7c0.8,0,1.8-0.2,3.2-0.4L327.7,52.9z"/>
		<path class="st0" d="M342.8,40.7c-2.9,0.1-4.8,0.9-6.2,2.3v10.3h-6V35.3h6v1.9c1.6-1.4,3.5-2.2,6.2-2.2V40.7z"/>
	</g>
</g>
</svg>