<svg id="图层_1" data-name="图层 1" xmlns="http://www.w3.org/2000/svg" viewBox="0 0 800 230.26"><defs><style>.cls-1{fill:#3cbce4;}</style></defs><path class="cls-1" d="M298.36,262.6a2.4,2.4,0,0,1-2.38-2.38V72.32a2.37,2.37,0,1,1,4.74,0v187.9A2.38,2.38,0,0,1,298.36,262.6Z" transform="translate(0.32 -51.15)"/><path class="cls-1" d="M20,258.77c-3,0-5.18.61-6.51,1.85s-2,3.16-2,5.86a11,11,0,0,0,3.88,8.64,14.82,14.82,0,0,0,10.08,3.41,3.49,3.49,0,0,1,1.61.24,1,1,0,0,1,.37.85.93.93,0,0,1-.42.85,2.17,2.17,0,0,1-1.23.28c-5,0-9-1.35-12.13-4A12.87,12.87,0,0,1,9,266.52a11.42,11.42,0,0,1,1-4.68,8.54,8.54,0,0,1,2.63-3.44A7.65,7.65,0,0,1,15.62,257a27.57,27.57,0,0,1,5.67-.42h4.25a1.5,1.5,0,0,1,1,.31,1,1,0,0,1,.35.83,1,1,0,0,1-.35.8,1.71,1.71,0,0,1-1,.27Z" transform="translate(0.32 -51.15)"/><path class="cls-1" d="M25.77,281.38c-5.09,0-9.29-1.41-12.54-4.19a13.51,13.51,0,0,1-4.92-10.67,12.1,12.1,0,0,1,1-4.94,9.14,9.14,0,0,1,2.83-3.68,8.13,8.13,0,0,1,3.33-1.53,28.93,28.93,0,0,1,5.8-.44h4.25a2.16,2.16,0,0,1,1.42.46,1.66,1.66,0,0,1,.58,1.31,1.58,1.58,0,0,1-.61,1.29,2.23,2.23,0,0,1-1.39.41H20c-2.83,0-4.88.56-6.09,1.68s-1.81,2.91-1.81,5.4a10.41,10.41,0,0,0,3.69,8.16,14.2,14.2,0,0,0,9.65,3.27,3.44,3.44,0,0,1,2,.35,1.75,1.75,0,0,1-.07,2.74A2.69,2.69,0,0,1,25.77,281.38Zm-4.48-24.19a27.45,27.45,0,0,0-5.53.4,6.86,6.86,0,0,0-2.83,1.3,7.82,7.82,0,0,0-2.46,3.2,10.93,10.93,0,0,0-.9,4.43A12.37,12.37,0,0,0,14,276.25c3,2.58,7,3.88,11.73,3.88a1.73,1.73,0,0,0,.88-.16c.06,0,.13-.1.13-.35,0-.05,0-.26-.07-.32a2.83,2.83,0,0,0-1.27-.15A15.44,15.44,0,0,1,15,275.59a11.66,11.66,0,0,1-4.12-9.11c0-2.86.76-5,2.23-6.32s3.77-2,6.93-2h5.54a1.06,1.06,0,0,0,.63-.15.34.34,0,0,0,.12-.3.43.43,0,0,0-.15-.37,1,1,0,0,0-.6-.14Z" transform="translate(0.32 -51.15)"/><path class="cls-1" d="M42.62,279.19a1.67,1.67,0,0,1-.3,1,1.16,1.16,0,0,1-1.64,0,1.59,1.59,0,0,1-.28-1V257.93a1.56,1.56,0,0,1,.28-1,1,1,0,0,1,.81-.36,1,1,0,0,1,.83.37,1.57,1.57,0,0,1,.3,1Z" transform="translate(0.32 -51.15)"/><path class="cls-1" d="M41.49,281.2a1.65,1.65,0,0,1-1.29-.56,2.16,2.16,0,0,1-.43-1.45V257.93a2.23,2.23,0,0,1,.43-1.42,1.73,1.73,0,0,1,2.61,0,2.12,2.12,0,0,1,.44,1.39v21.26a2.18,2.18,0,0,1-.44,1.43A1.68,1.68,0,0,1,41.49,281.2Zm0-24a.39.39,0,0,0-.33.12,1.07,1.07,0,0,0-.14.62v21.26a1.11,1.11,0,0,0,.14.65s.09.1.33.1a.44.44,0,0,0,.37-.14,1.15,1.15,0,0,0,.14-.61V257.93a1,1,0,0,0-.16-.61A.4.4,0,0,0,41.49,257.19Z" transform="translate(0.32 -51.15)"/><path class="cls-1" d="M56.19,271.64A9.42,9.42,0,0,1,58.51,265a8,8,0,0,1,11.8,0,9.54,9.54,0,0,1,2.3,6.62,9.41,9.41,0,0,1-2.29,6.55,8.1,8.1,0,0,1-11.83,0A9.33,9.33,0,0,1,56.19,271.64Zm8.22-7.23a5.45,5.45,0,0,0-4.31,2,7.88,7.88,0,0,0-1.67,5.2,7.8,7.8,0,0,0,1.69,5.18,5.56,5.56,0,0,0,8.56,0,7.66,7.66,0,0,0,1.72-5.16,7.83,7.83,0,0,0-1.69-5.19A5.44,5.44,0,0,0,64.41,264.41Z" transform="translate(0.32 -51.15)"/><path class="cls-1" d="M64.41,281.38A8.19,8.19,0,0,1,58,278.59a9.93,9.93,0,0,1-2.47-6.95,10.08,10.08,0,0,1,2.49-7,8.63,8.63,0,0,1,12.72,0,11.21,11.21,0,0,1,0,14A8.18,8.18,0,0,1,64.41,281.38Zm0-18.32A6.93,6.93,0,0,0,59,265.44a9,9,0,0,0-2.16,6.2A8.59,8.59,0,0,0,59,277.75a7.44,7.44,0,0,0,10.89,0A8.8,8.8,0,0,0,72,271.64a9,9,0,0,0-2.14-6.2A6.85,6.85,0,0,0,64.41,263.06Zm0,16.36a6,6,0,0,1-4.74-2.23,9.49,9.49,0,0,1,0-11.18,6.22,6.22,0,0,1,9.56,0,9.35,9.35,0,0,1,0,11.15A6,6,0,0,1,64.38,279.42Zm0-14.38a4.74,4.74,0,0,0-3.83,1.78,8.18,8.18,0,0,0,0,9.57,4.66,4.66,0,0,0,3.77,1.78,4.78,4.78,0,0,0,3.82-1.8,7,7,0,0,0,1.58-4.76,7.19,7.19,0,0,0-1.55-4.78A4.77,4.77,0,0,0,64.41,265Z" transform="translate(0.32 -51.15)"/><path class="cls-1" d="M98,277.89a7.13,7.13,0,0,1-2.46,2.19,7.27,7.27,0,0,1-3.23.7A6.06,6.06,0,0,1,87.59,279,7.33,7.33,0,0,1,86,273.84V264a1.58,1.58,0,0,1,.3-1.05,1,1,0,0,1,.82-.37,1,1,0,0,1,.82.37,1.64,1.64,0,0,1,.28,1.05v8.81c0,2.18.36,3.71,1.06,4.61a4,4,0,0,0,3.45,1.35,4.53,4.53,0,0,0,4-1.88A10.18,10.18,0,0,0,98,271.18V264a1.58,1.58,0,0,1,.3-1.05,1,1,0,0,1,.83-.37.94.94,0,0,1,.8.37,1.64,1.64,0,0,1,.28,1.05v15.12a1.66,1.66,0,0,1-.28,1,.93.93,0,0,1-.8.36,1,1,0,0,1-.83-.36,1.66,1.66,0,0,1-.3-1Z" transform="translate(0.32 -51.15)"/><path class="cls-1" d="M92.3,281.41a6.66,6.66,0,0,1-5.17-2,7.88,7.88,0,0,1-1.79-5.59V264a2.1,2.1,0,0,1,.43-1.44,1.74,1.74,0,0,1,2.63,0,2.25,2.25,0,0,1,.4,1.43v8.81c0,2,.3,3.45.91,4.24a3.58,3.58,0,0,0,3,1.1,3.91,3.91,0,0,0,3.49-1.61,9.75,9.75,0,0,0,1.19-5.4V264a2.16,2.16,0,0,1,.44-1.44,1.73,1.73,0,0,1,2.63,0,2.19,2.19,0,0,1,.39,1.41v15.12a2.14,2.14,0,0,1-.42,1.43,1.46,1.46,0,0,1-1.28.61,1.65,1.65,0,0,1-1.31-.58,2.1,2.1,0,0,1-.43-1.09,7.13,7.13,0,0,1-1.56,1.1A7.75,7.75,0,0,1,92.3,281.41Zm-5.23-18.16a.4.4,0,0,0-.35.16c-.06.06-.13.23-.13.63v9.8a6.72,6.72,0,0,0,1.46,4.75,5.43,5.43,0,0,0,4.25,1.57,5.94,5.94,0,0,0,5.18-2.64L98.62,276v3.19a1.1,1.1,0,0,0,.16.67.43.43,0,0,0,.34.11c.22,0,.27-.07.29-.1a1,1,0,0,0,.16-.68V264a1,1,0,0,0-.14-.65c0-.07-.1-.14-.31-.14a.4.4,0,0,0-.36.16,1,1,0,0,0-.14.63v7.14c0,2.72-.47,4.73-1.43,6.11a5.11,5.11,0,0,1-4.51,2.15,4.69,4.69,0,0,1-4-1.6c-.8-1-1.18-2.66-1.18-5V264a1,1,0,0,0-.15-.65A.34.34,0,0,0,87.07,263.25Z" transform="translate(0.32 -51.15)"/><path class="cls-1" d="M127.35,280.47h-3a25.27,25.27,0,0,1-4.6-.32,7,7,0,0,1-5-3.85,8.64,8.64,0,0,1-.8-3.76,9.05,9.05,0,0,1,3.23-7.32c2.17-1.79,5.11-2.69,8.86-2.69h1.33v-4.61a1.56,1.56,0,0,1,.27-1,1,1,0,0,1,.8-.36,1.08,1.08,0,0,1,.87.34,1.67,1.67,0,0,1,.27,1V279a1.32,1.32,0,0,1-.46,1.16A4.24,4.24,0,0,1,127.35,280.47Zm0-15.84a4.07,4.07,0,0,1-.44,0c-.62,0-1-.05-1.25-.05a10.08,10.08,0,0,0-6.79,2.16,7.23,7.23,0,0,0-2.5,5.75,5.74,5.74,0,0,0,1.59,4.38,6.48,6.48,0,0,0,4.59,1.52h4.8Z" transform="translate(0.32 -51.15)"/><path class="cls-1" d="M127.35,281.09h-3a25,25,0,0,1-4.71-.34,7.57,7.57,0,0,1-2.88-1.18,7.79,7.79,0,0,1-2.57-3,9.13,9.13,0,0,1-.86-4,9.7,9.7,0,0,1,3.45-7.8c2.28-1.88,5.39-2.84,9.26-2.84h.72v-4a2.21,2.21,0,0,1,.38-1.39,1.58,1.58,0,0,1,1.3-.61,1.69,1.69,0,0,1,1.36.58,2.28,2.28,0,0,1,.4,1.42V279a1.84,1.84,0,0,1-.76,1.69A4.42,4.42,0,0,1,127.35,281.09Zm-1.29-17.93c-3.57,0-6.42.86-8.46,2.54a8.36,8.36,0,0,0-3,6.84,7.91,7.91,0,0,0,.73,3.48,6.43,6.43,0,0,0,2.16,2.52,6.66,6.66,0,0,0,2.41,1,26.56,26.56,0,0,0,4.47.31h3a3.25,3.25,0,0,0,1.47-.21c.12-.08.15-.42.15-.61v-21.1a1,1,0,0,0-.14-.64c-.06-.08-.24-.1-.37-.1s-.29.08-.31.12a1,1,0,0,0-.12.62v5.28l-.68,0h-1.29ZM128,279h-5.44a7.09,7.09,0,0,1-5-1.68,6.45,6.45,0,0,1-1.79-4.84,7.81,7.81,0,0,1,2.75-6.22,10.56,10.56,0,0,1,7.18-2.32c.23,0,.66,0,1.3.06h1Zm-2.33-13.8a9.46,9.46,0,0,0-6.37,2,6.55,6.55,0,0,0-2.31,5.27,5.16,5.16,0,0,0,1.4,3.93,5.9,5.9,0,0,0,4.17,1.34h4.19V265.23C126.25,265.2,125.9,265.19,125.7,265.19Z" transform="translate(0.32 -51.15)"/><path class="cls-1" d="M148.6,278.28a35.19,35.19,0,0,0,2.34-6,57.78,57.78,0,0,0,1.68-7.22,2.06,2.06,0,0,1,0-.35c.22-1.3.61-2,1.15-2s.91.61,1.11,1.81a2.59,2.59,0,0,0,.08.48,59.86,59.86,0,0,0,1.64,7.19,39.15,39.15,0,0,0,2.38,6.1,19.2,19.2,0,0,0,2.05-5.4,30.67,30.67,0,0,0,.67-6.64c0-.25,0-.56,0-.94s0-.65,0-.79A3.05,3.05,0,0,1,162,263a1,1,0,0,1,.88-.37.93.93,0,0,1,.91.58,7.87,7.87,0,0,1,.23,2.49,31.89,31.89,0,0,1-.63,6.33,27.3,27.3,0,0,1-1.81,5.83,8.19,8.19,0,0,1-1.27,2.22,1.56,1.56,0,0,1-1.16.49c-.86,0-1.72-1-2.58-2.89a57.54,57.54,0,0,1-2.76-9.31,56,56,0,0,1-2.71,9.26c-.85,2-1.72,2.94-2.58,2.94a1.63,1.63,0,0,1-1.1-.39,5.54,5.54,0,0,1-1.05-1.68,27.61,27.61,0,0,1-2-6.06,31.62,31.62,0,0,1-.74-6.74,7,7,0,0,1,.27-2.44,1.06,1.06,0,0,1,1.74-.3,1.51,1.51,0,0,1,.29,1v2.25a29.88,29.88,0,0,0,.68,6.64A19.5,19.5,0,0,0,148.6,278.28Z" transform="translate(0.32 -51.15)"/><path class="cls-1" d="M159.13,281.24c-1.15,0-2.15-1.05-3.15-3.27a48.74,48.74,0,0,1-2.18-6.88,46.61,46.61,0,0,1-2.15,6.83c-1,2.23-2,3.32-3.15,3.32a2.2,2.2,0,0,1-1.51-.57,6,6,0,0,1-1.21-1.88,27.33,27.33,0,0,1-2.07-6.18,32.49,32.49,0,0,1-.75-6.88,7.42,7.42,0,0,1,.32-2.69,1.54,1.54,0,0,1,1.5-1,1.61,1.61,0,0,1,1.31.58,2,2,0,0,1,.4,1.38v2.25a29.75,29.75,0,0,0,.68,6.5,21.16,21.16,0,0,0,1.4,4.14,37.26,37.26,0,0,0,1.78-4.8,57.76,57.76,0,0,0,1.65-7.16c0-.05,0-.18.06-.37.1-.6.41-2.48,1.76-2.48.89,0,1.48.79,1.73,2.35,0,.19,0,.34.06.43a64.6,64.6,0,0,0,1.64,7.16,40.15,40.15,0,0,0,1.81,4.87,20.21,20.21,0,0,0,1.42-4.13,30.35,30.35,0,0,0,.65-6.51v-.94c0-.37,0-.65,0-.79a3.25,3.25,0,0,1,.37-1.83,1.57,1.57,0,0,1,1.39-.65,1.54,1.54,0,0,1,1.48,1,7.93,7.93,0,0,1,.29,2.74,33.3,33.3,0,0,1-.64,6.46,27.08,27.08,0,0,1-1.87,6,8.68,8.68,0,0,1-1.38,2.41A2.28,2.28,0,0,1,159.13,281.24Zm-5.34-15.64.61,2.66a56.28,56.28,0,0,0,2.73,9.2c1,2.27,1.74,2.52,2,2.52a1,1,0,0,0,.73-.32,8,8,0,0,0,1.12-2,25.25,25.25,0,0,0,1.77-5.68,31,31,0,0,0,.63-6.22,7.41,7.41,0,0,0-.19-2.26.31.31,0,0,0-.33-.18c-.28,0-.34.08-.36.1a2.33,2.33,0,0,0-.15,1.12c0,.13,0,.39,0,.76l0,1a31.72,31.72,0,0,1-.69,6.79,19.8,19.8,0,0,1-2.12,5.56l-.58,1-.52-1a39.7,39.7,0,0,1-2.42-6.19,63.68,63.68,0,0,1-1.66-7.27,3.18,3.18,0,0,1-.08-.51c-.17-1-.45-1.26-.49-1.26s-.31.13-.53,1.44c0,.14,0,.24,0,.31a60.14,60.14,0,0,1-1.69,7.35,37.61,37.61,0,0,1-2.39,6.14l-.52,1-.59-1A20.31,20.31,0,0,1,146,273a30.39,30.39,0,0,1-.71-6.77V264c0-.43-.09-.56-.12-.58a.38.38,0,0,0-.68.12,5.81,5.81,0,0,0-.24,2.2,30.65,30.65,0,0,0,.74,6.61,26.27,26.27,0,0,0,2,5.91,5.36,5.36,0,0,0,.91,1.5,1,1,0,0,0,.68.23c.26,0,1-.25,2-2.57a54.76,54.76,0,0,0,2.68-9.15Z" transform="translate(0.32 -51.15)"/><path class="cls-1" d="M180.41,260a2.07,2.07,0,0,1-.25,1.19,1.06,1.06,0,0,1-1.65,0,2.24,2.24,0,0,1-.26-1.18,2,2,0,0,1,.25-1.19,1,1,0,0,1,.84-.36.93.93,0,0,1,.81.39A1.94,1.94,0,0,1,180.41,260Zm-2.16,4.1a1.54,1.54,0,0,1,.28-1,1.1,1.1,0,0,1,1.61,0,1.49,1.49,0,0,1,.27,1v15.07a1.54,1.54,0,0,1-.27,1,1.12,1.12,0,0,1-1.61,0,1.59,1.59,0,0,1-.28-1Z" transform="translate(0.32 -51.15)"/><path class="cls-1" d="M179.34,281.2a1.58,1.58,0,0,1-1.31-.58,2.21,2.21,0,0,1-.42-1.43V264.12a2.13,2.13,0,0,1,.44-1.42,1.52,1.52,0,0,1,.88-.52,1.41,1.41,0,0,1-.93-.64,2.59,2.59,0,0,1-.39-1.52,2.5,2.5,0,0,1,.4-1.58,1.6,1.6,0,0,1,1.33-.6,1.5,1.5,0,0,1,1.32.65A2.6,2.6,0,0,1,181,260a2.81,2.81,0,0,1-.35,1.54,1.48,1.48,0,0,1-.94.62,1.5,1.5,0,0,1,.88.54,2.13,2.13,0,0,1,.41,1.4v15.07a2.19,2.19,0,0,1-.41,1.43A1.58,1.58,0,0,1,179.34,281.2Zm0-17.8a.41.41,0,0,0-.32.1.86.86,0,0,0-.16.62v15.07a1.19,1.19,0,0,0,.15.66.49.49,0,0,0,.33.09c.24,0,.28-.07.31-.1a1.09,1.09,0,0,0,.14-.65V264.12a.9.9,0,0,0-.14-.61S179.56,263.4,179.34,263.4Zm0-4.3c-.26,0-.32.08-.34.11s-.14.22-.14.81a1.61,1.61,0,0,0,.17.83s.09.12.31.12.28-.08.31-.12a1.53,1.53,0,0,0,.14-.83,1.41,1.41,0,0,0-.16-.82S179.56,259.1,179.34,259.1Z" transform="translate(0.32 -51.15)"/><path class="cls-1" d="M194.67,280.47a1.69,1.69,0,0,1-1-.28.9.9,0,0,1-.35-.78.84.84,0,0,1,.35-.74,1.91,1.91,0,0,1,1.05-.24h6.15a7,7,0,0,0,4.14-.94,3.56,3.56,0,0,0,1.21-3,3.16,3.16,0,0,0-.77-2.24,4.11,4.11,0,0,0-2.36-1.16L197.64,270a6.63,6.63,0,0,1-3.12-1.23,2.79,2.79,0,0,1-.83-2.16,3.15,3.15,0,0,1,1.51-2.83,7.75,7.75,0,0,1,4.28-1h6a1.73,1.73,0,0,1,1.05.28.93.93,0,0,1,.36.77.92.92,0,0,1-.37.75,1.87,1.87,0,0,1-1.08.25h-6.75a3.8,3.8,0,0,0-2,.35,1.18,1.18,0,0,0-.54,1.13,1.39,1.39,0,0,0,.34,1,2.21,2.21,0,0,0,1.13.54l5.61,1.1a7.26,7.26,0,0,1,3.91,1.89,4.87,4.87,0,0,1,1.26,3.52,5.37,5.37,0,0,1-2,4.6c-1.34,1-3.38,1.52-6.12,1.52Z" transform="translate(0.32 -51.15)"/><path class="cls-1" d="M200.27,281.09h-5.6a2.36,2.36,0,0,1-1.4-.38,1.55,1.55,0,0,1-.61-1.3,1.44,1.44,0,0,1,.62-1.26,2.56,2.56,0,0,1,1.41-.35h6.15a6.49,6.49,0,0,0,3.75-.8,3,3,0,0,0,1-2.54,2.57,2.57,0,0,0-.6-1.83,3.68,3.68,0,0,0-2-1l-5.41-1.07a7.1,7.1,0,0,1-3.44-1.4,3.37,3.37,0,0,1-1-2.61,3.82,3.82,0,0,1,1.8-3.36,8.35,8.35,0,0,1,4.62-1.09h6a2.26,2.26,0,0,1,1.44.42,1.55,1.55,0,0,1,.6,1.25,1.5,1.5,0,0,1-.61,1.23,2.39,2.39,0,0,1-1.47.39h-6.75a3.29,3.29,0,0,0-1.64.25c-.09.05-.26.16-.26.61a.88.88,0,0,0,.17.58,1.72,1.72,0,0,0,.82.37l5.6,1.09a8,8,0,0,1,4.23,2.07,5.53,5.53,0,0,1,1.45,4,6,6,0,0,1-2.27,5.1C205.31,280.56,203.19,281.09,200.27,281.09Zm-5.58-2a1.32,1.32,0,0,0-.71.13s-.07,0-.07.22.06.26.12.29a1.11,1.11,0,0,0,.64.15h5.6c2.59,0,4.53-.48,5.74-1.4a4.75,4.75,0,0,0,1.77-4.1,4.25,4.25,0,0,0-1.12-3.08,6.5,6.5,0,0,0-3.56-1.7l-5.61-1.11a2.94,2.94,0,0,1-1.46-.73,2,2,0,0,1-.52-1.44,1.81,1.81,0,0,1,.86-1.68,4.37,4.37,0,0,1,2.29-.43h6.75a1.46,1.46,0,0,0,.73-.13.28.28,0,0,0,.09-.24.3.3,0,0,0-.11-.27,1.13,1.13,0,0,0-.67-.14h-6a7.07,7.07,0,0,0-3.94.89,2.54,2.54,0,0,0-1.23,2.3,2.23,2.23,0,0,0,.63,1.71,6,6,0,0,0,2.83,1.06l5.42,1.08a4.94,4.94,0,0,1,2.7,1.35,3.79,3.79,0,0,1,.93,2.67,4.16,4.16,0,0,1-1.47,3.53,7.39,7.39,0,0,1-4.51,1.07Z" transform="translate(0.32 -51.15)"/><path class="cls-1" d="M234.94,278.46a1.85,1.85,0,0,1,1.05.25.84.84,0,0,1,.37.74.9.9,0,0,1-.35.76,1.86,1.86,0,0,1-1.07.26h-3.49a21.09,21.09,0,0,1-4.36-.37,8.54,8.54,0,0,1-2.92-1.18,7.54,7.54,0,0,1-2.64-3.1,9.93,9.93,0,0,1-1-4.39,9.1,9.1,0,0,1,2.35-6.45,7.86,7.86,0,0,1,6-2.54,7.71,7.71,0,0,1,5.52,2.15,6.79,6.79,0,0,1,2.27,5.14v.66a.87.87,0,0,1-.28.69,1.13,1.13,0,0,1-.8.25H223v.1c0,2.52.64,4.32,1.88,5.41s3.39,1.62,6.39,1.62Zm-11.75-9h11.22a5.22,5.22,0,0,0-1.62-3.74,5.7,5.7,0,0,0-4-1.39,5.55,5.55,0,0,0-3.93,1.39A5.22,5.22,0,0,0,223.19,269.41Z" transform="translate(0.32 -51.15)"/><path class="cls-1" d="M234.94,281.09h-3.49a22.18,22.18,0,0,1-4.49-.37,9.33,9.33,0,0,1-3.13-1.28,8.16,8.16,0,0,1-2.87-3.35,10.75,10.75,0,0,1-1-4.66,9.71,9.71,0,0,1,2.52-6.87,8.92,8.92,0,0,1,12.43-.44,7.52,7.52,0,0,1,2.45,5.61v.66a1.47,1.47,0,0,1-.5,1.17,1.75,1.75,0,0,1-1.2.39h-12c.09,2.09.65,3.54,1.65,4.42s3.15,1.47,6,1.47h3.69a2.56,2.56,0,0,1,1.41.35,1.6,1.6,0,0,1,0,2.52A2.37,2.37,0,0,1,234.94,281.09Zm-6-18a7.2,7.2,0,0,0-5.56,2.35,8.56,8.56,0,0,0-2.18,6,9.25,9.25,0,0,0,.9,4.11,7,7,0,0,0,2.43,2.86,7.75,7.75,0,0,0,2.71,1.09,20.12,20.12,0,0,0,4.22.36h3.49c.46,0,.64-.1.69-.15s.1-.09.1-.25a.26.26,0,0,0-.1-.23,1.29,1.29,0,0,0-.69-.13h-3.69c-3.14,0-5.42-.6-6.79-1.77s-2.11-3.19-2.11-5.89v-.62l.63-.11h12.66a.55.55,0,0,0,.38-.09s.07-.05.07-.22v-.66A6.22,6.22,0,0,0,234,265,7.16,7.16,0,0,0,228.93,263.06Zm6.12,7H222.53l0-.66a5.81,5.81,0,0,1,1.87-4.18,6.19,6.19,0,0,1,4.35-1.55,6.28,6.28,0,0,1,4.42,1.56,5.82,5.82,0,0,1,1.81,4.18Zm-11.16-1.25h9.82a4.46,4.46,0,0,0-1.35-2.66,5.09,5.09,0,0,0-3.57-1.23,5,5,0,0,0-3.52,1.23A4.41,4.41,0,0,0,223.89,268.79Z" transform="translate(0.32 -51.15)"/><path class="cls-1" d="M191.2,232.52a56.51,56.51,0,0,1-22.42-5,51.21,51.21,0,0,1-17.71-13.22c-3-3.35-3.49-6.05-3.49-6.88,0-6.15,4.46-10,9.48-10a10.39,10.39,0,0,1,7.76,3.78c4.43,6,15.16,12.21,26.51,12.21,22.41,0,35.62-18.19,35.62-35.35,0-17.76-14.42-35.34-35.37-35.34-15.42,0-24.86,10.48-26.35,11.79-5.19,4.56-65.28,56-66.59,57.08-9.24,7.89-21.76,20.72-44.87,20.72a55.11,55.11,0,0,1-37.4-15.07A52.93,52.93,0,0,1-.32,178.41c0-20.44,9.58-33.26,17.63-40.4a55.54,55.54,0,0,1,36.36-14.1c13.83,0,26.32,4.71,37.78,14.94l1.39,1.43.11.05,0,0a9.18,9.18,0,0,1-6.65,15.51,11.22,11.22,0,0,1-5.88-1.72c-6.91-6.58-15.59-11.46-26.67-11.46-17,0-35.31,13.53-35.31,35.38A35.4,35.4,0,0,0,53.77,213.5c16.39,0,24.3-8.89,36.3-22.31,2.23-2.51,4.53-5.12,7.1-7.88,3.63-3.89,14.32-15,20.7-21.6l3.85-4C142.15,136.45,149,129.61,149,129.61c10-11.42,12.15-26,6.29-39a35.7,35.7,0,0,0-32.59-20.82c-19.92,0-31.76,14.86-34.39,29l-.09,0a9.45,9.45,0,0,1-9,6.74c-5.18,0-9.59-3.87-9.59-9a19.77,19.77,0,0,1,.3-3.28A51.88,51.88,0,0,1,87.83,63.89,54.62,54.62,0,0,1,161.39,67C174,79.63,177.32,95.73,177.32,104c0,11.72-2.08,17-4.46,23.07l4.46-1.43a53.49,53.49,0,0,1,14.46-1.89,55.1,55.1,0,0,1,37.15,14.89,51.48,51.48,0,0,1,12.17,17A55.33,55.33,0,0,1,246,178.1a54.49,54.49,0,0,1-54.77,54.42Z" transform="translate(0.32 -51.15)"/><path class="cls-1" d="M355.24,237.11A5,5,0,0,1,350.1,232v-.16a5,5,0,0,1,5.14-5h7V194.39a18.57,18.57,0,0,1,1.55-7.47,18.84,18.84,0,0,1,10.45-10.28,19.41,19.41,0,0,1,7.48-1.56h78.39a20,20,0,0,1,7.49,1.56,18.5,18.5,0,0,1,10.28,10.28,16.31,16.31,0,0,1,1.71,7.47v32.43h7a5,5,0,0,1,5.13,5V232a5,5,0,0,1-5.13,5.14Zm19-77.77a5.29,5.29,0,0,1-5.15,5.13h-.31a5.08,5.08,0,0,1-5.14-5.13V106.65a5.19,5.19,0,0,1,5.14-5.14h.31a5.42,5.42,0,0,1,5.15,5.14Zm1.08,28.82a8.79,8.79,0,0,0-2.64,6.23v32.43H397V185.67H381.74A9,9,0,0,0,375.34,188.16Zm27-22.58a5.3,5.3,0,0,1-5.15,5.13h-.47a5.29,5.29,0,0,1-5.14-5.13V100.89a5.09,5.09,0,0,1,5.14-5.14h.47a5.1,5.1,0,0,1,5.15,5.14Zm5.29,61.24h25.72V185.67H407.61Zm21-114.09H484.3a5.31,5.31,0,0,1,5.14,5.15V118a5.2,5.2,0,0,1-5.14,5.15H421.17a5.15,5.15,0,0,1-4.37-2,5.34,5.34,0,0,1-.47-4.84l5.46-15.12a5.41,5.41,0,0,1,6.71-3l.15.15a5.32,5.32,0,0,1,3.28,6.72Zm-6.86,45.82a5.17,5.17,0,0,1-5.13-5.13v-.31a5.18,5.18,0,0,1,5.13-5.14h57.36a5.19,5.19,0,0,1,5.15,5.14v.31a5.18,5.18,0,0,1-5.15,5.13Zm47.38,35.84a9,9,0,0,0-9-8.72h-16.2v41.15h25.24Z" transform="translate(0.32 -51.15)"/><path class="cls-1" d="M513.09,126.62a5.07,5.07,0,0,1-5-5.16v-.3a5.07,5.07,0,0,1,5-5.16h14V100.74a5.19,5.19,0,0,1,5.15-5.14h.3a5,5,0,0,1,5,5.14V116h6.72a5.1,5.1,0,0,1,5.13,5.16v.3a5.1,5.1,0,0,1-5.13,5.16h-6.72v42.85l8.11-4.67a5,5,0,0,1,6.86,1.87v.15a5.09,5.09,0,0,1-1.72,7l-13.25,7.65V217a17.86,17.86,0,0,1-1.41,7.64A20.21,20.21,0,0,1,526,234.92a17.46,17.46,0,0,1-7.48,1.73h-2.81a5.2,5.2,0,0,1-5.15-5.15v-.32a5.09,5.09,0,0,1,5.15-5.13h2.81a7.9,7.9,0,0,0,6.08-2.65,8.47,8.47,0,0,0,2.49-6.4V187.4l-12,6.69a5.24,5.24,0,0,1-7-1.87v-.31a4.89,4.89,0,0,1,1.87-6.86l17.15-9.66V126.62Zm46.61,1.24a20.76,20.76,0,0,1,1.56-7.64,20.31,20.31,0,0,1,10.43-10.28,17.67,17.67,0,0,1,7.63-1.57h18.56v-7.63A5.18,5.18,0,0,1,603,95.6h.32a5.15,5.15,0,0,1,5,5.14v7.63h18.39a16.92,16.92,0,0,1,7.48,1.57,18.77,18.77,0,0,1,10.45,10.28,18.27,18.27,0,0,1,1.56,7.64v7.48a5.1,5.1,0,0,1-5.16,5.14h-.14a5.09,5.09,0,0,1-5.15-5.14v-7.48a8.83,8.83,0,0,0-2.64-6.4,8.69,8.69,0,0,0-6.4-2.49H579.32a8.66,8.66,0,0,0-6.38,2.49,8.75,8.75,0,0,0-2.5,6.4v7.48a5.18,5.18,0,0,1-5.14,5.14h-.46a5.29,5.29,0,0,1-5.14-5.14ZM562,153.42c3.58-2.65,7-5.31,10.29-8.27a89.25,89.25,0,0,0,9.2-9.5,5.15,5.15,0,0,1,7-.94l.15.32a4.86,4.86,0,0,1,2.19,3.42,5.5,5.5,0,0,1-1.1,3.9,84.6,84.6,0,0,1-10.28,10.76,125,125,0,0,1-11.23,9,4.08,4.08,0,0,1-3.74,1,5.42,5.42,0,0,1-3.43-2.2l-.3-.45A5,5,0,0,1,562,153.42Zm80.58,72.31a5.1,5.1,0,0,1,5.15,5.15v.47a5.19,5.19,0,0,1-5.15,5.14H566.24a5.3,5.3,0,0,1-5.15-5.14v-.47a5.2,5.2,0,0,1,5.15-5.15h33V185.21H570.14a5.18,5.18,0,0,1-5.14-5.15v-.3a5.29,5.29,0,0,1,5.14-5.15h68.57a5.42,5.42,0,0,1,5.15,5.15v.3a5.3,5.3,0,0,1-5.15,5.15h-29v40.52Zm-26.34-82a5.34,5.34,0,0,1-.16-7.34l.48-.14a4.47,4.47,0,0,1,3.58-1.57,4.93,4.93,0,0,1,3.74,1.41l20.26,19.94a5.66,5.66,0,0,1,.15,7.33l-.31.16a5.16,5.16,0,0,1-7.32,0Z" transform="translate(0.32 -51.15)"/><path class="cls-1" d="M793.6,226.2a5.1,5.1,0,0,1,5.14,5.15v.15a5.1,5.1,0,0,1-5.14,5.15H669.69a5,5,0,0,1-5.13-5.15v-.15a5,5,0,0,1,5.13-5.15h57.68V192.39H675.94a5.15,5.15,0,0,1,0-10.3h51.43v-24H675.62a5.19,5.19,0,0,1-5.14-5.15v-.31a5.06,5.06,0,0,1,5.14-5H789.55a5,5,0,0,1,5.14,5V153a5.1,5.1,0,0,1-5.14,5.15H738v24h51.29a5.15,5.15,0,0,1,0,10.3H738V226.2h35.86V214.35a5.08,5.08,0,0,1,5.14-5.13h.31a5,5,0,0,1,5.15,5.13V226.2ZM665.33,127.86a19.55,19.55,0,0,1,19.48-19.32h42.56v-8a5,5,0,0,1,5.13-5.16h.32a5.19,5.19,0,0,1,5.13,5.16v8h42.4a19.41,19.41,0,0,1,19.33,19.32v3.74a5,5,0,0,1-5,5.14h-.31a5.09,5.09,0,0,1-5.14-5.14v-3.74a9,9,0,0,0-8.89-8.89H684.81a9,9,0,0,0-8.87,8.89v3.74a5.1,5.1,0,0,1-5.15,5.14h-.31a5.1,5.1,0,0,1-5.15-5.14Z" transform="translate(0.32 -51.15)"/></svg>