<svg xmlns="http://www.w3.org/2000/svg" role="img" viewBox="-326.93 -7.43 243.36 238.61"><path fill="none" d="M-399.95-8.45h400v245h-400z" pointer-events="none"/><defs><linearGradient id="a" x1="112.209" x2="350.884" y1="782.913" y2="782.913" gradientTransform="translate(-431.028 -725.082) scale(.97603)" gradientUnits="userSpaceOnUse"><stop offset="0" stop-color="#2478c7"/><stop offset=".257" stop-color="#246bb8"/><stop offset=".752" stop-color="#254b90"/><stop offset="1" stop-color="#26387a"/></linearGradient><linearGradient id="b" x1="111.663" x2="351.434" y1="904.463" y2="904.463" gradientTransform="translate(-431.028 -725.082) scale(.97603)" gradientUnits="userSpaceOnUse"><stop offset="0" stop-color="#57bf42"/><stop offset=".318" stop-color="#4bae3c"/><stop offset=".948" stop-color="#2c812c"/><stop offset="1" stop-color="#297d2b"/></linearGradient></defs><path fill="none" d="M-399.95-8.45h400v245h-400z" pointer-events="none"/><path fill="none" d="M-399.95-8.45h400v245h-400z" pointer-events="none"/><path fill="#fff" d="M-204.886 226.63S-17.761 170.552-117.528-.94c0 0-39.897 23.183-87.358-1.083l-.286-.06c-47.457 24.268-87.36 1.085-87.36 1.085-99.76 171.491 87.36 227.57 87.36 227.57z" class="cls-5"/><path fill="url(#a)" d="M-117.35-1.41s-39.979 23.23-87.537-1.085l-.288-.06c-47.55 24.317-87.535 1.085-87.535 1.085-18.064 31.048-26.704 58.301-28.798 82.15h232.953C-90.659 56.846-99.3 29.614-117.35-1.41z" class="cls-6"/><path fill="url(#b)" d="M-88.066 88.775h-233.929c-2.737 101.948 116.82 137.79 116.82 137.79l.288.058c.001 0 119.61-35.856 116.821-137.848z" class="cls-7"/><path fill="#fff" d="M-265.742 64.526a22.324 22.324 0 0 1-8.974 1.556c-12.084 0-18.307-7.573-18.307-17.532 0-11.93 8.507-18.566 19.085-18.566a20.623 20.623 0 0 1 8.614 1.555l-1.609 6.275a17.143 17.143 0 0 0-6.64-1.296c-6.277 0-11.15 3.787-11.15 11.566 0 7.003 4.146 11.41 11.2 11.41a19.826 19.826 0 0 0 6.59-1.138zm9.064-33.976h7.939v28.32h13.896v6.639h-21.835zm60.419 17.12c0 11.46-6.953 18.412-17.171 18.412-10.375 0-16.44-7.833-16.44-17.788 0-10.48 6.691-18.31 17.016-18.31 10.733-.002 16.595 8.036 16.595 17.687zm-25.261.463c0 6.846 3.217 11.671 8.507 11.671 5.338 0 8.4-5.084 8.4-11.876 0-6.276-3.006-11.67-8.451-11.67-5.345 0-8.456 5.082-8.456 11.875zm42.207-17.583v20.126c0 6.016 2.279 9.075 6.323 9.075 4.153 0 6.437-2.904 6.437-9.075V30.55h7.884v19.605c0 10.79-5.445 15.926-14.578 15.926-8.815 0-14.004-4.875-14.004-16.026V30.55zm31.366.468a70.556 70.556 0 0 1 10.686-.725c6.637 0 10.94 1.193 14.312 3.734 3.637 2.697 5.913 7.006 5.913 13.177 0 6.688-2.437 11.306-5.806 14.16-3.687 3.06-9.286 4.51-16.13 4.51a68.636 68.636 0 0 1-8.974-.516zm7.932 28.529a14.739 14.739 0 0 0 2.753.154c7.156.05 11.825-3.89 11.825-12.237.05-7.266-4.202-11.103-10.998-11.103a16.225 16.225 0 0 0-3.58.314zm-77.045 59.608c-2.057 0-4.234 0-7.14.24-16.338 1.33-23.598 9.68-25.654 18.875h.363c3.87-3.994 9.317-6.292 16.699-6.292 13.19 0 24.322 9.318 24.322 25.655 0 15.612-11.978 28.435-29.042 28.435-20.932 0-31.22-15.61-31.22-34.365 0-14.761 5.446-27.104 13.917-34.97 7.867-7.142 18.032-11.011 30.373-11.616a52.417 52.417 0 0 1 7.381-.12v14.158zm-20.573 53.361c6.413 0 10.529-5.927 10.529-13.915 0-7.261-3.874-13.552-11.74-13.552a11.99 11.99 0 0 0-10.888 7.02 10.629 10.629 0 0 0-.725 4.596c.361 8.35 4.354 15.853 12.704 15.853zm87.716-53.361c-2.055 0-4.233 0-7.139.24-16.337 1.33-23.596 9.68-25.654 18.875h.363c3.87-3.994 9.317-6.292 16.699-6.292 13.19 0 24.32 9.318 24.32 25.655 0 15.612-11.977 28.435-29.039 28.435-20.933 0-31.22-15.61-31.22-34.365 0-14.761 5.444-27.104 13.917-34.97 7.865-7.142 18.03-11.011 30.372-11.616a52.417 52.417 0 0 1 7.381-.12zm-20.572 53.361c6.413 0 10.53-5.927 10.53-13.915 0-7.261-3.875-13.552-11.74-13.552a11.99 11.99 0 0 0-10.888 7.02 10.611 10.611 0 0 0-.725 4.596c.361 8.35 4.355 15.853 12.703 15.853z" class="cls-5"/></svg>