
<svg xmlns="http://www.w3.org/2000/svg" version="1.1" xmlns:xlink="http://www.w3.org/1999/xlink" preserveAspectRatio="none" x="0px" y="0px" width="600px" height="90px" viewBox="0 0 600 90">
<defs/>

<g id="Layer_1">
<g transform="matrix( 0.2236175537109375, 0, 0, 0.2236175537109375, -1,-49.65) ">
<g>
<g>
<path fill="#E1593B" stroke="none" d="
M 517.35 430.45
L 516.5 471.85
Q 513.45 516.45 500.95 538.35 488.3 560.3 464.85 575.2 454.6 582.3 443 586.15 468.8 590.05 491.5 576 512.65 562.6 522.05 544.6 531.5 525.2 533 496.15 535.4 461.75 517.35 430.45
M 122.05 372.4
Q 136.3 366.9 146.2 365.45 122.05 356.85 96.9 367.8 73.45 377.1 61.75 394.35 47.65 414.65 42.15 439.75 37.45 476.5 49.1 507.1 49.9 492.35 55.35 467.1 68.05 420.15 80.5 404.6 97.85 383.3 122.05 372.4
M 480.5 340.3
Q 464.15 314.5 446.1 310.6 429.65 305.85 415.5 331.7 410.8 338.85 389 399.05 368.65 452.85 346.65 491.4 314.55 546.95 273 585.45 266.05 590.1 313 592.4 360.7 594.05 374.85 586.15 407.7 571.3 453.85 472.65
L 493.05 377.1
Q 496.9 364.55 480.5 340.3
M 372.45 289.45
Q 365.6 280.05 349.8 271.4 320.05 251.8 282.45 254.2 264.4 254.2 244.95 280.85 236.35 292.55 205.8 346.55 174.45 402.8 153.3 434.35 116.45 486.75 73.4 525.15 70.35 528.25 79.7 538.35 88.75 549 101.6 559.6 136.1 587 151.75 580.7 169.65 572.15 198.7 529.75 215.95 504.75 255.1 439.75 289.1 385.7 316.1 346.55 348.3 302.8 372.45 289.45
M 976.9 586.95
L 976.9 320.75 943.2 320.75 943.2 586.95 976.9 586.95
M 1178.05 564.2
Q 1205.55 536 1205.55 496.15 1205.55 457 1178.05 430.45 1151.5 401.4 1111.5 401.4 1072.35 401.4 1044.15 430.45 1016.8 457.8 1016.8 496.15 1016.8 534.55 1044.15 564.2 1073.15 591.7 1111.5 591.7 1150.7 591.7 1178.05 564.2
M 1171.1 496.15
Q 1171.1 520.45 1153.05 538.35 1135.8 555.6 1111.5 555.6 1088.9 555.6 1069.3 538.35 1052.75 521.1 1052.75 496.15 1052.75 472.75 1069.3 454.6 1088.1 437.4 1111.5 437.4 1135.8 437.4 1153.05 454.6 1171.1 472.65 1171.1 496.15
M 731.1 382.65
Q 760 352.8 801.5 352.8 841.55 352.8 875.95 384.2
L 901.8 360.7
Q 854.05 317.65 801.5 317.65 745.9 317.65 705.95 357.55 666.1 398.95 666.1 453.9 666.1 511.05 705.95 549.35 745.95 589.35 801.5 589.35 855.5 589.35 901.8 546.3
L 875.95 524.35
Q 839.8 555.6 801.5 555.6 760.8 555.6 731.1 525.85 700.55 497 700.55 453.9 700.55 412.4 731.1 382.65
M 1354.3 518.1
Q 1354.3 533.75 1344.05 543.9 1331.55 554.9 1318.2 554.9 1304.15 554.9 1291.65 543.9 1280.7 534.45 1280.7 518.1
L 1280.7 415.45 1246.25 415.45 1246.25 520.45
Q 1247.75 549.4 1266.55 569.75 1285.4 588.5 1318.2 588.5 1348.8 588.5 1369.85 569.75 1388.8 550.15 1389.45 520.45
L 1389.45 415.45 1354.3 415.45 1354.3 518.1
M 1529.6 401.4
Q 1489.75 401.4 1463.05 430.45 1434.05 457 1434.05 496.15 1434.05 535.35 1463.05 564.2 1490.4 591.7 1529.6 591.7 1562.5 591.7 1586.8 565.85
L 1586.8 586.95 1621.25 586.95 1621.25 320.75 1586.8 320.75 1586.8 427.25
Q 1562.45 401.4 1529.6 401.4
M 1571.1 454.6
Q 1584.5 469.55 1586.8 484.35
L 1586.8 509.45
Q 1584.5 525.1 1571.1 538.35 1552.35 555.6 1529.6 555.6 1506.1 555.6 1487.35 538.35 1470.15 519.55 1470.15 496.15 1470.15 473.55 1487.35 454.6 1506.15 437.4 1529.6 437.4 1552.3 437.4 1571.1 454.6
M 1806 356
L 1806 320.75 1678.35 320.75 1678.35 586.95 1712.8 586.95 1712.8 471.85 1806 471.85 1806 436.7 1712.8 436.7 1712.8 356 1806 356
M 2361.85 460.15
Q 2372.75 449.25 2392.4 447.65
L 2392.4 411.55
Q 2364.2 413.2 2343.8 439.05
L 2343.8 415.45 2310.15 415.45 2310.15 586.95 2343.8 586.95 2343.8 499.35
Q 2346.1 474.25 2361.85 460.15
M 2466.7 415.45
L 2431.45 415.45 2431.45 586.95 2466.7 586.95 2466.7 415.45
M 1993.1 415.45
L 1993.1 428.05
Q 1968.05 401.4 1934.35 401.4 1894.45 401.4 1867.8 430.45 1840.45 457 1840.45 496.15 1840.45 536.85 1867.8 564.2 1895.15 591.7 1934.35 591.7 1967.25 591.7 1993.1 565.85
L 1993.1 586.95 2027.5 586.95 2027.5 415.45 1993.1 415.45
M 1976.7 454.6
Q 1989.9 468.75 1993.1 484.35
L 1993.1 509.45
Q 1989.9 525.15 1976.7 538.35 1957.8 555.6 1934.35 555.6 1911.75 555.6 1892.9 538.35 1874.9 520.45 1874.9 496.15 1874.9 472.7 1892.9 454.6 1911.75 437.4 1934.35 437.4 1957.75 437.4 1976.7 454.6
M 2112.1 320.75
L 2076.85 320.75 2076.85 586.95 2112.1 586.95 2112.1 565.85
Q 2137.15 591.7 2170.05 591.7 2209.2 591.7 2236.55 564.2 2263.95 535.95 2263.95 496.15 2263.95 457 2236.55 430.45 2210.75 401.4 2170.05 401.4 2137.2 401.4 2112.1 427.25
L 2112.1 320.75
M 2112.1 482.8
Q 2115.15 469.55 2127.7 454.6 2146.55 437.4 2170.05 437.4 2193.45 437.4 2212.25 454.6 2229.5 473.5 2229.5 496.15 2229.5 519.6 2212.25 538.35 2193.5 555.6 2170.05 555.6 2147.3 555.6 2127.7 538.35 2116 525.15 2112.1 511
L 2112.1 482.8
M 2448.65 394.35
Q 2458.95 394.35 2466.7 387.25 2472.95 379.5 2472.95 370.05 2472.95 359.15 2466.7 352.8 2458.95 345.85 2448.65 345.85 2438.5 345.85 2431.45 352.8 2423.65 359.2 2423.65 370.05 2423.65 379.45 2431.45 387.25 2438.5 394.35 2448.65 394.35
M 2644.5 415.45
L 2603.8 415.45 2578.65 458.5 2554.35 415.45 2515.3 415.45 2559.1 493.8 2505.85 586.95 2545.75 586.95 2578.65 529.05 2612.4 586.95 2651.45 586.95 2599.05 493.8 2644.5 415.45 Z"/>
</g>
</g>
</g>

<g transform="matrix( 0.2236175537109375, 0, 0, 0.2236175537109375, -1,-49.65) ">
<g>
<g>
<path fill="#AE5B48" stroke="none" d="
M 489.95 407.65
L 493.85 396.7 476.65 441.3
Q 452.45 499.75 426.5 542.4 420.25 558.85 423.45 569.75 427.3 580.7 434.4 580.7 452.25 572.2 472.75 555.6
L 486.75 543.1
Q 456.2 532.95 475.1 457.8 479.65 432.7 489.95 407.65
M 321.6 352.8
Q 311.8 365.2 294.25 391.25
L 266.75 561.85
Q 264.45 586.05 266.05 580.7 296.45 555.05 330.25 501.55
L 357.6 453.9
Q 355.25 435.75 356.9 403.75 359.15 341.95 375.65 298.9 353.7 310.6 321.6 352.8
M 149.4 369.35
Q 148.55 368.5 132.9 373.2 118.75 379.55 100.1 392.8 102.5 392.8 110.25 399.9 117.25 406.75 118.85 415.45 122 430.45 107.85 459.35 101.65 475.05 85.2 502.4
L 108.7 476.55
Q 136.05 445.3 157.2 411.55
L 160.35 385.7
Q 160.35 374 149.4 369.35 Z"/>
</g>
</g>
</g>
</g>
</svg>
