<?xml version="1.0" encoding="UTF-8" standalone="no"?>
<!-- Generator: Adobe Illustrator 24.0.1, SVG Export Plug-In . SVG Version: 6.00 Build 0)  -->

<svg
   version="1.1"
   id="Layer_1"
   x="0px"
   y="0px"
   viewBox="0 0 341 229.5"
   style="enable-background:new 0 0 341 229.5;"
   xml:space="preserve"
   sodipodi:docname="cloudscale.svg"
   xmlns:inkscape="http://www.inkscape.org/namespaces/inkscape"
   xmlns:sodipodi="http://sodipodi.sourceforge.net/DTD/sodipodi-0.dtd"
   xmlns="http://www.w3.org/2000/svg"
   xmlns:svg="http://www.w3.org/2000/svg"><defs
   id="defs39" /><sodipodi:namedview
   id="namedview37"
   pagecolor="#ffffff"
   bordercolor="#666666"
   borderopacity="1.0"
   inkscape:pageshadow="2"
   inkscape:pageopacity="0.0"
   inkscape:pagecheckerboard="0" />
<style
   type="text/css"
   id="style2">
	.st0{fill:#070D21;}
	.st1{fill:#7991BC;}
	.st2{fill:#4FD7FC;}
	.st3{fill:#232A49;}
	.st4{fill:#2CBCDD;}
	.st5{fill:#FFFFFF;}
	.st6{font-family:'Gotham-Book';}
	.st7{font-size:28.3363px;}
	.st8{letter-spacing:-1.02;}
	.st9{font-family:'Gotham-Bold';}
</style>
<g
   id="g34">
	<path
   id="polygon4"
   class="st1"
   style="fill:#7991bc"
   d="m 102.36,109.98 h 12.4 v 2.73 h -9.67 v 10.45 h -2.73 z" />
	<path
   id="polygon6"
   class="st2"
   style="fill:#4fd7fc"
   d="m 120.62,112.71 -15.53,15.52 v -3.37 h -2.73 v 8.03 h 8.81 v -2.73 h -4.15 l 15.53,-15.52 v 4.15 h 2.72 v -8.81 h -8.81 v 2.73 z" />
	<path
   class="st1"
   d="m 114.02,132.89 h -1.14 v -2.73 h 0.74 c 4.26,-1.35 7.58,-4.67 8.93,-8.93 v -0.74 h 2.73 v 1.14 l -0.06,0.19 c -1.6,5.29 -5.71,9.41 -11.01,11.01 z"
   id="path8" />
	<path
   class="st1"
   d="m 104.65,93.67 c -5.17,0 -9.71,2.7 -12.3,6.77 -1.39,-0.63 -2.93,-0.99 -4.56,-0.99 -6.06,0 -11,4.93 -11,10.99 0,0.16 0,0.33 0.01,0.49 -4.95,1.12 -8.65,5.56 -8.65,10.84 0,6.13 4.99,11.12 11.12,11.12 h 21.38 v -2.73 H 79.28 c -4.62,0 -8.39,-3.76 -8.39,-8.39 0,-3.94 2.72,-7.24 6.38,-8.14 0.64,-0.16 1.32,-0.24 2.01,-0.24 h 0.79 c -0.33,-0.85 -0.52,-1.77 -0.54,-2.73 -0.01,-0.07 -0.01,-0.14 -0.01,-0.22 0,-4.56 3.71,-8.27 8.27,-8.27 1.18,0 2.3,0.25 3.31,0.69 0.87,0.38 1.66,0.9 2.34,1.55 0.31,-0.9 0.72,-1.76 1.23,-2.55 2.1,-3.29 5.79,-5.48 9.98,-5.48 6.53,0 11.83,5.31 11.83,11.84 h 2.73 c 0.01,-8.02 -6.53,-14.55 -14.56,-14.55 z"
   id="path10" />
	<g
   id="g32">
		<g
   aria-label="CloudScale"
   transform="matrix(0.9806,0,0,1,127.5228,127.3344)"
   id="text24"><path
     d="m 18.249795,-19.066124 v 2.947086 q -1.411281,-1.314428 -3.016267,-1.964724 -1.591149,-0.650296 -3.38984,-0.650296 -3.5420376,0 -5.4237451,2.172266 -1.8817074,2.158429 -1.8817074,6.253909 0,4.0816452 1.8817074,6.2539104 1.8817075,2.1584291 5.4237451,2.1584291 1.798691,0 3.38984,-0.6502959 1.604986,-0.650296 3.016267,-1.964724 v 2.9194137 q -1.466625,0.99619809 -3.113119,1.49429711 -1.632658,0.49809902 -3.459021,0.49809902 -4.6904326,0 -7.388469,-2.86406933 -2.6980363,-2.8779055 -2.6980363,-7.8450601 0,-4.98099 2.6980363,-7.845059 2.6980364,-2.877906 7.388469,-2.877906 1.854035,0 3.486693,0.498099 1.646494,0.484263 3.085447,1.466625 z"
     style="font-size:28.3363px;font-family:Gotham-Book;letter-spacing:-1.02;fill:#4fd7fc"
     id="path43" /><path
     d="m 21.435964,-21.528947 h 2.54584 V 0 h -2.54584 z"
     style="font-size:28.3363px;font-family:Gotham-Book;letter-spacing:-1.02;fill:#4fd7fc"
     id="path45" /><path
     d="m 34.293557,-13.711559 q -2.047741,0 -3.237644,1.604986 -1.189903,1.591149 -1.189903,4.3722021 0,2.7810529 1.176067,4.3860386 1.189903,1.5911496 3.25148,1.5911496 2.033904,0 3.223807,-1.6049857 1.189903,-1.6049857 1.189903,-4.3722025 0,-2.7533811 -1.189903,-4.3583661 -1.189903,-1.618822 -3.223807,-1.618822 z m 0,-2.158429 q 3.32066,0 5.216203,2.158429 1.895544,2.158429 1.895544,5.9771881 0,3.8049231 -1.895544,5.9771882 -1.895543,2.15842913 -5.216203,2.15842913 -3.334497,0 -5.23004,-2.15842913 -1.881708,-2.1722651 -1.881708,-5.9771882 0,-3.8187591 1.881708,-5.9771881 1.895543,-2.158429 5.23004,-2.158429 z"
     style="font-size:28.3363px;font-family:Gotham-Book;letter-spacing:-1.02;fill:#4fd7fc"
     id="path47" /><path
     d="m 44.342423,-6.1155491 v -9.3808649 h 2.545839 v 9.2840123 q 0,2.1999374 0.857837,3.3068241 0.857838,1.0930506 2.573512,1.0930506 2.061577,0 3.25148,-1.314428 1.203739,-1.3144279 1.203739,-3.5835457 v -8.7859133 h 2.545839 V 0 H 54.77483 v -2.3798064 q -0.927018,1.41128052 -2.158429,2.10308472 -1.217575,0.67796811 -2.836397,0.67796811 -2.670364,0 -4.053973,-1.66033003 -1.383608,-1.6603301 -1.383608,-4.8564655 z m 6.406107,-9.7544389 z"
     style="font-size:28.3363px;font-family:Gotham-Book;letter-spacing:-1.02;fill:#4fd7fc"
     id="path49" /><path
     d="m 71.741738,-13.14428 v -8.384667 h 2.545839 V 0 h -2.545839 v -2.3244621 q -0.802493,1.38360839 -2.033904,2.06157651 -1.217576,0.66413202 -2.93325,0.66413202 -2.808725,0 -4.579744,-2.24144563 -1.757183,-2.2414456 -1.757183,-5.8941717 0,-3.6527261 1.757183,-5.8941721 1.771019,-2.241445 4.579744,-2.241445 1.715674,0 2.93325,0.677968 1.231411,0.664132 2.033904,2.04774 z m -8.675225,5.4099091 q 0,2.808725 1.148395,4.4137108 1.162231,1.5911496 3.1823,1.5911496 2.020068,0 3.182299,-1.5911496 1.162231,-1.6049858 1.162231,-4.4137108 0,-2.8087251 -1.162231,-4.3998751 -1.162231,-1.604985 -3.182299,-1.604985 -2.020069,0 -3.1823,1.604985 -1.148395,1.59115 -1.148395,4.3998751 z"
     style="font-size:28.3363px;font-family:Gotham-Book;letter-spacing:-1.02;fill:#4fd7fc"
     id="path51" /><path
     d="m 91.024349,-19.979305 v 2.725708 q -1.59115,-0.760984 -3.002431,-1.134559 -1.41128,-0.373574 -2.725708,-0.373574 -2.282954,0 -3.528202,0.88551 -1.231411,0.885509 -1.231411,2.518167 0,1.369772 0.816329,2.075412 0.830165,0.691805 3.126955,1.120723 l 1.688002,0.345902 q 3.126955,0.594952 4.607416,2.1030851 1.494297,1.494297 1.494297,4.0124643 0,3.0024302 -2.020068,4.5520716 -2.006232,1.54964143 -5.894172,1.54964143 -1.466625,0 -3.126955,-0.33206601 -1.646494,-0.33206601 -3.417513,-0.98236196 V -3.791087 q 1.701839,0.9546898 3.334497,1.4389527 1.632658,0.484263 3.209971,0.484263 2.393643,0 3.694235,-0.9408537 1.300591,-0.9408537 1.300591,-2.6842003 0,-1.5219693 -0.940853,-2.3798065 -0.927018,-0.8578372 -3.057775,-1.2867558 l -1.701838,-0.332066 q -3.126955,-0.6226234 -4.5244,-1.9508874 -1.397444,-1.328264 -1.397444,-3.694235 0,-2.739544 1.923216,-4.316858 1.937051,-1.577314 5.326892,-1.577314 1.452789,0 2.960922,0.262886 1.508133,0.262886 3.085447,0.788657 z"
     style="font-size:28.3363px;font-family:Gotham-Bold;letter-spacing:-1.02;fill:#7991bc"
     id="path53" /><path
     d="m 106.39225,-14.901462 v 2.379806 q -1.07922,-0.594952 -2.17227,-0.885509 -1.07921,-0.304394 -2.1861,-0.304394 -2.476658,0 -3.84643,1.577313 -1.369773,1.563478 -1.369773,4.3998751 0,2.8363972 1.369773,4.4137108 1.369772,1.5634774 3.84643,1.5634774 1.10689,0 2.1861,-0.2905577 1.09305,-0.3043939 2.17227,-0.8993455 v 2.35213429 q -1.06538,0.49809902 -2.21378,0.74714853 -1.13455,0.24904951 -2.42131,0.24904951 -3.50053,0 -5.562106,-2.19993733 -2.061577,-2.1999374 -2.061577,-5.93568 0,-3.7910871 2.075413,-5.9633521 2.089248,-2.172265 5.7143,-2.172265 1.17607,0 2.29679,0.249049 1.12073,0.235214 2.17227,0.719477 z"
     style="font-size:28.3363px;font-family:Gotham-Bold;fill:#7991bc"
     id="path55" /><path
     d="m 117.95293,-7.7897153 q -3.08545,0 -4.27535,0.7056403 -1.1899,0.7056403 -1.1899,2.4074786 0,1.3559363 0.88551,2.1584291 0.89934,0.7886568 2.43515,0.7886568 2.11692,0 3.38984,-1.4942971 1.28675,-1.5081331 1.28675,-3.9986282 v -0.5672795 z m 5.07784,-1.0515423 V 0 h -2.54584 v -2.3521343 q -0.87167,1.41128059 -2.17226,2.08924871 -1.30059,0.66413202 -3.1823,0.66413202 -2.37981,0 -3.79109,-1.32826405 -1.39744,-1.34210018 -1.39744,-3.58354578 0,-2.6150198 1.74334,-3.9432839 1.75719,-1.328264 5.23004,-1.328264 h 3.56971 v -0.2490497 q 0,-1.757183 -1.16223,-2.711872 -1.14839,-0.968526 -3.23764,-0.968526 -1.32827,0 -2.58735,0.31823 -1.25908,0.31823 -2.42131,0.95469 v -2.352135 q 1.39744,-0.539607 2.71187,-0.802493 1.31443,-0.276721 2.55967,-0.276721 3.36217,0 5.0225,1.743346 1.66033,1.743347 1.66033,5.2853844 z"
     style="font-size:28.3363px;font-family:Gotham-Bold;letter-spacing:-1.02;fill:#7991bc"
     id="path57" /><path
     d="m 125.87036,-21.448947 h 2.54584 V 0.08 h -2.54584 z"
     style="font-size:28.3363px;font-family:Gotham-Bold;letter-spacing:-1.02;fill:#7991bc"
     id="path59" /><path
     d="m 145.78533,-8.3846669 v 1.2452476 h -11.70532 q 0.16603,2.6288559 1.57731,4.0124643 1.42512,1.3697723 3.95712,1.3697723 1.46662,0 2.8364,-0.3597381 1.38361,-0.3597382 2.73954,-1.0792146 v 2.40747862 q -1.36977,0.58111552 -2.80872,0.88550937 -1.43896,0.30439384 -2.91942,0.30439384 -3.70807,0 -5.88033,-2.15842913 -2.15843,-2.1584291 -2.15843,-5.8388274 0,-3.8049229 2.04774,-6.0325329 2.06158,-2.241445 5.54827,-2.241445 3.12695,0 4.93948,2.020068 1.82636,2.006232 1.82636,5.4652531 z m -2.54584,-0.7471485 q -0.0277,-2.0892486 -1.17606,-3.3344966 -1.13456,-1.245247 -3.01627,-1.245247 -2.13076,0 -3.41751,1.203739 -1.27292,1.203739 -1.46663,3.3898407 z"
     style="font-size:28.3363px;font-family:Gotham-Bold;letter-spacing:-1.02;fill:#7991bc"
     id="path61" /></g>
		<g
   id="g30">
			<g
   id="g28">
				<path
   class="st2"
   d="m 270.2,110.72 c -1.48,0 -2.63,-1.21 -2.63,-2.68 0,-1.47 1.17,-2.7 2.64,-2.7 1.48,0 2.63,1.21 2.63,2.68 0,1.47 -1.16,2.7 -2.64,2.7 z m 0.01,-5.15 c -1.37,0 -2.4,1.11 -2.4,2.47 0,1.36 1.03,2.45 2.39,2.45 1.37,0 2.4,-1.11 2.4,-2.47 0,-1.36 -1.03,-2.45 -2.39,-2.45 z m 0.49,2.65 0.84,1.11 h -0.5 l -0.78,-1.04 h -0.69 v 1.04 h -0.4 v -2.76 h 1.21 c 0.6,0 1.02,0.32 1.02,0.83 0,0.46 -0.29,0.72 -0.7,0.82 z m -0.34,-1.28 h -0.79 v 0.98 h 0.77 c 0.38,0 0.64,-0.18 0.64,-0.5 0,-0.3 -0.23,-0.48 -0.62,-0.48 z"
   id="path26" />
			</g>
		</g>
	</g>
</g>
</svg>
