<svg xmlns="http://www.w3.org/2000/svg" role="img" viewBox="-2.58 88.42 407.16 67.91"><title>Cloud Foundry Foundation (member) logo</title><path fill="none" d="M0 0h400v245H0z" pointer-events="none"/><path fill="none" d="M0 0h400v245H0z" pointer-events="none"/><path fill="none" d="M0 0h400v245H0z" pointer-events="none"/><path fill="#393a3a" d="M32.255 123.008a15.533 15.533 0 0 1-11.195 4.377c-10.942 0-15.571-7.533-15.613-15.193-.042-7.7 4.965-15.529 15.613-15.529a15.201 15.201 0 0 1 10.816 4.504l-3.704 3.576a10.12 10.12 0 0 0-7.112-2.777c-7.112 0-10.185 5.303-10.143 10.226.042 4.882 2.862 9.975 10.143 9.975a10.847 10.847 0 0 0 7.407-2.989l3.788 3.83m12.463-25.755v24.323h15.149v5.135H39.163V97.253h5.555m51.349 14.897c-.086 7.617-4.757 15.235-15.11 15.235s-15.15-7.45-15.15-15.193c0-7.743 4.966-15.529 15.15-15.529 10.143 0 15.193 7.786 15.11 15.488m-24.789.126c.127 4.839 2.737 10.015 9.68 10.015s9.553-5.218 9.637-10.058c.085-4.965-2.694-10.521-9.637-10.521s-9.805 5.598-9.68 10.564zm58.927-14.982v16.875c0 8.712-5.345 13.173-12.753 13.173-7.07 0-13.087-4.293-13.087-13.173V97.295h5.513v16.875c0 5.303 3.03 8.122 7.617 8.122 4.588 0 7.196-3.071 7.196-8.122V97.295h5.514m35.569 14.435c.125 7.448-4.42 14.981-14.73 14.981H139.47V97.253h11.572c10.1 0 14.604 7.196 14.73 14.477m-20.79 9.638h6.06c6.692 0 9.344-4.882 9.217-9.681-.127-4.587-2.82-9.174-9.217-9.174h-6.06zm36.548-9.957h16.975v2.148H181.53v13.352h-2.275V97.384h19.839v2.275H181.53v11.752m35.53 16.004s.914-3.457-3.05-7.917l-.133-.138a10.983 10.983 0 0 1 8.414-18.067h.256a10.983 10.983 0 0 1 8.416 18.065l-.132.136a10.505 10.505 0 0 0-3.054 7.921 16.019 16.019 0 0 0-4.444-31.147l-.314-.006c-.128 0-.604.008-.6.008-.015 0-.472-.008-.6-.008l-.314.006a16.019 16.019 0 0 0-4.445 31.147m20.77 12.755a4.954 4.954 0 0 1 .96-.28 6.155 6.155 0 0 1 1.115-.135l-.044-.312a2.78 2.78 0 0 0-.182-.671l-.122-.348c-.049-.11-.112-.21-.156-.297l-.16-.284a9.849 9.849 0 0 1-1.147-.261 9.09 9.09 0 0 1-1.035-.356 4.504 4.504 0 0 1-1.43-.87h-.001a1.047 1.047 0 0 1-.405-.892.769.769 0 0 1 .189-.394 1.268 1.268 0 0 1 .417-.327l-.347-.193c-.105-.058-.22-.124-.355-.194l-.436-.208a12.587 12.587 0 0 0-.827-.37c-.234-.096-.39-.157-.39-.157a7.146 7.146 0 0 1-.9.061c-.324.008-.653 0-.975-.025a9.52 9.52 0 0 1-1.824-.305 4.464 4.464 0 0 1-.743-.258 3.307 3.307 0 0 1-.557-.294c-.294-.212-.493-.428-.49-.646l-.442-.074c-.273-.042-.857-.12-1.226-.169l-.062.222-.095.452a1.783 1.783 0 0 0 1.224 2.087c2.18.634 3.828 1.679 4.304 2.963.961 2.593-3.08 5.13-9.226 5.13-6.145 0-10.188-2.537-9.228-5.13.464-1.253 2.047-2.278 4.15-2.916a1.883 1.883 0 0 0 1.282-2.192l-.131-.616c-.243.027-.528.064-.819.1-.366.041-.714.105-.982.147l-.445.073a.8.8 0 0 1-.42.654 3.697 3.697 0 0 1-.52.308 6.78 6.78 0 0 1-.718.269 7.355 7.355 0 0 1-.876.202 8.366 8.366 0 0 1-.945.125 9.353 9.353 0 0 1-1.902-.008l-.107.045-.276.118c-.219.103-.512.243-.808.385-.29.148-.552.304-.763.419l-.252.143-.087.057a1.07 1.07 0 0 1 .684.722.974.974 0 0 1-.307.918 3.955 3.955 0 0 1-.575.475 5.13 5.13 0 0 1-.825.44 9.03 9.03 0 0 1-2.183.677 1.44 1.44 0 0 0-.126.29l-.23.66-.098.682a1.183 1.183 0 0 0-.018.318 6.207 6.207 0 0 1 2.174.38 2.67 2.67 0 0 1 1.36.94 1.497 1.497 0 0 1 .121 1.395 3.305 3.305 0 0 1-1.233 1.58l.103.09.31.221c.268.183.604.444 1 .679l1.16.636c.161.09.321.147.421.195l.167.073a10.316 10.316 0 0 1 2.987-.725 8.822 8.822 0 0 1 1.486-.036 8.097 8.097 0 0 1 1.447.174 8.738 8.738 0 0 1 1.3.41 7.571 7.571 0 0 1 1.09.616 3.616 3.616 0 0 1 1.41 1.785l.862.032c.52.015 1.212.062 1.904.026.692-.022 1.385-.034 1.897-.068l.846-.082a2.58 2.58 0 0 1 .444-.99 3.382 3.382 0 0 1 .36-.423 4.902 4.902 0 0 1 .42-.399 4.344 4.344 0 0 1 1.033-.628 5.85 5.85 0 0 1 1.246-.45 11.107 11.107 0 0 1 1.406-.222 13.501 13.501 0 0 1 1.481.003 10.453 10.453 0 0 1 3.025.643l.524-.294a9.09 9.09 0 0 0 1.066-.657c.338-.252.695-.49.912-.686.208-.198.346-.327.346-.327a4.025 4.025 0 0 1-1.373-1.525 1.675 1.675 0 0 1-.161-.715 1.045 1.045 0 0 1 .16-.653 2.265 2.265 0 0 1 1.192-.958" class="cls-1"/><path fill="#56679e" d="M227.899 139.444c-3.32 2.049-6.715 1.944-10.145.322-.508-.24-1.012-.626-.934-1.277.055-.463.24-.962.888-.939a5.265 5.265 0 0 1 2.488.121c2.154.533 4.368.646 6.548.993.494.078 1.095.04 1.155.78z" class="cls-2"/><path fill="#58699d" d="M227.899 139.444c-.23-.431-.634-.404-1.045-.441a85.285 85.285 0 0 1-9.146-1.453 3.377 3.377 0 0 1 1.879-.68c.708-.079.836-.458.852-1.021a.514.514 0 0 1 .336-.386 31.132 31.132 0 0 1 3.978.393c-.045.577.041.954.793.997a4.638 4.638 0 0 1 2.15.709c.913.563.956 1.012.203 1.882z" class="cls-3"/><path fill="#5495bb" d="M215.101 115.225l-.368-.95a1.887 1.887 0 0 1 1.993-.526c2.754.377 5.486.892 8.23 1.332 1.069.171 2.166.133 3.245.284.589.082 1.121.194 1.353.83a2.099 2.099 0 0 1-.876 1.044c-2.292-.155-4.538-.616-6.8-.986a73.05 73.05 0 0 0-5.76-.693 1.838 1.838 0 0 1-1.017-.335z" class="cls-4"/><path fill="#3aa0c8" d="M214.815 110.856a1.845 1.845 0 0 1 .482-1.195c1.596-.089 3.094.502 4.654.694 3.349.413 6.716.723 10.027 1.411a1.164 1.164 0 0 1 .654.285 1.528 1.528 0 0 1-.027 1.029 32.932 32.932 0 0 1-7.638-.823 84.485 84.485 0 0 0-6.091-.828 3.99 3.99 0 0 1-2.06-.573z" class="cls-5"/><path fill="#4f98be" d="M229.554 116.194a5.64 5.64 0 0 0-3.199-.685c-1.966-.146-3.871-.653-5.803-.846-1.923-.192-3.83-1.132-5.819-.387-.299-.38-.162-.816-.157-1.235.936-.685 1.913-.153 2.802.032 2.654.549 5.352.713 8.02 1.11a17.04 17.04 0 0 1 4.685 1.042c.077.46-.353.646-.529.97z" class="cls-6"/><path fill="#5891b6" d="M216.26 116.925a1.823 1.823 0 0 1-.734-.968c.251-.545.728-.429 1.155-.363a565.78 565.78 0 0 0 10.288 1.474c.471.064.99.166.952.845l-.481.472c-1.18.632-2.393.138-3.534-.04a177.386 177.386 0 0 0-5.73-.794 4.176 4.176 0 0 1-1.916-.626z" class="cls-7"/><path fill="#459cc4" d="M230.568 113.033v-.967a.357.357 0 0 1 .04-.51 3.848 3.848 0 0 1-.08 2.697 3.954 3.954 0 0 1-2.473.025c-3.987-.684-7.985-1.268-12.011-1.668a2.357 2.357 0 0 1-1.456-.783.895.895 0 0 1 .177-.787c3.036.29 6.014.969 9.033 1.365 2.021.266 4.05.482 6.07.75a1.011 1.011 0 0 0 .7-.122z" class="cls-8"/><path fill="#01a8d4" d="M216.66 107.915a2.683 2.683 0 0 1 1.284-.98c3.44.578 6.916.889 10.368 1.376a2.244 2.244 0 0 1 1.008.362 1.477 1.477 0 0 1 .522.761c.207.73-.354.547-.688.54a24.507 24.507 0 0 1-5.14-.621c-1.851-.442-3.721-.567-5.583-.827a2.515 2.515 0 0 1-1.77-.61z" class="cls-9"/><path fill="#01abd9" d="M226.47 106.483c.724.487 1.625.71 2.172 1.46-.508.528-1.158.296-1.71.216-2.647-.384-5.293-.777-7.946-1.126a.843.843 0 0 1-.614-.335 5.4 5.4 0 0 1 2.97-.945 5.837 5.837 0 0 1 2.464-.007l-.014-.008c.37.344.842.148 1.26.238l.431.086c.212.415.687.212.986.42z" class="cls-10"/><path fill="#5e89af" d="M226.015 120.403l-.752 1.664c-1.87-.233-3.674-.934-5.597-.793l-1.06-1.886a.844.844 0 0 1 1.014-.45c1.827.26 3.67.41 5.484.749.382.071.947.052.91.716z" class="cls-11"/><path fill="#5c8cb2" d="M226.015 120.403c-1.196-.776-2.604-.607-3.908-.752-1.151-.129-2.3-.73-3.5-.263l-1.106-1.312c.2-.622.706-.419 1.11-.376 2.287.24 4.558.6 6.844.845.594.063 1.274.17 1.015 1.086a1.359 1.359 0 0 1-.455.772z" class="cls-12"/><path fill="#5693b8" d="M227.921 117.913c-.256-.652-.878-.496-1.36-.57-3.525-.536-7.054-1.045-10.585-1.549-.14-.02-.3.105-.45.163a1.204 1.204 0 0 1-.425-.732 39.873 39.873 0 0 1 7.957.827c1.665.301 3.379.388 5.018.855.236.067.471.092.602.332a1.764 1.764 0 0 1-.757.674z" class="cls-13"/><path fill="#5c6d9d" d="M224.753 135.856c-1.41.585-2.74-.218-4.114-.24a3.498 3.498 0 0 1-.017-1.971.22.22 0 0 1 .018-.217 1.564 1.564 0 0 1 1.472-.202 9.883 9.883 0 0 0 2.243.282.57.57 0 0 1 .34.165z" class="cls-14"/><path fill="#419ec5" d="M230.568 113.033c-.104.703-.63.526-1.023.427a58.155 58.155 0 0 0-7.468-.917 8.925 8.925 0 0 1-2.334-.498c-1.606-.659-3.43-.14-4.978-1.005a.178.178 0 0 1 .05-.184c3.134.345 6.269.654 9.369 1.277 1.715.344 3.477.465 5.222.655a2.786 2.786 0 0 1 1.162.245z" class="cls-15"/><path fill="#499bc2" d="M214.588 111.827c3.24.94 6.65.782 9.913 1.496 2 .438 4.029.558 6.027.93l-.197.487c-1.343.406-2.624-.148-3.915-.32a50.485 50.485 0 0 1-5.25-.648c-2.175-.523-4.443-.541-6.59-1.217z" class="cls-16"/><path fill="#32a1ca" d="M230.608 111.556l-.04.51c-1.999.188-3.854-.642-5.816-.813-3.076-.268-6.125-.838-9.186-1.274-.206-.029-.25-.152-.27-.318l.16-.288a17.708 17.708 0 0 1 4.897.367c1.832.279 3.649.656 5.496.827a2.338 2.338 0 0 1 .37.077 4.552 4.552 0 0 0 1.431.167 2.78 2.78 0 0 1 .53.087c.738.468 1.794-.184 2.421.681z" class="cls-17"/><path fill="#6082a9" d="M220.619 124.468a5.95 5.95 0 0 1-.48-1.952c-.03-.48.354-.523.646-.505a28.216 28.216 0 0 1 3.797.56.612.612 0 0 1 .4.418l-.443 2.484c-.646-.855-1.643-.634-2.507-.823-.467-.102-.95-.066-1.413-.182z" class="cls-18"/><path fill="#5b8fb4" d="M226.47 119.631c-.04-.396-.203-.692-.636-.745q-4.01-.492-8.023-.969c-.096-.011-.206.103-.31.159a3.49 3.49 0 0 1-1.241-1.15l11.18 1.46z" class="cls-19"/><path fill="#4c99c0" d="M214.576 112.555a44.87 44.87 0 0 1 7.088 1.05c2.349.605 4.778.393 7.136.866.502.1 1.023.164 1.53.269l-.247.485c-1.971-.013-3.835-.745-5.796-.85-3.273-.175-6.455-1.025-9.71-1.334z" class="cls-20"/><path fill="#5f749f" d="M224.5 130.028l.023.705a1.928 1.928 0 0 1 .032 1.27 4.24 4.24 0 0 1-3.884-.515l.023-.99c.17-.35-.115-.825.3-1.111a4.207 4.207 0 0 1 3.507.64z" class="cls-21"/><path fill="#00a9d6" d="M218.372 106.698a55.266 55.266 0 0 1 7.984 1.11 18.338 18.338 0 0 0 2.286.135 1.38 1.38 0 0 1 .678.73c-2.573-.284-5.149-.539-7.716-.862-1.245-.157-2.565-.069-3.66-.875a.451.451 0 0 1 .428-.238z" class="cls-22"/><path fill="#1ba4cf" d="M215.97 108.658l.44-.5a61.971 61.971 0 0 1 6.89.913c2.257.365 4.514.674 6.794.823a.808.808 0 0 1 .27.683c-.012.692-.552.428-.906.502a17.266 17.266 0 0 0-3.862-.658 2.332 2.332 0 0 1-.389-.07 6.143 6.143 0 0 0-1.56-.174c-2.146-.369-4.325-.499-6.465-.91-.367-.275-.897-.228-1.212-.609z" class="cls-23"/><path fill="#6086ac" d="M224.983 122.989c-1.613-.173-3.176-.854-4.844-.473a3.053 3.053 0 0 1-.473-1.242c.057-.525.467-.521.806-.454a35.917 35.917 0 0 0 4.49.784c.11.007.201.302.3.463l-.28.922z" class="cls-24"/><path fill="#5d6f9e" d="M220.671 131.488a22.187 22.187 0 0 0 3.804.49 2.326 2.326 0 0 1 .037 1.691c-.749.536-1.489.02-2.206-.08a13.566 13.566 0 0 0-1.666-.16z" class="cls-25"/><path fill="#29a3cc" d="M225.243 110.128h.242c.247.239.882.09.728.729a13.292 13.292 0 0 1-4.272-.535c-2.153-.41-4.36-.403-6.486-.949.052-.184.065-.392.29-.47a2.173 2.173 0 0 1 1.486.012 33.896 33.896 0 0 0 4.912.7c.544.093 1.1.144 1.643.271.42.474.983.092 1.457.242z" class="cls-26"/><path fill="#607ca4" d="M220.888 129.547c-.047.321.086.679-.194.952l-.023-5.08a4.09 4.09 0 0 1 3.83.485v1.214a2.66 2.66 0 0 1-2.211.206c-.707-.104-1.104.088-1.076.861a1.908 1.908 0 0 1-.326 1.362z" class="cls-27"/><path fill="#0aa6d1" d="M230.094 109.894c-.031.353-.225.302-.503.264-3.095-.428-6.196-.811-9.288-1.256-1.306-.188-2.595-.492-3.892-.744l.25-.243a51.813 51.813 0 0 1 6.534.845c2.072.524 4.164.624 6.242.943.266.04.37-.028.405-.269a.488.488 0 0 1 .252.46z" class="cls-28"/><path fill="#6079a2" d="M220.887 128.091c-.182-1.152.365-1.443 1.366-1.116a8.873 8.873 0 0 0 2.247.143v1.456c-1.32.708-2.454.018-3.613-.483z" class="cls-29"/><path fill="#6076a1" d="M220.887 128.091c1.241-.111 2.352.747 3.614.483v1.454a15.953 15.953 0 0 0-3.613-.48v-1.457z" class="cls-30"/><path fill="#607fa6" d="M224.5 125.904a22.493 22.493 0 0 0-3.829-.484l-.052-.952c1.18-.604 2.331.137 3.505.1.4-.013.374.548.415.905l-.038.431z" class="cls-31"/><path fill="#29a3cc" d="M229.369 110.856c.35-.028.745.106.994-.28a1.25 1.25 0 0 1 .238 1.003c-.744-.523-1.73.188-2.447-.48a1.18 1.18 0 0 1 1.215-.243z" class="cls-26"/><path fill="#6073a0" d="M224.512 133.67l-.037-1.691.048-1.246a11.016 11.016 0 0 1 .172 2.94q-.092 0-.183-.004z" class="cls-32"/><path fill="#05b0dd" d="M223.806 105.746l-2.465.007a3.578 3.578 0 0 1 2.465-.007z" class="cls-33"/><path fill="#5d6f9e" d="M220.622 133.645l.016 1.971-.2.233a6.148 6.148 0 0 1 .184-2.204z" class="cls-25"/><path fill="#05b0dd" d="M225.051 105.976a.832.832 0 0 1-1.26-.238 1.864 1.864 0 0 1 1.26.238z" class="cls-33"/><path fill="#29a5ce" d="M217.231 108.915l-1.487-.012.226-.245c.421.083.907-.154 1.261.257z" class="cls-34"/><path fill="#05b0dd" d="M226.47 106.483c-.37-.046-.857.185-.987-.421a1.86 1.86 0 0 1 .986.42z" class="cls-33"/><path fill="#26a3cd" d="M229.369 110.856l-1.215.244h-.485c-.405-.562-1.007.058-1.456-.243l-.728-.728a8.84 8.84 0 0 1 3.884.727z" class="cls-35"/><path fill="#29a3cc" d="M226.213 110.857c.377-.08.75-.179 1.131-.237.406-.062.473.146.325.48-.486-.08-1.03.196-1.456-.243z" class="cls-26"/><path fill="#26a3cd" d="M225.243 110.128c-.53.182-1.106.651-1.457-.242.486.078 1.03-.197 1.457.242z" class="cls-35"/><path fill="#393a3a" d="M268.725 97.37v18.267c0 15.37-22.508 15.411-22.508 0V97.37h2.227v18.267c0 12.639 18.056 12.598 18.056 0V97.37h2.225m10.329 0l19.778 24.313V97.37h2.224v29.394h-.881l-19.82-24.271v24.271h-2.267V97.37h.966m56.35 14.361c.168 7.475-4.619 15.033-14.907 15.033h-9.951V97.37h9.95c9.953 0 14.74 7.138 14.908 14.361m-22.592-12.22v25.07h7.685c8.735 0 12.765-6.551 12.64-12.85-.127-6.13-4.157-12.22-12.64-12.22zm54.338 27.253h-2.983l-10.163-11.127h-8.02v11.127h-2.267V97.37h12.934c6.383 0 9.615 4.577 9.657 9.154.042 4.788-3.108 8.986-9.531 8.986l10.372 11.254m-21.165-13.27H356.4c5.123 0 7.39-2.896 7.433-7.011a6.775 6.775 0 0 0-7.18-7.013h-10.668zm37.035 1.512l-11.464-17.594v-.042h2.645l9.952 15.453 9.994-15.453h2.645v.042l-11.506 17.594v11.758h-2.266v-11.758" class="cls-1"/></svg>