<?xml version="1.0" encoding="UTF-8" standalone="no"?><!-- Generator: Gravit.io --><svg xmlns="http://www.w3.org/2000/svg" xmlns:xlink="http://www.w3.org/1999/xlink" style="isolation:isolate" viewBox="0 0 3859.347 2863.16" width="3859.347pt" height="2863.16pt"><defs><clipPath id="_clipPath_AD94gvYHDFzCCX5UehtU1npCNseiJ3GC"><rect width="3859.347" height="2863.16"/></clipPath></defs><g clip-path="url(#_clipPath_AD94gvYHDFzCCX5UehtU1npCNseiJ3GC)"><g><path d=" M 1871.053 954.693 L 1318.565 1070.693 L 1586.853 1081.773 C 1378.707 1242.667 1119.241 1344.133 850.687 1388.72 C 647.26 1422.547 433.368 1426.773 228.055 1393.933 C 233.876 1395.133 239.576 1396.68 245.409 1397.84 C 732.977 1503.36 1255.567 1423.32 1698.227 1218.627 L 1714.133 1414.787 L 1871.053 954.693 Z  M 228.055 1393.933 C 221.491 1392.573 215.077 1390.787 208.529 1389.373 L 208.529 1390.667 C 215.029 1391.787 221.536 1392.893 228.055 1393.933 Z " fill="rgb(49,94,161)"/><g><path d=" M 1373.269 629.576 C 1376.442 629.576 1379.722 629.576 1382.922 629.687 C 1501.856 276.891 1836.31 22.763 2230.093 22.763 C 2686.381 22.763 3062.881 363.973 3117.074 804.325 C 3398.398 810.492 3624.685 1039.839 3624.685 1321.813 C 3624.685 1595.772 3411.162 1820.038 3141.134 1838.239 L 3141.134 1839.398 L 3066.928 1839.398 L 3066.928 1838.239 C 3323.636 1820.905 3526.507 1607.825 3526.507 1347.437 C 3526.507 1079.443 3311.472 861.442 3044.024 855.571 C 2992.545 437 2634.701 112.758 2201.016 112.758 C 1826.67 112.758 1508.803 354.255 1395.682 689.579 C 1392.682 689.479 1389.695 689.479 1386.602 689.479 C 1166.806 689.479 975.701 812.117 878.33 992.638 C 828.963 973.476 775.245 962.871 719.102 962.871 C 476.33 962.871 279.537 1159.195 279.537 1401.198 C 279.537 1642.998 476.035 1839.131 718.435 1839.398 L 670.998 1839.398 C 415.662 1839.398 208.529 1632.957 208.529 1378.358 C 208.529 1123.76 415.662 917.224 670.998 917.224 C 730.134 917.224 786.646 928.296 838.61 948.519 C 940.926 758.652 1141.976 629.576 1373.269 629.576" fill="rgb(122,125,129)"/></g><path d=" M 219.575 2537.893 C 94.457 2537.893 0 2435.973 0 2315 C 0 2193.2 94.457 2090.44 219.575 2090.44 C 300.787 2090.44 351.327 2124.413 391.103 2166.68 L 348.845 2211.427 C 314.873 2175.787 276.757 2146.787 218.755 2146.787 C 131.752 2146.787 65.455 2220.533 65.455 2313.347 C 65.455 2406.973 133.401 2480.72 222.897 2480.72 C 277.577 2480.72 319.844 2453.373 353.817 2416.92 L 394.413 2455.027 C 351.327 2503.093 299.957 2537.893 219.575 2537.893 Z " fill="rgb(49,94,161)"/><path d=" M 505.425 2527.947 L 505.425 1923.067 L 569.231 1923.067 L 569.231 2527.947 L 505.425 2527.947" fill="rgb(49,94,161)"/><path d=" M 913.072 2146.787 C 820.265 2146.787 756.461 2220.533 756.461 2313.347 C 756.461 2406.147 824.408 2480.72 914.733 2480.72 C 1007.529 2480.72 1072.164 2406.973 1072.164 2315 C 1072.164 2221.373 1003.387 2146.787 913.072 2146.787 L 913.072 2146.787 Z  M 913.072 2537.893 C 784.643 2537.893 691.005 2436.8 691.005 2315 C 691.005 2193.2 785.463 2090.44 914.733 2090.44 C 1043.163 2090.44 1137.619 2191.533 1137.619 2313.347 C 1137.619 2435.147 1042.332 2537.893 913.072 2537.893" fill="rgb(49,94,161)"/><path d=" M 1556.867 2099.56 L 1619.84 2099.56 L 1619.84 2527.947 L 1556.867 2527.947 L 1556.867 2453.373 C 1527.853 2499.773 1483.947 2537.067 1410.2 2537.067 C 1306.623 2537.067 1246.14 2467.467 1246.14 2365.547 L 1246.14 2099.56 L 1309.945 2099.56 L 1309.945 2349.8 C 1309.945 2429.347 1353.027 2479.053 1428.427 2479.053 C 1501.347 2479.053 1556.867 2425.213 1556.867 2344.827 L 1556.867 2099.56 Z " fill="rgb(49,94,161)"/><path d=" M 1954.56 2147.613 C 1871.707 2147.613 1803.76 2208.933 1803.76 2313.347 C 1803.76 2415.267 1873.36 2479.893 1954.56 2479.893 C 2034.12 2479.893 2109.52 2413.6 2109.52 2313.347 C 2109.52 2213.907 2034.12 2147.613 1954.56 2147.613 Z  M 2107.027 2527.947 L 2107.027 2441.773 C 2072.227 2493.147 2021.68 2537.067 1942.973 2537.067 C 1840.213 2537.067 1738.293 2455.853 1738.293 2314.173 C 1738.293 2173.307 1840.213 2090.44 1942.973 2090.44 C 2022.507 2090.44 2073.893 2133.533 2107.027 2181.587 L 2107.027 1923.067 L 2170.827 1923.067 L 2170.827 2527.947 L 2107.027 2527.947" fill="rgb(49,94,161)"/><g><path d=" M 2399.468 2406.147 C 2399.468 2458.347 2428.477 2477.414 2471.563 2477.414 C 2493.121 2477.414 2511.336 2473.267 2533.718 2462.494 L 2533.718 2517.174 C 2511.336 2528.773 2487.32 2535.413 2456.646 2535.413 C 2387.88 2535.413 2335.68 2501.441 2335.68 2414.428 L 2335.68 2155.908 L 2276.029 2155.908 L 2276.029 2099.562 L 2335.68 2099.562 L 2335.68 1970.295 L 2399.468 1970.295 L 2399.468 2099.562 L 2535.367 2099.562 L 2535.367 2155.908 L 2399.468 2155.908 L 2399.468 2406.147" fill="rgb(122,125,129)"/></g><g><path d=" M 2711.833 2527.948 L 2648.025 2527.948 L 2648.025 1923.069 L 2711.833 1923.069 L 2711.833 2174.136 C 2740 2127.735 2784.745 2090.443 2858.492 2090.443 C 2962.075 2090.443 3022.563 2160.056 3022.563 2261.961 L 3022.563 2527.948 L 2958.756 2527.948 L 2958.756 2277.708 C 2958.756 2198.176 2915.679 2148.455 2840.264 2148.455 C 2766.517 2148.455 2711.833 2202.309 2711.833 2282.681 L 2711.833 2527.948" fill="rgb(122,125,129)"/></g><g><path d=" M 3190.75 2400.347 C 3190.75 2455.025 3240.47 2486.52 3298.462 2486.52 C 3377.189 2486.52 3441.82 2438.466 3441.82 2370.521 L 3441.82 2329.08 C 3410.321 2319.959 3368.057 2310.853 3315.866 2310.853 C 3235.485 2310.853 3190.75 2345.653 3190.75 2400.347 L 3190.75 2400.347 Z  M 3183.294 2181.588 L 3164.236 2129.386 C 3211.463 2107.84 3257.874 2093.759 3320.013 2093.759 C 3436.835 2093.759 3502.305 2153.428 3502.305 2266.12 L 3502.305 2527.946 L 3440.982 2527.946 L 3440.982 2463.319 C 3411.159 2502.266 3361.439 2537.067 3286.043 2537.067 C 3206.5 2537.067 3126.119 2492.32 3126.119 2402.826 C 3126.119 2311.68 3200.698 2263.626 3309.248 2263.626 C 3363.91 2263.626 3402.865 2271.092 3440.982 2281.853 L 3440.982 2266.932 C 3440.982 2189.879 3393.755 2150.106 3313.395 2150.106 C 3262.837 2150.106 3223.066 2163.361 3183.294 2181.588 Z " fill="rgb(122,125,129)"/></g><g><path d=" M 3720.09 2406.147 C 3720.09 2458.347 3749.092 2477.414 3792.17 2477.414 C 3813.721 2477.414 3831.937 2473.267 3854.315 2462.494 L 3854.315 2517.173 C 3831.937 2528.774 3807.925 2535.414 3777.243 2535.414 C 3708.498 2535.414 3656.289 2501.439 3656.289 2414.427 L 3656.289 2155.906 L 3596.628 2155.906 L 3596.628 2099.559 L 3656.289 2099.559 L 3656.289 1970.294 L 3720.09 1970.294 L 3720.09 2099.559 L 3855.971 2099.559 L 3855.971 2155.906 L 3720.09 2155.906 L 3720.09 2406.147" fill="rgb(122,125,129)"/></g><g><path d=" M 3777.343 1922.665 L 3777.343 1879.852 L 3762.037 1879.852 L 3762.037 1871.13 L 3803.007 1871.13 L 3803.007 1879.852 L 3787.749 1879.852 L 3787.749 1922.665 L 3777.343 1922.665 Z " fill="rgb(122,125,129)"/></g><g><path d=" M 3809.571 1922.665 L 3809.571 1871.132 L 3825.151 1871.132 L 3834.503 1906.278 L 3843.737 1871.132 L 3859.364 1871.132 L 3859.364 1922.665 L 3849.68 1922.665 L 3849.68 1882.092 L 3839.451 1922.665 L 3829.436 1922.665 L 3819.255 1882.092 L 3819.255 1922.665 L 3809.571 1922.665" fill="rgb(122,125,129)"/></g></g></g></svg>