<svg id="图层_1" data-name="图层 1" xmlns="http://www.w3.org/2000/svg" viewBox="0 0 595.28 171.4"><defs><style>.cls-1{fill:#107dff;}.cls-2{fill:#00e2d1;}</style></defs><path d="M204.68,115.33a21.54,21.54,0,0,1-7.9-8.41,24.76,24.76,0,0,1-2.86-11.86,23.83,23.83,0,0,1,2.86-11.58A22.29,22.29,0,0,1,227.17,75a21,21,0,0,1,7.8,7.9l-5.26,3.3a15.08,15.08,0,0,0-5.3-5.55,15.74,15.74,0,0,0-15.93-.19,15.19,15.19,0,0,0-5.61,5.8A17.47,17.47,0,0,0,200.78,95a18.46,18.46,0,0,0,2.09,9,15.38,15.38,0,0,0,5.61,6A15.27,15.27,0,0,0,224,110a18.86,18.86,0,0,0,5.74-5.59l5.33,3.3a21.7,21.7,0,0,1-19,10.73A21.44,21.44,0,0,1,204.68,115.33Z"/><path d="M241.89,72.22h6.41v45.23h-6.41Z"/><path d="M263.18,116.06a17.24,17.24,0,0,1-6.25-6.57,18.65,18.65,0,0,1-2.29-9.17,17.41,17.41,0,0,1,2.29-8.78,17.4,17.4,0,0,1,23.82-6.38A17.12,17.12,0,0,1,287,91.5a17.52,17.52,0,0,1,2.28,8.82,18.75,18.75,0,0,1-2.28,9.17,17.32,17.32,0,0,1-6.25,6.57,17.22,17.22,0,0,1-17.57,0Zm14.59-5.3a10.69,10.69,0,0,0,3.71-4.47,14.33,14.33,0,0,0,1.27-6,12.54,12.54,0,0,0-1.27-5.55,10.45,10.45,0,0,0-3.71-4.25,11.16,11.16,0,0,0-11.58,0,10.62,10.62,0,0,0-3.78,4.25,12.43,12.43,0,0,0-1.3,5.55,14.2,14.2,0,0,0,1.3,6,10.84,10.84,0,0,0,3.78,4.47,10.82,10.82,0,0,0,11.58,0Z"/><path d="M301.88,116.66a12.4,12.4,0,0,1-4.6-4.66,13.16,13.16,0,0,1-1.71-6.66V83.83H302v19.22a9.49,9.49,0,0,0,2.26,6.47,7.65,7.65,0,0,0,6.12,2.6,7.77,7.77,0,0,0,4.44-1.36,9.32,9.32,0,0,0,3.17-3.68,11.26,11.26,0,0,0,1.14-5V83.83h6.54v33.62h-6.28v-4.88a11.44,11.44,0,0,1-4.47,4.22,14,14,0,0,1-6.7,1.55A12.32,12.32,0,0,1,301.88,116.66Z"/><path d="M367.45,72.15v45.3H361v-5.39a16.87,16.87,0,0,1-5.17,4.47,14,14,0,0,1-6.94,1.68,16.38,16.38,0,0,1-8.6-2.34,16.88,16.88,0,0,1-6.16-6.44,18.45,18.45,0,0,1-2.25-9,17.83,17.83,0,0,1,2.22-8.82,17,17,0,0,1,6.06-6.35,16.07,16.07,0,0,1,8.53-2.35,14.49,14.49,0,0,1,7.11,1.69A16.75,16.75,0,0,1,361,89V72.15Zm-11.7,38.51a11.57,11.57,0,0,0,4-4.34,12.21,12.21,0,0,0,0-11.58,11.61,11.61,0,0,0-4-4.38A10.43,10.43,0,0,0,350,88.71a11.19,11.19,0,0,0-6.06,1.65,11.79,11.79,0,0,0-5.55,10,12.55,12.55,0,0,0,1.46,5.94,11.39,11.39,0,0,0,4.09,4.4,11.19,11.19,0,0,0,6.06,1.65A10.43,10.43,0,0,0,355.75,110.66Z"/><path d="M373.67,73h7l9.65,35.85L400.25,73h7.24l10.15,35.85L427.28,73h7.05l-13.14,44.41h-7l-10.28-34-10,34H386.8Z"/><path d="M444.13,116a17.13,17.13,0,0,1-6.16-6.48,18.54,18.54,0,0,1-2.25-9.1A17.49,17.49,0,0,1,438,91.57a16.9,16.9,0,0,1,14.91-8.63,17.33,17.33,0,0,1,9,2.19,14.31,14.31,0,0,1,5.65,6.06,19.6,19.6,0,0,1,1.94,8.88c0,.76-.09,1.94-.26,3.55l-27,.07a10.66,10.66,0,0,0,2.31,4.6,11.46,11.46,0,0,0,3.9,2.95,10.57,10.57,0,0,0,4.38,1,13.68,13.68,0,0,0,5.93-1.24,11.93,11.93,0,0,0,4.29-3.26l5,3.23a13.75,13.75,0,0,1-6.19,5.59,21.49,21.49,0,0,1-9.1,1.84A16.37,16.37,0,0,1,444.13,116Zm15.61-24.46A9.64,9.64,0,0,0,453,89a11.18,11.18,0,0,0-8.79,4.28A9.27,9.27,0,0,0,442.26,98h20.93A11.13,11.13,0,0,0,459.74,91.57Z"/><path d="M517.76,96.33a24.13,24.13,0,0,1-2.67,11.57,18.83,18.83,0,0,1-7.45,7.71,21.73,21.73,0,0,1-10.95,2.73,21.44,21.44,0,0,1-11.39-3.11,22,22,0,0,1-8-8.4,24.65,24.65,0,0,1,0-23.16,22,22,0,0,1,8-8.41,21.53,21.53,0,0,1,11.39-3.11,21.78,21.78,0,0,1,10.5,2.48,21.28,21.28,0,0,1,7.65,7l-5,3.74a15.92,15.92,0,0,0-5.4-5,15.24,15.24,0,0,0-7.67-1.87A14.83,14.83,0,0,0,489,80.65a15.32,15.32,0,0,0-5.61,6,17.81,17.81,0,0,0-2.06,8.6,17.27,17.27,0,0,0,2.12,8.53,16.09,16.09,0,0,0,5.68,6,14.38,14.38,0,0,0,7.68,2.19,13.22,13.22,0,0,0,9.32-3.33,15.62,15.62,0,0,0,4.7-8.6H496.5V93.91h21.26Z"/><path d="M531.18,116.06a17.24,17.24,0,0,1-6.25-6.57,18.65,18.65,0,0,1-2.29-9.17,17.41,17.41,0,0,1,2.29-8.78,17.29,17.29,0,0,1,30.07,0,17.52,17.52,0,0,1,2.29,8.82,18.76,18.76,0,0,1-2.29,9.17,17.24,17.24,0,0,1-6.25,6.57,17.22,17.22,0,0,1-17.57,0Zm14.59-5.3a10.69,10.69,0,0,0,3.71-4.47,14.33,14.33,0,0,0,1.27-6,12.54,12.54,0,0,0-1.27-5.55,10.45,10.45,0,0,0-3.71-4.25,11.16,11.16,0,0,0-11.58,0,10.52,10.52,0,0,0-3.77,4.25,12.3,12.3,0,0,0-1.3,5.55,14.05,14.05,0,0,0,1.3,6,10.75,10.75,0,0,0,3.77,4.47,10.82,10.82,0,0,0,11.58,0Z"/><path class="cls-1" d="M104.53,62.59c0-6.28-7-11.37-15.67-11.37S73.19,56.31,73.19,62.59h-.56A25.12,25.12,0,0,0,56.05,69q-1.14,1-2.19,2.13c-.56.6-1.09,1.23-1.61,1.89s-.87,1.15-1.28,1.75-.73,1.11-1.08,1.69-.62,1.1-.92,1.66-.54,1.09-.79,1.65-.47,1.08-.69,1.64-.41,1.1-.6,1.67-.36,1.13-.51,1.7-.31,1.17-.44,1.76-.25,1.24-.36,1.86-.2,1.31-.27,2-.13,1.42-.17,2.15,0,1.23,0,1.85c0,.19,0,.38,0,.58,0,1,.07,1.93.16,2.87a34.13,34.13,0,0,0,.57,3.84H40a.81.81,0,0,0-.39,1.53l32.59,17.64a1.36,1.36,0,0,0,1.73-.39L87,102.66a.61.61,0,0,0-.49-1h-7a34.13,34.13,0,0,1-.57-3.84c-.09-.94-.14-1.9-.16-2.87v-.58c0-.62,0-1.24,0-1.85s.1-1.44.18-2.15.16-1.33.27-2,.22-1.24.35-1.86.28-1.18.44-1.76.33-1.14.52-1.7.38-1.12.59-1.67.45-1.1.69-1.64.52-1.11.8-1.65.6-1.12.92-1.66.7-1.14,1.07-1.69.84-1.19,1.29-1.75,1-1.29,1.6-1.89A29.46,29.46,0,0,1,89.74,69a25.3,25.3,0,0,1,14.79-6.35Z"/><path class="cls-2" d="M166.69,104.21c0-.55-.05-1.08-.09-1.62,0-.22,0-.45,0-.67a.28.28,0,0,0,0-.09c-.07-.74-.17-1.47-.29-2.19l-.09-.48c0-.16-.05-.34-.09-.5-.07-.37-.17-.72-.26-1.08s-.14-.62-.23-.92c-.15-.54-.32-1.06-.5-1.58-.08-.24-.15-.48-.24-.72-.27-.74-.58-1.48-.91-2.19l-.11-.2q-.42-.89-.9-1.74a.33.33,0,0,1-.06-.1,27.59,27.59,0,0,0-1.58-2.4s-.07-.12-.11-.17c-.23-.31-.47-.58-.71-.87s-.37-.48-.57-.71l-.11-.13q-.63-.7-1.29-1.35l-.07,0-.22-.2c-.31-.29-.62-.58-.94-.85l-.5-.39a3.65,3.65,0,0,0-.31-.24l-.38-.31c-.39-.28-.78-.55-1.18-.8l-.09-.06-.2-.11c-.29-.19-.58-.37-.88-.53s-.53-.28-.8-.41l-.25-.13-.14-.07c-.4-.19-.8-.37-1.21-.53l-.49-.18-.37-.13-.39-.14c-.43-.14-.86-.27-1.3-.38l-.19,0-.32-.07c-.28-.06-.56-.13-.85-.18s-.63-.09-1-.13l-.35,0-.18,0c-.54-.06-1.09-.09-1.65-.1h-.4l.12-.55c.06-.25.09-.5.15-.74s.05-.25.07-.37a2.56,2.56,0,0,1,0-.27c.05-.29.07-.58.12-.86s0-.27.05-.41l0-.16c0-.27,0-.55.06-.82s0-.4,0-.6c0,0,0-.07,0-.11,0-.43,0-.86,0-1.3v-.26a13.88,13.88,0,0,0-.07-1.44c0-.24,0-.5,0-.74,0,0,0-.06,0-.08s0-.27-.06-.4c-.08-.72-.18-1.43-.31-2.13,0-.09,0-.19,0-.28-.07-.32-.16-.64-.24-1s-.12-.55-.2-.81c-.13-.48-.28-.94-.44-1.4-.07-.21-.13-.43-.21-.63-.24-.66-.51-1.31-.81-1.94l-.09-.17c-.25-.53-.51-1-.8-1.55l-.06-.08a20.37,20.37,0,0,0-1.39-2.12,1.4,1.4,0,0,0-.1-.16c-.2-.27-.41-.51-.62-.77s-.33-.42-.51-.62l-.1-.12c-.37-.41-.75-.81-1.14-1.19l-.06,0-.19-.17c-.27-.26-.55-.52-.84-.76l-.41-.32a3.92,3.92,0,0,0-.32-.25l-.32-.25c-.34-.25-.68-.49-1-.71l-.09-.05a1,1,0,0,0-.17-.1c-.26-.16-.52-.33-.79-.47s-.46-.24-.69-.36l-.22-.11-.14-.07c-.35-.17-.7-.32-1.06-.47l-.39-.14-.33-.12-.38-.14c-.38-.12-.76-.23-1.15-.33l-.17,0a2.8,2.8,0,0,0-.28-.06l-.75-.17-.84-.12-.31,0-.16,0c-.48,0-1-.08-1.46-.09H97.64s-.06,0-.09,0,0,0-.09,0a.51.51,0,0,0-.45.5.5.5,0,0,0,.32.44.43.43,0,0,0,.22.09h0a20.11,20.11,0,0,1,10.84,9.8,35.28,35.28,0,0,1,3.35,17.76.78.78,0,0,0,.32.69h0a.85.85,0,0,0,.45.14h0c.6.08,1.47.36,2.07.49l.32.07c.64.16,1.28.35,1.9.57l.36.13c.62.23,1.23.48,1.83.77l.24.13c.58.29,1.15.61,1.7.94l.18.11c.56.36,1.11.74,1.64,1.15l.39.3c.47.38.93.78,1.37,1.19l.23.21c.51.48,1,1,1.46,1.53.2.22.37.46.56.69s.38.45.55.68a26.39,26.39,0,0,1,1.86,2.78c.35.6.67,1.22,1,1.84,0,.07.07.14.1.2.34.71.64,1.45.92,2.19.09.24.16.48.24.72.17.52.35,1,.5,1.58.08.3.15.61.22.92.13.52.26,1,.36,1.58,0,.16.06.32.08.48q.19,1.13.3,2.28c0,.22,0,.45,0,.67.05.7.09,1.39.09,2.1s0,1.57-.1,2.35c0,.19,0,.37,0,.56-.08.77-.18,1.52-.3,2.27,0,.12,0,.24-.07.36-.14.72-.3,1.44-.48,2.14,0,.06,0,.12-.05.18-.2.73-.43,1.45-.68,2.15,0,.13-.09.26-.14.38-.25.68-.53,1.34-.83,2l-.18.38c-.3.61-.61,1.21-.94,1.78l-.11.21c-.36.61-.75,1.2-1.15,1.77-.1.15-.21.29-.31.43-.32.43-.65.84-1,1.25-.18.23-.37.45-.57.67s-.52.56-.79.83-.65.65-1,1-.64.57-1,.84l-.57.46c-.44.33-.88.64-1.33.94-.14.09-.27.19-.41.27-.6.37-1.21.71-1.84,1l-.56.26a5.78,5.78,0,0,1-.72.31c-.22.07-.43.18-.64.26l-.09,0a.7.7,0,0,0,.37,1.19h.34c9,0,26,.07,26,.07.72,0,1.44-.05,2.14-.12l.67-.1c.49-.07,1-.15,1.44-.25l.79-.2c.42-.1.83-.23,1.24-.37l.74-.25c.49-.18,1-.39,1.45-.61l.48-.22q.93-.47,1.83-1c.14-.08.27-.18.41-.27.45-.3.9-.61,1.33-.94l.58-.46.62-.5.35-.34q.51-.46,1-1c.15-.16.32-.3.48-.47l.31-.36.57-.67.45-.52c.21-.28.41-.58.63-.85l.19-.27c.07-.11.16-.22.24-.33.31-.46.6-.92.89-1.4l0-.08a2.12,2.12,0,0,0,.11-.21c.21-.35.42-.71.61-1.08s.28-.61.43-.9l.08-.16c0-.1.1-.2.15-.31.2-.44.38-.89.56-1.35,0-.12.09-.25.14-.38a1.34,1.34,0,0,1,.07-.18c.09-.28.2-.55.29-.82.15-.47.3-.94.43-1.42a.31.31,0,0,1,0-.08,1.16,1.16,0,0,1,0-.18c.11-.39.21-.79.3-1.19s.12-.64.18-1c0-.12,0-.24.07-.36s0-.15,0-.23c.09-.54.17-1.09.23-1.64l0-.4c0-.19,0-.37,0-.56s.06-.55.07-.82c0-.51,0-1,0-1.53C166.7,104.53,166.7,104.37,166.69,104.21Z"/></svg>