<svg width="533" height="115" viewBox="0 0 533 115" fill="none" xmlns="http://www.w3.org/2000/svg">
<g clip-path="url(#clip0_189_184)">
<path d="M-0.000173012 56.814C-0.000173012 48.5018 1.49294 40.8754 4.55987 33.8947C7.58644 26.9544 11.7429 20.9421 17.0294 15.9386C22.3158 10.9351 28.5707 7.02105 35.7941 4.19649C43.0175 1.41228 50.8059 0 59.1189 0C70.3374 0 79.9821 2.3 88.1337 6.85965C96.2853 11.4193 103.589 18.1982 110.086 27.1158L91.5235 42.6912C88.174 36.7193 83.9368 31.9982 78.8522 28.4474C73.7272 24.9368 67.3916 23.1614 59.8049 23.1614C55.0835 23.1614 50.8059 24.0088 46.9319 25.7439C43.0579 27.4789 39.7085 29.8193 36.9644 32.8456C34.2203 35.8719 32.0412 39.4632 30.5077 43.5386C28.9742 47.6544 28.2075 52.0526 28.2075 56.7737C28.2075 61.4947 28.9339 65.8526 30.427 69.9281C31.9201 74.0035 34.0589 77.5544 36.8837 80.5807C39.6681 83.607 43.0579 85.9877 46.9723 87.6825C50.8866 89.4175 55.2853 90.2649 60.0471 90.2649C63.9211 90.2649 67.4319 89.8211 70.5392 88.893C73.6465 88.0053 76.5116 86.6737 79.0943 84.9789C81.677 83.2439 84.0176 81.186 86.1563 78.7246C88.2951 76.3035 90.2321 73.5193 92.0481 70.4526L110.208 86.593C104.074 95.1877 96.8906 101.805 88.6986 106.526C80.5067 111.207 70.6603 113.588 59.0786 113.588C50.7656 113.588 42.9772 112.175 35.7538 109.391C28.5303 106.607 22.2754 102.693 16.989 97.6491C11.7026 92.6456 7.54609 86.6333 4.51951 79.693C1.49294 72.7526 -0.0405273 65.086 -0.0405273 56.7737L-0.000173012 56.814Z" fill="#133378"/>
<path d="M151.046 2.86475V110.924H122.838V2.86475H151.046Z" fill="#133378"/>
<path d="M230.947 105.235C227.679 107.858 223.966 109.916 219.769 111.409C215.572 112.902 211.618 113.628 207.905 113.628C202.498 113.628 197.453 112.821 192.853 111.247C188.253 109.674 184.257 107.414 180.868 104.549C177.478 101.644 174.815 98.2141 172.918 94.2598C171.021 90.265 170.053 85.9071 170.053 81.1054V30.5054H198.26V72.3896C198.26 75.7387 198.664 78.5633 199.471 80.8633C200.278 83.1633 201.368 85.0194 202.74 86.4317C204.112 87.844 205.645 88.8124 207.421 89.4177C209.196 90.0229 210.972 90.3054 212.788 90.3054C216.864 90.3054 220.375 89.0545 223.28 86.5931C226.226 84.0913 228.123 80.8229 229.051 76.7475V30.5054H257.258V110.925H233.127L230.947 105.235Z" fill="#133378"/>
<path d="M329.049 52.6985C327.031 51.8511 324.973 51.0844 322.955 50.4792C320.938 49.8335 318.92 49.3493 316.983 48.9862C315.046 48.623 313.351 48.4616 311.898 48.4616C305.563 48.4616 302.415 50.0353 302.415 53.223C302.415 54.7564 303.141 55.9265 304.594 56.7335C306.047 57.5406 307.944 58.2669 310.284 58.9125C314.965 60.1634 319.525 61.5353 323.924 62.9879C328.322 64.4406 332.197 66.216 335.586 68.3546C338.976 70.4932 341.68 73.0757 343.657 76.102C345.635 79.1283 346.643 82.8406 346.643 87.2792C346.643 92.0809 345.675 96.2371 343.738 99.7476C341.801 103.258 339.178 106.163 335.869 108.423C332.56 110.683 328.686 112.337 324.206 113.427C319.727 114.516 315.006 115.041 310.042 115.041C303.262 115.041 296.644 114.072 290.188 112.135C283.731 110.198 277.516 107.172 271.544 103.137L281.431 83.7283C283.045 84.9792 284.942 86.1897 287.121 87.3195C289.3 88.4493 291.56 89.4178 293.9 90.2248C296.241 91.0318 298.662 91.6774 301.083 92.202C303.505 92.6862 305.845 92.9283 307.984 92.9283C311.777 93.009 314.481 92.6862 316.055 91.9195C317.629 91.1528 318.436 89.8213 318.436 87.9248C318.436 86.0283 317.346 84.5757 315.167 83.5669C312.988 82.5581 310.405 81.6704 307.419 80.8634C302.375 79.4914 297.774 78.0792 293.739 76.5862C289.663 75.0932 286.233 73.2774 283.368 71.0985C280.503 68.9195 278.323 66.3371 276.709 63.3511C275.135 60.3651 274.288 56.6932 274.207 52.3757C274.127 47.7757 275.095 43.8213 277.113 40.5932C279.131 37.3248 281.834 34.6616 285.184 32.6037C288.533 30.5458 292.286 28.9721 296.523 28.0037C300.72 26.995 304.998 26.5107 309.356 26.5107C316.499 26.5107 322.915 27.6002 328.605 29.7792C334.295 31.9581 339.38 34.3792 343.778 37.0827L334.698 55.6441C332.963 54.5546 331.107 53.5862 329.089 52.7388L329.049 52.6985Z" fill="#133378"/>
<path d="M385.908 34.863C389.056 32.6033 392.567 30.8683 396.36 29.6577C400.153 28.4472 403.745 27.8419 407.054 27.8419C412.462 27.8419 417.506 28.649 422.106 30.2226C426.707 31.7963 430.702 34.056 434.091 36.9209C437.481 39.8261 440.145 43.256 442.041 47.2104C443.938 51.2051 444.906 55.563 444.906 60.3647V110.924H416.699V69.0402C416.699 65.6911 416.295 62.8665 415.488 60.5665C414.681 58.2665 413.591 56.4104 412.219 54.9981C410.847 53.5858 409.314 52.6174 407.538 52.0121C405.763 51.4069 403.987 51.1244 402.171 51.1244C398.095 51.1244 394.585 52.3753 391.679 54.8367C388.733 57.3384 386.837 60.6069 385.908 64.6823V110.924H357.701V2.86475H385.908V34.863Z" fill="#133378"/>
<g opacity="0.6">
<path d="M522.992 79.33H468.756C463.227 79.33 458.748 74.851 458.748 69.3229C458.748 63.7949 463.227 59.3159 468.756 59.3159H522.992C528.521 59.3159 533 63.7949 533 69.3229C533 74.851 528.521 79.33 522.992 79.33Z" fill="#133378"/>
</g>
<g opacity="0.3">
<path d="M522.992 110.925H468.756C463.227 110.925 458.748 106.446 458.748 100.918C458.748 95.3896 463.227 90.9106 468.756 90.9106H522.992C528.521 90.9106 533 95.3896 533 100.918C533 106.446 528.521 110.925 522.992 110.925Z" fill="#133378"/>
</g>
<path d="M522.992 47.7753H468.756C463.227 47.7753 458.748 43.2963 458.748 37.7682C458.748 32.2402 463.227 27.7612 468.756 27.7612H522.992C528.521 27.7612 533 32.2402 533 37.7682C533 43.2963 528.521 47.7753 522.992 47.7753Z" fill="#133378"/>
</g>
<defs>
<clipPath id="clip0_189_184">
<rect width="533" height="115" fill="white"/>
</clipPath>
</defs>
</svg>
