<svg id="레이어_1" data-name="레이어 1" xmlns="http://www.w3.org/2000/svg" viewBox="0 0 171.43571 95.6865"><defs><style>.cls-1{fill:#1d6a8d;}.cls-2{fill:#282f3f;}</style></defs><title>cocktailcloud_acornsoft</title><path class="cls-1" d="M105.60974,12.09386a16.93894,16.93894,0,0,0-3.49919.3644,16.90261,16.90261,0,0,0-30.64779-.02l-.14738.34876A3.04685,3.04685,0,0,0,76.887,15.25292l.01271.00757a10.797,10.797,0,0,1,9.88078-6.4823h.01592a10.80647,10.80647,0,0,1,10.46971,8.186l.85942,3.45762,3.28383-1.38572a10.80641,10.80641,0,1,1,4.55048,20.75806c-.09608.00381-.15628.00652-.18922.00917H78.75047c-1.1671-.00215-1.52774.0162-1.53233-1.35172v.07556l13.7892-13.46062a3.04755,3.04755,0,0,0-2.12884-5.2288H74.14521a3.0476,3.0476,0,1,0,0,6.09519H81.3924l-4.17426,4.07574-5.202,5.07762a3.09431,3.09431,0,0,0-.91934,2.18041v5.57208a3.04962,3.04962,0,0,0,3.04845,3.049l.02344-.00111v.013h31.67049c.15307,0,.25888-.00868.318-.01188.02863-.00111.044-.00327.04886-.00327V45.884a16.90027,16.90027,0,0,0-.59623-33.7901Z" transform="translate(-11.08122 -2.68085)"/><path class="cls-1" d="M19.58261,61.44166a3.91449,3.91449,0,0,0-3.3584,1.62969,7.58209,7.58209,0,0,0-1.18979,4.5419q0,6.06,4.54819,6.06019a14.37593,14.37593,0,0,0,4.62259-.95421v3.222a12.83826,12.83826,0,0,1-4.982.9294,7.599,7.599,0,0,1-6.0476-2.39772q-2.09448-2.39846-2.09439-6.88447a11.23974,11.23974,0,0,1,1.0286-4.95089,7.43236,7.43236,0,0,1,2.95569-3.25939,8.74412,8.74412,0,0,1,4.5171-1.13409,12.18846,12.18846,0,0,1,5.30419,1.277l-1.23939,3.12281a20.54278,20.54278,0,0,0-2.0448-.84279A6.10368,6.10368,0,0,0,19.58261,61.44166Z" transform="translate(-11.08122 -2.68085)"/><path class="cls-1" d="M39.84535,69.67045a7.44545,7.44545,0,0,1-1.7846,5.29179,6.47026,6.47026,0,0,1-4.96958,1.9084,6.95073,6.95073,0,0,1-3.5196-.87351,5.81573,5.81573,0,0,1-2.3422-2.5095,8.43481,8.43481,0,0,1-.81781-3.81718,7.40393,7.40393,0,0,1,1.7722-5.27921,6.50731,6.50731,0,0,1,4.9818-1.884,6.99335,6.99335,0,0,1,3.5196.86759,5.79115,5.79115,0,0,1,2.3422,2.491A8.35519,8.35519,0,0,1,39.84535,69.67045Zm-9.57978,0a5.81358,5.81358,0,0,0,.67549,3.1106,2.4157,2.4157,0,0,0,2.1997,1.05339,2.377,2.377,0,0,0,2.1749-1.0471,5.8993,5.8993,0,0,0,.6631-3.11689,5.72469,5.72469,0,0,0-.6692-3.0858,2.42042,2.42042,0,0,0-2.1936-1.0286,2.41119,2.41119,0,0,0-2.181,1.02268A5.7162,5.7162,0,0,0,30.26557,69.67045Z" transform="translate(-11.08122 -2.68085)"/><path class="cls-1" d="M48.08691,76.87064q-6.46918,0-6.46881-7.101a7.57348,7.57348,0,0,1,1.76-5.3969,6.5995,6.5995,0,0,1,5.04343-1.86547,9.61911,9.61911,0,0,1,4.31279.942l-1.11558,2.92479q-.89165-.35922-1.66042-.58888a5.36292,5.36292,0,0,0-1.53679-.22912q-2.94921,0-2.94922,4.1888,0,4.06516,2.94922,4.06479a6.73288,6.73288,0,0,0,2.02019-.29092,7.28874,7.28874,0,0,0,1.8588-.91127V75.842a6.09437,6.09437,0,0,1-1.85288.80578A10.43062,10.43062,0,0,1,48.08691,76.87064Z" transform="translate(-11.08122 -2.68085)"/><path class="cls-1" d="M58.63348,69.08823l1.6482-2.1068,3.879-4.21359h4.26319l-5.5024,6.01022,5.837,7.84459H64.39607l-3.9904-5.6138-1.6234,1.30139v4.31241h-3.7798V57.33947h3.7798v8.60078l-.19839,3.148Z" transform="translate(-11.08122 -2.68085)"/><path class="cls-1" d="M76.0708,73.85924a8.185,8.185,0,0,0,2.37959-.43379v2.813a8.4809,8.4809,0,0,1-3.47.63218,4.246,4.246,0,0,1-3.30269-1.1463,4.98883,4.98883,0,0,1-1.0349-3.4389V65.60565H68.8336v-1.5986l2.082-1.26438L72.006,59.81825h2.4166v2.94959h3.879v2.83781h-3.879v6.67979a1.475,1.475,0,0,0,.4523,1.1896A1.785,1.785,0,0,0,76.0708,73.85924Z" transform="translate(-11.08122 -2.68085)"/><path class="cls-1" d="M89.54216,76.62265l-.731-1.8836H88.712a5.58026,5.58026,0,0,1-1.9643,1.66671,6.342,6.342,0,0,1-2.63349.46488,4.25645,4.25645,0,0,1-3.14132-1.14,4.37859,4.37859,0,0,1-1.14667-3.2468,3.65688,3.65688,0,0,1,1.54308-3.25347,8.94023,8.94023,0,0,1,4.65331-1.15851l2.40439-.0744v-.60739a1.8845,1.8845,0,0,0-2.1564-2.1068,9.82674,9.82674,0,0,0-3.90379,1.00381l-1.25142-2.55244a11.25929,11.25929,0,0,1,5.304-1.25179,6.60763,6.60763,0,0,1,4.2754,1.21441,4.48731,4.48731,0,0,1,1.48719,3.69281v9.23259ZM88.427,70.20344l-1.4624.0496a4.68077,4.68077,0,0,0-2.45361.5948,1.86755,1.86755,0,0,0-.80578,1.66042q0,1.599,1.83438,1.599a2.90646,2.90646,0,0,0,2.1005-.75581,2.65648,2.65648,0,0,0,.78691-2.008Z" transform="translate(-11.08122 -2.68085)"/><path class="cls-1" d="M95.40469,59.18644q0-1.84659,2.0572-1.847,2.057,0,2.0572,1.847a1.80024,1.80024,0,0,1-.51449,1.36912,2.161,2.161,0,0,1-1.54271.48968Q95.40433,61.04524,95.40469,59.18644Zm3.9408,17.43621H95.5657V62.76784h3.77979Z" transform="translate(-11.08122 -2.68085)"/><path class="cls-1" d="M106.58344,76.62265h-3.7798V57.33947h3.7798Z" transform="translate(-11.08122 -2.68085)"/><path class="cls-1" d="M124.12,61.44166a3.91525,3.91525,0,0,0-3.35858,1.62969,7.58464,7.58464,0,0,0-1.18961,4.5419q0,6.06,4.54819,6.06019a14.3769,14.3769,0,0,0,4.62259-.95421v3.222a12.83894,12.83894,0,0,1-4.982.9294,7.59877,7.59877,0,0,1-6.0476-2.39772q-2.09476-2.39846-2.09458-6.88447a11.23988,11.23988,0,0,1,1.0286-4.95089,7.435,7.435,0,0,1,2.95588-3.25939,8.74315,8.74315,0,0,1,4.5171-1.13409,12.18775,12.18775,0,0,1,5.304,1.277l-1.23921,3.12281a20.53972,20.53972,0,0,0-2.04461-.84279A6.104,6.104,0,0,0,124.12,61.44166Z" transform="translate(-11.08122 -2.68085)"/><path class="cls-1" d="M135.5715,76.62265h-3.77979V57.33947h3.77979Z" transform="translate(-11.08122 -2.68085)"/><path class="cls-1" d="M151.62083,69.67045a7.44387,7.44387,0,0,1-1.78478,5.29179,6.4693,6.4693,0,0,1-4.9694,1.9084,6.95073,6.95073,0,0,1-3.5196-.87351,5.81579,5.81579,0,0,1-2.3422-2.5095,8.43483,8.43483,0,0,1-.818-3.81718,7.40474,7.40474,0,0,1,1.7722-5.27921,6.50827,6.50827,0,0,1,4.982-1.884,6.99335,6.99335,0,0,1,3.5196.86759,5.79221,5.79221,0,0,1,2.3422,2.491A8.35519,8.35519,0,0,1,151.62083,69.67045Zm-9.57978,0a5.81348,5.81348,0,0,0,.6755,3.1106,2.41568,2.41568,0,0,0,2.19969,1.05339,2.37706,2.37706,0,0,0,2.17491-1.0471,5.89958,5.89958,0,0,0,.6629-3.11689,5.7213,5.7213,0,0,0-.6692-3.0858,2.84516,2.84516,0,0,0-4.3746-.00592A5.7181,5.7181,0,0,0,142.04105,69.67045Z" transform="translate(-11.08122 -2.68085)"/><path class="cls-1" d="M164.05137,76.62265l-.50819-1.77219h-.19839a3.9871,3.9871,0,0,1-1.7226,1.49348,5.87912,5.87912,0,0,1-2.54022.5267,4.83788,4.83788,0,0,1-3.681-1.30731,5.26088,5.26088,0,0,1-1.23921-3.76129v-9.0342h3.7798v8.09259a3.88549,3.88549,0,0,0,.533,2.24892,1.93807,1.93807,0,0,0,1.6978.74989,2.55254,2.55254,0,0,0,2.2926-1.05932,6.57369,6.57369,0,0,0,.70658-3.51367V62.76784h3.7798V76.62265Z" transform="translate(-11.08122 -2.68085)"/><path class="cls-1" d="M174.79633,76.87064a4.50082,4.50082,0,0,1-3.83569-1.89582,8.71862,8.71862,0,0,1-1.39429-5.25477,8.72474,8.72474,0,0,1,1.41909-5.3103,4.60939,4.60939,0,0,1,3.91008-1.90248,4.52027,4.52027,0,0,1,3.9904,2.03277h.124a15.431,15.431,0,0,1-.285-2.76378V57.33947h3.792V76.62265h-2.9l-.731-1.79662h-.161A4.32648,4.32648,0,0,1,174.79633,76.87064Zm1.32581-3.0114a2.55953,2.55953,0,0,0,2.1253-.84279,4.89986,4.89986,0,0,0,.73768-2.86261v-.409a5.66281,5.66281,0,0,0-.68808-3.19721,2.5532,2.5532,0,0,0-2.23671-.96679,2.21915,2.21915,0,0,0-1.9643,1.07191,5.7203,5.7203,0,0,0-.70029,3.11688,5.4186,5.4186,0,0,0,.70659,3.0673A2.30692,2.30692,0,0,0,176.12214,73.85924Z" transform="translate(-11.08122 -2.68085)"/><path class="cls-2" d="M72.46839,96.34893H69.14371l-.58064,1.88012H65.971l3.6911-10.064h2.281l3.71867,10.064H73.05593Zm-2.744-1.87312h2.1635l-1.08525-3.49066Z" transform="translate(-11.08122 -2.68085)"/><path class="cls-2" d="M79.23738,96.57016a1.036,1.036,0,0,0,.7603-.26614.9758.9758,0,0,0,.26269-.74307h2.18418a2.58576,2.58576,0,0,1-.88125,2.01842,3.27836,3.27836,0,0,1-2.27067.788,3.31872,3.31872,0,0,1-2.57128-1.023,4.03022,4.03022,0,0,1-.94006-2.834v-.09683a4.55422,4.55422,0,0,1,.41823-2.00108,3.04417,3.04417,0,0,1,1.20609-1.33394,3.59655,3.59655,0,0,1,1.86634-.46658,3.23712,3.23712,0,0,1,2.31547.80865,2.86851,2.86851,0,0,1,.85713,2.19119H80.26037a1.27893,1.27893,0,0,0-.28337-.89171.97877.97877,0,0,0-.76041-.311q-.90549,0-1.05757,1.1544a8.148,8.148,0,0,0-.04836,1.0091,3.20007,3.20007,0,0,0,.26959,1.56217A.93336.93336,0,0,0,79.23738,96.57016Z" transform="translate(-11.08122 -2.68085)"/><path class="cls-2" d="M82.92336,94.42044a4.41452,4.41452,0,0,1,.43546-1.99407A3.11448,3.11448,0,0,1,84.60994,91.082a3.76726,3.76726,0,0,1,1.9147-.47A3.43912,3.43912,0,0,1,89.172,91.65217a3.99261,3.99261,0,0,1,.96763,2.83053v.08293a3.87317,3.87317,0,0,1-.97108,2.77517,3.4479,3.4479,0,0,1-2.63009,1.02655,3.48659,3.48659,0,0,1-2.56438-.95741,3.74374,3.74374,0,0,1-1.04378-2.59551Zm2.32937.14519a2.78292,2.78292,0,0,0,.32484,1.52071,1.08241,1.08241,0,0,0,.96085.48382q1.24417,0,1.2718-1.9147v-.235q0-2.01141-1.28558-2.01141-1.16829,0-1.265,1.73493Z" transform="translate(-11.08122 -2.68085)"/><path class="cls-2" d="M95.47769,92.85838,94.7105,92.803a1.37809,1.37809,0,0,0-1.4101.69126v4.73477H90.971V90.75013h2.18417l.07605.96085a1.80364,1.80364,0,0,1,1.63821-1.099,2.26921,2.26921,0,0,1,.64969.08293Z" transform="translate(-11.08122 -2.68085)"/><path class="cls-2" d="M98.24429,90.75013l.076.87781a2.53662,2.53662,0,0,1,2.13582-1.016,2.1335,2.1335,0,0,1,1.74539.698,3.32479,3.32479,0,0,1,.5981,2.10135v4.81771h-2.33637v-4.721a1.26209,1.26209,0,0,0-.22813-.83289,1.0556,1.0556,0,0,0-.82933-.26614,1.11074,1.11074,0,0,0-1.01611.53918v5.28084H96.06023V90.75013Z" transform="translate(-11.08122 -2.68085)"/><path class="cls-2" d="M107.79211,96.12781a.53805.53805,0,0,0-.31106-.47692,4.73338,4.73338,0,0,0-1.182-.37332,5.38262,5.38262,0,0,1-1.43766-.508,2.40512,2.40512,0,0,1-.864-.76374,1.82235,1.82235,0,0,1-.29727-1.02989,2.06726,2.06726,0,0,1,.85024-1.69692,3.502,3.502,0,0,1,2.22564-.667,3.88057,3.88057,0,0,1,2.37773.67047,2.097,2.097,0,0,1,.89871,1.7625h-2.33637q0-.89831-.947-.89848a.939.939,0,0,0-.61522.20389.63137.63137,0,0,0-.2488.508.57948.57948,0,0,0,.30416.5046,2.87594,2.87594,0,0,0,.97119.318,8.41054,8.41054,0,0,1,1.17152.29716,2.1285,2.1285,0,0,1,1.68647,2.08057,1.95878,1.95878,0,0,1-.90894,1.66579,3.98573,3.98573,0,0,1-2.35349.6429,4.06853,4.06853,0,0,1-1.71425-.34563,2.86558,2.86558,0,0,1-1.17508-.94006,2.12878,2.12878,0,0,1-.42156-1.25112h2.17739a.89969.89969,0,0,0,.34552.75685,1.42165,1.42165,0,0,0,.85024.23846,1.11765,1.11765,0,0,0,.71527-.19355A.61882.61882,0,0,0,107.79211,96.12781Z" transform="translate(-11.08122 -2.68085)"/><path class="cls-2" d="M110.62119,94.42044a4.413,4.413,0,0,1,.43534-1.99407,3.11448,3.11448,0,0,1,1.25112-1.34439,3.76712,3.76712,0,0,1,1.91459-.47,3.43936,3.43936,0,0,1,2.64743,1.04022,3.99261,3.99261,0,0,1,.96763,2.83053v.08293a3.87274,3.87274,0,0,1-.97119,2.77517,3.44788,3.44788,0,0,1-2.63008,1.02655,3.48651,3.48651,0,0,1-2.56428-.95741,3.74269,3.74269,0,0,1-1.04367-2.59551Zm2.32925.14519a2.78282,2.78282,0,0,0,.32485,1.52071,1.08221,1.08221,0,0,0,.96074.48382q1.24433,0,1.272-1.9147v-.235q0-2.01141-1.2858-2.01141-1.168,0-1.2649,1.73493Z" transform="translate(-11.08122 -2.68085)"/><path class="cls-2" d="M119.16646,98.22905V92.36756h-1.08525V90.75013h1.08525V90.1557a2.58394,2.58394,0,0,1,.7533-1.98374,2.97667,2.97667,0,0,1,2.11514-.705,4.63016,4.63016,0,0,1,1.09214.14519l.00689,1.71414a2.128,2.128,0,0,0-.57364-.06225q-1.05757,0-1.05768.91249v.57364h1.45856v1.61743h-1.45856v5.86149Z" transform="translate(-11.08122 -2.68085)"/><path class="cls-2" d="M126.281,88.8908v1.85933h1.23022v1.61743H126.281v3.42151a.87347.87347,0,0,0,.15209.58754.81487.81487,0,0,0,.60121.16587,3.41684,3.41684,0,0,0,.58076-.04147V98.1668a4.30074,4.30074,0,0,1-1.31338.20055,2.44043,2.44043,0,0,1-1.77651-.56686,2.32308,2.32308,0,0,1-.57364-1.72115V92.36756h-.95385V90.75013h.95385V88.8908Z" transform="translate(-11.08122 -2.68085)"/></svg>