<svg width="400" height="400" viewBox="0 0 400 400" fill="none" xmlns="http://www.w3.org/2000/svg">
<path d="M205.223 125.426C217.719 140.016 222.821 159.538 219.06 178.377C238.676 170.553 246.286 157.435 248.601 144.317C248.601 144.317 255.289 119.458 265.683 109.125C245.143 112.348 243.068 104.29 205.223 125.446" fill="#00B1AB"/>
<path d="M173.79 150.832C169.685 138.149 162.605 126.631 153.14 117.242C153.14 117.242 181.702 124.749 198.145 178.058C182.629 173.376 176.01 158.065 173.76 150.832H173.79ZM209.132 185.718C209.59 183.168 217.159 157.381 202.164 136.439C177.055 108.612 139.211 104.705 139.211 104.705C146.596 118.986 146.831 132.318 154.899 159.503C164.677 187.646 200.751 189.544 203.424 189.595C205.847 193.42 211.4 198.571 224.116 201.234L225.524 194.532C214.553 192.237 210.539 188.014 209.162 185.688" fill="#00B1AB"/>
<path d="M143.272 96.5158C127.313 104.034 120.913 122.385 120.913 150.436C120.913 177.978 127.303 196.441 143.272 204.5L141.482 211.385C116.955 202.786 105.836 183.67 105.836 150.549C105.836 117.172 116.955 98.0459 141.482 89.6304L143.272 96.5158Z" fill="#0A2540"/>
<path d="M261.441 89.6304C285.99 98.0357 297.082 117.172 297.082 150.538C297.082 183.69 285.964 202.786 261.437 211.314L259.523 204.439C275.504 196.411 281.884 177.917 281.884 150.375C281.884 122.323 275.493 103.993 259.523 96.475L261.441 89.6304Z" fill="#0A2540"/>
<path d="M44.2039 298.027C38.9911 300.029 33.4364 300.989 27.8544 300.852C14.1028 300.852 7.49468 294.894 9.62191 279.846C11.5839 265.653 17.0097 259.852 31.3974 259.852C37.0499 259.759 42.6706 260.717 47.9733 262.677L46.0184 271.372L33.2083 271.294C27.3908 271.294 25.4253 273.256 24.4803 280.306C23.4561 288.067 24.8 289.476 30.4559 289.476C34.7079 289.501 38.958 289.291 43.1871 288.851L44.2039 298.027Z" fill="#0A2540"/>
<path d="M67.1614 281.022C66.0619 289.02 66.7663 290.896 71.8831 290.896C76.8347 290.896 78.4122 288.784 79.6662 279.922C80.9204 271.772 80.0615 269.86 75.2609 269.86C70.0757 269.86 68.5018 271.816 67.1614 281.001V281.022ZM94.4311 281.029C92.2751 295.69 86.339 300.856 71.3729 300.856C56.4067 300.856 50.1005 295.215 52.296 279.93C54.3513 265.118 60.3163 259.857 75.4944 259.857C90.5037 259.857 96.6374 265.663 94.4383 281.029" fill="#0A2540"/>
<path d="M125.01 269.013C119.035 269.013 117.623 270.264 116.44 279.283C115.499 286.34 115.341 289.157 118.877 288.928C122.189 288.606 125.294 287.169 127.684 284.852L129.8 269.043L125.01 269.013ZM139.862 299.916H128.622L128.467 293.333C124.483 297.674 119.013 300.359 113.142 300.857C104.025 300.857 99.9399 294.426 101.898 279.535C104.054 263.229 110.468 259.858 118.877 259.858C123.095 259.856 127.304 260.237 131.453 260.993C131.413 258.316 131.598 255.641 132.007 252.995L133.34 245.089H147.63L139.862 299.916Z" fill="#0A2540"/>
<path d="M173.353 276.705C176.893 276.389 178.773 275.844 179.103 272.472C179.341 269.886 178.316 269.411 174.381 269.491C169.581 269.57 168.01 270.978 166.756 277.332L173.353 276.705ZM189 297.719C183.291 299.944 177.197 301.009 171.073 300.852C154.41 300.852 149.872 293.565 151.341 279.925C153.138 263.705 160.544 259.86 174.608 259.86C190.016 259.86 194.066 264.956 192.84 273.875C191.737 281.169 186.785 283.253 176.463 284.066L165.848 284.848C166.013 289.009 168.051 289.792 172.456 289.792C175.905 289.792 183.264 289.397 188.011 288.851L189 297.719Z" fill="#0A2540"/>
<path d="M223.553 249.931C218.752 249.931 216.794 251.03 216.086 256.04L215.223 261.71H227.082L226.287 267.552H214.429L209.24 304.32C209.138 307.487 207.746 310.475 205.388 312.591C203.028 314.706 199.907 315.766 196.747 315.523C193.568 315.501 190.395 315.289 187.242 314.891L188.424 309.242H194.318C199.039 309.242 200.997 308.142 201.712 303.133L206.744 267.559H199.916L200.635 262.069L207.631 261.681L208.576 254.853C208.669 251.684 210.069 248.693 212.442 246.591C214.814 244.487 217.95 243.456 221.109 243.744C224.863 243.697 228.615 243.879 232.346 244.289L231.091 249.967L223.553 249.931Z" fill="#0A2540"/>
<path d="M259.403 267.774H257.247C252.934 267.774 248.76 270.649 242.116 275.535L238.734 299.913H231.105L236.524 261.659H242.345L241.949 270.441C248.058 264.173 254.049 260.638 259.245 260.638H261.289L259.403 267.774Z" fill="#0A2540"/>
<path d="M285.917 278.429C290.635 278.12 292.676 276.79 293.301 272.392C294.02 267.139 291.342 267.002 285.209 267.002C277.437 267.002 274.76 269.115 273.111 279.622L285.917 278.429ZM296.919 298.659C291.799 300.223 286.462 300.965 281.11 300.859C267.814 300.859 263.268 294.03 265.147 279.773C267.196 264.875 272.457 260.642 286.348 260.642C298.924 260.642 301.993 265.35 300.89 273.032C299.636 280.635 295.235 283.381 285.881 284.086L272.585 285.263C272.507 292.946 276.122 294.505 282.249 294.505C286.5 294.505 291.997 294.038 296.402 293.564L296.919 298.659Z" fill="#0A2540"/>
<path d="M317.952 280.939C312.454 278.352 309.861 275.377 310.565 269.8C311.431 262.513 316.698 260.458 326.76 260.63C332.257 260.723 337.741 261.169 343.18 261.967L342.236 267.356C337.367 267.205 332.804 267.04 326.99 266.961C320.699 266.961 318.34 267.12 317.946 270.332C317.558 273.206 319.383 274.018 322.513 275.427L332.889 280.135C338.858 282.88 341.302 285.309 340.507 291.187C339.333 299.891 333.12 300.753 322.347 300.753C317.377 300.763 312.411 300.396 307.496 299.653L308.362 294.011C311.901 294.32 316.849 294.407 320.388 294.407C330.059 294.407 332.573 293.623 333.041 290.483C333.511 287.666 331.604 287.192 328.244 285.625L317.952 280.939Z" fill="#0A2540"/>
<path d="M363.875 260.091C363.43 263.262 362.799 266.402 361.989 269.498C368.653 263.62 374.223 260.631 379.736 260.631C382.557 260.265 385.371 261.353 387.214 263.521C389.056 265.689 389.674 268.643 388.859 271.367L384.773 299.898H377.227L380.921 273.25C381.55 268.464 380.684 267.056 377.386 267.056C372.663 267.056 368.111 270.268 361.532 275.442L358.151 299.877H350.508L358.287 245.007H365.833L363.875 260.091Z" fill="#0A2540"/>
</svg>
