<svg xmlns="http://www.w3.org/2000/svg" role="img" viewBox="-12.87 -12.87 825.24 825.24"><defs><style>.st0{fill:#7d66b7}</style></defs><path d="M3.3 621H179v175.7H3.3zm205.9 0h175.7v175.7H209.2zm205.9 0h175.7v175.7H415.1zm205.9 0h175.7v175.7H621z" class="st0"/><path d="M3.1 3.3h380.6V179H3.1zm411.8 0h382V179h-382z" class="st0"/><path fill="#745399" d="M120.6 372.3c-2.6-3.4-7.9-6.7-15.7-10.1-7.8-3.4-16.9-5.1-27.4-5.1s-19.5 1.8-28.4 5.4c-8.9 3.6-16.8 8.9-23.8 15.9-6.9 7-12.3 15.6-16.2 25.7-3.9 10.1-5.8 21.7-5.8 34.7S7 472.7 14.5 486c7.5 13.3 18 23.5 31.6 30.7 13.6 7.2 29.7 10.7 48.2 10.7s20.5-1.4 31.2-4.1c10.8-2.7 20.6-7.3 29.5-13.8v-45.6l-6.4-2.8c-7.2 6.1-14.4 10.4-21.6 13-7.2 2.5-14.5 3.8-22.1 3.8-12.5 0-22.1-3.4-28.9-10.3-6.8-6.9-10.1-17-10.1-30.3s1.3-16.5 3.9-22.2c2.6-5.7 5.9-9.8 10-12.5 4.1-2.6 8.5-4 13.1-4s11.4 2.1 15.3 6.3c3.9 4.2 6.1 13.3 6.7 27.2h42.5V360h-32.8l-3.9 12.3zm151.7 42.2c-9.9-4.9-21.5-7.3-34.9-7.3s-25 2.4-34.9 7.3c-9.9 4.9-17.5 11.8-22.8 20.9-5.3 9-8 19.7-8 32.1s2.7 23 8 32c5.4 9 13 15.9 22.8 20.8 9.9 4.8 21.5 7.2 34.9 7.2s25-2.4 34.9-7.2c9.9-4.9 17.5-11.8 22.8-20.8 5.4-9 8-19.7 8-32s-2.7-23.1-8-32.1c-5.4-9-13-16-22.8-20.9zM238 493.1c-7.1 0-10.6-7.9-10.6-23.7s3.5-23.7 10.6-23.7 10.6 7.9 10.6 23.7-3.5 23.7-10.6 23.7zm175.6-93.5h13.8v22.2h-36.5v-22.2h13.8v-41.9h-89v41.9h16.4v86.1h-16.4v42h89v-42h-13.8v-23.6h36.5v23.6h-13.8v42h89v-42h-16.4v-86.1h16.4v-41.9h-89v41.9zM664 379.5c-16.5-14.5-40.3-21.8-71.5-21.8h-77.8v42h16.4v86h-16.4v42h77.7c31.4 0 55.2-7.2 71.7-21.6 16.4-14.4 24.6-35.5 24.6-63.2s-8.3-48.9-24.8-63.4zm-47.1 97.4c-4.7 6.5-12.5 9.8-23.4 9.8h-2.4v-88.1h2.4c10.9 0 18.7 3.3 23.4 9.8 4.7 6.5 7 17.9 7 34.2 0 16.4-2.3 27.8-7 34.4zm179.8-77.3v-41.9h-94.9v41.9h17.4v86.1h-17.4v42h94.9v-42h-17.5v-86.1h17.5z"/><path d="M296 178.9h87.9v87H296zm118.9.1h87.9v87h-87.9z" class="st0"/></svg>