<svg id="Layer_1" data-name="Layer 1" xmlns="http://www.w3.org/2000/svg" viewBox="0 0 1279.78 201.19">
  <defs>
    <style>
      .cls-1 {
        isolation: isolate;
      }

      .cls-2 {
        fill: #fb013d;
      }
    </style>
  </defs>
  <g>
    <g class="cls-1">
      <g class="cls-1">
        <path class="cls-2" d="M315.53,183.11c0-37.25,22.7-61.68,59.43-61.68,28.76,0,49,18,52.15,44.35H400.78c-3.12-13.51-12.82-22.35-27.21-22.35-19.75,0-31.53,16.29-31.53,39.68,0,23.22,11.61,39.68,31.19,39.68,14.73,0,24.43-8.84,27.55-22.35h26.16C424,226.77,403,244.79,373.4,244.79,337.36,244.79,315.53,220.36,315.53,183.11Z" transform="translate(-79.61 -79.95)"/>
        <path class="cls-2" d="M432.31,199.22c0-27.37,18.54-45.57,46.95-45.57s47,18.2,47,45.57c0,27.55-18.54,45.57-47,45.57S432.31,226.6,432.31,199.22Zm69.13,0c0-15.07-8.49-25.64-22.18-25.64s-22,10.57-22,25.64,8.31,25.65,22,25.65S501.44,214.3,501.44,199.22Z" transform="translate(-79.61 -79.95)"/>
        <path class="cls-2" d="M622.55,194.37v49.38H598.11v-47.3c0-14.55-5.89-22.7-18-22.7-12.48,0-19.93,9-19.93,24.26v45.74H535.74V122.47h24.43v43.14c5.72-6.93,13.69-12,26.34-12C606.26,153.65,622.55,164.22,622.55,194.37Z" transform="translate(-79.61 -79.95)"/>
        <path class="cls-2" d="M630.16,199.4c0-27.73,18.2-45.75,45.75-45.75,26.68,0,44.7,16.64,45.05,42.8a46.27,46.27,0,0,1-.7,8.32H655.63V206c.52,12.65,8.67,20.27,21,20.27,9.88,0,16.81-4.33,18.89-12.65h24.08c-2.77,17.33-18.19,31.19-41.93,31.19C648,244.79,630.16,226.94,630.16,199.4Zm66.19-10.57c-1.73-10.92-9.18-17-20.27-17-10.57,0-18.54,6.41-19.93,17Z" transform="translate(-79.61 -79.95)"/>
        <path class="cls-2" d="M784.54,154.69v22.18h-9.7c-14.56,0-20.1,9.7-20.1,23.22v43.66H730.31V154.69h22.17L754.74,168c4.85-8,11.78-13.35,25.64-13.35Z" transform="translate(-79.61 -79.95)"/>
        <path class="cls-2" d="M785.06,199.4c0-27.73,18.19-45.75,45.74-45.75,26.68,0,44.7,16.64,45.05,42.8a46.27,46.27,0,0,1-.7,8.32H810.53V206c.52,12.65,8.66,20.27,21,20.27,9.88,0,16.81-4.33,18.89-12.65h24.08c-2.77,17.33-18.19,31.19-41.93,31.19C802.9,244.79,785.06,226.94,785.06,199.4Zm66.18-10.57c-1.73-10.92-9.18-17-20.27-17-10.57,0-18.54,6.41-19.92,17Z" transform="translate(-79.61 -79.95)"/>
        <path class="cls-2" d="M972,194.37v49.38H947.57V196.8c0-15.08-5.72-23.05-18-23.05-12.64,0-19.92,9-19.92,24.43v45.57H885.2V154.69h21.31l2.25,11.09c5.72-6.93,13.86-12.13,27.55-12.13C955.54,153.65,972,163.88,972,194.37Z" transform="translate(-79.61 -79.95)"/>
        <path class="cls-2" d="M979.62,199.22c0-27.55,18-45.57,46.26-45.57,24.26,0,39.34,13.17,42.8,34.31h-25.47c-2.08-8.84-8.14-14.38-17.67-14.38-12.82,0-21,10.57-21,25.64,0,15.25,8.15,25.65,21,25.65,9.53,0,15.94-5.72,17.67-14.73h25.64c-3.46,21.31-19.57,34.65-43.83,34.65C996.78,244.79,979.62,227.29,979.62,199.22Z" transform="translate(-79.61 -79.95)"/>
        <path class="cls-2" d="M1074.22,199.4c0-27.73,18.19-45.75,45.74-45.75,26.68,0,44.7,16.64,45,42.8a46.23,46.23,0,0,1-.69,8.32h-64.63V206c.52,12.65,8.66,20.27,21,20.27,9.88,0,16.81-4.33,18.89-12.65h24.08c-2.77,17.33-18.19,31.19-41.93,31.19C1092.06,244.79,1074.22,226.94,1074.22,199.4Zm66.18-10.57c-1.73-10.92-9.18-17-20.27-17-10.57,0-18.54,6.41-19.92,17Z" transform="translate(-79.61 -79.95)"/>
      </g>
      <g class="cls-1">
        <path class="cls-2" d="M1211.44,199.38c0-26.88,16.61-45.14,42.35-45.14,19.65,0,34,11.42,37.27,29.8H1279.4c-3.43-12.3-12.81-19.65-26.12-19.65-18.64,0-30.55,14.45-30.55,35s11.41,35,30,35c13.7,0,23.2-7.23,26.5-19.65h11.67c-3.3,18.38-18,29.79-38,29.79C1227.42,244.51,1211.44,226.51,1211.44,199.38Z" transform="translate(-79.61 -79.95)"/>
        <path class="cls-2" d="M1301.2,155h56.54v10.14h-45.51v28.4h37.91v10.14h-37.91v29.92h47.16v10.14H1301.2Z" transform="translate(-79.61 -79.95)"/>
      </g>
    </g>
    <g>
      <path class="cls-2" d="M166.33,81.71,103,118.26v24.17l69.77-40.21,69.66,40.21V118.26L179,81.71A12.35,12.35,0,0,0,166.33,81.71Z" transform="translate(-79.61 -79.95)"/>
      <path class="cls-2" d="M205.63,212a12.65,12.65,0,0,0-2.95-2.84,30.11,30.11,0,0,0-6.29-3.56s-39.71-16.65-41.13-17.26c-42.55-18.58,10.16-24.37,14.22-24.57a99,99,0,0,1,18.28.71,7.64,7.64,0,0,0,.81-15.24h0c-1.73-.2-3.86-.5-5.59-.71a107.58,107.58,0,0,0-14-.5A95.27,95.27,0,0,0,141,152.79a56.78,56.78,0,0,0-13.7,6.7,25.54,25.54,0,0,0-6.4,6.4A14.52,14.52,0,0,0,118.7,171a15.56,15.56,0,0,0-.2,6.09,14.09,14.09,0,0,0,2.13,5.18,23.19,23.19,0,0,0,3.05,3.75,32.27,32.27,0,0,0,6.7,4.78c4.78,2.64,41.33,16.35,41.94,16.55,39.3,13.51,20.31,17.16,12.69,18.79-.3,0-.5.1-.81.1-.61.1-1.22.2-1.93.3-3.14.51-10.76.92-10.86.92a2.95,2.95,0,1,0,0,5.89c.1,0,9.64,0,13.91-.61A53.38,53.38,0,0,0,198,229.46a18.86,18.86,0,0,0,6.2-4,10.94,10.94,0,0,0,2.64-3.76,8.8,8.8,0,0,0,.61-5.38A7.79,7.79,0,0,0,205.63,212Z" transform="translate(-79.61 -79.95)"/>
      <path class="cls-2" d="M185.93,194.63a1.53,1.53,0,1,0,1.52-1.53A1.56,1.56,0,0,0,185.93,194.63Z" transform="translate(-79.61 -79.95)"/>
      <path class="cls-2" d="M181.87,196.45a1,1,0,1,0,2,0,1.1,1.1,0,0,0-1-1A1,1,0,0,0,181.87,196.45Z" transform="translate(-79.61 -79.95)"/>
      <path class="cls-2" d="M160.34,205.8a1,1,0,1,0-2,0,1,1,0,0,0,1,1A1.09,1.09,0,0,0,160.34,205.8Z" transform="translate(-79.61 -79.95)"/>
      <path class="cls-2" d="M154.45,206.2a1.83,1.83,0,1,0,1.83,1.83A1.82,1.82,0,0,0,154.45,206.2Z" transform="translate(-79.61 -79.95)"/>
      <path class="cls-2" d="M150.79,210.77A1.83,1.83,0,1,0,149,212.6,1.82,1.82,0,0,0,150.79,210.77Z" transform="translate(-79.61 -79.95)"/>
      <path class="cls-2" d="M145,214.83a1.83,1.83,0,1,0-1.83,1.83A1.82,1.82,0,0,0,145,214.83Z" transform="translate(-79.61 -79.95)"/>
      <path class="cls-2" d="M143.28,219.81a1.93,1.93,0,1,0,1.93,1.93A1.92,1.92,0,0,0,143.28,219.81Z" transform="translate(-79.61 -79.95)"/>
      <path class="cls-2" d="M149.47,224a2.64,2.64,0,1,0,2.64,2.64A2.62,2.62,0,0,0,149.47,224Z" transform="translate(-79.61 -79.95)"/>
      <circle class="cls-2" cx="77.48" cy="148.89" r="2.64"/>
      <path class="cls-2" d="M192.63,191.17a1.93,1.93,0,1,0,1.93,1.93A1.93,1.93,0,0,0,192.63,191.17Z" transform="translate(-79.61 -79.95)"/>
      <circle class="cls-2" cx="120.84" cy="110.31" r="3.45"/>
      <path class="cls-2" d="M211.72,181a4.67,4.67,0,1,0,4.67,4.67A4.59,4.59,0,0,0,211.72,181Z" transform="translate(-79.61 -79.95)"/>
      <path class="cls-2" d="M221.17,168.83a5.79,5.79,0,1,0,5.78,5.79A5.79,5.79,0,0,0,221.17,168.83Z" transform="translate(-79.61 -79.95)"/>
      <path class="cls-2" d="M207.76,168.63a6.91,6.91,0,1,0-6.9-6.9A6.92,6.92,0,0,0,207.76,168.63Z" transform="translate(-79.61 -79.95)"/>
      <circle class="cls-2" cx="84.79" cy="150.01" r="2.64"/>
      <path class="cls-2" d="M265.85,233.42l-.1-73.12L246,149l.11,80.43-69.67,40.31,19.71,11.37,63.26-36.65A12.85,12.85,0,0,0,265.85,233.42Z" transform="translate(-79.61 -79.95)"/>
      <path class="cls-2" d="M79.61,233.42l.1-73.12L99.41,149l-.1,80.43L169,269.77l-19.7,11.37L86,244.49A12.85,12.85,0,0,1,79.61,233.42Z" transform="translate(-79.61 -79.95)"/>
    </g>
  </g>
</svg>
