<svg xmlns="http://www.w3.org/2000/svg" role="img" viewBox="-4.70 -5.20 413.14 104.89"><style>svg {enable-background:new 0 0 403.6 95.8}</style><style>.st0{fill:#06357a}</style><path d="M4 19.5C.8 29.5 8.7 41.8 24 53 12.6 43.1 7 32.8 9.9 24.2c5.9-18 46-22.7 89.6-9.3 12 3.7 23 6.9 32.6 12-10.8-6.4-23.9-11.7-38.4-16.2C50-2.7 9.9 1.5 4 19.5" class="st0"/><path fill="#00929f" d="M52.5 61.6c-16-9.1-25.2-20.8-22.7-30.4 1.8-6.7 9.1-11.5 19.6-13.3-13.3 1.1-23.6 6.2-25.7 14-2.6 10.1 7.4 22.2 24.6 31.6l4.2-1.9"/><path fill="#f15d22" d="M50.9 37.6c2.8-8.5 18.8-11.5 42.6-4 10.7 3.4 19.9 8.1 25.7 13.2-5.8-4.3-13.8-8.2-23-11-20.7-6.3-39.8-4.6-42.6 4-1.3 4.1 1.3 9 6.7 13.7-7.1-5.4-10.9-11.2-9.4-15.9"/><path fill="#ffd200" d="M102.9 54.5c-2.1 5.2-13.2 4-22.7.7-4.9-1.7-9-4.1-11.6-6.5 2.6 2.1 7 3.8 10.5 4.9 9.5 3.1 19 2.1 20.4-.8 2.7-5.6-6.1-9-10.9-10.4 3.9.8 5.7 1.7 8.4 2.9 5.7 3.3 7 6.7 5.9 9.2"/><path fill="#06357a" fill-rule="evenodd" d="M34.9 71.1c.8.7 1.9 1.1 3.6 1.1 2.2 0 4-.9 4-2.1 0-2.2-5.9-5.4-15.8-5.4-13.8 0-21.7 6-21.7 13.4 0 7.1 6.8 13.7 22 13.7 9.8 0 15-3.2 15-4.7 0-.7-1-1.2-2.2-1.2-.8 0-1.1.1-2.5.7-1.1.4-3.9 1.5-8.1 1.5-7.9 0-14.5-4-14.5-11.2 0-5.9 5.1-9.2 11.3-9.2 4.9 0 7 1.8 8.9 3.4m53 6.5c-.5-6.9-7.9-12.9-21.3-12.9-13.7 0-21.6 6-21.6 13.6 0 8.9 10 13.5 21.5 13.5 12.9.1 22-6 21.4-14.2m-9.5.1c.1 2.5-.5 5.4-2.6 7.5-2.5 2.4-6.2 3.2-9.2 3.2-2.6 0-9.6-.7-11.5-6.7-.3-1-.5-2.2-.5-3.7 0-2 .3-7.2 6.9-9.3 1.5-.5 3.3-.7 5.1-.7 1.3 0 5.7.1 9 2.9 2.4 2.1 2.8 4.8 2.8 6.8zM102.5 66c-.7-.6-1-.7-2.2-.7h-5.1c-.9 0-1.5.1-1.5.8v24.5c0 .7.4.7 1.5.7h4.2c1.1 0 1.3-.2 1.3-.8V72.7L124 90.5c.7.6.9.7 1.8.8h3.8c1 0 1.4-.1 1.4-.7V66c0-.6-.3-.8-1.3-.7h-4.2c-1.1 0-1.3.2-1.3.7v16.4L102.5 66m64.6 5.1c.8.7 1.9 1.1 3.6 1.1 2.2 0 4-.9 4-2.1 0-2.2-5.9-5.4-15.8-5.4-13.9 0-21.7 6-21.7 13.4 0 7.1 6.8 13.7 21.9 13.7 9.8 0 15-3.2 15-4.7 0-.7-1-1.2-2.2-1.2-.8 0-1.1.1-2.5.7-1.1.4-3.9 1.5-8.1 1.5-7.9 0-14.5-4-14.5-11.2 0-5.9 5.1-9.2 11.3-9.2 5 0 7.1 1.8 9 3.4m37.6 8.3c1.1 0 1.5-.1 1.5-.7v-1.8c0-.6-.4-.7-1.4-.7h-13.5v-7.6h16c1.1 0 1.6-.1 1.5-.8V66c.1-.7-.6-.7-1.5-.7h-23.4c-1.2 0-1.6.2-1.6 1v24.1c0 .8.5.8 1.6.8h23.4c1.1 0 1.4-.1 1.5-.5v-2.1c0-.7-.5-.7-1.5-.7h-16v-8.5h13.4M225.2 66c-.7-.6-1-.7-2.2-.7h-5c-.9 0-1.5.1-1.5.8v24.5c0 .7.4.7 1.5.7h4.2c1.1 0 1.3-.2 1.3-.8V72.7l23.2 17.8c.7.6.9.7 1.8.8h3.8c1 0 1.4-.1 1.4-.7V66c0-.6-.3-.8-1.3-.7h-4.2c-1.1 0-1.3.2-1.3.7v16.4L225.2 66m65.4 2.6c1.2 0 1.5-.2 1.5-.8V66c0-.6-.5-.7-1.5-.7H261c-1 0-1.5.1-1.5.8v1.7c0 .6.3.8 1.5.8h10.2v21.8c0 .7.4.8 1.6.9h6.1c1.1 0 1.4-.3 1.4-.9V68.6h10.3m7.2 21.9c0 .7.5.8 1.5.8h5.9c1.3 0 1.5-.2 1.5-.9v-9.3c0-.3 0-1 1.4-1 1.3 0 2.1.6 2.4 1l10.1 9.4c.7.6.8.7 2.2.7h6.8c.5 0 1.3 0 1.3-.5 0-.2-.3-.5-.5-.7l-12.6-10.8c4.7-.8 10.5-2.9 10.5-7 0-2.1-1.4-4.1-4.4-5.4-4-1.8-10-1.9-13.9-1.9-4.4 0-9.6.3-11.1.6-.9.2-1.1.4-1.1 1.2v23.8m8.9-22.5c.7 0 1.6-.1 3-.1 2.6 0 9.6 0 9.6 5 0 3.4-4.2 4.7-8.2 5-1.1.1-1.9.1-4.4 0V68zm39.2-1.9c0-.7-.4-.8-1.4-.8h-6.4c-1.2 0-1.4.3-1.4.8v24.4c0 .7.5.8 1.5.8h6.3c.9 0 1.5-.1 1.5-.8V66.1m31.9 24.4c.7.7.9.7 2.2.7h6.5c.5 0 1.3 0 1.3-.5 0-.2-.2-.4-.4-.6L374.1 77l11.3-10.6c.2-.2.4-.4.4-.6 0-.5-.8-.5-1.2-.5H380c-1.2 0-1.3 0-2.1.7l-7.6 7.2-7.4-7.2c-.7-.6-.9-.7-2.3-.7h-6.1c-.4 0-.2 0-.2.5 0 .1.1.3.3.5L365.1 78l-12 12.2c-.5.4-.6.6-.6.7 0 .4.9.4 1.4.4h3.6c1.1 0 1.3-.1 2-.7l9.4-8.7 9 8.6" clip-rule="evenodd"/><path fill="#c1d82f" d="M156.9 57.8c-8.3-13-25.7-26.8-50.8-35.2-21.9-7.4-47-11.2-63.2-10.1 15.5.5 32.7 3 53.8 9.6 26.6 8.3 44.9 22.6 53.3 36 0 0 1.6-.1 3.1-.2 2.3-.3 3.8-.1 3.8-.1"/><path d="M390.1 59.1H388v-.8h5.2v.8H391v6.2h-.9v-6.2zm9.7 3.1c-.1-1-.1-2.1-.1-3-.2.8-.5 1.7-.9 2.7l-1.2 3.4h-.7l-1.1-3.3c-.3-1-.6-1.9-.8-2.7 0 .9-.1 2-.1 3.1l-.2 3h-.9l.5-7h1.1l1.2 3.4c.3.9.5 1.6.7 2.4.2-.7.4-1.5.7-2.4l1.2-3.4h1.1l.4 7h-.9v-3.2z" class="st0"/></svg>