<?xml version="1.0" encoding="UTF-8"?>
<svg xmlns="http://www.w3.org/2000/svg" version="1.1" viewBox="0 0 787 768" width="787.0pt" height="768.0pt" style="background: none;">

<path d="M 380.00 65.51 C 387.92 65.63 395.87 65.19 403.65 66.00 C 417.41 67.22 431.20 68.88 444.75 71.59 C 452.00 73.00 458.88 75.46 466.06 77.28 C 472.03 78.79 477.36 81.73 483.22 83.54 C 485.80 84.40 488.33 85.20 490.82 86.31 C 501.22 91.48 511.70 96.10 521.59 102.30 C 528.20 105.84 534.12 110.32 540.43 114.33 C 557.99 126.93 574.34 141.09 589.21 156.78 C 594.92 163.81 601.11 170.50 606.11 178.03 C 609.63 182.89 613.39 187.50 616.32 192.77 C 621.11 200.85 626.41 208.24 629.99 217.02 C 632.71 224.21 636.80 230.65 639.20 237.98 C 642.86 245.49 645.19 253.53 646.66 261.75 C 646.89 260.90 647.12 260.06 647.35 259.22 C 648.18 263.38 649.18 267.49 650.27 271.59 C 651.97 278.01 652.41 284.47 652.61 291.09 C 652.85 288.36 653.11 285.63 653.37 282.90 C 653.72 297.01 655.97 310.91 655.53 325.00 C 655.39 336.00 655.79 347.05 655.22 358.04 C 653.94 369.03 654.32 379.07 651.34 389.60 C 645.45 415.33 636.20 440.23 623.10 463.18 C 614.71 477.37 605.02 490.73 594.12 503.11 C 588.25 509.71 582.77 516.16 576.10 521.97 C 572.78 522.78 569.01 522.89 566.39 525.36 C 563.40 528.10 560.81 531.18 557.51 533.60 C 553.88 536.28 550.28 538.96 546.93 541.98 C 542.65 545.88 537.50 547.63 532.79 550.86 C 529.87 552.87 526.92 554.69 523.76 556.29 C 520.58 557.92 518.03 560.29 515.07 562.23 C 512.60 563.80 509.97 564.29 507.36 565.51 C 505.01 566.64 503.11 568.88 500.71 569.84 C 498.11 570.70 495.25 570.93 492.55 571.36 C 493.27 571.85 493.99 572.34 494.71 572.82 C 490.20 573.55 486.60 574.71 482.53 576.78 C 478.57 578.84 474.37 579.37 470.02 579.95 C 466.87 580.37 464.49 582.00 461.90 583.68 C 464.27 584.46 466.60 585.23 469.03 585.80 C 453.73 590.62 438.50 594.68 422.54 596.62 C 409.80 598.86 396.92 599.66 384.00 599.74 C 314.66 599.92 245.34 599.65 176.00 599.86 C 158.33 599.94 140.66 599.72 122.99 600.06 C 119.55 600.08 116.16 599.65 112.76 599.13 C 112.29 591.07 112.70 583.06 112.69 575.00 C 112.88 505.34 112.72 435.66 112.74 366.00 C 112.71 360.06 112.59 354.14 113.08 348.21 C 114.02 336.96 112.94 325.75 114.28 314.52 C 115.23 298.83 117.82 283.37 121.19 268.03 C 129.41 235.32 143.93 204.16 164.11 177.11 C 169.60 170.25 175.17 163.46 180.61 156.57 C 189.53 146.92 199.17 137.78 209.13 129.20 C 213.16 125.86 217.53 122.89 221.70 119.70 C 231.91 111.73 243.46 105.17 254.63 98.61 C 269.87 90.50 285.78 83.73 302.16 78.25 C 320.59 72.89 338.78 68.35 357.98 66.79 C 365.35 66.31 372.60 65.38 380.00 65.51 Z" fill="#369899"/>
<path d="M 434.22 139.80 C 440.59 141.40 446.82 142.60 452.94 145.07 C 458.67 147.41 464.65 149.13 470.11 151.91 C 477.61 155.77 485.33 159.02 492.49 163.54 C 499.57 167.34 505.05 172.92 511.67 177.38 C 517.99 181.76 523.10 187.11 528.66 192.36 C 534.28 197.52 538.78 203.53 543.06 209.80 C 546.24 215.86 550.87 220.85 554.26 226.76 C 555.65 229.13 556.81 231.60 558.10 234.02 C 556.89 232.95 555.64 231.93 554.42 230.88 C 548.44 220.35 540.56 210.46 532.88 201.11 C 522.79 190.34 511.68 179.90 499.49 171.54 C 492.21 167.10 485.09 162.24 477.45 158.45 C 462.18 150.62 445.34 143.63 428.24 141.37 C 422.73 140.63 417.74 138.79 413.09 143.05 C 410.26 145.27 411.11 148.11 411.46 151.21 C 412.52 158.61 417.38 165.42 420.90 172.05 C 425.47 180.19 430.46 188.32 436.65 195.35 C 438.72 197.75 440.36 200.42 442.07 203.06 C 437.48 199.74 434.60 195.23 431.28 190.76 C 423.35 180.73 416.01 169.54 411.37 157.57 C 410.03 154.01 408.95 149.90 409.33 146.07 C 409.57 143.01 412.47 140.59 414.64 138.73 C 421.10 137.71 427.89 138.21 434.22 139.80 Z" fill="#7a5f5e"/>
<path d="M 414.64 138.73 C 412.47 140.59 409.57 143.01 409.33 146.07 C 408.95 149.90 410.03 154.01 411.37 157.57 C 416.01 169.54 423.35 180.73 431.28 190.76 C 434.60 195.23 437.48 199.74 442.07 203.06 C 444.86 205.56 447.47 208.19 449.91 211.04 C 455.50 217.50 461.55 223.52 467.83 229.31 L 468.37 231.28 L 468.20 232.20 L 466.27 232.10 C 451.79 219.08 439.23 204.19 427.43 188.74 C 421.04 178.59 414.24 170.00 410.25 158.90 C 408.47 153.97 407.25 147.80 408.84 142.70 C 409.71 139.94 412.23 139.54 414.64 138.73 Z" fill="#7d736c"/>
<path d="M 428.24 141.37 C 423.90 142.16 417.96 142.49 414.49 145.48 C 412.44 147.15 413.50 149.78 413.53 152.05 C 414.81 150.86 416.07 149.64 417.32 148.42 C 418.91 148.95 421.24 149.21 422.19 150.73 C 425.56 155.25 427.32 160.32 429.93 165.11 C 431.04 167.37 434.25 168.31 436.40 169.39 C 437.41 170.92 438.43 173.00 440.05 173.92 C 443.03 175.58 446.15 176.32 448.81 178.59 C 452.50 181.89 457.39 182.79 461.06 186.21 C 462.57 186.30 463.93 185.81 465.12 186.89 C 467.11 188.49 469.07 189.79 471.54 190.55 C 477.08 192.35 482.01 195.42 487.48 197.40 C 492.89 199.34 497.80 202.17 502.95 204.67 C 500.19 204.92 497.44 205.18 494.71 205.69 C 489.10 206.97 483.75 209.51 478.33 211.44 C 474.93 210.71 471.80 211.61 468.41 211.63 C 465.89 210.22 465.06 205.99 464.02 203.45 C 462.66 204.29 461.26 205.22 459.78 205.84 C 457.95 205.83 456.08 204.93 454.35 204.36 C 454.73 203.27 455.03 202.15 455.42 201.06 C 452.14 198.24 449.01 194.38 445.08 192.53 C 442.95 193.08 440.94 194.33 438.98 195.32 C 438.62 192.67 438.67 190.51 439.25 187.91 C 435.56 184.49 432.41 180.96 429.56 176.81 C 429.42 178.03 429.28 179.26 429.14 180.48 C 426.46 177.60 423.56 174.94 420.90 172.05 C 417.38 165.42 412.52 158.61 411.46 151.21 C 411.11 148.11 410.26 145.27 413.09 143.05 C 417.74 138.79 422.73 140.63 428.24 141.37 Z" fill="#cd3833"/>
<path d="M 347.45 141.56 C 351.23 141.21 356.27 141.20 359.44 143.57 C 361.62 145.74 361.49 149.42 359.83 151.88 C 356.65 156.91 350.49 160.42 345.48 163.43 C 338.40 167.76 330.92 170.92 323.28 174.08 C 310.92 178.48 299.45 182.33 286.09 180.86 C 283.64 180.52 281.18 179.31 280.59 176.71 C 280.13 172.42 282.72 168.55 285.98 166.01 C 295.85 158.46 306.48 152.29 318.20 148.09 C 327.61 143.90 337.36 142.88 347.45 141.56 Z" fill="#86588c"/>
<path d="M 428.24 141.37 C 445.34 143.63 462.18 150.62 477.45 158.45 C 485.09 162.24 492.21 167.10 499.49 171.54 C 511.68 179.90 522.79 190.34 532.88 201.11 C 540.56 210.46 548.44 220.35 554.42 230.88 C 553.52 231.66 552.64 232.46 551.76 233.25 C 550.79 233.04 549.83 232.82 548.86 232.62 C 548.71 236.70 549.57 240.07 551.10 243.84 C 549.72 242.57 548.32 241.32 546.99 240.00 C 545.35 237.96 543.68 235.93 542.11 233.83 C 535.86 224.66 527.91 217.09 517.97 212.03 C 511.23 206.35 503.19 205.70 494.71 205.69 C 497.44 205.18 500.19 204.92 502.95 204.67 C 497.80 202.17 492.89 199.34 487.48 197.40 C 482.01 195.42 477.08 192.35 471.54 190.55 C 469.07 189.79 467.11 188.49 465.12 186.89 C 463.93 185.81 462.57 186.30 461.06 186.21 C 457.39 182.79 452.50 181.89 448.81 178.59 C 446.15 176.32 443.03 175.58 440.05 173.92 C 438.43 173.00 437.41 170.92 436.40 169.39 C 434.25 168.31 431.04 167.37 429.93 165.11 C 427.32 160.32 425.56 155.25 422.19 150.73 C 421.24 149.21 418.91 148.95 417.32 148.42 C 416.07 149.64 414.81 150.86 413.53 152.05 C 413.50 149.78 412.44 147.15 414.49 145.48 C 417.96 142.49 423.90 142.16 428.24 141.37 Z" fill="#c62b29"/>
<path d="M 343.33 144.05 C 347.46 143.62 353.18 142.83 356.86 145.15 C 358.94 146.42 358.50 148.49 357.43 150.29 C 354.64 155.03 348.59 158.16 344.03 161.04 C 336.15 166.07 327.63 169.68 318.94 173.05 C 309.73 176.50 299.83 178.73 289.99 179.18 C 286.94 179.42 283.31 176.87 284.32 173.51 C 285.84 168.65 291.30 164.93 295.40 162.28 C 309.69 152.78 326.35 146.47 343.33 144.05 Z" fill="#da2986"/>
<path d="M 420.90 172.05 C 423.56 174.94 426.46 177.60 429.14 180.48 C 429.28 179.26 429.42 178.03 429.56 176.81 C 432.41 180.96 435.56 184.49 439.25 187.91 C 438.67 190.51 438.62 192.67 438.98 195.32 C 440.94 194.33 442.95 193.08 445.08 192.53 C 449.01 194.38 452.14 198.24 455.42 201.06 C 455.03 202.15 454.73 203.27 454.35 204.36 C 456.08 204.93 457.95 205.83 459.78 205.84 C 461.26 205.22 462.66 204.29 464.02 203.45 C 465.06 205.99 465.89 210.22 468.41 211.63 C 471.80 211.61 474.93 210.71 478.33 211.44 C 472.90 216.13 469.68 222.47 467.83 229.31 C 461.55 223.52 455.50 217.50 449.91 211.04 C 447.47 208.19 444.86 205.56 442.07 203.06 C 440.36 200.42 438.72 197.75 436.65 195.35 C 430.46 188.32 425.47 180.19 420.90 172.05 Z" fill="#ce4943"/>
<path d="M 494.71 205.69 C 503.19 205.70 511.23 206.35 517.97 212.03 L 517.20 211.71 C 512.99 210.01 508.61 208.50 504.12 207.76 C 499.56 207.01 495.22 207.71 490.77 208.76 C 484.33 210.20 478.57 214.35 474.58 219.53 C 472.14 222.83 470.32 226.62 468.74 230.40 L 468.37 231.28 L 467.83 229.31 C 469.68 222.47 472.90 216.13 478.33 211.44 C 483.75 209.51 489.10 206.97 494.71 205.69 Z" fill="#c8661f"/>
<path d="M 504.12 207.76 C 508.61 208.50 512.99 210.01 517.20 211.71 C 523.35 217.70 529.62 222.39 534.11 229.99 C 535.31 232.02 534.92 234.72 534.90 236.99 C 534.62 242.81 535.72 248.21 536.16 253.97 C 536.54 257.92 536.54 261.99 537.28 265.88 C 537.74 268.26 539.44 270.35 540.77 272.32 C 538.85 273.92 536.92 275.51 534.99 277.11 C 537.58 280.29 539.92 283.32 543.39 285.62 C 546.39 287.66 549.66 288.70 553.04 289.90 C 555.94 290.96 558.72 292.27 561.53 293.53 L 559.81 294.00 C 555.80 292.42 551.87 291.00 547.60 290.28 C 540.82 286.00 533.47 282.78 526.84 278.22 C 524.04 275.17 522.15 271.61 520.37 267.91 C 522.24 268.12 524.10 268.34 525.97 268.57 C 524.79 264.39 523.56 260.30 523.15 255.97 C 522.55 249.87 523.44 244.02 522.88 237.98 C 522.44 232.81 520.49 228.09 520.47 222.85 C 520.17 220.43 520.90 216.97 518.68 215.36 C 511.08 208.55 500.35 208.76 490.77 208.76 C 495.22 207.71 499.56 207.01 504.12 207.76 Z" fill="#e7b22e"/>
<path d="M 490.77 208.76 C 500.35 208.76 511.08 208.55 518.68 215.36 C 520.90 216.97 520.17 220.43 520.47 222.85 C 520.49 228.09 522.44 232.81 522.88 237.98 C 523.44 244.02 522.55 249.87 523.15 255.97 C 523.56 260.30 524.79 264.39 525.97 268.57 C 524.10 268.34 522.24 268.12 520.37 267.91 C 522.15 271.61 524.04 275.17 526.84 278.22 C 524.76 276.95 522.60 275.85 520.48 274.68 C 510.36 267.60 500.83 259.59 491.72 251.27 C 496.16 251.91 500.25 252.99 504.51 254.40 C 507.21 255.43 509.63 254.75 512.31 254.16 C 511.48 250.92 510.70 247.77 509.14 244.78 C 507.57 241.60 505.67 239.05 505.67 235.33 C 505.58 230.05 504.77 224.82 505.92 219.84 C 506.24 217.58 507.13 215.50 505.60 213.47 C 503.78 211.02 499.81 210.26 496.94 210.08 C 490.25 209.73 484.29 213.20 479.52 217.59 C 475.50 221.12 473.21 225.47 470.65 230.10 C 470.27 230.80 469.90 231.50 469.54 232.21 L 468.74 230.40 C 470.32 226.62 472.14 222.83 474.58 219.53 C 478.57 214.35 484.33 210.20 490.77 208.76 Z" fill="#eec320"/>
<path d="M 496.94 210.08 C 499.81 210.26 503.78 211.02 505.60 213.47 C 507.13 215.50 506.24 217.58 505.92 219.84 C 504.77 224.82 505.58 230.05 505.67 235.33 C 505.67 239.05 507.57 241.60 509.14 244.78 C 510.70 247.77 511.48 250.92 512.31 254.16 C 509.63 254.75 507.21 255.43 504.51 254.40 C 500.25 252.99 496.16 251.91 491.72 251.27 C 485.83 247.65 481.17 242.75 475.63 238.68 C 472.73 236.27 471.00 234.00 470.65 230.10 C 473.21 225.47 475.50 221.12 479.52 217.59 C 484.29 213.20 490.25 209.73 496.94 210.08 Z" fill="#f4d315"/>
<path d="M 543.06 209.80 C 545.01 211.59 546.97 213.27 548.50 215.45 C 553.94 223.25 558.47 231.44 563.35 239.56 C 566.67 245.06 568.60 250.90 571.10 256.77 C 573.63 262.78 575.77 268.99 577.51 275.27 C 579.12 282.23 579.85 289.26 575.91 295.61 C 572.42 295.58 568.66 295.31 565.25 296.10 C 562.94 297.35 563.03 301.65 562.50 303.92 C 561.70 312.45 556.27 319.55 550.06 325.06 C 547.17 327.67 543.76 328.33 540.09 329.21 C 545.91 326.38 551.26 323.45 555.11 318.06 C 560.40 310.77 561.96 302.65 563.13 293.91 C 566.98 293.67 570.83 293.57 574.69 293.52 C 575.89 284.75 575.58 275.10 572.39 266.76 C 570.80 262.43 569.85 258.11 567.93 253.97 C 564.70 247.24 562.25 240.30 558.10 234.02 C 556.81 231.60 555.65 229.13 554.26 226.76 C 550.87 220.85 546.24 215.86 543.06 209.80 Z" fill="#74716c"/>
<path d="M 517.20 211.71 L 517.97 212.03 C 527.91 217.09 535.86 224.66 542.11 233.83 C 546.45 243.11 549.84 252.48 549.97 262.87 C 549.97 266.64 550.51 270.35 550.72 274.10 C 550.93 277.33 548.45 280.57 548.30 283.69 C 548.79 286.28 551.08 288.32 553.04 289.90 C 549.66 288.70 546.39 287.66 543.39 285.62 C 539.92 283.32 537.58 280.29 534.99 277.11 C 536.92 275.51 538.85 273.92 540.77 272.32 C 539.44 270.35 537.74 268.26 537.28 265.88 C 536.54 261.99 536.54 257.92 536.16 253.97 C 535.72 248.21 534.62 242.81 534.90 236.99 C 534.92 234.72 535.31 232.02 534.11 229.99 C 529.62 222.39 523.35 217.70 517.20 211.71 Z" fill="#dfa03e"/>
<path d="M 254.70 215.79 C 255.86 216.64 257.02 217.49 258.19 218.34 C 256.14 221.29 254.70 224.63 251.34 226.24 C 247.46 228.12 245.31 231.34 242.05 234.08 C 238.55 237.15 237.34 241.62 234.02 244.98 C 229.64 249.34 225.65 253.99 221.83 258.84 C 219.36 261.68 219.89 265.65 219.06 269.14 C 218.52 272.48 214.84 275.04 213.89 278.09 C 213.56 282.36 215.14 286.72 215.21 291.03 C 215.40 294.07 214.16 296.42 213.10 299.16 C 211.95 302.00 211.36 304.94 210.85 307.95 C 212.20 309.59 213.85 311.31 214.61 313.30 C 215.47 317.50 214.49 322.25 215.65 326.39 C 216.52 329.06 220.39 330.42 222.64 331.71 C 222.79 334.02 222.93 336.33 223.06 338.65 C 223.62 338.27 224.19 337.89 224.75 337.51 C 226.05 344.60 229.86 351.08 235.72 355.34 C 239.56 358.24 241.55 362.64 245.20 365.83 C 247.93 368.23 250.43 371.69 253.75 373.22 C 259.58 375.45 265.56 377.11 271.84 377.29 L 271.80 377.81 C 269.42 378.00 267.05 378.20 264.67 378.45 C 266.78 380.12 268.66 381.26 271.40 381.54 C 277.55 382.18 282.26 385.57 288.54 385.12 C 289.41 386.95 290.16 389.02 291.45 390.59 C 292.71 391.68 294.29 392.47 295.73 393.30 C 295.91 392.14 296.08 390.99 296.23 389.83 C 296.70 390.65 297.17 391.46 297.64 392.27 C 300.89 398.10 303.86 403.94 308.07 409.17 C 307.81 410.16 307.56 411.16 307.30 412.15 C 302.80 405.42 295.76 399.77 287.83 397.78 C 283.51 396.43 279.57 394.45 275.00 393.94 C 269.60 393.16 264.50 391.13 259.19 389.68 C 255.97 388.77 253.90 386.67 251.19 384.89 C 248.42 383.03 244.89 382.51 242.10 380.88 C 239.96 379.08 238.55 376.37 236.65 374.30 C 233.72 370.94 228.90 369.34 226.14 365.92 C 223.82 362.44 222.68 358.39 219.96 355.09 C 215.99 350.13 212.07 345.56 209.17 339.81 C 207.48 336.44 207.43 332.96 206.26 329.52 C 204.86 326.62 202.13 325.03 201.52 321.73 C 200.87 317.78 198.69 314.46 198.58 310.49 C 198.42 307.89 198.11 305.35 197.57 302.79 C 194.99 313.29 196.23 325.12 195.76 336.00 C 195.42 342.61 196.06 349.12 196.38 355.71 C 196.28 360.85 196.19 365.94 196.97 371.04 C 194.69 363.49 194.78 355.90 193.85 348.15 C 192.94 340.39 193.27 332.79 193.15 325.00 C 193.04 318.16 194.19 311.71 195.06 304.95 C 196.62 295.26 198.56 285.68 201.27 276.25 C 202.37 270.19 204.82 264.81 207.32 259.25 C 210.96 249.58 216.03 239.82 222.98 232.10 C 227.11 227.40 231.72 222.33 237.06 218.99 C 242.21 215.80 248.82 215.71 254.70 215.79 Z" fill="#5579b9"/>
<path d="M 254.70 215.79 C 258.70 215.89 262.37 217.06 266.12 218.33 C 266.76 219.64 267.21 221.54 268.37 222.48 C 270.74 223.76 273.49 224.38 276.02 225.29 C 274.30 227.64 272.84 229.83 269.96 230.86 C 264.10 233.11 260.09 237.59 253.72 238.77 C 251.07 241.88 247.67 243.34 244.18 245.25 C 240.82 246.89 240.78 251.22 239.16 254.27 C 236.39 259.39 233.48 264.47 230.38 269.40 C 228.55 272.31 228.40 275.37 227.44 278.62 C 226.29 282.66 224.70 286.29 224.35 290.55 C 223.83 295.38 225.14 299.89 224.42 304.68 C 224.29 306.33 223.77 308.27 224.22 309.89 C 227.10 318.39 230.78 326.51 234.46 334.68 C 235.89 337.54 238.36 340.07 240.30 342.64 C 244.00 347.49 247.61 352.65 252.82 356.02 C 262.33 362.06 274.06 366.09 283.30 372.61 C 286.46 374.78 288.75 377.71 290.83 380.89 C 290.56 378.19 290.36 375.49 290.08 372.79 C 291.03 376.30 292.32 379.75 293.59 383.16 C 294.43 385.40 295.32 387.62 296.23 389.83 C 296.08 390.99 295.91 392.14 295.73 393.30 C 294.29 392.47 292.71 391.68 291.45 390.59 C 290.16 389.02 289.41 386.95 288.54 385.12 C 282.26 385.57 277.55 382.18 271.40 381.54 C 268.66 381.26 266.78 380.12 264.67 378.45 C 267.05 378.20 269.42 378.00 271.80 377.81 L 271.84 377.29 C 265.56 377.11 259.58 375.45 253.75 373.22 C 250.43 371.69 247.93 368.23 245.20 365.83 C 241.55 362.64 239.56 358.24 235.72 355.34 C 229.86 351.08 226.05 344.60 224.75 337.51 C 224.19 337.89 223.62 338.27 223.06 338.65 C 222.93 336.33 222.79 334.02 222.64 331.71 C 220.39 330.42 216.52 329.06 215.65 326.39 C 214.49 322.25 215.47 317.50 214.61 313.30 C 213.85 311.31 212.20 309.59 210.85 307.95 C 211.36 304.94 211.95 302.00 213.10 299.16 C 214.16 296.42 215.40 294.07 215.21 291.03 C 215.14 286.72 213.56 282.36 213.89 278.09 C 214.84 275.04 218.52 272.48 219.06 269.14 C 219.89 265.65 219.36 261.68 221.83 258.84 C 225.65 253.99 229.64 249.34 234.02 244.98 C 237.34 241.62 238.55 237.15 242.05 234.08 C 245.31 231.34 247.46 228.12 251.34 226.24 C 254.70 224.63 256.14 221.29 258.19 218.34 C 257.02 217.49 255.86 216.64 254.70 215.79 Z" fill="#5882c0"/>
<path d="M 266.12 218.33 C 270.96 219.47 274.85 220.97 279.10 223.55 L 277.22 224.23 C 280.14 226.78 283.64 228.71 286.39 231.43 C 285.97 236.69 280.31 239.56 276.09 241.54 C 269.95 243.98 264.47 247.48 258.79 250.80 C 256.30 252.17 255.40 254.63 253.72 256.86 C 251.92 259.45 249.37 261.16 247.44 263.55 C 246.56 264.85 246.31 266.63 245.84 268.12 C 244.71 272.49 239.87 275.38 239.39 280.13 C 238.85 284.83 238.29 289.44 237.31 294.08 C 236.37 300.88 236.46 308.72 240.30 314.69 C 242.94 318.91 241.00 324.24 244.75 327.21 C 246.55 329.00 248.73 330.72 250.19 332.77 C 252.40 335.93 253.56 339.93 256.23 342.77 C 259.81 346.50 264.40 348.81 269.02 350.95 C 274.03 353.23 278.59 356.75 282.87 360.18 C 285.45 362.29 286.50 365.04 287.89 367.96 C 287.95 366.43 288.01 364.90 288.09 363.37 L 288.90 362.65 C 289.22 366.04 289.65 369.42 290.08 372.79 C 290.36 375.49 290.56 378.19 290.83 380.89 C 288.75 377.71 286.46 374.78 283.30 372.61 C 274.06 366.09 262.33 362.06 252.82 356.02 C 247.61 352.65 244.00 347.49 240.30 342.64 C 238.36 340.07 235.89 337.54 234.46 334.68 C 230.78 326.51 227.10 318.39 224.22 309.89 C 223.77 308.27 224.29 306.33 224.42 304.68 C 225.14 299.89 223.83 295.38 224.35 290.55 C 224.70 286.29 226.29 282.66 227.44 278.62 C 228.40 275.37 228.55 272.31 230.38 269.40 C 233.48 264.47 236.39 259.39 239.16 254.27 C 240.78 251.22 240.82 246.89 244.18 245.25 C 247.67 243.34 251.07 241.88 253.72 238.77 C 260.09 237.59 264.10 233.11 269.96 230.86 C 272.84 229.83 274.30 227.64 276.02 225.29 C 273.49 224.38 270.74 223.76 268.37 222.48 C 267.21 221.54 266.76 219.64 266.12 218.33 Z" fill="#5d8bc7"/>
<path d="M 277.22 224.23 L 279.10 223.55 C 287.67 227.66 294.91 233.52 301.93 239.84 L 300.50 240.09 C 301.67 242.27 302.99 244.34 304.30 246.45 C 298.99 249.98 293.06 250.02 287.33 252.38 C 283.65 253.84 279.51 254.20 276.21 256.19 C 273.50 257.82 270.75 259.43 268.15 261.23 C 264.67 263.65 262.67 267.88 260.22 271.28 C 258.06 274.51 255.08 277.28 254.10 281.07 C 253.12 284.81 252.19 288.63 251.48 292.43 C 250.91 295.40 252.03 298.30 252.52 301.22 C 253.30 305.15 252.75 309.01 253.22 312.90 C 253.71 315.65 255.87 318.22 257.43 320.48 C 261.15 325.30 264.16 330.14 269.14 333.71 C 273.29 336.68 276.18 340.79 280.65 343.37 C 284.50 345.41 285.16 350.39 286.52 354.16 C 286.70 350.36 287.06 346.58 287.90 342.86 C 287.79 349.70 288.01 356.54 288.09 363.37 C 288.01 364.90 287.95 366.43 287.89 367.96 C 286.50 365.04 285.45 362.29 282.87 360.18 C 278.59 356.75 274.03 353.23 269.02 350.95 C 264.40 348.81 259.81 346.50 256.23 342.77 C 253.56 339.93 252.40 335.93 250.19 332.77 C 248.73 330.72 246.55 329.00 244.75 327.21 C 241.00 324.24 242.94 318.91 240.30 314.69 C 236.46 308.72 236.37 300.88 237.31 294.08 C 238.29 289.44 238.85 284.83 239.39 280.13 C 239.87 275.38 244.71 272.49 245.84 268.12 C 246.31 266.63 246.56 264.85 247.44 263.55 C 249.37 261.16 251.92 259.45 253.72 256.86 C 255.40 254.63 256.30 252.17 258.79 250.80 C 264.47 247.48 269.95 243.98 276.09 241.54 C 280.31 239.56 285.97 236.69 286.39 231.43 C 283.64 228.71 280.14 226.78 277.22 224.23 Z" fill="#6295ce"/>
<path d="M 470.65 230.10 C 471.00 234.00 472.73 236.27 475.63 238.68 C 476.54 242.50 478.42 245.62 480.77 248.72 C 484.25 253.24 482.79 260.48 485.22 264.98 C 487.38 267.99 490.71 270.35 494.02 271.95 C 499.37 274.38 506.39 272.02 511.64 272.96 C 514.61 273.47 517.60 275.76 520.48 274.68 C 522.60 275.85 524.76 276.95 526.84 278.22 C 533.47 282.78 540.82 286.00 547.60 290.28 L 548.27 290.85 C 537.78 288.83 528.42 282.26 518.27 278.79 C 516.79 280.23 515.30 281.67 513.82 283.11 C 509.49 282.39 505.11 282.01 500.78 281.29 C 496.40 280.55 493.04 278.23 488.51 278.19 C 485.48 277.94 481.55 278.30 478.86 276.79 C 477.64 275.07 476.87 273.02 475.85 271.17 C 475.15 270.77 474.44 270.38 473.72 270.01 C 474.14 274.94 476.36 279.34 476.86 284.26 C 472.78 276.42 470.26 268.56 469.34 259.74 C 467.89 250.51 468.75 241.45 469.54 232.21 C 469.90 231.50 470.27 230.80 470.65 230.10 Z" fill="#f6e322"/>
<path d="M 468.37 231.28 L 468.74 230.40 L 469.54 232.21 C 468.75 241.45 467.89 250.51 469.34 259.74 C 470.26 268.56 472.78 276.42 476.86 284.26 C 480.85 293.19 486.16 301.95 493.12 308.88 C 497.61 313.54 502.70 317.41 508.10 320.95 C 510.47 322.49 513.06 323.50 515.73 324.36 C 520.46 326.12 524.81 328.05 529.97 328.18 C 537.49 328.69 545.16 325.81 550.45 320.44 C 553.62 316.86 555.57 312.09 557.78 307.87 C 560.18 303.30 560.61 298.51 561.53 293.53 L 563.13 293.91 C 561.96 302.65 560.40 310.77 555.11 318.06 C 551.26 323.45 545.91 326.38 540.09 329.21 C 534.07 329.12 527.69 329.50 521.79 328.17 C 506.40 324.04 493.92 314.07 484.71 301.27 C 469.87 281.92 463.81 256.16 468.20 232.20 L 468.37 231.28 Z" fill="#b3c752"/>
<path d="M 554.42 230.88 C 555.64 231.93 556.89 232.95 558.10 234.02 C 562.25 240.30 564.70 247.24 567.93 253.97 C 569.85 258.11 570.80 262.43 572.39 266.76 C 575.58 275.10 575.89 284.75 574.69 293.52 C 570.83 293.57 566.98 293.67 563.13 293.91 C 562.47 283.97 561.45 274.25 558.21 264.76 C 555.48 256.02 551.31 248.03 546.99 240.00 C 548.32 241.32 549.72 242.57 551.10 243.84 C 549.57 240.07 548.71 236.70 548.86 232.62 C 549.83 232.82 550.79 233.04 551.76 233.25 C 552.64 232.46 553.52 231.66 554.42 230.88 Z" fill="#c9463e"/>
<path d="M 466.27 232.10 L 468.20 232.20 C 463.81 256.16 469.87 281.92 484.71 301.27 C 493.92 314.07 506.40 324.04 521.79 328.17 C 527.69 329.50 534.07 329.12 540.09 329.21 C 536.72 330.03 533.55 330.85 530.03 330.69 C 520.97 330.07 512.41 327.15 504.80 322.20 C 493.13 315.91 485.25 305.67 478.25 294.71 C 473.24 287.93 471.11 280.40 468.47 272.54 C 465.85 264.55 465.03 256.35 464.74 248.00 C 464.58 242.66 465.08 237.30 466.27 232.10 Z" fill="#5ea36a"/>
<path d="M 542.11 233.83 C 543.68 235.93 545.35 237.96 546.99 240.00 C 551.31 248.03 555.48 256.02 558.21 264.76 C 561.45 274.25 562.47 283.97 563.13 293.91 L 561.53 293.53 C 558.72 292.27 555.94 290.96 553.04 289.90 C 551.08 288.32 548.79 286.28 548.30 283.69 C 548.45 280.57 550.93 277.33 550.72 274.10 C 550.51 270.35 549.97 266.64 549.97 262.87 C 549.84 252.48 546.45 243.11 542.11 233.83 Z" fill="#d38f4d"/>
<path d="M 475.63 238.68 C 481.17 242.75 485.83 247.65 491.72 251.27 C 500.83 259.59 510.36 267.60 520.48 274.68 C 517.60 275.76 514.61 273.47 511.64 272.96 C 506.39 272.02 499.37 274.38 494.02 271.95 C 490.71 270.35 487.38 267.99 485.22 264.98 C 482.79 260.48 484.25 253.24 480.77 248.72 C 478.42 245.62 476.54 242.50 475.63 238.68 Z" fill="#f8e932"/>
<path d="M 300.50 240.09 L 301.93 239.84 C 313.08 249.30 322.87 260.43 331.61 272.11 C 330.54 273.33 329.52 274.56 328.39 275.72 C 322.51 272.21 316.72 272.76 310.22 270.96 C 306.24 270.16 302.85 267.93 299.00 266.86 C 296.33 267.37 293.79 269.51 291.00 269.81 C 287.08 270.40 283.60 270.00 280.05 272.06 C 276.75 274.01 273.15 276.66 271.26 280.06 C 270.75 283.15 271.85 286.62 272.21 289.71 C 270.56 290.34 268.92 290.96 267.27 291.58 C 267.00 295.78 266.36 300.53 267.44 304.63 C 268.58 307.99 271.37 310.92 273.33 313.87 C 272.63 318.67 276.58 321.14 280.72 322.11 C 284.92 322.94 288.50 324.13 292.07 326.54 C 290.61 331.95 289.20 337.41 287.90 342.86 C 287.06 346.58 286.70 350.36 286.52 354.16 C 285.16 350.39 284.50 345.41 280.65 343.37 C 276.18 340.79 273.29 336.68 269.14 333.71 C 264.16 330.14 261.15 325.30 257.43 320.48 C 255.87 318.22 253.71 315.65 253.22 312.90 C 252.75 309.01 253.30 305.15 252.52 301.22 C 252.03 298.30 250.91 295.40 251.48 292.43 C 252.19 288.63 253.12 284.81 254.10 281.07 C 255.08 277.28 258.06 274.51 260.22 271.28 C 262.67 267.88 264.67 263.65 268.15 261.23 C 270.75 259.43 273.50 257.82 276.21 256.19 C 279.51 254.20 283.65 253.84 287.33 252.38 C 293.06 250.02 298.99 249.98 304.30 246.45 C 302.99 244.34 301.67 242.27 300.50 240.09 Z" fill="#669ed5"/>
<path d="M 382.79 261.98 C 389.71 262.79 395.91 262.35 402.59 264.30 C 408.20 265.92 413.53 267.11 418.55 270.25 C 424.17 273.72 429.75 275.86 434.82 280.13 C 441.32 285.81 447.67 291.50 452.44 298.77 C 450.32 298.16 448.22 297.53 446.15 296.75 C 448.83 299.71 450.86 302.80 452.02 306.65 C 453.00 307.54 454.00 308.42 455.00 309.30 C 453.69 310.01 452.50 311.80 450.88 310.96 C 447.00 309.56 443.50 308.75 439.34 308.61 C 439.12 306.89 438.85 305.16 438.63 303.43 C 430.15 302.66 422.30 299.57 414.97 295.37 C 414.48 296.05 413.99 296.72 413.51 297.39 C 412.70 295.92 411.94 294.36 410.92 293.04 C 407.83 291.67 403.89 291.94 400.56 291.62 C 400.03 290.25 399.49 288.87 398.96 287.50 C 393.21 288.32 387.26 287.07 381.82 288.75 C 376.31 290.35 370.58 290.57 364.97 291.82 C 359.26 292.99 353.72 293.41 348.14 291.37 C 348.63 293.01 349.12 294.65 349.59 296.29 C 347.67 294.57 345.71 292.86 343.89 291.03 C 340.57 285.81 337.19 280.62 333.80 275.43 C 336.65 271.93 341.03 270.91 345.01 268.92 C 351.76 265.60 358.61 264.41 365.89 262.61 C 371.47 261.28 377.12 261.34 382.79 261.98 Z" fill="#6b579f"/>
<path d="M 299.00 266.86 C 302.85 267.93 306.24 270.16 310.22 270.96 C 316.72 272.76 322.51 272.21 328.39 275.72 C 317.64 283.53 308.88 293.59 301.84 304.80 C 297.97 311.15 294.65 317.78 292.59 324.95 L 292.07 326.54 C 288.50 324.13 284.92 322.94 280.72 322.11 C 276.58 321.14 272.63 318.67 273.33 313.87 C 271.37 310.92 268.58 307.99 267.44 304.63 C 266.36 300.53 267.00 295.78 267.27 291.58 C 268.92 290.96 270.56 290.34 272.21 289.71 C 271.85 286.62 270.75 283.15 271.26 280.06 C 273.15 276.66 276.75 274.01 280.05 272.06 C 283.60 270.00 287.08 270.40 291.00 269.81 C 293.79 269.51 296.33 267.37 299.00 266.86 Z" fill="#6ea9dd"/>
<path d="M 473.72 270.01 C 474.44 270.38 475.15 270.77 475.85 271.17 C 476.87 273.02 477.64 275.07 478.86 276.79 C 481.55 278.30 485.48 277.94 488.51 278.19 C 493.04 278.23 496.40 280.55 500.78 281.29 C 505.11 282.01 509.49 282.39 513.82 283.11 C 515.30 281.67 516.79 280.23 518.27 278.79 C 528.42 282.26 537.78 288.83 548.27 290.85 C 549.66 292.02 550.98 293.27 552.33 294.50 C 547.50 298.51 543.24 302.69 537.62 305.68 C 533.49 307.84 529.21 310.38 524.67 311.54 C 519.59 312.77 514.88 311.38 509.97 311.70 C 507.59 312.15 505.44 314.29 503.50 315.68 C 502.45 314.12 501.47 312.25 500.01 311.05 C 497.33 309.17 494.44 308.29 492.08 305.88 C 487.54 301.41 484.59 295.18 481.45 289.58 C 480.24 287.48 480.47 285.38 480.41 283.06 C 479.23 283.46 478.05 283.86 476.86 284.26 C 476.36 279.34 474.14 274.94 473.72 270.01 Z" fill="#f5df12"/>
<path d="M 331.61 272.11 C 332.29 273.36 332.80 274.64 333.35 275.95 C 332.58 276.92 331.84 277.91 331.10 278.90 C 335.43 280.94 338.94 283.61 340.24 288.44 C 340.07 291.45 338.57 294.30 338.33 297.35 C 337.82 302.94 337.51 308.54 336.70 314.11 C 335.85 313.17 334.99 312.22 334.13 311.28 C 330.96 315.38 327.92 318.97 323.21 321.39 C 317.80 325.38 312.12 328.04 305.26 327.82 C 301.68 326.26 298.50 323.73 295.15 321.73 C 294.28 322.80 293.42 323.86 292.59 324.95 C 294.65 317.78 297.97 311.15 301.84 304.80 C 308.88 293.59 317.64 283.53 328.39 275.72 C 329.52 274.56 330.54 273.33 331.61 272.11 Z" fill="#5f86c4"/>
<path d="M 333.35 275.95 L 333.80 275.43 C 337.19 280.62 340.57 285.81 343.89 291.03 C 345.74 295.19 347.86 299.02 350.19 302.91 C 350.52 303.84 350.84 304.78 351.14 305.73 C 351.32 308.63 351.15 311.35 349.94 314.03 C 348.26 317.86 347.45 321.89 346.73 325.99 C 345.81 325.49 344.88 324.99 343.96 324.48 C 342.32 327.68 340.55 331.44 337.86 333.87 C 334.93 336.40 331.36 337.72 328.60 340.55 C 327.38 341.60 326.24 343.16 324.74 343.76 C 322.23 344.24 319.55 344.09 316.99 344.08 C 309.47 343.89 301.95 344.19 294.43 343.84 C 294.10 342.19 293.77 340.53 293.43 338.88 C 292.16 339.81 289.86 340.75 289.51 342.41 C 288.54 346.23 288.85 350.54 289.19 354.44 C 289.12 357.17 288.93 359.91 288.90 362.65 L 288.09 363.37 C 288.01 356.54 287.79 349.70 287.90 342.86 C 289.20 337.41 290.61 331.95 292.07 326.54 L 292.59 324.95 C 293.42 323.86 294.28 322.80 295.15 321.73 C 298.50 323.73 301.68 326.26 305.26 327.82 C 312.12 328.04 317.80 325.38 323.21 321.39 C 327.92 318.97 330.96 315.38 334.13 311.28 C 334.99 312.22 335.85 313.17 336.70 314.11 C 337.51 308.54 337.82 302.94 338.33 297.35 C 338.57 294.30 340.07 291.45 340.24 288.44 C 338.94 283.61 335.43 280.94 331.10 278.90 C 331.84 277.91 332.58 276.92 333.35 275.95 Z" fill="#5a7dbd"/>
<path d="M 480.41 283.06 C 480.47 285.38 480.24 287.48 481.45 289.58 C 484.59 295.18 487.54 301.41 492.08 305.88 C 494.44 308.29 497.33 309.17 500.01 311.05 C 501.47 312.25 502.45 314.12 503.50 315.68 C 505.44 314.29 507.59 312.15 509.97 311.70 C 514.88 311.38 519.59 312.77 524.67 311.54 C 529.21 310.38 533.49 307.84 537.62 305.68 C 543.24 302.69 547.50 298.51 552.33 294.50 C 550.98 293.27 549.66 292.02 548.27 290.85 L 547.60 290.28 C 551.87 291.00 555.80 292.42 559.81 294.00 C 558.49 295.21 557.23 296.50 555.99 297.79 C 555.44 300.42 554.77 303.02 554.02 305.61 C 551.06 305.65 547.27 304.33 545.23 307.19 C 541.54 311.40 537.01 314.37 532.42 317.47 C 530.44 318.99 527.80 318.15 525.51 317.98 C 524.80 319.68 524.09 321.39 523.37 323.09 C 524.51 324.12 525.64 325.16 526.78 326.18 C 523.13 325.37 519.44 324.85 515.73 324.36 C 513.06 323.50 510.47 322.49 508.10 320.95 C 502.70 317.41 497.61 313.54 493.12 308.88 C 486.16 301.95 480.85 293.19 476.86 284.26 C 478.05 283.86 479.23 283.46 480.41 283.06 Z" fill="#eccd1e"/>
<path d="M 398.96 287.50 C 399.49 288.87 400.03 290.25 400.56 291.62 C 403.89 291.94 407.83 291.67 410.92 293.04 C 411.94 294.36 412.70 295.92 413.51 297.39 C 413.99 296.72 414.48 296.05 414.97 295.37 C 422.30 299.57 430.15 302.66 438.63 303.43 C 438.85 305.16 439.12 306.89 439.34 308.61 C 443.50 308.75 447.00 309.56 450.88 310.96 C 452.50 311.80 453.69 310.01 455.00 309.30 C 454.00 308.42 453.00 307.54 452.02 306.65 C 450.86 302.80 448.83 299.71 446.15 296.75 C 448.22 297.53 450.32 298.16 452.44 298.77 C 456.06 301.97 457.38 305.92 460.09 309.97 C 462.18 313.12 463.18 316.63 464.19 320.24 C 465.72 325.70 468.18 330.55 469.27 336.00 C 470.05 339.78 469.97 343.39 470.13 347.21 C 469.03 344.31 467.79 341.46 466.64 338.57 C 465.42 339.38 464.18 340.25 462.86 340.90 C 457.10 339.74 455.58 333.68 452.35 329.62 C 449.47 325.73 444.98 325.58 441.52 322.60 C 437.17 318.64 432.81 314.50 428.01 311.09 C 421.56 307.58 414.23 305.52 407.51 302.57 C 404.85 301.44 402.22 300.07 399.29 299.86 C 395.79 299.61 392.30 299.74 388.82 299.25 C 383.95 298.61 379.48 297.69 374.53 298.37 C 370.96 298.81 367.92 300.27 364.71 301.74 C 360.14 304.26 355.72 302.12 350.19 302.91 C 347.86 299.02 345.74 295.19 343.89 291.03 C 345.71 292.86 347.67 294.57 349.59 296.29 C 349.12 294.65 348.63 293.01 348.14 291.37 C 353.72 293.41 359.26 292.99 364.97 291.82 C 370.58 290.57 376.31 290.35 381.82 288.75 C 387.26 287.07 393.21 288.32 398.96 287.50 Z" fill="#725ea5"/>
<path d="M 559.81 294.00 L 561.53 293.53 C 560.61 298.51 560.18 303.30 557.78 307.87 C 555.57 312.09 553.62 316.86 550.45 320.44 C 545.16 325.81 537.49 328.69 529.97 328.18 C 524.81 328.05 520.46 326.12 515.73 324.36 C 519.44 324.85 523.13 325.37 526.78 326.18 C 525.64 325.16 524.51 324.12 523.37 323.09 C 524.09 321.39 524.80 319.68 525.51 317.98 C 527.80 318.15 530.44 318.99 532.42 317.47 C 537.01 314.37 541.54 311.40 545.23 307.19 C 547.27 304.33 551.06 305.65 554.02 305.61 C 554.77 303.02 555.44 300.42 555.99 297.79 C 557.23 296.50 558.49 295.21 559.81 294.00 Z" fill="#e1c32b"/>
<path d="M 388.82 299.25 C 392.30 299.74 395.79 299.61 399.29 299.86 C 402.22 300.07 404.85 301.44 407.51 302.57 C 414.23 305.52 421.56 307.58 428.01 311.09 C 432.81 314.50 437.17 318.64 441.52 322.60 C 444.98 325.58 449.47 325.73 452.35 329.62 C 455.58 333.68 457.10 339.74 462.86 340.90 C 464.18 340.25 465.42 339.38 466.64 338.57 C 467.79 341.46 469.03 344.31 470.13 347.21 C 471.15 356.83 469.60 366.14 467.05 375.39 C 466.35 373.56 465.65 371.74 464.88 369.94 C 462.78 368.39 461.13 366.56 459.61 364.44 C 460.71 363.23 461.80 362.02 462.89 360.81 C 459.78 357.68 456.54 354.69 453.44 351.55 C 450.15 348.36 450.16 343.76 447.05 340.29 C 444.52 337.45 443.31 333.88 441.09 330.87 C 438.63 328.43 434.83 327.39 432.38 324.72 C 431.03 323.43 429.82 321.63 428.16 320.76 C 425.41 319.66 422.33 319.34 419.48 318.50 C 412.72 316.60 407.18 312.84 401.04 310.07 C 397.37 308.36 392.94 309.22 388.93 308.97 C 385.21 308.90 381.80 307.30 378.17 307.02 C 375.99 307.76 374.05 309.15 371.88 309.82 C 366.94 310.62 361.50 309.28 356.60 310.36 C 354.86 310.98 355.61 313.91 355.39 315.36 C 353.82 312.20 352.16 309.13 351.14 305.73 C 350.84 304.78 350.52 303.84 350.19 302.91 C 355.72 302.12 360.14 304.26 364.71 301.74 C 367.92 300.27 370.96 298.81 374.53 298.37 C 379.48 297.69 383.95 298.61 388.82 299.25 Z" fill="#7965aa"/>
<path d="M 197.57 302.79 C 198.11 305.35 198.42 307.89 198.58 310.49 C 198.69 314.46 200.87 317.78 201.52 321.73 C 202.13 325.03 204.86 326.62 206.26 329.52 C 207.43 332.96 207.48 336.44 209.17 339.81 C 212.07 345.56 215.99 350.13 219.96 355.09 C 222.68 358.39 223.82 362.44 226.14 365.92 C 228.90 369.34 233.72 370.94 236.65 374.30 C 238.55 376.37 239.96 379.08 242.10 380.88 C 244.89 382.51 248.42 383.03 251.19 384.89 C 253.90 386.67 255.97 388.77 259.19 389.68 C 264.50 391.13 269.60 393.16 275.00 393.94 C 279.57 394.45 283.51 396.43 287.83 397.78 C 295.76 399.77 302.80 405.42 307.30 412.15 C 307.56 411.16 307.81 410.16 308.07 409.17 C 310.53 412.32 313.21 415.27 316.23 417.89 C 316.10 418.84 315.97 419.79 315.85 420.74 C 313.27 419.05 311.02 418.15 308.02 417.50 C 303.73 416.67 301.78 412.94 297.84 411.35 C 294.38 410.33 289.48 413.69 286.51 411.32 C 284.64 410.33 282.52 408.21 280.32 408.51 C 277.86 408.48 274.97 409.07 272.64 408.25 C 266.68 406.10 260.40 404.52 254.23 403.09 C 250.05 398.88 244.92 398.10 239.62 396.07 C 239.82 395.14 240.03 394.21 240.24 393.28 C 236.44 391.72 232.52 390.16 228.96 388.11 C 225.01 385.94 223.39 382.24 219.76 379.31 C 214.63 375.13 211.09 370.11 206.88 365.07 C 203.97 361.53 199.86 358.76 196.38 355.71 C 196.06 349.12 195.42 342.61 195.76 336.00 C 196.23 325.12 194.99 313.29 197.57 302.79 Z" fill="#506eb1"/>
<path d="M 351.14 305.73 C 352.16 309.13 353.82 312.20 355.39 315.36 C 356.22 317.27 357.04 319.17 357.76 321.12 C 358.16 322.34 358.57 323.54 359.02 324.73 C 358.36 325.50 357.71 326.27 357.06 327.04 C 360.85 333.35 359.47 339.35 359.01 346.24 C 356.80 346.44 354.59 346.67 352.38 346.93 C 351.10 348.98 349.89 351.54 347.98 353.07 C 345.68 354.37 342.59 354.29 340.12 355.25 C 338.09 356.30 336.49 358.09 334.37 359.06 C 331.73 360.26 328.97 361.25 326.22 362.19 C 323.22 363.32 320.37 362.42 317.24 362.29 C 313.13 362.03 309.52 363.50 305.64 364.56 C 301.87 365.64 298.05 365.37 294.16 365.30 C 294.07 364.29 293.97 363.28 293.88 362.27 C 293.17 363.20 292.47 364.13 291.77 365.07 C 291.50 361.28 290.93 357.86 289.19 354.44 C 288.85 350.54 288.54 346.23 289.51 342.41 C 289.86 340.75 292.16 339.81 293.43 338.88 C 293.77 340.53 294.10 342.19 294.43 343.84 C 301.95 344.19 309.47 343.89 316.99 344.08 C 319.55 344.09 322.23 344.24 324.74 343.76 C 326.24 343.16 327.38 341.60 328.60 340.55 C 331.36 337.72 334.93 336.40 337.86 333.87 C 340.55 331.44 342.32 327.68 343.96 324.48 C 344.88 324.99 345.81 325.49 346.73 325.99 C 347.45 321.89 348.26 317.86 349.94 314.03 C 351.15 311.35 351.32 308.63 351.14 305.73 Z" fill="#5572b6"/>
<path d="M 378.17 307.02 C 381.80 307.30 385.21 308.90 388.93 308.97 C 392.94 309.22 397.37 308.36 401.04 310.07 C 407.18 312.84 412.72 316.60 419.48 318.50 C 422.33 319.34 425.41 319.66 428.16 320.76 C 429.82 321.63 431.03 323.43 432.38 324.72 C 434.83 327.39 438.63 328.43 441.09 330.87 C 443.31 333.88 444.52 337.45 447.05 340.29 C 450.16 343.76 450.15 348.36 453.44 351.55 C 456.54 354.69 459.78 357.68 462.89 360.81 C 461.80 362.02 460.71 363.23 459.61 364.44 C 461.13 366.56 462.78 368.39 464.88 369.94 C 465.65 371.74 466.35 373.56 467.05 375.39 C 465.37 382.10 462.61 388.35 459.69 394.59 C 458.52 394.63 457.36 394.67 456.19 394.70 C 456.47 392.78 456.88 390.78 456.80 388.84 C 456.60 386.81 455.67 384.86 455.32 382.84 C 455.19 380.48 456.00 378.09 455.92 375.74 C 455.06 373.35 453.25 371.27 452.06 369.02 C 449.84 365.06 450.03 360.39 447.47 356.55 C 445.47 353.55 443.38 350.60 441.33 347.63 C 439.04 344.35 435.59 342.34 432.79 339.26 C 429.10 335.30 426.45 331.23 421.47 328.65 C 416.44 326.17 411.22 324.04 406.11 321.71 C 401.24 319.50 396.16 319.48 391.15 317.85 C 387.93 316.88 385.15 315.61 381.70 315.75 C 373.46 316.00 366.18 318.80 357.83 317.79 C 357.79 318.90 357.77 320.01 357.76 321.12 C 357.04 319.17 356.22 317.27 355.39 315.36 C 355.61 313.91 354.86 310.98 356.60 310.36 C 361.50 309.28 366.94 310.62 371.88 309.82 C 374.05 309.15 375.99 307.76 378.17 307.02 Z" fill="#816caf"/>
<path d="M 391.15 317.85 C 396.16 319.48 401.24 319.50 406.11 321.71 C 411.22 324.04 416.44 326.17 421.47 328.65 C 426.45 331.23 429.10 335.30 432.79 339.26 C 435.59 342.34 439.04 344.35 441.33 347.63 C 443.38 350.60 445.47 353.55 447.47 356.55 C 450.03 360.39 449.84 365.06 452.06 369.02 C 453.25 371.27 455.06 373.35 455.92 375.74 C 456.00 378.09 455.19 380.48 455.32 382.84 C 455.67 384.86 456.60 386.81 456.80 388.84 C 456.88 390.78 456.47 392.78 456.19 394.70 C 457.36 394.67 458.52 394.63 459.69 394.59 C 456.36 401.23 452.42 408.05 447.11 413.31 C 446.48 411.85 445.57 410.34 445.30 408.76 C 445.36 406.37 446.28 404.03 446.40 401.64 C 446.19 399.54 445.24 397.53 445.04 395.44 C 445.15 392.41 446.39 389.44 446.52 386.39 C 446.42 384.08 445.36 381.75 444.74 379.53 C 443.37 375.17 443.11 370.71 441.56 366.40 C 440.44 363.27 439.19 360.17 437.67 357.22 C 435.73 353.43 432.39 350.74 429.67 347.31 C 427.63 344.89 425.72 341.78 422.90 340.27 C 419.34 338.28 415.71 337.15 412.48 334.52 C 409.89 332.54 407.70 329.78 404.88 328.15 C 402.46 327.24 399.68 327.17 397.15 326.66 C 393.97 326.17 391.01 324.83 387.86 324.30 C 384.95 324.04 381.94 324.82 379.01 324.73 C 375.70 324.54 372.40 322.89 369.10 322.94 C 366.84 323.33 364.74 325.21 362.90 326.52 C 363.12 325.25 363.34 323.98 363.56 322.71 C 362.71 323.23 361.86 323.75 361.01 324.27 C 360.94 325.88 360.85 327.48 360.83 329.08 C 360.23 327.63 359.61 326.19 359.02 324.73 C 358.57 323.54 358.16 322.34 357.76 321.12 C 357.77 320.01 357.79 318.90 357.83 317.79 C 366.18 318.80 373.46 316.00 381.70 315.75 C 385.15 315.61 387.93 316.88 391.15 317.85 Z" fill="#8875b4"/>
<path d="M 363.56 322.71 C 363.34 323.98 363.12 325.25 362.90 326.52 C 364.74 325.21 366.84 323.33 369.10 322.94 C 372.40 322.89 375.70 324.54 379.01 324.73 C 381.94 324.82 384.95 324.04 387.86 324.30 C 391.01 324.83 393.97 326.17 397.15 326.66 C 399.68 327.17 402.46 327.24 404.88 328.15 C 407.70 329.78 409.89 332.54 412.48 334.52 C 415.71 337.15 419.34 338.28 422.90 340.27 C 425.72 341.78 427.63 344.89 429.67 347.31 C 432.39 350.74 435.73 353.43 437.67 357.22 C 439.19 360.17 440.44 363.27 441.56 366.40 C 443.11 370.71 443.37 375.17 444.74 379.53 C 445.36 381.75 446.42 384.08 446.52 386.39 C 446.39 389.44 445.15 392.41 445.04 395.44 C 445.24 397.53 446.19 399.54 446.40 401.64 C 446.28 404.03 445.36 406.37 445.30 408.76 C 445.57 410.34 446.48 411.85 447.11 413.31 C 443.28 416.76 439.60 420.32 435.92 423.93 C 431.34 428.37 426.02 430.32 420.54 433.32 C 420.33 431.77 420.12 430.21 419.92 428.65 C 421.55 427.50 423.81 426.66 424.39 424.57 C 425.59 421.13 426.92 418.02 428.97 414.99 C 431.07 411.90 430.61 408.77 431.51 405.29 C 432.36 402.87 434.62 400.63 435.16 398.08 C 436.22 393.22 435.36 387.91 435.34 382.96 C 435.28 380.16 435.53 377.33 435.33 374.54 C 434.95 369.11 429.88 366.65 430.19 360.96 C 427.13 355.69 421.50 353.66 418.27 348.65 C 415.46 344.58 411.58 341.30 407.47 338.60 C 399.61 333.99 390.72 332.47 381.82 331.33 C 375.73 330.42 371.27 333.82 365.91 329.65 C 365.84 330.72 365.76 331.78 365.69 332.85 C 364.75 331.65 363.82 330.45 362.87 329.26 C 363.14 331.58 363.42 333.91 363.83 336.21 C 362.88 333.81 361.77 331.48 360.83 329.08 C 360.85 327.48 360.94 325.88 361.01 324.27 C 361.86 323.75 362.71 323.23 363.56 322.71 Z" fill="#8f7eb9"/>
<path d="M 359.02 324.73 C 359.61 326.19 360.23 327.63 360.83 329.08 C 361.77 331.48 362.88 333.81 363.83 336.21 C 364.10 337.10 364.38 338.00 364.65 338.89 C 365.48 341.56 366.26 344.24 367.18 346.87 C 366.10 345.21 364.91 343.64 363.69 342.08 C 364.47 346.43 366.22 350.48 367.19 354.76 C 367.49 358.26 366.80 361.75 367.23 365.26 C 365.23 366.77 363.20 368.23 361.14 369.64 C 359.57 369.17 357.95 368.62 356.33 368.39 C 353.61 370.61 352.33 373.73 348.80 374.63 C 343.06 376.51 337.65 377.27 333.92 382.57 C 333.04 381.07 332.14 379.57 331.25 378.08 C 330.32 379.63 329.42 381.21 328.50 382.77 C 324.00 383.06 319.48 382.80 314.98 383.07 C 312.00 383.27 309.18 386.40 306.24 386.05 C 303.90 384.99 302.55 382.00 300.28 380.68 C 298.71 379.85 296.95 379.31 295.27 378.73 C 294.71 380.21 294.15 381.68 293.59 383.16 C 292.32 379.75 291.03 376.30 290.08 372.79 C 289.65 369.42 289.22 366.04 288.90 362.65 C 288.93 359.91 289.12 357.17 289.19 354.44 C 290.93 357.86 291.50 361.28 291.77 365.07 C 292.47 364.13 293.17 363.20 293.88 362.27 C 293.97 363.28 294.07 364.29 294.16 365.30 C 298.05 365.37 301.87 365.64 305.64 364.56 C 309.52 363.50 313.13 362.03 317.24 362.29 C 320.37 362.42 323.22 363.32 326.22 362.19 C 328.97 361.25 331.73 360.26 334.37 359.06 C 336.49 358.09 338.09 356.30 340.12 355.25 C 342.59 354.29 345.68 354.37 347.98 353.07 C 349.89 351.54 351.10 348.98 352.38 346.93 C 354.59 346.67 356.80 346.44 359.01 346.24 C 359.47 339.35 360.85 333.35 357.06 327.04 C 357.71 326.27 358.36 325.50 359.02 324.73 Z" fill="#5068af"/>
<path d="M 362.87 329.26 C 363.82 330.45 364.75 331.65 365.69 332.85 C 365.76 331.78 365.84 330.72 365.91 329.65 C 371.27 333.82 375.73 330.42 381.82 331.33 C 390.72 332.47 399.61 333.99 407.47 338.60 C 411.58 341.30 415.46 344.58 418.27 348.65 C 421.50 353.66 427.13 355.69 430.19 360.96 C 429.88 366.65 434.95 369.11 435.33 374.54 C 435.53 377.33 435.28 380.16 435.34 382.96 C 435.36 387.91 436.22 393.22 435.16 398.08 C 434.62 400.63 432.36 402.87 431.51 405.29 C 430.61 408.77 431.07 411.90 428.97 414.99 C 426.92 418.02 425.59 421.13 424.39 424.57 C 423.81 426.66 421.55 427.50 419.92 428.65 C 420.12 430.21 420.33 431.77 420.54 433.32 C 414.32 436.87 407.63 438.97 400.79 440.95 C 395.92 442.35 391.00 442.64 385.97 442.92 C 385.77 439.88 385.54 436.82 385.44 433.78 C 385.30 429.18 385.32 424.55 384.97 419.97 C 385.44 422.83 386.03 425.67 386.60 428.51 C 387.66 428.33 388.72 428.15 389.78 427.97 C 391.27 429.30 392.83 431.24 394.76 431.86 C 397.31 430.00 399.24 427.73 402.05 426.15 C 405.36 424.31 408.70 423.21 411.55 420.56 C 415.46 416.87 419.56 412.93 421.98 408.11 C 423.54 405.00 425.55 401.84 426.41 398.46 C 426.85 395.05 426.14 391.46 426.11 388.03 C 425.92 384.25 426.45 380.43 426.10 376.68 C 425.70 373.02 423.04 369.85 421.16 366.81 C 418.70 363.12 417.04 359.00 414.66 355.28 C 412.84 352.46 409.85 350.72 407.25 348.68 C 404.49 346.66 402.28 344.24 399.00 343.20 C 393.88 341.59 389.60 339.01 384.02 339.04 C 377.66 338.32 371.93 339.85 365.89 338.09 C 365.47 338.35 365.06 338.62 364.65 338.89 C 364.38 338.00 364.10 337.10 363.83 336.21 C 363.42 333.91 363.14 331.58 362.87 329.26 Z" fill="#9788bf"/>
<path d="M 365.89 338.09 C 371.93 339.85 377.66 338.32 384.02 339.04 C 389.60 339.01 393.88 341.59 399.00 343.20 C 402.28 344.24 404.49 346.66 407.25 348.68 C 409.85 350.72 412.84 352.46 414.66 355.28 C 417.04 359.00 418.70 363.12 421.16 366.81 C 423.04 369.85 425.70 373.02 426.10 376.68 C 426.45 380.43 425.92 384.25 426.11 388.03 C 426.14 391.46 426.85 395.05 426.41 398.46 C 425.55 401.84 423.54 405.00 421.98 408.11 C 419.56 412.93 415.46 416.87 411.55 420.56 C 408.70 423.21 405.36 424.31 402.05 426.15 C 399.24 427.73 397.31 430.00 394.76 431.86 C 392.83 431.24 391.27 429.30 389.78 427.97 C 388.72 428.15 387.66 428.33 386.60 428.51 C 386.03 425.67 385.44 422.83 384.97 419.97 C 384.48 416.30 383.82 412.67 383.13 409.04 C 383.03 407.01 383.03 404.97 382.94 402.94 C 383.30 404.37 383.70 405.78 384.05 407.21 C 384.52 410.46 384.97 413.71 385.41 416.96 C 388.91 417.58 392.07 418.23 395.40 416.44 C 401.08 413.56 406.59 409.55 410.53 404.52 C 413.14 401.26 413.29 397.67 413.83 393.72 C 414.43 388.62 415.58 383.03 415.06 377.93 C 414.77 375.00 413.34 372.69 411.96 370.16 C 409.70 366.22 408.11 362.40 404.85 359.13 C 401.47 355.71 397.86 352.49 393.40 350.56 C 387.38 347.84 380.55 347.16 374.03 345.90 C 373.98 346.42 373.93 346.93 373.87 347.45 C 372.76 346.55 371.64 345.65 370.49 344.78 C 368.58 347.81 369.30 350.77 369.88 354.08 C 369.06 351.64 368.13 349.27 367.18 346.87 C 366.26 344.24 365.48 341.56 364.65 338.89 C 365.06 338.62 365.47 338.35 365.89 338.09 Z" fill="#a092c6"/>
<path d="M 363.69 342.08 C 364.91 343.64 366.10 345.21 367.18 346.87 C 368.13 349.27 369.06 351.64 369.88 354.08 C 370.85 357.12 371.92 360.10 372.83 363.15 C 374.81 370.00 376.73 376.83 378.32 383.79 C 377.59 382.84 376.82 381.93 376.04 381.02 C 376.32 384.33 376.74 387.62 377.23 390.91 C 376.16 389.38 375.20 387.20 373.59 386.20 C 370.66 385.04 367.76 386.98 365.06 387.96 C 361.49 389.54 357.88 389.40 354.18 390.33 C 350.84 391.40 348.53 393.84 344.90 394.30 C 342.25 394.69 340.22 395.46 337.89 396.75 C 335.10 398.33 331.44 398.07 328.27 398.45 C 322.10 398.94 314.81 400.97 308.74 399.38 C 304.27 398.16 301.98 392.56 298.12 389.90 L 297.64 392.27 C 297.17 391.46 296.70 390.65 296.23 389.83 C 295.32 387.62 294.43 385.40 293.59 383.16 C 294.15 381.68 294.71 380.21 295.27 378.73 C 296.95 379.31 298.71 379.85 300.28 380.68 C 302.55 382.00 303.90 384.99 306.24 386.05 C 309.18 386.40 312.00 383.27 314.98 383.07 C 319.48 382.80 324.00 383.06 328.50 382.77 C 329.42 381.21 330.32 379.63 331.25 378.08 C 332.14 379.57 333.04 381.07 333.92 382.57 C 337.65 377.27 343.06 376.51 348.80 374.63 C 352.33 373.73 353.61 370.61 356.33 368.39 C 357.95 368.62 359.57 369.17 361.14 369.64 C 363.20 368.23 365.23 366.77 367.23 365.26 C 366.80 361.75 367.49 358.26 367.19 354.76 C 366.22 350.48 364.47 346.43 363.69 342.08 Z" fill="#4a5ea9"/>
<path d="M 370.49 344.78 C 371.64 345.65 372.76 346.55 373.87 347.45 C 373.93 346.93 373.98 346.42 374.03 345.90 C 380.55 347.16 387.38 347.84 393.40 350.56 C 397.86 352.49 401.47 355.71 404.85 359.13 C 408.11 362.40 409.70 366.22 411.96 370.16 C 413.34 372.69 414.77 375.00 415.06 377.93 C 415.58 383.03 414.43 388.62 413.83 393.72 C 413.29 397.67 413.14 401.26 410.53 404.52 C 406.59 409.55 401.08 413.56 395.40 416.44 C 392.07 418.23 388.91 417.58 385.41 416.96 C 384.97 413.71 384.52 410.46 384.05 407.21 C 384.57 405.35 385.19 403.50 385.79 401.66 C 386.44 403.08 387.10 404.48 387.75 405.89 C 387.88 404.61 388.03 403.33 388.18 402.05 C 388.66 402.98 389.14 403.90 389.64 404.82 C 392.60 401.83 395.27 398.70 397.70 395.26 C 398.53 395.71 399.36 396.16 400.19 396.62 C 399.52 390.77 402.63 386.02 402.49 380.22 C 402.54 376.54 400.14 372.75 398.37 369.65 C 395.71 364.90 390.77 361.35 386.07 358.80 C 382.59 356.68 378.19 358.71 374.55 359.51 C 373.76 358.10 372.97 356.69 372.14 355.31 C 372.25 357.93 372.45 360.56 372.83 363.15 C 371.92 360.10 370.85 357.12 369.88 354.08 C 369.30 350.77 368.58 347.81 370.49 344.78 Z" fill="#ad9fcd"/>
<path d="M 372.14 355.31 C 372.97 356.69 373.76 358.10 374.55 359.51 C 378.19 358.71 382.59 356.68 386.07 358.80 C 390.77 361.35 395.71 364.90 398.37 369.65 C 400.14 372.75 402.54 376.54 402.49 380.22 C 402.63 386.02 399.52 390.77 400.19 396.62 C 399.36 396.16 398.53 395.71 397.70 395.26 C 395.27 398.70 392.60 401.83 389.64 404.82 C 389.14 403.90 388.66 402.98 388.18 402.05 C 388.03 403.33 387.88 404.61 387.75 405.89 C 387.10 404.48 386.44 403.08 385.79 401.66 C 385.19 403.50 384.57 405.35 384.05 407.21 C 383.70 405.78 383.30 404.37 382.94 402.94 C 381.42 396.56 380.13 390.09 378.32 383.79 C 376.73 376.83 374.81 370.00 372.83 363.15 C 372.45 360.56 372.25 357.93 372.14 355.31 Z" fill="#bdafd8"/>
<path d="M 196.38 355.71 C 197.86 365.66 201.09 375.01 203.78 384.65 C 204.55 387.89 205.18 391.42 206.46 394.50 C 208.01 398.19 210.38 401.22 211.90 404.93 C 213.28 408.31 214.15 411.81 215.77 415.11 C 216.45 416.42 217.16 417.69 217.87 418.99 C 219.18 424.85 221.84 429.75 225.08 434.73 C 227.98 439.58 231.37 444.06 233.96 449.10 C 231.43 446.25 228.83 443.50 226.69 440.33 C 217.21 426.25 209.19 411.45 203.63 395.37 C 200.66 387.44 198.94 379.25 196.97 371.04 C 196.19 365.94 196.28 360.85 196.38 355.71 Z" fill="#366691"/>
<path d="M 196.38 355.71 C 199.86 358.76 203.97 361.53 206.88 365.07 C 211.09 370.11 214.63 375.13 219.76 379.31 C 223.39 382.24 225.01 385.94 228.96 388.11 C 232.52 390.16 236.44 391.72 240.24 393.28 C 240.03 394.21 239.82 395.14 239.62 396.07 C 244.92 398.10 250.05 398.88 254.23 403.09 C 260.40 404.52 266.68 406.10 272.64 408.25 C 274.97 409.07 277.86 408.48 280.32 408.51 C 282.52 408.21 284.64 410.33 286.51 411.32 C 289.48 413.69 294.38 410.33 297.84 411.35 C 301.78 412.94 303.73 416.67 308.02 417.50 C 311.02 418.15 313.27 419.05 315.85 420.74 C 315.97 419.79 316.10 418.84 316.23 417.89 L 316.76 418.36 C 321.48 422.23 325.95 426.73 331.22 429.82 C 331.42 430.84 331.63 431.85 331.82 432.86 C 327.38 431.20 323.18 429.03 318.87 427.05 C 314.82 425.22 309.39 426.08 305.05 425.96 C 296.46 426.41 287.99 425.46 279.42 425.25 C 274.55 425.24 270.60 420.99 265.80 419.52 C 258.95 417.40 252.15 415.16 245.35 412.88 C 242.68 412.01 240.43 410.47 238.22 408.77 C 233.59 407.45 228.55 406.64 225.20 402.84 C 223.69 400.73 223.17 397.80 222.41 395.35 C 220.49 395.34 218.56 395.34 216.64 395.33 C 215.25 392.43 214.20 389.46 211.48 387.52 C 209.16 385.78 206.56 385.21 203.78 384.65 C 201.09 375.01 197.86 365.66 196.38 355.71 Z" fill="#4b63aa"/>
<path d="M 376.04 381.02 C 376.82 381.93 377.59 382.84 378.32 383.79 C 380.13 390.09 381.42 396.56 382.94 402.94 C 383.03 404.97 383.03 407.01 383.13 409.04 C 382.47 407.66 381.76 406.31 381.06 404.96 C 381.46 409.42 381.83 413.89 382.03 418.36 C 379.46 418.28 377.80 417.82 375.52 416.62 C 370.65 414.08 365.08 413.63 359.76 414.79 C 354.59 415.99 350.32 415.41 345.97 417.87 C 341.09 420.54 335.94 422.47 330.69 424.26 C 330.54 423.23 330.40 422.19 330.25 421.16 C 328.19 421.22 326.13 421.26 324.07 421.29 C 324.93 419.98 325.79 418.66 326.66 417.35 C 321.69 417.01 318.19 415.66 314.01 413.07 C 314.90 414.84 315.78 416.63 316.76 418.36 L 316.23 417.89 C 313.21 415.27 310.53 412.32 308.07 409.17 C 303.86 403.94 300.89 398.10 297.64 392.27 L 298.12 389.90 C 301.98 392.56 304.27 398.16 308.74 399.38 C 314.81 400.97 322.10 398.94 328.27 398.45 C 331.44 398.07 335.10 398.33 337.89 396.75 C 340.22 395.46 342.25 394.69 344.90 394.30 C 348.53 393.84 350.84 391.40 354.18 390.33 C 357.88 389.40 361.49 389.54 365.06 387.96 C 367.76 386.98 370.66 385.04 373.59 386.20 C 375.20 387.20 376.16 389.38 377.23 390.91 C 376.74 387.62 376.32 384.33 376.04 381.02 Z" fill="#4754a2"/>
<path d="M 211.48 387.52 C 214.20 389.46 215.25 392.43 216.64 395.33 C 218.56 395.34 220.49 395.34 222.41 395.35 C 223.17 397.80 223.69 400.73 225.20 402.84 C 228.55 406.64 233.59 407.45 238.22 408.77 C 240.43 410.47 242.68 412.01 245.35 412.88 C 252.15 415.16 258.95 417.40 265.80 419.52 C 270.60 420.99 274.55 425.24 279.42 425.25 C 287.99 425.46 296.46 426.41 305.05 425.96 C 309.39 426.08 314.82 425.22 318.87 427.05 C 323.18 429.03 327.38 431.20 331.82 432.86 C 331.63 431.85 331.42 430.84 331.22 429.82 C 334.44 431.62 337.69 433.34 340.86 435.22 C 340.88 436.05 340.90 436.88 340.92 437.72 C 335.84 436.95 330.73 436.45 325.67 435.55 C 318.98 434.39 312.88 435.17 306.00 435.00 C 300.37 434.89 294.74 435.10 289.11 435.16 C 281.76 435.22 275.15 433.42 267.92 432.31 C 263.14 431.50 257.66 430.86 253.30 428.66 C 249.26 426.65 246.84 423.47 242.20 422.76 C 235.58 421.48 228.43 420.56 223.59 415.36 C 221.55 413.00 219.00 412.81 216.11 412.31 C 216.00 413.24 215.88 414.17 215.77 415.11 C 214.15 411.81 213.28 408.31 211.90 404.93 C 210.38 401.22 208.01 398.19 206.46 394.50 C 205.18 391.42 204.55 387.89 203.78 384.65 C 206.56 385.21 209.16 385.78 211.48 387.52 Z" fill="#445a9f"/>
<path d="M 381.06 404.96 C 381.76 406.31 382.47 407.66 383.13 409.04 C 383.82 412.67 384.48 416.30 384.97 419.97 C 385.32 424.55 385.30 429.18 385.44 433.78 C 385.48 436.85 385.43 439.91 385.23 442.97 L 383.47 443.52 C 379.09 443.54 375.80 441.44 371.85 440.09 C 367.96 440.16 364.35 441.94 360.34 441.62 C 354.59 441.13 348.91 440.70 343.12 441.04 C 344.01 442.07 344.91 443.10 345.80 444.13 C 339.81 444.62 335.55 443.36 330.33 440.65 C 330.71 441.78 331.09 442.91 331.48 444.04 C 323.60 443.78 315.87 445.24 308.00 445.05 C 302.02 444.92 296.01 445.25 290.06 444.83 C 284.44 444.43 279.66 442.85 274.10 443.23 C 270.55 443.39 266.79 444.31 263.27 443.89 C 261.22 442.64 259.59 440.69 257.55 439.43 C 255.13 438.55 252.37 438.56 249.94 437.70 C 247.60 436.72 245.63 434.74 243.24 433.92 C 241.34 433.50 239.30 433.52 237.36 433.45 C 236.44 431.39 235.51 429.34 234.61 427.27 C 233.81 427.15 233.01 427.04 232.22 426.92 C 231.28 428.33 230.34 429.73 229.40 431.13 C 227.93 430.29 226.46 429.43 225.00 428.58 C 225.60 427.58 226.21 426.57 226.81 425.57 C 226.11 424.80 225.41 424.03 224.71 423.26 C 224.02 424.24 223.32 425.23 222.63 426.21 C 221.07 423.79 219.45 421.40 217.87 418.99 C 217.16 417.69 216.45 416.42 215.77 415.11 C 215.88 414.17 216.00 413.24 216.11 412.31 C 219.00 412.81 221.55 413.00 223.59 415.36 C 228.43 420.56 235.58 421.48 242.20 422.76 C 246.84 423.47 249.26 426.65 253.30 428.66 C 257.66 430.86 263.14 431.50 267.92 432.31 C 275.15 433.42 281.76 435.22 289.11 435.16 C 294.74 435.10 300.37 434.89 306.00 435.00 C 312.88 435.17 318.98 434.39 325.67 435.55 C 330.73 436.45 335.84 436.95 340.92 437.72 C 340.90 436.88 340.88 436.05 340.86 435.22 C 337.69 433.34 334.44 431.62 331.22 429.82 C 325.95 426.73 321.48 422.23 316.76 418.36 C 315.78 416.63 314.90 414.84 314.01 413.07 C 318.19 415.66 321.69 417.01 326.66 417.35 C 325.79 418.66 324.93 419.98 324.07 421.29 C 326.13 421.26 328.19 421.22 330.25 421.16 C 330.40 422.19 330.54 423.23 330.69 424.26 C 335.94 422.47 341.09 420.54 345.97 417.87 C 350.32 415.41 354.59 415.99 359.76 414.79 C 365.08 413.63 370.65 414.08 375.52 416.62 C 377.80 417.82 379.46 418.28 382.03 418.36 C 381.83 413.89 381.46 409.42 381.06 404.96 Z" fill="#424e9a"/>
<path d="M 217.87 418.99 C 219.45 421.40 221.07 423.79 222.63 426.21 C 223.32 425.23 224.02 424.24 224.71 423.26 C 225.41 424.03 226.11 424.80 226.81 425.57 C 226.21 426.57 225.60 427.58 225.00 428.58 C 226.46 429.43 227.93 430.29 229.40 431.13 C 230.34 429.73 231.28 428.33 232.22 426.92 C 233.01 427.04 233.81 427.15 234.61 427.27 C 235.51 429.34 236.44 431.39 237.36 433.45 C 239.30 433.52 241.34 433.50 243.24 433.92 C 245.63 434.74 247.60 436.72 249.94 437.70 C 252.37 438.56 255.13 438.55 257.55 439.43 C 259.59 440.69 261.22 442.64 263.27 443.89 C 266.79 444.31 270.55 443.39 274.10 443.23 C 279.66 442.85 284.44 444.43 290.06 444.83 C 296.01 445.25 302.02 444.92 308.00 445.05 C 315.87 445.24 323.60 443.78 331.48 444.04 C 331.09 442.91 330.71 441.78 330.33 440.65 C 335.55 443.36 339.81 444.62 345.80 444.13 C 344.91 443.10 344.01 442.07 343.12 441.04 C 348.91 440.70 354.59 441.13 360.34 441.62 C 364.35 441.94 367.96 440.16 371.85 440.09 C 375.80 441.44 379.09 443.54 383.47 443.52 C 379.04 444.92 374.63 446.30 370.41 448.29 C 370.92 447.38 371.42 446.47 371.92 445.57 C 370.72 445.12 369.51 444.67 368.31 444.22 C 367.73 445.22 367.17 446.23 366.60 447.23 C 363.40 446.82 360.46 446.32 357.25 447.05 C 351.28 448.36 346.24 451.38 340.00 451.83 C 333.22 452.22 327.05 455.01 320.30 455.50 C 315.88 455.95 311.40 455.66 307.01 456.25 C 304.31 456.60 301.70 457.57 299.00 457.81 C 296.32 457.57 293.69 456.47 290.99 456.26 C 287.13 456.10 282.94 457.39 279.12 456.87 C 275.64 456.19 272.40 453.86 268.93 453.23 C 265.38 452.72 261.67 453.30 258.14 452.74 C 254.68 451.75 251.89 448.78 248.33 447.82 C 244.73 446.89 240.98 446.51 237.32 445.86 C 237.02 446.47 236.73 447.07 236.43 447.68 C 232.42 442.93 230.82 436.85 225.08 434.73 C 221.84 429.75 219.18 424.85 217.87 418.99 Z" fill="#3b4a8f"/>
<path d="M 225.08 434.73 C 230.82 436.85 232.42 442.93 236.43 447.68 C 236.73 447.07 237.02 446.47 237.32 445.86 C 240.98 446.51 244.73 446.89 248.33 447.82 C 251.89 448.78 254.68 451.75 258.14 452.74 C 261.67 453.30 265.38 452.72 268.93 453.23 C 272.40 453.86 275.64 456.19 279.12 456.87 C 282.94 457.39 287.13 456.10 290.99 456.26 C 293.69 456.47 296.32 457.57 299.00 457.81 C 301.70 457.57 304.31 456.60 307.01 456.25 C 311.40 455.66 315.88 455.95 320.30 455.50 C 327.05 455.01 333.22 452.22 340.00 451.83 C 346.24 451.38 351.28 448.36 357.25 447.05 C 360.46 446.32 363.40 446.82 366.60 447.23 C 367.17 446.23 367.73 445.22 368.31 444.22 C 369.51 444.67 370.72 445.12 371.92 445.57 C 371.42 446.47 370.92 447.38 370.41 448.29 C 374.63 446.30 379.04 444.92 383.47 443.52 L 385.23 442.97 C 385.16 443.93 385.07 444.89 385.00 445.85 C 382.99 448.44 381.98 451.31 381.17 454.44 C 376.05 454.53 371.94 455.26 367.11 456.99 C 361.44 459.00 356.01 456.79 350.49 459.49 C 352.84 460.53 355.22 461.50 357.62 462.41 C 357.34 463.52 357.05 464.62 356.77 465.72 C 352.24 466.03 347.71 466.11 343.17 466.02 L 343.19 465.17 C 345.51 465.02 347.83 464.87 350.15 464.70 C 345.77 463.38 341.40 462.46 336.84 462.05 C 335.78 464.40 335.72 467.19 332.94 468.06 C 328.96 469.51 323.78 467.49 319.67 467.12 C 321.36 468.35 323.07 469.56 324.77 470.78 C 321.45 471.89 318.39 472.96 314.84 472.15 C 305.83 470.19 297.11 471.21 288.00 471.01 C 283.69 471.03 279.29 470.65 275.01 471.10 C 272.58 471.33 270.35 473.29 268.40 474.66 C 267.62 472.91 267.04 470.69 265.70 469.29 C 261.98 466.51 257.81 465.33 253.20 466.00 C 249.48 462.64 245.93 459.14 241.91 456.13 L 241.65 458.25 C 239.00 455.27 236.35 452.30 233.96 449.10 C 231.37 444.06 227.98 439.58 225.08 434.73 Z" fill="#344384"/>
<path d="M 385.00 445.85 C 384.43 453.27 385.09 459.92 381.59 466.77 C 372.49 467.01 363.69 468.47 354.70 469.72 C 344.56 471.16 334.56 473.57 324.85 476.81 C 319.58 478.39 314.61 480.31 309.67 482.76 C 306.55 484.26 303.50 485.80 300.59 487.71 C 299.56 488.42 298.56 489.16 297.56 489.92 C 295.20 491.76 292.91 493.71 290.61 495.63 C 289.19 495.63 287.87 495.98 286.53 496.43 C 277.85 491.43 269.72 485.38 262.10 478.88 C 254.79 472.33 247.76 465.92 241.65 458.25 L 241.91 456.13 C 245.93 459.14 249.48 462.64 253.20 466.00 C 257.81 465.33 261.98 466.51 265.70 469.29 C 267.04 470.69 267.62 472.91 268.40 474.66 C 270.35 473.29 272.58 471.33 275.01 471.10 C 279.29 470.65 283.69 471.03 288.00 471.01 C 297.11 471.21 305.83 470.19 314.84 472.15 C 318.39 472.96 321.45 471.89 324.77 470.78 C 323.07 469.56 321.36 468.35 319.67 467.12 C 323.78 467.49 328.96 469.51 332.94 468.06 C 335.72 467.19 335.78 464.40 336.84 462.05 C 341.40 462.46 345.77 463.38 350.15 464.70 C 347.83 464.87 345.51 465.02 343.19 465.17 L 343.17 466.02 C 347.71 466.11 352.24 466.03 356.77 465.72 C 357.05 464.62 357.34 463.52 357.62 462.41 C 355.22 461.50 352.84 460.53 350.49 459.49 C 356.01 456.79 361.44 459.00 367.11 456.99 C 371.94 455.26 376.05 454.53 381.17 454.44 C 381.98 451.31 382.99 448.44 385.00 445.85 Z" fill="#2c4078"/>
<path d="M 434.07 466.02 C 442.08 466.36 449.99 465.62 457.92 466.71 C 467.72 467.48 477.84 467.19 487.36 470.28 C 492.57 471.98 497.99 472.91 503.20 474.57 C 505.30 475.13 506.46 476.58 507.68 478.26 C 504.93 479.78 502.21 481.34 499.45 482.83 C 494.71 483.36 490.53 484.85 485.73 484.79 C 480.53 484.77 475.48 484.55 470.38 483.39 C 466.66 482.58 462.74 481.22 458.95 481.18 C 453.98 481.12 448.85 482.76 443.91 482.75 C 440.93 482.75 437.97 482.20 435.00 482.29 C 432.03 482.46 429.10 483.77 426.16 484.02 C 423.41 483.09 421.07 480.73 418.14 481.15 C 409.77 482.07 401.37 482.35 392.95 481.96 C 388.30 481.77 385.31 479.17 381.50 476.90 C 382.45 474.30 383.24 471.64 384.06 468.99 C 390.32 467.69 396.57 466.60 402.99 466.61 C 413.36 466.57 423.71 466.61 434.07 466.02 Z" fill="#37a259"/>
<path d="M 381.59 466.77 C 382.36 468.07 382.61 468.67 382.08 470.16 C 379.56 477.46 376.25 484.47 371.86 490.84 C 370.10 491.89 368.25 492.84 366.43 493.78 C 365.26 492.60 364.12 491.10 362.65 490.31 C 359.32 489.55 355.71 489.80 352.31 489.74 C 351.79 487.71 351.28 485.69 350.77 483.67 C 347.30 483.87 343.64 484.29 340.20 483.76 C 337.69 483.10 335.68 480.78 333.29 479.79 C 329.23 480.37 326.03 481.47 321.99 479.88 C 322.92 478.83 323.86 477.79 324.85 476.81 C 334.56 473.57 344.56 471.16 354.70 469.72 C 363.69 468.47 372.49 467.01 381.59 466.77 Z" fill="#3ca2ad"/>
<path d="M 324.85 476.81 C 323.86 477.79 322.92 478.83 321.99 479.88 C 326.03 481.47 329.23 480.37 333.29 479.79 C 335.68 480.78 337.69 483.10 340.20 483.76 C 343.64 484.29 347.30 483.87 350.77 483.67 C 351.28 485.69 351.79 487.71 352.31 489.74 C 355.71 489.80 359.32 489.55 362.65 490.31 C 364.12 491.10 365.26 492.60 366.43 493.78 C 368.25 492.84 370.10 491.89 371.86 490.84 C 369.07 495.66 365.24 499.40 361.35 503.30 C 357.77 501.16 354.20 498.43 350.28 497.01 C 342.49 494.62 334.88 491.57 327.28 488.64 C 321.53 485.50 315.75 485.89 309.47 485.15 C 309.54 484.35 309.61 483.55 309.67 482.76 C 314.61 480.31 319.58 478.39 324.85 476.81 Z" fill="#36979c"/>
<path d="M 381.50 476.90 C 385.31 479.17 388.30 481.77 392.95 481.96 C 401.37 482.35 409.77 482.07 418.14 481.15 C 421.07 480.73 423.41 483.09 426.16 484.02 C 429.10 483.77 432.03 482.46 435.00 482.29 C 437.97 482.20 440.93 482.75 443.91 482.75 C 448.85 482.76 453.98 481.12 458.95 481.18 C 462.74 481.22 466.66 482.58 470.38 483.39 C 475.48 484.55 480.53 484.77 485.73 484.79 C 490.53 484.85 494.71 483.36 499.45 482.83 C 502.21 481.34 504.93 479.78 507.68 478.26 C 508.60 482.49 507.40 484.57 504.25 487.24 C 497.87 492.00 491.08 496.31 484.13 500.20 C 485.87 498.04 487.37 495.40 489.49 493.61 C 490.95 492.69 492.73 492.23 494.33 491.62 C 492.87 491.27 491.38 490.41 489.92 491.06 C 486.87 492.06 484.31 493.56 481.05 493.98 C 474.63 494.72 468.84 493.51 462.58 492.48 C 457.63 491.64 453.17 492.72 448.31 493.41 C 444.13 494.04 440.10 493.64 435.93 493.31 C 430.54 492.87 425.27 492.96 419.91 492.17 C 415.72 491.59 411.87 490.75 407.65 491.75 C 401.17 493.34 394.57 493.39 387.94 492.97 C 384.54 492.72 382.14 490.76 379.05 489.70 C 376.69 490.41 374.60 492.34 372.74 493.89 C 375.61 488.21 378.94 482.73 381.50 476.90 Z" fill="#319953"/>
<path d="M 309.67 482.76 C 309.61 483.55 309.54 484.35 309.47 485.15 C 315.75 485.89 321.53 485.50 327.28 488.64 C 334.88 491.57 342.49 494.62 350.28 497.01 C 354.20 498.43 357.77 501.16 361.35 503.30 C 360.18 504.58 359.07 505.90 357.95 507.22 C 352.53 502.62 346.35 502.35 340.00 499.90 C 336.78 498.70 333.52 497.63 330.24 496.59 C 323.75 494.56 318.22 491.36 311.46 489.94 C 307.74 489.16 304.07 489.40 300.29 489.56 C 300.39 488.94 300.49 488.33 300.59 487.71 C 303.50 485.80 306.55 484.26 309.67 482.76 Z" fill="#30898d"/>
<path d="M 300.59 487.71 C 300.49 488.33 300.39 488.94 300.29 489.56 C 304.07 489.40 307.74 489.16 311.46 489.94 C 318.22 491.36 323.75 494.56 330.24 496.59 C 333.52 497.63 336.78 498.70 340.00 499.90 C 346.35 502.35 352.53 502.62 357.95 507.22 L 359.23 508.16 C 358.14 509.10 357.02 510.01 355.85 510.83 C 353.38 510.96 351.11 511.18 348.90 509.85 C 345.87 508.09 343.08 506.16 339.64 505.22 C 331.03 502.79 322.46 500.46 314.28 496.74 C 308.92 494.23 303.59 492.36 297.62 492.05 C 297.60 491.34 297.58 490.63 297.56 489.92 C 298.56 489.16 299.56 488.42 300.59 487.71 Z" fill="#2b7c7f"/>
<path d="M 379.05 489.70 C 382.14 490.76 384.54 492.72 387.94 492.97 C 394.57 493.39 401.17 493.34 407.65 491.75 C 411.87 490.75 415.72 491.59 419.91 492.17 C 425.27 492.96 430.54 492.87 435.93 493.31 C 440.10 493.64 444.13 494.04 448.31 493.41 C 453.17 492.72 457.63 491.64 462.58 492.48 C 468.84 493.51 474.63 494.72 481.05 493.98 C 484.31 493.56 486.87 492.06 489.92 491.06 C 491.38 490.41 492.87 491.27 494.33 491.62 C 492.73 492.23 490.95 492.69 489.49 493.61 C 487.37 495.40 485.87 498.04 484.13 500.20 C 480.38 502.61 476.46 504.67 472.30 506.28 C 472.79 505.09 473.28 503.90 473.76 502.70 C 470.64 502.51 467.62 502.66 464.52 503.07 C 460.26 503.59 456.26 503.05 452.00 502.97 C 447.66 502.87 443.33 503.15 438.98 503.03 C 433.64 502.91 428.37 502.08 423.02 501.98 C 415.01 501.86 406.99 502.14 398.98 502.02 C 395.28 501.97 391.61 501.28 387.92 501.33 C 385.19 501.39 382.48 502.58 379.78 502.53 C 378.08 501.91 376.54 500.73 374.80 500.23 C 372.04 500.07 369.15 500.97 366.43 501.40 C 368.63 498.98 370.67 496.42 372.74 493.89 C 374.60 492.34 376.69 490.41 379.05 489.70 Z" fill="#2b8f4a"/>
<path d="M 297.56 489.92 C 297.58 490.63 297.60 491.34 297.62 492.05 C 303.59 492.36 308.92 494.23 314.28 496.74 C 322.46 500.46 331.03 502.79 339.64 505.22 C 343.08 506.16 345.87 508.09 348.90 509.85 C 351.11 511.18 353.38 510.96 355.85 510.83 C 354.06 512.09 352.25 513.32 350.45 514.57 C 345.51 513.60 340.74 512.15 336.21 509.96 C 330.65 507.29 324.56 506.65 318.98 504.02 C 313.68 501.49 308.05 500.03 302.90 497.18 C 299.09 494.83 295.24 496.13 290.61 495.63 C 292.91 493.71 295.20 491.76 297.56 489.92 Z" fill="#236e6f"/>
<path d="M 290.61 495.63 C 295.24 496.13 299.09 494.83 302.90 497.18 C 308.05 500.03 313.68 501.49 318.98 504.02 C 324.56 506.65 330.65 507.29 336.21 509.96 C 340.74 512.15 345.51 513.60 350.45 514.57 L 351.23 514.69 C 349.50 515.48 347.80 516.36 346.10 517.22 C 346.36 518.50 346.61 519.78 346.87 521.06 C 334.19 518.62 321.83 514.07 309.96 509.04 C 301.73 505.62 294.08 501.14 286.53 496.43 C 287.87 495.98 289.19 495.63 290.61 495.63 Z" fill="#1d5d56"/>
<path d="M 374.80 500.23 C 376.54 500.73 378.08 501.91 379.78 502.53 C 382.48 502.58 385.19 501.39 387.92 501.33 C 391.61 501.28 395.28 501.97 398.98 502.02 C 406.99 502.14 415.01 501.86 423.02 501.98 C 428.37 502.08 433.64 502.91 438.98 503.03 C 443.33 503.15 447.66 502.87 452.00 502.97 C 456.26 503.05 460.26 503.59 464.52 503.07 C 467.62 502.66 470.64 502.51 473.76 502.70 C 473.28 503.90 472.79 505.09 472.30 506.28 C 464.30 509.22 457.12 513.45 448.65 515.12 C 447.12 514.34 445.81 513.28 444.04 513.33 C 439.86 513.43 435.79 514.05 431.59 513.50 C 418.37 511.85 405.30 511.96 391.99 511.96 C 386.94 511.90 382.00 512.82 376.98 513.05 C 372.24 513.27 367.99 510.42 363.47 510.96 C 359.32 511.45 355.13 513.24 351.23 514.69 L 350.45 514.57 C 352.25 513.32 354.06 512.09 355.85 510.83 C 357.02 510.01 358.14 509.10 359.23 508.16 C 361.68 505.96 364.13 503.75 366.43 501.40 C 369.15 500.97 372.04 500.07 374.80 500.23 Z" fill="#258341"/>
<path d="M 376.98 513.05 C 382.00 512.82 386.94 511.90 391.99 511.96 C 405.30 511.96 418.37 511.85 431.59 513.50 C 435.79 514.05 439.86 513.43 444.04 513.33 C 445.81 513.28 447.12 514.34 448.65 515.12 C 435.61 519.86 421.63 522.64 407.85 524.13 C 387.24 527.07 367.17 525.08 346.87 521.06 C 346.61 519.78 346.36 518.50 346.10 517.22 C 347.80 516.36 349.50 515.48 351.23 514.69 C 355.13 513.24 359.32 511.45 363.47 510.96 C 367.99 510.42 372.24 513.27 376.98 513.05 Z" fill="#1f7136"/>
<path d="M 576.10 521.97 C 567.63 530.79 557.62 538.46 547.91 545.88 C 528.75 559.88 507.54 572.16 485.18 580.22 C 479.86 582.30 474.58 584.37 469.03 585.80 C 466.60 585.23 464.27 584.46 461.90 583.68 C 464.49 582.00 466.87 580.37 470.02 579.95 C 474.37 579.37 478.57 578.84 482.53 576.78 C 486.60 574.71 490.20 573.55 494.71 572.82 C 493.99 572.34 493.27 571.85 492.55 571.36 C 495.25 570.93 498.11 570.70 500.71 569.84 C 503.11 568.88 505.01 566.64 507.36 565.51 C 509.97 564.29 512.60 563.80 515.07 562.23 C 518.03 560.29 520.58 557.92 523.76 556.29 C 526.92 554.69 529.87 552.87 532.79 550.86 C 537.50 547.63 542.65 545.88 546.93 541.98 C 550.28 538.96 553.88 536.28 557.51 533.60 C 560.81 531.18 563.40 528.10 566.39 525.36 C 569.01 522.89 572.78 522.78 576.10 521.97 Z" fill="#509593"/>
<path d="M 173.18 638.94 C 174.89 640.57 174.21 644.02 174.43 646.19 C 171.62 646.22 168.80 646.23 165.98 646.31 C 165.62 649.04 165.33 651.78 165.07 654.52 C 167.61 654.75 170.16 654.99 172.70 655.26 C 172.68 657.68 172.67 660.11 172.65 662.54 C 170.20 662.77 167.74 663.01 165.29 663.25 C 165.24 670.85 165.32 678.45 165.34 686.05 C 165.20 687.94 165.42 690.67 164.21 692.22 C 161.53 693.14 158.25 692.61 155.45 692.54 C 154.80 682.78 155.64 673.05 154.88 663.31 C 153.07 663.05 151.27 662.70 149.46 662.44 C 149.46 660.09 149.46 657.74 149.45 655.39 C 151.19 655.10 152.92 654.72 154.67 654.45 C 155.31 650.60 155.25 645.71 157.36 642.35 C 160.54 637.48 168.24 636.81 173.18 638.94 Z" fill="#020202"/>
<path d="M 188.05 639.08 C 188.71 648.00 188.26 657.04 188.38 666.00 C 188.21 674.88 188.82 683.88 187.95 692.71 C 184.82 692.70 181.70 692.64 178.58 692.51 C 178.45 674.84 178.35 657.13 178.62 639.46 C 181.75 638.83 184.88 638.83 188.05 639.08 Z" fill="#010101"/>
<path d="M 632.66 639.23 C 632.96 648.48 632.74 657.73 632.80 667.00 C 632.73 675.57 633.03 684.05 632.57 692.59 C 629.54 692.65 626.51 692.65 623.47 692.60 C 623.06 682.75 623.36 672.86 623.27 663.00 C 623.37 655.13 623.03 647.22 623.48 639.36 C 626.54 638.82 629.58 638.92 632.66 639.23 Z" fill="#010101"/>
<path d="M 352.46 640.38 C 354.91 639.39 359.62 639.30 361.16 641.87 C 362.13 644.32 362.05 649.12 358.68 649.65 C 356.40 650.10 352.36 650.30 350.85 648.14 C 349.89 646.00 349.70 641.29 352.46 640.38 Z" fill="#030303"/>
<path d="M 671.51 640.45 C 674.27 639.37 677.46 639.56 680.09 640.92 C 681.02 643.05 681.01 646.00 680.14 648.15 C 678.52 650.25 674.88 650.11 672.55 649.61 C 668.65 649.60 668.43 641.55 671.51 640.45 Z" fill="#020202"/>
<path d="M 52.53 641.40 C 55.09 641.98 58.28 642.88 60.08 644.89 C 61.66 647.35 60.59 651.39 60.30 654.15 C 57.03 652.64 53.51 650.67 49.95 650.07 C 46.41 649.48 42.48 650.26 39.88 652.87 C 36.35 656.34 35.23 661.18 35.06 665.97 C 34.88 671.36 35.41 676.72 38.93 681.05 C 41.55 684.25 46.15 685.06 50.06 684.52 C 53.77 683.88 57.40 682.09 60.95 680.82 C 60.99 683.23 61.47 686.21 60.51 688.47 C 58.72 691.10 54.92 692.43 51.96 693.12 C 44.41 694.59 35.79 693.59 30.25 687.76 C 24.76 682.02 23.58 673.58 23.87 665.96 C 24.14 658.37 26.58 650.60 32.62 645.63 C 38.20 641.01 45.57 639.92 52.53 641.40 Z" fill="#020202"/>
<path d="M 450.70 642.35 C 452.31 642.97 454.60 643.88 455.35 645.55 C 456.11 648.21 455.46 651.39 455.18 654.11 C 451.91 652.68 448.44 650.77 444.94 650.11 C 440.85 649.35 436.48 650.50 433.78 653.77 C 430.55 657.55 429.66 663.20 429.70 668.02 C 429.80 672.24 430.61 677.26 433.35 680.64 C 436.07 684.08 440.88 685.18 445.05 684.50 C 448.71 683.76 452.24 682.07 455.78 680.87 C 455.77 683.28 456.10 686.03 455.36 688.35 C 454.49 690.04 452.42 691.08 450.75 691.80 C 445.35 694.02 438.90 694.30 433.30 692.73 C 427.02 690.97 422.36 685.91 420.27 679.84 C 418.48 674.54 418.40 668.52 418.88 663.00 C 419.56 656.26 422.22 649.90 427.56 645.56 C 433.82 640.40 443.24 639.72 450.70 642.35 Z" fill="#020202"/>
<path d="M 334.15 645.91 C 334.98 648.67 335.07 651.74 335.32 654.60 C 338.17 654.77 341.02 654.97 343.86 655.24 C 343.81 657.59 343.83 659.97 343.43 662.29 C 340.75 663.00 337.82 663.06 335.06 663.26 C 334.98 670.08 333.95 677.68 335.77 684.29 C 337.80 686.00 341.47 685.28 343.97 685.47 C 343.42 688.22 344.86 692.85 340.94 693.21 C 337.57 694.00 333.62 694.00 330.38 692.69 C 326.89 691.14 325.64 687.44 325.18 683.92 C 324.45 677.21 325.00 670.35 324.78 663.60 C 323.10 663.08 321.22 662.65 319.70 661.74 C 319.39 659.54 319.54 657.43 319.64 655.22 C 321.28 654.98 322.93 654.74 324.57 654.51 C 324.81 651.72 324.82 648.57 325.87 645.95 C 328.56 645.34 331.44 645.43 334.15 645.91 Z" fill="#020202"/>
<path d="M 644.71 646.47 C 647.74 645.47 650.81 645.91 653.93 646.10 C 654.21 648.92 654.39 651.74 654.53 654.57 C 657.54 654.76 660.54 654.99 663.53 655.31 C 663.46 657.69 663.40 660.07 663.35 662.45 C 660.44 662.72 657.54 662.96 654.64 663.21 C 654.54 670.71 653.56 678.31 655.71 685.39 C 658.25 685.41 660.79 685.39 663.34 685.36 C 663.26 687.65 663.44 690.32 662.49 692.44 C 657.98 694.41 650.97 694.48 647.34 690.69 C 644.78 688.19 644.57 684.38 644.42 681.02 C 644.30 675.15 644.40 669.27 644.46 663.40 C 642.67 663.11 640.89 662.76 639.09 662.47 C 639.01 660.11 638.93 657.75 638.89 655.38 C 640.56 655.09 642.23 654.80 643.90 654.52 C 644.12 651.85 644.21 649.10 644.71 646.47 Z" fill="#010101"/>
<path d="M 81.32 654.07 C 85.66 653.50 90.33 653.98 94.37 655.71 C 99.29 658.02 102.37 663.73 102.74 669.02 C 103.20 675.02 103.08 681.39 99.50 686.51 C 96.66 690.68 92.04 693.07 87.07 693.56 C 81.63 694.10 75.51 693.51 71.24 689.75 C 66.89 685.87 65.56 679.58 65.62 673.98 C 65.73 668.70 67.00 662.73 70.86 658.86 C 73.68 655.96 77.38 654.60 81.32 654.07 Z" fill="#030303"/>
<path d="M 129.02 653.98 C 133.61 653.16 138.72 654.52 141.39 658.56 C 143.93 662.33 143.67 666.67 143.71 671.01 C 143.55 678.38 144.03 685.46 143.23 692.78 C 140.31 692.71 137.39 692.64 134.46 692.53 C 133.91 685.04 134.64 677.50 134.02 670.03 C 133.64 666.69 132.65 663.54 128.86 662.96 C 124.83 662.83 120.08 666.66 120.48 670.99 C 120.32 678.26 120.88 685.47 120.12 692.74 C 116.96 692.71 113.80 692.64 110.64 692.49 C 110.50 680.10 110.60 667.71 110.59 655.33 C 112.79 655.14 115.37 654.51 117.53 655.13 C 118.50 656.29 119.27 657.61 120.06 658.90 C 122.89 656.84 125.48 654.67 129.02 653.98 Z" fill="#010101"/>
<path d="M 230.25 654.89 C 231.58 657.61 231.33 661.03 231.37 664.00 C 231.18 673.47 231.52 682.91 231.11 692.37 C 228.83 692.50 226.38 692.75 224.12 692.40 C 223.31 691.14 222.66 689.82 221.98 688.49 C 219.56 690.29 216.89 692.41 213.97 693.27 C 209.23 694.45 203.73 693.42 200.73 689.28 C 198.03 685.66 198.33 681.28 198.26 676.99 C 198.37 669.53 198.04 662.21 198.61 654.79 C 201.61 654.84 204.60 654.96 207.60 655.14 C 207.78 662.11 207.45 669.10 207.68 676.07 C 207.97 679.35 208.32 683.37 212.06 684.48 C 216.07 685.52 221.54 681.33 221.33 677.07 C 221.70 669.69 220.91 662.16 221.68 654.73 C 224.51 654.57 227.44 654.46 230.25 654.89 Z" fill="#010101"/>
<path d="M 265.29 655.66 C 269.20 657.62 271.49 661.33 272.53 665.47 C 273.38 669.00 273.91 672.86 272.29 676.26 C 264.64 677.65 256.61 676.13 248.84 677.21 C 249.70 680.67 249.80 683.90 253.42 685.65 C 258.65 688.03 266.12 685.41 271.72 685.02 C 271.58 687.06 271.55 689.18 271.12 691.19 C 268.59 692.90 265.01 693.30 262.05 693.58 C 257.48 693.87 252.21 693.86 247.96 691.99 C 242.84 689.69 239.61 684.53 239.32 678.97 C 239.00 672.21 238.60 665.63 243.02 660.01 C 248.10 653.28 258.01 652.20 265.29 655.66 Z" fill="#030303"/>
<path d="M 299.03 654.06 C 303.54 653.03 308.90 654.46 311.70 658.31 C 314.09 661.49 314.44 665.10 314.50 668.95 C 314.53 676.69 314.42 684.43 314.51 692.17 C 311.23 692.72 308.14 692.72 304.83 692.32 C 304.40 685.53 304.65 678.74 304.62 671.94 C 304.48 669.05 304.62 665.87 302.06 663.94 C 298.64 661.28 293.53 664.41 291.66 667.57 C 290.33 674.80 291.86 682.61 290.99 689.95 C 290.96 690.89 290.68 691.64 290.16 692.20 C 287.55 693.20 284.20 692.59 281.45 692.56 C 281.01 680.11 281.22 667.60 281.32 655.14 C 283.84 655.02 286.37 654.92 288.89 654.86 C 289.17 656.49 289.44 658.13 289.70 659.77 C 292.53 657.48 295.37 654.88 299.03 654.06 Z" fill="#020202"/>
<path d="M 384.03 653.76 C 386.81 653.99 390.35 654.57 392.44 656.59 C 393.18 658.86 392.98 661.52 393.03 663.88 C 389.23 662.55 384.30 660.03 380.27 661.22 C 377.76 661.69 377.20 666.36 379.60 667.36 C 383.56 669.91 389.26 670.95 392.51 674.48 C 396.55 678.86 395.63 686.43 391.24 690.25 C 387.91 693.22 383.28 693.81 378.98 693.72 C 375.87 693.61 372.15 693.16 369.52 691.36 C 368.09 689.42 368.74 686.14 368.64 683.84 C 372.71 684.92 377.72 687.31 381.93 686.40 C 384.70 685.69 386.73 682.13 384.20 679.92 C 380.65 677.18 375.28 676.30 371.80 673.20 C 367.30 669.13 367.54 661.06 372.09 657.11 C 375.29 654.48 379.98 653.55 384.03 653.76 Z" fill="#030303"/>
<path d="M 472.53 654.80 C 477.62 653.20 483.70 653.44 488.65 655.42 C 494.10 657.67 497.26 663.32 497.72 669.02 C 498.12 674.13 498.09 679.93 495.62 684.57 C 493.21 689.22 488.78 692.53 483.60 693.40 C 477.38 694.31 470.44 693.97 465.72 689.29 C 460.48 684.17 459.88 675.07 461.24 668.30 C 462.36 662.09 466.39 656.71 472.53 654.80 Z" fill="#030303"/>
<path d="M 524.03 653.98 C 528.71 653.07 534.33 654.84 536.78 659.15 C 538.94 662.70 538.66 667.01 538.71 671.01 C 538.56 678.40 539.04 685.45 538.22 692.78 C 535.31 692.71 532.40 692.64 529.49 692.54 C 529.02 685.34 529.56 678.13 529.17 670.93 C 528.90 668.63 528.65 664.92 526.40 663.60 C 522.65 661.86 516.93 664.47 515.70 668.34 C 514.98 676.41 516.10 684.56 515.09 692.66 C 512.10 692.69 509.11 692.70 506.11 692.66 C 505.34 685.38 505.78 678.31 505.68 671.00 C 505.63 665.64 505.58 660.29 506.01 654.95 C 508.12 654.92 510.44 654.65 512.51 655.17 C 513.53 656.25 514.28 657.63 515.08 658.88 C 517.92 656.84 520.51 654.70 524.03 653.98 Z" fill="#020202"/>
<path d="M 568.67 655.39 C 571.82 656.92 570.97 660.56 571.24 663.43 C 567.87 662.61 564.41 661.33 560.95 661.01 C 559.25 660.92 557.53 661.15 556.42 662.58 C 556.13 663.89 556.13 665.12 556.43 666.43 C 560.21 669.65 566.30 670.47 570.07 673.95 C 574.62 678.13 573.91 686.44 569.31 690.31 C 563.04 695.36 553.20 694.50 546.45 690.81 C 546.49 688.51 546.52 686.21 546.55 683.91 C 550.54 684.86 554.87 686.77 558.98 686.58 C 561.72 686.52 564.89 683.02 562.75 680.51 C 559.29 676.98 552.23 676.35 548.90 672.10 C 544.92 667.11 546.29 659.09 551.86 655.93 C 556.81 653.27 563.59 652.99 568.67 655.39 Z" fill="#030303"/>
<path d="M 708.13 654.00 C 713.44 652.89 719.86 655.58 721.93 660.81 C 723.23 664.24 723.26 668.37 723.28 672.00 C 723.21 678.97 723.50 685.77 722.82 692.71 C 719.72 692.70 716.63 692.64 713.54 692.52 C 713.16 685.32 713.56 678.12 713.32 670.93 C 713.07 668.40 712.96 664.88 710.33 663.59 C 707.07 661.94 703.52 663.76 701.35 666.31 C 699.51 668.40 699.72 671.37 699.63 673.97 C 699.70 680.17 699.82 686.36 699.50 692.56 C 696.77 692.59 693.44 693.19 690.86 692.20 C 689.49 690.55 689.96 687.10 689.78 685.02 C 690.03 675.02 689.47 665.03 690.29 655.07 C 692.77 655.00 695.24 654.94 697.72 654.93 C 697.98 656.52 698.23 658.12 698.48 659.71 C 701.39 657.43 704.43 654.80 708.13 654.00 Z" fill="#020202"/>
<path d="M 746.93 654.01 C 752.59 654.70 758.27 654.75 763.95 655.15 C 763.90 657.24 763.83 659.33 763.74 661.42 C 762.38 661.72 761.01 662.03 759.65 662.34 C 760.02 667.32 760.73 672.00 756.87 675.89 C 752.02 680.73 745.40 679.65 739.20 679.27 C 739.24 680.51 739.29 681.74 739.33 682.98 C 745.53 684.23 752.53 683.34 758.39 685.64 C 764.65 688.33 765.36 697.22 760.66 701.67 C 755.05 707.24 746.76 707.28 739.41 706.39 C 735.09 705.73 730.12 703.53 729.10 698.82 C 728.12 695.23 730.91 691.80 732.68 688.91 C 731.86 686.72 730.65 684.36 730.52 682.01 C 731.04 680.19 731.92 678.44 732.61 676.67 C 733.67 674.73 732.24 672.41 731.85 670.38 C 730.51 666.18 731.26 661.56 734.25 658.25 C 737.49 654.71 742.25 653.51 746.93 654.01 Z" fill="#030303"/>
<path d="M 351.41 655.35 C 354.57 654.55 357.51 654.92 360.71 655.16 C 360.79 667.62 361.04 680.12 360.57 692.57 C 357.96 692.66 355.16 692.98 352.59 692.47 C 351.61 692.17 351.14 691.63 351.17 690.86 C 350.56 684.96 351.04 678.93 350.92 673.00 C 351.03 667.17 350.47 661.11 351.41 655.35 Z" fill="#000000"/>
<path d="M 580.63 655.09 C 583.57 654.52 586.66 654.95 589.61 655.24 C 589.85 662.19 589.50 669.13 589.73 676.07 C 590.02 679.00 590.23 682.62 593.20 684.15 C 597.40 686.13 603.61 681.68 603.36 677.07 C 603.85 670.01 602.76 662.70 603.75 655.70 C 606.32 654.21 610.14 654.96 612.98 655.08 C 613.68 667.45 613.36 679.99 613.16 692.38 C 610.88 692.50 608.40 692.76 606.14 692.36 C 605.34 691.12 604.70 689.84 604.02 688.53 C 600.99 690.83 598.01 693.30 594.06 693.64 C 589.51 694.08 584.10 692.61 581.93 688.22 C 579.74 683.84 580.38 677.81 580.29 673.00 C 580.50 667.07 579.84 660.97 580.63 655.09 Z" fill="#020202"/>
<path d="M 670.50 655.39 C 673.64 654.58 676.59 654.90 679.77 655.12 C 680.58 663.79 680.04 672.29 680.24 680.99 C 680.21 684.47 680.50 688.23 679.68 691.63 C 677.85 693.60 672.98 692.44 670.46 692.54 C 670.02 683.67 670.36 674.88 670.23 666.00 C 670.23 662.49 670.03 658.88 670.50 655.39 Z" fill="#010101"/>
<path d="M 262.20 663.81 C 263.39 665.72 263.50 668.42 263.89 670.61 C 258.90 670.79 253.91 670.80 248.91 670.61 C 249.57 667.64 249.72 664.37 252.32 662.36 C 255.36 659.88 259.99 660.62 262.20 663.81 Z" fill="#fbfbfb"/>
<path d="M 742.61 661.60 C 745.11 660.44 748.33 660.68 750.28 662.75 C 752.06 664.79 751.91 668.27 750.45 670.44 C 748.28 673.91 741.82 673.47 740.36 669.56 C 739.37 667.00 739.96 662.97 742.61 661.60 Z" fill="#fdfdfd"/>
<path d="M 81.44 662.39 C 84.69 661.17 88.93 662.05 90.90 665.04 C 92.69 667.85 92.78 671.82 92.71 675.04 C 92.57 678.09 92.15 681.56 89.70 683.69 C 86.25 686.90 79.30 686.29 77.31 681.67 C 75.60 677.86 75.47 673.25 76.23 669.20 C 76.84 666.20 78.40 663.44 81.44 662.39 Z" fill="#fefefe"/>
<path d="M 476.45 662.39 C 479.66 661.15 484.00 662.09 485.89 665.12 C 487.64 667.93 487.79 671.82 487.70 675.04 C 487.58 677.84 487.16 681.02 485.22 683.20 C 481.79 687.22 473.87 686.35 472.01 681.14 C 470.55 677.11 470.47 672.44 471.45 668.28 C 472.11 665.63 473.81 663.32 476.45 662.39 Z" fill="#fdfdfd"/>
<path d="M 741.35 691.29 C 744.15 690.26 749.43 690.59 752.12 691.92 C 754.26 692.86 754.19 696.16 752.62 697.58 C 750.42 699.71 746.82 699.83 743.94 699.60 C 741.81 699.38 739.39 698.64 738.46 696.52 C 737.96 694.48 739.56 692.14 741.35 691.29 Z" fill="#fdfdfd"/>
</svg>