<svg id="Layer_1" data-name="Layer 1" xmlns="http://www.w3.org/2000/svg" viewBox="0 0 1366.46 501.59"><defs><style>.cls-1{fill:#1563ff;}.cls-2{fill:#dce8ff;}.cls-3{fill:#508aff;}.cls-4{fill:#96b9ff;}.cls-5{fill:#eff5ff;}.cls-6{fill:#b0caff;}.cls-7{fill:#242442;}</style></defs><title>Control_Plane_logo_</title><path class="cls-1" d="M0,358V143.56A36.25,36.25,0,0,1,18.17,112.1L203.85,4.86a36.21,36.21,0,0,1,36.24,0L426.21,112.1a36.33,36.33,0,0,1,17.73,31.46V358a36.33,36.33,0,0,1-17.73,31.46L240.09,496.74a36.26,36.26,0,0,1-36.24,0L18.17,389.94A36.26,36.26,0,0,1,0,358Z"/><path class="cls-2" d="M394.39,134.78,242.49,47A13.58,13.58,0,0,0,222.1,58.83V143l79.24,45.64a28.63,28.63,0,0,1,14.35,24.82v91.19l72.94,42.1A13.56,13.56,0,0,0,408.93,335V159.51A28.56,28.56,0,0,0,394.39,134.78Z"/><path class="cls-3" d="M128.78,288.11v-91.2l-72.94-42.1A13.58,13.58,0,0,0,35.45,166.6V342a28.64,28.64,0,0,0,14.36,24.82l151.91,87.74a13.56,13.56,0,0,0,20.38-11.43v-84.2l-79-45.64A28.53,28.53,0,0,1,128.78,288.11Z"/><path class="cls-4" d="M222.1,234.22V143l-72.94-42.1a13.55,13.55,0,0,0-20.38,11.79v84.19l79,45.64a28.55,28.55,0,0,1,14.35,24.82v91.2L295,400.67a13.56,13.56,0,0,0,20.39-11.79v-84.2L236.37,259A28.47,28.47,0,0,1,222.1,234.22Z"/><path class="cls-5" d="M301.34,188.67l-79-45.64v91.19A28.43,28.43,0,0,0,236.64,259l79.05,45.64V213.49A28.63,28.63,0,0,0,301.34,188.67Z"/><path class="cls-6" d="M207.75,242.55l-79-45.64v91.2a28.52,28.52,0,0,0,14.27,24.81l79,45.65v-91.2A28.55,28.55,0,0,0,207.75,242.55Z"/><path class="cls-7" d="M657.82,137c14.39,0,25.66,8.15,28.14,22.31h21.61c-3.64-26.29-23.86-41.55-50.1-41.55-30.91,0-54.2,22.54-54.2,60.79s23,60.79,54.2,60.79c28.14,0,46.81-18.2,50.1-40.8L686,198.47c-2.71,13.87-14,21.67-28.2,21.67-19.18,0-32.94-14.39-32.94-41.55C624.82,151.89,638.46,137,657.82,137Z"/><path class="cls-7" d="M775.44,239.38c31,0,54.38-22.53,54.38-60.79s-23.35-60.79-54.38-60.79-54.38,22.54-54.38,60.79S744.35,239.38,775.44,239.38Zm0-102.34c19.3,0,32.82,14.62,32.82,41.55s-13.52,41.55-32.82,41.55-32.82-14.62-32.82-41.55S756.2,137,775.44,137Z"/><polygon class="cls-7" points="868.39 157.15 869.37 157.15 925.13 237.76 944.2 237.76 944.2 119.42 922.88 119.42 922.88 200.09 921.84 200.09 866.13 119.42 846.95 119.42 846.95 237.76 868.39 237.76 868.39 157.15"/><polygon class="cls-7" points="1053.5 119.42 959.08 119.42 959.08 137.39 995.66 137.39 995.66 237.76 1016.92 237.76 1016.92 137.39 1053.5 137.39 1053.5 119.42"/><path class="cls-7" d="M1154.54,157.27c0-22.6-14.56-37.85-41.72-37.85h-44.38V237.76h21.44V194.42h21.84L1135,237.76h23.92l-25.6-46.92C1147.2,185.24,1154.54,173.33,1154.54,157.27Zm-44.9,19.36h-19.76v-39.3h19.64c16,0,23.17,7.34,23.17,19.94S1125.53,176.63,1109.64,176.63Z"/><path class="cls-7" d="M1222.46,117.8c-31.09,0-54.37,22.54-54.37,60.79s23.28,60.79,54.37,60.79,54.38-22.53,54.38-60.79S1253.49,117.8,1222.46,117.8Zm0,102.34c-19.24,0-32.82-14.62-32.82-41.55S1203.22,137,1222.46,137s32.82,14.62,32.82,41.55S1241.76,220.14,1222.46,220.14Z"/><polygon class="cls-7" points="1314.34 219.79 1314.34 119.42 1292.9 119.42 1292.9 237.76 1366.46 237.76 1366.46 219.79 1314.34 219.79"/><path class="cls-7" d="M650.65,263.83H606.27V382.18h21.44v-40h22.66c27.33,0,42-16.41,42-39.18C692.38,280.42,677.87,263.83,650.65,263.83Zm-3.17,60.73H627.71V281.75h19.65c16.07,0,23.17,8.66,23.17,21.26S663.43,324.56,647.48,324.56Z"/><polygon class="cls-7" points="729.21 263.83 707.77 263.83 707.77 382.18 781.33 382.18 781.33 364.2 729.21 364.2 729.21 263.83"/><path class="cls-7" d="M835.1,263.83,793.44,382.18h22.88L826.08,353h44.5l9.82,29.19h22.89L861.57,263.83Zm-3.24,71.94,16-47.67h.92l16,47.67Z"/><polygon class="cls-7" points="991.61 344.5 990.57 344.5 934.87 263.83 915.68 263.83 915.68 382.18 937.12 382.18 937.12 301.57 938.1 301.57 993.86 382.18 1012.93 382.18 1012.93 263.83 991.61 263.83 991.61 344.5"/><polygon class="cls-7" points="1054.45 331.9 1106 331.9 1106 313.93 1054.45 313.93 1054.45 281.8 1109.98 281.8 1109.98 263.83 1033.01 263.83 1033.01 382.18 1110.44 382.18 1110.44 364.2 1054.45 364.2 1054.45 331.9"/></svg>