<?xml version="1.0" encoding="UTF-8" standalone="no"?>
<svg
   xmlns:dc="http://purl.org/dc/elements/1.1/"
   xmlns:cc="http://creativecommons.org/ns#"
   xmlns:rdf="http://www.w3.org/1999/02/22-rdf-syntax-ns#"
   xmlns:svg="http://www.w3.org/2000/svg"
   xmlns="http://www.w3.org/2000/svg"
   xmlns:sodipodi="http://sodipodi.sourceforge.net/DTD/sodipodi-0.dtd"
   xmlns:inkscape="http://www.inkscape.org/namespaces/inkscape"
   version="1.1"
   id="svg2"
   xml:space="preserve"
   width="1187.7333"
   height="278.44135"
   viewBox="0 0 1187.7333 278.44135"
   sodipodi:docname="Contrast_Logo_CMYK.ai"><metadata
     id="metadata8"><rdf:RDF><cc:Work
         rdf:about=""><dc:format>image/svg+xml</dc:format><dc:type
           rdf:resource="http://purl.org/dc/dcmitype/StillImage" /></cc:Work></rdf:RDF></metadata><defs
     id="defs6"><clipPath
       clipPathUnits="userSpaceOnUse"
       id="clipPath18"><path
         d="M 0,208.831 H 890.8 V 0 H 0 Z"
         id="path16" /></clipPath></defs><sodipodi:namedview
     pagecolor="#ffffff"
     bordercolor="#666666"
     borderopacity="1"
     objecttolerance="10"
     gridtolerance="10"
     guidetolerance="10"
     inkscape:pageopacity="0"
     inkscape:pageshadow="2"
     inkscape:window-width="640"
     inkscape:window-height="480"
     id="namedview4" /><g
     id="g10"
     inkscape:groupmode="layer"
     inkscape:label="Contrast_Logo_CMYK"
     transform="matrix(1.3333333,0,0,-1.3333333,0,278.44133)"><g
       id="g12"><g
         id="g14"
         clip-path="url(#clipPath18)"><g
           id="g20"
           transform="translate(60.8594,122.5936)"><path
             d="m 0,0 c 0,-26.185 10.078,-49.431 26.65,-65.095 -2.619,-0.237 -5.314,-0.352 -8.094,-0.352 -46.891,0 -79.415,27.149 -79.415,64.299 0,37.15 32.524,64.307 79.415,64.307 1.861,0 3.676,-0.038 5.429,-0.107 C 8.937,47.304 0,24.861 0,0"
             style="fill:#044d45;fill-opacity:1;fill-rule:nonzero;stroke:none"
             id="path22" /></g><g
           id="g24"
           transform="translate(264.9719,120.3066)"><path
             d="m 0,0 c 0,37.41 25.239,67.838 66.407,67.838 14.498,0 27.028,-3.758 35.44,-9.665 1.611,-1.253 1.969,-2.506 1.969,-4.654 V 41.526 c 0,-1.79 -0.895,-2.863 -2.327,-2.863 -0.715,0 -1.61,0.536 -2.327,1.073 -8.234,7.876 -20.226,12.53 -32.755,12.53 -30.429,0 -47.076,-21.121 -47.076,-51.55 0,-31.503 19.152,-51.013 45.822,-51.013 13.605,0 24.344,3.401 34.367,11.634 0.895,0.537 1.432,0.895 2.149,0.895 1.252,0 2.147,-1.073 2.147,-2.505 v -9.487 c 0,-2.148 -0.537,-2.864 -1.969,-3.938 C 91.466,-61.394 79.831,-64.975 61.753,-64.975 25.596,-64.975 0,-38.304 0,0"
             style="fill:#222349;fill-opacity:1;fill-rule:nonzero;stroke:none"
             id="path26" /></g><g
           id="g28"
           transform="translate(449.9874,101.3337)"><path
             d="M 0,0 C 0,18.973 -7.697,33.472 -25.775,33.472 -44.033,33.472 -51.55,18.615 -51.55,0 c 0,-18.795 7.697,-34.188 25.775,-34.188 C -7.518,-34.188 0,-18.616 0,0 m 17.362,0.358 c 0,-23.09 -13.603,-46.36 -43.137,-46.36 -29.355,0 -43.317,23.27 -43.317,46.36 0,22.911 13.962,45.285 43.317,45.285 29.534,0 43.137,-22.374 43.137,-45.285"
             style="fill:#222349;fill-opacity:1;fill-rule:nonzero;stroke:none"
             id="path30" /></g><g
           id="g32"
           transform="translate(493.3385,143.934)"><path
             d="m 0,0 c 0.895,0 1.432,-0.895 1.611,-1.611 0.538,-3.759 1.074,-11.098 1.074,-16.825 4.833,12.529 17.9,21.479 34.367,21.479 15.393,0 27.744,-9.487 27.744,-27.923 v -59.784 c 0,-0.716 -0.895,-1.611 -1.612,-1.611 H 50.119 c -0.895,0 -1.612,0.895 -1.612,1.611 v 56.025 c 0,13.066 -6.801,18.615 -17.541,18.615 -13.424,0 -26.133,-9.844 -26.133,-27.207 v -47.433 c 0,-0.716 -0.895,-1.611 -1.61,-1.611 H -9.844 c -0.895,0 -1.612,0.895 -1.612,1.611 v 68.733 c 0,9.308 -1.252,13.067 -1.252,14.32 0,0.716 0.716,1.611 1.431,1.611 z"
             style="fill:#222349;fill-opacity:1;fill-rule:nonzero;stroke:none"
             id="path34" /></g><g
           id="g36"
           transform="translate(592.4473,164.3393)"><path
             d="m 0,0 c 0.537,1.074 1.075,1.431 2.149,1.431 1.431,0 2.147,-0.715 2.147,-2.147 v -5.37 c 0,-4.475 -0.537,-10.203 -1.252,-14.856 4.832,0.357 14.139,0.537 20.762,0.537 0.716,0 1.254,-0.537 1.254,-1.612 v -9.307 c 0,-0.895 -0.359,-1.432 -1.254,-1.432 -6.264,0 -14.498,0 -20.762,0.537 C 3.58,-37.41 3.58,-42.601 3.58,-52.087 v -28.46 c 0,-11.456 5.549,-15.036 13.067,-15.036 2.326,0 4.654,0.358 6.264,1.253 1.254,0.537 2.149,0 2.149,-1.073 v -10.74 c 0,-0.895 -0.716,-1.611 -1.611,-1.79 -3.222,-0.716 -6.444,-1.074 -9.13,-1.074 -14.855,0 -27.027,8.95 -27.027,28.102 v 28.818 c 0,9.486 0.358,14.856 0.895,19.868 -3.58,-0.537 -8.413,-0.537 -10.918,-0.537 -1.074,0 -1.79,1.253 -1.79,3.401 0,1.969 0.178,3.043 1.252,3.58 C -14.14,-20.047 -6.264,-11.098 0,0"
             style="fill:#222349;fill-opacity:1;fill-rule:nonzero;stroke:none"
             id="path38" /></g><g
           id="g40"
           transform="translate(668.209,131.9415)"><path
             d="m 0,0 c -12.172,0 -18.615,-12.172 -18.615,-25.775 v -46.897 c 0,-0.715 -0.895,-1.61 -1.611,-1.61 h -13.067 c -0.895,0 -1.61,0.895 -1.61,1.61 v 68.734 c 0,9.308 -1.254,13.067 -1.254,14.319 0,0.716 0.716,1.611 1.433,1.611 h 11.276 c 0.896,0 1.432,-0.895 1.611,-1.611 0.716,-4.653 1.074,-11.276 1.074,-17.72 4.296,13.067 13.783,22.374 26.849,22.374 11.276,0 16.109,-5.728 16.109,-12.171 0,-5.191 -2.684,-8.95 -7.159,-8.95 C 8.95,-6.086 9.487,0 0,0"
             style="fill:#222349;fill-opacity:1;fill-rule:nonzero;stroke:none"
             id="path42" /></g><g
           id="g44"
           transform="translate(705.147,80.9283)"><path
             d="m 0,0 c 0,-8.771 6.802,-13.424 14.677,-13.424 13.783,0 23.091,11.097 23.091,25.058 V 23.09 C 10.203,21.121 0,11.456 0,0 m 53.698,39.378 c 0,-10.739 -0.895,-27.386 -0.895,-37.23 0,-12.53 2.506,-19.331 5.191,-21.3 0.716,-0.716 0.895,-1.253 0.895,-2.148 0,-1.074 -1.074,-1.969 -1.969,-1.969 h -7.876 c -2.684,0 -3.938,1.074 -4.833,3.222 -1.969,3.401 -3.4,9.128 -3.579,14.856 -5.013,-12.529 -15.215,-20.405 -30.429,-20.405 -16.288,0 -26.134,9.665 -26.134,22.732 0,17.899 17.363,32.577 53.699,34.725 v 5.907 c 0,9.844 -4.475,15.93 -18.078,15.93 -7.518,0 -12.71,-2.148 -15.931,-6.086 -2.506,-3.043 -4.117,-5.549 -8.054,-5.549 -3.939,0 -6.982,2.327 -6.982,6.802 0,6.086 8.951,17.183 32.219,17.183 24.523,0 32.756,-11.455 32.756,-26.67"
             style="fill:#222349;fill-opacity:1;fill-rule:nonzero;stroke:none"
             id="path46" /></g><g
           id="g48"
           transform="translate(775.0021,62.4918)"><path
             d="m 0,0 c -1.074,0.895 -1.431,1.969 -1.431,3.043 v 8.234 c 0,1.432 0.357,2.327 1.252,2.327 1.074,0 1.79,-0.358 2.505,-1.075 5.549,-4.474 13.962,-7.696 22.733,-7.696 11.455,0 17.542,5.549 17.542,12.529 0,9.308 -8.413,11.456 -20.764,15.752 -11.813,3.938 -23.09,10.023 -23.09,25.954 0,13.424 11.992,25.417 31.861,25.417 10.382,0 18.257,-3.043 22.553,-6.623 2.327,-1.969 3.043,-3.58 3.043,-6.086 0,-4.475 -3.043,-7.517 -6.085,-7.517 -2.149,0 -3.402,0.358 -5.013,1.789 -4.833,3.939 -9.844,5.907 -15.393,5.907 -10.382,0 -15.215,-5.907 -15.215,-12.35 0,-9.129 7.518,-11.456 17.005,-14.678 C 48.865,39.021 58.352,33.293 58.352,18.437 58.352,3.222 44.927,-7.16 25.238,-7.16 13.962,-7.16 5.549,-3.938 0,0"
             style="fill:#222349;fill-opacity:1;fill-rule:nonzero;stroke:none"
             id="path50" /></g><g
           id="g52"
           transform="translate(865.7404,164.3393)"><path
             d="m 0,0 c 0.537,1.074 1.075,1.431 2.149,1.431 1.431,0 2.147,-0.715 2.147,-2.147 v -5.37 c 0,-4.475 -0.537,-10.203 -1.252,-14.856 4.832,0.357 14.139,0.537 20.762,0.537 0.716,0 1.254,-0.537 1.254,-1.612 v -9.307 c 0,-0.895 -0.359,-1.432 -1.254,-1.432 -6.264,0 -14.498,0 -20.762,0.537 C 3.58,-37.41 3.58,-42.601 3.58,-52.087 v -28.46 c 0,-11.456 5.549,-15.036 13.067,-15.036 2.326,0 4.654,0.358 6.264,1.253 1.254,0.537 2.149,0 2.149,-1.073 v -10.74 c 0,-0.895 -0.716,-1.611 -1.611,-1.79 -3.222,-0.716 -6.444,-1.074 -9.13,-1.074 -14.855,0 -27.027,8.95 -27.027,28.102 v 28.818 c 0,9.486 0.358,14.856 0.895,19.868 -3.58,-0.537 -8.413,-0.537 -10.918,-0.537 -1.074,0 -1.79,1.253 -1.79,3.401 0,1.969 0.178,3.043 1.252,3.58 C -14.14,-20.047 -6.264,-11.098 0,0"
             style="fill:#222349;fill-opacity:1;fill-rule:nonzero;stroke:none"
             id="path54" /></g><g
           id="g56"
           transform="translate(288.9894,9.801)"><path
             d="m 0,0 c 0,4.259 -3.284,5.337 -8.775,7.595 -4.875,1.899 -9.185,4.619 -9.185,10.468 0,5.235 4.207,10.263 12.059,10.263 3.592,0 6.517,-0.821 9.031,-2.514 0.462,-0.36 0.514,-0.667 0.514,-1.283 V 21.04 c 0,-0.462 -0.257,-0.719 -0.616,-0.719 -0.257,0 -0.462,0.103 -0.668,0.308 -2.463,2.412 -5.337,3.541 -8.621,3.541 -4.207,0 -6.516,-2.566 -6.516,-5.645 0,-3.951 3.642,-5.337 7.748,-6.979 C 1.796,8.98 5.183,6.107 5.183,0.565 c 0,-6.518 -5.337,-10.366 -12.418,-10.366 -4.978,0 -7.493,0.975 -10.674,3.233 -0.308,0.308 -0.513,0.615 -0.513,1.18 v 2.823 c 0,0.512 0.205,0.821 0.513,0.821 0.257,0 0.462,-0.154 0.667,-0.36 2.977,-2.412 6.209,-3.694 9.802,-3.694 C -2.823,-5.798 0,-3.386 0,0"
             style="fill:#9fa5b4;fill-opacity:1;fill-rule:nonzero;stroke:none"
             id="path58" /></g><g
           id="g60"
           transform="translate(331.6615,4.7726)"><path
             d="m 0,0 c 0.205,0 0.359,-0.154 0.359,-0.462 l -0.41,-3.182 c -0.051,-0.256 -0.103,-0.41 -0.36,-0.41 h -22.322 c -0.256,0 -0.461,0.256 -0.461,0.461 v 35.254 c 0,0.257 0.205,0.513 0.461,0.513 H -1.18 c 0.257,0 0.359,-0.153 0.41,-0.462 l 0.359,-3.181 c 0,-0.257 -0.102,-0.41 -0.359,-0.41 -3.079,0 -8.21,0.102 -11.186,0.102 -2.669,0 -4.465,0.051 -6.209,0.154 0.102,-2.001 0.153,-4.054 0.153,-5.798 0,-1.899 -0.051,-3.9 -0.153,-5.902 1.59,0.154 3.386,0.205 5.951,0.205 2.618,0 4.516,0.052 5.748,0.052 0.206,0 0.359,-0.154 0.359,-0.462 v -3.079 c 0,-0.256 -0.102,-0.41 -0.359,-0.41 -1.283,0 -3.232,0.051 -5.85,0.051 -2.206,0 -4.156,0.103 -5.849,0.256 0.102,-2.257 0.153,-4.413 0.153,-6.516 0,-2.31 -0.051,-4.721 -0.153,-7.031 2.411,0.154 4.413,0.154 8.21,0.154 C -6.671,-0.103 -3.079,0 0,0"
             style="fill:#9fa5b4;fill-opacity:1;fill-rule:nonzero;stroke:none"
             id="path62" /></g><g
           id="g64"
           transform="translate(341.3377,18.6788)"><path
             d="m 0,0 c 0,10.725 7.235,19.448 19.037,19.448 4.158,0 7.749,-1.077 10.161,-2.77 0.462,-0.36 0.565,-0.719 0.565,-1.335 v -3.438 c 0,-0.513 -0.256,-0.821 -0.667,-0.821 -0.206,0 -0.463,0.154 -0.668,0.308 -2.36,2.258 -5.798,3.592 -9.391,3.592 -8.723,0 -13.495,-6.055 -13.495,-14.779 0,-9.031 5.491,-14.625 13.137,-14.625 3.9,0 6.979,0.975 9.852,3.336 0.257,0.154 0.411,0.257 0.616,0.257 0.36,0 0.616,-0.309 0.616,-0.719 v -2.72 c 0,-0.615 -0.154,-0.821 -0.565,-1.129 -2.976,-2.206 -6.312,-3.232 -11.494,-3.232 C 7.338,-18.627 0,-10.981 0,0"
             style="fill:#9fa5b4;fill-opacity:1;fill-rule:nonzero;stroke:none"
             id="path66" /></g><g
           id="g68"
           transform="translate(388.8022,36.947)"><path
             d="m 0,0 c 0.205,0 0.462,-0.257 0.462,-0.513 v -22.682 c 0,-5.798 3.643,-9.134 9.852,-9.134 6.312,0 9.956,2.925 9.956,8.878 V -0.513 C 20.27,-0.257 20.475,0 20.731,0 h 4.157 c 0.205,0 0.461,-0.257 0.461,-0.513 v -23.605 c 0,-7.8 -6.054,-12.777 -15.035,-12.777 -8.979,0 -15.086,5.028 -15.086,12.931 V -0.513 C -4.772,-0.257 -4.567,0 -4.31,0 Z"
             style="fill:#9fa5b4;fill-opacity:1;fill-rule:nonzero;stroke:none"
             id="path70" /></g><g
           id="g72"
           transform="translate(434.9839,33.2007)"><path
             d="m 0,0 c 0.102,-1.898 0.153,-5.747 0.153,-7.8 0,-2.104 -0.051,-4.207 -0.153,-6.26 0.923,0.051 2.36,0.154 3.797,0.154 6.107,0 8.826,2.822 8.826,7.389 0,3.9 -2.36,6.363 -7.338,6.363 C 3.437,-0.154 1.744,-0.102 0,0 m -0.052,-17.498 c 0.154,-2.207 0.205,-4.516 0.205,-6.928 v -7.595 c 0,-0.205 -0.256,-0.461 -0.461,-0.461 h -4.26 c -0.256,0 -0.461,0.256 -0.461,0.461 v 35.1 c 0,0.359 0.256,0.667 0.461,0.667 H 5.901 c 8.415,0 12.162,-4.515 12.162,-10.109 0,-5.593 -5.029,-9.596 -10.315,-10.006 2.617,-0.565 6.414,-4.259 10.109,-8.468 2.873,-3.181 4.926,-5.542 6.004,-6.106 0.257,-0.102 0.308,-0.359 0.308,-0.718 0,-0.513 -0.257,-0.821 -0.667,-0.821 h -4.721 c -0.667,0 -1.181,0.308 -2.309,1.847 -4.567,5.286 -9.956,13.034 -13.598,13.034 -0.565,0 -2.002,0.052 -2.926,0.103"
             style="fill:#9fa5b4;fill-opacity:1;fill-rule:nonzero;stroke:none"
             id="path74" /></g><g
           id="g76"
           transform="translate(476.3262,1.18)"><path
             d="m 0,0 c 0,-0.205 -0.256,-0.462 -0.462,-0.462 h -4.259 c -0.256,0 -0.462,0.257 -0.462,0.462 v 35.254 c 0,0.256 0.206,0.513 0.462,0.513 h 4.259 C -0.256,35.767 0,35.51 0,35.254 Z"
             style="fill:#9fa5b4;fill-opacity:1;fill-rule:nonzero;stroke:none"
             id="path78" /></g><g
           id="g80"
           transform="translate(520.0256,36.5365)"><path
             d="m 0,0 v -3.489 c 0,-0.206 -0.102,-0.359 -0.359,-0.359 -1.899,0 -4.157,0.102 -6.055,0.102 -2.258,0 -4.619,0.051 -6.877,0.154 0.103,-1.898 0.154,-3.797 0.154,-5.696 v -26.068 c 0,-0.206 -0.256,-0.462 -0.461,-0.462 h -4.26 c -0.256,0 -0.461,0.256 -0.461,0.462 v 26.171 c 0,1.898 0.051,3.797 0.154,5.593 -2.053,-0.103 -4.157,-0.154 -6.21,-0.154 -2.36,0 -4.464,-0.102 -6.825,-0.102 -0.256,0 -0.41,0.153 -0.359,0.41 l 0.461,3.386 c 0.052,0.309 0.155,0.463 0.36,0.463 H -0.359 C -0.102,0.411 0,0.257 0,0"
             style="fill:#9fa5b4;fill-opacity:1;fill-rule:nonzero;stroke:none"
             id="path82" /></g><g
           id="g84"
           transform="translate(547.3234,1.18)"><path
             d="m 0,0 c 0,-0.205 -0.257,-0.462 -0.462,-0.462 h -4.259 c -0.256,0 -0.463,0.257 -0.463,0.462 v 15.344 l -14.675,19.602 c -0.308,0.41 -0.308,0.821 0.256,0.821 h 4.773 c 0.462,0 0.718,-0.257 0.872,-0.564 l 8.416,-11.136 c 1.179,-1.694 2.258,-3.336 3.079,-5.183 1.026,1.95 2.052,3.593 3.181,5.132 l 8.467,11.187 c 0.308,0.461 0.668,0.564 1.078,0.564 h 4.311 c 0.564,0 0.564,-0.411 0.256,-0.821 L 0,15.344 Z"
             style="fill:#9fa5b4;fill-opacity:1;fill-rule:nonzero;stroke:none"
             id="path86" /></g><g
           id="g88"
           transform="translate(199.4352,173.2953)"><path
             d="m 0,0 c 2.215,-14.278 -8.778,-26.032 -27.448,-26.032 -28.06,0 -33.04,36.11 -87.142,38.382 13.682,14.378 32.444,23.186 54.147,23.186 0.428,0 0.848,0 1.276,-0.008 C -27.952,35.528 -2.429,15.587 0,0"
             style="fill:#009f52;fill-opacity:1;fill-rule:nonzero;stroke:none"
             id="path90" /></g><g
           id="g92"
           transform="translate(183.2044,94.909)"><path
             d="m 0,0 c 7.235,-1.408 16.513,-6.351 16.513,-21.379 0,-20.867 -32.494,-36.439 -59.51,-36.699 h -0.131 -0.092 -0.031 c -20.574,0.03 -38.72,7.782 -52.444,20.668 C -48.082,-33.378 -25.783,5.043 0,0"
             style="fill:#222349;fill-opacity:1;fill-rule:nonzero;stroke:none"
             id="path94" /></g></g></g></g></svg>
