<?xml version="1.0" encoding="UTF-8" standalone="no"?>
<svg
   xmlns:dc="http://purl.org/dc/elements/1.1/"
   xmlns:cc="http://creativecommons.org/ns#"
   xmlns:rdf="http://www.w3.org/1999/02/22-rdf-syntax-ns#"
   xmlns:svg="http://www.w3.org/2000/svg"
   xmlns="http://www.w3.org/2000/svg"
   viewBox="0 0 523.90668 158.77333"
   height="158.77333"
   width="523.90668"
   xml:space="preserve"
   id="svg2"
   version="1.1"><metadata
     id="metadata8"><rdf:RDF><cc:Work
         rdf:about=""><dc:format>image/svg+xml</dc:format><dc:type
           rdf:resource="http://purl.org/dc/dcmitype/StillImage" /></cc:Work></rdf:RDF></metadata><defs
     id="defs6" /><g
     transform="matrix(1.3333333,0,0,-1.3333333,0,158.77333)"
     id="g10"><g
       transform="scale(0.1)"
       id="g12"><path
         id="path14"
         style="fill:#4552ac;fill-opacity:1;fill-rule:nonzero;stroke:none"
         d="m 802.988,104.379 -495.953,-0.098 v 0.098 C 137.445,104.379 0,241.848 0,411.426 c 0,113.32 62.0156,211.023 153.328,264.254 -6.941,20.922 -11.617,42.992 -11.617,66.324 0,117.336 95.187,212.566 212.566,212.566 22.442,0 43.598,-4.437 63.922,-10.871 67.5,145.591 213.836,247.061 384.789,247.061 V 104.379" /><path
         id="path16"
         style="fill:#47b6d3;fill-opacity:1;fill-rule:nonzero;stroke:none"
         d="M 988.578,1040.47 H 839.281 v 149.31 h 149.297 v -149.31" /><path
         id="path18"
         style="fill:#5bc6a2;fill-opacity:1;fill-rule:nonzero;stroke:none"
         d="M 1175.21,1040.47 H 1025.9 v 149.31 h 149.31 v -149.31" /><path
         id="path20"
         style="fill:#47b6d3;fill-opacity:1;fill-rule:nonzero;stroke:none"
         d="M 988.578,853.871 H 839.281 V 1003.16 H 988.578 V 853.871" /><path
         id="path22"
         style="fill:#5bc6a2;fill-opacity:1;fill-rule:nonzero;stroke:none"
         d="M 1175.21,853.871 H 1025.9 v 149.289 h 149.31 V 853.871" /><path
         id="path24"
         style="fill:#63c55a;fill-opacity:1;fill-rule:nonzero;stroke:none"
         d="m 1361.82,853.871 h -149.3 v 149.289 h 149.3 V 853.871" /><path
         id="path26"
         style="fill:#47b6d3;fill-opacity:1;fill-rule:nonzero;stroke:none"
         d="M 988.578,667.25 H 839.281 V 816.539 H 988.578 V 667.25" /><path
         id="path28"
         style="fill:#5bc6a2;fill-opacity:1;fill-rule:nonzero;stroke:none"
         d="M 1175.21,667.25 H 1025.9 v 149.289 h 149.31 V 667.25" /><path
         id="path30"
         style="fill:#63c55a;fill-opacity:1;fill-rule:nonzero;stroke:none"
         d="m 1361.82,667.25 h -149.3 v 149.289 h 149.3 V 667.25" /><path
         id="path32"
         style="fill:#47b6d3;fill-opacity:1;fill-rule:nonzero;stroke:none"
         d="M 988.578,480.637 H 839.281 V 629.922 H 988.578 V 480.637" /><path
         id="path34"
         style="fill:#5bc6a2;fill-opacity:1;fill-rule:nonzero;stroke:none"
         d="M 1175.21,480.637 H 1025.9 v 149.285 h 149.31 V 480.637" /><path
         id="path36"
         style="fill:#63c55a;fill-opacity:1;fill-rule:nonzero;stroke:none"
         d="m 1361.82,480.637 h -149.3 v 149.285 h 149.3 V 480.637" /><path
         id="path38"
         style="fill:#99d426;fill-opacity:1;fill-rule:nonzero;stroke:none"
         d="m 1548.44,480.637 h -149.3 v 149.285 h 149.3 V 480.637" /><path
         id="path40"
         style="fill:#47b6d3;fill-opacity:1;fill-rule:nonzero;stroke:none"
         d="M 988.578,294.004 H 839.281 V 443.293 H 988.578 V 294.004" /><path
         id="path42"
         style="fill:#5bc6a2;fill-opacity:1;fill-rule:nonzero;stroke:none"
         d="M 1175.21,294.004 H 1025.9 v 149.289 h 149.31 V 294.004" /><path
         id="path44"
         style="fill:#63c55a;fill-opacity:1;fill-rule:nonzero;stroke:none"
         d="m 1361.82,294.004 h -149.3 v 149.289 h 149.3 V 294.004" /><path
         id="path46"
         style="fill:#99d426;fill-opacity:1;fill-rule:nonzero;stroke:none"
         d="m 1548.44,294.004 h -149.3 v 149.289 h 149.3 V 294.004" /><path
         id="path48"
         style="fill:#47b6d3;fill-opacity:1;fill-rule:nonzero;stroke:none"
         d="M 988.578,107.391 H 839.281 V 256.68 H 988.578 V 107.391" /><path
         id="path50"
         style="fill:#5bc6a2;fill-opacity:1;fill-rule:nonzero;stroke:none"
         d="M 1175.21,107.391 H 1025.9 V 256.68 h 149.31 V 107.391" /><path
         id="path52"
         style="fill:#63c55a;fill-opacity:1;fill-rule:nonzero;stroke:none"
         d="m 1361.82,107.391 h -149.3 V 256.68 h 149.3 V 107.391" /><path
         id="path54"
         style="fill:#100f0d;fill-opacity:1;fill-rule:nonzero;stroke:none"
         d="m 1751.24,757.094 c 0,114.094 71.31,180.801 166.08,180.801 35.88,0 64.87,-6.899 88.78,-20.243 l -8.74,-22.082 c -21.62,9.66 -48.3,15.184 -80.04,15.184 -77.75,0 -133.42,-52.449 -133.42,-151.816 0,-105.813 53.83,-147.219 121,-147.219 36.34,0 61.18,8.281 87.4,25.761 l 11.51,-22.082 c -28.07,-19.324 -60.27,-30.824 -102.59,-30.824 -89.72,0 -149.98,53.364 -149.98,172.52" /><path
         id="path56"
         style="fill:#100f0d;fill-opacity:1;fill-rule:nonzero;stroke:none"
         d="m 2234.26,710.172 c 0,70.844 -31.75,101.668 -76.84,101.668 -45.54,0 -76.82,-30.824 -76.82,-101.668 0,-70.391 31.28,-101.211 76.82,-101.211 45.09,0 76.84,30.82 76.84,101.211 z m 30.82,0 c 0,-82.813 -41.87,-125.598 -107.66,-125.598 -65.78,0 -107.64,42.785 -107.64,125.598 0,83.266 41.86,125.59 107.64,125.59 65.79,0 107.66,-42.324 107.66,-125.59" /><path
         id="path58"
         style="fill:#100f0d;fill-opacity:1;fill-rule:nonzero;stroke:none"
         d="M 2513.47,735.473 V 591.016 h -29.45 v 155.039 c 0,47.843 -18.39,65.785 -60.26,65.785 -22.54,0 -42.32,-7.82 -62.57,-23.918 V 591.016 h -29.44 v 237.847 l 29.44,4.141 V 811.84 c 20.7,15.183 46.47,24.387 73.61,24.387 44.62,0 73.61,-17.028 77.75,-64.411 0.92,-10.582 0.92,-20.703 0.92,-36.343" /><path
         id="path60"
         style="fill:#100f0d;fill-opacity:1;fill-rule:nonzero;stroke:none"
         d="m 2707.58,596.074 c -12.88,-6.441 -27.61,-11.5 -47.39,-11.5 -37.26,0 -52.9,21.621 -54.75,48.309 -0.92,12.422 -0.92,23.461 -0.92,40.023 v 133.875 h -34.96 v 23.004 h 34.96 v 59.348 l 29.44,5.055 v -64.403 h 70.85 l -3.68,-23.004 h -67.17 v -145.84 c 0,-39.562 10.59,-51.523 38.19,-51.523 9.67,0 18.41,1.379 29.44,5.98 l 5.99,-19.324" /><path
         id="path62"
         style="fill:#100f0d;fill-opacity:1;fill-rule:nonzero;stroke:none"
         d="m 2826.71,608.496 c 19.77,0 41.86,6.442 63.94,21.625 v 72.227 c -12.88,2.3 -28.06,3.683 -48.31,3.683 -40.02,0 -64.86,-13.804 -64.86,-46.929 0,-33.582 17.02,-50.606 49.23,-50.606 z m 70.38,-21.16 -5.52,23.461 c -26.68,-18.399 -50.6,-26.223 -74.99,-26.223 -39.56,0 -69.46,18.406 -69.46,72.227 0,48.304 38.18,72.691 97.07,72.691 16.56,0 33.58,-2.301 46.46,-5.062 v 30.367 c 0,35.883 -16.1,57.043 -58.42,57.043 -17.94,0 -39.1,-4.598 -58.89,-15.641 l -8.74,20.242 c 23.47,13.344 48.3,19.786 74.07,19.786 47.38,0 78.21,-23.469 80.97,-67.168 0.46,-10.582 0.46,-21.164 0.46,-36.809 v -86.945 c 0,-20.246 0.92,-30.828 5.97,-54.289 l -28.98,-3.68" /><path
         id="path64"
         style="fill:#100f0d;fill-opacity:1;fill-rule:nonzero;stroke:none"
         d="m 3002.87,828.863 29.44,4.141 V 591.016 h -29.44 z m -0.46,88.789 c 7.37,2.297 22.08,2.297 29.45,0 v -38.183 c -7.37,-2.301 -22.08,-2.301 -29.45,0 v 38.183" /><path
         id="path66"
         style="fill:#100f0d;fill-opacity:1;fill-rule:nonzero;stroke:none"
         d="M 3299.12,735.473 V 591.016 h -29.44 v 155.039 c 0,47.843 -18.4,65.785 -60.27,65.785 -22.53,0 -42.32,-7.82 -62.56,-23.918 V 591.016 h -29.45 v 237.847 l 29.45,4.141 V 811.84 c 20.7,15.183 46.46,24.387 73.61,24.387 44.62,0 73.6,-17.028 77.74,-64.411 0.92,-10.582 0.92,-20.703 0.92,-36.343" /><path
         id="path68"
         style="fill:#100f0d;fill-opacity:1;fill-rule:nonzero;stroke:none"
         d="m 3388.81,727.652 h 125.59 c -1.38,64.411 -17.49,84.188 -57.05,84.188 -41.4,0 -65.79,-23 -68.54,-84.188 z m 139.85,-104.894 6.91,-21.621 c -26.23,-12.422 -51.07,-16.563 -76.37,-16.563 -69.47,0 -100.29,37.266 -100.29,122.375 0,92.012 39.56,129.278 99.82,129.278 53.37,0 79.59,-30.829 83.27,-91.555 0.92,-15.18 0.92,-25.301 0.92,-40.024 h -155.03 c 1.84,-72.226 27.14,-95.23 73.15,-95.23 25.76,0 46.92,4.141 67.62,13.34" /><path
         id="path70"
         style="fill:#100f0d;fill-opacity:1;fill-rule:nonzero;stroke:none"
         d="m 3612.35,827.48 29.45,4.141 V 802.18 c 11.5,24.843 29.9,34.047 48.31,34.047 11.96,0 18.85,-2.766 24.84,-6.907 l -3.22,-24.84 c -7.36,2.301 -13.8,3.68 -24.39,3.68 -21.16,0 -36.34,-11.5 -45.54,-32.66 V 591.016 h -29.45 V 827.48" /><path
         id="path72"
         style="fill:#100f0d;fill-opacity:1;fill-rule:nonzero;stroke:none"
         d="m 1741.35,147.602 13.04,57.593 c 31.5,-13.496 59.4,-17.996 84.6,-17.996 36.9,0 53.1,16.649 53.1,35.098 0,19.793 -11.7,31.941 -57.15,51.297 -47.24,20.246 -80.99,41.844 -80.99,95.39 0,55.801 49.94,100.801 121.94,100.801 31.5,0 64.35,-6.75 88.19,-19.347 l -13.04,-55.348 c -21.6,7.195 -43.65,11.695 -67.5,11.695 -23.4,0 -46.8,-11.695 -46.8,-30.144 0,-17.996 10.8,-32.403 50.4,-47.703 54.45,-21.145 87.74,-46.797 87.74,-95.391 0,-68.848 -59.84,-109.348 -140.84,-109.348 -30.15,0 -67.5,8.09 -92.69,23.403" /><path
         id="path74"
         style="fill:#100f0d;fill-opacity:1;fill-rule:nonzero;stroke:none"
         d="m 2171.54,247.488 c 0,44.106 -13.95,63.899 -45,63.899 -31.04,0 -45,-19.793 -45,-63.899 0,-44.09 13.96,-63.898 45,-63.898 31.05,0 45,19.808 45,63.898 z m 81,0 c 0,-81.886 -48.6,-125.09 -126,-125.09 -77.4,0 -125.99,43.204 -125.99,125.09 0,81.907 48.59,125.102 125.99,125.102 77.4,0 126,-43.195 126,-125.102" /><path
         id="path76"
         style="fill:#100f0d;fill-opacity:1;fill-rule:nonzero;stroke:none"
         d="m 2290.8,465.73 81,4.504 V 130.5 h -81 v 335.23" /><path
         id="path78"
         style="fill:#100f0d;fill-opacity:1;fill-rule:nonzero;stroke:none"
         d="M 2649.88,368.535 V 130.5 h -80.99 v 19.34 c -21.6,-15.289 -45.45,-23.84 -67.95,-23.84 -52.65,0 -78.3,27.898 -81.9,73.348 -0.91,10.347 -0.91,25.64 -0.91,40.945 v 123.75 l 81.01,4.492 V 235.793 c 0,-34.648 10.34,-48.594 35.55,-48.594 11.7,0 23.4,4.949 34.2,13.946 v 162.898 l 80.99,4.492" /><path
         id="path80"
         style="fill:#100f0d;fill-opacity:1;fill-rule:nonzero;stroke:none"
         d="m 2861.83,188.102 6.3,-49.063 c -19.35,-8.988 -46.8,-15.289 -76.95,-15.289 -44.1,0 -64.79,20.691 -67.95,52.199 -1.79,16.649 -2.24,28.797 -2.24,59.395 v 72.449 h -34.2 v 58.496 h 34.2 v 47.246 l 80.99,22.949 v -70.195 h 67.5 l -8.1,-58.496 h -59.4 v -76.504 c 0,-35.098 7.65,-46.348 34.2,-46.348 9,0 15.74,0.911 25.65,3.161" /><path
         id="path82"
         style="fill:#100f0d;fill-opacity:1;fill-rule:nonzero;stroke:none"
         d="m 2902.78,364.043 81,4.492 V 130.5 h -81 z m 0,106.641 c 18.9,3.156 62.09,3.156 81,0 v -69.297 c -18.91,-3.157 -62.1,-3.157 -81,0 v 69.297" /><path
         id="path84"
         style="fill:#100f0d;fill-opacity:1;fill-rule:nonzero;stroke:none"
         d="m 3193.02,247.488 c 0,44.106 -13.96,63.899 -45,63.899 -31.05,0 -45,-19.793 -45,-63.899 0,-44.09 13.95,-63.898 45,-63.898 31.04,0 45,19.808 45,63.898 z m 80.99,0 c 0,-81.886 -48.6,-125.09 -125.99,-125.09 -77.4,0 -126,43.204 -126,125.09 0,81.907 48.6,125.102 126,125.102 77.39,0 125.99,-43.195 125.99,-125.102" /><path
         id="path86"
         style="fill:#100f0d;fill-opacity:1;fill-rule:nonzero;stroke:none"
         d="M 3544.01,258.293 V 130.5 h -80.99 v 132.293 c 0,34.648 -9.01,48.594 -36.46,48.594 -11.25,0 -22.95,-4.492 -33.29,-13.047 V 130.5 h -80.99 v 233.543 l 80.99,4.492 V 350.09 c 21.59,13.953 45.45,22.5 67.94,22.5 52.66,0 77.85,-27.902 81.91,-73.352 0.89,-10.351 0.89,-25.644 0.89,-40.945" /><path
         id="path88"
         style="fill:#100f0d;fill-opacity:1;fill-rule:nonzero;stroke:none"
         d="m 3579.12,143.539 10.8,53.102 c 22.05,-10.789 41.4,-15.743 66.6,-15.743 16.65,0 22.5,5.852 22.5,15.743 0,9.902 -9,18.007 -31.95,28.347 -36.44,16.653 -58.94,34.2 -58.94,76.059 0,48.594 45.89,71.543 91.79,71.543 29.7,0 50.85,-5.852 68.4,-15.754 l -7.21,-50.852 c -16.65,6.758 -33.75,9.907 -53.99,9.907 -14.41,0 -22.05,-6.301 -22.05,-14.844 0,-10.356 13.95,-18.012 35.99,-27.902 41.41,-17.997 55.81,-40.047 55.81,-75.594 0,-51.75 -43.2,-73.352 -97.65,-73.352 -30.6,0 -60.29,7.199 -80.1,19.34" /></g></g></svg>