<?xml version="1.0" encoding="UTF-8" standalone="no"?>
<svg
   xmlns:dc="http://purl.org/dc/elements/1.1/"
   xmlns:cc="http://creativecommons.org/ns#"
   xmlns:rdf="http://www.w3.org/1999/02/22-rdf-syntax-ns#"
   xmlns:svg="http://www.w3.org/2000/svg"
   xmlns="http://www.w3.org/2000/svg"
   xmlns:sodipodi="http://sodipodi.sourceforge.net/DTD/sodipodi-0.dtd"
   xmlns:inkscape="http://www.inkscape.org/namespaces/inkscape"
   version="1.1"
   id="svg2"
   xml:space="preserve"
   width="992.40002"
   height="449.26666"
   viewBox="0 0 992.40002 449.26666"
   sodipodi:docname="Logo_EPS.eps"><metadata
     id="metadata8"><rdf:RDF><cc:Work
         rdf:about=""><dc:format>image/svg+xml</dc:format><dc:type
           rdf:resource="http://purl.org/dc/dcmitype/StillImage" /></cc:Work></rdf:RDF></metadata><defs
     id="defs6" /><sodipodi:namedview
     pagecolor="#ffffff"
     bordercolor="#666666"
     borderopacity="1"
     objecttolerance="10"
     gridtolerance="10"
     guidetolerance="10"
     inkscape:pageopacity="0"
     inkscape:pageshadow="2"
     inkscape:window-width="640"
     inkscape:window-height="480"
     id="namedview4" /><g
     id="g10"
     inkscape:groupmode="layer"
     inkscape:label="ink_ext_XXXXXX"
     transform="matrix(1.3333333,0,0,-1.3333333,0,449.26667)"><g
       id="g12"
       transform="scale(0.1)"><path
         d="m 1890.97,1170.78 c -139.14,0 -266.04,53.65 -357.32,151.07 -89.97,96.01 -139.52,227.88 -139.52,371.29 0,143.42 49.55,275.29 139.52,371.31 91.28,97.43 218.18,151.09 357.32,151.09 145.71,0 275.17,-52.44 385.15,-155.96 l 129.2,140.99 c -99.26,96.47 -266.03,204.8 -514.35,204.8 -182.66,0 -351.47,-63.69 -479.81,-179.99 l -174.28,-815.81 c 34.04,-82.53 83.16,-157.76 146.14,-221.76 131.25,-133.42 311.65,-206.9 507.95,-206.9 248.33,0 415.1,108.34 514.35,204.83 l -129.2,140.95 c -109.95,-103.48 -239.43,-155.91 -385.15,-155.91"
         style="fill:#ee252c;fill-opacity:1;fill-rule:nonzero;stroke:none"
         id="path14" /><path
         d="m 1639.53,2801.9 c 0,-52.41 -42.49,-94.89 -94.9,-94.89 -52.41,0 -94.89,42.48 -94.89,94.89 0,52.42 42.48,94.9 94.89,94.9 52.41,0 94.9,-42.48 94.9,-94.9"
         style="fill:#a6a9a7;fill-opacity:1;fill-rule:nonzero;stroke:none"
         id="path16" /><path
         d="m 1245.96,1022.51 c 0,-52.401 -42.49,-94.901 -94.9,-94.901 -52.41,0 -94.89,42.5 -94.89,94.901 0,52.42 42.48,94.91 94.89,94.91 52.41,0 94.9,-42.49 94.9,-94.91"
         style="fill:#a6a9a7;fill-opacity:1;fill-rule:nonzero;stroke:none"
         id="path18" /><path
         d="M 2245.62,94.8984 C 2245.62,42.4883 2203.14,0 2150.73,0 c -52.41,0 -94.9,42.4883 -94.9,94.8984 0,52.4216 42.49,94.9026 94.9,94.9026 52.41,0 94.89,-42.481 94.89,-94.9026"
         style="fill:#a6a9a7;fill-opacity:1;fill-rule:nonzero;stroke:none"
         id="path20" /><path
         d="m 3032.77,2860.76 c 0,-52.4 -42.49,-94.9 -94.9,-94.9 -52.41,0 -94.89,42.5 -94.89,94.9 0,52.42 42.48,94.9 94.89,94.9 52.41,0 94.9,-42.48 94.9,-94.9"
         style="fill:#a6a9a7;fill-opacity:1;fill-rule:nonzero;stroke:none"
         id="path22" /><path
         d="m 1245.96,3274.63 c 0,-52.4 -42.49,-94.9 -94.9,-94.9 -52.41,0 -94.89,42.5 -94.89,94.9 0,52.42 42.48,94.9 94.89,94.9 52.41,0 94.9,-42.48 94.9,-94.9"
         style="fill:#a6a9a7;fill-opacity:1;fill-rule:nonzero;stroke:none"
         id="path24" /><path
         d="m 189.789,2198.67 c 0,-52.41 -42.484,-94.9 -94.8945,-94.9 -52.4101,0 -94.8945,42.49 -94.8945,94.9 0,52.41 42.4844,94.9 94.8945,94.9 52.4105,0 94.8945,-42.49 94.8945,-94.9"
         style="fill:#a6a9a7;fill-opacity:1;fill-rule:nonzero;stroke:none"
         id="path26" /><path
         d="m 584.32,511.461 c 0,-52.402 -42.484,-94.891 -94.898,-94.891 -52.406,0 -94.891,42.489 -94.891,94.891 0,52.418 42.485,94.898 94.891,94.898 52.414,0 94.898,-42.48 94.898,-94.898"
         style="fill:#a6a9a7;fill-opacity:1;fill-rule:nonzero;stroke:none"
         id="path28" /><path
         d="m 1538.48,2796.78 -393.57,472.73 12.31,10.24 393.57,-472.72 -12.31,-10.25"
         style="fill:#a6a9a7;fill-opacity:1;fill-rule:nonzero;stroke:none"
         id="path30" /><path
         d="M 100.617,2193.06 89.1836,2204.27 1145.35,3280.24 1156.78,3269.02 100.617,2193.06"
         style="fill:#a6a9a7;fill-opacity:1;fill-rule:nonzero;stroke:none"
         id="path32" /><path
         d="M 1145.1,1017.16 88.9375,2193.32 l 11.9215,10.69 1056.161,-1176.15 -11.92,-10.7"
         style="fill:#a6a9a7;fill-opacity:1;fill-rule:nonzero;stroke:none"
         id="path34" /><path
         d="m 494.316,505.121 -9.793,12.68 661.647,511.039 9.79,-12.66 -661.644,-511.059"
         style="fill:#a6a9a7;fill-opacity:1;fill-rule:nonzero;stroke:none"
         id="path36" /><path
         d="M 481.645,604.441 87.1211,2196.74 l 15.5549,3.85 394.519,-1592.301 -15.55,-3.848"
         style="fill:#a6a9a7;fill-opacity:1;fill-rule:nonzero;stroke:none"
         id="path38" /><path
         d="m 1158.88,1020.79 -15.64,3.45 393.57,1779.39 15.64,-3.45 -393.57,-1779.39"
         style="fill:#a6a9a7;fill-opacity:1;fill-rule:nonzero;stroke:none"
         id="path40" /><path
         d="m 2145.28,89.0313 -999.67,927.6087 10.9,11.74 999.67,-927.599 -10.9,-11.7497"
         style="fill:#a6a9a7;fill-opacity:1;fill-rule:nonzero;stroke:none"
         id="path42" /><path
         d="M 2148.78,87.1289 487.473,503.699 l 3.894,15.52 1661.303,-416.547 -3.89,-15.5431"
         style="fill:#a6a9a7;fill-opacity:1;fill-rule:nonzero;stroke:none"
         id="path44" /><path
         d="m 1544.97,2793.91 -0.67,16 1393.23,58.85 0.68,-16 -1393.24,-58.85"
         style="fill:#a6a9a7;fill-opacity:1;fill-rule:nonzero;stroke:none"
         id="path46" /><path
         d="m 2936.06,2852.95 -1786.8,413.87 3.61,15.62 1786.81,-413.88 -3.62,-15.61"
         style="fill:#a6a9a7;fill-opacity:1;fill-rule:nonzero;stroke:none"
         id="path48" /><path
         d="m 98.0195,2191.29 -6.2382,14.75 1424.9287,603.23 6.24,-14.75 L 98.0195,2191.29"
         style="fill:#a6a9a7;fill-opacity:1;fill-rule:nonzero;stroke:none"
         id="path50" /><path
         d="m 3341.4,1170.78 c -292.82,0 -505.34,219.68 -505.34,522.36 0,302.69 212.52,522.4 505.34,522.4 291.17,0 502.51,-219.71 502.51,-522.4 0,-302.68 -211.34,-522.36 -502.51,-522.36 z m 0,1234.59 c -409.27,0 -717.9,-306.19 -717.9,-712.23 0,-406.03 308.63,-712.23 717.9,-712.23 197.73,0 379.54,73.5 511.91,206.95 131,132.08 203.16,311.52 203.16,505.28 0,193.78 -72.15,373.23 -203.16,505.29 -132.37,133.44 -314.17,206.94 -511.91,206.94"
         style="fill:#ee252c;fill-opacity:1;fill-rule:nonzero;stroke:none"
         id="path52" /><path
         d="m 5016.03,2192.82 c 42.18,0 81.14,-3.83 116.2,-11.42 v 209.93 c -25.09,3.63 -52.18,5.52 -79.31,5.52 -155.48,0 -282.03,-58.63 -376.14,-174.26 l -35.55,-43.68 v 203.74 H 4437.19 V 1003.63 h 204.04 v 949.17 l 1.71,3.86 c 66.37,150.09 202.35,236.16 373.09,236.16"
         style="fill:#ee252c;fill-opacity:1;fill-rule:nonzero;stroke:none"
         id="path54" /><path
         d="m 5521.19,1826.37 6.23,24.88 c 56.17,224.75 234.23,369.97 453.65,369.97 240.78,3.01 418.09,-142.84 451.22,-371.96 l 3.31,-22.89 z m 951.33,380.12 c -118.43,130.11 -283.45,198.88 -477.25,198.88 -388.25,0 -692.37,-312.85 -692.37,-712.23 0,-193.84 71.54,-373.3 201.44,-505.33 131.26,-133.42 311.65,-206.9 507.95,-206.9 210.58,0 407.26,76.46 542.86,210.37 l -129.38,141.14 c -71.28,-66.27 -209.36,-161.64 -413.48,-161.64 -263.56,0 -472.47,193.85 -496.74,460.95 l -1.99,21.84 h 1153.69 c -7.39,230.04 -74.53,420.89 -194.73,552.92"
         style="fill:#ee252c;fill-opacity:1;fill-rule:nonzero;stroke:none"
         id="path56" /><path
         d="m 7442.98,2363.66 c 0,-175.82 -142.53,-318.35 -318.36,-318.35 -175.82,0 -318.36,142.53 -318.36,318.35 0,175.83 142.54,318.36 318.36,318.36 175.83,0 318.36,-142.53 318.36,-318.36"
         style="fill:#ee252c;fill-opacity:1;fill-rule:nonzero;stroke:none"
         id="path58" /><path
         d="m 6921.01,2298.69 c -2.02,-2.92 -3.52,-6.28 -4.49,-10.06 h 101.61 c -1.69,-7.81 -3.38,-15.6 -5.08,-23.4 h -121.2 v 15.24 c 0.11,2.8 0.39,5.52 0.8,8.16 1.39,8.76 4.43,16.58 9.12,23.37 7.13,10.3 15.25,14.16 27.57,19.99 5.73,2.72 12.88,6.1 21.99,11.07 20.06,10.92 28.44,15.68 34.3,23.84 6.09,8.46 9.19,19.27 9.21,32.12 v 0.12 c -0.08,21.88 -17.9,39.67 -39.81,39.67 -16.97,0 -31.51,-10.7 -37.2,-25.7 l -21.88,8.28 c 9.04,23.83 32.12,40.81 59.08,40.81 15.08,0 28.94,-5.3 39.81,-14.15 14.1,-11.46 23.19,-28.89 23.38,-48.39 0.01,-0.16 0.01,-0.32 0.01,-0.48 v -0.16 c -0.03,-17.85 -4.6,-33.24 -13.61,-45.76 -9.21,-12.83 -21.59,-19.57 -42.1,-30.74 -9.69,-5.27 -17.17,-8.82 -23.16,-11.66 -11.49,-5.45 -14.93,-7.24 -18.35,-12.17"
         style="fill:#ffffff;fill-opacity:1;fill-rule:nonzero;stroke:none"
         id="path60" /><path
         d="m 7098.69,2427.33 c -19.58,-24.69 -39.15,-49.37 -58.71,-74.04 h 58.71 z m 49.41,-74.05 c -1.69,-7.8 -3.39,-15.6 -5.08,-23.39 h -20.94 v -64.77 h -23.39 v 64.78 h -84.22 v 23.39 c 28.05,35.39 56.13,70.79 84.19,106.2 h 23.39 l -0.05,-0.09 h 0.08 v -106.12 h 26.02"
         style="fill:#ffffff;fill-opacity:1;fill-rule:nonzero;stroke:none"
         id="path62" /><path
         d="m 7357.4,2459.43 c -7.8,-17.95 -15.6,-35.88 -23.39,-53.82 -20.35,-46.83 -40.7,-93.66 -61.05,-140.48 h -23.39 c 24.76,56.97 49.52,113.94 74.28,170.91 h -68.74 c -1.7,7.79 -3.39,15.6 -5.08,23.39 h 107.37"
         style="fill:#ffffff;fill-opacity:1;fill-rule:nonzero;stroke:none"
         id="path64" /><path
         d="m 7216.5,2459.16 c -18.87,-43.43 -66.19,-150.6 -85.06,-194.02 h 23.39 c 18.87,43.41 66.19,150.59 85.06,194.02 h -23.39"
         style="fill:#ffffff;fill-opacity:1;fill-rule:nonzero;stroke:none"
         id="path66" /></g></g></svg>
