<?xml version="1.0" encoding="UTF-8"?><svg id="Layer_2" xmlns="http://www.w3.org/2000/svg" viewBox="0 0 1750 1156.54"><defs><style>.cls-1,.cls-2{fill:#091c38;}.cls-2,.cls-3{fill-rule:evenodd;}.cls-3{fill:#2272ad;}</style></defs><g id="Layer_1-2"><g><g><path class="cls-3" d="M773.63,588.85h-197.61c-12.75,0-24.5-6.88-30.75-17.98l-91.72-163.05c-6.04-10.74-6.04-23.86,0-34.6l91.72-163.05c6.25-11.11,18-17.98,30.75-17.98h112.29c12.75,0,24.5-6.88,30.75-17.98L802.27,26.29c6.61-11.76-1.88-26.29-15.38-26.29H484.26c-25.49,0-49,13.75-61.5,35.97L242.79,355.92c-12.08,21.48-12.08,47.71,0,69.19l179.97,319.95c12.5,22.22,36.01,35.97,61.5,35.97h387.94c13.49,0,21.99-14.53,15.38-26.29l-83.2-147.91c-6.25-11.11-18-17.99-30.75-17.99Z"/><path class="cls-1" d="M1305.37,139.54L1228.89,8.78c-6.87-11.75-23.89-11.62-30.59,.22l-324.81,577.09c-6.08,10.75-6.09,23.9-.04,34.66l84.56,151.25c6.71,12,23.97,12.05,30.75,.09L1305.96,209.76c12.29-21.85,12.06-48.58-.59-70.22Z"/><path class="cls-2" d="M915.47,404.17l96-171.02c6.13-10.9,6.03-24.23-.26-35.04L901.43,8.83c-6.85-11.8-23.92-11.7-30.63,.18l-93.42,166.04c-5.99,10.65-6.04,23.64-.14,34.34l107.4,194.66c6.68,12.1,24.05,12.17,30.82,.13Z"/><path class="cls-1" d="M1590.54,139.54L1514.06,8.78c-6.87-11.75-23.89-11.62-30.59,.22l-325.15,577.02c-6.08,10.75-6.09,23.9-.04,34.66l85.25,151.36c6.74,11.97,23.97,11.98,30.73,.03L1591.13,209.76c12.29-21.85,12.06-48.58-.59-70.22Z"/></g><g><path class="cls-1" d="M991.27,899.38h18.94c4.51,0,7.87,4.18,6.89,8.59l-52.07,234.63c-1.08,4.84-5.37,8.29-10.33,8.29h-24.65c-4.82,0-9.04-3.26-10.25-7.93l-44.82-172.87c-1.37-5.27-8.84-5.29-10.24-.03l-46.06,172.97c-1.23,4.64-5.43,7.86-10.23,7.86h-24.66c-4.98,0-9.28-3.47-10.34-8.33l-51.08-234.62c-.96-4.4,2.39-8.56,6.9-8.56h21.05c5.05,0,9.4,3.57,10.38,8.53l33.5,169.28c1.09,5.49,8.83,5.76,10.3,.36l46.35-170.37c1.25-4.61,5.44-7.81,10.21-7.81h19.12c4.79,0,8.98,3.21,10.22,7.84l45.76,170.4c1.45,5.4,9.19,5.16,10.3-.32l34.43-169.45c1-4.93,5.34-8.48,10.37-8.48Z"/><path class="cls-1" d="M38.86,1037.85c0,16.72,.94,30.32,2.83,40.8,1.88,10.48,5.3,18.67,10.24,24.55,4.95,5.89,11.71,9.89,20.31,12.01,8.59,2.12,19.6,3.18,33.03,3.18,6.75,0,36.13-.4,50.15-.6,4.5-.06,8.53,2.72,10.08,6.94l6.15,16.78c1.68,4.57-1.67,9.43-6.54,9.48-18.35,.2-55.94,.6-59.84,.6-20.26,0-37.15-2.06-50.69-6.18-13.54-4.12-24.37-10.65-32.5-19.61-8.12-8.95-13.84-20.67-17.13-35.15-3.3-14.48-4.94-32.08-4.94-52.81v-25.79c0-21.67,1.82-39.74,5.47-54.22,3.65-14.48,9.59-26.14,17.84-34.97,8.24-8.83,19.02-15.07,32.32-18.72,13.3-3.65,29.73-5.47,49.28-5.47,6.32,0,42.22,.39,60.08,.59,4.9,.05,8.25,4.97,6.51,9.56l-6.38,16.83c-1.58,4.16-5.58,6.89-10.02,6.83-14.91-.19-47.45-.61-50.89-.61-13.66,0-24.73,.94-33.21,2.83-8.48,1.89-15.14,5.71-19.96,11.48-4.83,5.77-8.07,13.9-9.71,24.37-1.65,10.48-2.47,24.32-2.47,41.51v25.79h0Z"/><path class="cls-1" d="M279.77,962.61c15.3,0,28.31,1.36,39.03,4.06,10.71,2.71,19.48,7.42,26.32,14.13,6.83,6.71,11.83,15.66,15.01,26.85,3.18,11.19,4.77,25.26,4.77,42.21v19.43c0,16.96-1.59,31.03-4.77,42.21-3.18,11.19-8.19,20.14-15.01,26.85-6.83,6.71-15.6,11.43-26.32,14.13-10.72,2.7-23.73,4.06-39.03,4.06s-28.32-1.36-39.03-4.06c-10.72-2.7-19.49-7.42-26.32-14.13-6.83-6.71-11.83-15.66-15.01-26.85-3.18-11.18-4.77-25.26-4.77-42.21v-19.43c0-16.96,1.59-31.02,4.77-42.21,3.18-11.18,8.18-20.14,15.01-26.85,6.83-6.71,15.6-11.42,26.32-14.13,10.71-2.7,23.72-4.06,39.03-4.06Zm47.33,87.25c0-12.48-.65-22.43-1.94-29.85-1.3-7.42-3.65-13.13-7.06-17.13-3.42-4-8.19-6.65-14.31-7.95-6.13-1.29-14.13-1.94-24.02-1.94s-17.9,.65-24.02,1.94c-6.13,1.3-10.9,3.95-14.31,7.95-3.42,4.01-5.77,9.71-7.07,17.13-1.3,7.42-1.94,17.37-1.94,29.85v19.43c0,12.48,.64,22.43,1.94,29.85,1.29,7.42,3.65,13.13,7.07,17.13,3.41,4.01,8.18,6.66,14.31,7.95,6.12,1.3,14.13,1.94,24.02,1.94s17.89-.65,24.02-1.94c6.12-1.29,10.89-3.94,14.31-7.95,3.41-4,5.77-9.71,7.06-17.13,1.29-7.42,1.94-17.36,1.94-29.85v-19.43h0Z"/><path class="cls-1" d="M408.69,1150.89c-3.9,0-7.06-3.16-7.06-7.06v-117.99c0-10.6,1.64-19.61,4.94-27.02,3.3-7.42,7.95-13.42,13.95-18.01s13.25-7.95,21.72-10.07c8.48-2.12,17.89-3.18,28.26-3.18,7.42,0,25.22,.15,36.59,.26,4.92,.05,8.29,4.99,6.52,9.58l-5.51,14.37c-1.59,4.13-5.57,6.84-10,6.79-8.58-.1-21.87-.26-24.08-.26-8.25,0-14.72,.77-19.43,2.3-4.71,1.54-8.25,3.83-10.6,6.89-2.36,3.06-3.83,6.83-4.42,11.3-.59,4.48-.88,9.54-.88,15.19v109.87c0,3.9-3.16,7.06-7.06,7.06h-22.98Z"/><path class="cls-1" d="M570.58,1073.17c-3.99,0-7.18,3.32-7.06,7.31,.2,6.61,.7,12.18,1.48,16.71,1.06,6.13,3.18,10.95,6.36,14.48,3.18,3.53,7.6,5.95,13.25,7.24,5.65,1.3,13.19,1.94,22.61,1.94,5.35,0,44.13-.43,60.71-.62,4.49-.05,8.51,2.73,10.05,6.95l5.24,14.31c1.68,4.58-1.68,9.44-6.56,9.48-20.4,.19-65.27,.61-69.44,.61-16.72,0-30.32-1.94-40.8-5.83-10.48-3.89-18.72-9.42-24.73-16.6-6-7.18-10.06-15.9-12.19-26.14-2.12-10.24-3.18-21.6-3.18-34.09v-19.78c0-13.42,1.12-25.49,3.36-36.21,2.24-10.71,6.36-19.78,12.36-27.2,6-7.42,14.36-13.13,25.08-17.13,10.71-4,24.67-6.01,41.86-6.01,15.78,0,28.67,1.83,38.68,5.48,10.01,3.65,17.89,8.6,23.67,14.84,5.77,6.24,9.71,13.42,11.83,21.55s3.18,16.55,3.18,25.26v5.3c0,8.48-.47,15.19-1.41,20.13-.94,4.95-2.47,8.78-4.59,11.48-2.12,2.71-4.77,4.48-7.95,5.3-3.18,.83-7.01,1.24-11.48,1.24h-90.33Zm36.64-81.25c-9.42,0-16.96,.71-22.61,2.12-5.65,1.41-10.07,4.06-13.25,7.95-3.18,3.89-5.3,9.25-6.36,16.07-.81,5.23-1.31,11.64-1.5,19.22-.1,3.98,3.07,7.28,7.06,7.28h73.76c3.9,0,7.06-3.16,7.06-7.06v-4.95c0-7.77-.65-14.31-1.94-19.61-1.3-5.3-3.65-9.48-7.06-12.54-3.42-3.06-7.95-5.24-13.6-6.54-5.65-1.29-12.84-1.94-21.55-1.94Z"/><path class="cls-1" d="M1075.98,1073.17c-3.99,0-7.18,3.32-7.06,7.31,.2,6.61,.7,12.18,1.48,16.71,1.06,6.13,3.18,10.95,6.36,14.48,3.18,3.53,7.6,5.95,13.25,7.24,5.65,1.3,13.19,1.94,22.61,1.94,5.35,0,44.13-.43,60.71-.62,4.49-.05,8.51,2.73,10.05,6.95l5.24,14.31c1.68,4.58-1.68,9.44-6.56,9.48-20.4,.19-65.27,.61-69.44,.61-16.72,0-30.32-1.94-40.8-5.83-10.48-3.89-18.72-9.42-24.73-16.6-6-7.18-10.06-15.9-12.19-26.14-2.12-10.24-3.18-21.6-3.18-34.09v-19.78c0-13.42,1.12-25.49,3.36-36.21,2.24-10.71,6.36-19.78,12.36-27.2,6-7.42,14.36-13.13,25.08-17.13,10.71-4,24.67-6.01,41.86-6.01,15.78,0,28.67,1.83,38.68,5.48,10.01,3.65,17.89,8.6,23.67,14.84,5.77,6.24,9.71,13.42,11.83,21.55s3.18,16.55,3.18,25.26v5.3c0,8.48-.47,15.19-1.41,20.13-.94,4.95-2.47,8.78-4.59,11.48-2.12,2.71-4.77,4.48-7.95,5.3-3.18,.83-7.01,1.24-11.48,1.24h-90.33Zm36.64-81.25c-9.42,0-16.96,.71-22.61,2.12-5.65,1.41-10.07,4.06-13.25,7.95-3.18,3.89-5.3,9.25-6.36,16.07-.81,5.23-1.31,11.64-1.5,19.22-.1,3.98,3.07,7.28,7.06,7.28h73.76c3.9,0,7.06-3.16,7.06-7.06v-4.95c0-7.77-.65-14.31-1.94-19.61-1.3-5.3-3.65-9.48-7.06-12.54-3.42-3.06-7.95-5.24-13.6-6.54-5.65-1.29-12.84-1.94-21.55-1.94Z"/><path class="cls-1" d="M1634.23,1073.17c-3.99,0-7.18,3.32-7.06,7.31,.2,6.61,.7,12.18,1.48,16.71,1.06,6.13,3.18,10.95,6.36,14.48,3.18,3.53,7.6,5.95,13.25,7.24,5.65,1.3,13.19,1.94,22.61,1.94,5.35,0,44.13-.43,60.71-.62,4.49-.05,8.51,2.73,10.05,6.95l5.24,14.31c1.68,4.58-1.68,9.44-6.56,9.48-20.4,.19-65.27,.61-69.44,.61-16.72,0-30.32-1.94-40.8-5.83-10.48-3.89-18.72-9.42-24.73-16.6-6-7.18-10.06-15.9-12.19-26.14-2.12-10.24-3.18-21.6-3.18-34.09v-19.78c0-13.42,1.12-25.49,3.36-36.21,2.24-10.71,6.36-19.78,12.36-27.2,6-7.42,14.36-13.13,25.08-17.13,10.71-4,24.67-6.01,41.86-6.01,15.78,0,28.67,1.83,38.68,5.48,10.01,3.65,17.89,8.6,23.67,14.84,5.77,6.24,9.71,13.42,11.83,21.55,2.12,8.12,3.18,16.55,3.18,25.26v5.3c0,8.48-.47,15.19-1.41,20.13-.94,4.95-2.47,8.78-4.59,11.48-2.12,2.71-4.77,4.48-7.95,5.3-3.18,.83-7.01,1.24-11.48,1.24h-90.33Zm36.64-81.25c-9.42,0-16.96,.71-22.61,2.12-5.65,1.41-10.07,4.06-13.25,7.95-3.18,3.89-5.3,9.25-6.36,16.07-.81,5.23-1.31,11.64-1.5,19.22-.1,3.98,3.07,7.28,7.06,7.28h73.76c3.9,0,7.06-3.16,7.06-7.06v-4.95c0-7.77-.65-14.31-1.94-19.61-1.3-5.3-3.65-9.48-7.06-12.54-3.42-3.06-7.95-5.24-13.6-6.54-5.65-1.29-12.84-1.94-21.55-1.94Z"/><path class="cls-1" d="M1378.94,1120.51c0,11.3-2.59,19.2-7.77,23.67-5.18,4.48-14.61,6.71-28.26,6.71h-52.99c-24.73,0-42.45-4.53-53.16-13.6-10.72-9.06-16.07-22.66-16.07-40.8v-7.77c0-19.78,5.83-33.91,17.48-42.39,11.66-8.48,29.85-12.72,54.58-12.72,14.13,0,25.2,1.12,33.21,3.36,4,1.12,7.47,2.28,10.42,3.49,3.46,1.42,7.24-1.2,7.24-4.94v-1.91c0-5.88-.42-11-1.24-15.37-.83-4.35-2.83-8-6-10.95-3.18-2.94-7.77-5.18-13.78-6.71-6-1.53-14.19-2.3-24.55-2.3-7.65,0-42.98,.42-58.62,.61-4.49,.05-8.52-2.73-10.07-6.95l-5.24-14.32c-1.68-4.58,1.67-9.43,6.54-9.48,19.16-.2,59.87-.6,67.38-.6,28.49,0,49.1,5.01,61.82,15.01,12.72,10.01,19.08,24.79,19.08,44.33v93.61Zm-123.64-24.37c0,8.24,2.47,14.43,7.42,18.54,4.94,4.12,14.01,6.18,27.2,6.18h46.64c3.9,0,7.06-3.16,7.06-7.06v-25.44c0-4.47-.47-8.36-1.41-11.66-.95-3.29-2.83-5.94-5.65-7.95-2.83-2-6.95-3.47-12.36-4.42-5.42-.94-12.6-1.41-21.55-1.41h-8.12c-7.77,0-14.19,.41-19.25,1.24-5.07,.83-9.07,2.24-12.01,4.24-2.95,2-5.01,4.65-6.18,7.95-1.18,3.3-1.77,7.42-1.77,12.36v7.42Z"/><path class="cls-1" d="M1437.59,975.35l42.4,121.19c1.65,4.7,8.29,4.73,9.98,.04l43.65-121.32c1.51-4.2,5.5-7,9.96-7h20.77c4.96,0,8.37,4.98,6.58,9.6l-64.32,166.26c-1.58,4.08-5.5,6.77-9.87,6.77h-24.7c-4.37,0-8.29-2.69-9.87-6.77l-64.32-166.26c-1.79-4.62,1.62-9.6,6.58-9.6h23.17c4.5,0,8.51,2.84,9.99,7.09Z"/></g></g></g></svg>