<?xml version="1.0" encoding="UTF-8"?>
<svg id="_图层_2" data-name="图层 2" xmlns="http://www.w3.org/2000/svg" xmlns:xlink="http://www.w3.org/1999/xlink" viewBox="0 0 918.66 200">
  <defs>
    <radialGradient id="_未命名的渐变_242" data-name="未命名的渐变 242" cx="497.07" cy="107.07" fx="497.07" fy="107.07" r="63.48" gradientUnits="userSpaceOnUse">
      <stop offset="0" stop-color="#00a229"/>
      <stop offset="1" stop-color="#2eff5d"/>
    </radialGradient>
  </defs>
  <g id="_图层_1-2" data-name="图层 1">
    <circle cx="606.16" cy="14.5" r="14.5" style="fill: #05d000;"/>
    <path d="m65.33,39.4c14.02,0,26.7,3.27,38.04,9.82,5.8,3.33,10.14,6.87,13.01,10.61,1.82,2.4,2.74,4.44,2.74,6.14,0,1.87-.91,3.63-2.74,5.26-1.76,1.52-3.78,2.28-6.06,2.28-2.02,0-3.72-.64-5.09-1.93-.2-.18-1.04-1.14-2.54-2.89-8.93-10.29-21.29-15.43-37.06-15.43-14.67,0-26.6,5.49-35.79,16.48-8.02,9.59-12.03,21.36-12.03,35.33,0,12.04,3.13,22.56,9.39,31.56,9.45,13.56,22.75,20.34,39.9,20.34s30.06-6.31,39.31-18.94c1.5-2.1,3.68-3.16,6.55-3.16,2.35,0,4.5.76,6.45,2.28,1.96,1.52,2.93,3.36,2.93,5.52,0,2.51-1.76,5.73-5.28,9.64-11.41,12.45-28.07,18.67-49.97,18.67-16.04,0-29.73-3.97-41.07-11.92C8.67,146.86,0,128.86,0,105.07c0-17.83,5.54-32.85,16.62-45.06,12.52-13.73,28.75-20.6,48.7-20.6Z"/>
    <path d="m167.77,52.99v68.47c0,27,13.3,40.51,39.9,40.51s39.8-13.5,39.8-40.51V52.99c0-1.64.52-3.04,1.56-4.21,1.7-1.81,4.04-2.72,7.04-2.72,3.26,0,5.67.99,7.24,2.98.91,1.11,1.37,2.43,1.37,3.95v67.77c0,16.19-3.26,28.29-9.78,36.3-10.37,12.63-26.18,18.94-47.43,18.94s-36.48-6.19-46.84-18.59c-6.72-8.12-10.07-20.34-10.07-36.65V52.99c0-2.45,1.08-4.3,3.23-5.52,1.56-.93,3.36-1.4,5.38-1.4,2.48,0,4.53.64,6.16,1.93,1.63,1.35,2.44,3.01,2.44,5Z"/>
    <path d="m496.48,150.88c.22.51.95.51,1.18,0l44.89-102.64c1.5-3.51,4.04-5.26,7.63-5.26,1.76,0,3.39.32,4.89.96,3.19,1.4,4.79,3.57,4.79,6.49,0,1.05-.29,2.25-.88,3.59l-48.9,107.31c-3,6.61-7.33,9.91-13.01,9.91s-10.01-3.3-13.01-9.91l-48.9-107.31c-.59-1.34-.88-2.51-.88-3.51,0-2.69,1.4-4.76,4.21-6.22,1.76-.93,3.55-1.4,5.38-1.4,3.58,0,6.16,1.78,7.73,5.35l44.89,102.64Z" style="fill: url(#_未命名的渐变_242);"/>
    <path d="m759.07,142.72c.36.51,1.16.25,1.16-.38V49.64c0-1.87.72-3.39,2.15-4.56,1.7-1.34,3.78-2.02,6.26-2.02,3.19,0,5.61,1.05,7.24,3.16.78.99,1.17,2.13,1.17,3.42v108.45c0,8.59-3.39,12.89-10.17,12.89-4.56,0-8.44-2.25-11.64-6.75l-73.94-103.23c-.36-.51-1.16-.25-1.16.37v103.03c0,1.99-.75,3.59-2.25,4.82-1.76,1.35-3.88,2.02-6.36,2.02-3,0-5.31-.99-6.94-2.98-.85-1.05-1.27-2.34-1.27-3.86V56.83c0-6.43,2.84-10.72,8.51-12.89,2.02-.76,4.4-1.14,7.14-1.14,5.34,0,9.55,2.1,12.62,6.31l67.49,93.6Z"/>
    <path d="m421.28,158.36l-40.48-46.87c-.34-.39-.09-.99.42-1.05,24.36-3.02,36.55-13.9,36.55-32.65,0-7.01-2.22-13.35-6.65-19.03-2.87-3.62-6.39-6.46-10.56-8.5-7.96-3.97-18.71-5.96-32.27-5.96h-40.88c-11.08,0-16.62,4.97-16.62,14.9v105.21c0,1.46.39,2.69,1.17,3.68,1.63,2.1,4.07,3.16,7.33,3.16,2.54,0,4.69-.67,6.45-2.02,1.5-1.23,2.25-2.83,2.25-4.82V61.74c0-2.4,1.34-3.59,4.01-3.59h38.04c7.82,0,14.18,1.08,19.07,3.24,7.37,3.22,11.05,8.53,11.05,15.96,0,7.01-2.97,12.27-8.9,15.78-5.22,3.1-12.29,4.65-21.22,4.65h-4.49c-10.11.78-3.81,13.68-3.81,13.68l.07.08c.07.04.15.09.2.16l44.11,55.78c1.96,2.51,4.63,3.77,8.02,3.77,2.02,0,3.91-.47,5.67-1.4,2.41-1.34,3.62-3.3,3.62-5.87,0-2.1-.72-3.97-2.15-5.61Z"/>
    <g>
      <path d="m916.12,157.57c-1.24-.93-2.74-1.4-4.5-1.4h-77.26c-2.54,0-3.81-1.14-3.81-3.42v-41c0-.13.05-.24.11-.34v-13.93c-.07-.1-.11-.21-.11-.34v-35.57c0-2.28,1.27-3.42,3.81-3.42h74.32c1.63,0,3-.38,4.11-1.14,1.89-1.4,2.84-3.33,2.84-5.79s-.88-4.24-2.64-5.52c-1.17-.93-2.61-1.4-4.3-1.4h-78.72c-11.21,0-16.82,4.97-16.82,14.9v95.91c0,9.94,5.61,14.9,16.82,14.9h81.66c1.7,0,3.1-.38,4.21-1.14,1.89-1.34,2.84-3.24,2.84-5.7s-.85-4.27-2.54-5.61Z"/>
      <path d="m907.67,102.41c-.43-1.74-1.46-3.02-3.1-3.84-.98-.53-2.09-.79-3.33-.79h-50.59s-4.33,2.22-4.42,6.61c-.1,4.39,4.42,6.71,4.42,6.71h49.86c4.59,0,8.25-4.24,7.15-8.7Z"/>
    </g>
    
    <path d="m596.66,45c0,1-.04,12.74-.04,12.74l.04,111.26s0,1,1,1c.08,0,.13,0,.18.02h14.41s.09-.02.16-.02c.9,0,.9-1,.9-1l.03-111.26s-.03-11.74-.03-12.74c0-.46-.46-.64-.96-.7h-14.67c-.54.07-1.02.26-1.02.7Z"/>
  </g>
</svg>