<svg xmlns="http://www.w3.org/2000/svg" role="img" viewBox="-7.55 -6.55 392.86 60.86"><g fill="#c00"><path d="M13 1h1v1h-1zm1 0h1v1h-1zm1 0h1v1h-1zm1 0h1v1h-1zm1 0h1v1h-1zm1 0h1v1h-1zm19 0h1v1h-1zm1 0h1v1h-1zm1 0h1v1h-1zm1 0h1v1h-1zm1 0h1v1h-1zm1 0h1v1h-1zm33 0h1v1h-1zm1 0h1v1h-1zm1 0h1v1h-1zm1 0h1v1h-1zm1 0h6v1h-6zm6 0h1v1h-1zm1 0h1v1h-1zm1 0h1v1h-1zm1 0h1v1h-1zm64 0h1v1h-1zm1 0h1v1h-1zm1 0h1v1h-1zm1 0h7v1h-7zm7 0h1v1h-1zm1 0h1v1h-1zm1 0h1v1h-1zm1 0h1v1h-1zM11 2h1v1h-1zm1 0h1v1h-1zm1 0h5v29h-5zm5 0h1v34h-1zm1 0h1v1h-1zm1 0h1v1h-1zm15 0h1v1h-1zm1 0h1v1h-1zm1 0h5v30h-5zm5 0h1v29h-1zm1 0h1v1h-1zm1 0h1v1h-1zm28 0h1v1h-1zm1 0h1v1h-1zm1 0h1v1h-1zm1 0h14v9H75zm14 0h1v14h-1zm1 0h1v1h-1zm1 0h1v1h-1zm1 0h1v1h-1zm8 0h13v1h-13zm13 0h1v1h-1zm1 0h1v1h-1zm15 0h12v1h-12zm12 0h1v1h-1zm1 0h1v1h-1zm7 0h1v1h-1zm1 0h1v1h-1zm1 0h1v1h-1zm1 0h14v8h-14zm14 0h1v12h-1zm1 0h1v1h-1zm1 0h1v1h-1zm1 0h1v1h-1zM10 3h1v1h-1zm1 0h1v1h-1z"/><path d="M12 3h7v27h-7zm7 0h1v34h-1zm1 0h1v1h-1zm1 0h1v1h-1zm13 0h1v1h-1zm1 0h1v1h-1zm1 0h7v28h-7zm7 0h1v27h-1zm1 0h1v1h-1zm1 0h1v1h-1zm25 0h1v1h-1zm1 0h1v1h-1zm1 0h19v8H72zm19 0h1v14h-1zm1 0h1v1h-1zm1 0h1v1h-1zm1 0h1v1h-1zm6 0h1v1h-1zm1 0h12v2h-12zm12 0h1v38h-1zm1 0h1v1h-1zm14 0h1v1h-1zm1 0h12v4h-12zm12 0h1v1h-1zm1 0h1v1h-1zm5 0h1v1h-1zm1 0h1v1h-1zm1 0h19v7h-19zm19 0h1v11h-1zm1 0h1v1h-1zm1 0h1v1h-1zm1 0h1v1h-1zM9 4h1v1H9zm1 0h1v1h-1z"/><path d="M11 4h9v25h-9zm9 0h1v34h-1zm1 0h1v1h-1zm1 0h1v1h-1zm11 0h1v1h-1zm1 0h1v1h-1zm1 0h9v26h-9zm9 0h1v25h-1zm1 0h1v1h-1zm1 0h1v1h-1zm22 0h1v1h-1zm1 0h1v1h-1zm1 0h23v7H70zm23 0h1v13h-1zm1 0h1v1h-1zm1 0h1v1h-1zm5 0h1v1h-1zm14 0h1v1h-1zm14 0h1v1h-1zm13 0h1v1h-1zm1 0h1v1h-1zm3 0h1v1h-1zm1 0h1v1h-1zm1 0h23v6h-23zm23 0h1v10h-1zm1 0h1v1h-1zm1 0h1v1h-1zM8 5h1v1H8zm1 0h1v1H9z"/><path d="M10 5h11v23H10zm11 0h1v34h-1zm1 0h1v1h-1zm1 0h1v1h-1zm9 0h1v1h-1zm1 0h1v1h-1zm1 0h11v24H34zm11 0h1v23h-1zm1 0h1v1h-1zm1 0h1v1h-1zm20 0h1v1h-1zm1 0h1v1h-1zm1 0h26v6H69zm26 0h1v12h-1zm1 0h1v1h-1zm1 0h1v1h-1zm3 0h1v1h-1zm1 0h13v1h-13zm13 0h1v39h-1zm1 0h1v1h-1zm13 0h1v1h-1zm13 0h1v1h-1zm3 0h1v1h-1zm1 0h1v1h-1zm1 0h26v5h-26zm26 0h1v9h-1zm1 0h1v1h-1zM7 6h1v1H7zm1 0h1v1H8z"/><path d="M9 6h13v21H9zm13 0h1v34h-1zm1 0h1v1h-1zm1 0h1v1h-1zm7 0h1v1h-1zm1 0h1v1h-1zm1 0h13v22H33zm13 0h1v21h-1zm1 0h1v1h-1zm1 0h1v1h-1zm18 0h1v1h-1zm1 0h1v1h-1zm1 0h28v5H68zm28 0h1v11h-1zm1 0h1v1h-1zm1 0h1v1h-1zm3 0h1v1h-1zm1 0h12v2h-12zm13 0h1v1h-1zm12 0h1v1h-1zm1 0h12v4h-12zm13 0h1v1h-1zm2 0h1v1h-1zm1 0h1v1h-1zm1 0h28v4h-28zm28 0h1v8h-1zm1 0h1v1h-1zM6 7h1v1H6zm1 0h1v1H7z"/><path d="M8 7h15v19H8zm15 0h1v34h-1zm1 0h1v1h-1zm1 0h1v1h-1zm5 0h1v1h-1zm1 0h1v1h-1zm1 0h15v20H32zm15 0h1v19h-1zm1 0h1v1h-1zm1 0h1v1h-1zm16 0h1v1h-1zm1 0h1v1h-1zm1 0h30v4H67zm30 0h1v10h-1zm1 0h1v1h-1zm3 0h1v1h-1zm14 0h1v1h-1zm12 0h1v1h-1zm13 0h1v1h-1zm1 0h1v1h-1zm2 0h1v1h-1zm1 0h29v3h-29zm30 0h1v1h-1zm1 0h1v1h-1zM5 8h1v1H5zm1 0h1v1H6z"/><path d="M7 8h17v17H7zm17 0h1v34h-1zm1 0h1v1h-1zm1 0h1v1h-1zm3 0h1v1h-1zm1 0h1v1h-1zm1 0h17v18H31zm17 0h1v17h-1zm1 0h1v1h-1zm1 0h1v1h-1zm14 0h1v1h-1zm1 0h1v1h-1zm1 0h32v3H66zm32 0h1v9h-1zm1 0h1v1h-1zm2 0h1v1h-1zm1 0h12v1h-12zm13 0h1v1h-1zm12 0h1v1h-1zm13 0h1v1h-1zm2 0h1v1h-1zm1 0h31v2h-31zm31 0h1v6h-1zm1 0h1v1h-1zM4 9h1v1H4zm1 0h1v1H5z"/><path d="M6 9h19v15H6zm19 0h1v34h-1zm1 0h1v1h-1zm1 0h1v1h-1zm1 0h1v1h-1zm1 0h1v1h-1zm1 0h19v16H30zm19 0h1v15h-1zm1 0h1v1h-1zm1 0h1v1h-1zm13 0h1v1h-1zm1 0h34v2H65zm34 0h1v8h-1zm1 0h1v1h-1zm2 0h1v1h-1zm1 0h12v2h-12zm12 0h1v35h-1zm1 0h1v1h-1zm11 0h1v1h-1zm13 0h1v1h-1zm2 0h1v1h-1zm33 0h1v5h-1zm1 0h1v1h-1zM3 10h1v1H3zm1 0h1v1H4z"/><path d="M5 10h21v13H5zm21 0h1v34h-1zm1 0h1v1h-1zm1 0h1v1h-1zm1 0h21v14H29zm21 0h1v13h-1zm1 0h1v1h-1zm1 0h1v1h-1zm11 0h1v1h-1zm1 0h35v1H64zm36 0h1v1h-1zm2 0h1v1h-1zm14 0h1v1h-1zm10 0h1v1h-1zm1 0h12v3h-12zm12 0h1v1h-1zm1 0h1v1h-1zm1 0h1v1h-1zm1 0h33v1h-33zm34 0h1v1h-1zM2 11h1v1H2zm1 0h1v1H3z"/><path d="M4 11h47v11H4zm47 0h1v11h-1zm1 0h1v1h-1zm1 0h1v1h-1zm9 0h1v1h-1zm1 0h1v1h-1zm1 0h36v1H64zm36 0h1v6h-1zm1 0h1v1h-1zm1 0h1v1h-1zm1 0h12v1h-12zm13 0h1v1h-1zm10 0h1v1h-1zm13 0h1v1h-1zm2 0h1v1h-1zm1 0h12v8h-12zm12 0h1v1h-1zm1 0h1v1h-1zm1 0h1v1h-1zm1 0h3v1h-3zm3 0h1v1h-1zm1 0h1v1h-1zm1 0h1v1h-1zm1 0h13v1h-13zm13 0h1v3h-1zm1 0h1v1h-1zM1 12h1v1H1zm1 0h1v1H2z"/><path d="M3 12h49v9H3zm49 0h1v9h-1zm1 0h1v1h-1zm1 0h1v1h-1zm8 0h1v1h-1zm1 0h15v1H63zm15 0h1v1h-1zm1 0h1v1h-1zm1 0h1v1h-1zm1 0h2v1h-2zm2 0h1v1h-1zm1 0h1v1h-1zm1 0h1v1h-1zm1 0h14v1H86zm15 0h1v1h-1zm2 0h1v1h-1zm1 0h11v2h-11zm12 0h1v1h-1zm10 0h1v1h-1zm13 0h1v1h-1zm2 0h1v1h-1zm13 0h1v1h-1zm1 0h1v1h-1zm7 0h1v1h-1zm1 0h1v1h-1zm1 0h12v1h-12zm13 0h1v1h-1zM1 13h1v1H1z"/><path d="M2 13h51v7H2zm51 0h1v7h-1zm1 0h1v1h-1zm7 0h1v1h-1zm1 0h1v1h-1zm1 0h13v2H63zm13 0h1v1h-1zm1 0h1v1h-1zm1 0h1v1h-1zm8 0h1v1h-1zm1 0h1v1h-1zm1 0h12v1H88zm13 0h1v1h-1zm2 0h1v1h-1zm13 0h1v31h-1zm1 0h1v1h-1zm8 0h1v1h-1zm1 0h12v3h-12zm12 0h1v1h-1zm1 0h1v1h-1zm2 0h12v3h-12zm13 0h1v1h-1zm9 0h1v1h-1zm1 0h12v1h-12zm13 0h1v1h-1zM0 14h1v1H0z"/><path d="M1 14h53v4H1zm53 0h1v4h-1zm1 0h1v1h-1zm6 0h1v1h-1zm1 0h13v3H62zm14 0h1v1h-1zm1 0h1v1h-1zm10 0h1v1h-1zm1 0h1v1h-1zm2 0h11v3H90zm11 0h1v3h-1zm1 0h1v1h-1zm1 0h1v1h-1zm1 0h12v1h-12zm13 0h1v1h-1zm8 0h1v1h-1zm13 0h1v1h-1zm16 0h1v1h-1zm10 0h1v1h-1zm1 0h11v1h-11zm11 0h1v1h-1zm1 0h1v1h-1zM0 15h1v1H0zm55 0h1v1h-1zm6 0h1v1h-1zm14 0h1v1h-1zm1 0h1v1h-1zm12 0h1v1h-1zm14 0h1v1h-1zm2 0h1v1h-1zm1 0h11v2h-11zm12 0h1v1h-1zm8 0h1v1h-1zm13 0h1v1h-1zm16 0h1v12h-1zm1 0h1v1h-1zM0 16h1v1H0zm55 0h1v1h-1z"/><path d="M61 16h13v15H61zm14 0h1v1h-1zm13 0h1v1h-1zm1 0h12v1H89zm13 0h1v2h-1zm2 0h1v1h-1zm13 0h1v1h-1zm8 0h1v1h-1zm1 0h11v3h-11zm11 0h1v1h-1zm1 0h1v1h-1zm3 0h14v1h-14zm14 0h1v11h-1zm1 0h1v1h-1zm1 0h1v1h-1zm1 0h1v1h-1zM0 17h1v1H0zm55 0h1v1h-1zm5 0h1v1h-1zm14 0h1v1h-1zm1 0h1v1h-1zm14 0h1v1h-1zm1 0h11v1H90zm11 0h1v1h-1zm3 0h1v1h-1zm1 0h12v1h-12zm12 0h1v27h-1zm1 0h1v1h-1zm6 0h1v1h-1z"/><path d="M125 17h11v5h-11zm12 0h1v1h-1zm4 0h1v1h-1zm15 0h2v10h-2zm2 0h1v11h-1zm1 0h1v1h-1zm1 0h1v1h-1zm1 0h1v1h-1zM0 18h1v1H0zm1 0h53v1H1zm53 0h1v1h-1zm1 0h1v1h-1zm5 0h1v1h-1zm14 0h1v1h-1zm15 0h1v1h-1zm1 0h11v1H90zm11 0h1v1h-1zm1 0h1v1h-1zm3 0h1v1h-1zm1 0h11v2h-11zm12 0h1v1h-1zm6 0h1v1h-1zm13 0h1v1h-1zm4 0h1v1h-1zm18 0h3v10h-3zm3 0h1v11h-1zm1 0h1v1h-1zm1 0h1v1h-1zm1 0h1v1h-1zM1 19h1v1H1zm53 0h1v1h-1zm6 0h1v1h-1zm14 0h1v1h-1zm31 0h1v1h-1zm13 0h1v1h-1zm6 0h1v1h-1zm12 0h1v1h-1zm1 0h1v1h-1zm4 0h1v1h-1z"/><path d="M142 19h23v1h-23zm23 0h1v13h-1zm1 0h1v1h-1zm1 0h1v1h-1zm1 0h1v1h-1zm1 0h1v1h-1zM1 20h1v1H1zm1 0h51v1H2zm51 0h1v1h-1zm1 0h1v1h-1zm6 0h1v7h-1zm14 0h1v1h-1zm31 0h1v1h-1zm1 0h12v1h-12zm12 0h1v24h-1zm5 0h1v1h-1zm1 0h11v5h-11zm12 0h1v1h-1zm6 0h1v1h-1z"/><path d="M143 20h26v1h-26zm26 0h1v24h-1zm1 0h1v1h-1zm1 0h1v1h-1zM2 21h1v1H2zm1 0h49v1H3zm49 0h1v1h-1zm1 0h1v1h-1zm21 0h1v1h-1zm32 0h1v1h-1zm1 0h11v2h-11zm12 0h1v1h-1zm4 0h1v1h-1zm13 0h1v1h-1zm6 0h1v1h-1z"/><path d="M143 21h28v1h-28zm28 0h1v22h-1zm1 0h1v1h-1zm1 0h1v1h-1zM3 22h1v1H3zm1 0h47v1H4zm47 0h1v1h-1zm1 0h1v1h-1zm22 0h1v3h-1zm32 0h1v1h-1zm13 0h1v1h-1zm4 0h1v1h-1zm12 0h1v1h-1zm1 0h1v1h-1zm7 0h1v1h-1z"/><path d="M144 22h29v1h-29zm29 0h1v20h-1zm1 0h1v1h-1zM4 23h1v1H4zm1 0h45v1H5zm45 0h1v1h-1zm1 0h1v1h-1zm55 0h1v1h-1zm1 0h11v1h-11zm12 0h1v1h-1zm4 0h1v1h-1zm12 0h1v1h-1zm8 0h1v1h-1zm1 0h1v1h-1z"/><path d="M145 23h29v1h-29zm29 0h1v18h-1zm1 0h1v1h-1zM5 24h1v1H5zm1 0h43v1H6zm43 0h1v1h-1zm1 0h1v1h-1zm57 0h1v1h-1zm1 0h11v2h-11zm11 0h1v20h-1zm1 0h1v1h-1zm2 0h1v1h-1zm1 0h11v4h-11zm12 0h1v1h-1zm9 0h1v1h-1zm1 0h1v1h-1z"/><path d="M146 24h29v1h-29zm29 0h1v16h-1zm1 0h1v1h-1zM6 25h1v1H6zm1 0h41v1H7zm41 0h1v1h-1zm1 0h1v1h-1zm25 0h1v1h-1zm33 0h1v1h-1zm13 0h1v1h-1zm2 0h1v1h-1zm12 0h1v1h-1zm1 0h1v1h-1zm11 0h1v1h-1zm1 0h1v1h-1z"/><path d="M148 25h28v1h-28zm28 0h1v13h-1zm1 0h1v1h-1zM7 26h1v1H7zm1 0h39v1H8zm39 0h1v1h-1zm1 0h1v1h-1zm26 0h1v1h-1zm33 0h1v1h-1zm1 0h11v1h-11zm12 0h1v1h-1zm2 0h1v1h-1zm12 0h1v1h-1zm13 0h1v1h-1zm1 0h1v1h-1zm1 0h1v1h-1zm1 0h26v1h-26zm27 0h1v1h-1zM8 27h1v1H8zm1 0h37v1H9zm37 0h1v1h-1zm1 0h1v1h-1zm13 0h1v1h-1zm14 0h1v1h-1zm34 0h1v1h-1zm1 0h10v2h-10zm11 0h1v1h-1zm2 0h11v4h-11zm12 0h1v1h-1zm16 0h1v1h-1zm1 0h1v1h-1zm1 0h1v1h-1z"/><path d="M153 27h24v1h-24zm24 0h1v9h-1zm1 0h1v1h-1zM9 28h1v1H9zm1 0h35v1H10zm35 0h1v1h-1zm1 0h1v1h-1zm14 0h1v1h-1zm14 0h1v1h-1zm15 0h1v1h-1zm1 0h12v1H90zm12 0h1v1h-1zm6 0h1v1h-1zm12 0h13v3h-13zm13 0h1v1h-1zm1 0h1v1h-1zm19 0h1v1h-1zm1 0h1v1h-1zm1 0h1v1h-1zm1 0h1v1h-1zm1 0h20v1h-20zm21 0h1v1h-1zM10 29h1v1h-1zm1 0h33v1H11zm33 0h1v1h-1zm1 0h1v1h-1zm15 0h1v1h-1zm14 0h1v1h-1zm15 0h1v1h-1zm1 0h12v5H90zm12 0h1v1h-1zm6 0h1v1h-1zm1 0h11v1h-11zm24 0h1v1h-1zm24 0h1v1h-1zm1 0h1v1h-1zm1 0h1v1h-1zm1 0h1v1h-1zm1 0h16v1h-16zm17 0h1v1h-1zM11 30h1v1h-1zm1 0h31v1H12zm31 0h1v1h-1zm1 0h1v1h-1zm16 0h1v1h-1zm14 0h1v14h-1zm1 0h1v1h-1zm14 0h1v1h-1zm13 0h1v1h-1zm7 0h1v1h-1z"/><path d="M110 30h22v2h-22zm23 0h1v1h-1zm28 0h1v1h-1zm1 0h1v1h-1zm1 0h1v1h-1zm1 0h13v1h-13zm14 0h1v3h-1zM12 31h1v1h-1zm1 0h29v1H13zm29 0h1v1h-1zm1 0h1v1h-1zm18 0h13v1H61zm14 0h1v1h-1zm14 0h1v1h-1zm13 0h1v1h-1zm7 0h1v1h-1zm23 0h1v1h-1zm1 0h1v1h-1zm30 0h1v1h-1zm1 0h1v1h-1zm2 0h11v7h-11zM13 32h1v1h-1zm1 0h27v1H14zm27 0h1v1h-1zm1 0h1v1h-1zm19 0h1v1h-1zm1 0h13v1H62zm13 0h1v13h-1zm1 0h1v1h-1zm12 0h1v1h-1zm1 0h12v4H89zm13 0h1v1h-1zm7 0h1v1h-1zm1 0h21v1h-21zm21 0h1v2h-1zm1 0h1v1h-1zm8 0h1v1h-1zm1 0h12v3h-12zm12 0h1v13h-1zm1 0h1v1h-1zm10 0h1v1h-1z"/><path d="M165 32h12v6h-12zM14 33h1v1h-1zm1 0h25v1H15zm25 0h1v1h-1zm1 0h1v1h-1zm20 0h1v1h-1zm1 0h13v1H62zm14 0h1v1h-1zm1 0h1v1h-1zm10 0h1v1h-1zm1 0h1v1h-1zm14 0h1v1h-1zm8 0h1v1h-1zm1 0h20v2h-20zm21 0h1v1h-1zm8 0h1v1h-1zm14 0h1v1h-1zm24 0h1v1h-1zM15 34h1v1h-1zm1 0h23v1H16zm23 0h1v1h-1zm1 0h1v1h-1zm21 0h1v1h-1zm1 0h1v1h-1zm1 0h13v1H63zm13 0h1v11h-1zm1 0h1v1h-1zm1 0h1v1h-1zm8 0h1v1h-1zm1 0h1v1h-1zm1 0h13v2H88zm13 0h1v1h-1zm1 0h1v1h-1zm8 0h1v1h-1zm21 0h1v1h-1zm1 0h1v1h-1zm8 0h1v1h-1zm14 0h1v1h-1zm1 0h1v1h-1zm9 0h1v1h-1zm14 0h1v1h-1zM16 35h1v1h-1zm1 0h21v1H17zm21 0h1v1h-1zm1 0h1v1h-1zm23 0h1v1h-1z"/><path d="M63 35h15v1H63zm15 0h1v10h-1zm1 0h1v1h-1zm1 0h1v1h-1zm1 0h2v1h-2zm2 0h1v1h-1zm1 0h1v1h-1zm1 0h1v1h-1zm1 0h14v3H86zm15 0h1v1h-1zm9 0h1v1h-1zm1 0h19v1h-19zm19 0h1v2h-1zm1 0h1v1h-1zm9 0h1v1h-1zm1 0h13v1h-13zm13 0h1v10h-1zm1 0h1v1h-1zm1 0h1v1h-1zm7 0h1v1h-1zm1 0h1v1h-1zm14 0h1v1h-1zM17 36h1v1h-1zm1 0h19v1H18zm19 0h1v1h-1zm1 0h1v1h-1zm24 0h1v1h-1zm1 0h1v1h-1z"/><path d="M64 36h36v1H64zm36 0h1v1h-1zm1 0h1v1h-1zm10 0h1v1h-1zm1 0h18v2h-18zm19 0h1v1h-1zm10 0h1v1h-1zm1 0h14v1h-14zm14 0h1v9h-1zm1 0h1v1h-1zm1 0h3v1h-3zm3 0h1v1h-1zm1 0h15v2h-15zm15 0h1v1h-1zm1 0h1v1h-1zM18 37h1v1h-1zm1 0h17v1H19zm17 0h1v1h-1zm1 0h1v1h-1zm26 0h1v1h-1zm1 0h35v1H64zm36 0h1v1h-1zm11 0h1v1h-1zm19 0h1v1h-1zm1 0h1v1h-1zm10 0h1v1h-1z"/><path d="M142 37h34v1h-34zm35 0h1v1h-1zM19 38h1v1h-1zm1 0h15v1H20zm15 0h1v1h-1zm1 0h1v1h-1zm28 0h1v1h-1zm1 0h34v1H65zm34 0h1v1h-1zm1 0h1v1h-1zm11 0h1v1h-1zm1 0h17v1h-17zm17 0h1v2h-1zm1 0h1v1h-1zm11 0h1v1h-1zm1 0h1v1h-1zm1 0h33v1h-33zm33 0h1v1h-1zm1 0h1v1h-1zM20 39h1v1h-1zm1 0h13v1H21zm13 0h1v1h-1zm1 0h1v1h-1zm29 0h1v1h-1zm1 0h1v1h-1zm1 0h32v1H66zm32 0h1v1h-1zm1 0h1v1h-1zm13 0h1v1h-1zm8 0h9v4h-9zm10 0h1v1h-1zm12 0h1v1h-1zm1 0h32v1h-32zm33 0h1v1h-1zm1 0h1v1h-1zM21 40h1v1h-1zm1 0h11v1H22zm11 0h1v1h-1zm1 0h1v1h-1zm31 0h1v1h-1zm1 0h1v1h-1zm1 0h30v1H67zm30 0h1v1h-1zm1 0h1v1h-1zm14 0h1v1h-1zm17 0h1v1h-1zm1 0h1v1h-1zm13 0h1v1h-1zm1 0h31v1h-31zm31 0h1v1h-1zm1 0h1v1h-1zM22 41h1v1h-1zm1 0h9v1h-9zm9 0h1v1h-1zm1 0h1v1h-1zm33 0h1v1h-1zm1 0h1v1h-1zm1 0h28v1H68zm28 0h1v1h-1zm1 0h1v1h-1zm1 0h1v1h-1zm14 0h1v1h-1z"/><path d="M113 41h15v1h-15zm16 0h1v1h-1zm14 0h1v1h-1zm1 0h1v1h-1zm1 0h29v1h-29zm29 0h1v1h-1zm1 0h1v1h-1zM23 42h1v1h-1zm1 0h7v1h-7zm7 0h1v1h-1zm1 0h1v1h-1zm35 0h1v1h-1zm1 0h1v1h-1zm1 0h26v1H69zm26 0h1v1h-1zm1 0h1v1h-1zm1 0h1v1h-1zm16 0h1v1h-1zm16 0h1v1h-1zm15 0h1v1h-1zm1 0h1v1h-1zm1 0h27v1h-27zm27 0h1v1h-1zm1 0h1v1h-1zM24 43h1v1h-1zm1 0h5v1h-5zm5 0h1v1h-1zm1 0h1v1h-1zm37 0h1v1h-1zm1 0h1v1h-1zm1 0h23v1H70zm23 0h1v1h-1zm1 0h1v1h-1zm1 0h1v1h-1zm18 0h1v1h-1zm7 0h8v1h-8zm8 0h1v1h-1zm1 0h1v1h-1zm17 0h1v1h-1zm1 0h24v1h-24zm24 0h1v1h-1zm1 0h1v1h-1zm1 0h1v1h-1zM25 44h1v1h-1zm1 0h3v1h-3zm3 0h1v1h-1zm1 0h1v1h-1zm40 0h1v1h-1zm1 0h1v1h-1zm1 0h20v1H72zm20 0h1v1h-1zm1 0h1v1h-1zm1 0h1v1h-1zm19 0h1v1h-1zm1 0h13v1h-13zm13 0h1v1h-1zm1 0h1v1h-1zm19 0h1v1h-1zm1 0h1v1h-1zm1 0h20v1h-20zm20 0h1v1h-1zm1 0h1v1h-1zm1 0h1v1h-1zm1 0h1v1h-1zM26 45h1v1h-1zm1 0h1v1h-1zm1 0h1v1h-1zm1 0h1v1h-1zm43 0h1v1h-1zm1 0h1v1h-1zm1 0h1v1h-1zm1 0h14v1H75zm14 0h1v1h-1zm1 0h1v1h-1zm1 0h1v1h-1zm1 0h1v1h-1zm22 0h1v1h-1zm1 0h12v1h-12zm12 0h1v1h-1zm1 0h1v1h-1zm21 0h1v1h-1zm1 0h1v1h-1zm1 0h1v1h-1zm1 0h15v1h-15zm15 0h1v1h-1zm1 0h1v1h-1zm1 0h1v1h-1zM27 46h1v1h-1zm1 0h1v1h-1zm47 0h1v1h-1zm1 0h1v1h-1zm1 0h1v1h-1zm1 0h1v1h-1zm1 0h6v1h-6zm6 0h1v1h-1zm1 0h1v1h-1zm1 0h1v1h-1zm1 0h1v1h-1zm1 0h1v1h-1zm63 0h1v1h-1zm1 0h1v1h-1zm1 0h1v1h-1zm1 0h1v1h-1zm1 0h7v1h-7zm7 0h1v1h-1zm1 0h1v1h-1zm1 0h1v1h-1zm1 0h1v1h-1z"/></g><path d="M182 2h1v1h-1zm1 0h12v1h-12zm12 0h1v1h-1zm1 0h1v1h-1zm13 0h1v1h-1zm1 0h12v1h-12zm12 0h1v1h-1zm1 0h1v1h-1zm72 0h8v1h-8zm8 0h1v1h-1zm1 0h1v1h-1zm23 0h8v1h-8zm8 0h1v1h-1zm1 0h1v1h-1zM182 3h1v2h-1zm1 0h12v2h-12zm12 0h1v2h-1zm1 0h1v2h-1zm13 0h1v2h-1zm1 0h12v2h-12zm12 0h1v2h-1zm1 0h1v2h-1zm72 0h8v2h-8zm8 0h1v41h-1zm1 0h1v35h-1zm23 0h8v2h-8zm8 0h1v41h-1zm1 0h1v14h-1zM182 5h1v1h-1zm1 0h12v1h-12zm12 0h1v1h-1zm1 0h1v1h-1zm13 0h1v1h-1zm1 0h12v1h-12zm12 0h1v1h-1zm1 0h1v1h-1zm72 0h8v1h-8zm32 0h8v1h-8zM182 6h1v1h-1zm1 0h3v1h-3zm3 0h1v1h-1zm1 0h4v38h-4zm4 0h1v38h-1zm1 0h1v1h-1zm1 0h2v1h-2zm2 0h1v1h-1zm1 0h1v1h-1zm13 0h1v1h-1zm1 0h2v1h-2zm2 0h1v1h-1zm1 0h1v1h-1zm1 0h3v38h-3zm3 0h1v38h-1zm1 0h1v1h-1zm1 0h3v1h-3zm3 0h1v1h-1zm1 0h1v1h-1zm72 0h3v1h-3zm3 0h1v1h-1zm1 0h4v32h-4zm28 0h3v1h-3zm3 0h1v1h-1zm1 0h4v38h-4zM192 7h1v12h-1zm21 0h1v12h-1zm5 0h1v33h-1zm95 1h1v6h-1zm1 0h3v33h-3zm3 0h1v36h-1zm1 0h1v6h-1zm-79 6h2v1h-2zm2 0h1v1h-1zm1 0h1v1h-1zm30 0h1v1h-1zm1 0h1v1h-1zm1 0h1v1h-1zm1 0h1v1h-1zm38 0h1v1h-1zm5 0h1v1h-1zm26 0h1v1h-1zm1 0h1v1h-1zm1 0h1v1h-1zm-112 1h1v1h-1zm1 0h1v1h-1zm1 0h1v1h-1zm1 0h1v1h-1zm1 0h5v3h-5zm5 0h1v3h-1zm1 0h1v1h-1zm1 0h1v1h-1zm1 0h1v1h-1zm22 0h1v1h-1zm1 0h1v1h-1zm1 0h1v1h-1zm1 0h4v3h-4zm4 0h1v3h-1zm1 0h1v1h-1zm1 0h1v1h-1zm1 0h1v1h-1zm1 0h1v1h-1zm5 0h1v1h-1zm1 0h7v1h-7zm7 0h1v1h-1zm1 0h1v1h-1zm16 0h3v1h-3zm3 0h1v1h-1zm1 0h1v1h-1zm5 0h1v1h-1zm1 0h4v1h-4zm4 0h1v1h-1zm1 0h1v1h-1zm16 0h1v1h-1zm1 0h1v1h-1zm1 0h1v1h-1zm1 0h4v3h-4zm4 0h1v3h-1zm1 0h1v1h-1zm1 0h1v1h-1zm1 0h1v1h-1zm-118 1h1v1h-1zm1 0h1v1h-1z"/><path d="M234 16h12v2h-12zm12 0h1v3h-1zm1 0h1v1h-1zm1 0h1v1h-1zm18 0h1v1h-1zm1 0h1v1h-1zm1 0h10v2h-10zm10 0h1v3h-1zm1 0h1v1h-1zm1 0h1v1h-1zm1 0h1v1h-1zm3 0h1v2h-1zm1 0h7v2h-7zm7 0h1v2h-1zm1 0h1v2h-1zm16 0h14v2h-14zm14 0h1v2h-1zm1 0h1v2h-1zm14 0h1v1h-1zm1 0h1v1h-1zm1 0h10v2h-10zm10 0h1v4h-1zm1 0h1v1h-1zm1 0h1v1h-1zm-122 1h1v1h-1zm1 0h1v1h-1z"/><path d="M232 17h16v1h-16zm16 0h1v4h-1zm1 0h1v1h-1zm1 0h1v1h-1zm14 0h1v1h-1zm1 0h1v1h-1zm1 0h14v1h-14zm14 0h1v3h-1zm1 0h1v1h-1zm1 0h1v1h-1zm54 0h1v1h-1zm1 0h1v1h-1zm1 0h14v1h-14zm14 0h1v5h-1zm1 0h1v1h-1zm-124 1h1v1h-1zm1 0h1v1h-1z"/><path d="M231 18h18v1h-18zm18 0h1v4h-1zm1 0h1v1h-1zm1 0h1v1h-1zm12 0h1v1h-1zm1 0h1v1h-1zm1 0h16v1h-16zm16 0h1v2h-1zm1 0h1v1h-1zm1 0h1v1h-1zm1 0h1v1h-1zm1 0h7v1h-7zm7 0h1v1h-1zm1 0h1v1h-1zm16 0h14v1h-14zm14 0h1v1h-1zm1 0h1v1h-1zm12 0h1v1h-1zm1 0h16v1h-16zm16 0h1v26h-1zm1 0h1v1h-1zm-162 1h1v1h-1zm21 0h1v1h-1zm15 0h1v1h-1zm1 0h1v1h-1zm1 0h5v1h-5zm5 0h1v1h-1zm1 0h1v1h-1zm1 0h1v1h-1zm1 0h1v1h-1zm1 0h2v1h-2zm2 0h1v1h-1zm1 0h1v1h-1zm1 0h1v1h-1zm1 0h1v1h-1z"/><path d="M245 19h5v1h-5zm5 0h1v6h-1zm1 0h1v1h-1zm1 0h1v1h-1zm10 0h1v1h-1zm1 0h1v1h-1zm1 0h5v1h-5zm5 0h1v1h-1zm1 0h1v1h-1zm1 0h1v1h-1zm1 0h1v1h-1zm1 0h2v1h-2zm2 0h1v1h-1zm1 0h1v1h-1zm1 0h1v1h-1zm1 0h5v1h-5zm5 0h5v4h-5zm5 0h1v25h-1zm1 0h1v1h-1zm1 0h2v1h-2zm2 0h1v1h-1zm1 0h1v1h-1zm16 0h3v1h-3zm3 0h1v1h-1zm1 0h1v1h-1zm5 0h1v1h-1zm1 0h4v1h-4zm4 0h1v1h-1zm1 0h1v1h-1zm12 0h3v1h-3zm3 0h1v1h-1zm1 0h1v1h-1zm1 0h1v1h-1zm1 0h1v1h-1zm1 0h2v1h-2zm2 0h1v1h-1zm1 0h1v1h-1zm1 0h1v1h-1zm1 0h1v1h-1zm1 0h5v1h-5zm5 0h1v25h-1zm1 0h1v1h-1zm-163 1h1v1h-1zm1 0h19v1h-19zm19 0h1v1h-1zm1 0h1v1h-1zm14 0h1v1h-1zm1 0h1v1h-1zm1 0h4v1h-4zm4 0h1v1h-1zm1 0h1v1h-1zm1 0h1v1h-1zm10 0h1v1h-1zm1 0h1v1h-1z"/><path d="M247 20h4v1h-4zm4 0h1v11h-1zm1 0h1v1h-1zm9 0h1v1h-1zm1 0h1v1h-1zm1 0h4v1h-4zm4 0h1v1h-1zm1 0h1v1h-1zm1 0h1v1h-1zm9 0h1v1h-1zm1 0h1v1h-1zm1 0h8v1h-8zm9 0h1v20h-1zm24 0h1v19h-1zm5 0h1v17h-1zm18 0h2v1h-2zm2 0h1v1h-1zm1 0h1v1h-1zm1 0h1v1h-1zm9 0h1v1h-1zm1 0h4v1h-4zm5 0h1v1h-1zm1 0h1v1h-1zm-164 1h25v2h-25zm35 0h1v1h-1zm1 0h4v1h-4zm4 0h1v1h-1zm1 0h1v1h-1zm13 0h1v1h-1zm1 0h1v1h-1z"/><path d="M248 21h4v1h-4zm4 0h1v10h-1zm1 0h1v1h-1zm8 0h1v1h-1zm1 0h4v2h-4zm4 0h1v1h-1zm1 0h1v1h-1zm1 0h1v1h-1zm12 0h1v1h-1zm1 0h1v1h-1zm1 0h6v1h-6zm54 0h1v2h-1zm1 0h1v1h-1zm1 0h1v1h-1zm12 0h1v1h-1zm1 0h4v1h-4zm4 0h1v23h-1zm1 0h1v1h-1zm-130 1h1v1h-1zm1 0h4v2h-4zm4 0h1v1h-1zm1 0h1v1h-1zm15 0h1v1h-1zm1 0h1v1h-1zm1 0h3v1h-3zm4 0h1v1h-1zm1 0h1v1h-1zm6 0h1v1h-1z"/><path d="M261 22h4v3h-4zm5 0h1v1h-1zm1 0h1v1h-1zm14 0h1v1h-1zm1 0h6v1h-6zm55 0h1v1h-1zm14 0h1v1h-1zm1 0h3v1h-3zm4 0h1v1h-1zm-164 1h25v1h-25zm34 0h1v1h-1zm5 0h1v1h-1zm17 0h1v1h-1zm1 0h1v1h-1zm4 0h1v8h-1zm1 0h1v1h-1zm6 0h1v1h-1zm5 0h1v1h-1zm1 0h1v1h-1zm16 0h1v1h-1zm1 0h5v1h-5zm53 0h1v1h-1zm1 0h1v1h-1zm14 0h1v1h-1zm1 0h1v1h-1zm4 0h1v21h-1zm1 0h1v1h-1zm-165 1h1v1h-1zm1 0h19v1h-19zm19 0h1v1h-1zm1 0h1v1h-1zm12 0h1v1h-1zm1 0h4v12h-4zm4 0h1v1h-1zm1 0h1v1h-1zm18 0h1v1h-1zm5 0h1v1h-1zm5 0h1v1h-1z"/><path d="M260 24h4v12h-4zm5 0h1v1h-1zm18 0h1v1h-1zm1 0h4v2h-4zm52 0h1v1h-1zm16 0h1v1h-1zm5 0h1v1h-1zm-165 1h1v15h-1zm21 0h1v15h-1zm12 0h1v1h-1zm5 0h1v1h-1zm19 0h1v1h-1zm1 0h4v1h-4zm4 0h1v6h-1zm1 0h1v1h-1zm4 0h1v1h-1zm5 0h1v1h-1zm1 0h1v1h-1zm18 0h1v1h-1zm53 0h1v1h-1zm16 0h1v1h-1zm5 0h1v1h-1zm-132 1h1v1h-1zm5 0h1v1h-1zm20 0h1v1h-1zm5 0h1v1h-1zm4 0h1v1h-1zm5 0h1v1h-1zm19 0h1v1h-1zm1 0h4v1h-4zm52 0h1v14h-1zm16 0h1v1h-1zm5 0h1v1h-1zm-132 1h1v1h-1zm5 0h1v1h-1zm20 0h1v1h-1zm5 0h1v1h-1zm4 0h1v1h-1zm5 0h1v1h-1zm20 0h1v1h-1zm1 0h3v17h-3zm67 0h1v1h-1zm5 0h1v17h-1zm-132 1h4v4h-4zm5 0h1v1h-1zm1 0h18v1h-18zm18 0h1v1h-1zm1 0h1v1h-1zm5 0h1v1h-1z"/><path d="M259 28h4v4h-4zm5 0h1v4h-1zm20 0h1v1h-1zm-54 1h24v2h-24zm25 0h1v2h-1zm29 0h1v3h-1zm-54 2h24v1h-24zm24 0h1v1h-1zm1 0h1v1h-1zm-30 1h4v1h-4zm5 0h1v1h-1zm1 0h23v1h-23zm23 0h1v1h-1zm1 0h1v1h-1zm4 0h4v1h-4zm5 0h1v1h-1zm20 0h1v1h-1zm85 0h1v1h-1zm1 0h1v1h-1zm1 0h1v1h-1zm1 0h1v1h-1zm1 0h1v1h-1zm-148 1h1v1h-1zm5 0h1v1h-1zm29 0h1v1h-1zm5 0h1v1h-1zm20 0h1v1h-1zm83 0h1v1h-1zm1 0h1v1h-1zm1 0h4v1h-4zm4 0h1v1h-1zm1 0h1v1h-1zm1 0h1v1h-1zm-150 1h1v1h-1zm5 0h1v1h-1zm29 0h1v1h-1zm5 0h1v1h-1zm20 0h1v1h-1zm82 0h1v1h-1zm1 0h1v1h-1zm1 0h1v1h-1zm1 0h1v1h-1zm3 0h1v1h-1zm1 0h1v1h-1zm1 0h1v1h-1zm1 0h1v1h-1zm1 0h1v1h-1zm-151 1h1v1h-1zm5 0h1v1h-1zm29 0h1v1h-1zm5 0h1v1h-1zm1 0h1v1h-1zm18 0h1v1h-1zm1 0h4v5h-4zm81 0h1v1h-1zm1 0h1v1h-1zm1 0h1v1h-1zm1 0h1v1h-1zm1 0h2v1h-2zm2 0h1v1h-1zm1 0h1v1h-1zm1 0h1v1h-1zm1 0h1v1h-1zm1 0h1v1h-1zm1 0h1v1h-1zm-151 1h1v1h-1zm1 0h4v1h-4zm4 0h1v6h-1zm1 0h1v1h-1zm28 0h1v1h-1zm1 0h4v1h-4zm4 0h1v6h-1zm1 0h1v1h-1zm18 0h1v1h-1zm82 0h1v1h-1zm1 0h1v1h-1zm1 0h1v1h-1zm1 0h1v6h-1zm1 0h3v1h-3zm3 0h1v1h-1zm1 0h1v1h-1zm1 0h1v1h-1zm1 0h1v1h-1zm1 0h1v2h-1zm1 0h1v1h-1zm-151 1h1v1h-1zm1 0h3v1h-3zm4 0h1v1h-1zm18 0h1v1h-1zm1 0h4v1h-4zm4 0h1v1h-1zm6 0h1v1h-1zm1 0h3v1h-3zm4 0h1v1h-1zm1 0h1v1h-1zm16 0h1v1h-1z"/><path d="M283 37h5v3h-5zm35 0h1v1h-1zm46 0h1v1h-1zm1 0h1v4h-1zm1 0h1v1h-1zm3 0h1v5h-1zm3 0h1v1h-1zm1 0h1v1h-1zm1 0h1v1h-1zm1 0h1v1h-1zm2 0h1v1h-1zm-151 1h1v1h-1zm1 0h4v1h-4zm4 0h1v4h-1zm1 0h1v1h-1zm17 0h1v1h-1zm1 0h3v2h-3zm3 0h1v1h-1zm1 0h1v1h-1zm6 0h1v1h-1zm1 0h4v1h-4zm4 0h1v4h-1zm1 0h1v1h-1zm15 0h1v1h-1zm1 0h1v1h-1zm17 0h4v1h-4zm5 0h1v1h-1zm14 0h1v1h-1zm46 0h1v1h-1zm2 0h1v1h-1zm4 0h1v1h-1zm1 0h1v1h-1zm1 0h1v1h-1zm1 0h1v1h-1zm1 0h1v1h-1zm2 0h1v4h-1zm1 0h1v2h-1zm-150 1h1v1h-1zm1 0h3v1h-3zm4 0h1v1h-1zm1 0h1v1h-1zm15 0h1v1h-1z"/><path d="M249 39h3v2h-3zm4 0h1v1h-1zm1 0h1v1h-1zm7 0h1v1h-1zm1 0h4v1h-4zm4 0h1v4h-1zm1 0h1v1h-1zm13 0h1v1h-1zm1 0h1v1h-1zm1 0h6v1h-6zm17 0h1v1h-1zm1 0h3v3h-3zm4 0h1v1h-1zm9 0h1v1h-1zm5 0h1v1h-1zm46 0h1v1h-1zm2 0h1v1h-1zm4 0h2v1h-2zm2 0h1v2h-1zm1 0h1v1h-1zm-181 1h1v1h-1zm21 0h1v1h-1zm5 0h1v1h-1zm9 0h1v1h-1zm1 0h4v1h-4zm4 0h1v3h-1zm1 0h1v1h-1zm1 0h1v1h-1zm12 0h1v1h-1zm1 0h1v1h-1z"/><path d="M248 40h4v1h-4zm4 0h1v1h-1zm1 0h1v1h-1zm8 0h1v1h-1zm1 0h5v1h-5zm5 0h1v4h-1zm1 0h1v1h-1zm1 0h1v1h-1zm10 0h1v1h-1zm1 0h1v1h-1zm1 0h7v1h-7zm8 0h1v1h-1zm10 0h1v1h-1zm5 0h1v1h-1zm9 0h1v1h-1zm5 0h1v4h-1zm1 0h1v1h-1zm17 0h1v1h-1zm28 0h1v1h-1zm2 0h1v1h-1zm5 0h1v1h-1zm6 0h1v1h-1zm-195 1h1v1h-1zm1 0h3v1h-3zm3 0h1v1h-1zm6 0h1v1h-1zm1 0h2v1h-2zm2 0h1v1h-1zm1 0h1v1h-1zm13 0h1v1h-1zm1 0h2v1h-2zm2 0h1v1h-1zm1 0h1v1h-1zm5 0h1v1h-1zm1 0h3v1h-3zm3 0h1v1h-1zm1 0h1v1h-1zm5 0h1v1h-1zm1 0h5v1h-5zm5 0h1v3h-1zm1 0h1v1h-1zm1 0h1v1h-1zm1 0h1v1h-1zm7 0h1v1h-1zm1 0h1v1h-1zm1 0h5v1h-5zm5 0h1v1h-1zm1 0h1v1h-1zm10 0h1v1h-1z"/><path d="M263 41h5v1h-5zm5 0h1v3h-1zm1 0h1v1h-1zm1 0h1v1h-1zm1 0h1v1h-1zm6 0h1v1h-1zm1 0h1v1h-1zm1 0h4v1h-4zm4 0h5v1h-5zm6 0h1v1h-1zm1 0h2v1h-2zm2 0h1v1h-1zm1 0h1v1h-1zm6 0h1v1h-1zm5 0h1v4h-1zm1 0h1v1h-1zm1 0h1v1h-1zm1 0h1v1h-1zm1 0h1v1h-1zm1 0h1v1h-1zm4 0h1v1h-1zm1 0h4v1h-4zm5 0h1v1h-1zm1 0h1v1h-1zm1 0h3v1h-3zm3 0h1v1h-1zm3 0h3v1h-3zm3 0h1v1h-1zm6 0h1v1h-1zm1 0h2v1h-2zm2 0h1v1h-1zm1 0h1v1h-1zm8 0h1v1h-1zm1 0h3v1h-3zm3 0h1v1h-1zm6 0h3v1h-3zm3 0h1v1h-1zm3 0h1v1h-1zm1 0h1v1h-1zm1 0h1v1h-1zm5 0h1v1h-1zm1 0h1v1h-1zm1 0h1v1h-1zm2 0h1v1h-1zm2 0h1v1h-1zm-195 1h1v2h-1zm1 0h12v2h-12zm12 0h1v2h-1zm1 0h1v2h-1zm13 0h1v2h-1zm1 0h12v2h-12zm12 0h1v2h-1zm1 0h1v2h-1zm6 0h1v1h-1zm1 0h7v1h-7zm7 0h1v3h-1zm1 0h1v1h-1zm1 0h3v1h-3zm3 0h1v1h-1zm1 0h7v1h-7zm7 0h1v1h-1zm1 0h1v1h-1zm12 0h1v1h-1z"/><path d="M264 42h7v1h-7zm7 0h1v3h-1zm1 0h1v1h-1zm1 0h2v1h-2zm2 0h1v1h-1zm1 0h6v1h-6zm6 0h1v1h-1zm1 0h1v1h-1zm1 0h1v2h-1zm5 0h3v2h-3zm3 0h1v2h-1zm1 0h1v2h-1zm6 0h1v1h-1zm1 0h8v1h-8zm8 0h1v2h-1zm1 0h1v2h-1zm5 0h1v1h-1zm1 0h8v1h-8zm8 0h1v3h-1zm1 0h1v2h-1zm3 0h12v2h-12zm12 0h1v2h-1zm1 0h1v2h-1zm8 0h1v2h-1zm1 0h12v2h-12zm12 0h1v2h-1zm4 0h1v1h-1zm1 0h1v1h-1zm1 0h1v1h-1zm1 0h1v1h-1zm1 0h1v1h-1zm3 0h1v1h-1zm1 0h1v1h-1zm1 0h1v1h-1zm1 0h1v1h-1zm1 0h1v1h-1zm1 0h1v1h-1zm-147 1h1v1h-1zm1 0h1v1h-1zm1 0h17v1h-17zm17 0h1v1h-1zm1 0h1v1h-1zm14 0h1v1h-1zm1 0h1v1h-1z"/><path d="M266 43h15v1h-15zm15 0h1v1h-1zm1 0h1v1h-1zm18 0h1v1h-1zm1 0h7v1h-7zm13 0h1v1h-1zm1 0h8v1h-8zm50 0h1v1h-1zm1 0h1v1h-1zm1 0h1v1h-1zm1 0h1v1h-1zm1 0h1v1h-1zm3 0h1v1h-1zm1 0h1v1h-1zm1 0h1v1h-1zm1 0h1v1h-1zm1 0h1v1h-1zm-194 1h1v1h-1zm1 0h12v1h-12zm12 0h1v1h-1zm1 0h1v1h-1zm13 0h1v1h-1zm1 0h12v1h-12zm12 0h1v1h-1zm1 0h1v1h-1zm8 0h1v1h-1zm1 0h1v1h-1zm1 0h14v1h-14zm14 0h1v1h-1zm1 0h1v1h-1zm1 0h1v1h-1zm16 0h1v1h-1zm1 0h1v1h-1zm1 0h12v1h-12zm12 0h1v1h-1zm1 0h1v1h-1zm1 0h1v1h-1zm3 0h1v1h-1zm1 0h7v1h-7zm7 0h1v1h-1zm1 0h1v1h-1zm7 0h1v1h-1zm1 0h1v1h-1zm1 0h6v1h-6zm6 0h1v1h-1zm1 0h1v1h-1zm6 0h1v1h-1zm1 0h1v1h-1zm1 0h6v1h-6zm7 0h1v1h-1zm3 0h12v1h-12zm12 0h1v1h-1zm1 0h1v1h-1zm8 0h1v1h-1zm1 0h12v1h-12zm12 0h1v1h-1zm5 0h1v1h-1zm1 0h1v1h-1zm1 0h1v1h-1zm1 0h1v1h-1zm1 0h1v1h-1zm1 0h1v1h-1zm1 0h1v1h-1zm1 0h1v1h-1zm1 0h1v1h-1zm1 0h1v1h-1zm-193 1h1v1h-1zm1 0h12v1h-12zm12 0h1v1h-1zm1 0h1v1h-1zm13 0h1v1h-1zm1 0h12v1h-12zm12 0h1v1h-1zm1 0h1v1h-1zm10 0h1v1h-1zm1 0h1v1h-1zm1 0h1v1h-1zm1 0h8v1h-8zm8 0h1v1h-1zm1 0h1v1h-1zm1 0h1v1h-1zm1 0h1v1h-1zm20 0h1v1h-1zm1 0h1v1h-1zm1 0h8v1h-8zm8 0h1v1h-1zm1 0h1v1h-1zm1 0h1v1h-1zm5 0h1v1h-1zm1 0h7v1h-7zm7 0h1v1h-1zm1 0h1v1h-1zm9 0h1v1h-1zm1 0h1v1h-1zm1 0h3v1h-3zm3 0h1v1h-1zm1 0h1v1h-1zm1 0h1v1h-1zm7 0h1v1h-1zm1 0h1v1h-1zm1 0h1v1h-1zm1 0h4v1h-4zm4 0h1v1h-1zm1 0h1v1h-1zm3 0h12v1h-12zm12 0h1v1h-1zm1 0h1v1h-1zm8 0h1v1h-1zm1 0h12v1h-12zm12 0h1v1h-1zm6 0h1v1h-1zm1 0h1v1h-1zm1 0h1v1h-1zm1 0h1v1h-1zm1 0h1v1h-1zm1 0h1v1h-1zm1 0h1v1h-1zm1 0h1v1h-1zm-138 1h1v1h-1zm1 0h1v1h-1zm1 0h4v1h-4zm4 0h1v1h-1zm1 0h1v1h-1zm1 0h1v1h-1zm26 0h1v1h-1zm1 0h4v1h-4zm4 0h1v1h-1zm1 0h1v1h-1zm1 0h1v1h-1z"/></svg>