<?xml version="1.0" encoding="UTF-8"?>
<svg id="Laag_1" data-name="Laag 1" xmlns="http://www.w3.org/2000/svg" viewBox="0 0 686.88 278.43">
  <defs>
    <style>
      .cls-1 {
        fill: #eb8115;
      }

      .cls-2 {
        fill: #333;
      }
    </style>
  </defs>
  <g id="Icon">
    <path class="cls-1" d="M424.4,134.86c0,52.47,43.67,95.15,97.34,95.15v-4.94c-52.01,0-90.5-41.26-90.5-90.21,0-39.14,32.92-77.99,81.55-77.99,44.39,0,69.93,35.32,69.93,70.12,0,30.9-31.08,56.03-62.69,56.03-28.01,0-50.8-22.28-50.8-49.66,0-24.22,20.15-43.92,44.93-43.92,21.86,0,39.65,17.39,39.65,38.76h15.78c0-29.88-24.87-54.18-55.43-54.18-33.48,0-60.71,26.62-60.71,59.34,0,35.88,29.87,65.08,66.58,65.08,40.31,0,73.1-32.05,73.1-71.45,0-43.31-36.05-78.54-80.35-78.54-48.74,0-88.4,38.76-88.4,86.41Z"/>
    <path class="cls-2" d="M516.08,113.44h3v-13.41h-3c-19.7,0-35.72,15.66-35.72,34.91s16.02,34.91,35.72,34.91h3v-13.41h-3c-12.13,0-22-9.65-22-21.5s9.87-21.5,22-21.5Z"/>
  </g>
  <g id="Text">
    <path class="cls-2" d="M151.82,175.81c-3.19,1.68-10.81,3-18.54,3-26.03,0-39.42-18.61-39.42-43.09s13.39-43.09,38.93-43.09c8.72,0,15.84,2.28,19.04,3.48l-.86,13.81c-3.19-1.56-8.23-4.56-16.21-4.56-13.02,0-24.19,8.64-24.19,30.37s11.17,30.37,24.19,30.37c7.61,0,12.65-1.8,16.21-4.32l.86,14.05Z"/>
    <path class="cls-2" d="M195.05,144l-25.29-50.18h16.94l16.7,33.49,15.72-33.49h16.95l-25.3,50.54v33.25h-15.72v-33.61Z"/>
    <path class="cls-2" d="M252.78,161.4c3.07,1.92,9.83,5.16,18.18,5.16,6.88,0,13.02-3.72,13.02-12.12,0-6-3.57-8.64-11.18-12.72l-7.98-4.32c-8.47-4.56-14-11.16-14-21.97,0-15,12.65-22.81,27.02-22.81,9.09,0,15.47,2.28,17.93,3l-.74,12.84c-3.81-1.44-8.84-3.6-16.09-3.6-7.85,0-11.91,4.08-11.91,9.84,0,6.24,4.3,8.64,9.09,11.28l9.21,5.04c10.07,5.52,14.86,10.81,14.86,22.57,0,17.04-12.4,25.21-28.73,25.21-8.6,0-15.23-1.2-19.53-3.72l.86-13.69Z"/>
    <path class="cls-2" d="M340.34,135.71c0-23.05,7.98-31.33,17.93-31.33s17.93,8.28,17.93,31.33-7.98,31.33-17.93,31.33-17.93-8.28-17.93-31.33Zm-16.21,0c0,30.13,16.33,43.09,34.14,43.09s34.14-12.97,34.14-43.09-16.33-43.09-34.14-43.09-34.14,12.96-34.14,43.09Z"/>
  </g>
</svg>