<svg width="283" height="139" viewBox="0 0 283 139" fill="none" xmlns="http://www.w3.org/2000/svg">
<path d="M103.084 60.6799V56.0243H129.638V64.6147H107.198C104.927 64.6147 103.084 62.8516 103.084 60.6799Z" fill="#7767A0"/>
<path d="M178.842 30.6267H186.137C187.068 30.6267 187.823 31.3496 187.823 32.2401V52.5236C187.823 55.0742 185.658 57.1449 182.992 57.1449H178.842V30.6267Z" fill="#7767A0"/>
<path d="M170.518 44.4413C170.518 47.3631 169.987 50.05 168.927 52.5029C167.865 54.9563 166.402 57.0689 164.537 58.8417C162.672 60.6148 160.457 62.003 157.892 63.0064C155.327 64.0099 152.541 64.5117 149.534 64.5117H124.982C124.329 64.5117 123.723 64.4004 123.163 64.1772C122.604 63.9545 122.12 63.6478 121.712 63.2573C121.304 62.8674 120.983 62.4044 120.75 61.8691C120.517 61.3338 120.4 60.7543 120.4 60.1297V20.9257C120.4 20.3235 120.517 19.7549 120.75 19.2198C120.983 18.6845 121.304 18.2162 121.712 17.8148C122.12 17.4134 122.604 17.1014 123.163 16.8782C123.723 16.6555 124.329 16.5437 124.982 16.5437H149.534C152.541 16.5437 155.327 17.0454 157.892 18.049C160.457 19.0526 162.672 20.4406 164.537 22.2136C166.402 23.9865 167.865 26.1052 168.927 28.5691C169.987 31.0334 170.518 33.7152 170.518 36.614V44.4414V44.4413ZM161.425 36.614C161.425 34.9196 161.139 33.3692 160.568 31.9644C159.996 30.5595 159.186 29.3609 158.137 28.3685C157.088 27.3764 155.834 26.6071 154.378 26.0604C152.92 25.5142 151.305 25.2408 149.534 25.2408H129.494V55.8146H149.534C151.305 55.8146 152.92 55.5417 154.378 54.995C155.834 54.4488 157.088 53.6796 158.137 52.6869C159.186 51.695 159.996 50.5018 160.568 49.1077C161.139 47.7144 161.425 46.159 161.425 44.4414V36.614V36.614Z" fill="#7767A0"/>
<path d="M120.461 55.6509H129.443V81.0486H124.797C122.404 81.0486 120.461 79.1901 120.461 76.901V55.6509V55.6509Z" fill="#7767A0"/>
<path d="M107.992 0H112.066V64.6148H107.367C105.003 64.6148 103.084 62.7792 103.084 60.5182V4.69436C103.084 2.10349 105.283 0 107.992 0Z" fill="#7767A0"/>
<path d="M120.656 77.1137V72.4582H147.211V81.0486H124.77C122.5 81.0486 120.656 79.2854 120.656 77.1137Z" fill="#7767A0"/>
<path d="M120.656 4.65557V4.96209e-05L153.459 4.96209e-05V8.59045L124.77 8.59045C122.5 8.59045 120.656 6.82729 120.656 4.65557Z" fill="#7767A0"/>
<path fill-rule="evenodd" clip-rule="evenodd" d="M151.336 8.59037C151.337 8.59036 151.338 8.59036 151.312 4.29523C151.286 9.90218e-05 151.286 9.36789e-05 151.287 8.8336e-05L151.295 5.59224e-05L151.307 1.81659e-05L151.341 0C151.367 2.67145e-05 151.402 0.00015067 151.444 0.000481573C151.528 0.00114338 151.644 0.00263476 151.789 0.00584406C152.078 0.0122591 152.484 0.0255583 152.989 0.0529172C153.996 0.107535 155.407 0.218743 157.074 0.445684C160.375 0.895017 164.844 1.8195 169.214 3.76135C177.836 7.59226 186.079 16.642 187.798 31.8458L178.868 32.7691C177.463 20.3342 170.989 14.0221 165.43 11.552C162.131 10.0861 158.596 9.32982 155.808 8.95037C154.431 8.76293 153.277 8.67273 152.481 8.62955C152.083 8.60801 151.778 8.5983 151.581 8.59394C151.483 8.59176 151.412 8.59092 151.37 8.5906C151.35 8.59044 151.337 8.5904 151.331 8.5904C151.328 8.5904 151.327 8.5904 151.328 8.5904L151.332 8.59039L151.336 8.59037Z" fill="#7767A0"/>
<path fill-rule="evenodd" clip-rule="evenodd" d="M181.522 68.2084C178.222 71.7729 174.122 74.1244 170.737 75.9919C164.926 79.1985 158.763 80.4247 154.178 80.877C151.865 81.1052 149.894 81.1419 148.486 81.1205C147.78 81.1098 147.211 81.0845 146.807 81.0606C146.604 81.0486 146.442 81.037 146.325 81.0278C146.266 81.0232 146.218 81.0191 146.181 81.0159C146.163 81.0143 146.147 81.0129 146.135 81.0117L146.118 81.0102L146.109 81.0093C146.107 81.0091 146.106 81.009 146.557 76.7356C147.009 72.4621 147.007 72.462 147.006 72.4619L147.001 72.4613L146.997 72.461C146.996 72.4609 146.997 72.461 147.001 72.4614C147.01 72.4622 147.03 72.4638 147.059 72.4662C147.119 72.4709 147.22 72.4782 147.36 72.4865C147.639 72.503 148.071 72.5228 148.628 72.5312C149.747 72.5482 151.356 72.5194 153.257 72.3319C157.102 71.9527 161.907 70.9468 166.249 68.551C169.636 66.6819 172.565 64.925 174.797 62.5139C176.907 60.2348 178.527 57.2134 178.852 52.564L187.813 53.1354C187.356 59.6909 184.943 64.512 181.522 68.2084Z" fill="#7767A0"/>
<path d="M100.155 80.6751C102.635 80.6751 104.646 78.7521 104.646 76.3799C104.646 74.0077 102.635 72.0847 100.155 72.0847C97.6747 72.0847 95.6641 74.0077 95.6641 76.3799C95.6641 78.7521 97.6747 80.6751 100.155 80.6751Z" fill="#7767A0"/>
<path d="M111.089 75.8197C113.138 75.8197 114.799 74.2311 114.799 72.2715C114.799 70.3119 113.138 68.7233 111.089 68.7233C109.04 68.7233 107.379 70.3119 107.379 72.2715C107.379 74.2311 109.04 75.8197 111.089 75.8197Z" fill="#7767A0"/>
<path d="M111.144 90.1356C114.457 90.1356 117.142 87.5673 117.142 84.3991C117.142 81.2309 114.457 78.6626 111.144 78.6626C107.832 78.6626 105.146 81.2309 105.146 84.3991C105.146 87.5673 107.832 90.1356 111.144 90.1356Z" fill="#7767A0"/>
<path d="M17.928 106.513C19.6945 106.513 21.5003 106.84 23.0068 107.494C24.5129 108.147 25.8137 109.051 26.9094 110.206C28.0048 111.36 28.8639 112.74 29.4871 114.345C30.11 115.95 30.4217 117.697 30.4217 119.585V124.683C30.4217 126.586 30.4694 128.595 30.4694 130.176C30.4694 134.128 30.0815 134.818 28.9861 135.973C27.8905 137.127 26.0196 137.818 23.943 137.818C21.8664 137.818 19.7898 137.818 18.0976 137.754H3.67896C3.29543 137.754 2.9395 137.682 2.61086 137.537C2.28222 137.392 1.99788 137.192 1.7584 136.937C1.51868 136.684 1.33033 136.382 1.19365 136.033C1.05666 135.685 0.988281 135.307 0.988281 134.9V109.367C0.988281 108.975 1.02827 108.621 1.02827 108.094C1.02827 107.725 1.0852 107.302 1.32492 107.04C1.56432 106.779 2.14436 106.513 2.51151 106.513H6.12059M25.0813 119.585C25.0813 118.481 24.9134 117.472 24.5781 116.557C24.2424 115.641 23.7669 114.861 23.1507 114.214C22.5345 113.569 21.7982 113.067 20.9426 112.711C20.0867 112.356 19.1383 112.177 18.0978 112.177H6.32854V132.09H18.0977C19.1382 132.09 20.3279 132.02 21.2732 132.02C22.4597 132.02 23.9431 132.02 24.5363 131.757C25.2869 131.423 25.1296 129.912 25.1296 128.594C25.1296 127.639 25.0813 125.801 25.0813 124.683L25.0813 119.585Z" fill="#42424A"/>
<path d="M64.3373 130.632C64.3373 131.361 64.2903 132.747 64.2903 133.625C64.2903 134.507 64.4314 135.828 63.8315 136.55C63.2312 137.273 63.0326 137.39 61.9962 137.721C61.0785 138.013 58.1388 137.884 56.7552 137.884H46.8222C46.0598 137.884 44.2117 137.999 43.3368 137.721C42.725 137.525 42.1133 137.233 41.5015 136.843C40.729 136.35 40.278 135.38 40.278 133.917V128.066C40.278 127.188 40.2895 126.74 40.8898 126.018C41.4898 125.296 42.3696 124.848 43.3369 124.848C44.2546 124.848 45.4384 124.823 46.8223 124.823H52.5976L54.0431 124.848V129.236L52.5524 129.261H46.8223C46.0738 129.261 44.8664 129.265 44.8664 129.265V131.577C44.8664 132.265 44.8664 132.747 45.1809 133.16C45.5463 133.641 46.2151 133.738 46.8647 133.738H56.7553C57.5035 133.738 58.5276 133.764 58.9373 133.332C59.3467 132.9 59.2432 131.24 59.2432 130.591V125.725C59.2432 124.848 59.5491 122.8 58.6314 121.922C57.7137 121.044 56.4902 120.752 55.5725 120.752L48.217 120.697L42.4193 120.752V115.925L48.0363 115.987H56.7553C57.5178 115.987 58.34 116.115 59.2226 116.371C60.1048 116.628 60.924 117.043 61.6794 117.617C62.4346 118.191 63.0667 118.941 63.575 119.866C64.0833 120.791 64.3375 121.915 64.3375 123.238L64.3373 130.632Z" fill="#42424A"/>
<path d="M122.828 123.385V126.311C122.828 127.193 122.865 128.359 122.559 128.944C122.138 129.749 121.33 129.968 120.418 129.968C119.075 129.968 117.567 129.905 116.272 129.905H108.809V125.78H116.272C116.973 125.78 117.793 125.896 118.246 125.433C118.532 125.14 118.532 125.206 118.532 124.848V120.723C118.246 120.723 116.88 120.697 116.272 120.697L107.937 120.752C106.219 120.752 105.743 121.776 105.36 122.215C104.976 122.654 104.787 123.614 104.787 124.263L104.772 130.632C104.772 131.334 104.644 132.648 105.073 133.04C105.503 133.431 106.378 133.445 107.013 133.445H121.869V137.884H106.973C106.26 137.884 105.078 137.867 104.214 137.867C103.355 137.867 102.058 137.71 101.351 137.136C100.643 136.562 100.681 136.598 100.205 135.673C99.7293 134.748 99.8753 131.956 99.8753 130.632V123.238C99.8753 122.509 100.001 121.722 100.252 120.878C100.503 120.035 100.909 119.251 101.471 118.529C102.033 117.807 102.767 117.202 103.672 116.716C104.577 116.23 105.678 115.987 106.973 115.987H116.272C116.986 115.987 118.279 115.815 119.105 116.071C119.931 116.327 120.402 116.375 121.11 116.949C121.817 117.523 122.066 117.779 122.542 118.704C123.017 119.629 122.828 122.061 122.828 123.385Z" fill="#42424A"/>
<path d="M158.036 137.884H152.53V125.73C152.53 125.041 152.406 124.423 152.159 123.876C151.912 123.329 151.577 122.86 151.153 122.469C150.73 122.077 150.232 121.777 149.66 121.567C149.088 121.358 148.471 121.253 147.807 121.253H138.171V137.884H132.664V118.599C132.664 118.235 132.734 117.894 132.876 117.576C133.017 117.259 133.215 116.982 133.469 116.746C133.723 116.51 134.02 116.324 134.358 116.189C134.697 116.054 135.057 115.986 135.439 115.986H147.85C148.541 115.986 149.272 116.061 150.042 116.209C150.811 116.358 151.573 116.598 152.329 116.928C153.084 117.259 153.804 117.678 154.489 118.184C155.174 118.691 155.781 119.305 156.311 120.027C156.84 120.75 157.26 121.584 157.571 122.529C157.881 123.475 158.037 124.542 158.037 125.73L158.036 137.884Z" fill="#42424A"/>
<path d="M192.82 135.368C192.82 136.585 191.789 137.571 190.517 137.571H170.149C169.753 137.571 169.386 137.504 169.047 137.368C168.708 137.234 168.415 137.048 168.169 136.811C167.921 136.575 167.727 136.295 167.586 135.971C167.445 135.647 167.374 135.296 167.374 134.917V106.183H169.654C171.436 106.183 172.881 107.564 172.881 109.269V132.304H192.82L192.82 135.368Z" fill="#42424A"/>
<path d="M282.5 130.517C282.5 131.422 282.38 132.236 282.14 132.958C281.9 133.681 281.582 134.315 281.187 134.862C280.792 135.409 280.333 135.875 279.811 136.26C279.288 136.645 278.741 136.959 278.169 137.202C277.597 137.445 277.018 137.624 276.433 137.739C275.847 137.853 275.292 137.911 274.77 137.911H264.837C263.891 137.911 263.044 137.796 262.295 137.567C261.547 137.337 260.887 137.03 260.315 136.645C259.743 136.26 259.256 135.818 258.854 135.318C258.451 134.819 258.123 134.295 257.869 133.748C257.615 133.201 257.428 132.648 257.308 132.087C257.188 131.527 257.128 131.003 257.128 130.517V123.387C257.128 122.037 257.385 120.892 257.901 119.954C258.416 119.015 259.059 118.252 259.828 117.665C260.597 117.077 261.434 116.655 262.338 116.399C263.241 116.142 264.075 116.014 264.837 116.014H274.77V121.28L267.189 121.364C265.048 121.364 264.205 122.177 263.824 122.534C263.443 122.892 262.6 123.997 262.6 125.753L262.634 130.477C262.634 131.193 262.821 131.733 263.196 132.097C263.569 132.462 264.117 132.644 264.837 132.644H274.77C275.518 132.644 276.076 132.462 276.443 132.097C276.81 131.733 276.994 131.206 276.994 130.517L276.977 106.443H282.483L282.5 130.517Z" fill="#42424A"/>
<path d="M91.2834 121.191L84.3623 121.253V137.884H78.7922V121.253H71.6336V115.987H78.7922V108.836H82.0495C83.3268 108.836 84.3623 109.826 84.3623 111.048V115.987L91.2834 115.925V121.191Z" fill="#42424A"/>
<path d="M231.449 138.04H236.955L237.26 127.774C237.26 126.202 237.543 124.37 238.681 123.235C239.691 122.227 241.263 121.364 243.684 121.364H251.637V116.098H240.8C239.031 116.098 237.276 116.531 235.779 117.434C233.572 118.766 231.288 121.408 231.449 126.63L231.449 138.04Z" fill="#42424A"/>
<path d="M215.464 138.04H212.315C206.201 138.04 201.245 133.3 201.245 127.452V126.686C201.245 120.839 206.201 116.098 212.315 116.098H215.464C221.578 116.098 226.535 120.839 226.535 126.686V127.452C226.535 133.3 221.578 138.04 215.464 138.04ZM219.711 129.18V127.426C219.711 124.341 217.096 121.839 213.871 121.839H211.943C209.945 121.839 208.326 123.388 208.326 125.299V126.802C208.326 130.026 211.058 132.64 214.429 132.64H216.094C218.092 132.64 219.711 131.091 219.711 129.18Z" fill="#42424A"/>
</svg>
