<svg xmlns="http://www.w3.org/2000/svg" role="img" viewBox="19.19 20.94 237.38 67.13"><g clip-path="url(#clip0)"><path fill="#fff" d="M0 0h287v107H0z"/><path d="M110.738 65.5h-2.642v-2.8037h-.065c-1.224 2.1269-3.115 3.1904-5.672 3.1904-2.073 0-3.7325-.7358-4.9786-2.2075-1.2354-1.4824-1.8531-3.4966-1.8531-6.0425 0-2.7285.6875-4.9145 2.0625-6.5581 1.375-1.6435 3.2062-2.4653 5.4942-2.4653 2.267 0 3.916.8916 4.947 2.6748h.065V41.0723h2.642V65.5zm-2.642-7.4604v-2.4332c0-1.332-.441-2.4599-1.322-3.3837-.88-.9239-1.998-1.3858-3.351-1.3858-1.611 0-2.879.5908-3.8029 1.7725-.9238 1.1816-1.3857 2.8144-1.3857 4.8984 0 1.9014.4404 3.4053 1.3213 4.5117.8913 1.0957 2.0843 1.6436 3.5773 1.6436 1.471 0 2.664-.5318 3.577-1.5952.924-1.0635 1.386-2.4063 1.386-4.0283zm21.253-.129h-11.65c.043 1.837.537 3.2549 1.483 4.254.945.999 2.245 1.4985 3.899 1.4985 1.858 0 3.566-.6123 5.124-1.8369v2.4814c-1.45 1.0528-3.368 1.5791-5.752 1.5791-2.331 0-4.163-.7466-5.495-2.2397-1.332-1.5039-1.998-3.6148-1.998-6.3325 0-2.5674.725-4.6568 2.175-6.2681 1.461-1.6221 3.271-2.4331 5.43-2.4331 2.16 0 3.83.6982 5.012 2.0947 1.181 1.3965 1.772 3.3355 1.772 5.8169v1.3857zm-2.707-2.2397c-.011-1.5254-.381-2.7124-1.112-3.561-.719-.8487-1.724-1.273-3.013-1.273-1.246 0-2.304.4458-3.174 1.3374-.87.8916-1.407 2.0571-1.612 3.4966h8.911zm19.981 2.2397h-11.65c.043 1.837.537 3.2549 1.482 4.254.945.999 2.245 1.4985 3.899 1.4985 1.859 0 3.567-.6123 5.125-1.8369v2.4814c-1.451 1.0528-3.368 1.5791-5.753 1.5791-2.331 0-4.163-.7466-5.495-2.2397-1.332-1.5039-1.998-3.6148-1.998-6.3325 0-2.5674.725-4.6568 2.176-6.2681 1.461-1.6221 3.271-2.4331 5.43-2.4331s3.829.6982 5.011 2.0947 1.773 3.3355 1.773 5.8169v1.3857zm-2.707-2.2397c-.011-1.5254-.382-2.7124-1.112-3.561-.72-.8487-1.724-1.273-3.013-1.273-1.247 0-2.305.4458-3.175 1.3374-.87.8916-1.407 2.0571-1.611 3.4966h8.911zm9.426 7.4443h-.065v9.9742h-2.642V49h2.642v2.9004h.065c1.3-2.1914 3.201-3.2871 5.704-3.2871 2.127 0 3.787.7412 4.979 2.2236 1.192 1.4717 1.788 3.4483 1.788 5.9297 0 2.7607-.671 4.9736-2.014 6.6387-1.342 1.6543-3.179 2.4814-5.51 2.4814-2.138 0-3.787-.9238-4.947-2.7715zm-.065-6.6548v2.3042c0 1.3643.441 2.5245 1.322 3.4805.891.9453 2.019 1.418 3.383 1.418 1.601 0 2.852-.6123 3.755-1.8369.913-1.2246 1.369-2.9273 1.369-5.1079 0-1.837-.424-3.2764-1.273-4.3184-.848-1.042-1.998-1.563-3.448-1.563-1.536 0-2.771.5371-3.706 1.6113-.934 1.0635-1.402 2.4009-1.402 4.0122zm15.759 8.4434v-2.8359c1.44 1.0634 3.024 1.5952 4.754 1.5952 2.32 0 3.48-.7735 3.48-2.3203 0-.4405-.102-.8111-.306-1.1118-.193-.3116-.462-.5855-.806-.8218-.333-.2363-.73-.4458-1.192-.6284-.451-.1934-.94-.3921-1.466-.5962-.731-.2901-1.375-.5801-1.934-.8701-.548-.3008-1.01-.6338-1.386-.9991-.365-.3759-.644-.8003-.838-1.2729-.182-.4727-.274-1.0259-.274-1.6597 0-.7734.178-1.4556.532-2.0464.355-.6015.827-1.101 1.418-1.4985.591-.4082 1.262-.7144 2.014-.9185.763-.2041 1.547-.3061 2.353-.3061 1.428 0 2.707.2471 3.835.7412v2.6748c-1.214-.7949-2.611-1.1924-4.19-1.1924-.494 0-.94.0591-1.337.1773-.398.1074-.741.2631-1.031.4672-.28.2041-.5.4512-.661.7413-.15.2793-.226.5908-.226.9345 0 .4297.076.7896.226 1.0796.161.2901.392.5479.693.7735.301.2255.666.4296 1.096.6123.429.1826.918.3813 1.466.5962.73.2792 1.386.5693 1.966.8701.58.29 1.074.623 1.482.999.408.3652.72.7895.935 1.2729.225.4834.338 1.0581.338 1.7242 0 .8164-.183 1.5254-.548 2.1269-.354.6016-.832 1.1011-1.434 1.4985-.601.3975-1.294.6929-2.078.8863-.785.1933-1.606.29-2.466.29-1.697 0-3.169-.3276-4.415-.9829zm17.725-1.7886h-.065v9.9742h-2.642V49h2.642v2.9004h.065c1.3-2.1914 3.201-3.2871 5.704-3.2871 2.127 0 3.786.7412 4.979 2.2236 1.192 1.4717 1.788 3.4483 1.788 5.9297 0 2.7607-.671 4.9736-2.014 6.6387-1.343 1.6543-3.179 2.4814-5.51 2.4814-2.138 0-3.787-.9238-4.947-2.7715zm-.065-6.6548v2.3042c0 1.3643.441 2.5245 1.322 3.4805.891.9453 2.019 1.418 3.383 1.418 1.601 0 2.852-.6123 3.755-1.8369.913-1.2246 1.369-2.9273 1.369-5.1079 0-1.837-.424-3.2764-1.273-4.3184-.848-1.042-1.998-1.563-3.448-1.563-1.536 0-2.771.5371-3.706 1.6113-.934 1.0635-1.402 2.4009-1.402 4.0122zm30.019 1.4502h-11.65c.043 1.837.538 3.2549 1.483 4.254.945.999 2.245 1.4985 3.899 1.4985 1.859 0 3.567-.6123 5.124-1.8369v2.4814c-1.45 1.0528-3.367 1.5791-5.752 1.5791-2.331 0-4.163-.7466-5.495-2.2397-1.332-1.5039-1.998-3.6148-1.998-6.3325 0-2.5674.725-4.6568 2.175-6.2681 1.461-1.6221 3.271-2.4331 5.431-2.4331 2.159 0 3.829.6982 5.011 2.0947s1.772 3.3355 1.772 5.8169v1.3857zm-2.707-2.2397c-.01-1.5254-.381-2.7124-1.112-3.561-.719-.8487-1.724-1.273-3.013-1.273-1.246 0-2.304.4458-3.174 1.3374-.87.8916-1.407 2.0571-1.611 3.4966h8.91zm19.981 2.2397h-11.65c.043 1.837.537 3.2549 1.482 4.254.946.999 2.245 1.4985 3.9 1.4985 1.858 0 3.566-.6123 5.124-1.8369v2.4814c-1.45 1.0528-3.368 1.5791-5.753 1.5791-2.331 0-4.162-.7466-5.494-2.2397-1.332-1.5039-1.998-3.6148-1.998-6.3325 0-2.5674.725-4.6568 2.175-6.2681 1.461-1.6221 3.271-2.4331 5.43-2.4331s3.83.6982 5.011 2.0947c1.182 1.3965 1.773 3.3355 1.773 5.8169v1.3857zm-2.707-2.2397c-.011-1.5254-.382-2.7124-1.112-3.561-.72-.8487-1.724-1.273-3.013-1.273-1.246 0-2.304.4458-3.175 1.3374-.87.8916-1.407 2.0571-1.611 3.4966h8.911zM252.084 65.5h-2.643v-2.8037h-.064c-1.225 2.1269-3.115 3.1904-5.672 3.1904-2.073 0-3.733-.7358-4.979-2.2075-1.235-1.4824-1.853-3.4966-1.853-6.0425 0-2.7285.688-4.9145 2.063-6.5581 1.375-1.6435 3.206-2.4653 5.494-2.4653 2.267 0 3.916.8916 4.947 2.6748h.064V41.0723h2.643V65.5zm-2.643-7.4604v-2.4332c0-1.332-.44-2.4599-1.321-3.3837-.881-.9239-1.998-1.3858-3.351-1.3858-1.612 0-2.879.5908-3.803 1.7725-.924 1.1816-1.386 2.8144-1.386 4.8984 0 1.9014.441 3.4053 1.321 4.5117.892 1.0957 2.084 1.6436 3.578 1.6436 1.471 0 2.664-.5318 3.577-1.5952.923-1.0635 1.385-2.4063 1.385-4.0283z"/><path fill="#FFC60F" d="M34.1305 67.6806c2.3067-2.3067 5.5123-2.841 7.16-1.1934 1.6476 1.6477 1.1134 4.8533-1.1934 7.16-2.3067 2.3068-16.11 10.1434-16.11 10.1434s7.8367-13.8033 10.1434-16.11z"/><circle cx="40.097" cy="37.251" r="3.797" fill="#F17F00" transform="rotate(45 40.097 37.25)"/><circle cx="55.611" cy="52.764" r="3.797" fill="#F17F00" transform="rotate(45 55.61 52.764)"/><circle cx="78.881" cy="29.494" r="3.797" fill="#F17F00" transform="rotate(45 78.881 29.494)"/><circle cx="38.307" cy="56.941" r="3.797" fill="#F17F00" transform="rotate(45 38.307 56.94)"/><circle cx="70.528" cy="67.681" r="3.797" fill="#F17F00" transform="rotate(45 70.528 67.681)"/><circle cx="50.838" cy="69.471" r="3.797" fill="#F17F00" transform="rotate(45 50.838 69.471)"/><path stroke="#F17F00" stroke-width="1.5" d="M39.947 37.414l38.862-7.935m-8.445 38.647l8.518-38.793m-38.39 7.464l-2.027 20.218m-.336-.21l17.9-4.392m.119-.104l-4.97 17.599m-.41-.73L70.819 67.3m-20.415 2.399L39.976 37.013m30.692 30.683L38.087 57.657m17.235-5.063l23.549-23.235"/></g><defs><clipPath id="clip0"><path fill="#fff" d="M0 0h287v107H0z"/></clipPath></defs></svg>