<?xml version="1.0" encoding="UTF-8"?><svg id="Layer_1" xmlns="http://www.w3.org/2000/svg" viewBox="0 0 528.21 84.89"><defs><style>.cls-1{fill:#f36e24;}.cls-2{fill:#424242;}</style></defs><path class="cls-1" d="m32.49,80.61h-3.17c-5.51,0-9.61-1.29-12.3-3.88-2.69-2.59-4.03-6.51-4.03-11.76v-14.74c0-1.4-.16-2.65-.47-3.75-.31-1.1-.86-2.03-1.65-2.78s-1.83-1.33-3.13-1.74c-1.3-.4-2.94-.6-4.91-.6h-1.84v-5.96h1.84c2.09,0,3.79-.17,5.1-.51,1.31-.34,2.34-.86,3.08-1.56.74-.7,1.26-1.59,1.54-2.68s.43-2.37.43-3.86v-10.15c0-2.4.29-4.56.86-6.49.57-1.93,1.51-3.57,2.81-4.93s2.98-2.4,5.06-3.13c2.07-.73,4.61-1.09,7.61-1.09h3.17v6h-2.53c-6.63,0-9.94,3.21-9.94,9.64v9.98c0,6.97-3.01,10.9-9.04,11.78,6.08.6,9.13,4.51,9.13,11.74v14.65c0,6.54,3.28,9.81,9.85,9.81h2.53v6Z"/><path class="cls-2" d="m69.19,22.57c-.92-.22-1.86-.39-2.79-.51-1.36-.18-2.77-.27-4.18-.27-3.28,0-6.31.54-9,1.59-2.71,1.06-5.07,2.64-7,4.7-1.93,2.05-3.44,4.59-4.48,7.55-1.03,2.93-1.56,6.32-1.56,10.08,0,3.27.33,6.29.97,8.97.65,2.73,1.65,5.11,2.95,7.07,1.33,2,3.02,3.57,5.02,4.67,2.01,1.11,4.36,1.67,6.97,1.67,3,0,5.82-.78,8.4-2.33,1.88-1.12,3.67-2.71,5.35-4.72l.2,6.28h8.65V4.79h-9.5v17.79Zm-3.27,7.83c1.17.24,2.27.56,3.27.98v19c-2.19,3.09-4.29,5.46-6.25,7.03-1.91,1.53-3.71,2.31-5.35,2.31-2.44,0-4.29-1.1-5.63-3.35-1.43-2.39-2.15-6.13-2.15-11.12,0-5.33,1.06-9.26,3.16-11.69,2.09-2.42,4.95-3.6,8.73-3.6,1.38,0,2.8.15,4.22.43Z"/><path class="cls-2" d="m122.28,27.28c-1.68-1.83-3.77-3.26-6.21-4.25-2.42-.99-5.23-1.49-8.35-1.49s-6.16.64-8.71,1.9c-2.54,1.26-4.73,2.98-6.48,5.13-1.74,2.13-3.09,4.63-3.99,7.44-.9,2.79-1.36,5.78-1.36,8.9,0,3.57.42,6.81,1.26,9.65.85,2.88,2.19,5.36,3.98,7.37,1.8,2.01,4.13,3.57,6.93,4.62,2.76,1.04,6.08,1.56,9.87,1.56,2.77,0,5.49-.18,8.09-.55,2.59-.36,4.95-.84,7.01-1.42l.73-.21v-8.2l-1.27.36c-.88.25-1.86.48-2.9.69-1.04.21-2.16.4-3.31.57-1.16.17-2.37.3-3.58.4-1.21.1-2.46.15-3.69.15-4.34,0-7.68-1.1-9.93-3.26-2.06-1.97-3.18-4.8-3.35-8.41h30.1l.08-.91c.06-.64.1-1.33.13-2.06.03-.72.04-1.62.04-2.7,0-3.15-.43-6.04-1.27-8.6-.86-2.59-2.14-4.84-3.81-6.66Zm-4.65,13.19h-20.54c.18-1.4.5-2.72.95-3.92.56-1.48,1.29-2.77,2.18-3.82.87-1.03,1.93-1.83,3.13-2.4,1.2-.56,2.56-.85,4.03-.85,1.73,0,3.26.29,4.56.88,1.28.58,2.36,1.39,3.22,2.41.86,1.03,1.51,2.28,1.93,3.73.35,1.21.53,2.54.54,3.97Z"/><path class="cls-2" d="m168.99,27.28c-1.68-1.83-3.77-3.26-6.21-4.25-2.42-.99-5.23-1.49-8.35-1.49s-6.16.64-8.71,1.9c-2.55,1.26-4.73,2.98-6.48,5.13-1.74,2.13-3.09,4.63-3.99,7.44-.9,2.79-1.36,5.78-1.36,8.9,0,3.57.42,6.81,1.26,9.65.85,2.89,2.19,5.37,3.98,7.37,1.8,2.01,4.13,3.57,6.93,4.62,2.76,1.04,6.08,1.56,9.87,1.56,2.77,0,5.49-.18,8.09-.55,2.59-.36,4.95-.84,7.01-1.42l.73-.21v-8.2l-1.27.36c-.88.25-1.86.48-2.9.69-1.04.21-2.16.4-3.31.57-1.16.17-2.37.3-3.58.4-1.21.1-2.46.15-3.69.15-4.34,0-7.68-1.1-9.93-3.26-2.06-1.97-3.18-4.8-3.35-8.41h30.1l.08-.91c.06-.64.1-1.33.13-2.06.03-.72.04-1.62.04-2.7,0-3.15-.43-6.04-1.27-8.6-.86-2.59-2.14-4.84-3.81-6.66Zm-4.65,13.19h-20.54c.18-1.4.5-2.72.95-3.92.56-1.48,1.29-2.77,2.18-3.82.87-1.03,1.93-1.83,3.13-2.4,1.2-.56,2.56-.85,4.03-.85,1.73,0,3.26.29,4.56.88,1.28.58,2.36,1.39,3.22,2.41.86,1.03,1.51,2.28,1.93,3.73.35,1.21.53,2.54.54,3.97Z"/><path class="cls-2" d="m215.56,27.87c-1.34-2-3.03-3.57-5.01-4.67-2-1.11-4.34-1.67-6.95-1.67-2.97,0-5.77.63-8.32,1.88-1.95.95-3.82,2.44-5.59,4.45l-.36-5.56h-8.58v62.58h9.46v-17.75c1.02.21,2.03.37,3.03.47,1.39.15,2.8.22,4.2.22,3.1,0,6.03-.5,8.7-1.48,2.7-.99,5.07-2.5,7.05-4.47,1.98-1.97,3.55-4.49,4.66-7.47,1.11-2.96,1.67-6.45,1.67-10.38,0-3.32-.33-6.37-.97-9.08-.65-2.75-1.65-5.14-2.97-7.1Zm-5.69,16.52c0,5.22-1.07,9.15-3.19,11.68-2.1,2.51-4.95,3.73-8.7,3.73-1.38,0-2.81-.16-4.24-.47-1.23-.27-2.41-.62-3.54-1.05v-19.85c1.2-1.55,2.35-2.88,3.41-3.94,1.11-1.11,2.17-2,3.15-2.66.96-.64,1.88-1.11,2.76-1.38.87-.27,1.74-.4,2.58-.4,1.35,0,2.47.31,3.42.96.97.66,1.79,1.6,2.42,2.79.66,1.24,1.15,2.77,1.46,4.54.32,1.83.48,3.86.48,6.04Z"/><path class="cls-2" d="m257.26,4.27c-12.55,0-18.91,6.12-18.91,18.18v6.11h-13.84v8.21h13.84v30.55h9.58v-30.55h18.85v-8.21h-18.85v-6.54c0-6.51,2.88-9.54,9.07-9.54,2.74,0,6.07.41,9.91,1.22l1.21.25V5.47l-.81-.16c-3.64-.69-7.02-1.05-10.04-1.05Z"/><path class="cls-2" d="m304.24,25.23c-1.54-1.25-3.45-2.2-5.66-2.8-2.16-.59-4.61-.89-7.29-.89-1.46,0-2.93.08-4.35.24-1.42.16-2.8.37-4.11.63-1.29.26-2.55.56-3.74.9-1.19.34-2.27.68-3.22,1.03l-.66.24v8.9l1.37-.54c2.46-.98,4.87-1.74,7.16-2.27,2.28-.52,4.62-.79,6.95-.79,3.06,0,5.34.68,6.77,2.02,1.43,1.35,2.13,3.1,2.13,5.38v2.77h-7.91c-6.48,0-11.47,1.3-14.85,3.87-3.46,2.63-5.21,6.31-5.21,10.93,0,1.85.29,3.6.85,5.17.58,1.62,1.49,3.05,2.73,4.26,1.23,1.2,2.8,2.14,4.66,2.82,1.84.67,4.08,1,6.64,1,2.78,0,5.47-.55,8-1.62,1.95-.83,3.9-2.08,5.81-3.71l.13,4.56h8.65v-30.65c0-2.53-.42-4.76-1.24-6.65-.83-1.91-2.05-3.52-3.61-4.79Zm-4.65,22.51v6.18c-2.26,2.03-4.42,3.54-6.43,4.49-2.06.97-3.9,1.47-5.46,1.47-1.19,0-2.2-.15-2.99-.45-.77-.29-1.4-.68-1.86-1.15-.47-.48-.8-1.02-1.01-1.64-.22-.65-.33-1.34-.33-2.06,0-1.06.18-2.01.54-2.84.35-.8.89-1.5,1.61-2.08.75-.6,1.73-1.07,2.94-1.4,1.25-.35,2.78-.52,4.53-.52h8.47Z"/><path class="cls-2" d="m347.4,22.19c-1.99-.32-4.15-.48-6.42-.48-3.31,0-6.39.56-9.16,1.68-2.78,1.12-5.2,2.73-7.2,4.79s-3.57,4.57-4.67,7.45c-1.09,2.87-1.65,6.1-1.65,9.61,0,7.33,1.95,13,5.8,16.86,3.85,3.86,9.37,5.82,16.41,5.82,2.22,0,4.4-.19,6.49-.55,2.09-.36,4.16-.94,6.16-1.7l.64-.25v-9.27l-1.46.75c-1.69.88-3.47,1.54-5.28,1.97-1.82.44-3.72.66-5.66.66-4.18,0-7.48-1.2-9.8-3.58-2.33-2.38-3.51-6.07-3.51-10.98,0-2.35.35-4.48,1.05-6.33.69-1.84,1.65-3.41,2.84-4.68,1.18-1.26,2.58-2.24,4.14-2.91,1.57-.67,3.26-1.01,5.03-1.01,1.97,0,3.91.21,5.75.64,1.83.42,3.66,1.1,5.44,2.03l1.46.76v-9.44l-.63-.25c-1.83-.74-3.78-1.28-5.78-1.6Z"/><path class="cls-2" d="m380.37,8.26l-9.46,2.44v11.6h-12.04v8.26h12.04v21.45c0,5.32,1.45,9.35,4.31,11.98,2.83,2.61,7.12,3.93,12.76,3.93,1.88,0,3.76-.1,5.59-.28,1.85-.19,3.65-.51,5.37-.95l.75-.19v-8.5l-1.25.32c-1.72.44-3.39.77-4.98.98-1.58.21-3.05.31-4.37.31-2.92,0-5.14-.68-6.58-2.02-1.42-1.32-2.14-3.41-2.14-6.19v-20.85h19.32v-8.26h-19.32v-14.04Z"/><path class="cls-2" d="m440.3,27.5c-1.79-1.94-4.01-3.44-6.58-4.45-2.55-1-5.46-1.5-8.66-1.5-3.35,0-6.4.58-9.05,1.73-2.66,1.15-4.96,2.79-6.82,4.88-1.85,2.07-3.29,4.58-4.27,7.45-.97,2.84-1.47,6.03-1.47,9.47,0,3.66.47,6.95,1.4,9.78.94,2.87,2.32,5.31,4.11,7.26,1.79,1.96,4.01,3.46,6.59,4.48,2.55,1,5.47,1.5,8.66,1.5,3.35,0,6.4-.58,9.05-1.73,2.66-1.15,4.96-2.79,6.82-4.88,1.85-2.08,3.29-4.6,4.27-7.5.97-2.87,1.47-6.07,1.47-9.51,0-3.63-.47-6.91-1.4-9.74-.94-2.86-2.33-5.3-4.11-7.24Zm-4.11,17.32c0,2.06-.23,4.03-.68,5.87-.44,1.8-1.14,3.39-2.08,4.74-.92,1.32-2.12,2.39-3.56,3.19-1.43.79-3.19,1.18-5.24,1.18-1.8,0-3.42-.31-4.83-.92-1.39-.6-2.59-1.52-3.57-2.71-1-1.22-1.78-2.78-2.32-4.64-.56-1.9-.84-4.15-.84-6.7,0-2.03.23-3.99.68-5.83.44-1.8,1.14-3.4,2.08-4.74.92-1.32,2.12-2.39,3.56-3.19,1.43-.79,3.19-1.18,5.24-1.18,1.77,0,3.39.31,4.81.92,1.4.6,2.61,1.52,3.59,2.71.99,1.22,1.78,2.77,2.32,4.62.55,1.88.84,4.13.84,6.68Z"/><path class="cls-2" d="m486.71,26.24c-2.49-3.12-6.16-4.7-10.92-4.7-2.67,0-5.35.73-7.96,2.18-2.01,1.12-4.06,2.78-6.1,4.95l-.17-6.36h-8.79v45.02h9.54v-28.29c1.27-1.6,2.47-2.98,3.57-4.11,1.15-1.18,2.26-2.16,3.28-2.91.99-.73,1.96-1.26,2.87-1.58.9-.32,1.81-.48,2.69-.48,1.96,0,3.39.69,4.39,2.12,1.06,1.51,1.55,4.07,1.47,7.61l-.02,1.02h9.54l.03-.97c.18-5.9-.97-10.45-3.41-13.51Z"/><path class="cls-1" d="m495.67,1h3.17c5.51,0,9.61,1.29,12.3,3.88s4.03,6.51,4.03,11.76v9.9c0,1.4.16,2.65.47,3.75.31,1.1.86,2.03,1.65,2.78s1.83,1.34,3.15,1.74c1.31.4,2.96.6,4.93.6h1.84v5.96h-1.84c-2.09,0-3.79.17-5.12.51-1.33.34-2.36.86-3.11,1.56-.74.7-1.26,1.59-1.54,2.68-.29,1.09-.43,2.37-.43,3.86v15c0,2.4-.29,4.56-.86,6.49-.57,1.93-1.5,3.57-2.79,4.93-1.28,1.36-2.97,2.4-5.06,3.13s-4.63,1.09-7.63,1.09h-3.17v-6h2.57c6.6,0,9.9-3.21,9.9-9.64v-14.83c0-6.97,3.01-10.88,9.04-11.74-6.08-.66-9.13-4.58-9.13-11.78v-9.81c0-6.54-3.27-9.81-9.81-9.81h-2.57V1Z"/><path class="cls-1" d="m21.38,1.15c-2.21.78-4.04,1.92-5.45,3.38-1.4,1.47-2.43,3.26-3.04,5.33-.6,2.01-.9,4.29-.9,6.78v10.15c0,1.39-.13,2.6-.4,3.6-.24.91-.65,1.63-1.26,2.2-.62.58-1.51,1.03-2.65,1.32-1.22.32-2.85.48-4.85.48H0v7.96h2.84c1.86,0,3.41.19,4.61.55,1.14.35,2.06.86,2.73,1.5.66.64,1.11,1.4,1.38,2.34.29,1.01.43,2.18.43,3.48v14.74c0,5.51,1.46,9.71,4.33,12.48,2.87,2.76,7.24,4.16,12.99,4.16h4.17v-8h-3.53c-6.04,0-8.85-2.8-8.85-8.81v-14.65c0-7.09-2.91-10.37-6.26-11.81,4.1-1.87,6.17-5.79,6.17-11.72v-9.98c0-5.9,2.84-8.64,8.94-8.64h3.53V0h-4.17c-3.1,0-5.77.39-7.94,1.15Zm10.11,4.85h-1.53c-7.16,0-10.94,3.68-10.94,10.64v9.98c0,6.45-2.68,9.98-8.19,10.79l-8.06,1.18,8.11.8c5.53.55,8.23,4.06,8.23,10.74v14.65c0,7.07,3.75,10.81,10.85,10.81h1.53v4h-2.17c-5.22,0-9.12-1.21-11.6-3.6-2.47-2.38-3.72-6.09-3.72-11.04v-14.74c0-1.49-.17-2.84-.51-4.03-.36-1.27-1.01-2.35-1.92-3.23-.89-.86-2.08-1.52-3.53-1.97-1.39-.43-3.14-.64-5.2-.64h-.84v-3.96h.84c2.16,0,3.96-.18,5.35-.55,1.47-.38,2.66-.99,3.52-1.8.88-.83,1.49-1.89,1.82-3.15.31-1.16.46-2.55.46-4.11v-10.15c0-2.29.27-4.38.81-6.21.52-1.77,1.39-3.29,2.57-4.52,1.18-1.24,2.75-2.2,4.67-2.88,1.95-.69,4.4-1.04,7.27-1.04h2.17v4Z"/><path class="cls-1" d="m525.36,34.41c-1.87,0-3.43-.19-4.64-.56-1.15-.35-2.08-.85-2.75-1.5-.66-.64-1.11-1.4-1.38-2.34-.29-1-.43-2.17-.43-3.47v-9.9c0-5.51-1.46-9.71-4.33-12.48-2.86-2.76-7.24-4.16-12.99-4.16h-4.17v8h3.57c6.01,0,8.81,2.8,8.81,8.81v9.81c0,6.12,2.09,10.08,6.24,11.84-4.09,1.85-6.15,5.76-6.15,11.68v14.83c0,5.9-2.83,8.64-8.9,8.64h-3.57v8h4.17c3.1,0,5.77-.39,7.96-1.15,2.23-.78,4.06-1.92,5.45-3.38,1.39-1.46,2.4-3.26,3.02-5.33.6-2.01.9-4.29.9-6.77v-15c0-1.39.13-2.6.39-3.6.24-.91.65-1.63,1.26-2.21.61-.58,1.51-1.03,2.67-1.32,1.24-.32,2.88-.48,4.87-.48h2.84v-7.96h-2.84Zm.84,5.96h-.84c-2.16,0-3.97.18-5.37.55-1.49.38-2.68.99-3.54,1.8-.88.82-1.49,1.88-1.83,3.15-.31,1.16-.46,2.55-.46,4.11v15c0,2.29-.27,4.38-.82,6.21-.53,1.77-1.38,3.29-2.55,4.53-1.17,1.23-2.74,2.2-4.66,2.87-1.97.69-4.42,1.04-7.3,1.04h-2.17v-4h1.57c7.13,0,10.9-3.68,10.9-10.64v-14.83c0-6.45,2.68-9.97,8.18-10.75l7.91-1.12-7.95-.86c-5.54-.6-8.23-4.13-8.23-10.79v-9.81c0-7.07-3.74-10.81-10.81-10.81h-1.57v-4h2.17c5.22,0,9.12,1.21,11.6,3.6,2.47,2.38,3.72,6.09,3.72,11.04v9.9c0,1.49.17,2.85.51,4.02.36,1.27,1,2.35,1.92,3.23.9.87,2.09,1.53,3.55,1.97,1.4.43,3.15.64,5.22.64h.84v3.96Z"/></svg>