<?xml version="1.0" encoding="utf-8"?>
<!-- Generator: Adobe Illustrator 23.0.0, SVG Export Plug-In . SVG Version: 6.00 Build 0)  -->
<svg version="1.1" id="图层_1" xmlns="http://www.w3.org/2000/svg" xmlns:xlink="http://www.w3.org/1999/xlink" x="0px" y="0px"
	 viewBox="0 0 552 108.5" style="enable-background:new 0 0 552 108.5;" xml:space="preserve">
<style type="text/css">
	.st0{fill:#4E5056;}
	.st1{fill:#00AEEB;}
	.st2{fill:#39AD36;}
	.st3{fill:#F6DE00;}
</style>
<g>
	<g>
		<path class="st0" d="M196.5,28.6h7v9.4h0.2c1.1-1.9,2.4-3.5,4.1-4.8c1.6-1.4,3.4-2.5,5.3-3.4c1.9-0.9,3.9-1.5,6-2
			c2.1-0.4,4.1-0.6,6.1-0.6c4.1,0,7.9,0.7,11.3,2.1c3.4,1.4,6.4,3.3,8.9,5.9c2.5,2.5,4.5,5.5,5.9,8.9c1.4,3.4,2.1,7.2,2.1,11.3
			c0,4.1-0.7,7.9-2.1,11.3c-1.4,3.4-3.3,6.4-5.9,8.9c-2.5,2.5-5.5,4.5-8.9,5.9c-3.4,1.4-7.2,2.1-11.3,2.1c-2,0-4.1-0.2-6.1-0.6
			c-2.1-0.4-4.1-1.1-6-2c-1.9-0.9-3.7-2-5.3-3.4c-1.6-1.4-3-3-4.1-4.8h-0.2v35.8h-7V28.6z M202.8,55.3c0,3,0.6,5.9,1.7,8.5
			c1.2,2.7,2.7,5,4.8,7c2,2,4.4,3.5,7.1,4.7c2.7,1.2,5.6,1.7,8.8,1.7c3.2,0,6.2-0.6,8.8-1.7c2.6-1.2,4.9-2.7,6.7-4.7
			c1.9-2,3.3-4.3,4.2-7c1-2.7,1.4-5.5,1.4-8.5c0-3-0.5-5.9-1.4-8.5c-1-2.7-2.4-5-4.2-7c-1.9-2-4.1-3.5-6.7-4.7
			c-2.6-1.2-5.6-1.7-8.8-1.7c-3.2,0-6.1,0.6-8.8,1.7c-2.7,1.2-5.1,2.7-7.1,4.7c-2,2-3.6,4.3-4.8,7C203.4,49.5,202.8,52.3,202.8,55.3
			z"/>
		<path class="st0" d="M444.6,27.3h7.6l13,47.2h0.2l14.9-47.2h6.6l15.9,47.2h0.2l12.6-47.2h7l-15.8,56.1h-7.2l-16-46.1h-0.2
			l-14.9,46.1h-7.2L444.6,27.3z"/>
		<path class="st0" d="M186,57.1h3.4c0-0.6,0-1.2,0-1.7c0-4.1-0.7-7.9-2.1-11.3c-1.4-3.4-3.3-6.4-5.9-8.9c-2.5-2.5-5.5-4.5-8.9-5.9
			c-3.4-1.4-7.2-2.1-11.3-2.1c-4.1,0-7.9,0.7-11.4,2.1c-3.5,1.4-6.5,3.3-8.9,5.9c-2.5,2.5-4.4,5.5-5.8,8.9
			c-1.4,3.4-2.1,7.2-2.1,11.3c0,4.1,0.7,7.9,2.1,11.3c1.4,3.4,3.3,6.4,5.8,8.9c2.5,2.5,5.4,4.5,8.9,5.9c3.5,1.4,7.3,2.1,11.4,2.1
			c4.1,0,7.9-0.7,11.3-2.1c3.4-1.4,6.4-3.3,8.9-5.9c2.5-2.5,4.5-5.5,5.9-8.9c0.1-0.1,0.1-0.3,0.2-0.4H180c-0.9,1.7-1.9,3.2-3.2,4.6
			c-1.9,2-4.1,3.5-6.7,4.7c-2.6,1.2-5.6,1.7-8.8,1.7s-6.2-0.6-8.8-1.7c-2.6-1.2-4.9-2.7-6.7-4.7c-1.9-2-3.3-4.3-4.2-7
			c-0.8-2.1-1.2-4.4-1.4-6.8h42.3H186z M141.5,46.8c1-2.7,2.4-5,4.2-7c1.9-2,4.1-3.5,6.7-4.7c2.6-1.2,5.6-1.7,8.8-1.7
			s6.2,0.6,8.8,1.7c2.6,1.2,4.9,2.7,6.7,4.7c1.9,2,3.3,4.3,4.2,7c0.5,1.3,0.8,2.6,1.1,4h-41.6C140.7,49.4,141,48.1,141.5,46.8z"/>
		<path class="st0" d="M122.6,57.1h3.4c0-0.6,0-1.2,0-1.7c0-4.1-0.7-7.9-2.1-11.3c-1.4-3.4-3.3-6.4-5.9-8.9
			c-2.5-2.5-5.5-4.5-8.9-5.9c-3.4-1.4-7.2-2.1-11.3-2.1c-4.1,0-7.9,0.7-11.4,2.1c-3.5,1.4-6.5,3.3-8.9,5.9c-2.5,2.5-4.4,5.5-5.8,8.9
			c-1.4,3.4-2.1,7.2-2.1,11.3c0,4.1,0.7,7.9,2.1,11.3c1.4,3.4,3.3,6.4,5.8,8.9c2.5,2.5,5.4,4.5,8.9,5.9c3.5,1.4,7.3,2.1,11.4,2.1
			c4.1,0,7.9-0.7,11.3-2.1c3.4-1.4,6.4-3.3,8.9-5.9c2.5-2.5,4.5-5.5,5.9-8.9c0.1-0.1,0.1-0.3,0.2-0.4h-7.5c-0.9,1.7-1.9,3.2-3.2,4.6
			c-1.9,2-4.1,3.5-6.7,4.7c-2.6,1.2-5.6,1.7-8.8,1.7c-3.2,0-6.2-0.6-8.8-1.7c-2.6-1.2-4.9-2.7-6.7-4.7c-1.9-2-3.3-4.3-4.2-7
			c-0.8-2.1-1.2-4.4-1.4-6.8H119H122.6z M78.1,46.8c1-2.7,2.4-5,4.2-7c1.9-2,4.1-3.5,6.7-4.7c2.6-1.2,5.6-1.7,8.8-1.7
			c3.2,0,6.2,0.6,8.8,1.7c2.6,1.2,4.9,2.7,6.7,4.7c1.9,2,3.3,4.3,4.2,7c0.5,1.3,0.8,2.6,1.1,4H77C77.3,49.4,77.6,48.1,78.1,46.8z"/>
		<path class="st0" d="M31,0H7.6H0v7.9v67.5v7.9h7.6H31c17.5,0,31.7-14.2,31.7-31.7v-20C62.7,14.2,48.5,0,31,0z M55,49.8
			c0,16.9-11.7,25.6-27.5,25.6H7.6V7.9h19.9c15.8,0,27.5,10,27.5,25.6V49.8z"/>
		<g>
			<path class="st1" d="M413.3,43.2c-1.7,1.7-4.5,1.7-6.2,0l0,0c-1.7-1.7-1.7-4.5,0-6.2l0,0c1.7-1.7,4.5-1.7,6.2,0l0,0
				C415,38.7,415,41.5,413.3,43.2L413.3,43.2z"/>
			<path class="st1" d="M382.3,74.1c-1.7,1.7-4.5,1.7-6.2,0l0,0c-1.7-1.7-1.7-4.5,0-6.2l0,0c1.7-1.7,4.5-1.7,6.2,0l0,0
				C384,69.6,384,72.4,382.3,74.1L382.3,74.1z"/>
			<path class="st2" d="M416.5,60c-2.4,0-4.4-2-4.4-4.4l0,0c0-2.4,2-4.4,4.4-4.4l0,0c2.4,0,4.4,2,4.4,4.4l0,0
				C421,58,419,60,416.5,60L416.5,60z"/>
			<path class="st3" d="M372.8,60c-2.4,0-4.4-2-4.4-4.4l0,0c0-2.4,2-4.4,4.4-4.4l0,0c2.4,0,4.4,2,4.4,4.4l0,0
				C377.2,58,375.2,60,372.8,60L372.8,60z"/>
			<path class="st2" d="M399.1,33.7c0,2.4-2,4.4-4.4,4.4l0,0c-2.4,0-4.4-2-4.4-4.4l0,0c0-2.4,2-4.4,4.4-4.4l0,0
				C397.1,29.3,399.1,31.2,399.1,33.7L399.1,33.7z"/>
			<path class="st2" d="M399.1,77.4c0,2.4-2,4.4-4.4,4.4l0,0c-2.4,0-4.4-2-4.4-4.4l0,0c0-2.4,2-4.4,4.4-4.4l0,0
				C397.1,73,399.1,75,399.1,77.4L399.1,77.4z"/>
			<path class="st1" d="M382.3,37c1.7,1.7,1.7,4.5,0,6.2l0,0c-1.7,1.7-4.5,1.7-6.2,0l0,0c-1.7-1.7-1.7-4.5,0-6.2l0,0
				C377.8,35.2,380.6,35.2,382.3,37L382.3,37z"/>
			<path class="st1" d="M413.3,67.9c1.7,1.7,1.7,4.5,0,6.2l0,0c-1.7,1.7-4.5,1.7-6.2,0l0,0c-1.7-1.7-1.7-4.5,0-6.2l0,0
				C408.7,66.2,411.5,66.2,413.3,67.9L413.3,67.9z"/>
			<circle class="st3" cx="406.9" cy="26.7" r="3.2"/>
			<circle class="st3" cx="382.4" cy="84.4" r="3.2"/>
			<circle class="st2" cx="365.9" cy="43.3" r="3.2"/>
			<circle class="st1" cx="423.5" cy="67.8" r="3.2"/>
			<circle class="st1" cx="365.6" cy="67.3" r="3.2"/>
			<circle class="st2" cx="423.7" cy="43.8" r="3.2"/>
			<circle class="st1" cx="406.4" cy="84.6" r="3.2"/>
			<circle class="st3" cx="382.9" cy="26.5" r="3.2"/>
			<path class="st1" d="M407.8,68.5c-9.9-10.8-9.9-15.2,0-26l-0.2-0.2c-10.8,9.9-15.2,9.9-26,0l-0.2,0.2c9.9,10.8,9.9,15.2,0,26
				l0.2,0.2c10.8-9.9,15.2-9.9,26,0L407.8,68.5z"/>
			<g>
				<g>
					<circle class="st1" cx="418.1" cy="32.1" r="2.3"/>
					<circle class="st1" cx="371.6" cy="78.6" r="2.3"/>
				</g>
				<g>
					<circle class="st1" cx="394.9" cy="22.5" r="2.3"/>
					<circle class="st1" cx="394.9" cy="88.2" r="2.3"/>
				</g>
				<g>
					<circle class="st1" cx="371.6" cy="32.1" r="2.3"/>
					<circle class="st1" cx="418.1" cy="78.6" r="2.3"/>
				</g>
				<g>
					<circle class="st1" cx="362" cy="55.3" r="2.3"/>
					<circle class="st1" cx="427.8" cy="55.3" r="2.3"/>
				</g>
			</g>
		</g>
		<g>
			<path class="st0" d="M274.8,83.4V15.7c0-4.8,3.9-8.7,8.7-8.7h39.9V0h-41c-8.4,0-15.3,6.8-15.3,15.3v68.2H274.8z"/>
			<rect x="268.1" y="36.2" class="st0" width="52.4" height="7"/>
		</g>
		<path class="st0" d="M340,76.4c-1.2,0-2.3-1-2.3-2.2l0.1-74.2h-7v74.6c0,4.8,3.9,8.7,8.7,8.7h5.6v-7H340z"/>
	</g>
</g>
<g>
	<path class="st0" d="M541.9,2.2c1.4,0,2.8,0.4,4.1,1.1s2.4,1.7,3.1,3.1c0.7,1.3,1.1,2.7,1.1,4.2c0,1.4-0.4,2.8-1.1,4.1
		c-0.7,1.3-1.8,2.3-3.1,3.1c-1.3,0.7-2.7,1.1-4.1,1.1c-1.4,0-2.8-0.4-4.1-1.1c-1.3-0.7-2.3-1.8-3.1-3.1c-0.7-1.3-1.1-2.7-1.1-4.1
		c0-1.4,0.4-2.8,1.1-4.2c0.7-1.3,1.8-2.4,3.1-3.1S540.5,2.2,541.9,2.2z M541.9,3.6c-1.2,0-2.3,0.3-3.4,0.9s-2,1.5-2.6,2.6
		s-0.9,2.3-0.9,3.5c0,1.2,0.3,2.3,0.9,3.4c0.6,1.1,1.5,2,2.6,2.6c1.1,0.6,2.2,0.9,3.4,0.9c1.2,0,2.3-0.3,3.4-0.9
		c1.1-0.6,2-1.5,2.6-2.6s0.9-2.2,0.9-3.4c0-1.2-0.3-2.4-0.9-3.5c-0.6-1.1-1.5-2-2.6-2.6C544.1,3.9,543,3.6,541.9,3.6z M538.2,15.1
		V6.2h3.1c1,0,1.8,0.1,2.3,0.2c0.5,0.2,0.8,0.5,1.1,0.9c0.3,0.4,0.4,0.8,0.4,1.3c0,0.7-0.2,1.2-0.7,1.7c-0.5,0.5-1.1,0.8-1.9,0.8
		c0.3,0.1,0.6,0.3,0.8,0.5c0.4,0.4,0.8,0.9,1.3,1.8l1.1,1.8H544l-0.8-1.4c-0.6-1.1-1.1-1.8-1.5-2.1c-0.3-0.2-0.6-0.3-1.2-0.3h-0.8
		v3.8H538.2z M539.7,10.1h1.7c0.8,0,1.4-0.1,1.7-0.4c0.3-0.2,0.5-0.6,0.5-1c0-0.3-0.1-0.5-0.2-0.7c-0.1-0.2-0.4-0.4-0.6-0.5
		c-0.3-0.1-0.7-0.2-1.4-0.2h-1.6V10.1z"/>
</g>
</svg>
