<?xml version="1.0" encoding="UTF-8" standalone="no"?>
<!-- Created with Inkscape (http://www.inkscape.org/) -->

<svg
   version="1.1"
   id="svg2"
   width="3422.9199"
   height="1543.0933"
   viewBox="0 0 3422.9199 1543.0933"
   sodipodi:docname="DU_logo_rgb_for-blue-bg_horizontal.eps"
   xmlns:inkscape="http://www.inkscape.org/namespaces/inkscape"
   xmlns:sodipodi="http://sodipodi.sourceforge.net/DTD/sodipodi-0.dtd"
   xmlns="http://www.w3.org/2000/svg"
   xmlns:svg="http://www.w3.org/2000/svg">
  <defs
     id="defs6" />
  <sodipodi:namedview
     id="namedview4"
     pagecolor="#ffffff"
     bordercolor="#000000"
     borderopacity="0.25"
     inkscape:showpageshadow="2"
     inkscape:pageopacity="0.0"
     inkscape:pagecheckerboard="0"
     inkscape:deskcolor="#d1d1d1" />
  <g
     id="g8"
     inkscape:groupmode="layer"
     inkscape:label="ink_ext_XXXXXX"
     transform="matrix(1.3333333,0,0,-1.3333333,0,1543.0933)">
    <g
       id="g10"
       transform="scale(0.1)">
      <path
         d="m 11077.4,5894.39 c 0,-136.07 20.1,-231.85 45.3,-302.41 h 65.5 c 181.5,0 1038.2,544.3 1038.2,1728.68 0,1118.83 -811.4,1703.42 -1345.6,1703.42 -624.9,0 -1174.27,-534.2 -1174.27,-1486.72 0,-609.81 277.2,-881.96 413.27,-881.96 131,0 120.9,60.46 161.3,60.46 105.8,0 10.1,-171.36 -136.1,-171.36 -438.47,0 -1164.19,216.74 -1164.19,1144.05 0,771.07 584.61,1597.62 1622.79,1597.62 1214.6,0 2172.2,-937.41 2172.2,-2101.59 0,-1133.98 -735.8,-2152.01 -1265,-2152.01 -186.5,0 -388.1,100.79 -529.2,231.85 -121,5.01 -262.1,45.34 -342.7,125.97 -131,136.07 -146.2,483.84 -146.2,695.49 0,700.54 105.9,1869.77 418.3,1869.77 352.8,0 488.9,-161.26 488.9,-216.71 0,-141.12 -322.5,-272.15 -322.5,-1844.55"
         style="fill:#ffffff;fill-opacity:1;fill-rule:nonzero;stroke:none"
         id="path12" />
      <path
         d="m 13855.5,7617.99 c -196.6,-40.34 -383,-408.23 -383,-1033.16 0,-35.28 5,-75.61 5,-110.89 121,15.15 428.4,312.48 428.4,856.78 0,141.12 -25.2,226.81 -50.4,287.27 z m 761,-1012.99 c 5,45.35 25.2,65.51 50.4,65.51 55.4,0 136.1,-95.78 136.1,-201.59 0,-473.73 -347.8,-1118.83 -851.8,-1118.83 -650.1,0 -932.3,584.6 -932.3,1199.46 0,897.08 322.5,1264.97 750.9,1264.97 0,120.97 90.7,141.13 141.1,141.13 282.3,0 383.1,-196.54 383.1,-589.65 0,-619.91 -423.4,-1093.65 -735.9,-1093.65 h -45.3 c 70.5,-241.88 226.8,-478.75 534.2,-478.75 357.8,0 529.2,408.18 569.5,811.4"
         style="fill:#ffffff;fill-opacity:1;fill-rule:nonzero;stroke:none"
         id="path14" />
      <path
         d="m 15195.1,7749.01 c 196.6,881.96 544.3,1259.95 1023.1,1259.95 201.6,0 383,-115.91 383,-236.86 0,-312.48 -574.5,-881.97 -650.1,-881.97 -10.1,0 -15.1,10.07 -15.1,20.17 0,70.57 322.5,443.51 322.5,791.24 0,45.38 -20.2,70.56 -60.5,70.56 -126,0 -393.1,-196.54 -549.3,-1033.16 347.7,15.12 761,100.8 786.2,100.8 40.3,0 70.5,-40.33 70.5,-95.74 0,-100.8 -408.2,-226.81 -902.1,-282.26 -45.3,-362.84 -75.6,-816.44 -75.6,-1385.92 0,-876.92 171.4,-932.37 171.4,-1043.25 0,-45.36 -50.4,-75.58 -126,-75.58 -236.9,0 -554.4,166.3 -554.4,660.2 0,735.82 40.3,1335.54 115.9,1814.32 h -55.4 c -136.1,0 -262.1,216.71 -262.1,282.22 0,50.4 70.6,151.19 121,151.19 10,0 20.1,-5.01 30.2,-15.12 35.3,-40.29 -15.1,-80.62 226.8,-100.79"
         style="fill:#ffffff;fill-opacity:1;fill-rule:nonzero;stroke:none"
         id="path16" />
      <path
         d="m 17082.3,7617.99 c -196.6,-40.34 -383.1,-408.23 -383.1,-1033.16 0,-35.28 5.1,-75.61 5.1,-110.89 120.9,15.15 428.4,312.48 428.4,856.78 0,141.12 -25.3,226.81 -50.4,287.27 z m 761,-1012.99 c 5,45.35 25.2,65.51 50.3,65.51 55.5,0 136.1,-95.78 136.1,-201.59 0,-473.73 -347.7,-1118.83 -851.7,-1118.83 -650.1,0 -932.4,584.6 -932.4,1199.46 0,897.08 322.6,1264.97 751,1264.97 0,120.97 90.7,141.13 141.1,141.13 282.2,0 383,-196.54 383,-589.65 0,-619.91 -423.3,-1093.65 -735.8,-1093.65 h -45.4 c 70.6,-241.88 226.8,-478.75 534.3,-478.75 357.8,0 529.1,408.18 569.5,811.4"
         style="fill:#ffffff;fill-opacity:1;fill-rule:nonzero;stroke:none"
         id="path18" />
      <path
         d="m 19117.4,6453.81 c 0,453.57 136.1,947.48 136.1,1103.72 0,30.22 -5.1,50.39 -20.2,50.39 -90.7,0 -433.4,-640.08 -584.6,-1335.57 -5.1,-367.89 -30.3,-650.11 -30.3,-650.11 15.2,-15.14 25.2,-55.45 25.2,-95.78 0,-65.51 -25.2,-136.07 -120.9,-136.07 -191.5,0 -524.2,201.59 -524.2,448.55 0,246.94 136.1,393.12 136.1,1522.01 0,272.15 -196.5,423.34 -196.5,483.84 0,65.51 70.5,125.97 126,125.97 50.4,0 151.2,-5.01 267.1,-120.96 186.4,-186.46 267.1,-594.7 302.4,-1012.99 211.6,503.98 488.8,1018.04 655.1,1018.04 448.6,0 579.6,-231.82 579.6,-337.66 0,-151.19 -105.8,-821.5 -105.8,-1340.58 0,-357.83 50.4,-645.1 221.7,-645.1 262.1,0 388.1,1012.99 403.2,1159.17 5,45.34 25.2,65.51 50.4,65.51 55.4,0 136.1,-100.79 136.1,-196.57 v -15.12 c -40.3,-383.01 -126,-1360.75 -690.5,-1360.75 -463.6,0 -766,514.07 -766,1270.06"
         style="fill:#ffffff;fill-opacity:1;fill-rule:nonzero;stroke:none"
         id="path20" />
      <path
         d="m 21896.6,6665.47 c 55.5,0 141.2,-100.81 141.2,-201.6 v -10.06 c -25.2,-488.89 -408.3,-1224.67 -1043.3,-1239.79 h -10.1 c -367.9,0 -594.7,277.16 -594.7,604.76 0,90.73 55.5,146.14 85.7,146.14 15.1,0 25.2,-10.06 25.2,-35.28 0,-136.04 80.7,-372.94 247,-372.94 176.4,0 302.4,176.4 302.4,453.6 0,327.57 -221.8,645.1 -408.3,912.2 l -30.2,45.34 c -25.2,-383.01 -60.5,-629.97 -60.5,-629.97 0,0 0,-20.14 -25.2,-20.14 -60.5,10.07 -166.3,60.47 -166.3,125.98 v 10.1 c 0,0 40.3,297.33 65.5,811.4 -25.2,50.39 -35.3,90.7 -35.3,131.03 0,423.34 463.7,579.58 584.7,579.58 120.9,0 171.3,-50.4 171.3,-161.3 0,-25.18 -45.3,-141.09 -45.3,-292.28 0,-635.03 529.1,-771.1 529.1,-1527.05 0,-80.66 -10,-151.19 -25.2,-216.75 186.5,226.81 226.8,554.41 247,826.56 5,45.35 20.2,60.47 45.3,60.47"
         style="fill:#ffffff;fill-opacity:1;fill-rule:nonzero;stroke:none"
         id="path22" />
      <path
         d="m 22667,7617.99 c -196.5,-40.34 -383,-408.23 -383,-1033.16 0,-35.28 5,-75.61 5,-110.89 121,15.15 428.4,312.48 428.4,856.78 0,141.12 -25.2,226.81 -50.4,287.27 z M 23428,6605 c 5,45.35 25.2,65.51 50.4,65.51 55.5,0 136.1,-95.78 136.1,-201.59 0,-473.73 -347.8,-1118.83 -851.7,-1118.83 -650.2,0 -932.4,584.6 -932.4,1199.46 0,897.08 322.5,1264.97 750.9,1264.97 0,120.97 90.7,141.13 141.1,141.13 282.3,0 383.1,-196.54 383.1,-589.65 0,-619.91 -423.4,-1093.65 -735.8,-1093.65 h -45.4 c 70.6,-241.88 226.8,-478.75 534.2,-478.75 357.8,0 529.2,408.18 569.5,811.4"
         style="fill:#ffffff;fill-opacity:1;fill-rule:nonzero;stroke:none"
         id="path24" />
      <path
         d="m 12313,4342.25 c 0,-330.69 -127.9,-639.35 -251.4,-934.77 -57.3,-246.94 -101.4,-533.54 -101.4,-846.6 0,-1393.38 295.4,-1543.28 445.4,-1543.28 52.9,0 88.1,13.2 136.6,30.9 4.5,0 13.3,-13.2 13.3,-17.7 0,-39.698 -61.8,-118.999 -154.4,-118.999 -458.5,0 -851,401.199 -899.5,1358.059 -343.9,-617.31 -696.6,-1124.36 -828.9,-1124.36 -194,0 -705.53,396.8 -705.53,846.58 0,551.17 299.83,2328.13 410.13,2438.37 44,44.09 88.1,61.72 141,61.72 180.8,0 388.1,-224.88 388.1,-343.93 0,-22.04 -4.4,-35.26 -17.7,-48.49 -163.1,-158.75 -476.2,-1512.41 -476.2,-2173.81 0,-216.06 35.3,-357.14 119.1,-357.14 224.9,0 639.3,723.1 987.7,1441.84 52.9,762.81 211.6,1693.19 374.8,1693.19 141.1,0 383.6,-88.2 418.9,-361.58"
         style="fill:#ffffff;fill-opacity:1;fill-rule:nonzero;stroke:none"
         id="path26" />
      <path
         d="m 13492,2391.87 c 0,396.84 119.1,828.96 119.1,965.65 0,26.45 -4.4,44.1 -17.6,44.1 -79.4,0 -379.3,-560 -511.5,-1168.49 -4.4,-321.89 -26.5,-568.8 -26.5,-568.8 13.2,-13.24 22.1,-48.51 22.1,-83.79 0,-57.34 -22.1,-119.04 -105.9,-119.04 -167.5,0 -458.5,176.37 -458.5,392.42 0,216.07 119,343.94 119,1331.63 0,238.11 -172,370.38 -172,423.3 0,57.32 61.8,110.23 110.3,110.23 44.1,0 132.3,-4.4 233.7,-105.82 163.1,-163.16 233.7,-520.31 264.5,-886.27 185.2,440.92 427.8,890.68 573.3,890.68 392.4,0 507,-202.83 507,-295.44 0,-132.27 -92.6,-718.72 -92.6,-1172.89 0,-313.04 44.1,-564.39 194,-564.39 229.3,0 339.6,886.29 352.8,1014.16 4.4,39.69 22,57.31 44.1,57.31 48.5,0 119,-88.18 119,-171.96 v -13.22 c -35.2,-335.12 -110.2,-1190.54 -604,-1190.54 -405.7,0 -670.3,449.77 -670.3,1111.17"
         style="fill:#ffffff;fill-opacity:1;fill-rule:nonzero;stroke:none"
         id="path28" />
      <path
         d="m 14888.9,4561.28 c 52.9,52.91 185.2,101.4 251.3,101.4 154.4,0 242.6,-119.05 242.6,-260.14 0,-26.46 -13.3,-48.5 -26.5,-61.74 -66.1,-66.14 -88.2,-361.56 -282.2,-361.56 -83.8,0 -260.1,119.05 -260.1,330.69 0,145.52 22,198.44 74.9,251.35 z m 220.5,-3104.18 c -70.6,0 -242.5,88.2 -366,211.63 -101.4,101.41 -141.1,467.39 -141.1,842.19 0,432.12 52.9,877.47 119.1,939.18 30.8,26.48 74.9,39.7 119,39.7 83.8,0 185.2,-39.7 246.9,-101.41 39.7,-39.69 61.8,-92.6 61.8,-180.79 0,-61.73 -30.9,-79.36 -30.9,-79.36 0,0 -75,-617.32 -75,-1018.57 0,-194.01 17.7,-339.53 70.6,-339.53 251.3,0 317.5,454.16 339.5,621.73 0,13.22 17.7,22.05 39.7,22.05 48.5,0 127.9,-35.27 127.9,-88.19 0,-57.33 -8.8,-207.24 -57.4,-370.38 -79.3,-268.98 -264.5,-498.25 -454.1,-498.25"
         style="fill:#ffffff;fill-opacity:1;fill-rule:nonzero;stroke:none"
         id="path30" />
      <path
         d="m 15448.4,2466.83 c 0,815.74 392.5,1142.02 807,1142.02 251.3,0 427.7,-127.88 427.7,-326.28 0,-277.81 -172,-626.15 -304.3,-626.15 -30.8,0 -44.1,22.05 -44.1,44.1 0,8.82 0,22.05 8.8,26.47 44.1,48.49 123.5,229.28 123.5,498.25 0,123.46 -52.9,224.86 -119,224.86 -141.1,0 -476.3,-255.73 -476.3,-1045.01 0,-423.3 220.5,-718.72 502.7,-718.72 410.1,0 507.1,656.99 524.7,806.91 4.4,39.7 17.7,57.32 39.7,57.32 48.5,0 123.5,-88.19 123.5,-176.37 v -8.82 c -30.9,-326.29 -180.8,-1014.11 -727.6,-1014.11 -546.7,0 -886.3,489.4 -886.3,1115.53"
         style="fill:#ffffff;fill-opacity:1;fill-rule:nonzero;stroke:none"
         id="path32" />
      <path
         d="m 17945.2,2868.08 c 0,0 -4.4,-52.91 -4.4,-97 0,-22.05 0,-35.29 4.4,-52.92 z m -8.8,246.92 c -4.4,83.78 -26.5,233.7 -136.7,233.7 -251.3,0 -414.5,-621.71 -414.5,-1089.1 0,-282.2 57.3,-507.08 194,-507.08 123.5,0 255.8,321.88 321.9,621.71 -97,70.55 -167.5,202.84 -167.5,405.65 0,163.16 92.6,317.49 202.8,335.12 z M 19246,1809.83 c 0,-216.06 83.8,-242.53 136.7,-242.53 180.8,0 330.7,709.92 343.9,846.62 4.4,39.67 22,57.32 44.1,57.32 48.5,0 119,-74.96 119,-158.74 v -22.05 c -35.2,-326.29 -158.7,-978.85 -573.2,-978.85 -445.3,0 -542.3,379.18 -542.3,727.52 0,352.75 145.5,925.97 145.5,1040.6 0,79.37 -70.6,136.7 -158.7,185.2 -88.2,-586.45 -383.7,-895.1 -635,-934.79 -88.2,-533.52 -313.1,-956.83 -595.3,-956.83 -251.3,0 -634.9,321.89 -634.9,921.56 0,604.07 220.5,1300.77 745.2,1300.77 273.4,0 445.3,-145.53 445.3,-304.25 0,-105.83 -17.6,-158.74 -44.1,-189.61 92.6,-44.09 123.5,-163.14 123.5,-282.19 0,-101.42 -4.4,-198.42 -13.2,-295.43 180.7,35.27 414.4,317.47 449.7,824.55 -119,61.74 -229.3,132.27 -229.3,233.69 0,97 154.4,171.96 273.4,171.96 79.4,0 141.1,-30.87 141.1,-110.23 0,-57.32 0,-110.23 -4.4,-158.72 233.7,-88.21 621.7,-251.35 621.7,-529.13 0,-149.93 -158.7,-908.33 -158.7,-1146.44"
         style="fill:#ffffff;fill-opacity:1;fill-rule:nonzero;stroke:none"
         id="path34" />
      <path
         d="m 20882.9,2391.87 c 0,396.84 119.1,828.96 119.1,965.65 0,26.45 -4.4,44.1 -17.7,44.1 -79.3,0 -379.2,-560 -511.4,-1168.49 -4.5,-321.89 -26.5,-568.8 -26.5,-568.8 13.2,-13.24 22,-48.51 22,-83.79 0,-57.34 -22,-119.04 -105.8,-119.04 -167.5,0 -458.6,176.37 -458.6,392.42 0,216.07 119.1,343.94 119.1,1331.63 0,238.11 -172,370.38 -172,423.3 0,57.32 61.8,110.23 110.3,110.23 44.1,0 132.3,-4.4 233.7,-105.82 163.1,-163.16 233.7,-520.31 264.5,-886.27 185.2,440.92 427.7,890.68 573.2,890.68 392.5,0 507.1,-202.83 507.1,-295.44 0,-132.27 -92.6,-718.72 -92.6,-1172.89 0,-313.04 44.1,-564.39 194,-564.39 229.3,0 339.6,886.29 352.8,1014.16 4.4,39.69 22,57.31 44.1,57.31 48.5,0 119,-88.18 119,-171.96 v -13.22 C 22122,2136.12 22047,1280.7 21553.1,1280.7 c -405.6,0 -670.2,449.77 -670.2,1111.17"
         style="fill:#ffffff;fill-opacity:1;fill-rule:nonzero;stroke:none"
         id="path36" />
      <path
         d="m 23314.9,2577.07 c 48.5,0 123.5,-88.2 123.5,-176.38 v -8.82 c -22.1,-427.71 -357.2,-1071.47 -912.8,-1084.67 h -8.8 c -321.8,0 -520.3,242.5 -520.3,529.1 0,79.36 48.5,127.86 75,127.86 13.2,0 22,-8.81 22,-30.87 0,-119.05 70.6,-326.29 216.1,-326.29 154.3,0 264.6,154.33 264.6,396.84 0,286.61 -194.1,564.4 -357.2,798.11 l -26.5,39.67 c -22,-335.11 -52.9,-551.17 -52.9,-551.17 0,0 0,-17.63 -22,-17.63 -52.9,8.82 -145.5,52.91 -145.5,110.23 v 8.82 c 0,0 35.2,260.16 57.3,709.9 -22.1,44.1 -30.9,79.37 -30.9,114.65 0,370.38 405.7,507.06 511.5,507.06 105.8,0 149.9,-44.09 149.9,-141.09 0,-22.05 -39.6,-123.46 -39.6,-255.73 0,-555.58 462.9,-674.63 462.9,-1336.04 0,-70.55 -8.8,-132.27 -22,-189.61 163.1,198.43 198.4,485.03 216,723.14 4.5,39.68 17.7,52.92 39.7,52.92"
         style="fill:#ffffff;fill-opacity:1;fill-rule:nonzero;stroke:none"
         id="path38" />
      <path
         d="M 3402.72,3242.1 3035.9,2378.16 2973.89,1528.2 h 850.44 l 165.6,93.28 479.65,-16.68 7.42,-227.1 h 891.28 l 64.18,227.1 h 672.9 c 0,0 -188.36,1658.65 -509.44,1880.47 C 4373.66,2654.73 3402.72,3242.1 3402.72,3242.1"
         style="fill:#ffffff;fill-opacity:1;fill-rule:nonzero;stroke:none"
         id="path40" />
      <path
         d="m 5612.24,2273.25 49.53,-632.21 h -236.14 z"
         style="fill:#4794d5;fill-opacity:1;fill-rule:nonzero;stroke:none"
         id="path42" />
      <path
         d="m 3276.24,3003.63 c 0,0 739.59,-441.61 1626.52,0 708.34,352.69 -1500.04,238.47 -1500.04,238.47 l -126.48,-238.47"
         style="fill:#4794d5;fill-opacity:1;fill-rule:nonzero;stroke:none"
         id="path44" />
      <path
         d="m 6111.39,1254.2 h -722.76 l 43.83,350.6 h 672.9 c 0,0 7.24,-236.5 6.03,-350.6"
         style="fill:#ea1e29;fill-opacity:1;fill-rule:nonzero;stroke:none"
         id="path46" />
      <path
         d="m 6111.39,1254.2 h -722.76 l 43.83,350.6 h 672.9 c 0,0 7.24,-236.5 6.03,-350.6 z"
         style="fill:none;stroke:#264893;stroke-width:226.509;stroke-linecap:round;stroke-linejoin:round;stroke-miterlimit:10;stroke-dasharray:none;stroke-opacity:1"
         id="path48" />
      <path
         d="m 5864.94,3398.43 c 0,0 500.75,661.83 1285.94,477.46 785.19,-184.38 990.37,281.43 990.37,281.43 0,0 -390.12,-1428.33 -1388.32,-1034.46 0,0 153.29,-128.63 294.79,-252.71 -299.85,-215.26 -571.78,-343.01 -1109.82,-19.31"
         style="fill:#4794d5;fill-opacity:1;fill-rule:nonzero;stroke:none"
         id="path50" />
      <path
         d="m 5845.34,3353.84 c 0,0 458.07,675.52 1102.23,524.26 644.16,-151.26 1030.51,9.31 1030.51,9.31 0,0 -447.36,-916.37 -1161.61,-492.96 v 0 c -124.34,89.11 -291.09,69.32 -372.46,-44.21 -81.36,-113.52 -46.52,-277.8 77.82,-366.91 v 0 c -188.27,-76.2 -438.92,20.88 -573.4,110.53"
         style="fill:#ffffff;fill-opacity:1;fill-rule:nonzero;stroke:none"
         id="path52" />
      <path
         d="m 3610.1,3146.06 c 0,0 78.53,202.23 -207.38,96.04 C 3116.82,3135.91 2932.5,1523.6 2932.5,1523.6 h 128.24 c 70.25,0 211.37,13.3 206.4,83.41 0,0 9.1,476.48 42.07,742.04 66.38,244.14 300.89,797.01 300.89,797.01"
         style="fill:#4794d5;fill-opacity:1;fill-rule:nonzero;stroke:none"
         id="path54" />
      <path
         d="m 7049.13,6955.91 c 0,-1539.72 -1227.17,-3952.28 -2740.95,-3952.28 -1513.78,0 -2740.94,2412.56 -2740.94,3952.28 0,1539.72 1227.16,2156.81 2740.94,2156.81 1513.78,0 2740.95,-617.09 2740.95,-2156.81"
         style="fill:#ffffff;fill-opacity:1;fill-rule:nonzero;stroke:none"
         id="path56" />
      <path
         d="m 7049.13,6955.91 c 0,-1539.72 -1227.17,-3952.28 -2740.95,-3952.28 -1513.78,0 -2740.94,2412.56 -2740.94,3952.28 0,1539.72 1227.16,2156.81 2740.94,2156.81 1513.78,0 2740.95,-617.09 2740.95,-2156.81 z"
         style="fill:none;stroke:#264893;stroke-width:226.509;stroke-linecap:round;stroke-linejoin:round;stroke-miterlimit:10;stroke-dasharray:none;stroke-opacity:1"
         id="path58" />
      <path
         d="m 1960.14,7212.65 c 0,0 -269.57,-43.01 -401.85,11.93 -178.08,73.97 111.11,296.35 111.11,296.35 l 290.74,-308.28"
         style="fill:#4794d5;fill-opacity:1;fill-rule:nonzero;stroke:none"
         id="path60" />
      <path
         d="m 4967.31,7500.13 c 0,-343.31 -225.71,-457.92 -651.38,-619.59 -481.65,0 -1454.88,276.28 -1454.88,619.59 0,343.31 1062.32,621.62 1543.97,621.62 481.65,0 562.29,-278.31 562.29,-621.62"
         style="fill:#4794d5;fill-opacity:1;fill-rule:nonzero;stroke:none"
         id="path62" />
      <path
         d="m 4722.02,4409.58 c 0,0 -149.82,623.31 319.39,833.63 -88.85,-239.87 -271.74,-760.55 -157.24,-944.42 114.51,-183.87 -162.15,110.79 -162.15,110.79"
         style="fill:#4794d5;fill-opacity:1;fill-rule:nonzero;stroke:none"
         id="path64" />
      <path
         d="m 7049.13,6955.91 c 0,-1539.72 -1227.17,-3952.28 -2740.95,-3952.28 -1513.78,0 -2740.94,2412.56 -2740.94,3952.28 0,1539.72 1227.16,2156.81 2740.94,2156.81 1513.78,0 2740.95,-617.09 2740.95,-2156.81 z"
         style="fill:none;stroke:#264893;stroke-width:226.509;stroke-linecap:round;stroke-linejoin:round;stroke-miterlimit:10;stroke-dasharray:none;stroke-opacity:1"
         id="path66" />
      <path
         d="m 3431.01,6417.21 c 0,0 153.09,-653.42 1176.93,-750.34 68.7,-6.5 109.18,77.73 72.31,136.04 -48.15,76.12 -201.71,199.75 -204.12,301.06 227.13,-26.37 595.9,-136.45 789.7,-31.61 59.23,32.05 55.71,118.46 -5.71,146.08 -125.77,56.59 -119.57,268.68 -177.57,376.8"
         style="fill:#4794d5;fill-opacity:1;fill-rule:nonzero;stroke:none"
         id="path68" />
      <path
         d="m 3461.43,6624.47 c 0,0 88.05,-719.04 1363.14,-626.2 -75.65,98.24 -156.19,203.19 -159.6,346.29 253,-29.37 572.66,-36.15 733.65,152.55 -150.26,26.44 -318.58,142.16 -388.52,272.58"
         style="fill:#ffffff;fill-opacity:1;fill-rule:nonzero;stroke:none"
         id="path70" />
      <path
         d="m 3461.43,6624.47 c 0,0 88.05,-719.04 1363.14,-626.2 -75.65,98.24 -156.19,203.19 -159.6,346.29 253,-29.37 572.66,-36.15 733.65,152.55 -150.26,26.44 -318.58,142.16 -388.52,272.58"
         style="fill:none;stroke:#264893;stroke-width:226.509;stroke-linecap:round;stroke-linejoin:round;stroke-miterlimit:10;stroke-dasharray:none;stroke-opacity:1"
         id="path72" />
      <path
         d="m 5154.93,7626.06 c 0,-223.83 -379.1,-636.2 -846.75,-636.2 -467.65,0 -846.75,412.37 -846.75,636.2 0,223.84 338.99,3077.24 806.63,3077.24 467.65,0 886.87,-2853.4 886.87,-3077.24"
         style="fill:#ffffff;fill-opacity:1;fill-rule:nonzero;stroke:none"
         id="path74" />
      <path
         d="m 5154.93,7626.06 c 0,-223.83 -379.1,-636.2 -846.75,-636.2 -467.65,0 -846.75,412.37 -846.75,636.2 0,223.84 338.99,3077.24 806.63,3077.24 467.65,0 886.87,-2853.4 886.87,-3077.24 z"
         style="fill:none;stroke:#264893;stroke-width:226.509;stroke-linecap:round;stroke-linejoin:round;stroke-miterlimit:10;stroke-dasharray:none;stroke-opacity:1"
         id="path76" />
      <path
         d="m 4817.01,3612.73 c 11.91,-60.28 -86.64,3.07 -188.79,-17.12 -102.14,-20.17 -169.2,-116.26 -181.11,-55.96 -11.91,60.28 49.44,185.22 151.59,205.41 102.13,20.18 206.39,-72.05 218.31,-132.33"
         style="fill:#264893;fill-opacity:1;fill-rule:nonzero;stroke:none"
         id="path78" />
      <path
         d="m 3808.52,3612.73 c -11.9,-60.28 86.65,3.07 188.79,-17.12 102.15,-20.17 169.2,-116.26 181.11,-55.96 11.91,60.28 -49.44,185.22 -151.58,205.41 -102.15,20.18 -206.41,-72.05 -218.32,-132.33"
         style="fill:#264893;fill-opacity:1;fill-rule:nonzero;stroke:none"
         id="path80" />
      <path
         d="m 2731.08,8551.69 c 0,0 -669.44,331.34 -1288.41,291.58 -219.64,-636.18 32.18,-1272.36 509.32,-1520.43"
         style="fill:#ffffff;fill-opacity:1;fill-rule:nonzero;stroke:none"
         id="path82" />
      <path
         d="m 2731.08,8551.69 c 0,0 -669.44,331.34 -1288.41,291.58 -219.64,-636.18 32.18,-1272.36 509.32,-1520.43"
         style="fill:none;stroke:#264893;stroke-width:226.509;stroke-linecap:round;stroke-linejoin:round;stroke-miterlimit:10;stroke-dasharray:none;stroke-opacity:1"
         id="path84" />
      <path
         d="m 1660.39,8418.63 c -15.16,-94.69 4.25,-491.34 357,-768.88 13.51,-10.63 32.62,2.79 27.28,19.13 -28.93,88.62 -39.89,143.34 -43.48,190.32 -1.3,17.06 17.58,27.81 31.77,18.25 32.32,-21.8 72.05,-37.18 149.04,-21.1 24.69,5.16 37.02,33.24 24.46,55.12 -13.35,23.26 -30.05,50.21 -35.45,85.76 -3.33,21.85 14.65,41.25 36.74,40.47 134.38,-4.8 239.42,-21.38 323.29,38.74"
         style="fill:#4794d5;fill-opacity:1;fill-rule:nonzero;stroke:none"
         id="path86" />
      <path
         d="m 2483.8,8160.97 c 0,0 -332.7,164.68 -729.76,232.19"
         style="fill:#ffffff;fill-opacity:1;fill-rule:nonzero;stroke:none"
         id="path88" />
      <path
         d="m 2483.8,8160.97 c 0,0 -332.7,164.68 -729.76,232.19"
         style="fill:none;stroke:#264893;stroke-width:226.509;stroke-linecap:round;stroke-linejoin:round;stroke-miterlimit:10;stroke-dasharray:none;stroke-opacity:1"
         id="path90" />
      <path
         d="m 5885.28,8551.69 c 0,0 669.44,331.34 1288.41,291.58 219.64,-636.18 -32.18,-1272.36 -509.32,-1520.43"
         style="fill:#ffffff;fill-opacity:1;fill-rule:nonzero;stroke:none"
         id="path92" />
      <path
         d="m 5885.28,8551.69 c 0,0 669.44,331.34 1288.41,291.58 219.64,-636.18 -32.18,-1272.36 -509.32,-1520.43"
         style="fill:none;stroke:#264893;stroke-width:226.509;stroke-linecap:round;stroke-linejoin:round;stroke-miterlimit:10;stroke-dasharray:none;stroke-opacity:1"
         id="path94" />
      <path
         d="m 6955.98,8418.63 c 15.15,-94.69 -4.27,-491.34 -357.01,-768.88 -13.52,-10.63 -32.62,2.79 -27.29,19.13 28.94,88.62 39.9,143.34 43.49,190.32 1.3,17.06 -17.59,27.81 -31.78,18.25 -32.31,-21.8 -72.04,-37.18 -149.03,-21.1 -24.7,5.16 -37.02,33.24 -24.46,55.12 13.35,23.26 30.05,50.21 35.45,85.76 3.33,21.85 -14.65,41.25 -36.74,40.47 -134.39,-4.8 -239.43,-21.38 -323.29,38.74"
         style="fill:#4794d5;fill-opacity:1;fill-rule:nonzero;stroke:none"
         id="path96" />
      <path
         d="m 6132.55,8160.97 c 0,0 332.71,164.68 729.77,232.19"
         style="fill:#ffffff;fill-opacity:1;fill-rule:nonzero;stroke:none"
         id="path98" />
      <path
         d="m 6132.55,8160.97 c 0,0 332.71,164.68 729.77,232.19"
         style="fill:none;stroke:#264893;stroke-width:226.509;stroke-linecap:round;stroke-linejoin:round;stroke-miterlimit:10;stroke-dasharray:none;stroke-opacity:1"
         id="path100" />
      <path
         d="M 6550.49,4616.81 C 6262.12,3992.92 5694.3,3641.54 5282.23,3832 c -412.07,190.47 -512.34,850.64 -223.97,1474.54 288.38,623.91 856.2,975.27 1268.27,784.81 412.07,-190.45 512.34,-850.63 223.96,-1474.54"
         style="fill:#ffffff;fill-opacity:1;fill-rule:nonzero;stroke:none"
         id="path102" />
      <path
         d="M 6550.49,4616.81 C 6262.12,3992.92 5694.3,3641.54 5282.23,3832 c -412.07,190.47 -512.34,850.64 -223.97,1474.54 288.38,623.91 856.2,975.27 1268.27,784.81 412.07,-190.45 512.34,-850.63 223.96,-1474.54 z"
         style="fill:none;stroke:#264893;stroke-width:226.509;stroke-linecap:round;stroke-linejoin:round;stroke-miterlimit:10;stroke-dasharray:none;stroke-opacity:1"
         id="path104" />
      <path
         d="m 5970.98,4962.96 c 0,-269.82 -218.73,-488.55 -488.54,-488.55 -269.82,0 -488.55,218.73 -488.55,488.55 0,269.81 218.73,488.54 488.55,488.54 269.81,0 488.54,-218.73 488.54,-488.54"
         style="fill:#264893;fill-opacity:1;fill-rule:nonzero;stroke:none"
         id="path106" />
      <path
         d="m 2065.86,4616.81 c 288.37,-623.89 856.2,-975.27 1268.27,-784.81 412.07,190.47 512.34,850.64 223.97,1474.54 -288.38,623.91 -856.2,975.27 -1268.27,784.81 -412.07,-190.45 -512.34,-850.63 -223.97,-1474.54"
         style="fill:#ffffff;fill-opacity:1;fill-rule:nonzero;stroke:none"
         id="path108" />
      <path
         d="m 2065.86,4616.81 c 288.37,-623.89 856.2,-975.27 1268.27,-784.81 412.07,190.47 512.34,850.64 223.97,1474.54 -288.38,623.91 -856.2,975.27 -1268.27,784.81 -412.07,-190.45 -512.34,-850.63 -223.97,-1474.54 z"
         style="fill:none;stroke:#264893;stroke-width:226.509;stroke-linecap:round;stroke-linejoin:round;stroke-miterlimit:10;stroke-dasharray:none;stroke-opacity:1"
         id="path110" />
      <path
         d="m 2065.86,4616.81 c 288.37,-623.89 856.2,-975.27 1268.27,-784.81 412.07,190.47 512.34,850.64 223.97,1474.54 -288.38,623.91 -856.2,975.27 -1268.27,784.81 -412.07,-190.45 -512.34,-850.63 -223.97,-1474.54"
         style="fill:#ffffff;fill-opacity:1;fill-rule:nonzero;stroke:none"
         id="path112" />
      <path
         d="m 2065.86,4616.81 c 288.37,-623.89 856.2,-975.27 1268.27,-784.81 412.07,190.47 512.34,850.64 223.97,1474.54 -288.38,623.91 -856.2,975.27 -1268.27,784.81 -412.07,-190.45 -512.34,-850.63 -223.97,-1474.54 z"
         style="fill:none;stroke:#264893;stroke-width:226.509;stroke-linecap:round;stroke-linejoin:round;stroke-miterlimit:10;stroke-dasharray:none;stroke-opacity:1"
         id="path114" />
      <path
         d="m 2645.38,4962.96 c 0,-269.82 218.73,-488.55 488.54,-488.55 269.82,0 488.55,218.73 488.55,488.55 0,269.81 -218.73,488.54 -488.55,488.54 -269.81,0 -488.54,-218.73 -488.54,-488.54"
         style="fill:#264893;fill-opacity:1;fill-rule:nonzero;stroke:none"
         id="path116" />
      <path
         d="m 3624.78,4962.96 c 0,-269.82 -218.73,-488.55 -488.54,-488.55 -269.82,0 -488.55,218.73 -488.55,488.55 0,269.81 218.73,488.54 488.55,488.54 269.81,0 488.54,-218.73 488.54,-488.54"
         style="fill:#264893;fill-opacity:1;fill-rule:nonzero;stroke:none"
         id="path118" />
      <path
         d="m 3621.85,5220.37 c 0,-157.25 -127.47,-284.72 -284.72,-284.72 -157.24,0 -284.71,127.47 -284.71,284.72 0,157.24 127.47,284.71 284.71,284.71 157.25,0 284.72,-127.47 284.72,-284.71"
         style="fill:#ffffff;fill-opacity:1;fill-rule:nonzero;stroke:none"
         id="path120" />
      <path
         d="m 3716.26,3875 c -146.24,-182.33 -130.52,-446.78 38.58,-608.13 119.07,-113.61 379.88,-180.84 513.4,-192.46 0,0 -973.89,64.18 -1301.85,544.4 140.56,146.4 509.5,345.52 620.77,486.07 111.27,140.56 343.4,413.13 498.55,276.6"
         style="fill:#4794d5;fill-opacity:1;fill-rule:nonzero;stroke:none"
         id="path122" />
      <path
         d="m 3930.98,4417.56 c 0,0 186.05,1059.62 -621.77,1363.06 173.79,-392.54 534.32,-1245.61 361.67,-1565.52 -172.64,-319.91 260.1,202.46 260.1,202.46"
         style="fill:#4794d5;fill-opacity:1;fill-rule:nonzero;stroke:none"
         id="path124" />
      <path
         d="m 3491.68,3941.19 394.37,392.82 c 232.17,232.17 612.09,232.17 844.26,0 l 403.54,-401.37"
         style="fill:none;stroke:#264893;stroke-width:226.509;stroke-linecap:round;stroke-linejoin:round;stroke-miterlimit:10;stroke-dasharray:none;stroke-opacity:1"
         id="path126" />
      <path
         d="m 4307.73,3003.63 c -551.81,0 -1065.53,320.58 -1495.61,802.59"
         style="fill:none;stroke:#264893;stroke-width:226.509;stroke-linecap:round;stroke-linejoin:round;stroke-miterlimit:10;stroke-dasharray:none;stroke-opacity:1"
         id="path128" />
      <path
         d="m 2065.86,4616.81 c 288.37,-623.89 856.2,-975.27 1268.27,-784.81 412.07,190.47 512.34,850.64 223.97,1474.54 -288.38,623.91 -856.2,975.27 -1268.27,784.81 -412.07,-190.45 -512.34,-850.63 -223.97,-1474.54 z"
         style="fill:none;stroke:#264893;stroke-width:226.509;stroke-linecap:round;stroke-linejoin:round;stroke-miterlimit:10;stroke-dasharray:none;stroke-opacity:1"
         id="path130" />
      <path
         d="m 5864.94,3398.43 c 0,0 500.75,661.83 1285.94,477.46 785.19,-184.38 990.37,281.43 990.37,281.43 0,0 -390.12,-1428.33 -1388.32,-1034.46 0,0 153.29,-128.63 294.79,-252.71 -267.04,-191.7 -577.89,-274.04 -1024.8,-60.5"
         style="fill:none;stroke:#264893;stroke-width:226.509;stroke-linecap:round;stroke-linejoin:round;stroke-miterlimit:10;stroke-dasharray:none;stroke-opacity:1"
         id="path132" />
      <path
         d="m 3901.46,1062.2 h -927.57 v 384 h 927.57 v -384"
         style="fill:#ea1e29;fill-opacity:1;fill-rule:nonzero;stroke:none"
         id="path134" />
      <path
         d="m 5339,890 h -927.58 v 384 H 5339 V 890"
         style="fill:#ea1e29;fill-opacity:1;fill-rule:nonzero;stroke:none"
         id="path136" />
      <path
         d="M 4859.67,953.398 V 1110.2"
         style="fill:none;stroke:#264893;stroke-width:226.509;stroke-linecap:round;stroke-linejoin:round;stroke-miterlimit:10;stroke-dasharray:none;stroke-opacity:1"
         id="path138" />
      <path
         d="m 2989.84,1487.8 c 0,0 128.31,0.7 226.84,5.5 31.24,1.6 53.61,-40.3 41.78,-78.9 -45.73,-149 -6.3,-269.7 -41.17,-316.2 -41.27,-54.9 -272.46,29.9 -272.46,29.9 l 45.01,359.7"
         style="fill:#a61c27;fill-opacity:1;fill-rule:nonzero;stroke:none"
         id="path140" />
      <path
         d="m 4397.71,1299.7 c 0,0 127.21,16.8 224.35,34 30.8,5.5 58.25,-33.3 51.36,-73 -26.66,-153.6 27.61,-268.399 -1.16,-318.899 -34.03,-59.699 -274.05,-4.5 -274.05,-4.5 l -0.5,362.399"
         style="fill:#a61c27;fill-opacity:1;fill-rule:nonzero;stroke:none"
         id="path142" />
      <path
         d="m 3884.92,7769.34 c 0,0 474.66,-399.32 799.25,-311.61 196.29,53.06 -11.06,-369.2 -771.84,-263.05 -792,110.52 -381.55,918.63 -381.55,918.63 l 354.14,-343.97"
         style="fill:#ea1e29;fill-opacity:1;fill-rule:nonzero;stroke:none"
         id="path144" />
      <path
         d="m 3988.79,8596.69 c 54.4,-128.58 468.39,-323.36 756.3,-306.9 39.12,2.24 75.38,-21.38 86.95,-58.82 68.9,-223.12 71.09,-479.75 13.37,-582.85 -55.33,-98.79 -1319.96,133.73 -1325.28,666.3 -5.32,532.57 207.71,543.22 207.71,543.22 l 260.95,-260.95"
         style="fill:#ea1e29;fill-opacity:1;fill-rule:nonzero;stroke:none"
         id="path146" />
      <path
         d="m 3997.2,9487.06 c 42.65,-122.72 366.34,-317.89 584.19,-337.55 52.44,-4.74 96.94,-40.26 113.8,-90.15 56.37,-166.79 73.51,-346.86 100.39,-508.16 16.82,-100.88 -1178.98,121.03 -1183.36,653.6 -4.37,532.56 170.62,543.21 170.62,543.21 l 214.36,-260.95"
         style="fill:#ea1e29;fill-opacity:1;fill-rule:nonzero;stroke:none"
         id="path148" />
      <path
         d="m 3645.19,9007.6 c 27.46,-204.88 817.1,-697.88 1371.95,-419.9"
         style="fill:none;stroke:#264893;stroke-width:226.509;stroke-linecap:round;stroke-linejoin:round;stroke-miterlimit:10;stroke-dasharray:none;stroke-opacity:1"
         id="path150" />
      <path
         d="M 5143.87,7752.23 C 4490.2,7424.74 3559.92,8005.54 3527.57,8246.92"
         style="fill:none;stroke:#264893;stroke-width:226.509;stroke-linecap:round;stroke-linejoin:round;stroke-miterlimit:10;stroke-dasharray:none;stroke-opacity:1"
         id="path152" />
      <path
         d="m 4582.06,9647.57 c 11.67,-48.57 -17.31,-97.84 -65.53,-110.89 -53.8,-14.58 -131.52,-47.44 -273.61,-50.82 -321.75,-7.67 -451.99,383.03 -451.99,383.03 0,0 125.71,750.31 408.13,742.71 95.84,-2.6 310.47,-661.93 383,-964.03"
         style="fill:#ea1e29;fill-opacity:1;fill-rule:nonzero;stroke:none"
         id="path154" />
      <path
         d="m 5154.93,7626.06 c 0,-223.83 -379.1,-636.2 -846.75,-636.2 -467.65,0 -846.75,412.37 -846.75,636.2 0,223.84 338.99,3077.24 806.63,3077.24 467.65,0 886.87,-2853.4 886.87,-3077.24 z"
         style="fill:none;stroke:#264893;stroke-width:226.509;stroke-linecap:round;stroke-linejoin:round;stroke-miterlimit:10;stroke-dasharray:none;stroke-opacity:1"
         id="path156" />
      <path
         d="m 3796.2,9744.02 c 21.03,-156.94 625.92,-534.6 1050.95,-321.65"
         style="fill:none;stroke:#264893;stroke-width:226.509;stroke-linecap:round;stroke-linejoin:round;stroke-miterlimit:10;stroke-dasharray:none;stroke-opacity:1"
         id="path158" />
      <path
         d="m 5968.05,5220.37 c 0,-157.25 -127.47,-284.72 -284.72,-284.72 -157.24,0 -284.71,127.47 -284.71,284.72 0,157.24 127.47,284.71 284.71,284.71 157.25,0 284.72,-127.47 284.72,-284.71"
         style="fill:#ffffff;fill-opacity:1;fill-rule:nonzero;stroke:none"
         id="path160" />
      <path
         d="m 4312.77,2611.07 9.95,24.27 c 99.48,19.15 245.37,-46.99 285.3,-140.11 l 127.26,-371.04 c 17.2,-50.14 19.53,-104.18 6.72,-155.62 l -147.25,-590.87 -55.42,673.51 -226.56,559.86"
         style="fill:#4794d5;fill-opacity:1;fill-rule:nonzero;stroke:none"
         id="path162" />
      <path
         d="m 3415.89,1079.7 v 139.2"
         style="fill:none;stroke:#264893;stroke-width:226.509;stroke-linecap:round;stroke-linejoin:round;stroke-miterlimit:10;stroke-dasharray:none;stroke-opacity:1"
         id="path164" />
      <path
         d="M 3824.33,1528.2 H 2973.89"
         style="fill:none;stroke:#264893;stroke-width:226.509;stroke-linecap:round;stroke-linejoin:round;stroke-miterlimit:10;stroke-dasharray:none;stroke-opacity:1"
         id="path166" />
      <path
         d="M 5284.58,1377.7 H 4477"
         style="fill:#ffffff;fill-opacity:1;fill-rule:nonzero;stroke:none"
         id="path168" />
      <path
         d="M 5284.58,1377.7 H 4477"
         style="fill:none;stroke:#264893;stroke-width:226.509;stroke-linecap:round;stroke-linejoin:round;stroke-miterlimit:10;stroke-dasharray:none;stroke-opacity:1"
         id="path170" />
      <path
         d="m 4383.79,2466.25 c 104.13,-104.12 285.14,-391.67 210.5,-466.32 -74.65,-74.65 -311.22,-7.29 -415.35,96.83 -104.12,104.13 -137.43,244.43 -62.79,319.08 153.42,-63.4 163.51,154.54 267.64,50.41"
         style="fill:#4794d5;fill-opacity:1;fill-rule:nonzero;stroke:none"
         id="path172" />
      <path
         d="m 3379.9,3295.18 -344,-917.02 -87.43,-1315.96 h 865.56 l 18.63,842.18 197.44,443.32"
         style="fill:none;stroke:#264893;stroke-width:226.509;stroke-linecap:round;stroke-linejoin:round;stroke-miterlimit:10;stroke-dasharray:none;stroke-opacity:1"
         id="path174" />
      <path
         d="M 4469.58,1254.2 H 3884.5 v 350.6 h 585.08 v -350.6"
         style="fill:#ea1e29;fill-opacity:1;fill-rule:nonzero;stroke:none"
         id="path176" />
      <path
         d="M 4469.58,1254.2 H 3884.5 v 350.6 h 585.08 z"
         style="fill:none;stroke:#264893;stroke-width:226.509;stroke-linecap:round;stroke-linejoin:round;stroke-miterlimit:10;stroke-dasharray:none;stroke-opacity:1"
         id="path178" />
      <path
         d="M 5504.85,2269.42 5303.3,953.398 h -865.56 l 101.59,1097.812 -208.5,477.4"
         style="fill:none;stroke:#264893;stroke-width:226.509;stroke-linecap:round;stroke-linejoin:round;stroke-miterlimit:10;stroke-dasharray:none;stroke-opacity:1"
         id="path180" />
      <path
         d="m 5566.08,3564.8 c 0,0 545.31,-461.61 545.31,-2310.6 h -614.03"
         style="fill:none;stroke:#264893;stroke-width:226.509;stroke-linecap:round;stroke-linejoin:round;stroke-miterlimit:10;stroke-dasharray:none;stroke-opacity:1"
         id="path182" />
      <path
         d="m 4147.45,1309.1 v 25.2"
         style="fill:none;stroke:#264893;stroke-width:226.509;stroke-linecap:round;stroke-linejoin:round;stroke-miterlimit:10;stroke-dasharray:none;stroke-opacity:1"
         id="path184" />
      <path
         d="m 5750.08,1309.1 v 25.2"
         style="fill:none;stroke:#264893;stroke-width:226.509;stroke-linecap:round;stroke-linejoin:round;stroke-miterlimit:10;stroke-dasharray:none;stroke-opacity:1"
         id="path186" />
      <path
         d="m 11275.3,6092.31 c 0,-136.07 20.1,-231.84 45.3,-302.41 h 65.6 c 181.4,0 1038.2,544.3 1038.2,1728.68 0,1118.83 -811.5,1703.43 -1345.7,1703.43 -624.9,0 -1174.24,-534.2 -1174.24,-1486.73 0,-609.81 277.14,-881.96 413.24,-881.96 131.1,0 121,60.46 161.3,60.46 105.8,0 10.1,-171.36 -136.1,-171.36 -438.44,0 -1164.17,216.75 -1164.17,1144.05 0,771.07 584.6,1597.62 1622.77,1597.62 1214.6,0 2172.2,-937.41 2172.2,-2101.58 0,-1133.99 -735.8,-2152.02 -1265,-2152.02 -186.5,0 -388.1,100.79 -529.2,231.85 -120.9,5.01 -262,45.34 -342.7,125.97 -131,136.07 -146.1,483.84 -146.1,695.5 0,700.53 105.8,1869.76 418.3,1869.76 352.8,0 488.8,-161.26 488.8,-216.7 0,-141.13 -322.5,-272.16 -322.5,-1844.56"
         style="fill:#ea1e29;fill-opacity:1;fill-rule:nonzero;stroke:none"
         id="path188" />
      <path
         d="m 14053.4,7815.91 c -196.5,-40.34 -383,-408.23 -383,-1033.16 0,-35.27 5,-75.6 5,-110.89 121,15.15 428.4,312.48 428.4,856.78 0,141.13 -25.2,226.81 -50.4,287.27 z m 761,-1012.99 c 5.1,45.35 25.2,65.51 50.4,65.51 55.5,0 136.1,-95.78 136.1,-201.59 0,-473.73 -347.8,-1118.83 -851.7,-1118.83 -650.2,0 -932.4,584.6 -932.4,1199.47 0,897.07 322.6,1264.97 750.9,1264.97 0,120.96 90.8,141.12 141.2,141.12 282.2,0 383,-196.53 383,-589.65 0,-619.91 -423.4,-1093.65 -735.8,-1093.65 h -45.4 c 70.6,-241.87 226.8,-478.75 534.2,-478.75 357.8,0 529.2,408.19 569.5,811.4"
         style="fill:#ea1e29;fill-opacity:1;fill-rule:nonzero;stroke:none"
         id="path190" />
      <path
         d="m 15393,7946.93 c 196.6,881.96 544.3,1259.96 1023.1,1259.96 201.6,0 383,-115.91 383,-236.87 0,-312.48 -574.5,-881.97 -650.1,-881.97 -10.1,0 -15.1,10.07 -15.1,20.17 0,70.57 322.5,443.52 322.5,791.24 0,45.38 -20.1,70.56 -60.5,70.56 -126,0 -393.1,-196.54 -549.3,-1033.15 347.8,15.11 761,100.79 786.2,100.79 40.3,0 70.6,-40.33 70.6,-95.74 0,-100.8 -408.2,-226.81 -902.2,-282.26 -45.3,-362.84 -75.6,-816.44 -75.6,-1385.92 0,-876.92 171.4,-932.37 171.4,-1043.25 0,-45.36 -50.4,-75.58 -126,-75.58 -236.9,0 -554.4,166.3 -554.4,660.2 0,735.82 40.3,1335.54 115.9,1814.33 h -55.4 c -136.1,0 -262.1,216.7 -262.1,282.21 0,50.4 70.6,151.19 121,151.19 10.1,0 20.2,-5.01 30.2,-15.12 35.3,-40.29 -15.1,-80.62 226.8,-100.79"
         style="fill:#ea1e29;fill-opacity:1;fill-rule:nonzero;stroke:none"
         id="path192" />
      <path
         d="m 17280.2,7815.91 c -196.6,-40.34 -383.1,-408.23 -383.1,-1033.16 0,-35.27 5.1,-75.6 5.1,-110.89 120.9,15.15 428.4,312.48 428.4,856.78 0,141.13 -25.2,226.81 -50.4,287.27 z m 761,-1012.99 c 5,45.35 25.2,65.51 50.4,65.51 55.4,0 136.1,-95.78 136.1,-201.59 0,-473.73 -347.8,-1118.83 -851.8,-1118.83 -650.1,0 -932.3,584.6 -932.3,1199.47 0,897.07 322.5,1264.97 750.9,1264.97 0,120.96 90.7,141.12 141.1,141.12 282.2,0 383,-196.53 383,-589.65 0,-619.91 -423.3,-1093.65 -735.8,-1093.65 h -45.3 c 70.5,-241.87 226.7,-478.75 534.2,-478.75 357.8,0 529.2,408.19 569.5,811.4"
         style="fill:#ea1e29;fill-opacity:1;fill-rule:nonzero;stroke:none"
         id="path194" />
      <path
         d="m 19315.3,6651.74 c 0,453.56 136.1,947.47 136.1,1103.71 0,30.23 -5.1,50.4 -20.2,50.4 -90.7,0 -433.4,-640.08 -584.6,-1335.58 -5.1,-367.89 -30.2,-650.11 -30.2,-650.11 15.1,-15.14 25.1,-55.45 25.1,-95.78 0,-65.51 -25.1,-136.07 -120.9,-136.07 -191.5,0 -524.1,201.59 -524.1,448.56 0,246.94 136,393.11 136,1522 0,272.15 -196.5,423.34 -196.5,483.84 0,65.51 70.5,125.98 126,125.98 50.4,0 151.2,-5.02 267.1,-120.97 186.5,-186.46 267.1,-594.7 302.4,-1012.98 211.7,503.97 488.8,1018.04 655.1,1018.04 448.6,0 579.6,-231.83 579.6,-337.67 0,-151.19 -105.8,-821.5 -105.8,-1340.58 0,-357.82 50.4,-645.09 221.7,-645.09 262.1,0 388.1,1012.98 403.2,1159.16 5.1,45.34 25.2,65.51 50.4,65.51 55.5,0 136.1,-100.79 136.1,-196.57 v -15.12 c -40.3,-383.01 -126,-1360.74 -690.5,-1360.74 -463.6,0 -766,514.06 -766,1270.06"
         style="fill:#ea1e29;fill-opacity:1;fill-rule:nonzero;stroke:none"
         id="path196" />
      <path
         d="m 22094.6,6863.39 c 55.4,0 141.1,-100.81 141.1,-201.6 v -10.05 c -25.2,-488.9 -408.2,-1224.68 -1043.3,-1239.8 h -10 c -367.9,0 -594.7,277.17 -594.7,604.77 0,90.72 55.4,146.13 85.6,146.13 15.2,0 25.2,-10.06 25.2,-35.27 0,-136.05 80.7,-372.95 247,-372.95 176.4,0 302.4,176.4 302.4,453.61 0,327.56 -221.8,645.09 -408.2,912.19 l -30.3,45.35 c -25.2,-383.02 -60.5,-629.98 -60.5,-629.98 0,0 0,-20.13 -25.2,-20.13 -60.4,10.06 -166.3,60.46 -166.3,125.97 v 10.11 c 0,0 40.3,297.32 65.5,811.39 -25.2,50.4 -35.2,90.69 -35.2,131.03 0,423.34 463.6,579.58 584.6,579.58 120.9,0 171.3,-50.4 171.3,-161.29 0,-25.19 -45.3,-141.1 -45.3,-292.29 0,-635.03 529.2,-771.1 529.2,-1527.05 0,-80.66 -10.1,-151.19 -25.2,-216.74 186.4,226.8 226.8,554.4 246.9,826.55 5.1,45.35 20.2,60.47 45.4,60.47"
         style="fill:#ea1e29;fill-opacity:1;fill-rule:nonzero;stroke:none"
         id="path198" />
      <path
         d="m 22864.9,7815.91 c -196.5,-40.34 -383,-408.23 -383,-1033.16 0,-35.27 5,-75.6 5,-110.89 121,15.15 428.4,312.48 428.4,856.78 0,141.13 -25.2,226.81 -50.4,287.27 z m 761,-1012.99 c 5.1,45.35 25.2,65.51 50.4,65.51 55.5,0 136.1,-95.78 136.1,-201.59 0,-473.73 -347.7,-1118.83 -851.7,-1118.83 -650.1,0 -932.4,584.6 -932.4,1199.47 0,897.07 322.6,1264.97 751,1264.97 0,120.96 90.7,141.12 141.1,141.12 282.2,0 383,-196.53 383,-589.65 0,-619.91 -423.4,-1093.65 -735.8,-1093.65 h -45.4 c 70.6,-241.87 226.8,-478.75 534.2,-478.75 357.9,0 529.2,408.19 569.5,811.4"
         style="fill:#ea1e29;fill-opacity:1;fill-rule:nonzero;stroke:none"
         id="path200" />
      <path
         d="m 12510.9,4540.18 c 0,-330.69 -127.9,-639.36 -251.4,-934.78 -57.3,-246.93 -101.4,-533.53 -101.4,-846.59 0,-1393.31 295.4,-1543.31 445.4,-1543.31 52.9,0 88.2,13.3 136.7,30.9 4.4,0 13.2,-13.2 13.2,-17.6 0,-39.7 -61.7,-119.1 -154.3,-119.1 -458.6,0 -851,401.3 -899.5,1358.08 -344,-617.31 -696.7,-1124.38 -829,-1124.38 -194,0 -705.5,396.84 -705.5,846.6 0,551.18 299.8,2328.13 410.1,2438.37 44.1,44.09 88.2,61.73 141.1,61.73 180.7,0 388,-224.88 388,-343.93 0,-22.05 -4.4,-35.27 -17.6,-48.5 -163.2,-158.75 -476.3,-1512.4 -476.3,-2173.81 0,-216.06 35.3,-357.15 119.1,-357.15 224.9,0 639.4,723.12 987.7,1441.85 52.9,762.82 211.6,1693.19 374.8,1693.19 141.1,0 383.6,-88.2 418.9,-361.57"
         style="fill:#264893;fill-opacity:1;fill-rule:nonzero;stroke:none"
         id="path202" />
      <path
         d="m 13690,2589.79 c 0,396.84 119,828.96 119,965.66 0,26.44 -4.4,44.09 -17.6,44.09 -79.4,0 -379.2,-560 -511.5,-1168.49 -4.4,-321.88 -26.5,-568.8 -26.5,-568.8 13.3,-13.24 22.1,-48.51 22.1,-83.79 0,-57.31 -22.1,-119.05 -105.8,-119.05 -167.6,0 -458.6,176.38 -458.6,392.43 0,216.07 119,343.94 119,1331.63 0,238.11 -171.9,370.39 -171.9,423.3 0,57.32 61.7,110.24 110.2,110.24 44.1,0 132.3,-4.41 233.7,-105.83 163.1,-163.15 233.7,-520.3 264.6,-886.27 185.2,440.93 427.7,890.68 573.2,890.68 392.4,0 507,-202.83 507,-295.44 0,-132.27 -92.5,-718.72 -92.5,-1172.88 0,-313.05 44,-564.4 194,-564.4 229.3,0 339.5,886.29 352.7,1014.16 4.4,39.7 22.1,57.32 44.1,57.32 48.5,0 119.1,-88.19 119.1,-171.97 v -13.22 C 14929,2334.04 14854,1478.6 14360.2,1478.6 c -405.7,0 -670.2,449.79 -670.2,1111.19"
         style="fill:#264893;fill-opacity:1;fill-rule:nonzero;stroke:none"
         id="path204" />
      <path
         d="m 15086.8,4759.2 c 53,52.92 185.2,101.41 251.4,101.41 154.3,0 242.5,-119.05 242.5,-260.15 0,-26.45 -13.2,-48.5 -26.5,-61.74 -66.1,-66.14 -88.2,-361.56 -282.2,-361.56 -83.7,0 -260.1,119.05 -260.1,330.69 0,145.52 22,198.44 74.9,251.35 z m 220.5,-3104.18 c -70.5,0 -242.5,88.18 -366,211.64 -101.4,101.4 -141.1,467.38 -141.1,842.18 0,432.12 52.9,877.48 119.1,939.19 30.9,26.47 74.9,39.69 119,39.69 83.8,0 185.2,-39.69 247,-101.4 39.6,-39.7 61.7,-92.61 61.7,-180.8 0,-61.73 -30.9,-79.36 -30.9,-79.36 0,0 -74.9,-617.32 -74.9,-1018.57 0,-194.01 17.6,-339.53 70.5,-339.53 251.4,0 317.5,454.17 339.5,621.73 0,13.22 17.7,22.05 39.7,22.05 48.5,0 127.9,-35.27 127.9,-88.18 0,-57.34 -8.8,-207.25 -57.3,-370.39 -79.4,-268.98 -264.6,-498.25 -454.2,-498.25"
         style="fill:#264893;fill-opacity:1;fill-rule:nonzero;stroke:none"
         id="path206" />
      <path
         d="m 15646.4,2664.75 c 0,815.74 392.4,1142.02 806.9,1142.02 251.3,0 427.7,-127.87 427.7,-326.28 0,-277.81 -172,-626.14 -304.3,-626.14 -30.8,0 -44,22.04 -44,44.09 0,8.82 0,22.05 8.8,26.47 44.1,48.5 123.4,229.28 123.4,498.25 0,123.46 -52.9,224.87 -119,224.87 -141.1,0 -476.2,-255.73 -476.2,-1045.02 0,-423.29 220.4,-718.72 502.6,-718.72 410.1,0 507.1,657 524.7,806.92 4.5,39.69 17.7,57.31 39.7,57.31 48.5,0 123.5,-88.18 123.5,-176.37 v -8.82 c -30.9,-326.29 -180.8,-1014.13 -727.5,-1014.13 -546.8,0 -886.3,489.42 -886.3,1115.55"
         style="fill:#264893;fill-opacity:1;fill-rule:nonzero;stroke:none"
         id="path208" />
      <path
         d="m 18143.1,3066 c 0,0 -4.4,-52.91 -4.4,-97 0,-22.05 0,-35.29 4.4,-52.92 z m -8.8,246.92 c -4.4,83.78 -26.4,233.7 -136.7,233.7 -251.3,0 -414.5,-621.71 -414.5,-1089.1 0,-282.2 57.4,-507.08 194.1,-507.08 123.4,0 255.7,321.88 321.8,621.71 -97,70.56 -167.5,202.84 -167.5,405.66 0,163.15 92.6,317.48 202.8,335.11 z m 1309.6,-1305.17 c 0,-216.05 83.8,-242.51 136.7,-242.51 180.8,0 330.7,709.9 343.9,846.6 4.4,39.67 22.1,57.32 44.1,57.32 48.5,0 119.1,-74.96 119.1,-158.74 v -22.05 c -35.3,-326.29 -158.8,-978.87 -573.3,-978.87 -445.3,0 -542.3,379.2 -542.3,727.54 0,352.75 145.5,925.97 145.5,1040.6 0,79.37 -70.5,136.7 -158.7,185.2 -88.2,-586.45 -383.7,-895.09 -635,-934.79 -88.2,-533.52 -313,-956.85 -595.3,-956.85 -251.3,0 -634.9,321.92 -634.9,921.59 0,604.07 220.5,1300.76 745.2,1300.76 273.4,0 445.3,-145.52 445.3,-304.25 0,-105.83 -17.6,-158.74 -44,-189.61 92.5,-44.09 123.4,-163.14 123.4,-282.19 0,-101.42 -4.4,-198.42 -13.2,-295.43 180.8,35.27 414.5,317.47 449.7,824.55 -119,61.74 -229.3,132.28 -229.3,233.69 0,97 154.4,171.96 273.4,171.96 79.4,0 141.1,-30.87 141.1,-110.22 0,-57.33 0,-110.24 -4.4,-158.73 233.7,-88.21 621.7,-251.35 621.7,-529.13 0,-149.92 -158.7,-908.33 -158.7,-1146.44"
         style="fill:#264893;fill-opacity:1;fill-rule:nonzero;stroke:none"
         id="path210" />
      <path
         d="m 21080.9,2589.79 c 0,396.84 119,828.96 119,965.66 0,26.44 -4.4,44.09 -17.6,44.09 -79.4,0 -379.2,-560 -511.5,-1168.49 -4.4,-321.88 -26.5,-568.8 -26.5,-568.8 13.3,-13.24 22.1,-48.51 22.1,-83.79 0,-57.31 -22.1,-119.05 -105.8,-119.05 -167.6,0 -458.6,176.38 -458.6,392.43 0,216.07 119,343.94 119,1331.63 0,238.11 -171.9,370.39 -171.9,423.3 0,57.32 61.7,110.24 110.2,110.24 44.1,0 132.3,-4.41 233.7,-105.83 163.1,-163.15 233.7,-520.3 264.6,-886.27 185.1,440.93 427.7,890.68 573.2,890.68 392.4,0 507,-202.83 507,-295.44 0,-132.27 -92.6,-718.72 -92.6,-1172.88 0,-313.05 44.1,-564.4 194.1,-564.4 229.2,0 339.5,886.29 352.7,1014.16 4.4,39.7 22,57.32 44.1,57.32 48.5,0 119.1,-88.19 119.1,-171.97 v -13.22 c -35.3,-335.12 -110.3,-1190.56 -604.1,-1190.56 -405.7,0 -670.2,449.79 -670.2,1111.19"
         style="fill:#264893;fill-opacity:1;fill-rule:nonzero;stroke:none"
         id="path212" />
      <path
         d="m 23512.8,2774.99 c 48.5,0 123.5,-88.19 123.5,-176.37 v -8.83 c -22,-427.71 -357.2,-1071.49 -912.7,-1084.69 h -8.8 c -321.9,0 -520.4,242.5 -520.4,529.12 0,79.36 48.6,127.86 75,127.86 13.2,0 22.1,-8.81 22.1,-30.87 0,-119.04 70.5,-326.29 216,-326.29 154.3,0 264.6,154.33 264.6,396.84 0,286.61 -194,564.4 -357.2,798.11 l -26.4,39.67 c -22.1,-335.11 -53,-551.17 -53,-551.17 0,0 0,-17.63 -22,-17.63 -52.9,8.82 -145.5,52.92 -145.5,110.23 v 8.82 c 0,0 35.3,260.16 57.3,709.9 -22,44.1 -30.9,79.37 -30.9,114.65 0,370.38 405.7,507.06 511.5,507.06 105.9,0 149.9,-44.09 149.9,-141.09 0,-22.05 -39.6,-123.46 -39.6,-255.73 0,-555.58 462.9,-674.63 462.9,-1336.04 0,-70.55 -8.8,-132.27 -22,-189.61 163.1,198.43 198.4,485.03 216.1,723.14 4.4,39.69 17.6,52.92 39.6,52.92"
         style="fill:#264893;fill-opacity:1;fill-rule:nonzero;stroke:none"
         id="path214" />
      <path
         d="M 3402.72,3242.1 3035.9,2378.16 2973.89,1528.2 h 850.44 l 165.6,93.28 479.65,-16.68 7.42,-227.1 h 891.28 l 64.18,227.1 h 672.9 c 0,0 -188.36,1658.65 -509.44,1880.47 C 4373.66,2654.73 3402.72,3242.1 3402.72,3242.1"
         style="fill:#ffffff;fill-opacity:1;fill-rule:nonzero;stroke:none"
         id="path216" />
      <path
         d="m 5612.24,2273.25 49.53,-632.21 h -236.14 z"
         style="fill:#4794d5;fill-opacity:1;fill-rule:nonzero;stroke:none"
         id="path218" />
      <path
         d="m 3276.24,3003.63 c 0,0 739.59,-441.61 1626.52,0 708.34,352.69 -1500.04,238.47 -1500.04,238.47 l -126.48,-238.47"
         style="fill:#4794d5;fill-opacity:1;fill-rule:nonzero;stroke:none"
         id="path220" />
      <path
         d="m 6111.39,1254.2 h -722.76 l 43.83,350.6 h 672.9 c 0,0 7.24,-236.5 6.03,-350.6"
         style="fill:#ea1e29;fill-opacity:1;fill-rule:nonzero;stroke:none"
         id="path222" />
      <path
         d="m 6111.39,1254.2 h -722.76 l 43.83,350.6 h 672.9 c 0,0 7.24,-236.5 6.03,-350.6 z"
         style="fill:none;stroke:#264893;stroke-width:226.509;stroke-linecap:round;stroke-linejoin:round;stroke-miterlimit:10;stroke-dasharray:none;stroke-opacity:1"
         id="path224" />
      <path
         d="m 5864.94,3398.43 c 0,0 500.75,661.83 1285.94,477.46 785.19,-184.38 990.37,281.43 990.37,281.43 0,0 -390.12,-1428.33 -1388.32,-1034.46 0,0 153.29,-128.63 294.79,-252.71 -299.85,-215.26 -571.78,-343.01 -1109.82,-19.31"
         style="fill:#4794d5;fill-opacity:1;fill-rule:nonzero;stroke:none"
         id="path226" />
      <path
         d="m 5845.34,3353.84 c 0,0 458.07,675.52 1102.23,524.26 644.16,-151.26 1030.51,9.31 1030.51,9.31 0,0 -447.36,-916.37 -1161.61,-492.96 v 0 c -124.34,89.11 -291.09,69.32 -372.46,-44.21 -81.36,-113.52 -46.52,-277.8 77.82,-366.91 v 0 c -188.27,-76.2 -438.92,20.88 -573.4,110.53"
         style="fill:#ffffff;fill-opacity:1;fill-rule:nonzero;stroke:none"
         id="path228" />
      <path
         d="m 3610.1,3146.06 c 0,0 78.53,202.23 -207.38,96.04 C 3116.82,3135.91 2932.5,1523.6 2932.5,1523.6 h 128.24 c 70.25,0 211.37,13.3 206.4,83.41 0,0 9.1,476.48 42.07,742.04 66.38,244.14 300.89,797.01 300.89,797.01"
         style="fill:#4794d5;fill-opacity:1;fill-rule:nonzero;stroke:none"
         id="path230" />
      <path
         d="m 7049.13,6955.91 c 0,-1539.72 -1227.17,-3952.28 -2740.95,-3952.28 -1513.78,0 -2740.94,2412.56 -2740.94,3952.28 0,1539.72 1227.16,2156.81 2740.94,2156.81 1513.78,0 2740.95,-617.09 2740.95,-2156.81"
         style="fill:#ffffff;fill-opacity:1;fill-rule:nonzero;stroke:none"
         id="path232" />
      <path
         d="m 7049.13,6955.91 c 0,-1539.72 -1227.17,-3952.28 -2740.95,-3952.28 -1513.78,0 -2740.94,2412.56 -2740.94,3952.28 0,1539.72 1227.16,2156.81 2740.94,2156.81 1513.78,0 2740.95,-617.09 2740.95,-2156.81 z"
         style="fill:none;stroke:#264893;stroke-width:226.509;stroke-linecap:round;stroke-linejoin:round;stroke-miterlimit:10;stroke-dasharray:none;stroke-opacity:1"
         id="path234" />
      <path
         d="m 1960.14,7212.65 c 0,0 -269.57,-43.01 -401.85,11.93 -178.08,73.97 111.11,296.35 111.11,296.35 l 290.74,-308.28"
         style="fill:#4794d5;fill-opacity:1;fill-rule:nonzero;stroke:none"
         id="path236" />
      <path
         d="m 4967.31,7500.13 c 0,-343.31 -225.71,-457.92 -651.38,-619.59 -481.65,0 -1454.88,276.28 -1454.88,619.59 0,343.31 1062.32,621.62 1543.97,621.62 481.65,0 562.29,-278.31 562.29,-621.62"
         style="fill:#4794d5;fill-opacity:1;fill-rule:nonzero;stroke:none"
         id="path238" />
      <path
         d="m 4722.02,4409.58 c 0,0 -149.82,623.31 319.39,833.63 -88.85,-239.87 -271.74,-760.55 -157.24,-944.42 114.51,-183.87 -162.15,110.79 -162.15,110.79"
         style="fill:#4794d5;fill-opacity:1;fill-rule:nonzero;stroke:none"
         id="path240" />
      <path
         d="m 7049.13,6955.91 c 0,-1539.72 -1227.17,-3952.28 -2740.95,-3952.28 -1513.78,0 -2740.94,2412.56 -2740.94,3952.28 0,1539.72 1227.16,2156.81 2740.94,2156.81 1513.78,0 2740.95,-617.09 2740.95,-2156.81 z"
         style="fill:none;stroke:#264893;stroke-width:226.509;stroke-linecap:round;stroke-linejoin:round;stroke-miterlimit:10;stroke-dasharray:none;stroke-opacity:1"
         id="path242" />
      <path
         d="m 3431.01,6417.21 c 0,0 153.09,-653.42 1176.93,-750.34 68.7,-6.5 109.18,77.73 72.31,136.04 -48.15,76.12 -201.71,199.75 -204.12,301.06 227.13,-26.37 595.9,-136.45 789.7,-31.61 59.23,32.05 55.71,118.46 -5.71,146.08 -125.77,56.59 -119.57,268.68 -177.57,376.8"
         style="fill:#4794d5;fill-opacity:1;fill-rule:nonzero;stroke:none"
         id="path244" />
      <path
         d="m 3461.43,6624.47 c 0,0 88.05,-719.04 1363.14,-626.2 -75.65,98.24 -156.19,203.19 -159.6,346.29 253,-29.37 572.66,-36.15 733.65,152.55 -150.26,26.44 -318.58,142.16 -388.52,272.58"
         style="fill:#ffffff;fill-opacity:1;fill-rule:nonzero;stroke:none"
         id="path246" />
      <path
         d="m 3461.43,6624.47 c 0,0 88.05,-719.04 1363.14,-626.2 -75.65,98.24 -156.19,203.19 -159.6,346.29 253,-29.37 572.66,-36.15 733.65,152.55 -150.26,26.44 -318.58,142.16 -388.52,272.58"
         style="fill:none;stroke:#264893;stroke-width:226.509;stroke-linecap:round;stroke-linejoin:round;stroke-miterlimit:10;stroke-dasharray:none;stroke-opacity:1"
         id="path248" />
      <path
         d="m 5154.93,7626.06 c 0,-223.83 -379.1,-636.2 -846.75,-636.2 -467.65,0 -846.75,412.37 -846.75,636.2 0,223.84 338.99,3077.24 806.63,3077.24 467.65,0 886.87,-2853.4 886.87,-3077.24"
         style="fill:#ffffff;fill-opacity:1;fill-rule:nonzero;stroke:none"
         id="path250" />
      <path
         d="m 5154.93,7626.06 c 0,-223.83 -379.1,-636.2 -846.75,-636.2 -467.65,0 -846.75,412.37 -846.75,636.2 0,223.84 338.99,3077.24 806.63,3077.24 467.65,0 886.87,-2853.4 886.87,-3077.24 z"
         style="fill:none;stroke:#264893;stroke-width:226.509;stroke-linecap:round;stroke-linejoin:round;stroke-miterlimit:10;stroke-dasharray:none;stroke-opacity:1"
         id="path252" />
      <path
         d="m 4817.01,3612.73 c 11.91,-60.28 -86.64,3.07 -188.79,-17.12 -102.14,-20.17 -169.2,-116.26 -181.11,-55.96 -11.91,60.28 49.44,185.22 151.59,205.41 102.13,20.18 206.39,-72.05 218.31,-132.33"
         style="fill:#264893;fill-opacity:1;fill-rule:nonzero;stroke:none"
         id="path254" />
      <path
         d="m 3808.52,3612.73 c -11.9,-60.28 86.65,3.07 188.79,-17.12 102.15,-20.17 169.2,-116.26 181.11,-55.96 11.91,60.28 -49.44,185.22 -151.58,205.41 -102.15,20.18 -206.41,-72.05 -218.32,-132.33"
         style="fill:#264893;fill-opacity:1;fill-rule:nonzero;stroke:none"
         id="path256" />
      <path
         d="m 2731.08,8551.69 c 0,0 -669.44,331.34 -1288.41,291.58 -219.64,-636.18 32.18,-1272.36 509.32,-1520.43"
         style="fill:#ffffff;fill-opacity:1;fill-rule:nonzero;stroke:none"
         id="path258" />
      <path
         d="m 2731.08,8551.69 c 0,0 -669.44,331.34 -1288.41,291.58 -219.64,-636.18 32.18,-1272.36 509.32,-1520.43"
         style="fill:none;stroke:#264893;stroke-width:226.509;stroke-linecap:round;stroke-linejoin:round;stroke-miterlimit:10;stroke-dasharray:none;stroke-opacity:1"
         id="path260" />
      <path
         d="m 1660.39,8418.63 c -15.16,-94.69 4.25,-491.34 357,-768.88 13.51,-10.63 32.62,2.79 27.28,19.13 -28.93,88.62 -39.89,143.34 -43.48,190.32 -1.3,17.06 17.58,27.81 31.77,18.25 32.32,-21.8 72.05,-37.18 149.04,-21.1 24.69,5.16 37.02,33.24 24.46,55.12 -13.35,23.26 -30.05,50.21 -35.45,85.76 -3.33,21.85 14.65,41.25 36.74,40.47 134.38,-4.8 239.42,-21.38 323.29,38.74"
         style="fill:#4794d5;fill-opacity:1;fill-rule:nonzero;stroke:none"
         id="path262" />
      <path
         d="m 2483.8,8160.97 c 0,0 -332.7,164.68 -729.76,232.19"
         style="fill:#ffffff;fill-opacity:1;fill-rule:nonzero;stroke:none"
         id="path264" />
      <path
         d="m 2483.8,8160.97 c 0,0 -332.7,164.68 -729.76,232.19"
         style="fill:none;stroke:#264893;stroke-width:226.509;stroke-linecap:round;stroke-linejoin:round;stroke-miterlimit:10;stroke-dasharray:none;stroke-opacity:1"
         id="path266" />
      <path
         d="m 5885.28,8551.69 c 0,0 669.44,331.34 1288.41,291.58 219.64,-636.18 -32.18,-1272.36 -509.32,-1520.43"
         style="fill:#ffffff;fill-opacity:1;fill-rule:nonzero;stroke:none"
         id="path268" />
      <path
         d="m 5885.28,8551.69 c 0,0 669.44,331.34 1288.41,291.58 219.64,-636.18 -32.18,-1272.36 -509.32,-1520.43"
         style="fill:none;stroke:#264893;stroke-width:226.509;stroke-linecap:round;stroke-linejoin:round;stroke-miterlimit:10;stroke-dasharray:none;stroke-opacity:1"
         id="path270" />
      <path
         d="m 6955.98,8418.63 c 15.15,-94.69 -4.27,-491.34 -357.01,-768.88 -13.52,-10.63 -32.62,2.79 -27.29,19.13 28.94,88.62 39.9,143.34 43.49,190.32 1.3,17.06 -17.59,27.81 -31.78,18.25 -32.31,-21.8 -72.04,-37.18 -149.03,-21.1 -24.7,5.16 -37.02,33.24 -24.46,55.12 13.35,23.26 30.05,50.21 35.45,85.76 3.33,21.85 -14.65,41.25 -36.74,40.47 -134.39,-4.8 -239.43,-21.38 -323.29,38.74"
         style="fill:#4794d5;fill-opacity:1;fill-rule:nonzero;stroke:none"
         id="path272" />
      <path
         d="m 6132.55,8160.97 c 0,0 332.71,164.68 729.77,232.19"
         style="fill:#ffffff;fill-opacity:1;fill-rule:nonzero;stroke:none"
         id="path274" />
      <path
         d="m 6132.55,8160.97 c 0,0 332.71,164.68 729.77,232.19"
         style="fill:none;stroke:#264893;stroke-width:226.509;stroke-linecap:round;stroke-linejoin:round;stroke-miterlimit:10;stroke-dasharray:none;stroke-opacity:1"
         id="path276" />
      <path
         d="M 6550.49,4616.81 C 6262.12,3992.92 5694.3,3641.54 5282.23,3832 c -412.07,190.47 -512.34,850.64 -223.97,1474.54 288.38,623.91 856.2,975.27 1268.27,784.81 412.07,-190.45 512.34,-850.63 223.96,-1474.54"
         style="fill:#ffffff;fill-opacity:1;fill-rule:nonzero;stroke:none"
         id="path278" />
      <path
         d="M 6550.49,4616.81 C 6262.12,3992.92 5694.3,3641.54 5282.23,3832 c -412.07,190.47 -512.34,850.64 -223.97,1474.54 288.38,623.91 856.2,975.27 1268.27,784.81 412.07,-190.45 512.34,-850.63 223.96,-1474.54 z"
         style="fill:none;stroke:#264893;stroke-width:226.509;stroke-linecap:round;stroke-linejoin:round;stroke-miterlimit:10;stroke-dasharray:none;stroke-opacity:1"
         id="path280" />
      <path
         d="m 5970.98,4962.96 c 0,-269.82 -218.73,-488.55 -488.54,-488.55 -269.82,0 -488.55,218.73 -488.55,488.55 0,269.81 218.73,488.54 488.55,488.54 269.81,0 488.54,-218.73 488.54,-488.54"
         style="fill:#264893;fill-opacity:1;fill-rule:nonzero;stroke:none"
         id="path282" />
      <path
         d="m 2065.86,4616.81 c 288.37,-623.89 856.2,-975.27 1268.27,-784.81 412.07,190.47 512.34,850.64 223.97,1474.54 -288.38,623.91 -856.2,975.27 -1268.27,784.81 -412.07,-190.45 -512.34,-850.63 -223.97,-1474.54"
         style="fill:#ffffff;fill-opacity:1;fill-rule:nonzero;stroke:none"
         id="path284" />
      <path
         d="m 2065.86,4616.81 c 288.37,-623.89 856.2,-975.27 1268.27,-784.81 412.07,190.47 512.34,850.64 223.97,1474.54 -288.38,623.91 -856.2,975.27 -1268.27,784.81 -412.07,-190.45 -512.34,-850.63 -223.97,-1474.54 z"
         style="fill:none;stroke:#264893;stroke-width:226.509;stroke-linecap:round;stroke-linejoin:round;stroke-miterlimit:10;stroke-dasharray:none;stroke-opacity:1"
         id="path286" />
      <path
         d="m 2065.86,4616.81 c 288.37,-623.89 856.2,-975.27 1268.27,-784.81 412.07,190.47 512.34,850.64 223.97,1474.54 -288.38,623.91 -856.2,975.27 -1268.27,784.81 -412.07,-190.45 -512.34,-850.63 -223.97,-1474.54"
         style="fill:#ffffff;fill-opacity:1;fill-rule:nonzero;stroke:none"
         id="path288" />
      <path
         d="m 2065.86,4616.81 c 288.37,-623.89 856.2,-975.27 1268.27,-784.81 412.07,190.47 512.34,850.64 223.97,1474.54 -288.38,623.91 -856.2,975.27 -1268.27,784.81 -412.07,-190.45 -512.34,-850.63 -223.97,-1474.54 z"
         style="fill:none;stroke:#264893;stroke-width:226.509;stroke-linecap:round;stroke-linejoin:round;stroke-miterlimit:10;stroke-dasharray:none;stroke-opacity:1"
         id="path290" />
      <path
         d="m 2645.38,4962.96 c 0,-269.82 218.73,-488.55 488.54,-488.55 269.82,0 488.55,218.73 488.55,488.55 0,269.81 -218.73,488.54 -488.55,488.54 -269.81,0 -488.54,-218.73 -488.54,-488.54"
         style="fill:#264893;fill-opacity:1;fill-rule:nonzero;stroke:none"
         id="path292" />
      <path
         d="m 3624.78,4962.96 c 0,-269.82 -218.73,-488.55 -488.54,-488.55 -269.82,0 -488.55,218.73 -488.55,488.55 0,269.81 218.73,488.54 488.55,488.54 269.81,0 488.54,-218.73 488.54,-488.54"
         style="fill:#264893;fill-opacity:1;fill-rule:nonzero;stroke:none"
         id="path294" />
      <path
         d="m 3621.85,5220.37 c 0,-157.25 -127.47,-284.72 -284.72,-284.72 -157.24,0 -284.71,127.47 -284.71,284.72 0,157.24 127.47,284.71 284.71,284.71 157.25,0 284.72,-127.47 284.72,-284.71"
         style="fill:#ffffff;fill-opacity:1;fill-rule:nonzero;stroke:none"
         id="path296" />
      <path
         d="m 3716.26,3875 c -146.24,-182.33 -130.52,-446.78 38.58,-608.13 119.07,-113.61 379.88,-180.84 513.4,-192.46 0,0 -973.89,64.18 -1301.85,544.4 140.56,146.4 509.5,345.52 620.77,486.07 111.27,140.56 343.4,413.13 498.55,276.6"
         style="fill:#4794d5;fill-opacity:1;fill-rule:nonzero;stroke:none"
         id="path298" />
      <path
         d="m 3930.98,4417.56 c 0,0 186.05,1059.62 -621.77,1363.06 173.79,-392.54 534.32,-1245.61 361.67,-1565.52 -172.64,-319.91 260.1,202.46 260.1,202.46"
         style="fill:#4794d5;fill-opacity:1;fill-rule:nonzero;stroke:none"
         id="path300" />
      <path
         d="m 3491.68,3941.19 394.37,392.82 c 232.17,232.17 612.09,232.17 844.26,0 l 403.54,-401.37"
         style="fill:none;stroke:#264893;stroke-width:226.509;stroke-linecap:round;stroke-linejoin:round;stroke-miterlimit:10;stroke-dasharray:none;stroke-opacity:1"
         id="path302" />
      <path
         d="m 4307.73,3003.63 c -551.81,0 -1065.53,320.58 -1495.61,802.59"
         style="fill:none;stroke:#264893;stroke-width:226.509;stroke-linecap:round;stroke-linejoin:round;stroke-miterlimit:10;stroke-dasharray:none;stroke-opacity:1"
         id="path304" />
      <path
         d="m 2065.86,4616.81 c 288.37,-623.89 856.2,-975.27 1268.27,-784.81 412.07,190.47 512.34,850.64 223.97,1474.54 -288.38,623.91 -856.2,975.27 -1268.27,784.81 -412.07,-190.45 -512.34,-850.63 -223.97,-1474.54 z"
         style="fill:none;stroke:#264893;stroke-width:226.509;stroke-linecap:round;stroke-linejoin:round;stroke-miterlimit:10;stroke-dasharray:none;stroke-opacity:1"
         id="path306" />
      <path
         d="m 5864.94,3398.43 c 0,0 500.75,661.83 1285.94,477.46 785.19,-184.38 990.37,281.43 990.37,281.43 0,0 -390.12,-1428.33 -1388.32,-1034.46 0,0 153.29,-128.63 294.79,-252.71 -267.04,-191.7 -577.89,-274.04 -1024.8,-60.5"
         style="fill:none;stroke:#264893;stroke-width:226.509;stroke-linecap:round;stroke-linejoin:round;stroke-miterlimit:10;stroke-dasharray:none;stroke-opacity:1"
         id="path308" />
      <path
         d="m 3901.46,1062.2 h -927.57 v 384 h 927.57 v -384"
         style="fill:#ea1e29;fill-opacity:1;fill-rule:nonzero;stroke:none"
         id="path310" />
      <path
         d="m 5339,890 h -927.58 v 384 H 5339 V 890"
         style="fill:#ea1e29;fill-opacity:1;fill-rule:nonzero;stroke:none"
         id="path312" />
      <path
         d="M 4859.67,953.398 V 1110.2"
         style="fill:none;stroke:#264893;stroke-width:226.509;stroke-linecap:round;stroke-linejoin:round;stroke-miterlimit:10;stroke-dasharray:none;stroke-opacity:1"
         id="path314" />
      <path
         d="m 2989.84,1487.8 c 0,0 128.31,0.7 226.84,5.5 31.24,1.6 53.61,-40.3 41.78,-78.9 -45.73,-149 -6.3,-269.7 -41.17,-316.2 -41.27,-54.9 -272.46,29.9 -272.46,29.9 l 45.01,359.7"
         style="fill:#a61c27;fill-opacity:1;fill-rule:nonzero;stroke:none"
         id="path316" />
      <path
         d="m 4397.71,1299.7 c 0,0 127.21,16.8 224.35,34 30.8,5.5 58.25,-33.3 51.36,-73 -26.66,-153.6 27.61,-268.399 -1.16,-318.899 -34.03,-59.699 -274.05,-4.5 -274.05,-4.5 l -0.5,362.399"
         style="fill:#a61c27;fill-opacity:1;fill-rule:nonzero;stroke:none"
         id="path318" />
      <path
         d="m 3884.92,7769.34 c 0,0 474.66,-399.32 799.25,-311.61 196.29,53.06 -11.06,-369.2 -771.84,-263.05 -792,110.52 -381.55,918.63 -381.55,918.63 l 354.14,-343.97"
         style="fill:#ea1e29;fill-opacity:1;fill-rule:nonzero;stroke:none"
         id="path320" />
      <path
         d="m 3988.79,8596.69 c 54.4,-128.58 468.39,-323.36 756.3,-306.9 39.12,2.24 75.38,-21.38 86.95,-58.82 68.9,-223.12 71.09,-479.75 13.37,-582.85 -55.33,-98.79 -1319.96,133.73 -1325.28,666.3 -5.32,532.57 207.71,543.22 207.71,543.22 l 260.95,-260.95"
         style="fill:#ea1e29;fill-opacity:1;fill-rule:nonzero;stroke:none"
         id="path322" />
      <path
         d="m 3997.2,9487.06 c 42.65,-122.72 366.34,-317.89 584.19,-337.55 52.44,-4.74 96.94,-40.26 113.8,-90.15 56.37,-166.79 73.51,-346.86 100.39,-508.16 16.82,-100.88 -1178.98,121.03 -1183.36,653.6 -4.37,532.56 170.62,543.21 170.62,543.21 l 214.36,-260.95"
         style="fill:#ea1e29;fill-opacity:1;fill-rule:nonzero;stroke:none"
         id="path324" />
      <path
         d="m 3645.19,9007.6 c 27.46,-204.88 817.1,-697.88 1371.95,-419.9"
         style="fill:none;stroke:#264893;stroke-width:226.509;stroke-linecap:round;stroke-linejoin:round;stroke-miterlimit:10;stroke-dasharray:none;stroke-opacity:1"
         id="path326" />
      <path
         d="M 5143.87,7752.23 C 4490.2,7424.74 3559.92,8005.54 3527.57,8246.92"
         style="fill:none;stroke:#264893;stroke-width:226.509;stroke-linecap:round;stroke-linejoin:round;stroke-miterlimit:10;stroke-dasharray:none;stroke-opacity:1"
         id="path328" />
      <path
         d="m 4582.06,9647.57 c 11.67,-48.57 -17.31,-97.84 -65.53,-110.89 -53.8,-14.58 -131.52,-47.44 -273.61,-50.82 -321.75,-7.67 -451.99,383.03 -451.99,383.03 0,0 125.71,750.31 408.13,742.71 95.84,-2.6 310.47,-661.93 383,-964.03"
         style="fill:#ea1e29;fill-opacity:1;fill-rule:nonzero;stroke:none"
         id="path330" />
      <path
         d="m 5154.93,7626.06 c 0,-223.83 -379.1,-636.2 -846.75,-636.2 -467.65,0 -846.75,412.37 -846.75,636.2 0,223.84 338.99,3077.24 806.63,3077.24 467.65,0 886.87,-2853.4 886.87,-3077.24 z"
         style="fill:none;stroke:#264893;stroke-width:226.509;stroke-linecap:round;stroke-linejoin:round;stroke-miterlimit:10;stroke-dasharray:none;stroke-opacity:1"
         id="path332" />
      <path
         d="m 3796.2,9744.02 c 21.03,-156.94 625.92,-534.6 1050.95,-321.65"
         style="fill:none;stroke:#264893;stroke-width:226.509;stroke-linecap:round;stroke-linejoin:round;stroke-miterlimit:10;stroke-dasharray:none;stroke-opacity:1"
         id="path334" />
      <path
         d="m 5968.05,5220.37 c 0,-157.25 -127.47,-284.72 -284.72,-284.72 -157.24,0 -284.71,127.47 -284.71,284.72 0,157.24 127.47,284.71 284.71,284.71 157.25,0 284.72,-127.47 284.72,-284.71"
         style="fill:#ffffff;fill-opacity:1;fill-rule:nonzero;stroke:none"
         id="path336" />
      <path
         d="m 4312.77,2611.07 9.95,24.27 c 99.48,19.15 245.37,-46.99 285.3,-140.11 l 127.26,-371.04 c 17.2,-50.14 19.53,-104.18 6.72,-155.62 l -147.25,-590.87 -55.42,673.51 -226.56,559.86"
         style="fill:#4794d5;fill-opacity:1;fill-rule:nonzero;stroke:none"
         id="path338" />
      <path
         d="m 3415.89,1079.7 v 139.2"
         style="fill:none;stroke:#264893;stroke-width:226.509;stroke-linecap:round;stroke-linejoin:round;stroke-miterlimit:10;stroke-dasharray:none;stroke-opacity:1"
         id="path340" />
      <path
         d="M 3824.33,1528.2 H 2973.89"
         style="fill:none;stroke:#264893;stroke-width:226.509;stroke-linecap:round;stroke-linejoin:round;stroke-miterlimit:10;stroke-dasharray:none;stroke-opacity:1"
         id="path342" />
      <path
         d="M 5284.58,1377.7 H 4477"
         style="fill:#ffffff;fill-opacity:1;fill-rule:nonzero;stroke:none"
         id="path344" />
      <path
         d="M 5284.58,1377.7 H 4477"
         style="fill:none;stroke:#264893;stroke-width:226.509;stroke-linecap:round;stroke-linejoin:round;stroke-miterlimit:10;stroke-dasharray:none;stroke-opacity:1"
         id="path346" />
      <path
         d="m 4383.79,2466.25 c 104.13,-104.12 285.14,-391.67 210.5,-466.32 -74.65,-74.65 -311.22,-7.29 -415.35,96.83 -104.12,104.13 -137.43,244.43 -62.79,319.08 153.42,-63.4 163.51,154.54 267.64,50.41"
         style="fill:#4794d5;fill-opacity:1;fill-rule:nonzero;stroke:none"
         id="path348" />
      <path
         d="m 3379.9,3295.18 -344,-917.02 -87.43,-1315.96 h 865.56 l 18.63,842.18 197.44,443.32"
         style="fill:none;stroke:#264893;stroke-width:226.509;stroke-linecap:round;stroke-linejoin:round;stroke-miterlimit:10;stroke-dasharray:none;stroke-opacity:1"
         id="path350" />
      <path
         d="M 4469.58,1254.2 H 3884.5 v 350.6 h 585.08 v -350.6"
         style="fill:#ea1e29;fill-opacity:1;fill-rule:nonzero;stroke:none"
         id="path352" />
      <path
         d="M 4469.58,1254.2 H 3884.5 v 350.6 h 585.08 z"
         style="fill:none;stroke:#264893;stroke-width:226.509;stroke-linecap:round;stroke-linejoin:round;stroke-miterlimit:10;stroke-dasharray:none;stroke-opacity:1"
         id="path354" />
      <path
         d="M 5504.85,2269.42 5303.3,953.398 h -865.56 l 101.59,1097.812 -208.5,477.4"
         style="fill:none;stroke:#264893;stroke-width:226.509;stroke-linecap:round;stroke-linejoin:round;stroke-miterlimit:10;stroke-dasharray:none;stroke-opacity:1"
         id="path356" />
      <path
         d="m 5566.08,3564.8 c 0,0 545.31,-461.61 545.31,-2310.6 h -614.03"
         style="fill:none;stroke:#264893;stroke-width:226.509;stroke-linecap:round;stroke-linejoin:round;stroke-miterlimit:10;stroke-dasharray:none;stroke-opacity:1"
         id="path358" />
      <path
         d="m 4147.45,1309.1 v 25.2"
         style="fill:none;stroke:#264893;stroke-width:226.509;stroke-linecap:round;stroke-linejoin:round;stroke-miterlimit:10;stroke-dasharray:none;stroke-opacity:1"
         id="path360" />
      <path
         d="m 5750.08,1309.1 v 25.2"
         style="fill:none;stroke:#264893;stroke-width:226.509;stroke-linecap:round;stroke-linejoin:round;stroke-miterlimit:10;stroke-dasharray:none;stroke-opacity:1"
         id="path362" />
    </g>
  </g>
</svg>
