<svg xmlns="http://www.w3.org/2000/svg" role="img" viewBox="-7.92 -7.92 411.84 259.59"><defs><style>.a{fill:#036}</style></defs><path d="M145.383 154.064h13.755v11.581l.25-.351a23.842 23.842 0 0 1 8.479-8.417 22.6 22.6 0 0 1 11.6-3.056q10.6 0 16.712 5.487t6.111 16.463v44.14H187.8v-40.4q-.252-7.6-3.242-11.036c-2-2.286-5.331-3.431-9.082-3.431a15.451 15.451 0 0 0-6.485 1.31 14.041 14.041 0 0 0-4.864 3.618 16.975 16.975 0 0 0-3.118 5.424 19.355 19.355 0 0 0-1.123 6.61v37.905h-14.5zm77.439 44.325q.6 6.07 4.613 8.5a18.126 18.126 0 0 0 9.589 2.429 36.882 36.882 0 0 0 4.429-.3 19.206 19.206 0 0 0 4.674-1.154 8.8 8.8 0 0 0 3.581-2.488 6 6 0 0 0 1.275-4.31 6.118 6.118 0 0 0-1.943-4.369 13.492 13.492 0 0 0-4.674-2.732 45.708 45.708 0 0 0-6.493-1.759q-3.64-.729-7.4-1.578a68.684 68.684 0 0 1-7.473-2.071 23.955 23.955 0 0 1-6.434-3.277 15.1 15.1 0 0 1-4.55-5.28 16.826 16.826 0 0 1-1.7-7.95 14.26 14.26 0 0 1 2.489-8.557 19.039 19.039 0 0 1 6.311-5.585 27.491 27.491 0 0 1 8.5-2.973 49.941 49.941 0 0 1 8.922-.85 40.934 40.934 0 0 1 9.285 1.032 25.319 25.319 0 0 1 8.011 3.337 19.645 19.645 0 0 1 5.947 6.009 20.828 20.828 0 0 1 2.975 8.922h-14.445q-.971-4.977-4.551-6.677a18.928 18.928 0 0 0-8.194-1.7 29.5 29.5 0 0 0-3.459.243 16.087 16.087 0 0 0-3.762.91 7.9 7.9 0 0 0-2.974 1.943 4.63 4.63 0 0 0-1.214 3.337 5.279 5.279 0 0 0 1.76 4.128 13.855 13.855 0 0 0 4.612 2.609 45.129 45.129 0 0 0 6.5 1.761q3.64.726 7.525 1.578 3.761.849 7.4 2.062a23.953 23.953 0 0 1 6.493 3.277 15.975 15.975 0 0 1 4.613 5.22 15.766 15.766 0 0 1 1.761 7.769 16.882 16.882 0 0 1-2.55 9.468 20.157 20.157 0 0 1-6.615 6.311 30.078 30.078 0 0 1-9.043 3.521 45.843 45.843 0 0 1-9.831 1.092A42.836 42.836 0 0 1 225.8 218.9a25.6 25.6 0 0 1-8.739-4.067 19.582 19.582 0 0 1-5.825-6.8 21.537 21.537 0 0 1-2.246-9.65zm49.609 21.522h14.488v-65.847l-14.488-5.273v71.12zM380.8 154.064l-17.582 46.37-16.87-46.37h-26.556v-6.724q0-4.068 2.1-5.468a8.839 8.839 0 0 1 5.023-1.4 32.084 32.084 0 0 1 3.754.19 23.079 23.079 0 0 1 3.037.572v-11.32a42.281 42.281 0 0 0-10.224-.89 32.237 32.237 0 0 0-6.806.7 13.392 13.392 0 0 0-5.787 2.8 14.344 14.344 0 0 0-4.07 5.977 28.039 28.039 0 0 0-1.526 10.114v5.45h-10.814V164.9h10.813v55.016h14.5V164.9h15.929l20.1 55.135s-1.926 5.446-2.436 6.55a11.5 11.5 0 0 1-1.843 2.861 7 7 0 0 1-2.735 1.845 11.824 11.824 0 0 1-4.2.635 18.208 18.208 0 0 1-3.435-.317q-1.656-.32-3.434-.573v12.212a59.318 59.318 0 0 0 9.518.762 21.058 21.058 0 0 0 9.413-1.843 18.181 18.181 0 0 0 6.169-4.961 30.5 30.5 0 0 0 4.2-7.187q1.719-4.072 3.5-8.522l25.562-67.433zM73.442 173.678q0 22.467-12.473 34.349t-35.932 11.884H0v-90.728h27.706q21.656 0 33.7 11.667t12.036 32.828zm-14.72.5q0-32.58-30.471-32.58H14.488v65.842h11.467q32.766-.003 32.767-33.265zm78.139 2.909a33.2 33.2 0 0 0-5.644-11.714 29.173 29.173 0 0 0-9.771-8.192 28.123 28.123 0 0 0-13.291-3.1A28.474 28.474 0 0 0 86 163.977a32.412 32.412 0 0 0-6.071 10.561 37.753 37.753 0 0 0-2.124 12.684 42.423 42.423 0 0 0 2 13.353 28.824 28.824 0 0 0 5.949 10.438 27.033 27.033 0 0 0 9.649 6.8 33.231 33.231 0 0 0 13.11 2.429 33.948 33.948 0 0 0 9.77-1.4 27.722 27.722 0 0 0 8.436-4.126 26.01 26.01 0 0 0 10.195-15.84h-13.101a15.432 15.432 0 0 1-5.523 7.829q-3.705 2.611-9.77 2.61a17.186 17.186 0 0 1-7.527-1.519 14.9 14.9 0 0 1-5.219-4.066 17.32 17.32 0 0 1-3.1-5.947 24.123 24.123 0 0 1-1.032-7.04h46.126a35.982 35.982 0 0 0-.907-13.656zM96.442 169.8a15.109 15.109 0 0 1 5.1-3.52 16.628 16.628 0 0 1 6.615-1.275 14.346 14.346 0 0 1 6.372 1.4 15.656 15.656 0 0 1 4.855 3.642 16.848 16.848 0 0 1 3.156 5.28 22.186 22.186 0 0 1 1.145 4.593h-31.9a18 18 0 0 1 1.265-4.836 17.405 17.405 0 0 1 3.392-5.284zm190.477-33.898l-14.488-5.273v-18.168l14.488 5.273v18.168z" class="a"/><path fill="#e5e522" d="M238.606 93.764l-57.95-21.092V0l57.95 21.092v72.672z"/><path fill="#82d9d9" d="M224.119 135.902l-57.951-21.092V42.138l57.951 21.092v72.672z"/><path d="M195.143 98.122l-57.95-21.092V4.358l57.95 21.092v72.672z" class="a"/></svg>