<?xml version="1.0" encoding="utf-8"?>
<!-- Generator: Adobe Illustrator 25.4.1, SVG Export Plug-In . SVG Version: 6.00 Build 0)  -->
<svg version="1.1" id="Layer_1" xmlns="http://www.w3.org/2000/svg" xmlns:xlink="http://www.w3.org/1999/xlink" x="0px" y="0px"
	 viewBox="0 0 612 142.9" style="enable-background:new 0 0 612 142.9;" xml:space="preserve">
<style type="text/css">
	.st0{fill:none;}
	.st1{fill:#231F20;}
	.st2{fill:#ED1C24;}
</style>
<g>
	<polygon class="st0" points="86,46 86,17.5 15.2,17.5 15.2,51.8 24.7,41 25.6,41.8 29.2,37.7 43.9,50.7 30.2,66.2 26,62.4 
		25.4,63.1 15.2,54.1 15.2,88.3 38.5,88.3 44.1,88.3 44.1,84.9 47.8,84.9 47.8,50.4 81.5,50.4 81.5,46 	"/>
	<polygon class="st0" points="57.1,88.3 61.9,88.3 86,88.3 86,59.5 81.5,59.5 81.5,56 53.4,56 53.4,84.9 57.1,84.9 	"/>
	<polygon class="st0" points="91.6,59.5 91.6,94 61.9,94 57.1,94 57.1,98.4 53.4,98.4 53.4,127.4 124.2,127.4 124.2,94.4 
		113.8,104.8 113.3,104.3 109.4,108.2 95.5,94.3 110.1,79.7 113.8,83.4 114.5,82.8 124.2,92.6 124.2,56 94.5,56 94.5,59.5 	"/>
	<path class="st0" d="M241.1,59.2c-1.5,0-3,0.2-4.4,0.8c-1.2,0.5-2.3,1.2-3.3,2.1c-0.9,0.8-1.6,1.8-2.1,2.9
		c-0.5,1.1-0.8,2.3-0.9,3.5h19.9c0.1-2.4-0.8-4.8-2.5-6.5C246.1,60.1,243.7,59.1,241.1,59.2z"/>
	<path class="st0" d="M353.1,65.3c-1.1-1.1-2.4-2-3.9-2.7c-1.5-0.7-3.1-1-4.7-1c-1.6,0-3.3,0.3-4.8,1c-1.4,0.7-2.7,1.6-3.8,2.7
		c-2.2,2.2-3.5,5.3-3.5,8.4c0,3.2,1.2,6.2,3.5,8.4c1.1,1.1,2.4,2,3.8,2.7c1.5,0.7,3.1,1,4.8,1c1.6,0,3.2-0.3,4.7-1
		c1.4-0.6,2.8-1.6,3.9-2.7C357.7,77.4,357.7,69.9,353.1,65.3C353.1,65.3,353.1,65.3,353.1,65.3z"/>
	<path class="st0" d="M194.6,53.1c-1.2-2.5-3.1-4.7-5.3-6.4c-2.3-1.7-5-3-7.8-3.8c-3.1-0.8-6.2-1.3-9.4-1.3h-9.3v42.3h8.2
		c3.4,0,6.8-0.3,10.1-1.1c2.9-0.6,5.7-1.9,8.1-3.7c2.3-1.8,4.2-4.1,5.4-6.7c1.4-3.2,2.1-6.7,2-10.2C196.6,59,195.9,55.9,194.6,53.1z
		"/>
	<polygon class="st1" points="113.8,83.4 110.1,79.7 95.5,94.3 109.4,108.2 113.3,104.3 103.1,94.2 	"/>
	<polygon class="st1" points="26,62.4 30.2,66.2 43.9,50.7 29.2,37.7 25.6,41.8 36.1,51.1 	"/>
	<polygon class="st2" points="91.6,50.4 86,50.4 81.5,50.4 47.8,50.4 47.8,84.9 53.4,84.9 53.4,56 81.5,56 86,56 91.6,56 94.5,56 
		124.2,56 124.2,92.6 124.2,94.4 124.2,127.4 53.4,127.4 53.4,98.4 47.8,98.4 47.8,133 129.9,133 129.9,50.4 94.5,50.4 	"/>
	<polygon class="st2" points="53.4,94 57.1,94 61.9,94 91.6,94 91.6,59.5 86,59.5 86,88.3 61.9,88.3 57.1,88.3 53.4,88.3 47.8,88.3 
		44.1,88.3 38.5,88.3 15.2,88.3 15.2,54.1 15.2,51.8 15.2,17.5 86,17.5 86,46 91.6,46 91.6,11.9 9.6,11.9 9.6,94 38.5,94 44.1,94 
		47.8,94 	"/>
	<path class="st1" d="M200.4,35.3c-4-2.9-8.6-5-13.4-6.2c-5.3-1.3-10.8-1.9-16.3-1.9h-23.5v71.2h25.7c5.2,0,10.3-0.8,15.2-2.3
		c4.6-1.4,9-3.7,12.8-6.8c3.7-3,6.7-6.8,8.8-11.1c2.3-4.8,3.4-10,3.3-15.2c0-6.5-1.1-12-3.4-16.6C207.4,42,204.3,38.2,200.4,35.3z
		 M194.6,72.4c-1.2,2.7-3.1,5-5.4,6.7c-2.4,1.8-5.2,3-8.1,3.7c-3.3,0.8-6.7,1.1-10.1,1.1h-8.2V41.7h9.3c3.2,0,6.3,0.4,9.4,1.3
		c2.8,0.8,5.5,2,7.8,3.8c2.2,1.7,4,3.9,5.3,6.4c1.4,2.8,2,6,2,9.1C196.6,65.7,196,69.2,194.6,72.4z"/>
	<path class="st1" d="M259.3,55.3c-2-2.3-4.5-4-7.2-5.2c-3-1.2-6.3-1.9-9.5-1.8c-3.6,0-7.2,0.6-10.6,1.8c-3.2,1.1-6.1,2.9-8.7,5.2
		c-2.5,2.3-4.4,5-5.8,8.1c-2.8,6.8-2.8,14.4,0,21.1c1.3,3.1,3.3,5.8,5.8,8.1c2.5,2.3,5.5,4,8.7,5.2c3.4,1.2,7,1.8,10.6,1.8
		c4,0,7.9-0.9,11.5-2.5c3.6-1.6,6.7-4.1,9.2-7.1l-10.6-7.7c-1.2,1.7-2.7,3.1-4.5,4.3c-1.9,1.2-4.1,1.7-6.3,1.7
		c-2.7,0.1-5.4-0.8-7.4-2.6c-2.1-1.8-3.4-4.2-3.9-6.9h35V74c0-3.6-0.5-7.2-1.6-10.6C262.9,60.4,261.3,57.7,259.3,55.3z M230.5,68.4
		c0.1-1.2,0.4-2.4,0.9-3.5c0.5-1.1,1.2-2.1,2.1-2.9c1-0.9,2.1-1.6,3.3-2.1c1.4-0.6,2.9-0.8,4.4-0.8c2.5-0.1,5,0.9,6.7,2.7
		c1.7,1.7,2.6,4.1,2.5,6.5H230.5z"/>
	<polygon class="st1" points="303.1,49.5 291.6,82.7 291.4,82.7 279.1,49.5 262.8,49.5 283,98.4 299,98.4 318.3,49.5 	"/>
	<path class="st1" d="M356.5,49.5V56h-0.2c-0.7-1-1.5-1.9-2.4-2.7c-1.1-1-2.3-1.8-3.6-2.5c-3.3-1.7-7-2.6-10.7-2.5
		c-3.2-0.1-6.5,0.7-9.4,2.2c-2.7,1.4-5.1,3.3-7,5.7c-2,2.4-3.5,5.2-4.4,8.2c-1,3-1.6,6.2-1.6,9.5c0,3.5,0.5,6.9,1.7,10.2
		c1.1,3,2.7,5.7,4.9,8c2.1,2.3,4.7,4,7.6,5.2c3.1,1.3,6.5,1.9,9.9,1.9c2.5,0,5-0.5,7.3-1.5c2.6-1,4.9-2.7,6.5-5h0.2v4.7
		c0.1,3.2-1.1,6.3-3.3,8.6c-2.2,2.2-5.6,3.4-10.2,3.4c-2.9,0-5.8-0.5-8.5-1.7c-2.7-1.2-5.2-2.8-7.4-4.6l-8.4,12.5
		c3.4,2.7,7.4,4.7,11.7,5.7c4.2,1,8.5,1.5,12.9,1.5c9.5,0,16.6-2.4,21.3-7.2c4.7-4.8,7-11.8,7-21.1l0-44.8H356.5z M353.1,82.1
		c-1.1,1.1-2.4,2-3.9,2.7c-1.5,0.7-3.1,1-4.7,1c-1.6,0-3.3-0.3-4.8-1c-1.4-0.7-2.7-1.6-3.8-2.7c-2.2-2.2-3.5-5.3-3.5-8.4
		c0-3.2,1.2-6.2,3.5-8.4c1.1-1.1,2.4-2,3.8-2.7c1.5-0.7,3.1-1,4.8-1c1.6,0,3.2,0.3,4.7,1c1.4,0.6,2.8,1.6,3.9,2.7c0,0,0,0,0,0
		C357.7,69.9,357.7,77.4,353.1,82.1z"/>
	<path class="st1" d="M387.5,25.4c-4.8,0-8.8,3.9-8.8,8.8c0,2.3,0.9,4.5,2.6,6.2c3.4,3.4,9,3.4,12.4,0c1.6-1.6,2.6-3.9,2.6-6.2
		C396.3,29.3,392.4,25.4,387.5,25.4z"/>
	<rect x="380" y="49.5" class="st1" width="15.1" height="48.9"/>
	<path class="st1" d="M440.2,76.1c-1.2-1.8-2.8-3.3-4.7-4.4c-1.9-1.1-4-1.9-6.1-2.4c-2.2-0.5-4.2-1-6.1-1.4
		c-1.6-0.3-3.2-0.8-4.7-1.5c-1.1-0.4-1.9-1.5-1.9-2.7c-0.1-1.3,0.6-2.6,1.8-3.1c1.2-0.6,2.4-0.9,3.7-0.9c3.4-0.1,6.7,1.4,8.8,4.1
		l9.3-9.2c-2.3-2.4-5.2-4.1-8.4-5c-3.2-0.9-6.5-1.4-9.8-1.4c-2.5,0-5.1,0.3-7.5,1c-2.4,0.6-4.6,1.6-6.6,3c-1.9,1.3-3.5,3.1-4.6,5.1
		c-1.2,2.3-1.8,4.9-1.8,7.4c-0.1,2.6,0.5,5.2,1.9,7.4c1.2,1.8,2.8,3.3,4.7,4.3c1.9,1,4,1.8,6.1,2.3c2.2,0.5,4.2,1,6.1,1.4
		c1.6,0.3,3.2,0.9,4.7,1.6c1.1,0.5,1.9,1.6,1.9,2.9c0,1.3-0.8,2.5-2.1,2.8c-1.5,0.5-3.1,0.8-4.7,0.8c-2.1,0-4.1-0.4-6-1.4
		c-1.8-1-3.4-2.3-4.7-4L400.3,93c2.4,2.5,5.5,4.3,8.9,5.2c3.4,1,6.9,1.4,10.4,1.5c2.7,0,5.3-0.3,8-0.8c2.5-0.5,5-1.3,7.2-2.6
		c2.1-1.2,3.9-2.9,5.3-4.9c1.5-2.3,2.2-5.1,2.1-7.8C442.2,80.9,441.6,78.4,440.2,76.1z"/>
	<path class="st1" d="M481.6,61.6l0-12.1h-13.3V35h-15.1v14.5h-9.7v12.1h9.7v23.2c-0.1,2.4,0.4,4.7,1.4,6.8c0.9,1.8,2.2,3.4,3.8,4.6
		c1.7,1.2,3.6,2.1,5.6,2.6c2.3,0.6,4.7,0.8,7,0.8c1.8,0,3.6-0.1,5.3-0.3c1.8-0.2,3.5-0.6,5.2-1.2V85.5c-0.8,0.7-1.9,1.1-3,1.2
		c-1.1,0.1-2.1,0.2-3.2,0.3c-1.3,0.1-2.6-0.2-3.9-0.7c-0.9-0.4-1.7-1-2.2-1.9c-0.5-0.9-0.8-1.9-0.9-2.9c-0.1-1.2-0.2-2.4-0.2-3.7
		V61.6H481.6z"/>
	<path class="st1" d="M497.5,25.4c-4.8,0-8.8,3.9-8.8,8.8c0,2.3,0.9,4.5,2.6,6.2c3.4,3.4,9,3.4,12.4,0c1.6-1.6,2.6-3.9,2.6-6.2
		C506.3,29.3,502.4,25.4,497.5,25.4z"/>
	<rect x="490" y="49.5" class="st1" width="15.1" height="48.9"/>
	<path class="st1" d="M538.9,61.6c1.5,0,3,0.4,4.3,1.1c1.2,0.6,2.3,1.5,3.1,2.7l10-10.5c-2.3-2.4-5.1-4.1-8.3-5.1
		c-2.9-0.9-6-1.4-9.1-1.5c-3.6,0-7.2,0.6-10.6,1.8c-3.2,1.1-6.1,2.9-8.7,5.2c-2.5,2.3-4.4,5-5.8,8.1c-2.8,6.8-2.8,14.4,0,21.1
		c1.3,3.1,3.3,5.8,5.8,8.1c2.5,2.3,5.5,4,8.7,5.2c3.4,1.2,7,1.8,10.6,1.8c3.1,0,6.2-0.5,9.1-1.5c3.2-1,6-2.7,8.3-5.1l-10-10.5
		c-0.9,1-2,1.9-3.1,2.6c-1.3,0.8-2.8,1.1-4.3,1.1c-3.8,0-6.8-1.1-8.9-3.4c-2.2-2.5-3.3-5.7-3.2-9c-0.1-3.3,1-6.5,3.2-9
		C532.1,62.7,535.1,61.6,538.9,61.6z"/>
	<path class="st1" d="M599.1,76.1c-1.2-1.8-2.8-3.3-4.7-4.4c-1.9-1.1-4-1.9-6.1-2.4c-2.2-0.5-4.2-1-6.1-1.4
		c-1.6-0.3-3.2-0.8-4.7-1.5c-1.1-0.4-1.9-1.5-1.9-2.7c-0.1-1.3,0.6-2.6,1.8-3.1c1.2-0.6,2.4-0.9,3.7-0.9c3.4-0.1,6.7,1.4,8.8,4.1
		l9.3-9.2c-2.3-2.4-5.2-4.1-8.4-5c-3.2-0.9-6.5-1.4-9.8-1.4c-2.5,0-5.1,0.3-7.5,1c-2.4,0.6-4.6,1.6-6.6,3c-1.9,1.3-3.5,3.1-4.6,5.1
		c-1.2,2.3-1.8,4.9-1.8,7.4c-0.1,2.6,0.5,5.2,1.9,7.4c1.2,1.8,2.8,3.3,4.7,4.3c1.9,1,4,1.8,6.1,2.3c2.2,0.5,4.2,1,6.1,1.4
		c1.6,0.3,3.2,0.9,4.7,1.6c1.1,0.5,1.9,1.6,1.9,2.9c0,1.3-0.8,2.5-2.1,2.8c-1.5,0.5-3.1,0.8-4.7,0.8c-2.1,0-4.1-0.4-6-1.4
		c-1.8-1-3.4-2.3-4.7-4L559.2,93c2.4,2.5,5.5,4.3,8.9,5.2c3.4,1,6.9,1.4,10.4,1.5c2.7,0,5.3-0.3,7.9-0.8c2.5-0.5,5-1.3,7.2-2.6
		c2.1-1.2,3.9-2.9,5.3-4.9c1.5-2.3,2.2-5.1,2.1-7.8C601.1,80.9,600.5,78.4,599.1,76.1z"/>
</g>
</svg>
