<svg  viewBox="0 0 1338 1339" fill="none" xmlns="http://www.w3.org/2000/svg">
<g id="DevStream">
<g id="258">
<g id="Group 27">
<path id="Vector" d="M985.53 214.344C900.843 129.822 788.473 83.1892 668.819 83.1892C550.439 83.1892 437.341 129.822 353.382 213.252C267.785 298.32 220.797 411.806 221.161 532.578C221.526 650.982 268.513 763.922 352.29 847.715C436.795 932.238 549.346 978.871 668.819 978.871C668.819 773.758 668.819 568.646 668.819 363.534C729.184 363.534 777.084 388.496 802.679 428.747C808.143 435.851 813.06 443.32 817.431 451.335C824.195 464.115 841.042 469.286 853.734 463.423C869.462 456.158 871.389 440.17 866.653 428.747C857 410.713 843.83 392.802 832.365 376.467C827.083 366.448 828.176 353.697 836.19 344.953C847.299 332.749 866.422 332.749 877.349 345.135C916.141 388.672 941.456 444.231 947.102 505.436C948.377 519.827 960.579 530.939 975.149 530.939C991.722 530.939 1004.84 516.73 1003.2 500.154C1001.37 479.57 997.55 459.714 992.269 440.405C988.444 426.561 995.729 411.988 1009.21 407.07L1009.93 406.888C1024.87 401.423 1041.26 409.802 1045.63 425.286C1055.1 458.986 1060.2 494.507 1060.2 531.121C1060.2 585.769 1048.73 640.235 1026.69 689.965C1020.68 703.627 1025.96 719.657 1039.26 726.579C1053.64 734.23 1071.49 728.218 1078.23 713.281C1103.55 656.265 1116.84 593.966 1116.84 531.303C1116.66 411.442 1070.04 298.867 985.53 214.344Z" fill="#7497F7"/>
<path id="Vector_2" d="M767.437 1028.91C703.119 1028.91 582.739 1007.25 498.129 861.63L479.04 828.793L498.644 830.512C474.224 825.011 451.868 818.65 432.091 811.773C369.321 789.767 332.519 762.26 322.717 729.595C317.902 713.606 316.01 682.145 357.111 650.34C382.735 630.569 413.862 620.597 449.804 620.597C491.078 620.597 523.924 634.179 525.3 634.695L552.988 646.214L489.186 708.277L478.868 706.214C475.084 705.354 471.301 705.01 467.346 705.01C452.728 705.01 442.753 710.34 439.486 713.434C442.925 717.217 457.715 729.079 510.683 736.816C552.816 743.005 600.968 748.162 656.687 754.179C715.673 760.541 782.743 767.761 853.939 777.561C902.263 784.265 939.409 796.988 964.001 815.211C995.644 838.764 1000.8 866.271 999.6 885.183C997.192 920.77 969.676 957.389 924.448 985.24C879.047 1013.44 823.328 1028.91 767.437 1028.91ZM656.343 853.893C677.668 863.005 711.202 875.039 740.609 875.039C749.38 875.039 757.119 874.008 763.654 871.773C766.405 870.913 768.641 870.054 770.876 869.194C756.775 864.896 729.603 859.395 678.355 855.612C670.789 855.097 663.394 854.409 656.343 853.893Z" fill="white"/>
<path id="Vector_3" d="M449.717 640.168C487.407 640.168 526.893 655.124 526.893 655.124L493.941 686.637C488.778 685.604 483.443 685.088 478.279 685.088C411.805 682.145 371.775 728.68 507.543 756.513C596.349 769.593 714.757 778.543 851.235 797.474C1094.59 831.208 951.056 1009.34 767.593 1009.34C679.82 1009.34 583.097 968.55 515.288 851.861L625.263 861.154C625.263 861.154 687.564 895.06 740.572 895.06C750.899 895.06 760.709 893.855 769.83 890.757C827.141 871.653 815.61 846.009 679.475 836.027C392.922 814.857 285.209 734.655 369 665.812C394.643 646.019 423.901 640.168 449.717 640.168ZM449.717 600.583C409.272 600.583 373.991 611.942 344.733 634.488C294.307 673.557 297.404 714.346 303.6 735.171C319.434 787.664 385.866 821.053 464.001 842.222L481.039 871.653C516.321 932.407 561.24 978.532 614.42 1008.82C658.823 1034.11 712.864 1048.92 767.593 1048.92C827.141 1048.92 886.517 1032.57 934.878 1002.63C985.821 971.131 1016.63 928.965 1019.55 886.971C1021.79 853.237 1006.47 822.258 976.011 799.712C948.646 779.403 908.374 765.462 856.743 758.234C785.147 748.252 718.027 741.023 658.823 734.655C603.233 728.631 566.225 723.468 524.576 717.272C523.027 717.1 521.478 716.756 520.101 716.584L521.65 715.035L553.913 685.088L599.269 639.307L544.023 616.245C540.065 614.524 494.119 600.583 449.717 600.583Z" fill="#7497F7"/>
<path id="Vector_4" d="M664.247 845.768C647.562 845.768 632.769 837.861 623.136 823.422C613.331 808.983 609.375 789.732 611.611 769.62C606.622 776.324 597.678 781.996 581.68 784.059C579.1 784.403 576.52 784.575 573.94 784.575C554.674 784.575 538.161 775.121 528.528 758.619C517.003 738.852 517.347 712.724 529.216 692.098C541.085 671.471 568.779 660.642 590.109 660.642C594.065 660.642 597.678 660.985 600.946 661.673C592.345 652.391 586.153 642.593 582.368 633.483C576.692 619.903 575.66 607.183 579.616 597.214C578.412 597.386 577.38 597.558 576.176 597.558C574.628 597.558 573.424 597.386 572.048 597.214C573.94 606.496 578.928 630.561 550.202 639.499C546.589 640.702 542.805 641.218 539.021 641.218C525.088 641.218 512.186 633.311 504.446 620.075C493.953 602.027 495.157 578.134 507.886 556.304C519.583 536.021 544.181 523.473 560.523 523.473C562.931 523.473 564.995 523.645 566.887 524.16C564.651 513.331 563.791 501.814 564.651 490.126C566.715 462.108 578.068 434.777 596.646 413.291C607.139 401.086 611.955 364.13 615.739 334.393C618.491 312.734 621.244 292.108 625.888 275.606C628.296 266.84 635.865 240.368 658.915 238.478C660.635 238.306 662.355 238.306 664.075 238.306C679.729 238.306 693.318 244.494 703.123 256.354C715.336 270.793 721.184 292.623 720.324 318.923C728.753 292.795 739.418 266.324 765.22 266.324C768.316 266.324 771.585 266.84 774.853 267.699C790.162 271.996 802.375 283.341 809.256 299.843C819.577 324.595 816.824 356.739 801.859 383.897C785.002 414.666 762.296 431.167 743.202 439.934C748.19 443.371 753.179 447.325 757.995 451.966C788.27 480.156 797.043 514.191 783.281 550.46C777.089 566.961 765.564 580.025 749.739 589.135C780.185 591.198 797.903 610.277 819.061 643.452C840.046 676.627 847.615 708.083 839.358 727.679C835.058 737.649 826.801 744.524 816.136 746.587C812.18 747.446 808.396 747.79 804.955 747.79C792.914 747.79 784.314 743.493 777.777 736.274C776.401 744.18 773.993 751.572 770.208 757.932C763.328 769.448 752.835 777.184 739.59 780.106C735.289 781.137 730.989 781.653 727.033 781.653C719.464 781.653 713.616 779.934 708.971 777.527C713.1 794.888 721.356 830.126 682.653 842.674C676.46 844.737 670.268 845.768 664.247 845.768ZM618.663 734.211C617.459 735.586 617.459 738.852 617.631 743.837C617.631 744.009 617.631 744.18 617.631 744.352C617.975 743.665 618.147 742.805 618.491 742.118C619.868 738.68 621.416 735.414 623.136 732.492C621.416 733.179 619.524 733.867 618.663 734.211ZM650.142 691.066C653.238 695.192 654.615 700.176 654.099 705.161C661.839 701.552 669.58 699.661 675.6 697.942H675.772C672.676 697.082 669.236 696.223 666.14 695.363C661.323 694.16 655.991 692.785 650.142 691.066ZM594.581 574.696C595.097 576.415 595.269 578.306 595.097 580.025C596.646 579.337 598.194 578.993 599.57 578.65C597.85 577.274 596.13 575.899 594.581 574.696ZM659.947 478.609C658.055 478.609 656.507 480.156 656.335 482.047C656.335 483.25 656.851 484.11 657.367 484.625C657.883 485.141 658.571 485.657 659.775 485.657C661.839 485.657 663.387 484.11 663.387 482.219C663.559 480.328 662.011 478.609 659.947 478.609Z" fill="white"/>
<path id="Vector_5" d="M664.366 252.538C697.345 252.538 712.632 290.037 703.185 342.673C693.394 397.374 664.366 418.359 664.366 418.359C664.366 418.359 664.538 418.359 665.053 418.359C669.347 418.359 694.769 415.951 721.392 360.047C734.618 332.008 740.287 280.576 765.365 280.576C767.254 280.576 769.143 280.92 771.033 281.436C800.92 289.865 811.055 336.997 789.24 376.732C758.494 432.809 705.762 435.561 705.762 435.561C705.762 435.561 789.24 472.821 769.831 545.306C757.979 576.785 723.625 588.998 688.241 588.998C650.968 588.998 608.885 563.884 594.285 545.306C571.784 516.675 574.189 462.051 608.027 422.66C637.227 388.601 624.86 255.806 660.587 252.882C661.789 252.538 662.992 252.538 664.366 252.538ZM560.791 537.909C571.784 557.659 588.696 571.44 586.116 575.746C583.536 580.053 580.525 582.805 576.25 582.805C573.158 582.805 569.723 580.569 565.944 580.569C564.398 580.569 562.68 580.913 560.791 582.117C546.706 591.062 573.845 616.692 545.847 625.465C543.614 626.153 541.381 626.497 539.148 626.497C518.536 626.497 501.36 597.082 520.769 563.368C529.873 547.714 549.454 537.909 560.791 537.909ZM606.137 587.572C615.413 587.572 628.834 600.012 650.988 605.086C664.999 608.295 679.481 609.295 687.726 609.295C703.7 609.295 714.006 606.371 735.306 604.135C738.397 603.791 741.317 603.619 744.066 603.619C770.518 603.619 785.633 617.896 806.76 651.439C830.979 689.798 836.476 727.641 813.116 732.458C810.196 733.146 807.447 733.318 804.871 733.318C785.461 733.318 779.793 715.084 770.861 683.434C763.303 657.115 750.936 646.278 743.722 646.278C741.833 646.278 740.287 647.139 739.256 648.515C732.729 658.491 751.795 668.812 760.727 700.463C768.972 729.705 762.445 760.152 736.508 766C733.073 766.86 729.981 767.205 727.232 767.205C711.602 767.205 707.651 756.024 700.265 756.024C687.431 756.024 720.638 828.968 664.538 831.538C631.559 831.538 616.271 788.706 632.417 747.939C648.735 706.483 694.082 716.976 697.86 702.183C701.983 685.842 682.745 685.67 651.655 676.381C608.198 663.48 584.495 619.1 594.285 600.695C597.205 594.846 601.671 587.572 606.137 587.572ZM590.335 675.177C597.033 675.177 602.874 676.553 606.137 679.477C621.768 693.41 643.067 694.614 639.46 705.967C634.994 719.384 616.271 716.116 608.542 724.201C594.285 739.338 618.676 764.968 580.2 769.613C578.139 769.785 576.078 769.957 574.189 769.957C538.633 769.957 530.212 733.364 542.683 704.08C551.786 688.599 574.017 675.177 590.335 675.177ZM664.366 223.295C662.305 223.295 660.072 223.467 658.011 223.639C644.785 224.843 632.933 231.896 624.688 243.765C619.707 250.818 615.584 259.934 612.321 271.459C607.339 289.005 604.591 309.99 601.671 332.352C599.438 349.038 597.205 366.239 594.113 380.344C590.163 397.89 586.556 402.878 585.869 403.566C557.904 436.277 550.708 471.412 553.748 512.01C534.682 515.795 508.23 527.073 495.691 548.918C480.576 575.409 479.202 604.651 492.428 627.357C502.734 645.246 520.254 655.911 539.492 655.911C544.301 655.911 551.806 654.209 556.444 652.833C541.844 659.197 525.407 673.697 517.162 688.146C504.63 710.109 503.249 741.15 517.162 765.232C529.358 786.39 549.798 799.371 574.532 799.371C577.624 799.371 580.887 799.199 584.151 798.855C587.071 798.511 592.224 797.823 598.236 796.103C600.125 809.348 604.763 821.733 611.805 832.054C624.173 850.287 643.582 860.78 665.053 860.78C672.611 860.78 680.168 859.576 687.898 856.996C710.056 849.771 719.855 835.858 725.445 815.618C726.304 809.941 727.748 801.435 727.404 796.103C732.385 796.103 738.054 795.931 743.379 794.727C760.555 790.77 774.296 780.794 783.228 765.656C784.431 763.592 785.461 761.528 786.492 759.292C793.191 761.872 799.718 762.56 805.386 762.56C809.852 762.56 814.662 762.044 819.471 761.012C834.758 757.916 847.126 747.767 853.137 733.49C867.737 698.915 843.175 653.675 831.838 635.786C818.44 614.628 799.206 593.298 777.048 582.117C784.091 574.204 788.75 565.052 792.529 555.075C808.841 512.01 792.529 473.252 760.727 444.829C779.449 432.1 803.669 411.995 815.349 390.837C832.354 359.875 835.445 322.72 823.25 293.993C814.49 273.351 799.031 258.902 779.278 253.398C774.812 252.194 770.174 251.506 765.708 251.506C755.059 251.506 740.802 254.946 728.263 269.911C725 261.138 720.534 253.398 715.037 246.689C701.983 231.552 684.119 223.295 664.366 223.295ZM562.165 650.579C565.772 648.859 569.036 646.967 571.784 644.902C572.299 645.934 572.814 646.794 573.33 647.827C569.551 648.515 565.944 649.375 562.165 650.579Z" fill="#7497F7"/>
<path id="Vector_6" d="M680.507 483.945C680.146 494.218 671.676 502.508 661.405 502.508H661.044C650.593 502.328 642.303 493.497 642.483 483.043C642.844 472.77 651.313 464.48 661.585 464.48H661.945C672.397 464.66 680.687 473.491 680.507 483.945Z" fill="#72CCB8"/>
</g>
</g>
<g id="DevStream_2">
<path d="M108.428 1339C128.435 1339 138.305 1334.52 142.04 1311.06L163.648 1176.66C167.383 1153.2 158.846 1148.72 138.839 1148.72H30.8001L0.38916 1339H108.428ZM111.629 1301.05C110.562 1308.43 109.762 1308.69 102.293 1308.69H37.2024L58.0099 1179.03H123.1C129.769 1179.03 131.103 1179.29 130.036 1186.94L111.629 1301.05Z" fill="#7497F7"/>
<path d="M286.513 1339L291.315 1308.69H213.954C207.284 1308.69 205.684 1308.43 206.751 1300.79L209.685 1282.87H271.841C291.848 1282.87 301.985 1278.39 305.72 1254.93L311.055 1221.99C314.79 1198.53 306.253 1194.05 286.246 1194.05H221.423C201.416 1194.05 191.279 1198.53 187.544 1221.99L173.139 1311.06C169.404 1334.52 178.207 1339 198.215 1339H286.513ZM275.309 1244.65C274.242 1252.3 272.375 1252.56 265.706 1252.56H214.487L217.955 1232.27C219.022 1224.62 220.623 1224.36 227.292 1224.36H270.241C276.91 1224.36 278.51 1224.62 277.443 1232.27L275.309 1244.65Z" fill="#7497F7"/>
<path d="M389.909 1339L457.666 1194.05H424.321L375.503 1303.42L362.165 1194.05H328.286L349.894 1339H389.909Z" fill="#7497F7"/>
<path d="M554.52 1339C574.527 1339 584.397 1334.52 588.132 1311.06L596.935 1256.78C600.67 1233.32 592.133 1228.84 572.126 1228.84H508.903C502.234 1228.84 500.634 1228.58 501.701 1220.93L507.303 1186.94C508.37 1179.29 510.237 1179.03 516.906 1179.03H568.925C575.594 1179.03 576.928 1179.29 575.861 1186.94L572.927 1205.38H604.938L609.473 1176.66C613.208 1153.2 604.671 1148.72 584.664 1148.72H510.771C490.764 1148.72 480.627 1153.2 476.892 1176.66L468.089 1231.21C464.354 1254.67 472.891 1259.15 492.898 1259.15H556.121C562.79 1259.15 564.39 1259.41 563.323 1267.05L557.721 1300.79C556.654 1308.43 555.053 1308.69 548.384 1308.69H496.366C489.697 1308.69 488.096 1308.43 489.163 1300.79L492.364 1282.34H460.353L455.551 1311.06C451.816 1334.52 460.619 1339 480.627 1339H554.52Z" fill="#7497F7"/>
<path d="M686.394 1339L691.196 1308.69H673.59C666.921 1308.69 665.32 1308.43 666.387 1300.79L678.658 1224.36H704.534L709.603 1194.05H683.727L691.196 1148.72H659.185L651.715 1194.05H627.44L622.371 1224.36H646.647L632.775 1311.06C629.041 1334.52 637.844 1339 657.851 1339H686.394Z" fill="#7497F7"/>
<path d="M738.843 1339L755.915 1232.27C756.982 1224.62 758.583 1224.36 765.252 1224.36H814.336L819.405 1194.05H759.383C739.376 1194.05 729.239 1198.53 725.504 1221.99L706.831 1339H738.843Z" fill="#7497F7"/>
<path d="M932.579 1339L937.381 1308.69H860.02C853.35 1308.69 851.75 1308.43 852.817 1300.79L855.751 1282.87H917.907C937.914 1282.87 948.051 1278.39 951.786 1254.93L957.121 1221.99C960.856 1198.53 952.319 1194.05 932.312 1194.05H867.489C847.482 1194.05 837.345 1198.53 833.61 1221.99L819.205 1311.06C815.47 1334.52 824.273 1339 844.28 1339H932.579ZM921.375 1244.65C920.308 1252.3 918.441 1252.56 911.771 1252.56H860.553L864.021 1232.27C865.088 1224.62 866.689 1224.36 873.358 1224.36H916.306C922.975 1224.36 924.576 1224.62 923.509 1232.27L921.375 1244.65Z" fill="#7497F7"/>
<path d="M1055.71 1339C1075.72 1339 1085.59 1334.52 1089.33 1311.06L1103.73 1221.99C1107.47 1198.53 1098.93 1194.05 1078.92 1194.05H987.69L982.622 1224.36H1062.92C1069.59 1224.36 1071.19 1224.62 1070.12 1232.27L1067.45 1248.34H1005.3C985.29 1248.34 975.153 1252.82 971.418 1276.28L965.816 1311.06C962.081 1334.52 970.884 1339 990.892 1339H1055.71ZM1058.92 1300.79C1057.85 1308.43 1056.25 1308.69 1049.58 1308.69H1006.63C999.962 1308.69 998.361 1308.43 999.428 1300.79L1001.83 1286.56C1003.16 1278.91 1004.76 1278.65 1011.43 1278.65H1062.65L1058.92 1300.79Z" fill="#7497F7"/>
<path d="M1318.08 1339L1336.76 1221.99C1340.49 1198.53 1331.95 1194.05 1311.95 1194.05H1261.53C1251.39 1194.05 1243.92 1195.37 1237.52 1204.59C1234.32 1195.37 1227.12 1194.05 1216.98 1194.05H1166.56C1146.55 1194.05 1136.42 1198.53 1132.68 1221.99L1114.01 1339H1146.02L1163.09 1232.27C1164.16 1224.62 1165.76 1224.36 1172.43 1224.36H1210.31C1216.98 1224.36 1218.58 1224.62 1217.51 1232.27L1200.44 1339H1232.18L1249.26 1232.27C1250.32 1224.62 1251.93 1224.36 1258.59 1224.36H1295.94C1302.61 1224.36 1304.21 1224.62 1303.14 1232.27L1286.07 1339H1318.08Z" fill="#7497F7"/>
</g>
</g>
</svg>
