<?xml version="1.0" encoding="UTF-8" standalone="no"?>
<svg
   xmlns:dc="http://purl.org/dc/elements/1.1/"
   xmlns:cc="http://creativecommons.org/ns#"
   xmlns:rdf="http://www.w3.org/1999/02/22-rdf-syntax-ns#"
   xmlns:svg="http://www.w3.org/2000/svg"
   xmlns="http://www.w3.org/2000/svg"
   viewBox="0 0 433.28 222.39999"
   height="222.39999"
   width="433.28"
   xml:space="preserve"
   id="svg2"
   version="1.1"><metadata
     id="metadata8"><rdf:RDF><cc:Work
         rdf:about=""><dc:format>image/svg+xml</dc:format><dc:type
           rdf:resource="http://purl.org/dc/dcmitype/StillImage" /></cc:Work></rdf:RDF></metadata><defs
     id="defs6" /><g
     transform="matrix(1.3333333,0,0,-1.3333333,0,222.4)"
     id="g10"><g
       transform="scale(0.1)"
       id="g12"><path
         id="path14"
         style="fill:#65a6df;fill-opacity:1;fill-rule:nonzero;stroke:none"
         d="m 2537.11,1661.52 h -60.35 c 0,0 -81.76,1.17 -97.58,-2.27 -55.9,-12.15 -105.98,-76.36 -105.98,-132.81 0,-30.98 8.83,-100.43 105.98,-131.29 0.35,-0.22 97.58,0 97.58,0 h 60.35 v 266.37 M 1666.64,295.82 c -127.73,21.871 -234.1,86.559 -309.37,188.168 -61.29,82.723 -90.67,174.012 -90.67,281.832 0,218.121 134.3,393.55 350.43,457.73 43.87,13.01 145.63,18.09 198.36,9.84 177.23,-27.57 325.78,-157.61 379.14,-331.831 27.42,-96.801 28.09,-180.422 0,-271.25 C 2144.26,466.75 2018.32,345.82 1854.73,303.941 1802.3,290.539 1718.52,286.922 1666.64,295.82 Z m 140.55,256.711 c 53.04,18.051 101.4,56.801 126.68,101.457 28.79,50.899 36.87,125.543 19.33,178.785 -46.79,142.258 -217.42,200.507 -340.15,116.129 -55.75,-38.281 -89.34,-99.453 -93.91,-170.863 -6.64,-103.621 56.8,-194.648 157.93,-226.719 30.35,-9.609 100.23,-8.968 130.12,1.211 z M 2348.2,301.922 c -14.37,6.68 -33.67,20.726 -42.85,31.156 -34.1,38.883 -32.81,87.313 -32.81,434.414 0,338.598 -0.9,385.858 28.44,424.338 7.54,9.84 24.76,24.41 38.28,32.38 21.44,12.58 30.12,14.5 66.79,14.5 37.86,0 44.81,-1.64 67.78,-15.85 34.1,-21.11 53.87,-51.42 60.19,-92.47 3.09,-19.97 3.6,-33.64 3.6,-386.531 0,-323.711 0.62,-371.898 -33.09,-411.898 -34.49,-40.91 -104.22,-54.313 -156.33,-30.039 z m 356.76,-5.133 c -30.35,10.82 -59.45,33.492 -71.68,59.852 -11.05,23.937 -8.87,76.05 -9.57,314.843 v 990.776 h 129.18 c 0,0 372.31,3.44 388.13,0 55.86,-12.15 105.93,-76.33 105.93,-132.81 0,-30.98 -20.62,-73.21 -45.93,-94.06 -38.13,-31.45 -47.19,-34.89 -157.62,-37.86 h -160 V 667.57 c 0,-244.679 2.5,-297.332 -8.52,-318.32 -10.15,-19.371 -35.08,-40.039 -58.98,-49.012 -27.66,-12.59 -80.78,-14.226 -110.94,-3.449 v 0" /><path
         id="path16"
         style="fill:#65a6df;fill-opacity:1;fill-rule:nonzero;stroke:none"
         d="m 93.1992,297.301 c -13.6679,4.961 -34.0976,19.371 -50,35.269 C -2.92969,378.711 0,335.891 0.0390625,968.082 0.121094,1570.42 -0.621094,1554.33 29.1797,1595.89 c 19.3398,27 54.6094,49.61 88.6723,56.88 34.878,7.42 414.847,7.81 492.617,0.52 294.73,-27.67 535.621,-232.55 607.301,-516.58 84.38,-334.413 -104.06,-685.429 -432.969,-806.401 -95.192,-35 -222.262,-37.887 -456.52,-39.731 -84.371,1.293 -183.941,-5.59 -235.0818,6.723 M 588.281,559.488 c 157.028,13 278.867,90.313 342.969,217.614 63.828,126.679 59.41,305.468 -10.66,432.068 -28.402,51.33 -96.762,117.44 -150,144.97 -77.781,40.31 -99.379,46.91 -262.231,46.71 l -242.968,2.31 V 557.738 c 5.16,-5.168 253.672,-4 322.89,1.75 v 0" /><path
         id="path18"
         style="fill:#65a6df;fill-opacity:1;fill-rule:nonzero;stroke:none"
         d="m 23.6289,25.2305 c 0,-7.8086 6.25,-13.9102 14.2227,-13.9102 7.8086,0 13.9062,6.1016 13.9062,13.9102 V 159.762 c 0,7.808 -6.0976,13.91 -13.9062,13.91 -7.9727,0 -14.2227,-6.102 -14.2227,-13.91 V 25.2305" /><path
         id="path20"
         style="fill:#65a6df;fill-opacity:1;fill-rule:nonzero;stroke:none"
         d="m 178.32,25.0703 c 0,-7.6484 6.09,-13.75 13.91,-13.75 7.5,0 13.75,6.1016 13.75,13.75 V 126.641 L 288.32,19.9219 c 3.91,-5 7.969,-8.4336 14.688,-8.4336 h 1.094 c 7.808,0 13.75,6.2422 13.75,13.9023 V 159.922 c 0,7.648 -6.25,13.75 -14.063,13.75 -7.5,0 -13.59,-6.102 -13.59,-13.75 V 61.6406 l -80.16,103.5974 c -3.91,4.832 -7.809,8.274 -14.531,8.274 h -2.969 c -8.129,0 -14.219,-6.41 -14.219,-14.223 V 25.0703" /><path
         id="path22"
         style="fill:#65a6df;fill-opacity:1;fill-rule:nonzero;stroke:none"
         d="m 481.68,25.2305 c 0,-7.8086 6.41,-13.9102 14.062,-13.9102 7.809,0 14.219,6.1016 14.219,13.9102 V 146.488 h 39.059 c 7.191,0 12.82,5.934 12.82,12.973 0,7.18 -5.629,13.109 -12.82,13.109 H 442.77 c -7.34,0 -13.122,-5.929 -13.122,-13.109 0,-7.039 5.782,-12.973 13.122,-12.973 h 38.91 V 25.2305" /><path
         id="path24"
         style="fill:#65a6df;fill-opacity:1;fill-rule:nonzero;stroke:none"
         d="M 688.281,12.4219 H 782.5 c 6.879,0 12.5,5.4687 12.5,12.6484 0,6.7188 -5.621,12.5 -12.5,12.5 h -80.312 v 42.9688 h 68.75 c 6.875,0 12.652,5.4726 12.652,12.3515 0,7.1794 -5.777,12.8204 -12.652,12.8204 h -68.75 v 41.711 h 79.062 c 6.871,0 12.66,5.469 12.66,12.5 0,6.867 -5.789,12.648 -12.66,12.648 h -92.969 c -8.121,0 -14.222,-6.25 -14.222,-14.218 V 26.6406 c 0,-7.9687 6.101,-14.2187 14.222,-14.2187" /><path
         id="path26"
         style="fill:#65a6df;fill-opacity:1;fill-rule:nonzero;stroke:none"
         d="m 910.742,25.2305 c 0,-7.8086 6.098,-13.9102 14.219,-13.9102 7.66,0 13.906,6.1016 13.906,13.9102 v 42.9804 h 35.473 l 38.9,-49.539 c 3.13,-4.3828 7.19,-7.3516 13.6,-7.3516 6.87,0 13.59,5.168 13.59,12.9688 0,4.3828 -1.88,7.3515 -4.53,10.7812 l -30.78,38.6016 c 21.56,6.7187 36.4,22.1797 36.4,47.8161 v 0.473 c 0,14.051 -4.84,25.93 -13.28,34.527 -10.31,10.153 -26.09,16.082 -46.092,16.082 h -57.187 c -8.121,0 -14.219,-6.25 -14.219,-14.218 V 25.2305 m 28.125,67.9804 v 53.7501 h 40.934 c 20.789,0 33.129,-9.391 33.129,-26.57 v -0.469 c 0,-16.25 -12.81,-26.7111 -32.969,-26.7111 h -41.094" /><path
         id="path28"
         style="fill:#65a6df;fill-opacity:1;fill-rule:nonzero;stroke:none"
         d="m 1159.49,25.0703 c 0,-7.6484 6.1,-13.75 13.91,-13.75 7.5,0 13.75,6.1016 13.75,13.75 V 126.641 l 82.34,-106.7191 c 3.91,-5 7.97,-8.4336 14.69,-8.4336 h 1.09 c 7.82,0 13.75,6.2422 13.75,13.9023 V 159.922 c 0,7.648 -6.25,13.75 -14.06,13.75 -7.5,0 -13.59,-6.102 -13.59,-13.75 V 61.6406 l -80.16,103.5974 c -3.91,4.832 -7.81,8.274 -14.53,8.274 h -2.97 c -8.12,0 -14.22,-6.41 -14.22,-14.223 V 25.0703" /><path
         id="path30"
         style="fill:#65a6df;fill-opacity:1;fill-rule:nonzero;stroke:none"
         d="m 1412.38,24.2891 c 0,-7.3282 5.78,-12.9688 13.13,-12.9688 5.94,0 10.78,3.1406 12.97,8.918 l 13.59,30.7734 h 77.81 l 12.97,-29.8398 c 2.5,-5.9336 7.03,-9.8516 13.75,-9.8516 7.5,0 13.28,5.9414 13.28,13.4414 0,1.8789 -0.47,3.9102 -1.72,5.9492 l -59.37,132.6411 c -3.28,7.187 -8.75,11.41 -16.72,11.41 h -1.41 c -7.96,0 -13.75,-4.223 -16.87,-11.41 L 1414.26,30.7109 c -1.1,-2.3593 -1.88,-4.3906 -1.88,-6.4218 m 50.47,51.7226 28.13,64.6993 28.12,-64.6993 h -56.25" /><path
         id="path32"
         style="fill:#65a6df;fill-opacity:1;fill-rule:nonzero;stroke:none"
         d="m 1704.45,25.2305 c 0,-7.8086 6.41,-13.9102 14.07,-13.9102 7.81,0 14.21,6.1016 14.21,13.9102 V 146.488 h 39.07 c 7.18,0 12.81,5.934 12.81,12.973 0,7.18 -5.63,13.109 -12.81,13.109 h -106.25 c -7.35,0 -13.13,-5.929 -13.13,-13.109 0,-7.039 5.78,-12.973 13.13,-12.973 h 38.9 V 25.2305" /><path
         id="path34"
         style="fill:#65a6df;fill-opacity:1;fill-rule:nonzero;stroke:none"
         d="m 1898.4,25.2305 c 0,-7.8086 6.25,-13.9102 14.22,-13.9102 7.81,0 13.9,6.1016 13.9,13.9102 V 159.762 c 0,7.808 -6.09,13.91 -13.9,13.91 -7.97,0 -14.22,-6.102 -14.22,-13.91 V 25.2305" /><path
         id="path36"
         style="fill:#65a6df;fill-opacity:1;fill-rule:nonzero;stroke:none"
         d="m 2129.49,9.60156 c 49.06,0 83.91,37.82034 83.91,82.82034 v 0.4687 c 0,45.1484 -34.38,82.3474 -83.44,82.3474 -49.22,0 -84.06,-37.668 -84.06,-82.8161 v -0.461 c 0,-45 34.37,-82.35934 83.59,-82.35934 m 0.47,26.10934 c -31.87,0 -54.53,25.6094 -54.53,56.711 v 0.4687 c 0,31.0974 22.19,56.5704 54.06,56.5704 31.72,0 54.38,-25.789 54.38,-57.0391 v -0.461 c 0,-31.1093 -22.19,-56.25 -53.91,-56.25 v 0" /><path
         id="path38"
         style="fill:#65a6df;fill-opacity:1;fill-rule:nonzero;stroke:none"
         d="m 2330.9,25.0703 c 0,-7.6484 6.09,-13.75 13.9,-13.75 7.5,0 13.75,6.1016 13.75,13.75 V 126.641 L 2440.9,19.9219 c 3.9,-5 7.97,-8.4336 14.69,-8.4336 h 1.09 c 7.81,0 13.75,6.2422 13.75,13.9023 V 159.922 c 0,7.648 -6.25,13.75 -14.06,13.75 -7.5,0 -13.6,-6.102 -13.6,-13.75 V 61.6406 l -80.15,103.5974 c -3.91,4.832 -7.82,8.274 -14.53,8.274 h -2.97 c -8.13,0 -14.22,-6.41 -14.22,-14.223 V 25.0703" /><path
         id="path40"
         style="fill:#65a6df;fill-opacity:1;fill-rule:nonzero;stroke:none"
         d="m 2583.75,24.2891 c 0,-7.3282 5.78,-12.9688 13.13,-12.9688 5.93,0 10.78,3.1406 12.96,8.918 l 13.6,30.7734 h 77.81 l 12.97,-29.8398 c 2.5,-5.9336 7.03,-9.8516 13.75,-9.8516 7.5,0 13.28,5.9414 13.28,13.4414 0,1.8789 -0.47,3.9102 -1.72,5.9492 l -59.37,132.6411 c -3.28,7.187 -8.75,11.41 -16.72,11.41 h -1.41 c -7.97,0 -13.75,-4.223 -16.87,-11.41 L 2585.63,30.7109 c -1.1,-2.3593 -1.88,-4.3906 -1.88,-6.4218 m 50.47,51.7226 28.12,64.6993 28.13,-64.6993 h -56.25" /><path
         id="path42"
         style="fill:#65a6df;fill-opacity:1;fill-rule:nonzero;stroke:none"
         d="m 2854.77,26.6406 c 0,-7.9687 6.09,-14.2187 14.21,-14.2187 h 86.41 c 7.03,0 12.81,5.789 12.81,12.8086 0,7.0312 -5.78,12.8086 -12.81,12.8086 h -72.5 V 159.762 c 0,7.808 -6.25,13.91 -13.91,13.91 -8.12,0 -14.21,-6.102 -14.21,-13.91 V 26.6406" /></g></g></svg>