<?xml version="1.0" encoding="utf-8"?>
<!-- Generator: Adobe Illustrator 26.0.2, SVG Export Plug-In . SVG Version: 6.00 Build 0)  -->
<svg version="1.1" id="Layer_1" xmlns="http://www.w3.org/2000/svg" xmlns:xlink="http://www.w3.org/1999/xlink" x="0px" y="0px"
	 viewBox="0 0 2865 449" style="enable-background:new 0 0 2865 449;" xml:space="preserve">
<style type="text/css">
	.st0{clip-path:url(#SVGID_00000116954437949511206070000014652426134790078620_);}
	.st1{fill:#111111;}
	.st2{fill-rule:evenodd;clip-rule:evenodd;fill:url(#SVGID_00000111176845620651177250000013013129563578709632_);}
</style>
<g>
	<defs>
		<rect id="SVGID_1_" width="2865" height="449"/>
	</defs>
	<clipPath id="SVGID_00000057142168782169802710000016743595623405412499_">
		<use xlink:href="#SVGID_1_"  style="overflow:visible;"/>
	</clipPath>
	<g style="clip-path:url(#SVGID_00000057142168782169802710000016743595623405412499_);">
		<path class="st1" d="M750.1,323.3c3.3,0.3,7,0.6,11.2,0.9c4.5,0,9.7,0,15.7,0c35,0,60.9-8.8,77.7-26.5
			c17.1-17.7,25.6-42.1,25.6-73.2c0-32.6-8.1-57.3-24.3-74.1c-16.2-16.8-41.8-25.1-76.8-25.1c-4.8,0-9.7,0.2-14.8,0.4
			c-3.9,0-7.5,0.2-11,0.5c-1.9,0.2-3.3,1.8-3.3,3.7V323.3z M952.6,224.5c0,26.9-4.2,50.4-12.6,70.5s-20.4,36.7-35.9,49.8
			c-15.3,13.2-34,23-56.1,29.6c-22.2,6.6-47,9.9-74.5,9.9c-12.6,0-27.2-0.6-44-1.8c-16.8-0.9-33.2-3-49.4-6.3V76.4
			c0-1.8,1.3-3.4,3.1-3.7c15.2-2.7,30.9-4.4,47.2-5.3c17.7-1.2,32.8-1.8,45.4-1.8c26.6,0,50.7,3,72.3,9c21.9,6,40.6,15.4,56.1,28.3
			c15.6,12.9,27.5,29.3,35.9,49.4S952.6,196.4,952.6,224.5z"/>
		<path class="st1" d="M1093.5,224.5c0,15.3,1.8,29,5.4,41.3c3.9,12.3,9.3,22.9,16.2,31.9c7.2,8.7,15.9,15.4,26.1,20.2
			s21.8,7.2,35,7.2c12.9,0,24.4-2.4,34.6-7.2c10.5-4.8,19.2-11.5,26-20.2c7.2-9,12.6-19.6,16.2-31.9c3.9-12.3,5.8-26,5.8-41.3
			s-2-29-5.8-41.3c-3.6-12.6-9-23.2-16.2-31.9c-6.9-9-15.6-15.9-26-20.7c-10.2-4.8-21.7-7.2-34.6-7.2c-13.2,0-24.8,2.5-35,7.6
			c-10.2,4.8-18.9,11.7-26.1,20.7c-6.9,8.7-12.3,19.3-16.2,31.9C1095.3,196,1093.5,209.6,1093.5,224.5z M1331.1,224.5
			c0,26.6-4,50.1-12.1,70.5c-7.8,20.1-18.6,37-32.3,50.7c-13.8,13.5-30.2,23.6-49.4,30.5c-18.9,6.9-39.2,10.3-61.1,10.3
			c-21.3,0-41.3-3.4-60.2-10.3c-18.9-6.9-35.3-17.1-49.4-30.5c-14.1-13.8-25.1-30.7-33.2-50.7c-8.1-20.4-12.1-43.9-12.1-70.5
			s4.2-50,12.6-70c8.4-20.4,19.6-37.4,33.7-51.2c14.4-13.8,30.8-24.1,49.4-31c18.9-6.9,38.6-10.3,59.3-10.3
			c21.2,0,41.3,3.4,60.2,10.3c18.9,6.9,35.3,17.2,49.4,31c14.1,13.8,25.1,30.8,33.2,51.2C1327.1,174.5,1331.1,197.9,1331.1,224.5z"
			/>
		<path class="st1" d="M1506.5,65.6c46.4,0,82,8.2,106.9,24.7c24.8,16.2,37.3,42.8,37.3,79.9c0,37.4-12.6,64.5-37.7,81.3
			c-25.2,16.5-61.1,24.7-107.8,24.7H1487c-2.1,0-3.8,1.7-3.8,3.8v96.5c0,2.1-1.7,3.8-3.8,3.8h-66.2V76.8c0-1.8,1.3-3.4,3.1-3.7
			c14.3-2.7,29.5-4.6,45.4-5.7C1478.6,66.2,1493.6,65.6,1506.5,65.6z M1511,125.3c-5.1,0-10.2,0.2-15.3,0.4
			c-3.3,0.2-6.3,0.4-9.1,0.6c-2,0.2-3.5,1.8-3.5,3.8v86.3h22c24.2,0,42.5-3.3,54.8-9.9c12.3-6.6,18.4-18.9,18.4-36.8
			c0-8.7-1.7-15.9-4.9-21.6c-3-5.7-7.5-10.2-13.5-13.5c-5.7-3.6-12.7-6-21.1-7.2C1530.4,126.1,1521.2,125.3,1511,125.3z"/>
		<path class="st1" d="M1819.1,65.6c46.4,0,82,8.2,106.9,24.7c24.9,16.2,37.3,42.8,37.3,79.9c0,37.4-12.6,64.5-37.7,81.3
			c-25.2,16.5-61.1,24.7-107.8,24.7h-18.2c-2.1,0-3.8,1.7-3.8,3.8v96.5c0,2.1-1.7,3.8-3.8,3.8h-66.2V76.8c0-1.8,1.3-3.4,3.1-3.7
			c14.3-2.7,29.5-4.6,45.4-5.7C1791.2,66.2,1806.2,65.6,1819.1,65.6z M1823.6,125.3c-5.1,0-10.2,0.2-15.3,0.4
			c-3.3,0.2-6.3,0.4-9.1,0.6c-2,0.2-3.5,1.8-3.5,3.8v86.3h22c24.2,0,42.5-3.3,54.8-9.9c12.3-6.6,18.4-18.9,18.4-36.8
			c0-8.7-1.7-15.9-4.9-21.6c-3-5.7-7.5-10.2-13.5-13.5c-5.7-3.6-12.7-6-21.1-7.2C1843,126.1,1833.7,125.3,1823.6,125.3z"/>
		<path class="st1" d="M2236.5,320.2c0.7,0,1.3,0.6,1.3,1.3v57.6c0,0.7-0.6,1.3-1.3,1.3h-198.2V91.4c0-1.7,1.2-3.2,2.8-3.7
			l67.2-18.5v251H2236.5z"/>
		<path class="st1" d="M2314.9,380.3V73c0-2.1,1.7-3.8,3.8-3.8h215c0.9,0,1.5,0.8,1.2,1.6l-16.4,56.3c-0.2,0.5-0.6,0.9-1.2,0.9
			h-128.5c-2.1,0-3.8,1.7-3.8,3.8v57.2h114.2c0.8,0,1.5,0.8,1.2,1.6l-16,54.9c-0.2,0.5-0.7,0.9-1.2,0.9h-94.3
			c-2.1,0-3.8,1.7-3.8,3.8v71.2h154.7c0.9,0,1.5,0.8,1.2,1.6l-16.3,56.3c-0.2,0.5-0.7,0.9-1.2,0.9H2314.9z"/>
		<path class="st1" d="M2702,65.6c46.7,0,82.5,8.4,107.3,25.1c24.8,16.5,37.3,42.2,37.3,77.2c0,21.9-5.1,39.7-15.3,53.4
			c-9.9,13.5-24.2,24.1-43.1,31.9c6.3,7.8,12.9,16.8,19.8,26.9c6.9,9.9,13.6,20.4,20.2,31.4c6.9,10.8,13.5,22.2,19.8,34.1
			c5.9,11.1,11.5,22,16.7,32.8c0.4,0.8-0.2,1.8-1.2,1.8h-75.8c-0.5,0-0.9-0.2-1.1-0.7c-5.6-10-11.3-20.1-17.1-30.3
			c-5.7-10.5-11.7-20.7-18-30.5c-6-9.9-12-19.2-18-27.8c-6-9-12-17.1-18-24.2h-30.8c-2.1,0-3.8,1.7-3.8,3.8v105.9
			c0,2.1-1.7,3.8-3.8,3.8h-66.2V76.8c0-1.8,1.3-3.4,3.1-3.7c14.3-2.7,29-4.6,44.1-5.7C2674.4,66.2,2689.1,65.6,2702,65.6z
			 M2706,125.3c-5.1,0-9.7,0.2-13.9,0.4c-2.6,0.2-5.2,0.4-7.7,0.6c-2,0.2-3.5,1.8-3.5,3.8v80.9h19.8c26.3,0,45.2-3.3,56.6-9.9
			c11.4-6.6,17.1-17.8,17.1-33.7c0-15.3-5.8-26-17.5-32.3C2745.4,128.6,2728.5,125.3,2706,125.3z"/>
		
			<linearGradient id="SVGID_00000149383162840746571850000012191674717152830896_" gradientUnits="userSpaceOnUse" x1="354.735" y1="467.7015" x2="37.4547" y2="42.0602" gradientTransform="matrix(1 0 0 -1 0 450)">
			<stop  offset="0" style="stop-color:#33A9FF"/>
			<stop  offset="1.000000e-04" style="stop-color:#33A9FF"/>
			<stop  offset="1" style="stop-color:#1673FF"/>
		</linearGradient>
		<path style="fill-rule:evenodd;clip-rule:evenodd;fill:url(#SVGID_00000149383162840746571850000012191674717152830896_);" d="
			M3.3,0C1.8,0,1,1.6,1.8,2.7l89.7,140.4c2.6,4.1,7.1,6.6,12,6.6h120.9c39.9,0,64.9,35.3,64.7,74.8s-26.7,74.4-64.7,74.4H100.8
			c-2.6,0-4.7,2.1-4.7,4.8v140.6c0,2.6,2.1,4.7,4.7,4.7h155.8c128.5,0,192.4-121.9,192.5-224.5S386,0,256.6,0H3.3z M63,299.3H32.2
			C14.4,299.3,0,316,0,336.7V396v51.7c0,0.7,0.6,1.3,1.3,1.3h30.9c17.8,0,32.2-16.8,32.2-37.4v-111C64.3,299.9,63.7,299.3,63,299.3z
			"/>
	</g>
</g>
</svg>
