<?xml version="1.0" encoding="utf-8"?>
<!-- Generator: Adobe Illustrator 20.0.0, SVG Export Plug-In . SVG Version: 6.00 Build 0)  -->
<svg version="1.1" id="Layer_1" xmlns="http://www.w3.org/2000/svg" xmlns:xlink="http://www.w3.org/1999/xlink" x="0px" y="0px"
	 viewBox="0 0 377.6 533.4" style="enable-background:new 0 0 377.6 533.4;" xml:space="preserve">
<style type="text/css">
	.st0{clip-path:url(#SVGID_4_);}
	.st1{clip-path:url(#SVGID_5_);}
	.st2{clip-path:url(#SVGID_6_);}
	.st3{fill:#546D80;}
	.st4{clip-path:url(#SVGID_9_);}
	.st5{clip-path:url(#SVGID_10_);}
	.st6{fill:#8E5FEA;}
	.st7{clip-path:url(#SVGID_13_);}
	.st8{clip-path:url(#SVGID_14_);}
	.st9{fill:#FC9869;}
	.st10{clip-path:url(#SVGID_17_);}
	.st11{clip-path:url(#SVGID_18_);}
	.st12{fill:#84B0D1;}
	.st13{clip-path:url(#SVGID_21_);}
	.st14{clip-path:url(#SVGID_22_);}
	.st15{clip-path:url(#SVGID_25_);}
	.st16{clip-path:url(#SVGID_26_);}
	.st17{clip-path:url(#SVGID_29_);}
	.st18{clip-path:url(#SVGID_30_);}
	.st19{clip-path:url(#SVGID_33_);}
	.st20{clip-path:url(#SVGID_34_);}
	.st21{fill:#23D0C7;}
	.st22{clip-path:url(#SVGID_37_);}
	.st23{clip-path:url(#SVGID_38_);}
	.st24{clip-path:url(#SVGID_41_);}
	.st25{clip-path:url(#SVGID_42_);}
	.st26{clip-path:url(#SVGID_45_);}
	.st27{clip-path:url(#SVGID_46_);}
	.st28{enable-background:new    ;}
</style>
<title>hpe-dev-icon-doryd</title>
<g>
	<defs>
		<rect id="SVGID_1_" x="0.9" y="0.8" width="375.8" height="421.5"/>
	</defs>
	<defs>
		<path id="SVGID_2_" d="M200.4,21.5c-7.2-4.2-16-4.2-23.2,0L30,106.5c-7.2,4.2-11.6,11.8-11.6,20.1v170c0,8.3,4.4,16,11.6,20.1
			l147.2,85c7.2,4.2,16,4.2,23.2,0l147.2-85c7.2-4.2,11.6-11.8,11.6-20.1v-170c0-8.3-4.4-16-11.6-20.1L200.4,21.5L200.4,21.5z
			 M209.1,6.4l147.2,85c12.6,7.3,20.3,20.7,20.3,35.2v170c0,14.5-7.8,27.9-20.3,35.2l-147.2,85c-12.6,7.3-28.1,7.3-40.7,0l-147.2-85
			c-12.6-7.3-20.3-20.7-20.3-35.2v-170c0-14.5,7.8-27.9,20.3-35.2l147.2-85C181-0.9,196.5-0.9,209.1,6.4L209.1,6.4z"/>
	</defs>
	<defs>
		<rect id="SVGID_3_" x="0.9" y="0.9" width="375.8" height="421.5"/>
	</defs>
	<clipPath id="SVGID_4_">
		<use xlink:href="#SVGID_1_"  style="overflow:visible;"/>
	</clipPath>
	<clipPath id="SVGID_5_" class="st0">
		<use xlink:href="#SVGID_2_"  style="overflow:visible;"/>
	</clipPath>
	<clipPath id="SVGID_6_" class="st1">
		<use xlink:href="#SVGID_3_"  style="overflow:visible;"/>
	</clipPath>
	<g class="st2">
		<rect class="st3" width="377.6" height="423.2"/>
	</g>
</g>
<g>
	<defs>
		<rect id="SVGID_7_" x="0.9" y="0.8" width="375.8" height="421.5"/>
	</defs>
	<defs>
		<path id="SVGID_8_" d="M212.8,291.1c-4.8,0-8.7-3.9-8.7-8.7s3.9-8.7,8.7-8.7h62.6c4.8,0,8.7,3.9,8.7,8.7s-3.9,8.7-8.7,8.7H212.8z"
			/>
	</defs>
	<clipPath id="SVGID_9_">
		<use xlink:href="#SVGID_7_"  style="overflow:visible;"/>
	</clipPath>
	<clipPath id="SVGID_10_" class="st4">
		<use xlink:href="#SVGID_8_"  style="overflow:visible;"/>
	</clipPath>
	<g class="st5">
		<rect x="203.1" y="272.8" class="st6" width="81.9" height="19.2"/>
	</g>
</g>
<g>
	<defs>
		<rect id="SVGID_11_" x="0.9" y="0.8" width="375.8" height="421.5"/>
	</defs>
	<defs>
		<path id="SVGID_12_" d="M166.8,181.1c-4.8,0-8.7-3.9-8.7-8.7c0-4.8,3.9-8.7,8.7-8.7h111.3c4.8,0,8.7,3.9,8.7,8.7
			c0,4.8-3.9,8.7-8.7,8.7L166.8,181.1z"/>
	</defs>
	<clipPath id="SVGID_13_">
		<use xlink:href="#SVGID_11_"  style="overflow:visible;"/>
	</clipPath>
	<clipPath id="SVGID_14_" class="st7">
		<use xlink:href="#SVGID_12_"  style="overflow:visible;"/>
	</clipPath>
	<g class="st8">
		<rect x="157.2" y="162.8" class="st9" width="130.5" height="19.2"/>
	</g>
</g>
<g>
	<defs>
		<rect id="SVGID_15_" x="0.9" y="0.8" width="375.8" height="421.5"/>
	</defs>
	<defs>
		<path id="SVGID_16_" d="M93.8,181.1c-4.8,0-8.7-3.9-8.7-8.7c0-4.8,3.9-8.7,8.7-8.7h37c4.8,0,8.7,3.9,8.7,8.7
			c0,4.8-3.9,8.7-8.7,8.7L93.8,181.1z"/>
	</defs>
	<clipPath id="SVGID_17_">
		<use xlink:href="#SVGID_15_"  style="overflow:visible;"/>
	</clipPath>
	<clipPath id="SVGID_18_" class="st10">
		<use xlink:href="#SVGID_16_"  style="overflow:visible;"/>
	</clipPath>
	<g class="st11">
		<rect x="84.2" y="162.8" class="st12" width="56.3" height="19.2"/>
	</g>
</g>
<g>
	<defs>
		<rect id="SVGID_19_" x="0.9" y="0.8" width="375.8" height="421.5"/>
	</defs>
	<defs>
		<path id="SVGID_20_" d="M172.8,329.6c-4.8,0-8.7-3.9-8.7-8.7s3.9-8.7,8.7-8.7h54.1c4.8,0,8.7,3.9,8.7,8.7s-3.9,8.7-8.7,8.7H172.8z
			"/>
	</defs>
	<clipPath id="SVGID_21_">
		<use xlink:href="#SVGID_19_"  style="overflow:visible;"/>
	</clipPath>
	<clipPath id="SVGID_22_" class="st13">
		<use xlink:href="#SVGID_20_"  style="overflow:visible;"/>
	</clipPath>
	<g class="st14">
		<rect x="163.2" y="311.3" class="st3" width="73.4" height="19.2"/>
	</g>
</g>
<g>
	<defs>
		<rect id="SVGID_23_" x="0.9" y="0.8" width="375.8" height="421.5"/>
	</defs>
	<defs>
		<path id="SVGID_24_" d="M139.9,104.3c-4.8,0-8.7-3.9-8.7-8.7c0-4.8,3.9-8.7,8.7-8.7l0,0h68c4.8,0,8.7,3.9,8.7,8.7
			c0,4.8-3.9,8.7-8.7,8.7H139.9z"/>
	</defs>
	<clipPath id="SVGID_25_">
		<use xlink:href="#SVGID_23_"  style="overflow:visible;"/>
	</clipPath>
	<clipPath id="SVGID_26_" class="st15">
		<use xlink:href="#SVGID_24_"  style="overflow:visible;"/>
	</clipPath>
	<g class="st16">
		<rect x="130.2" y="86" class="st6" width="87.2" height="19.2"/>
	</g>
</g>
<g>
	<defs>
		<rect id="SVGID_27_" x="0.9" y="0.8" width="375.8" height="421.5"/>
	</defs>
	<defs>
		<path id="SVGID_28_" d="M69.5,257.9c-4.8,0-8.7-3.9-8.7-8.7s3.9-8.7,8.7-8.7l0,0h56.8c4.8,0,8.7,3.9,8.7,8.7s-3.9,8.7-8.7,8.7
			H69.5z"/>
	</defs>
	<clipPath id="SVGID_29_">
		<use xlink:href="#SVGID_27_"  style="overflow:visible;"/>
	</clipPath>
	<clipPath id="SVGID_30_" class="st17">
		<use xlink:href="#SVGID_28_"  style="overflow:visible;"/>
	</clipPath>
	<g class="st18">
		<rect x="59.9" y="239.6" class="st9" width="76.1" height="19.2"/>
	</g>
</g>
<g>
	<defs>
		<rect id="SVGID_31_" x="0.9" y="0.8" width="375.8" height="421.5"/>
	</defs>
	<defs>
		<path id="SVGID_32_" d="M162.8,257.9c-4.8,0-8.7-3.9-8.7-8.7s3.9-8.7,8.7-8.7h133.1c4.8,0,8.7,3.9,8.7,8.7s-3.9,8.7-8.7,8.7l0,0
			H162.8z"/>
	</defs>
	<clipPath id="SVGID_33_">
		<use xlink:href="#SVGID_31_"  style="overflow:visible;"/>
	</clipPath>
	<clipPath id="SVGID_34_" class="st19">
		<use xlink:href="#SVGID_32_"  style="overflow:visible;"/>
	</clipPath>
	<g class="st20">
		<rect x="153.2" y="239.6" class="st21" width="152.4" height="19.2"/>
	</g>
</g>
<g>
	<defs>
		<rect id="SVGID_35_" x="0.9" y="0.8" width="375.8" height="421.5"/>
	</defs>
	<defs>
		<path id="SVGID_36_" d="M83.5,291.1c-4.8,0-8.7-3.9-8.7-8.7s3.9-8.7,8.7-8.7H175c4.8,0,8.7,3.9,8.7,8.7s-3.9,8.7-8.7,8.7H83.5z"/>
	</defs>
	<clipPath id="SVGID_37_">
		<use xlink:href="#SVGID_35_"  style="overflow:visible;"/>
	</clipPath>
	<clipPath id="SVGID_38_" class="st22">
		<use xlink:href="#SVGID_36_"  style="overflow:visible;"/>
	</clipPath>
	<g class="st23">
		<rect x="73.9" y="272.8" class="st12" width="110.8" height="19.2"/>
	</g>
</g>
<g>
	<defs>
		<rect id="SVGID_39_" x="0.9" y="0.8" width="375.8" height="421.5"/>
	</defs>
	<defs>
		<path id="SVGID_40_" d="M130.9,142.6c-4.8,0-8.7-3.9-8.7-8.7c0-4.8,3.9-8.7,8.7-8.7h162.5c4.8,0,8.7,3.9,8.7,8.7
			c0,4.8-3.9,8.7-8.7,8.7H130.9z"/>
	</defs>
	<clipPath id="SVGID_41_">
		<use xlink:href="#SVGID_39_"  style="overflow:visible;"/>
	</clipPath>
	<clipPath id="SVGID_42_" class="st24">
		<use xlink:href="#SVGID_40_"  style="overflow:visible;"/>
	</clipPath>
	<g class="st25">
		<rect x="121.3" y="124.3" class="st3" width="181.8" height="19.2"/>
	</g>
</g>
<g>
	<defs>
		<rect id="SVGID_43_" x="0.9" y="0.8" width="375.8" height="421.5"/>
	</defs>
	<defs>
		<path id="SVGID_44_" d="M69.5,219.4c-4.8,0-8.7-3.9-8.7-8.7c0-4.8,3.9-8.7,8.7-8.7H305c4.8,0,8.7,3.9,8.7,8.7
			c0,4.8-3.9,8.7-8.7,8.7L69.5,219.4z"/>
	</defs>
	<clipPath id="SVGID_45_">
		<use xlink:href="#SVGID_43_"  style="overflow:visible;"/>
	</clipPath>
	<clipPath id="SVGID_46_" class="st26">
		<use xlink:href="#SVGID_44_"  style="overflow:visible;"/>
	</clipPath>
	<g class="st27">
		<rect x="59.9" y="201.1" class="st21" width="254.7" height="19.2"/>
	</g>
</g>
<g class="st28">
	<path d="M97.9,448.9h20.4c18.7,0,30.9,12.4,30.9,31.8s-12.2,31.8-30.9,31.8H97.9V448.9z M118.2,505.2c14.4,0,22.9-9.5,22.9-24.5
		s-8.5-24.6-22.9-24.6h-12.1v49H118.2z"/>
</g>
<g class="st28">
	<path d="M178.3,513.5c-12.6,0-21.1-9.8-21.1-23.9s8.5-23.9,21.1-23.9c12.5,0,21.1,9.8,21.1,23.9S190.9,513.5,178.3,513.5z
		 M178.3,472.4c-8.3,0-13.3,7-13.3,17.1c0,10.1,5,17.1,13.3,17.1c8.3,0,13.3-7,13.3-17.1C191.6,479.5,186.6,472.4,178.3,472.4z"/>
</g>
<g class="st28">
	<path d="M233.6,474.3c-1.2-0.8-3.2-1.2-5.2-1.2c-4.9,0-9.1,3.2-10.7,8.6v30.9h-7.8v-46h7.8v6c2-3.9,6.3-6.9,11.4-6.9
		c2,0,3.6,0.3,4.5,0.7V474.3z"/>
</g>
<g class="st28">
	<path d="M251,530.2l6.9-17.3L240,466.5h8.4l13.6,36.3l13.4-36.3h8.1l-24.8,63.6H251z"/>
</g>
</svg>
