<svg id="图层_1" data-name="图层 1" xmlns="http://www.w3.org/2000/svg" viewBox="0 0 431.98 74.11"><defs><style>.cls-1{fill:#325ab4;}.cls-2{fill:#78e6dc;}.cls-3{fill:#3c8cff;}.cls-4{fill:#00c8d2;}</style></defs><title>画板 2</title><path class="cls-1" d="M127.94,32.67a11.81,11.81,0,0,0,3.45-3.6A10.9,10.9,0,0,0,133,23.23a13.52,13.52,0,0,0-1.74-6.85,13.88,13.88,0,0,0-5.09-5,14.43,14.43,0,0,0-4.92-1.68,48.5,48.5,0,0,0-7.81-.5H101.19V60h18.63a17.55,17.55,0,0,0,11.89-4.16,13.27,13.27,0,0,0,4.83-10.35A13.6,13.6,0,0,0,134,37.17,14,14,0,0,0,127.94,32.67Zm-4.72-4.07a9.76,9.76,0,0,1-6.44,1.91h-7.89V16h7.45c3.06,0,5.37.62,6.87,1.85a6.52,6.52,0,0,1,2.21,5.42A6.53,6.53,0,0,1,123.22,28.6Zm-14.33,8.88h9.38c3.47,0,6.11.67,7.84,2a6.6,6.6,0,0,1,2.53,5.68,6.65,6.65,0,0,1-2.6,5.75c-1.79,1.32-4.49,2-8,2h-9.12Z"/><path class="cls-1" d="M188.3,16.39H181v8.29H167.1l-9,21.92c-.16.38-.44,1.17-.86,2.43-.25.75-.53,1.61-.85,2.56-.29-1-.55-1.9-.78-2.65a18.21,18.21,0,0,0-.8-2.33l-8.93-21.93H137.7l14.48,34.67-6.25,14.76h7.49L172.34,31H181V52.29c0,3,.72,5.22,2.13,6.56s3.74,2,6.93,2h4v-7h-3.81a2,2,0,0,1-1.5-.47,2.78,2.78,0,0,1-.46-1.8V31h5.77V24.68H188.3Z"/><path class="cls-1" d="M215.65,23.83A17.54,17.54,0,0,0,202.53,29c-3.33,3.44-5,8-5,13.55a19.18,19.18,0,0,0,1.21,6.76A17.29,17.29,0,0,0,202.21,55a17.59,17.59,0,0,0,6.2,4.3,20,20,0,0,0,7.75,1.5,21.18,21.18,0,0,0,9-1.86,22.14,22.14,0,0,0,7.35-5.77l.43-.5-5.33-4.28-.4.46a16.27,16.27,0,0,1-5,4,13.24,13.24,0,0,1-5.86,1.32,11.94,11.94,0,0,1-8.08-2.75A9.61,9.61,0,0,1,204.89,45h29.22V43.87c0-6-1.71-10.84-5.09-14.5A17.4,17.4,0,0,0,215.65,23.83ZM208.29,33a10.92,10.92,0,0,1,7.3-2.59A10.53,10.53,0,0,1,222.7,33a10.09,10.09,0,0,1,3.34,5.9H204.9A9.86,9.86,0,0,1,208.29,33Z"/><path class="cls-1" d="M274.7,15.64c-4.94-4.29-12.21-6.47-21.61-6.47h-10.9V60h10.9c9.4,0,16.67-2.18,21.61-6.47s7.48-10.69,7.48-18.92S279.67,20,274.7,15.64ZM254.07,52.88H250V16.31h4.11c6.72,0,11.85,1.54,15.22,4.59s5.06,7.65,5.06,13.7-1.7,10.63-5.06,13.67S260.79,52.88,254.07,52.88Z"/><path class="cls-1" d="M315.4,29.14a16.08,16.08,0,0,0-4.65-3.46A16.91,16.91,0,0,0,303.28,24c-5.35,0-9.71,1.69-13,5s-4.91,7.77-4.91,13.17a19.4,19.4,0,0,0,1.24,7A17.4,17.4,0,0,0,290.35,55,17.89,17.89,0,0,0,296.27,59a18.15,18.15,0,0,0,7,1.39,16.64,16.64,0,0,0,7.35-1.57A14.08,14.08,0,0,0,315,55.59V60h7.3V24.68H315.4Zm-3.28,4.74a11.71,11.71,0,0,1,3.15,8.41,11.68,11.68,0,0,1-3.15,8.42,11.53,11.53,0,0,1-16,0,11.64,11.64,0,0,1-3.15-8.43,11.65,11.65,0,0,1,3.15-8.42,11.48,11.48,0,0,1,16,0Z"/><path class="cls-1" d="M344.66,24a13.31,13.31,0,0,0-5.59,1.18,15.16,15.16,0,0,0-3.83,2.52v-3H328V60h7.23V40.48c0-3.35.71-5.87,2.11-7.51s3.48-2.42,6.27-2.42c2.45,0,4.18.73,5.3,2.23s1.72,4,1.72,7.45V60h7.29V39.63c0-4.8-1.19-8.63-3.54-11.4A12.13,12.13,0,0,0,344.66,24Z"/><path class="cls-1" d="M387.14,50.66a8.8,8.8,0,0,1-3.3,2.63,10.79,10.79,0,0,1-4.5.89,9.66,9.66,0,0,1-7.61-3.27,12.39,12.39,0,0,1-3-8.56,12.51,12.51,0,0,1,3-8.61,9.64,9.64,0,0,1,7.58-3.32,10.9,10.9,0,0,1,4.26.79,9,9,0,0,1,3.3,2.45l.49.55,4.72-5.46-.47-.42a17,17,0,0,0-5.54-3.39,20.9,20.9,0,0,0-14,.18A16.41,16.41,0,0,0,366.39,29a17.47,17.47,0,0,0-3.93,6,21.1,21.1,0,0,0,0,14.69,17.75,17.75,0,0,0,3.92,6,16.45,16.45,0,0,0,5.76,3.82,19.48,19.48,0,0,0,7.2,1.31,19.11,19.11,0,0,0,6.83-1.16A18.45,18.45,0,0,0,392,56l.46-.42-4.81-5.52Z"/><path class="cls-1" d="M432,43.87c0-6-1.71-10.84-5.09-14.5A19,19,0,0,0,400.4,29c-3.34,3.44-5,8-5,13.55a19,19,0,0,0,1.22,6.76A17.26,17.26,0,0,0,400.07,55a17.72,17.72,0,0,0,6.21,4.3,19.93,19.93,0,0,0,7.75,1.5,21.21,21.21,0,0,0,9-1.86,22.24,22.24,0,0,0,7.35-5.77l.43-.5-5.33-4.28-.4.46a16,16,0,0,1-5,4,13.21,13.21,0,0,1-5.86,1.32,12,12,0,0,1-8.08-2.75A9.64,9.64,0,0,1,402.76,45H432ZM406.16,33a10.9,10.9,0,0,1,7.29-2.59A10.54,10.54,0,0,1,420.57,33a10.09,10.09,0,0,1,3.34,5.9H402.77A9.86,9.86,0,0,1,406.16,33Z"/><polygon class="cls-1" points="13.01 59.4 0 62.74 0 3.47 13.01 6.81 13.01 59.4"/><polygon class="cls-2" points="75.85 62.87 62.84 66.21 62.84 0 75.85 3.34 75.85 62.87"/><polygon class="cls-3" points="33.64 61.2 20.63 64.54 20.63 29.64 33.64 32.98 33.64 61.2"/><polygon class="cls-4" points="42.15 24.47 55.16 21.13 55.16 56.03 42.15 52.69 42.15 24.47"/></svg>