<svg xmlns="http://www.w3.org/2000/svg" role="img" viewBox="-105.70 -105.70 5496.40 1971.40"><style>svg {isolation:isolate}</style><defs><clipPath id="_clipPath_OmNU4TxrDUJ8HL603l3FqgNvn4scweQZ"><path d="M0 0h5288v1763H0z"/></clipPath></defs><g clip-path="url(#_clipPath_OmNU4TxrDUJ8HL603l3FqgNvn4scweQZ)"><path fill="#FFF" d="M3308 1766H2V2h5288v1764H3308zM76.323 819c0 155.325.013 310.649-.028 465.974-.003 11.315-.581 22.63-.573 33.946.007 9.362 1.414 18.422 5.567 27.097 6.124 12.794 17.101 20.113 28.697 26.802 103.402 59.641 206.885 119.139 310.249 178.846 88.971 51.393 177.795 103.039 266.767 154.431 5.699 3.291 11.909 6.051 18.226 7.85 15.506 4.417 29.451-.696 42.738-8.407 59.53-34.551 119.014-69.182 178.599-103.638 100.745-58.258 201.543-116.425 302.342-174.59 34.557-19.941 69.21-39.713 103.764-59.657 15.502-8.948 24.628-22.093 25.115-40.368.248-9.299-.101-18.613-.102-27.92-.011-114.328-.063-228.657.079-342.985.015-11.598.875-23.228 1.949-34.787 4.351-46.859 25.758-84.486 64.369-110.961 49.277-33.788 101.291-37.182 154.415-8.622 22.837 12.277 45.175 25.481 67.912 37.948 10.754 5.896 21.661 11.663 32.974 16.336 8.498 3.511 17.706 3.61 25.677-2.34 11.296-8.431 13.951-28.19.261-39.145-4.915-3.934-10.397-7.194-15.776-10.509-28.895-17.807-57.919-35.406-86.731-53.348-12.194-7.593-23.286-16.702-32.4-27.903-29.668-36.462-40.613-78.051-32.031-124.178 7.327-39.385 27.53-71.023 61.223-93.245 17.486-11.533 35.426-22.399 53.407-33.154 31.107-18.606 62.47-36.783 93.56-55.416 5.067-3.037 9.819-7.009 13.775-11.397 6.867-7.616 7.951-16.53 3.46-25.945-4.457-9.344-11.527-14.339-22.18-13.616-9.444.641-18.236 3.222-26.406 8.093-26.566 15.838-53.027 31.86-79.83 47.287-21.02 12.097-42.079 24.253-63.859 34.868-26.131 12.735-54.003 19.12-83.156 13.572-47.021-8.947-84.635-32.188-109.271-74.37-15.366-26.311-21.119-55.004-21.374-85.02-.247-28.997.149-58-.197-86.995-.086-7.203-1.345-14.539-3.14-21.539-2.271-8.853-8.846-14.184-17.694-15.625-9.386-1.528-17.832.797-23.864 8.993-5.729 7.783-8.324 16.665-8.442 26.109-.404 32.317-.446 64.637-.78 96.955-.065 6.278-.671 12.563-1.277 18.821-4.845 50.006-29.653 87.446-72.457 112.884-32.377 19.24-67.226 26.364-104.463 17.564-23.178-5.477-44.553-15.417-65.084-27.286-105.659-61.082-211.424-121.981-316.867-183.432-18.763-10.935-35.606-10.784-54.233.144-70.554 41.388-141.454 82.188-212.301 123.076-124.995 72.138-250.006 144.249-375.117 216.184-17.523 10.075-26.635 24.352-26.166 44.666.322 13.984.618 27.971.644 41.958.081 44.664.03 89.329.03 135.994zm2348.194 534.541c18.236-15.533 33.443-33.745 46.262-54.071.657.258 1.315.516 1.972.774v105.246h174.958V470.72c-17.989-1.958-167.832-1.21-175.66 1.035 0 110.721 0 221.676-.027 332.631 0 .197-.385.44-.635.579-.277.153-.607.211-1.215.408-20.901-28.581-47.137-51.413-77.801-69.155-64.865-37.53-134.374-49.109-208.052-36.69-62.623 10.556-116.824 37.889-162.009 82.553-43.979 43.474-72.118 96.154-88.219 155.458-14.303 52.679-17.07 106.33-12.535 160.552 4.295 51.353 17.028 100.326 40.572 146.291 31.948 62.368 78.019 110.838 141.215 142.111 52.078 25.771 107.238 34.568 164.986 29.859 58.162-4.743 110.148-24.351 156.188-62.811zM3874.327 1019c-.105-103.649-.21-207.298-.334-310.947 0-.274-.253-.578-.451-.813-.212-.25-.501-.436-.509-.443h-173.405v103.192c-3.31-3.982-5.389-6.378-7.355-8.863-32.647-41.261-73.802-71.004-123.031-89.15-47.86-17.64-97.435-20.582-147.71-14.293-62.334 7.798-117.125 32.619-163.5 74.939-53.953 49.234-86.074 111.111-102.061 181.777-10.826 47.856-12.51 96.291-8.303 145.066 4.4 50.996 17.16 99.637 40.619 145.243 33.534 65.195 82.046 115.299 149.232 146.054 55.48 25.397 113.703 32.089 173.781 23.404 75.461-10.909 136.545-46.553 182.683-107.471 1.441-1.904 3.16-3.598 6.328-7.169v105.881h174.016V1019zm374.29-445.629c18.012-2.363 36.024-4.725 54.325-7.126v-143.65c-3.417-.177-6.335-.542-9.237-.445-18.309.609-36.665.687-54.911 2.138-31.634 2.515-62.625 8.536-92.489 19.676-63.379 23.641-105.038 67.504-123.497 132.823-7.559 26.747-11.147 54.104-11.135 81.915.005 13 .042 26-.037 38.999-.015 2.526-.495 5.049-.81 8.036-13.7 0-26.675-.057-39.649.015-13.162.073-26.349-.326-39.262.231v142.079h79.758v371.879c0 31-.081 61.999.022 92.998.102 30.82-.454 61.653.335 92.347h175.905V847.627h122.095V705.674h-120.74c-.763-1.408-1.346-1.974-1.327-2.521.721-21.277-.039-42.746 2.616-63.784 4.24-33.608 21.479-57.633 58.038-65.998zM4356.327 803v45.41h83.777v12.601c0 109.664-.041 219.329.027 328.993.019 29.775 3.118 59.18 11.86 87.795 16.46 53.87 50.623 91.361 103.495 111.302 31.211 11.771 63.783 16.486 96.959 16.823 37.328.379 74.664.102 111.997.065 2.563-.002 5.125-.389 7.649-.593v-145.149h-10.353c-22.666 0-45.336.229-67.997-.106-9.957-.147-20.012-.744-29.822-2.354-26.882-4.414-41.258-18.449-46.528-45.152-1.407-7.127-1.821-14.549-1.828-21.837-.111-110.664-.077-221.329-.078-331.994v-10.736h156.477V705.731h-156.86V532.685h-175.245v173.712h-83.53V803zm719.87 104c0-9.665-.02-19.331.007-28.996.028-9.846.103-19.693.162-30.351h156.816c1.964-20.98 1.161-134.12-1.177-142.041h-155.957V532.734h-174.731V619.23c0 14.665.029 29.329-.008 43.994-.035 14.154.172 28.32-.17 43.315h-83.054v141.8h83.232v13.106c0 108.985.015 217.97-.01 326.955-.006 26.74 2.095 53.238 8.794 79.221 16.797 65.147 57.163 107.6 121.903 126.638 26.396 7.762 53.416 11.397 80.826 11.66 37.658.362 75.322.107 112.983.062 2.529-.003 5.057-.466 7.45-.701v-145.03h-10.414c-22.663 0-45.33.21-67.989-.099-9.624-.132-19.332-.718-28.831-2.197-28.811-4.486-44.265-20.35-48.325-49.104-.928-6.569-1.437-13.256-1.444-19.889-.091-93.32-.062-186.641-.063-281.961zM2815 706.115c-13.333 0-26.666-.018-39.998.005-13.509.023-27.024-.105-40.29.082v698.943c15.058 1.853 165.937 1.225 173.35-.767v-11.802c0-112.661.008-225.322-.006-337.984-.002-24.073 2.362-47.868 7.981-71.314 10.339-43.147 34.957-74.097 76.879-90.384 18.779-7.296 38.259-11.735 58.304-12.78 20.617-1.075 41.295-1.007 61.945-1.47 3.493-.078 6.982-.309 10.294-.46 1.905-24.926 1.079-174.149-1.035-182.088-34.91.351-68.724 6.521-100.765 20.927-44.686 20.09-79.852 51.296-106.518 92.287-1.767 2.717-2.638 6.615-7.591 7.953V706.115H2815zM1349.134 128.076c5.888-5.958 9.197-12.883 8.623-21.503-.241-3.619-.222-7.357.398-10.915 2.589-14.835-4.975-25.452-14.166-35.546-5.844-6.418-12.967-9.86-21.416-7.4-8.71 2.536-13.462 9.136-15.011 18.165-3.099 18.068-.929 35.804 4.33 53.029 3.413 11.177 17.333 15.925 27.846 10.605 2.939-1.487 5.564-3.592 9.396-6.435zm402.558 753.269c-.723 11.698 4.076 20.603 13.811 26.883 5.585 3.602 11.01 7.707 17.066 10.259 7.234 3.049 14.992 6.252 22.654 6.61 18.321.858 27.35-11.156 23.131-29.063-.588-2.494-1.146-5.686-2.894-7.109-15.6-12.694-32.465-23.358-52.143-28.498-8.063-2.107-15.248 1.987-18.734 9.688-1.346 2.973-1.8 6.349-2.891 11.23zm45.123-528.325c3.92 3.581 7.818 7.185 11.767 10.733 3.211 2.885 6.763 3.701 10.96 2.103 17.47-6.652 34.158-14.777 48.946-26.346 9.143-7.153 10.491-17.648 3.943-27.337-6.291-9.307-16.139-12.492-29.158-9.118-15.608 4.045-28.545 12.561-38.588 25.015-5.396 6.691-10.223 14.096-7.87 24.95z" opacity=".1"/><path fill="#333289" d="M76.323 818c0-45.665.051-90.33-.03-134.994-.026-13.987-.322-27.974-.644-41.958-.469-20.314 8.643-34.591 26.166-44.666 125.111-71.935 250.122-144.046 375.117-216.184 70.847-40.888 141.747-81.688 212.301-123.076 18.627-10.928 35.47-11.079 54.233-.144 105.443 61.451 211.208 122.35 316.867 183.432 20.531 11.869 41.906 21.809 65.084 27.286 37.237 8.8 72.086 1.676 104.463-17.564 42.804-25.438 67.612-62.878 72.457-112.884.606-6.258 1.212-12.543 1.277-18.821.334-32.318.376-64.638.78-96.955.118-9.444 2.713-18.326 8.442-26.109 6.032-8.196 14.478-10.521 23.864-8.993 8.848 1.441 15.423 6.772 17.694 15.625 1.795 7 3.054 14.336 3.14 21.539.346 28.995-.05 57.998.197 86.995.255 30.016 6.008 58.709 21.374 85.02 24.636 42.182 62.25 65.423 109.271 74.37 29.153 5.548 57.025-.837 83.156-13.572 21.78-10.615 42.839-22.771 63.859-34.868 26.803-15.427 53.264-31.449 79.83-47.287 8.17-4.871 16.962-7.452 26.406-8.093 10.653-.723 17.723 4.272 22.18 13.616 4.491 9.415 3.407 18.329-3.46 25.945-3.956 4.388-8.708 8.36-13.775 11.397-31.09 18.633-62.453 36.81-93.56 55.416-17.981 10.755-35.921 21.621-53.407 33.154-33.693 22.222-53.896 53.86-61.223 93.245-8.582 46.127 2.363 87.716 32.031 124.178 9.114 11.201 20.206 20.31 32.4 27.903 28.812 17.942 57.836 35.541 86.731 53.348 5.379 3.315 10.861 6.575 15.776 10.509 13.69 10.955 11.035 30.714-.261 39.145-7.971 5.95-17.179 5.851-25.677 2.34-11.313-4.673-22.22-10.44-32.974-16.336-22.737-12.467-45.075-25.671-67.912-37.948-53.124-28.56-105.138-25.166-154.415 8.622-38.611 26.475-60.018 64.102-64.369 110.961-1.074 11.559-1.934 23.189-1.949 34.787-.142 114.328-.09 228.657-.079 342.985.001 9.307.35 18.621.102 27.92-.487 18.275-9.613 31.42-25.115 40.368-34.554 19.944-69.207 39.716-103.764 59.657-100.799 58.165-201.597 116.332-302.342 174.59-59.585 34.456-119.069 69.087-178.599 103.638-13.287 7.711-27.232 12.824-42.738 8.407-6.317-1.799-12.527-4.559-18.226-7.85-88.972-51.392-177.796-103.038-266.767-154.431-103.364-59.707-206.847-119.205-310.249-178.846-11.596-6.689-22.573-14.008-28.697-26.802-4.153-8.675-5.56-17.735-5.567-27.097-.008-11.316.57-22.631.573-33.946.041-155.325.028-310.649.028-466.974zm171.638-245.12c-32.885 18.839-65.793 37.64-98.646 56.535-15.77 9.07-23.826 22.715-23.628 41.024.183 16.984.612 33.967.617 50.951.047 167.639.053 335.277-.001 502.915-.007 22.646-.356 45.292-.646 67.936-.156 12.114 2.794 23.368 11.194 32.148 5.192 5.426 11.601 9.987 18.132 13.785 44.261 25.74 88.735 51.115 133.077 76.717 136.192 78.638 272.396 157.256 408.47 236.099 13.887 8.046 26.761 7.943 40.409-.022 47.096-27.486 94.267-54.846 141.512-82.075 107.162-61.761 214.385-123.417 321.584-185.112 27.951-16.087 55.899-32.177 83.864-48.239 13.765-7.905 20.925-18.641 20.708-35.624-.741-57.98-.2-115.976-.307-173.966-.12-64.976-.312-129.952-.747-194.926-.062-9.238-1.087-18.566-2.657-27.681-6.337-36.777-24.875-66.553-54.671-88.55-47.065-34.745-97.893-41.993-152.224-17.963-7.26 3.211-14.808 6.067-22.503 7.928-10.654 2.577-21.412-2.916-27.962-13.055-5.021-7.772-4.042-16.156 3.112-25.771 1.186-1.594 2.562-3.088 4.046-4.408 5.958-5.294 11.76-10.801 18.038-15.692 33.683-26.242 54.463-60.462 58.564-102.797 5.846-60.363-17.874-107.797-68.887-140.687-24.856-16.026-50.63-30.644-76.16-45.606-80.034-46.907-160.184-93.618-240.206-140.545-15.256-8.947-30.522-10.212-46.38-2.093-2.072 1.061-4.193 2.04-6.203 3.208-74.455 43.255-148.837 86.635-223.362 129.769-72.223 41.801-144.591 83.35-218.137 125.797z"/><path fill="#323288" d="M2423.964 1353.985c-45.487 38.016-97.473 57.624-155.635 62.367-57.748 4.709-112.908-4.088-164.986-29.859-63.196-31.273-109.267-79.743-141.215-142.111-23.544-45.965-36.277-94.938-40.572-146.291-4.535-54.222-1.768-107.873 12.535-160.552 16.101-59.304 44.24-111.984 88.219-155.458 45.185-44.664 99.386-71.997 162.009-82.553 73.678-12.419 143.187-.84 208.052 36.69 30.664 17.742 56.9 40.574 77.801 69.155.608-.197.938-.255 1.215-.408.25-.139.635-.382.635-.579.027-110.955.027-221.91.027-332.631 7.828-2.245 157.671-2.993 175.66-1.035v934.77h-174.958v-105.246c-.657-.258-1.315-.516-1.972-.774-12.819 20.326-28.026 38.538-46.815 54.515zm-313.72-217.462c7.265 20.202 17.027 39.155 30.332 55.977 44.104 55.766 101.792 81.324 172.218 70.526 74.384-11.406 123.534-55.533 148.771-126.188 6.979-19.542 9.903-39.973 11.344-60.672 2.361-33.915-.535-67.235-11.017-99.635-28.101-86.86-111.674-140.476-201.789-127.954-72.443 10.067-121.751 51.549-147.895 118.935-21.333 54.983-19.95 111.395-1.964 169.011zM3874.327 1020v385.407h-174.016v-105.881c-3.168 3.571-4.887 5.265-6.328 7.169-46.138 60.918-107.222 96.562-182.683 107.471-60.078 8.685-118.301 1.993-173.781-23.404-67.186-30.755-115.698-80.859-149.232-146.054-23.459-45.606-36.219-94.247-40.619-145.243-4.207-48.775-2.523-97.21 8.303-145.066 15.987-70.666 48.108-132.543 102.061-181.777 46.375-42.32 101.166-67.141 163.5-74.939 50.275-6.289 99.85-3.347 147.71 14.293 49.229 18.146 90.384 47.889 123.031 89.15 1.966 2.485 4.045 4.881 7.355 8.863V706.797h173.405c.008.007.297.193.509.443.198.235.451.539.451.813.124 103.649.229 207.298.334 311.947zm-395.504 242.411c19.805 4.133 39.822 4.469 59.606 1.011 72.831-12.731 122.852-53.887 147.747-123.434 18.611-51.992 18.515-105.473 3.268-158.241-27.29-94.446-119.686-150.65-215.667-131.168-66.35 13.468-111.362 54.095-135.419 116.445-21.755 56.384-21.66 114.545-1.054 171.128 23.964 65.802 70.049 108.796 141.519 124.259zm768.999-688.831c-35.764 8.156-53.003 32.181-57.243 65.789-2.655 21.038-1.895 42.507-2.616 63.784-.019.547.564 1.113 1.327 2.521h120.74v141.953h-122.095v557.659H4012.03c-.789-30.694-.233-61.527-.335-92.347-.103-30.999-.022-61.998-.022-92.998v-92.997-91.998-92.998-93.886h-79.758V705.983c12.913-.557 26.1-.158 39.262-.231 12.974-.072 25.949-.015 39.649-.015.315-2.987.795-5.51.81-8.036.079-12.999.042-25.999.037-38.999-.012-27.811 3.576-55.168 11.135-81.915 18.459-65.319 60.118-109.182 123.497-132.823 29.864-11.14 60.855-17.161 92.489-19.676 18.246-1.451 36.602-1.529 54.911-2.138 2.902-.097 5.82.268 9.237.445v143.65c-18.301 2.401-36.313 4.763-55.12 7.335zM4356.327 802v-95.603h83.53V532.685h175.245v173.046h156.86v142.337h-156.477v10.736c.001 110.665-.033 221.33.078 331.994.007 7.288.421 14.71 1.828 21.837 5.27 26.703 19.646 40.738 46.528 45.152 9.81 1.61 19.865 2.207 29.822 2.354 22.661.335 45.331.106 67.997.106h10.353v145.149c-2.524.204-5.086.591-7.649.593-37.333.037-74.669.314-111.997-.065-33.176-.337-65.748-5.052-96.959-16.823-52.872-19.941-87.035-57.432-103.495-111.302-8.742-28.615-11.841-58.02-11.86-87.795-.068-109.664-.027-219.329-.027-328.993V848.41h-83.777V802z"/><path fill="#323188" d="M5076.197 908c.001 94.32-.028 187.641.063 280.961.007 6.633.516 13.32 1.444 19.889 4.06 28.754 19.514 44.618 48.325 49.104 9.499 1.479 19.207 2.065 28.831 2.197 22.659.309 45.326.099 67.989.099h10.414v145.03c-2.393.235-4.921.698-7.45.701-37.661.045-75.325.3-112.983-.062-27.41-.263-54.43-3.898-80.826-11.66-64.74-19.038-105.106-61.491-121.903-126.638-6.699-25.983-8.8-52.481-8.794-79.221.025-108.985.01-217.97.01-326.955v-13.106h-83.232v-141.8h83.054c.342-14.995.135-29.161.17-43.315.037-14.665.008-29.329.008-43.994v-42.994-43.502h174.731v172.878h155.957c2.338 7.921 3.141 121.061 1.177 142.041h-156.816c-.059 10.658-.134 20.505-.162 30.351-.027 9.665-.007 19.331-.007 29.996z"/><path fill="#323288" d="M2816 706.115h91.55v111.148c4.953-1.338 5.824-5.236 7.591-7.953 26.666-40.991 61.832-72.197 106.518-92.287 32.041-14.406 65.855-20.576 100.765-20.927 2.114 7.939 2.94 157.162 1.035 182.088-3.312.151-6.801.382-10.294.46-20.65.463-41.328.395-61.945 1.47-20.045 1.045-39.525 5.484-58.304 12.78-41.922 16.287-66.54 47.237-76.879 90.384-5.619 23.446-7.983 47.241-7.981 71.314.014 112.662.006 225.323.006 337.984v11.802c-7.413 1.992-158.292 2.62-173.35.767V706.202c13.266-.187 26.781-.059 40.29-.082 13.332-.023 26.665-.005 40.998-.005z"/><path fill="#35348A" d="M1348.603 128.587c-3.301 2.332-5.926 4.437-8.865 5.924-10.513 5.32-24.433.572-27.846-10.605-5.259-17.225-7.429-34.961-4.33-53.029 1.549-9.029 6.301-15.629 15.011-18.165 8.449-2.46 15.572.982 21.416 7.4 9.191 10.094 16.755 20.711 14.166 35.546-.62 3.558-.639 7.296-.398 10.915.574 8.62-2.735 15.545-9.154 22.014z"/><path fill="#35358A" d="M1751.807 880.501c.976-4.037 1.43-7.413 2.776-10.386 3.486-7.701 10.671-11.795 18.734-9.688 19.678 5.14 36.543 15.804 52.143 28.498 1.748 1.423 2.306 4.615 2.894 7.109 4.219 17.907-4.81 29.921-23.131 29.063-7.662-.358-15.42-3.561-22.654-6.61-6.056-2.552-11.481-6.657-17.066-10.259-9.735-6.28-14.534-15.185-13.696-27.727z"/><path fill="#35348A" d="M1796.428 352.335c-1.966-10.169 2.861-17.574 8.257-24.265 10.043-12.454 22.98-20.97 38.588-25.015 13.019-3.374 22.867-.189 29.158 9.118 6.548 9.689 5.2 20.184-3.943 27.337-14.788 11.569-31.476 19.694-48.946 26.346-4.197 1.598-7.749.782-10.96-2.103-3.949-3.548-7.847-7.152-12.154-11.418z"/><path fill="#FEFEFF" d="M2110.044 1135.762c-17.786-56.855-19.169-113.267 2.164-168.25 26.144-67.386 75.452-108.868 147.895-118.935 90.115-12.522 173.688 41.094 201.789 127.954 10.482 32.4 13.378 65.72 11.017 99.635-1.441 20.699-4.365 41.13-11.344 60.672-25.237 70.655-74.387 114.782-148.771 126.188-70.426 10.798-128.114-14.76-172.218-70.526-13.305-16.822-23.067-35.775-30.532-56.738z" opacity=".12"/><path fill="#35348A" d="M979.684 843.691c-.817 13.439-8.424 21.445-18.59 27.403-11.738 6.879-23.707 13.363-35.467 19.957-5.301-3.122-10.259-5.819-14.987-8.871-12.446-8.033-14.03-25.088-2.879-34.597 11.164-9.52 23.374-17.52 37.025-23.242 11.188-4.69 20.735-1.574 29.772 5.235 4.482 3.376 5.601 8.024 5.126 14.115z"/></g></svg>