<svg width="768" height="132" viewBox="0 0 768 132" fill="none" xmlns="http://www.w3.org/2000/svg">
<path d="M90.0334 108.468L91.5 129C91.5 129 92.25 132 96 132C99.75 132 100.5 129 100.5 129L101.967 108.468C101.913 108.491 101.858 108.513 101.802 108.535C100.472 109.067 98.5884 109.5 96.0002 109.5C93.4121 109.5 91.5287 109.067 90.1985 108.535C90.1424 108.513 90.0874 108.49 90.0334 108.468Z" fill="black"/>
<path d="M87.0634 71.227L90.0002 105C90.0002 105 91.5002 106.5 96.0002 106.5C100.5 106.5 102 105 102 105L104.937 71.2268C103.095 72.2987 100.105 73.5 96 73.5C91.8937 73.5 88.9046 72.2983 87.0634 71.227Z" fill="black"/>
<path d="M85.8523 38.0467C85.3697 38.3863 84.9868 38.8683 84.7699 39.4466L81.7458 47.5111C81.2632 48.7979 81.237 50.2114 81.6716 51.5152L86.552 66.1563C86.8466 67.0399 87.34 67.8521 88.1221 68.358C89.4927 69.2446 92.1186 70.5 95.9999 70.5C99.8812 70.5 102.507 69.2446 103.878 68.358C104.66 67.8521 105.153 67.0399 105.448 66.1563L110.328 51.5152C110.763 50.2114 110.737 48.7979 110.254 47.5111L107.23 39.4466C107.013 38.8683 106.63 38.3863 106.147 38.0467C103.477 40.5014 99.9133 42 95.9999 42C92.0865 42 88.5231 40.5014 85.8523 38.0467Z" fill="black"/>
<path d="M84.0001 27C84.0001 25.2049 82.9346 23.4363 81.3515 22.5901C77.5718 20.5698 75.0001 16.5852 75.0001 12C75.0001 5.37258 80.3727 0 87.0001 0C88.1576 0 89.2769 0.163893 90.3359 0.469739C93.8036 1.47121 98.1966 1.47121 101.664 0.469737C102.723 0.163892 103.843 0 105 0C111.627 0 117 5.37258 117 12C117 16.5852 114.428 20.5698 110.649 22.5901C109.066 23.4363 108 25.2049 108 27C108 33.6274 102.627 39 96.0001 39C89.3727 39 84.0001 33.6274 84.0001 27Z" fill="black"/>
<path d="M19.4999 45H79.2C76.5 49.5 78.4578 52.3737 79.4999 55.5L23.4512 71.5513C19.8723 72.5594 16.0419 71.263 13.811 68.2884L10.2836 63.5853C8.23828 60.8582 7.90927 57.2095 9.4338 54.1604L11.5266 49.9747C13.0388 46.9504 16.1186 45.0288 19.4999 45Z" fill="black"/>
<path d="M80.2499 42L12 40.3988C8.19034 40.24 4.85675 38.0432 3.7354 34.3988L0.39849 23.6213C0.132397 22.7565 0.00242026 21.8738 3.3493e-05 21C-0.00748597 18.247 1.2514 15.5822 3.51011 13.8432L10.3947 8.54276C12.9756 6.55577 16.4286 6.11826 19.4234 7.3988C27.1327 10.5747 73.3872 30.5609 81.3373 33.9973C82.0194 34.2922 82.3589 35.0313 82.1768 35.7517C82.0472 36.2644 81.8945 36.8819 81.7499 37.5C81.3279 39.3037 80.2499 42 80.2499 42Z" fill="black"/>
<path d="M172.5 45H112.8C115.5 49.5 113.542 52.3737 112.5 55.5L168.549 71.5513C172.128 72.5594 175.958 71.263 178.189 68.2884L181.716 63.5854C183.762 60.8582 184.091 57.2095 182.566 54.1604L180.473 49.9748C178.961 46.9504 175.881 45.0288 172.5 45Z" fill="black"/>
<path d="M111.75 42L180 40.3988C183.81 40.2401 187.143 38.0432 188.265 34.3988L191.602 23.6213C191.868 22.7565 191.998 21.8738 192 21C192.008 18.247 190.749 15.5822 188.49 13.8432L181.605 8.54278C179.024 6.55579 175.571 6.11828 172.577 7.39882C164.867 10.5747 118.613 30.561 110.663 33.9974C109.981 34.2922 109.641 35.0313 109.823 35.7518C109.953 36.2644 110.106 36.8819 110.25 37.5C110.672 39.3037 111.75 42 111.75 42Z" fill="black"/>
<path d="M647.024 17.844C646.144 20.396 645.704 23.124 645.704 26.028V36.06H635.54V47.412H645.704V105.492H659.432V47.412H672.368V36.06H659.432V26.556C659.432 24.532 659.916 22.992 660.884 21.936C661.94 20.88 663.524 20.352 665.636 20.352H672.368L675.368 10.716C674.488 10.364 673.476 10.056 672.332 9.792C671.188 9.528 669.956 9.352 668.636 9.264C667.404 9.088 666.172 9 664.94 9C660.628 9 654.284 9.836 651.908 11.508C649.62 13.18 647.992 15.292 647.024 17.844Z" fill="black"/>
<path fill-rule="evenodd" clip-rule="evenodd" d="M286.872 100.74C280.272 103.908 272.308 105.492 262.98 105.492H228V14.94H262.98C272.308 14.94 280.272 16.568 286.872 19.824C293.472 22.992 298.532 27.92 302.052 34.608C305.66 41.208 307.464 49.744 307.464 60.216C307.464 70.6 305.66 79.136 302.052 85.824C298.532 92.512 293.472 97.484 286.872 100.74ZM275.256 29.46C271.648 28.228 267.512 27.612 262.848 27.612H242.784V92.82H262.848C267.512 92.82 271.648 92.204 275.256 90.972C278.952 89.74 282.032 87.848 284.496 85.296C287.048 82.744 288.94 79.532 290.172 75.66C291.492 71.7 292.152 67.036 292.152 61.668V58.896C292.152 53.44 291.492 48.776 290.172 44.904C288.94 40.944 287.048 37.688 284.496 35.136C282.032 32.584 278.952 30.692 275.256 29.46Z" fill="black"/>
<path d="M329.652 59.952C329.036 62.416 328.728 65.188 328.728 68.268V105.492H315V36.06H326.352L327.54 47.28H328.332C329.124 45.08 330.136 43.012 331.368 41.076C332.688 39.14 334.36 37.556 336.384 36.324C338.496 35.092 341.048 34.476 344.04 34.476C345.448 34.476 346.68 34.608 347.736 34.872C348.88 35.136 349.76 35.356 350.376 35.532V48.468H345.756C342.94 48.468 340.432 48.908 338.232 49.788C336.12 50.668 334.316 51.988 332.82 53.748C331.412 55.42 330.356 57.488 329.652 59.952Z" fill="black"/>
<path fill-rule="evenodd" clip-rule="evenodd" d="M369.531 106.284C372.083 106.812 374.459 107.076 376.659 107.076C380.267 107.076 383.523 106.636 386.427 105.756C389.331 104.964 391.883 103.82 394.083 102.324C396.371 100.74 398.307 98.936 399.891 96.912H400.683V107.076L413.22 107.064L413.223 55.86C413.223 51.372 412.211 47.544 410.187 44.376C408.163 41.208 405.127 38.788 401.079 37.116C397.119 35.356 392.147 34.476 386.163 34.476C380.619 34.476 375.735 35.224 371.511 36.72C367.287 38.216 363.987 40.416 361.611 43.32C359.323 46.136 358.179 49.612 358.179 53.748V55.332C358.179 55.772 358.223 56.212 358.311 56.652H371.511V54.672C371.511 53.088 371.907 51.636 372.699 50.316C373.579 48.908 375.031 47.764 377.055 46.884C379.167 45.916 382.071 45.432 385.767 45.432C389.463 45.432 392.279 45.916 394.215 46.884C396.239 47.852 397.603 49.216 398.307 50.976C399.099 52.736 399.495 54.76 399.495 57.048V63.912C392.983 63.912 386.955 64.264 381.411 64.968C375.955 65.672 371.247 66.904 367.287 68.664C363.327 70.424 360.247 72.844 358.047 75.924C355.847 79.004 354.747 82.92 354.747 87.672C354.747 91.72 355.451 95.02 356.859 97.572C358.267 100.036 360.071 101.972 362.271 103.38C364.559 104.788 366.979 105.756 369.531 106.284ZM388.011 94.536C385.723 95.328 383.215 95.724 380.487 95.724C378.111 95.724 376.043 95.372 374.283 94.668C372.523 93.964 371.203 92.952 370.323 91.632C369.443 90.224 369.003 88.508 369.003 86.484C369.003 83.14 370.279 80.544 372.831 78.696C375.383 76.76 378.947 75.44 383.523 74.736C388.099 74.032 393.423 73.68 399.495 73.68V78.3C399.495 80.852 399.011 83.228 398.043 85.428C397.075 87.54 395.755 89.388 394.083 90.972C392.411 92.468 390.387 93.656 388.011 94.536Z" fill="black"/>
<path fill-rule="evenodd" clip-rule="evenodd" d="M437.293 129.516C434.125 129.516 431.133 128.856 428.317 127.536C425.589 126.216 423.389 124.324 421.717 121.86C420.045 119.396 419.209 116.404 419.209 112.884C419.209 109.012 420.265 105.888 422.377 103.512C424.577 101.048 427.129 99.2 430.033 97.968C427.921 97 426.205 95.592 424.885 93.744C423.653 91.896 423.037 89.784 423.037 87.408C423.037 84.152 424.225 81.512 426.601 79.488C428.977 77.464 431.749 76.144 434.917 75.528C431.837 73.504 429.417 70.952 427.657 67.872C425.985 64.792 425.149 61.316 425.149 57.444C425.149 52.78 426.249 48.776 428.449 45.432C430.649 42 433.905 39.316 438.217 37.38C442.617 35.444 447.941 34.476 454.189 34.476H492L489 42.984H478.124C479.646 44.6853 480.82 46.6013 481.645 48.732C482.789 51.372 483.361 54.276 483.361 57.444C483.361 62.02 482.305 66.024 480.193 69.456C478.081 72.888 474.869 75.572 470.557 77.508C466.333 79.444 461.097 80.412 454.849 80.412H444.025C441.913 80.412 440.197 80.852 438.877 81.732C437.645 82.612 437.029 83.932 437.029 85.692C437.029 87.188 437.645 88.42 438.877 89.388C440.109 90.356 441.737 90.84 443.761 90.84H473.065C478.169 90.84 482.393 92.556 485.737 95.988C489.081 99.332 490.753 103.644 490.753 108.924C490.753 112.796 489.741 116.272 487.717 119.352C485.781 122.52 483.009 124.984 479.401 126.744C475.881 128.592 471.789 129.516 467.125 129.516H437.293ZM435.445 116.976C437.117 118.56 439.229 119.352 441.781 119.352H466.993C468.841 119.352 470.513 119 472.009 118.296C473.505 117.592 474.693 116.58 475.573 115.26C476.453 114.028 476.893 112.62 476.893 111.036C476.893 108.396 476.057 106.328 474.385 104.832C472.801 103.336 470.821 102.588 468.445 102.588H441.781C439.317 102.588 437.249 103.424 435.577 105.096C433.905 106.68 433.069 108.66 433.069 111.036C433.069 113.5 433.861 115.48 435.445 116.976ZM454.321 70.512C459.513 70.512 463.385 69.368 465.937 67.08C468.489 64.704 469.765 61.492 469.765 57.444C469.765 53.308 468.489 50.14 465.937 47.94C463.385 45.652 459.513 44.508 454.321 44.508C449.129 44.508 445.257 45.652 442.705 47.94C440.153 50.14 438.877 53.308 438.877 57.444C438.877 60.084 439.405 62.416 440.461 64.44C441.605 66.376 443.321 67.872 445.609 68.928C447.985 69.984 450.889 70.512 454.321 70.512Z" fill="black"/>
<path fill-rule="evenodd" clip-rule="evenodd" d="M508.416 103.248C513.432 105.8 519.548 107.076 526.764 107.076C534.156 107.076 540.316 105.8 545.244 103.248C550.172 100.608 553.868 96.604 556.332 91.236C558.884 85.868 560.16 79.048 560.16 70.776C560.16 62.416 558.884 55.596 556.332 50.316C553.868 44.948 550.172 40.988 545.244 38.436C540.316 35.796 534.156 34.476 526.764 34.476C519.548 34.476 513.432 35.796 508.416 38.436C503.488 40.988 499.748 44.948 497.196 50.316C494.732 55.596 493.5 62.416 493.5 70.776C493.5 79.048 494.732 85.868 497.196 91.236C499.748 96.604 503.488 100.608 508.416 103.248ZM537.588 93.216C534.772 94.888 531.164 95.724 526.764 95.724C522.452 95.724 518.888 94.888 516.072 93.216C513.256 91.456 511.144 88.816 509.736 85.296C508.416 81.776 507.756 77.332 507.756 71.964V69.588C507.756 64.22 508.416 59.776 509.736 56.256C511.144 52.736 513.256 50.14 516.072 48.468C518.888 46.708 522.452 45.828 526.764 45.828C531.164 45.828 534.772 46.708 537.588 48.468C540.404 50.14 542.472 52.736 543.792 56.256C545.2 59.776 545.904 64.22 545.904 69.588V71.964C545.904 77.332 545.2 81.776 543.792 85.296C542.472 88.816 540.404 91.456 537.588 93.216Z" fill="black"/>
<path d="M586.104 55.2C584.52 57.928 583.728 61.14 583.728 64.836V105.492H570V36.06H581.352L582.54 45.96H583.464C585.136 43.408 587.116 41.296 589.404 39.624C591.692 37.952 594.2 36.676 596.928 35.796C599.744 34.916 602.824 34.476 606.168 34.476C610.568 34.476 614.44 35.268 617.784 36.852C621.128 38.348 623.724 40.812 625.572 44.244C627.508 47.676 628.476 52.296 628.476 58.104V105.492H614.748V60.216C614.748 57.576 614.396 55.376 613.692 53.616C613.076 51.856 612.152 50.448 610.92 49.392C609.688 48.336 608.236 47.588 606.564 47.148C604.892 46.708 603.044 46.488 601.02 46.488C597.852 46.488 594.948 47.28 592.308 48.864C589.756 50.36 587.688 52.472 586.104 55.2Z" fill="black"/>
<path d="M768 35.9329L736.32 129.857H722.325C722.325 129.857 729.06 107.823 730.116 104.919L702.264 35.9329H716.652L730.116 67.5169C730.732 69.1009 731.392 71.0809 732.096 73.4569C732.888 75.8329 733.636 78.2529 734.34 80.7169C735.132 83.1809 735.792 85.3809 736.32 87.3169H736.98C737.42 85.9969 737.86 84.5009 738.3 82.8289C738.828 81.0689 739.356 79.2649 739.884 77.4169C740.412 75.5689 740.94 73.8089 741.468 72.1369C741.996 70.3769 742.436 68.8809 742.788 67.6489L754.008 35.9329H768Z" fill="black"/>
<path d="M681.344 10.056V105.492H695.072V10.056H681.344Z" fill="black"/>
</svg>
