<svg id="Layer_1" data-name="Layer 1" xmlns="http://www.w3.org/2000/svg" viewBox="0 0 821.86 170.19"><defs><style>.cls-1{fill:#536074;}.cls-2{fill:#7aabc0;}.cls-3{fill:#8ba6eb;}.cls-4{fill:#7fb8e5;}.cls-5{fill:#7cb8e4;}.cls-6{fill:#7395e7;}.cls-7{fill:#7adbe1;}.cls-8{fill:#6ee2fa;}.cls-9{fill:#79dedc;}.cls-10{fill:#78edf8;}.cls-11{fill:#59c1a7;}.cls-12{fill:#7fbbe4;}.cls-13{fill:#6fad9d;}.cls-14{fill:#7cc6f0;}.cls-15{fill:#6bd2eb;}.cls-16{fill:#6ae8e8;}.cls-17{fill:#69eae5;}</style></defs><g id="Layer_1-2" data-name="Layer 1-2"><path class="cls-1" d="M284.13,144a32.7,32.7,0,0,1-12.29,14.32,33.29,33.29,0,0,1-18.33,5.2q-14.32,0-23.08-8.86t-8.76-23.47q0-14.06,8.73-22.57t23.25-8.5q14.37,0,23.17,9.18t8.85,24.41v1.42h-52.2a19.33,19.33,0,0,0,6.65,13.7,23.53,23.53,0,0,0,25.56,2.64,21.17,21.17,0,0,0,7.93-7.42Zm-50.72-17.72h40.45q-1.29-8.28-6.45-12.62t-13.74-4.33q-8.61,0-13.78,4.33t-6.41,12.62Z"/><path class="cls-1" d="M285,161.87v-9.44h10.4V76.67H285V67.15h32.87q16,0,24.17,6t8.19,17.59a19.21,19.21,0,0,1-4.5,12.77,22.31,22.31,0,0,1-12.32,7.32q10.84,3.75,15.72,9.47T354,135q0,12.65-8.18,19.74T323,161.87Zm22.92-85.2v30.88h9.44q10.06,0,15.21-3.92t5.15-11.54q0-7.65-5.11-11.53t-15.25-3.89Zm0,39.42v36.33h8.41q13.11,0,19-4.36t5.94-13.8q0-9-6.32-13.58t-18.62-4.54Z"/><path class="cls-1" d="M420.42,152.82h9.18v9H409.06v-8a23.38,23.38,0,0,1-9.06,7.09,31.52,31.52,0,0,1-34.25-6.68q-8.88-9.07-8.89-22.5a31.05,31.05,0,0,1,8.93-22.56,29.58,29.58,0,0,1,22-9.15,29.07,29.07,0,0,1,11.88,2.42,26.57,26.57,0,0,1,9.34,7.13v-7.9h14.92v9h-3.56Zm-51.68-21.06q0,9.63,5.9,15.92a20.27,20.27,0,0,0,28.66.72h0c.25-.23.48-.46.71-.71q5.88-6.27,5.87-15.92T404,115.9a20.63,20.63,0,0,0-29.17-.32l-.33.32Q368.73,122.08,368.74,131.76Z"/><path class="cls-1" d="M427.36,131.67a30.06,30.06,0,0,1,9.44-22.48q9.43-9.06,23.56-9t23.6,9a31.78,31.78,0,0,1,.25,44.94l-.06.06-.19.18q-9.39,9.12-23.6,9.12t-23.56-9.12A30.19,30.19,0,0,1,427.36,131.67Zm11.75,0a22,22,0,0,0,6.1,15.89,21.49,21.49,0,0,0,30.39.08h0q6.08-6.27,6.07-16t-6.07-16a21.51,21.51,0,0,0-30.4.06,22,22,0,0,0-6.08,16Z"/><path class="cls-2" d="M585.67,132q-3.66,15-14.48,23.37t-26.68,8.34q-21,0-34.57-13.9t-13.58-35.28q0-21.12,13.45-35.14t33.8-14A47,47,0,0,1,560,68.15a30.35,30.35,0,0,1,12.1,7.93V67.15h10.27V96.48h-9.72q-3.21-10.07-10.24-15.08t-18-5q-16,0-25.55,10.4t-9.56,27.73q0,17,10,27.55t25.79,10.59q10.59,0,17.75-5.14T574.06,132Z"/><path class="cls-2" d="M596.35,76.42H586V67.15h21.72v85.64h10.4v9H586v-9h10.4Z"/><path class="cls-2" d="M615.75,131.67a30,30,0,0,1,9.44-22.48q9.45-9.06,23.56-9t23.59,9a31.78,31.78,0,0,1,.25,44.94l-.06.06-.19.18q-9.39,9.12-23.59,9.12t-23.56-9.12A30.15,30.15,0,0,1,615.75,131.67Zm11.75,0a22,22,0,0,0,6.09,15.89,21.5,21.5,0,0,0,30.41.07h0q6.06-6.27,6.06-16t-6.06-16a21.53,21.53,0,0,0-30.41.06A22,22,0,0,0,627.5,131.67Z"/><path class="cls-2" d="M688.67,110.67h-9.18v-9H700v36.15q0,9.51,2.44,12.45t8.22,2.95a19.48,19.48,0,0,0,9.37-2.5,39.18,39.18,0,0,0,9.57-7.77V110.67h-9.31v-9h20.61v51h9.18v9.18H729.52v-8.67A38.83,38.83,0,0,1,718.83,161a26.27,26.27,0,0,1-11.27,2.51q-9.81,0-14.38-5.2t-4.51-16.52Z"/><path class="cls-2" d="M801.3,76.42H791.22V67.15h21.45v85.64h9.19v9H801.3v-7.25a27.42,27.42,0,0,1-9.18,6.67,28.39,28.39,0,0,1-11.3,2.06q-13.74,0-22.73-9t-9-22.57A31.17,31.17,0,0,1,758,109.14,29.5,29.5,0,0,1,780,100a30.28,30.28,0,0,1,11.63,2.2,28.72,28.72,0,0,1,9.6,6.71ZM761,131.76q0,9.63,5.91,15.92a20.3,20.3,0,0,0,28.69.69c.23-.23.46-.45.68-.69q5.88-6.27,5.87-15.92t-5.87-15.86a20.63,20.63,0,0,0-29.17-.32l-.33.32Q761,122.08,761,131.76Z"/><path class="cls-3" d="M133.18,130.27h-17v24.85a5.25,5.25,0,0,0,5.25,5.25h57.18a5.25,5.25,0,0,0,5.25-5.25h0V97.42a5.25,5.25,0,0,0-5.25-5.25H139.67v31.64a6.46,6.46,0,0,1-6.46,6.46Z"/><path class="cls-4" d="M193,31.19h-33.2V51.27a3,3,0,0,1-3,2.95h-8.35V76.06a3.73,3.73,0,0,0,3.74,3.74H193a3.73,3.73,0,0,0,3.74-3.72V34.93A3.73,3.73,0,0,0,193,31.19Z"/><path class="cls-5" d="M62.89,46.43h19v-20a3.73,3.73,0,0,0-3.74-3.74H37.44a3.75,3.75,0,0,0-3.77,3.73V67.59a3.73,3.73,0,0,0,3.74,3.74h19V52.89a6.47,6.47,0,0,1,6.48-6.46Z"/><path class="cls-6" d="M31,107.24H41.16V87.17a3.73,3.73,0,0,0-3.74-3.74H3.74A3.76,3.76,0,0,0,0,87.17v34a3.73,3.73,0,0,0,3.74,3.74H27.23V111A3.76,3.76,0,0,1,31,107.24Z"/><path class="cls-7" d="M56.43,123.81V107.24H41.16v13.92a3.73,3.73,0,0,1-3.72,3.74H27.23v27.21A3.73,3.73,0,0,0,31,155.85H71.73a3.73,3.73,0,0,0,3.74-3.72V130.27H62.89a6.46,6.46,0,0,1-6.46-6.46Z"/><path class="cls-8" d="M41.16,121.16V107.24H31A3.76,3.76,0,0,0,27.23,111V124.9H37.42a3.73,3.73,0,0,0,3.74-3.72Z"/><path class="cls-9" d="M152.27,31.19h7.56V18.9a3,3,0,0,0-3-2.95H124.8a3,3,0,0,0-3,2.95V46.43h11.33a6.46,6.46,0,0,1,6.49,6.43v1.36h8.89V34.93A3.75,3.75,0,0,1,152.27,31.19Z"/><path class="cls-10" d="M159.83,51.27V31.19h-7.56a3.76,3.76,0,0,0-3.74,3.74V54.22h8.35A3,3,0,0,0,159.83,51.27Z"/><rect class="cls-11" x="88.34" width="25.79" height="25.99" rx="2.45"/><rect class="cls-12" x="83.54" y="150.75" width="19.3" height="19.44" rx="2.35"/><path class="cls-13" d="M121.85,51.27V46.43H81.94V67.59a3.73,3.73,0,0,1-3.72,3.74H56.43v35.91h15.3A3.73,3.73,0,0,1,75.47,111v19.29h40.66V97.42a5.25,5.25,0,0,1,5.25-5.25h18.29V54.22H124.8A3,3,0,0,1,121.85,51.27Z"/><path class="cls-14" d="M116.13,97.42v32.85h17a6.46,6.46,0,0,0,6.46-6.46h0V92.17H121.38a5.25,5.25,0,0,0-5.25,5.25Z"/><path class="cls-15" d="M81.94,67.59V46.43h-19a6.47,6.47,0,0,0-6.46,6.46V71.33H78.2a3.73,3.73,0,0,0,3.74-3.72Z"/><path class="cls-16" d="M71.73,107.24H56.43v16.57a6.46,6.46,0,0,0,6.46,6.46H75.47V111a3.73,3.73,0,0,0-3.74-3.74Z"/><path class="cls-17" d="M133.18,46.43H121.85v4.84a3,3,0,0,0,3,2.95h14.87V52.89a6.46,6.46,0,0,0-6.46-6.46Z"/></g></svg>