<?xml version="1.0" encoding="iso-8859-1"?>
<!-- Generator: Adobe Illustrator 28.1.0, SVG Export Plug-In . SVG Version: 6.00 Build 0)  -->
<svg version="1.1" id="E.ON" xmlns="http://www.w3.org/2000/svg" xmlns:xlink="http://www.w3.org/1999/xlink" x="0px" y="0px"
	 viewBox="0 0 366.5281982 166.127243" style="enable-background:new 0 0 366.5281982 166.127243;" xml:space="preserve">
<style type="text/css">
	.st0{fill-rule:evenodd;clip-rule:evenodd;fill:#EA1B0A;}
</style>
<path class="st0" d="M235.1756897,72.1631241c0,7.9941025-7.8925018,25.5463028-10.4286957,30.4223022
	c-10.6024933,20.3857956-24.7675934,20.2481003-40.7597046,20.2481003c-7.8144989,0-25.2304993,0.089798-25.2304993-14.5371017
	c0-6.5419998,5.7015991-18.5332031,10.3833008-29.9023972c1.9912109-4.8354034,10.4726105-21.0786018,39.352005-21.0786018
	C220.4042969,57.3154259,235.1756897,59.1850243,235.1756897,72.1631241z M201.7440948,73.0976257
	c-2.0039062,0-4.9844055,0.3119965-6.3350067,2.1801987c-5.0575867,7.0034027-8.4100952,24.5147018-8.4100952,29.3848038
	c0,3.3260956,2.3115082,3.1141968,5.3993988,3.1141968c1.7969055,0,4.6963043,0.0449982,6.3339996-1.6601028
	c4.4432983-4.6288986,8.277298-25.6044998,8.277298-29.3915939
	C207.0096893,74.0322266,206.816391,73.0976257,201.7440948,73.0976257z M131.138092,73.7202225
	c0,18.4043045-11.3207932,22.2207031-23.8812943,22.2207031h-8.8252029c-8.8192978,0-26.5810928-0.5195007-26.5810928-0.5195007
	c-1.4253006-0.0283966-2.4917068-0.3115997-2.4917068,0.5195007c0,6.0009995,6.7891006,15.0557022,17.1319046,15.0557022
	c8.1455002,0,13.3945007-5.0879059,14.5365982-6.2929993c0,0,9.358902-1.0791016,15.3666992-1.0791016
	c5.8339996,0,14.4326019,0.9336014,14.4326019,4.2567978c0,6.4814987-21.0599976,16.7168045-38.7290039,16.7168045
	c-26.6024933,0-50.5653954-14.4521027-50.5653954-31.8760071c0-29.197197,56.3505974-51.1888924,72.7855988-51.1888924
	C129.1190948,41.5332298,131.138092,65.1064224,131.138092,73.7202225z M108.1913986,71.748024
	c0-3.7563019-0.1772995-9.1376991-3.1147995-9.1376991c-9.5580978,0-26.3506012,14.6187019-28.0342026,16.3017998
	c-1.2461014,1.2465973-0.3143997,1.1420975,1.3496017,1.1420975h21.4932022
	C107.5003967,80.0542221,108.1913986,78.7729263,108.1913986,71.748024z M157.0965881,84.2085266
	c0,1.9717026-2.2967987,7.3993988-2.621994,8.2010956c-2.0650024,5.0938034-7.4794922,5.9190063-11.2919922,5.9190063
	c-5.7183075,0-7.683609-2.0537033-7.683609-5.2949066c0-2.5077972,2.1098022-6.8378983,2.3881989-7.4755936
	c2.5752106-5.9004059,7.183609-6.5415039,11.7329102-6.5415039
	C153.4769897,79.0166245,157.0965881,80.6206284,157.0965881,84.2085266z M324.9960022,72.2690277
	c0,9.4990005-11.2998047,42.0224991-13.1542053,46.9032974c-1.218811,3.2070999-3.5538025,3.6612015-6.5791931,3.6612015
	c-5.4746094,0-9.6035156-1.3037033-11.6162109-2.9151001c-0.4169922-0.3320007-0.9335938-1.0438995-0.5830078-2.0878983
	c2.0576172-6.1337051,9.8692017-28.2207031,9.8692017-32.9921036c0-2.6123962-0.7724915-4.5766983-3.3808899-4.5766983
	c-15.8105164,0-44.8594055,33.7378006-50.2539062,39.7680969c-1.7646027,1.9716034-4.3506012,2.3877029-7.3721008,2.3877029
	c-3.7381897,0-7.7207031-1.9843979-8.0995941-2.1807022c-1.1815948-0.6103973-1.2382965-1.2861023-0.8876953-2.7108994
	l0.9921875-4.0381012c1.8173981-7.386795,11.2295074-34.716301,17.7549133-49.5278969
	c0.2763977-0.6254997,0.5478973-1.1459999,1.964798-1.3672028c0.6582031-0.1029968,2.8164978-0.6054001,5.8233032-0.6054001
	c2.2050781,0,6.4902039,0.1567001,8.6387024,1.3086014c0,0,0.0174866-0.032299,0.0174866,3.5726967
	c0,1.5572052,0.1700134,6.8516006,5.1534119,6.8516006c8.4090881,0,23.6737976-14.4320984,37.1708984-14.4320984
	C322.320282,59.2881241,324.9960022,66.6098251,324.9960022,72.2690277z"/>
</svg>
