<?xml version="1.0" encoding="utf-8"?>
<!-- Generator: Adobe Illustrator 16.0.4, SVG Export Plug-In . SVG Version: 6.00 Build 0)  -->
<!DOCTYPE svg PUBLIC "-//W3C//DTD SVG 1.1//EN" "http://www.w3.org/Graphics/SVG/1.1/DTD/svg11.dtd">
<svg version="1.1" id="Layer_1" xmlns="http://www.w3.org/2000/svg" xmlns:xlink="http://www.w3.org/1999/xlink" x="0px" y="0px"
	 width="447px" height="213px" viewBox="0 0 447 213" enable-background="new 0 0 447 213" xml:space="preserve">
<path fill-rule="evenodd" clip-rule="evenodd" fill="#37393A" d="M125.873,135.858c5.953,0,11.798,0,17.729,0
	c0,3.092,0,6.085,0,9.142c-9.048,0-18.046,0-27.124,0c0-16.621,0-33.165,0-49.71c1.018-0.287,23.455-0.413,26.99-0.15
	c0.277,0.961,0.357,6.643,0.108,9.158c-1.91,0.015-3.845,0.005-5.779,0.006c-2,0.002-4.001,0-6.002,0c-1.944,0-3.888,0-5.91,0
	c0,3.076,0,6.034,0,9.081c1.094,0.258,2.249,0.081,3.389,0.112c1.209,0.032,2.419,0.007,3.629,0.007c1.163,0,2.326,0,3.489,0
	c1.209,0,2.419,0,3.629,0c1.157,0,2.314,0,3.448,0c0.268,1.087,0.324,6.971,0.085,8.94c-5.858,0-11.737,0-17.682,0
	C125.873,126.951,125.873,131.306,125.873,135.858z"/>
<path fill-rule="evenodd" clip-rule="evenodd" fill="#2B732A" d="M332.665,112.161c0-1.472,0-2.656,0-3.807
	c1.079-0.283,7.488-0.343,9.195-0.104c0,12.198,0,24.409,0,36.615c-1.03,0.262-7.28,0.315-9.093,0.069c0-1.126,0-2.271,0-3.459
	c-0.63-0.071-0.924,0.316-1.258,0.599c-1.646,1.392-3.417,2.584-5.501,3.203c-5.576,1.658-10.677,0.651-15.172-3.003
	c-4.622-3.758-6.983-8.686-7.169-14.655c-0.106-3.433,0.271-6.777,1.731-9.927c2.499-5.385,6.504-9.034,12.403-10.228
	c5.037-1.019,9.562,0.298,13.507,3.591C331.686,111.369,332.068,111.675,332.665,112.161z M333.146,126.575
	c-0.13-1.013-0.16-2.051-0.405-3.034c-1.012-4.05-3.462-6.777-7.624-7.626c-4.129-0.841-7.658,0.279-10.244,3.754
	c-2.9,3.897-2.75,10.274,0.214,14.129c3.85,5.007,10.951,4.663,14.518,1.32C332.076,132.802,333.035,129.885,333.146,126.575z"/>
<path fill-rule="evenodd" clip-rule="evenodd" fill="#37393A" d="M184.663,144.997c-3.036,0-5.987,0-9.044,0
	c0-1.219,0-2.363,0-3.739c-0.469,0.299-0.793,0.444-1.041,0.673c-2.892,2.661-6.34,4.068-10.224,4.129
	c-3.45,0.055-6.682-0.926-9.534-2.971c-4.144-2.97-6.886-6.906-7.815-11.927c-1.302-7.031-0.115-13.511,4.964-18.868
	c2.842-2.998,6.349-4.724,10.544-5.047c4.507-0.347,8.387,1.023,11.794,3.909c0.341,0.289,0.694,0.563,1.27,1.029
	c0-1.489,0-2.709,0-3.995c3.107,0,6.059,0,9.087,0C184.663,120.443,184.663,132.651,184.663,144.997z M176.066,126.665
	c-0.183-1.237-0.223-2.518-0.575-3.705c-1.105-3.72-3.511-6.218-7.371-7.028c-3.883-0.815-7.296,0.097-9.932,3.227
	c-3.287,3.901-3.296,10.644-0.166,14.676c4.355,5.61,13.701,4.959,16.893-2C175.666,130.198,175.948,128.466,176.066,126.665z"/>
<path fill-rule="evenodd" clip-rule="evenodd" fill="#2B732A" d="M389.364,93.885c2.928,0,5.855,0,8.753,0
	c0.064,0.068,0.097,0.099,0.125,0.133c0.03,0.036,0.074,0.072,0.08,0.113c0.021,0.137,0.038,0.275,0.038,0.414
	c0.012,9.446,0.021,18.892,0.032,28.338c0,0.045,0.023,0.09,0.057,0.203c0.562-0.045,0.826-0.524,1.139-0.866
	c1.631-1.78,3.234-3.586,4.842-5.388c2.566-2.875,5.128-5.754,7.719-8.662c3.71,0,7.424,0,11.382,0
	c-5.261,5.969-10.539,11.708-15.799,17.653c5.831,6.406,11.73,12.657,17.716,19.191c-3.943,0-7.554,0-11.244,0
	c-5.156-5.569-10.306-11.211-15.645-16.747c-0.256,1.886-0.178,3.717-0.191,5.545c-0.015,1.861-0.003,3.723-0.003,5.585
	c0,1.849,0,3.696,0,5.61c-3.102,0-6.062,0-9.016,0C389.049,143.797,389.068,94.905,389.364,93.885z"/>
<path fill-rule="evenodd" clip-rule="evenodd" fill="#2B732A" d="M282.256,101.731c-2.421,2.139-4.642,4.101-6.869,6.068
	c-0.991-1.026-1.906-2.071-2.925-3.004c-1.615-1.479-3.522-2.244-5.751-1.922c-1.468,0.211-2.635,0.899-3.201,2.348
	c-0.472,1.208-0.139,2.351,0.637,3.259c1.021,1.197,2.148,2.318,3.332,3.356c3.001,2.631,6.086,5.167,9.085,7.8
	c2.069,1.816,3.909,3.846,5.146,6.352c3.424,6.934,0.807,16.394-7.886,19.35c-5.513,1.874-10.802,1.337-15.691-1.959
	c-2.449-1.65-5-4.91-6.229-7.842c2.517-1.523,5.049-3.057,7.728-4.678c0.286,0.454,0.545,0.871,0.81,1.285
	c1.086,1.697,2.33,3.235,4.095,4.298c2.364,1.423,5.43,1.244,7.373-0.188c2.148-1.584,2.697-4.179,1.185-6.392
	c-0.856-1.252-1.91-2.409-3.04-3.426c-2.553-2.296-5.258-4.423-7.803-6.728c-1.718-1.555-3.366-3.212-4.869-4.974
	c-1.841-2.159-3.015-4.703-3.264-7.562c-0.192-2.219,0.257-4.374,1.393-6.299c2.6-4.405,6.438-6.794,11.608-7.025
	c4.385-0.196,8.102,1.345,11.334,4.18C279.733,99.151,280.901,100.405,282.256,101.731z"/>
<path fill-rule="evenodd" clip-rule="evenodd" fill="#37393A" d="M51.864,146.569c1.666,0.665,3.028,1.228,4.403,1.756
	c6.757,2.597,13.517,5.188,20.277,7.774c5.027,1.924,10.058,3.839,15.086,5.76c0.477,0.183,0.946,0.386,1.423,0.567
	c2.037,0.773,3.184,2.571,3.151,4.764c-0.075,4.978-0.019,9.958-0.033,14.937c-0.001,0.551-0.156,1.101-0.158,1.651
	c-0.007,1.528-1.729,2.283-2.958,1.837c-1.176-0.428-2.356-0.848-3.524-1.298c-7.014-2.704-14.025-5.416-21.038-8.126
	c-12.423-4.802-24.845-9.604-37.268-14.404c-1.169-0.452-2.347-0.881-3.503-1.361c-0.682-0.284-1.361-0.601-1.989-0.987
	c-1.182-0.728-1.878-1.76-1.843-3.215c0.028-1.147,0.004-2.296,0.004-3.443c0-29.225-0.001-58.449,0.015-87.673
	c0-0.824,0.095-1.676,0.32-2.465c0.396-1.394,1.548-2.12,2.978-1.932c0.635,0.083,1.263,0.299,1.866,0.528
	c7.851,2.985,15.699,5.978,23.543,8.979c9.924,3.798,19.845,7.607,29.767,11.411c3.812,1.461,7.616,2.948,11.445,4.368
	c2.025,0.751,2.381,1.825,2.373,3.438c-0.028,5.302,0.052,10.605,0.051,15.909c0,0.676-0.12,1.4-0.383,2.017
	c-0.475,1.112-1.284,1.56-2.473,1.343c-0.948-0.173-1.872-0.523-2.778-0.868c-6.807-2.596-13.607-5.21-20.41-7.817
	c-0.215-0.083-0.436-0.151-0.814-0.281c-5.582,2.704-11.253,5.451-17.121,8.292c0.454,0.283,0.689,0.486,0.962,0.592
	c8.099,3.115,16.201,6.224,24.305,9.325c5.547,2.123,11.098,4.237,16.649,6.35c1.284,0.488,1.82,1.499,1.981,2.776
	c0.035,0.275,0.007,0.558,0.007,0.837c0,5.352-0.106,10.706,0.048,16.054c0.074,2.579-1.832,3.423-3.847,2.64
	c-5.838-2.271-11.706-4.465-17.563-6.688c-1.646-0.625-3.293-1.248-5.03-1.906C63.921,140.81,58.03,143.623,51.864,146.569z
	 M94.867,87.99c-0.525-0.294-1.051-0.669-1.634-0.903c-1.897-0.759-3.815-1.466-5.724-2.195c-5.597-2.138-11.194-4.276-16.791-6.416
	c-5.899-2.256-11.797-4.516-17.697-6.77c-5.553-2.122-11.109-4.236-16.662-6.359c-2.602-0.996-5.2-2.001-7.799-3.006
	c-0.892-0.345-1.787-0.45-2.671-0.139c-0.519,0.555-0.619,1.179-0.63,1.849c-0.065,3.856-0.203,7.711-0.207,11.567
	c-0.022,26.297-0.02,52.594-0.009,78.891c0,1.01,0.158,2.02,0.246,3.078c0.589,0.407,1.078,0.857,1.653,1.119
	c1.351,0.616,2.733,1.165,4.119,1.701c5.804,2.246,11.615,4.474,17.42,6.716c4.809,1.857,9.611,3.731,14.419,5.59
	c6.281,2.429,12.567,4.846,18.848,7.274c3.552,1.374,7.098,2.767,10.648,4.146c0.698,0.271,1.408,0.499,2.316,0.065
	c0.048-0.449,0.151-0.982,0.153-1.518c0.019-5.166,0.024-10.332,0.026-15.498c0.001-2.205-0.53-2.953-2.612-3.747
	c-2.561-0.977-5.121-1.952-7.679-2.935c-8.368-3.216-16.732-6.438-25.101-9.649c-2.731-1.049-5.5-2.009-8.195-3.141
	c-1.542-0.648-2.805-1.687-2.801-3.62c0.008-3.724,0.011-7.447,0.017-11.17c0-0.187,0-0.374,0.018-0.559
	c0.196-2.064,1.831-3.058,3.762-2.304c1.427,0.557,2.865,1.088,4.298,1.631c5.776,2.188,11.555,4.37,17.33,6.564
	c6.296,2.392,12.588,4.792,18.881,7.19c0.633,0.241,1.251,0.286,1.948-0.091c0.044-0.342,0.13-0.698,0.13-1.056
	c0.008-5.632,0.012-11.264-0.009-16.896c-0.002-0.531-0.185-1.062-0.281-1.573c-0.646-0.27-1.152-0.495-1.669-0.693
	c-4.857-1.861-9.719-3.714-14.576-5.577c-5.767-2.212-11.53-4.436-17.297-6.646c-3.339-1.279-6.679-2.558-10.028-3.811
	c-1.581-0.592-2.44-1.748-2.468-3.372c-0.066-3.862-0.036-7.726-0.013-11.589c0.006-1.029,0.381-1.908,1.364-2.387
	c1.103-0.159,2.141-0.066,3.171,0.333c4.374,1.696,8.759,3.36,13.136,5.046c8.668,3.339,17.333,6.688,26.004,10.021
	c0.514,0.198,1.066,0.298,1.668,0.462c0.321-0.224,0.65-0.453,0.976-0.68C94.867,100.618,94.867,94.389,94.867,87.99z
	 M50.813,145.713c2.805-1.351,5.547-2.711,8.324-3.997c2.793-1.294,5.55-2.655,8.525-4.102c-0.569-0.304-0.875-0.51-1.209-0.639
	c-4.766-1.838-9.535-3.665-14.304-5.494c-0.577-0.221-1.156-0.353-1.913,0.148c-0.101,0.523-0.333,1.191-0.342,1.862
	c-0.043,3.304-0.022,6.607-0.036,9.912C49.854,144.229,50.06,144.959,50.813,145.713z M50.724,107.435
	c5.525-2.685,10.967-5.331,16.41-7.976c0.001-0.101,0.003-0.203,0.004-0.304c-0.8-0.313-1.602-0.624-2.4-0.94
	c-4.135-1.636-8.271-3.267-12.4-4.918c-0.631-0.252-1.235-0.364-1.877-0.092c-0.486,0.52-0.58,1.138-0.577,1.81
	c0.012,3.295,0.008,6.591,0.003,9.887C49.885,105.758,50.064,106.55,50.724,107.435z"/>
<path fill-rule="evenodd" clip-rule="evenodd" fill="#37393A" d="M233.214,131.13c3.503-7.658,7.007-15.316,10.5-22.953
	c3.099,0,6.105,0,9.289,0c-7.743,16.89-15.433,33.662-23.13,50.45c-3.067,0-6.084,0-9.289,0c1.152-2.85,2.521-5.511,3.769-8.223
	c1.24-2.694,2.49-5.383,3.721-8.042c-4.684-11.409-9.331-22.729-14.027-34.167c3.15,0,6.151,0,9.271,0
	c3.156,7.612,6.331,15.269,9.504,22.925C232.953,131.124,233.083,131.127,233.214,131.13z"/>
<path fill-rule="evenodd" clip-rule="evenodd" fill="#37393A" d="M106.183,27.434c-0.076,0.683-0.211,1.365-0.217,2.049
	c-0.025,2.792-0.012,5.584-0.012,8.377c0,0.413,0,0.826,0,1.223c0.643,0.303,1.066-0.071,1.499-0.28
	c2.427-1.171,4.838-2.373,7.264-3.545c1.672-0.808,3.363-1.577,5.039-2.38c1.109-0.531,2.253-0.563,3.396-0.208
	c1.681,0.523,3.366,1.046,5.01,1.673c13.094,4.994,26.179,10.014,39.27,15.019c0.839,0.321,1.612,0.698,2.122,1.489
	c0.635,0.986,0.626,1.794-0.195,2.646c-0.408,0.422-0.927,0.775-1.457,1.036c-5.834,2.872-11.684,5.715-17.524,8.576
	c-7.677,3.76-15.35,7.528-23.025,11.291c-4.129,2.024-8.251,4.064-12.396,6.058c-2.133,1.027-4.308,1.966-6.46,2.951
	c-0.92,0.421-1.838,0.548-2.825,0.198c-2.098-0.742-4.223-1.406-6.313-2.168c-2.485-0.907-4.949-1.875-7.413-2.838
	c-0.512-0.2-1.042-0.43-1.464-0.77c-0.83-0.666-0.92-1.52-0.226-2.313c0.386-0.441,0.896-0.823,1.425-1.083
	c4.168-2.048,8.353-4.063,12.536-6.083c5.061-2.443,10.125-4.879,15.186-7.322c0.457-0.22,0.901-0.465,1.321-0.683
	c0-3.506,0-6.931,0-10.492c-0.396,0.115-0.704,0.16-0.972,0.289c-4.35,2.1-8.693,4.214-13.042,6.315
	c-8.112,3.92-16.227,7.836-24.344,11.748c-1.505,0.726-2.997,1.493-4.548,2.107c-1.067,0.423-2.22,0.821-3.345,0.854
	c-1.121,0.032-2.309-0.262-3.374-0.662c-6.215-2.327-12.404-4.726-18.601-7.101c-7.41-2.84-14.821-5.676-22.227-8.527
	c-0.513-0.197-1.047-0.425-1.465-0.768c-2.204-1.804-1.571-3.949,0.426-5.08c1.374-0.778,2.817-1.432,4.238-2.123
	c4.427-2.152,8.861-4.293,13.29-6.443c8.398-4.078,16.795-8.161,25.193-12.24c4.637-2.253,9.303-4.449,13.902-6.776
	c2.48-1.254,4.86-1.497,7.476-0.398c3.592,1.509,7.265,2.826,10.904,4.223C105.218,25.648,106.111,26.115,106.183,27.434z
	 M168.531,52.639c0.236-1.195-0.378-1.631-1.061-1.973c-0.453-0.227-0.964-0.335-1.44-0.518c-5.893-2.262-11.784-4.529-17.677-6.793
	c-4.636-1.781-9.27-3.568-13.911-5.336c-3.34-1.272-6.688-2.521-10.037-3.773c-1.706-0.638-3.404-0.875-5.073,0.14
	c-0.274,0.167-0.603,0.242-0.895,0.384c-6.065,2.94-12.134,5.875-18.192,8.83c-6.018,2.936-12.024,5.897-18.039,8.838
	c-2.129,1.042-4.271,2.058-6.407,3.085c-1.685,0.811-3.369,0.96-5.084,0.061c-0.573-0.3-1.195-0.509-1.801-0.743
	c-1.819-0.7-3.649-1.371-5.459-2.093c-1.648-0.657-2.066-2.416-0.862-3.735c0.425-0.466,0.992-0.849,1.563-1.127
	c4.681-2.279,9.385-4.51,14.067-6.784c5.019-2.438,10.022-4.91,15.034-7.361c3.383-1.654,6.771-3.298,10.154-4.953
	c0.667-0.327,1.337-0.666,1.554-1.607c-0.213-0.175-0.418-0.444-0.688-0.55c-4.106-1.607-8.21-3.224-12.34-4.769
	c-1.585-0.593-3.193-0.443-4.735,0.304c-1.756,0.851-3.529,1.669-5.284,2.522c-3.931,1.911-7.853,3.839-11.782,5.752
	c-2.759,1.342-5.527,2.666-8.287,4.005c-6.567,3.187-13.134,6.373-19.696,9.569c-2.425,1.182-4.832,2.4-7.255,3.586
	c-1.628,0.796-3.271,1.561-4.905,2.347c-0.87,0.418-1.376,1.074-1.33,2.08c0.523,1.046,1.451,1.553,2.467,1.939
	c5.988,2.273,11.982,4.529,17.965,6.815c4.683,1.79,9.348,3.624,14.028,5.421c2.946,1.131,5.904,2.233,8.859,3.344
	c1.303,0.49,2.629,0.566,3.958,0.133c0.879-0.287,1.772-0.563,2.605-0.958c4.495-2.129,8.98-4.277,13.455-6.449
	c5.438-2.641,10.86-5.312,16.289-7.97c0.334-0.164,0.669-0.325,1.005-0.487c3.722-1.802,7.443-3.604,11.165-5.405
	c1.416-0.686,2.806-1.085,4.396-0.378c1.82,0.81,3.727,1.424,5.591,2.138c1.3,0.498,2.598,1.002,3.884,1.535
	c0.746,0.309,1.228,0.899,1.226,1.711c-0.002,0.809-0.488,1.373-1.22,1.722c-0.669,0.319-1.329,0.658-1.997,0.979
	c-6.242,3-12.491,5.985-18.726,9c-5.065,2.45-10.112,4.937-15.169,7.402c-0.375,0.183-0.777,0.309-1.151,0.493
	c-1.795,0.882-3.585,1.774-5.376,2.663c-0.384,0.191-0.749,0.398-0.709,0.992c0.311,0.666,1.059,0.787,1.676,1.035
	c2.37,0.948,4.75,1.874,7.148,2.749c1.829,0.667,3.699,1.221,5.536,1.87c0.994,0.352,1.925,0.205,2.845-0.188
	c1.495-0.638,3.003-1.251,4.463-1.962c5.436-2.645,10.853-5.328,16.28-7.99c4.258-2.088,8.521-4.166,12.781-6.25
	c4.928-2.412,9.855-4.827,14.783-7.238c3.508-1.716,7.022-3.42,10.521-5.154C167.728,53.297,168.142,52.915,168.531,52.639z
	 M104.599,29.841c-0.588,0.226-0.974,0.344-1.333,0.517c-2.928,1.412-5.852,2.833-8.776,4.252c-3.384,1.643-6.77,3.283-10.152,4.931
	c-4.176,2.034-8.349,4.074-12.523,6.109c-2.463,1.201-4.928,2.397-7.391,3.598c-0.56,0.273-1.023,0.631-1.127,1.309
	c0.284,0.974,1.181,1.144,1.928,1.441c2.11,0.84,4.27,1.56,6.359,2.449c1.023,0.436,1.956,0.488,2.955,0.088
	c0.474-0.19,0.962-0.349,1.42-0.571c3.76-1.827,7.515-3.663,11.27-5.5c4.626-2.263,9.254-4.525,13.876-6.798
	c1.197-0.589,2.377-1.214,3.497-1.788C104.599,36.515,104.599,33.317,104.599,29.841z M122,59.385
	c0.557-0.196,0.907-0.285,1.227-0.438c2.597-1.241,5.188-2.493,7.779-3.745c0.794-0.384,1.584-0.777,2.374-1.172
	c0.344-0.172,0.649-0.379,0.504-1.102c-3.501-1.288-7.093-2.719-10.746-4.031c-0.41,0.22-0.767,0.412-1.137,0.612
	C122,52.768,122,55.958,122,59.385z"/>
<path fill-rule="evenodd" clip-rule="evenodd" fill="#2B732A" d="M383.94,115.545c-2.499,1.375-4.933,2.715-7.417,4.082
	c-0.183-0.141-0.377-0.257-0.531-0.414c-2.689-2.745-6.012-3.731-9.766-3.514c-2.41,0.14-4.675,0.736-6.634,2.218
	c-2.209,1.669-3.615,3.862-4.046,6.603c-0.559,3.545-0.067,6.858,2.428,9.651c1.612,1.805,3.659,2.837,6.008,3.248
	c2.166,0.379,4.339,0.328,6.483-0.212c2.026-0.511,3.789-1.494,5.271-2.975c0.228-0.229,0.47-0.441,0.767-0.718
	c2.348,1.607,4.673,3.2,7.073,4.844c-2.34,3.014-5.197,5.12-8.688,6.362c-2.068,0.737-4.201,1.089-6.398,1.244
	c-3.675,0.26-7.257-0.138-10.632-1.565c-6.177-2.611-10.02-7.337-11.339-13.859c-1.366-6.753,0.496-12.729,5.424-17.587
	c3.5-3.451,7.854-5.17,12.724-5.683c2.854-0.301,5.654-0.065,8.406,0.664c4.266,1.132,7.783,3.435,10.478,6.953
	C383.687,115.063,383.78,115.271,383.94,115.545z"/>
<path fill-rule="evenodd" clip-rule="evenodd" fill="#37393A" d="M188.002,139.745c1.832-1.998,3.614-3.94,5.467-5.96
	c0.647,0.556,1.252,1.104,1.889,1.616c1.279,1.028,2.683,1.878,4.3,2.192c0.984,0.192,2.028,0.163,3.038,0.105
	c0.924-0.054,1.641-0.624,2.222-1.318c0.815-0.973,0.722-2.352-0.218-3.438c-0.898-1.039-2.05-1.739-3.253-2.362
	c-1.65-0.854-3.337-1.643-4.95-2.563c-2.448-1.397-4.603-3.139-6.004-5.663c-2.247-4.047-1.376-8.841,2.142-12.04
	c2.016-1.832,4.418-2.82,7.166-3.055c5.548-0.475,9.922,1.641,13.344,5.684c-1.891,1.896-3.718,3.729-5.638,5.653
	c-0.014-0.011-0.269-0.184-0.492-0.39c-1.064-0.987-2.233-1.799-3.583-2.363c-1.03-0.431-2.107-0.501-3.15-0.321
	c-1.557,0.269-2.741,1.143-2.178,3.401c0.437,0.342,0.997,0.913,1.669,1.28c1.916,1.046,3.917,1.94,5.809,3.027
	c1.644,0.943,3.285,1.945,4.752,3.136c4.25,3.449,4.996,10.011,1.772,14.472c-2.114,2.926-5.045,4.444-8.536,4.989
	c-2.938,0.459-5.816,0.203-8.623-0.812C192.113,143.989,189.88,142.195,188.002,139.745z"/>
<path fill-rule="evenodd" clip-rule="evenodd" fill="#2B732A" d="M298.239,145.019c-3.178,0-6.138,0-9.254,0
	c0-9.656,0-19.259,0-28.968c-1.627,0-3.102,0-4.662,0c0-2.643,0-5.179,0-7.881c1.484,0,2.988,0,4.604,0c0-4.609,0-9.055,0-13.463
	c1.053-0.33,6.746-0.42,9.257-0.161c0.035,2.237,0.012,4.499,0.016,6.759c0.005,2.221,0.001,4.441,0.001,6.81
	c1.883,0,3.626,0,5.429,0c0,2.687,0,5.222,0,7.909c-1.793,0-3.535,0-5.39,0C298.239,125.74,298.239,135.306,298.239,145.019z"/>
<path fill-rule="evenodd" clip-rule="evenodd" fill="#37393A" d="M312.577,182.145c-0.466-0.024-0.73-0.038-1.043-0.054
	c0-2.933,0-5.807,0-8.751c0.271-0.029,0.531-0.059,0.867-0.096c0.11,0.418,0.208,0.789,0.312,1.183
	c2.396-1.9,4.044-1.878,5.797,0.513c0.321-0.334,0.612-0.69,0.954-0.985c1.894-1.634,4.653-0.896,5.068,1.585
	c0.038,0.229,0.122,0.454,0.123,0.681c0.011,1.903,0.006,3.806,0.006,5.812c-0.35,0.03-0.636,0.056-1.076,0.094
	c0-1.147,0.005-2.208-0.002-3.268c-0.005-0.837,0.009-1.676-0.044-2.51c-0.083-1.306-0.494-1.891-1.416-2.142
	c-1.016-0.276-2.223,0.15-2.837,1.035c-0.555,0.797-0.652,1.727-0.666,2.66c-0.019,1.346-0.005,2.691-0.005,4.125
	c-0.361,0.034-0.652,0.061-1.095,0.103c0-0.548,0.007-1.003-0.001-1.457c-0.024-1.486-0.057-2.974-0.079-4.461
	c-0.014-0.858-0.309-1.571-1.142-1.905c-0.825-0.331-1.652-0.236-2.383,0.289c-0.757,0.545-1.204,1.291-1.244,2.236
	c-0.047,1.114-0.07,2.229-0.093,3.345C312.566,180.774,312.577,181.374,312.577,182.145z"/>
<path fill-rule="evenodd" clip-rule="evenodd" fill="#37393A" d="M400.536,174.706c0.066-0.584,0.109-0.971,0.158-1.397
	c0.342,0,0.609,0,0.892,0c0.051,0.146,0.134,0.272,0.134,0.399c0.013,2.373,0.034,4.746,0.007,7.118
	c-0.008,0.645-0.045,1.342-0.294,1.917c-0.304,0.698-0.728,1.439-1.306,1.907c-2.255,1.826-5.956,1.001-7.313-1.64
	c0.341-0.025,0.639-0.048,0.972-0.073c0.805,1.195,1.949,1.682,3.341,1.672c2.437-0.017,3.54-1.237,3.408-3.9
	c-1.399,0.894-2.758,1.797-4.524,1.276c-1.062-0.312-1.968-0.805-2.626-1.709c-1.288-1.77-1.151-4.168,0.38-5.762
	c0.907-0.945,2.06-1.433,3.369-1.45C398.454,173.047,399.492,173.762,400.536,174.706z M397.173,181.054
	c2.13-0.009,3.49-1.376,3.457-3.476c-0.031-1.991-1.462-3.428-3.416-3.429c-2.058-0.001-3.58,1.548-3.557,3.619
	C393.68,179.73,395.104,181.062,397.173,181.054z"/>
<path fill-rule="evenodd" clip-rule="evenodd" fill="#37393A" d="M153.94,173.423c0.307-0.029,0.566-0.055,0.83-0.079
	c0.163,0.376,0.299,0.691,0.467,1.08c1.106-0.642,2.083-1.446,3.381-1.258c0.634,0.092,1.32,0.155,1.864,0.451
	c0.633,0.345,1.229,0.855,1.678,1.424c1.391,1.763,1.177,4.323-0.417,5.994c-1.693,1.774-3.708,1.784-6.684-0.071
	c-0.201,1.471-0.01,2.885-0.13,4.362c-0.333,0.016-0.626,0.029-0.989,0.046C153.94,181.354,153.94,177.42,153.94,173.423z
	 M158.449,181.345c1.951-0.005,3.463-1.559,3.471-3.567c0.008-1.987-1.516-3.571-3.458-3.597c-1.979-0.025-3.565,1.616-3.542,3.665
	C154.943,179.854,156.451,181.35,158.449,181.345z"/>
<path fill-rule="evenodd" clip-rule="evenodd" fill="#37393A" d="M331.364,173.331c0.354,0,0.654,0,1.024,0
	c0.059,0.44,0.109,0.829,0.165,1.249c2.755-1.93,5.042-1.945,6.734-0.029c1.62,1.833,1.71,4.153,0.178,6.111
	c-1.593,2.034-3.812,2.134-6.91,0.312c0,1.423,0,2.787,0,4.24c-0.449,0.032-0.791,0.056-1.191,0.085
	C331.364,181.271,331.364,177.337,331.364,173.331z M335.888,181.311c1.929-0.001,3.522-1.633,3.518-3.6
	c-0.004-1.983-1.578-3.566-3.541-3.562c-1.97,0.006-3.473,1.561-3.476,3.598C332.385,179.787,333.884,181.312,335.888,181.311z"/>
<path fill-rule="evenodd" clip-rule="evenodd" fill="#37393A" d="M265.656,182.076c-0.281,0.018-0.54,0.033-0.886,0.054
	c-0.065-0.444-0.124-0.84-0.192-1.308c-0.174,0.105-0.347,0.171-0.468,0.289c-0.88,0.861-1.953,1.275-3.158,1.225
	c-1.905-0.079-3.239-1.104-3.993-2.803c-0.764-1.719-0.509-3.373,0.719-4.812c1.225-1.438,2.809-1.989,4.627-1.457
	c0.771,0.225,1.446,0.776,2.285,1.247c0.199-1.455-0.042-3.005,0.139-4.581c0.32,0,0.582,0,0.928,0
	C265.656,173.957,265.656,177.979,265.656,182.076z M264.695,177.748c-0.005-2.061-1.443-3.572-3.425-3.599
	c-2.009-0.027-3.598,1.592-3.562,3.63c0.034,1.969,1.619,3.551,3.538,3.532C263.248,181.293,264.701,179.792,264.695,177.748z"/>
<path fill-rule="evenodd" clip-rule="evenodd" fill="#37393A" d="M177.043,179.39c0.212,0.129,0.437,0.266,0.651,0.396
	c-0.77,2.043-3.439,3.278-5.893,2.282c-1.994-0.81-3.173-3.223-2.646-5.425c0.568-2.371,2.629-3.754,5.144-3.451
	c2.165,0.261,3.707,2.105,3.712,4.536c-2.533,0-5.068,0-7.58,0c-0.334,1.422,0.211,2.577,1.481,3.282
	C173.491,181.886,175.161,181.369,177.043,179.39z M176.738,176.813c-0.416-1.771-1.712-2.736-3.362-2.638
	c-1.591,0.097-2.7,1.111-2.85,2.638C172.568,176.813,174.606,176.813,176.738,176.813z"/>
<path fill-rule="evenodd" clip-rule="evenodd" fill="#37393A" d="M236.233,177.692c0.023,2.571-1.951,4.608-4.517,4.657
	c-2.508,0.048-4.604-1.996-4.662-4.547c-0.058-2.539,2.121-4.775,4.626-4.746C234.226,173.086,236.209,175.105,236.233,177.692z
	 M235.095,177.793c0.021-2.019-1.489-3.631-3.41-3.643c-1.897-0.012-3.509,1.648-3.496,3.604c0.013,1.964,1.47,3.481,3.388,3.529
	C233.581,181.334,235.073,179.853,235.095,177.793z"/>
<path fill-rule="evenodd" clip-rule="evenodd" fill="#37393A" d="M138.342,177.735c-0.064-2.419,2.116-4.662,4.583-4.596
	c2.528,0.068,4.579,2.044,4.607,4.594c0.028,2.555-2.16,4.752-4.674,4.694C140.333,182.37,138.327,180.286,138.342,177.735z
	 M142.973,181.329c1.977-0.025,3.501-1.629,3.439-3.618c-0.06-1.922-1.603-3.485-3.458-3.503c-1.926-0.019-3.478,1.587-3.473,3.593
	C139.487,179.854,140.972,181.355,142.973,181.329z"/>
<path fill-rule="evenodd" clip-rule="evenodd" fill="#37393A" d="M305.116,177.801c-0.017,2.526-2.115,4.584-4.638,4.549
	c-2.544-0.036-4.544-2.086-4.54-4.651c0.004-2.581,2.169-4.713,4.712-4.642C303.155,173.128,305.134,175.229,305.116,177.801z
	 M303.998,177.753c0.01-1.979-1.571-3.611-3.487-3.601c-1.862,0.009-3.412,1.579-3.451,3.497c-0.042,2.031,1.44,3.607,3.418,3.634
	C302.468,181.31,303.989,179.784,303.998,177.753z"/>
<path fill-rule="evenodd" clip-rule="evenodd" fill="#37393A" d="M378.725,173.321c0.245-0.014,0.504-0.027,0.851-0.047
	c0.062,0.45,0.117,0.848,0.178,1.282c0.128-0.045,0.285-0.052,0.367-0.134c0.674-0.671,1.421-1.168,2.402-1.295
	c1.773-0.229,3.287,0.756,3.585,2.518c0.357,2.115,0.16,4.253,0.192,6.424c-0.388,0.033-0.651,0.055-1.093,0.092
	c0-1.556,0.02-3.025-0.008-4.495c-0.013-0.645-0.054-1.302-0.196-1.928c-0.252-1.112-0.96-1.64-2.084-1.677
	c-1.587-0.053-2.924,1.087-3.134,2.766c-0.109,0.873-0.086,1.763-0.103,2.646c-0.016,0.83-0.003,1.662-0.003,2.588
	c-0.347,0.029-0.602,0.05-0.85,0.071C378.548,181.138,378.479,175.191,378.725,173.321z"/>
<path fill-rule="evenodd" clip-rule="evenodd" fill="#37393A" d="M249.023,173.333c0.464,0,0.767,0,1.07,0
	c0,1.969,0.163,3.883-0.037,5.758c-0.306,2.862-3.503,4.248-5.919,2.68c-1.053-0.683-1.555-1.724-1.588-2.942
	c-0.048-1.807-0.013-3.615-0.013-5.487c0.287-0.03,0.542-0.058,0.959-0.101c0,1.105-0.023,2.112,0.007,3.118
	c0.027,0.926,0.064,1.855,0.183,2.772c0.184,1.421,1.218,2.199,2.749,2.155c1.515-0.044,2.481-0.9,2.566-2.371
	c0.062-1.064,0.02-2.135,0.021-3.203C249.024,174.935,249.023,174.157,249.023,173.333z"/>
<path fill-rule="evenodd" clip-rule="evenodd" fill="#37393A" d="M191.119,182.1c0-1.479,0.012-2.871-0.006-4.261
	c-0.007-0.555-0.042-1.114-0.137-1.659c-0.316-1.817-1.85-2.599-3.526-1.791c-1.144,0.551-1.75,1.508-1.807,2.764
	c-0.057,1.252-0.038,2.507-0.05,3.761c-0.004,0.363-0.001,0.727-0.001,1.16c-0.381,0.026-0.643,0.044-0.874,0.06
	c-0.313-0.318-0.405-5.534-0.177-8.691c0.275-0.026,0.567-0.055,0.945-0.09c0.066,0.448,0.122,0.825,0.193,1.31
	c0.46-0.347,0.807-0.645,1.189-0.89c2.402-1.539,5.07-0.227,5.214,2.619c0.094,1.851,0.018,3.71,0.018,5.663
	C191.771,182.069,191.484,182.083,191.119,182.1z"/>
<path fill-rule="evenodd" clip-rule="evenodd" fill="#37393A" d="M353.372,173.309c0.41,0,0.675,0,1.074,0
	c0,2.126,0.19,4.211-0.177,6.271c-0.261,1.459-1.213,2.364-2.694,2.654c-2.703,0.529-4.562-0.87-4.801-3.618
	c-0.028-0.322-0.011-0.649-0.011-0.975c-0.001-1.391,0-2.78,0-4.272c0.354-0.029,0.642-0.053,1.08-0.089
	c0,0.775-0.009,1.462,0.002,2.148c0.018,1.207-0.022,2.421,0.088,3.62c0.127,1.38,1.132,2.19,2.556,2.249
	c1.119,0.046,2.59-0.525,2.736-2.018c0.063-0.645,0.129-1.291,0.14-1.938C353.387,176.043,353.372,174.744,353.372,173.309z"/>
<path fill-rule="evenodd" clip-rule="evenodd" fill="#37393A" d="M289.124,179.879c0.261,0.179,0.448,0.308,0.622,0.427
	c-0.144,0.94-2.038,1.958-3.73,2.041c-2.232,0.11-4.374-1.367-4.896-3.376c-0.563-2.168,0.438-4.348,2.469-5.373
	c2.111-1.065,4.595-0.525,6.161,1.373c-0.057,0.093-0.104,0.219-0.191,0.303c-0.097,0.092-0.229,0.146-0.438,0.272
	c-1.07-1.123-2.397-1.644-3.975-1.411c-0.967,0.142-1.739,0.613-2.347,1.368c-1.115,1.388-0.973,3.591,0.344,4.823
	C284.472,181.568,287.019,181.981,289.124,179.879z"/>
<path fill-rule="evenodd" clip-rule="evenodd" fill="#37393A" d="M212.812,179.882c0.224,0.184,0.396,0.325,0.559,0.458
	c-0.818,1.752-3.544,2.385-5.567,1.77c-1.863-0.567-3.204-2.374-3.228-4.265c-0.026-2.051,1.283-3.854,3.287-4.527
	c2.021-0.679,4.169-0.037,5.517,1.713c-0.177,0.16-0.36,0.327-0.614,0.559c-1.125-1.182-2.456-1.692-4.034-1.452
	c-0.965,0.147-1.728,0.639-2.337,1.386c-1.049,1.286-0.917,3.513,0.278,4.74C208.167,181.796,210.535,181.683,212.812,179.882z"/>
<path fill-rule="evenodd" clip-rule="evenodd" fill="#37393A" d="M365.102,173.354c0,0.277,0,0.5,0,0.794
	c-0.568,0.065-1.104,0.127-1.752,0.202c0,2.556,0,5.084,0,7.696c-0.404,0.028-0.697,0.049-1.12,0.078c0-2.612,0-5.147,0-7.755
	c-0.549-0.071-0.987-0.129-1.479-0.192c0-0.295,0-0.55,0-0.863c0.452-0.039,0.857-0.074,1.393-0.12c0-0.987,0-1.985,0-3.07
	c0.406-0.053,0.695-0.091,1.096-0.143c0,1.099,0,2.104,0,3.156C363.916,173.216,364.499,173.283,365.102,173.354z"/>
<path fill-rule="evenodd" clip-rule="evenodd" fill="#37393A" d="M220.807,182.072c-0.269,0.025-0.531,0.051-0.779,0.074
	c-0.317-1.084-0.42-8.586-0.179-12.193c0.284-0.029,0.584-0.06,0.958-0.098C220.807,173.955,220.807,177.983,220.807,182.072z"/>
<path fill-rule="evenodd" clip-rule="evenodd" fill="#37393A" d="M371.854,182.085c-0.313,0-0.526,0-0.812,0
	c0-2.941,0-5.828,0-8.769c0.289,0,0.501,0,0.812,0C371.854,176.208,371.854,179.095,371.854,182.085z"/>
<path fill-rule="evenodd" clip-rule="evenodd" fill="#37393A" d="M370.293,170.537c0.463-0.438,0.745-0.706,1.136-1.076
	c0.387,0.359,0.696,0.647,1.115,1.036c-0.376,0.404-0.665,0.715-1.054,1.133C371.078,171.253,370.767,170.969,370.293,170.537z"/>
<linearGradient id="SVGID_1_" gradientUnits="userSpaceOnUse" x1="25.0366" y1="123.2295" x2="94.895" y2="123.2295">
	<stop  offset="0" style="stop-color:#033D81"/>
	<stop  offset="1" style="stop-color:#95B7F2"/>
</linearGradient>
<path fill-rule="evenodd" clip-rule="evenodd" fill="url(#SVGID_1_)" d="M94.867,87.99c0,6.399,0,12.628,0,18.947
	c-0.325,0.227-0.655,0.456-0.976,0.68c-0.603-0.164-1.154-0.264-1.668-0.462c-8.671-3.333-17.336-6.682-26.004-10.021
	c-4.377-1.686-8.763-3.35-13.136-5.046c-1.03-0.399-2.069-0.492-3.171-0.333c-0.983,0.479-1.358,1.357-1.364,2.387
	c-0.023,3.863-0.054,7.727,0.013,11.589c0.028,1.624,0.888,2.78,2.468,3.372c3.349,1.253,6.689,2.531,10.028,3.811
	c5.768,2.211,11.53,4.435,17.297,6.646c4.857,1.863,9.719,3.716,14.576,5.577c0.517,0.198,1.023,0.424,1.669,0.693
	c0.096,0.512,0.278,1.042,0.281,1.573c0.021,5.632,0.017,11.264,0.009,16.896c0,0.357-0.086,0.714-0.13,1.056
	c-0.697,0.377-1.315,0.332-1.948,0.091c-6.293-2.398-12.585-4.799-18.881-7.19c-5.774-2.194-11.553-4.377-17.33-6.564
	c-1.433-0.543-2.871-1.074-4.298-1.631c-1.932-0.754-3.566,0.239-3.762,2.304c-0.018,0.185-0.018,0.372-0.018,0.559
	c-0.006,3.723-0.008,7.446-0.017,11.17c-0.004,1.934,1.259,2.972,2.801,3.62c2.696,1.132,5.464,2.092,8.195,3.141
	c8.369,3.212,16.733,6.434,25.101,9.649c2.558,0.982,5.118,1.958,7.679,2.935c2.083,0.794,2.614,1.542,2.612,3.747
	c-0.002,5.166-0.007,10.332-0.026,15.498c-0.002,0.535-0.105,1.068-0.153,1.518c-0.909,0.434-1.618,0.205-2.316-0.065
	c-3.551-1.379-7.096-2.771-10.648-4.146c-6.281-2.429-12.567-4.846-18.848-7.274c-4.809-1.858-9.611-3.732-14.419-5.59
	c-5.805-2.242-11.616-4.47-17.42-6.716c-1.385-0.536-2.768-1.085-4.119-1.701c-0.575-0.262-1.063-0.712-1.653-1.119
	c-0.088-1.059-0.245-2.068-0.246-3.078c-0.01-26.297-0.013-52.594,0.009-78.891c0.003-3.856,0.141-7.711,0.207-11.567
	c0.011-0.67,0.111-1.294,0.63-1.849c0.885-0.311,1.78-0.207,2.671,0.139c2.599,1.005,5.197,2.011,7.799,3.006
	c5.553,2.123,11.108,4.237,16.662,6.359c5.9,2.254,11.797,4.514,17.697,6.77c5.597,2.14,11.194,4.278,16.791,6.416
	c1.909,0.729,3.827,1.436,5.724,2.195C93.816,87.321,94.342,87.696,94.867,87.99z"/>
<linearGradient id="SVGID_2_" gradientUnits="userSpaceOnUse" x1="59.8311" y1="133.0938" x2="52.1121" y2="146.4634">
	<stop  offset="0" style="stop-color:#033D81"/>
	<stop  offset="1" style="stop-color:#4B79B9"/>
</linearGradient>
<path fill-rule="evenodd" clip-rule="evenodd" fill="url(#SVGID_2_)" d="M50.813,145.713c-0.753-0.754-0.959-1.484-0.956-2.309
	c0.013-3.305-0.007-6.608,0.036-9.912c0.009-0.671,0.241-1.339,0.342-1.862c0.757-0.501,1.336-0.369,1.913-0.148
	c4.769,1.829,9.539,3.656,14.304,5.494c0.335,0.129,0.641,0.335,1.209,0.639c-2.975,1.446-5.731,2.808-8.525,4.102
	C56.361,143.002,53.619,144.362,50.813,145.713z"/>
<linearGradient id="SVGID_3_" gradientUnits="userSpaceOnUse" x1="59.6367" y1="94.8242" x2="51.948" y2="108.1415">
	<stop  offset="0" style="stop-color:#033D81"/>
	<stop  offset="1" style="stop-color:#4B79B9"/>
</linearGradient>
<path fill-rule="evenodd" clip-rule="evenodd" fill="url(#SVGID_3_)" d="M50.724,107.435c-0.66-0.884-0.838-1.677-0.837-2.532
	c0.004-3.296,0.008-6.592-0.003-9.887c-0.002-0.672,0.091-1.29,0.577-1.81c0.642-0.272,1.246-0.16,1.877,0.092
	c4.129,1.651,8.266,3.282,12.4,4.918c0.799,0.316,1.6,0.626,2.4,0.94c-0.001,0.101-0.003,0.203-0.004,0.304
	C61.691,102.104,56.249,104.75,50.724,107.435z"/>
<linearGradient id="SVGID_4_" gradientUnits="userSpaceOnUse" x1="28.6611" y1="52.0078" x2="168.583" y2="52.0078">
	<stop  offset="0" style="stop-color:#81DD99"/>
	<stop  offset="1" style="stop-color:#2D7129"/>
</linearGradient>
<path fill-rule="evenodd" clip-rule="evenodd" fill="url(#SVGID_4_)" d="M168.531,52.639c-0.389,0.276-0.803,0.659-1.289,0.899
	c-3.499,1.734-7.013,3.438-10.521,5.154c-4.928,2.412-9.855,4.827-14.783,7.238c-4.26,2.084-8.523,4.162-12.781,6.25
	c-5.427,2.662-10.844,5.346-16.28,7.99c-1.46,0.711-2.968,1.324-4.463,1.962c-0.92,0.393-1.851,0.539-2.845,0.188
	c-1.836-0.649-3.707-1.203-5.536-1.87c-2.398-0.875-4.778-1.8-7.148-2.749c-0.618-0.248-1.366-0.369-1.676-1.035
	c-0.039-0.594,0.325-0.801,0.709-0.992c1.792-0.889,3.582-1.781,5.376-2.663c0.375-0.184,0.777-0.31,1.151-0.493
	c5.058-2.466,10.104-4.953,15.169-7.402c6.234-3.015,12.483-6,18.726-9c0.668-0.321,1.328-0.66,1.997-0.979
	c0.732-0.349,1.218-0.914,1.22-1.722c0.001-0.812-0.48-1.402-1.226-1.711c-1.286-0.533-2.584-1.038-3.884-1.535
	c-1.864-0.713-3.771-1.328-5.591-2.138c-1.59-0.708-2.98-0.308-4.396,0.378c-3.722,1.801-7.443,3.603-11.165,5.405
	c-0.335,0.162-0.67,0.324-1.005,0.487c-5.429,2.658-10.851,5.33-16.289,7.97c-4.474,2.172-8.96,4.32-13.455,6.449
	c-0.833,0.395-1.726,0.671-2.605,0.958c-1.329,0.434-2.656,0.357-3.958-0.133c-2.955-1.111-5.913-2.213-8.859-3.344
	c-4.68-1.797-9.345-3.632-14.028-5.421c-5.983-2.287-11.977-4.542-17.965-6.815c-1.017-0.386-1.944-0.893-2.467-1.939
	c-0.046-1.006,0.46-1.662,1.33-2.08c1.633-0.786,3.277-1.55,4.905-2.347c2.423-1.186,4.83-2.404,7.255-3.586
	c6.562-3.197,13.129-6.383,19.696-9.569c2.76-1.339,5.528-2.663,8.287-4.005c3.93-1.913,7.852-3.841,11.782-5.752
	c1.755-0.853,3.528-1.671,5.284-2.522c1.542-0.748,3.149-0.897,4.735-0.304c4.13,1.545,8.233,3.162,12.34,4.769
	c0.269,0.105,0.474,0.375,0.688,0.55c-0.216,0.941-0.887,1.281-1.554,1.607c-3.383,1.655-6.771,3.298-10.154,4.953
	c-5.012,2.452-10.015,4.923-15.034,7.361c-4.683,2.274-9.387,4.505-14.067,6.784c-0.571,0.279-1.138,0.662-1.563,1.127
	c-1.204,1.319-0.786,3.078,0.862,3.735c1.81,0.722,3.641,1.393,5.459,2.093c0.606,0.233,1.228,0.443,1.801,0.743
	c1.715,0.899,3.399,0.75,5.084-0.061c2.136-1.027,4.278-2.044,6.407-3.085c6.015-2.941,12.021-5.902,18.039-8.838
	c6.058-2.955,12.127-5.89,18.192-8.83c0.292-0.142,0.62-0.217,0.895-0.384c1.669-1.016,3.367-0.778,5.073-0.14
	c3.348,1.252,6.697,2.501,10.037,3.773c4.641,1.768,9.275,3.555,13.911,5.336c5.893,2.264,11.784,4.531,17.677,6.793
	c0.477,0.183,0.988,0.291,1.44,0.518C168.153,51.007,168.768,51.443,168.531,52.639z"/>
<linearGradient id="SVGID_5_" gradientUnits="userSpaceOnUse" x1="83.9468" y1="54.8066" x2="83.9468" y2="29.8408">
	<stop  offset="0" style="stop-color:#4F9C56"/>
	<stop  offset="1" style="stop-color:#2D7129"/>
</linearGradient>
<path fill-rule="evenodd" clip-rule="evenodd" fill="url(#SVGID_5_)" d="M104.599,29.841c0,3.477,0,6.674,0,10.037
	c-1.119,0.574-2.299,1.199-3.497,1.788c-4.622,2.272-9.25,4.535-13.876,6.798c-3.755,1.837-7.51,3.673-11.27,5.5
	c-0.458,0.222-0.946,0.381-1.42,0.571c-0.999,0.4-1.932,0.348-2.955-0.088c-2.089-0.889-4.249-1.609-6.359-2.449
	c-0.747-0.297-1.644-0.467-1.928-1.441c0.104-0.677,0.568-1.036,1.127-1.309c2.463-1.201,4.928-2.397,7.391-3.598
	c4.175-2.036,8.348-4.076,12.523-6.109c3.382-1.647,6.768-3.288,10.152-4.931c2.924-1.419,5.848-2.841,8.776-4.252
	C103.625,30.185,104.01,30.067,104.599,29.841z"/>
<linearGradient id="SVGID_6_" gradientUnits="userSpaceOnUse" x1="127.9595" y1="59.3848" x2="127.9595" y2="48.8965">
	<stop  offset="0" style="stop-color:#4D9A53"/>
	<stop  offset="1" style="stop-color:#2D7129"/>
</linearGradient>
<path fill-rule="evenodd" clip-rule="evenodd" fill="url(#SVGID_6_)" d="M122,59.385c0-3.426,0-6.617,0-9.876
	c0.371-0.2,0.728-0.392,1.137-0.612c3.653,1.312,7.245,2.743,10.746,4.031c0.145,0.723-0.16,0.93-0.504,1.102
	c-0.789,0.395-1.579,0.788-2.374,1.172c-2.591,1.252-5.182,2.504-7.779,3.745C122.907,59.1,122.556,59.188,122,59.385z"/>
</svg>
