<svg width="700" height="700" viewBox="0 0 700 700" fill="none" xmlns="http://www.w3.org/2000/svg">
<mask id="mask0_17248_1508" style="mask-type:luminance" maskUnits="userSpaceOnUse" x="105" y="377" width="98" height="73">
<path d="M105.623 377.735H202.822V450H105.623V377.735Z" fill="white"/>
</mask>
<g mask="url(#mask0_17248_1508)">
<path fill-rule="evenodd" clip-rule="evenodd" d="M167.959 439.4L202.487 381.134H105.99V449.999H161.765L167.959 439.4Z" fill="#040B05"/>
</g>
<mask id="mask1_17248_1508" style="mask-type:luminance" maskUnits="userSpaceOnUse" x="105" y="255" width="172" height="74">
<path d="M105.623 255.135H276.38V328.693H105.623V255.135Z" fill="white"/>
</mask>
<g mask="url(#mask1_17248_1508)">
<path fill-rule="evenodd" clip-rule="evenodd" d="M275.518 257.974H105.99V325.514H235.674L275.518 257.974Z" fill="#040B05"/>
</g>
<mask id="mask2_17248_1508" style="mask-type:luminance" maskUnits="userSpaceOnUse" x="105" y="141" width="241" height="70">
<path d="M105.623 141H345.853V210.184H105.623V141Z" fill="white"/>
</mask>
<g mask="url(#mask2_17248_1508)">
<path fill-rule="evenodd" clip-rule="evenodd" d="M344.56 141.001H105.99V208.54H304.732L344.56 141.001Z" fill="#040B05"/>
</g>
<mask id="mask3_17248_1508" style="mask-type:luminance" maskUnits="userSpaceOnUse" x="223" y="141" width="373" height="309">
<path d="M223.255 141.001H595.133V449.998H223.255V141.001Z" fill="white"/>
</mask>
<g mask="url(#mask3_17248_1508)">
<path d="M409.274 141.001L226.033 449.999H591.19L409.274 141.001ZM408.827 259.304L481.427 382.459H335.795L408.827 259.304Z" fill="url(#paint0_linear_17248_1508)"/>
</g>
<mask id="mask4_17248_1508" style="mask-type:luminance" maskUnits="userSpaceOnUse" x="210" y="500" width="59" height="59">
<path d="M210.906 500.02H268.537V558.075H210.906V500.02Z" fill="white"/>
</mask>
<g mask="url(#mask4_17248_1508)">
<path d="M264.076 510.714L256.767 518.018C252.12 513.143 246.798 510.714 240.606 510.714C235.286 510.714 230.636 512.487 227.107 516.03C223.558 519.577 221.57 523.993 221.57 529.079C221.57 534.168 223.346 538.812 227.107 542.358C230.867 546.118 235.517 547.889 241.05 547.889C244.599 547.889 247.684 547.233 250.133 545.674C252.581 544.115 254.569 541.686 256.111 538.601H240.394V528.868H267.856V531.083C267.856 535.958 266.525 540.604 264.096 544.576C261.664 548.775 258.329 552.091 254.569 554.309C250.578 556.524 245.928 557.625 240.625 557.625C234.858 557.625 229.997 556.293 225.564 553.864C221.129 551.435 217.368 547.678 214.936 543.245C212.277 538.812 210.945 533.726 211.176 528.637C211.176 521.333 213.605 515.144 218.255 509.827C224.019 503.638 231.312 500.305 240.394 500.305C245.041 500.305 249.477 501.192 253.682 502.965C257.228 504.508 260.761 507.167 264.096 510.714H264.076Z" fill="#040B05"/>
</g>
<path d="M105 500.767H134.894V510.945H115.414V520.908H134.894V530.872H115.414V545.249H134.894V555.213H105V500.767Z" fill="#040B05"/>
<path d="M154.815 500.767H167.216C175.182 500.767 180.946 501.654 184.937 503.638C188.7 505.625 192.016 508.727 194.464 513.16C196.896 517.593 198.225 522.679 198.225 528.654C198.225 532.642 197.569 536.614 196.007 540.16C194.678 543.707 192.691 546.578 190.243 549.007C187.811 551.436 185.151 552.998 182.277 553.884C179.404 554.771 174.523 555.213 167.447 555.213H155.046L154.832 500.784L154.815 500.767ZM165.229 510.731V545.035H170.107C174.754 545.035 178.303 544.593 180.521 543.493C182.739 542.395 184.512 540.622 185.843 537.962C187.174 535.302 187.83 532.201 187.83 528.443C187.83 522.679 186.285 518.265 182.95 514.95C180.076 512.079 175.429 510.748 168.776 510.748H165.229V510.731Z" fill="#040B05"/>
<path d="M284.515 501.865H314.406V512.042H294.929V522.006H314.406V531.97H294.929V546.347H314.406V556.313H284.515V501.865Z" fill="#040B05"/>
<path d="M360.85 501.865H373.251C381.216 501.865 386.98 502.752 390.974 504.739C394.734 506.723 398.053 509.828 400.498 514.258C402.93 518.691 404.262 523.779 404.262 529.755C404.262 533.743 403.603 537.715 402.274 541.261C400.943 544.807 398.956 547.678 396.507 550.107C394.059 552.536 391.416 554.095 388.542 554.982C385.668 555.869 380.791 556.313 373.712 556.313H361.311L360.869 501.885L360.85 501.865ZM371.263 511.829V546.136H376.141C380.791 546.136 384.337 545.691 386.555 544.593C388.773 543.493 390.318 541.722 391.877 539.062C393.208 536.403 393.864 533.301 393.864 529.541C393.864 523.779 392.322 519.366 388.987 516.05C386.113 513.177 381.463 511.848 375.043 511.848H371.28L371.263 511.829Z" fill="#040B05"/>
<path d="M418.097 501.865H447.99V512.043H428.511V522.006H447.99V531.97H428.511V546.347H447.99V556.313H418.097V501.865Z" fill="#040B05"/>
<path d="M468.018 501.865H478.431V546.561H493.495V556.294H468.037V501.865H468.018Z" fill="#040B05"/>
<path d="M506.18 501.865H536.285V512.043H526.313V556.294H515.688V512.043H505.949V501.865H506.18Z" fill="#040B05"/>
<mask id="mask5_17248_1508" style="mask-type:luminance" maskUnits="userSpaceOnUse" x="542" y="501" width="54" height="56">
<path d="M542.416 501.387H595.755V556.883H542.416V501.387Z" fill="white"/>
</mask>
<g mask="url(#mask5_17248_1508)">
<path d="M564.083 501.865H574.708L595.75 556.294H584.68L580.475 545.002H558.105L553.669 556.294H542.813L564.066 501.865H564.083ZM569.405 516.245L562.096 535.055H576.715L569.405 516.245Z" fill="#040B05"/>
</g>
<defs>
<linearGradient id="paint0_linear_17248_1508" x1="317.084" y1="194.482" x2="555.245" y2="232.984" gradientUnits="userSpaceOnUse">
<stop stop-color="#00DA63"/>
<stop offset="1" stop-color="#27A1FF"/>
</linearGradient>
</defs>
</svg>
