<svg id="Layer_1" data-name="Layer 1" xmlns="http://www.w3.org/2000/svg" xmlns:xlink="http://www.w3.org/1999/xlink" viewBox="0 0 1008 1066.98374"><defs><style>.cls-1{fill:url(#linear-gradient);}.cls-2{fill:#080808;}</style><linearGradient id="linear-gradient" x1="24.40736" y1="297.76304" x2="985.27758" y2="297.76304" gradientUnits="userSpaceOnUse"><stop offset="0" stop-color="#00e6d2"/><stop offset="1" stop-color="#00a5e4"/></linearGradient></defs><title>edl-stacked-color</title><path class="cls-1" d="M708.70938,174.01973c-69.80769-.31621-124.48194,53.43711-126.64044,121.99486-1.496,47.51528-32.81413,78.248-80.63674,79.1295-49.70419.91611-95.34485,33.57154-112.94424,80.464-5.39675,14.37929-8.7279,28.53967-8.419,44.41292.56772,29.16933-13.33072,51.95481-38.973,66.062-26.37446,14.51007-53.78932,14.2818-79.06758-2.05666-23.14294-14.95827-35.70383-36.91133-36.29258-65.50717-.97057-47.14017-22.66546-82.77543-62.77708-107.1231-17.88068-10.8536-37.59674-15.96084-58.546-16.2887-46.02348-.72016-79.88168-33.46451-80.005-77.30794-.12311-43.75912,33.75229-76.59478,79.82213-77.37214,62.97325-1.06258,116.149-51.12692,121.04484-113.85156C226.14729,95.39589,225.931,84.103,229.4,73.1874a77.01729,77.01729,0,0,1,73.68393-53.77528c34.13813-.04079,61.4504,19.96953,71.995,52.74716,16.90154,52.53817-16.3166,99.71891-71.67885,101.80769-58.10876,2.19241-104.25214,36.884-119.40024,89.76775a123.0705,123.0705,0,0,0,47.1825,134.37419c40.2419,28.38845,83.61,31.50645,127.07768,9.96561,43.87664-21.74349,66.95835-58.98934,68.74306-108.17866,1.72509-47.54429,32.68848-78.75466,80.25353-79.48993C574.04534,219.37353,626.9361,165.1957,628.434,96.674c.65918-30.15188,14.00219-53.43454,40.64943-67.86356,26.18158-14.1769,52.75807-12.9712,78.06583,2.38686,23.66766,14.36281,33.64592,36.667,34.88581,63.82618C785.28248,166.15211,837.8,218.997,906.19459,220.37479c31.67884.63814,55.95768,14.15869,70.23425,42.62346,13.75866,27.43233,11.29883,54.65843-6.16689,79.879-14.78168,21.345-36.2403,31.27767-61.74232,32.2028-64.702,2.3472-109.79009,40.91851-124.12784,104.1165-3.32488,14.65556-.56672,29.1954-5.94356,44.212-9.53086,26.61853-32.93882,49.129-62.665,52.09324-45.72885,4.55976-84.5678-27.24963-87.4009-71.58206-2.86785-44.87607,32.06831-81.71615,78.38294-82.65449,64.14745-1.29966,117.39489-49.81125,122.86867-111.94065,5.62593-63.85639-38.3253-121.5949-101.86672-133.51542C720.69558,174.4826,713.384,174.43555,708.70938,174.01973Z"/><path class="cls-2" d="M229.65869,781.24287q-.0008-42.87981.01422-85.7596c.01378-9.56071,4.7857-16.56332,14.11316-16.60306,30.80661-.13128,61.864-3.90216,92.29021,4.16538,48.60768,12.88833,78.18217,53.05568,76.53226,101.04324-1.80815,52.58876-37.14765,91.3123-87.76244,99.05928-26.38741,4.03878-52.97484,2.13227-79.47327,1.76924-10.32354-.14142-15.67663-6.7785-15.69533-17.03975Q229.59848,824.56036,229.65869,781.24287Zm29.23139.41864q0,37.18268-.0109,74.36533c-.003,3.59145-.47346,6.948,5.11749,6.78561,16.30909-.47376,32.6778.80492,48.93154-1.26211,40.92125-5.20411,69.22452-36.63324,70.14666-77.68051.92759-41.28633-25.48237-73.96215-65.78922-81.37793-16.78832-3.08878-33.76845-.72136-50.60859-1.801-7.01668-.44984-8.01511,2.18362-7.92781,8.357C259.0915,733.24828,258.88923,757.45632,258.89008,781.66151Z"/><path class="cls-2" d="M24.90263,781.57433c.00016-28.30054-.04119-56.6012.02009-84.90161.02548-11.78388,5.69945-18.18278,17.44092-18.249,43.17888-.24347,86.36017-.17882,129.53985-.02783,8.39475.02935,12.77442,4.4386,12.54276,11.3554-.2292,6.8385-5.21365,11.027-14.04532,11.05369-35.30242.10666-70.61007.35384-105.90474-.1807-8.42173-.12754-10.776,1.85576-10.402,10.36954.75459,17.18059.57246,34.428.05743,51.62632-.21215,7.08251,1.43738,9.376,8.9647,9.26774,31.79516-.45727,63.60051-.19381,95.40213-.1931,2.04227,0,4.08881-.0757,6.12616.02567,7.09.35279,11.95614,3.74969,12.08362,11.10378.13057,7.53495-4.95389,10.87777-11.94717,11.06869-9.32938.25474-18.67074.07942-28.007.08043-25.09118.00273-50.18429.1645-75.27216-.12536-5.58314-.06451-7.4631,1.23529-7.32889,7.133.40481,17.788.498,35.6016-.03,53.38317-.2065,6.95516,2.31426,8.03028,8.50406,7.9807,35.00852-.28051,70.02041-.13006,105.03123-.144,3.5071-.00139,7.00406-.11166,10.29693,1.438,5.093,2.39684,7.39867,6.4183,6.91079,11.97671-.48415,5.51577-4.16906,8.18187-9.0878,9.19876a43.51094,43.51094,0,0,1-8.7153.51487q-59.51865.04383-119.03734.00727c-18.75216-.01916-23.13845-4.48014-23.14187-23.23695Q24.89646,821.837,24.90263,781.57433Z"/><path class="cls-2" d="M460.77033,779.57364q.00015-43.74867.01068-87.49733c.01347-12.05443,4.25582-16.84508,14.79606-16.933,10.93164-.09113,15.24431,4.76969,15.24762,17.32948.01389,53.37338.15643,106.74768-.16626,160.1191-.04509,7.45739,1.43428,9.93495,9.46947,9.8286,36.45076-.48238,72.91168-.22714,109.36885-.20179,11.75066.00818,18.51046,4.242,18.57415,11.48749.06529,7.425-6.32406,11.601-18.35638,11.61659q-65.62285.08483-131.2457-.00829c-14.70844-.02861-17.684-3.23784-17.69326-18.24354Q460.74864,823.32233,460.77033,779.57364Z"/><path class="cls-2" d="M970.04165,1021.38142c-12.53229,7.23487-21.23776,7.23866-29.33813.2628-9.01685-7.76512-11.91864-23.51631-6.71546-36.45116,3.9576-9.83846,12.16268-15.265,22.37884-14.94432a18.87209,18.87209,0,0,1,9.87967,3.0422c1.19782.76995,2.1862,2.47456,4.13818.33653,5.27552-5.7778,6.97265-2.98949,6.9625,3.2334-.0265,16.33463.17781,32.67236-.08516,49.00279-.14318,8.89584-4.33756,15.7619-12.7991,19.13465-8.975,3.57741-17.72627,3.01457-25.60984-3.16593-2.67547-2.09757-5.08852-4.90218-2.64224-8.13056,2.63017-3.47126,5.07089-.22615,7.33979,1.37888,6.01643,4.2563,12.47064,4.95164,18.98649,1.59626C968.24055,1033.74,970.92906,1028.84725,970.04165,1021.38142Zm.33979-22.4842c.05417-14.38281-6.69526-22.55178-17.13517-20.739-9.25651,1.6073-15.422,11.92224-14.2744,23.88156.95889,9.99267,8.05057,17.18979,16.63242,16.87966C964.74081,1018.58921,970.33581,1011.00827,970.38144,998.89722Z"/><path class="cls-2" d="M24.38626,991.471c-.00021-8.73686.22648-17.48176-.08334-26.20765-.19244-5.42057,1.29777-8.06094,7.28268-7.8837,11.057.32742,22.13084.05738,33.19716.118,2.48475.01363,5.84675-.70327,5.8943,3.25085.04937,4.10089-3.21572,4.17155-6.24322,4.17136-8.73689-.00053-17.48068.20989-26.2079-.07984-4.92525-.16354-7.15526.757-7.16552,6.57187-.02965,16.86227-.34006,16.86208,16.291,16.86146,4.36845-.00016,8.75923-.27244,13.09764.08768,3.02745.25134,8.07292-2.19374,8.2715,3.36892.19656,5.50282-4.77315,3.84457-7.92791,3.92471-7.276.18475-14.58364.42156-21.83341-.05169-6.166-.40246-7.9433,1.812-7.87059,7.88929.176,14.71867-.1178,14.72209,14.57028,14.72225q9.61054.00017,19.22109.00155c2.65891.00107,5.53559-.21013,5.87389,3.5109.37254,4.0988-2.659,3.77819-5.282,3.78306-11.64915.02158-23.30151-.1527-34.946.07971-5.2901.10557-6.3021-2.50809-6.19984-7.03586C24.52987,1009.53042,24.38648,1000.49908,24.38626,991.471Z"/><path class="cls-2" d="M336.217,991.7075c-.00075-8.74878.28615-17.51016-.09777-26.24206-.2729-6.20855,2.23343-8.45688,8.20348-8.05194,4.35434.29534,8.7448.05105,13.11923.05864,16.84624.02919,25.76926,6.656,29.96707,22.2481,4.50778,16.74372-.99865,35.409-12.89976,42.34146-11.11435,6.47423-23.37759,2.81438-35.14449,3.05117-3.20482.06443-3.14648-3.61974-3.14669-6.28415Q336.217,1005.26811,336.217,991.7075Zm18.94941,26.50682c17.63662-.01058,25.59-7.68488,26.0552-25.14116.56194-21.08817-8.82365-29.28688-31.72746-28.26526-4.53043.20211-6.03577,1.49676-5.93362,6.05562.26713,11.92518.0078,23.861.10995,35.79132C343.78536,1020.07082,341.86041,1017.96562,355.16642,1018.21432Z"/><path class="cls-2" d="M521.87727,1022.64906c0,6.04945.02533,11.75531-.01164,17.46075-.01646,2.52914-.77372,4.98231-3.69207,4.95683-2.88876-.02517-3.716-2.54555-3.7206-5.00956-.0405-21.55554-.07416-43.11165.06261-64.66647.02137-3.35976,3.16508-6.76453,5.31847-3.78941,3.58469,4.95234,5.65089,2.10165,8.78722.50936,8.71937-4.42652,19.85221-1.17409,26.26442,7.45232,7.37452,9.92121,7.817,26.96059.96584,37.20369C548.81326,1027.28945,538.76262,1029.19911,521.87727,1022.64906Zm31.366-24.22289a27.32147,27.32147,0,0,0-2.849-11.0437c-4.15239-7.67168-11.10025-11.23038-17.84232-8.6645-8.30488,3.16066-10.60478,9.96075-10.69175,18.16081-.09264,8.74822.31639,17.20911,10.00159,21.13877C542.67737,1022.40571,553.34433,1012.89237,553.24325,998.42617Z"/><path class="cls-2" d="M673.88545,1003.53323c-3.78086.00641-7.57017-.14748-11.33949.06093-2.48058.13717-5.948-1.41595-7.23722,1.12224-1.6389,3.22711,1.301,6.014,3.21605,8.40036,5.16193,6.43225,13.64771,7.44425,22.10177,2.64249,2.58027-1.46553,5.337-4.05943,7.47144-.73028,2.23032,3.47876-.93325,5.917-3.6862,7.654a23.985,23.985,0,0,1-21.69958,2.429c-12.37617-4.31122-19.03147-19.29192-15.451-34.97013,3.069-13.439,13.29607-21.07,26.5385-19.802,12.51273,1.19814,23.83812,16.49878,21.217,28.54946-.76656,3.52455-3.00757,4.67108-6.29916,4.647C683.77389,1003.5,678.82951,1003.52679,673.88545,1003.53323Zm-3.62453-7.47358c4.35028,0,8.70259-.0811,13.0503.02479,3.69848.09011,4.55245-1.66377,3.56513-4.89683-1.99728-6.54161-5.8756-11.49309-12.7196-13.01921-6.46734-1.442-12.04942.75894-16.14966,6.06585-2.32618,3.01075-4.87429,6.7984-3.48361,10.23475,1.3378,3.30582,5.74653,1.218,8.78231,1.54954A62.31292,62.31292,0,0,0,670.26092,996.05965Z"/><path class="cls-2" d="M404.946,1003.53553c5.40737,15.01259,14.40487,18.68228,26.87754,12.02639,2.57663-1.375,5.23341-3.90238,7.3571-.1563,1.92153,3.38928-1.26321,5.31022-3.51213,7.01216-9.10382,6.88909-24.35005,5.01517-31.78153-3.78866-8.95529-10.609-8.57949-31.03624.76143-41.38646,6.58414-7.29548,18.21107-9.36783,27.30345-4.86641,8.8227,4.36794,15.40042,17.15443,13.82392,26.32592-.83387,4.8508-4.199,4.84674-7.82747,4.84022C427.20479,1003.52308,416.46143,1003.53553,404.946,1003.53553Zm16.07433-7.47679c4.37368,0,8.74833-.055,13.12073.01766,3.42194.0569,4.85013-1.17289,3.72893-4.74106-2.06321-6.56576-5.94014-11.547-12.79044-13.11181-6.88674-1.57316-12.67109.91477-16.74633,6.72636-2.00145,2.85443-4.43694,6.44018-3.04572,9.58987,1.49027,3.37432,5.74224,1.05874,8.7433,1.46647A50.815,50.815,0,0,0,421.02028,996.05874Z"/><path class="cls-2" d="M177.519,1026.79729c-8.19333-.53234-15.73818-1.47927-20.20567-8.949-1.49786-2.50425-2.71267-5.94687-.00812-7.98831,3.46383-2.6147,4.60961.85944,6.34243,3.31643,4.97761,7.05792,18.66957,8.08536,25.04609,2.16822,4.748-4.40592,3.5225-10.14461-2.91162-11.781-4.75846-1.21015-9.79537-1.28081-14.67233-2.07851-10.52132-1.72094-14.95035-6.26569-14.8497-14.98228.0951-8.23554,6.27811-14.8458,15.55258-15.9202,5.75111-.66626,11.616-.99261,17.1887,1.50327,3.62,1.62136,6.38058,4.03892,7.72094,7.81594.833,2.34722.86913,4.73529-1.68218,6.092-2.48752,1.32284-3.51544-.8172-4.88454-2.32508-5.77623-6.362-15.15648-7.95412-21.86413-3.7717-2.86237,1.78481-5.07934,4.10647-4.47552,7.79726.55724,3.40653,3.26082,4.69226,6.26561,5.15474,4.31118.6635,8.67845.95609,12.99646,1.58161,10.82062,1.56757,15.29773,5.6733,15.68379,14.20522.42206,9.32439-4.44186,15.11808-14.78987,17.40291A58.25371,58.25371,0,0,1,177.519,1026.79729Z"/><path class="cls-2" d="M749.50124,998.785c-.00342,7.55454.19939,15.11659-.07853,22.66087-.17,4.61351-2.55121,7.17183-6.34244,2.80028-2.12155-2.44633-2.91835-2.09628-5.34529-.795-14.30646,7.67018-28.33682,1.35515-32.778-14.975-2.67441-9.83413-2.08448-19.62221,3.69634-28.48209,5.05572-7.74834,14.3132-11.2118,23.62186-9.3495,4.32549.86537,8.205,6.27149,13.44053.41972,1.51794-1.69666,3.83279,2.115,3.80918,5.05713C749.46438,983.67549,749.50456,991.23041,749.50124,998.785Zm-6.94658.70632c-.13869-2.58666-.16252-4.32766-.33605-6.05364-.92694-9.214-5.80261-14.996-13.68565-15.29384-8.21406-.31032-13.795,3.9926-16.29018,11.71535-2.51519,7.7851-2.04419,15.47711,2.8691,22.35087,3.38038,4.72923,7.97514,7.79534,14.02747,6.8335,6.64387-1.05586,10.85994-5.24725,12.41977-11.79014A63.6575,63.6575,0,0,0,742.55466,999.4913Z"/><path class="cls-2" d="M481.9817,1003.53606c-3.78824.00379-7.58406-.14163-11.362.05527-2.48731.12966-6.01547-1.37917-7.23637,1.12556-1.56656,3.214,1.35906,5.9778,3.36607,8.36285,5.43932,6.46355,13.38465,7.38548,22.18608,2.733,2.44082-1.29029,5.00272-4.39866,7.44344-.77158,2.58262,3.83806-1.14984,5.96859-3.59644,7.56518a23.77117,23.77117,0,0,1-21.72479,2.541c-12.55131-4.364-18.876-18.70288-15.43056-35.01924,2.87166-13.5992,12.86375-21.0579,26.48433-19.76969,12.81224,1.21176,23.58563,16.01517,20.99275,28.59338-.76079,3.69092-3.03482,4.5954-6.26091,4.58474C491.88937,1003.52022,486.93559,1003.53227,481.9817,1003.53606Zm-2.97082-7.47149c4.0496,0,8.11138-.19738,12.14559.05118,4.77609.2943,5.43537-1.72705,3.91368-5.69625-2.68605-7.00657-7.093-11.98314-15.00026-12.50936-7.49035-.49847-12.53955,3.335-15.97378,9.75073-3.26894,6.10675-2.14688,9.15265,5.37371,8.45574C472.62464,995.82426,475.829,996.068,479.01088,996.06457Z"/><path class="cls-2" d="M874.16462,998.38775c.00267-7.58593-.00844-15.17191.00962-22.75779.00523-2.16811.56664-4.159,2.92145-4.79268,1.45618-.39177,3.25162-.06659,3.65713,1.54333,1.40425,5.57652,3.41276,2.962,6.33357,1.05471,12.07592-7.88587,27.89049-2.36726,31.75321,11.39725,3.43712,12.24811,1.27881,24.95735,1.52222,37.46308.0437,2.24123-1.3862,4.13219-3.73524,4.02807-2.87337-.12737-3.65692-2.39478-3.65232-4.99594.01432-8.16945.08612-16.34018-.02981-24.50811-.16466-11.59979-5.38462-18.70307-13.79208-19.02929-8.704-.33773-16.0082,6.74776-17.08409,17.64141-.74231,7.517-.2261,15.15132-.49291,22.72547-.11209,3.18532,1.4533,8.14439-3.90225,8.01083-4.43138-.11049-3.45475-4.57868-3.48852-7.6486C874.111,1011.80964,874.16184,1005.09843,874.16462,998.38775Z"/><path class="cls-2" d="M145.76463,999.15567c.00128,7.26182.07212,14.52463-.02832,21.785-.05118,3.697-2.67152,7.71821-5.38333,4.25833-3.69068-4.70887-5.24068-2.32489-8.459-.51268-10.50091,5.91311-24.17727.54436-29.40962-11.73086a36.5287,36.5287,0,0,1-.1654-28.84651c5.08788-12.43967,19.04782-17.26483,31.25282-11.3864,1.51784.731,3.14947,4.3335,5.14355.44,1.07013-2.08964,2.54982-3.22759,4.842-1.981,2.07154,1.12647,2.21227,3.22537,2.2097,5.31724Q145.75346,987.82725,145.76463,999.15567Zm-7.39387-.43205h.09115c0-1.739.12886-3.48927-.02148-5.2152-.78419-9.0014-5.77751-14.57119-13.71632-15.40793-6.8799-.72512-14.17963,4.1299-16.49961,11.58344a26.6418,26.6418,0,0,0,.366,17.89072c2.91493,7.48285,8.369,12.33616,16.50955,11.435,8.30125-.919,12.09483-7.20418,13.23473-15.07775A36.69121,36.69121,0,0,0,138.37076,998.72362Z"/><path class="cls-2" d="M804.3725,976.64108c7.4038-6.90726,16.03576-9.054,25.37925-4.402,10.00149,4.97965,12.05327,14.134,11.78924,24.3531-.19565,7.56972.03483,15.14966-.078,22.72275-.04061,2.71992,1.01435,6.86729-3.10909,6.9423-4.83453.08789-3.5383-4.39633-3.59451-7.34546-.13859-7.28084.15344-14.57322-.1013-21.84786-.42569-12.159-5.97924-19.30446-14.61259-19.29992-9.16911.00481-16.36359,8.36206-16.77881,19.89453-.25143,6.98312.02372,13.98374-.09008,20.974-.04958,3.05016.864,7.47422-3.56577,7.63642-4.59722.16829-3.79422-4.22831-3.80566-7.30453q-.076-20.539.01368-41.07827c.01517-2.73267-.95772-6.258,3.102-7.11389C803.42654,969.82232,801.60428,975.11675,804.3725,976.64108Z"/><path class="cls-2" d="M283.18575,1026.93977a22.85036,22.85036,0,0,1-3.901-.47944c-11.95731-2.973-19.331-14.978-18.60941-30.16312.70843-14.91413,8.81853-24.94522,21.639-26.642a20.1896,20.1896,0,0,1,18.80879,6.93693c1.85357,2.093,3.56866,4.253,1.13958,6.80858-2.24283,2.35992-4.04853.45658-5.98138-.99741-9.29712-6.99418-17.03034-6.87109-22.95744.21627-7.079,8.46455-6.90993,23.93872.34513,31.61465,6.68094,7.06847,14.85825,6.90589,23.80286-.64651,1.85806-1.56883,3.41116-3.55685,5.82912-1.16458,2.15617,2.13328,1.02973,4.18113-.4007,6.2277C299.35689,1023.72106,292.04851,1027.05918,283.18575,1026.93977Z"/><path class="cls-2" d="M598.212,991.68164c0-9.59435-.01967-19.18873.01164-28.783.00951-2.90491-.25356-6.54863,3.86987-6.42992,4.07706.11738,3.64175,3.83026,3.64944,6.67948.04317,15.99048.28626,31.98775-.11476,47.96824-.14628,5.82931,1.70675,7.49372,7.32559,7.209,8.4097-.4262,16.85713-.09974,25.28853-.11112,2.878-.0039,5.467.601,5.333,4.13342-.12373,3.25953-2.80124,3.1662-5.16855,3.16753-11.62949.00663-23.26027-.09456-34.88794.04841-4.37326.05374-5.39893-2.143-5.34743-5.97166C598.29659,1010.29006,598.21207,1000.98528,598.212,991.68164Z"/><path class="cls-2" d="M227.28625,1026.71832c-8.85186-.26467-13.27683-5.23272-13.89423-13.13044-.725-9.27522-.51182-18.62432-.688-27.94168-.07437-3.93351,1.1726-8.68956-5.65206-7.91467-1.96972.22365-3.28635-1.04-3.32674-3.151-.03911-2.044,1.12526-3.64134,3.07158-3.47532,7.30784.62327,5.73765-4.49485,5.92827-8.63383.13976-3.03338-.92149-7.44956,3.69773-7.46372,4.54315-.01394,4.10826,4.38324,3.72274,7.40431-.86251,6.75806,1.48236,9.64938,8.46421,8.55425,2.58978-.40622,4.72575.74933,4.513,3.84963-.18464,2.69214-2.37511,3.32546-4.46226,2.94434-8.1196-1.48274-8.94621,2.91731-8.52746,9.431.504,7.83911.04947,15.73518.33605,23.59468.17673,4.84936,2.01663,8.69373,7.96841,7.87524,2.95949-.407,7.292-2.97926,7.52112,2.10579C236.1972,1026.05846,231.08646,1026.3383,227.28625,1026.71832Z"/><path class="cls-2" d="M763.54111,997.87216q.00192-10.89477-.00406-21.78955c-.004-2.05853-.14521-4.19387,2.284-5.09685,2.05242-.76288,3.37333.35776,4.12365,2.09072,1.37465,3.17432,2.963,1.52236,4.63643.37158a14.06007,14.06007,0,0,1,8.95754-2.80316c2.31335.13746,3.88665,1.17211,4.13615,3.59427.20494,1.98791-.66056,3.4532-2.7226,3.75594-13.75949,2.01989-14.23669,12.47916-14.54272,22.9517-.16968,5.80561.02159,11.62089-.0531,17.43051-.03943,3.06848.84659,7.38863-3.78471,7.31907-4.26363-.064-2.93246-4.24845-2.98514-6.90721C763.44815,1011.81926,763.53983,1004.84481,763.54111,997.87216Z"/><path class="cls-2" d="M89.36239,990.08385c-.00022,9.90565-.029,19.81145.01838,29.71685.01319,2.76074-.05685,5.81122-3.466,5.99479-4.15217.22354-4.06648-3.21027-4.06562-6.20315q.008-29.27992.017-58.55986c.00363-2.878-.4226-6.54732,3.81772-6.43042,4.12723.11377,3.66579,3.74709,3.67151,6.63889Q89.38395,975.66234,89.36239,990.08385Z"/><path class="cls-2" d="M251.41822,998.99417c.00075,7.28944-.01966,14.579.011,21.86827.012,2.83682-.36415,5.60494-3.96379,5.40993-2.91258-.15776-3.42986-2.58406-3.42494-5.13249q.04232-22.30569-.00481-44.61137c-.00769-2.87353.4007-5.64774,3.95268-5.40053,3.54366.24664,3.44193,3.30005,3.43531,5.99789C251.40572,984.41526,251.41747,991.70472,251.41822,998.99417Z"/><path class="cls-2" d="M861.97811,998.71926q-.00017,11.35778.00043,22.71553c.00042,2.54475-.67093,4.89977-3.62465,4.9181-2.99069.01859-3.65863-2.398-3.66162-4.90976q-.02628-22.71552-.00042-45.43107c.00149-2.561.76324-4.858,3.70692-4.90492,3.09669-.04934,3.56449,2.42061,3.57154,4.89659C861.99179,983.57553,861.97811,991.14741,861.97811,998.71926Z"/><path class="cls-2" d="M862.02747,959.42193c-.039,4.19737.07758,7.64705-4.12514,7.38633-3.63458-.22546-3.23421-3.53644-3.20226-6.10654.03152-2.52858-.54131-5.87405,3.14819-6.13693C862.03527,954.26646,862.09618,957.58511,862.02747,959.42193Z"/><path class="cls-2" d="M251.42217,960.51764c-.16177,2.83936.41459,6.45819-3.95941,6.25258-3.58982-.16878-3.41853-3.29707-3.409-5.95376.01058-2.94937-.23625-6.39856,4.00461-6.25517C251.7657,954.68666,251.3509,957.91151,251.42217,960.51764Z"/></svg>