<svg id="svg" version="1.1" xmlns="http://www.w3.org/2000/svg" xmlns:xlink="http://www.w3.org/1999/xlink" width="400" height="89.45188794153471" viewBox="0, 0, 400,89.45188794153471"><g id="svgg"><path id="path0" d="M294.563 12.625 C 294.620 18.469,294.713 37.631,294.770 55.208 L 294.874 87.167 296.437 87.167 L 298.000 87.167 298.000 53.167 L 298.000 19.167 311.000 19.167 L 324.000 19.167 324.000 10.583 L 324.000 2.000 309.230 2.000 L 294.461 2.000 294.563 12.625 M338.333 44.583 L 338.333 87.167 369.167 87.167 L 400.000 87.167 400.000 78.417 L 400.000 69.667 378.667 69.667 L 357.333 69.667 357.333 35.833 L 357.333 2.000 347.833 2.000 L 338.333 2.000 338.333 44.583 " stroke="none" fill="#29c46c" fill-rule="evenodd"></path><path id="path1" d="M60.625 2.123 C 61.106 2.157,61.894 2.157,62.375 2.123 C 62.856 2.089,62.462 2.062,61.500 2.062 C 60.538 2.062,60.144 2.089,60.625 2.123 M82.833 44.583 L 82.833 87.167 107.083 87.167 L 131.333 87.167 131.333 82.542 C 131.333 79.998,131.283 76.060,131.223 73.792 L 131.113 69.667 116.473 69.667 L 101.833 69.667 101.833 35.833 L 101.833 2.000 92.333 2.000 L 82.833 2.000 82.833 44.583 M54.292 19.625 C 55.965 19.652,58.702 19.652,60.375 19.625 C 62.048 19.598,60.679 19.575,57.333 19.575 C 53.987 19.575,52.619 19.598,54.292 19.625 M60.744 44.250 C 60.744 48.833,60.765 50.684,60.792 48.363 C 60.818 46.042,60.818 42.292,60.792 40.030 C 60.765 37.768,60.744 39.667,60.744 44.250 M64.167 75.542 C 64.168 83.362,64.313 87.167,64.610 87.167 C 64.794 87.167,64.833 85.627,64.833 78.417 C 64.833 69.778,64.829 69.667,64.500 69.667 C 64.173 69.667,64.167 69.778,64.167 75.542 " stroke="none" fill="#90d037" fill-rule="evenodd"></path><path id="path2" d="M198.625 0.115 L 200.167 0.179 200.167 8.662 L 200.167 17.146 200.875 17.233 C 201.265 17.281,202.071 17.358,202.667 17.403 C 220.024 18.718,230.773 37.946,224.103 55.748 C 221.050 63.897,213.327 70.055,204.250 71.577 C 203.012 71.785,200.533 72.080,200.333 72.043 C 200.287 72.034,200.307 73.765,200.376 75.889 C 200.445 78.012,200.483 81.906,200.459 84.542 L 200.417 89.334 201.250 89.326 C 204.027 89.302,208.906 88.634,212.333 87.810 C 222.756 85.304,232.112 79.173,237.222 71.500 C 237.558 70.996,237.890 70.508,237.960 70.417 C 238.650 69.521,240.617 65.718,241.323 63.917 C 241.539 63.367,241.808 62.692,241.921 62.417 C 242.701 60.521,243.699 56.832,244.091 54.393 C 244.235 53.501,244.381 52.725,244.415 52.669 C 244.611 52.353,245.019 44.689,244.926 43.083 C 244.597 37.419,244.038 33.460,243.162 30.583 C 240.427 21.609,235.595 14.129,229.750 9.822 C 229.200 9.417,228.713 9.045,228.667 8.996 C 227.815 8.085,223.356 5.547,219.583 3.825 C 219.217 3.658,216.517 2.659,216.250 2.592 C 216.158 2.569,215.971 2.509,215.833 2.458 C 214.828 2.085,211.613 1.265,210.417 1.077 C 210.050 1.019,209.525 0.908,209.250 0.830 C 208.975 0.753,208.300 0.643,207.750 0.588 C 207.200 0.532,206.338 0.421,205.833 0.341 C 204.651 0.153,204.988 0.168,200.750 0.106 C 198.733 0.076,197.777 0.080,198.625 0.115 M253.000 10.583 L 253.000 19.167 266.000 19.167 L 279.000 19.167 279.000 53.167 L 279.000 87.167 286.937 87.167 L 294.874 87.167 294.770 55.125 C 294.713 37.502,294.619 18.340,294.563 12.542 L 294.460 2.000 273.730 2.000 L 253.000 2.000 253.000 10.583 M198.542 72.115 C 198.702 72.157,198.965 72.157,199.125 72.115 C 199.285 72.073,199.154 72.039,198.833 72.039 C 198.512 72.039,198.381 72.073,198.542 72.115 " stroke="none" fill="#53c855" fill-rule="evenodd"></path><path id="path3" d="M194.468 0.083 C 194.440 0.109,193.854 0.172,193.167 0.222 C 185.021 0.822,174.985 4.316,169.750 8.374 C 166.906 10.578,166.419 10.990,164.760 12.588 C 163.861 13.454,161.852 15.749,161.335 16.500 C 161.114 16.821,160.892 17.121,160.841 17.167 C 160.205 17.747,157.656 22.134,156.774 24.167 C 155.963 26.036,155.887 26.221,155.422 27.463 C 152.913 34.159,151.849 47.295,153.327 53.333 C 153.405 53.654,153.518 54.292,153.578 54.750 C 153.772 56.253,154.972 60.660,155.664 62.417 C 156.821 65.352,158.149 68.009,159.617 70.321 C 167.060 82.045,181.108 89.102,197.250 89.226 L 200.417 89.250 200.417 80.640 L 200.417 72.030 199.667 72.080 C 191.732 72.616,183.086 68.898,177.585 62.583 C 167.925 51.495,170.118 31.600,181.997 22.571 C 186.588 19.081,192.418 17.167,198.454 17.167 L 200.167 17.167 200.167 8.667 L 200.167 0.167 198.625 0.136 C 197.777 0.119,196.506 0.089,195.801 0.071 C 195.096 0.052,194.496 0.058,194.468 0.083 M131.223 73.792 C 131.283 76.060,131.333 79.998,131.333 82.542 L 131.333 87.167 137.917 87.167 L 144.500 87.167 144.500 78.417 L 144.500 69.667 137.807 69.667 L 131.113 69.667 131.223 73.792 " stroke="none" fill="#75cc44" fill-rule="evenodd"></path><path id="path4" d="M-0.000 44.575 L 0.000 87.167 32.193 87.167 L 64.386 87.167 64.277 84.292 C 64.217 82.710,64.167 78.773,64.167 75.542 L 64.167 69.667 41.500 69.667 L 18.833 69.667 18.833 61.167 L 18.833 52.667 39.747 52.667 L 60.661 52.667 60.705 44.250 L 60.750 35.833 39.792 35.833 L 18.833 35.833 18.833 27.750 L 18.833 19.667 32.056 19.667 C 39.328 19.667,49.341 19.617,54.306 19.556 L 63.333 19.445 63.333 10.740 L 63.333 2.034 31.667 2.009 L -0.000 1.984 -0.000 44.575 M64.911 78.417 C 64.911 83.275,64.932 85.238,64.958 82.780 C 64.984 80.321,64.984 76.346,64.958 73.947 C 64.932 71.547,64.911 73.558,64.911 78.417 " stroke="none" fill="#b1d427" fill-rule="evenodd"></path></g></svg>