<svg fill="none" viewBox="0 0 1500 1420" xmlns="http://www.w3.org/2000/svg" xmlns:xlink="http://www.w3.org/1999/xlink"><mask id="a" height="800" maskUnits="userSpaceOnUse" width="800" x="350" y="0"><path d="m750 799.777c220.852 0 399.89-179.036 399.89-399.888 0-220.853-179.038-399.889-399.89-399.889s-399.889 179.036-399.889 399.889c0 220.852 179.037 399.888 399.889 399.888z" fill="#fff"/></mask><g mask="url(#a)"><path d="m1149.89 399.888c0-214.01-185.88-399.88824414-399.891-399.88824414-214.01.00049639-399.888 185.87924414-399.888 399.88924414 0 214.011 185.878 399.889 399.889 399.889 214.01-.001 399.89-185.879 399.89-399.89z" fill="#fff"/><path d="m750.322 166.756c-147.543 0-291.263 87.379-291.263 262.137 0 106.293 53.935 145.075 53.935 214.882 0 69.806-31.025 35.846-31.025 35.846s86.311 109.811 268.353 109.811 264.388-109.811 264.388-109.811-36.337 33.96-36.337-28.09c0-69.807 63.217-124.101 63.217-222.638 0-174.758-143.725-262.137-291.268-262.137z" fill="#272733"/><g fill="#fff"><path d="m811.228 468.613-55.605 111.21v-137.688c26.478 0 55.605 26.478 55.605 26.478z"/><path d="m697.365 468.614s31.774-26.478 58.253-26.478v137.688z"/><path d="m904.248 442.727c-44.15 24.928-124.56-33.092-124.56-33.092 22.365-22.024 135.804-132.468 159.864-90.266 24.655 43.194 8.846 98.43-35.304 123.358z"/><path d="m603.438 440.519c-43.768-25.556-58.758-81.01-33.474-123.85 24.703-41.872 136.463 70.28 158.525 92.615 0 0-81.283 56.819-125.051 31.235z"/></g><circle cx="853.54" cy="387.441" fill="#272733" r="30.0341"/><circle cx="658.195" cy="387.441" fill="#272733" r="30.0341"/><path d="m880.069 192.114c25.326-17.738 41.291-42.307 37.07-76.441-40.892-7.539-90.595 36.134-121.801 62.094-5.758-.292-15.352-.829-21.183-.854 42.332-47.113 82.354-103.4493 37.07-103.9373-34.109-.3659-61.723 45.0883-84.731 90.2993 19.909-52.018 31.102-108.4518-26.479-98.668-57.068 9.6863-27.426 73.464-10.591 122.676z" fill="#272733"/><path clip-rule="evenodd" d="m749.611 27.5057c-205.447 0-371.995 166.5483-371.995 371.9953s166.548 371.995 371.995 371.995 371.999-166.548 371.999-371.995-166.552-371.9953-371.999-371.9953zm-403.02 371.9953c0-222.582 180.438-403.02053 403.02-403.02053s403.019 180.43853 403.019 403.02053-180.437 403.02-403.019 403.02-403.02-180.438-403.02-403.02z" fill="#272733" fill-rule="evenodd"/></g><g fill="#272733"><path d="m0 1114.98h124.174v-34.96h-81.1306v-36.61h74.7826v-35.04h-74.7826v-36.524h81.1306v-34.956h-124.174z"/><path d="m185.412 936.89v178.09h41.913v-110h1.478l42.783 108.87h26.782l42.783-108.26h1.478v109.39h41.913v-178.09h-53.304l-45.217 110.26h-2.087l-45.218-110.26z"/><path d="m488.715 936.89h-43.043v178.09h43.043z"/><path d="m646.279 990.281h41.218c-.348-33.304-26.87-55.826-68.261-55.826-40.696 0-70 22.174-69.739 55.304-.087 27.041 18.869 42.261 49.652 49.301l18.609 4.35c19.565 4.52 28.347 9.83 28.521 19.83-.174 10.87-10.348 18.43-27.652 18.43-19.043 0-31.565-8.87-32.522-26h-41.217c.522 41.65 29.478 61.57 74.261 61.57 44.348 0 70.608-20.09 70.782-53.92-.174-28.43-19.391-45.82-54.521-53.56l-15.305-3.48c-16.174-3.48-26.434-8.868-26.087-19.477.087-9.739 8.435-16.783 25.131-16.783 16.782 0 26 7.565 27.13 20.261z"/><path d="m842.213 990.281h41.217c-.348-33.304-26.869-55.826-68.261-55.826-40.695 0-69.999 22.174-69.739 55.304-.087 27.041 18.87 42.261 49.653 49.301l18.608 4.35c19.565 4.52 28.348 9.83 28.522 19.83-.174 10.87-10.348 18.43-27.652 18.43-19.044 0-31.565-8.87-32.522-26h-41.217c.522 41.65 29.478 61.57 74.261 61.57 44.347 0 70.608-20.09 70.782-53.92-.174-28.43-19.391-45.82-54.522-53.56l-15.304-3.48c-16.174-3.48-26.435-8.868-26.087-19.477.087-9.739 8.435-16.783 25.131-16.783 16.782 0 25.999 7.565 27.13 20.261z"/><path d="m974.908 1114.98 11.739-37.39h61.473l11.74 37.39h46.26l-60.08-178.09h-57.306l-60.087 178.09zm22-70.09 19.742-63.131h1.39l19.82 63.131z"/><path d="m1159.58 1114.98h43.04v-60.96h22.09l32.52 60.96h46.96l-36.96-67.83c19.57-8.87 30.87-26.35 30.87-50.956 0-36.609-24.95-59.304-64.95-59.304h-73.57zm43.04-94.87v-48.525h21.22c19.31 0 29.65 8.087 29.65 24.609 0 16.526-10.34 23.916-29.65 23.916z"/><path d="m1326.96 936.89 65.13 118.61v59.48h42.78v-59.48l65.13-118.61h-48.09l-37.65 74.52h-1.56l-37.66-74.52z"/><path d="m39.1086 1157.04h-38.96085v258.23h38.96085z"/><path d="m304.269 1157.04h-38.582v189.64h-2.396l-131.383-189.64h-36.0604v258.23h38.9604v-189.38h2.396l131.256 189.38h35.809z"/><path d="m535.859 1238.62h39.97c-8.7-50.31-51.696-85.11-107.426-85.11-66.826 0-115.622 50.31-115.622 132.77 0 81.71 47.409 132.52 117.387 132.52 62.665 0 107.426-41.11 107.426-106.29v-29.38h-101.5v32.15h63.8c-.883 41.61-28.37 67.96-69.726 67.96-45.517 0-78.678-34.42-78.678-97.21 0-62.54 33.413-96.96 77.165-96.96 34.295 0 57.495 18.91 67.204 49.55z"/><path d="m627.051 1415.27h38.961v-97.72h52.957 2.521l52.453 97.72h44.382l-57.243-104.53c31.648-11.72 47.408-38.08 47.408-72.75 0-47.54-29.504-80.95-89.395-80.95h-92.044zm38.961-131.26v-93.56h48.922c38.456 0 54.343 18.29 54.343 47.54 0 29.13-15.887 46.02-53.839 46.02z"/><path d="m855.899 1415.27h163.411v-33.54h-124.45v-79.06h114.49v-33.41h-114.49v-78.68h122.93v-33.54h-161.891z"/><path d="m1210.68 1224.88h37.57c-1.14-41.36-37.7-71.37-90.15-71.37-51.82 0-91.54 29.63-91.54 74.14 0 35.94 25.72 56.99 67.2 68.21l30.52 8.33c27.61 7.31 48.92 16.39 48.92 39.33 0 25.22-24.09 41.87-57.25 41.87-30 0-54.97-13.37-57.24-41.49h-39.09c2.53 46.78 38.71 75.65 96.59 75.65 60.64 0 95.57-31.9 95.57-75.65 0-46.52-41.48-64.55-74.27-72.62l-25.21-6.56c-20.18-5.17-47.03-14.63-46.91-39.34 0-21.94 20.05-38.2 51.82-38.2 29.64 0 50.69 13.87 53.47 37.7z"/><path d="m1439.18 1224.88h37.57c-1.13-41.36-37.7-71.37-90.15-71.37-51.82 0-91.54 29.63-91.54 74.14 0 35.94 25.72 56.99 67.2 68.21l30.52 8.33c27.61 7.31 48.92 16.39 48.92 39.33 0 25.22-24.08 41.87-57.25 41.87-30 0-54.97-13.37-57.24-41.49h-39.09c2.53 46.78 38.71 75.65 96.59 75.65 60.64 0 95.57-31.9 95.57-75.65 0-46.52-41.48-64.55-74.26-72.62l-25.22-6.56c-20.18-5.17-47.03-14.63-46.91-39.34 0-21.94 20.05-38.2 51.83-38.2 29.63 0 50.68 13.87 53.46 37.7z"/></g></svg>