<?xml version="1.0" encoding="UTF-8" standalone="no"?>
<!DOCTYPE svg PUBLIC "-//W3C//DTD SVG 1.1//EN" "http://www.w3.org/Graphics/SVG/1.1/DTD/svg11.dtd">
<svg width="100%" height="100%" viewBox="0 0 909 442" version="1.1" xmlns="http://www.w3.org/2000/svg" xmlns:xlink="http://www.w3.org/1999/xlink" xml:space="preserve" xmlns:serif="http://www.serif.com/" style="fill-rule:evenodd;clip-rule:evenodd;stroke-miterlimit:2;">
    <g transform="matrix(4.16667,0,0,4.16667,0,0)">
        <path d="M0,82.133L12,82.133L12,84.819L3.125,84.819L3.125,91.959L10.3,91.959L10.3,94.645L3.125,94.645L3.125,102.838L12.441,102.838L12.441,105.559L0,105.559L0,82.133Z" style="fill:rgb(35,31,32);fill-rule:nonzero;"/>
        <path d="M16.273,88.526L18.55,88.526L18.992,90.633C20.488,89.137 22.187,88.082 24.195,88.082C26.644,88.082 28.308,89.34 28.308,92.231L28.308,105.559L25.382,105.559L25.382,93.149C25.382,91.211 24.839,90.666 23.312,90.666C21.949,90.666 20.421,91.62 19.195,92.707L19.195,105.559L16.273,105.559L16.273,88.526Z" style="fill:rgb(35,31,32);fill-rule:nonzero;"/>
        <path d="M42.652,101.648L42.652,92.434C41.664,91.483 40.304,90.598 38.875,90.598C36.46,90.598 35.41,91.483 35.41,96.957C35.41,102.43 36.293,103.484 38.605,103.484C40.269,103.484 41.425,102.805 42.652,101.648ZM32.281,97.161C32.281,90.77 34.152,88.082 38.128,88.082C40,88.082 41.562,89.104 42.652,90.157L42.652,80.944L45.574,80.944L45.574,105.559L43.296,105.559L42.82,103.791C41.527,105.219 39.898,106 38.093,106C34.832,106 32.281,104.164 32.281,97.161Z" style="fill:rgb(35,31,32);fill-rule:nonzero;"/>
        <path d="M50.46,88.526L52.738,88.526L53.214,90.94C54.472,89.375 56.035,88.219 58.007,88.219C58.21,88.219 58.484,88.252 58.617,88.321L58.277,91.45C57.972,91.346 57.597,91.313 57.257,91.313C55.695,91.313 54.64,91.891 53.382,93.047L53.382,105.559L50.46,105.559L50.46,88.526Z" style="fill:rgb(35,31,32);fill-rule:nonzero;"/>
        <path d="M63.503,95.495L70.269,95.495C70.269,91.584 69.386,90.395 66.937,90.395C64.964,90.395 63.742,91.415 63.503,95.495ZM60.339,97.026C60.339,90.565 62.992,88.082 67.003,88.082C71.05,88.082 73.363,90.395 73.363,96.549L73.363,97.706L63.468,97.706C63.539,102.363 64.558,103.518 67.378,103.518C69.214,103.518 70.269,102.805 71.39,101.92L72.988,104.029C71.324,105.389 69.793,106 67.312,106C62.859,106 60.339,103.416 60.339,97.026Z" style="fill:rgb(35,31,32);fill-rule:nonzero;"/>
        <path d="M75.64,104.164L76.863,101.988C78.293,102.975 79.753,103.553 81.421,103.553C83.734,103.553 84.445,102.635 84.445,101.037C84.445,99.133 83.562,98.758 80.843,98.01C78.464,97.366 76.492,96.108 76.492,92.741C76.492,90.258 78.089,88.082 81.828,88.082C83.867,88.082 85.296,88.491 86.554,89.206L85.535,91.516C84.105,90.803 83.222,90.565 81.929,90.565C80.093,90.565 79.246,91.211 79.246,92.672C79.246,94.272 79.96,94.678 82.304,95.325C84.921,96.04 87.304,97.059 87.304,100.901C87.304,104.436 85.296,106 81.285,106C79.007,106 76.832,105.117 75.64,104.164Z" style="fill:rgb(35,31,32);fill-rule:nonzero;"/>
        <path d="M89.546,104.164L90.769,101.988C92.199,102.975 93.66,103.553 95.328,103.553C97.64,103.553 98.351,102.635 98.351,101.037C98.351,99.133 97.468,98.758 94.75,98.01C92.367,97.366 90.398,96.108 90.398,92.741C90.398,90.258 91.996,88.082 95.734,88.082C97.773,88.082 99.203,88.491 100.461,89.206L99.441,91.516C98.011,90.803 97.128,90.565 95.835,90.565C94,90.565 93.152,91.211 93.152,92.672C93.152,94.272 93.863,94.678 96.21,95.325C98.828,96.04 101.207,97.059 101.207,100.901C101.207,104.436 99.203,106 95.191,106C92.914,106 90.738,105.117 89.546,104.164Z" style="fill:rgb(35,31,32);fill-rule:nonzero;"/>
        <path d="M111.852,96.889L106.375,96.889L106.375,94.338L111.852,94.338L111.852,88.321L114.605,88.321L114.605,94.338L120.043,94.338L120.043,96.889L114.605,96.889L114.605,102.906L111.852,102.906L111.852,96.889Z" style="fill:rgb(35,31,32);fill-rule:nonzero;"/>
        <path d="M126.742,82.133L129.871,82.133L129.871,91.721L138.301,91.721L138.301,82.133L141.43,82.133L141.43,105.559L138.301,105.559L138.301,94.475L129.871,94.475L129.871,105.559L126.742,105.559L126.742,82.133Z" style="fill:rgb(35,31,32);fill-rule:nonzero;"/>
        <path d="M154.68,101.648L154.68,97.127L153.66,97.127C149.375,97.127 148.559,98.215 148.559,100.698C148.559,102.939 149.273,103.688 150.938,103.688C152.605,103.688 153.863,102.566 154.68,101.648ZM145.43,100.698C145.43,96.821 147.707,95.018 153.285,95.018L154.68,95.018L154.68,93.694C154.68,91.79 154.441,90.633 152.23,90.633C150.461,90.633 148.762,91.381 147.266,92.198L146.145,89.954C147.879,88.932 149.816,88.082 152.535,88.082C155.867,88.082 157.602,89.579 157.602,93.217L157.602,105.559L155.324,105.559L154.848,103.857C153.863,104.947 152.434,106 150.566,106C147.301,106 145.43,104.199 145.43,100.698Z" style="fill:rgb(35,31,32);fill-rule:nonzero;"/>
        <path d="M162.074,101.648L162.074,88.526L164.996,88.526L164.996,100.731C164.996,102.736 165.676,103.416 167.207,103.416C168.566,103.416 170.031,102.498 171.289,101.377L171.289,88.526L174.211,88.526L174.211,105.559L171.934,105.559L171.492,103.451C170.063,104.912 168.43,106 166.426,106C163.977,106 162.074,104.605 162.074,101.648Z" style="fill:rgb(35,31,32);fill-rule:nonzero;"/>
        <path d="M177.645,104.164L178.871,101.988C180.297,102.975 181.758,103.553 183.426,103.553C185.738,103.553 186.453,102.635 186.453,101.037C186.453,99.133 185.566,98.758 182.848,98.01C180.469,97.366 178.496,96.108 178.496,92.741C178.496,90.258 180.094,88.082 183.832,88.082C185.875,88.082 187.301,88.491 188.559,89.206L187.539,91.516C186.113,90.803 185.227,90.565 183.934,90.565C182.098,90.565 181.25,91.211 181.25,92.672C181.25,94.272 181.965,94.678 184.309,95.325C186.926,96.04 189.309,97.059 189.309,100.901C189.309,104.436 187.301,106 183.289,106C181.012,106 178.836,105.117 177.645,104.164Z" style="fill:rgb(35,31,32);fill-rule:nonzero;"/>
        <path d="M195.293,95.495L202.059,95.495C202.059,91.584 201.172,90.395 198.727,90.395C196.754,90.395 195.527,91.415 195.293,95.495ZM192.129,97.026C192.129,90.565 194.781,88.082 198.793,88.082C202.84,88.082 205.152,90.395 205.152,96.549L205.152,97.706L195.258,97.706C195.324,102.363 196.344,103.518 199.168,103.518C201.004,103.518 202.059,102.805 203.18,101.92L204.777,104.029C203.109,105.389 201.582,106 199.098,106C194.645,106 192.129,103.416 192.129,97.026Z" style="fill:rgb(35,31,32);fill-rule:nonzero;"/>
        <path d="M208.879,88.526L211.156,88.526L211.633,90.94C212.891,89.375 214.457,88.219 216.426,88.219C216.633,88.219 216.902,88.252 217.039,88.321L216.699,91.45C216.395,91.346 216.02,91.313 215.68,91.313C214.117,91.313 213.063,91.891 211.805,93.047L211.805,105.559L208.879,105.559L208.879,88.526Z" style="fill:rgb(35,31,32);fill-rule:nonzero;"/>
        <path d="M106.375,35.907L106.375,34.84L106.375,35.907Z" style="fill:white;fill-rule:nonzero;"/>
        <path d="M106.375,35.907L106.375,34.84L106.375,35.907Z" style="fill:none;stroke:rgb(35,31,32);stroke-width:1px;"/>
        <path d="M166.945,10.342C168.008,6.366 165.648,2.278 161.676,1.213C161.047,1.043 160.395,0.959 159.742,0.959L70.011,0.959C66.636,0.959 63.683,3.225 62.808,6.483L50.093,53.938C49.027,57.913 51.39,62 55.363,63.067C55.992,63.235 56.64,63.321 57.293,63.321L147.031,63.321C150.402,63.321 153.355,61.053 154.227,57.795L166.945,10.342Z" style="fill:rgb(0,174,239);"/>
        <path d="M148.52,55.866L148.52,8.413C148.52,7.588 147.852,6.922 147.031,6.922L132.371,6.922L132.371,25.307L127.402,25.307L127.402,6.922L111.254,6.922L111.254,25.307L101.355,25.307L97.695,38.971L111.254,38.971L111.254,57.356L127.402,57.356L127.402,38.971L132.371,38.971L132.371,57.356L147.031,57.356C147.852,57.356 148.52,56.69 148.52,55.866Z" style="fill:white;"/>
        <path d="M70.011,57.356L106.281,57.356L106.281,43.692L84.668,43.692L84.668,38.971L93.324,38.971L96.984,25.307L84.668,25.307L84.668,20.586L102.621,20.586L106.281,6.922L70.011,6.922C69.187,6.922 68.519,7.588 68.519,8.413L68.519,55.866C68.519,56.69 69.187,57.356 70.011,57.356Z" style="fill:white;"/>
    </g>
</svg>
