<svg xmlns="http://www.w3.org/2000/svg" viewBox="0 0 128 30" fill="none"><g clip-path="url(#clip0)"><path d="M76.2514 0H75.9493V29.52H76.2514V0Z" fill="#707073"/><path d="M0 23.1602V29.5202H5.67958V28.6802H0.906316V26.6402H3.98779V25.8002H0.906316V24.0002H5.49832V23.1602H0Z" fill="black"/><path d="M25.256 27.0002C25.256 28.1402 24.531 28.8602 23.383 28.8602C22.2954 28.8602 21.6307 28.0802 21.6307 27.0002V23.2202H20.7244V27.0002C20.7244 28.7402 21.9933 29.6402 23.383 29.6402C25.4977 29.6402 26.1623 28.2002 26.1623 27.0002V23.1602H25.256V27.0002Z" fill="black"/><path d="M32.2044 23.1602H31.2981V29.4602H32.2044V23.1602Z" fill="black"/><path d="M43.1407 23.1602V28.1402L38.6091 23.1602H37.7028V29.5202H38.6091V24.4802L43.1407 29.5202H44.047V23.1602H43.1407Z" fill="black"/><path d="M50.4516 23.1602H49.5453V29.4602H50.4516V23.1602Z" fill="black"/><path d="M60.9045 23.1602L58.7897 25.4402L56.7354 23.1602H55.527L58.1251 26.1002L54.9228 29.5202H56.0708L58.7293 26.7002L61.2066 29.5202H62.4754L59.394 26.1002L62.0525 23.1602H60.9045Z" fill="black"/><path d="M12.628 22.9199C10.755 22.9199 9.24445 24.3599 9.24445 26.3399C9.24445 28.3199 10.755 29.6999 12.628 29.6999C13.1114 29.6999 13.6552 29.5799 14.1386 29.3399L14.6823 29.9399H15.7699L14.8636 28.9199C15.5887 28.3799 16.072 27.4199 16.072 26.2799C16.0116 24.2999 14.5011 22.9199 12.628 22.9199ZM15.1053 26.3399C15.1053 27.2399 14.8032 27.8399 14.2594 28.3199L13.776 27.7799H12.6884L13.5343 28.7999C13.2927 28.9199 12.9301 28.9799 12.628 28.9799C11.2383 28.9799 10.1508 27.8999 10.1508 26.3999C10.1508 24.8999 11.1779 23.8199 12.5676 23.8199C14.0177 23.6999 15.1053 24.7799 15.1053 26.3399Z" fill="black"/><path d="M31.7211 0L29.123 0.9V14.4L27.4312 13.8V1.5L22.235 3.3V12L20.4827 11.4V3.9L18.7305 4.5V12.66L23.9267 14.46V4.5L25.679 3.9V15.06L30.8752 16.86V2.1L31.7211 1.8L32.6274 2.1V16.86L37.7632 15.06V3.9L39.5154 4.5V14.46L44.7116 12.66V4.5L42.9594 3.9V11.4L41.2676 12V3.3L36.0714 1.5V13.8L34.3192 14.4V0.9L31.7211 0Z" fill="#ED1C24"/><path d="M48.0348 12.0599C48.8806 12.0599 49.6057 11.3399 49.6057 10.4999C49.6057 9.65994 48.9411 8.93994 48.0348 8.93994C47.1889 8.93994 46.4638 9.65994 46.4638 10.4999C46.4638 11.3999 47.1284 12.0599 48.0348 12.0599ZM48.0348 11.8799C47.2493 11.8799 46.6451 11.2799 46.6451 10.4999C46.6451 9.71994 47.2493 9.11994 48.0348 9.11994C48.8202 9.11994 49.4244 9.71994 49.4244 10.4999C49.4244 11.2799 48.8202 11.8799 48.0348 11.8799ZM47.3701 11.2799H47.7931V10.7999H48.0348L48.3973 11.2799H48.8807L48.4577 10.6799C48.6994 10.6199 48.8202 10.4399 48.8202 10.1999C48.8202 9.83994 48.5181 9.65994 48.1556 9.65994H47.3701V11.2799ZM47.7931 10.4399V10.0199H48.1556C48.3369 10.0199 48.4577 10.0799 48.4577 10.2599C48.4577 10.3799 48.3369 10.4999 48.1556 10.4999H47.7931V10.4399Z" fill="#ED1C24"/><path d="M88.5169 11.5801H89.8462L92.0818 14.8201L94.2569 11.5801H95.5862V18.4201H94.3173V13.5601L92.0213 16.8001H91.9609L89.7253 13.6201V18.4801H88.4565V11.5801H88.5169Z" fill="#707073"/><path d="M98.1239 11.5801H103.501V12.6601H99.4532V14.4601H103.078V15.5401H99.4532V17.3401H103.562V18.4201H98.1843L98.1239 11.5801Z" fill="#707073"/><path d="M107.791 12.66H105.495V11.52H111.356V12.66H109.06V18.36H107.791V12.66V12.66Z" fill="#707073"/><path d="M115.042 11.52H116.25L119.392 18.36H118.063L117.338 16.74H113.954L113.229 18.36H111.96L115.042 11.52ZM116.854 15.66L115.586 12.96L114.377 15.66H116.854Z" fill="#707073"/><path d="M121.507 11.5801H122.776V17.2801H126.582V18.3601H121.507V11.5801Z" fill="#707073"/></g><defs><clipPath id="clip0"><rect width="126.522" height="30" fill="white"/></clipPath></defs></svg>