<svg xmlns="http://www.w3.org/2000/svg" role="img" viewBox="-39.16 -38.16 1984.32 421.32"><g fill="#252d68" fill-opacity="1" fill-rule="nonzero" stroke="none" transform="matrix(1.33333 0 0 -1.33333 0 345.173) scale(.1)"><path d="M7496.05 296.512c-5.64 13.058-19.53 24.047-32.86 21.16 0 0-251.55-3.711-285.37-3.711-109.42 0-174.85 107.359-174.85 287.289v1384.52c0 19.38-15.81 35.19-35.19 35.19h-255.26c-19.38 0-35.2-15.81-35.2-35.19V545.031C6677.32 150.801 6930.81 11 7147.86 11c48.8 0 417.74 3.8516 417.74 3.8516 11.82.1289 22.68 6.1797 29.14 16.0781 6.46 9.8906 7.42 22.4023 2.75 33.1289L7496.05 296.512"/><path d="M351.211 1285.27c65.57 314.23 294.996 507.5 607.031 507.5 225.158 0 470.398-134.16 499.118-507.5zm614.453 791.77C397.125 2077.04 0 1655.17 0 1051.17 0 458.98 429.703 29.2813 1021.89 29.2813c298.7 0 525.92 127.2887 634.8 203.1677 63.64 44.539 82.47 131.281 42.88 197.531-21.03 35.192-55.8 60.352-95.53 69.149-40.14 8.793-80.14.953-113.68-22-98.84-67.77-259.12-148.457-460.91-148.457-330.044 0-667.927 209.348-695.005 676.028H1746.17c18.28 0 33.54 14.03 35.06 32.17 0 0 7.55 88.25 7.55 134.44 0 450.87-254.58 905.73-823.116 905.73"/><path d="M5854.2 1062.57c0-411.55-307.5-733.898-700.08-733.898-392.6 0-700.23 322.348-700.23 733.898 0 398.92 307.63 711.37 700.23 711.37 392.58 0 700.08-312.45 700.08-711.37zm-700.08 1014.47c-579.4 0-1033.3-445.65-1033.3-1014.47 0-579.39 453.9-1033.2887 1033.3-1033.2887S6187.28 483.18 6187.28 1062.57c0 568.82-453.76 1014.47-1033.16 1014.47"/><path d="M11598.6 2031.95h-255.1c-19.4 0-35.2-15.8-35.2-35.19V192.039c0-89.769 73-162.7577 162.7-162.7577 89.8 0 162.8 72.9887 162.8 162.7577V1996.76c0 19.39-15.8 35.19-35.2 35.19"/><path d="M13921.1 1062.57c0-411.55-307.5-733.898-700.1-733.898s-700.2 322.348-700.2 733.898c0 398.92 307.6 711.37 700.2 711.37s700.1-312.45 700.1-711.37zM13221 2077.04c-579.4 0-1033.3-445.65-1033.3-1014.47 0-579.39 453.9-1033.2887 1033.3-1033.2887S14254.2 483.18 14254.2 1062.57c0 568.82-453.8 1014.47-1033.2 1014.47"/><path d="M275.195 2285.84H1528.43c11.96 0 23.1 6.05 29.56 16.09 6.46 10.03 7.42 22.82 2.47 33.68l-105.57 232.58c-5.64 12.51-18.28 20.62-32.03 20.62H275.195c-19.379 0-35.191-15.81-35.191-35.19v-232.58c0-19.38 15.812-35.2 35.191-35.2"/><path d="M9579.41 1996.9c0 19.39-15.81 35.05-35.19 35.05H9262.7c-9.35 0-18.28-3.71-24.88-10.31-6.6-6.59-10.31-15.66-10.31-25.01l3.3-1236.88c.14-1.512 5.5-161.801-102.68-276.43-82.21-87.148-215.4-131.422-395.62-131.422-179.8 0-313.96 43.993-398.64 130.872-112.99 115.878-110.79 279.449-110.65 287.152V1996.76c0 19.39-15.81 35.19-35.19 35.19H7906.5c-9.34 0-18.28-3.71-24.87-10.31-6.6-6.59-10.32-15.53-10.32-24.88l.14-1219.549c-.55-12.512-11.54-309.012 206.74-536.379C8231.88 80.9609 8451.95 0 8732.51 0c281.11 0 500.36 81.3789 651.7 241.789 216.09 229.43 198.36 528.27 198.23 528.27l-3.03 1226.841"/><path d="M11032.7 2588.81H3788.71c-14.57 0-27.63-9.08-32.85-22.68L3016.18 623.379c-8.94-26.66-35.74-30.918-33.54-31.059-.28 0-28.6 1.239-38.9 32.301L2210.79 2565.99c-5.09 13.74-18.14 22.82-32.85 22.82h-270.25c-11.55 0-22.41-5.64-28.87-15.12-6.6-9.49-8.11-21.58-4.12-32.44l882.5-2359.531c34.78-91.1292 123.72-152.4377 221.32-152.4377 97.45 0 186.26 61.039 221.17 152.1677l792.05 2104.391H10253V193.961c0-90.859 73.8-164.6797 164.5-164.6797 90.9 0 164.7 73.8207 164.7 164.6797V2285.84h344.9c13.7 0 26.4 8.12 32 20.62l105.6 232.59c4.9 10.86 4 23.64-2.5 33.68-6.5 10.03-17.6 16.08-29.5 16.08"/><path d="M14272.1 2588.81h-2147.5c-13.7 0-26.3-8.11-32-20.62l-105.6-232.58c-4.9-10.86-3.9-23.65 2.5-33.68 6.5-10.04 17.6-16.09 29.6-16.09h2253c19.3 0 35.2 15.82 35.2 35.2v232.58c0 19.38-15.9 35.19-35.2 35.19"/><path d="M11757.9 2588.81h-354c-13.7 0-26.4-8.11-32-20.62l-105.6-232.58c-4.9-10.86-4-23.65 2.5-33.68 6.5-10.04 17.6-16.09 29.6-16.09h353c13.7 0 26.2 7.98 32 20.49l106.5 232.58c5 11 4.2 23.64-2.4 33.68-6.5 10.17-17.6 16.22-29.6 16.22"/></g></svg>