<?xml version="1.0" encoding="utf-8"?>
<!-- Generator: Adobe Illustrator 24.0.1, SVG Export Plug-In . SVG Version: 6.00 Build 0)  -->
<svg version="1.1" id="图层_1" xmlns="http://www.w3.org/2000/svg" xmlns:xlink="http://www.w3.org/1999/xlink" x="0px" y="0px"
	 viewBox="0 0 2674.33 2296.66" style="enable-background:new 0 0 2674.33 2296.66;" xml:space="preserve">
<style type="text/css">
	.st0{fill:url(#SVGID_1_);}
	.st1{fill:#FFFFFF;}
	.st2{fill:url(#SVGID_2_);}
	.st3{fill:url(#SVGID_3_);}
	.st4{fill:url(#SVGID_4_);}
	.st5{fill:url(#SVGID_5_);}
	.st6{fill:url(#SVGID_6_);}
	.st7{fill:url(#SVGID_7_);}
	.st8{fill:url(#SVGID_8_);}
	.st9{fill:url(#SVGID_9_);}
	.st10{fill:url(#SVGID_10_);}
	.st11{fill:url(#SVGID_11_);}
	.st12{fill:url(#SVGID_12_);}
	.st13{fill:url(#SVGID_13_);}
	.st14{fill:url(#SVGID_14_);}
	.st15{fill:url(#SVGID_15_);}
	.st16{fill:url(#SVGID_16_);}
	.st17{fill:url(#SVGID_17_);}
	.st18{fill:url(#SVGID_18_);}
	.st19{fill:url(#SVGID_19_);}
	.st20{fill:url(#SVGID_20_);}
	.st21{fill:url(#SVGID_21_);}
	.st22{fill:url(#SVGID_22_);}
	.st23{fill:url(#SVGID_23_);}
	.st24{fill:url(#SVGID_24_);}
	.st25{fill:url(#SVGID_25_);}
	.st26{fill:url(#SVGID_26_);}
	.st27{fill:url(#SVGID_27_);}
	.st28{fill:url(#SVGID_28_);}
	.st29{fill:url(#SVGID_29_);}
	.st30{fill:url(#SVGID_30_);}
	.st31{fill:url(#SVGID_31_);}
	.st32{fill:url(#SVGID_32_);}
	.st33{fill:url(#SVGID_33_);}
	.st34{fill:url(#SVGID_34_);}
	.st35{fill:url(#SVGID_35_);}
	.st36{fill:url(#SVGID_36_);}
	.st37{fill:url(#SVGID_37_);}
	.st38{fill:url(#SVGID_38_);}
	.st39{fill:url(#SVGID_39_);}
	.st40{fill:url(#SVGID_40_);}
	.st41{fill:url(#SVGID_41_);}
	.st42{fill:url(#SVGID_42_);}
	.st43{fill:url(#SVGID_43_);}
	.st44{fill:url(#SVGID_44_);}
	.st45{fill:url(#SVGID_45_);}
	.st46{fill:url(#SVGID_46_);}
	.st47{fill:url(#SVGID_47_);}
	.st48{fill:url(#SVGID_48_);}
	.st49{fill:url(#SVGID_49_);}
	.st50{fill:url(#SVGID_50_);}
	.st51{fill:url(#SVGID_51_);}
	.st52{fill:url(#SVGID_52_);}
	.st53{fill:url(#SVGID_53_);}
	.st54{fill:url(#SVGID_54_);}
	.st55{fill:url(#SVGID_55_);}
	.st56{fill:url(#SVGID_56_);}
	.st57{fill:url(#SVGID_57_);}
	.st58{fill:url(#SVGID_58_);}
	.st59{fill:url(#SVGID_59_);}
	.st60{fill:url(#SVGID_60_);}
	.st61{fill:url(#SVGID_61_);}
	.st62{fill:url(#SVGID_62_);}
	.st63{fill:url(#SVGID_63_);}
	.st64{fill:url(#SVGID_64_);}
	.st65{fill:url(#SVGID_65_);}
	.st66{fill:url(#SVGID_66_);}
	.st67{fill:url(#SVGID_67_);}
	.st68{fill:url(#SVGID_68_);}
	.st69{fill:url(#SVGID_69_);}
	.st70{fill:url(#SVGID_70_);}
	.st71{fill:url(#SVGID_71_);}
	.st72{fill:url(#SVGID_72_);}
	.st73{fill:url(#SVGID_73_);}
	.st74{fill:url(#SVGID_74_);}
	.st75{fill:url(#SVGID_75_);}
	.st76{fill:#0054D4;}
	.st77{fill:url(#SVGID_76_);}
	.st78{fill:url(#SVGID_77_);}
	.st79{fill:url(#SVGID_78_);}
</style>
<g>
	<linearGradient id="SVGID_1_" gradientUnits="userSpaceOnUse" x1="787.3655" y1="931.2194" x2="1868.6346" y2="931.2194">
		<stop  offset="3.196674e-07" style="stop-color:#48ABF9"/>
		<stop  offset="1" style="stop-color:#0084FE"/>
	</linearGradient>
	<path class="st0" d="M1715.58,809.52h-0.02c-15.53,0-28.17,12.59-28.17,28.13c-0.02,15.57,12.59,28.18,28.13,28.2
		c53.39,0.04,96.79,43.51,96.79,96.89c0,53.43-43.46,96.86-96.89,96.86h-741.7c-71.72,0-130.05-58.31-130.05-130.05
		c0-61.38,43.49-114.93,103.47-127.33c15.21-3.14,25.03-18.05,21.88-33.28c-3.15-15.21-18.03-24.97-33.3-21.87
		c-85.98,17.8-148.36,94.52-148.36,182.48c0,102.77,83.6,186.39,186.35,186.39h741.7c84.49,0,153.21-68.75,153.21-153.21
		C1868.63,878.34,1799.97,809.62,1715.58,809.52L1715.58,809.52z"/>
	<linearGradient id="SVGID_2_" gradientUnits="userSpaceOnUse" x1="1333.2896" y1="598.653" x2="1697.1542" y2="598.653">
		<stop  offset="3.196674e-07" style="stop-color:#48ABF9"/>
		<stop  offset="1" style="stop-color:#0084FE"/>
	</linearGradient>
	<path class="st2" d="M1352.25,612.72c14.66,5.04,30.71-2.68,35.8-17.4c18.11-52.42,67.44-87.58,122.73-87.58
		c71.72,0,130.04,58.35,130.04,130.05c0,22.89-6.23,45.6-18.04,65.65c-7.89,13.44-3.42,30.69,9.98,38.55
		c4.51,2.66,9.42,3.93,14.25,3.93c9.66,0,19.06-4.95,24.31-13.87c16.9-28.71,25.82-61.32,25.82-94.24
		c0-102.75-83.57-186.37-186.37-186.37c-79.28,0-150,50.46-175.95,125.48C1329.77,591.62,1337.56,607.64,1352.25,612.72
		L1352.25,612.72z"/>
	<linearGradient id="SVGID_3_" gradientUnits="userSpaceOnUse" x1="976.4893" y1="628.4014" x2="1253.5134" y2="628.4014">
		<stop  offset="3.196674e-07" style="stop-color:#48ABF9"/>
		<stop  offset="1" style="stop-color:#0084FE"/>
	</linearGradient>
	<path class="st3" d="M1004.26,718.23h0.4c15.38,0,27.93-12.35,28.14-27.79c0.72-52.66,44.19-95.54,96.9-95.54
		c28.59,0,55.59,12.6,74.14,34.62c10.01,11.89,27.75,13.4,39.66,3.41c11.87-10,13.42-27.78,3.41-39.69
		c-29.25-34.71-71.96-54.66-117.21-54.66c-83.35,0-152.08,67.8-153.21,151.13C976.29,705.24,988.7,718.02,1004.26,718.23
		L1004.26,718.23z"/>
	<path d="M800.13,658.19c2.04-1.31,4.11-2.6,6.18-3.87C804.14,655.44,802.07,656.73,800.13,658.19z"/>
	<linearGradient id="SVGID_4_" gradientUnits="userSpaceOnUse" x1="651.45" y1="950.7375" x2="1272.5763" y2="950.7375">
		<stop  offset="4.262232e-07" style="stop-color:#0054D4"/>
		<stop  offset="1" style="stop-color:#0069E7"/>
	</linearGradient>
	<path class="st4" d="M973.72,1167.35c-131.35,0-237.82-106.49-237.82-237.81c0-84.42,44.01-158.51,110.32-200.68
		c1.17-0.66,2.31-1.36,3.41-2.13c11.02-7.63,18.24-20.36,18.24-34.78c0-2.89-0.29-5.72-0.85-8.45c-0.99-4.88-2.82-9.45-5.33-13.57
		c-7.43-12.16-20.82-20.27-36.11-20.27c-5.24,0-10.26,0.96-14.89,2.71c-2.32,0.87-4.52,2.02-6.63,3.33
		c-1.32,0.82-2.63,1.64-3.93,2.48c-90.19,58.03-148.68,159.46-148.68,271.36c0,177.67,144.56,322.25,322.27,322.25h256.63
		c23.32,0,42.22-18.9,42.22-42.22v0c0-23.32-18.9-42.22-42.22-42.22H973.72z"/>
	<path d="M1271.27,462.76l-2.78-7.06C1269.21,458.15,1270.15,460.51,1271.27,462.76z"/>
	<path d="M1340.82,471.75c-0.79,0.82-1.58,1.64-2.36,2.47C1339.27,473.43,1340.06,472.61,1340.82,471.75z"/>
	<linearGradient id="SVGID_5_" gradientUnits="userSpaceOnUse" x1="1266.7961" y1="780.4006" x2="2004.5168" y2="780.4006">
		<stop  offset="4.262232e-07" style="stop-color:#0054D4"/>
		<stop  offset="1" style="stop-color:#0069E7"/>
	</linearGradient>
	<path class="st5" d="M1827.64,696.31c3.59-19.3,5.4-38.89,5.4-58.53c0-177.71-144.56-322.27-322.25-322.27
		c-89.48,0-172.64,37.12-232.12,98.95c-0.22,0.23-0.43,0.46-0.65,0.69c-6.96,7.54-11.22,17.6-11.22,28.67c0,4.12,0.6,8.1,1.7,11.87
		l2.78,7.06c6.95,13.85,21.26,23.35,37.81,23.35c7.5,0,14.53-1.96,20.64-5.38c1.13-0.72,2.26-1.43,3.41-2.13
		c1.9-1.31,3.67-2.79,5.33-4.39c0.78-0.83,1.57-1.65,2.36-2.47c42.57-43.71,101.78-71.07,167.46-71.75
		c131.39-1.36,239.63,105.17,240.29,236.56c0.23,44.43-11.96,85.88-32.91,121.52c112.9,0.11,204.39,91.67,204.39,204.64
		c0,96.93-67.45,178.15-157.97,199.26c-19.07,4.45-32.52,21.5-32.52,41.08v0c0,27.31,25.51,47.31,52.09,41.06
		c127.59-30.02,222.86-144.79,222.86-281.4C2004.52,843.14,1931.47,740.19,1827.64,696.31z"/>
	<g>
		<linearGradient id="SVGID_6_" gradientUnits="userSpaceOnUse" x1="1351.228" y1="1209.7264" x2="1413.006" y2="1209.7264">
			<stop  offset="3.196674e-07" style="stop-color:#48ABF9"/>
			<stop  offset="1" style="stop-color:#0084FE"/>
		</linearGradient>
		<path class="st6" d="M1382.12,1240.87c-17.06,0-30.89-13.83-30.89-30.89v-0.51c0-17.06,13.83-30.89,30.89-30.89
			s30.89,13.83,30.89,30.89v0.51C1413.01,1227.04,1399.18,1240.87,1382.12,1240.87z"/>
		<linearGradient id="SVGID_7_" gradientUnits="userSpaceOnUse" x1="1351.228" y1="1361.8152" x2="1413.006" y2="1361.8152">
			<stop  offset="3.196674e-07" style="stop-color:#48ABF9"/>
			<stop  offset="1" style="stop-color:#0084FE"/>
		</linearGradient>
		<path class="st7" d="M1382.12,1443.98c-17.06,0-30.89-13.83-30.89-30.89v-1.01c0-17.06,13.83-30.89,30.89-30.89
			s30.89,13.83,30.89,30.89v1.01C1413.01,1430.16,1399.18,1443.98,1382.12,1443.98z M1382.12,1342.43
			c-17.06,0-30.89-13.83-30.89-30.89v-1.01c0-17.06,13.83-30.89,30.89-30.89s30.89,13.83,30.89,30.89v1.01
			C1413.01,1328.6,1399.18,1342.43,1382.12,1342.43z"/>
		<linearGradient id="SVGID_8_" gradientUnits="userSpaceOnUse" x1="1351.228" y1="1513.9033" x2="1413.5208" y2="1513.9033">
			<stop  offset="3.196674e-07" style="stop-color:#48ABF9"/>
			<stop  offset="1" style="stop-color:#0084FE"/>
		</linearGradient>
		<path class="st8" d="M1381.95,1545.05L1381.95,1545.05c-16.97,0-30.72-13.76-30.72-30.72v0c0-16.99,13.44-31.32,30.43-31.56
			c8.85-0.13,16.85,3.46,22.56,9.3c5.84,5.71,9.43,13.72,9.3,22.56C1413.27,1531.62,1398.95,1545.05,1381.95,1545.05z"/>
		<linearGradient id="SVGID_9_" gradientUnits="userSpaceOnUse" x1="1459.1816" y1="1514.1608" x2="1739.0597" y2="1514.1608">
			<stop  offset="3.196674e-07" style="stop-color:#48ABF9"/>
			<stop  offset="1" style="stop-color:#0084FE"/>
		</linearGradient>
		<path class="st9" d="M1708.17,1545.05h-1.07c-17.06,0-30.89-13.83-30.89-30.89s13.83-30.89,30.89-30.89h1.07
			c17.06,0,30.89,13.83,30.89,30.89S1725.23,1545.05,1708.17,1545.05z M1599.66,1545.05h-1.07c-17.06,0-30.89-13.83-30.89-30.89
			s13.83-30.89,30.89-30.89h1.07c17.06,0,30.89,13.83,30.89,30.89S1616.72,1545.05,1599.66,1545.05z M1491.15,1545.05h-1.07
			c-17.06,0-30.89-13.83-30.89-30.89s13.83-30.89,30.89-30.89h1.07c17.06,0,30.89,13.83,30.89,30.89S1508.2,1545.05,1491.15,1545.05
			z"/>
		<linearGradient id="SVGID_10_" gradientUnits="userSpaceOnUse" x1="1784.7195" y1="1514.1608" x2="1847.0122" y2="1514.1608">
			<stop  offset="3.196674e-07" style="stop-color:#48ABF9"/>
			<stop  offset="1" style="stop-color:#0084FE"/>
		</linearGradient>
		<path class="st10" d="M1816.12,1545.05h-0.51c-17.06,0-30.89-13.83-30.89-30.89s13.83-30.89,30.89-30.89h0.51
			c17.06,0,30.89,13.83,30.89,30.89S1833.18,1545.05,1816.12,1545.05z"/>
	</g>
	<linearGradient id="SVGID_11_" gradientUnits="userSpaceOnUse" x1="1584.0557" y1="1199.1365" x2="1645.8336" y2="1199.1365">
		<stop  offset="3.196674e-07" style="stop-color:#48ABF9"/>
		<stop  offset="1" style="stop-color:#0084FE"/>
	</linearGradient>
	<path class="st11" d="M1614.94,1230.28c-17.06,0-30.89-13.83-30.89-30.89v-0.51c0-17.06,13.83-30.89,30.89-30.89
		s30.89,13.83,30.89,30.89v0.51C1645.83,1216.45,1632,1230.28,1614.94,1230.28z"/>
	<linearGradient id="SVGID_12_" gradientUnits="userSpaceOnUse" x1="1584.0557" y1="1335.4834" x2="1646.3485" y2="1335.4834">
		<stop  offset="3.196674e-07" style="stop-color:#48ABF9"/>
		<stop  offset="1" style="stop-color:#0084FE"/>
	</linearGradient>
	<path class="st12" d="M1614.83,1366.63L1614.83,1366.63c-16.99,0-30.77-13.78-30.77-30.77v0c0-16.97,13.42-31.25,30.38-31.52
		c8.86-0.14,16.89,3.45,22.61,9.3c5.85,5.72,9.44,13.74,9.3,22.61C1646.07,1353.22,1631.79,1366.63,1614.83,1366.63z"/>
	<linearGradient id="SVGID_13_" gradientUnits="userSpaceOnUse" x1="1988.4117" y1="1335.7407" x2="2051.1921" y2="1335.7407">
		<stop  offset="3.196674e-07" style="stop-color:#48ABF9"/>
		<stop  offset="1" style="stop-color:#0084FE"/>
	</linearGradient>
	<path class="st13" d="M2020.3,1366.63h-1c-17.06,0-30.89-13.83-30.89-30.89s13.83-30.89,30.89-30.89h1
		c17.06,0,30.89,13.83,30.89,30.89S2037.36,1366.63,2020.3,1366.63z"/>
	<linearGradient id="SVGID_14_" gradientUnits="userSpaceOnUse" x1="2082.6724" y1="1335.4834" x2="2145.4526" y2="1335.4834">
		<stop  offset="3.196674e-07" style="stop-color:#48ABF9"/>
		<stop  offset="1" style="stop-color:#0084FE"/>
	</linearGradient>
	<path class="st14" d="M2114.56,1366.37h-1c-17.06,0-30.89-13.83-30.89-30.89c0-17.06,13.83-30.89,30.89-30.89h1
		c17.06,0,30.89,13.83,30.89,30.89C2145.45,1352.54,2131.62,1366.37,2114.56,1366.37z"/>
	<linearGradient id="SVGID_15_" gradientUnits="userSpaceOnUse" x1="1887.201" y1="1335.7407" x2="1949.9814" y2="1335.7407">
		<stop  offset="3.196674e-07" style="stop-color:#48ABF9"/>
		<stop  offset="1" style="stop-color:#0084FE"/>
	</linearGradient>
	<path class="st15" d="M1919.09,1366.63h-1c-17.06,0-30.89-13.83-30.89-30.89s13.83-30.89,30.89-30.89h1
		c17.06,0,30.89,13.83,30.89,30.89S1936.15,1366.63,1919.09,1366.63z"/>
	<linearGradient id="SVGID_16_" gradientUnits="userSpaceOnUse" x1="1785.9904" y1="1335.7407" x2="1848.7709" y2="1335.7407">
		<stop  offset="3.196674e-07" style="stop-color:#48ABF9"/>
		<stop  offset="1" style="stop-color:#0084FE"/>
	</linearGradient>
	<path class="st16" d="M1817.88,1366.63h-1c-17.06,0-30.89-13.83-30.89-30.89s13.83-30.89,30.89-30.89h1
		c17.06,0,30.89,13.83,30.89,30.89S1834.94,1366.63,1817.88,1366.63z"/>
	<linearGradient id="SVGID_17_" gradientUnits="userSpaceOnUse" x1="1684.7797" y1="1335.7407" x2="1747.5602" y2="1335.7407">
		<stop  offset="3.196674e-07" style="stop-color:#48ABF9"/>
		<stop  offset="1" style="stop-color:#0084FE"/>
	</linearGradient>
	<path class="st17" d="M1716.67,1366.63h-1c-17.06,0-30.89-13.83-30.89-30.89s13.83-30.89,30.89-30.89h1
		c17.06,0,30.89,13.83,30.89,30.89S1733.73,1366.63,1716.67,1366.63z"/>
	<linearGradient id="SVGID_18_" gradientUnits="userSpaceOnUse" x1="1874.5337" y1="1514.1608" x2="2000.7059" y2="1514.1608">
		<stop  offset="3.196674e-07" style="stop-color:#48ABF9"/>
		<stop  offset="1" style="stop-color:#0084FE"/>
	</linearGradient>
	<path class="st18" d="M1937.62,1577.25c-34.79,0-63.09-28.3-63.09-63.09s28.3-63.09,63.09-63.09s63.09,28.3,63.09,63.09
		S1972.41,1577.25,1937.62,1577.25z M1937.62,1486.08c-15.48,0-28.08,12.6-28.08,28.08s12.6,28.08,28.08,28.08
		s28.08-12.6,28.08-28.08S1953.1,1486.08,1937.62,1486.08z"/>
	<linearGradient id="SVGID_19_" gradientUnits="userSpaceOnUse" x1="2176.6626" y1="1335.7402" x2="2302.8347" y2="1335.7402">
		<stop  offset="3.196674e-07" style="stop-color:#48ABF9"/>
		<stop  offset="1" style="stop-color:#0084FE"/>
	</linearGradient>
	<path class="st19" d="M2239.75,1398.83c-34.79,0-63.09-28.3-63.09-63.09s28.3-63.09,63.09-63.09c34.79,0,63.09,28.3,63.09,63.09
		S2274.53,1398.83,2239.75,1398.83z M2239.75,1307.66c-15.48,0-28.08,12.6-28.08,28.08s12.6,28.08,28.08,28.08
		c15.48,0,28.08-12.6,28.08-28.08S2255.23,1307.66,2239.75,1307.66z"/>
	<linearGradient id="SVGID_20_" gradientUnits="userSpaceOnUse" x1="1152.8961" y1="477.3449" x2="1214.6741" y2="477.3449">
		<stop  offset="3.196674e-07" style="stop-color:#48ABF9"/>
		<stop  offset="1" style="stop-color:#0084FE"/>
	</linearGradient>
	<path class="st20" d="M1183.79,508.49c-17.06,0-30.89-13.83-30.89-30.89v-0.51c0-17.06,13.83-30.89,30.89-30.89
		s30.89,13.83,30.89,30.89v0.51C1214.67,494.66,1200.84,508.49,1183.79,508.49z"/>
	<linearGradient id="SVGID_21_" gradientUnits="userSpaceOnUse" x1="1152.8961" y1="381.8867" x2="1214.6741" y2="381.8867">
		<stop  offset="3.196674e-07" style="stop-color:#48ABF9"/>
		<stop  offset="1" style="stop-color:#0084FE"/>
	</linearGradient>
	<path class="st21" d="M1183.79,413.25c-17.06,0-30.89-13.83-30.89-30.89v-0.95c0-17.06,13.83-30.89,30.89-30.89
		s30.89,13.83,30.89,30.89v0.95C1214.67,399.42,1200.84,413.25,1183.79,413.25z"/>
	<linearGradient id="SVGID_22_" gradientUnits="userSpaceOnUse" x1="1152.3812" y1="286.4276" x2="1214.6741" y2="286.4276">
		<stop  offset="3.196674e-07" style="stop-color:#48ABF9"/>
		<stop  offset="1" style="stop-color:#0084FE"/>
	</linearGradient>
	<path class="st22" d="M1184.29,317.57c-8.86,0.14-16.89-3.45-22.61-9.3c-5.85-5.72-9.44-13.74-9.3-22.61
		c0.27-16.96,14.55-30.38,31.52-30.38l0,0c16.99,0,30.77,13.78,30.77,30.77v0C1214.67,303.02,1201.26,317.3,1184.29,317.57z"/>
	<linearGradient id="SVGID_23_" gradientUnits="userSpaceOnUse" x1="826.8424" y1="286.1701" x2="1106.7205" y2="286.1701">
		<stop  offset="3.196674e-07" style="stop-color:#48ABF9"/>
		<stop  offset="1" style="stop-color:#0084FE"/>
	</linearGradient>
	<path class="st23" d="M1075.83,317.06h-1.07c-17.06,0-30.89-13.83-30.89-30.89s13.83-30.89,30.89-30.89h1.07
		c17.06,0,30.89,13.83,30.89,30.89S1092.89,317.06,1075.83,317.06z M967.32,317.06h-1.07c-17.06,0-30.89-13.83-30.89-30.89
		s13.83-30.89,30.89-30.89h1.07c17.06,0,30.89,13.83,30.89,30.89S984.38,317.06,967.32,317.06z M858.81,317.06h-1.07
		c-17.06,0-30.89-13.83-30.89-30.89s13.83-30.89,30.89-30.89h1.07c17.06,0,30.89,13.83,30.89,30.89S875.87,317.06,858.81,317.06z"/>
	<linearGradient id="SVGID_24_" gradientUnits="userSpaceOnUse" x1="909.7711" y1="579.5727" x2="971.549" y2="579.5727">
		<stop  offset="3.196674e-07" style="stop-color:#48ABF9"/>
		<stop  offset="1" style="stop-color:#0084FE"/>
	</linearGradient>
	<path class="st24" d="M940.66,610.72c-17.06,0-30.89-13.83-30.89-30.89v-0.51c0-17.06,13.83-30.89,30.89-30.89
		s30.89,13.83,30.89,30.89v0.51C971.55,596.89,957.72,610.72,940.66,610.72z"/>
	<linearGradient id="SVGID_25_" gradientUnits="userSpaceOnUse" x1="909.2563" y1="485.4407" x2="971.549" y2="485.4407">
		<stop  offset="3.196674e-07" style="stop-color:#48ABF9"/>
		<stop  offset="1" style="stop-color:#0084FE"/>
	</linearGradient>
	<path class="st25" d="M941.17,516.58c-8.86,0.14-16.89-3.45-22.61-9.3c-5.85-5.72-9.44-13.74-9.3-22.61
		c0.27-16.96,14.55-30.38,31.52-30.38h0c16.99,0,30.77,13.78,30.77,30.77v0C971.55,502.03,958.13,516.31,941.17,516.58z"/>
	<linearGradient id="SVGID_26_" gradientUnits="userSpaceOnUse" x1="529.175" y1="485.1833" x2="876.9556" y2="485.1833">
		<stop  offset="3.196674e-07" style="stop-color:#48ABF9"/>
		<stop  offset="1" style="stop-color:#0084FE"/>
	</linearGradient>
	<path class="st26" d="M846.07,516.07h-0.94c-17.06,0-30.89-13.83-30.89-30.89s13.83-30.89,30.89-30.89h0.94
		c17.06,0,30.89,13.83,30.89,30.89S863.13,516.07,846.07,516.07z M751.05,516.07h-0.94c-17.06,0-30.89-13.83-30.89-30.89
		s13.83-30.89,30.89-30.89h0.94c17.06,0,30.89,13.83,30.89,30.89S768.11,516.07,751.05,516.07z M656.02,516.07h-0.94
		c-17.06,0-30.89-13.83-30.89-30.89s13.83-30.89,30.89-30.89h0.94c17.06,0,30.89,13.83,30.89,30.89S673.08,516.07,656.02,516.07z
		 M561.01,516.07h-0.94c-17.06,0-30.89-13.83-30.89-30.89s13.83-30.89,30.89-30.89h0.94c17.06,0,30.89,13.83,30.89,30.89
		S578.06,516.07,561.01,516.07z"/>
	<linearGradient id="SVGID_27_" gradientUnits="userSpaceOnUse" x1="666.1001" y1="286.1707" x2="792.2723" y2="286.1707">
		<stop  offset="3.196674e-07" style="stop-color:#48ABF9"/>
		<stop  offset="1" style="stop-color:#0084FE"/>
	</linearGradient>
	<path class="st27" d="M729.19,349.26c-34.79,0-63.09-28.3-63.09-63.09s28.3-63.09,63.09-63.09c34.79,0,63.09,28.3,63.09,63.09
		S763.97,349.26,729.19,349.26z M729.19,258.09c-15.48,0-28.08,12.6-28.08,28.08s12.6,28.08,28.08,28.08
		c15.48,0,28.08-12.6,28.08-28.08S744.67,258.09,729.19,258.09z"/>
	<linearGradient id="SVGID_28_" gradientUnits="userSpaceOnUse" x1="371.4935" y1="485.1833" x2="497.6657" y2="485.1833">
		<stop  offset="3.196674e-07" style="stop-color:#48ABF9"/>
		<stop  offset="1" style="stop-color:#0084FE"/>
	</linearGradient>
	<path class="st28" d="M434.58,548.27c-34.79,0-63.09-28.3-63.09-63.09s28.3-63.09,63.09-63.09s63.09,28.3,63.09,63.09
		S469.37,548.27,434.58,548.27z M434.58,457.1c-15.48,0-28.08,12.6-28.08,28.08s12.6,28.08,28.08,28.08s28.08-12.6,28.08-28.08
		S450.06,457.1,434.58,457.1z"/>
	<g>
		<linearGradient id="SVGID_29_" gradientUnits="userSpaceOnUse" x1="1395.9791" y1="831.127" x2="1476.5061" y2="831.127">
			<stop  offset="3.196674e-07" style="stop-color:#48ABF9"/>
			<stop  offset="1" style="stop-color:#0084FE"/>
		</linearGradient>
		<rect x="1395.98" y="795.99" class="st29" width="80.53" height="70.28"/>
		<linearGradient id="SVGID_30_" gradientUnits="userSpaceOnUse" x1="1395.9791" y1="921.6131" x2="1476.5061" y2="921.6131">
			<stop  offset="3.196674e-07" style="stop-color:#48ABF9"/>
			<stop  offset="1" style="stop-color:#0084FE"/>
		</linearGradient>
		<rect x="1395.98" y="886.47" class="st30" width="80.53" height="70.28"/>
		<linearGradient id="SVGID_31_" gradientUnits="userSpaceOnUse" x1="1497.2781" y1="921.6131" x2="1577.8049" y2="921.6131">
			<stop  offset="3.196674e-07" style="stop-color:#48ABF9"/>
			<stop  offset="1" style="stop-color:#0084FE"/>
		</linearGradient>
		<rect x="1497.28" y="886.47" class="st31" width="80.53" height="70.28"/>
		<linearGradient id="SVGID_32_" gradientUnits="userSpaceOnUse" x1="1295.6288" y1="831.127" x2="1376.1556" y2="831.127">
			<stop  offset="3.196674e-07" style="stop-color:#48ABF9"/>
			<stop  offset="1" style="stop-color:#0084FE"/>
		</linearGradient>
		<rect x="1295.63" y="795.99" class="st32" width="80.53" height="70.28"/>
		<linearGradient id="SVGID_33_" gradientUnits="userSpaceOnUse" x1="1295.6288" y1="921.6131" x2="1376.1556" y2="921.6131">
			<stop  offset="3.196674e-07" style="stop-color:#48ABF9"/>
			<stop  offset="1" style="stop-color:#0084FE"/>
		</linearGradient>
		<rect x="1295.63" y="886.47" class="st33" width="80.53" height="70.28"/>
		<linearGradient id="SVGID_34_" gradientUnits="userSpaceOnUse" x1="1195.468" y1="831.127" x2="1275.995" y2="831.127">
			<stop  offset="3.196674e-07" style="stop-color:#48ABF9"/>
			<stop  offset="1" style="stop-color:#0084FE"/>
		</linearGradient>
		<rect x="1195.47" y="795.99" class="st34" width="80.53" height="70.28"/>
		<linearGradient id="SVGID_35_" gradientUnits="userSpaceOnUse" x1="1195.468" y1="921.6131" x2="1275.995" y2="921.6131">
			<stop  offset="3.196674e-07" style="stop-color:#48ABF9"/>
			<stop  offset="1" style="stop-color:#0084FE"/>
		</linearGradient>
		<rect x="1195.47" y="886.47" class="st35" width="80.53" height="70.28"/>
		<linearGradient id="SVGID_36_" gradientUnits="userSpaceOnUse" x1="1099.1013" y1="921.6131" x2="1179.6283" y2="921.6131">
			<stop  offset="3.196674e-07" style="stop-color:#48ABF9"/>
			<stop  offset="1" style="stop-color:#0084FE"/>
		</linearGradient>
		<rect x="1099.1" y="886.47" class="st36" width="80.53" height="70.28"/>
		<linearGradient id="SVGID_37_" gradientUnits="userSpaceOnUse" x1="1395.9791" y1="740.6409" x2="1476.5061" y2="740.6409">
			<stop  offset="3.196674e-07" style="stop-color:#48ABF9"/>
			<stop  offset="1" style="stop-color:#0084FE"/>
		</linearGradient>
		<rect x="1395.98" y="705.5" class="st37" width="80.53" height="70.28"/>
	</g>
</g>
<g>
	<path class="st76" d="M588.01,1678.62h151.54c12.76,0,23.11,10.35,23.11,23.11l0,0c0,12.76-10.35,23.11-23.11,23.11H638.73
		c-12.76,0-23.11,10.35-23.11,23.11v31.7c0,12.76,10.35,23.11,23.11,23.11h79.96c12.76,0,23.11,10.35,23.11,23.11v0.2
		c0,12.76-10.35,23.11-23.11,23.11h-79.96c-12.76,0-23.11,10.35-23.11,23.11v76.69c0,12.76-10.35,23.11-23.11,23.11h-4.5
		c-12.76,0-23.11-10.35-23.11-23.11v-247.26C564.9,1688.97,575.25,1678.62,588.01,1678.62z"/>
	<path class="st76" d="M912.55,1767.17c8.04,2.59,15.75,6.14,23.11,10.63v-6.75c0-4.63,3.75-8.38,8.38-8.38h18.21
		c12.76,0,23.1,10.34,23.1,23.1v161.39c0,12.75-10.34,23.09-23.09,23.09h-18.22c-4.63,0-8.38-3.75-8.38-8.38v-5.73
		c-7.36,4.5-15.07,8.05-23.11,10.63c-10.36,3.27-21,4.91-31.9,4.91c-14.18,0-27.75-2.73-40.7-8.18
		c-12.55-5.32-23.66-12.81-33.34-22.5c-9.68-9.68-17.18-20.79-22.5-33.34c-5.45-12.95-8.18-26.52-8.18-40.7
		c0-14.18,2.73-27.74,8.18-40.7c5.32-12.54,12.81-23.65,22.5-33.34c9.68-9.68,20.79-17.18,33.34-22.5
		c12.95-5.45,26.52-8.18,40.7-8.18C891.55,1762.27,902.19,1763.9,912.55,1767.17z M880.65,1811.96c-15.13,0-28.09,5.39-38.86,16.16
		c-10.63,10.77-15.95,23.72-15.95,38.86c0,15.13,5.32,28.09,15.95,38.86c10.77,10.63,23.72,15.95,38.86,15.95
		c15.13,0,28.09-5.32,38.86-15.95c10.77-10.77,16.16-23.72,16.16-38.86c0-15.13-5.39-28.09-16.16-38.86
		C908.73,1817.35,895.78,1811.96,880.65,1811.96z"/>
	<path class="st76" d="M1117.68,1782.1c26.31,0,48.74,9.27,67.28,27.81c18.54,18.54,27.81,40.97,27.81,67.29
		c0,26.18-9.27,48.54-27.81,67.08c-18.54,18.54-40.97,27.81-67.28,27.81c-9.82,0-19.43-1.5-28.84-4.5
		c-7.36-2.32-14.32-5.52-20.86-9.61v4.29c0,4.63-3.75,8.38-8.38,8.38h-13.71c-12.76,0-23.1-10.34-23.1-23.1v-246.11
		c0-12.84,10.41-23.24,23.24-23.24l0,0c12.13,0,21.95,9.83,21.95,21.95v96.05c6.54-4.09,13.5-7.29,20.86-9.61
		C1098.25,1783.61,1107.86,1782.1,1117.68,1782.1z M1082.5,1841.82c-9.68,9.82-14.52,21.61-14.52,35.38
		c0,13.64,4.84,25.36,14.52,35.18c9.82,9.68,21.54,14.52,35.18,14.52c13.77,0,25.56-4.84,35.38-14.52
		c9.68-9.82,14.52-21.54,14.52-35.18c0-13.77-4.84-25.56-14.52-35.38c-9.82-9.68-21.61-14.52-35.38-14.52
		C1104.04,1827.3,1092.32,1832.14,1082.5,1841.82z"/>
	<path class="st76" d="M1281.14,1679.23h150.75c12.76,0,23.11,10.35,23.11,23.11l0,0c0,12.76-10.35,23.11-23.11,23.11h-123.32v77.92
		h99.19c12.76,0,23.11,10.35,23.11,23.11v0c0,12.76-10.35,23.11-23.11,23.11h-99.19v76.28h123.32c12.76,0,23.11,10.35,23.11,23.11v0
		c0,12.76-10.35,23.11-23.11,23.11h-144.54c-16.18,0-29.3-13.12-29.3-29.3v-240.48C1258.05,1689.57,1268.39,1679.23,1281.14,1679.23
		z"/>
	<path class="st76" d="M1593.22,1787.01c7.36,2.45,14.32,5.66,20.86,9.61v-95.1c0-12.42,10.07-22.5,22.5-22.5l0,0
		c12.42,0,22.5,10.07,22.5,22.5v246.04c0,12.76-10.34,23.1-23.1,23.1h-13.5c-4.63,0-8.38-3.75-8.38-8.38v-4.29
		c-6.54,4.09-13.5,7.3-20.86,9.61c-9.27,3-18.89,4.5-28.84,4.5c-26.18,0-48.47-9.27-66.88-27.81
		c-18.54-18.41-27.81-40.7-27.81-66.88c0-26.18,9.27-48.54,27.81-67.08c18.41-18.41,40.7-27.61,66.88-27.61
		C1574.34,1782.72,1583.95,1784.15,1593.22,1787.01z M1564.39,1827.71c-13.64,0-25.36,4.84-35.18,14.52
		c-9.68,9.68-14.52,21.41-14.52,35.18c0,13.64,4.84,25.36,14.52,35.18c9.82,9.68,21.54,14.52,35.18,14.52
		c13.77,0,25.49-4.84,35.18-14.52c9.68-9.82,14.52-21.54,14.52-35.18c0-13.77-4.84-25.49-14.52-35.18
		C1589.88,1832.55,1578.15,1827.71,1564.39,1827.71z"/>
	<path class="st76" d="M1695.89,1983.96c-0.41-3.14-0.61-6.34-0.61-9.61l0,0c0-1.92,1.56-3.48,3.48-3.48h39.06
		c1.92,0,3.48,1.56,3.48,3.48l0,0c0,1.36,0.07,2.79,0.2,4.29c0.13,1.36,0.41,2.73,0.82,4.09c1.09,5.04,3.2,9.61,6.34,13.7
		c3,4.09,6.75,7.36,11.25,9.82c3.95,2.18,8.18,3.61,12.68,4.29c4.36,0.54,8.72,0.34,13.09-0.61c8.18-2.05,14.86-6.34,20.04-12.88
		c5.32-6.68,7.98-14.25,7.98-22.7v-25.97c-4.77,2.32-9.75,4.16-14.93,5.52c-6.95,1.91-14.11,2.86-21.47,2.86
		c-22.63,0-42-8.04-58.08-24.13c-16.09-16.09-24.13-35.45-24.13-58.08v-29.65c0-22.63,8.04-42.06,24.13-58.29
		c16.09-16.09,35.45-24.13,58.08-24.13c7.36,0,14.52,0.96,21.47,2.86c5.18,1.36,10.15,3.27,14.93,5.73l0,0
		c0-4.63,3.75-8.38,8.38-8.38h14.53c12.76,0,23.1,10.34,23.1,23.1v192.86h-0.2c-0.82,17.72-6.82,33.54-18,47.45
		c-11.73,14.86-26.79,24.47-45.2,28.84c-10.5,2.45-21,2.86-31.5,1.23c-10.64-1.64-20.59-5.32-29.86-11.04
		c-9.41-5.73-17.38-13.09-23.93-22.09c-6.55-9-11.04-18.89-13.5-29.65C1696.71,1990.23,1696.16,1987.09,1695.89,1983.96z
		 M1752.13,1819.53c-6.95,6.95-10.43,15.34-10.43,25.15v29.86c0,9.82,3.48,18.2,10.43,25.16c6.95,7.09,15.34,10.63,25.15,10.63
		s18.27-3.54,25.36-10.63c6.95-6.95,10.43-15.34,10.43-25.16v-29.86c0-9.82-3.48-18.2-10.43-25.15
		c-7.09-6.95-15.54-10.43-25.36-10.43S1759.08,1812.58,1752.13,1819.53z"/>
	<path class="st76" d="M1964,1911.76c7.91,7.36,17.25,12.2,28.02,14.52c10.36,2.18,20.66,1.71,30.88-1.43
		c10.09-3.14,18.61-8.52,25.56-16.16l0.1-0.1c0.72-0.72,1.7-1.13,2.72-1.13h44.22c2.84,0,4.7,2.96,3.47,5.52l0,0
		c-9,18.41-21.95,32.93-38.86,43.56c-16.64,10.36-35.11,15.54-55.42,15.54c-14.04,0-27.54-2.73-40.49-8.18
		c-12.41-5.18-23.45-12.48-33.13-21.88c-9.82-9.41-17.38-20.18-22.7-32.31c-5.59-12.68-8.38-25.77-8.38-39.27v-0.2v-1.84
		c0.41-32.99,11.52-59.31,33.34-78.94c9.54-8.72,20.59-15.41,33.13-20.04c12.13-4.5,24.81-6.75,38.04-6.75h1.43
		c4.09,0.14,8.25,0.48,12.48,1.02c24.95,3.41,46.01,14.25,63.19,32.52c18.95,20.04,28.22,44.45,27.81,73.22
		c0,5.05-0.41,10.23-1.23,15.54l0,0.02c-0.23,1.86-1.81,3.25-3.68,3.25l0,0h-156.04C1952,1897.52,1957.18,1905.36,1964,1911.76z
		 M2062.37,1849.39c-1.5-4.77-3.75-9.47-6.75-14.11c-3.82-6-8.38-11.18-13.7-15.54c-10.36-8.18-22.77-12.41-37.22-12.68
		c-13.91-0.13-26.18,4.09-36.81,12.68c-10.5,8.32-17.45,18.2-20.86,29.65H2062.37z"/>
</g>
</svg>
