<svg id="Layer_1" data-name="Layer 1" xmlns="http://www.w3.org/2000/svg" viewBox="0 0 432 108"><defs><style>.cls-1{fill:#e21924;}.cls-2{fill:#015581;}</style></defs><title>fasttext</title><path class="cls-1" d="M47.56066,47.87729c.59718-.00214,1.33394.24324,1.54712-.70312.78677-3.49262,1.59137-6.98122,2.41431-10.58088-4.70881,0-9.27207-.03826-13.83392.02573-1.20685.01689-1.37637-.35114-1.0585-1.41071.58492-1.94984.99025-3.95508,1.61134-5.89206,3.09239-9.64456,9.76667-13.43874,19.4247-11.02765,1.04192.26014,1.32294-.18277,1.57124-.97749.9719-3.1107,1.86744-6.25,2.98338-9.30852.4336-1.1884-.01256-1.43086-.92732-1.63671a38.49776,38.49776,0,0,0-4.9986-.84395c-9.36155-.84532-17.57731,1.72848-24.37972,8.284C25.901,19.60128,22.80656,26.96957,21.09816,34.9812c-.28147,1.31979-.76173,1.70677-2.05017,1.64039-2.04343-.10532-4.09632-.03491-6.14514-.02384-.55875.003-1.16266-.14821-1.3553.71144-.78106,3.48568-1.61211,6.96029-2.45664,10.57565,2.61651,0,5.01316.05661,7.40534-.02213,1.34473-.04425,1.47744.297,1.14805,1.59579-3.19182,12.58476-6.2564,25.20186-9.43778,37.78936-1.06174,4.20089-1.84885,8.47821-3.32787,12.56966v1.05392a3.04722,3.04722,0,0,1,1.71568-.18818c3.98062-.01355,7.9613-.00712,11.942-.00712,2.72293,0,2.73086.00206,3.39549-2.53.31072-1.18368.59324-2.375.8728-3.56664Q28.11165,71.959,33.40623,49.33543a1.59146,1.59146,0,0,1,1.862-1.48687C39.36381,47.94385,43.463,47.892,47.56066,47.87729Z"/><path class="cls-2" d="M412.04343,47.77069c4.79955.05214,9.59987.04219,14.3999.05386V36.58282c-4.68342-.00025-9.36749-.044-14.04976.02873-1.22849.01913-1.56753-.31459-1.54647-1.54638.07612-4.448-.00952-8.89865.05365-13.347.01917-1.35058-.12878-1.90541-1.69829-1.376-3.74765,1.264-7.53721,2.41341-11.346,3.4801a1.31361,1.31361,0,0,0-1.157,1.56226c.03453,3.278-.02547,6.55744.0371,9.8347.02,1.04594-.22377,1.43592-1.34561,1.38978-2.22086-.09134-4.44936.01638-6.6722-.047-.95742-.02727-1.31923.204-1.29483,1.23823q.10356,4.3883,0,8.78036c-.025,1.05074.371,1.25787,1.3122,1.22734,1.9299-.06278,3.87155.09211,5.79261-.05223,1.68358-.12651,2.27031.25661,2.23854,2.12755-.12908,7.60844-.06437,15.22031-.05,22.83089a110.903,110.903,0,0,0,.59209,15.23763c.79172,5.65149,3.40244,10.08224,8.77883,12.39041,6.272,2.69268,12.69094,1.83414,19.08422.33681.67735-.15867.73417-.57773.72-1.15786q-.11631-4.73758-.17613-9.47637c-.0096-.79472-.14267-1.02655-1.09649-.92329-2.77728.30027-5.62481.75313-8.33974-.2163-4.03772-1.44184-5.20292-4.943-5.26921-8.6832-.18471-10.41707-.09731-20.83894-.15066-31.25867C410.85559,48.051,411.11722,47.76056,412.04343,47.77069Z"/><path class="cls-1" d="M153.76015,36.56876q-6.49613.09082-12.9943.01252a46.67186,46.67186,0,0,0-12.67079,1.40916c-6.22115,1.655-11.609,4.57518-15.00267,10.34219-4.84443,8.23249-2.77874,16.42929,5.34546,21.41119a41.12865,41.12865,0,0,0,6.31485,2.96644,23.2113,23.2113,0,0,1,6.97642,3.92121c3.47273,3.06464,2.35749,9.85143-2.019,11.40914a13.12751,13.12751,0,0,1-3.36067.91351,231.04387,231.04387,0,0,1-25.78552.14829c-4.66964-.167-6.5775-3.40737-5.48287-7.9588,1.3065-5.43243,2.64529-10.85723,3.92985-16.29489.99323-4.20433,1.93089-8.415,1.77389-12.79-.24753-6.89854-3.53881-11.69415-9.78318-13.91021A26.28008,26.28008,0,0,0,82.24982,36.595c-6.847-.01612-13.69423.02213-20.54086-.0289-1.015-.00755-1.43613.27557-1.63936,1.2649-.562,2.73607-1.21644,5.45318-1.84031,8.17648-.4601,2.00833-.464,1.98654,1.64828,2.0133,6.49385.08217,12.993-.2344,19.48113.17969,2.63373.1681,4.7187,1.32734,5.68255,3.94333a10.9084,10.9084,0,0,1,.14594,5.70826c-.12525.739-.60681.87363-1.2673.85682a80.51016,80.51016,0,0,0-8.58658.34942c-7.35225.59874-14.57982,1.68095-21.48162,4.50322C44.0068,67.58728,37.62408,76.92273,39.2726,87.43672a15.89387,15.89387,0,0,0,12.89747,13.4565c6.12925,1.07527,11.94562-.10386,17.69076-2.09727A1.40445,1.40445,0,0,0,70.936,97.59289c.62452-3.541,1.29544-7.07386,1.989-10.819-3.76117,1.041-7.25135,1.98149-10.92377,1.77616-3.09063-.17274-5.60006-1.781-6.08538-4.12791a9.36457,9.36457,0,0,1,1.62946-7.96171,14.82372,14.82372,0,0,1,5.826-4.36883c4.93387-2.2508,10.18576-2.82081,15.53253-2.8962,3.39254-.04777,3.39131-.07376,2.66917,3.15848-.11422.51117-.21943,1.02449-.32413,1.53781-.95383,4.67647-2.48343,9.25809-2.43941,14.10156.05985,6.58643,2.92957,10.50789,8.85833,11.95522a21.09429,21.09429,0,0,0,4.86386.51383c9.541.046,19.08294.08757,28.62325-.00488a46.07019,46.07019,0,0,0,14.14375-2.06186C147.00913,94.526,150.8299,82.283,148.86128,74.09352c-1.31962-5.48955-5.14649-8.89873-10.0662-11.17491-3.16645-1.465-6.48977-2.5943-9.639-4.09214-3.34789-1.59236-3.91833-3.9996-1.97364-7.18a6.75134,6.75134,0,0,1,3.51463-2.75426,17.12718,17.12718,0,0,1,5.84578-.982q7.19625-.15129,14.39665-.048c1.194.01724,1.59986-.399,1.83529-1.46774.62645-2.84422,1.3348-5.67069,2.03437-8.49827C155.04151,36.95668,154.8753,36.55315,153.76015,36.56876Z"/><path class="cls-2" d="M296.479,35.02648c-11.43435-.641-20.916,3.35763-27.29089,13.19637-5.80153,8.954-7.279,18.89331-5.29057,29.25609,2.01172,10.48439,7.87149,18.21394,18.03391,21.91952,11.88773,4.3347,23.77829,2.86773,35.51425-1.06017.81427-.27248.88456-.7599.72452-1.47623-.622-2.78462-1.26464-5.56606-1.80151-8.3674-.207-1.08007-.62893-1.19311-1.62919-.96917-6.859,1.53575-13.76312,2.61411-20.82994,1.742-7.8814-.97251-15.13291-5.32616-15.82557-15.10649-.09014-1.27245.27261-1.40522,1.34037-1.39939,6.73224.03654,13.46482.01853,20.19732.01853q10.27428,0,20.54857-.00712c.69571-.0012,1.44729.28364,1.5976-.97938a43.56912,43.56912,0,0,0-.36572-13.09979C319.1555,46.46565,311.87049,35.88939,296.479,35.02648ZM307.43707,60.3063c-.0265.987-.36631,1.251-1.333,1.24037q-1.689-.01866-3.37813-.02444c-3.3783-.01321-6.75685.0024-10.13524.0024-2.19376,0-4.38769-.00806-6.58146-.00918s-4.38744.0048-6.58086.03276c-1.043.0133-1.36447-.16175-1.24959-1.31293.56963-5.7086,4.8312-11.37912,10.07962-13.00081,6.13993-1.89718,11.533-.448,16.035,4.08408C306.73284,53.77441,307.52859,56.89661,307.43707,60.3063Z"/><path class="cls-2" d="M275.33154,22.58076c-.09512-3.21715-.07625-6.44-.00592-9.65829.02461-1.12536-.26408-1.51929-1.44922-1.51748q-32.14044.047-64.28089-.00661c-1.2616-.0024-1.4216.48973-1.4053,1.54305.05069,3.27769.07427,6.558-.01038,9.83436-.03131,1.21155.27806,1.57246,1.52941,1.56208,7.376-.06123,14.75373.0362,22.12845-.0783,1.76767-.02745,2.062.51229,2.0583,2.14282-.05477,24.11989-.02333,48.24-.07321,72.35985-.003,1.46337.34976,1.85764,1.81613,1.81621q5.879-.16621,11.7653-.00283c1.529.04083,2.0386-.28,2.02711-1.95009-.08306-12.05944-.04451-24.11973-.04451-36.17967,0-12.17711.02114-24.3543-.031-36.53115-.00549-1.289.274-1.65548,1.61445-1.64245,7.55145.07351,15.10439-.00583,22.65571.072C275.05742,24.359,275.37116,23.92113,275.33154,22.58076Z"/><path class="cls-2" d="M364.2845,68.6086a2.049,2.049,0,0,1,.02856-2.74911c5.07409-7.1392,10.07481-14.33064,15.09444-21.50861,1.75588-2.51085,3.4988-5.03079,5.40186-7.76849-5.50414,0-10.69556.01879-15.8866-.01981a1.55733,1.55733,0,0,0-1.47087.98538c-4.06791,6.805-8.34184,13.48927-11.99854,20.53524-.19143.36889-.17925.97021-.82748,1.00829a4.54372,4.54372,0,0,1-.41936-.55543c-3.87884-7.13621-8.3385-13.91647-12.71474-20.74769-.33167-.51769-.49728-1.20958-1.334-1.20821q-8.12491.01352-16.273.00464c-.0271.75681.43227,1.09413.71157,1.50281q9.735,14.24313,19.51842,28.45279a2.00121,2.00121,0,0,1-.027,2.70579q-10.217,14.86413-20.33231,29.79805c-.29521.43407-.80214.806-.71256,1.49639,5.27771,0,10.48569-.03062,15.69259.02805a1.7312,1.7312,0,0,0,1.69824-1.13925c2.33665-4.10561,4.70513-8.193,7.05224-12.29272,2.01258-3.51553,4.01079-7.0392,6.05883-10.63561a6.69681,6.69681,0,0,1,.47.68537c3.79663,7.63854,8.50638,14.7449,12.86852,22.05341.32476.54419.47181,1.31713,1.4264,1.31241,5.53857-.02736,11.07735-.01338,16.63376-.01338.0591-.73305-.37643-1.09285-.64643-1.5047Q374.31306,83.80664,364.2845,68.6086Z"/><path class="cls-1" d="M205.107,36.60375c-5.3772-.02436-10.75465-.01029-16.3256-.01029,1.2926-5.53716,2.54468-10.90063,3.85328-16.50648-5.34092,1.363-10.30412,2.63889-15.27366,3.88947a1.837,1.837,0,0,0-1.52263,1.61809c-.65955,3.13309-1.50213,6.22784-2.14813,9.36342-.25885,1.25658-.7322,1.74708-2.07189,1.6692-2.15894-.12556-4.33083-.01363-6.49664-.04459-.78241-.01115-1.29337.08945-1.49188,1.02929-.63777,3.02-1.32009,6.03332-2.10332,9.0182-.318,1.21181.13817,1.30092,1.13042,1.273,2.106-.05935,4.2183.05387,6.32132-.045,1.27575-.06,1.59558.2844,1.29273,1.54493-2.19029,9.11726-4.3247,18.2479-6.48878,27.37151-1.01163,4.26514-1.98788,8.53267-1.87008,12.95991.15,5.64016,2.70614,9.532,7.80845,11.26025,6.2052,2.1019,12.45289,1.17844,18.65732-.22772.73661-.167.76586-.80432.88979-1.36216.69519-3.128,1.3601-6.26291,2.08008-9.38511.22913-.99362-.091-1.27185-1.03569-1.06257a21.794,21.794,0,0,1-5.77224.27282c-3.11409-.146-5.32908-1.93457-5.72824-4.68171a13.59,13.59,0,0,1,.06951-4.89869c2.26843-10.11586,4.63068-20.21079,6.885-30.32973.262-1.1763.72259-1.46859,1.851-1.45865,5.85424.05112,11.70954-.00909,17.56361.054a1.37016,1.37016,0,0,0,1.62692-1.29852c.42863-2.05148.94623-4.08417,1.39741-6.1311.27429-1.2444,1.09221-2.9498.57941-3.63508C208.18622,36.05106,206.38429,36.6095,205.107,36.60375Z"/></svg>