<svg xmlns="http://www.w3.org/2000/svg" role="img" viewBox="-6.08 -6.08 315.90 57.15"><g fill="#100f0d"><path d="M277.72106 20.84367c0-5.19414 5.29186-7.26955 5.29186-7.26955l20.97948 31.46432h-15.01162c0-7.7368-3.51192-11.67679-6.61317-15.15593-2.4506-2.7514-4.64655-5.21493-4.64655-9.03884"/><path d="M277.2784 30.01118c-1.69862-2.501-3.31058-4.87335-3.31058-7.48995 0-6.92743 7.81847-10.79346 7.81847-10.79346L273.96515.00419l-11.25972 18.7646-3.75324-7.50608-22.5141 33.77573h43.16025c3.49992-6.45973.472-10.91795-2.31994-15.02726M103.20675.00513H60.04797l3.75257 7.50607h15.01202v37.52828h7.50608V7.5112h16.88811V.00513m50.6654 0h-7.50648l-15.01162 20.64121L116.34242.00513h-7.50607v45.03435h7.50607V13.1408l15.01163 20.6401 15.01162-20.6401v31.89868h7.50648V.00513"/><path fill-rule="evenodd" d="M180.1435 15.01675l-7.50648 15.01163h15.01162zm-15.01163 30.02273h-7.50648L180.1435.00513l22.51811 45.03435h-7.50648l-3.75324-7.50503h-22.5181l-3.7519 7.50503"/><path d="M22.5177 26.27434l3.75298-7.50502H7.50555V7.51067h26.27174L37.52973.00513H0v45.03435h7.50555V26.27434H22.5177"/><path fill-rule="evenodd" d="M213.91999 22.5223h11.25838c4.1399 0 7.50648-3.36605 7.50648-7.50555s-3.36658-7.50608-7.50648-7.50608h-11.25838zM225.17837.00513c8.29046 0 15.01296 6.72183 15.01296 15.01162 0 8.29046-6.7225 15.01163-15.01296 15.01163h-11.25838v15.0111h-7.50648V.00513h18.76486M48.78838 15.01675l-7.50555 15.01163H56.295zm-15.0111 30.02273h-7.5066L48.78838.00513l22.51824 45.03435h-7.50608l-3.75257-7.50503H37.52973l-3.75244 7.50503"/></g></svg>