<svg width="371" height="84" viewBox="0 0 371 84" fill="none" xmlns="http://www.w3.org/2000/svg">
<path d="M43.6962 53.5691H32.3848V30.8646H43.6962C49.9257 30.8646 55.0077 35.9649 55.0077 42.2169C55.0077 48.4688 49.9257 53.5691 43.6962 53.5691Z" fill="#0064FF"/>
<path d="M22.7122 32.1808L16.6466 26.0933L0.581055 42.2169L16.6466 58.3404L22.7122 52.0884L19.5974 49.1269V35.3068L22.7122 32.1808Z" fill="#00003C"/>
<path d="M67.4669 26.0933L61.4014 32.1808L64.3522 35.3068V49.1269L61.4014 52.0884L67.4669 58.3404L83.5325 42.2169L67.4669 26.0933Z" fill="#00003C"/>
<path d="M25.9912 16.7154L32.0568 22.8028L35.1715 19.6768H48.942L51.8928 22.8028L58.1224 16.7154L42.0568 0.591858L25.9912 16.7154Z" fill="#00003C"/>
<path d="M55.0076 64.5924L51.8928 61.6309L48.942 64.5924H35.1715L32.0568 61.6309L29.106 64.5924L25.9912 67.7184L42.0568 83.8419L58.1224 67.7184L55.0076 64.5924Z" fill="#00003C"/>
<path d="M106.155 7.00839V8.3246H103.204V10.1344H105.499V11.2861H103.204V14.083H101.564V7.00839H106.155Z" fill="#00003C"/>
<path d="M109.925 7.00839V12.7668H112.711V14.083H108.285V7.00839H109.925Z" fill="#00003C"/>
<path d="M119.269 7.00839L121.564 14.083H119.925L119.433 12.4377H116.81L116.318 14.083H114.843L117.138 7.00839H119.269V7.00839ZM118.941 11.2861L117.958 8.16007L116.974 11.2861H118.941Z" fill="#00003C"/>
<path d="M125.663 7.00839L128.285 11.6151V7.00839H129.761V14.083H128.122L125.171 8.9827V14.083H123.695V7.00839H125.663Z" fill="#00003C"/>
<path d="M131.892 8.16007V7.00839H137.301V8.3246H135.334V14.083H133.695V8.16007H131.892Z" fill="#00003C"/>
<path d="M117.793 35.1423C117.793 40.4071 113.859 44.3557 108.449 44.3557H101.563V26.0933H108.449C113.859 26.0933 117.793 29.8774 117.793 35.1423ZM113.695 35.1423C113.695 31.8517 111.563 29.7129 108.285 29.7129H105.498V40.7361H108.449C111.563 40.7361 113.695 38.4328 113.695 35.1423Z" fill="#0064FF"/>
<path d="M134.515 38.4328H123.859C124.187 40.4071 125.499 41.3942 127.302 41.3942C128.613 41.3942 129.761 40.7361 130.253 39.749H134.351C133.367 42.875 130.581 44.8493 127.302 44.8493C123.04 44.8493 119.925 41.5588 119.925 37.2811C119.925 33.0034 123.04 29.7129 127.302 29.7129C131.728 29.7129 134.679 33.0034 134.679 37.1166C134.515 37.6102 134.515 38.1037 134.515 38.4328ZM123.859 35.8004H130.744C130.253 33.9906 128.941 33.168 127.302 33.168C125.499 33.168 124.351 34.1551 123.859 35.8004Z" fill="#0064FF"/>
<path d="M143.858 44.8493C139.596 44.8493 136.317 41.5588 136.317 37.2812C136.317 33.0035 139.596 29.8775 143.858 29.8775C147.465 29.8775 150.416 32.1809 151.071 35.6359H147.301C146.645 34.1552 145.334 33.4971 143.858 33.4971C141.727 33.4971 140.252 35.1423 140.252 37.4457C140.252 39.749 141.891 41.3943 143.858 41.3943C145.334 41.3943 146.645 40.5717 147.301 39.0909H151.235C150.416 42.3815 147.465 44.8493 143.858 44.8493Z" fill="#0064FF"/>
<path d="M162.219 44.5203L157.629 37.7747V44.5203H153.858V25.1062H157.629V36.623L161.891 30.371H166.317L161.563 37.1166L166.809 44.5203H162.219V44.5203Z" fill="#0064FF"/>
<path d="M181.891 35.8004V44.5203H178.121V36.4585C178.121 34.3197 177.301 33.3325 175.662 33.3325C173.694 33.3325 172.547 34.6487 172.547 37.1166V44.5203H168.776V25.1062H172.547V31.5227C173.694 30.5356 175.17 29.8775 176.809 29.8775C179.924 29.8775 181.891 32.1808 181.891 35.8004Z" fill="#0064FF"/>
<path d="M184.351 37.2811C184.351 33.0034 187.629 29.7129 192.056 29.7129C196.482 29.7129 199.76 32.8389 199.76 37.2811C199.76 41.5588 196.482 44.8493 192.056 44.8493C187.629 44.8493 184.351 41.5588 184.351 37.2811ZM195.826 37.2811C195.826 34.9777 194.187 33.3325 192.056 33.3325C189.924 33.3325 188.285 34.9777 188.285 37.2811C188.285 39.5845 189.924 41.2297 192.056 41.2297C194.187 41.2297 195.826 39.5845 195.826 37.2811Z" fill="#0064FF"/>
<path d="M202.22 38.4328V30.2065H205.99V37.9392C205.99 39.9135 207.138 41.2297 208.777 41.2297C210.58 41.2297 211.564 40.078 211.564 37.9392V30.2065H215.334V38.4328C215.334 42.2169 212.712 44.8493 208.613 44.8493C204.843 44.8493 202.22 42.2169 202.22 38.4328Z" fill="#0064FF"/>
<path d="M224.023 44.8493C220.416 44.8493 218.121 42.875 218.121 39.749H221.892C221.892 41.0653 222.875 41.7234 224.187 41.7234C225.17 41.7234 226.154 41.2298 226.154 40.2426C226.154 39.2555 224.842 38.9264 223.367 38.7619C221.072 38.4328 218.285 37.7747 218.285 34.4842C218.285 31.8518 220.58 29.8775 224.023 29.8775C227.465 29.8775 229.76 31.8518 229.76 34.6488H226.154C226.154 33.4971 225.334 33.0035 224.023 33.0035C222.875 33.0035 222.056 33.4971 222.056 34.3197C222.056 35.3069 223.203 35.4714 224.678 35.8004C226.974 36.294 229.924 36.7876 229.924 40.2426C229.924 43.0396 227.465 44.8493 224.023 44.8493Z" fill="#0064FF"/>
<path d="M246.318 38.4328H235.662C235.99 40.4071 237.301 41.3942 239.105 41.3942C240.416 41.3942 241.564 40.7361 242.055 39.749H246.154C245.17 42.875 242.383 44.8493 239.105 44.8493C234.842 44.8493 231.728 41.5588 231.728 37.2811C231.728 33.0034 234.842 29.7129 239.105 29.7129C243.531 29.7129 246.482 33.0034 246.482 37.1166C246.482 37.6102 246.482 38.1037 246.318 38.4328ZM235.826 35.8004H242.711C242.219 33.9906 240.908 33.168 239.269 33.168C237.465 33.168 236.154 34.1551 235.826 35.8004Z" fill="#0064FF"/>
<path d="M112.055 76.1092L105.498 67.0603V76.1092H101.563V57.6823H105.498V66.2376L111.563 57.6823H116.154L109.924 66.4022L116.809 75.9446H112.055V76.1092Z" fill="#00003C"/>
<path d="M117.465 70.0217V61.7954H121.235V69.5282C121.235 71.5025 122.383 72.8187 124.022 72.8187C125.826 72.8187 126.809 71.667 126.809 69.5282V61.7954H130.58V70.0217C130.58 73.8058 127.957 76.4382 123.858 76.4382C120.088 76.4382 117.465 73.8058 117.465 70.0217Z" fill="#00003C"/>
<path d="M149.268 68.8701C149.268 73.1478 146.154 76.4383 141.891 76.4383C140.088 76.4383 138.613 75.7802 137.465 74.793L136.973 75.9447H134.187V56.6952H137.957V62.6181C139.105 61.7955 140.416 61.4664 141.891 61.4664C146.154 61.4664 149.268 64.5924 149.268 68.8701ZM145.334 68.8701C145.334 66.5667 143.695 64.9215 141.4 64.9215C139.105 64.9215 137.465 66.5667 137.465 68.8701C137.465 71.0089 139.105 72.8187 141.4 72.8187C143.695 72.8187 145.334 71.1734 145.334 68.8701Z" fill="#00003C"/>
<path d="M165.826 70.0217H155.17C155.498 71.996 156.809 72.9832 158.612 72.9832C159.924 72.9832 161.071 72.3251 161.563 71.3379H165.662C164.678 74.4639 161.891 76.4382 158.612 76.4382C154.35 76.4382 151.235 73.1477 151.235 68.8701C151.235 64.5924 154.35 61.3019 158.612 61.3019C163.039 61.3019 165.989 64.5924 165.989 68.7055C165.826 69.1991 165.826 69.6927 165.826 70.0217ZM155.17 67.3893H162.055C161.563 65.5795 160.252 64.7569 158.612 64.7569C156.809 64.7569 155.662 65.7441 155.17 67.3893Z" fill="#00003C"/>
<path d="M176.973 61.7954V65.415H175.334C173.202 65.415 172.383 66.4022 172.383 68.7055V76.1092H168.612V61.96H171.071L171.727 63.7698C172.711 62.4536 174.022 61.96 175.825 61.96H176.973V61.7954Z" fill="#00003C"/>
<path d="M192.219 67.3893V75.9446H188.449V68.0474C188.449 65.9086 187.629 64.9214 185.99 64.9214C184.023 64.9214 182.875 66.4021 182.875 68.7055V76.1092H179.104V61.9599H181.727L182.547 63.7697C183.695 62.4535 185.334 61.6309 187.301 61.6309C190.252 61.4664 192.219 63.7697 192.219 67.3893Z" fill="#00003C"/>
<path d="M209.433 70.0217H198.777C199.105 71.996 200.417 72.9832 202.22 72.9832C203.531 72.9832 204.679 72.3251 205.171 71.3379H209.269C208.285 74.4639 205.498 76.4382 202.22 76.4382C197.958 76.4382 194.843 73.1477 194.843 68.8701C194.843 64.5924 197.958 61.3019 202.22 61.3019C206.646 61.3019 209.597 64.5924 209.597 68.7055C209.433 69.1991 209.433 69.6927 209.433 70.0217ZM198.777 67.3893H205.662C205.171 65.5795 203.859 64.7569 202.22 64.7569C200.417 64.7569 199.269 65.7441 198.777 67.3893Z" fill="#00003C"/>
<path d="M220.744 72.6541V76.1092H217.957C214.842 76.1092 212.875 74.1348 212.875 71.0089V64.9214H210.416V64.0988L215.99 58.1758H216.646V61.9599H220.58V65.0859H216.809V70.6798C216.809 71.996 217.629 72.8186 218.941 72.8186H220.744V72.6541Z" fill="#00003C"/>
<path d="M236.974 70.0217H226.318C226.646 71.996 227.958 72.9832 229.761 72.9832C231.072 72.9832 232.22 72.3251 232.712 71.3379H236.81C235.826 74.4639 233.04 76.4382 229.761 76.4382C225.499 76.4382 222.384 73.1477 222.384 68.8701C222.384 64.5924 225.499 61.3019 229.761 61.3019C234.187 61.3019 237.138 64.5924 237.138 68.7055C236.974 69.1991 236.974 69.6927 236.974 70.0217ZM226.318 67.3893H233.203C232.712 65.5795 231.4 64.7569 229.761 64.7569C227.958 64.7569 226.81 65.7441 226.318 67.3893Z" fill="#00003C"/>
<path d="M244.678 76.4382C241.071 76.4382 238.776 74.4639 238.776 71.3379H242.547C242.547 72.6541 243.53 73.3122 244.842 73.3122C245.826 73.3122 246.809 72.8187 246.809 71.8315C246.809 70.8443 245.662 70.5153 244.022 70.3508C241.727 70.0217 238.94 69.3636 238.94 66.0731C238.94 63.4407 241.235 61.4664 244.678 61.4664C248.121 61.4664 250.416 63.4407 250.416 66.2376H246.809C246.809 65.0859 245.989 64.5924 244.678 64.5924C243.53 64.5924 242.711 65.0859 242.711 65.9086C242.711 66.8957 243.858 67.0603 245.334 67.3893C247.629 67.8829 250.58 68.3765 250.58 71.8315C250.744 74.6284 248.285 76.4382 244.678 76.4382Z" fill="#00003C"/>
<path d="M273.53 63.9343C273.53 67.5538 270.744 70.3508 266.973 70.3508H263.858V76.1092H259.924V57.6823H266.973C270.744 57.6823 273.53 60.3147 273.53 63.9343ZM269.596 63.9343C269.596 62.4535 268.612 61.3019 266.973 61.3019H264.022V66.5667H266.973C268.448 66.5667 269.596 65.415 269.596 63.9343Z" fill="#00003C"/>
<path d="M275.826 56.6952H279.597V76.1092H275.826V56.6952Z" fill="#00003C"/>
<path d="M297.63 61.7955V75.9447H294.679L294.351 74.6285C293.203 75.6157 291.564 76.2738 289.761 76.2738C285.499 76.2738 282.384 72.9833 282.384 68.7056C282.384 64.4279 285.499 61.1374 289.761 61.1374C291.564 61.1374 293.203 61.7955 294.351 62.9472L294.843 61.631L297.63 61.7955ZM293.859 68.8701C293.859 66.5668 292.22 64.9215 289.925 64.9215C287.63 64.9215 285.99 66.5668 285.99 68.8701C285.99 71.1735 287.63 72.8187 289.925 72.8187C292.22 72.8187 293.859 71.1735 293.859 68.8701Z" fill="#00003C"/>
<path d="M319.76 65.2505H316.154V76.1092H312.383V65.2505H305.99V70.5154C305.99 71.8316 306.81 72.6542 308.121 72.6542H309.597V76.1092H307.138C304.023 76.1092 302.056 74.1349 302.056 71.0089V65.2505H299.433V64.4279L305.006 58.1759H305.662V62.1246H312.219V60.6438C312.219 57.8469 313.695 56.2016 316.646 56.2016H319.433V59.1631H317.301C316.318 59.1631 315.826 59.6567 315.826 60.6438V61.96H319.433V65.2505H319.76Z" fill="#00003C"/>
<path d="M320.908 68.8701C320.908 64.5924 324.187 61.3019 328.613 61.3019C333.039 61.3019 336.318 64.4279 336.318 68.8701C336.318 73.1477 333.039 76.4382 328.613 76.4382C324.187 76.4382 320.908 73.1477 320.908 68.8701ZM332.384 68.8701C332.384 66.5667 330.744 64.9214 328.613 64.9214C326.482 64.9214 324.843 66.5667 324.843 68.8701C324.843 71.1734 326.482 72.8187 328.613 72.8187C330.744 72.8187 332.384 71.1734 332.384 68.8701Z" fill="#00003C"/>
<path d="M347.465 61.7954V65.415H345.826C343.695 65.415 342.875 66.4022 342.875 68.7055V76.1092H339.104V61.96H341.564L342.219 63.7698C343.203 62.4536 344.514 61.96 346.318 61.96H347.465V61.7954Z" fill="#00003C"/>
<path d="M370.58 67.0603V75.9446H366.81V67.7184C366.81 65.744 365.99 64.7569 364.679 64.7569C363.039 64.7569 361.892 66.0731 361.892 68.2119V75.9446H358.121V67.7184C358.121 65.744 357.465 64.7569 355.99 64.7569C354.187 64.7569 353.203 66.0731 353.203 68.2119V75.9446H349.433V61.7954H352.056L352.711 63.6052C353.695 62.289 355.334 61.4664 356.974 61.4664C358.777 61.4664 360.252 62.289 361.072 63.7697C362.056 62.4535 363.695 61.4664 365.498 61.4664C368.449 61.4664 370.58 63.7697 370.58 67.0603Z" fill="#00003C"/>
</svg>
