<svg xmlns="http://www.w3.org/2000/svg" width="636" height="660" viewBox="0 0 636 660">
  <defs>
    <linearGradient id="colorpositive-a" x1="99.273%" x2="0%" y1="0%" y2="100%">
      <stop offset="0%" stop-color="#0CC"/>
      <stop offset="49.924%" stop-color="#35F"/>
      <stop offset="100%" stop-color="#CE00FF"/>
    </linearGradient>
  </defs>
  <g fill="none" fill-rule="evenodd">
    <path fill="#000" d="M109.887834,597.189189 L102,597.189189 L102,558.810811 L127.44637,558.810811 L127.44637,566.054054 L109.887834,566.054054 L109.887834,574.108108 L126.635976,574.108108 L126.635976,581.351351 L109.887834,581.351351 L109.887834,597.189189 Z M180.632224,589.945946 L180.632224,597.189189 L155.726117,597.189189 L155.726117,558.810811 L163.613951,558.810811 L163.613951,589.945946 L180.632224,589.945946 Z M244.245147,578 C244.245147,589.513514 235.925103,598 224.309456,598 C212.693809,598 204.373765,589.513514 204.373765,578 C204.373765,566.486486 212.693809,558 224.309456,558 C235.925103,558 244.245147,566.486486 244.245147,578 Z M235.925103,578 C235.925103,570.432432 231.116765,565.513514 224.309456,565.513514 C217.502147,565.513514 212.693809,570.432432 212.693809,578 C212.693809,585.567568 217.502147,590.486486 224.309456,590.486486 C231.116765,590.486486 235.925103,585.567568 235.925103,578 Z M296.29645,570.054054 L288.516668,597.189189 L280.196623,597.189189 L268.418898,558.810811 L277.279205,558.810811 L284.410672,585.945946 L284.518724,585.945946 L292.190454,558.810811 L300.726603,558.810811 L308.398333,585.945946 L308.506385,585.945946 L315.637852,558.810811 L324.282054,558.810811 L312.504329,597.189189 L304.184284,597.189189 L296.404502,570.054054 L296.29645,570.054054 Z M356.397666,558.810811 L370.282415,576.702703 L384.221191,558.810811 L387.786924,558.810811 L387.786924,597.189189 L383.843007,597.189189 L383.843007,565.513514 L370.390468,582.594595 L370.174363,582.594595 L356.775849,565.513514 L356.775849,597.189189 L352.831932,597.189189 L352.831932,558.810811 L356.397666,558.810811 Z M425.305162,558.810811 L425.305162,597.189189 L421.361245,597.189189 L421.361245,558.810811 L425.305162,558.810811 Z M482.110776,593.459459 L482.110776,597.189189 L458.933509,597.189189 L458.933509,558.810811 L462.877426,558.810811 L462.877426,593.459459 L482.110776,593.459459 Z M534,593.459459 L534,597.189189 L510.822733,597.189189 L510.822733,558.810811 L514.76665,558.810811 L514.76665,593.459459 L534,593.459459 Z"/>
    <path fill="url(#colorpositive-a)" fill-rule="nonzero" d="M140.472222,289.539683 C134.688574,289.539683 130,284.849332 130,279.063492 C130,273.277652 134.688574,268.587302 140.472222,268.587302 C146.255871,268.587302 150.944444,273.277652 150.944444,279.063492 C150.944444,284.849332 146.255871,289.539683 140.472222,289.539683 Z M496.527778,289.539683 C490.744129,289.539683 486.055556,284.849332 486.055556,279.063492 C486.055556,273.277652 490.744129,268.587302 496.527778,268.587302 C502.311426,268.587302 507,273.277652 507,279.063492 C507,284.849332 502.311426,289.539683 496.527778,289.539683 Z M212.46875,307 C197.286672,307 184.979167,294.687831 184.979167,279.5 C184.979167,264.312169 197.286672,252 212.46875,252 C227.650828,252 239.958333,264.312169 239.958333,279.5 C239.958333,294.687831 227.650828,307 212.46875,307 Z M424.53125,307 C409.349172,307 397.041667,294.687831 397.041667,279.5 C397.041667,264.312169 409.349172,252 424.53125,252 C439.713328,252 452.020833,264.312169 452.020833,279.5 C452.020833,294.687831 439.713328,307 424.53125,307 Z M220.776771,130.289009 C217.884946,125.280222 219.609499,118.870653 224.628667,115.972835 C229.647835,113.075017 236.060961,114.786295 238.952786,119.795082 C241.84461,124.803868 240.120057,131.213438 235.100889,134.111256 C230.081721,137.009074 223.668595,135.297796 220.776771,130.289009 Z M398.804548,438.642165 C395.912724,433.633379 397.637277,427.223809 402.656445,424.325991 C407.675613,421.428173 414.088739,423.139451 416.980563,428.148238 C419.872388,433.157025 418.147835,439.566594 413.128667,442.464412 C408.109499,445.36223 401.696373,443.650952 398.804548,438.642165 Z M241.628355,201.38477 C234.037317,188.236705 238.564268,171.411586 251.739583,163.804813 C264.914899,156.198041 281.749356,160.690147 289.340395,173.838212 C296.931433,186.986276 292.404482,203.811396 279.229167,211.418168 C266.053851,219.024941 249.219394,214.532835 241.628355,201.38477 Z M347.659605,385.036282 C340.068567,371.888217 344.595518,355.063098 357.770833,347.456326 C370.946149,339.849553 387.780606,344.341659 395.371645,357.489724 C402.962683,370.637789 398.435732,387.462908 385.260417,395.069681 C372.085101,402.676453 355.250644,398.184347 347.659605,385.036282 Z M398.804548,120.232329 C401.696373,115.223542 408.109499,113.512264 413.128667,116.410082 C418.147835,119.3079 419.872388,125.717469 416.980563,130.726256 C414.088739,135.735043 407.675613,137.446321 402.656445,134.548503 C397.637277,131.650685 395.912724,125.241115 398.804548,120.232329 Z M220.776771,428.585485 C223.668595,423.576698 230.081721,421.86542 235.100889,424.763238 C240.120057,427.661056 241.84461,434.070626 238.952786,439.079412 C236.060961,444.088199 229.647835,445.799477 224.628667,442.901659 C219.609499,440.003841 217.884946,433.594272 220.776771,428.585485 Z M347.659605,173.838212 C355.250644,160.690147 372.085101,156.198041 385.260417,163.804813 C398.435732,171.411586 402.962683,188.236705 395.371645,201.38477 C387.780606,214.532835 370.946149,219.024941 357.770833,211.418168 C344.595518,203.811396 340.068567,186.986276 347.659605,173.838212 Z M241.628355,357.489724 C249.219394,344.341659 266.053851,339.849553 279.229167,347.456326 C292.404482,355.063098 296.931433,371.888217 289.340395,385.036282 C281.749356,398.184347 264.914899,402.676453 251.739583,395.069681 C238.564268,387.462908 234.037317,370.637789 241.628355,357.489724 Z M147,197 C137.611159,197 130,189.388841 130,180 C130,170.611159 137.611159,163 147,163 C156.388841,163 164,170.611159 164,180 C164,189.388841 156.388841,197 147,197 Z M490,197 C480.611159,197 473,189.388841 473,180 C473,170.611159 480.611159,163 490,163 C499.388841,163 507,170.611159 507,180 C507,189.388841 499.388841,197 490,197 Z M490,395 C480.611159,395 473,387.388841 473,378 C473,368.611159 480.611159,361 490,361 C499.388841,361 507,368.611159 507,378 C507,387.388841 499.388841,395 490,395 Z M147,395 C137.611159,395 130,387.388841 130,378 C130,368.611159 137.611159,361 147,361 C156.388841,361 164,368.611159 164,378 C164,387.388841 156.388841,395 147,395 Z M319,495 C309.611159,495 302,487.388841 302,478 C302,468.611159 309.611159,461 319,461 C328.388841,461 336,468.611159 336,478 C336,487.388841 328.388841,495 319,495 Z M319,97 C309.611159,97 302,89.3888407 302,80 C302,70.6111593 309.611159,63 319,63 C328.388841,63 336,70.6111593 336,80 C336,89.3888407 328.388841,97 319,97 Z M318.5,323 C293.923329,323 274,303.076671 274,278.5 C274,253.923329 293.923329,234 318.5,234 C343.076671,234 363,253.923329 363,278.5 C363,303.076671 343.076671,323 318.5,323 Z"/>
  </g>
</svg>
