<svg id="flows._network-logo" data-name="flows. network-logo" xmlns="http://www.w3.org/2000/svg" xmlns:xlink="http://www.w3.org/1999/xlink" width="4604" height="1172" viewBox="0 0 4604 1172">
  <defs>
    <style>
      .cls-1, .cls-2 {
        fill-rule: evenodd;
      }

      .cls-1 {
        fill: url(#linear-gradient);
      }
    </style>
    <linearGradient id="linear-gradient" x1="1123.374" y1="1002.25" x2="262.499" y2="141.375" gradientUnits="userSpaceOnUse">
      <stop offset="0" stop-color="#b20eec"/>
      <stop offset="1" stop-color="#703bfb"/>
    </linearGradient>
  </defs>
  <path id="logo" class="cls-1" d="M1135.04,587.152c-90.75,2.545-170.556,45.118-222.38,111.49,0,0-1.921,2.194-3.064,3.346a269.525,269.525,0,0,1-410.652,46.52,292.163,292.163,0,0,0,95.24,13.059c90.748-2.545,170.835-45.234,222.659-111.605l0.631-.571,2.063-2.5a269.511,269.511,0,0,1,410.753-46.681A292.092,292.092,0,0,0,1135.04,587.152ZM695,200.259c-152.751,0-283.89,92.477-340.532,224.493A229.428,229.428,0,0,0,281.4,457.5C331.472,275.273,498.31,141.388,696.444,141.388,908.678,141.388,1085.02,295,1120.39,497.1c-22.54-5.808-48.02-7.85-64.14-8.562C1018.88,323.5,871.337,200.259,695,200.259ZM577.737,513.784l2.167,1.675,0.627,0.353c55.113,45.119,129.139,65.436,204.49,50.646a247.129,247.129,0,0,0,76.153-28.5A227.975,227.975,0,0,1,513.682,576c-1.157-.737-3.151-2.191-3.151-2.191-55.113-45.119-128.89-65.391-204.242-50.6a247.092,247.092,0,0,0-76.16,28.506A227.968,227.968,0,0,1,577.737,513.784Zm-74.531,94.188,2.167,1.675L506,610c55.113,45.118,129.139,65.436,204.49,50.646a247.154,247.154,0,0,0,76.153-28.5A227.976,227.976,0,0,1,439.151,670.19C437.993,669.453,436,668,436,668c-55.113-45.119-128.89-65.392-204.242-50.6A247.133,247.133,0,0,0,155.6,645.9,227.967,227.967,0,0,1,503.206,607.972ZM334.049,654.189C371.919,818.546,519.147,941.1,695,941.1c178.523,0,327.533-126.306,362.583-294.431,22.99-10.44,47.22-14.849,65.36-16.667-28.41,210.193-208.517,372.242-426.5,372.242-211.116,0-386.715-152-423.375-352.531C289.752,648.417,313.449,648.225,334.049,654.189Z"/>
  <path id="flows._network" data-name="flows. network" class="cls-2" d="M4388.51,733.373h-67.15l-81.74-101.025-41.07,38.844v62.181h-55.23v-327.8h55.23v197.7l114.42-105.809h66.26l-98.44,98.854ZM4109.75,546.279q-3.1-.217-6.19-0.221-31.365,0-49.92,18.334t-18.55,54.56V733.373h-55.23V497.462h52.58V532.01a74.109,74.109,0,0,1,27.17-24.828q22.74-12.363,56.76-12.37v52.572A39.72,39.72,0,0,0,4109.75,546.279Zm-221.55,174.5q-28.5,15.685-65.16,15.683-36.24,0-64.5-15.683a117.073,117.073,0,0,1-44.62-43.074q-16.35-27.387-16.35-62.291,0-35.338,16.35-62.512a116.058,116.058,0,0,1,44.62-42.632q28.26-15.459,64.5-15.462,36.66,0,65.16,15.462a114.679,114.679,0,0,1,44.62,42.411q16.125,26.952,16.12,62.733,0,34.9-16.12,62.291A115.136,115.136,0,0,1,3888.2,720.783Zm-3.98-144.9a62.832,62.832,0,0,0-24.96-25.4q-15.9-8.832-35.78-8.836-20.325,0-36.01,8.836a64.831,64.831,0,0,0-24.96,25.4q-9.27,16.567-9.27,39.54,0,22.53,9.27,39.318a64.382,64.382,0,0,0,24.96,25.624q15.675,8.842,35.57,8.835,20.31,0,36.22-8.835a62.423,62.423,0,0,0,24.96-25.624q9.06-16.783,9.06-39.318Q3893.28,592.451,3884.22,575.878Zm-323.16,157.5-60.82-162.584-61.99,162.584h-53.01l-86.59-235.911h52.13l62.13,174.206,65.1-174.206h46.39l63.46,174.811,64.21-174.811h49.04l-87.03,235.911h-53.02Zm-321.83-51.688q8.61,9.278,24.08,9.277,18.555,0,30.92-9.719l15.46,39.319a64.908,64.908,0,0,1-23.85,11.928,107.271,107.271,0,0,1-29.16,3.976q-38.88,0-60.08-20.1t-21.21-59.42V543.408h-38.87V499.23h38.87v-53.9h55.22v53.9h63.18v44.178h-63.18V655.62Q3230.61,672.414,3239.23,681.685ZM3136.74,624.7q-0.225,4.422-.66,8.394h-185.1a67.916,67.916,0,0,0,8.38,22.531,64.776,64.776,0,0,0,27.39,25.181q17.67,8.842,40.65,8.836,19.875,0,35.78-6.185a76.135,76.135,0,0,0,28.28-19.438l29.6,34.017a104.036,104.036,0,0,1-39.99,28.5q-24.075,9.939-55,9.94-39.315,0-68.69-15.683t-45.51-43.074q-16.125-27.387-16.12-62.291,0-35.338,15.68-62.512a112.545,112.545,0,0,1,43.3-42.632q27.6-15.459,62.95-15.462,34.455,0,61.41,15.02a108.877,108.877,0,0,1,42.41,42.411q15.45,27.4,15.46,64.5C3136.96,619.1,3136.88,621.755,3136.74,624.7Zm-59.86-52.572a64.775,64.775,0,0,0-24.08-24.3q-15.24-8.832-35.12-8.835-20.325,0-35.56,8.835a62.611,62.611,0,0,0-23.86,24.519,69.583,69.583,0,0,0-7.76,24.077h134.22A63.858,63.858,0,0,0,3076.88,572.123Zm-265.07,33.134q0-31.364-14.8-46.829t-41.31-15.462q-19.44,0-34.45,7.952a54.51,54.51,0,0,0-23.2,23.635q-8.175,15.687-8.17,39.539V733.373h-55.22V497.462h52.57V528.04a85.172,85.172,0,0,1,26.73-21.079q23.625-12.146,54.56-12.149,28.26,0,50.58,11.044t35.12,33.8q12.81,22.76,12.81,58.536V733.373h-55.22V605.257ZM2466.79,736.466a35.277,35.277,0,0,1-25.62-10.382q-10.605-10.375-10.6-26.286,0-16.784,10.6-26.728a37.987,37.987,0,0,1,51.24,0q10.605,9.94,10.61,26.728,0,15.9-10.61,26.286A35.261,35.261,0,0,1,2466.79,736.466Zm-160.36-146.23a261.68,261.68,0,0,0,28.49,5.081,252.96,252.96,0,0,1,31.15,5.964,131.628,131.628,0,0,1,28.49,10.824,54.991,54.991,0,0,1,20.98,19.217q7.965,12.374,7.96,32.25,0,22.1-13.04,38.435t-36.88,25.4q-23.865,9.049-56.99,9.057a206.573,206.573,0,0,1-56.77-7.731q-27.18-7.725-43.08-18.776l21.21-41.969q15.9,10.167,37.99,16.787a153.066,153.066,0,0,0,44.18,6.627q26.055,0,37.77-7.068t11.71-19q0-9.712-7.95-14.8t-20.77-7.731q-12.81-2.65-28.49-4.859t-31.37-5.964a107.977,107.977,0,0,1-28.49-11.045,59.017,59.017,0,0,1-20.77-19.659q-7.95-12.363-7.95-32.692,0-22.53,12.81-39.1t36.01-25.623q23.19-9.05,55-9.056a225.394,225.394,0,0,1,48.15,5.3q24.3,5.3,40.21,15.021L2394.78,557.1a112.016,112.016,0,0,0-33.8-13.916,156.617,156.617,0,0,0-33.79-3.755q-25.185,0-37.33,7.51-12.165,7.516-12.15,19,0,10.6,7.95,15.9T2306.43,590.236ZM2087.75,733.373L2026.92,570.79l-61.99,162.583h-53.01l-86.59-235.911h52.13l62.14,174.206,65.09-174.206h46.39l63.47,174.811,64.2-174.811h49.04l-87.03,235.911h-53.01Zm-275.01-55.664a115.068,115.068,0,0,1-44.62,43.074q-28.485,15.685-65.16,15.683-36.225,0-64.5-15.683a117.073,117.073,0,0,1-44.62-43.074q-16.35-27.387-16.34-62.291,0-35.338,16.34-62.512a116.058,116.058,0,0,1,44.62-42.632q28.275-15.459,64.5-15.462,36.66,0,65.16,15.462a114.611,114.611,0,0,1,44.62,42.411q16.125,26.952,16.13,62.733Q1828.87,650.322,1812.74,677.709Zm-48.59-101.831a62.894,62.894,0,0,0-24.96-25.4q-15.915-8.832-35.79-8.836-20.325,0-36,8.836a64.7,64.7,0,0,0-24.96,25.4q-9.285,16.567-9.28,39.54,0,22.53,9.28,39.318a64.252,64.252,0,0,0,24.96,25.624q15.675,8.842,35.56,8.835,20.31,0,36.23-8.835a62.485,62.485,0,0,0,24.96-25.624q9.045-16.783,9.05-39.318Q1773.2,592.451,1764.15,575.878Zm-272.8-170.306h55.23v327.8h-55.23v-327.8Zm-52.57,43.957a55.772,55.772,0,0,0-16.34-2.43q-17.235,0-26.07,9.5t-8.83,28.5V499.23h64.94v44.178H1389.3V733.373h-55.22V543.408H1295.2V499.23h38.88V484.209q0-37.11,21.87-59.42t62.51-22.309a119.53,119.53,0,0,1,27.61,3.092q13.02,3.1,21.87,9.719l-15.02,41.528A43.13,43.13,0,0,0,1438.78,449.529Z"/>
</svg>
