<svg width="458" height="160" viewBox="0 0 458 160" fill="none" xmlns="http://www.w3.org/2000/svg">
<rect y="120" width="40" height="40" fill="#1B1B1B"/>
<rect x="39.9999" y="80" width="79.9999" height="40" fill="#1B1B1B"/>
<path d="M39.375 0H120V40L40 80H0V40L39.375 0Z" fill="#1B1B1B"/>
<path d="M168.496 40.007H215.284V52.5931H174.703V75.1773H212.932V87.7633H174.703V119.993H160V48.442L168.496 40.007Z" fill="#1B1B1B"/>
<path d="M227.832 40.007H242.536V107.407H278.765V119.993H236.56L227.832 111.558V40.007Z" fill="#1B1B1B"/>
<path d="M320.842 121.875C313.157 121.875 306.178 120.071 299.904 116.464C293.709 112.857 288.808 107.877 285.201 101.526C281.594 95.1738 279.79 87.9986 279.79 80C279.79 72.2367 281.554 65.1791 285.083 58.8272C288.612 52.397 293.474 47.3391 299.669 43.6534C305.942 39.9678 313 38.125 320.842 38.125C328.527 38.125 335.506 39.9286 341.779 43.5358C348.052 47.143 352.993 52.1225 356.6 58.4744C360.207 64.8262 362.011 72.0014 362.011 80C362.011 87.7633 360.246 94.8601 356.718 101.29C353.189 107.642 348.288 112.661 342.014 116.347C335.741 120.032 328.683 121.875 320.842 121.875ZM320.842 108.466C325.86 108.466 330.369 107.25 334.369 104.819C338.368 102.388 341.465 99.0163 343.661 94.7033C345.935 90.3903 347.072 85.4892 347.072 80C347.072 74.5108 345.935 69.6097 343.661 65.2967C341.465 60.9837 338.368 57.6118 334.369 55.1808C330.369 52.7499 325.86 51.5344 320.842 51.5344C315.823 51.5344 311.314 52.7499 307.315 55.1808C303.315 57.6118 300.179 60.9837 297.905 65.2967C295.709 69.6097 294.611 74.5108 294.611 80C294.611 85.4892 295.709 90.3903 297.905 94.7033C300.179 99.0163 303.315 102.388 307.315 104.819C311.314 107.25 315.823 108.466 320.842 108.466Z" fill="#1B1B1B"/>
<path d="M409.359 81.2941L436.013 120H418.945L399.773 92.1176L380.951 120H364L391.706 80.3529L364 40H380.834L401.292 69.6471L421.283 40H438L409.359 81.2941Z" fill="#1B1B1B"/>
<rect x="396.674" y="62.9062" width="11.9986" height="28" transform="rotate(-34.6258 396.674 62.9062)" fill="white"/>
<path d="M447.787 43.1525C447.036 43.1525 446.363 43.3273 445.767 43.6769C445.172 44.0135 444.706 44.4861 444.369 45.0946C444.045 45.7031 443.884 46.4022 443.884 47.192C443.884 47.9817 444.045 48.6873 444.369 49.3088C444.706 49.9173 445.172 50.3963 445.767 50.7459C446.363 51.0825 447.036 51.2508 447.787 51.2508C448.434 51.2508 449.023 51.1149 449.554 50.843C450.085 50.5711 450.512 50.1956 450.836 49.7166C451.173 49.2376 451.373 48.6938 451.438 48.0853L449.729 47.9882C449.651 48.519 449.431 48.9463 449.069 49.2699C448.719 49.5936 448.292 49.7554 447.787 49.7554C447.36 49.7554 446.978 49.6454 446.641 49.4253C446.305 49.2052 446.046 48.9074 445.864 48.532C445.683 48.1436 445.593 47.6969 445.593 47.192C445.593 46.7 445.683 46.2598 445.864 45.8714C446.046 45.483 446.305 45.1852 446.641 44.9781C446.978 44.758 447.36 44.6479 447.787 44.6479C448.266 44.6479 448.68 44.7968 449.03 45.0946C449.379 45.3924 449.587 45.7808 449.651 46.2598L451.36 46.1627C451.309 45.5801 451.121 45.0622 450.797 44.6091C450.474 44.143 450.053 43.7869 449.535 43.541C449.017 43.282 448.434 43.1525 447.787 43.1525ZM447.709 54.358C446.415 54.358 445.217 54.0408 444.117 53.4064C443.016 52.7591 442.142 51.8852 441.495 50.7847C440.86 49.6842 440.543 48.4866 440.543 47.192C440.543 45.8973 440.86 44.6997 441.495 43.5992C442.142 42.4987 443.016 41.6313 444.117 40.9969C445.217 40.3496 446.415 40.0259 447.709 40.0259C449.004 40.0259 450.202 40.3496 451.302 40.9969C452.403 41.6313 453.27 42.4987 453.904 43.5992C454.552 44.6997 454.875 45.8973 454.875 47.192C454.875 48.4866 454.552 49.6842 453.904 50.7847C453.27 51.8852 452.403 52.7591 451.302 53.4064C450.202 54.0408 449.004 54.358 447.709 54.358ZM447.709 52.6685C448.693 52.6685 449.6 52.4225 450.428 51.9305C451.27 51.4385 451.936 50.7718 452.428 49.9302C452.92 49.0887 453.166 48.1759 453.166 47.192C453.166 46.208 452.92 45.2952 452.428 44.4537C451.936 43.6122 451.27 42.9454 450.428 42.4534C449.6 41.9614 448.693 41.7154 447.709 41.7154C446.725 41.7154 445.813 41.9614 444.971 42.4534C444.142 42.9454 443.482 43.6122 442.99 44.4537C442.511 45.2952 442.272 46.208 442.272 47.192C442.272 48.1759 442.511 49.0887 442.99 49.9302C443.482 50.7718 444.142 51.4385 444.971 51.9305C445.813 52.4225 446.725 52.6685 447.709 52.6685Z" fill="#1B1B1B"/>
</svg>
