<?xml version="1.0" encoding="UTF-8"?>
<svg id="Layer_1" xmlns="http://www.w3.org/2000/svg" version="1.1" viewBox="0 0 1441.2 495.5">
  <!-- Generator: Adobe Illustrator 30.3.0, SVG Export Plug-In . SVG Version: 2.1.3 Build 182)  -->
  <defs>
    <style>
      .st0 {
        fill: #73a7da;
      }

      .st1 {
        fill: #6e9fd5;
      }

      .st2 {
        fill: #b80008;
      }

      .st3 {
        fill: #e00011;
      }

      .st4 {
        fill: #fff;
      }

      .st5 {
        fill: #5b81c3;
      }

      .st6 {
        fill: #d5000f;
      }

      .st7 {
        fill: #618bc9;
      }

      .st8 {
        fill: #9a0004;
      }

      .st9 {
        fill: #6997d1;
      }

      .st10 {
        fill: #7bb4e2;
      }

      .st11 {
        fill: #cb000c;
      }

      .st12 {
        fill: #75aadc;
      }

      .st13 {
        fill: #740001;
      }

      .st14 {
        fill: #5375bc;
      }

      .st15 {
        fill: #c1000a;
      }

      .st16 {
        fill: #8e0003;
      }

      .st17 {
        fill: #6794cf;
      }

      .st18 {
        fill: #2b3696;
      }

      .st19 {
        fill: #23298e;
      }

      .st20 {
        fill: #83c1ea;
      }

      .st21 {
        fill: #a90006;
      }

      .st22 {
        fill: #394da3;
      }

      .st23 {
        fill: #7f7f7f;
      }

      .st24 {
        fill: #33429d;
      }

      .st25 {
        fill: #181c62;
      }

      .st26 {
        fill: #4b68b4;
      }

      .st27 {
        fill: #425bac;
      }

      .st28 {
        fill: #810002;
      }

      .st29 {
        fill: #7ab2e1;
      }

      .st30 {
        fill: #8bcdf1;
      }

      .st31 {
        fill: #d8000f;
      }
    </style>
  </defs>
  <path class="st31" d="M251.7,0c13.2.2,26.2,1.7,39.3,3.5-4.5.1-8.9.1-13.4.1-32.9.2-65.6,8-95.1,22.5-17,8.3-32.6,19-47,31.1-5.2,1.6-8.1,5.4-12,8.9,2.9-7,7.3-12.8,10.8-19.4,3.1-5.8,6.6-11.3,9.7-17.2,1.7-3,3-6.2,6.3-7.6,3.5-1.5,6.8-3,9.6-5.8C189.1,4.9,220.6-.4,251.7,0h0Z"/>
  <path class="st3" d="M160,16.2c-2.8,2.8-6,4.3-9.6,5.8-3.3,1.4-4.7,4.6-6.3,7.6-3,5.9-6.5,11.4-9.7,17.2-3.5,6.6-8,12.4-10.8,19.4,3.9-3.5,6.8-7.3,12-8.9-9.9,9-19.4,18.5-27.7,29-22.4,28-37.6,61.5-44,96.7-4,21.1-4.5,42.5-2.5,63.9-.2-.4-.4-.8-.7-1.2-1.1-6.2-2.2-12.3-2.1-18.7,0-5.7.1-11.5-.2-17.2-5.1,7.5-9,15.5-13.7,23.2-10.2,16.9-19.7,34.2-29.8,51.2-2.2,4.1-4.9,8-6.8,12.3-1.3,2.8,0,6.6.7,9.5.9,3.3,1,6.6.8,9.9-13.8-46.9-12.5-98.2,2.5-144.6,12.6-39,35.1-74.7,64.9-103,23.8-22.6,52.2-40.7,83-52.2h0Z"/>
  <path class="st0" d="M308.8,26.9c-3.8,0-7.6.3-11.4.6,3.6.5,7.6.5,10.9,1.8,1.7,1.6,2.9,4,4,6,3.1,5.9,6.8,11.2,10.3,16.9-2.5-.2-5.1-.4-7.6-.6-13.8-4.6-27.3-7.7-41.8-9.5,1.7-.5,3.4-1,5-1.5-1.8-3.4-3.4-7.4-6.1-10.1-2.6-1.6-6.1-2.1-9-2.7,15.1-2.1,30.5-2,45.6-1h0Z"/>
  <path class="st29" d="M297.4,27.5c3.8-.4,7.6-.7,11.4-.6,7.1.6,14.5,1.6,21.5,3,4.2,2,9.3,3.6,11.7,7.9,4.1,7,7.9,14.1,11.9,21.1,3,5.3,6.8,10.2,9.8,15.5-8.1-3.9-14.5-9.6-23.4-11.9-8.2-4-16.5-7.6-25.1-10.8,2.5.3,5.1.4,7.6.6-3.5-5.7-7.2-11-10.3-16.9-1.2-2-2.3-4.4-4-6-3.4-1.3-7.4-1.3-10.9-1.8h0Z"/>
  <path class="st9" d="M263.2,27.9c2.9.6,6.4,1,9,2.7,2.7,2.7,4.3,6.7,6.1,10.1-1.7.5-3.3,1-5,1.5-10.6-1-21-1.6-31.7-.8-17.8.7-34.8,4.6-51.7,9.7,22.6-12.2,47.8-19.9,73.3-23.2h0Z"/>
  <path class="st20" d="M330.3,29.9c20,3.5,40.9,10.6,58.8,20,6.1,6.7,14.6,7.7,19.7,15.1,5.6,8.1,10.2,17.1,15.3,25.5,4,7,7.6,14.2,12.1,20.9,3,4.5,5.3,9.3,8.1,14,2.2,3.7,5.2,6.7,7.7,10.2,10.9,17.1,20.5,34.8,30.9,52.2,6.3,11,12.6,22,19,33,1.9,3.2,3.3,6.5,3.4,10.3.2,8.3,0,16.7.4,25,.5-.7,1.1-1.3,1.6-2-1.1,17.2-3.7,34.6-8.9,51,0-3.4.4-6.7.6-10.1.3-2.8-1.4-5.2-2.7-7.6-9.1-15-17.8-30.3-26.5-45.6-4.8-7-9.7-13.7-13.8-21.2-1.6-2.7-3-5.8-4.9-8.2-1.2-1.4-3.7-1.7-5.4-2.3-1,2.4-1.9,4.8-2.6,7.3-3.3-41.3-20.4-81.1-47.9-112-15.5-17.7-34.4-31.9-55.1-43,8.9,2.3,15.3,8,23.4,11.9-3-5.3-6.8-10.1-9.8-15.5-3.9-7-7.8-14.1-11.9-21.1-2.3-4.3-7.5-5.9-11.7-7.9h0Z"/>
  <path class="st30" d="M389.2,49.9c50.7,25.2,89.8,71.5,107.6,125.1,8.4,25.3,12.2,52.3,10.7,79-.6.7-1.1,1.4-1.6,2-.5-8.3-.2-16.7-.4-25,0-3.8-1.5-7.1-3.4-10.3-6.4-10.9-12.7-21.9-19-33-10.4-17.4-20-35.1-30.9-52.2-2.5-3.5-5.5-6.5-7.7-10.2-2.7-4.6-5.1-9.4-8.1-14-4.5-6.7-8.1-13.9-12.1-20.9-5.2-8.5-9.7-17.4-15.3-25.5-5.1-7.4-13.5-8.4-19.7-15.1h0Z"/>
  <path d="M889.3,86.1c2.9,6,5.8,12,8,18.2,26.5,0,52.9,0,79.4,0v18.4h-76.3v12.9c19.1,0,38.3,0,57.4,0,0,9.6,0,19.2,0,28.7,6.9,0,13.8,0,20.7,0,0,5.3,0,10.6,0,15.9-6.9,0-13.8,0-20.7,0,0,9.5,0,19,0,28.5-19.2,0-38.3,0-57.4,0,0,18.8-.1,37.6,0,56.4,0,5.4-.3,10.7-3.1,15.5-2.4,4-6.4,6.1-10.8,7.3-8.1,2.2-17.5,1.5-25.8,1.2-2-6.3-3.9-12.6-5.9-18.8,6.6.6,13.4.7,20,.1,1.6-.2,3.5-.3,4.3-2,.7-1.6.7-3.6.7-5.3,0-18.1,0-36.2,0-54.4h-52c0-5.4,0-10.9,0-16.3h52v-12.2c-22,0-44,0-66,0-.1,14.9-.4,30-1.7,44.8-1.7,22.3-7.4,45.3-18.7,64.7-5.5-4-10.9-8.1-16.5-12,4.6-8.3,7.5-17.2,9.9-26.4,5.7-24.6,6.6-49,6.5-74.2,0-24.2,0-48.5,0-72.7,27,0,54,0,81,0-1.5-3.8-3.3-7.5-5.4-11,6.8-2.3,13.7-4.7,20.5-7.1h0Z"/>
  <path d="M1093.3,87.1c3.3,5.8,6.7,11.6,9.9,17.4-11.2,3.4-22.5,6.3-34.1,8.2,0,9.9,0,19.8,0,29.6,9.7,0,19.3,0,29,0,0,6.5,0,13,0,19.5-9.7,0-19.4,0-29,0,0,2.1-.3,4.6.3,6.5,2.9,3.7,6.5,6.9,9.4,10.6,7.7,8.9,14.6,18.4,21,28.3-4.7,5.2-9.5,10.2-14.3,15.3-4.8-9.8-10-19-16.4-27.8.1,31.6-.1,63.3,0,94.9-6.8,0-13.5,0-20.2,0,0-30-.2-60.1-.2-90.2-8.8,16.2-17.6,31.6-30.7,44.9-3.9-6.1-7.8-12.2-11.7-18.2,17.9-18.2,31.4-41,41.5-64.2-13.1,0-26.2-.1-39.3,0,0-6.5,0-13,0-19.5,13.5,0,27,0,40.5,0,0-8.8,0-17.6,0-26.4-10.1,1.4-20.3,2.5-30.5,3.2-3-6.3-6-12.6-8.9-18.9,18.9-.6,37.8-3,56.4-6.6,9.2-1.5,18.2-4.3,27.3-6.5h0Z"/>
  <path d="M1269,88.5c6.7-.2,13.4,0,20.1,0,0,12.5,0,24.9,0,37.3,7.1,0,14.1,0,21.2,0v19.6h-21.2c0,11.5,0,23,0,34.5,6.9-2.3,13.3-5,19.7-8.4,1.5,6.7,2.8,13.5,4.2,20.2-8,3.4-15.8,7-24,10,0,21.8,0,43.6,0,65.4,0,5.9-.6,11.8-4.7,16.5-4.1,4.2-9.9,5.3-15.5,5.6-6.8.2-13.5,0-20.3-.1-2.2-6.7-4.3-13.4-6.5-20.1,6.9.2,14,.7,20.9.5,4-.3,6.4-3.5,6.2-7.3,0-17.5-.2-35.1-.1-52.6-8.7,2.7-17.4,5.5-26.2,7.8-1.9-6.3-3.6-12.7-5.6-19,10.7-3,21.5-6.5,31.9-10.5,0-14.2,0-28.4,0-42.5-9.7,0-19.5,0-29.2,0v-19.6c9.8,0,19.5,0,29.2,0,0-12.4-.1-24.9,0-37.3h0Z"/>
  <path d="M639.6,89.4c6.2,0,12.3,0,18.5,0,0,25.9,0,51.8,0,77.6,7.4,0,14.8,0,22.2,0v-9.6h-15.8c0-4.3,0-8.6,0-12.9h15.8v-9.3c-4.4,0-8.8,0-13.2,0,0-3.9,0-7.7,0-11.6,4.4,0,8.8,0,13.2,0v-9.1h-15.8c0-4.2,0-8.4,0-12.5h15.8c0-3.6,0-7.3,0-10.9,5.5,0,11.1,0,16.6,0,0,3.6,0,7.2,0,10.9h15.5c0,4.2,0,8.4,0,12.6-5.2,0-10.3,0-15.5,0v9.1h13.3c0,3.9.2,7.8.2,11.6-4.5,0-9,0-13.5,0v9.3c5.1,0,10.2,0,15.3,0,0,4.3,0,8.6,0,12.9h-15.3v9.6c7.7,0,15.5,0,23.2,0,0-24.1,0-48.2,0-72.3,6.3,0,12.5,0,18.8,0,0,28.8,0,57.7,0,86.5-59.7,0-119.5,0-179.2,0,0-29,0-58.1,0-87.1,6.3,0,12.6,0,18.8,0,0,24.3,0,48.6,0,72.9,7.4,0,14.7,0,22.1,0v-9.6c-5.1,0-10.1,0-15.2,0,0-4.3,0-8.6,0-12.9,5,0,10.1,0,15.2,0v-9.3c-4.5,0-9,0-13.5,0,0-3.9,0-7.8,0-11.7,4.5,0,9,0,13.5,0v-9.1h-15.2c0-4.2,0-8.3,0-12.5h15.2c0-3.6,0-7.3,0-10.9,5.7,0,11.4,0,17,0,0,3.6,0,7.3,0,10.9h15c0,4.2,0,8.4,0,12.6-5,0-10,0-15,0,0,3,0,6,0,9.1,4.4,0,8.8,0,13.2,0v11.6h-13.2c0,3.1,0,6.2,0,9.3,5,0,10,0,15,0,0,4.3,0,8.6,0,13-5,0-10,0-15,0,0,3.2,0,6.4,0,9.6,7.4,0,14.7,0,22.1,0,0-25.9,0-51.7,0-77.6h0Z"/>
  <path d="M1167.2,89.5c6.8-.2,13.6,0,20.5-.1,0,41.6,0,83.1,0,124.6,6.9-1,13.8-1.7,20.7-2.7.3,6.7.3,13.5.6,20.2-7.1,1-14.2,2.1-21.3,3.2,0,18.4,0,36.8,0,55.2h-20.5c0-17.5,0-35,0-52.5-23.1,3-46.2,6.1-69.3,9.3-.3-6.8-1.1-13.6-1.6-20.5,23.7-3,47.3-6.4,70.9-9.5,0-42.3-.1-85.1,0-127.3h0Z"/>
  <path d="M1365.9,89.1c7,0,13.9,0,20.8,0v29.3c16.1,0,32.3,0,48.4,0,0,6.5,0,13,0,19.5-16.1,0-32.3,0-48.4,0v29.7c14.2,0,28.4,0,42.7,0,0,4.8-.1,9.7,0,14.5,0,2.4.2,4.5-.8,6.8-9.2,21.4-20.7,41.5-37.5,57.9,14.7,12.2,32.5,21.1,50.2,27.8-3.9,5.8-8,11.6-11.9,17.5-19.2-8.5-37.4-18.5-53.8-31.8-18.2,13.3-38.2,23.6-59.2,31.7-3.8-6.2-7.6-12.4-11.4-18.5,19.5-6.6,39.1-15.1,55.9-27.2-15.1-17.4-24.8-37.6-32.6-59.1h-7.9v-19.5c15.2,0,30.4,0,45.6,0,0-9.9,0-19.8,0-29.7-16.2,0-32.4,0-48.7,0,0-6.5,0-13,0-19.5,16.2,0,32.4,0,48.7,0,0-9.8,0-19.5,0-29.3h0Z"/>
  <path d="M1120.1,97.6c14.5,11.3,27.8,23.9,40.4,37.4-4.7,5-9.3,10-13.9,15.1-12.3-14.1-25.9-26.7-40.9-37.9,4.8-4.9,9.6-9.7,14.4-14.6h0Z"/>
  <path class="st25" d="M157.2,109.6c3.6,1.2,7.8,2.7,9.5,6.5,2.2,3.9,1.4,8,1.4,12.3,4.5-1.4,8.9-3.1,13.3-4.8-.5-3.4-1.6-7.3-1-10.7,1.6-1,3.7-.7,5.3,0,3.5,2.2,6.5,4.7,7.7,8.7,2.5.9,4.7,1.6,5.7,4.3.1,3.8-5.1,2.9-7.7,3.6-.5,2.2-1,4.4-1.5,6.6,2.2.5,4.8.7,6.8,1.8,1,1.2,1.5,3,2.1,4.4-3.1,1-6.4,1.6-9.6,2.3-.3,2.5-.6,4.9-.9,7.4,2.3.1,5.2-.3,7.4.6,1.6,1.4,3.1,3,2.2,5.2-2.6,2.2-7.1,1.9-10.4,2.7-.6,4.2-1.4,8.4-2.1,12.6,1.7-.3,3.5-.7,5.2-.7,2.7.5,5,3,7,4.8.4-2.5.7-5.1,1.4-7.6,3.6-13.4,6.7-27.9,5.3-41.8-.2-1.5.3-4.2,2.2-4.3,4.9-.8,8.3,3,11,6.5,2.7,3.2,3.5,8,2,11.9-5.9,11.6-8.9,25.1-12.6,37.5-1.6,4.9-2.9,9.4-7,12.8-.6-2-1.2-4-1.8-5.9-8.3-2.5-16.8-2.4-25.4-1.6-15.5,1.9-30.1,6.5-44.7,11.9-4.2,1.8-8.6.7-11.8-2.4-.6-1.3-.8-2.9-1.1-4.3-2.3-2.9-5.5-6.1-6.1-9.9-.9-5.7-1-11.5-2.3-17.2-1.3-7-5.9-11.9-5.6-19.4,3.3.7,6.4,1.8,9.2,3.8,5.8,4.1,8.7,10.7,9.6,17.6.7,6.8,2.3,13.5,2.5,20.4,4.8-2.3,9.9-3.3,15.2-4.1-.9-2.6-1.7-5.2-2.4-7.8-1.6.4-3.2.7-4.8,1.1-2.5-1.7-4.9-3.5-7.3-5.5,3.9-1.7,7.8-3.2,11.8-4.7,0-1.9,0-3.7,0-5.6-1.6.6-3.5,1.6-5.2,1.5-3-1.4-5.7-3.5-8.3-5.4,4.6-2,9.4-3.1,13.4-5.9.2-1.8.2-3.7.3-5.5-2.3.5-4.7,1.3-7,1.3-2.8-.6-5.3-3.1-7.4-5,4.6-2.1,9.4-3.1,13.5-6.3-.9-3.8-2.1-7.6-2.5-11.4l1-1.5c3.3.2,7.5,1.2,9.7,3.9,1.6,1.8,1.9,4.3,2.4,6.5,1.4.2,2.9.4,4.2.8,1.5.9,1.6,3,2.1,4.5-2.4.8-4.8,1.6-7.2,2.4-.3,2.5-.6,5-.8,7.5,2.3.1,4.8,0,7.1.6,1.7.5,2,3.2,2.7,4.5-3.1,1.4-6.4,2.4-9.7,3.4,0,2.2,0,4.5,0,6.7,3.5-1.2,6.7-1.8,10,.2,1.4,1,1.2,3,1.5,4.6-3.4.9-7.5,1.4-10.4,3.4-.6,3-.6,6.2-1,9.3,5.1-1.7,10.3-2.6,15.7-3.2-1.9-5-3.1-10.2-2.9-15.6.5-13.1.6-26-1.5-39-.5-3.4-1.6-6.7-2-10.1,1-2,2.8-2,4.7-1.4h0Z"/>
  <path class="st25" d="M360.7,110.3c3.6.6,7.1,2.5,9.3,5.4,2.3,2.5.1,6-1.3,8.4-3.8,5.4-11.9,7.6-18,8.8-8,1.3-16.7,1.8-24.8,1.2,1-1,1.7-2,3.2-2.3,5.7-1.3,11-2.2,16-5.3,1.9-1.2,3-3.2,4.3-4.9-2.5-3.4-5.2-6.8-7.4-10.5,6.1-1.3,12.5-1.9,18.7-.7h0Z"/>
  <path class="st4" d="M813.7,122.8h66v12.9h-52c0,5.8,0,11.5,0,17.2h52v11.5h-66v-41.6h0Z"/>
  <path class="st25" d="M377.6,128.2c4.5,2.9,9.5,7.2,11,12.6-5.8,3.7-12.2,3.6-18.5,5.9,2,2.3,2.9,4.1,3.7,7.1,4-1,8.8-2.9,12.9-1.7,7.8,1.9,14.6,7.2,19.4,13.5,2.6,3.2-1,6.6-2.4,9.5-4.9,9.1-9.8,18.1-15,27,1.3,2,2.4,4.1,3.3,6.4-7.3,2.4-15.4,1.2-23.1,2.2,0,4.5.3,9.1.6,13.6,3.2-2.6,6.3-4.7,9.9-6.5,4.1-2.1,6.9-5.3,10.2-8.3,4.1.8,8.9,1.5,11.4,5.2,1,2.8.2,6.2-.9,8.9-2.8,6.4-7.7,11.7-11.9,17.2,3.8,3,8.5,3.6,12.3,6.5,2.8,2.1,5.5,4.5,7.6,7.4,2.1,3.6,0,7.4-1.2,10.8-8-1.7-15.8-4.4-22.6-9-1.9-1.4-3.8-2.7-4.3-5.2-1.3-5.4-.7-11.3,1.9-16.2,1.6-2.9,3.4-5.7,4.8-8.7-5.1-2.6-9.4,0-13.7,2.9-1.8,1.5-3.5,3.2-3.4,5.8.4,8,.7,16,.7,24,0,6.3.2,14-2.9,19.8-1.1,2.5-3.1,3.3-5.5,4.3-7-8.2-15.2-15.4-22.6-23.2-3.7,2.9-7,6.3-10.8,9-1.9,1.4-3.1,0-4.3-1.5-2.8-4.4-3.4-9.4-3-14.5,2.2-.8,5.2-.8,6.4-3,2.9-4.4,5.9-9.6,6.6-14.9.3-2.8-.7-5-1.6-7.6.5-.6,1-1.2,1.5-1.8,6.1,3,12.2,7.4,11.1,15.1,4.4-3.6,9.1-6.6,14-9.6,0-5.8,0-11.7,0-17.5-4.5,1.8-8,5-12,7.6-5.8,4.1-15.5-1-15-8.2,3.5-.9,6.6-2.2,9.8-4,5.5-3.1,11.3-4.4,17.3-5.9,0-1.5,0-3,0-4.5-2.9,1.1-5.1,2.5-8.3,1.4-4.5-1.4-9.6-3.3-12.5-7.2,3.9-1.4,7.6-2.9,11-5.3,3.1-2.2,6.3-4.1,9.7-5.8,0-1.9,0-3.9,0-5.8-4.5,2.8-9.1,5.1-14.3,5.8-5.1.7-9.8,2.4-14.5,4.6-.4-.8-.8-1.6-1.1-2.3,3.9-4.7,7.5-9.4,12.3-13.3,5.3-4.6,11.3-8.1,17.7-10.9,0-2.5,0-4.9-.3-7.4-1.7,1.7-3.1,3.7-4.5,5.6-.3-1.2-.7-2.3-1-3.5-4.4,2.2-8.6,4.3-12,7.9-7.4,7.8-12.8,18-17.4,27.6-11.7,24.5-17.4,52.2-33.2,74.8-3.5,4.7-7,9.2-12.8,11.1,0-4.2-.1-9.2,1.7-13,2.3-3.1,4.9-5.9,6.6-9.4,12.5-23.5,19.6-50.3,32-74,2.9-5.6,6.7-10.6,10.3-15.9-3.3,1-6.4,2-9.9,2.1-2.9,0-5.6,0-7.8-2-4.2-3.5-8.1-8.9-6.9-14.6.5-2.3,2.8-3.4,4.5-4.7.3,1.7.6,3.3.9,5,9.2,2.1,18.6-.4,27.2-3.5,10.1-3.9,20.2-7.9,29.4-13.6,3.1-1.9,7.9-5,11.6-4.1h0Z"/>
  <path class="st4" d="M168.1,130.7c2.2,1.3,4.3,3.3,6.8,4.2,2.2.3,4.6-1.2,6.6-2-.2,1.9-.4,3.8-.5,5.8-4.4,1.6-8.7,3.2-13.2,4.5,3.7,3,6.4,6.3,11.6,5.8,0,1.8,0,3.6,0,5.4-4.3,1.5-8.2,3.5-12.9,3.8,3.2,3.5,6.4,6.1,11.2,6.7.7,3,1.5,5.9,2.4,8.8-5.4,0-10.6.5-15.9,1.4,2-14.8,1.3-29.6,3.8-44.4h0Z"/>
  <path d="M1113.6,151.7c10.4,7.5,20.4,15.9,29.9,24.6,4.9,4.5,9.1,9.5,13.8,14.3-4.6,5.2-9.3,10.4-13.9,15.6-12-15.3-27.4-28.3-43.2-39.6,4.5-5,8.9-10.1,13.5-15h0Z"/>
  <path class="st4" d="M900.4,152.9h37.3v11.5h-37.3v-11.5h0Z"/>
  <path class="st4" d="M390.7,160.4c-.2,2.5-.6,5.1-1.2,7.6-2.5,10.3-5.3,20-10.9,29.1-3,1-6,2-9,3,0-2.7,0-5.5,0-8.2,4.3-2.1,8.6-3.8,13.1-5.4-.5-2.1-.8-4.6-1.9-6.4-2.6-2.9-6-2.6-9.6-2.9.1-3.3,0-6.7.6-10,.2-1.4,1.3-2,2.3-2.8,5-3.4,10.5-5.9,16.6-3.9h0Z"/>
  <path class="st4" d="M900.4,180.2c12.4,0,24.9,0,37.3,0v12.2h-37.3c0-4.1,0-8.2,0-12.3h0Z"/>
  <path class="st4" d="M1350.3,187.1c18.7,0,37.4,0,56.2,0-3,6.3-5.5,12.6-9.2,18.6-5.6,10.2-12.8,18.9-20.7,27.3-11.8-13.3-20.7-28.9-26.2-45.8h0Z"/>
  <path class="st25" d="M174.7,191.2c3.6-.2,8-.2,11.2,1.6,2.1,1.4,1.9,5.3,2.3,7.5-12.7,1.9-25.1,3.6-37.2,8-4.7,1.8-10,3.7-15,2.3-4.5-1.8-6.6-5.3-9-9.2,4.6-1,9.3-1.2,13.9-2.4,4.7-1.1,9-3.3,13.6-4.6,6.7-2,13.4-2.7,20.3-3.3h0Z"/>
  <path d="M564.8,190.6c56.2,0,112.4,0,168.6,0,0,5,0,9.9,0,14.9-56.2,0-112.4,0-168.6,0,0-4.9,0-9.9,0-14.8h0Z"/>
  <path class="st25" d="M182.9,206.8c3.9,1.7,7,5.4,9,9.1.8,1.8,1.9,4,.5,5.8-2.6,3.8-7.4,7.8-8.4,12.4.6,2,1.7,3.9,2.5,5.9-.7.4-1.4.8-2.1,1.2,2,6.9-3.1,11.1-7.2,15.8,9.6.1,19-1.3,28.5-1.5,3.5,0,6.8-.1,9.8,1.8,5.3,3.1,10,9.6,9.7,15.9-.3,2.5-2.2,2.8-4.3,2.4-11.3-2.3-22.6-5.1-33.9-7.7-21.4-3.7-42.2.7-62.2,8.1-4.3,1.4-8.6,3.8-13.1,4.3-6-2.6-12.4-8.2-11.3-15.4,1.9-.9,4.3-.4,6.4-.5,6.3,0,11.8-3.2,17.8-4.4,4.9-.9,9.9-1.3,14.9-1.6-.2-2.8-.2-5.7-.3-8.5-2-2.1-4.2-4.2-5.7-6.8-1.2-2.5-.9-5.6-1.8-8.2-1.2-3.6-2.2-7.2-2.2-11,.2-4.2,2-8.2,6.2-9.7-.5,1-1,1.9-1.6,2.9,0,1.1,0,2.3,0,3.4,13.4-4.3,26.9-8.4,40.2-13,2.9-1,5.7-2,8.7-.8h0Z"/>
  <path class="st6" d="M58.4,209.8c.3,5.7.3,11.5.2,17.2-.1,6.4,1,12.4,2.1,18.7.2.4.4.8.7,1.2,2.1,16,5.4,31.4,10.5,46.8-1.8-2.3-3.2-4.8-4.7-7.4-7.4,12.7-14.4,25.7-21.9,38.3-4.7,7.7-8.7,15.8-13.6,23.4-1.5,2.6-3.6,5.3-4.2,8.3,1,3.9,2.9,7.5,3.6,11.6-9.1-16.2-16.6-34.1-21.5-51.9.1-3.4,0-6.7-.8-9.9-.6-2.9-2-6.6-.7-9.5,1.8-4.3,4.5-8.2,6.8-12.3,10.1-17,19.6-34.3,29.8-51.2,4.7-7.7,8.6-15.8,13.7-23.2h0Z"/>
  <path class="st10" d="M445.9,210.2c1.7.5,4.2.8,5.4,2.3,2,2.5,3.3,5.5,4.9,8.2,4.1,7.4,9,14.2,13.8,21.2,8.7,15.3,17.4,30.5,26.5,45.6,1.3,2.4,3,4.7,2.7,7.6-.2,3.4-.5,6.7-.6,10.1-2.6,9.3-6.1,18.5-10.1,27.3-.6-6.8-3.9-12.1-7.2-17.8-8.5-14.2-16.2-28.9-25.1-43-3.4-5.2-4.9-11.4-11.2-13.7-1.3,1.7-2.5,3.4-3.6,5.2,2.4-15.1,3-30.4,1.8-45.6.7-2.5,1.6-4.9,2.6-7.3h0Z"/>
  <path d="M954.6,212.2c3.6,5.1,7.1,10.3,10.7,15.4-14.2,7-29.2,11.9-44.8,15.1-3.5-5.6-7.1-11.1-10.6-16.6,15.5-2.8,30.2-7.9,44.7-13.9h0Z"/>
  <path d="M831.2,213.2c13.1,3.6,26,8.3,38.6,13.6-3.9,5.3-7.8,10.5-11.6,15.9-6.3-2.5-12.5-5.1-18.8-7.4-6.6-2.2-13.3-4.2-19.9-6.5,4-5.1,7.6-10.6,11.7-15.6h0Z"/>
  <path d="M571.6,215c51.5,0,103,0,154.6,0,0,13.4,0,26.9,0,40.3-8.3,0-16.6,0-24.9,0-2.5,5.7-5.3,11.1-8.2,16.5,18.7,0,37.4,0,56.1,0,0,5,0,10.1,0,15.1-67,0-134,0-201,0,0-5,0-10.1,0-15.1,18.2,0,36.5,0,54.8,0-2.1-5.8-4.5-11.1-7.6-16.5-7.9,0-15.9,0-23.8,0,0-13.4,0-26.9,0-40.3h0Z"/>
  <path class="st4" d="M177.2,217.4c0,1.6.2,2.9-.9,4.2-2.2,3.1-4.9,6.9-8.4,8.7-8,4.1-16.4,6.8-25.4,7.2-.5-4.5-1.5-7.6-3.8-11.4,8.5,1.5,16.7-.2,24.6-3.3,4.7-1.8,8.7-4.4,13.8-5.4h0Z"/>
  <path class="st4" d="M592.2,229.7c2.8-.3,5.7-.1,8.5-.1,35,0,70,0,105,0v11.4c-37.9,0-75.7,0-113.6,0,0-3.8-.2-7.6.1-11.3h0Z"/>
  <path class="st4" d="M173.6,241.7c-1.2,5.8-4.1,10.6-7.7,15.2-5.9,0-11.8.2-17.6,1.3,0-4,.3-8,.8-12,8.1-2,16.2-3.5,24.4-4.5h0Z"/>
  <path class="st4" d="M359,241.9c0,6.6.1,13.2-.1,19.9-5.9-.5-11-2.8-16.6-4.7,4.8-4.3,9.8-8.3,14.4-12.8.8-.8,1.5-1.5,2.3-2.3h0Z"/>
  <path d="M860,245.1c3.5,5.2,7,10.4,10.5,15.6-16.4,9.2-33.3,17.6-50.8,24.6-3.4-5.5-6.9-10.9-10.3-16.4,17.7-6.2,34.4-14.4,50.7-23.7h0Z"/>
  <path d="M921.1,245.5c6.7,3.1,13.5,5.9,20,9.2,11.1,5.2,21.6,11.6,31.9,18.3-4.3,4.7-8.8,9.3-13.2,13.9-15.7-10.5-32.6-18.9-50.1-26.1,3.3-4.2,6.5-8.6,9.7-12.9.6-.8,1.1-1.6,1.7-2.4h0Z"/>
  <path class="st4" d="M618.4,255.4c20.3,0,40.6,0,61,0-2.5,5.8-5.3,11.2-8.7,16.5-15,0-30,0-45.1,0-2.2-5.6-4.7-11-7.2-16.5h0Z"/>
  <path class="st12" d="M445.1,257.8c6.3,2.3,7.8,8.5,11.2,13.7,8.9,14,16.5,28.7,25.1,43,3.3,5.8,6.6,11.1,7.2,17.8-4,9-8.7,17.8-14,26.1.4-2.8.4-5.5-1.1-8.1-4.7-8.6-10-16.9-14.5-25.5-3.5-6.8-7.6-13.1-11.3-19.8-3.1-5.3-5.4-10.5-9.6-15.1-1.6,1.6-3.2,3.3-4.6,5.2,3.5-10.5,6.2-21.2,7.9-32.1,1.1-1.8,2.3-3.6,3.6-5.2h0Z"/>
  <path class="st11" d="M67.2,286.4c1.4,2.6,2.9,5,4.7,7.4,7.8,21.9,18,41.2,31.7,60-2.3-1.6-4.4-3.4-6.5-5.2-5.6,9.9-11.4,19.8-17.3,29.5-4.5,7.3-8.1,15.1-12.7,22.4-1.6,2.6-3.6,5.6-4.2,8.6,1.9,3.8,5.1,6.8,6.7,10.9-14.9-15.3-28.2-33.2-38.5-52-.7-4-2.6-7.7-3.6-11.6.6-2.9,2.7-5.7,4.2-8.3,5-7.6,8.9-15.7,13.6-23.4,7.5-12.6,14.6-25.6,21.9-38.3h0Z"/>
  <path class="st1" d="M438.1,289.9c4.2,4.6,6.5,9.8,9.6,15.1,3.7,6.6,7.8,13,11.3,19.8,4.5,8.7,9.8,17,14.5,25.5,1.5,2.6,1.5,5.2,1.1,8.1-5.6,8.8-11.7,17.3-18.5,25.2,0-3,0-5.7-1.6-8.3-8.7-14.4-17.1-29-25.2-43.8-1.4-2.6-3.1-5.2-5.2-7.4-1.5.6-2.9,1.2-4.3,1.8,5.5-9.9,10-20.2,13.8-30.9,1.4-1.8,2.9-3.5,4.6-5.2h0Z"/>
  <path class="st25" d="M327.4,300.2c1.6,1.8,3.2,3.2,2.8,5.8-.6,4.9-2.6,9.9-5.5,13.9-2.6,3.7-4.4,7.3-8,10.1-1-1-2.1-2-2.9-3.2,0-2.8,3.3-4.4,5-6.2,4.3-4.2,8.3-10.5,7.8-16.7-2.6.8-5.5,1.6-7.7,3.2-7.4,5.9-12.7,13.5-17,21.9-3.7,7.9-7.8,14.8-7.7,23.9.6.9,1.3,1.8,1.9,2.8,8.9-1.5,15.8-9.4,22.5-15,3.8-3.1,6.4-6.8,10.8-9.1.2,2.1.6,3.4-.8,5.1-3.1,3.9-6.9,8-10.7,11.3-4.7,3.6-8.3,8.1-13.8,10.2-2.4.9-5.6,2.4-8.2,1.8-6.4-1-9.4-9.4-8.5-15,1.7-7.7,5.1-15.1,9.6-21.5,1.3-2.4,2.7-4.7,4.5-6.8,0-.5,0-1,.1-1.5,3.2-3.3,6.7-6.4,10.3-9.3,4.8-3.4,9.6-6.4,15.8-5.8h0Z"/>
  <path class="st25" d="M149.8,300.5c1,1.7,2,3.4,2.8,5.2-4.6,6.7-10.3,12.6-15.5,18.9,3.8-.7,7.7-2.2,11.6-2.2,2.8.2,2.4,3.7,2.7,5.7-1.2.6-2.5,1.4-3.8,1.8-2.6-.4-4.5-1.8-7.1-1.4-2.5.3-6,.6-7.8,2.7-2.3,2.6-3.9,6.1-5.9,9.1-2.7,4-5,8.3-7.2,12.6-2.1,4.6-4.7,8.6-6,13.5,1.1,1.1,2.2,2.2,3.4,3.3-.2,1-.4,2-.6,3-2.6,2-6.4,1.7-8.1-1.2-2.5-3.8-1.2-7.6-.1-11.6,5-9.2,8.9-18.7,14.8-27.3-5.8,2.3-11.4,4.2-16.8,7.4-2.1,1.3-3.4,3.2-4.9,5.1-.9-.1-1.8-.3-2.7-.4.3-2.4.8-4.3,1.8-6.5,6.8-3,12.9-6.8,20.1-9.1,2.5-.9,5.5-1.6,7.4-3.6,2.8-2.8,5.5-6,7.8-9.2,2.8-4,6.7-7.1,9.6-11-7.6.2-13.2,3.8-20,6.7-2.9,1.4-5.5,3-7.2,5.7-1,1.2-1.4,2.7-3.1,3.2-.9-.9-1.8-1.8-2.7-2.7.8-1.7,1-4.4,2.9-5.2,5.3-2.8,10.2-6,15.7-8.3,6-2.4,12.3-3.9,18.7-4h0Z"/>
  <path class="st17" d="M424.1,324.2c2.1,2.2,3.8,4.7,5.2,7.4,8.1,14.8,16.5,29.4,25.2,43.8,1.6,2.6,1.7,5.3,1.6,8.3-1.4,1.7-2.9,3.3-4.3,5-4.7,5-9.5,9.9-14.6,14.4,1.5-3.3,3.5-5.9,6-8.4-6.2-11.1-12.6-22.1-19.1-33-3.8-6.5-7.2-13.6-11.6-19.6-1.4,1.6-2.6,3.2-4,4.8.2-1.2.4-2.5.7-3.7,3.7-5.7,7.5-11.2,10.6-17.2,1.4-.6,2.9-1.2,4.3-1.8h0Z"/>
  <path class="st25" d="M161.7,332.2c2.2.7,4.4,1.6,6.5,2.6v2.6c1.7,2.7,2.6,5.5,1.7,8.7-2,7.4-9,12.3-16.2,13.6-3,.6-5.7-2.1-7.4-4.2-2.5-2.9-.7-8.1,0-11.4-1.6,1.4-3.3,2.8-5,4.1,0-2-.8-3.9.9-5.4,5.4-5.2,12.1-9.1,19.5-10.6h0Z"/>
  <path class="st25" d="M346.9,332.2c2.1.6,4.2,1.5,6.2,2.4.9,4,3.2,7.3,2.1,11.4-2.1,8.3-10.3,13.1-18.4,14-2.4-1.9-5.5-3.6-6.4-6.8-.4-3.1.5-6.1,1.4-9-1.7,1.4-3.5,2.7-5.5,3.8.3-1.9-.3-3.7,1.2-5.1,5.3-5.4,12-9.1,19.3-10.8h0Z"/>
  <path class="st25" d="M246.8,333.3c.3.8.5,1.6.8,2.3,1,0,2.6-.6,3.5,0,.9,2,1.1,4,.2,6.1-2.1,4.9-3.9,9.9-6,14.8,1.3,1.9,3.7,3,2.6,5.6-2.1,2.2-3.6,1.2-6.2.6-5.1,7.7-10.5,14.9-17.9,20.6-1.9,1.4-3.9,2.6-6.2,3.3-2.6-2.2-3.2-4-2.7-7.4,1.7-6.8,5.9-13.1,11.6-17.3,4-2.8,8.5-3.8,12.7-5.4,2.4-3.2,3.6-7.6,4.7-11.4-6.1,4.4-12.4,10.2-19.4,12.8-3.5.4-3.8-1.6-5.1-4.1-1-.3-2-.6-3-.9-2.2,1.9-4.5,3.8-6.8,5.7-3-.6-5.5-.7-7-3.8-1.5-3.8-.7-8.8-1-12.9-3.4,1.6-6.6,3.3-9.4,5.9-4.2,3.9-8.8,7.3-13.2,10.9-1.2-1.4-3-2.7-2.8-4.8.1-4.4,5.1-7.6,6.8-11.7-1.9,1.2-3.8,2.4-5.6,3.7-1.5.8-2.6,2.4-4.3,1.4.4-2.2.8-4.4,2.8-5.8,3.1-2.1,6.3-3.5,8.7-6.5,1.4.7,3.5,1.1,4.3,2.5,1.5,2.1.9,4.5.9,7,4.5-4.3,9-7.1,14.9-9.2,1.6,1.3,3.9,2.6,4.3,4.8.5,3.4,0,6.7-1,9.9.5.9,1,1.9,1.5,2.8,4.3-3.3,8.2-7,12.7-10.1v3.1c4.2-4,8.1-7.7,13.7-9.5,3.6-1.1,7.2-2.2,10.9-3.1h0Z"/>
  <path class="st25" d="M370.1,335.2c1.6.6,3.2.8,4.2,2.3,1.7,2,.9,4.8.9,7.1,4.5-4.2,9-7.1,14.8-9.2,1.4,1,3.7,2,4.2,3.9.8,3.5.3,7.4-.7,10.8.4.9.8,1.9,1.2,2.8,4.7-3.1,7.6-7.2,12.8-9.5.1,1.2.3,2.4.4,3.7-2.7,3-5.8,5.6-8.9,8.2-1.3,1.1-2.6,2.2-3.9,3.3-2.4-.5-5-.3-6.4-2.7-2.5-3.7-1.4-9.7-1.6-14-3.2,1.6-6.3,3.2-9,5.7-4.4,4-9,7.6-13.7,11.2-1.1-1.6-2.8-2.7-2.5-4.8,0-4.4,5-7.6,6.7-11.6-1.8,1.1-3.6,2.1-5.3,3.3-1.5,1-2.5,2.2-4.5,1.9,0-2.1.4-4.6,2.3-5.9,3.1-2.2,6.5-3.4,8.9-6.6h0Z"/>
  <path class="st4" d="M163.8,338.2c-.6,1-1.1,2-1.7,3,.9,1,1.7,2,2.6,3.1-1.8,5.6-5.6,9.7-10.9,12.3-.9-.4-1.8-.8-2.7-1.1-.5-4.6.3-8,3.2-11.6,2.4-3.3,5.7-4.2,9.4-5.6h0Z"/>
  <path class="st4" d="M350,337.7c-.8.9-1.6,1.7-2.4,2.6.7,1.4,1.6,2.8,2.4,4.2-1.5,4.7-5,9.3-9.5,11.3-1.9.9-3.7.4-4-1.9-.6-5.6,3.3-11.6,8.2-14,1.8-.7,3.5-1.4,5.2-2.2h0Z"/>
  <path class="st4" d="M243.5,340.4c-5.6,5.8-11.3,11-19.1,13.4,1.6-2.4,3.5-4.5,5.8-6.3,4.2-3.1,8.2-5.9,13.3-7.2h0Z"/>
  <path class="st23" d="M650.2,341.7c6.6-.9,13.4-.5,19.5,2.3,7.5,3.4,13.2,10.5,15.7,18.2,2.7,8.6,2.6,18-.1,26.5-2.5,7.8-8,14.8-15.4,18.4-6.5,3.2-14.1,3.4-21.1,2.5-12.6-1.9-22.4-12.6-24.6-24.9-2.1-11.1-.2-24.2,7.3-33,4.8-5.7,11.4-9.2,18.7-10.2h0Z"/>
  <path class="st23" d="M821.5,344.4c0,3.6,0,7.2,0,10.7-7.9-4.1-16.8-5.8-25.6-3.9-7.8,1.9-13.9,8.4-16.1,16.1-1.8,6.2-1.5,13.9.6,20,2.4,6.9,8.3,12,15.5,13.3,5.9,1.4,11.5.2,17.1-1.7,0-5.6,0-11.3,0-16.9h-14.2v-8.8h24.6c0,10.5,0,21.1,0,31.6-5.4,2.5-10.8,4.6-16.7,5-7.3.4-14.5.6-21.3-2.6-9.2-4-15.5-12.9-17.1-22.7-1.2-8.2-.8-17.3,3.1-24.8,4.1-8.3,11.8-14.7,20.8-17,9.5-2.6,20.1-1.6,29.3,1.7h0Z"/>
  <path class="st23" d="M862.9,341.6c6.9-.7,14.6-.3,21.1,2.3.6,3.4.3,7.1.3,10.6-9.3-4.4-21.1-5.9-29.9.4-9.2,6.7-11.4,18.7-8.9,29.2,1.7,7.6,7.4,14.2,15.1,16.1,8.2,2.1,16.3.2,23.7-3.5,0,3.3,0,6.7,0,10-4.1,1.6-8.2,3-12.6,3.2-7.9.5-15.3.5-22.4-3.4-8.1-4.4-13.5-12.6-15-21.7-1.3-9.2-.6-18.9,4.2-27,5.1-8.9,14.2-15,24.5-16.2h0Z"/>
  <path class="st23" d="M918.2,341.7c6.6-.9,13.4-.5,19.5,2.3,7.5,3.4,13.2,10.5,15.7,18.2,2.7,8.6,2.6,18-.1,26.5-2.5,7.8-8,14.8-15.4,18.4-6.5,3.2-14.1,3.4-21.1,2.5-12.6-1.9-22.5-12.6-24.6-24.9-2.1-11.1-.2-24.2,7.4-33,4.7-5.7,11.4-9.2,18.7-10.2h0Z"/>
  <path class="st23" d="M1086.9,341.6c7-.7,14.6-.3,21.1,2.3.6,3.4.3,7.1.3,10.6-9.3-4.4-21.1-5.9-29.9.4-9.4,6.8-11.5,19.4-8.7,30.1,1.9,7.3,7.6,13.4,15,15.3,8.2,2.1,16.2.2,23.6-3.5,0,3.3,0,6.7,0,10-4.1,1.6-8.2,3-12.6,3.2-7.9.5-15.3.5-22.4-3.4-8.1-4.4-13.5-12.6-15-21.7-1.3-9.2-.6-18.9,4.2-27,5.1-8.9,14.2-15,24.5-16.2h0Z"/>
  <path class="st23" d="M1142.2,341.7c6.6-.9,13.4-.5,19.5,2.3,7.5,3.4,13.2,10.5,15.7,18.2,2.7,8.6,2.6,18-.1,26.5-2.5,7.8-8,14.8-15.4,18.4-6.5,3.2-14.1,3.4-21.1,2.5-12.6-1.9-22.4-12.6-24.6-24.9-2.1-11.1-.2-24.2,7.4-33,4.8-5.7,11.4-9.2,18.7-10.2h0Z"/>
  <path class="st7" d="M412.4,342.1c4.4,6.1,7.8,13.1,11.6,19.6,6.5,10.9,12.9,21.9,19.1,33-2.5,2.5-4.5,5.2-6,8.4-4.5,4.4-9.4,8.3-14.3,12.1-.7-3.4-1.7-6.7-3.7-9.6-8.5-13.7-16.2-27.8-24.5-41.6-3.3,3-6.5,5.9-10.4,8.1,5.1-5.4,11-10.6,14.9-16.8,3.1-2.6,6.2-5.1,8.9-8.2-.1-1.2-.3-2.4-.4-3.7l1.5-.3c-.2,1.2-.5,2.5-.7,3.7,1.3-1.6,2.6-3.2,4-4.8h0Z"/>
  <path class="st23" d="M580.2,342.6c11.8-.4,23.7,0,35.5-.2,0,3,0,6,0,9.1-8.3,0-16.7,0-25,0,0,6.9,0,13.7,0,20.6h23v8.8h-23c0,9.4,0,18.8,0,28.2-3.5,0-7.1,0-10.6,0,0-21,0-42,0-63,0-1.2,0-2.3.2-3.4h0Z"/>
  <path class="st23" d="M711.9,342.4c8,12.5,16,25,24,37.4,3.3,5.2,6.7,10.2,9.7,15.6-1-17.6-.2-35.4-.5-53,3.5,0,7,0,10.5,0v66.6h-11.8c-10.1-15.6-20.2-31.1-30.3-46.7-1.5-2.2-2.8-4.5-4.1-6.9.5,17.9,0,35.7.2,53.6h-10.2c0-22.2,0-44.4,0-66.6,4.2,0,8.4,0,12.6,0h0Z"/>
  <path class="st23" d="M979.9,342.4c8,12.5,16,25,24,37.4,3.3,5.2,6.7,10.2,9.7,15.6-1-17.6-.2-35.4-.5-53,3.5,0,7,0,10.4,0v66.6h-11.8c-10.1-15.6-20.2-31.1-30.3-46.7-1.4-2.2-2.8-4.6-4.1-6.9.5,17.9,0,35.7.2,53.6h-10.2c0-22.2,0-44.4,0-66.6,4.2,0,8.4,0,12.6,0h0Z"/>
  <path class="st23" d="M1254.2,342.6c3.5-.4,7-.2,10.5-.2,0,19.3,0,38.5,0,57.8h26v8.8c-12.2,0-24.4,0-36.6,0,0-21,0-42,0-63,0-1.2,0-2.3.2-3.4h0Z"/>
  <path class="st23" d="M1337.1,342.4c0,3,0,6,0,9-6.3,0-12.7,0-19,0,0,19.2,0,38.4,0,57.6h-10.8c0-19.2,0-38.4,0-57.6-6.3,0-12.7,0-19,0,0-3,0-6,0-9,16.3,0,32.6,0,48.8,0h0Z"/>
  <path class="st23" d="M1346.7,342.4c8,0,16-.1,24,0,8.5.5,17.5,2.6,23.6,8.9,6.2,6.2,8,15.2,8,23.7,0,8.6-2.5,16.9-8.5,23.2-6.2,6.7-15.1,10.4-24.2,10.7-7.7.2-15.3,0-23,0,0-22.2,0-44.4,0-66.6h0Z"/>
  <path class="st15" d="M97,348.6c2.1,1.8,4.2,3.6,6.5,5.2,1.6,2,3.2,4,4.7,6-1.1,4-2.3,7.8.1,11.6,1.8,2.9,5.5,3.3,8.1,1.2,5.4,6.8,10.8,13.6,16.8,19.9-1.9-1.2-3.9-2.2-6-3.2-3.5,4.7-5.7,9.7-8.6,14.8-3.7,6.3-7.6,12.5-11.1,18.9-3.8,7-8.3,13.5-11.2,21-9.5-7.4-18.5-15.3-26.8-24.1-1.7-4-4.9-7-6.7-10.9.6-3,2.6-5.9,4.2-8.6,4.6-7.2,8.2-15.1,12.7-22.4,6-9.7,11.7-19.5,17.3-29.5h0Z"/>
  <path class="st4" d="M649.9,351.3c7.2-1.7,15.2-.5,20.2,5.2,5.6,6.3,6.6,15.4,5.9,23.5-.6,7.3-3.7,14.4-10.1,18.3-6.9,3.9-16.9,3.8-23.1-1.5-4.6-3.8-7.3-10-8.1-15.9-.8-6.8-.3-13.7,3.1-19.8,2.6-4.8,6.8-8.5,12.1-9.9h0Z"/>
  <path class="st4" d="M917.9,351.3c7.2-1.7,15.2-.5,20.2,5.2,5.6,6.3,6.6,15.4,5.9,23.5-.6,7.3-3.7,14.4-10.1,18.3-6.9,3.9-16.9,3.8-23.1-1.5-4.6-3.8-7.3-10-8.1-15.9-.8-6.8-.3-13.7,3.1-19.8,2.6-4.8,6.8-8.5,12.1-9.9h0Z"/>
  <path class="st4" d="M1141.9,351.3c7.2-1.7,15.2-.5,20.2,5.2,5.6,6.3,6.6,15.4,5.9,23.5-.6,7.3-3.7,14.4-10.1,18.3-6.9,3.9-16.8,3.8-23.1-1.5-4.6-3.8-7.4-10-8.1-15.9-.8-6.8-.3-13.7,3.1-19.8,2.6-4.8,6.8-8.5,12.1-9.9h0Z"/>
  <path class="st4" d="M1381,354.7c5.8,3.1,9.1,8.9,9.9,15.3,1.1,9-.2,18.6-7.6,24.7-7.6,6.3-16.7,5.6-25.9,5.6,0-16.3,0-32.5,0-48.8,8.2.1,16.3-.9,23.7,3.2h0Z"/>
  <path class="st4" d="M235.7,362.5c-4,7.5-9.3,14.6-17.6,17.7.5-2.3.9-4.9,2-7,3.6-5.7,9.2-9,15.6-10.7h0Z"/>
  <path class="st5" d="M394.7,364.1c8.3,13.8,16,27.9,24.5,41.6,2,3,3,6.2,3.7,9.6-8,6.1-16.4,11.6-25.1,16.6,1.9-2,3.8-4,5.7-6.1-5-9.9-11.2-19.2-16.7-28.8-3.3-5.4-5.3-10.9-9.2-15.5-1.8.3-3.6.6-5.4,1.1,4.2-3.3,8-6.9,12-10.4,3.9-2.2,7.1-5.1,10.4-8.1h0Z"/>
  <path class="st19" d="M117.1,369.6c17.2,17.1,37.8,30.7,60.2,40.2,3.8,3,7.5,5.4,9.9,9.8,2.9,5.4,6.2,10.5,8.9,16.1-2.6-.4-5.3-.8-7.9-1.4-6.8-3.5-13.1-7.7-19.6-11.7-12.7-8.9-24.6-18.8-35.3-30.1-5.9-6.3-11.4-13.1-16.8-19.9.2-1,.4-2,.6-3h0Z"/>
  <path class="st14" d="M377.6,381.5c3.9,4.6,5.9,10.1,9.2,15.5,5.5,9.6,11.7,18.9,16.7,28.8-1.9,2-3.8,4.1-5.7,6.1-8.7,5.1-17.9,9.3-27.2,13.1.7-1.3,1.6-2.5,2.1-3.9-.4-2.1-1.7-4.2-2.7-6.1-4.1-6.9-8.4-13.7-12.4-20.7-2.7-4.4-5-9.1-8-13.3-4.1,1.2-8.1,2.7-12.2,3.9,12.3-6.3,24.1-13.7,34.9-22.3,1.8-.5,3.6-.8,5.4-1.1h0Z"/>
  <path class="st2" d="M127.3,389.3c2.1,1,4.1,2,6,3.2,10.7,11.2,22.6,21.2,35.3,30.1-2.6-.8-5.1-1.7-7.6-2.6-4.8,8-9.4,16.2-13.8,24.5-3.9,7.2-8.6,13.9-12.2,21.2,1.5,1.7,3.1,3.4,4.7,5-15.3-7.4-29.8-16.4-43.3-26.8,2.9-7.5,7.4-14,11.2-21,3.5-6.4,7.5-12.6,11.1-18.9,2.9-5,5.1-10,8.6-14.8h0Z"/>
  <path class="st13" d="M451.8,388.7c-25.9,37.5-62.5,67.8-104.3,86-3.8.5-7.4,1.2-11.1,2.1,2.5-5.4,5.8-10.4,8.5-15.6,1.4-2.5,2.7-5.1,5.1-6.8,2.9-2,6.1-3.6,9.2-5.2,3.8-1.4,7.7-2.7,11.4-4.2,9.3-3.8,18.5-8,27.2-13.1,8.7-5,17.1-10.5,25.1-16.6,4.9-3.9,9.9-7.8,14.3-12.1,5.1-4.5,9.9-9.4,14.6-14.4h0Z"/>
  <path class="st23" d="M1187.2,398.6c4.2-1.7,9.6.4,9.4,5.5.2,5.9-7.3,8-11.2,4.3-2.9-2.9-2-8,1.8-9.8h0Z"/>
  <path class="st23" d="M1208.3,398.1h9.8c-2.4,7.7-4.8,15.3-7.2,23-2.6,0-5.2,0-7.8,0,1.7-7.7,3.5-15.3,5.2-23h0Z"/>
  <path class="st23" d="M1408.2,398.7c2.4-1,5.9-.9,7.9,1,1.9,1.7,2,4.7,1.2,7-1.7,4.5-9.5,4.6-11.6.4-1.8-3-.5-6.8,2.5-8.4h0Z"/>
  <path class="st26" d="M349.5,401c3,4.2,5.4,8.9,8,13.3,4,6.9,8.3,13.7,12.4,20.7,1,1.9,2.4,4,2.7,6.1-.5,1.4-1.4,2.6-2.1,3.9-3.8,1.5-7.6,2.8-11.4,4.2-5.9,1.9-12,3.6-18.1,5,2.1-1.3,4.1-2.6,6.1-4-3.9-8.2-8.5-15.8-13.1-23.6-2.9-4.8-4.9-9.6-8.6-13.8-1.7-.2-3.4-.3-5.2-.4,5.8-2.2,11.4-4.8,17-7.4,4.1-1.2,8.1-2.6,12.2-3.9h0Z"/>
  <path class="st18" d="M177.3,409.8c14,5.8,28.3,9.9,43.2,12.5,2.5,1.1,5.2,2.2,7.4,3.8,1.8,1.4,3,3.7,4.2,5.6,3.8,6.9,7.8,13.7,11.4,20.7-2.5.2-5,.4-7.5.5-3.2-.8-6.4-1.7-9.6-2.5-13.2-4.4-26-9.5-38.2-16.2,2.6.6,5.2,1,7.9,1.4-2.7-5.5-5.9-10.7-8.9-16.1-2.4-4.4-6.1-6.8-9.9-9.8h0Z"/>
  <path class="st27" d="M325.5,412.7c3.8,4.2,5.8,9,8.6,13.8,4.6,7.8,9.2,15.4,13.1,23.6-2,1.4-4.1,2.7-6.1,4-12.7,3.1-25.9,5-38.9,5.6-10.5.2-21.1.3-31.5-.6h1.3c11.5-.2,23.3.1,34.7-1.3-4.9-8.9-10.1-17.6-15-26.5-1.3-2.2-2.5-4.8-4.5-6.4-2.7-1.2-6-1.4-9-1.7,14.4-2.2,28.6-5.6,42.2-10.9,1.7,0,3.4.2,5.2.4h0Z"/>
  <path class="st21" d="M161,420c2.5.8,5.1,1.8,7.6,2.6,6.5,4,12.8,8.2,19.6,11.7,12.2,6.7,25,11.8,38.2,16.2-3.8-.2-7.3-.9-10.9-1.9-2.2,2.6-3.9,5.6-5.6,8.6-5.4,10.1-11.6,19.8-16.9,30,3,1,5.8,2.2,8.6,3.9-21.4-3.8-42.3-10.9-61.9-20.4-1.6-1.6-3.2-3.3-4.7-5,3.7-7.3,8.3-14,12.2-21.2,4.4-8.2,9-16.4,13.8-24.5h0Z"/>
  <path class="st24" d="M220.5,422.3c9.6,1.5,19.3,2.5,29,2.5,2.7.8,5.6,1.5,7.3,4.1,2.4,3.4,4.1,7.3,6.1,10.8,3.1,5.7,6.7,11.1,10,16.7-.3.9-.7,1.8-1.1,2.7h-1.3c-1,0-2.1-.1-3.1-.1-10.6-1.5-21.2-3.2-31.5-6,2.5,0,5-.3,7.5-.5-3.6-7-7.6-13.8-11.4-20.7-1.2-1.9-2.4-4.2-4.2-5.6-2.2-1.6-4.8-2.7-7.4-3.8h0Z"/>
  <path class="st22" d="M278.1,423.2c3,.3,6.2.5,9,1.7,2,1.6,3.2,4.3,4.5,6.4,4.9,8.9,10.1,17.6,15,26.5-11.4,1.4-23.2,1.1-34.7,1.3.4-.9.7-1.8,1.1-2.7-3.3-5.5-6.9-11-10-16.7-2.1-3.6-3.8-7.4-6.1-10.8-1.6-2.6-4.5-3.2-7.3-4.1,9.6.2,19.1-.5,28.6-1.7h0Z"/>
  <path class="st8" d="M215.4,448.6c3.6.9,7.2,1.7,10.9,1.9,3.2.8,6.4,1.8,9.6,2.5,10.3,2.8,20.9,4.6,31.5,6-4.7,1.1-9,.5-13.6-.3-3.1,4.1-5.4,9.1-8,13.5-4,7.2-8.5,13.8-11.4,21.5,4.8,0,9.3.4,13.9,1.8-15.7,0-31.5-1.3-46.8-4.4-2.8-1.7-5.5-2.9-8.6-3.9,5.3-10.2,11.5-19.9,16.9-30,1.6-3,3.4-6,5.6-8.6h0Z"/>
  <path class="st28" d="M359.1,449.2c-3.1,1.6-6.3,3.2-9.2,5.2-2.3,1.7-3.7,4.4-5.1,6.8-2.8,5.3-6,10.2-8.5,15.6,3.7-1,7.3-1.6,11.1-2.1-17.9,8-37.6,14-57,17.2-3.6-.3-7.2-.5-10.8-.4,3.5-7.1,7.7-13.9,11.5-20.9,1.3-2.3,2.6-4.8,4.3-6.7,1.8-1.8,4.3-3.1,6.6-4.1,13.1-.6,26.2-2.5,38.9-5.6,6.1-1.4,12.1-3.1,18.1-5h0Z"/>
  <path class="st16" d="M253.9,458.7c4.6.8,8.9,1.4,13.6.3,1,0,2.1,0,3.1.1,10.5.9,21,.9,31.5.6-2.3,1.1-4.8,2.3-6.6,4.1-1.7,2-3,4.4-4.3,6.7-3.8,7-8,13.8-11.5,20.9,3.6,0,7.2.1,10.8.4-13.9,2.5-28,3.7-42.1,3.6-4.6-1.4-9.1-1.8-13.9-1.8,2.9-7.7,7.4-14.3,11.4-21.5,2.6-4.5,4.9-9.4,8-13.5h0Z"/>
  <metadata>
    <sfw xmlns="http://ns.adobe.com/SaveForWeb/1.0/">
      <slices/>
      <sliceSourceBounds x="217.31" y="444.52" width="1441.18" height="495.54" bottomLeftOrigin="true"/>
    </sfw>
  </metadata>
</svg>