<svg width="256" height="256" viewBox="0 0 256 256" fill="none" xmlns="http://www.w3.org/2000/svg">
<g clip-path="url(#clip0_439_5992)">
<path d="M128 256C198.692 256 256 198.692 256 128C256 57.3076 198.692 0 128 0C57.3076 0 0 57.3076 0 128C0 198.692 57.3076 256 128 256Z" fill="#9900F0"/>
<path fill-rule="evenodd" clip-rule="evenodd" d="M69.0659 128.154V88.4541C69.0659 76.3832 73.0707 67.6652 79.3447 63.9768C85.6187 60.2886 90.9582 58.9473 97.7662 58.9473C106.309 58.9473 113.251 60.892 118.991 64.5134L112.917 77.6573C109.58 76.1149 105.976 75.2432 101.771 75.2432C92.56 75.2432 87.8211 79.9374 87.8211 89.3929V128.221L69.0659 128.154ZM87.888 150.15V184.62H69.0659V150.15H87.888ZM179.328 95.0931C190.274 99.1167 200.219 106.091 205.959 118.699C211.699 131.105 211.699 147.535 205.893 159.941C200.152 172.347 190.208 179.321 179.261 183.345C168.649 187.368 158.037 187.368 147.09 183.345C136.478 179.321 126.4 172.347 120.66 159.941C118.857 155.985 117.589 151.625 116.922 147.065H48.8423V131.306H117.055C117.723 126.88 118.924 122.588 120.726 118.699C126.466 106.091 136.545 99.1167 147.157 95.0931C158.103 90.8683 168.716 90.8683 179.328 95.0931ZM163.309 169.598C170.784 169.598 177.393 166.982 183.133 161.551C189.073 156.119 192.01 148.809 192.01 139.353C192.01 129.697 189.073 122.387 183.133 116.955C177.393 111.59 170.784 108.773 163.309 108.773C155.834 108.773 149.226 111.523 143.286 116.955C137.546 122.387 134.609 129.764 134.609 139.353C134.609 148.809 137.546 156.119 143.286 161.551C149.226 166.982 155.834 169.598 163.309 169.598ZM186.87 137.409C186.87 137.686 186.865 137.961 186.857 138.235C186.865 138.495 186.87 138.756 186.87 139.018C186.87 142.17 186.336 145.054 185.135 147.669C184.6 148.809 183.065 149.01 182.264 148.004L178.794 143.779C178.461 143.377 178.326 142.841 178.461 142.304C178.66 141.231 178.794 140.091 178.794 138.951V137.476C178.794 136.269 178.66 135.196 178.461 134.123C178.326 133.586 178.461 133.05 178.794 132.647L182.264 128.422C183.065 127.417 184.6 127.618 185.135 128.758C186.269 131.44 186.87 134.324 186.87 137.409ZM179.529 127.148L180.596 125.874C181.597 124.667 181.531 122.991 180.463 121.851C178.393 119.906 176.057 118.431 173.388 117.358C170.718 116.285 167.781 115.748 164.711 115.748C161.641 115.748 158.704 116.285 156.034 117.358C153.364 118.431 151.028 119.906 149.026 121.851L148.892 121.985C147.491 123.326 147.825 125.673 149.493 126.612L150.962 127.484C152.096 128.221 153.631 127.953 154.566 126.947L154.699 126.813C155.967 125.472 157.436 124.466 159.171 123.728C160.84 122.991 162.709 122.588 164.644 122.588C166.58 122.588 168.382 122.991 170.117 123.728C171.852 124.466 173.388 125.539 174.656 126.813C174.793 126.905 174.899 127.028 174.995 127.139C175.038 127.191 175.081 127.24 175.123 127.283C176.325 128.624 178.393 128.557 179.529 127.148Z" fill="white"/>
</g>
<defs>
<clipPath id="clip0_439_5992">
<rect width="256" height="256" fill="white"/>
</clipPath>
</defs>
</svg>
