<svg width="319" height="402" viewBox="0 0 319 402" fill="none" xmlns="http://www.w3.org/2000/svg">
<rect width="319" height="402" fill="white"/>
<g clip-path="url(#clip0_616_6889)">
<path d="M163 273C228.17 273 281 220.17 281 155C281 89.8304 228.17 37 163 37C97.8304 37 45 89.8304 45 155C45 220.17 97.8304 273 163 273Z" fill="#9900F0"/>
<path fill-rule="evenodd" clip-rule="evenodd" d="M108.67 155.142V118.543C108.67 107.416 112.362 99.3787 118.146 95.9784C123.93 92.5783 128.852 91.3418 135.128 91.3418C143.004 91.3418 149.403 93.1346 154.695 96.4731L149.095 108.59C146.019 107.168 142.696 106.365 138.82 106.365C130.329 106.365 125.96 110.692 125.96 119.409V155.204L108.67 155.142ZM126.022 175.42V207.196H108.67V175.42H126.022ZM210.318 124.664C220.409 128.373 229.577 134.802 234.868 146.425C240.16 157.862 240.16 173.009 234.808 184.446C229.515 195.882 220.348 202.311 210.256 206.021C200.473 209.73 190.69 209.73 180.599 206.021C170.816 202.311 161.524 195.882 156.233 184.446C154.572 180.798 153.402 176.78 152.787 172.576H90.0264V158.048H152.91C153.526 153.967 154.633 150.011 156.294 146.425C161.586 134.802 170.877 128.373 180.66 124.664C190.751 120.769 200.535 120.769 210.318 124.664ZM195.551 193.348C202.442 193.348 208.534 190.937 213.825 185.929C219.302 180.922 222.009 174.183 222.009 165.466C222.009 156.564 219.302 149.825 213.825 144.818C208.534 139.872 202.442 137.275 195.551 137.275C188.659 137.275 182.568 139.81 177.092 144.818C171.8 149.825 169.093 156.626 169.093 165.466C169.093 174.183 171.8 180.922 177.092 185.929C182.568 190.937 188.659 193.348 195.551 193.348ZM217.271 163.673C217.271 163.929 217.266 164.183 217.258 164.435C217.266 164.674 217.271 164.915 217.271 165.157C217.271 168.063 216.779 170.721 215.672 173.132C215.178 174.183 213.763 174.369 213.024 173.441L209.826 169.546C209.518 169.176 209.394 168.681 209.518 168.187C209.702 167.197 209.826 166.146 209.826 165.095V163.735C209.826 162.622 209.702 161.633 209.518 160.644C209.394 160.15 209.518 159.655 209.826 159.284L213.024 155.389C213.763 154.462 215.178 154.647 215.672 155.698C216.716 158.171 217.271 160.83 217.271 163.673ZM210.503 154.215L211.487 153.04C212.409 151.927 212.349 150.382 211.365 149.331C209.456 147.538 207.303 146.178 204.842 145.189C202.381 144.2 199.673 143.705 196.843 143.705C194.012 143.705 191.305 144.2 188.844 145.189C186.383 146.178 184.229 147.538 182.383 149.331L182.26 149.454C180.968 150.691 181.276 152.855 182.814 153.72L184.168 154.524C185.214 155.204 186.629 154.957 187.49 154.029L187.613 153.906C188.782 152.669 190.136 151.742 191.736 151.062C193.274 150.382 194.997 150.011 196.781 150.011C198.566 150.011 200.227 150.382 201.827 151.062C203.426 151.742 204.842 152.731 206.011 153.906C206.137 153.99 206.235 154.104 206.323 154.206C206.363 154.254 206.402 154.299 206.441 154.338C207.55 155.575 209.456 155.513 210.503 154.215Z" fill="white"/>
</g>
<g clip-path="url(#clip1_616_6889)">
<path d="M54.481 330.83V318.307C54.481 314.5 55.7643 311.75 57.7748 310.586C59.7854 309.423 61.4965 309 63.6782 309C66.416 309 68.6404 309.613 70.4798 310.756L68.5335 314.902C67.464 314.415 66.309 314.14 64.9615 314.14C62.0098 314.14 60.4912 315.621 60.4912 318.603V330.851" fill="black"/>
<path d="M60.5126 337.769V348.641H54.481V337.769" fill="black"/>
<path d="M120.915 319.534C121.706 319.534 122.262 319.598 122.647 319.64V325.309C122.262 325.246 121.749 325.203 121.086 325.203C118.305 325.203 115.91 326.134 113.942 327.953C111.996 329.772 110.819 332.141 110.477 335.124V348.62H104.467V319.978H110.477V327.319C111.782 322.834 115.739 319.534 120.915 319.534Z" fill="black"/>
<path d="M140.699 319.429C147.287 319.429 156.142 324.4 154.795 336.52H131.887C132.786 341.428 136.571 344.135 141.427 344.135C144.485 344.135 147.159 343.247 149.447 341.491L152.848 344.685C150.132 347.689 146.282 349.191 141.256 349.191C138.753 349.191 136.357 348.705 134.069 347.647C129.556 345.489 125.984 340.709 125.984 334.363C125.984 329.561 127.994 325.478 130.882 323.109C133.855 320.74 137.363 319.429 140.699 319.429ZM140.699 324.548C136.678 324.548 132.85 327.298 131.951 332.099H149.405C149.127 329.73 148.121 327.848 146.389 326.536C144.656 325.203 142.774 324.548 140.699 324.548Z" fill="black"/>
<path d="M178.729 326.197L173.702 327.572C172.697 325.309 171.093 324.209 168.911 324.209C166.623 324.209 164.954 325.478 164.954 327.403C164.954 329.01 166.067 330.216 168.291 330.978L171.478 332.078C176.996 334.002 179.777 335.927 179.777 340.518C179.777 343.225 178.729 345.362 176.59 346.906C174.537 348.387 171.97 349.169 168.954 349.169C163.222 349.169 159.137 346.25 158.024 341.343L162.816 339.904C163.714 342.548 166.002 344.367 168.954 344.367C171.692 344.367 173.916 342.823 173.916 340.623C173.916 339.016 172.633 337.747 170.131 336.816L166.837 335.652C161.703 333.833 159.137 331.083 159.137 327.318C159.137 324.949 160.035 323.066 161.874 321.586C163.714 320.105 166.002 319.386 168.676 319.386C173.596 319.428 177.103 322.009 178.729 326.197Z" fill="black"/>
<path d="M184.525 309.655H190.536V315.388H184.525V309.655ZM184.525 319.978H190.536V348.64H184.525V319.978Z" fill="black"/>
<path d="M219.625 324.653V319.978H225.635V348.641C225.635 357.292 217.55 360 211.646 360C208.075 360 205.294 359.344 203.348 358.075V353.104C205.251 354.373 208.032 354.987 211.646 354.987C216.609 354.987 219.625 352.406 219.625 348.641V343.945H219.282C217.935 346.652 214.256 349.191 209.636 349.191C206.299 349.191 202.834 347.922 199.99 345.552C197.145 343.183 195.241 339.101 195.241 334.299C195.241 329.497 197.145 325.415 199.99 323.046C202.834 320.676 206.299 319.407 209.636 319.407C214.256 319.407 217.935 321.946 219.282 324.653H219.625V324.653ZM210.427 343.902C212.93 343.902 215.111 343.077 216.951 341.364C218.855 339.651 219.796 337.345 219.796 334.299C219.796 331.274 218.855 328.947 216.951 327.234C215.111 325.52 212.93 324.695 210.427 324.695C207.968 324.695 205.807 325.52 203.904 327.234C202.064 328.947 201.123 331.253 201.123 334.299C201.123 337.324 202.064 339.651 203.904 341.364C205.807 343.077 207.989 343.902 210.427 343.902Z" fill="black"/>
<path d="M247.794 319.428C250.809 319.428 253.376 320.486 255.494 322.622C257.611 324.78 258.68 327.91 258.68 332.056V348.64H252.67V332.374C252.67 327.255 249.783 324.653 245.762 324.653C243.537 324.653 241.698 325.414 240.243 326.958C238.853 328.439 238.019 329.983 237.848 331.485V348.619H231.837V309.655H237.848V325.922C238.425 324.272 241.42 319.428 247.794 319.428Z" fill="black"/>
<path d="M279 319.979V324.95H272.861V340.984C272.861 342.803 273.76 343.691 275.599 343.691C276.647 343.691 277.781 343.48 279 343.036V347.922C277.61 348.641 275.941 348.98 273.974 348.98C269.503 348.98 266.83 347.224 266.83 342.316V324.929H262.809V319.979H266.83V312.639H272.84V319.979H279V319.979Z" fill="black"/>
<path d="M98.3494 327.848C96.51 323.871 93.3231 321.671 89.8153 320.402C86.4144 319.069 83.0136 319.069 79.5058 320.402C76.105 321.671 72.8753 323.871 71.0358 327.848C70.4583 329.075 70.0733 330.428 69.8594 331.824H48V336.795H69.8167C70.0306 338.234 70.4369 339.609 71.0144 340.857C72.8539 344.77 76.0836 346.97 79.4844 348.239C82.9922 349.508 86.3931 349.508 89.7939 348.239C93.3017 346.97 96.4886 344.77 98.3281 340.857C100.189 336.944 100.189 331.761 98.3494 327.848ZM91.0344 341.364C89.195 343.078 87.0775 343.903 84.6819 343.903C82.2864 343.903 80.1689 343.078 78.2653 341.364C76.4258 339.651 75.4847 337.345 75.4847 334.363C75.4847 331.338 76.4258 329.011 78.2653 327.298C80.1689 325.584 82.2864 324.717 84.6819 324.717C87.0775 324.717 89.195 325.605 91.0344 327.298C92.9381 329.011 93.8792 331.317 93.8792 334.363C93.8792 337.345 92.9381 339.651 91.0344 341.364Z" fill="#9900F0"/>
<path d="M91.5266 336.817C91.5693 336.711 91.6335 336.605 91.6763 336.499C92.0613 335.674 92.2324 334.744 92.2324 333.749C92.2324 332.776 92.0399 331.867 91.6763 331.021C91.5052 330.661 91.0132 330.598 90.7566 330.915L89.6443 332.248C89.5374 332.374 89.4946 332.544 89.5374 332.713C89.6016 333.051 89.6443 333.39 89.6443 333.771V334.236C89.6443 334.595 89.6016 334.955 89.5374 335.294C89.4946 335.463 89.5374 335.632 89.6443 335.759L90.7566 337.092C91.0132 337.409 91.5052 337.345 91.6763 336.986C92.0613 336.161 92.2324 335.251 92.2324 334.257C92.2324 333.263 92.0399 332.332 91.6763 331.507" fill="#9900F0"/>
<path d="M90.2217 330.111L89.8795 330.513C89.5158 330.957 88.8528 330.978 88.4678 330.555C88.425 330.513 88.3822 330.45 88.3181 330.407C87.9117 330.005 87.4197 329.667 86.8636 329.434C86.3075 329.202 85.73 329.075 85.1097 329.075C84.4895 329.075 83.8906 329.202 83.3558 329.434C82.7997 329.667 82.3292 329.984 81.9228 330.407C81.9014 330.428 81.9014 330.428 81.88 330.45C81.5806 330.767 81.0886 330.851 80.725 330.619L80.2545 330.344C79.7197 330.048 79.6128 329.307 80.062 328.884C80.0833 328.863 80.1047 328.842 80.1047 328.842C80.7464 328.228 81.495 327.763 82.3506 327.425C83.2061 327.086 84.1472 326.917 85.1311 326.917C86.115 326.917 87.0561 327.086 87.9117 327.425C88.7672 327.763 89.5158 328.228 90.1789 328.842C90.5211 329.202 90.5425 329.73 90.2217 330.111Z" fill="#9900F0"/>
</g>
<defs>
<clipPath id="clip0_616_6889">
<rect width="236" height="236" fill="white" transform="translate(45 37)"/>
</clipPath>
<clipPath id="clip1_616_6889">
<rect width="231" height="51" fill="white" transform="translate(48 309)"/>
</clipPath>
</defs>
</svg>
