<?xml version="1.0" encoding="UTF-8" standalone="no"?>
<svg
   xmlns:dc="http://purl.org/dc/elements/1.1/"
   xmlns:cc="http://creativecommons.org/ns#"
   xmlns:rdf="http://www.w3.org/1999/02/22-rdf-syntax-ns#"
   xmlns:svg="http://www.w3.org/2000/svg"
   xmlns="http://www.w3.org/2000/svg"
   viewBox="0 0 357.39999 125.29333"
   height="125.29333"
   width="357.39999"
   xml:space="preserve"
   id="svg2"
   version="1.1"><metadata
     id="metadata8"><rdf:RDF><cc:Work
         rdf:about=""><dc:format>image/svg+xml</dc:format><dc:type
           rdf:resource="http://purl.org/dc/dcmitype/StillImage" /></cc:Work></rdf:RDF></metadata><defs
     id="defs6" /><g
     transform="matrix(1.3333333,0,0,-1.3333333,0,125.29333)"
     id="g10"><g
       transform="scale(0.1)"
       id="g12"><path
         id="path14"
         style="fill:#1da7e7;fill-opacity:1;fill-rule:nonzero;stroke:none"
         d="M 0,705.227 H 237.52 V 648.059 H 65.4922 V 547.23 H 227.641 V 492.141 H 65.4922 V 337.262 H 0 v 367.965" /><path
         id="path16"
         style="fill:#1da7e7;fill-opacity:1;fill-rule:nonzero;stroke:none"
         d="m 263.508,586.73 h 59.762 v -41.578 h 1.043 c 6.925,14.551 16.628,26.328 29.105,35.34 12.477,9.008 27.02,13.516 43.652,13.516 2.422,0 5.028,-0.09 7.801,-0.262 2.774,-0.18 5.195,-0.609 7.281,-1.301 v -57.168 c -4.164,1.039 -7.726,1.731 -10.66,2.078 -2.953,0.344 -5.801,0.52 -8.578,0.52 -14.207,0 -25.641,-2.598 -34.301,-7.797 -8.66,-5.195 -15.418,-11.433 -20.261,-18.711 -4.86,-7.273 -8.157,-14.726 -9.879,-22.344 -1.743,-7.625 -2.598,-13.691 -2.598,-18.191 V 337.262 H 263.508 V 586.73" /><path
         id="path18"
         style="fill:#1da7e7;fill-opacity:1;fill-rule:nonzero;stroke:none"
         d="m 604.961,486.941 c 0,7.965 -1.125,15.59 -3.379,22.868 -2.254,7.277 -5.809,13.683 -10.652,19.234 -4.86,5.535 -11.004,9.953 -18.453,13.25 -7.45,3.293 -16.204,4.937 -26.243,4.937 -18.714,0 -34.562,-5.636 -47.558,-16.89 -12.992,-11.266 -20.188,-25.727 -21.567,-43.399 z m 62.367,-28.062 c 0,-2.781 0,-5.547 0,-8.316 0,-2.778 -0.176,-5.547 -0.519,-8.317 h -189.7 c 0.688,-9.012 3.028,-17.238 7.02,-24.687 3.969,-7.454 9.258,-13.86 15.848,-19.231 6.578,-5.375 14.031,-9.613 22.347,-12.73 8.317,-3.121 16.969,-4.68 25.989,-4.68 15.593,0 28.753,2.859 39.496,8.574 10.738,5.719 19.566,13.598 26.511,23.649 l 41.575,-33.262 c -24.61,-33.262 -60.29,-49.895 -107.071,-49.895 -19.402,0 -37.246,3.039 -53.523,9.098 -16.293,6.059 -30.406,14.633 -42.363,25.727 -11.958,11.082 -21.305,24.683 -28.067,40.796 -6.758,16.11 -10.129,34.383 -10.129,54.833 0,20.089 3.371,38.371 10.129,54.828 6.762,16.453 16.027,30.488 27.805,42.101 11.781,11.602 25.734,20.606 41.844,27.028 16.109,6.406 33.523,9.613 52.238,9.613 17.316,0 33.336,-2.86 48.066,-8.578 14.727,-5.715 27.457,-14.211 38.203,-25.465 10.735,-11.266 19.133,-25.297 25.203,-42.098 6.055,-16.808 9.098,-36.469 9.098,-58.988" /><path
         id="path20"
         style="fill:#1da7e7;fill-opacity:1;fill-rule:nonzero;stroke:none"
         d="m 757.754,463.035 c 0,-9.703 1.469,-19.41 4.414,-29.101 2.941,-9.707 7.355,-18.371 13.258,-25.989 5.883,-7.625 13.332,-13.859 22.347,-18.711 9.012,-4.855 19.571,-7.277 31.704,-7.277 11.433,0 21.648,2.34 30.66,7.02 9.015,4.675 16.715,10.824 23.129,18.449 6.41,7.613 11.254,16.191 14.554,25.722 3.289,9.528 4.938,19.141 4.938,28.848 0,9.695 -1.649,19.402 -4.938,29.102 -3.3,9.699 -8.144,18.363 -14.554,25.988 -6.414,7.617 -14.114,13.855 -23.129,18.711 -9.012,4.848 -19.227,7.277 -30.66,7.277 -12.133,0 -22.692,-2.34 -31.704,-7.015 -9.015,-4.68 -16.464,-10.832 -22.347,-18.45 -5.903,-7.629 -10.317,-16.203 -13.258,-25.726 -2.945,-9.535 -4.414,-19.149 -4.414,-28.848 z M 963.047,337.262 h -59.258 v 37.422 h -1.031 c -8.668,-14.551 -20.707,-25.645 -36.121,-33.262 -15.418,-7.621 -31.965,-11.438 -49.629,-11.438 -19.067,0 -36.125,3.559 -51.195,10.657 -15.083,7.097 -27.895,16.632 -38.461,28.582 -10.571,11.957 -18.707,25.988 -24.426,42.101 -5.715,16.11 -8.582,33.34 -8.582,51.711 0,18.363 2.941,35.512 8.844,51.453 5.882,15.934 14.199,29.797 24.937,41.578 10.742,11.778 23.559,21.051 38.465,27.805 14.89,6.758 31.183,10.137 48.855,10.137 11.434,0 21.649,-1.301 30.66,-3.899 9.004,-2.601 16.891,-5.808 23.645,-9.617 6.758,-3.816 12.559,-7.972 17.41,-12.472 4.852,-4.508 8.844,-8.836 11.957,-12.997 h 1.563 v 149.032 h 62.367 V 337.262" /><path
         id="path22"
         style="fill:#1da7e7;fill-opacity:1;fill-rule:nonzero;stroke:none"
         d="m 1056.07,463.035 c 0,-9.703 1.47,-19.41 4.41,-29.101 2.94,-9.707 7.36,-18.371 13.26,-25.989 5.89,-7.625 13.33,-13.859 22.35,-18.711 9.01,-4.855 19.57,-7.277 31.7,-7.277 11.44,0 21.65,2.34 30.66,7.02 9.02,4.675 16.72,10.824 23.13,18.449 6.41,7.613 11.25,16.191 14.56,25.722 3.28,9.528 4.93,19.141 4.93,28.848 0,9.695 -1.65,19.402 -4.93,29.102 -3.31,9.699 -8.15,18.363 -14.56,25.988 -6.41,7.617 -14.11,13.855 -23.13,18.711 -9.01,4.848 -19.22,7.277 -30.66,7.277 -12.13,0 -22.69,-2.34 -31.7,-7.015 -9.02,-4.68 -16.46,-10.832 -22.35,-18.45 -5.9,-7.629 -10.32,-16.203 -13.26,-25.726 -2.94,-9.535 -4.41,-19.149 -4.41,-28.848 z m 205.29,-125.773 h -59.25 v 37.422 h -1.04 c -8.67,-14.551 -20.71,-25.645 -36.12,-33.262 -15.42,-7.621 -31.96,-11.438 -49.63,-11.438 -19.06,0 -36.12,3.559 -51.19,10.657 -15.08,7.097 -27.9,16.632 -38.46,28.582 -10.57,11.957 -18.71,25.988 -24.43,42.101 -5.717,16.11 -8.584,33.34 -8.584,51.711 0,18.363 2.946,35.512 8.844,51.453 5.89,15.934 14.2,29.797 24.94,41.578 10.74,11.778 23.56,21.051 38.46,27.805 14.89,6.758 31.19,10.137 48.86,10.137 11.43,0 21.65,-1.301 30.66,-3.899 9.01,-2.601 16.89,-5.808 23.64,-9.617 6.76,-3.816 12.57,-7.972 17.42,-12.472 4.85,-4.508 8.84,-8.836 11.95,-12.997 h 1.56 v 149.032 h 62.37 V 337.262" /><path
         id="path24"
         style="fill:#1da7e7;fill-opacity:1;fill-rule:nonzero;stroke:none"
         d="m 1315.22,586.73 h 62.37 V 337.262 h -62.37 z m -8.83,84.715 c 0,10.047 3.72,18.789 11.18,26.246 7.44,7.446 16.89,11.176 28.32,11.176 11.43,0 21.05,-3.558 28.84,-10.656 7.8,-7.106 11.69,-16.031 11.69,-26.766 0,-10.746 -3.89,-19.672 -11.69,-26.765 -7.79,-7.106 -17.41,-10.653 -28.84,-10.653 -11.43,0 -20.88,3.715 -28.32,11.172 -7.46,7.446 -11.18,16.196 -11.18,26.246" /><path
         id="path26"
         style="fill:#1da7e7;fill-opacity:1;fill-rule:nonzero;stroke:none"
         d="m 1606.07,486.941 c 0,7.965 -1.13,15.59 -3.38,22.868 -2.26,7.277 -5.81,13.683 -10.65,19.234 -4.86,5.535 -11.01,9.953 -18.46,13.25 -7.45,3.293 -16.2,4.937 -26.24,4.937 -18.71,0 -34.56,-5.636 -47.56,-16.89 -12.99,-11.266 -20.18,-25.727 -21.56,-43.399 z m 62.37,-28.062 c 0,-2.781 0,-5.547 0,-8.316 0,-2.778 -0.18,-5.547 -0.53,-8.317 h -189.69 c 0.69,-9.012 3.02,-17.238 7.01,-24.687 3.98,-7.454 9.27,-13.86 15.85,-19.231 6.58,-5.375 14.04,-9.613 22.35,-12.73 8.32,-3.121 16.98,-4.68 25.99,-4.68 15.59,0 28.75,2.859 39.5,8.574 10.73,5.719 19.57,13.598 26.51,23.649 L 1657,379.879 c -24.61,-33.262 -60.29,-49.895 -107.06,-49.895 -19.41,0 -37.25,3.039 -53.53,9.098 -16.29,6.059 -30.41,14.633 -42.36,25.727 -11.95,11.082 -21.31,24.683 -28.07,40.796 -6.75,16.11 -10.13,34.383 -10.13,54.833 0,20.089 3.38,38.371 10.13,54.828 6.76,16.453 16.03,30.488 27.81,42.101 11.77,11.602 25.72,20.606 41.84,27.028 16.11,6.406 33.52,9.613 52.23,9.613 17.32,0 33.34,-2.86 48.07,-8.578 14.73,-5.715 27.46,-14.211 38.2,-25.465 10.74,-11.266 19.14,-25.297 25.21,-42.098 6.06,-16.808 9.1,-36.469 9.1,-58.988" /><path
         id="path28"
         style="fill:#7ac326;fill-opacity:1;fill-rule:nonzero;stroke:none"
         d="m 1752.69,705.227 h 102.39 l 95.63,-261.418 h 1.55 l 94.6,261.418 h 102.9 V 337.262 h -64.96 v 295.722 h -1.04 L 1972.01,337.262 h -45.73 l -110.19,295.722 h -1.03 V 337.262 h -62.37 v 367.965" /><path
         id="path30"
         style="fill:#7ac326;fill-opacity:1;fill-rule:nonzero;stroke:none"
         d="m 2358.5,451.082 h -14.04 c -10.05,0 -20.62,-0.437 -31.7,-1.297 -11.1,-0.871 -21.31,-2.777 -30.67,-5.719 -9.35,-2.949 -17.15,-7.109 -23.38,-12.476 -6.24,-5.375 -9.36,-12.731 -9.36,-22.086 0,-5.899 1.3,-10.832 3.9,-14.813 2.6,-3.988 5.98,-7.195 10.13,-9.617 4.16,-2.422 8.84,-4.156 14.03,-5.195 5.2,-1.035 10.4,-1.559 15.6,-1.559 21.47,0 37.76,5.719 48.85,17.153 11.09,11.433 16.64,27.023 16.64,46.773 z m 1.03,-82.113 h -1.56 c -6.23,-11.094 -16.29,-20.192 -30.14,-27.289 -13.86,-7.094 -29.62,-10.657 -47.3,-10.657 -10.05,0 -20.53,1.301 -31.44,3.903 -10.91,2.597 -20.97,6.922 -30.14,12.988 -9.19,6.059 -16.82,14.035 -22.87,23.91 -6.07,9.875 -9.1,22.086 -9.1,36.641 0,18.711 5.28,33.601 15.85,44.695 10.57,11.086 24.17,19.574 40.8,25.465 16.63,5.891 35.09,9.789 55.36,11.695 20.26,1.903 40.09,2.86 59.51,2.86 v 6.238 c 0,15.594 -5.65,27.105 -16.9,34.559 -11.26,7.449 -24.69,11.175 -40.28,11.175 -13.17,0 -25.81,-2.773 -37.94,-8.316 -12.13,-5.547 -22.18,-12.301 -30.14,-20.266 l -32.23,37.938 c 14.21,13.164 30.58,23.039 49.12,29.625 18.53,6.574 37.33,9.875 56.39,9.875 22.17,0 40.45,-3.121 54.83,-9.36 14.37,-6.234 25.72,-14.378 34.05,-24.421 8.31,-10.055 14.1,-21.313 17.4,-33.782 3.3,-12.476 4.94,-24.949 4.94,-37.422 V 337.262 h -58.21 v 31.707" /><path
         id="path32"
         style="fill:#7ac326;fill-opacity:1;fill-rule:nonzero;stroke:none"
         d="m 2637.89,517.609 c -4.85,6.926 -12.13,12.731 -21.83,17.407 -9.7,4.679 -19.57,7.019 -29.62,7.019 -11.43,0 -21.49,-2.34 -30.15,-7.019 -8.66,-4.676 -15.85,-10.832 -21.56,-18.446 -5.72,-7.625 -9.97,-16.203 -12.73,-25.726 -2.79,-9.535 -4.16,-19.153 -4.16,-28.848 0,-9.707 1.47,-19.32 4.41,-28.848 2.94,-9.531 7.36,-18.109 13.26,-25.722 5.88,-7.625 13.25,-13.774 22.08,-18.449 8.84,-4.68 19.15,-7.02 30.93,-7.02 9.69,0 19.4,1.902 29.1,5.719 9.7,3.808 17.49,9.355 23.39,16.633 l 38.98,-39.5 c -10.4,-11.094 -23.65,-19.668 -39.76,-25.727 -16.11,-6.059 -33.52,-9.098 -52.23,-9.098 -18.37,0 -35.78,2.95 -52.23,8.836 -16.46,5.887 -30.85,14.555 -43.14,25.989 -12.3,11.433 -22.01,25.289 -29.11,41.578 -7.1,16.277 -10.65,34.824 -10.65,55.609 0,20.09 3.55,38.281 10.65,54.574 7.1,16.282 16.72,30.141 28.85,41.575 12.12,11.433 26.25,20.269 42.36,26.503 16.1,6.239 33.34,9.36 51.71,9.36 18.36,0 36.12,-3.469 53.27,-10.399 17.15,-6.933 30.75,-16.461 40.8,-28.586 l -42.62,-37.414" /><path
         id="path34"
         style="fill:#7ac326;fill-opacity:1;fill-rule:nonzero;stroke:none"
         d="m 811.859,704.055 v 77.789 L 569.344,939.656 326.828,781.844 V 704.055 L 569.344,862.547 811.859,704.055" /><path
         id="path36"
         style="fill:#7ac326;fill-opacity:1;fill-rule:nonzero;stroke:none"
         d="m 745.336,845.133 v 94.523 h -66.523 v -51.234 l 66.523,-43.289" /><path
         id="path38"
         style="fill:#706d67;fill-opacity:1;fill-rule:nonzero;stroke:none"
         d="m 226.281,82.7852 h 0.442 l 35.785,121.5938 h 23.496 L 321.578,82.7852 h 0.434 l 33.625,121.5938 h 22.636 L 333.434,51.7383 H 311.23 L 274.152,174.414 h -0.441 L 236.633,51.7383 H 214.43 L 169.59,204.379 h 23.066 L 226.281,82.7852" /><path
         id="path40"
         style="fill:#706d67;fill-opacity:1;fill-rule:nonzero;stroke:none"
         d="m 456.527,111.891 c -0.144,4.015 -0.828,7.797 -2.043,11.312 -1.222,3.527 -3.019,6.582 -5.39,9.164 -2.367,2.59 -5.321,4.641 -8.84,6.149 -3.527,1.511 -7.652,2.261 -12.395,2.261 -4.308,0 -8.375,-0.75 -12.179,-2.261 -3.813,-1.508 -7.121,-3.559 -9.922,-6.149 -2.801,-2.582 -5.106,-5.637 -6.895,-9.164 -1.804,-3.515 -2.84,-7.297 -3.129,-11.312 z m 20.703,-8.192 c 0,-1.156 0,-2.301 0,-3.449 0,-1.1562 -0.078,-2.3047 -0.218,-3.4492 h -81.278 c 0.145,-4.2891 1.114,-8.3203 2.911,-12.1016 1.796,-3.7773 4.203,-7.0664 7.222,-9.8437 3.02,-2.7852 6.504,-4.961 10.453,-6.5313 3.957,-1.5664 8.157,-2.3515 12.614,-2.3515 6.898,0 12.863,1.5 17.89,4.5195 5.039,3.0234 8.989,6.6836 11.864,11.0039 l 14.23,-11.4336 c -5.465,-7.2383 -11.895,-12.5703 -19.301,-15.9922 -7.398,-3.418 -15.625,-5.1328 -24.683,-5.1328 -7.762,0 -14.95,1.293 -21.555,3.8828 -6.617,2.582 -12.293,6.207 -17.035,10.8828 -4.742,4.6758 -8.477,10.3164 -11.211,16.9219 -2.735,6.6133 -4.09,13.9453 -4.09,21.996 0,7.902 1.324,15.192 3.988,21.883 2.664,6.68 6.379,12.394 11.129,17.133 4.758,4.742 10.375,8.445 16.856,11.101 6.476,2.66 13.464,3.992 20.957,3.992 7.48,0 14.289,-1.222 20.414,-3.66 6.117,-2.449 11.304,-5.965 15.554,-10.562 4.247,-4.606 7.528,-10.176 9.829,-16.711 2.304,-6.539 3.46,-13.906 3.46,-22.098" /><path
         id="path42"
         style="fill:#706d67;fill-opacity:1;fill-rule:nonzero;stroke:none"
         d="m 580.609,151.02 c 5.676,3.804 12.403,5.71 20.164,5.71 6.891,0 13.11,-1.585 18.645,-4.742 5.531,-3.164 9.879,-8.41 13.043,-15.742 3.449,6.613 8.266,11.676 14.441,15.203 6.184,3.52 12.942,5.281 20.274,5.281 6.605,0 12.281,-1.113 17.023,-3.339 4.75,-2.227 8.699,-5.215 11.864,-8.953 3.152,-3.735 5.492,-8.114 7,-13.141 1.511,-5.039 2.269,-10.43 2.269,-16.176 V 51.7383 h -20.266 v 56.7027 c 0,4.168 -0.363,8.118 -1.078,11.852 -0.726,3.738 -1.941,7.047 -3.672,9.922 -1.718,2.867 -4.023,5.172 -6.89,6.902 -2.875,1.719 -6.547,2.582 -11,2.582 -4.598,0 -8.547,-0.972 -11.856,-2.914 -3.304,-1.937 -6.004,-4.453 -8.082,-7.539 -2.09,-3.098 -3.601,-6.582 -4.527,-10.461 -0.938,-3.875 -1.402,-7.832 -1.402,-11.855 V 51.7383 h -20.262 v 60.7927 c 0,4.028 -0.363,7.696 -1.082,11.004 -0.727,3.297 -1.942,6.141 -3.668,8.512 -1.723,2.367 -3.949,4.234 -6.684,5.609 -2.734,1.36 -6.105,2.043 -10.133,2.043 -7.472,0 -13.691,-3.054 -18.644,-9.164 -4.957,-6.105 -7.438,-14.265 -7.438,-24.465 V 51.7383 h -20.265 v 80.1997 c 0,2.734 -0.074,6.25 -0.219,10.57 -0.144,4.308 -0.355,8.113 -0.641,11.422 h 19.184 c 0.285,-2.59 0.504,-5.5 0.648,-8.731 0.145,-3.23 0.211,-5.933 0.211,-8.082 h 0.649 c 2.59,5.457 6.719,10.09 12.394,13.903" /><path
         id="path44"
         style="fill:#706d67;fill-opacity:1;fill-rule:nonzero;stroke:none"
         d="m 792.859,100.461 c -5.035,0 -10.242,-0.211 -15.632,-0.6407 -5.391,-0.4297 -10.278,-1.3008 -14.664,-2.5898 -4.387,-1.293 -8.012,-3.2344 -10.883,-5.8242 -2.875,-2.5899 -4.309,-6.0313 -4.309,-10.3477 0,-3.0117 0.606,-5.5352 1.828,-7.543 1.227,-2.0195 2.836,-3.664 4.852,-4.9609 2.008,-1.293 4.234,-2.1953 6.683,-2.6914 2.446,-0.5078 4.961,-0.7617 7.551,-0.7617 9.481,0 16.77,2.8437 21.875,8.5234 5.106,5.6758 7.66,12.8203 7.66,21.4453 v 5.3907 z m 4.961,17.461 c 0,7.621 -2.304,13.262 -6.902,16.926 -4.605,3.668 -10.715,5.5 -18.324,5.5 -5.75,0 -11.176,-1.114 -16.281,-3.34 -5.102,-2.231 -9.372,-5.07 -12.825,-8.524 l -10.781,12.942 c 5.027,4.742 11.172,8.48 18.434,11.215 7.257,2.722 15.05,4.089 23.394,4.089 7.332,0 13.684,-1.046 19.074,-3.121 5.391,-2.093 9.813,-4.925 13.262,-8.519 3.449,-3.594 6.031,-7.84 7.762,-12.723 1.722,-4.887 2.582,-10.133 2.582,-15.734 V 72.0039 c 0,-3.4492 0.109,-7.0781 0.328,-10.8828 0.211,-3.8125 0.609,-6.9414 1.184,-9.3828 h -18.325 c -1.148,4.8867 -1.722,9.7734 -1.722,14.664 h -0.649 c -3.738,-5.4648 -8.445,-9.7031 -14.125,-12.7226 -5.676,-3.0195 -12.39,-4.5313 -20.152,-4.5313 -4.024,0 -8.234,0.543 -12.613,1.6211 -4.387,1.0821 -8.375,2.836 -11.961,5.2813 -3.594,2.4453 -6.582,5.6797 -8.953,9.7031 -2.372,4.0234 -3.551,8.9844 -3.551,14.8711 0,7.7617 2.074,13.9141 6.25,18.4336 4.168,4.5314 9.629,7.9804 16.387,10.3514 6.746,2.371 14.367,3.914 22.851,4.633 8.481,0.719 17.024,1.078 25.656,1.078 v 2.801" /><path
         id="path46"
         style="fill:#706d67;fill-opacity:1;fill-rule:nonzero;stroke:none"
         d="m 866.363,109.52 h 0.653 l 42.898,44.41 h 27.164 L 889.219,107.578 941.18,51.7383 H 913.152 L 867.016,104.77 h -0.653 V 51.7383 H 846.102 V 214.723 h 20.261 V 109.52" /><path
         id="path48"
         style="fill:#706d67;fill-opacity:1;fill-rule:nonzero;stroke:none"
         d="m 1024.82,111.891 c -0.15,4.015 -0.83,7.797 -2.05,11.312 -1.22,3.527 -3.02,6.582 -5.39,9.164 -2.37,2.59 -5.32,4.641 -8.84,6.149 -3.52,1.511 -7.65,2.261 -12.392,2.261 -4.308,0 -8.375,-0.75 -12.179,-2.261 -3.817,-1.508 -7.121,-3.559 -9.922,-6.149 -2.801,-2.582 -5.106,-5.637 -6.895,-9.164 -1.804,-3.515 -2.839,-7.297 -3.129,-11.312 z m 20.7,-8.192 c 0,-1.156 0,-2.301 0,-3.449 0,-1.1562 -0.08,-2.3047 -0.22,-3.4492 h -81.277 c 0.145,-4.2891 1.114,-8.3203 2.911,-12.1016 1.796,-3.7773 4.203,-7.0664 7.222,-9.8437 3.02,-2.7852 6.504,-4.961 10.453,-6.5313 3.957,-1.5664 8.157,-2.3515 12.614,-2.3515 6.897,0 12.867,1.5 17.887,4.5195 5.04,3.0234 8.99,6.6836 11.87,11.0039 l 14.23,-11.4336 c -5.47,-7.2383 -11.9,-12.5703 -19.3,-15.9922 -7.4,-3.418 -15.63,-5.1328 -24.687,-5.1328 -7.762,0 -14.95,1.293 -21.559,3.8828 -6.613,2.582 -12.289,6.207 -17.031,10.8828 -4.742,4.6758 -8.477,10.3164 -11.211,16.9219 -2.734,6.6133 -4.094,13.9453 -4.094,21.996 0,7.902 1.324,15.192 3.992,21.883 2.664,6.68 6.379,12.394 11.129,17.133 4.758,4.742 10.375,8.445 16.856,11.101 6.476,2.66 13.465,3.992 20.953,3.992 7.482,0 14.292,-1.222 20.422,-3.66 6.11,-2.449 11.3,-5.965 15.55,-10.562 4.25,-4.606 7.53,-10.176 9.83,-16.711 2.3,-6.539 3.46,-13.906 3.46,-22.098" /><path
         id="path50"
         style="fill:#706d67;fill-opacity:1;fill-rule:nonzero;stroke:none"
         d="m 1137.79,138.406 c 2.44,5.028 6.61,9.34 12.5,12.934 5.9,3.594 12.51,5.39 19.83,5.39 6.62,0 12.3,-1.113 17.04,-3.339 4.74,-2.227 8.69,-5.215 11.86,-8.953 3.15,-3.735 5.49,-8.114 7,-13.141 1.51,-5.039 2.27,-10.43 2.27,-16.176 V 51.7383 h -20.26 v 56.6247 c 0,4.176 -0.33,8.145 -0.97,11.891 -0.65,3.742 -1.84,7.051 -3.56,9.937 -1.73,2.875 -4.07,5.188 -7.02,6.918 -2.94,1.727 -6.79,2.59 -11.53,2.59 -8.05,0 -14.66,-3.062 -19.83,-9.187 -5.17,-6.117 -7.76,-14.301 -7.76,-24.528 V 51.7383 h -20.27 V 214.723 h 20.27 v -76.317 h 0.43" /><path
         id="path52"
         style="fill:#706d67;fill-opacity:1;fill-rule:nonzero;stroke:none"
         d="m 1319.53,102.941 c 0,4.875 -0.76,9.532 -2.27,13.969 -1.52,4.445 -3.71,8.352 -6.6,11.719 -2.88,3.367 -6.45,6.051 -10.7,8.059 -4.25,2.007 -9.12,3.011 -14.6,3.011 -5.48,0 -10.35,-1.004 -14.6,-3.011 -4.25,-2.008 -7.82,-4.692 -10.7,-8.059 -2.89,-3.367 -5.09,-7.274 -6.6,-11.719 -1.52,-4.437 -2.27,-9.094 -2.27,-13.969 0,-4.8785 0.75,-9.5347 2.27,-13.9722 1.51,-4.4454 3.71,-8.3868 6.6,-11.8282 2.88,-3.4336 6.45,-6.1562 10.7,-8.164 4.25,-2.0078 9.12,-3.0039 14.6,-3.0039 5.48,0 10.35,0.9961 14.6,3.0039 4.25,2.0078 7.82,4.7304 10.7,8.164 2.89,3.4414 5.08,7.3828 6.6,11.8282 1.51,4.4375 2.27,9.0937 2.27,13.9722 z m 21.13,0.11 c 0,-7.9065 -1.4,-15.1682 -4.21,-21.7737 -2.8,-6.6171 -6.68,-12.3281 -11.64,-17.1445 -4.96,-4.8164 -10.81,-8.5469 -17.57,-11.2031 -6.76,-2.6563 -14.01,-3.9922 -21.77,-3.9922 -7.77,0 -15.02,1.3359 -21.78,3.9922 -6.76,2.6562 -12.58,6.3867 -17.46,11.2031 -4.89,4.8164 -8.73,10.5274 -11.53,17.1445 -2.81,6.6055 -4.21,13.8672 -4.21,21.7737 0,7.902 1.4,15.125 4.21,21.664 2.8,6.539 6.64,12.183 11.53,16.922 4.88,4.742 10.7,8.445 17.46,11.101 6.76,2.66 14.01,3.992 21.78,3.992 7.76,0 15.01,-1.332 21.77,-3.992 6.76,-2.656 12.61,-6.359 17.57,-11.101 4.96,-4.739 8.84,-10.383 11.64,-16.922 2.81,-6.539 4.21,-13.762 4.21,-21.664" /><path
         id="path54"
         style="fill:#706d67;fill-opacity:1;fill-rule:nonzero;stroke:none"
         d="m 1395.53,151.02 c 5.67,3.804 12.4,5.71 20.16,5.71 6.89,0 13.11,-1.585 18.64,-4.742 5.54,-3.164 9.88,-8.41 13.05,-15.742 3.45,6.613 8.26,11.676 14.44,15.203 6.18,3.52 12.94,5.281 20.27,5.281 6.61,0 12.28,-1.113 17.03,-3.339 4.75,-2.227 8.69,-5.215 11.86,-8.953 3.15,-3.735 5.49,-8.114 7,-13.141 1.51,-5.039 2.27,-10.43 2.27,-16.176 V 51.7383 h -20.27 v 56.7027 c 0,4.168 -0.36,8.118 -1.08,11.852 -0.72,3.738 -1.94,7.047 -3.66,9.922 -1.73,2.867 -4.03,5.172 -6.9,6.902 -2.87,1.719 -6.54,2.582 -11,2.582 -4.6,0 -8.54,-0.972 -11.85,-2.914 -3.31,-1.937 -6.01,-4.453 -8.08,-7.539 -2.1,-3.098 -3.61,-6.582 -4.53,-10.461 -0.94,-3.875 -1.4,-7.832 -1.4,-11.855 V 51.7383 h -20.27 v 60.7927 c 0,4.028 -0.36,7.696 -1.08,11.004 -0.72,3.297 -1.94,6.141 -3.67,8.512 -1.72,2.367 -3.95,4.234 -6.68,5.609 -2.73,1.36 -6.11,2.043 -10.13,2.043 -7.48,0 -13.69,-3.054 -18.65,-9.164 -4.96,-6.105 -7.44,-14.265 -7.44,-24.465 V 51.7383 h -20.26 v 80.1997 c 0,2.734 -0.08,6.25 -0.22,10.57 -0.14,4.308 -0.35,8.113 -0.64,11.422 h 19.18 c 0.29,-2.59 0.51,-5.5 0.65,-8.731 0.15,-3.23 0.21,-5.933 0.21,-8.082 h 0.65 c 2.59,5.457 6.72,10.09 12.4,13.903" /><path
         id="path56"
         style="fill:#706d67;fill-opacity:1;fill-rule:nonzero;stroke:none"
         d="m 1623.94,111.891 c -0.14,4.015 -0.83,7.797 -2.04,11.312 -1.22,3.527 -3.02,6.582 -5.39,9.164 -2.37,2.59 -5.33,4.641 -8.84,6.149 -3.53,1.511 -7.66,2.261 -12.4,2.261 -4.31,0 -8.37,-0.75 -12.18,-2.261 -3.81,-1.508 -7.12,-3.559 -9.92,-6.149 -2.8,-2.582 -5.1,-5.637 -6.89,-9.164 -1.81,-3.515 -2.85,-7.297 -3.13,-11.312 z m 20.7,-8.192 c 0,-1.156 0,-2.301 0,-3.449 0,-1.1562 -0.07,-2.3047 -0.22,-3.4492 h -81.27 c 0.14,-4.2891 1.11,-8.3203 2.91,-12.1016 1.8,-3.7773 4.2,-7.0664 7.22,-9.8437 3.02,-2.7852 6.5,-4.961 10.45,-6.5313 3.96,-1.5664 8.16,-2.3515 12.61,-2.3515 6.91,0 12.87,1.5 17.9,4.5195 5.03,3.0234 8.98,6.6836 11.86,11.0039 l 14.23,-11.4336 c -5.47,-7.2383 -11.89,-12.5703 -19.3,-15.9922 -7.4,-3.418 -15.62,-5.1328 -24.69,-5.1328 -7.76,0 -14.94,1.293 -21.55,3.8828 -6.61,2.582 -12.29,6.207 -17.03,10.8828 -4.74,4.6758 -8.48,10.3164 -11.22,16.9219 -2.73,6.6133 -4.09,13.9453 -4.09,21.996 0,7.902 1.33,15.192 3.99,21.883 2.67,6.68 6.38,12.394 11.13,17.133 4.76,4.742 10.38,8.445 16.86,11.101 6.48,2.66 13.46,3.992 20.95,3.992 7.49,0 14.29,-1.222 20.42,-3.66 6.12,-2.449 11.3,-5.965 15.56,-10.562 4.24,-4.606 7.52,-10.176 9.82,-16.711 2.31,-6.539 3.46,-13.906 3.46,-22.098" /><path
         id="path58"
         style="fill:#706d67;fill-opacity:1;fill-rule:nonzero;stroke:none"
         d="m 1803.31,103.051 c 0,4.738 -0.71,9.34 -2.15,13.801 -1.44,4.445 -3.59,8.402 -6.47,11.851 -2.88,3.453 -6.44,6.176 -10.67,8.195 -4.24,2.008 -9.16,3.02 -14.77,3.02 -5.17,0 -9.88,-1.012 -14.12,-3.02 -4.24,-2.019 -7.87,-4.742 -10.89,-8.195 -3.02,-3.449 -5.35,-7.406 -7,-11.851 -1.65,-4.461 -2.48,-9.137 -2.48,-14.02 0,-4.8867 0.83,-9.5586 2.48,-14.0156 1.65,-4.4531 3.98,-8.3672 7,-11.7422 3.02,-3.3828 6.65,-6.0742 10.89,-8.0898 4.24,-2.0078 8.95,-3.0117 14.12,-3.0117 5.61,0 10.53,1.039 14.77,3.1211 4.23,2.0859 7.79,4.8515 10.67,8.3007 2.88,3.4532 5.03,7.3985 6.47,11.8633 1.44,4.4453 2.15,9.0508 2.15,13.7932 z M 1736.05,0 h -20.26 v 153.93 h 19.83 v -15.953 h 0.65 c 3.29,5.457 8.13,9.945 14.51,13.472 6.38,3.52 13.8,5.281 22.26,5.281 7.6,0 14.51,-1.367 20.76,-4.089 6.23,-2.735 11.61,-6.547 16.13,-11.434 4.51,-4.883 7.99,-10.594 10.42,-17.133 2.44,-6.547 3.66,-13.551 3.66,-21.023 0,-7.4768 -1.22,-14.5197 -3.66,-21.1252 -2.43,-6.6133 -5.88,-12.3672 -10.32,-17.2539 -4.45,-4.8828 -9.82,-8.7305 -16.13,-11.5313 -6.3,-2.8008 -13.41,-4.2031 -21.29,-4.2031 -7.31,0 -14.19,1.5781 -20.64,4.7422 -6.45,3.1641 -11.55,7.6211 -15.27,13.3633 h -0.65 V 0" /><path
         id="path60"
         style="fill:#706d67;fill-opacity:1;fill-rule:nonzero;stroke:none"
         d="m 1929.43,102.941 c 0,4.875 -0.76,9.532 -2.27,13.969 -1.52,4.445 -3.71,8.352 -6.6,11.719 -2.88,3.367 -6.45,6.051 -10.7,8.059 -4.26,2.007 -9.12,3.011 -14.61,3.011 -5.47,0 -10.34,-1.004 -14.59,-3.011 -4.25,-2.008 -7.82,-4.692 -10.71,-8.059 -2.88,-3.367 -5.09,-7.274 -6.6,-11.719 -1.51,-4.437 -2.26,-9.094 -2.26,-13.969 0,-4.8785 0.75,-9.5347 2.26,-13.9722 1.51,-4.4454 3.72,-8.3868 6.6,-11.8282 2.89,-3.4336 6.46,-6.1562 10.71,-8.164 4.25,-2.0078 9.12,-3.0039 14.59,-3.0039 5.49,0 10.35,0.9961 14.61,3.0039 4.25,2.0078 7.82,4.7304 10.7,8.164 2.89,3.4414 5.08,7.3828 6.6,11.8282 1.51,4.4375 2.27,9.0937 2.27,13.9722 z m 21.12,0.11 c 0,-7.9065 -1.4,-15.1682 -4.2,-21.7737 -2.8,-6.6171 -6.68,-12.3281 -11.64,-17.1445 -4.96,-4.8164 -10.82,-8.5469 -17.57,-11.2031 -6.76,-2.6563 -14.02,-3.9922 -21.78,-3.9922 -7.76,0 -15.01,1.3359 -21.77,3.9922 -6.76,2.6562 -12.58,6.3867 -17.47,11.2031 -4.88,4.8164 -8.73,10.5274 -11.53,17.1445 -2.8,6.6055 -4.2,13.8672 -4.2,21.7737 0,7.902 1.4,15.125 4.2,21.664 2.8,6.539 6.65,12.183 11.53,16.922 4.89,4.742 10.71,8.445 17.47,11.101 6.76,2.66 14.01,3.992 21.77,3.992 7.76,0 15.02,-1.332 21.78,-3.992 6.75,-2.656 12.61,-6.359 17.57,-11.101 4.96,-4.739 8.84,-10.383 11.64,-16.922 2.8,-6.539 4.2,-13.762 4.2,-21.664" /><path
         id="path62"
         style="fill:#706d67;fill-opacity:1;fill-rule:nonzero;stroke:none"
         d="m 2028.38,128.055 c -2.31,3.738 -5.54,6.793 -9.7,9.164 -4.17,2.379 -8.84,3.558 -14.02,3.558 -2.3,0 -4.6,-0.254 -6.9,-0.75 -2.3,-0.507 -4.34,-1.3 -6.14,-2.371 -1.8,-1.082 -3.23,-2.445 -4.31,-4.101 -1.08,-1.653 -1.62,-3.703 -1.62,-6.141 0,-4.312 1.94,-7.516 5.82,-9.601 3.88,-2.083 9.7,-3.981 17.46,-5.711 4.89,-1.149 9.42,-2.512 13.59,-4.09 4.16,-1.586 7.79,-3.563 10.88,-5.934 3.1,-2.371 5.5,-5.2108 7.23,-8.5116 1.72,-3.3125 2.58,-7.1875 2.58,-11.6406 0,-6.0391 -1.15,-11.1445 -3.45,-15.3125 -2.29,-4.168 -5.36,-7.586 -9.16,-10.2422 -3.81,-2.6563 -8.16,-4.5625 -13.04,-5.7109 -4.89,-1.1485 -9.92,-1.7227 -15.1,-1.7227 -7.76,0 -15.33,1.5117 -22.74,4.5234 -7.4,3.0196 -13.55,7.6172 -18.43,13.8008 l 14.45,12.293 c 2.72,-4.0313 6.49,-7.4063 11.31,-10.1406 4.82,-2.7227 10.1,-4.0899 15.84,-4.0899 2.59,0 5.07,0.2422 7.44,0.75 2.38,0.5039 4.54,1.3321 6.48,2.4805 1.94,1.1445 3.48,2.6562 4.63,4.5273 1.14,1.8672 1.73,4.2383 1.73,7.1133 0,4.7422 -2.27,8.2695 -6.79,10.5625 -4.53,2.3047 -11.18,4.457 -19.95,6.4727 -3.45,0.8593 -6.93,1.9062 -10.46,3.1285 -3.52,1.215 -6.71,2.911 -9.59,5.063 -2.88,2.156 -5.21,4.851 -7,8.082 -1.81,3.238 -2.7,7.219 -2.7,11.969 0,5.461 1.11,10.168 3.34,14.125 2.22,3.949 5.14,7.179 8.73,9.691 3.59,2.516 7.69,4.387 12.29,5.609 4.6,1.215 9.34,1.832 14.23,1.832 7.33,0 14.4,-1.433 21.24,-4.308 6.82,-2.879 12.1,-7.047 15.84,-12.504 l -14.01,-11.863" /><path
         id="path64"
         style="fill:#706d67;fill-opacity:1;fill-rule:nonzero;stroke:none"
         d="m 2118.71,128.055 c -2.31,3.738 -5.54,6.793 -9.71,9.164 -4.16,2.379 -8.84,3.558 -14.01,3.558 -2.3,0 -4.6,-0.254 -6.9,-0.75 -2.3,-0.507 -4.34,-1.3 -6.14,-2.371 -1.8,-1.082 -3.23,-2.445 -4.31,-4.101 -1.08,-1.653 -1.62,-3.703 -1.62,-6.141 0,-4.312 1.94,-7.516 5.82,-9.601 3.88,-2.083 9.7,-3.981 17.46,-5.711 4.89,-1.149 9.42,-2.512 13.58,-4.09 4.17,-1.586 7.8,-3.563 10.89,-5.934 3.09,-2.371 5.5,-5.2108 7.23,-8.5116 1.72,-3.3125 2.58,-7.1875 2.58,-11.6406 0,-6.0391 -1.15,-11.1445 -3.45,-15.3125 -2.3,-4.168 -5.36,-7.586 -9.16,-10.2422 -3.81,-2.6563 -8.16,-4.5625 -13.05,-5.7109 -4.88,-1.1485 -9.91,-1.7227 -15.09,-1.7227 -7.76,0 -15.34,1.5117 -22.74,4.5234 -7.4,3.0196 -13.55,7.6172 -18.44,13.8008 l 14.46,12.293 c 2.72,-4.0313 6.49,-7.4063 11.31,-10.1406 4.82,-2.7227 10.1,-4.0899 15.84,-4.0899 2.59,0 5.07,0.2422 7.44,0.75 2.37,0.5039 4.53,1.3321 6.47,2.4805 1.94,1.1445 3.49,2.6562 4.63,4.5273 1.15,1.8672 1.73,4.2383 1.73,7.1133 0,4.7422 -2.26,8.2695 -6.79,10.5625 -4.53,2.3047 -11.17,4.457 -19.94,6.4727 -3.45,0.8593 -6.93,1.9062 -10.46,3.1285 -3.52,1.215 -6.72,2.911 -9.59,5.063 -2.88,2.156 -5.21,4.851 -7.01,8.082 -1.8,3.238 -2.7,7.219 -2.7,11.969 0,5.461 1.12,10.168 3.35,14.125 2.22,3.949 5.13,7.179 8.73,9.691 3.59,2.516 7.69,4.387 12.29,5.609 4.6,1.215 9.34,1.832 14.23,1.832 7.32,0 14.4,-1.433 21.24,-4.308 6.82,-2.879 12.1,-7.047 15.84,-12.504 l -14.01,-11.863" /><path
         id="path66"
         style="fill:#706d67;fill-opacity:1;fill-rule:nonzero;stroke:none"
         d="m 2174.34,51.7383 h -20.28 V 153.93 h 20.28 z m 3.23,139.0587 c 0,-3.738 -1.33,-6.832 -3.96,-9.274 -2.64,-2.445 -5.81,-3.668 -9.52,-3.668 -3.7,0 -6.84,1.258 -9.4,3.782 -2.58,2.511 -3.86,5.566 -3.86,9.16 0,3.738 1.28,6.859 3.86,9.371 2.56,2.516 5.7,3.781 9.4,3.781 3.71,0 6.88,-1.265 9.52,-3.781 2.63,-2.512 3.96,-5.633 3.96,-9.371" /><path
         id="path68"
         style="fill:#706d67;fill-opacity:1;fill-rule:nonzero;stroke:none"
         d="m 2292.25,102.941 c 0,4.731 -0.72,9.313 -2.15,13.758 -1.44,4.438 -3.6,8.379 -6.47,11.821 -2.88,3.441 -6.44,6.16 -10.67,8.168 -4.25,2.007 -9.17,3.011 -14.77,3.011 -5.18,0 -9.88,-1.004 -14.12,-3.011 -4.24,-2.008 -7.87,-4.727 -10.89,-8.168 -3.02,-3.442 -5.36,-7.383 -7,-11.821 -1.66,-4.445 -2.48,-9.101 -2.48,-13.969 0,-4.8784 0.82,-9.5347 2.48,-13.98 1.64,-4.4375 3.98,-8.3437 7,-11.7109 3.02,-3.3711 6.65,-6.0547 10.89,-8.0625 4.24,-2.0078 8.94,-3.0039 14.12,-3.0039 5.6,0 10.52,1.039 14.77,3.1132 4.23,2.0743 7.79,4.8321 10.67,8.2735 2.87,3.4453 5.03,7.3828 6.47,11.8281 1.43,4.4414 2.15,9.0273 2.15,13.7535 z m -67.9,-35.0269 V 51.7383 h -19.63 V 214.723 h 20.27 v -76.098 h 0.65 c 3.44,5.027 8.24,9.297 14.41,12.824 6.15,3.52 13.47,5.281 21.93,5.281 7.6,0 14.51,-1.367 20.75,-4.089 6.24,-2.735 11.61,-6.547 16.13,-11.434 4.52,-4.883 7.99,-10.594 10.43,-17.133 2.44,-6.547 3.65,-13.551 3.65,-21.023 0,-7.4768 -1.21,-14.5197 -3.65,-21.1252 -2.44,-6.6133 -5.88,-12.3672 -10.32,-17.2539 -4.45,-4.8828 -9.82,-8.7305 -16.13,-11.5313 -6.31,-2.8008 -13.41,-4.2031 -21.29,-4.2031 -7.31,0 -14.27,1.6133 -20.86,4.8516 -6.6,3.2343 -11.91,7.9414 -15.91,14.125 h -0.43" /><path
         id="path70"
         style="fill:#706d67;fill-opacity:1;fill-rule:nonzero;stroke:none"
         d="m 2354.54,51.7383 h -20.26 V 214.723 h 20.26 V 51.7383" /><path
         id="path72"
         style="fill:#706d67;fill-opacity:1;fill-rule:nonzero;stroke:none"
         d="m 2457.16,111.891 c -0.14,4.015 -0.82,7.797 -2.04,11.312 -1.22,3.527 -3.02,6.582 -5.39,9.164 -2.37,2.59 -5.32,4.641 -8.84,6.149 -3.53,1.511 -7.65,2.261 -12.39,2.261 -4.31,0 -8.38,-0.75 -12.19,-2.261 -3.81,-1.508 -7.12,-3.559 -9.92,-6.149 -2.8,-2.582 -5.1,-5.637 -6.89,-9.164 -1.8,-3.515 -2.84,-7.297 -3.13,-11.312 z m 20.71,-8.192 c 0,-1.156 0,-2.301 0,-3.449 0,-1.1562 -0.08,-2.3047 -0.22,-3.4492 h -81.28 c 0.14,-4.2891 1.11,-8.3203 2.91,-12.1016 1.8,-3.7773 4.2,-7.0664 7.22,-9.8437 3.02,-2.7852 6.51,-4.961 10.46,-6.5313 3.95,-1.5664 8.15,-2.3515 12.61,-2.3515 6.9,0 12.86,1.5 17.89,4.5195 5.04,3.0234 8.99,6.6836 11.86,11.0039 l 14.24,-11.4336 c -5.47,-7.2383 -11.9,-12.5703 -19.31,-15.9922 -7.4,-3.418 -15.62,-5.1328 -24.68,-5.1328 -7.76,0 -14.95,1.293 -21.56,3.8828 -6.61,2.582 -12.29,6.207 -17.03,10.8828 -4.74,4.6758 -8.48,10.3164 -11.21,16.9219 -2.73,6.6133 -4.09,13.9453 -4.09,21.996 0,7.902 1.32,15.192 3.99,21.883 2.66,6.68 6.38,12.394 11.12,17.133 4.76,4.742 10.38,8.445 16.86,11.101 6.48,2.66 13.46,3.992 20.96,3.992 7.48,0 14.29,-1.222 20.41,-3.66 6.12,-2.449 11.31,-5.965 15.56,-10.562 4.24,-4.606 7.52,-10.176 9.83,-16.711 2.3,-6.539 3.46,-13.906 3.46,-22.098" /><path
         id="path74"
         style="fill:#706d67;fill-opacity:1;fill-rule:nonzero;stroke:none"
         d="m 2525.61,159.344 h 6.07 c 5.12,0 9.83,0.258 9.83,6.16 0,4.957 -4.28,5.726 -8.21,5.726 h -7.69 z m -5.82,16.586 h 14.45 c 8.89,0 13.08,-3.508 13.08,-10.684 0,-6.754 -4.28,-9.578 -9.83,-10.176 l 10.68,-16.5 h -6.24 l -10.17,16.075 h -6.15 V 138.57 h -5.82 z m 12.49,-45.989 c 14.78,0 26.24,11.789 26.24,27.438 0,15.301 -11.46,27.101 -26.24,27.101 -14.97,0 -26.42,-11.8 -26.42,-27.101 0,-15.649 11.45,-27.438 26.42,-27.438 z m 0,59.243 c 17.43,0 32.05,-13.77 32.05,-31.805 0,-18.375 -14.62,-32.145 -32.05,-32.145 -17.53,0 -32.23,13.77 -32.23,32.145 0,18.035 14.7,31.805 32.23,31.805" /></g></g></svg>