<?xml version="1.0" encoding="utf-8"?>
<svg id="图层_5" data-name="图层 5" viewBox="0 0 4448 1300" xmlns="http://www.w3.org/2000/svg">
  <defs>
    <style>.cls-1,.cls-2{fill:#0f3290;stroke:#0f3290;stroke-miterlimit:10;}.cls-1{stroke-width:11.67px;}.cls-2{stroke-width:3.89px;}.cls-3{fill:#1e95d4;}.cls-3,.cls-4{fill-rule:evenodd;}.cls-4{fill:#0f3382;}.cls-5{fill:#eb5f33;}</style>
  </defs>
  <path class="cls-1" d="M 960.351 607.4 L 960.351 408.82 C 960.323 398.586 968.627 390.282 978.861 390.31 L 1088.911 390.31 C 1099.047 390.517 1107.214 398.684 1107.421 408.82 C 1107.421 419.26 1098.671 427.67 1088.911 427.67 L 997.701 427.67 L 997.701 489.26 L 1076.121 489.26 C 1090.501 489.26 1099.488 504.827 1092.299 517.28 C 1088.962 523.06 1082.795 526.62 1076.121 526.62 L 997.701 526.62 L 997.701 607.4 C 997.569 617.697 989.159 625.96 978.861 625.91 C 968.627 625.938 960.323 617.634 960.351 607.4 Z"/>
  <path class="cls-2" d="M 1166.651 612.14 C 1166.657 619.764 1160.475 625.946 1152.851 625.94 C 1149.277 626.048 1145.836 624.586 1143.431 621.94 C 1140.983 619.274 1139.67 615.759 1139.771 612.14 L 1139.771 390.32 C 1139.64 382.831 1145.742 376.725 1153.231 376.85 C 1156.888 376.699 1160.436 378.11 1162.991 380.73 C 1165.457 383.304 1166.79 386.757 1166.691 390.32 L 1166.651 612.14 Z"/>
  <path class="cls-2" d="M 1362.191 538.4 C 1362.191 555.9 1358.378 571.494 1350.751 585.18 C 1343.443 598.535 1332.695 609.69 1319.621 617.49 C 1306.495 625.35 1291.628 629.277 1275.021 629.27 C 1258.641 629.27 1243.891 625.344 1230.771 617.49 C 1217.665 609.658 1206.866 598.497 1199.471 585.14 C 1191.731 571.46 1187.861 555.867 1187.861 538.36 C 1187.861 520.854 1191.731 505.26 1199.471 491.58 C 1206.878 478.242 1217.675 467.097 1230.771 459.27 C 1243.891 451.424 1258.641 447.497 1275.021 447.49 C 1291.628 447.49 1306.495 451.417 1319.621 459.27 C 1332.703 467.084 1343.458 478.253 1350.771 491.62 C 1358.378 505.3 1362.185 520.894 1362.191 538.4 Z M 1335.271 538.4 C 1335.271 525.394 1332.635 513.95 1327.361 504.07 C 1322.398 494.535 1314.957 486.514 1305.821 480.85 C 1286.884 469.636 1263.339 469.636 1244.401 480.85 C 1235.186 486.469 1227.679 494.498 1222.691 504.07 C 1217.425 513.95 1214.788 525.394 1214.781 538.4 C 1214.781 551.187 1217.418 562.52 1222.691 572.4 C 1227.704 582.002 1235.202 590.083 1244.401 595.8 C 1263.276 607.24 1286.946 607.24 1305.821 595.8 C 1314.941 590.038 1322.372 581.965 1327.361 572.4 C 1332.635 562.527 1335.271 551.194 1335.271 538.4 Z"/>
  <path class="cls-2" d="M 1467.531 449.22 C 1482.791 449.22 1495.188 453.09 1504.721 460.83 C 1514.255 468.57 1520.588 479.507 1523.721 493.64 L 1518.721 493.64 L 1521.071 487.58 C 1523.771 481.3 1528.371 475.244 1534.871 469.41 C 1541.588 463.442 1549.197 458.559 1557.421 454.94 C 1565.776 451.161 1574.842 449.211 1584.011 449.22 C 1598.818 449.22 1610.485 452.417 1619.011 458.81 C 1627.586 465.271 1633.984 474.196 1637.351 484.39 C 1641.065 495.057 1642.918 507.004 1642.911 520.23 L 1642.911 612.14 C 1642.977 615.78 1641.584 619.295 1639.041 621.9 C 1636.553 624.534 1633.064 625.988 1629.441 625.9 C 1625.76 626.053 1622.196 624.592 1619.681 621.9 C 1617.228 619.25 1615.901 615.75 1615.981 612.14 L 1615.981 520.9 C 1616.093 512.824 1614.783 504.792 1612.111 497.17 C 1609.768 490.428 1605.425 484.56 1599.661 480.35 C 1593.941 476.197 1586.145 474.12 1576.271 474.12 C 1567.466 474.023 1558.78 476.167 1551.031 480.35 C 1543.616 484.284 1537.343 490.068 1532.821 497.14 C 1528.326 504.231 1525.988 512.475 1526.091 520.87 L 1526.091 612.14 C 1526.172 615.75 1524.845 619.25 1522.391 621.9 C 1517.067 627.29 1508.365 627.29 1503.041 621.9 C 1500.495 619.297 1499.101 615.781 1499.171 612.14 L 1499.171 519.89 C 1499.275 512.08 1498.079 504.307 1495.631 496.89 C 1493.452 490.291 1489.281 484.53 1483.691 480.4 C 1478.071 476.247 1470.328 474.17 1460.461 474.17 C 1451.869 474.075 1443.4 476.223 1435.891 480.4 C 1428.693 484.362 1422.572 490.023 1418.061 496.89 C 1413.582 503.718 1411.239 511.725 1411.331 519.89 L 1411.331 612.14 C 1411.397 615.78 1410.004 619.295 1407.461 621.9 C 1402.2 627.289 1393.533 627.289 1388.271 621.9 C 1385.725 619.297 1384.331 615.781 1384.401 612.14 L 1384.401 465.37 C 1384.264 457.88 1390.371 451.773 1397.861 451.91 C 1401.516 451.757 1405.064 453.164 1407.621 455.78 C 1410.09 458.353 1411.426 461.806 1411.331 465.37 L 1411.331 490.95 L 1403.921 499.02 C 1404.984 492.772 1407.334 486.813 1410.821 481.52 C 1414.742 475.443 1419.564 469.998 1425.121 465.37 C 1430.963 460.435 1437.552 456.459 1444.641 453.59 C 1451.915 450.661 1459.69 449.176 1467.531 449.22 Z"/>
  <path class="cls-2" d="M 1754.611 629.27 C 1736.665 629.27 1720.958 625.457 1707.491 617.83 C 1694.311 610.485 1683.465 599.58 1676.191 586.36 C 1668.791 573.027 1665.088 557.604 1665.081 540.09 C 1665.081 520.557 1668.955 503.89 1676.701 490.09 C 1684.448 476.29 1694.488 465.744 1706.821 458.45 C 1718.702 451.284 1732.316 447.501 1746.191 447.51 C 1756.508 447.468 1766.737 449.41 1776.321 453.23 C 1785.855 457.052 1794.544 462.713 1801.891 469.89 C 1809.541 477.387 1815.655 486.303 1819.891 496.14 C 1824.502 506.945 1826.906 518.563 1826.961 530.31 C 1826.782 533.803 1825.203 537.076 1822.581 539.39 C 1820.041 541.8 1816.663 543.127 1813.161 543.09 L 1680.231 543.09 L 1674.171 519.87 L 1803.771 519.87 L 1798.381 524.58 L 1798.381 517.18 C 1797.923 508.54 1794.808 500.253 1789.461 493.45 C 1784.28 486.913 1777.648 481.671 1770.091 478.14 C 1762.625 474.586 1754.46 472.744 1746.191 472.75 C 1739.37 472.77 1732.604 473.967 1726.191 476.29 C 1719.46 478.714 1713.362 482.624 1708.351 487.73 C 1702.729 493.553 1698.419 500.512 1695.711 508.14 C 1692.571 516.447 1691.001 526.447 1691.001 538.14 C 1691.001 551.154 1693.638 562.594 1698.911 572.46 C 1703.974 582.12 1711.582 590.212 1720.911 595.86 C 1730.338 601.58 1741.221 604.44 1753.561 604.44 C 1760.636 604.601 1767.688 603.587 1774.431 601.44 C 1779.778 599.672 1784.833 597.121 1789.431 593.87 C 1793.253 591.13 1796.803 588.029 1800.031 584.61 C 1802.569 582.732 1805.625 581.684 1808.781 581.61 C 1815.091 581.643 1820.198 586.75 1820.231 593.06 C 1820.231 596.874 1818.435 600.237 1814.841 603.15 C 1808.335 610.11 1799.755 616.224 1789.101 621.49 C 1778.366 626.731 1766.557 629.395 1754.611 629.27 Z"/>
  <path class="cls-2" d="M 1839.081 598.31 C 1837.127 595.634 1836.175 592.357 1836.391 589.05 C 1836.611 585.804 1838.518 582.944 1842.111 580.47 C 1844.431 578.894 1847.231 578.186 1850.021 578.47 C 1853.237 578.798 1856.198 580.37 1858.271 582.85 C 1864.273 590.024 1871.566 596.01 1879.771 600.5 C 1887.845 604.867 1897.715 607.054 1909.381 607.06 C 1914.857 606.824 1920.284 605.92 1925.541 604.37 C 1930.748 602.907 1935.46 600.055 1939.171 596.12 C 1942.871 592.2 1944.721 586.984 1944.721 580.47 C 1944.721 574.19 1942.815 569.19 1939.001 565.47 C 1934.726 561.475 1929.689 558.384 1924.191 556.38 C 1917.721 553.888 1911.102 551.804 1904.371 550.14 C 1896.971 548.14 1889.681 545.84 1882.501 543.24 C 1875.656 540.839 1869.151 537.558 1863.151 533.48 C 1857.498 529.641 1852.782 524.58 1849.351 518.67 C 1845.871 512.73 1844.131 505.497 1844.131 496.97 C 1844.131 486.87 1846.881 478.12 1852.381 470.72 C 1858.121 463.119 1865.79 457.191 1874.591 453.55 C 1884.216 449.446 1894.588 447.383 1905.051 447.49 C 1911.673 447.528 1918.273 448.262 1924.741 449.68 C 1931.721 451.198 1938.454 453.689 1944.741 457.08 C 1951.363 460.655 1957.202 465.521 1961.911 471.39 C 1963.968 473.722 1965.155 476.693 1965.271 479.8 C 1965.491 483.174 1964.035 486.204 1960.901 488.89 C 1958.532 490.658 1955.596 491.494 1952.651 491.24 C 1949.798 491.098 1947.1 489.901 1945.081 487.88 C 1940.307 482.205 1934.25 477.749 1927.411 474.88 C 1920.006 471.786 1912.046 470.241 1904.021 470.34 C 1898.661 470.339 1893.33 471.131 1888.201 472.69 C 1883.243 474.128 1878.757 476.858 1875.201 480.6 C 1871.721 484.314 1869.985 489.42 1869.991 495.92 C 1870.211 501.967 1872.211 506.904 1875.991 510.73 C 1879.771 514.557 1884.931 517.64 1891.471 519.98 C 1897.978 522.34 1905.158 524.64 1913.011 526.88 C 1920.191 528.68 1927.091 530.757 1933.711 533.11 C 1940.108 535.352 1946.165 538.465 1951.711 542.36 C 1957.072 546.16 1961.455 551.177 1964.501 557 C 1967.641 562.947 1969.211 570.407 1969.211 579.38 C 1969.211 589.7 1966.295 598.62 1960.461 606.14 C 1954.448 613.795 1946.511 619.716 1937.461 623.3 C 1927.683 627.274 1917.216 629.276 1906.661 629.19 C 1894.15 629.162 1881.758 626.763 1870.141 622.12 C 1858.188 617.467 1847.835 609.53 1839.081 598.31 Z"/>
  <path class="cls-2" d="M 2075.681 449.22 C 2090.495 449.22 2102.218 452.417 2110.851 458.81 C 2119.509 465.226 2125.974 474.16 2129.361 484.39 C 2133.187 495.829 2135.063 507.83 2134.911 519.89 L 2134.911 612.14 C 2134.981 615.779 2133.591 619.294 2131.051 621.9 C 2125.79 627.289 2117.123 627.289 2111.861 621.9 C 2109.315 619.297 2107.921 615.781 2107.991 612.14 L 2107.991 519.89 C 2108.094 512.067 2106.842 504.286 2104.291 496.89 C 2101.984 490.262 2097.693 484.505 2092.001 480.4 C 2086.281 476.247 2078.485 474.17 2068.611 474.17 C 2059.806 474.076 2051.121 476.22 2043.371 480.4 C 2036.029 484.288 2029.781 489.959 2025.201 496.89 C 2020.722 503.718 2018.379 511.725 2018.471 519.89 L 2018.471 612.14 C 2018.537 615.78 2017.144 619.295 2014.601 621.9 C 2009.34 627.289 2000.673 627.289 1995.411 621.9 C 1992.865 619.297 1991.471 615.781 1991.541 612.14 L 1991.541 390.32 C 1991.41 382.831 1997.512 376.725 2005.001 376.85 C 2008.658 376.699 2012.206 378.11 2014.761 380.73 C 2017.23 383.303 2018.566 386.756 2018.471 390.32 L 2018.471 490.95 L 2011.741 498.35 C 2013.056 492.041 2015.568 486.043 2019.141 480.68 C 2023.067 474.599 2027.954 469.196 2033.611 464.68 C 2039.496 459.934 2046.081 456.129 2053.131 453.4 C 2060.319 450.605 2067.969 449.187 2075.681 449.22 Z"/>
  <path class="cls-1" d="M 945.901 859.976 C 952.058 852.585 963.02 851.532 970.471 857.616 C 985.281 869.726 1010.861 883.866 1034.751 883.526 C 1051.581 883.526 1066.751 878.526 1076.831 871.076 C 1086.911 863.626 1091.301 855.256 1091.301 846.846 C 1091.392 843.038 1090.348 839.289 1088.301 836.076 C 1085.745 831.986 1082.291 828.532 1078.201 825.976 C 1068.441 819.586 1051.951 813.866 1032.091 810.156 L 1031.421 810.156 C 1015.601 807.156 1000.791 803.096 988.001 797.036 C 975.211 790.976 964.111 782.556 956.701 770.786 C 951.57 762.501 948.886 752.932 948.961 743.186 C 948.961 722.986 960.401 705.486 975.891 694.046 C 991.701 682.606 1012.241 676.206 1034.111 676.206 C 1066.421 676.206 1090.321 692.026 1107.481 703.136 C 1115.221 708.516 1117.581 719.286 1112.191 727.026 C 1107.065 735.135 1096.249 737.399 1088.301 732.026 C 1071.131 720.586 1054.641 710.486 1034.111 710.486 C 1018.971 710.486 1005.501 715.196 996.421 721.926 C 987.341 728.656 983.631 736.066 983.631 743.136 C 983.631 747.136 984.301 749.866 985.981 752.556 C 987.661 755.246 990.691 758.276 995.071 761.306 C 1003.821 767.366 1018.971 772.756 1037.141 776.116 L 1037.811 776.116 C 1054.981 779.486 1070.811 783.856 1084.261 790.256 C 1098.061 796.986 1110.181 805.736 1117.921 818.186 C 1123.202 826.795 1125.995 836.697 1125.991 846.796 C 1125.991 868.336 1113.881 886.796 1097.051 898.966 C 1080.561 911.076 1058.681 918.146 1034.781 918.146 C 998.441 917.806 967.781 899.636 948.621 884.486 C 941.334 878.344 940.138 867.568 945.901 859.976 Z"/>
  <path class="cls-2" d="M 1229.571 921.896 C 1211.611 921.896 1195.904 918.083 1182.451 910.456 C 1169.271 903.112 1158.424 892.206 1151.151 878.986 C 1143.744 865.653 1140.041 850.23 1140.041 832.716 C 1140.041 813.183 1143.911 796.516 1151.651 782.716 C 1159.391 768.916 1169.434 758.37 1181.781 751.076 C 1193.662 743.91 1207.276 740.127 1221.151 740.136 C 1231.465 740.095 1241.691 742.037 1251.271 745.856 C 1260.829 749.676 1269.539 755.344 1276.901 762.536 C 1284.549 770.027 1290.663 778.937 1294.901 788.766 C 1299.508 799.573 1301.911 811.19 1301.971 822.936 C 1301.792 826.429 1300.213 829.702 1297.591 832.016 C 1295.05 834.425 1291.672 835.751 1288.171 835.716 L 1155.191 835.716 L 1149.131 812.496 L 1278.701 812.496 L 1273.321 817.206 L 1273.321 809.806 C 1272.855 801.168 1269.741 792.883 1264.401 786.076 C 1259.223 779.544 1252.599 774.303 1245.051 770.766 C 1237.585 767.212 1229.42 765.371 1221.151 765.376 C 1214.33 765.395 1207.564 766.593 1201.151 768.916 C 1194.42 771.34 1188.322 775.25 1183.311 780.356 C 1177.689 786.179 1173.379 793.139 1170.671 800.766 C 1167.524 809.073 1165.954 819.073 1165.961 830.766 C 1165.961 843.78 1168.594 855.22 1173.861 865.086 C 1178.939 874.752 1186.564 882.844 1195.911 888.486 C 1205.331 894.206 1216.214 897.066 1228.561 897.066 C 1235.632 897.226 1242.681 896.212 1249.421 894.066 C 1254.767 892.297 1259.822 889.746 1264.421 886.496 C 1268.243 883.756 1271.792 880.655 1275.021 877.236 C 1277.557 875.356 1280.614 874.308 1283.771 874.236 C 1290.082 874.264 1295.189 879.376 1295.211 885.686 C 1295.211 889.5 1293.418 892.863 1289.831 895.776 C 1283.324 902.736 1274.741 908.85 1264.081 914.116 C 1253.34 919.361 1241.523 922.025 1229.571 921.896 Z"/>
  <path class="cls-2" d="M 1337.261 918.536 C 1333.642 918.625 1330.155 917.171 1327.671 914.536 C 1325.125 911.934 1323.73 908.417 1323.801 904.776 L 1323.801 757.996 C 1323.664 750.507 1329.771 744.399 1337.261 744.536 C 1340.916 744.383 1344.464 745.79 1347.021 748.406 C 1349.487 750.98 1350.819 754.434 1350.721 757.996 L 1350.721 802.426 L 1346.721 795.356 C 1348.114 788.25 1350.55 781.389 1353.951 774.996 C 1357.419 768.388 1361.908 762.367 1367.251 757.156 C 1372.601 751.901 1378.877 747.681 1385.761 744.706 C 1392.99 741.619 1400.781 740.069 1408.641 740.156 C 1413.417 740.115 1418.119 741.336 1422.271 743.696 C 1426.421 746.046 1428.501 749.366 1428.501 753.616 C 1428.501 758.336 1427.268 761.816 1424.801 764.056 C 1422.53 766.216 1419.515 767.419 1416.381 767.416 C 1413.476 767.422 1410.606 766.79 1407.971 765.566 C 1404.775 764.237 1401.331 763.607 1397.871 763.716 C 1392.022 763.784 1386.286 765.347 1381.211 768.256 C 1375.379 771.581 1370.239 775.994 1366.071 781.256 C 1361.403 786.974 1357.654 793.384 1354.961 800.256 C 1352.121 807.492 1350.692 815.204 1350.751 822.976 L 1350.751 904.766 C 1350.822 908.407 1349.427 911.924 1346.881 914.526 C 1344.391 917.171 1340.892 918.63 1337.261 918.536 Z"/>
  <path class="cls-2" d="M 1458.751 741.506 C 1461.482 741.518 1464.159 742.275 1466.491 743.696 C 1468.926 745.118 1470.821 747.305 1471.881 749.916 L 1527.741 881.176 L 1522.361 883.866 L 1579.241 750.256 C 1581.701 744.196 1585.851 741.28 1591.691 741.506 C 1594.932 741.458 1598.066 742.661 1600.441 744.866 C 1602.855 746.991 1604.209 750.072 1604.141 753.286 C 1604.144 754.593 1603.976 755.894 1603.641 757.156 C 1603.351 758.258 1602.956 759.33 1602.461 760.356 L 1537.501 909.766 C 1535.034 915.373 1531.108 918.29 1525.721 918.516 C 1522.85 918.749 1519.977 918.104 1517.481 916.666 C 1514.829 915.139 1512.84 912.679 1511.901 909.766 L 1446.901 760.666 C 1446.422 759.703 1446.027 758.699 1445.721 757.666 C 1445.367 756.363 1445.199 755.017 1445.221 753.666 C 1445.299 750.569 1446.563 747.62 1448.751 745.426 C 1451.158 742.813 1454.491 741.506 1458.751 741.506 Z"/>
  <path class="cls-2" d="M 1636.111 719.296 C 1630.504 719.296 1626.354 718.173 1623.661 715.926 C 1620.968 713.68 1619.634 710.203 1619.661 705.496 L 1619.661 700.766 C 1619.661 696.046 1621.121 692.576 1624.041 690.326 C 1626.961 688.076 1631.101 686.966 1636.491 686.966 C 1641.881 686.966 1645.911 688.086 1648.611 690.326 C 1651.311 692.566 1652.611 696.046 1652.611 700.766 L 1652.611 705.476 C 1652.611 710.19 1651.211 713.666 1648.411 715.906 C 1645.611 718.146 1641.511 719.276 1636.111 719.296 Z M 1649.581 904.766 C 1649.648 908.408 1648.25 911.925 1645.701 914.526 C 1640.377 919.916 1631.675 919.916 1626.351 914.526 C 1623.898 911.877 1622.571 908.377 1622.651 904.766 L 1622.651 755.306 C 1622.369 744.941 1633.413 738.157 1642.531 743.095 C 1646.994 745.512 1649.719 750.233 1649.581 755.306 L 1649.581 904.766 Z"/>
  <path class="cls-2" d="M 1756.901 740.156 C 1767.351 740.035 1777.773 741.278 1787.901 743.856 C 1797.101 746.336 1804.391 749.703 1809.771 753.956 C 1815.151 758.21 1817.844 763.033 1817.851 768.426 C 1817.808 771.464 1816.807 774.411 1814.991 776.846 C 1813.109 779.506 1809.995 781.016 1806.741 780.846 C 1804.223 780.944 1801.725 780.36 1799.511 779.156 C 1797.514 777.967 1795.698 776.495 1794.121 774.786 C 1792.149 772.784 1789.805 771.184 1787.221 770.076 C 1784.554 768.503 1780.628 767.266 1775.441 766.366 C 1770.219 765.47 1764.93 765.021 1759.631 765.026 C 1747.511 765.026 1736.741 767.943 1727.321 773.776 C 1717.99 779.508 1710.373 787.646 1705.271 797.336 C 1700.004 807.203 1697.368 818.42 1697.361 830.986 C 1697.354 843.553 1699.938 854.773 1705.111 864.646 C 1710.052 874.284 1717.487 882.42 1726.641 888.206 C 1735.841 894.033 1746.508 896.95 1758.641 896.956 C 1766.494 896.956 1772.721 896.29 1777.321 894.956 C 1781.449 893.792 1785.45 892.214 1789.261 890.246 C 1792.529 888.423 1795.531 886.159 1798.181 883.516 C 1800.308 881.276 1803.281 880.153 1807.101 880.146 C 1810.921 880.14 1813.838 881.373 1815.851 883.846 C 1817.897 886.425 1818.96 889.647 1818.851 892.936 C 1818.851 896.976 1816.048 901.24 1810.441 905.726 C 1804.834 910.213 1797.261 914.026 1787.721 917.166 C 1777.326 920.435 1766.477 922.025 1755.581 921.876 C 1738.521 921.876 1723.601 917.896 1710.821 909.936 C 1698.069 902.01 1687.759 890.71 1681.031 877.286 C 1673.964 863.486 1670.431 848.06 1670.431 831.006 C 1670.431 813.953 1674.078 798.583 1681.371 784.896 C 1688.413 771.481 1698.934 760.207 1711.831 752.256 C 1724.851 744.19 1739.874 740.156 1756.901 740.156 Z"/>
  <path class="cls-2" d="M 1916.121 921.896 C 1898.174 921.896 1882.468 918.083 1869.001 910.456 C 1855.824 903.109 1844.977 892.204 1837.701 878.986 C 1830.301 865.653 1826.601 850.23 1826.601 832.716 C 1826.601 813.183 1830.471 796.516 1838.211 782.716 C 1845.951 768.916 1855.991 758.37 1868.331 751.076 C 1880.216 743.91 1893.833 740.127 1907.711 740.136 C 1918.025 740.095 1928.251 742.037 1937.831 745.856 C 1947.368 749.678 1956.06 755.339 1963.411 762.516 C 1971.058 770.015 1977.172 778.931 1981.411 788.766 C 1986.027 799.57 1988.431 811.189 1988.481 822.936 C 1988.304 826.428 1986.729 829.7 1984.111 832.016 C 1981.566 834.424 1978.185 835.751 1974.681 835.716 L 1841.741 835.716 L 1835.691 812.496 L 1965.261 812.496 L 1959.871 817.206 L 1959.871 809.806 C 1959.409 801.169 1956.298 792.884 1950.961 786.076 C 1945.782 779.542 1939.154 774.3 1931.601 770.766 C 1924.139 767.212 1915.977 765.371 1907.711 765.376 C 1900.89 765.397 1894.125 766.595 1887.711 768.916 C 1880.987 771.346 1874.899 775.263 1869.901 780.376 C 1864.264 786.187 1859.939 793.14 1857.221 800.766 C 1854.081 809.073 1852.511 819.073 1852.511 830.766 C 1852.511 843.78 1855.148 855.22 1860.421 865.086 C 1865.496 874.754 1873.122 882.847 1882.471 888.486 C 1891.891 894.206 1902.771 897.066 1915.111 897.066 C 1922.186 897.227 1929.238 896.213 1935.981 894.066 C 1941.326 892.295 1946.381 889.744 1950.981 886.496 C 1954.803 883.756 1958.352 880.655 1961.581 877.236 C 1964.117 875.356 1967.174 874.308 1970.331 874.236 C 1976.637 874.275 1981.738 879.38 1981.771 885.686 C 1981.771 889.5 1979.978 892.863 1976.391 895.776 C 1969.884 902.736 1961.301 908.85 1950.641 914.116 C 1939.897 919.362 1928.077 922.026 1916.121 921.896 Z"/>
  <path class="cls-1" d="M 2307.201 701.446 L 2307.201 900.026 C 2307.201 910.116 2298.451 918.536 2288.351 918.536 C 2278.117 918.564 2269.813 910.261 2269.841 900.026 L 2269.841 758.326 L 2221.381 825.646 C 2217.9 830.548 2212.243 833.438 2206.231 833.386 L 2205.561 833.386 C 2199.457 833.443 2193.698 830.563 2190.081 825.646 L 2141.951 758.326 L 2141.951 900.026 C 2141.951 914.406 2126.384 923.394 2113.931 916.204 C 2108.152 912.867 2104.591 906.7 2104.591 900.026 L 2104.591 701.446 C 2104.683 691.262 2112.917 683.029 2123.101 682.936 L 2124.101 682.936 C 2129.999 682.969 2135.517 685.853 2138.911 690.676 L 2205.911 783.566 L 2272.911 690.676 C 2276.392 685.775 2282.05 682.885 2288.061 682.936 L 2288.391 682.936 C 2298.451 683.276 2307.201 691.356 2307.201 701.446 Z"/>
  <path class="cls-2" d="M 2440.471 921.896 C 2422.518 921.896 2406.811 918.083 2393.351 910.456 C 2380.174 903.109 2369.327 892.204 2362.051 878.986 C 2354.651 865.653 2350.951 850.23 2350.951 832.716 C 2350.951 813.183 2354.821 796.516 2362.561 782.716 C 2370.301 768.916 2380.341 758.37 2392.681 751.076 C 2404.566 743.91 2418.183 740.127 2432.061 740.136 C 2442.375 740.095 2452.601 742.037 2462.181 745.856 C 2471.718 749.678 2480.41 755.339 2487.761 762.516 C 2495.408 770.015 2501.522 778.931 2505.761 788.766 C 2510.372 799.571 2512.776 811.189 2512.831 822.936 C 2512.652 826.429 2511.073 829.702 2508.451 832.016 C 2505.911 834.426 2502.533 835.753 2499.031 835.716 L 2366.091 835.716 L 2360.031 812.496 L 2489.611 812.496 L 2484.221 817.206 L 2484.221 809.806 C 2483.763 801.167 2480.648 792.879 2475.301 786.076 C 2470.128 779.54 2463.503 774.298 2455.951 770.766 C 2448.489 767.212 2440.327 765.371 2432.061 765.376 C 2425.24 765.397 2418.475 766.595 2412.061 768.916 C 2405.33 771.34 2399.232 775.25 2394.221 780.356 C 2388.595 786.178 2384.281 793.138 2381.571 800.766 C 2378.431 809.073 2376.861 819.073 2376.861 830.766 C 2376.861 843.78 2379.498 855.22 2384.771 865.086 C 2389.834 874.746 2397.441 882.838 2406.771 888.486 C 2416.204 894.206 2427.088 897.066 2439.421 897.066 C 2446.496 897.227 2453.548 896.213 2460.291 894.066 C 2465.638 892.298 2470.693 889.747 2475.291 886.496 C 2479.116 883.756 2482.669 880.655 2485.901 877.236 C 2488.437 875.356 2491.494 874.308 2494.651 874.236 C 2500.957 874.275 2506.058 879.38 2506.091 885.686 C 2506.091 889.5 2504.294 892.863 2500.701 895.776 C 2494.194 902.736 2485.614 908.85 2474.961 914.116 C 2464.226 919.357 2452.416 922.021 2440.471 921.896 Z"/>
  <path class="cls-2" d="M 2524.901 890.936 C 2522.952 888.258 2522 884.982 2522.211 881.676 C 2522.431 878.43 2524.338 875.57 2527.931 873.096 C 2530.25 871.52 2533.051 870.812 2535.841 871.096 C 2539.058 871.422 2542.019 872.994 2544.091 875.476 C 2550.106 882.659 2557.411 888.652 2565.631 893.146 C 2573.704 897.513 2583.574 899.7 2595.241 899.706 C 2600.717 899.47 2606.144 898.567 2611.401 897.016 C 2616.608 895.553 2621.32 892.701 2625.031 888.766 C 2628.731 884.846 2630.581 879.63 2630.581 873.116 C 2630.581 866.836 2628.674 861.836 2624.861 858.116 C 2620.586 854.121 2615.549 851.03 2610.051 849.026 C 2603.571 846.538 2596.941 844.457 2590.201 842.796 C 2582.788 840.796 2575.494 838.496 2568.321 835.896 C 2561.477 833.492 2554.973 830.212 2548.971 826.136 C 2543.323 822.292 2538.608 817.231 2535.171 811.326 C 2531.691 805.386 2529.951 798.153 2529.951 789.626 C 2529.951 779.526 2532.701 770.776 2538.201 763.376 C 2543.941 755.775 2551.609 749.847 2560.411 746.206 C 2570.036 742.102 2580.408 740.039 2590.871 740.146 C 2597.493 740.184 2604.093 740.918 2610.561 742.336 C 2617.541 743.855 2624.274 746.346 2630.561 749.736 C 2637.183 753.311 2643.022 758.177 2647.731 764.046 C 2649.787 766.378 2650.975 769.35 2651.091 772.456 C 2651.311 775.83 2649.854 778.86 2646.721 781.546 C 2644.355 783.32 2641.417 784.156 2638.471 783.896 C 2635.618 783.755 2632.92 782.557 2630.901 780.536 C 2626.127 774.861 2620.07 770.405 2613.231 767.536 C 2605.826 764.442 2597.866 762.897 2589.841 762.996 C 2584.481 762.996 2579.15 763.788 2574.021 765.346 C 2569.063 766.784 2564.577 769.514 2561.021 773.256 C 2557.541 776.97 2555.804 782.076 2555.811 788.576 C 2556.031 794.623 2558.031 799.56 2561.811 803.386 C 2565.591 807.213 2570.754 810.296 2577.301 812.636 C 2583.801 814.996 2590.981 817.296 2598.841 819.536 C 2606.014 821.336 2612.914 823.413 2619.541 825.766 C 2625.938 828.007 2631.995 831.12 2637.541 835.016 C 2642.907 838.811 2647.291 843.83 2650.331 849.656 C 2653.471 855.603 2655.041 863.063 2655.041 872.036 C 2655.041 882.356 2652.124 891.276 2646.291 898.796 C 2640.264 906.458 2632.309 912.38 2623.241 915.956 C 2613.463 919.931 2602.996 921.932 2592.441 921.846 C 2579.934 921.817 2567.545 919.418 2555.931 914.776 C 2544.024 910.103 2533.681 902.156 2524.901 890.936 Z"/>
  <path class="cls-2" d="M 2761.541 741.846 C 2776.348 741.846 2788.071 745.043 2796.711 751.436 C 2805.369 757.853 2811.834 766.786 2815.221 777.016 C 2819.055 788.454 2820.935 800.455 2820.781 812.516 L 2820.781 904.766 C 2820.847 908.406 2819.454 911.921 2816.911 914.526 C 2811.649 919.915 2802.983 919.915 2797.721 914.526 C 2795.193 911.915 2793.817 908.4 2793.901 904.766 L 2793.901 812.516 C 2794.009 804.693 2792.757 796.911 2790.201 789.516 C 2787.898 782.87 2783.603 777.095 2777.901 772.976 C 2772.168 768.823 2764.371 766.746 2754.511 766.746 C 2745.703 766.651 2737.014 768.795 2729.261 772.976 C 2721.921 776.867 2715.674 782.537 2711.091 789.466 C 2706.612 796.294 2704.269 804.301 2704.361 812.466 L 2704.361 904.766 C 2704.427 908.406 2703.034 911.921 2700.491 914.526 C 2695.233 919.914 2686.569 919.914 2681.311 914.526 C 2678.758 911.927 2677.36 908.409 2677.431 904.766 L 2677.431 682.946 C 2677.588 672.417 2689.084 666.005 2698.125 671.406 C 2699.044 671.954 2699.895 672.609 2700.661 673.356 C 2703.123 675.932 2704.455 679.384 2704.361 682.946 L 2704.361 783.576 L 2697.631 790.976 C 2698.946 784.668 2701.458 778.669 2705.031 773.306 C 2708.96 767.228 2713.847 761.825 2719.501 757.306 C 2725.387 752.563 2731.972 748.758 2739.021 746.026 C 2746.2 743.236 2753.839 741.818 2761.541 741.846 Z"/>
  <g id="编组-7">
    <polygon id="路径-28" class="cls-3" points="271.52 817.1 778.6 785.73 782.14 831.96 272.71 856.83 271.52 817.1"/>
    <polygon id="路径-28-2" data-name="路径-28" class="cls-3" points="770.9 792.2 271.52 604.46 286.99 513.82 823.85 481.95 827.38 528.92 318.61 554.2 315.04 575.12 790.5 745.05 770.9 792.2"/>
    <polygon id="路径-28-3" data-name="路径-28" class="cls-4" points="168.1 903.73 288.95 385 387.14 385 504.21 903.73 455.11 915 349.37 422.58 326.71 422.58 220.97 915 168.1 903.73"/>
    <circle id="椭圆形" class="cls-5" cx="850.01" cy="504.57" r="61.4"/>
    <circle id="椭圆形-2" data-name="椭圆形" class="cls-5" cx="320" cy="821.28" r="61.4"/>
    <polygon id="路径-28-4" data-name="路径-28" class="cls-4" points="510.67 903.73 631.52 385 729.71 385 846.77 903.73 797.68 915 691.94 422.58 669.28 422.58 563.54 915 510.67 903.73"/>
    <circle id="椭圆形-3" data-name="椭圆形" class="cls-5" cx="585" cy="692.01" r="61.4"/>
    <circle id="椭圆形-4" data-name="椭圆形" class="cls-5" cx="416.95" cy="640.3" r="61.4"/>
    <polygon class="cls-3" points="355.55 509.75 442.79 504.57 471.77 546.59 351.28 552.58 355.55 509.75"/>
    <polygon class="cls-3" points="687.93 490.02 768.94 485.21 782.14 531.17 687.93 535.85 687.93 490.02"/>
    <polygon class="cls-3" points="510.67 802.31 609.16 796.21 591.18 841.28 504.21 845.53 510.67 802.31"/>
  </g>
</svg>