<svg xmlns="http://www.w3.org/2000/svg" role="img" viewBox="-0.15 -2.15 605.80 146.30"><title>Fullstaq (KCSP) logo</title><g fill="#FFF"><path d="M74.823 61.861L11.868 88.412v17.885l62.955-25.699 62.955 25.699V88.412z"/><path d="M74.823 132.848l-62.955-26.551V88.412l62.955 25.699 62.955-25.699v17.885zm0-97.112L11.868 62.287v17.885l62.955-25.699 62.955 25.699V62.287z"/><path d="M74.823 106.723L11.868 80.172V62.287l62.955 25.699 62.955-25.699v17.885zm0-97.112L11.868 36.162v17.885l62.955-25.699 62.955 25.699V36.162z"/><path d="M74.823 80.598L11.868 54.047V36.162l62.955 25.699 62.955-25.699v17.885z"/></g><linearGradient id="a" x1="12.659" x2="74.494" y1="98.231" y2="123.214" gradientUnits="userSpaceOnUse"><stop offset="0" stop-color="#deedc1"/><stop offset="1" stop-color="#abc41e"/></linearGradient><path fill="url(#a)" d="M74.823 114.111L11.868 88.412v17.885l62.955 26.551z" opacity=".87"/><linearGradient id="b" x1="74.575" x2="137.3" y1="123.448" y2="98.106" gradientUnits="userSpaceOnUse"><stop offset="0" stop-color="#1b9051"/><stop offset=".221" stop-color="#19894e"/><stop offset=".541" stop-color="#177647"/><stop offset=".922" stop-color="#125a3c"/><stop offset="1" stop-color="#11543a"/></linearGradient><path fill="url(#b)" d="M74.823 114.111l62.955-25.699v17.885l-62.955 26.551z" opacity=".87"/><linearGradient id="c" x1="12.141" x2="74.394" y1="96.686" y2="71.535" gradientUnits="userSpaceOnUse"><stop offset="0" stop-color="#1a8a4f"/><stop offset=".328" stop-color="#53a53f"/><stop offset=".632" stop-color="#80bd2f"/><stop offset=".866" stop-color="#9dcc24"/><stop offset="1" stop-color="#a8d220"/></linearGradient><path fill="url(#c)" d="M74.823 61.861L11.868 88.412v17.885l62.955-25.699z" opacity=".87"/><linearGradient id="d" x1="75.166" x2="137.401" y1="71.5" y2="96.644" gradientUnits="userSpaceOnUse"><stop offset="0" stop-color="#83c35b"/><stop offset="1" stop-color="#1d6a35"/></linearGradient><path fill="url(#d)" d="M74.823 61.861l62.955 26.551v17.885L74.823 80.598z" opacity=".87"/><linearGradient id="e" x1="12.658" x2="74.494" y1="72.106" y2="97.09" gradientUnits="userSpaceOnUse"><stop offset="0" stop-color="#f7a123"/><stop offset="1" stop-color="#efdb13"/></linearGradient><path fill="url(#e)" d="M74.823 87.986L11.868 62.287v17.885l62.955 26.551z" opacity=".87"/><linearGradient id="f" x1="74.575" x2="137.3" y1="97.323" y2="71.981" gradientUnits="userSpaceOnUse"><stop offset="0" stop-color="#781f27"/><stop offset="1" stop-color="#f6102d"/></linearGradient><path fill="url(#f)" d="M74.823 87.986l62.955-25.699v17.885l-62.955 26.551z" opacity=".87"/><linearGradient id="g" x1="12.14" x2="74.394" y1="70.561" y2="45.41" gradientUnits="userSpaceOnUse"><stop offset="0" stop-color="#83212a"/><stop offset="1" stop-color="#dd7613"/></linearGradient><path fill="url(#g)" d="M74.823 35.736L11.868 62.287v17.885l62.955-25.699z" opacity=".87"/><linearGradient id="h" x1="75.167" x2="137.4" y1="45.375" y2="70.519" gradientUnits="userSpaceOnUse"><stop offset="0" stop-color="#f3ce96"/><stop offset="1" stop-color="#eb6a11"/></linearGradient><path fill="url(#h)" d="M74.823 35.736l62.955 26.551v17.885L74.823 54.473z" opacity=".87"/><linearGradient id="i" x1="12.659" x2="74.494" y1="45.982" y2="70.965" gradientUnits="userSpaceOnUse"><stop offset="0" stop-color="#1fa2bf"/><stop offset="1" stop-color="#aedce0"/></linearGradient><path fill="url(#i)" d="M74.823 61.861L11.868 36.162v17.885l62.955 26.551z" opacity=".87"/><linearGradient id="j" x1="74.575" x2="137.3" y1="71.198" y2="45.855" gradientUnits="userSpaceOnUse"><stop offset="0" stop-color="#82107e"/><stop offset="1" stop-color="#ee0d72"/></linearGradient><path fill="url(#j)" d="M74.823 61.861l62.955-25.699v17.885L74.823 80.598z" opacity=".87"/><linearGradient id="k" x1="12.14" x2="74.394" y1="44.437" y2="19.285" gradientUnits="userSpaceOnUse"><stop offset=".002" stop-color="#2696bf"/><stop offset=".149" stop-color="#308eb7"/><stop offset=".422" stop-color="#4b7aa2"/><stop offset=".788" stop-color="#71577f"/><stop offset="1" stop-color="#863f69"/></linearGradient><path fill="url(#k)" d="M74.823 9.611L11.868 36.162v17.885l62.955-25.699z" opacity=".87"/><linearGradient id="l" x1="75.167" x2="137.401" y1="19.25" y2="44.394" gradientUnits="userSpaceOnUse"><stop offset="0" stop-color="#c05f9f"/><stop offset="1" stop-color="#8a2546"/></linearGradient><path fill="url(#l)" d="M74.823 9.611l62.955 26.551v17.885L74.823 28.348z" opacity=".87"/><path d="M217.851 48.627v7.332h-20.022v14.1h19.74v7.332h-19.74v20.657h-7.685v-49.42h27.707zm21.36.071h7.685v34.545c0 2.774.872 4.865 2.618 6.275 1.746 1.41 3.87 2.115 6.37 2.115 2.501 0 4.646-.705 6.44-2.115 1.793-1.41 2.69-3.501 2.69-6.275V48.698h7.685v34.545c0 3.525-.839 6.51-2.516 8.954-1.676 2.444-3.744 4.184-6.202 5.218-2.458 1.033-5.156 1.551-8.097 1.551-4.64 0-8.578-1.316-11.816-3.949-3.238-2.631-4.856-6.556-4.856-11.773V48.698zm86.08 42.018v7.332h-26.226v-49.35h7.685v42.018h18.541zm46.812 0v7.332h-26.227v-49.35h7.685v42.018h18.542zm25.911-29.117c-.095 1.458.363 2.727 1.375 3.807 1.01 1.082 2.067 1.868 3.173 2.362 1.104.494 2.407.929 3.912 1.304 1.786.47 3.313.929 4.583 1.375 1.269.447 2.626 1.104 4.073 1.974 1.447.871 2.602 1.857 3.464 2.961.861 1.104 1.563 2.502 2.11 4.194.545 1.692.771 3.62.678 5.781-.228 4.418-1.941 7.826-5.142 10.223s-6.938 3.595-11.215 3.595c-3.479 0-6.732-.977-9.765-2.926-3.031-1.95-5.229-4.782-6.592-8.495l6.134-3.172c2.256 4.841 5.733 7.261 10.435 7.261 2.442.047 4.441-.575 5.992-1.868 1.551-1.292 2.373-2.972 2.468-5.041.09-1.41-.123-2.644-.639-3.702-.515-1.057-1.312-1.915-2.394-2.573-1.081-.657-2.068-1.163-2.961-1.516-.894-.353-1.998-.693-3.313-1.022a68.844 68.844 0 0 1-3.983-1.236c-1.152-.401-2.421-1.003-3.807-1.806-1.387-.803-2.527-1.701-3.419-2.693-.894-.992-1.634-2.279-2.221-3.862-.589-1.582-.858-3.318-.812-5.207.094-4.534 1.681-7.994 4.759-10.38 3.078-2.386 6.686-3.579 10.822-3.579 3.384 0 6.419.964 9.105 2.892 2.686 1.928 4.641 4.677 5.866 8.248l-6.121 2.89c-.893-2.161-2.162-3.818-3.807-4.97-1.646-1.151-3.361-1.727-5.146-1.727-1.974-.046-3.701.529-5.182 1.727-1.478 1.198-2.289 2.925-2.43 5.181zm41.061-13.042h31.866v7.332h-12.056v42.159H451.2V55.889h-12.126v-7.332zm43.922 49.491l17.694-49.703h8.602l17.132 49.703h-7.685l-5.594-14.734h-16.709l-4.91 14.734h-8.53zm15.885-22.067h11.892l-4.584-14.1-1.128-5.076h-.354l-1.128 5.075-4.698 14.101zm90.346 12.711l4.524 4.562-5.429 5.287-4.492-4.493c-4.263 3.325-9.206 4.987-14.827 4.987-6.971 0-12.873-2.415-17.705-7.245-4.834-4.831-7.25-10.921-7.25-18.273 0-7.351 2.375-13.465 7.125-18.345s10.693-7.32 17.83-7.32c7.136 0 13.127 2.433 17.973 7.299 4.845 4.867 7.269 10.99 7.269 18.371-.001 6.181-1.674 11.238-5.018 15.17zm-18.177-7.423l5.499-5.358 7.06 7.117c1.968-2.562 2.951-5.731 2.951-9.506 0-5.574-1.784-10.035-5.353-13.384s-7.685-5-12.347-4.954c-4.615 0-8.624 1.663-12.025 4.989s-5.103 7.775-5.103 13.347c0 5.571 1.699 9.996 5.096 13.271 3.397 3.276 7.409 4.913 12.034 4.913 3.161 0 6.37-.999 9.626-2.997l-7.438-7.438z"/></svg>