<svg id="Layer_1" data-name="Layer 1" xmlns="http://www.w3.org/2000/svg" viewBox="0 0 382.15 117.32"><defs><style>.cls-1{fill:#232323;}</style></defs><title>fury-logo-sighup</title><path class="cls-1" d="M1487.59,1421.51h36.68v9.64h-26.08v10.27h23v9.64h-23v18.67h-10.6Z" transform="translate(-1342.86 -1373)"/><path class="cls-1" d="M1548.49,1449.06v-27.55h10.6v27.28c0,7.85,3.92,11.92,10.39,11.92s10.39-3.93,10.39-11.58v-27.62h10.6v27.21c0,14.61-8.19,21.77-21.13,21.77S1548.49,1463.26,1548.49,1449.06Z" transform="translate(-1342.86 -1373)"/><path class="cls-1" d="M1617.79,1421.51h22c6.12,0,10.87,1.72,14,4.89a15.14,15.14,0,0,1,4.13,11v.14c0,7.78-4.2,12.68-10.32,15l11.76,17.22H1647l-10.33-15.43h-8.32v15.43h-10.6Zm21.33,23.42c5.16,0,8.12-2.76,8.12-6.82V1438c0-4.54-3.16-6.89-8.32-6.89h-10.53v13.85Z" transform="translate(-1342.86 -1373)"/><path class="cls-1" d="M1695.89,1450.72l-18.51-29.21h12.39l11.49,19.36,11.7-19.36h12l-18.51,29v19.22h-10.6Z" transform="translate(-1342.86 -1373)"/><path class="cls-1" d="M1463.29,1373a42.8,42.8,0,0,1-24.44,15.2c-16.35,3.63-38.09,6.31-51.5,9.75s-49.86,15.36-43.82,57.71c0,0,4.28-13.54,15.74-18.7s57.41-12.52,64-13.68S1468.82,1410.41,1463.29,1373Z" transform="translate(-1342.86 -1373)"/><path class="cls-1" d="M1443.11,1423.11a65.78,65.78,0,0,1-28.45,11.86c-29.53,4.84-67.58,7.19-66.26,27.74s30.18,28.27,41.19,27.57c19.81-1.28,31-17.09,31-17.09s-12.51,6-22.42,6.59-12.91-.28-13.21-5,5.42-7.35,13.86-7.89S1445.23,1456.13,1443.11,1423.11Z" transform="translate(-1342.86 -1373)"/></svg>