<?xml version="1.0" encoding="utf-8"?>
<svg viewBox="0 0 500 500" xmlns="http://www.w3.org/2000/svg">
  <path class="cls-45" d="M 459.048 219.21 C 459.79 218.524 460.639 217.967 461.562 217.564 C 463.15 216.89 464.858 216.556 466.581 216.582 C 468.321 216.547 470.046 216.896 471.637 217.602 C 473.088 218.244 474.368 219.221 475.374 220.453 C 476.405 221.727 477.176 223.189 477.645 224.761 C 478.176 226.483 478.419 228.283 478.365 230.086 C 478.222 238.844 478.085 247.6 477.953 256.353 L 463.627 257.579 L 463.627 232.805 C 463.641 232.065 463.347 231.351 462.816 230.834 C 462.236 230.277 461.45 229.983 460.647 230.02 C 459.842 230.003 459.059 230.277 458.442 230.797 C 457.816 231.325 457.471 232.117 457.508 232.937 L 457.508 248.897 C 457.508 254.851 458.973 257.764 453.686 257.307 L 447.921 256.813 C 444.704 256.533 443.247 254.111 443.201 250.485 C 443.07 235.468 442.947 221.918 442.816 207.155 C 442.761 201.37 447.752 201.827 453.834 201.835 C 458.508 201.835 457.891 205.143 457.779 209.771 C 457.676 213.965 457.694 213.208 457.619 216.31 C 457.525 219.836 457.282 220.835 459.068 219.199 M 416.325 243.495 C 417.616 243.724 418.928 243.835 420.239 243.824 L 422.176 243.824 C 422.801 243.804 423.427 243.738 424.044 243.626 C 424.538 243.538 425.01 243.346 425.427 243.067 C 425.807 242.795 426.018 242.347 425.987 241.878 C 425.99 241.221 425.584 240.633 424.97 240.404 C 424.158 240.033 423.321 239.718 422.464 239.467 C 421.53 239.159 420.399 238.796 419.213 238.384 C 418.028 237.956 416.928 237.322 415.96 236.516 C 414.908 235.619 414.06 234.511 413.466 233.262 C 412.723 231.588 412.374 229.766 412.446 227.937 C 412.449 226.472 412.737 225.021 413.297 223.666 C 413.926 222.195 414.885 220.893 416.1 219.853 C 417.539 218.599 419.213 217.647 421.025 217.05 C 423.384 216.299 425.85 215.945 428.323 216.005 C 429.418 216.005 430.52 216.005 431.612 216.133 C 432.706 216.265 433.743 216.339 434.734 216.49 C 435.725 216.639 436.602 216.799 437.462 216.956 C 439.388 217.302 440.659 220.695 439.939 222.918 C 439.005 225.872 439.219 228.769 436.342 228.292 C 435.214 228.109 434.071 228.023 432.931 228.032 C 432.66 228.032 432.249 228.032 431.677 228.032 C 431.103 228.049 430.532 228.114 429.969 228.226 C 429.435 228.317 428.921 228.503 428.455 228.777 C 428.055 228.977 427.801 229.386 427.801 229.834 C 427.795 230.525 428.209 231.151 428.846 231.414 C 429.683 231.811 430.555 232.14 431.443 232.394 C 432.471 232.705 433.603 233.079 434.837 233.516 C 436.057 233.954 437.199 234.585 438.219 235.385 C 439.31 236.273 440.196 237.384 440.816 238.647 C 441.582 240.31 441.939 242.132 441.864 243.964 C 441.942 246.046 441.404 248.106 440.322 249.888 C 439.288 251.445 437.888 252.728 436.248 253.625 C 434.431 254.611 432.463 255.29 430.426 255.633 C 428.172 256.033 425.884 256.23 423.596 256.225 C 421.779 256.225 419.968 256.113 418.165 255.896 C 415.417 255.55 413.634 254.625 412.931 253.019 C 412.52 252.082 412.737 250.683 412.671 249.597 C 412.372 246.403 413.4 243.009 416.305 243.532 Z M 330.015 210.311 L 337.491 220.124 C 340.136 216.527 341.65 214.454 344.296 210.863 C 345.773 208.846 346.415 207.734 348.966 207.649 L 357.257 207.389 C 360.742 207.275 360.733 209.257 361.742 212.685 C 366.227 227.637 369.629 239.03 374.031 253.802 C 374.966 256.879 373.377 257.867 370.115 258.064 L 358.388 258.776 C 355.377 258.953 354.8 258.97 353.76 255.879 L 348.155 239.198 C 345.913 243.112 344.79 245.215 342.547 249.103 C 342.099 249.868 336.071 250.971 334.94 249.494 C 331.138 244.569 330.529 243.384 327.661 239.413 C 326.447 244.935 325.53 249.066 324.316 254.588 C 323.784 256.99 322.139 257.822 319.559 257.802 C 314.289 257.802 311.618 257.887 306.393 257.933 C 302.899 257.933 302.73 256.579 303.644 253.391 C 307.832 238.796 311.429 226.226 315.606 211.631 C 316.54 208.463 317.925 208.472 320.999 208.414 L 326.398 208.323 C 328.549 208.294 328.689 208.631 329.998 210.351 Z M 409.775 251.925 C 407.909 253.308 405.838 254.388 403.636 255.122 C 400.402 256.045 397.054 256.49 393.691 256.439 C 390.809 256.476 387.949 255.936 385.281 254.851 C 382.833 253.848 380.593 252.391 378.685 250.56 C 369.732 241.972 372.657 226.889 378.814 220.733 C 380.653 218.89 382.856 217.45 385.281 216.507 C 387.789 215.528 390.463 215.031 393.16 215.051 C 397.331 214.951 401.433 216.156 404.887 218.499 C 407.341 219.998 409.355 222.118 410.726 224.646 C 412.174 227.283 410.643 229.32 408.261 231.188 C 402.307 235.665 397.982 238.479 392.074 242.955 C 392.689 243.258 393.354 243.441 394.037 243.495 C 394.78 243.578 395.525 243.621 396.271 243.626 C 398.082 243.672 399.876 243.292 401.513 242.515 C 402.353 242.072 403.159 241.564 403.916 240.993 C 405.952 239.487 406.352 241.412 407.849 243.869 L 410.298 247.906 C 411.363 249.711 411.512 250.823 409.755 251.962 Z M 397.625 228.646 C 397.094 227.952 396.382 227.412 395.571 227.086 C 394.751 226.806 393.891 226.669 393.029 226.683 C 392.172 226.675 391.326 226.869 390.56 227.255 C 389.823 227.643 389.169 228.174 388.635 228.814 C 388.092 229.468 387.669 230.211 387.384 231.011 C 387.095 231.814 386.947 232.662 386.944 233.516 C 386.918 234.096 386.975 234.679 387.112 235.245 C 387.235 235.602 387.384 235.953 387.552 236.29 Z" style="fill: rgb(21, 60, 103); stroke-width: 0px; stroke-miterlimit: 1;"/>
  <path class="cls-46" d="M 179.519 220.564 C 178.125 219.87 176.588 219.518 175.032 219.544 C 173.3 219.573 171.586 219.927 169.987 220.593 C 168.233 221.293 166.616 222.292 165.202 223.544 C 163.722 224.858 162.511 226.443 161.634 228.217 C 160.668 230.148 160.182 232.282 160.222 234.442 C 160.099 236.213 160.451 237.987 161.239 239.581 C 161.848 240.775 162.805 241.752 163.987 242.384 C 165.142 242.967 166.433 243.226 167.724 243.141 C 175.089 242.787 183.153 235.385 174.155 237.096 C 169.781 237.927 166.901 238.216 167.427 234.196 C 167.95 230.18 167.995 227.826 174.406 227.02 L 189.107 225.152 C 196.583 224.218 198.451 225.975 197.637 232.188 C 197.197 234.779 196.311 237.273 195.02 239.561 C 193.997 241.638 192.826 243.641 191.518 245.552 C 190.575 246.952 189.558 248.3 188.47 249.588 C 187.658 250.523 187.21 251.008 187.124 251.094 C 185.43 252.751 183.496 254.142 181.388 255.225 C 179.1 256.419 176.668 257.319 174.155 257.904 C 171.535 258.524 168.847 258.801 166.156 258.727 C 163.476 258.673 160.822 258.187 158.297 257.287 C 155.754 256.365 153.409 254.973 151.381 253.185 C 149.161 251.217 147.407 248.777 146.241 246.046 C 144.773 242.961 143.882 239.633 143.608 236.225 C 143.142 229.9 144.665 223.589 147.961 218.17 C 149.587 215.479 151.572 213.022 153.857 210.863 C 156.171 208.689 158.76 206.829 161.556 205.332 C 164.376 203.806 167.401 202.701 170.538 202.052 C 170.621 202.052 171.098 201.995 171.949 201.884 C 173.192 201.784 174.443 201.784 175.686 201.884 C 177.528 202.001 179.351 202.312 181.125 202.818 C 183.408 203.475 185.601 204.395 187.667 205.566 C 196.554 210.426 193.703 212.639 191.012 216.302 C 190.004 217.696 188.895 219.016 187.695 220.247 C 185.741 222.115 183.022 222.375 179.508 220.573" style="fill: rgb(106, 170, 208); stroke-width: 0px; stroke-miterlimit: 1;"/>
  <path class="cls-46" d="M 204.487 203.826 L 207.73 203.575 C 213.617 203.107 214.469 203.575 214.403 209.546 C 214.252 223.367 214.132 233.534 213.983 247.346 C 213.983 251.831 213.983 255.756 210.021 256.11 L 205.496 256.505 C 199.282 257.036 200.114 255.57 200.059 249.486 C 199.937 235.339 199.854 225.338 199.731 211.171 C 199.674 205.041 198.554 204.286 204.487 203.809" style="fill: rgb(106, 170, 208); stroke-width: 0px; stroke-miterlimit: 1;"/>
  <path class="cls-46" d="M 230.269 239.338 C 230.889 240.924 232.189 242.15 233.812 242.672 C 235.649 243.184 237.608 242.995 239.317 242.15 C 241.082 241.49 242.553 240.224 243.473 238.581 C 244.239 237.076 244.273 235.302 243.567 233.768 C 242.933 232.2 241.642 230.991 240.036 230.46 C 238.225 229.931 236.283 230.103 234.597 230.945 C 232.798 231.597 231.292 232.879 230.364 234.553 C 229.604 236.05 229.569 237.813 230.269 239.338 M 270.695 239.338 C 271.318 240.924 272.617 242.147 274.237 242.672 C 276.074 243.184 278.034 242.995 279.742 242.15 C 281.508 241.49 282.979 240.224 283.899 238.581 C 284.664 237.076 284.701 235.305 284.002 233.768 C 283.362 232.202 282.068 230.994 280.462 230.46 C 278.651 229.931 276.708 230.103 275.023 230.945 C 273.226 231.6 271.723 232.879 270.798 234.553 C 270.029 236.048 269.992 237.81 270.695 239.338 Z M 298.217 233.731 C 298.665 236.533 298.522 239.398 297.794 242.141 C 297.12 244.649 295.937 246.989 294.32 249.02 C 292.689 251.06 290.661 252.748 288.358 253.982 C 285.878 255.302 283.182 256.156 280.396 256.505 C 277.597 256.907 274.751 256.819 271.986 256.242 C 269.421 255.716 266.99 254.679 264.836 253.196 C 261.062 250.534 258.402 246.575 257.36 242.075 L 257.36 242.187 C 256.685 244.692 255.506 247.032 253.894 249.066 C 252.255 251.085 250.226 252.757 247.932 253.982 C 245.453 255.302 242.756 256.156 239.971 256.505 C 237.171 256.905 234.326 256.816 231.561 256.242 C 228.998 255.716 226.573 254.679 224.419 253.196 C 222.299 251.714 220.514 249.803 219.177 247.589 C 217.728 245.155 216.811 242.441 216.486 239.627 C 216.046 236.825 216.191 233.959 216.917 231.217 C 218.268 226.12 221.691 221.821 226.356 219.359 C 228.83 218.036 231.529 217.182 234.317 216.836 C 237.094 216.436 239.922 216.525 242.67 217.096 C 245.219 217.624 247.632 218.661 249.772 220.144 C 251.903 221.635 253.692 223.566 255.014 225.806 C 256.054 227.549 256.825 229.44 257.294 231.414 L 257.343 231.245 C 258.694 226.149 262.116 221.85 266.781 219.387 C 269.258 218.067 271.955 217.21 274.743 216.862 C 277.52 216.465 280.348 216.553 283.096 217.125 C 285.647 217.65 288.067 218.687 290.206 220.17 C 292.335 221.67 294.12 223.598 295.448 225.835 C 296.894 228.266 297.834 230.965 298.217 233.768 Z" style="fill: rgb(106, 170, 208); stroke-width: 0px; stroke-miterlimit: 1;"/>
  <path class="cls-47" d="M 288.244 214.516 C 285.813 215.533 283.642 217.09 281.899 219.067 L 284.77 221.247 C 285.536 220.453 291.038 220.741 290.226 220.107 C 288.589 218.836 289.618 217.722 291.095 217.107 C 293.897 215.479 294.74 222.872 301.796 220.741 C 306.524 219.321 308.627 214.911 307.187 210.771 C 305.747 206.632 300.756 204.489 296.065 205.995 C 293.56 206.743 291.798 208.989 291.666 211.602 C 291.46 214.145 291.206 213.257 288.244 214.491" style="fill: rgb(106, 170, 208); fill-rule: evenodd; stroke-width: 0px; stroke-miterlimit: 1;"/>
  <path class="cls-48" d="M 302.196 208.463 C 300.571 208.469 299.254 209.788 299.254 211.414 C 299.254 214.376 305.121 214.528 305.121 210.985 C 305.121 209.36 303.822 208.463 302.196 208.463" style="fill: rgb(255, 255, 255); fill-rule: evenodd; stroke-width: 0px; stroke-miterlimit: 1;"/>
  <path class="cls-47" d="M 46.747 188.849 C 49.753 190.1 52.438 192.017 54.598 194.454 L 51.092 197.173 C 50.158 196.193 43.328 196.556 44.336 195.773 C 46.356 194.194 45.093 192.819 43.262 192.034 C 39.823 190.014 38.757 199.164 30.01 196.528 C 24.162 194.771 21.599 189.306 23.348 184.184 C 25.096 179.064 31.264 176.419 37.074 178.287 C 40.185 179.221 42.365 182.015 42.514 185.258 C 42.776 188.409 43.085 187.306 46.747 188.829" style="fill: rgb(106, 170, 208); fill-rule: evenodd; stroke-width: 0px; stroke-miterlimit: 1;"/>
  <path class="cls-47" d="M 99.405 226.937 C 98.143 224.012 108.807 216.659 115.292 210.788 C 121.776 204.921 125.73 206.837 127.59 209.106 C 129.45 211.377 128.618 216.836 122.608 220.947 C 116.6 225.058 100.685 229.851 99.425 226.937" style="fill: rgb(106, 170, 208); fill-rule: evenodd; stroke-width: 0px; stroke-miterlimit: 1;"/>
  <path class="cls-49" d="M 70.295 259.587 C 93.295 259.587 111.946 260.25 111.946 261.084 C 111.946 261.915 93.258 262.578 70.295 262.578 C 47.336 262.578 28.664 261.904 28.664 261.084 C 28.664 260.261 47.307 259.587 70.315 259.587" style="fill-rule: evenodd; stroke-width: 0px; stroke-miterlimit: 1;"/>
  <!--start allocation interface - withdraw allocated structures - hex264 erdu rdue end-->
  <path class="cls-47" d="M 54.832 261.364 C 63.025 261.364 64.576 256.019 69.998 255.97 C 75.417 255.925 77.771 261.364 85.679 261.364 C 98.463 261.364 106.779 233.916 106.779 218.89 C 106.779 199.65 90.461 186.698 70.332 186.698 C 50.204 186.698 33.889 199.65 33.889 218.89 C 33.889 241.672 43.616 261.364 54.84 261.364" style="fill: rgb(106, 170, 208); fill-rule: evenodd; stroke-width: 0px; stroke-miterlimit: 1;"/>
  <path class="cls-48" d="M 112.206 217.05 C 111.815 215.788 114.86 214.816 117.983 212.022 C 121.105 209.229 123.253 209.003 123.656 210.266 C 124.056 211.528 122.505 213.594 119.525 215.256 C 116.543 216.919 112.601 218.313 112.206 217.05" style="fill: rgb(255, 255, 255); fill-rule: evenodd; stroke-width: 0px; stroke-miterlimit: 1;"/>
  <path class="cls-48" d="M 35.292 179.399 C 37.477 179.399 39.248 181.175 39.243 183.361 C 39.243 187.343 31.355 187.549 31.355 182.784 C 31.355 180.596 33.104 179.399 35.292 179.399" style="fill: rgb(255, 255, 255); fill-rule: evenodd; stroke-width: 0px; stroke-miterlimit: 1;"/>
  <path class="cls-47" d="M 41.748 220.824 C 40.291 218.022 27.824 221.544 19.2 222.824 C 10.573 224.106 9.507 228.366 10.087 231.237 C 10.667 234.105 15.395 236.936 22.394 234.899 C 29.396 232.862 43.196 223.684 41.748 220.807" style="fill: rgb(106, 170, 208); fill-rule: evenodd; stroke-width: 0px; stroke-miterlimit: 1;"/>
  <path class="cls-48" d="M 15.583 230.851 C 15.418 230.034 14.698 229.443 13.863 229.44 C 13.084 229.317 12.384 229.934 12.407 230.723 C 12.564 231.545 13.284 232.142 14.123 232.142 C 14.909 232.265 15.609 231.645 15.583 230.851 M 30.647 227.403 C 30.647 226.058 28.367 229.377 20.677 230.114 C 17.929 230.377 16.592 230.114 16.369 231.365 C 16.266 231.891 16.423 233.237 20.254 232.842 C 24.085 232.451 30.701 228.9 30.684 227.403 Z" style="fill: rgb(255, 255, 255); fill-rule: evenodd; stroke-width: 0px; stroke-miterlimit: 1;"/>
  <path class="cls-50" d="M 125.636 186.24 C 126.23 186.238 126.819 186.355 127.364 186.586 L 132.906 180.681 C 132.843 180.53 132.792 180.373 132.758 180.213 C 132.326 178.099 134.349 176.31 136.394 176.996 C 138.443 177.685 138.977 180.327 137.36 181.755 C 137.009 182.07 136.58 182.287 136.12 182.39 C 135.623 182.498 135.106 182.47 134.626 182.307 L 129.232 188.054 C 129.664 188.637 129.944 189.317 130.047 190.034 L 137.663 191.165 C 139.1 187.666 143.788 187.032 146.101 190.026 C 148.413 193.022 146.616 197.396 142.868 197.902 C 140.102 198.276 137.583 196.276 137.317 193.502 L 129.747 192.38 C 129.472 193.039 129.038 193.625 128.487 194.079 L 131.112 199.967 C 133.269 200.018 134.563 202.387 133.44 204.229 C 132.318 206.072 129.621 206.009 128.587 204.115 C 128.37 203.718 128.25 203.272 128.244 202.818 C 128.247 202.132 128.495 201.467 128.944 200.95 L 126.319 195.071 C 126.11 195.102 125.902 195.116 125.693 195.119 C 124.839 195.125 124.002 194.885 123.282 194.425 L 119.18 198.79 C 121.219 201.978 119.043 206.178 115.263 206.349 C 112.886 206.458 110.772 204.849 110.247 202.53 C 109.455 198.821 112.978 195.648 116.583 196.819 C 116.886 196.919 117.18 197.047 117.46 197.202 L 121.694 192.688 C 121.456 192.217 121.308 191.708 121.254 191.183 L 112.655 189.903 C 111.469 191.705 108.778 191.551 107.81 189.623 C 106.839 187.692 108.321 185.438 110.478 185.563 C 111.655 185.632 112.666 186.435 113.001 187.566 L 121.645 188.849 C 121.925 188.254 122.333 187.729 122.842 187.315 L 119.937 180.821 C 116.177 181.461 113.135 177.793 114.46 174.216 C 115.783 170.643 120.482 169.843 122.916 172.777 C 124.716 174.948 124.342 178.182 122.094 179.887 L 125.002 186.38 C 125.21 186.352 125.424 186.335 125.636 186.335" style="fill: rgb(21, 60, 103); fill-rule: evenodd; stroke-width: 0px; stroke-miterlimit: 1;"/>
  <path class="cls-48" d="M 119.908 171.877 C 120.514 172 120.945 172.42 120.842 172.811 C 120.739 173.205 120.197 173.437 119.591 173.317 C 118.983 173.194 118.554 172.774 118.657 172.382 C 118.76 171.988 119.3 171.757 119.908 171.877" style="fill: rgb(255, 255, 255); fill-rule: evenodd; stroke-width: 0px; stroke-miterlimit: 1;"/>
  <path class="cls-48" d="M 143.176 188.903 C 143.785 189.026 144.213 189.446 144.11 189.837 C 144.007 190.231 143.476 190.463 142.868 190.343 C 142.259 190.22 141.822 189.8 141.934 189.409 C 142.045 189.014 142.568 188.783 143.185 188.903" style="fill: rgb(255, 255, 255); fill-rule: evenodd; stroke-width: 0px; stroke-miterlimit: 1;"/>
  <path class="cls-48" d="M 115.189 197.81 C 115.797 197.93 116.226 198.35 116.123 198.744 C 116.02 199.136 115.489 199.379 114.88 199.259 C 114.272 199.136 113.835 198.707 113.946 198.324 C 114.058 197.939 114.58 197.696 115.197 197.819" style="fill: rgb(255, 255, 255); fill-rule: evenodd; stroke-width: 0px; stroke-miterlimit: 1;"/>
  <path class="cls-48" d="M 125.99 187.4 C 126.607 187.529 127.039 187.952 126.927 188.334 C 126.813 188.717 126.29 188.96 125.682 188.837 C 125.076 188.717 124.636 188.297 124.747 187.903 C 124.862 187.512 125.384 187.277 125.99 187.389" style="fill: rgb(255, 255, 255); fill-rule: evenodd; stroke-width: 0px; stroke-miterlimit: 1;"/>
  <path class="cls-45" d="M 137.568 203.341 C 137.534 203.189 137.631 203.038 137.786 203.004 C 137.937 202.969 138.088 203.067 138.12 203.221 C 138.291 203.892 138.251 204.598 138.008 205.246 C 137.754 205.858 137.294 206.358 136.709 206.669 C 136.52 206.772 136.286 206.632 136.291 206.415 C 136.294 206.312 136.351 206.22 136.44 206.172 C 136.909 205.923 137.277 205.521 137.486 205.032 C 137.688 204.492 137.717 203.901 137.568 203.341 M 136.337 202.49 C 136.286 202.347 136.369 202.19 136.514 202.144 C 136.66 202.095 136.82 202.175 136.869 202.324 C 137.086 203.141 137.006 204.006 136.646 204.772 C 136.349 205.509 135.76 206.092 135.017 206.378 C 134.872 206.429 134.712 206.349 134.663 206.2 C 134.623 206.055 134.7 205.903 134.84 205.846 C 135.434 205.609 135.903 205.135 136.131 204.538 C 136.434 203.901 136.509 203.175 136.337 202.49 Z" style="fill: rgb(21, 60, 103); stroke-width: 0px; stroke-miterlimit: 1;"/>
  <path class="cls-45" d="M 112.021 170.457 C 112.186 170.357 112.244 170.143 112.152 169.971 C 112.055 169.794 111.829 169.734 111.655 169.84 C 110.872 170.26 110.238 170.911 109.844 171.708 C 109.481 172.465 109.393 173.325 109.592 174.139 C 109.632 174.334 109.827 174.456 110.021 174.411 C 110.21 174.359 110.327 174.171 110.292 173.979 C 110.118 173.328 110.184 172.634 110.478 172.028 C 110.827 171.374 111.364 170.843 112.021 170.503 M 113.889 170.963 C 114.069 170.877 114.146 170.666 114.066 170.486 C 113.986 170.308 113.778 170.228 113.6 170.308 C 112.643 170.791 111.889 171.6 111.469 172.588 C 111.029 173.497 110.975 174.545 111.321 175.493 C 111.398 175.679 111.612 175.765 111.798 175.682 C 111.978 175.605 112.058 175.391 111.975 175.213 C 111.704 174.451 111.758 173.608 112.124 172.885 C 112.455 172.045 113.069 171.348 113.86 170.914 Z" style="fill: rgb(21, 60, 103); stroke-width: 0px; stroke-miterlimit: 1;"/>
  <path class="cls-50" d="M 17.452 213.545 C 22.488 213.545 25.633 218.996 23.116 223.358 C 20.6 227.717 14.303 227.717 11.787 223.358 C 11.212 222.364 10.91 221.235 10.91 220.087 C 10.91 216.473 13.838 213.545 17.452 213.545" style="fill: rgb(21, 60, 103); fill-rule: evenodd; stroke-width: 0px; stroke-miterlimit: 1;"/>
  <path class="cls-48" d="M 18.994 215.219 C 19.928 215.413 20.648 216.088 20.517 216.722 C 20.385 217.359 19.497 217.722 18.526 217.527 C 17.554 217.33 16.872 216.659 17.003 216.022 C 17.134 215.388 18.023 215.022 18.994 215.219" style="fill: rgb(255, 255, 255); fill-rule: evenodd; stroke-width: 0px; stroke-miterlimit: 1;"/>
  <path class="cls-51" d="M 72.101 187.792 C 89.91 187.772 104.359 202.204 104.359 220.013 C 104.359 252.419 40.123 254.065 40.123 215.339 C 40.123 197.585 54.343 187.8 72.138 187.8" style="fill: rgb(115, 183, 219); fill-rule: evenodd; stroke-width: 0px; stroke-miterlimit: 1;"/>
  <path class="cls-50" d="M 70.567 224.004 C 76.034 224.004 78.043 222.078 80.417 224.198 C 82.791 226.32 78.286 233.311 70.521 233.311 C 62.756 233.311 58.371 226.386 60.625 224.198 C 62.876 222.012 65.102 224.004 70.567 224.004" style="fill: rgb(21, 60, 103); fill-rule: evenodd; stroke-width: 0px; stroke-miterlimit: 1;"/>
  <path class="cls-47" d="M 75.755 230.928 C 72.484 232.908 68.378 232.879 65.139 230.851 C 65.259 229.189 68.221 228.3 70.447 229.394 C 72.772 228.3 75.706 229.234 75.755 230.928" style="fill: rgb(106, 170, 208); fill-rule: evenodd; stroke-width: 0px; stroke-miterlimit: 1;"/>
  <path class="cls-48" d="M 70.567 224.629 C 74.146 224.629 76.109 223.852 77.734 223.864 L 77.734 223.946 C 77.777 225.146 76.84 226.152 75.64 226.198 C 75.277 226.2 74.923 226.1 74.615 225.909 C 72.538 225.472 70.375 225.926 68.653 227.16 C 67.759 227.169 66.939 226.669 66.539 225.872 C 66.216 226.083 65.836 226.198 65.447 226.198 C 64.248 226.152 63.311 225.146 63.353 223.946 C 63.348 223.909 63.348 223.872 63.353 223.835 C 64.97 223.835 66.979 224.629 70.558 224.629" style="fill: rgb(255, 255, 255); fill-rule: evenodd; stroke-width: 0px; stroke-miterlimit: 1;"/>
  <path class="cls-52" d="M 99.611 207.397 C 100.422 207.355 101.148 207.897 101.339 208.686 C 101.668 209.389 101.277 210.214 100.528 210.406 C 99.702 210.463 98.957 209.926 98.751 209.126 C 98.431 208.42 98.823 207.597 99.574 207.406 M 71.035 197.519 C 64.745 198.81 62.782 192.734 70.744 190.811 C 80.717 188.409 94.872 194.902 99.117 203.892 C 100.245 206.275 98.48 207.163 96.554 204.826 C 91.275 198.119 81.631 195.342 71.072 197.51 Z" style="fill: rgb(239, 246, 247); fill-rule: evenodd; stroke-width: 0px; stroke-miterlimit: 1;"/>
  <path class="cls-50" d="M 91.518 212.022 C 95.934 212.017 98.703 216.793 96.5 220.621 C 94.3 224.449 88.778 224.458 86.564 220.638 C 86.056 219.764 85.79 218.77 85.79 217.762 C 85.784 214.593 88.35 212.022 91.518 212.022" style="fill: rgb(21, 60, 103); fill-rule: evenodd; stroke-width: 0px; stroke-miterlimit: 1;"/>
  <path class="cls-52" d="M 94.078 213.862 C 95.309 213.862 96.077 215.196 95.463 216.262 C 94.849 217.325 93.309 217.325 92.695 216.262 C 92.555 216.016 92.481 215.742 92.481 215.462 C 92.481 214.579 93.195 213.862 94.078 213.862" style="fill: rgb(239, 246, 247); fill-rule: evenodd; stroke-width: 0px; stroke-miterlimit: 1;"/>
  <path class="cls-50" d="M 53.438 212.022 C 57.854 212.017 60.622 216.793 58.42 220.621 C 56.22 224.449 50.698 224.458 48.484 220.638 C 47.976 219.764 47.71 218.77 47.71 217.762 C 47.704 214.593 50.27 212.022 53.438 212.022" style="fill: rgb(21, 60, 103); fill-rule: evenodd; stroke-width: 0px; stroke-miterlimit: 1;"/>
  <path class="cls-52" d="M 56.037 213.862 C 57.266 213.862 58.034 215.196 57.42 216.262 C 56.806 217.325 55.266 217.325 54.652 216.262 C 54.512 216.016 54.438 215.742 54.438 215.462 C 54.438 214.579 55.155 213.862 56.037 213.862" style="fill: rgb(239, 246, 247); fill-rule: evenodd; stroke-width: 0px; stroke-miterlimit: 1;"/>
</svg>