<?xml version="1.0" encoding="UTF-8"?>
<svg id="Layer_1" data-name="Layer 1" xmlns="http://www.w3.org/2000/svg" xmlns:xlink="http://www.w3.org/1999/xlink" viewBox="0 0 846.47 626.45">
  <defs>
    <style>
      .cls-1 {
        fill: none;
      }

      .cls-2 {
        fill: url(#linear-gradient-2);
      }

      .cls-3 {
        fill: url(#linear-gradient);
      }

      .cls-4 {
        fill: #66bec5;
      }

      .cls-5 {
        fill: #060403;
      }

      .cls-6 {
        fill: #eead7a;
      }

      .cls-7 {
        fill: #fefefe;
      }

      .cls-8 {
        fill: #fbc539;
      }

      .cls-9 {
        fill: #081c39;
      }

      .cls-10 {
        fill: #e74d3b;
      }
    </style>
    <linearGradient id="linear-gradient" x1="298.21" y1="67.02" x2="298.21" y2="224.57" gradientUnits="userSpaceOnUse">
      <stop offset="0" stop-color="#0f9efc"/>
      <stop offset=".11" stop-color="#109ff7"/>
      <stop offset=".24" stop-color="#13a3e9"/>
      <stop offset=".37" stop-color="#18a9d2"/>
      <stop offset=".51" stop-color="#20b2b2"/>
      <stop offset=".66" stop-color="#2abe88"/>
      <stop offset=".81" stop-color="#36cc55"/>
      <stop offset=".96" stop-color="#44dc1b"/>
      <stop offset="1" stop-color="#49e209"/>
    </linearGradient>
    <linearGradient id="linear-gradient-2" x1="752.86" y1="67.02" x2="752.86" y2="224.57" xlink:href="#linear-gradient"/>
  </defs>
  <g>
    <path class="cls-9" d="M117.56,147.51v-33.78h87.25v79.86c-8.48,8.2-20.77,15.43-36.86,21.68-16.09,6.24-32.39,9.37-48.89,9.37-20.97,0-39.25-4.4-54.84-13.2-15.59-8.8-27.31-21.38-35.15-37.74-7.84-16.36-11.76-34.16-11.76-53.4,0-20.88,4.38-39.43,13.13-55.66,8.75-16.23,21.56-28.67,38.43-37.33,12.85-6.65,28.85-9.98,48-9.98,24.89,0,44.33,5.22,58.33,15.66,13.99,10.44,23,24.87,27.01,43.28l-40.2,7.52c-2.83-9.85-8.14-17.62-15.93-23.32-7.79-5.7-17.53-8.55-29.2-8.55-17.69,0-31.75,5.61-42.19,16.82-10.44,11.21-15.66,27.85-15.66,49.91,0,23.79,5.29,41.64,15.86,53.54,10.57,11.9,24.43,17.85,41.57,17.85,8.48,0,16.98-1.66,25.5-4.99,8.52-3.33,15.84-7.36,21.95-12.1v-25.44h-46.36Z"/>
    <g>
      <path class="cls-9" d="M391.73,203.03c-.21-.07-.81-.2-1.46-.33v18.52h22.53c-.41-.74-.8-1.41-1.09-1.87-4.94-7.86-12.23-13.81-19.98-16.32Z"/>
      <path class="cls-9" d="M390.5,196.41c-.08,0-.15.01-.23.01v3.21c1.05.21,1.98.41,2.39.54,8.56,2.78,16.38,9.3,21.59,17.58.29.46,1.14,1.91,1.95,3.47h4.25c-.85-2.03-1.76-4.21-2.2-4.99-5.66-9.98-16.99-19.82-27.74-19.82Z"/>
      <path class="cls-9" d="M520.53,105.12c-1.41-6.02-3.92-11.4-7.52-16.14-3.6-4.74-8.91-8.64-15.93-11.69-7.02-3.05-14.77-4.58-23.25-4.58-19.24,0-35.19,8.21-47.86,24.62v-21.33h-35.69v117.43c.08,0,.15-.01.23-.01,5.67,0,11.75,2.34,17.59,6.78,5.1,3.87,9.63,9.04,12.76,14.56.05.09.1.18.15.28-2.56-10.85-6.94-20.27-12.91-27.63-.09-.09-.23-.21-.39-.36-2.77-2.56-5.21-5.1-4.51-7.92.36-1.44,1.47-2.51,3.07-2.93.35-.09.71-.14,1.08-.14,5.37,0,13.62,12.04,13.7,12.16,2.31,3.61,5.33,10.14,7.53,16.55.04-.2.08-.4.12-.6v-48.73c0-16.23.98-27.35,2.94-33.37,1.96-6.02,5.58-10.85,10.87-14.5,5.29-3.65,11.26-5.47,17.91-5.47,5.2,0,9.64,1.28,13.33,3.83,3.69,2.55,6.36,6.13,8,10.74,1.64,4.6,2.46,14.75,2.46,30.43v74.12h38.43v-90.26c0-11.21-.71-19.83-2.12-25.85Z"/>
      <path class="cls-9" d="M418.51,189.84c-1.52-2.38-8.34-10.78-11.18-10.78-.11,0-.21.01-.31.04-3.26.87,2.84,5.75,3.32,6.34,8.04,9.87,12.8,22.54,14.91,35.79h3.28v-3.04c0-7.18-6.25-22.45-10.02-28.34Z"/>
    </g>
    <path class="cls-9" d="M542.53,221.22v-29.95l54.43-62.5c8.93-10.21,15.54-17.46,19.83-21.74-4.47.27-10.35.46-17.64.55l-51.28.27v-31.86h120.07v27.21l-55.52,64-19.56,21.2c10.67-.64,17.28-.96,19.83-.96h59.49v33.78h-129.64Z"/>
    <path class="cls-3" d="M298.21,72.32c-42.13,0-76.28,34.15-76.28,76.28s34.15,76.28,76.28,76.28,76.28-34.15,76.28-76.28-34.15-76.28-76.28-76.28ZM298.21,188.16c-21.85,0-39.55-17.71-39.55-39.55s17.71-39.55,39.55-39.55,39.55,17.71,39.55,39.55-17.71,39.55-39.55,39.55Z"/>
    <path class="cls-2" d="M752.86,72.32c-42.13,0-76.28,34.15-76.28,76.28s34.15,76.28,76.28,76.28,76.28-34.15,76.28-76.28-34.15-76.28-76.28-76.28ZM752.86,188.16c-21.85,0-39.55-17.71-39.55-39.55s17.71-39.55,39.55-39.55,39.55,17.71,39.55,39.55-17.71,39.55-39.55,39.55Z"/>
  </g>
  <g>
    <path class="cls-4" d="M603.08,211.17c.24,3.09-.17,6.27-1.19,9.19-1.91,5.45-5.75,9.75-10.44,13.01-1.72,1.2-3.34-1.62-1.64-2.8,5.04-3.51,8.88-8.52,9.87-14.67.28-1.72.28-3.49.12-5.23,0-.05-.04-.3-.04-.37-.01-.1-.03-.19-.04-.29-.04-.21-.07-.42-.12-.63-.04-.21-.09-.41-.15-.62,0-.01,0-.02,0-.03,0,0,0,0,0-.01-.03-.08-.06-.17-.08-.25-.01-.03-.02-.05-.02-.07,0,0,0,0,0-.01-.59-1.16-.95-1.72-1.76-2.53-2.75-2.73-6.88-3.43-10.79-3.31,1.71,2.58,2.64,5.63,2.7,8.72.13,6.14-3.04,11.71-6.76,16.36-1.3,1.63-3.58-.68-2.29-2.29,3.8-4.76,7.04-11,5.35-17.24-.44-1.62-1.15-3.05-2.16-4.45-.02-.03-.07-.09-.11-.14-.07-.09-.15-.19-.23-.28-.14-.16-.28-.32-.42-.47-.12-.12-.24-.25-.37-.36-.08-.04-.15-.07-.24-.12-.7-.4-1.27-.65-2.03-.88-2.57-.77-5.2-.31-7.29,1.4-.39.32-.71.71-1.09,1.04-.03.02-.03.03-.05.04-.1.14-.2.28-.29.43-.44.73-.74,1.49-.93,2.33-.3,1.28-.23,2.62.12,3.88.26.92.66,1.78,1.15,2.6.43.71,1.1,1.39.8,2.29-.22.64-.83,1.25-1.56,1.19-1.94-.16-3.89-.25-5.84-.29-4.74-.08-9.57.14-14.18,1.31-3.73.94-8.14,2.69-9.22,6.79-.04.14-.08.26-.14.37,0,.01,0,.01,0,.03-.1.33-.2.65-.27.98-.2.93-.25,1.91-.16,3.08.28,3.83,3.75,10.3,6.39,13.37-.84,3.29-1.11,7.46-2.17,10.35,10.84.24,21.79,2.07,31.7,6.51.93-4.12,1.57-9,1.99-15.05,1.02.28,3.25-.29,3.3-.3,9.01-2.61,18.4-7.62,22.95-16.18.13-.25.25-.51.39-.76.17-.46.34-.91.49-1.37.48-1.47.84-3.04.96-4.5.33-3.99-.91-7.57-4.17-9.76Z"/>
    <g>
      <path class="cls-1" d="M382.07,332.26c1.48,6.51,5.79,19.45,13.08,21.26,2.11.52,4.31.15,6.43.5l-.82-24.21c-5.79,2.94-12.34,4.24-18.69,2.44Z"/>
      <path class="cls-1" d="M402.38,319.06c-.23-2.14.27-4.34.05-6.46-7.4-1.79-13.66-6.06-14.68-14.07-11.02,1.11-25.24,10.19-17.15,22.64,6.39,9.83,21.08,10.77,30.37,4.6,4.12-2.74,1.81-2.91,1.41-6.71Z"/>
      <path class="cls-1" d="M422.1,370.06c1.18.36,6.77,0,8.54,0,2.04,0,6.97-2.23,8.88-3.31,6.28-3.54,10.94-8.98,14.48-15.18-11.55-7.43-25.22-.2-30.67,11.19-.53,1.11-2.76,6.84-1.23,7.31Z"/>
      <path class="cls-1" d="M386.63,386.02c1.84.55,7.6,2.26,9.14,2.24.64-.01,2.28-1.79,3.23-2.27,2.54-1.29,4.73-1.1,7.17.33.45.26-.04,1,.89.82.37-.07.11-.61.49-.82,3.48-2,7.64-1.69,10.31,1.43.36.42.24,1.34.64,1.45.94.26,6.67.06,8.08-.03,8.5-.53,17.39-2.68,25.15-6.15,13.48-6.03,22.56-17.57,36.04-23.3,3.75-1.59,7.45-2.28,11.18-3.45,5.36-7.91,10.91-14.39,12.99-24,3.13-14.45,2.07-32.37-1.22-46.75-.44-1.91-2.57-7.4-2.53-8.69.07-2.1,2.28-.95,3.32-1.06,20.51-2.12,21.19-32.6,1.63-31.32-5.15.34-11.95,4.77-14.09,9.49-.59,1.29-.74,3.16-1.15,4.07-.28.63-1.74.36-1.97-.39-.27-.9.2-1.67-.44-2.81-.42-.75-4.94-5.01-5.92-5.87-9.82-8.63-23.19-15.12-36.3-17.76-1.92-.39-9.04-1.65-10.36-1.26-.87.26-4.84,6.03-5.57,5.2-.51-2.47,1.75-3.65,2.43-5.69-1.47.46-4.79-.51-5.84-.31-.6.11-3.13,3.64-3.67,4.41-.57.81-2.49,4.64-2.69,4.84-1.04,1.02-.71-1.32-.63-1.65.67-2.7,2.66-5.06,3.48-7.7-1.2.14-2.71-.22-3.85,0-2.05.4-4.29,7.14-5.7,7.71-.83.34-.61-.6-.6-1,.08-2.5,1.82-4.41,2.43-6.71-6.27.51-12.54.96-18.77,2.16-11.84,2.27-23.72,6.85-33.25,14.3,11.24-4.97,25.67-2.58,33.31,7.32,6.97,9.03,7.6,18.9,5.7,29.87,3.25-.15,6.26.9,9.35,1.62v-8.33c0-2.88,4.02-11.9,5.62-14.7,12.43-21.69,43.6-22.29,55.43.4,10.28,19.71,1.31,49.22-22.84,51.49-9.23.87-18.56-3.14-25.64-8.71-.71-.56-1.15-2.15-2.56-2.23-3.33,5.04-7.62,8.15-13.49,9.69-1.8.47-8.8,1.23-9.53,1.85-1.26,1.07.21,7.67.8,9.37,4.53,12.89,22.96,13.54,33.75,9.33,7.19-2.81,10.91-7.53,16.69-11.76.77-.56,1.79-.51,2.42-1.24-.84-.31-2.18-.31-3.07-.22-1.28.12-1.44,1.32-2.17.17-.8-1.25,2.24-3.42,3.21-3.4.06,0,.33.35.65.37,5.26.34,11.02,2.38,11.14,8.57-2.21.33-2.78-3.51-4.84-2.39-.86,12.06-3.74,25.65-10.92,35.61-7.74,10.73-17.17,16.53-30.8,15.57-7.31-.51-15.95-5.03-20.27-11.03-.72-.99-2.76-5.26-3.08-5.46-.82-.5-2.71-.06-3.82-.24-9.35-1.54-12.84-11.59-15.39-19.56-.33-1.02-1.35-6.06-1.61-6.32-.19-.19-1.39-.34-1.96-.68-8.93-5.23-13.44-12.33-10.56-22.97-8.22-1.76-14.92-10.06-17.35-17.81-.27-.86-1.33-4.6-1.33-5.17v-9.14l-4.54,8.67c-17.98,44.14-3.71,87.87,43.66,101.99Z"/>
      <path class="cls-1" d="M408.9,428.79c1.94.91,4.93-3.28,5.59-4.97,3.93-10.01-4.89-8.08-7.85-13.5-.4-.73-1.19-4.38-2.21-3.68-.13.09-.94,1.92-1.62,2.65-2.75,2.94-6.14,4.1-7.46,8.39-1.36,4.43.13,8.12,2.98,11.51,3.92,4.67,13.28,8.4,10.95,15.83-1.67,5.33-8.95,5.29-10.52,0-.76-2.58-.36-4.44.89-6.78.32-.61,1.52-1.61,1.52-1.73,0-.2-2.58-2.71-3-2.62-5.45,4.23-5.3,15.38.87,18.58,10.16,5.27,19.27-6.85,13.28-15.51-3.41-4.94-7.95-6.71-11.35-10.8-2.74-3.29-4.14-8.23-.17-11.16,6.81-5.03,13.79,3.38,8.86,10.08-.69.94-2.56,1.32-2.38,2.08.03.11,1.43,1.54,1.63,1.64Z"/>
      <path class="cls-1" d="M353.28,259.38c2.27-3.23,5.29-6.6,8.25-9.23,1.4-1.25,2.51-.06,2.21-3.39-.31-3.36-3.3-7.41-5.78-9.47-4.87-4.05-14.09-3.61-19.26-.21-8.39,5.52-8.05,19.29-.72,25.27,2.53,2.07,8.35,4.42,11.48,2.96.91-.42,2.98-4.71,3.83-5.92Z"/>
      <path class="cls-1" d="M407.95,417.74c-1.14-1.63-3.46-1.65-5.04-.62-3.35,2.17.05,8.86,2.72,7.61,1.97-.92,3.69-5.03,2.32-6.99Z"/>
      <path class="cls-1" d="M405.41,327.39c-.97.39-2.3.99-2.23,2.2.5,8.2.15,16.47,1.71,24.56,3.58.15,8.73,1.32,11.53-1.57,1.15-1.18,3.38-6.2,4.21-7.98,1.01-2.18,1.91-4.45,2.9-6.65-7.51-.03-14.2-4.34-18.12-10.56Z"/>
      <path class="cls-1" d="M406.84,442.25c-.09-1.21-1.85-3.91-3.04-3.81-.26.02-2.03,1.82-2.15,2.22-1.91,6.45,5.59,7.26,5.18,1.59Z"/>
      <path class="cls-1" d="M270.29,260.73c9.43-3.69,19.46-6.2,29.67-6.1.52-.51-2.84-12.46-2.37-14.34l-28.61,3.65,1.3,16.79Z"/>
      <path class="cls-1" d="M391.75,301.65c6.35,12.85,33.07,9.52,34.86-3.11,1.31-9.19-12.36-13.43-19.41-13.33-8.92.12-20.81,5.58-15.45,16.44Z"/>
      <path class="cls-1" d="M367.64,304.87l6.29-4.92c-4.38-1.71-7.98-3.55-10.9-7.39-9.71-12.77-1.38-34.94,14.87-37.02,15.92-2.03,23.84,11.31,22.01,25.67-.1.81-.46,1.54-.78,2.27,2.37-.69,4.79-1.29,7.3-1.23,8.07-29.26-21.77-48.3-44.89-27.61-16.16,14.46-15.75,42.12,6.09,50.23Z"/>
      <path class="cls-1" d="M425.97,288.97c1.3,1.41,2.7,3.46,3.22,5.32.35,1.25.25,2.91.64,3.83.3.7,3.99,3.74,4.88,4.47,27.15,22.11,56.68-8.22,43.63-37.53-4.76-10.68-16.16-18.32-28.07-17.21-17.06,1.59-30.61,19.95-28.39,36.68.25,1.85,2.77,3,4.1,4.44Z"/>
      <path class="cls-1" d="M574.13,283.46l4.6-19.21c-11.09-6.82-25.45-7.94-38.3-8.02l-4.72,18.31c13.31-.31,26.51,3.24,38.42,8.91Z"/>
      <path class="cls-1" d="M389.79,289.38c1.36-1.85,5.36-4.1,6.01-5.37.36-.69,1.16-4.33,1.26-5.24,1.24-11.7-6.52-21.44-18.75-19.96-14.71,1.78-21.84,23.37-11.1,33.63,5.02,4.8,11.22,5.94,17.68,3.44,4.08-1.58,2.68-3.48,4.89-6.49Z"/>
      <path class="cls-1" d="M386.85,389.05c-9.93-2.52-24.43-9.25-31.88-16.28-.44-.42-.62-1.33-1.36-1.48,4.36,17.42,22.5,26.76,39.43,27.23-.43-2.91,1.03-5.41,1.63-8.13-2.66-.12-5.24-.68-7.81-1.34Z"/>
      <path class="cls-1" d="M373.53,549.7c-9.4,3.12-18.75,3.02-28.04-.41-.09.7.06,1.37.18,2.05.45,2.46,4.22,17.31,5.35,18.23.22.18,4.76,2.09,1.99,2.89-1.29.37-6.69,0-8.54,0-6.03,0-15.79,4.56-20.33,8.52-4.59,4-13.3,14.86-5.85,19.69,12.21,7.92,46.43,3.2,58.88-4.05,2.01-1.17,4.9-3.25,5.28-5.69.96-6.19-5.5-22.96-7.1-30.24-.79-3.61-1.3-7.33-1.82-10.99Z"/>
      <path class="cls-1" d="M345.95,509.32c5.11-10.59,11.72-20.25,18.64-29.72-8.46-13.51-16.44-27.91-19.51-43.7-.51.03-.66.58-.89.94-6.19,9.77-12.44,27.85-16.19,39.09-1.22,3.65-2.76,11.48-4.38,14.32-.23.41-.47,1.07-1.1.93-1.66-.36.45-7.89.8-9.35,4.23-17.62,12.58-34.89,20.46-51.11-2.06-10.88-1.43-21.87-1.55-32.82,0-.48.28-1.52-.41-1.42-12.88,30.39-27.66,60.03-40.03,90.65-3.16,7.82-6.91,16.65-8.96,24.78-.37,1.46-2.13,8.11-.98,8.9,1.3.27,2.39-.58,3.48-1.11,9.64-4.69,22.24-16.17,33.87-12.87,4.41,1.25,9.41,6.52,14.08,6.69,1.64.06,1.97-2.8,2.64-4.2Z"/>
      <path class="cls-1" d="M354.83,455.41c1.45,3.36,3.01,6.84,4.8,10.03.89,1.59,3.26,5.95,4.4,6.99.94.85,3.83,2,5.15,2.57,6.74,2.91,14.17,4.54,21.41,5.62-.22-2.17-.96-15.34-2.01-16.08-11.68-.93-23.27-3.95-33.76-9.12Z"/>
      <path class="cls-1" d="M391.42,460.29l3.02,24.01c8.31,1.76,16.96,1.53,25.43,1.6l-2.44-25.2c-8.66.49-17.35.11-26.01-.4Z"/>
      <path class="cls-1" d="M575.12,473.51c-7.22-9.22-15.33-17.78-22.74-26.85-13.2-16.16-25.53-33.21-35.79-51.4-.58-.39-9.25,6.66-10.76,7.31-.02,2.26-1.12,5.18-.39,7.3,13.31,20.46,26.66,40.98,39.38,61.83,9.96,16.32,18.99,34.03,29.33,49.92,1.58,2.43,3.08,4.99,5.25,6.93.73,0,6.25-8.78,6.93-10.13,9.09-18.05-.34-31.02-11.21-44.91Z"/>
      <path class="cls-1" d="M504.42,413.55c-3.03,23.69-10.23,47.01-19.44,68.96,3.08,5.22,6.45,10.27,9.6,15.45,1.85,3.05,3.5,6.7,5.43,9.61.25.38.57,1.08,1.17.93,1.61-.43,5.98-4.59,7.73-5.71,15.79-10.11,22.18,4.89,36.24,2.51,4.89-.83,9.22-2.83,14.54-1.93l-14.46-25.16-40.81-64.66Z"/>
      <path class="cls-1" d="M486.12,471.67c-19.64,9.27-41.72,13.12-63.41,13.41.06,1.64.37,3.59-1.81,3.68-9.37.15-18.69-.16-27.98-1.32-1.81-.53-.43-2.82-1.79-3.49-8.24-1.4-16.41-3.35-24.11-6.58-.14.11,1.65,1.85,1.03,3.23-7.43,9.27-14.88,19.83-19.67,30.76-4.85,11.07-6.42,22.37-3.5,34.27,8.67,3.9,19.11,4.42,28.05.84-.18-15.52,7.25-29.81,18.06-40.46-.78-1.26-5.3-2.31-3.88-4.3,1.16-1.63,5.52,1.91,6.87,2.54,17.6,8.22,39.53,8.55,57.69,2.04,10.86,7.79,19.81,19.36,25.45,31.48.83,1.78,4.37,11.68,4.95,12.12,1.57,1.19,10.17,1.58,12.37,1.43,5.49-.37,10.56-2.64,15.64-4.49-2.9-23.6-15.44-43.73-27.96-63.27-.9-1.84,4.43-11.45,3.98-11.9Z"/>
      <path class="cls-1" d="M482.87,553.36c1.62,6.7,3.04,13.46,4.34,20.24.91,4.77,2.06,17.88,4.42,21.18,6.79,9.48,33.19,12.03,43.83,10.55,6.65-.92,16.93-3.08,15.17-11.84-2.66-13.24-19.67-20.03-31.78-20.25-1.51-.03-6.94,1.24-7.53.42-.72-1,3.32-2.64,2.88-3.85l-3.29-20.13c-2.45.58-4.45,1.86-6.91,2.64-6.77,2.15-14.2,2.52-21.13,1.02Z"/>
      <path class="cls-1" d="M413.79,402.39c2.75-2.12,3.47-10.62,1.21-13.03-6.14-6.57-11.41,9.92-8.44,13.11,1.36,1.46,5.63,1.15,7.23-.08Z"/>
      <path class="cls-1" d="M402.24,387.96c-3.39.23-6.47,6.48-6.32,9.48.18,3.75,4.26,5.77,7.69,5.14-.76-2.54-.76-4.75-.22-7.33.5-2.41,3.61-7.61-1.15-7.28Z"/>
      <path class="cls-1" d="M383.69,413.95c7.54.73,12.69-1.97,17.49-7.42.34-.38,1.64-.48.09-1.01-1.47-.5-3.21-.49-4.72-1.38-1.13-.67-2.19-2.64-2.35-2.73-1.66-.97-7.46,6.42-8.4,7.95-.33.53-2.35,4.38-2.11,4.59Z"/>
      <path class="cls-1" d="M422.36,481.57c.42,1.33,2.72.28,3.79.24,5.23-.16,9.8-.16,15.05-.8,16-1.94,32.19-5.99,46.44-13.51,2.46-6.46,4.59-13.08,6.2-19.81-21.63,13.48-47.91,17.9-73.17,18.09l1.69,15.79Z"/>
      <path class="cls-1" d="M417.22,403.39c-.78-.26-.49.5-.9.8-2.5,1.82-5.18,2.27-8.24,2.04,2.16,5.89,9.9,9.29,15.85,9.75-.82-4.75-3.72-8.93-6.71-12.59Z"/>
      <path class="cls-1" d="M419.05,392.01l-.41,8.13c8.19.04,16.81-.38,24.8-2.23,13.69-3.17,25.42-12.03,35.77-21.14,1.22-1.07,16.74-15.74,15.85-16.46-16.34,5.21-27.14,18.9-42.81,25.67-10.4,4.49-21.86,6.55-33.2,6.02Z"/>
      <path class="cls-1" d="M346.1,385.49c.5.74-.95,9.39-1.04,11.17-.81,15.48.67,33.78,5.6,48.49.49,1.47,1.03,3.83,1.92,4.99,2.56,3.33,16.39,7.82,20.78,8.89,1.82.44,14.67,3.02,15.21,2.47.22-.23-.28-2.71,2.21-3.69,2.39-.94,3.97,0,6.11.05,6.32.11,15.3-.83,21.17-.04,3.25.44,1.85,4.53,2.21,4.9.94.94,23.37-1.27,26.51-1.75,16.82-2.58,34.54-7.93,48.48-17.77,3.61-12.43,6.31-25.25,7.12-38.2-.32-.35-9.09,5.29-8.07,1.49.3-1.11,7.44-4.61,9.01-5.63,21.15-13.77,37.09-34,47.78-56.68,8.7-18.47,15.11-38.72,19.54-58.63-7.43-2.89-15.02-5.8-22.99-6.89-3.03-.41-6.16-.25-9.09-.87-5.99,27.6-17.53,52.8-33.82,75.73-12.99,18.29-38.43,42.14-60.89,47.23-7.61,1.73-15.41,1.9-23.17,2.23-.25.22,2.57,3.99,2.91,4.6,1.08,1.96,5.1,10.86.94,11.25l-6.7-.81c.73,5.52-1.59,10.13-6.09,13.21,6.66,5.93,7.31,17.1-.04,22.72-10.82,8.28-23.64-2.95-19.77-15.7.83-2.73,2.82-4.39,4.37-6.62-3.27-4.46-6.13-10.23-3.27-15.64-1.98.29-11.4,1.47-12.14-.67-1.15-3.32,5.78-11.89,8.08-14.37-14.92-.66-31.24-10.05-36.78-24.4-1.02-2.64-1.22-6.2-2.22-8.35-1.17-2.51-6.14-7.78-8.08-11.03-2.75-4.61-4.1-9.41-6.51-13.81-2.11-3.83-5.72-7.86-8.12-11.8-9.48-15.55-14.62-33.67-18.81-51.3-11.82-.06-23.54,3.23-34.11,8.32,6.83,42.5,26.56,85.8,68.29,103.41-.39-1.24,1.74-9.09,3.47-6.52Z"/>
      <path class="cls-1" d="M310.12,276.58c-1.28-2.7-4.13-16.85-5.71-18.06-.35-.27-1.05-.45-1.5-.53-1.37-.25-6.38.16-8.03.31-9.34.87-19.75,3.5-27.78,8.36l3.61,19.26c.45.32,8.9-3.55,10.34-4.06,9.27-3.26,19.22-5.05,29.07-5.28Z"/>
      <path class="cls-9" d="M609.73,214.5c-1.31-3.54-4.04-5.89-7.4-7.35-1.64-4.41-6.73-6.95-11.09-7.59-1.24-.18-2.48-.27-3.73-.27-.63,0-1.26.03-1.88.07-.36.03-.86,0-1.21.11-.23.07-.34.11-.35.15-.2-.12-.41-.28-.6-.38-.76-.4-1.57-.73-2.39-.98-4.3-1.29-9.33.15-12.02,3.86-2.39,3.31-2.33,7.47-.79,11.05-3.35-.17-6.71-.17-10.04.09-5.05.39-10.69,1.19-14.96,4.13-2.19,1.5-3.87,3.55-4.56,6.15,0,.01,0,.03,0,.04-.81,2.05-.86,4.4-.54,6.55.34,2.32,1.2,4.55,2.38,6.57.76,1.3,1.66,2.52,2.63,3.67.45.54.95,1.23,1.53,1.71-.73,3.65-2.24,9.49-2.5,9.86-.88,1.24-2.98.01-4.45,1.65-.93,1.03-1.8,4.78-2.23,6.31-.85,3.04-3.49,12.66-3.49,15.25,0,2.2,1.14,3.16,3.29,3.05-4.32,18.08-10.74,35.63-19.52,52.02l1.24-11.56c.45-13.42-1.12-26.8-4.9-39.64,9.06-.58,17.38-8.68,18.29-17.69,2.26-22.54-23.3-26.92-33.53-9.55-12.49-13.81-30.47-22.16-48.85-24.85-.16-.94.25-.68.59-.98,2.58-2.32,10.75-6.5,13.87-6.5h14.88c.43-2.18-2.79-3.07-4.27-3.52-9.94-3.1-20.13.69-28.3,7.19-1.61,1.28-2.32,2.49-3.51,3.02-1.11-.1-2.23-.18-3.36-.26,5.14-13.27,16.99-24.02,29.13-27.75.97-.3,5.63-.96,5.82-1.22.25-.35.12-2.4-.37-2.8-2-1.64-11.21,1.61-13.65,2.75-8.9,4.15-17.74,13.14-22.42,22.76-.23.48-1.54,4.52-2.57,6.04-.29-.01-.58-.02-.87-.03.83-14.05,3.07-29.36,10.44-40.91.81-1.27,5.66-6.51,4.63-7.71-1.69-1.95-7.81,5.99-8.81,7.5-7.24,11.04-8.71,24.88-9.9,38.2-.05.56-.19,2.65-.78,2.84-.02,0-.04,0-.06,0v-7.38c0-7.18-6.25-22.45-10.02-28.34-1.58-2.47-8.88-11.43-11.48-10.74-3.26.87,2.84,5.75,3.32,6.34,8.92,10.95,13.81,25.34,15.52,40.15,0,0-.01,0-.02,0-.41-.06-.97,0-1.54.04-.28,0-.56.02-.84.03-.46,0-.88-.08-1.17-.3-.37-.29-3.18-7.56-4.06-9.13-5.96-10.51-18.22-20.87-29.45-19.74-1.14.12-2.47-.99-3.11.45-.18.4-.38,1.26-.22,1.54.2.35,5.99,1.29,7.2,1.69,8.56,2.78,16.38,9.3,21.59,17.58.66,1.05,4.11,7.04,3.68,8.22-17,1.34-33.83,6.09-47.38,15.72-.88.63-3.16,2.93-3.73,3.18-.73.32-.53-.31-.61-.59-6.66-22.08-41.88-15.22-36.39,10.37,1.84,8.57,9.54,14.14,18.11,14.41-6.75,8.89-11.38,20.96-13.63,31.89-2.48,12.06-1.93,21.2-.71,33.26.05.45.48,1.38-.28,1.3-3.62-6.35-7.3-12.52-10.24-19.23-5.08-11.61-8.94-24.4-11.26-36.8,1.43-.15,2.6-1.09,2.38-2.64l-5.89-20.17c-.1-2.2-4.88-1.86-5.09-2.72l-1.84-11.63s.01,0,.02,0c.69-.37,1.27-1.24,1.78-1.83,1.03-1.2,1.98-2.48,2.77-3.85,1.18-2.02,2.04-4.25,2.38-6.57.31-2.15.26-4.49-.54-6.55,0-.01,0-.03,0-.04-1.27-4.84-5.85-7.43-10.35-8.75-5.05-1.49-10.47-1.79-15.71-1.74-1.17.01-2.33.05-3.5.11,1.47-3.4,1.57-7.27-.47-10.57-2.29-3.7-7-5.38-11.16-4.63-1.46.26-2.86.84-4.14,1.58,0,0,0,0,0,0-.02-.16-.96-.15-1.19-.17-1.44-.12-2.89-.15-4.33-.03-3.67.29-7.32,1.42-10.05,3.98-1.09,1.02-2.13,2.36-2.7,3.8-2.91,1.25-5.48,3.19-6.89,6.11-1.23,2.54-1.54,5.41-1.24,8.2.5,4.63,2.26,8.53,5.19,12.15,4.35,5.37,10.53,9.02,16.88,11.55,2.1.83,4.24,1.55,6.43,2.11.54.14,1.08.28,1.63.39.02,0,.03,0,.05,0,.12,4.61.64,9.19,1.27,13.76-.21,1.43-4.12,1.69-4.12,5.29,1.49,6.42,1.79,13.76,3.56,20.05.73,2.59,1.62,4.87,4.6,2.91,5.47,34.61,18.74,68.93,46.56,91.44,6.46,5.23,13.96,10.16,21.74,13.02l-.08.93c-13.79,29.68-28.02,59.37-40.35,89.71-3.51,8.63-11.98,28.04-10.76,36.74.75,5.32,5.97,2.17,8.78.71,8.42-4.37,21.83-15.45,31.71-11.93,2.88,1.03,5.72,3.59,8.58,4.84.9.39,5.31,1.58,5.34,1.94-6.18,17.32-.3,35.76,4.5,52.64-12.5-.51-26.5,6.54-32.59,17.61-13.76,25.03,30.62,21.35,43.65,18.85,7.57-1.45,26.02-6.06,27.1-15.17.86-7.21-6.36-25.29-7.96-33.81-3.27-17.33.21-32.24,12.09-45.39.86-.96,3.43-3.95,4.63-3.88,1.15.07,6.51,2.51,8.37,3.05,10.9,3.18,23.4,4.27,34.64,2.53,4.76-.74,9.21-2.6,13.91-3.56,14.14,11.07,23.82,27.33,28.64,44.55,1.65,5.89,2.83,11.97,3.97,17.98,1.01,5.34,2.27,19.86,4.83,23.62,9,13.21,50.29,17.34,61.93,7.11,3.89-3.42,3.71-7.86,2.35-12.45-4.11-13.89-22.34-20.8-35.66-20.23-2.02-11.26-3.43-22.84-6.04-33.99-2.06-8.77-5.57-17.01-8.96-25.3,5.14-2.36,8.83-7.92,14.8-8.59,8.91-1,14.23,5.39,22.37,6.09,5.39.46,8.62-1.57,13.41-2.02,2.94-.28,5.94.16,8.86.39l13.77,22.5c4.27,7.32,10.51-4.12,12.6-7.99,11.97-22.15-.28-37.3-13.9-54.12-6.82-8.43-14.29-16.38-21.12-24.81-12.62-15.61-24.02-32.13-34.51-49.24-.11-.73,7.59-7.22,8.75-8.4,25.14-25.65,37.85-63.1,46.09-97.38,2.92.15,3.38-.33,4.25-2.86,1.39-4.04,4.83-16.7,5.06-20.58.16-2.82-2.64-3.4-2.73-3.99.51-5.32,1.01-8.9,1.61-12.84,1.63-.41,3.24-.9,4.83-1.46,10.28-3.68,21.42-10.89,23.6-22.38.56-2.95.64-6.11-.41-8.96ZM406.44,282.25c-2.51-.06-4.93.54-7.3,1.23.32-.73.68-1.46.78-2.27,1.82-14.36-6.09-27.7-22.01-25.67-16.25,2.08-24.58,24.24-14.87,37.02,2.91,3.83,6.52,5.67,10.9,7.39l-6.29,4.92c-21.84-8.1-22.26-35.77-6.09-50.23,23.12-20.69,52.96-1.65,44.89,27.61ZM426.61,298.54c-1.79,12.63-28.51,15.96-34.86,3.11-5.36-10.86,6.52-16.32,15.45-16.44,7.05-.1,20.72,4.14,19.41,13.33ZM450.27,247.84c11.91-1.11,23.31,6.53,28.07,17.21,13.06,29.3-16.47,59.63-43.63,37.53-.89-.72-4.58-3.76-4.88-4.47-.39-.92-.29-2.58-.64-3.83-.52-1.86-1.92-3.9-3.22-5.32-1.33-1.44-3.85-2.59-4.1-4.44-2.22-16.73,11.34-35.09,28.39-36.68ZM420.62,344.6c-.83,1.79-3.06,6.8-4.21,7.98-2.8,2.88-7.95,1.71-11.53,1.57-1.56-8.09-1.2-16.36-1.71-24.56-.07-1.21,1.26-1.81,2.23-2.2,3.92,6.21,10.61,10.53,18.12,10.56-.99,2.19-1.89,4.46-2.9,6.65ZM454,351.56c-3.54,6.2-8.2,11.65-14.48,15.18-1.92,1.08-6.84,3.31-8.88,3.31-1.77,0-7.36.36-8.54,0-1.54-.47.69-6.19,1.23-7.31,5.46-11.38,19.12-18.62,30.67-11.19ZM400.98,325.77c-9.29,6.17-23.99,5.22-30.37-4.6-8.09-12.45,6.13-21.53,17.15-22.64,1.02,8.01,7.29,12.28,14.68,14.07.22,2.12-.28,4.32-.05,6.46.4,3.8,2.71,3.98-1.41,6.71ZM401.58,354.03c-2.12-.36-4.33.02-6.43-.5-7.29-1.81-11.6-14.75-13.08-21.26,6.36,1.8,12.91.5,18.69-2.44l.82,24.21ZM367.22,292.44c-10.74-10.27-3.61-31.85,11.1-33.63,12.23-1.48,19.99,8.26,18.75,19.96-.1.91-.9,4.56-1.26,5.24-.66,1.26-4.66,3.52-6.01,5.37-2.21,3.01-.8,4.91-4.89,6.49-6.47,2.5-12.66,1.36-17.68-3.44ZM337.97,262.34c-7.33-5.98-7.66-19.75.72-25.27,5.17-3.4,14.39-3.84,19.26.21,2.48,2.06,5.47,6.11,5.78,9.47.31,3.34-.8,2.14-2.21,3.39-2.95,2.63-5.97,6-8.25,9.23-.85,1.21-2.92,5.5-3.83,5.92-3.13,1.46-8.95-.9-11.48-2.96ZM342.97,284.03l4.54-8.67v9.14c0,.56,1.07,4.31,1.33,5.17,2.43,7.75,9.13,16.05,17.35,17.81-2.88,10.64,1.63,17.74,10.56,22.97.57.33,1.77.49,1.96.68.26.26,1.28,5.29,1.61,6.32,2.56,7.97,6.05,18.02,15.39,19.56,1.11.18,3.01-.25,3.82.24.32.19,2.36,4.46,3.08,5.46,4.32,6,12.96,10.51,20.27,11.03,13.63.95,23.05-4.84,30.8-15.57,7.18-9.96,10.06-23.55,10.92-35.61,2.06-1.12,2.63,2.72,4.84,2.39-.12-6.19-5.88-8.23-11.14-8.57-.32-.02-.59-.37-.65-.37-.97-.02-4.01,2.15-3.21,3.4.73,1.14.89-.06,2.17-.17.89-.08,2.23-.08,3.07.22-.63.73-1.65.68-2.42,1.24-5.78,4.23-9.5,8.95-16.69,11.76-10.78,4.21-29.22,3.56-33.75-9.33-.6-1.7-2.06-8.29-.8-9.37.73-.62,7.73-1.38,9.53-1.85,5.87-1.55,10.17-4.65,13.49-9.69,1.41.07,1.84,1.67,2.56,2.23,7.08,5.57,16.41,9.58,25.64,8.71,24.15-2.27,33.11-31.78,22.84-51.49-11.83-22.69-43-22.09-55.43-.4-1.6,2.8-5.62,11.82-5.62,14.7v8.33c-3.09-.72-6.1-1.77-9.35-1.62,1.9-10.96,1.27-20.83-5.7-29.87-7.64-9.9-22.07-12.29-33.31-7.32,9.53-7.45,21.4-12.03,33.25-14.3,6.23-1.2,12.5-1.64,18.77-2.16-.62,2.3-2.35,4.21-2.43,6.71-.01.41-.23,1.34.6,1,1.41-.57,3.65-7.31,5.7-7.71,1.14-.22,2.65.13,3.85,0-.82,2.64-2.81,5-3.48,7.7-.08.33-.41,2.67.63,1.65.2-.19,2.12-4.03,2.69-4.84.54-.77,3.07-4.3,3.67-4.41,1.05-.2,4.37.77,5.84.31-.68,2.04-2.94,3.21-2.43,5.69.73.84,4.7-4.94,5.57-5.2,1.32-.39,8.44.87,10.36,1.26,13.12,2.64,26.49,9.12,36.3,17.76.98.86,5.49,5.12,5.92,5.87.64,1.14.17,1.92.44,2.81.23.75,1.69,1.02,1.97.39.41-.91.56-2.78,1.15-4.07,2.14-4.71,8.94-9.15,14.09-9.49,19.55-1.28,18.88,29.2-1.63,31.32-1.03.11-3.24-1.04-3.32,1.06-.05,1.29,2.09,6.78,2.53,8.69,3.29,14.38,4.35,32.3,1.22,46.75-2.08,9.6-7.63,16.09-12.99,24-3.74,1.17-7.43,1.86-11.18,3.45-13.48,5.73-22.56,17.27-36.04,23.3-7.76,3.47-16.65,5.62-25.15,6.15-1.4.09-7.14.29-8.08.03-.4-.11-.28-1.03-.64-1.45-2.66-3.11-6.82-3.43-10.31-1.43-.37.21-.12.75-.49.82-.92.18-.44-.56-.89-.82-2.43-1.43-4.63-1.61-7.17-.33-.95.48-2.59,2.26-3.23,2.27-1.54.03-7.3-1.69-9.14-2.24-47.37-14.12-61.64-57.85-43.66-101.99ZM409.65,425.07c4.93-6.7-2.05-15.1-8.86-10.08-3.97,2.93-2.57,7.86.17,11.16,3.4,4.09,7.94,5.86,11.35,10.8,5.99,8.67-3.12,20.78-13.28,15.51-6.17-3.2-6.32-14.35-.87-18.58.42-.09,3,2.43,3,2.62,0,.11-1.19,1.12-1.52,1.73-1.24,2.34-1.65,4.2-.89,6.78,1.56,5.3,8.85,5.34,10.52,0,2.32-7.43-7.03-11.16-10.95-15.83-2.85-3.39-4.34-7.08-2.98-11.51,1.32-4.3,4.7-5.46,7.46-8.39.69-.73,1.5-2.56,1.62-2.65,1.02-.7,1.81,2.94,2.21,3.68,2.96,5.43,11.78,3.49,7.85,13.5-.66,1.69-3.65,5.88-5.59,4.97-.21-.1-1.6-1.52-1.63-1.64-.18-.77,1.68-1.14,2.38-2.08ZM405.63,424.73c-2.68,1.25-6.08-5.44-2.72-7.61,1.58-1.02,3.9-1.01,5.04.62,1.37,1.96-.35,6.07-2.32,6.99ZM401.66,440.66c.12-.4,1.88-2.2,2.15-2.22,1.19-.1,2.95,2.6,3.04,3.81.4,5.67-7.09,4.86-5.18-1.59ZM393.04,398.51c-16.92-.47-35.07-9.81-39.43-27.23.74.15.91,1.06,1.36,1.48,7.45,7.03,21.95,13.76,31.88,16.28,2.57.65,5.15,1.22,7.81,1.34-.6,2.72-2.06,5.22-1.63,8.13ZM394.21,401.41c.16.09,1.22,2.06,2.35,2.73,1.5.89,3.25.88,4.72,1.38,1.55.53.25.63-.09,1.01-4.8,5.45-9.95,8.15-17.49,7.42-.24-.21,1.79-4.06,2.11-4.59.94-1.53,6.74-8.93,8.4-7.95ZM403.61,402.57c-3.43.64-7.52-1.39-7.69-5.14-.14-3,2.94-9.24,6.32-9.48,4.75-.33,1.65,4.87,1.15,7.28-.54,2.58-.54,4.8.22,7.33ZM415,389.36c2.26,2.42,1.54,10.91-1.21,13.03-1.6,1.23-5.87,1.54-7.23.08-2.97-3.19,2.3-19.68,8.44-13.11ZM408.08,406.23c3.06.23,5.74-.22,8.24-2.04.41-.3.12-1.06.9-.8,2.99,3.66,5.89,7.84,6.71,12.59-5.95-.46-13.69-3.86-15.85-9.75ZM479.22,376.77c-10.35,9.1-22.08,17.97-35.77,21.14-7.99,1.85-16.61,2.27-24.8,2.23l.41-8.13c11.34.53,22.8-1.53,33.2-6.02,15.68-6.77,26.47-20.47,42.81-25.67.9.72-14.63,15.39-15.85,16.46ZM266.67,244.37c-.18-.04-.36-.08-.55-.13-.36-.09-.73-.18-1.08-.28h0c-8.15-2.15-16.5-6.25-21.75-12.98-.88-1.13-1.66-2.36-2.33-3.64-.11-.2-.2-.41-.31-.62h0c-.43-1.18-.82-2.35-1.09-3.57-.77-3.49-.69-7.7,1.94-10.53.53-.57,1.13-1.06,1.78-1.48-.43,5.16,1.31,10.69,4.15,14.78,2.04,2.94,4.65,5.34,7.58,7.38,1.72,1.2,3.34-1.61,1.64-2.8-5.04-3.51-8.88-8.52-9.87-14.67-.28-1.72-.28-3.49-.12-5.23,0-.05.04-.3.04-.37.01-.1.03-.19.04-.29.04-.21.07-.42.12-.63.04-.21.09-.41.15-.62,0-.01,0-.02,0-.03,0,0,0,0,0-.01.03-.07.05-.15.08-.22.01-.04.02-.06.03-.09,0,0,0,0,0-.02.21-.42.42-.83.68-1.23.19-.29.33-.47.35-.49.23-.28.47-.55.73-.81.6-.6,1.07-.96,1.79-1.39,1.92-1.16,4.15-1.72,6.38-1.88.83-.06,1.67-.07,2.5-.05-2.86,4.31-3.15,10.28-1.6,15.04,1.22,3.72,3.34,7.01,5.77,10.06,1.3,1.63,3.58-.68,2.29-2.29-3.8-4.76-7.04-11-5.35-17.24.44-1.61,1.13-3,2.12-4.4.03-.04.13-.17.17-.23.07-.08.13-.17.21-.25.14-.16.28-.32.42-.47.12-.12.24-.25.37-.36.08-.04.15-.07.24-.12,1.57-.91,3.5-1.45,5.39-1.22,1.45.17,2.81.83,3.93,1.74.33.27.63.57.94.87-.03-.03.12.14.23.26.08.12.22.32.26.38,1.12,1.85,1.4,4.11.81,6.21-.24.85-.59,1.64-1.03,2.41-.44.76-1.24,1.54-.92,2.49.21.63.83,1.25,1.56,1.19,3.96-.32,7.94-.4,11.91-.16,4.54.28,9.51.9,13.49,3.26,1.83,1.09,3.29,2.61,3.84,4.7.04.13.08.25.14.36.09.32.19.63.27.95.22.96.27,1.95.18,3.14-.3,4.04-2.67,7.62-5.38,10.52,0,0-1.52,1.42-2.32,1.84l.21,1.43c.62,4.07,2.64,11.65,2.23,12.05-10.21-.11-20.24,2.41-29.67,6.1l-1.07-13.81-.1-2.06s-1.14-.19-2.45-.49ZM270.71,285.91l-3.61-19.26c8.02-4.86,18.44-7.49,27.78-8.36,1.65-.15,6.66-.56,8.03-.31.45.08,1.15.26,1.5.53,1.58,1.22,4.43,15.37,5.71,18.06-9.85.24-19.8,2.02-29.07,5.28-1.44.51-9.89,4.38-10.34,4.06ZM329.22,506.82c-11.63-3.3-24.24,8.19-33.87,12.87-1.09.53-2.18,1.39-3.48,1.11-1.15-.79.61-7.44.98-8.9,2.05-8.13,5.8-16.96,8.96-24.78,12.37-30.62,27.15-60.25,40.03-90.65.69-.1.4.94.41,1.42.12,10.94-.51,21.93,1.55,32.82-7.87,16.22-16.22,33.49-20.46,51.11-.35,1.46-2.46,8.99-.8,9.35.62.14.86-.52,1.1-.93,1.62-2.84,3.16-10.67,4.38-14.32,3.75-11.24,10-29.32,16.19-39.09.23-.36.38-.9.89-.94,3.07,15.79,11.05,30.19,19.51,43.7-6.91,9.47-13.52,19.13-18.64,29.72-.67,1.39-1,4.26-2.64,4.2-4.67-.18-9.67-5.44-14.08-6.69ZM354.83,455.41c10.49,5.17,22.08,8.19,33.76,9.12,1.05.74,1.79,13.9,2.01,16.08-7.24-1.08-14.67-2.71-21.41-5.62-1.32-.57-4.22-1.71-5.15-2.57-1.13-1.03-3.5-5.39-4.4-6.99-1.79-3.19-3.36-6.66-4.8-10.03ZM382.44,590.93c-.38,2.45-3.27,4.52-5.28,5.69-12.45,7.25-46.67,11.98-58.88,4.05-7.45-4.83,1.26-15.68,5.85-19.69,4.54-3.96,14.31-8.52,20.33-8.52,1.85,0,7.24.37,8.54,0,2.77-.8-1.77-2.71-1.99-2.89-1.13-.92-4.9-15.76-5.35-18.23-.12-.69-.27-1.35-.18-2.05,9.29,3.43,18.64,3.52,28.04.41.52,3.66,1.03,7.38,1.82,10.99,1.6,7.28,8.06,24.05,7.1,30.24ZM514.21,569.83c.44,1.21-3.61,2.85-2.88,3.85.59.81,6.02-.45,7.53-.42,12.11.23,29.12,7.02,31.78,20.25,1.76,8.76-8.52,10.92-15.17,11.84-10.64,1.47-37.05-1.07-43.83-10.55-2.36-3.3-3.51-16.41-4.42-21.18-1.3-6.78-2.72-13.54-4.34-20.24,6.93,1.5,14.37,1.13,21.13-1.02,2.46-.78,4.46-2.06,6.91-2.64l3.29,20.13ZM510.09,546.84c-5.08,1.84-10.15,4.12-15.64,4.49-2.2.15-10.8-.25-12.37-1.43-.58-.44-4.12-10.34-4.95-12.12-5.64-12.12-14.58-23.69-25.45-31.48-18.17,6.51-40.1,6.19-57.69-2.04-1.34-.63-5.7-4.17-6.87-2.54-1.42,1.98,3.1,3.03,3.88,4.3-10.82,10.65-18.24,24.94-18.06,40.46-8.94,3.57-19.37,3.06-28.05-.84-2.92-11.9-1.35-23.21,3.5-34.27,4.79-10.93,12.24-21.49,19.67-30.76.62-1.38-1.17-3.12-1.03-3.23,7.7,3.22,15.87,5.18,24.11,6.58,1.36.68-.02,2.96,1.79,3.49,9.29,1.16,18.61,1.47,27.98,1.32,2.18-.09,1.87-2.04,1.81-3.68,21.69-.29,43.77-4.14,63.41-13.41.45.45-4.88,10.06-3.98,11.9,12.51,19.54,25.05,39.67,27.96,63.27ZM391.42,460.29c8.66.52,17.35.9,26.01.4l2.44,25.2c-8.47-.07-17.12.16-25.43-1.6l-3.02-24.01ZM420.67,465.78c25.26-.19,51.54-4.61,73.17-18.09-1.61,6.73-3.74,13.36-6.2,19.81-14.25,7.52-30.45,11.57-46.44,13.51-5.25.64-9.83.64-15.05.8-1.07.03-3.37,1.09-3.79-.24l-1.69-15.79ZM545.15,505.29c-14.07,2.39-20.46-12.62-36.24-2.51-1.75,1.12-6.11,5.28-7.73,5.71-.6.16-.92-.54-1.17-.93-1.93-2.91-3.58-6.56-5.43-9.61-3.14-5.18-6.52-10.23-9.6-15.45,9.21-21.95,16.41-45.27,19.44-68.96l40.81,64.66,14.46,25.16c-5.32-.9-9.65,1.1-14.54,1.93ZM552.39,446.66c7.41,9.07,15.52,17.63,22.74,26.85,10.87,13.9,20.3,26.86,11.21,44.91-.68,1.35-6.2,10.13-6.93,10.13-2.17-1.94-3.67-4.51-5.25-6.93-10.34-15.89-19.38-33.6-29.33-49.92-12.71-20.85-26.07-41.37-39.38-61.83-.73-2.12.37-5.04.39-7.3,1.52-.65,10.19-7.71,10.76-7.31,10.26,18.19,22.59,35.24,35.79,51.4ZM551.1,344.19c-10.69,22.68-26.63,42.91-47.78,56.68-1.57,1.02-8.71,4.52-9.01,5.63-1.02,3.8,7.75-1.84,8.07-1.49-.81,12.94-3.51,25.77-7.12,38.2-13.95,9.84-31.66,15.19-48.48,17.77-3.13.48-25.57,2.69-26.51,1.75-.37-.37,1.04-4.46-2.21-4.9-5.88-.79-14.86.15-21.17.04-2.14-.04-3.72-.98-6.11-.05-2.49.97-1.99,3.46-2.21,3.69-.54.55-13.4-2.03-15.21-2.47-4.39-1.08-18.23-5.57-20.78-8.89-.89-1.16-1.43-3.53-1.92-4.99-4.92-14.71-6.4-33.01-5.6-48.49.09-1.79,1.54-10.44,1.04-11.17-1.73-2.58-3.86,5.28-3.47,6.52-41.73-17.61-61.46-60.91-68.29-103.41,10.57-5.1,22.29-8.38,34.11-8.32,4.19,17.63,9.34,35.74,18.81,51.3,2.4,3.93,6.01,7.96,8.12,11.8,2.42,4.4,3.77,9.2,6.51,13.81,1.94,3.25,6.91,8.52,8.08,11.03,1,2.15,1.2,5.71,2.22,8.35,5.54,14.34,21.86,23.74,36.78,24.4-2.3,2.47-9.23,11.05-8.08,14.37.74,2.14,10.16.96,12.14.67-2.86,5.41,0,11.19,3.27,15.64-1.55,2.23-3.54,3.89-4.37,6.62-3.87,12.75,8.95,23.98,19.77,15.7,7.35-5.62,6.7-16.8.04-22.72,4.5-3.08,6.82-7.69,6.09-13.21l6.7.81c4.16-.39.14-9.29-.94-11.25-.34-.61-3.17-4.38-2.91-4.6,7.76-.34,15.56-.51,23.17-2.23,22.46-5.09,47.9-28.94,60.89-47.23,16.29-22.93,27.83-48.13,33.82-75.73,2.93.62,6.05.46,9.09.87,7.97,1.09,15.56,4,22.99,6.89-4.43,19.91-10.84,40.16-19.54,58.63ZM574.13,283.46c-11.91-5.67-25.1-9.22-38.42-8.91l4.72-18.31c12.86.08,27.21,1.2,38.3,8.02l-4.6,19.21ZM607.25,220.93c-.12,1.46-.48,3.03-.96,4.5-.15.46-.33.91-.49,1.37-.13.25-.25.51-.39.76-4.55,8.56-13.72,13.44-22.95,16.18-1.96.47-3.3.3-3.3.3l-.43,3.5c-.36,3.36-.8,6.19-1.56,11.55-9.91-4.44-20.86-6.27-31.7-6.51,1.02-2.76,1.3-6.7,2.06-9.92l.36-1.76c-5.39-5.23-6.28-9.44-6.43-10.55-.1-.49-.17-.99-.21-1.49-.09-1.17-.04-2.15.16-3.08.07-.33.17-.66.27-.98,0-.01,0-.02,0-.03.06-.11.11-.23.14-.37,1.08-4.1,5.49-5.85,9.22-6.79,4.61-1.16,9.44-1.38,14.18-1.31,1.95.03,3.9.13,5.84.29.73.06,1.35-.55,1.56-1.19.31-.9-.37-1.59-.8-2.29-.5-.82-.9-1.68-1.15-2.6-.35-1.26-.42-2.6-.12-3.88.2-.84.49-1.6.93-2.33.09-.15.19-.29.29-.43.02-.02.02-.02.05-.04.38-.33.7-.72,1.09-1.04,2.1-1.71,4.73-2.17,7.29-1.4.77.23,1.34.48,2.03.88.08.05.16.08.24.12.13.12.25.24.37.36.15.15.28.31.42.47.08.09.15.18.23.28.04.05.09.12.11.14,1.01,1.41,1.72,2.83,2.16,4.45,1.69,6.24-1.55,12.48-5.35,17.24-1.29,1.61.99,3.92,2.29,2.29,3.72-4.65,6.88-10.22,6.76-16.36-.06-3.09-1-6.15-2.7-8.72,3.91-.12,8.04.58,10.79,3.31.81.81,1.18,1.37,1.76,2.53,0,0,0,0,0,.01,0,.02.01.03.02.07.03.08.05.17.08.25,0,0,0,0,0,.01,0,.01,0,.02,0,.03.06.2.1.41.15.62.04.21.08.42.12.63.02.09.03.19.04.29,0,.07.04.32.04.37.16,1.74.16,3.51-.12,5.23-1,6.15-4.84,11.16-9.87,14.67-1.7,1.18-.08,4,1.64,2.8,4.69-3.27,8.53-7.57,10.44-13.01,1.03-2.92,1.44-6.1,1.19-9.19,3.26,2.19,4.5,5.78,4.17,9.76Z"/>
    </g>
    <path class="cls-8" d="M570.64,285.56c-4.43,19.91-10.84,40.16-19.54,58.63-10.69,22.68-26.63,42.91-47.78,56.68-1.57,1.02-8.71,4.52-9.01,5.63-1.02,3.8,7.75-1.84,8.07-1.49-.81,12.94-3.51,25.77-7.12,38.2-13.95,9.84-31.66,15.19-48.48,17.77-3.13.48-25.57,2.69-26.51,1.75-.37-.37,1.04-4.46-2.21-4.9-5.88-.79-14.86.15-21.17.04-2.14-.04-3.72-.98-6.11-.05s-1.99,3.46-2.21,3.69c-.54.55-13.4-2.03-15.21-2.47-4.39-1.08-18.23-5.57-20.78-8.89-.89-1.16-1.43-3.53-1.92-4.99-4.92-14.71-6.4-33.01-5.6-48.49.09-1.79,1.54-10.44,1.04-11.17-1.73-2.58-3.86,5.28-3.47,6.52-41.73-17.61-61.46-60.91-68.29-103.41,10.57-5.1,22.29-8.38,34.11-8.32,4.19,17.63,9.34,35.74,18.82,51.3,2.4,3.93,6.01,7.96,8.12,11.8,2.42,4.4,3.77,9.2,6.51,13.81,1.94,3.25,6.91,8.52,8.08,11.03,1,2.15,1.2,5.71,2.22,8.35,5.54,14.34,21.86,23.74,36.78,24.4-2.3,2.47-9.23,11.05-8.08,14.37.74,2.14,10.16.96,12.14.67-2.86,5.41,0,11.19,3.27,15.64-1.55,2.23-3.54,3.89-4.37,6.62-3.87,12.75,8.95,23.98,19.77,15.7,7.35-5.62,6.7-16.8.04-22.72,4.5-3.08,6.82-7.69,6.09-13.21l6.7.81c4.16-.39.14-9.29-.94-11.25-.34-.61-3.17-4.38-2.91-4.6,7.76-.34,15.56-.51,23.17-2.23,22.46-5.09,47.9-28.94,60.89-47.23,16.29-22.93,27.83-48.13,33.82-75.73,2.93.62,6.05.46,9.09.87,7.97,1.09,15.56,4,22.99,6.89Z"/>
    <path class="cls-4" d="M457.26,313.16c24.15-2.27,33.11-31.78,22.84-51.49-11.83-22.69-43-22.09-55.43-.4-1.6,2.8-5.62,11.82-5.62,14.7v8.33c-3.09-.72-6.1-1.77-9.35-1.62,1.9-10.96,1.27-20.83-5.7-29.87-7.64-9.9-22.07-12.29-33.31-7.32,9.53-7.45,21.4-12.03,33.25-14.3,6.23-1.2,12.5-1.64,18.77-2.16-.62,2.3-2.35,4.21-2.43,6.71-.01.41-.23,1.34.6,1,1.41-.57,3.65-7.31,5.7-7.71,1.14-.22,2.65.13,3.85,0-.82,2.64-2.81,5-3.48,7.7-.08.33-.41,2.67.63,1.65.2-.19,2.12-4.03,2.69-4.84.54-.77,3.07-4.3,3.67-4.41,1.05-.2,4.37.77,5.84.31-.68,2.04-2.94,3.21-2.43,5.69.73.84,4.7-4.94,5.57-5.2,1.32-.39,8.44.87,10.36,1.26,13.12,2.64,26.49,9.12,36.3,17.76.98.86,5.49,5.12,5.92,5.87.64,1.14.17,1.92.44,2.81.23.75,1.69,1.02,1.97.39.41-.91.56-2.78,1.15-4.07,2.14-4.71,8.94-9.15,14.09-9.49,19.55-1.28,18.88,29.2-1.63,31.32-1.03.11-3.24-1.04-3.32,1.06-.04,1.29,2.09,6.78,2.53,8.69,3.29,14.38,4.35,32.3,1.22,46.75-2.08,9.6-7.63,16.09-12.99,24-3.74,1.17-7.43,1.86-11.18,3.45-13.48,5.73-22.56,17.27-36.04,23.3-7.76,3.47-16.65,5.62-25.15,6.15-1.4.09-7.14.29-8.08.03-.4-.11-.28-1.03-.64-1.45-2.66-3.11-6.82-3.43-10.31-1.43-.37.21-.12.75-.49.82-.92.18-.44-.56-.89-.82-2.43-1.43-4.63-1.61-7.17-.33-.95.48-2.59,2.26-3.23,2.27-1.54.03-7.3-1.69-9.14-2.24-47.37-14.12-61.64-57.85-43.66-101.99l4.54-8.67v9.14c0,.56,1.07,4.31,1.33,5.17,2.43,7.75,9.13,16.05,17.35,17.81-2.88,10.64,1.63,17.74,10.56,22.97.57.33,1.77.49,1.96.68.26.26,1.28,5.29,1.61,6.32,2.56,7.97,6.05,18.02,15.39,19.56,1.11.18,3.01-.25,3.82.24.32.19,2.36,4.46,3.08,5.46,4.32,6,12.96,10.51,20.27,11.03,13.63.95,23.05-4.84,30.8-15.57,7.18-9.96,10.06-23.55,10.92-35.61,2.06-1.12,2.63,2.72,4.84,2.39-.12-6.19-5.88-8.23-11.14-8.57-.32-.02-.59-.37-.65-.37l-.41-2.85ZM507.9,263.4c1.62-2.26,2.96-3.64,5.45-4.91,1.24-.63,5.17-.97,3.29-3.29-3.01-3.72-14.19,5.77-13.04,11.82.78,4.14,3.29-2.53,3.54-2.94s.63-.5.76-.68Z"/>
    <path class="cls-8" d="M486.12,471.67c.45.45-4.88,10.06-3.98,11.9,12.51,19.54,25.05,39.67,27.96,63.27-5.08,1.84-10.15,4.12-15.64,4.49-2.2.15-10.8-.25-12.38-1.43-.58-.44-4.12-10.34-4.95-12.12-5.64-12.12-14.58-23.69-25.45-31.48-18.17,6.51-40.1,6.19-57.69-2.04-1.34-.63-5.7-4.17-6.87-2.54-1.42,1.98,3.1,3.03,3.88,4.3-10.82,10.65-18.24,24.94-18.06,40.46-8.94,3.57-19.37,3.06-28.05-.84-2.92-11.9-1.35-23.21,3.5-34.27,4.79-10.93,12.24-21.49,19.67-30.76.62-1.38-1.17-3.12-1.03-3.23,7.7,3.22,15.87,5.18,24.11,6.58,1.36.68-.02,2.96,1.79,3.49,9.29,1.16,18.61,1.47,27.98,1.32,2.18-.09,1.87-2.04,1.81-3.68,21.69-.29,43.77-4.14,63.41-13.41Z"/>
    <path class="cls-10" d="M345.07,435.9c3.07,15.79,11.05,30.19,19.51,43.7-6.91,9.47-13.52,19.13-18.64,29.72-.67,1.39-1,4.26-2.64,4.2-4.67-.18-9.67-5.44-14.08-6.69-11.63-3.3-24.24,8.19-33.87,12.87-1.09.53-2.18,1.39-3.48,1.11-1.16-.79.61-7.44.98-8.9,2.05-8.13,5.8-16.96,8.96-24.78,12.37-30.62,27.15-60.25,40.03-90.65.69-.1.4.94.41,1.42.12,10.94-.51,21.93,1.55,32.82-7.87,16.22-16.22,33.49-20.46,51.11-.35,1.46-2.46,8.99-.8,9.35.62.14.86-.52,1.1-.93,1.62-2.84,3.16-10.67,4.38-14.32,3.75-11.24,10-29.32,16.19-39.09.23-.36.38-.9.89-.94ZM348.59,464.81c-1.47.39-4.64,9.55-5.25,11.42-.8,2.45-2.54,7.58-2.72,9.92-.15,2,.86,2.41,1.91.66,1.64-2.76,5.54-14.55,6.61-18.18.31-1.04,1.69-4.41-.56-3.81Z"/>
    <path class="cls-10" d="M559.69,503.37c-5.32-.9-9.65,1.1-14.54,1.93-14.07,2.39-20.46-12.62-36.24-2.51-1.75,1.12-6.11,5.28-7.73,5.71-.6.16-.92-.54-1.17-.93-1.93-2.91-3.58-6.56-5.43-9.61-3.14-5.18-6.52-10.23-9.6-15.45,9.21-21.95,16.41-45.27,19.44-68.96l40.81,64.66,14.46,25.16ZM504.01,446.88c-.17.17,0,2.25.31,2.73,5.77,10.44,10.56,21.51,16.54,31.82.95,1.63,3.05,5.6,4.27,6.7,1.09.98,2.05.84,1.97-.72-5.3-9.72-9.76-19.97-15.05-29.7-.98-1.8-4.97-9.33-6.01-10.25-.49-.43-1.68-.96-2.04-.6Z"/>
    <path class="cls-10" d="M516.6,395.26c10.26,18.19,22.59,35.24,35.79,51.4,7.41,9.07,15.52,17.63,22.74,26.85,10.87,13.9,20.3,26.86,11.21,44.91-.68,1.35-6.2,10.13-6.93,10.13-2.17-1.94-3.67-4.51-5.25-6.93-10.34-15.89-19.38-33.6-29.33-49.92-12.71-20.85-26.07-41.37-39.38-61.83-.73-2.12.37-5.04.39-7.3,1.52-.65,10.19-7.71,10.76-7.31Z"/>
    <path class="cls-10" d="M353,572.46c2.77-.8-1.77-2.71-1.99-2.89-1.13-.92-4.9-15.76-5.35-18.23-.12-.69-.27-1.35-.18-2.05,9.29,3.43,18.64,3.52,28.04.41.52,3.66,1.03,7.38,1.82,10.99,1.6,7.28,8.06,24.05,7.1,30.24-.38,2.45-3.27,4.52-5.28,5.69-12.45,7.25-46.67,11.98-58.88,4.05-7.45-4.83,1.26-15.68,5.85-19.69,4.54-3.96,14.31-8.52,20.33-8.52,1.85,0,7.24.37,8.54,0Z"/>
    <path class="cls-10" d="M510.92,549.7l3.29,20.13c.44,1.21-3.61,2.85-2.88,3.85.59.81,6.02-.45,7.53-.42,12.11.23,29.12,7.02,31.78,20.25,1.76,8.76-8.52,10.92-15.17,11.84-10.64,1.47-37.05-1.07-43.83-10.55-2.36-3.3-3.51-16.41-4.42-21.18-1.3-6.78-2.72-13.54-4.34-20.24,6.93,1.5,14.37,1.13,21.13-1.02,2.46-.78,4.46-2.06,6.91-2.64Z"/>
    <path class="cls-4" d="M305.21,228.79c.09-1.2.04-2.18-.18-3.14-.07-.32-.17-.63-.27-.95-.06-.11-.1-.23-.14-.36-.55-2.1-2.01-3.62-3.84-4.7-3.98-2.36-8.96-2.98-13.49-3.26-3.96-.25-7.95-.17-11.91.16-.73.06-1.35-.56-1.56-1.19-.32-.95.47-1.73.92-2.49.44-.76.8-1.56,1.03-2.41.58-2.1.31-4.35-.81-6.21-.04-.07-.18-.26-.26-.38-.11-.11-.26-.29-.23-.26-.31-.3-.61-.6-.94-.87-1.12-.92-2.49-1.57-3.93-1.74-1.89-.22-3.83.31-5.39,1.22-.08.05-.16.08-.24.12-.13.12-.25.24-.37.36-.15.15-.28.31-.42.47-.07.08-.14.17-.21.25-.05.06-.15.19-.17.23-.99,1.4-1.69,2.79-2.12,4.4-1.69,6.24,1.55,12.48,5.35,17.24,1.29,1.61-.99,3.92-2.29,2.29-2.43-3.04-4.55-6.33-5.77-10.06-1.56-4.76-1.26-10.72,1.6-15.04-.84-.02-1.67,0-2.5.05-2.22.16-4.46.71-6.38,1.88-.71.43-1.19.8-1.79,1.39-.26.26-.5.53-.73.81-.02.02-.16.2-.35.49-.26.39-.47.81-.68,1.23,0,0,0,.01,0,.02,0,.02-.01.05-.03.09-.03.07-.04.15-.08.22,0,0,0,0,0,.01,0,.01,0,.02,0,.03-.06.2-.1.41-.15.62-.04.21-.08.42-.12.63-.02.1-.03.19-.04.29,0,.07-.04.31-.04.37-.16,1.74-.16,3.51.12,5.23,1,6.15,4.84,11.16,9.87,14.67,1.7,1.19.08,4-1.64,2.8-2.93-2.04-5.53-4.44-7.58-7.38-2.85-4.09-4.58-9.62-4.15-14.78-.64.43-1.24.91-1.78,1.48-2.63,2.83-2.71,7.04-1.94,10.53.27,1.22.66,2.4,1.09,3.57h0c.11.2.2.41.31.62.67,1.27,1.44,2.5,2.33,3.64,5.42,6.95,14.17,11.91,25.68,14.06.01,0,.04,0,.09,0l1.21,15.67c9.43-3.69,19.46-6.2,29.67-6.1.45-.45-2.06-9.65-2.38-13.2h0c4.49-3.14,7.34-8.59,7.63-12.64Z"/>
    <path class="cls-8" d="M450.27,247.84c11.91-1.11,23.31,6.53,28.07,17.21,13.06,29.3-16.47,59.63-43.63,37.53-.89-.72-4.58-3.76-4.88-4.47-.39-.92-.29-2.58-.64-3.83-.52-1.86-1.92-3.9-3.22-5.32-1.33-1.44-3.85-2.59-4.1-4.44-2.22-16.73,11.34-35.09,28.39-36.68ZM448.63,258.8c-23.74,3.21-25.6,43.49-.51,45.82,31.93,2.96,32.07-50.08.51-45.82Z"/>
    <path class="cls-10" d="M487.65,467.5c-14.25,7.52-30.45,11.57-46.44,13.51-5.25.64-9.83.64-15.05.8-1.07.03-3.37,1.09-3.79-.24l-1.69-15.79c25.26-.19,51.54-4.61,73.17-18.09-1.61,6.73-3.74,13.36-6.2,19.81Z"/>
    <path class="cls-6" d="M457.67,316c-.97-.02-4.01,2.15-3.21,3.4.73,1.14.89-.06,2.17-.17.89-.08,2.23-.08,3.07.22-.63.73-1.65.68-2.42,1.24-5.78,4.23-9.5,8.95-16.69,11.76-10.78,4.21-29.22,3.56-33.75-9.33-.6-1.7-2.06-8.29-.8-9.37.73-.62,7.73-1.38,9.53-1.85,5.87-1.55,10.17-4.65,13.49-9.69,1.41.07,1.84,1.67,2.56,2.23,7.08,5.57,16.41,9.58,25.64,8.71l.41,2.85Z"/>
    <path class="cls-8" d="M406.44,282.25c-2.51-.06-4.93.54-7.3,1.23.32-.73.68-1.46.78-2.27,1.82-14.36-6.09-27.7-22.01-25.67-16.25,2.08-24.58,24.24-14.87,37.02,2.91,3.83,6.52,5.67,10.9,7.39l-6.29,4.92c-21.84-8.1-22.26-35.77-6.09-50.23,23.12-20.69,52.96-1.65,44.89,27.61Z"/>
    <path class="cls-7" d="M378.32,258.81c12.23-1.48,19.99,8.26,18.75,19.96-.1.91-.9,4.56-1.26,5.24-.66,1.26-4.66,3.52-6.01,5.37-2.21,3.01-.8,4.91-4.89,6.49-6.47,2.5-12.66,1.36-17.68-3.44-10.74-10.27-3.61-31.85,11.1-33.63ZM383.57,272.2c-4.05.93-5.2,7.61-4.72,11.05.86,6.22,8.49,8.72,11.77,2.89,2.95-5.24.44-15.66-7.04-13.95Z"/>
    <path class="cls-10" d="M310.12,276.58c-9.85.24-19.8,2.02-29.07,5.28-1.44.51-9.89,4.38-10.34,4.06l-3.61-19.26c8.02-4.86,18.44-7.49,27.78-8.36,1.65-.15,6.66-.56,8.03-.31.45.08,1.15.26,1.5.53,1.58,1.22,4.43,15.37,5.71,18.06Z"/>
    <path class="cls-10" d="M535.71,274.54l4.72-18.31c12.86.08,27.21,1.2,38.3,8.02l-4.6,19.21c-11.91-5.67-25.1-9.22-38.42-8.91Z"/>
    <path class="cls-6" d="M387.75,298.53c1.02,8.01,7.29,12.28,14.68,14.07.22,2.12-.28,4.32-.05,6.46.4,3.8,2.71,3.98-1.41,6.71-9.29,6.17-23.99,5.22-30.37-4.6-8.09-12.45,6.13-21.53,17.15-22.64Z"/>
    <path class="cls-10" d="M407.19,285.21c7.05-.1,20.72,4.14,19.41,13.33-1.79,12.63-28.51,15.96-34.86,3.11-5.36-10.86,6.52-16.32,15.45-16.44Z"/>
    <path class="cls-4" d="M357.96,237.28c2.48,2.06,5.46,6.11,5.78,9.47.31,3.34-.8,2.14-2.21,3.39-2.95,2.63-5.97,6-8.25,9.23-.85,1.21-2.92,5.5-3.83,5.92-3.13,1.46-8.95-.9-11.48-2.96-7.33-5.98-7.66-19.75.72-25.27,5.17-3.4,14.39-3.84,19.26.21ZM348.19,248.68c1.09.97,3.23,5.71,3.99,5.55,2.29-.49-.06-6.4-.99-7.53-.37-.45-4.24-2.67-4.88-2.84-1.77-.46-4.84.21-3.62,2.2.16.26,4.33,1.59,5.5,2.63Z"/>
    <path class="cls-8" d="M417.43,460.69l2.44,25.2c-8.47-.07-17.12.16-25.43-1.6l-3.02-24.01c8.66.52,17.35.9,26.01.4Z"/>
    <path class="cls-10" d="M495.06,360.31c.9.72-14.63,15.39-15.85,16.46-10.35,9.1-22.08,17.97-35.77,21.14-7.99,1.85-16.61,2.27-24.8,2.23l.41-8.13c11.34.53,22.8-1.53,33.2-6.02,15.68-6.77,26.47-20.47,42.81-25.67Z"/>
    <path class="cls-10" d="M390.6,480.61c-7.24-1.08-14.67-2.71-21.41-5.62-1.32-.57-4.22-1.71-5.16-2.57-1.13-1.03-3.5-5.39-4.4-6.99-1.79-3.19-3.36-6.66-4.8-10.03,10.49,5.17,22.08,8.19,33.76,9.12,1.05.74,1.79,13.9,2.01,16.08Z"/>
    <path class="cls-10" d="M422.1,370.06c-1.54-.47.69-6.19,1.23-7.31,5.46-11.38,19.12-18.62,30.67-11.19-3.54,6.2-8.2,11.65-14.48,15.18-1.92,1.08-6.84,3.31-8.88,3.31-1.77,0-7.36.36-8.54,0Z"/>
    <path class="cls-4" d="M412.32,436.95c5.99,8.67-3.12,20.78-13.28,15.51-6.17-3.2-6.32-14.35-.87-18.58.42-.09,3,2.43,3,2.62,0,.11-1.19,1.12-1.52,1.73-1.24,2.34-1.65,4.2-.89,6.78,1.56,5.3,8.85,5.34,10.52,0,2.32-7.43-7.03-11.16-10.95-15.83-2.85-3.39-4.34-7.08-2.98-11.51,1.32-4.3,4.7-5.46,7.46-8.39.69-.73,1.5-2.56,1.62-2.65,1.02-.7,1.81,2.94,2.21,3.68,2.96,5.43,11.78,3.49,7.85,13.5-.66,1.69-3.65,5.88-5.59,4.97-.21-.1-1.6-1.52-1.63-1.64-.18-.77,1.68-1.14,2.38-2.08,4.93-6.7-2.05-15.1-8.86-10.08-3.97,2.93-2.57,7.86.17,11.16,3.4,4.09,7.94,5.86,11.35,10.8Z"/>
    <path class="cls-7" d="M423.52,337.95c-.99,2.19-1.89,4.46-2.9,6.65-.83,1.79-3.06,6.8-4.21,7.98-2.8,2.89-7.95,1.71-11.53,1.57-1.56-8.09-1.2-16.36-1.71-24.56-.07-1.21,1.26-1.81,2.23-2.2,3.92,6.22,10.61,10.53,18.12,10.56Z"/>
    <path class="cls-10" d="M354.97,372.76c7.45,7.03,21.95,13.76,31.88,16.28,2.57.65,5.15,1.22,7.81,1.34-.6,2.72-2.06,5.22-1.63,8.13-16.93-.47-35.07-9.81-39.43-27.23.74.15.91,1.06,1.36,1.48Z"/>
    <path class="cls-7" d="M382.07,332.26c6.36,1.8,12.91.5,18.69-2.44l.82,24.21c-2.12-.36-4.33.02-6.43-.5-7.29-1.81-11.6-14.75-13.08-21.26Z"/>
    <path class="cls-10" d="M406.56,402.47c-2.97-3.19,2.3-19.68,8.44-13.11,2.26,2.42,1.54,10.91-1.21,13.03-1.6,1.23-5.87,1.54-7.23.08Z"/>
    <path class="cls-10" d="M394.21,401.41c.16.09,1.22,2.06,2.35,2.73,1.5.89,3.25.88,4.72,1.38,1.55.53.25.63-.09,1.01-4.8,5.45-9.95,8.15-17.49,7.42-.24-.21,1.79-4.06,2.11-4.59.94-1.53,6.74-8.93,8.4-7.95Z"/>
    <path class="cls-10" d="M423.93,415.98c-5.95-.46-13.69-3.86-15.85-9.75,3.06.23,5.74-.22,8.24-2.04.41-.3.12-1.06.9-.8,3,3.66,5.89,7.84,6.71,12.59Z"/>
    <path class="cls-10" d="M403.61,402.57c-3.43.64-7.52-1.39-7.69-5.14-.14-3,2.94-9.24,6.32-9.48,4.75-.33,1.65,4.87,1.15,7.28-.54,2.58-.54,4.8.22,7.33Z"/>
    <path class="cls-8" d="M407.95,417.74c1.38,1.96-.35,6.07-2.32,6.99-2.68,1.25-6.08-5.44-2.72-7.61,1.58-1.02,3.9-1.01,5.04.62Z"/>
    <path class="cls-8" d="M403.81,438.44c1.19-.1,2.95,2.6,3.04,3.81.4,5.67-7.09,4.86-5.18-1.59.12-.4,1.88-2.2,2.15-2.22Z"/>
    <path class="cls-9" d="M507.9,263.4c-.13.18-.51.26-.76.68s-2.76,7.08-3.54,2.94c-1.14-6.06,10.03-15.54,13.04-11.82,1.88,2.32-2.05,2.66-3.29,3.29-2.5,1.27-3.84,2.65-5.45,4.91Z"/>
    <path class="cls-5" d="M348.59,464.81c2.24-.59.87,2.77.56,3.81-1.08,3.63-4.97,15.42-6.61,18.18-1.05,1.76-2.05,1.34-1.91-.66.17-2.34,1.92-7.46,2.72-9.92.61-1.87,3.78-11.03,5.25-11.42Z"/>
    <path class="cls-5" d="M504.01,446.88c.36-.36,1.56.17,2.04.6,1.04.91,5.03,8.45,6.01,10.25,5.29,9.73,9.74,19.98,15.05,29.7.08,1.55-.88,1.7-1.97.72-1.22-1.1-3.32-5.07-4.27-6.7-5.98-10.32-10.77-21.38-16.54-31.82-.31-.48-.49-2.56-.31-2.73Z"/>
    <path class="cls-9" d="M448.63,258.8c31.57-4.27,31.43,48.78-.51,45.82-25.09-2.33-23.24-42.61.51-45.82ZM449.04,262.05c-20.56,2.78-21.82,37.83-.12,39.74,26.25,2.31,27.57-43.45.12-39.74Z"/>
    <path class="cls-9" d="M383.57,272.2c7.48-1.71,9.99,8.71,7.04,13.95-3.27,5.82-10.91,3.32-11.77-2.89-.48-3.45.67-10.13,4.72-11.05Z"/>
    <path class="cls-9" d="M348.19,248.68c-1.17-1.04-5.34-2.37-5.5-2.63-1.23-1.99,1.85-2.66,3.62-2.2.64.17,4.52,2.39,4.88,2.84.92,1.13,3.28,7.04.99,7.53-.76.16-2.9-4.58-3.99-5.55Z"/>
    <path class="cls-7" d="M449.04,262.05c27.45-3.71,26.13,42.05-.12,39.74-21.7-1.91-20.44-36.96.12-39.74ZM451.87,275.05c-8.07,1.41-8.54,19.89,2.32,18.17,7.96-1.26,7.54-19.89-2.32-18.17Z"/>
    <path class="cls-9" d="M451.87,275.05c9.86-1.72,10.28,16.91,2.32,18.17-10.85,1.72-10.38-16.76-2.32-18.17Z"/>
  </g>
</svg>