<svg id="Layer_1" data-name="Layer 1" xmlns="http://www.w3.org/2000/svg" viewBox="0 0 450 262.07999"><defs><style>.cls-1{fill:#fff;}.cls-2{fill:none;}.cls-3{fill:#4285f4;}.cls-4{opacity:0.07;}</style></defs><title>google-cloud-build</title><polygon points="276.323 104.128 252.48 62.551 228.638 104.128 252.48 145.706 276.323 104.128"/><polygon points="172.966 107.534 196.691 148.995 244.376 148.995 220.651 107.534 172.966 107.534"/><polygon points="220.299 100.722 244.494 59.262 196.808 59.262 172.966 100.722 220.299 100.722"/><g id="art"><path class="cls-1" d="M270.309,78.468l-42.1882-24.34862a4.90831,4.90831,0,0,0-4.8215,0L181.11111,78.468a4.86173,4.86173,0,0,0-2.41075,4.21882V131.384a4.81426,4.81426,0,0,0,2.41075,4.09828l42.1882,24.34862a4.90823,4.90823,0,0,0,4.8215,0l42.1882-24.34862a4.86177,4.86177,0,0,0,2.41074-4.21883V82.68678A4.75685,4.75685,0,0,0,270.309,78.468Zm-5.66528,48.21509-14.7056-8.43764v-22.42l-21.69679,12.41539v25.19238l19.40659-11.21,14.70561,8.43764L225.95113,151.755l-36.40239-21.0941,14.7056-8.43764,19.40659,11.21V108.36132L201.96416,95.94593v22.29948l-14.7056,8.43764V84.61538L223.661,63.52128V80.5171l-19.40659,11.21,21.69679,12.41539L247.648,91.72711l-19.40659-11.21V63.52128l36.40239,21.0941Z"/></g><g id="gcb"><g id="google-cloud-build-2"><g id="Rectangle"><rect class="cls-2" x="109.3379" y="-11.56093" width="226.98712" height="226.98712"/></g><g id="Group"><g id="Shape"><path class="cls-3" d="M333.03258,96.88671,286.46867,15.66187A20.26779,20.26779,0,0,0,269.066,5.27267H176.05561a20.36794,20.36794,0,0,0-17.4027,10.3892L112.089,96.76867a20.22037,20.22037,0,0,0,0,20.30627L158.653,198.772a21.08813,21.08813,0,0,0,17.40265,10.86145H269.066a20.7136,20.7136,0,0,0,17.4027-10.74341l46.56391-81.22488A21.10715,21.10715,0,0,0,333.03258,96.88671Z"/></g><g id="Shape-2" class="cls-4"><path d="M323.62577,133.95738,267.067,77.17081,222.61953,62.53145,178.28978,77.28888l26.692,26.79948v1.7709l-9.642-9.68086L174.527,135.49215l73.72629,74.02322h21.04786A20.71346,20.71346,0,0,0,286.70384,198.772Z"/></g><g id="Shape-3"><polygon class="cls-1" points="222.619 130.18 242.256 118.845 242.256 96.06 235.672 92.282 216.034 126.402 222.619 130.18"/><polygon class="cls-1" points="203.101 96.06 203.101 118.845 209.686 122.624 229.322 88.622 222.619 84.727 203.101 96.06"/><polygon class="cls-1" points="218.857 136.909 195.34 123.332 195.34 96.06 174.409 84.019 174.409 135.493 218.857 161.23 218.857 136.909"/><polygon class="cls-1" points="199.102 89.449 222.619 75.754 246.136 89.449 267.067 77.289 222.619 51.552 178.29 77.289 199.102 89.449"/><polygon class="cls-1" points="250.017 96.06 250.017 123.332 226.5 136.909 226.5 161.23 270.947 135.493 270.947 84.019 250.017 96.06"/></g></g></g></g><path d="M82.23308,236.93164a4.83871,4.83871,0,0,0-2.86621-3.53711,7.04861,7.04861,0,0,0-2.83252-.55273,6.1563,6.1563,0,0,0-4.90234,2.25q-1.91968,2.25-1.91943,6.7666,0,4.5498,2.07861,6.44043a6.83349,6.83349,0,0,0,4.72656,1.89063,6.128,6.128,0,0,0,4.25732-1.49121A6.43575,6.43575,0,0,0,82.82,244.792H77.10417v-4.123h10.2915v13.25781H83.97624l-.51953-3.084a11.83661,11.83661,0,0,1-2.68164,2.46973,9.46856,9.46856,0,0,1-5.02832,1.251,10.44852,10.44852,0,0,1-8.04541-3.40039q-3.26807-3.416-3.26807-9.34668,0-5.99561,3.30176-9.61426a11.25539,11.25539,0,0,1,8.73242-3.61816,11.4177,11.4177,0,0,1,7.56738,2.38867,8.88044,8.88044,0,0,1,3.27686,5.959Z"/><path d="M107.17351,251.69141q-2.313,2.855-7.02295,2.85547-4.71021,0-7.02246-2.85547a11.33476,11.33476,0,0,1,0-13.72363q2.313-2.896,7.02246-2.89648,4.71021,0,7.02295,2.89648a11.33476,11.33476,0,0,1,0,13.72363Zm-3.82129-2.63965a8.53089,8.53089,0,0,0,0-8.46,4.24538,4.24538,0,0,0-6.44482,0,8.47337,8.47337,0,0,0,0,8.46,4.23091,4.23091,0,0,0,6.44482,0Z"/><path d="M128.14128,251.69141q-2.313,2.855-7.02295,2.85547-4.71021,0-7.02246-2.85547a11.33476,11.33476,0,0,1,0-13.72363q2.313-2.896,7.02246-2.89648,4.71021,0,7.02295,2.89648a11.33476,11.33476,0,0,1,0,13.72363ZM124.32,249.05176a8.53089,8.53089,0,0,0,0-8.46,4.24538,4.24538,0,0,0-6.44482,0,8.47338,8.47338,0,0,0,0,8.46,4.23091,4.23091,0,0,0,6.44482,0Z"/><path d="M142.9113,235.64063a5.73658,5.73658,0,0,1,2.812,2.64844v-2.63184H150.383v17.33105a9.71215,9.71215,0,0,1-1.18994,5.33008q-2.04565,3.0835-7.84424,3.084a10.68921,10.68921,0,0,1-5.71533-1.375,5.06991,5.06991,0,0,1-2.44727-4.10645h5.1958a2.154,2.154,0,0,0,.65381,1.207,4.03706,4.03706,0,0,0,2.59766.6543q2.58105,0,3.45313-1.72656a8.7535,8.7535,0,0,0,.56982-3.7207v-1.17383a5.82739,5.82739,0,0,1-1.4751,1.75977,5.9295,5.9295,0,0,1-3.7041,1.08984,7.00951,7.00951,0,0,1-5.62354-2.47266,9.99243,9.99243,0,0,1-2.103-6.69531,11.29735,11.29735,0,0,1,2.02539-6.84766,6.68978,6.68978,0,0,1,5.7417-2.77344A6.27936,6.27936,0,0,1,142.9113,235.64063Zm1.627,13.09863a5.87771,5.87771,0,0,0,1.15137-4.03125,6.18585,6.18585,0,0,0-1.09326-3.95508,3.56656,3.56656,0,0,0-2.92871-1.35742,3.45142,3.45142,0,0,0-3.45508,2.36328,8.406,8.406,0,0,0-.501,3.10059,7.08992,7.08992,0,0,0,.53418,2.832,3.481,3.481,0,0,0,3.47168,2.31348A3.66913,3.66913,0,0,0,144.53825,248.73926Z"/><path d="M159.71843,253.92676h-4.77686V229.22168h4.77686Z"/><path d="M176.28337,236.02734a7.42992,7.42992,0,0,1,3.15674,2.70313,8.96451,8.96451,0,0,1,1.45557,3.77637,23.31943,23.31943,0,0,1,.15771,3.626H167.74724a4.38441,4.38441,0,0,0,1.91064,3.85547,4.85331,4.85331,0,0,0,2.63379.68652,3.70924,3.70924,0,0,0,3.63525-2.09473h4.877a5.96207,5.96207,0,0,1-1.771,3.30176,8.87793,8.87793,0,0,1-6.873,2.665,9.95508,9.95508,0,0,1-6.43506-2.248q-2.78833-2.24707-2.78809-7.31445,0-4.74609,2.51709-7.2793a8.80426,8.80426,0,0,1,6.53271-2.53418A10.40792,10.40792,0,0,1,176.28337,236.02734Zm-7.14648,4.127a4.96143,4.96143,0,0,0-1.27246,2.82715h8.22949a3.98671,3.98671,0,0,0-1.27246-2.88672,4.186,4.186,0,0,0-2.833-.98437A3.7877,3.7877,0,0,0,169.13689,240.1543Z"/><path d="M195.75114,231.80273a10.16846,10.16846,0,0,1,7.59424-3.05078q6.16846,0,9.02051,4.08984a8.91591,8.91591,0,0,1,1.69141,4.60938h-5.16211a7.025,7.025,0,0,0-1.26465-2.68164,5.60435,5.60435,0,0,0-8.43994.66211,11.09161,11.09161,0,0,0-1.59229,6.42773q0,4.15576,1.68066,6.22656a5.26569,5.26569,0,0,0,4.27051,2.06934,4.83781,4.83781,0,0,0,4.0498-1.77637,7.792,7.792,0,0,0,1.27881-2.86621H214.007a11.1315,11.1315,0,0,1-3.39062,6.57031,9.86992,9.86992,0,0,1-6.98926,2.53125,10.48616,10.48616,0,0,1-8.291-3.41992q-3.01758-3.43506-3.01758-9.41895Q192.31853,235.30518,195.75114,231.80273Z"/><path d="M222.672,253.92676h-4.77686V229.22168H222.672Z"/><path d="M242.56755,251.69141q-2.313,2.855-7.02295,2.85547-4.71021,0-7.02246-2.85547a11.33476,11.33476,0,0,1,0-13.72363q2.313-2.896,7.02246-2.89648,4.71021,0,7.02295,2.89648a11.33476,11.33476,0,0,1,0,13.72363Zm-3.82129-2.63965a8.53089,8.53089,0,0,0,0-8.46,4.24538,4.24538,0,0,0-6.44482,0,8.47337,8.47337,0,0,0,0,8.46,4.23091,4.23091,0,0,0,6.44482,0Z"/><path d="M253.05974,235.65723v11.01172a5.79738,5.79738,0,0,0,.3667,2.34668,2.53752,2.53752,0,0,0,2.55176,1.3916,3.33463,3.33463,0,0,0,3.33594-1.97754,7.20285,7.20285,0,0,0,.4668-2.833v-9.93945h4.84375v18.26953H259.9821V251.3457q-.06665.0835-.33447.50293a3.35083,3.35083,0,0,1-.63477.7373,6.62742,6.62742,0,0,1-2.16455,1.374,7.35242,7.35242,0,0,1-2.44873.36914q-4.04443,0-5.44873-2.916a11.197,11.197,0,0,1-.78516-4.74414V235.65723Z"/><path d="M278.95525,235.95117A5.79386,5.79386,0,0,1,281.05,237.9707v-8.71582h4.84375v24.67188h-4.64258v-2.53125a6.73592,6.73592,0,0,1-2.3291,2.36328,6.53825,6.53825,0,0,1-3.252.73828,6.78793,6.78793,0,0,1-5.38867-2.58984,9.94506,9.94506,0,0,1-2.1875-6.64551,11.43412,11.43412,0,0,1,2.1543-7.3584,7.00764,7.00764,0,0,1,5.75684-2.68164A5.89027,5.89027,0,0,1,278.95525,235.95117Zm1.17285,13.01465a6.66433,6.66433,0,0,0,1.05664-3.90527q0-3.353-1.69336-4.79395a3.64123,3.64123,0,0,0-2.41309-.87109,3.35577,3.35577,0,0,0-3.07617,1.583,8.54119,8.54119,0,0,0,.0166,7.97852,3.37348,3.37348,0,0,0,3.02539,1.5166A3.52423,3.52423,0,0,0,280.1281,248.96582Z"/><path d="M318.58415,231.85254a6.2856,6.2856,0,0,1,1.13379,3.77148,5.49886,5.49886,0,0,1-1.14453,3.63672,5.899,5.899,0,0,1-1.88379,1.4082,5.50234,5.50234,0,0,1,2.85352,2.17871,6.538,6.538,0,0,1,.96191,3.62012,7.22392,7.22392,0,0,1-1.09961,3.93945,6.80416,6.80416,0,0,1-4.541,3.18457,17.09888,17.09888,0,0,1-3.49121.335H300.24138V229.22168h11.93945Q316.69987,229.2876,318.58415,231.85254Zm-13.415,1.65918V238.959H311.174a4.96146,4.96146,0,0,0,2.6123-.61133,2.33463,2.33463,0,0,0,1.00391-2.1709,2.21314,2.21314,0,0,0-1.32715-2.2793,9.30536,9.30536,0,0,0-2.91992-.38574Zm0,9.53711v6.58691h5.998a5.82258,5.82258,0,0,0,2.502-.43555,3.11131,3.11131,0,0,0,1.624-3.084,2.65364,2.65364,0,0,0-1.57422-2.64844,6.264,6.264,0,0,0-2.46875-.41895Z"/><path d="M329.32146,235.65723v11.01172a5.77917,5.77917,0,0,0,.36719,2.34668,2.53709,2.53709,0,0,0,2.55176,1.3916,3.33329,3.33329,0,0,0,3.335-1.97754,7.194,7.194,0,0,0,.4668-2.833v-9.93945h4.84473v18.26953h-4.64355V251.3457q-.06592.0835-.334.50293a3.33793,3.33793,0,0,1-.63477.7373,6.634,6.634,0,0,1-2.165,1.374,7.34942,7.34942,0,0,1-2.44824.36914q-4.04443,0-5.44824-2.916a11.17955,11.17955,0,0,1-.78613-4.74414V235.65723Z"/><path d="M350.43962,233.47852h-4.84375v-4.4082h4.84375Zm-4.84375,2.17871h4.84375v18.26953h-4.84375Z"/><path d="M359.94353,253.92676h-4.77637V229.22168h4.77637Z"/><path d="M374.29118,235.95117a5.79386,5.79386,0,0,1,2.09473,2.01953v-8.71582h4.84375v24.67188h-4.64258v-2.53125a6.73592,6.73592,0,0,1-2.3291,2.36328,6.53825,6.53825,0,0,1-3.252.73828,6.78793,6.78793,0,0,1-5.38867-2.58984,9.94506,9.94506,0,0,1-2.1875-6.64551,11.43412,11.43412,0,0,1,2.1543-7.3584,7.00764,7.00764,0,0,1,5.75684-2.68164A5.89027,5.89027,0,0,1,374.29118,235.95117Zm1.17285,13.01465a6.66433,6.66433,0,0,0,1.05664-3.90527q0-3.353-1.69336-4.79395a3.64123,3.64123,0,0,0-2.41309-.87109,3.35577,3.35577,0,0,0-3.07617,1.583,8.54119,8.54119,0,0,0,.0166,7.97852,3.37348,3.37348,0,0,0,3.02539,1.5166A3.52423,3.52423,0,0,0,375.464,248.96582Z"/></svg>