<?xml version="1.0" encoding="UTF-8"?>
<svg width="277px" height="240px" viewBox="0 0 277 240" version="1.1" xmlns="http://www.w3.org/2000/svg" xmlns:xlink="http://www.w3.org/1999/xlink">
    <!-- Generator: Sketch 51.2 (57519) - http://www.bohemiancoding.com/sketch -->
    <title>gcb</title>
    <desc>Created with Sketch.</desc>
    <defs></defs>
    <g id="gcb" stroke="none" stroke-width="1" fill="none" fill-rule="evenodd">
        <text id="Google-Cloud-Build" font-family="Roboto-Regular, Roboto" font-size="24" font-weight="normal" fill="#448AFF">
            <tspan x="37.0683594" y="232">Google Cloud Build</tspan>
        </text>
        <g id="google-cloud-build" transform="translate(39.000000, 0.000000)">
            <rect id="Rectangle" x="0" y="0" width="200" height="200"></rect>
            <g id="Group" transform="translate(0.000000, 14.000000)" fill-rule="nonzero">
                <path d="M197.099041,81.554023 L156.07119,9.9862069 C152.96302,4.36896552 147.057496,0.936206897 140.737549,0.832183908 L58.7854542,0.832183908 C52.3619018,0.936206897 46.5599836,4.47298851 43.4518131,9.9862069 L2.42396266,81.45 C-0.78781351,86.9632184 -0.78781351,93.8287356 2.42396266,99.341954 L43.4518131,171.325862 C46.5599836,176.943103 52.3619018,180.583908 58.7854542,180.895977 L140.737549,180.895977 C147.161102,180.687931 152.96302,177.047126 156.07119,171.429885 L197.099041,99.862069 C200.310817,94.1408046 200.310817,87.1712644 197.099041,81.554023 Z" id="Shape" fill="#4285F4"></path>
                <path d="M188.810586,114.217241 L138.976253,64.1821839 L99.8133046,51.2833333 L60.7539621,64.2862069 L84.2724522,87.8994253 L84.2724522,89.4597701 L75.7767862,80.9298851 L57.4385803,115.56954 L122.399343,180.791954 L140.944761,180.791954 C147.368313,180.583908 153.170231,176.943103 156.278402,171.325862 L188.810586,114.217241 Z" id="Shape" fill="#000000" opacity="0.07"></path>
                <g transform="translate(57.024158, 41.609195)" fill="#FFFFFF" id="Shape">
                    <g transform="translate(24.865364, 29.126437)">
                        <polygon points="17.9237831 40.1528736 35.2259322 30.1666667 35.2259322 10.0902299 29.424014 6.76149425 12.1218649 36.8241379"></polygon>
                        <polygon points="0.72523978 10.0902299 0.72523978 30.1666667 6.52715802 33.4954023 23.8293071 3.53678161 17.9237831 0.104022989"></polygon>
                    </g>
                    <g>
                        <polygon points="39.4737652 75.2086207 18.7526286 63.245977 18.7526286 39.2166667 0.310817049 28.6063218 0.310817049 73.9603448 39.4737652 96.6373563"></polygon>
                        <polygon points="22.0680105 33.3913793 42.789147 21.3247126 63.5102836 33.3913793 81.9520952 22.6770115 42.789147 0 3.72980459 22.6770115"></polygon>
                        <polygon points="66.9292712 39.2166667 66.9292712 63.245977 46.2081346 75.2086207 46.2081346 96.6373563 85.3710827 73.9603448 85.3710827 28.6063218"></polygon>
                    </g>
                </g>
            </g>
        </g>
    </g>
</svg>