<?xml version="1.0" encoding="utf-8"?>
<!-- Generator: Adobe Illustrator 21.1.0, SVG Export Plug-In . SVG Version: 6.00 Build 0)  -->
<svg version="1.1" id="Layer_1" xmlns="http://www.w3.org/2000/svg" xmlns:xlink="http://www.w3.org/1999/xlink" x="0px" y="0px"
	 viewBox="0 0 288 234" style="enable-background:new 0 0 288 234;" xml:space="preserve">
<style type="text/css">
	.st0{enable-background:new    ;}
	.st1{fill:#478EF6;}
	.st2{fill:#4285F4;}
	.st3{opacity:7.000000e-02;enable-background:new    ;}
	.st4{fill:#FFFFFF;}
</style>
<g class="st0">
	<path class="st1" d="M63.5,220c-0.7,0.9-1.7,1.6-2.9,2.1s-2.6,0.7-4.2,0.7c-1.6,0-3.1-0.4-4.3-1.1c-1.2-0.7-2.2-1.8-2.9-3.1
		c-0.7-1.4-1-3-1.1-4.8v-1.5c0-2.9,0.7-5.2,2.1-6.8c1.4-1.6,3.3-2.5,5.8-2.5c2.1,0,3.9,0.5,5.1,1.6c1.3,1.1,2,2.6,2.3,4.6h-3.3
		c-0.4-2.3-1.7-3.5-4-3.5c-1.5,0-2.6,0.5-3.4,1.6c-0.8,1.1-1.2,2.7-1.2,4.8v1.5c0,2.1,0.4,3.7,1.3,4.8c0.9,1.2,2.1,1.7,3.7,1.7
		c1.7,0,2.9-0.4,3.7-1.2v-3.8h-4v-2.5h7.3V220z"/>
	<path class="st1" d="M66.3,215.2c0-1.4,0.3-2.7,0.8-3.8c0.6-1.1,1.3-2,2.3-2.6s2.2-0.9,3.5-0.9c1.9,0,3.5,0.6,4.7,1.9
		c1.2,1.2,1.9,2.9,2,5l0,0.8c0,1.4-0.3,2.7-0.8,3.8c-0.5,1.1-1.3,2-2.3,2.6c-1,0.6-2.2,0.9-3.5,0.9c-2,0-3.6-0.7-4.9-2
		c-1.2-1.3-1.8-3.1-1.8-5.4V215.2z M69.5,215.5c0,1.5,0.3,2.6,0.9,3.5c0.6,0.8,1.5,1.3,2.5,1.3s1.9-0.4,2.5-1.3
		c0.6-0.8,0.9-2.1,0.9-3.7c0-1.4-0.3-2.6-0.9-3.4c-0.6-0.8-1.5-1.3-2.5-1.3c-1.1,0-1.9,0.4-2.5,1.3
		C69.8,212.6,69.5,213.8,69.5,215.5z"/>
	<path class="st1" d="M81.7,215.2c0-1.4,0.3-2.7,0.8-3.8c0.6-1.1,1.3-2,2.3-2.6s2.2-0.9,3.5-0.9c1.9,0,3.5,0.6,4.7,1.9
		c1.2,1.2,1.9,2.9,2,5l0,0.8c0,1.4-0.3,2.7-0.8,3.8c-0.5,1.1-1.3,2-2.3,2.6c-1,0.6-2.2,0.9-3.5,0.9c-2,0-3.6-0.7-4.9-2
		c-1.2-1.3-1.8-3.1-1.8-5.4V215.2z M85,215.5c0,1.5,0.3,2.6,0.9,3.5c0.6,0.8,1.5,1.3,2.5,1.3s1.9-0.4,2.5-1.3
		c0.6-0.8,0.9-2.1,0.9-3.7c0-1.4-0.3-2.6-0.9-3.4c-0.6-0.8-1.5-1.3-2.5-1.3c-1.1,0-1.9,0.4-2.5,1.3C85.3,212.6,85,213.8,85,215.5z"
		/>
	<path class="st1" d="M97.2,215.2c0-2.2,0.5-4,1.6-5.3c1-1.3,2.4-2,4.2-2c1.6,0,2.9,0.6,3.9,1.7l0.1-1.4h2.9v13.9
		c0,1.9-0.6,3.4-1.8,4.5c-1.2,1.1-2.8,1.6-4.7,1.6c-1.1,0-2.1-0.2-3.1-0.7c-1-0.4-1.8-1-2.3-1.7l1.5-1.9c1,1.2,2.2,1.8,3.7,1.8
		c1.1,0,1.9-0.3,2.5-0.9c0.6-0.6,0.9-1.4,0.9-2.6v-1c-0.9,1-2.2,1.6-3.7,1.6c-1.7,0-3.1-0.7-4.1-2S97.2,217.6,97.2,215.2z
		 M100.5,215.5c0,1.4,0.3,2.6,0.9,3.4c0.6,0.8,1.4,1.2,2.4,1.2c1.3,0,2.3-0.6,2.9-1.7v-6.3c-0.6-1.1-1.6-1.6-2.9-1.6
		c-1.1,0-1.9,0.4-2.5,1.3C100.8,212.6,100.5,213.9,100.5,215.5z"/>
	<path class="st1" d="M116.6,222.5h-3.2v-20.4h3.2V222.5z"/>
	<path class="st1" d="M126.5,222.8c-2,0-3.7-0.6-5-1.9c-1.3-1.3-1.9-3-1.9-5.1v-0.4c0-1.4,0.3-2.7,0.8-3.8c0.6-1.1,1.3-2,2.3-2.6
		s2.1-0.9,3.3-0.9c2,0,3.5,0.6,4.5,1.9c1.1,1.2,1.6,3,1.6,5.3v1.3h-9.4c0.1,1.2,0.5,2.1,1.2,2.8s1.6,1,2.6,1c1.5,0,2.7-0.6,3.6-1.8
		l1.7,1.7c-0.6,0.9-1.3,1.5-2.3,2C128.7,222.5,127.7,222.8,126.5,222.8z M126.1,210.5c-0.9,0-1.6,0.3-2.1,0.9
		c-0.5,0.6-0.9,1.5-1,2.6h6.1v-0.2c-0.1-1.1-0.4-1.9-0.9-2.4S127,210.5,126.1,210.5z"/>
	<path class="st1" d="M151.9,217.5c0-0.8-0.3-1.5-0.9-2s-1.7-0.9-3.2-1.4s-2.8-1-3.7-1.6c-1.8-1.1-2.6-2.5-2.6-4.3
		c0-1.6,0.6-2.8,1.9-3.8c1.3-1,2.9-1.5,4.9-1.5c1.3,0,2.5,0.2,3.6,0.7c1.1,0.5,1.9,1.2,2.5,2.1s0.9,1.9,0.9,3h-3.3
		c0-1-0.3-1.8-0.9-2.3c-0.6-0.6-1.5-0.8-2.7-0.8c-1.1,0-1.9,0.2-2.6,0.7s-0.9,1.1-0.9,2c0,0.7,0.3,1.3,1,1.8
		c0.7,0.5,1.7,0.9,3.2,1.4c1.5,0.4,2.7,1,3.6,1.5c0.9,0.6,1.6,1.2,2,2c0.4,0.7,0.6,1.6,0.6,2.6c0,1.6-0.6,2.9-1.8,3.8
		s-2.9,1.4-5,1.4c-1.4,0-2.7-0.3-3.9-0.8c-1.2-0.5-2.1-1.2-2.7-2.1c-0.6-0.9-1-2-1-3.2h3.4c0,1.1,0.4,1.9,1.1,2.5
		c0.7,0.6,1.8,0.9,3.1,0.9c1.2,0,2-0.2,2.6-0.7C151.6,218.9,151.9,218.3,151.9,217.5z"/>
	<path class="st1" d="M170.4,215.5c0,2.2-0.5,4-1.5,5.3c-1,1.3-2.4,2-4.1,2c-1.6,0-2.8-0.5-3.8-1.6v6.8h-3.2v-19.9h3l0.1,1.5
		c0.9-1.1,2.2-1.7,3.9-1.7c1.8,0,3.1,0.7,4.1,2c1,1.3,1.5,3.1,1.5,5.4V215.5z M167.2,215.2c0-1.4-0.3-2.6-0.9-3.4
		c-0.6-0.8-1.4-1.3-2.4-1.3c-1.3,0-2.3,0.5-2.8,1.6v6.4c0.6,1.1,1.5,1.7,2.9,1.7c1,0,1.8-0.4,2.4-1.2
		C166.9,218.1,167.2,216.9,167.2,215.2z"/>
	<path class="st1" d="M181.7,222.5c-0.1-0.3-0.3-0.7-0.4-1.3c-1,1.1-2.3,1.6-3.8,1.6c-1.4,0-2.6-0.4-3.5-1.2
		c-0.9-0.8-1.4-1.8-1.4-3.1c0-1.5,0.6-2.7,1.7-3.5c1.1-0.8,2.8-1.2,4.9-1.2h2v-0.9c0-0.7-0.2-1.3-0.6-1.8c-0.4-0.4-1-0.7-1.9-0.7
		c-0.7,0-1.3,0.2-1.8,0.6s-0.7,0.8-0.7,1.4H173c0-0.8,0.3-1.5,0.8-2.2c0.5-0.7,1.2-1.2,2.1-1.6c0.9-0.4,1.9-0.6,3-0.6
		c1.7,0,3,0.4,4,1.3c1,0.8,1.5,2,1.5,3.6v6.5c0,1.3,0.2,2.3,0.5,3.1v0.2H181.7z M178.2,220.2c0.6,0,1.2-0.2,1.8-0.5
		c0.6-0.3,1-0.7,1.3-1.2v-2.7h-1.7c-1.2,0-2.1,0.2-2.7,0.6c-0.6,0.4-0.9,1-0.9,1.8c0,0.6,0.2,1.1,0.6,1.5S177.5,220.2,178.2,220.2z"
		/>
	<path class="st1" d="M190.8,208.2l0.1,1.7c1.1-1.3,2.5-1.9,4.2-1.9c3,0,4.5,1.7,4.6,5.1v9.5h-3.2v-9.3c0-0.9-0.2-1.6-0.6-2
		c-0.4-0.4-1-0.7-1.9-0.7c-1.3,0-2.3,0.6-2.9,1.8v10.2h-3.2v-14.3H190.8z"/>
	<path class="st1" d="M206,208.2l0.1,1.7c1.1-1.3,2.5-1.9,4.2-1.9c3,0,4.5,1.7,4.6,5.1v9.5h-3.2v-9.3c0-0.9-0.2-1.6-0.6-2
		c-0.4-0.4-1-0.7-1.9-0.7c-1.3,0-2.3,0.6-2.9,1.8v10.2h-3.2v-14.3H206z"/>
	<path class="st1" d="M224.4,222.8c-2,0-3.7-0.6-5-1.9c-1.3-1.3-1.9-3-1.9-5.1v-0.4c0-1.4,0.3-2.7,0.8-3.8c0.6-1.1,1.3-2,2.3-2.6
		s2.1-0.9,3.3-0.9c2,0,3.5,0.6,4.5,1.9c1.1,1.2,1.6,3,1.6,5.3v1.3h-9.4c0.1,1.2,0.5,2.1,1.2,2.8c0.7,0.7,1.6,1,2.6,1
		c1.5,0,2.7-0.6,3.6-1.8l1.7,1.7c-0.6,0.9-1.3,1.5-2.3,2S225.6,222.8,224.4,222.8z M224,210.5c-0.9,0-1.6,0.3-2.1,0.9
		c-0.5,0.6-0.9,1.5-1,2.6h6.1v-0.2c-0.1-1.1-0.4-1.9-0.9-2.4S224.9,210.5,224,210.5z"/>
	<path class="st1" d="M240.2,211.1c-0.4-0.1-0.9-0.1-1.3-0.1c-1.5,0-2.5,0.6-3,1.7v9.8h-3.2v-14.3h3.1l0.1,1.6
		c0.8-1.2,1.9-1.9,3.2-1.9c0.5,0,0.8,0.1,1.1,0.2L240.2,211.1z"/>
</g>
<g>
	<path class="st2" d="M235.2,85l-38.5-67c-3-5.2-8.5-8.5-14.5-8.6h-77.1c-6,0.1-11.5,3.4-14.5,8.6L52,84.8c-3,5.2-3,11.6,0,16.8
		L90.6,169c2.9,5.3,8.4,8.7,14.5,8.9h77.1c6.1-0.2,11.5-3.6,14.5-8.9l38.6-67.1C238.2,96.8,238.2,90.3,235.2,85z"/>
	<path class="st3" d="M158.3,56.8l-5.6,8.5l-13.5-13.5L136,64.9l-7,6.7L143.3,86l0.2,13.4l-12.6,3.4l-13.7-2.5l-13.1,12.1l7.1,7.1
		l-2.7,0.6l58,57.9h15.7c6.1-0.2,11.5-3.6,14.5-8.9l27-46.9L158.3,56.8z"/>
	<polygon class="st4" points="172.2,106.3 182.9,112.5 183.8,101.1 170.9,93.7 162.6,99.1 149.3,91.4 149.3,76.2 158.3,71.6 
		158.3,56.8 148,51.8 148,64.2 143.6,66.7 139.2,64.2 139.2,51.8 129,56.8 129,71.6 137.9,76.2 137.9,91.4 124.7,99.1 116.2,93.6 
		103.3,101 104.2,112.4 114.9,106.2 119.2,108.7 119.3,113.8 108.6,120 118,126.4 130.9,119 130.4,109 143.6,101.4 156.8,109 
		156.2,119.1 169.1,126.5 178.5,120.1 167.8,113.9 167.9,108.8 	"/>
</g>
</svg>
