<svg id="Layer_1" data-name="Layer 1" xmlns="http://www.w3.org/2000/svg" viewBox="0 0 433.33334 262.07999"><defs><style>.cls-1{fill:#4285f4;}.cls-2{opacity:0.07;isolation:isolate;}.cls-3{fill:#fff;}</style></defs><title>google-cloud-dataflow</title><path class="cls-1" d="M324.18965,93.6107,278.55587,14.33363A20.38776,20.38776,0,0,0,261.4432,4.08931H170.17561a19.85085,19.85085,0,0,0-16.99626,10.24432L107.54556,93.37788a20,20,0,0,0,0,19.79017l45.63379,79.74272A20.57871,20.57871,0,0,0,170.292,203.50434H261.4432a20.36521,20.36521,0,0,0,17.11267-10.47715l45.63379-79.27707A20.6656,20.6656,0,0,0,324.18965,93.6107Zm-45.63379,99.30007a20.36521,20.36521,0,0,1-17.11267,10.47715H237.57859l-50.05748-50.05748,11.292-6.51912L177.74244,125.857l.11641-.11641V114.21575h6.16988l-5.82064-5.82064v-.11641a6.49841,6.49841,0,0,1-1.74619-4.30727,6.3671,6.3671,0,0,1,5.4714-6.16988l-4.19086-4.19086.11641-.11641V82.08584L201.49064,68.582,187.52111,54.61243l9.1966-5.355h.23282l18.85886,10.9428,18.85886-10.9428h.23282l9.1966,5.355L316.39,126.90474Z"/><path class="cls-1" d="M225.23883,65.67164l28.63754,16.41419V93.72711h-9.89508V87.55723L220.46592,73.82053v10.1279h-9.42944V73.82053L187.52111,87.55723v6.16988h-9.77867V93.6107l-.11641.11641,4.19086,4.19086c.23282,0,.46565-.11641.69847-.11641a6.16988,6.16988,0,1,1-4.42369,10.47715v.11641l5.82064,5.82064h3.60879v6.16988l23.51538,13.73671V124.11084h9.42944v10.01149l23.51537-13.73671v-6.16988h9.89508V125.857l-28.75394,16.53061,19.09168,11.05921-9.1966,5.355h-.23282L215.92583,147.859,197.067,158.80183h-.23282l-9.19661-5.355L237.695,203.50432h23.74819a20.36521,20.36521,0,0,0,17.11267-10.47715l37.95054-66.006L244.21411,54.72885Zm-9.42944,53.8991a6.13589,6.13589,0,1,1,.06816,0q-.03408.00019-.06814,0Zm0-18.626a6.13589,6.13589,0,1,1,.06816,0q-.03408.00019-.06814,0Zm33.294,9.313a6.16987,6.16987,0,1,1,6.16988-6.16988A6.16988,6.16988,0,0,1,249.10344,110.25773Z"/><path class="cls-2" d="M225.23883,65.67164l28.63754,16.41419V93.72711h-9.89508V87.55723L220.46592,73.82053v10.1279h-9.42944V73.82053L187.52111,87.55723v6.16988h-9.77867V93.6107l-.11641.11641,4.19086,4.19086c.23282,0,.46565-.11641.69847-.11641a6.16988,6.16988,0,1,1-4.42369,10.47715v.11641l5.82064,5.82064h3.60879v6.16988l23.51538,13.73671V124.11084h9.42944v10.01149l23.51537-13.73671v-6.16988h9.89508V125.857l-28.75394,16.53061,19.09168,11.05921-9.1966,5.355h-.23282L215.92583,147.859,197.067,158.80183h-.23282l-9.19661-5.355L237.695,203.50432h23.74819a20.36521,20.36521,0,0,0,17.11267-10.47715l37.95054-66.006L244.21411,54.72885Zm-9.42944,53.8991a6.13589,6.13589,0,1,1,.06816,0q-.03408.00019-.06814,0Zm0-18.626a6.13589,6.13589,0,1,1,.06816,0q-.03408.00019-.06814,0Zm33.294,9.313a6.16987,6.16987,0,1,1,6.16988-6.16988A6.16988,6.16988,0,0,1,249.10344,110.25773Z"/><polygon class="cls-1" points="177.743 125.857 177.743 125.741 177.743 125.857 198.813 146.811 206.497 142.388 177.743 125.857"/><polygon class="cls-2" points="177.743 125.857 177.743 125.741 177.743 125.857 198.813 146.811 206.497 142.388 177.743 125.857"/><polygon class="cls-1" points="187.521 54.612 201.374 68.582 206.497 65.672 187.521 54.612"/><polygon class="cls-2" points="187.521 54.612 201.374 68.582 206.497 65.672 187.521 54.612"/><circle class="cls-3" cx="249.10344" cy="104.08782" r="6.16988"/><path class="cls-3" d="M182.63177,110.25773a6.16988,6.16988,0,1,0,.00742-12.33975h-.00742a1.47652,1.47652,0,0,0-.69847.11641,6.18857,6.18857,0,0,0-5.4714,6.16988,6.06033,6.06033,0,0,0,1.74619,4.30727A6.56406,6.56406,0,0,0,182.63177,110.25773Z"/><circle class="cls-3" cx="215.80941" cy="94.7748" r="6.16988"/><circle class="cls-3" cx="215.80941" cy="113.28443" r="6.16988"/><polygon class="cls-3" points="187.638 93.727 187.638 87.441 211.153 73.704 211.153 83.832 220.583 83.832 220.583 73.704 244.098 87.441 244.098 93.727 253.877 93.727 253.877 82.086 225.239 65.672 244.214 54.612 235.018 49.257 234.785 49.257 215.81 60.2 196.951 49.257 196.718 49.257 187.521 54.612 206.497 65.672 201.374 68.582 177.743 82.086 177.743 93.611 177.743 93.727 187.638 93.727"/><polygon class="cls-3" points="196.951 158.685 215.81 147.743 234.785 158.685 235.018 158.685 244.214 153.33 225.123 142.388 253.877 125.857 253.877 114.216 244.098 114.216 244.098 120.502 220.583 134.239 220.583 124.227 211.153 124.227 211.153 134.239 187.638 120.502 187.638 114.216 184.029 114.216 177.743 114.216 177.743 125.741 177.743 125.857 206.497 142.388 198.813 146.811 187.521 153.33 196.718 158.685 196.951 158.685"/><g id="svg_12" data-name="svg 12"><path d="M32.87606,235.14342a5.20433,5.20433,0,0,0-3.08381-3.80652,7.59479,7.59479,0,0,0-3.04783-.59518,6.62516,6.62516,0,0,0-5.27566,2.42159,10.98268,10.98268,0,0,0-2.06514,7.28111q0,4.8955,2.236,6.92957a7.34863,7.34863,0,0,0,5.08681,2.03407,6.59287,6.59287,0,0,0,4.57992-1.604,6.92078,6.92078,0,0,0,2.20084-4.20221H27.35755v-4.43767H38.43047v14.26627h-3.679l-.55923-3.31926a12.72887,12.72887,0,0,1-2.886,2.65868,10.18406,10.18406,0,0,1-5.41056,1.34569,11.24415,11.24415,0,0,1-8.65623-3.65936A13.94512,13.94512,0,0,1,13.7224,240.4003a14.74763,14.74763,0,0,1,3.55308-10.3453,12.10737,12.10737,0,0,1,9.39612-3.89318,12.29187,12.29187,0,0,1,8.14363,2.56875,9.56185,9.56185,0,0,1,3.52528,6.41287Z"/><path d="M59.71215,251.02517a9.14654,9.14654,0,0,1-7.55662,3.07244,9.14828,9.14828,0,0,1-7.55745-3.07244,12.19675,12.19675,0,0,1,0-14.76661,9.08772,9.08772,0,0,1,7.55745-3.11814,9.08607,9.08607,0,0,1,7.55662,3.11814A12.19358,12.19358,0,0,1,59.71215,251.02517ZM55.60068,248.185a9.17866,9.17866,0,0,0,0-9.10425,4.56746,4.56746,0,0,0-6.93447,0,9.11451,9.11451,0,0,0,0,9.10425,4.55233,4.55233,0,0,0,6.93447,0Z"/><path d="M82.27412,251.02517a9.14653,9.14653,0,0,1-7.55662,3.07244,9.14654,9.14654,0,0,1-7.55662-3.07244,12.19675,12.19675,0,0,1,0-14.76661,9.08607,9.08607,0,0,1,7.55662-3.11814,9.08607,9.08607,0,0,1,7.55662,3.11814A12.19674,12.19674,0,0,1,82.27412,251.02517ZM78.16185,248.185a9.17866,9.17866,0,0,0,0-9.10425,4.56747,4.56747,0,0,0-6.93447,0,9.11982,9.11982,0,0,0,0,9.10425,4.55233,4.55233,0,0,0,6.93447,0Z"/><path d="M98.16732,233.75358a6.17952,6.17952,0,0,1,3.02576,2.85v-2.83207h5.014v18.64835a10.44733,10.44733,0,0,1-1.28029,5.73594q-2.20126,3.31844-8.44121,3.31762a11.50045,11.50045,0,0,1-6.14962-1.47813,5.45773,5.45773,0,0,1-2.63332-4.418h5.59044a2.3221,2.3221,0,0,0,.70391,1.29827,4.34036,4.34036,0,0,0,2.79521.70309,3.75513,3.75513,0,0,0,3.715-1.85748,9.41606,9.41606,0,0,0,.61316-4.00437v-1.2623a6.25473,6.25473,0,0,1-1.58606,1.89345,6.38519,6.38519,0,0,1-3.98638,1.17237,7.54029,7.54029,0,0,1-6.0507-2.66031,10.74983,10.74983,0,0,1-2.2638-7.20426,12.15816,12.15816,0,0,1,2.17959-7.36777,7.19732,7.19732,0,0,1,6.17824-2.98406A6.78211,6.78211,0,0,1,98.16732,233.75358Zm1.75038,14.09464a6.31744,6.31744,0,0,0,1.2394-4.33629,6.66394,6.66394,0,0,0-1.17646-4.25786,3.84171,3.84171,0,0,0-3.15248-1.46015,3.71287,3.71287,0,0,0-3.71659,2.54259,9.04644,9.04644,0,0,0-.5396,3.33725,7.63839,7.63839,0,0,0,.57474,3.04783,3.7451,3.7451,0,0,0,3.73547,2.48863,3.94369,3.94369,0,0,0,3.03552-1.362Z"/><path d="M116.25238,253.43041h-5.14V226.84683h5.13993Z"/><path d="M134.07662,234.17053a7.9959,7.9959,0,0,1,3.39693,2.90721,9.66344,9.66344,0,0,1,1.56643,4.06487,25.15119,25.15119,0,0,1,.16922,3.90136H124.89138a4.718,4.718,0,0,0,2.05532,4.14826,5.21684,5.21684,0,0,0,2.83445.73907,3.98828,3.98828,0,0,0,3.912-2.25481H138.941a6.41653,6.41653,0,0,1-1.90561,3.55308,9.5492,9.5492,0,0,1-7.39558,2.868,10.71742,10.71742,0,0,1-6.92466-2.41832q-2.99958-2.41832-2.99958-7.87139a10.63878,10.63878,0,0,1,2.70856-7.83214,9.47269,9.47269,0,0,1,7.02931-2.72735A11.182,11.182,0,0,1,134.07662,234.17053Zm-7.68908,4.4393a5.33737,5.33737,0,0,0-1.37022,3.04293H133.873a4.28359,4.28359,0,0,0-1.3694-3.10506,4.50658,4.50658,0,0,0-3.04865-1.06118,4.07978,4.07978,0,0,0-3.06743,1.12332Z"/><path d="M155.02474,229.62331a10.94307,10.94307,0,0,1,8.17143-3.28173q6.63688,0,9.70679,4.40006a9.59847,9.59847,0,0,1,1.81986,4.9609h-5.55526a7.55992,7.55992,0,0,0-1.36125-2.886,6.03146,6.03146,0,0,0-9.08136.71127,11.942,11.942,0,0,0-1.71359,6.91649,10.47951,10.47951,0,0,0,1.80842,6.70073,5.66778,5.66778,0,0,0,4.59627,2.227,5.20529,5.20529,0,0,0,4.35755-1.91144,8.39214,8.39214,0,0,0,1.37594-3.0838H174.668a11.97614,11.97614,0,0,1-3.64873,7.07018,10.62268,10.62268,0,0,1-7.51984,2.7225,11.28208,11.28208,0,0,1-8.92111-3.679,17.43885,17.43885,0,0,1,.44638-20.86718Z"/><path d="M183.99223,253.43041h-5.13914V226.84683h5.13914Z"/><path d="M205.40061,251.02517a10.83016,10.83016,0,0,1-15.11407,0,12.19674,12.19674,0,0,1,0-14.76661,10.71656,10.71656,0,0,1,15.11407,0A12.19674,12.19674,0,0,1,205.40061,251.02517Zm-4.11228-2.84017a9.17872,9.17872,0,0,0,0-9.10425,4.56751,4.56751,0,0,0-6.93447,0,9.11457,9.11457,0,0,0,0,9.10425,4.55236,4.55236,0,0,0,6.93447,0Z"/><path d="M216.68941,233.77149v11.84959a6.221,6.221,0,0,0,.39569,2.5246,2.7282,2.7282,0,0,0,2.74534,1.49775,3.58707,3.58707,0,0,0,3.58905-2.1289,7.72923,7.72923,0,0,0,.50361-3.04783V233.77149h5.21107v19.65884h-4.99524v-2.778c-.04905.0605-.16842.242-.35972.54122a3.6721,3.6721,0,0,1-.68347.79466,7.14077,7.14077,0,0,1-2.32839,1.47813,7.91746,7.91746,0,0,1-2.63579.39733,5.87133,5.87133,0,0,1-5.86266-3.13771,12.048,12.048,0,0,1-.84453-5.10479V233.77149Z"/><path d="M244.55481,234.08714a6.23422,6.23422,0,0,1,2.25317,2.17305v-9.37732h5.21271v26.54753h-4.99524v-2.72416a7.26381,7.26381,0,0,1-2.50661,2.54422,7.05046,7.05046,0,0,1-3.49912.793,7.3048,7.3048,0,0,1-5.79808-2.78622,10.69821,10.69821,0,0,1-2.35455-7.15194,12.309,12.309,0,0,1,2.31858-7.91717,7.53869,7.53869,0,0,1,6.19377-2.88432A6.341,6.341,0,0,1,244.55481,234.08714Zm1.2623,14.00466a7.17337,7.17337,0,0,0,1.1364-4.20221,6.44157,6.44157,0,0,0-1.8215-5.15711,3.91876,3.91876,0,0,0-2.59818-.93855,3.61112,3.61112,0,0,0-3.30945,1.70378,9.18841,9.18841,0,0,0,.01962,8.58593,3.62779,3.62779,0,0,0,3.25385,1.63183A3.79494,3.79494,0,0,0,245.8171,248.0918Z"/><path d="M282.947,227.424a8.77918,8.77918,0,0,1,4.52924,3.37158,11.81742,11.81742,0,0,1,1.89508,4.29215,20.61435,20.61435,0,0,1,.50525,4.4017,17.664,17.664,0,0,1-2.1289,8.98162,9.61222,9.61222,0,0,1-8.91622,4.95927H267.3694V226.84678h11.46207A13.99415,13.99415,0,0,1,282.947,227.424Zm-10.18506,4.0387v17.35008h5.12932a5.5405,5.5405,0,0,0,5.49231-3.87683,13.66683,13.66683,0,0,0,.84862-5.06882,12.45974,12.45974,0,0,0-1.27375-6.22974q-1.27293-2.17309-5.06718-2.17469Z"/><path d="M301.41387,241.4729a8.034,8.034,0,0,0,2.05369-.45129,1.5462,1.5462,0,0,0,1.1086-1.46015,1.72684,1.72684,0,0,0-.85025-1.66781,5.36548,5.36548,0,0,0-2.49517-.4611,3.27473,3.27473,0,0,0-2.61453.90258,3.70723,3.70723,0,0,0-.73089,1.80352h-4.9609a7.52837,7.52837,0,0,1,1.4487-4.23819q2.048-2.59736,7.02931-2.59654a12.53683,12.53683,0,0,1,5.76047,1.28029,4.91085,4.91085,0,0,1,2.51642,4.83336v9.01759q0,.93691.036,2.27116a2.85733,2.85733,0,0,0,.3074,1.37185,1.84689,1.84689,0,0,0,.75705.59518v.75705h-5.59042a5.69979,5.69979,0,0,1-.32539-1.11846q-.09075-.52238-.14389-1.19035a10.56047,10.56047,0,0,1-2.46737,1.96539,7.44928,7.44928,0,0,1-3.77218.95654,6.51232,6.51232,0,0,1-4.436-1.52392,5.41871,5.41871,0,0,1-1.7512-4.31994,5.594,5.594,0,0,1,2.81565-5.247,12.57467,12.57467,0,0,1,4.54232-1.26393Zm3.14274,2.3987a5.64477,5.64477,0,0,1-.99578.49544,8.39457,8.39457,0,0,1-1.38.35318l-1.1691.21583a7.71853,7.71853,0,0,0-2.36436.70309,2.34822,2.34822,0,0,0-1.21325,2.18286,2.275,2.275,0,0,0,.74234,1.90162,2.81617,2.81617,0,0,0,1.80188.587,5.37394,5.37394,0,0,0,3.10506-.97447,4.12077,4.12077,0,0,0,1.47323-3.55308Z"/><path d="M312.15,237.61411v-3.661H314.892V228.469h5.08681v5.48414h3.19172v3.661h-3.19172v10.38781a2.339,2.339,0,0,0,.30576,1.50593,3.37921,3.37921,0,0,0,1.87546.29759q.23545,0,.49544-.00981c.175-.00491.34659-.01472.51506-.02616v3.84086l-2.43467.08993a6.52638,6.52638,0,0,1-4.97889-1.2623,3.76262,3.76262,0,0,1-.865-2.7225V237.61411Z"/><path d="M334.25655,241.4729a8.01948,8.01948,0,0,0,2.05205-.45129,1.5462,1.5462,0,0,0,1.1086-1.46015,1.72407,1.72407,0,0,0-.85025-1.66781,5.35616,5.35616,0,0,0-2.49517-.4611,3.27473,3.27473,0,0,0-2.61453.90258,3.72292,3.72292,0,0,0-.73089,1.80352H325.7671a7.51613,7.51613,0,0,1,1.4487-4.23819q2.04551-2.59736,7.02767-2.59654a12.53683,12.53683,0,0,1,5.76047,1.28029,4.90914,4.90914,0,0,1,2.51806,4.83336v9.01759q0,.93691.036,2.27116a2.86126,2.86126,0,0,0,.30576,1.37185,1.85285,1.85285,0,0,0,.75869.59518v.75705h-5.59205a5.57719,5.57719,0,0,1-.32375-1.11846q-.09075-.52238-.14389-1.19035a10.56978,10.56978,0,0,1-2.469,1.96539,7.44489,7.44489,0,0,1-3.77218.95654,6.51518,6.51518,0,0,1-4.436-1.52392,5.41771,5.41771,0,0,1-1.74956-4.31994,5.594,5.594,0,0,1,2.81565-5.247,12.57467,12.57467,0,0,1,4.54232-1.26393Zm3.14274,2.3987a5.60478,5.60478,0,0,1-.99741.49544,8.35115,8.35115,0,0,1-1.38.35318l-1.1691.21583a7.70535,7.70535,0,0,0-2.36272.70309,2.34953,2.34953,0,0,0-1.21488,2.18286,2.275,2.275,0,0,0,.74234,1.90162,2.81767,2.81767,0,0,0,1.80352.587,5.36886,5.36886,0,0,0,3.10343-.97447,4.12137,4.12137,0,0,0,1.47486-3.55308Z"/><path d="M355.14663,226.60328c.26489.018.62453.04415,1.08244.08176v4.18252q-.43412-.054-1.452-.08012a1.67141,1.67141,0,0,0-1.40782.45129,1.63683,1.63683,0,0,0-.38752,1.05464V233.953H356.355v3.62495h-3.37319v15.85232h-5.10316V237.57794h-2.886V233.953H347.805v-1.2623a6.64625,6.64625,0,0,1,1.06445-4.34774q1.11849-1.76591,5.39257-1.76755C354.58742,226.57548,354.88174,226.58529,355.14663,226.60328Z"/><path d="M364.56155,253.43041h-5.14076V226.84683h5.14076Z"/><path d="M385.96832,251.02517a10.82916,10.82916,0,0,1-15.11326,0,12.19674,12.19674,0,0,1,0-14.76661,10.71557,10.71557,0,0,1,15.11326,0A12.19674,12.19674,0,0,1,385.96832,251.02517ZM381.856,248.185a9.17872,9.17872,0,0,0,0-9.10425,4.56749,4.56749,0,0,0-6.93447,0,9.12514,9.12514,0,0,0,0,9.10425,4.55236,4.55236,0,0,0,6.93447,0Z"/><path d="M401.407,233.77149H406.618l2.99387,14.15836,3.0674-14.15836h5.355l-5.69833,19.65884h-5.28465l-3.0838-14.32023-3.11978,14.32023h-5.33856l-5.51847-19.65884h5.51847l3.06582,14.1044Z"/></g></svg>