<svg id="Layer_1" data-name="Layer 1" xmlns="http://www.w3.org/2000/svg" viewBox="0 0 450 262.07999"><defs><style>.cls-1{fill:#fff;}.cls-2{fill:#4285f4;}.cls-3{opacity:0.07;}.cls-3,.cls-4{isolation:isolate;}</style></defs><title>google-container-registry</title><polygon class="cls-1" points="189.488 152.026 198.836 142.679 184.931 128.658 184.931 85.192 198.836 71.171 189.488 61.824 170.91 80.519 170.91 133.331 189.488 152.026"/><circle class="cls-1" cx="203.97661" cy="106.92505" r="6.66001"/><circle class="cls-1" cx="223.72299" cy="106.92505" r="6.66001"/><circle class="cls-1" cx="243.58621" cy="106.92505" r="6.66001"/><polygon class="cls-1" points="257.841 61.824 248.611 71.171 262.514 85.192 262.514 128.658 248.611 142.679 257.841 152.026 276.536 133.331 276.536 80.519 257.841 61.824"/><path class="cls-2" d="M333.69326,97.12788,287.22552,16.402A20.76033,20.76033,0,0,0,269.80012,5.9705h-92.817A20.25523,20.25523,0,0,0,159.55777,16.402L113.09,96.8908a20.36586,20.36586,0,0,0,0,20.15183l46.46775,81.2a20.95478,20.95478,0,0,0,17.4254,10.78716h92.93549a20.73743,20.73743,0,0,0,17.4254-10.66861l46.46774-80.72585A20.45133,20.45133,0,0,0,333.69326,97.12788ZM287.22552,198.24264a20.73745,20.73745,0,0,1-17.4254,10.66861H245.49938L194.52711,157.939l11.49839-6.63826L184.56974,129.9635l.11854-.11854V118.10948h6.28263l-5.927-5.927v-.11853a6.61715,6.61715,0,0,1-1.7781-4.386,6.48346,6.48346,0,0,1,5.57138-6.28263l-4.26744-4.26744.11854-.11854V85.3924l24.06366-13.75066L194.52711,57.41693l9.36467-5.45285h.23708l19.2035,11.14278,19.2035-11.14278h.23708l9.36467,5.45285L325.751,131.03037Z"/><path class="cls-2" d="M232.93412,68.67824,262.21354,85.3924v11.854H252.13762V90.96379L228.19251,76.976V87.289h-9.60176V76.976L194.64564,90.96379v6.28263h-9.95738v-.11854l-.11854.11854,4.26744,4.26744c.23708,0,.47416-.11854.71124-.11854a6.28263,6.28263,0,1,1,0,12.56526,6.47712,6.47712,0,0,1-4.50453-1.89664v.11854l5.927,5.927h3.67474v6.28263l23.94512,13.98774V128.18542h9.60176v10.19445l23.94511-13.98774V118.1095h10.07591v11.854l-29.27942,16.8327,19.44058,11.26132L243.01,163.51038H242.773l-19.2035-11.14277L204.366,163.51038h-.23708l-9.36467-5.45285,50.97226,50.97227H270.0372a20.73743,20.73743,0,0,0,17.4254-10.66861l38.64408-67.21227L252.49325,57.53547Zm-9.48321,54.88409a6.28263,6.28263,0,1,1,6.28263-6.28263A6.32425,6.32425,0,0,1,223.45091,123.56233Zm0-18.96643a6.28263,6.28263,0,1,1,6.28263-6.28263A6.32425,6.32425,0,0,1,223.45091,104.59591Zm33.78395,9.48321a6.28263,6.28263,0,1,1,6.28263-6.28263A6.32425,6.32425,0,0,1,257.23485,114.07912Z"/><g class="cls-3"><path d="M232.93412,68.67824,262.21354,85.3924v11.854H252.13762V90.96379L228.19251,76.976V87.289h-9.60176V76.976L194.64564,90.96379v6.28263h-9.95738v-.11854l-.11854.11854,4.26744,4.26744c.23708,0,.47416-.11854.71124-.11854a6.28263,6.28263,0,1,1,0,12.56526,6.47712,6.47712,0,0,1-4.50453-1.89664v.11854l5.927,5.927h3.67474v6.28263l23.94512,13.98774V128.18542h9.60176v10.19445l23.94511-13.98774V118.1095h10.07591v11.854l-29.27942,16.8327,19.44058,11.26132L243.01,163.51038H242.773l-19.2035-11.14277L204.366,163.51038h-.23708l-9.36467-5.45285,50.97226,50.97227H270.0372a20.73743,20.73743,0,0,0,17.4254-10.66861l38.64408-67.21227L252.49325,57.53547Zm-9.48321,54.88409a6.28263,6.28263,0,1,1,6.28263-6.28263A6.32425,6.32425,0,0,1,223.45091,123.56233Zm0-18.96643a6.28263,6.28263,0,1,1,6.28263-6.28263A6.32425,6.32425,0,0,1,223.45091,104.59591Zm33.78395,9.48321a6.28263,6.28263,0,1,1,6.28263-6.28263A6.32425,6.32425,0,0,1,257.23485,114.07912Z"/></g><polygon class="cls-2" points="184.688 129.964 184.688 129.845 184.57 129.964 206.026 151.301 213.968 146.796 184.688 129.964"/><g class="cls-3"><polygon points="184.688 129.964 184.688 129.845 184.57 129.964 206.026 151.301 213.968 146.796 184.688 129.964"/></g><polygon class="cls-2" points="194.527 57.417 208.752 71.642 213.849 68.678 194.527 57.417"/><polygon class="cls-3" points="194.527 57.417 208.752 71.642 213.849 68.678 194.527 57.417"/><circle class="cls-1" cx="257.23485" cy="107.7965" r="6.28263"/><path class="cls-1" d="M189.54841,114.07912a6.28263,6.28263,0,1,0,0-12.56526,1.50351,1.50351,0,0,0-.71124.11854,6.29163,6.29163,0,0,0-5.57138,6.28263,6.08738,6.08738,0,0,0,1.7781,4.386A7.90949,7.90949,0,0,0,189.54841,114.07912Z"/><circle class="cls-1" cx="223.45091" cy="98.31328" r="6.28263"/><circle class="cls-1" cx="223.45091" cy="117.16117" r="6.28263"/><polygon class="cls-1" points="194.646 97.246 194.646 90.845 218.591 76.858 218.591 87.171 228.193 87.171 228.193 76.858 252.138 90.845 252.138 97.246 262.214 97.246 262.214 85.392 232.934 68.678 252.375 57.417 242.891 51.964 242.654 51.964 223.451 63.107 204.129 51.964 203.892 51.964 194.527 57.417 213.849 68.678 208.752 71.642 184.688 85.392 184.688 97.128 184.688 97.246 194.646 97.246"/><polygon class="cls-1" points="204.129 163.392 223.451 152.249 242.654 163.392 242.891 163.392 252.375 157.939 232.934 146.796 262.214 129.964 262.214 118.109 252.138 118.109 252.138 124.511 228.193 138.498 228.193 128.304 218.591 128.304 218.591 138.498 194.646 124.511 194.646 118.109 190.971 118.109 184.688 118.109 184.688 129.845 184.688 129.964 213.968 146.796 206.026 151.301 194.527 157.939 203.892 163.392 204.129 163.392"/><path class="cls-2" d="M333.81179,96.2981,287.344,15.45371a20.504,20.504,0,0,0-17.4254-10.43153H176.98316a20.504,20.504,0,0,0-17.4254,10.43153L112.97147,96.061a20.59042,20.59042,0,0,0,0,20.27037l46.46775,81.31855a20.95478,20.95478,0,0,0,17.4254,10.78716h93.054a20.73743,20.73743,0,0,0,17.4254-10.66861l46.46774-80.84439A20.673,20.673,0,0,0,333.81179,96.2981Z"/><g class="cls-3"><path d="M279.99456,74.01255l-21.69285-5.33431-3.31913,3.43767,16.71417,16.71416.11855,22.99679L237.43865,77.33168h-28.094l-17.6625-17.66249L173.07134,75.435l-6.40117,64.01169,68.99038,68.99038h34.2581a20.73743,20.73743,0,0,0,17.4254-10.66861L329.78143,123.918Z"/></g><g id="art"><polygon class="cls-1" points="209.226 93.69 223.451 101.869 237.557 93.69 237.557 77.332 223.451 69.152 209.226 77.332 209.226 93.69"/><polygon class="cls-1" points="228.667 127 242.891 135.179 256.998 127 256.998 110.641 242.891 102.581 228.667 110.641 228.667 127"/><polygon class="cls-1" points="189.785 127.474 204.01 135.653 218.117 127.474 218.117 111.116 204.01 102.936 189.785 111.116 189.785 127.474"/><polygon class="cls-1" points="191.564 72.116 177.457 80.295 177.457 133.164 191.564 141.343 191.564 153.79 166.907 139.565 166.907 73.894 191.564 59.669 191.564 72.116"/><polygon class="cls-1" points="255.22 72.116 269.326 80.295 269.326 133.164 255.22 141.343 255.22 153.79 279.995 139.565 279.995 73.894 255.22 59.669 255.22 72.116"/></g><g class="cls-4"><path d="M26.70869,236.93757a4.91069,4.91069,0,0,0-2.92152-3.53658,8.97952,8.97952,0,0,0-2.76776-.615,6.04975,6.04975,0,0,0-4.92045,2.30646c-1.23011,1.53764-1.84517,3.69033-1.84517,6.76562s.76882,5.228,2.1527,6.45809a6.87543,6.87543,0,0,0,4.76669,1.84517,6.09164,6.09164,0,0,0,6.30433-5.38175H21.78823V240.6279h10.3022v13.22373H28.70762l-.46129-3.07528a9.371,9.371,0,0,1-2.614,2.46024,10.31816,10.31816,0,0,1-5.07422,1.23012,10.13516,10.13516,0,0,1-7.99574-3.38281c-2.1527-2.30646-3.229-5.38175-3.229-9.37963a14.178,14.178,0,0,1,3.229-9.68715,11.04951,11.04951,0,0,1,8.76456-3.69033,10.861,10.861,0,0,1,7.53445,2.46024,8.38706,8.38706,0,0,1,3.229,5.99679H26.70869Z"/><path d="M51.61849,251.69894c-1.53764,1.84517-3.8441,2.92151-7.07315,2.92151-3.07528,0-5.53551-.92259-7.07315-2.92151a10.73247,10.73247,0,0,1-2.30646-6.91939,11.035,11.035,0,0,1,2.30646-6.91939c1.53764-1.99894,3.8441-2.92151,7.07315-2.92151,3.07528,0,5.53551.92259,7.07315,2.92151a10.73247,10.73247,0,0,1,2.30646,6.91939A10.44311,10.44311,0,0,1,51.61849,251.69894Zm-3.69034-2.614a6.86055,6.86055,0,0,0,1.07635-4.3054,7.15644,7.15644,0,0,0-1.07635-4.3054,4.08714,4.08714,0,0,0-3.229-1.53764,3.67963,3.67963,0,0,0-3.229,1.53764,9.149,9.149,0,0,0,0,8.6108,3.67963,3.67963,0,0,0,3.229,1.53764A4.08721,4.08721,0,0,0,47.92815,249.085Z"/><path d="M72.68419,251.69894c-1.53764,1.84517-3.8441,2.92151-7.07315,2.92151-3.07528,0-5.53551-.92259-7.07315-2.92151a10.73247,10.73247,0,0,1-2.30646-6.91939,11.035,11.035,0,0,1,2.30646-6.91939c1.53764-1.99894,3.8441-2.92151,7.07315-2.92151,3.07528,0,5.53551.92259,7.07315,2.92151a10.73247,10.73247,0,0,1,2.30646,6.91939A10.44311,10.44311,0,0,1,72.68419,251.69894Zm-3.8441-2.614a6.86055,6.86055,0,0,0,1.07635-4.3054,7.15644,7.15644,0,0,0-1.07635-4.3054,4.15932,4.15932,0,0,0-6.45809,0,6.86055,6.86055,0,0,0-1.07635,4.3054A7.15644,7.15644,0,0,0,62.382,249.085a4.08714,4.08714,0,0,0,3.229,1.53764A4.61868,4.61868,0,0,0,68.84008,249.085Z"/><path d="M87.44555,235.5537a5.10624,5.10624,0,0,1,2.76775,2.614v-2.614h4.61293v17.37536a10.313,10.313,0,0,1-1.23011,5.38175c-1.38388,1.99894-3.99787,3.07528-7.842,3.07528a10.3884,10.3884,0,0,1-5.68928-1.38387,5.362,5.362,0,0,1-2.46022-4.15163h5.38174a2.316,2.316,0,0,0,.61506,1.23012,3.8461,3.8461,0,0,0,2.614.615c1.6914,0,2.92152-.615,3.38281-1.69142a10.03984,10.03984,0,0,0,.61506-3.69033V251.0839a4.16271,4.16271,0,0,1-1.53764,1.69142,5.55465,5.55465,0,0,1-3.69034,1.07634,7.2424,7.2424,0,0,1-5.68928-2.46024,10.19065,10.19065,0,0,1-2.1527-6.76562,11.17446,11.17446,0,0,1,1.99893-6.91939,6.66131,6.66131,0,0,1,5.68928-2.76776C85.90791,235.24618,86.83049,235.39993,87.44555,235.5537Zm1.6914,13.22371a5.6374,5.6374,0,0,0,1.23011-3.99788,6.18545,6.18545,0,0,0-1.07635-3.99788,3.57116,3.57116,0,0,0-2.92152-1.38387,3.32914,3.32914,0,0,0-3.38281,2.30646,8.63847,8.63847,0,0,0-.46129,3.07528,7.44881,7.44881,0,0,0,.46129,2.76776,3.51915,3.51915,0,0,0,3.53658,2.30646A3.08492,3.08492,0,0,0,89.137,248.77741Z"/><path d="M104.35961,254.00541H99.59293v-24.756h4.76669Z"/><path d="M120.81238,236.015a9.15471,9.15471,0,0,1,3.229,2.76776,7.696,7.696,0,0,1,1.38388,3.8441,22.90047,22.90047,0,0,1,.15376,3.69033H112.20159a4.46017,4.46017,0,0,0,1.84517,3.8441,4.71171,4.71171,0,0,0,2.614.615,4.39794,4.39794,0,0,0,2.614-.76882,3.70056,3.70056,0,0,0,.92258-1.23012h4.92045a5.85945,5.85945,0,0,1-1.84517,3.22906c-1.6914,1.84517-3.99787,2.614-6.91939,2.614a9.78194,9.78194,0,0,1-6.45809-2.30646q-2.76775-2.30646-2.76776-7.38069c0-3.22906.76882-5.53552,2.46022-7.22691a8.81387,8.81387,0,0,1,6.61187-2.46024A8.32426,8.32426,0,0,1,120.81238,236.015Zm-7.07315,4.15163a5.69573,5.69573,0,0,0-1.23012,2.76776h8.30327a3.68948,3.68948,0,0,0-3.99788-3.8441C115.27687,239.09028,114.35429,239.39781,113.73923,240.16663Z"/><path d="M140.34044,231.7096a10.19757,10.19757,0,0,1,7.53445-3.07528c4.15163,0,7.07315,1.38387,9.07209,4.15163a8.12779,8.12779,0,0,1,1.6914,4.61293h-5.228a5.89623,5.89623,0,0,0-1.23012-2.614,5.13183,5.13183,0,0,0-4.15163-1.53764,4.94947,4.94947,0,0,0-4.3054,2.30646c-1.07634,1.53764-1.53764,3.69033-1.53764,6.45809a10.27719,10.27719,0,0,0,1.6914,6.30434,5.24407,5.24407,0,0,0,4.3054,1.99894,4.56885,4.56885,0,0,0,3.99787-1.84517,7.51843,7.51843,0,0,0,1.23012-2.92151h5.07422a10.988,10.988,0,0,1-3.38281,6.61187,9.928,9.928,0,0,1-7.07315,2.46024c-3.53658,0-6.30433-1.07634-8.30327-3.38281s-3.07528-5.38175-3.07528-9.37963C136.95762,237.39887,138.034,234.16981,140.34044,231.7096Z"/><path d="M177.70513,251.69894c-1.53764,1.84517-3.8441,2.92151-7.07315,2.92151-3.07528,0-5.53551-.92259-7.07315-2.92151a10.73247,10.73247,0,0,1-2.30646-6.91939,11.035,11.035,0,0,1,2.30646-6.91939c1.53764-1.99894,3.8441-2.92151,7.07315-2.92151,3.07528,0,5.53551.92259,7.07315,2.92151a10.73247,10.73247,0,0,1,2.30646,6.91939A10.44311,10.44311,0,0,1,177.70513,251.69894Zm-3.8441-2.614a6.86055,6.86055,0,0,0,1.07634-4.3054,7.15644,7.15644,0,0,0-1.07634-4.3054,4.15932,4.15932,0,0,0-6.45809,0,6.86055,6.86055,0,0,0-1.07634,4.3054,7.15644,7.15644,0,0,0,1.07634,4.3054,4.08713,4.08713,0,0,0,3.229,1.53764A4.61867,4.61867,0,0,0,173.861,249.085Z"/><path d="M198.15576,236.63c1.23012.92259,1.84517,2.614,1.84517,4.92045v12.30114h-4.92045v-11.071a7.12794,7.12794,0,0,0-.30752-2.15269,2.69364,2.69364,0,0,0-2.614-1.38387,3.40942,3.40942,0,0,0-3.38281,1.99894,7.44892,7.44892,0,0,0-.4613,2.76776v9.8409h-4.76669V235.55373h4.61293v2.614a8.00379,8.00379,0,0,1,1.6914-1.99894,5.55465,5.55465,0,0,1,3.69034-1.07634A8.681,8.681,0,0,1,198.15576,236.63Z"/><path d="M202.46116,239.244v-3.38281h2.614V230.787h4.7667v5.07422h2.92151V239.244h-2.92151v9.68715a2.21352,2.21352,0,0,0,.30752,1.38387,3.13212,3.13212,0,0,0,1.69142.30752h.92259v3.53658l-2.30646.15377c-2.30646.15377-3.8441-.30752-4.61293-1.23012a3.91245,3.91245,0,0,1-.76882-2.46024V239.39778h-2.614Z"/><path d="M223.06558,242.78062a7.66673,7.66673,0,0,0,1.84517-.4613,1.64158,1.64158,0,0,0,1.07634-1.38387,1.69669,1.69669,0,0,0-.76882-1.53764,4.32142,4.32142,0,0,0-2.30646-.4613,3.61064,3.61064,0,0,0-2.46024.76882,2.79836,2.79836,0,0,0-.615,1.69142H215.2236a8.27286,8.27286,0,0,1,1.38387-3.99788c1.23012-1.53764,3.38281-2.46024,6.61187-2.46024a12.06275,12.06275,0,0,1,5.38175,1.23012c1.53764.76882,2.30646,2.30646,2.30646,4.45915v10.60972a1.98711,1.98711,0,0,0,.30752,1.23012,3.3538,3.3538,0,0,0,.76882.615v.76882h-5.228a2.8505,2.8505,0,0,1-.30752-1.07634c0-.30752-.15377-.76882-.15377-1.07634a6.80784,6.80784,0,0,1-2.30646,1.84517,6.73948,6.73948,0,0,1-3.53658.92259,6.15421,6.15421,0,0,1-4.15163-1.38387,5.09713,5.09713,0,0,1-1.69142-3.99788,5.37867,5.37867,0,0,1,2.614-4.92045,11.11594,11.11594,0,0,1,4.15163-1.23012Zm2.92151,2.30646-.92259.4613c-.30752.15377-.76882.15377-1.23012.30752l-1.07634.15377a9.53539,9.53539,0,0,0-2.15269.615,2.08594,2.08594,0,0,0-1.07634,1.99894,2.45106,2.45106,0,0,0,.615,1.84517,3.22438,3.22438,0,0,0,1.69142.615,5.0624,5.0624,0,0,0,2.92151-.92259c.92259-.615,1.38387-1.69142,1.38387-3.38281v-1.69139Z"/><path d="M239.82587,233.401h-4.92045v-4.45915h4.92045Zm-4.7667,2.30646h4.92045v18.29793h-4.92045Z"/><path d="M259.20017,236.63c1.23012.92259,1.84517,2.614,1.84517,4.92045v12.30114h-4.92045v-11.071a7.12832,7.12832,0,0,0-.30752-2.15269,2.69363,2.69363,0,0,0-2.614-1.38387,3.40942,3.40942,0,0,0-3.38281,1.99894,7.44892,7.44892,0,0,0-.4613,2.76776v9.8409h-4.7667V235.55373h4.61293v2.614a8.00329,8.00329,0,0,1,1.69142-1.99894,5.55464,5.55464,0,0,1,3.69033-1.07634A7.83978,7.83978,0,0,1,259.20017,236.63Z"/><path d="M277.34432,236.015a9.15485,9.15485,0,0,1,3.22906,2.76776,7.69584,7.69584,0,0,1,1.38387,3.8441,22.89875,22.89875,0,0,1,.15377,3.69033H268.73354a4.46017,4.46017,0,0,0,1.84517,3.8441,4.71171,4.71171,0,0,0,2.614.615,4.39794,4.39794,0,0,0,2.614-.76882,3.70075,3.70075,0,0,0,.92259-1.23012h4.92045a5.85953,5.85953,0,0,1-1.84517,3.22906c-1.69142,1.84517-3.99788,2.614-6.91939,2.614a9.78192,9.78192,0,0,1-6.45809-2.30646q-2.76775-2.30646-2.76776-7.38069c0-3.22906.76882-5.53552,2.46024-7.22691a8.81389,8.81389,0,0,1,6.61187-2.46024A8.32417,8.32417,0,0,1,277.34432,236.015Zm-7.07314,4.15163a5.69584,5.69584,0,0,0-1.23012,2.76776h8.30326a3.68948,3.68948,0,0,0-3.99788-3.8441C271.80883,239.09028,270.88623,239.39781,270.27118,240.16663Z"/><path d="M294.71968,235.24618h.4613v4.92045h-1.38387c-1.99894,0-3.22906.615-3.84411,1.84517a8.57984,8.57984,0,0,0-.615,3.22906v8.76455h-4.7667V235.70748h4.61293v3.22906a8.99,8.99,0,0,1,1.99894-2.46024A5.12678,5.12678,0,0,1,294.7197,235.4C294.56593,235.24618,294.71968,235.24618,294.71968,235.24618Z"/><path d="M323.78113,229.86443a6.42238,6.42238,0,0,1,2.30646,1.69142,9.803,9.803,0,0,1,1.23012,2.15269,7.18273,7.18273,0,0,1,.4613,2.614,7.5861,7.5861,0,0,1-.92259,3.53658,5.20988,5.20988,0,0,1-2.92151,2.46024,4.62242,4.62242,0,0,1,2.46024,1.99894,8.01756,8.01756,0,0,1,.76882,3.8441v1.69142a8.85271,8.85271,0,0,0,.15377,2.30646,2.23919,2.23919,0,0,0,.92259,1.38387v.615h-5.68927a5.70585,5.70585,0,0,1-.30752-1.38387,10.15082,10.15082,0,0,1-.15377-2.15269v-2.30646a5.49938,5.49938,0,0,0-.76882-3.22906,4.43966,4.43966,0,0,0-2.92151-.76882h-5.07422v9.68715H308.251v-24.756h11.83984A8.83837,8.83837,0,0,1,323.78113,229.86443Zm-10.76349,3.69033v6.61187h5.53552a4.972,4.972,0,0,0,2.46024-.4613,2.88277,2.88277,0,0,0,1.53764-2.76776,3.30783,3.30783,0,0,0-1.38387-3.07528,4.972,4.972,0,0,0-2.46024-.4613h-5.68929Z"/><path d="M344.23175,236.015a9.15485,9.15485,0,0,1,3.22906,2.76776,7.69584,7.69584,0,0,1,1.38387,3.8441,22.89875,22.89875,0,0,1,.15377,3.69033H335.621a4.46017,4.46017,0,0,0,1.84517,3.8441,4.71171,4.71171,0,0,0,2.614.615,4.39794,4.39794,0,0,0,2.614-.76882,3.70075,3.70075,0,0,0,.92259-1.23012h4.92045a5.85953,5.85953,0,0,1-1.84517,3.22906c-1.69142,1.84517-3.99788,2.614-6.91939,2.614a9.78192,9.78192,0,0,1-6.45809-2.30646q-2.76775-2.30646-2.76776-7.38069c0-3.22906.76882-5.53552,2.46024-7.22691a8.81389,8.81389,0,0,1,6.61187-2.46024A8.32417,8.32417,0,0,1,344.23175,236.015Zm-7.07314,4.15163a5.69584,5.69584,0,0,0-1.23012,2.76776h8.30326a3.68948,3.68948,0,0,0-3.99788-3.8441C338.69625,239.09028,337.77366,239.39781,337.15861,240.16663Z"/><path d="M360.53076,235.5537a5.10629,5.10629,0,0,1,2.76776,2.614v-2.614h4.61293v17.37536a10.313,10.313,0,0,1-1.23012,5.38175c-1.38387,1.99894-3.99788,3.07528-7.842,3.07528a10.38836,10.38836,0,0,1-5.68927-1.38387,4.98469,4.98469,0,0,1-2.46024-4.15163h5.228a2.31617,2.31617,0,0,0,.615,1.23012,3.84609,3.84609,0,0,0,2.614.615c1.69142,0,2.92151-.615,3.38281-1.69142a10.04,10.04,0,0,0,.615-3.69033V251.0839a4.16283,4.16283,0,0,1-1.53764,1.69142,5.55464,5.55464,0,0,1-3.69033,1.07634,7.24238,7.24238,0,0,1-5.68927-2.46024c-1.53764-1.69142-2.15269-3.8441-2.15269-6.76562a11.17435,11.17435,0,0,1,1.99894-6.91939,6.6613,6.6613,0,0,1,5.68927-2.76776C358.99312,235.24618,359.76194,235.39993,360.53076,235.5537Zm1.53764,13.22371a5.6374,5.6374,0,0,0,1.23012-3.99788,6.18545,6.18545,0,0,0-1.07634-3.99788,3.57117,3.57117,0,0,0-2.92151-1.38387,3.32912,3.32912,0,0,0-3.38281,2.30646,8.63859,8.63859,0,0,0-.4613,3.07528,7.44892,7.44892,0,0,0,.4613,2.76776,3.51914,3.51914,0,0,0,3.53658,2.30646A3.08491,3.08491,0,0,0,362.0684,248.77741Z"/><path d="M377.29105,233.401H372.3706v-4.45915h4.92045Zm-4.76668,2.30646h4.92045v18.29793h-4.92045Z"/><path d="M385.74808,248.16236a4.28227,4.28227,0,0,0,.615,1.84517,4.50177,4.50177,0,0,0,3.22906.92259,5.1348,5.1348,0,0,0,2.30646-.4613,1.26642,1.26642,0,0,0,.76882-1.23012,1.3985,1.3985,0,0,0-.615-1.23012,23.16015,23.16015,0,0,0-5.07422-1.38387,10.07173,10.07173,0,0,1-4.45915-1.99894,3.87467,3.87467,0,0,1-1.23012-3.22906,5.45038,5.45038,0,0,1,1.99894-4.3054,8.0251,8.0251,0,0,1,5.53552-1.84517,9.83751,9.83751,0,0,1,5.5355,1.38387,5.83245,5.83245,0,0,1,2.46024,4.7667h-4.7667a2.91877,2.91877,0,0,0-.4613-1.38387,3.31633,3.31633,0,0,0-2.76776-.92259,3.40316,3.40316,0,0,0-2.15269.4613,1.33235,1.33235,0,0,0-.615,1.07634,1.36956,1.36956,0,0,0,.76882,1.23012,23.56442,23.56442,0,0,0,4.92045,1.38387,9.36655,9.36655,0,0,1,4.3054,1.99894,4.521,4.521,0,0,1,1.38387,3.38281,5.54012,5.54012,0,0,1-1.99892,4.45915c-1.38387,1.07634-3.38281,1.69142-6.30434,1.69142s-5.07422-.615-6.30434-1.84517a5.84742,5.84742,0,0,1-1.99894-4.61293h4.92045Z"/><path d="M399.27936,239.244v-3.38281h2.614V230.787h4.7667v5.07422h2.92151V239.244h-2.92151v9.68715a2.21331,2.21331,0,0,0,.30755,1.38387,3.13212,3.13212,0,0,0,1.69142.30752h.92255v3.53658l-2.30646.15377c-2.30646.15377-3.84411-.30752-4.61293-1.23012a3.9126,3.9126,0,0,1-.76882-2.46024V239.39778h-2.614Z"/><path d="M422.65149,235.24618h.46127v4.92045h-1.38387c-1.99892,0-3.22906.615-3.8441,1.84517a8.57938,8.57938,0,0,0-.615,3.22906v8.76455H412.503V235.70748H417.116v3.22906a8.99046,8.99046,0,0,1,1.99892-2.46024A5.12672,5.12672,0,0,1,422.65144,235.4C422.49771,235.24618,422.65149,235.24618,422.65149,235.24618Z"/><path d="M426.64937,257.38821h1.99892a1.396,1.396,0,0,0,1.07637-.4613,1.89692,1.89692,0,0,0,.76882-1.23012c.15377-.61507.30755-.92259.30755-1.07634L424.0354,235.5537h5.38175L433.415,249.085l3.8441-13.53125h5.0742L436.029,253.54411c-1.23009,3.53658-2.15269,5.68927-2.92151,6.45809s-2.15269,1.23012-4.30538,1.23012h-2.30646v-3.8441Z"/></g></svg>