<svg width="1311" height="317" viewBox="0 0 1311 317" fill="none" xmlns="http://www.w3.org/2000/svg">
<g clip-path="url(#clip0_5625_1650)">
<path d="M201.516 173.165C201.516 171.508 201.474 169.862 201.389 168.226C201.368 167.719 201.316 167.223 201.284 166.716C201.21 165.555 201.136 164.384 201.02 163.233C200.967 162.695 200.893 162.178 200.83 161.639C200.703 160.51 200.566 159.391 200.397 158.272C200.323 157.776 200.228 157.291 200.154 156.795C199.964 155.644 199.764 154.494 199.542 153.364C199.521 153.238 199.5 153.111 199.479 152.984C199.416 152.678 199.331 152.372 199.268 152.055C199.015 150.863 198.74 149.67 198.445 148.498C198.35 148.139 198.255 147.781 198.16 147.411C197.822 146.155 197.474 144.91 197.094 143.675C197.009 143.4 196.925 143.126 196.83 142.851C196.407 141.521 195.964 140.202 195.489 138.904C195.426 138.735 195.362 138.556 195.299 138.387C194.771 136.972 194.223 135.568 193.631 134.175C193.621 134.144 193.61 134.112 193.589 134.08C193.579 134.059 193.568 134.027 193.558 134.006C189.093 123.472 183.045 116.052 176.416 107.165L173.503 103.228L147.622 66.9082C147.622 66.9082 135.357 82.8462 118.1 102.647C136.751 49.8302 100.758 0 100.758 0L18.1018 115.651H18.1229C17.8696 116.031 17.6268 116.411 17.3735 116.781C17.3208 116.854 17.268 116.918 17.2258 116.992C17.1519 117.097 17.0885 117.213 17.0147 117.329C16.2758 118.427 15.5581 119.546 14.8614 120.675C14.7031 120.929 14.5448 121.182 14.397 121.446C13.7321 122.554 13.0882 123.673 12.4655 124.802C12.3282 125.056 12.1805 125.298 12.0538 125.552C11.3677 126.818 10.7133 128.095 10.08 129.394C10.0273 129.499 9.97447 129.605 9.9217 129.71C8.5601 132.539 7.32517 135.452 6.22745 138.418C6.09023 138.777 5.97413 139.157 5.83691 139.516C5.44638 140.603 5.07695 141.69 4.72864 142.788C4.57031 143.284 4.42254 143.78 4.27477 144.287C3.97923 145.279 3.69425 146.271 3.41982 147.274C3.27205 147.823 3.13483 148.372 2.99762 148.921C2.75485 149.902 2.52265 150.894 2.31155 151.886C2.22711 152.256 2.13211 152.625 2.05823 152.995C2.01601 153.185 1.9949 153.385 1.95268 153.575C1.74158 154.631 1.56214 155.697 1.38271 156.773C1.29827 157.27 1.20327 157.755 1.12939 158.251C0.897175 159.803 0.69663 161.365 0.52775 162.938C0.50664 163.128 0.496085 163.328 0.48553 163.518C0.348315 164.901 0.242765 166.305 0.16888 167.708C0.137215 168.289 0.12666 168.869 0.10555 169.45C0.06333 170.484 0.031665 171.519 0.02111 172.564C0.02111 172.796 0 173.039 0 173.271C0 173.693 0.031665 174.105 0.031665 174.527C0.04222 175.509 0.06333 176.49 0.10555 177.482C0.12666 178.126 0.16888 178.76 0.200545 179.393C0.23221 179.857 0.23221 180.311 0.27443 180.776C0.31665 181.367 0.390535 181.958 0.44331 182.549C0.496085 183.098 0.538305 183.636 0.601635 184.185C0.728295 185.388 0.88662 186.581 1.0555 187.763C1.10828 188.164 1.16105 188.555 1.22438 188.956C1.43548 190.275 1.66769 191.594 1.93157 192.893C1.97379 193.104 2.00545 193.325 2.04767 193.537C2.05823 193.6 2.07934 193.663 2.08989 193.726C2.38543 195.173 2.72319 196.597 3.08206 198.012C3.12428 198.16 3.15595 198.318 3.18761 198.466C3.98979 201.558 4.93974 204.598 6.0269 207.575C6.35411 208.472 6.71298 209.348 7.06129 210.235C7.27239 210.752 7.46238 211.279 7.68404 211.797C7.76848 211.997 7.84236 212.208 7.9268 212.409C8.30678 213.306 8.71843 214.182 9.13007 215.058C9.25673 215.333 9.37284 215.607 9.4995 215.871C10.0695 217.085 10.6711 218.277 11.2833 219.46C11.3361 219.576 11.3994 219.681 11.4522 219.797C13.2043 223.143 15.1253 226.394 17.2258 229.508C20.8461 234.87 24.9837 239.862 29.5434 244.422C34.1032 248.982 39.0957 253.109 44.4577 256.729C46.4842 258.101 48.5847 259.368 50.7062 260.592C50.759 260.624 50.8118 260.656 50.8645 260.687C52.0256 261.352 53.1972 261.996 54.3794 262.608C54.6327 262.735 54.886 262.872 55.1393 262.999C56.1737 263.527 57.2081 264.033 58.253 264.529C58.7175 264.751 59.1924 264.962 59.6674 265.173C60.3007 265.458 60.9235 265.764 61.5568 266.028C61.7995 266.134 62.0528 266.218 62.3062 266.324C63.0556 266.63 63.8155 266.925 64.5649 267.221C65.2088 267.474 65.8526 267.728 66.5071 267.97C67.8264 268.445 69.1564 268.899 70.4968 269.321C70.613 269.364 70.7291 269.406 70.8452 269.438C77.0832 271.38 83.5639 272.731 90.2347 273.417C90.4775 273.438 90.7097 273.459 90.9524 273.48C91.8602 273.565 92.7679 273.67 93.6862 273.733C93.9712 273.755 94.2562 273.733 94.5411 273.755C96.5888 273.881 98.647 273.966 100.737 273.966C100.98 273.966 101.222 273.945 101.465 273.945C102.046 273.945 102.626 273.913 103.207 273.902C105.254 273.85 107.281 273.744 109.297 273.575C109.751 273.533 110.215 273.512 110.669 273.47C112.949 273.248 115.197 272.931 117.424 272.562C118.058 272.456 118.702 272.34 119.335 272.224C119.894 272.118 120.454 272.034 121.013 271.918C122.66 271.58 124.296 271.2 125.911 270.789C126.28 270.694 126.639 270.577 127.008 270.472C128.887 269.965 130.745 269.395 132.581 268.783C133.225 268.572 133.88 268.361 134.513 268.129C136.339 267.485 138.144 266.799 139.917 266.039C140.075 265.975 140.234 265.891 140.392 265.828C141.036 265.553 141.68 265.247 142.313 264.962C143.812 264.287 145.279 263.569 146.736 262.82C147.358 262.503 147.992 262.197 148.604 261.859C150.24 260.972 151.844 260.022 153.427 259.051L132.719 230.015C123.082 235.63 111.904 238.86 99.9664 238.86C63.9633 238.86 34.6732 209.57 34.6732 173.566C34.6732 137.563 63.9633 108.273 99.9664 108.273C135.97 108.273 165.26 137.563 165.26 173.566C165.26 191.288 158.146 207.374 146.641 219.154L167.582 248.528C167.867 248.275 168.152 248.032 168.437 247.779L168.458 247.8C174.4 242.406 179.667 236.295 184.185 229.635C184.206 229.603 184.238 229.571 184.259 229.529C184.259 229.519 184.28 229.497 184.28 229.487C185.114 228.262 185.905 227.006 186.686 225.74C186.781 225.581 186.876 225.434 186.971 225.275C187.7 224.083 188.386 222.869 189.061 221.644C189.198 221.402 189.325 221.159 189.462 220.927C190.096 219.755 190.697 218.573 191.278 217.38C191.436 217.064 191.584 216.747 191.742 216.43C192.291 215.29 192.808 214.129 193.315 212.968C193.389 212.789 193.484 212.609 193.558 212.43C193.642 212.219 193.726 212.008 193.811 211.797C194.275 210.678 194.719 209.559 195.141 208.419C195.32 207.955 195.479 207.48 195.647 207.005C196.038 205.918 196.407 204.83 196.756 203.733C196.925 203.184 197.094 202.635 197.252 202.086C197.569 201.041 197.875 199.996 198.149 198.93C198.318 198.297 198.466 197.664 198.624 197.02C198.867 196.017 199.11 195.014 199.321 194.001C199.352 193.843 199.395 193.695 199.426 193.537C199.542 192.967 199.627 192.386 199.732 191.816C199.912 190.866 200.091 189.927 200.239 188.977C200.376 188.132 200.471 187.267 200.587 186.412C200.703 185.557 200.83 184.702 200.914 183.836C201.02 182.792 201.094 181.725 201.168 180.67C201.221 179.984 201.294 179.298 201.326 178.601C201.421 176.87 201.463 175.129 201.463 173.376C201.463 173.345 201.463 173.313 201.463 173.271C201.463 173.271 201.463 173.208 201.463 173.176L201.516 173.165ZM99.9875 125.911C73.7161 125.911 52.3422 147.284 52.3422 173.556C52.3422 199.827 73.7161 221.201 99.9875 221.201C126.259 221.201 147.633 199.827 147.633 173.556C147.633 147.284 126.259 125.911 99.9875 125.911Z" fill="url(#paint0_linear_5625_1650)"/>
<path d="M66.7076 173.799H60.5329C60.5329 152.203 78.107 134.629 99.7025 134.629V140.804C81.5057 140.804 66.7076 155.602 66.7076 173.799Z" fill="white"/>
<path d="M318.202 39.1186C318.043 46.0849 315.172 52.7134 310.19 57.6004C305.219 62.4874 298.538 65.2317 291.561 65.2633C276.393 65.2633 265.12 53.0723 265.12 38.0842C265.131 30.8752 268.002 23.9722 273.1 18.8741C278.198 13.776 285.101 10.9051 292.31 10.8945C299.403 11.1267 306.148 14.0294 311.172 19.0324L306.918 24.3944C302.939 20.6368 297.767 18.4202 292.31 18.1142C287.012 18.1142 281.935 20.2252 278.188 23.9616C274.441 27.7086 272.33 32.775 272.319 38.0737C272.066 42.9923 273.723 47.8265 276.932 51.563C280.151 55.2994 284.679 57.6532 289.587 58.1282C294.495 58.6137 299.393 57.1782 303.266 54.1384C307.15 51.0985 309.705 46.6865 310.412 41.8101H288.415V35.3716H318.18V39.108L318.202 39.1186Z" fill="black"/>
<path d="M343.344 35.4862H339.27C337.116 35.5073 335.058 36.3728 333.538 37.8927C332.018 39.4127 331.163 41.4709 331.142 43.6241V64.713H323.933V28.4671H329.854V31.4331C331.005 30.3987 332.345 29.5965 333.802 29.0899C335.259 28.5832 336.81 28.3616 338.351 28.4671H346.12L343.333 35.4862H343.344Z" fill="black"/>
<path d="M382.914 64.7131H376.634V60.0795C374.08 62.6021 370.818 64.2909 367.282 64.9137C363.747 65.5364 360.105 65.0825 356.844 63.5837C352.97 61.8316 349.814 58.8129 347.893 55.0236C345.972 51.2344 345.391 46.9068 346.267 42.7376C347.133 38.5789 349.402 34.8425 352.685 32.1404C355.967 29.4383 360.073 27.9395 364.327 27.8867C368.982 27.9078 373.447 29.7761 376.729 33.0798V28.4461H383.009L382.935 64.692L382.914 64.7131ZM375.441 49.3661C376.022 46.9913 375.811 44.4897 374.861 42.2415C373.9 39.9933 372.243 38.104 370.132 36.8796C368.021 35.6446 365.562 35.1275 363.134 35.4019C360.707 35.6763 358.427 36.7318 356.643 38.3995C354.859 40.0777 353.666 42.2732 353.234 44.6903C352.801 47.0968 353.16 49.5772 354.258 51.7727C355.355 53.9576 357.129 55.7308 359.313 56.8391C361.498 57.9368 363.979 58.3062 366.385 57.8735C368.549 57.4618 370.554 56.438 372.169 54.9392C373.784 53.4404 374.945 51.5088 375.515 49.3767H375.441V49.3661Z" fill="black"/>
<path d="M397.333 26.6213V28.6584H408.795V34.9491H397.333V64.7143H390.313V26.8112C390.313 18.8528 396.045 14.2402 403.254 14.2402H411.962L408.996 21.0799H403.264C402.505 21.0377 401.745 21.1432 401.037 21.4071C400.32 21.671 399.665 22.0615 399.116 22.5892C398.557 23.1064 398.124 23.7292 397.818 24.4258C397.512 25.1224 397.354 25.8718 397.343 26.6318L397.333 26.6213Z" fill="black"/>
<path d="M447.279 64.7135H441.168V60.0798C438.613 62.6025 435.362 64.2913 431.826 64.9246C428.29 65.5473 424.649 65.0935 421.387 63.5947C418.59 62.3703 416.142 60.4915 414.231 58.1061C412.331 55.7206 411.033 52.913 410.452 49.9259C409.967 47.2344 410.072 44.4796 410.769 41.8302C411.466 39.1915 412.732 36.7322 414.474 34.6317C416.215 32.5313 418.411 30.8425 420.881 29.6814C423.351 28.5204 426.053 27.9082 428.776 27.9082C433.431 27.9293 437.885 29.7975 441.157 33.1013V28.4676H447.448V64.7135H447.258H447.279ZM439.806 49.3665C440.386 46.9916 440.175 44.4901 439.225 42.2419C438.265 39.9937 436.608 38.1043 434.497 36.88C432.386 35.645 429.926 35.1278 427.499 35.4023C425.071 35.6767 422.791 36.7322 421.007 38.3999C419.224 40.0781 418.031 42.2736 417.598 44.6907C417.165 47.0972 417.524 49.5776 418.622 51.7731C419.72 53.9579 421.493 55.7312 423.678 56.8395C425.863 57.9372 428.343 58.3066 430.75 57.8739C432.935 57.4939 434.961 56.4911 436.576 54.9818C438.202 53.4724 439.341 51.5303 439.88 49.3771H439.806V49.3665Z" fill="black"/>
<path d="M485.921 43.4452V64.7135H478.638V43.2552C478.617 41.102 477.751 39.0437 476.231 37.5238C474.711 36.0039 472.653 35.1489 470.5 35.1278C469.434 35.1278 468.368 35.3284 467.386 35.74C466.394 36.1517 465.497 36.7427 464.747 37.5027C463.987 38.2627 463.396 39.1598 462.985 40.1414C462.584 41.1336 462.372 42.1891 462.372 43.2552V64.7135H455.163V28.4676H461.064V31.6447C463.692 29.2487 467.122 27.9188 470.679 27.9082C474.753 27.961 478.648 29.6287 481.498 32.5418C484.358 35.455 485.942 39.3709 485.921 43.4557V43.4452Z" fill="black"/>
<path d="M528.447 64.7131H522.356V60.0795C519.802 62.6021 516.541 64.2909 513.005 64.9137C509.469 65.5364 505.827 65.0825 502.555 63.5837C498.682 61.8316 495.526 58.8129 493.605 55.0236C491.684 51.2344 491.103 46.9068 491.979 42.7376C492.845 38.5789 495.114 34.8425 498.397 32.1404C501.679 29.4383 505.785 27.9395 510.028 27.8867C514.683 27.9078 519.148 29.7761 522.43 33.0798V28.4461H528.711V64.692H528.447V64.7131ZM520.974 49.3661C521.554 46.9913 521.343 44.4897 520.393 42.2415C519.433 39.9933 517.776 38.104 515.665 36.8796C513.554 35.6446 511.094 35.1275 508.667 35.4019C506.239 35.6763 503.959 36.7318 502.175 38.3995C500.392 40.0777 499.199 42.2732 498.766 44.6903C498.333 47.0968 498.692 49.5772 499.79 51.7727C500.888 53.9576 502.661 55.7308 504.846 56.8391C507.031 57.9368 509.511 58.3062 511.918 57.8735C514.103 57.4935 516.118 56.4908 517.744 54.9814C519.369 53.472 520.509 51.5299 521.048 49.3767H520.974V49.3661Z" fill="black"/>
<path d="M388.53 146.293C388.53 173.24 373.341 199.216 337.085 199.216H294.696V261.691H269.459V92.8848H337.074C373.33 92.8848 388.519 119.589 388.519 146.293H388.53ZM363.293 146.293C363.293 131.347 355.45 115.916 336.589 115.916H294.696V176.185H335.607C355.208 176.185 363.293 161.239 363.293 146.293Z" fill="black"/>
<path d="M511.538 147.273L440.492 317.304H415.012L439.51 256.792L393.944 147.273H419.91L452.736 226.9L485.562 147.273H511.527H511.538Z" fill="black"/>
<path d="M596.4 148.499L592.231 171.287C585.855 168.342 579.976 167.371 575.322 167.371C554.497 167.371 544.702 189.663 544.702 220.536V261.701H520.446V147.285H544.702V173.007C550.581 152.921 562.096 144.34 576.799 144.34C584.642 144.34 592.727 146.303 596.4 148.509V148.499Z" fill="black"/>
<path d="M595.661 204.356C595.661 168.1 623.104 144.33 655.687 144.33C688.271 144.33 715.957 168.1 715.957 204.356C715.957 240.613 688.271 264.625 655.687 264.625C623.104 264.625 595.661 240.613 595.661 204.356ZM691.944 204.356C691.944 182.307 675.288 166.876 655.687 166.876C636.087 166.876 619.674 182.307 619.674 204.356C619.674 226.406 636.087 242.09 655.687 242.09C675.288 242.09 691.944 226.659 691.944 204.356Z" fill="black"/>
<path d="M723.451 227.387H745.743C745.743 236.453 753.828 244.296 766.81 244.296C779.793 244.296 788.121 237.678 788.121 229.107C788.121 221.507 781.999 217.592 773.418 215.628L757.987 211.955C736.676 206.319 726.87 195.299 726.87 178.39C726.87 159.771 743.779 144.34 767.539 144.34C787.139 144.34 808.207 154.631 808.207 178.644H785.176C785.176 170.316 776.606 164.679 768.024 164.679C757.976 164.679 751.115 171.297 751.115 179.14C751.115 186.243 757.733 190.17 764.837 191.88L782.231 196.049C806.729 202.171 812.123 217.359 812.123 229.614C812.123 251.42 790.559 264.646 767.043 264.646C745.732 264.646 723.926 251.41 723.429 227.408L723.451 227.387Z" fill="black"/>
<path d="M820.05 204.356C820.05 168.1 848.717 144.33 881.786 144.33C900.405 144.33 916.333 151.93 926.381 163.931L910.453 178.877C903.835 171.53 893.798 166.876 882.282 166.876C860.972 166.876 844.062 182.56 844.062 204.356C844.062 226.152 860.972 242.09 882.282 242.09C893.798 242.09 903.846 237.436 910.453 230.089L926.381 245.035C916.333 257.036 900.416 264.636 881.786 264.636C848.707 264.636 820.05 240.623 820.05 204.367V204.356Z" fill="black"/>
<path d="M928.671 204.356C928.671 168.1 956.114 144.33 988.698 144.33C1021.28 144.33 1048.97 168.1 1048.97 204.356C1048.97 240.613 1021.28 264.625 988.698 264.625C956.114 264.625 928.671 240.613 928.671 204.356ZM1024.95 204.356C1024.95 182.307 1008.3 166.876 988.698 166.876C969.097 166.876 952.684 182.307 952.684 204.356C952.684 226.406 969.097 242.09 988.698 242.09C1008.3 242.09 1024.95 226.659 1024.95 204.356Z" fill="black"/>
<path d="M1185.73 204.61C1185.73 241.12 1160.01 264.636 1128.89 264.636C1112.72 264.636 1096.79 257.776 1089.2 244.793V317.316H1065.19V147.286H1089.2V164.438C1096.8 151.455 1113.46 144.352 1128.89 144.352C1159.76 144.352 1185.73 168.364 1185.73 204.621V204.61ZM1161.47 204.853C1161.47 183.289 1145.79 166.876 1125.94 166.876C1106.1 166.876 1089.43 181.822 1089.43 204.853C1089.43 227.884 1108.3 242.091 1125.94 242.091C1145.79 242.091 1161.47 226.406 1161.47 204.853Z" fill="black"/>
<path d="M1310.98 214.162H1219.84C1223.03 232.781 1236.75 242.333 1255.37 242.333C1268.6 242.333 1281.09 236.211 1287.47 225.677L1306.57 235.23C1296.52 254.345 1275.95 264.625 1254.15 264.625C1221.07 264.625 1195.1 240.37 1195.1 204.114C1195.1 167.857 1221.56 144.33 1254.15 144.33C1286.73 144.33 1311.48 167.847 1311.48 203.86C1311.48 207.048 1311.24 210.478 1310.99 214.151L1310.98 214.162ZM1287.47 194.804C1285.26 176.913 1272.04 166.633 1254.39 166.633C1236.74 166.633 1223.51 175.7 1220.08 194.804H1287.46H1287.47Z" fill="black"/>
</g>
<defs>
<linearGradient id="paint0_linear_5625_1650" x1="100.758" y1="336.008" x2="100.758" y2="7.3885" gradientUnits="userSpaceOnUse">
<stop stop-color="#FFEF00"/>
<stop offset="1" stop-color="#ED5A27"/>
</linearGradient>
<clipPath id="clip0_5625_1650">
<rect width="1311" height="317" fill="white"/>
</clipPath>
</defs>
</svg>
