<svg width="373" height="443" viewBox="0 0 373 443" fill="none" xmlns="http://www.w3.org/2000/svg">
<path d="M64.1619 324.302C64.0805 327.834 62.6247 331.195 60.104 333.669C57.5832 336.144 54.1964 337.538 50.6639 337.554C42.9779 337.554 37.2607 331.373 37.2607 323.782C37.2682 320.129 38.7226 316.628 41.3056 314.045C43.8885 311.462 47.3897 310.008 51.0426 310C54.637 310.115 58.0537 311.59 60.6028 314.127L58.4447 316.844C56.4312 314.941 53.8085 313.814 51.0426 313.663C48.3588 313.666 45.7856 314.732 43.887 316.629C41.9884 318.526 40.9195 321.098 40.9144 323.782C40.7866 326.276 41.6245 328.724 43.2543 330.616C44.884 332.509 47.1802 333.701 49.6658 333.944C52.1514 334.188 54.6353 333.465 56.6015 331.925C58.5678 330.385 59.8651 328.147 60.2241 325.675H49.0738V322.409H64.1619V324.302Z" fill="black"/>
<path d="M76.9021 322.466H74.8386C73.748 322.476 72.705 322.914 71.9347 323.686C71.1644 324.459 70.7285 325.503 70.7211 326.593V337.28H67.0674V318.907H70.0679V320.412C70.6493 319.887 71.3298 319.483 72.0694 319.225C72.809 318.966 73.5928 318.858 74.3748 318.907H78.3125L76.9021 322.466Z" fill="black"/>
<path d="M96.9591 337.28H93.7787V334.932C92.484 336.211 90.8309 337.067 89.0389 337.384C87.2469 337.702 85.4008 337.468 83.7452 336.712C81.7829 335.824 80.1821 334.293 79.2071 332.373C78.2321 330.452 77.9412 328.257 78.3824 326.149C78.8237 324.041 79.9708 322.146 81.6341 320.778C83.2975 319.41 85.3778 318.649 87.5314 318.623C89.892 318.635 92.1519 319.581 93.8166 321.255V318.907H96.997L96.9591 337.28ZM93.1729 329.499C93.4659 328.294 93.3622 327.027 92.8771 325.886C92.3919 324.746 91.5512 323.792 90.4803 323.167C89.4093 322.543 88.1653 322.281 86.9333 322.42C85.7014 322.56 84.5476 323.093 83.6434 323.941C82.7392 324.79 82.133 325.907 81.9153 327.128C81.6975 328.348 81.8797 329.606 82.4348 330.715C82.9898 331.824 83.888 332.723 84.9956 333.28C86.1033 333.837 87.3612 334.022 88.5821 333.806C89.6802 333.595 90.6967 333.079 91.5153 332.318C92.3339 331.556 92.9215 330.579 93.2108 329.499H93.1729Z" fill="black"/>
<path d="M104.267 317.97V319.002H110.079V322.192H104.267V337.28H100.708V318.065C100.708 314.032 103.614 311.694 107.268 311.694H111.679L110.174 315.159H107.268C106.884 315.137 106.5 315.193 106.138 315.324C105.777 315.456 105.446 315.659 105.165 315.922C104.885 316.184 104.66 316.502 104.506 316.854C104.352 317.206 104.27 317.586 104.267 317.97Z" fill="black"/>
<path d="M129.578 337.28H126.483V334.932C125.19 336.212 123.539 337.067 121.748 337.385C119.958 337.703 118.113 337.468 116.459 336.712C115.043 336.093 113.799 335.139 112.834 333.932C111.869 332.724 111.213 331.301 110.921 329.783C110.674 328.421 110.728 327.021 111.079 325.683C111.431 324.344 112.073 323.099 112.958 322.034C113.843 320.97 114.951 320.113 116.204 319.524C117.456 318.935 118.823 318.627 120.207 318.623C122.565 318.635 124.822 319.581 126.483 321.255V318.907H129.673V337.28H129.578ZM125.792 329.499C126.085 328.294 125.981 327.027 125.496 325.886C125.011 324.746 124.17 323.792 123.099 323.167C122.028 322.543 120.784 322.281 119.552 322.42C118.32 322.56 117.167 323.093 116.262 323.941C115.358 324.79 114.752 325.907 114.534 327.128C114.317 328.348 114.499 329.606 115.054 330.715C115.609 331.824 116.507 332.723 117.615 333.28C118.722 333.837 119.98 334.022 121.201 333.806C122.307 333.614 123.333 333.104 124.155 332.34C124.977 331.575 125.558 330.588 125.83 329.499H125.792Z" fill="black"/>
<path d="M149.163 326.499V337.28H145.471V326.404C145.462 325.313 145.023 324.27 144.251 323.5C143.479 322.73 142.435 322.294 141.344 322.286C140.803 322.284 140.266 322.389 139.766 322.595C139.265 322.801 138.81 323.104 138.427 323.487C138.045 323.87 137.741 324.324 137.535 324.825C137.329 325.326 137.224 325.862 137.227 326.404V337.28H133.573V318.907H136.564V320.516C137.897 319.301 139.635 318.626 141.439 318.623C143.505 318.651 145.477 319.494 146.924 320.969C148.371 322.445 149.176 324.432 149.163 326.499Z" fill="black"/>
<path d="M170.715 337.28H167.629V334.932C166.335 336.211 164.682 337.067 162.89 337.384C161.098 337.702 159.251 337.468 157.596 336.712C155.633 335.824 154.033 334.293 153.058 332.373C152.083 330.452 151.792 328.257 152.233 326.149C152.674 324.041 153.821 322.146 155.485 320.778C157.148 319.41 159.228 318.649 161.382 318.623C163.743 318.635 166.002 319.581 167.667 321.255V318.907H170.848V337.28H170.715ZM166.929 329.499C167.222 328.294 167.118 327.027 166.633 325.886C166.148 324.746 165.307 323.792 164.236 323.167C163.165 322.543 161.921 322.281 160.689 322.42C159.457 322.56 158.303 323.093 157.399 323.941C156.495 324.79 155.889 325.907 155.671 327.128C155.453 328.348 155.636 329.606 156.191 330.715C156.746 331.824 157.644 332.723 158.752 333.28C159.859 333.837 161.117 334.022 162.338 333.806C163.444 333.614 164.47 333.104 165.292 332.34C166.113 331.575 166.695 330.588 166.967 329.499H166.929Z" fill="black"/>
<path d="M118.01 356.11L89.01 416.85L60.1599 356.46L59.99 356.11H47.58L37 442.87H50.9099L58.2899 382.34L83.2899 433.43H94.99L119.68 382.36L127.06 442.87H140.97L130.37 356.11H118.01ZM156.56 354.74C155.417 354.684 154.275 354.861 153.202 355.26C152.13 355.659 151.15 356.272 150.321 357.061C149.492 357.851 148.833 358.8 148.382 359.852C147.931 360.903 147.699 362.036 147.699 363.18C147.699 364.324 147.931 365.457 148.382 366.508C148.833 367.56 149.492 368.509 150.321 369.299C151.15 370.088 152.13 370.7 153.202 371.1C154.275 371.499 155.417 371.676 156.56 371.62C157.703 371.676 158.845 371.499 159.918 371.1C160.99 370.7 161.97 370.088 162.799 369.299C163.627 368.509 164.287 367.56 164.738 366.508C165.189 365.457 165.421 364.324 165.421 363.18C165.421 362.036 165.189 360.903 164.738 359.852C164.287 358.8 163.627 357.851 162.799 357.061C161.97 356.272 160.99 355.659 159.918 355.26C158.845 354.861 157.703 354.684 156.56 354.74V354.74ZM149.85 442.87H163.26V383.62H149.85V442.87ZM243.41 382.17C238.33 382.17 229.13 383.66 223.47 393.36C219.88 386.36 212.9 382.17 204.56 382.17C197.07 382.17 190.37 385.58 187.06 390.88V383.66H173.66V442.87H187.06V411.05C187.06 399.23 194.95 395.05 201.71 395.05C208.71 395.05 213.25 400.8 213.25 409.7V442.84H226.78V409.24C227.52 400.59 232.87 395.04 240.45 395.04H240.68C248.18 395.04 252.84 400.65 252.84 409.69V442.83H266.37V409.11C266.37 391.95 258 382.11 243.41 382.11V382.17ZM276.05 442.87H289.45V383.62H276.05V442.87ZM282.75 354.74C281.607 354.684 280.465 354.861 279.392 355.26C278.32 355.659 277.34 356.272 276.511 357.061C275.682 357.851 275.023 358.8 274.572 359.852C274.121 360.903 273.889 362.036 273.889 363.18C273.889 364.324 274.121 365.457 274.572 366.508C275.023 367.56 275.682 368.509 276.511 369.299C277.34 370.088 278.32 370.7 279.392 371.1C280.465 371.499 281.607 371.676 282.75 371.62C287.75 371.62 291.69 367.92 291.69 363.18C291.673 362.032 291.428 360.899 290.967 359.847C290.506 358.796 289.839 357.847 289.006 357.057C288.173 356.267 287.191 355.651 286.116 355.246C285.042 354.842 283.897 354.656 282.75 354.7V354.74ZM339.27 384.37C337.14 383.1 332.84 382.17 329.02 382.17C321.77 382.17 316.52 386.03 313.38 393.66V383.66H299.85V442.87H313.38V421.35C313.38 404.63 318.81 395.04 328.27 395.04C331.146 395.078 333.981 395.736 336.58 396.97L337.3 397.3L339.63 384.55L339.27 384.37Z" fill="black"/>
<path d="M45.7019 266H99.5364L137.255 193.567L111.149 143.46L45.7019 266ZM338.505 141.415L309.069 197.913L343.543 265.169L373 208.437L338.505 141.415ZM329.561 124.116L266.718 2.17304L235.724 56.8387L300.082 180.678L329.561 124.116ZM231.668 198.68L266.718 265.957H326.487L261.51 141.266L231.668 198.68ZM102.226 126.247L72.918 69.7062L35.4984 141.671L64.2514 197.316L102.226 126.247ZM26.7466 158.799L0 211.611L29.4362 265.063L55.521 214.594L26.7466 158.799ZM225.777 73.0936L194.612 128.121L222.745 181.573L252.63 124.159L225.777 73.0936ZM108.224 0L81.3282 52.3223L185.924 252.344L213.823 198.808L160.97 97.38L108.224 0Z" fill="url(#paint0_linear_632_152)"/>
<defs>
<linearGradient id="paint0_linear_632_152" x1="186.564" y1="4.21816" x2="186.564" y2="357.053" gradientUnits="userSpaceOnUse">
<stop stop-color="#F2C144"/>
<stop offset="0.24" stop-color="#F1A03B"/>
<stop offset="0.57" stop-color="#F17A31"/>
<stop offset="0.84" stop-color="#F0632A"/>
<stop offset="1" stop-color="#F05A28"/>
</linearGradient>
</defs>
</svg>
