<?xml version="1.0" encoding="utf-8"?>
<!-- Generator: Adobe Illustrator 21.1.0, SVG Export Plug-In . SVG Version: 6.00 Build 0)  -->
<svg version="1.1" id="图层_1" xmlns="http://www.w3.org/2000/svg" xmlns:xlink="http://www.w3.org/1999/xlink" x="0px" y="0px"
	 viewBox="0 0 120.5 144.3" style="enable-background:new 0 0 120.5 144.3;" xml:space="preserve">
<style type="text/css">
	.st0{fill:#333333;}
	.st1{fill:#2281F2;}
	.st2{fill:#1FB2FD;}
	.st3{fill:#37EDD7;}
</style>
<g>
	<path class="st0" d="M15,127.3c0,0.2,0,0.6,0,1.2c0,0.6,0,1-0.1,1.2c-0.4,1.9-1.2,3.2-2.4,4.1c-1.2,0.9-2.8,1.3-4.8,1.3
		c-1.5,0-2.8-0.3-3.9-0.8c-1.2-0.5-2.1-1.4-2.7-2.6c-0.7-1.2-1-2.7-1-4.5c0-1.8,0.3-3.3,1-4.5c0.7-1.2,1.6-2,2.7-2.6
		c1.2-0.5,2.5-0.8,3.9-0.8c1,0,1.9,0.2,2.9,0.6c0.9,0.4,1.7,1,2.4,1.7c0.7,0.7,1.2,1.6,1.5,2.5h-3c-0.3-0.6-0.8-1.2-1.5-1.6
		c-0.7-0.5-1.5-0.7-2.3-0.7c-0.9,0-1.7,0.2-2.4,0.6c-0.7,0.4-1.3,1-1.7,1.8c-0.4,0.8-0.6,1.8-0.6,3c0,1.2,0.2,2.2,0.6,3
		c0.4,0.8,1,1.4,1.7,1.8c0.7,0.4,1.5,0.6,2.4,0.6c1,0,1.9-0.3,2.7-0.8c0.8-0.5,1.3-1.2,1.6-2.2H7.7v-2.4L15,127.3L15,127.3z"/>
	<path class="st0" d="M22.1,126.4c-0.7,0.2-1.3,0.5-1.8,0.9c-0.6,0.5-0.8,1.2-0.8,2.2v5.6h-2.8v-5.7c0-1,0.2-1.9,0.7-2.7
		c0.5-0.8,1.1-1.5,2-2s1.7-0.7,2.7-0.7L22.1,126.4L22.1,126.4z"/>
	<path class="st0" d="M31.2,124.8c0.6,0.4,1.1,0.8,1.4,1.4c0.4,0.6,0.5,1.3,0.5,2v7h-6.6h-0.1c-0.6,0-1.2-0.2-1.8-0.5
		c-0.5-0.3-1-0.8-1.3-1.3c-0.3-0.5-0.5-1.1-0.5-1.8c0-0.6,0.2-1.2,0.5-1.8c0.3-0.5,0.8-1,1.3-1.3c0.5-0.3,1.1-0.5,1.8-0.5h3.9
		c0-0.4-0.1-0.8-0.4-1.1c-0.3-0.3-0.6-0.4-1-0.4h-3.8v-2.3h4.2C30,124.2,30.6,124.4,31.2,124.8z M30.4,132.7v-2.6H27
		c-0.4,0-0.7,0.1-0.9,0.4c-0.2,0.3-0.4,0.6-0.4,0.9c0,0.3,0.1,0.6,0.4,0.9c0.2,0.3,0.5,0.4,0.9,0.4L30.4,132.7L30.4,132.7z"/>
	<path class="st0" d="M44.8,125.5c0.9,0.8,1.4,2.1,1.4,3.9c0,1.7-0.5,3-1.4,3.9c-0.9,0.8-2.2,1.3-3.7,1.3h-2.5v5h-2.8v-15.3h5.3
		C42.6,124.2,43.8,124.6,44.8,125.5z M41.1,132.1c0.4,0,0.7-0.1,1.1-0.3c0.4-0.2,0.6-0.5,0.9-0.9c0.2-0.4,0.3-0.9,0.3-1.5
		c0-0.6-0.1-1.1-0.3-1.5c-0.2-0.4-0.5-0.7-0.9-0.9c-0.4-0.2-0.7-0.3-1.1-0.3h-2.5v5.5L41.1,132.1L41.1,132.1z"/>
	<path class="st0" d="M51.1,124.9h2.7c0.7,0,1.3,0.2,1.8,0.5c0.6,0.3,1,0.8,1.3,1.3c0.3,0.6,0.5,1.2,0.5,1.8v6.6h-2.8V129
		c0-0.5-0.2-0.9-0.5-1.3c-0.3-0.3-0.8-0.5-1.3-0.5h-1.8v7.9h-2.8v-15.3h2.8L51.1,124.9L51.1,124.9z"/>
	<path class="st0" d="M69.8,122.3h-5.2c-0.8,0-1.4,0.2-2,0.5c-0.5,0.4-0.8,0.8-0.8,1.4c0,0.3,0.1,0.5,0.2,0.8
		c0.2,0.4,0.6,0.6,1.1,0.8c0.5,0.1,1.2,0.3,2.1,0.4c0.8,0.1,1.4,0.2,2,0.3c0.5,0.1,1,0.3,1.5,0.5c0.7,0.4,1.3,1,1.8,1.6
		c0.5,0.6,0.7,1.3,0.7,2.1c0,0.8-0.3,1.6-0.8,2.3c-0.5,0.7-1.2,1.2-2.1,1.6c-0.9,0.4-1.8,0.6-2.9,0.6h-6.1v-2.5h6.1
		c0.8,0,1.4-0.2,2-0.5c0.5-0.4,0.8-0.8,0.8-1.4c0-0.4-0.1-0.7-0.4-1c-0.3-0.3-0.6-0.5-1-0.7c-0.2-0.1-0.7-0.2-1.6-0.3l-0.9-0.1
		c-2-0.3-3.4-0.9-4.2-1.6c-0.4-0.4-0.7-0.8-0.9-1.2c-0.2-0.5-0.3-0.9-0.3-1.5c0-0.8,0.3-1.5,0.8-2.2c0.5-0.7,1.2-1.2,2.1-1.6
		c0.9-0.4,1.8-0.6,2.9-0.6h5.2L69.8,122.3L69.8,122.3z"/>
	<path class="st0" d="M81.5,124.9c0.9,0.6,1.5,1.5,1.9,2.7h-3c-0.2-0.3-0.5-0.6-0.9-0.8c-0.3-0.2-0.7-0.3-1.2-0.3
		c-0.8,0-1.5,0.3-2,0.8c-0.5,0.5-0.8,1.3-0.8,2.4c0,1,0.3,1.8,0.8,2.4c0.5,0.5,1.2,0.8,2,0.8c0.5,0,0.9-0.1,1.2-0.3
		c0.3-0.2,0.6-0.5,0.8-0.8h3c-0.4,1.2-1.1,2.1-1.9,2.7c-0.9,0.6-2,0.9-3.3,0.9c-1.6,0-3-0.5-4-1.4c-1-0.9-1.5-2.4-1.5-4.3
		c0-1.9,0.5-3.4,1.5-4.3c1-0.9,2.4-1.4,4-1.4C79.5,124,80.6,124.3,81.5,124.9z"/>
	<path class="st0" d="M93,124.8c0.8,0.5,1.4,1.2,1.9,2c0.4,0.9,0.6,1.8,0.6,2.9c0,1.1-0.2,2-0.6,2.9c-0.4,0.9-1.1,1.5-1.9,2
		s-1.8,0.8-2.9,0.8c-1.1,0-2.1-0.3-2.9-0.8c-0.8-0.5-1.4-1.2-1.9-2c-0.4-0.9-0.6-1.8-0.6-2.9c0-1.1,0.2-2,0.6-2.9
		c0.4-0.9,1.1-1.5,1.9-2c0.8-0.5,1.8-0.8,2.9-0.8C91.2,124,92.2,124.2,93,124.8z M92.1,132c0.5-0.6,0.7-1.4,0.7-2.4
		c0-1-0.2-1.8-0.7-2.4s-1.1-0.9-2-0.9c-0.9,0-1.6,0.3-2,0.9c-0.4,0.6-0.7,1.4-0.7,2.4c0,1,0.2,1.8,0.7,2.4c0.4,0.6,1.1,0.9,2,0.9
		C91,133,91.6,132.7,92.1,132z"/>
	<path class="st0" d="M106.7,125.5c0.9,0.8,1.4,2.1,1.4,3.9c0,1.7-0.5,3-1.4,3.9c-0.9,0.8-2.2,1.3-3.7,1.3h-2.5v5h-2.8v-15.3h5.3
		C104.5,124.2,105.7,124.6,106.7,125.5z M103,132.1c0.4,0,0.7-0.1,1.1-0.3c0.4-0.2,0.6-0.5,0.9-0.9c0.2-0.4,0.3-0.9,0.3-1.5
		c0-0.6-0.1-1.1-0.3-1.5c-0.2-0.4-0.5-0.7-0.9-0.9c-0.4-0.2-0.7-0.3-1.1-0.3h-2.5v5.5L103,132.1L103,132.1z"/>
	<path class="st0" d="M117.7,124.6c0.8,0.4,1.5,1,2,1.8c0.5,0.8,0.8,1.9,0.8,3.2v1.4h-8.1c0.3,1.2,1.1,1.8,2.4,1.8h4v2.4h-3.9
		c-1.7,0-3-0.5-4.1-1.4c-1-0.9-1.5-2.3-1.5-4.2c0-1.3,0.3-2.3,0.8-3.1c0.5-0.8,1.2-1.4,2-1.8c0.8-0.4,1.8-0.6,2.8-0.6
		C115.9,124,116.9,124.2,117.7,124.6z M117.7,128.7c-0.1-0.7-0.3-1.3-0.8-1.7c-0.5-0.4-1.1-0.6-1.9-0.6c-0.8,0-1.5,0.2-1.9,0.6
		c-0.4,0.4-0.7,1-0.8,1.7H117.7z"/>
</g>
<g>
	<path class="st1" d="M60.2,45.1l0-9.3l2.9-2l6.4-4.4l0-6.1l-14.1,9.4c-2.8,1.9-4.9,3.9-6.4,5.8v0.2L60.2,45.1z"/>
	<g>
		<path class="st1" d="M35.9,37.4c2.9-6.3,11.6-13,11.6-13l28.8-19l-11.2-6L43.3,13.7c0,0-21.6,13.2-20,34.8
			c1.3,17,22.4,22.2,22.4,22.2C33.4,65.6,31.9,46.3,35.9,37.4z"/>
	</g>
	<path class="st2" d="M76.3,5.5l-28.8,19c0,0-8.7,6.7-11.6,13c-4.3,9.4-2.3,31,12.5,34c0,0,6.2,1.5,17.2-4.7C71.4,63.5,79,70,79,70
		c8.7-6.6,2.2-12.9-4.8-15.3C67.4,52.3,62.3,57,55,58.8s-9.3-6.5-9.3-6.5s-3.5-10.9,9.7-19.7l14.1-9.4l0,6.1l-9.4,6.5l0,9.3
		l16.4-10.9L76.3,5.5z"/>
	<path class="st3" d="M89.7,49.6c-8.2-6.8-19.5-6.3-28.5-3.5c-4.9,1.5-15.6,6.2-15.6,6.2s0.1,0.6,0.5,1.4c0.1,0.2,0.1,0.3,0.2,0.5
		c0.1,0.2,0.2,0.3,0.2,0.5c0.1,0.2,0.3,0.5,0.4,0.7c0.1,0.2,0.2,0.3,0.3,0.5c0.2,0.2,0.3,0.5,0.5,0.7c0.1,0.2,0.3,0.3,0.5,0.5
		c0.7,0.7,1.5,1.3,2.6,1.7c0.2,0.1,0.3,0.1,0.5,0.1c1,0.2,2.2,0.3,3.6-0.1c0,0,0,0,0.1,0c4.8-1.2,8.3-3.5,12-4.3
		c2.3-0.6,4.6-0.7,7.2,0.2c7,2.4,13.5,8.7,4.8,15.3l0,0l0,0L56.1,84.7l0,0l-6.3-3.7l14.1-8.6l-9.2-4.8L31.4,81.6l0,0l16.1,8.7l0,0
		l11.3,6.2l32-21.1C90.8,75.3,106,63.1,89.7,49.6z"/>
	<path class="st2" d="M97.2,62.9C97.2,62.9,97.2,62.9,97.2,62.9c0,0,0,0.1,0,0.1c-0.2,7.2-6.4,12.2-6.4,12.2l-32,21.1l0,15.2l33-23
		c5.5-3.2,5.4-10.3,5.4-10.3L97.2,62.9z"/>
	<polygon class="st1" points="63.9,72.4 63.9,72.4 63.9,72.4 49.8,81.1 56,84.7 56.2,84.7 63.9,79.7 	"/>
	<polygon class="st1" points="58.8,96.5 31.4,81.6 31.4,95.7 58.8,111.6 	"/>
</g>
</svg>
