<svg xmlns="http://www.w3.org/2000/svg" width="200" height="200" viewBox="0 0 200 200">
  <defs>
    <linearGradient id="color-a" x1="50%" x2="50%" y1="0%" y2="100%">
      <stop offset="0%" stop-color="#A5FFAF"/>
      <stop offset="100%" stop-color="#64E178"/>
    </linearGradient>
    <linearGradient id="color-b" x1="50%" x2="50%" y1="100%" y2="0%">
      <stop offset="0%" stop-color="#23C386"/>
      <stop offset="100%" stop-color="#139E83"/>
    </linearGradient>
  </defs>
  <g fill="none" fill-rule="evenodd" transform="translate(28 44)">
    <path fill="#191919" d="M15.077942,104.309836 L15.077942,98.6704263 L31.7662687,98.6704263 L31.7662687,100.654172 C31.7662687,109.276723 25.3414097,116 16.3477208,116 C6.87199307,116 0,109.079779 0,100.242826 C0,91.3727174 6.91477741,84.4856527 16.09431,84.4856527 C22.3574221,84.4856527 27.5960288,87.4788803 30.4130933,92.3466535 L30.5750714,92.6265451 L24.8346562,96.0177009 L24.6642586,95.711602 C22.8046679,92.3710712 19.9860933,90.7022724 16.1365451,90.7022724 C10.7703865,90.7022724 6.50965996,94.9743775 6.50965996,100.242826 C6.50965996,105.651041 10.7035157,109.78338 16.3477208,109.78338 C20.4185329,109.78338 23.4442576,107.82733 24.6310492,104.309836 L15.077942,104.309836 Z M47.1562057,94.2332062 C46.7202301,94.1058219 46.0662668,94.020899 45.4123034,94.020899 C43.6684012,94.020899 40.9217553,94.700282 39.7882188,97.0781224 L39.7882188,94.2332062 L33.3793782,94.2332062 L33.3793782,115.33654 L40.0062066,115.33654 L40.0062066,106.122408 C40.0062066,101.918726 42.4040721,100.390114 45.063523,100.390114 C45.7174863,100.390114 46.4150472,100.432576 47.1562057,100.602422 L47.1562057,94.2332062 Z M54.2925888,102.258418 L62.9685023,102.258418 C62.8813072,100.644883 61.7477707,98.691657 58.6087467,98.691657 C55.8185032,98.691657 54.4233814,100.687345 54.2925888,102.258418 Z M63.4235434,107.735943 L68.9604329,109.264555 C67.9140916,112.916238 64.4698848,115.973462 58.9765928,115.973462 C53.0037277,115.973462 47.684826,111.812241 47.684826,104.721181 C47.684826,97.9273511 52.8729351,93.5962846 58.4970197,93.5962846 C65.2110432,93.5962846 69.3528109,97.6301211 69.3528109,104.423951 C69.3528109,105.315641 69.2656158,106.292254 69.2220183,106.419638 L54.1372642,106.419638 C54.2680568,108.797479 56.4915322,110.495936 59.0637879,110.495936 C61.4616535,110.495936 62.8131777,109.391939 63.4235434,107.735943 Z M77.4728556,115.33654 L77.4728556,103.192569 C77.4728556,101.281805 78.7371847,99.5408857 81.0478551,99.5408857 C83.4457207,99.5408857 84.5356595,101.111959 84.5356595,103.107646 L84.5356595,115.33654 L91.0752928,115.33654 L91.0752928,103.150108 C91.0752928,101.281805 92.3396219,99.5408857 94.6938899,99.5408857 C97.0481579,99.5408857 98.1380968,101.111959 98.1380968,103.107646 L98.1380968,115.33654 L104.546937,115.33654 L104.546937,101.663958 C104.546937,95.9316636 100.623157,93.5962846 96.5249872,93.5962846 C93.603951,93.5962846 91.5112684,94.5304362 89.8109637,96.9082767 C88.7210248,94.8276663 86.4975495,93.5962846 83.4021231,93.5962846 C81.0478551,93.5962846 78.2576116,94.7852048 77.1676727,96.653508 L77.1676727,94.2332062 L70.8460272,94.2332062 L70.8460272,115.33654 L77.4728556,115.33654 Z M113.236475,115.33654 L113.236475,84.5944601 L106.609647,84.5944601 L106.609647,115.33654 L113.236475,115.33654 Z M121.751623,115.33654 L121.751623,94.2332062 L115.124794,94.2332062 L115.124794,115.33654 L121.751623,115.33654 Z M114.647938,87.7790678 C114.647938,89.8596782 116.39184,91.5581357 118.484522,91.5581357 C120.6644,91.5581357 122.408302,89.8596782 122.408302,87.7790678 C122.408302,85.6984575 120.6644,84 118.484522,84 C116.39184,84 114.647938,85.6984575 114.647938,87.7790678 Z M130.26677,103.235031 C130.26677,101.111959 131.661892,99.5408857 133.84177,99.5408857 C136.239635,99.5408857 137.373172,101.111959 137.373172,103.192569 L137.373172,115.33654 L144,115.33654 L144,102.088572 C144,97.4602753 141.558537,93.6812075 136.108843,93.6812075 C133.885367,93.6812075 131.225916,94.6578205 130.048782,96.653508 L130.048782,94.2332062 L123.639942,94.2332062 L123.639942,115.33654 L130.26677,115.33654 L130.26677,103.235031 Z"/>
    <g transform="translate(5)">
      <path fill="url(#color-a)" d="M134.739668,0.0480188193 C117.476476,12.1328342 105.758816,9.44829698 100.863096,11.9329143 C98.3489735,13.2089788 96.9942105,15.2835344 96.2696711,17.0008015 C91.397893,9.51794804 82.711884,4.72961598 68.6498698,4.72961598 C68.52605,4.72961598 68.4034393,4.73246858 68.280345,4.73437032 C68.1572507,4.73246858 68.0341564,4.72961598 67.9105784,4.72961598 C67.7296854,4.72961598 67.5521781,4.73246858 67.3737034,4.73460804 C67.1949869,4.73246858 67.0174796,4.72961598 66.8365865,4.72961598 C66.7127667,4.72961598 66.5901561,4.73246858 66.4670617,4.73437032 C66.3439674,4.73246858 66.2211149,4.72961598 66.0972951,4.72961598 C52.0355227,4.72961598 43.3495137,9.51794804 38.4774939,17.0008015 C37.7529544,15.2835344 36.3984333,13.2089788 33.8840686,11.9329143 C28.9883489,9.44829698 17.2709307,12.1328342 0.00749690339,0.0480188193 C0.00749690339,0.0480188193 -0.170977764,2.55926044 1.20482492,6.28024349 C2.58062761,10.0005134 7.63837721,17.7790867 8.65602138,27.0635967 C8.7892728,28.2807074 9.0107942,29.6285623 9.33799776,31.034658 L12.7565857,31.320156 L10.1904682,34.0512858 C11.3771555,37.5911285 13.2818526,41.1825559 16.196697,43.7912614 L22.1681015,40.6384218 L19.97562,46.2813462 C23.4241955,47.8654918 27.8316492,48.2707992 33.4320779,46.6721529 C33.1232538,47.7330835 32.8654571,48.9675475 32.8349858,50.1960686 C32.7426046,53.9163385 30.9714007,62.0952271 52.6538963,65.6614564 C52.6538963,65.6614564 55.8260538,66.3591556 57.1810586,69.6146889 C57.1810586,69.6146889 57.5010071,71.4434452 67.2281184,71.5501801 L67.2281184,71.552795 C67.2402101,71.552795 67.2520601,71.5525573 67.26391,71.5523196 L67.26391,71.552795 C67.3011527,71.5525573 67.3369444,71.5518442 67.3737034,71.5516064 C67.4102206,71.5518442 67.4462541,71.5525573 67.4834967,71.552795 L67.4834967,71.5523196 C67.4953467,71.5525573 67.5071966,71.552795 67.5190466,71.552795 L67.5190466,71.5501801 C77.2463996,71.4434452 77.5661063,69.6146889 77.5661063,69.6146889 C78.921353,66.3591556 82.0935104,65.6614564 82.0935104,65.6614564 C103.775764,62.0952271 102.004802,53.9163385 101.912179,50.1960686 C101.881708,48.9675475 101.624153,47.7330835 101.315087,46.6721529 C104.174309,47.4879974 106.722531,47.7818155 108.991432,47.6639079 L108.674628,43.5435604 L110.929987,47.4542416 C110.946915,47.4511512 110.963118,47.4478232 110.979805,47.4452083 L111.002295,44.1188354 L113.158985,46.9103452 C117.028113,45.6566262 119.831471,43.0077464 121.827824,39.8746373 L118.196904,35.9244952 L123.480045,36.8030969 C124.653431,34.2060395 125.388369,31.490599 125.805052,29.0772968 L121.884897,27.5927546 L126.060672,27.3222327 C126.061881,27.3115355 126.063091,27.3010759 126.064542,27.2901409 L123.39637,25.8388791 L126.301299,25.5146332 C127.666944,16.9187891 132.243683,9.79156022 133.54234,6.28024349 C134.918385,2.55926044 134.739668,0.0480188193 134.739668,0.0480188193"/>
      <path fill="url(#color-b)" d="M134.725158,0.0580029302 C134.729995,0.0546748932 134.734831,0.0513468562 134.739668,0.0480188193 C134.739668,0.0480188193 134.918385,2.55926044 133.54234,6.28024349 C132.243683,9.79156022 127.666944,16.9187891 126.301299,25.5146332 L123.39637,25.8388791 L126.064542,27.2901409 C126.063091,27.3010759 126.061881,27.3115355 126.060672,27.3222327 L121.884897,27.5927546 L125.805052,29.0772968 C125.388369,31.490599 124.653431,34.2060395 123.480045,36.8030969 L118.196904,35.9244952 L121.827824,39.8746373 C119.831471,43.0077464 117.028113,45.6566262 113.158985,46.9103452 L111.002295,44.1188354 L110.979805,47.4452083 C110.963118,47.4478232 110.946915,47.4511512 110.929987,47.4542416 L108.674628,43.5435604 L108.991432,47.6639079 C106.731479,47.78134 104.19414,47.4896614 101.348944,46.6811861 C100.146054,44.013289 99.1591227,40.907042 98.9912888,39.5308987 C97.8222556,29.9549477 98.7895979,27.1971936 98.7895979,27.1971936 C100.966118,19.4980178 120.554801,16.0506469 127.20528,10.4200838 C131.876093,6.4656627 133.920813,2.23073564 134.725158,0.0580029302 Z M34.9853879,42.5570351 C34.3607266,44.0503729 34.6061897,44.0251749 33.4062015,46.6790467 C27.8181064,48.2693729 23.4186333,47.8633524 19.97562,46.2813462 L22.1681015,40.6384218 L16.196697,43.7912614 C13.2818526,41.1825559 11.3771555,37.5911285 10.1904682,34.0512858 L12.7565857,31.320156 L9.33799776,31.034658 C9.0107942,29.6285623 8.7892728,28.2807074 8.65602138,27.0635967 C7.63837721,17.7790867 2.58062761,10.0005134 1.20482492,6.28024349 C-0.170977764,2.55926044 0.00749690339,0.0480188193 0.00749690339,0.0480188193 C0.0152356424,0.0532485917 0.0224907102,0.0582406471 0.0302294491,0.0634704195 C0.298183286,0.78208869 1.66479622,4.21329481 4.37287119,7.29814738 C7.4161303,10.7647733 10.0560076,12.4119139 12.9176482,13.6378201 C15.7795306,14.8632509 21.261218,17.1805155 22.8732941,17.7743323 C24.485612,18.3681492 30.8942552,21.1644134 33.1312344,23.2903159 C35.3682137,25.4159807 36.2550248,26.431032 36.335556,30.2616025 C36.4163291,34.0916977 36.0332615,36.6965997 35.9931168,37.5007961 C35.9527303,38.3052302 35.6100492,41.063222 34.9853879,42.5570351 Z"/>
      <path fill="#308B6F" d="M77.5683812,35.3877453 L90.0895768,31.0989191 C90.4819001,30.9466912 91.5538383,30.5417226 92.6801837,30.2115707 L92.7437081,30.189812 C92.7444093,30.1906871 92.7451101,30.1915624 92.7458105,30.192438 C93.6961785,29.9168812 94.6765436,29.6989223 95.3132113,29.7343464 C96.9153721,29.8234902 97.1572077,31.4875087 97.1572077,31.4875087 C97.1572077,31.4875087 95.9316163,30.4096027 93.4441659,31.5336018 C93.7335493,32.4899481 93.7095123,33.5839281 93.4694567,34.7228361 C92.5944956,38.8747999 89.1834045,42.4003797 83.8963948,42.4003797 C80.0733395,42.4003797 76.7754714,40.6023841 75.2419952,38.0036185 C73.4269589,37.8035122 70.9721393,37.586825 71.401717,37.4601465 C71.8320109,37.3332568 75.493198,36.0925555 77.5683812,35.3877453 Z"/>
      <path fill="#C42649" d="M93.2198824,33.0821139 C93.2198824,33.0821139 92.6189209,32.0123877 90.6453007,32.4878215 C88.6714386,32.9632554 75.6541541,37.5989732 75.6541541,37.5989732 C75.6541541,37.5989732 77.7232994,42.3927727 84.8035201,41.9173389 C92.2005454,41.4205105 93.7775553,33.8349634 93.2198824,33.0821139"/>
      <path fill="#308B6F" d="M66.9882174,59.6412073 C50.0096942,59.1464107 42.1616113,51.6702657 40.9609733,50.4154946 C40.7414687,50.3524754 40.5429064,50.2746178 40.3652625,50.1803793 C39.3526969,49.6429013 38.7410947,48.9247585 38.5483517,48.0461567 C38.2211481,46.5559093 39.2588647,45.1930781 39.3033624,45.1357884 L39.5672051,44.769942 C39.5592245,44.7806393 38.968662,46.7218357 39.2044517,47.7808646 C39.3362521,48.3732552 40.0743343,48.9452021 40.824992,49.3436157 C42.0919686,50.0163546 45.424705,49.5670696 49.6440105,48.9972621 C54.4089824,48.3543496 60.8391393,47.4871706 67.8786374,47.745569 C74.9179311,47.4871706 81.3480879,48.3543496 86.1130598,48.9972621 C90.3323654,49.5670696 93.6653436,50.0163546 94.9323202,49.3436157 C95.6827361,48.9452021 96.4208183,48.3732552 96.5526187,47.7808646 C96.7886502,46.7218357 96.1978459,44.7806393 96.1898653,44.769942 L96.4539498,45.1357884 C96.4982057,45.1930781 97.5359222,46.5559093 97.2087187,48.0461567 C97.0159757,48.9247585 96.4046153,49.6429013 95.3918079,50.1803793 C95.2141787,50.2746474 95.0155975,50.3525242 94.7960403,50.4155539 C93.5952118,51.6705013 85.7471087,59.1464185 68.7688529,59.6412073 L68.7688529,59.6669487 C68.4694194,59.6669487 68.1726509,59.6647988 67.8785352,59.6605638 C67.5844195,59.6647988 67.287651,59.6669487 66.9882174,59.6669487 L66.9882174,59.6412073 Z"/>
      <path fill="#FFFFFE" d="M66.4051588,58.649498 C65.2641625,58.5708377 63.6286675,58.4218627 61.7167587,58.1415838 C61.4952446,57.9207883 61.0703263,57.4252133 61.1490971,56.9379584 C61.255021,56.2842368 62.4187339,54.2489045 62.4187339,54.2489045 C62.4187339,54.2489045 62.4236868,54.2287523 62.4305336,54.1985164 L64.3938052,50.9484427 L66.3093353,54.8159796 C66.7724548,55.9195033 67.5230019,58.1208138 66.4051588,58.649498 Z M59.8530954,57.8390422 C58.1575063,57.5364817 56.3211795,57.1323836 54.4651712,56.5928936 C54.3553973,56.242883 54.2199774,55.2467444 55.1032072,53.1791783 C55.1409537,53.0908092 55.1760236,53.0080231 55.2085512,52.9305527 L56.2911037,50.7228493 L58.5182921,54.0677083 C59.1578544,55.1190788 60.310612,57.197747 59.8530954,57.8390422 Z M52.71669,56.0442589 C51.1987295,55.530965 49.692996,54.9200509 48.2656686,54.1930091 C48.0587172,53.4285299 48.7194921,52.2103521 49.1532867,51.5228371 L47.6131328,53.8309834 L47.6134457,53.8311877 L49.4995835,51.009048 L51.4844669,53.5009671 C51.8938583,54.0877897 52.7293445,55.370036 52.71669,56.0442589 Z M44.2329421,50.4544284 C45.2604832,50.390877 46.8088363,50.2677715 48.3438416,50.0422345 C48.4525716,50.9161743 47.4355059,52.727675 47.0667649,53.3500226 L46.9816837,53.4775297 C45.2258896,52.5614757 44.4774692,51.0679611 44.2329421,50.4544284 Z M49.5074008,49.8595959 C50.7741834,49.6722144 52.8694164,49.4298001 55.3099762,49.2149932 C55.6485385,49.8014834 54.866445,51.8416843 54.4421551,52.8514627 L53.4705185,54.8329838 L53.4727517,54.8358276 C53.4715808,54.8357729 53.4704036,54.8357076 53.4692201,54.8356318 L49.5074008,49.8595959 Z M57.6288569,49.0282674 C59.4749694,48.8935239 61.4203051,48.7852918 63.2931929,48.7329362 C64.0927228,49.4137635 63.1817905,51.4371654 62.8259841,52.1470723 L60.5812671,55.8632401 L59.1681438,53.7411703 C58.3769465,52.4848362 56.8628093,49.8320993 57.6288569,49.0282674 Z M65.9303163,48.6994562 C66.541888,48.7023335 67.134795,48.7136347 67.7018743,48.7345849 C68.2701492,48.7135913 68.8643551,48.7022868 69.4772847,48.6994384 C69.6976942,48.9307246 69.9266397,49.2434133 70.0111624,49.6034403 C70.1925391,50.3760203 69.3059698,52.7531896 69.3059698,52.7531896 L69.3062914,52.7592201 L67.7018743,55.9985011 L66.1009503,52.7662728 L66.1016482,52.7531896 C66.1016482,52.7531896 65.2150789,50.3760203 65.3964556,49.6034403 C65.4809761,49.2434225 65.709912,48.9307407 65.9303163,48.6994562 Z M72.114305,48.7330384 C73.9874583,48.7854709 75.932938,48.8937701 77.779043,49.0285635 C78.5257481,49.8131144 77.1031444,52.3565709 76.2986742,53.6467007 L74.8227233,55.8632401 L72.6005622,52.1846435 C72.2596936,51.5115666 71.300385,49.4264047 72.114305,48.7330384 Z M80.0974584,49.2153111 C81.9043225,49.3743872 83.5217153,49.5485776 84.7535125,49.7043319 C85.0136511,50.9233364 81.9348663,54.8358276 81.9348663,54.8358276 L80.9881885,52.9053778 C80.5699876,51.9163495 79.7532284,49.8128679 80.0974584,49.2153111 Z M87.0637079,50.0427858 C88.5994252,50.2682436 90.1479413,50.3912252 91.1745844,50.4546579 C90.9298288,51.0686677 90.1806937,52.5632174 88.4230636,53.4790265 L88.3727923,53.4036872 C88.0353955,52.839385 86.9521656,50.9436556 87.0637079,50.0427858 Z M87.1425498,54.1907808 C85.7151076,54.9182054 84.2091521,55.5294369 82.6909052,56.0429939 C82.6790556,55.3531739 83.5522126,54.0291561 83.9502486,53.4622491 L85.9062904,51.0066833 L86.3078874,51.608602 C86.7396083,52.3072281 87.3393338,53.4570517 87.1425498,54.1907808 Z M80.942824,56.5916884 C79.0866287,57.1314236 77.2500215,57.5357199 75.5540934,57.8384396 C75.0876849,57.1823185 76.3014539,55.0266127 76.9307668,53.9998397 L79.1128867,50.7228493 L80.2216092,52.9841269 C80.2476516,53.0458901 80.2752314,53.110866 80.3044107,53.1791783 C81.1866289,55.2443762 81.0525295,56.2405996 80.942824,56.5916884 Z M73.6915185,58.1409265 C71.7795493,58.4213534 70.1437119,58.5704824 69.0019673,58.6492652 C67.8671851,58.1118081 68.6594105,55.8493761 69.1200081,54.7645118 L71.0101852,50.9484427 L72.9793577,54.2084935 C72.9850007,54.2331041 72.988884,54.2489045 72.988884,54.2489045 C72.988884,54.2489045 74.1525969,56.2842368 74.2585209,56.9379584 C74.3372136,57.4247304 73.913215,57.9198061 73.6915185,58.1409265 Z"/>
      <path fill="#46A093" d="M66.6406997,10.416518 C67.6438337,11.0505091 65.8523157,11.6845001 62.9147387,12.1772873 C59.9769199,12.6705499 56.6093593,11.2618394 56.6093593,10.416518 C56.6093593,9.57143435 60.6934788,8.09235963 62.484755,7.88102928 C64.2760313,7.66969893 66.6406997,10.416518 66.6406997,10.416518 Z M75.9702332,8.37120158 C77.0055314,8.51644663 77.5968194,9.17064361 77.0052896,9.67959555 C76.4135179,10.1885475 74.5649266,10.9879895 72.4205704,10.551779 C70.2759723,10.1158061 69.5364391,9.02539857 70.4977356,8.37120158 C71.4587902,7.7170046 75.9702332,8.37120158 75.9702332,8.37120158 Z M72.3693012,12.4207094 C75.1102658,12.26239 72.9335037,15.2733126 71.3211858,15.3524723 C69.7088679,15.431632 67.7741831,15.1147554 68.0967918,14.0847279 C68.4191587,13.0547005 72.3693012,12.4207094 72.3693012,12.4207094 Z M64.226455,14.7848043 C65.0552256,15.9239438 61.8412305,15.6004111 61.3836776,15.1644382 C60.9266083,14.7284654 61.2584067,14.06785 62.0122083,13.8615117 C62.7662517,13.6551734 64.226455,14.7848043 64.226455,14.7848043 Z M83.7259007,10.7930616 C84.602071,11.1734087 83.5237261,11.523328 82.8076509,11.4092239 C82.0913339,11.2948821 79.3244929,10.4925874 80.4495121,10.1101009 C81.5742894,9.72737665 83.7259007,10.7930616 83.7259007,10.7930616 Z M52.4379372,10.8555812 C52.961753,10.8161202 54.1307863,10.657563 53.4454242,11.2121566 C52.760304,11.7669879 50.9869236,12.9553348 50.140499,12.9553348 C49.2940744,12.9553348 49.455137,12.202723 50.1806437,11.6084307 C50.9061505,11.0141384 52.4379372,10.8555812 52.4379372,10.8555812 Z"/>
      <path fill="#308B6F" d="M74.1726692 38.876464C74.1726692 38.876464 75.1097822 45.0373736 86.3551372 45.0968028 86.3551372 45.0968028 76.9842499 44.4133666 74.1726692 38.876464M61.0833178 38.876464C61.0833178 38.876464 60.1462048 45.0373736 48.9008498 45.0968028 48.9008498 45.0968028 58.2717372 44.4133666 61.0833178 38.876464"/>
      <path fill="#F6305C" d="M86.8187361,34.4886849 C86.8187361,34.4886849 78.4149492,36.5092788 78.7172437,37.9950096 C79.0195382,39.4807404 81.6797297,40.7287543 84.2190035,40.1938912 C86.7582772,39.6590281 88.3302085,36.8658542 88.8138797,36.0338449 C89.2975509,35.2018357 89.4789276,33.5378172 86.8187361,34.4886849"/>
      <path fill="#FFFFFE" d="M81.6192708,36.0932742 C81.6192708,36.0932742 78.8986204,36.7469957 78.8381615,37.9355804 C78.7777026,39.124165 82.8284488,36.568708 83.8562501,36.1527034 C84.8840513,35.7366988 83.916709,35.3206942 81.6192708,36.0932742"/>
      <path fill="#308B6F" d="M60.0149592,38.0036185 C58.4814829,40.6023841 55.1836149,42.4003797 51.3605596,42.4003797 C46.0735499,42.4003797 42.6624588,38.8747999 41.7874976,34.7228361 C41.547442,33.5839281 41.5234051,32.4899481 41.8127885,31.5336018 C39.325338,30.4096027 38.0997467,31.4875087 38.0997467,31.4875087 C38.0997467,31.4875087 38.3415823,29.8234902 39.9437431,29.7343464 C40.5804108,29.6989223 41.5607759,29.9168812 42.5111439,30.192438 C42.5118442,30.1915624 42.512545,30.1906871 42.5132463,30.189812 L42.5767707,30.2115707 C43.7031161,30.5417226 44.7750543,30.9466912 45.1673775,31.0989191 L57.6885732,35.3877453 C59.7637563,36.0925555 63.4249434,37.3332568 63.8552373,37.4601465 C64.2848151,37.586825 61.8299954,37.8035122 60.0149592,38.0036185 Z"/>
      <path fill="#C42649" d="M42.037072,33.0821139 C42.037072,33.0821139 42.6380334,32.0123877 44.6116537,32.4878215 C46.5855158,32.9632554 59.6028003,37.5989732 59.6028003,37.5989732 C59.6028003,37.5989732 57.5336549,42.3927727 50.4534343,41.9173389 C43.056409,41.4205105 41.4793991,33.8349634 42.037072,33.0821139"/>
      <path fill="#F6305C" d="M48.4382183,34.4886849 C48.4382183,34.4886849 56.8420051,36.5092788 56.5397106,37.9950096 C56.2374162,39.4807404 53.5772246,40.7287543 51.0379509,40.1938912 C48.4986772,39.6590281 46.9267458,36.8658542 46.4430746,36.0338449 C45.9594035,35.2018357 45.7780268,33.5378172 48.4382183,34.4886849"/>
      <path fill="#FFFFFE" d="M53.6376835,36.0932742 C53.6376835,36.0932742 56.358334,36.7469957 56.4187929,37.9355804 C56.4792518,39.124165 52.4285056,36.568708 51.4007043,36.1527034 C50.372903,35.7366988 51.3402454,35.3206942 53.6376835,36.0932742"/>
      <path fill="#83E883" d="M42.6435956,38.5893019 C42.6435956,38.5893019 49.4249075,40.7584689 54.6546022,42.353074 C54.6546022,42.353074 48.4476499,44.9282615 42.6435956,38.5893019"/>
      <path fill="#82E782" d="M92.8646259,38.5893019 C92.8646259,38.5893019 86.083314,40.7584689 80.8536193,42.353074 C80.8536193,42.353074 87.0605717,44.9282615 92.8646259,38.5893019"/>
    </g>
  </g>
</svg>
