<?xml version="1.0" encoding="utf-8"?>
<!-- Generator: Adobe Illustrator 23.0.2, SVG Export Plug-In . SVG Version: 6.00 Build 0)  -->
<svg version="1.1" id="Layer_1" xmlns="http://www.w3.org/2000/svg" xmlns:xlink="http://www.w3.org/1999/xlink" x="0px" y="0px"
	 viewBox="0 0 690.47 579.54" style="enable-background:new 0 0 690.47 579.54;" xml:space="preserve">
<style type="text/css">
	.st0{fill:#00AB2A;}
</style>
<g>
	<path class="st0" d="M515.57,73.26c0,40.46-32.8,73.26-73.26,73.26c-40.46,0-73.27-32.8-73.27-73.26S401.85,0,442.31,0
		C482.77,0,515.57,32.8,515.57,73.26"/>
	<path d="M301.16,73.26c0,40.46-32.8,73.26-73.26,73.26c-40.46,0-73.27-32.8-73.27-73.26C154.64,32.8,187.43,0,227.89,0
		C268.36,0,301.16,32.8,301.16,73.26"/>
	<path d="M442.31,214.41c40.46,0,73.26,32.8,73.26,73.26c0,40.46-32.8,73.27-73.26,73.27s-73.26-32.81-73.26-73.27
		C369.05,247.21,401.85,214.41,442.31,214.41"/>
</g>
<g>
	<path class="st0" d="M74.05,475.35c-2.77-3.03-6.3-5.46-10.59-7.27s-9.07-2.73-14.36-2.73c-5.37,0-10.22,0.97-14.55,2.92
		c-4.33,1.95-8.01,4.61-11.04,7.99c-3.03,3.38-5.37,7.3-7.02,11.76c-1.65,4.46-2.47,9.2-2.47,14.22c0,5.11,0.82,9.92,2.47,14.42
		c1.64,4.5,3.98,8.42,7.02,11.76c3.03,3.34,6.76,5.96,11.17,7.86c4.42,1.91,9.35,2.86,14.81,2.86c4.33,0,8.31-0.39,11.95-1.17
		c3.64-0.78,6.8-1.9,9.48-3.38V509h-20.4v-10.91h33.13v44.56c-4.85,2.6-10.13,4.59-15.85,5.98c-5.72,1.38-11.95,2.08-18.71,2.08
		c-7.19,0-13.79-1.19-19.81-3.57c-6.02-2.38-11.19-5.72-15.52-10c-4.33-4.29-7.71-9.4-10.13-15.33C1.21,515.86,0,509.34,0,502.24
		c0-7.19,1.23-13.75,3.7-19.68c2.47-5.93,5.89-11,10.26-15.2c4.37-4.2,9.55-7.47,15.52-9.81c5.98-2.34,12.47-3.51,19.49-3.51
		c7.36,0,13.92,1.08,19.68,3.25c5.76,2.17,10.54,5.07,14.36,8.7L74.05,475.35z"/>
	<path class="st0" d="M102.03,493.67c-0.09-2.6-0.22-4.89-0.39-6.88h11.56c0.17,1.56,0.3,3.36,0.39,5.39c0.08,2.04,0.13,3.7,0.13,5
		h0.39c1.73-3.64,4.26-6.56,7.6-8.77c3.33-2.21,7.08-3.31,11.24-3.31c1.9,0,3.51,0.17,4.81,0.52l-0.52,11.3
		c-1.73-0.43-3.59-0.65-5.59-0.65c-2.95,0-5.5,0.54-7.66,1.62c-2.17,1.08-3.96,2.53-5.39,4.35c-1.43,1.82-2.49,3.92-3.18,6.3
		c-0.69,2.38-1.04,4.87-1.04,7.47v32.35h-12.21v-48.33C102.16,498.39,102.12,496.27,102.03,493.67z"/>
	<path class="st0" d="M204.02,517.05c0,0.69,0,1.39,0,2.08c0,0.7-0.04,1.39-0.13,2.08h-48.98c0.09,2.58,0.67,5.01,1.75,7.29
		c1.08,2.28,2.53,4.26,4.35,5.94s3.92,2.99,6.3,3.93c2.38,0.95,4.91,1.42,7.6,1.42c4.16,0,7.75-0.91,10.78-2.73
		c3.03-1.82,5.41-4.03,7.15-6.63l8.57,6.89c-3.29,4.36-7.17,7.58-11.63,9.64c-4.46,2.06-9.42,3.09-14.88,3.09
		c-4.68,0-9.01-0.78-12.99-2.34c-3.98-1.56-7.4-3.75-10.26-6.56c-2.86-2.81-5.11-6.21-6.76-10.2c-1.65-3.98-2.47-8.4-2.47-13.25
		c0-4.76,0.8-9.16,2.41-13.19c1.61-4.03,3.84-7.47,6.7-10.33c2.86-2.86,6.25-5.09,10.16-6.69c3.91-1.6,8.11-2.4,12.63-2.4
		c4.51,0,8.61,0.74,12.3,2.21c3.69,1.47,6.81,3.59,9.37,6.37c2.56,2.77,4.53,6.13,5.92,10.07
		C203.32,507.68,204.02,512.11,204.02,517.05z M191.54,512.11c-0.09-2.42-0.5-4.7-1.23-6.82c-0.74-2.12-1.82-3.96-3.25-5.52
		c-1.43-1.56-3.2-2.79-5.33-3.7c-2.12-0.91-4.61-1.36-7.47-1.36c-2.6,0-5.05,0.45-7.34,1.36c-2.3,0.91-4.29,2.14-5.98,3.7
		c-1.69,1.56-3.08,3.4-4.16,5.52c-1.08,2.12-1.71,4.4-1.88,6.82H191.54z"/>
	<path class="st0" d="M240.14,535.11h0.26l17.02-48.33h12.99l-29.88,76.13c-1.04,2.6-2.17,4.92-3.38,6.95
		c-1.21,2.03-2.64,3.77-4.29,5.2c-1.65,1.43-3.57,2.53-5.78,3.31c-2.21,0.78-4.83,1.17-7.86,1.17c-1.3,0-2.62-0.06-3.96-0.19
		c-1.34-0.13-2.71-0.37-4.09-0.71l1.17-10.78c2.08,0.69,4.11,1.04,6.11,1.04c3.2,0,5.59-0.89,7.15-2.66
		c1.56-1.78,2.99-4.31,4.29-7.6l3.9-10.26l-26.37-61.58h13.64L240.14,535.11z"/>
	<path class="st0" d="M362.91,527.06h0.26l27.15-70.67h20.01v91.98h-12.86v-76.91h-0.26l-30.53,76.91h-8.18l-30.4-76.91h-0.26v76.91
		h-12.47v-91.98h20.01L362.91,527.06z"/>
	<path class="st0" d="M468.08,508.48c0-4.59-1.39-7.99-4.16-10.2c-2.77-2.21-6.45-3.31-11.04-3.31c-3.47,0-6.74,0.67-9.81,2.01
		c-3.07,1.34-5.65,3.05-7.73,5.13l-6.5-7.8c3.03-2.86,6.73-5.11,11.11-6.76c4.37-1.64,9.07-2.47,14.1-2.47
		c4.42,0,8.25,0.63,11.5,1.88c3.25,1.26,5.91,2.97,7.99,5.13c2.08,2.17,3.64,4.72,4.68,7.66c1.04,2.95,1.56,6.11,1.56,9.48v26.89
		c0,2.08,0.06,4.27,0.19,6.56c0.13,2.3,0.37,4.18,0.71,5.65h-11.04c-0.69-2.94-1.04-5.89-1.04-8.83h-0.39
		c-2.25,3.29-5.09,5.85-8.51,7.66c-3.42,1.82-7.47,2.73-12.15,2.73c-2.42,0-4.96-0.32-7.6-0.97c-2.64-0.65-5.05-1.71-7.21-3.18
		c-2.17-1.47-3.96-3.42-5.39-5.85c-1.43-2.42-2.14-5.41-2.14-8.96c0-4.68,1.25-8.38,3.77-11.11c2.51-2.73,5.8-4.81,9.87-6.24
		c4.07-1.43,8.66-2.36,13.77-2.79c5.11-0.43,10.26-0.65,15.46-0.65V508.48z M465.09,519c-3.03,0-6.17,0.13-9.42,0.39
		c-3.25,0.26-6.19,0.78-8.83,1.56c-2.64,0.78-4.83,1.95-6.56,3.51c-1.73,1.56-2.6,3.64-2.6,6.24c0,1.82,0.37,3.34,1.1,4.55
		c0.73,1.21,1.71,2.21,2.92,2.99c1.21,0.78,2.55,1.32,4.03,1.62c1.47,0.3,2.99,0.45,4.55,0.45c5.72,0,10.11-1.71,13.19-5.13
		c3.07-3.42,4.61-7.73,4.61-12.93V519H465.09z"/>
	<path class="st0" d="M528.08,496.79h-16.37v31.99c0,3.71,0.69,6.37,2.08,7.97c1.39,1.6,3.59,2.4,6.63,2.4
		c1.12,0,2.34-0.12,3.64-0.36c1.3-0.24,2.47-0.59,3.51-1.07l0.39,10c-1.47,0.52-3.1,0.93-4.87,1.23c-1.78,0.3-3.62,0.46-5.52,0.46
		c-5.8,0-10.24-1.6-13.32-4.81c-3.07-3.2-4.61-8.01-4.61-14.42v-33.39h-11.82v-10h11.82v-17.67h12.08v17.67h16.37V496.79z"/>
	<path class="st0" d="M573.95,496.79h-16.37v31.99c0,3.71,0.69,6.37,2.08,7.97c1.39,1.6,3.59,2.4,6.63,2.4
		c1.12,0,2.34-0.12,3.64-0.36c1.3-0.24,2.47-0.59,3.51-1.07l0.39,10c-1.47,0.52-3.1,0.93-4.87,1.23c-1.78,0.3-3.62,0.46-5.52,0.46
		c-5.8,0-10.24-1.6-13.32-4.81c-3.07-3.2-4.61-8.01-4.61-14.42v-33.39h-11.82v-10h11.82v-17.67h12.08v17.67h16.37V496.79z"/>
	<path class="st0" d="M641.03,517.05c0,0.69,0,1.39,0,2.08c0,0.7-0.04,1.39-0.13,2.08h-48.98c0.08,2.58,0.67,5.01,1.75,7.29
		c1.08,2.28,2.53,4.26,4.35,5.94c1.82,1.68,3.92,2.99,6.3,3.93c2.38,0.95,4.91,1.42,7.6,1.42c4.16,0,7.75-0.91,10.78-2.73
		c3.03-1.82,5.41-4.03,7.15-6.63l8.57,6.89c-3.29,4.36-7.17,7.58-11.63,9.64c-4.46,2.06-9.42,3.09-14.88,3.09
		c-4.68,0-9.01-0.78-12.99-2.34c-3.98-1.56-7.41-3.75-10.26-6.56c-2.86-2.81-5.11-6.21-6.76-10.2c-1.65-3.98-2.47-8.4-2.47-13.25
		c0-4.76,0.8-9.16,2.41-13.19c1.61-4.03,3.84-7.47,6.7-10.33c2.86-2.86,6.25-5.09,10.15-6.69c3.91-1.6,8.11-2.4,12.63-2.4
		c4.51,0,8.61,0.74,12.3,2.21c3.69,1.47,6.81,3.59,9.37,6.37c2.56,2.77,4.53,6.13,5.92,10.07
		C640.33,507.68,641.03,512.11,641.03,517.05z M628.55,512.11c-0.09-2.42-0.5-4.7-1.23-6.82c-0.74-2.12-1.82-3.96-3.25-5.52
		c-1.43-1.56-3.2-2.79-5.33-3.7c-2.12-0.91-4.61-1.36-7.47-1.36c-2.6,0-5.05,0.45-7.34,1.36c-2.3,0.91-4.29,2.14-5.98,3.7
		c-1.69,1.56-3.08,3.4-4.16,5.52c-1.08,2.12-1.71,4.4-1.88,6.82H628.55z"/>
	<path class="st0" d="M654.74,493.67c-0.09-2.6-0.22-4.89-0.39-6.88h11.56c0.17,1.56,0.3,3.36,0.39,5.39c0.09,2.04,0.13,3.7,0.13,5
		h0.39c1.73-3.64,4.26-6.56,7.6-8.77c3.33-2.21,7.08-3.31,11.24-3.31c1.9,0,3.51,0.17,4.81,0.52l-0.52,11.3
		c-1.73-0.43-3.59-0.65-5.59-0.65c-2.95,0-5.5,0.54-7.66,1.62c-2.17,1.08-3.96,2.53-5.39,4.35c-1.43,1.82-2.49,3.92-3.18,6.3
		c-0.7,2.38-1.04,4.87-1.04,7.47v32.35h-12.21v-48.33C654.87,498.39,654.83,496.27,654.74,493.67z"/>
</g>
</svg>
