<?xml version="1.0" encoding="utf-8"?>
<!-- Generator: Adobe Illustrator 26.1.0, SVG Export Plug-In . SVG Version: 6.00 Build 0)  -->
<svg version="1.1" id="Layer_1" xmlns="http://www.w3.org/2000/svg" xmlns:xlink="http://www.w3.org/1999/xlink" x="0px" y="0px"
	 viewBox="0 0 673.5 132.1" style="enable-background:new 0 0 673.5 132.1;" xml:space="preserve">
<style type="text/css">
	.st0{fill:#1CB24B;}
</style>
<g>
	<path d="M39.8,123.3c-4,0-7.4-0.5-10.2-1.5c-2.9-1-5.2-2.3-7.1-4c-1.9-1.6-3.4-3.4-4.5-5.2l6.5-4.6c0.7,1,1.7,2.1,2.8,3.4
		c1.1,1.3,2.7,2.4,4.7,3.3c2,0.9,4.6,1.4,7.8,1.4c4.3,0,7.9-1,10.7-3.1c2.8-2.1,4.2-5.4,4.2-9.8V92.2H54c-0.6,1-1.5,2.2-2.6,3.6
		c-1.1,1.4-2.7,2.7-4.7,3.8c-2.1,1.1-4.8,1.7-8.3,1.7c-4.3,0-8.2-1-11.6-3.1c-3.4-2-6.1-5-8.1-8.9c-2-3.9-3-8.6-3-14.2
		c0-5.5,1-10.2,2.9-14.3c1.9-4.1,4.6-7.2,8-9.5c3.4-2.2,7.4-3.4,11.9-3.4c3.5,0,6.2,0.6,8.3,1.7s3.6,2.4,4.7,3.9
		c1.1,1.5,2,2.6,2.6,3.6H55v-8.5h7.9v55c0,4.6-1,8.3-3.1,11.2c-2.1,2.9-4.9,5-8.4,6.4C48,122.6,44.1,123.3,39.8,123.3z M39.5,93.9
		c3.3,0,6.1-0.8,8.4-2.3c2.3-1.5,4-3.7,5.2-6.5s1.8-6.2,1.8-10.2c0-3.9-0.6-7.2-1.7-10.2c-1.2-2.9-2.9-5.3-5.2-6.9
		c-2.3-1.7-5.1-2.5-8.4-2.5c-3.5,0-6.4,0.9-8.7,2.6c-2.3,1.8-4,4.1-5.2,7.1c-1.1,3-1.7,6.3-1.7,9.9c0,3.7,0.6,7,1.8,9.8
		c1.2,2.8,2.9,5.1,5.2,6.7C33.2,93.1,36.1,93.9,39.5,93.9z"/>
	<path d="M78,102.1V48.7h7.9v8.1h0.6c1-2.6,2.7-4.8,5.3-6.4c2.6-1.6,5.4-2.5,8.6-2.5c0.6,0,1.4,0,2.3,0c0.9,0,1.6,0.1,2.1,0.1v8.4
		c-0.3-0.1-0.9-0.2-1.9-0.3c-1-0.2-2-0.2-3.1-0.2c-2.6,0-4.9,0.5-6.9,1.6c-2,1.1-3.6,2.6-4.8,4.5c-1.2,1.9-1.8,4-1.8,6.5v33.8H78z"
		/>
	<path d="M157.3,74.7c0-5-0.7-9.2-2-12.6c-1.3-3.4-3.1-6.2-5.3-8.2c-2.2-2.1-4.7-3.6-7.4-4.5c-2.7-0.9-5.5-1.4-8.2-1.4
		c-4.8,0-9,1.2-12.7,3.5c-3.6,2.4-6.4,5.6-8.4,9.8c-2,4.2-3,9-3,14.5c0,5.5,1,10.3,3,14.4c2,4.1,4.9,7.3,8.6,9.6
		c3.7,2.3,8.2,3.4,13.3,3.4c3.6,0,6.9-0.6,9.8-1.7c2.9-1.1,5.3-2.7,7.3-4.7c2-2,3.4-4.4,4.2-7.1l-7.9-2.2c-0.7,1.9-1.7,3.4-3,4.6
		c-1.3,1.2-2.8,2.2-4.5,2.8c-1.8,0.6-3.7,0.9-5.9,0.9c-3.3,0-6.2-0.7-8.7-2.2c-2.5-1.4-4.5-3.6-5.9-6.4c-1.3-2.5-2-5.6-2.1-9.1h38.8
		V74.7z M118.5,71.1c0.2-2.5,0.8-4.8,1.9-7c1.3-2.6,3.1-4.7,5.5-6.3c2.4-1.6,5.2-2.4,8.5-2.4c3,0,5.6,0.7,7.7,2.1
		c2.2,1.4,3.9,3.2,5.1,5.6c1.2,2.4,1.8,5.1,1.8,8.1H118.5z"/>
	<path d="M173.4,122.2c-1.4,0-2.6-0.1-3.7-0.3c-1.1-0.2-1.8-0.4-2.3-0.6l2.1-7.2c2,0.5,3.8,0.7,5.3,0.6s2.9-0.8,4.1-2
		c1.2-1.2,2.3-3.2,3.3-5.9l1.5-4.2L164,48.7h8.9l14.8,42.6h0.6L203,48.7h8.9l-22.7,61.3c-1,2.8-2.3,5.1-3.8,6.9
		c-1.5,1.8-3.3,3.2-5.2,4.1C178.2,121.7,175.9,122.2,173.4,122.2z"/>
	<path d="M222.7,102.1V48.7h7.9V57h0.7c1.1-2.9,2.9-5.1,5.4-6.7c2.5-1.6,5.5-2.4,8.9-2.4c3.5,0,6.5,0.8,8.8,2.4
		c2.4,1.6,4.2,3.8,5.5,6.7h0.6c1.4-2.8,3.4-5,6.2-6.6c2.7-1.6,6-2.5,9.8-2.5c4.8,0,8.7,1.5,11.7,4.5c3,3,4.6,7.6,4.6,13.9v35.8h-8.2
		V66.3c0-3.9-1.1-6.8-3.2-8.5c-2.2-1.7-4.7-2.5-7.6-2.5c-3.8,0-6.7,1.1-8.7,3.4c-2.1,2.3-3.1,5.1-3.1,8.6v34.8h-8.4V65.5
		c0-3-1-5.5-3-7.4c-2-1.9-4.5-2.8-7.6-2.8c-2.1,0-4.1,0.6-6,1.7c-1.8,1.1-3.3,2.7-4.5,4.7c-1.1,2-1.7,4.3-1.7,6.9v33.4H222.7z"/>
	<path d="M323.6,103.4c-3.4,0-6.5-0.6-9.2-1.9s-5-3.2-6.6-5.6c-1.6-2.4-2.4-5.4-2.4-8.9c0-3.1,0.6-5.6,1.8-7.5
		c1.2-1.9,2.8-3.4,4.8-4.5c2-1.1,4.3-1.9,6.7-2.5c2.4-0.5,4.9-1,7.4-1.3c3.2-0.4,5.9-0.7,7.9-1c2-0.2,3.5-0.6,4.5-1.1
		c0.9-0.5,1.4-1.5,1.4-2.8v-0.3c0-3.4-0.9-6.1-2.8-8s-4.7-2.9-8.5-2.9c-3.9,0-7,0.9-9.2,2.6s-3.8,3.5-4.7,5.5l-7.8-2.8
		c1.4-3.2,3.3-5.8,5.6-7.6s4.9-3.1,7.7-3.8c2.8-0.7,5.5-1.1,8.2-1.1c1.7,0,3.7,0.2,5.9,0.6c2.2,0.4,4.4,1.2,6.5,2.5
		c2.1,1.3,3.8,3.1,5.2,5.7c1.4,2.5,2.1,5.9,2.1,10.2v35.2h-8.2v-7.2h-0.4c-0.6,1.2-1.5,2.4-2.8,3.7c-1.3,1.3-3,2.4-5.2,3.4
		C329.4,102.9,326.8,103.4,323.6,103.4z M324.9,96c3.2,0,6-0.6,8.2-1.9c2.2-1.3,3.9-2.9,5.1-4.9s1.7-4.1,1.7-6.4v-7.5
		c-0.3,0.4-1.1,0.8-2.3,1.1c-1.2,0.3-2.5,0.6-4,0.9s-3,0.5-4.4,0.6c-1.4,0.2-2.6,0.3-3.5,0.4c-2.1,0.3-4.1,0.7-6,1.3
		c-1.8,0.6-3.3,1.5-4.5,2.7c-1.1,1.2-1.7,2.9-1.7,5c0,2.9,1.1,5,3.2,6.5C318.9,95.3,321.6,96,324.9,96z"/>
	<path d="M427.9,61v-6.8h-15.8V37.1h-7.7v17.1h-11.2h-12.5V37.1h-7.7v17.1h-14.4V61h14.4v32.7c0,2.6,0.7,4.7,2.2,6.2
		c1.5,1.5,3.6,2.3,6.3,2.3h12.7v-6.7h-10.7c-1.9,0-2.8-1-2.8-2.9V61h12.5h11.2v32.7c0,2.6,0.8,4.7,2.3,6.2c1.5,1.5,3.6,2.3,6.4,2.3
		h12.7v-6.7H415c-2,0-2.9-1-2.9-2.9V61H427.9z"/>
	<path d="M484.4,74.7c0-5-0.7-9.2-2-12.6c-1.3-3.4-3.1-6.2-5.3-8.2c-2.2-2.1-4.7-3.6-7.4-4.5c-2.7-0.9-5.5-1.4-8.2-1.4
		c-4.8,0-9,1.2-12.7,3.5c-3.6,2.4-6.4,5.6-8.4,9.8c-2,4.2-3,9-3,14.5c0,5.5,1,10.3,3,14.4c2,4.1,4.9,7.3,8.6,9.6
		c3.7,2.3,8.2,3.4,13.3,3.4c3.6,0,6.9-0.6,9.8-1.7s5.3-2.7,7.3-4.7c2-2,3.4-4.4,4.2-7.1l-7.9-2.2c-0.7,1.9-1.7,3.4-3,4.6
		c-1.3,1.2-2.8,2.2-4.5,2.8c-1.8,0.6-3.7,0.9-5.9,0.9c-3.3,0-6.2-0.7-8.7-2.2c-2.5-1.4-4.5-3.6-5.9-6.4c-1.3-2.5-2-5.6-2.1-9.1h38.8
		V74.7z M445.6,71.1c0.2-2.5,0.8-4.8,1.9-7c1.3-2.6,3.1-4.7,5.5-6.3c2.4-1.6,5.2-2.4,8.5-2.4c3,0,5.6,0.7,7.7,2.1
		c2.2,1.4,3.9,3.2,5.1,5.6c1.2,2.4,1.8,5.1,1.8,8.1H445.6z"/>
	<path d="M496.9,102.1V48.7h7.9v8.1h0.6c1-2.6,2.7-4.8,5.3-6.4c2.6-1.6,5.4-2.5,8.6-2.5c0.6,0,1.4,0,2.3,0c0.9,0,1.6,0.1,2.1,0.1
		v8.4c-0.3-0.1-0.9-0.2-1.9-0.3c-1-0.2-2-0.2-3.1-0.2c-2.6,0-4.9,0.5-6.9,1.6c-2,1.1-3.6,2.6-4.8,4.5c-1.2,1.9-1.8,4-1.8,6.5v33.8
		H496.9z"/>
	<path d="M533.2,102.7c-1.7,0-3.2-0.6-4.4-1.8c-1.2-1.2-1.8-2.7-1.8-4.4c0-1.7,0.6-3.2,1.8-4.4c1.2-1.2,2.7-1.8,4.4-1.8
		c1.7,0,3.2,0.6,4.4,1.8c1.2,1.2,1.8,2.7,1.8,4.4c0,1.1-0.3,2.2-0.9,3.1c-0.6,1-1.3,1.7-2.3,2.3S534.4,102.7,533.2,102.7z"/>
	<path d="M558.4,39.7c-1.6,0-3-0.5-4.1-1.6c-1.1-1.1-1.7-2.4-1.7-3.9s0.6-2.8,1.7-3.9c1.1-1.1,2.5-1.6,4.1-1.6s3,0.5,4.1,1.6
		c1.1,1.1,1.7,2.4,1.7,3.9s-0.6,2.8-1.7,3.9C561.4,39.2,560,39.7,558.4,39.7z M554.2,102.1V48.7h8.2v53.5H554.2z"/>
	<path d="M599.2,103.2c-4.8,0-9.1-1.1-12.7-3.4s-6.5-5.5-8.5-9.6c-2-4.1-3-9-3-14.5c0-5.6,1-10.4,3-14.6c2-4.2,4.9-7.4,8.5-9.7
		s7.9-3.4,12.7-3.4c4.8,0,9.1,1.1,12.7,3.4s6.5,5.5,8.5,9.7c2,4.2,3,9,3,14.6c0,5.5-1,10.3-3,14.5c-2,4.1-4.9,7.3-8.5,9.6
		S604,103.2,599.2,103.2z M599.2,95.8c3.7,0,6.7-0.9,9-2.8s4.1-4.4,5.3-7.4s1.7-6.4,1.7-10s-0.6-6.9-1.7-10
		c-1.1-3.1-2.9-5.6-5.3-7.5s-5.4-2.9-9-2.9c-3.7,0-6.7,1-9,2.9s-4.1,4.4-5.3,7.5c-1.1,3.1-1.7,6.4-1.7,10s0.6,6.9,1.7,10
		s2.9,5.5,5.3,7.4S595.5,95.8,599.2,95.8z"/>
</g>
<g id="logo_dots">
	<path id="bottom_right_dot" d="M646.9,49.2c6.5,0,11.9,5.5,11.9,12.2c0,6.7-5.3,12.2-11.9,12.2c-6.5,0-11.9-5.5-11.9-12.2
		C635.1,54.6,640.4,49.2,646.9,49.2z"/>
	<path id="green_dot" class="st0" d="M658.7,25.6c0,6.7-5.3,12.2-11.9,12.2S635,32.4,635,25.6c0-6.7,5.4-12.2,12-12.2
		C653.5,13.4,658.7,18.9,658.7,25.6z"/>
	<path id="top_left_dot" d="M624.1,25.6c0,6.7-5.3,12.2-11.9,12.2s-11.9-5.5-11.9-12.2c0-6.7,5.3-12.2,11.9-12.2
		S624.1,18.9,624.1,25.6z"/>
</g>
</svg>
