<svg id="Layer_1" data-name="Layer 1" xmlns="http://www.w3.org/2000/svg" viewBox="0 0 360 133.5782"><defs><style>.cls-1{fill:#fd2325;}</style></defs><path class="cls-1" d="M95.07424,78.1471l.13477,6.57342a9.60408,9.60408,0,0,1-4.80116,8.31329L57.18277,112.221a9.604,9.604,0,0,1-9.60439.00081l-33.238-19.18705a9.60405,9.60405,0,0,1-4.80257-8.31767V46.34524a9.60406,9.60406,0,0,1,4.80263-8.31771l33.238-19.18673a9.604,9.604,0,0,1,9.60427.00082L92.88309,39.45789a1.54989,1.54989,0,0,1,.00017,2.68424l-16.611,9.5953L52.38081,37.94375,28.48962,51.73743V79.32522L52.38081,93.11891,76.27222,79.32522V77.376H52.364l.00874-12.47884a2.174,2.174,0,0,1,2.17405-2.17253l21.71838.37518C77.33048,63.09983,95.07463,77.08178,95.07424,78.1471Z"/><path class="cls-1" d="M92.45232,75.39408c1.44206,1.51416.91112,2.753-1.17986,2.753H54.48659a3.813,3.813,0,0,1-3.80178-3.80178V66.14925a3.813,3.813,0,0,1,3.80178-3.80178H76.2252a10.192,10.192,0,0,1,6.42369,2.753Z"/><path class="cls-1" d="M127.27272,63.26692V79.356H115.16548c-4.18465,0-6.33815-.52827-8.3289-2.11235-2.76258-2.15349-4.26584-6.09458-4.26584-11.33541,0-5.16,1.50326-9.1415,4.22543-11.33541,1.95-1.54366,4.75334-2.31586,8.61324-2.31586h11.86331v4.83452H116.10005c-5.16,0-7.19116,2.357-7.19116,8.28848,0,3.29086.731,6.135,1.86878,7.43473,1.09695,1.17851,2.80336,1.70678,5.52554,1.70678h5.20041V68.10218h-7.55706V63.26692Z"/><path class="cls-1" d="M137.632,68.50848c0,2.55906.36553,3.81913,1.4217,4.83452a7.09625,7.09625,0,0,0,4.7537,1.66563c2.55943,0,4.63137-.93457,5.36279-2.43783a9.37868,9.37868,0,0,0,.56868-4.06232V52.257h5.76947V68.22414c0,4.18429-.85339,6.82564-2.72217,8.53168-2.19391,1.90956-5.07846,2.803-9.10073,2.803-4.18465,0-7.19117-.89343-9.14151-2.76258-2.03116-1.90956-2.68139-3.89994-2.68139-8.16578V52.257H137.632Z"/><path class="cls-1" d="M160.70769,52.257h5.76947V79.356h-5.76947Z"/><path class="cls-1" d="M183.49974,52.257c5.44435,0,8.532,1.01539,10.68554,3.49437,1.74682,1.95,2.88455,5.93147,2.88455,10.11576a24.06874,24.06874,0,0,1-1.05654,6.90719,8.29447,8.29447,0,0,1-6.13463,6.05344,22.67236,22.67236,0,0,1-6.37892.52827H172.002V52.257Zm-5.72832,22.26451h5.72832c2.43783,0,4.30662-.60983,5.24119-1.66563,1.21892-1.382,1.99075-4.14461,1.99075-7.02916,0-3.2093-.93457-6.09385-2.35627-7.35391-1.13773-.975-2.47861-1.38129-4.87567-1.38129h-5.72832Z"/><path class="cls-1" d="M221.446,57.09152h-7.51628c-4.06269.04114-5.2816.4063-6.54093,1.99111-.81261,1.13737-1.01576,1.828-1.17814,4.38781H221.446V68.305H206.2106c.44672,4.71329,2.39706,6.21655,7.963,6.21655H221.446V79.356h-7.51628c-5.52517,0-8.32853-.73106-10.40083-2.76258-2.47825-2.39743-3.85954-6.29737-3.85954-10.92911,0-4.71255,1.46248-8.40971,4.3474-11.01066,1.99075-1.78759,3.90031-2.39668,7.67866-2.39668H221.446Z"/><path class="cls-1" d="M241.9225,79.356H236.153V52.257h13.245c3.94109,0,6.33814.44671,7.92259,1.46284a7.07779,7.07779,0,0,1,3.20966,6.09385,9.00637,9.00637,0,0,1-1.95034,5.97262,6.962,6.962,0,0,1-3.20966,1.95c3.16925.853,4.71292,3.29085,4.91607,7.51628a13.60612,13.60612,0,0,0,.65024,4.10347h-6.46011a6.16416,6.16416,0,0,1-.32512-1.38129c-.04041-.24393-.1216-1.05654-.24356-2.47825-.40631-4.7537-2.35665-6.45974-7.35391-6.41933H241.9225Zm8.085-15.11339a4.827,4.827,0,0,0,2.84378-.60983,3.77052,3.77052,0,0,0,1.3001-3.12847,3.0923,3.0923,0,0,0-1.90956-3.16889,7.52033,7.52033,0,0,0-2.23432-.24393h-8.085v7.15112Z"/><path class="cls-1" d="M274.18007,52.257h6.62248L292.016,79.356h-6.74482L282.671,73.05866H272.35206L269.75185,79.356h-6.78522Zm-.5279,15.96714h7.71906l-3.85953-9.467Z"/><path class="cls-1" d="M294.94022,52.257h5.7691V79.356h-5.7691Z"/><path class="cls-1" d="M311.71924,52.257V67.45194c.16238,4.50977.24393,4.79411,1.34088,5.89106,1.09695.93458,2.39669,1.17851,5.93148,1.17851h5.52516V79.356h-6.135c-5.32165.08155-7.10924-.3659-9.42511-2.15349-2.39742-2.15276-2.96611-4.06232-3.00652-9.7506V52.257Z"/><path class="cls-1" d="M327.48287,74.52151h12.3508c2.07194,0,3.25044-.16311,3.94109-.60983a2.75627,2.75627,0,0,0,1.4217-2.51865,3.10818,3.10818,0,0,0-1.66563-2.84414,6.30949,6.30949,0,0,0-3.00651-.52827h-4.99764c-3.12774,0-5.24082-.52827-6.62211-1.66563a7.89577,7.89577,0,0,1-2.72218-6.09458c0-3.37168,1.7876-6.33778,4.46936-7.35318,1.29974-.48786,2.72218-.65023,6.05344-.65023h13.40735v4.83452H338.00493c-2.51866,0-3.45323.08155-4.10273.4063a2.80351,2.80351,0,0,0-1.34088,2.60021,2.915,2.915,0,0,0,1.21891,2.47824c.73106.44745,1.62449.60983,3.73757.60983h4.3474c3.89994,0,5.97188.56868,7.55669,2.07194a8.72131,8.72131,0,0,1,2.1939,6.135,8.18923,8.18923,0,0,1-3.25044,6.74408c-1.38129.93458-3.08733,1.21892-7.27235,1.21892H327.48287Z"/><rect class="cls-1" x="222.95068" y="63.47044" width="11.53598" height="4.74799"/></svg>