<?xml version="1.0" encoding="UTF-8" standalone="no"?>
<!-- Created with Inkscape (http://www.inkscape.org/) -->

<svg
   xmlns:dc="http://purl.org/dc/elements/1.1/"
   xmlns:cc="http://creativecommons.org/ns#"
   xmlns:rdf="http://www.w3.org/1999/02/22-rdf-syntax-ns#"
   xmlns:svg="http://www.w3.org/2000/svg"
   xmlns="http://www.w3.org/2000/svg"
   version="1.1"
   width="663.89728"
   height="172.48062"
   id="svg2"
   xml:space="preserve"><title
     id="title3117">Hadoop logo</title><metadata
     id="metadata8"><rdf:RDF><cc:Work
         rdf:about=""><dc:format>image/svg+xml</dc:format><dc:type
           rdf:resource="http://purl.org/dc/dcmitype/StillImage" /><dc:title>Hadoop logo</dc:title><cc:license
           rdf:resource="http://www.apache.org/licenses/LICENSE-2.0.html" /></cc:Work></rdf:RDF></metadata><defs
     id="defs6"><clipPath
       id="clipPath16"><path
         d="m -9,-9 614,0 0,231 -614,0 0,-231 z"
         id="path18" /></clipPath><clipPath
       id="clipPath116"><path
         d="m 91.7368,146.3253 -9.7039,-1.577 -8.8548,-3.8814 -7.5206,-4.7308 -7.1566,-8.7335 -4.0431,-4.282 -3.9093,-1.4409 -1.034,2.5271 1.8079,2.6096 0.4062,3.6802 1.211,-0.0488 1.3232,-1.2069 -0.3569,3.7488 -1.4667,0.9839 0.0445,1.4286 -3.4744,-1.9655 -3.1462,-3.712 -0.6559,-3.3176 1.3453,-2.6567 1.2549,-4.5133 2.5521,-1.2084 2.6847,0.1318 2.5455,1.4791 -1.698,-8.6122 1.698,-9.5825 -1.8692,-4.4246 -6.1223,-6.5965 1.0885,-3.941 2.9002,-4.5669 5.4688,-3.8486 2.9007,-0.3969 3.225,-0.1094 -2.012,-8.2601 7.3993,-3.0326 9.2188,-1.2129 3.1535,2.0619 0.2427,5.5797 3.5178,5.8224 0.2426,4.6094 8.4909,-0.6066 7.8843,0.7279 -7.8843,-4.7307 1.3343,-5.701 4.9731,-7.763 4.8521,-2.0622 3.8814,1.5769 1.577,3.1538 8.1269,6.1861 1.5769,-1.3343 12.7363,-0.485 2.5473,2.0619 0.2426,3.6391 -0.849,1.5767 -0.6066,9.8251 -4.2454,8.4909 0.7276,3.7605 2.5475,-1.3343 7.1566,-6.6716 3.5175,-0.2424 3.8815,1.5769 3.8818,2.9109 1.9406,6.3077 11.4021,-0.7277 6.914,2.6686 5.5797,5.2157 4.0028,7.5206 0.9706,8.8546 -0.8493,10.3105 -2.1832,9.2185 -2.1836,2.9112 -3.0322,0.9706 -5.3373,-5.8224 -4.8518,-1.6982 -4.2455,7.0353 -4.2454,3.8815 -2.3049,1.4556 -9.2185,7.6419 -7.3993,4.0028 -7.3993,0.6066 -8.6119,-1.4556 -7.5206,-2.7899 -5.2158,-4.2454 -4.1241,-4.9734 -4.2454,-1.2129"
         id="path118" /></clipPath><clipPath
       id="clipPath128"><path
         d="m 91.7368,146.3253 -9.7039,-1.577 -8.8548,-3.8814 -7.5206,-4.7308 -7.1566,-8.7335 -4.0431,-4.282 -3.9093,-1.4409 -1.034,2.5271 1.8079,2.6096 0.4062,3.6802 1.211,-0.0488 1.3232,-1.2069 -0.3569,3.7488 -1.4667,0.9839 0.0445,1.4286 -3.4744,-1.9655 -3.1462,-3.712 -0.6559,-3.3176 1.3453,-2.6567 1.2549,-4.5133 2.5521,-1.2084 2.6847,0.1318 2.5455,1.4791 -1.698,-8.6122 1.698,-9.5825 -1.8692,-4.4246 -6.1223,-6.5965 1.0885,-3.941 2.9002,-4.5669 5.4688,-3.8486 2.9007,-0.3969 3.225,-0.1094 -2.012,-8.2601 7.3993,-3.0326 9.2188,-1.2129 3.1535,2.0619 0.2427,5.5797 3.5178,5.8224 0.2426,4.6094 8.4909,-0.6066 7.8843,0.7279 -7.8843,-4.7307 1.3343,-5.701 4.9731,-7.763 4.8521,-2.0622 3.8814,1.5769 1.577,3.1538 8.1269,6.1861 1.5769,-1.3343 12.7363,-0.485 2.5473,2.0619 0.2426,3.6391 -0.849,1.5767 -0.6066,9.8251 -4.2454,8.4909 0.7276,3.7605 2.5475,-1.3343 7.1566,-6.6716 3.5175,-0.2424 3.8815,1.5769 3.8818,2.9109 1.9406,6.3077 11.4021,-0.7277 6.914,2.6686 5.5797,5.2157 4.0028,7.5206 0.9706,8.8546 -0.8493,10.3105 -2.1832,9.2185 -2.1836,2.9112 -3.0322,0.9706 -5.3373,-5.8224 -4.8518,-1.6982 -4.2455,7.0353 -4.2454,3.8815 -2.3049,1.4556 -9.2185,7.6419 -7.3993,4.0028 -7.3993,0.6066 -8.6119,-1.4556 -7.5206,-2.7899 -5.2158,-4.2454 -4.1241,-4.9734 -4.2454,-1.2129"
         id="path130" /></clipPath></defs><g
     transform="matrix(1.25,0,0,-1.25,-37.439415,223.03962)"
     id="g10"><path
       d="m 466.7854,48.4472 c 10.0593,0 20.1186,0 30.1784,0 1.2456,5.6685 2.4914,11.3363 3.7372,17.0045 8.6128,0 17.5037,-0.0556 26.117,-0.0556 4.2058,0 7.9291,1.3062 11.2369,3.5413 3.9923,2.6978 6.9732,6.8315 8.0929,11.9316 1.8935,8.627 3.7987,17.2525 5.703,25.877 1.0862,4.924 2.4993,10.4842 -1.0315,14.9314 -3.2474,4.0921 -7.5575,4.4102 -12.2893,4.4102 -34.0725,-0.0374 -68.1463,8e-4 -102.2191,8e-4 -3.4395,0 -6.3207,-1.1123 -9.3271,-2.6625 -2.8202,1.9941 -5.3654,2.6625 -8.8234,2.6625 -15.5891,0 -31.1791,0 -46.7682,0 1.277,5.7462 2.5537,11.4923 3.8304,17.2381 -10.0746,0 -20.1498,0 -30.225,0 -1.2455,-5.6058 -2.4913,-11.2116 -3.7372,-16.8174 -8.8605,0 -17.721,0 -26.5818,0 -3.6715,0 -7.1981,-1.152 -10.2768,-3.13 -2.9849,1.8567 -5.2866,2.6629 -8.8225,2.6629 -29.2465,0 -58.4924,0 -87.7388,0 1.3393,5.8234 2.6787,11.6475 4.0175,17.4716 -10.0593,0.0153 -20.1186,0.0309 -30.1782,0.0465 -5.7994,-25.939 -11.5988,-51.878 -17.3982,-77.8167 10.05,-0.0029 20.0999,-0.0057 30.1493,-0.0085 3.0234,13.2749 6.0463,26.5501 9.0692,39.8253 3.4004,0 6.8008,0 10.2021,0 1.2141,0 0.9752,-0.6916 0.7716,-1.6055 -2.8593,-12.7398 -5.7189,-25.4801 -8.5779,-38.2198 66.6258,0 133.2519,-3e-4 199.8794,-3e-4 3.3913,0 6.0451,0.7013 9.0981,2.2581 3.0084,-2.0101 5.667,-2.6779 9.3427,-2.6462 l 46.2945,0.3884 c -1.2418,-5.7626 -2.4834,-11.5251 -3.7252,-17.2877 z m -130.5457,57.0575 c -2.9653,0 -5.9309,0 -8.8971,0 -1.5607,0 -1.9814,-0.7118 -2.2918,-2.111 -1.114,-4.9961 -2.2275,-9.993 -3.3415,-14.9885 -0.3175,-1.436 0.4091,-1.6707 1.6657,-1.6707 2.8865,0 5.773,0 8.6592,0 1.4021,6.2566 2.8038,12.5132 4.2055,18.7702 z m 51.0372,-0.3623 c 3.1678,0 6.3355,0 9.5035,0 1.8289,0 1.7288,-0.959 1.3997,-2.4404 -1.0885,-4.8937 -2.177,-9.7883 -3.2652,-14.6823 -0.3796,-1.709 -1.4443,-1.6798 -2.9126,-1.6798 -3.2236,0 -6.4471,0 -9.671,0 -1.4207,0 -1.4332,0.8399 -1.1806,1.9885 1.0843,4.8929 2.1696,9.7863 3.2519,14.6792 0.4008,1.8131 1.1146,2.1348 2.8743,2.1348 z m 62.559,0 c 3.1677,0 6.3354,0 9.5034,0 1.8289,0 1.7289,-0.959 1.3995,-2.4404 -1.0882,-4.8937 -2.177,-9.7883 -3.265,-14.6823 -0.3795,-1.709 -1.4442,-1.6798 -2.9129,-1.6798 -3.2232,0 -6.4468,0 -9.6706,0 -1.4208,0 -1.4332,0.8399 -1.1809,1.9885 1.0842,4.8929 2.1699,9.7863 3.2521,14.6792 0.4009,1.8131 1.1146,2.1348 2.8744,2.1348 z M 505.6248,86.199 c 2.9653,0 5.9309,0 8.8971,0 1.5608,0 1.9817,0.7118 2.2918,2.111 1.114,4.996 2.2275,9.993 3.3415,14.9885 0.3175,1.436 -0.409,1.6707 -1.6656,1.6707 -2.8865,0 -5.7728,0 -8.6593,0 -1.402,-6.2566 -2.8037,-12.5133 -4.2055,-18.7702"
       id="path20"
       style="fill:#000000;fill-opacity:1;fill-rule:evenodd;stroke:none" /><path
       d="m 380.3187,121.7149 37.9055,0 c 5.9156,0 9.6826,-4.8405 8.3724,-10.7547 L 419.8431,80.4747 C 418.5329,74.56 412.6207,69.7201 406.7059,69.7201 l -37.9052,0 c -5.9147,0 -9.6828,4.8393 -8.3724,10.7546 l 6.7533,30.4855 c 1.3107,5.9156 7.2218,10.7547 13.1371,10.7547 z m 6.8709,-12.2392 18.7413,0 c 3.1314,0 5.1245,-2.5614 4.4314,-5.6905 l -3.5745,-16.136 c -0.6933,-3.1289 -3.8222,-5.6902 -6.9525,-5.6902 l -18.7416,0 c -3.1303,0 -5.1244,2.5608 -4.4311,5.6902 l 3.5745,16.136 c 0.6934,3.1303 3.8211,5.6905 6.9525,5.6905"
       id="path22"
       style="fill:#1f1917;fill-opacity:1;fill-rule:evenodd;stroke:none" /><path
       d="m 442.8031,121.7149 37.9058,0 c 5.9159,0 9.6828,-4.8405 8.3726,-10.7547 L 482.3283,80.4747 C 481.0178,74.56 475.1056,69.7201 469.1906,69.7201 l -37.9055,0 c -5.9148,0 -9.6829,4.8393 -8.3724,10.7546 l 6.7533,30.4855 c 1.3107,5.9156 7.2218,10.7547 13.1371,10.7547 z m 6.8709,-12.2392 18.7421,0 c 3.1312,0 5.1242,-2.5614 4.4309,-5.6905 l -3.5745,-16.136 c -0.6934,-3.1289 -3.822,-5.6902 -6.9523,-5.6902 l -18.7421,0 c -3.1303,0 -5.1245,2.5608 -4.4311,5.6902 l 3.5745,16.136 c 0.6933,3.1303 3.8211,5.6905 6.9525,5.6905"
       id="path24"
       style="fill:#1f1917;fill-opacity:1;fill-rule:evenodd;stroke:none" /><path
       d="m 494.5663,121.7149 45.4941,0 c 5.9156,0 9.6823,-4.8416 8.3724,-10.7547 L 541.6795,80.4747 C 540.3696,74.562 534.4546,69.717 528.5424,69.7201 l -45.4941,0.0218 11.518,51.973 z m 11.8928,-12.2392 21.3083,0 c 3.1311,0 5.1239,-2.5619 4.4311,-5.6905 l -3.5745,-16.136 c -0.6931,-3.1274 -3.8231,-5.6902 -6.9525,-5.6902 l -21.3273,0"
       id="path26"
       style="fill:#1f1917;fill-opacity:1;fill-rule:evenodd;stroke:none" /><path
       d="m 354.9277,70.1291 -45.4938,0 c -5.9156,0 -9.6826,4.8419 -8.3724,10.7552 l 6.7532,30.485 c 1.3099,5.9136 7.2247,10.758 13.1375,10.7546 l 45.4941,-0.0213 -11.5186,-51.9735 z m -11.8928,12.2395 -21.3083,0 c -3.1309,0 -5.1239,2.5625 -4.4308,5.69 l 3.5745,16.1365 c 0.693,3.1277 3.8228,5.6905 6.9522,5.6905 l 21.3276,0"
       id="path30"
       style="fill:#1f1917;fill-opacity:1;fill-rule:evenodd;stroke:none" /><path
       d="m 199.1307,121.7149 34.7729,0 c 5.9154,0 9.6826,-4.8396 8.3727,-10.7547 l -4.9374,-22.2865 -14.6446,0 3.3477,15.1115 c 0.6928,3.1303 -1.3019,5.6905 -4.4314,5.6905 l -21.5444,0 c -3.1289,0 -0.324,-2.5619 -1.0165,-5.6905 l -3.3035,-14.9097 -14.6449,0 4.8928,22.0847 c 1.3102,5.9156 7.221,10.7547 13.1366,10.7547"
       id="path34"
       style="fill:#1f1917;fill-opacity:1;fill-rule:evenodd;stroke:none" /><path
       d="m 176.9706,70.1291 9.9961,44.9927 14.605,0 -10.012,-44.9927"
       id="path36"
       style="fill:#1f1917;fill-opacity:1;fill-rule:evenodd;stroke:none" /><path
       d="m 295.5762,70.1291 -48.6264,0 c -5.9148,0 -9.6829,4.841 -8.3727,10.7552 l 1.9593,8.8456 0.009,0 0.3767,1.701 c 1.3093,5.9137 7.2238,10.7572 13.1372,10.7547 l 34.0239,-0.0153 0.502,2.2586 c 0.5341,2.948 -1.3243,5.3371 -4.2465,5.4567 l -39.3863,0 2.7113,12.2335 48.8784,-0.0139 c 5.7932,-0.1142 9.4564,-4.9068 8.1621,-10.7512 l -0.9199,-4.152 0.008,0 -1.1166,-5.038 0.0108,0 -5.7356,-25.8803 -0.0108,0 -1.364,-6.1546 z m -37.7978,12.2395 25.9047,0 1.6844,7.5784 -25.4614,0 c -0.1224,0.0125 -0.2486,0.0196 -0.3773,0.0196 l 0,0 c -2.0857,0 -4.168,-1.7059 -4.6278,-3.7914 l 0,0 c -0.455,-2.0613 0.8382,-3.7511 2.8811,-3.7913 -0.001,-0.0051 -0.002,-0.0105 -0.004,-0.0153"
       id="path42"
       style="fill:#1f1917;fill-opacity:1;fill-rule:evenodd;stroke:none" /><path
       d="m 380.3187,121.7149 37.9055,0 c 5.9156,0 9.6826,-4.8405 8.3724,-10.7547 L 419.8431,80.4747 C 418.5329,74.56 412.6207,69.7201 406.7059,69.7201 l -37.9052,0 c -5.9147,0 -9.6828,4.8393 -8.3724,10.7546 l 6.7533,30.4855 c 1.3107,5.9156 7.2218,10.7547 13.1371,10.7547 z m 6.8709,-12.2392 18.7413,0 c 3.1314,0 5.1245,-2.5614 4.4314,-5.6905 l -3.5745,-16.136 c -0.6933,-3.1289 -3.8222,-5.6902 -6.9525,-5.6902 l -18.7416,0 c -3.1303,0 -5.1244,2.5608 -4.4311,5.6902 l 3.5745,16.136 c 0.6934,3.1303 3.8211,5.6905 6.9525,5.6905"
       id="path44"
       style="fill:#66ccff;fill-opacity:1;fill-rule:evenodd;stroke:none" /><path
       d="m 442.8031,121.7149 37.9058,0 c 5.9159,0 9.6828,-4.8405 8.3726,-10.7547 L 482.3283,80.4747 C 481.0178,74.56 475.1056,69.7201 469.1906,69.7201 l -37.9055,0 c -5.9148,0 -9.6829,4.8393 -8.3724,10.7546 l 6.7533,30.4855 c 1.3107,5.9156 7.2218,10.7547 13.1371,10.7547 z m 6.8709,-12.2392 18.7421,0 c 3.1312,0 5.1242,-2.5614 4.4309,-5.6905 l -3.5745,-16.136 c -0.6934,-3.1289 -3.822,-5.6902 -6.9523,-5.6902 l -18.7421,0 c -3.1303,0 -5.1245,2.5608 -4.4311,5.6902 l 3.5745,16.136 c 0.6933,3.1303 3.8211,5.6905 6.9525,5.6905"
       id="path46"
       style="fill:#66ccff;fill-opacity:1;fill-rule:evenodd;stroke:none" /><path
       d="m 618.21875,114.09375 -11.875,53.5 -2.53125,11.46875 -4.8125,21.78125 18.21875,0 4.84375,-21.78125 38.625,0.0312 c 7.39025,0.004 14.76887,-6.04662 16.40625,-13.4375 l 8.4375,-38.09375 C 687.16863,120.17108 682.457,114.0937 675.0625,114.0937 l -56.84375,0 z m 14.84375,15.3125 26.65625,0 c 3.91387,0 6.39725,3.21425 5.53125,7.125 l -4.46875,20.15625 c -0.86637,3.90925 -4.77575,7.125 -8.6875,7.125 l -26.65625,0 7.625,-34.40625 z"
       transform="matrix(0.8,0,0,-0.8,0,213)"
       id="path48"
       style="fill:#66ccff;fill-opacity:1;fill-rule:evenodd;stroke:none" /><path
       d="m 444.65625,91.84375 -4.84375,21.78125 -38.625,-0.0312 c -7.391,-0.004 -14.76887,6.0455 -16.40625,13.4375 l -8.46875,38.125 c -1.63775,7.39163 3.07425,13.4375 10.46875,13.4375 l 56.875,0 14.40625,-64.96875 4.8125,-21.78125 -18.21875,0 z m -34.875,37.0625 26.65625,0 -7.65625,34.375 -26.625,0 c -3.91362,0 -6.39763,-3.18438 -5.53125,-7.09375 L 401.09375,136 c 0.86625,-3.90963 4.77575,-7.09375 8.6875,-7.09375 z"
       transform="matrix(0.8,0,0,-0.8,0,213)"
       id="path52"
       style="fill:#66ccff;fill-opacity:1;fill-rule:evenodd;stroke:none" /><path
       d="m 240.40625,91.84375 -7.375,33.25 0.0937,0 -0.3125,1.3125 c -0.11692,0.38028 -0.22648,0.76786 -0.3125,1.15625 l -6.125,27.59375 0.0625,0 -5.21875,23.4375 18.21875,0 5.21875,-23.4375 0.0312,0 4.125,-18.625 c 0.007,-0.0297 -0.006,-0.0641 0,-0.0937 l 1.59375,-7.03125 26.59375,0 c 3.91188,0 6.4285,3.21212 5.5625,7.125 l -4.1875,18.875 -5.125,23.1875 18.25,0 5.15625,-23.1875 0.0312,0 6.15625,-27.84375 c 1.63738,-7.39387 -3.0745,-13.46875 -10.46875,-13.46875 l -38.65625,0 4.9375,-22.25 -18.25,0 z"
       transform="matrix(0.8,0,0,-0.8,0,213)"
       id="path56"
       style="fill:#66ccff;fill-opacity:1;fill-rule:evenodd;stroke:none" /><path
       d="m 295.5762,70.1291 -48.6264,0 c -5.9148,0 -9.6829,4.841 -8.3727,10.7552 l 1.9593,8.8456 0.009,0 0.3767,1.701 c 1.3093,5.9137 7.2238,10.7572 13.1372,10.7547 l 34.0239,-0.0153 0.502,2.2586 c 0.5341,2.948 -1.3243,5.3371 -4.2465,5.4567 l -39.3863,0 2.7113,12.2335 48.8784,-0.0139 c 5.7932,-0.1142 9.4564,-4.9068 8.1621,-10.7512 l -0.9199,-4.152 0.008,0 -1.1166,-5.038 0.0108,0 -5.7356,-25.8803 -0.0108,0 -1.364,-6.1546 z m -37.7978,12.2395 25.9047,0 1.6844,7.5784 -25.4614,0 c -0.1224,0.0125 -0.2486,0.0196 -0.3773,0.0196 l 0,0 c -2.0857,0 -4.168,-1.7059 -4.6278,-3.7914 l 0,0 c -0.455,-2.0613 0.8382,-3.7511 2.8811,-3.7913 -0.001,-0.0051 -0.002,-0.0105 -0.004,-0.0153"
       id="path64"
       style="fill:#66ccff;fill-opacity:1;fill-rule:evenodd;stroke:none" /><path
       d="M 54.14,102.0444 C 53.5419,100.4165 52.943,98.788 52.3449,97.1592 50.8637,95.6934 49.3826,94.225 47.901,92.7584 46.2815,91.154 45.9332,91.165 46.3136,88.8956 c 0.4467,-2.6665 1.7288,-5.4144 4.089,-7.7808 2.4814,-2.4874 7.6915,-6.0077 11.4406,-4.3483 -0.3484,-1.2598 -0.811,-2.5807 -1.3998,-3.8722 -2.514,-5.5122 3.6128,-6.5919 7.9005,-7.7516 3.5634,-0.9635 12.3086,-3.5311 13.5706,1.1523 0.5675,2.1073 0.6556,3.2397 0.4535,5.2517 1.1089,2.475 1.463,2.8696 2.3808,4.2316 1.2595,1.868 1.169,2.579 0.8935,4.8971 -0.0533,0.4468 -0.1182,0.934 -0.1933,1.446 4.2434,-0.6384 8.3233,-0.6307 12.4818,-0.1148 -1.2626,-0.7356 -2.5288,-1.3799 -4.1987,-2.2385 -3.9634,-2.0373 -0.2285,-8.0479 1.4797,-10.6801 3.585,-5.5245 6.7994,-9.3254 12.8554,-6.0483 2.0344,1.1012 2.1914,2.2742 3.4611,4.17 0.7013,0.3847 4.3157,3.4586 6.4652,5.1951 0.8147,-0.9774 2.3741,-1.1574 4.739,-1.3283 1.19,-0.0865 5.8567,-0.057 7.0937,-0.0649 3.7111,-0.0233 5.9383,0.3619 6.2286,4.4064 0.1375,1.9179 0.0552,2.3258 -0.8884,4.0023 -0.057,2.1157 -0.1134,4.2318 -0.1698,6.347 -0.0646,2.3831 -0.5196,3.8449 -1.4547,6.0713 -0.8504,2.0219 -1.3267,3.7476 -2.3196,5.7084 0.1363,0.7687 0.2443,1.5619 0.3177,2.3907 1.2617,-1.2152 2.5231,-2.4313 3.7849,-3.6468 2.4051,-2.3167 4.3925,-4.2089 8.0597,-4.0357 3.8191,0.18 8.1913,3.1887 9.311,6.869 0.3733,1.2285 0.7455,2.4567 1.1188,3.6847 5.7594,-1.0885 12.4903,-0.8393 17.5051,1.8363 7.3754,3.9362 10.8263,11.8499 11.6745,20.2212 0.6862,6.772 -0.6347,18.1599 -3.8634,24.3389 -0.9493,1.817 -5.2364,4.1161 -7.1158,2.2116 -1.4159,-1.4352 -2.3885,-3.6216 -3.9172,-4.9278 -1.184,-1.0117 -2.6507,-1.5126 -3.9359,-2.0421 -0.995,2.6861 -2.425,4.7739 -4.176,6.8601 -1.3924,1.658 -2.7043,2.4843 -4.5405,3.6341 -3.6284,2.2722 -6.444,5.1406 -9.7455,7.8624 -9.9905,8.2375 -18.5698,7.9849 -31.0176,2.7457 -5.9386,-2.4999 -8.803,-5.8924 -12.4455,-10.7649 -2.2011,-0.1148 -3.7134,-0.5411 -6.0401,-2.5945 -1.7175,-1.5157 -3.3165,-3.0751 -4.8642,-4.6908 -11.6357,-1.8544 -18.862,-4.0717 -26.5071,-10.8493 -3.111,-2.7581 -5.3725,-5.8145 -7.1365,-9.2503 -1.6376,-1.8097 -3.2658,-3.6647 -5.428,-4.4972 -1.5222,-0.5854 -1.4939,-0.5839 -2.0302,0.8478 1.8099,1.3601 1.7813,3.9204 1.9488,6.2377 1.1418,-0.0544 1.5698,-1.3351 2.3462,-2.3151 0.4581,2.0492 0.7237,5.2316 -1.4329,6.3485 0.3507,0.9374 0.7475,1.8822 1.1109,2.916 -3.181,-0.5522 -14.0867,-7.903 -8.2678,-13.5094 0.383,-1.5567 0.6846,-2.6291 1.1906,-3.6816 1.3314,-2.7689 4.3251,-3.2434 6.9338,-2.226 -0.7149,-3.2777 -0.8598,-6.844 -0.4295,-11.8503 0.1032,-1.2002 0.2764,-2.4111 0.5094,-3.6255"
       id="path66"
       style="fill:#000000;fill-opacity:1;fill-rule:evenodd;stroke:none" /><path
       d="m 54.8311,101.791 c -0.2401,-0.6542 -0.4813,-1.3096 -0.7217,-1.9641 l -1.3822,0.5068 c 0.2404,0.6545 0.4817,1.3099 0.7217,1.9641 l 1.3822,-0.5068 z m -0.7217,-1.9641 c -0.3577,-0.9732 -0.716,-1.9477 -1.0735,-2.9211 l -1.3821,0.5068 c 0.3574,0.9734 0.7157,1.948 1.0734,2.9211 l 1.3822,-0.5068 z m -1.0735,-2.9211 -0.1729,-0.2676 -0.5181,0.521 0.691,-0.2534 z M 52.863,96.6382 c -0.7846,-0.7767 -1.5701,-1.5548 -2.355,-2.3321 l -1.0363,1.042 c 0.7849,0.7773 1.5703,1.5554 2.355,2.3321 l 1.0363,-1.042 z m -2.355,-2.3321 c -0.6959,-0.6894 -1.3927,-1.3796 -2.0889,-2.0687 l -1.0363,1.042 c 0.6962,0.6891 1.3929,1.3793 2.0889,2.0687 l 1.0363,-1.042 z M 48.4191,92.2374 C 48.1008,91.9225 47.9928,91.8184 47.897,91.726 l -1.0193,1.0653 c 0.2126,0.2046 0.4473,0.4308 0.5051,0.4881 l 1.0363,-1.042 z M 47.897,91.726 c -0.9428,-0.9076 -1.1293,-1.0876 -0.8578,-2.7093 l -1.4513,-0.2421 c -0.4002,2.3893 -0.121,2.6586 1.2898,4.0167 L 47.897,91.726 z m -0.8578,-2.7093 c 0.2189,-1.3057 0.6531,-2.638 1.3346,-3.9348 l -1.3073,-0.6854 c -0.7521,1.4309 -1.2334,2.914 -1.4786,4.3781 l 1.4513,0.2421 z m 1.3346,-3.9348 c 0.6327,-1.2045 1.4749,-2.3709 2.5498,-3.4489 l -1.0421,-1.0364 c -1.1928,1.1963 -2.122,2.4809 -2.815,3.7999 l 1.3073,0.6854 z m 2.5498,-3.4489 c 1.3753,-1.3788 3.6204,-3.0872 5.957,-3.975 l -0.5182,-1.3766 c -2.5535,0.9703 -4.9921,2.8231 -6.4809,4.3152 l 1.0421,1.0364 z m 5.957,-3.975 c 1.6254,-0.6177 3.2819,-0.8303 4.6661,-0.2177 l 0.593,-1.3476 c -1.7856,-0.7903 -3.822,-0.5545 -5.7773,0.1887 l 0.5182,1.3766 z m 4.6661,-0.2177 1.4221,0.6295 -0.4144,-1.4992 -0.7112,0.1959 -0.2965,0.6738 z m 1.0077,-0.8697 c -0.1848,-0.6687 -0.4011,-1.3544 -0.6497,-2.0421 l -1.3878,0.5012 c 0.2358,0.6528 0.4407,1.3014 0.6151,1.9326 l 1.4224,-0.3917 z M 61.9047,74.5285 C 61.6725,73.887 61.4098,73.2368 61.1144,72.589 l -1.3419,0.6106 c 0.2741,0.6013 0.5221,1.2158 0.7444,1.8301 l 1.3878,-0.5012 z M 61.1144,72.589 c -1.2453,-2.7303 0.0598,-4.168 2.0826,-5.0907 l -0.6106,-1.3419 c -2.7677,1.2622 -4.5459,3.2451 -2.8139,7.0432 l 1.3419,-0.6106 z m 2.0826,-5.0907 c 1.2926,-0.5893 2.8568,-0.9967 4.3104,-1.3754 l -0.3685,-1.4224 c -1.5273,0.3977 -3.1706,0.826 -4.5525,1.4559 l 0.6106,1.3419 z m 4.3104,-1.3754 c 0.3841,-0.0995 0.7563,-0.1967 1.0236,-0.269 l -0.3742,-1.4224 c -0.3937,0.1066 -0.7061,0.1882 -1.0179,0.269 l 0.3685,1.4224 z m 1.0236,-0.269 c 1.7529,-0.4739 4.7834,-1.343 7.5075,-1.5157 l -0.0924,-1.474 c -2.8545,0.1809 -5.9797,1.078 -7.7893,1.5673 l 0.3742,1.4224 z m 7.5075,-1.5157 c 2.4619,-0.1559 4.6568,0.2588 5.1647,2.1439 l 1.4225,-0.3742 C 81.8719,63.3104 79.062,62.6666 75.9461,62.8642 l 0.0924,1.474 z m 5.1647,2.1439 c 0.2688,0.9986 0.4247,1.7699 0.4896,2.5347 l 1.474,-0.1207 C 83.0965,68.0652 82.9239,67.216 82.6257,66.1079 l -1.4225,0.3742 z m 0.4896,2.5347 c 0.0652,0.7685 0.0385,1.5146 -0.0561,2.4608 l 1.4626,0.1383 c 0.1066,-1.0653 0.1375,-1.8924 0.0675,-2.7198 l -1.474,0.1207 z m -0.0561,2.4608 0.0575,0.3685 0.6738,-0.2994 -0.7313,-0.0691 z m 0.0575,0.3685 c 0.9916,2.2136 1.4003,2.8114 2.122,3.8684 l 1.2149,-0.8294 C 84.3639,73.908 83.986,73.3547 83.0418,71.2474 l -1.3476,0.5987 z m 2.122,3.8684 c 0.0737,0.108 0.1367,0.1999 0.3223,0.4754 l 1.2206,-0.8232 c -0.0468,-0.0697 -0.2004,-0.2945 -0.328,-0.4816 l -1.2149,0.8294 z m 0.3223,0.4754 c 0.5627,0.8348 0.8215,1.3924 0.9043,1.9689 l 1.457,-0.2018 C 86.3813,77.1316 86.055,76.3994 85.3591,75.3667 l -1.2206,0.8232 z m 0.9043,1.9689 c 0.0864,0.6055 -6e-4,1.3283 -0.1318,2.433 l 1.4626,0.1673 c 0.144,-1.213 0.2401,-2.0061 0.1262,-2.8021 l -1.457,0.2018 z m -0.1318,2.433 c -0.036,0.3019 -0.0658,0.5406 -0.0865,0.6965 l 1.457,0.1842 c 0.0442,-0.3313 0.0746,-0.5652 0.0921,-0.7134 L 84.911,80.5918 z m -0.0865,0.6965 c -0.0164,0.125 -0.053,0.3764 -0.104,0.7265 l 1.457,0.2132 c 0.0227,-0.1568 0.057,-0.4014 0.104,-0.7555 l -1.457,-0.1842 z m -0.104,0.7265 -0.1437,0.9831 0.9816,-0.148 -0.1094,-0.7285 -0.7285,-0.1066 z m 0.8379,0.8351 c 2.0849,-0.3135 4.1309,-0.4686 6.1662,-0.4819 l -0.0057,-1.474 c -2.1041,0.0136 -4.221,0.1743 -6.3793,0.4989 l 0.2188,1.457 z m 6.1662,-0.4819 c 2.0415,-0.013 4.072,0.1159 6.1197,0.3699 l 0.1729,-1.4627 C 95.9071,81.0136 93.8171,80.8807 91.7189,80.894 l 0.0057,1.474 z m 6.1197,0.3699 0.455,-1.3705 -0.3685,0.6392 -0.0865,0.7313 z m 0.455,-1.3705 C 97.1096,80.6743 95.9221,80.0637 94.407,79.2853 l -0.6735,1.313 c 1.4953,0.7682 2.6671,1.3709 3.8288,2.0475 l 0.737,-1.2784 z M 94.407,79.2853 c -0.1105,-0.0567 -0.2239,-0.1151 -0.3381,-0.1737 l -0.6736,1.313 c 0.1143,0.0586 0.2277,0.117 0.3382,0.1737 l 0.6735,-1.313 z m -0.3381,-0.1737 c -1.5571,-0.8005 -1.5713,-2.4812 -1.0214,-4.2415 l -1.4048,-0.4377 c -0.7535,2.4117 -0.6531,4.7554 1.7526,5.9922 l 0.6736,-1.313 z m -1.0214,-4.2415 c 0.6239,-1.9979 1.9488,-4.1003 2.7805,-5.3819 l -1.2325,-0.8005 c -0.8762,1.3502 -2.2736,3.57 -2.9528,5.7447 l 1.4048,0.4377 z m 2.7805,-5.3819 c 1.7408,-2.683 3.3826,-4.9419 5.2679,-6.0973 L 100.33,62.1357 c -2.1319,1.3065 -3.8911,3.7109 -5.7345,6.552 l 1.2325,0.8005 z m 5.2679,-6.0973 c 1.7813,-1.0919 3.8642,-1.1931 6.6229,0.2996 l 0.6968,-1.3016 c -3.2967,-1.7842 -5.8499,-1.6237 -8.0856,-0.2532 l 0.7659,1.2552 z m 6.6229,0.2996 c 1.3037,0.7056 1.7413,1.4718 2.3306,2.5044 l 1.2841,-0.7256 c -0.712,-1.2473 -1.2407,-2.1725 -2.9179,-3.0804 l -0.6968,1.3016 z m 2.3306,2.5044 c 0.2345,0.4108 0.4919,0.8609 0.8686,1.4236 l 1.2206,-0.8175 c -0.3016,-0.4504 -0.565,-0.9114 -0.8051,-1.3317 l -1.2841,0.7256 z m 0.8686,1.4236 0.2562,0.2389 0.3541,-0.6477 -0.6103,0.4088 z m 0.2562,0.2389 c 0.4303,0.2362 2.2686,1.7547 4.0564,3.2321 l 0.9388,-1.1344 c -1.8487,-1.5279 -3.7505,-3.0988 -4.2871,-3.3931 l -0.7081,1.2954 z m 4.0564,3.2321 c 0.9204,0.7603 1.8284,1.5106 2.2995,1.891 l 0.9269,-1.1514 c -0.8623,-0.6968 -1.5718,-1.2827 -2.2876,-1.874 l -0.9388,1.1344 z m 2.2995,1.891 0.5646,0.4561 0.4661,-0.5596 -0.5673,-0.4722 -0.4634,0.5757 z m 1.0307,-0.1035 c 0.2939,-0.3526 0.7588,-0.5706 1.3906,-0.7219 l -0.3396,-1.4338 c -0.9422,0.2253 -1.6653,0.5873 -2.1855,1.2112 l 1.1345,0.9445 z m 1.3906,-0.7219 c 0.7254,-0.1735 1.6784,-0.2586 2.833,-0.3416 l -0.1038,-1.474 c -1.2101,0.0873 -2.2203,0.1788 -3.0688,0.3818 l 0.3396,1.4338 z m 2.833,-0.3416 c 0.9054,-0.0655 3.7978,-0.0641 5.6656,-0.0635 l 0,-1.474 c -1.9083,-9e-4 -4.8631,-0.0023 -5.7694,0.0635 l 0.1038,1.474 z M 128.45,71.75 c 0.5924,3e-4 1.0845,3e-4 1.379,-0.0014 l -0.006,-1.474 c -0.294,0.0017 -0.7838,0.0014 -1.3734,0.0014 l 0,1.474 z m 1.379,-0.0014 c 1.7405,-0.0108 3.1204,0.0666 4.0315,0.5828 l 0.7256,-1.2841 c -1.2024,-0.6812 -2.7927,-0.7849 -4.7627,-0.7727 l 0.006,1.474 z m 4.0315,0.5828 c 0.8325,0.4717 1.3328,1.4009 1.4573,3.1385 l 1.474,-0.1038 c -0.1653,-2.3062 -0.9244,-3.5929 -2.2057,-4.3188 l -0.7256,1.2841 z m 1.4573,3.1385 c 0.0637,0.8926 0.0788,1.425 -0.0216,1.8813 l 1.4395,0.317 c 0.142,-0.6458 0.1292,-1.2773 0.0561,-2.3021 l -1.474,0.1038 z m -0.0216,1.8813 c -0.1003,0.457 -0.3367,0.9307 -0.7747,1.7091 l 1.2898,0.72 c 0.5051,-0.8975 0.7826,-1.467 0.9244,-2.1121 l -1.4395,-0.317 z m -0.7747,1.7091 -0.0921,0.3427 0.737,0.0173 -0.6449,-0.36 z m -0.0921,0.3427 c -0.0284,1.0576 -0.0573,2.116 -0.0851,3.1736 l 1.4741,0.0346 c 0.0277,-1.0576 0.0567,-2.1161 0.085,-3.1737 l -1.474,-0.0345 z m -0.0851,3.1736 c -0.028,1.0576 -0.0569,2.1161 -0.0847,3.1734 l 1.474,0.0346 c 0.0278,-1.0573 0.0567,-2.1158 0.0848,-3.1734 l -1.4741,-0.0346 z m -0.0847,3.1734 c -0.0306,1.1356 -0.1534,2.0469 -0.3779,2.933 l 1.4281,0.3572 c 0.2526,-0.9964 0.3901,-2.0086 0.4238,-3.2556 l -1.474,-0.0346 z m -0.3779,2.933 c -0.2265,0.8927 -0.5638,1.7856 -1.0193,2.8704 l 1.3589,0.5703 c 0.4791,-1.1409 0.8374,-2.0931 1.0885,-3.0835 l -1.4281,-0.3572 z m -1.0193,2.8704 c -0.3226,0.767 -0.599,1.5123 -0.8697,2.2428 l 1.3822,0.5068 c 0.258,-0.6962 0.5213,-1.4066 0.8464,-2.1793 l -1.3589,-0.5703 z m 0.5125,2.7524 0,-0.0028 -0.6911,-0.2534 0.6911,0.2562 z m -1.3822,-0.5125 c -0.4212,1.1361 -0.83,2.2383 -1.4298,3.4226 l 1.3187,0.6621 c 0.6296,-1.2429 1.0551,-2.3898 1.4933,-3.5722 l -1.3822,-0.5125 z m -1.4298,3.4226 -0.0663,0.4578 0.7257,-0.1267 -0.6594,-0.3311 z m -0.0663,0.4578 c 0.0726,0.411 0.1335,0.7925 0.1797,1.1381 l 1.457,-0.1843 c -0.0601,-0.4498 -0.1222,-0.8501 -0.1854,-1.2072 l -1.4513,0.2534 z m 0.1797,1.1381 c 0.0417,0.3138 0.0842,0.7067 0.1267,1.1863 l 1.474,-0.1208 c -0.0309,-0.3486 -0.0796,-0.7682 -0.1437,-1.2498 l -1.457,0.1843 z m 0.1267,1.1863 0.1372,1.5412 1.1095,-1.069 -0.5097,-0.5326 -0.737,0.0604 z m 1.2467,0.4722 c 0.7217,-0.695 1.444,-1.3912 2.1657,-2.0866 l -1.0194,-1.0652 c -0.7217,0.6953 -1.4439,1.3915 -2.1656,2.0866 l 1.0193,1.0652 z m 2.1657,-2.0866 1.6191,-1.5601 -1.0193,-1.0653 -1.6192,1.5602 1.0194,1.0652 z m 1.6191,-1.5601 c 1.1687,-1.126 2.2363,-2.149 3.4212,-2.848 l -0.7484,-1.2728 c -1.3266,0.7827 -2.4562,1.8647 -3.6921,3.0555 l 1.0193,1.0653 z m 3.4212,-2.848 c 1.1395,-0.6724 2.4247,-1.0622 4.0943,-0.9833 l 0.0692,-1.4741 c -1.9973,-0.0944 -3.5402,0.3753 -4.9119,1.1846 l 0.7484,1.2728 z m 4.0943,-0.9833 c 1.8017,0.0847 3.7477,0.858 5.3654,2.0514 l 0.8754,-1.186 c -1.8425,-1.3592 -4.0799,-2.2408 -6.1716,-2.3395 l -0.0692,1.4741 z m 5.3654,2.0514 c 1.5438,1.1387 2.7746,2.6495 3.2746,4.2936 l 1.4111,-0.4263 c -0.5973,-1.9633 -2.0279,-3.7383 -3.8103,-5.0533 l -0.8754,1.186 z m 3.2746,4.2936 c 0.1724,0.5675 0.345,1.1356 0.5171,1.7028 l 1.411,-0.4263 c -0.172,-0.5672 -0.3447,-1.1353 -0.517,-1.7028 l -1.4111,0.4263 z m 0.5171,1.7028 c 0.2001,0.6605 0.4013,1.3218 0.6018,1.982 l 1.411,-0.4264 c -0.2004,-0.6601 -0.4016,-1.3215 -0.6018,-1.9819 l -1.411,0.4263 z m 0.6018,1.982 0.1921,0.6321 0.6486,-0.1227 -0.1352,-0.7226 -0.7055,0.2132 z m 0.8407,0.5094 c 2.9846,-0.5641 6.2348,-0.7611 9.3583,-0.4337 l 0.144,-1.4627 c -3.2658,-0.3424 -6.6594,-0.1369 -9.7727,0.4513 l 0.2704,1.4451 z m 9.3583,-0.4337 c 2.7442,0.2877 5.3909,0.9844 7.666,2.1982 l 0.6911,-1.3016 c -2.4443,-1.3043 -5.2787,-2.0515 -8.2131,-2.3593 l -0.144,1.4627 z m 7.666,2.1982 c 3.3324,1.7785 5.8351,4.4054 7.6371,7.5269 l 1.2784,-0.7314 c -1.9363,-3.3539 -4.6306,-6.1792 -8.2244,-8.0971 l -0.6911,1.3016 z m 7.6371,7.5269 0,0.003 0.6392,-0.3685 -0.6392,0.3657 z m 0,0.003 c 2.0591,3.5666 3.2125,7.7749 3.6516,12.1099 l 1.4627,-0.1383 c -0.4604,-4.5445 -1.6719,-8.9604 -3.8359,-12.7086 l -1.2784,0.737 z m 3.6516,12.1099 c 0.3577,3.5328 0.1596,8.3509 -0.58,13.0107 l 1.4514,0.2302 c 0.7585,-4.7789 0.9604,-9.7342 0.5913,-13.3792 l -1.4627,0.1383 z m -0.58,13.0107 c -0.6522,4.1103 -1.7251,8.0853 -3.2057,10.9191 l 1.3074,0.6797 c 1.5537,-2.9738 2.6739,-7.109 3.3497,-11.3686 l -1.4514,-0.2302 z m -3.2057,10.9191 c -0.1159,0.2222 -0.3086,0.4646 -0.5561,0.7089 l 1.0307,1.054 c 0.3554,-0.3513 0.6434,-0.72 0.8328,-1.0832 l -1.3074,-0.6797 z m -0.5561,0.7089 c -0.6319,0.6234 -1.5707,1.2138 -2.543,1.5483 l 0.4779,1.3935 c 1.181,-0.4062 2.3239,-1.1262 3.0958,-1.8878 l -1.0307,-1.054 z m -2.543,1.5483 c -0.902,0.3104 -1.811,0.396 -2.4602,0.0567 l -0.6797,1.3073 c 1.0474,0.5474 2.3666,0.4598 3.6178,0.0295 l -0.4779,-1.3935 z m -2.4602,0.0567 c -0.136,-0.0709 -0.263,-0.1633 -0.3758,-0.2778 l -1.054,1.0307 c 0.2257,0.2287 0.4782,0.4127 0.7501,0.5544 l 0.6797,-1.3073 z m -0.3758,-0.2778 c -0.6027,-0.6109 -1.1316,-1.3833 -1.6617,-2.1577 l -1.2149,0.8294 c 0.5726,0.8368 1.1443,1.6713 1.8226,2.359 l 1.054,-1.0307 z m -1.6617,-2.1577 c -0.6973,-1.0185 -1.3978,-2.0415 -2.3046,-2.8162 l -0.9558,1.123 c 0.7668,0.6551 1.4077,1.5911 2.0455,2.5226 l 1.2149,-0.8294 z m -2.3046,-2.8162 c -1.11,-0.9485 -2.3969,-1.4647 -3.592,-1.944 l -0.5471,1.3702 c 1.0868,0.4357 2.2569,0.9054 3.1833,1.6968 l 0.9558,-1.123 z m -3.592,-1.944 c -0.2084,-0.0834 -0.4128,-0.1656 -0.5426,-0.2189 l -0.5584,1.3646 c 0.229,0.0941 0.392,0.1596 0.5539,0.2245 l 0.5471,-1.3702 z m -0.5426,-0.2189 -0.7038,-0.29 -0.2665,0.7189 0.6911,0.2534 0.2792,-0.6823 z m -0.9703,0.4289 c -0.4765,1.2869 -1.0613,2.4364 -1.7382,3.517 l 1.2495,0.7829 c 0.7243,-1.156 1.353,-2.3944 1.8709,-3.7931 l -1.3822,-0.5068 z m -1.7382,3.517 c -0.684,1.0921 -1.4595,2.1095 -2.3111,3.1243 l 1.1288,0.9445 c 0.8986,-1.0709 1.7149,-2.1416 2.4318,-3.2859 l -1.2495,-0.7829 z m -2.3111,3.1243 c -0.6579,0.7835 -1.2963,1.3703 -1.9856,1.8952 l 0.8923,1.169 c 0.7733,-0.589 1.4879,-1.2455 2.2221,-2.1197 l -1.1288,-0.9445 z m -1.9856,1.8952 c -0.688,0.5242 -1.4698,1.0154 -2.382,1.5863 l 0.7829,1.2495 c 0.9236,-0.5782 1.7164,-1.0763 2.4914,-1.6668 l -0.8923,-1.169 z m -2.382,1.5863 c -2.5699,1.6092 -4.7239,3.4988 -6.9214,5.4267 l 0.9672,1.1111 c 2.1512,-1.8873 4.2599,-3.7369 6.7371,-5.2883 l -0.7829,-1.2495 z m -6.9214,5.4267 c -0.9252,0.8112 -1.8586,1.6302 -2.9021,2.4905 l 0.9389,1.1401 c 0.9657,-0.7963 1.9528,-1.662 2.9304,-2.5195 l -0.9672,-1.1111 z m -2.9021,2.4905 c -4.8676,4.0135 -9.3756,5.9581 -14.1641,6.2597 l 0.0924,1.474 c 5.1103,-0.3217 9.8884,-2.3703 15.0106,-6.5936 l -0.9389,-1.1401 z m -14.1641,6.2597 c -4.824,0.3036 -9.9788,-1.0474 -16.0988,-3.6235 l -0.5704,1.3589 c 6.327,2.6632 11.6867,4.0578 16.7616,3.7386 l -0.0924,-1.474 z M 114.9673,164.87 c -2.8843,-1.2138 -5.0188,-2.6419 -6.8709,-4.3546 l -0.9961,1.0828 c 1.9749,1.8264 4.2429,3.3455 7.2966,4.6307 l 0.5704,-1.3589 z m -6.8709,-4.3546 c -1.8661,-1.7257 -3.4705,-3.7644 -5.2696,-6.1713 l -1.1804,0.881 c 1.8428,2.4653 3.4932,4.5598 5.4539,6.3731 l 0.9961,-1.0828 z m -5.2696,-6.1713 -0.2081,-0.2786 -0.3447,-0.0179 -0.0374,0.737 0.5902,-0.4405 z m -0.5528,-0.2965 c -1.025,-0.0533 -1.8833,-0.1772 -2.7368,-0.5185 l -0.5471,1.3703 c 1.0335,0.4133 2.0327,0.5613 3.2091,0.6222 l 0.0748,-1.474 z m -2.7368,-0.5185 c -0.8666,-0.3463 -1.7598,-0.926 -2.854,-1.8918 l -0.9734,1.1055 c 1.2317,1.0871 2.2595,1.7484 3.2803,2.1566 l 0.5471,-1.3703 z m -2.854,-1.8918 c -0.8427,-0.7435 -1.6639,-1.5052 -2.4701,-2.285 l -1.025,1.0596 c 0.809,0.7826 1.647,1.5593 2.5217,2.3309 l 0.9734,-1.1055 z m -2.4701,-2.285 -0.0028,-0.003 -0.5097,0.5326 0.5125,-0.5298 z m -0.0028,-0.003 c -0.7985,-0.7722 -1.5783,-1.5591 -2.3454,-2.3599 l -1.0652,1.0194 c 0.7798,0.8141 1.5746,1.616 2.3913,2.4057 l 1.0193,-1.0652 z m -2.3454,-2.3599 -0.4175,-0.216 -0.1151,0.7257 0.5326,-0.5097 z m -0.4175,-0.216 C 85.686,145.8553 81.017,144.8476 76.847,143.2324 l -0.5296,1.3765 c 4.2634,1.6512 9.0261,2.6799 14.8998,3.6159 l 0.2302,-1.4514 z m -14.6004,-3.541 c -4.1341,-1.6013 -7.7826,-3.8087 -11.5351,-7.1354 l -0.9734,1.1055 c 3.892,3.4506 7.6808,5.7416 11.9789,7.4064 l 0.5296,-1.3765 z M 65.3119,136.097 c -1.5205,-1.3479 -2.8318,-2.7666 -3.9756,-4.2644 l -1.169,0.8923 c 1.205,1.5783 2.581,3.068 4.1712,4.4776 l 0.9734,-1.1055 z m -3.9756,-4.2644 c -1.1443,-1.4984 -2.1276,-3.085 -2.9911,-4.7671 l -1.313,0.6679 c 0.9,1.7532 1.9304,3.4137 3.1351,4.9915 l 1.169,-0.8923 z m -2.9911,-4.7671 -0.1094,-0.1584 -0.5471,0.4924 0.6565,-0.334 z m -0.1094,-0.1584 c -0.8382,-0.9261 -1.6747,-1.8649 -2.5719,-2.6725 l -0.9847,1.0998 c 0.8662,0.7801 1.6634,1.6745 2.4624,2.5574 l 1.0942,-0.9847 z m -2.5719,-2.6725 c -0.9405,-0.8467 -1.9601,-1.5667 -3.1385,-2.0206 l -0.5295,1.3766 c 0.9833,0.3787 1.8601,1.0028 2.6833,1.7438 l 0.9847,-1.0998 z m -3.1385,-2.0206 -0.0028,0 -0.2619,0.6883 0.2647,-0.6883 z m -0.0028,0 c -0.9457,-0.3634 -1.408,-0.5456 -1.9318,-0.3237 l 0.5703,1.359 c 0.0238,-0.01 0.2614,0.1199 0.8376,0.3413 l 0.5239,-1.3766 z m -1.9318,-0.3237 -0.0029,0.003 0.288,0.6766 -0.2851,-0.6795 z m -0.0029,0.003 c -0.5524,0.2344 -0.7066,0.6882 -1.0485,1.6007 l 1.3822,0.5125 c 0.1941,-0.5187 0.1902,-0.7379 0.2423,-0.76 l -0.576,-1.3532 z m -1.0485,1.6007 -0.1922,0.5133 0.4428,0.3331 0.4405,-0.5902 -0.6911,-0.2562 z m 0.2506,0.8464 c 1.3544,1.0177 1.4828,3.0444 1.6061,4.9964 l 1.474,-0.0924 c -0.144,-2.2825 -0.2945,-4.6531 -2.1991,-6.0843 l -0.881,1.1803 z m 1.6061,4.9964 c 0.0159,0.2554 0.0323,0.5093 0.0462,0.703 l 1.474,-0.1038 c -0.0193,-0.2667 -0.0329,-0.4799 -0.0462,-0.6916 l -1.474,0.0924 z m 0.0462,0.703 0.0524,0.7191 0.7192,-0.034 -0.0346,-0.737 -0.737,0.0519 z m 0.7716,0.6851 c 1.2158,-0.0578 1.7697,-0.9156 2.3672,-1.8408 l -1.2382,-0.7949 c -0.3818,0.5913 -0.7361,1.1398 -1.1982,1.1617 l 0.0692,1.474 z m 2.3672,-1.8408 c 0.1667,-0.2583 0.3385,-0.5242 0.5202,-0.7535 l -1.1515,-0.9156 c -0.229,0.2892 -0.4206,0.5857 -0.6069,0.8742 l 1.2382,0.7949 z m 0.6642,-1.3697 -0.3371,-1.5083 -0.9584,1.2089 0.5757,0.4578 0.7198,-0.1584 z m -1.4395,0.3169 c 0.2489,1.1131 0.4397,2.5727 0.1701,3.7675 l 1.4338,0.3226 c 0.3294,-1.4593 0.1182,-3.1428 -0.1644,-4.407 l -1.4395,0.3169 z m 0.1701,3.7675 c -0.1712,0.7597 -0.538,1.4128 -1.22,1.766 l 0.6735,1.313 c 1.1276,-0.5842 1.7189,-1.5968 1.9803,-2.7564 l -1.4338,-0.3226 z m -1.22,1.766 -0.5828,0.3019 0.2284,0.6108 0.6911,-0.2562 -0.3367,-0.6565 z m -0.3544,0.9127 c 0.1089,0.2912 0.2674,0.6954 0.4303,1.1107 l 1.3703,-0.5358 c -0.1275,-0.3251 -0.2554,-0.652 -0.4184,-1.0874 l -1.3822,0.5125 z m 0.4303,1.1107 c 0.2172,0.5544 0.4403,1.123 0.675,1.7909 l 1.3935,-0.4836 c -0.2098,-0.5967 -0.4575,-1.2283 -0.6982,-1.8431 l -1.3703,0.5358 z m 1.2479,2.2748 1.2364,0.2145 -0.4158,-1.182 -0.6968,0.2418 -0.1238,0.7257 z m 0.2477,-1.4514 c -1.4272,-0.2477 -4.5703,-2.0114 -6.8519,-4.3795 l -1.0653,1.0193 c 2.4891,2.5835 6.0245,4.5261 7.6695,4.8116 l 0.2477,-1.4514 z m -6.8519,-4.3795 c -0.8269,-0.8583 -1.5279,-1.7853 -1.9706,-2.73 l -1.3357,0.6162 c 0.5218,1.1135 1.3167,2.1736 2.241,3.1331 l 1.0653,-1.0193 z m -1.9706,-2.73 c -0.4224,-0.9009 -0.6152,-1.823 -0.4598,-2.7182 l -1.4514,-0.2477 c -0.2106,1.2132 0.0326,2.4242 0.5755,3.5821 l 1.3357,-0.6162 z m -0.4598,-2.7182 c 0.1409,-0.8132 0.5777,-1.6308 1.4003,-2.4233 l -1.0194,-1.0653 c -1.0663,1.0276 -1.6387,2.1237 -1.8323,3.2409 l 1.4514,0.2477 z m 1.4003,-2.4233 0.2044,-0.3569 -0.7141,-0.1758 0.5097,0.5327 z m 0.2044,-0.3569 c 0.1871,-0.7614 0.3549,-1.4051 0.5374,-1.9868 l -1.4048,-0.4377 c -0.1902,0.6061 -0.3654,1.2782 -0.5607,2.073 l 1.4281,0.3515 z m 0.5374,-1.9868 c 0.1746,-0.5565 0.3651,-1.0568 0.6041,-1.554 l -1.33,-0.6332 c -0.2668,0.555 -0.4808,1.1185 -0.6789,1.7495 l 1.4048,0.4377 z m 0.6041,-1.554 c 0.5301,-1.1026 1.3688,-1.7739 2.3354,-2.0843 l -0.449,-1.4048 c -1.3362,0.4291 -2.4919,1.349 -3.2164,2.8559 l 1.33,0.6332 z m 2.3354,-2.0843 c 1.1277,-0.362 2.4398,-0.2511 3.6655,0.2268 l 0.5358,-1.3703 c -1.5324,-0.5975 -3.195,-0.7285 -4.6503,-0.2613 l 0.449,1.4048 z m 3.6655,0.2268 1.2799,0.4992 -0.2923,-1.3397 -0.7197,0.1554 -0.2679,0.6851 z m 0.9876,-0.8405 c -0.3472,-1.5928 -0.5567,-3.2621 -0.627,-5.1474 l -1.474,0.0516 c 0.0734,1.9686 0.2945,3.7224 0.6616,5.4065 l 1.4394,-0.3107 z m -0.627,-5.1474 c -0.07,-1.8859 0.0014,-4.0017 0.2149,-6.4871 l -1.4741,-0.1208 c -0.2165,2.5206 -0.288,4.6919 -0.2148,6.6595 l 1.474,-0.0516 z m 0.2149,-6.4871 c 0.0544,-0.6327 0.1196,-1.2155 0.1944,-1.7484 l -1.457,-0.1956 c -0.0927,0.6613 -0.1641,1.2708 -0.2115,1.8232 l 1.4741,0.1208 z m 0.1944,-1.7484 c 0.0825,-0.5873 0.1834,-1.1883 0.3005,-1.7992 l -1.4451,-0.2766 c -0.1185,0.6176 -0.2234,1.2447 -0.3124,1.8802 l 1.457,0.1956 z m 0.3005,-1.7992 -0.0315,-0.3917 -0.6911,0.2534"
       id="path68"
       style="fill:#000000;fill-opacity:1;fill-rule:nonzero;stroke:none" /><path
       d="m 91.7368,146.3253 -9.7039,-1.577 -8.8548,-3.8814 -7.5206,-4.7308 -7.1566,-8.7335 -4.0431,-4.282 -3.9093,-1.4409 -1.034,2.5271 1.8079,2.6096 0.4062,3.6802 1.211,-0.0488 1.3232,-1.2069 -0.3569,3.7488 -1.4667,0.9839 0.0445,1.4286 -3.4744,-1.9655 -3.1462,-3.712 -0.6559,-3.3176 1.3453,-2.6567 1.2549,-4.5133 2.5521,-1.2084 2.6847,0.1318 2.5455,1.4791 -1.698,-8.6122 1.698,-9.5825 -1.8692,-4.4246 -6.1223,-6.5965 1.0885,-3.941 2.9002,-4.5669 5.4688,-3.8486 2.9007,-0.3969 3.225,-0.1094 -2.012,-8.2601 7.3993,-3.0326 9.2188,-1.2129 3.1535,2.0619 0.2427,5.5797 3.5178,5.8224 0.2426,4.6094 8.4909,-0.6066 7.8843,0.7279 -7.8843,-4.7307 1.3343,-5.701 4.9731,-7.763 4.8521,-2.0622 3.8814,1.5769 1.577,3.1538 8.1269,6.1861 1.5769,-1.3343 12.7363,-0.485 2.5473,2.0619 0.2426,3.6391 -0.849,1.5767 -0.6066,9.8251 -4.2454,8.4909 0.7276,3.7605 2.5475,-1.3343 7.1566,-6.6716 3.5175,-0.2424 3.8815,1.5769 3.8818,2.9109 1.9406,6.3077 11.4021,-0.7277 6.914,2.6686 5.5797,5.2157 4.0028,7.5206 0.9706,8.8546 -0.8493,10.3105 -2.1832,9.2185 -2.1836,2.9112 -3.0322,0.9706 -5.3373,-5.8224 -4.8518,-1.6982 -4.2455,7.0353 -4.2454,3.8815 -2.3049,1.4556 -9.2185,7.6419 -7.3993,4.0028 -7.3993,0.6066 -8.6119,-1.4556 -7.5206,-2.7899 -5.2158,-4.2454 -4.1241,-4.9734 -4.2454,-1.2129 -7.3993,-7.0353 z"
       id="path70"
       style="fill:#ffff00;fill-opacity:1;fill-rule:evenodd;stroke:#1f1917;stroke-width:0.21600001;stroke-linecap:butt;stroke-linejoin:miter;stroke-miterlimit:10;stroke-opacity:1;stroke-dasharray:none" /><path
       d="m 63.593,124.4333 c -8.3123,-9.6948 -6.4658,-21.4532 -4.1621,-32.9729 -1.2294,3.1062 -2.4591,6.2121 -3.6884,9.3183 -0.453,2.8474 -0.906,5.6948 -1.359,8.5422 0.1293,2.9121 0.2588,5.8241 0.3884,8.7361 1.1647,2.7825 2.3295,5.565 3.4942,8.3478 1.7473,2.5883 3.4946,5.1769 5.2419,7.7655 2.7178,2.2649 5.4357,4.5298 8.1535,6.7946 2.9767,1.2294 5.9536,2.4591 8.9303,3.6885 3.4943,0.453 6.9888,0.9059 10.4834,1.3589 -3.2358,-3.6884 -6.4712,-7.3772 -9.707,-11.0656 -7.7938,-2.5279 -12.3902,-4.2304 -17.7752,-10.5134"
       id="path72"
       style="fill:#ffffcc;fill-opacity:1;fill-rule:evenodd;stroke:none" /><path
       d="m 102.7233,153.972 c -5.7787,-5.6378 -8.9351,-9.8898 -12.6125,-16.4911 -2.6305,-4.7223 -5.5811,-9.2702 -8.3466,-13.9263 -1.3989,-2.3568 -1.531,-4.3331 -1.9491,-7.0507 -1.3589,1.6178 -2.7178,3.2355 -4.0768,4.8532 0.6472,1.9415 1.2943,3.8829 1.9415,5.8241 2.2002,3.9475 4.4005,7.8951 6.6005,11.8423 4.6593,4.5947 9.3186,9.1891 13.9779,13.7837 1.4882,0.3884 2.9766,0.7765 4.4651,1.1648"
       id="path74"
       style="fill:#ffffcc;fill-opacity:1;fill-rule:evenodd;stroke:none" /><path
       d="m 131.2611,167.9496 c -4.6281,-1.7353 -12.3143,-2.3068 -12.8475,-7.6189 -0.3798,-3.7724 0.2844,-5.6679 2.5583,-9.6591 -5.6163,5.8116 -7.0053,4.9122 -17.8605,3.1062 1.5531,2.2003 3.1062,4.4005 4.6593,6.6008 2.7178,1.6823 5.436,3.365 8.1538,5.0474 3.4943,0.7766 6.9889,1.5531 10.4834,2.3297 1.6177,0.0647 3.2355,0.1293 4.8532,0.1939"
       id="path76"
       style="fill:#ffffcc;fill-opacity:1;fill-rule:evenodd;stroke:none" /><path
       d="m 144.032,96.0956 c 1.5409,-0.951 1.5078,-1.6401 1.2501,-2.2921 1.2155,0.4865 2.4307,0.9726 3.6462,1.4585 0.7875,1.0573 1.5747,2.1143 2.3621,3.1719 0.5845,1.5064 1.169,3.0127 1.7535,4.5193 -0.7469,0.5615 -1.4935,1.1231 -2.2405,1.6849 -3.2641,-0.4167 -6.5284,-0.8334 -9.7925,-1.2501 -0.243,-0.6599 -0.4862,-1.3198 -0.7294,-1.9794 0.0697,-0.9377 0.1392,-1.8751 0.2086,-2.8128 0.3124,-0.5556 0.6251,-1.1115 0.9375,-1.6668 0.4864,-0.2432 0.9725,-0.4864 1.4584,-0.7293 0.3824,-0.0349 0.7642,-0.0698 1.146,-0.1041"
       id="path78"
       style="fill:#cccc00;fill-opacity:1;fill-rule:evenodd;stroke:none" /><path
       d="m 143.1204,112.8424 c -4.9085,-1.417 -4.8702,-1.8073 -6.3198,-6.677 1.9136,3.0702 3.3304,4.6196 6.3198,6.677"
       id="path80"
       style="fill:#cccc00;fill-opacity:1;fill-rule:evenodd;stroke:none" /><path
       d="m 175.7588,149.2849 c -0.8725,-0.4031 -1.722,-0.5972 -2.2674,-1.3955 -1.1744,-1.7181 -2.1807,-3.1634 -4.1227,-4.3696 -0.978,-0.6077 -1.9897,-1.0012 -3.0269,-1.3243 -0.8603,-0.2676 -1.3768,-0.0287 -2.1092,-0.5548 0.4345,-0.0759 0.8688,-0.1519 1.3033,-0.2282 0.9579,0 1.9157,0 2.8735,0 1.1809,0.7294 2.3616,1.4587 3.5422,2.1878 0.6948,0.7294 1.389,1.4584 2.0835,2.1878 0.5745,1.1656 1.1491,2.3315 1.7237,3.4968"
       id="path82"
       style="fill:#cccc00;fill-opacity:1;fill-rule:evenodd;stroke:none" /><path
       d="m 97.5688,138.3917 c -1.9313,-5.2841 -3.6184,-9.8139 -6.5441,-14.5982 3.7488,4.0388 6.0211,7.4716 8.1681,12.0379 0.8339,1.7736 0.9915,3.8551 3.3145,3.081 0.1043,-1.7711 0.4788,-3.5419 0.5831,-5.313 1.2552,8.9975 4.7945,12.7599 13.0221,16.2516 -2.3267,-0.2781 -4.6534,-0.5556 -6.9798,-0.8334 -2.1878,-0.4864 -4.3755,-0.9723 -6.5633,-1.4584 -1.0766,-1.5628 -2.1532,-3.1255 -3.2295,-4.688 -0.5905,-1.4932 -1.1807,-2.9865 -1.7711,-4.4795"
       id="path84"
       style="fill:#cccc00;fill-opacity:1;fill-rule:evenodd;stroke:none" /><path
       d="m 113.508,138.6 c 1.7742,-8.3511 4.3288,-16.3655 5.4386,-24.8491 0.7208,-5.5125 0.7996,-8.1609 -1.9741,-12.9166 -3.0311,0.1959 -4.913,-0.146 -7.8449,-1.1066 -11.6722,-3.8263 -18.3662,-9.4519 -26.2309,1.8833 2.5106,-1.1829 5.0215,-2.3661 7.5319,-3.5496 1.7898,0.3518 3.5796,0.7036 5.3694,1.0554 3.16,1.8405 6.3201,3.6808 9.4802,5.5213 2.4655,0.4864 4.9311,0.9723 7.3964,1.4584 0.7988,3.3336 1.5973,6.6674 2.3961,10.0009 -0.5904,4.4105 -1.1809,8.8206 -1.771,13.2308 -0.0692,2.0834 -0.1387,4.1669 -0.2084,6.2506 0.1392,1.0072 0.2781,2.0141 0.4167,3.0212"
       id="path86"
       style="fill:#cccc00;fill-opacity:1;fill-rule:evenodd;stroke:none" /><path
       d="m 133.6144,86.9278 c -0.9805,-6.7847 2.2575,-10.4321 0.917,-12.3055 -0.3798,-0.5306 -0.8943,-1.4561 -1.4686,-1.7098 -2.0517,-0.9063 -4.8722,0.1695 -5.074,-0.3612 -2.2572,0 -4.5142,0 -6.7717,0 -0.9025,0.3824 -1.8054,0.7643 -2.7085,1.1461 1.389,1.6322 2.7782,3.2644 4.1672,4.8963 1.3541,2.9517 2.7085,5.9037 4.0629,8.8551 0.8683,2.9863 1.7365,5.9726 2.6042,8.9592 0.4516,0 0.9031,0 1.3544,0 0.9726,-3.1601 1.9448,-6.3201 2.9171,-9.4802"
       id="path88"
       style="fill:#cccc00;fill-opacity:1;fill-rule:evenodd;stroke:none" /><path
       d="m 122.233,106.6518 c 0.55,-3.0807 1.5052,-3.8126 2.9543,-6.7946 -0.9646,-4.8648 -2.514,-10.6503 -4.3787,-14.9426 -0.7863,-1.8102 -1.421,-2.8082 -2.8074,-4.2071 -2.3406,-2.3636 -4.7069,-4.4226 -7.3616,-6.4712 -1.9105,-1.4729 -3.2442,-0.7342 -5.6018,-0.4003 -1.0026,-1.8176 -1.2796,-2.8273 -3.1249,-3.75 -2.8381,-1.419 -5.3779,1.639 -7.6054,3.4376 1.6081,-2.5118 3.2162,-5.0235 4.824,-7.5353 1.1115,-1.0417 2.2227,-2.0835 3.3339,-3.1255 0.9374,-0.1386 1.8751,-0.2775 2.8128,-0.4167 1.2501,0.7642 2.5001,1.5282 3.7502,2.2921 0.6599,1.2501 1.3198,2.5002 1.9794,3.7502 1.389,1.0418 2.7783,2.0835 4.167,3.1255 1.7019,1.4584 3.4035,2.9169 5.1049,4.3753 1.0766,1.5282 2.1529,3.056 3.2295,4.5839 0.972,1.8057 1.9446,3.6116 2.9168,5.4173 1.2501,3.7502 2.5002,7.5007 3.7506,11.251 0.104,1.4241 0.2083,2.8477 0.3123,4.2712 -1.5627,0.6948 -3.1252,1.3893 -4.6879,2.0838 -1.146,1.0766 -2.4219,1.9791 -3.568,3.0554"
       id="path90"
       style="fill:#cccc00;fill-opacity:1;fill-rule:evenodd;stroke:none" /><path
       d="m 84.8594,84.9487 c 5.258,0 10.8107,0.2916 15.6265,2.5001 1.3629,2.0446 2.708,3.7143 4.3756,5.5213 -1.5177,-2.8664 -1.9936,-4.4866 -2.3961,-7.7091 -0.5211,-0.7636 -1.0418,-1.5278 -1.5628,-2.2918 -3.9589,-0.1043 -7.9174,-0.2083 -11.8763,-0.3126 -1.2849,0.1391 -2.5699,0.278 -3.8546,0.4167 -0.1388,0.1391 -0.2777,0.278 -0.4166,0.4167 0.0348,0.4864 0.0697,0.9725 0.1043,1.4587"
       id="path92"
       style="fill:#cccc00;fill-opacity:1;fill-rule:evenodd;stroke:none" /><path
       d="m 84.13,88.5949 c -0.136,1.2325 -0.2721,2.4655 -0.4082,3.6986 -0.8983,-5.4071 -0.6823,-9.0306 -3.1708,-13.8742 -1.859,-2.154 -4.1477,-4.1139 -6.7691,-5.1627 0.2213,-1.328 0.2874,-2.1577 0.159,-3.1314 -0.4618,-3.5022 -7.4679,-1.9551 -10.3496,-1.8156 4.6239,-1.1906 9.2478,-2.3808 13.8713,-3.5714 1.0418,0.4167 2.0835,0.8334 3.1255,1.2501 0.3473,2.014 0.6945,4.0283 1.0418,6.0423 0.9722,1.8057 1.9448,3.6116 2.9168,5.417 0.1735,1.1115 0.3473,2.2227 0.521,3.3338 -0.3126,2.6045 -0.625,5.209 -0.9377,7.8135"
       id="path94"
       style="fill:#cccc00;fill-opacity:1;fill-rule:evenodd;stroke:none" /><path
       d="m 76.3166,119.1186 c -0.1454,-2.6291 -0.3152,-3.7253 0.8442,-6.0474 1.474,-2.9515 3.2842,-5.7243 4.8858,-8.6414 0.1734,1.9448 0.3469,3.8894 0.5207,5.8339 -2.0835,2.9518 -4.167,5.9035 -6.2507,8.8549"
       id="path96"
       style="fill:#cccc00;fill-opacity:1;fill-rule:evenodd;stroke:none" /><path
       d="m 54.9312,99.258 c -0.451,-0.9599 -0.902,-1.92 -1.353,-2.8798 1.2413,-4.1808 2.3445,-6.8292 4.7081,-10.4816 -0.4116,-1.48 -0.7197,-2.1274 -1.6668,-3.3336 -2.0801,0.3201 -3.9271,0.4125 -6.0347,0.4062 2.327,-1.8056 4.6537,-3.6113 6.9801,-5.4173 1.1457,0.2084 2.2918,0.4167 3.4378,0.6251 1.1458,1.146 2.2918,2.2918 3.4379,3.4378 -1.6325,2.5351 -3.2644,5.0701 -4.8963,7.6051 -1.5378,3.346 -3.0756,6.6923 -4.6131,10.0381"
       id="path98"
       style="fill:#cccc00;fill-opacity:1;fill-rule:evenodd;stroke:none" /><path
       d="m 175.7741,150.6682 c 1.4168,-6.3754 3.2443,-12.2578 3.0748,-18.7872 -0.2081,-8.0104 -1.7694,-18.1289 -9.1914,-22.9595 -8.3117,-5.4096 -18.0686,-2.851 -27.1882,-0.5332 3.7159,-1.5278 7.4316,-3.0554 11.147,-4.5836 3.4727,-0.1737 6.9454,-0.3472 10.4178,-0.521 2.3616,0.6948 4.7228,1.3893 7.0841,2.0835 1.8405,1.5281 3.6811,3.056 5.5213,4.5839 1.389,2.9168 2.778,5.834 4.1672,8.7508 0.5208,3.3687 1.0418,6.7371 1.5625,10.1052 -0.4167,3.2993 -0.8334,6.598 -1.2501,9.8969 -0.7639,3.2644 -1.5281,6.5288 -2.2918,9.7926 -1.0176,0.724 -2.0353,1.4477 -3.0532,2.1716"
       id="path100"
       style="fill:#cccc00;fill-opacity:1;fill-rule:evenodd;stroke:none" /><path
       d="m 51.7343,131.6673 c -3.7735,-2.4559 -5.2555,-3.5342 -4.8419,-8.0858 0.3759,-1.3632 0.752,-2.7267 1.1282,-4.0898 0.5326,-0.3606 1.0655,-0.7209 1.5982,-1.0815 0.6582,-0.2191 1.3164,-0.4385 1.9746,-0.6579 1.1908,0.2821 2.3817,0.5641 3.5728,0.8462 0.6111,1.8961 1.2223,3.7921 1.8334,5.6882 -1.6925,-0.8305 -3.3848,-1.6611 -5.0771,-2.4916 -0.3918,0 -0.7835,0 -1.1753,0 -0.4388,0.6738 -0.8776,1.3476 -1.3164,2.0214 0.5329,0.7835 1.0656,1.567 1.5985,2.3505 0.282,1.4887 0.5641,2.9775 0.8461,4.4659 0.3603,-0.1097 0.7209,-0.2191 1.0812,-0.3288 0.4388,-0.345 0.8776,-0.6896 1.3164,-1.0343 -0.0627,0.7835 -0.1253,1.567 -0.1882,2.3505 -0.2977,0.5014 -0.5953,1.0028 -0.8932,1.5043 -0.2977,0.2509 -0.5953,0.5014 -0.8932,0.7523 -0.188,-0.7367 -0.3759,-1.4732 -0.5641,-2.2096"
       id="path102"
       style="fill:#cccc00;fill-opacity:1;fill-rule:evenodd;stroke:none" /><path
       d="m 136.3915,167.5341 c 3.3486,-3.1096 7.4591,-5.8127 10.1376,-9.6132 1.0366,-1.4714 2.1886,-2.2237 -0.0176,-4.3015 2.3309,0.6658 3.1969,0.5935 5.0627,0.3673 3.3942,-0.4107 6.5755,-5.2356 6.7785,-8.6933 -0.04,-0.3234 -0.9428,-1.0573 -3.5672,-1.7818 -0.0521,-0.1009 -1.4811,0.1956 -1.4456,0.0989 0.2727,-0.7463 0.6372,-0.8606 1.1936,-1.2098 0.1208,-0.83 0.1985,-2.1098 0.7637,-3.0172 1.6515,0.0289 3.2652,-0.1508 4.8824,-0.4711 0.5442,-0.9026 0.462,-1.8051 0.4167,-2.7085 0.625,0.104 1.2501,0.2083 1.8751,0.3124 -0.1738,1.4241 -0.3472,2.8476 -0.5207,4.2712 0.5553,0.9377 1.1109,1.8754 1.6667,2.8128 -0.799,1.8057 -1.5976,3.6114 -2.3961,5.4173 -1.5281,1.4584 -3.056,2.9169 -4.5839,4.3756 -0.1468,0.007 -0.2945,0.0147 -0.4413,0.0218 -1.7184,1.0548 -3.4365,2.109 -5.1546,3.1635 -2.8026,2.2929 -5.6052,4.5861 -8.4078,6.8791 -2.0809,1.3589 -4.1615,2.7178 -6.2422,4.0765"
       id="path104"
       style="fill:#cccc00;fill-opacity:1;fill-rule:evenodd;stroke:none" /><path
       d="m 142.0328,141.8661 c -0.1766,-0.309 -0.4434,-0.8028 -0.7852,-1.1447 1.3949,-1.3195 2.0831,-2.203 2.5803,-4.0691 -1.5769,-0.7829 -3.1535,-1.5658 -4.7304,-2.3488 -1.3343,-1.279 -2.6686,-2.5582 -4.0028,-3.8372 -1.7561,0.9453 -2.1938,1.6713 -3.0436,3.4735 -0.9896,-0.2619 -1.9273,-0.5142 -2.7445,-0.2143 0.5185,-0.004 0.8371,0.1256 1.355,0.4459 0.8492,0.8822 1.6982,1.7643 2.5472,2.6465 1.4998,1.1358 2.9996,2.2716 4.4991,3.4072 0.9814,0.32 1.963,0.6398 2.9444,0.9595 0.3747,0.1542 1.0054,0.527 1.3805,0.6815"
       id="path106"
       style="fill:#cccc00;fill-opacity:1;fill-rule:evenodd;stroke:none" /><path
       d="m 146.3854,137.1603 c -5.0168,-2.7012 -9.8218,-5.4179 -12.3869,-10.548 0,6.5117 6.5381,9.3781 12.3869,10.548"
       id="path108"
       style="fill:#cccc00;fill-opacity:1;fill-rule:evenodd;stroke:none" /><path
       d="m 133.0024,149.9695 c -3.725,-2.5399 -6.3592,-7.6655 -6.0281,-12.661 -1.2135,4.3254 -0.7835,8.4127 2.9423,11.4004 0.6288,0.3056 1.2572,0.6112 1.8856,0.9167 0.4003,0.1146 0.8003,0.2291 1.2002,0.3439"
       id="path110"
       style="fill:#cccc00;fill-opacity:1;fill-rule:evenodd;stroke:none" /><g
       id="g112" /><g
       transform="translate(61.236524,106.16114)"
       id="g124"><g
         clip-path="url(#clipPath128)"
         id="g126"><g
           transform="matrix(136.89723,0,0,105.04488,45.2072,62.9932)"
           id="g132" /></g></g><path
       d="m 140.1228,111.4081 c 0.7699,0.419 2.1676,0.9952 2.9375,1.4142 -0.792,-0.1338 -2.2119,-0.4249 -3.0039,-0.5584 -2.1155,-0.3572 -2.3643,-0.8657 -2.6926,-2.9486 -0.1548,-0.9808 -0.3679,-2.1977 -0.5227,-3.1788 0.4147,1.1092 0.9136,2.3984 1.3969,3.4563 0.5114,1.1188 0.7994,1.2243 1.8848,1.8153 z m -39.2519,53.6431 c 1.6625,2.4937 2.6197,3.3049 5.178,4.8847 -3.4738,-0.8368 -4.136,-1.48 -5.178,-4.8847 z m -0.5471,-5.4938 c 2.9092,5.8484 5.112,8.0019 11.2028,10.8743 -6.8893,-1.6886 -8.9144,-2.8894 -11.2028,-10.8743 z M 38.0242,129.1161 c 0.6384,2.9285 1.2334,4.0332 3.039,6.4372 -2.929,-2.0463 -3.3108,-2.8868 -3.039,-6.4372 z M 103.2335,80.102 c -0.0881,0.7106 -0.1766,1.4218 -0.2653,2.1325 -0.1596,1.2875 -0.1533,2.3338 -0.0507,3.6298 0.0989,1.2543 0.1973,2.5086 0.2959,3.7632 -0.3654,-1.275 -1.0956,-2.55 -1.4607,-3.825 -0.146,-0.5103 -0.267,-0.923 -0.3362,-1.3045 -5.4513,-1.1138 -10.8629,-1.1835 -16.3156,-0.2107 -0.3478,2.0186 -0.7713,4.1222 -1.1265,5.6299 -0.1077,-1.6889 -0.0383,-6.3578 -0.0471,-8.9719 -0.0068,-2.0256 -0.0921,-2.719 -1.1364,-4.4419 -0.9779,-1.6132 -1.3921,-1.9791 -2.7609,-4.7044 0.1137,-1.7195 0.1159,-2.8567 -0.341,-4.4889 -0.76,-2.7131 -8.4246,-0.6109 -10.4468,-0.0573 -2.49,0.6815 -7.638,1.6946 -6.3434,5.0142 1.1395,2.9214 1.8615,6.0015 2.4182,10.0897 -4.562,6.5718 -8.8049,15.5783 -9.6188,23.5579 -0.6321,6.1962 -0.2528,10.0099 1.088,13.7999 2.1245,6.0049 5.0964,11.203 9.8657,15.3887 6.4329,5.6446 12.4466,7.912 21.8622,9.345 -2.2641,-2.5345 -4.5043,-5.2149 -6.946,-8.0887 -2.4718,-2.9098 -3.9408,-5.8484 -5.51,-9.0306 -2.1682,-4.3954 -2.1218,-6.0679 0.7526,-9.9264 2.4769,-3.3253 3.814,-4.8226 4.8954,-8.0759 -0.8932,-1.8411 -1.2178,-3.3967 -1.5182,-5.9108 3.0328,-3.3148 5.2863,-5.5865 8.2309,-6.2864 2.8883,-0.6865 5.3005,-0.5533 7.8843,0.7674 5.7393,2.9344 11.0495,6.7229 17.5235,6.8796 2.9951,7.3636 2.6924,13.5159 1.2543,20.6402 -0.9819,4.8654 -1.3756,9.4723 -1.6812,14.4326 -1.2143,-5.1083 -1.442,-9.6006 -0.5414,-14.6888 1.0862,-6.1322 1.9304,-12.907 -1.0908,-18.2962 -5.8538,-0.4482 -10.8708,-4.0096 -16.1472,-6.7422 -2.1206,-1.0988 -4.3286,-1.2056 -6.6762,-0.5613 -2.179,0.5984 -3.6493,2.0398 -5.9967,4.7472 -0.0366,2.7181 0.5766,3.9727 1.8247,6.4341 2.0055,3.9531 4.2193,7.6328 6.6483,11.5228 -2.9746,-3.5907 -5.7926,-6.59 -8.1337,-10.1996 -0.8949,2.5497 -2.1742,3.844 -4.2939,6.7147 -2.0704,2.8037 -2.2873,4.0317 -0.7393,7.2762 1.5565,3.2607 2.8766,6.1268 5.5259,8.9873 4.5776,4.9433 8.7709,10.4451 13.7769,15.3133 2.7179,2.6433 3.8214,2.552 7.4268,3.0985 3.2584,0.4938 6.4403,1.1175 9.7636,1.8896 -3.2142,-0.2996 -6.3209,-0.4099 -9.4498,-0.4875 -0.0326,-9e-4 -0.0646,-0.002 -0.097,-0.002 3.0785,3.9316 4.8651,6.1223 9.8649,8.2947 12.31,5.3465 20.1316,5.9247 29.8015,-2.2039 2.5061,-2.1067 4.695,-4.1519 7.2363,-5.9695 -0.9213,-0.0788 -1.7153,-0.244 -2.7655,-0.6565 1.2781,0.2435 2.7541,0.002 4.0804,-0.2404 0.3725,-0.2415 0.7549,-0.477 1.1472,-0.7083 1.7935,-1.0568 2.8117,-1.6405 4.0249,-3.331 1.2824,-1.7864 2.3511,-3.5714 3.2933,-5.5389 -0.6174,0.2205 -1.135,0.407 -1.5964,0.5442 -0.3396,0.1556 -0.709,0.2585 -1.1007,0.2962 -0.7759,0.0746 -1.5183,-0.1162 -2.1368,-0.4969 -0.0249,-0.0116 -0.0496,-0.0229 -0.0748,-0.0351 -0.9922,-0.483 -2.5294,-1.0338 -3.5581,-1.2008 0.5244,-0.1811 1.6849,-0.2489 2.2323,-0.0323 0.0734,0.0292 0.148,0.0513 0.2245,0.0697 -0.2469,-0.4201 -0.4082,-0.8974 -0.4578,-1.4128 -0.0657,-0.6834 0.0732,-1.3393 0.3671,-1.9088 0.001,-0.002 0.002,-0.004 0.003,-0.006 0.093,-0.2185 0.222,-0.4203 0.364,-0.5655 -0.4705,-0.1729 -0.9502,-0.371 -1.4448,-0.5859 2.2938,0.3495 4.3622,0.4096 6.6013,0.1145 0.1477,-0.7058 0.2965,-1.4536 0.4343,-2.2144 -0.2775,-0.0221 -0.5542,-0.0431 -0.8314,-0.0649 -0.0224,-0.002 -0.0451,-0.004 -0.0675,-0.006 -1.0593,0.8467 -2.2396,0.7044 -3.852,0.3364 -4.9034,-1.1182 -3.7511,-3.8698 -6.0072,-8.0155 2.3423,2.8633 2.1688,5.8589 5.9857,6.7629 0.8895,0.2106 1.495,0.474 2.097,0.3835 -1.0836,-0.5451 -2.0211,-1.4485 -2.3927,-2.4976 -1.0477,-2.9585 -0.3971,-5.4513 -1.548,-8.2145 1.4258,2.4701 1.5117,4.881 2.7865,7.4798 0.4578,0.9337 2.1571,2.4281 3.2003,2.4511 0.2863,0.006 0.572,0.0122 0.8586,0.0184 0.2514,-1.6446 0.4042,-3.2771 0.3067,-4.6315 -0.1777,-2.4712 -0.8198,-6.1393 -1.2041,-7.5427 1.2914,1.66 1.8796,5.1761 2.4468,7.651 0.5908,2.5775 0.4417,5.6701 -0.0754,8.4387 -0.7095,3.799 3.2029,3.1811 5.4743,4.9714 1.6696,1.3164 2.8188,3.418 4.3497,4.9068 1.5186,1.4763 3.9087,-0.6931 4.5057,-2.1365 2.59,-6.2651 3.7698,-16.122 3.0858,-22.4376 -0.7676,-7.0869 -4.191,-14.8235 -10.4417,-18.3127 -7.9682,-4.4473 -17.3636,-1.7302 -25.2802,0.9369 -1.6897,0.5692 -2.8647,1.3989 -4.3501,2.3346 0.4045,-1.821 0.5882,-3.7483 0.0502,-5.567 -0.8541,-2.8854 -2.2334,-7.6065 1.6844,-8.4773 1.491,-0.3313 2.1671,-0.2834 4.2723,0.8028 -1.7039,-0.3852 -2.5628,-0.2908 -3.7338,-0.0745 -1.0612,0.1955 -1.6239,0.8699 -1.9204,1.6647 0.3707,-0.2678 0.9754,-0.4135 2.0086,-0.6624 2.9044,-0.6999 5.6721,0.6979 6.2133,2.7122 0.3157,1.1766 0.2619,1.7946 0.9306,3.3979 0.6006,-0.1851 1.2223,-0.3546 1.8595,-0.5086 -0.3594,-1.1727 -0.7194,-2.3468 -1.0791,-3.5195 -0.9335,-3.0449 -4.5701,-5.5003 -7.7814,-5.4439 -2.9685,0.0527 -4.8504,1.9122 -6.8996,3.7352 -1.4119,1.2563 -2.7705,2.4582 -4.1173,3.6485 -3.6944,1.1656 -6.6557,2.5279 -10.0845,5.0663 2.44,-2.8678 4.0955,-4.4552 7.4985,-5.8821 -0.4952,-5.0483 -2.2496,-8.729 -3.7454,-13.5604 -0.6767,-2.185 -6.0214,-10.9383 -7.5025,-11.7919 -1.0562,-0.6083 -7.6711,-6.1803 -8.9158,-6.9151 -0.9267,-1.2311 -1.7402,-2.9316 -3.1334,-3.668 -4.2458,-2.245 -6.9741,2.0537 -9.2591,5.6846 -1.0406,1.654 -3.9291,6.4179 -1.4108,7.7525 2.3811,1.2614 3.7145,2.1622 6.1438,3.757 0.3569,-0.6505 0.9697,-1.2781 1.3688,-1.9281 z m 14.7603,-7.6972 c -2.1495,-1.7365 -5.7642,-4.8104 -6.4655,-5.1954 -1.2699,-1.8955 -1.4267,-3.0685 -3.4611,-4.1697 -6.0562,-3.2771 -9.2704,0.5235 -12.8554,6.0483 -1.7082,2.6325 -5.4431,8.6428 -1.4797,10.6803 1.6699,0.8584 2.9356,1.5018 4.1981,2.2371 -4.1579,-0.5159 -8.2386,-0.5221 -12.4818,0.1163 0.0751,-0.512 0.1406,-0.9992 0.1936,-1.446 0.2758,-2.3184 0.3663,-3.0294 -0.8932,-4.8974 -0.9181,-1.3623 -1.2719,-1.7566 -2.3808,-4.2316 0.2018,-2.012 0.1142,-3.1444 -0.4535,-5.2517 -1.262,-4.6831 -10.0072,-2.1161 -13.5706,-1.1523 -4.2877,1.1594 -10.4145,2.2391 -7.9005,7.7516 0.5891,1.2915 1.0517,2.6124 1.3998,3.8722 -3.7491,-1.6594 -8.9592,1.8606 -11.4406,4.3483 -2.3602,2.3664 -3.6423,5.1143 -4.089,7.7808 -0.3804,2.2694 -0.0321,2.2584 1.5874,3.8628 1.4816,1.4666 2.9627,2.935 4.4439,4.4008 0.5981,1.6282 1.1973,3.255 1.7951,4.8821 -0.233,1.2155 -0.4062,2.4279 -0.5094,3.6286 -0.4303,5.0063 -0.2857,8.5714 0.4295,11.8488 -2.6087,-1.0179 -5.6021,-0.5411 -6.9335,2.2275 -0.5063,1.0525 -0.8079,2.1246 -1.1903,3.6811 -5.8193,5.6069 5.0859,12.9574 8.2672,13.5102 -0.3637,-1.0335 -0.7622,-1.9789 -1.1129,-2.9163 2.1575,-1.1169 1.893,-4.2993 1.4349,-6.3482 -0.7761,0.9794 -1.205,2.2601 -2.3465,2.3151 -0.1672,-2.3171 -0.1383,-4.8776 -1.9479,-6.238 0.5357,-1.432 0.5076,-1.4332 2.0301,-0.8478 2.1623,0.8325 3.7905,2.687 5.4284,4.4969 1.764,3.4361 4.0252,6.4927 7.1359,9.2506 7.6442,6.7773 14.8697,8.9946 26.5042,10.8487 1.5486,1.6161 3.149,3.1754 4.8668,4.6916 2.3273,2.0537 3.8384,2.4801 6.0395,2.5949 3.6423,4.8719 6.5081,8.2647 12.4464,10.7643 12.4472,5.2392 21.0268,5.4918 31.0173,-2.7457 3.3015,-2.7218 6.1171,-5.5902 9.7455,-7.8624 1.8362,-1.1498 3.1484,-1.9763 4.5405,-3.6341 1.7507,-2.0862 3.1805,-4.1725 4.1757,-6.8578 1.2858,0.5292 2.7522,1.0278 3.9362,2.0398 1.5287,1.3062 2.5013,3.4926 3.9172,4.9278 1.8794,1.9045 6.1665,-0.3946 7.1158,-2.2116 3.2287,-6.179 4.5496,-17.5669 3.8634,-24.3389 -0.8482,-8.3713 -4.2991,-16.285 -11.6745,-20.2212 -5.0148,-2.6756 -11.7454,-2.9248 -17.5054,-1.836 -0.3733,-1.2283 -0.7452,-2.4565 -1.1185,-3.6848 -1.12,-3.6805 -5.4919,-6.6889 -9.311,-6.8694 -3.6669,-0.173 -5.6546,1.7195 -8.0595,4.0359 -1.2617,1.2155 -2.5242,2.4302 -3.7859,3.6457 -0.0734,-0.828 -0.1817,-1.622 -0.3181,-2.3905 0.9933,-1.9613 1.4704,-3.6856 2.3205,-5.7075 0.9354,-2.2267 1.3907,-3.6882 1.455,-6.0713 0.0564,-2.1155 0.1131,-4.2316 0.1698,-6.347 0.9436,-1.6765 1.0261,-2.0844 0.8887,-4.0029 -0.2906,-4.0433 -2.5175,-4.4291 -6.2289,-4.4058 -1.2365,0.0079 -5.9037,-0.021 -7.0934,0.0649 -2.365,0.1709 -3.924,0.3515 -4.739,1.3283 z m 12.5144,22.0569 c -0.7466,-2.6662 -1.7501,-5.1831 -2.6662,-8.0679 -0.8669,-2.7309 -5.3133,-10.6609 -7.9305,-12.5827 0.5094,-0.3793 1.4445,-0.5279 3.1101,-0.6716 1.1784,-0.1017 5.8241,-0.1233 6.9906,-0.1434 2.5681,-0.0448 3.5427,0.1482 3.8024,3.0725 0.1269,1.4315 0.015,1.6991 -0.7011,2.954 -0.0635,2.2382 -0.1269,4.477 -0.1899,6.7152 -0.0598,2.122 -0.4671,3.3443 -1.3014,5.3218 -0.4994,1.1835 -0.7704,2.2881 -1.114,3.4021 z m -78.2237,36.6282 c 0.5765,0.0655 0.9331,-0.237 1.379,-0.6826 -0.0825,1.0647 -0.2792,1.8541 -1.0267,2.2893 -0.0524,-0.1732 -0.1017,-0.3461 -0.1482,-0.5219 -0.0905,-0.3427 -0.1551,-0.7067 -0.2041,-1.0848 z m 3.6224,-7.6927 c -0.415,-1.0737 -0.8,-2.1804 -1.1625,-3.3239 -0.0601,-0.189 -0.1177,-0.3793 -0.1738,-0.5686 -2.1929,-0.9301 -5.0763,-1.5211 -6.1801,0.7835 -0.536,1.1185 -0.8385,2.2161 -1.2294,3.63 -3.6113,3.7412 1.787,8.6803 4.7274,10.4519 -0.4255,-0.9147 -0.7277,-1.6072 -0.934,-2.3201 -0.8941,-3.0898 0.4047,-5.8473 -2.3996,-8.0873 1.3179,-2.6594 1.2572,-3.7199 4.3234,-2.491 1.1829,0.4739 2.1583,1.1392 3.0286,1.9255 z m -0.845,-25.177 c 1.6622,-5.7487 4.4929,-11.3973 7.6311,-16.1459 -3e-4,-0.0275 -6e-4,-0.0547 -8e-4,-0.0827 -0.1965,-0.8164 -0.4241,-1.6121 -0.9009,-2.2507 -2.243,-3.0008 -7.9489,1.4042 -9.6004,3.0903 -1.8054,1.8434 -3.0138,4.0266 -3.3015,6.0738 -0.2092,1.4936 -0.0062,1.5298 1.0358,2.5863 1.4043,1.4216 2.81,2.8443 4.2137,4.2656 0.3073,0.8215 0.6157,1.6421 0.923,2.4633 z m 106.215,46.1409 c 0.32,-0.3163 0.5782,-0.693 0.7563,-1.1097 0.0969,0.089 0.2007,0.1732 0.3092,0.2531 -0.1315,0.2962 -0.2653,0.5882 -0.4019,0.8759 -0.2274,-0.005 -0.4482,-0.0113 -0.6636,-0.0193 z m -27.4757,-10.3405 c -0.2925,0.6134 -0.4325,1.2606 -0.4376,1.8998 -1.0766,-0.86 -2.2471,-1.6753 -3.4617,-2.1464 1.677,1.4976 3.9549,5.0295 5.6055,6.1444 1.8731,1.2657 4.4152,1.0193 6.5991,2.0296 -0.7456,-0.6775 -1.7011,-1.2234 -2.674,-1.743 1.0718,-0.3923 1.9979,-1.186 2.5263,-2.2938 0.2228,-0.4672 0.356,-0.955 0.4099,-1.4431 1.4672,0.4819 2.908,0.71 4.1249,0.6925 -4.3531,-1.222 -8.9835,-4.0799 -12.1762,-7.8645 0.3586,0.987 0.8598,1.8777 1.4635,2.6731 -0.8367,0.4374 -1.5431,1.1367 -1.9797,2.0514 z m -20.1866,15.7479 c -2.4038,-0.938 -4.5964,-1.6418 -6.9398,-2.2306 -2.1382,-2.8102 -3.4407,-4.2661 -3.9328,-8.0328 -0.5788,3.7055 -0.6993,4.3934 0.9499,7.1592 -0.4779,-0.2429 -0.9224,-0.5769 -1.5593,-1.1214 -2.304,-1.9701 -5.3073,-9.7121 -6.5081,-12.4801 0.7622,3.3316 3.1465,11.6592 5.6021,14.0865 1.6149,1.5965 1.9811,1.5599 4.2582,1.7753 2.7122,0.2571 5.419,0.5375 8.1298,0.8439 z m 50.1743,-8.0782 c 1.95,-0.1845 3.0649,-0.4855 4.811,0.3782 3.2547,1.6106 5.6495,4.24 7.2023,7.3848 -0.9499,-3.7519 -2.8616,-6.9401 -6.827,-8.3543 -1.9474,-0.6939 -3.2031,0.0227 -5.1863,0.5913 z m -37.4249,-0.3665 c 0.7347,3.2536 2.0392,6.3885 7.0923,8.8138 -6.6975,-1.677 -7.9532,-4.4898 -7.0923,-8.8138 z M 39.5195,123.8014 c 0.5746,6.5067 1.84,9.3155 6.463,14.2121 -5.7986,-4.0858 -7.2456,-5.9425 -6.463,-14.2121"
       id="path136"
       style="fill:#000000;fill-opacity:1;fill-rule:evenodd;stroke:none" /><path
       d="m 134.6749,132.9732 c -0.4476,0.936 -0.0474,2.0639 0.8909,2.5104 0.9385,0.447 2.0687,0.0476 2.5163,-0.889 0.0425,-0.0887 0.0763,-0.18 0.1038,-0.2715 -0.8961,-0.6647 -1.7178,-1.4485 -2.4064,-2.3562 -0.4643,0.1865 -0.8747,0.5256 -1.1046,1.0063"
       id="path138"
       style="fill:#ffffcc;fill-opacity:1;fill-rule:evenodd;stroke:none" /><path
       d="m 155.6427,141.0846 c 0.0749,0.7755 0.7362,1.3473 1.5115,1.2724 0.7752,-0.0751 1.3476,-0.7681 1.273,-1.5437 -0.0159,-0.165 -0.0606,-0.3198 -0.1275,-0.4623 -0.7098,-0.1208 -1.4194,-0.3291 -2.1507,-0.5979 -0.3059,0.313 -0.5493,0.8844 -0.5063,1.3315"
       id="path140"
       style="fill:#ffffcc;fill-opacity:1;fill-rule:evenodd;stroke:none" /></g></svg>