<?xml version="1.0" encoding="utf-8"?>
<!-- Generator: Adobe Illustrator 16.0.4, SVG Export Plug-In . SVG Version: 6.00 Build 0)  -->
<!DOCTYPE svg PUBLIC "-//W3C//DTD SVG 1.1//EN" "http://www.w3.org/Graphics/SVG/1.1/DTD/svg11.dtd">
<svg version="1.1" id="Layer_1" xmlns="http://www.w3.org/2000/svg" xmlns:xlink="http://www.w3.org/1999/xlink" x="0px" y="0px"
	 width="500px" height="446.977px" viewBox="0 0 500 446.977" enable-background="new 0 0 500 446.977" xml:space="preserve">
<g>
	<path fill="#727171" d="M104.911,412.165v0.67h-4.018v14.51h12.946v-14.51h-4.018v-0.67h14.509v0.67h-4.018v30.357h4.018v0.67
		h-14.509v-0.67h4.018v-15.18h-12.946v15.18h4.018v0.67H90.402v-0.67h4.018v-30.357h-4.018v-0.67H104.911z"/>
	<path fill="#727171" d="M125,443.192l13.169-32.365h1.116l14.062,32.365h3.795v0.67h-14.956v-0.67h4.241l-5.134-11.83h-10.714
		l-4.911,11.83h4.018v0.67h-8.482v-0.67H125z M130.804,430.692h10.268l-5.134-12.055L130.804,430.692z"/>
	<path fill="#727171" d="M154.241,412.834v-0.67h6.696c1.339,0,2.456,0,3.794,0c1.339,0,2.456,0,3.795,0
		c1.116,0,2.455,0.225,3.571,0.447c1.339,0.223,2.456,0.67,3.571,1.115c1.116,0.445,2.009,1.34,2.679,2.232
		c0.67,0.893,1.116,2.232,1.116,3.795c0,1.115-0.223,2.23-0.893,3.125c-0.446,0.893-1.116,1.562-2.009,2.008
		c-0.893,0.447-1.786,0.895-2.902,1.117c-1.116,0.223-2.009,0.445-3.125,0.445v0.223c1.562,0.225,2.679,0.447,3.794,0.895
		c1.116,0.223,2.232,0.67,2.902,1.115c0.893,0.447,1.562,1.34,2.009,2.232c0.446,0.893,0.893,2.232,0.893,3.795
		c0.223,1.785,0.223,3.348,0.446,4.463c0.224,1.117,0.224,2.01,0.447,2.68s0.446,1.115,0.669,1.34
		c0.223,0.223,0.67,0.223,1.116,0.223c0.669,0,1.116-0.223,1.562-0.445c0.446-0.445,0.669-0.67,1.116-0.893l0.446,0.445
		c-0.223,0.223-0.67,0.67-0.893,0.893c-0.223,0.225-0.669,0.447-0.893,0.67c-0.223,0.223-0.893,0.223-1.339,0.447
		c-0.446,0-1.116,0.223-2.009,0.223c-1.562,0-2.902-0.223-3.795-0.67c-0.893-0.445-1.562-1.115-2.009-2.008
		c-0.446-0.67-0.67-1.562-0.893-2.457c0-0.893-0.223-1.785-0.223-2.455c0-1.115-0.223-2.455-0.223-3.57
		c0-1.117-0.446-2.232-0.669-3.125c-0.447-0.893-0.893-1.562-1.786-2.232c-0.669-0.445-1.786-0.893-3.348-0.893h-2.902v16.07h4.018
		v0.67h-14.509v-0.67h4.018v-30.357h-4.241v-0.223H154.241z M166.741,426.674c1.339,0,2.455-0.223,3.125-0.447
		c0.669-0.445,1.339-0.893,1.786-1.338c0.446-0.67,0.669-1.34,0.669-2.01s0.223-1.561,0.223-2.455c0-1.34,0-2.455-0.223-3.348
		c-0.223-0.895-0.446-1.787-0.893-2.232c-0.447-0.67-0.893-1.115-1.786-1.34c-0.67-0.223-1.562-0.447-2.679-0.447
		c-0.223,0-0.67,0-0.893,0c-0.223,0-0.669,0-0.893,0v13.842h1.562v-0.225H166.741z"/>
	<path fill="#727171" d="M194.419,412.165l7.589,22.1l0,0l7.812-22.1h11.161v0.67h-4.018v30.357h4.018v0.67h-14.509v-0.67h4.018
		v-30.357l0,0l-10.938,31.027h-0.67l-10.938-31.027l0,0v30.357h4.018v0.67h-8.929v-0.67h4.018v-30.357h-4.018v-0.67H194.419z"/>
	<path fill="#727171" d="M222.768,421.317c1.116-2.01,2.232-3.795,4.018-5.135c1.562-1.34,3.348-2.678,5.357-3.348
		c2.009-0.893,4.018-1.117,5.803-1.117c2.009,0,4.018,0.447,6.027,1.117c2.009,0.67,3.795,1.785,5.357,3.348
		c1.562,1.34,2.902,3.125,3.794,5.135c0.894,2.01,1.34,4.24,1.34,6.92c0,2.23-0.446,4.24-1.34,6.25
		c-0.894,2.008-2.009,3.795-3.571,5.355c-1.562,1.562-3.348,2.68-5.357,3.572c-2.009,0.893-4.018,1.34-6.25,1.34
		c-2.232,0-4.241-0.447-6.25-1.34c-2.009-0.893-3.794-2.01-5.357-3.572c-1.563-1.561-2.679-3.125-3.571-5.133
		c-0.893-2.01-1.339-4.242-1.339-6.475C221.206,425.557,221.652,423.327,222.768,421.317z M229.018,435.827
		c0.446,2.008,0.893,3.57,1.562,4.91c0.669,1.115,1.786,2.008,2.901,2.455c1.116,0.445,2.679,0.67,4.241,0.67
		c2.232,0,4.018-0.447,5.134-1.115c1.339-0.895,2.232-2.01,2.902-3.35c0.67-1.34,1.116-3.125,1.116-5.135
		c0-2.008,0.223-4.018,0.223-6.473c0-2.01,0-4.018-0.223-6.027c-0.223-2.008-0.446-3.57-1.116-4.91
		c-0.669-1.34-1.562-2.68-2.902-3.348c-1.339-0.895-2.901-1.34-5.134-1.34c-2.009,0-3.794,0.445-4.911,1.115
		c-1.339,0.893-2.232,1.787-2.902,3.35c-0.669,1.338-1.116,3.125-1.339,5.133c-0.223,2.01-0.223,4.02-0.223,6.475
		C228.348,431.139,228.571,433.817,229.018,435.827z"/>
	<path fill="#727171" d="M264.955,412.165l14.732,21.205l0,0v-20.535h-4.019v-0.67h8.929v0.67h-4.019v31.027h-1.115l-20.09-28.572
		l0,0v27.902h4.019v0.67h-8.929v-0.67h4.019v-30.357h-4.019v-0.67H264.955L264.955,412.165z"/>
	<path fill="#727171" d="M296.205,412.165v0.67h-3.571l9.151,15.402l8.26-15.402h-3.795v-0.67h8.482v0.67h-3.796l-8.481,16.295
		v14.062h4.241v0.67h-14.731v-0.67h4.018v-12.5l-10.268-18.08h-3.572v-0.67h14.062V412.165z"/>
	<path fill="#727171" d="M348.214,421.317c-0.223-0.895-0.669-2.01-1.115-3.125s-1.115-2.01-1.786-2.902
		c-0.67-0.893-1.562-1.562-2.679-2.232c-1.116-0.668-2.455-0.893-4.018-0.893c-2.232,0-3.795,0.447-5.134,1.117
		c-1.341,0.67-2.232,2.008-2.902,3.348c-0.669,1.34-1.116,3.125-1.116,5.135c-0.223,2.01-0.223,4.018-0.223,6.473
		c0,3.125,0.223,5.582,0.446,7.59c0.445,2.01,0.893,3.572,1.562,4.688c0.669,1.117,1.786,2.01,2.901,2.455
		c1.115,0.447,2.679,0.67,4.24,0.67c1.341,0,2.456-0.223,3.571-0.893c1.116-0.67,2.01-1.34,2.902-2.01
		c0.893-0.893,1.562-1.785,2.009-2.9c0.67-1.117,0.893-2.232,1.339-3.572h0.67v9.375h-0.67c-0.223-0.445-0.223-0.67-0.446-0.67
		c-0.223-0.223-0.445-0.223-0.893-0.223s-0.893,0-1.339,0.223c-0.67,0.225-1.116,0.447-2.01,0.447
		c-0.669,0.223-1.562,0.445-2.455,0.445c-0.894,0.225-1.785,0.225-2.68,0.225c-2.23,0-4.24-0.447-6.25-1.34
		c-2.009-0.895-3.794-2.01-5.355-3.572c-1.562-1.561-2.679-3.125-3.572-5.133c-0.893-2.01-1.339-4.242-1.339-6.473
		c0-2.457,0.446-4.689,1.562-6.92c1.115-2.232,2.231-3.797,4.018-5.135c1.562-1.34,3.349-2.68,5.357-3.35
		c2.009-0.893,3.795-1.115,5.804-1.115c0.893,0,1.785,0,2.679,0.225c0.894,0.223,1.562,0.445,2.231,0.445
		c0.67,0,1.34,0.445,1.786,0.445c0.445,0,1.115,0.225,1.339,0.225c0.446,0,0.67,0,0.894-0.225c0.223,0,0.446-0.445,0.446-0.67h0.67
		v9.152h-0.447v0.67H348.214z"/>
	<path fill="#727171" d="M364.955,412.165v0.67h-4.019v30.357h7.366c0.894,0,2.009-0.225,2.901-0.445
		c0.894-0.225,2.009-0.895,2.902-1.562c0.893-0.67,1.562-1.785,2.454-2.902c0.671-1.115,1.34-2.68,1.562-4.463h0.67v10.043h-28.349
		v-0.668h4.018v-30.357h-4.018v-0.67h14.511V412.165z"/>
	<path fill="#727171" d="M380.357,421.317c1.115-2.01,2.23-3.795,4.018-5.135c1.562-1.34,3.349-2.678,5.357-3.348
		c2.009-0.893,4.018-1.117,5.804-1.117c2.009,0,4.018,0.447,6.025,1.117c2.009,0.67,3.796,1.785,5.357,3.348
		c1.562,1.34,2.901,3.125,3.794,5.135c0.895,2.01,1.34,4.24,1.34,6.92c0,2.23-0.445,4.24-1.34,6.25
		c-0.893,2.008-2.009,3.795-3.571,5.355c-1.562,1.562-3.348,2.68-5.355,3.572c-2.01,0.893-4.02,1.34-6.25,1.34
		c-2.232,0-4.241-0.447-6.25-1.34c-2.01-0.893-3.795-2.01-5.357-3.572c-1.562-1.561-2.679-3.125-3.57-5.133
		c-0.895-2.01-1.341-4.242-1.341-6.475C379.018,425.557,379.464,423.327,380.357,421.317z M386.607,435.827
		c0.445,2.008,0.893,3.57,1.562,4.91c0.669,1.115,1.785,2.008,2.901,2.455c1.115,0.445,2.679,0.67,4.24,0.67
		c2.232,0,4.019-0.447,5.135-1.115c1.34-0.895,2.231-2.01,2.901-3.35c0.669-1.34,1.115-3.125,1.115-5.135
		c0-2.008,0.224-4.018,0.224-6.473c0-2.01,0-4.018-0.224-6.027c-0.223-2.008-0.446-3.57-1.115-4.91
		c-0.67-1.34-1.562-2.68-2.901-3.348c-1.339-0.895-2.901-1.34-5.135-1.34c-2.009,0-3.795,0.445-4.91,1.115
		c-1.34,0.893-2.231,1.787-2.901,3.35c-0.67,1.338-1.116,3.125-1.339,5.133c-0.225,2.01-0.225,4.02-0.225,6.475
		C386.161,431.139,386.384,433.817,386.607,435.827z"/>
	<path fill="#727171" d="M426.786,412.165v0.67h-4.02v19.867c0,1.338,0,2.678,0.225,4.018c0.223,1.338,0.446,2.455,0.893,3.57
		c0.447,1.117,1.116,1.787,2.232,2.457c0.893,0.668,2.231,0.893,3.795,0.893c1.562,0,2.901-0.225,4.018-0.445
		c1.116-0.447,2.01-0.895,2.68-1.562c0.669-0.67,1.339-1.34,1.562-2.01c0.446-0.67,0.669-1.562,0.894-2.232
		c0.224-0.67,0.224-1.561,0.224-2.23s0-1.117,0-1.562v-20.982h-4.02v-0.668h8.93v0.668h-4.241v20.76c0,0.447,0,1.115,0,1.785
		s-0.223,1.562-0.446,2.232c-0.223,0.67-0.445,1.562-0.893,2.455s-1.116,1.562-1.786,2.232c-0.894,0.67-1.785,1.115-3.125,1.561
		c-1.116,0.447-2.679,0.67-4.464,0.67c-2.902,0-5.134-0.223-6.92-0.893c-1.785-0.67-3.125-1.562-4.019-2.455
		c-0.893-1.117-1.562-2.232-1.786-3.572c-0.223-1.34-0.445-2.678-0.445-4.018v-20.76h-4.241v-0.668h14.956L426.786,412.165
		L426.786,412.165z"/>
	<path fill="#727171" d="M443.304,412.834v-0.67h4.019c1.562,0,3.125,0,4.465,0c1.562,0,3.125,0,4.464,0s2.679,0,4.241,0.225
		c1.562,0.223,2.9,0.445,4.464,0.893c1.34,0.445,2.902,1.117,4.241,1.787c1.34,0.668,2.455,1.783,3.57,2.9
		c1.116,1.115,1.786,2.68,2.456,4.24c0.669,1.562,0.894,3.572,0.894,5.805c0,2.23-0.225,4.018-0.894,5.58
		c-0.67,1.562-1.34,3.125-2.456,4.24c-0.893,1.117-2.23,2.232-3.348,2.902c-1.116,0.67-2.679,1.34-4.019,1.785
		s-2.679,0.67-4.019,0.893c-1.339,0.225-2.679,0.225-3.795,0.225c-1.785,0-3.348,0-5.134,0c-1.785,0-3.349,0-5.134,0h-4.019v-0.67
		h4.019v-30.357h-4.019v0.223H443.304z M456.25,443.415c2.009,0,3.571-0.223,4.911-0.67c1.339-0.445,2.455-1.115,3.348-1.785
		c0.894-0.67,1.786-1.785,2.232-2.678c0.446-1.117,0.893-2.01,1.339-3.125c0.224-1.117,0.446-2.232,0.446-3.35
		c0-1.115,0.224-2.23,0.224-3.125c0-2.455-0.224-4.465-0.446-6.473c-0.224-2.01-0.893-3.572-1.786-4.912
		c-0.893-1.338-2.009-2.455-3.794-3.125c-1.562-0.668-3.571-1.115-6.25-1.115c-0.67,0-1.115,0-1.562,0c-0.447,0-0.895,0-1.116,0
		v30.357C454.688,443.415,455.58,443.415,456.25,443.415z"/>
</g>
<g>
	<path fill="#005D96" d="M371.453,181.985l-132.369,74.833c-0.128,0.074-0.263,0.132-0.393,0.2l0.145,0.256
		c-14.99,7.689-31.967,12.061-49.975,12.061c-60.56,0-109.655-49.095-109.655-109.656c0-60.562,49.095-109.656,109.655-109.656
		c31.212,0,59.353,13.061,79.323,33.989l-49.687,29.11c-8.563-5.461-18.724-8.64-29.632-8.64c-30.484,0-55.197,24.713-55.197,55.197
		c0,30.484,24.713,55.195,55.197,55.195c8.129,0,15.842-1.771,22.79-4.928l0.118,0.204c0.092-0.054,0.175-0.117,0.267-0.171
		l132.368-74.833c12.935-7.467,29.475-3.036,36.94,9.899C388.82,157.978,384.388,174.518,371.453,181.985z"/>
	<path fill="#005D96" d="M145.269,57.71c-2.824,0-5.113-2.289-5.113-5.113c0-2.823,2.289-5.112,5.113-5.112
		c2.823,0,5.112,2.289,5.112,5.112C150.38,55.422,148.092,57.71,145.269,57.71z M130.432,66.877c-0.616-0.844-0.99-1.875-0.99-3
		c0-2.823,2.289-5.112,5.112-5.112c2.108,0,3.917,1.277,4.698,3.1C136.229,63.401,133.287,65.076,130.432,66.877z M118.596,65.675
		c-2.824,0-5.113-2.289-5.113-5.112c0-2.824,2.289-5.112,5.113-5.112c2.823,0,5.112,2.288,5.112,5.112
		C123.708,63.386,121.419,65.675,118.596,65.675z M106.371,80.123c-2.825,0-5.113-2.289-5.113-5.112
		c0-2.824,2.289-5.112,5.113-5.112c2.822,0,5.111,2.288,5.111,5.112C111.482,77.834,109.193,80.123,106.371,80.123z M96.739,100.184
		c-0.359,0.08-0.729,0.129-1.112,0.129c-2.823,0-5.114-2.289-5.114-5.112c0-2.824,2.291-5.113,5.114-5.113
		c2.586,0,4.703,1.929,5.042,4.422C99.302,96.358,97.991,98.25,96.739,100.184z M86.366,89.014c-2.824,0-5.113-2.289-5.113-5.112
		c0-2.824,2.289-5.112,5.113-5.112c2.823,0,5.112,2.288,5.112,5.112C91.478,86.725,89.189,89.014,86.366,89.014z M85.255,67.897
		c-2.824,0-5.113-2.289-5.113-5.111c0-2.825,2.289-5.112,5.113-5.112c2.823,0,5.112,2.288,5.112,5.112
		C90.367,65.608,88.078,67.897,85.255,67.897z M82.587,116.132c0,2.823-2.289,5.112-5.112,5.112c-2.824,0-5.113-2.289-5.113-5.112
		c0-2.824,2.289-5.112,5.113-5.112C80.298,111.02,82.587,113.308,82.587,116.132z M66.361,93.459c-2.824,0-5.113-2.289-5.113-5.111
		c0-2.825,2.289-5.112,5.113-5.112c2.823,0,5.112,2.288,5.112,5.112C71.473,91.17,69.184,93.459,66.361,93.459z M57.471,117.909
		c-2.825,0-5.114-2.289-5.114-5.112c0-2.824,2.289-5.112,5.114-5.112c2.823,0,5.112,2.288,5.112,5.112
		C62.583,115.621,60.293,117.909,57.471,117.909z M50.802,71.231c-2.824,0-5.113-2.289-5.113-5.112c0-2.824,2.289-5.112,5.113-5.112
		c2.823,0,5.112,2.288,5.112,5.112C55.914,68.942,53.625,71.231,50.802,71.231z M38.577,94.57c-2.824,0-5.113-2.289-5.113-5.112
		c0-2.824,2.289-5.112,5.113-5.112c2.823,0,5.112,2.288,5.112,5.112S41.4,94.57,38.577,94.57z M20.795,65.675
		c-2.824,0-5.113-2.289-5.113-5.112c0-2.824,2.289-5.112,5.113-5.112c2.823,0,5.112,2.288,5.112,5.112
		C25.907,63.386,23.618,65.675,20.795,65.675z M78.324,133.432c1.443,0,2.743,0.604,3.673,1.567
		c-0.619,2.693-1.137,5.422-1.554,8.187c-0.647,0.295-1.361,0.471-2.119,0.471c-2.824,0-5.112-2.289-5.112-5.111
		C73.211,135.721,75.5,133.432,78.324,133.432z"/>
	
		<linearGradient id="SVGID_1_" gradientUnits="userSpaceOnUse" x1="225.6289" y1="142.2998" x2="531.3994" y2="142.2998" gradientTransform="matrix(1 0 0 -1 -56 301.9775)">
		<stop  offset="0" style="stop-color:#A7A8A8"/>
		<stop  offset="0.4694" style="stop-color:#FFFFFF"/>
		<stop  offset="1" style="stop-color:#A7A8A8"/>
	</linearGradient>
	<path fill="url(#SVGID_1_)" d="M183.154,137.369l132.368-74.833c0.131-0.074,0.266-0.129,0.395-0.201l-0.146-0.254
		c14.99-7.691,31.97-12.06,49.978-12.06c60.561,0,109.652,49.095,109.652,109.656c0,60.561-49.093,109.658-109.652,109.658
		c-31.212,0-59.354-13.062-79.324-33.99l49.687-29.111c8.564,5.461,18.726,8.64,29.634,8.64c30.484,0,55.196-24.711,55.196-55.195
		c0-30.484-24.712-55.197-55.196-55.197c-8.131,0-15.84,1.772-22.791,4.929l-0.117-0.205c-0.092,0.055-0.174,0.12-0.268,0.173
		l-132.369,74.833c-12.935,7.467-29.474,3.035-36.942-9.898C165.788,161.376,170.221,144.836,183.154,137.369z"/>
	<path fill="#FFFFFF" d="M165.45,64.987c-2.824,0-5.112-2.288-5.112-5.111c0-2.824,2.288-5.113,5.112-5.113
		c2.824,0,5.113,2.289,5.113,5.113C170.562,62.699,168.273,64.987,165.45,64.987z M139.444,80.547c0-2.823,2.289-5.111,5.112-5.111
		c2.823,0,5.113,2.288,5.113,5.111c0,2.824-2.29,5.113-5.113,5.113C141.733,85.66,139.444,83.371,139.444,80.547z M139.251,61.864
		c0.265,0.617,0.415,1.297,0.415,2.012c0,2.824-2.29,5.113-5.113,5.113c-1.699,0-3.192-0.838-4.122-2.112
		C133.287,65.076,136.229,63.401,139.251,61.864z M100.739,95.201c0,2.44-1.713,4.474-4,4.983c1.252-1.934,2.563-3.825,3.93-5.674
		C100.701,94.739,100.739,94.964,100.739,95.201z M81.997,134.999c0.888,0.921,1.439,2.167,1.439,3.546
		c0,2.065-1.23,3.834-2.993,4.641C80.859,140.421,81.378,137.691,81.997,134.999z M107.219,142.545
		c-2.824,0-5.112-2.289-5.112-5.112c0-2.824,2.288-5.113,5.112-5.113c2.824,0,5.112,2.289,5.112,5.113
		C112.332,140.256,110.043,142.545,107.219,142.545z M105.88,99.663c2.824,0,5.112,2.289,5.112,5.112
		c0,2.824-2.288,5.113-5.112,5.113c-2.824,0-5.112-2.289-5.112-5.113C100.769,101.952,103.056,99.663,105.88,99.663z
		 M102.774,117.217c2.824,0,5.112,2.289,5.112,5.112c0,2.824-2.288,5.113-5.112,5.113c-2.824,0-5.112-2.289-5.112-5.113
		C97.662,119.506,99.95,117.217,102.774,117.217z M102.095,148.312c0,2.824-2.288,5.113-5.112,5.113
		c-2.822,0-5.113-2.289-5.113-5.113c0-2.823,2.291-5.112,5.113-5.112C99.807,143.201,102.095,145.49,102.095,148.312z
		 M122.328,84.549c-2.823,0-5.112-2.289-5.112-5.113c0-2.823,2.289-5.112,5.112-5.112c2.823,0,5.113,2.289,5.113,5.112
		C127.441,82.26,125.151,84.549,122.328,84.549z M123.662,106.553c-2.824,0-5.112-2.289-5.112-5.113
		c0-2.823,2.288-5.112,5.112-5.112c2.824,0,5.112,2.289,5.112,5.112C128.774,104.265,126.486,106.553,123.662,106.553z"/>
</g>
<g>
	
		<line fill-rule="evenodd" clip-rule="evenodd" fill="none" stroke="#727171" stroke-width="8" stroke-miterlimit="10" x1="96.127" y1="318.029" x2="96.127" y2="301.307"/>
	<path fill-rule="evenodd" clip-rule="evenodd" fill="none" stroke="#727171" stroke-width="8" stroke-miterlimit="10" d="
		M84.654,327.989c0,0,2.51,0,5.578,0c3.067,0,7.808,1.955,7.808,7.811s-0.558,37.087-0.558,40.991c0,3.902,3.626,7.808,7.25,7.808
		s5.02,0,5.02,0"/>
	<path fill-rule="evenodd" clip-rule="evenodd" fill="none" stroke="#727171" stroke-width="8" stroke-miterlimit="10" d="
		M147.396,326.875 M138.472,335.241h-14.777c-4.621,0-8.366-3.745-8.366-8.366v-23.982"/>
	
		<line fill-rule="evenodd" clip-rule="evenodd" fill="none" stroke="#727171" stroke-width="8" stroke-miterlimit="10" x1="137.917" y1="312.653" x2="114.493" y2="312.653"/>
	<path fill-rule="evenodd" clip-rule="evenodd" fill="none" stroke="#727171" stroke-width="8" stroke-miterlimit="10" d="
		M179.187,326.875 M170.262,335.241h-14.777c-4.621,0-8.366-3.745-8.366-8.366v-23.982"/>
	
		<line fill-rule="evenodd" clip-rule="evenodd" fill="none" stroke="#727171" stroke-width="8" stroke-miterlimit="10" x1="169.707" y1="309.584" x2="146.282" y2="319.905"/>
	<path fill-rule="evenodd" clip-rule="evenodd" fill="none" stroke="#727171" stroke-width="8" stroke-miterlimit="10" d="
		M123.973,348.625h34.022c4.619,0,8.366,3.745,8.366,8.366v19.519c0,4.621-3.747,8.365-8.366,8.365h-34.022
		c-4.621,0-8.365-3.744-8.365-8.365v-19.519C115.607,352.371,119.352,348.625,123.973,348.625z"/>
	
		<line fill-rule="evenodd" clip-rule="evenodd" fill="none" stroke="#727171" stroke-width="8" stroke-miterlimit="10" x1="190.062" y1="307.634" x2="266.748" y2="307.634"/>
	
		<line fill-rule="evenodd" clip-rule="evenodd" fill="none" stroke="#727171" stroke-width="8" stroke-miterlimit="10" x1="127.042" y1="341.375" x2="127.042" y2="348.625"/>
	<path fill-rule="evenodd" clip-rule="evenodd" fill="none" stroke="#727171" stroke-width="8" stroke-miterlimit="10" d="
		M263.402,355.877v17.287c0,4.62-3.746,8.365-8.366,8.365h-58.004l11.435-46.848"/>
	
		<line fill-rule="evenodd" clip-rule="evenodd" fill="none" stroke="#727171" stroke-width="8" stroke-miterlimit="10" x1="186.993" y1="334.404" x2="270.094" y2="334.404"/>
	
		<line fill-rule="evenodd" clip-rule="evenodd" fill="none" stroke="#727171" stroke-width="8" stroke-miterlimit="10" x1="116.722" y1="367.031" x2="166.638" y2="367.031"/>
	
		<line fill-rule="evenodd" clip-rule="evenodd" fill="none" stroke="#727171" stroke-width="8" stroke-miterlimit="10" x1="320.147" y1="331.129" x2="320.147" y2="386.134"/>
	
		<line fill-rule="evenodd" clip-rule="evenodd" fill="none" stroke="#727171" stroke-width="8" stroke-miterlimit="10" x1="306.763" y1="306.452" x2="306.763" y2="386.343"/>
	
		<line fill-rule="evenodd" clip-rule="evenodd" fill="none" stroke="#727171" stroke-width="8" stroke-miterlimit="10" x1="361.836" y1="301.219" x2="361.836" y2="387.667"/>
	<path fill-rule="evenodd" clip-rule="evenodd" fill="none" stroke="#727171" stroke-width="8" stroke-miterlimit="10" d="
		M294.074,331.336c0,22.309-0.556,41.55-4.461,54.376"/>
	
		<line fill-rule="evenodd" clip-rule="evenodd" fill="none" stroke="#727171" stroke-width="8" stroke-miterlimit="10" x1="332" y1="342.492" x2="352.356" y2="351.136"/>
	
		<line fill-rule="evenodd" clip-rule="evenodd" fill="none" stroke="#727171" stroke-width="8" stroke-miterlimit="10" x1="332" y1="314.049" x2="352.356" y2="322.692"/>
	<path fill-rule="evenodd" clip-rule="evenodd" fill="none" stroke="#727171" stroke-width="8" stroke-miterlimit="10" d="
		M405.06,301.291v74.665c0,4.62-3.744,8.365-8.365,8.365c0,0-2.637,0-5.438,0"/>
	
		<line fill-rule="evenodd" clip-rule="evenodd" fill="none" stroke="#727171" stroke-width="8" stroke-miterlimit="10" x1="417.818" y1="344.096" x2="390.002" y2="360.201"/>
	
		<line fill-rule="evenodd" clip-rule="evenodd" fill="none" stroke="#727171" stroke-width="8" stroke-miterlimit="10" x1="373.828" y1="367.031" x2="328.932" y2="367.031"/>
	
		<line fill-rule="evenodd" clip-rule="evenodd" fill="none" stroke="#727171" stroke-width="8" stroke-miterlimit="10" x1="415.726" y1="316.071" x2="390.211" y2="316.071"/>
	
		<line fill-rule="evenodd" clip-rule="evenodd" fill="none" stroke="#727171" stroke-width="8" stroke-miterlimit="10" x1="323.354" y1="304.288" x2="289.613" y2="308.193"/>
	
		<line fill-rule="evenodd" clip-rule="evenodd" fill="none" stroke="#727171" stroke-width="8" stroke-miterlimit="10" x1="421.164" y1="314.189" x2="475.75" y2="314.189"/>
	
		<line fill-rule="evenodd" clip-rule="evenodd" fill="none" stroke="#727171" stroke-width="8" stroke-miterlimit="10" x1="323.913" y1="321.509" x2="288.149" y2="321.509"/>
	
		<line fill-rule="evenodd" clip-rule="evenodd" fill="none" stroke="#727171" stroke-width="8" stroke-miterlimit="10" x1="426.602" y1="345.979" x2="473.241" y2="385.507"/>
	<path fill-rule="evenodd" clip-rule="evenodd" fill="none" stroke="#727171" stroke-width="8" stroke-miterlimit="10" d="
		M422.419,337.195c0,0,34.508,0,45.384,0c-4.183,17.359-29.489,38.481-47.685,47.894"/>
	
		<line fill-rule="evenodd" clip-rule="evenodd" fill="none" stroke="#727171" stroke-width="8" stroke-miterlimit="10" x1="448.562" y1="301.222" x2="448.562" y2="338.241"/>
</g>
</svg>
