<?xml version="1.0" encoding="utf-8"?>
<!-- Generator: Adobe Illustrator 17.1.0, SVG Export Plug-In . SVG Version: 6.00 Build 0)  -->
<!DOCTYPE svg PUBLIC "-//W3C//DTD SVG 1.1//EN" "http://www.w3.org/Graphics/SVG/1.1/DTD/svg11.dtd">
<svg version="1.1" id="Layer_1" xmlns="http://www.w3.org/2000/svg" xmlns:xlink="http://www.w3.org/1999/xlink" x="0px" y="0px"
	 viewBox="0 0 245.233 35.963" enable-background="new 0 0 245.233 35.963" xml:space="preserve">
<g>
	<g>
		<g>
			<g>
				<g>
					<g>
						<g>
							<path fill="#0B2A35" d="M150.227,30.886h-2.086l-0.934-1.517c-1.616,1.008-3.39,1.517-5.274,1.517
								c-4.097,0-6.175-1.771-6.175-5.265c0-3.555,2.346-5.358,6.975-5.358c1.328,0,2.674,0.091,4.008,0.27v-1.218
								c0-1.716-1.357-2.549-4.149-2.549c-1.656,0-3.381,0.26-5.126,0.773l-0.373,0.109v-2.961l0.21-0.062
								c1.798-0.528,3.578-0.796,5.29-0.796c5.066,0,7.635,1.819,7.635,5.407L150.227,30.886L150.227,30.886z M142.734,23.198
								c-2.347,0-3.489,0.777-3.489,2.376c0,1.621,0.855,2.376,2.689,2.376c1.877,0,3.495-0.49,4.809-1.455v-3.021
								C145.41,23.29,144.063,23.198,142.734,23.198z"/>
						</g>
					</g>
				</g>
				<g>
					<g>
						<g>
							<path fill="#0B2A35" d="M61.529,30.886h-3.485V20.207c0-1.806-1.427-3.321-3.179-3.377l-0.187-0.003
								c-1.544,0-3.039,0.646-4.445,1.923v12.136h-3.485V7.406h1.795c0.932,0,1.691,0.758,1.691,1.691v6.214
								c1.358-0.984,2.983-1.481,4.839-1.481c4.285,0,6.458,2.162,6.458,6.427L61.529,30.886L61.529,30.886z"/>
						</g>
					</g>
				</g>
				<g>
					<g>
						<g>
							<path fill="#0B2A35" d="M78.372,30.886h-2.086l-0.934-1.517c-1.616,1.008-3.389,1.517-5.274,1.517
								c-4.097,0-6.175-1.771-6.175-5.265c0-3.555,2.347-5.358,6.975-5.358c1.327,0,2.674,0.091,4.008,0.27v-1.218
								c0-1.716-1.357-2.549-4.149-2.549c-1.658,0-3.382,0.26-5.127,0.773l-0.373,0.109v-2.961l0.21-0.062
								c1.798-0.528,3.578-0.796,5.291-0.796c5.066,0,7.634,1.819,7.634,5.407L78.372,30.886L78.372,30.886z M70.88,23.198
								c-2.348,0-3.489,0.777-3.489,2.376c0,1.621,0.855,2.376,2.689,2.376c1.878,0,3.494-0.49,4.808-1.455v-3.021
								C73.555,23.29,72.209,23.198,70.88,23.198z"/>
						</g>
					</g>
				</g>
				<g>
					<g>
						<g>
							<path fill="#0B2A35" d="M94.326,30.886H80.877v-2.593l0.068-0.081l9.564-11.447h-9.318v-2.936H94.64v2.749l-0.067,0.081
								l-9.444,11.448h9.196V30.886L94.326,30.886z"/>
						</g>
					</g>
				</g>
				<g>
					<g>
						<g>
							<path fill="#0B2A35" d="M104.874,30.886c-5.825,0-8.78-2.933-8.78-8.717c0-5.534,2.648-8.34,7.87-8.34
								c4.858,0,7.32,2.437,7.32,7.242c0,0.671-0.048,1.396-0.144,2.155l-0.032,0.255H99.586c0.109,3.007,1.945,4.47,5.603,4.47
								c1.836,0,3.487-0.207,4.908-0.617l0.372-0.107v2.961l-0.211,0.061C108.784,30.671,106.973,30.886,104.874,30.886z
								 M99.607,20.482h8.291c-0.146-2.521-1.434-3.748-3.933-3.748C101.298,16.734,99.871,17.961,99.607,20.482z"/>
						</g>
					</g>
				</g>
				<g>
					<g>
						<g>
							<path fill="#0B2A35" d="M117.658,30.886h-3.486V7.406h1.795c0.932,0,1.691,0.758,1.691,1.691L117.658,30.886L117.658,30.886z
								"/>
						</g>
					</g>
				</g>
				<g>
					<g>
						<g>
							<path fill="#0B2A35" d="M129.252,30.886c-6.023,0-9.078-2.975-9.078-8.842c0-5.451,3.054-8.215,9.078-8.215
								c1.581,0,3.082,0.16,4.458,0.478l0.227,0.052v2.953l-0.358-0.083c-1.332-0.307-2.842-0.463-4.485-0.463
								c-3.657,0-5.435,1.727-5.435,5.279c0,3.974,1.779,5.906,5.435,5.906c1.643,0,3.152-0.156,4.485-0.463l0.358-0.083v2.953
								l-0.227,0.052C132.334,30.726,130.833,30.886,129.252,30.886z"/>
						</g>
					</g>
				</g>
				<g>
					<g>
						<g>
							<path fill="#0B2A35" d="M159.699,30.886c-1.992,0-3.992-0.268-5.945-0.795l-0.215-0.058V26.9l0.381,0.123
								c1.899,0.616,3.842,0.928,5.779,0.928c3.646,0,3.646-1.553,3.646-2.063c0-0.818-0.255-1.905-2.454-1.905h-2.353
								c-3.733,0-5.626-1.734-5.626-5.155c0-3.317,2.406-4.999,7.148-4.999c1.982,0,3.977,0.268,5.929,0.795l0.215,0.058v3.134
								l-0.381-0.123c-1.898-0.616-3.838-0.928-5.763-0.928c-3.82,0-3.82,1.553-3.82,2.063c0,1.299,0.73,1.904,2.297,1.904h2.353
								c3.941,0,5.94,1.734,5.94,5.155C166.831,29.205,164.431,30.886,159.699,30.886z"/>
						</g>
					</g>
				</g>
				<g>
					<g>
						<g>
							<path fill="#0B2A35" d="M176.933,30.886h-3.052c-2.943,0-4.434-1.591-4.434-4.731V11.161h2.343l0.627,2.667h4.516v2.936h-4
								v9.17c0,1.375,0.541,2.015,1.701,2.015h2.3V30.886L176.933,30.886z"/>
						</g>
					</g>
				</g>
			</g>
		</g>
		<g>
			<path fill="#FF5F00" d="M190.062,13.73v17.037h-3.157V13.73H190.062z"/>
			<path fill="#FF5F00" d="M193.246,30.767V13.73h3.276l5.778,12.927l5.659-12.927h3.157v17.037h-2.919V18.9l-4.623,11.866h-2.693
				L196.165,18.9v11.866H193.246z"/>
			<path fill="#FF5F00" d="M214.301,30.767V13.73h6.672c5.639,0,8.459,2.685,8.459,8.054c0,5.989-2.82,8.983-8.459,8.983H214.301z
				 M220.973,28.026c3.534,0,5.302-2.081,5.302-6.243c0-3.542-1.768-5.313-5.302-5.313h-3.515v11.557H220.973z"/>
			<path fill="#FF5F00" d="M245.233,29.981c-1.374,0.604-3.094,0.905-5.159,0.905c-6.013,0-9.019-2.958-9.019-8.876
				c0-5.6,3.058-8.399,9.174-8.399c1.866,0,3.534,0.278,5.004,0.834v2.859c-1.47-0.635-3.058-0.953-4.766-0.953
				c-4.091,0-6.136,1.887-6.136,5.659c0,4.091,1.93,6.136,5.79,6.136c0.572,0,1.223-0.095,1.954-0.286v-4.956h3.157V29.981z"/>
		</g>
	</g>
	<g>
		<circle fill="#0B2A35" cx="3.717" cy="3.717" r="3.717"/>
		<circle fill="#0B2A35" cx="13.226" cy="3.717" r="3.717"/>
		<g>
			<circle fill="#FF5F00" cx="22.736" cy="3.717" r="3.717"/>
		</g>
		<circle fill="#FF5F00" cx="32.246" cy="3.717" r="3.717"/>
		<circle fill="#0B2A35" cx="3.717" cy="13.226" r="3.717"/>
		<circle fill="#0B2A35" cx="13.226" cy="13.226" r="3.717"/>
		<g>
			<circle fill="#FF5F00" cx="22.736" cy="13.226" r="3.717"/>
		</g>
		<circle fill="#FF5F00" cx="32.246" cy="13.226" r="3.717"/>
		<circle fill="#0B2A35" cx="3.717" cy="22.736" r="3.717"/>
		<circle fill="#0B2A35" cx="13.226" cy="22.736" r="3.717"/>
		<g>
			<circle fill="#0B2A35" cx="22.736" cy="22.736" r="3.717"/>
		</g>
		<g>
			<circle fill="#0B2A35" cx="32.246" cy="22.736" r="3.717"/>
		</g>
		<circle fill="#0B2A35" cx="3.717" cy="32.246" r="3.717"/>
		<circle fill="#0B2A35" cx="13.226" cy="32.246" r="3.717"/>
		<g>
			<circle fill="#0B2A35" cx="22.736" cy="32.246" r="3.717"/>
		</g>
		<circle fill="#0B2A35" cx="32.246" cy="32.246" r="3.717"/>
	</g>
</g>
</svg>
