<svg width="364" height="280" viewBox="0 0 364 280" fill="none" xmlns="http://www.w3.org/2000/svg">
<path d="M30 280H24V274V268V262V256H18H12V262V268V274V280H6H0V274V268V262V256V250V244V238V232V226V220H6H12V226V232V238V244H18H24V238V232V226V220H30H36V226V232V238V244V250V256V262V268V274V280H30Z" fill="black"/>
<path d="M76.7998 280H70.7998H64.7998H58.7998H52.7998H46.7998V274V268V262V256V250V244V238V232V226V220H52.7998H58.7998H64.7998H70.7998H76.7998H82.7998V226V232H76.7998H70.7998H64.7998H58.7998V238V244H64.7998H70.7998H76.7998H82.7998V250V256H76.7998H70.7998H64.7998H58.7998V262V268H64.7998H70.7998H76.7998H82.7998V274V280H76.7998Z" fill="black"/>
<path d="M123.6 280H117.6V274V268V262V256H111.6H105.6V262V268V274V280H99.6001H93.6001V274V268V262V256V250V244V238V232V226V220H99.6001H105.6H111.6H117.6H123.6H129.6V226V232V238V244V250V256V262V268V274V280H123.6ZM111.6 244.1H117.6V238.1V232.1H111.6H105.6V238.1V244.1H111.6Z" fill="black"/>
<path d="M158.4 280H152.4H146.4H140.4V274V268V262V256V250V244V238V232V226V220H146.4H152.4H158.4H164.4V226V232H170.4H176.4V238V244V250V256V262V268H170.4H164.4V262V256V250V244V238V232H158.4H152.4V238V244V250V256V262V268H158.4H164.4V274V280H158.4Z" fill="black"/>
<path d="M217.2 280H211.2H205.2H199.2H193.2H187.2V274V268V262V256V250V244V238V232V226V220H193.2H199.2V226V232V238V244V250V256V262V268H205.2H211.2H217.2H223.2V274V280H217.2Z" fill="black"/>
<path d="M264 280H258V274V268V262V256H252H246V262V268V274V280H240H234V274V268V262V256V250V244V238V232V226V220H240H246H252H258H264H270V226V232V238V244V250V256V262V268V274V280H264ZM252 244.1H258V238.1V232.1H252H246V238.1V244.1H252Z" fill="black"/>
<path d="M310.8 280H304.8V274V268V262V256V250V244H298.8H292.8V250V256V262V268V274V280H286.8H280.8V274V268V262V256V250V244V238V232V226V220H286.8H292.8V226V232H298.8H304.8V226V220H310.8H316.8V226V232V238V244V250V256V262V268V274V280H310.8Z" fill="black"/>
<path d="M333.6 280H327.6V274V268V262V256V250V244V238V232V226V220H333.6H339.6H345.6H351.6H357.6H363.6V226V232V238V244V250V256H357.6H351.6H345.6H339.6V262V268V274V280H333.6ZM345.6 244.1H351.6V238.1V232.1H345.6H339.6V238.1V244.1H345.6Z" fill="black"/>
<path d="M253.6 114.3V72L242.4 57.4V32.8L206.5 19.9V0H157.2V19.9L121.3 32.8V57.4L110.1 72V114.3L121.3 129.4L110.1 164.2L181.9 180.1L253.6 164.2L242.4 129.4L253.6 114.3Z" fill="black"/>
<path d="M181.9 129.4C201.7 129.4 217.8 113.3 217.8 93.5001C217.8 73.7001 201.7 57.6001 181.9 57.6001C162.1 57.6001 146 73.7001 146 93.5001C146 113.3 162.1 129.4 181.9 129.4Z" fill="#FFF200"/>
</svg>
