<svg width="984" height="438" viewBox="0 0 984 438" fill="none" xmlns="http://www.w3.org/2000/svg">
<rect width="984" height="437.333" rx="200" fill="#303030"/>
<path fill-rule="evenodd" clip-rule="evenodd" d="M523.351 157.198V280.132H502.401V231.606H455.666V280.132H434.715V157.198H455.666V210.578H502.401V157.198H523.351ZM565.156 258.312C560.224 254.818 555.583 249.399 555.583 244.546H624.075C624.664 241.673 624.934 238.744 624.88 235.811C625.127 224.065 620.736 212.697 612.665 204.188C604.628 195.507 594.303 191.167 581.69 191.167C568.368 191.167 557.463 195.48 548.975 204.107C544.812 208.208 541.534 213.124 539.344 218.55C537.154 223.977 536.099 229.797 536.244 235.65C536.244 248.515 540.542 259.169 549.137 267.612C557.732 276.056 569.013 280.229 582.98 280.132C599.611 280.132 612.176 273.986 620.674 261.692L605.541 252.634C600.707 259.913 593.1 263.391 583.221 263.391C576.823 263.593 570.518 261.82 565.156 258.312ZM605.541 229.988H555.583C555.583 223.518 559.708 217.048 564.301 213.327C569.21 209.501 575.302 207.526 581.513 207.747C587.23 207.625 592.816 209.475 597.339 212.988C601.932 216.482 605.541 225.136 605.541 229.988ZM637.773 157.198V280.132H658.723V157.198H637.773ZM689.343 175.185C688.404 176.16 687.276 176.933 686.029 177.456C684.782 177.979 683.442 178.241 682.091 178.226C680.711 178.244 679.341 177.984 678.062 177.462C676.783 176.939 675.622 176.165 674.645 175.186C673.669 174.206 672.898 173.04 672.378 171.756C671.858 170.473 671.599 169.098 671.616 167.712C671.616 164.924 672.719 162.25 674.684 160.278C676.648 158.306 679.313 157.198 682.091 157.198C684.869 157.198 687.534 158.306 689.498 160.278C691.463 162.25 692.566 164.924 692.566 167.712C692.567 169.113 692.281 170.499 691.727 171.784C691.172 173.07 690.361 174.227 689.343 175.185ZM671.616 191.167V280.132H692.566V191.167H671.616ZM718.351 267.273C724.555 273.535 732.475 277.802 741.102 279.53C749.73 281.259 758.675 280.371 766.798 276.979C774.922 273.588 781.855 267.846 786.717 260.486C791.578 253.126 794.146 244.48 794.095 235.65C794.095 229.808 792.949 224.024 790.722 218.627C788.494 213.23 785.23 208.326 781.115 204.196C776.999 200.065 772.114 196.788 766.737 194.553C761.36 192.317 755.597 191.167 749.777 191.167C743.957 191.167 738.194 192.317 732.817 194.553C727.44 196.788 722.555 200.065 718.439 204.196C714.324 208.326 711.06 213.23 708.832 218.627C706.605 224.024 705.459 229.808 705.459 235.65C705.325 241.527 706.401 247.369 708.619 252.811C710.838 258.252 714.151 263.175 718.351 267.273ZM749.777 263.148C746.168 263.236 742.579 262.587 739.227 261.241C735.875 259.895 732.83 257.881 730.277 255.319C727.682 252.763 725.641 249.697 724.283 246.312C722.924 242.927 722.276 239.297 722.38 235.65C722.276 232.002 722.924 228.372 724.283 224.987C725.641 221.603 727.682 218.536 730.277 215.98C735.535 210.956 742.517 208.154 749.777 208.154C757.037 208.154 764.019 210.956 769.277 215.98C771.872 218.536 773.913 221.603 775.271 224.987C776.63 228.372 777.278 232.002 777.174 235.65C777.278 239.297 776.63 242.927 775.271 246.312C773.913 249.697 771.872 252.763 769.277 255.319C766.724 257.881 763.679 259.895 760.327 261.241C756.975 262.587 753.386 263.236 749.777 263.148ZM828.744 223.469C825.682 221.852 824.151 219.523 824.151 216.708C824.09 215.387 824.389 214.074 825.016 212.911C825.644 211.748 826.576 210.779 827.712 210.108C830.359 208.462 833.432 207.64 836.544 207.747C844.226 207.747 849.539 210.982 852.482 217.452L867.921 208.814C865.095 203.353 860.713 198.86 855.335 195.906C849.624 192.669 843.15 191.032 836.592 191.167C828.591 190.896 820.741 193.404 814.369 198.268C811.529 200.479 809.25 203.333 807.718 206.597C806.186 209.861 805.444 213.442 805.553 217.048C805.386 222.136 807.038 227.116 810.211 231.088C813.311 234.652 817.291 237.335 821.75 238.869C826.262 240.432 830.726 241.839 835.142 243.09C839.093 244.005 842.911 245.424 846.503 247.312C849.726 249.016 851.311 251.216 851.258 253.912C851.258 260.231 846.45 263.391 836.834 263.391C827.218 263.391 820.944 259.331 818.011 251.21L802.153 260.35C804.81 266.504 809.4 271.616 815.223 274.908C821.807 278.545 829.241 280.349 836.753 280.132C846.262 280.132 854.126 277.819 860.347 273.193C863.395 271.06 865.861 268.194 867.519 264.856C869.178 261.519 869.975 257.817 869.839 254.09C870.049 248.925 868.357 243.863 865.085 239.871C862.156 236.129 858.21 233.32 853.723 231.784C849.195 230.166 844.682 228.84 840.154 227.724C836.244 226.681 832.44 225.273 828.792 223.518L828.744 223.469Z" fill="white"/>
<path fill-rule="evenodd" clip-rule="evenodd" d="M275.863 103.674C278.919 105.269 281.218 108.019 282.254 111.316C283.291 114.613 282.98 118.189 281.39 121.256L247.773 186.088C246.085 189.141 243.614 191.686 240.615 193.457C237.617 195.229 234.202 196.163 230.723 196.163C227.244 196.163 223.828 195.229 220.83 193.457C217.832 191.686 215.36 189.141 213.672 186.088L179.942 121.256C178.435 118.227 178.161 114.727 179.179 111.499C180.197 108.27 182.426 105.565 185.396 103.958C188.365 102.35 191.841 101.965 195.088 102.884C198.336 103.803 201.099 105.954 202.794 108.882L202.987 109.222L223.599 148.836C224.574 150.732 226.256 152.165 228.278 152.822C230.3 153.48 232.5 153.309 234.397 152.346C235.863 151.586 237.057 150.388 237.813 148.916L258.361 109.222C259.147 107.704 260.223 106.356 261.528 105.255C262.833 104.154 264.341 103.323 265.966 102.807C267.592 102.292 269.302 102.104 271 102.252C272.698 102.401 274.351 102.884 275.863 103.674Z" fill="#79851E"/>
<path fill-rule="evenodd" clip-rule="evenodd" d="M197.589 201.503L132.997 167.745C129.944 166.175 126.396 165.882 123.128 166.929C119.859 167.975 117.137 170.277 115.553 173.332C113.97 176.386 113.655 179.945 114.676 183.232C115.698 186.519 117.974 189.267 121.007 190.876L160.474 211.483C161.782 212.167 162.877 213.197 163.642 214.462C164.407 215.726 164.811 217.178 164.811 218.657C164.811 220.137 164.407 221.588 163.642 222.853C162.877 224.118 161.782 225.148 160.474 225.831L121.007 246.455L120.668 246.633C117.751 248.334 115.608 251.108 114.692 254.367C113.777 257.626 114.16 261.115 115.762 264.096C117.364 267.076 120.059 269.314 123.275 270.336C126.492 271.357 129.978 271.083 132.997 269.57L197.589 235.828C200.631 234.135 203.167 231.657 204.932 228.649C206.698 225.641 207.629 222.213 207.629 218.722C207.629 215.231 206.698 211.803 204.932 208.795C203.167 205.787 200.631 203.308 197.589 201.616V201.503Z" fill="#D6EA3D"/>
<path fill-rule="evenodd" clip-rule="evenodd" d="M344.612 173.374C346.173 176.382 346.504 179.883 345.535 183.133C344.566 186.382 342.374 189.125 339.423 190.779L339.085 190.957L299.633 211.499C298.326 212.183 297.23 213.213 296.466 214.478C295.701 215.743 295.296 217.194 295.296 218.673C295.296 220.153 295.701 221.604 296.466 222.869C297.23 224.134 298.326 225.164 299.633 225.847L339.085 246.455C340.609 247.238 341.964 248.317 343.072 249.628C344.179 250.94 345.018 252.458 345.538 254.096C346.059 255.734 346.252 257.459 346.106 259.171C345.96 260.884 345.477 262.551 344.687 264.076C343.896 265.602 342.813 266.955 341.499 268.058C340.186 269.161 338.668 269.993 337.033 270.505C335.398 271.017 333.678 271.199 331.972 271.041C330.267 270.884 328.609 270.389 327.095 269.586L262.503 235.827C259.46 234.135 256.925 231.657 255.159 228.649C253.394 225.641 252.463 222.213 252.463 218.722C252.463 215.231 253.394 211.803 255.159 208.795C256.925 205.787 259.46 203.308 262.503 201.616L327.095 167.874C330.145 166.275 333.703 165.955 336.987 166.987C340.271 168.018 343.014 170.315 344.612 173.374Z" fill="#79851E"/>
<path fill-rule="evenodd" clip-rule="evenodd" d="M230.046 241.084C233.524 241.081 236.939 242.014 239.935 243.786C242.931 245.559 245.399 248.106 247.08 251.162L280.697 315.993C282.205 319.023 282.478 322.522 281.46 325.751C280.443 328.98 278.213 331.684 275.244 333.292C272.274 334.9 268.798 335.285 265.551 334.366C262.304 333.447 259.54 331.296 257.845 328.368L257.668 328.028L237.185 288.511C236.504 287.199 235.478 286.099 234.218 285.331C232.958 284.564 231.512 284.158 230.038 284.158C228.564 284.158 227.118 284.564 225.858 285.331C224.597 286.099 223.571 287.199 222.89 288.511L202.359 328.109C201.578 329.639 200.504 330.999 199.197 332.111C197.891 333.223 196.378 334.064 194.746 334.587C193.114 335.109 191.396 335.303 189.689 335.156C187.983 335.009 186.322 334.525 184.802 333.732C183.283 332.938 181.935 331.851 180.836 330.533C179.736 329.214 178.908 327.69 178.398 326.049C177.888 324.408 177.706 322.682 177.863 320.97C178.02 319.258 178.513 317.594 179.313 316.074L212.947 251.243C214.627 248.166 217.101 245.599 220.109 243.811C223.118 242.024 226.55 241.082 230.046 241.084Z" fill="#79851E"/>
</svg>
