<?xml version="1.0" encoding="utf-8"?>
<!-- Generator: Adobe Illustrator 21.1.0, SVG Export Plug-In . SVG Version: 6.00 Build 0)  -->
<svg version="1.1" id="Layer_1" xmlns="http://www.w3.org/2000/svg" xmlns:xlink="http://www.w3.org/1999/xlink" x="0px" y="0px"
	 viewBox="0 0 124 129.1199951" style="enable-background:new 0 0 124 129.1199951;" xml:space="preserve">
<style type="text/css">
	.st0{fill:#27799F;enable-background:new    ;}
</style>
<g>
	<path class="st0" d="M66.8909378,12.8531189c0.0505753,2.1817608-0.1637268,4.3395081-0.7128448,6.4500809
		c-0.1484299,0.5704517-0.0136185,0.6638985,0.5182419,0.7249718c6.9416275,0.797121,13.3946991,3.0124302,19.2946701,6.7714462
		c0.6938324,0.4420528,0.8293304,0.1972504,1.0830688-0.4282684c1.7117538-4.2197685,4.2646179-7.8530579,7.7538528-10.7969341
		c1.1702499-0.9873438,2.4272308-1.8612299,3.9838715-2.1457291c1.5675964-0.286499,2.555748,0.4742117,2.7156677,2.0734062
		c0.1558151,1.5581532-0.1952896,3.0390034-0.7469177,4.472929c-1.6624222,4.3214283-4.2280807,8.0235386-7.737915,11.0480824
		c-0.5304794,0.4571419-0.6236954,0.6779613-0.0565567,1.2059994c2.7940674,2.6013641,5.1775894,5.5496902,7.2374496,8.7655563
		c0.3285065,0.5128632,0.3395767,0.7722549-0.2260513,1.099472c-1.6428299,0.950386-3.264946,1.9384346-4.8683929,2.9540024
		c-0.5304947,0.3359985-0.8033371,0.3363495-1.1671143-0.2472496c-2.3565216-3.7805176-5.3195953-7.0246925-8.8498535-9.7398834
		c-5.7229385-4.4016361-12.1577759-7.1163712-19.3608475-7.7590561
		c-14.1645584-1.2638073-25.6828957,3.7635536-34.5800781,14.8372955c-0.1698437,0.2113953-0.3344803,0.4275055-0.4918232,0.6483383
		c-1.2542076,1.7603226-1.2533245,1.760582-3.0329437,0.6107254c-1.1961403-0.77285-2.3806725-1.5647125-3.5949211-2.3080101
		c-0.526062-0.3220291-0.697649-0.5561447-0.2847214-1.1594543c2.0796947-3.0385246,4.4462318-5.8248672,7.1798687-8.2875652
		c0.5595779-0.5041142,0.6205902-0.7282448,0.036993-1.294117c-3.5898514-3.4808331-6.3400974-7.4934387-7.5669556-12.4225082
		c-0.2241764-0.9006634-0.2570858-1.8183861-0.115448-2.7285328c0.2035999-1.3083305,1.1688499-1.9989748,2.4771309-1.8058662
		c1.6441288,0.2426805,2.9569607,1.154706,4.1838913,2.1829004c3.2818146,2.7502298,5.7206306,6.1438322,7.4364281,10.0497408
		c0.3196831,0.7277241,0.5511017,0.7800751,1.2141762,0.3892746c5.8712921-3.4604282,12.2042809-5.5099201,19.0055847-6.04739
		c0.8943748-0.0706768,0.9995842-0.3659344,0.830452-1.2000122c-0.9231606-4.5527382-0.9011955-9.0897379,0.462368-13.571104
		c0.3276024-1.0766764,0.7809601-2.0989211,1.4857941-2.9867489c1.2488747-1.5731091,2.7203789-1.5702569,3.961792,0.0353632
		c1.2377777,1.6009274,1.7215424,3.5103695,2.1047745,5.4479198C66.8004761,9.3952227,66.9245987,11.118659,66.8909378,12.8531189z"
		/>
	<path class="st0" d="M57.8234406,116.9787827c0.0791664-1.726265,0.0509758-3.4627838,0.4531403-5.1606827
		c0.1486053-0.6274033,0.1672211-0.9952011-0.7320251-1.073822c-6.929493-0.6057816-13.3900795-2.7136993-19.3547325-6.2953186
		c-0.6214294-0.3731537-0.792675-0.2327499-1.0719337,0.3518295c-1.7316704,3.6249542-4.0498543,6.8189621-7.1496067,9.4043427
		c-1.1764641,0.9812088-2.4281292,1.8617172-3.9842129,2.1488037c-1.5697365,0.2896042-2.5602398-0.4686966-2.7221432-2.0660477
		c-0.1579704-1.5585785,0.2020187-3.0366211,0.742548-4.4752731c1.4055653-3.7410202,3.5693436-7.0054626,6.399395-9.8061981
		c0.6815166-0.6744614,0.5736885-0.971199-0.0593643-1.5398865c-2.1276512-1.9113235-3.9537563-4.0976639-5.6562901-6.3937683
		c-0.3834991-0.5172043-0.4247532-0.7881393,0.15979-1.1728287c1.5581055-1.0253754,3.0928879-2.0890656,4.5975704-3.1912613
		c0.5632668-0.4126053,0.84552-0.3802185,1.2663498,0.2023087c3.3724442,4.6682816,7.5978127,8.3900299,12.6726341,11.1094437
		c7.6346054,4.0910873,15.7523003,5.5292587,24.3132019,4.1301117c10.3700943-1.6948471,18.6593628-6.846405,24.9163284-15.2727737
		c0.3929825-0.5292358,0.6649017-0.6892624,1.2649307-0.2452927c1.4990463,1.109169,3.0395355,2.1648102,4.5960159,3.1925201
		c0.5454559,0.3601608,0.6290359,0.5926971,0.2119827,1.1561203c-1.5993881,2.160614-3.3118515,4.219696-5.2716675,6.0586166
		c-0.4961472,0.4655457-0.3961487,0.6577072,0.0477982,1.0754852c3.7754669,3.5528793,6.6454086,7.6791458,7.91922,12.7856216
		c0.2159958,0.86586,0.2394638,1.751091,0.1132507,2.6293182c-0.1961823,1.365242-1.1643448,2.0634995-2.5309067,1.8529205
		c-1.6063385-0.2475128-2.8932877-1.1374512-4.0966873-2.1399231c-3.3466034-2.7878571-5.8022308-6.2518158-7.5486679-10.2202682
		c-0.2790909-0.6342087-0.4658813-0.6852951-1.0331421-0.3182983c-5.9046249,3.8200836-12.3616638,6.1227036-19.3484039,6.9121017
		c-0.663826,0.0749969-0.6261368,0.3033447-0.5311432,0.8355484c0.7419434,4.1565247,0.7388916,8.301712-0.3546677,12.4065094
		c-0.3681946,1.3820343-0.8699646,2.7163162-1.8119583,3.8300247c-1.2015343,1.4205475-2.599144,1.4294281-3.7648811-0.0312347
		c-1.4917145-1.8691177-1.9463158-4.1385498-2.3518257-6.4180603
		C57.8724403,119.8290787,57.9094849,118.3996201,57.8234406,116.9787827z"/>
	<path class="st0" d="M97.8150253,61.2781601c1.2383118,6.8138046,1.2507706,13.58078,1.2151337,20.3543015
		c-0.004837,0.920639-0.2518692,1.1331558-1.1315613,1.1032486c-2.0004196-0.0680008-4.0052948-0.0479965-6.0071487-0.0060883
		c-0.6400757,0.0134048-0.7881546-0.1844635-0.7870789-0.8018646c0.0184021-10.5906982,0.0190964-21.1814384-0.0008087-31.7721291
		c-0.0012436-0.6634789,0.1756058-0.860878,0.8461533-0.8508644c2.5452728,0.0379982,5.0922852,0.0511551,7.6368179-0.0065804
		c0.7646408-0.0173492,1.050705,0.2746544,1.2861176,0.9387779c2.1267166,5.9996071,4.5622482,11.8928413,6.1889648,18.0641251
		c0.049614,0.1882248,0.1467896,0.3639221,0.2542953,0.6241302c0.4495468-0.591835,0.5146255-1.2466583,0.6811066-1.8452606
		c1.617157-5.814537,3.8224945-11.4300842,5.7579727-17.1367455c0.1731491-0.5104904,0.4503784-0.6399498,0.9631805-0.6349373
		c2.6134872,0.0255394,5.2277069,0.0346451,7.8408661-0.0040131c0.6626205-0.0098038,0.7751236,0.2326889,0.774292,0.8227692
		c-0.0149307,10.5907021-0.0144806,21.1814423-0.0007553,31.7721481c0.0007401,0.5728836-0.0779114,0.8464203-0.758667,0.8318481
		c-2.1375275-0.0457535-4.2772217-0.044136-6.4148483-0.0007935c-0.674118,0.0136719-0.7671585-0.2525482-0.7695465-0.8335724
		c-0.0261536-6.3462296-0.1040878-12.6934509,0.9340668-18.9876442c0.0658264-0.3990784,0.0535507-0.8116837,0.0659943-1.2183533
		c0.0025177-0.0822372-0.0474625-0.1660767-0.1399918-0.4642792c-0.335228,1.0022011-0.6106262,1.8176651-0.8809052,2.6348267
		c-1.7130966,5.1793022-3.7154846,10.2537727-5.5606232,15.3851509c-0.2225342,0.6188736-0.5419922,0.8287735-1.1858749,0.7964859
		c-1.0496521-0.0526276-2.104744-0.0398407-3.1557388-0.003006c-0.4887466,0.017128-0.7266922-0.1601791-0.8893585-0.6082153
		c-2.1032944-5.793129-4.4160919-11.5122452-6.1415176-17.4387436
		C98.3654404,61.7520256,98.3518372,61.4508934,97.8150253,61.2781601z"/>
	<path class="st0" d="M28.3669281,66.0203323c-0.0000057,5.2261047-0.0134602,10.4522934,0.0151386,15.6782455
		c0.0040836,0.7460938-0.1115303,1.0636597-0.972044,1.0383759c-2.3056412-0.0677185-4.6151085-0.0505219-6.9219017-0.0065536
		c-0.7014408,0.0133667-0.9187183-0.1599579-0.9113922-0.889595c0.0378132-3.7664871-0.0017586-7.5337448,0.0335674-11.3002853
		c0.0071812-0.7656631-0.1460247-1.0593338-0.9927979-1.040451c-2.6456738,0.0589752-5.2943945,0.0606918-7.9399796-0.000206
		c-0.8884573-0.020462-1.0457659,0.2892609-1.0368185,1.0971527C9.6820364,74.329483,9.6335459,78.0629807,9.67939,81.7953568
		c0.0096903,0.7889175-0.2305717,0.9509659-0.9685087,0.9360275c-2.3406086-0.0473709-4.6830149-0.0355759-7.0241833-0.0050354
		c-0.595796,0.0077591-0.815485-0.1142807-0.8141309-0.7734146c0.0218204-10.6218491,0.021515-21.243763,0.0006291-31.865612
		c-0.0012835-0.6527672,0.2106208-0.7877274,0.8132042-0.7796249c2.3411431,0.0315056,4.6835957,0.0434303,7.0241599-0.005043
		c0.7453127-0.0154381,0.9784307,0.1605225,0.9681082,0.9428444c-0.0456657,3.4608536,0.0050287,6.9229584-0.0381012,10.3838768
		c-0.0100775,0.8086433,0.1500435,1.1152687,1.0367842,1.0948372c2.645586-0.0609398,5.2943277-0.0597,7.9399662,0.000103
		c0.8466778,0.0191307,1.0010815-0.2717056,0.9930363-1.037941c-0.0367031-3.4949989,0.0044861-6.9908218-0.0328598-10.4858055
		c-0.0077209-0.7226715,0.2039833-0.9100113,0.9105358-0.8965454c2.3067932,0.0439644,4.6162605,0.0611343,6.9219074-0.0065384
		c0.8654537-0.0253983,0.9755859,0.3022499,0.9716644,1.0446091C28.3539677,55.5680542,28.3669338,60.7942238,28.3669281,66.0203323
		z"/>
	<path class="st0" d="M35.5134735,66.0634613c-0.0000114-5.2611885,0.0136414-10.5224533-0.0159111-15.7834816
		c-0.0040588-0.7225304,0.1229362-0.9845505,0.9275131-0.9800262c6.5168839,0.0366058,13.034111,0.0318756,19.5510826,0.0046883
		c0.7284813-0.0030365,1.0079994,0.1355286,0.9808922,0.9351082c-0.063221,1.8647308-0.0505714,3.7338181-0.0043488,5.5995483
		c0.0170479,0.6882591-0.2207489,0.8424988-0.8659439,0.8375702c-3.5977669-0.0275116-7.1960831,0.0083885-10.793644-0.0302963
		c-0.7747154-0.0083313-1.0462952,0.1542511-1.0275192,0.9955482c0.040287,1.8049393,0.0520515,1.4519958,0.003006,3.2562485
		c-0.0213356,0.7849083,0.1680908,1.0437584,0.9983826,1.0286369c2.952076-0.0537491,5.9063416,0.0122337,8.8583946-0.0421753
		c0.8342972-0.0153694,1.0123482,0.257473,0.991291,1.0294952c-0.0518036,1.8994026-0.0451469,3.8018074-0.0019073,5.7016487
		c0.0153275,0.6732941-0.1912727,0.8612442-0.8567619,0.8538971c-2.9866409-0.0329437-5.974144,0.008812-8.9606323-0.0303268
		c-0.7582054-0.0099258-1.0485229,0.1321869-1.0336723,0.9838867c0.0239677,1.3747177-0.0185165,2.7396393,0.0039024,4.0712433
		c0.0123749,0.7349472,0.2194061,0.8989258,0.9165726,0.8928757c3.7674026-0.0326767,7.5354729,0.006752,11.3027306-0.0335083
		c0.7869377-0.0084076,1.0463867,0.1805267,1.0172348,1.0008621c-0.0650597,1.8306122-0.0430832,3.6655807-0.0078392,5.4978256
		c0.0120735,0.6277847-0.1143875,0.8803024-0.8221893,0.877449c-6.7885208-0.0273209-13.5772514-0.0284195-20.3657532,0.0012054
		c-0.7262192,0.0031738-0.8081207-0.2756424-0.8059044-0.8843842
		C35.5216103,76.5858841,35.5134773,71.3246536,35.5134735,66.0634613z"/>
	<path class="st0" d="M64.0286102,65.9905243c-0.0000076-5.2271385,0.0175705-10.4543953-0.0187073-15.6812782
		c-0.0055237-0.7959747,0.1951981-1.0291023,1.0032654-1.0087471c2.2727051,0.0572472,4.5490112,0.0628853,6.8212967-0.0022278
		c0.8475037-0.0242844,0.9829178,0.2760429,0.9805527,1.0326958c-0.02491,7.9763947-0.0022659,15.9529533-0.0344696,23.9292946
		c-0.0034561,0.8553696,0.1449356,1.1564026,1.0913391,1.1384964c3.5287476-0.0667877,7.0598602-0.0010529,10.5892868-0.0464172
		c0.7859116-0.0101013,0.9638519,0.2291107,0.9428406,0.9725037c-0.0527115,1.8653564-0.0429764,3.7337265-0.0031509,5.5997162
		c0.0133438,0.6247787-0.16259,0.8050385-0.7944565,0.8029099c-6.5847626-0.0221405-13.1696701-0.0237961-19.7544022,0.0016708
		c-0.6780548,0.0026169-0.8405762-0.1996384-0.8374786-0.8536148C64.03965,76.5806198,64.0286255,71.285553,64.0286102,65.9905243z"
		/>
</g>
</svg>
