<svg width="3206" height="2539" viewBox="0 0 3206 2539" fill="none" xmlns="http://www.w3.org/2000/svg">
<g clip-path="url(#clip0_3_32)">
<path d="M1715.47 2538.04L1588.58 2074H1645.68L1742.66 2451.94H1747.19L1845.98 2074H1909.42L2008.22 2451.94H2012.75L2109.72 2074H2166.82L2039.94 2538.04H1981.93L1879.52 2168.26H1875.89L1773.48 2538.04H1715.47Z" fill="#3D7DAB"/>
<path d="M2191.37 2538.04H2132.46L2302.85 2074H2360.86L2531.25 2538.04H2472.33L2333.67 2147.41H2330.04L2191.37 2538.04Z" fill="#3D7DAB"/>
<path d="M2531.25 2074L2669.01 2464.63H2674.45L2812.21 2074H2871.12L2700.73 2538.04H2642.73L2472.34 2074H2531.25Z" fill="#3D7DAB"/>
<path d="M2922.32 2538.04V2306.02V2074H3202.38V2123.85H2978.51V2280.64H3187.87V2330.49H2978.51V2488.19H3202.38V2538.04H2922.32Z" fill="#3D7DAB"/>
<path d="M1715.47 2538.04L1588.58 2074H1645.68L1742.66 2451.94H1747.19L1845.98 2074H1909.42L2008.22 2451.94H2012.75L2109.72 2074H2166.82L2039.94 2538.04H1981.93L1879.52 2168.26H1875.89L1773.48 2538.04H1715.47Z" fill="#3D7DAB"/>
<path d="M1494.38 2074L1621.27 2538.04L1564.17 2538.04L1467.19 2160.1L1462.66 2160.1L1363.87 2538.04L1300.43 2538.04L1201.64 2160.1L1197.1 2160.1L1100.13 2538.04L1043.03 2538.04L1169.91 2074L1227.92 2074L1330.33 2443.78L1333.96 2443.78L1436.38 2074L1494.38 2074Z" fill="#224055"/>
<path d="M768.193 2488.19V2074H712V2538.04L980.203 2538.08L993.5 2488.19H768.193Z" fill="#224055"/>
<path fill-rule="evenodd" clip-rule="evenodd" d="M387 2538.04V2074H652.556V2123.85H443.193V2280.64H638V2330.49H443.193V2488.19H652.556V2538.04H387Z" fill="#224055"/>
<path d="M0.807343 2538.04V2074H57V2280.64H271.621V2074H327.814V2538.04H271.621V2330.49H57V2538.04H0.807343Z" fill="#224055"/>
<path d="M2125.53 525.41L1875.97 713.674L1688.12 848.869C1667.42 863.631 1645.98 877.336 1623.89 889.934L1579.88 914.993C1508.65 955.637 1431.14 984.106 1350.54 999.227L1154.05 1036.29L1084.97 636.81L1445.94 433.385L2125.53 525.41Z" fill="#012B35"/>
<path d="M2117.95 552.365C2117.95 552.365 1886.29 643.759 1714.66 794.328C1526.6 959.427 1557.13 1147.48 1557.13 1147.48L1330.74 1089.99L1526.6 594.693L2021.92 460.129L2117.95 552.365Z" fill="#013444"/>
<path d="M2102.58 533.202C2102.58 533.202 1798.05 613.014 1626.42 763.582C1438.14 928.681 1461.31 1101.57 1461.31 1101.57L1234.71 1043.87L1430.56 548.575L2014.13 487.084L2102.58 533.202Z" fill="#013E56"/>
<path d="M1979.59 548.575C1979.59 548.575 1709.6 586.059 1537.97 736.627C1349.9 901.726 1334.53 1139.9 1334.53 1139.9L1111.72 1059.24L1307.57 563.947L1891.35 502.457L1979.59 548.575Z" fill="#024566"/>
<path d="M2225.35 1458.51C2248.52 1662.15 2283.06 1712.06 2283.06 1712.06L1564.92 1520L1603.25 993.963L1910.51 867.19L2117.95 951.635C2117.95 951.635 2208.51 1308.58 2225.35 1458.51Z" fill="#052E47"/>
<path d="M2225.35 1458.51C2225.35 1458.51 2208.3 1173.17 2187.03 974.8C2174.81 861.083 2125.53 521.62 2125.53 521.62L2106.37 556.156L1875.97 713.674C1875.97 713.674 1771.31 783.588 1734.24 802.751C1549.55 897.936 1476.05 909.097 1384.44 913.309C1339.37 915.414 1203.96 913.309 1203.96 913.309L1165.84 791.801C1152.37 869.086 1161.63 928.681 1161.63 928.681L1184.8 978.59L1150.26 1020.92L1203.96 1186.02L1180.8 1331.95L1046.43 1508.42L1127.09 1612.24L1265.46 1658.15L1441.94 1688.89L1587.88 1731.22L1768.36 1754.18H2037.29L2283.06 1712.06L2258.21 1682.37C2211.26 1625.8 2175.46 1560.84 2152.7 1490.94C2144.87 1466.86 2139.65 1442.01 2137.11 1416.82L2122.79 1274.25C2122.48 1270.68 2121.35 1267.22 2119.49 1264.15C2117.63 1261.09 2115.08 1258.49 2112.05 1256.56C2096.26 1246.67 2065.51 1227.5 2052.67 1220.55C1997.91 1190.44 1828.59 1110.42 1828.59 1110.42C1825.51 1108.92 1822.9 1106.59 1821.08 1103.68C1819.25 1100.78 1818.28 1097.42 1818.27 1093.99V1032.92C1818.27 1032.36 1818.38 1031.8 1818.61 1031.29C1818.84 1030.77 1819.17 1030.31 1819.59 1029.93C1820.01 1029.55 1820.5 1029.27 1821.03 1029.09C1821.57 1028.92 1822.13 1028.86 1822.69 1028.92C1869.66 1034.4 1915.36 1046.4 1959.79 1062.61C2056.46 1097.57 2128.69 1127.47 2128.69 1127.47C2132.34 1128.97 2135.52 1131.42 2137.89 1134.57C2140.26 1137.72 2141.74 1141.45 2142.17 1145.37L2166.6 1386.07C2167.29 1393.3 2170.32 1400.1 2175.23 1405.45C2187.45 1418.92 2225.35 1458.51 2225.35 1458.51Z" fill="url(#paint0_linear_3_32)"/>
<path d="M2283.06 1712.06C2283.06 1712.06 1634 1566.12 1795.32 1308.79C1806.9 1290.26 1790.26 1277.83 1755.3 1270.25C1604.09 1236.77 1111.72 1289.62 1111.72 1289.62L1280.83 1712.06C1280.83 1712.06 1638.21 1811.03 1925.89 1784.92C2179.23 1761.97 2283.06 1712.06 2283.06 1712.06Z" fill="url(#paint1_linear_3_32)"/>
<path d="M2283.06 1712.06C2283.06 1712.06 1481.95 1641.72 1645.58 1216.76C1683.91 1116.73 1073.39 1270.46 1073.39 1270.46L1280.83 1712.06C1280.83 1712.06 1638.21 1811.03 1925.89 1784.92C2179.23 1761.97 2283.06 1712.06 2283.06 1712.06Z" fill="url(#paint2_linear_3_32)"/>
<path d="M2283.06 1712.06C2283.06 1712.06 1405.5 1753.54 1495.85 1143.69C1511.22 1040.08 1065.6 1208.97 1065.6 1208.97L1280.83 1712.06C1280.83 1712.06 1622.84 1815.03 1910.51 1788.71C2163.86 1765.76 2283.06 1712.06 2283.06 1712.06Z" fill="url(#paint3_linear_3_32)"/>
<mask id="mask0_3_32" style="mask-type:luminance" maskUnits="userSpaceOnUse" x="857" y="10" width="1557" height="1857">
<path d="M2283.06 1712.06C1215.54 1888.74 931.239 598.484 1875.97 533.202V713.674L2413.63 360.311L1879.77 10.9504V191.422C1326.74 183.841 880.695 491.296 858.372 1047.66C839.208 1523.8 1153.63 1762.6 1392.02 1827.25C1887.56 1961.6 2283.06 1712.06 2283.06 1712.06Z" fill="white"/>
</mask>
<g mask="url(#mask0_3_32)">
<mask id="mask1_3_32" style="mask-type:luminance" maskUnits="userSpaceOnUse" x="847" y="0" width="1578" height="1878">
<path d="M2424.16 0.421143H847V1877.47H2424.16V0.421143Z" fill="white"/>
</mask>
<g mask="url(#mask1_3_32)">
<rect x="847" width="1577.96" height="1878.08" fill="url(#paint4_linear_3_32)"/>
</g>
</g>
<path d="M1973.48 1712.06H1946.95L1933.68 1735.22L1946.95 1758.18H1973.48L1986.75 1735.22L1973.48 1712.06Z" fill="#D9F2FF"/>
<path d="M1398.34 1228.34H1278.51L1218.7 1331.95L1278.51 1435.56H1398.34L1458.15 1331.95L1398.34 1228.34Z" fill="#D9F2FF"/>
<path d="M1237.45 1074.62H1153.21L1111.09 1147.69L1153.21 1220.55H1237.45L1279.78 1147.69L1237.45 1074.62Z" fill="#D9F2FF"/>
<path d="M1235.55 951.846H1175.74L1145.84 1003.65L1175.74 1055.45H1235.55L1265.46 1003.65L1235.55 951.846Z" fill="#D9F2FF"/>
<path d="M1555.24 1370.28H1466.58L1422.14 1447.14L1466.58 1524.01H1555.24L1599.67 1447.14L1555.24 1370.28Z" fill="#D9F2FF"/>
<path d="M1357.49 1459.36H1280.41L1241.66 1526.32L1280.41 1593.08H1357.49L1396.03 1526.32L1357.49 1459.36Z" fill="#D9F2FF"/>
<path d="M1552.5 1588.45H1512.27L1492.06 1623.4L1512.27 1658.36H1552.5L1572.72 1623.4L1552.5 1588.45Z" fill="#D9F2FF"/>
<path d="M1640.74 1535.38H1589.77L1564.29 1579.6L1589.77 1623.82H1640.74L1666.22 1579.6L1640.74 1535.38Z" fill="#D9F2FF"/>
<path d="M1738.67 1589.29H1678.65L1648.74 1641.09L1678.65 1692.9H1738.67L1768.57 1641.09L1738.67 1589.29Z" fill="#D9F2FF"/>
<path d="M1139.73 905.728H1097.61L1076.55 942.159L1097.61 978.59H1139.73L1160.79 942.159L1139.73 905.728Z" fill="#D9F2FF"/>
<path d="M1909.67 1669.1H1869.24L1849.23 1704.06L1869.24 1739.01H1909.67L1929.89 1704.06L1909.67 1669.1Z" fill="#D9F2FF"/>
</g>
<defs>
<linearGradient id="paint0_linear_3_32" x1="1393.58" y1="1604.05" x2="2237.5" y2="705.626" gradientUnits="userSpaceOnUse">
<stop offset="0.33" stop-color="#8DD4FF"/>
<stop offset="0.34" stop-color="#89D1FE"/>
<stop offset="0.44" stop-color="#5BA9F0"/>
<stop offset="0.54" stop-color="#378AE5"/>
<stop offset="0.63" stop-color="#1D73DD"/>
<stop offset="0.71" stop-color="#0D66D8"/>
<stop offset="0.77" stop-color="#0861D6"/>
</linearGradient>
<linearGradient id="paint1_linear_3_32" x1="1697.39" y1="1803.01" x2="1697.39" y2="1272.71" gradientUnits="userSpaceOnUse">
<stop offset="0.16" stop-color="#8DD4FF"/>
<stop offset="0.79" stop-color="#0861D6"/>
</linearGradient>
<linearGradient id="paint2_linear_3_32" x1="1678.18" y1="1804.97" x2="1678.18" y2="1198.55" gradientUnits="userSpaceOnUse">
<stop offset="0.16" stop-color="#8DD4FF"/>
<stop offset="0.79" stop-color="#0861D6"/>
</linearGradient>
<linearGradient id="paint3_linear_3_32" x1="1674.35" y1="1810.63" x2="1674.35" y2="1127.62" gradientUnits="userSpaceOnUse">
<stop offset="0.16" stop-color="#8DD4FF"/>
<stop offset="0.81" stop-color="#3461CC"/>
</linearGradient>
<linearGradient id="paint4_linear_3_32" x1="1966.32" y1="319.037" x2="1856.82" y2="1878.42" gradientUnits="userSpaceOnUse">
<stop stop-color="#6FBDFF"/>
<stop offset="1" stop-color="#00131F"/>
</linearGradient>
<clipPath id="clip0_3_32">
<rect width="3206" height="2539" fill="white"/>
</clipPath>
</defs>
</svg>
