<svg width="234" height="128" viewBox="0 0 234 128" fill="none" xmlns="http://www.w3.org/2000/svg">
<path d="M22.3262 125H15.8799V92.791H22.3262V105.684H35.1963V92.791H41.6426V125H35.1963V112.13H22.3262V125ZM56.1973 119.115C56.4368 119.19 56.6764 119.243 56.916 119.272C57.1556 119.287 57.3952 119.295 57.6348 119.295C58.2337 119.295 58.8102 119.213 59.3643 119.048C59.9183 118.883 60.4349 118.651 60.9141 118.352C61.4082 118.037 61.8424 117.663 62.2168 117.229C62.6061 116.779 62.9206 116.285 63.1602 115.746L67.6523 120.261C67.0833 121.069 66.4245 121.796 65.6758 122.439C64.9421 123.083 64.141 123.63 63.2725 124.079C62.4189 124.528 61.513 124.865 60.5547 125.09C59.6113 125.329 58.638 125.449 57.6348 125.449C55.9427 125.449 54.348 125.135 52.8506 124.506C51.3682 123.877 50.0654 123.001 48.9424 121.878C47.8343 120.755 46.9583 119.422 46.3145 117.88C45.6706 116.323 45.3486 114.616 45.3486 112.759C45.3486 110.857 45.6706 109.12 46.3145 107.548C46.9583 105.976 47.8343 104.635 48.9424 103.527C50.0654 102.419 51.3682 101.558 52.8506 100.944C54.348 100.33 55.9427 100.023 57.6348 100.023C58.638 100.023 59.6188 100.143 60.5771 100.383C61.5355 100.622 62.4414 100.967 63.2949 101.416C64.1634 101.865 64.972 102.419 65.7207 103.078C66.4694 103.722 67.1283 104.448 67.6973 105.257L56.1973 119.115ZM59.3418 106.47C59.0573 106.365 58.7728 106.298 58.4883 106.268C58.2188 106.238 57.9342 106.223 57.6348 106.223C56.7962 106.223 56.0026 106.38 55.2539 106.694C54.5202 106.994 53.8763 107.428 53.3223 107.997C52.7832 108.566 52.3564 109.255 52.042 110.063C51.7275 110.857 51.5703 111.756 51.5703 112.759C51.5703 112.983 51.5778 113.238 51.5928 113.522C51.6227 113.807 51.6602 114.099 51.7051 114.398C51.765 114.683 51.8324 114.96 51.9072 115.229C51.9821 115.499 52.0794 115.739 52.1992 115.948L59.3418 106.47ZM76.9287 125H70.7969V100.944H72.2793L74.3008 103.797C75.2891 102.898 76.4121 102.21 77.6699 101.73C78.9277 101.236 80.2305 100.989 81.5781 100.989H86.9912V107.099H81.5781C80.9342 107.099 80.3278 107.218 79.7588 107.458C79.1898 107.698 78.6956 108.027 78.2764 108.446C77.8571 108.866 77.5277 109.36 77.2881 109.929C77.0485 110.498 76.9287 111.104 76.9287 111.748V125ZM101.905 125C100.423 125 99.0303 124.723 97.7275 124.169C96.4248 123.6 95.2793 122.829 94.291 121.855C93.3177 120.867 92.5465 119.722 91.9775 118.419C91.4235 117.116 91.1465 115.724 91.1465 114.241V107.099H88.1592V100.989H91.1465V91.376H97.2559V100.989H106.555V107.099H97.2559V114.241C97.2559 114.885 97.3757 115.492 97.6152 116.061C97.8548 116.615 98.1842 117.101 98.6035 117.521C99.0228 117.94 99.5169 118.277 100.086 118.531C100.655 118.771 101.261 118.891 101.905 118.891H106.555V125H101.905ZM128.791 125H108.733L118.863 107.099H108.733V100.989H128.791L118.661 118.891H128.791V125ZM158.619 115.342C158.619 116.674 158.365 117.925 157.855 119.093C157.346 120.261 156.65 121.286 155.767 122.17C154.898 123.038 153.88 123.727 152.712 124.236C151.544 124.745 150.294 125 148.961 125H132.856V92.791H148.961C150.294 92.791 151.544 93.0456 152.712 93.5547C153.88 94.0638 154.898 94.7601 155.767 95.6436C156.65 96.512 157.346 97.5303 157.855 98.6982C158.365 99.8662 158.619 101.117 158.619 102.449C158.619 103.048 158.537 103.662 158.372 104.291C158.207 104.92 157.975 105.526 157.676 106.11C157.376 106.694 157.017 107.226 156.598 107.705C156.178 108.184 155.714 108.581 155.205 108.896C155.729 109.18 156.201 109.569 156.62 110.063C157.039 110.543 157.399 111.074 157.698 111.658C157.998 112.242 158.222 112.856 158.372 113.5C158.537 114.129 158.619 114.743 158.619 115.342ZM139.303 118.554H148.961C149.41 118.554 149.829 118.471 150.219 118.307C150.608 118.142 150.945 117.917 151.229 117.633C151.529 117.333 151.761 116.989 151.926 116.6C152.09 116.21 152.173 115.791 152.173 115.342C152.173 114.893 152.09 114.473 151.926 114.084C151.761 113.695 151.529 113.358 151.229 113.073C150.945 112.774 150.608 112.542 150.219 112.377C149.829 112.212 149.41 112.13 148.961 112.13H139.303V118.554ZM139.303 105.684H148.961C149.41 105.684 149.829 105.601 150.219 105.437C150.608 105.272 150.945 105.047 151.229 104.763C151.529 104.463 151.761 104.119 151.926 103.729C152.09 103.325 152.173 102.898 152.173 102.449C152.173 102 152.09 101.581 151.926 101.191C151.761 100.802 151.529 100.465 151.229 100.181C150.945 99.8812 150.608 99.6491 150.219 99.4844C149.829 99.3197 149.41 99.2373 148.961 99.2373H139.303V105.684ZM172.41 119.115C172.65 119.19 172.889 119.243 173.129 119.272C173.368 119.287 173.608 119.295 173.848 119.295C174.447 119.295 175.023 119.213 175.577 119.048C176.131 118.883 176.648 118.651 177.127 118.352C177.621 118.037 178.055 117.663 178.43 117.229C178.819 116.779 179.133 116.285 179.373 115.746L183.865 120.261C183.296 121.069 182.637 121.796 181.889 122.439C181.155 123.083 180.354 123.63 179.485 124.079C178.632 124.528 177.726 124.865 176.768 125.09C175.824 125.329 174.851 125.449 173.848 125.449C172.156 125.449 170.561 125.135 169.063 124.506C167.581 123.877 166.278 123.001 165.155 121.878C164.047 120.755 163.171 119.422 162.527 117.88C161.883 116.323 161.562 114.616 161.562 112.759C161.562 110.857 161.883 109.12 162.527 107.548C163.171 105.976 164.047 104.635 165.155 103.527C166.278 102.419 167.581 101.558 169.063 100.944C170.561 100.33 172.156 100.023 173.848 100.023C174.851 100.023 175.832 100.143 176.79 100.383C177.748 100.622 178.654 100.967 179.508 101.416C180.376 101.865 181.185 102.419 181.934 103.078C182.682 103.722 183.341 104.448 183.91 105.257L172.41 119.115ZM175.555 106.47C175.27 106.365 174.986 106.298 174.701 106.268C174.432 106.238 174.147 106.223 173.848 106.223C173.009 106.223 172.215 106.38 171.467 106.694C170.733 106.994 170.089 107.428 169.535 107.997C168.996 108.566 168.569 109.255 168.255 110.063C167.94 110.857 167.783 111.756 167.783 112.759C167.783 112.983 167.791 113.238 167.806 113.522C167.836 113.807 167.873 114.099 167.918 114.398C167.978 114.683 168.045 114.96 168.12 115.229C168.195 115.499 168.292 115.739 168.412 115.948L175.555 106.47ZM210.122 125H208.64L206.259 121.698C205.675 122.222 205.053 122.716 204.395 123.181C203.751 123.63 203.069 124.027 202.351 124.371C201.632 124.701 200.891 124.963 200.127 125.157C199.378 125.352 198.615 125.449 197.836 125.449C196.144 125.449 194.549 125.165 193.052 124.596C191.569 124.027 190.267 123.203 189.144 122.125C188.035 121.032 187.16 119.699 186.516 118.127C185.872 116.555 185.55 114.765 185.55 112.759C185.55 110.887 185.872 109.173 186.516 107.615C187.16 106.043 188.035 104.695 189.144 103.572C190.267 102.449 191.569 101.581 193.052 100.967C194.549 100.338 196.144 100.023 197.836 100.023C198.615 100.023 199.386 100.121 200.149 100.315C200.913 100.51 201.654 100.78 202.373 101.124C203.092 101.468 203.773 101.873 204.417 102.337C205.076 102.801 205.69 103.303 206.259 103.842L208.64 100.989H210.122V125ZM203.945 112.759C203.945 111.92 203.781 111.112 203.451 110.333C203.137 109.539 202.702 108.843 202.148 108.244C201.594 107.63 200.943 107.144 200.194 106.784C199.461 106.41 198.674 106.223 197.836 106.223C196.997 106.223 196.204 106.365 195.455 106.649C194.721 106.934 194.077 107.353 193.523 107.907C192.984 108.461 192.558 109.15 192.243 109.974C191.929 110.782 191.771 111.711 191.771 112.759C191.771 113.807 191.929 114.743 192.243 115.566C192.558 116.375 192.984 117.056 193.523 117.61C194.077 118.164 194.721 118.584 195.455 118.868C196.204 119.153 196.997 119.295 197.836 119.295C198.674 119.295 199.461 119.115 200.194 118.756C200.943 118.382 201.594 117.895 202.148 117.296C202.702 116.682 203.137 115.986 203.451 115.207C203.781 114.413 203.945 113.597 203.945 112.759ZM226.878 125C225.396 125 224.003 124.723 222.7 124.169C221.397 123.6 220.252 122.829 219.264 121.855C218.29 120.867 217.519 119.722 216.95 118.419C216.396 117.116 216.119 115.724 216.119 114.241V107.099H213.132V100.989H216.119V91.376H222.229V100.989H231.527V107.099H222.229V114.241C222.229 114.885 222.348 115.492 222.588 116.061C222.827 116.615 223.157 117.101 223.576 117.521C223.995 117.94 224.49 118.277 225.059 118.531C225.628 118.771 226.234 118.891 226.878 118.891H231.527V125H226.878Z" fill="#B421CC"/>
<path d="M75 12C75 5.37258 80.3726 0 87 0H148C154.627 0 160 5.37258 160 12V72C160 78.6274 154.627 84 148 84H87C80.3726 84 75 78.6274 75 72V12Z" fill="#B421CC"/>
<path d="M91.9294 15.7307L86.8557 62.8861C86.5081 66.116 88.8345 69.0999 92.0517 69.5507C95.2689 70.0015 98.1587 67.7485 98.5062 64.5185L100.015 50.4972C100.164 49.1074 101.408 48.1379 102.792 48.3319C103.733 48.4637 104.652 48.0555 105.171 47.2747L105.524 46.744C107.582 43.6483 112.467 45.5647 112.064 49.31L111.369 55.766C110.83 60.7744 117.032 63.7068 120.335 60.0054L126.691 52.8829C127.289 52.2131 128.182 51.8895 129.085 52.016C130.613 52.2301 131.719 53.6476 131.554 55.1819L130.05 69.1574C129.715 72.2681 131.956 75.1418 135.054 75.576C138.152 76.0101 140.935 73.8403 141.27 70.7296L146.39 23.1424C146.725 20.0317 144.485 17.158 141.386 16.7238C138.288 16.2897 135.505 18.4595 135.17 21.5703L133.777 34.5193C133.612 36.0512 132.241 37.1197 130.716 36.9059C129.81 36.7791 128.915 37.1054 128.318 37.7794L127.57 38.6241C124.386 42.2216 118.37 39.3913 118.892 34.541L119.039 33.1727C119.625 27.7263 112.704 24.7282 109.395 28.9949L106.839 32.2905C106.288 33.0015 105.398 33.3586 104.494 33.2319C103.068 33.032 102.036 31.709 102.191 30.2768L103.58 17.3632C103.928 14.1332 101.601 11.1493 98.384 10.6985C95.1668 10.2478 92.277 12.5007 91.9294 15.7307Z" fill="white"/>
<path d="M174.773 84.2021V82.8008C174.773 82.6087 174.736 82.4281 174.661 82.2588C174.59 82.0863 174.49 81.9365 174.363 81.8096C174.236 81.6826 174.087 81.5833 173.914 81.5117C173.745 81.4368 173.564 81.3994 173.372 81.3994C173.18 81.3994 172.998 81.4368 172.825 81.5117C172.656 81.5833 172.508 81.6826 172.381 81.8096C172.254 81.9365 172.153 82.0863 172.078 82.2588C172.007 82.4281 171.971 82.6087 171.971 82.8008V84.2021H174.773ZM176.175 87H174.773V85.5986H171.971V87H170.574V82.8008C170.574 82.4134 170.647 82.0505 170.794 81.7119C170.94 81.3701 171.139 81.0723 171.39 80.8184C171.644 80.5645 171.94 80.3643 172.278 80.2178C172.62 80.0713 172.985 79.998 173.372 79.998C173.759 79.998 174.122 80.0713 174.461 80.2178C174.803 80.3643 175.101 80.5645 175.354 80.8184C175.608 81.0723 175.809 81.3701 175.955 81.7119C176.102 82.0505 176.175 82.4134 176.175 82.8008V87ZM178.792 81.3994V84.2021H180.193C180.385 84.2021 180.566 84.1663 180.735 84.0947C180.905 84.0199 181.053 83.9189 181.18 83.792C181.307 83.665 181.406 83.5169 181.478 83.3477C181.552 83.1751 181.59 82.9928 181.59 82.8008C181.59 82.6087 181.552 82.4281 181.478 82.2588C181.406 82.0863 181.307 81.9365 181.18 81.8096C181.053 81.6826 180.905 81.5833 180.735 81.5117C180.566 81.4368 180.385 81.3994 180.193 81.3994H178.792ZM178.792 87H177.391V79.998H180.193C180.451 79.998 180.698 80.0322 180.936 80.1006C181.173 80.1657 181.395 80.2601 181.6 80.3838C181.808 80.5042 181.997 80.6507 182.166 80.8232C182.339 80.9925 182.485 81.1813 182.605 81.3896C182.729 81.598 182.824 81.821 182.889 82.0586C182.957 82.2962 182.991 82.5436 182.991 82.8008C182.991 83.1849 182.918 83.5479 182.771 83.8896C182.625 84.2282 182.425 84.5244 182.171 84.7783C181.917 85.0322 181.619 85.2324 181.277 85.3789C180.939 85.5254 180.577 85.5986 180.193 85.5986H178.792V87ZM187.938 84.2021V82.8008C187.938 82.6087 187.9 82.4281 187.825 82.2588C187.754 82.0863 187.654 81.9365 187.527 81.8096C187.4 81.6826 187.251 81.5833 187.078 81.5117C186.909 81.4368 186.728 81.3994 186.536 81.3994C186.344 81.3994 186.162 81.4368 185.989 81.5117C185.82 81.5833 185.672 81.6826 185.545 81.8096C185.418 81.9365 185.317 82.0863 185.242 82.2588C185.171 82.4281 185.135 82.6087 185.135 82.8008V84.2021H187.938ZM189.339 87H187.938V85.5986H185.135V87H183.738V82.8008C183.738 82.4134 183.812 82.0505 183.958 81.7119C184.104 81.3701 184.303 81.0723 184.554 80.8184C184.808 80.5645 185.104 80.3643 185.442 80.2178C185.784 80.0713 186.149 79.998 186.536 79.998C186.924 79.998 187.286 80.0713 187.625 80.2178C187.967 80.3643 188.265 80.5645 188.519 80.8184C188.772 81.0723 188.973 81.3701 189.119 81.7119C189.266 82.0505 189.339 82.4134 189.339 82.8008V87ZM196.146 86.2822C195.82 86.5622 195.455 86.777 195.052 86.9268C194.648 87.0765 194.23 87.1514 193.797 87.1514C193.465 87.1514 193.144 87.1074 192.835 87.0195C192.529 86.9349 192.241 86.8145 191.971 86.6582C191.704 86.4987 191.46 86.3083 191.238 86.0869C191.017 85.8656 190.826 85.6214 190.667 85.3545C190.511 85.0843 190.389 84.7962 190.301 84.4902C190.216 84.181 190.174 83.8604 190.174 83.5283C190.174 83.1963 190.216 82.8757 190.301 82.5664C190.389 82.2572 190.511 81.9691 190.667 81.7021C190.826 81.432 191.017 81.1862 191.238 80.9648C191.46 80.7435 191.704 80.5547 191.971 80.3984C192.241 80.2389 192.529 80.1169 192.835 80.0322C193.144 79.9443 193.465 79.9004 193.797 79.9004C194.23 79.9004 194.648 79.9753 195.052 80.125C195.455 80.2715 195.82 80.4863 196.146 80.7695L195.403 81.9902C195.198 81.7689 194.956 81.5996 194.676 81.4824C194.396 81.362 194.103 81.3018 193.797 81.3018C193.488 81.3018 193.198 81.3604 192.928 81.4775C192.658 81.5947 192.422 81.7542 192.22 81.9561C192.018 82.1546 191.858 82.3906 191.741 82.6641C191.624 82.9342 191.565 83.2223 191.565 83.5283C191.565 83.8343 191.624 84.1224 191.741 84.3926C191.858 84.6595 192.018 84.8939 192.22 85.0957C192.422 85.2975 192.658 85.457 192.928 85.5742C193.198 85.6914 193.488 85.75 193.797 85.75C194.103 85.75 194.396 85.6914 194.676 85.5742C194.956 85.4538 195.198 85.2829 195.403 85.0615L196.146 86.2822ZM198.362 87H196.961V79.998H198.362V82.8008H201.16V79.998H202.562V87H201.16V84.2021H198.362V87ZM208.665 87H203.865V79.998H208.665V81.3994H205.267V82.8008H207.566V84.2021H205.267V85.5986H208.665V87ZM171.422 91.6797C171.422 91.7786 171.402 91.8711 171.363 91.957C171.327 92.043 171.276 92.1185 171.211 92.1836C171.146 92.2461 171.069 92.2969 170.98 92.3359C170.895 92.3724 170.802 92.3906 170.703 92.3906C170.604 92.3906 170.51 92.3724 170.422 92.3359C170.336 92.2969 170.26 92.2461 170.195 92.1836C170.133 92.1185 170.082 92.043 170.043 91.957C170.007 91.8711 169.988 91.7786 169.988 91.6797C169.988 91.5833 170.007 91.4922 170.043 91.4062C170.082 91.3177 170.133 91.2422 170.195 91.1797C170.26 91.1146 170.336 91.0638 170.422 91.0273C170.51 90.9883 170.604 90.9688 170.703 90.9688C170.802 90.9688 170.895 90.9883 170.98 91.0273C171.069 91.0638 171.146 91.1146 171.211 91.1797C171.276 91.2422 171.327 91.3177 171.363 91.4062C171.402 91.4922 171.422 91.5833 171.422 91.6797ZM171.238 97H170.164V92.8164H171.238V97ZM173.121 97H172.055V92.8164H172.312L172.664 93.2227C172.836 93.0664 173.03 92.9466 173.246 92.8633C173.465 92.7773 173.693 92.7344 173.93 92.7344C174.185 92.7344 174.426 92.7839 174.652 92.8828C174.879 92.9792 175.077 93.1133 175.246 93.2852C175.415 93.4544 175.548 93.6536 175.645 93.8828C175.743 94.1094 175.793 94.3516 175.793 94.6094V97H174.727V94.6094C174.727 94.5 174.706 94.3971 174.664 94.3008C174.622 94.2018 174.565 94.1159 174.492 94.043C174.419 93.9701 174.335 93.9128 174.238 93.8711C174.142 93.8294 174.039 93.8086 173.93 93.8086C173.818 93.8086 173.712 93.8294 173.613 93.8711C173.514 93.9128 173.428 93.9701 173.355 94.043C173.283 94.1159 173.225 94.2018 173.184 94.3008C173.142 94.3971 173.121 94.5 173.121 94.6094V97ZM180.211 93.6484L179.43 94.4336C179.391 94.3242 179.337 94.2266 179.27 94.1406C179.202 94.0521 179.125 93.9779 179.039 93.918C178.956 93.8581 178.865 93.8125 178.766 93.7812C178.667 93.75 178.565 93.7344 178.461 93.7344C178.315 93.7344 178.177 93.7643 178.047 93.8242C177.919 93.8841 177.807 93.9688 177.711 94.0781C177.617 94.1849 177.543 94.3125 177.488 94.4609C177.434 94.6094 177.406 94.7734 177.406 94.9531C177.406 95.099 177.434 95.2357 177.488 95.3633C177.543 95.4909 177.617 95.6029 177.711 95.6992C177.807 95.7956 177.919 95.8711 178.047 95.9258C178.177 95.9805 178.315 96.0078 178.461 96.0078C178.565 96.0078 178.665 95.9935 178.762 95.9648C178.858 95.9362 178.948 95.8958 179.031 95.8438C179.117 95.7891 179.193 95.724 179.258 95.6484C179.326 95.5703 179.38 95.4844 179.422 95.3906L180.203 96.1758C180.104 96.3164 179.99 96.4427 179.859 96.5547C179.732 96.6667 179.592 96.7617 179.441 96.8398C179.293 96.918 179.135 96.9766 178.969 97.0156C178.805 97.0573 178.635 97.0781 178.461 97.0781C178.167 97.0781 177.889 97.0234 177.629 96.9141C177.371 96.8021 177.145 96.6497 176.949 96.457C176.757 96.2643 176.604 96.0391 176.492 95.7812C176.38 95.5234 176.324 95.2474 176.324 94.9531C176.324 94.6328 176.38 94.3333 176.492 94.0547C176.604 93.776 176.757 93.5339 176.949 93.3281C177.145 93.1198 177.371 92.9557 177.629 92.8359C177.889 92.7161 178.167 92.6562 178.461 92.6562C178.635 92.6562 178.806 92.6784 178.973 92.7227C179.142 92.7669 179.302 92.832 179.453 92.918C179.607 93.0013 179.747 93.1042 179.875 93.2266C180.005 93.349 180.117 93.4896 180.211 93.6484ZM183.809 96.5117C183.723 96.5898 183.63 96.6641 183.531 96.7344C183.435 96.8021 183.333 96.862 183.227 96.9141C183.12 96.9635 183.009 97.0026 182.895 97.0312C182.783 97.0625 182.668 97.0781 182.551 97.0781C182.293 97.0781 182.051 97.0326 181.824 96.9414C181.598 96.8503 181.398 96.7214 181.227 96.5547C181.057 96.3854 180.923 96.181 180.824 95.9414C180.728 95.6992 180.68 95.4284 180.68 95.1289V92.8164H181.742V95.1289C181.742 95.2695 181.763 95.3958 181.805 95.5078C181.849 95.6172 181.908 95.7096 181.98 95.7852C182.053 95.8607 182.138 95.918 182.234 95.957C182.333 95.9961 182.439 96.0156 182.551 96.0156C182.66 96.0156 182.763 95.9909 182.859 95.9414C182.958 95.8893 183.044 95.8216 183.117 95.7383C183.19 95.6549 183.247 95.5612 183.289 95.457C183.331 95.3503 183.352 95.2409 183.352 95.1289V92.8164H184.418V97H184.16L183.809 96.5117ZM189.422 94.8711C189.422 95.1992 189.366 95.4987 189.254 95.7695C189.142 96.0404 188.99 96.2734 188.797 96.4688C188.604 96.6615 188.378 96.8112 188.117 96.918C187.859 97.0247 187.582 97.0781 187.285 97.0781C186.991 97.0781 186.714 97.0234 186.453 96.9141C186.195 96.8047 185.969 96.6523 185.773 96.457C185.581 96.2617 185.428 96.0299 185.316 95.7617C185.204 95.4909 185.148 95.194 185.148 94.8711V91.1523H186.219V93.1055C186.276 93.0326 186.345 92.9674 186.426 92.9102C186.509 92.8529 186.598 92.806 186.691 92.7695C186.788 92.7331 186.887 92.7057 186.988 92.6875C187.09 92.6667 187.189 92.6562 187.285 92.6562C187.582 92.6562 187.859 92.7122 188.117 92.8242C188.378 92.9336 188.604 93.0872 188.797 93.2852C188.99 93.4831 189.142 93.7174 189.254 93.9883C189.366 94.2565 189.422 94.5508 189.422 94.8711ZM188.348 94.8711C188.348 94.7096 188.319 94.5599 188.262 94.4219C188.207 94.2812 188.132 94.1602 188.035 94.0586C187.939 93.957 187.826 93.8776 187.695 93.8203C187.568 93.763 187.431 93.7344 187.285 93.7344C187.139 93.7344 187.001 93.7669 186.871 93.832C186.743 93.8945 186.632 93.9792 186.535 94.0859C186.439 94.1901 186.363 94.3112 186.309 94.4492C186.254 94.5846 186.227 94.7253 186.227 94.8711C186.227 95.0326 186.254 95.1823 186.309 95.3203C186.363 95.4583 186.439 95.5781 186.535 95.6797C186.632 95.7812 186.743 95.862 186.871 95.9219C187.001 95.9792 187.139 96.0078 187.285 96.0078C187.431 96.0078 187.568 95.9792 187.695 95.9219C187.826 95.862 187.939 95.7812 188.035 95.6797C188.132 95.5781 188.207 95.4583 188.262 95.3203C188.319 95.1823 188.348 95.0326 188.348 94.8711ZM194.066 97H193.809L193.395 96.4258C193.293 96.5169 193.185 96.6029 193.07 96.6836C192.958 96.7617 192.84 96.8307 192.715 96.8906C192.59 96.9479 192.461 96.9935 192.328 97.0273C192.198 97.0612 192.065 97.0781 191.93 97.0781C191.635 97.0781 191.358 97.0286 191.098 96.9297C190.84 96.8307 190.613 96.6875 190.418 96.5C190.225 96.3099 190.073 96.0781 189.961 95.8047C189.849 95.5312 189.793 95.2201 189.793 94.8711C189.793 94.5456 189.849 94.2474 189.961 93.9766C190.073 93.7031 190.225 93.4688 190.418 93.2734C190.613 93.0781 190.84 92.9271 191.098 92.8203C191.358 92.7109 191.635 92.6562 191.93 92.6562C192.065 92.6562 192.199 92.6732 192.332 92.707C192.465 92.7409 192.594 92.7878 192.719 92.8477C192.844 92.9076 192.962 92.9779 193.074 93.0586C193.189 93.1393 193.296 93.2266 193.395 93.3203L193.809 92.8242H194.066V97ZM192.992 94.8711C192.992 94.7253 192.964 94.5846 192.906 94.4492C192.852 94.3112 192.776 94.1901 192.68 94.0859C192.583 93.9792 192.47 93.8945 192.34 93.832C192.212 93.7669 192.076 93.7344 191.93 93.7344C191.784 93.7344 191.646 93.7591 191.516 93.8086C191.388 93.8581 191.276 93.931 191.18 94.0273C191.086 94.1237 191.012 94.2435 190.957 94.3867C190.902 94.5273 190.875 94.6888 190.875 94.8711C190.875 95.0534 190.902 95.2161 190.957 95.3594C191.012 95.5 191.086 95.6185 191.18 95.7148C191.276 95.8112 191.388 95.8841 191.516 95.9336C191.646 95.9831 191.784 96.0078 191.93 96.0078C192.076 96.0078 192.212 95.9766 192.34 95.9141C192.47 95.849 192.583 95.7643 192.68 95.6602C192.776 95.5534 192.852 95.4323 192.906 95.2969C192.964 95.1589 192.992 95.0169 192.992 94.8711ZM196.98 97C196.723 97 196.48 96.9518 196.254 96.8555C196.027 96.7565 195.828 96.6224 195.656 96.4531C195.487 96.2812 195.353 96.082 195.254 95.8555C195.158 95.6289 195.109 95.3867 195.109 95.1289V93.8867H194.59V92.8242H195.109V91.1523H196.172V92.8242H197.789V93.8867H196.172V95.1289C196.172 95.2409 196.193 95.3464 196.234 95.4453C196.276 95.5417 196.333 95.6263 196.406 95.6992C196.479 95.7721 196.565 95.8307 196.664 95.875C196.763 95.9167 196.868 95.9375 196.98 95.9375H197.789V97H196.98ZM199.648 91.6797C199.648 91.7786 199.629 91.8711 199.59 91.957C199.553 92.043 199.503 92.1185 199.438 92.1836C199.372 92.2461 199.296 92.2969 199.207 92.3359C199.121 92.3724 199.029 92.3906 198.93 92.3906C198.831 92.3906 198.737 92.3724 198.648 92.3359C198.562 92.2969 198.487 92.2461 198.422 92.1836C198.359 92.1185 198.309 92.043 198.27 91.957C198.233 91.8711 198.215 91.7786 198.215 91.6797C198.215 91.5833 198.233 91.4922 198.27 91.4062C198.309 91.3177 198.359 91.2422 198.422 91.1797C198.487 91.1146 198.562 91.0638 198.648 91.0273C198.737 90.9883 198.831 90.9688 198.93 90.9688C199.029 90.9688 199.121 90.9883 199.207 91.0273C199.296 91.0638 199.372 91.1146 199.438 91.1797C199.503 91.2422 199.553 91.3177 199.59 91.4062C199.629 91.4922 199.648 91.5833 199.648 91.6797ZM199.465 97H198.391V92.8164H199.465V97ZM201.348 97H200.281V92.8164H200.539L200.891 93.2227C201.062 93.0664 201.257 92.9466 201.473 92.8633C201.691 92.7773 201.919 92.7344 202.156 92.7344C202.411 92.7344 202.652 92.7839 202.879 92.8828C203.105 92.9792 203.303 93.1133 203.473 93.2852C203.642 93.4544 203.775 93.6536 203.871 93.8828C203.97 94.1094 204.02 94.3516 204.02 94.6094V97H202.953V94.6094C202.953 94.5 202.932 94.3971 202.891 94.3008C202.849 94.2018 202.792 94.1159 202.719 94.043C202.646 93.9701 202.561 93.9128 202.465 93.8711C202.368 93.8294 202.266 93.8086 202.156 93.8086C202.044 93.8086 201.939 93.8294 201.84 93.8711C201.741 93.9128 201.655 93.9701 201.582 94.043C201.509 94.1159 201.452 94.2018 201.41 94.3008C201.368 94.3971 201.348 94.5 201.348 94.6094V97ZM207.758 94.8711C207.758 94.7253 207.729 94.5846 207.672 94.4492C207.617 94.3112 207.542 94.1901 207.445 94.0859C207.349 93.9792 207.236 93.8945 207.105 93.832C206.978 93.7669 206.841 93.7344 206.695 93.7344C206.549 93.7344 206.411 93.7591 206.281 93.8086C206.154 93.8581 206.042 93.931 205.945 94.0273C205.852 94.1237 205.777 94.2435 205.723 94.3867C205.668 94.5273 205.641 94.6888 205.641 94.8711C205.641 95.0456 205.668 95.2031 205.723 95.3438C205.777 95.4818 205.852 95.6003 205.945 95.6992C206.042 95.7982 206.154 95.875 206.281 95.9297C206.411 95.9818 206.549 96.0078 206.695 96.0078C206.841 96.0078 206.978 95.9766 207.105 95.9141C207.236 95.849 207.349 95.7643 207.445 95.6602C207.542 95.5534 207.617 95.4323 207.672 95.2969C207.729 95.1589 207.758 95.0169 207.758 94.8711ZM208.832 96.4727C208.832 96.7669 208.776 97.043 208.664 97.3008C208.552 97.5586 208.398 97.7839 208.203 97.9766C208.01 98.1693 207.784 98.3216 207.523 98.4336C207.266 98.5456 206.99 98.6016 206.695 98.6016L206.16 98.5938V97.5273L206.688 97.5352C206.854 97.5352 206.996 97.513 207.113 97.4688C207.23 97.4271 207.329 97.3685 207.41 97.293C207.491 97.2201 207.555 97.1354 207.602 97.0391C207.651 96.9427 207.69 96.8411 207.719 96.7344C207.677 96.8021 207.617 96.8581 207.539 96.9023C207.461 96.944 207.374 96.9779 207.277 97.0039C207.184 97.0326 207.085 97.0521 206.98 97.0625C206.879 97.0729 206.784 97.0781 206.695 97.0781C206.401 97.0781 206.124 97.0273 205.863 96.9258C205.605 96.8242 205.379 96.6797 205.184 96.4922C204.991 96.3021 204.839 96.0703 204.727 95.7969C204.615 95.5234 204.559 95.2148 204.559 94.8711C204.559 94.556 204.615 94.263 204.727 93.9922C204.839 93.7214 204.991 93.487 205.184 93.2891C205.379 93.0911 205.605 92.9362 205.863 92.8242C206.124 92.7122 206.401 92.6562 206.695 92.6562C206.831 92.6562 206.965 92.6732 207.098 92.707C207.23 92.7409 207.359 92.7878 207.484 92.8477C207.609 92.9076 207.728 92.9779 207.84 93.0586C207.954 93.1393 208.061 93.2266 208.16 93.3203L208.574 92.8242H208.832V96.4727Z" fill="black"/>
</svg>
