<?xml version="1.0" encoding="utf-8"?>
<!-- Generator: Adobe Illustrator 26.0.0, SVG Export Plug-In . SVG Version: 6.00 Build 0)  -->
<svg version="1.1" id="Layer_1" xmlns="http://www.w3.org/2000/svg" xmlns:xlink="http://www.w3.org/1999/xlink" x="0px" y="0px"
	 viewBox="0 0 178.8 28.6" style="enable-background:new 0 0 178.8 28.6;" xml:space="preserve">
<style type="text/css">
	.st0{fill:#1F4F8A;}
	.st1{enable-background:new    ;}
	.st2{fill:#72B3E2;}
	.st3{fill:none;stroke:#488FCC;stroke-width:2;stroke-miterlimit:10;}
	.st4{fill:#C52A29;}
</style>
<path class="st0" d="M66.1,14.7V9.5H60v5.1h-3V2h3v5.3h6.1V2H69v12.7H66.1z"/>
<path class="st0" d="M70.3,14.7V2h2.9v12.7H70.3z"/>
<path class="st0" d="M79.6,14.7c-1.3,0-2.5-0.5-3.3-1.4c-1-1.1-1.7-2.5-1.8-3.9c0-0.3,0-0.7,0-1c0-0.2,0-0.3,0-0.5s0-0.3,0-0.4
	c0.2-1.5,0.8-2.9,1.9-3.9c1-1,2.3-1.5,3.7-1.5h7.8v2.3h-7.1c-0.7,0-1.3,0.3-1.8,0.8c-0.6,0.6-0.9,1.3-1.1,2.2
	c-0.1,0.4-0.2,0.9-0.2,1.4c0,1,0.3,2,0.9,2.8c0.5,0.6,1.3,1,2.1,1H85v-3h-4.3V7.3H88v7.4C88,14.7,79.6,14.7,79.6,14.7z"/>
<path class="st0" d="M98.2,14.7V9.5h-6.1v5.1h-2.9V2h2.9v5.3h6.1V2h2.9v12.7H98.2z"/>
<path class="st0" d="M118.1,9.1c-0.7,0.6-1.5,1-2.4,1.1l-0.7,0.1h-5.6v4.4h-2.9V2h8.7c0.9,0,1.9,0.3,2.6,0.8
	c0.7,0.6,1.2,1.3,1.5,2.2c0.1,0.3,0.1,0.7,0.1,1.1C119.4,7.2,118.9,8.3,118.1,9.1z M115.6,5.1c-0.2-0.2-0.4-0.4-0.7-0.6
	c-0.3-0.2-0.7-0.3-1-0.3h-4.5V8h4.3c0.3,0,0.7-0.1,1-0.2c0.4-0.2,0.7-0.5,0.9-0.9c0.2-0.3,0.2-0.6,0.2-0.9
	C115.9,5.7,115.8,5.4,115.6,5.1L115.6,5.1z"/>
<path class="st0" d="M126.1,14.7h-0.7c-1.1,0.1-2.2-0.2-3.2-0.7c-0.8-0.5-1.4-1.3-1.7-2.1c-0.1-0.2-0.2-0.4-0.2-0.6
	c0-0.3-0.1-0.5-0.1-0.8V2h2.9v8c0,0.7,0.3,1.4,0.8,1.8c0.8,0.5,1.7,0.7,2.6,0.6h4.1v2.3L126.1,14.7z"/>
<path class="st0" d="M142.5,14.7l-1.1-2.9h-5.2l-1.2,2.9h-3L137.1,2h3.1l5.4,12.7H142.5z M138.8,5.1l-1.7,4.4h3.4L138.8,5.1z"/>
<path class="st0" d="M146.9,14.7V2h2.9v12.7H146.9z"/>
<path class="st0" d="M160.2,14.7l-6.1-9.3v9.3h-2.9V2h4l6,9.5V2h2.9v12.7H160.2z"/>
<path class="st0" d="M176.7,14.3c-0.6,0.3-1.2,0.4-1.9,0.4h-9v-2.3h7.4c0.1,0,0.3,0,0.4,0c0.3,0,0.6-0.2,0.9-0.3
	c0.4-0.2,0.6-0.6,0.5-1.1c0-0.5-0.2-0.9-0.6-1.2c-0.2-0.1-0.4-0.2-0.7-0.3s-0.7-0.1-1-0.1H169l-0.6-0.1c-0.9-0.1-1.8-0.6-2.4-1.2
	c-0.6-0.6-1-1.4-1-2.3c0-1,0.4-2,1.1-2.7c0.9-0.8,2-1.2,3.2-1.1h8.5v2.3h-7.6c-0.2,0-0.5,0.1-0.7,0.2l-0.2,0.1
	c-0.1,0-0.1,0.1-0.2,0.1c-0.3,0.2-0.5,0.6-0.5,1s0.2,0.8,0.5,1c0.2,0.2,0.5,0.3,0.8,0.4h0.4h4.1c1.1-0.1,2.2,0.3,3,1
	c0.7,0.7,1.2,1.7,1.1,2.7c0,0.1,0,0.2,0,0.3s0,0.2,0,0.3C178.7,12.6,177.9,13.7,176.7,14.3z"/>
<g class="st1">
	<path class="st2" d="M60.7,25.3l-0.6,0c-0.9-0.2-1.7-0.6-2.3-1.4c-0.6-0.8-0.9-1.9-0.9-3.2c0-0.4,0-0.7,0.1-1.1
		c0.1-1,0.5-1.9,1-2.5c0.6-0.6,1.3-1,2.2-1.2c0.3-0.1,0.6-0.1,0.9-0.1h3.8v1.7h-4c-0.4,0-0.8,0.2-1.1,0.5c-0.3,0.3-0.5,0.8-0.6,1.5
		c-0.1,0.3-0.1,0.5-0.1,0.8c0,1.1,0.2,1.9,0.6,2.5c0.3,0.5,0.8,0.8,1.3,0.8h3.9v1.7H60.7z"/>
	<path class="st2" d="M73.1,24.1c-0.3,0.4-0.9,0.8-1.5,1c-0.7,0.2-1.5,0.3-2.4,0.3c-1.2-0.1-2-0.5-2.6-1.2c-0.6-0.7-0.9-1.6-0.9-2.6
		c0-0.9,0.3-1.7,0.9-2.3c0.6-0.6,1.5-1,2.5-1.1c0.3,0,0.5,0,0.8,0c1,0,1.9,0.3,2.5,0.8c0.7,0.5,1.1,1.2,1.3,2.1
		c0,0.1,0.1,0.3,0.1,0.5c0,0.2,0,0.4,0,0.5c0,0.4-0.1,0.8-0.2,1.1C73.5,23.5,73.4,23.8,73.1,24.1z M70,19.7c-0.2,0-0.3,0-0.4,0
		c-0.6,0-1,0.2-1.4,0.6c-0.4,0.4-0.5,0.9-0.5,1.5v0.4c0.1,0.5,0.2,1,0.5,1.3s0.7,0.5,1.1,0.6c0.2,0,0.3,0,0.4,0
		c0.6,0,1.1-0.2,1.4-0.6c0.3-0.4,0.5-1,0.5-1.7c0-0.5-0.2-1-0.5-1.3C70.9,20,70.5,19.8,70,19.7z"/>
	<path class="st2" d="M82.9,25.3v-4.4c0-0.2,0-0.4-0.1-0.6c-0.2-0.3-0.4-0.5-0.8-0.5h-1.3v5.4h-1.9v-5.4h-2.2v5.4h-1.9v-7h7.5
		c0.5,0,0.9,0,1.2,0.1s0.5,0.3,0.8,0.5c0.2,0.2,0.4,0.4,0.5,0.7c0.1,0.2,0.2,0.5,0.2,0.7v5H82.9z"/>
	<path class="st2" d="M90.2,25.3l-0.5,0h-2v2.6h-1.9v-9.5h3.8c1,0,1.8,0.3,2.5,0.9c0.6,0.6,0.9,1.4,0.9,2.5c0,1-0.2,1.8-0.7,2.4
		C91.7,24.7,91.1,25.1,90.2,25.3z M90.4,20.4c-0.3-0.3-0.6-0.4-1.1-0.5H89h-1.3v3.9h1.4c0.5,0,0.9-0.1,1.2-0.4s0.5-0.7,0.6-1.2
		c0-0.2,0-0.3,0-0.4C90.9,21.2,90.7,20.7,90.4,20.4z"/>
	<path class="st2" d="M96.7,25.3h-0.3h-0.3h-0.3c-0.4,0-0.8-0.1-1.1-0.2c-0.3-0.2-0.5-0.4-0.7-0.7c-0.2-0.3-0.3-0.7-0.3-1.2v-4.8
		h1.9v4.6c0,0.3,0.2,0.5,0.5,0.7c0.1,0.1,0.3,0.1,0.5,0.1h1.8v-5.5h1.9v7H96.7z"/>
	<path class="st2" d="M103.7,25.3c-0.6,0-1.1-0.2-1.4-0.6c-0.3-0.4-0.5-0.9-0.5-1.7v-3.3h-1.1v-1.4h1.1v-2.6h1.9v2.6h1.8v1.4h-1.8
		V23c0,0.2,0.1,0.4,0.2,0.5c0.2,0.1,0.4,0.2,0.7,0.3h0.2h0.6v1.5H103.7z"/>
	<path class="st2" d="M105.8,17.6v-1.9h1.9v1.9H105.8z M105.8,25.3v-7h1.9v7H105.8z"/>
	<path class="st2" d="M113.4,25.3v-4.6c0-0.2-0.1-0.4-0.3-0.6s-0.4-0.3-0.6-0.3h-1.8v5.5h-1.9v-7h3.6h0.3h0.3c0.5,0,1,0.1,1.3,0.2
		s0.6,0.4,0.8,0.8c0.2,0.4,0.3,0.8,0.3,1.2v4.7H113.4z"/>
	<path class="st2" d="M123.5,25.6c0,0.1,0,0.2,0,0.3c0,0.1,0,0.2-0.1,0.3c-0.1,0.3-0.2,0.5-0.3,0.6c-0.1,0.1-0.2,0.3-0.5,0.5
		c-0.4,0.4-1,0.5-1.8,0.5h-4.1v-1.4h3.4c0.3,0,0.5,0,0.6,0c0.1,0,0.2-0.1,0.3-0.2l0.1-0.1c0.1-0.1,0.2-0.2,0.2-0.3
		c0-0.1,0-0.1,0-0.1v-0.4h-2.5c-0.7,0-1.3-0.3-1.9-0.8c-0.6-0.5-0.9-1.3-1-2.1c0-0.2,0-0.3,0-0.5s0-0.4,0.1-0.7
		c0-0.3,0.1-0.6,0.3-0.9c0.1-0.3,0.3-0.6,0.5-0.9c0.6-0.7,1.4-1.1,2.3-1.1h4.2v6.8v0.3V25.6z M121.6,19.9h-1.7
		c-0.4,0-0.8,0.2-1.1,0.5c-0.3,0.4-0.5,0.8-0.5,1.4c0,0.2,0,0.3,0,0.5c0.2,1,0.7,1.5,1.7,1.5h1.5V19.9z"/>
</g>
<polyline class="st3" points="24.2,8.2 17.7,1.9 3.1,18.5 8.6,16.9 11.6,18.2 18.2,10.9 22.3,14.7 31.9,4.4 46.1,19.5 37.3,16.1 
	34.5,18.2 28.7,12.8 "/>
<path class="st4" d="M46.5,23.3L45.8,23l-0.4-0.1c-2.4-0.7-4.8-1.2-7.2-1.6h-0.3h-0.1c-12.6-2-25.5,0-36.8,5.9l-0.3,0.1
	c-0.3,0.2-0.4,0.5-0.3,0.9l0,0c0.1,0.3,0.5,0.4,0.8,0.3l1-0.5l0.5-0.2l0,0c5.1-2.6,10.5-4.5,16.1-5.5c5.1-0.9,10.3-1.2,15.5-0.8
	l1.5,0.1c3,0.3,6,0.9,9,1.6c1.7,0.4,3.4,1,5.1,1.5c0.2,0,0.4,0.1,0.5,0.1v-0.1C49.1,24.1,47.8,23.7,46.5,23.3z"/>
</svg>
