<?xml version="1.0" encoding="utf-8"?>
<svg viewBox="60 120 310 70" xmlns="http://www.w3.org/2000/svg">
  <path d="M 86.75 137.421 C 86.817 137.421 86.85 137.488 86.85 137.621 C 86.85 137.754 86.817 137.821 86.75 137.821 C 85.977 137.821 85.357 137.811 84.89 137.791 L 82.34 137.751 L 79.36 137.791 C 78.96 137.811 78.42 137.821 77.74 137.821 C 77.673 137.821 77.64 137.754 77.64 137.621 C 77.64 137.488 77.673 137.421 77.74 137.421 C 78.553 137.421 79.15 137.368 79.53 137.261 C 79.903 137.148 80.157 136.938 80.29 136.631 C 80.423 136.318 80.49 135.821 80.49 135.141 L 80.49 127.521 L 69.79 127.521 L 69.79 135.141 C 69.79 135.801 69.857 136.291 69.99 136.611 C 70.123 136.931 70.377 137.148 70.75 137.261 C 71.123 137.368 71.72 137.421 72.54 137.421 C 72.58 137.421 72.6 137.488 72.6 137.621 C 72.6 137.754 72.58 137.821 72.54 137.821 C 71.767 137.821 71.147 137.811 70.68 137.791 L 67.8 137.751 L 65.32 137.791 C 64.873 137.811 64.263 137.821 63.49 137.821 C 63.45 137.821 63.43 137.754 63.43 137.621 C 63.43 137.488 63.45 137.421 63.49 137.421 C 64.263 137.421 64.827 137.368 65.18 137.261 C 65.533 137.148 65.777 136.931 65.91 136.611 C 66.043 136.291 66.11 135.801 66.11 135.141 L 66.11 119.801 C 66.11 119.141 66.043 118.654 65.91 118.341 C 65.777 118.034 65.54 117.821 65.2 117.701 C 64.86 117.574 64.313 117.511 63.56 117.511 C 63.493 117.511 63.46 117.448 63.46 117.321 C 63.46 117.188 63.493 117.121 63.56 117.121 L 65.35 117.151 C 66.363 117.198 67.18 117.221 67.8 117.221 C 68.64 117.221 69.613 117.198 70.72 117.151 L 72.54 117.121 C 72.58 117.121 72.6 117.188 72.6 117.321 C 72.6 117.448 72.58 117.511 72.54 117.511 C 71.74 117.511 71.153 117.578 70.78 117.711 C 70.407 117.844 70.147 118.071 70 118.391 C 69.86 118.711 69.79 119.204 69.79 119.871 L 69.79 126.591 L 80.49 126.591 L 80.49 119.871 C 80.49 119.204 80.423 118.711 80.29 118.391 C 80.157 118.071 79.903 117.844 79.53 117.711 C 79.15 117.578 78.553 117.511 77.74 117.511 C 77.673 117.511 77.64 117.448 77.64 117.321 C 77.64 117.188 77.673 117.121 77.74 117.121 L 79.36 117.151 C 80.467 117.198 81.46 117.221 82.34 117.221 C 82.94 117.221 83.79 117.198 84.89 117.151 L 86.75 117.121 C 86.817 117.121 86.85 117.188 86.85 117.321 C 86.85 117.448 86.817 117.511 86.75 117.511 C 85.997 117.511 85.44 117.574 85.08 117.701 C 84.713 117.821 84.47 118.034 84.35 118.341 C 84.223 118.654 84.16 119.141 84.16 119.801 L 84.16 135.141 C 84.16 135.801 84.223 136.291 84.35 136.611 C 84.47 136.931 84.707 137.148 85.06 137.261 C 85.413 137.368 85.977 137.421 86.75 137.421 ZM 94.493 135.141 C 94.493 135.801 94.55 136.291 94.663 136.611 C 94.77 136.931 94.967 137.148 95.253 137.261 C 95.54 137.368 96.003 137.421 96.643 137.421 C 96.69 137.421 96.713 137.488 96.713 137.621 C 96.713 137.754 96.69 137.821 96.643 137.821 C 95.963 137.821 95.433 137.811 95.053 137.791 L 92.803 137.751 L 90.653 137.791 C 90.253 137.811 89.7 137.821 88.993 137.821 C 88.953 137.821 88.933 137.754 88.933 137.621 C 88.933 137.488 88.953 137.421 88.993 137.421 C 89.633 137.421 90.103 137.368 90.403 137.261 C 90.703 137.148 90.907 136.931 91.013 136.611 C 91.127 136.291 91.183 135.801 91.183 135.141 L 91.183 125.001 C 91.183 124.341 91.127 123.854 91.013 123.541 C 90.907 123.234 90.703 123.021 90.403 122.901 C 90.103 122.774 89.633 122.711 88.993 122.711 C 88.953 122.711 88.933 122.648 88.933 122.521 C 88.933 122.388 88.953 122.321 88.993 122.321 L 90.653 122.351 C 91.533 122.398 92.25 122.421 92.803 122.421 C 93.403 122.421 94.167 122.398 95.093 122.351 L 96.643 122.321 C 96.69 122.321 96.713 122.388 96.713 122.521 C 96.713 122.648 96.69 122.711 96.643 122.711 C 96.03 122.711 95.573 122.778 95.273 122.911 C 94.973 123.044 94.77 123.271 94.663 123.591 C 94.55 123.911 94.493 124.404 94.493 125.071 L 94.493 135.141 ZM 107.478 138.221 C 105.712 138.221 104.172 137.851 102.858 137.111 C 101.545 136.371 100.545 135.394 99.858 134.181 C 99.172 132.961 98.828 131.678 98.828 130.331 C 98.828 128.611 99.222 127.118 100.008 125.851 C 100.795 124.578 101.905 123.604 103.338 122.931 C 104.772 122.258 106.462 121.921 108.408 121.921 C 109.375 121.921 110.308 122.008 111.208 122.181 C 112.102 122.361 112.845 122.618 113.438 122.951 C 113.592 123.018 113.685 123.094 113.718 123.181 C 113.752 123.268 113.782 123.434 113.808 123.681 L 113.968 126.791 C 113.968 126.858 113.908 126.898 113.788 126.911 C 113.668 126.918 113.595 126.888 113.568 126.821 C 111.868 124.041 109.895 122.651 107.648 122.651 C 106.075 122.651 104.842 123.281 103.948 124.541 C 103.055 125.794 102.608 127.581 102.608 129.901 C 102.608 132.154 103.115 133.978 104.128 135.371 C 105.148 136.764 106.528 137.461 108.268 137.461 C 109.155 137.461 109.802 137.364 110.208 137.171 C 110.622 136.984 110.898 136.631 111.038 136.111 C 111.185 135.598 111.258 134.778 111.258 133.651 C 111.258 133.071 111.212 132.668 111.118 132.441 C 111.032 132.208 110.845 132.051 110.558 131.971 C 110.272 131.898 109.775 131.861 109.068 131.861 C 108.935 131.861 108.868 131.771 108.868 131.591 C 108.868 131.524 108.885 131.464 108.918 131.411 C 108.952 131.358 108.992 131.331 109.038 131.331 C 110.185 131.418 111.342 131.461 112.508 131.461 C 113.042 131.461 113.925 131.438 115.158 131.391 C 115.205 131.391 115.245 131.421 115.278 131.481 C 115.312 131.534 115.328 131.584 115.328 131.631 C 115.328 131.784 115.272 131.861 115.158 131.861 C 114.832 131.834 114.602 131.868 114.468 131.961 C 114.335 132.048 114.245 132.228 114.198 132.501 C 114.158 132.781 114.138 133.274 114.138 133.981 C 114.138 134.974 114.165 135.668 114.218 136.061 C 114.272 136.461 114.298 136.738 114.298 136.891 C 114.298 137.024 114.278 137.108 114.238 137.141 C 114.192 137.174 114.082 137.224 113.908 137.291 C 112.428 137.911 110.285 138.221 107.478 138.221 ZM 135.997 137.421 C 136.064 137.421 136.097 137.488 136.097 137.621 C 136.097 137.754 136.064 137.821 135.997 137.821 C 135.31 137.821 134.78 137.811 134.407 137.791 L 132.217 137.751 L 129.997 137.791 C 129.624 137.811 129.094 137.821 128.407 137.821 C 128.34 137.821 128.307 137.754 128.307 137.621 C 128.307 137.488 128.34 137.421 128.407 137.421 C 129.027 137.421 129.48 137.368 129.767 137.261 C 130.054 137.148 130.254 136.931 130.367 136.611 C 130.474 136.291 130.527 135.801 130.527 135.141 L 130.527 130.431 L 122.547 130.431 L 122.547 135.141 C 122.547 135.801 122.604 136.284 122.717 136.591 C 122.824 136.904 123.027 137.121 123.327 137.241 C 123.627 137.361 124.084 137.421 124.697 137.421 C 124.744 137.421 124.767 137.488 124.767 137.621 C 124.767 137.754 124.744 137.821 124.697 137.821 C 124.017 137.821 123.487 137.811 123.107 137.791 L 120.887 137.751 L 118.737 137.791 C 118.337 137.811 117.784 137.821 117.077 137.821 C 117.037 137.821 117.017 137.754 117.017 137.621 C 117.017 137.488 117.037 137.421 117.077 137.421 C 117.717 137.421 118.187 137.368 118.487 137.261 C 118.787 137.148 118.99 136.931 119.097 136.611 C 119.21 136.291 119.267 135.801 119.267 135.141 L 119.267 125.001 C 119.267 124.341 119.21 123.854 119.097 123.541 C 118.99 123.234 118.787 123.021 118.487 122.901 C 118.187 122.774 117.74 122.711 117.147 122.711 C 117.08 122.711 117.047 122.648 117.047 122.521 C 117.047 122.388 117.08 122.321 117.147 122.321 L 118.737 122.351 C 119.624 122.398 120.34 122.421 120.887 122.421 C 121.487 122.421 122.227 122.398 123.107 122.351 L 124.697 122.321 C 124.744 122.321 124.767 122.388 124.767 122.521 C 124.767 122.648 124.744 122.711 124.697 122.711 C 123.817 122.711 123.237 122.868 122.957 123.181 C 122.684 123.488 122.547 124.118 122.547 125.071 L 122.547 129.571 L 130.527 129.571 L 130.527 125.071 C 130.527 124.404 130.474 123.911 130.367 123.591 C 130.254 123.271 130.054 123.044 129.767 122.911 C 129.48 122.778 129.027 122.711 128.407 122.711 C 128.34 122.711 128.307 122.648 128.307 122.521 C 128.307 122.388 128.34 122.321 128.407 122.321 L 129.997 122.351 C 130.884 122.398 131.624 122.421 132.217 122.421 C 132.75 122.421 133.48 122.398 134.407 122.351 L 135.997 122.321 C 136.064 122.321 136.097 122.388 136.097 122.521 C 136.097 122.648 136.064 122.711 135.997 122.711 C 135.377 122.711 134.917 122.774 134.617 122.901 C 134.324 123.021 134.12 123.234 134.007 123.541 C 133.9 123.854 133.847 124.341 133.847 125.001 L 133.847 135.141 C 133.847 135.801 133.9 136.291 134.007 136.611 C 134.12 136.931 134.32 137.148 134.607 137.261 C 134.894 137.368 135.357 137.421 135.997 137.421 ZM 151.928 135.001 C 151.928 135.708 152.005 136.221 152.158 136.541 C 152.312 136.861 152.602 137.088 153.028 137.221 C 153.462 137.354 154.155 137.421 155.108 137.421 C 155.168 137.421 155.198 137.488 155.198 137.621 C 155.198 137.754 155.168 137.821 155.108 137.821 C 154.202 137.821 153.495 137.811 152.988 137.791 L 150.098 137.751 L 147.688 137.791 C 147.242 137.811 146.645 137.821 145.898 137.821 C 145.832 137.821 145.798 137.754 145.798 137.621 C 145.798 137.488 145.832 137.421 145.898 137.421 C 146.605 137.421 147.118 137.368 147.438 137.261 C 147.758 137.148 147.972 136.931 148.078 136.611 C 148.192 136.291 148.248 135.801 148.248 135.141 L 148.248 119.801 C 148.248 119.141 148.192 118.654 148.078 118.341 C 147.972 118.034 147.752 117.821 147.418 117.701 C 147.085 117.574 146.578 117.511 145.898 117.511 C 145.832 117.511 145.798 117.448 145.798 117.321 C 145.798 117.188 145.832 117.121 145.898 117.121 L 147.648 117.151 C 148.668 117.198 149.475 117.221 150.068 117.221 C 150.602 117.221 151.232 117.188 151.958 117.121 C 152.245 117.094 152.608 117.071 153.048 117.051 C 153.488 117.031 153.998 117.021 154.578 117.021 C 156.825 117.021 158.602 117.488 159.908 118.421 C 161.208 119.361 161.858 120.814 161.858 122.781 C 161.858 124.148 161.505 125.308 160.798 126.261 C 160.092 127.208 159.182 127.924 158.068 128.411 C 156.955 128.898 155.812 129.141 154.638 129.141 C 154.045 129.141 153.525 129.088 153.078 128.981 C 153.038 128.981 153.018 128.924 153.018 128.811 C 153.018 128.744 153.035 128.678 153.068 128.611 C 153.102 128.544 153.138 128.521 153.178 128.541 C 153.512 128.634 153.888 128.681 154.308 128.681 C 155.322 128.681 156.165 128.204 156.838 127.251 C 157.512 126.304 157.848 124.958 157.848 123.211 C 157.848 121.464 157.478 120.118 156.738 119.171 C 156.005 118.224 154.932 117.751 153.518 117.751 C 152.898 117.751 152.478 117.894 152.258 118.181 C 152.038 118.468 151.928 119.031 151.928 119.871 L 151.928 135.001 ZM 169.344 125.031 L 169.344 135.001 C 169.344 135.601 169.4 136.044 169.514 136.331 C 169.62 136.618 169.834 136.821 170.154 136.941 C 170.474 137.061 170.954 137.121 171.594 137.121 L 171.964 137.121 C 173.224 137.121 174.37 136.714 175.404 135.901 C 176.444 135.081 177.207 133.978 177.694 132.591 C 177.714 132.544 177.784 132.528 177.904 132.541 C 178.03 132.548 178.094 132.574 178.094 132.621 C 177.934 133.788 177.854 135.354 177.854 137.321 C 177.854 137.501 177.817 137.628 177.744 137.701 C 177.664 137.781 177.524 137.821 177.324 137.821 L 164.074 137.821 C 164.034 137.821 164.014 137.754 164.014 137.621 C 164.014 137.488 164.034 137.421 164.074 137.421 C 164.654 137.421 165.074 137.368 165.334 137.261 C 165.6 137.148 165.784 136.931 165.884 136.611 C 165.984 136.291 166.034 135.801 166.034 135.141 L 166.034 125.001 C 166.034 124.341 165.984 123.854 165.884 123.541 C 165.784 123.234 165.6 123.021 165.334 122.901 C 165.074 122.774 164.654 122.711 164.074 122.711 C 164.034 122.711 164.014 122.648 164.014 122.521 C 164.014 122.388 164.034 122.321 164.074 122.321 L 165.704 122.351 C 166.63 122.398 167.347 122.421 167.854 122.421 C 168.427 122.421 169.177 122.398 170.104 122.351 L 171.634 122.321 C 171.7 122.321 171.734 122.388 171.734 122.521 C 171.734 122.648 171.7 122.711 171.634 122.711 C 170.967 122.711 170.474 122.774 170.154 122.901 C 169.834 123.021 169.62 123.241 169.514 123.561 C 169.4 123.881 169.344 124.371 169.344 125.031 ZM 197.033 137.421 C 197.147 137.421 197.203 137.488 197.203 137.621 C 197.203 137.754 197.147 137.821 197.033 137.821 C 196.573 137.821 195.877 137.798 194.943 137.751 C 193.977 137.711 193.293 137.691 192.893 137.691 C 192.52 137.691 191.933 137.711 191.133 137.751 C 190.387 137.798 189.857 137.821 189.543 137.821 C 189.457 137.821 189.413 137.754 189.413 137.621 C 189.413 137.488 189.457 137.421 189.543 137.421 C 190.057 137.421 190.417 137.361 190.623 137.241 C 190.837 137.121 190.943 136.938 190.943 136.691 C 190.943 136.384 190.753 135.834 190.373 135.041 L 188.393 130.761 L 184.543 130.761 L 183.283 133.751 C 182.89 134.678 182.693 135.404 182.693 135.931 C 182.693 136.464 182.88 136.844 183.253 137.071 C 183.627 137.304 184.213 137.421 185.013 137.421 C 185.12 137.421 185.173 137.488 185.173 137.621 C 185.173 137.754 185.12 137.821 185.013 137.821 C 184.7 137.821 184.257 137.798 183.683 137.751 C 183.063 137.711 182.49 137.691 181.963 137.691 C 181.41 137.691 180.757 137.711 180.003 137.751 C 179.343 137.798 178.803 137.821 178.383 137.821 C 178.277 137.821 178.223 137.754 178.223 137.621 C 178.223 137.488 178.277 137.421 178.383 137.421 C 179.07 137.421 179.623 137.321 180.043 137.121 C 180.463 136.928 180.853 136.554 181.213 136.001 C 181.58 135.448 182.007 134.598 182.493 133.451 L 187.463 121.821 C 187.503 121.734 187.57 121.691 187.663 121.691 C 187.75 121.691 187.817 121.734 187.863 121.821 L 193.163 133.281 C 193.71 134.474 194.167 135.358 194.533 135.931 C 194.9 136.504 195.27 136.898 195.643 137.111 C 196.017 137.318 196.48 137.421 197.033 137.421 Z M 186.363 126.421 L 184.913 129.901 L 187.993 129.901 L 186.363 126.421 ZM 203.688 135.141 C 203.688 135.801 203.744 136.291 203.858 136.611 C 203.964 136.931 204.161 137.148 204.448 137.261 C 204.734 137.368 205.198 137.421 205.838 137.421 C 205.884 137.421 205.908 137.488 205.908 137.621 C 205.908 137.754 205.884 137.821 205.838 137.821 C 205.158 137.821 204.628 137.811 204.248 137.791 L 201.998 137.751 L 199.848 137.791 C 199.448 137.811 198.894 137.821 198.188 137.821 C 198.148 137.821 198.128 137.754 198.128 137.621 C 198.128 137.488 198.148 137.421 198.188 137.421 C 198.828 137.421 199.298 137.368 199.598 137.261 C 199.898 137.148 200.101 136.931 200.208 136.611 C 200.321 136.291 200.378 135.801 200.378 135.141 L 200.378 125.001 C 200.378 124.341 200.321 123.854 200.208 123.541 C 200.101 123.234 199.898 123.021 199.598 122.901 C 199.298 122.774 198.828 122.711 198.188 122.711 C 198.148 122.711 198.128 122.648 198.128 122.521 C 198.128 122.388 198.148 122.321 198.188 122.321 L 199.848 122.351 C 200.728 122.398 201.444 122.421 201.998 122.421 C 202.598 122.421 203.361 122.398 204.288 122.351 L 205.838 122.321 C 205.884 122.321 205.908 122.388 205.908 122.521 C 205.908 122.648 205.884 122.711 205.838 122.711 C 205.224 122.711 204.768 122.778 204.468 122.911 C 204.168 123.044 203.964 123.271 203.858 123.591 C 203.744 123.911 203.688 124.404 203.688 125.071 L 203.688 135.141 ZM 225.383 122.321 C 225.45 122.321 225.483 122.388 225.483 122.521 C 225.483 122.648 225.45 122.711 225.383 122.711 C 224.503 122.711 223.853 123.021 223.433 123.641 C 223.013 124.261 222.803 125.234 222.803 126.561 L 222.803 138.181 C 222.803 138.228 222.746 138.261 222.633 138.281 C 222.526 138.308 222.45 138.298 222.403 138.251 L 210.773 125.131 L 210.773 133.611 C 210.773 134.918 210.98 135.878 211.393 136.491 C 211.8 137.111 212.433 137.421 213.293 137.421 C 213.36 137.421 213.393 137.488 213.393 137.621 C 213.393 137.754 213.36 137.821 213.293 137.821 C 212.766 137.821 212.36 137.811 212.073 137.791 L 210.483 137.751 L 208.893 137.791 C 208.58 137.811 208.136 137.821 207.563 137.821 C 207.516 137.821 207.493 137.754 207.493 137.621 C 207.493 137.488 207.516 137.421 207.563 137.421 C 208.45 137.421 209.1 137.111 209.513 136.491 C 209.933 135.878 210.143 134.918 210.143 133.611 L 210.143 124.471 C 209.55 123.851 209.026 123.404 208.573 123.131 C 208.12 122.851 207.683 122.711 207.263 122.711 C 207.223 122.711 207.203 122.648 207.203 122.521 C 207.203 122.388 207.223 122.321 207.263 122.321 L 209.123 122.351 C 209.296 122.351 209.54 122.344 209.853 122.331 C 210.16 122.324 210.943 122.321 212.203 122.321 C 212.376 122.321 212.523 122.374 212.643 122.481 C 212.77 122.594 212.963 122.804 213.223 123.111 C 213.403 123.378 213.646 123.688 213.953 124.041 L 222.143 133.181 L 222.143 126.561 C 222.143 125.234 221.943 124.261 221.543 123.641 C 221.143 123.021 220.503 122.711 219.623 122.711 C 219.576 122.711 219.553 122.648 219.553 122.521 C 219.553 122.388 219.576 122.321 219.623 122.321 L 220.883 122.351 C 221.543 122.398 222.06 122.421 222.433 122.421 C 222.813 122.421 223.356 122.398 224.063 122.351 L 225.383 122.321 ZM 230.452 124.771 C 230.452 125.391 230.622 125.928 230.962 126.381 C 231.302 126.828 231.722 127.211 232.222 127.531 C 232.716 127.851 233.396 128.234 234.262 128.681 C 235.256 129.208 236.032 129.654 236.592 130.021 C 237.159 130.388 237.646 130.858 238.052 131.431 C 238.459 132.004 238.662 132.688 238.662 133.481 C 238.662 134.368 238.402 135.168 237.882 135.881 C 237.369 136.601 236.659 137.171 235.752 137.591 C 234.846 138.011 233.829 138.221 232.702 138.221 C 231.689 138.221 230.699 138.094 229.732 137.841 C 228.772 137.588 228.106 137.304 227.732 136.991 C 227.559 136.884 227.472 136.654 227.472 136.301 L 227.302 132.551 C 227.302 132.464 227.359 132.411 227.472 132.391 C 227.579 132.364 227.656 132.398 227.702 132.491 C 228.542 133.944 229.392 135.134 230.252 136.061 C 231.112 136.994 232.096 137.461 233.202 137.461 C 233.862 137.461 234.412 137.261 234.852 136.861 C 235.299 136.461 235.522 135.864 235.522 135.071 C 235.522 134.364 235.339 133.748 234.972 133.221 C 234.606 132.688 234.159 132.238 233.632 131.871 C 233.099 131.511 232.392 131.088 231.512 130.601 C 230.206 129.894 229.212 129.224 228.532 128.591 C 227.846 127.964 227.502 127.144 227.502 126.131 C 227.502 124.851 228.066 123.828 229.192 123.061 C 230.319 122.301 231.676 121.921 233.262 121.921 C 233.969 121.921 234.709 121.998 235.482 122.151 C 236.256 122.304 236.876 122.481 237.342 122.681 C 237.542 122.748 237.672 122.831 237.732 122.931 C 237.799 123.031 237.832 123.168 237.832 123.341 L 237.832 126.491 C 237.832 126.558 237.779 126.608 237.672 126.641 C 237.559 126.674 237.482 126.658 237.442 126.591 C 237.022 125.711 236.436 124.838 235.682 123.971 C 234.929 123.111 233.936 122.681 232.702 122.681 C 231.949 122.681 231.386 122.874 231.012 123.261 C 230.639 123.648 230.452 124.151 230.452 124.771 Z" transform="matrix(1.7100189924240112, 0, 0, 1.6301610469818115, -44.37620544433594, -68.1656723022461)" style="fill: rgb(11, 115, 229); line-height: 65.7604px; white-space: pre;"/>
  <path d="M 193.804 161.522 C 194.944 161.522 196.127 161.625 197.354 161.832 C 198.587 162.032 199.557 162.309 200.264 162.662 C 200.491 162.742 200.637 162.839 200.704 162.952 C 200.764 163.065 200.807 163.262 200.834 163.542 L 201.294 168.482 C 201.294 168.555 201.231 168.605 201.104 168.632 C 200.977 168.659 200.901 168.619 200.874 168.512 C 200.141 166.539 199.031 165.032 197.544 163.992 C 196.064 162.952 194.324 162.432 192.324 162.432 C 189.691 162.432 187.627 163.359 186.134 165.212 C 184.634 167.059 183.884 169.542 183.884 172.662 C 183.884 174.989 184.297 177.129 185.124 179.082 C 185.944 181.029 187.084 182.572 188.544 183.712 C 189.997 184.852 191.624 185.422 193.424 185.422 C 196.844 185.422 199.441 183.295 201.214 179.042 C 201.241 178.942 201.324 178.905 201.464 178.932 C 201.604 178.952 201.674 179.002 201.674 179.082 L 201.104 183.942 C 201.051 184.249 200.994 184.445 200.934 184.532 C 200.867 184.619 200.721 184.715 200.494 184.822 C 198.287 185.709 195.944 186.152 193.464 186.152 C 190.371 186.152 187.801 185.535 185.754 184.302 C 183.701 183.075 182.184 181.512 181.204 179.612 C 180.231 177.712 179.744 175.735 179.744 173.682 C 179.744 171.302 180.397 169.189 181.704 167.342 C 183.011 165.489 184.741 164.055 186.894 163.042 C 189.047 162.029 191.351 161.522 193.804 161.522 ZM 213.756 186.152 C 211.956 186.152 210.353 185.725 208.946 184.872 C 207.539 184.025 206.453 182.892 205.686 181.472 C 204.913 180.052 204.526 178.509 204.526 176.842 C 204.526 174.889 205.026 173.202 206.026 171.782 C 207.026 170.362 208.309 169.285 209.876 168.552 C 211.449 167.819 213.059 167.452 214.706 167.452 C 216.506 167.452 218.089 167.889 219.456 168.762 C 220.823 169.635 221.879 170.769 222.626 172.162 C 223.373 173.555 223.746 175.025 223.746 176.572 C 223.746 178.272 223.303 179.855 222.416 181.322 C 221.529 182.789 220.319 183.962 218.786 184.842 C 217.259 185.715 215.583 186.152 213.756 186.152 Z M 214.666 185.312 C 216.266 185.312 217.553 184.615 218.526 183.222 C 219.499 181.829 219.986 179.902 219.986 177.442 C 219.986 175.775 219.719 174.252 219.186 172.872 C 218.659 171.485 217.899 170.389 216.906 169.582 C 215.919 168.769 214.756 168.362 213.416 168.362 C 211.769 168.362 210.503 168.995 209.616 170.262 C 208.729 171.529 208.286 173.352 208.286 175.732 C 208.286 177.532 208.556 179.162 209.096 180.622 C 209.643 182.075 210.399 183.222 211.366 184.062 C 212.326 184.895 213.426 185.312 214.666 185.312 ZM 249.896 185.232 C 249.943 185.232 249.966 185.309 249.966 185.462 C 249.966 185.615 249.943 185.692 249.896 185.692 C 249.209 185.692 248.663 185.679 248.256 185.652 L 245.976 185.612 L 243.396 185.652 C 242.963 185.679 242.366 185.692 241.606 185.692 C 241.559 185.692 241.536 185.615 241.536 185.462 C 241.536 185.309 241.559 185.232 241.606 185.232 C 242.393 185.232 242.976 185.162 243.356 185.022 C 243.736 184.889 243.996 184.642 244.136 184.282 C 244.276 183.929 244.319 183.372 244.266 182.612 L 243.666 170.532 L 237.546 185.422 C 237.493 185.529 237.403 185.582 237.276 185.582 C 237.123 185.582 237.023 185.529 236.976 185.422 L 229.756 171.332 L 229.526 181.092 C 229.499 182.539 229.709 183.592 230.156 184.252 C 230.596 184.905 231.299 185.232 232.266 185.232 C 232.339 185.232 232.376 185.309 232.376 185.462 C 232.376 185.615 232.339 185.692 232.266 185.692 C 231.679 185.692 231.223 185.679 230.896 185.652 L 229.146 185.612 L 227.396 185.652 C 227.043 185.679 226.549 185.692 225.916 185.692 C 225.863 185.692 225.836 185.615 225.836 185.462 C 225.836 185.309 225.863 185.232 225.916 185.232 C 226.903 185.232 227.619 184.905 228.066 184.252 C 228.506 183.592 228.739 182.539 228.766 181.092 L 228.996 170.072 C 228.209 168.932 227.233 168.362 226.066 168.362 C 226.019 168.362 225.996 168.285 225.996 168.132 C 225.996 167.985 226.019 167.912 226.066 167.912 L 228.876 167.942 L 231.046 167.912 C 231.399 167.912 231.689 168.032 231.916 168.272 C 232.149 168.512 232.466 169.049 232.866 169.882 L 238.606 181.052 L 243.586 168.862 C 243.686 168.582 243.849 168.352 244.076 168.172 C 244.309 167.999 244.539 167.912 244.766 167.912 L 247.006 167.942 L 249.776 167.912 C 249.829 167.912 249.856 167.985 249.856 168.132 C 249.856 168.285 249.829 168.362 249.776 168.362 C 248.763 168.362 248.043 168.532 247.616 168.872 C 247.183 169.219 247.006 169.899 247.086 170.912 L 247.686 182.612 C 247.739 183.399 247.816 183.969 247.916 184.322 C 248.016 184.675 248.213 184.915 248.506 185.042 C 248.799 185.169 249.263 185.232 249.896 185.232 ZM 258.104 182.462 C 258.104 183.249 258.191 183.832 258.364 184.212 C 258.544 184.592 258.874 184.859 259.354 185.012 C 259.834 185.159 260.581 185.232 261.594 185.232 C 261.674 185.232 261.714 185.309 261.714 185.462 C 261.714 185.615 261.674 185.692 261.594 185.692 C 260.661 185.692 259.928 185.679 259.394 185.652 L 256.464 185.612 L 254.114 185.652 C 253.654 185.679 253.034 185.692 252.254 185.692 C 252.201 185.692 252.174 185.615 252.174 185.462 C 252.174 185.309 252.201 185.232 252.254 185.232 C 252.988 185.232 253.531 185.162 253.884 185.022 C 254.238 184.889 254.484 184.642 254.624 184.282 C 254.764 183.929 254.834 183.372 254.834 182.612 L 254.834 170.982 C 254.834 170.249 254.764 169.699 254.624 169.332 C 254.484 168.965 254.238 168.712 253.884 168.572 C 253.531 168.432 252.988 168.362 252.254 168.362 C 252.201 168.362 252.174 168.285 252.174 168.132 C 252.174 167.985 252.201 167.912 252.254 167.912 L 254.074 167.942 C 255.088 167.995 255.874 168.022 256.434 168.022 C 257.114 168.022 257.834 167.985 258.594 167.912 C 258.874 167.885 259.211 167.859 259.604 167.832 C 259.998 167.805 260.461 167.792 260.994 167.792 C 265.348 167.792 267.524 169.249 267.524 172.162 C 267.524 173.429 267.214 174.492 266.594 175.352 C 265.974 176.219 265.178 176.865 264.204 177.292 C 263.224 177.725 262.191 177.942 261.104 177.942 C 260.571 177.942 260.191 177.902 259.964 177.822 C 259.891 177.822 259.854 177.749 259.854 177.602 C 259.854 177.422 259.941 177.332 260.114 177.332 C 260.421 177.385 260.661 177.412 260.834 177.412 C 261.748 177.412 262.478 177.042 263.024 176.302 C 263.571 175.569 263.844 174.469 263.844 173.002 C 263.844 169.962 262.601 168.442 260.114 168.442 C 259.381 168.442 258.861 168.605 258.554 168.932 C 258.254 169.265 258.104 169.975 258.104 171.062 L 258.104 182.462 ZM 286.528 172.092 C 286.528 170.745 286.288 169.789 285.808 169.222 C 285.322 168.649 284.508 168.362 283.368 168.362 C 283.295 168.362 283.258 168.285 283.258 168.132 C 283.258 167.985 283.295 167.912 283.368 167.912 L 284.928 167.942 C 285.742 167.995 286.415 168.022 286.948 168.022 C 287.348 168.022 287.928 167.995 288.688 167.942 L 290.208 167.912 C 290.262 167.912 290.288 167.985 290.288 168.132 C 290.288 168.285 290.262 168.362 290.208 168.362 C 289.195 168.362 288.475 168.649 288.048 169.222 C 287.615 169.789 287.398 170.745 287.398 172.092 L 287.398 178.702 C 287.398 181.055 286.748 182.892 285.448 184.212 C 284.142 185.525 282.385 186.182 280.178 186.182 C 278.758 186.182 277.455 185.899 276.268 185.332 C 275.075 184.759 274.125 183.942 273.418 182.882 C 272.705 181.815 272.348 180.549 272.348 179.082 L 272.348 170.982 C 272.348 170.222 272.285 169.665 272.158 169.312 C 272.032 168.959 271.798 168.712 271.458 168.572 C 271.118 168.432 270.568 168.362 269.808 168.362 C 269.728 168.362 269.688 168.285 269.688 168.132 C 269.688 167.985 269.728 167.912 269.808 167.912 L 271.588 167.942 C 272.555 167.995 273.342 168.022 273.948 168.022 C 274.608 168.022 275.445 167.995 276.458 167.942 L 278.208 167.912 C 278.255 167.912 278.278 167.985 278.278 168.132 C 278.278 168.285 278.255 168.362 278.208 168.362 C 277.448 168.362 276.888 168.439 276.528 168.592 C 276.175 168.745 275.928 169.005 275.788 169.372 C 275.648 169.739 275.578 170.302 275.578 171.062 L 275.578 178.092 C 275.578 180.372 276.098 182.052 277.138 183.132 C 278.178 184.205 279.535 184.742 281.208 184.742 C 282.855 184.742 284.152 184.229 285.098 183.202 C 286.052 182.175 286.528 180.699 286.528 178.772 L 286.528 172.092 ZM 296.556 168.592 C 294.303 168.592 292.746 170.085 291.886 173.072 C 291.86 173.152 291.783 173.192 291.656 173.192 C 291.53 173.192 291.466 173.152 291.466 173.072 C 291.566 172.292 291.673 171.262 291.786 169.982 C 291.9 168.702 291.956 167.732 291.956 167.072 C 291.956 166.945 292.026 166.882 292.166 166.882 C 292.306 166.882 292.376 166.945 292.376 167.072 C 292.376 167.399 292.566 167.609 292.946 167.702 C 293.326 167.789 293.81 167.832 294.396 167.832 C 296.57 167.885 298.48 167.912 300.126 167.912 L 303.436 167.872 C 303.87 167.845 304.453 167.832 305.186 167.832 C 306.146 167.832 306.866 167.775 307.346 167.662 C 307.833 167.549 308.14 167.302 308.266 166.922 C 308.286 166.842 308.366 166.802 308.506 166.802 C 308.646 166.802 308.716 166.842 308.716 166.922 C 308.716 167.075 308.693 167.455 308.646 168.062 C 308.62 168.695 308.58 169.485 308.526 170.432 C 308.48 171.385 308.443 172.265 308.416 173.072 C 308.416 173.152 308.34 173.192 308.186 173.192 C 308.033 173.192 307.956 173.152 307.956 173.072 C 307.83 171.705 307.38 170.619 306.606 169.812 C 305.833 168.999 304.876 168.592 303.736 168.592 C 302.976 168.592 302.466 168.755 302.206 169.082 C 301.94 169.415 301.806 170.049 301.806 170.982 L 301.806 182.612 C 301.806 183.372 301.873 183.935 302.006 184.302 C 302.146 184.669 302.42 184.915 302.826 185.042 C 303.233 185.169 303.88 185.232 304.766 185.232 C 304.84 185.232 304.876 185.309 304.876 185.462 C 304.876 185.615 304.84 185.692 304.766 185.692 C 303.953 185.692 303.306 185.679 302.826 185.652 L 300.056 185.612 L 297.396 185.652 C 296.916 185.679 296.243 185.692 295.376 185.692 C 295.33 185.692 295.306 185.615 295.306 185.462 C 295.306 185.309 295.33 185.232 295.376 185.232 C 296.263 185.232 296.916 185.169 297.336 185.042 C 297.756 184.915 298.036 184.669 298.176 184.302 C 298.316 183.935 298.386 183.372 298.386 182.612 L 298.386 170.912 C 298.386 170.225 298.346 169.732 298.266 169.432 C 298.193 169.125 298.03 168.909 297.776 168.782 C 297.523 168.655 297.116 168.592 296.556 168.592 ZM 316.886 182.612 C 316.886 183.372 316.95 183.935 317.076 184.302 C 317.203 184.669 317.443 184.915 317.796 185.042 C 318.156 185.169 318.716 185.232 319.476 185.232 C 319.523 185.232 319.546 185.309 319.546 185.462 C 319.546 185.615 319.523 185.692 319.476 185.692 C 318.716 185.692 318.12 185.679 317.686 185.652 L 315.176 185.612 L 312.826 185.652 C 312.366 185.679 311.743 185.692 310.956 185.692 C 310.91 185.692 310.886 185.615 310.886 185.462 C 310.886 185.309 310.91 185.232 310.956 185.232 C 311.743 185.232 312.313 185.169 312.666 185.042 C 313.026 184.915 313.27 184.669 313.396 184.302 C 313.523 183.935 313.586 183.372 313.586 182.612 L 313.586 170.982 C 313.586 170.222 313.523 169.665 313.396 169.312 C 313.27 168.959 313.02 168.712 312.646 168.572 C 312.28 168.432 311.716 168.362 310.956 168.362 C 310.91 168.362 310.886 168.285 310.886 168.132 C 310.886 167.985 310.91 167.912 310.956 167.912 L 312.826 167.942 C 313.786 167.995 314.57 168.022 315.176 168.022 C 315.863 168.022 316.713 167.995 317.726 167.942 L 319.476 167.912 C 319.523 167.912 319.546 167.985 319.546 168.132 C 319.546 168.285 319.523 168.362 319.476 168.362 C 318.736 168.362 318.183 168.439 317.816 168.592 C 317.45 168.745 317.203 169.005 317.076 169.372 C 316.95 169.739 316.886 170.302 316.886 171.062 L 316.886 182.612 ZM 341.776 167.912 C 341.856 167.912 341.896 167.985 341.896 168.132 C 341.896 168.285 341.856 168.362 341.776 168.362 C 340.79 168.362 340.07 168.699 339.616 169.372 C 339.156 170.045 338.926 171.102 338.926 172.542 L 338.926 186.112 C 338.926 186.159 338.863 186.195 338.736 186.222 C 338.61 186.249 338.523 186.235 338.476 186.182 L 325.366 171.022 C 325.313 170.975 325.286 170.952 325.286 170.952 L 325.286 181.092 C 325.286 182.539 325.51 183.592 325.956 184.252 C 326.396 184.905 327.096 185.232 328.056 185.232 C 328.11 185.232 328.136 185.309 328.136 185.462 C 328.136 185.615 328.11 185.692 328.056 185.692 C 327.45 185.692 326.983 185.679 326.656 185.652 L 324.946 185.612 L 323.196 185.652 C 322.843 185.679 322.35 185.692 321.716 185.692 C 321.663 185.692 321.636 185.615 321.636 185.462 C 321.636 185.309 321.663 185.232 321.716 185.232 C 322.703 185.232 323.416 184.905 323.856 184.252 C 324.303 183.592 324.526 182.539 324.526 181.092 L 324.526 170.112 C 323.893 169.479 323.343 169.029 322.876 168.762 C 322.403 168.495 321.94 168.362 321.486 168.362 C 321.433 168.362 321.406 168.285 321.406 168.132 C 321.406 167.985 321.433 167.912 321.486 167.912 L 323.616 167.942 C 323.843 167.942 324.126 167.935 324.466 167.922 C 324.813 167.915 325.53 167.912 326.616 167.912 C 326.816 167.912 326.993 167.975 327.146 168.102 C 327.3 168.229 327.503 168.482 327.756 168.862 L 328.556 169.882 L 338.166 180.982 L 338.166 172.542 C 338.166 171.075 337.953 170.012 337.526 169.352 C 337.093 168.692 336.396 168.362 335.436 168.362 C 335.356 168.362 335.316 168.285 335.316 168.132 C 335.316 167.985 335.356 167.912 335.436 167.912 L 336.836 167.942 C 337.55 167.995 338.12 168.022 338.546 168.022 C 338.98 168.022 339.576 167.995 340.336 167.942 L 341.776 167.912 ZM 353.554 186.152 C 351.528 186.152 349.761 185.725 348.254 184.872 C 346.748 184.025 345.601 182.905 344.814 181.512 C 344.034 180.119 343.644 178.649 343.644 177.102 C 343.644 175.129 344.091 173.412 344.984 171.952 C 345.884 170.499 347.158 169.385 348.804 168.612 C 350.451 167.839 352.391 167.452 354.624 167.452 C 355.711 167.452 356.754 167.552 357.754 167.752 C 358.754 167.959 359.598 168.252 360.284 168.632 C 360.438 168.732 360.538 168.832 360.584 168.932 C 360.638 169.032 360.678 169.209 360.704 169.462 L 360.934 173.042 C 360.934 173.115 360.864 173.159 360.724 173.172 C 360.584 173.185 360.501 173.152 360.474 173.072 C 358.881 169.832 356.628 168.212 353.714 168.212 C 351.761 168.212 350.221 168.945 349.094 170.412 C 347.968 171.885 347.404 173.952 347.404 176.612 C 347.404 178.332 347.688 179.859 348.254 181.192 C 348.828 182.519 349.644 183.549 350.704 184.282 C 351.771 185.022 353.028 185.392 354.474 185.392 C 355.588 185.392 356.398 185.275 356.904 185.042 C 357.411 184.815 357.751 184.399 357.924 183.792 C 358.104 183.185 358.194 182.222 358.194 180.902 C 358.194 180.242 358.138 179.782 358.024 179.522 C 357.911 179.255 357.671 179.075 357.304 178.982 C 356.938 178.895 356.298 178.852 355.384 178.852 C 355.231 178.852 355.154 178.752 355.154 178.552 C 355.154 178.472 355.174 178.402 355.214 178.342 C 355.248 178.275 355.291 178.242 355.344 178.242 C 356.664 178.342 357.994 178.392 359.334 178.392 C 359.941 178.392 360.954 178.369 362.374 178.322 C 362.428 178.322 362.471 178.352 362.504 178.412 C 362.544 178.479 362.564 178.535 362.564 178.582 C 362.564 178.762 362.501 178.852 362.374 178.852 C 361.941 178.825 361.644 178.862 361.484 178.962 C 361.318 179.069 361.208 179.279 361.154 179.592 C 361.108 179.912 361.084 180.475 361.084 181.282 C 361.084 182.422 361.114 183.222 361.174 183.682 C 361.241 184.135 361.274 184.452 361.274 184.632 C 361.274 184.779 361.248 184.872 361.194 184.912 C 361.148 184.952 361.021 185.009 360.814 185.082 C 359.121 185.795 356.701 186.152 353.554 186.152 Z" transform="matrix(1, 0, 0, 1, 0, 0)" style="fill: rgb(251, 139, 35); white-space: pre;"/>
</svg>