<?xml version="1.0" encoding="UTF-8" standalone="no"?>
<svg
   version="1.1"
   viewBox="0.00 0.00 336.00 336.00"
   id="svg53"
   sodipodi:docname="logo.svg"
   inkscape:version="1.3 (0e150ed, 2023-07-21)"
   xmlns:inkscape="http://www.inkscape.org/namespaces/inkscape"
   xmlns:sodipodi="http://sodipodi.sourceforge.net/DTD/sodipodi-0.dtd"
   xmlns="http://www.w3.org/2000/svg"
   xmlns:svg="http://www.w3.org/2000/svg">
  <defs
     id="defs53">
    <inkscape:path-effect
       effect="fill_between_many"
       method="originald"
       linkedpaths="#path53,0,1|"
       id="path-effect56" />
  </defs>
  <sodipodi:namedview
     id="namedview53"
     pagecolor="#ffffff"
     bordercolor="#666666"
     borderopacity="1.0"
     inkscape:showpageshadow="2"
     inkscape:pageopacity="0.0"
     inkscape:pagecheckerboard="0"
     inkscape:deskcolor="#d1d1d1"
     inkscape:zoom="3.0438352"
     inkscape:cx="93.960408"
     inkscape:cy="155.88886"
     inkscape:window-width="2352"
     inkscape:window-height="1254"
     inkscape:window-x="0"
     inkscape:window-y="25"
     inkscape:window-maximized="0"
     inkscape:current-layer="svg53" />
  <g
     id="g56"
     inkscape:label="contour">
    <path
       d="m 165.07031,9 c -0.38,0 -0.57031,0.1903129 -0.57031,0.5703125 -0.007,8.0866585 -0.007,16.1731065 0,24.2597655 0.01,4.669995 -1.64071,7.428987 -5.2207,9.958984 C 141.89931,56.075717 124.49076,68.313345 107.05078,80.5 c -1.99,1.389999 -4.30078,3.580002 -4.30078,5.75 0.007,13.733319 -0.003,27.62327 -0.0293,41.66992 -0.003,0.6252 -0.7045,0.9933 -1.2207,0.64063 -3.813329,-2.64 -7.756749,-5.30047 -11.830078,-7.98047 -3.199997,-2.1 -5.810394,-2.23047 -9.150391,0.0195 -6.68666,4.50666 -13.335892,9.06016 -19.949219,13.66016 -2.879997,2.00666 -4.320312,4.3369 -4.320312,6.99023 -0.0067,17.07998 -0.0036,34.16025 0.0098,51.24023 0.01,4.38 1.039925,5.98008 4.419921,8.33008 6.666661,4.64667 13.377534,9.23621 20.13086,13.76953 2.289998,1.54 5.339846,1.24938 7.589844,-0.39062 4.453328,-3.23333 9.036671,-6.4124 13.749995,-9.53906 0.36,-0.24 0.54183,-0.13922 0.54883,0.30078 0.1067,11.79999 0.12101,23.59845 0.041,35.39843 -0.02,2.65 0.75055,5.41985 2.81055,6.83985 17.83998,12.23332 35.659,24.49459 53.45899,36.78125 3.81999,2.64 5.4307,5.09907 5.4707,10.03906 0.06,7.81999 0.17628,15.65024 0.34961,23.49024 0.005,0.27223 0.22772,0.49028 0.5,0.49023 h 3.34961 c 0.38667,0 0.57731,-0.19341 0.57031,-0.58008 -0.0133,-7.62666 -0.007,-15.2542 0.0195,-22.88086 0.01,-4.23999 0.99079,-7.35898 4.30078,-9.70898 10.74666,-7.62666 28.41646,-19.95382 53.00977,-36.98047 2.91,-2.01 3.95969,-3.4993 3.92969,-7.2793 -0.0733,-11.92666 -0.0322,-23.91118 0.12109,-35.95117 0.007,-0.38 0.16828,-0.46643 0.48828,-0.25977 6.78666,4.36667 11.24753,7.41087 13.38086,9.13086 3.28667,2.64667 6.64365,2.75985 10.07031,0.33985 6.70667,-4.72667 13.38884,-9.46738 20.04883,-14.22071 1.98667,-1.41332 3.00408,-3.0327 3.05078,-4.85937 0.2133,-8.63332 0.31408,-27.64576 0.30078,-57.03906 0,-0.19999 -0.51488,-0.26824 -0.37488,-0.41491 l 0.21863,-0.10267 c 0.2124,-0.2124 0.46728,-3.21563 0.0673,-3.11563 -3.44999,0.85 -8.71173,-1.85843 -11.13173,-3.54843 -4.85333,-3.40667 -9.73086,-6.77915 -14.63086,-10.11914 -2.82,-1.92667 -5.59169,-1.87628 -8.31836,0.15039 -3.97332,2.95999 -8.04738,5.77589 -12.2207,8.44922 -0.36667,0.24 -0.55078,0.14426 -0.55078,-0.28907 -0.04,-13.71998 -0.0729,-27.44017 -0.0996,-41.160153 -0.007,-3.159997 -1.3873,-5.689846 -4.14063,-7.589844 -9.73332,-6.68666 -27.24265,-19.01382 -52.52929,-36.980469 -3.83,-2.709997 -5.02954,-5.560708 -5.01954,-10.470703 0.013,-7.639992 0.0168,-15.292325 0.01,-22.9589841 C 169.25,9.1872139 169.06278,9 168.68945,9 Z m 1.41211,42.410156 c 2.00537,-0.236835 4.15266,0.271252 6.59766,2 15.05331,10.613323 30.08939,21.243969 45.10937,31.890625 3.43,2.429998 4.06032,4.268442 4.07032,8.648438 0.007,4.279995 -0.009,8.544351 -0.0488,12.791011 l -0.24024,24.11914 c 0.84,7.5 6.90923,10.27094 12.94922,6.21094 3.88,-2.60666 7.74318,-5.21675 11.58985,-7.83008 3.41999,-2.31999 14.5007,6.90907 17.4707,9.03907 3.49,2.50999 3.98,4.27149 4,8.77148 0.0467,14.29332 0.0405,28.58559 -0.0195,42.87891 -0.007,2.19333 -1.1249,4.08945 -3.35157,5.68945 -6.51999,4.69 -14.58844,11.92086 -19.14843,8.88086 -4.56,-3.02 -11.91079,-9.71039 -17.55078,-8.65039 -4.51333,1.22667 -6.54628,4.74412 -6.09961,10.55078 0.26,9.23332 0.29604,19.01629 0.10937,29.34961 -0.06,3.44 -0.35031,4.80039 -3.32031,6.90039 -4.19333,2.94667 -8.39605,5.88388 -12.60938,8.81055 -9.36666,6.53999 -18.77714,13.03185 -28.23046,19.47851 -7.76,5.29 -10.4497,7.51961 -18.42969,2.09961 -14.42666,-9.77999 -28.81041,-19.59899 -43.15039,-29.45898 -3.27,-2.25 -4.40992,-3.68922 -4.41992,-7.94922 -0.0267,-9.63999 -0.0174,-18.9404 0.0293,-27.90039 -0.09,-3.04 0.13117,-6.29094 -1.54883,-8.71094 -5.84999,-8.35999 -16.150782,1.69993 -21.300777,5.41992 -2.429997,1.75 -4.999534,1.35039 -7.519531,-0.34961 -4.473329,-3.01332 -8.922947,-6.06683 -13.34961,-9.16015 -1.129998,-0.79 -1.800546,-2.95047 -1.810546,-4.48047 -0.01333,-15.47999 -0.01333,-30.96257 0,-46.44922 0,-4.74 10.880316,-10.60016 14.570312,-13.16016 3.329997,-2.29999 4.969457,-2.41046 8.439453,0.0195 5.219995,3.65 15.789849,13.54046 21.339849,4.23047 1.37999,-2.30999 0.87015,-5.40937 0.91015,-8.10937 -0.02,-10.87332 -0.0265,-21.76326 -0.0195,-32.669923 0,-4.739995 1.14922,-7.28969 5.19922,-9.429688 l 28.49023,-20 11.72071,-8.28125 c 3.28124,-2.331247 6.22998,-4.794727 9.57226,-5.189453 z"
       style="display:inline;fill:#30254b"
       id="path64"
       sodipodi:nodetypes="scccccccccccccccccccccccscccccccccccccccccccccccccssccccccccccccccccccccccccccccccccccccccc" />
  </g>
  <g
     fill="#ffffff"
     id="g39"
     style="display:inline">
    <path
       d="M 0,0 V 336 H 336 V 0 Z m 165.07031,9 h 3.61914 c 0.37333,0 0.56055,0.1872139 0.56055,0.5605469 0.007,7.6666591 0.004,15.3189921 -0.01,22.9589841 -0.01,4.909995 1.18954,7.760706 5.01954,10.470703 25.28664,17.966649 42.79597,30.293809 52.52929,36.980469 2.75333,1.899998 4.13363,4.429847 4.14063,7.589844 0.0267,13.719983 0.0596,27.440173 0.0996,41.160153 0,0.43333 0.18411,0.52907 0.55078,0.28907 4.17332,-2.67333 8.24738,-5.48923 12.2207,-8.44922 2.72667,-2.02667 5.49836,-2.07706 8.31836,-0.15039 4.9,3.33999 9.77753,6.71247 14.63086,10.11914 l 11.2207,7.18164 c 0.0133,29.3933 -0.0875,48.40574 -0.30078,57.03906 -0.0467,1.82667 -1.06411,3.44605 -3.05078,4.85937 -6.65999,4.75333 -13.34216,9.49404 -20.04883,14.22071 -3.42666,2.42 -6.78364,2.30682 -10.07031,-0.33985 -2.13333,-1.71999 -6.5942,-4.76419 -13.38086,-9.13086 -0.32,-0.20666 -0.48128,-0.12023 -0.48828,0.25977 -0.1533,12.03999 -0.19439,24.02451 -0.12109,35.95117 0.03,3.78 -1.01969,5.2693 -3.92969,7.2793 -24.59331,17.02665 -42.26311,29.35381 -53.00977,36.98047 -3.30999,2.35 -4.29078,5.46899 -4.30078,9.70898 -0.027,7.62666 -0.0328,15.2542 -0.0195,22.88086 0.007,0.38667 -0.18364,0.58008 -0.57031,0.58008 h -3.34961 c -0.27228,5e-5 -0.495,-0.218 -0.5,-0.49023 -0.17333,-7.84 -0.28961,-15.67025 -0.34961,-23.49024 -0.04,-4.93999 -1.65071,-7.39906 -5.4707,-10.03906 -17.79999,-12.28666 -35.61901,-24.54793 -53.45899,-36.78125 -2.06,-1.42 -2.83055,-4.18985 -2.81055,-6.83985 0.08,-11.79998 0.0657,-23.59844 -0.041,-35.39843 -0.007,-0.44 -0.18883,-0.54078 -0.54883,-0.30078 -4.713328,3.12666 -9.296671,6.30573 -13.749999,9.53906 -2.249998,1.64 -5.299846,1.93062 -7.589844,0.39062 -6.753326,-4.53332 -13.464199,-9.12286 -20.13086,-13.76953 -3.379996,-2.35 -4.409921,-3.95008 -4.419921,-8.33008 -0.0133,-17.07998 -0.01647,-34.16025 -0.0098,-51.24023 0,-2.65333 1.440315,-4.98357 4.320312,-6.99023 6.613327,-4.6 13.262559,-9.1535 19.949219,-13.66016 3.339997,-2.25 5.950394,-2.11953 9.150391,-0.0195 4.073329,2.68 8.016749,5.34047 11.830078,7.98047 0.5162,0.35267 1.2177,-0.0155 1.2207,-0.64063 0.027,-14.04665 0.0363,-27.936601 0.0293,-41.66992 0,-2.169998 2.31078,-4.360001 4.30078,-5.75 17.43998,-12.186655 34.84853,-24.424283 52.22852,-36.710938 3.57999,-2.529997 5.2307,-5.288989 5.2207,-9.958984 -0.007,-8.086659 -0.007,-16.173107 0,-24.2597655 C 164.5,9.1903129 164.69031,9 165.07031,9 Z m 1.07031,97.5 c -0.40666,0 -0.61132,0.20271 -0.61132,0.60938 l -0.0899,20.60156 c 0,0.37333 -0.15231,0.66247 -0.45898,0.86914 l -3.76953,2.63086 -22.68164,15.82812 -8.71875,6.17188 c -0.3,0.21333 -0.45118,0.50247 -0.45118,0.86914 l -0.16015,13.44922 c 0,0.31333 -0.15852,0.4707 -0.47852,0.4707 h -26.75976 c -0.32,0 -0.4867,0.16047 -0.5,0.48047 l -0.14063,2.53906 c -0.0267,0.48667 0.20279,0.73047 0.68946,0.73047 h 26.73046 c 0.33333,0 0.5,0.16667 0.5,0.5 l 0.0195,22.5293 c 0.1533,0.16667 0.2367,0.44031 0.25,0.82031 0.02,0.38 0.18667,0.67419 0.5,0.88086 l 35.08984,24.07031 c 0.26293,0.17479 0.42058,0.47054 0.41992,0.78906 l -0.0586,21.75977 c 0,0.26667 0.12867,0.40039 0.38867,0.40039 h 2.46094 c 0.42,0 0.6289,-0.21086 0.6289,-0.63086 l 0.19141,-21.51953 c 0.007,-0.36 0.16519,-0.63675 0.47851,-0.83008 L 173,218.4707 c 10.25332,-7.08666 20.52389,-14.14016 30.81055,-21.16015 0.52,-0.34667 0.94286,-0.86102 1.26953,-1.54102 l -0.18946,-23.36914 c -0.007,-0.38667 0.18365,-0.58008 0.57032,-0.58008 l 8.29883,-0.041 18.16015,-0.0293 c 0.38667,0 0.58008,-0.19031 0.58008,-0.57031 v -2.56055 C 232.5,168.20581 232.28914,168 231.86914,168 h -26.37891 c -0.40667,0 -0.60314,-0.20271 -0.58984,-0.60938 0.14,-4.01999 0.1555,-8.04984 0.0488,-12.08984 -0.07,-2.75 -5.51977,-5.54109 -7.75977,-7.12109 L 169.40039,128.71094 C 169.13372,128.51761 169,128.25636 169,127.92969 v -20.79883 c 0,-0.42 -0.20581,-0.63086 -0.61914,-0.63086 z m 1.16016,25.42773 c 0.13,0.002 0.25867,0.0493 0.38867,0.14258 l 26.19141,18.49024 6.88867,4.91992 c 0.3,0.21333 0.45117,0.50247 0.45117,0.86914 l -0.01,35.56055 0.1582,1.43945 c 0.0467,0.44 -0.11185,0.78458 -0.47852,1.03125 l -33.00976,22.75976 c -0.30667,0.21333 -0.61831,0.21333 -0.93164,0 -3.14,-2.15999 -34.11969,-23.17062 -33.92969,-23.89062 0.10667,-11.51999 0.18377,-23.04056 0.23047,-34.56055 0.01,-1.49 -0.65914,-2.69976 0.88086,-3.75976 2.9,-2 5.43914,-3.77675 7.61914,-5.33008 l 25.16016,-17.53906 c 0.13,-0.09 0.26062,-0.13448 0.39062,-0.13282 z"
       style=""
       id="path65" />
  </g>
  <g
     fill="#fe4f92"
     id="g45"
     style="display:inline"
     inkscape:label="left">
    <path
       d="m 111.51953,126.98047 c -0.04,2.7 0.46983,5.79939 -0.91015,8.10937 -5.55,9.30998 -16.119859,-0.58047 -21.339849,-4.23047 -3.469992,-2.42998 -5.109459,-2.31954 -8.439453,-0.0195 -3.689992,2.56 -14.570312,8.42016 -14.570312,13.16016 -0.01333,15.48663 -0.01333,30.96924 0,46.44922 0.01,1.53 0.68055,3.69047 1.810546,4.48047 4.426659,3.09331 8.876285,6.14684 13.34961,9.16015 2.519994,1.7 5.089537,2.09961 7.519531,0.34961 5.14999,-3.71998 15.450797,-13.7799 21.300777,-5.41992 1.68,2.42 1.45883,5.67094 1.54883,8.71094 5.02,-3.20667 9.78127,-6.50396 14.28125,-9.89063 1.02,-0.77 3.51946,-1.33054 3.18946,-3.06054 l -0.0195,-22.5293 c 0,-0.33333 -0.16667,-0.5 -0.5,-0.5 h -26.73046 c -0.48667,0 -0.71616,-0.2438 -0.68946,-0.73047 l 0.14063,-2.53906 c 0.0133,-0.32 0.18,-0.48047 0.5,-0.48047 h 26.75976 c 0.32,0 0.47852,-0.15737 0.47852,-0.4707 l 0.16015,-13.44922 c 0,-0.36667 0.15118,-0.65581 0.45118,-0.86914 l 8.71875,-6.17188 c -2.57,-1.72 -25.88836,-18.18 -26.31836,-18 0.41096,-0.89815 -0.48094,0.0319 -0.46094,-0.32812 0.0467,-0.66 -0.0305,-1.23714 -0.23047,-1.73047 z M 141.75,149.59961 c -2.18,1.55333 -4.71914,3.33008 -7.61914,5.33008 -1.54,1.06 -0.87086,2.26976 -0.88086,3.75976 -0.0467,11.51998 -0.1238,23.04057 -0.23047,34.56055 1.04,0.17 27.47002,-18.98086 35.25,-24.38086 z"
       style="display:inline"
       id="path62" />
  </g>
  <g
     fill="#65a1fa"
     id="g50"
     inkscape:label="right">
    <path
       d="m 248.12109,128.875 c -0.63607,-0.0345 -1.18382,0.0752 -1.61132,0.36523 -3.84667,2.61333 -7.70985,5.22343 -11.58985,7.83008 -6.03998,4.06 -12.10922,1.28906 -12.94922,-6.21094 l -5.66015,3.73047 -19.1211,13.58985 c 2.24,1.58 7.68977,4.37109 7.75977,7.12109 0.10667,4.04 0.0912,8.06986 -0.0488,12.08984 -0.0133,0.40667 0.18317,0.60938 0.58984,0.60938 h 26.37891 c 0.42,0 0.63086,0.20581 0.63086,0.61914 v 2.56055 c 0,0.38 -0.19341,0.57031 -0.58008,0.57031 l -18.16015,0.0293 -8.29883,0.041 c -0.38667,0 -0.5773,0.19341 -0.57032,0.58008 l 0.18946,23.36914 0.66015,-0.0195 c 0.34,-0.0133 0.64041,0.0874 0.90039,0.30078 4.57333,3.67333 9.62993,7.12294 15.16993,10.34961 -0.23209,-3.01722 0.20541,-5.41664 1.3125,-7.19727 1.02352,-1.64619 2.61896,-2.76424 4.78711,-3.35351 5.63998,-1.06 12.99078,5.63039 17.55078,8.65039 4.55998,3.04 12.62845,-4.19086 19.14843,-8.88086 2.22667,-1.6 3.34457,-3.49612 3.35157,-5.68945 0.06,-14.29331 0.0662,-28.5856 0.0195,-42.87891 -0.02,-4.49998 -0.51,-6.2615 -4,-8.77148 -2.59875,-1.86375 -11.40686,-9.16272 -15.85938,-9.4043 z m -54.24023,21.68555 -25.20117,17.88867 c 0.29,0.35 0.49008,0.76172 0.83008,1.01172 9.01998,6.67331 18.13939,13.21559 27.35937,19.6289 1.1,0.77 2.6818,2.66032 4.3418,2.82032 l 0.01,-35.56055 c 0,-0.36667 -0.15117,-0.65581 -0.45117,-0.86914 z"
       style="display:inline"
       id="path60" />
  </g>
  <g
     fill="#ae6cec"
     id="g52"
     inkscape:label="bottom">
    <path
       d="m 168.67969,168.44922 c -0.35646,0.31722 -0.56225,0.50475 -0.63477,0.57812 -7.94165,5.52104 -33.99117,24.39171 -35.02539,24.22266 -0.19,0.72 30.78969,21.73064 33.92969,23.89062 0.31333,0.21334 0.62497,0.21334 0.93164,0 l 33.00976,-22.75976 c 0.36667,-0.24667 0.52519,-0.59125 0.47852,-1.03125 l -0.1582,-1.43945 c -1.66,-0.16 -3.2418,-2.05032 -4.3418,-2.82032 -9.21998,-6.41331 -18.33939,-12.95559 -27.35937,-19.6289 -0.34,-0.25 -0.54008,-0.66172 -0.83008,-1.01172 z m -39.41992,26.33008 c 0.33,1.73 -2.16946,2.29054 -3.18946,3.06054 -4.49998,3.38667 -9.26125,6.68397 -14.28125,9.89063 -0.0467,8.95998 -0.056,18.26041 -0.0293,27.90039 0.01,4.26 1.14992,5.69922 4.41992,7.94922 14.33996,9.85998 28.72375,19.679 43.15039,29.45898 7.97998,5.42 10.66969,3.19039 18.42969,-2.09961 9.45331,-6.44665 18.86382,-12.93853 28.23046,-19.47851 4.21333,-2.92667 8.41605,-5.86389 12.60938,-8.81055 2.97,-2.1 3.26031,-3.46039 3.32031,-6.90039 0.18667,-10.33331 0.15063,-20.1163 -0.10937,-29.34961 -5.54,-3.22666 -10.5966,-6.67628 -15.16993,-10.34961 -0.25998,-0.21333 -0.56039,-0.31411 -0.90039,-0.30078 l -0.66015,0.0195 c -0.32667,0.68 -0.74953,1.19435 -1.26953,1.54102 -10.28664,7.02001 -20.55724,14.0735 -30.81055,21.16015 l -3.39063,2.04883 c -0.31332,0.19333 -0.47184,0.47008 -0.47851,0.83008 l -0.19141,21.51953 c 0,0.42 -0.2089,0.63086 -0.6289,0.63086 h -2.46094 c -0.26,0 -0.38867,-0.13372 -0.38867,-0.40039 l 0.0586,-21.75977 a 0.94,0.95 16.6 0 0 -0.41992,-0.78906 l -35.08984,-24.07031 c -0.31334,-0.20667 -0.48,-0.50086 -0.5,-0.88086 -0.0133,-0.38 -0.0967,-0.65365 -0.25,-0.82031 z"
       style=""
       id="path63" />
  </g>
  <g
     id="g53">
    <path
       d="m 167.49805,51.355469 c -3.77096,-0.04528 -6.97853,2.679771 -10.58789,5.24414 l -11.72071,8.28125 -28.49023,20 c -4.05,2.139996 -5.19922,4.689698 -5.19922,9.429688 -0.007,10.906653 -4.4e-4,21.796613 0.0195,32.669923 -3e-4,0.52065 -0.0684,1.4978 0.0215,1.69336 0.51729,0.33273 -0.0483,-0.005 0.66992,0.36523 0.43,-0.18 23.74836,16.28 26.31836,18 l 22.68164,-15.82812 3.76953,-2.63086 c 0.30667,-0.20667 0.45898,-0.49581 0.45898,-0.86914 l 0.0899,-20.60156 c 0,-0.40667 0.20467,-0.60938 0.61132,-0.60938 h 2.24024 c 0.41333,0 0.61914,0.21086 0.61914,0.63086 v 20.79883 c 0,0.32667 0.13372,0.58792 0.40039,0.78125 l 27.78906,19.46875 19.1211,-13.58985 5.66015,-3.73047 0.24024,-24.11914 c 0.04,-4.24665 0.0558,-8.511021 0.0488,-12.791011 -0.01,-4.379992 -0.64032,-6.218442 -4.07032,-8.648438 -15.01996,-10.646645 -30.05608,-21.277312 -45.10937,-31.890625 -2.0375,-1.440621 -3.86796,-2.034106 -5.58203,-2.054687 z m -0.19727,80.572261 c -0.13,-0.002 -0.26062,0.0428 -0.39062,0.13282 l -25.16016,17.53906 26.49219,19.25 c 0.11074,-0.10277 0.19127,-0.18127 0.4375,-0.40039 l 25.20117,-17.88867 -26.19141,-18.49024 c -0.13,-0.0933 -0.25867,-0.14091 -0.38867,-0.14258 z m 0.94141,36.92188 c -0.21609,0.20054 -0.27234,0.26199 0.0273,0.0195 z"
       style="display:inline;fill:#fe884e"
       id="path61" />
  </g>
</svg>
