<?xml version="1.0" encoding="UTF-8"?>
<svg id="svg" version="1.1" xmlns="http://www.w3.org/2000/svg" style="display: block;" viewBox="157 157 940 940"><path d="M0 0 C6.16183817 3.19532397 11.60467609 6.75087666 16.9375 11.1875 C17.63061279 11.76064941 18.32372559 12.33379883 19.0378418 12.92431641 C42.61202114 32.63311056 59.07187023 58.82928658 62.71875 89.6875 C64.11030482 106.07692341 61.26603557 121.51346578 56 137 C56.69859131 136.97905273 57.39718262 136.95810547 58.11694336 136.93652344 C81.13887753 136.3390913 102.38398277 137.84129394 120.625 153.4375 C127.48866157 160.16296704 132.17481647 167.79322544 135 177 C135 177.99 135 178.98 135 180 C134.36835937 179.86424561 133.73671875 179.72849121 133.0859375 179.58862305 C121.21334276 177.06206132 109.36449419 174.73901572 97.3125 173.25 C96.38373047 173.13487061 95.45496094 173.01974121 94.49804688 172.90112305 C28.02309131 165.1210128 -40.84016692 178.05576011 -101 207 C-102.21212158 207.57137695 -102.21212158 207.57137695 -103.44873047 208.15429688 C-142.85512836 226.76954162 -180.6850615 254.72562217 -209 288 C-209.78761719 288.89847656 -210.57523438 289.79695313 -211.38671875 290.72265625 C-222.57992018 303.58168661 -232.61506596 317.36464072 -241.625 331.83300781 C-244.80288716 336.90144358 -244.80288716 336.90144358 -247 338 C-243.53968877 303.47643507 -224.02374073 266.30273226 -202 240 C-201.52030762 239.42556152 -201.04061523 238.85112305 -200.54638672 238.25927734 C-197.54699816 234.68527111 -194.50745222 231.14871858 -191.43408203 227.63818359 C-190.4948874 226.56532081 -189.55826021 225.49020374 -188.62451172 224.41259766 C-187.38091634 222.97796388 -186.12822855 221.55122639 -184.875 220.125 C-184.17117187 219.32320312 -183.46734375 218.52140625 -182.7421875 217.6953125 C-181 216 -181 216 -179 216 C-178.67 215.01 -178.34 214.02 -178 213 C-176.609375 211.5625 -176.609375 211.5625 -174.75 210 C-174.02167969 209.38511719 -173.29335938 208.77023437 -172.54296875 208.13671875 C-171.70378906 207.43160156 -170.86460937 206.72648438 -170 206 C-169.06800781 205.18144531 -168.13601563 204.36289062 -167.17578125 203.51953125 C-158.57513595 196.00000736 -149.451557 189.4046735 -140 183 C-139.23300781 182.47647949 -138.46601563 181.95295898 -137.67578125 181.41357422 C-109.3466174 162.17432596 -78.91096918 147.88010117 -46.5300293 136.97045898 C-43.81471108 136.03530651 -43.81471108 136.03530651 -41 134 C-58.75891106 130.84798548 -77.68456828 132.23453632 -95 137 C-95.66354492 137.18191895 -96.32708984 137.36383789 -97.01074219 137.55126953 C-112.76417623 142.0367893 -127.30223701 149.10883676 -140.9375 158.09375 C-144 160 -144 160 -146 160 C-146.29132813 158.741875 -146.58265625 157.48375 -146.8828125 156.1875 C-155.00267199 121.92721393 -170.61464511 92.53004438 -195 67 C-195.81339844 66.13375 -196.62679687 65.2675 -197.46484375 64.375 C-215.67089569 45.49027838 -239.25754197 33.46277811 -263 23 C-249.38122131 15.61750498 -229.36617883 17.52795692 -214.40039062 17.60888672 C-210.8993375 17.62488876 -207.39945475 17.60898304 -203.8984375 17.58984375 C-182.61077054 17.5690672 -161.50570801 19.46737104 -140.625 23.6875 C-139.34737793 23.94168701 -138.06975586 24.19587402 -136.75341797 24.45776367 C-97.42669081 32.44852918 -57.43136473 46.17747159 -23.29907227 67.70336914 C-21.12766601 69.26217744 -21.12766601 69.26217744 -18.9609375 68.56640625 C-16.25329673 66.40352986 -14.46464867 63.8310518 -12.625 60.9375 C-12.2343335 60.32406738 -11.84366699 59.71063477 -11.44116211 59.07861328 C-0.18962415 40.60138068 0.33192039 21.04885888 0 0 Z " transform="translate(439,429)" style="fill:#01A8E4;"/><path d="M0 0 C15.17375659 11.77630428 23.68198609 27.10509862 26.29785156 46.17089844 C28.48180199 66.33928279 25.69297155 87.2915708 12.89453125 103.69921875 C2.01669952 116.22463945 -11.54387903 123.74838509 -28.25732422 125.30297852 C-31.6151571 125.43614683 -34.95221577 125.46750682 -38.3125 125.4375 C-39.49440918 125.43065186 -40.67631836 125.42380371 -41.89404297 125.41674805 C-59.96742233 125.08536552 -73.23563421 119.87003107 -86 107 C-100.51687497 90.72083369 -103.14573073 70.69603837 -102.17138672 49.69042969 C-101.12602701 33.28036704 -93.66403598 17.6057158 -82 6 C-75.71965402 0.64743241 -68.68918199 -3.07639738 -61 -6 C-60.15695312 -6.32097656 -59.31390625 -6.64195312 -58.4453125 -6.97265625 C-40.48897084 -12.56774822 -15.83017953 -10.56241181 0 0 Z M-64.6875 24.81640625 C-74.59842936 37.08118134 -75.90112344 52.74184717 -74.5390625 67.94140625 C-73.18683764 79.61597915 -68.39940059 90.02546107 -59.19921875 97.45703125 C-50.08580696 103.85098801 -39.80422179 104.36375914 -29 103 C-21.22266494 101.0832304 -14.65161461 97.62399041 -10 91 C-0.41996526 75.03981918 1.35991628 58.41011028 -3.01953125 40.234375 C-5.22015163 32.97495797 -8.14669383 26.97531025 -14 22 C-14.721875 21.319375 -15.44375 20.63875 -16.1875 19.9375 C-31.12187389 9.64937576 -52.27043283 11.45081311 -64.6875 24.81640625 Z " transform="translate(1060,661)" style="fill:#01A8E4;"/><path d="M0 0 C8.91 0 17.82 0 27 0 C27 16.83 27 33.66 27 51 C46.47 51 65.94 51 86 51 C86 34.17 86 17.34 86 0 C94.58 0 103.16 0 112 0 C113.26495775 2.52991551 113.12302611 4.26731769 113.12025452 7.09988403 C113.12231651 8.7195256 113.12231651 8.7195256 113.12442017 10.37188721 C113.11902725 12.15644318 113.11902725 12.15644318 113.11352539 13.97705078 C113.11367142 15.22579987 113.11381744 16.47454895 113.1139679 17.76113892 C113.11338952 21.19068663 113.10836519 24.62017457 113.10139394 28.0497117 C113.09515378 31.63184338 113.09455608 35.21397579 113.09336853 38.79611206 C113.09025717 45.5817525 113.08204641 52.36737689 113.07201904 59.15301025 C113.06085184 66.87721216 113.05534592 74.60141483 113.05032361 82.3256228 C113.03986364 98.21709276 113.02152058 114.10854059 113 130 C104.09 130 95.18 130 86 130 C86 111.52 86 93.04 86 74 C79.86277344 74.01740234 79.86277344 74.01740234 73.6015625 74.03515625 C70.34381135 74.04158501 67.08606198 74.0470086 63.82830811 74.05175018 C60.38682792 74.05703576 56.94537227 74.06410171 53.50390625 74.07543945 C49.55729465 74.08836035 45.61069316 74.09323252 41.6640625 74.09765625 C40.42757965 74.10281754 39.1910968 74.10797882 37.91714478 74.11329651 C36.20559708 74.11340981 36.20559708 74.11340981 34.45947266 74.11352539 C32.94723618 74.11685631 32.94723618 74.11685631 31.40444946 74.12025452 C29 74 29 74 27 73 C27 91.81 27 110.62 27 130 C18.09 130 9.18 130 0 130 C0 87.1 0 44.2 0 0 Z " transform="translate(327,654)" style="fill:#01A8E4;"/><path d="M0 0 C8.91 0 17.82 0 27 0 C27.0093457 2.67399902 27.01869141 5.34799805 27.02832031 8.10302734 C27.06217338 16.96399249 27.1177686 25.82472678 27.18390274 34.68550682 C27.22331632 40.05483551 27.25553485 45.4240017 27.27099609 50.79345703 C27.28620292 55.98080251 27.32071999 61.16770106 27.36830902 66.35484695 C27.38308134 68.32821378 27.39103862 70.30164444 27.39188385 72.27506638 C27.27010179 88.49515979 27.27010179 88.49515979 34.125 102.875 C43.44134078 109.76099101 53.77611632 110.28942789 65 109 C70.64884098 107.65143382 76.02675751 105.32382271 80 101 C84.10529992 93.57136204 85.1443367 86.87565815 85.20532227 78.44604492 C85.21522186 77.59675415 85.22512146 76.74746338 85.23532104 75.87243652 C85.26681909 73.07514195 85.2916471 70.27783041 85.31640625 67.48046875 C85.33698588 65.53704903 85.35798262 63.59363368 85.37937927 61.65022278 C85.4344957 56.54244537 85.48395088 51.43462826 85.53222656 46.32678223 C85.58251783 41.11169921 85.63816405 35.89667364 85.69335938 30.68164062 C85.80081336 20.45447619 85.90228655 10.22726181 86 0 C90.31248609 -0.02886537 94.62494762 -0.04675255 98.9375 -0.0625 C100.16919922 -0.07087891 101.40089844 -0.07925781 102.66992188 -0.08789062 C103.83974609 -0.09111328 105.00957031 -0.09433594 106.21484375 -0.09765625 C107.84087524 -0.10551147 107.84087524 -0.10551147 109.49975586 -0.11352539 C112 0 112 0 113 1 C113.10571838 3.48187861 113.14678167 5.93606512 113.14526367 8.41870117 C113.14862228 9.19615189 113.1519809 9.9736026 113.15544128 10.77461243 C113.16499381 13.36408053 113.16689764 15.95348408 113.16796875 18.54296875 C113.17118233 20.34646125 113.17454648 22.14995349 113.17805481 23.95344543 C113.18405956 27.7491618 113.18589373 31.54485538 113.18530273 35.34057617 C113.18520194 40.16963101 113.19876173 44.99853607 113.21607494 49.82755566 C113.22728878 53.56228788 113.22921896 57.29698523 113.22869301 61.03173256 C113.2298626 62.80925314 113.23422605 64.58677494 113.24202538 66.36427879 C113.37785819 100.56983058 113.37785819 100.56983058 103 114 C102.59265625 114.56203125 102.1853125 115.1240625 101.765625 115.703125 C94.08353428 125.629422 81.73194724 130.34570808 69.62182617 132.03540039 C51.61981367 134.19548964 31.5933436 133.38959699 16.55859375 122.1796875 C6.09881101 113.39140217 1.83081197 102.43776519 0 89 C-0.13399388 86.04885431 -0.12662551 83.10267193 -0.11352539 80.14892578 C-0.11367142 79.27998184 -0.11381744 78.4110379 -0.1139679 77.51576233 C-0.11327421 74.65891985 -0.10550735 71.80214351 -0.09765625 68.9453125 C-0.09579014 66.95848628 -0.09436715 64.97165961 -0.09336853 62.98483276 C-0.08955857 57.76687337 -0.0797413 52.54894201 -0.06866455 47.33099365 C-0.05841769 42.00191629 -0.0538639 36.67283438 -0.04882812 31.34375 C-0.03811764 20.89581906 -0.02053318 10.44791625 0 0 Z " transform="translate(462,654)" style="fill:#01A8E4;"/><path d="M0 0 C1.12591553 0.00523682 2.25183105 0.01047363 3.41186523 0.01586914 C4.62680664 0.0190918 5.84174805 0.02231445 7.09350586 0.02563477 C8.37290039 0.03401367 9.65229492 0.04239258 10.97045898 0.05102539 C12.2537207 0.05553711 13.53698242 0.06004883 14.85913086 0.06469727 C18.04211921 0.07652994 21.22501661 0.09301471 24.40795898 0.11352539 C27.70987812 6.51147032 30.56600894 13.0363972 33.34545898 19.67602539 C33.82289551 20.81023926 34.30033203 21.94445312 34.79223633 23.11303711 C36.33409313 26.77849882 37.87190064 30.44563138 39.40795898 34.11352539 C39.90473145 35.29962402 40.40150391 36.48572266 40.91333008 37.70776367 C41.4104248 38.8948291 41.90751953 40.08189453 42.41967773 41.30493164 C43.19379395 43.15321387 43.96791057 45.00149592 44.74206543 46.84976196 C45.27198248 48.11527733 45.80168415 49.38088291 46.33117676 50.64657593 C49.74633779 58.80923273 53.18832054 66.95990345 56.66186523 75.09790039 C64.45524088 93.36055724 72.13268707 111.63664434 79.40795898 130.11352539 C69.50795898 130.11352539 59.60795898 130.11352539 49.40795898 130.11352539 C43.97045898 116.23852539 43.97045898 116.23852539 42.2578125 111.86401367 C41.8136499 110.73205566 41.3694873 109.60009766 40.91186523 108.43383789 C40.45626221 107.27126465 40.00065918 106.10869141 39.53125 104.91088867 C38.49377208 102.21705865 38.49377208 102.21705865 37.40795898 100.11352539 C19.25795898 99.78352539 1.10795898 99.45352539 -17.59204102 99.11352539 C-18.58204102 102.08352539 -19.57204102 105.05352539 -20.59204102 108.11352539 C-21.3232568 110.01952143 -22.07420763 111.91818951 -22.85375977 113.80493164 C-23.21171631 114.67577393 -23.56967285 115.54661621 -23.93847656 116.44384766 C-24.60230347 118.04377563 -24.60230347 118.04377563 -25.27954102 119.67602539 C-26.70266602 123.12040039 -28.12579102 126.56477539 -29.59204102 130.11352539 C-38.83204102 130.11352539 -48.07204102 130.11352539 -57.59204102 130.11352539 C-54.22109122 118.87702608 -54.22109122 118.87702608 -52.34985352 114.75805664 C-51.93074707 113.82340576 -51.51164063 112.88875488 -51.07983398 111.92578125 C-50.6301123 110.93586182 -50.18039062 109.94594238 -49.71704102 108.92602539 C-45.51126158 99.51680671 -41.43210706 90.06408943 -37.46704102 80.55102539 C-36.37521009 77.93488206 -35.28267313 75.31903433 -34.18969727 72.70336914 C-33.90689407 72.0265358 -33.62409088 71.34970245 -33.3327179 70.65235901 C-24.87862731 50.44148063 -16.29515962 30.28092926 -7.59204102 10.17602539 C-7.18896729 9.24145508 -6.78589355 8.30688477 -6.37060547 7.34399414 C-6.0105542 6.51641602 -5.65050293 5.68883789 -5.27954102 4.83618164 C-4.9740332 4.13243408 -4.66852539 3.42868652 -4.35375977 2.70361328 C-3.12521884 0.1390341 -3.000669 0.13142235 0 0 Z M9.40795898 29.11352539 C6.8373567 35.60690212 4.27467518 42.10336314 1.7175293 48.60205078 C0.84631389 50.81338519 -0.02672587 53.02400174 -0.90161133 55.23388672 C-2.15737238 58.40674783 -3.40659322 61.58211569 -4.65454102 64.75805664 C-5.24513306 66.24412163 -5.24513306 66.24412163 -5.84765625 67.76020813 C-6.20802979 68.68093613 -6.56840332 69.60166412 -6.93969727 70.55029297 C-7.25946533 71.36081619 -7.5792334 72.17133942 -7.90869141 73.00642395 C-8.74628629 75.21994917 -8.74628629 75.21994917 -8.59204102 78.11352539 C3.94795898 78.11352539 16.48795898 78.11352539 29.40795898 78.11352539 C27.61846456 72.14854399 26.00164955 66.78989811 23.63061523 61.14477539 C23.37799423 60.5389563 23.12537323 59.93313721 22.86509705 59.30895996 C22.07154543 57.40848902 21.27130069 55.51093414 20.47045898 53.61352539 C19.67692867 51.72079425 18.88482232 49.82747179 18.09286499 47.93408203 C17.33436955 46.12112645 16.57454786 44.30872592 15.81469727 42.49633789 C13.96703423 38.05322456 12.17380973 33.58970626 10.40795898 29.11352539 C10.07795898 29.11352539 9.74795898 29.11352539 9.40795898 29.11352539 Z " transform="translate(640.592041015625,653.886474609375)" style="fill:#01A8E4;"/><path d="M0 0 C8.58 0 17.16 0 26 0 C26.01981934 2.41594482 26.03963867 4.83188965 26.06005859 7.32104492 C26.12728613 15.34773906 26.20491879 23.37430905 26.28752708 31.40085888 C26.33724612 36.26224665 26.38357613 41.12361521 26.421875 45.98510742 C26.45903867 50.6860684 26.50547812 55.38685842 26.55806351 60.08767128 C26.57644383 61.87156455 26.59161053 63.65549422 26.60334396 65.43944359 C25.86064151 85.5639841 25.86064151 85.5639841 34 103 C43.16988943 110.2739282 53.75193266 109.95913753 65 109 C68.44467766 108.15524423 71.08025554 106.98791112 74 105 C74.928125 104.4225 75.85625 103.845 76.8125 103.25 C83.15077945 96.73062685 84.14382863 89.1140447 84.20532227 80.37597656 C84.21522186 79.50732468 84.22512146 78.63867279 84.23532104 77.74369812 C84.26687728 74.87603469 84.29167027 72.0083547 84.31640625 69.140625 C84.33698085 67.15093559 84.35797745 65.16125051 84.37937927 63.17156982 C84.43454768 57.93718976 84.48398005 52.70277059 84.53222656 47.46832275 C84.58247976 42.12598189 84.6381459 36.78369775 84.69335938 31.44140625 C84.800877 20.96098418 84.90183593 10.48051386 85 0 C93.91 0 102.82 0 112 0 C112.06806625 11.23197807 112.12298268 22.46381674 112.15543652 33.69595528 C112.1710211 38.91277928 112.19212607 44.12945355 112.22631836 49.34619141 C112.25917092 54.39070968 112.27690706 59.4350849 112.28463173 64.479702 C112.29012913 66.39400353 112.30086267 68.3082982 112.31719017 70.22253799 C112.47146037 89.0774645 110.96105351 105.49094358 97.3828125 119.80859375 C93.87978704 123.03022864 90.348824 125.1145464 86 127 C84.80503906 127.55107422 84.80503906 127.55107422 83.5859375 128.11328125 C67.17015134 134.93252776 44.67604435 135.13507881 28 129 C21.84489768 126.21898372 16.37364231 123.24837078 12 118 C11.52175781 117.46117187 11.04351563 116.92234375 10.55078125 116.3671875 C2.56953582 106.75752676 -0.16553813 95.1724655 -0.11352539 82.98706055 C-0.11367142 82.08900192 -0.11381744 81.1909433 -0.1139679 80.26567078 C-0.11327287 77.30599528 -0.10549965 74.34638321 -0.09765625 71.38671875 C-0.09579061 69.33120254 -0.0943674 67.27568588 -0.09336853 65.22016907 C-0.08955482 59.81642423 -0.0797343 54.41270637 -0.06866455 49.00897217 C-0.0584258 43.49231328 -0.05386563 37.97565003 -0.04882812 32.45898438 C-0.03811101 21.63930917 -0.02052348 10.81966105 0 0 Z " transform="translate(830,654)" style="fill:#01A8E4;"/><path d="M0 0 C35.31 0 70.62 0 107 0 C107 7.26 107 14.52 107 22 C93.8 22 80.6 22 67 22 C67 57.64 67 93.28 67 130 C58.09 130 49.18 130 40 130 C40 94.36 40 58.72 40 22 C31.585 22.495 31.585 22.495 23 23 C18.9913483 23.08270277 15.00630368 23.14216987 11 23.125 C9.55367187 23.13080078 9.55367187 23.13080078 8.078125 23.13671875 C7.16546875 23.13542969 6.2528125 23.13414062 5.3125 23.1328125 C4.10013672 23.13112061 4.10013672 23.13112061 2.86328125 23.12939453 C1 23 1 23 0 22 C0 14.74 0 7.48 0 0 Z " transform="translate(708,654)" style="fill:#01A8E4;"/><path d="M0 0 C0.33 0 0.66 0 1 0 C1.33 17.16 1.66 34.32 2 52 C5.96 52.495 5.96 52.495 10 53 C9.67 53.66 9.34 54.32 9 55 C6.03 55 3.06 55 0 55 C0 36.85 0 18.7 0 0 Z " transform="translate(413,729)" style="fill:#01A8E4;"/><path d="M0 0 C0.33 0 0.66 0 1 0 C1.33 14.19 1.66 28.38 2 43 C-0.31 43 -2.62 43 -5 43 C-5 42.34 -5 41.68 -5 41 C-3.35 41 -1.7 41 0 41 C0 27.47 0 13.94 0 0 Z " transform="translate(438,741)" style="fill:#01A8E4;"/><path d="M0 0 C2 3 2 3 3 6 C0.03 6 -2.94 6 -6 6 C-4 4 -4 4 -1 4 C-0.67 2.68 -0.34 1.36 0 0 Z " transform="translate(717,778)" style="fill:#01A8E4;"/><path d="M0 0 C0.66 0 1.32 0 2 0 C2.33 1.98 2.66 3.96 3 6 C0.03 5.505 0.03 5.505 -3 5 C-2.67 4.34 -2.34 3.68 -2 3 C-1.34 3 -0.68 3 0 3 C0 2.01 0 1.02 0 0 Z " transform="translate(571,603)" style="fill:#01A8E4;"/><path d="M0 0 C1.1875 1.6875 1.1875 1.6875 2 4 C0.625 6.75 0.625 6.75 -1 9 C-1.66 8.67 -2.32 8.34 -3 8 C-2.01 5.36 -1.02 2.72 0 0 Z " transform="translate(595,753)" style="fill:#01A8E4;"/></svg>
