<?xml version="1.0" encoding="utf-8"?>
<!-- Generator: Adobe Illustrator 25.3.1, SVG Export Plug-In . SVG Version: 6.00 Build 0)  -->
<svg version="1.1" id="Layer_1" xmlns="http://www.w3.org/2000/svg" xmlns:xlink="http://www.w3.org/1999/xlink" x="0px" y="0px"
	 viewBox="0 0 239.8 244.2" style="enable-background:new 0 0 239.8 244.2;" xml:space="preserve">
<style type="text/css">
	.st0{fill:url(#SVGID_1_);}
	.st1{fill:url(#SVGID_2_);}
	.st2{fill:url(#SVGID_3_);}
	.st3{fill:url(#SVGID_4_);}
	.st4{fill:url(#SVGID_5_);}
	.st5{fill:url(#SVGID_6_);}
	.st6{fill:url(#SVGID_7_);}
	.st7{fill:url(#SVGID_8_);}
	.st8{fill:#231815;}
</style>
<g>
	<g>
		
			<radialGradient id="SVGID_1_" cx="152.7211" cy="219.7975" r="174.7308" gradientTransform="matrix(0.9896 0 0 -0.9856 -1.152151e-02 239.5213)" gradientUnits="userSpaceOnUse">
			<stop  offset="0" style="stop-color:#F7BFA4"/>
			<stop  offset="5.522288e-02" style="stop-color:#F5A691"/>
			<stop  offset="0.43" style="stop-color:#E60012"/>
			<stop  offset="0.6879" style="stop-color:#E40011"/>
			<stop  offset="0.7913" style="stop-color:#DD0010"/>
			<stop  offset="0.8671" style="stop-color:#D1000D"/>
			<stop  offset="0.9294" style="stop-color:#BF0008"/>
			<stop  offset="0.9828" style="stop-color:#A90002"/>
			<stop  offset="1" style="stop-color:#A00000"/>
		</radialGradient>
		<path class="st0" d="M103.2,141.2c0,0,0.4-0.3,0.2-0.9l0,0C75.2,79,36.7,32.5,36.7,32.5s-21,19.8-19.5,39.7
			c0.8,15,12.1,23.9,12.1,23.9c18.3,17.7,62.5,40.1,72.8,45.2C102.4,141.4,102.9,141.6,103.2,141.2z"/>
		
			<radialGradient id="SVGID_2_" cx="152.7212" cy="219.8146" r="174.741" gradientTransform="matrix(0.9896 0 0 -0.9856 -1.152151e-02 239.5213)" gradientUnits="userSpaceOnUse">
			<stop  offset="0" style="stop-color:#F7BFA4"/>
			<stop  offset="5.522288e-02" style="stop-color:#F5A691"/>
			<stop  offset="0.43" style="stop-color:#E60012"/>
			<stop  offset="0.6879" style="stop-color:#E40011"/>
			<stop  offset="0.7913" style="stop-color:#DD0010"/>
			<stop  offset="0.8671" style="stop-color:#D1000D"/>
			<stop  offset="0.9294" style="stop-color:#BF0008"/>
			<stop  offset="0.9828" style="stop-color:#A90002"/>
			<stop  offset="1" style="stop-color:#A00000"/>
		</radialGradient>
		<path class="st1" d="M96.4,156.4c-0.2-0.7-0.9-0.7-0.9-0.7l0,0l-73.7,2.6c8,14.2,21.4,25.2,35.5,21.8c9.7-2.4,31.6-17.6,38.8-22.8
			l0,0C96.6,156.8,96.4,156.4,96.4,156.4z"/>
		
			<radialGradient id="SVGID_3_" cx="152.7172" cy="219.7933" r="174.7175" gradientTransform="matrix(0.9896 0 0 -0.9856 -1.152151e-02 239.5213)" gradientUnits="userSpaceOnUse">
			<stop  offset="0" style="stop-color:#F7BFA4"/>
			<stop  offset="5.522288e-02" style="stop-color:#F5A691"/>
			<stop  offset="0.43" style="stop-color:#E60012"/>
			<stop  offset="0.6879" style="stop-color:#E40011"/>
			<stop  offset="0.7913" style="stop-color:#DD0010"/>
			<stop  offset="0.8671" style="stop-color:#D1000D"/>
			<stop  offset="0.9294" style="stop-color:#BF0008"/>
			<stop  offset="0.9828" style="stop-color:#A90002"/>
			<stop  offset="1" style="stop-color:#A00000"/>
		</radialGradient>
		<path class="st2" d="M97.5,149.8c0.4-0.6-0.3-1.1-0.3-1.1l0,0C64.8,126.9,2.1,93.5,2.1,93.5c-5.7,17.6,2,31.7,2,31.7
			c8,16.8,23.3,21.9,23.3,21.9c7,2.9,14.1,3.1,14.1,3.1c1.1,0.2,43.8,0,55.3,0C97.2,150.3,97.5,149.8,97.5,149.8z"/>
		
			<radialGradient id="SVGID_4_" cx="152.7123" cy="219.7885" r="174.7214" gradientTransform="matrix(0.9896 0 0 -0.9856 -1.152151e-02 239.5213)" gradientUnits="userSpaceOnUse">
			<stop  offset="0" style="stop-color:#F7BFA4"/>
			<stop  offset="5.522288e-02" style="stop-color:#F5A691"/>
			<stop  offset="0.43" style="stop-color:#E60012"/>
			<stop  offset="0.6879" style="stop-color:#E40011"/>
			<stop  offset="0.7913" style="stop-color:#DD0010"/>
			<stop  offset="0.8671" style="stop-color:#D1000D"/>
			<stop  offset="0.9294" style="stop-color:#BF0008"/>
			<stop  offset="0.9828" style="stop-color:#A90002"/>
			<stop  offset="1" style="stop-color:#A00000"/>
		</radialGradient>
		<path class="st3" d="M102.4,0.9c-3.2,0.3-11.9,2.2-11.9,2.2C71,8.1,66.4,25.8,66.4,25.8c-3.6,11.1,0.1,23.3,0.1,23.3
			c6.5,28.8,38.6,76.1,45.4,86c0.5,0.5,0.9,0.3,0.9,0.3c0.7-0.2,0.7-0.9,0.7-0.9l0,0C124.1,28.8,102.4,0.9,102.4,0.9z"/>
		
			<radialGradient id="SVGID_5_" cx="152.7538" cy="219.7872" r="174.917" gradientTransform="matrix(0.9896 0 0 -0.9856 -1.152151e-02 239.5213)" gradientUnits="userSpaceOnUse">
			<stop  offset="0" style="stop-color:#F7BFA4"/>
			<stop  offset="5.522288e-02" style="stop-color:#F5A691"/>
			<stop  offset="0.43" style="stop-color:#E60012"/>
			<stop  offset="0.6879" style="stop-color:#E40011"/>
			<stop  offset="0.7913" style="stop-color:#DD0010"/>
			<stop  offset="0.8671" style="stop-color:#D1000D"/>
			<stop  offset="0.9294" style="stop-color:#BF0008"/>
			<stop  offset="0.9828" style="stop-color:#A90002"/>
			<stop  offset="1" style="stop-color:#A00000"/>
		</radialGradient>
		<path class="st4" d="M126.8,135.3c0.7,0.3,1.1-0.4,1.1-0.4l0,0c7.1-10.2,38.9-57.2,45.4-85.9c0,0,3.5-13.9,0.1-23.3
			c0,0-4.8-17.9-24.4-22.6c0,0-5.6-1.4-11.6-2.3c0,0-21.8,28-11.2,133.6l0,0C126.3,135.2,126.8,135.3,126.8,135.3z"/>
		
			<radialGradient id="SVGID_6_" cx="152.7529" cy="219.7824" r="174.9013" gradientTransform="matrix(0.9896 0 0 -0.9856 -1.152151e-02 239.5213)" gradientUnits="userSpaceOnUse">
			<stop  offset="0" style="stop-color:#F7BFA4"/>
			<stop  offset="5.522288e-02" style="stop-color:#F5A691"/>
			<stop  offset="0.43" style="stop-color:#E60012"/>
			<stop  offset="0.6879" style="stop-color:#E40011"/>
			<stop  offset="0.7913" style="stop-color:#DD0010"/>
			<stop  offset="0.8671" style="stop-color:#D1000D"/>
			<stop  offset="0.9294" style="stop-color:#BF0008"/>
			<stop  offset="0.9828" style="stop-color:#A90002"/>
			<stop  offset="1" style="stop-color:#A00000"/>
		</radialGradient>
		<path class="st5" d="M144.2,155.7c0,0-0.6,0.1-0.8,0.6c0,0-0.2,0.7,0.3,1l0,0c7.1,5,28.4,19.9,38.7,22.8c0,0,19,6.5,35.6-21.8
			L144.2,155.7L144.2,155.7z"/>
		
			<radialGradient id="SVGID_7_" cx="152.7531" cy="219.7774" r="174.896" gradientTransform="matrix(0.9896 0 0 -0.9856 -1.152151e-02 239.5213)" gradientUnits="userSpaceOnUse">
			<stop  offset="0" style="stop-color:#F7BFA4"/>
			<stop  offset="5.522288e-02" style="stop-color:#F5A691"/>
			<stop  offset="0.43" style="stop-color:#E60012"/>
			<stop  offset="0.6879" style="stop-color:#E40011"/>
			<stop  offset="0.7913" style="stop-color:#DD0010"/>
			<stop  offset="0.8671" style="stop-color:#D1000D"/>
			<stop  offset="0.9294" style="stop-color:#BF0008"/>
			<stop  offset="0.9828" style="stop-color:#A90002"/>
			<stop  offset="1" style="stop-color:#A00000"/>
		</radialGradient>
		<path class="st6" d="M237.6,93.4c0,0-62.6,33.5-95,55.2l0,0c0,0-0.6,0.4-0.4,1.1c0,0,0.3,0.6,0.8,0.6l0,0
			c11.6,0,55.5,0.1,56.6-0.1c0,0,5.7-0.2,12.7-2.9c0,0,15.6-4.9,23.7-22.6C236,124.6,243.2,110.2,237.6,93.4z"/>
		
			<radialGradient id="SVGID_8_" cx="152.753" cy="219.7811" r="174.9024" gradientTransform="matrix(0.9896 0 0 -0.9856 -1.152151e-02 239.5213)" gradientUnits="userSpaceOnUse">
			<stop  offset="0" style="stop-color:#F7BFA4"/>
			<stop  offset="5.522288e-02" style="stop-color:#F5A691"/>
			<stop  offset="0.43" style="stop-color:#E60012"/>
			<stop  offset="0.6879" style="stop-color:#E40011"/>
			<stop  offset="0.7913" style="stop-color:#DD0010"/>
			<stop  offset="0.8671" style="stop-color:#D1000D"/>
			<stop  offset="0.9294" style="stop-color:#BF0008"/>
			<stop  offset="0.9828" style="stop-color:#A90002"/>
			<stop  offset="1" style="stop-color:#A00000"/>
		</radialGradient>
		<path class="st7" d="M136.7,141.2c0,0,0.5,0.4,1,0.1l0,0c10.6-5.2,54.5-27.5,72.7-45.1c0,0,11.5-9.2,12.1-24
			c1.3-20.6-19.4-39.6-19.4-39.6s-38.4,46.3-66.6,107.5l0,0C136.5,140,136.1,140.7,136.7,141.2z"/>
	</g>
	<g>
		<g>
			<polygon class="st8" points="27,220.5 8.6,220.5 8.6,204.3 0.4,204.3 0.4,244.5 8.6,244.5 8.6,228.2 27,228.2 27,244.5 
				35.2,244.5 35.2,204.3 27,204.3 			"/>
			<path class="st8" d="M73.1,227.3c0,6.6-3.3,10-9.2,10s-9.2-3.6-9.2-10.3v-22.8h-8.2v23c0,11.3,6.3,17.8,17.3,17.8
				c11.1,0,17.4-6.6,17.4-18.2v-22.7H73L73.1,227.3L73.1,227.3z"/>
			<polygon class="st8" points="167.6,232 158.4,204.2 151.7,204.2 142.6,232 133.7,204.3 125,204.3 139,244.5 145.8,244.5 
				155,218.1 164.1,244.5 171,244.5 185,204.3 176.5,204.3 			"/>
			<polygon class="st8" points="199.6,227.2 214.5,227.2 214.5,219.9 199.6,219.9 199.6,211.6 221.2,211.6 221.2,204.3 191.6,204.3 
				191.6,244.5 222,244.5 222,237.2 199.6,237.2 			"/>
			<rect x="231.7" y="204.3" class="st8" width="8.1" height="40.2"/>
			<path class="st8" d="M115.9,236.1l3.6,8.4h8.6l-17.7-40.3h-7.2l-17.8,40.3h8.3l3.7-8.4H115.9z M106.6,214.4l6.2,14.4h-12.4
				L106.6,214.4z"/>
		</g>
	</g>
</g>
</svg>
