<?xml version="1.0" encoding="UTF-8" standalone="no"?>
<svg
   xmlns:dc="http://purl.org/dc/elements/1.1/"
   xmlns:cc="http://creativecommons.org/ns#"
   xmlns:rdf="http://www.w3.org/1999/02/22-rdf-syntax-ns#"
   xmlns:svg="http://www.w3.org/2000/svg"
   xmlns="http://www.w3.org/2000/svg"
   xmlns:sodipodi="http://sodipodi.sourceforge.net/DTD/sodipodi-0.dtd"
   xmlns:inkscape="http://www.inkscape.org/namespaces/inkscape"
   version="1.1"
   id="svg2"
   xml:space="preserve"
   width="586.40002"
   height="237.97333"
   viewBox="0 0 586.40002 237.97333"
   sodipodi:docname="Humio_CS_Logos_2021_2Color.eps"><metadata
     id="metadata8"><rdf:RDF><cc:Work
         rdf:about=""><dc:format>image/svg+xml</dc:format><dc:type
           rdf:resource="http://purl.org/dc/dcmitype/StillImage" /></cc:Work></rdf:RDF></metadata><defs
     id="defs6" /><sodipodi:namedview
     pagecolor="#ffffff"
     bordercolor="#666666"
     borderopacity="1"
     objecttolerance="10"
     gridtolerance="10"
     guidetolerance="10"
     inkscape:pageopacity="0"
     inkscape:pageshadow="2"
     inkscape:window-width="640"
     inkscape:window-height="480"
     id="namedview4" /><g
     id="g10"
     inkscape:groupmode="layer"
     inkscape:label="ink_ext_XXXXXX"
     transform="matrix(1.3333333,0,0,-1.3333333,0,237.97333)"><g
       id="g12"
       transform="scale(0.1)"><path
         d="m 1141.13,863.656 v 921.164 h 103.93 v -350.18 c 67.6,39.11 133.42,58.86 197.45,59.25 62.03,0 113.43,-17.72 154.2,-53.16 40.76,-35.46 61.14,-83.44 61.14,-143.97 V 863.656 h -103.94 v 436.014 c 0,67.35 -41.14,101.03 -123.41,101.03 -57.65,0 -119.46,-22.25 -185.44,-66.75 V 863.656 h -103.93"
         style="fill:#254569;fill-opacity:1;fill-rule:nonzero;stroke:none"
         id="path14" /><path
         d="m 1830.5,1050.64 v 424.73 h 103.94 v -428.55 c 0,-34.55 15,-61.277 45.01,-80.16 30.01,-18.894 65.09,-28.328 105.23,-28.328 40.54,0 75.71,9.434 105.52,28.328 29.82,18.883 44.72,45.61 44.72,80.16 v 428.55 h 103.95 v -424.73 c 0,-63.726 -26.17,-113.906 -78.51,-150.542 -52.34,-36.641 -110.99,-54.961 -175.97,-54.961 -64.99,0 -123.55,18.133 -175.69,54.367 -52.14,36.23 -78.2,86.621 -78.2,151.136"
         style="fill:#254569;fill-opacity:1;fill-rule:nonzero;stroke:none"
         id="path16" /><path
         d="m 2516.29,863.656 v 611.714 h 75.21 l 12.84,-34.69 c 45.79,35.47 95.18,53.21 148.16,53.21 31.01,0 62.14,-5.51 93.35,-16.53 31.21,-11.04 55.77,-26.59 73.68,-46.66 47.29,41.74 100.57,62.8 159.81,63.19 48.12,0 92.55,-12.04 133.3,-36.14 40.76,-24.1 61.13,-57.05 61.13,-98.86 V 863.656 H 3169.82 V 1311.5 c 0,59.87 -35.34,89.59 -106.04,89.2 -44.1,0 -82.83,-13.57 -116.19,-40.71 V 863.656 H 2843.65 V 1311.5 c 0,59.87 -35.35,89.59 -106.05,89.2 -45.68,0 -84.8,-13.97 -117.36,-41.91 V 863.656 h -103.95"
         style="fill:#254569;fill-opacity:1;fill-rule:nonzero;stroke:none"
         id="path18" /><path
         d="m 3475.68,863.656 v 611.714 h 103.95 V 863.656 Z m 0,763.454 v 93.19 h 103.95 v -93.19 h -103.95"
         style="fill:#254569;fill-opacity:1;fill-rule:nonzero;stroke:none"
         id="path20" /><path
         d="m 3907.8,1334.09 c -40.77,-44.41 -61.15,-99.27 -61.15,-164.57 0,-65.32 20.38,-120.18 61.15,-164.58 40.77,-44.413 94.95,-66.608 162.57,-66.608 66.81,0 120.81,22.195 161.98,66.608 41.16,44.4 61.74,99.26 61.74,164.58 0,65.3 -20.58,120.16 -61.74,164.57 -41.17,44.41 -95.17,66.61 -161.98,66.61 -67.62,0 -121.8,-22.2 -162.57,-66.61 z m -73.47,-395.156 c -61.08,62.516 -91.62,139.376 -91.62,230.586 0,91.19 30.64,168.06 91.92,230.59 61.29,62.51 139.86,93.78 235.74,93.78 94.94,0 173.28,-31.46 235.04,-94.38 61.75,-62.93 92.62,-139.59 92.62,-229.99 0,-90.41 -30.87,-167.07 -92.62,-229.997 -61.76,-62.929 -140.1,-94.386 -235.04,-94.386 -96.28,0 -174.96,31.261 -236.04,93.797"
         style="fill:#254569;fill-opacity:1;fill-rule:nonzero;stroke:none"
         id="path22" /><path
         d="m 642.113,1522.93 c -39.226,0 -71.16,-31.89 -71.16,-71.12 0,-39.23 31.934,-71.16 71.16,-71.16 39.242,0 71.16,31.93 71.16,71.16 0,39.23 -31.918,71.12 -71.16,71.12"
         style="fill:#254569;fill-opacity:1;fill-rule:nonzero;stroke:none"
         id="path24" /><path
         d="m 642.125,1282.05 c -93.582,0 -169.715,76.18 -169.715,169.76 0,93.58 76.133,169.72 169.715,169.72 93.574,0 169.707,-76.14 169.707,-169.72 0,-93.58 -76.133,-169.76 -169.707,-169.76 z m -189.699,-82.19 -76.559,76.57 c 33.141,21.64 59.828,52.43 76.488,88.75 16.672,-36.36 43.387,-67.16 76.575,-88.8 z m -189.875,82.19 c -93.571,0 -169.7229,76.18 -169.7229,169.76 0,93.58 76.1519,169.72 169.7229,169.72 93.59,0 169.765,-76.14 169.765,-169.72 0,-93.58 -76.175,-169.76 -169.765,-169.76 z m 581.246,117.49 c 4.363,16.81 7.422,34.12 7.422,52.27 0,18.67 -3.242,36.44 -7.864,53.67 v 188.18 l -21.859,-2.43 c -71.937,-7.94 -144.18,-13.25 -216.531,-16.53 -46.914,19.97 -98.508,31.05 -152.625,31.05 -54.137,0 -105.711,-11.08 -152.637,-31.05 -72.351,3.28 -144.594,8.59 -216.5233,16.53 l -21.8672,2.43 v -188.23 c -4.6094,-17.22 -7.8477,-34.97 -7.8477,-53.62 0,-18.16 3.0547,-35.47 7.418,-52.27 C 27.8555,1380.67 1.53125,1340.25 0.0859375,1280.43 -3.09766,1147.99 86.0391,1021.22 86.0391,1021.22 c 7.7265,25.69 22.7499,52.14 39.4529,79.46 33.168,-50.47 77.738,-92.62 129.953,-123.227 -7.078,-0.113 -13.031,-3.976 -16.785,-9.582 -3.824,5.692 -9.875,9.66 -17.094,9.66 h -5.574 c -11.652,0 -21.144,-9.746 -21.144,-21.746 v -68.297 c 0,-12 9.492,-21.75 21.144,-21.75 h 5.574 c 7.219,0 13.27,3.977 17.094,9.664 3.809,-5.687 9.848,-9.664 17.07,-9.664 h 5.629 c 7.188,0 13.243,3.957 17.067,9.621 3.808,-5.664 9.847,-9.621 17.039,-9.621 h 5.633 c 11.652,0 21.144,9.75 21.144,21.75 v 58.946 c 40.774,-14.45 84.434,-22.723 130.098,-22.723 45.664,0 89.32,8.277 130.098,22.727 v -58.95 c 0,-12 9.492,-21.75 21.148,-21.75 h 5.57 c 7.203,0 13.258,3.961 17.082,9.633 3.825,-5.672 9.879,-9.633 17.086,-9.633 h 5.625 c 7.207,0 13.246,3.965 17.055,9.649 3.809,-5.684 9.848,-9.649 17.055,-9.649 h 5.629 c 11.652,0 21.089,9.75 21.089,21.75 v 68.297 c 0,12 -9.437,21.746 -21.089,21.746 h -5.629 c -7.207,0 -13.246,-3.965 -17.055,-9.644 -3.75,5.597 -9.707,9.457 -16.77,9.57 52.215,30.603 96.786,72.763 129.957,123.243 16.7,-27.32 31.735,-53.79 39.454,-79.48 0,0 89.152,126.77 85.968,259.21 -1.437,59.84 -27.789,100.25 -60.816,119.11"
         style="fill:#254569;fill-opacity:1;fill-rule:nonzero;stroke:none"
         id="path26" /><path
         d="m 262.551,1522.93 c -39.223,0 -71.117,-31.89 -71.117,-71.12 0,-39.23 31.894,-71.16 71.117,-71.16 39.222,0 71.164,31.93 71.164,71.16 0,39.23 -31.942,71.12 -71.164,71.12"
         style="fill:#254569;fill-opacity:1;fill-rule:nonzero;stroke:none"
         id="path28" /><path
         d="m 2015.94,550.488 h 73.72 l -24.97,80.352 c -4.67,14.82 -11.3,42.898 -11.3,42.898 h -0.79 c 0,0 -7.01,-28.078 -11.69,-42.898 z m 8.2,176.293 h 58.5 l 98.28,-278.859 h -58.89 l -18.72,59.277 h -100.63 l -18.33,-59.277 h -57.33 l 97.12,278.859"
         style="fill:#ea232c;fill-opacity:1;fill-rule:nonzero;stroke:none"
         id="path30" /><path
         d="m 2252.67,586.379 c 0,82.68 51.48,145.859 133.77,145.859 68.65,0 109.21,-40.949 115.06,-93.988 h -56.17 c -5.06,28.078 -26.12,46.41 -58.89,46.41 -51.48,0 -76.05,-42.898 -76.05,-98.281 0,-56.949 29.64,-97.899 76.44,-97.899 33.15,0 56.56,19.899 60.07,49.141 h 55.38 c -1.56,-24.57 -12.09,-48.359 -30.81,-65.91 -19.11,-17.941 -46.02,-29.641 -84.64,-29.641 -78.39,0 -134.16,60.461 -134.16,144.309"
         style="fill:#ea232c;fill-opacity:1;fill-rule:nonzero;stroke:none"
         id="path32" /><path
         d="m 2578.32,616.02 h 1.17 c 12.09,22.621 25.74,34.32 49.14,34.32 5.85,0 9.36,-0.391 12.48,-1.559 v -46.41 h -1.17 c -34.71,3.508 -59.67,-14.82 -59.67,-56.941 v -97.508 h -53.05 V 648 h 51.1 v -31.98"
         style="fill:#ea232c;fill-opacity:1;fill-rule:nonzero;stroke:none"
         id="path34" /><path
         d="m 2809.59,547.762 c 0,39 -18.33,65.527 -50.7,65.527 -32.76,0 -50.7,-26.527 -50.7,-65.527 0,-38.992 17.94,-65.133 50.7,-65.133 32.37,0 50.7,26.141 50.7,65.133 z m -155.22,0 c 0,59.679 42.51,105.699 104.52,105.699 62.01,0 104.53,-46.02 104.53,-105.699 0,-59.672 -42.52,-105.692 -104.53,-105.692 -62.01,0 -104.52,46.02 -104.52,105.692"
         style="fill:#ea232c;fill-opacity:1;fill-rule:nonzero;stroke:none"
         id="path36" /><path
         d="m 2872.37,648 h 52.65 l 24.18,-92.82 c 4.29,-16.379 8.97,-37.442 8.97,-37.442 h 0.78 c 0,0 4.29,21.453 8.58,37.821 L 2992.49,648 h 45.24 l 26.13,-92.441 c 4.29,-16.758 9.37,-37.821 9.37,-37.821 h 0.77 c 0,0 4.69,21.063 8.98,37.442 l 25.35,92.82 h 51.48 l -59.68,-200.078 h -48.36 l -26.52,98.289 c -4.29,15.98 -8.96,34.699 -8.96,34.699 h -0.78 c 0,0 -5.07,-18.719 -9.37,-34.699 l -27.3,-98.289 h -47.97 L 2872.37,648"
         style="fill:#ea232c;fill-opacity:1;fill-rule:nonzero;stroke:none"
         id="path38" /><path
         d="m 3313.08,546.59 c 0,38.23 -12.48,63.969 -46.41,63.969 -29.25,0 -44.08,-25.739 -44.08,-62.797 0,-38.614 15.22,-61.231 42.51,-61.231 31.6,0 47.98,23.399 47.98,60.059 z m -144.3,1.172 c 0,62.41 35.48,105.699 85.41,105.699 28.08,0 45.63,-12.871 56.55,-29.641 h 1.17 v 102.961 h 53.04 V 447.922 h -51.09 v 26.129 h -0.78 c -11.7,-19.11 -31.59,-31.981 -59.67,-31.981 -50.32,0 -84.63,40.95 -84.63,105.692"
         style="fill:#ea232c;fill-opacity:1;fill-rule:nonzero;stroke:none"
         id="path40" /><path
         d="m 3391.07,534.109 h 55.38 c 3.9,-33.539 23.01,-46.8 62.8,-46.8 28.85,0 54.2,10.14 54.2,35.882 0,27.297 -26.52,32.758 -69.03,42.508 -49.92,11.321 -95.56,24.571 -95.56,82.692 0,54.988 44.86,83.461 106.87,83.461 62.79,0 103.36,-30.813 107.65,-86.973 h -54.21 c -3.13,28.082 -24.96,42.121 -53.83,42.121 -30.42,0 -50.31,-12.871 -50.31,-32.762 0,-22.617 19.5,-29.25 60.85,-38.218 57.32,-12.481 104.13,-26.129 104.13,-86.192 0,-56.558 -45.64,-88.148 -108.43,-88.148 -75.66,0 -118.57,33.539 -120.51,92.429"
         style="fill:#ea232c;fill-opacity:1;fill-rule:nonzero;stroke:none"
         id="path42" /><path
         d="m 3637.94,648 h 27.69 v 62.398 h 51.87 V 648 h 34.32 V 612.898 H 3717.5 V 506.809 c 0,-14.821 8.19,-19.887 19.89,-19.887 6.63,0 15.61,0.387 15.61,0.387 v -39 c 0,0 -12.09,-0.778 -33.16,-0.778 -25.74,0 -54.21,10.141 -54.21,47.969 v 117.398 h -27.69 V 648"
         style="fill:#ea232c;fill-opacity:1;fill-rule:nonzero;stroke:none"
         id="path44" /><path
         d="m 3830.2,616.02 h 1.17 c 12.09,22.621 25.75,34.32 49.14,34.32 5.85,0 9.36,-0.391 12.49,-1.559 v -46.41 h -1.18 c -34.7,3.508 -59.66,-14.82 -59.66,-56.941 v -97.508 h -53.05 V 648 h 51.09 v -31.98"
         style="fill:#ea232c;fill-opacity:1;fill-rule:nonzero;stroke:none"
         id="path46" /><path
         d="m 3916,648 h 53.05 V 447.922 H 3916 Z m 0,78.781 h 53.05 V 679.199 H 3916 v 47.582"
         style="fill:#ea232c;fill-opacity:1;fill-rule:nonzero;stroke:none"
         id="path48" /><path
         d="m 4079.02,539.191 -23.01,-23.8 v -67.469 h -52.65 v 278.859 h 52.65 V 572.34 l 70.98,75.66 h 63.57 l -73.71,-76.059 82.69,-124.019 h -64.36 l -56.16,91.269"
         style="fill:#ea232c;fill-opacity:1;fill-rule:nonzero;stroke:none"
         id="path50" /><path
         d="m 4246.33,569.609 h 88.92 c -1.56,25.352 -18.33,42.903 -42.51,42.903 -28.08,0 -41.73,-16.774 -46.41,-42.903 z m -53.04,-21.449 c 0,59.281 40.16,105.301 98.67,105.301 64.36,0 98.67,-49.141 98.67,-120.512 h -145.09 c 3.91,-30.82 21.07,-49.929 51.1,-49.929 20.67,0 32.76,9.359 38.61,24.57 h 52.27 c -7.42,-35.488 -39.01,-65.52 -90.49,-65.52 -66.3,0 -103.74,46.41 -103.74,106.09"
         style="fill:#ea232c;fill-opacity:1;fill-rule:nonzero;stroke:none"
         id="path52" /><path
         d="m 2757.32,203.98 c 0,82.68 51.49,145.86 133.78,145.86 68.64,0 109.2,-40.949 115.05,-93.988 h -56.16 c -5.07,28.078 -26.14,46.41 -58.89,46.41 -51.48,0 -76.05,-42.903 -76.05,-98.282 0,-56.949 29.63,-97.902 76.43,-97.902 33.16,0 56.55,19.891 60.07,49.141 h 55.38 c -1.56,-24.571 -12.09,-48.36 -30.81,-65.9104 -19.11,-17.9375 -46.03,-29.6367 -84.64,-29.6367 -78.39,0 -134.16,60.4491 -134.16,144.3081"
         style="fill:#ea232c;fill-opacity:1;fill-rule:nonzero;stroke:none"
         id="path54" /><path
         d="m 3177.35,165.359 c 0,39.012 -18.33,65.52 -50.7,65.52 -32.77,0 -50.71,-26.508 -50.71,-65.52 0,-39 17.94,-65.129 50.71,-65.129 32.37,0 50.7,26.129 50.7,65.129 z m -155.22,0 c 0,59.68 42.51,105.7 104.52,105.7 62.01,0 104.52,-46.02 104.52,-105.7 0,-59.668 -42.51,-105.6871 -104.52,-105.6871 -62.01,0 -104.52,46.0191 -104.52,105.6871"
         style="fill:#ea232c;fill-opacity:1;fill-rule:nonzero;stroke:none"
         id="path56" /><path
         d="m 3255.73,265.602 h 51.09 V 238.68 h 1.18 c 10.91,18.34 30.42,32.379 58.11,32.379 25.35,0 45.63,-14.039 55.38,-35.11 h 0.78 c 13.65,21.84 34.71,35.11 60.06,35.11 42.12,0 65.91,-27.297 65.91,-70.989 V 65.5195 H 3495.2 V 191.102 c 0,22.617 -11.31,34.328 -30.81,34.328 -22.23,0 -35.88,-17.168 -35.88,-43.692 V 65.5195 h -53.04 V 191.102 c 0,22.617 -11.31,34.328 -30.81,34.328 -21.46,0 -35.88,-17.168 -35.88,-43.692 V 65.5195 h -53.05 V 265.602"
         style="fill:#ea232c;fill-opacity:1;fill-rule:nonzero;stroke:none"
         id="path58" /><path
         d="m 3725.3,163.801 c 0,37.828 -13.26,64.359 -46.03,64.359 -33.14,0 -46.4,-28.48 -46.4,-64.359 0,-36.27 16.77,-60.063 48.36,-60.063 26.91,0 44.07,22.231 44.07,60.063 z m -144.31,101.801 h 51.1 v -24.961 h 1.17 c 12.87,17.539 31.59,30.418 58.89,30.418 53.04,0 86.97,-43.297 86.97,-105.7 0,-64.738 -35.1,-105.6871 -86.58,-105.6871 -28.08,0 -46.41,11.3086 -57.72,28.4687 h -0.78 V 0 h -53.05 v 265.602"
         style="fill:#ea232c;fill-opacity:1;fill-rule:nonzero;stroke:none"
         id="path60" /><path
         d="m 3923.81,136.109 v 30.032 c -9.36,-5.461 -23.79,-8.582 -37.05,-11.7 -27.7,-6.242 -41.34,-12.48 -41.34,-31.203 0,-18.718 12.48,-25.3474 31.2,-25.3474 30.42,0 47.19,18.7184 47.19,38.2184 z m -0.39,-48.359 h -0.79 c -10.13,-15.2109 -24.57,-26.9102 -58.88,-26.9102 -40.96,0 -69.82,21.4493 -69.82,61.2302 0,44.071 35.88,58.11 80.34,64.352 33.16,4.68 48.36,7.406 48.36,22.617 0,14.43 -11.3,23.789 -33.53,23.789 -24.96,0 -37.05,-8.969 -38.61,-28.078 h -47.2 c 1.56,35.102 27.69,65.922 86.2,65.922 60.06,0 84.24,-26.91 84.24,-73.723 V 95.1602 c 0,-15.211 2.34,-24.1797 7.02,-27.6914 v -1.9493 h -51.09 c -3.12,3.9024 -5.07,13.2618 -6.24,22.2305"
         style="fill:#ea232c;fill-opacity:1;fill-rule:nonzero;stroke:none"
         id="path62" /><path
         d="m 4059.13,238.301 h 1.17 c 13.65,21.449 31.98,32.758 59.28,32.758 41.34,0 69.03,-31.207 69.03,-74.887 V 65.5195 h -53.04 V 188.379 c 0,21.449 -12.48,36.66 -34.71,36.66 -23.4,0 -40.56,-18.73 -40.56,-46.027 V 65.5195 h -53.05 V 265.602 h 51.88 v -27.301"
         style="fill:#ea232c;fill-opacity:1;fill-rule:nonzero;stroke:none"
         id="path64" /><path
         d="m 4225.66,41.7305 h 18.72 c 21.06,0 29.64,10.9179 29.64,27.3008 0,10.9179 -3.91,23.789 -15.21,54.2067 l -53.82,142.364 h 55.77 L 4290.4,175.5 c 6.24,-18.328 12.87,-43.68 12.87,-43.68 h 0.78 c 0,0 5.46,25.352 11.7,43.68 l 28.09,90.102 h 53.42 L 4327.45,60.4492 C 4312.24,15.9883 4297.42,0 4256.86,0 h -31.2 v 41.7305"
         style="fill:#ea232c;fill-opacity:1;fill-rule:nonzero;stroke:none"
         id="path66" /></g></g></svg>
