<?xml version="1.0" encoding="UTF-8"?>
<svg id="Ebene_2" data-name="Ebene 2" xmlns="http://www.w3.org/2000/svg" xmlns:xlink="http://www.w3.org/1999/xlink" viewBox="0 0 2043.74 1273.45">
  <defs>
    <style>
      .cls-1 {
        fill: #241e49;
      }

      .cls-2 {
        fill: none;
        stroke: #241e49;
        stroke-miterlimit: 10;
        stroke-width: 15px;
      }

      .cls-3 {
        clip-path: url(#clippath);
      }
    </style>
    <clipPath id="clippath">
      <circle class="cls-2" cx="1017.85" cy="455.42" r="447.92"/>
    </clipPath>
  </defs>
  <g id="Ebene_1-2" data-name="Ebene 1">
    <g>
      <path class="cls-1" d="M141.02,1101.74v170.01h-34.1v-72.34H34.1v72.34H0v-170.01h34.1v69.9h72.83v-69.9h34.1Z"/>
      <path class="cls-1" d="M407.24,1101.74l-57.48,110.82v59.19h-34.1v-59.19l-57.73-110.82h38.48l36.53,77.7,36.29-77.7h38Z"/>
      <path class="cls-1" d="M642.77,1152.88c-3.9-7.14-9.26-12.58-16.08-16.32-6.82-3.73-14.78-5.6-23.87-5.6-10.07,0-19,2.28-26.79,6.82-7.79,4.55-13.88,11.04-18.27,19.49-4.38,8.44-6.58,18.19-6.58,29.23s2.23,21.27,6.7,29.71c4.46,8.45,10.67,14.94,18.63,19.49,7.95,4.55,17.21,6.82,27.77,6.82,12.99,0,23.63-3.45,31.91-10.35,8.28-6.9,13.72-16.52,16.32-28.86h-58.46v-26.06h92.07v29.71c-2.28,11.85-7.15,22.82-14.61,32.88-7.47,10.07-17.09,18.15-28.86,24.23-11.77,6.09-24.97,9.13-39.58,9.13-16.4,0-31.22-3.69-44.45-11.08-13.24-7.39-23.63-17.66-31.18-30.81-7.55-13.15-11.33-28.09-11.33-44.82s3.78-31.7,11.33-44.94c7.55-13.23,17.94-23.54,31.18-30.93,13.23-7.39,27.97-11.08,44.21-11.08,19.16,0,35.8,4.67,49.93,14.01,14.13,9.34,23.87,22.45,29.23,39.34h-39.21Z"/>
      <path class="cls-1" d="M896.56,1271.74l-37.51-66.25h-16.08v66.25h-34.1v-170.01h63.81c13.15,0,24.36,2.31,33.61,6.94s16.2,10.88,20.82,18.75c4.63,7.88,6.94,16.68,6.94,26.43,0,11.2-3.25,21.31-9.74,30.32-6.5,9.01-16.16,15.22-28.98,18.63l40.68,68.93h-39.46ZM842.97,1179.92h28.5c9.26,0,16.16-2.23,20.7-6.7,4.54-4.46,6.82-10.67,6.82-18.63s-2.28-13.84-6.82-18.15c-4.55-4.3-11.45-6.45-20.7-6.45h-28.5v49.93Z"/>
      <path class="cls-1" d="M1097.5,1262.25c-13.32-7.47-23.87-17.82-31.66-31.05-7.79-13.23-11.69-28.21-11.69-44.94s3.9-31.46,11.69-44.69c7.79-13.23,18.35-23.58,31.66-31.05,13.31-7.47,27.93-11.2,43.84-11.2s30.73,3.74,43.96,11.2c13.23,7.47,23.71,17.82,31.42,31.05,7.71,13.24,11.57,28.13,11.57,44.69s-3.86,31.71-11.57,44.94c-7.71,13.24-18.23,23.59-31.54,31.05-13.32,7.47-27.93,11.2-43.84,11.2s-30.53-3.73-43.84-11.2ZM1168.38,1236.06c7.79-4.63,13.88-11.24,18.27-19.85,4.38-8.6,6.58-18.59,6.58-29.96s-2.19-21.31-6.58-29.84c-4.38-8.52-10.47-15.06-18.27-19.61-7.79-4.54-16.81-6.82-27.04-6.82s-19.28,2.28-27.16,6.82c-7.88,4.55-14.01,11.08-18.39,19.61-4.38,8.52-6.58,18.47-6.58,29.84s2.19,21.35,6.58,29.96c4.38,8.61,10.51,15.22,18.39,19.85,7.87,4.63,16.93,6.94,27.16,6.94s19.24-2.31,27.04-6.94Z"/>
      <path class="cls-1" d="M1384.66,1101.74v105.22c0,11.53,3,20.34,9.01,26.43,6.01,6.09,14.45,9.13,25.33,9.13s19.57-3.04,25.57-9.13c6.01-6.09,9.01-14.9,9.01-26.43v-105.22h34.34v104.98c0,14.45-3.13,26.67-9.38,36.66-6.25,9.99-14.61,17.5-25.09,22.53-10.47,5.04-22.13,7.55-34.95,7.55s-24.15-2.52-34.46-7.55c-10.31-5.03-18.47-12.54-24.48-22.53-6.01-9.99-9.01-22.2-9.01-36.66v-104.98h34.1Z"/>
      <path class="cls-1" d="M1763.65,1271.74h-34.1l-77.21-116.67v116.67h-34.1v-170.25h34.1l77.21,116.91v-116.91h34.1v170.25Z"/>
      <path class="cls-1" d="M2001.24,1112.21c13.56,6.98,24.03,16.93,31.42,29.84,7.39,12.91,11.08,27.89,11.08,44.94s-3.7,31.95-11.08,44.69c-7.39,12.75-17.86,22.61-31.42,29.59-13.56,6.98-29.27,10.47-47.13,10.47h-59.43v-170.01h59.43c17.86,0,33.57,3.49,47.13,10.47ZM1994.3,1228.15c9.74-9.74,14.61-23.46,14.61-41.16s-4.87-31.54-14.61-41.53c-9.74-9.99-23.55-14.98-41.41-14.98h-24.11v112.28h24.11c17.86,0,31.66-4.87,41.41-14.61Z"/>
    </g>
    <g>
      <g class="cls-3">
        <path class="cls-1" d="M1984.76,1472.28l-4.07-2.57-61.73,45.27-2.79-.11-218.89-242.69-314.41-420.33c-84.46-87.79-182.19-168.25-255.04-266.39-1.32-1.78-3.79-4.53-.15-4.05,5.35.71,11.59,5.32,14.03,5.54,2.63.24,7.11-1.55,11.11-1.47,4.35.09,10.78,2.12,13.92,1.56,1.58-.28,8.73-7.72,13.34-9.07,14.36-4.19,20.66,2.13,19.26-19.42-1.45-22.3-9.82-44.23-12.35-66.4l36.93,50.16c7.28-.05.92-37.83.03-43.23-5.59-33.81-15.49-68.07-25.81-100.35l7.66,11.15c1.49-.92.66-4.4.35-5.93-3.34-16.45-23.02-102.4-30.32-110.5-2.59-2.88-6.96-3.83-9.58-7.15-4.24-5.39-6.57-18.62-10.16-26.09-14.41-29.99-37.59-51.32-62.52-72.71-7.92-6.8-23.1-20.26-32.72-23.05-5.41-1.57-11.48-.39-15.48-2.65-3.42-1.93-17.52-21.93-15.76-24.95,13.73-12.05,27.79-19.2,46.48-19.83,11.12-.37,12.09,1.96,12.57,12.63,6.53-7.25,6.77-24.59,1.88-32.54-5.37-8.75-22.73-8.31-30.42-12.8-3.84-2.24-3.97-9.75-14.89-14.39-38.97-16.57-83.41,11.61-109.22,39.54l5.56,2.76-9.74,8.39,5.56,1.37-11.14,11.17,5.56,2.76-12.53,16.76s9.72-1.06,9.72-1.11l-14.56,19.41,6.72-1.12-11.2,14.56,5.97.37s-8.96,11.11-9.2,11.11l4.17,1.37c-18.12,17.11-23.81,45.22-20.55,69.36,2.63,19.44,44.03,96.53,57.64,112.45.8.94,3.91,4.92,4.72,4.32,1.78-3.97.95-8.01,1.42-11.86.24-1.94.72-4.06,2.76-2.07,15.27,33.8,33.53,68.23,36.28,105.95l6.94-8.36c-2.44,5.09,3.78,9.02,4.07,10.64.24,1.36-2.15,3.32-2.58,5.48-.48,2.43.17,4.93-.73,7.63-1.72,5.18-8.88,16.55-14.34,17.88l-2.16.06c-2.56-3.78-10.09-5.04-14.01-3.93-.97.28-.67,2.08-1.93,2.6-3.43,1.41-9.99,3.21-13.41,5.83-12.41,9.47-7.52,25.4-5.1,23.52l2.82-11.14c2.46-1.81,8.87,7.69,8.35,8.34-4.67.35-7.41,3.93-10.48,6.98-49.81,49.55-92.57,116.45-142.08,167.43l-71.98,137.89-54.17-20.76-33.8,107.71-124.48,127.86-140.98,231.27-139.22,43.27-145.24-80.87-3.33.71-182,163.82-308.8,401.54h2685.21l-305.01-348.55ZM960.74,590.54l16.52,57.77-102.35,214.26c-45.13,57.43-92.88,113-139.65,169.15l225.48-441.17ZM992.6,1038.68l-122.13,223.75-177.02,208.46,286.49-501.88c2.19,1.28,1.67,2.99,2.12,4.83,1.87,7.63,11.49,60.92,10.54,64.85ZM989,533.3c4.52-6.18,11.29-7.7,13.93.68l-13.93-.68ZM1025.05,83.1c2.92,0,5.29,2.37,5.29,5.29s-2.37,5.29-5.29,5.29-5.29-2.37-5.29-5.29,2.37-5.29,5.29-5.29ZM1063.98,484.18c-.47,5.41-8.56,25.39-12.94,28.94-5.73,4.66-7.85-.22-12.62.08-1.38.09-7.59.91-9.48,1.16-1.7.23-.63,7.82-12.14,2.27-13.21-6.36-3.51-15.92,2.18-24.47l.7,6.96,7.67-11.14,6.24,5.56,5.62-13.93,5.54,4.18c.72-7.71,6.03-13.71,10.48-19.51l-.7,11.14c3.53,1.16,3.05-5.27,6.91-2.76.49.32,2.67,9.93,2.54,11.5ZM1083.08,489.38l4.89,6.96c-.24-4.61-.3-9.31,3.51-12.54l9.04,39.03c-4.59-.29-6.75-7.14-9.31-8.1-1.14-.43-10.92-1.87-12.31-1.79-3.66.2-4.42,2.93-7.64,2.92-1.02-1.07,7.73-27.52,11.82-26.48ZM1092.16,540.96l-13.92-4.2c.8-1.46,7.03-5.08,8.02-5.32,2.67-.66,4.83.61,7.26,1.24l-1.36,8.28ZM1093.57,542.38c5.47-.8,7.23-6.12,6.98-11.17,1.83-.4,1.65,1.45,2.06,2.77,2.78,8.92,3.34,18.93,6.28,27.88l-15.31-19.49Z"/>
      </g>
      <circle class="cls-2" cx="1017.85" cy="455.42" r="447.92"/>
    </g>
  </g>
</svg>