<svg xmlns="http://www.w3.org/2000/svg" role="img" viewBox="-7.97 34.03 414.18 176.68"><title>IBM Storage logo</title><style>svg {enable-background:new 0 0 400 245}</style><path fill="#4c83c3" d="M398.3 53.5H332l4.1-11.4h62.2zM221.5 42.1h61.6l4 11.5h-65.6c.1-.1 0-11.5 0-11.5zm-48.8 0c10.1 1 19 4.6 26.5 11.5H87.6V42.1h85.1zM0 42.1h77.5v11.4H0zM398.3 75h-73.9l4-11.4h69.9V75zm-103.5 0h-73.3V63.6h69.2zm-87-11.4c1.5 3.8 3.2 7 3.2 11.4H87.6V63.6h120.2zM0 63.6h77.5V75H0zm316.8 32.9l4.1-11.4h55.5v11.4zm-18.5-11.4l4.1 11.4h-59V85.1zM212 85c0 3.9-.5 8-1.6 11.4h-33.8V85H212zm-190.4.1h33.3v11.4H21.6zM110 85h33.3v11.4H110zm166.1 23.8v8.7h-32.8v-11.4h62.4l3.9 10.6 3.7-10.6h62.9v11.4h-32.6v-8.7l-3 8.7H279l-2.9-8.7zM110 106.1h95.5c-2.1 3.8-5.9 8.4-9.5 11.4h-86v-11.4zm-88.4 0h33.3v11.4H21.6zm322.2 21.5h32.6V139h-32.6zm-67.7 0h-32.8V139h32.8c0-.1.1-11.4 0-11.4zm61.1 0c-.1 0-3.8 11.4-4 11.4h-46.4l-4.1-11.4h54.5zm-227.2 0h85.8c3.9 3.3 7.5 7.3 10.2 11.4h-96.1c.1-.1.1-11.4.1-11.4zm-55.1 11.3v-11.4H21.7v11.4h33.2zM343.8 149h32.6v11.4h-32.6zm-100.4 0h32.8v11.4h-32.8zm82.2 11.4c0-.1 4-11.4 4.1-11.4h-39.5c-.1 0 4 11.4 4 11.4s31.4.1 31.4 0zm-215.6 0V149h33.8v11.4H110zM210.8 149c1.6 3.4 1.8 7.5 2.1 11.4h-35.8V149h33.7zm-189.1 0H55v11.4H21.7zm322.1 21h54.5v11.4h-54.5zm-122.3 0h54.6v11.4h-54.6zm96.7 11.4h-16.6l-4-11.4h24.5zM0 170v11.4h77.5V170H0zm211.5 0c-.8 3.8-1.6 8.3-4.3 11.4H87.6V170h123.9zm99.2 32.9h-1.5l-3.9-11.4h9.4zm33.1-11.4h54.5v11.4h-54.5zM87.6 202.9v-11.4h112.2c-7.5 7.2-17.8 11.2-28.9 11.4H87.6m133.9-11.4h54.6v11.4h-54.6zm-144 0v11.4H0v-11.4s77.4.1 77.5 0z"/></svg>