<?xml version="1.0" encoding="UTF-8"?>
<svg width="182px" height="40px" viewBox="0 0 182 40" version="1.1" xmlns="http://www.w3.org/2000/svg" xmlns:xlink="http://www.w3.org/1999/xlink">
    <!-- Generator: Sketch 55.1 (78136) - https://sketchapp.com -->
    <title>Functions-logo-horizontal-Primary</title>
    <desc>Created with Sketch.</desc>
    <g id="Functions-logo-horizontal-Primary" stroke="none" stroke-width="1" fill="none" fill-rule="evenodd">
        <g id="Logo/Primary" transform="translate(10.000000, 10.000000)">
            <g id="IBM-Cloud-Functions-Logo-Primary">
                <path d="M15.8007875,2.53155133 C15.4860506,2.60105286 15.09125,2.85700537 14.879375,3.38450537 C14.635625,3.98888037 14.5125,4.89825537 14.44625,5.83450537 L14.964375,5.93763037 C15.261875,5.99513037 16.745625,6.37638037 16.75375,8.26763037 C16.76125,10.1613804 15.28125,10.5551304 14.998125,10.6120054 L14.344375,10.7482554 C14.209375,14.5601304 13.050625,17.4388804 10.8925,19.3151304 C10.80375,19.3920054 10.71375,19.4620054 10.625,19.5332554 C12.888125,19.3613804 15.1025,18.4276304 16.83375,16.6970054 C20.6825,12.8488804 20.6825,6.60888037 16.83375,2.76013037 C16.776875,2.70325537 16.3810684,2.40341128 15.8007875,2.53155133 Z" id="Fill-1-Copy-3" fill="#50E3C2"></path>
                <path d="M5.3628125,10.826875 L4.7465625,10.70125 C4.4490625,10.643125 2.9665625,10.255 2.9665625,8.363125 C2.9665625,6.47 4.4496875,6.083125 4.7334375,6.026875 L5.7353125,5.8225 C6.2440625,3.444375 7.2815625,1.5625 8.8290625,0.2175 C8.9171875,0.14125 9.0065625,0.07125 9.0959375,0 C6.8328125,0.1725 4.6171875,1.10625 2.8865625,2.83625 C-0.871882322,6.59530516 -0.960068624,12.6335205 2.62200359,16.4983658 C3.11843001,16.9685517 4.62174198,16.7333535 4.9721875,15.76125 C5.2890625,14.62125 5.3509375,12.748125 5.3628125,10.826875 Z" id="Fill-4-Copy-3" fill="#50E3C2"></path>
                <path d="M4.07962411,19.65875 C4.11837411,19.665 4.42462411,19.709375 4.89899911,19.709375 C5.98212411,19.709375 7.94212411,19.476875 9.61212411,18.02625 C11.5327491,16.35625 12.4802491,13.59625 12.4302491,9.826875 L12.4302491,9.61375 C12.4302491,9.523125 12.4308741,9.4375 12.4308741,9.348125 L14.5639991,8.9025 C14.8171241,8.851875 14.8289991,8.65125 14.8277491,8.40125 C14.8271241,8.151875 14.8121241,7.953125 14.5589991,7.904375 L12.4527491,7.48625 C12.5483741,3.496875 13.0464991,1.135 15.4764991,1.1025 C15.7508741,1.09875 15.7858741,0.884375 15.8058741,0.610625 C15.8246241,0.33625 15.8214991,0.093125 15.5496241,0.05125 C15.5121241,0.045 15.2058741,0 14.7314991,0 C13.6489991,0 11.6877491,0.2325 10.0183741,1.6825 C8.54024911,2.968125 7.64462411,4.9075 7.33024911,7.4525 L5.06837411,7.91375 C4.81524911,7.96375 4.80149911,8.1625 4.80149911,8.413125 C4.80149911,8.6625 4.81524911,8.861875 5.06837411,8.911875 L7.21149911,9.348125 C7.20899911,9.52875 7.19837411,9.7 7.20024911,9.885 L7.20024911,10.090625 C7.19649911,15.365 6.98962411,18.569375 4.15337411,18.6075 C3.87837411,18.61125 3.77212411,18.825625 3.75274911,19.09875 C3.73399911,19.37375 3.80774911,19.616875 4.07962411,19.65875" id="Fill-7-Copy-2" fill="#236B5B"></path>
            </g>
        </g>
        <path d="M38.84,25 L38.84,24.02 L40.212,24.02 L40.212,16.208 L38.84,16.208 L38.84,15.228 L42.76,15.228 L42.76,16.208 L41.388,16.208 L41.388,24.02 L42.76,24.02 L42.76,25 L38.84,25 Z M44.902,15.228 L48.92,15.228 C49.7320041,15.228 50.3689977,15.4566644 50.831,15.914 C51.2930023,16.3713356 51.524,16.9826628 51.524,17.748 C51.524,18.1120018 51.4726672,18.4199987 51.37,18.672 C51.2673328,18.9240013 51.1366675,19.1316659 50.978,19.295 C50.8193325,19.4583341 50.6466676,19.5796663 50.46,19.659 C50.2733324,19.7383337 50.1006675,19.7919999 49.942,19.82 L49.942,19.904 C50.1193342,19.9133334 50.3176656,19.9599996 50.537,20.044 C50.7563344,20.1280004 50.963999,20.2609991 51.16,20.443 C51.356001,20.6250009 51.521666,20.8583319 51.657,21.143 C51.792334,21.4276681 51.86,21.7706647 51.86,22.172 C51.86,22.5733353 51.7970006,22.9466649 51.671,23.292 C51.5449994,23.6373351 51.3700011,23.9359987 51.146,24.188 C50.9219989,24.4400013 50.6560015,24.6383326 50.348,24.783 C50.0399985,24.9276674 49.7040018,25 49.34,25 L44.902,25 L44.902,15.228 Z M46.078,23.964 L48.976,23.964 C49.4800025,23.964 49.8766652,23.835668 50.166,23.579 C50.4553348,23.322332 50.6,22.9466691 50.6,22.452 L50.6,21.976 C50.6,21.4813309 50.4553348,21.105668 50.166,20.849 C49.8766652,20.592332 49.4800025,20.464 48.976,20.464 L46.078,20.464 L46.078,23.964 Z M46.078,19.456 L48.78,19.456 C49.246669,19.456 49.6106654,19.3393345 49.872,19.106 C50.1333346,18.8726655 50.264,18.5366689 50.264,18.098 L50.264,17.622 C50.264,17.1833311 50.1333346,16.8473345 49.872,16.614 C49.6106654,16.3806655 49.246669,16.264 48.78,16.264 L46.078,16.264 L46.078,19.456 Z M61.646,16.768 L61.576,16.768 L60.75,18.406 L58.412,22.662 L56.088,18.406 L55.262,16.782 L55.192,16.782 L55.192,25 L54.044,25 L54.044,15.228 L55.584,15.228 L58.384,20.492 L58.44,20.492 L61.254,15.228 L62.794,15.228 L62.794,25 L61.646,25 L61.646,16.768 Z M72.342,25.168 C71.6979968,25.168 71.1170026,25.0630011 70.599,24.853 C70.0809974,24.6429989 69.6376685,24.3280021 69.269,23.908 C68.9003315,23.4879979 68.618001,22.9676698 68.422,22.347 C68.225999,21.7263302 68.128,21.0053374 68.128,20.184 C68.128,19.3626626 68.225999,18.6323365 68.422,17.993 C68.618001,17.3536635 68.9003315,16.8170022 69.269,16.383 C69.6376685,15.9489978 70.0809974,15.6200011 70.599,15.396 C71.1170026,15.1719989 71.6979968,15.06 72.342,15.06 C73.2193377,15.06 73.9473304,15.2466648 74.526,15.62 C75.1046696,15.9933352 75.5666649,16.5579962 75.912,17.314 L74.33,18.154 C74.1899993,17.7153311 73.9613349,17.3630013 73.644,17.097 C73.3266651,16.8309987 72.8926694,16.698 72.342,16.698 C71.6513299,16.698 71.103002,16.931331 70.697,17.398 C70.290998,17.864669 70.088,18.5179958 70.088,19.358 L70.088,20.898 C70.088,21.7473376 70.290998,22.3983311 70.697,22.851 C71.103002,23.3036689 71.6513299,23.53 72.342,23.53 C72.8926694,23.53 73.3429983,23.3806682 73.693,23.082 C74.0430018,22.7833318 74.2973325,22.4146689 74.456,21.976 L75.954,22.858 C75.5993316,23.5860036 75.128,24.152998 74.54,24.559 C73.9519971,24.965002 73.2193377,25.168 72.342,25.168 Z M79.216,25 C78.5999969,25 78.1473348,24.8460015 77.858,24.538 C77.5686652,24.2299985 77.424,23.7960028 77.424,23.236 L77.424,14.64 L79.216,14.64 L79.216,23.572 L80.182,23.572 L80.182,25 L79.216,25 Z M84.438,25.168 C83.9153307,25.168 83.4463354,25.0793342 83.031,24.902 C82.6156646,24.7246658 82.2610015,24.4680017 81.967,24.132 C81.6729985,23.7959983 81.4466675,23.3923357 81.288,22.921 C81.1293325,22.4496643 81.05,21.9200029 81.05,21.332 C81.05,20.7439971 81.1293325,20.216669 81.288,19.75 C81.4466675,19.283331 81.6729985,18.884335 81.967,18.553 C82.2610015,18.221665 82.6156646,17.9673342 83.031,17.79 C83.4463354,17.6126658 83.9153307,17.524 84.438,17.524 C84.9606693,17.524 85.4319979,17.6126658 85.852,17.79 C86.2720021,17.9673342 86.6289985,18.221665 86.923,18.553 C87.2170015,18.884335 87.4433325,19.283331 87.602,19.75 C87.7606675,20.216669 87.84,20.7439971 87.84,21.332 C87.84,21.9200029 87.7606675,22.4496643 87.602,22.921 C87.4433325,23.3923357 87.2170015,23.7959983 86.923,24.132 C86.6289985,24.4680017 86.2720021,24.7246658 85.852,24.902 C85.4319979,25.0793342 84.9606693,25.168 84.438,25.168 Z M84.438,23.726 C84.9140024,23.726 85.287332,23.5813348 85.558,23.292 C85.828668,23.0026652 85.964,22.5780028 85.964,22.018 L85.964,20.66 C85.964,20.1093306 85.828668,19.6893348 85.558,19.4 C85.287332,19.1106652 84.9140024,18.966 84.438,18.966 C83.971331,18.966 83.602668,19.1106652 83.332,19.4 C83.061332,19.6893348 82.926,20.1093306 82.926,20.66 L82.926,22.018 C82.926,22.5780028 83.061332,23.0026652 83.332,23.292 C83.602668,23.5813348 83.971331,23.726 84.438,23.726 Z M93.79,23.782 L93.72,23.782 C93.6546663,23.9686676 93.5683339,24.1436659 93.461,24.307 C93.3536661,24.4703341 93.2183342,24.6173327 93.055,24.748 C92.8916659,24.8786673 92.6956678,24.981333 92.467,25.056 C92.2383322,25.130667 91.9746682,25.168 91.676,25.168 C90.9199962,25.168 90.3413353,24.9206691 89.94,24.426 C89.5386647,23.9313309 89.338,23.2266712 89.338,22.312 L89.338,17.692 L91.13,17.692 L91.13,22.13 C91.13,22.6340025 91.227999,23.0189987 91.424,23.285 C91.620001,23.5510013 91.9326645,23.684 92.362,23.684 C92.5393342,23.684 92.7143325,23.6606669 92.887,23.614 C93.0596675,23.5673331 93.2113327,23.4950005 93.342,23.397 C93.4726673,23.2989995 93.5799996,23.1776674 93.664,23.033 C93.7480004,22.8883326 93.79,22.718001 93.79,22.522 L93.79,17.692 L95.582,17.692 L95.582,25 L93.79,25 L93.79,23.782 Z M102.19,23.782 L102.12,23.782 C101.989333,24.2020021 101.742002,24.5379987 101.378,24.79 C101.013998,25.0420013 100.589336,25.168 100.104,25.168 C99.1799954,25.168 98.4730024,24.83667 97.983,24.174 C97.4929976,23.51133 97.248,22.5640062 97.248,21.332 C97.248,20.1093272 97.4929976,19.1690033 97.983,18.511 C98.4730024,17.8529967 99.1799954,17.524 100.104,17.524 C100.589336,17.524 101.013998,17.6476654 101.378,17.895 C101.742002,18.1423346 101.989333,18.4759979 102.12,18.896 L102.19,18.896 L102.19,14.64 L103.982,14.64 L103.982,25 L102.19,25 L102.19,23.782 Z M100.678,23.684 C101.107335,23.684 101.466665,23.5813344 101.756,23.376 C102.045335,23.1706656 102.19,22.8766686 102.19,22.494 L102.19,20.17 C102.19,19.8153316 102.045335,19.5306677 101.756,19.316 C101.466665,19.1013323 101.107335,18.994 100.678,18.994 C100.211331,18.994 99.8356681,19.1503318 99.551,19.463 C99.2663319,19.7756682 99.124,20.1933307 99.124,20.716 L99.124,21.976 C99.124,22.4986693 99.2663319,22.9139985 99.551,23.222 C99.8356681,23.5300015 100.211331,23.684 100.678,23.684 Z M109.47,25 L109.47,15.228 L115.756,15.228 L115.756,16.866 L111.318,16.866 L111.318,19.232 L115.182,19.232 L115.182,20.87 L111.318,20.87 L111.318,25 L109.47,25 Z M121.454,23.782 L121.384,23.782 C121.318666,23.9686676 121.232334,24.1436659 121.125,24.307 C121.017666,24.4703341 120.882334,24.6173327 120.719,24.748 C120.555666,24.8786673 120.359668,24.981333 120.131,25.056 C119.902332,25.130667 119.638668,25.168 119.34,25.168 C118.583996,25.168 118.005335,24.9206691 117.604,24.426 C117.202665,23.9313309 117.002,23.2266712 117.002,22.312 L117.002,17.692 L118.794,17.692 L118.794,22.13 C118.794,22.6340025 118.891999,23.0189987 119.088,23.285 C119.284001,23.5510013 119.596665,23.684 120.026,23.684 C120.203334,23.684 120.378332,23.6606669 120.551,23.614 C120.723668,23.5673331 120.875333,23.4950005 121.006,23.397 C121.136667,23.2989995 121.244,23.1776674 121.328,23.033 C121.412,22.8883326 121.454,22.718001 121.454,22.522 L121.454,17.692 L123.246,17.692 L123.246,25 L121.454,25 L121.454,23.782 Z M125.318,25 L125.318,17.692 L127.11,17.692 L127.11,18.91 L127.18,18.91 C127.329334,18.517998 127.564998,18.1890013 127.887,17.923 C128.209002,17.6569987 128.654664,17.524 129.224,17.524 C129.980004,17.524 130.558665,17.7713309 130.96,18.266 C131.361335,18.7606691 131.562,19.4653288 131.562,20.38 L131.562,25 L129.77,25 L129.77,20.562 C129.77,20.0393307 129.676668,19.6473346 129.49,19.386 C129.303332,19.1246654 128.995335,18.994 128.566,18.994 C128.379332,18.994 128.199668,19.0196664 128.027,19.071 C127.854332,19.1223336 127.700334,19.1969995 127.565,19.295 C127.429666,19.3930005 127.32,19.5143326 127.236,19.659 C127.152,19.8036674 127.11,19.973999 127.11,20.17 L127.11,25 L125.318,25 Z M136.434,25.168 C135.892664,25.168 135.412002,25.0793342 134.992,24.902 C134.571998,24.7246658 134.219668,24.4680017 133.935,24.132 C133.650332,23.7959983 133.433334,23.3923357 133.284,22.921 C133.134666,22.4496643 133.06,21.9200029 133.06,21.332 C133.06,20.7439971 133.134666,20.216669 133.284,19.75 C133.433334,19.283331 133.650332,18.884335 133.935,18.553 C134.219668,18.221665 134.571998,17.9673342 134.992,17.79 C135.412002,17.6126658 135.892664,17.524 136.434,17.524 C137.171337,17.524 137.780331,17.6873317 138.261,18.014 C138.741669,18.3406683 139.089332,18.7933304 139.304,19.372 L137.834,20.03 C137.75,19.7219985 137.593668,19.4676677 137.365,19.267 C137.136332,19.0663323 136.826002,18.966 136.434,18.966 C135.929997,18.966 135.554335,19.1246651 135.307,19.442 C135.059665,19.7593349 134.936,20.1746641 134.936,20.688 L134.936,22.018 C134.936,22.5313359 135.059665,22.9443318 135.307,23.257 C135.554335,23.5696682 135.929997,23.726 136.434,23.726 C136.863335,23.726 137.194666,23.6163344 137.428,23.397 C137.661334,23.1776656 137.843333,22.9046683 137.974,22.578 L139.346,23.236 C139.103332,23.8800032 138.734669,24.3629984 138.24,24.685 C137.745331,25.0070016 137.143337,25.168 136.434,25.168 Z M143.014,25 C142.397997,25 141.929002,24.8390016 141.607,24.517 C141.284998,24.1949984 141.124,23.7353363 141.124,23.138 L141.124,19.106 L140.046,19.106 L140.046,17.692 L140.606,17.692 C140.876668,17.692 141.061,17.6290006 141.159,17.503 C141.257,17.3769994 141.306,17.1880013 141.306,16.936 L141.306,15.69 L142.916,15.69 L142.916,17.692 L144.414,17.692 L144.414,19.106 L142.916,19.106 L142.916,23.572 L144.302,23.572 L144.302,25 L143.014,25 Z M146.864,16.628 C146.490665,16.628 146.222334,16.5440008 146.059,16.376 C145.895666,16.2079992 145.814,15.9933346 145.814,15.732 L145.814,15.452 C145.814,15.1906654 145.895666,14.9760008 146.059,14.808 C146.222334,14.6399992 146.490665,14.556 146.864,14.556 C147.228002,14.556 147.493999,14.6399992 147.662,14.808 C147.830001,14.9760008 147.914,15.1906654 147.914,15.452 L147.914,15.732 C147.914,15.9933346 147.830001,16.2079992 147.662,16.376 C147.493999,16.5440008 147.228002,16.628 146.864,16.628 Z M145.968,17.692 L147.76,17.692 L147.76,25 L145.968,25 L145.968,17.692 Z M152.73,25.168 C152.207331,25.168 151.738335,25.0793342 151.323,24.902 C150.907665,24.7246658 150.553001,24.4680017 150.259,24.132 C149.964999,23.7959983 149.738667,23.3923357 149.58,22.921 C149.421333,22.4496643 149.342,21.9200029 149.342,21.332 C149.342,20.7439971 149.421333,20.216669 149.58,19.75 C149.738667,19.283331 149.964999,18.884335 150.259,18.553 C150.553001,18.221665 150.907665,17.9673342 151.323,17.79 C151.738335,17.6126658 152.207331,17.524 152.73,17.524 C153.252669,17.524 153.723998,17.6126658 154.144,17.79 C154.564002,17.9673342 154.920999,18.221665 155.215,18.553 C155.509001,18.884335 155.735333,19.283331 155.894,19.75 C156.052667,20.216669 156.132,20.7439971 156.132,21.332 C156.132,21.9200029 156.052667,22.4496643 155.894,22.921 C155.735333,23.3923357 155.509001,23.7959983 155.215,24.132 C154.920999,24.4680017 154.564002,24.7246658 154.144,24.902 C153.723998,25.0793342 153.252669,25.168 152.73,25.168 Z M152.73,23.726 C153.206002,23.726 153.579332,23.5813348 153.85,23.292 C154.120668,23.0026652 154.256,22.5780028 154.256,22.018 L154.256,20.66 C154.256,20.1093306 154.120668,19.6893348 153.85,19.4 C153.579332,19.1106652 153.206002,18.966 152.73,18.966 C152.263331,18.966 151.894668,19.1106652 151.624,19.4 C151.353332,19.6893348 151.218,20.1093306 151.218,20.66 L151.218,22.018 C151.218,22.5780028 151.353332,23.0026652 151.624,23.292 C151.894668,23.5813348 152.263331,23.726 152.73,23.726 Z M157.714,25 L157.714,17.692 L159.506,17.692 L159.506,18.91 L159.576,18.91 C159.725334,18.517998 159.960998,18.1890013 160.283,17.923 C160.605002,17.6569987 161.050664,17.524 161.62,17.524 C162.376004,17.524 162.954665,17.7713309 163.356,18.266 C163.757335,18.7606691 163.958,19.4653288 163.958,20.38 L163.958,25 L162.166,25 L162.166,20.562 C162.166,20.0393307 162.072668,19.6473346 161.886,19.386 C161.699332,19.1246654 161.391335,18.994 160.962,18.994 C160.775332,18.994 160.595668,19.0196664 160.423,19.071 C160.250332,19.1223336 160.096334,19.1969995 159.961,19.295 C159.825666,19.3930005 159.716,19.5143326 159.632,19.659 C159.548,19.8036674 159.506,19.973999 159.506,20.17 L159.506,25 L157.714,25 Z M168.34,25.168 C167.639997,25.168 167.052002,25.0490012 166.576,24.811 C166.099998,24.5729988 165.680002,24.2440021 165.316,23.824 L166.408,22.76 C166.678668,23.0680015 166.974998,23.3106658 167.297,23.488 C167.619002,23.6653342 167.989998,23.754 168.41,23.754 C168.839335,23.754 169.149666,23.6793341 169.341,23.53 C169.532334,23.3806659 169.628,23.1753346 169.628,22.914 C169.628,22.6993323 169.560334,22.5290006 169.425,22.403 C169.289666,22.2769994 169.058668,22.1906669 168.732,22.144 L168.004,22.046 C167.210663,21.9433328 166.606335,21.7170018 166.191,21.367 C165.775665,21.0169983 165.568,20.5060034 165.568,19.834 C165.568,19.4793316 165.633333,19.1596681 165.764,18.875 C165.894667,18.5903319 166.081332,18.3476677 166.324,18.147 C166.566668,17.9463323 166.858332,17.7923339 167.199,17.685 C167.539668,17.5776661 167.919998,17.524 168.34,17.524 C168.694668,17.524 169.009665,17.5496664 169.285,17.601 C169.560335,17.6523336 169.809999,17.7269995 170.034,17.825 C170.258001,17.9230005 170.463332,18.0443326 170.65,18.189 C170.836668,18.3336674 171.018666,18.4946658 171.196,18.672 L170.146,19.722 C169.931332,19.4979989 169.674668,19.3113341 169.376,19.162 C169.077332,19.0126659 168.750668,18.938 168.396,18.938 C168.003998,18.938 167.721668,19.0079993 167.549,19.148 C167.376332,19.2880007 167.29,19.4699989 167.29,19.694 C167.29,19.9366679 167.362333,20.1209994 167.507,20.247 C167.651667,20.3730006 167.896665,20.4639997 168.242,20.52 L168.984,20.618 C170.561341,20.8420011 171.35,21.5606606 171.35,22.774 C171.35,23.1286684 171.277667,23.4529985 171.133,23.747 C170.988333,24.0410015 170.785335,24.292999 170.524,24.503 C170.262665,24.713001 169.947669,24.8763327 169.579,24.993 C169.210331,25.1096673 168.797336,25.168 168.34,25.168 Z" id="IBMCloudFunctions" fill="#171717" fill-rule="nonzero"></path>
    </g>
</svg>
