<?xml version="1.0" encoding="UTF-8"?>
<svg width="288px" height="288px" viewBox="0 0 288 288" version="1.1" xmlns="http://www.w3.org/2000/svg" xmlns:xlink="http://www.w3.org/1999/xlink">
    <!-- Generator: Sketch 51.3 (57544) - http://www.bohemiancoding.com/sketch -->
    <title>Group 107</title>
    <desc>Created with Sketch.</desc>
    <defs></defs>
    <g id="Desktop" stroke="none" stroke-width="1" fill="none" fill-rule="evenodd">
        <g id="Icons-Copy-4" transform="translate(-352.000000, -4917.000000)">
            <g id="Group-107" transform="translate(352.000000, 4917.000000)">
                <g id="Group-48-Copy-3" fill="#FFFFFF">
                    <rect id="Rectangle-5-Copy-10" x="0" y="0" width="288" height="288"></rect>
                </g>
                <g id="Group-89" transform="translate(63.000000, 112.000000)" fill="#054ADA" fill-rule="nonzero">
                    <polygon id="Rectangle-path" points="0 60.4746835 31.5106545 60.4746835 31.5106545 65 0 65"></polygon>
                    <polygon id="Rectangle-path" points="0 51.835443 31.5106545 51.835443 31.5106545 56.3607595 0 56.3607595"></polygon>
                    <polygon id="Rectangle-path" points="9.00304414 43.1962025 22.5076104 43.1962025 22.5076104 47.721519 9.00304414 47.721519"></polygon>
                    <polygon id="Rectangle-path" points="9.00304414 34.556962 22.5076104 34.556962 22.5076104 39.0822785 9.00304414 39.0822785"></polygon>
                    <polygon id="Rectangle-path" points="9.00304414 25.9177215 22.5076104 25.9177215 22.5076104 30.443038 9.00304414 30.443038"></polygon>
                    <polygon id="Rectangle-path" points="9.00304414 17.278481 22.5076104 17.278481 22.5076104 21.8037975 9.00304414 21.8037975"></polygon>
                    <rect id="Rectangle-path" x="0" y="8.63924051" width="31.5106545" height="4.52531646"></rect>
                    <rect id="Rectangle-path" x="0" y="0" width="31.5106545" height="4.52531646"></rect>
                    <path d="M36.0121766,56.3607595 L84.4649232,56.3607595 C85.2833818,54.9620253 85.8972257,53.4398734 86.265532,51.835443 L36.0121766,51.835443 L36.0121766,56.3607595 Z" id="Shape"></path>
                    <path d="M80.7000138,34.556962 L45.0152207,34.556962 L45.0152207,39.0822785 L84.4649232,39.0822785 C83.44185,37.3544304 82.1732392,35.8322785 80.7000138,34.556962 Z" id="Shape"></path>
                    <path d="M45.0152207,25.9177215 L45.0152207,30.443038 L80.7000138,30.443038 C82.2141622,29.1677215 83.4827729,27.6455696 84.4649232,25.9177215 L45.0152207,25.9177215 Z" id="Shape"></path>
                    <path d="M84.4649232,8.63924051 L36.0121766,8.63924051 L36.0121766,13.164557 L86.265532,13.164557 C85.8563028,11.5601266 85.2424588,10.0379747 84.4649232,8.63924051 Z" id="Shape"></path>
                    <path d="M69.5689774,0 L36.0121766,0 L36.0121766,4.52531646 L81.150166,4.52531646 C78.1218694,1.7278481 74.0295766,0 69.5689774,0 Z" id="Shape"></path>
                    <rect id="Rectangle-path" x="45.0152207" y="17.278481" width="13.5045662" height="4.52531646"></rect>
                    <path d="M72.0243531,21.8037975 L86.1427632,21.8037975 C86.5519925,20.3639241 86.7566072,18.8417722 86.7566072,17.278481 L72.0243531,17.278481 L72.0243531,21.8037975 Z" id="Shape"></path>
                    <polygon id="Rectangle-path" points="45.0152207 43.1962025 58.5197869 43.1962025 58.5197869 47.721519 45.0152207 47.721519"></polygon>
                    <path d="M72.0243531,43.1962025 L72.0243531,47.721519 L86.7566072,47.721519 C86.7566072,46.1582278 86.5519925,44.6360759 86.1427632,43.1962025 L72.0243531,43.1962025 Z" id="Shape"></path>
                    <path d="M36.0121766,64.9588608 L69.5689774,65 C74.0704995,65 78.1218694,63.2721519 81.150166,60.4746835 L36.0121766,60.4746835 L36.0121766,64.9588608 Z" id="Shape"></path>
                    <polygon id="Rectangle-path" points="90.0304414 60.4746835 112.538052 60.4746835 112.538052 65 90.0304414 65"></polygon>
                    <polygon id="Rectangle-path" points="90.0304414 51.835443 112.538052 51.835443 112.538052 56.3607595 90.0304414 56.3607595"></polygon>
                    <polygon id="Rectangle-path" points="99.0334855 43.1962025 112.538052 43.1962025 112.538052 47.721519 99.0334855 47.721519"></polygon>
                    <polygon id="Rectangle-path" points="99.0334855 34.556962 112.538052 34.556962 112.538052 39.0822785 99.0334855 39.0822785"></polygon>
                    <polygon id="Shape" points="118.79926 8.63924051 90.0304414 8.63924051 90.0304414 13.164557 120.354331 13.164557"></polygon>
                    <polygon id="Shape" points="115.811886 0 90.0304414 0 90.0304414 4.52531646 117.366957 4.52531646"></polygon>
                    <polygon id="Rectangle-path" points="139.547184 60.4746835 162.054795 60.4746835 162.054795 65 139.547184 65"></polygon>
                    <polygon id="Rectangle-path" points="139.547184 51.835443 162.054795 51.835443 162.054795 56.3607595 139.547184 56.3607595"></polygon>
                    <polygon id="Rectangle-path" points="139.547184 43.1962025 153.05175 43.1962025 153.05175 47.721519 139.547184 47.721519"></polygon>
                    <polygon id="Rectangle-path" points="139.547184 34.556962 153.05175 34.556962 153.05175 39.0822785 139.547184 39.0822785"></polygon>
                    <polygon id="Shape" points="139.547184 30.443038 153.05175 30.443038 153.05175 25.9177215 139.547184 25.9177215 139.547184 25.9177215 127.311229 25.9177215 126.042618 29.5791139 124.774007 25.9177215 112.538052 25.9177215 112.538052 25.9177215 99.0334855 25.9177215 99.0334855 30.443038 112.538052 30.443038 112.538052 26.2879747 113.970354 30.443038 138.114882 30.443038 139.547184 26.2879747"></polygon>
                    <polygon id="Shape" points="153.05175 17.278481 130.298602 17.278481 128.743531 21.8037975 153.05175 21.8037975"></polygon>
                    <polygon id="Shape" points="136.27335 0 134.718279 4.52531646 162.054795 4.52531646 162.054795 0"></polygon>
                    <polygon id="Shape" points="126.042618 64.9588608 127.597689 60.4746835 124.487547 60.4746835"></polygon>
                    <polygon id="Shape" points="123.055244 56.3607595 129.029992 56.3607595 130.625986 51.835443 121.45925 51.835443"></polygon>
                    <polygon id="Shape" points="120.026948 47.721519 132.058288 47.721519 133.654283 43.1962025 118.430953 43.1962025"></polygon>
                    <polygon id="Shape" points="116.998651 39.0822785 135.086585 39.0822785 136.641656 34.556962 115.44358 34.556962"></polygon>
                    <polygon id="Shape" points="99.0334855 21.8037975 123.341705 21.8037975 121.786633 17.278481 99.0334855 17.278481"></polygon>
                    <polygon id="Shape" points="131.730905 13.164557 162.054795 13.164557 162.054795 8.63924051 133.285976 8.63924051"></polygon>
                </g>
            </g>
        </g>
    </g>
</svg>