<svg xmlns="http://www.w3.org/2000/svg" width="155.21" height="43.06" viewBox="0 0 155.21 43.06">
  <g id="ᄃ_지_1" data-name="대지 1" transform="translate(-34.89 -456.97)">
    <path id="패스_15673" data-name="패스 15673" d="M34.9,459.59l8.34,6.39v7.68l-8.34-6.39v-7.68Zm8.33,20.24-8.34-6.39v20.2l8.34,6.39Z" fill="#004098" fill-rule="evenodd"/>
    <path id="패스_15674" data-name="패스 15674" d="M43.23,465.98q12.96-4.5,25.92-9.01v7.68q-12.96,4.5-25.92,9.01v-7.68h0Zm25.93,4.84q-12.96,4.5-25.92,9.01v20.2l9.93-3.45V484.06l15.99-5.56v-7.68Z" fill="#82c1ea" fill-rule="evenodd"/>
    <path id="패스_15675" data-name="패스 15675" d="M81.58,473.84V460.56h-2.5v13.28Zm2.35,0h2.22v-8.03a.355.355,0,0,1,.29-.31h2.45a2.95,2.95,0,0,1,.98.14,1.406,1.406,0,0,1,.62.46,1.853,1.853,0,0,1,.34.83,6.016,6.016,0,0,1,.08.96v5.96h2.22v-6.62a3.905,3.905,0,0,0-.29-1.65,3.349,3.349,0,0,0-.69-.97,2.636,2.636,0,0,0-1.31-.68,7.98,7.98,0,0,0-1.5-.13H85.79c-.22,0-.47.02-.77.05a1.179,1.179,0,0,0-.77.41,1.114,1.114,0,0,0-.28.55,3.738,3.738,0,0,0-.05.53v8.52h0Zm16.88,0v-1.71h-.55a7.791,7.791,0,0,1-.83-.06,1.592,1.592,0,0,1-.9-.38,1.257,1.257,0,0,1-.37-.46,2.259,2.259,0,0,1-.17-.56,3.658,3.658,0,0,1-.05-.57v-4.61h2.81v-1.71H97.94v-3.22H95.72v3.22H94.34v1.71h1.38v5.07a4.025,4.025,0,0,0,.26,1.56,2.608,2.608,0,0,0,.75.99,3.221,3.221,0,0,0,1.07.56,5.838,5.838,0,0,0,1.62.18h1.38Zm10.32,0v-1.71h-4.91a4.4,4.4,0,0,1-.62-.04,2.413,2.413,0,0,1-.6-.16,1.328,1.328,0,0,1-.49-.36,1.54,1.54,0,0,1-.32-.64,3.75,3.75,0,0,1-.09-.64,6.83,6.83,0,0,1-.04-.74h5.84a2.2,2.2,0,0,0,.58-.08,1.138,1.138,0,0,0,.5-.3,1.4,1.4,0,0,0,.4-.73,4.32,4.32,0,0,0,.08-.79,7.3,7.3,0,0,0-.06-.94,3.742,3.742,0,0,0-.22-.89,3.067,3.067,0,0,0-.44-.79,2.8,2.8,0,0,0-.71-.65,3.82,3.82,0,0,0-1.56-.54,14.548,14.548,0,0,0-1.75-.1c-.24,0-.52,0-.83.02a8.736,8.736,0,0,0-.99.1,6.029,6.029,0,0,0-1.01.27,3.083,3.083,0,0,0-.92.55,2.7,2.7,0,0,0-.65.8,3.667,3.667,0,0,0-.36.96,6.553,6.553,0,0,0-.15,1.14q-.03.615-.03,1.32a18.145,18.145,0,0,0,.11,1.97,3.769,3.769,0,0,0,.61,1.69,2.629,2.629,0,0,0,.68.69,3.164,3.164,0,0,0,.78.39,3.308,3.308,0,0,0,.82.16c.28.02.54.03.8.03h5.58Zm-7.07-5.99a8.413,8.413,0,0,1,.07-.92,1.457,1.457,0,0,1,.39-.81,2.05,2.05,0,0,1,.5-.39,2.346,2.346,0,0,1,.56-.2,3.6,3.6,0,0,1,.55-.07h.49a6.646,6.646,0,0,1,.98.07,1.8,1.8,0,0,1,.92.39,2.02,2.02,0,0,1,.45.53,1.632,1.632,0,0,1,.2.82.934.934,0,0,1-.09.4c-.06.13-.19.19-.41.19h-4.61Zm9.1,5.99h2.22v-5.67a6.211,6.211,0,0,1,.09-1.08,1.8,1.8,0,0,1,.42-.89,1.69,1.69,0,0,1,.93-.59,4.37,4.37,0,0,1,.97-.11h.93v-1.71h-1.5c-.19,0-.41,0-.66.02a5.689,5.689,0,0,0-.79.1,4.62,4.62,0,0,0-.82.27,2.988,2.988,0,0,0-.75.48,2.546,2.546,0,0,0-.84,1.32,6.494,6.494,0,0,0-.2,1.6v6.26h0Zm6.77,0h2.22v-8.03a.355.355,0,0,1,.29-.31h2.45a2.95,2.95,0,0,1,.98.14,1.406,1.406,0,0,1,.62.46,1.853,1.853,0,0,1,.34.83,6.016,6.016,0,0,1,.08.96v5.96h2.22v-6.62a3.905,3.905,0,0,0-.29-1.65,3.349,3.349,0,0,0-.69-.97,2.636,2.636,0,0,0-1.31-.68,7.98,7.98,0,0,0-1.5-.13h-3.55c-.22,0-.47.02-.77.05a1.179,1.179,0,0,0-.77.41,1.114,1.114,0,0,0-.28.55,3.738,3.738,0,0,0-.05.53v8.52h0Zm11.65-10.05v1.71h4.95a2.292,2.292,0,0,1,.56.08.954.954,0,0,1,.52.36,1.007,1.007,0,0,1,.24.47,2.593,2.593,0,0,1,.05.47v.7h-4.36a4.777,4.777,0,0,0-.88.09,2.029,2.029,0,0,0-.96.5,2.064,2.064,0,0,0-.71,1.14,6.406,6.406,0,0,0-.14,1.31c0,.19,0,.4.02.64a4.858,4.858,0,0,0,.1.74,3.206,3.206,0,0,0,.27.73,2.2,2.2,0,0,0,.48.62,1.747,1.747,0,0,0,.92.44,7.277,7.277,0,0,0,.9.06h4.8a3.778,3.778,0,0,0,.74-.07,1.228,1.228,0,0,0,.65-.33,1.13,1.13,0,0,0,.33-.65,4.412,4.412,0,0,0,.07-.64v-5.22a4.4,4.4,0,0,0-.21-1.45,2.426,2.426,0,0,0-.53-.92,2.357,2.357,0,0,0-.89-.57,3.363,3.363,0,0,0-1.2-.21h-5.71Zm6.32,5.5v2.31a.784.784,0,0,1-.02.22.349.349,0,0,1-.13.2.421.421,0,0,1-.26.1h-3.33a1.013,1.013,0,0,1-.41-.09.935.935,0,0,1-.31-.21.979.979,0,0,1-.26-.55,4.716,4.716,0,0,1-.05-.57,2.341,2.341,0,0,1,.09-.78,1.335,1.335,0,0,1,.15-.3.725.725,0,0,1,.45-.29,2.54,2.54,0,0,1,.37-.05h3.7Zm9.9,4.55v-1.71h-.55a7.791,7.791,0,0,1-.83-.06,1.592,1.592,0,0,1-.9-.38,1.257,1.257,0,0,1-.37-.46,2.259,2.259,0,0,1-.17-.56,3.658,3.658,0,0,1-.05-.57v-4.61h2.81v-1.71h-2.81v-3.22h-2.22v3.22h-1.38v1.71h1.38v5.07a4.025,4.025,0,0,0,.26,1.56,2.608,2.608,0,0,0,.75.99,3.221,3.221,0,0,0,1.07.56,5.838,5.838,0,0,0,1.62.18h1.38Zm1.59,0h2.22V463.79h-2.22v10.05Zm2.22-11.52v-1.76h-2.22v1.76Zm7.06,1.35c-.3,0-.63,0-.99.02a6.863,6.863,0,0,0-1.08.12,5.413,5.413,0,0,0-1.06.32,3.29,3.29,0,0,0-.93.6,3.05,3.05,0,0,0-.69.94,5.78,5.78,0,0,0-.39,1.1,6.088,6.088,0,0,0-.17,1.11c-.03.37-.04.69-.04.97,0,.25.01.55.04.9a8.544,8.544,0,0,0,.16,1.08,4.868,4.868,0,0,0,.38,1.09,3.237,3.237,0,0,0,.71.95,3.525,3.525,0,0,0,.93.6,4.978,4.978,0,0,0,1.06.32,8.356,8.356,0,0,0,1.08.13q.525.03.99.03c.31,0,.61,0,.97-.03a8.5,8.5,0,0,0,1.09-.13,5.823,5.823,0,0,0,1.08-.32,2.816,2.816,0,0,0,.92-.6,4.052,4.052,0,0,0,.92-1.51,7.367,7.367,0,0,0,.37-2.59c0-.27-.01-.58-.04-.93a7.1,7.1,0,0,0-.17-1.08,5.691,5.691,0,0,0-.39-1.09,3.05,3.05,0,0,0-.69-.94,3.525,3.525,0,0,0-.93-.6,4.978,4.978,0,0,0-1.06-.32,6.863,6.863,0,0,0-1.08-.12c-.35-.01-.68-.02-.99-.02h0Zm-3.05,5.16v-.59a4.486,4.486,0,0,1,.07-.71,3.736,3.736,0,0,1,.19-.73,2.158,2.158,0,0,1,.36-.63,1.741,1.741,0,0,1,.54-.43,3.144,3.144,0,0,1,.64-.25,2.84,2.84,0,0,1,.65-.1c.22-.01.42-.02.6-.02.2,0,.41,0,.63.02a3.413,3.413,0,0,1,.64.1,2.9,2.9,0,0,1,.61.25,2.008,2.008,0,0,1,.54.43,1.866,1.866,0,0,1,.4.64,3.549,3.549,0,0,1,.19.71,4.226,4.226,0,0,1,.06.7v.61a10.434,10.434,0,0,1-.09,1.35,2.2,2.2,0,0,1-.58,1.23,2.06,2.06,0,0,1-1.13.69,6.006,6.006,0,0,1-1.26.14,6.078,6.078,0,0,1-1.26-.14,2.133,2.133,0,0,1-1.15-.69,2.3,2.3,0,0,1-.56-1.25,10.488,10.488,0,0,1-.09-1.33h0Zm10.11,5.01h2.22v-8.03a.355.355,0,0,1,.29-.31h2.45a2.95,2.95,0,0,1,.98.14,1.406,1.406,0,0,1,.62.46,1.854,1.854,0,0,1,.34.83,6.016,6.016,0,0,1,.08.96v5.96h2.22v-6.62a3.905,3.905,0,0,0-.29-1.65,3.349,3.349,0,0,0-.69-.97,2.636,2.636,0,0,0-1.31-.68,7.98,7.98,0,0,0-1.5-.13h-3.55c-.22,0-.47.02-.77.05a1.179,1.179,0,0,0-.77.41,1.114,1.114,0,0,0-.28.55,3.738,3.738,0,0,0-.05.53v8.52h0Zm11.65-10.05v1.71h4.95a2.292,2.292,0,0,1,.56.08.954.954,0,0,1,.52.36,1.007,1.007,0,0,1,.24.47,2.593,2.593,0,0,1,.05.47v.7h-4.36a4.777,4.777,0,0,0-.88.09,2.029,2.029,0,0,0-.96.5,2.064,2.064,0,0,0-.71,1.14,6.406,6.406,0,0,0-.14,1.31c0,.19,0,.4.02.64a4.858,4.858,0,0,0,.1.74,3.206,3.206,0,0,0,.27.73,2.2,2.2,0,0,0,.48.62,1.747,1.747,0,0,0,.92.44,7.277,7.277,0,0,0,.9.06h4.8a3.778,3.778,0,0,0,.74-.07,1.228,1.228,0,0,0,.65-.33,1.13,1.13,0,0,0,.33-.65,4.412,4.412,0,0,0,.07-.64v-5.22a4.4,4.4,0,0,0-.21-1.45,2.426,2.426,0,0,0-.53-.92,2.357,2.357,0,0,0-.89-.57,3.363,3.363,0,0,0-1.2-.21h-5.71Zm6.31,5.5v2.31a.784.784,0,0,1-.02.22.349.349,0,0,1-.13.2.421.421,0,0,1-.26.1h-3.33a1.013,1.013,0,0,1-.41-.09.935.935,0,0,1-.31-.21.979.979,0,0,1-.26-.55,4.716,4.716,0,0,1-.05-.57,2.341,2.341,0,0,1,.09-.78,1.335,1.335,0,0,1,.15-.3.725.725,0,0,1,.45-.29,2.54,2.54,0,0,1,.37-.05h3.7Zm4.19,4.55h2.22V460.56h-2.22v13.28ZM81.58,495.9v-5.73h5.88v-1.99H81.58V485.3a1.229,1.229,0,0,1,.02-.27.5.5,0,0,1,.13-.26.324.324,0,0,1,.23-.14h7.69v-1.99H81a3.594,3.594,0,0,0-.71.08,1.426,1.426,0,0,0-.71.4,1.377,1.377,0,0,0-.4.62,2.482,2.482,0,0,0-.09.65v11.53h2.5Zm9.35,0h2.22V485.85H90.93V495.9Zm2.22-11.51v-1.76H90.93v1.76Zm1.97,11.51h2.22v-8.03a.355.355,0,0,1,.29-.31h2.45a2.95,2.95,0,0,1,.98.14,1.406,1.406,0,0,1,.62.46,1.853,1.853,0,0,1,.34.83,6.016,6.016,0,0,1,.08.96v5.96h2.22v-6.62a3.905,3.905,0,0,0-.29-1.65,3.349,3.349,0,0,0-.69-.97,2.636,2.636,0,0,0-1.31-.68,7.98,7.98,0,0,0-1.5-.13H96.98c-.22,0-.47.02-.77.05a1.179,1.179,0,0,0-.77.41,1.114,1.114,0,0,0-.28.55,3.738,3.738,0,0,0-.05.53v8.52h0Zm11.65-10.05v1.71h4.95a2.292,2.292,0,0,1,.56.08.954.954,0,0,1,.52.36,1.007,1.007,0,0,1,.24.47,2.593,2.593,0,0,1,.05.47v.7h-4.36a4.777,4.777,0,0,0-.88.09,2.028,2.028,0,0,0-.96.5,2.064,2.064,0,0,0-.71,1.14,6.406,6.406,0,0,0-.14,1.31c0,.19,0,.4.02.64a4.86,4.86,0,0,0,.1.74,3.207,3.207,0,0,0,.27.73,2.2,2.2,0,0,0,.48.62,1.747,1.747,0,0,0,.92.44,7.277,7.277,0,0,0,.9.06h4.8a3.778,3.778,0,0,0,.74-.07,1.161,1.161,0,0,0,.65-.33,1.13,1.13,0,0,0,.33-.65,4.411,4.411,0,0,0,.07-.64V489a4.4,4.4,0,0,0-.21-1.45,2.426,2.426,0,0,0-.53-.92,2.357,2.357,0,0,0-.89-.57,3.363,3.363,0,0,0-1.2-.21h-5.71Zm6.32,5.5v2.31a.785.785,0,0,1-.02.22.349.349,0,0,1-.13.2.421.421,0,0,1-.26.1h-3.33a1.013,1.013,0,0,1-.41-.09.935.935,0,0,1-.31-.21.979.979,0,0,1-.26-.55,4.716,4.716,0,0,1-.05-.57,2.341,2.341,0,0,1,.09-.78,1.335,1.335,0,0,1,.15-.3.725.725,0,0,1,.45-.29,2.54,2.54,0,0,1,.37-.05h3.7Zm4.19,4.55h2.22v-8.03a.355.355,0,0,1,.29-.31h2.45a2.95,2.95,0,0,1,.98.14,1.406,1.406,0,0,1,.62.46,1.853,1.853,0,0,1,.34.83,6.016,6.016,0,0,1,.08.96v5.96h2.22v-6.62a3.905,3.905,0,0,0-.29-1.65,3.349,3.349,0,0,0-.69-.97,2.636,2.636,0,0,0-1.31-.68,7.98,7.98,0,0,0-1.5-.13h-3.55c-.22,0-.47.02-.77.05a1.179,1.179,0,0,0-.77.41,1.114,1.114,0,0,0-.28.55,3.738,3.738,0,0,0-.05.53v8.52h0Zm19.65,0v-1.71h-3.6a5.782,5.782,0,0,1-.71-.03,3.307,3.307,0,0,1-.71-.14,2.337,2.337,0,0,1-.63-.32,1.567,1.567,0,0,1-.47-.57,2.238,2.238,0,0,1-.16-.46,5.035,5.035,0,0,1-.1-.56,5.542,5.542,0,0,1-.05-.56v-.85c0-.16.01-.33.02-.51a3.408,3.408,0,0,1,.05-.55q.045-.27.09-.48a2.276,2.276,0,0,1,.77-1.12,2.61,2.61,0,0,1,1.7-.47h3.59v-1.71h-4.31a5.883,5.883,0,0,0-1.19.11,4.691,4.691,0,0,0-.87.28,2.976,2.976,0,0,0-.62.35c-.16.13-.3.24-.4.34a3.393,3.393,0,0,0-.65.96,5.228,5.228,0,0,0-.34,1.06,5.684,5.684,0,0,0-.13,1.07c-.01.35-.02.68-.02.99a13.746,13.746,0,0,0,.14,2,3.256,3.256,0,0,0,.77,1.66,2.973,2.973,0,0,0,.75.64,4.219,4.219,0,0,0,.81.38,3.218,3.218,0,0,0,.78.17,5.516,5.516,0,0,0,.66.04h4.84Zm10.81,0v-1.71h-4.91a4.4,4.4,0,0,1-.62-.04,2.413,2.413,0,0,1-.6-.16,1.328,1.328,0,0,1-.49-.36,1.54,1.54,0,0,1-.32-.64,3.75,3.75,0,0,1-.09-.64,6.83,6.83,0,0,1-.04-.74h5.84a2.2,2.2,0,0,0,.58-.08,1.138,1.138,0,0,0,.5-.3,1.4,1.4,0,0,0,.4-.73,4.32,4.32,0,0,0,.08-.79,7.3,7.3,0,0,0-.06-.94,3.742,3.742,0,0,0-.22-.89,3.067,3.067,0,0,0-.44-.79,2.8,2.8,0,0,0-.71-.65,3.82,3.82,0,0,0-1.56-.54,14.548,14.548,0,0,0-1.75-.1c-.24,0-.52,0-.83.02a8.736,8.736,0,0,0-.99.1,6.409,6.409,0,0,0-1.02.27,3.212,3.212,0,0,0-.92.55,2.7,2.7,0,0,0-.65.8,3.667,3.667,0,0,0-.36.96,6.551,6.551,0,0,0-.15,1.14q-.03.615-.03,1.32a18.143,18.143,0,0,0,.11,1.97,3.769,3.769,0,0,0,.61,1.69,2.629,2.629,0,0,0,.68.69,3.164,3.164,0,0,0,.78.39,3.308,3.308,0,0,0,.82.16c.28.02.54.03.8.03h5.58Zm-7.07-5.99a8.409,8.409,0,0,1,.07-.92,1.457,1.457,0,0,1,.39-.81,2.05,2.05,0,0,1,.5-.39,2.346,2.346,0,0,1,.56-.2,3.6,3.6,0,0,1,.55-.07h.49a6.646,6.646,0,0,1,.98.07,1.8,1.8,0,0,1,.92.39,2.02,2.02,0,0,1,.45.53,1.632,1.632,0,0,1,.2.82.934.934,0,0,1-.09.4c-.06.13-.19.19-.41.19h-4.61Z" fill="#004098"/>
  </g>
</svg>
