<?xml version="1.0" standalone="no"?>
<!DOCTYPE svg PUBLIC "-//W3C//DTD SVG 20010904//EN"
 "http://www.w3.org/TR/2001/REC-SVG-20010904/DTD/svg10.dtd">
<svg version="1.0" xmlns="http://www.w3.org/2000/svg"
 width="1215.000000pt" height="1280.000000pt" viewBox="0 0 1215.000000 1280.000000"
 preserveAspectRatio="xMidYMid meet">
<metadata>
Created by potrace 1.15, written by Peter Selinger 2001-2017
</metadata>
<g transform="translate(0.000000,1280.000000) scale(0.100000,-0.100000)"
fill="#000000" stroke="none">
<path d="M2528 12763 c-52 -47 -135 -158 -216 -290 -34 -56 -70 -107 -79 -115
-15 -12 -16 -8 -10 50 6 52 4 64 -9 69 -23 9 -47 -24 -101 -137 -24 -52 -47
-97 -49 -99 -2 -2 -12 3 -21 11 -43 37 -222 62 -443 62 -165 0 -182 -2 -295
-32 -66 -18 -136 -32 -155 -32 -43 0 -166 -23 -240 -46 -42 -12 -67 -29 -112
-76 -33 -33 -61 -72 -64 -88 -8 -37 -40 -66 -145 -129 -159 -94 -203 -132
-240 -206 l-32 -66 6 -130 c4 -87 12 -140 22 -162 16 -32 182 -170 241 -200
51 -26 107 -99 138 -178 26 -68 28 -78 17 -118 -14 -54 -4 -70 34 -53 14 7 28
12 30 12 3 0 5 -40 5 -90 0 -49 3 -90 8 -90 4 0 18 9 32 20 14 11 30 20 37 20
21 0 32 -66 22 -133 -5 -34 -9 -68 -9 -74 0 -20 35 -15 55 7 10 11 22 17 28
13 12 -7 3 -117 -16 -190 -11 -42 -12 -55 -2 -63 10 -8 22 0 48 31 51 62 61
49 53 -75 -3 -55 -9 -118 -12 -138 -8 -47 8 -50 48 -11 20 19 31 24 39 16 6
-6 15 -57 21 -114 6 -57 12 -110 14 -116 7 -25 24 -12 52 37 15 27 32 48 37
47 6 -2 13 -49 16 -105 3 -56 8 -105 12 -109 4 -3 23 9 42 27 24 23 38 31 45
24 13 -13 30 -113 30 -176 0 -27 4 -48 9 -48 5 0 22 18 38 40 42 59 51 55 68
-28 10 -49 33 -52 69 -9 17 20 36 37 42 37 12 0 34 -72 34 -108 0 -11 6 -25
14 -31 12 -10 19 -4 41 33 15 25 33 46 40 46 7 0 19 -16 25 -36 16 -49 33 -51
80 -14 l40 32 21 -26 c24 -31 41 -26 63 21 13 27 20 33 29 24 22 -22 46 -11
78 35 27 40 33 44 41 30 12 -21 31 -8 53 35 25 48 178 105 230 85 20 -7 9 -31
-41 -86 -19 -21 -59 -75 -89 -121 -105 -160 -149 -220 -196 -264 l-47 -44 -75
6 c-90 7 -113 2 -159 -35 -32 -25 -50 -30 -150 -41 -152 -16 -217 -31 -257
-58 -18 -12 -49 -25 -70 -29 -40 -7 -96 -41 -129 -79 -18 -21 -26 -23 -46 -15
-21 8 -31 5 -56 -16 -57 -49 -82 -106 -88 -202 -6 -114 10 -156 64 -171 44
-12 47 -10 64 42 10 33 30 43 30 15 0 -6 12 -26 26 -45 45 -60 66 -44 110 82
6 18 8 16 15 -11 11 -39 52 -84 77 -84 58 0 102 88 102 201 0 64 2 69 32 95
49 41 196 108 211 95 7 -5 21 -32 30 -59 21 -57 37 -75 89 -97 34 -13 38 -13
54 2 24 24 44 77 44 116 0 55 16 67 100 74 41 3 81 10 88 16 9 7 18 5 30 -7
23 -20 46 -21 61 -2 6 7 34 16 62 19 28 4 58 12 65 18 12 9 19 7 37 -10 32
-29 66 -26 134 10 83 45 298 189 414 277 52 39 84 49 105 31 13 -11 15 -26 9
-83 -8 -88 -91 -578 -106 -630 -10 -36 -91 -136 -110 -136 -4 0 -43 35 -86 79
-45 45 -100 90 -130 105 -89 45 -182 29 -216 -37 -9 -18 -24 -42 -33 -54 -16
-22 -15 -23 4 -23 12 0 24 5 27 10 11 18 35 11 46 -13 6 -12 33 -38 60 -57 52
-35 109 -93 109 -110 0 -26 -157 8 -250 55 -25 12 -64 26 -86 29 -51 9 -155
-9 -205 -34 -82 -42 -149 -170 -89 -170 9 0 25 9 34 19 17 18 18 18 39 -3 20
-20 38 -24 127 -29 58 -4 119 -11 135 -15 28 -8 29 -9 10 -19 -11 -6 -60 -18
-110 -28 -190 -36 -251 -61 -309 -125 -47 -53 -96 -154 -96 -200 0 -43 29
-104 52 -108 11 -2 26 11 41 35 14 21 51 58 82 82 85 64 234 141 274 141 l33
0 -37 -41 c-67 -75 -90 -154 -64 -228 15 -42 43 -40 72 6 21 33 27 36 73 38
33 2 71 14 119 38 39 19 115 52 170 72 100 37 137 54 375 176 210 108 300 181
354 288 15 28 46 81 70 118 67 105 189 345 246 483 28 69 55 129 60 134 5 5
23 -3 42 -17 148 -113 1046 -564 1218 -612 25 -7 63 -21 85 -30 27 -12 53 -15
83 -11 40 5 46 3 74 -28 22 -26 59 -45 161 -84 128 -49 287 -92 344 -92 15 0
48 -9 72 -20 56 -26 75 -26 68 0 -3 11 -2 22 3 25 10 6 101 -24 120 -41 8 -7
32 -15 52 -19 42 -8 42 -9 62 -115 43 -236 137 -478 234 -605 21 -27 52 -75
68 -105 56 -99 159 -274 187 -315 26 -38 27 -40 7 -43 -11 -2 -42 7 -69 20
-40 18 -66 43 -130 126 l-81 102 -91 0 c-111 0 -162 -14 -195 -53 -25 -30 -30
-53 -14 -77 8 -12 13 -12 43 2 l35 17 8 -47 c11 -67 11 -67 -16 -64 -36 5
-137 41 -194 69 -125 63 -280 96 -456 96 -118 0 -140 -2 -176 -21 -58 -29
-114 -95 -114 -132 0 -17 4 -30 9 -30 5 0 42 16 82 35 41 19 78 35 85 35 6 0
10 -17 10 -42 -1 -59 24 -71 124 -62 139 12 150 10 250 -35 52 -23 120 -51
150 -61 30 -11 98 -37 150 -59 l94 -39 -38 -7 c-39 -8 -152 7 -246 31 -30 8
-98 23 -150 34 -52 10 -113 25 -135 33 -22 8 -76 19 -120 26 -44 7 -102 17
-128 22 -86 16 -162 11 -222 -16 -129 -56 -199 -135 -193 -216 2 -23 8 -44 15
-46 7 -3 42 24 79 58 l67 62 12 -30 c7 -17 30 -43 51 -59 l38 -29 165 -1 c91
0 247 -8 346 -18 99 -9 218 -20 265 -24 47 -4 84 -11 83 -17 -1 -5 -25 -16
-55 -23 -29 -7 -102 -26 -163 -42 -187 -50 -198 -51 -500 -44 l-281 7 -57 -26
c-91 -41 -143 -82 -166 -130 -37 -77 -22 -180 30 -208 28 -14 41 0 63 67 9 29
25 59 36 69 19 17 21 16 68 -14 58 -37 71 -38 148 -9 53 20 79 22 269 23 315
2 345 8 710 139 113 40 238 60 305 48 l45 -9 -70 -20 c-38 -12 -113 -33 -165
-48 -105 -29 -156 -55 -246 -126 -62 -49 -74 -67 -118 -182 -32 -82 -32 -99
-2 -162 28 -62 86 -110 122 -101 27 7 31 27 9 46 -33 28 2 110 48 110 37 1
107 38 116 62 22 57 134 125 305 187 59 22 125 51 146 65 22 14 46 26 53 26
19 0 132 45 159 64 12 9 29 16 36 16 33 0 219 151 286 232 38 45 81 90 95 99
39 24 117 113 140 162 28 58 44 174 39 285 -4 87 -6 96 -30 116 -36 30 -53 65
-35 72 21 7 28 53 16 100 -6 21 -12 50 -14 64 -2 14 -11 45 -20 69 -21 61 -20
62 28 45 23 -9 89 -24 147 -35 142 -25 148 -27 206 -66 28 -18 55 -33 60 -33
5 0 29 -16 53 -35 58 -46 238 -135 482 -238 108 -46 235 -107 282 -135 47 -29
89 -52 93 -52 4 0 28 -13 54 -30 54 -35 164 -76 226 -86 35 -5 45 -3 50 10 8
20 24 21 24 1 0 -8 9 -19 21 -25 11 -6 29 -30 39 -53 21 -50 47 -75 200 -192
63 -49 140 -111 170 -138 30 -27 66 -54 81 -59 14 -5 32 -21 40 -35 8 -14 28
-32 46 -39 43 -18 80 -69 93 -129 10 -46 53 -133 198 -405 59 -111 103 -238
133 -388 26 -126 31 -389 10 -512 -40 -237 -118 -578 -154 -675 -8 -22 -20
-56 -27 -75 -7 -19 -17 -43 -21 -52 -5 -10 -9 -23 -9 -30 0 -26 -99 -227 -163
-331 -131 -212 -205 -293 -423 -457 -82 -62 -183 -107 -299 -134 -38 -9 -99
-25 -135 -36 -108 -33 -197 -40 -478 -40 -223 0 -287 3 -368 19 -55 10 -133
24 -174 31 -41 7 -138 30 -215 53 -77 22 -171 49 -210 60 -38 11 -144 55 -235
97 -91 43 -199 89 -240 104 -41 15 -118 51 -170 81 -52 29 -239 131 -415 225
-175 94 -353 195 -395 224 -83 58 -251 136 -465 215 -77 29 -196 74 -265 101
-69 27 -190 71 -270 98 -161 56 -361 125 -490 170 -103 37 -240 73 -380 102
-58 12 -123 28 -145 37 -98 38 -321 92 -720 174 -104 22 -212 45 -240 52 -70
17 -358 14 -535 -6 -80 -9 -199 -21 -265 -27 -106 -9 -219 -29 -353 -60 -23
-6 -50 -10 -60 -10 -55 0 -360 -129 -435 -183 -23 -17 -96 -67 -162 -111 -157
-103 -284 -206 -422 -340 -124 -120 -207 -223 -304 -382 -35 -57 -99 -162
-143 -231 -89 -144 -138 -250 -166 -356 -10 -39 -23 -84 -29 -100 -18 -45 -38
-146 -51 -247 -6 -52 -21 -156 -33 -230 -18 -114 -21 -179 -21 -415 0 -163 5
-320 12 -375 7 -52 17 -138 24 -190 10 -86 53 -288 78 -365 9 -28 16 -57 54
-197 8 -29 19 -80 26 -113 6 -33 22 -78 35 -100 12 -22 41 -85 64 -140 56
-131 152 -314 209 -395 25 -36 105 -124 177 -197 106 -107 137 -133 167 -138
20 -4 42 -4 48 0 36 22 -40 149 -174 293 -48 51 -106 123 -130 160 -76 117
-225 427 -246 510 -11 42 -31 110 -45 150 -14 41 -30 106 -35 145 -11 85 -27
194 -39 257 -5 25 -16 92 -25 150 -9 58 -21 126 -27 152 -28 126 -27 559 1
593 8 9 8 20 1 32 -16 31 79 471 135 622 74 196 215 455 346 632 157 213 371
438 550 580 86 68 232 140 513 253 50 21 114 38 144 41 30 2 57 8 60 13 22 33
164 55 460 72 368 20 598 10 876 -40 164 -30 285 -65 435 -126 170 -69 266
-106 404 -155 93 -33 233 -88 341 -134 17 -7 64 -26 105 -43 101 -41 245 -108
289 -136 20 -12 56 -28 80 -35 126 -37 656 -296 841 -412 63 -39 198 -119 300
-177 102 -57 212 -124 245 -147 88 -63 144 -94 383 -215 208 -105 438 -213
512 -241 19 -7 62 -27 95 -45 83 -45 204 -77 450 -120 305 -53 302 -53 635
-60 563 -12 673 10 1070 214 311 160 491 302 647 507 34 44 86 109 116 143 31
35 88 115 129 177 40 62 85 119 99 127 20 12 32 35 54 104 26 86 28 88 42 66
16 -23 38 -29 48 -12 3 5 15 78 25 161 16 133 34 196 46 164 15 -38 47 -76 62
-73 14 3 18 18 22 88 l5 85 44 3 43 3 -7 67 c-4 36 -11 76 -16 89 -11 30 -3
29 38 -7 36 -32 63 -39 63 -16 0 7 -11 38 -24 67 -13 30 -27 64 -31 77 -6 22
-5 23 31 16 l37 -7 -6 38 c-3 21 -29 77 -56 124 -27 47 -48 87 -47 89 2 1 30
-13 62 -33 108 -65 110 -45 7 91 -29 39 -53 75 -53 80 0 4 22 -13 49 -40 27
-27 51 -43 55 -38 3 6 -5 37 -20 69 -14 32 -30 69 -34 83 -4 14 -11 34 -16 45
-6 18 -5 18 19 -4 14 -12 31 -20 37 -16 17 10 4 56 -46 163 -25 52 -42 97 -40
100 3 2 36 -19 73 -47 70 -52 113 -67 94 -33 -5 9 -38 58 -74 107 -36 50 -63
92 -62 94 2 2 29 -11 59 -29 52 -29 56 -30 56 -11 0 11 -22 48 -50 82 -27 34
-50 66 -50 71 0 4 16 8 35 8 22 0 35 5 35 13 0 8 -25 47 -55 87 -30 40 -55 77
-55 81 0 5 18 2 41 -6 40 -14 59 -13 59 5 0 4 -20 35 -45 68 -25 33 -45 62
-45 65 0 3 16 -1 35 -9 80 -33 74 -10 -30 117 -47 57 -81 105 -76 107 5 2 27
-1 48 -7 51 -15 73 -14 73 2 0 15 -108 123 -202 204 -31 26 -55 49 -53 51 2 2
38 -14 81 -36 164 -82 164 -67 -1 98 -68 69 -125 128 -125 132 0 4 16 0 36 -8
77 -32 71 -12 -28 96 -53 58 -95 106 -93 108 2 2 30 -8 62 -21 75 -33 100 -40
107 -29 10 17 -26 53 -114 112 -49 33 -91 64 -95 69 -3 6 6 13 20 17 54 13 25
45 -117 128 -54 31 -100 61 -103 67 -4 6 14 7 50 3 52 -6 57 -5 54 12 -3 16
-72 67 -175 130 -15 9 -5 11 47 7 119 -10 101 32 -36 85 -267 101 -314 122
-250 108 138 -28 189 -36 202 -31 29 11 -7 33 -173 106 -90 40 -162 74 -159
77 2 3 48 4 101 3 87 -2 95 -1 92 16 -2 13 -28 26 -93 46 -49 16 -106 36 -125
45 l-35 17 38 3 c62 5 49 24 -43 57 -49 19 -55 24 -52 47 4 32 -16 48 -141
113 -53 28 -97 54 -97 58 0 4 38 7 85 6 86 -3 102 1 90 21 -9 14 -27 22 -200
81 l-140 48 96 -6 c107 -6 172 2 166 20 -8 27 -87 51 -321 98 -83 16 -151 31
-153 33 -2 1 65 6 149 9 153 7 198 13 198 27 0 15 -201 50 -293 50 -36 0 -56
4 -52 10 4 6 65 10 150 10 139 0 184 10 133 29 -13 4 -79 13 -148 20 -395 37
-429 43 -302 51 149 11 146 30 -10 67 -43 10 -78 21 -78 25 0 3 49 8 110 10
69 2 114 8 121 15 7 7 10 15 8 18 -14 14 -185 48 -379 75 -137 19 -136 27 5
34 169 9 217 16 212 30 -10 31 -206 60 -484 71 -227 9 -230 20 -13 45 193 23
220 33 150 57 -55 19 -208 15 -450 -12 -33 -3 -40 -2 -28 5 23 14 95 27 249
45 72 8 135 18 140 21 6 3 5 11 -2 20 -9 11 -30 13 -105 8 -75 -6 -98 -4 -116
8 -13 9 -66 21 -118 28 -121 15 -262 39 -268 45 -3 3 44 5 104 5 199 0 171 43
-61 91 -51 10 -56 13 -35 20 14 4 63 8 110 8 90 1 121 10 98 28 -26 20 -148
43 -338 63 -132 14 -173 20 -168 26 3 2 92 8 198 13 116 6 197 14 204 21 19
19 -14 30 -95 30 -103 0 -187 17 -229 45 -45 31 -86 45 -252 85 -76 18 -138
36 -138 40 0 4 78 10 173 12 164 5 212 11 202 27 -10 17 -243 46 -455 57 -153
9 -130 21 62 34 164 11 220 20 215 33 -7 21 -51 25 -272 27 -121 1 -249 5
-285 9 -57 6 -47 7 90 15 85 4 158 10 162 13 29 17 -57 34 -272 53 -172 15
-302 31 -319 40 -8 4 91 10 220 13 247 6 282 10 277 35 -4 20 -105 37 -308 52
-85 6 -186 15 -225 18 l-70 7 110 24 c185 40 223 68 114 84 -77 12 -84 14 -70
31 18 21 -6 34 -79 42 -36 4 -81 14 -100 22 -44 18 -195 41 -280 43 -130 2
-123 14 24 39 76 14 146 30 155 37 14 10 12 13 -14 25 -40 17 -547 17 -655 0
-41 -7 -96 -16 -122 -21 -67 -11 -60 4 10 23 31 8 113 34 182 56 69 22 161 50
205 62 80 21 105 33 105 49 0 20 -77 20 -193 0 -67 -12 -162 -28 -212 -36 -49
-9 -114 -20 -144 -25 -111 -20 -111 -11 -1 45 58 29 160 76 227 105 116 50
145 72 124 93 -10 10 -104 -13 -316 -80 -265 -83 -350 -117 -392 -156 -27 -24
-39 -18 -24 12 15 27 83 66 153 86 63 18 91 41 64 51 -26 10 -5 27 99 83 96
52 155 95 155 113 0 28 -191 -26 -391 -110 -136 -58 -201 -72 -315 -71 -95 1
-98 1 -66 15 17 8 87 26 153 40 122 25 162 40 156 59 -9 25 -146 20 -392 -15
-38 -5 -95 -12 -125 -16 l-55 -5 26 23 c14 14 80 56 145 96 65 39 130 81 142
93 44 41 8 40 -104 -2 -367 -138 -405 -151 -412 -144 -4 4 1 11 11 16 9 6 43
33 74 61 32 27 108 83 169 124 125 83 145 100 120 110 -29 11 -159 -37 -313
-117 -84 -44 -153 -76 -153 -72 0 20 46 79 97 126 31 29 93 86 138 127 44 41
104 96 133 121 51 46 67 79 36 79 -8 0 -62 -18 -120 -41 -110 -43 -168 -81
-322 -211 -51 -43 -95 -78 -98 -78 -11 0 72 93 230 259 86 90 156 168 156 172
0 4 -5 11 -11 14 -12 8 -58 -21 -160 -100 -70 -55 -89 -64 -89 -45 0 5 -38 11
-85 12 l-86 3 33 49 c63 93 63 95 52 106 -17 17 -53 -2 -137 -74 -43 -36 -96
-77 -120 -90 -60 -36 -157 -56 -269 -56 -87 0 -99 -2 -117 -22 -18 -18 -24
-20 -46 -10 -14 6 -25 15 -25 20 0 10 44 32 65 32 19 0 403 128 438 146 15 8
27 22 27 30 0 14 -11 16 -87 10 -104 -8 -249 -23 -351 -36 -40 -6 -92 -10
-115 -9 l-42 0 70 26 c95 33 214 68 307 88 93 20 111 36 72 62 -59 39 -228 21
-596 -61 -38 -9 -15 12 60 54 127 71 273 171 269 183 -8 22 -70 7 -182 -42
-60 -26 -126 -54 -145 -61 -19 -7 -84 -38 -144 -67 l-108 -54 -39 27 c-21 14
-44 33 -50 40 -16 19 -4 44 21 44 11 0 42 11 68 24 26 13 58 27 71 31 42 13
13 -14 -49 -45 -69 -35 -88 -56 -43 -47 28 5 30 4 25 -19 -2 -13 0 -24 4 -24
28 1 319 249 369 314 28 36 26 56 -3 56 -9 0 -55 -30 -102 -65 -80 -61 -299
-179 -381 -204 -65 -21 -98 15 -36 39 233 93 347 146 347 162 0 18 -191 2
-315 -27 -200 -46 -216 -48 -233 -31 -14 14 -13 16 14 26 48 19 173 47 269 60
218 31 360 69 338 91 -13 13 -146 28 -318 35 -146 6 -180 2 -413 -47 -57 -12
-106 -18 -109 -15 -15 14 127 227 181 273 16 13 87 53 157 88 70 36 130 69
133 74 9 14 -57 24 -107 17 -83 -13 -347 -188 -419 -277 -17 -22 -35 -39 -39
-39 -23 0 58 203 177 446 41 83 74 156 74 162 0 21 -19 13 -62 -25z m5892
-4089 c0 -2 -7 -4 -15 -4 -8 0 -15 4 -15 10 0 5 7 7 15 4 8 -4 15 -8 15 -10z
m2250 -2234 c0 -5 -2 -10 -4 -10 -3 0 -8 5 -11 10 -3 6 -1 10 4 10 6 0 11 -4
11 -10z m-563 -2012 c-3 -8 -6 -5 -6 6 -1 11 2 17 5 13 3 -3 4 -12 1 -19z"/>
<path d="M4745 8520 c5 -9 112 -62 148 -74 32 -10 17 4 -30 28 -71 35 -124 56
-118 46z"/>
<path d="M5276 6582 c-3 -6 6 -20 20 -31 20 -16 41 -21 86 -21 66 0 74 14 22
39 -37 18 -119 27 -128 13z"/>
<path d="M5157 6554 c-9 -10 2 -24 19 -24 8 0 14 7 14 15 0 15 -21 21 -33 9z"/>
</g>
</svg>
