<svg xmlns="http://www.w3.org/2000/svg" role="img" viewBox="5.95 31.95 366.60 93.10"><style>svg {enable-background:new 0 0 595.3 841.9}</style><style>.st0{fill:#015da1}</style><g id="XMLID_1_"><path id="XMLID_2_" d="M17.4 91.5l4.1 2.8-5.2 2.8-3.1 21h8.2l4.8-32.5H18z" class="st0"/><path id="XMLID_22_" d="M46.8 93c-5.1-.3-8.7 2.6-8.7 2.6l.3-2H31l-3.8 24.5h7.3l2.8-18.2s3.6-2.7 5.5-2.6c1.9.1 2.2 1.5 2.2 1.5l-2.8 19.3h7.3l3-20s-.6-4.9-5.7-5.1z" class="st0"/><path id="XMLID_26_" d="M79.5 88c5.8-.5 9.8 7.2 9.8 7.2l3.3-2.5s-.7-3.7-5.3-6.5C82.6 83.3 76 84.1 76 84.1s-4 .2-10.8 4.3c-6.8 4.1-8 13.9-8 13.9s-.4 6.9 4.1 11.4 9.7 4.5 12.2 4.5 5.1-.2 9.9-2.9 6.7-6.1 6.7-6.1l-2.9-2.4s-4.5 5.8-8.8 6.8c-4.9.7-8-.8-8.8-1.4-.8-.6-3-3-3.4-8s2.7-10.1 2.7-10.1 3.8-6.2 10.6-6.1z" class="st0"/><path id="XMLID_28_" d="M93.6 118.1h7.6l5.9-36.5-8.3 2.1z" class="st0"/><path id="XMLID_48_" d="M128.4 93.7c-2.6-1.2-5-1.1-6-1-6.7.5-15 6.1-15.3 13.7 0 .5-.2 5.8 3.8 9.2 2.7 2.3 5.9 2.5 7.4 2.5 4.7.2 8.2-2 9.3-2.8 1-.7 4.4-3 6.1-7.6.5-1.5 1.4-3.7.8-6.6-1.1-5-5.6-7.2-6.1-7.4zm-2 10.8c-.2 3.9-.4 5.5-2.2 8.2-1.8 2.4-2.1 2.4-4.2 2.7-2.2.2-3.3-1.8-3.3-1.8s-1.4-1.8-1.4-6 1.7-7.7 1.7-7.7 1.4-3.9 4.6-3.9 3.9 2.3 3.9 2.3 1.1 2.2.9 6.2z" class="st0"/><path id="XMLID_49_" d="M152.9 110.9s-1.8 2.5-4.5 2.9c-2.4.2-3-2.3-3-2.3l2.8-18.6h-7.6l-2.9 20s1.9 5.6 7.3 5.3 7-2.8 7-2.8l-.4 2.3h7.5l4-24.9h-7.7l-2.5 18.1z" class="st0"/><path id="XMLID_54_" d="M189.7 70.5c-.7-.4-1.4-.7-2.1-1 .5-3.9-1.3-8.4-1.3-8.4-1-2.7-2.3-6-5.3-9.7-6.6-8.1-15.5-10.5-18.3-11.3-2-.5-9.4-2.2-18.5 0-2.4.6-6.6 1.6-11.3 4.8-1.8 1.2-5.5 4-8.6 8.6-1.5-.4-3.2-.7-4.9-.8-5.4-.4-9.5.9-10.8 1.4-2.6.9-10.6 3.8-14.1 12-4 9.4 1.1 18.2 1.8 19.3-.5-2-2-9.8 2.4-17.3 3-5.1 7.3-7.4 9.3-8.6 7.3-4 14.3-3.3 16.8-3.1 6.9.7 11 3.6 11.2 3.2.2-.4-3.5-3.5-9.2-5.5 2.4-2.7 7.7-6.6 12.9-8.9 7.9-3.6 16.5-.6 19.5.4 2.5.9 6.8 2.4 10.8 6.4 4.2 4.2 7.7 10.8 7.3 14.9-.6 0-1.1-.1-1.5-.1-1.8 0-8.6.1-15.6 4.3-4.3 2.6-7.8 6.1-7.4 6.7.6.8 8.2-6.6 18.9-6.4 5.3.1 9.7 2 10.8 2.5 3.8 1.7 6.2 3.8 7 4.5.9.8 2.1 1.9 3.2 3.3l-7 1.3-1.5 10.2c-.2-.1-.5-.1-.9-.2-2.1-.5-3.7-.4-4.2-.4-2.8.2-4.8 1.3-5.9 2-3.1 1.8-4.8 4-5.3 4.8-.9 1.3-2.6 3.7-2.8 7.2-.1 1.3-.3 4.3 1.6 7.2.4.6 2 2.9 5 3.9 2.9.9 5.3.1 6.6-.3.9-.3 1.8-.6 2.6-1.3l-.2 1.3h7.3l.6-4.7c.1-.1.2-.1.3-.2 4.1-2.4 6.6-3.9 9-6.7 3.4-3.9 4.6-7.9 4.8-8.7 2.4-8.1-.9-14.9-1.3-15.9-3.3-6.2-8.5-9-11.7-10.7zm6.8 25.5s-1 7.5-7.3 12.9c-3.5 3-7.2 4.8-7.2 4.8-.2.1-.3.2-.5.2l-1.2.3c-1.2.3-2.9.6-4.5-.3-1.2-.7-1.7-1.7-2-2.3-.6-1.2-.7-2.2-.8-3.7-.1-1-.2-2.5.2-4.4.2-1.1.7-2.7 1.7-4.3.8-1.3 1.6-2.6 3.2-3.5.6-.3 1.5-.7 2.5-.5 1.1.3 1.7 1.3 2 1.8.3.6.6 1.2.7 1.9l-2.1 13.7.2-.1s1.3-.5 4.1-2.2c2.8-1.7 3.6-2.5 3.6-2.5l4.1-25 .1-.6c.4.6.8 1.2 1.2 2 2.7 5.2 2.2 10.3 2 11.8z" class="st0"/><path id="XMLID_55_" d="M208.7 117h4.9c1.7-4.3 2.7-9.6 3-15.7h-4.1c-.5 5.8-1.8 11-3.8 15.7z" class="st0"/><path id="XMLID_58_" d="M224 102h12.9c3.7.1 5.4-1.7 5.3-5.3V84.6h-8.8v-2.8h-5.3v2.8h-8.6v33.1c4.3-1.1 8.1-2.6 11.3-4.4V110c-2.4 1-4.7 1.9-6.7 2.5V102zm0-14.1h13.6v3.9H224v-3.9zm0 7h13.6v1.6c0 1.6-.8 2.3-2.4 2.3H224v-3.9z" class="st0"/><path id="XMLID_60_" d="M209.8 91.9c1.3 2.9 2 5.4 2.4 7.5h4.4c-.5-2.6-1.4-5.1-2.5-7.5h-4.3z" class="st0"/><path id="XMLID_61_" d="M216.2 90.2c-.4-2.2-1.3-4.7-2.5-7.6h-4.2c1 2.6 1.8 5.1 2.4 7.6h4.3z" class="st0"/><path id="XMLID_62_" d="M243.9 103.1h-4.4c-.9 2.3-2.5 4-4.5 5.3-1.3-1.8-2.2-3.5-2.8-5.3h-4.7c2.3 7.3 8 12 17.1 14.3v-3.1c-3.2-1.1-5.8-2.4-7.5-3.9 3.3-1.4 5.6-3.9 6.8-7.3z" class="st0"/><path id="XMLID_63_" d="M255.2 90.2c-.6-2.9-1.4-5.4-2.4-7.6h-3.6c.9 2.6 1.6 5.1 2 7.6h4z" class="st0"/><path id="XMLID_66_" d="M270.9 108.3h-5.3v-3h.3c2.9.1 4.3-1.3 4.2-4.4V90.5h-4.5v-3h5.3v-3.1h-5.3v-2.6h-4.1v2.6h-5.3v3.1h5.3v3H257v14.8h4.5v3h-5.8v3.1h5.8v6.2h4.1v-6.2h5.3v-3.1zm-10.3-14.8h6v3h-6v-3zm4.2 8.9h-4.2v-3.1h6v1.2c0 1.3-.5 2-1.8 1.9z" class="st0"/><path id="XMLID_70_" d="M272.3 104.7c.1 4.2-.8 7.5-2.7 9.6v3.6c4.5-2.9 6.6-7.1 6.4-12.7h3.8v7.5c.1 1-.5 1.5-1.7 1.4h-1.3v3.1h2.5c3 .1 4.5-1.3 4.4-4.2V83.4h-11.4v21.3zm3.8-18.2h3.8v6.2h-3.8v-6.2zm0 9.3h3.8v6.2h-3.8v-6.2z" class="st0"/><path id="XMLID_72_" d="M248.3 117h4.4c1.5-4.6 2.4-9.7 2.7-15.5H252c-.7 6.1-1.9 11.3-3.7 15.5z" class="st0"/><path id="XMLID_73_" d="M249.6 91.8c.9 2.9 1.6 5.4 2 7.6h3.9c-.6-2.8-1.4-5.3-2.4-7.6h-3.5z" class="st0"/><path id="XMLID_74_" d="M292.3 83.9h29.5v3.6h-29.5z" class="st0"/><path id="XMLID_75_" d="M289 98.3h10.8c-1.7 4.5-4.4 8.7-8.2 12.7v3.7h3c7.2 0 15-.4 23.2-1.2.2.8.4 1.5.6 2 .1.3.2.6.2.8h4.9c-1.3-4.5-3-8.4-5.2-12h-4.4c1 2 1.9 3.9 2.7 5.7-5.3.6-11.9.9-19.8.9 3.9-3.4 7-7.7 9.3-12.7h19v-3.4H289v3.5z" class="st0"/><path id="XMLID_76_" d="M336.5 90.2c-.6-3.1-1.5-5.6-2.7-7.6h-4.2c.9 1.9 1.8 4.4 2.7 7.6h4.2z" class="st0"/><path id="XMLID_77_" d="M364.7 87.6v-3h-17.3c.4-.8.7-1.4.9-1.9.1-.4.2-.7.3-.9h-5c-.8 3-2.8 5.2-6 6.5v2.5c3.2-.6 5.7-1.7 7.4-3.3h19.7z" class="st0"/><path id="XMLID_80_" d="M365.6 103.1V100h-3v-9.5H340v9.5h-2.4v3.1h2.4v4.5c-.1 3.2 1.6 4.8 5.2 4.7h12.9v.3c.1 1.2-.6 1.9-2.2 1.9h-3.5v3h5c3.4 0 5.2-1.6 5.2-4.8v-.3h2.2v-3.1h-2.2v-6.1h3zm-7.5 6.1h-3.6c-.2-1.3-.7-3.1-1.6-5.1h-4.1c.7 2.1 1.2 3.8 1.4 5.1h-3.1c-1.8.1-2.6-.7-2.5-2.5v-3.6h13.5v6.1zm0-9.2h-3.8c-.2-1.6-.7-3.3-1.6-5.1h-4.1c.7 2.2 1.1 3.9 1.3 5.1h-5.3v-6.4h13.5v6.4z" class="st0"/><path id="XMLID_82_" d="M328.9 117h4.7c1.9-4.3 3-9.6 3.3-15.7h-4.1c-.5 5.7-1.8 10.9-3.9 15.7z" class="st0"/><path id="XMLID_83_" d="M330 91.9c1.1 2.8 2 5.3 2.5 7.6h4.4c-.5-2.8-1.5-5.3-2.8-7.6H330z" class="st0"/></g></svg>