<svg width="1314" height="250" viewBox="0 0 1314 250" fill="none" xmlns="http://www.w3.org/2000/svg">
<path d="M563.827 53.5455V199H528.671V53.5455H563.827ZM620.627 136.784V199H585.897V89.9091H618.923V109.938H620.13C622.545 103.261 626.664 98.0294 632.488 94.2415C638.312 90.4062 645.249 88.4886 653.298 88.4886C660.968 88.4886 667.621 90.2169 673.255 93.6733C678.937 97.0824 683.34 101.865 686.465 108.02C689.638 114.128 691.2 121.277 691.153 129.469V199H656.423V136.287C656.47 130.226 654.931 125.491 651.806 122.082C648.729 118.673 644.444 116.969 638.951 116.969C635.305 116.969 632.086 117.774 629.292 119.384C626.546 120.946 624.415 123.195 622.9 126.131C621.432 129.066 620.675 132.617 620.627 136.784ZM774.658 89.9091V115.477H704.487V89.9091H774.658ZM719.118 199V84.3693C719.118 75.9413 720.704 68.9574 723.877 63.4176C727.049 57.8305 731.452 53.6638 737.087 50.9176C742.721 48.124 749.232 46.7273 756.618 46.7273C761.448 46.7273 765.993 47.1061 770.254 47.8636C774.563 48.5739 777.759 49.2131 779.843 49.7812L774.303 75.2074C773.024 74.7812 771.462 74.4261 769.615 74.142C767.816 73.8579 766.111 73.7159 764.502 73.7159C760.43 73.7159 757.636 74.6155 756.121 76.4148C754.606 78.214 753.848 80.6761 753.848 83.8011V199H719.118ZM791.366 199V89.9091H826.096V199H791.366ZM808.767 77.196C803.89 77.196 799.699 75.5862 796.195 72.3665C792.692 69.0994 790.94 65.1695 790.94 60.5767C790.94 56.0312 792.692 52.1487 796.195 48.929C799.699 45.6619 803.89 44.0284 808.767 44.0284C813.691 44.0284 817.881 45.6619 821.338 48.929C824.841 52.1487 826.593 56.0312 826.593 60.5767C826.593 65.1695 824.841 69.0994 821.338 72.3665C817.881 75.5862 813.691 77.196 808.767 77.196ZM943.443 123.219L911.554 124.071C911.223 121.798 910.323 119.786 908.855 118.034C907.387 116.235 905.47 114.838 903.102 113.844C900.782 112.802 898.084 112.281 895.006 112.281C890.981 112.281 887.548 113.086 884.708 114.696C881.914 116.306 880.541 118.484 880.588 121.23C880.541 123.361 881.393 125.207 883.145 126.77C884.944 128.332 888.14 129.587 892.733 130.534L913.756 134.511C924.646 136.595 932.743 140.051 938.046 144.881C943.396 149.71 946.095 156.102 946.142 164.057C946.095 171.538 943.87 178.048 939.466 183.588C935.11 189.128 929.144 193.437 921.568 196.514C913.993 199.545 905.328 201.06 895.574 201.06C879.996 201.06 867.709 197.864 858.713 191.472C849.764 185.032 844.651 176.415 843.372 165.619L877.676 164.767C878.434 168.744 880.399 171.775 883.571 173.858C886.744 175.941 890.792 176.983 895.716 176.983C900.167 176.983 903.789 176.154 906.583 174.497C909.376 172.84 910.797 170.638 910.844 167.892C910.797 165.43 909.708 163.465 907.577 161.997C905.446 160.482 902.108 159.298 897.563 158.446L878.529 154.824C867.591 152.835 859.447 149.166 854.097 143.815C848.746 138.418 846.095 131.552 846.142 123.219C846.095 115.927 848.036 109.701 851.966 104.54C855.896 99.3314 861.483 95.3542 868.727 92.608C875.972 89.8617 884.518 88.4886 894.367 88.4886C909.139 88.4886 920.787 91.59 929.31 97.7926C937.833 103.948 942.544 112.423 943.443 123.219ZM963.241 199V89.9091H997.971V199H963.241ZM980.642 77.196C975.765 77.196 971.574 75.5862 968.07 72.3665C964.567 69.0994 962.815 65.1695 962.815 60.5767C962.815 56.0312 964.567 52.1487 968.07 48.929C971.574 45.6619 975.765 44.0284 980.642 44.0284C985.566 44.0284 989.756 45.6619 993.213 48.929C996.716 52.1487 998.468 56.0312 998.468 60.5767C998.468 65.1695 996.716 69.0994 993.213 72.3665C989.756 75.5862 985.566 77.196 980.642 77.196ZM1071 201.06C1059.49 201.06 1049.62 198.692 1041.38 193.957C1033.19 189.223 1026.9 182.641 1022.49 174.213C1018.09 165.738 1015.89 155.937 1015.89 144.81C1015.89 133.635 1018.09 123.834 1022.49 115.406C1026.94 106.931 1033.26 100.326 1041.45 95.5909C1049.69 90.8561 1059.52 88.4886 1070.93 88.4886C1081.01 88.4886 1089.8 90.3116 1097.28 93.9574C1104.81 97.6032 1110.68 102.764 1114.89 109.44C1119.15 116.069 1121.4 123.858 1121.64 132.807H1089.18C1088.52 127.22 1086.63 122.84 1083.5 119.668C1080.42 116.495 1076.4 114.909 1071.43 114.909C1067.4 114.909 1063.87 116.045 1060.84 118.318C1057.81 120.544 1055.45 123.858 1053.74 128.261C1052.08 132.617 1051.26 138.015 1051.26 144.455C1051.26 150.894 1052.08 156.339 1053.74 160.79C1055.45 165.193 1057.81 168.531 1060.84 170.804C1063.87 173.029 1067.4 174.142 1071.43 174.142C1074.65 174.142 1077.49 173.455 1079.95 172.082C1082.46 170.709 1084.52 168.697 1086.13 166.045C1087.74 163.347 1088.76 160.08 1089.18 156.244H1121.64C1121.31 165.241 1119.06 173.1 1114.89 179.824C1110.77 186.547 1104.97 191.779 1097.49 195.52C1090.06 199.213 1081.23 201.06 1071 201.06ZM1170.17 200.847C1163.21 200.847 1157.03 199.687 1151.63 197.366C1146.28 194.999 1142.04 191.448 1138.92 186.713C1135.84 181.931 1134.3 175.941 1134.3 168.744C1134.3 162.684 1135.36 157.57 1137.5 153.403C1139.63 149.237 1142.56 145.851 1146.3 143.247C1150.04 140.643 1154.35 138.678 1159.23 137.352C1164.11 135.979 1169.31 135.056 1174.85 134.582C1181.06 134.014 1186.05 133.422 1189.84 132.807C1193.63 132.144 1196.37 131.221 1198.08 130.037C1199.83 128.806 1200.71 127.078 1200.71 124.852V124.497C1200.71 120.851 1199.45 118.034 1196.94 116.045C1194.43 114.057 1191.05 113.062 1186.78 113.062C1182.19 113.062 1178.5 114.057 1175.71 116.045C1172.91 118.034 1171.14 120.78 1170.38 124.284L1138.35 123.148C1139.29 116.519 1141.73 110.6 1145.66 105.392C1149.64 100.136 1155.09 96.017 1162 93.0341C1168.96 90.0038 1177.32 88.4886 1187.07 88.4886C1194.03 88.4886 1200.45 89.3172 1206.32 90.9744C1212.19 92.5843 1217.3 94.9517 1221.66 98.0767C1226.01 101.154 1229.37 104.942 1231.74 109.44C1234.16 113.938 1235.36 119.076 1235.36 124.852V199H1202.69V183.801H1201.84C1199.9 187.494 1197.41 190.619 1194.38 193.176C1191.4 195.733 1187.87 197.651 1183.8 198.929C1179.78 200.207 1175.23 200.847 1170.17 200.847ZM1180.89 178.119C1184.63 178.119 1187.99 177.362 1190.98 175.847C1194.01 174.331 1196.42 172.248 1198.22 169.597C1200.02 166.898 1200.92 163.773 1200.92 160.222V149.852C1199.92 150.373 1198.72 150.847 1197.3 151.273C1195.92 151.699 1194.41 152.101 1192.75 152.48C1191.09 152.859 1189.39 153.19 1187.64 153.474C1185.89 153.759 1184.2 154.019 1182.59 154.256C1179.33 154.777 1176.53 155.581 1174.21 156.67C1171.94 157.759 1170.19 159.18 1168.96 160.932C1167.77 162.636 1167.18 164.672 1167.18 167.04C1167.18 170.638 1168.46 173.384 1171.02 175.278C1173.62 177.172 1176.91 178.119 1180.89 178.119ZM1291.33 53.5455V199H1256.6V53.5455H1291.33Z" fill="black"/>
<path d="M0.030255 128.292C-1.88576 33.2883 87.5619 -33.4388 166.07 18.7062C191.934 35.8849 213.89 61.3275 237.497 89.1152C238.571 90.3786 239.066 90.2481 240.071 89.0745C276.996 45.931 330.462 -19.8552 405.351 5.74011C436.868 16.5116 458.768 40.2116 469.988 75.9239C507.539 195.447 399.823 294.402 307.453 228.805C284.156 212.26 264.036 189.431 240.254 161.358C238.984 159.859 238.412 160.072 237.251 161.428C210.232 193.008 181.149 227.334 145.225 241.705C72.1238 270.947 2.04577 220.458 0.030255 128.292ZM45.7736 126.45C48.1042 181.329 84.5251 206.912 123.33 197.184C156.867 188.777 185 154.59 208.961 126.041C209.769 125.079 209.316 124.688 208.761 124.088C187.949 101.572 167.625 74.0681 142.01 59.9144C92.3657 32.4826 45.6065 72.7122 45.7736 126.45ZM431.785 124.131C430.31 71.0948 394.21 42.193 352.611 53.5024C319.881 62.4006 291.912 96.4251 268.675 124.098C267.869 125.058 268.179 125.506 268.839 126.22C297.893 157.646 332.178 207.264 378.499 198.221C409.354 192.197 431.854 161.048 431.785 124.131Z" fill="black"/>
</svg>
