<?xml version="1.0" encoding="UTF-8"?>
<svg id="Layer_1" data-name="Layer 1" xmlns="http://www.w3.org/2000/svg" xmlns:xlink="http://www.w3.org/1999/xlink" viewBox="0 0 351 77">
  <defs>
    <style>
      .cls-1 {
        fill: none;
      }

      .cls-2 {
        fill: #0000d8;
      }

      .cls-3 {
        clip-path: url(#clippath);
      }
    </style>
    <clipPath id="clippath">
      <rect class="cls-1" x="282.6430054" y="55.5111008" width="58.9286003" height="16.1497993"/>
    </clipPath>
  </defs>
  <g class="cls-3">
    <path d="M296.8410034,56.8762016h3.1409912v14.244297h-3.1409912v-14.244297ZM324.9190063,60.9785004c-.0979919-.1138992-1.0800171-.797699-2.651001-.797699-1.9630127,0-3.4360046,1.5953979-3.4360046,3.760498,0,2.1651993,1.375,3.760498,3.4360046,3.760498,1.4729919,0,2.4549866-.6837006,2.651001-.797699v3.8745041c-.3919983.1139984-1.4720154.4557953-2.8470154.4557953-3.5339966,0-6.5780029-2.7349014-6.5780029-7.4069977,0-4.216301,2.7490234-7.4071007,6.5780029-7.4071007,1.4730225,0,2.553009.4559021,2.8470154.4559021v4.1022987ZM292.5209961,60.9785004c-.0979919-.1138992-1.0799866-.797699-2.651001-.797699-1.9629822,0-3.4360046,1.5953979-3.4360046,3.760498,0,2.1651993,1.375,3.760498,3.4360046,3.760498,1.4729919,0,2.4550171-.6837006,2.651001-.797699v3.8745041c-.3930054.1139984-1.4729919.4557953-2.8469849.4557953-3.4360046,0-6.5780029-2.7349014-6.5780029-7.4069977,0-4.216301,2.7489929-7.4071007,6.5780029-7.4071007,1.4729919,0,2.5529785.4559021,2.8469849.4559021v4.1022987ZM341.1180115,64.0552979c0,4.1023026-2.7490234,7.4070053-6.4790039,7.4070053-3.7310181,0-6.480011-3.3047028-6.480011-7.4070053,0-4.1023979,2.7489929-7.4070969,6.480011-7.4070969,3.8289795,0,6.4790039,3.3046989,6.4790039,7.4070969ZM334.6390076,60.2947998c-1.8659973,0-3.2400208,1.709301-3.2400208,3.760498,0,2.0512009,1.3740234,3.7605057,3.2400208,3.7605057,1.8649902,0,3.2389832-1.7093048,3.2389832-3.7605057,0-2.0511971-1.3739929-3.760498-3.2389832-3.760498ZM311.6650085,60.1808014s-1.3740234-.4558029-2.45401-.4558029c-1.276001,0-1.9630127.4558029-1.9630127,1.1396027,0,.9115982.8830261,1.1394997,1.3740234,1.3673973l.8840027.3418999c1.9629822.7977028,2.9449768,2.3930054,2.9449768,4.1023026,0,3.5326004-2.7489929,4.7861023-5.1049805,4.7861023-1.6690063,0-3.2400208-.3418045-3.3380127-.3418045v-3.3046951c.2940063.1138992,1.5710144.5697937,2.9450073.5697937,1.5709839,0,2.2579956-.5697937,2.2579956-1.3675003,0-.6837006-.5889893-1.1394958-1.3739929-1.3675003-.196991-.1138992-.4909973-.2278976-.6880188-.2278976-1.7669983-.6837006-3.1409912-1.8232002-3.1409912-4.2162971,0-2.620903,1.7669983-4.4442024,4.6140137-4.4442024,1.4729919,0,2.9449768.4557991,3.0429993.4557991v2.9628029Z"/>
  </g>
  <path d="M275.5969849,58.4854012v1.9553986h-7.071991v-1.9553986h7.071991ZM270.4639893,71v-13.9648018c0-.7821999.1710205-1.4312973.5130005-1.9473.3430176-.5213966.7960205-.9097977,1.3610229-1.1651001.5650024-.2606964,1.1789856-.391098,1.8409729-.391098.4890137,0,.9070129.0407982,1.2550049.1222992.3480225.0760002.6060181.1465988.7740173.2117996l-.5700073,1.9717026c-.1140137-.0326004-.2609863-.0706024-.4400024-.1141014-.1789856-.0489006-.3970032-.0732994-.6520081-.0732994-.59198,0-1.0159912.1465988-1.2709961.4399986-.25.2933006-.375.7168999-.375,1.2709999v13.6389008h-2.4360046Z"/>
  <path d="M261.0880127,71.2526016c-1.1730042,0-2.1970215-.268898-3.0710144-.8066025-.875-.537796-1.5539856-1.2901001-2.0370026-2.256897-.4839935-.9668045-.7249908-2.0966034-.7249908-3.3894043,0-1.2980995.2409973-2.4332962.7249908-3.4055977.483017-.9723015,1.1620026-1.7272987,2.0370026-2.2649994.8739929-.5377998,1.8980103-.8066025,3.0710144-.8066025,1.1739807,0,2.196991.2688026,3.071991.8066025.8739929.5377007,1.553009,1.2926979,2.0369873,2.2649994.4830017.9723015.7250061,2.1074982.7250061,3.4055977,0,1.2928009-.2420044,2.4225998-.7250061,3.3894043-.4839783.9667969-1.1629944,1.719101-2.0369873,2.256897-.875.5377045-1.8980103.8066025-3.071991.8066025ZM261.0969849,69.2074966c.7600098,0,1.3900146-.2008972,1.8900146-.6028976.4989929-.4019012.868988-.9368973,1.1080017-1.6049957.243988-.6681061.3659973-1.4041061.3659973-2.2080002,0-.7985039-.1220093-1.5317039-.3659973-2.1998024-.2390137-.6735992-.6090088-1.2140007-1.1080017-1.6213989-.5-.407402-1.1300049-.6110001-1.8900146-.6110001-.7659912,0-1.4019775.203598-1.9069824.6110001-.5.4073982-.8720093.9477997-1.1159973,1.6213989-.2390137.6680984-.3590088,1.4012985-.3590088,2.1998024,0,.803894.1199951,1.5398941.3590088,2.2080002.243988.6680984.6159973,1.2030945,1.1159973,1.6049957.5050049.4020004,1.1409912.6028976,1.9069824.6028976Z"/>
  <path d="M247.0500031,58.4854012v1.9553986h-6.8359985v-1.9553986h6.8359985ZM242.0480042,55.4870987h2.4359894v11.8384018c0,.472496.0700073.8283005.2120056,1.0672989.1410065.2334976.322998.3937988.5449982.4806976.2290039.0815048.4759979.1222.7420044.1222.1949921,0,.3670044-.0135956.5130005-.0406952.1470032-.0271988.2610016-.0489044.3419952-.0652008l.4400024,2.0123978c-.1410065.0542984-.3419952.1086044-.6029968.163002-.2600098.0597-.5859985.0923004-.977005.097702-.6409912.0108948-1.2389984-.1032028-1.7929993-.3422012s-1.0019989-.6082993-1.3439941-1.1080017c-.3420105-.4997025-.5130005-1.1270981-.5130005-1.882103v-12.3434982Z"/>
  <path d="M231.6640015,71v-12.5145988h2.3540039v1.987999h.1309967c.2279968-.6735001.6300049-1.2030983,1.2059937-1.5886993.5810089-.3911018,1.2380066-.5867004,1.9710083-.5867004.1519928,0,.3320007.0055008.5379944.0163002.2120056.0108986.3769989.024498.496994.0407982v2.3302002c-.0979919-.0271988-.2719879-.0570984-.5209961-.0896988-.25-.038002-.5-.0569992-.75-.0569992-.5759888,0-1.0889893.1222-1.5399933.3666-.4450073.2389984-.7980042.5730972-1.0590057,1.0021973-.2610016.4237022-.3909912.9071007-.3909912,1.4502029v7.6423988h-2.4360046Z"/>
  <path d="M222.2429962,71.2770004c-.7929993,0-1.5099945-.1465988-2.151001-.4400024-.6409912-.2986984-1.1490021-.7304993-1.522995-1.2953949-.3699951-.5649033-.5540009-1.2574005-.5540009-2.0776062,0-.7061005.1349945-1.2873001.4069977-1.7435989.2720032-.4561996.6380005-.8174973,1.1000061-1.0835953.4619904-.2662048.9779968-.4671021,1.5480042-.6029053.5699921-.1357956,1.1509857-.2389984,1.743988-.309597.7490082-.0868988,1.3570099-.1575012,1.8250122-.2118988.4669952-.0597.8059998-.1548004,1.0179901-.2851028.2120056-.1303978.3180084-.3421974.3180084-.635498v-.0571022c0-.7114983-.201004-1.2627983-.6030121-1.6539001-.3969879-.391098-.9889984-.5865974-1.776001-.5865974-.8199921,0-1.4669952.1819-1.9389954.5458984-.4680023.3584023-.7910004.7577019-.9700012,1.1976013l-2.2890015-.5214005c.2710114-.7603989.6679993-1.3741989,1.1890106-1.841301.5269928-.472599,1.1329956-.8148003,1.8170013-1.0265999.6839905-.2173004,1.4039917-.325901,2.1589966-.325901.5,0,1.0289917.0597,1.5889893.179203.5650024.1140976,1.0920105.3258972,1.5800018.635498.4950104.3096008.8990021.7523003,1.2140045,1.3281021.3150024.5702972.4730072,1.3116989.4730072,2.2241974v8.3105011h-2.3790131v-1.7109985h-.0979919c-.1569977.3151016-.3939972.6246948-.7089996.9287949-.3150024.3042068-.7189941.5568008-1.2140045.7578049-.4940033.2008972-1.0859985.3013992-1.776001.3013992ZM222.772995,69.3216019c.6730042,0,1.2490082-.1331024,1.727005-.3992004.4830017-.2662048.8500061-.6138,1.1000061-1.0429001.2549896-.4345016.3829956-.8989029.3829956-1.3932037v-1.6131973c-.0870056.0868988-.2550049.168396-.5050049.2444-.2449951.0706024-.5240021.1331024-.8389893.1874008-.3150024.0488968-.6220093.0950012-.9210052.1384964-.298996.038002-.548996.0706024-.75.0978012-.4720001.0597-.904007.160202-1.2949982.3013992-.3860016.1412048-.6950073.344902-.9290009.6110992-.2279968.260704-.3420105.6082993-.3420105,1.0429001,0,.6029053.2230072,1.0591049.6680145,1.3688049.4449921.3041,1.0129852.4561996,1.7029877.4561996Z"/>
  <path d="M204.4409943,75.6930008v-17.2075996h2.3790131v2.0287971h.2039948c.1409912-.2607994.3439941-.5621986.6109924-.9043999.2660065-.3421974.6350098-.6409988,1.1080017-.8961983.4720001-.2607994,1.0970001-.3911018,1.8740082-.3911018,1.0099945,0,1.9120026.2553024,2.7050018.7658005.7929993.510601,1.4149933,1.2466011,1.8649902,2.2080002.4570007.9614029.6849976,2.1184006.6849976,3.4708977,0,1.3524017-.2259979,2.5121002-.6769867,3.4789047-.4500122.9613953-1.0700073,1.7028961-1.8570099,2.2242966-.7879944.5159988-1.6869965.7740021-2.696991.7740021-.7600098,0-1.3820038-.1276016-1.8660126-.3828964-.4779968-.2553024-.8529968-.5540009-1.1239929-.8962021-.2720032-.3422012-.4810028-.6464005-.6269989-.9126053h-.1470032v6.6403046h-2.4360046ZM206.8280029,64.7426987c0,.8798981.1279907,1.6511993.3829956,2.3139038.2550049.6626968.625,1.1813965,1.1080017,1.5561981.4830017.3693008,1.0749969.5540009,1.776001.5540009.7279968,0,1.3359985-.1928024,1.8249969-.5784988.4889984-.3909988.8580017-.9206009,1.1080017-1.5886993.2559967-.6681061.3829956-1.4204025.3829956-2.2569046,0-.8255997-.125-1.5669975-.375-2.2243004-.243988-.6571999-.6129913-1.1758995-1.1080017-1.5560989-.4879913-.3801994-1.0999908-.5704002-1.8329926-.5704002-.7059937,0-1.3029938.1819992-1.7920074.5459023-.4839935.3638992-.8499908.8717995-1.0999908,1.5235977-.25.6518021-.375,1.4122009-.375,2.2812996Z"/>
  <path d="M182.1490021,71l-3.6820068-12.5145988h2.5169983l2.4530029,9.1903954h.1220093l2.4599915-9.1903954h2.5180054l2.4440002,9.1497002h.121994l2.4360046-9.1497002h2.5180054l-3.6750031,12.5145988h-2.4840088l-2.5429993-9.0355988h-.1869965l-2.5419922,9.0355988h-2.477005Z"/>
  <path d="M171.2640076,71.2526016c-1.1730042,0-2.1970062-.268898-3.0710144-.8066025-.875-.537796-1.5539856-1.2901001-2.0369873-2.256897-.4840088-.9668045-.7250061-2.0966034-.7250061-3.3894043,0-1.2980995.2409973-2.4332962.7250061-3.4055977.4830017-.9723015,1.1619873-1.7272987,2.0369873-2.2649994.8740082-.5377998,1.8980103-.8066025,3.0710144-.8066025,1.1729889,0,2.196991.2688026,3.071991.8066025.8740082.5377007,1.553009,1.2926979,2.0370026,2.2649994.4830017.9723015.7250061,2.1074982.7250061,3.4055977,0,1.2928009-.2420044,2.4225998-.7250061,3.3894043-.4839935.9667969-1.1629944,1.719101-2.0370026,2.256897-.875.5377045-1.8990021.8066025-3.071991.8066025ZM171.2720032,69.2074966c.7610016,0,1.3909912-.2008972,1.8909912-.6028976.4990082-.4019012.8690033-.9368973,1.1080017-1.6049957.2440033-.6681061.3659973-1.4041061.3659973-2.2080002,0-.7985039-.121994-1.5317039-.3659973-2.1998024-.2389984-.6735992-.6089935-1.2140007-1.1080017-1.6213989-.5-.407402-1.1299896-.6110001-1.8909912-.6110001-.7660065,0-1.401001.203598-1.9060059.6110001-.5.4073982-.871994.9477997-1.1159973,1.6213989-.2389984.6680984-.3589935,1.4012985-.3589935,2.1998024,0,.803894.1199951,1.5398941.3589935,2.2080002.2440033.6680984.6159973,1.2030945,1.1159973,1.6049957.5050049.4020004,1.1399994.6028976,1.9060059.6028976Z"/>
  <path d="M154.7169952,63.5695v7.4305h-2.4359894v-12.5145988h2.3379974v2.0368996h.1549988c.2879944-.6627007.7379913-1.1949997,1.352005-1.5969009.618988-.4019012,1.3989868-.6029015,2.3379974-.6029015.8529968,0,1.5999908.179203,2.2409973.5377007.6409912.3530998,1.1380005.8799019,1.4909973,1.5806007s.5299988,1.5671005.5299988,2.599102v7.9600983h-2.4360046v-7.6668015c0-.9070969-.2369995-1.6158981-.7089996-2.1264992-.4729919-.5159988-1.121994-.7739983-1.947998-.7739983-.5639954,0-1.0670013.1222-1.5069885.3666-.4340057.2444-.779007.6028976-1.0350037,1.0755005-.2490082.4670982-.3740082,1.0319977-.3740082,1.6946983Z"/>
  <g>
    <path d="M20.718399,35.4662018l-.2149982.4301987h0l.0001984.0000992.0006008.0003014.0018005.0009003.0063992.0032005.0233002.0113983c.0198994.0098.0485001.0237007.0841007.040699.0711002.0339012.1707001.0806007.2852993.1315002.2143002.0951996.5002995.2141991.7537994.2896996,3.8935013,1.7108002,8.1100998,2.5636024,12.5788021,2.629303h.007c2.721199,0,5.1267967-.4647026,7.2092972-1.3380013l.000103.0001984.011898-.0053978c2.0728989-.936203,3.7098999-2.1548996,4.8767014-3.802002,1.1609993-1.6390991,1.7791977-3.4914989,1.7791977-5.5454998,0-2.4937992-.6753998-4.4991989-1.9365997-5.9706001l.0000992-.0000992-.0085983-.0095997c-1.2776985-1.4120998-2.7668991-2.4988003-4.5335999-3.1797009-1.7266006-.7297001-3.9656982-1.3864002-6.7018013-2.0377998v-.0002003l-.0116005-.0023994c-2.1362-.4531994-3.8014984-.9027996-5.0058975-1.3465004-1.1834011-.4359999-2.1027012-.9902-2.8965015-1.7229996-.7294998-.6733999-1.0808983-1.5762997-1.0808983-2.7030001,0-1.6406097.7465992-2.9840202,2.3654995-3.9433599v.0000596l.0068989-.00421c1.5901012-.9785199,3.7691021-1.4893899,6.4461002-1.4893899,2.8022003,0,5.5471001.5093999,8.2368011,1.4059901.2076988.0692301.4453011.1369901.6270981.1865702.0918007.0250196.1710014.0458598.2274017.0604897l.0663986.0170703.0181999.0046.0049019.0012298.0013008.00033.0003967.0001001.000103.00003.0000992.00001.1166992-.4665399-.1166992.4665499.403801.1009498.1577988-.3851199,1.6258011-3.9668701.1213989-.2961199-.2262993-.2263-.3400993.34005c.3400993-.34005.3391991-.3408699.338398-.3416898l-.0015984-.00161-.0032005-.00314-.0063019-.0059202-.0117989-.0106199c-.0074997-.0065501-.0147018-.0123501-.0211983-.0174301-.0129013-.01001-.0250015-.01841-.0354004-.02527-.0205002-.0134399-.0413017-.0251501-.0611-.0355599-.0395012-.0206501-.0929031-.0452302-.1691017-.0766001-.1521988-.06268-.4221001-.16344-.908699-.3257601-3.1803017-1.1913499-6.6823006-1.7833119-10.5653992-1.7833119-2.906002,0-5.4525013.461382-7.5521011,1.475912-2.0860996.94323-3.7222004,2.3001298-4.8185005,4.0132302-1.0905991,1.7040296-1.6366005,3.5499897-1.6366005,5.6567497,0,2.3678999.6779003,4.3778009,2.0102005,5.8503008,1.2833996,1.418499,2.8407993,2.5033989,4.6694012,3.1819992,1.7825985.7257004,4.0792999,1.4463005,6.8832989,2.1637001h0l.0059013.0014c2.1278992.5158997,3.7397003,1.031599,4.9034996,1.4195995,1.1256981.3752003,2.0360985.8663006,2.7534981,1.5240002.6867027.6294003,1.0146027,1.3484993,1.0146027,2.2467003,0,1.8381996-.6959,3.1744995-2.0747032,4.0765991-1.4135971.9248009-3.5950966,1.4253006-6.6136971,1.4253006-3.5681019,0-6.9388008-.6987-10.0534019-2.0928001-.1887989-.1103001-.4425983-.227499-.6373997-.3132-.1054001-.0464001-.1999989-.0863991-.2682991-.1147003-.0342007-.0142002-.0620003-.0255985-.0813007-.0334988l-.0226002-.0091-.0061989-.0025005-.0017014-.0007-.0004997-.0002003-.0000992-.0000992h-.0001011l-.1786995.4464989.1786003-.4464989-.4274006-.1710014-.1893997.4196014-1.8209,4.0318985-.1903.4213028.4134998.2066994.2150993-.4300995Z"/>
    <path d="M34.2446289,39.484375c-4.605957-.0673828-8.9008789-.9658203-12.7792969-2.6699219-.2119141-.059082-.5117188-.1826172-.7407227-.2841797l-.0058594.0117188-.9194336-.4116211.0224609-.0371094-.3603516-.1806641,2.5800781-5.7133789,1.3017578.5205078-.0039062.0092773c.2026367.090332.4511719.2075195.6396484.3173828,2.9936523,1.3374023,6.3100586,2.0273438,9.8105469,2.0273438,2.8476562,0,4.984375-.453125,6.3505859-1.3466797,1.2495117-.8178711,1.8569336-2.0195312,1.8569336-3.6743164,0-.7641602-.2646484-1.3476562-.8588867-1.8920898-.6479492-.5942383-1.4921875-1.0595703-2.5800781-1.4223633-1.171875-.390625-2.7832031-.9038086-4.8652344-1.4086914-2.8330078-.7246094-5.1699219-1.4594727-6.9570312-2.1870117-1.8476562-.6855469-3.4824219-1.7988281-4.8447266-3.3046875-1.3964844-1.543457-2.1347656-3.6777344-2.1347656-6.1728516,0-2.1796875.5600586-4.1147461,1.7124023-5.9160156,1.1469727-1.7919922,2.8374023-3.2026367,5.0253906-4.1918945C28.5756836.5507812,31.1870117.0380859,34.2446289.0380859c3.965332,0,7.4765625.5932617,10.734375,1.8139648.4873047.1621094.765625.2666016.9233398.3320312.0175781.0068359.0341797.0141602.0498047.0205078l.078125-.078125.7919922.7915039-2.1835938,5.3295898-1.2744141-.3178711.0024414-.0078125c-.1640625-.0458984-.3500977-.1005859-.5170898-.1567383-2.7504883-.9165039-5.4707031-1.3813477-8.0844727-1.3813477-2.5805664,0-4.6645508.4770508-6.1943359,1.418457-1.4467773.8574219-2.1435547,2.0117188-2.1435547,3.5375977,0,1.0058594.3027344,1.7744141.9262695,2.3496094.7587891.7006836,1.628418,1.2167969,2.7368164,1.6254883,1.1879883.4375,2.8500977.8837891,4.9389648,1.3271484,2.9873047.7109375,5.1411133,1.3662109,6.8007812,2.0678711,1.7441406.6713867,3.331543,1.7836914,4.703125,3.2998047,1.3793945,1.6088867,2.0698242,3.7226562,2.0698242,6.3032227,0,2.1147461-.628418,4.0737305-1.8676758,5.8232422-1.1728516,1.6547852-2.831543,2.9506836-5.0717773,3.9624023-2.2011719.9228516-4.6894531,1.3857422-7.4189453,1.3857422ZM20.8251953,35.5185547l.2749023.1259766c.1982422.0883789.4614258.1992188.6953125.2685547,3.8168945,1.6728516,7.9863281,2.5439453,12.449707,2.6098633,2.6005859,0,4.9638672-.4375,7.0229492-1.3007812,2.0795898-.9394531,3.6113281-2.1303711,4.6821289-3.6416016,1.1220703-1.5839844,1.690918-3.3564453,1.690918-5.2675781,0-2.3447266-.612793-4.2480469-1.8212891-5.6577148-1.2875977-1.4233398-2.7104492-2.421875-4.3496094-3.0537109-1.625-.6860352-3.7304688-1.3256836-6.6401367-2.0185547-2.1342773-.453125-3.8408203-.9121094-5.0722656-1.3657227-1.230957-.4536133-2.2021484-1.0322266-3.0566406-1.8208008-.8198242-.7568359-1.2358398-1.7851562-1.2358398-3.0566406,0-1.8681641.8754883-3.3339844,2.6015625-4.3569336,1.6835938-1.0356445,3.9370117-1.5610352,6.6982422-1.5610352,2.7172852,0,5.5400391.4814453,8.3886719,1.4311523.199707.0664062.4277344.1308594.6020508.1787109l.3085938.0810547,1.6259766-3.9663086-.0024414-.0024414c-.0532227-.0292969-.0942383-.046875-.1518555-.0708008-.1479492-.0610352-.4086914-.1577148-.878418-.3149414-3.1645508-1.1850586-6.5649414-1.7583008-10.4130859-1.7583008-2.9116211,0-5.3818359.4804688-7.3427734,1.4282227-2.0268555.9165039-3.578125,2.206543-4.6225586,3.8393555-1.050293,1.6416016-1.5610352,3.4072266-1.5610352,5.3974609,0,2.2524414.6518555,4.1640625,1.8857422,5.5273438,1.2578125,1.3901367,2.7651367,2.4174805,4.4804688,3.0541992,1.7607422.7163086,4.0556641,1.4375,6.8349609,2.1484375,2.1166992.5131836,3.753418,1.0341797,4.9428711,1.4311523,1.21875.40625,2.1762695.9379883,2.9262695,1.6254883.7875977.722168,1.1704102,1.5727539,1.1704102,2.6010742,0,1.9765625-.7714844,3.4838867-2.2924805,4.4790039-1.5249023.9980469-3.8388672,1.5039062-6.8769531,1.5039062-3.6367188,0-7.0854492-.7182617-10.2495117-2.1347656-.2207031-.1254883-.4555664-.2329102-.6352539-.3125l-.3657227-.1538086-1.8208008,4.0317383h.0004883l.105957.0532227.0004883-.0009766Z"/>
  </g>
  <g>
    <path d="M59.3862,19.7201996l-.0000992.0086002.0000992.0086002c.0662003,3.7056999.8609009,7.0342999,2.3978996,9.9078007,1.5382996,2.8758984,3.7469978,5.1504002,6.5510979,6.8194981,2.8198013,1.6784019,6.160202,2.4738007,9.8705063,2.4738007,3.7102966,0,6.9839935-.7953987,9.8016968-2.4715004,2.808197-1.6055984,5.0174026-3.8822975,6.5550003-6.8220997,1.6014023-2.9373989,2.3964996-6.2006989,2.4626999-9.9074993l.0002975-.0128994-.0004959-.0129013c-.1322021-3.7024994-.9269028-6.9610996-2.4605026-9.8951397l-.0021973-.0040197c-1.5382996-2.8759198-3.7469025-5.1504197-6.5511017-6.81954-2.8185043-1.6776899-6.093399-2.4737919-9.805397-2.4737919-3.7103043,0-7.050705.7953621-9.8705063,2.4737919-2.8041,1.6691203-5.0127983,3.9436202-6.5510979,6.81954-1.5369987,2.8734598-2.3316994,6.2020597-2.3978996,9.9077597ZM89.7437973,26.7919998l-.0000992-.0000992-.0050964.0105c-1.0016022,2.0656986-2.4991989,3.7486992-4.4950027,4.9336987-2,1.1875-4.3199005,1.8185005-7.0378952,1.8185005-2.7196045,0-5.099205-.6315994-7.0274048-1.8120995-1.9451981-1.2560005-3.4458008-2.8833008-4.5106964-4.9505005-1.0643005-2.066-1.572403-4.4589005-1.572403-7.0632s.5081024-4.9972,1.572403-7.0632c1.0690994-2.0753002,2.5718994-3.7621994,4.5059967-4.9475999,1.9290009-1.1823301,4.3103027-1.8150001,7.0321045-1.8150001,2.7144928,0,5.0318985.6293602,7.0301971,1.81394,1.9438019,1.2557201,3.4434967,2.8824596,4.5078964,4.9486599,1.0643005,2.066,1.572403,4.4589005,1.572403,7.0632s-.5081024,4.9972-1.572403,7.0632Z"/>
    <path d="M78.2055664,39.4189453c-3.8793945,0-7.2832031-.8544922-10.1166992-2.5410156-2.902832-1.7285156-5.1669922-4.0859375-6.7290039-7.0063477-1.5605469-2.9174805-2.3862305-6.3242188-2.4545898-10.1254883v-.034668c.0683594-3.8012695.894043-7.2080078,2.4550781-10.1259766,1.5615234-2.9199219,3.8256836-5.2773438,6.7285156-7.0058594C70.9223633.8930664,74.3261719.0380859,78.2055664.0380859c3.8359375,0,7.2177734.8549805,10.0517578,2.5415039,2.902832,1.7280273,5.1665039,4.0854492,6.7290039,7.0063477,1.5600586,2.9838867,2.3828125,6.2875977,2.519043,10.1083984-.0678711,3.8798828-.8925781,7.1933594-2.5205078,10.1806641-1.5615234,2.9858398-3.8300781,5.3461914-6.7387695,7.0092773-2.8251953,1.6806641-6.2060547,2.534668-10.0405273,2.534668ZM59.8671875,19.7250977v.0039062c.0654297,3.6469727.8530273,6.9072266,2.3408203,9.6889648,1.4785156,2.7641602,3.6225586,4.9960938,6.3730469,6.6337891,2.6821289,1.5961914,5.9204102,2.4057617,9.6245117,2.4057617,3.6591797,0,6.8740234-.8085938,9.5556641-2.4038086,2.7539062-1.574707,4.8959961-3.8041992,6.375-6.6318359,1.5561523-2.8549805,2.3427734-6.0234375,2.4077148-9.6933594-.1308594-3.6738281-.9179688-6.8432617-2.4057617-9.6894531-1.4785156-2.7641602-3.6225586-4.9956055-6.3730469-6.6333008-2.6831055-1.5961914-5.8994141-2.4057617-9.5595703-2.4057617-3.7041016,0-6.9423828.8095703-9.6245117,2.4057617-2.7504883,1.6376953-4.8945312,3.8696289-6.3725586,6.6333008-1.487793,2.78125-2.2753906,6.0400391-2.3413086,9.6860352ZM78.2055664,34.0356445c-2.7885742,0-5.2373047-.6333008-7.2783203-1.8828125-2.0595703-1.3295898-3.5893555-3.0092773-4.6875-5.140625-1.0786133-2.0947266-1.6254883-4.5449219-1.6254883-7.2832031,0-2.7387695.546875-5.1889648,1.6254883-7.2836914,1.1337891-2.199707,2.7089844-3.9282227,4.6826172-5.1376953,2.0419922-1.2509766,4.4921875-1.8857422,7.2832031-1.8857422,2.722168,0,5.1699219.6328125,7.2753906,1.8813477,2.0634766,1.3325195,3.5922852,3.0112305,4.6904297,5.1420898,1.0786133,2.0942383,1.6259766,4.5449219,1.6259766,7.2836914,0,2.7353516-.5458984,5.1835938-1.6225586,7.2763672l-.0019531.003418c-1.0668945,2.2001953-2.6420898,3.9287109-4.6835938,5.1411133-2.1074219,1.2514648-4.5581055,1.8857422-7.2836914,1.8857422ZM78.2055664,6.3837891c-2.6108398,0-4.8920898.5869141-6.7802734,1.7441406-1.8217773,1.1162109-3.2788086,2.7172852-4.3300781,4.7578125-1.0083008,1.9570312-1.519043,4.2592773-1.519043,6.8432617,0,2.5834961.5107422,4.8857422,1.519043,6.8427734,1.0185547,1.9775391,2.4394531,3.5371094,4.34375,4.7670898,1.8779297,1.1489258,4.1582031,1.7348633,6.7666016,1.7348633,2.5864258,0,4.8081055-.5727539,6.7924805-1.7509766,1.8769531-1.1142578,3.3261719-2.7060547,4.3081055-4.7304688l.0097656-.0205078c1.0083008-1.956543,1.5195312-4.2587891,1.5195312-6.8427734s-.5112305-4.8867188-1.5195312-6.8432617c-1.0185547-1.9770508-2.4384766-3.5356445-4.3408203-4.7651367-1.9667969-1.1655273-4.1865234-1.7368164-6.7695312-1.7368164Z"/>
  </g>
  <g>
    <path d="M105.5179977.714177h-.7200012l.276001.665153,15.3470001,37.0023686.1230011.2966995h6.1709976l.1230011-.2973976L142.1199951,1.37866l.2740021-.664483h-6.1809998l-.1210022.301833-12.4959946,31.145489L111.0370026,1.01524l-.1220016-.3010629h-5.3970032Z"/>
    <path d="M127.0361328,39.1591797h-6.8134766L104.0771484.2333984h7.1616211l.2441406.6010742,12.1123047,30.0385742L135.8876953.2333984h7.2250977l-16.0766602,38.9257812ZM120.8652344,38.1972656l5.5283203-.0004883L141.675293,1.1953125h-5.137207l-12.940918,32.2548828L110.5908203,1.1953125h-5.0722656l15.3466797,37.0019531Z"/>
  </g>
  <g>
    <path d="M153.0440063,38.3829002l12.496994-29.8931904,12.4980011,29.8931904.1230011.2954979h6.1839905l-.2829895-.668499L168.3899994,1.00753l-.1239929-.293353h-5.3840027l-.125.293353-15.6719971,37.0023692-.2830048.668499h6.1190033l.1230011-.2954979Z"/>
    <path d="M185.0703125,39.1591797h-7.2285156l-12.3007812-29.4228516-12.2993164,29.4228516h-7.1660156L162.5639648.2333984h6.0209961l16.4853516,38.9257812ZM178.4824219,38.1972656h5.1386719l-.0009766-.0004883L167.9472656,1.1953125l-4.7480469.0009766-15.6713867,37.0009766h5.0722656l12.940918-30.9541016,12.9414062,30.9541016Z"/>
  </g>
  <g>
    <path d="M196.6000061,37.9373016v.4808998h25.2179871v-5.7089996h-19.5099945l-.0639954-31.5150918-.0010071-.479933h-5.6429901v37.2231246Z"/>
    <path d="M222.2988281,38.8989258h-26.1796875V.2333984h6.6035156l.0644531,31.9946289h19.5117188v6.6708984ZM197.0800781,37.9370117h24.2578125v-4.7470703h-19.5097656l-.0654297-31.9946289h-4.6826172v36.7416992Z"/>
  </g>
  <g>
    <path d="M234.3439941.974225h-.4809875v36.9630767h.4809875v.4157982h26.0379944v-5.3838997h-20.8099823v-10.6135998h18.923996v-5.3838997h-18.923996V6.35812h20.8099823V.974225h-26.0379944Z"/>
    <path d="M260.8623047,38.8339844h-26.9990234v-.4155273h-.4804688V.4931641h27.4794922v6.3457031h-20.8095703v9.6518555h18.9238281v6.3457031h-18.9238281v9.6518555h20.8095703v6.3457031ZM234.8242188,37.8720703h25.0771484v-4.421875h-20.8095703v-11.5756836h18.9238281l-.0009766-4.421875h-18.9228516V5.8769531h20.8095703V1.4550781h-25.5576172v36.0014648h.4804688v.4155273Z"/>
  </g>
  <g>
    <path d="M275.0920105,38.1974983v.4808998h5.6429749l.0010071-.4797974.0620117-26.6527004,22.7609863,26.9618015.1440125.1706963h4.151001V.714177h-5.7090149v27.2570239L279.322998.885209l-.144989-.171032h-3.605011v.480903-.480903h-.4809875v37.4833213Z"/>
    <path d="M308.3339844,39.1591797h-4.8535156l-.2890625-.340332-21.9160156-25.9614258-.0605469,26.3017578h-6.6035156V.2333984h4.7880859l.2900391.340332,21.9746094,26.0805664V.2333984h6.6699219v38.9257812ZM303.9257812,38.1972656h3.4472656V1.1953125h-4.7480469v28.0927734l-23.6699219-28.0927734-3.3828125.0009766.0009766,37.0009766h4.6826172l.0644531-27.9628906,23.6054688,27.9628906Z"/>
  </g>
  <g>
    <path d="M331.5390015,38.1973991v.4808998h5.7089844V6.4231701h12.8760071V1.0392801h-31.3959961v5.38389h12.8110046v31.774229Z"/>
    <path d="M337.7285156,39.1591797h-6.6699219V6.9042969h-12.8115234V.5581055h32.3574219v6.3461914h-12.8759766v32.2548828ZM332.0195312,38.1972656h4.7480469V5.9423828h12.8759766l-.0009766-4.4223633h-30.4345703v4.4223633h12.8115234v32.2548828Z"/>
  </g>
  <g>
    <path d="M6.6567302,1.19508v-.480903H.947682v37.9642211h5.7090482V1.19508Z"/>
    <path d="M7.1376953,39.1591797H.4667969V.2333984h6.6708984v38.9257812ZM1.4287109,38.1972656h4.7470703V1.1953125H1.4287109v37.0019531Z"/>
  </g>
  <path class="cls-2" d="M167.5579987,24.2159004l1.8849945,3.1864986-1.8849945,3.2515011h-3.6419983l-1.8860016-3.2515011,1.8860016-3.1864986h3.6419983Z"/>
</svg>