<svg xmlns="http://www.w3.org/2000/svg" viewBox="0 0 400 245" width="400" height="245"><path fill="none" pointer-events="none" d="M0 0h400v245H0z"/><path fill="none" pointer-events="none" d="M0 0h400v245H0z"/><path fill="none" pointer-events="none" d="M0 0h400v245H0z"/><g fill="#231f20"><path d="M196.192 155.635h2.457l12.659 17.457v-17.457h2.172v21.172h-2.059l-13.058-17.973v17.973h-2.171v-21.172M218.88 155.635h13.999v2.143h-11.743v7h11.457v2.115h-11.457v7.857h11.858v2.057H218.88v-21.172M244.222 157.778h-7.942v-2.143h18.143v2.143h-7.943v19.03h-2.258v-19.03M257.165 155.635h2.315l5.57 17.513 5.686-17.513h1.944l5.657 17.513 5.6-17.513h2.172l-6.8 21.314h-1.943l-5.715-17.627-5.686 17.627h-1.97l-6.83-21.314M307.194 166.234c0-5.714-2.656-8.798-8.429-8.798-5.743 0-8.371 3.084-8.371 8.798 0 5.744 2.628 8.831 8.371 8.831 5.773 0 8.43-3.087 8.43-8.83zm-19.057-.027c0-7.543 3.857-10.915 10.628-10.915 6.8 0 10.686 3.372 10.686 10.915 0 7.571-3.886 10.943-10.686 10.943-6.771 0-10.628-3.372-10.628-10.943M323.223 166.12c3 0 4.857-.913 4.857-4.257 0-3.285-1.8-4.142-4.942-4.142h-6.886v8.4zm-.628 2.057h-6.343v8.63h-2.2v-21.172h9.143c4.914 0 7.143 1.972 7.143 6.172 0 3.657-1.743 5.8-5.43 6.284l5.114 8.716h-2.399l-5.028-8.63M341.566 165.578l-4.229 4.628v6.601h-2.2v-21.172h2.2v11.687l10.715-11.687h2.6l-7.6 8.315 8.628 12.857h-2.542l-7.572-11.229M353.567 174.664l1.143-1.713c2.541 1.598 5.028 2.142 7.57 2.142 4.373 0 6.315-1.228 6.315-4.144 0-3-2.514-3.427-6.315-4.112-4.571-.802-7.657-1.575-7.657-5.857 0-4.088 2.628-5.688 7.657-5.688 3.316 0 5.687.744 7.372 1.886l-1.2 1.829c-1.514-1-3.772-1.658-6.172-1.658-3.799 0-5.428 1.059-5.428 3.572 0 2.687 2.2 3.2 5.972 3.885 4.628.83 7.97 1.516 7.97 6.058 0 4.201-2.685 6.228-8.456 6.228-3.2 0-6.086-.656-8.771-2.428M392.93 68.132c-29.764 0-31.028 13.335-31.028 32.148v46.188h7.017V100.28c0-14.179-.561-25.55 24.011-25.55 2.632 0 4.968.138 7.07.383v-6.687a80.892 80.892 0 0 0-7.07-.294M45.777 116.425V69.674h7.16v46.89c0 13.479-.139 24.848 24.57 24.848 24.567 0 24.007-11.37 24.007-25.55V69.674h7.02v46.188c0 18.814-1.266 32.15-31.027 32.15-29.905 0-31.73-13.336-31.73-31.587M183.165 99.717v46.751h-7.16v-46.89c0-13.477.14-24.848-24.568-24.848-24.57 0-24.006 11.371-24.006 25.55v46.188h-7.02V100.28c0-18.813 1.264-32.148 31.026-32.148 29.904 0 31.728 13.335 31.728 31.585M196.193 69.816h6.87v76.652h-6.87V69.816M251.923 112.942c12.399 0 18.56-6.042 18.56-18.249 0-12.204-6.649-17.997-18.867-17.997h-28.81v36.246zm-35.99-43.126h35.886c17.795 0 25.864 8.845 25.864 24.569 0 15.827-7.967 25.45-25.963 25.45h-28.913v26.633h-6.873V69.816M292.703 102.665h52.224c-.701-15.302-1.685-28.357-24.007-28.357-21.479 0-27.375 11.653-28.217 28.357zm-7.023 5.196c0-22.6 6.462-40.011 35.383-40.011 29.902 0 30.883 20.074 30.745 41.273h-59.246c.14 18.674 4.771 32.574 29.06 32.574 12.916 0 18.814-3.512 25.131-8.145l3.929 5.195c-7.018 5.194-15.3 9.265-29.06 9.265-30.323 0-35.942-17.55-35.942-40.15M2.67 163.102c29.763 0 31.027-13.337 31.027-32.151V69.674h-7.02v61.277c0 14.178.56 25.554-24.007 25.554a67.15 67.15 0 0 1-2.67-.057v6.618c.864.022 1.752.036 2.67.036M384.288 137.736a4.225 4.225 0 0 0-4.222 4.22 4.226 4.226 0 0 0 4.222 4.218 4.225 4.225 0 0 0 4.216-4.218 4.224 4.224 0 0 0-4.216-4.22zm0 9.064a4.853 4.853 0 0 1-4.849-4.844 4.854 4.854 0 0 1 4.849-4.847 4.85 4.85 0 0 1 4.843 4.847 4.849 4.849 0 0 1-4.843 4.844"/><path d="M384.773 141.904c.76 0 1.195-.22 1.195-1.032 0-.804-.422-.99-1.218-.99h-1.705v2.022zm-.173.697h-1.555v2.14h-.741v-5.566h2.478c1.41 0 1.953.578 1.953 1.677 0 .898-.382 1.519-1.344 1.698l1.26 2.192h-.808L384.6 142.6"/></g></svg>
