<svg width="243" height="234" viewBox="0 0 243 234" fill="none" xmlns="http://www.w3.org/2000/svg">
<g clip-path="url(#clip0_923_11003)">
<path d="M84.01 75.6501C69.74 87.2401 78.41 94.5601 93.38 95.2901C105.06 95.9301 116.79 94.3201 128.25 92.0901C135.89 90.5101 143.54 88.7001 150.67 85.9501C167.52 79.3001 204.09 60.0301 194.82 37.8401C191.99 31.3801 186.29 26.6201 179.62 24.2801C174.41 22.1801 168.79 20.8601 163.23 20.1001C127.04 15.3601 82.64 25.9001 49.3 40.1901C34.83 46.3901 20.69 53.5801 7.43 62.1101C13.63 57.1801 20.22 52.7301 26.98 48.5701C62.67 26.6801 103.89 13.1401 145.97 12.1001C156.08 12.1601 166.54 12.8801 176.29 15.7401C178.13 16.1001 180.45 17.1001 182.22 17.7301C184.16 18.4201 186.21 19.3101 188.09 20.4401C199.78 26.9601 207.17 42.1301 201.13 55.0901C193.16 72.8401 170 84.8201 152.57 91.1601C144.89 93.7901 137.03 95.4401 129.06 96.6701C117.19 98.3901 105.09 99.4901 93.11 98.0301C77.49 96.4701 67.45 86.7801 84.01 75.6601V75.6501Z" fill="url(#paint0_linear_923_11003)"/>
<path d="M161.69 65.8302C177.81 48.7102 146.31 48.1702 135.65 48.2902C126.67 48.4302 117.87 50.1302 109.13 52.1802C86.81 57.9402 62.59 66.6102 46.15 83.2202C44.71 84.6802 43.32 86.3902 42.06 87.9902C38.95 92.8702 36.22 98.8802 37.42 104.62C39.32 112.63 47.07 116.89 54.73 119.67C82.05 128.56 115.88 123.17 143.9 118.35C132.27 122.13 120.33 124.88 108.26 126.88C96.1 128.8 83.67 129.95 71.34 129.01C52.95 127.92 25.08 119.12 31.06 95.4602C32.79 88.8702 36.33 83.1202 41.02 78.3302C56.67 62.6102 77.86 54.3402 98.9 48.8002C113.91 45.1102 129.53 42.8402 144.96 45.0202C156.73 46.3102 177.61 52.1902 161.7 65.8402L161.69 65.8302Z" fill="black"/>
<path d="M86.76 111.49C127.9 111.49 211.35 87.7998 232.39 50.3398C238.99 39.0298 240.02 23.5898 228.89 14.8498C220.61 7.47977 210.31 3.63977 199.3 1.00977C213.08 2.01977 232.13 9.32977 239.52 21.8298C247.47 36.9398 239.37 54.7898 228.75 66.2798C211.1 85.3198 186.27 95.7798 161.92 103.22C137.69 110.3 111.96 114.94 86.75 111.48L86.76 111.49Z" fill="black"/>
<path d="M129.7 34.4902C106.37 37.8002 83.68 45.2602 62.39 55.2102C48.35 61.6602 35.23 70.3302 24.48 81.4102C15.35 91.0302 4.12 106.17 11.7 119.31C19.27 131.07 37.61 135.18 50.82 137.46C96.57 144.48 145.47 132.73 188.71 117.82C196.15 115.19 203.54 112.44 210.81 109.35C196.86 116.85 182.22 123 167.33 128.41C129.91 141.54 89.48 150.25 49.74 144.31C34.14 141.75 14.8 137.21 5.77 122.87C-3.83 106.72 8.62 88.2102 20.08 77.0502C31.61 65.6502 45.61 57.1102 60.51 50.9902C82.5 41.9202 105.9 35.6002 129.71 34.5002L129.7 34.4902Z" fill="url(#paint1_linear_923_11003)"/>
<path d="M155.48 65.0798C156.9 57.2598 143.36 53.4698 125.24 56.6198C107.12 59.7698 91.29 68.6598 89.87 76.4698C88.45 84.2898 101.99 88.0798 120.11 84.9298C138.23 81.7798 154.06 72.8898 155.48 65.0798Z" fill="black"/>
<path d="M108.13 87.0301C100.18 87.0301 93.86 85.4001 90.81 82.3301C89.14 80.6401 88.47 78.5601 88.88 76.3001C90.39 67.9801 106.28 58.9001 125.06 55.6401C138.48 53.3101 150.04 54.7201 154.52 59.2301C156.19 60.9201 156.86 63.0001 156.45 65.2601C154.94 73.5801 139.05 82.6601 120.27 85.9201C115.98 86.6701 111.87 87.0301 108.13 87.0301ZM137.23 56.5401C133.59 56.5401 129.58 56.8901 125.41 57.6201C108 60.6401 92.18 69.3701 90.85 76.6701C90.56 78.2801 91.02 79.7101 92.24 80.9301C96.21 84.9301 107.34 86.1501 119.94 83.9601C137.35 80.9401 153.17 72.2101 154.5 64.9101C154.79 63.3001 154.33 61.8701 153.11 60.6501C150.45 57.9701 144.59 56.5401 137.24 56.5401H137.23Z" fill="url(#paint2_linear_923_11003)"/>
<path d="M22.44 205.24H14.44L6.76 213.11V193.83L0 196.99V232.88H6.76V220.71L9.49 218L17.25 232.88H24.61L14.44 213.19L22.44 205.24Z" fill="black"/>
<path d="M57.26 200.66C55.97 198.76 54.28 197.24 52.18 196.09C50.08 194.94 47.52 194.37 44.49 194.37C41.46 194.37 38.89 194.94 36.78 196.09C34.67 197.24 32.97 198.76 31.68 200.66C30.39 202.56 29.45 204.67 28.85 206.97C28.26 209.28 27.96 211.6 27.96 213.95C27.96 216.3 28.26 218.62 28.85 220.93C29.44 223.24 30.39 225.34 31.68 227.24C32.97 229.14 34.67 230.67 36.78 231.81C38.89 232.95 41.46 233.53 44.49 233.53C47.52 233.53 50.08 232.96 52.18 231.81C54.28 230.66 55.97 229.14 57.26 227.24C58.55 225.34 59.49 223.23 60.07 220.93C60.66 218.62 60.95 216.3 60.95 213.95C60.95 211.6 60.66 209.28 60.07 206.97C59.48 204.66 58.55 202.56 57.26 200.66ZM35.71 209.55C36.02 208.05 36.54 206.65 37.25 205.36C37.96 204.07 38.91 203.03 40.09 202.24C41.27 201.45 42.74 201.05 44.48 201.05C46.22 201.05 47.67 201.43 48.85 202.2C49.2 202.43 49.53 202.69 49.84 202.96L36.32 220.6C36.07 219.92 35.86 219.21 35.71 218.47C35.39 216.96 35.24 215.45 35.24 213.95C35.24 212.45 35.4 211.06 35.71 209.56V209.55ZM53.22 218.32C52.9 219.83 52.37 221.22 51.65 222.5C50.93 223.78 49.98 224.82 48.8 225.61C47.62 226.4 46.18 226.8 44.49 226.8C42.8 226.8 41.33 226.42 40.15 225.66C39.71 225.38 39.31 225.05 38.94 224.7L52.52 206.98C52.82 207.75 53.06 208.55 53.24 209.4C53.56 210.92 53.71 212.44 53.71 213.96C53.71 215.37 53.55 216.82 53.22 218.33V218.32Z" fill="black"/>
<path d="M97.25 211.06C97.8 209.6 98.08 208.16 98.08 206.73C98.08 204.68 97.69 202.76 96.9 200.97C96.11 199.18 94.81 197.75 92.98 196.66C91.15 195.57 88.66 195.02 85.5 195.02H68.27V232.88H75.27V218.55H82.95L90.12 232.88H97.99L90.53 217.6C92.22 217.04 93.63 216.18 94.75 215C95.87 213.83 96.7 212.51 97.25 211.05V211.06ZM90.37 209.27C90.05 210.06 89.5 210.71 88.73 211.2C87.96 211.7 86.92 211.94 85.61 211.94H75.28V201.61H85.61C86.98 201.61 88.04 201.87 88.8 202.39C89.56 202.91 90.09 203.57 90.4 204.36C90.71 205.15 90.86 205.95 90.86 206.74C90.86 207.62 90.7 208.46 90.37 209.25V209.27Z" fill="black"/>
<path d="M132.32 200.96C130.89 199.15 129.02 197.71 126.71 196.63C124.4 195.56 121.61 195.02 118.33 195.02H105.57V232.88H118.12C121.58 232.88 124.49 232.31 126.84 231.16C129.19 230.02 131.07 228.51 132.48 226.64C133.89 224.77 134.9 222.73 135.52 220.52C136.14 218.3 136.45 216.11 136.45 213.95C136.45 211.59 136.12 209.29 135.46 207.04C134.8 204.8 133.76 202.77 132.32 200.96ZM128.65 218.26C128.28 219.71 127.69 221.04 126.89 222.24C126.09 223.44 125.03 224.4 123.71 225.13C122.39 225.86 120.77 226.23 118.84 226.23H112.57V201.62H119.44C121.15 201.62 122.62 201.97 123.85 202.67C125.08 203.37 126.09 204.32 126.88 205.51C127.67 206.7 128.26 208.03 128.64 209.49C129.02 210.95 129.21 212.44 129.21 213.95C129.21 215.37 129.02 216.81 128.66 218.26H128.65Z" fill="black"/>
<path d="M150.78 216.65H161.78V210H150.78V201.67H169.36V195.02H143.78V232.88H170.49V226.17H150.78V216.65Z" fill="black"/>
<path d="M200.21 217.3C200.21 217.64 200.22 218.1 200.25 218.67C200.28 219.24 200.32 219.72 200.37 220.12C200.15 219.67 199.89 219.17 199.57 218.62C199.25 218.07 199 217.63 198.8 217.31L183.87 195.03H177.33V232.89H184.28V210.45C184.28 210.07 184.28 209.62 184.25 209.1C184.23 208.58 184.2 208.09 184.14 207.64C184.36 208.09 184.62 208.6 184.94 209.15C185.26 209.7 185.51 210.14 185.71 210.45L200.93 232.89H207.18V195.03H200.2V217.31L200.21 217.3Z" fill="black"/>
<path d="M213.59 195.02V201.75H224.33V232.88H231.33V201.75H242.12V195.02H213.59Z" fill="black"/>
</g>
<defs>
<linearGradient id="paint0_linear_923_11003" x1="7.43" y1="55.4001" x2="203.28" y2="55.4001" gradientUnits="userSpaceOnUse">
<stop stop-color="#1DA7FD"/>
<stop offset="1" stop-color="#08F5DA"/>
</linearGradient>
<linearGradient id="paint1_linear_923_11003" x1="2.33" y1="90.3502" x2="210.8" y2="90.3502" gradientUnits="userSpaceOnUse">
<stop stop-color="#1DA7FD"/>
<stop offset="1" stop-color="#08F5DA"/>
</linearGradient>
<linearGradient id="paint2_linear_923_11003" x1="88.77" y1="70.7801" x2="156.58" y2="70.7801" gradientUnits="userSpaceOnUse">
<stop stop-color="#1DA7FD"/>
<stop offset="1" stop-color="#08F5DA"/>
</linearGradient>
<clipPath id="clip0_923_11003">
<rect width="242.73" height="232.53" fill="white" transform="translate(0 1)"/>
</clipPath>
</defs>
</svg>
