<svg width="156" height="237" viewBox="0 0 156 237" fill="none" xmlns="http://www.w3.org/2000/svg">
<path d="M97.75 44.25V83.3L57.76 113.32V74.29L97.75 44.25Z" fill="black"/>
<path d="M155.51 39.9102V156.84H0V156.7L41.39 125.62H124.27L124.29 63.3802L155.51 39.9202V39.9102Z" fill="url(#paint0_linear_923_11035)"/>
<path d="M0 1V117.66L31.22 94.2V32.22H113.78L155.35 1H0Z" fill="black"/>
<path d="M54.01 207.94H46L38.32 215.8V196.52L31.56 199.69V235.57H38.32V223.4L41.05 220.7L48.82 235.57H56.17L46 215.89L54.01 207.94Z" fill="black"/>
<path d="M88.82 203.35C87.53 201.45 85.84 199.93 83.74 198.78C81.64 197.63 79.08 197.06 76.05 197.06C73.02 197.06 70.45 197.63 68.34 198.78C66.23 199.93 64.53 201.45 63.24 203.35C61.95 205.25 61.01 207.36 60.41 209.66C59.82 211.97 59.52 214.29 59.52 216.64C59.52 218.99 59.82 221.31 60.41 223.62C61 225.93 61.95 228.03 63.24 229.93C64.53 231.83 66.23 233.36 68.34 234.5C70.45 235.64 73.02 236.22 76.05 236.22C79.08 236.22 81.64 235.65 83.74 234.5C85.84 233.35 87.53 231.83 88.82 229.93C90.11 228.03 91.05 225.92 91.63 223.62C92.22 221.31 92.51 218.99 92.51 216.64C92.51 214.29 92.22 211.97 91.63 209.66C91.04 207.35 90.11 205.25 88.82 203.35ZM67.27 212.25C67.58 210.75 68.1 209.35 68.81 208.06C69.52 206.77 70.47 205.73 71.65 204.94C72.83 204.15 74.3 203.75 76.04 203.75C77.78 203.75 79.23 204.13 80.41 204.9C80.76 205.13 81.09 205.39 81.4 205.66L67.88 223.3C67.63 222.62 67.42 221.91 67.27 221.17C66.95 219.66 66.8 218.15 66.8 216.65C66.8 215.15 66.96 213.76 67.27 212.26V212.25ZM84.78 221.01C84.46 222.52 83.93 223.91 83.21 225.19C82.49 226.47 81.54 227.51 80.36 228.3C79.18 229.09 77.74 229.49 76.05 229.49C74.36 229.49 72.89 229.11 71.71 228.35C71.27 228.07 70.87 227.74 70.5 227.39L84.08 209.67C84.38 210.44 84.62 211.24 84.8 212.09C85.12 213.61 85.27 215.13 85.27 216.65C85.27 218.06 85.11 219.51 84.78 221.02V221.01Z" fill="black"/>
<path d="M124.8 219.85C124.06 218.49 123.08 217.35 121.87 216.43C120.66 215.51 119.3 214.73 117.81 214.09C116.32 213.45 114.83 212.88 113.33 212.37C112 211.9 110.8 211.44 109.75 210.99C108.7 210.54 107.86 210.03 107.24 209.46C106.62 208.89 106.31 208.2 106.31 207.39C106.31 206.2 106.77 205.28 107.69 204.63C108.61 203.98 109.9 203.66 111.56 203.66C113.33 203.66 114.73 204.04 115.76 204.81C116.8 205.58 117.57 206.53 118.07 207.66L124.34 205.58C123.91 203.96 123.13 202.51 122.01 201.23C120.89 199.95 119.48 198.94 117.78 198.19C116.08 197.44 114.12 197.07 111.93 197.07C109.24 197.07 106.96 197.53 105.08 198.46C103.2 199.39 101.76 200.63 100.77 202.18C99.78 203.73 99.28 205.43 99.28 207.29C99.28 209.15 99.64 210.72 100.35 212C101.06 213.28 102 214.34 103.18 215.18C104.36 216.02 105.64 216.73 107.05 217.3C108.46 217.88 109.85 218.4 111.24 218.87C112.68 219.36 113.98 219.86 115.12 220.37C116.26 220.88 117.18 221.5 117.85 222.21C118.53 222.92 118.86 223.81 118.86 224.87C118.86 226.42 118.29 227.6 117.14 228.41C115.99 229.22 114.46 229.63 112.53 229.63C110.71 229.63 109.07 229.08 107.62 227.97C106.17 226.86 105.04 225.44 104.23 223.71L97.88 226.06C98.56 228.13 99.6 229.93 100.98 231.45C102.36 232.97 104.01 234.15 105.94 234.98C107.87 235.81 110.01 236.22 112.38 236.22C114.94 236.22 117.24 235.77 119.28 234.88C121.32 233.99 122.93 232.69 124.13 231C125.33 229.31 125.93 227.25 125.93 224.83C125.93 222.87 125.56 221.2 124.82 219.84L124.8 219.85Z" fill="black"/>
<defs>
<linearGradient id="paint0_linear_923_11035" x1="77.75" y1="25.1402" x2="77.75" y2="210.06" gradientUnits="userSpaceOnUse">
<stop stop-color="#1DA7FD"/>
<stop offset="1" stop-color="#08F5DA"/>
</linearGradient>
</defs>
</svg>
