<svg id="Layer_1" data-name="Layer 1" xmlns="http://www.w3.org/2000/svg" viewBox="0 0 135.97944 172.22888"><defs><style>.cls-1{fill:#384745;}.cls-2{fill:#ffc61c;}</style></defs><title>sub-project-brand-logo-variants</title><path class="cls-1" d="M20.76052,132.92371H30.3149V143.7371c0,1.20128-.17135,2.97433-.28589,4.29109h.22908a32.85124,32.85124,0,0,1,2.40257-3.60478l9.44029-11.4997h10.298L39.81247,148.085l13.27322,23.45664H42.101l-8.92533-16.19028-2.86072,3.49023v12.70005H20.76052Z"/><path class="cls-1" d="M62.41238,159.41335c-1.02994,3.71838,1.08674,6.06414,4.29062,6.06414,3.60431,0,5.4351-2.86072,5.4351-6.92273,0-4.34789-2.17395-6.0064-5.09194-6.0064a6.93936,6.93936,0,0,0-4.74832,1.83079l-4.11928-4.46337,11.9574-9.898H55.94735v-7.09408h23.743v7.4945l-9.154,7.55224c5.83553-.57177,11.38516,3.26115,11.38516,10.69885,0,8.06721-6.57957,13.55958-14.87539,13.55958-7.83766,0-14.41724-4.86286-12.701-11.672Z"/><path class="cls-1" d="M93.76488,158.84158c-.68631,3.08887.515,6.63591,6.57957,6.63591,4.00427,0,5.37783-1.60171,5.37783-3.71931,0-3.20342-3.20435-4.00427-6.98047-5.3769-5.66324-1.94626-12.64324-4.69151-12.64324-12.75872,0-7.20862,5.54963-11.61424,14.989-11.38516,11.55744.22815,14.81859,7.03727,13.55958,12.93006l-8.75352.80086c.5727-4.46244-1.02994-6.98047-5.54918-6.98047-3.03207,0-4.74878,1.14541-4.74878,3.548,0,3.20342,3.08934,4.17561,6.86546,5.49237,5.836,1.9444,12.75779,4.29108,12.75779,12.29962,0,6.92273-5.14875,11.90107-15.21809,11.90107-9.43983,0-15.90486-4.34883-14.58858-12.58645Z"/><path class="cls-2" d="M121.58689,0H14.39255A14.43487,14.43487,0,0,0,0,14.39247V96.96991a14.43487,14.43487,0,0,0,14.39255,14.39247H121.58689a14.43487,14.43487,0,0,0,14.39255-14.39247V14.39247A14.43487,14.43487,0,0,0,121.58689,0ZM57.45811,80.98065,31.29766,96.18344A6.99993,6.99993,0,1,1,24.26348,84.079L50.42393,68.87626a6.99993,6.99993,0,1,1,7.03418,12.10439Zm10.2915-23.16221h-.03145A6.99967,6.99967,0,0,1,60.74893,50.788l.13125-30.13725a7.00056,7.00056,0,0,1,6.99931-6.96958h.03145a6.99991,6.99991,0,0,1,6.96924,7.03042l-.13125,30.13725A7.00056,7.00056,0,0,1,67.74961,57.81844Zm46.2875,35.81006a6.997,6.997,0,0,1-9.56211,2.56211L78.27627,81.06473a6.99994,6.99994,0,1,1,7-12.12421L111.475,84.06639A6.99956,6.99956,0,0,1,114.03711,93.6285Z"/></svg>