<svg id="svg" version="1.1" xmlns="http://www.w3.org/2000/svg" xmlns:xlink="http://www.w3.org/1999/xlink" width="400" height="400" viewBox="0, 0, 400,400"><g id="svgg"><path id="path0" d="M116.794 155.922 C 116.793 157.929,116.437 161.943,116.002 164.844 C 108.882 212.412,105.409 241.935,104.848 259.680 L 104.617 266.992 105.970 271.484 C 119.860 317.610,174.815 361.895,208.753 354.311 C 244.112 346.410,282.776 308.857,294.030 271.484 L 295.383 266.992 295.152 259.680 C 294.643 243.576,291.676 217.281,285.953 178.142 C 284.261 166.576,283.984 163.842,283.984 158.708 C 283.984 155.423,283.878 152.734,283.749 152.734 C 283.619 152.734,282.625 153.533,281.539 154.510 C 271.950 163.131,252.015 166.524,207.813 167.058 C 156.263 167.681,129.526 163.938,119.430 154.687 L 116.797 152.275 116.794 155.922 M127.332 185.147 C 140.277 193.931,161.165 197.461,200.195 197.461 C 243.300 197.461,265.923 192.919,277.061 182.030 C 280.394 178.771,280.243 178.324,280.229 191.406 C 280.212 207.297,277.169 229.975,273.583 240.935 C 271.595 247.012,259.833 268.982,255.269 275.145 C 254.754 275.841,254.560 275.772,251.289 273.738 C 236.721 264.676,225.333 260.109,214.600 259.024 C 211.173 258.678,210.502 258.718,208.594 259.383 C 205.393 260.497,194.270 260.499,191.339 259.385 C 189.521 258.694,188.922 258.654,185.573 259.000 C 174.560 260.138,163.404 264.598,148.711 273.738 C 145.440 275.772,145.246 275.841,144.731 275.145 C 140.167 268.982,128.405 247.012,126.417 240.935 C 121.953 227.291,118.210 191.662,120.055 180.381 L 120.357 178.535 122.764 181.108 C 124.088 182.523,126.143 184.340,127.332 185.147 M165.710 207.466 C 162.295 208.277,160.354 211.628,161.293 215.093 C 163.404 222.879,176.354 221.348,176.354 213.312 C 176.354 208.643,171.646 206.057,165.710 207.466 M228.210 207.466 C 224.795 208.277,222.854 211.628,223.793 215.093 C 225.904 222.879,238.854 221.348,238.854 213.312 C 238.854 208.643,234.146 206.057,228.210 207.466 M117.152 213.458 C 118.788 214.304,119.285 215.832,118.690 218.190 C 118.385 219.396,118.196 223.072,118.184 228.013 C 118.161 236.973,118.131 237.069,115.177 237.369 C 110.438 237.852,109.178 235.717,109.186 227.217 C 109.196 214.976,111.706 210.642,117.152 213.458 M285.746 213.453 C 288.471 214.592,289.538 218.558,289.531 227.520 C 289.525 234.806,288.628 236.785,285.071 237.363 C 280.793 238.057,280.106 236.964,280.371 229.883 C 280.508 226.248,280.398 222.506,280.074 219.690 C 279.371 213.588,281.216 211.560,285.746 213.453 M199.414 279.804 C 202.937 279.826,207.027 279.619,208.789 279.329 C 213.849 278.498,215.156 278.784,216.040 280.919 C 217.299 283.957,215.418 287.062,211.856 287.824 C 200.389 290.277,185.698 288.848,183.754 285.089 C 181.597 280.916,184.423 278.284,190.039 279.235 C 191.758 279.526,195.977 279.782,199.414 279.804 " stroke="none" fill="#5b5b5c" fill-rule="evenodd"></path><path id="path1" d="M191.992 44.762 C 191.133 44.847,188.408 45.108,185.938 45.341 C 131.663 50.458,91.694 89.968,100.322 129.974 C 102.869 141.785,105.089 145.162,113.672 150.285 C 124.346 156.656,127.519 156.950,189.258 157.289 C 268.484 157.724,275.331 157.238,287.587 150.319 C 295.353 145.935,296.669 144.362,298.975 136.719 C 311.930 93.773,274.636 52.558,216.406 45.469 C 211.777 44.906,195.343 44.430,191.992 44.762 M201.746 84.591 C 204.719 86.002,205.148 90.116,202.569 92.480 L 201.183 93.750 205.787 93.750 C 210.663 93.750,211.328 93.969,211.328 95.572 C 211.328 96.914,210.193 97.266,205.862 97.266 L 201.906 97.266 202.139 105.957 C 202.489 119.060,202.565 119.657,203.843 119.343 C 207.871 118.352,213.370 111.568,211.982 109.302 C 211.340 108.253,215.338 104.735,216.615 105.225 C 217.634 105.616,217.265 111.482,216.211 111.641 C 215.678 111.721,215.037 112.591,214.194 114.375 C 212.232 118.532,206.842 123.045,203.839 123.047 C 203.479 123.047,202.663 123.486,202.024 124.023 C 200.577 125.241,199.212 125.265,197.784 124.098 C 197.177 123.601,195.889 122.971,194.922 122.697 C 190.804 121.529,187.579 118.575,185.417 113.991 C 184.573 112.201,183.931 111.331,183.398 111.250 C 182.348 111.092,181.978 105.332,182.993 104.943 C 184.238 104.465,187.691 107.857,187.726 109.594 C 187.787 112.637,191.087 117.182,194.349 118.715 C 197.219 120.064,197.118 120.242,197.407 113.379 C 197.550 109.995,197.779 104.985,197.915 102.246 L 198.164 97.266 193.836 97.266 C 188.645 97.266,187.529 96.667,188.686 94.506 C 189.051 93.823,189.543 93.750,193.792 93.750 L 198.493 93.750 197.125 92.460 C 193.068 88.633,196.816 82.251,201.746 84.591 M198.437 87.306 C 197.715 88.175,197.846 89.902,198.679 90.512 C 199.720 91.273,200.858 90.985,201.526 89.791 C 202.641 87.799,199.874 85.574,198.437 87.306 M120.168 182.813 C 119.246 196.963,120.953 215.444,124.876 233.789 C 127.032 243.871,131.541 253.439,142.403 270.985 C 145.593 276.138,144.898 275.889,148.912 273.316 C 165.589 262.623,184.383 256.423,191.639 259.222 C 194.438 260.302,205.545 260.299,208.361 259.218 C 215.631 256.428,234.417 262.626,251.088 273.316 C 255.102 275.889,254.407 276.138,257.597 270.985 C 268.459 253.439,272.968 243.871,275.124 233.789 C 279.020 215.569,280.837 195.938,279.827 182.968 L 279.581 179.804 278.259 181.267 C 267.289 193.409,234.101 199.431,187.562 197.724 C 151.915 196.416,133.479 191.907,123.399 182.031 L 120.409 179.102 120.168 182.813 M173.433 207.920 C 176.964 209.788,177.695 214.848,174.876 217.923 C 171.240 221.890,163.167 220.678,161.354 215.893 C 159.463 210.902,162.694 207.031,168.750 207.031 C 171.120 207.031,172.106 207.218,173.433 207.920 M235.933 207.920 C 239.464 209.788,240.195 214.848,237.376 217.923 C 233.740 221.890,225.667 220.678,223.854 215.893 C 221.963 210.902,225.194 207.031,231.250 207.031 C 233.620 207.031,234.606 207.218,235.933 207.920 M112.247 214.034 C 108.906 216.071,108.040 233.032,111.129 235.934 C 113.610 238.265,118.826 236.884,118.214 234.059 C 118.089 233.481,117.876 231.426,117.740 229.492 C 117.522 226.383,117.672 224.231,118.605 217.120 C 119.047 213.752,115.518 212.039,112.247 214.034 M281.128 214.117 C 279.816 215.273,279.766 215.723,280.432 220.465 C 280.803 223.109,280.902 226.106,280.746 229.962 C 280.475 236.641,280.682 237.110,283.887 237.108 C 288.196 237.105,289.246 235.194,289.251 227.344 C 289.256 220.629,288.523 216.299,287.117 214.725 C 285.651 213.085,282.646 212.780,281.128 214.117 M158.203 216.992 C 158.203 217.314,157.983 217.584,157.715 217.591 C 157.446 217.597,155.381 217.851,153.125 218.153 C 150.614 218.490,148.882 218.564,148.659 218.343 C 148.039 217.729,148.659 217.507,152.420 216.995 C 157.523 216.300,158.203 216.300,158.203 216.992 M246.129 216.814 C 250.682 217.380,251.172 217.512,251.172 218.172 C 251.172 218.858,251.563 218.859,246.484 218.164 C 244.229 217.855,242.163 217.597,241.895 217.591 C 241.108 217.571,241.335 216.406,242.125 216.406 C 242.521 216.406,244.323 216.590,246.129 216.814 M159.281 219.228 C 159.079 219.834,151.671 222.000,150.863 221.690 C 149.880 221.313,150.752 220.829,154.297 219.783 C 158.044 218.678,159.519 218.514,159.281 219.228 M245.134 219.758 C 248.842 220.826,249.743 221.308,248.747 221.690 C 247.939 222.000,240.530 219.834,240.329 219.228 C 240.090 218.513,241.259 218.642,245.134 219.758 M205.109 220.588 C 207.321 221.895,207.422 222.566,207.422 235.918 C 207.422 251.773,207.526 251.571,199.355 251.553 C 192.222 251.537,190.234 250.561,190.234 247.070 C 190.234 244.170,192.366 242.617,196.387 242.587 L 197.656 242.578 197.656 233.184 C 197.656 223.006,197.767 222.376,199.850 220.738 C 201.130 219.731,203.541 219.662,205.109 220.588 M184.736 280.048 C 183.807 280.976,183.594 281.523,183.594 282.972 C 183.594 287.261,187.042 288.420,199.805 288.420 C 212.639 288.420,216.032 287.264,216.003 282.904 C 215.979 279.343,214.626 278.638,209.407 279.468 C 204.518 280.245,195.071 280.260,190.430 279.498 C 185.854 278.746,186.058 278.726,184.736 280.048 " stroke="none" fill="#f5f1e6" fill-rule="evenodd"></path><path id="path2" d="M36.947 123.339 C 36.880 123.407,36.425 123.539,35.938 123.633 C 35.450 123.727,34.953 123.901,34.834 124.020 C 34.715 124.139,35.047 124.158,35.571 124.061 C 36.095 123.965,37.007 123.873,37.598 123.857 C 38.188 123.841,38.672 123.663,38.672 123.462 C 38.672 123.134,37.253 123.033,36.947 123.339 M61.947 123.339 C 61.880 123.407,61.425 123.539,60.938 123.633 C 60.450 123.727,59.953 123.901,59.834 124.020 C 59.715 124.139,60.047 124.158,60.571 124.061 C 61.095 123.965,62.007 123.873,62.598 123.857 C 63.188 123.841,63.672 123.663,63.672 123.462 C 63.672 123.134,62.253 123.033,61.947 123.339 M86.947 123.339 C 86.880 123.407,86.425 123.539,85.938 123.633 C 85.450 123.727,84.953 123.901,84.834 124.020 C 84.715 124.139,85.047 124.158,85.571 124.061 C 86.095 123.965,87.007 123.873,87.598 123.857 C 88.188 123.841,88.672 123.663,88.672 123.462 C 88.672 123.134,87.253 123.033,86.947 123.339 M311.947 123.339 C 311.880 123.407,311.425 123.539,310.938 123.633 C 310.450 123.727,309.953 123.901,309.834 124.020 C 309.715 124.139,310.047 124.158,310.571 124.061 C 311.095 123.965,312.007 123.873,312.598 123.857 C 313.188 123.841,313.672 123.663,313.672 123.462 C 313.672 123.134,312.253 123.033,311.947 123.339 M336.947 123.339 C 336.880 123.407,336.425 123.539,335.938 123.633 C 335.450 123.727,334.953 123.901,334.834 124.020 C 334.715 124.139,335.047 124.158,335.571 124.061 C 336.095 123.965,337.007 123.873,337.598 123.857 C 338.188 123.841,338.672 123.663,338.672 123.462 C 338.672 123.134,337.253 123.033,336.947 123.339 M361.947 123.339 C 361.880 123.407,361.425 123.539,360.938 123.633 C 360.450 123.727,359.953 123.901,359.834 124.020 C 359.715 124.139,360.047 124.158,360.571 124.061 C 361.095 123.965,362.007 123.873,362.598 123.857 C 363.188 123.841,363.672 123.663,363.672 123.462 C 363.672 123.134,362.253 123.033,361.947 123.339 M15.403 124.476 C 15.731 125.155,16.223 125.803,16.496 125.917 C 16.769 126.030,16.553 126.059,16.016 125.981 C 15.479 125.903,14.863 125.824,14.648 125.804 C 14.434 125.785,14.500 125.616,14.796 125.428 C 15.097 125.238,15.205 124.877,15.040 124.611 C 14.652 123.983,14.077 124.848,14.068 126.074 C 14.065 126.558,13.879 126.953,13.655 126.953 C 13.430 126.953,13.283 127.173,13.328 127.441 C 13.372 127.710,13.038 128.756,12.586 129.765 C -1.143 160.412,-3.862 212.803,6.306 250.781 C 10.790 267.533,22.243 295.273,26.608 299.959 C 27.029 300.411,27.275 300.781,27.155 300.781 C 27.034 300.781,27.223 301.221,27.575 301.758 C 27.927 302.295,28.502 302.737,28.854 302.740 C 29.386 302.745,29.399 302.805,28.934 303.100 C 28.475 303.390,28.579 303.720,29.518 304.949 C 30.147 305.772,30.623 306.561,30.577 306.702 C 30.531 306.843,30.795 306.900,31.164 306.829 C 31.534 306.758,31.975 306.687,32.144 306.671 C 32.314 306.654,32.226 306.396,31.949 306.098 C 31.672 305.799,31.357 305.692,31.250 305.859 C 31.143 306.027,30.828 305.919,30.551 305.621 C 30.125 305.162,30.455 305.074,32.699 305.048 C 34.158 305.032,35.615 304.953,35.938 304.873 C 37.953 304.375,38.672 304.324,38.672 304.680 C 38.672 304.899,38.276 305.087,37.793 305.098 C 36.458 305.128,33.420 305.534,33.236 305.707 C 33.146 305.791,33.937 305.879,34.993 305.904 C 36.050 305.928,37.472 305.990,38.155 306.042 C 38.838 306.094,39.629 305.989,39.913 305.808 C 40.408 305.494,39.898 305.281,38.979 305.418 C 38.826 305.441,38.814 305.163,38.953 304.800 C 39.112 304.386,39.264 304.315,39.362 304.610 C 39.571 305.236,41.795 305.218,41.803 304.590 C 41.807 304.232,41.899 304.244,42.146 304.634 C 42.431 305.084,42.517 305.084,42.696 304.634 C 42.871 304.197,42.984 304.207,43.324 304.688 C 43.692 305.208,43.739 305.208,43.750 304.688 C 43.757 304.343,43.880 304.262,44.049 304.492 C 44.490 305.093,49.608 305.177,49.615 304.584 C 49.619 304.270,49.754 304.306,50.000 304.688 C 50.208 305.010,50.381 305.090,50.385 304.866 C 50.388 304.638,51.246 304.458,52.328 304.458 C 54.985 304.458,54.234 304.971,51.465 305.048 C 50.874 305.065,50.391 305.257,50.391 305.476 C 50.391 305.700,50.862 305.785,51.465 305.671 C 52.056 305.558,54.033 305.369,55.859 305.251 C 59.505 305.014,60.973 304.852,62.598 304.509 C 63.216 304.378,63.672 304.451,63.672 304.680 C 63.672 304.899,63.276 305.087,62.793 305.098 C 61.458 305.128,58.420 305.534,58.236 305.707 C 58.146 305.791,58.937 305.879,59.993 305.904 C 61.050 305.928,62.472 305.990,63.155 306.042 C 63.838 306.094,64.629 305.989,64.913 305.808 C 65.408 305.494,64.898 305.281,63.979 305.418 C 63.826 305.441,63.814 305.163,63.953 304.800 C 64.112 304.386,64.264 304.315,64.362 304.610 C 64.571 305.236,66.795 305.218,66.803 304.590 C 66.807 304.232,66.899 304.244,67.146 304.634 C 67.431 305.084,67.517 305.084,67.696 304.634 C 67.871 304.197,67.984 304.207,68.324 304.688 C 68.692 305.208,68.739 305.208,68.750 304.688 C 68.757 304.343,68.880 304.262,69.049 304.492 C 69.490 305.093,74.608 305.177,74.615 304.584 C 74.619 304.270,74.754 304.306,75.000 304.688 C 75.208 305.010,75.381 305.090,75.385 304.866 C 75.388 304.638,76.246 304.458,77.328 304.458 C 79.985 304.458,79.234 304.971,76.465 305.048 C 75.874 305.065,75.391 305.257,75.391 305.476 C 75.391 305.700,75.862 305.785,76.465 305.671 C 77.056 305.558,79.033 305.369,80.859 305.251 C 84.505 305.014,85.973 304.852,87.598 304.509 C 88.216 304.378,88.672 304.451,88.672 304.680 C 88.672 304.899,88.276 305.087,87.793 305.098 C 86.458 305.128,83.420 305.534,83.236 305.707 C 83.146 305.791,83.937 305.879,84.993 305.904 C 86.050 305.928,87.472 305.990,88.155 306.042 C 88.838 306.094,89.629 305.989,89.913 305.808 C 90.408 305.494,89.898 305.281,88.979 305.418 C 88.826 305.441,88.814 305.163,88.953 304.800 C 89.112 304.386,89.264 304.315,89.362 304.610 C 89.571 305.236,91.795 305.218,91.803 304.590 C 91.807 304.232,91.899 304.244,92.146 304.634 C 92.431 305.084,92.517 305.084,92.696 304.634 C 92.871 304.197,92.984 304.207,93.324 304.688 C 93.692 305.208,93.739 305.208,93.750 304.688 C 93.757 304.343,93.880 304.262,94.049 304.492 C 94.490 305.093,99.608 305.177,99.615 304.584 C 99.619 304.270,99.754 304.306,100.000 304.688 C 100.208 305.010,100.381 305.090,100.385 304.866 C 100.388 304.638,101.246 304.458,102.328 304.458 C 104.985 304.458,104.234 304.971,101.465 305.048 C 100.874 305.065,100.391 305.257,100.391 305.476 C 100.391 305.700,100.862 305.785,101.465 305.671 C 102.056 305.558,104.033 305.369,105.859 305.251 C 109.505 305.014,110.973 304.852,112.598 304.509 C 113.216 304.378,113.672 304.451,113.672 304.680 C 113.672 304.899,113.276 305.087,112.793 305.098 C 111.458 305.128,108.420 305.534,108.236 305.707 C 108.146 305.791,108.937 305.879,109.993 305.904 C 111.050 305.928,112.472 305.990,113.155 306.042 C 113.838 306.094,114.629 305.989,114.913 305.808 C 115.408 305.494,114.898 305.281,113.979 305.418 C 113.826 305.441,113.814 305.163,113.953 304.800 C 114.112 304.386,114.264 304.315,114.362 304.610 C 114.571 305.236,116.795 305.218,116.803 304.590 C 116.807 304.232,116.899 304.244,117.146 304.634 C 117.431 305.084,117.517 305.084,117.696 304.634 C 117.871 304.197,117.984 304.207,118.324 304.688 C 118.692 305.208,118.739 305.208,118.750 304.688 C 118.758 304.318,118.868 304.256,119.049 304.519 C 119.345 304.949,121.875 305.068,121.875 304.651 C 121.875 304.523,120.566 302.396,118.966 299.926 C 113.661 291.734,109.579 283.288,106.569 274.280 C 103.034 263.698,104.537 242.824,113.127 183.203 C 116.932 156.788,116.769 158.045,116.784 155.007 L 116.797 152.397 112.617 149.929 C 105.036 145.453,101.010 138.472,99.761 127.637 C 99.509 125.454,99.469 125.391,98.319 125.391 C 97.089 125.391,97.065 125.018,98.283 124.839 C 98.667 124.783,99.048 124.488,99.130 124.185 C 99.246 123.753,99.188 123.761,98.864 124.219 C 98.496 124.740,98.448 124.740,98.438 124.219 C 98.429 123.801,98.340 123.767,98.129 124.100 C 97.654 124.846,93.456 125.041,92.764 124.349 C 92.316 123.901,92.186 123.887,92.182 124.289 C 92.177 124.670,92.076 124.652,91.791 124.219 C 91.449 123.698,91.364 123.698,91.022 124.219 C 90.680 124.740,90.636 124.740,90.625 124.219 C 90.618 123.874,90.495 123.794,90.326 124.023 C 90.168 124.238,88.369 124.462,86.328 124.520 C 84.287 124.578,82.046 124.708,81.348 124.810 C 80.649 124.912,80.078 124.832,80.078 124.632 C 80.078 124.432,80.562 124.194,81.152 124.104 C 81.743 124.013,81.118 124.014,79.763 124.106 C 78.409 124.197,76.923 124.345,76.462 124.433 C 76.000 124.522,75.486 124.378,75.318 124.114 C 75.092 123.759,75.009 123.786,75.000 124.219 C 74.989 124.740,74.945 124.740,74.603 124.219 C 74.261 123.698,74.176 123.698,73.834 124.219 C 73.492 124.740,73.448 124.740,73.438 124.219 C 73.429 123.801,73.340 123.767,73.129 124.100 C 72.654 124.846,68.456 125.041,67.764 124.349 C 67.316 123.901,67.186 123.887,67.182 124.289 C 67.177 124.670,67.076 124.652,66.791 124.219 C 66.449 123.698,66.364 123.698,66.022 124.219 C 65.680 124.740,65.636 124.740,65.625 124.219 C 65.618 123.874,65.495 123.794,65.326 124.023 C 65.168 124.238,63.369 124.462,61.328 124.520 C 59.287 124.578,57.046 124.708,56.348 124.810 C 55.649 124.912,55.078 124.832,55.078 124.632 C 55.078 124.432,55.562 124.194,56.152 124.104 C 56.743 124.013,56.118 124.014,54.763 124.106 C 53.409 124.197,51.923 124.345,51.462 124.433 C 51.000 124.522,50.486 124.378,50.318 124.114 C 50.092 123.759,50.009 123.786,50.000 124.219 C 49.989 124.740,49.945 124.740,49.603 124.219 C 49.261 123.698,49.176 123.698,48.834 124.219 C 48.492 124.740,48.448 124.740,48.438 124.219 C 48.429 123.801,48.340 123.767,48.129 124.100 C 47.654 124.846,43.456 125.041,42.764 124.349 C 42.316 123.901,42.186 123.887,42.182 124.289 C 42.177 124.670,42.076 124.652,41.791 124.219 C 41.449 123.698,41.364 123.698,41.022 124.219 C 40.680 124.740,40.636 124.740,40.625 124.219 C 40.618 123.874,40.495 123.794,40.326 124.023 C 40.168 124.238,38.369 124.462,36.328 124.520 C 34.287 124.578,32.046 124.708,31.348 124.810 C 30.649 124.912,30.078 124.832,30.078 124.632 C 30.078 124.432,30.562 124.194,31.152 124.104 C 31.743 124.013,31.118 124.014,29.763 124.106 C 28.409 124.197,26.923 124.345,26.462 124.433 C 26.000 124.522,25.486 124.378,25.318 124.114 C 25.092 123.759,25.009 123.786,25.000 124.219 C 24.989 124.740,24.945 124.740,24.603 124.219 C 24.261 123.698,24.176 123.698,23.834 124.219 C 23.492 124.740,23.448 124.740,23.438 124.219 C 23.429 123.801,23.340 123.767,23.129 124.100 C 22.654 124.846,18.456 125.041,17.764 124.349 C 17.316 123.901,17.186 123.887,17.182 124.289 C 17.177 124.674,17.070 124.656,16.761 124.219 C 16.436 123.758,16.303 123.742,16.142 124.142 C 15.988 124.524,15.796 124.476,15.371 123.946 C 14.915 123.378,14.921 123.480,15.403 124.476 M19.418 123.921 C 19.149 124.100,19.429 124.155,20.067 124.049 C 20.685 123.946,21.276 123.776,21.381 123.671 C 21.697 123.355,19.929 123.580,19.418 123.921 M44.418 123.921 C 44.149 124.100,44.429 124.155,45.067 124.049 C 45.685 123.946,46.276 123.776,46.381 123.671 C 46.697 123.355,44.929 123.580,44.418 123.921 M69.418 123.921 C 69.149 124.100,69.429 124.155,70.067 124.049 C 70.685 123.946,71.276 123.776,71.381 123.671 C 71.697 123.355,69.929 123.580,69.418 123.921 M94.418 123.921 C 94.149 124.100,94.429 124.155,95.067 124.049 C 95.685 123.946,96.276 123.776,96.381 123.671 C 96.697 123.355,94.929 123.580,94.418 123.921 M319.418 123.921 C 319.149 124.100,319.429 124.155,320.067 124.049 C 320.685 123.946,321.276 123.776,321.381 123.671 C 321.697 123.355,319.929 123.580,319.418 123.921 M344.418 123.921 C 344.149 124.100,344.429 124.155,345.067 124.049 C 345.685 123.946,346.276 123.776,346.381 123.671 C 346.697 123.355,344.929 123.580,344.418 123.921 M369.418 123.921 C 369.149 124.100,369.429 124.155,370.067 124.049 C 370.685 123.946,371.276 123.776,371.381 123.671 C 371.697 123.355,369.929 123.580,369.418 123.921 M384.922 123.926 C 385.098 124.499,384.866 124.614,383.484 124.638 C 382.577 124.654,381.440 124.741,380.957 124.831 C 380.474 124.921,380.078 124.832,380.078 124.632 C 380.078 124.432,380.562 124.194,381.152 124.104 C 381.743 124.013,381.118 124.014,379.763 124.106 C 378.409 124.197,376.923 124.345,376.462 124.433 C 376.000 124.522,375.486 124.378,375.318 124.114 C 375.092 123.759,375.009 123.786,375.000 124.219 C 374.989 124.740,374.945 124.740,374.603 124.219 C 374.261 123.698,374.176 123.698,373.834 124.219 C 373.492 124.740,373.448 124.740,373.438 124.219 C 373.429 123.801,373.340 123.767,373.129 124.100 C 372.654 124.846,368.456 125.041,367.764 124.349 C 367.316 123.901,367.186 123.887,367.182 124.289 C 367.177 124.670,367.076 124.652,366.791 124.219 C 366.449 123.698,366.364 123.698,366.022 124.219 C 365.680 124.740,365.636 124.740,365.625 124.219 C 365.618 123.874,365.495 123.794,365.326 124.023 C 365.168 124.238,363.369 124.462,361.328 124.520 C 359.287 124.578,357.046 124.708,356.348 124.810 C 355.649 124.912,355.078 124.832,355.078 124.632 C 355.078 124.432,355.562 124.194,356.152 124.104 C 356.743 124.013,356.118 124.014,354.763 124.106 C 353.409 124.197,351.923 124.345,351.462 124.433 C 351.000 124.522,350.486 124.378,350.318 124.114 C 350.092 123.759,350.009 123.786,350.000 124.219 C 349.989 124.740,349.945 124.740,349.603 124.219 C 349.261 123.698,349.176 123.698,348.834 124.219 C 348.492 124.740,348.448 124.740,348.438 124.219 C 348.429 123.801,348.340 123.767,348.129 124.100 C 347.654 124.846,343.456 125.041,342.764 124.349 C 342.316 123.901,342.186 123.887,342.182 124.289 C 342.177 124.670,342.076 124.652,341.791 124.219 C 341.449 123.698,341.364 123.698,341.022 124.219 C 340.680 124.740,340.636 124.740,340.625 124.219 C 340.618 123.874,340.495 123.794,340.326 124.023 C 340.168 124.238,338.369 124.462,336.328 124.520 C 334.287 124.578,332.046 124.708,331.348 124.810 C 330.649 124.912,330.078 124.832,330.078 124.632 C 330.078 124.432,330.562 124.194,331.152 124.104 C 331.743 124.013,331.118 124.014,329.763 124.106 C 328.409 124.197,326.923 124.345,326.462 124.433 C 326.000 124.522,325.486 124.378,325.318 124.114 C 325.092 123.759,325.009 123.786,325.000 124.219 C 324.989 124.740,324.945 124.740,324.603 124.219 C 324.261 123.698,324.176 123.698,323.834 124.219 C 323.492 124.740,323.448 124.740,323.438 124.219 C 323.429 123.801,323.340 123.767,323.129 124.100 C 322.654 124.846,318.456 125.041,317.764 124.349 C 317.316 123.901,317.186 123.887,317.182 124.289 C 317.177 124.670,317.076 124.652,316.791 124.219 C 316.449 123.698,316.364 123.698,316.022 124.219 C 315.680 124.740,315.636 124.740,315.625 124.219 C 315.618 123.874,315.495 123.794,315.326 124.023 C 315.168 124.238,313.369 124.462,311.328 124.520 C 309.287 124.578,307.046 124.708,306.348 124.810 C 305.649 124.912,305.078 124.832,305.078 124.632 C 305.078 124.432,305.562 124.194,306.152 124.104 C 306.743 124.013,306.084 124.017,304.688 124.113 C 302.118 124.288,301.797 124.388,301.709 125.033 C 301.682 125.229,301.624 125.435,301.579 125.488 C 301.535 125.542,301.420 126.113,301.324 126.758 C 299.198 141.086,296.799 145.452,288.554 149.991 L 283.984 152.507 283.984 157.661 C 283.984 161.990,284.452 166.090,286.905 183.263 C 295.383 242.633,296.940 263.736,293.587 273.828 C 290.614 282.773,287.034 290.338,281.861 298.604 C 280.257 301.166,279.035 303.407,279.144 303.584 C 279.253 303.761,279.069 303.906,278.734 303.906 C 278.399 303.906,278.125 304.077,278.125 304.285 C 278.125 304.493,278.433 304.564,278.809 304.443 C 279.366 304.264,279.387 304.297,278.925 304.625 C 278.613 304.846,278.230 304.947,278.073 304.851 C 277.916 304.754,277.678 304.853,277.544 305.071 C 277.224 305.589,284.382 305.189,287.598 304.509 C 288.216 304.378,288.672 304.451,288.672 304.680 C 288.672 304.899,288.276 305.087,287.793 305.098 C 286.458 305.128,283.420 305.534,283.236 305.707 C 283.146 305.791,283.937 305.879,284.993 305.904 C 286.050 305.928,287.472 305.990,288.155 306.042 C 288.838 306.094,289.629 305.989,289.913 305.808 C 290.408 305.494,289.898 305.281,288.979 305.418 C 288.826 305.441,288.814 305.163,288.953 304.800 C 289.112 304.386,289.264 304.315,289.362 304.610 C 289.571 305.236,291.795 305.218,291.803 304.590 C 291.807 304.232,291.899 304.244,292.146 304.634 C 292.431 305.084,292.517 305.084,292.696 304.634 C 292.871 304.197,292.984 304.207,293.324 304.688 C 293.692 305.208,293.739 305.208,293.750 304.688 C 293.757 304.343,293.880 304.262,294.049 304.492 C 294.490 305.093,299.608 305.177,299.615 304.584 C 299.619 304.270,299.754 304.306,300.000 304.688 C 300.208 305.010,300.381 305.090,300.385 304.866 C 300.388 304.638,301.246 304.458,302.328 304.458 C 304.985 304.458,304.234 304.971,301.465 305.048 C 300.874 305.065,300.391 305.257,300.391 305.476 C 300.391 305.700,300.862 305.785,301.465 305.671 C 302.056 305.558,304.033 305.369,305.859 305.251 C 309.505 305.014,310.973 304.852,312.598 304.509 C 313.216 304.378,313.672 304.451,313.672 304.680 C 313.672 304.899,313.276 305.087,312.793 305.098 C 311.458 305.128,308.420 305.534,308.236 305.707 C 308.146 305.791,308.937 305.879,309.993 305.904 C 311.050 305.928,312.472 305.990,313.155 306.042 C 313.838 306.094,314.629 305.989,314.913 305.808 C 315.408 305.494,314.898 305.281,313.979 305.418 C 313.826 305.441,313.814 305.163,313.953 304.800 C 314.112 304.386,314.264 304.315,314.362 304.610 C 314.571 305.236,316.795 305.218,316.803 304.590 C 316.807 304.232,316.899 304.244,317.146 304.634 C 317.431 305.084,317.517 305.084,317.696 304.634 C 317.871 304.197,317.984 304.207,318.324 304.688 C 318.692 305.208,318.739 305.208,318.750 304.688 C 318.757 304.343,318.880 304.262,319.049 304.492 C 319.490 305.093,324.608 305.177,324.615 304.584 C 324.619 304.270,324.754 304.306,325.000 304.688 C 325.208 305.010,325.381 305.090,325.385 304.866 C 325.388 304.638,326.246 304.458,327.328 304.458 C 329.985 304.458,329.234 304.971,326.465 305.048 C 325.874 305.065,325.391 305.257,325.391 305.476 C 325.391 305.700,325.862 305.785,326.465 305.671 C 327.056 305.558,329.033 305.369,330.859 305.251 C 334.505 305.014,335.973 304.852,337.598 304.509 C 338.216 304.378,338.672 304.451,338.672 304.680 C 338.672 304.899,338.276 305.087,337.793 305.098 C 336.458 305.128,333.420 305.534,333.236 305.707 C 333.146 305.791,333.937 305.879,334.993 305.904 C 336.050 305.928,337.472 305.990,338.155 306.042 C 338.838 306.094,339.629 305.989,339.913 305.808 C 340.408 305.494,339.898 305.281,338.979 305.418 C 338.826 305.441,338.814 305.163,338.953 304.800 C 339.112 304.386,339.264 304.315,339.362 304.610 C 339.571 305.236,341.795 305.218,341.803 304.590 C 341.807 304.232,341.899 304.244,342.146 304.634 C 342.431 305.084,342.517 305.084,342.696 304.634 C 342.871 304.197,342.984 304.207,343.324 304.688 C 343.692 305.208,343.739 305.208,343.750 304.688 C 343.757 304.343,343.880 304.262,344.049 304.492 C 344.490 305.093,349.608 305.177,349.615 304.584 C 349.619 304.270,349.754 304.306,350.000 304.688 C 350.208 305.010,350.381 305.090,350.385 304.866 C 350.388 304.638,351.246 304.458,352.328 304.458 C 354.985 304.458,354.234 304.971,351.465 305.048 C 350.874 305.065,350.391 305.257,350.391 305.476 C 350.391 305.700,350.862 305.785,351.465 305.671 C 352.056 305.558,354.033 305.369,355.859 305.251 C 359.505 305.014,360.973 304.852,362.598 304.509 C 363.216 304.378,363.672 304.451,363.672 304.680 C 363.672 304.899,363.276 305.087,362.793 305.098 C 361.458 305.128,358.420 305.534,358.236 305.707 C 358.146 305.791,358.937 305.879,359.993 305.904 C 361.050 305.928,362.472 305.990,363.155 306.042 C 363.838 306.094,364.629 305.989,364.913 305.808 C 365.408 305.494,364.898 305.281,363.979 305.418 C 363.826 305.441,363.814 305.163,363.953 304.800 C 364.112 304.386,364.264 304.315,364.362 304.610 C 364.571 305.236,366.795 305.218,366.803 304.590 C 366.807 304.232,366.899 304.244,367.146 304.634 C 367.431 305.084,367.517 305.084,367.696 304.634 C 367.871 304.197,367.984 304.207,368.324 304.688 C 368.621 305.107,368.740 305.131,368.744 304.770 C 368.749 304.359,368.850 304.359,369.295 304.770 C 369.595 305.047,369.748 305.424,369.637 305.608 C 369.525 305.792,369.324 305.783,369.189 305.587 C 369.055 305.391,368.639 305.546,368.265 305.933 C 367.421 306.803,368.616 306.781,369.669 305.907 C 370.247 305.427,372.505 301.693,372.596 301.067 C 372.620 300.901,372.981 300.399,373.399 299.951 C 375.435 297.765,384.434 278.667,387.957 269.053 C 403.942 225.435,404.135 175.197,388.482 132.617 C 387.692 130.469,386.940 128.359,386.812 127.930 C 386.541 127.028,385.975 126.394,385.149 126.070 C 384.693 125.891,384.715 125.836,385.254 125.812 C 386.082 125.775,386.092 125.492,385.311 124.219 C 384.981 123.682,384.806 123.550,384.922 123.926 M32.703 125.194 C 34.219 125.147,34.523 125.181,33.413 125.274 C 32.044 125.389,31.642 125.542,32.046 125.793 C 32.410 126.020,31.908 126.065,30.664 125.918 C 29.590 125.790,28.646 125.511,28.566 125.299 C 28.486 125.086,28.269 125.151,28.084 125.444 C 27.897 125.739,27.744 125.784,27.740 125.546 C 27.736 125.254,26.817 125.174,24.902 125.299 C 23.345 125.401,22.212 125.336,22.384 125.156 C 22.804 124.717,28.142 124.651,28.995 125.074 C 29.532 125.340,29.626 125.267,29.454 124.716 C 29.264 124.108,29.288 124.100,29.646 124.651 C 29.964 125.140,30.636 125.259,32.703 125.194 M57.703 125.194 C 59.219 125.147,59.523 125.181,58.413 125.274 C 57.044 125.389,56.642 125.542,57.046 125.793 C 57.410 126.020,56.908 126.065,55.664 125.918 C 54.590 125.790,53.646 125.511,53.566 125.299 C 53.486 125.086,53.269 125.151,53.084 125.444 C 52.897 125.739,52.744 125.784,52.740 125.546 C 52.736 125.254,51.817 125.174,49.902 125.299 C 48.345 125.401,47.212 125.336,47.384 125.156 C 47.804 124.717,53.142 124.651,53.995 125.074 C 54.532 125.340,54.626 125.267,54.454 124.716 C 54.264 124.108,54.288 124.100,54.646 124.651 C 54.964 125.140,55.636 125.259,57.703 125.194 M82.703 125.194 C 84.219 125.147,84.523 125.181,83.413 125.274 C 82.044 125.389,81.642 125.542,82.046 125.793 C 82.410 126.020,81.908 126.065,80.664 125.918 C 79.590 125.790,78.646 125.511,78.566 125.299 C 78.486 125.086,78.269 125.151,78.084 125.444 C 77.897 125.739,77.744 125.784,77.740 125.546 C 77.736 125.254,76.817 125.174,74.902 125.299 C 73.345 125.401,72.212 125.336,72.384 125.156 C 72.804 124.717,78.142 124.651,78.995 125.074 C 79.532 125.340,79.626 125.267,79.454 124.716 C 79.264 124.108,79.288 124.100,79.646 124.651 C 79.964 125.140,80.636 125.259,82.703 125.194 M307.703 125.194 C 309.219 125.147,309.523 125.181,308.413 125.274 C 307.044 125.389,306.642 125.542,307.046 125.793 C 307.410 126.020,306.907 126.065,305.664 125.916 C 304.590 125.788,303.600 125.509,303.465 125.297 C 303.305 125.046,303.169 125.050,303.075 125.308 C 302.990 125.538,302.714 125.470,302.414 125.144 C 301.881 124.564,303.332 124.599,304.286 125.189 C 304.519 125.332,304.589 125.145,304.458 124.727 C 304.266 124.114,304.290 124.104,304.646 124.651 C 304.964 125.140,305.636 125.259,307.703 125.194 M332.703 125.194 C 334.219 125.147,334.523 125.181,333.413 125.274 C 332.044 125.389,331.642 125.542,332.046 125.793 C 332.410 126.020,331.908 126.065,330.664 125.918 C 329.590 125.790,328.646 125.511,328.566 125.299 C 328.486 125.086,328.269 125.151,328.084 125.444 C 327.897 125.739,327.744 125.784,327.740 125.546 C 327.736 125.254,326.817 125.174,324.902 125.299 C 323.345 125.401,322.212 125.336,322.384 125.156 C 322.804 124.717,328.142 124.651,328.995 125.074 C 329.532 125.340,329.626 125.267,329.454 124.716 C 329.264 124.108,329.288 124.100,329.646 124.651 C 329.964 125.140,330.636 125.259,332.703 125.194 M357.703 125.194 C 359.219 125.147,359.523 125.181,358.413 125.274 C 357.044 125.389,356.642 125.542,357.046 125.793 C 357.410 126.020,356.908 126.065,355.664 125.918 C 354.590 125.790,353.646 125.511,353.566 125.299 C 353.486 125.086,353.269 125.151,353.084 125.444 C 352.897 125.739,352.744 125.784,352.740 125.546 C 352.736 125.254,351.817 125.174,349.902 125.299 C 348.345 125.401,347.212 125.336,347.384 125.156 C 347.804 124.717,353.142 124.651,353.995 125.074 C 354.532 125.340,354.626 125.267,354.454 124.716 C 354.264 124.108,354.288 124.100,354.646 124.651 C 354.964 125.140,355.636 125.259,357.703 125.194 M382.703 125.194 C 384.219 125.147,384.523 125.181,383.413 125.274 C 382.044 125.389,381.642 125.542,382.046 125.793 C 382.410 126.020,381.908 126.065,380.664 125.918 C 379.590 125.790,378.646 125.511,378.566 125.299 C 378.486 125.086,378.269 125.151,378.084 125.444 C 377.897 125.739,377.744 125.784,377.740 125.546 C 377.736 125.254,376.817 125.174,374.902 125.299 C 373.345 125.401,372.212 125.336,372.384 125.156 C 372.804 124.717,378.142 124.651,378.995 125.074 C 379.532 125.340,379.626 125.267,379.454 124.716 C 379.264 124.108,379.288 124.100,379.646 124.651 C 379.964 125.140,380.636 125.259,382.703 125.194 M18.652 125.175 C 19.136 125.294,19.883 125.479,20.313 125.586 C 20.742 125.693,21.469 125.864,21.928 125.964 C 23.548 126.320,23.123 126.530,21.242 126.305 C 20.194 126.179,19.271 125.902,19.191 125.689 C 19.111 125.476,18.894 125.542,18.709 125.835 C 18.462 126.225,18.370 126.236,18.365 125.879 C 18.362 125.598,17.861 125.391,17.188 125.391 C 16.543 125.391,16.016 125.211,16.016 124.992 C 16.016 124.619,16.524 124.654,18.652 125.175 M38.703 125.098 C 38.725 125.444,38.795 125.432,38.945 125.053 C 39.124 124.604,39.211 124.604,39.500 125.053 C 39.731 125.411,39.940 125.450,40.137 125.174 C 40.329 124.904,40.668 125.008,41.123 125.476 C 41.852 126.229,41.667 126.239,39.063 125.595 C 38.740 125.516,38.345 125.437,38.184 125.421 C 38.022 125.404,37.891 125.215,37.891 125.000 C 37.891 124.428,38.666 124.522,38.703 125.098 M43.652 125.175 C 44.136 125.294,44.883 125.479,45.313 125.586 C 45.742 125.693,46.469 125.864,46.928 125.964 C 48.548 126.320,48.123 126.530,46.242 126.305 C 45.194 126.179,44.271 125.902,44.191 125.689 C 44.111 125.476,43.894 125.542,43.709 125.835 C 43.462 126.225,43.370 126.236,43.365 125.879 C 43.362 125.598,42.861 125.391,42.188 125.391 C 41.543 125.391,41.016 125.211,41.016 124.992 C 41.016 124.619,41.524 124.654,43.652 125.175 M63.703 125.098 C 63.725 125.444,63.795 125.432,63.945 125.053 C 64.124 124.604,64.211 124.604,64.500 125.053 C 64.731 125.411,64.940 125.450,65.137 125.174 C 65.329 124.904,65.668 125.008,66.123 125.476 C 66.852 126.229,66.667 126.239,64.063 125.595 C 63.740 125.516,63.345 125.437,63.184 125.421 C 63.022 125.404,62.891 125.215,62.891 125.000 C 62.891 124.428,63.666 124.522,63.703 125.098 M68.652 125.175 C 69.136 125.294,69.883 125.479,70.313 125.586 C 70.742 125.693,71.469 125.864,71.928 125.964 C 73.548 126.320,73.123 126.530,71.242 126.305 C 70.194 126.179,69.271 125.902,69.191 125.689 C 69.111 125.476,68.894 125.542,68.709 125.835 C 68.462 126.225,68.370 126.236,68.365 125.879 C 68.362 125.598,67.861 125.391,67.188 125.391 C 66.543 125.391,66.016 125.211,66.016 124.992 C 66.016 124.619,66.524 124.654,68.652 125.175 M88.703 125.098 C 88.725 125.444,88.795 125.432,88.945 125.053 C 89.124 124.604,89.211 124.604,89.500 125.053 C 89.731 125.411,89.940 125.450,90.137 125.174 C 90.329 124.904,90.668 125.008,91.123 125.476 C 91.852 126.229,91.667 126.239,89.063 125.595 C 88.740 125.516,88.345 125.437,88.184 125.421 C 88.022 125.404,87.891 125.215,87.891 125.000 C 87.891 124.428,88.666 124.522,88.703 125.098 M93.652 125.175 C 94.136 125.294,94.883 125.479,95.313 125.586 C 95.742 125.693,96.469 125.864,96.928 125.964 C 98.548 126.320,98.123 126.530,96.242 126.305 C 95.194 126.179,94.271 125.902,94.191 125.689 C 94.111 125.476,93.894 125.542,93.709 125.835 C 93.462 126.225,93.370 126.236,93.365 125.879 C 93.362 125.598,92.861 125.391,92.188 125.391 C 91.543 125.391,91.016 125.211,91.016 124.992 C 91.016 124.619,91.524 124.654,93.652 125.175 M313.703 125.098 C 313.725 125.444,313.795 125.432,313.945 125.053 C 314.124 124.604,314.211 124.604,314.500 125.053 C 314.731 125.411,314.940 125.450,315.137 125.174 C 315.329 124.904,315.668 125.008,316.123 125.476 C 316.852 126.229,316.667 126.239,314.063 125.595 C 313.740 125.516,313.345 125.437,313.184 125.421 C 313.022 125.404,312.891 125.215,312.891 125.000 C 312.891 124.428,313.666 124.522,313.703 125.098 M318.652 125.175 C 319.136 125.294,319.883 125.479,320.313 125.586 C 320.742 125.693,321.469 125.864,321.928 125.964 C 323.548 126.320,323.123 126.530,321.242 126.305 C 320.194 126.179,319.271 125.902,319.191 125.689 C 319.111 125.476,318.894 125.542,318.709 125.835 C 318.462 126.225,318.370 126.236,318.365 125.879 C 318.362 125.598,317.861 125.391,317.188 125.391 C 316.543 125.391,316.016 125.211,316.016 124.992 C 316.016 124.619,316.524 124.654,318.652 125.175 M338.703 125.098 C 338.725 125.444,338.795 125.432,338.945 125.053 C 339.124 124.604,339.211 124.604,339.500 125.053 C 339.731 125.411,339.940 125.450,340.137 125.174 C 340.329 124.904,340.668 125.008,341.123 125.476 C 341.852 126.229,341.667 126.239,339.063 125.595 C 338.740 125.516,338.345 125.437,338.184 125.421 C 338.022 125.404,337.891 125.215,337.891 125.000 C 337.891 124.428,338.666 124.522,338.703 125.098 M343.652 125.175 C 344.136 125.294,344.883 125.479,345.313 125.586 C 345.742 125.693,346.469 125.864,346.928 125.964 C 348.548 126.320,348.123 126.530,346.242 126.305 C 345.194 126.179,344.271 125.902,344.191 125.689 C 344.111 125.476,343.894 125.542,343.709 125.835 C 343.462 126.225,343.370 126.236,343.365 125.879 C 343.362 125.598,342.861 125.391,342.188 125.391 C 341.543 125.391,341.016 125.211,341.016 124.992 C 341.016 124.619,341.524 124.654,343.652 125.175 M363.703 125.098 C 363.725 125.444,363.795 125.432,363.945 125.053 C 364.124 124.604,364.211 124.604,364.500 125.053 C 364.731 125.411,364.940 125.450,365.137 125.174 C 365.329 124.904,365.668 125.008,366.123 125.476 C 366.852 126.229,366.667 126.239,364.063 125.595 C 363.740 125.516,363.345 125.437,363.184 125.421 C 363.022 125.404,362.891 125.215,362.891 125.000 C 362.891 124.428,363.666 124.522,363.703 125.098 M368.652 125.175 C 369.136 125.294,369.883 125.479,370.313 125.586 C 370.742 125.693,371.469 125.864,371.928 125.964 C 373.548 126.320,373.123 126.530,371.242 126.305 C 370.194 126.179,369.271 125.902,369.191 125.689 C 369.111 125.476,368.894 125.542,368.709 125.835 C 368.462 126.225,368.370 126.236,368.365 125.879 C 368.362 125.598,367.861 125.391,367.188 125.391 C 366.543 125.391,366.016 125.211,366.016 124.992 C 366.016 124.619,366.524 124.654,368.652 125.175 M27.676 126.374 C 27.806 126.504,27.411 126.519,26.799 126.408 C 26.186 126.297,25.579 126.100,25.449 125.970 C 25.319 125.840,25.714 125.825,26.326 125.936 C 26.939 126.047,27.546 126.244,27.676 126.374 M36.621 126.051 C 36.245 126.149,35.630 126.149,35.254 126.051 C 34.878 125.952,35.186 125.872,35.938 125.872 C 36.689 125.872,36.997 125.952,36.621 126.051 M52.676 126.374 C 52.806 126.504,52.411 126.519,51.799 126.408 C 51.186 126.297,50.579 126.100,50.449 125.970 C 50.319 125.840,50.714 125.825,51.326 125.936 C 51.939 126.047,52.546 126.244,52.676 126.374 M61.621 126.051 C 61.245 126.149,60.630 126.149,60.254 126.051 C 59.878 125.952,60.186 125.872,60.938 125.872 C 61.689 125.872,61.997 125.952,61.621 126.051 M77.676 126.374 C 77.806 126.504,77.411 126.519,76.799 126.408 C 76.186 126.297,75.579 126.100,75.449 125.970 C 75.319 125.840,75.714 125.825,76.326 125.936 C 76.939 126.047,77.546 126.244,77.676 126.374 M86.621 126.051 C 86.245 126.149,85.630 126.149,85.254 126.051 C 84.878 125.952,85.186 125.872,85.938 125.872 C 86.689 125.872,86.997 125.952,86.621 126.051 M311.621 126.051 C 311.245 126.149,310.630 126.149,310.254 126.051 C 309.878 125.952,310.186 125.872,310.938 125.872 C 311.689 125.872,311.997 125.952,311.621 126.051 M327.676 126.374 C 327.806 126.504,327.411 126.519,326.799 126.408 C 326.186 126.297,325.579 126.100,325.449 125.970 C 325.319 125.840,325.714 125.825,326.326 125.936 C 326.939 126.047,327.546 126.244,327.676 126.374 M336.621 126.051 C 336.245 126.149,335.630 126.149,335.254 126.051 C 334.878 125.952,335.186 125.872,335.938 125.872 C 336.689 125.872,336.997 125.952,336.621 126.051 M352.676 126.374 C 352.806 126.504,352.411 126.519,351.799 126.408 C 351.186 126.297,350.579 126.100,350.449 125.970 C 350.319 125.840,350.714 125.825,351.326 125.936 C 351.939 126.047,352.546 126.244,352.676 126.374 M361.621 126.051 C 361.245 126.149,360.630 126.149,360.254 126.051 C 359.878 125.952,360.186 125.872,360.938 125.872 C 361.689 125.872,361.997 125.952,361.621 126.051 M377.676 126.374 C 377.806 126.504,377.411 126.519,376.799 126.408 C 376.186 126.297,375.579 126.100,375.449 125.970 C 375.319 125.840,375.714 125.825,376.326 125.936 C 376.939 126.047,377.546 126.244,377.676 126.374 M49.506 303.749 C 49.401 303.854,48.810 304.025,48.192 304.127 C 47.554 304.233,47.274 304.178,47.543 303.999 C 48.054 303.659,49.822 303.434,49.506 303.749 M74.506 303.749 C 74.401 303.854,73.810 304.025,73.192 304.127 C 72.554 304.233,72.274 304.178,72.543 303.999 C 73.054 303.659,74.822 303.434,74.506 303.749 M99.506 303.749 C 99.401 303.854,98.810 304.025,98.192 304.127 C 97.554 304.233,97.274 304.178,97.543 303.999 C 98.054 303.659,99.822 303.434,99.506 303.749 M299.506 303.749 C 299.401 303.854,298.810 304.025,298.192 304.127 C 297.554 304.233,297.274 304.178,297.543 303.999 C 298.054 303.659,299.822 303.434,299.506 303.749 M324.506 303.749 C 324.401 303.854,323.810 304.025,323.192 304.127 C 322.554 304.233,322.274 304.178,322.543 303.999 C 323.054 303.659,324.822 303.434,324.506 303.749 M349.506 303.749 C 349.401 303.854,348.810 304.025,348.192 304.127 C 347.554 304.233,347.274 304.178,347.543 303.999 C 348.054 303.659,349.822 303.434,349.506 303.749 M33.496 304.566 C 33.120 304.664,32.505 304.664,32.129 304.566 C 31.753 304.468,32.061 304.388,32.813 304.388 C 33.564 304.388,33.872 304.468,33.496 304.566 M58.496 304.566 C 58.120 304.664,57.505 304.664,57.129 304.566 C 56.753 304.468,57.061 304.388,57.813 304.388 C 58.564 304.388,58.872 304.468,58.496 304.566 M83.496 304.566 C 83.120 304.664,82.505 304.664,82.129 304.566 C 81.753 304.468,82.061 304.388,82.813 304.388 C 83.564 304.388,83.872 304.468,83.496 304.566 M108.496 304.566 C 108.120 304.664,107.505 304.664,107.129 304.566 C 106.753 304.468,107.061 304.388,107.813 304.388 C 108.564 304.388,108.872 304.468,108.496 304.566 M283.496 304.566 C 283.120 304.664,282.505 304.664,282.129 304.566 C 281.753 304.468,282.061 304.388,282.813 304.388 C 283.564 304.388,283.872 304.468,283.496 304.566 M308.496 304.566 C 308.120 304.664,307.505 304.664,307.129 304.566 C 306.753 304.468,307.061 304.388,307.813 304.388 C 308.564 304.388,308.872 304.468,308.496 304.566 M333.496 304.566 C 333.120 304.664,332.505 304.664,332.129 304.566 C 331.753 304.468,332.061 304.388,332.813 304.388 C 333.564 304.388,333.872 304.468,333.496 304.566 M358.496 304.566 C 358.120 304.664,357.505 304.664,357.129 304.566 C 356.753 304.468,357.061 304.388,357.813 304.388 C 358.564 304.388,358.872 304.468,358.496 304.566 M43.252 305.945 C 42.523 306.697,42.708 306.708,45.313 306.064 C 45.635 305.984,46.411 305.906,47.038 305.889 C 48.322 305.856,48.224 305.533,46.849 305.268 C 46.347 305.172,45.798 305.309,45.630 305.574 C 45.404 305.929,45.321 305.901,45.313 305.469 C 45.302 304.948,45.258 304.948,44.916 305.469 C 44.661 305.857,44.432 305.915,44.238 305.643 C 44.046 305.372,43.707 305.477,43.252 305.945 M68.252 305.945 C 67.523 306.697,67.708 306.708,70.313 306.064 C 70.635 305.984,71.411 305.906,72.038 305.889 C 73.322 305.856,73.224 305.533,71.849 305.268 C 71.347 305.172,70.798 305.309,70.630 305.574 C 70.404 305.929,70.321 305.901,70.313 305.469 C 70.302 304.948,70.258 304.948,69.916 305.469 C 69.661 305.857,69.432 305.915,69.238 305.643 C 69.046 305.372,68.707 305.477,68.252 305.945 M93.252 305.945 C 92.523 306.697,92.708 306.708,95.313 306.064 C 95.635 305.984,96.411 305.906,97.038 305.889 C 98.322 305.856,98.224 305.533,96.849 305.268 C 96.347 305.172,95.798 305.309,95.630 305.574 C 95.404 305.929,95.321 305.901,95.313 305.469 C 95.302 304.948,95.258 304.948,94.916 305.469 C 94.661 305.857,94.432 305.915,94.238 305.643 C 94.046 305.372,93.707 305.477,93.252 305.945 M118.252 305.945 C 117.523 306.697,117.708 306.708,120.313 306.064 C 120.635 305.984,121.411 305.906,122.038 305.889 C 123.322 305.856,123.224 305.533,121.849 305.268 C 121.347 305.172,120.798 305.309,120.630 305.574 C 120.404 305.929,120.321 305.901,120.313 305.469 C 120.302 304.948,120.258 304.948,119.916 305.469 C 119.661 305.857,119.432 305.915,119.238 305.643 C 119.046 305.372,118.707 305.477,118.252 305.945 M293.252 305.945 C 292.523 306.697,292.708 306.708,295.313 306.064 C 295.635 305.984,296.411 305.906,297.038 305.889 C 298.322 305.856,298.224 305.533,296.849 305.268 C 296.347 305.172,295.798 305.309,295.630 305.574 C 295.404 305.929,295.321 305.901,295.313 305.469 C 295.302 304.948,295.258 304.948,294.916 305.469 C 294.661 305.857,294.432 305.915,294.238 305.643 C 294.046 305.372,293.707 305.477,293.252 305.945 M318.252 305.945 C 317.523 306.697,317.708 306.708,320.313 306.064 C 320.635 305.984,321.411 305.906,322.038 305.889 C 323.322 305.856,323.224 305.533,321.849 305.268 C 321.347 305.172,320.798 305.309,320.630 305.574 C 320.404 305.929,320.321 305.901,320.313 305.469 C 320.302 304.948,320.258 304.948,319.916 305.469 C 319.661 305.857,319.432 305.915,319.238 305.643 C 319.046 305.372,318.707 305.477,318.252 305.945 M343.252 305.945 C 342.523 306.697,342.708 306.708,345.313 306.064 C 345.635 305.984,346.411 305.906,347.038 305.889 C 348.322 305.856,348.224 305.533,346.849 305.268 C 346.347 305.172,345.798 305.309,345.630 305.574 C 345.404 305.929,345.321 305.901,345.313 305.469 C 345.302 304.948,345.258 304.948,344.916 305.469 C 344.661 305.857,344.432 305.915,344.238 305.643 C 344.046 305.372,343.707 305.477,343.252 305.945 M56.112 306.046 C 55.998 306.344,55.411 306.663,54.808 306.754 C 54.204 306.845,54.461 306.883,55.378 306.838 C 57.316 306.743,57.529 306.617,56.832 305.974 C 56.430 305.605,56.275 305.620,56.112 306.046 M81.112 306.046 C 80.998 306.344,80.411 306.663,79.808 306.754 C 79.204 306.845,79.461 306.883,80.378 306.838 C 82.316 306.743,82.529 306.617,81.832 305.974 C 81.430 305.605,81.275 305.620,81.112 306.046 M106.112 306.046 C 105.998 306.344,105.411 306.663,104.808 306.754 C 104.204 306.845,104.461 306.883,105.378 306.838 C 107.316 306.743,107.529 306.617,106.832 305.974 C 106.430 305.605,106.275 305.620,106.112 306.046 M281.112 306.046 C 280.998 306.344,280.411 306.663,279.808 306.754 C 279.204 306.845,279.461 306.883,280.378 306.838 C 282.316 306.743,282.529 306.617,281.832 305.974 C 281.430 305.605,281.275 305.620,281.112 306.046 M306.112 306.046 C 305.998 306.344,305.411 306.663,304.808 306.754 C 304.204 306.845,304.461 306.883,305.378 306.838 C 307.316 306.743,307.529 306.617,306.832 305.974 C 306.430 305.605,306.275 305.620,306.112 306.046 M331.112 306.046 C 330.998 306.344,330.411 306.663,329.808 306.754 C 329.204 306.845,329.461 306.883,330.378 306.838 C 332.316 306.743,332.529 306.617,331.832 305.974 C 331.430 305.605,331.275 305.620,331.112 306.046 M356.112 306.046 C 355.998 306.344,355.411 306.663,354.808 306.754 C 354.204 306.845,354.461 306.883,355.378 306.838 C 357.316 306.743,357.529 306.617,356.832 305.974 C 356.430 305.605,356.275 305.620,356.112 306.046 M49.219 306.296 L 47.070 306.537 49.494 306.525 C 50.827 306.519,52.143 306.374,52.418 306.204 C 52.953 305.874,52.989 305.873,49.219 306.296 M74.219 306.296 L 72.070 306.537 74.494 306.525 C 75.827 306.519,77.143 306.374,77.418 306.204 C 77.953 305.874,77.989 305.873,74.219 306.296 M99.219 306.296 L 97.070 306.537 99.494 306.525 C 100.827 306.519,102.143 306.374,102.418 306.204 C 102.953 305.874,102.989 305.873,99.219 306.296 M299.219 306.296 L 297.070 306.537 299.494 306.525 C 300.827 306.519,302.143 306.374,302.418 306.204 C 302.953 305.874,302.989 305.873,299.219 306.296 M324.219 306.296 L 322.070 306.537 324.494 306.525 C 325.827 306.519,327.143 306.374,327.418 306.204 C 327.953 305.874,327.989 305.873,324.219 306.296 M349.219 306.296 L 347.070 306.537 349.494 306.525 C 350.827 306.519,352.143 306.374,352.418 306.204 C 352.953 305.874,352.989 305.873,349.219 306.296 " stroke="none" fill="#7ee2f1" fill-rule="evenodd"></path><path id="path3" d="M121.458 303.783 C 121.687 304.252,121.875 304.692,121.875 304.760 C 121.875 305.100,119.297 304.880,119.049 304.519 C 118.868 304.256,118.758 304.318,118.750 304.688 C 118.739 305.208,118.695 305.208,118.353 304.688 C 118.033 304.200,117.911 304.191,117.625 304.634 C 117.336 305.084,117.249 305.084,117.070 304.634 C 116.920 304.256,116.850 304.243,116.828 304.590 C 116.788 305.216,114.570 305.234,114.362 304.610 C 114.264 304.315,114.112 304.386,113.953 304.800 C 113.814 305.163,113.826 305.441,113.979 305.418 C 114.898 305.281,115.408 305.494,114.913 305.808 C 114.629 305.989,113.838 306.094,113.155 306.042 C 112.472 305.990,111.050 305.928,109.993 305.904 C 108.937 305.879,108.146 305.791,108.236 305.707 C 108.420 305.534,111.458 305.128,112.793 305.098 C 113.276 305.087,113.672 304.899,113.672 304.680 C 113.672 304.451,113.216 304.378,112.598 304.509 C 110.973 304.852,109.505 305.014,105.859 305.251 C 104.033 305.369,102.056 305.558,101.465 305.671 C 100.862 305.785,100.391 305.700,100.391 305.476 C 100.391 305.257,100.874 305.065,101.465 305.048 C 104.234 304.971,104.985 304.458,102.328 304.458 C 101.246 304.458,100.388 304.638,100.385 304.866 C 100.381 305.090,100.208 305.010,100.000 304.688 C 99.754 304.306,99.619 304.270,99.615 304.584 C 99.608 305.177,94.490 305.093,94.049 304.492 C 93.880 304.262,93.757 304.343,93.750 304.688 C 93.739 305.208,93.695 305.208,93.353 304.688 C 93.033 304.200,92.911 304.191,92.625 304.634 C 92.336 305.084,92.249 305.084,92.070 304.634 C 91.920 304.256,91.850 304.243,91.828 304.590 C 91.788 305.216,89.570 305.234,89.362 304.610 C 89.264 304.315,89.112 304.386,88.953 304.800 C 88.814 305.163,88.826 305.441,88.979 305.418 C 89.898 305.281,90.408 305.494,89.913 305.808 C 89.629 305.989,88.838 306.094,88.155 306.042 C 87.472 305.990,86.050 305.928,84.993 305.904 C 83.937 305.879,83.146 305.791,83.236 305.707 C 83.420 305.534,86.458 305.128,87.793 305.098 C 88.276 305.087,88.672 304.899,88.672 304.680 C 88.672 304.451,88.216 304.378,87.598 304.509 C 85.973 304.852,84.505 305.014,80.859 305.251 C 79.033 305.369,77.056 305.558,76.465 305.671 C 75.862 305.785,75.391 305.700,75.391 305.476 C 75.391 305.257,75.874 305.065,76.465 305.048 C 79.234 304.971,79.985 304.458,77.328 304.458 C 76.246 304.458,75.388 304.638,75.385 304.866 C 75.381 305.090,75.208 305.010,75.000 304.688 C 74.754 304.306,74.619 304.270,74.615 304.584 C 74.608 305.177,69.490 305.093,69.049 304.492 C 68.880 304.262,68.757 304.343,68.750 304.688 C 68.739 305.208,68.695 305.208,68.353 304.688 C 68.033 304.200,67.911 304.191,67.625 304.634 C 67.336 305.084,67.249 305.084,67.070 304.634 C 66.920 304.256,66.850 304.243,66.828 304.590 C 66.788 305.216,64.570 305.234,64.362 304.610 C 64.264 304.315,64.112 304.386,63.953 304.800 C 63.814 305.163,63.826 305.441,63.979 305.418 C 64.898 305.281,65.408 305.494,64.913 305.808 C 64.629 305.989,63.838 306.094,63.155 306.042 C 62.472 305.990,61.050 305.928,59.993 305.904 C 58.937 305.879,58.146 305.791,58.236 305.707 C 58.420 305.534,61.458 305.128,62.793 305.098 C 63.276 305.087,63.672 304.899,63.672 304.680 C 63.672 304.451,63.216 304.378,62.598 304.509 C 60.973 304.852,59.505 305.014,55.859 305.251 C 54.033 305.369,52.056 305.558,51.465 305.671 C 50.862 305.785,50.391 305.700,50.391 305.476 C 50.391 305.257,50.874 305.065,51.465 305.048 C 54.234 304.971,54.985 304.458,52.328 304.458 C 51.246 304.458,50.388 304.638,50.385 304.866 C 50.381 305.090,50.208 305.010,50.000 304.688 C 49.754 304.306,49.619 304.270,49.615 304.584 C 49.608 305.177,44.490 305.093,44.049 304.492 C 43.880 304.262,43.757 304.343,43.750 304.688 C 43.739 305.208,43.695 305.208,43.353 304.688 C 43.033 304.200,42.911 304.191,42.625 304.634 C 42.336 305.084,42.249 305.084,42.070 304.634 C 41.920 304.256,41.850 304.243,41.828 304.590 C 41.788 305.216,39.570 305.234,39.362 304.610 C 39.264 304.315,39.112 304.386,38.953 304.800 C 38.814 305.163,38.826 305.441,38.979 305.418 C 39.898 305.281,40.408 305.494,39.913 305.808 C 39.629 305.989,38.838 306.094,38.155 306.042 C 37.472 305.990,36.050 305.928,34.993 305.904 C 33.937 305.879,33.146 305.791,33.236 305.707 C 33.420 305.534,36.458 305.128,37.793 305.098 C 38.276 305.087,38.672 304.899,38.672 304.680 C 38.672 304.324,37.953 304.375,35.938 304.873 C 35.615 304.953,34.121 305.046,32.617 305.079 C 31.113 305.112,30.103 305.228,30.371 305.337 C 30.640 305.445,30.859 305.705,30.859 305.915 C 30.859 306.125,30.640 306.164,30.371 306.002 C 30.103 305.840,30.370 306.313,30.964 307.053 C 31.559 307.793,32.209 308.781,32.408 309.248 C 32.608 309.715,33.569 311.209,34.544 312.568 C 35.520 313.927,36.979 315.969,37.788 317.106 C 39.397 319.369,46.482 328.593,46.851 328.906 C 46.978 329.014,48.127 330.332,49.406 331.836 C 85.996 374.886,141.167 399.776,200.000 399.776 C 258.833 399.776,314.004 374.886,350.594 331.836 C 351.873 330.332,353.022 329.014,353.149 328.906 C 353.521 328.590,360.609 319.384,362.224 317.118 C 366.887 310.576,367.578 309.546,367.578 309.138 C 367.578 308.891,367.840 308.472,368.160 308.207 C 368.480 307.941,368.628 307.541,368.490 307.317 C 368.350 307.090,368.426 307.026,368.663 307.173 C 369.536 307.712,370.109 305.527,369.293 304.770 C 368.850 304.359,368.749 304.359,368.744 304.770 C 368.740 305.127,368.626 305.103,368.353 304.688 C 368.033 304.200,367.911 304.191,367.625 304.634 C 367.336 305.084,367.249 305.084,367.070 304.634 C 366.920 304.256,366.850 304.243,366.828 304.590 C 366.788 305.216,364.570 305.234,364.362 304.610 C 364.264 304.315,364.112 304.386,363.953 304.800 C 363.814 305.163,363.826 305.441,363.979 305.418 C 364.898 305.281,365.408 305.494,364.913 305.808 C 364.629 305.989,363.838 306.094,363.155 306.042 C 362.472 305.990,361.050 305.928,359.993 305.904 C 358.937 305.879,358.146 305.791,358.236 305.707 C 358.420 305.534,361.458 305.128,362.793 305.098 C 363.276 305.087,363.672 304.899,363.672 304.680 C 363.672 304.451,363.216 304.378,362.598 304.509 C 360.973 304.852,359.505 305.014,355.859 305.251 C 354.033 305.369,352.056 305.558,351.465 305.671 C 350.862 305.785,350.391 305.700,350.391 305.476 C 350.391 305.257,350.874 305.065,351.465 305.048 C 354.234 304.971,354.985 304.458,352.328 304.458 C 351.246 304.458,350.388 304.638,350.385 304.866 C 350.381 305.090,350.208 305.010,350.000 304.688 C 349.754 304.306,349.619 304.270,349.615 304.584 C 349.608 305.177,344.490 305.093,344.049 304.492 C 343.880 304.262,343.757 304.343,343.750 304.688 C 343.739 305.208,343.695 305.208,343.353 304.688 C 343.033 304.200,342.911 304.191,342.625 304.634 C 342.336 305.084,342.249 305.084,342.070 304.634 C 341.920 304.256,341.850 304.243,341.828 304.590 C 341.788 305.216,339.570 305.234,339.362 304.610 C 339.264 304.315,339.112 304.386,338.953 304.800 C 338.814 305.163,338.826 305.441,338.979 305.418 C 339.898 305.281,340.408 305.494,339.913 305.808 C 339.629 305.989,338.838 306.094,338.155 306.042 C 337.472 305.990,336.050 305.928,334.993 305.904 C 333.937 305.879,333.146 305.791,333.236 305.707 C 333.420 305.534,336.458 305.128,337.793 305.098 C 338.276 305.087,338.672 304.899,338.672 304.680 C 338.672 304.451,338.216 304.378,337.598 304.509 C 335.973 304.852,334.505 305.014,330.859 305.251 C 329.033 305.369,327.056 305.558,326.465 305.671 C 325.862 305.785,325.391 305.700,325.391 305.476 C 325.391 305.257,325.874 305.065,326.465 305.048 C 329.234 304.971,329.985 304.458,327.328 304.458 C 326.246 304.458,325.388 304.638,325.385 304.866 C 325.381 305.090,325.208 305.010,325.000 304.688 C 324.754 304.306,324.619 304.270,324.615 304.584 C 324.608 305.177,319.490 305.093,319.049 304.492 C 318.880 304.262,318.757 304.343,318.750 304.688 C 318.739 305.208,318.695 305.208,318.353 304.688 C 318.033 304.200,317.911 304.191,317.625 304.634 C 317.336 305.084,317.249 305.084,317.070 304.634 C 316.920 304.256,316.850 304.243,316.828 304.590 C 316.788 305.216,314.570 305.234,314.362 304.610 C 314.264 304.315,314.112 304.386,313.953 304.800 C 313.814 305.163,313.826 305.441,313.979 305.418 C 314.898 305.281,315.408 305.494,314.913 305.808 C 314.629 305.989,313.838 306.094,313.155 306.042 C 312.472 305.990,311.050 305.928,309.993 305.904 C 308.937 305.879,308.146 305.791,308.236 305.707 C 308.420 305.534,311.458 305.128,312.793 305.098 C 313.276 305.087,313.672 304.899,313.672 304.680 C 313.672 304.451,313.216 304.378,312.598 304.509 C 310.973 304.852,309.505 305.014,305.859 305.251 C 304.033 305.369,302.056 305.558,301.465 305.671 C 300.862 305.785,300.391 305.700,300.391 305.476 C 300.391 305.257,300.874 305.065,301.465 305.048 C 304.234 304.971,304.985 304.458,302.328 304.458 C 301.246 304.458,300.388 304.638,300.385 304.866 C 300.381 305.090,300.208 305.010,300.000 304.688 C 299.754 304.306,299.619 304.270,299.615 304.584 C 299.608 305.177,294.490 305.093,294.049 304.492 C 293.880 304.262,293.757 304.343,293.750 304.688 C 293.739 305.208,293.695 305.208,293.353 304.688 C 293.033 304.200,292.911 304.191,292.625 304.634 C 292.336 305.084,292.249 305.084,292.070 304.634 C 291.920 304.256,291.850 304.243,291.828 304.590 C 291.788 305.216,289.570 305.234,289.362 304.610 C 289.264 304.315,289.112 304.386,288.953 304.800 C 288.814 305.163,288.826 305.441,288.979 305.418 C 289.898 305.281,290.408 305.494,289.913 305.808 C 289.629 305.989,288.838 306.094,288.155 306.042 C 287.472 305.990,286.050 305.928,284.993 305.904 C 283.937 305.879,283.146 305.791,283.236 305.707 C 283.420 305.534,286.458 305.128,287.793 305.098 C 288.276 305.087,288.672 304.899,288.672 304.680 C 288.672 304.451,288.216 304.378,287.598 304.509 C 285.925 304.863,284.461 305.018,280.664 305.246 C 277.265 305.450,277.116 305.499,276.172 306.722 C 254.567 334.705,222.345 355.221,200.000 355.221 C 178.812 355.221,145.775 334.866,126.360 309.850 L 123.242 305.833 121.484 306.008 C 120.518 306.104,119.239 306.290,118.643 306.421 C 117.600 306.650,117.585 306.633,118.252 305.945 C 118.707 305.477,119.046 305.372,119.238 305.643 C 119.432 305.915,119.661 305.857,119.916 305.469 C 120.258 304.948,120.302 304.948,120.313 305.469 C 120.321 305.901,120.404 305.929,120.630 305.574 C 120.798 305.309,121.323 305.167,121.796 305.258 C 122.858 305.463,122.868 305.163,121.840 303.906 C 121.158 303.072,121.102 303.054,121.458 303.783 M47.543 303.999 C 47.274 304.178,47.554 304.233,48.192 304.127 C 48.810 304.025,49.401 303.854,49.506 303.749 C 49.822 303.434,48.054 303.659,47.543 303.999 M72.543 303.999 C 72.274 304.178,72.554 304.233,73.192 304.127 C 73.810 304.025,74.401 303.854,74.506 303.749 C 74.822 303.434,73.054 303.659,72.543 303.999 M97.543 303.999 C 97.274 304.178,97.554 304.233,98.192 304.127 C 98.810 304.025,99.401 303.854,99.506 303.749 C 99.822 303.434,98.054 303.659,97.543 303.999 M297.543 303.999 C 297.274 304.178,297.554 304.233,298.192 304.127 C 298.810 304.025,299.401 303.854,299.506 303.749 C 299.822 303.434,298.054 303.659,297.543 303.999 M322.543 303.999 C 322.274 304.178,322.554 304.233,323.192 304.127 C 323.810 304.025,324.401 303.854,324.506 303.749 C 324.822 303.434,323.054 303.659,322.543 303.999 M347.543 303.999 C 347.274 304.178,347.554 304.233,348.192 304.127 C 348.810 304.025,349.401 303.854,349.506 303.749 C 349.822 303.434,348.054 303.659,347.543 303.999 M32.129 304.566 C 32.505 304.664,33.120 304.664,33.496 304.566 C 33.872 304.468,33.564 304.388,32.813 304.388 C 32.061 304.388,31.753 304.468,32.129 304.566 M57.129 304.566 C 57.505 304.664,58.120 304.664,58.496 304.566 C 58.872 304.468,58.564 304.388,57.813 304.388 C 57.061 304.388,56.753 304.468,57.129 304.566 M82.129 304.566 C 82.505 304.664,83.120 304.664,83.496 304.566 C 83.872 304.468,83.564 304.388,82.813 304.388 C 82.061 304.388,81.753 304.468,82.129 304.566 M107.129 304.566 C 107.505 304.664,108.120 304.664,108.496 304.566 C 108.872 304.468,108.564 304.388,107.813 304.388 C 107.061 304.388,106.753 304.468,107.129 304.566 M282.129 304.566 C 282.505 304.664,283.120 304.664,283.496 304.566 C 283.872 304.468,283.564 304.388,282.813 304.388 C 282.061 304.388,281.753 304.468,282.129 304.566 M307.129 304.566 C 307.505 304.664,308.120 304.664,308.496 304.566 C 308.872 304.468,308.564 304.388,307.813 304.388 C 307.061 304.388,306.753 304.468,307.129 304.566 M332.129 304.566 C 332.505 304.664,333.120 304.664,333.496 304.566 C 333.872 304.468,333.564 304.388,332.813 304.388 C 332.061 304.388,331.753 304.468,332.129 304.566 M357.129 304.566 C 357.505 304.664,358.120 304.664,358.496 304.566 C 358.872 304.468,358.564 304.388,357.813 304.388 C 357.061 304.388,356.753 304.468,357.129 304.566 M44.916 305.469 C 45.258 304.948,45.302 304.948,45.313 305.469 C 45.321 305.901,45.404 305.929,45.630 305.574 C 45.798 305.309,46.347 305.172,46.849 305.268 C 48.224 305.533,48.322 305.856,47.038 305.889 C 46.411 305.906,45.635 305.984,45.313 306.064 C 42.708 306.708,42.523 306.697,43.252 305.945 C 43.707 305.477,44.046 305.372,44.238 305.643 C 44.432 305.915,44.661 305.857,44.916 305.469 M69.916 305.469 C 70.258 304.948,70.302 304.948,70.313 305.469 C 70.321 305.901,70.404 305.929,70.630 305.574 C 70.798 305.309,71.347 305.172,71.849 305.268 C 73.224 305.533,73.322 305.856,72.038 305.889 C 71.411 305.906,70.635 305.984,70.313 306.064 C 67.708 306.708,67.523 306.697,68.252 305.945 C 68.707 305.477,69.046 305.372,69.238 305.643 C 69.432 305.915,69.661 305.857,69.916 305.469 M94.916 305.469 C 95.258 304.948,95.302 304.948,95.313 305.469 C 95.321 305.901,95.404 305.929,95.630 305.574 C 95.798 305.309,96.347 305.172,96.849 305.268 C 98.224 305.533,98.322 305.856,97.038 305.889 C 96.411 305.906,95.635 305.984,95.313 306.064 C 92.708 306.708,92.523 306.697,93.252 305.945 C 93.707 305.477,94.046 305.372,94.238 305.643 C 94.432 305.915,94.661 305.857,94.916 305.469 M294.916 305.469 C 295.258 304.948,295.302 304.948,295.313 305.469 C 295.321 305.901,295.404 305.929,295.630 305.574 C 295.798 305.309,296.347 305.172,296.849 305.268 C 298.224 305.533,298.322 305.856,297.038 305.889 C 296.411 305.906,295.635 305.984,295.313 306.064 C 292.708 306.708,292.523 306.697,293.252 305.945 C 293.707 305.477,294.046 305.372,294.238 305.643 C 294.432 305.915,294.661 305.857,294.916 305.469 M319.916 305.469 C 320.258 304.948,320.302 304.948,320.313 305.469 C 320.321 305.901,320.404 305.929,320.630 305.574 C 320.798 305.309,321.347 305.172,321.849 305.268 C 323.224 305.533,323.322 305.856,322.038 305.889 C 321.411 305.906,320.635 305.984,320.313 306.064 C 317.708 306.708,317.523 306.697,318.252 305.945 C 318.707 305.477,319.046 305.372,319.238 305.643 C 319.432 305.915,319.661 305.857,319.916 305.469 M344.916 305.469 C 345.258 304.948,345.302 304.948,345.313 305.469 C 345.321 305.901,345.404 305.929,345.630 305.574 C 345.798 305.309,346.347 305.172,346.849 305.268 C 348.224 305.533,348.322 305.856,347.038 305.889 C 346.411 305.906,345.635 305.984,345.313 306.064 C 342.708 306.708,342.523 306.697,343.252 305.945 C 343.707 305.477,344.046 305.372,344.238 305.643 C 344.432 305.915,344.661 305.857,344.916 305.469 M369.268 306.104 C 369.305 306.249,368.942 306.428,368.460 306.501 C 367.625 306.629,367.616 306.602,368.265 305.938 C 368.885 305.303,369.068 305.333,369.268 306.104 M31.909 306.713 C 31.308 307.089,30.854 306.720,31.107 306.060 C 31.274 305.623,31.429 305.605,31.828 305.974 C 32.183 306.304,32.207 306.526,31.909 306.713 M57.194 306.601 C 57.112 306.687,56.295 306.793,55.378 306.838 C 54.461 306.883,54.204 306.845,54.808 306.754 C 55.411 306.663,55.998 306.344,56.112 306.046 C 56.275 305.620,56.430 305.605,56.832 305.974 C 57.113 306.233,57.276 306.515,57.194 306.601 M82.194 306.601 C 82.112 306.687,81.295 306.793,80.378 306.838 C 79.461 306.883,79.204 306.845,79.808 306.754 C 80.411 306.663,80.998 306.344,81.112 306.046 C 81.275 305.620,81.430 305.605,81.832 305.974 C 82.113 306.233,82.276 306.515,82.194 306.601 M107.194 306.601 C 107.112 306.687,106.295 306.793,105.378 306.838 C 104.461 306.883,104.204 306.845,104.808 306.754 C 105.411 306.663,105.998 306.344,106.112 306.046 C 106.275 305.620,106.430 305.605,106.832 305.974 C 107.113 306.233,107.276 306.515,107.194 306.601 M282.194 306.601 C 282.112 306.687,281.295 306.793,280.378 306.838 C 279.461 306.883,279.204 306.845,279.808 306.754 C 280.411 306.663,280.998 306.344,281.112 306.046 C 281.275 305.620,281.430 305.605,281.832 305.974 C 282.113 306.233,282.276 306.515,282.194 306.601 M307.194 306.601 C 307.112 306.687,306.295 306.793,305.378 306.838 C 304.461 306.883,304.204 306.845,304.808 306.754 C 305.411 306.663,305.998 306.344,306.112 306.046 C 306.275 305.620,306.430 305.605,306.832 305.974 C 307.113 306.233,307.276 306.515,307.194 306.601 M332.194 306.601 C 332.112 306.687,331.295 306.793,330.378 306.838 C 329.461 306.883,329.204 306.845,329.808 306.754 C 330.411 306.663,330.998 306.344,331.112 306.046 C 331.275 305.620,331.430 305.605,331.832 305.974 C 332.113 306.233,332.276 306.515,332.194 306.601 M357.194 306.601 C 357.112 306.687,356.295 306.793,355.378 306.838 C 354.461 306.883,354.204 306.845,354.808 306.754 C 355.411 306.663,355.998 306.344,356.112 306.046 C 356.275 305.620,356.430 305.605,356.832 305.974 C 357.113 306.233,357.276 306.515,357.194 306.601 M52.418 306.204 C 52.143 306.374,50.827 306.519,49.494 306.525 L 47.070 306.537 49.219 306.296 C 52.989 305.873,52.953 305.874,52.418 306.204 M77.418 306.204 C 77.143 306.374,75.827 306.519,74.494 306.525 L 72.070 306.537 74.219 306.296 C 77.989 305.873,77.953 305.874,77.418 306.204 M102.418 306.204 C 102.143 306.374,100.827 306.519,99.494 306.525 L 97.070 306.537 99.219 306.296 C 102.989 305.873,102.953 305.874,102.418 306.204 M302.418 306.204 C 302.143 306.374,300.827 306.519,299.494 306.525 L 297.070 306.537 299.219 306.296 C 302.989 305.873,302.953 305.874,302.418 306.204 M327.418 306.204 C 327.143 306.374,325.827 306.519,324.494 306.525 L 322.070 306.537 324.219 306.296 C 327.989 305.873,327.953 305.874,327.418 306.204 M352.418 306.204 C 352.143 306.374,350.827 306.519,349.494 306.525 L 347.070 306.537 349.219 306.296 C 352.989 305.873,352.953 305.874,352.418 306.204 " stroke="none" fill="#5cccfc" fill-rule="evenodd"></path><path id="path4" d="M183.984 0.436 C 110.704 6.278,46.612 51.888,16.618 119.537 C 15.670 121.674,15.059 123.525,15.260 123.649 C 15.461 123.773,15.622 124.084,15.619 124.339 C 15.615 124.625,15.455 124.578,15.203 124.219 C 14.882 123.760,14.846 123.824,15.040 124.512 C 15.200 125.082,15.118 125.391,14.805 125.391 C 13.967 125.391,14.701 125.808,15.870 125.996 C 16.789 126.143,16.868 126.101,16.309 125.764 C 15.528 125.294,15.481 125.042,16.022 124.219 C 16.364 123.698,16.449 123.698,16.791 124.219 C 17.076 124.652,17.177 124.670,17.182 124.289 C 17.186 123.887,17.316 123.901,17.764 124.349 C 18.456 125.041,22.654 124.846,23.129 124.100 C 23.340 123.767,23.429 123.801,23.438 124.219 C 23.448 124.740,23.492 124.740,23.834 124.219 C 24.176 123.698,24.261 123.698,24.603 124.219 C 24.945 124.740,24.989 124.740,25.000 124.219 C 25.009 123.786,25.092 123.759,25.318 124.114 C 25.486 124.378,26.000 124.522,26.462 124.433 C 26.923 124.345,28.409 124.197,29.763 124.106 C 31.118 124.014,31.743 124.013,31.152 124.104 C 30.562 124.194,30.078 124.432,30.078 124.632 C 30.078 124.832,30.649 124.912,31.348 124.810 C 32.046 124.708,34.287 124.578,36.328 124.520 C 38.369 124.462,40.168 124.238,40.326 124.023 C 40.495 123.794,40.618 123.874,40.625 124.219 C 40.636 124.740,40.680 124.740,41.022 124.219 C 41.364 123.698,41.449 123.698,41.791 124.219 C 42.076 124.652,42.177 124.670,42.182 124.289 C 42.186 123.887,42.316 123.901,42.764 124.349 C 43.456 125.041,47.654 124.846,48.129 124.100 C 48.340 123.767,48.429 123.801,48.438 124.219 C 48.448 124.740,48.492 124.740,48.834 124.219 C 49.176 123.698,49.261 123.698,49.603 124.219 C 49.945 124.740,49.989 124.740,50.000 124.219 C 50.009 123.786,50.092 123.759,50.318 124.114 C 50.486 124.378,51.000 124.522,51.462 124.433 C 51.923 124.345,53.409 124.197,54.763 124.106 C 56.118 124.014,56.743 124.013,56.152 124.104 C 55.562 124.194,55.078 124.432,55.078 124.632 C 55.078 124.832,55.649 124.912,56.348 124.810 C 57.046 124.708,59.287 124.578,61.328 124.520 C 63.369 124.462,65.168 124.238,65.326 124.023 C 65.495 123.794,65.618 123.874,65.625 124.219 C 65.636 124.740,65.680 124.740,66.022 124.219 C 66.364 123.698,66.449 123.698,66.791 124.219 C 67.076 124.652,67.177 124.670,67.182 124.289 C 67.186 123.887,67.316 123.901,67.764 124.349 C 68.456 125.041,72.654 124.846,73.129 124.100 C 73.340 123.767,73.429 123.801,73.437 124.219 C 73.448 124.740,73.492 124.740,73.834 124.219 C 74.176 123.698,74.261 123.698,74.603 124.219 C 74.945 124.740,74.989 124.740,75.000 124.219 C 75.009 123.786,75.092 123.759,75.318 124.114 C 75.486 124.378,76.000 124.522,76.462 124.433 C 76.923 124.345,78.409 124.197,79.763 124.106 C 81.118 124.014,81.743 124.013,81.152 124.104 C 80.562 124.194,80.078 124.432,80.078 124.632 C 80.078 124.832,80.649 124.912,81.348 124.810 C 82.046 124.708,84.287 124.578,86.328 124.520 C 88.369 124.462,90.168 124.238,90.326 124.023 C 90.495 123.794,90.618 123.874,90.625 124.219 C 90.636 124.740,90.680 124.740,91.022 124.219 C 91.364 123.698,91.449 123.698,91.791 124.219 C 92.076 124.652,92.177 124.670,92.182 124.289 C 92.186 123.887,92.316 123.901,92.764 124.349 C 93.456 125.041,97.654 124.846,98.129 124.100 C 98.340 123.767,98.429 123.801,98.438 124.219 C 98.448 124.740,98.496 124.740,98.864 124.219 C 99.188 123.761,99.246 123.753,99.130 124.185 C 99.048 124.488,98.667 124.783,98.283 124.839 C 97.085 125.015,97.079 125.391,98.275 125.390 L 99.414 125.390 99.459 118.652 C 99.821 64.815,174.550 29.275,241.602 51.052 C 278.180 62.932,301.160 89.138,301.327 119.162 C 301.365 125.945,301.414 126.414,302.097 126.466 C 302.789 126.518,302.791 126.495,302.135 126.015 C 301.608 125.630,301.561 125.438,301.938 125.205 C 302.224 125.028,302.574 125.125,302.772 125.438 C 303.054 125.884,303.115 125.876,303.125 125.391 C 303.133 125.002,303.234 124.952,303.424 125.244 C 303.582 125.485,304.590 125.788,305.664 125.916 C 306.907 126.065,307.410 126.020,307.046 125.793 C 306.643 125.542,307.047 125.393,308.413 125.288 C 309.771 125.183,309.416 125.122,307.227 125.084 C 301.131 124.978,299.727 124.439,304.688 124.108 C 306.084 124.015,306.743 124.013,306.152 124.104 C 305.562 124.194,305.078 124.432,305.078 124.632 C 305.078 124.832,305.649 124.912,306.348 124.810 C 307.046 124.708,309.287 124.578,311.328 124.520 C 313.369 124.462,315.168 124.238,315.326 124.023 C 315.495 123.794,315.618 123.874,315.625 124.219 C 315.636 124.740,315.680 124.740,316.022 124.219 C 316.364 123.698,316.449 123.698,316.791 124.219 C 317.076 124.652,317.177 124.670,317.182 124.289 C 317.186 123.887,317.316 123.901,317.764 124.349 C 318.456 125.041,322.654 124.846,323.129 124.100 C 323.340 123.767,323.429 123.801,323.438 124.219 C 323.448 124.740,323.492 124.740,323.834 124.219 C 324.176 123.698,324.261 123.698,324.603 124.219 C 324.945 124.740,324.989 124.740,325.000 124.219 C 325.009 123.786,325.092 123.759,325.318 124.114 C 325.486 124.378,326.000 124.522,326.462 124.433 C 326.923 124.345,328.409 124.197,329.763 124.106 C 331.118 124.014,331.743 124.013,331.152 124.104 C 330.562 124.194,330.078 124.432,330.078 124.632 C 330.078 124.832,330.649 124.912,331.348 124.810 C 332.046 124.708,334.287 124.578,336.328 124.520 C 338.369 124.462,340.168 124.238,340.326 124.023 C 340.495 123.794,340.618 123.874,340.625 124.219 C 340.636 124.740,340.680 124.740,341.022 124.219 C 341.364 123.698,341.449 123.698,341.791 124.219 C 342.076 124.652,342.177 124.670,342.182 124.289 C 342.186 123.887,342.316 123.901,342.764 124.349 C 343.456 125.041,347.654 124.846,348.129 124.100 C 348.340 123.767,348.429 123.801,348.438 124.219 C 348.448 124.740,348.492 124.740,348.834 124.219 C 349.176 123.698,349.261 123.698,349.603 124.219 C 349.945 124.740,349.989 124.740,350.000 124.219 C 350.009 123.786,350.092 123.759,350.318 124.114 C 350.486 124.378,351.000 124.522,351.462 124.433 C 351.923 124.345,353.409 124.197,354.763 124.106 C 356.118 124.014,356.743 124.013,356.152 124.104 C 355.562 124.194,355.078 124.432,355.078 124.632 C 355.078 124.832,355.649 124.912,356.348 124.810 C 357.046 124.708,359.287 124.578,361.328 124.520 C 363.369 124.462,365.168 124.238,365.326 124.023 C 365.495 123.794,365.618 123.874,365.625 124.219 C 365.636 124.740,365.680 124.740,366.022 124.219 C 366.364 123.698,366.449 123.698,366.791 124.219 C 367.076 124.652,367.177 124.670,367.182 124.289 C 367.186 123.887,367.316 123.901,367.764 124.349 C 368.456 125.041,372.654 124.846,373.129 124.100 C 373.340 123.767,373.429 123.801,373.438 124.219 C 373.448 124.740,373.492 124.740,373.834 124.219 C 374.176 123.698,374.261 123.698,374.603 124.219 C 374.945 124.740,374.989 124.740,375.000 124.219 C 375.009 123.786,375.092 123.759,375.318 124.114 C 375.486 124.378,376.000 124.522,376.462 124.433 C 376.923 124.345,378.409 124.197,379.763 124.106 C 381.118 124.014,381.743 124.013,381.152 124.104 C 380.562 124.194,380.078 124.432,380.078 124.632 C 380.078 124.832,380.474 124.921,380.957 124.831 C 381.440 124.741,382.559 124.654,383.442 124.638 C 385.460 124.602,385.449 124.216,383.287 119.319 C 348.910 41.468,268.787 -6.325,183.984 0.436 M38.672 123.462 C 38.672 123.663,38.188 123.841,37.598 123.857 C 37.007 123.873,36.095 123.965,35.571 124.061 C 35.047 124.158,34.715 124.139,34.834 124.020 C 34.953 123.901,35.450 123.727,35.938 123.633 C 36.425 123.539,36.880 123.407,36.947 123.339 C 37.253 123.033,38.672 123.134,38.672 123.462 M63.672 123.462 C 63.672 123.663,63.188 123.841,62.598 123.857 C 62.007 123.873,61.095 123.965,60.571 124.061 C 60.047 124.158,59.715 124.139,59.834 124.020 C 59.953 123.901,60.450 123.727,60.938 123.633 C 61.425 123.539,61.880 123.407,61.947 123.339 C 62.253 123.033,63.672 123.134,63.672 123.462 M88.672 123.462 C 88.672 123.663,88.188 123.841,87.598 123.857 C 87.007 123.873,86.095 123.965,85.571 124.061 C 85.047 124.158,84.715 124.139,84.834 124.020 C 84.953 123.901,85.450 123.727,85.938 123.633 C 86.425 123.539,86.880 123.407,86.947 123.339 C 87.253 123.033,88.672 123.134,88.672 123.462 M313.672 123.462 C 313.672 123.663,313.188 123.841,312.598 123.857 C 312.007 123.873,311.095 123.965,310.571 124.061 C 310.047 124.158,309.715 124.139,309.834 124.020 C 309.953 123.901,310.450 123.727,310.938 123.633 C 311.425 123.539,311.880 123.407,311.947 123.339 C 312.253 123.033,313.672 123.134,313.672 123.462 M338.672 123.462 C 338.672 123.663,338.188 123.841,337.598 123.857 C 337.007 123.873,336.095 123.965,335.571 124.061 C 335.047 124.158,334.715 124.139,334.834 124.020 C 334.953 123.901,335.450 123.727,335.938 123.633 C 336.425 123.539,336.880 123.407,336.947 123.339 C 337.253 123.033,338.672 123.134,338.672 123.462 M363.672 123.462 C 363.672 123.663,363.188 123.841,362.598 123.857 C 362.007 123.873,361.095 123.965,360.571 124.061 C 360.047 124.158,359.715 124.139,359.834 124.020 C 359.953 123.901,360.450 123.727,360.938 123.633 C 361.425 123.539,361.880 123.407,361.947 123.339 C 362.253 123.033,363.672 123.134,363.672 123.462 M21.381 123.671 C 21.276 123.776,20.685 123.946,20.067 124.049 C 19.429 124.155,19.149 124.100,19.418 123.921 C 19.929 123.580,21.697 123.355,21.381 123.671 M46.381 123.671 C 46.276 123.776,45.685 123.946,45.067 124.049 C 44.429 124.155,44.149 124.100,44.418 123.921 C 44.929 123.580,46.697 123.355,46.381 123.671 M71.381 123.671 C 71.276 123.776,70.685 123.946,70.067 124.049 C 69.429 124.155,69.149 124.100,69.418 123.921 C 69.929 123.580,71.697 123.355,71.381 123.671 M96.381 123.671 C 96.276 123.776,95.685 123.946,95.067 124.049 C 94.429 124.155,94.149 124.100,94.418 123.921 C 94.929 123.580,96.697 123.355,96.381 123.671 M321.381 123.671 C 321.276 123.776,320.685 123.946,320.067 124.049 C 319.429 124.155,319.149 124.100,319.418 123.921 C 319.929 123.580,321.697 123.355,321.381 123.671 M346.381 123.671 C 346.276 123.776,345.685 123.946,345.067 124.049 C 344.429 124.155,344.149 124.100,344.418 123.921 C 344.929 123.580,346.697 123.355,346.381 123.671 M371.381 123.671 C 371.276 123.776,370.685 123.946,370.067 124.049 C 369.429 124.155,369.149 124.100,369.418 123.921 C 369.929 123.580,371.697 123.355,371.381 123.671 M29.454 124.716 C 29.626 125.267,29.532 125.340,28.995 125.074 C 28.142 124.651,22.804 124.717,22.384 125.156 C 22.212 125.336,23.345 125.401,24.902 125.299 C 26.817 125.174,27.736 125.254,27.740 125.546 C 27.744 125.784,27.897 125.739,28.084 125.444 C 28.269 125.151,28.486 125.086,28.566 125.299 C 28.646 125.511,29.590 125.790,30.664 125.918 C 31.908 126.065,32.410 126.020,32.046 125.793 C 31.642 125.542,32.044 125.389,33.413 125.274 C 34.523 125.181,34.219 125.147,32.703 125.194 C 30.636 125.259,29.964 125.140,29.646 124.651 C 29.288 124.100,29.264 124.108,29.454 124.716 M54.454 124.716 C 54.626 125.267,54.532 125.340,53.995 125.074 C 53.142 124.651,47.804 124.717,47.384 125.156 C 47.212 125.336,48.345 125.401,49.902 125.299 C 51.817 125.174,52.736 125.254,52.740 125.546 C 52.744 125.784,52.897 125.739,53.084 125.444 C 53.269 125.151,53.486 125.086,53.566 125.299 C 53.646 125.511,54.590 125.790,55.664 125.918 C 56.908 126.065,57.410 126.020,57.046 125.793 C 56.642 125.542,57.044 125.389,58.413 125.274 C 59.523 125.181,59.219 125.147,57.703 125.194 C 55.636 125.259,54.964 125.140,54.646 124.651 C 54.288 124.100,54.264 124.108,54.454 124.716 M79.454 124.716 C 79.626 125.267,79.532 125.340,78.995 125.074 C 78.142 124.651,72.804 124.717,72.384 125.156 C 72.212 125.336,73.345 125.401,74.902 125.299 C 76.817 125.174,77.736 125.254,77.740 125.546 C 77.744 125.784,77.897 125.739,78.084 125.444 C 78.269 125.151,78.486 125.086,78.566 125.299 C 78.646 125.511,79.590 125.790,80.664 125.918 C 81.908 126.065,82.410 126.020,82.046 125.793 C 81.642 125.542,82.044 125.389,83.413 125.274 C 84.523 125.181,84.219 125.147,82.703 125.194 C 80.636 125.259,79.964 125.140,79.646 124.651 C 79.288 124.100,79.264 124.108,79.454 124.716 M329.454 124.716 C 329.626 125.267,329.532 125.340,328.995 125.074 C 328.142 124.651,322.804 124.717,322.384 125.156 C 322.212 125.336,323.345 125.401,324.902 125.299 C 326.817 125.174,327.736 125.254,327.740 125.546 C 327.744 125.784,327.897 125.739,328.084 125.444 C 328.269 125.151,328.486 125.086,328.566 125.299 C 328.646 125.511,329.590 125.790,330.664 125.918 C 331.908 126.065,332.410 126.020,332.046 125.793 C 331.642 125.542,332.044 125.389,333.413 125.274 C 334.523 125.181,334.219 125.147,332.703 125.194 C 330.636 125.259,329.964 125.140,329.646 124.651 C 329.288 124.100,329.264 124.108,329.454 124.716 M354.454 124.716 C 354.626 125.267,354.532 125.340,353.995 125.074 C 353.142 124.651,347.804 124.717,347.384 125.156 C 347.212 125.336,348.345 125.401,349.902 125.299 C 351.817 125.174,352.736 125.254,352.740 125.546 C 352.744 125.784,352.897 125.739,353.084 125.444 C 353.269 125.151,353.486 125.086,353.566 125.299 C 353.646 125.511,354.590 125.790,355.664 125.918 C 356.908 126.065,357.410 126.020,357.046 125.793 C 356.642 125.542,357.044 125.389,358.413 125.274 C 359.523 125.181,359.219 125.147,357.703 125.194 C 355.636 125.259,354.964 125.140,354.646 124.651 C 354.288 124.100,354.264 124.108,354.454 124.716 M379.454 124.716 C 379.626 125.267,379.532 125.340,378.995 125.074 C 378.142 124.651,372.804 124.717,372.384 125.156 C 372.212 125.336,373.345 125.401,374.902 125.299 C 376.817 125.174,377.736 125.254,377.740 125.546 C 377.744 125.784,377.897 125.739,378.084 125.444 C 378.269 125.151,378.486 125.086,378.566 125.299 C 378.646 125.511,379.590 125.790,380.664 125.918 C 381.908 126.065,382.410 126.020,382.046 125.793 C 381.642 125.542,382.044 125.389,383.413 125.274 C 384.523 125.181,384.219 125.147,382.703 125.194 C 380.636 125.259,379.964 125.140,379.646 124.651 C 379.288 124.100,379.264 124.108,379.454 124.716 M16.016 124.992 C 16.016 125.211,16.543 125.391,17.188 125.391 C 17.861 125.391,18.362 125.598,18.365 125.879 C 18.370 126.236,18.462 126.225,18.709 125.835 C 18.894 125.542,19.111 125.476,19.191 125.689 C 19.271 125.902,20.194 126.179,21.242 126.305 C 23.123 126.530,23.548 126.320,21.928 125.964 C 21.469 125.864,20.742 125.693,20.313 125.586 C 16.457 124.622,16.016 124.561,16.016 124.992 M37.891 125.000 C 37.891 125.215,38.022 125.404,38.184 125.421 C 38.345 125.437,38.740 125.516,39.063 125.595 C 41.667 126.239,41.852 126.229,41.123 125.476 C 40.668 125.008,40.329 124.904,40.137 125.174 C 39.940 125.450,39.731 125.411,39.500 125.053 C 39.211 124.604,39.124 124.604,38.945 125.053 C 38.795 125.432,38.725 125.444,38.703 125.098 C 38.666 124.522,37.891 124.428,37.891 125.000 M41.016 124.992 C 41.016 125.211,41.543 125.391,42.188 125.391 C 42.861 125.391,43.362 125.598,43.365 125.879 C 43.370 126.236,43.462 126.225,43.709 125.835 C 43.894 125.542,44.111 125.476,44.191 125.689 C 44.271 125.902,45.194 126.179,46.242 126.305 C 48.123 126.530,48.548 126.320,46.928 125.964 C 46.469 125.864,45.742 125.693,45.313 125.586 C 41.457 124.622,41.016 124.561,41.016 124.992 M62.891 125.000 C 62.891 125.215,63.022 125.404,63.184 125.421 C 63.345 125.437,63.740 125.516,64.063 125.595 C 66.667 126.239,66.852 126.229,66.123 125.476 C 65.668 125.008,65.329 124.904,65.137 125.174 C 64.940 125.450,64.731 125.411,64.500 125.053 C 64.211 124.604,64.124 124.604,63.945 125.053 C 63.795 125.432,63.725 125.444,63.703 125.098 C 63.666 124.522,62.891 124.428,62.891 125.000 M66.016 124.992 C 66.016 125.211,66.543 125.391,67.188 125.391 C 67.861 125.391,68.362 125.598,68.365 125.879 C 68.370 126.236,68.462 126.225,68.709 125.835 C 68.894 125.542,69.111 125.476,69.191 125.689 C 69.271 125.902,70.194 126.179,71.242 126.305 C 73.123 126.530,73.548 126.320,71.928 125.964 C 71.469 125.864,70.742 125.693,70.313 125.586 C 66.457 124.622,66.016 124.561,66.016 124.992 M87.891 125.000 C 87.891 125.215,88.022 125.404,88.184 125.421 C 88.345 125.437,88.740 125.516,89.063 125.595 C 91.667 126.239,91.852 126.229,91.123 125.476 C 90.668 125.008,90.329 124.904,90.137 125.174 C 89.940 125.450,89.731 125.411,89.500 125.053 C 89.211 124.604,89.124 124.604,88.945 125.053 C 88.795 125.432,88.725 125.444,88.703 125.098 C 88.666 124.522,87.891 124.428,87.891 125.000 M91.016 124.992 C 91.016 125.211,91.543 125.391,92.188 125.391 C 92.861 125.391,93.362 125.598,93.365 125.879 C 93.370 126.236,93.462 126.225,93.709 125.835 C 93.894 125.542,94.111 125.476,94.191 125.689 C 94.271 125.902,95.194 126.179,96.242 126.305 C 98.123 126.530,98.548 126.320,96.928 125.964 C 96.469 125.864,95.742 125.693,95.313 125.586 C 91.457 124.622,91.016 124.561,91.016 124.992 M312.891 125.000 C 312.891 125.215,313.022 125.404,313.184 125.421 C 313.345 125.437,313.740 125.516,314.063 125.595 C 316.667 126.239,316.852 126.229,316.123 125.476 C 315.668 125.008,315.329 124.904,315.137 125.174 C 314.940 125.450,314.731 125.411,314.500 125.053 C 314.211 124.604,314.124 124.604,313.945 125.053 C 313.795 125.432,313.725 125.444,313.703 125.098 C 313.666 124.522,312.891 124.428,312.891 125.000 M316.016 124.992 C 316.016 125.211,316.543 125.391,317.188 125.391 C 317.861 125.391,318.362 125.598,318.365 125.879 C 318.370 126.236,318.462 126.225,318.709 125.835 C 318.894 125.542,319.111 125.476,319.191 125.689 C 319.271 125.902,320.194 126.179,321.242 126.305 C 323.123 126.530,323.548 126.320,321.928 125.964 C 321.469 125.864,320.742 125.693,320.313 125.586 C 316.457 124.622,316.016 124.561,316.016 124.992 M337.891 125.000 C 337.891 125.215,338.022 125.404,338.184 125.421 C 338.345 125.437,338.740 125.516,339.063 125.595 C 341.667 126.239,341.852 126.229,341.123 125.476 C 340.668 125.008,340.329 124.904,340.137 125.174 C 339.940 125.450,339.731 125.411,339.500 125.053 C 339.211 124.604,339.124 124.604,338.945 125.053 C 338.795 125.432,338.725 125.444,338.703 125.098 C 338.666 124.522,337.891 124.428,337.891 125.000 M341.016 124.992 C 341.016 125.211,341.543 125.391,342.188 125.391 C 342.861 125.391,343.362 125.598,343.365 125.879 C 343.370 126.236,343.462 126.225,343.709 125.835 C 343.894 125.542,344.111 125.476,344.191 125.689 C 344.271 125.902,345.194 126.179,346.242 126.305 C 348.123 126.530,348.548 126.320,346.928 125.964 C 346.469 125.864,345.742 125.693,345.313 125.586 C 341.457 124.622,341.016 124.561,341.016 124.992 M362.891 125.000 C 362.891 125.215,363.022 125.404,363.184 125.421 C 363.345 125.437,363.740 125.516,364.063 125.595 C 366.667 126.239,366.852 126.229,366.123 125.476 C 365.668 125.008,365.329 124.904,365.137 125.174 C 364.940 125.450,364.731 125.411,364.500 125.053 C 364.211 124.604,364.124 124.604,363.945 125.053 C 363.795 125.432,363.725 125.444,363.703 125.098 C 363.666 124.522,362.891 124.428,362.891 125.000 M366.016 124.992 C 366.016 125.211,366.543 125.391,367.188 125.391 C 367.861 125.391,368.362 125.598,368.365 125.879 C 368.370 126.236,368.462 126.225,368.709 125.835 C 368.894 125.542,369.111 125.476,369.191 125.689 C 369.271 125.902,370.194 126.179,371.242 126.305 C 373.123 126.530,373.548 126.320,371.928 125.964 C 371.469 125.864,370.742 125.693,370.313 125.586 C 366.457 124.622,366.016 124.561,366.016 124.992 M25.449 125.970 C 25.579 126.100,26.186 126.297,26.799 126.408 C 27.411 126.519,27.806 126.504,27.676 126.374 C 27.546 126.244,26.939 126.047,26.326 125.936 C 25.714 125.825,25.319 125.840,25.449 125.970 M35.254 126.051 C 35.630 126.149,36.245 126.149,36.621 126.051 C 36.997 125.952,36.689 125.872,35.938 125.872 C 35.186 125.872,34.878 125.952,35.254 126.051 M50.449 125.970 C 50.579 126.100,51.186 126.297,51.799 126.408 C 52.411 126.519,52.806 126.504,52.676 126.374 C 52.546 126.244,51.939 126.047,51.326 125.936 C 50.714 125.825,50.319 125.840,50.449 125.970 M60.254 126.051 C 60.630 126.149,61.245 126.149,61.621 126.051 C 61.997 125.952,61.689 125.872,60.938 125.872 C 60.186 125.872,59.878 125.952,60.254 126.051 M75.449 125.970 C 75.579 126.100,76.186 126.297,76.799 126.408 C 77.411 126.519,77.806 126.504,77.676 126.374 C 77.546 126.244,76.939 126.047,76.326 125.936 C 75.714 125.825,75.319 125.840,75.449 125.970 M85.254 126.051 C 85.630 126.149,86.245 126.149,86.621 126.051 C 86.997 125.952,86.689 125.872,85.938 125.872 C 85.186 125.872,84.878 125.952,85.254 126.051 M310.254 126.051 C 310.630 126.149,311.245 126.149,311.621 126.051 C 311.997 125.952,311.689 125.872,310.938 125.872 C 310.186 125.872,309.878 125.952,310.254 126.051 M325.449 125.970 C 325.579 126.100,326.186 126.297,326.799 126.408 C 327.411 126.519,327.806 126.504,327.676 126.374 C 327.546 126.244,326.939 126.047,326.326 125.936 C 325.714 125.825,325.319 125.840,325.449 125.970 M335.254 126.051 C 335.630 126.149,336.245 126.149,336.621 126.051 C 336.997 125.952,336.689 125.872,335.938 125.872 C 335.186 125.872,334.878 125.952,335.254 126.051 M350.449 125.970 C 350.579 126.100,351.186 126.297,351.799 126.408 C 352.411 126.519,352.806 126.504,352.676 126.374 C 352.546 126.244,351.939 126.047,351.326 125.936 C 350.714 125.825,350.319 125.840,350.449 125.970 M360.254 126.051 C 360.630 126.149,361.245 126.149,361.621 126.051 C 361.997 125.952,361.689 125.872,360.938 125.872 C 360.186 125.872,359.878 125.952,360.254 126.051 M375.449 125.970 C 375.579 126.100,376.186 126.297,376.799 126.408 C 377.411 126.519,377.806 126.504,377.676 126.374 C 377.546 126.244,376.939 126.047,376.326 125.936 C 375.714 125.825,375.319 125.840,375.449 125.970 " stroke="none" fill="#a4fbe3" fill-rule="evenodd"></path><path id="path5" d="M281.421 154.395 L 280.273 155.664 281.543 154.517 C 282.241 153.886,282.813 153.314,282.813 153.247 C 282.813 152.945,282.490 153.211,281.421 154.395 M172.563 166.683 C 173.049 166.776,173.752 166.772,174.126 166.675 C 174.499 166.577,174.102 166.500,173.242 166.505 C 172.383 166.509,172.077 166.589,172.563 166.683 M226.860 166.683 C 227.346 166.776,228.049 166.772,228.423 166.675 C 228.796 166.577,228.398 166.500,227.539 166.505 C 226.680 166.509,226.374 166.589,226.860 166.683 M183.887 167.083 C 184.800 167.165,186.294 167.165,187.207 167.083 C 188.120 167.001,187.373 166.933,185.547 166.933 C 183.721 166.933,182.974 167.001,183.887 167.083 M213.184 167.083 C 214.097 167.165,215.591 167.165,216.504 167.083 C 217.417 167.001,216.670 166.933,214.844 166.933 C 213.018 166.933,212.271 167.001,213.184 167.083 M123.047 181.836 C 123.776 182.588,124.460 183.203,124.567 183.203 C 124.675 183.203,124.166 182.588,123.438 181.836 C 122.709 181.084,122.024 180.469,121.917 180.469 C 121.810 180.469,122.318 181.084,123.047 181.836 M119.685 191.602 C 119.686 194.609,119.747 195.788,119.822 194.221 C 119.896 192.654,119.895 190.193,119.821 188.752 C 119.746 187.312,119.685 188.594,119.685 191.602 M280.232 191.602 C 280.233 194.609,280.294 195.788,280.369 194.221 C 280.443 192.654,280.442 190.193,280.367 188.752 C 280.292 187.312,280.232 188.594,280.232 191.602 M182.719 197.542 C 183.205 197.635,183.908 197.632,184.282 197.534 C 184.655 197.436,184.258 197.360,183.398 197.364 C 182.539 197.368,182.233 197.448,182.719 197.542 M216.309 197.541 C 216.792 197.634,217.583 197.634,218.066 197.541 C 218.550 197.448,218.154 197.372,217.188 197.372 C 216.221 197.372,215.825 197.448,216.309 197.541 M114.360 213.167 C 114.846 213.260,115.549 213.257,115.923 213.159 C 116.296 213.061,115.898 212.985,115.039 212.989 C 114.180 212.993,113.874 213.073,114.360 213.167 M282.910 213.160 C 283.286 213.258,283.901 213.258,284.277 213.160 C 284.653 213.062,284.346 212.981,283.594 212.981 C 282.842 212.981,282.534 213.062,282.910 213.160 M280.610 227.344 C 280.610 229.385,280.675 230.220,280.756 229.199 C 280.836 228.179,280.836 226.509,280.756 225.488 C 280.675 224.468,280.610 225.303,280.610 227.344 M289.544 227.734 C 289.544 228.486,289.624 228.794,289.722 228.418 C 289.821 228.042,289.821 227.427,289.722 227.051 C 289.624 226.675,289.544 226.982,289.544 227.734 M113.969 237.386 C 114.455 237.479,115.158 237.476,115.532 237.378 C 115.905 237.280,115.508 237.204,114.648 237.208 C 113.789 237.212,113.483 237.292,113.969 237.386 M283.105 237.385 C 283.589 237.478,284.380 237.478,284.863 237.385 C 285.347 237.292,284.951 237.216,283.984 237.216 C 283.018 237.216,282.622 237.292,283.105 237.385 M183.302 283.008 C 183.306 283.867,183.386 284.173,183.479 283.687 C 183.573 283.201,183.569 282.498,183.472 282.124 C 183.374 281.751,183.297 282.148,183.302 283.008 M196.582 288.952 C 197.173 289.041,198.140 289.041,198.730 288.952 C 199.321 288.862,198.838 288.789,197.656 288.789 C 196.475 288.789,195.991 288.862,196.582 288.952 M200.879 288.952 C 201.470 289.041,202.437 289.041,203.027 288.952 C 203.618 288.862,203.135 288.789,201.953 288.789 C 200.771 288.789,200.288 288.862,200.879 288.952 " stroke="none" fill="#969586" fill-rule="evenodd"></path><path id="path6" d="M198.438 84.259 C 195.071 85.484,194.370 89.862,197.125 92.460 L 198.493 93.750 193.792 93.750 C 189.543 93.750,189.051 93.823,188.686 94.506 C 187.529 96.667,188.645 97.266,193.836 97.266 L 198.164 97.266 197.915 102.246 C 197.779 104.985,197.550 109.995,197.407 113.379 C 197.118 120.242,197.219 120.064,194.349 118.715 C 191.087 117.182,187.787 112.637,187.726 109.594 C 187.691 107.857,184.238 104.465,182.993 104.943 C 181.978 105.332,182.348 111.092,183.398 111.250 C 183.931 111.331,184.573 112.201,185.417 113.991 C 187.579 118.575,190.804 121.529,194.922 122.697 C 195.889 122.971,197.177 123.601,197.784 124.098 C 199.212 125.265,200.577 125.241,202.024 124.023 C 202.663 123.486,203.479 123.047,203.839 123.047 C 206.842 123.045,212.232 118.532,214.194 114.375 C 215.037 112.591,215.678 111.721,216.211 111.641 C 217.265 111.482,217.634 105.616,216.615 105.225 C 215.338 104.735,211.340 108.253,211.982 109.302 C 213.370 111.568,207.871 118.352,203.843 119.343 C 202.565 119.657,202.489 119.060,202.139 105.957 L 201.906 97.266 205.862 97.266 C 210.193 97.266,211.328 96.914,211.328 95.572 C 211.328 93.969,210.663 93.750,205.787 93.750 L 201.183 93.750 202.569 92.480 C 206.305 89.056,203.051 82.581,198.438 84.259 M201.433 87.740 C 202.032 88.656,202.042 88.869,201.526 89.791 C 200.482 91.658,197.949 91.052,197.949 88.936 C 197.949 86.671,200.221 85.891,201.433 87.740 M118.359 153.524 C 118.359 154.111,122.443 157.105,125.000 158.392 C 136.970 164.422,159.182 166.939,200.391 166.938 C 247.253 166.936,271.075 163.484,280.308 155.357 C 282.338 153.570,282.341 153.263,280.317 154.108 C 273.670 156.886,252.235 157.635,189.258 157.289 C 139.380 157.015,128.806 156.525,121.293 154.139 C 119.679 153.627,118.359 153.350,118.359 153.524 M192.090 197.944 C 193.218 198.023,195.063 198.023,196.191 197.944 C 197.319 197.865,196.396 197.801,194.141 197.801 C 191.885 197.801,190.962 197.865,192.090 197.944 M204.785 197.943 C 205.806 198.024,207.476 198.024,208.496 197.943 C 209.517 197.863,208.682 197.797,206.641 197.797 C 204.600 197.797,203.765 197.863,204.785 197.943 M152.420 216.995 C 148.659 217.507,148.039 217.729,148.659 218.343 C 148.882 218.564,150.614 218.490,153.125 218.153 C 155.381 217.851,157.446 217.597,157.715 217.591 C 157.983 217.584,158.203 217.314,158.203 216.992 C 158.203 216.300,157.523 216.300,152.420 216.995 M241.406 216.992 C 241.406 217.314,241.626 217.584,241.895 217.591 C 242.163 217.597,244.229 217.855,246.484 218.164 C 251.563 218.859,251.172 218.858,251.172 218.172 C 251.172 217.512,250.682 217.380,246.129 216.814 C 241.831 216.280,241.406 216.296,241.406 216.992 M154.297 219.783 C 150.752 220.829,149.880 221.313,150.863 221.690 C 151.671 222.000,159.079 219.834,159.281 219.228 C 159.519 218.514,158.044 218.678,154.297 219.783 M240.329 219.228 C 240.530 219.834,247.939 222.000,248.747 221.690 C 249.743 221.308,248.842 220.826,245.134 219.758 C 241.259 218.642,240.090 218.513,240.329 219.228 M199.850 220.738 C 197.767 222.376,197.656 223.006,197.656 233.184 L 197.656 242.578 196.387 242.587 C 192.366 242.617,190.234 244.170,190.234 247.070 C 190.234 250.561,192.222 251.537,199.355 251.553 C 204.154 251.564,205.910 251.009,206.853 249.185 C 207.708 247.532,207.688 224.311,206.830 222.503 C 205.647 220.011,201.959 219.078,199.850 220.738 M117.685 225.391 C 117.685 226.357,117.761 226.753,117.854 226.270 C 117.947 225.786,117.947 224.995,117.854 224.512 C 117.761 224.028,117.685 224.424,117.685 225.391 M109.118 227.148 C 109.120 228.867,109.188 229.522,109.271 228.603 C 109.353 227.684,109.352 226.278,109.268 225.478 C 109.184 224.678,109.117 225.430,109.118 227.148 M117.685 229.297 C 117.685 230.264,117.761 230.659,117.854 230.176 C 117.947 229.692,117.947 228.901,117.854 228.418 C 117.761 227.935,117.685 228.330,117.685 229.297 " stroke="none" fill="#c5bc9c" fill-rule="evenodd"></path><path id="path7" d="M105.169 248.828 C 105.169 249.580,105.249 249.888,105.347 249.512 C 105.446 249.136,105.446 248.521,105.347 248.145 C 105.249 247.769,105.169 248.076,105.169 248.828 M294.622 248.828 C 294.622 249.580,294.702 249.888,294.801 249.512 C 294.899 249.136,294.899 248.521,294.801 248.145 C 294.702 247.769,294.622 248.076,294.622 248.828 M104.794 254.688 C 104.794 255.654,104.870 256.050,104.963 255.566 C 105.056 255.083,105.056 254.292,104.963 253.809 C 104.870 253.325,104.794 253.721,104.794 254.688 M295.028 254.688 C 295.028 255.654,295.104 256.050,295.198 255.566 C 295.291 255.083,295.291 254.292,295.198 253.809 C 295.104 253.325,295.028 253.721,295.028 254.688 M140.625 325.122 C 140.625 325.189,141.196 325.761,141.895 326.392 L 143.164 327.539 142.017 326.270 C 140.947 325.086,140.625 324.820,140.625 325.122 M257.983 326.270 L 256.836 327.539 258.105 326.392 C 258.804 325.761,259.375 325.189,259.375 325.122 C 259.375 324.820,259.053 325.086,257.983 326.270 " stroke="none" fill="#84a3a8" fill-rule="evenodd"></path><path id="path8" d="M199.112 197.938 C 199.806 198.024,201.036 198.026,201.847 197.941 C 202.657 197.857,202.090 197.786,200.586 197.784 C 199.082 197.783,198.419 197.852,199.112 197.938 " stroke="none" fill="#a4b5af" fill-rule="evenodd"></path></g></svg>