<?xml version="1.0" encoding="utf-8"?>
<!-- Generator: Adobe Illustrator 25.4.1, SVG Export Plug-In . SVG Version: 6.00 Build 0)  -->
<svg version="1.1" id="Layer_1" xmlns="http://www.w3.org/2000/svg" xmlns:xlink="http://www.w3.org/1999/xlink" x="0px" y="0px"
	 viewBox="0 0 244.8 91.7" style="enable-background:new 0 0 244.8 91.7;" xml:space="preserve">
<style type="text/css">
	.st0{fill:#2600FF;}
	.st1{fill:#FFFFFF;}
</style>
<g>
	<path class="st0" d="M235,91.7H9.8c-5.4,0-9.8-4.4-9.8-9.8v-72C0,4.4,4.4,0,9.8,0H235c5.4,0,9.8,4.4,9.8,9.8v72
		C244.8,87.3,240.4,91.7,235,91.7z"/>
	<g>
		<path class="st1" d="M71.7,61.5c2,0,3.4,0.5,4.3,1.5c0.9,1,1.3,2.8,1.3,5.3c0,2.5-0.5,4.3-1.5,5.3s-2.8,1.5-5.4,1.5
			c-0.5,0-2.3-0.1-3.6-0.2c-0.9-0.1-1.7-0.8-1.7-1.8V58.9c0-0.9,0.7-1.5,1.5-1.5l0,0c0.9,0,1.5,0.7,1.5,1.5v3.4
			C69.5,61.7,70.7,61.5,71.7,61.5z M70.3,72.5c1.5,0,2.5-0.3,3.1-1c0.5-0.7,0.8-1.8,0.8-3.3s-0.2-2.7-0.6-3.3s-1.1-1-2.1-1
			c-0.9,0-1.8,0.1-2.8,0.4l-0.5,0.1v7.9C69.2,72.5,69.9,72.5,70.3,72.5z"/>
		<path class="st1" d="M81,61.8L81,61.8c0.7,0,1.2,0.4,1.4,1.1l2.7,9.3c0.1,0.4,0.8,0.4,0.9,0l2.7-9.3c0.2-0.6,0.8-1.1,1.4-1.1h0
			c1,0,1.7,0.9,1.4,1.9l-4.6,15.7c-0.2,0.6-0.7,1-1.4,1l0,0c-1,0-1.7-1-1.4-1.9l1.1-3.4h-0.6c-1.1,0-2.1-0.7-2.4-1.8l-2.8-9.7
			C79.3,62.7,80,61.8,81,61.8z"/>
		<path class="st1" d="M125.4,72.4l0.8-0.1l0,0.6c0,0.9-0.6,1.6-1.5,1.7c-1.6,0.2-3,0.4-4.3,0.4c-2.1,0-3.6-0.5-4.6-1.6
			c-0.9-1.1-1.4-2.8-1.4-5.1c0-4.6,2.1-6.9,6.2-6.9c4,0,6,2,6,6l0,0c-0.1,1.2-1.1,2-2.2,2h-6.8c0,1.1,0.3,1.9,0.8,2.4
			c0.5,0.5,1.4,0.8,2.8,0.8C122.6,72.6,124,72.5,125.4,72.4z M123.7,67.3c0-1.3-0.2-2.2-0.7-2.7c-0.4-0.5-1.2-0.8-2.3-0.8
			s-1.8,0.3-2.3,0.8c-0.5,0.5-0.7,1.4-0.8,2.7H123.7z"/>
		<path class="st1" d="M141,72.4l0,0.7c0,0.8-0.6,1.5-1.4,1.6c-1.6,0.2-3.1,0.4-4.4,0.4c-2.1,0-3.6-0.5-4.6-1.6
			c-0.9-1.1-1.4-2.8-1.4-5.1c0-4.6,2.1-6.9,6.2-6.9c4,0,6,2,6,6l0,0c-0.1,1.2-1.1,2-2.2,2h-6.8c0,1.1,0.3,1.9,0.8,2.4
			c0.5,0.5,1.4,0.8,2.8,0.8C137.3,72.6,141,72.4,141,72.4z M138.4,67.3c0-1.3-0.2-2.2-0.7-2.7c-0.4-0.5-1.2-0.8-2.3-0.8
			s-1.8,0.3-2.3,0.8c-0.5,0.5-0.7,1.4-0.8,2.7H138.4z"/>
		<path class="st1" d="M155.3,65.8v5.9c0,0.4,0.1,0.7,0.3,0.8s0.5,0.3,0.9,0.4l0,0.6c0,0.9-0.8,1.6-1.7,1.4
			c-0.9-0.1-1.6-0.4-2.1-0.8c-1.5,0.6-3.1,1-4.6,1c-2.8,0-4.3-1.4-4.3-4.1c0-1.3,0.4-2.3,1.2-2.9s2-0.9,3.6-1.1l3.7-0.3v-0.9
			c0-0.7-0.2-1.2-0.5-1.5s-0.8-0.4-1.5-0.4c-1.2,0-2.8,0.1-4.6,0.2l-0.9,0.1l0-0.8c0-0.7,0.4-1.3,1.1-1.5c1.6-0.3,3.1-0.4,4.5-0.4
			c1.7,0,3,0.3,3.8,1C154.9,63.2,155.3,64.3,155.3,65.8z M148.9,69c-1.3,0.1-2,0.8-2,2s0.6,1.8,1.7,1.8c1,0,2-0.1,3-0.4l0.5-0.2
			v-3.5L148.9,69z"/>
		<path class="st1" d="M161,75.1L161,75.1c-0.9,0-1.6-0.7-1.6-1.5l0-9.9c0-1.1,0.4-1.9,1.5-1.9c1.3,0,1.6,0.8,1.6,0.8
			c1.4-0.7,2.6-1.1,3.7-1.1c1.7,0,2.9,0.4,3.6,1.3c1.7-0.9,3.5-1.3,5.2-1.3s2.9,0.5,3.6,1.4c0.7,1,1.1,2.6,1.1,4.9l0,5.8
			c0,0.9-0.7,1.5-1.5,1.5l0,0c-0.9,0-1.5-0.7-1.5-1.5l0-5.7c0-1.4-0.2-2.4-0.5-3c-0.3-0.6-1-0.9-2-0.9c-0.9,0-1.8,0.2-2.8,0.5
			l-0.5,0.2c0.2,0.3,0.2,1.5,0.2,3.3l0,5.6c0,0.9-0.6,1.5-1.5,1.5l0,0c-0.9,0-1.6-0.7-1.6-1.5l0-5.5c0-1.5-0.2-2.6-0.5-3.2
			c-0.3-0.6-1-0.9-2-0.9c-1,0-1.8,0.2-2.7,0.5l-0.4,0.2l0,8.9C162.6,74.5,161.9,75.1,161,75.1z"/>
		<path class="st1" d="M100.9,59.2L100.9,59.2c0.8,0,1.4,0.5,1.5,1.1l3.3,11.7c0.2,0.5,0.9,0.5,1.1,0l3.1-11.8
			c0.2-0.7,0.8-1.1,1.5-1.1l0,0c1,0,1.7,1,1.5,1.9l-3.2,12.2c-0.3,1.1-1.3,1.8-2.4,1.8h-1.8c-1.1,0-2.1-0.7-2.4-1.8l-3.5-12.2
			C99.2,60.2,99.9,59.2,100.9,59.2z"/>
	</g>
	<g>
		<path class="st1" d="M101.7,43.2c-1.4,0-2.5,1.1-2.5,2.6c0,0.8,0.3,1.5,0.7,2c0.5,0.5,1.1,0.7,1.7,0.7h13c4.9,0,8.5-3.5,8.5-8.3
			c0-4.8-3.7-8.6-8.4-8.6h-8c-2.1,0-3.5-1.2-3.5-3c0-1.9,1.4-3.1,3.5-3.1h12.9c1.6,0,2.5-1.4,2.5-2.7c0-1.5-1.1-2.6-2.5-2.6h-13
			c-4.9,0-8.5,3.6-8.5,8.4c0,4.7,3.7,8.3,8.5,8.3h7.9c2.1,0,3.5,1.3,3.5,3.3c0,1.9-1.3,3.1-3.5,3.1H101.7z"/>
		<path class="st1" d="M152.7,22.7c0,1.4-1.3,2.6-2.8,2.6h-4.8h-3v20.4c0,1.5-1.3,2.8-2.8,2.8c-1.5,0-2.8-1.3-2.8-2.8V25.3h-2.5
			h-5.3c-1.5,0-2.8-1.2-2.8-2.6c0-1.4,1.3-2.6,2.8-2.6h5.3h4.5h0.3h6.2h4.8C151.5,20.1,152.7,21.3,152.7,22.7z"/>
		<path class="st1" d="M181.1,46c0,1.4-1.3,2.6-2.8,2.6h-4.9h-4.7h-0.5h-3.4h-0.5H163c0,0-1.9,0-2.6-0.3c-0.5-0.2-0.9-0.3-1.3-0.6
			c-1.4-0.9-2.3-2.5-2.4-4.3h0v-0.2v-0.6v-1.1v-3.1v-1.7v0h0c0-1.9,0.9-3.5,2.4-4.4c0.4-0.3,0.9-0.4,1.3-0.6
			c0.7-0.3,2.6-0.2,2.6-0.2h1.3h0.5h3.4h0.5h4.7h4.9c1.5,0,2.8,1.2,2.8,2.6c0,1.4-1.3,2.6-2.8,2.6h-4.9h-4.7h-0.5h-3.4h-1
			c-1,0-1.8,0.3-1.8,1.5v3.7c0,1,1,1.5,1.8,1.5h1h3.4h0.5h4.7h4.9C179.8,43.4,181.1,44.5,181.1,46z M178.2,20.1h-4.8h-4.7h-0.5h-3.4
			h-5.3c-1.5,0-2.8,1.2-2.8,2.6c0,1.4,1.3,2.6,2.8,2.6h5.3h3.4h0.5h4.8h4.8c1.5,0,2.8-1.2,2.8-2.6C181,21.3,179.8,20.1,178.2,20.1z"
			/>
		<g>
			<path class="st1" d="M38.9,22.9v9.4v4v9.4c0,1.5-1.3,2.8-2.8,2.8c-1.5,0-2.8-1.3-2.8-2.8v-9.4v-4v-9.4c0-1.5,1.3-2.8,2.8-2.8
				C37.6,20.1,38.9,21.4,38.9,22.9z"/>
			<path class="st1" d="M48.3,34.3L59,25.1c1-0.9,1.4-2.4,0.7-3.6c-0.9-1.6-3-1.9-4.3-0.8L40.6,33.5c-0.5,0.4-0.5,1.1,0,1.5
				l14.7,12.7c1,0.9,2.6,1,3.6,0.2c1.4-1.1,1.4-3.2,0.1-4.3L48.3,34.3z"/>
		</g>
		<path class="st1" d="M211.6,22.9v20.4c0,3.2-1.5,5.3-4.3,5.3c-3,0-4.1-1.8-5.3-3.5l-11.3-18v18.7c0,1.5-1.3,2.7-2.8,2.7
			c-1.5,0-2.8-1.2-2.8-2.8V25.4c0-3,2.1-5.3,4.8-5.3c1.9,0,3.6,1.4,4.6,2.8c0.1,0.2,11.6,18.5,11.6,18.5V22.8c0-1,1-2.6,2.8-2.6
			C210.3,20.2,211.6,21.4,211.6,22.9z"/>
		<path class="st1" d="M94.8,44.1l-9.6-20.2c-0.9-2.4-2.7-3.8-5.5-3.8c-2.3,0-4.3,1.2-5.4,3.8l-9.5,19.8c-1.9,3.5,1.3,4.8,2.2,4.7
			c0,0,0,0,0,0c1.1,0,2.1-0.7,2.6-1.8c0.4-0.9,2.5-5.3,2.5-5.3h7.6c1.5,0,2.6-1.3,2.6-2.8s-1.2-2.8-2.6-2.8h-5l4.4-9l0-0.1
			c0.1-0.3,0.3-0.5,0.4-0.6c0.1,0,0.3,0,0.4,0c0.2,0.1,0.4,0.4,0.5,0.7l9.5,19.9c0.4,0.8,2,2.6,4.3,1.2
			C95.3,47.1,95.6,45.5,94.8,44.1z"/>
	</g>
</g>
</svg>
