<?xml version="1.0" encoding="UTF-8"?><svg id="_图层_1" xmlns="http://www.w3.org/2000/svg" viewBox="0 0 331.69 315.04"><defs><style>.cls-1,.cls-2,.cls-3{stroke-width:0px;}.cls-2{fill:#1450f9;}.cls-3{fill:#00c5ff;}</style></defs><path class="cls-1" d="M82.36,266.39l-11.59-16.09-5.15,5.74v10.35h-7.51v-37.55h7.51v16.63l15.66-16.63h8.69l-14.32,15.98,15.39,21.56h-8.69Z"/><path class="cls-1" d="M120.92,237.97v28.43h-7.24v-3.59c-2.4,2.9-5.49,4.34-9.28,4.34-2.65,0-5.05-.67-7.21-2.01-2.16-1.34-3.87-3.17-5.12-5.5-1.25-2.32-1.88-4.9-1.88-7.72s.63-5.15,1.88-7.4c1.25-2.25,2.96-4.03,5.12-5.34,2.16-1.3,4.57-1.96,7.21-1.96,3.83,0,6.92,1.43,9.28,4.29v-3.54h7.24ZM109.95,259.26c1.23-.79,2.19-1.83,2.87-3.14.68-1.3,1.02-2.71,1.02-4.21,0-1.36-.34-2.65-1.02-3.86-.68-1.22-1.64-2.21-2.87-2.98-1.23-.77-2.64-1.15-4.21-1.15s-2.94.38-4.21,1.15c-1.27.77-2.27,1.77-3,3-.73,1.23-1.1,2.51-1.1,3.83,0,1.47.36,2.86,1.07,4.18.71,1.32,1.71,2.38,2.98,3.16,1.27.79,2.69,1.18,4.26,1.18s2.98-.39,4.21-1.18Z"/><path class="cls-1" d="M175.15,237.97v28.43h-7.24v-3.59c-2.4,2.9-5.49,4.34-9.28,4.34-2.65,0-5.05-.67-7.21-2.01-2.16-1.34-3.87-3.17-5.12-5.5-1.25-2.32-1.88-4.9-1.88-7.72s.63-5.15,1.88-7.4c1.25-2.25,2.96-4.03,5.12-5.34,2.16-1.3,4.57-1.96,7.21-1.96,3.83,0,6.92,1.43,9.28,4.29v-3.54h7.24ZM164.18,259.26c1.23-.79,2.19-1.83,2.87-3.14.68-1.3,1.02-2.71,1.02-4.21,0-1.36-.34-2.65-1.02-3.86-.68-1.22-1.64-2.21-2.87-2.98-1.23-.77-2.64-1.15-4.21-1.15s-2.94.38-4.21,1.15c-1.27.77-2.27,1.77-3,3-.73,1.23-1.1,2.51-1.1,3.83,0,1.47.36,2.86,1.07,4.18.71,1.32,1.71,2.38,2.98,3.16,1.27.79,2.69,1.18,4.26,1.18s2.98-.39,4.21-1.18Z"/><path class="cls-1" d="M181.8,228.15h7.24v38.24h-7.24v-38.24Z"/><path class="cls-1" d="M205.62,265.05l-12.34-27.09h7.13l8.9,19.52,7.94-19.52h7.13l-17.22,41.3h-7.4l5.85-14.21Z"/><path class="cls-1" d="M232.81,265.78c-2.22-.91-4.06-2.26-5.52-4.05l4.61-3.92c1,.93,1.98,1.64,2.95,2.12.97.48,2.29.78,3.97.89,1.61.11,2.96-.07,4.05-.54,1.09-.46,1.64-1.16,1.64-2.09,0-.61-.21-1.09-.64-1.45-.43-.36-1.18-.66-2.25-.91-1.07-.25-2.77-.57-5.1-.97-2.72-.46-4.82-1.36-6.3-2.68-1.48-1.32-2.23-3.22-2.23-5.69,0-1.93.52-3.59,1.56-4.99,1.04-1.39,2.42-2.44,4.16-3.14,1.73-.7,3.66-1.05,5.77-1.05,2.22,0,4.34.39,6.38,1.18,2.04.79,3.7,2.06,4.99,3.81l-4.56,3.86c-.72-.89-1.69-1.56-2.92-2.01-1.23-.45-2.49-.67-3.78-.67s-2.47.21-3.54.62c-1.07.41-1.61,1.08-1.61,2.01,0,.64.15,1.11.46,1.39.3.29.88.55,1.72.78.84.23,2.44.58,4.8,1.05,2.82.57,5.16,1.59,7,3.06,1.84,1.47,2.76,3.38,2.76,5.74,0,1.82-.55,3.42-1.66,4.77-1.11,1.36-2.57,2.41-4.37,3.14-1.81.73-3.71,1.1-5.71,1.1-2.18,0-4.38-.46-6.6-1.37Z"/><path class="cls-1" d="M269.93,266.93c-3.5,0-6.07-.75-7.7-2.25-1.63-1.5-2.44-3.83-2.44-6.97v-13.03h-5.2v-6.7h5.2v-5.42l6.92-2.09v7.51h6.87v6.7h-6.87v13.03c0,1.07.38,1.81,1.15,2.2.77.39,1.92.59,3.46.59.97,0,1.72-.02,2.25-.05v6.28c-1.18.14-2.4.21-3.65.21Z"/><path class="cls-1" d="M141.52,244.67v-6.7h-6.87v-7.51l-6.92,2.09v25.16c0,3.15.81,5.47,2.44,6.97,1.63,1.5,4.19,2.25,7.7,2.25,1.25,0,2.47-.07,3.65-.21v-6.28c-.54.04-1.29.05-2.25.05-1.54,0-2.69-.2-3.46-.59-.77-.39-1.15-1.13-1.15-2.2v-13.03h6.87Z"/><rect class="cls-2" x="142.82" y="35.78" width="46.06" height="10.19" rx="1.68" ry="1.68"/><path class="cls-3" d="M136.2,184.54c1.7,2.14,4.29,3.38,7.02,3.38h45.25c2.73,0,5.31-1.24,7.02-3.38l28.22-35.38c1.18-1.48,1.83-3.28,1.93-5.13-27.38-16.79-63.88,6.74-63.88,6.74-36.65,24.43-54.91-5.35-55.7-6.68,0,.09,0,.18.02.27.04.29.08.57.12.85.27,1.42.87,2.78,1.79,3.94l28.22,35.38Z"/><circle class="cls-3" cx="144.8" cy="131.96" r="14.33"/><circle class="cls-3" cx="175.93" cy="100.38" r="10.09"/><circle class="cls-3" cx="157.32" cy="71.18" r="5.16"/><path class="cls-2" d="M246.96,142.35l-13.55-59.39c-.88-3.86-3.47-7.11-7.04-8.83l-40.35-19.43v1.54c0,.32.19.62.48.76l39.06,18.81c3.07,1.48,5.27,4.24,6.03,7.56l13.55,59.39c.76,3.31-.04,6.78-2.15,9.43l-37.98,47.62c-2.12,2.65-5.32,4.2-8.72,4.2h-60.91c-3.39,0-6.6-1.55-8.72-4.2l-37.98-47.62c-2.12-2.65-2.91-6.12-2.15-9.43l13.55-59.39c.76-3.31,2.98-6.09,6.03-7.56l39.06-18.81c.29-.14.48-.43.48-.76v-1.54l-40.35,19.43c-3.57,1.72-6.16,4.97-7.04,8.83l-13.55,59.39c-.88,3.86.04,7.91,2.51,11.01l37.98,47.62c2.47,3.1,6.21,4.9,10.17,4.9h60.91c3.96,0,7.7-1.8,10.17-4.9l37.98-47.62c2.47-3.1,3.39-7.15,2.51-11.01Z"/><path class="cls-2" d="M196.3,206.41h-60.91c-4.14,0-8-1.86-10.58-5.1l-37.98-47.62c-2.58-3.24-3.54-7.41-2.61-11.45l13.55-59.38c.92-4.04,3.59-7.39,7.32-9.18l41.09-19.79v2.37c0,.52-.3,1-.77,1.23l-39.06,18.81c-2.93,1.41-5.03,4.04-5.75,7.21l-13.55,59.38c-.72,3.17.02,6.45,2.05,8.99l37.98,47.62c2.03,2.54,5.06,4,8.31,4h60.91c3.25,0,6.28-1.46,8.31-4l37.98-47.62c2.03-2.54,2.78-5.82,2.05-8.99l-13.55-59.39c-.72-3.17-2.82-5.8-5.75-7.21l-39.06-18.81c-.47-.23-.77-.71-.77-1.23v-2.37l41.09,19.79c3.73,1.8,6.4,5.14,7.32,9.18l13.55,59.39c.92,4.04-.03,8.21-2.61,11.45l-37.98,47.62c-2.58,3.24-6.44,5.1-10.58,5.1ZM145.14,55.54l-39.6,19.07c-3.44,1.66-5.91,4.75-6.76,8.47l-13.55,59.38c-.85,3.73.03,7.58,2.41,10.57l37.98,47.62c2.38,2.99,5.94,4.7,9.77,4.7h60.91c3.82,0,7.38-1.71,9.77-4.7l37.98-47.62c2.38-2.99,3.26-6.84,2.41-10.57l-13.55-59.39c-.85-3.73-3.31-6.82-6.76-8.47l-39.6-19.07v.71c0,.12.07.24.18.29l39.06,18.81c3.22,1.55,5.52,4.44,6.32,7.92l13.55,59.39c.79,3.48-.03,7.08-2.25,9.87l-37.98,47.62c-2.23,2.79-5.55,4.4-9.13,4.4h-60.91c-3.57,0-6.9-1.6-9.12-4.4l-37.98-47.62c-2.23-2.79-3.05-6.39-2.25-9.87l13.55-59.38c.79-3.48,3.1-6.37,6.31-7.92l39.06-18.81c.11-.05.18-.17.18-.29v-.71Z"/><path class="cls-2" d="M104.02,86.29l-12.57,55.08c-.76,3.32.04,6.81,2.16,9.48l35.23,44.17c2.13,2.67,5.35,4.22,8.76,4.22h56.5c3.41,0,6.63-1.55,8.76-4.22l35.23-44.17c2.13-2.67,2.92-6.16,2.16-9.48l-12.57-55.08c-.76-3.32-2.99-6.12-6.06-7.6l-33.55-16.16c-.94-.45-2.03.23-2.03,1.28v11.65c0,.54.31,1.04.8,1.28l23.69,11.41c2.46,1.19,4.25,3.43,4.86,6.09l10.07,44.12c.61,2.66-.03,5.46-1.73,7.59l-28.22,35.38c-1.7,2.14-4.29,3.38-7.02,3.38h-45.25c-2.73,0-5.31-1.24-7.02-3.38l-28.22-35.38c-1.7-2.14-2.34-4.93-1.73-7.59l10.07-44.12c.61-2.66,2.4-4.9,4.86-6.09l23.69-11.41c.49-.24.8-.73.8-1.28v-11.65c0-1.04-1.09-1.73-2.03-1.28l-33.55,16.16c-3.07,1.48-5.3,4.28-6.06,7.6Z"/></svg>