<svg width="165" height="112" viewBox="0 0 165 112" fill="none" xmlns="http://www.w3.org/2000/svg">
<path opacity="0.35" d="M55 77.9856C69.2766 77.9856 80.85 66.2017 80.85 51.6656C80.85 37.1295 69.2766 25.3456 55 25.3456C40.7234 25.3456 29.15 37.1295 29.15 51.6656C29.15 66.2017 40.7234 77.9856 55 77.9856Z" fill="#FA9E34"/>
<path d="M65.868 46.3568L61.963 48.6528L59.994 49.8176H59.004L54.428 34.72L59.037 49.9296H58.498L58.542 50.064L58.586 50.1984L58.619 50.288L58.63 50.3216H60.148L60.203 50.288L65.362 47.2528V46.9504L66.066 46.536L65.868 46.3568ZM47.751 49.9296L47.674 50.064L47.542 50.288L47.597 50.3216H48.818L48.862 50.1984L48.906 50.064L48.95 49.9296H47.751ZM65.868 46.3568L61.963 48.6528L59.994 49.8176H59.004L54.428 34.72L59.037 49.9296H58.498L58.542 50.064L58.586 50.1984L58.619 50.288L58.63 50.3216H60.148L60.203 50.288L65.362 47.2528V46.9504L66.066 46.536L65.868 46.3568ZM47.751 49.9296L47.674 50.064L47.542 50.288L47.597 50.3216H48.818L48.862 50.1984L48.906 50.064L48.95 49.9296H47.751ZM65.868 46.3568L61.963 48.6528L59.994 49.8176H59.004L54.428 34.72L59.037 49.9296H58.498L58.542 50.064L58.586 50.1984L58.619 50.288L58.63 50.3216H60.148L60.203 50.288L65.362 47.2528V46.9504L66.066 46.536L65.868 46.3568ZM47.751 49.9296L47.674 50.064L47.542 50.288L47.597 50.3216H48.818L48.862 50.1984L48.906 50.064L48.95 49.9296H47.751ZM60.06 50.0752L59.983 49.9408H59.037L59.081 50.0752H58.542L58.586 50.2096L58.619 50.2992L58.63 50.3328H60.148L60.203 50.2992L60.06 50.0752ZM47.751 49.9296L47.674 50.064L47.542 50.288L47.597 50.3216H48.818L48.862 50.1984L48.906 50.064L48.95 49.9296H47.751ZM60.06 50.0752L59.983 49.9408H59.037L59.081 50.0752H58.542L58.586 50.2096L58.619 50.2992L58.63 50.3328H60.148L60.203 50.2992L60.06 50.0752ZM48.235 50.0752V50.344H48.818L48.862 50.2208L48.906 50.0864H48.235V50.0752ZM66.33 46.0768L65.868 46.3456L61.963 48.6416L59.994 49.8064H59.004L54.428 34.72L54.318 34.3504L54.098 33.6448L54.087 33.6112L54.032 33.5776L53.867 33.488L53.702 33.5776L53.647 33.6112L53.636 33.6448L53.405 34.3616L53.284 34.7536L48.455 49.8064H47.751L42.526 46.7376L41.877 46.3568L41.415 46.088L40.986 45.8304V55.44L43.142 56.7056L43.659 57.008L47.619 59.3376H60.148L64.185 56.9632L64.702 56.6608L66.77 55.44V45.8304L66.33 46.0768ZM59.994 58.8H47.751L42.394 55.6528L41.503 55.1264V46.7488L42.394 47.2752L47.553 50.3104L47.608 50.344H48.829L48.873 50.2208L48.917 50.0864L48.961 49.952L53.867 34.6752L58.498 49.952L58.542 50.0864L58.586 50.2208L58.619 50.3104L58.63 50.344H60.148L60.203 50.3104L65.362 47.2752L65.494 47.1968L66.253 46.7488V55.1264L65.362 55.6528L59.994 58.8ZM47.751 49.9296L47.674 50.064L47.542 50.288L47.597 50.3216H48.818L48.862 50.1984L48.906 50.064L48.95 49.9296H47.751ZM60.06 50.0752L59.983 49.9408H59.037L59.081 50.0752H58.542L58.586 50.2096L58.619 50.2992L58.63 50.3328H60.148L60.203 50.2992L60.06 50.0752ZM47.751 49.9296L47.674 50.064L47.542 50.288L47.597 50.3216H48.818L48.862 50.1984L48.906 50.064L48.95 49.9296H47.751ZM65.868 46.3568L61.963 48.6528L59.994 49.8176H59.004L54.428 34.72L59.037 49.9296H58.498L58.542 50.064L58.586 50.1984L58.619 50.288L58.63 50.3216H60.148L60.203 50.288L65.362 47.2528V46.9504L66.066 46.536L65.868 46.3568ZM47.751 49.9296L47.674 50.064L47.542 50.288L47.597 50.3216H48.818L48.862 50.1984L48.906 50.064L48.95 49.9296H47.751ZM65.868 46.3568L61.963 48.6528L59.994 49.8176H59.004L54.428 34.72L59.037 49.9296H58.498L58.542 50.064L58.586 50.1984L58.619 50.288L58.63 50.3216H60.148L60.203 50.288L65.362 47.2528V46.9504L66.066 46.536L65.868 46.3568ZM47.751 49.9296L47.674 50.064L47.542 50.288L47.597 50.3216H48.818L48.862 50.1984L48.906 50.064L48.95 49.9296H47.751ZM65.868 46.3568L61.963 48.6528L59.994 49.8176H59.004L54.428 34.72L59.037 49.9296H58.498L58.542 50.064L58.586 50.1984L58.619 50.288L58.63 50.3216H60.148L60.203 50.288L65.362 47.2528V46.9504L66.066 46.536L65.868 46.3568ZM47.751 49.9296L47.674 50.064L47.542 50.288L47.597 50.3216H48.818L48.862 50.1984L48.906 50.064L48.95 49.9296H47.751ZM65.868 46.3568L61.963 48.6528L59.994 49.8176H59.004L54.428 34.72L59.037 49.9296H58.498L58.542 50.064L58.586 50.1984L58.619 50.288L58.63 50.3216H60.148L60.203 50.288L65.362 47.2528V46.9504L66.066 46.536L65.868 46.3568Z" fill="white"/>
<path d="M63.4482 53.256V81.5808C63.4482 81.6368 63.4482 81.6928 63.4482 81.7488C63.2832 84.4704 59.1472 86.6432 54.0652 86.6432C48.9832 86.6432 44.8472 84.4592 44.6822 81.7488C44.6822 81.6928 44.6822 81.6368 44.6822 81.5808V53.256H63.4482ZM63.9762 52.7296H63.4592H44.6712H44.1542V53.256V81.5808C44.1542 81.6592 44.1542 81.7152 44.1652 81.7824C44.2532 83.2944 45.3642 84.6832 47.2892 85.6912C49.1262 86.6544 51.5242 87.1808 54.0652 87.1808C56.6062 87.1808 59.0042 86.6544 60.8412 85.6912C62.7662 84.6832 63.8772 83.2944 63.9652 81.7824C63.9652 81.7152 63.9762 81.6592 63.9762 81.5808V53.256V52.7296Z" fill="black"/>
<path d="M44.671 81.5808C44.671 81.6368 44.671 81.6928 44.671 81.7488V81.5808ZM45.188 81.5808H44.143V81.7488V82.2752H44.66H45.221L45.188 81.704C45.188 81.6704 45.188 81.6368 45.188 81.5808Z" fill="black"/>
<path d="M63.448 81.5808V81.7488C63.448 81.6928 63.448 81.6368 63.448 81.5808ZM63.976 81.5808H62.931C62.931 81.6256 62.931 81.6704 62.931 81.704L62.887 82.2752H63.448H63.965V81.7488V81.5808H63.976Z" fill="black"/>
<path d="M54.054 86.6432C59.2422 86.6432 63.448 84.3767 63.448 81.5808C63.448 78.7849 59.2422 76.5184 54.054 76.5184C48.8658 76.5184 44.66 78.7849 44.66 81.5808C44.66 84.3767 48.8658 86.6432 54.054 86.6432Z" fill="#E8B87E"/>
<path d="M63.4482 53.256H44.6712V81.7488H63.4482V53.256Z" fill="#E8B87E"/>
<path d="M54.054 58.3184C59.2422 58.3184 63.448 56.0519 63.448 53.256C63.448 50.4601 59.2422 48.1936 54.054 48.1936C48.8658 48.1936 44.66 50.4601 44.66 53.256C44.66 56.0519 48.8658 58.3184 54.054 58.3184Z" fill="#FFDAB6"/>
<path d="M54.362 59.808C60.1455 59.808 64.834 57.2807 64.834 54.1632C64.834 51.0457 60.1455 48.5184 54.362 48.5184C48.5785 48.5184 43.89 51.0457 43.89 54.1632C43.89 57.2807 48.5785 59.808 54.362 59.808Z" fill="#D09750"/>
<path d="M49.137 72.6768C49.104 72.6768 49.082 72.6656 49.049 72.6544L47.421 71.7136C47.366 71.68 47.333 71.624 47.333 71.568V70.728C47.333 70.6608 47.366 70.6048 47.421 70.5824C47.476 70.5488 47.542 70.5488 47.597 70.5824L49.225 71.5344C49.28 71.568 49.313 71.624 49.313 71.68V72.4976C49.313 72.5648 49.28 72.6208 49.225 72.6432C49.203 72.6768 49.17 72.6768 49.137 72.6768ZM47.509 70.728L47.498 71.568V71.5792L49.126 72.52L49.137 71.6912L47.509 70.728Z" fill="#D09750"/>
<path d="M48.048 82.8128C48.015 82.8128 47.993 82.8016 47.96 82.7904L46.332 81.8496C46.277 81.816 46.244 81.76 46.244 81.704V80.864C46.244 80.7968 46.277 80.7408 46.332 80.7184C46.387 80.6848 46.453 80.6848 46.508 80.7184L48.136 81.6704C48.191 81.704 48.224 81.76 48.224 81.816V82.6336C48.224 82.7008 48.191 82.7568 48.136 82.7792C48.114 82.8016 48.081 82.8128 48.048 82.8128ZM46.42 80.8528L46.409 81.6928V81.704L48.037 82.6448L48.048 81.816L46.42 80.8528Z" fill="#D09750"/>
<path d="M48.466 71.2544C48.433 71.2544 48.411 71.2432 48.378 71.232L46.75 70.2912C46.695 70.2576 46.662 70.2016 46.662 70.1456V69.3056C46.662 69.2384 46.695 69.1824 46.75 69.16C46.805 69.1264 46.871 69.1264 46.926 69.16L48.554 70.112C48.609 70.1456 48.642 70.2016 48.642 70.2576V71.0752C48.642 71.1424 48.609 71.1984 48.554 71.2208C48.521 71.2544 48.499 71.2544 48.466 71.2544ZM46.827 70.1568L48.455 71.0976L48.466 70.2688L46.827 69.3056V70.1568Z" fill="#D09750"/>
<path d="M47.751 61.0288C47.718 61.0288 47.696 61.0176 47.663 61.0064L46.035 60.0656C45.98 60.032 45.947 59.976 45.947 59.92V59.08C45.947 59.0128 45.98 58.9568 46.035 58.9344C46.09 58.9008 46.156 58.9008 46.211 58.9344L47.839 59.8864C47.894 59.92 47.927 59.976 47.927 60.032V60.8496C47.927 60.9168 47.894 60.9728 47.839 60.9952C47.806 61.0288 47.784 61.0288 47.751 61.0288ZM46.112 59.9312L47.74 60.872L47.751 60.0432L46.112 59.08V59.9312Z" fill="#D09750"/>
<path d="M60.258 68.712C60.291 68.712 60.313 68.7008 60.346 68.6896L61.974 67.7488C62.029 67.7152 62.062 67.6592 62.062 67.6032V66.7632C62.062 66.696 62.029 66.64 61.974 66.6176C61.919 66.584 61.853 66.584 61.798 66.6176L60.17 67.5696C60.115 67.6032 60.082 67.6592 60.082 67.7152V68.5328C60.082 68.6 60.115 68.656 60.17 68.6784C60.203 68.7008 60.236 68.712 60.258 68.712ZM61.886 66.752L61.897 67.592V67.6032L60.269 68.544L60.258 67.7152L61.886 66.752Z" fill="#D09750"/>
<path d="M60.94 67.2896C60.973 67.2896 60.995 67.2784 61.028 67.2672L62.656 66.3264C62.711 66.2928 62.744 66.2368 62.744 66.1808V65.3408C62.744 65.2736 62.711 65.2176 62.656 65.1952C62.601 65.1616 62.535 65.1616 62.48 65.1952L60.852 66.1472C60.797 66.1808 60.764 66.2368 60.764 66.2928V67.1104C60.764 67.1776 60.797 67.2336 60.852 67.256C60.874 67.2784 60.907 67.2896 60.94 67.2896ZM62.579 66.1808L60.951 67.1216L60.94 66.2928L62.579 65.3296V66.1808Z" fill="#D09750"/>
<path d="M59.84 62.7648C59.873 62.7648 59.895 62.7536 59.928 62.7424L61.556 61.8016C61.611 61.768 61.644 61.712 61.644 61.656V60.816C61.644 60.7488 61.611 60.6928 61.556 60.6704C61.501 60.6368 61.435 60.6368 61.38 60.6704L59.752 61.6224C59.697 61.656 59.664 61.712 59.664 61.768V62.5856C59.664 62.6528 59.697 62.7088 59.752 62.7312C59.785 62.7536 59.818 62.7648 59.84 62.7648ZM61.479 61.6672L59.851 62.608L59.84 61.7792L61.479 60.816V61.6672Z" fill="#D09750"/>
<path d="M59.84 80.5168C59.873 80.5168 59.895 80.5056 59.928 80.4944L61.556 79.5536C61.611 79.52 61.644 79.464 61.644 79.408V78.568C61.644 78.5008 61.611 78.4448 61.556 78.4224C61.501 78.3888 61.435 78.3888 61.38 78.4224L59.752 79.3744C59.697 79.408 59.664 79.464 59.664 79.52V80.3376C59.664 80.4048 59.697 80.4608 59.752 80.4832C59.785 80.5056 59.818 80.5168 59.84 80.5168ZM61.479 79.4192L59.851 80.36L59.84 79.5312L61.479 78.568V79.4192Z" fill="#D09750"/>
<path d="M55.506 66.9312H53.207C53.075 66.9312 52.965 66.8192 52.965 66.6848V65.9232C52.965 65.7888 53.075 65.6768 53.207 65.6768H55.506C55.638 65.6768 55.748 65.7888 55.748 65.9232V66.6848C55.748 66.8192 55.638 66.9312 55.506 66.9312ZM53.207 65.8672C53.185 65.8672 53.163 65.8896 53.163 65.912V66.6736C53.163 66.696 53.185 66.7184 53.207 66.7184H55.506C55.528 66.7184 55.55 66.696 55.55 66.6736V65.912C55.55 65.8896 55.528 65.8672 55.506 65.8672H53.207Z" fill="#D09750"/>
<path d="M54.758 74.6928H52.459C52.327 74.6928 52.217 74.5808 52.217 74.4464V73.6848C52.217 73.5504 52.327 73.4384 52.459 73.4384H54.758C54.89 73.4384 55 73.5504 55 73.6848V74.4464C55 74.5808 54.89 74.6928 54.758 74.6928ZM52.459 73.6288C52.437 73.6288 52.415 73.6512 52.415 73.6736V74.4352C52.415 74.4576 52.437 74.48 52.459 74.48H54.758C54.78 74.48 54.802 74.4576 54.802 74.4352V73.6736C54.802 73.6512 54.78 73.6288 54.758 73.6288H52.459Z" fill="#D09750"/>
<path d="M56.265 83.8992H53.966C53.834 83.8992 53.724 83.7872 53.724 83.6528V82.8912C53.724 82.7568 53.834 82.6448 53.966 82.6448H56.265C56.397 82.6448 56.507 82.7568 56.507 82.8912V83.6528C56.507 83.7984 56.408 83.8992 56.265 83.8992ZM53.966 82.8464C53.944 82.8464 53.922 82.8688 53.922 82.8912V83.6528C53.922 83.6752 53.944 83.6976 53.966 83.6976H56.265C56.287 83.6976 56.309 83.6752 56.309 83.6528V82.8912C56.309 82.8688 56.287 82.8464 56.265 82.8464H53.966Z" fill="#D09750"/>
<path d="M56.705 65.8672H54.406C54.274 65.8672 54.164 65.7552 54.164 65.6208V64.8592C54.164 64.7248 54.274 64.6128 54.406 64.6128H56.705C56.837 64.6128 56.947 64.7248 56.947 64.8592V65.6208C56.947 65.7552 56.837 65.8672 56.705 65.8672ZM54.406 64.8144C54.384 64.8144 54.362 64.8368 54.362 64.8592V65.6208C54.362 65.6432 54.384 65.6656 54.406 65.6656H56.705C56.727 65.6656 56.749 65.6432 56.749 65.6208V64.8592C56.749 64.8368 56.727 64.8144 56.705 64.8144H54.406Z" fill="#D09750"/>
<path d="M56.078 73.6288H53.779C53.647 73.6288 53.537 73.5168 53.537 73.3824V72.6208C53.537 72.4864 53.647 72.3744 53.779 72.3744H56.078C56.21 72.3744 56.32 72.4864 56.32 72.6208V73.3824C56.32 73.5168 56.21 73.6288 56.078 73.6288ZM53.768 72.576C53.746 72.576 53.724 72.5984 53.724 72.6208V73.3824C53.724 73.4048 53.746 73.4272 53.768 73.4272H56.067C56.089 73.4272 56.111 73.4048 56.111 73.3824V72.6208C56.111 72.5984 56.089 72.576 56.067 72.576H53.768Z" fill="#D09750"/>
<path d="M66.682 46.4352L66.594 46.536L66.506 46.6256L66.319 46.816L66.055 46.5472L65.868 46.3568V46.3456L65.164 45.64L54.428 34.72L53.867 34.1488L53.284 34.7536L41.866 46.3456L41.679 46.5472L41.492 46.7376L41.415 46.816L41.052 46.4352L41.404 46.0768L41.492 45.9872L42.207 45.2704L52.283 35.0224L53.636 33.6336L53.713 33.5664L53.867 33.4768L54.032 33.5664L54.098 33.6336L55.451 35.0224L66.242 45.9872L66.682 46.4352Z" fill="white"/>
<path d="M59.103 50.1424L58.905 50.2096L58.608 50.2992L58.575 50.2096L58.553 50.1424L58.531 50.0752L58.498 49.9296L53.856 34.6528L48.95 49.9296L48.906 50.0752L48.873 50.2096L48.829 50.3328H48.642V50.2432L48.543 50.2096L48.345 50.1424L48.367 50.0752L48.411 49.9296L48.444 49.8064L53.284 34.7536L53.405 34.3504L53.636 33.6336L53.647 33.6L53.713 33.5664L53.867 33.4768L54.032 33.5664L54.087 33.6L54.098 33.6336L54.307 34.3504L54.428 34.72L59.037 49.9296L59.081 50.0752L59.103 50.1424Z" fill="white"/>
<path d="M60.06 58.9232H47.674V59.192H60.06V58.9232Z" fill="white"/>
<path d="M66.759 41.0592V46.4352L66.594 46.536L66.506 46.592L66.242 46.7376L65.483 47.1856L65.351 47.264L60.192 50.2992L60.06 50.0752L59.983 49.9296L59.928 49.84L59.994 49.8064L61.963 48.6416L65.868 46.3456L66.242 46.1328V41.3616L55.451 35.0224L54.307 34.3504L53.867 34.0816L53.405 34.3504L52.283 35.0224L41.492 41.3616V46.1328L41.866 46.3456L42.515 46.7264L47.751 49.8064L47.806 49.84L47.751 49.9296L47.674 50.0752L47.542 50.2992L42.383 47.264L41.492 46.7376L41.228 46.592L41.14 46.536L40.975 46.4352V41.0592L41.096 40.9808L53.647 33.6L53.713 33.5664L53.867 33.4768L54.032 33.5664L54.087 33.6L66.759 41.0592Z" fill="white"/>
<path d="M60.06 49.9296H47.674V50.1984H60.06V49.9296Z" fill="white"/>
<path d="M49.39 50.0752H48.235V59.0688H49.39V50.0752Z" fill="white"/>
<path d="M59.147 50.0752H57.992V59.0688H59.147V50.0752Z" fill="white"/>
<path d="M42.383 46.9616V55.9552L41.228 55.272V46.2784L41.448 46.4128L41.679 46.5472L42.383 46.9616Z" fill="white"/>
<path d="M64.691 56.2688V59.9424L57.959 62.9104H49.027L43.12 59.6848V56.5376H43.648V59.3712L49.159 62.384H57.849L64.174 59.5952V56.56H64.306L64.284 56.3024L64.691 56.2688Z" fill="white"/>
<path d="M52.283 35.0224L42.207 45.2704L41.492 45.9872V41.3616L52.283 35.0224Z" fill="#FF9D45"/>
<path d="M54.087 33.6L54.032 33.5664L53.867 33.4768L53.702 33.5664L53.647 33.6L41.096 40.9808L40.964 41.0592V55.4288L43.12 56.6944V59.6848L49.027 62.9104H57.959L64.691 59.9424V56.6384L66.759 55.4176V41.0592L54.087 33.6ZM66.242 41.3616V45.9872L55.451 35.0224L66.242 41.3616ZM59.994 58.8H59.158V50.3328H60.137L60.192 50.2992L65.351 47.264V55.6416L59.994 58.8ZM41.866 46.3456L53.273 34.7424L48.444 49.7952H47.74L42.515 46.7264L41.866 46.3456ZM61.963 48.6416L59.994 49.8064H59.004L54.428 34.72L65.175 45.64L65.868 46.3456L61.963 48.6416ZM48.95 49.9296L53.856 34.6528L58.487 49.9296H48.95ZM49.39 50.2096H57.992V58.8H49.39V50.2096ZM41.492 41.3616L52.283 35.0224L42.207 45.2704L41.492 45.9872V41.3616ZM42.383 55.6528V47.264L47.542 50.2992L47.597 50.3328H48.235V58.8H47.74L42.383 55.6528ZM64.174 59.5952L57.849 62.384H49.159L43.648 59.3712V56.9968L47.608 59.3264H60.137L64.174 56.952V59.5952Z" fill="black"/>
<path d="M64.174 56.952V59.5952L57.849 62.384H49.159L43.648 59.3712V56.9968L47.608 59.3264H60.126L64.174 56.952Z" fill="#A5692D"/>
<path d="M48.235 50.3328V58.8H47.751L42.383 55.6528V47.264L47.542 50.2992L47.608 50.3328H48.235Z" fill="#BC7F3C"/>
<path d="M57.992 50.2096H49.39V58.8H57.992V50.2096Z" fill="#BC7F3C"/>
<path d="M65.351 47.264V55.6528L59.994 58.8H59.147V50.3328H60.126L60.192 50.2992L65.351 47.264Z" fill="#BC7F3C"/>
<path d="M66.242 41.3616V45.9872L55.451 35.0224L66.242 41.3616Z" fill="#DB6D00"/>
<path d="M65.868 46.3456L61.963 48.6416L59.994 49.8064H59.004L54.428 34.72L65.164 45.64L65.868 46.3456Z" fill="#E07000"/>
<path d="M58.498 49.9296H48.95L53.856 34.6528L58.498 49.9296Z" fill="#F27E00"/>
<path d="M53.284 34.7536L48.444 49.8064H47.751L42.515 46.7264L41.866 46.3456L53.284 34.7536Z" fill="#FA9E34"/>
<path d="M64.416 54.6896L60.401 57.0416C60.401 57.0416 60.269 54.6448 60.819 52.584L64.416 54.6896Z" fill="#D09750"/>
<path d="M62.414 49.9856C64.636 48.7088 64.416 54.6896 64.416 54.6896L60.819 52.584C61.105 51.464 61.6 50.456 62.414 49.9856Z" fill="#93551C"/>
<path d="M43.307 54.6896L47.322 57.0416C47.322 57.0416 47.454 54.6448 46.904 52.584L43.307 54.6896Z" fill="#D09750"/>
<path d="M45.298 49.9856C43.076 48.7088 43.296 54.6896 43.296 54.6896L46.893 52.584C46.607 51.464 46.123 50.456 45.298 49.9856Z" fill="#93551C"/>
<path d="M57.453 57.512C57.453 57.5344 57.453 57.5456 57.453 57.5456H50.721C50.721 57.5456 50.435 51.6768 54.087 51.6768C54.428 51.6768 54.736 51.7328 55.011 51.8224C55.165 51.8784 55.319 51.9456 55.462 52.024C57.552 53.2112 57.464 57.1312 57.453 57.512Z" fill="#D09750"/>
<path d="M57.453 57.512C57.453 57.5344 57.453 57.5456 57.453 57.5456C57.453 57.5456 55.22 53.7824 53.955 53.7824C52.69 53.7824 50.721 57.5456 50.721 57.5456C50.721 57.5456 50.435 51.6768 54.087 51.6768C54.428 51.6768 54.736 51.7328 55.011 51.8224C55.165 51.8784 55.319 51.9456 55.462 52.024C57.552 53.2112 57.464 57.1312 57.453 57.512Z" fill="#93551C"/>
<path d="M96.932 47.008H101.328V55.296L109.14 47.008H114.628L106.816 54.904L115.384 67H109.868L103.848 58.012L101.328 60.56V67H96.932V47.008ZM126.463 58.208C126.276 57.2 125.94 56.4347 125.455 55.912C124.988 55.3893 124.27 55.128 123.299 55.128C122.664 55.128 122.132 55.24 121.703 55.464C121.292 55.6693 120.956 55.9307 120.695 56.248C120.452 56.5653 120.275 56.9013 120.163 57.256C120.07 57.6107 120.014 57.928 119.995 58.208H126.463ZM119.995 60.728C120.051 62.016 120.378 62.9493 120.975 63.528C121.572 64.1067 122.431 64.396 123.551 64.396C124.354 64.396 125.044 64.2 125.623 63.808C126.202 63.3973 126.556 62.968 126.687 62.52H130.187C129.627 64.256 128.768 65.4973 127.611 66.244C126.454 66.9907 125.054 67.364 123.411 67.364C122.272 67.364 121.246 67.1867 120.331 66.832C119.416 66.4587 118.642 65.936 118.007 65.264C117.372 64.592 116.878 63.7893 116.523 62.856C116.187 61.9227 116.019 60.896 116.019 59.776C116.019 58.6933 116.196 57.6853 116.551 56.752C116.906 55.8187 117.41 55.016 118.063 54.344C118.716 53.6533 119.491 53.112 120.387 52.72C121.302 52.328 122.31 52.132 123.411 52.132C124.643 52.132 125.716 52.3747 126.631 52.86C127.546 53.3267 128.292 53.9613 128.871 54.764C129.468 55.5667 129.898 56.4813 130.159 57.508C130.42 58.5347 130.514 59.608 130.439 60.728H119.995ZM142.541 58.208C142.354 57.2 142.018 56.4347 141.533 55.912C141.066 55.3893 140.348 55.128 139.377 55.128C138.742 55.128 138.21 55.24 137.781 55.464C137.37 55.6693 137.034 55.9307 136.773 56.248C136.53 56.5653 136.353 56.9013 136.241 57.256C136.148 57.6107 136.092 57.928 136.073 58.208H142.541ZM136.073 60.728C136.129 62.016 136.456 62.9493 137.053 63.528C137.65 64.1067 138.509 64.396 139.629 64.396C140.432 64.396 141.122 64.2 141.701 63.808C142.28 63.3973 142.634 62.968 142.765 62.52H146.265C145.705 64.256 144.846 65.4973 143.689 66.244C142.532 66.9907 141.132 67.364 139.489 67.364C138.35 67.364 137.324 67.1867 136.409 66.832C135.494 66.4587 134.72 65.936 134.085 65.264C133.45 64.592 132.956 63.7893 132.601 62.856C132.265 61.9227 132.097 60.896 132.097 59.776C132.097 58.6933 132.274 57.6853 132.629 56.752C132.984 55.8187 133.488 55.016 134.141 54.344C134.794 53.6533 135.569 53.112 136.465 52.72C137.38 52.328 138.388 52.132 139.489 52.132C140.721 52.132 141.794 52.3747 142.709 52.86C143.624 53.3267 144.37 53.9613 144.949 54.764C145.546 55.5667 145.976 56.4813 146.237 57.508C146.498 58.5347 146.592 59.608 146.517 60.728H136.073ZM156.183 64.396C156.837 64.396 157.378 64.2653 157.807 64.004C158.255 63.7427 158.61 63.4067 158.871 62.996C159.151 62.5667 159.347 62.072 159.459 61.512C159.571 60.952 159.627 60.3827 159.627 59.804C159.627 59.2253 159.562 58.656 159.431 58.096C159.319 57.536 159.123 57.0413 158.843 56.612C158.563 56.164 158.199 55.8093 157.751 55.548C157.322 55.268 156.79 55.128 156.155 55.128C155.502 55.128 154.951 55.268 154.503 55.548C154.074 55.8093 153.719 56.1547 153.439 56.584C153.178 57.0133 152.991 57.508 152.879 58.068C152.767 58.628 152.711 59.2067 152.711 59.804C152.711 60.3827 152.767 60.952 152.879 61.512C153.01 62.072 153.206 62.5667 153.467 62.996C153.747 63.4067 154.111 63.7427 154.559 64.004C155.007 64.2653 155.549 64.396 156.183 64.396ZM148.875 52.524H152.655V54.372H152.711C153.197 53.588 153.813 53.0187 154.559 52.664C155.306 52.3093 156.127 52.132 157.023 52.132C158.162 52.132 159.142 52.3467 159.963 52.776C160.785 53.2053 161.466 53.7747 162.007 54.484C162.549 55.1933 162.95 56.024 163.211 56.976C163.473 57.9093 163.603 58.8893 163.603 59.916C163.603 60.8867 163.473 61.82 163.211 62.716C162.95 63.612 162.549 64.4053 162.007 65.096C161.485 65.7867 160.822 66.3373 160.019 66.748C159.235 67.1587 158.311 67.364 157.247 67.364C156.351 67.364 155.521 67.1867 154.755 66.832C154.009 66.4587 153.393 65.9173 152.907 65.208H152.851V72.068H148.875V52.524Z" fill="#F97316"/>
</svg>
