<?xml version="1.0" standalone="no"?>
<!DOCTYPE svg PUBLIC "-//W3C//DTD SVG 20010904//EN"
 "http://www.w3.org/TR/2001/REC-SVG-20010904/DTD/svg10.dtd">
<svg version="1.0" xmlns="http://www.w3.org/2000/svg"
 width="548.000000pt" height="92.000000pt" viewBox="0 0 548.000000 92.000000"
 preserveAspectRatio="xMidYMid meet">

<g transform="translate(0.000000,92.000000) scale(0.100000,-0.100000)"
fill="#000000" stroke="none">
<path d="M130 918 c0 -2 -28 -150 -63 -330 l-63 -328 91 0 92 0 23 118 c13 64
26 120 29 125 4 4 45 -49 92 -118 l84 -125 98 0 c76 0 97 3 91 13 -4 6 -52 78
-107 159 l-99 148 53 59 c30 33 101 110 158 170 l103 111 -104 0 -105 0 -114
-124 c-63 -68 -115 -123 -117 -121 -2 1 6 51 17 109 12 59 21 114 21 122 0 11
-18 14 -90 14 -50 0 -90 -1 -90 -2z"/>
<path d="M776 883 c-4 -21 -9 -46 -12 -55 -5 -16 4 -18 84 -18 l90 0 6 38 c4
20 9 45 12 55 5 15 -4 17 -84 17 l-90 0 -6 -37z"/>
<path d="M2516 903 c-3 -10 -10 -48 -16 -84 l-12 -67 -106 -4 c-127 -5 -192
-29 -248 -90 -48 -53 -67 -101 -67 -168 0 -110 55 -182 169 -216 50 -15 344
-21 344 -6 0 4 27 146 60 317 33 171 60 316 60 323 0 9 -25 12 -89 12 -77 0
-90 -3 -95 -17z m-61 -275 c3 -7 -5 -67 -18 -133 -20 -107 -25 -120 -44 -123
-33 -5 -100 16 -128 41 -52 44 -38 143 25 189 41 30 157 48 165 26z"/>
<path d="M4308 866 c-53 -60 -149 -127 -218 -153 -25 -9 -46 -17 -48 -18 -5
-4 21 -55 29 -55 4 0 28 9 54 20 56 24 55 24 55 5 0 -12 16 -15 85 -15 l85 0
0 -50 0 -50 -120 0 -120 0 0 -30 0 -30 120 0 121 0 -3 -87 -3 -88 -50 -2 c-41
-2 -47 0 -33 9 15 11 15 16 -4 62 -27 71 -34 77 -64 64 -26 -12 -26 -25 2 -80
27 -53 22 -58 -66 -58 -79 0 -80 0 -80 -25 l0 -25 325 0 325 0 0 25 c0 25 -1
25 -85 25 -47 0 -85 2 -85 5 0 3 11 28 25 55 31 61 31 64 0 78 -24 11 -26 9
-55 -47 l-29 -59 22 -15 c21 -15 20 -16 -30 -16 l-53 -1 0 90 0 90 115 0 115
0 0 30 0 30 -115 0 -115 0 0 50 0 50 80 0 c73 0 80 2 80 20 0 24 -3 25 56 -1
l48 -22 18 23 c10 12 18 25 17 29 0 3 -41 26 -90 49 -64 31 -110 63 -158 108
-38 35 -77 64 -87 64 -11 0 -40 -25 -66 -54z m202 -135 l35 -21 -160 0 -160 1
30 22 c17 12 50 40 75 63 l44 42 51 -43 c27 -23 66 -52 85 -64z"/>
<path d="M4890 860 l0 -60 -45 0 -45 0 0 -175 0 -175 25 0 c20 0 25 5 25 25 0
18 5 25 20 25 18 0 20 -7 20 -70 l0 -69 -51 -7 c-45 -6 -50 -9 -45 -28 3 -12
6 -25 6 -30 0 -12 97 0 150 19 27 10 46 12 50 6 8 -14 50 -2 50 13 0 11 -30
107 -35 114 -2 2 -14 0 -29 -4 -22 -5 -24 -9 -15 -25 11 -22 4 -39 -17 -39
-11 0 -14 15 -14 61 l0 60 45 -7 45 -6 0 156 0 156 -45 0 -45 0 0 60 c0 57 -1
60 -25 60 -24 0 -25 -3 -25 -60z m-2 -208 c3 -87 2 -92 -18 -92 -19 0 -20 6
-20 88 0 49 3 92 7 96 19 19 28 -8 31 -92z m90 0 c3 -87 2 -92 -18 -92 -19 0
-20 6 -20 88 0 49 3 92 7 96 19 19 28 -8 31 -92z"/>
<path d="M5090 875 c0 -38 -3 -45 -20 -45 -15 0 -20 -7 -20 -25 0 -18 5 -25
20 -25 19 0 20 -7 20 -110 l0 -110 65 0 c58 0 65 -2 65 -20 0 -18 -7 -20 -85
-20 l-85 0 0 -30 0 -30 80 0 c44 0 80 -4 80 -9 0 -12 -100 -104 -137 -126 -38
-23 -39 -26 -14 -50 19 -16 21 -16 53 6 18 12 50 38 71 58 l37 35 0 -67 0 -67
30 0 30 0 0 76 0 76 65 -61 c36 -33 72 -61 79 -61 13 0 53 38 45 43 -2 2 -17
11 -34 22 -37 23 -125 105 -125 116 0 5 34 9 75 9 l75 0 0 30 0 30 -90 0 c-83
0 -90 2 -90 20 0 17 8 19 83 22 81 3 82 3 85 31 l3 27 -150 0 -151 0 0 80 c0
78 1 80 25 80 23 0 24 -4 27 -62 l3 -63 88 -3 87 -3 0 66 0 65 35 0 c30 0 35
3 35 24 0 21 -6 25 -32 28 -31 3 -33 6 -36 46 -3 37 -6 42 -28 42 -24 0 -26
-5 -28 -60 -1 -21 -6 -25 -31 -25 -28 0 -30 3 -33 43 -3 39 -5 42 -33 42 -28
0 -29 -2 -29 -45 0 -41 -2 -45 -25 -45 -23 0 -25 4 -25 45 0 43 -1 45 -30 45
-29 0 -30 -2 -30 -45z m235 -132 c3 -31 1 -33 -31 -33 -32 0 -34 2 -34 36 0
34 1 35 31 32 28 -3 32 -7 34 -35z"/>
<path d="M1720 746 c-80 -19 -104 -31 -150 -72 -108 -98 -125 -246 -38 -340
50 -54 112 -78 200 -79 37 0 68 -4 68 -8 0 -20 -37 -60 -74 -79 -44 -23 -152
-30 -232 -16 l-42 8 -12 -66 c-10 -53 -10 -68 0 -74 24 -15 185 -21 255 -10
127 20 204 71 249 163 26 53 134 563 121 575 -12 13 -290 11 -345 -2z m155
-138 c-3 -13 -14 -67 -25 -121 -11 -54 -23 -103 -26 -109 -4 -6 -32 -8 -67 -6
-52 4 -64 9 -88 36 -21 23 -29 43 -29 70 0 92 72 152 182 152 55 0 58 -1 53
-22z"/>
<path d="M2857 746 c-132 -49 -206 -159 -195 -291 6 -77 45 -130 123 -170 53
-27 68 -30 149 -30 77 0 100 5 147 26 55 26 118 80 139 119 10 19 8 20 -77 20
-75 0 -90 -3 -109 -21 -47 -44 -141 -41 -181 6 -13 14 -23 35 -23 46 0 18 9
19 204 19 236 0 225 -5 207 97 -14 75 -53 130 -116 162 -40 21 -66 26 -140 29
-58 1 -103 -3 -128 -12z m189 -127 c13 -12 24 -26 24 -31 0 -4 -50 -8 -112 -8
l-111 0 19 21 c46 52 134 61 180 18z"/>
<path d="M3469 744 c-64 -19 -141 -90 -169 -155 -18 -42 -21 -66 -18 -125 3
-63 7 -78 34 -111 17 -21 56 -51 89 -68 53 -27 70 -30 150 -30 78 0 97 4 146
28 53 26 139 104 139 127 0 18 -161 13 -181 -6 -29 -27 -88 -42 -126 -33 -44
9 -83 45 -83 76 l0 23 205 0 205 0 0 48 c0 104 -45 176 -135 218 -59 28 -180
32 -256 8z m200 -131 l24 -28 -108 -3 c-59 -1 -110 0 -113 3 -3 3 1 12 9 20
54 54 145 58 188 8z"/>
<path d="M745 728 c-6 -21 -85 -442 -85 -456 0 -8 24 -12 85 -12 80 0 85 1 90
23 9 38 85 438 85 448 0 15 -170 11 -175 -3z"/>
<path d="M986 723 c-7 -26 -86 -438 -86 -452 0 -7 28 -11 83 -11 l82 0 19 103
c25 139 43 195 71 223 46 46 125 23 125 -37 0 -13 -12 -80 -25 -149 -14 -69
-25 -129 -25 -133 0 -4 37 -7 82 -5 l83 3 27 140 c34 171 34 252 -2 290 -42
44 -146 58 -225 30 -50 -18 -48 -18 -41 0 4 13 -8 15 -79 15 -71 0 -84 -3 -89
-17z"/>
</g>
</svg>
