<svg id="Layer_1" data-name="Layer 1" xmlns="http://www.w3.org/2000/svg" xmlns:xlink="http://www.w3.org/1999/xlink" viewBox="0 0 531.52999 236.4207"><defs><style>.cls-1{fill:#414042;}.cls-2{fill:#27aae1;}.cls-3{fill:url(#linear-gradient);}.cls-4{fill:url(#linear-gradient-2);}.cls-5{fill:url(#linear-gradient-3);}</style><linearGradient id="linear-gradient" x1="126.22197" y1="174.14942" x2="78.65973" y2="45.05217" gradientUnits="userSpaceOnUse"><stop offset="0" stop-color="#fff"/><stop offset="0.02342" stop-color="#fff" stop-opacity="0.9293"/><stop offset="0.09416" stop-color="#fff" stop-opacity="0.73643"/><stop offset="0.17046" stop-color="#fff" stop-opacity="0.56096"/><stop offset="0.25058" stop-color="#fff" stop-opacity="0.40971"/><stop offset="0.33548" stop-color="#fff" stop-opacity="0.28244"/><stop offset="0.42652" stop-color="#fff" stop-opacity="0.17906"/><stop offset="0.52613" stop-color="#fff" stop-opacity="0.09924"/><stop offset="0.63859" stop-color="#fff" stop-opacity="0.04292"/><stop offset="0.77474" stop-color="#fff" stop-opacity="0.00994"/><stop offset="1" stop-color="#fff" stop-opacity="0"/></linearGradient><linearGradient id="linear-gradient-2" x1="143.34361" y1="167.82932" x2="95.78272" y2="38.73572" xlink:href="#linear-gradient"/><linearGradient id="linear-gradient-3" x1="152.11926" y1="164.57592" x2="104.58241" y2="35.54759" xlink:href="#linear-gradient"/></defs><title>kops</title><path class="cls-1" d="M209.41865,164.92237a11.57615,11.57615,0,0,0-15.33031-4.41687l-15.81792-17.83425a71.60721,71.60721,0,0,0,.12742-46.09688L191.796,80.7134a11.43989,11.43989,0,0,0,10.27645-.65808A11.58862,11.58862,0,1,0,184.7458,68.69557L164.66,72.53862A71.65411,71.65411,0,0,0,123.78669,49.013l-7.62254-22.14587a11.57659,11.57659,0,1,0-16.43382-3.7583,11.006,11.006,0,0,0,3.23764,3.52455L95.32445,49.39518A71.51117,71.51117,0,0,0,55.79928,73.13353L33.31392,68.92932a11.57911,11.57911,0,1,0-7.13444,11.423l15.77623,18.069a71.82427,71.82427,0,0,0,.76441,44.31312l-16.20066,18.9608a11.59807,11.59807,0,1,0,6.60339,11.27461l24.78909-4.8624A71.69258,71.69258,0,0,0,95.356,189.4889l8.08993,22.99542a11.5749,11.5749,0,1,0,17.09239,3.24833,11.87812,11.87812,0,0,0-3.185-3.50307l7.71827-22.63435a71.592,71.592,0,0,0,38.18694-21.70044l24.747,4.778a10.99854,10.99854,0,0,0,1.39091,3.9485,11.59473,11.59473,0,1,0,20.02213-11.69894Zm-98.945,7.19771a52.69938,52.69938,0,1,1,52.70017-52.6987A52.69326,52.69326,0,0,1,110.47369,172.12008Z"/><path class="cls-1" d="M100.62207,123.49779a14.49916,14.49916,0,0,1-.70065-5.107,12.44226,12.44226,0,0,1,1.53932-4.95725,14.60173,14.60173,0,0,1,3.153-4.05571l29.4709-25.26668a42.47645,42.47645,0,0,0-65.333,43.35626,32.84011,32.84011,0,0,0,1.33774,5.14009c.06317.18971.12693.38127.20167.57284.11633.3391.24375.69928.37117,1.06133.4674,1.18973.9344,2.3565,1.46507,3.50405l.04267-.023a42.00414,42.00414,0,0,0,18.398,19.23761,4.76155,4.76155,0,0,1,.478.23365c.48858.25484.97658.4876,1.46516.72135.33959.14851.67917.2979.99767.44641a4.22873,4.22873,0,0,1,.44591.21168v-.02109a42.31578,42.31578,0,0,0,24.57692,2.59113,43.32537,43.32537,0,0,0,11.47667-3.97145l-25.6919-27.66625A14.65325,14.65325,0,0,1,100.62207,123.49779Z"/><path class="cls-2" d="M144.6058,94.11164,119.604,114.68651c-.92341.74234-1.78366,1.46467-2.59015,2.25008a3.59163,3.59163,0,0,0-1.06182,2.4848,5.10226,5.10226,0,0,0,.97658,3.58792c.88123,1.1245,1.80514,2.20888,2.739,3.207l21.74262,22.33548a42.50543,42.50543,0,0,0,10.786-37.1567A42.04575,42.04575,0,0,0,144.6058,94.11164Z"/><path class="cls-1" d="M258.67891,119.69732l20.34064-22.44377h21.64678L277.06638,123.3484,302.09932,159.72H281.238l-16.3064-23.20622H254.9V159.72H236.77739V67.14566H254.9v52.55166Z"/><path class="cls-1" d="M364.33251,103.77209c6.39112,6.13638,9.65093,14.22592,9.65093,24.27,0,10.16914-3.25981,18.365-9.65093,24.62871s-14.86282,9.3856-25.42569,9.3856c-10.56375,0-19.03545-3.1218-25.554-9.3856s-9.77738-14.45957-9.77738-24.62871c0-10.04407,3.25883-18.13361,9.63936-24.27,6.52913-6.11431,15.12825-9.2572,25.692-9.2572C349.46969,94.51489,357.9414,97.65778,364.33251,103.77209ZM338.90683,110.694c-10.29842,0-17.34762,6.9007-17.34762,17.34811,0,10.55227,7.0492,17.85533,17.34762,17.85533,10.29754,0,17.20883-7.30306,17.20883-17.85533C356.11565,117.59467,349.20436,110.694,338.90683,110.694Z"/><path class="cls-1" d="M454.46668,128.16852c0,9.64034-2.86706,17.47416-8.47268,23.462-5.60474,5.86046-12.90878,8.87494-21.64679,8.87494-7.43145,0-13.55725-.27583-18.64182-.7855v30.109H387.58277V98.31586c15.51041-1.97513,27.37983-3.01547,35.5862-3.01547C442.86259,95.30039,453.94652,107.95531,454.46668,128.16852Zm-17.60245.50967c0-12.25119-5.4783-18.38757-16.56125-18.38757-4.17263,0-8.99285.27593-14.59758.7855v33.25039a110.604,110.604,0,0,0,15.77574,1.04024C430.473,145.36676,436.86423,138.0637,436.86423,128.6782Z"/><path class="cls-1" d="M468.60727,141.71527c9.51194,3.65148,17.98462,5.47732,25.28866,5.47732,7.16613,0,10.6903-1.54991,10.6903-4.81835,0-2.86794-2.73866-4.31054-6.9113-5.22435a54.25907,54.25907,0,0,0-6.39122-1.29508l-3.38615-.6572c-14.7249-2.73954-21.51937-8.21686-21.51937-18.77061,0-13.03708,10.56287-20.85069,27.37885-20.85069a72.72468,72.72468,0,0,1,26.21217,4.6928l-4.04433,13.67407c-10.03307-2.86706-17.60246-4.28955-22.81533-4.28955-5.73214,0-8.99187,2.08058-8.99187,5.35088,0,2.86608,2.08058,3.9073,5.733,5.075,2.21849.53115,3.25883.65769,6.40171,1.29557l3.641.6572c15.24605,3.12082,21.63718,7.55976,21.63718,18.6427,0,13.95-10.946,20.9992-28.29363,20.9992a76.33092,76.33092,0,0,1-28.29275-5.4782Z"/><path class="cls-3" d="M104.23147,129.52687a14.71737,14.71737,0,0,1-3.69464-6.02907,14.37655,14.37655,0,0,1-.70066-5.09555,12.35422,12.35422,0,0,1,1.53932-4.94764,14.016,14.016,0,0,1,3.15338-4.05571l29.471-25.26668a42.477,42.477,0,0,0-65.33351,43.35812,32.90924,32.90924,0,0,0,1.33774,5.13822c.06366.16862.12742.38127.20157.57284.11692.3391.24434.70114.37176,1.04024.46691,1.21082.9344,2.37759,1.46507,3.52514l.04267-.044c.40325.85053.97658,1.76247,1.48615,2.65528A230.76483,230.76483,0,0,0,108.372,133.9869Z"/><path class="cls-4" d="M178.43992,97.063c-.06316-.14851-.07376-.319-.12732-.48858l13.39815-15.83989c.11692.04316.25484.06415.37166.10633a71.43284,71.43284,0,0,0,9.37412-20.82921,11.39519,11.39519,0,0,0-11.17877.04267,11.61761,11.61761,0,0,0-5.61621,8.66238l-20.08628,3.843A71.5679,71.5679,0,0,0,123.70185,49.013l-7.62254-22.12478A11.5852,11.5852,0,1,0,99.645,23.10885a11.31507,11.31507,0,0,0,3.23823,3.54613L95.23911,49.39518A71.42128,71.42128,0,0,0,55.71453,73.15462L33.22917,68.95031a11.57234,11.57234,0,1,0-7.13454,11.423l15.77623,18.048a71.396,71.396,0,0,0,.53066,43.42227c1.25251.02109,2.47382.12644,3.73682.12644,5.57354,0,11.06234-.19157,16.49807-.55175a52.15811,52.15811,0,0,1-4.94715-21.97578A52.64353,52.64353,0,0,1,162.15461,110.1,123.80774,123.80774,0,0,0,178.43992,97.063Z"/><path class="cls-5" d="M144.52056,94.13273,119.51921,114.7076c-.92391.72125-1.78366,1.46457-2.59064,2.229a3.64421,3.64421,0,0,0-1.06143,2.50589,5.03176,5.03176,0,0,0,.97658,3.56683,39.2658,39.2658,0,0,0,2.73915,3.207l3.22724,3.31052a175.23942,175.23942,0,0,0,29.89572-13.54528,43.724,43.724,0,0,0-.59442-4.58647A41.96257,41.96257,0,0,0,144.52056,94.13273Z"/></svg>