<?xml version="1.0" encoding="UTF-8" standalone="no"?>
<!DOCTYPE svg PUBLIC "-//W3C//DTD SVG 1.1//EN" "http://www.w3.org/Graphics/SVG/1.1/DTD/svg11.dtd">
<svg width="100%" height="100%" viewBox="0 0 512 512" version="1.1" xmlns="http://www.w3.org/2000/svg" xmlns:xlink="http://www.w3.org/1999/xlink" xml:space="preserve" xmlns:serif="http://www.serif.com/" style="fill-rule:evenodd;clip-rule:evenodd;stroke-linejoin:round;stroke-miterlimit:2;">
    <g transform="matrix(1.39495,0,0,1.39495,-271.028,125.56)">
        <path d="M481.461,-62.127L375.861,40.773L468.861,149.373L414.261,149.373L328.461,52.173L320.961,149.373L274.161,149.373L290.661,-62.127L337.461,-62.127L330.261,31.473L424.161,-62.127L481.461,-62.127Z" style="fill:rgb(230,145,56);fill-rule:nonzero;"/>
    </g>
    <g transform="matrix(1,0,0,1,-46.7853,8.81934)">
        <g transform="matrix(120,0,0,120,124.565,464.499)">
            <path d="M0.775,-0.705L0.439,-0.362L0.731,-0L0.518,-0L0.254,-0.317L0.229,-0L0.045,-0L0.1,-0.705L0.284,-0.705L0.26,-0.4L0.553,-0.705L0.775,-0.705Z" style="fill:rgb(230,145,56);fill-rule:nonzero;"/>
        </g>
        <g transform="matrix(120,0,0,120,207.725,464.499)">
            <path d="M0.299,0.008C0.244,0.008 0.197,-0.002 0.156,-0.022C0.115,-0.042 0.084,-0.07 0.062,-0.107C0.04,-0.144 0.029,-0.187 0.029,-0.236C0.029,-0.291 0.04,-0.339 0.063,-0.379C0.086,-0.42 0.117,-0.451 0.158,-0.472C0.199,-0.493 0.247,-0.504 0.302,-0.504C0.357,-0.504 0.404,-0.494 0.445,-0.474C0.486,-0.454 0.517,-0.426 0.539,-0.389C0.561,-0.352 0.572,-0.31 0.572,-0.261C0.572,-0.205 0.561,-0.157 0.538,-0.116C0.515,-0.076 0.483,-0.045 0.442,-0.024C0.401,-0.003 0.354,0.008 0.299,0.008ZM0.296,-0.123C0.331,-0.123 0.357,-0.136 0.372,-0.163C0.388,-0.19 0.396,-0.224 0.396,-0.265C0.396,-0.302 0.388,-0.329 0.373,-0.346C0.358,-0.364 0.336,-0.373 0.305,-0.373C0.27,-0.373 0.244,-0.36 0.228,-0.333C0.213,-0.307 0.205,-0.274 0.205,-0.233C0.205,-0.196 0.212,-0.168 0.227,-0.15C0.242,-0.132 0.265,-0.123 0.296,-0.123Z" style="fill:rgb(230,145,56);fill-rule:nonzero;"/>
        </g>
        <g transform="matrix(120,0,0,120,279.725,464.499)">
            <path d="M0.241,0.008C0.196,0.008 0.154,0.003 0.116,-0.006C0.078,-0.016 0.04,-0.031 0.003,-0.051L0.058,-0.172C0.085,-0.155 0.116,-0.141 0.149,-0.13C0.182,-0.12 0.214,-0.115 0.245,-0.115C0.266,-0.115 0.281,-0.118 0.29,-0.123C0.3,-0.128 0.305,-0.135 0.305,-0.143C0.305,-0.154 0.298,-0.162 0.285,-0.168C0.272,-0.174 0.25,-0.181 0.22,-0.19C0.185,-0.199 0.155,-0.209 0.131,-0.219C0.107,-0.229 0.086,-0.244 0.068,-0.263C0.051,-0.283 0.042,-0.309 0.042,-0.341C0.042,-0.373 0.051,-0.401 0.07,-0.426C0.089,-0.451 0.115,-0.47 0.149,-0.483C0.183,-0.497 0.222,-0.504 0.266,-0.504C0.304,-0.504 0.341,-0.499 0.378,-0.488C0.415,-0.478 0.447,-0.464 0.473,-0.445L0.419,-0.329C0.394,-0.346 0.368,-0.358 0.341,-0.367C0.314,-0.376 0.288,-0.381 0.262,-0.381C0.241,-0.381 0.225,-0.378 0.214,-0.373C0.203,-0.368 0.198,-0.362 0.198,-0.353C0.198,-0.342 0.205,-0.334 0.218,-0.327C0.232,-0.32 0.254,-0.313 0.284,-0.305C0.32,-0.295 0.35,-0.285 0.373,-0.275C0.397,-0.265 0.418,-0.25 0.435,-0.23C0.453,-0.211 0.462,-0.185 0.462,-0.153C0.462,-0.102 0.442,-0.063 0.402,-0.034C0.363,-0.006 0.309,0.008 0.241,0.008Z" style="fill:rgb(230,145,56);fill-rule:nonzero;"/>
        </g>
        <g transform="matrix(120,0,0,120,338.525,464.499)">
            <path d="M0.623,-0.491L0.412,-0.253L0.591,-0L0.378,-0L0.227,-0.211L0.211,-0L0.033,-0L0.087,-0.705L0.265,-0.705L0.233,-0.289L0.408,-0.491L0.623,-0.491Z" style="fill:rgb(230,145,56);fill-rule:nonzero;"/>
        </g>
        <g transform="matrix(120,0,0,120,407.645,464.499)">
            <path d="M0.299,0.008C0.244,0.008 0.197,-0.002 0.156,-0.022C0.115,-0.042 0.084,-0.07 0.062,-0.107C0.04,-0.144 0.029,-0.187 0.029,-0.236C0.029,-0.291 0.04,-0.339 0.063,-0.379C0.086,-0.42 0.117,-0.451 0.158,-0.472C0.199,-0.493 0.247,-0.504 0.302,-0.504C0.357,-0.504 0.404,-0.494 0.445,-0.474C0.486,-0.454 0.517,-0.426 0.539,-0.389C0.561,-0.352 0.572,-0.31 0.572,-0.261C0.572,-0.205 0.561,-0.157 0.538,-0.116C0.515,-0.076 0.483,-0.045 0.442,-0.024C0.401,-0.003 0.354,0.008 0.299,0.008ZM0.296,-0.123C0.331,-0.123 0.357,-0.136 0.372,-0.163C0.388,-0.19 0.396,-0.224 0.396,-0.265C0.396,-0.302 0.388,-0.329 0.373,-0.346C0.358,-0.364 0.336,-0.373 0.305,-0.373C0.27,-0.373 0.244,-0.36 0.228,-0.333C0.213,-0.307 0.205,-0.274 0.205,-0.233C0.205,-0.196 0.212,-0.168 0.227,-0.15C0.242,-0.132 0.265,-0.123 0.296,-0.123Z" style="fill:rgb(230,145,56);fill-rule:nonzero;"/>
        </g>
    </g>
</svg>
