<svg width="300" height="80" viewBox="0 0 300 80" fill="none" xmlns="http://www.w3.org/2000/svg">
<g clip-path="url(#clip0)">
<path d="M127.021 44.281L142.433 24.0496H132.972L118.691 42.4364V24.0496H110.479V65.7025H118.691V46.1851L133.567 65.7025H143.028L127.021 44.281ZM175.357 62.0132C178.392 58.9785 179.939 55.2298 179.939 50.8264C179.939 46.4231 178.392 42.7339 175.357 39.6992C172.323 36.6645 168.574 35.1174 164.171 35.1174C159.767 35.1174 156.019 36.6645 152.984 39.6992C149.949 42.7339 148.462 46.4231 148.462 50.8264C148.462 55.2298 149.949 58.9785 152.984 62.0132C156.019 65.0479 159.767 66.5355 164.171 66.5355C168.574 66.5355 172.323 65.0479 175.357 62.0132ZM158.399 56.7174C156.911 55.1702 156.138 53.2066 156.138 50.8264C156.138 48.4463 156.911 46.4826 158.399 44.9355C159.946 43.3884 161.85 42.6149 164.171 42.6149C166.491 42.6149 168.395 43.3884 169.943 44.9355C171.49 46.4826 172.263 48.4463 172.263 50.8264C172.263 53.2066 171.49 55.1702 169.943 56.7174C168.395 58.2645 166.491 59.038 164.171 59.038C161.85 59.038 159.946 58.2645 158.399 56.7174ZM202.921 55.9438L195.185 35.9504H186.795L198.993 64.7504C197.565 68.7967 195.304 70.5223 191.198 70.4628V77.6033C198.815 78.0198 203.813 74.2711 206.908 65.7025L217.737 35.9504H209.526L202.921 55.9438ZM255.097 53.9802C255.275 52.8496 255.394 51.838 255.394 50.8264C255.394 46.3636 253.966 42.6744 251.11 39.6397C248.313 36.605 244.684 35.1174 240.341 35.1174C235.759 35.1174 231.951 36.605 229.035 39.6397C226.119 42.6149 224.632 46.3636 224.632 50.8264C224.632 55.3488 226.119 59.0975 229.094 62.0727C232.07 65.0479 235.997 66.5355 240.936 66.5355C246.648 66.5355 250.991 64.3934 253.907 60.1686L247.719 56.5983C246.232 58.562 243.97 59.5736 241.055 59.5736C236.473 59.5736 233.676 57.7289 232.665 53.9802H255.097ZM232.546 48.0298C233.438 44.2215 236.235 42.0198 240.341 42.0198C243.851 42.0198 246.827 43.9835 247.719 48.0298H232.546ZM284.021 35.1174C279.855 35.1174 276.642 36.5455 274.381 39.4612V24.0496H266.705V65.7025H274.381V62.1917C276.642 65.1074 279.855 66.5355 284.021 66.5355C288.007 66.5355 291.459 65.0479 294.255 62.0132C297.112 58.9785 298.54 55.2298 298.54 50.8264C298.54 46.4231 297.112 42.7339 294.255 39.6992C291.459 36.6645 288.007 35.1174 284.021 35.1174ZM276.702 56.8959C275.155 55.2893 274.381 53.2661 274.381 50.8264C274.381 48.3868 275.155 46.3636 276.702 44.8165C278.249 43.2099 280.212 42.4364 282.593 42.4364C284.973 42.4364 286.936 43.2099 288.483 44.8165C290.09 46.3636 290.864 48.3868 290.864 50.8264C290.864 53.2661 290.09 55.2893 288.483 56.8959C286.936 58.443 284.973 59.2165 282.593 59.2165C280.212 59.2165 278.249 58.443 276.702 56.8959Z" fill="#121212"/>
<path d="M42.5075 19.2836L82.5873 42.361V23.1031L42.482 0L2.47934 23.1288V42.4123L42.5075 19.2836Z" fill="#121212"/>
<path d="M76.1764 65.5686L82.5873 61.7983V49.9765L42.482 26.8478L2.47934 49.9765V61.8496L8.89009 65.5686L42.482 46.1313L76.1764 65.5686Z" fill="#121212"/>
<path d="M42.5078 73.4665L52.6869 79.3388L69.4071 69.7217L42.4822 54.183L15.6599 69.7217L32.3779 79.3388L42.5078 73.4665Z" fill="#121212"/>
</g>
<defs>
<clipPath id="clip0">
<rect width="300" height="79.3388" fill="white"/>
</clipPath>
</defs>
</svg>
