<?xml version="1.0" encoding="UTF-8"?>
<svg width="411px" height="407px" viewBox="0 0 411 407" version="1.1" xmlns="http://www.w3.org/2000/svg" xmlns:xlink="http://www.w3.org/1999/xlink">
    <!-- Generator: Sketch 52.1 (67048) - http://www.bohemiancoding.com/sketch -->
    <title>Untitled 2</title>
    <desc>Created with Sketch.</desc>
    <g id="Page-1" stroke="none" stroke-width="1" fill="none" fill-rule="evenodd">
        <g id="Group" transform="translate(0.000000, 332.000000)">
            <g>
                <path d="M360.124865,0.0361395349 L372.295933,0.0361395349 C394.796688,0.0361395349 410.342913,15.5890465 410.342913,35.878814 L410.342913,36.0844651 C410.342913,56.375093 394.796688,72.1336512 372.295933,72.1336512 L344.373568,72.1336512 L344.373568,14.3525581 L360.124865,0.0361395349 Z M372.295933,57.8155116 C385.183048,57.8155116 393.876424,49.0611395 393.876424,36.2901163 L393.876424,36.0836047 C393.876424,23.3125814 385.183048,14.3516977 372.295933,14.3516977 L360.124865,14.3516977 L360.124865,57.8155116 L372.295933,57.8155116 Z" id="Shape" fill="#1064EE" fill-rule="nonzero"></path>
                <g fill="#0F265C">
                    <polygon id="Path" points="0.23497921 9.60106977 17.0415468 0.0361395349 17.0415468 34.1630465 36.7242599 12.4483488 56.8495884 12.4483488 34.2915842 35.9450698 57.6228836 72.1336512 38.3827859 72.1336512 22.901501 47.7472093 17.0406923 53.9838605 17.0406923 72.1336512 0.23412474 72.1336512 0.23412474 9.60106977"></polygon>
                    <path d="M61.266343,12.4474884 L78.0746195,12.4474884 L78.0746195,24.4742093 C81.5018981,16.2343953 87.0311726,10.889186 96.983183,11.334907 L96.983183,29.0389767 L96.0988067,29.0389767 C84.9308857,29.0389767 78.075474,35.8314884 78.075474,50.0842326 L78.075474,72.1319302 L61.2671975,72.1319302 L61.2671975,12.4474884 L61.266343,12.4474884 Z" id="Path"></path>
                    <path d="M96.7601663,54.9845814 L96.7601663,54.7625814 C96.7601663,41.7334186 106.601096,35.7213488 120.643453,35.7213488 C126.615343,35.7213488 130.926998,36.7229302 135.129281,38.171093 L135.129281,37.1695116 C135.129281,30.155 130.816771,26.2579535 122.412206,26.2579535 C115.99941,26.2579535 111.465593,27.4823953 106.047399,29.4872791 L101.845971,16.5699767 C108.369848,13.6745116 114.783499,11.7814884 124.845736,11.7814884 C134.023597,11.7814884 140.657701,14.2329535 144.859983,18.4638605 C149.282719,22.9176279 151.27278,29.4872791 151.27278,37.5042326 L151.27278,72.1345116 L135.0182,72.1345116 L135.0182,65.6758605 C130.926998,70.2406279 125.287497,73.2479535 117.105094,73.2479535 C105.938027,73.2462326 96.7601663,66.7875814 96.7601663,54.9845814 Z M135.349734,51.0875349 L135.349734,48.0802093 C132.475297,46.7447674 128.71563,45.854186 124.624428,45.854186 C117.437482,45.854186 113.013892,48.7496512 113.013892,54.094 L113.013892,54.316 C113.013892,58.8807674 116.772705,61.5542326 122.191753,61.5542326 C130.042622,61.555093 135.349734,57.2123256 135.349734,51.0875349 Z" id="Shape" fill-rule="nonzero"></path>
                    <polygon id="Path" points="159.657692 9.60106977 176.465969 0.0361395349 176.465969 34.1630465 196.147827 12.4483488 216.272301 12.4483488 193.715152 35.9450698 217.046451 72.1336512 197.806353 72.1336512 182.325069 47.7472093 176.465114 53.9838605 176.465114 72.1336512 159.656838 72.1336512 159.656838 9.60106977"></polygon>
                    <path d="M215.052973,42.6248605 L215.052973,42.4011395 C215.052973,25.3647907 227.106125,11.3357674 244.355308,11.3357674 C264.148247,11.3357674 273.215881,26.8129535 273.215881,43.7391628 C273.215881,45.0746047 273.105655,46.6346279 272.994574,48.1920698 L231.750168,48.1920698 C233.409549,55.8760233 238.716661,59.8832093 246.235141,59.8832093 C251.875497,59.8832093 255.966699,58.101186 260.609888,53.7601395 L270.230364,62.3329535 C264.701089,69.2373256 256.739994,73.4682326 246.014688,73.4682326 C228.2101,73.4682326 215.052973,60.8865116 215.052973,42.6248605 Z M256.849366,37.6143721 C255.854763,30.0422791 251.431173,24.9207907 244.354453,24.9207907 C237.38796,24.9207907 232.854998,29.9304186 231.528006,37.6143721 L256.849366,37.6143721 Z" id="Shape" fill-rule="nonzero"></path>
                    <path d="M279.609025,12.4474884 L296.415593,12.4474884 L296.415593,20.9110233 C300.286341,15.9005349 305.261919,11.334907 313.775857,11.334907 C326.492077,11.334907 333.901185,19.7967209 333.901185,33.4927442 L333.901185,72.1319302 L317.093763,72.1319302 L317.093763,38.837093 C317.093763,30.821 313.334096,26.7002326 306.920445,26.7002326 C300.506794,26.7002326 296.415593,30.821 296.415593,38.837093 L296.415593,72.1319302 L279.609025,72.1319302 L279.609025,12.4474884 Z" id="Path"></path>
                </g>
            </g>
        </g>
        <g id="Group" transform="translate(53.000000, 0.000000)" fill="#1064EE">
            <path d="M284.209121,109.487179 C252.582881,52.9723946 199.16931,39.4175913 159.746915,45.5578548 L157.808917,32.7973921 C201.436984,25.9856349 260.466333,40.8896721 295.286624,103.116838 L284.209121,109.487179 Z" id="Path"></path>
            <path d="M152,305 C68.1865116,305 0,236.08703 0,151.379553 C0,110.458509 15.8277979,72.2613015 44.5678822,43.8249436 C73.1318617,15.5655259 111.284795,0 152,0 C192.714175,0 230.867108,15.5655259 259.432118,43.8249436 C288.172202,72.2613015 304,110.458509 304,151.379553 C304,236.08703 235.813488,305 152,305 Z M152,12.9083017 C114.646232,12.9083017 79.6652438,27.1655115 53.5018497,53.0497685 C27.2365001,79.0381078 12.7722265,113.95776 12.7722265,151.379553 C12.7722265,228.967792 75.2296706,292.091698 152,292.091698 C228.770329,292.091698 291.227773,228.967792 291.227773,151.379553 C291.227773,113.95776 276.7635,79.0381078 250.496091,53.0497685 C224.333726,27.1655115 189.353768,12.9083017 152,12.9083017 Z" id="Shape" fill-rule="nonzero"></path>
            <path d="M162.590765,196.490385 C119.072531,196.490385 83.4857062,160.449072 83.2623151,116.145243 C83.0378992,71.6161096 115.158062,37.1207747 161.375435,32.2596154 L162.688115,45.0655828 C116.376466,49.9371248 95.8091095,84.2434953 95.9699921,116.079832 C96.1575177,153.318265 126.043769,183.613815 162.58974,183.613815 C180.877073,183.613815 197.93063,176.257704 210.611664,162.895226 L219.770701,171.823272 C204.674378,187.731576 184.367303,196.490385 162.590765,196.490385 Z" id="Path"></path>
            <path d="M132.294779,274.695513 L132.294779,261.793004 C157.980233,261.793004 180.333853,253.247511 195.234899,237.729545 C207.205735,225.262946 213.296681,209.16238 212.851002,191.165243 C211.908417,153.148514 182.649334,123.367252 146.239921,123.367252 C127.956837,123.367252 110.906286,130.738182 98.2274864,144.124457 L89.0700637,135.178426 C104.166799,119.242236 124.470295,110.464744 146.239921,110.464744 C189.596804,110.464744 224.435582,145.770302 225.552341,190.842732 C226.087156,212.39685 218.748309,231.724604 204.332898,246.736957 C187.018013,264.766345 161.435014,274.695513 132.294779,274.695513 Z" id="Path"></path>
            <path d="M127.766581,274.695513 C39.2412542,274.695513 12.7310124,213.087691 11.6178344,210.392323 L23.3144036,205.288462 C24.3384043,207.722174 49.3808092,264.839817 135.052464,261.518156 L135.541401,274.539991 C132.89786,274.645073 130.306595,274.695513 127.766581,274.695513 Z" id="Path"></path>
            <path d="M158.77707,103.621795 C145.964451,103.621795 135.541401,93.0974241 135.541401,80.1602564 C135.541401,67.2230887 145.964451,56.6987179 158.77707,56.6987179 C171.589689,56.6987179 182.012739,67.2230887 182.012739,80.1602564 C182.012739,93.0963746 171.589689,103.621795 158.77707,103.621795 Z M158.77707,69.7135486 C153.072872,69.7135486 148.431974,74.3985098 148.431974,80.1592069 C148.431974,85.9199041 153.072872,90.6048653 158.77707,90.6048653 C164.481268,90.6048653 169.122166,85.9199041 169.122166,80.1592069 C169.122166,74.3985098 164.480229,69.7135486 158.77707,69.7135486 Z" id="Shape" fill-rule="nonzero"></path>
            <path d="M55.1847134,125.128205 C42.3720948,125.128205 31.9490446,114.603834 31.9490446,101.666667 C31.9490446,88.7294989 42.3720948,78.2051282 55.1847134,78.2051282 C67.997332,78.2051282 78.4203822,88.7294989 78.4203822,101.666667 C78.4203822,114.602785 67.997332,125.128205 55.1847134,125.128205 Z M55.1847134,91.2199588 C49.4805152,91.2199588 44.8396178,95.90492 44.8396178,101.665617 C44.8396178,107.426314 49.4805152,112.111276 55.1847134,112.111276 C60.8889116,112.111276 65.5298089,107.426314 65.5298089,101.665617 C65.5298089,95.90492 60.8889116,91.2199588 55.1847134,91.2199588 Z" id="Shape" fill-rule="nonzero"></path>
            <path d="M225.095541,131.971154 C208.27925,131.971154 194.598726,118.157644 194.598726,101.176839 C194.598726,84.1981251 208.27925,70.3846154 225.095541,70.3846154 C241.911833,70.3846154 255.592357,84.1981251 255.592357,101.176839 C255.592357,118.157644 241.911833,131.971154 225.095541,131.971154 Z M225.095541,83.3571391 C215.362956,83.3571391 207.44636,91.3506906 207.44636,101.176839 C207.44636,111.005079 215.362956,118.99863 225.095541,118.99863 C234.828127,118.99863 242.744722,111.005079 242.744722,101.176839 C242.744722,91.3517366 234.828127,83.3571391 225.095541,83.3571391 Z" id="Shape" fill-rule="nonzero"></path>
            <path d="M55.6687898,200.400641 C38.8524984,200.400641 25.1719745,186.587131 25.1719745,169.608418 C25.1719745,152.627612 38.8524984,138.814103 55.6687898,138.814103 C72.4850812,138.814103 86.1656051,152.627612 86.1656051,169.608418 C86.1656051,186.587131 72.4840453,200.400641 55.6687898,200.400641 Z M55.6687898,151.786626 C45.9362045,151.786626 38.0196087,159.780178 38.0196087,169.608418 C38.0196087,179.43352 45.9362045,187.428117 55.6687898,187.428117 C65.4013751,187.428117 73.3179709,179.434566 73.3179709,169.608418 C73.3179709,159.780178 65.4003392,151.786626 55.6687898,151.786626 Z" id="Shape" fill-rule="nonzero"></path>
            <path d="M257.529176,192.580128 C243.114726,192.580128 231.388535,180.740647 231.388535,166.185897 C231.388535,151.631148 243.114726,139.791667 257.529176,139.791667 C271.942598,139.791667 283.66879,151.631148 283.66879,166.185897 C283.66879,180.740647 271.942598,192.580128 257.529176,192.580128 Z M257.529176,152.660398 C250.142631,152.660398 244.1331,158.726952 244.1331,166.186935 C244.1331,173.646918 250.143659,179.713472 257.529176,179.713472 C264.915721,179.713472 270.924225,173.646918 270.924225,166.186935 C270.924225,158.726952 264.915721,152.660398 257.529176,152.660398 Z" id="Shape" fill-rule="nonzero"></path>
            <path d="M105.528149,247.323718 C91.1142655,247.323718 79.388535,235.483538 79.388535,220.931044 C79.388535,206.376474 91.1142655,194.535256 105.528149,194.535256 C119.942032,194.535256 131.66879,206.375436 131.66879,220.931044 C131.66879,235.482501 119.942032,247.323718 105.528149,247.323718 Z M105.528149,207.403708 C98.1418941,207.403708 92.131571,213.47062 92.131571,220.931044 C92.131571,228.388354 98.1418941,234.455266 105.528149,234.455266 C112.914403,234.455266 118.924726,228.388354 118.924726,220.931044 C118.924726,213.47062 112.914403,207.403708 105.528149,207.403708 Z" id="Shape" fill-rule="nonzero"></path>
        </g>
    </g>
</svg>