<?xml version="1.0" encoding="UTF-8"?>
<svg width="1067px" height="206px" viewBox="0 0 1067 206" version="1.1" xmlns="http://www.w3.org/2000/svg" xmlns:xlink="http://www.w3.org/1999/xlink">
    <!-- Generator: Sketch 52.1 (67048) - http://www.bohemiancoding.com/sketch -->
    <title>Untitled 4</title>
    <desc>Created with Sketch.</desc>
    <g id="Page-1" stroke="none" stroke-width="1" fill="none" fill-rule="evenodd">
        <g id="Group" transform="translate(0.000000, -1.000000)">
            <g>
                <path d="M193.455706,73.9420782 C171.958147,36.0013825 135.651971,26.9007358 108.857647,31.0233552 L107.540559,22.4570845 C137.194324,17.8854267 177.317824,27.8902458 200.986853,69.6650384 L193.455706,73.9420782 Z" id="Path" fill="#1064EE"></path>
                <path d="M103.305176,205.282758 C46.4917941,205.282758 0.271941176,159.007422 0.271941176,102.123808 C0.271941176,74.6450976 11.0014412,48.9950498 30.4817647,29.9017752 C49.8443824,10.9243159 75.7051765,0.472490315 103.305176,0.472490315 C130.903147,0.472490315 156.765971,10.9243159 176.128588,29.9017752 C195.608912,48.9950498 206.338412,74.6450976 206.338412,102.123808 C206.338412,159.007422 160.118559,205.282758 103.305176,205.282758 Z M103.305176,9.14238526 C77.9862353,9.14238526 54.2725588,18.7164525 36.5395588,36.0968794 C18.7355294,53.5484209 8.93144118,76.9979774 8.93144118,102.12584 C8.93144118,154.226484 51.2690294,196.614895 103.307206,196.614895 C155.345382,196.614895 197.682971,154.226484 197.682971,102.12584 C197.682971,76.9979774 187.878882,53.5484209 170.072824,36.0968794 C152.337794,18.7164525 128.626147,9.14238526 103.305176,9.14238526 Z" id="Shape" fill="#1064EE" fill-rule="nonzero"></path>
                <path d="M110.458853,132.755947 C80.8132059,132.755947 56.5698529,108.493652 56.4176471,78.6701882 C56.2654412,48.6943363 78.1465588,25.4743786 109.630853,22.2010717 L110.525824,30.8222023 C78.9765882,34.1016048 64.9655294,57.1955879 65.0751176,78.6254876 C65.2029706,103.692395 85.5620294,124.088084 110.458853,124.088084 C122.917412,124.088084 134.533765,119.136471 143.172971,110.14148 L149.413412,116.151686 C139.126324,126.857493 125.293853,132.755947 110.458853,132.755947 Z" id="Path" fill="#1064EE"></path>
                <path d="M89.4666176,184.645279 L89.4666176,175.977416 C106.968265,175.977416 122.196971,170.235413 132.350118,159.810002 C140.506324,151.434725 144.656471,140.619199 144.354088,128.527672 C143.710765,102.987344 123.775853,82.9797376 98.9683235,82.9797376 C86.5117941,82.9797376 74.8934118,87.9313509 66.2542059,96.9243097 L60.0137647,90.9141036 C70.2988235,80.2082971 84.1333235,74.3118745 98.9662941,74.3118745 C128.508441,74.3118745 152.244441,98.0296349 153.005471,128.310264 C153.370765,142.789212 148.370294,155.776784 138.547941,165.860845 C126.753,177.976754 109.320353,184.645279 89.4666176,184.645279 Z" id="Path" fill="#1064EE"></path>
                <path d="M87.3458824,184.746871 C27.0561176,184.746871 9.00247059,143.770595 8.24347059,141.978505 L16.2089118,138.583287 C16.9070294,140.20267 33.9601765,178.19213 92.3077941,175.983511 L92.6406176,184.645279 C90.8425588,184.71233 89.0769706,184.746871 87.3458824,184.746871 Z" id="Path" fill="#0071CE"></path>
                <path d="M108.198088,69.8621276 C99.5933824,69.8621276 92.5919118,62.8542843 92.5919118,54.2392492 C92.5919118,45.6242141 99.5933824,38.6143389 108.198088,38.6143389 C116.802794,38.6143389 123.804265,45.6242141 123.804265,54.2392492 C123.804265,62.8542843 116.802794,69.8621276 108.198088,69.8621276 Z M108.198088,47.2801702 C104.366559,47.2801702 101.249382,50.4010885 101.249382,54.2372173 C101.249382,58.0733462 104.366559,61.1922327 108.198088,61.1922327 C112.029618,61.1922327 115.146794,58.0713143 115.146794,54.2372173 C115.146794,50.4010885 112.029618,47.2801702 108.198088,47.2801702 Z" id="Shape" fill="#1064EE" fill-rule="nonzero"></path>
                <path d="M37.6131176,84.5706745 C29.0084118,84.5706745 22.0069412,77.5628311 22.0069412,68.9477961 C22.0069412,60.332761 29.0063824,53.3228858 37.6131176,53.3228858 C46.2198529,53.3228858 53.2192941,60.332761 53.2192941,68.9477961 C53.2192941,77.5628311 46.2178235,84.5706745 37.6131176,84.5706745 Z M37.6131176,61.9907489 C33.7815882,61.9907489 30.6644118,65.1116673 30.6644118,68.9477961 C30.6644118,72.7839249 33.7815882,75.9048433 37.6131176,75.9048433 C41.4446471,75.9048433 44.5618235,72.7839249 44.5618235,68.9477961 C44.5618235,65.1116673 41.4446471,61.9907489 37.6131176,61.9907489 Z" id="Shape" fill="#1064EE" fill-rule="nonzero"></path>
                <path d="M152.709176,89.2723705 C141.376941,89.2723705 132.159353,80.0437174 132.159353,68.6958469 C132.159353,57.3520402 141.378971,48.1213552 152.709176,48.1213552 C164.041412,48.1213552 173.259,57.3520402 173.259,68.6958469 C173.261029,80.0437174 164.041412,89.2723705 152.709176,89.2723705 Z M152.709176,56.7892183 C146.150118,56.7892183 140.816824,62.1309464 140.816824,68.6958469 C140.816824,75.2627793 146.152147,80.6045074 152.709176,80.6045074 C159.268235,80.6045074 164.601529,75.2627793 164.601529,68.6958469 C164.603559,62.1309464 159.268235,56.7892183 152.709176,56.7892183 Z" id="Shape" fill="#1064EE" fill-rule="nonzero"></path>
                <path d="M37.8627353,135.159623 C26.5305,135.159623 17.3129118,125.93097 17.3129118,114.585132 C17.3129118,103.239293 26.5325294,94.008608 37.8627353,94.008608 C49.1929412,94.008608 58.4125588,103.237261 58.4125588,114.585132 C58.4125588,125.928938 49.1929412,135.159623 37.8627353,135.159623 Z M37.8627353,102.676471 C31.3036765,102.676471 25.9703824,108.018199 25.9703824,114.585132 C25.9703824,121.150032 31.3057059,126.49176 37.8627353,126.49176 C44.4217941,126.49176 49.7550882,121.150032 49.7550882,114.585132 C49.7550882,108.018199 44.4197647,102.676471 37.8627353,102.676471 Z" id="Shape" fill="#1064EE" fill-rule="nonzero"></path>
                <path d="M175.172735,129.958093 C165.380824,129.958093 157.415382,121.98309 157.415382,112.179424 C157.415382,102.375758 165.380824,94.4007546 175.172735,94.4007546 C184.964647,94.4007546 192.930088,102.375758 192.930088,112.179424 C192.930088,121.98309 184.962618,129.958093 175.172735,129.958093 Z M175.172735,103.066586 C170.154,103.066586 166.072853,107.152632 166.072853,112.177392 C166.072853,117.202152 170.156029,121.288198 175.172735,121.288198 C180.189441,121.288198 184.272618,117.202152 184.272618,112.177392 C184.272618,107.152632 180.189441,103.066586 175.172735,103.066586 Z" id="Shape" fill="#1064EE" fill-rule="nonzero"></path>
                <path d="M71.7742059,166.415539 C61.9822941,166.415539 54.0168529,158.440536 54.0168529,148.63687 C54.0168529,138.833204 61.9822941,130.858201 71.7742059,130.858201 C81.5661176,130.858201 89.5315588,138.833204 89.5315588,148.63687 C89.5335882,158.438505 81.5661176,166.415539 71.7742059,166.415539 Z M71.7742059,139.526064 C66.7554706,139.526064 62.6743235,143.612111 62.6743235,148.63687 C62.6743235,153.659598 66.7575,157.745644 71.7742059,157.745644 C76.7909118,157.745644 80.8740882,153.659598 80.8740882,148.63687 C80.8761176,143.612111 76.7929412,139.526064 71.7742059,139.526064 Z" id="Shape" fill="#1064EE" fill-rule="nonzero"></path>
            </g>
            <g transform="translate(277.000000, 32.000000)">
                <path d="M692.770801,0.597513021 L716.172765,0.597513021 C759.434961,0.597513021 789.326357,30.3682887 789.326357,69.2051631 L789.326357,69.5980956 C789.326357,108.439063 759.434961,138.600725 716.172765,138.600725 L662.485426,138.600725 L662.485426,27.9984147 L692.770801,0.597513021 Z M716.172765,111.197776 C740.950594,111.197776 757.665116,94.440843 757.665116,69.9951211 L757.665116,69.6001421 C757.665116,45.1544202 740.950594,28.0004612 716.172765,28.0004612 L692.770801,28.0004612 L692.770801,111.197776 L716.172765,111.197776 Z" id="Shape" fill="#1064EE" fill-rule="nonzero"></path>
                <g fill="#0F265C">
                    <polygon id="Path" points="0.806330749 18.9057113 33.120801 0.597513021 33.120801 65.920493 70.9652713 24.355603 109.660982 24.355603 66.288553 69.3320475 111.14708 138.602771 74.1538501 138.602771 44.3890181 91.9236192 33.120801 103.86099 33.120801 138.602771 0.806330749 138.602771 0.806330749 18.9057113"></polygon>
                    <path d="M118.152972,24.355603 L150.469483,24.355603 L150.469483,47.3769446 C157.058941,31.6043889 167.690258,21.3717719 186.823773,22.2251722 L186.823773,56.1155995 L185.123333,56.1155995 C163.650439,56.1155995 150.469483,69.1171626 150.469483,96.3993659 L150.469483,138.600725 L118.152972,138.600725 L118.152972,24.355603 Z" id="Path"></path>
                    <path d="M186.397132,105.776536 L186.397132,105.350859 C186.397132,80.4098786 205.318346,68.9022776 232.317158,68.9022776 C243.799716,68.9022776 252.089612,70.81987 260.169251,73.5908627 L260.169251,71.6732703 C260.169251,58.2460303 251.877313,50.7864526 235.718036,50.7864526 C223.38832,50.7864526 214.669742,53.1297219 204.252765,56.9689997 L196.175168,32.2429042 C208.719225,26.7009188 221.050982,23.0765259 240.396796,23.0765259 C258.042171,23.0765259 270.798527,27.7671575 278.878165,35.8672971 C287.382403,44.3931135 291.207881,56.9689997 291.207881,72.3138321 L291.207881,138.602771 L259.95491,138.602771 L259.95491,126.239723 C252.087571,134.978378 241.245995,140.735249 225.513359,140.735249 C204.042506,140.733202 186.397132,128.370154 186.397132,105.776536 Z M260.59385,98.3169583 L260.59385,92.5621345 C255.067933,90.0039803 247.837494,88.3012728 239.972196,88.3012728 C226.154341,88.3012728 217.650103,93.8432582 217.650103,104.073829 L217.650103,104.499505 C217.650103,113.23816 224.87646,118.354469 235.295478,118.354469 C250.389173,118.354469 260.59385,110.041491 260.59385,98.3169583 Z" id="Shape" fill-rule="nonzero"></path>
                    <polygon id="Path" points="307.330413 18.9057113 339.646925 0.597513021 339.646925 65.920493 377.489354 24.355603 416.183023 24.355603 372.812636 69.3320475 417.671163 138.602771 380.677933 138.602771 350.913101 91.9236192 339.646925 103.86099 339.646925 138.602771 307.330413 138.602771 307.330413 18.9057113"></polygon>
                    <path d="M413.839561,82.1187257 L413.839561,81.6910023 C413.839561,49.0796521 437.012894,22.2251722 470.178605,22.2251722 C508.235375,22.2251722 525.66845,51.8506448 525.66845,84.251203 C525.66845,86.8073107 525.45615,89.7931884 525.24385,92.7749729 L445.941731,92.7749729 C449.13031,107.483337 459.337028,115.155753 473.791783,115.155753 C484.635401,115.155753 492.502739,111.744198 501.431576,103.435313 L519.928191,119.844338 C509.296873,133.060786 493.990879,141.158879 473.369225,141.158879 C439.137933,141.158879 413.839561,117.075392 413.839561,82.1187257 Z M494.203178,72.5287171 C492.290439,58.0331919 483.786202,48.2303449 470.178605,48.2303449 C456.783307,48.2303449 448.068811,57.818307 445.517132,72.5287171 L494.203178,72.5287171 Z" id="Shape" fill-rule="nonzero"></path>
                    <path d="M537.961421,24.355603 L570.275891,24.355603 L570.275891,40.5579287 C577.71863,30.9658736 587.284367,22.2272187 603.655943,22.2272187 C628.105116,22.2272187 642.351654,38.4254513 642.351654,64.6414159 L642.351654,138.602771 L610.035142,138.602771 L610.035142,74.8719863 C610.035142,59.527154 602.806744,51.6398528 590.474987,51.6398528 C578.14323,51.6398528 570.277933,59.527154 570.277933,74.8719863 L570.277933,138.602771 L537.963463,138.602771 L537.963463,24.355603 L537.961421,24.355603 Z" id="Path"></path>
                </g>
            </g>
        </g>
    </g>
</svg>