<svg id="Layer_1" data-name="Layer 1" xmlns="http://www.w3.org/2000/svg" viewBox="0 0 228.77 268.6"><defs><style>.cls-1{fill:#231f20;}</style></defs><path class="cls-1" d="M53.38,201.81v-25.9H57v10.93l9-10.93h4.62L60.46,188.24l10.17,13.57h-4.5l-8-10.7L57,192.51v9.3Z"/><path class="cls-1" d="M87.66,201.81l-5-11.17H77.9v11.17H74.33v-25.9l13.16.06c2.37.5,3.7,1.85,4,4l.12.94h-.06v4.67h.06l-.12.94c-.27,2.18-1.6,3.52-4,4l-.88.06,5,11.17Zm-1.17-14.74L87,187a1.44,1.44,0,0,0,.82-.82l.11-.53v-4.67l-.11-.53a1.44,1.44,0,0,0-.82-.82l-.53-.06v-.06H77.9v7.6Z"/><path class="cls-1" d="M112.53,201.81h-3.62v-6.44H98.85v6.44H95.28v-7.66l6.9-18.3h3.51l6.84,18.3Zm-4.68-10-4-10.58L100,191.81Z"/><path class="cls-1" d="M123.08,201.81V179.47h-6.84v-3.56h17.24v3.56h-6.84v22.34Z"/><path class="cls-1" d="M137.19,201.81v-25.9h17.24v3.56H140.75v7.6h10.06v3.57H140.75v7.6h13.68v3.57Z"/><path class="cls-1" d="M163.22,201.81l-1-.12a4.32,4.32,0,0,1-2.6-1.35,5.12,5.12,0,0,1-1.43-2.63l-.06-1,.06-16.78a5.16,5.16,0,0,1,1.43-2.63,4.25,4.25,0,0,1,2.6-1.34l1-.12v.06h7.08v-.06l1,.12a4.22,4.22,0,0,1,2.6,1.34,5.25,5.25,0,0,1,1.44,2.63l0,1,0,16.77a5.21,5.21,0,0,1-1.44,2.63,4.29,4.29,0,0,1-2.6,1.35l-1,.12v-.06h-7.08Zm7.08-3.63.58-.12a1.4,1.4,0,0,0,.82-.76l.06-.58h.06V180.94h-.06l-.06-.53a1.41,1.41,0,0,0-.82-.82l-.58-.12h-7.08l-.58.12a1.72,1.72,0,0,0-.82.82l-.06.53h-.06v15.78h.06l.06.58a1.41,1.41,0,0,0,.82.76l.58.12Z"/><polygon class="cls-1" points="141.16 138.06 152.16 138.06 165.25 127.51 130.1 100.24 130.1 72.24 119.1 83.06 119.1 100.24 154.25 127.51 141.16 138.06"/><polygon class="cls-1" points="96.98 146.94 98.27 148.36 102.45 144.57 101.16 143.15 69.37 108.05 67.92 106.45 63.73 110.24 65.19 111.84 96.98 146.94"/><path class="cls-1" d="M53.38,47.13v122h122v-122Zm117,117.81H112.94l3.23-26.89h14.35l13.09-10.54-35.15-27.27v-28L73.24,106.86l28.26,31.19h3.67l-3.23,26.89H91.29l2-16.61L64,116l-5.6,5.5V51.28h112Z"/><path class="cls-1" d="M53.38,221.46V207.57l7.06,0a2.75,2.75,0,0,1,1.41.77,2.27,2.27,0,0,1,.72,1.39l.06.54h0v2.47h0l-.06.51a2.27,2.27,0,0,1-.72,1.39,2.75,2.75,0,0,1-1.41.77l-.47,0v0H55.29v6Zm6.53-7.9.28-.06a.61.61,0,0,0,.44-.44l.06-.29V210.3l-.06-.32a.79.79,0,0,0-.44-.44l-.28,0v0H55.29v4.08Z"/><path class="cls-1" d="M64.33,221.46V207.57h1.91v12h7.34v1.91Z"/><path class="cls-1" d="M84.49,221.46H82.55V218h-5.4v3.45H75.24v-4.11l3.7-9.81h1.88l3.67,9.81ZM82,216.1l-2.13-5.68-2.1,5.68Z"/><path class="cls-1" d="M90.42,221.46v-12H86.75v-1.91H96v1.91H92.33v12Z"/><path class="cls-1" d="M97.92,221.46V207.57h9.25v1.91H99.83v4.08h5.39v1.91H99.83v6Z"/><path class="cls-1" d="M111.4,221.46l-.53-.06a2.3,2.3,0,0,1-1.4-.72,2.8,2.8,0,0,1-.76-1.41l0-.54,0-9a2.8,2.8,0,0,1,.76-1.41,2.3,2.3,0,0,1,1.4-.72l.53-.06v0h3.8v0l.53.06a2.3,2.3,0,0,1,1.4.72,2.9,2.9,0,0,1,.77,1.41l0,.54,0,9a2.9,2.9,0,0,1-.77,1.41,2.3,2.3,0,0,1-1.4.72l-.53.06v0h-3.8Zm3.8-1.94.31-.06a.77.77,0,0,0,.44-.41l0-.32h0v-8.46h0l0-.29a.76.76,0,0,0-.44-.44l-.31-.06h-3.8l-.31.06a.9.9,0,0,0-.44.44l0,.29h0v8.46h0l0,.32a.77.77,0,0,0,.44.41l.31.06Z"/><path class="cls-1" d="M127.4,221.46l-2.67-6h-2.57v6h-1.91V207.57l7,0a2.41,2.41,0,0,1,2.14,2.16l.06.51h0v2.5h0l-.06.51a2.41,2.41,0,0,1-2.14,2.16l-.47,0,2.67,6Zm-.63-7.9.28-.06a.76.76,0,0,0,.44-.44l.07-.29v-2.5l-.07-.29a.76.76,0,0,0-.44-.44l-.28,0v0h-4.61v4.08Z"/><path class="cls-1" d="M139.19,221.46v-8l-2.7,7.88-2.69-7.88v8h-1.92V207.57h1.92l2.69,7.84,2.7-7.84h1.95v13.89Z"/><path class="cls-1" d="M146.31,221.46l-.53-.06a2.27,2.27,0,0,1-1.4-.72,2.82,2.82,0,0,1-.77-1.41l0-.54,0-9a2.82,2.82,0,0,1,.77-1.41,2.27,2.27,0,0,1,1.4-.72l.53-.06v0h3.8v0l.53.06a2.25,2.25,0,0,1,1.39.72,2.75,2.75,0,0,1,.77,1.41l0,.54,0,9a2.75,2.75,0,0,1-.77,1.41,2.25,2.25,0,0,1-1.39.72l-.53.06v0h-3.8Zm3.8-1.94.31-.06a.81.81,0,0,0,.44-.41l0-.32h0v-8.46h0l0-.29a.79.79,0,0,0-.44-.44l-.31-.06h-3.8l-.31.06a.9.9,0,0,0-.44.44l0,.29h0v8.46h0l0,.32a.77.77,0,0,0,.44.41l.31.06Z"/><path class="cls-1" d="M155.15,221.46V207.57l7.06,0a2.75,2.75,0,0,1,1.41.77,2.27,2.27,0,0,1,.72,1.39l.07.54h0v2.47h0l-.07.51a2.27,2.27,0,0,1-.72,1.39,2.75,2.75,0,0,1-1.41.77l-.47,0v0h-4.67v6Zm6.53-7.9.28-.06a.59.59,0,0,0,.44-.44l.06-.29V210.3l-.06-.32a.76.76,0,0,0-.44-.44l-.28,0v0h-4.61v4.08Z"/><path class="cls-1" d="M168.86,221.46l-.53-.06a2.39,2.39,0,0,1-2.17-2.13l0-.54v-.56H168v.56h0l0,.32a.77.77,0,0,0,.44.41l.31.06h3.8l.31-.06a.8.8,0,0,0,.44-.41l0-.32h0v-2.47h0l0-.29a1,1,0,0,0-.44-.44l-.31-.06v0l-4.33,0a2.76,2.76,0,0,1-2.17-2.16l0-.51v-2.47l0-.54a2.82,2.82,0,0,1,.77-1.41,2.27,2.27,0,0,1,1.4-.72l.53-.06v0h3.8v0l.53.06a2.25,2.25,0,0,1,1.39.72,2.75,2.75,0,0,1,.77,1.41l0,.54v.47h-1.91v-.47h0l0-.29a.79.79,0,0,0-.44-.44l-.31-.06h-3.8l-.31.06a.76.76,0,0,0-.44.44l0,.29h0v2.47h0l0,.29a.72.72,0,0,0,.44.43l.31.07h3.86l.47.06a2.25,2.25,0,0,1,1.39.72,2.75,2.75,0,0,1,.77,1.41l0,.54v2.47l0,.54a2.41,2.41,0,0,1-2.16,2.13l-.53.06Z"/></svg>