<svg width="482" height="104" viewBox="0 0 482 104" fill="none" xmlns="http://www.w3.org/2000/svg">
<rect x="1" y="1" width="480" height="102" fill="#2C0548"/>
<path d="M151.663 63C151.663 64.32 152.743 65.4 154.062 65.4C154.703 65.4 155.303 65.16 155.743 64.72L179.783 40.68C180.183 40.24 180.463 39.64 180.463 39C180.463 37.68 179.383 36.6 178.063 36.6C177.383 36.6 176.783 36.88 176.343 37.32L152.343 61.32C151.903 61.76 151.663 62.36 151.663 63ZM151.663 49C151.663 50.32 152.743 51.4 154.062 51.4C155.383 51.4 156.463 50.32 156.463 49V39C156.463 37.68 155.383 36.6 154.062 36.6C152.743 36.6 151.663 37.68 151.663 39V49ZM170.863 58.2C170.863 58.88 171.103 59.48 171.543 59.92L176.383 64.72C176.823 65.16 177.423 65.4 178.063 65.4C179.383 65.4 180.463 64.32 180.463 63C180.463 62.36 180.183 61.76 179.783 61.32L174.943 56.52C174.503 56.08 173.903 55.8 173.263 55.8C171.943 55.8 170.863 56.88 170.863 58.2ZM218.666 46C218.666 40.8 214.466 36.6 209.266 36.6H207.266C205.946 36.6 204.866 37.68 204.866 39C204.866 40.32 205.946 41.4 207.266 41.4H209.466C211.866 41.52 213.866 43.56 213.866 46C213.866 48.48 211.866 50.52 209.426 50.6H207.266C205.946 50.6 204.866 51.68 204.866 53C204.866 53.68 205.106 54.28 205.546 54.72L215.546 64.72C215.986 65.16 216.586 65.4 217.266 65.4C218.586 65.4 219.666 64.32 219.666 63C219.666 62.36 219.386 61.76 218.946 61.32L212.466 54.84C216.066 53.52 218.666 50.08 218.666 46ZM194.866 63C194.866 64.32 195.946 65.4 197.266 65.4C198.586 65.4 199.666 64.32 199.666 63V39C199.666 37.68 198.586 36.6 197.266 36.6C195.946 36.6 194.866 37.68 194.866 39V63ZM246.364 39C246.364 39.56 246.564 40.04 246.804 40.48L260.324 63.92C260.804 64.76 261.564 65.4 262.564 65.4C263.884 65.4 264.964 64.32 264.964 63C264.964 62.6 264.884 62.2 264.684 61.84L250.804 37.76C250.404 37.04 249.644 36.6 248.764 36.6C247.444 36.6 246.364 37.68 246.364 39ZM232.764 61.84C232.564 62.2 232.484 62.6 232.484 63C232.484 64.32 233.564 65.4 234.884 65.4C235.884 65.4 236.644 64.76 237.124 63.92L239.684 59.4H247.524C248.844 59.4 249.924 58.32 249.924 57C249.924 55.68 248.844 54.6 247.524 54.6H242.444L244.884 50.44C245.124 50 245.364 49.52 245.364 48.96C245.364 47.64 244.284 46.56 242.964 46.56C242.084 46.56 241.284 47 240.884 47.72L232.764 61.84ZM299.783 41.4C301.103 41.4 302.183 40.32 302.183 39C302.183 37.68 301.103 36.6 299.783 36.6H275.783C274.463 36.6 273.383 37.68 273.383 39C273.383 40.32 274.463 41.4 275.783 41.4H299.783ZM285.383 63C285.383 64.32 286.463 65.4 287.783 65.4C289.103 65.4 290.183 64.32 290.183 63V49C290.183 47.68 289.103 46.6 287.783 46.6C286.463 46.6 285.383 47.68 285.383 49V63ZM315.764 63C315.764 64.32 316.844 65.4 318.164 65.4C319.484 65.4 320.564 64.32 320.564 63V39C320.564 37.68 319.484 36.6 318.164 36.6C316.844 36.6 315.764 37.68 315.764 39V63ZM334.964 63C334.964 64.32 336.044 65.4 337.364 65.4C338.004 65.4 338.604 65.16 339.044 64.72L363.044 40.72C363.484 40.28 363.764 39.68 363.764 39C363.764 37.68 362.684 36.6 361.364 36.6C360.684 36.6 360.084 36.88 359.644 37.32L335.644 61.32C335.204 61.76 334.964 62.36 334.964 63ZM334.964 39C334.964 39.68 335.204 40.28 335.644 40.72L340.444 45.52C340.884 45.96 341.484 46.2 342.164 46.2C343.484 46.2 344.564 45.12 344.564 43.8C344.564 43.16 344.284 42.56 343.884 42.12L339.044 37.32C338.604 36.88 338.004 36.6 337.364 36.6C336.044 36.6 334.964 37.68 334.964 39ZM354.164 58.2C354.164 58.84 354.404 59.44 354.844 59.88L359.684 64.72C360.124 65.16 360.724 65.4 361.364 65.4C362.684 65.4 363.764 64.32 363.764 63C363.764 62.36 363.484 61.76 363.044 61.32L358.244 56.48C357.804 56.08 357.204 55.8 356.564 55.8C355.244 55.8 354.164 56.88 354.164 58.2ZM378.147 63C378.147 64.32 379.227 65.4 380.547 65.4C381.867 65.4 382.947 64.32 382.947 63C382.947 61.68 381.867 60.6 380.547 60.6C379.227 60.6 378.147 61.68 378.147 63ZM398.147 63C398.147 64.32 399.227 65.4 400.547 65.4C401.867 65.4 402.947 64.32 402.947 63V39C402.947 37.68 401.867 36.6 400.547 36.6C399.227 36.6 398.147 37.68 398.147 39V63ZM432.776 62.92C433.336 64.16 434.736 64.68 435.976 64.16C441.016 61.92 444.536 56.88 444.536 51C444.536 45.2 441.056 40.2 436.096 37.92C434.776 37.32 433.376 37.84 432.816 39.08C432.296 40.28 432.776 41.64 434.016 42.24C437.376 43.76 439.736 47.12 439.736 51C439.736 54.92 437.376 58.28 434.016 59.76C432.776 60.32 432.256 61.72 432.776 62.92ZM415.736 51C415.736 56.88 419.216 61.92 424.256 64.16C425.496 64.68 426.896 64.16 427.456 62.92C427.976 61.72 427.456 60.32 426.216 59.76C422.896 58.28 420.536 54.92 420.536 51C420.536 47.12 422.896 43.76 426.216 42.24C427.416 41.64 427.936 40.28 427.416 39.08C426.856 37.84 425.456 37.32 424.096 37.92C419.136 40.2 415.736 45.2 415.736 51Z" fill="white"/>
<path d="M31.2471 73.5C31.2471 77.625 34.6221 81 38.7471 81C40.8471 81 42.7221 80.175 44.0721 78.825L61.2471 61.65L78.4221 78.825C79.7721 80.175 81.7221 81 83.7471 81C87.8721 81 91.2471 77.625 91.2471 73.5C91.2471 71.475 90.4221 69.525 89.0721 68.175L71.8971 51L89.0721 33.825C90.4221 32.475 91.2471 30.6 91.2471 28.5C91.2471 24.375 87.8721 21 83.7471 21C81.7221 21 79.7721 21.825 78.4221 23.175L46.2471 55.35V28.5C46.2471 24.375 42.8721 21 38.7471 21C34.6221 21 31.2471 24.375 31.2471 28.5V73.5ZM38.7471 36C40.4721 36 42.0471 35.475 43.2471 34.5V58.35L34.2471 67.35V34.5C35.5221 35.475 37.0971 36 38.7471 36ZM66.5721 45.675C65.4471 44.625 64.0221 43.875 62.3721 43.575L76.3221 29.625C76.8471 32.85 79.4721 35.475 82.6971 35.925L69.7971 48.9L66.5721 45.675ZM82.7721 66.075C79.4721 66.525 76.8471 69.15 76.3221 72.375L63.4221 59.475L69.7971 53.1L82.7721 66.075ZM59.1471 59.55L46.2471 72.45V59.7L53.8221 52.125C54.1221 53.775 54.8721 55.2 55.9221 56.325L59.1471 59.55ZM34.2471 73.5C34.2471 71.025 36.2721 69 38.7471 69C41.2221 69 43.2471 71.025 43.2471 73.5C43.2471 75.975 41.2221 78 38.7471 78C36.2721 78 34.2471 75.975 34.2471 73.5ZM79.2471 28.5C79.2471 26.025 81.2721 24 83.7471 24C86.2221 24 88.2471 26.025 88.2471 28.5C88.2471 30.975 86.2221 33 83.7471 33C81.2721 33 79.2471 30.975 79.2471 28.5ZM83.7471 78C81.2721 78 79.2471 75.975 79.2471 73.5C79.2471 71.025 81.2721 69 83.7471 69C86.2221 69 88.2471 71.025 88.2471 73.5C88.2471 75.975 86.2221 78 83.7471 78ZM61.2471 55.5C58.7721 55.5 56.7471 53.475 56.7471 51C56.7471 48.525 58.7721 46.5 61.2471 46.5C63.7221 46.5 65.7471 48.525 65.7471 51C65.7471 53.475 63.7221 55.5 61.2471 55.5ZM34.2471 28.5C34.2471 26.025 36.2721 24 38.7471 24C41.2221 24 43.2471 26.025 43.2471 28.5C43.2471 30.975 41.2221 33 38.7471 33C36.2721 33 34.2471 30.975 34.2471 28.5ZM43.2471 67.5C42.2721 66.825 41.1471 66.3 39.8721 66.075L43.2471 62.7V67.5Z" fill="white"/>
<line x1="122" y1="4.37114e-08" x2="122" y2="104" stroke="white" stroke-width="2"/>
<rect x="1" y="1" width="480" height="102" stroke="white" stroke-width="2"/>
</svg>
