<?xml version="1.0" encoding="UTF-8"?><svg id="Layer_1" xmlns="http://www.w3.org/2000/svg" xmlns:xlink="http://www.w3.org/1999/xlink" viewBox="0 0 618.83 223.5"><defs><style>.cls-1{fill:url(#linear-gradient);}.cls-2{fill:#bb62f4;}.cls-3{fill:#200036;}.cls-4{fill:#8a08ff;}.cls-5{fill:url(#linear-gradient-2);}</style><linearGradient id="linear-gradient" x1="82.51" y1="94.03" x2="183.45" y2="240.85" gradientUnits="userSpaceOnUse"><stop offset=".16" stop-color="#bb62f4"/><stop offset=".37" stop-color="#8a08ff"/></linearGradient><linearGradient id="linear-gradient-2" x1="59.97" y1="137.89" x2="105.31" y2="90.11" gradientUnits="userSpaceOnUse"><stop offset="0" stop-color="#bb62f4"/><stop offset=".57" stop-color="#8a08ff"/></linearGradient></defs><path class="cls-2" d="m27.39,197.13c-.91,0-1.83-.15-2.73-.45-3.47-1.17-5.81-4.43-5.81-8.09V22.26c0-3.67,2.34-6.92,5.81-8.09,3.47-1.17,7.31,0,9.53,2.92l63.25,83.17c2.32,3.06,2.32,7.29,0,10.34l-63.25,83.17c-1.65,2.17-4.18,3.37-6.8,3.37Zm8.54-149.53v115.65l43.98-57.82-43.98-57.82Z"/><path class="cls-4" d="m153.94,197.13c-1.62,0-3.25-.46-4.69-1.4L22.64,112.56c-2.4-1.58-3.85-4.26-3.85-7.14s1.45-5.56,3.85-7.14L149.26,15.12c3.48-2.28,8.1-1.73,10.93,1.31,2.84,3.04,3.07,7.69.55,11l-59.37,77.99,59.37,77.99c2.52,3.31,2.29,7.96-.55,11-1.67,1.79-3.95,2.71-6.25,2.71ZM42.89,105.42l74.03,48.63-33.08-43.45c-2.33-3.06-2.33-7.29,0-10.35l33.08-43.45-74.03,48.63Z"/><path class="cls-4" d="m153.94,197.13c-1.62,0-3.25-.46-4.69-1.4L22.64,112.56c-2.4-1.58-3.85-4.26-3.85-7.14s1.45-5.56,3.85-7.14L149.26,15.12c3.48-2.28,8.1-1.73,10.93,1.31,2.84,3.04,3.07,7.69.55,11l-59.37,77.99,59.37,77.99c2.52,3.31,2.29,7.96-.55,11-1.67,1.79-3.95,2.71-6.25,2.71ZM42.89,105.42l74.03,48.63-33.08-43.45c-2.33-3.06-2.33-7.29,0-10.35l33.08-43.45-74.03,48.63Z"/><path class="cls-1" d="m136.58,174.34c-2.58,0-5.12-1.16-6.81-3.37L31.4,41.62c-2.86-3.75-2.13-9.11,1.63-11.97,3.76-2.86,9.11-2.13,11.97,1.63l98.37,129.35c2.86,3.75,2.13,9.11-1.63,11.97-1.54,1.17-3.36,1.74-5.16,1.74Z"/><path class="cls-5" d="m42.51,177.11c-1.8,0-3.62-.57-5.17-1.75-3.75-2.86-4.48-8.22-1.62-11.97l94.6-124.27c2.86-3.75,8.22-4.48,11.97-1.62,3.75,2.86,4.48,8.22,1.62,11.97l-94.6,124.27c-1.68,2.21-4.23,3.37-6.8,3.37Z"/><g><path class="cls-3" d="m234.51,73h13.22l-32.25,31.86,34.23,35.02h-14.01l-28.31-29.99v29.99h-10.16v-66.88h10.16v27.32l27.13-27.32Z"/><path class="cls-3" d="m295.66,139.87h-10.16v-57.61h-18.05v-9.27h46.26v9.27h-18.05v57.61Z"/><path class="cls-3" d="m351.79,139.87h-10.16v-66.88h19.43c12.23,0,21.6,6.31,21.6,19.53,0,8.38-4.64,15.98-13.32,17.56l17.46,29.79h-11.64l-15.29-27.72h-8.09v27.72Zm7.5-36.99c8.19,0,13.22-1.97,13.22-10.75s-6.12-9.86-13.32-9.86h-7.4v20.62h7.5Z"/><path class="cls-3" d="m420.24,73v43.8c0,9.37,2.27,14.7,12.43,14.7s12.43-5.33,12.43-14.7v-43.8h10.16v44.49c0,14.5-7,23.28-22.59,23.28s-22.59-8.78-22.59-23.28v-44.49h10.16Z"/><path class="cls-3" d="m482.58,123.4v-2.07h10.16c.1,6.31,4.54,10.16,10.85,10.16,5.72,0,11.05-2.76,11.05-9.27,0-7.3-7.6-10.16-15.19-13.71-7.6-3.65-15.29-7.89-15.29-17.85,0-11.54,9.57-18.54,20.62-18.54,9.17,0,19.33,6.41,19.33,16.47v1.28h-10.16c.39-5.62-4.04-8.48-9.37-8.48s-10.26,2.07-10.26,8.38c0,4.83,3.85,7.4,7.69,9.17l5.92,2.76c9.07,4.34,16.87,9.07,16.87,20.42s-10.16,18.64-21.21,18.64c-10.06,0-21.01-6.31-21.01-17.36Z"/><path class="cls-3" d="m579.74,139.87h-10.16v-57.61h-18.05v-9.27h46.26v9.27h-18.05v57.61Z"/></g></svg>