<?xml version="1.0" encoding="utf-8"?>
<!-- Generator: Adobe Illustrator 24.0.2, SVG Export Plug-In . SVG Version: 6.00 Build 0)  -->
<svg version="1.1" id="Layer_1" xmlns="http://www.w3.org/2000/svg" xmlns:xlink="http://www.w3.org/1999/xlink" x="0px" y="0px"
	 viewBox="0 0 480 100" style="enable-background:new 0 0 480 100;" xml:space="preserve">
<style type="text/css">
	.st0{fill:#2376A8;}
	.st1{fill:#333333;}
</style>
<path class="st0" d="M79.43,84.28l-0.14-44.11c0-0.56-0.31-0.67-0.68-0.26L61.13,59.49l0,0L95.42,8.21
	c0.93-1.39,0.55-1.76-0.84-0.84L43.3,41.67l0,0l19.57-17.48c0.42-0.37,0.3-0.68-0.26-0.68l-44.11-0.14c-0.56,0-1.33,0.32-1.73,0.71
	l-6.44,6.44c-0.39,0.39-0.46,1.09-0.15,1.55l14.66,21.75l-8.62-0.03c-0.56,0-1.33,0.32-1.73,0.71l-3.22,3.22
	c-0.39,0.39-0.46,1.09-0.15,1.55l8.94,13.26c0.31,0.46,0.91,0.54,1.32,0.17l11.34-10.12l7.43,7.43L30.06,81.35
	c-0.37,0.42-0.3,1.01,0.17,1.32l13.26,8.94c0.46,0.31,1.16,0.24,1.55-0.15l3.22-3.22c0.39-0.39,0.71-1.17,0.71-1.73l-0.03-8.61
	L70.72,92.6c0.46,0.31,1.16,0.24,1.55-0.15l6.44-6.44C79.11,85.62,79.43,84.84,79.43,84.28z M70.5,32.3l-0.14-4.46l13.89-9.29
	l-9.29,13.89L70.5,32.3z"/>
<g>
	<path class="st0" d="M125.89,85.1c-0.93-1.49-2.02-3.1-3.28-4.83s-2.61-3.47-4.07-5.23s-2.97-3.44-4.56-5.05
		c-1.59-1.61-3.17-3.03-4.76-4.27V85.1h-10.3V39.36h10.3v17.19c2.65-2.78,5.34-5.69,8.07-8.72c2.73-3.04,5.25-5.86,7.57-8.47h12.22
		c-3.11,3.71-6.24,7.27-9.39,10.69c-3.15,3.42-6.46,6.86-9.94,10.33c3.66,3.05,7.19,6.67,10.59,10.86c3.4,4.19,6.67,8.81,9.81,13.86
		H125.89z"/>
	<path class="st0" d="M170.12,83.91c-1.67,0.49-3.83,0.94-6.47,1.35c-2.64,0.42-5.41,0.63-8.32,0.63c-2.95,0-5.4-0.4-7.36-1.19
		c-1.96-0.79-3.51-1.9-4.65-3.33c-1.14-1.43-1.96-3.13-2.44-5.12c-0.48-1.98-0.73-4.16-0.73-6.53V50.39h9.83v18.15
		c0,3.17,0.42,5.46,1.25,6.86c0.83,1.41,2.4,2.11,4.69,2.11c0.7,0,1.45-0.03,2.24-0.1s1.5-0.14,2.11-0.23v-26.8h9.83V83.91z"/>
	<path class="st0" d="M210.62,67.74c0,2.77-0.41,5.28-1.22,7.52c-0.81,2.24-1.99,4.16-3.53,5.74s-3.43,2.8-5.68,3.66
		c-2.24,0.86-4.8,1.29-7.66,1.29c-1.19,0-2.43-0.06-3.73-0.17c-1.3-0.11-2.57-0.25-3.83-0.43s-2.45-0.38-3.6-0.63
		c-1.14-0.24-2.16-0.5-3.04-0.76V35.47l9.83-1.58v17.29c1.1-0.48,2.24-0.86,3.43-1.12c1.19-0.26,2.46-0.4,3.83-0.4
		c2.46,0,4.64,0.43,6.53,1.29c1.89,0.86,3.48,2.08,4.75,3.66c1.28,1.58,2.24,3.49,2.9,5.71C210.29,62.54,210.62,65.02,210.62,67.74z
		 M200.58,67.48c0-6.34-2.33-9.5-7-9.5c-1.01,0-2.01,0.13-3,0.4c-0.99,0.26-1.79,0.59-2.41,0.99v17.89c0.48,0.09,1.1,0.17,1.85,0.23
		c0.75,0.07,1.56,0.1,2.44,0.1c2.68,0,4.71-0.92,6.07-2.77C199.9,72.96,200.58,70.52,200.58,67.48z"/>
	<path class="st0" d="M215.57,68.01c0-3.08,0.47-5.77,1.42-8.08c0.95-2.31,2.19-4.23,3.73-5.78c1.54-1.54,3.31-2.71,5.31-3.5
		c2-0.79,4.06-1.19,6.17-1.19c4.93,0,8.82,1.51,11.68,4.52c2.86,3.01,4.29,7.45,4.29,13.3c0,0.57-0.02,1.2-0.07,1.88
		c-0.04,0.68-0.09,1.29-0.13,1.81h-22.31c0.22,2.03,1.17,3.63,2.84,4.82c1.67,1.19,3.92,1.78,6.73,1.78c1.8,0,3.57-0.17,5.31-0.5
		c1.74-0.33,3.16-0.74,4.26-1.22l1.32,7.99c-0.53,0.26-1.23,0.53-2.11,0.79c-0.88,0.26-1.86,0.5-2.94,0.69
		c-1.08,0.2-2.23,0.36-3.46,0.5c-1.23,0.13-2.46,0.2-3.7,0.2c-3.13,0-5.84-0.46-8.15-1.39s-4.22-2.19-5.74-3.79
		c-1.52-1.61-2.64-3.51-3.37-5.71C215.93,72.94,215.57,70.56,215.57,68.01z M238.67,64.25c-0.04-0.83-0.19-1.65-0.43-2.44
		c-0.24-0.79-0.62-1.5-1.12-2.11s-1.14-1.12-1.91-1.52c-0.77-0.4-1.73-0.59-2.87-0.59c-1.1,0-2.05,0.19-2.84,0.56
		c-0.79,0.37-1.45,0.87-1.98,1.48c-0.53,0.62-0.94,1.33-1.22,2.14c-0.29,0.82-0.5,1.64-0.63,2.48H238.67z"/>
	<path class="st1" d="M276.57,86.03c-7.44,0-13.1-2.07-17-6.2c-3.89-4.14-5.84-10.01-5.84-17.62c0-3.78,0.59-7.16,1.78-10.13
		c1.19-2.97,2.82-5.48,4.88-7.52c2.07-2.05,4.53-3.6,7.39-4.65c2.86-1.06,5.96-1.58,9.31-1.58c1.94,0,3.7,0.14,5.28,0.43
		c1.58,0.29,2.97,0.62,4.16,0.99c1.19,0.37,2.18,0.76,2.97,1.15s1.36,0.7,1.72,0.92l-2.97,8.32c-1.41-0.75-3.05-1.39-4.92-1.91
		c-1.87-0.53-3.99-0.79-6.37-0.79c-1.58,0-3.13,0.26-4.65,0.79c-1.52,0.53-2.86,1.38-4.03,2.54c-1.17,1.17-2.1,2.67-2.8,4.52
		c-0.7,1.85-1.06,4.09-1.06,6.73c0,2.11,0.23,4.08,0.69,5.91c0.46,1.83,1.21,3.4,2.24,4.72c1.03,1.32,2.39,2.37,4.06,3.13
		c1.67,0.77,3.7,1.16,6.07,1.16c1.5,0,2.84-0.09,4.03-0.26c1.19-0.17,2.24-0.38,3.17-0.63c0.92-0.24,1.74-0.52,2.44-0.82
		c0.7-0.31,1.34-0.59,1.91-0.86l2.84,8.25c-1.45,0.88-3.5,1.67-6.14,2.38C283.11,85.67,280.05,86.03,276.57,86.03z"/>
	<path class="st1" d="M309.78,49.46c2.9,0,5.32,0.33,7.26,0.99s3.49,1.61,4.65,2.84c1.17,1.23,1.99,2.73,2.48,4.49
		c0.48,1.76,0.73,3.72,0.73,5.87v20.46c-1.41,0.31-3.37,0.67-5.87,1.09c-2.51,0.42-5.54,0.63-9.11,0.63c-2.24,0-4.28-0.2-6.1-0.59
		c-1.83-0.4-3.4-1.04-4.72-1.95c-1.32-0.9-2.33-2.08-3.04-3.53c-0.7-1.45-1.06-3.23-1.06-5.35c0-2.02,0.41-3.74,1.22-5.15
		c0.81-1.41,1.9-2.53,3.27-3.37c1.36-0.83,2.93-1.44,4.69-1.81c1.76-0.37,3.58-0.56,5.48-0.56c1.28,0,2.41,0.05,3.4,0.16
		c0.99,0.11,1.79,0.25,2.41,0.43v-0.92c0-1.67-0.51-3.01-1.52-4.03c-1.01-1.01-2.77-1.52-5.28-1.52c-1.67,0-3.32,0.12-4.95,0.36
		c-1.63,0.24-3.04,0.58-4.22,1.02l-1.25-7.92c0.57-0.18,1.29-0.36,2.15-0.56c0.86-0.2,1.79-0.37,2.8-0.53
		c1.01-0.15,2.08-0.29,3.2-0.4C307.5,49.52,308.63,49.46,309.78,49.46z M310.57,78.24c0.97,0,1.89-0.02,2.77-0.07
		c0.88-0.04,1.58-0.11,2.11-0.2v-7.46c-0.4-0.09-0.99-0.18-1.78-0.26c-0.79-0.09-1.52-0.13-2.18-0.13c-0.92,0-1.79,0.06-2.61,0.17
		c-0.81,0.11-1.53,0.32-2.15,0.63s-1.1,0.73-1.45,1.25c-0.35,0.53-0.53,1.19-0.53,1.98c0,1.54,0.52,2.61,1.55,3.2
		C307.35,77.94,308.77,78.24,310.57,78.24z"/>
	<path class="st1" d="M353.81,59.1c-0.88-0.22-1.91-0.45-3.1-0.69c-1.19-0.24-2.46-0.36-3.83-0.36c-0.62,0-1.35,0.06-2.21,0.17
		c-0.86,0.11-1.51,0.23-1.95,0.36V85.1h-9.83V52.23c1.76-0.62,3.84-1.2,6.24-1.75c2.4-0.55,5.07-0.82,8.02-0.82
		c0.53,0,1.17,0.03,1.91,0.1c0.75,0.07,1.5,0.15,2.24,0.26c0.75,0.11,1.5,0.24,2.24,0.4c0.75,0.15,1.39,0.34,1.91,0.56L353.81,59.1z
		"/>
	<path class="st1" d="M380.83,59.1c-0.88-0.22-1.91-0.45-3.1-0.69c-1.19-0.24-2.46-0.36-3.83-0.36c-0.62,0-1.35,0.06-2.21,0.17
		c-0.86,0.11-1.51,0.23-1.95,0.36V85.1h-9.83V52.23c1.76-0.62,3.84-1.2,6.24-1.75c2.4-0.55,5.07-0.82,8.02-0.82
		c0.53,0,1.17,0.03,1.91,0.1c0.75,0.07,1.5,0.15,2.24,0.26c0.75,0.11,1.5,0.24,2.24,0.4c0.75,0.15,1.39,0.34,1.91,0.56L380.83,59.1z
		"/>
	<path class="st1" d="M397.76,40.35c0,1.8-0.58,3.22-1.75,4.26c-1.17,1.03-2.54,1.55-4.13,1.55s-2.96-0.52-4.13-1.55
		c-1.17-1.03-1.75-2.45-1.75-4.26c0-1.8,0.58-3.22,1.75-4.26c1.17-1.03,2.54-1.55,4.13-1.55s2.96,0.52,4.13,1.55
		C397.17,37.13,397.76,38.55,397.76,40.35z M396.83,85.1H387V50.39h9.83V85.1z"/>
	<path class="st1" d="M403.23,68.01c0-3.08,0.47-5.77,1.42-8.08c0.95-2.31,2.19-4.23,3.73-5.78c1.54-1.54,3.31-2.71,5.31-3.5
		c2-0.79,4.06-1.19,6.17-1.19c4.93,0,8.82,1.51,11.68,4.52c2.86,3.01,4.29,7.45,4.29,13.3c0,0.57-0.02,1.2-0.07,1.88
		c-0.04,0.68-0.09,1.29-0.13,1.81h-22.31c0.22,2.03,1.17,3.63,2.84,4.82c1.67,1.19,3.92,1.78,6.73,1.78c1.8,0,3.57-0.17,5.31-0.5
		c1.74-0.33,3.16-0.74,4.26-1.22l1.32,7.99c-0.53,0.26-1.23,0.53-2.11,0.79c-0.88,0.26-1.86,0.5-2.94,0.69
		c-1.08,0.2-2.23,0.36-3.46,0.5c-1.23,0.13-2.46,0.2-3.7,0.2c-3.13,0-5.84-0.46-8.15-1.39s-4.22-2.19-5.74-3.79
		c-1.52-1.61-2.64-3.51-3.37-5.71C403.59,72.94,403.23,70.56,403.23,68.01z M426.33,64.25c-0.04-0.83-0.19-1.65-0.43-2.44
		c-0.24-0.79-0.62-1.5-1.12-2.11s-1.14-1.12-1.91-1.52c-0.77-0.4-1.73-0.59-2.87-0.59c-1.1,0-2.05,0.19-2.84,0.56
		c-0.79,0.37-1.45,0.87-1.98,1.48c-0.53,0.62-0.94,1.33-1.22,2.14c-0.29,0.82-0.5,1.64-0.63,2.48H426.33z"/>
	<path class="st1" d="M463.43,59.1c-0.88-0.22-1.91-0.45-3.1-0.69c-1.19-0.24-2.46-0.36-3.83-0.36c-0.62,0-1.35,0.06-2.21,0.17
		c-0.86,0.11-1.51,0.23-1.95,0.36V85.1h-9.83V52.23c1.76-0.62,3.84-1.2,6.24-1.75c2.4-0.55,5.07-0.82,8.02-0.82
		c0.53,0,1.17,0.03,1.91,0.1c0.75,0.07,1.5,0.15,2.24,0.26c0.75,0.11,1.5,0.24,2.24,0.4c0.75,0.15,1.39,0.34,1.91,0.56L463.43,59.1z
		"/>
</g>
</svg>
