<svg id="Layer_1" data-name="Layer 1" xmlns="http://www.w3.org/2000/svg" viewBox="0 0 809.83 440.35"><defs><style>.cls-1{fill:#0b4296;}.cls-2{fill:#6981a5;}.cls-3{fill:#00d1ff;opacity:0.3;}.cls-4{fill:#082d75;}.cls-5{fill:#5398ff;}.cls-6{fill:#fff;}</style></defs><title>Kubearmor_logo_updated</title><path class="cls-1" d="M31.28,416.22V314.44l19.92-4.36v62.37l32.72-32h22.54L71,375.22l37.66,41H83.19l-32-34.61v34.61Zm99.14-75.75v44q0,7.28,4.22,11.63t11.48,4.37a20.55,20.55,0,0,0,9-1.89,18.2,18.2,0,0,0,6.69-5.67V340.47h19.92v75.75H161.83v-6.11a33.56,33.56,0,0,1-9.74,5.67,34.91,34.91,0,0,1-11.64,1.89q-13.08,0-21.52-8.43-8.43-8.58-8.43-21.81v-47ZM277,378.42a38.43,38.43,0,0,1-3.05,15.26A39.09,39.09,0,0,1,265.61,406a38.66,38.66,0,0,1-12.51,8.29,39.94,39.94,0,0,1-15.26,2.91,38.81,38.81,0,0,1-11.05-1.6,38.34,38.34,0,0,1-9.89-4.51v5.09H197.27V314.44l19.92-4.36v36.35a34.12,34.12,0,0,1,9.89-5.09,34.77,34.77,0,0,1,11.34-1.89,37.09,37.09,0,0,1,15,3.05,38.93,38.93,0,0,1,12.35,8.29,37.13,37.13,0,0,1,8.15,12.36A38.45,38.45,0,0,1,277,378.42Zm-41.73-22a26.37,26.37,0,0,0-10,1.89,21.22,21.22,0,0,0-8,5.24v29.8a23.52,23.52,0,0,0,7.85,5.09,27.52,27.52,0,0,0,10.18,1.89,21.57,21.57,0,0,0,15.7-6.25,21.34,21.34,0,0,0,6.4-15.7,20.64,20.64,0,0,0-6.54-15.56A21.17,21.17,0,0,0,235.22,356.46Zm122.39,50.31a48.59,48.59,0,0,1-14.39,8.29,48,48,0,0,1-16.29,2.61,42.6,42.6,0,0,1-16.14-3.05,41.77,41.77,0,0,1-12.94-8.29,40,40,0,0,1-8.72-43.18,38.5,38.5,0,0,1,8.29-12.51,37.86,37.86,0,0,1,12.35-8.43,39.54,39.54,0,0,1,15.42-3,34.45,34.45,0,0,1,14.83,3.2,35,35,0,0,1,11.92,8.43,37.13,37.13,0,0,1,7.85,12.94,43.77,43.77,0,0,1,2.91,16.14v5.23H306.28a21.3,21.3,0,0,0,7.86,11.49A22.1,22.1,0,0,0,327.8,401a26.75,26.75,0,0,0,9.31-1.6,21.08,21.08,0,0,0,7.41-4.5Zm-32.86-51.18A17.52,17.52,0,0,0,313,359.81a20.93,20.93,0,0,0-6.83,11.05h37.08a21.4,21.4,0,0,0-7-10.91A16.84,16.84,0,0,0,324.75,355.59Z"/><path class="cls-2" d="M398.89,417.53q-12.21,0-19.92-6.4a21.12,21.12,0,0,1-7.7-16.87q0-10.75,8.28-16.86t22.83-6.11a60.41,60.41,0,0,1,18.47,2.91v-5.38q0-6.54-4.07-9.89t-11.93-3.34a38.61,38.61,0,0,0-10.46,1.6,83.37,83.37,0,0,0-12.65,4.65l-7.27-14.68a96.16,96.16,0,0,1,17.15-6.11,70.41,70.41,0,0,1,16.58-2q15.27,0,23.7,7.42,8.58,7.26,8.58,20.64v49.15H420.85V411a35.64,35.64,0,0,1-10.18,4.94A40.15,40.15,0,0,1,398.89,417.53Zm-8.58-23.7a8.13,8.13,0,0,0,3.78,7q3.8,2.47,10,2.47a32.94,32.94,0,0,0,9-1.16,29.88,29.88,0,0,0,7.71-3.64V387.14a33.37,33.37,0,0,0-7.71-2,45.93,45.93,0,0,0-8.29-.72q-6.83,0-10.76,2.61A7.78,7.78,0,0,0,390.31,393.83Zm65.24,22.39V340.47h19.92v8.28a23.54,23.54,0,0,1,8.73-7.41,25.25,25.25,0,0,1,11.48-2.62,28.59,28.59,0,0,1,4.8.58,9.39,9.39,0,0,1,3.49,1.17v17.44a18.67,18.67,0,0,0-4.8-1.45,24.57,24.57,0,0,0-5.38-.58A20.87,20.87,0,0,0,483,358.79a20.12,20.12,0,0,0-7.56,8.43v49Zm59.21,0V340.47h19.92v5.67a28.27,28.27,0,0,1,9-5.24A29.85,29.85,0,0,1,554.46,339a27.65,27.65,0,0,1,13.08,3.06,25.24,25.24,0,0,1,9.75,8.28,29.8,29.8,0,0,1,10.9-8.43,33.62,33.62,0,0,1,14.1-2.91q12.66,0,20.8,8.44t8.14,21.66v47.11H611.31V372q0-7.12-3.93-11.49t-10.32-4.36a17.17,17.17,0,0,0-8.29,2,17.89,17.89,0,0,0-6.25,5.52c.09.87.19,1.75.29,2.62a24.19,24.19,0,0,1,.15,2.76v47.11H563V372q0-7.12-3.93-11.49t-10.32-4.36a17.7,17.7,0,0,0-8,1.74,18,18,0,0,0-6.11,5.09v53.22ZM643,378.42A38.66,38.66,0,0,1,646.1,363a39.44,39.44,0,0,1,8.57-12.5,40.33,40.33,0,0,1,12.94-8.43,42.58,42.58,0,0,1,31.7,0,38.56,38.56,0,0,1,12.8,8.43,36.6,36.6,0,0,1,8.58,12.5,37.25,37.25,0,0,1,3.19,15.42A38.19,38.19,0,0,1,720.69,394a36.92,36.92,0,0,1-8.58,12.36,40,40,0,0,1-12.8,8.29,42.71,42.71,0,0,1-31.7,0,41.89,41.89,0,0,1-12.94-8.29A37.76,37.76,0,0,1,643,378.42Zm40.42,21.95a19.71,19.71,0,0,0,14.83-6.4,23,23,0,0,0,0-31.26,20.4,20.4,0,0,0-29.66,0,23.07,23.07,0,0,0,0,31.26A19.73,19.73,0,0,0,683.46,400.37Zm52.67,15.85V340.47h19.92v8.28a23.59,23.59,0,0,1,8.72-7.41,25.27,25.27,0,0,1,11.49-2.62,28.59,28.59,0,0,1,4.8.58,9.34,9.34,0,0,1,3.48,1.17v17.44a18.72,18.72,0,0,0-4.79-1.45,24.63,24.63,0,0,0-5.38-.58,20.81,20.81,0,0,0-10.76,2.91,20.05,20.05,0,0,0-7.56,8.43v49Z"/><path class="cls-3" d="M465.09,284a27.91,27.91,0,0,1-21.45,10H349.92a28,28,0,0,1-22-10.57l-58.44-73.28a28,28,0,0,1-5.43-23.77L285,95A27.9,27.9,0,0,1,300.14,76l8.79-4.23a27.9,27.9,0,0,0-7.69,13.78l-20.86,91.39a28,28,0,0,0,5.44,23.77l58.43,73.27a27.94,27.94,0,0,0,22,10.58h93.72A28.43,28.43,0,0,0,465.09,284Z"/><path class="cls-4" d="M540.34,200.66,481.9,273.93A27.93,27.93,0,0,1,465.09,284a28.43,28.43,0,0,1-5.15.47H366.22a27.94,27.94,0,0,1-22-10.58l-58.43-73.27a28,28,0,0,1-5.44-23.77L301.24,85.5a28,28,0,0,1,15.21-19l84.43-40.67a28.09,28.09,0,0,1,24.39,0l84.44,40.66a28,28,0,0,1,15.2,19l20.86,91.39A28,28,0,0,1,540.34,200.66Z"/><path class="cls-5" d="M545.77,176.89,524.91,85.5a28,28,0,0,0-15.2-19L425.27,25.79a28.09,28.09,0,0,0-24.39,0L316.45,66.45a28,28,0,0,0-15.21,19l-20.86,91.39a28,28,0,0,0,5.44,23.77l58.43,73.27a27.94,27.94,0,0,0,22,10.58h93.72a28.43,28.43,0,0,0,5.15-.47,27.93,27.93,0,0,0,16.81-10.11l58.44-73.27A28,28,0,0,0,545.77,176.89ZM465,260.44a6.51,6.51,0,0,1-5.06,2.44H366.22a6.51,6.51,0,0,1-5.07-2.44l-58.43-73.28a6.46,6.46,0,0,1-1.24-5.46l20.85-91.37a5.85,5.85,0,0,1,.43-1.26,6.53,6.53,0,0,1,3.06-3.14l84.45-40.66c.22-.11.45-.2.68-.29s.46-.14.7-.19a6.47,6.47,0,0,1,2.86,0c.23.05.46.12.7.19s.45.18.67.29l84.45,40.66a6.47,6.47,0,0,1,3.49,4.4l20.86,91.37a6.43,6.43,0,0,1-1.25,5.46Z"/><path class="cls-6" d="M410.85,139l-10.32-11.32L393,66.94h35.53l-6.46,60.76Zm-4.28-14.09,4.49,4.93,5-5,5.48-51.53H400.2Z"/><path class="cls-6" d="M462.25,154.16l-.07-.86c-1.41-16.14-3.16-27.15-7.92-35.67-5.18-9.28-13.67-15-27.53-18.57l-1.57,6.13C449.55,111.47,453.22,124,455.8,153c-10.16,21.55-11,31.8-8.32,45.9-8.12,4.84-14.18,9.37-19.21,14.76,3.18-8.92,6-16.67,8.53-23.53,7.7-21,11.57-31.56,11.33-38.1l-2.48.09v-4H379.71v4.14l-3.58-.11c-.2,6.45,3.14,17,9.8,37.89,2.08,6.53,4.41,13.87,7,22.26a79,79,0,0,0-15.44-13.27c2.36-14.11,1.65-24.28-7.19-45.86,2.24-29.08,5.39-41.61,26.36-47.82l-1.8-6.07c-12.15,3.6-19.58,9.36-24.1,18.67-4.1,8.46-5.61,19.42-6.83,35.49l-.05.75.29.7c8.8,21.31,9.41,30.33,6.73,45.05l-.37,2,1.73,1.15c15.44,10.29,21.71,18.29,29.16,37.23l6-2c-6.22-21.17-11.34-37.27-15.46-50.2-5.51-17.32-8.83-27.76-9.41-33.66h59.13c-.76,6-4.73,16.83-10.82,33.44-4.75,13-10.66,29.08-17.84,50.29l5.89,2.32c8.58-19,15.83-27,33.71-37.33l2-1.15-.47-2.24c-2.83-13.5-3-22.33,7.75-44.9Z"/></svg>