<svg version="1.1" id="Layer_1" xmlns="http://www.w3.org/2000/svg" xmlns:xlink="http://www.w3.org/1999/xlink" x="0px" y="0px"
	 width="100%" viewBox="0 0 4304 1243" enable-background="new 0 0 4304 1243" xml:space="preserve">
<path fill="#FFFFFF" opacity="1.000000" stroke="none" 
	d="
M3010.000000,1246.000000 
	C2006.756836,1246.000000 1004.513611,1246.000000 2.135230,1246.000000 
	C2.135230,831.460815 2.135230,416.921600 2.135230,2.191175 
	C1436.666626,2.191175 2871.333252,2.191175 4305.940430,2.191175 
	C4305.940430,416.820312 4305.940430,831.410156 4305.940430,1246.000000 
	C3874.254150,1246.000000 3442.627197,1246.000000 3010.000000,1246.000000 
M1137.618652,700.020081 
	C1137.936035,701.480225 1138.253296,702.940369 1138.766357,706.215515 
	C1138.709229,741.306824 1138.651978,776.398071 1138.195435,813.381836 
	C1138.195435,829.885193 1138.195435,846.388550 1138.195435,864.160706 
	C1166.804321,864.160706 1194.247314,864.160706 1221.799683,866.011230 
	C1221.822510,915.955261 1221.844116,965.899353 1221.872803,1015.843384 
	C1221.874023,1017.840210 1221.911133,1019.838440 1221.997681,1021.833130 
	C1222.025879,1022.486023 1222.228516,1023.140381 1222.420044,1023.773315 
	C1222.509033,1024.067505 1222.740845,1024.330200 1222.947021,1024.573853 
	C1223.160889,1024.826660 1223.422241,1025.039307 1223.701294,1025.306396 
	C1272.110474,1025.306396 1320.554810,1025.306396 1370.143555,1025.306396 
	C1370.143555,953.775879 1370.143555,882.944641 1371.998169,812.023560 
	C1393.755493,812.023560 1415.512817,812.023560 1437.544189,812.023560 
	C1437.544189,785.703674 1437.491455,760.806274 1437.562744,735.909119 
	C1437.610352,719.303772 1437.834595,702.699036 1439.858521,686.109863 
	C1450.524536,686.112122 1461.192627,685.978882 1471.855835,686.154968 
	C1482.340088,686.328003 1492.907227,685.333374 1504.138306,686.970337 
	C1504.138306,711.286499 1504.138306,734.592041 1503.725464,759.745544 
	C1503.808716,777.824158 1503.891846,795.902771 1503.773804,815.709900 
	C1504.128418,818.199097 1504.483032,820.688354 1504.806885,822.962280 
	C1522.300415,824.858398 1609.988525,824.141968 1617.025269,822.146423 
	C1617.241333,821.527588 1617.636475,820.911438 1617.645874,820.289429 
	C1617.741211,813.960449 1617.556274,807.618530 1617.904175,801.305237 
	C1618.118896,797.406555 1619.118774,793.551025 1620.512939,788.570862 
	C1630.822754,780.587769 1639.216309,770.817200 1646.485107,760.098206 
	C1663.265869,735.351990 1671.376221,707.776550 1674.513062,678.012146 
	C1689.510986,678.087646 1704.509033,678.163147 1719.688599,680.084778 
	C1719.757324,685.074585 1719.884521,690.064331 1719.885620,695.054138 
	C1719.894409,734.315735 1719.864014,773.577393 1719.896729,812.838989 
	C1719.899658,816.338806 1720.263672,819.838379 1720.472778,823.566040 
	C1743.897095,823.566040 1766.140503,823.566040 1790.205322,823.676331 
	C1858.451294,823.703552 1926.697266,823.739075 1994.943237,823.728821 
	C1997.794678,823.728394 2000.646240,823.301086 2004.119141,823.022827 
	C2004.119141,818.158142 2004.119141,814.202820 2005.957153,810.082642 
	C2017.206177,810.562195 2028.455200,811.041748 2041.551636,812.047546 
	C2062.979736,812.094604 2084.407959,812.141663 2106.726562,813.594116 
	C2107.088379,817.192871 2107.759521,820.791138 2107.765137,824.390442 
	C2107.835938,870.972778 2107.801270,917.555298 2107.832520,964.137756 
	C2107.834717,967.679138 2108.132568,971.220215 2108.316406,975.281189 
	C2112.458252,975.470703 2115.717773,975.743103 2118.977783,975.749084 
	C2140.272705,975.787964 2161.567627,975.826782 2182.862305,975.750977 
	C2199.822998,975.690613 2216.783447,975.467163 2235.643555,975.625000 
	C2248.157227,975.625000 2260.670898,975.625000 2274.327148,975.625000 
	C2274.327148,920.519836 2274.327148,866.817444 2274.327148,812.012573 
	C2284.062256,812.012573 2292.627441,812.012573 2301.192627,812.012573 
	C2310.173828,812.012573 2319.158691,812.168335 2328.135498,811.967468 
	C2336.605469,811.777893 2345.194092,812.894653 2353.897461,811.134277 
	C2353.897461,790.841797 2353.897461,771.577148 2354.253418,750.872803 
	C2356.431396,745.285156 2358.609375,739.697510 2362.554443,734.029968 
	C2375.494141,734.026611 2388.433838,734.023193 2401.627197,735.875977 
	C2401.627197,761.075134 2401.627197,786.274292 2401.627197,811.839722 
	C2424.948486,811.839722 2447.211426,811.839722 2471.419189,812.058289 
	C2509.296387,812.077026 2547.173584,812.127441 2585.050781,812.096741 
	C2597.664307,812.086548 2610.278076,811.868164 2624.359131,811.821899 
	C2636.806641,814.034424 2649.253906,816.246948 2662.860840,819.740051 
	C2669.680908,820.177185 2676.500977,820.614258 2683.818848,821.083252 
	C2683.818848,834.290161 2683.819092,846.592773 2683.819092,858.895325 
	C2683.819092,870.889587 2683.790283,882.883972 2683.826904,894.878174 
	C2683.863770,907.054810 2683.965088,919.231323 2684.038818,931.518188 
	C2733.310547,931.518188 2781.134521,931.518188 2830.187256,931.518188 
	C2830.187256,927.063171 2830.187012,923.159668 2830.187012,919.256226 
	C2830.187744,846.624207 2830.201416,773.992188 2830.163086,701.360168 
	C2830.160400,696.064453 2829.783447,690.768860 2829.541016,683.663574 
	C2829.743652,677.337646 2830.030029,671.013184 2830.133789,664.685608 
	C2830.510742,641.726868 2825.876709,619.869202 2814.479492,598.186707 
	C2811.156738,598.069031 2807.833984,597.841370 2804.511475,597.850403 
	C2764.521973,597.959167 2724.532715,598.102844 2684.315186,596.347351 
	C2684.252441,561.045776 2684.248779,525.743896 2684.030029,490.443329 
	C2684.009277,487.091309 2682.638672,483.747681 2680.587891,480.252594 
	C2679.719727,480.295898 2678.851318,480.339172 2676.631836,480.114777 
	C2675.720703,480.192749 2674.809326,480.270691 2672.059326,480.062134 
	C2607.735596,480.037323 2543.411621,480.009796 2479.087891,480.002930 
	C2477.429199,480.002747 2475.770508,480.228424 2472.966797,480.042969 
	C2472.187988,480.036560 2471.409424,480.030151 2470.376953,478.161987 
	C2470.376953,454.374847 2470.376953,430.587677 2470.376953,405.777252 
	C2462.147705,405.777252 2454.923340,405.777252 2447.805420,403.936432 
	C2447.660889,379.321167 2447.518066,354.705902 2447.349854,330.090790 
	C2447.348145,329.818207 2447.026855,329.538116 2446.831299,329.279327 
	C2446.631104,329.014282 2446.401855,328.770996 2446.185547,328.518158 
	C2431.466797,326.617737 2353.862793,327.347900 2345.861328,329.805939 
	C2345.861328,367.855408 2345.861328,406.275116 2345.861328,445.306305 
	C2331.179932,445.648499 2317.629395,445.964325 2302.748291,445.804962 
	C2281.288330,431.299225 2256.988525,425.809021 2230.548340,422.348297 
	C2195.777588,421.452026 2160.963135,422.818542 2126.349609,421.623749 
	C2125.804199,416.478546 2125.394531,412.615204 2124.964111,408.556519 
	C2083.816895,408.556519 2043.329834,408.556519 2001.715576,408.556519 
	C2001.715576,412.645264 2001.744751,416.221039 2001.710449,419.796204 
	C2001.544800,437.108002 2001.362183,454.419647 1999.413940,471.716675 
	C1962.213989,471.719818 1925.014160,471.692902 1887.814209,471.735046 
	C1854.602539,471.772675 1821.390869,471.886597 1786.676758,471.421997 
	C1782.387451,470.982269 1778.098267,470.542572 1773.815063,468.215546 
	C1773.717773,443.692200 1774.100098,419.159119 1773.583496,394.396881 
	C1729.869751,394.396881 1687.416138,394.396881 1643.610596,394.396881 
	C1643.610596,433.800659 1643.610596,472.554016 1643.610596,512.105835 
	C1638.977417,512.105835 1635.697144,512.105835 1632.416870,512.105835 
	C1614.759766,512.105835 1597.102295,512.052856 1579.445557,512.126099 
	C1569.157959,512.168701 1558.871338,512.413452 1546.648193,512.551819 
	C1539.542114,512.525940 1532.436035,512.500061 1523.705322,511.887634 
	C1495.127930,511.974670 1466.550537,512.061707 1437.563843,510.293915 
	C1437.568359,476.149017 1437.572876,442.004150 1437.917114,406.080414 
	C1437.841431,366.317139 1437.765747,326.553894 1437.689697,286.651367 
	C1401.126221,286.651367 1366.038086,286.651367 1329.812134,286.651367 
	C1329.812134,290.865387 1329.812256,294.431732 1329.812256,297.998108 
	C1329.812256,320.283447 1329.864746,342.568970 1329.796387,364.854095 
	C1329.736084,384.471619 1329.540405,404.088745 1328.681152,423.863037 
	C1328.681152,423.863037 1327.973755,424.081207 1326.117798,423.814819 
	C1266.045288,423.785767 1205.972656,423.752136 1145.900146,423.747955 
	C1143.920654,423.747803 1141.941284,424.046570 1139.134521,424.407227 
	C1138.623413,424.766663 1138.387329,425.258209 1138.069946,426.928955 
	C1138.050903,427.297150 1138.031860,427.665314 1137.182129,428.747345 
	C1136.930298,429.777008 1136.678467,430.806671 1136.072021,432.907043 
	C1136.052124,433.282471 1136.032349,433.657898 1135.181763,434.746582 
	C1134.932007,435.776154 1134.682129,436.805725 1134.077026,438.908264 
	C1134.056152,439.284424 1134.035156,439.660614 1133.181274,440.747498 
	C1132.931030,441.776947 1132.680786,442.806396 1132.075073,444.907928 
	C1132.054688,445.283875 1132.034180,445.659790 1131.182007,446.747131 
	C1130.932861,447.776276 1130.683716,448.805389 1130.078857,450.909760 
	C1130.057617,451.286682 1130.036377,451.663635 1129.181763,452.750610 
	C1128.928223,453.779968 1128.674683,454.809326 1128.066162,456.903381 
	C1128.047363,457.277008 1128.028564,457.650604 1127.181885,458.742767 
	C1126.931885,459.773560 1126.682007,460.804352 1126.076416,462.907959 
	C1126.055664,463.284119 1126.034790,463.660278 1125.181274,464.747559 
	C1124.930908,465.776978 1124.680664,466.806396 1124.074951,468.907806 
	C1124.054443,469.283691 1124.033936,469.659607 1123.182007,470.746948 
	C1122.933105,471.776062 1122.684082,472.805145 1122.079224,474.910370 
	C1122.057861,475.287598 1122.036621,475.664795 1121.181763,476.750793 
	C1120.930054,477.779327 1120.678467,478.807861 1120.072021,480.907043 
	C1120.052124,481.282471 1120.032349,481.657898 1119.181763,482.746582 
	C1118.931885,483.776123 1118.682007,484.805695 1118.077026,486.908264 
	C1118.056152,487.284424 1118.035156,487.660614 1117.181274,488.747498 
	C1116.930908,489.776917 1116.680664,490.806366 1116.075073,492.907928 
	C1116.054688,493.283875 1116.034180,493.659790 1115.182129,494.747162 
	C1114.932983,495.776276 1114.683838,496.805389 1114.078857,498.909760 
	C1114.057617,499.286682 1114.036377,499.663635 1113.181763,500.750610 
	C1112.928223,501.779968 1112.674683,502.809326 1112.066162,504.903381 
	C1112.047363,505.277008 1112.028564,505.650604 1111.181885,506.742767 
	C1110.931763,507.773560 1110.681641,508.804352 1110.017212,511.022064 
	C1109.955811,511.854980 1109.894409,512.687866 1108.427979,514.455750 
	C1096.977417,514.852356 1085.526733,515.248901 1073.960205,513.818237 
	C1073.928101,486.276703 1073.945557,458.734924 1073.832397,431.193726 
	C1073.800049,423.333466 1073.625977,423.334167 1063.737549,422.293732 
	C1049.236572,422.145203 1034.735474,421.996674 1019.321533,421.838776 
	C1019.321533,387.634308 1019.321533,354.793549 1019.321533,322.199036 
	C1008.694397,319.763611 930.482971,320.089966 922.257263,322.672119 
	C922.257263,325.977997 922.257263,329.585175 922.257263,333.192352 
	C922.257263,371.504272 922.282898,409.816193 922.237305,448.128052 
	C922.227051,456.779297 921.968628,465.430267 919.981323,474.101135 
	C909.675598,474.103485 899.369873,474.106750 889.064148,474.107941 
	C878.758423,474.109100 868.452698,474.108185 858.146973,474.108185 
	C847.841248,474.108185 837.534912,474.040802 827.229919,474.127289 
	C817.082581,474.212433 806.895508,473.735626 795.739868,474.527466 
	C795.739868,485.627106 795.739868,495.423218 795.739868,506.038818 
	C791.360474,506.038818 788.095215,506.038849 784.829956,506.038818 
	C768.872681,506.038666 752.914551,505.950989 736.959106,506.122406 
	C734.225220,506.151764 731.503235,507.286407 728.368774,509.756348 
	C728.352966,580.044739 728.367737,650.333130 728.307007,720.621521 
	C728.280884,750.931091 728.098572,781.240601 726.124390,811.434509 
	C711.625488,811.434509 697.126526,811.434509 682.370605,811.434509 
	C682.370605,866.967957 682.370605,921.004944 682.370605,975.522217 
	C755.089417,975.522217 827.154541,975.522217 899.583862,975.522217 
	C899.958679,972.185852 900.286255,969.269897 902.379272,966.164917 
	C925.237305,966.164917 948.095337,966.164917 972.121033,966.164917 
	C972.121033,961.114624 972.120972,957.549438 972.120972,953.984314 
	C972.121033,910.703735 972.106323,867.423096 972.146118,824.142517 
	C972.149780,820.162476 972.502014,816.182678 974.359558,812.112732 
	C979.639648,812.076233 984.919739,812.039734 992.049377,812.006042 
	C1015.800720,812.006104 1039.552612,812.076233 1063.302856,811.918091 
	C1066.295044,811.898193 1069.279297,810.677551 1073.355469,808.766235 
	C1073.512329,805.122620 1073.796631,801.479309 1073.805664,797.835327 
	C1073.874512,769.890381 1073.889771,741.945251 1074.143066,712.220947 
	C1074.264160,707.747070 1074.385254,703.273254 1074.514160,698.515747 
	C1096.329712,698.515747 1116.851318,698.515747 1137.618652,700.020081 
M2946.227051,510.271362 
	C2946.189941,501.285217 2946.137939,492.299072 2946.120117,483.312897 
	C2946.101562,473.993195 2946.115967,464.673431 2946.115967,455.353699 
	C2946.115967,446.366821 2946.269775,437.376526 2946.072754,428.393982 
	C2945.872314,419.255890 2946.962402,410.013611 2945.187744,400.297211 
	C2919.666992,400.297211 2895.079102,400.288849 2870.491455,400.305725 
	C2866.537598,400.308441 2864.218018,402.146027 2864.166260,406.310608 
	C2864.141357,408.307434 2864.113037,410.304352 2864.113525,412.301239 
	C2864.126221,471.215210 2864.135010,530.129211 2864.178711,589.043152 
	C2864.181152,592.286987 2864.478027,595.530518 2864.696045,599.957642 
	C2870.539307,599.957642 2875.760986,599.957642 2882.984131,599.903076 
	C2903.295898,600.013184 2923.607422,600.123291 2944.196777,601.023865 
	C2944.441162,601.605164 2944.878662,601.904419 2945.728027,603.588989 
	C2945.811523,606.386841 2945.895020,609.184753 2945.649414,613.837036 
	C2945.639160,646.390686 2945.628906,678.944397 2944.830078,711.768555 
	C2944.830078,711.768555 2944.056152,712.093384 2942.736084,711.029968 
	C2941.460938,710.759155 2940.185791,710.250977 2938.910889,710.252747 
	C2916.694092,710.283875 2894.477051,710.377563 2870.677002,710.470825 
	C2864.415771,710.565613 2864.333496,714.864441 2864.341553,719.485352 
	C2864.395508,750.417297 2864.356689,781.349365 2864.407715,812.281372 
	C2864.410889,814.175720 2864.924561,816.069214 2865.378418,819.182129 
	C2936.984375,819.157654 3008.214844,819.906616 3080.315430,819.184265 
	C3080.047852,814.573059 3079.859863,811.335388 3080.769043,807.165588 
	C3102.680176,796.831421 3121.598389,782.683350 3135.965332,765.021606 
	C3122.143799,751.166931 3108.853760,737.844971 3095.299072,724.257690 
	C3091.286377,727.707886 3086.531250,731.796753 3080.692139,734.716919 
	C3080.656738,728.580261 3080.621338,722.443542 3082.382812,716.192871 
	C3114.243652,716.174011 3146.104492,716.155212 3178.345703,717.960083 
	C3178.337891,748.464172 3178.269043,778.968628 3178.418701,809.471924 
	C3178.433350,812.437561 3179.796631,815.396545 3180.238770,820.160706 
	C3180.212158,841.773010 3180.145508,863.385376 3180.176025,884.997620 
	C3180.190674,895.352051 3180.452881,895.630127 3190.808105,895.636169 
	C3248.996094,895.670166 3307.184082,895.665955 3365.372070,895.614807 
	C3368.574219,895.612000 3371.775879,895.070435 3376.001221,894.686584 
	C3376.001221,868.628662 3376.001221,843.450684 3377.862549,818.036011 
	C3399.686035,818.004395 3421.510254,818.035889 3443.332764,817.870422 
	C3446.454346,817.846802 3449.568848,816.871399 3453.462646,814.836121 
	C3453.420166,782.793579 3453.377930,750.750977 3453.643555,716.772827 
	C3453.839111,706.632629 3454.034668,696.492432 3454.229736,686.382935 
	C3478.731689,686.382935 3501.847412,686.382935 3526.185059,686.382935 
	C3526.185059,690.544739 3526.157959,694.101685 3526.189453,697.658142 
	C3526.345703,715.252808 3526.517334,732.847290 3526.659668,752.259216 
	C3526.642578,770.674316 3526.625488,789.089355 3526.209229,809.245544 
	C3526.462891,812.053589 3526.716309,814.861633 3526.982910,817.814087 
	C3543.574951,817.814087 3559.091309,817.814087 3576.397705,817.715210 
	C3595.739258,818.439331 3614.822754,817.014160 3632.522461,812.622375 
	C3633.138184,835.413391 3633.753906,858.204407 3634.380127,881.380371 
	C3654.380615,881.380371 3673.811768,881.380371 3693.700439,881.380371 
	C3693.916504,878.212585 3694.245850,875.621216 3694.247559,873.029602 
	C3694.276367,833.091492 3694.278564,793.153442 3694.219482,753.215393 
	C3694.215820,750.598145 3693.659180,747.981750 3693.504395,743.575256 
	C3693.615967,732.331482 3693.727539,721.087769 3694.316895,708.067871 
	C3694.301270,691.787659 3694.357910,675.506958 3694.248047,659.227417 
	C3694.156006,645.620178 3693.868652,632.014343 3693.968018,616.502563 
	C3693.968018,556.081970 3693.968018,495.661377 3693.968018,435.481110 
	C3682.371338,433.153778 3554.102539,433.557831 3546.083740,435.975037 
	C3546.083740,462.923065 3546.083740,490.145630 3544.726807,517.881958 
	C3543.298096,518.132385 3541.869385,518.382812 3538.624268,517.949158 
	C3508.862305,517.949158 3479.100586,517.949158 3448.663330,517.949158 
	C3448.333984,522.542908 3447.935303,526.111816 3447.854492,529.687866 
	C3447.727051,535.329224 3447.667725,540.980103 3447.851074,546.618103 
	C3448.016602,551.710999 3445.776611,553.810364 3440.730225,553.765320 
	C3433.772461,553.703186 3426.811523,554.008240 3419.980469,553.994751 
	C3419.980469,553.994751 3419.834229,554.144958 3418.869141,552.795959 
	C3415.571777,552.582642 3412.274902,552.194763 3408.977051,552.184753 
	C3389.687500,552.126038 3370.398193,552.177124 3351.108643,552.134705 
	C3347.874268,552.127625 3344.640625,551.844543 3340.191650,551.630493 
	C3340.191650,528.119812 3340.295166,505.274231 3340.163086,482.430023 
	C3340.029297,459.298065 3340.757812,436.143372 3339.704834,413.164948 
	C3337.765137,412.672363 3336.825195,412.223450 3335.886230,412.225708 
	C3305.968506,412.298462 3276.050537,412.414886 3244.262207,412.229980 
	C3222.484375,412.229980 3200.706299,412.229980 3178.411377,412.229980 
	C3178.411377,417.178223 3178.426270,420.792633 3178.408936,424.406921 
	C3178.269531,453.636139 3178.123779,482.865326 3176.109863,512.107666 
	C3133.869141,512.108582 3091.628418,512.094055 3049.387695,512.128601 
	C3043.765869,512.133179 3038.144043,512.386353 3030.501953,512.532837 
	C3023.325195,512.400757 3016.148193,512.268616 3007.399902,511.660278 
	C2987.075439,511.825012 2966.751221,511.989746 2946.227051,510.271362 
M578.222961,743.672424 
	C583.736023,744.049011 586.027588,741.537659 585.893738,735.973511 
	C585.661438,726.316589 585.900024,716.649231 585.776978,706.988342 
	C585.749268,704.810669 585.046814,702.641602 584.688965,700.657410 
	C564.677979,698.694580 393.775970,699.567322 386.616730,701.596436 
	C384.910339,714.574890 385.425598,736.138672 387.874512,743.678650 
	C450.518951,743.678650 513.439453,743.678650 578.222961,743.672424 
M3761.739014,736.563049 
	C3762.795166,738.314880 3763.809814,741.559814 3764.913818,741.590454 
	C3777.750488,741.946899 3790.600830,741.818481 3803.759277,741.818481 
	C3803.759277,691.816162 3803.759277,643.040955 3803.759277,593.208557 
	C3789.609863,592.598877 3775.979980,591.498413 3761.721436,594.162231 
	C3761.721436,641.570374 3761.721436,688.103210 3761.739014,736.563049 
M658.194275,427.000000 
	C658.194214,418.009918 658.323853,409.017487 658.157959,400.030457 
	C657.989319,390.895203 658.910583,381.668518 657.435303,372.104065 
	C647.982727,372.104065 639.683167,372.104095 631.383606,372.104095 
	C623.181030,372.104095 614.978394,372.104065 607.033203,372.104065 
	C604.684998,386.734070 605.411377,472.969940 607.647644,479.416199 
	C624.207031,479.416199 640.706543,479.416199 658.194702,479.416199 
	C658.194702,462.149261 658.194702,445.574615 658.194275,427.000000 
z"/>
<path fill="#020202" opacity="1.000000" stroke="none" 
	d="
M2360.787109,734.109863 
	C2358.609375,739.697510 2356.431396,745.285156 2353.520020,751.926514 
	C2338.885742,778.427063 2316.439941,792.857666 2289.812012,801.979370 
	C2271.714111,808.178955 2252.856201,810.058411 2233.097656,811.948975 
	C2223.882568,811.811768 2215.591309,811.874268 2207.299805,811.899475 
	C2173.478516,812.002136 2139.657471,812.093384 2105.836182,812.188782 
	C2084.407959,812.141663 2062.979736,812.094604 2040.790894,810.908142 
	C2040.072998,736.820129 2040.117554,663.871521 2040.141602,590.922913 
	C2040.141846,589.937134 2039.883179,588.951233 2039.934570,587.049927 
	C2040.123779,532.326538 2040.123779,478.518616 2040.123779,424.291595 
	C2043.870728,424.048218 2046.454834,423.737274 2049.039062,423.734680 
	C2074.663574,423.709198 2100.288330,423.780090 2125.912842,423.734772 
	C2161.178467,423.672394 2196.443848,423.533020 2231.709473,423.426605 
	C2256.988525,425.809021 2281.288330,431.299225 2303.646973,446.644226 
	C2337.283691,471.682983 2346.751465,504.565094 2340.488281,543.411987 
	C2337.754395,560.367554 2329.510986,574.512451 2318.306152,587.667114 
	C2308.595947,595.232849 2299.325928,602.588867 2289.191650,610.630737 
	C2311.418213,618.443359 2331.670410,629.813843 2347.609375,648.706238 
	C2355.326416,660.143372 2360.061768,671.935303 2362.417969,684.875671 
	C2365.439697,701.471130 2363.832275,717.783142 2360.787109,734.109863 
M2127.875488,586.635437 
	C2157.155762,586.462036 2186.444824,586.660828 2215.712158,585.951782 
	C2229.492676,585.617920 2242.432129,581.248901 2254.160400,573.575989 
	C2280.423584,556.393738 2283.107422,508.115479 2247.529297,491.934082 
	C2237.369873,487.313477 2226.677979,484.528442 2215.708252,484.396759 
	C2185.441895,484.033386 2155.166016,484.420105 2123.290527,484.231659 
	C2118.403809,484.231659 2113.517090,484.231659 2108.825684,484.231659 
	C2106.929932,498.423370 2107.461426,579.510132 2109.589600,587.443176 
	C2114.934082,587.066223 2120.482910,586.674805 2127.875488,586.635437 
M2113.029785,645.204346 
	C2109.082031,644.288635 2107.731445,645.912415 2107.742920,649.870667 
	C2107.837891,682.363098 2107.773438,714.856018 2107.899658,747.348267 
	C2107.904541,748.579773 2109.362061,749.805664 2111.938232,751.517151 
	C2148.548340,751.522339 2185.159668,751.722900 2221.767578,751.447449 
	C2239.171387,751.316467 2256.331299,749.153442 2271.802734,740.146301 
	C2288.716064,730.299622 2296.115234,715.064392 2295.574219,695.978638 
	C2295.048096,677.427185 2286.488281,663.143921 2269.422607,655.617371 
	C2259.523926,651.251709 2248.615234,647.004822 2238.048828,646.709045 
	C2196.848389,645.555725 2155.603516,646.001831 2113.029785,645.204346 
z"/>
<path fill="#020202" opacity="1.000000" stroke="none" 
	d="
M1437.979736,686.093994 
	C1437.834595,702.699036 1437.610352,719.303772 1437.562744,735.909119 
	C1437.491455,760.806274 1437.544189,785.703674 1437.544189,812.023560 
	C1415.512817,812.023560 1393.755493,812.023560 1371.099365,811.884216 
	C1370.200684,811.744873 1369.875244,811.562744 1369.881226,810.662170 
	C1369.872437,716.264099 1369.861694,622.766541 1369.827148,529.269043 
	C1369.825806,525.620728 1369.594116,521.972473 1369.625488,517.378052 
	C1369.781250,480.047760 1369.781250,443.663574 1369.781250,406.714661 
	C1392.418579,406.714661 1413.618042,406.700317 1434.817383,406.763123 
	C1435.738403,406.765839 1436.657471,407.477692 1437.577393,407.859253 
	C1437.572876,442.004150 1437.568359,476.149017 1437.516357,512.114685 
	C1437.468750,530.379333 1437.468750,546.823242 1437.468750,563.267090 
	C1441.487183,561.062317 1443.776123,558.397949 1446.040527,555.712769 
	C1463.517334,534.987183 1484.868042,520.514404 1511.770508,515.027405 
	C1516.276489,514.108337 1520.809448,513.321899 1525.329956,512.474182 
	C1532.436035,512.500061 1539.542114,512.525940 1548.167114,512.970398 
	C1553.632568,513.939697 1557.638794,514.221497 1561.516602,515.081726 
	C1615.609741,527.082214 1649.234375,561.020874 1665.722534,612.977356 
	C1672.438232,634.139282 1673.325195,656.054077 1672.734985,678.067505 
	C1671.376221,707.776550 1663.265869,735.351990 1646.485107,760.098206 
	C1639.216309,770.817200 1630.822754,780.587769 1619.445312,789.216675 
	C1583.908203,815.285217 1545.897095,823.908264 1503.975098,813.981384 
	C1503.891846,795.902771 1503.808716,777.824158 1504.764893,758.898804 
	C1546.033936,765.599243 1585.629761,743.235901 1598.960205,700.892700 
	C1606.807739,675.965759 1606.680176,650.905640 1597.661011,626.353333 
	C1579.591553,577.163208 1525.339600,556.744202 1480.713989,581.603455 
	C1448.115479,599.762878 1428.354492,641.886597 1437.979736,686.093994 
z"/>
<path fill="#020202" opacity="1.000000" stroke="none" 
	d="
M727.987183,811.550110 
	C728.098572,781.240601 728.280884,750.931091 728.307007,720.621521 
	C728.367737,650.333130 728.352966,580.044739 729.430725,508.858521 
	C752.384155,507.960693 774.275696,507.960693 797.224854,507.960693 
	C797.224854,544.241577 797.224854,579.661804 797.224854,617.433777 
	C801.162659,613.537048 803.489075,611.361877 805.674377,609.053162 
	C832.926086,580.263123 860.192078,551.486450 887.377686,522.634033 
	C899.240173,510.044281 910.927185,497.289246 923.289307,484.323181 
	C941.044373,465.979736 958.350159,448.057495 975.260864,429.769958 
	C979.484619,425.202454 983.795532,423.466827 989.963684,423.561188 
	C1014.544983,423.937073 1039.134277,423.795532 1063.710815,424.531921 
	C1048.807617,440.908447 1033.914185,456.598602 1018.507874,472.541138 
	C1001.573608,489.783051 985.100220,506.722595 968.746521,523.777039 
	C954.251709,538.892883 939.889954,554.136353 924.963257,569.522339 
	C917.676941,576.673767 910.896729,583.626221 903.938416,590.761414 
	C911.853271,600.749634 918.991150,609.757385 926.411194,619.329102 
	C938.216614,634.790833 949.739807,649.688660 961.488159,665.227539 
	C965.366211,670.533875 969.019165,675.198975 973.017883,680.516968 
	C998.530396,714.247070 1023.655212,747.356384 1048.889160,780.382202 
	C1056.526611,790.377869 1064.466187,800.142639 1072.267212,810.013245 
	C1069.279297,810.677551 1066.295044,811.898193 1063.302856,811.918091 
	C1039.552612,812.076233 1015.800720,812.006104 990.648865,811.513550 
	C983.664246,804.065186 978.080078,797.109375 972.223267,789.484131 
	C962.168091,775.856873 952.453674,762.846924 942.586914,749.953613 
	C928.704956,731.813293 914.709900,713.759521 900.512329,695.004395 
	C886.084412,675.495117 871.907471,656.650208 857.316345,637.254822 
	C839.972534,655.070251 823.728760,672.688782 806.391968,689.156616 
	C798.158813,696.977112 795.311646,705.130432 797.400391,716.642822 
	C797.037659,749.006897 796.944458,780.447937 795.987305,811.942749 
	C772.744568,811.847717 750.365906,811.698914 727.987183,811.550110 
z"/>
<path fill="#020203" opacity="1.000000" stroke="none" 
	d="
M3452.686523,816.336426 
	C3449.568848,816.871399 3446.454346,817.846802 3443.332764,817.870422 
	C3421.510254,818.035889 3399.686035,818.004395 3376.560059,817.811829 
	C3374.932861,817.497681 3374.607666,817.407715 3374.116455,816.689392 
	C3371.679443,812.794128 3369.444580,809.501282 3367.131592,806.264404 
	C3356.933105,791.993164 3346.711914,777.738098 3336.321289,762.814575 
	C3326.669678,748.715881 3317.195557,735.279724 3307.573730,721.198486 
	C3300.770996,710.970764 3294.115967,701.388000 3286.905518,691.004944 
	C3276.690918,702.054260 3267.530273,711.963501 3257.749512,722.198853 
	C3255.971924,723.718750 3254.947754,725.090515 3253.633545,726.075928 
	C3247.118652,730.962280 3245.808350,737.440552 3246.001709,745.326538 
	C3246.507324,765.949341 3246.171631,786.592773 3246.171387,807.227966 
	C3246.171387,810.455688 3246.171387,813.683350 3246.171387,817.824280 
	C3241.561523,817.824280 3237.976318,817.795715 3234.391846,817.829163 
	C3216.439209,817.996765 3198.486572,818.180542 3180.533936,818.358643 
	C3179.796631,815.396545 3178.433350,812.437561 3178.418701,809.471924 
	C3178.269043,778.968628 3178.337891,748.464172 3178.395264,716.123169 
	C3178.481934,648.527283 3178.523438,582.768311 3178.532227,517.009399 
	C3178.532471,515.371094 3178.172363,513.732788 3177.980225,512.094543 
	C3178.123779,482.865326 3178.269531,453.636139 3178.408936,424.406921 
	C3178.426270,420.792633 3178.411377,417.178223 3178.411377,412.229980 
	C3200.706299,412.229980 3222.484375,412.229980 3245.167969,413.268127 
	C3246.104736,491.573090 3246.135498,568.839966 3246.175049,646.106812 
	C3246.175537,647.435791 3246.256592,648.767029 3246.366455,650.091797 
	C3246.386475,650.333130 3246.697021,650.589294 3246.929688,650.763550 
	C3247.186523,650.955811 3247.508057,651.061768 3248.743164,651.666138 
	C3250.683350,649.421997 3252.766357,646.842468 3255.024414,644.426758 
	C3281.402588,616.209717 3307.828369,588.037354 3334.176270,559.792480 
	C3337.421143,556.314026 3340.440674,553.708252 3345.907227,553.800171 
	C3370.544434,554.214478 3395.190918,554.080933 3419.834229,554.144958 
	C3419.834229,554.144958 3419.980469,553.994751 3419.576904,554.629272 
	C3390.490967,584.702454 3361.808594,614.141174 3332.671875,644.046204 
	C3350.558838,669.424683 3367.944092,694.091675 3385.540283,719.398682 
	C3393.042969,730.705750 3400.255371,741.428101 3407.643066,752.028320 
	C3422.607422,773.499329 3437.666748,794.904175 3452.686523,816.336426 
z"/>
<path fill="#8EB4E3" opacity="1.000000" stroke="none" 
	d="
M1122.015381,476.041992 
	C1122.036621,475.664795 1122.057861,475.287598 1122.660156,474.023193 
	C1123.498657,472.102509 1123.756104,471.069000 1124.013550,470.035492 
	C1124.033936,469.659607 1124.054443,469.283691 1124.656738,468.023071 
	C1125.496826,466.104401 1125.755371,465.070435 1126.013794,464.036469 
	C1126.034790,463.660278 1126.055664,463.284119 1126.658447,462.021423 
	C1127.496948,460.097992 1127.753296,459.061127 1128.009644,458.024231 
	C1128.028564,457.650604 1128.047363,457.277008 1128.649414,456.023376 
	C1129.493530,454.109131 1129.754395,453.074860 1130.015137,452.040558 
	C1130.036377,451.663635 1130.057617,451.286682 1130.659912,450.023102 
	C1131.498535,448.102875 1131.756104,447.069305 1132.013672,446.035736 
	C1132.034180,445.659790 1132.054688,445.283875 1132.656738,444.023132 
	C1133.496948,442.104492 1133.755615,441.070679 1134.014282,440.036835 
	C1134.035156,439.660614 1134.056152,439.284424 1134.658447,438.022522 
	C1135.497314,436.102325 1135.754883,435.067841 1136.012451,434.033356 
	C1136.032349,433.657898 1136.052124,433.282471 1136.654419,432.023071 
	C1137.495483,430.103882 1137.754150,429.068695 1138.012817,428.033508 
	C1138.031860,427.665314 1138.050903,427.297150 1138.583252,426.209717 
	C1139.507568,425.144806 1139.795898,424.716644 1139.961792,424.205994 
	C1141.941284,424.046570 1143.920654,423.747803 1145.900146,423.747955 
	C1205.972656,423.752136 1266.045288,423.785767 1327.197998,424.304565 
	C1328.536011,425.256836 1328.898315,425.612885 1329.537354,426.793091 
	C1329.642578,457.799286 1329.575806,487.874847 1328.620361,518.144287 
	C1308.535522,518.248169 1289.339478,518.158142 1269.683228,518.196777 
	C1268.630615,518.631897 1268.209961,519.094604 1268.045166,520.665588 
	C1268.136597,575.188660 1268.234375,628.759888 1268.045044,682.330139 
	C1268.019409,689.562073 1266.549805,696.788940 1265.445801,704.171631 
	C1265.013062,704.508362 1264.733887,704.757874 1264.780396,704.863098 
	C1264.951782,705.249756 1265.231079,705.588623 1265.523193,706.635620 
	C1264.413452,710.268311 1263.250488,713.210754 1261.540771,716.093262 
	C1260.635498,715.957947 1260.276733,715.882507 1259.314941,715.252625 
	C1248.610107,714.472046 1238.508545,714.169250 1228.405518,714.106079 
	C1226.962769,714.097046 1225.512817,715.248474 1223.647949,715.965576 
	C1223.229614,716.068359 1222.368042,716.062439 1221.681885,716.566040 
	C1219.675171,728.026489 1218.623291,738.977844 1221.777100,750.473755 
	C1221.912231,751.950073 1221.930176,752.799133 1221.429077,753.898560 
	C1220.151978,754.181702 1219.394043,754.214539 1218.181152,754.233887 
	C1217.091553,754.301880 1216.576416,754.594116 1215.289307,755.418335 
	C1206.234741,755.635925 1198.071777,755.532227 1189.465332,755.015991 
	C1187.836182,754.475403 1186.650391,754.347473 1184.715698,754.261597 
	C1175.617188,752.455383 1167.997314,749.179565 1161.711304,742.774658 
	C1161.316406,742.267334 1161.023926,742.051880 1160.435059,741.879089 
	C1160.183838,741.860657 1160.100708,741.363586 1159.910645,741.063354 
	C1159.416016,740.388550 1159.045410,740.098389 1158.372314,739.877319 
	C1158.135742,739.862061 1158.105957,739.388977 1157.956787,739.126282 
	C1157.569702,738.524353 1157.260010,738.274048 1156.299927,737.681580 
	C1149.677979,730.015869 1145.178467,722.036011 1143.792969,712.098450 
	C1143.673218,711.025696 1143.367798,710.520935 1142.542725,709.432922 
	C1142.126465,707.202087 1142.036865,705.671326 1141.982666,703.477905 
	C1141.470093,701.238770 1140.922119,699.662170 1140.215332,697.154114 
	C1140.056519,637.257935 1140.056519,578.293213 1140.056519,517.960266 
	C1129.101562,517.960266 1119.558350,517.960266 1110.002686,517.221680 
	C1109.937744,515.495667 1109.885376,514.508179 1109.833008,513.520752 
	C1109.894409,512.687866 1109.955811,511.854980 1110.628784,510.078552 
	C1111.496826,508.098145 1111.753296,507.061188 1112.009644,506.024231 
	C1112.028564,505.650604 1112.047363,505.277008 1112.649414,504.023376 
	C1113.493530,502.109131 1113.754272,501.074829 1114.015137,500.040558 
	C1114.036377,499.663635 1114.057617,499.286682 1114.659912,498.023102 
	C1115.498535,496.102875 1115.756104,495.069305 1116.013672,494.035736 
	C1116.034180,493.659790 1116.054688,493.283875 1116.656738,492.023132 
	C1117.496948,490.104492 1117.755615,489.070679 1118.014282,488.036835 
	C1118.035156,487.660614 1118.056152,487.284424 1118.658447,486.022522 
	C1119.497314,484.102325 1119.754883,483.067810 1120.012451,482.033325 
	C1120.032349,481.657898 1120.052124,481.282471 1120.654053,480.023987 
	C1121.495728,478.107971 1121.755615,477.074982 1122.015381,476.041992 
z"/>
<path fill="#020202" opacity="1.000000" stroke="none" 
	d="
M2815.585449,599.276672 
	C2825.876709,619.869202 2830.510742,641.726868 2830.133789,664.685608 
	C2830.030029,671.013184 2829.743652,677.337646 2829.086914,685.201721 
	C2821.041992,734.996216 2796.539307,772.045410 2754.531250,797.017578 
	C2725.991455,813.983337 2694.673096,820.088440 2661.701416,818.459473 
	C2649.253906,816.246948 2636.806641,814.034424 2623.079346,811.230713 
	C2617.765137,809.117065 2613.682861,807.710205 2609.703857,806.054626 
	C2554.482910,783.078003 2518.427979,729.256592 2517.581787,669.546997 
	C2517.160400,639.839417 2524.468506,612.392212 2539.622559,586.148193 
	C2561.377441,552.274963 2590.940186,530.093628 2628.853027,518.929077 
	C2644.929443,514.194885 2661.503662,513.468567 2678.572754,512.370239 
	C2679.525879,512.654602 2679.925781,512.698181 2680.519043,513.615784 
	C2680.788574,522.794006 2681.012451,531.100037 2680.904297,539.401855 
	C2680.762451,550.325256 2680.359375,561.245178 2679.148926,572.106079 
	C2659.474121,571.285950 2641.706299,574.377319 2625.304932,585.644470 
	C2613.253662,592.788818 2604.705078,602.470276 2598.157471,613.893860 
	C2586.842041,633.635071 2583.402100,654.934937 2585.641357,677.469482 
	C2591.172852,733.136841 2640.376465,769.673401 2694.890381,757.693054 
	C2719.882080,752.200745 2739.043213,738.178833 2751.025635,714.194824 
	C2770.097900,673.641846 2765.626953,635.902588 2738.343018,599.276672 
	C2765.171875,599.276672 2790.378662,599.276672 2815.585449,599.276672 
z"/>
<path fill="#FE9959" opacity="1.000000" stroke="none" 
	d="
M727.055786,811.492310 
	C750.365906,811.698914 772.744568,811.847717 797.008423,811.950317 
	C832.613220,811.919434 866.332947,811.934875 900.067017,812.890625 
	C900.082947,860.696228 900.071716,907.561584 900.108887,954.426880 
	C900.112061,958.402649 900.437927,962.378235 900.613770,966.353882 
	C900.286255,969.269897 899.958679,972.185852 899.583862,975.522217 
	C827.154541,975.522217 755.089417,975.522217 682.370605,975.522217 
	C682.370605,921.004944 682.370605,866.967957 682.370605,811.434509 
	C697.126526,811.434509 711.625488,811.434509 727.055786,811.492310 
z"/>
<path fill="#8EB3E2" opacity="1.000000" stroke="none" 
	d="
M3177.045166,512.101074 
	C3178.172363,513.732788 3178.532471,515.371094 3178.532227,517.009399 
	C3178.523438,582.768311 3178.481934,648.527283 3178.205078,715.211304 
	C3146.104492,716.155212 3114.243652,716.174011 3080.874756,715.568665 
	C3075.796875,714.494873 3072.228027,713.663818 3068.656982,713.654419 
	C3032.019043,713.557983 2995.380615,713.577026 2958.742432,713.617798 
	C2954.429688,713.622620 2950.117188,713.951538 2945.853516,714.067688 
	C2945.902344,714.005188 2945.912354,714.163757 2945.933594,713.486938 
	C2945.843018,712.372742 2945.730713,711.935364 2945.618652,711.498047 
	C2945.628906,678.944397 2945.639160,646.390686 2946.446289,612.676147 
	C2949.191650,608.814453 2951.030518,606.026062 2953.105957,603.426819 
	C2969.970459,582.310120 2991.752441,571.486328 3018.968994,571.736694 
	C3045.112061,571.977295 3066.544678,582.791321 3085.024902,600.502014 
	C3087.597412,602.967224 3090.154053,605.448914 3093.073730,608.266357 
	C3107.271729,592.890747 3120.925049,578.104919 3134.628174,563.265015 
	C3113.607422,539.889099 3089.481689,524.083618 3059.875000,517.418762 
	C3050.847412,515.386597 3041.644775,514.134033 3032.522217,512.524414 
	C3038.144043,512.386353 3043.765869,512.133179 3049.387695,512.128601 
	C3091.628418,512.094055 3133.869141,512.108582 3177.045166,512.101074 
z"/>
<path fill="#020202" opacity="1.000000" stroke="none" 
	d="
M3633.341064,810.880310 
	C3614.822754,817.014160 3595.739258,818.439331 3574.727051,817.417480 
	C3557.271240,815.375366 3541.505615,813.536377 3526.608398,807.504456 
	C3526.625488,789.089355 3526.642578,770.674316 3527.365723,751.399048 
	C3542.750488,755.781006 3557.324219,761.349792 3573.000488,763.074890 
	C3587.735596,764.696350 3602.144287,764.453247 3616.016846,758.127258 
	C3634.703125,749.606140 3640.108643,722.082886 3618.882324,710.010864 
	C3611.991455,706.091797 3604.700439,702.615906 3597.207520,700.069336 
	C3580.229736,694.298950 3562.956787,689.402039 3545.909668,683.826965 
	C3531.966797,679.267151 3518.538574,673.476074 3506.538574,664.835571 
	C3492.004883,654.371033 3481.440674,641.060547 3477.739746,623.168457 
	C3469.034424,581.082092 3487.013184,545.536743 3520.687256,527.791077 
	C3527.099609,524.411865 3533.847656,521.669495 3540.440674,518.633301 
	C3541.869385,518.382812 3543.298096,518.132385 3546.176514,517.725708 
	C3571.036621,511.916138 3594.427002,512.966980 3617.748779,518.010132 
	C3642.613525,523.387024 3665.861328,532.691650 3687.727783,547.248291 
	C3678.868896,563.126587 3670.177734,578.704285 3661.217041,594.764709 
	C3658.084961,593.112732 3655.546387,591.656799 3652.910889,590.404236 
	C3643.331055,585.851501 3633.915771,580.870544 3624.074951,576.968018 
	C3607.592529,570.432007 3590.498535,566.460876 3572.548340,567.674500 
	C3563.463623,568.288696 3554.804688,570.134155 3547.066895,576.564758 
	C3533.861328,590.583862 3534.082764,603.349121 3547.612793,615.377625 
	C3550.755615,617.407166 3553.398438,618.855408 3556.429199,620.849304 
	C3582.196533,630.400269 3607.575684,639.405579 3633.463379,648.940857 
	C3662.124268,661.467224 3685.733398,677.968872 3693.839111,709.843994 
	C3693.727539,721.087769 3693.615967,732.331482 3692.959961,745.046814 
	C3686.680420,772.861877 3671.694336,792.064636 3647.704834,804.245728 
	C3643.005615,806.631958 3638.133545,808.677490 3633.341064,810.880310 
z"/>
<path fill="#E6F797" opacity="1.000000" stroke="none" 
	d="
M1370.172119,811.929138 
	C1370.143555,882.944641 1370.143555,953.775879 1370.143555,1025.306396 
	C1320.554810,1025.306396 1272.110474,1025.306396 1223.701294,1025.306396 
	C1223.422241,1025.039307 1223.160889,1024.826660 1222.947021,1024.573853 
	C1222.740845,1024.330200 1222.509033,1024.067505 1222.420044,1023.773315 
	C1222.228516,1023.140381 1222.025879,1022.486023 1221.997681,1021.833130 
	C1221.911133,1019.838440 1221.874023,1017.840210 1221.872803,1015.843384 
	C1221.844116,965.899353 1221.822510,915.955261 1221.868896,864.137390 
	C1221.968506,847.794434 1221.910889,833.324158 1222.092529,818.856934 
	C1222.137085,815.301636 1222.962769,811.756226 1224.020020,807.792358 
	C1232.433472,801.833435 1240.762329,796.865723 1247.934814,790.578613 
	C1254.896606,784.476135 1260.671509,777.019409 1268.422363,768.571777 
	C1268.422363,784.228088 1268.422363,797.677734 1268.422363,811.604065 
	C1291.362671,811.604065 1313.507935,811.604065 1336.597900,811.742554 
	C1348.320190,811.774963 1359.097778,811.668823 1369.875244,811.562744 
	C1369.875244,811.562744 1370.200684,811.744873 1370.172119,811.929138 
z"/>
<path fill="#030302" opacity="1.000000" stroke="none" 
	d="
M1335.653198,811.604065 
	C1313.507935,811.604065 1291.362671,811.604065 1268.422363,811.604065 
	C1268.422363,797.677734 1268.422363,784.228088 1268.422363,768.571777 
	C1260.671509,777.019409 1254.896606,784.476135 1247.934814,790.578613 
	C1240.762329,796.865723 1232.433472,801.833435 1223.345703,807.860718 
	C1211.245361,811.360229 1200.577026,815.641052 1189.535522,817.102966 
	C1172.323975,819.381653 1155.019775,818.363037 1138.594849,811.489380 
	C1138.651978,776.398071 1138.709229,741.306824 1139.256714,705.213318 
	C1140.480469,704.187561 1141.213867,704.164001 1141.947266,704.140503 
	C1142.036865,705.671326 1142.126465,707.202087 1142.465576,709.899658 
	C1142.828613,711.742371 1143.190308,712.236816 1143.800171,712.549744 
	C1145.178467,722.036011 1149.677979,730.015869 1156.330322,738.024170 
	C1157.197266,739.252686 1157.586182,739.449707 1158.105957,739.388977 
	C1158.105957,739.388977 1158.135742,739.862061 1158.457642,740.258545 
	C1159.080200,741.151611 1159.520630,741.387756 1160.100708,741.363586 
	C1160.100708,741.363586 1160.183838,741.860657 1160.480225,742.189758 
	C1161.025391,742.929810 1161.385986,743.092041 1161.858521,743.005554 
	C1167.997314,749.179565 1175.617188,752.455383 1185.164795,754.671387 
	C1187.544922,755.168884 1188.726807,755.298706 1189.908813,755.428528 
	C1198.071777,755.532227 1206.234741,755.635925 1215.755371,755.513977 
	C1217.808105,755.215820 1218.315796,754.868835 1218.636108,754.247375 
	C1219.394043,754.214539 1220.151978,754.181702 1222.161743,753.942627 
	C1242.336060,747.414917 1256.015015,735.697571 1262.087402,716.153198 
	C1263.250488,713.210754 1264.413452,710.268311 1265.750244,706.176636 
	C1265.865601,704.690918 1265.807251,704.354492 1265.748779,704.018127 
	C1266.549805,696.788940 1268.019409,689.562073 1268.045044,682.330139 
	C1268.234375,628.759888 1268.136597,575.188660 1268.432617,520.424133 
	C1269.266968,518.917725 1269.736084,518.530273 1270.143433,518.068115 
	C1289.339478,518.158142 1308.535522,518.248169 1329.257812,518.384155 
	C1332.470947,518.891357 1334.158081,519.352539 1335.764404,520.767822 
	C1335.673584,618.349243 1335.663330,714.976624 1335.653198,811.604065 
z"/>
<path fill="#8DB3E0" opacity="1.000000" stroke="none" 
	d="
M3539.532471,518.291260 
	C3533.847656,521.669495 3527.099609,524.411865 3520.687256,527.791077 
	C3487.013184,545.536743 3469.034424,581.082092 3477.739746,623.168457 
	C3481.440674,641.060547 3492.004883,654.371033 3506.538574,664.835571 
	C3518.538574,673.476074 3531.966797,679.267151 3545.909668,683.826965 
	C3562.956787,689.402039 3580.229736,694.298950 3597.207520,700.069336 
	C3604.700439,702.615906 3611.991455,706.091797 3618.882324,710.010864 
	C3640.108643,722.082886 3634.703125,749.606140 3616.016846,758.127258 
	C3602.144287,764.453247 3587.735596,764.696350 3573.000488,763.074890 
	C3557.324219,761.349792 3542.750488,755.781006 3527.377441,750.490356 
	C3526.517334,732.847290 3526.345703,715.252808 3526.189453,697.658142 
	C3526.157959,694.101685 3526.185059,690.544739 3526.185059,686.382935 
	C3501.847412,686.382935 3478.731689,686.382935 3454.229736,686.382935 
	C3454.034668,696.492432 3453.839111,706.632629 3452.611816,717.641846 
	C3429.496338,718.593445 3407.413086,718.675964 3385.329590,718.758545 
	C3367.944092,694.091675 3350.558838,669.424683 3332.671875,644.046204 
	C3361.808594,614.141174 3390.490967,584.702454 3419.512695,554.709900 
	C3426.811523,554.008240 3433.772461,553.703186 3440.730225,553.765320 
	C3445.776611,553.810364 3448.016602,551.710999 3447.851074,546.618103 
	C3447.667725,540.980103 3447.727051,535.329224 3447.854492,529.687866 
	C3447.935303,526.111816 3448.333984,522.542908 3448.663330,517.949158 
	C3479.100586,517.949158 3508.862305,517.949158 3539.532471,518.291260 
z"/>
<path fill="#020202" opacity="1.000000" stroke="none" 
	d="
M2447.698975,405.777252 
	C2454.923340,405.777252 2462.147705,405.777252 2470.376953,405.777252 
	C2470.376953,430.587677 2470.376953,454.374847 2470.194092,479.974487 
	C2470.081299,516.607056 2470.151123,551.427124 2470.058594,587.156433 
	C2469.872314,658.667297 2469.854248,729.268799 2469.810059,799.870361 
	C2469.807617,803.860229 2469.591064,807.849915 2469.474365,811.839722 
	C2447.211426,811.839722 2424.948486,811.839722 2401.627197,811.839722 
	C2401.627197,786.274292 2401.627197,761.075134 2401.787598,734.056885 
	C2402.019531,728.241760 2402.152344,724.245850 2402.152832,720.249878 
	C2402.163574,619.612244 2402.156494,518.974670 2402.174316,418.337036 
	C2402.175049,414.511658 2402.390869,410.686340 2402.539307,405.777252 
	C2418.474609,405.777252 2433.086670,405.777252 2447.698975,405.777252 
z"/>
<path fill="#8EB4E1" opacity="1.000000" stroke="none" 
	d="
M2447.752197,404.856842 
	C2433.086670,405.777252 2418.474609,405.777252 2402.539307,405.777252 
	C2402.390869,410.686340 2402.175049,414.511658 2402.174316,418.337036 
	C2402.156494,518.974670 2402.163574,619.612244 2402.152832,720.249878 
	C2402.152344,724.245850 2402.019531,728.241760 2401.660889,733.128784 
	C2388.433838,734.023193 2375.494141,734.026611 2361.670898,734.069946 
	C2363.832275,717.783142 2365.439697,701.471130 2362.417969,684.875671 
	C2360.061768,671.935303 2355.326416,660.143372 2347.727051,647.781860 
	C2347.566162,627.121887 2347.566162,608.049927 2347.566162,588.418335 
	C2337.108887,588.069641 2327.927490,587.763550 2318.746338,587.457397 
	C2329.510986,574.512451 2337.754395,560.367554 2340.488281,543.411987 
	C2346.751465,504.565094 2337.283691,471.682983 2304.312256,446.881836 
	C2317.629395,445.964325 2331.179932,445.648499 2345.861328,445.306305 
	C2345.861328,406.275116 2345.861328,367.855408 2345.861328,329.805939 
	C2353.862793,327.347900 2431.466797,326.617737 2446.185547,328.518188 
	C2446.401855,328.770996 2446.631104,329.014282 2446.831299,329.279327 
	C2447.026855,329.538116 2447.348145,329.818207 2447.349854,330.090790 
	C2447.518066,354.705902 2447.660889,379.321167 2447.752197,404.856842 
z"/>
<path fill="#8FB4E1" opacity="1.000000" stroke="none" 
	d="
M1673.624023,678.039795 
	C1673.325195,656.054077 1672.438232,634.139282 1665.722534,612.977356 
	C1649.234375,561.020874 1615.609741,527.082214 1561.516602,515.081726 
	C1557.638794,514.221497 1553.632568,513.939697 1549.135132,512.978149 
	C1558.871338,512.413452 1569.157959,512.168701 1579.445557,512.126099 
	C1597.102295,512.052856 1614.759766,512.105835 1632.416870,512.105835 
	C1635.697144,512.105835 1638.977417,512.105835 1643.610596,512.105835 
	C1643.610596,472.554016 1643.610596,433.800659 1643.610596,394.396881 
	C1687.416138,394.396881 1729.869751,394.396881 1773.583496,394.396881 
	C1774.100098,419.159119 1773.717773,443.692200 1773.070557,469.490326 
	C1758.710693,471.093018 1745.094971,471.402557 1731.480591,471.761414 
	C1727.943604,471.854645 1724.410645,472.101776 1719.911255,472.326416 
	C1719.911255,476.888000 1719.911255,480.479034 1719.911255,484.070038 
	C1719.911011,534.054810 1719.900635,584.039612 1719.929565,634.024414 
	C1719.931885,638.014709 1720.206543,642.004883 1720.236328,646.923828 
	C1719.914307,657.981262 1719.710571,668.109924 1719.506836,678.238647 
	C1704.509033,678.163147 1689.510986,678.087646 1673.624023,678.039795 
z"/>
<path fill="#F3DF7F" opacity="1.000000" stroke="none" 
	d="
M3307.721436,721.843567 
	C3317.195557,735.279724 3326.669678,748.715881 3336.133301,763.764526 
	C3336.056885,773.952026 3335.826416,782.529724 3335.970947,791.101135 
	C3336.118408,799.830750 3335.086670,808.666260 3336.787109,817.317688 
	C3349.971680,817.317688 3362.126953,817.317688 3374.282471,817.317688 
	C3374.607666,817.407715 3374.932861,817.497681 3375.629395,817.930176 
	C3376.001221,843.450684 3376.001221,868.628662 3376.001221,894.686584 
	C3371.775879,895.070435 3368.574219,895.612000 3365.372070,895.614807 
	C3307.184082,895.665955 3248.996094,895.670166 3190.808105,895.636169 
	C3180.452881,895.630127 3180.190674,895.352051 3180.176025,884.997620 
	C3180.145508,863.385376 3180.212158,841.773010 3180.386230,819.259644 
	C3198.486572,818.180542 3216.439209,817.996765 3234.391846,817.829163 
	C3237.976318,817.795715 3241.561523,817.824280 3246.171387,817.824280 
	C3246.171387,813.683350 3246.171387,810.455688 3246.171387,807.227966 
	C3246.171631,786.592773 3246.507324,765.949341 3246.001709,745.326538 
	C3245.808350,737.440552 3247.118652,730.962280 3253.633545,726.075928 
	C3254.947754,725.090515 3255.971924,723.718750 3258.653809,722.239624 
	C3276.025879,721.917297 3291.873535,721.880432 3307.721436,721.843567 
z"/>
<path fill="#8DB3E1" opacity="1.000000" stroke="none" 
	d="
M1438.919189,686.101929 
	C1428.354492,641.886597 1448.115479,599.762878 1480.713989,581.603455 
	C1525.339600,556.744202 1579.591553,577.163208 1597.661011,626.353333 
	C1606.680176,650.905640 1606.807739,675.965759 1598.960205,700.892700 
	C1585.629761,743.235901 1546.033936,765.599243 1504.971436,757.974854 
	C1504.138306,734.592041 1504.138306,711.286499 1504.138306,686.970337 
	C1492.907227,685.333374 1482.340088,686.328003 1471.855835,686.154968 
	C1461.192627,685.978882 1450.524536,686.112122 1438.919189,686.101929 
z"/>
<path fill="#8DB3E2" opacity="1.000000" stroke="none" 
	d="
M2662.281250,819.099731 
	C2694.673096,820.088440 2725.991455,813.983337 2754.531250,797.017578 
	C2796.539307,772.045410 2821.041992,734.996216 2829.106934,686.106567 
	C2829.783447,690.768860 2830.160400,696.064453 2830.163086,701.360168 
	C2830.201416,773.992188 2830.187744,846.624207 2830.187012,919.256226 
	C2830.187012,923.159668 2830.187256,927.063171 2830.187256,931.518188 
	C2781.134521,931.518188 2733.310547,931.518188 2684.038818,931.518188 
	C2683.965088,919.231323 2683.863770,907.054810 2683.826904,894.878174 
	C2683.790283,882.883972 2683.819092,870.889587 2683.819092,858.895325 
	C2683.819092,846.592773 2683.818848,834.290161 2683.818848,821.083252 
	C2676.500977,820.614258 2669.680908,820.177185 2662.281250,819.099731 
z"/>
<path fill="#8EB3E2" opacity="1.000000" stroke="none" 
	d="
M1072.811279,809.389771 
	C1064.466187,800.142639 1056.526611,790.377869 1048.889160,780.382202 
	C1023.655212,747.356384 998.530396,714.247070 973.219116,679.717773 
	C973.141235,675.953430 973.159180,673.638550 973.284485,671.329529 
	C973.556641,666.313477 971.314941,663.899292 966.212585,664.309753 
	C964.565979,664.442261 962.913025,664.496399 961.263000,664.586426 
	C949.739807,649.688660 938.216614,634.790833 926.830078,618.555542 
	C927.119019,602.102966 927.271301,586.987854 928.394775,571.794434 
	C950.844543,571.687866 972.323242,571.659058 993.801941,571.631897 
	C1000.080444,571.623962 1006.362549,571.487793 1012.636108,571.661194 
	C1017.052063,571.783203 1019.546570,570.056458 1020.807739,565.601868 
	C1038.461914,565.641541 1055.172729,565.622925 1072.069092,566.566162 
	C1072.184937,610.315063 1072.115234,653.102112 1072.018188,696.773804 
	C1072.634521,703.105652 1073.278076,708.552917 1073.921753,714.000183 
	C1073.889771,741.945251 1073.874512,769.890381 1073.805664,797.835327 
	C1073.796631,801.479309 1073.512329,805.122620 1072.811279,809.389771 
z"/>
<path fill="#8FB5E2" opacity="1.000000" stroke="none" 
	d="
M2106.281250,812.891479 
	C2139.657471,812.093384 2173.478516,812.002136 2207.299805,811.899475 
	C2215.591309,811.874268 2223.882568,811.811768 2233.041992,812.876343 
	C2233.854736,867.762878 2233.799316,921.539429 2233.743896,975.316040 
	C2216.783447,975.467163 2199.822998,975.690613 2182.862305,975.750977 
	C2161.567627,975.826782 2140.272705,975.787964 2118.977783,975.749084 
	C2115.717773,975.743103 2112.458252,975.470703 2108.316406,975.281189 
	C2108.132568,971.220215 2107.834717,967.679138 2107.832520,964.137756 
	C2107.801270,917.555298 2107.835938,870.972778 2107.765137,824.390442 
	C2107.759521,820.791138 2107.088379,817.192871 2106.281250,812.891479 
z"/>
<path fill="#E5F698" opacity="1.000000" stroke="none" 
	d="
M3556.041260,620.303711 
	C3553.398438,618.855408 3550.755615,617.407166 3547.855225,614.587158 
	C3547.625244,600.931824 3547.652832,588.648193 3547.680420,576.364563 
	C3554.804688,570.134155 3563.463623,568.288696 3572.548340,567.674500 
	C3590.498535,566.460876 3607.592529,570.432007 3624.074951,576.968018 
	C3633.915771,580.870544 3643.331055,585.851501 3652.910889,590.404236 
	C3655.546387,591.656799 3658.084961,593.112732 3661.217041,594.764709 
	C3670.177734,578.704285 3678.868896,563.126587 3687.727783,547.248291 
	C3665.861328,532.691650 3642.613525,523.387024 3617.748779,518.010132 
	C3594.427002,512.966980 3571.036621,511.916138 3546.854980,517.468811 
	C3546.083740,490.145630 3546.083740,462.923065 3546.083740,435.975037 
	C3554.102539,433.557831 3682.371338,433.153778 3693.968018,435.481110 
	C3693.968018,495.661377 3693.968018,556.081970 3692.910156,617.419922 
	C3675.597900,618.318298 3659.342773,618.200623 3643.090332,618.365723 
	C3639.936523,618.397705 3636.794189,619.532959 3632.744629,620.069763 
	C3606.575684,620.088013 3581.308594,620.195862 3556.041260,620.303711 
z"/>
<path fill="#8EB3E0" opacity="1.000000" stroke="none" 
	d="
M3419.351562,553.470459 
	C3395.190918,554.080933 3370.544434,554.214478 3345.907227,553.800171 
	C3340.440674,553.708252 3337.421143,556.314026 3334.176270,559.792480 
	C3307.828369,588.037354 3281.402588,616.209717 3255.024414,644.426758 
	C3252.766357,646.842468 3250.683350,649.421997 3248.743164,651.666138 
	C3247.508057,651.061768 3247.186523,650.955811 3246.929688,650.763550 
	C3246.697021,650.589294 3246.386475,650.333130 3246.366455,650.091797 
	C3246.256592,648.767029 3246.175537,647.435791 3246.175049,646.106812 
	C3246.135498,568.839966 3246.104736,491.573090 3246.103027,413.415466 
	C3276.050537,412.414886 3305.968506,412.298462 3335.886230,412.225708 
	C3336.825195,412.223450 3337.765137,412.672363 3339.704834,413.164948 
	C3340.757812,436.143372 3340.029297,459.298065 3340.163086,482.430023 
	C3340.295166,505.274231 3340.191650,528.119812 3340.191650,551.630493 
	C3344.640625,551.844543 3347.874268,552.127625 3351.108643,552.134705 
	C3370.398193,552.177124 3389.687500,552.126038 3408.977051,552.184753 
	C3412.274902,552.194763 3415.571777,552.582642 3419.351562,553.470459 
z"/>
<path fill="#F3DF7F" opacity="1.000000" stroke="none" 
	d="
M1335.845093,519.813782 
	C1334.158081,519.352539 1332.470947,518.891357 1330.146484,518.190308 
	C1329.575806,487.874847 1329.642578,457.799286 1329.662720,426.256378 
	C1329.545654,424.428070 1329.475098,424.067047 1329.404541,423.706024 
	C1329.540405,404.088745 1329.736084,384.471619 1329.796387,364.854095 
	C1329.864746,342.568970 1329.812256,320.283447 1329.812256,297.998108 
	C1329.812256,294.431732 1329.812134,290.865387 1329.812134,286.651367 
	C1366.038086,286.651367 1401.126221,286.651367 1437.689697,286.651367 
	C1437.765747,326.553894 1437.841431,366.317139 1437.747314,406.969818 
	C1436.657471,407.477692 1435.738403,406.765839 1434.817383,406.763123 
	C1413.618042,406.700317 1392.418579,406.714661 1369.781250,406.714661 
	C1369.781250,443.663574 1369.781250,480.047760 1368.892334,517.665649 
	C1357.283936,519.204102 1346.564575,519.508972 1335.845093,519.813782 
z"/>
<path fill="#8EB3E0" opacity="1.000000" stroke="none" 
	d="
M2680.068359,572.166626 
	C2680.359375,561.245178 2680.762451,550.325256 2680.904297,539.401855 
	C2681.012451,531.100037 2680.788574,522.794006 2680.897461,512.837524 
	C2681.353271,500.923553 2681.624023,490.661865 2681.894775,480.400146 
	C2682.638672,483.747681 2684.009277,487.091309 2684.030029,490.443329 
	C2684.248779,525.743896 2684.252441,561.045776 2684.216064,598.182129 
	C2682.433594,642.009583 2683.301758,705.912292 2685.899902,714.158325 
	C2689.610596,714.158325 2693.567627,714.128967 2697.524170,714.163391 
	C2715.167236,714.316895 2732.810547,714.488647 2750.453613,714.653809 
	C2739.043213,738.178833 2719.882080,752.200745 2694.890381,757.693054 
	C2640.376465,769.673401 2591.172852,733.136841 2585.641357,677.469482 
	C2583.402100,654.934937 2586.842041,633.635071 2598.157471,613.893860 
	C2604.705078,602.470276 2613.253662,592.788818 2626.208984,585.874390 
	C2636.713623,586.010254 2645.637939,586.266602 2654.559326,586.187195 
	C2663.345947,586.109009 2672.205811,586.867432 2682.156738,585.394165 
	C2681.353027,580.304810 2680.710693,576.235718 2680.068359,572.166626 
z"/>
<path fill="#8EB4E0" opacity="1.000000" stroke="none" 
	d="
M2004.119141,810.247559 
	C2004.119141,814.202820 2004.119141,818.158142 2004.119141,823.022827 
	C2000.646240,823.301086 1997.794678,823.728394 1994.943237,823.728821 
	C1926.697266,823.739075 1858.451294,823.703552 1789.200439,822.738586 
	C1788.146729,813.226440 1788.097900,804.651978 1788.730225,796.219788 
	C1813.009888,810.625000 1838.613892,817.869019 1866.160278,818.662659 
	C1906.684570,819.830139 1943.221558,809.321167 1974.005371,782.043701 
	C1980.141724,776.606506 1985.625977,770.433350 1991.978149,764.027588 
	C1984.552368,757.422363 1978.139038,751.692932 1971.697754,745.995056 
	C1965.293579,740.330078 1958.861206,734.696777 1952.324585,728.946960 
	C1947.997559,732.629272 1944.488159,735.651550 1940.940796,738.628784 
	C1924.440674,752.477295 1905.664185,761.035156 1884.094727,763.187988 
	C1842.190063,767.370544 1804.032837,747.508179 1791.470337,701.808716 
	C1790.462402,698.142090 1789.990479,694.328186 1789.098145,689.693054 
	C1839.618652,689.693054 1888.884033,689.693054 1939.067261,689.638428 
	C1960.499268,689.621887 1981.013428,689.660034 2001.651123,690.646606 
	C2001.821533,727.747620 2001.810059,763.900391 2002.010742,800.052002 
	C2002.029663,803.454285 2003.384644,806.849182 2004.119141,810.247559 
z"/>
<path fill="#040201" opacity="1.000000" stroke="none" 
	d="
M3081.775879,735.885559 
	C3086.531250,731.796753 3091.286377,727.707886 3095.299072,724.257690 
	C3108.853760,737.844971 3122.143799,751.166931 3135.965332,765.021606 
	C3121.598389,782.683350 3102.680176,796.831421 3079.481445,807.527832 
	C3059.659912,814.927368 3040.471680,818.099915 3020.657227,818.551636 
	C2954.427734,820.061646 2897.398682,782.062683 2874.899170,721.000305 
	C2873.654053,717.620789 2873.123535,713.977905 2872.260254,710.457642 
	C2894.477051,710.377563 2916.694092,710.283875 2938.910889,710.252747 
	C2940.185791,710.250977 2941.460938,710.759155 2943.379150,712.162720 
	C2944.652344,713.584900 2945.282227,713.874329 2945.912354,714.163757 
	C2945.912354,714.163757 2945.902344,714.005188 2945.702637,714.778687 
	C2973.033447,768.329956 3042.992920,773.417603 3081.775879,735.885559 
z"/>
<path fill="#8DB3E0" opacity="1.000000" stroke="none" 
	d="
M2470.446777,811.948975 
	C2469.591064,807.849915 2469.807617,803.860229 2469.810059,799.870361 
	C2469.854248,729.268799 2469.872314,658.667297 2470.981201,587.135864 
	C2494.420654,586.381958 2516.775146,586.557922 2539.129639,586.733826 
	C2524.468506,612.392212 2517.160400,639.839417 2517.581787,669.546997 
	C2518.427979,729.256592 2554.482910,783.078003 2609.703857,806.054626 
	C2613.682861,807.710205 2617.765137,809.117065 2622.345703,811.192261 
	C2610.278076,811.868164 2597.664307,812.086548 2585.050781,812.096741 
	C2547.173584,812.127441 2509.296387,812.077026 2470.446777,811.948975 
z"/>
<path fill="#FD985A" opacity="1.000000" stroke="none" 
	d="
M2539.622559,586.148193 
	C2516.775146,586.557922 2494.420654,586.381958 2471.143555,586.226562 
	C2470.151123,551.427124 2470.081299,516.607056 2470.320801,480.905396 
	C2471.409424,480.030151 2472.187988,480.036560 2474.167480,480.715637 
	C2476.667725,481.590912 2477.967285,481.970184 2479.266602,481.970825 
	C2541.641602,482.001526 2604.016602,482.018707 2666.391602,481.931366 
	C2668.894531,481.927856 2671.395996,480.899506 2673.898193,480.348633 
	C2674.809326,480.270691 2675.720703,480.192749 2677.311523,481.154114 
	C2678.000732,492.172089 2678.010010,502.150726 2678.019531,512.129395 
	C2661.503662,513.468567 2644.929443,514.194885 2628.853027,518.929077 
	C2590.940186,530.093628 2561.377441,552.274963 2539.622559,586.148193 
z"/>
<path fill="#020203" opacity="1.000000" stroke="none" 
	d="
M3031.512207,512.528625 
	C3041.644775,514.134033 3050.847412,515.386597 3059.875000,517.418762 
	C3089.481689,524.083618 3113.607422,539.889099 3134.628174,563.265015 
	C3120.925049,578.104919 3107.271729,592.890747 3093.073730,608.266357 
	C3090.154053,605.448914 3087.597412,602.967224 3085.024902,600.502014 
	C3066.544678,582.791321 3045.112061,571.977295 3018.968994,571.736694 
	C2991.752441,571.486328 2969.970459,582.310120 2953.105957,603.426819 
	C2951.030518,606.026062 2949.191650,608.814453 2946.610840,611.748901 
	C2945.895020,609.184753 2945.811523,606.386841 2945.762695,602.217224 
	C2945.171387,600.641418 2944.545166,600.437378 2943.919189,600.233398 
	C2923.607422,600.123291 2903.295898,600.013184 2881.932373,599.159851 
	C2885.715332,590.146179 2890.037354,581.519531 2895.486572,573.675964 
	C2908.785400,554.533752 2926.794922,540.583252 2947.486328,528.812317 
	C2961.667969,522.207642 2975.663574,517.358521 2990.419678,514.897522 
	C2996.585693,513.869202 3002.786377,513.050537 3008.971436,512.136536 
	C3016.148193,512.268616 3023.325195,512.400757 3031.512207,512.528625 
z"/>
<path fill="#E5F698" opacity="1.000000" stroke="none" 
	d="
M2946.791260,529.020142 
	C2926.794922,540.583252 2908.785400,554.533752 2895.486572,573.675964 
	C2890.037354,581.519531 2885.715332,590.146179 2880.931641,599.187134 
	C2875.760986,599.957642 2870.539307,599.957642 2864.696045,599.957642 
	C2864.478027,595.530518 2864.181152,592.286987 2864.178711,589.043152 
	C2864.135010,530.129211 2864.126221,471.215210 2864.113525,412.301239 
	C2864.113037,410.304352 2864.141357,408.307434 2864.166260,406.310608 
	C2864.218018,402.146027 2866.537598,400.308441 2870.491455,400.305725 
	C2895.079102,400.288849 2919.666992,400.297211 2945.187744,400.297211 
	C2946.962402,410.013611 2945.872314,419.255890 2946.072754,428.393982 
	C2946.269775,437.376526 2946.115967,446.366821 2946.115967,455.353699 
	C2946.115967,464.673431 2946.101562,473.993195 2946.120117,483.312897 
	C2946.137939,492.299072 2946.189941,501.285217 2946.184570,512.128906 
	C2946.358398,518.997742 2946.574951,524.008911 2946.791260,529.020142 
z"/>
<path fill="#8EB3E0" opacity="1.000000" stroke="none" 
	d="
M1788.179199,471.966827 
	C1821.390869,471.886597 1854.602539,471.772675 1887.814209,471.735046 
	C1925.014160,471.692902 1962.213989,471.719818 2000.539062,472.662231 
	C2001.728516,480.233765 2001.826416,486.859650 2001.851685,493.485779 
	C2001.971802,524.962402 2002.072144,556.439026 2002.078613,588.853149 
	C2001.839233,603.023193 2001.700806,616.255737 2001.134399,628.969360 
	C1999.054565,622.022644 1997.739502,615.485779 1995.699463,609.183594 
	C1970.748535,532.102417 1905.156982,503.998230 1837.635254,515.406860 
	C1819.989746,518.388245 1804.192505,525.832275 1788.438599,533.118652 
	C1788.235718,512.118591 1788.207520,492.042694 1788.179199,471.966827 
z"/>
<path fill="#FD995B" opacity="1.000000" stroke="none" 
	d="
M1063.720581,423.845551 
	C1039.134277,423.795532 1014.544983,423.937073 989.963684,423.561188 
	C983.795532,423.466827 979.484619,425.202454 975.260864,429.769958 
	C958.350159,448.057495 941.044373,465.979736 923.202026,483.445587 
	C922.287659,479.929840 922.056030,477.005615 921.824341,474.081360 
	C921.968628,465.430267 922.227051,456.779297 922.237305,448.128052 
	C922.282898,409.816193 922.257263,371.504272 922.257263,333.192352 
	C922.257263,329.585175 922.257263,325.977997 922.257263,322.672119 
	C930.482971,320.089966 1008.694397,319.763611 1019.321533,322.199036 
	C1019.321533,354.793549 1019.321533,387.634308 1019.321533,421.838776 
	C1034.735474,421.996674 1049.236572,422.145203 1064.410034,422.786438 
	C1064.725830,423.701416 1064.271851,423.890228 1063.720581,423.845551 
z"/>
<path fill="#E7F697" opacity="1.000000" stroke="none" 
	d="
M901.496521,966.259399 
	C900.437927,962.378235 900.112061,958.402649 900.108887,954.426880 
	C900.071716,907.561584 900.082947,860.696228 900.039795,812.916565 
	C899.998352,812.002197 899.945251,812.054688 900.886597,812.049805 
	C925.227173,811.933960 948.626343,811.822998 972.210205,811.810303 
	C972.394836,811.908691 972.692444,812.202759 972.692383,812.202759 
	C972.502014,816.182678 972.149780,820.162476 972.146118,824.142517 
	C972.106323,867.423096 972.121033,910.703735 972.120972,953.984314 
	C972.120972,957.549438 972.121033,961.114624 972.121033,966.164917 
	C948.095337,966.164917 925.237305,966.164917 901.496521,966.259399 
z"/>
<path fill="#8FB2E0" opacity="1.000000" stroke="none" 
	d="
M920.902832,474.091248 
	C922.056030,477.005615 922.287659,479.929840 922.606628,483.731689 
	C910.927185,497.289246 899.240173,510.044281 887.377686,522.634033 
	C860.192078,551.486450 832.926086,580.263123 805.674377,609.053162 
	C803.489075,611.361877 801.162659,613.537048 797.224854,617.433777 
	C797.224854,579.661804 797.224854,544.241577 797.224854,507.960693 
	C774.275696,507.960693 752.384155,507.960693 729.634216,507.935577 
	C731.503235,507.286407 734.225220,506.151764 736.959106,506.122406 
	C752.914551,505.950989 768.872681,506.038666 784.829956,506.038818 
	C788.095215,506.038849 791.360474,506.038818 795.739868,506.038818 
	C795.739868,495.423218 795.739868,485.627106 795.739868,474.527466 
	C806.895508,473.735626 817.082581,474.212433 827.229919,474.127289 
	C837.534912,474.040802 847.841248,474.108185 858.146973,474.108185 
	C868.452698,474.108185 878.758423,474.109100 889.064148,474.107941 
	C899.369873,474.106750 909.675598,474.103485 920.902832,474.091248 
z"/>
<path fill="#F4E183" opacity="1.000000" stroke="none" 
	d="
M577.291443,743.675537 
	C513.439453,743.678650 450.518951,743.678650 387.874512,743.678650 
	C385.425598,736.138672 384.910339,714.574890 386.616730,701.596436 
	C393.775970,699.567322 564.677979,698.694580 584.688965,700.657410 
	C585.046814,702.641602 585.749268,704.810669 585.776978,706.988342 
	C585.900024,716.649231 585.661438,726.316589 585.893738,735.973511 
	C586.027588,741.537659 583.736023,744.049011 577.291443,743.675537 
z"/>
<path fill="#E5F698" opacity="1.000000" stroke="none" 
	d="
M2234.693848,975.470520 
	C2233.799316,921.539429 2233.854736,867.762878 2233.965820,813.058899 
	C2252.856201,810.058411 2271.714111,808.178955 2289.812012,801.979370 
	C2316.439941,792.857666 2338.885742,778.427063 2353.342041,752.646362 
	C2353.897461,771.577148 2353.897461,790.841797 2353.897461,811.134277 
	C2345.194092,812.894653 2336.605469,811.777893 2328.135498,811.967468 
	C2319.158691,812.168335 2310.173828,812.012573 2301.192627,812.012573 
	C2292.627441,812.012573 2284.062256,812.012573 2274.327148,812.012573 
	C2274.327148,866.817444 2274.327148,920.519836 2274.327148,975.625000 
	C2260.670898,975.625000 2248.157227,975.625000 2234.693848,975.470520 
z"/>
<path fill="#E4F497" opacity="1.000000" stroke="none" 
	d="
M2751.025635,714.194824 
	C2732.810547,714.488647 2715.167236,714.316895 2697.524170,714.163391 
	C2693.567627,714.128967 2689.610596,714.158325 2685.899902,714.158325 
	C2683.301758,705.912292 2682.433594,642.009583 2684.330078,599.127197 
	C2724.532715,598.102844 2764.521973,597.959167 2804.511475,597.850403 
	C2807.833984,597.841370 2811.156738,598.069031 2815.032471,598.731689 
	C2790.378662,599.276672 2765.171875,599.276672 2738.343018,599.276672 
	C2765.626953,635.902588 2770.097900,673.641846 2751.025635,714.194824 
z"/>
<path fill="#E5F698" opacity="1.000000" stroke="none" 
	d="
M2001.562378,629.488220 
	C2001.700806,616.255737 2001.839233,603.023193 2002.998291,588.874634 
	C2015.927612,587.960876 2027.836548,587.963135 2039.745361,587.965393 
	C2039.883179,588.951233 2040.141846,589.937134 2040.141602,590.922913 
	C2040.117554,663.871521 2040.072998,736.820129 2039.867188,810.645020 
	C2028.455200,811.041748 2017.206177,810.562195 2005.038208,810.165100 
	C2003.384644,806.849182 2002.029663,803.454285 2002.010742,800.052002 
	C2001.810059,763.900391 2001.821533,727.747620 2001.767822,689.748535 
	C2001.765747,672.569763 2001.770264,657.237549 2001.795044,641.038574 
	C2001.730835,636.610596 2001.646606,633.049438 2001.562378,629.488220 
z"/>
<path fill="#FA975B" opacity="1.000000" stroke="none" 
	d="
M2039.934570,587.049927 
	C2027.836548,587.963135 2015.927612,587.960876 2003.099243,587.937134 
	C2002.072144,556.439026 2001.971802,524.962402 2001.851685,493.485779 
	C2001.826416,486.859650 2001.728516,480.233765 2001.424805,472.669556 
	C2001.362183,454.419647 2001.544800,437.108002 2001.710449,419.796204 
	C2001.744751,416.221039 2001.715576,412.645264 2001.715576,408.556519 
	C2043.329834,408.556519 2083.816895,408.556519 2124.964111,408.556519 
	C2125.394531,412.615204 2125.804199,416.478546 2126.349609,421.623749 
	C2160.963135,422.818542 2195.777588,421.452026 2231.128906,422.887451 
	C2196.443848,423.533020 2161.178467,423.672394 2125.912842,423.734772 
	C2100.288330,423.780090 2074.663574,423.709198 2049.039062,423.734680 
	C2046.454834,423.737274 2043.870728,424.048218 2040.123779,424.291595 
	C2040.123779,478.518616 2040.123779,532.326538 2039.934570,587.049927 
z"/>
<path fill="#E5F698" opacity="1.000000" stroke="none" 
	d="
M1787.427979,471.694397 
	C1788.207520,492.042694 1788.235718,512.118591 1788.056641,533.726990 
	C1758.666260,554.836914 1739.370728,581.808838 1728.969727,615.128784 
	C1725.831055,625.183594 1724.161011,635.696777 1721.452271,645.998779 
	C1721.086426,645.997559 1720.354614,645.995117 1720.354614,645.995117 
	C1720.206543,642.004883 1719.931885,638.014709 1719.929565,634.024414 
	C1719.900635,584.039612 1719.911011,534.054810 1719.911255,484.070038 
	C1719.911255,480.479034 1719.911255,476.888000 1719.911255,472.326416 
	C1724.410645,472.101776 1727.943604,471.854645 1731.480591,471.761414 
	C1745.094971,471.402557 1758.710693,471.093018 1773.067383,470.433960 
	C1778.098267,470.542572 1782.387451,470.982269 1787.427979,471.694397 
z"/>
<path fill="#E5F698" opacity="1.000000" stroke="none" 
	d="
M1063.710815,424.531921 
	C1064.271851,423.890228 1064.725830,423.701416 1065.298584,422.969940 
	C1073.625977,423.334167 1073.800049,423.333466 1073.832397,431.193726 
	C1073.945557,458.734924 1073.928101,486.276703 1073.911255,515.329102 
	C1073.882446,517.242676 1073.902710,517.645386 1073.391602,518.685913 
	C1072.689331,522.922119 1072.425293,526.518921 1072.364380,530.119141 
	C1072.164429,541.946838 1072.038208,553.775818 1071.883545,565.604309 
	C1055.172729,565.622925 1038.461914,565.641541 1020.766113,564.709106 
	C1019.774841,538.213806 1019.806946,512.669495 1019.728882,487.125549 
	C1019.713745,482.179291 1019.267944,477.234344 1019.020752,472.288757 
	C1033.914185,456.598602 1048.807617,440.908447 1063.710815,424.531921 
z"/>
<path fill="#FE9959" opacity="1.000000" stroke="none" 
	d="
M3761.730225,735.599548 
	C3761.721436,688.103210 3761.721436,641.570374 3761.721436,594.162231 
	C3775.979980,591.498413 3789.609863,592.598877 3803.759277,593.208557 
	C3803.759277,643.040955 3803.759277,691.816162 3803.759277,741.818481 
	C3790.600830,741.818481 3777.750488,741.946899 3764.913818,741.590454 
	C3763.809814,741.559814 3762.795166,738.314880 3761.730225,735.599548 
z"/>
<path fill="#8FB5E2" opacity="1.000000" stroke="none" 
	d="
M658.194458,428.000000 
	C658.194702,445.574615 658.194702,462.149261 658.194702,479.416199 
	C640.706543,479.416199 624.207031,479.416199 607.647644,479.416199 
	C605.411377,472.969940 604.684998,386.734070 607.033203,372.104065 
	C614.978394,372.104065 623.181030,372.104095 631.383606,372.104095 
	C639.683167,372.104095 647.982727,372.104065 657.435303,372.104065 
	C658.910583,381.668518 657.989319,390.895203 658.157959,400.030457 
	C658.323853,409.017487 658.194214,418.009918 658.194458,428.000000 
z"/>
<path fill="#FC995A" opacity="1.000000" stroke="none" 
	d="
M3632.931641,811.751343 
	C3638.133545,808.677490 3643.005615,806.631958 3647.704834,804.245728 
	C3671.694336,792.064636 3686.680420,772.861877 3692.887695,745.941650 
	C3693.659180,747.981750 3694.215820,750.598145 3694.219482,753.215393 
	C3694.278564,793.153442 3694.276367,833.091492 3694.247559,873.029602 
	C3694.245850,875.621216 3693.916504,878.212585 3693.700439,881.380371 
	C3673.811768,881.380371 3654.380615,881.380371 3634.380127,881.380371 
	C3633.753906,858.204407 3633.138184,835.413391 3632.931641,811.751343 
z"/>
<path fill="#F9995D" opacity="1.000000" stroke="none" 
	d="
M2871.468750,710.464233 
	C2873.123535,713.977905 2873.654053,717.620789 2874.899170,721.000305 
	C2897.398682,782.062683 2954.427734,820.061646 3020.657227,818.551636 
	C3040.471680,818.099915 3059.659912,814.927368 3078.932617,807.993896 
	C3079.859863,811.335388 3080.047852,814.573059 3080.315430,819.184265 
	C3008.214844,819.906616 2936.984375,819.157654 2865.378418,819.182129 
	C2864.924561,816.069214 2864.410889,814.175720 2864.407715,812.281372 
	C2864.356689,781.349365 2864.395508,750.417297 2864.341553,719.485352 
	C2864.333496,714.864441 2864.415771,710.565613 2871.468750,710.464233 
z"/>
<path fill="#FC9859" opacity="1.000000" stroke="none" 
	d="
M3081.233887,735.301270 
	C3042.992920,773.417603 2973.033447,768.329956 2945.653809,714.841187 
	C2950.117188,713.951538 2954.429688,713.622620 2958.742432,713.617798 
	C2995.380615,713.577026 3032.019043,713.557983 3068.656982,713.654419 
	C3072.228027,713.663818 3075.796875,714.494873 3079.976074,715.625671 
	C3080.621338,722.443542 3080.656738,728.580261 3081.233887,735.301270 
z"/>
<path fill="#E4F497" opacity="1.000000" stroke="none" 
	d="
M1720.236328,646.923828 
	C1720.354614,645.995117 1721.086426,645.997559 1721.572266,646.929749 
	C1721.854614,651.854614 1721.576416,655.845093 1721.459473,659.840271 
	C1720.200806,702.869507 1731.483887,741.620178 1761.586914,773.417786 
	C1769.526855,781.804871 1779.181641,788.568542 1788.049072,796.077637 
	C1788.097900,804.651978 1788.146729,813.226440 1788.289795,822.683472 
	C1766.140503,823.566040 1743.897095,823.566040 1720.472778,823.566040 
	C1720.263672,819.838379 1719.899658,816.338806 1719.896729,812.838989 
	C1719.864014,773.577393 1719.894409,734.315735 1719.885620,695.054138 
	C1719.884521,690.064331 1719.757324,685.074585 1719.597656,679.161682 
	C1719.710571,668.109924 1719.914307,657.981262 1720.236328,646.923828 
z"/>
<path fill="#8DB1DB" opacity="1.000000" stroke="none" 
	d="
M1138.395142,812.435608 
	C1155.019775,818.363037 1172.323975,819.381653 1189.535522,817.102966 
	C1200.577026,815.641052 1211.245361,811.360229 1222.755127,808.274658 
	C1222.962769,811.756226 1222.137085,815.301636 1222.092529,818.856934 
	C1221.910889,833.324158 1221.968506,847.794434 1221.814209,863.212158 
	C1194.247314,864.160706 1166.804321,864.160706 1138.195435,864.160706 
	C1138.195435,846.388550 1138.195435,829.885193 1138.395142,812.435608 
z"/>
<path fill="#F9995D" opacity="1.000000" stroke="none" 
	d="
M3385.540283,719.398621 
	C3407.413086,718.675964 3429.496338,718.593445 3452.457520,718.609619 
	C3453.377930,750.750977 3453.420166,782.793579 3453.074707,815.586243 
	C3437.666748,794.904175 3422.607422,773.499329 3407.643066,752.028320 
	C3400.255371,741.428101 3393.042969,730.705750 3385.540283,719.398621 
z"/>
<path fill="#FC995A" opacity="1.000000" stroke="none" 
	d="
M3633.646484,620.159302 
	C3636.794189,619.532959 3639.936523,618.397705 3643.090332,618.365723 
	C3659.342773,618.200623 3675.597900,618.318298 3692.760010,618.372620 
	C3693.868652,632.014343 3694.156006,645.620178 3694.248047,659.227417 
	C3694.357910,675.506958 3694.301270,691.787659 3694.078125,708.955933 
	C3685.733398,677.968872 3662.124268,661.467224 3633.757324,648.030029 
	C3633.577393,637.779297 3633.611816,628.969360 3633.646484,620.159302 
z"/>
<path fill="#8DB1DB" opacity="1.000000" stroke="none" 
	d="
M1524.517578,512.180908 
	C1520.809448,513.321899 1516.276489,514.108337 1511.770508,515.027405 
	C1484.868042,520.514404 1463.517334,534.987183 1446.040527,555.712769 
	C1443.776123,558.397949 1441.487183,561.062317 1437.468750,563.267090 
	C1437.468750,546.823242 1437.468750,530.379333 1437.720947,513.042114 
	C1466.550537,512.061707 1495.127930,511.974670 1524.517578,512.180908 
z"/>
<path fill="#8EB4E0" opacity="1.000000" stroke="none" 
	d="
M1503.874512,814.845642 
	C1545.897095,823.908264 1583.908203,815.285217 1619.071777,789.769287 
	C1619.118774,793.551025 1618.118896,797.406555 1617.904175,801.305237 
	C1617.556274,807.618530 1617.741211,813.960449 1617.645874,820.289429 
	C1617.636475,820.911438 1617.241333,821.527588 1617.020996,822.144897 
	C1609.988525,824.141968 1522.300415,824.858398 1504.806885,822.962280 
	C1504.483032,820.688354 1504.128418,818.199097 1503.874512,814.845642 
z"/>
<path fill="#8DB1DB" opacity="1.000000" stroke="none" 
	d="
M2947.486328,528.812317 
	C2946.574951,524.008911 2946.358398,518.997742 2946.284180,513.070496 
	C2966.751221,511.989746 2987.075439,511.825012 3008.185547,511.898407 
	C3002.786377,513.050537 2996.585693,513.869202 2990.419678,514.897522 
	C2975.663574,517.358521 2961.667969,522.207642 2947.486328,528.812317 
z"/>
<path fill="#F9995D" opacity="1.000000" stroke="none" 
	d="
M2672.978760,480.205383 
	C2671.395996,480.899506 2668.894531,481.927856 2666.391602,481.931366 
	C2604.016602,482.018707 2541.641602,482.001526 2479.266602,481.970825 
	C2477.967285,481.970184 2476.667725,481.590912 2474.740234,480.868530 
	C2475.770508,480.228424 2477.429199,480.002747 2479.087891,480.002930 
	C2543.411621,480.009796 2607.735596,480.037323 2672.978760,480.205383 
z"/>
<path fill="#8DB3E0" opacity="1.000000" stroke="none" 
	d="
M3526.408691,808.375000 
	C3541.505615,813.536377 3557.271240,815.375366 3573.832031,817.466919 
	C3559.091309,817.814087 3543.574951,817.814087 3526.982910,817.814087 
	C3526.716309,814.861633 3526.462891,812.053589 3526.408691,808.375000 
z"/>
<path fill="#8DB1DB" opacity="1.000000" stroke="none" 
	d="
M972.495972,790.153564 
	C978.080078,797.109375 983.664246,804.065186 989.724121,811.512085 
	C984.919739,812.039734 979.639648,812.076233 973.526001,812.157715 
	C972.692444,812.202759 972.394836,811.908691 972.286865,810.924805 
	C972.284546,803.345154 972.390259,796.749329 972.495972,790.153564 
z"/>
<path fill="#8DB1DB" opacity="1.000000" stroke="none" 
	d="
M1074.032471,713.110596 
	C1073.278076,708.552917 1072.634521,703.105652 1072.902344,697.105835 
	C1092.041504,696.593994 1110.269409,696.578613 1128.495972,696.727783 
	C1131.702271,696.754028 1134.903076,697.468872 1137.927490,698.033447 
	C1137.748779,698.201111 1137.372803,698.515747 1137.372803,698.515747 
	C1116.851318,698.515747 1096.329712,698.515747 1074.514160,698.515747 
	C1074.385254,703.273254 1074.264160,707.747070 1074.032471,713.110596 
z"/>
<path fill="#F9995D" opacity="1.000000" stroke="none" 
	d="
M2678.572754,512.370239 
	C2678.010010,502.150726 2678.000732,492.172089 2677.987305,481.287933 
	C2678.851318,480.339172 2679.719727,480.295898 2681.241211,480.326355 
	C2681.624023,490.661865 2681.353271,500.923553 2680.704102,511.963501 
	C2679.925781,512.698181 2679.525879,512.654602 2678.572754,512.370239 
z"/>
<path fill="#8DB1DB" opacity="1.000000" stroke="none" 
	d="
M1073.922852,518.048035 
	C1073.902710,517.645386 1073.882446,517.242676 1073.969238,516.242798 
	C1085.526733,515.248901 1096.977417,514.852356 1109.130493,513.988281 
	C1109.885376,514.508179 1109.937744,515.495667 1109.083740,517.424561 
	C1096.759155,518.260071 1085.341064,518.154053 1073.922852,518.048035 
z"/>
<path fill="#8DB1DB" opacity="1.000000" stroke="none" 
	d="
M1141.982666,703.477905 
	C1141.213867,704.164001 1140.480469,704.187561 1139.158813,704.305786 
	C1138.253296,702.940369 1137.936035,701.480225 1137.495728,699.267944 
	C1137.372803,698.515747 1137.748779,698.201111 1138.494629,698.086670 
	C1139.618286,698.009949 1139.996094,698.047791 1140.374023,698.085632 
	C1140.922119,699.662170 1141.470093,701.238770 1141.982666,703.477905 
z"/>
<path fill="#8DB1DB" opacity="1.000000" stroke="none" 
	d="
M1113.598389,500.395569 
	C1113.754272,501.074829 1113.493530,502.109131 1112.826904,503.491028 
	C1112.674683,502.809326 1112.928223,501.779968 1113.598389,500.395569 
z"/>
<path fill="#8DB1DB" opacity="1.000000" stroke="none" 
	d="
M1127.595703,458.383484 
	C1127.753296,459.061127 1127.496948,460.097992 1126.836426,461.485016 
	C1126.682007,460.804352 1126.931885,459.773560 1127.595703,458.383484 
z"/>
<path fill="#8DB1DB" opacity="1.000000" stroke="none" 
	d="
M1119.597168,482.389954 
	C1119.754883,483.067810 1119.497314,484.102325 1118.835938,485.486023 
	C1118.682007,484.805695 1118.931885,483.776123 1119.597168,482.389954 
z"/>
<path fill="#8DB1DB" opacity="1.000000" stroke="none" 
	d="
M1123.597778,470.391235 
	C1123.756104,471.069000 1123.498657,472.102509 1122.838135,473.485107 
	C1122.684082,472.805145 1122.933105,471.776062 1123.597778,470.391235 
z"/>
<path fill="#8DB1DB" opacity="1.000000" stroke="none" 
	d="
M1111.595703,506.383484 
	C1111.753296,507.061188 1111.496826,508.098145 1110.835938,509.485107 
	C1110.681641,508.804352 1110.931763,507.773560 1111.595703,506.383484 
z"/>
<path fill="#8DB1DB" opacity="1.000000" stroke="none" 
	d="
M1121.598633,476.396423 
	C1121.755615,477.074982 1121.495728,478.107971 1120.831299,479.488678 
	C1120.678467,478.807861 1120.930054,477.779327 1121.598633,476.396423 
z"/>
<path fill="#8DB1DB" opacity="1.000000" stroke="none" 
	d="
M1117.597778,488.392151 
	C1117.755615,489.070679 1117.496948,490.104492 1116.834351,491.487061 
	C1116.680664,490.806366 1116.930908,489.776917 1117.597778,488.392151 
z"/>
<path fill="#8DB1DB" opacity="1.000000" stroke="none" 
	d="
M1133.597778,440.392151 
	C1133.755615,441.070679 1133.496948,442.104492 1132.834351,443.487061 
	C1132.680786,442.806396 1132.931030,441.776947 1133.597778,440.392151 
z"/>
<path fill="#8DB1DB" opacity="1.000000" stroke="none" 
	d="
M1137.597412,428.390442 
	C1137.754150,429.068695 1137.495483,430.103882 1136.831787,431.487732 
	C1136.678467,430.806671 1136.930298,429.777008 1137.597412,428.390442 
z"/>
<path fill="#8DB1DB" opacity="1.000000" stroke="none" 
	d="
M1115.597900,494.391449 
	C1115.756104,495.069305 1115.498535,496.102875 1114.837891,497.485474 
	C1114.683838,496.805389 1114.932983,495.776276 1115.597900,494.391449 
z"/>
<path fill="#8DB1DB" opacity="1.000000" stroke="none" 
	d="
M1135.597168,434.389954 
	C1135.754883,435.067841 1135.497314,436.102325 1134.835938,437.486023 
	C1134.682129,436.805725 1134.932007,435.776154 1135.597168,434.389954 
z"/>
<path fill="#8DB1DB" opacity="1.000000" stroke="none" 
	d="
M1129.598389,452.395569 
	C1129.754395,453.074860 1129.493530,454.109131 1128.826904,455.491028 
	C1128.674683,454.809326 1128.928223,453.779968 1129.598389,452.395569 
z"/>
<path fill="#8DB1DB" opacity="1.000000" stroke="none" 
	d="
M1125.597534,464.392029 
	C1125.755371,465.070435 1125.496826,466.104401 1124.834473,467.487091 
	C1124.680664,466.806396 1124.930908,465.776978 1125.597534,464.392029 
z"/>
<path fill="#8DB1DB" opacity="1.000000" stroke="none" 
	d="
M1131.597900,446.391418 
	C1131.756104,447.069305 1131.498535,448.102875 1130.837769,449.485474 
	C1130.683716,448.805389 1130.932861,447.776276 1131.597900,446.391418 
z"/>
<path fill="#FC9859" opacity="1.000000" stroke="none" 
	d="
M2945.933594,713.486938 
	C2945.282227,713.874329 2944.652344,713.584900 2944.039062,712.694397 
	C2944.056152,712.093384 2944.830078,711.768555 2945.224365,711.633301 
	C2945.730713,711.935364 2945.843018,712.372742 2945.933594,713.486938 
z"/>
<path fill="#8EB3E2" opacity="1.000000" stroke="none" 
	d="
M2944.058105,600.628601 
	C2944.545166,600.437378 2945.171387,600.641418 2945.653320,601.383545 
	C2944.878662,601.904419 2944.441162,601.605164 2944.058105,600.628601 
z"/>
<path fill="#8DB1DB" opacity="1.000000" stroke="none" 
	d="
M1329.042847,423.784546 
	C1329.475098,424.067047 1329.545654,424.428070 1329.490723,425.325745 
	C1328.898315,425.612885 1328.536011,425.256836 1328.125977,424.437744 
	C1327.973755,424.081207 1328.681152,423.863037 1329.042847,423.784546 
z"/>
<path fill="#8DB1DB" opacity="1.000000" stroke="none" 
	d="
M1139.548096,424.306610 
	C1139.795898,424.716644 1139.507568,425.144806 1138.761475,425.686188 
	C1138.387329,425.258209 1138.623413,424.766663 1139.548096,424.306610 
z"/>
<path fill="#FD9859" opacity="1.000000" stroke="none" 
	d="
M2114.375000,645.853088 
	C2155.603516,646.001831 2196.848389,645.555725 2238.048828,646.709045 
	C2248.615234,647.004822 2259.523926,651.251709 2269.422607,655.617371 
	C2286.488281,663.143921 2295.048096,677.427185 2295.574219,695.978638 
	C2296.115234,715.064392 2288.716064,730.299622 2271.802734,740.146301 
	C2256.331299,749.153442 2239.171387,751.316467 2221.767578,751.447449 
	C2185.159668,751.722900 2148.548340,751.522339 2111.620117,750.826660 
	C2112.169678,748.507019 2113.670410,746.920837 2113.784668,745.240417 
	C2114.121094,740.291748 2113.887695,735.305725 2113.913818,730.334473 
	C2114.061768,702.174011 2114.219971,674.013550 2114.375000,645.853088 
z"/>
<path fill="#8DB3E2" opacity="1.000000" stroke="none" 
	d="
M2124.894043,484.510162 
	C2155.166016,484.420105 2185.441895,484.033386 2215.708252,484.396759 
	C2226.677979,484.528442 2237.369873,487.313477 2247.529297,491.934082 
	C2283.107422,508.115479 2280.423584,556.393738 2254.160400,573.575989 
	C2242.432129,581.248901 2229.492676,585.617920 2215.712158,585.951782 
	C2186.444824,586.660828 2157.155762,586.462036 2126.815430,585.511108 
	C2125.729736,554.730896 2125.730469,525.074951 2125.643799,495.419250 
	C2125.633301,491.782196 2125.155273,488.146515 2124.894043,484.510162 
z"/>
<path fill="#F9995D" opacity="1.000000" stroke="none" 
	d="
M2318.306152,587.667114 
	C2327.927490,587.763550 2337.108887,588.069641 2347.566162,588.418335 
	C2347.566162,608.049927 2347.566162,627.121887 2347.448486,647.118225 
	C2331.670410,629.813843 2311.418213,618.443359 2289.191650,610.630737 
	C2299.325928,602.588867 2308.595947,595.232849 2318.306152,587.667114 
z"/>
<path fill="#F9995D" opacity="1.000000" stroke="none" 
	d="
M2124.092285,484.370911 
	C2125.155273,488.146515 2125.633301,491.782196 2125.643799,495.419250 
	C2125.730469,525.074951 2125.729736,554.730896 2125.893555,585.335083 
	C2120.482910,586.674805 2114.934082,587.066223 2109.589600,587.443176 
	C2107.461426,579.510132 2106.929932,498.423370 2108.825684,484.231659 
	C2113.517090,484.231659 2118.403809,484.231659 2124.092285,484.370911 
z"/>
<path fill="#F4E183" opacity="1.000000" stroke="none" 
	d="
M2113.702393,645.528687 
	C2114.219971,674.013550 2114.061768,702.174011 2113.913818,730.334473 
	C2113.887695,735.305725 2114.121094,740.291748 2113.784668,745.240417 
	C2113.670410,746.920837 2112.169678,748.507019 2110.722412,750.585205 
	C2109.362061,749.805664 2107.904541,748.579773 2107.899658,747.348267 
	C2107.773438,714.856018 2107.837891,682.363098 2107.742920,649.870667 
	C2107.731445,645.912415 2109.082031,644.288635 2113.702393,645.528687 
z"/>
<path fill="#FC9859" opacity="1.000000" stroke="none" 
	d="
M1335.764404,520.767822 
	C1346.564575,519.508972 1357.283936,519.204102 1368.736572,518.611755 
	C1369.594116,521.972473 1369.825806,525.620728 1369.827148,529.269043 
	C1369.861694,622.766541 1369.872437,716.264099 1369.881226,810.662170 
	C1359.097778,811.668823 1348.320190,811.774963 1336.597900,811.742554 
	C1335.663330,714.976624 1335.673584,618.349243 1335.764404,520.767822 
z"/>
<path fill="#E7F697" opacity="1.000000" stroke="none" 
	d="
M900.025513,811.976196 
	C866.332947,811.934875 832.613220,811.919434 797.872375,811.896484 
	C796.944458,780.447937 797.037659,749.006897 798.358887,716.684326 
	C832.909912,715.728882 866.232910,715.655090 899.704712,716.534302 
	C899.884216,749.009705 899.914734,780.532227 899.945251,812.054688 
	C899.945251,812.054688 899.998352,812.002197 900.025513,811.976196 
z"/>
<path fill="#FC995A" opacity="1.000000" stroke="none" 
	d="
M900.886597,812.049805 
	C899.914734,780.532227 899.884216,749.009705 899.837891,715.659363 
	C900.135864,707.777222 900.449585,701.722961 900.763245,695.668701 
	C914.709900,713.759521 928.704956,731.813293 942.586914,749.953613 
	C952.453674,762.846924 962.168091,775.856873 972.223206,789.484131 
	C972.390259,796.749329 972.284546,803.345154 972.102173,810.826416 
	C948.626343,811.822998 925.227173,811.933960 900.886597,812.049805 
z"/>
<path fill="#8EB4E0" opacity="1.000000" stroke="none" 
	d="
M900.512329,695.004395 
	C900.449585,701.722961 900.135864,707.777222 899.689026,714.706421 
	C866.232910,715.655090 832.909912,715.728882 798.628418,715.761230 
	C795.311646,705.130432 798.158813,696.977112 806.391968,689.156616 
	C823.728760,672.688782 839.972534,655.070251 857.316345,637.254822 
	C871.907471,656.650208 886.084412,675.495117 900.512329,695.004395 
z"/>
<path fill="#F9995D" opacity="1.000000" stroke="none" 
	d="
M1018.507935,472.541168 
	C1019.267944,477.234344 1019.713745,482.179291 1019.728882,487.125549 
	C1019.806946,512.669495 1019.774841,538.213806 1019.822815,564.650757 
	C1019.546570,570.056458 1017.052063,571.783203 1012.636108,571.661194 
	C1006.362549,571.487793 1000.080444,571.623962 993.801941,571.631897 
	C972.323242,571.659058 950.844543,571.687866 928.010986,571.614746 
	C926.260559,570.783447 925.865051,570.053467 925.469482,569.323486 
	C939.889954,554.136353 954.251709,538.892883 968.746521,523.777039 
	C985.100220,506.722595 1001.573608,489.783051 1018.507935,472.541168 
z"/>
<path fill="#F6DB08" opacity="1.000000" stroke="none" 
	d="
M924.963318,569.522339 
	C925.865051,570.053467 926.260559,570.783447 927.039856,571.693115 
	C927.271301,586.987854 927.119019,602.102966 926.547852,617.991577 
	C918.991150,609.757385 911.853271,600.749634 903.938416,590.761414 
	C910.896729,583.626221 917.676941,576.673767 924.963318,569.522339 
z"/>
<path fill="#F9995D" opacity="1.000000" stroke="none" 
	d="
M961.488159,665.227539 
	C962.913025,664.496399 964.565979,664.442261 966.212585,664.309753 
	C971.314941,663.899292 973.556641,666.313477 973.284485,671.329529 
	C973.159180,673.638550 973.141235,675.953430 972.873352,679.064880 
	C969.019165,675.198975 965.366211,670.533875 961.488159,665.227539 
z"/>
<path fill="#FA975B" opacity="1.000000" stroke="none" 
	d="
M3374.116455,816.689392 
	C3362.126953,817.317688 3349.971680,817.317688 3336.787109,817.317688 
	C3335.086670,808.666260 3336.118408,799.830750 3335.970947,791.101135 
	C3335.826416,782.529724 3336.056885,773.952026 3336.310791,764.427124 
	C3346.711914,777.738098 3356.933105,791.993164 3367.131592,806.264404 
	C3369.444580,809.501282 3371.679443,812.794128 3374.116455,816.689392 
z"/>
<path fill="#8DB1DB" opacity="1.000000" stroke="none" 
	d="
M3307.573730,721.198486 
	C3291.873535,721.880432 3276.025879,721.917297 3259.273926,721.913452 
	C3267.530273,711.963501 3276.690918,702.054260 3286.905518,691.004944 
	C3294.115967,701.388000 3300.770996,710.970764 3307.573730,721.198486 
z"/>
<path fill="#030304" opacity="1.000000" stroke="none" 
	d="
M1140.215332,697.154114 
	C1139.996094,698.047791 1139.618286,698.009949 1138.673462,697.918945 
	C1134.903076,697.468872 1131.702271,696.754028 1128.495972,696.727783 
	C1110.269409,696.578613 1092.041504,696.593994 1072.929688,696.221313 
	C1072.115234,653.102112 1072.184937,610.315063 1072.069092,566.566162 
	C1072.038208,553.775818 1072.164429,541.946838 1072.364380,530.119141 
	C1072.425293,526.518921 1072.689331,522.922119 1073.391602,518.685913 
	C1085.341064,518.154053 1096.759155,518.260071 1109.096313,518.163208 
	C1119.558350,517.960266 1129.101562,517.960266 1140.056519,517.960266 
	C1140.056519,578.293213 1140.056519,637.257935 1140.215332,697.154114 
z"/>
<path fill="#E4F497" opacity="1.000000" stroke="none" 
	d="
M1261.540771,716.093262 
	C1256.015015,735.697571 1242.336060,747.414917 1222.680908,753.692322 
	C1221.930176,752.799133 1221.912231,751.950073 1221.912109,749.563721 
	C1222.076050,737.371826 1222.222046,726.717102 1222.368042,716.062439 
	C1222.368042,716.062439 1223.229614,716.068359 1224.573486,716.045166 
	C1237.250732,715.950378 1248.584351,715.878723 1259.917847,715.807068 
	C1260.276733,715.882507 1260.635498,715.957947 1261.540771,716.093262 
z"/>
<path fill="#8DB1DB" opacity="1.000000" stroke="none" 
	d="
M1259.314941,715.252625 
	C1248.584351,715.878723 1237.250732,715.950378 1224.991699,715.942444 
	C1225.512817,715.248474 1226.962769,714.097046 1228.405518,714.106079 
	C1238.508545,714.169250 1248.610107,714.472046 1259.314941,715.252625 
z"/>
<path fill="#8DB1DB" opacity="1.000000" stroke="none" 
	d="
M1221.681885,716.566040 
	C1222.222046,726.717102 1222.076050,737.371826 1221.794922,748.936462 
	C1218.623291,738.977844 1219.675171,728.026489 1221.681885,716.566040 
z"/>
<path fill="#8DB1DB" opacity="1.000000" stroke="none" 
	d="
M1189.465332,755.015991 
	C1188.726807,755.298706 1187.544922,755.168884 1185.913818,754.629272 
	C1186.650391,754.347473 1187.836182,754.475403 1189.465332,755.015991 
z"/>
<path fill="#8DB1DB" opacity="1.000000" stroke="none" 
	d="
M1265.445801,704.171631 
	C1265.807251,704.354492 1265.865601,704.690918 1265.697021,705.486389 
	C1265.231079,705.588623 1264.951782,705.249756 1264.780396,704.863098 
	C1264.733887,704.757874 1265.013062,704.508362 1265.445801,704.171631 
z"/>
<path fill="#8DB1DB" opacity="1.000000" stroke="none" 
	d="
M1143.792969,712.098450 
	C1143.190308,712.236816 1142.828613,711.742371 1142.792358,710.599670 
	C1143.367798,710.520935 1143.673218,711.025696 1143.792969,712.098450 
z"/>
<path fill="#8DB1DB" opacity="1.000000" stroke="none" 
	d="
M1218.181152,754.233887 
	C1218.315796,754.868835 1217.808105,755.215820 1216.646973,755.192749 
	C1216.576416,754.594116 1217.091553,754.301880 1218.181152,754.233887 
z"/>
<path fill="#8DB1DB" opacity="1.000000" stroke="none" 
	d="
M1161.711304,742.774658 
	C1161.385986,743.092041 1161.025391,742.929810 1160.731567,742.208191 
	C1161.023926,742.051880 1161.316406,742.267334 1161.711304,742.774658 
z"/>
<path fill="#8DB1DB" opacity="1.000000" stroke="none" 
	d="
M1159.910645,741.063354 
	C1159.520630,741.387756 1159.080200,741.151611 1158.694092,740.273865 
	C1159.045410,740.098389 1159.416016,740.388550 1159.910645,741.063354 
z"/>
<path fill="#8DB1DB" opacity="1.000000" stroke="none" 
	d="
M1157.956787,739.126282 
	C1157.586182,739.449707 1157.197266,739.252686 1156.908691,738.455200 
	C1157.260010,738.274048 1157.569702,738.524353 1157.956787,739.126282 
z"/>
<path fill="#8DB1DB" opacity="1.000000" stroke="none" 
	d="
M1269.683228,518.196777 
	C1269.736084,518.530273 1269.266968,518.917725 1268.348633,519.471985 
	C1268.209961,519.094604 1268.630615,518.631897 1269.683228,518.196777 
z"/>
<path fill="#F9995D" opacity="1.000000" stroke="none" 
	d="
M2679.148926,572.106079 
	C2680.710693,576.235718 2681.353027,580.304810 2682.156738,585.394165 
	C2672.205811,586.867432 2663.345947,586.109009 2654.559326,586.187195 
	C2645.637939,586.266602 2636.713623,586.010254 2626.886475,585.671021 
	C2641.706299,574.377319 2659.474121,571.285950 2679.148926,572.106079 
z"/>
<path fill="#8DB1DB" opacity="1.000000" stroke="none" 
	d="
M3632.744629,620.069824 
	C3633.611816,628.969360 3633.577393,637.779297 3633.249023,647.500122 
	C3607.575684,639.405579 3582.196533,630.400269 3556.429199,620.849365 
	C3581.308594,620.195862 3606.575684,620.088013 3632.744629,620.069824 
z"/>
<path fill="#8DB1DB" opacity="1.000000" stroke="none" 
	d="
M3547.066895,576.564758 
	C3547.652832,588.648193 3547.625244,600.931824 3547.355469,614.005920 
	C3534.082764,603.349121 3533.861328,590.583862 3547.066895,576.564758 
z"/>
<path fill="#020203" opacity="1.000000" stroke="none" 
	d="
M1788.730225,796.219849 
	C1779.181641,788.568542 1769.526855,781.804871 1761.586914,773.417786 
	C1731.483887,741.620178 1720.200806,702.869507 1721.459473,659.840271 
	C1721.576416,655.845093 1721.854614,651.854614 1721.937988,646.930908 
	C1724.161011,635.696777 1725.831055,625.183594 1728.969727,615.128784 
	C1739.370728,581.808838 1758.666260,554.836914 1788.231201,534.651123 
	C1804.192505,525.832275 1819.989746,518.388245 1837.635254,515.406860 
	C1905.156982,503.998230 1970.748535,532.102417 1995.699463,609.183594 
	C1997.739502,615.485779 1999.054565,622.022644 2001.134399,628.969360 
	C2001.646606,633.049438 2001.730835,636.610596 2000.882202,641.102173 
	C1980.054565,642.124023 1960.159912,642.215515 1939.538208,642.003845 
	C1937.891357,638.552612 1936.781982,635.445862 1936.085449,632.249146 
	C1933.510254,620.431458 1929.339478,609.283752 1922.642700,599.153442 
	C1907.024414,575.527466 1879.359253,563.872070 1851.500366,569.171082 
	C1817.132935,575.708252 1791.419922,606.327759 1788.985352,644.210266 
	C1791.910156,644.375793 1794.833008,644.683350 1797.756104,644.685425 
	C1842.056763,644.716797 1886.357544,644.717163 1930.658203,644.682983 
	C1932.965942,644.681213 1935.273438,644.304871 1937.778564,645.016357 
	C1938.033813,660.517517 1938.091553,675.105286 1938.149292,689.693054 
	C1888.884033,689.693054 1839.618652,689.693054 1789.098145,689.693054 
	C1789.990479,694.328186 1790.462402,698.142090 1791.470337,701.808716 
	C1804.032837,747.508179 1842.190063,767.370544 1884.094727,763.187988 
	C1905.664185,761.035156 1924.440674,752.477295 1940.940796,738.628784 
	C1944.488159,735.651550 1947.997559,732.629272 1952.324585,728.946960 
	C1958.861206,734.696777 1965.293579,740.330078 1971.697754,745.995056 
	C1978.139038,751.692932 1984.552368,757.422363 1991.978149,764.027588 
	C1985.625977,770.433350 1980.141724,776.606506 1974.005371,782.043701 
	C1943.221558,809.321167 1906.684570,819.830139 1866.160278,818.662659 
	C1838.613892,817.869019 1813.009888,810.625000 1788.730225,796.219849 
z"/>
<path fill="#FFFFFF" opacity="1.000000" stroke="none" 
	d="
M1940.265259,642.307007 
	C1960.159912,642.215515 1980.054565,642.124023 2000.862061,641.968933 
	C2001.770264,657.237549 2001.765747,672.569763 2001.644287,688.800049 
	C1981.013428,689.660034 1960.499268,689.621887 1939.067261,689.638428 
	C1938.091553,675.105286 1938.033813,660.517517 1938.342407,644.940552 
	C1939.227539,643.403259 1939.746338,642.855103 1940.265259,642.307007 
z"/>
<path fill="#8DB3E1" opacity="1.000000" stroke="none" 
	d="
M1939.538208,642.003845 
	C1939.746338,642.855103 1939.227539,643.403259 1938.144897,644.027222 
	C1935.273438,644.304871 1932.965942,644.681213 1930.658203,644.682983 
	C1886.357544,644.717163 1842.056763,644.716797 1797.756104,644.685425 
	C1794.833008,644.683350 1791.910156,644.375793 1788.985352,644.210266 
	C1791.419922,606.327759 1817.132935,575.708252 1851.500366,569.171082 
	C1879.359253,563.872070 1907.024414,575.527466 1922.642700,599.153442 
	C1929.339478,609.283752 1933.510254,620.431458 1936.085449,632.249146 
	C1936.781982,635.445862 1937.891357,638.552612 1939.538208,642.003845 
z"/>
</svg>