<svg id="svg" version="1.1" xmlns="http://www.w3.org/2000/svg" xmlns:xlink="http://www.w3.org/1999/xlink" width="600" height="200" viewBox="0, 0, 400,126.21681415929203"><g id="svgg"><path id="path1" d="M0.000 63.083 L 0.000 126.167 200.000 126.167 L 400.000 126.167 400.000 63.083 L 400.000 0.000 200.000 0.000 L 0.000 0.000 0.000 63.083 M93.010 39.252 C 95.524 39.629,96.477 40.159,97.154 41.557 C 98.459 44.254,96.207 47.497,93.292 47.118 C 92.902 47.067,91.946 46.939,91.167 46.833 C 88.293 46.442,85.169 46.997,82.250 48.417 C 70.064 54.345,69.896 71.696,81.965 77.829 C 96.220 85.073,111.274 69.733,103.949 55.428 C 101.935 51.495,105.054 47.731,108.787 49.591 C 111.951 51.168,114.376 60.095,113.409 66.606 C 110.194 88.260,82.370 94.953,69.626 77.139 C 57.357 59.990,72.096 36.110,93.010 39.252 M199.230 46.801 C 199.297 46.910,197.786 55.810,197.400 57.573 C 197.296 58.050,197.318 58.040,198.260 57.201 C 201.393 54.408,206.352 53.652,209.864 55.432 C 217.798 59.453,214.881 75.191,205.494 79.013 C 201.292 80.725,196.403 79.803,194.587 76.958 C 194.145 76.265,194.065 76.373,193.824 78.000 L 193.602 79.500 189.801 79.500 C 186.028 79.500,186.000 79.497,186.000 79.143 C 186.000 78.947,186.220 77.578,186.489 76.102 C 186.758 74.625,187.626 69.742,188.418 65.250 C 191.256 49.161,191.646 47.001,191.749 46.835 C 191.874 46.632,199.105 46.600,199.230 46.801 M256.532 47.250 C 256.476 47.796,255.727 52.109,255.330 54.167 C 255.251 54.579,255.025 55.854,254.829 57.000 C 254.632 58.146,254.255 60.279,253.990 61.741 C 253.726 63.202,253.534 64.423,253.565 64.454 C 253.614 64.503,255.955 62.003,260.896 56.625 L 262.541 54.833 267.292 54.833 L 272.043 54.833 265.855 60.940 C 262.451 64.299,259.667 67.112,259.667 67.192 C 259.667 67.272,261.467 70.035,263.667 73.333 C 265.867 76.631,267.667 79.368,267.667 79.415 C 267.667 79.462,265.543 79.500,262.948 79.500 L 258.230 79.500 257.907 78.873 C 257.062 77.235,252.740 69.508,252.667 69.504 C 252.621 69.502,252.453 70.269,252.294 71.208 C 251.719 74.605,250.994 78.758,250.912 79.125 L 250.827 79.500 246.979 79.500 L 243.131 79.500 243.237 79.075 C 243.296 78.841,243.454 78.016,243.589 77.242 C 243.723 76.467,243.950 75.177,244.093 74.375 C 244.236 73.573,244.419 72.542,244.500 72.083 C 244.581 71.625,244.764 70.594,244.907 69.792 C 245.050 68.990,245.282 67.677,245.424 66.875 C 245.686 65.387,246.077 63.188,246.659 59.917 C 246.839 58.908,247.105 57.408,247.250 56.583 C 247.396 55.758,247.628 54.446,247.767 53.667 C 248.172 51.392,248.299 50.673,248.576 49.083 C 248.720 48.258,248.880 47.376,248.933 47.122 L 249.028 46.660 252.806 46.705 L 256.583 46.750 256.532 47.250 M138.241 48.486 C 138.327 48.624,138.034 50.416,136.520 59.000 C 136.254 60.512,136.051 61.767,136.070 61.788 C 136.088 61.809,138.124 59.672,140.593 57.040 C 143.063 54.408,145.654 51.653,146.351 50.919 C 147.049 50.184,147.863 49.302,148.160 48.958 L 148.701 48.333 153.114 48.333 C 155.772 48.333,157.506 48.395,157.472 48.489 C 157.407 48.672,155.718 50.462,152.352 53.917 C 149.402 56.945,144.694 61.810,143.673 62.885 L 142.929 63.668 143.240 64.209 C 143.597 64.831,146.904 70.259,147.834 71.750 C 149.199 73.939,152.500 79.376,152.500 79.436 C 152.500 79.769,143.225 79.465,143.012 79.125 C 142.882 78.919,141.136 75.938,139.131 72.500 C 137.126 69.063,135.431 66.231,135.365 66.207 C 135.298 66.184,135.071 67.159,134.860 68.374 C 134.649 69.589,134.256 71.821,133.987 73.333 C 133.718 74.846,133.413 76.571,133.310 77.167 C 133.207 77.762,133.055 78.531,132.971 78.875 L 132.820 79.500 129.018 79.500 L 125.216 79.500 125.611 77.292 C 125.828 76.077,126.301 73.396,126.662 71.333 C 127.024 69.271,127.619 65.896,127.986 63.833 C 128.352 61.771,128.850 58.958,129.091 57.583 C 129.332 56.208,129.670 54.296,129.841 53.333 C 130.012 52.371,130.270 50.916,130.415 50.101 C 130.559 49.286,130.716 48.554,130.765 48.476 C 130.884 48.283,138.122 48.293,138.241 48.486 M99.250 50.667 C 101.423 52.010,101.328 54.023,98.967 56.695 C 98.150 57.620,97.518 58.461,97.564 58.563 C 99.505 62.906,98.940 66.778,95.931 69.750 C 89.064 76.532,77.671 69.582,80.578 60.384 C 82.025 55.803,87.530 52.712,91.697 54.141 L 92.310 54.351 93.022 53.551 C 94.523 51.864,96.128 50.360,96.514 50.278 C 97.297 50.113,98.669 50.307,99.250 50.667 M234.386 54.746 C 240.046 55.946,243.030 61.485,241.389 67.750 L 241.083 68.917 232.500 69.000 L 223.917 69.083 223.956 69.990 C 224.119 73.769,228.525 75.050,231.358 72.141 L 232.145 71.333 236.159 71.333 L 240.172 71.333 239.733 72.208 C 234.395 82.838,217.862 82.353,216.464 71.527 C 215.148 61.326,224.428 52.637,234.386 54.746 M288.942 54.760 C 292.633 55.523,295.439 58.198,296.151 61.633 C 296.516 63.399,296.298 67.098,295.743 68.542 C 295.638 68.814,295.069 68.833,287.066 68.833 L 278.500 68.833 278.504 69.875 C 278.517 73.661,283.068 75.092,285.945 72.214 L 286.826 71.333 290.764 71.333 C 295.255 71.333,294.908 71.151,293.891 72.972 C 290.619 78.832,282.125 81.539,276.062 78.655 C 271.729 76.593,270.052 71.747,271.591 65.731 C 273.598 57.881,281.096 53.140,288.942 54.760 M167.832 54.875 C 167.831 54.939,167.549 56.584,167.253 58.250 C 167.107 59.075,166.843 60.575,166.667 61.583 C 166.182 64.357,165.875 66.102,165.594 67.667 C 164.899 71.535,166.066 73.333,169.269 73.333 C 173.099 73.333,174.211 71.817,175.440 64.917 C 176.437 59.320,177.166 55.111,177.166 54.958 C 177.167 54.890,178.901 54.833,181.022 54.833 L 184.877 54.833 184.786 55.375 C 184.684 55.983,183.987 59.965,183.581 62.250 C 183.435 63.075,183.166 64.612,182.984 65.667 C 182.801 66.721,182.584 67.958,182.500 68.417 C 182.416 68.875,182.199 70.112,182.016 71.167 C 181.834 72.221,181.572 73.721,181.433 74.500 C 181.295 75.279,181.064 76.592,180.921 77.417 C 180.778 78.242,180.620 79.048,180.569 79.208 C 180.485 79.475,180.151 79.500,176.685 79.500 L 172.892 79.500 173.165 77.925 L 173.438 76.350 172.838 76.893 C 167.255 81.936,158.843 80.278,157.647 73.899 C 157.439 72.790,157.533 69.481,157.806 68.333 C 157.904 67.921,158.217 66.233,158.501 64.583 C 158.786 62.933,159.086 61.246,159.169 60.833 C 159.251 60.421,159.524 58.902,159.775 57.458 L 160.231 54.833 164.032 54.833 C 166.123 54.833,167.833 54.852,167.832 54.875 M308.196 56.333 C 308.352 57.112,308.937 60.112,309.497 63.000 C 310.058 65.887,310.601 68.674,310.705 69.192 L 310.893 70.133 311.216 69.525 C 311.394 69.190,312.703 66.779,314.127 64.167 C 315.550 61.554,316.960 58.967,317.259 58.417 C 318.034 56.994,318.887 55.459,319.092 55.119 C 319.252 54.852,319.613 54.831,323.355 54.872 L 327.443 54.917 325.089 58.833 C 317.770 71.012,306.992 88.923,306.333 90.000 L 305.569 91.250 301.534 91.295 C 299.083 91.322,297.500 91.278,297.500 91.182 C 297.500 91.003,298.100 90.020,301.580 84.500 C 302.938 82.346,304.309 80.144,304.626 79.607 L 305.203 78.632 304.920 77.441 C 304.498 75.662,301.604 63.818,300.482 59.275 C 299.942 57.088,299.500 55.193,299.500 55.063 C 299.500 54.865,300.170 54.835,303.706 54.872 L 307.913 54.917 308.196 56.333 M88.750 60.613 C 86.049 61.326,86.348 65.410,89.128 65.783 C 91.090 66.046,92.666 63.772,91.750 62.000 C 91.236 61.005,89.792 60.337,88.750 60.613 M283.685 60.673 C 281.757 61.070,279.333 63.389,279.333 64.838 C 279.333 64.939,281.086 65.000,283.997 65.000 L 288.660 65.000 288.765 64.582 C 289.366 62.188,286.614 60.070,283.685 60.673 M227.884 61.080 C 226.548 61.687,224.667 63.926,224.667 64.909 C 224.667 64.962,226.785 64.985,229.375 64.961 L 234.083 64.917 234.056 63.894 C 233.982 61.151,230.859 59.727,227.884 61.080 M200.237 61.470 C 195.610 63.070,193.917 70.431,197.667 72.641 C 200.198 74.133,204.324 72.411,205.766 69.261 C 208.104 64.155,205.024 59.815,200.237 61.470 " stroke="none" fill="#fbfbfb" fill-rule="evenodd"></path><path id="path2" d="M109.773 51.949 C 109.737 51.985,109.492 52.053,109.229 52.099 C 108.965 52.146,108.263 52.297,107.667 52.435 C 107.071 52.573,106.377 52.693,106.125 52.702 C 105.873 52.710,105.667 52.781,105.667 52.859 C 105.667 52.936,105.423 53.000,105.125 53.001 C 103.214 53.004,103.080 53.307,104.066 55.388 C 108.515 64.784,104.634 75.007,95.243 78.627 C 83.913 82.995,71.701 73.601,72.949 61.481 C 73.047 60.529,73.117 59.739,73.105 59.725 C 73.080 59.696,70.511 60.201,69.250 60.482 C 68.792 60.584,67.742 60.804,66.917 60.971 L 65.417 61.274 65.431 63.845 C 65.513 78.818,79.993 90.172,94.667 86.769 C 108.634 83.530,116.767 69.235,112.344 55.699 C 111.315 52.550,110.443 51.279,109.773 51.949 M87.500 54.162 C 80.332 55.684,77.758 64.517,82.981 69.668 C 88.895 75.498,98.593 71.400,98.565 63.083 C 98.552 59.095,95.585 54.891,92.432 54.393 C 92.240 54.363,91.746 54.265,91.333 54.176 C 90.467 53.989,88.351 53.982,87.500 54.162 M283.333 54.731 C 276.238 56.149,271.670 61.484,271.224 68.875 L 271.116 70.667 274.725 70.667 L 278.333 70.667 278.333 69.750 L 278.333 68.833 286.911 68.833 C 294.912 68.833,295.498 68.814,295.636 68.542 C 296.311 67.209,296.459 62.478,295.878 60.799 C 294.275 56.163,288.982 53.602,283.333 54.731 M90.841 60.876 C 92.127 61.742,92.493 63.573,91.610 64.729 C 89.490 67.510,85.345 64.691,87.166 61.707 C 87.900 60.503,89.688 60.098,90.841 60.876 M286.357 60.693 C 287.871 61.147,288.904 62.653,288.802 64.260 L 288.750 65.083 284.169 65.128 C 278.779 65.180,279.080 65.235,279.460 64.268 C 280.570 61.443,283.606 59.869,286.357 60.693 " stroke="none" fill="#5aa66e" fill-rule="evenodd"></path><path id="path3" d="M85.750 39.246 C 76.786 40.675,69.262 47.032,66.433 55.566 C 65.883 57.224,65.301 60.054,65.367 60.746 L 65.417 61.273 66.917 60.970 C 67.742 60.804,68.792 60.584,69.250 60.482 C 71.864 59.899,73.087 59.709,73.148 59.876 C 73.183 59.974,73.390 59.423,73.607 58.652 C 75.741 51.068,83.570 45.799,91.167 46.833 C 91.946 46.939,92.902 47.067,93.292 47.118 C 97.561 47.673,99.197 41.394,95.217 39.726 C 93.648 39.068,88.500 38.807,85.750 39.246 M193.625 46.791 C 194.656 46.820,196.344 46.820,197.375 46.791 C 198.406 46.762,197.563 46.738,195.500 46.738 C 193.438 46.738,192.594 46.762,193.625 46.791 M250.884 46.791 C 251.967 46.820,253.692 46.820,254.718 46.791 C 255.744 46.762,254.858 46.738,252.750 46.738 C 250.642 46.738,249.802 46.762,250.884 46.791 M132.625 48.458 C 133.656 48.487,135.344 48.487,136.375 48.458 C 137.406 48.429,136.563 48.405,134.500 48.405 C 132.438 48.405,131.594 48.429,132.625 48.458 M150.885 48.458 C 152.151 48.486,154.176 48.486,155.385 48.458 C 156.594 48.429,155.558 48.406,153.083 48.406 C 150.608 48.406,149.619 48.430,150.885 48.458 M105.426 49.508 C 104.019 50.210,103.156 51.588,103.188 53.083 C 103.197 53.542,103.239 53.788,103.281 53.630 C 103.364 53.314,104.278 53.002,105.125 53.001 C 105.423 53.000,105.667 52.936,105.667 52.859 C 105.667 52.781,105.873 52.710,106.125 52.702 C 106.377 52.693,107.071 52.573,107.667 52.435 C 109.051 52.114,109.632 51.994,110.236 51.905 C 110.909 51.806,110.908 51.812,110.279 50.899 C 109.196 49.326,107.033 48.706,105.426 49.508 M88.961 53.954 C 89.261 53.991,89.711 53.990,89.961 53.952 C 90.212 53.914,89.967 53.884,89.417 53.885 C 88.867 53.886,88.662 53.917,88.961 53.954 M103.433 54.333 C 103.536 54.718,104.000 55.523,104.000 55.317 C 104.000 55.267,103.847 54.932,103.661 54.571 C 103.466 54.195,103.369 54.094,103.433 54.333 M271.324 55.458 L 270.750 56.083 271.375 55.509 C 271.719 55.193,272.000 54.912,272.000 54.884 C 272.000 54.757,271.859 54.877,271.324 55.458 M82.824 56.625 L 82.250 57.250 82.875 56.676 C 83.219 56.360,83.500 56.078,83.500 56.051 C 83.500 55.923,83.359 56.043,82.824 56.625 M73.039 60.667 C 73.039 60.987,73.073 61.119,73.115 60.958 C 73.157 60.798,73.157 60.535,73.115 60.375 C 73.073 60.215,73.039 60.346,73.039 60.667 M229.875 60.615 C 230.035 60.657,230.298 60.657,230.458 60.615 C 230.619 60.573,230.487 60.539,230.167 60.539 C 229.846 60.539,229.715 60.573,229.875 60.615 M87.703 61.125 C 87.304 61.515,87.298 61.534,87.659 61.252 C 88.370 60.698,88.404 60.667,88.286 60.667 C 88.223 60.667,87.961 60.873,87.703 61.125 M90.583 60.774 C 91.432 61.527,91.745 61.746,91.417 61.360 C 91.236 61.145,90.936 60.892,90.752 60.797 C 90.568 60.703,90.492 60.692,90.583 60.774 M113.565 63.167 C 113.565 64.404,113.592 64.910,113.624 64.292 C 113.656 63.673,113.656 62.660,113.624 62.042 C 113.592 61.423,113.565 61.929,113.565 63.167 M65.228 63.167 C 65.228 64.129,65.256 64.523,65.290 64.042 C 65.323 63.560,65.323 62.773,65.290 62.292 C 65.256 61.810,65.228 62.204,65.228 63.167 M72.893 63.167 C 72.893 64.037,72.922 64.394,72.956 63.958 C 72.990 63.523,72.990 62.810,72.956 62.375 C 72.922 61.940,72.893 62.296,72.893 63.167 M105.889 63.167 C 105.889 63.854,105.919 64.135,105.955 63.792 C 105.991 63.448,105.991 62.885,105.955 62.542 C 105.919 62.198,105.889 62.479,105.889 63.167 M86.705 63.167 C 86.705 63.487,86.740 63.619,86.782 63.458 C 86.823 63.298,86.823 63.035,86.782 62.875 C 86.740 62.715,86.705 62.846,86.705 63.167 M288.667 64.811 C 288.667 64.962,287.522 64.999,283.932 64.963 C 281.329 64.938,279.233 64.973,279.276 65.042 C 279.402 65.246,288.630 65.195,288.757 64.989 C 288.817 64.891,288.822 64.766,288.767 64.711 C 288.712 64.656,288.667 64.701,288.667 64.811 M65.375 66.083 C 65.377 66.450,65.411 66.580,65.451 66.373 C 65.491 66.166,65.490 65.866,65.448 65.706 C 65.406 65.547,65.374 65.717,65.375 66.083 M195.542 68.583 C 195.544 68.950,195.578 69.080,195.618 68.873 C 195.658 68.666,195.656 68.366,195.615 68.206 C 195.573 68.047,195.540 68.217,195.542 68.583 M232.590 68.792 C 227.919 68.816,224.041 68.892,223.973 68.960 C 223.905 69.028,227.687 69.063,232.378 69.039 C 237.674 69.011,240.968 68.932,241.070 68.830 C 241.160 68.740,241.200 68.685,241.158 68.707 C 241.117 68.729,237.261 68.767,232.590 68.792 M271.096 70.500 C 271.212 74.350,272.925 77.162,276.062 78.655 C 282.125 81.539,290.619 78.832,293.891 72.972 C 294.908 71.151,295.255 71.333,290.764 71.333 L 286.826 71.333 285.945 72.214 C 283.093 75.066,278.828 73.798,278.494 70.000 C 278.385 68.767,278.383 68.763,278.358 69.708 L 278.333 70.667 274.758 70.667 L 271.183 70.667 271.113 69.708 C 271.075 69.181,271.067 69.537,271.096 70.500 M82.826 69.708 C 83.517 70.444,83.667 70.577,83.667 70.451 C 83.667 70.425,83.310 70.068,82.875 69.660 L 82.083 68.917 82.826 69.708 M88.796 72.456 C 89.188 72.491,89.788 72.490,90.129 72.454 C 90.471 72.419,90.150 72.390,89.417 72.390 C 88.683 72.391,88.404 72.420,88.796 72.456 M106.495 80.292 L 105.417 81.417 106.542 80.338 C 107.160 79.745,107.667 79.239,107.667 79.213 C 107.667 79.090,107.497 79.247,106.495 80.292 M72.333 80.417 C 72.831 80.921,73.276 81.333,73.322 81.333 C 73.368 81.333,72.998 80.921,72.500 80.417 C 72.002 79.912,71.557 79.500,71.511 79.500 C 71.466 79.500,71.835 79.912,72.333 80.417 M89.127 87.451 C 89.334 87.491,89.634 87.490,89.794 87.448 C 89.953 87.406,89.783 87.374,89.417 87.375 C 89.050 87.377,88.920 87.411,89.127 87.451 M299.458 91.291 C 300.581 91.320,302.419 91.320,303.542 91.291 C 304.665 91.262,303.746 91.239,301.500 91.239 C 299.254 91.239,298.335 91.262,299.458 91.291 " stroke="none" fill="#81c394" fill-rule="evenodd"></path><path id="path4" d="M152.824 53.292 L 152.250 53.917 152.875 53.342 C 153.457 52.808,153.577 52.667,153.449 52.667 C 153.422 52.667,153.140 52.948,152.824 53.292 M143.824 53.625 L 143.250 54.250 143.875 53.676 C 144.457 53.141,144.577 53.000,144.449 53.000 C 144.422 53.000,144.140 53.281,143.824 53.625 M141.324 56.292 L 140.750 56.917 141.375 56.342 C 141.957 55.808,142.077 55.667,141.949 55.667 C 141.922 55.667,141.640 55.948,141.324 56.292 M211.750 57.000 C 212.108 57.367,212.438 57.667,212.484 57.667 C 212.530 57.667,212.275 57.367,211.917 57.000 C 211.559 56.633,211.228 56.333,211.182 56.333 C 211.137 56.333,211.392 56.633,211.750 57.000 M239.083 57.333 C 239.441 57.700,239.772 58.000,239.818 58.000 C 239.863 58.000,239.608 57.700,239.250 57.333 C 238.892 56.967,238.562 56.667,238.516 56.667 C 238.470 56.667,238.725 56.967,239.083 57.333 M197.922 57.494 C 197.662 57.766,197.385 57.949,197.308 57.901 C 197.230 57.853,197.167 57.893,197.167 57.990 C 197.167 58.304,197.422 58.179,198.000 57.583 C 198.311 57.262,198.527 57.000,198.481 57.000 C 198.434 57.000,198.183 57.222,197.922 57.494 M260.073 57.542 L 259.583 58.083 260.125 57.594 C 260.630 57.138,260.743 57.000,260.615 57.000 C 260.586 57.000,260.342 57.244,260.073 57.542 M147.912 58.375 L 146.750 59.583 147.958 58.421 C 148.623 57.782,149.167 57.238,149.167 57.213 C 149.167 57.091,148.992 57.253,147.912 58.375 M138.658 59.125 L 138.083 59.750 138.708 59.176 C 139.290 58.641,139.410 58.500,139.283 58.500 C 139.255 58.500,138.974 58.781,138.658 59.125 M258.073 59.708 L 257.583 60.250 258.125 59.760 C 258.423 59.491,258.667 59.248,258.667 59.219 C 258.667 59.090,258.529 59.203,258.073 59.708 M214.383 64.167 C 214.383 64.671,214.415 64.877,214.453 64.625 C 214.491 64.373,214.491 63.960,214.453 63.708 C 214.415 63.456,214.383 63.663,214.383 64.167 M241.717 64.167 C 241.717 64.671,241.748 64.877,241.786 64.625 C 241.824 64.373,241.824 63.960,241.786 63.708 C 241.748 63.456,241.717 63.663,241.717 64.167 M216.383 70.000 C 216.383 70.504,216.415 70.710,216.453 70.458 C 216.491 70.206,216.491 69.794,216.453 69.542 C 216.415 69.290,216.383 69.496,216.383 70.000 M237.158 75.625 L 236.583 76.250 237.208 75.676 C 237.552 75.360,237.833 75.078,237.833 75.051 C 237.833 74.923,237.692 75.043,237.158 75.625 M172.906 76.708 L 172.417 77.250 172.958 76.760 C 173.463 76.304,173.577 76.167,173.448 76.167 C 173.419 76.167,173.175 76.410,172.906 76.708 M164.961 79.787 C 165.261 79.825,165.711 79.824,165.961 79.786 C 166.212 79.748,165.967 79.717,165.417 79.718 C 164.867 79.719,164.662 79.750,164.961 79.787 " stroke="none" fill="#848484" fill-rule="evenodd"></path><path id="path0" d="M191.525 48.125 C 191.411 48.835,191.246 49.792,191.158 50.250 C 191.069 50.708,190.848 51.946,190.665 53.000 C 190.482 54.054,190.258 55.329,190.166 55.833 C 190.074 56.337,189.780 57.987,189.513 59.500 C 189.246 61.012,188.721 63.975,188.346 66.083 C 186.822 74.651,186.000 79.319,186.000 79.407 C 186.000 79.458,187.678 79.500,189.728 79.500 L 193.457 79.500 193.634 78.542 C 193.732 78.015,193.861 77.265,193.921 76.875 C 194.056 75.991,194.131 75.999,194.750 76.964 C 196.822 80.191,202.770 80.761,207.093 78.147 C 214.198 73.851,216.773 62.240,211.775 57.036 C 208.456 53.580,202.204 53.693,198.330 57.280 C 197.219 58.309,197.110 58.331,197.316 57.491 C 197.394 57.175,197.541 56.429,197.644 55.833 C 197.748 55.237,198.132 53.089,198.499 51.060 C 198.866 49.030,199.167 47.249,199.167 47.101 C 199.167 46.863,198.754 46.833,195.449 46.833 L 191.732 46.833 191.525 48.125 M249.000 47.004 C 249.000 47.097,248.778 48.428,248.507 49.962 C 248.235 51.495,247.637 54.887,247.177 57.500 C 246.717 60.112,246.264 62.663,246.171 63.167 C 246.077 63.671,245.850 64.946,245.667 66.000 C 245.483 67.054,245.258 68.329,245.166 68.833 C 245.074 69.337,244.774 71.025,244.500 72.583 C 243.926 75.846,243.702 77.095,243.487 78.217 C 243.402 78.656,243.333 79.125,243.333 79.258 C 243.333 79.462,243.914 79.500,247.051 79.500 L 250.768 79.500 251.660 74.375 C 252.150 71.556,252.569 69.227,252.590 69.200 C 252.611 69.172,253.512 70.747,254.592 72.700 C 255.672 74.652,256.680 76.475,256.832 76.750 C 256.984 77.025,257.391 77.756,257.735 78.375 L 258.362 79.500 263.015 79.500 L 267.668 79.500 263.584 73.376 L 259.500 67.251 265.708 61.042 L 271.915 54.833 267.249 54.847 L 262.583 54.860 260.206 57.472 C 258.898 58.908,257.547 60.383,257.204 60.750 C 256.860 61.117,255.912 62.148,255.097 63.042 C 254.281 63.935,253.565 64.667,253.506 64.667 C 253.405 64.667,253.929 61.556,255.651 51.917 C 256.012 49.900,256.357 47.931,256.418 47.542 L 256.529 46.833 252.765 46.833 C 250.313 46.833,249.000 46.893,249.000 47.004 M130.694 49.125 C 130.610 49.469,130.378 50.725,130.177 51.917 C 129.977 53.108,129.742 54.458,129.655 54.917 C 129.568 55.375,129.348 56.612,129.165 57.667 C 128.982 58.721,128.758 59.996,128.666 60.500 C 128.506 61.372,128.205 63.076,126.999 69.917 C 126.709 71.567,126.215 74.337,125.902 76.073 C 125.589 77.809,125.333 79.290,125.333 79.364 C 125.333 79.439,127.013 79.500,129.066 79.500 L 132.799 79.500 132.998 78.375 C 133.107 77.756,133.344 76.425,133.525 75.417 C 133.705 74.408,133.919 73.208,134.000 72.750 C 134.081 72.292,134.302 71.054,134.490 70.000 C 134.679 68.946,134.912 67.598,135.009 67.005 C 135.106 66.412,135.213 65.898,135.247 65.864 C 135.281 65.830,135.763 66.577,136.317 67.526 C 136.871 68.474,138.662 71.537,140.296 74.333 L 143.268 79.417 147.874 79.461 L 152.479 79.505 150.464 76.211 C 149.356 74.399,147.647 71.604,146.667 70.000 C 145.687 68.396,144.411 66.310,143.831 65.365 L 142.776 63.646 144.601 61.781 C 145.605 60.756,147.552 58.754,148.929 57.333 C 150.306 55.913,152.565 53.587,153.948 52.167 C 155.332 50.746,156.667 49.340,156.914 49.042 L 157.363 48.500 153.031 48.500 L 148.698 48.500 147.641 49.648 C 142.551 55.176,136.074 61.939,136.035 61.768 C 136.008 61.652,136.177 60.475,136.410 59.153 C 137.037 55.601,137.828 51.084,138.064 49.708 L 138.272 48.500 134.559 48.500 L 130.846 48.500 130.694 49.125 M96.660 50.430 C 95.915 50.653,95.641 50.899,93.032 53.692 L 92.464 54.301 93.597 54.859 C 94.676 55.390,96.600 57.052,97.179 57.953 C 97.449 58.373,99.931 55.771,100.455 54.518 C 101.417 52.216,99.085 49.704,96.660 50.430 M228.917 54.675 C 221.301 56.131,216.626 61.881,216.594 69.833 C 216.582 72.709,216.826 73.791,217.856 75.435 C 221.432 81.144,231.177 81.317,236.970 75.773 C 238.227 74.570,240.000 72.025,240.000 71.423 C 240.000 71.374,238.241 71.333,236.090 71.333 L 232.180 71.333 231.417 72.149 C 228.584 75.178,223.851 73.758,223.837 69.875 L 223.833 68.833 232.410 68.833 L 240.987 68.833 241.160 68.193 C 243.501 59.498,237.626 53.011,228.917 54.675 M160.254 55.208 C 160.166 55.594,158.635 64.209,157.910 68.395 C 157.129 72.912,157.659 75.714,159.663 77.661 C 162.751 80.660,168.909 80.329,172.589 76.966 C 173.606 76.036,173.613 76.047,173.250 77.944 C 173.113 78.662,173.000 79.306,173.000 79.375 C 173.000 79.444,174.680 79.500,176.733 79.500 L 180.466 79.500 180.665 78.375 C 180.774 77.756,181.008 76.425,181.186 75.417 C 181.643 72.814,182.109 70.160,182.416 68.417 C 182.561 67.592,182.824 66.092,183.000 65.083 C 183.418 62.692,183.769 60.696,184.187 58.333 C 184.374 57.279,184.585 56.060,184.655 55.625 L 184.784 54.833 181.053 54.833 C 178.212 54.833,177.309 54.883,177.263 55.042 C 177.230 55.156,177.039 56.225,176.838 57.417 C 176.637 58.608,176.179 61.233,175.820 63.250 C 175.461 65.267,175.082 67.404,174.977 68.000 C 174.271 72.045,171.247 74.274,167.818 73.277 C 164.731 72.380,164.715 71.557,167.484 56.458 L 167.782 54.833 164.061 54.833 L 160.340 54.833 160.254 55.208 M299.564 55.125 C 299.612 55.285,299.763 55.904,299.900 56.500 C 300.037 57.096,300.757 60.058,301.500 63.083 C 302.925 68.887,305.120 77.870,305.240 78.393 C 305.284 78.583,304.623 79.797,303.515 81.559 C 302.527 83.131,300.871 85.767,299.835 87.417 C 298.798 89.067,297.840 90.585,297.706 90.792 L 297.462 91.167 301.522 91.161 L 305.583 91.156 309.703 84.286 C 311.968 80.508,316.862 72.365,320.578 66.190 C 324.293 60.015,327.333 54.932,327.333 54.895 C 327.333 54.858,325.515 54.847,323.292 54.872 L 319.251 54.917 315.125 62.500 C 311.132 69.837,310.809 70.365,310.699 69.717 C 310.602 69.142,308.972 60.730,308.405 57.879 C 308.090 56.299,307.833 54.968,307.833 54.920 C 307.833 54.872,305.953 54.833,303.655 54.833 C 299.755 54.833,299.483 54.853,299.564 55.125 M231.583 60.684 C 233.145 61.077,234.167 62.420,234.167 64.078 L 234.167 65.000 229.417 65.000 C 224.175 65.000,224.453 65.070,224.991 63.885 C 226.117 61.405,228.961 60.024,231.583 60.684 M203.657 61.263 C 206.590 62.134,207.530 65.810,205.749 69.443 C 203.048 74.949,195.500 74.360,195.500 68.643 C 195.500 63.810,199.636 60.068,203.657 61.263 " stroke="none" fill="#050505" fill-rule="evenodd"></path><path id="path1" d="M0.000 63.083 L 0.000 126.167 200.000 126.167 L 400.000 126.167 400.000 63.083 L 400.000 0.000 200.000 0.000 L 0.000 0.000 0.000 63.083 M93.010 39.252 C 95.524 39.629,96.477 40.159,97.154 41.557 C 98.459 44.254,96.207 47.497,93.292 47.118 C 92.902 47.067,91.946 46.939,91.167 46.833 C 88.293 46.442,85.169 46.997,82.250 48.417 C 70.064 54.345,69.896 71.696,81.965 77.829 C 96.220 85.073,111.274 69.733,103.949 55.428 C 101.935 51.495,105.054 47.731,108.787 49.591 C 111.951 51.168,114.376 60.095,113.409 66.606 C 110.194 88.260,82.370 94.953,69.626 77.139 C 57.357 59.990,72.096 36.110,93.010 39.252 M199.230 46.801 C 199.297 46.910,197.786 55.810,197.400 57.573 C 197.296 58.050,197.318 58.040,198.260 57.201 C 201.393 54.408,206.352 53.652,209.864 55.432 C 217.798 59.453,214.881 75.191,205.494 79.013 C 201.292 80.725,196.403 79.803,194.587 76.958 C 194.145 76.265,194.065 76.373,193.824 78.000 L 193.602 79.500 189.801 79.500 C 186.028 79.500,186.000 79.497,186.000 79.143 C 186.000 78.947,186.220 77.578,186.489 76.102 C 186.758 74.625,187.626 69.742,188.418 65.250 C 191.256 49.161,191.646 47.001,191.749 46.835 C 191.874 46.632,199.105 46.600,199.230 46.801 M256.532 47.250 C 256.476 47.796,255.727 52.109,255.330 54.167 C 255.251 54.579,255.025 55.854,254.829 57.000 C 254.632 58.146,254.255 60.279,253.990 61.741 C 253.726 63.202,253.534 64.423,253.565 64.454 C 253.614 64.503,255.955 62.003,260.896 56.625 L 262.541 54.833 267.292 54.833 L 272.043 54.833 265.855 60.940 C 262.451 64.299,259.667 67.112,259.667 67.192 C 259.667 67.272,261.467 70.035,263.667 73.333 C 265.867 76.631,267.667 79.368,267.667 79.415 C 267.667 79.462,265.543 79.500,262.948 79.500 L 258.230 79.500 257.907 78.873 C 257.062 77.235,252.740 69.508,252.667 69.504 C 252.621 69.502,252.453 70.269,252.294 71.208 C 251.719 74.605,250.994 78.758,250.912 79.125 L 250.827 79.500 246.979 79.500 L 243.131 79.500 243.237 79.075 C 243.296 78.841,243.454 78.016,243.589 77.242 C 243.723 76.467,243.950 75.177,244.093 74.375 C 244.236 73.573,244.419 72.542,244.500 72.083 C 244.581 71.625,244.764 70.594,244.907 69.792 C 245.050 68.990,245.282 67.677,245.424 66.875 C 245.686 65.387,246.077 63.188,246.659 59.917 C 246.839 58.908,247.105 57.408,247.250 56.583 C 247.396 55.758,247.628 54.446,247.767 53.667 C 248.172 51.392,248.299 50.673,248.576 49.083 C 248.720 48.258,248.880 47.376,248.933 47.122 L 249.028 46.660 252.806 46.705 L 256.583 46.750 256.532 47.250 M138.241 48.486 C 138.327 48.624,138.034 50.416,136.520 59.000 C 136.254 60.512,136.051 61.767,136.070 61.788 C 136.088 61.809,138.124 59.672,140.593 57.040 C 143.063 54.408,145.654 51.653,146.351 50.919 C 147.049 50.184,147.863 49.302,148.160 48.958 L 148.701 48.333 153.114 48.333 C 155.772 48.333,157.506 48.395,157.472 48.489 C 157.407 48.672,155.718 50.462,152.352 53.917 C 149.402 56.945,144.694 61.810,143.673 62.885 L 142.929 63.668 143.240 64.209 C 143.597 64.831,146.904 70.259,147.834 71.750 C 149.199 73.939,152.500 79.376,152.500 79.436 C 152.500 79.769,143.225 79.465,143.012 79.125 C 142.882 78.919,141.136 75.938,139.131 72.500 C 137.126 69.063,135.431 66.231,135.365 66.207 C 135.298 66.184,135.071 67.159,134.860 68.374 C 134.649 69.589,134.256 71.821,133.987 73.333 C 133.718 74.846,133.413 76.571,133.310 77.167 C 133.207 77.762,133.055 78.531,132.971 78.875 L 132.820 79.500 129.018 79.500 L 125.216 79.500 125.611 77.292 C 125.828 76.077,126.301 73.396,126.662 71.333 C 127.024 69.271,127.619 65.896,127.986 63.833 C 128.352 61.771,128.850 58.958,129.091 57.583 C 129.332 56.208,129.670 54.296,129.841 53.333 C 130.012 52.371,130.270 50.916,130.415 50.101 C 130.559 49.286,130.716 48.554,130.765 48.476 C 130.884 48.283,138.122 48.293,138.241 48.486 M99.250 50.667 C 101.423 52.010,101.328 54.023,98.967 56.695 C 98.150 57.620,97.518 58.461,97.564 58.563 C 99.505 62.906,98.940 66.778,95.931 69.750 C 89.064 76.532,77.671 69.582,80.578 60.384 C 82.025 55.803,87.530 52.712,91.697 54.141 L 92.310 54.351 93.022 53.551 C 94.523 51.864,96.128 50.360,96.514 50.278 C 97.297 50.113,98.669 50.307,99.250 50.667 M234.386 54.746 C 240.046 55.946,243.030 61.485,241.389 67.750 L 241.083 68.917 232.500 69.000 L 223.917 69.083 223.956 69.990 C 224.119 73.769,228.525 75.050,231.358 72.141 L 232.145 71.333 236.159 71.333 L 240.172 71.333 239.733 72.208 C 234.395 82.838,217.862 82.353,216.464 71.527 C 215.148 61.326,224.428 52.637,234.386 54.746 M288.942 54.760 C 292.633 55.523,295.439 58.198,296.151 61.633 C 296.516 63.399,296.298 67.098,295.743 68.542 C 295.638 68.814,295.069 68.833,287.066 68.833 L 278.500 68.833 278.504 69.875 C 278.517 73.661,283.068 75.092,285.945 72.214 L 286.826 71.333 290.764 71.333 C 295.255 71.333,294.908 71.151,293.891 72.972 C 290.619 78.832,282.125 81.539,276.062 78.655 C 271.729 76.593,270.052 71.747,271.591 65.731 C 273.598 57.881,281.096 53.140,288.942 54.760 M167.832 54.875 C 167.831 54.939,167.549 56.584,167.253 58.250 C 167.107 59.075,166.843 60.575,166.667 61.583 C 166.182 64.357,165.875 66.102,165.594 67.667 C 164.899 71.535,166.066 73.333,169.269 73.333 C 173.099 73.333,174.211 71.817,175.440 64.917 C 176.437 59.320,177.166 55.111,177.166 54.958 C 177.167 54.890,178.901 54.833,181.022 54.833 L 184.877 54.833 184.786 55.375 C 184.684 55.983,183.987 59.965,183.581 62.250 C 183.435 63.075,183.166 64.612,182.984 65.667 C 182.801 66.721,182.584 67.958,182.500 68.417 C 182.416 68.875,182.199 70.112,182.016 71.167 C 181.834 72.221,181.572 73.721,181.433 74.500 C 181.295 75.279,181.064 76.592,180.921 77.417 C 180.778 78.242,180.620 79.048,180.569 79.208 C 180.485 79.475,180.151 79.500,176.685 79.500 L 172.892 79.500 173.165 77.925 L 173.438 76.350 172.838 76.893 C 167.255 81.936,158.843 80.278,157.647 73.899 C 157.439 72.790,157.533 69.481,157.806 68.333 C 157.904 67.921,158.217 66.233,158.501 64.583 C 158.786 62.933,159.086 61.246,159.169 60.833 C 159.251 60.421,159.524 58.902,159.775 57.458 L 160.231 54.833 164.032 54.833 C 166.123 54.833,167.833 54.852,167.832 54.875 M308.196 56.333 C 308.352 57.112,308.937 60.112,309.497 63.000 C 310.058 65.887,310.601 68.674,310.705 69.192 L 310.893 70.133 311.216 69.525 C 311.394 69.190,312.703 66.779,314.127 64.167 C 315.550 61.554,316.960 58.967,317.259 58.417 C 318.034 56.994,318.887 55.459,319.092 55.119 C 319.252 54.852,319.613 54.831,323.355 54.872 L 327.443 54.917 325.089 58.833 C 317.770 71.012,306.992 88.923,306.333 90.000 L 305.569 91.250 301.534 91.295 C 299.083 91.322,297.500 91.278,297.500 91.182 C 297.500 91.003,298.100 90.020,301.580 84.500 C 302.938 82.346,304.309 80.144,304.626 79.607 L 305.203 78.632 304.920 77.441 C 304.498 75.662,301.604 63.818,300.482 59.275 C 299.942 57.088,299.500 55.193,299.500 55.063 C 299.500 54.865,300.170 54.835,303.706 54.872 L 307.913 54.917 308.196 56.333 M88.750 60.613 C 86.049 61.326,86.348 65.410,89.128 65.783 C 91.090 66.046,92.666 63.772,91.750 62.000 C 91.236 61.005,89.792 60.337,88.750 60.613 M283.685 60.673 C 281.757 61.070,279.333 63.389,279.333 64.838 C 279.333 64.939,281.086 65.000,283.997 65.000 L 288.660 65.000 288.765 64.582 C 289.366 62.188,286.614 60.070,283.685 60.673 M227.884 61.080 C 226.548 61.687,224.667 63.926,224.667 64.909 C 224.667 64.962,226.785 64.985,229.375 64.961 L 234.083 64.917 234.056 63.894 C 233.982 61.151,230.859 59.727,227.884 61.080 M200.237 61.470 C 195.610 63.070,193.917 70.431,197.667 72.641 C 200.198 74.133,204.324 72.411,205.766 69.261 C 208.104 64.155,205.024 59.815,200.237 61.470 " stroke="none" fill="#fbfbfb" fill-rule="evenodd"></path><path id="path2" d="M109.773 51.949 C 109.737 51.985,109.492 52.053,109.229 52.099 C 108.965 52.146,108.263 52.297,107.667 52.435 C 107.071 52.573,106.377 52.693,106.125 52.702 C 105.873 52.710,105.667 52.781,105.667 52.859 C 105.667 52.936,105.423 53.000,105.125 53.001 C 103.214 53.004,103.080 53.307,104.066 55.388 C 108.515 64.784,104.634 75.007,95.243 78.627 C 83.913 82.995,71.701 73.601,72.949 61.481 C 73.047 60.529,73.117 59.739,73.105 59.725 C 73.080 59.696,70.511 60.201,69.250 60.482 C 68.792 60.584,67.742 60.804,66.917 60.971 L 65.417 61.274 65.431 63.845 C 65.513 78.818,79.993 90.172,94.667 86.769 C 108.634 83.530,116.767 69.235,112.344 55.699 C 111.315 52.550,110.443 51.279,109.773 51.949 M87.500 54.162 C 80.332 55.684,77.758 64.517,82.981 69.668 C 88.895 75.498,98.593 71.400,98.565 63.083 C 98.552 59.095,95.585 54.891,92.432 54.393 C 92.240 54.363,91.746 54.265,91.333 54.176 C 90.467 53.989,88.351 53.982,87.500 54.162 M283.333 54.731 C 276.238 56.149,271.670 61.484,271.224 68.875 L 271.116 70.667 274.725 70.667 L 278.333 70.667 278.333 69.750 L 278.333 68.833 286.911 68.833 C 294.912 68.833,295.498 68.814,295.636 68.542 C 296.311 67.209,296.459 62.478,295.878 60.799 C 294.275 56.163,288.982 53.602,283.333 54.731 M90.841 60.876 C 92.127 61.742,92.493 63.573,91.610 64.729 C 89.490 67.510,85.345 64.691,87.166 61.707 C 87.900 60.503,89.688 60.098,90.841 60.876 M286.357 60.693 C 287.871 61.147,288.904 62.653,288.802 64.260 L 288.750 65.083 284.169 65.128 C 278.779 65.180,279.080 65.235,279.460 64.268 C 280.570 61.443,283.606 59.869,286.357 60.693 " stroke="none" fill="#5aa66e" fill-rule="evenodd"></path><path id="path3" d="M85.750 39.246 C 76.786 40.675,69.262 47.032,66.433 55.566 C 65.883 57.224,65.301 60.054,65.367 60.746 L 65.417 61.273 66.917 60.970 C 67.742 60.804,68.792 60.584,69.250 60.482 C 71.864 59.899,73.087 59.709,73.148 59.876 C 73.183 59.974,73.390 59.423,73.607 58.652 C 75.741 51.068,83.570 45.799,91.167 46.833 C 91.946 46.939,92.902 47.067,93.292 47.118 C 97.561 47.673,99.197 41.394,95.217 39.726 C 93.648 39.068,88.500 38.807,85.750 39.246 M193.625 46.791 C 194.656 46.820,196.344 46.820,197.375 46.791 C 198.406 46.762,197.563 46.738,195.500 46.738 C 193.438 46.738,192.594 46.762,193.625 46.791 M250.884 46.791 C 251.967 46.820,253.692 46.820,254.718 46.791 C 255.744 46.762,254.858 46.738,252.750 46.738 C 250.642 46.738,249.802 46.762,250.884 46.791 M132.625 48.458 C 133.656 48.487,135.344 48.487,136.375 48.458 C 137.406 48.429,136.563 48.405,134.500 48.405 C 132.438 48.405,131.594 48.429,132.625 48.458 M150.885 48.458 C 152.151 48.486,154.176 48.486,155.385 48.458 C 156.594 48.429,155.558 48.406,153.083 48.406 C 150.608 48.406,149.619 48.430,150.885 48.458 M105.426 49.508 C 104.019 50.210,103.156 51.588,103.188 53.083 C 103.197 53.542,103.239 53.788,103.281 53.630 C 103.364 53.314,104.278 53.002,105.125 53.001 C 105.423 53.000,105.667 52.936,105.667 52.859 C 105.667 52.781,105.873 52.710,106.125 52.702 C 106.377 52.693,107.071 52.573,107.667 52.435 C 109.051 52.114,109.632 51.994,110.236 51.905 C 110.909 51.806,110.908 51.812,110.279 50.899 C 109.196 49.326,107.033 48.706,105.426 49.508 M88.961 53.954 C 89.261 53.991,89.711 53.990,89.961 53.952 C 90.212 53.914,89.967 53.884,89.417 53.885 C 88.867 53.886,88.662 53.917,88.961 53.954 M103.433 54.333 C 103.536 54.718,104.000 55.523,104.000 55.317 C 104.000 55.267,103.847 54.932,103.661 54.571 C 103.466 54.195,103.369 54.094,103.433 54.333 M271.324 55.458 L 270.750 56.083 271.375 55.509 C 271.719 55.193,272.000 54.912,272.000 54.884 C 272.000 54.757,271.859 54.877,271.324 55.458 M82.824 56.625 L 82.250 57.250 82.875 56.676 C 83.219 56.360,83.500 56.078,83.500 56.051 C 83.500 55.923,83.359 56.043,82.824 56.625 M73.039 60.667 C 73.039 60.987,73.073 61.119,73.115 60.958 C 73.157 60.798,73.157 60.535,73.115 60.375 C 73.073 60.215,73.039 60.346,73.039 60.667 M229.875 60.615 C 230.035 60.657,230.298 60.657,230.458 60.615 C 230.619 60.573,230.487 60.539,230.167 60.539 C 229.846 60.539,229.715 60.573,229.875 60.615 M87.703 61.125 C 87.304 61.515,87.298 61.534,87.659 61.252 C 88.370 60.698,88.404 60.667,88.286 60.667 C 88.223 60.667,87.961 60.873,87.703 61.125 M90.583 60.774 C 91.432 61.527,91.745 61.746,91.417 61.360 C 91.236 61.145,90.936 60.892,90.752 60.797 C 90.568 60.703,90.492 60.692,90.583 60.774 M113.565 63.167 C 113.565 64.404,113.592 64.910,113.624 64.292 C 113.656 63.673,113.656 62.660,113.624 62.042 C 113.592 61.423,113.565 61.929,113.565 63.167 M65.228 63.167 C 65.228 64.129,65.256 64.523,65.290 64.042 C 65.323 63.560,65.323 62.773,65.290 62.292 C 65.256 61.810,65.228 62.204,65.228 63.167 M72.893 63.167 C 72.893 64.037,72.922 64.394,72.956 63.958 C 72.990 63.523,72.990 62.810,72.956 62.375 C 72.922 61.940,72.893 62.296,72.893 63.167 M105.889 63.167 C 105.889 63.854,105.919 64.135,105.955 63.792 C 105.991 63.448,105.991 62.885,105.955 62.542 C 105.919 62.198,105.889 62.479,105.889 63.167 M86.705 63.167 C 86.705 63.487,86.740 63.619,86.782 63.458 C 86.823 63.298,86.823 63.035,86.782 62.875 C 86.740 62.715,86.705 62.846,86.705 63.167 M288.667 64.811 C 288.667 64.962,287.522 64.999,283.932 64.963 C 281.329 64.938,279.233 64.973,279.276 65.042 C 279.402 65.246,288.630 65.195,288.757 64.989 C 288.817 64.891,288.822 64.766,288.767 64.711 C 288.712 64.656,288.667 64.701,288.667 64.811 M65.375 66.083 C 65.377 66.450,65.411 66.580,65.451 66.373 C 65.491 66.166,65.490 65.866,65.448 65.706 C 65.406 65.547,65.374 65.717,65.375 66.083 M195.542 68.583 C 195.544 68.950,195.578 69.080,195.618 68.873 C 195.658 68.666,195.656 68.366,195.615 68.206 C 195.573 68.047,195.540 68.217,195.542 68.583 M232.590 68.792 C 227.919 68.816,224.041 68.892,223.973 68.960 C 223.905 69.028,227.687 69.063,232.378 69.039 C 237.674 69.011,240.968 68.932,241.070 68.830 C 241.160 68.740,241.200 68.685,241.158 68.707 C 241.117 68.729,237.261 68.767,232.590 68.792 M271.096 70.500 C 271.212 74.350,272.925 77.162,276.062 78.655 C 282.125 81.539,290.619 78.832,293.891 72.972 C 294.908 71.151,295.255 71.333,290.764 71.333 L 286.826 71.333 285.945 72.214 C 283.093 75.066,278.828 73.798,278.494 70.000 C 278.385 68.767,278.383 68.763,278.358 69.708 L 278.333 70.667 274.758 70.667 L 271.183 70.667 271.113 69.708 C 271.075 69.181,271.067 69.537,271.096 70.500 M82.826 69.708 C 83.517 70.444,83.667 70.577,83.667 70.451 C 83.667 70.425,83.310 70.068,82.875 69.660 L 82.083 68.917 82.826 69.708 M88.796 72.456 C 89.188 72.491,89.788 72.490,90.129 72.454 C 90.471 72.419,90.150 72.390,89.417 72.390 C 88.683 72.391,88.404 72.420,88.796 72.456 M106.495 80.292 L 105.417 81.417 106.542 80.338 C 107.160 79.745,107.667 79.239,107.667 79.213 C 107.667 79.090,107.497 79.247,106.495 80.292 M72.333 80.417 C 72.831 80.921,73.276 81.333,73.322 81.333 C 73.368 81.333,72.998 80.921,72.500 80.417 C 72.002 79.912,71.557 79.500,71.511 79.500 C 71.466 79.500,71.835 79.912,72.333 80.417 M89.127 87.451 C 89.334 87.491,89.634 87.490,89.794 87.448 C 89.953 87.406,89.783 87.374,89.417 87.375 C 89.050 87.377,88.920 87.411,89.127 87.451 M299.458 91.291 C 300.581 91.320,302.419 91.320,303.542 91.291 C 304.665 91.262,303.746 91.239,301.500 91.239 C 299.254 91.239,298.335 91.262,299.458 91.291 " stroke="none" fill="#81c394" fill-rule="evenodd"></path><path id="path4" d="M152.824 53.292 L 152.250 53.917 152.875 53.342 C 153.457 52.808,153.577 52.667,153.449 52.667 C 153.422 52.667,153.140 52.948,152.824 53.292 M143.824 53.625 L 143.250 54.250 143.875 53.676 C 144.457 53.141,144.577 53.000,144.449 53.000 C 144.422 53.000,144.140 53.281,143.824 53.625 M141.324 56.292 L 140.750 56.917 141.375 56.342 C 141.957 55.808,142.077 55.667,141.949 55.667 C 141.922 55.667,141.640 55.948,141.324 56.292 M211.750 57.000 C 212.108 57.367,212.438 57.667,212.484 57.667 C 212.530 57.667,212.275 57.367,211.917 57.000 C 211.559 56.633,211.228 56.333,211.182 56.333 C 211.137 56.333,211.392 56.633,211.750 57.000 M239.083 57.333 C 239.441 57.700,239.772 58.000,239.818 58.000 C 239.863 58.000,239.608 57.700,239.250 57.333 C 238.892 56.967,238.562 56.667,238.516 56.667 C 238.470 56.667,238.725 56.967,239.083 57.333 M197.922 57.494 C 197.662 57.766,197.385 57.949,197.308 57.901 C 197.230 57.853,197.167 57.893,197.167 57.990 C 197.167 58.304,197.422 58.179,198.000 57.583 C 198.311 57.262,198.527 57.000,198.481 57.000 C 198.434 57.000,198.183 57.222,197.922 57.494 M260.073 57.542 L 259.583 58.083 260.125 57.594 C 260.630 57.138,260.743 57.000,260.615 57.000 C 260.586 57.000,260.342 57.244,260.073 57.542 M147.912 58.375 L 146.750 59.583 147.958 58.421 C 148.623 57.782,149.167 57.238,149.167 57.213 C 149.167 57.091,148.992 57.253,147.912 58.375 M138.658 59.125 L 138.083 59.750 138.708 59.176 C 139.290 58.641,139.410 58.500,139.283 58.500 C 139.255 58.500,138.974 58.781,138.658 59.125 M258.073 59.708 L 257.583 60.250 258.125 59.760 C 258.423 59.491,258.667 59.248,258.667 59.219 C 258.667 59.090,258.529 59.203,258.073 59.708 M214.383 64.167 C 214.383 64.671,214.415 64.877,214.453 64.625 C 214.491 64.373,214.491 63.960,214.453 63.708 C 214.415 63.456,214.383 63.663,214.383 64.167 M241.717 64.167 C 241.717 64.671,241.748 64.877,241.786 64.625 C 241.824 64.373,241.824 63.960,241.786 63.708 C 241.748 63.456,241.717 63.663,241.717 64.167 M216.383 70.000 C 216.383 70.504,216.415 70.710,216.453 70.458 C 216.491 70.206,216.491 69.794,216.453 69.542 C 216.415 69.290,216.383 69.496,216.383 70.000 M237.158 75.625 L 236.583 76.250 237.208 75.676 C 237.552 75.360,237.833 75.078,237.833 75.051 C 237.833 74.923,237.692 75.043,237.158 75.625 M172.906 76.708 L 172.417 77.250 172.958 76.760 C 173.463 76.304,173.577 76.167,173.448 76.167 C 173.419 76.167,173.175 76.410,172.906 76.708 M164.961 79.787 C 165.261 79.825,165.711 79.824,165.961 79.786 C 166.212 79.748,165.967 79.717,165.417 79.718 C 164.867 79.719,164.662 79.750,164.961 79.787 " stroke="none" fill="#848484" fill-rule="evenodd"></path></g></svg>