<svg xmlns="http://www.w3.org/2000/svg" role="img" viewBox="27.64 9.64 1422.72 427.72"><g transform="translate(8.531 7.967)"><path fill="#ed031c" d="M146.70716 394.99999c-3.28061-4.21667-27.15274-34.25089-53.04917-66.74272l-47.08442-59.07606 17.601-77.59061c9.68056-42.67483 18.18107-79.84631 18.89003-82.60328 1.5322-5.95837-5.07547-2.40688 88.96097-47.81474l65.78156-31.76429 76.8138 37.10705 76.8138 37.10705 18.40319 80.52213c10.12175 44.28718 18.22357 82.02214 18.00403 83.85547-.24097 2.01233-21.1519 29.35708-52.76532 69l-52.36616 65.66667H152.67191zm56.54677-62.45436c.43323-.43324-1.30069-3.52364-3.85317-6.86756-2.55248-3.34393-5.8098-8.37117-7.2385-11.17164-6.52724-12.79446-8.45141-33.29939-4.55679-48.55964 2.60213-10.19592 13.32435-32.61346 15.59888-32.61346 1.00303 0 2.44159 2.9693 3.39136 7 .90719 3.85 3.32359 9.39413 5.36978 12.3203 4.27343 6.11123 10.38409 9.07828 12.30285 5.97367 3.06674-4.96209 10.78473-31.54039 13.34637-45.96064 1.56324-8.8 3.30925-16.4849 3.88002-17.07756 2.01395-2.09123 18.79439 20.6168 26.41375 35.74423 15.51089 30.79525 13.58816 59.78423-5.89602 88.89384-3.96635 5.92579-6.85638 11.12933-6.42228 11.56343 1.86611 1.86612 23.039-4.03781 34.53297-9.62929 20.64497-10.0432 33.73669-24.55715 39.78395-44.10595 3.84647-12.43436 4.0511-33.13678.46842-47.3887-11.2433-44.7258-49.12171-88.61242-96.13151-111.37973-8.06667-3.90677-16.31667-7.5096-18.33333-8.00628l-3.66667-.90307-.0158 9.14454c-.0191 11.04887-2.53593 21.07731-7.98299 31.80888-3.87096 7.6264-8.06116 13.49715-30.31627 42.4751-19.29344 25.12161-26.70566 42.49899-27.97153 65.5771-.84868 15.47237 1.00956 23.85725 8.41042 37.95013 8.49444 16.17528 21.23797 27.77801 36.54286 33.27156 7.64379 2.74367 11.01091 3.27308 12.34326 1.94074z"/><path fill="#111" d="M566.24403 295.56522c-7.47262-2.92409-9.91108-4.93867-13.62484-11.25642l-3.7085-6.30881v-69.33333h21.33334l.66666 30c.73873 33.24246 1.56103 36.7806 9.29248 39.98308 4.98195 2.06359 12.73208.9955 16.39454-2.25942 6.49044-5.76824 7.58577-11.32098 7.61704-38.61461.0161-14.05669.39347-26.50669.8386-27.66666.64317-1.67609 2.96456-2.10905 11.30793-2.10905 9.7817 0 10.54859.20485 11.23052 3 .40256 1.65.56399 21.29999.35874 43.66666l-.37318 40.66667-9.30164.40113c-10.57572.45607-12.69836-.99085-12.69836-8.65597 0-5.44037-1.6359-5.60439-5.25164-.52656-6.2157 8.72915-23.27707 13.24122-34.08169 9.01329zm122.83302-.10891c-2.84183-1.05796-7.18285-3.87742-9.64669-6.26547-2.46384-2.38805-4.73477-4.08292-5.04651-3.76638-.31174.31655-1.1071 2.67553-1.76747 5.2422l-1.20066 4.66667-10.08946.38648c-7.35955.28191-10.22377-.0788-10.58585-1.33333-.27301-.9459-.19638-28.11982.17029-60.38649l.66667-58.66666h21.33333l.36596 22.41793.36595 22.41794 5.88848-5.18325c12.97815-11.42382 31.7003-11.27048 42.89417.35133 8.30899 8.62664 10.48544 16.37505 10.48544 37.32938 0 15.90079-.28666 17.93941-3.4685 24.66667-3.78018 7.99228-8.92249 13.76613-15.1102 16.96592-5.59651 2.89407-18.94616 3.50569-25.25495 1.15706zm13.18086-18.53685c5.78902-5.78903 7.67156-13.28205 7.07848-28.17433-.72343-18.16536-6.01358-26.07847-17.43423-26.07847-11.53047 0-18.13325 10.37442-18.24485 28.66667-.083 13.60723 1.75894 20.10555 7.25749 25.6041 3.72525 3.72524 5.35196 4.3959 10.66257 4.3959 5.31576 0 6.93643-.66976 10.68054-4.41387zm70.4294 17.94578c-17.45757-6.0329-25.77661-20.03681-25.77661-43.39124 0-26.25338 13.43004-42.61154 36.50472-44.46376 16.89789-1.3564 29.47305 4.54215 36.71448 17.22143 4.1008 7.18022 7.4059 21.45292 6.58464 28.43499l-.4705 4-27.31666.66667c-30.64494.74789-29.48092.27724-26.65364 10.77695.83593 3.10443 3.22507 7.34961 5.30919 9.43374 3.25711 3.2571 4.83314 3.78931 11.22137 3.78931 6.61155 0 7.99855-.51179 12.56326-4.63574 5.05155-4.56377 5.26894-4.62287 14.00384-3.80719 10.15669.94845 10.99645 2.37952 5.64928 9.6272-9.71655 13.17005-30.55132 18.49267-48.33337 12.34764zm31.33272-55.99184c.64105-4.52791-2.17953-10.41495-6.88836-14.37717-3.53283-2.97268-5.0193-3.36141-10.7486-2.8109-5.05979.48618-7.37359 1.48151-9.68157 4.16469-3.29393 3.82942-6.41655 13.39212-5.07952 15.55548.50359.81483 6.95791 1.19644 16.39301.96924 15.18522-.36566 15.57311-.45052 16.00504-3.50134zm135.72371 56.58291c-2.84184-1.05796-7.18286-3.87742-9.6467-6.26547-2.46384-2.38805-4.73477-4.08292-5.04651-3.76638-.31174.31655-1.1071 2.67553-1.76746 5.2422l-1.20067 4.66667-10.08946.38648c-7.35955.28191-10.22377-.0788-10.58585-1.33333-.27301-.9459-.19638-28.11982.17029-60.38649l.66667-58.66666h21.33333l.36596 22.41793.36595 22.41794 5.88848-5.18325c12.97815-11.42382 31.7003-11.27048 42.89417.35133 8.30899 8.62664 10.48544 16.37505 10.48544 37.32938 0 15.90079-.28666 17.93941-3.4685 24.66667-3.78018 7.99228-8.92249 13.76613-15.1102 16.96592-5.59651 2.89407-18.94616 3.50569-25.25494 1.15706zm13.18085-18.53685c5.78902-5.78903 7.67156-13.28205 7.07848-28.17433-.72343-18.16536-6.01358-26.07847-17.43423-26.07847-11.53047 0-18.13325 10.37442-18.24484 28.66667-.083 13.60723 1.75893 20.10555 7.25748 25.6041 3.72525 3.72524 5.35196 4.3959 10.66257 4.3959 5.31576 0 6.93643-.66976 10.68054-4.41387zm66.65281 18.64576c-7.4726-2.92409-9.9111-4.93867-13.6248-11.25642l-3.7085-6.30881v-69.33333h21.3333l.6667 30c.7387 33.24246 1.561 36.7806 9.2924 39.98308 4.982 2.06359 12.7321.9955 16.3946-2.25942 6.4904-5.76824 7.5857-11.32098 7.617-38.61461.016-14.05669.3935-26.50669.8386-27.66666.6432-1.67609 2.9646-2.10905 11.3079-2.10905 9.7817 0 10.5486.20485 11.2306 3 .4025 1.65.5639 21.29999.3587 43.66666l-.3732 40.66667-9.3016.40113c-10.5757.45607-12.6984-.99085-12.6984-8.65597 0-5.44037-1.6359-5.60439-5.2516-.52656-6.2157 8.72915-23.2771 13.24122-34.0817 9.01329zm271.7766-.69998c-17.4576-6.0329-25.7766-20.03681-25.7766-43.39124 0-26.25338 13.43-42.61154 36.5047-44.46376 16.8979-1.3564 29.4731 4.54215 36.7145 17.22143 4.1008 7.18022 7.4059 21.45292 6.5846 28.43499l-.4705 4-27.3166.66667c-30.645.74789-29.4809.27724-26.6537 10.77695.836 3.10443 3.2251 7.34961 5.3092 9.43374 3.2571 3.2571 4.8332 3.78931 11.2214 3.78931 6.6115 0 7.9985-.51179 12.5633-4.63574 5.0515-4.56377 5.2689-4.62287 14.0038-3.80719 10.1567.94845 10.9964 2.37952 5.6493 9.6272-9.7166 13.17005-30.5513 18.49267-48.3334 12.34764zm31.3327-55.99184c.6411-4.52791-2.1795-10.41495-6.8883-14.37717-3.5329-2.97268-5.0193-3.36141-10.7486-2.8109-5.0598.48618-7.3736 1.48151-9.6816 4.16469-3.2939 3.82942-6.4166 13.39212-5.0795 15.55548.5036.81483 6.9579 1.19644 16.393.96924 15.1852-.36566 15.5731-.45052 16.005-3.50134zm-865.81068 55.51638c-.36353-.94772-.50445-28.12312-.31315-60.38979l.34782-58.66666h21.33333l.35663 33c.19731 18.25814.88958 33 1.54966 33 .65616 0 7.65776-7.5 15.5591-16.66667L510.07549 208h11.08427c7.37471 0 11.08427.50608 11.08427 1.5122 0 .83172-5.21704 7.28172-11.59342 14.33334-6.37637 7.05162-12.74769 14.1357-14.15847 15.74241l-2.56507 2.9213 15.49181 24.88285c8.5205 13.68556 15.49181 25.74434 15.49181 26.79728 0 1.54685-2.23379 1.84047-11.63407 1.52919l-11.63408-.38524-10.9859-18.65111c-6.04225-10.2581-11.59817-18.85519-12.34649-19.10463-.74832-.24944-3.15109.82142-5.33948 2.3797l-3.9789 2.83322-.37387 16.27141-.37388 16.27141-10.35352.38978c-7.5256.28332-10.53405-.0809-11.01448-1.33333zm648.24338.61449c-.3752-.60712-.8201-20.28145-.9885-43.72073l-.3062-42.61688h21.086l.4064 6.33334c.2235 3.48333.9246 6.33333 1.5579 6.33333.6334 0 2.4876-2.16181 4.1206-4.80402 3.7682-6.09705 9.8941-9.85128 16.0852-9.85766 6.5621-.007 8.0479 2.2612 7.5665 11.54918l-.4032 7.77916-7.3847.11784c-8.8355.14098-13.4193 2.7624-16.8338 9.62691-2.0547 4.13084-2.5554 9.3151-3.1149 32.25525l-.6666 27.33334-10.2213.3874c-5.6216.21307-10.5282-.10934-10.9034-.71646zm65.3191-.023c-.383-.61977-.8129-20.2941-.9553-43.72073l-.2589-42.59389h21.0198l.4064 6.33335c.2235 3.48333.8945 6.33333 1.4912 6.33333.5966 0 3.7157-2.63093 6.9313-5.84651 14.5447-14.54465 38.815-10.85895 46.9891 7.1358 2.4527 5.3992 2.8019 9.2811 3.2732 36.38459.2901 16.6873.1519 31.8373-.3072 33.66666-.8016 3.19365-1.253 3.32612-11.3335 3.32612-8.3433 0-10.6647-.43296-11.3079-2.10905-.4451-1.15997-.8102-14.50997-.8114-29.66666 0-23.57208-.3392-28.22986-2.3333-32.20574-5.7949-11.55394-21.5739-10.32817-27.7713 2.15737-2.2 4.43229-2.6537 9.0942-3.2266 33.15742l-.6667 28-10.2212.3874c-5.6217.21307-10.5347-.11968-10.9177-.73945zm194.6809.023c-.3752-.60712-.82-20.28145-.9885-43.72073l-.3062-42.61688h21.086l.4064 6.33334c.2235 3.48333.9246 6.33333 1.5579 6.33333.6334 0 2.4877-2.16181 4.1206-4.80402 3.7682-6.09705 9.8942-9.85128 16.0852-9.85766 6.5621-.007 8.0479 2.2612 7.5665 11.54918l-.4032 7.77916-7.3847.11784c-8.8355.14098-13.4193 2.7624-16.8338 9.62691-2.0547 4.13084-2.5553 9.3151-3.1149 32.25525l-.6666 27.33334-10.2213.3874c-5.6216.21307-10.5282-.10934-10.9034-.71646zM840.79683 260.8507c-.38326-.99878-.51443-5.34878-.29148-9.66667l.40536-7.8507 19.89846-.37031c15.0252-.27961 20.16324.0469 20.97959 1.33334 1.26836 1.99869 1.48389 13.20901.31263 16.26125-.68796 1.79282-3.79303 2.10905-20.70851 2.10905-15.56189 0-20.05108-.39581-20.59605-1.81596z"/></g></svg>