<?xml version="1.0" encoding="UTF-8"?>
<svg id="Layer_2" data-name="Layer 2" xmlns="http://www.w3.org/2000/svg" viewBox="0 0 512.98 69.26">
  <defs>
    <style>
      .cls-1 {
        fill: #30d163;
      }

      .cls-1, .cls-2 {
        stroke-width: 0px;
      }

      .cls-2 {
        fill: #000;
      }
    </style>
  </defs>
  <g id="Layer_1-2" data-name="Layer 1">
    <g>
      <path class="cls-2" d="M114.55,56.15h-8.91V8.43h8.91v47.72Z"/>
      <path class="cls-2" d="M140.89,8.43c3.12,0,5.8.3,8.02.89,2.22.59,4.04,1.44,5.46,2.54,1.42,1.1,2.46,2.43,3.12,3.99.66,1.56.99,3.32.99,5.28,0,1.12-.17,2.19-.5,3.22-.33,1.02-.84,1.98-1.53,2.87-.69.89-1.57,1.7-2.64,2.43-1.07.73-2.34,1.34-3.81,1.85,6.56,1.47,9.83,5.02,9.83,10.63,0,2.02-.39,3.89-1.15,5.61-.77,1.72-1.89,3.2-3.37,4.44-1.47,1.24-3.29,2.22-5.44,2.92-2.16.7-4.62,1.06-7.39,1.06h-18.02V8.43h16.43ZM133.33,15.3v13.79h7.06c3.04,0,5.33-.55,6.88-1.65,1.55-1.1,2.33-2.85,2.33-5.25s-.7-4.26-2.11-5.31c-1.41-1.06-3.61-1.58-6.6-1.58h-7.56ZM142.31,49.22c1.65,0,3.04-.2,4.16-.59,1.12-.4,2.02-.92,2.69-1.58.67-.66,1.15-1.43,1.45-2.31.3-.88.45-1.81.45-2.81s-.17-1.96-.5-2.79c-.33-.82-.85-1.53-1.55-2.11-.7-.58-1.61-1.03-2.72-1.34-1.11-.31-2.45-.46-4.01-.46h-8.94v13.99h8.98Z"/>
      <path class="cls-2" d="M219.16,8.43v47.72h-7.82v-30.82c0-1.23.07-2.56.2-3.99l-14.42,27.09c-.68,1.3-1.73,1.95-3.14,1.95h-1.25c-1.41,0-2.45-.65-3.14-1.95l-14.59-27.19c.07.73.12,1.44.17,2.15.04.7.07,1.35.07,1.95v30.82h-7.82V8.43h6.7c.4,0,.74.01,1.02.03.29.02.54.08.78.17.23.09.44.23.63.43.19.2.37.46.54.79l14.29,26.5c.37.7.72,1.43,1.04,2.18.32.75.63,1.52.94,2.31.31-.81.63-1.6.96-2.36.33-.76.68-1.49,1.06-2.19l14.09-26.43c.18-.33.36-.59.56-.79.2-.2.41-.34.64-.43.23-.09.49-.14.78-.17.29-.02.63-.03,1.02-.03h6.7Z"/>
      <path class="cls-2" d="M255.49,28.43h2.08c.84,0,1.53-.12,2.08-.35.55-.23,1.02-.6,1.42-1.11l13.17-16.67c.55-.7,1.13-1.19,1.73-1.47.6-.27,1.37-.41,2.29-.41h7.66l-16.07,19.83c-.95,1.21-1.93,2.07-2.94,2.57.73.26,1.38.63,1.96,1.11.58.47,1.14,1.09,1.67,1.86l16.57,22.34h-7.82c-1.06,0-1.84-.15-2.36-.45-.52-.3-.95-.73-1.3-1.3l-13.5-17.62c-.42-.59-.9-1.01-1.45-1.25-.55-.24-1.34-.36-2.38-.36h-2.81v20.99h-8.88V8.43h8.88v20Z"/>
      <path class="cls-2" d="M317.66,22.29v33.86h-4.98c-1.08,0-1.76-.5-2.05-1.48l-.56-2.71c-1.39,1.41-2.92,2.55-4.59,3.42-1.67.87-3.64,1.3-5.91,1.3-1.85,0-3.48-.31-4.9-.94s-2.61-1.51-3.58-2.66c-.97-1.14-1.7-2.5-2.19-4.08-.5-1.57-.74-3.31-.74-5.2v-21.52h8.15v21.52c0,2.07.48,3.67,1.44,4.8.96,1.13,2.39,1.7,4.31,1.7,1.41,0,2.73-.31,3.96-.94,1.23-.63,2.4-1.49,3.5-2.59v-24.49h8.15Z"/>
      <path class="cls-2" d="M333.2,26.45c1.36-1.43,2.88-2.57,4.54-3.42,1.66-.85,3.56-1.27,5.69-1.27,1.96,0,3.72.39,5.3,1.16,1.57.77,2.91,1.88,4.03,3.32,1.11,1.44,1.96,3.18,2.56,5.23.59,2.05.89,4.35.89,6.9,0,2.75-.34,5.25-1.02,7.49-.68,2.24-1.66,4.16-2.92,5.76-1.27,1.6-2.79,2.83-4.57,3.71-1.78.88-3.76,1.32-5.94,1.32-1.06,0-2.01-.1-2.87-.31-.86-.21-1.65-.5-2.38-.87s-1.39-.83-2-1.37c-.61-.54-1.18-1.14-1.73-1.8l-.36,2.28c-.13.57-.36.98-.68,1.22-.32.24-.75.36-1.3.36h-5.38V7.11h8.15v19.34ZM333.2,47.37c.92,1.12,1.93,1.91,3.02,2.38,1.09.46,2.24.69,3.45.69s2.38-.23,3.38-.68c1-.45,1.85-1.15,2.56-2.11s1.24-2.18,1.62-3.66c.37-1.48.56-3.26.56-5.33,0-3.72-.62-6.41-1.85-8.07-1.23-1.66-3-2.49-5.31-2.49-1.56,0-2.93.36-4.09,1.07-1.17.72-2.28,1.72-3.33,3.02v15.18Z"/>
      <path class="cls-2" d="M368.33,40.24c.13,1.74.44,3.24.92,4.5.48,1.27,1.12,2.31,1.91,3.13.79.83,1.73,1.44,2.82,1.85,1.09.41,2.29.61,3.61.61s2.46-.15,3.42-.46c.96-.31,1.79-.65,2.51-1.02.71-.37,1.34-.71,1.88-1.02.54-.31,1.06-.46,1.57-.46.68,0,1.19.25,1.52.76l2.34,2.97c-.9,1.06-1.91,1.94-3.04,2.66-1.12.72-2.29,1.29-3.51,1.72-1.22.43-2.46.73-3.73.91-1.27.18-2.49.26-3.68.26-2.35,0-4.54-.39-6.57-1.17-2.02-.78-3.78-1.94-5.28-3.47-1.5-1.53-2.67-3.42-3.53-5.68-.86-2.25-1.29-4.87-1.29-7.84,0-2.31.37-4.48,1.12-6.52.75-2.03,1.82-3.81,3.22-5.31,1.4-1.51,3.1-2.7,5.11-3.58,2.01-.88,4.28-1.32,6.81-1.32,2.13,0,4.1.34,5.91,1.02,1.8.68,3.35,1.68,4.65,2.99,1.3,1.31,2.32,2.92,3.05,4.82.74,1.9,1.11,4.08,1.11,6.52,0,1.23-.13,2.06-.4,2.49-.26.43-.77.64-1.52.64h-20.96ZM383.87,35.33c0-1.06-.15-2.05-.45-2.99-.3-.93-.74-1.75-1.34-2.46-.59-.7-1.35-1.26-2.26-1.67-.91-.41-1.97-.61-3.18-.61-2.35,0-4.21.67-5.56,2.01-1.35,1.34-2.22,3.25-2.59,5.71h15.38Z"/>
      <path class="cls-2" d="M421.03,29.45c-.24.31-.48.55-.71.73-.23.18-.57.26-1.01.26s-.82-.13-1.22-.38-.87-.54-1.42-.86-1.2-.6-1.96-.86c-.76-.25-1.7-.38-2.82-.38-1.43,0-2.68.26-3.76.78-1.08.52-1.97,1.26-2.69,2.23-.72.97-1.25,2.14-1.6,3.51-.35,1.38-.53,2.93-.53,4.67s.19,3.41.58,4.82c.38,1.41.94,2.59,1.67,3.55.73.96,1.61,1.68,2.64,2.18,1.03.5,2.2.74,3.5.74s2.35-.16,3.15-.48c.8-.32,1.48-.67,2.03-1.06.55-.38,1.03-.74,1.44-1.06.41-.32.86-.48,1.37-.48.66,0,1.15.25,1.48.76l2.34,2.97c-.9,1.06-1.88,1.94-2.94,2.66-1.06.72-2.15,1.29-3.28,1.72-1.13.43-2.3.73-3.5.91-1.2.18-2.39.26-3.58.26-2.09,0-4.06-.39-5.91-1.17-1.85-.78-3.46-1.92-4.85-3.42-1.39-1.5-2.48-3.33-3.28-5.49-.8-2.17-1.2-4.64-1.2-7.41,0-2.49.36-4.79,1.07-6.91.71-2.12,1.77-3.96,3.15-5.51,1.39-1.55,3.1-2.77,5.15-3.65s4.4-1.32,7.06-1.32,4.75.41,6.65,1.22c1.9.81,3.61,1.98,5.13,3.5l-2.15,2.97Z"/>
      <path class="cls-2" d="M442.07,21.76c2.51,0,4.79.41,6.85,1.22,2.06.81,3.82,1.97,5.28,3.46,1.46,1.5,2.59,3.32,3.38,5.48.79,2.16,1.19,4.57,1.19,7.23s-.4,5.1-1.19,7.26c-.79,2.16-1.92,3.99-3.38,5.51-1.46,1.52-3.22,2.68-5.28,3.5-2.06.81-4.34,1.22-6.85,1.22s-4.83-.41-6.9-1.22c-2.07-.81-3.83-1.98-5.3-3.5-1.46-1.52-2.6-3.35-3.4-5.51-.8-2.16-1.2-4.58-1.2-7.26s.4-5.07,1.2-7.23c.8-2.16,1.94-3.98,3.4-5.48,1.46-1.5,3.23-2.65,5.3-3.46,2.07-.81,4.37-1.22,6.9-1.22ZM442.07,50.38c2.82,0,4.9-.95,6.25-2.84,1.35-1.89,2.03-4.66,2.03-8.32s-.68-6.43-2.03-8.35c-1.35-1.91-3.44-2.87-6.25-2.87s-4.98.96-6.35,2.89c-1.38,1.93-2.06,4.7-2.06,8.33s.69,6.4,2.06,8.3,3.49,2.85,6.35,2.85Z"/>
      <path class="cls-2" d="M484.65,28.89c-.22.35-.45.6-.69.74-.24.14-.55.21-.92.21-.4,0-.82-.11-1.27-.33-.45-.22-.97-.47-1.57-.74-.59-.27-1.27-.52-2.03-.74-.76-.22-1.66-.33-2.69-.33-1.61,0-2.87.34-3.78,1.02-.91.68-1.37,1.57-1.37,2.67,0,.73.24,1.34.71,1.83s1.1.93,1.88,1.3c.78.37,1.67.71,2.66,1.01.99.3,2,.62,3.02.97s2.03.75,3.02,1.2c.99.45,1.88,1.02,2.66,1.72.78.69,1.41,1.52,1.88,2.49.47.97.71,2.13.71,3.5,0,1.63-.29,3.13-.87,4.5-.58,1.38-1.45,2.56-2.59,3.56-1.14,1-2.56,1.78-4.24,2.34s-3.62.84-5.82.84c-1.17,0-2.31-.1-3.42-.31-1.11-.21-2.18-.5-3.2-.87-1.02-.37-1.97-.81-2.84-1.32-.87-.51-1.63-1.06-2.29-1.65l1.88-3.1c.24-.37.53-.66.86-.86.33-.2.75-.3,1.25-.3s.98.14,1.44.43c.45.29.97.59,1.57.92.59.33,1.29.64,2.1.92.8.29,1.82.43,3.05.43.97,0,1.8-.12,2.49-.35s1.26-.53,1.72-.91c.45-.37.78-.81.99-1.3.21-.5.31-1.01.31-1.53,0-.79-.24-1.44-.71-1.95-.47-.51-1.1-.95-1.88-1.32-.78-.37-1.67-.71-2.67-1.01s-2.02-.62-3.07-.97c-1.04-.35-2.07-.76-3.07-1.24-1-.47-1.89-1.07-2.67-1.8s-1.41-1.62-1.88-2.67-.71-2.33-.71-3.83c0-1.39.27-2.71.83-3.96.55-1.25,1.36-2.35,2.43-3.28,1.07-.94,2.4-1.68,3.99-2.24,1.59-.56,3.44-.84,5.53-.84,2.33,0,4.46.39,6.37,1.16,1.91.77,3.51,1.78,4.79,3.04l-1.85,2.94Z"/>
      <path class="cls-2" d="M504.11,56.68c-2.95,0-5.21-.83-6.78-2.49s-2.36-3.95-2.36-6.88v-18.91h-3.46c-.44,0-.81-.14-1.12-.43-.31-.29-.46-.71-.46-1.29v-3.23l5.44-.89,1.72-9.24c.11-.44.32-.78.63-1.02.31-.24.7-.36,1.19-.36h4.22v10.66h9.04v5.81h-9.04v18.35c0,1.06.26,1.88.78,2.47.52.59,1.23.89,2.13.89.51,0,.93-.06,1.27-.18.34-.12.64-.25.89-.38.25-.13.48-.26.68-.38.2-.12.4-.18.59-.18.24,0,.44.06.59.18.15.12.32.3.5.54l2.44,3.96c-1.19.99-2.55,1.74-4.09,2.24-1.54.51-3.14.76-4.79.76Z"/>
    </g>
    <g>
      <path class="cls-1" d="M26.4,46.35c-.56-.72-1.07-1.45-1.55-2.19-1.73,1-2.89,2.32-2.89,3.86,0,3.4,5.69,5.8,10.79,5.8.8,0,1.61-.06,2.41-.17-3.02-1.4-6.12-3.91-8.77-7.3Z"/>
      <path class="cls-1" d="M39.11,36.83c-1.23-1.58-2.53-2.9-3.84-3.95,0,.09,0,.18,0,.27,0,1.9.11,3.67.3,5.31,2.04.25,3.92.77,5.55,1.5-.61-1.12-1.29-2.2-2.01-3.13Z"/>
      <path class="cls-1" d="M31.61,38.32c-.19-1.72-.28-3.47-.28-5.21,0-.88.02-1.76.07-2.64-1.14-.48-2.19-.73-3.08-.73-.77,0-1.43.21-1.92.56-.63.45-1.01,1.22-1.15,2.29-.25,1.82.26,4.15,1.36,6.55,1.54-.45,3.22-.74,5-.83Z"/>
      <path class="cls-1" d="M34.63,0C15.51,0,0,15.51,0,34.63s15.51,34.63,34.63,34.63,34.63-15.51,34.63-34.63S53.76,0,34.63,0ZM45.51,52.95c-2.53,2.89-7.24,4.79-12.76,4.79-8.28,0-14.74-4.27-14.74-9.73,0-2.95,1.9-5.56,4.95-7.33-1.35-3.03-1.94-6.01-1.59-8.55.28-2.12,1.22-3.79,2.69-4.9,2.02-1.5,4.77-1.65,7.71-.68,1.13-8.14,4.39-15.16,9.5-15.16,6.46,0,9.95,11.18,9.95,21.71,0,7.92-1.98,16.22-5.72,19.84Z"/>
      <path class="cls-1" d="M29.51,43.88c1.44,1.87,3.02,3.4,4.6,4.57-.8-1.83-1.44-3.95-1.9-6.23-1.19.04-2.41.21-3.56.48.28.4.56.79.86,1.17Z"/>
      <path class="cls-1" d="M36.32,42.6s-.02,0-.03,0c.12.51,1.84,7.81,4.42,8.43.05,0,.11,0,.16,0,.04,0,.08,0,.13,0,.07,0,.15-.02.22-.03,0,0,0,0,0,0,.07-.01.13-.03.2-.04,0,0,.01,0,.02,0,.06-.02.12-.04.18-.06,0,0,.02,0,.03-.01.06-.02.11-.05.16-.07.01,0,.03-.01.04-.02.05-.03.1-.06.15-.09.02,0,.03-.02.05-.03.05-.03.09-.07.14-.1.02-.01.03-.02.05-.04.05-.04.09-.08.14-.12.02-.02.03-.03.05-.04.06-.06.12-.12.18-.19,0,0,0,0,0,0,0,0,0,0,0,0,.09-.11.18-.21.25-.32,0-.01.02-.03.03-.04.58-.81.84-1.71.79-2.39-.43-2.94-6-4.61-7.37-4.81Z"/>
      <path class="cls-1" d="M41.27,15.33c-2.06,0-4.92,4.94-5.76,13.02,2.34,1.46,4.66,3.54,6.71,6.15,1.9,2.44,3.31,5.03,4.17,7.53.55-2.53.89-5.52.89-8.88,0-10.87-3.56-17.82-6.01-17.82Z"/>
    </g>
  </g>
</svg>