<?xml version="1.0" encoding="utf-8"?>
<!-- Generator: Adobe Illustrator 24.0.0, SVG Export Plug-In . SVG Version: 6.00 Build 0)  -->
<svg version="1.1" id="图层_1" xmlns="http://www.w3.org/2000/svg" xmlns:xlink="http://www.w3.org/1999/xlink" x="0px" y="0px"
	 viewBox="0 0 566.93 566.93" style="enable-background:new 0 0 566.93 566.93;" xml:space="preserve">
<style type="text/css">
	.st0{fill:#29ACE2;}
	.st1{fill:#0D308E;}
	.st2{fill:#137AA1;}
	.st3{fill:#1E2C5D;}
</style>
<rect x="376.89" y="-38.76" transform="matrix(0.7071 -0.7071 0.7071 0.7071 4.2624 333.8683)" class="st0" width="56.52" height="401.09"/>
<rect x="133.54" y="204.6" transform="matrix(0.7071 -0.7071 0.7071 0.7071 -239.0885 233.0693)" class="st1" width="56.52" height="401.09"/>
<rect x="204.96" y="377.03" transform="matrix(0.7071 -0.7071 0.7071 0.7071 -167.8753 405.2921)" class="st0" width="400.67" height="56.52"/>
<rect x="397.01" y="9.84" transform="matrix(0.7071 -0.7071 0.7071 0.7071 -4.0776 353.9968)" class="st1" width="56.52" height="344.15"/>
<polygon class="st0" points="405.54,282.09 445.5,242.12 323.58,120.19 303.59,100.21 283.61,80.23 80.22,283.62 100.21,303.6 
	120.19,323.58 242.12,445.51 282.08,405.54 160.15,283.62 283.61,160.16 "/>
<polygon class="st1" points="405.54,282.09 325.8,202.35 300.34,227.81 285.83,242.32 242.31,285.83 200.13,243.65 160.15,283.62 
	242.31,365.76 255.04,353.04 282.28,325.8 325.8,282.29 365.57,322.05 "/>
<rect x="354.66" y="50.8" transform="matrix(0.7071 -0.7071 0.7071 0.7071 -11.2883 303.288)" class="st2" width="11.58" height="228.94"/>
<rect x="151.29" y="254.17" transform="matrix(0.7071 -0.7071 0.7071 0.7071 -214.665 219.046)" class="st3" width="11.58" height="228.94"/>
<rect x="355.78" y="189.93" transform="matrix(0.7071 -0.7071 0.7071 0.7071 -68.2659 327.8097)" class="st3" width="11.58" height="112.76"/>
<rect x="497.08" y="279.43" transform="matrix(0.7071 -0.7071 0.7071 0.7071 -70.279 445.7069)" class="st2" width="11.58" height="56.52"/>
<rect x="157.16" y="261.44" transform="matrix(0.7071 -0.7071 0.7071 0.7071 -135.8366 209.8748)" class="st3" width="56.52" height="14.93"/>
</svg>
