<svg width="2946" height="2946" viewBox="0 0 2946 2946" fill="none" xmlns="http://www.w3.org/2000/svg">
<path d="M411.3 2572C401.5 2556.13 389.833 2539.1 376.3 2520.9C363.233 2502.23 348.767 2483.8 332.9 2465.6C317.5 2446.93 301.4 2429.2 284.6 2412.4C267.8 2395.13 251 2379.97 234.2 2366.9V2572H125V2086.9H234.2V2270.3C262.667 2240.43 291.133 2209.4 319.6 2177.2C348.533 2144.53 375.367 2114.43 400.1 2086.9H529.6C496.467 2126.1 463.1 2163.9 429.5 2200.3C396.367 2236.7 361.367 2273.33 324.5 2310.2C363.233 2342.4 400.567 2380.67 436.5 2425C472.9 2469.33 507.667 2518.33 540.8 2572H411.3ZM886.89 2559.4C869.157 2564.53 846.29 2569.2 818.29 2573.4C790.29 2578.07 760.89 2580.4 730.09 2580.4C698.823 2580.4 672.69 2576.2 651.69 2567.8C631.157 2559.4 614.823 2547.73 602.69 2532.8C590.557 2517.4 581.923 2499.2 576.79 2478.2C571.657 2457.2 569.09 2434.1 569.09 2408.9V2203.8H673.39V2396.3C673.39 2429.9 677.823 2454.17 686.69 2469.1C695.557 2484.03 712.123 2491.5 736.39 2491.5C743.857 2491.5 751.79 2491.27 760.19 2490.8C768.59 2489.87 776.057 2488.93 782.59 2488V2203.8H886.89V2559.4ZM1220.7 2385.1C1220.7 2317.9 1195.96 2284.3 1146.5 2284.3C1135.76 2284.3 1125.03 2285.7 1114.3 2288.5C1104.03 2291.3 1095.63 2294.8 1089.1 2299V2488.7C1094.23 2489.63 1100.76 2490.57 1108.7 2491.5C1116.63 2491.97 1125.26 2492.2 1134.6 2492.2C1163.06 2492.2 1184.53 2482.4 1199 2462.8C1213.46 2443.2 1220.7 2417.3 1220.7 2385.1ZM1327.1 2387.9C1327.1 2417.3 1322.66 2443.9 1313.8 2467.7C1305.4 2491.5 1293.03 2511.8 1276.7 2528.6C1260.36 2545.4 1240.3 2558.47 1216.5 2567.8C1192.7 2576.67 1165.63 2581.1 1135.3 2581.1C1122.7 2581.1 1109.4 2580.4 1095.4 2579C1081.86 2578.07 1068.33 2576.67 1054.8 2574.8C1041.73 2572.93 1029.13 2570.83 1017 2568.5C1004.86 2565.7 994.13 2562.9 984.797 2560.1V2045.6L1089.1 2028.8V2212.2C1100.76 2207.07 1112.9 2203.1 1125.5 2200.3C1138.1 2197.5 1151.63 2196.1 1166.1 2196.1C1192.23 2196.1 1215.33 2200.77 1235.4 2210.1C1255.46 2218.97 1272.26 2231.8 1285.8 2248.6C1299.33 2265.4 1309.6 2285.7 1316.6 2309.5C1323.6 2332.83 1327.1 2358.97 1327.1 2387.9ZM1389.76 2390.7C1389.76 2358.03 1394.66 2329.57 1404.46 2305.3C1414.72 2280.57 1428.02 2260.03 1444.36 2243.7C1460.69 2227.37 1479.36 2215 1500.36 2206.6C1521.82 2198.2 1543.76 2194 1566.16 2194C1618.42 2194 1659.72 2210.1 1690.06 2242.3C1720.39 2274.03 1735.56 2320.93 1735.56 2383C1735.56 2389.07 1735.32 2395.83 1734.86 2403.3C1734.39 2410.3 1733.92 2416.6 1733.46 2422.2H1496.86C1499.19 2443.67 1509.22 2460.7 1526.96 2473.3C1544.69 2485.9 1568.49 2492.2 1598.36 2492.2C1617.49 2492.2 1636.16 2490.57 1654.36 2487.3C1673.02 2483.57 1688.19 2479.13 1699.86 2474L1713.86 2558.7C1708.26 2561.5 1700.79 2564.3 1691.46 2567.1C1682.12 2569.9 1671.62 2572.23 1659.96 2574.1C1648.76 2576.43 1636.62 2578.3 1623.56 2579.7C1610.49 2581.1 1597.42 2581.8 1584.36 2581.8C1551.22 2581.8 1522.29 2576.9 1497.56 2567.1C1473.29 2557.3 1452.99 2544 1436.66 2527.2C1420.79 2509.93 1408.89 2489.63 1400.96 2466.3C1393.49 2442.97 1389.76 2417.77 1389.76 2390.7ZM1634.76 2350.8C1634.29 2341.93 1632.66 2333.3 1629.86 2324.9C1627.52 2316.5 1623.56 2309.03 1617.96 2302.5C1612.82 2295.97 1606.06 2290.6 1597.66 2286.4C1589.72 2282.2 1579.69 2280.1 1567.56 2280.1C1555.89 2280.1 1545.86 2282.2 1537.46 2286.4C1529.06 2290.13 1522.06 2295.27 1516.46 2301.8C1510.86 2308.33 1506.42 2316.03 1503.16 2324.9C1500.36 2333.3 1498.26 2341.93 1496.86 2350.8H1634.76ZM1812.55 2112.1L1916.85 2095.3V2203.8H2042.15V2290.6H1916.85V2420.1C1916.85 2442.03 1920.58 2459.53 1928.05 2472.6C1935.98 2485.67 1951.61 2492.2 1974.95 2492.2C1986.15 2492.2 1997.58 2491.27 2009.25 2489.4C2021.38 2487.07 2032.35 2484.03 2042.15 2480.3L2056.85 2561.5C2044.25 2566.63 2030.25 2571.07 2014.85 2574.8C1999.45 2578.53 1980.55 2580.4 1958.15 2580.4C1929.68 2580.4 1906.11 2576.67 1887.45 2569.2C1868.78 2561.27 1853.85 2550.53 1842.65 2537C1831.45 2523 1823.51 2506.2 1818.85 2486.6C1814.65 2467 1812.55 2445.3 1812.55 2421.5V2112.1ZM2254.11 2499.2C2264.38 2499.2 2274.18 2498.97 2283.51 2498.5C2292.84 2498.03 2300.31 2497.33 2305.91 2496.4V2417.3C2301.71 2416.37 2295.41 2415.43 2287.01 2414.5C2278.61 2413.57 2270.91 2413.1 2263.91 2413.1C2254.11 2413.1 2244.78 2413.8 2235.91 2415.2C2227.51 2416.13 2220.04 2418.23 2213.51 2421.5C2206.98 2424.77 2201.84 2429.2 2198.11 2434.8C2194.38 2440.4 2192.51 2447.4 2192.51 2455.8C2192.51 2472.13 2197.88 2483.57 2208.61 2490.1C2219.81 2496.17 2234.98 2499.2 2254.11 2499.2ZM2245.71 2194C2276.51 2194 2302.18 2197.5 2322.71 2204.5C2343.24 2211.5 2359.58 2221.53 2371.71 2234.6C2384.31 2247.67 2393.18 2263.53 2398.31 2282.2C2403.44 2300.87 2406.01 2321.63 2406.01 2344.5V2561.5C2391.08 2564.77 2370.31 2568.5 2343.71 2572.7C2317.11 2577.37 2284.91 2579.7 2247.11 2579.7C2223.31 2579.7 2201.61 2577.6 2182.01 2573.4C2162.88 2569.2 2146.31 2562.43 2132.31 2553.1C2118.31 2543.3 2107.58 2530.7 2100.11 2515.3C2092.64 2499.9 2088.91 2481 2088.91 2458.6C2088.91 2437.13 2093.11 2418.93 2101.51 2404C2110.38 2389.07 2122.04 2377.17 2136.51 2368.3C2150.98 2359.43 2167.54 2353.13 2186.21 2349.4C2204.88 2345.2 2224.24 2343.1 2244.31 2343.1C2257.84 2343.1 2269.74 2343.8 2280.01 2345.2C2290.74 2346.13 2299.38 2347.53 2305.91 2349.4V2339.6C2305.91 2321.87 2300.54 2307.63 2289.81 2296.9C2279.08 2286.17 2260.41 2280.8 2233.81 2280.8C2216.08 2280.8 2198.58 2282.2 2181.31 2285C2164.04 2287.33 2149.11 2290.83 2136.51 2295.5L2123.21 2211.5C2129.28 2209.63 2136.74 2207.77 2145.61 2205.9C2154.94 2203.57 2164.98 2201.7 2175.71 2200.3C2186.44 2198.43 2197.64 2197.03 2209.31 2196.1C2221.44 2194.7 2233.58 2194 2245.71 2194ZM2604.62 2572H2500.32V2203.8H2604.62V2572ZM2614.42 2097.4C2614.42 2116.53 2608.12 2131.7 2595.52 2142.9C2583.39 2153.63 2568.92 2159 2552.12 2159C2535.32 2159 2520.62 2153.63 2508.02 2142.9C2495.89 2131.7 2489.82 2116.53 2489.82 2097.4C2489.82 2078.27 2495.89 2063.33 2508.02 2052.6C2520.62 2041.4 2535.32 2035.8 2552.12 2035.8C2568.92 2035.8 2583.39 2041.4 2595.52 2052.6C2608.12 2063.33 2614.42 2078.27 2614.42 2097.4ZM2849.67 2579C2819.33 2578.53 2794.6 2575.27 2775.47 2569.2C2756.8 2563.13 2741.87 2554.73 2730.67 2544C2719.93 2532.8 2712.47 2519.5 2708.27 2504.1C2704.53 2488.23 2702.67 2470.5 2702.67 2450.9V2045.6L2806.97 2028.8V2429.9C2806.97 2439.23 2807.67 2447.63 2809.07 2455.1C2810.47 2462.57 2813.03 2468.87 2816.77 2474C2820.97 2479.13 2826.8 2483.33 2834.27 2486.6C2841.73 2489.87 2851.77 2491.97 2864.37 2492.9L2849.67 2579Z" fill="#326CE5"/>
<g clip-path="url(#clip0_1305_10)">
<path d="M1466.73 122.154C1486.85 121.142 1506.91 125.131 1525.07 133.755L2154.4 432.504C2170.68 440.236 2184.99 451.487 2196.26 465.421C2207.54 479.356 2215.48 495.615 2219.5 512.991L2374.98 1184.41C2379.01 1201.8 2379.01 1219.85 2374.98 1237.24C2370.95 1254.62 2363 1270.89 2351.72 1284.82L1916.35 1823.28C1905.07 1837.19 1890.75 1848.42 1874.46 1856.14C1858.18 1863.85 1840.34 1867.85 1822.27 1867.84L1123.82 1868C1105.74 1868 1087.9 1863.99 1071.61 1856.26C1055.32 1848.53 1041.01 1837.29 1029.74 1823.36L594.2 1284.98C591.765 1281.95 589.482 1278.8 587.36 1275.54C578.606 1262.23 572.649 1247.32 569.843 1231.69C567.037 1216.07 567.438 1200.04 571.023 1184.57L726.262 513.151C730.286 495.775 738.229 479.516 749.5 465.582C760.771 451.647 775.081 440.396 791.368 432.664L1420.61 133.755C1435.05 126.899 1450.72 122.955 1466.73 122.154ZM1978.19 531.915C1978.16 531.969 1912.19 655.613 1836.46 655.613H1610.32C1522.52 655.613 1473.06 728.285 1473.06 825.959C1473.06 728.286 1423.6 655.613 1335.8 655.613H1109.66C1033.92 655.613 967.946 531.944 967.93 531.915V792.858C967.93 868.604 1013.39 919.117 1066.53 929.219C1119.68 939.317 1373.32 1004.9 1373.55 1004.96L1309.43 1413.3H917.879C907.324 1413.3 898.785 1423.36 898.785 1435.79C898.785 1448.22 907.324 1458.28 917.879 1458.28H2028.12C2038.68 1458.28 2047.21 1448.22 2047.21 1435.79C2047.21 1423.36 2038.68 1413.3 2028.12 1413.3H1636.69L1572.57 1004.96C1572.85 1004.89 1826.45 939.316 1879.59 929.219C1932.76 919.117 1978.19 868.604 1978.19 792.858V531.915Z" fill="#326CE5"/>
</g>
<defs>
<clipPath id="clip0_1305_10">
<rect width="1810" height="1746" fill="white" transform="translate(568 122)"/>
</clipPath>
</defs>
</svg>
