<?xml version="1.0" standalone="no"?>
<!DOCTYPE svg PUBLIC "-//W3C//DTD SVG 20010904//EN"
 "http://www.w3.org/TR/2001/REC-SVG-20010904/DTD/svg10.dtd">
<svg version="1.0" xmlns="http://www.w3.org/2000/svg"
 width="1424.000000pt" height="1024.000000pt" viewBox="0 0 1424.000000 1024.000000"
 preserveAspectRatio="xMidYMid meet">
<metadata>
Created by potrace 1.13, written by Peter Selinger 2001-2015
</metadata>
<g transform="translate(0.000000,1024.000000) scale(0.100000,-0.100000)"
fill="#000000" stroke="none">
<path d="M7095 7833 c-10 -15 -382 -521 -827 -1125 l-808 -1098 2 -996 3 -996
314 331 313 331 1028 0 1028 0 313 -331 314 -331 3 996 2 996 -631 857 c-348
472 -720 978 -828 1125 -108 147 -199 268 -202 268 -4 0 -15 -12 -24 -27z
m200 -1733 l165 -225 0 -437 0 -438 -340 0 -340 0 0 438 0 437 167 228 c92
125 171 226 175 225 4 -2 82 -104 173 -228z"/>
<path d="M7011 5963 l-101 -138 3 -345 2 -345 205 0 205 0 2 345 3 345 -101
138 c-55 75 -104 137 -109 137 -5 0 -54 -62 -109 -137z"/>
<path d="M3520 2725 l0 -345 70 0 70 0 0 108 0 108 39 38 38 37 50 -78 c28
-43 67 -108 89 -145 l38 -68 79 0 c43 0 76 3 74 8 -3 4 -50 81 -104 172 -55
91 -107 177 -117 192 -16 25 -16 26 46 104 35 44 87 109 117 147 l53 67 -79 0
-78 -1 -120 -152 -120 -152 -3 153 -3 152 -69 0 -70 0 0 -345z"/>
<path d="M4156 2883 c-11 -285 8 -381 88 -451 42 -36 97 -53 181 -56 88 -2
152 20 201 69 68 68 74 101 74 382 l0 243 -64 0 -64 0 -4 -237 c-5 -256 -12
-293 -59 -327 -28 -19 -113 -21 -149 -3 -14 7 -34 30 -45 52 -18 36 -20 61
-21 275 l-1 235 -65 3 -65 3 -7 -188z"/>
<path d="M4860 2725 l0 -347 183 4 c172 3 185 4 232 28 65 34 95 89 95 173 0
74 -24 117 -80 145 l-40 20 26 17 c14 9 35 37 46 62 38 85 7 172 -75 216 -38
20 -59 22 -214 25 l-173 4 0 -347z m314 221 c22 -14 26 -24 26 -64 -1 -77 -33
-102 -134 -102 l-66 0 0 96 0 97 74 -5 c46 -3 85 -11 100 -22z m9 -277 c46
-21 61 -93 32 -149 -17 -32 -63 -50 -130 -50 -85 0 -85 0 -85 111 l0 99 80 0
c43 0 90 -5 103 -11z"/>
<path d="M5500 2725 l0 -345 220 0 220 0 0 55 0 55 -150 0 -150 0 0 95 0 95
105 0 105 0 0 55 0 55 -105 0 -105 0 0 85 0 85 141 0 140 0 -3 53 -3 52 -207
3 -208 2 0 -345z"/>
<path d="M6070 2725 l0 -345 70 0 70 0 0 345 0 345 -70 0 -70 0 0 -345z"/>
<path d="M6390 2725 l0 -345 66 0 66 0 -4 241 -4 240 26 -49 c14 -27 79 -135
145 -240 l120 -192 73 0 72 0 0 345 0 345 -66 0 -66 0 4 -249 3 -249 -29 51
c-16 29 -85 141 -154 250 l-124 197 -64 0 -64 0 0 -345z"/>
<path d="M7042 3052 c2 -10 57 -166 123 -345 l120 -327 62 0 c58 0 62 2 71 28
5 15 44 122 87 237 42 116 94 259 116 318 l39 108 -76 -3 -75 -3 -55 -165
c-29 -91 -64 -199 -75 -240 -12 -41 -24 -79 -27 -84 -2 -5 -15 27 -28 70 -13
44 -49 156 -81 249 l-58 170 -73 3 c-67 3 -73 1 -70 -16z"/>
<path d="M7778 2725 l-125 -345 76 0 77 0 22 75 22 76 127 -3 126 -3 25 -72
24 -73 74 0 c41 0 74 3 74 8 -1 4 -56 158 -124 342 l-123 335 -75 3 -74 3
-126 -346z m246 55 c25 -80 43 -146 42 -148 -2 -1 -44 -1 -93 0 l-89 3 45 147
c25 81 46 146 48 145 1 -2 22 -68 47 -147z"/>
<path d="M8388 3064 c-5 -4 -8 -160 -8 -346 l0 -338 103 -2 c153 -4 207 0 261
20 70 24 137 88 172 164 27 58 29 72 29 178 0 99 -3 122 -23 166 -29 63 -72
106 -137 136 -44 20 -69 23 -220 26 -93 2 -173 0 -177 -4z m324 -120 c66 -34
92 -106 86 -239 -5 -105 -28 -161 -81 -194 -40 -24 -103 -36 -152 -27 l-35 7
0 234 0 234 33 3 c47 6 118 -3 149 -18z"/>
<path d="M9087 3063 c-4 -3 -7 -159 -7 -345 l0 -338 225 0 225 0 0 55 0 55
-150 0 -150 0 0 95 0 95 106 0 105 0 -3 53 -3 52 -102 3 -103 3 0 84 0 85 135
0 135 0 0 55 0 55 -203 0 c-112 0 -207 -3 -210 -7z"/>
<path d="M9650 2726 l0 -346 70 0 70 0 0 130 0 131 63 -3 62 -3 23 -45 c12
-25 36 -82 53 -127 l30 -83 80 0 c70 0 96 9 71 24 -5 3 -28 49 -52 103 -24 54
-54 112 -67 130 l-23 32 29 15 c49 26 74 78 78 165 6 102 -19 155 -92 191 -47
23 -62 25 -222 28 l-173 3 0 -345z m311 221 c30 -20 34 -29 37 -71 6 -98 -34
-136 -142 -136 l-66 0 0 109 c0 124 -4 118 86 120 38 1 60 -5 85 -22z"/>
<path d="M10372 3044 c-68 -34 -95 -78 -95 -153 0 -91 45 -151 156 -207 88
-45 127 -74 137 -100 13 -34 3 -72 -24 -86 -34 -19 -147 -13 -199 10 l-46 20
-11 -55 c-7 -30 -10 -57 -7 -59 15 -16 124 -35 197 -36 69 0 95 4 133 22 116
55 141 204 50 292 -21 20 -78 60 -128 88 -107 61 -113 66 -121 107 -13 65 80
102 174 69 26 -10 54 -19 63 -22 13 -4 18 6 27 48 12 61 11 62 -61 78 -90 19
-187 13 -245 -16z"/>
</g>
</svg>
