<?xml version="1.0" encoding="UTF-8"?>
<!DOCTYPE svg PUBLIC "-//W3C//DTD SVG 1.1//EN" "http://www.w3.org/Graphics/SVG/1.1/DTD/svg11.dtd">
<!-- Creator: CorelDRAW SE (OEM-Version) -->
<svg xmlns="http://www.w3.org/2000/svg" xml:space="preserve" width="600px" height="660px" version="1.1" shape-rendering="geometricPrecision" text-rendering="geometricPrecision" image-rendering="optimizeQuality" fill-rule="evenodd" clip-rule="evenodd"
viewBox="0 0 600 660"
 xmlns:xlink="http://www.w3.org/1999/xlink">
 <g id="Ebene_x0020_1">
  <metadata id="CorelCorpID_0Corel-Layer"/>
  <g id="LIMA">
   <g>
    <g id="Wuerfel">
     <polygon fill="#999999" points="204.476,331.209 304.987,331.209 355.243,418.255 254.73,418.255 "/>
     <polygon fill="#999999" points="204.478,331.208 304.987,331.209 355.243,244.164 254.732,244.164 "/>
     <polygon fill="#00AAE0" points="304.987,331.209 355.243,418.253 405.498,331.208 355.241,244.164 "/>
    </g>
    <path id="Netz_x0020_innen" fill="white" d="M254.73 418.255l-50.252 -87.047 49.671 -86.034 101.092 -1.01 50.256 87.044 -51.415 87.046 -99.352 0.001zm-38.992 -79.319l85.539 0 15.99 27.798c5.389,8.964 10.742,18.907 16.138,27.904l10.642 18.635 -85.539 0c-0.934,-1.394 -1.706,-2.971 -2.627,-4.502l-32.139 -55.689c-0.99,-1.634 -1.74,-3.071 -2.707,-4.678l-5.029 -8.718c-0.183,-0.382 -0.182,-0.558 -0.268,-0.75zm139.51 -80.193c0.712,0.522 4.846,8.118 5.427,9.085l37.23 64.742c-0.001,0.57 -4.439,7.963 -5.155,9.245 -0.872,1.56 -1.736,3.07 -2.61,4.518 -0.944,1.566 -1.738,3.039 -2.707,4.676l-16.039 27.749c-0.942,1.603 -1.675,2.937 -2.574,4.553l-10.721 18.557c-0.665,1.109 -2.345,3.709 -2.596,4.786l-0.509 0c-0.303,-1.299 -6.795,-11.985 -7.805,-13.835 -4.841,-8.867 -11.262,-18.98 -16.039,-27.749 -1.447,-2.656 -18.557,-31.89 -18.558,-32.5 0,-0.486 4.46,-7.995 5.154,-9.242 5.03,-9.041 10.963,-18.666 16.038,-27.749 0.873,-1.56 1.737,-3.07 2.61,-4.519 0.944,-1.565 1.739,-3.039 2.707,-4.677l10.625 -18.397c0.927,-1.658 1.811,-3.114 2.709,-4.674 0.594,-1.032 2.051,-4.011 2.813,-4.569zm-53.971 67.464l-85.539 0c0.261,-1.12 29.626,-51.532 32.064,-55.766 2.9,-5.038 8.097,-13.642 10.706,-18.571l85.539 0c-0.297,1.11 -16.157,28.025 -18.663,32.507l-7.989 13.905c-4.759,8.551 -11.808,19.779 -16.118,27.925z"/>
    <path id="Netz_x0020_aussen" fill="#999999" d="M213.416 426.002c-0.084,-0.149 -0.173,-0.302 -0.27,-0.463 -0.38,-0.628 -0.685,-1.092 -1.051,-1.75l-6.045 -10.501c-0.696,-1.155 -1.341,-2.358 -2.036,-3.566 -0.67,-1.164 -1.351,-2.32 -2.074,-3.527 -0.735,-1.225 -1.3,-2.343 -2.035,-3.566l-12.222 -21.128c-0.734,-1.224 -1.296,-2.352 -2.031,-3.568l-14.257 -24.694c-1.337,-2.208 -6.881,-11.574 -8.1,-14.303l37.423 0c3.052,5.768 8.173,14.002 11.632,20.19l5.791 9.994c1.05,1.735 1.866,3.292 2.897,4.994l19.802 34.371 5.212 9.036c0.416,0.693 0.866,1.385 1.254,2.117l-0.016 0.031 3.652 6.333 7.566 0 55.988 0 0.023 0 0.025 0 31.144 0 5.996 0 6.766 0 0.105 0 0.073 0 0.505 0 3.57 -6.243 -0.072 -0.121c0.505,-0.754 1.185,-1.868 1.971,-3.2l4.756 -8.317c1.952,-3.462 3.813,-6.778 4.933,-8.646l1.173 -2.032 0.036 -0.062 0 0 8.946 -15.499c0.528,-0.95 0.994,-1.592 1.519,-2.555 4.371,-8.024 9.944,-17.007 14.52,-25.195 2.764,-4.946 6.138,-10.29 8.734,-15.196l37.424 0c-0.314,1.347 -10.92,19.278 -11.979,21.117 -1.353,2.349 -2.679,4.714 -4.109,7.093 -5.453,9.072 -10.862,19.292 -16.29,28.26 -4.806,7.938 -9.483,16.808 -14.257,24.694 -0.731,1.209 -1.365,2.273 -2.069,3.533 -1.346,2.409 -2.718,4.59 -3.995,6.952 -0.645,1.194 -1.352,2.34 -2.05,3.551 -0.751,1.306 -4.333,7.389 -7.036,12.101l8.829 10.511 16.472 -28.533c1.929,-3.452 3.868,-6.532 5.767,-10.018l17.056 -29.531c5.048,-9.24 11.95,-20.676 17.238,-29.86 3.315,-5.759 8.513,-14.333 11.443,-19.87l37.423 0c-0.319,1.369 -10.645,18.794 -11.252,19.806 -7.552,12.595 -15.249,26.976 -22.813,39.56 -5.766,9.592 -11.388,20.095 -17.154,29.688 -7.576,12.602 -15.262,26.967 -22.813,39.559 -2.013,3.358 -3.784,6.583 -5.798,9.987l-3.296 5.726 8.725 10.388c5.19,-8.966 10.783,-18.535 11.821,-20.249 4,-6.608 7.664,-13.564 11.649,-20.173l54.24 -93.926c3.698,-6.827 8.072,-13.489 11.711,-20.366l36.924 0.009c8.771,0.023 8.696,-12.702 0.257,-12.75l-37.181 0.012c-3.629,-6.86 -7.838,-13.402 -11.632,-20.191l-42.956 -74.405c-3.963,-6.7 -7.622,-13.521 -11.649,-20.174 -1.384,-2.285 -2.511,-4.457 -3.915,-6.776l-27.303 -47.29c-2.233,-3.714 -1.563,-2.396 0.802,-6.737l19.594 -33.869c2.247,-4.02 3.485,-4.589 3.485,-8.988 0,-2.538 -2.753,-5.116 -5.903,-5.346l-0.916 0c-1.968,0.15 -4,1.274 -5.548,3.926 -1.22,2.091 -2.259,3.956 -3.43,5.989l-10.346 17.913c-1.228,2.198 -9.889,16.396 -10.262,17.996l-198.317 0c-0.368,-1.575 -2.451,-4.581 -3.323,-6.096 -5.728,-9.949 -11.337,-20.013 -17.25,-29.848 -1.201,-1.998 -2.326,-3.894 -3.444,-5.976 -3.541,-6.589 -12.388,-4.09 -12.388,1.951 0,3.141 1.857,5.588 3.322,8.133l21.56 37.27c0.468,0.832 0.596,0.883 0.264,1.614 -1.171,2.583 -3.503,5.96 -4.957,8.561l-27.303 47.287c-0.674,1.118 -1.307,2.179 -1.964,3.382l-17.507 30.355c-6.648,11.237 -12.859,22.709 -19.575,33.887 -1.379,2.296 -2.606,4.436 -3.914,6.777l-15.657 27.114c-2.431,4.042 -5.235,9.646 -7.843,13.541l-37.181 -0.012c-1.961,0.011 -3.329,0.751 -4.386,1.724 -3.932,3.622 -1.438,10.911 4.131,11.029 12.461,0.264 24.973,-0.012 37.436,-0.012 0.946,1.788 2.043,3.552 3.068,5.333l21.626 37.436c0.973,1.799 2.036,3.54 3.068,5.333l22.5 38.964 14.909 0c-5.024,-8.957 -11.062,-18.601 -15.87,-27.407l-33.631 -58.273c-0.282,-0.473 -0.189,-0.235 -0.381,-0.636 -0.184,-0.382 -0.184,-0.558 -0.269,-0.75l37.423 0c4.655,8.796 12.153,20.461 17.057,29.531 4.24,7.84 10.036,16.971 14.344,24.862 3.452,6.324 7.99,13.506 11.456,19.857 2.244,4.109 4.79,8.449 7.374,12.816l0.858 0 0.014 0 0.016 0 0.014 0 0.076 0 0.024 0 13.909 0zm41.314 -7.747l-50.252 -87.047 49.671 -86.034 101.092 -1.01 50.256 87.044 -51.415 87.046 -99.352 0.001zm126.486 -205.081l24.706 42.247c0.651,1.137 1.355,2.333 2.073,3.527 0.735,1.222 1.299,2.352 2.035,3.568 0.731,1.208 1.364,2.271 2.068,3.531 0.738,1.321 1.323,2.233 2.046,3.555 1.318,2.416 2.654,4.612 3.999,6.949l20.399 35.353c1.122,1.852 7.837,13.173 8.101,14.303l-37.424 0 -8.1 -14.049c-0.736,-1.216 -1.298,-2.343 -2.032,-3.568 -0.724,-1.206 -1.404,-2.362 -2.074,-3.527 -7.747,-13.454 -16.682,-29.45 -24.404,-42.296 -2.891,-4.808 -6.436,-11.533 -9.239,-15.978 -0.522,-0.826 -0.823,-0.773 -0.431,-1.713l12.213 -21.164c0.835,-1.378 5.868,-9.899 6.064,-10.738zm-180.498 113.033l-37.423 0c0.205,-0.881 4.883,-8.758 5.963,-10.584l6.169 -10.634c6.224,-11.424 13.896,-23.733 20.375,-35.378l8.138 -14.01c5.142,-9.44 12.987,-22.521 18.43,-31.977 0.932,-1.619 5.342,-9.775 6.352,-10.45l18.584 32.331c-2.44,4.611 -6.127,10.344 -8.656,15.02 -0.931,1.721 -1.93,3.434 -2.974,5.172 -8.681,14.447 -17.524,30.686 -26.194,45.343 -1.033,1.747 -1.939,3.335 -2.896,4.997 -0.491,0.854 -0.873,1.527 -1.373,2.445l-4.495 7.725zm38.951 -119.653l130.599 0c-3.893,7.359 -9.652,16.589 -13.923,24.264 -0.845,1.519 -4.404,7.22 -4.661,8.322l-93.176 0c-0.825,-1.231 -1.598,-2.613 -2.37,-3.994l-14.07 -24.372c-0.85,-1.438 -1.665,-2.833 -2.399,-4.22zm-91.395 119.653l-37.423 0c0.21,-0.904 5.021,-8.856 5.601,-9.929 0.888,-1.643 1.921,-3.211 2.8,-4.837 5.882,-10.877 14.027,-23.724 20.025,-34.71l8.488 -14.678c2.567,-4.746 6.078,-10.254 8.656,-15.02 0.878,-1.626 1.911,-3.195 2.8,-4.838 5.105,-9.426 11.972,-20.224 17.145,-29.699l14.256 -24.693c0.922,-1.69 1.805,-3.2 2.793,-4.844l7.196 -12.408c0.443,-0.753 1.206,-1.947 1.379,-2.693 0.942,0.251 1.867,2.383 2.625,3.74 0.814,1.457 1.464,2.595 2.321,4.043 1.669,2.823 3.137,5.455 4.742,8.242 2.788,4.842 6.921,11.609 9.406,16.306l-29.453 50.995c-0.775,1.394 -1.596,2.688 -2.356,4.008 -6.25,10.855 -14.088,24.902 -20.394,35.359 -4.595,7.62 -9.167,16.211 -13.682,23.741 -0.817,1.364 -1.605,2.66 -2.342,4.023 -0.378,0.7 -0.676,1.176 -1.129,1.926l-3.454 5.966zm259.672 -158.349c0.268,1.003 2.076,3.758 2.722,4.915 0.969,1.733 1.9,3.352 2.894,4.999l11.363 19.696c0.968,1.732 1.9,3.351 2.893,4.998l7.101 12.247c0.521,0.91 0.922,1.645 1.462,2.612 3.624,6.484 7.867,13.267 11.367,19.691l14.257 24.695c0.484,0.889 0.977,1.604 1.427,2.391l12.918 22.469c0.495,0.89 0.935,1.498 1.43,2.389 0.519,0.933 0.849,1.516 1.371,2.448l17.148 29.694c0.635,1.103 2.548,4.081 2.787,5.105l-37.423 0c-2.622,-4.954 -6.86,-11.761 -9.85,-17.136l-10.086 -17.409c-0.997,-1.783 -1.912,-3.214 -2.889,-5.002 -6.075,-11.12 -13.982,-23.62 -20.032,-34.703 -0.952,-1.744 -1.867,-3.307 -2.887,-5.005l-25.715 -44.55c-1.766,-3.157 -1.454,-1.864 0.255,-4.934l8.564 -14.858c0.982,-1.706 1.909,-3.24 2.892,-4.999l4.998 -8.75c0.474,-0.892 0.031,-0.736 1.033,-1.003zm-194.499 -6.619l183.043 0 -11.632 20.19c-0.776,1.395 -1.597,2.688 -2.357,4.008 -1.571,2.731 -3.119,5.344 -4.595,8.133l-145.874 0 -13.915 -24.272c-0.802,-1.471 -1.485,-2.599 -2.3,-4.065 -0.395,-0.709 -0.739,-1.225 -1.147,-1.907 -0.47,-0.783 -0.743,-1.369 -1.223,-2.087z"/>
   </g>
   <g>
    <path id="LIMA_0" fill="#00AAE0" fill-rule="nonzero" d="M42.094 546.64c0,5.477 4.621,10.098 10.097,10.098l46.212 0c5.135,0 9.243,-4.278 9.243,-9.413 0,-5.306 -4.108,-9.414 -9.243,-9.414l-36.113 0 0 -92.423c0,-5.648 -4.622,-10.098 -10.099,-10.098 -5.476,0 -10.097,4.45 -10.097,10.098l0 101.152zm78.902 1.54c0,5.478 4.621,10.099 10.098,10.099 5.477,0 10.098,-4.621 10.098,-10.099l0 -102.692c0,-5.648 -4.621,-10.098 -10.098,-10.098 -5.477,0 -10.098,4.45 -10.098,10.098l0 102.692zm52.03 10.099c5.477,0 10.098,-4.621 10.098,-10.099l0 -75.992 69.147 82.325c2.053,2.568 4.791,3.766 7.701,3.766 5.478,0 9.927,-4.45 9.927,-9.927 0,-2.397 -0.513,-4.45 -2.225,-6.675l-19.169 -22.764 0 -46.725 69.147 82.325c2.053,2.568 4.791,3.766 7.701,3.766 5.477,0 9.927,-4.45 9.927,-9.927 0,-2.397 -0.513,-4.45 -2.225,-6.675l-86.262 -102.692c-1.54,-2.055 -4.621,-3.595 -8.044,-3.595 -5.819,0 -10.441,4.621 -10.441,10.612l0 48.95 -46.896 -55.967c-1.54,-2.055 -4.621,-3.595 -8.044,-3.595 -5.819,0 -10.44,4.621 -10.44,10.612l0 102.178c0,5.478 4.621,10.099 10.098,10.099zm175.089 -10.099c0,5.478 4.621,10.099 10.097,10.099 5.477,0 10.098,-4.621 10.098,-10.099l0 -16.601 22.422 0c5.305,0 9.413,-4.108 9.413,-9.414 0,-5.135 -4.108,-9.413 -9.413,-9.413l-22.422 0 0 -40.564 69.147 82.325c2.054,2.568 4.792,3.766 7.701,3.766 5.478,0 9.928,-4.45 9.928,-9.927 0,-2.397 -0.514,-4.45 -2.225,-6.675l-86.262 -102.692c-1.54,-2.055 -4.621,-3.595 -8.044,-3.595 -5.819,0 -10.44,4.621 -10.44,10.612l0 102.178z"/>
    <path fill="none" stroke="#999999" stroke-width="1.333" stroke-miterlimit="22.9256" d="M246.793 438.985l86.263 102.692c1.711,2.225 2.224,4.279 2.224,6.675 0,5.477 -4.45,9.927 -9.926,9.927 -2.911,0 -5.649,-1.198 -7.702,-3.766l-69.147 -82.325 0 46.725 19.169 22.764c1.712,2.225 2.225,4.279 2.225,6.675 0,5.477 -4.449,9.927 -9.927,9.927 -2.91,0 -5.648,-1.198 -7.701,-3.766l-69.147 -82.325 0 75.992c0,5.478 -4.621,10.099 -10.098,10.099 -5.477,0 -10.098,-4.621 -10.098,-10.099l0 -102.178c0,-5.991 4.621,-10.612 10.44,-10.612 3.423,0 6.504,1.54 8.044,3.595l46.896 55.967 0 -48.95c0,-5.991 4.622,-10.612 10.441,-10.612 3.423,0 6.504,1.54 8.044,3.595zm-105.602 6.503l0 102.692c0,5.478 -4.62,10.099 -10.097,10.099 -5.477,0 -10.098,-4.621 -10.098,-10.099l0 -102.692c0,-5.648 4.621,-10.098 10.098,-10.098 5.477,0 10.097,4.45 10.097,10.098zm-78.901 92.423l36.113 0c5.135,0 9.243,4.108 9.243,9.414 0,5.135 -4.108,9.413 -9.243,9.413l-46.211 0c-5.478,0 -10.098,-4.621 -10.098,-10.098l0 -101.152c0,-5.648 4.62,-10.098 10.098,-10.098 5.476,0 10.098,4.45 10.098,10.098l0 92.423zm304.309 -98.926l86.262 102.692c1.711,2.225 2.225,4.279 2.225,6.675 0,5.477 -4.45,9.927 -9.928,9.927 -2.909,0 -5.647,-1.198 -7.701,-3.766l-69.147 -82.325 0 40.564 22.422 0c5.305,0 9.413,4.278 9.413,9.414 0,5.305 -4.108,9.413 -9.413,9.413l-22.422 0 0 16.601c0,5.478 -4.621,10.099 -10.098,10.099 -5.476,0 -10.097,-4.621 -10.097,-10.099l0 -102.178c0,-5.991 4.621,-10.612 10.44,-10.612 3.423,0 6.504,1.54 8.044,3.595z"/>
   </g>
  </g>
  <polygon fill="none" points="-0.02,660.27 599.98,660.27 599.98,0.27 -0.02,0.27 "/>
 </g>
</svg>
