<?xml version="1.0" encoding="utf-8"?>
<!-- Generator: Adobe Illustrator 25.2.1, SVG Export Plug-In . SVG Version: 6.00 Build 0)  -->
<svg version="1.1" id="Layer_1" xmlns="http://www.w3.org/2000/svg" xmlns:xlink="http://www.w3.org/1999/xlink" x="0px" y="0px"
	 viewBox="0 0 800 400" style="enable-background:new 0 0 800 400;" xml:space="preserve">
<style type="text/css">
	.st0{fill:#00517D;}
</style>
<g>
	<g>
		<polygon class="st0" points="424,53.4 424,105.4 355.4,139.2 355.4,87.4 		"/>
		<polygon class="st0" points="509.8,87.4 509.8,139.2 441.2,105.4 441.2,53.4 		"/>
		<polygon class="st0" points="424,189.3 424,241.3 355.4,207.5 355.4,155.5 		"/>
		<polygon class="st0" points="509.8,155.5 509.8,207.5 441.2,241.3 441.2,189.3 		"/>
		<polygon class="st0" points="338.2,87.8 290.2,54.1 290.2,242.8 338.2,209.1 		"/>
	</g>
	<g>
		<path d="M208.6,345.5c-1-1.6-2.2-3.3-3.6-5c-1.4-1.8-2.8-3.5-4.3-5.1s-3.1-3.2-4.7-4.7c-1.6-1.5-3.2-2.8-4.7-3.8v18.7h-7.6V304
			h7.6v17.2c1.3-1.3,2.7-2.7,4.1-4.2s2.9-3,4.3-4.6c1.4-1.5,2.8-3,4-4.5c1.3-1.4,2.4-2.7,3.5-3.9h9.1c-1.3,1.5-2.7,3.1-4.2,4.7
			s-3,3.3-4.6,5s-3.1,3.3-4.7,4.9c-1.6,1.6-3.1,3.2-4.6,4.7c1.7,1.3,3.4,2.8,5.1,4.5c1.7,1.7,3.5,3.5,5.1,5.5c1.7,1.9,3.3,4,4.8,6.1
			s2.9,4.2,4.2,6.3h-8.8V345.5z"/>
		<path d="M244.4,346c-2.8,0-5.3-0.4-7.3-1.2s-3.7-2-5.1-3.5c-1.3-1.5-2.3-3.2-3-5.2c-0.6-2-1-4.2-1-6.6v-26h7.6v25.3
			c0,1.9,0.2,3.5,0.6,4.8c0.4,1.3,1,2.4,1.8,3.3s1.7,1.5,2.8,1.9s2.3,0.6,3.6,0.6s2.5-0.2,3.6-0.6s2-1,2.8-1.9
			c0.8-0.8,1.4-1.9,1.8-3.3c0.4-1.3,0.6-2.9,0.6-4.8v-25.3h7.6v26c0,2.4-0.3,4.6-1,6.6s-1.7,3.7-3,5.2c-1.3,1.5-3.1,2.6-5.1,3.5
			C249.7,345.6,247.3,346,244.4,346z"/>
		<path d="M289.9,346c-2.2,0-4.4-0.1-6.7-0.2c-2.2-0.1-4.2-0.4-5.9-0.9v-40.4c0.9-0.2,1.8-0.3,2.8-0.4s2-0.3,3.1-0.3
			c1-0.1,2.1-0.1,3.1-0.2c1,0,2-0.1,2.9-0.1c2.5,0,4.9,0.2,7,0.6c2.2,0.4,4,1,5.6,1.9s2.8,2,3.7,3.5c0.9,1.4,1.3,3.2,1.3,5.3
			c0,2-0.5,3.6-1.4,5s-2.3,2.5-3.9,3.4c2.5,0.8,4.4,2.1,5.6,3.7s1.8,3.7,1.8,6.2c0,4.3-1.6,7.5-4.7,9.6
			C301.1,344.9,296.3,346,289.9,346z M284.8,320.8h5.3c2.9,0,5.1-0.4,6.8-1.2c1.6-0.8,2.5-2.3,2.5-4.4c0-2-0.9-3.4-2.5-4.3
			c-1.7-0.8-3.9-1.3-6.6-1.3c-1.2,0-2.2,0-3.1,0.1s-1.7,0.1-2.3,0.2L284.8,320.8L284.8,320.8z M284.8,326.8v12.7
			c0.8,0.1,1.7,0.1,2.7,0.2c1,0,1.8,0.1,2.6,0.1c1.6,0,3-0.1,4.4-0.3c1.3-0.2,2.5-0.5,3.5-1s1.8-1.2,2.3-2c0.6-0.8,0.9-1.9,0.9-3.2
			c0-2.4-0.9-4-2.6-4.9s-4.1-1.4-7.1-1.4h-6.7V326.8z"/>
		<path d="M323.6,345.5v-41.6h26.7v6.4h-19.1v10.3h17v6.3h-17V339h20.6v6.4L323.6,345.5L323.6,345.5z"/>
		<path d="M378.3,303.7c6,0,10.6,1.1,13.8,3.3c3.2,2.2,4.8,5.6,4.8,10.1c0,5.6-2.8,9.5-8.3,11.5c0.8,0.9,1.6,2,2.6,3.4
			c1,1.3,1.9,2.8,2.9,4.3s2,3.1,2.9,4.7s1.7,3.2,2.5,4.8H391c-0.8-1.4-1.6-2.9-2.5-4.3c-0.9-1.5-1.8-2.9-2.7-4.3
			c-0.9-1.4-1.8-2.7-2.7-3.9c-0.9-1.2-1.7-2.3-2.5-3.3c-0.6,0-1,0.1-1.4,0.1s-0.8,0-1.1,0h-3.7v15.7h-7.6v-41
			c1.8-0.4,3.8-0.7,5.9-0.8C374.8,303.8,376.6,303.7,378.3,303.7z M378.8,310.2c-1.6,0-3.1,0.1-4.4,0.2v13.4h3.3
			c1.8,0,3.5-0.1,4.9-0.3c1.4-0.2,2.6-0.6,3.5-1.1s1.7-1.2,2.1-2.1c0.5-0.9,0.7-2,0.7-3.4c0-1.3-0.2-2.4-0.7-3.2
			c-0.5-0.9-1.2-1.6-2.1-2.1s-2-0.9-3.2-1.1S380.3,310.2,378.8,310.2z"/>
		<path d="M423.7,303.9c0.9,1.5,1.9,3.4,2.9,5.6c1.1,2.2,2.2,4.5,3.3,6.9c1.1,2.4,2.2,4.9,3.3,7.4c1.1,2.5,2.1,4.8,3,6.9
			c0.9-2.1,1.9-4.4,3-6.9s2.2-5,3.3-7.4c1.1-2.4,2.2-4.7,3.3-6.9c1.1-2.2,2.1-4.1,2.9-5.6h6.8c0.4,3,0.7,6.3,1,9.7
			c0.3,3.4,0.6,6.9,0.9,10.5s0.5,7.2,0.7,10.8s0.4,7.2,0.6,10.6h-7.4c-0.2-4.8-0.4-9.8-0.6-14.9s-0.6-10.1-1-14.9
			c-0.4,0.9-1,2-1.6,3.3s-1.2,2.7-1.9,4.2c-0.7,1.5-1.4,3-2.1,4.6s-1.4,3.2-2,4.7c-0.7,1.5-1.3,2.9-1.8,4.2s-1,2.4-1.4,3.3h-5.6
			c-0.4-0.9-0.9-2-1.4-3.4c-0.6-1.3-1.2-2.7-1.8-4.2s-1.3-3-2-4.6s-1.4-3.1-2.1-4.6s-1.3-2.9-1.9-4.2c-0.6-1.3-1.1-2.4-1.6-3.3
			c-0.4,4.8-0.8,9.8-1,14.9s-0.4,10.1-0.6,14.9h-7.4c0.2-3.4,0.4-7,0.6-10.7s0.5-7.3,0.7-11s0.6-7.1,0.9-10.5s0.7-6.5,1-9.4H423.7z"
			/>
		<path d="M502.1,345.5c-0.6-1.6-1.1-3.3-1.7-4.9s-1.2-3.2-1.7-4.9H481c-0.6,1.7-1.1,3.3-1.7,5s-1.2,3.2-1.7,4.8h-7.9
			c1.6-4.4,3-8.5,4.4-12.3s2.8-7.3,4.1-10.7c1.3-3.4,2.7-6.6,4-9.6s2.7-6,4.1-9h7.2c1.4,3,2.8,6,4.1,9c1.3,3,2.6,6.2,4,9.6
			c1.3,3.4,2.7,6.9,4.1,10.7c1.4,3.8,2.9,7.9,4.5,12.3H502.1z M489.8,312c-0.9,2.1-2,4.7-3.2,7.7s-2.4,6.3-3.7,9.9h13.7
			c-1.3-3.6-2.5-6.9-3.7-10C491.7,316.6,490.7,314,489.8,312z"/>
		<path d="M547.9,303.9v6.5h-12.8v35h-7.6v-35h-12.8v-6.5H547.9z"/>
		<path d="M560.5,303.9h7.6v41.6h-7.6V303.9z"/>
		<path d="M603.1,346.5c-3.1,0-5.9-0.5-8.4-1.4s-4.6-2.4-6.3-4.2c-1.7-1.9-3-4.1-4-6.8c-0.9-2.7-1.4-5.8-1.4-9.2
			c0-3.5,0.5-6.6,1.6-9.2c1.1-2.7,2.5-5,4.4-6.8c1.8-1.9,4-3.3,6.5-4.2c2.5-1,5.1-1.4,8-1.4c1.7,0,3.3,0.1,4.7,0.4s2.6,0.6,3.7,0.9
			c1,0.3,1.9,0.7,2.6,1c0.7,0.4,1.2,0.6,1.4,0.8l-2.2,6.2c-1-0.6-2.3-1.2-4.1-1.7s-3.7-0.8-5.8-0.8c-1.8,0-3.5,0.3-5,0.9
			c-1.6,0.6-2.9,1.5-4,2.8c-1.1,1.2-2,2.8-2.7,4.7c-0.6,1.9-1,4.1-1,6.5c0,2.2,0.3,4.2,0.8,6.1c0.5,1.8,1.3,3.4,2.3,4.8
			c1,1.3,2.4,2.4,4,3.1s3.5,1.1,5.8,1.1c2.7,0,4.9-0.3,6.5-0.8s3-1,3.9-1.5l2,6.2c-0.5,0.3-1.1,0.6-1.9,1c-0.8,0.3-1.8,0.6-2.9,0.9
			c-1.1,0.3-2.4,0.5-3.8,0.7C606.2,346.4,604.7,346.5,603.1,346.5z"/>
	</g>
</g>
</svg>
