<svg width="667" height="587" viewBox="0 0 667 587" fill="none" xmlns="http://www.w3.org/2000/svg">
<path d="M387.067 193.825C379.967 200.912 371.31 211.346 367.393 229.191C364.467 242.46 359.027 267.144 333.031 267.144C323.417 267.144 315.205 264.498 309.08 259.511C304.88 267.392 302.656 274.026 302.656 277.245C302.674 277.522 302.635 277.799 302.542 278.059C302.448 278.32 302.302 278.558 302.112 278.76C301.923 278.962 301.694 279.123 301.439 279.234C301.185 279.344 300.91 279.4 300.633 279.4C300.356 279.4 300.081 279.344 299.827 279.234C299.572 279.123 299.343 278.962 299.154 278.76C298.964 278.558 298.818 278.32 298.725 278.059C298.631 277.799 298.592 277.522 298.61 277.245C298.61 267.051 313.691 237.755 338.378 219.398L339.233 218.757C340.148 218.091 341.089 217.434 342.039 216.794C342.988 216.153 343.98 215.521 344.973 214.907C345.631 214.505 346.281 214.053 346.949 213.694C348.711 212.669 350.507 211.688 352.38 210.782C352.63 210.673 352.856 210.515 353.043 210.316C353.23 210.118 353.375 209.884 353.47 209.628C353.564 209.372 353.606 209.1 353.592 208.828C353.578 208.556 353.51 208.29 353.391 208.044C353.271 207.799 353.104 207.581 352.898 207.402C352.692 207.223 352.452 207.088 352.192 207.004C351.932 206.92 351.658 206.889 351.386 206.913C351.115 206.938 350.85 207.016 350.61 207.145C325.803 219.142 310.791 241.726 305.487 250.87C305.297 251.175 305.032 251.427 304.718 251.603C304.404 251.779 304.051 251.874 303.691 251.878C303.328 251.87 302.974 251.766 302.666 251.575C302.357 251.384 302.106 251.114 301.938 250.793C299.698 246.484 298.545 241.696 298.576 236.842C298.576 222.873 307.053 190.376 385.604 190.376C385.998 190.38 386.383 190.5 386.71 190.72C387.037 190.94 387.292 191.251 387.444 191.614C387.596 191.978 387.638 192.377 387.565 192.764C387.492 193.151 387.307 193.508 387.033 193.791L387.067 193.825Z" fill="#53DD6C"/>
<path d="M542.498 261.935C541.423 261.695 539.938 261.273 538.872 261.075C534.528 260.215 530.995 260.448 526.925 260.112C518.195 259.184 510.968 258.435 504.551 256.397C501.931 255.374 500.071 252.235 499.158 250.945L494.123 249.466C499.503 209.803 490.251 169.528 468.122 136.282C469.411 135.095 471.851 132.911 472.551 132.275C472.747 130.022 472.551 127.648 474.897 125.155C479.804 120.511 485.991 116.658 493.457 112.015C496.999 109.908 500.284 108.575 503.825 105.909C504.628 105.316 505.728 104.37 506.573 103.682C512.546 98.8664 513.937 90.568 509.637 85.1419C505.336 79.7157 497.016 79.1998 491.025 84.0068C490.172 84.6947 489.02 85.5804 488.252 86.2426C484.907 89.1491 482.833 92.0127 480.017 95.0311C473.856 101.326 468.771 106.58 463.19 110.372C460.766 111.791 457.216 111.301 455.612 111.232L450.868 114.672C423.536 85.7671 386.722 67.8425 347.265 64.2283C347.154 62.5515 347.009 59.5245 346.975 58.613C345.353 57.0479 343.391 55.7064 342.896 52.3269C342.35 45.5592 343.254 38.2842 344.312 29.5129C344.884 25.411 345.848 22.0057 346.019 17.5512C346.019 16.5365 346.019 15.0746 346.019 13.9739C346.019 6.23451 340.438 0 333.543 0C326.648 0 320.999 6.20012 320.999 13.9395C320.999 14.0599 320.999 14.1717 320.999 14.2921C320.999 15.3412 320.931 16.6053 320.999 17.5168C321.17 21.9713 322.126 25.3766 322.706 29.4785C323.755 38.2498 324.643 45.5248 324.097 52.2925C323.568 54.8723 321.707 57.1769 320.043 58.7936L319.753 64.1165C312.161 64.748 304.622 65.9146 297.191 67.6079C265.973 74.712 237.575 91.06 215.647 114.552C214.265 113.606 211.85 111.869 211.133 111.327C208.906 111.636 206.653 112.324 203.726 110.604C198.137 106.812 193.051 101.584 186.898 95.2891C184.074 92.2707 182.034 89.4071 178.681 86.5006C177.921 85.8384 176.761 84.9441 175.907 84.2734C173.438 82.261 170.393 81.1005 167.22 80.9626C165.333 80.8632 163.448 81.2132 161.72 81.984C159.991 82.7549 158.467 83.9251 157.271 85.3999C153.004 90.826 154.352 99.1588 160.334 103.94L160.522 104.078C161.375 104.748 162.356 105.608 163.082 106.167C166.64 108.816 169.908 110.175 173.433 112.273C180.891 116.916 187.086 120.769 191.993 125.412C193.904 127.468 194.245 131.097 194.501 132.67L198.495 136.265C176.446 169.633 167.391 210.028 173.066 249.707L167.826 251.281C166.452 253.078 164.507 255.899 162.467 256.741C156.05 258.779 148.814 259.527 140.093 260.448C135.997 260.792 132.464 260.585 128.146 261.411C127.191 261.6 125.859 261.944 124.818 262.193H124.707L124.52 262.245C117.164 264.042 112.437 270.844 113.964 277.569C115.491 284.294 122.668 288.361 130.066 286.753C130.129 286.758 130.192 286.758 130.254 286.753C130.339 286.753 130.416 286.693 130.493 286.676C131.526 286.443 132.823 286.194 133.719 285.953C137.985 284.801 141.083 283.107 144.923 281.654C153.183 278.67 160.018 276.176 166.683 275.204C169.465 274.989 172.4 276.924 173.859 277.784L179.295 276.847C191.507 314.876 217.107 347.088 251.265 367.406L249.012 372.789C249.865 374.913 250.719 377.794 250.121 379.901C247.698 386.23 243.551 392.912 238.823 400.359C236.536 403.798 234.198 406.473 232.133 410.411C231.638 411.349 231.007 412.802 230.529 413.791C227.32 420.67 229.676 428.676 235.837 431.669C241.998 434.661 249.729 431.497 253.065 424.574C253.535 423.594 254.209 422.304 254.61 421.375C256.376 417.299 256.965 413.799 258.211 409.852C261.513 401.494 263.331 392.722 267.871 387.253C269.117 385.757 271.148 385.181 273.255 384.613L276.08 379.454C313.139 393.814 354.147 393.921 391.28 379.755C392.073 381.174 393.549 383.899 393.942 384.587C396.084 385.293 398.413 385.654 400.316 388.483C403.73 394.339 406.042 401.27 408.85 409.637C410.095 413.584 410.71 417.084 412.476 421.16C412.877 422.098 413.551 423.405 414.021 424.385C417.349 431.342 425.072 434.524 431.275 431.514C437.479 428.504 439.808 420.558 436.583 413.636C436.105 412.647 435.448 411.194 434.962 410.256C432.896 406.318 430.55 403.669 428.263 400.23C423.535 392.783 419.619 386.591 417.17 380.262C416.163 377.003 417.34 374.965 418.134 372.849C417.656 372.299 416.649 369.22 416.052 367.767C450.325 347.29 475.93 314.829 487.996 276.563C489.609 276.821 492.416 277.319 493.329 277.5C495.207 276.253 496.93 274.628 500.318 274.92C506.983 275.892 513.818 278.36 522.078 281.37C525.918 282.849 529.007 284.569 533.282 285.721C534.178 285.97 535.475 286.194 536.508 286.426C536.585 286.426 536.662 286.486 536.747 286.504H536.935C544.333 288.112 551.518 284.027 553.037 277.311C554.556 270.595 549.854 263.724 542.498 261.935ZM423.885 133.805L370.552 171.909L370.364 171.832L370.083 172.021C368.519 173.097 366.707 173.749 364.82 173.913C362.934 174.078 361.038 173.75 359.314 172.961C357.59 172.172 356.097 170.948 354.979 169.408C353.861 167.869 353.155 166.064 352.931 164.17C352.931 163.903 352.88 163.636 352.871 163.37H352.82L349.108 97.4991C377.333 101.009 403.63 113.776 423.945 133.831L423.885 133.805ZM332.835 267.869C323.243 267.869 315.051 265.203 308.942 260.181C304.752 268.118 302.533 274.8 302.533 278.042C302.551 278.32 302.512 278.599 302.419 278.861C302.326 279.124 302.18 279.364 301.991 279.568C301.802 279.771 301.573 279.933 301.319 280.044C301.065 280.155 300.792 280.212 300.515 280.212C300.238 280.212 299.965 280.155 299.711 280.044C299.457 279.933 299.228 279.771 299.039 279.568C298.85 279.364 298.704 279.124 298.611 278.861C298.518 278.599 298.479 278.32 298.497 278.042C298.497 267.774 313.541 238.27 338.168 219.781L339.022 219.136C339.935 218.466 340.873 217.804 341.82 217.159C342.768 216.514 343.758 215.877 344.747 215.258C345.404 214.854 346.053 214.398 346.719 214.037C348.476 213.005 350.268 212.016 352.137 211.105C352.387 210.995 352.611 210.835 352.798 210.635C352.985 210.435 353.13 210.2 353.224 209.942C353.318 209.685 353.359 209.411 353.346 209.137C353.332 208.862 353.264 208.594 353.145 208.347C353.026 208.1 352.859 207.88 352.653 207.7C352.448 207.52 352.208 207.384 351.949 207.299C351.69 207.214 351.417 207.183 351.146 207.208C350.874 207.232 350.611 207.312 350.371 207.441C325.624 219.523 310.648 242.269 305.358 251.479C305.167 251.786 304.903 252.039 304.59 252.217C304.277 252.394 303.925 252.489 303.566 252.493C303.204 252.486 302.851 252.38 302.543 252.188C302.235 251.996 301.984 251.724 301.816 251.401C299.601 247.065 298.465 242.252 298.505 237.376C298.505 223.307 306.962 190.578 385.323 190.578C385.717 190.583 386.1 190.703 386.426 190.925C386.753 191.147 387.007 191.46 387.159 191.826C387.31 192.191 387.352 192.594 387.279 192.984C387.206 193.373 387.022 193.733 386.748 194.018C379.666 201.155 371.03 211.664 367.122 229.636C364.212 243.034 358.793 267.895 332.86 267.895L332.835 267.869ZM304.547 99.8123C308.942 98.8135 313.385 98.0415 317.859 97.4991L314.147 163.473L313.882 163.611C313.882 163.851 313.882 164.084 313.814 164.316C313.614 166.219 312.928 168.038 311.823 169.595C310.717 171.151 309.229 172.392 307.506 173.196C305.782 174 303.88 174.34 301.987 174.182C300.094 174.024 298.274 173.375 296.705 172.296L296.415 172.098L296.312 172.15L242.629 133.805C259.721 116.88 281.167 105.106 304.547 99.8123ZM223.165 158.451L271.361 201.895L272.214 202.626L272.154 202.892C273.656 204.213 274.774 205.919 275.388 207.83C276.002 209.741 276.09 211.784 275.641 213.741C275.193 215.698 274.225 217.495 272.841 218.941C271.457 220.386 269.71 221.426 267.785 221.948L267.734 222.163L265.712 222.748L204.903 240.437C201.783 211.823 208.208 182.976 223.165 158.451ZM263.826 336.586C239.865 321.13 221.635 298.14 211.961 271.18L272.479 260.86L276.387 260.19L276.498 260.319C277.21 260.186 277.933 260.126 278.657 260.138C281.118 260.172 283.497 261.038 285.411 262.598C287.325 264.157 288.664 266.319 289.213 268.737C289.741 271.017 289.528 273.408 288.607 275.557L288.786 275.806L286.917 280.355L263.826 336.586ZM362.505 353.974C339.149 359.37 314.763 358.104 292.08 350.319L320.922 297.769L323.755 292.609H323.807C325.132 290.081 327.382 288.171 330.079 287.283C332.777 286.396 335.711 286.6 338.262 287.854C340.366 288.858 342.095 290.516 343.194 292.583H343.433L346.3 297.786L375.194 350.414C371.053 351.79 366.823 352.976 362.505 353.974ZM403.465 336.827L380.289 280.415L378.232 275.428L378.317 275.316C377.621 273.671 377.328 271.881 377.463 270.098C377.599 268.315 378.159 266.592 379.095 265.073C380.032 263.554 381.319 262.285 382.845 261.374C384.372 260.463 386.094 259.935 387.866 259.837H388.336C389.026 259.838 389.714 259.905 390.392 260.035L390.503 259.906L394.881 260.645L455.467 270.965C445.862 298.141 427.543 321.316 403.405 336.827H403.465ZM462.345 240.222L401.537 222.576L399.198 221.897L399.139 221.63C396.405 220.87 394.067 219.075 392.612 216.621C391.158 214.167 390.699 211.243 391.331 208.456C391.841 206.17 393.064 204.109 394.821 202.574V202.437L395.802 201.577L443.589 158.494C447.215 164.505 450.348 170.803 452.958 177.327C461.082 197.219 464.264 218.809 462.225 240.222H462.345Z" fill="#115033"/>
<path d="M542.498 261.935C541.423 261.695 539.938 261.273 538.872 261.075C534.528 260.215 530.995 260.448 526.925 260.112C518.195 259.184 510.968 258.435 504.551 256.397C501.931 255.374 500.071 252.235 499.158 250.945L494.123 249.466C499.503 209.803 490.251 169.528 468.122 136.282C469.411 135.095 471.851 132.911 472.551 132.275C472.747 130.022 472.551 127.648 474.897 125.155C479.804 120.511 485.991 116.658 493.457 112.015C496.999 109.908 500.284 108.575 503.825 105.909C504.628 105.316 505.728 104.37 506.573 103.682C512.546 98.8664 513.937 90.568 509.637 85.1419C505.336 79.7157 497.016 79.1998 491.025 84.0068C490.172 84.6947 489.02 85.5804 488.252 86.2426C484.907 89.1491 482.833 92.0127 480.017 95.0311C473.856 101.326 468.771 106.58 463.19 110.372C460.766 111.791 457.216 111.301 455.612 111.232L450.868 114.672C423.536 85.7671 386.722 67.8425 347.265 64.2283C347.154 62.5515 347.009 59.5245 346.975 58.613C345.353 57.0479 343.391 55.7064 342.896 52.3269C342.35 45.5592 343.254 38.2842 344.312 29.5129C344.884 25.411 345.848 22.0057 346.019 17.5512C346.019 16.5365 346.019 15.0746 346.019 13.9739C346.019 6.23451 340.438 0 333.543 0C326.648 0 320.999 6.20012 320.999 13.9395C320.999 14.0599 320.999 14.1717 320.999 14.2921C320.999 15.3412 320.931 16.6053 320.999 17.5168C321.17 21.9713 322.126 25.3766 322.706 29.4785C323.755 38.2498 324.643 45.5248 324.097 52.2925C323.568 54.8723 321.707 57.1769 320.043 58.7936L319.753 64.1165C312.161 64.748 304.622 65.9146 297.191 67.6079C265.973 74.712 237.575 91.06 215.647 114.552C214.265 113.606 211.85 111.869 211.133 111.327C208.906 111.636 206.653 112.324 203.726 110.604C198.137 106.812 193.051 101.584 186.898 95.2891C184.074 92.2707 182.034 89.4071 178.681 86.5006C177.921 85.8384 176.761 84.9441 175.907 84.2734C173.438 82.261 170.393 81.1005 167.22 80.9626C165.333 80.8632 163.448 81.2132 161.72 81.984C159.991 82.7549 158.467 83.9251 157.271 85.3999C153.004 90.826 154.352 99.1588 160.334 103.94L160.522 104.078C161.375 104.748 162.356 105.608 163.082 106.167C166.64 108.816 169.908 110.175 173.433 112.273C180.891 116.916 187.086 120.769 191.993 125.412C193.904 127.468 194.245 131.097 194.501 132.67L198.495 136.265C176.446 169.633 167.391 210.028 173.066 249.707L167.826 251.281C166.452 253.078 164.507 255.899 162.467 256.741C156.05 258.779 148.814 259.527 140.093 260.448C135.997 260.792 132.464 260.585 128.146 261.411C127.191 261.6 125.859 261.944 124.818 262.193H124.707L124.52 262.245C117.164 264.042 112.437 270.844 113.964 277.569C115.491 284.294 122.668 288.361 130.066 286.753C130.129 286.758 130.192 286.758 130.254 286.753C130.339 286.753 130.416 286.693 130.493 286.676C131.526 286.443 132.823 286.194 133.719 285.953C137.985 284.801 141.083 283.107 144.923 281.654C153.183 278.67 160.018 276.176 166.683 275.204C169.465 274.989 172.4 276.924 173.859 277.784L179.295 276.847C191.507 314.876 217.107 347.088 251.265 367.406L249.012 372.789C249.865 374.913 250.719 377.794 250.121 379.901C247.698 386.23 243.551 392.912 238.823 400.359C236.536 403.798 234.198 406.473 232.133 410.411C231.638 411.349 231.007 412.802 230.529 413.791C227.32 420.67 229.676 428.676 235.837 431.669C241.998 434.661 249.729 431.497 253.065 424.574C253.535 423.594 254.209 422.304 254.61 421.375C256.376 417.299 256.965 413.799 258.211 409.852C261.513 401.494 263.331 392.722 267.871 387.253C269.117 385.757 271.148 385.181 273.255 384.613L276.08 379.454C313.139 393.814 354.147 393.921 391.28 379.755C392.073 381.174 393.549 383.899 393.942 384.587C396.084 385.293 398.413 385.654 400.316 388.483C403.73 394.339 406.042 401.27 408.85 409.637C410.095 413.584 410.71 417.084 412.476 421.16C412.877 422.098 413.551 423.405 414.021 424.385C417.349 431.342 425.072 434.524 431.275 431.514C437.479 428.504 439.808 420.558 436.583 413.636C436.105 412.647 435.448 411.194 434.962 410.256C432.896 406.318 430.55 403.669 428.263 400.23C423.535 392.783 419.619 386.591 417.17 380.262C416.163 377.003 417.34 374.965 418.134 372.849C417.656 372.299 416.649 369.22 416.052 367.767C450.325 347.29 475.93 314.829 487.996 276.563C489.609 276.821 492.416 277.319 493.329 277.5C495.207 276.253 496.93 274.628 500.318 274.92C506.983 275.892 513.818 278.36 522.078 281.37C525.918 282.849 529.007 284.569 533.282 285.721C534.178 285.97 535.475 286.194 536.508 286.426C536.585 286.426 536.662 286.486 536.747 286.504H536.935C544.333 288.112 551.518 284.027 553.037 277.311C554.556 270.595 549.854 263.724 542.498 261.935ZM423.885 133.805L370.552 171.909L370.364 171.832L370.083 172.021C368.519 173.097 366.707 173.749 364.82 173.913C362.934 174.078 361.038 173.75 359.314 172.961C357.59 172.172 356.097 170.948 354.979 169.408C353.861 167.869 353.155 166.064 352.931 164.17C352.931 163.903 352.88 163.636 352.871 163.37H352.82L349.108 97.4991C377.333 101.009 403.63 113.776 423.945 133.831L423.885 133.805ZM332.835 267.869C323.243 267.869 315.051 265.203 308.942 260.181C304.752 268.118 302.533 274.8 302.533 278.042C302.551 278.32 302.512 278.599 302.419 278.861C302.326 279.124 302.18 279.364 301.991 279.568C301.802 279.771 301.573 279.933 301.319 280.044C301.065 280.155 300.792 280.212 300.515 280.212C300.238 280.212 299.965 280.155 299.711 280.044C299.457 279.933 299.228 279.771 299.039 279.568C298.85 279.364 298.704 279.124 298.611 278.861C298.518 278.599 298.479 278.32 298.497 278.042C298.497 267.774 313.541 238.27 338.168 219.781L339.022 219.136C339.935 218.466 340.873 217.804 341.82 217.159C342.768 216.514 343.758 215.877 344.747 215.258C345.404 214.854 346.053 214.398 346.719 214.037C348.476 213.005 350.268 212.016 352.137 211.105C352.387 210.995 352.611 210.835 352.798 210.635C352.985 210.435 353.13 210.2 353.224 209.942C353.318 209.685 353.359 209.411 353.346 209.137C353.332 208.862 353.264 208.594 353.145 208.347C353.026 208.1 352.859 207.88 352.653 207.7C352.448 207.52 352.208 207.384 351.949 207.299C351.69 207.214 351.417 207.183 351.146 207.208C350.874 207.232 350.611 207.312 350.371 207.441C325.624 219.523 310.648 242.269 305.358 251.479C305.167 251.786 304.903 252.039 304.59 252.217C304.277 252.394 303.925 252.489 303.566 252.493C303.204 252.486 302.851 252.38 302.543 252.188C302.235 251.996 301.984 251.724 301.816 251.401C299.601 247.065 298.465 242.252 298.505 237.376C298.505 223.307 306.962 190.578 385.323 190.578C385.717 190.583 386.1 190.703 386.426 190.925C386.753 191.147 387.007 191.46 387.159 191.826C387.31 192.191 387.352 192.594 387.279 192.984C387.206 193.373 387.022 193.733 386.748 194.018C379.666 201.155 371.03 211.664 367.122 229.636C364.212 243.034 358.793 267.895 332.86 267.895L332.835 267.869ZM304.547 99.8123C308.942 98.8135 313.385 98.0415 317.859 97.4991L314.147 163.473L313.882 163.611C313.882 163.851 313.882 164.084 313.814 164.316C313.614 166.219 312.928 168.038 311.823 169.595C310.717 171.151 309.229 172.392 307.506 173.196C305.782 174 303.88 174.34 301.987 174.182C300.094 174.024 298.274 173.375 296.705 172.296L296.415 172.098L296.312 172.15L242.629 133.805C259.721 116.88 281.167 105.106 304.547 99.8123ZM223.165 158.451L271.361 201.895L272.214 202.626L272.154 202.892C273.656 204.213 274.774 205.919 275.388 207.83C276.002 209.741 276.09 211.784 275.641 213.741C275.193 215.698 274.225 217.495 272.841 218.941C271.457 220.386 269.71 221.426 267.785 221.948L267.734 222.163L265.712 222.748L204.903 240.437C201.783 211.823 208.208 182.976 223.165 158.451ZM263.826 336.586C239.865 321.13 221.635 298.14 211.961 271.18L272.479 260.86L276.387 260.19L276.498 260.319C277.21 260.186 277.933 260.126 278.657 260.138C281.118 260.172 283.497 261.038 285.411 262.598C287.325 264.157 288.664 266.319 289.213 268.737C289.741 271.017 289.528 273.408 288.607 275.557L288.786 275.806L286.917 280.355L263.826 336.586ZM362.505 353.974C339.149 359.37 314.763 358.104 292.08 350.319L320.922 297.769L323.755 292.609H323.807C325.132 290.081 327.382 288.171 330.079 287.283C332.777 286.396 335.711 286.6 338.262 287.854C340.366 288.858 342.095 290.516 343.194 292.583H343.433L346.3 297.786L375.194 350.414C371.053 351.79 366.823 352.976 362.505 353.974ZM403.465 336.827L380.289 280.415L378.232 275.428L378.317 275.316C377.621 273.671 377.328 271.881 377.463 270.098C377.599 268.315 378.159 266.592 379.095 265.073C380.032 263.554 381.319 262.285 382.845 261.374C384.372 260.463 386.094 259.935 387.866 259.837H388.336C389.026 259.838 389.714 259.905 390.392 260.035L390.503 259.906L394.881 260.645L455.467 270.965C445.862 298.141 427.543 321.316 403.405 336.827H403.465ZM462.345 240.222L401.537 222.576L399.198 221.897L399.139 221.63C396.405 220.87 394.067 219.075 392.612 216.621C391.158 214.167 390.699 211.243 391.331 208.456C391.841 206.17 393.064 204.109 394.821 202.574V202.437L395.802 201.577L443.589 158.494C447.215 164.505 450.348 170.803 452.958 177.327C461.082 197.219 464.264 218.809 462.225 240.222H462.345Z" fill="#115033"/>
<path d="M17.9733 523.398C19.7412 521.407 21.5701 519.33 23.46 517.166C25.3499 515.002 27.1788 512.865 28.9468 510.753C30.7147 508.641 32.3774 506.627 33.9347 504.711C35.4921 502.794 36.8388 501.134 37.975 499.73H59.3484C55.0864 504.811 50.9298 509.665 46.8785 514.292C42.8271 518.918 38.3934 523.691 33.5773 528.611C36.2376 531.139 38.7368 533.843 41.0592 536.708C43.6363 539.838 46.1303 543.08 48.5411 546.435C50.952 549.79 53.1688 553.136 55.1917 556.474C57.2035 559.823 58.8939 562.875 60.2628 565.632H39.5379C38.2465 563.457 36.7806 561.048 35.1402 558.407C33.4997 555.766 31.7539 553.13 29.9028 550.501C28.0517 547.859 26.112 545.328 24.0835 542.905C22.2342 540.671 20.1978 538.611 17.9982 536.751V565.649H0V471.41L17.9733 468.407V523.398Z" fill="#115033"/>
<path d="M128.743 561.834C119.709 564.342 110.395 565.625 101.037 565.649C95.5168 565.649 90.9219 564.886 87.2529 563.36C83.851 562.035 80.8439 559.82 78.5289 556.932C76.3184 554.029 74.7564 550.661 73.9539 547.067C73.0131 542.937 72.5555 538.706 72.5908 534.465V497.168H91.0185V532.176C91.0185 538.315 91.8023 542.699 93.3699 545.409C94.9374 548.119 97.8596 549.487 102.153 549.487C103.465 549.487 104.871 549.425 106.354 549.294C107.836 549.162 109.157 549.022 110.315 548.847V497.168H128.743V561.834Z" fill="#115033"/>
<path d="M206.807 531.654C206.877 536.434 206.033 541.188 204.315 545.702C202.785 549.713 200.334 553.376 197.128 556.445C193.863 559.461 189.914 561.781 185.561 563.24C180.57 564.91 175.286 565.725 169.974 565.643C167.548 565.643 165.019 565.541 162.37 565.338C159.722 565.134 157.129 564.862 154.572 564.488C152.016 564.115 149.581 563.775 147.247 563.316C144.913 562.858 142.857 562.399 141.069 561.898V471.362L161.102 468.407V500.68C163.349 499.773 165.688 499.071 168.085 498.582C170.647 498.076 173.262 497.829 175.883 497.843C180.455 497.764 184.993 498.583 189.191 500.247C192.963 501.794 196.28 504.14 198.87 507.092C201.588 510.257 203.599 513.882 204.788 517.76C206.189 522.277 206.869 526.958 206.807 531.654ZM186.367 531.153C186.367 519.319 181.619 513.403 172.123 513.403C170.056 513.403 167.998 513.652 166.001 514.142C164.274 514.526 162.622 515.15 161.102 515.993V549.405C162.083 549.566 163.334 549.71 164.862 549.838C166.39 549.965 168.038 550.016 169.835 550.016C175.299 550.016 179.421 548.292 182.199 544.844C184.978 541.396 186.367 536.832 186.367 531.153Z" fill="#115033"/>
<path d="M217.776 531.897C217.667 526.723 218.578 521.578 220.457 516.75C222.054 512.716 224.45 509.039 227.504 505.938C230.361 503.092 233.781 500.863 237.55 499.391C241.259 497.923 245.217 497.168 249.211 497.168C258.527 497.168 265.885 499.989 271.288 505.631C276.69 511.273 279.394 519.574 279.4 530.534C279.4 531.607 279.357 532.782 279.271 534.059C279.194 535.336 279.108 536.468 279.022 537.465H236.862C237.026 539.267 237.592 541.011 238.519 542.571C239.446 544.13 240.712 545.466 242.225 546.481C245.387 548.711 249.629 549.824 254.952 549.818C258.319 549.822 261.679 549.514 264.989 548.899C267.75 548.432 270.45 547.664 273.041 546.609L275.533 561.559C274.244 562.162 272.907 562.66 271.537 563.049C269.711 563.578 267.858 564.01 265.986 564.343C263.946 564.718 261.763 565.027 259.437 565.271C257.117 565.516 254.785 565.638 252.451 565.637C247.201 565.762 241.974 564.895 237.051 563.083C232.954 561.524 229.25 559.098 226.198 555.974C223.3 552.924 221.127 549.27 219.839 545.28C218.429 540.958 217.732 536.439 217.776 531.897ZM261.44 524.847C261.354 523.296 261.08 521.761 260.623 520.275C260.19 518.831 259.468 517.487 258.501 516.325C257.51 515.138 256.281 514.17 254.891 513.481C253.196 512.688 251.334 512.306 249.46 512.366C247.616 512.317 245.784 512.677 244.098 513.421C242.661 514.087 241.384 515.047 240.351 516.24C239.339 517.426 238.558 518.789 238.048 520.258C237.512 521.763 237.116 523.313 236.862 524.89L261.44 524.847Z" fill="#115033"/>
<path d="M395.817 555.053C395.817 565.605 392.886 573.431 387.023 578.533C381.16 583.634 372.087 586.187 359.805 586.193C355.481 586.18 351.165 585.821 346.909 585.12C342.851 584.481 338.852 583.558 334.948 582.359L338.439 567.038C341.64 568.195 344.945 569.096 348.316 569.732C352.189 570.421 356.128 570.749 360.074 570.712C365.801 570.712 369.856 569.569 372.238 567.283C374.654 564.884 375.931 561.711 375.793 558.457V556.126C373.665 557.017 371.436 557.694 369.146 558.144C366.693 558.613 364.191 558.84 361.685 558.82C351.921 558.82 344.441 556.185 339.244 550.915C334.047 545.644 331.449 538.268 331.449 528.786C331.387 524.38 332.209 520.001 333.875 515.864C335.4 512.105 337.808 508.695 340.929 505.873C344.162 503.009 348.033 500.814 352.279 499.437C357.155 497.866 362.299 497.099 367.471 497.173C369.884 497.173 372.368 497.275 374.923 497.477C377.478 497.68 380.005 497.95 382.514 498.271C385.023 498.592 387.421 498.989 389.707 499.437C391.994 499.884 394.031 500.357 395.817 500.847V555.053ZM351.908 528.82C351.908 539.04 356.432 544.147 365.48 544.141C367.435 544.154 369.381 543.906 371.257 543.406C372.844 543.004 374.375 542.437 375.821 541.717V512.486C374.84 512.325 373.673 512.182 372.331 512.055C370.988 511.928 369.415 511.878 367.628 511.878C362.339 511.878 358.398 513.471 355.806 516.658C353.214 519.845 351.915 523.899 351.908 528.82Z" fill="#53DD6C"/>
<path d="M454.145 515.423C452.379 515.001 450.31 514.557 447.937 514.088C445.413 513.608 442.845 513.373 440.272 513.386C438.789 513.403 437.308 513.508 435.839 513.702C434.523 513.84 433.221 514.075 431.943 514.404V565.649H412.252V502.166C416.349 500.826 420.519 499.7 424.742 498.795C430.014 497.674 435.401 497.129 440.8 497.171C441.856 497.171 443.13 497.241 444.632 497.364C446.134 497.487 447.627 497.662 449.12 497.873C450.613 498.084 452.115 498.338 453.617 498.637C454.928 498.88 456.211 499.245 457.45 499.725L454.145 515.423Z" fill="#53DD6C"/>
<path d="M460.198 531.897C460.082 526.723 461.054 521.578 463.058 516.75C464.761 512.716 467.317 509.039 470.575 505.938C473.622 503.092 477.27 500.863 481.29 499.391C485.247 497.923 489.468 497.168 493.729 497.168C503.665 497.168 511.515 499.989 517.277 505.631C523.04 511.273 525.924 519.574 525.93 530.534C525.93 531.607 525.884 532.782 525.793 534.059C525.71 535.336 525.619 536.468 525.527 537.465H480.557C480.731 539.267 481.335 541.011 482.324 542.571C483.313 544.13 484.663 545.466 486.277 546.481C489.65 548.711 494.175 549.824 499.852 549.818C503.444 549.822 507.028 549.514 510.558 548.899C513.503 548.431 516.384 547.663 519.147 546.609L521.805 561.559C520.43 562.162 519.005 562.66 517.543 563.049C515.596 563.578 513.619 564.01 511.622 564.343C509.446 564.718 507.118 565.027 504.637 565.271C502.161 565.516 499.674 565.638 497.185 565.637C491.584 565.762 486.01 564.895 480.758 563.083C476.388 561.524 472.437 559.098 469.181 555.974C466.09 552.924 463.773 549.27 462.398 545.28C460.894 540.958 460.151 536.439 460.198 531.897ZM506.773 524.847C506.667 523.294 506.359 521.759 505.856 520.275C505.394 518.831 504.624 517.487 503.592 516.325C502.535 515.138 501.224 514.17 499.742 513.481C497.933 512.688 495.948 512.306 493.949 512.366C491.981 512.317 490.027 512.677 488.229 513.421C486.712 514.09 485.366 515.051 484.278 516.24C483.198 517.426 482.365 518.789 481.822 520.258C481.25 521.763 480.827 523.313 480.557 524.89L506.773 524.847Z" fill="#53DD6C"/>
<path d="M534.156 531.896C534.049 526.723 534.94 521.578 536.778 516.75C538.341 512.718 540.684 509.042 543.668 505.938C546.462 503.094 549.806 500.865 553.49 499.391C557.117 497.923 560.987 497.169 564.892 497.168C574.001 497.168 581.196 499.989 586.478 505.631C591.761 511.273 594.405 519.574 594.41 530.534C594.41 531.607 594.41 532.782 594.293 534.059C594.175 535.336 594.125 536.468 594.041 537.465H552.818C552.978 539.267 553.531 541.011 554.438 542.571C555.345 544.13 556.582 545.466 558.061 546.481C561.153 548.711 565.301 549.824 570.505 549.818C573.798 549.822 577.083 549.514 580.319 548.899C583.019 548.433 585.66 547.665 588.192 546.608L590.629 561.559C589.369 562.162 588.062 562.66 586.722 563.049C584.94 563.578 583.131 564.01 581.302 564.343C579.303 564.717 577.168 565.027 574.9 565.271C572.631 565.515 570.35 565.638 568.068 565.637C562.932 565.763 557.819 564.896 553.003 563.083C548.997 561.524 545.375 559.098 542.39 555.974C539.557 552.923 537.433 549.27 536.173 545.28C534.794 540.958 534.113 536.439 534.156 531.896ZM576.849 524.847C576.752 523.294 576.47 521.759 576.009 520.275C575.585 518.833 574.882 517.49 573.942 516.325C572.968 515.141 571.764 514.173 570.404 513.481C568.747 512.688 566.926 512.306 565.094 512.366C563.29 512.317 561.499 512.677 559.851 513.421C558.469 514.093 557.243 515.053 556.255 516.239C555.259 517.423 554.492 518.787 553.994 520.258C553.47 521.763 553.082 523.313 552.835 524.89L576.849 524.847Z" fill="#53DD6C"/>
<path d="M610.846 501.007C614.833 499.884 618.882 499.006 622.971 498.378C628.127 497.555 633.338 497.151 638.555 497.169C644.077 497.169 648.673 497.911 652.342 499.395C655.724 500.688 658.72 502.866 661.033 505.714C663.226 508.544 664.788 511.835 665.609 515.354C666.565 519.446 667.031 523.643 666.998 527.851V565.649H648.576V530.156C648.576 524.056 647.792 519.733 646.224 517.185C644.656 514.638 641.728 513.364 637.439 513.364C636.119 513.364 634.721 513.434 633.238 513.557C631.756 513.68 630.435 513.838 629.276 514.004V565.649H610.846V501.007Z" fill="#53DD6C"/>
<path d="M291.727 525.93H323.228V538.257H291.727V525.93Z" fill="#115033"/>
</svg>
