<?xml version="1.0" encoding="utf-8"?>
<!-- Generator: Adobe Illustrator 23.0.2, SVG Export Plug-In . SVG Version: 6.00 Build 0)  -->
<svg version="1.1" id="Layer_1" xmlns="http://www.w3.org/2000/svg" xmlns:xlink="http://www.w3.org/1999/xlink" x="0px" y="0px"
	 viewBox="0 0 400 245" style="enable-background:new 0 0 400 245;" xml:space="preserve">
<style type="text/css">
	.st0{fill:#20D6F5;}
	.st1{fill:#333333;}
	.st2{fill:url(#SVGID_1_);}
	.st3{fill:url(#SVGID_2_);}
	.st4{fill:url(#SVGID_3_);}
	.st5{fill:url(#SVGID_4_);}
	.st6{fill:url(#SVGID_5_);}
	.st7{fill:url(#SVGID_6_);}
	.st8{fill:url(#SVGID_7_);}
	.st9{fill:url(#SVGID_8_);}
	.st10{fill:url(#SVGID_9_);}
	.st11{fill:url(#SVGID_10_);}
	.st12{fill:url(#SVGID_11_);}
	.st13{fill:url(#SVGID_12_);}
	.st14{fill:#F37032;}
	.st15{fill:#58595B;}
	.st16{fill:#FFFFFF;}
	.st17{fill:#2C2523;}
	.st18{fill-rule:evenodd;clip-rule:evenodd;fill:#337E3D;}
	.st19{fill-rule:evenodd;clip-rule:evenodd;fill:#8BBF45;}
	.st20{fill:#2A2E7C;}
	.st21{fill:#43B4E4;}
	.st22{fill:url(#SVGID_13_);}
	.st23{fill:url(#SVGID_14_);}
	.st24{fill:url(#SVGID_15_);}
	.st25{fill:url(#SVGID_16_);}
	.st26{fill:url(#SVGID_17_);}
	.st27{fill:url(#SVGID_18_);}
	.st28{fill:url(#SVGID_19_);}
	.st29{fill:#E1251B;}
	.st30{fill:none;}
	.st31{fill:#4D4D4D;}
	.st32{fill:#A0CC40;}
	.st33{fill:#A682B8;}
	.st34{fill:#917A81;}
	.st35{fill:#E1496D;}
	.st36{fill:#C82A5C;}
	.st37{fill:#EA8096;}
	.st38{fill:#C04A7D;}
	.st39{fill:#C9DF91;}
	.st40{fill:#BD8549;}
	.st41{fill:#8B63A9;}
	.st42{fill:#0078BA;}
	.st43{fill:#231F20;}
	.st44{fill:#536657;}
	.st45{fill:#00A75D;}
	.st46{fill:#182B4F;}
	.st47{fill:#3665B0;}
	.st48{fill:#008FC8;}
	.st49{fill:#00A9E8;}
	.st50{fill:#29C2E3;}
	.st51{fill-rule:evenodd;clip-rule:evenodd;fill:url(#in_sf_base_1_);}
	.st52{fill-rule:evenodd;clip-rule:evenodd;fill:url(#in_sf_base_2_);}
	.st53{fill-rule:evenodd;clip-rule:evenodd;fill:url(#SVGID_20_);}
	.st54{fill-rule:evenodd;clip-rule:evenodd;fill:url(#out_sf_base_1_);}
	.st55{opacity:0.74;fill-rule:evenodd;clip-rule:evenodd;fill:url(#SVGID_21_);}
	.st56{fill-rule:evenodd;clip-rule:evenodd;fill:url(#in_up_right_1_);}
	.st57{fill-rule:evenodd;clip-rule:evenodd;fill:url(#in_up_right_2_);}
	.st58{fill-rule:evenodd;clip-rule:evenodd;fill:url(#SVGID_22_);}
	.st59{opacity:0.9;fill-rule:evenodd;clip-rule:evenodd;fill:url(#SVGID_23_);}
	.st60{fill:#241D1E;}
	.st61{fill:#727172;}
	.st62{fill:#5C5B5B;}
	.st63{opacity:0.2;fill-rule:evenodd;clip-rule:evenodd;fill:url(#SVGID_24_);}
	.st64{opacity:0.2;fill-rule:evenodd;clip-rule:evenodd;fill:url(#SVGID_25_);fill-opacity:0.42;}
	.st65{opacity:0.5;fill:#C5C5C4;}
	.st66{fill-rule:evenodd;clip-rule:evenodd;fill:url(#SVGID_26_);}
	.st67{opacity:0.9;fill-rule:evenodd;clip-rule:evenodd;fill:url(#SVGID_27_);}
	.st68{fill:url(#wing_low_sf_1_);}
	.st69{fill-rule:evenodd;clip-rule:evenodd;fill:url(#SVGID_28_);}
	.st70{fill-rule:evenodd;clip-rule:evenodd;fill:url(#SVGID_29_);}
	.st71{fill-rule:evenodd;clip-rule:evenodd;fill:url(#SVGID_30_);}
	.st72{fill-rule:evenodd;clip-rule:evenodd;fill:url(#SVGID_31_);}
	.st73{fill-rule:evenodd;clip-rule:evenodd;fill:#454242;}
	.st74{fill:#C5C5C4;}
	.st75{fill:url(#SVGID_32_);fill-opacity:0.8;}
	.st76{fill:#454242;}
	.st77{fill-rule:evenodd;clip-rule:evenodd;fill:url(#SVGID_33_);}
	.st78{fill-rule:evenodd;clip-rule:evenodd;fill:#DADBDA;}
	.st79{fill-rule:evenodd;clip-rule:evenodd;fill:url(#SVGID_34_);}
	.st80{fill-rule:evenodd;clip-rule:evenodd;fill:url(#SVGID_35_);}
	.st81{fill-rule:evenodd;clip-rule:evenodd;fill:url(#SVGID_36_);}
	.st82{fill-rule:evenodd;clip-rule:evenodd;fill:url(#SVGID_37_);}
	.st83{fill:#005BAB;}
	.st84{fill:url(#SVGID_38_);}
	.st85{fill:url(#SVGID_39_);}
	.st86{fill:#ED2924;}
	.st87{fill:#2F3A79;}
	.st88{fill-rule:evenodd;clip-rule:evenodd;fill:#E13A3E;}
	.st89{fill-rule:evenodd;clip-rule:evenodd;fill:#231F20;}
</style>
<g>
	<g>
		<path class="st16" d="M78.74,131.02l-24.33,14.05l-24.34-14.05l24.34-14.05C54.41,116.97,78.74,131.02,78.74,131.02z"/>
		<path class="st17" d="M151.96,116.04l13.52-14.75c0.47-0.43,0.98-0.81,1.54-1.13c0.75-0.43,1.6-0.64,2.46-0.61h15.06
			c1.35-0.01,2.45,1.08,2.46,2.43c0,0.01,0,0.02,0,0.02c0.01,0.3-0.04,0.59-0.15,0.87c-0.26,0.44-0.59,0.84-0.97,1.18l-18.23,20.28
			l21.51,24.08c0.3,0.34,0.58,0.7,0.82,1.08c0.14,0.27,0.21,0.57,0.21,0.87c0,1.35-1.09,2.46-2.45,2.46c0,0-0.01,0-0.01,0h-15.27
			c-0.86,0.03-1.72-0.13-2.51-0.46c-0.65-0.3-1.22-0.74-1.69-1.28l-16.29-18.34v17.31c-0.01,1.52-1.24,2.75-2.77,2.77h-12.91
			c-1.52-0.02-2.75-1.25-2.77-2.77V82.85c0.02-1.52,1.25-2.75,2.77-2.77h12.91c1.52,0.02,2.75,1.24,2.77,2.77L151.96,116.04z
			 M195.6,102.31c0.02-1.52,1.25-2.75,2.77-2.77h12.91c1.52,0.02,2.75,1.24,2.77,2.77v25.92c0,2.94,0.65,5.29,1.95,7.07
			c1.3,1.78,3.45,2.66,6.45,2.66c3.01,0,5.14-0.89,6.41-2.66c1.26-1.77,1.89-4.13,1.89-7.07v-25.92c0.02-1.52,1.25-2.75,2.77-2.77
			h12.91c1.52,0.02,2.75,1.24,2.77,2.77v47.74c-0.02,1.52-1.24,2.75-2.77,2.77h-11.89c-1.52-0.02-2.75-1.25-2.77-2.77v-2.36
			c-0.59,0.8-1.26,1.54-2,2.2c-0.88,0.78-1.86,1.44-2.92,1.95c-1.29,0.63-2.65,1.11-4.05,1.43c-1.8,0.4-3.64,0.59-5.48,0.56
			c-6.62,0-11.9-1.88-15.83-5.63c-3.93-3.75-5.89-9.66-5.89-17.72V102.31z M293.24,98.52c2.96-0.02,5.91,0.47,8.71,1.43
			c2.67,0.92,5.12,2.41,7.17,4.35c2.14,2.08,3.83,4.57,4.97,7.32c1.34,3.32,2.05,6.87,2.1,10.45c0.07,1.02,0.1,2.41,0.1,4.15
			c0,1.74-0.03,3.13-0.1,4.15c-0.05,3.58-0.76,7.13-2.1,10.45c-1.14,2.76-2.83,5.25-4.97,7.32c-2.04,1.94-4.49,3.41-7.17,4.3
			c-2.81,0.93-5.75,1.4-8.71,1.38c-1.91,0.04-3.82-0.15-5.69-0.56c-1.35-0.31-2.66-0.79-3.89-1.43c-0.98-0.52-1.87-1.17-2.66-1.95
			c-0.7-0.7-1.37-1.43-2-2.2v2.36c-0.02,1.52-1.25,2.75-2.77,2.77h-12.39c-1.52-0.02-2.75-1.25-2.77-2.77V82.85
			c0.02-1.52,1.25-2.75,2.77-2.77h12.91c1.52,0.02,2.75,1.25,2.77,2.77v21.82c0.57-0.71,1.18-1.38,1.85-2
			c0.83-0.78,1.76-1.45,2.76-2c1.23-0.67,2.54-1.19,3.89-1.54C289.72,98.7,291.48,98.5,293.24,98.52 M297.85,123.32
			c-0.16-2.27-0.98-4.44-2.36-6.25c-1.37-1.78-3.65-2.66-6.86-2.66c-1.33-0.03-2.66,0.21-3.89,0.72c-1.03,0.43-1.95,1.08-2.72,1.89
			c-0.71,0.77-1.28,1.65-1.69,2.61c-0.41,0.95-0.68,1.95-0.82,2.97c-0.27,2.38-0.27,4.79,0,7.17c0.14,1.02,0.41,2.02,0.82,2.97
			c0.41,0.96,0.98,1.84,1.69,2.61c0.76,0.82,1.69,1.46,2.72,1.9c1.23,0.51,2.56,0.75,3.89,0.72c3.21,0,5.5-0.89,6.86-2.66
			c1.38-1.81,2.2-3.98,2.36-6.25C298.05,127.15,298.05,125.22,297.85,123.32 M344.46,150.06c-0.02,1.52-1.24,2.75-2.76,2.77h-12.91
			c-1.52-0.02-2.75-1.25-2.77-2.77V82.85c0.02-1.52,1.25-2.75,2.77-2.77h12.91c1.52,0.02,2.75,1.25,2.76,2.77L344.46,150.06z
			 M393.53,99.55c1.52,0.02,2.75,1.24,2.77,2.77v10.35c-0.02,1.52-1.25,2.75-2.77,2.77h-9.32c-6.28,0-9.43,3.14-9.43,9.43v25.2
			c-0.02,1.52-1.25,2.75-2.77,2.77h-12.91c-1.52-0.02-2.75-1.25-2.77-2.77v-47.74c0.02-1.52,1.25-2.75,2.77-2.77H371
			c1.52,0.02,2.75,1.24,2.77,2.77v2.36c1.66-1.56,3.58-2.81,5.68-3.69c2.52-1.01,5.22-1.5,7.94-1.43L393.53,99.55z"/>
		<path class="st18" d="M54.41,88.87l-24.34,14.05v28.1l24.34-14.05l24.34,14.05v-28.1C78.74,102.92,54.41,88.87,54.41,88.87z"/>
		<path class="st19" d="M54.41,60.77L5.73,88.87l24.33,14.05l24.34-14.05l24.34,14.05l0,28.1l-24.33,14.05l-24.34-14.05v-28.1
			L5.73,88.87v56.2l48.67,28.1l48.67-28.1v-56.2C103.08,88.87,54.41,60.77,54.41,60.77z"/>
	</g>
</g>
</svg>
