<?xml version="1.0" encoding="UTF-8"?>
<svg width="128px" height="128px" viewBox="0 0 128 128" version="1.1" xmlns="http://www.w3.org/2000/svg" xmlns:xlink="http://www.w3.org/1999/xlink">
    <!-- Generator: Sketch 55.2 (78181) - https://sketchapp.com -->
    <title>Group 14</title>
    <desc>Created with Sketch.</desc>
    <g id="Page-1" stroke="none" stroke-width="1" fill="none" fill-rule="evenodd">
        <g id="Letter-Copy-2" transform="translate(-507.000000, -242.000000)">
            <g id="Group-14" transform="translate(507.000000, 242.000000)">
                <g id="Group-13">
                    <polygon id="Fill-1" fill="#31005D" points="0 64 64 64 64 0 0 0"></polygon>
                    <polygon id="Fill-2" fill="#1B94FF" points="64 64 128 64 128 0 64 0"></polygon>
                    <polygon id="Fill-3" fill="#00D7BD" points="0 128 64 128 64 64 0 64"></polygon>
                    <polygon id="Fill-4" fill="#31005D" points="64 128 128 128 128 64 64 64"></polygon>
                    <g id="Group-12" transform="translate(7.000000, 6.000000)">
                        <path d="M99.1949106,29.1583553 L99.1949106,0.850849412 L101.391099,0.850849412 L101.391099,29.1583553 C101.391099,32.2499553 100.17084,34.8931553 97.7303224,37.0893435 C95.2898047,39.2855318 92.3620165,40.3836259 88.9455694,40.3836259 C85.5291224,40.3836259 82.6013341,39.2855318 80.1608165,37.0893435 C77.7202988,34.8931553 76.50004,32.2499553 76.50004,29.1583553 L76.50004,0.850849412 L78.6962282,0.850849412 L78.6962282,29.1583553 C78.6962282,31.6391318 79.6985341,33.76452 81.7017576,35.5331318 C83.7035929,37.3031318 86.1191224,38.1874376 88.9455694,38.1874376 C91.7720165,38.1874376 94.1875459,37.3031318 96.1893812,35.5331318 C98.1926047,33.76452 99.1949106,31.6391318 99.1949106,29.1583553 M103.587287,29.1583553 L103.587287,0.850849412 L105.783475,0.850849412 L105.783475,29.1583553 C105.783475,31.2726376 105.336464,33.29252 104.441052,35.2124494 C103.547028,37.1351553 102.347593,38.7968729 100.842746,40.2003788 C99.3378988,41.6038847 97.5470753,42.7172494 95.4730518,43.5404729 C93.3990282,44.3636965 91.2236635,44.7760024 88.9455694,44.7760024 C86.6688635,44.7760024 84.4921106,44.3636965 82.4180871,43.5404729 C80.3440635,42.7172494 78.5546282,41.6038847 77.0497812,40.2003788 C75.5449341,38.7968729 74.3454988,37.1351553 73.4500871,35.2124494 C72.5560635,33.29252 72.1076635,31.2726376 72.1076635,29.1583553 L72.1076635,0.850849412 L74.3038518,0.850849412 L74.3038518,29.1583553 C74.3038518,31.5780494 74.9590988,33.8200494 76.2723694,35.8843553 C77.5828635,37.9486612 79.3625812,39.5798376 81.6101341,40.7806612 C83.8562988,41.9800965 86.3023694,42.5798141 88.9455694,42.5798141 C91.5887694,42.5798141 94.03484,41.9800965 96.2823929,40.7806612 C98.5285576,39.5798376 100.308275,37.9486612 101.620158,35.8843553 C102.93204,33.8200494 103.587287,31.5780494 103.587287,29.1583553 M107.979664,29.1583553 L107.979664,0.850849412 L110.175852,0.850849412 L110.175852,29.1583553 C110.175852,31.8626376 109.61084,34.4516965 108.483593,36.9213671 C107.353569,39.3924259 105.844558,41.5219788 103.953781,43.3114141 C102.061616,45.1008494 99.8043459,46.5251788 97.1819694,47.5816259 C94.5582047,48.6394612 91.8136635,49.1683788 88.9455694,49.1683788 C86.0788635,49.1683788 83.3329341,48.6394612 80.7105576,47.5816259 C78.0867929,46.5251788 75.8295224,45.1008494 73.9387459,43.3114141 C72.0465812,41.5219788 70.5375694,39.3924259 69.4075459,36.9213671 C68.2802988,34.4516965 67.7152871,31.8626376 67.7152871,29.1583553 L67.7152871,0.850849412 L69.9114753,0.850849412 L69.9114753,29.1583553 C69.9114753,32.3707318 70.76524,35.34572 72.4741576,38.0805435 C74.1816871,40.8153671 76.4944871,42.9824024 79.4125576,44.5774847 C82.3320165,46.1739553 85.5096871,46.9721906 88.9455694,46.9721906 C92.38284,46.9721906 95.5591224,46.1739553 98.4785812,44.5774847 C101.395264,42.9824024 103.709452,40.8153671 105.416981,38.0805435 C107.125899,35.34572 107.979664,32.3707318 107.979664,29.1583553 M112.37204,29.1583553 L112.37204,0.850849412 L114.568228,0.850849412 L114.568228,29.1583553 C114.568228,33.5507318 113.420158,37.6238141 111.12124,41.3748259 C108.823711,45.1272259 105.707122,48.0966612 101.772864,50.2817435 C97.8372165,52.4682141 93.5614518,53.5607553 88.9455694,53.5607553 C84.3296871,53.5607553 80.0539224,52.4682141 76.1182753,50.2817435 C72.1840165,48.0966612 69.0674282,45.1272259 66.7698988,41.3748259 C64.4723694,37.6238141 63.3229106,33.5507318 63.3229106,29.1583553 L63.3229106,0.850849412 L65.5190988,0.850849412 L65.5190988,29.1583553 C65.5190988,32.1472259 66.13964,35.01532 67.3807224,37.7598612 C68.6204165,40.5057906 70.2876871,42.8699553 72.3825341,44.8523553 C74.4773812,46.8347553 76.9734282,48.4159553 79.8720635,49.5959553 C82.7679224,50.7745671 85.7942753,51.3645671 88.9455694,51.3645671 C92.0982518,51.3645671 95.1232165,50.7745671 98.0204635,49.5959553 C100.919099,48.4159553 103.415146,46.8347553 105.508605,44.8523553 C107.603452,42.8699553 109.270722,40.5057906 110.511805,37.7598612 C111.751499,35.01532 112.37204,32.1472259 112.37204,29.1583553" id="Fill-6" fill="#31005D"></path>
                        <path d="M15.7373976,99.8499341 L28.51888,99.8499341 C30.3277506,99.8499341 31.8784094,98.8837224 33.1694682,96.9526871 C34.4605271,95.0202635 35.1074447,92.6921929 35.1074447,89.9670871 C35.1074447,87.2211576 34.4605271,84.8889224 33.1694682,82.9662165 C31.8784094,81.0448988 30.3277506,80.08424 28.51888,80.08424 L15.7373976,80.08424 L15.7373976,99.8499341 Z M13.5412094,102.046122 L13.5412094,77.8880518 L28.51888,77.8880518 C30.9385741,77.8880518 33.0181506,79.0722165 34.7562212,81.4405459 C36.49568,83.8102635 37.3647153,86.6519812 37.3647153,89.9670871 C37.3647153,93.3016282 36.49568,96.1488988 34.7562212,98.5075106 C33.0181506,100.866122 30.9385741,102.046122 28.51888,102.046122 L13.5412094,102.046122 Z M11.3450212,104.242311 L28.51888,104.242311 C31.5480094,104.242311 34.1565035,102.844358 36.3415859,100.048452 C38.5280565,97.2525459 39.6219859,93.8916282 39.6219859,89.9670871 C39.6219859,87.3849694 39.1180565,84.9944282 38.1115859,82.79824 C37.1051153,80.6020518 35.7515859,78.8695341 34.0551624,77.5979106 C32.3559624,76.3276753 30.5109976,75.6918635 28.51888,75.6918635 L11.3450212,75.6918635 L11.3450212,104.242311 Z M9.14883294,106.438499 L9.14883294,73.4956753 L28.51888,73.4956753 C30.8969271,73.4956753 33.1139388,74.2272753 35.1685271,75.6918635 C37.2217271,77.1550635 38.8529035,79.1541224 40.0634447,81.6848753 C41.2739859,84.2170165 41.8792565,86.9782165 41.8792565,89.9670871 C41.8792565,92.9365224 41.2739859,95.6907812 40.0634447,98.23264 C38.8529035,100.775887 37.2217271,102.777722 35.1685271,104.242311 C33.1139388,105.706899 30.8969271,106.438499 28.51888,106.438499 L9.14883294,106.438499 Z M6.95264471,108.634687 L28.51888,108.634687 C31.30368,108.634687 33.8913506,107.801746 36.2805035,106.133087 C38.6710447,104.465816 40.5770918,102.198828 42.0000329,99.3307341 C43.4243624,96.4640282 44.1365271,93.3432753 44.1365271,89.9670871 C44.1365271,86.6117224 43.4243624,83.4951341 42.0000329,80.6173224 C40.5770918,77.7408988 38.6654918,75.4683576 36.2666212,73.7996988 C33.8663624,72.1324282 31.2842447,71.2994871 28.51888,71.2994871 L6.95264471,71.2994871 L6.95264471,108.634687 Z M4.75645647,110.830875 L4.75645647,69.1032988 L28.51888,69.1032988 C31.6909976,69.1032988 34.6493271,70.0320282 37.3952565,71.8936518 C40.1397976,73.7538871 42.3262682,76.2915812 43.95328,79.5039576 C45.5802918,82.7177224 46.3937976,86.2049694 46.3937976,89.9670871 C46.3937976,93.7292047 45.5802918,97.2164518 43.95328,100.428828 C42.3262682,103.642593 40.1397976,106.180287 37.3952565,108.039134 C34.6493271,109.900758 31.6909976,110.830875 28.51888,110.830875 L4.75645647,110.830875 Z M2.56026824,113.027064 L28.51888,113.027064 C31.1815153,113.027064 33.7553035,112.417628 36.23608,111.197369 C38.7168565,109.977111 40.86168,108.340381 42.6719388,106.285793 C44.4821976,104.232593 45.9301271,101.776805 47.0185035,98.9198165 C48.1054918,96.0628282 48.64968,93.0781224 48.64968,89.9670871 C48.64968,86.8560518 48.1054918,83.8768988 47.0185035,81.0296282 C45.9301271,78.1823576 44.4821976,75.7279576 42.6719388,73.6636518 C40.86168,71.5993459 38.7168565,69.9570635 36.23608,68.7368047 C33.7553035,67.5165459 31.1815153,66.9071106 28.51888,66.9071106 L2.56026824,66.9071106 L2.56026824,113.027064 Z M28.51888,115.223252 L0.36408,115.223252 L0.36408,64.7109224 L28.51888,64.7109224 C32.48368,64.7109224 36.1847153,65.8381694 39.6219859,68.09544 C43.0578682,70.3527106 45.7982447,73.4234871 47.8417271,77.3077694 C49.8852094,81.1920518 50.9069506,85.4122871 50.9069506,89.9670871 C50.9069506,93.3835341 50.30168,96.6528282 49.0925271,99.7735812 C47.8819859,102.895722 46.2716329,105.584734 44.2573035,107.842005 C42.2443624,110.099275 39.8593741,111.894264 37.1051153,113.225581 C34.3494682,114.558287 31.4869271,115.223252 28.51888,115.223252 L28.51888,115.223252 Z" id="Fill-8" fill="#31005D"></path>
                        <path d="M80.3669694,81.4259694 C78.0083576,83.7845812 76.8283576,86.6318518 76.8283576,89.9663929 C76.8283576,93.3023224 78.0083576,96.1482047 80.3669694,98.5082047 C82.7255812,100.866816 85.5728518,102.046816 88.9073929,102.046816 C92.2433224,102.046816 95.0892047,100.866816 97.4492047,98.5082047 C99.8078165,96.1482047 100.987816,93.3023224 100.987816,89.9663929 C100.987816,86.6318518 99.8078165,83.7845812 97.4492047,81.4259694 C95.0892047,79.0673576 92.2433224,77.8873576 88.9073929,77.8873576 C85.5728518,77.8873576 82.7255812,79.0673576 80.3669694,81.4259694 M75.7608047,95.5040635 C75.0083812,93.7451694 74.6321694,91.8988165 74.6321694,89.9663929 C74.6321694,88.0353576 75.0083812,86.1903929 75.7608047,84.4301106 C76.5132282,82.6712165 77.5308047,81.1510988 78.8107576,79.8697576 C80.0920988,78.5898047 81.6122165,77.5722282 83.3711106,76.8198047 C85.1300047,76.0673812 86.9763576,75.6911694 88.9073929,75.6911694 C90.8398165,75.6911694 92.6847812,76.0673812 94.4450635,76.8198047 C96.2025694,77.5722282 97.7226871,78.5898047 99.0040282,79.8697576 C100.285369,81.1510988 101.302946,82.6712165 102.055369,84.4301106 C102.807793,86.1903929 103.184005,88.0353576 103.184005,89.9663929 C103.184005,91.8988165 102.807793,93.7451694 102.055369,95.5040635 C101.302946,97.2629576 100.285369,98.7816871 99.0040282,100.063028 C97.7226871,101.344369 96.2025694,102.361946 94.4450635,103.114369 C92.6847812,103.866793 90.8398165,104.243005 88.9073929,104.243005 C86.9763576,104.243005 85.1300047,103.866793 83.3711106,103.114369 C81.6122165,102.361946 80.0920988,101.344369 78.8107576,100.063028 C77.5308047,98.7816871 76.5132282,97.2629576 75.7608047,95.5040635 M74.64744,81.70084 C73.1731341,84.2218753 72.4359812,86.9775224 72.4359812,89.9663929 C72.4359812,92.9566518 73.1731341,95.7122988 74.64744,98.2333341 C76.1217459,100.754369 78.1194165,102.753428 80.64184,104.227734 C83.1628753,105.70204 85.9185224,106.439193 88.9073929,106.439193 C91.8976518,106.439193 94.6532988,105.70204 97.1743341,104.227734 C99.6953694,102.753428 101.69304,100.754369 103.168734,98.2333341 C104.641652,95.7122988 105.380193,92.9566518 105.380193,89.9663929 C105.380193,86.9775224 104.641652,84.2218753 103.168734,81.70084 C101.69304,79.1784165 99.6953694,77.1807459 97.1743341,75.70644 C94.6532988,74.2321341 91.8976518,73.4949812 88.9073929,73.4949812 C85.9185224,73.4949812 83.1628753,74.2321341 80.64184,75.70644 C78.1194165,77.1807459 76.1217459,79.1784165 74.64744,81.70084 M72.7413929,99.3314282 C71.0741224,96.4647224 70.2397929,93.3425812 70.2397929,89.9663929 C70.2397929,86.5915929 71.0741224,83.4694518 72.7413929,80.6027459 C74.4086635,77.7346518 76.6756518,75.4676635 79.5437459,73.8003929 C82.4104518,72.1331224 85.5325929,71.2987929 88.9073929,71.2987929 C92.2835812,71.2987929 95.4057224,72.1331224 98.2724282,73.8003929 C101.139134,75.4676635 103.407511,77.7346518 105.074781,80.6027459 C106.742052,83.4694518 107.576381,86.5915929 107.576381,89.9663929 C107.576381,93.3425812 106.742052,96.4647224 105.074781,99.3314282 C103.407511,102.198134 101.139134,104.466511 98.2724282,106.133781 C95.4057224,107.801052 92.2835812,108.635381 88.9073929,108.635381 C85.5325929,108.635381 82.4104518,107.801052 79.5437459,106.133781 C76.6756518,104.466511 74.4086635,102.198134 72.7413929,99.3314282 M69.69144,81.8535459 C68.5933459,84.4356635 68.0436047,87.1399459 68.0436047,89.9663929 C68.0436047,92.79284 68.5933459,95.4985106 69.69144,98.0806282 C70.7895341,100.662746 72.2680047,102.885311 74.1296282,104.745546 C75.9898635,106.607169 78.21104,108.08564 80.7945459,109.183734 C83.3766635,110.281828 86.0809459,110.831569 88.9073929,110.831569 C91.73384,110.831569 94.4395106,110.281828 97.0216282,109.183734 C99.6037459,108.08564 101.826311,106.607169 103.686546,104.745546 C105.548169,102.885311 107.02664,100.662746 108.124734,98.0806282 C109.222828,95.4985106 109.772569,92.79284 109.772569,89.9663929 C109.772569,87.1399459 109.222828,84.4356635 108.124734,81.8535459 C107.02664,79.27004 105.548169,77.0488635 103.686546,75.1886282 C101.826311,73.3270047 99.6037459,71.8485341 97.0216282,70.75044 C94.4395106,69.6523459 91.73384,69.1026047 88.9073929,69.1026047 C86.0809459,69.1026047 83.3766635,69.6523459 80.7945459,70.75044 C78.21104,71.8485341 75.9898635,73.3270047 74.1296282,75.1886282 C72.2680047,77.0488635 70.7895341,79.27004 69.69144,81.8535459 M68.9431812,101.527616 C66.8788753,97.9890047 65.8474165,94.1352635 65.8474165,89.9663929 C65.8474165,85.7975224 66.8788753,81.9451694 68.9431812,78.4065576 C71.0074871,74.8679459 73.8089459,72.0664871 77.3475576,70.0021812 C80.8861694,67.9392635 84.7385224,66.9064165 88.9073929,66.9064165 C93.0762635,66.9064165 96.9300047,67.9392635 100.468616,70.0021812 C104.007228,72.0664871 106.807299,74.8679459 108.871605,78.4065576 C110.935911,81.9451694 111.968758,85.7975224 111.968758,89.9663929 C111.968758,94.1352635 110.935911,97.9890047 108.871605,101.527616 C106.807299,105.066228 104.007228,107.867687 100.468616,109.930605 C96.9300047,111.996299 93.0762635,113.027758 88.9073929,113.027758 C84.7385224,113.027758 80.8861694,111.996299 77.3475576,109.930605 C73.8089459,107.867687 71.0074871,105.066228 68.9431812,101.527616 M65.6488988,80.1598988 C64.3161929,83.28204 63.6512282,86.5499459 63.6512282,89.9663929 C63.6512282,93.38284 64.3161929,96.6521341 65.6488988,99.7742753 C66.9802165,102.895028 68.7752047,105.58404 71.0324753,107.841311 C73.2897459,110.098581 75.9787576,111.893569 79.1008988,113.224887 C82.2216518,114.557593 85.4909459,115.223946 88.9073929,115.223946 C92.32384,115.223946 95.5931341,114.557593 98.7152753,113.224887 C101.836028,111.893569 104.52504,110.098581 106.782311,107.841311 C109.039581,105.58404 110.834569,102.895028 112.165887,99.7742753 C113.498593,96.6521341 114.164946,93.38284 114.164946,89.9663929 C114.164946,86.5499459 113.498593,83.28204 112.165887,80.1598988 C110.834569,77.0391459 109.039581,74.3487459 106.782311,72.0914753 C104.52504,69.8342047 101.836028,68.0406047 98.7152753,66.7078988 C95.5931341,65.3765812 92.32384,64.7102282 88.9073929,64.7102282 C85.4909459,64.7102282 82.2216518,65.3765812 79.1008988,66.7078988 C75.9787576,68.0406047 73.2897459,69.8342047 71.0324753,72.0914753 C68.7752047,74.3487459 66.9802165,77.0391459 65.6488988,80.1598988 M63.6359576,100.62804 C62.1810871,97.2421341 61.45504,93.6882518 61.45504,89.9663929 C61.45504,86.2459224 62.1810871,82.69204 63.6359576,79.3061341 C65.08944,75.9202282 67.0412988,73.0021576 69.4929224,70.5519224 C71.9431576,68.1016871 74.8612282,66.1498282 78.2471341,64.6949576 C81.63304,63.2414753 85.1869224,62.51404 88.9073929,62.51404 C92.6292518,62.51404 96.1831341,63.2414753 99.56904,64.6949576 C102.954946,66.1498282 105.873016,68.1016871 108.323252,70.5519224 C110.773487,73.0021576 112.725346,75.9202282 114.178828,79.3061341 C115.633699,82.69204 116.361134,86.2459224 116.361134,89.9663929 C116.361134,93.6882518 115.633699,97.2421341 114.178828,100.62804 C112.725346,104.013946 110.773487,106.932016 108.323252,109.382252 C105.873016,111.832487 102.954946,113.785734 99.56904,115.237828 C96.1831341,116.692699 92.6292518,117.420134 88.9073929,117.420134 C85.1869224,117.420134 81.63304,116.692699 78.2471341,115.237828 C74.8612282,113.785734 71.9431576,111.832487 69.4929224,109.382252 C67.0412988,106.932016 65.08944,104.013946 63.6359576,100.62804" id="Fill-10" fill="#FFFFFF"></path>
                        <path d="M33.5789099,25.5007008 L46.5470253,0.00140159947 L49,0.00140159947 L36.0318846,25.5007008 L49,51 L46.5470253,51 L33.5789099,25.5007008 Z M28.6422634,25.5007008 L41.6117741,0.00140159947 L44.0647488,0.00140159947 L31.0952381,25.5007008 L44.0647488,51 L41.6117741,51 L28.6422634,25.5007008 Z M23.7070122,25.5007008 L36.6751277,0.00140159947 L39.1281024,0.00140159947 L26.1599869,25.5007008 L39.1281024,51 L36.6751277,51 L23.7070122,25.5007008 Z M18.7396687,25.5007008 L31.7398765,0.00140159947 L34.1914559,0.00140159947 L21.1926434,25.5007008 L34.1914559,51 L31.7398765,51 L18.7396687,25.5007008 Z M15.244389,51 L17.4517872,51 L17.4517872,0 L15.244389,0 L15.244389,51 Z M10.8295927,51 L13.0369909,51 L13.0369909,0 L10.8295927,0 L10.8295927,51 Z M6.41479634,51 L8.62219451,51 L8.62219451,0 L6.41479634,0 L6.41479634,51 Z M2,51 L4.20739817,51 L4.20739817,0 L2,0 L2,51 Z" id="Fill-5" fill="#FFFFFF"></path>
                    </g>
                </g>
            </g>
        </g>
    </g>
</svg>