<?xml version="1.0" encoding="UTF-8" standalone="no"?>
<!-- Created with Inkscape (http://www.inkscape.org/) -->

<svg
   version="1.1"
   id="svg2"
   width="1781.72"
   height="506.33334"
   viewBox="0 0 1781.72 506.33334"
   sodipodi:docname="Kusari_CMYK_Logo_Horiz_Color.eps"
   xmlns:inkscape="http://www.inkscape.org/namespaces/inkscape"
   xmlns:sodipodi="http://sodipodi.sourceforge.net/DTD/sodipodi-0.dtd"
   xmlns="http://www.w3.org/2000/svg"
   xmlns:svg="http://www.w3.org/2000/svg">
  <defs
     id="defs6" />
  <sodipodi:namedview
     id="namedview4"
     pagecolor="#ffffff"
     bordercolor="#000000"
     borderopacity="0.25"
     inkscape:showpageshadow="2"
     inkscape:pageopacity="0.0"
     inkscape:pagecheckerboard="0"
     inkscape:deskcolor="#d1d1d1" />
  <g
     id="g8"
     inkscape:groupmode="layer"
     inkscape:label="ink_ext_XXXXXX"
     transform="matrix(1.3333333,0,0,-1.3333333,0,506.33333)">
    <g
       id="g10"
       transform="scale(0.1)">
      <path
         d="m 13063.3,2532.01 c 147.6,0 267.3,119.65 267.3,267.24 0,147.59 -119.7,267.23 -267.3,267.23 -147.6,0 -267.2,-119.64 -267.2,-267.23 0,-147.59 119.6,-267.24 267.2,-267.24"
         style="fill:#141111;fill-opacity:1;fill-rule:nonzero;stroke:none"
         id="path12" />
      <path
         d="M 4604.5,1225.33 V 768.109 H 4196.79 V 3066.48 H 4604.5 V 1781.41 l 522.06,577.7 h 562.22 L 5095.6,1738.19 5722.66,768.109 h -519 l -395.44,670.431 -203.86,-213.21 h 0.14"
         style="fill:#141111;fill-opacity:1;fill-rule:nonzero;stroke:none"
         id="path14" />
      <path
         d="m 7282.87,768.141 h -389.32 v 145.148 c -98.86,-114.34 -237.89,-182.238 -404.65,-182.238 -376.9,0 -627.06,281.119 -627.06,698.169 v 929.93 h 407.73 v -929.93 c 0,-89.66 30.96,-312.06 296.58,-312.06 182.24,0 308.86,135.95 308.86,312.06 v 929.93 h 407.72 V 768.141 h 0.14"
         style="fill:#141111;fill-opacity:1;fill-rule:nonzero;stroke:none"
         id="path16" />
      <path
         d="m 8299.06,731.031 c -404.65,0 -704.3,213.199 -753.81,556.079 h 414.01 c 55.62,-135.96 219.33,-185.31 339.8,-185.31 163.7,0 287.24,49.35 287.24,142.08 0,92.73 -55.64,126.61 -333.68,169.98 -284.18,43.23 -664.14,120.48 -664.14,475.76 0,250.31 219.33,509.8 679.62,509.8 364.49,0 636.41,-197.72 688.98,-497.38 h -423.2 c -24.68,74.18 -114.34,132.9 -265.64,132.9 -188.37,0 -265.62,-67.92 -265.62,-126.62 0,-83.38 117.41,-111.28 315.13,-142.09 395.46,-64.83 679.63,-151.43 679.63,-497.38 0,-315.131 -290.46,-537.53 -698.18,-537.53 l -0.14,-0.289"
         style="fill:#141111;fill-opacity:1;fill-rule:nonzero;stroke:none"
         id="path18" />
      <path
         d="m 10004.3,2016.28 c -225.49,0 -407.73,-197.74 -407.73,-457.23 0,-259.49 182.24,-447.88 407.73,-447.88 225.5,0 407.7,200.8 407.7,447.88 0,247.09 -182.2,457.23 -407.7,457.23 z m 815.6,-1248.132 h -389.3 V 938.129 C 10307,808.461 10137,734.27 9942.52,734.27 c -414,0 -756.88,358.37 -756.88,827.85 0,469.49 342.88,831.06 756.88,831.06 194.68,0 364.48,-74.18 488.08,-203.86 v 169.98 h 389.3 V 768.301 768.148"
         style="fill:#141111;fill-opacity:1;fill-rule:nonzero;stroke:none"
         id="path20" />
      <path
         d="m 12617.8,1617.59 h -407.7 v 80.32 c 0,92.73 -27.8,315.14 -296.6,315.14 -182.3,0 -308.9,-135.97 -308.9,-315.14 V 767.98 h -407.7 v 1591.01 h 389.3 v -154.5 c 101.9,120.47 241,194.66 410.9,194.66 373.9,0 621,-281.11 621,-701.24 v -80.32 h -0.3"
         style="fill:#141111;fill-opacity:1;fill-rule:nonzero;stroke:none"
         id="path22" />
      <path
         d="m 13278.9,768.141 h -407.8 V 2359.15 h 407.8 V 768.141"
         style="fill:#141111;fill-opacity:1;fill-rule:nonzero;stroke:none"
         id="path24" />
      <path
         d="m 227.961,3338.92 c 0,233.08 188.945,422.03 422.027,422.03 233.078,0 422.022,-188.95 422.022,-422.03 0,-233.08 -188.944,-422.03 -422.022,-422.03 -233.082,0 -422.027,188.95 -422.027,422.03"
         style="fill:#693ea1;fill-opacity:1;fill-rule:nonzero;stroke:none"
         id="path26" />
      <path
         d="m 110.551,576 c 0,297.922 241.515,539.44 539.437,539.44 C 947.91,1115.44 1189.43,873.922 1189.43,576 1189.43,278.082 947.91,36.5586 649.988,36.5586 352.066,36.5586 110.551,278.082 110.551,576"
         style="fill:#693ea1;fill-opacity:1;fill-rule:nonzero;stroke:none"
         id="path28" />
      <path
         d="m 1653.93,1896.02 c 0,173.64 140.76,314.41 314.41,314.41 173.64,0 314.4,-140.77 314.4,-314.41 0,-173.64 -140.76,-314.41 -314.4,-314.41 -173.65,0 -314.41,140.77 -314.41,314.41"
         style="fill:#693ea1;fill-opacity:1;fill-rule:evenodd;stroke:none"
         id="path30" />
      <path
         d="m 2413.52,1439.58 c -94.84,0 -185.24,-18.93 -267.77,-53.04 0.12,0.09 0.13,0.12 -0.11,0.04 -55.45,-19.25 -115.23,-29.72 -177.24,-29.72 -297.92,0 -539.44,241.52 -539.44,539.44 0,17.9 0.72,35.61 2.42,53.07 h -0.04 c 0.39,3.67 0.66,7.37 0.99,11.06 1.41,12.82 3.19,26.39 5.52,40.13 9.64,56.72 25.46,98.42 34.68,120.27 85.47,187.67 277.24,318.4 496.37,318.4 62.08,0 121.64,-10.62 177.15,-29.92 l 24.12,-8.04 c 75.77,-28 157.67,-43.34 243.16,-43.34 387.44,0 701.51,314.08 701.51,701.51 0,387.43 -314.07,701.51 -701.51,701.51 -348.22,0 -637.03,-253.77 -691.95,-586.44 -0.83,-5.31 -1.77,-11.62 -3.09,-18.14 -19.43,-94.16 -22.49,-136.88 -36.71,-179.8 -79.12,-198.67 -274.18,-336.6 -502.04,-336.6 -39.89,0 -78.73,4.4 -116.14,12.65 -9.52,2.22 -19.68,4.7 -26.04,6.62 -10.28,3.11 -20.68,7.18 -28.8,10.49 -1.88,0.8 -3.79,1.55 -5.69,2.34 -1.71,0.71 -3.304,1.37 -4.593,1.89 -0.023,-0.01 -0.035,-0.04 -0.058,-0.06 -81.614,33.24 -170.821,51.71 -264.383,51.71 -387.434,0 -701.5118,-314.08 -701.5118,-701.51 0,-387.43 314.0778,-701.51 701.5118,-701.51 87.195,0 170.613,15.91 247.633,44.99 v 0 c 61.121,24.03 127.611,37.38 197.271,37.38 297.92,0 539.43,-241.51 539.43,-539.44 0,-17.86 -0.83,-35.622 -1.65,-48.758 -0.8,-7.172 -1.42,-14.391 -2,-21.621 v 0 0 c -1.52,-18.84 -2.51,-37.832 -2.51,-57.071 0,-387.429 314.08,-701.5114 701.51,-701.5114 387.44,0 701.51,314.0824 701.51,701.5114 0,387.43 -314.07,701.51 -701.51,701.51"
         style="fill:#693ea1;fill-opacity:1;fill-rule:evenodd;stroke:none"
         id="path32" />
    </g>
  </g>
</svg>
