<?xml version="1.0" encoding="UTF-8"?>
<svg width="300px" height="88px" viewBox="0 0 300 88" version="1.1" xmlns="http://www.w3.org/2000/svg" xmlns:xlink="http://www.w3.org/1999/xlink">
    <!-- Generator: Sketch 61.2 (89653) - https://sketch.com -->
    <title>Primary Colour Logo KUSARI</title>
    <desc>Created with Sketch.</desc>
    <g id="Primary-Colour-Logo-KUSARI" stroke="none" stroke-width="1" fill="none" fill-rule="evenodd">
        <g id="Group-71-Copy-5" transform="translate(6.000000, 1.000000)">
            <path d="M62.0538133,19.2964067 C61.84888,19.2964067 61.6381467,19.2442067 61.4506133,19.13014 L36.10848,4.07334 C35.54588,3.73694 35.3583467,3.00807333 35.6947467,2.44354 C36.0292133,1.87900667 36.75808,1.69534 37.3226133,2.02980667 L62.66088,17.0866067 C63.2254133,17.4210733 63.4110133,18.14994 63.0765467,18.7144733 C62.8542133,19.08954 62.4598133,19.2964067 62.0538133,19.2964067" id="Fill-1" fill="#057977"></path>
            <path d="M14.43794,18.6847 C14.0300067,18.6847 13.6356067,18.4759 13.4132733,18.0989 C13.08074,17.5343667 13.2682733,16.8055 13.83474,16.4729667 L26.1964733,9.18043333 C26.5676733,8.96196667 27.0374733,8.96196667 27.41254,9.18623333 L37.9298733,15.4947 L48.13014,9.19396667 C48.6888733,8.8479 49.4196733,9.0219 49.7638067,9.58063333 C50.10794,10.1374333 49.9358733,10.8701667 49.37714,11.2143 L38.5640067,17.8959 C38.1850733,18.1279 37.7114067,18.1317667 37.3286067,17.9036333 L26.7958067,11.5855 L15.04114,18.5203667 C14.8516733,18.6325 14.6428733,18.6847 14.43794,18.6847" id="Fill-3" fill="#057977"></path>
            <path d="M59.6069867,31.0493333 C59.39432,31.0493333 59.1758533,30.9913333 58.98252,30.8695333 L48.7416533,24.5185333 L38.0580533,30.8811333 C37.6752533,31.1092667 37.1996533,31.1034667 36.82072,30.8676 L25.0679867,23.5228667 C24.51312,23.1748667 24.3429867,22.4421333 24.6909867,21.8853333 C25.0370533,21.3304667 25.7697867,21.1603333 26.32852,21.5064 L37.4664533,28.4683333 L48.1442533,22.1076667 C48.5289867,21.8795333 49.0045867,21.8834 49.3796533,22.1192667 L60.2333867,28.8511333 C60.7901867,29.1972 60.9622533,29.9299333 60.6161867,30.4867333 C60.39192,30.8482667 60.0052533,31.0493333 59.6069867,31.0493333" id="Fill-5" fill="#057977"></path>
            <path d="M48.7546067,37.7819733 C48.35054,37.7819733 47.9580733,37.57704 47.73574,37.2039067 C47.3974067,36.6413067 47.5810733,35.91244 48.1436733,35.5741067 L71.6046733,21.4955733 C72.1672733,21.15724 72.89614,21.3409067 73.2344733,21.9035067 C73.5728067,22.4661067 73.3910733,23.1969067 72.82654,23.5333067 L49.3636067,37.61184 C49.17414,37.72784 48.9614733,37.7819733 48.7546067,37.7819733" id="Fill-7" fill="#057977"></path>
            <path d="M28.14508,38.39368 C27.94208,38.39368 27.7352133,38.34148 27.5457467,38.23128 L2.45108,23.53988 C1.88461333,23.20928 1.69321333,22.4823467 2.02381333,21.91588 C2.35634667,21.3494133 3.08521333,21.1580133 3.64974667,21.4905467 L28.74828,36.1800133 C29.3128133,36.5106133 29.50228,37.2375467 29.17168,37.8059467 C28.95128,38.18488 28.5549467,38.39368 28.14508,38.39368" id="Fill-9" fill="#057977"></path>
            <path d="M26.6780667,65.0808333 C26.0207333,65.0808333 25.4890667,64.5491667 25.4890667,63.8937667 L25.4890667,50.2444333 L14.993,44.0036333 C14.6314667,43.7890333 14.4110667,43.4004333 14.4110667,42.9809 L14.4110667,29.8593667 C14.4110667,29.2039667 14.9427333,28.6723 15.6000667,28.6723 C16.2554667,28.6723 16.7871333,29.2039667 16.7871333,29.8593667 L16.7871333,42.3081 L27.2832,48.5469667 C27.6447333,48.7635 27.8651333,49.1501667 27.8651333,49.5697 L27.8651333,63.8937667 C27.8651333,64.5491667 27.3334667,65.0808333 26.6780667,65.0808333" id="Fill-11" fill="#057977"></path>
            <path d="M28.14508,77.32096 C27.9498133,77.32096 27.7526133,77.27456 27.5689467,77.1720933 L15.0216133,70.19276 C14.6446133,69.98396 14.41068,69.5876267 14.41068,69.15456 L14.41068,56.6536267 L3.35781333,50.8652267 C2.77588,50.5616933 2.55161333,49.8444267 2.85514667,49.2624933 C3.15868,48.6824933 3.87594667,48.4562933 4.45981333,48.76176 L16.15068,54.8826933 C16.5412133,55.0876267 16.7867467,55.4936267 16.7867467,55.9344267 L16.7867467,68.4566267 L28.72508,75.0956933 C29.29928,75.4146933 29.5042133,76.13776 29.1852133,76.71196 C28.96868,77.1024933 28.5646133,77.32096 28.14508,77.32096" id="Fill-13" fill="#057977"></path>
            <path d="M3.60257333,65.69254 L3.57744,65.69254 C2.92010667,65.6790067 2.40004,65.13574 2.41357333,64.4784067 L3.02644,35.0994733 C3.03997333,34.4440733 3.56777333,33.9414067 4.23864,33.9356067 C4.89597333,33.94914 5.41604,34.4924067 5.40250667,35.1478067 L4.78964,64.5286733 C4.77417333,65.17634 4.24637333,65.69254 3.60257333,65.69254" id="Fill-15" fill="#057977"></path>
            <path d="M60.4849133,69.8538467 C59.82758,69.8538467 59.2978467,69.3241133 59.2978467,68.66678 L59.2978467,56.05758 C59.2978467,55.6303133 59.5279133,55.23398 59.89718,55.0232467 L70.2927133,49.1227133 L70.2927133,35.1234467 C70.2927133,34.4680467 70.8263133,33.93638 71.4817133,33.93638 C72.1371133,33.93638 72.6707133,34.4680467 72.6707133,35.1234467 L72.6707133,49.8148467 C72.6707133,50.24018 72.4406467,50.6365133 72.0694467,50.8472467 L61.67198,56.7497133 L61.67198,68.66678 C61.67198,69.3241133 61.1422467,69.8538467 60.4849133,69.8538467" id="Fill-17" fill="#057977"></path>
            <path d="M48.7546067,77.32096 C48.3524733,77.32096 47.9600067,77.1198933 47.7376733,76.7486933 C47.3974067,76.1880267 47.5772067,75.4572267 48.1398067,75.11696 L71.6008067,60.91856 C72.1614733,60.57636 72.8922733,60.75616 73.23254,61.31876 C73.5728067,61.8794267 73.3930067,62.6102267 72.8304067,62.94856 L49.3674733,77.1488933 C49.1760733,77.2668267 48.9634067,77.32096 48.7546067,77.32096" id="Fill-19" fill="#057977"></path>
            <path d="M38.3082267,69.8538467 C37.9060933,69.8538467 37.51556,69.65278 37.2912933,69.2835133 C36.9510267,68.7228467 37.1288933,67.9920467 37.68956,67.6498467 L48.1972267,61.26598 L48.1972267,49.8148467 C48.1972267,49.40498 48.40796,49.0260467 48.7520933,48.80758 L61.42316,40.8519133 C61.9818933,40.5000467 62.7126933,40.6682467 63.0626267,41.2250467 C63.4106267,41.7799133 63.2424267,42.51458 62.68756,42.86258 L50.5752267,50.47218 L50.5752267,61.93298 C50.5752267,62.3486467 50.35676,62.73338 50.00296,62.9499133 L38.9230267,69.68178 C38.7316267,69.7997133 38.5170267,69.8538467 38.3082267,69.8538467" id="Fill-21" fill="#057977"></path>
            <path d="M38.3062933,84.4217067 C37.64896,84.4217067 37.1192267,83.89004 37.1192267,83.23464 L37.1192267,54.58844 C37.1192267,53.9311067 37.64896,53.39944 38.3062933,53.39944 C38.9636267,53.39944 39.49336,53.9311067 39.49336,54.58844 L39.49336,83.23464 C39.49336,83.89004 38.9636267,84.4217067 38.3062933,84.4217067" id="Fill-23" fill="#057977"></path>
            <path d="M33.66378,3.05176667 C33.66378,4.7357 35.0306467,6.10256667 36.71458,6.10256667 C38.4004467,6.10256667 39.7673133,4.7357 39.7673133,3.05176667 C39.7673133,1.3659 38.4004467,0.000966666667 36.71458,0.000966666667 C35.0306467,0.000966666667 33.66378,1.3659 33.66378,3.05176667" id="Fill-25" fill="#057977"></path>
            <path d="M59.0047533,18.10876 C59.0047533,19.7926933 60.37162,21.15956 62.0555533,21.15956 C63.74142,21.15956 65.1063533,19.7926933 65.1063533,18.10876 C65.1063533,16.4228933 63.74142,15.05796 62.0555533,15.05796 C60.37162,15.05796 59.0047533,16.4228933 59.0047533,18.10876" id="Fill-27" fill="#057977"></path>
            <path d="M0.000386666667,22.5154067 C0.000386666667,24.19934 1.36532,25.5662067 3.05118667,25.5662067 C4.73512,25.5662067 6.10198667,24.19934 6.10198667,22.5154067 C6.10198667,20.82954 4.73512,19.4646067 3.05118667,19.4646067 C1.36532,19.4646067 0.000386666667,20.82954 0.000386666667,22.5154067" id="Fill-29" fill="#057977"></path>
            <path d="M1.16328667,35.12364 C1.16328667,36.8095067 2.52822,38.17444 4.21408667,38.17444 C5.89802,38.17444 7.26488667,36.8095067 7.26488667,35.12364 C7.26488667,33.4397067 5.89802,32.07284 4.21408667,32.07284 C2.52822,32.07284 1.16328667,33.4397067 1.16328667,35.12364" id="Fill-31" fill="#057977"></path>
            <path d="M0.55158,64.9845533 C0.55158,66.67042 1.91651333,68.0353533 3.60238,68.0353533 C5.28631333,68.0353533 6.65318,66.67042 6.65318,64.9845533 C6.65318,63.2986867 5.28631333,61.9337533 3.60238,61.9337533 C1.91651333,61.9337533 0.55158,63.2986867 0.55158,64.9845533" id="Fill-33" fill="#057977"></path>
            <path d="M25.0958267,76.25608 C25.0958267,77.9419467 26.46076,79.30688 28.1466267,79.30688 C29.83056,79.30688 31.1974267,77.9419467 31.1974267,76.25608 C31.1974267,74.5721467 29.83056,73.20528 28.1466267,73.20528 C26.46076,73.20528 25.0958267,74.5721467 25.0958267,76.25608" id="Fill-35" fill="#057977"></path>
            <path d="M59.0047533,41.5467533 C59.0047533,43.2306867 60.37162,44.5975533 62.0555533,44.5975533 C63.74142,44.5975533 65.1063533,43.2306867 65.1063533,41.5467533 C65.1063533,39.8608867 63.74142,38.4959533 62.0555533,38.4959533 C60.37162,38.4959533 59.0047533,39.8608867 59.0047533,41.5467533" id="Fill-37" fill="#057977"></path>
            <path d="M35.2553,54.5892133 C35.2553,56.2731467 36.6221667,57.6400133 38.3061,57.6400133 C39.9919667,57.6400133 41.3569,56.2731467 41.3569,54.5892133 C41.3569,52.9033467 39.9919667,51.5384133 38.3061,51.5384133 C36.6221667,51.5384133 35.2553,52.9033467 35.2553,54.5892133" id="Fill-39" fill="#057977"></path>
            <path d="M35.2553,83.2342533 C35.2553,84.9181867 36.6221667,86.2850533 38.3061,86.2850533 C39.9919667,86.2850533 41.3569,84.9181867 41.3569,83.2342533 C41.3569,81.5483867 39.9919667,80.1834533 38.3061,80.1834533 C36.6221667,80.1834533 35.2553,81.5483867 35.2553,83.2342533" id="Fill-41" fill="#057977"></path>
            <path d="M68.4316867,34.15504 C68.4316867,35.8389733 69.79662,37.20584 71.4824867,37.20584 C73.16642,37.20584 74.5332867,35.8389733 74.5332867,34.15504 C74.5332867,32.4691733 73.16642,31.1023067 71.4824867,31.1023067 C69.79662,31.1023067 68.4316867,32.4691733 68.4316867,34.15504" id="Fill-43" fill="#057977"></path>
            <path d="M69.1659667,61.93356 C69.1659667,63.6174933 70.5309,64.98436 72.2167667,64.98436 C73.9007,64.98436 75.2675667,63.6174933 75.2675667,61.93356 C75.2675667,60.2476933 73.9007,58.88276 72.2167667,58.88276 C70.5309,58.88276 69.1659667,60.2476933 69.1659667,61.93356" id="Fill-45" fill="#057977"></path>
            <path d="M45.70168,76.1333133 C45.70168,77.81918 47.0685467,79.1841133 48.7544133,79.1841133 C50.4383467,79.1841133 51.8052133,77.81918 51.8052133,76.1333133 C51.8052133,74.44938 50.4383467,73.0825133 48.7544133,73.0825133 C47.0685467,73.0825133 45.70168,74.44938 45.70168,76.1333133" id="Fill-47" fill="#057977"></path>
            <path d="M23.6270733,63.8914467 C23.6270733,65.5773133 24.9920067,66.9422467 26.6778733,66.9422467 C28.3618067,66.9422467 29.7286733,65.5773133 29.7286733,63.8914467 C29.7286733,62.2075133 28.3618067,60.8406467 26.6778733,60.8406467 C24.9920067,60.8406467 23.6270733,62.2075133 23.6270733,63.8914467" id="Fill-49" fill="#057977"></path>
            <path d="M25.0958267,37.2060333 C25.0958267,38.8899667 26.46076,40.2568333 28.1466267,40.2568333 C29.83056,40.2568333 31.1974267,38.8899667 31.1974267,37.2060333 C31.1974267,35.5201667 29.83056,34.1552333 28.1466267,34.1552333 C26.46076,34.1552333 25.0958267,35.5201667 25.0958267,37.2060333" id="Fill-51" fill="#057977"></path>
            <path d="M69.1659667,22.5154067 C69.1659667,24.19934 70.5309,25.5662067 72.2167667,25.5662067 C73.9007,25.5662067 75.2675667,24.19934 75.2675667,22.5154067 C75.2675667,20.82954 73.9007,19.4646067 72.2167667,19.4646067 C70.5309,19.4646067 69.1659667,20.82954 69.1659667,22.5154067" id="Fill-53" fill="#057977"></path>
            <path d="M22.6470667,22.5154067 C22.6470667,24.19934 24.012,25.5662067 25.6978667,25.5662067 C27.3837333,25.5662067 28.7486667,24.19934 28.7486667,22.5154067 C28.7486667,20.82954 27.3837333,19.4646067 25.6978667,19.4646067 C24.012,19.4646067 22.6470667,20.82954 22.6470667,22.5154067" id="Fill-55" fill="#057977"></path>
            <path d="M45.70168,36.5925867 C45.70168,38.2784533 47.0685467,39.6433867 48.7544133,39.6433867 C50.4383467,39.6433867 51.8052133,38.2784533 51.8052133,36.5925867 C51.8052133,34.9086533 50.4383467,33.5417867 48.7544133,33.5417867 C47.0685467,33.5417867 45.70168,34.9086533 45.70168,36.5925867" id="Fill-57" fill="#057977"></path>
            <path d="M11.3850133,17.4970533 C11.3850133,19.1809867 12.7499467,20.5478533 14.4358133,20.5478533 C16.1197467,20.5478533 17.4866133,19.1809867 17.4866133,17.4970533 C17.4866133,15.8111867 16.1197467,14.4462533 14.4358133,14.4462533 C12.7499467,14.4462533 11.3850133,15.8111867 11.3850133,17.4970533" id="Fill-59" fill="#057977"></path>
            <polygon id="Fill-61" fill="#000000" points="91.2597133 57.29472 91.2597133 23.88672 98.4981133 23.88672 98.4981133 36.9695867 105.040513 36.9695867 115.990913 23.88672 123.507713 23.88672 123.507713 26.39232 111.582913 40.5887867 123.507713 54.78912 123.507713 57.29472 115.990913 57.29472 105.040513 44.2079867 98.4981133 44.2079867 98.4981133 57.29472"></polygon>
            <path d="M131.534913,56.3657533 C130.48318,55.74902 129.646047,54.9118867 129.029313,53.8601533 C128.410647,52.80842 128.101313,51.6638867 128.101313,50.4284867 L128.101313,23.8857533 L135.293313,23.8857533 L135.293313,50.0553533 L154.224513,50.0553533 L154.224513,23.8857533 L161.509313,23.8857533 L161.509313,50.4284867 C161.509313,51.6638867 161.192247,52.80842 160.558113,53.8601533 C159.92398,54.9118867 159.08878,55.74902 158.052513,56.3657533 C157.016247,56.98442 155.879447,57.2937533 154.642113,57.2937533 L134.968513,57.2937533 C133.73118,57.2937533 132.586647,56.98442 131.534913,56.3657533" id="Fill-63" fill="#000000"></path>
            <path d="M173.386747,57.29472 C172.149413,57.29472 171.00488,56.9853867 169.953147,56.36672 C168.901413,55.7480533 168.066213,54.9128533 167.447547,53.86112 C166.826947,52.8093867 166.519547,51.6648533 166.519547,50.42752 L166.519547,47.31872 L173.711547,47.31872 L173.711547,50.05632 L192.642747,50.05632 L192.642747,44.2079867 L173.386747,44.2079867 C172.149413,44.2079867 171.00488,43.9005867 169.953147,43.28192 C168.901413,42.6632533 168.066213,41.8357867 167.447547,40.79952 C166.826947,39.7632533 166.519547,38.6109867 166.519547,37.34272 L166.519547,30.7519867 C166.519547,29.4856533 166.826947,28.3333867 167.447547,27.2951867 C168.066213,26.2608533 168.901413,25.4333867 169.953147,24.81472 C171.00488,24.1960533 172.149413,23.88672 173.386747,23.88672 L193.060347,23.88672 C194.295747,23.88672 195.43448,24.1960533 196.470747,24.81472 C197.507013,25.4333867 198.342213,26.2608533 198.976347,27.2951867 C199.608547,28.3333867 199.92948,29.4856533 199.92948,30.7519867 L199.92948,33.86272 L192.642747,33.86272 L192.642747,31.12512 L173.711547,31.12512 L173.711547,36.9695867 L193.060347,36.9695867 C194.295747,36.9695867 195.43448,37.27892 196.470747,37.89952 C197.507013,38.5181867 198.342213,39.3456533 198.976347,40.38192 C199.608547,41.4181867 199.92948,42.5704533 199.92948,43.83872 L199.92948,50.42752 C199.92948,51.6648533 199.608547,52.8093867 198.976347,53.86112 C198.342213,54.9128533 197.507013,55.7480533 196.470747,56.36672 C195.43448,56.9853867 194.295747,57.29472 193.060347,57.29472 L173.386747,57.29472 Z" id="Fill-65" fill="#000000"></path>
            <path d="M212.316733,39.29152 L231.247933,39.29152 L231.247933,31.12512 L212.316733,31.12512 L212.316733,39.29152 Z M205.124733,30.7519867 C205.124733,29.4856533 205.434067,28.3333867 206.052733,27.2951867 C206.6714,26.2608533 207.5066,25.4333867 208.558333,24.81472 C209.610067,24.1960533 210.7546,23.88672 211.991933,23.88672 L231.619133,23.88672 C232.8874,23.88672 234.039667,24.1960533 235.075933,24.81472 C236.1122,25.4333867 236.9474,26.2608533 237.581533,27.2951867 C238.215667,28.3333867 238.532733,29.4856533 238.532733,30.7519867 L238.532733,57.29472 L231.247933,57.29472 L231.247933,46.52992 L212.316733,46.52992 L212.316733,57.29472 L205.124733,57.29472 L205.124733,30.7519867 Z" id="Fill-67" fill="#000000"></path>
            <path d="M270.758773,57.29472 L261.236785,46.3203106 L270.646626,46.2950134 L278.182773,54.83552 L278.182773,57.29472 L270.758773,57.29472 Z M251.013173,39.05952 L269.944373,39.05952 L269.944373,31.12512 L251.013173,31.12512 L251.013173,39.05952 Z M243.821173,57.29472 L243.821173,23.93312 L270.315573,23.93312 C271.58384,23.93312 272.736107,24.2424533 273.772373,24.86112 C274.80864,25.4797867 275.64384,26.3149867 276.277973,27.36672 C276.912107,28.41652 277.229173,29.5629867 277.229173,30.80032 L277.229173,39.43072 C277.229173,40.66612 276.912107,41.8125867 276.277973,42.86432 C275.64384,43.9160533 274.80864,44.7512533 273.772373,45.36992 C272.736107,45.9885867 271.58384,46.29792 270.315573,46.29792 L251.013173,46.34432 L251.013173,57.29472 L243.821173,57.29472 Z" id="Fill-69" fill="#000000"></path>
            <polygon id="Fill-70" fill="#000000" points="280.942333 57.29472 288.041533 57.29472 288.041533 23.88672 280.942333 23.88672"></polygon>
        </g>
    </g>
</svg>