<?xml version="1.0" encoding="UTF-8" standalone="no"?>
<svg
   xmlns:dc="http://purl.org/dc/elements/1.1/"
   xmlns:cc="http://creativecommons.org/ns#"
   xmlns:rdf="http://www.w3.org/1999/02/22-rdf-syntax-ns#"
   xmlns:svg="http://www.w3.org/2000/svg"
   xmlns="http://www.w3.org/2000/svg"
   viewBox="0 0 1866.6667 1850.6667"
   height="1850.6667"
   width="1866.6667"
   xml:space="preserve"
   id="svg2"
   version="1.1"><metadata
     id="metadata8"><rdf:RDF><cc:Work
         rdf:about=""><dc:format>image/svg+xml</dc:format><dc:type
           rdf:resource="http://purl.org/dc/dcmitype/StillImage" /></cc:Work></rdf:RDF></metadata><defs
     id="defs6"><clipPath
       id="clipPath18"
       clipPathUnits="userSpaceOnUse"><path
         id="path16"
         d="m 122.45,181.74 h 45.175 v 312.402 l -45.175,26.157 z m 1032.021,177.49 v 18.071 h -45.377 V 181.74 h 45.377 v 94.367 c 0,24.362 3.078,41.428 9.236,51.2 v 0 c 6.292,9.905 16.933,14.857 31.925,14.857 v 0 c 13.784,0 23.291,-3.748 28.51,-11.244 v 0 c 5.353,-7.361 8.032,-20.68 8.032,-39.955 v 0 -109.225 h 45.377 v 119.866 c 0,27.574 -5.49,47.452 -16.464,59.632 v 0 c -12.719,14.324 -30.452,21.484 -53.207,21.484 v 0 c -19.811,0 -37.616,-7.831 -53.409,-23.492 m -250.898,-6.223 c -20.211,-19.811 -30.318,-43.841 -30.318,-72.081 v 0 c 0,-29.986 9.905,-54.884 29.716,-74.692 v 0 c 19.808,-20.078 44.373,-30.117 73.687,-30.117 v 0 c 29.582,0 54.543,9.838 74.892,29.515 v 0 c 20.21,19.807 30.318,44.373 30.318,73.687 v 0 c 0,29.044 -10.039,53.54 -30.117,73.486 v 0 c -20.348,19.945 -45.109,29.917 -74.289,29.917 v 0 c -29.047,0 -53.679,-9.908 -73.889,-29.715 m 31.523,-119.266 c -10.44,11.375 -15.661,26.836 -15.661,46.381 v 0 c 0,18.202 5.352,33.06 16.063,44.575 v 0 c 10.708,11.511 24.697,17.267 41.964,17.267 v 0 c 17.534,0 31.653,-5.756 42.364,-17.267 v 0 c 10.572,-11.378 15.862,-26.574 15.862,-45.579 v 0 c 0,-19.006 -5.29,-34.202 -15.862,-45.577 v 0 c -10.574,-11.378 -24.696,-17.067 -42.364,-17.067 v 0 c -17.538,0 -31.657,5.753 -42.366,17.267 M 676.971,353.007 c -20.213,-19.811 -30.318,-43.841 -30.318,-72.081 v 0 c 0,-29.986 9.904,-54.884 29.715,-74.692 v 0 c 19.808,-20.078 44.374,-30.117 73.687,-30.117 v 0 c 29.582,0 54.543,9.838 74.892,29.515 v 0 c 20.209,19.807 30.319,44.373 30.319,73.687 v 0 c 0,29.044 -10.04,53.54 -30.119,73.486 v 0 c -20.348,19.945 -45.108,29.917 -74.289,29.917 v 0 c -29.046,0 -53.678,-9.908 -73.887,-29.715 m 31.522,-119.266 c -10.44,11.375 -15.661,26.836 -15.661,46.381 v 0 c 0,18.202 5.352,33.06 16.063,44.575 v 0 c 10.708,11.511 24.696,17.267 41.963,17.267 v 0 c 17.536,0 31.655,-5.756 42.366,-17.267 v 0 c 10.57,-11.378 15.861,-26.574 15.861,-45.579 v 0 c 0,-19.006 -5.291,-34.202 -15.861,-45.577 v 0 c -10.576,-11.378 -24.697,-17.067 -42.366,-17.067 v 0 c -17.538,0 -31.657,5.753 -42.365,17.267 M 444.947,350.999 c -15.932,-19.948 -23.895,-44.173 -23.895,-72.684 v 0 c 0,-29.314 8.565,-53.743 25.701,-73.286 v 0 c 16.997,-19.274 38.819,-28.912 65.455,-28.912 v 0 c 23.422,0 44.103,9.166 62.042,27.507 v 0 -27.307 c 0,-40.557 -16.534,-60.836 -49.594,-60.836 v 0 c -17.938,0 -31.592,6.093 -40.959,18.271 v 0 c -4.015,5.221 -6.896,12.649 -8.634,22.287 v 0 h -45.377 c 2.678,-25.566 12.716,-45.578 30.118,-60.034 v 0 c 16.866,-14.055 38.35,-21.082 64.45,-21.082 v 0 c 30.922,0 55.215,10.173 72.884,30.518 v 0 c 9.367,10.574 15.662,23.224 18.875,37.949 v 0 c 1.07,5.353 1.909,11.546 2.508,18.571 v 0 c 0.605,7.029 0.905,15.16 0.905,24.396 v 0 190.944 H 574.25 v -22.086 c -16.333,18.338 -36.812,27.507 -61.44,27.507 v 0 c -28.109,0 -50.731,-10.575 -67.863,-31.723 m 35.738,-115.852 c -8.968,11.376 -13.453,25.968 -13.453,43.771 v 0 c 0,18.07 4.485,32.794 13.453,44.172 v 0 c 9.906,12.715 23.422,19.074 40.558,19.074 v 0 c 16.062,0 29.246,-5.822 39.555,-17.467 v 0 c 10.17,-11.378 15.259,-26.574 15.259,-45.579 v 0 c 0,-17.803 -4.618,-32.396 -13.854,-43.771 v 0 c -10.039,-12.582 -23.693,-18.873 -40.96,-18.873 v 0 c -17.267,0 -30.789,6.224 -40.558,18.673 M 221.354,353.408 c -17.537,-19.546 -26.302,-43.972 -26.302,-73.286 v 0 c 0,-29.849 8.765,-54.746 26.302,-74.691 v 0 c 17.67,-19.545 40.023,-29.314 67.062,-29.314 v 0 c 21.414,0 41.428,8.701 60.034,26.101 v 0 -20.478 h 45.377 V 377.301 H 348.45 v -22.688 c -18.071,18.739 -38.483,28.109 -61.239,28.109 v 0 c -26.372,0 -48.321,-9.771 -65.857,-29.314 M 256.29,234.344 c -10.039,11.776 -15.059,27.036 -15.059,45.778 v 0 c 0,17.535 5.152,32.257 15.462,44.173 v 0 c 10.44,11.777 23.421,17.669 38.951,17.669 v 0 c 16.464,0 29.847,-5.823 40.157,-17.469 v 0 c 10.307,-11.916 15.46,-27.038 15.46,-45.377 v 0 c 0,-18.34 -5.153,-33.464 -15.46,-45.377 v 0 c -10.31,-11.514 -23.827,-17.267 -40.559,-17.267 v 0 c -15.661,0 -28.644,5.954 -38.952,17.87" /></clipPath><linearGradient
       id="linearGradient28"
       spreadMethod="pad"
       gradientTransform="matrix(-1155.1023,0,0,1155.1023,1277.5511,297.61075)"
       gradientUnits="userSpaceOnUse"
       y2="0"
       x2="1"
       y1="0"
       x1="0"><stop
         id="stop24"
         offset="0"
         style="stop-opacity:1;stop-color:#00aeef" /><stop
         id="stop26"
         offset="1"
         style="stop-opacity:1;stop-color:#2b3990" /></linearGradient><clipPath
       id="clipPath38"
       clipPathUnits="userSpaceOnUse"><path
         id="path36"
         d="m 902.716,1038.05 -150.865,-91.512 291.52,-170.019 v 338.439 z" /></clipPath><linearGradient
       id="linearGradient50"
       spreadMethod="pad"
       gradientTransform="matrix(229.97028,229.97028,229.97028,-229.97028,867.23566,831.15314)"
       gradientUnits="userSpaceOnUse"
       y2="0"
       x2="1"
       y1="0"
       x1="0"><stop
         id="stop44"
         offset="0"
         style="stop-opacity:1;stop-color:#4578e6" /><stop
         id="stop46"
         offset="0.9"
         style="stop-opacity:1;stop-color:#2bc0e4" /><stop
         id="stop48"
         offset="1"
         style="stop-opacity:1;stop-color:#2bc0e4" /></linearGradient><clipPath
       id="clipPath60"
       clipPathUnits="userSpaceOnUse"><path
         id="path58"
         d="M 586.235,861.25 356.735,718.466 700.224,520.299 1043.272,718.43 700,916.742 Z" /></clipPath><linearGradient
       id="linearGradient72"
       spreadMethod="pad"
       gradientTransform="matrix(-283.64337,-338.03299,-338.03299,283.64337,841.82465,887.46521)"
       gradientUnits="userSpaceOnUse"
       y2="0"
       x2="1"
       y1="0"
       x1="0"><stop
         id="stop66"
         offset="0"
         style="stop-opacity:1;stop-color:#4578e6" /><stop
         id="stop68"
         offset="0.75"
         style="stop-opacity:1;stop-color:#262d65" /><stop
         id="stop70"
         offset="1"
         style="stop-opacity:1;stop-color:#262d65" /></linearGradient><clipPath
       id="clipPath82"
       clipPathUnits="userSpaceOnUse"><path
         id="path80"
         d="M 356.629,1115.08 356.735,718.466 700,916.742 v 396.336 z" /></clipPath><linearGradient
       id="linearGradient96"
       spreadMethod="pad"
       gradientTransform="matrix(-468.93842,-468.93842,-468.93842,468.93842,762.74017,1250.3373)"
       gradientUnits="userSpaceOnUse"
       y2="0"
       x2="1"
       y1="0"
       x1="0"><stop
         id="stop88"
         offset="0"
         style="stop-opacity:1;stop-color:#4578e6" /><stop
         id="stop90"
         offset="0.15"
         style="stop-opacity:1;stop-color:#4578e6" /><stop
         id="stop92"
         offset="0.95"
         style="stop-opacity:1;stop-color:#262d65" /><stop
         id="stop94"
         offset="1"
         style="stop-opacity:1;stop-color:#262d65" /></linearGradient><clipPath
       id="clipPath106"
       clipPathUnits="userSpaceOnUse"><path
         id="path104"
         d="m 751.851,946.538 291.52,168.42 -291.52,168.237 z" /></clipPath><linearGradient
       id="linearGradient118"
       spreadMethod="pad"
       gradientTransform="matrix(291.52072,0,0,-291.52072,751.85077,1114.8663)"
       gradientUnits="userSpaceOnUse"
       y2="0"
       x2="1"
       y1="0"
       x1="0"><stop
         id="stop112"
         offset="0"
         style="stop-opacity:1;stop-color:#4578e6" /><stop
         id="stop114"
         offset="0.55"
         style="stop-opacity:1;stop-color:#2bc0e4" /><stop
         id="stop116"
         offset="1"
         style="stop-opacity:1;stop-color:#2bc0e4" /></linearGradient></defs><g
     transform="matrix(1.3333333,0,0,-1.3333333,0,1850.6667)"
     id="g10"><g
       id="g12"><g
         clip-path="url(#clipPath18)"
         id="g14"><g
           id="g20"><g
             id="g22"><path
               id="path30"
               style="fill:url(#linearGradient28);stroke:none"
               d="m 122.45,181.74 h 45.175 v 312.402 l -45.175,26.157 z m 1032.021,177.49 v 18.071 h -45.377 V 181.74 h 45.377 v 94.367 c 0,24.362 3.078,41.428 9.236,51.2 v 0 c 6.292,9.905 16.933,14.857 31.925,14.857 v 0 c 13.784,0 23.291,-3.748 28.51,-11.244 v 0 c 5.353,-7.361 8.032,-20.68 8.032,-39.955 v 0 -109.225 h 45.377 v 119.866 c 0,27.574 -5.49,47.452 -16.464,59.632 v 0 c -12.719,14.324 -30.452,21.484 -53.207,21.484 v 0 c -19.811,0 -37.616,-7.831 -53.409,-23.492 m -250.898,-6.223 c -20.211,-19.811 -30.318,-43.841 -30.318,-72.081 v 0 c 0,-29.986 9.905,-54.884 29.716,-74.692 v 0 c 19.808,-20.078 44.373,-30.117 73.687,-30.117 v 0 c 29.582,0 54.543,9.838 74.892,29.515 v 0 c 20.21,19.807 30.318,44.373 30.318,73.687 v 0 c 0,29.044 -10.039,53.54 -30.117,73.486 v 0 c -20.348,19.945 -45.109,29.917 -74.289,29.917 v 0 c -29.047,0 -53.679,-9.908 -73.889,-29.715 m 31.523,-119.266 c -10.44,11.375 -15.661,26.836 -15.661,46.381 v 0 c 0,18.202 5.352,33.06 16.063,44.575 v 0 c 10.708,11.511 24.697,17.267 41.964,17.267 v 0 c 17.534,0 31.653,-5.756 42.364,-17.267 v 0 c 10.572,-11.378 15.862,-26.574 15.862,-45.579 v 0 c 0,-19.006 -5.29,-34.202 -15.862,-45.577 v 0 c -10.574,-11.378 -24.696,-17.067 -42.364,-17.067 v 0 c -17.538,0 -31.657,5.753 -42.366,17.267 M 676.971,353.007 c -20.213,-19.811 -30.318,-43.841 -30.318,-72.081 v 0 c 0,-29.986 9.904,-54.884 29.715,-74.692 v 0 c 19.808,-20.078 44.374,-30.117 73.687,-30.117 v 0 c 29.582,0 54.543,9.838 74.892,29.515 v 0 c 20.209,19.807 30.319,44.373 30.319,73.687 v 0 c 0,29.044 -10.04,53.54 -30.119,73.486 v 0 c -20.348,19.945 -45.108,29.917 -74.289,29.917 v 0 c -29.046,0 -53.678,-9.908 -73.887,-29.715 m 31.522,-119.266 c -10.44,11.375 -15.661,26.836 -15.661,46.381 v 0 c 0,18.202 5.352,33.06 16.063,44.575 v 0 c 10.708,11.511 24.696,17.267 41.963,17.267 v 0 c 17.536,0 31.655,-5.756 42.366,-17.267 v 0 c 10.57,-11.378 15.861,-26.574 15.861,-45.579 v 0 c 0,-19.006 -5.291,-34.202 -15.861,-45.577 v 0 c -10.576,-11.378 -24.697,-17.067 -42.366,-17.067 v 0 c -17.538,0 -31.657,5.753 -42.365,17.267 M 444.947,350.999 c -15.932,-19.948 -23.895,-44.173 -23.895,-72.684 v 0 c 0,-29.314 8.565,-53.743 25.701,-73.286 v 0 c 16.997,-19.274 38.819,-28.912 65.455,-28.912 v 0 c 23.422,0 44.103,9.166 62.042,27.507 v 0 -27.307 c 0,-40.557 -16.534,-60.836 -49.594,-60.836 v 0 c -17.938,0 -31.592,6.093 -40.959,18.271 v 0 c -4.015,5.221 -6.896,12.649 -8.634,22.287 v 0 h -45.377 c 2.678,-25.566 12.716,-45.578 30.118,-60.034 v 0 c 16.866,-14.055 38.35,-21.082 64.45,-21.082 v 0 c 30.922,0 55.215,10.173 72.884,30.518 v 0 c 9.367,10.574 15.662,23.224 18.875,37.949 v 0 c 1.07,5.353 1.909,11.546 2.508,18.571 v 0 c 0.605,7.029 0.905,15.16 0.905,24.396 v 0 190.944 H 574.25 v -22.086 c -16.333,18.338 -36.812,27.507 -61.44,27.507 v 0 c -28.109,0 -50.731,-10.575 -67.863,-31.723 m 35.738,-115.852 c -8.968,11.376 -13.453,25.968 -13.453,43.771 v 0 c 0,18.07 4.485,32.794 13.453,44.172 v 0 c 9.906,12.715 23.422,19.074 40.558,19.074 v 0 c 16.062,0 29.246,-5.822 39.555,-17.467 v 0 c 10.17,-11.378 15.259,-26.574 15.259,-45.579 v 0 c 0,-17.803 -4.618,-32.396 -13.854,-43.771 v 0 c -10.039,-12.582 -23.693,-18.873 -40.96,-18.873 v 0 c -17.267,0 -30.789,6.224 -40.558,18.673 M 221.354,353.408 c -17.537,-19.546 -26.302,-43.972 -26.302,-73.286 v 0 c 0,-29.849 8.765,-54.746 26.302,-74.691 v 0 c 17.67,-19.545 40.023,-29.314 67.062,-29.314 v 0 c 21.414,0 41.428,8.701 60.034,26.101 v 0 -20.478 h 45.377 V 377.301 H 348.45 v -22.688 c -18.071,18.739 -38.483,28.109 -61.239,28.109 v 0 c -26.372,0 -48.321,-9.771 -65.857,-29.314 M 256.29,234.344 c -10.039,11.776 -15.059,27.036 -15.059,45.778 v 0 c 0,17.535 5.152,32.257 15.462,44.173 v 0 c 10.44,11.777 23.421,17.669 38.951,17.669 v 0 c 16.464,0 29.847,-5.823 40.157,-17.469 v 0 c 10.307,-11.916 15.46,-27.038 15.46,-45.377 v 0 c 0,-18.34 -5.153,-33.464 -15.46,-45.377 v 0 c -10.31,-11.514 -23.827,-17.267 -40.559,-17.267 v 0 c -15.661,0 -28.644,5.954 -38.952,17.87" /></g></g></g></g><g
       id="g32"><g
         clip-path="url(#clipPath38)"
         id="g34"><g
           id="g40"><g
             id="g42"><path
               id="path52"
               style="fill:url(#linearGradient50);stroke:none"
               d="m 902.716,1038.05 -150.865,-91.512 291.52,-170.019 v 338.439 z" /></g></g></g></g><g
       id="g54"><g
         clip-path="url(#clipPath60)"
         id="g56"><g
           id="g62"><g
             id="g64"><path
               id="path74"
               style="fill:url(#linearGradient72);stroke:none"
               d="M 586.235,861.25 356.735,718.466 700.224,520.299 1043.272,718.43 700,916.742 Z" /></g></g></g></g><g
       id="g76"><g
         clip-path="url(#clipPath82)"
         id="g78"><g
           id="g84"><g
             id="g86"><path
               id="path98"
               style="fill:url(#linearGradient96);stroke:none"
               d="M 356.629,1115.08 356.735,718.466 700,916.742 v 396.336 z" /></g></g></g></g><g
       id="g100"><g
         clip-path="url(#clipPath106)"
         id="g102"><g
           id="g108"><g
             id="g110"><path
               id="path120"
               style="fill:url(#linearGradient118);stroke:none"
               d="m 751.851,946.538 291.52,168.42 -291.52,168.237 z" /></g></g></g></g></g></svg>