<?xml version="1.0" encoding="UTF-8"?>
<svg width="2422px" height="576px" viewBox="0 0 2422 576" version="1.1" xmlns="http://www.w3.org/2000/svg" xmlns:xlink="http://www.w3.org/1999/xlink">
    <title>MI-LX-Lockup-color</title>
    <g id="MI-LX-Lockup-color" stroke="none" stroke-width="1" fill="none" fill-rule="evenodd">
        <g id="Group-2" transform="translate(144.000000, 144.000000)" fill-rule="nonzero">
            <path d="M592.256,240 L592.256,194.496 L486.272,194.496 L486.272,27.168 L438.464,27.168 L438.464,240 L592.256,240 Z M691.328,243.456 C720.704,243.456 745.184,233.088 760.448,221.568 L742.592,190.752 C729.92,199.392 710.336,206.016 693.344,206.016 C668.864,206.016 655.328,193.632 650.432,176.352 L766.496,176.352 C767.36,170.016 767.936,163.68 767.936,157.344 C767.936,107.232 733.376,78.144 688.16,78.144 C638.048,78.144 604.928,113.856 604.928,160.8 C604.928,203.712 632.288,243.456 691.328,243.456 Z M724.448,144.096 L650.144,144.096 C655.328,125.664 669.728,114.72 688.16,114.72 C707.168,114.72 720.416,126.24 724.448,144.096 Z M864.416,244.032 C886.016,244.032 901.568,235.392 913.088,223.872 L913.088,240 L955.712,240 L955.712,82.176 L913.088,82.176 L913.088,98.88 C901.568,87.072 885.728,78.144 864.416,78.144 C819.776,78.144 786.656,112.992 786.656,160.224 C786.656,207.168 818.912,244.032 864.416,244.032 Z M872.192,202.848 C848.576,202.848 831.872,183.84 831.872,160.8 C831.872,138.336 848.288,119.328 872.192,119.328 C896.096,119.328 913.088,138.336 913.088,160.8 C913.088,183.552 896.096,202.848 872.192,202.848 Z M1035.776,240 L1035.776,156.48 C1035.776,134.304 1049.6,119.328 1069.76,119.328 C1088.192,119.328 1100.576,132 1100.576,155.328 L1100.576,240 L1145.792,240 L1145.792,143.52 C1145.792,98.88 1115.84,77.856 1084.448,77.856 C1060.544,77.856 1042.4,89.952 1034.624,104.064 L1034.624,82.176 L990.56,82.176 L990.56,240 L1035.776,240 Z M1231.328,240 L1231.328,27.168 L1183.52,27.168 L1183.52,240 L1231.328,240 Z M1310.24,240 L1352,168.576 L1392.896,240 L1447.904,240 L1382.528,132.576 L1448.48,27.168 L1392.896,27.168 L1352.576,96.576 L1314.56,27.168 L1259.552,27.168 L1321.76,132.576 L1254.656,240 L1310.24,240 Z M1589.6,240 L1589.6,127.392 L1647.488,210.048 L1664.768,210.048 L1722.656,127.392 L1722.656,240 L1770.176,240 L1770.176,27.168 L1736.192,27.168 L1656.416,142.944 L1576.064,27.168 L1542.656,27.168 L1542.656,240 L1589.6,240 Z M1862.912,240 L1862.912,27.168 L1815.104,27.168 L1815.104,240 L1862.912,240 Z" id="LeanIXMI" fill="#222F4B"></path>
            <g id="Group" fill="#166BFF">
                <circle id="Oval" opacity="0.600000024" cx="64" cy="64" r="64"></circle>
                <circle id="Oval" opacity="0.400000006" cx="224" cy="64" r="64"></circle>
                <circle id="Oval" cx="64" cy="224" r="64"></circle>
                <circle id="Oval" opacity="0.600000024" cx="224" cy="224" r="64"></circle>
            </g>
        </g>
    </g>
</svg>