<?xml version="1.0" encoding="UTF-8"?>
<svg xmlns="http://www.w3.org/2000/svg" version="1.1" viewBox="0 0 800 570.8">
  <defs>
    <style>
      .cls-1 {
        fill: #003778;
      }

      .cls-2 {
        fill: #003764;
      }
    </style>
  </defs>
  <!-- Generator: Adobe Illustrator 28.7.0, SVG Export Plug-In . SVG Version: 1.2.0 Build 136)  -->
  <g>
    <g id="Layer_1">
      <g id="Layer_1-2" data-name="Layer_1">
        <g>
          <path class="cls-1" d="M308.4,7h45.5v4.7h-19.9v52.8h-5.3V11.6h-19.9v-4.7h-.3,0Z"/>
          <path class="cls-1" d="M359.5,7h5.5v25.1h34.1V7h5.5v57.5h-5.5v-27.9h-34.1v27.9h-5.5V7Z"/>
          <path class="cls-1" d="M416.2,7h39.7v4.7h-34.1v20.9h32v4.7h-32v22.8h34.5v4.5h-40.2V7h0Z"/>
          <path class="cls-1" d="M308.4,208.1h36.6v4.7h-31v20.7h27.6v4.7h-27.6v27.5h-5.6v-57.5h0Z"/>
          <path class="cls-1" d="M376.9,207.8c17.3,0,26.2,13.7,26.2,28.9s-8.8,28.9-26.2,28.9-26.2-13.7-26.2-28.9,8.7-28.9,26.2-28.9h0ZM376.9,261.1c14.6,0,20.7-12.4,20.7-24.4s-6.1-24.4-20.7-24.4-21,12.4-21,24.4,6.3,24.4,21,24.4Z"/>
          <path class="cls-1" d="M411.7,208.1h5.3v35c0,13,6.1,18,16.5,18s16.5-5,16.5-18v-35h5.3v36.1c0,11.6-6.3,21.5-22,21.5s-22-10-22-21.5v-36.1h.3,0Z"/>
          <path class="cls-1" d="M466.5,208.1h6.1l33.4,48.5h.2v-48.5h5.5v57.5h-6.1l-33.3-48.5h-.2v48.5h-5.5l-.2-57.5Z"/>
          <path class="cls-1" d="M523.4,208.1h19.9c17.3.3,26.5,9.8,26.5,28.8s-9.2,28.4-26.5,28.8h-19.9v-57.5h0ZM529,260.9h11.7c16.5,0,23.8-6.7,23.8-24.1s-7.2-24.1-23.8-24.1h-11.7v48.2Z"/>
          <path class="cls-1" d="M595.3,208.1h6.1l22.6,57.5h-5.8l-7.1-17.8h-26.2l-7.1,17.8h-5.8l23.1-57.5h0ZM586.8,243.1h22.6l-11.1-29.4-11.6,29.4Z"/>
          <path class="cls-1" d="M617.7,208.1h45.6v4.7h-20.1v52.8h-5.5v-52.8h-19.9l-.2-4.7h0Z"/>
          <path class="cls-1" d="M669.1,208.1h5.5v57.5h-5.5v-57.5Z"/>
          <path class="cls-1" d="M709.5,208.1c17.3,0,26,13.7,26,28.8s-8.7,28.8-26,28.8-26-13.7-26-28.8,8.5-28.8,26-28.8h0ZM709.5,261.1c14.5,0,20.6-12.2,20.6-24.3s-6.1-24.3-20.6-24.3-20.9,12.2-20.9,24.3,6.4,24.3,20.9,24.3h0Z"/>
          <path class="cls-1" d="M746.2,208.1h6.1l33.4,48.5h.2v-48.5h5.5v57.5h-6.1l-33.4-48.5h0v48.5h-5.5l-.2-57.5h0Z"/>
          <path class="cls-1" d="M308.4,81.5h31.6v76.3h45.5v26.3h-77.1v-102.6h0Z"/>
          <path class="cls-1" d="M406.4,81.5h31.6v102.8h-31.6v-102.8Z"/>
          <path class="cls-1" d="M461.7,81.5h32.3l29.9,54.9h.3v-54.9h30v102.8h-31l-31.5-56.2h-.3v56.2h-29.9v-102.8s.2,0,.2,0h0Z"/>
          <path class="cls-1" d="M669.1,143c0,27.9-14.8,41.1-45.6,41.1s-45.8-13.2-45.8-41.1v-61.5h30.8v54.6c0,10.1-.2,23.1,14.9,23.1s14.6-13,14.6-23.1v-54.6h30.8v61.5h.2Z"/>
          <path class="cls-1" d="M721.6,129.7l-33.7-48h37.3l15.6,27.9,15.3-27.9h35.2l-33.1,48.4,36.8,54.5h-38.2l-17.5-30.7-18.2,30.7h-36.3l36.9-54.8h0Z"/>
          <polygon class="cls-1" points="57.2 213.4 57.2 109.6 5.2 109.6 5.2 265.1 160.7 265.1 160.7 213.4 57.2 213.4"/>
          <polygon class="cls-1" points="264.4 6 5.2 6 5.2 83.6 57.1 83.6 57.1 57.9 212.5 57.9 212.5 213.4 186.7 213.4 186.7 265.1 264.4 265.1 264.4 6"/>
          <rect class="cls-2" x="5.5" y="346.7" width="786.1" height="4.2"/>
        </g>
        <g>
          <path class="cls-1" d="M97.4,430.2v10.7H18.7v47.8h73.7v10.7H18.7v52.2h79.7v10.7H6.1v-132.3h91.3Z"/>
          <path class="cls-1" d="M185.9,562.4v-18.2h-.4c-1.2,3.1-3.1,5.9-5.5,8.5s-5.2,4.8-8.2,6.6c-3.1,1.8-6.4,3.2-9.9,4.2-3.5,1-7,1.5-10.5,1.5-7.3,0-13.6-1.3-19-4-5.4-2.6-9.9-6.3-13.4-10.9-3.6-4.6-6.2-10-8-16.1-1.7-6.1-2.6-12.6-2.6-19.4s.9-13.2,2.6-19.4c1.7-6.1,4.4-11.5,8-16.1,3.6-4.6,8.1-8.3,13.4-11,5.4-2.7,11.7-4.1,19-4.1s7.1.4,10.5,1.3c3.4.9,6.6,2.2,9.5,4,3,1.8,5.6,4,7.9,6.6,2.3,2.6,4,5.6,5.3,9.1h.4v-54.8h11.7v132.3h-10.7,0ZM121.9,529.4c1.2,4.9,3,9.2,5.6,13.1s5.8,6.9,9.7,9.4c4,2.4,8.7,3.6,14.3,3.6s11.4-1.2,15.7-3.6c4.3-2.4,7.7-5.5,10.4-9.4,2.7-3.8,4.6-8.2,5.7-13.1,1.2-4.9,1.8-9.8,1.8-14.7s-.6-9.8-1.8-14.7c-1.2-4.9-3.1-9.2-5.7-13.1-2.7-3.8-6.1-6.9-10.4-9.4-4.3-2.4-9.5-3.6-15.7-3.6s-10.3,1.2-14.3,3.6c-4,2.4-7.2,5.5-9.7,9.4-2.5,3.8-4.4,8.2-5.6,13.1-1.2,4.9-1.8,9.8-1.8,14.7s.6,9.9,1.8,14.7Z"/>
          <path class="cls-1" d="M286.7,562.4v-17.2h-.4c-3.1,6.4-7.6,11.3-13.4,14.7-5.9,3.4-12.4,5.1-19.5,5.1s-11.2-.8-15.5-2.5c-4.3-1.7-7.7-4-10.4-7.1-2.7-3.1-4.6-6.9-5.8-11.3s-1.8-9.5-1.8-15.2v-62.1h11.7v62.2c.3,8.6,2.3,15.2,6,19.6s10.3,6.7,19.5,6.7,9.4-1.1,13-3.2c3.6-2.2,6.5-5,8.9-8.6,2.3-3.6,4.1-7.7,5.2-12.3,1.1-4.6,1.7-9.4,1.7-14.2v-50.2h11.7v95.6h-10.7Z"/>
          <path class="cls-1" d="M379.7,480c-4.3-4.1-10.4-6.1-18.2-6.1s-10.4,1.2-14.6,3.5c-4.2,2.3-7.7,5.4-10.5,9.3-2.8,3.8-4.9,8.2-6.3,13.1-1.4,4.9-2.1,9.9-2.1,14.9s.7,10,2.1,14.9c1.4,4.9,3.5,9.2,6.3,13.1,2.8,3.8,6.3,6.9,10.5,9.3,4.2,2.3,9.1,3.5,14.6,3.5s7-.7,10.2-2c3.2-1.4,6.1-3.2,8.5-5.6,2.5-2.4,4.5-5.3,6.1-8.6,1.6-3.3,2.6-7,3-10.9h11.7c-1.6,11.6-5.9,20.7-12.8,27.1-6.9,6.5-15.8,9.7-26.7,9.7s-13.7-1.3-19.4-4c-5.6-2.6-10.3-6.3-14.2-10.8-3.8-4.6-6.7-9.9-8.7-16-2-6.1-3-12.6-3-19.5s1-13.4,3-19.5c2-6.1,4.9-11.4,8.7-16,3.8-4.6,8.5-8.2,14.2-10.9s12.1-4.1,19.4-4.1,18.9,2.7,26,8.1c7.1,5.4,11.3,13.6,12.7,24.6h-11.7c-1.6-7.2-4.6-12.8-8.9-16.9h0Z"/>
          <path class="cls-1" d="M421.9,481.7c2-4.1,4.7-7.4,8.1-10s7.4-4.5,11.9-5.7c4.6-1.2,9.6-1.8,15.2-1.8s8.4.4,12.6,1.2c4.2.8,8,2.3,11.3,4.5,3.3,2.2,6.1,5.3,8.2,9.4,2.1,4,3.1,9.2,3.1,15.7v50.8c0,4.7,2.3,7,6.9,7s2.6-.2,3.7-.7v9.8c-1.4.3-2.6.4-3.6.6-1,.1-2.4.2-4,.2-3,0-5.3-.4-7.1-1.2-1.8-.8-3.2-1.9-4.2-3.4-1-1.5-1.6-3.2-1.9-5.3-.3-2-.5-4.3-.5-6.8h-.4c-2.1,3.1-4.2,5.8-6.4,8.2-2.2,2.4-4.6,4.4-7.2,6-2.7,1.6-5.7,2.8-9.1,3.7-3.4.9-7.4,1.3-12.1,1.3s-8.6-.5-12.5-1.6-7.3-2.7-10.2-5c-2.9-2.3-5.2-5.2-6.9-8.7-1.7-3.5-2.5-7.7-2.5-12.5s1.5-11.9,4.4-15.7c3-3.8,6.9-6.6,11.8-8.6,4.9-2,10.4-3.4,16.5-4.2,6.1-.8,12.3-1.6,18.6-2.3,2.5-.2,4.6-.6,6.5-.9,1.9-.4,3.4-1,4.6-1.9,1.2-.9,2.2-2.2,2.9-3.8.7-1.6,1-3.7,1-6.3,0-3.9-.7-7.2-1.9-9.7-1.3-2.5-3.1-4.5-5.4-6-2.3-1.5-4.9-2.5-8-3.1-3-.6-6.3-.8-9.7-.8-7.4,0-13.5,1.8-18.2,5.3s-7.2,9.2-7.4,16.9h-11.7c.4-5.6,1.5-10.4,3.5-14.4h0ZM480.3,510.2c-.7,1.4-2.2,2.3-4.3,3-2.1.6-4,1.1-5.6,1.3-4.9.9-10,1.6-15.3,2.3-5.3.7-10,1.7-14.4,3.1-4.3,1.4-7.9,3.3-10.6,5.8-2.8,2.5-4.2,6.1-4.2,10.8s.6,5.6,1.8,7.9c1.2,2.3,2.7,4.3,4.7,5.9,2,1.7,4.3,2.9,6.9,3.8,2.6.9,5.2,1.3,8,1.3,4.4,0,8.7-.7,12.8-2,4.1-1.4,7.6-3.3,10.7-5.9s5.4-5.7,7.2-9.4c1.8-3.7,2.7-7.9,2.7-12.6v-15.2h-.4Z"/>
          <path class="cls-1" d="M553.3,466.9v9.8h-19.5v64.5c0,3.8.5,6.8,1.6,9,1,2.2,3.7,3.4,7.9,3.6,3.3,0,6.7-.2,10-.6v9.8c-1.7,0-3.5,0-5.2.2-1.7.1-3.5.2-5.2.2-7.8,0-13.2-1.5-16.3-4.5-3.1-3-4.6-8.6-4.4-16.8v-65.4h-16.7v-9.8h16.7v-28.7h11.7v28.7h19.5Z"/>
          <path class="cls-1" d="M581.6,430.2v18.7h-11.7v-18.7h11.7ZM581.6,466.9v95.6h-11.7v-95.6h11.7Z"/>
          <path class="cls-1" d="M665.4,468.2c5.6,2.7,10.3,6.4,14.2,10.9,3.8,4.6,6.7,9.9,8.7,16,2,6.1,3,12.6,3,19.5s-1,13.4-3,19.5c-2,6.1-4.9,11.5-8.7,16-3.8,4.6-8.6,8.2-14.2,10.8-5.6,2.7-12.1,4-19.4,4s-13.7-1.3-19.4-4c-5.6-2.6-10.3-6.3-14.2-10.8-3.8-4.6-6.7-9.9-8.7-16-2-6.1-3-12.6-3-19.5s1-13.4,3-19.5c2-6.1,4.9-11.4,8.7-16,3.8-4.6,8.5-8.2,14.2-10.9,5.6-2.7,12.1-4.1,19.4-4.1s13.7,1.4,19.4,4.1ZM631.4,477.4c-4.2,2.3-7.7,5.4-10.5,9.3-2.8,3.8-4.9,8.2-6.3,13.1-1.4,4.9-2.1,9.9-2.1,14.9s.7,10,2.1,14.9c1.4,4.9,3.5,9.2,6.3,13.1,2.8,3.8,6.3,6.9,10.5,9.3,4.2,2.3,9.1,3.5,14.6,3.5s10.4-1.2,14.6-3.5c4.2-2.3,7.7-5.4,10.5-9.3s4.9-8.2,6.3-13.1c1.4-4.9,2.1-9.9,2.1-14.9s-.7-10-2.1-14.9c-1.4-4.9-3.5-9.2-6.3-13.1s-6.3-6.9-10.5-9.3c-4.2-2.3-9.1-3.5-14.6-3.5s-10.4,1.2-14.6,3.5Z"/>
          <path class="cls-1" d="M721.8,466.9v16.5h.4c2.2-5.8,6.2-10.5,11.9-14,5.7-3.5,11.9-5.3,18.7-5.3s12.3.9,16.8,2.6,8.1,4.2,10.8,7.3,4.6,7,5.7,11.6c1.1,4.6,1.7,9.7,1.7,15.4v61.5h-11.7v-59.6c0-4.1-.4-7.9-1.1-11.4-.7-3.5-2-6.6-3.9-9.2-1.9-2.6-4.4-4.6-7.5-6.1s-7.1-2.2-11.8-2.2-8.9.8-12.5,2.5c-3.6,1.7-6.7,4-9.3,6.9-2.5,2.9-4.5,6.4-5.9,10.4s-2.2,8.4-2.3,13.1v55.8h-11.7v-95.6h11.7Z"/>
        </g>
      </g>
    </g>
  </g>
</svg>