<svg width="670" height="670" viewBox="0 0 670 670" fill="none" xmlns="http://www.w3.org/2000/svg">
<rect width="670" height="670" fill="#2C5FC3"/>
<path fill-rule="evenodd" clip-rule="evenodd" d="M352.957 121.062C343.083 115.361 330.918 115.361 321.044 121.062L251.776 161.053C241.902 166.754 235.82 177.289 235.82 188.691V268.674C235.82 280.075 241.902 290.61 251.776 296.311L321.044 336.303C330.918 342.003 343.083 342.003 352.957 336.303L422.224 296.311C432.098 290.61 438.18 280.075 438.18 268.674V188.691C438.18 177.289 432.098 166.754 422.224 161.053L352.957 121.062ZM390.886 171.211C392.304 170.392 392.304 168.345 390.886 167.527L342.319 139.487C339.028 137.586 334.973 137.586 331.681 139.487L262.414 179.478C259.123 181.378 257.095 184.89 257.095 188.691V268.674C257.095 272.474 259.123 275.986 262.414 277.886L331.681 317.878C334.973 319.778 339.028 319.778 342.319 317.878L411.586 277.886C414.878 275.986 416.905 272.474 416.905 268.674V244.774C416.905 243.139 415.138 242.115 413.719 242.929L341.594 284.288C340.885 284.695 340.001 284.183 340.001 283.365L340.001 268.33C340.001 263.771 342.433 259.557 346.382 257.277L415.842 217.154C416.5 216.774 416.905 216.071 416.905 215.311V188.691C416.905 186.877 416.444 185.129 415.603 183.591C415.099 182.668 413.92 182.456 413.008 182.979L341.594 223.93C340.885 224.337 340.001 223.825 340.001 223.008L340.001 207.972C340.001 203.413 342.433 199.2 346.382 196.919L390.886 171.211Z" fill="white"/>
<path d="M118.497 394.442V513.214H101.157V394.442H118.497ZM138.559 513.214V424.135H155.899V513.214H138.559ZM147.316 410.391C144.3 410.391 141.71 409.386 139.545 407.375C137.418 405.326 136.355 402.89 136.355 400.068C136.355 397.207 137.418 394.771 139.545 392.761C141.71 390.712 144.3 389.687 147.316 389.687C150.331 389.687 152.903 390.712 155.029 392.761C157.194 394.771 158.277 397.207 158.277 400.068C158.277 402.89 157.194 405.326 155.029 407.375C152.903 409.386 150.331 410.391 147.316 410.391ZM177.353 513.214V394.442H194.693V438.576H195.737C196.742 436.72 198.192 434.574 200.086 432.138C201.981 429.703 204.61 427.576 207.973 425.759C211.337 423.903 215.783 422.975 221.312 422.975C228.503 422.975 234.921 424.793 240.566 428.427C246.211 432.061 250.637 437.3 253.846 444.143C257.094 450.986 258.718 459.222 258.718 468.849C258.718 478.476 257.113 486.73 253.904 493.612C250.695 500.455 246.288 505.733 240.682 509.444C235.076 513.117 228.677 514.954 221.486 514.954C216.073 514.954 211.646 514.045 208.205 512.228C204.803 510.411 202.135 508.284 200.202 505.849C198.269 503.413 196.78 501.248 195.737 499.353H194.287V513.214H177.353ZM194.345 468.675C194.345 474.938 195.253 480.428 197.07 485.145C198.888 489.862 201.517 493.554 204.958 496.222C208.399 498.851 212.613 500.165 217.6 500.165C222.781 500.165 227.111 498.793 230.591 496.048C234.071 493.264 236.7 489.494 238.478 484.739C240.295 479.983 241.204 474.629 241.204 468.675C241.204 462.798 240.315 457.52 238.536 452.842C236.796 448.164 234.167 444.472 230.649 441.765C227.169 439.059 222.82 437.706 217.6 437.706C212.574 437.706 208.321 439.001 204.842 441.591C201.401 444.182 198.791 447.797 197.012 452.436C195.234 457.076 194.345 462.489 194.345 468.675ZM341.094 425.643C340.476 420.153 337.924 415.9 333.439 412.885C328.954 409.83 323.309 408.303 316.505 408.303C311.633 408.303 307.419 409.076 303.862 410.623C300.305 412.131 297.541 414.218 295.569 416.886C293.636 419.515 292.669 422.511 292.669 425.875C292.669 428.698 293.327 431.133 294.641 433.182C295.994 435.231 297.753 436.952 299.918 438.344C302.122 439.697 304.481 440.838 306.994 441.765C309.507 442.655 311.923 443.389 314.243 443.969L325.842 446.985C329.631 447.913 333.516 449.169 337.498 450.754C341.481 452.34 345.173 454.427 348.575 457.018C351.978 459.608 354.723 462.817 356.81 466.645C358.937 470.472 360 475.054 360 480.389C360 487.117 358.26 493.09 354.781 498.309C351.34 503.529 346.333 507.646 339.76 510.662C333.226 513.678 325.32 515.186 316.041 515.186C307.148 515.186 299.455 513.774 292.959 510.952C286.464 508.13 281.38 504.128 277.707 498.947C274.034 493.728 272.004 487.542 271.617 480.389H289.596C289.944 484.681 291.335 488.257 293.771 491.118C296.246 493.941 299.397 496.048 303.224 497.44C307.09 498.793 311.324 499.469 315.925 499.469C320.99 499.469 325.494 498.677 329.437 497.092C333.42 495.468 336.551 493.225 338.832 490.364C341.113 487.465 342.254 484.082 342.254 480.215C342.254 476.697 341.249 473.817 339.238 471.574C337.267 469.332 334.579 467.476 331.177 466.007C327.814 464.538 324.005 463.243 319.752 462.121L305.718 458.294C296.207 455.703 288.668 451.895 283.1 446.869C277.572 441.843 274.807 435.193 274.807 426.919C274.807 420.076 276.663 414.102 280.375 408.999C284.086 403.895 289.112 399.933 295.453 397.11C301.794 394.249 308.946 392.819 316.911 392.819C324.952 392.819 332.047 394.23 338.194 397.052C344.38 399.875 349.252 403.76 352.809 408.709C356.366 413.619 358.222 419.264 358.376 425.643H341.094ZM421.818 474.706H439.448L451.858 490.886L457.716 498.077L477.492 523.885H459.166L445.943 506.661L441.419 500.397L421.818 474.706ZM481.319 453.828C481.319 466.509 478.999 477.412 474.36 486.537C469.72 495.622 463.36 502.62 455.28 507.53C447.238 512.402 438.094 514.838 427.849 514.838C417.565 514.838 408.382 512.402 400.302 507.53C392.26 502.62 385.919 495.603 381.28 486.479C376.64 477.354 374.321 466.471 374.321 453.828C374.321 441.147 376.64 430.263 381.28 421.178C385.919 412.053 392.26 405.055 400.302 400.184C408.382 395.274 417.565 392.819 427.849 392.819C438.094 392.819 447.238 395.274 455.28 400.184C463.36 405.055 469.72 412.053 474.36 421.178C478.999 430.263 481.319 441.147 481.319 453.828ZM463.573 453.828C463.573 444.163 462.007 436.024 458.876 429.413C455.783 422.763 451.53 417.737 446.117 414.334C440.743 410.893 434.653 409.173 427.849 409.173C421.006 409.173 414.897 410.893 409.523 414.334C404.149 417.737 399.896 422.763 396.764 429.413C393.671 436.024 392.125 444.163 392.125 453.828C392.125 463.494 393.671 471.652 396.764 478.302C399.896 484.913 404.149 489.939 409.523 493.38C414.897 496.782 421.006 498.483 427.849 498.483C434.653 498.483 440.743 496.782 446.117 493.38C451.53 489.939 455.783 484.913 458.876 478.302C462.007 471.652 463.573 463.494 463.573 453.828ZM500.395 513.214V394.442H518.315V497.788H572.133V513.214H500.395Z" fill="white"/>
</svg>
