

<?xml version="1.0" encoding="utf-8"?>
<!-- Generator: Adobe Illustrator 26.4.1, SVG Export Plug-In . SVG Version: 6.00 Build 0)  -->
<svg version="1.1" id="Vrstva_1" xmlns="http://www.w3.org/2000/svg" xmlns:xlink="http://www.w3.org/1999/xlink" x="0px" y="0px"
	 viewBox="0 0 250 250" enable-background="new 0 0 250 250" xml:space="preserve">
<g>
	<g>
		<linearGradient id="SVGID_1_" gradientUnits="userSpaceOnUse" x1="121.8013" y1="62.3469" x2="193.4462" y2="62.3469">
			<stop  offset="0" style="stop-color:#F9B000"/>
			<stop  offset="0.6553" style="stop-color:#FB6035"/>
			<stop  offset="1" style="stop-color:#D93B33"/>
		</linearGradient>
		<path fill="url(#SVGID_1_)" d="M146.609,62.471c2.574,0.061,4.618,2.408,6.556,4.342c1.934,1.926,4.277,3.991,4.331,6.563
			c0.15,6.945-0.915,14.128,4.321,19.358c7.229,7.24,18.97,7.24,26.197,0c7.242-7.239,7.242-18.966,0-26.208
			c-5.252-5.274-12.484-4.228-19.479-4.273c-2.735-0.021-4.973-2.462-7.03-4.527c-1.713-1.713-3.924-3.458-3.978-5.739
			c-0.181-7.191,1.335-14.619-4.085-20.031c-7.231-7.234-18.966-7.234-26.2,0c-7.256,7.234-7.256,18.969,0,26.209
			C132.476,63.396,139.652,62.33,146.609,62.471z"/>

			<linearGradient id="SVGID_00000099646545422865091250000005963391784170880915_" gradientUnits="userSpaceOnUse" x1="56.5653" y1="127.5917" x2="128.2063" y2="127.5917">
			<stop  offset="0" style="stop-color:#F9B000"/>
			<stop  offset="0.6553" style="stop-color:#FB6035"/>
			<stop  offset="1" style="stop-color:#D93B33"/>
		</linearGradient>
		<path fill="url(#SVGID_00000099646545422865091250000005963391784170880915_)" d="M61.989,123.401
			c5.245,5.229,12.422,4.18,19.374,4.31c2.57,0.066,4.626,2.397,6.556,4.344c1.934,1.925,4.273,3.977,4.331,6.556
			c0.143,6.957-0.918,14.138,4.312,19.362c7.237,7.252,18.974,7.239,26.209,0c7.245-7.228,7.245-18.969,0-26.205
			c-5.261-5.262-12.483-4.24-19.477-4.278c-2.745-0.015-4.973-2.47-7.039-4.535c-1.713-1.699-3.916-3.448-3.982-5.728
			c-0.172-7.19,1.339-14.613-4.072-20.029c-7.227-7.228-18.97-7.228-26.213,0C54.757,104.433,54.757,116.162,61.989,123.401z"/>

			<linearGradient id="SVGID_00000145053803333362979290000018133992692272819634_" gradientUnits="userSpaceOnUse" x1="71.5792" y1="95.2407" x2="178.4376" y2="95.2407">
			<stop  offset="0" style="stop-color:#F9B000"/>
			<stop  offset="0.6553" style="stop-color:#FB6035"/>
			<stop  offset="1" style="stop-color:#D93B33"/>
		</linearGradient>
		<path fill="url(#SVGID_00000145053803333362979290000018133992692272819634_)" d="M96.376,77.761
			c2.568,0.053,4.617,2.397,6.559,4.342c1.937,1.926,4.274,3.981,4.338,6.548c0.013,0.917,0.013,1.836,0.004,2.76
			c-0.938,4.107-0.467,8.479,1.438,12.329c0.029,0.079,0.069,0.152,0.104,0.234c0.041,0.073,0.069,0.155,0.105,0.209
			c0.631,1.368,1.476,2.658,2.672,3.838c0.105,0.111,0.221,0.201,0.328,0.3c0.105,0.118,0.204,0.237,0.303,0.349
			c1.18,1.167,2.467,2.023,3.818,2.646c0.081,0.041,0.163,0.077,0.246,0.115c0.064,0.036,0.138,0.072,0.213,0.098
			c3.843,1.901,8.197,2.368,12.311,1.438c0.931,0,1.857,0,2.781,0.021c2.561,0.042,4.614,2.39,6.556,4.331
			c1.93,1.93,4.276,3.966,4.327,6.552c0.143,6.939-0.91,14.144,4.326,19.369c7.228,7.24,18.966,7.24,26.197-0.012
			c7.243-7.23,7.243-18.943,0.011-26.191c-5.269-5.278-12.499-4.245-19.493-4.277c-2.74-0.024-4.969-2.476-7.03-4.536
			c-1.713-1.716-3.921-3.454-3.979-5.744c-0.017-0.822-0.017-1.659-0.004-2.479c1.303-4.594,0.808-9.571-1.5-13.856
			c-0.605-1.295-1.43-2.532-2.582-3.688c-0.109-0.107-0.22-0.197-0.331-0.303c-0.103-0.115-0.199-0.222-0.303-0.328
			c-1.353-1.36-2.843-2.294-4.426-2.935c-3.809-1.854-8.132-2.301-12.208-1.379c-0.947,0.029-1.902,0.029-2.852,0.029
			c-2.745-0.018-4.97-2.473-7.039-4.532c-1.713-1.713-3.912-3.45-3.975-5.736c-0.18-7.202,1.336-14.622-4.088-20.034
			c-7.22-7.23-18.961-7.23-26.196,0c-7.245,7.234-7.237,18.966,0,26.2C82.249,78.687,89.427,77.621,96.376,77.761z"/>
	</g>
	<g>
		<path d="M40.754,178.689h2.298v34.229h-2.298V178.689z"/>
		<path d="M52.149,179.627h2.86v3.142h-2.86V179.627z M52.431,189.005h2.298v23.914h-2.298V189.005z"/>
		<path d="M63.31,216.857l1.36-1.875c2.86,2.203,6.143,3.376,9.659,3.376c5.486,0,9.378-3.142,9.378-9.284v-3.47
			c-2.063,2.954-5.251,5.532-9.987,5.532c-5.768,0-11.488-4.407-11.488-11.253v-0.094c0-6.894,5.721-11.348,11.488-11.348
			c4.783,0,8.018,2.532,9.987,5.346v-4.783h2.298v20.21c0,3.47-1.125,6.189-3.048,8.111c-2.063,2.063-5.158,3.189-8.675,3.189
			C70.296,220.516,66.592,219.296,63.31,216.857z M83.848,199.837v-0.094c0-5.533-4.923-9.097-9.894-9.097
			c-5.018,0-9.237,3.47-9.237,9.05v0.094c0,5.392,4.313,9.144,9.237,9.144C78.924,208.934,83.848,205.275,83.848,199.837z"/>
		<path d="M94.729,178.689h2.297v14.771c1.594-2.813,4.267-5.018,8.628-5.018c6.049,0,9.565,4.126,9.565,9.847v14.63h-2.298v-14.208
			c0-4.923-2.767-8.158-7.597-8.158c-4.688,0-8.299,3.563-8.299,8.533v13.833h-2.297V178.689z"/>
		<path d="M124.74,206.776v-15.661h-3.47v-2.11h3.47v-7.644h2.298v7.644h8.393v2.11h-8.393v15.427c0,3.423,2.016,4.642,4.782,4.642
			c1.173,0,2.157-0.234,3.517-0.844v2.157c-1.219,0.562-2.391,0.844-3.892,0.844C127.741,213.341,124.74,211.324,124.74,206.776z"/>
		<path d="M160.941,189.005h2.532l-10.363,24.758c-2.11,5.018-4.548,6.8-7.972,6.8c-1.828,0-3.142-0.329-4.735-1.032l0.797-2.016
			c1.267,0.609,2.298,0.891,4.079,0.891c2.485,0,4.127-1.454,5.908-5.627L139.7,189.005h2.673l9.94,21.382L160.941,189.005z"/>
		<path d="M165.305,208.934h3.095v3.985h-3.095V208.934z"/>
		<path d="M176.652,179.627h2.86v3.142h-2.86V179.627z M176.935,189.005h2.297v23.914h-2.297V189.005z"/>
		<path d="M186.642,201.056v-0.094c0-6.705,5.205-12.52,12.332-12.52c7.08,0,12.238,5.721,12.238,12.426v0.094
			c0,6.705-5.205,12.52-12.332,12.52C191.8,213.481,186.642,207.761,186.642,201.056z M208.727,201.056v-0.094
			c0-5.768-4.313-10.362-9.847-10.362c-5.674,0-9.753,4.642-9.753,10.269v0.094c0,5.768,4.313,10.362,9.847,10.362
			C204.647,211.324,208.727,206.683,208.727,201.056z"/>
	</g>
</g>
</svg>

