<?xml version="1.0" encoding="UTF-8" standalone="no"?><!-- Generator: Gravit.io --><svg xmlns="http://www.w3.org/2000/svg" xmlns:xlink="http://www.w3.org/1999/xlink" style="isolation:isolate" viewBox="0 0 1500 600" width="1500pt" height="600pt"><defs><clipPath id="_clipPath_wut2n0JkzC1BzqMqm3nu2xaWYIUl8Z9q"><rect width="1500" height="600"/></clipPath></defs><g clip-path="url(#_clipPath_wut2n0JkzC1BzqMqm3nu2xaWYIUl8Z9q)"><g opacity="0"><path d=" M 0 0 C 495 0 990 0 1500 0 C 1500 198 1500 396 1500 600 C 1005 600 510 600 0 600 C 0 402 0 204 0 0 Z " fill="rgb(254,254,254)"/></g><path d=" M 367.063 150.875 C 368.419 150.885 369.775 150.894 371.131 150.902 C 374.421 150.926 377.71 150.959 381 151 C 381.495 151.99 381.495 151.99 382 153 C 380.368 153.619 380.368 153.619 378.703 154.25 C 357.152 162.63 340.263 175.602 330.254 196.93 C 322.018 217.097 325.072 241.021 333.072 260.796 C 335.079 265.563 337.207 270.276 339.313 275 C 352.702 305.182 360.017 332.779 359 366 C 349.43 366 339.86 366 330 366 C 329.753 363.546 329.505 361.091 329.25 358.563 C 328.886 355.699 328.453 352.85 328 350 C 327.848 349.023 327.696 348.046 327.539 347.039 C 326.755 344.263 326.154 342.941 324 341 C 315.951 338.083 307.474 337.937 299 337.625 C 292.649 337.382 287.555 336.774 283 332 C 279.98 327.659 279.45 324.228 280 319 C 280.516 317.804 281.031 316.607 281.563 315.375 C 283.19 312.199 283.19 312.199 282.938 309.313 C 281.804 306.517 280.149 305.079 278 303 C 278 302.01 278 301.02 278 300 C 278.66 299.67 279.32 299.34 280 299 C 280 298.34 280 297.68 280 297 C 278.02 296.01 276.04 295.02 274 294 C 275.125 291.028 276.223 288.666 278 286 C 278.584 283.543 278.584 283.543 278 281 C 275.837 278.837 273.615 277.329 270.922 275.887 C 270.205 275.491 269.488 275.095 268.75 274.688 C 267.721 274.167 267.721 274.167 266.672 273.637 C 265 272 265 272 263.895 268.82 C 264.044 263.408 266.424 261.103 269.938 257.188 C 271.14 255.783 272.341 254.378 273.543 252.973 C 274.134 252.296 274.725 251.619 275.333 250.922 C 277.542 248.375 279.65 245.763 281.75 243.125 C 282.364 242.364 282.977 241.604 283.609 240.82 C 286.177 237.459 286.405 235.215 286 231 C 285.34 230.051 284.68 229.103 284 228.125 C 281.221 223.782 281.414 219.802 282.441 214.89 C 283.055 212.687 283.751 210.536 284.5 208.375 C 284.767 207.594 285.034 206.814 285.309 206.01 C 292.998 184.494 307.651 168.096 328.015 157.919 C 332.84 155.686 337.842 154.231 343 153 C 343.61 152.823 344.221 152.647 344.85 152.465 C 352.192 150.514 359.515 150.778 367.063 150.875 Z " fill="rgb(59,164,173)"/><path d=" M 433.959 155.17 C 455.937 164.108 471.926 178.618 481.539 200.504 C 487.93 216.631 487.93 216.631 487 225 C 485.686 227.013 484.353 229.013 483 231 C 482.363 234.823 482.656 236.431 484.664 239.758 C 487.226 243.314 489.986 246.585 492.875 249.875 C 493.94 251.112 495.004 252.35 496.066 253.59 C 497.75 255.552 499.443 257.502 501.152 259.441 C 503.788 262.611 504.909 264.426 505.562 268.562 C 503.38 273.363 500.061 274.959 495.566 277.52 C 492.941 278.886 492.941 278.886 491 281 C 491.252 285.629 491.696 287.846 495 291 C 495 293.062 495 293.062 494 295 C 491.5 296.125 491.5 296.125 489 297 C 488.67 297.66 488.34 298.32 488 299 C 488.99 299.33 489.98 299.66 491 300 C 490.582 302.928 490.148 303.869 487.875 305.875 C 485.656 307.896 485.656 307.896 486.125 310.937 C 486.91 313.939 486.91 313.939 488.062 316.437 C 489.698 320.907 489.438 324.632 488 329.125 C 485.262 333.061 482.418 335.129 478 337 C 473.492 337.794 469.007 337.971 464.437 338.125 C 453.776 338.309 453.776 338.309 444 342 C 439.944 349.133 439.867 357.996 439 366 C 429.43 366 419.86 366 410 366 C 409.61 329.969 417.788 301.152 432.566 268.262 C 441.612 248.06 447.963 224.783 441.102 202.754 C 433.138 182.844 419.818 167.092 399.956 158.072 C 395.685 156.251 391.361 154.592 387 153 C 398.934 145.918 421.507 150.406 433.959 155.17 Z " fill="rgb(106,179,94)"/><path d=" M 821 237 C 831.56 237 842.12 237 853 237 C 859.751 250.501 859.751 250.501 862.191 256.301 C 862.459 256.933 862.726 257.565 863.001 258.216 C 863.859 260.247 864.711 262.28 865.563 264.313 C 866.166 265.744 866.77 267.175 867.374 268.605 C 870.521 276.067 873.644 283.539 876.766 291.012 C 877.368 292.452 877.97 293.892 878.572 295.333 C 879.718 298.075 880.86 300.819 882 303.564 C 882.517 304.803 883.034 306.042 883.551 307.281 C 884.001 308.365 884.451 309.448 884.915 310.564 C 885.782 312.901 885.782 312.901 887 314 C 887.392 313.126 887.392 313.126 887.791 312.234 C 896.567 292.685 896.567 292.685 900.813 284.375 C 904.625 276.901 908.162 269.3 911.688 261.688 C 912.234 260.507 912.781 259.326 913.345 258.109 C 916.59 251.084 919.798 244.045 923 237 C 933.23 237 943.46 237 954 237 C 954 238.65 954 240.3 954 242 C 949.097 242.981 945.191 243 940 243 C 940 273.36 940 303.72 940 335 C 945.445 335.495 945.445 335.495 951 336 C 951.99 336.33 952.98 336.66 954 337 C 954 338.32 954 339.64 954 341 C 939.81 341 925.62 341 911 341 C 911 339.35 911 337.7 911 336 C 915.62 335.67 920.24 335.34 925 335 C 924.67 308.93 924.34 282.86 924 256 C 911.943 281.473 911.943 281.473 900 307 C 899.476 308.123 898.953 309.246 898.414 310.403 C 895.99 315.621 893.614 320.852 891.34 326.137 C 890.931 327.08 890.521 328.023 890.1 328.994 C 889.349 330.733 888.611 332.478 887.889 334.229 C 886.902 336.512 886.902 336.512 885 340 C 882.881 340.718 882.881 340.718 881 341 C 877.543 334.305 874.467 327.539 871.625 320.563 C 866.684 308.564 861.578 296.639 856.442 284.723 C 856.135 284.009 855.827 283.294 855.511 282.558 C 854.95 281.255 854.388 279.952 853.825 278.649 C 850.451 270.806 847.252 262.898 844 255 C 843.67 281.4 843.34 307.8 843 335 C 849.93 335.495 849.93 335.495 857 336 C 857 337.65 857 339.3 857 341 C 845.12 341 833.24 341 821 341 C 821.33 339.35 821.66 337.7 822 336 C 828.435 335.505 828.435 335.505 835 335 C 835 304.64 835 274.28 835 243 C 832.36 243 829.72 243 827 243 C 823.5 242 823.5 242 821 241 C 821 239.68 821 238.36 821 237 Z " fill="rgb(42,157,213)"/><path d=" M 1124 231 C 1132.58 231 1141.16 231 1150 231 C 1150 265.65 1150 300.3 1150 336 C 1152.64 336.33 1155.28 336.66 1158 337 C 1158 338.32 1158 339.64 1158 341 C 1151.4 341 1144.8 341 1138 341 C 1137.34 339.68 1136.68 338.36 1136 337 C 1135.051 337.619 1134.103 338.238 1133.125 338.875 C 1124.655 343.635 1115.398 343.637 1106 342 C 1099.789 340.136 1095.468 336.434 1092 331 C 1087.871 322.558 1086.819 315.039 1086.813 305.75 C 1086.8 304.846 1086.788 303.943 1086.775 303.012 C 1086.752 292.231 1088.723 282.436 1096.125 274.25 C 1100.159 270.434 1104.756 268.634 1110 267 C 1110.621 266.805 1111.243 266.611 1111.883 266.41 C 1114.835 265.838 1117.682 265.829 1120.688 265.813 C 1122.426 265.791 1122.426 265.791 1124.199 265.77 C 1128 266 1128 266 1137 268 C 1137 257.44 1137 246.88 1137 236 C 1132.71 235.67 1128.42 235.34 1124 235 C 1124 233.68 1124 232.36 1124 231 Z " fill="rgb(47,159,214)"/><path d=" M 671 231 C 678.92 231 686.84 231 695 231 C 695.33 254.76 695.66 278.52 696 303 C 703.844 295.207 703.844 295.207 711.199 287.086 C 714.125 283.697 717.161 280.407 720.18 277.102 C 722.037 275.133 722.037 275.133 723 273 C 720.69 272.67 718.38 272.34 716 272 C 716 270.68 716 269.36 716 268 C 724.58 268 733.16 268 742 268 C 742 269.32 742 270.64 742 272 C 741.359 272.124 740.719 272.248 740.059 272.375 C 733.924 273.838 730.785 275.637 726.938 280.594 C 724.508 283.611 721.819 286.285 719.063 289 C 718.565 289.493 718.068 289.986 717.555 290.494 C 716.372 291.665 715.186 292.833 714 294 C 715.314 297.546 716.875 300.584 718.938 303.75 C 719.552 304.7 720.167 305.65 720.801 306.629 C 721.146 307.158 721.491 307.686 721.846 308.231 C 723.631 310.967 725.404 313.71 727.178 316.452 C 728.119 317.905 729.061 319.358 730.004 320.81 C 730.671 321.838 730.671 321.838 731.352 322.887 C 731.792 323.561 732.232 324.235 732.686 324.929 C 733.587 326.349 734.456 327.79 735.297 329.247 C 735.716 329.966 736.135 330.685 736.566 331.426 C 736.932 332.076 737.297 332.726 737.674 333.396 C 740.153 336.395 743.281 336.496 747 337 C 747 338.32 747 339.64 747 341 C 737.1 341 727.2 341 717 341 C 717 339.68 717 338.36 717 337 C 719.97 336.505 719.97 336.505 723 336 C 716.873 325.854 710.695 315.784 704 306 C 703.051 306.763 702.103 307.526 701.125 308.313 C 700.324 308.956 700.324 308.956 699.508 309.613 C 697.293 311.65 696.086 313.361 695.681 316.36 C 695.65 317.266 695.618 318.172 695.586 319.105 C 695.547 320.088 695.509 321.071 695.469 322.084 C 695.438 323.108 695.407 324.132 695.375 325.188 C 695.336 326.223 695.298 327.259 695.258 328.326 C 695.164 330.884 695.078 333.442 695 336 C 698.465 336.495 698.465 336.495 702 337 C 702 338.32 702 339.64 702 341 C 692.1 341 682.2 341 672 341 C 672 339.68 672 338.36 672 337 C 676.455 336.505 676.455 336.505 681 336 C 680.67 303.33 680.34 270.66 680 237 C 675.545 236.01 675.545 236.01 671 235 C 671 233.68 671 232.36 671 231 Z " fill="rgb(47,159,214)"/><path d=" M 803.25 272.125 C 812.538 281.835 812 291.698 812 305 C 797.15 305 782.3 305 767 305 C 767.992 318.047 767.992 318.047 774 329 C 779.821 333.278 784.409 333.538 791.5 333.313 C 792.867 333.298 792.867 333.298 794.262 333.283 C 799.259 333.2 804.073 332.833 809 332 C 809 333.65 809 335.3 809 337 C 798.061 342.86 787.259 344.928 774.867 342.348 C 767.743 340.036 761.712 336.355 757.691 329.898 C 751.415 316.885 750.744 298.765 755 285 C 758.173 277.205 762.916 272.369 770.125 268.188 C 781.78 263.374 793.044 265.452 803.25 272.125 Z " fill="rgb(46,159,214)"/><path d=" M 531 237 C 545.85 237 560.7 237 576 237 C 576 238.65 576 240.3 576 242 C 568.08 242.495 568.08 242.495 560 243 C 560 273.03 560 303.06 560 334 C 574.52 333.67 589.04 333.34 604 333 C 605.32 326.4 606.64 319.8 608 313 C 608.33 312.34 608.66 311.68 609 311 C 610.65 311 612.3 311 614 311 C 614.028 313.375 614.047 315.75 614.063 318.125 C 614.075 319.094 614.075 319.094 614.088 320.082 C 614.121 327.135 613.508 333.887 613 341 C 586.27 341 559.54 341 532 341 C 532 339.35 532 337.7 532 336 C 538.435 335.505 538.435 335.505 545 335 C 545 304.64 545 274.28 545 243 C 542.36 243 539.72 243 537 243 C 533.5 242 533.5 242 531 241 C 531 239.68 531 238.36 531 237 Z " fill="rgb(42,157,213)"/><path d=" M 1062.207 268.656 C 1066.136 271.6 1068.465 275.396 1070 280 C 1070.088 281.825 1070.118 283.654 1070.114 285.481 C 1070.113 287.163 1070.113 287.163 1070.113 288.878 C 1070.108 290.087 1070.103 291.297 1070.098 292.543 C 1070.096 293.782 1070.095 295.02 1070.093 296.297 C 1070.089 299.586 1070.08 302.876 1070.069 306.165 C 1070.058 309.524 1070.054 312.882 1070.049 316.24 C 1070.038 322.827 1070.021 329.413 1070 336 C 1072.97 336.33 1075.94 336.66 1079 337 C 1079 338.32 1079 339.64 1079 341 C 1068.44 341 1057.88 341 1047 341 C 1047 339.68 1047 338.36 1047 337 C 1051.95 336.505 1051.95 336.505 1057 336 C 1056.956 328.704 1056.886 321.409 1056.792 314.113 C 1056.764 311.632 1056.743 309.151 1056.729 306.669 C 1056.708 303.099 1056.661 299.531 1056.609 295.961 C 1056.608 294.854 1056.607 293.748 1056.606 292.608 C 1056.489 286.475 1056.178 282.634 1052 278 C 1048.627 276.314 1044.83 276.858 1041.125 276.875 C 1040.309 276.871 1039.493 276.867 1038.652 276.863 C 1037.862 276.865 1037.072 276.866 1036.258 276.867 C 1035.177 276.869 1035.177 276.869 1034.075 276.871 C 1031.65 276.959 1031.65 276.959 1028 278 C 1028 296.81 1028 315.62 1028 335 C 1032.455 335.99 1032.455 335.99 1037 337 C 1037 338.32 1037 339.64 1037 341 C 1026.77 341 1016.54 341 1006 341 C 1006 339.68 1006 338.36 1006 337 C 1008.64 336.67 1011.28 336.34 1014 336 C 1014 315.54 1014 295.08 1014 274 C 1009.545 273.01 1009.545 273.01 1005 272 C 1005 270.68 1005 269.36 1005 268 C 1012.26 268 1019.52 268 1027 268 C 1027.33 269.65 1027.66 271.3 1028 273 C 1028.701 272.662 1029.402 272.325 1030.125 271.977 C 1040.433 267.131 1051.441 262.639 1062.207 268.656 Z " fill="rgb(43,157,213)"/><g opacity="0.98"><path d=" M 1119.125 272.867 C 1120.308 272.865 1120.308 272.865 1121.516 272.863 C 1122.745 272.869 1122.745 272.869 1124 272.875 C 1124.82 272.871 1125.64 272.867 1126.484 272.863 C 1127.273 272.865 1128.062 272.866 1128.875 272.867 C 1129.594 272.868 1130.314 272.869 1131.055 272.871 C 1133 273 1133 273 1136 274 C 1136 293.14 1136 312.28 1136 332 C 1130.946 333.685 1127.177 334.365 1122 334.375 C 1121.314 334.399 1120.628 334.424 1119.922 334.449 C 1113.659 334.485 1110.237 332.109 1105.813 327.938 C 1099.097 317.054 1099.612 302.321 1101.656 290.066 C 1103.483 283.257 1106.115 278.096 1112 274 C 1114.721 273.093 1116.327 272.872 1119.125 272.867 Z " fill="rgb(253,254,254)"/></g><path d=" M 1191.625 265.75 C 1192.676 265.756 1192.676 265.756 1193.748 265.762 C 1199.666 265.859 1205.216 266.715 1211 268 C 1211 273.61 1211 279.22 1211 285 C 1209.68 285 1208.36 285 1207 285 C 1206.654 284.06 1206.654 284.06 1206.301 283.102 C 1205.975 282.284 1205.649 281.467 1205.313 280.625 C 1204.999 279.813 1204.686 279.001 1204.363 278.164 C 1202.563 275.306 1201.239 274.866 1198 274 C 1192.173 273.315 1186.874 272.939 1181.688 275.875 C 1179.678 279.596 1179.362 282.328 1179.238 286.5 C 1180.381 290.249 1182.775 292.025 1186 294 C 1190.087 295.897 1194.326 297.365 1198.568 298.873 C 1205.464 301.453 1210.33 304.613 1214.906 310.418 C 1217.408 316.324 1217.237 324.59 1215.051 330.617 C 1211.713 336.197 1207.236 340.023 1201 342 C 1190.02 344.678 1178.755 342.742 1168 340 C 1167 339 1167 339 1166.886 337.234 C 1166.892 336.485 1166.897 335.736 1166.902 334.965 C 1166.906 334.156 1166.909 333.347 1166.912 332.514 C 1166.92 331.664 1166.929 330.813 1166.938 329.938 C 1166.942 329.083 1166.947 328.229 1166.951 327.35 C 1166.963 325.233 1166.981 323.117 1167 321 C 1168.32 321 1169.64 321 1171 321 C 1171.291 321.759 1171.583 322.519 1171.883 323.301 C 1172.498 324.792 1172.498 324.792 1173.125 326.313 C 1173.519 327.299 1173.914 328.285 1174.32 329.301 C 1176.473 332.76 1178.189 333.629 1182 335 C 1187.789 335.73 1194.681 336.434 1199.813 333.188 C 1202.793 330.207 1203.181 327.69 1203.313 323.625 C 1203.247 320.519 1203.018 319.037 1201.625 316.188 C 1197.808 313.007 1193.637 311.672 1189 310 C 1171.011 302.949 1171.011 302.949 1167.699 295.473 C 1166.044 289.619 1165.824 283.295 1167.883 277.527 C 1170.656 272.614 1173.944 270.347 1179 268 C 1179.74 267.642 1180.48 267.283 1181.242 266.914 C 1184.73 265.758 1187.993 265.702 1191.625 265.75 Z " fill="rgb(45,158,214)"/><path d=" M 963 268 C 970.92 268 978.84 268 987 268 C 987 290.44 987 312.88 987 336 C 989.31 336 991.62 336 994 336 C 995.676 336.285 997.348 336.6 999 337 C 999 338.32 999 339.64 999 341 C 986.46 341 973.92 341 961 341 C 961 339.68 961 338.36 961 337 C 965.226 335.591 968.109 336 973 336 C 972.67 315.54 972.34 295.08 972 274 C 967.545 273.01 967.545 273.01 963 272 C 963 270.68 963 269.36 963 268 Z " fill="rgb(53,162,215)"/><path d=" M 629 268 C 636.59 268 644.18 268 652 268 C 652 290.44 652 312.88 652 336 C 656.29 336.33 660.58 336.66 665 337 C 665 338.32 665 339.64 665 341 C 652.46 341 639.92 341 627 341 C 627 339.68 627 338.36 627 337 C 631.265 335.966 634.373 336 639 336 C 638.67 315.54 638.34 295.08 638 274 C 635.36 273.67 632.72 273.34 630 273 C 629.67 271.35 629.34 269.7 629 268 Z " fill="rgb(44,158,213)"/><path d=" M 788 273 C 792.779 275.034 794.998 277.89 797.188 282.5 C 798 286 798 286 798 298 C 787.77 298 777.54 298 767 298 C 767 289.396 767.773 281.665 774.125 275.313 C 778.425 272.106 782.853 272.117 788 273 Z " fill="rgb(250,253,253)"/><path d=" M 1206 372 C 1205.356 378.497 1204.389 384.845 1203.125 391.25 C 1202.964 392.121 1202.803 392.993 1202.637 393.891 C 1201.743 398.434 1200.915 402.271 1198 406 C 1192.134 409.336 1187.069 409.814 1180.5 408.5 C 1180.005 408.335 1179.51 408.17 1179 408 C 1179 406.35 1179 404.7 1179 403 C 1179.846 403.33 1180.691 403.66 1181.563 404 C 1185.743 405.216 1189.978 406.011 1194 404 C 1194.627 401.835 1195.154 399.641 1195.625 397.438 C 1195.885 396.24 1196.146 395.042 1196.414 393.809 C 1196.607 392.882 1196.801 391.955 1197 391 C 1196.576 391.494 1196.152 391.987 1195.715 392.496 C 1192.618 395.878 1190.754 397.786 1186.25 399.063 C 1183 399 1183 399 1180 397 C 1178.733 391.255 1179.439 386.095 1182.563 381.125 C 1189.476 372.211 1194.751 371.239 1206 372 Z " fill="rgb(114,187,75)"/><path d=" M 998 372 C 1001.38 373.188 1001.932 373.898 1004 377 C 1004.903 383.436 1003.385 387.378 999.836 392.785 C 997.032 396.167 994.28 397.992 990 399 C 986.848 399.259 985.15 398.908 982 398 C 979.196 395.108 979.014 393.128 978.563 389.125 C 978.817 383.704 981.012 379.953 984.801 376.23 C 989.157 372.619 992.178 371.104 998 372 Z " fill="rgb(119,189,80)"/><path d=" M 364.488 389.871 C 365.443 389.867 366.397 389.864 367.38 389.861 C 368.419 389.863 369.457 389.865 370.527 389.867 C 372.116 389.866 372.116 389.866 373.737 389.864 C 375.983 389.864 378.228 389.865 380.473 389.87 C 383.919 389.875 387.365 389.87 390.811 389.863 C 392.987 389.864 395.163 389.865 397.34 389.867 C 398.376 389.865 399.413 389.863 400.481 389.861 C 401.438 389.864 402.396 389.867 403.383 389.871 C 404.228 389.871 405.073 389.872 405.944 389.873 C 408 390 408 390 410 391 C 410.125 393.375 410.125 393.375 410 396 C 407.524 398.476 406.807 398.252 403.398 398.259 C 401.967 398.268 401.967 398.268 400.506 398.278 C 399.473 398.274 398.44 398.27 397.375 398.266 C 396.317 398.268 395.259 398.269 394.169 398.271 C 391.93 398.273 389.691 398.269 387.451 398.261 C 384.014 398.25 380.578 398.261 377.141 398.273 C 374.969 398.272 372.797 398.27 370.625 398.266 C 369.592 398.27 368.558 398.274 367.494 398.278 C 366.539 398.272 365.585 398.265 364.602 398.259 C 363.759 398.257 362.917 398.256 362.049 398.254 C 360 398 360 398 358 396 C 358.653 390.649 359.223 389.876 364.488 389.871 Z " fill="rgb(59,159,162)"/><path d=" M 364.488 379.871 C 365.443 379.867 366.397 379.864 367.38 379.861 C 368.419 379.863 369.457 379.865 370.527 379.867 C 372.116 379.866 372.116 379.866 373.737 379.864 C 375.983 379.864 378.228 379.865 380.473 379.87 C 383.919 379.875 387.365 379.87 390.811 379.863 C 392.987 379.864 395.163 379.865 397.34 379.867 C 398.376 379.865 399.413 379.863 400.481 379.861 C 401.438 379.864 402.396 379.867 403.383 379.871 C 404.228 379.871 405.073 379.872 405.944 379.873 C 408 380 408 380 410 381 C 410.125 383.375 410.125 383.375 410 386 C 407.524 388.476 406.807 388.252 403.398 388.259 C 401.967 388.268 401.967 388.268 400.506 388.278 C 399.473 388.274 398.44 388.27 397.375 388.266 C 396.317 388.268 395.259 388.269 394.169 388.271 C 391.93 388.273 389.691 388.269 387.451 388.261 C 384.014 388.25 380.578 388.261 377.141 388.273 C 374.969 388.272 372.797 388.27 370.625 388.266 C 369.592 388.27 368.558 388.274 367.494 388.278 C 366.539 388.272 365.585 388.265 364.602 388.259 C 363.759 388.257 362.917 388.256 362.049 388.254 C 360 388 360 388 358 386 C 358.653 380.649 359.223 379.876 364.488 379.871 Z " fill="rgb(59,159,162)"/><path d=" M 364.488 369.871 C 365.443 369.867 366.397 369.864 367.38 369.861 C 368.419 369.863 369.457 369.865 370.527 369.867 C 372.116 369.866 372.116 369.866 373.737 369.864 C 375.983 369.864 378.228 369.865 380.473 369.87 C 383.919 369.875 387.365 369.87 390.811 369.863 C 392.987 369.864 395.163 369.865 397.34 369.867 C 398.376 369.865 399.413 369.863 400.481 369.861 C 401.438 369.864 402.396 369.867 403.383 369.871 C 404.228 369.871 405.073 369.872 405.944 369.873 C 408 370 408 370 410 371 C 410.125 373.375 410.125 373.375 410 376 C 407.524 378.476 406.807 378.252 403.398 378.259 C 401.967 378.268 401.967 378.268 400.506 378.278 C 399.473 378.274 398.44 378.27 397.375 378.266 C 396.317 378.268 395.259 378.269 394.169 378.271 C 391.93 378.273 389.691 378.269 387.451 378.261 C 384.014 378.25 380.578 378.261 377.141 378.273 C 374.969 378.272 372.797 378.27 370.625 378.266 C 369.592 378.27 368.558 378.274 367.494 378.278 C 366.539 378.272 365.585 378.265 364.602 378.259 C 363.759 378.257 362.917 378.256 362.049 378.254 C 360 378 360 378 358 376 C 358.653 370.649 359.223 369.876 364.488 369.871 Z " fill="rgb(59,159,162)"/><path d=" M 1010 372 C 1012.97 372 1015.94 372 1019 372 C 1018.67 374.64 1018.34 377.28 1018 380 C 1018.568 379.411 1019.137 378.822 1019.723 378.215 C 1025.954 372.15 1025.954 372.15 1029.156 371.691 C 1031.063 372 1031.063 372 1034 373 C 1035.389 378.468 1034.453 382.565 1033.063 387.875 C 1032.867 388.659 1032.672 389.443 1032.471 390.25 C 1031.991 392.169 1031.497 394.085 1031 396 C 1031.99 396 1032.98 396 1034 396 C 1034 396.99 1034 397.98 1034 399 C 1031.36 399 1028.72 399 1026 399 C 1026.516 391.212 1027.449 383.651 1029 376 C 1022.464 378.232 1019.176 383.025 1016 389 C 1014.979 392.316 1014.359 395.552 1014 399 C 1012.35 399 1010.7 399 1009 399 C 1009.714 390.863 1011.328 382.983 1013 375 C 1012.01 375 1011.02 375 1010 375 C 1010 374.01 1010 373.02 1010 372 Z " fill="rgb(116,188,76)"/><path d=" M 1149 372 C 1151.97 372 1154.94 372 1158 372 C 1157.67 374.64 1157.34 377.28 1157 380 C 1157.568 379.411 1158.137 378.822 1158.723 378.215 C 1164.954 372.15 1164.954 372.15 1168.156 371.691 C 1170.063 372 1170.063 372 1173 373 C 1174.389 378.468 1173.453 382.565 1172.063 387.875 C 1171.867 388.659 1171.672 389.443 1171.471 390.25 C 1170.991 392.169 1170.497 394.085 1170 396 C 1170.99 396 1171.98 396 1173 396 C 1173 396.99 1173 397.98 1173 399 C 1170.36 399 1167.72 399 1165 399 C 1165.516 391.212 1166.449 383.651 1168 376 C 1161.464 378.232 1158.176 383.025 1155 389 C 1153.979 392.316 1153.359 395.552 1153 399 C 1151.35 399 1149.7 399 1148 399 C 1148.714 390.863 1150.328 382.983 1152 375 C 1151.01 375 1150.02 375 1149 375 C 1149 374.01 1149 373.02 1149 372 Z " fill="rgb(115,188,76)"/><path d=" M 1066 372 C 1068.64 372 1071.28 372 1074 372 C 1073.25 379.377 1072.166 386.678 1071 394 C 1074.363 393.712 1075.736 393.262 1078.168 390.848 C 1082.638 384.683 1085.337 379.645 1086 372 C 1087.65 372 1089.3 372 1091 372 C 1089.909 380.058 1088.722 388.051 1087 396 C 1087.99 396 1088.98 396 1090 396 C 1090 396.99 1090 397.98 1090 399 C 1087.03 399 1084.06 399 1081 399 C 1081.33 396.36 1081.66 393.72 1082 391 C 1081.238 391.741 1081.238 391.741 1080.461 392.496 C 1077.283 395.454 1074.841 397.715 1070.688 399.125 C 1068 399 1068 399 1066.289 397.914 C 1064.286 394.94 1065.104 392.711 1065.688 389.25 C 1065.895 388.005 1066.103 386.76 1066.316 385.477 C 1067.023 381.885 1067.843 378.47 1069 375 C 1068.01 375 1067.02 375 1066 375 C 1066 374.01 1066 373.02 1066 372 Z " fill="rgb(114,187,74)"/><path d=" M 977 364 C 976.67 366.31 976.34 368.62 976 371 C 975.01 371 974.02 371 973 371 C 972.67 369.68 972.34 368.36 972 367 C 965.222 365.767 965.222 365.767 958.688 367.438 C 953.857 372.043 950.4 377.241 949.832 384 C 949.738 389.304 949.738 389.304 952 394 C 956.259 396.839 960.002 396.403 965 396 C 968.461 395.129 968.461 395.129 971 394 C 971 394.99 971 395.98 971 397 C 964.627 399.886 958.997 400.961 952 400 C 948.432 398.31 946.622 397.262 944.875 393.715 C 943.073 388.124 942.975 382.01 944.875 376.43 C 948.183 370.009 952.622 365.402 959.313 362.625 C 965.466 361.582 971.433 360.775 977 364 Z " fill="rgb(115,188,75)"/><path d=" M 367 401 C 377.89 401 388.78 401 400 401 C 397.424 408.728 397.424 408.728 394 411 C 390.676 411.583 387.43 411.558 384.063 411.5 C 383.169 411.515 382.275 411.531 381.354 411.547 C 377.251 411.523 374.633 411.349 370.996 409.344 C 369 407 369 407 367 401 Z " fill="rgb(60,159,164)"/><path d=" M 982 236 C 985.635 238.608 986.834 240.07 987.625 244.5 C 986.834 248.93 985.635 250.392 982 253 C 978.201 253.712 976.563 253.313 973.188 251.438 C 970.309 248.23 969.925 246.285 970 242 C 973.276 236.804 975.869 235.279 982 236 Z " fill="rgb(45,158,214)"/><path d=" M 644 235.5 C 647.33 236.055 649.301 236.995 652 239 C 653.745 242.491 652.863 246.291 652 250 C 649.716 252.898 648.211 252.966 644.563 253.563 C 641 253 641 253 638.063 250.375 C 635.812 246.692 635.106 245.203 636 241 C 638.465 237.665 639.868 236.189 644 235.5 Z " fill="rgb(45,158,214)"/><path d=" M 996 375 C 998.48 377.48 998.297 378.328 998.313 381.75 C 998.194 387.246 997.011 390.922 993.125 394.938 C 991 396 991 396 988.375 395.813 C 986 395 986 395 984 393 C 983.356 386.771 984.368 382.175 988 377 C 991.224 374.851 992.267 374.617 996 375 Z " fill="rgb(249,252,247)"/><path d=" M 1101 360 C 1103.97 360 1106.94 360 1110 360 C 1109.227 366.96 1107.893 373.728 1106.461 380.578 C 1105.406 385.711 1104.579 390.792 1104 396 C 1104.99 396 1105.98 396 1107 396 C 1107 396.99 1107 397.98 1107 399 C 1104.03 399 1101.06 399 1098 399 C 1099.005 389.9 1100.269 381.018 1102.316 372.086 C 1102.985 369.068 1103.519 366.053 1104 363 C 1103.01 363 1102.02 363 1101 363 C 1101 362.01 1101 361.02 1101 360 Z " fill="rgb(116,188,77)"/><path d=" M 1059.5 372.5 C 1059.995 372.665 1060.49 372.83 1061 373 C 1060.67 374.32 1060.34 375.64 1060 377 C 1059.01 377 1058.02 377 1057 377 C 1057 376.34 1057 375.68 1057 375 C 1054.69 375.33 1052.38 375.66 1050 376 C 1049.703 379.061 1049.62 380.506 1051.531 382.992 C 1052.181 383.614 1052.831 384.235 1053.5 384.875 C 1056.076 387.601 1057.492 389.179 1057.438 393 C 1057.293 393.99 1057.149 394.98 1057 396 C 1052.397 398.951 1049.286 399.214 1044.051 398.617 C 1041.649 397.895 1040.607 396.888 1039 395 C 1039.495 393.515 1039.495 393.515 1040 392 C 1040.99 392 1041.98 392 1043 392 C 1043 392.99 1043 393.98 1043 395 C 1045.64 395 1048.28 395 1051 395 C 1052.132 392.869 1052.132 392.869 1052 390 C 1050.529 388.279 1050.529 388.279 1048.625 386.625 C 1045.83 384.049 1045.02 383.06 1043.75 379.313 C 1044 376 1044 376 1045.938 373.563 C 1050.563 371.203 1054.392 371.478 1059.5 372.5 Z " fill="rgb(114,187,74)"/><path d=" M 1124 366 C 1124 367.98 1124 369.96 1124 372 C 1125.65 372 1127.3 372 1129 372 C 1129 372.99 1129 373.98 1129 375 C 1126.69 375 1124.38 375 1122 375 C 1121.939 375.678 1121.879 376.356 1121.816 377.055 C 1121.248 383.374 1120.644 389.688 1120 396 C 1121.65 395.67 1123.3 395.34 1125 395 C 1125 395.99 1125 396.98 1125 398 C 1122.211 399.394 1120.079 399.257 1117 399 C 1112.877 392.815 1115.194 385.015 1116.563 378.09 C 1116.707 377.4 1116.851 376.711 1117 376 C 1116.01 375.67 1115.02 375.34 1114 375 C 1114 374.01 1114 373.02 1114 372 C 1115.65 372 1117.3 372 1119 372 C 1119 370.35 1119 368.7 1119 367 C 1122.875 366 1122.875 366 1124 366 Z " fill="rgb(115,188,76)"/><path d=" M 1199 375 C 1200 376 1200 376 1200.262 378.738 C 1199.958 382.52 1199.025 384.145 1196.813 387.188 C 1196.221 388.027 1195.629 388.866 1195.02 389.73 C 1192.843 392.177 1190.968 393.623 1188 395 C 1187.01 394.67 1186.02 394.34 1185 394 C 1184.493 386.897 1185.836 381.848 1190.41 376.285 C 1193.054 374.148 1195.75 374.759 1199 375 Z " fill="rgb(250,252,249)"/><path d=" M 1134 372 C 1136.97 372 1139.94 372 1143 372 C 1141.68 379.92 1140.36 387.84 1139 396 C 1139.66 396 1140.32 396 1141 396 C 1141 396.99 1141 397.98 1141 399 C 1138.36 399 1135.72 399 1133 399 C 1133.714 390.863 1135.328 382.983 1137 375 C 1136.01 375 1135.02 375 1134 375 C 1134 374.01 1134 373.02 1134 372 Z " fill="rgb(114,187,74)"/><path d=" M 987 376 C 987.66 376.33 988.32 376.66 989 377 C 988.567 377.727 988.567 377.727 988.125 378.469 C 985.282 383.601 984.393 387.137 985 393 C 987.139 395.139 988.133 395.427 991 396 C 990.67 396.99 990.34 397.98 990 399 C 982.618 398.637 982.618 398.637 980 395.938 C 978.481 391.475 978.308 387.422 979.625 382.813 C 981.718 380.054 984.276 378.132 987 376 Z " fill="rgb(112,186,72)"/><path d=" M 1140 363 C 1141.32 363 1142.64 363 1144 363 C 1144 364.65 1144 366.3 1144 368 C 1142.35 368 1140.7 368 1139 368 C 1139.33 366.35 1139.66 364.7 1140 363 Z " fill="rgb(109,185,68)"/><path d=" M 1191 373 C 1191.66 373.33 1192.32 373.66 1193 374 C 1187.857 379.571 1187.857 379.571 1184 380 C 1186.219 377.092 1187.93 375.047 1191 373 Z " fill="rgb(126,193,90)"/></g></svg>