<svg xmlns="http://www.w3.org/2000/svg" width="286" height="62" viewBox="0 0 286 62" fill="none"><path d="M18.4677 44.9509H14.2512L12.1429 48.5875H16.3595L18.4677 44.9509Z" fill="#F79133"></path><path d="M15.4118 39.6813H11.1964L9.08811 43.3168H13.3046L15.4118 39.6813Z" fill="#F79133"></path><path d="M21.5225 39.6813H17.3071L15.1988 43.3168H19.4143L21.5225 39.6813Z" fill="#F79133"></path><path d="M44.5269 0H40.3114L18.2536 38.0472H22.4701L44.5269 0Z" fill="#F79133"></path><path d="M24.3643 38.0472H67.8005L71.8866 31L53.915 0H46.421L24.3643 38.0472Z" fill="#F79133"></path><path d="M8.14051 44.9509L8.11401 44.9963L10.1958 48.5875H10.2488L12.357 44.9509H8.14051Z" fill="#F79133"></path><path d="M11.1964 50.2215L11.1699 50.2669L13.2516 53.8581H13.3036L15.4118 50.2215H11.1964Z" fill="#F79133"></path><path d="M60.7433 50.2215H17.3071L15.1988 53.8581H58.635L60.7433 50.2215Z" fill="#F79133"></path><path d="M4.13809 38.0472L26.1959 0H17.9717L0 31L4.08509 38.0472H4.13809Z" fill="#F79133"></path><path d="M23.4167 39.6813L21.3095 43.3168H64.7457L66.8529 39.6813H23.4167Z" fill="#F79133"></path><path d="M14.2512 55.4911L14.2247 55.5365L17.9717 62L53.915 61.9989L57.6874 55.4911H14.2512Z" fill="#F79133"></path><path d="M12.1429 38.0472H16.3595L38.4162 0H34.2007L12.1429 38.0472Z" fill="#F79133"></path><path d="M6.0333 38.0472H10.2488L32.3055 0H28.0901L6.0333 38.0472Z" fill="#F79133"></path><path d="M5.0592 39.7267L7.14096 43.3168H7.19396L9.30117 39.6813H5.0857L5.0592 39.7267Z" fill="#F79133"></path><path d="M20.3619 44.9509L18.2536 48.5875H61.6898L63.7981 44.9509H20.3619Z" fill="#F79133"></path><path d="M92.3312 10.0441H100.555V45.3246H118.301V51.9548H92.3312V10.0441Z" fill="#111111"></path><path d="M126.71 10.0441H134.934V51.9548H126.71V10.0441Z" fill="#111111"></path><path d="M146.756 10.0441H157.657L175.305 41.4178H175.435V10.0441H183.66V51.9548H173.216L155.111 19.5752H154.98V51.9548H146.756V10.0441Z" fill="#111111"></path><path d="M195.046 10.0441H212.105C213.845 10.0441 215.564 10.232 217.261 10.6067C218.958 10.9825 220.47 11.5937 221.798 12.4414C223.125 13.2901 224.202 14.3858 225.03 15.7264C225.856 17.0681 226.27 18.6863 226.27 20.5801C226.27 22.9478 225.529 24.9018 224.051 26.4408C222.571 27.9799 220.634 29.0851 218.241 29.7554V29.8737C221.156 30.2284 223.549 31.2555 225.421 32.9518C227.292 34.6492 228.228 36.9177 228.228 39.7594C228.228 42.049 227.727 43.9723 226.727 45.5315C225.725 47.0906 224.41 48.3436 222.778 49.2905C221.145 50.2374 219.274 50.9182 217.164 51.3331C215.053 51.7479 212.91 51.9548 210.734 51.9548H195.046V10.0441ZM203.271 27.0932H209.626C212.368 27.0932 214.456 26.6002 215.892 25.6132C217.328 24.6273 218.046 23.2255 218.046 21.4109C218.046 19.5963 217.305 18.1754 215.826 17.3858C214.347 16.5973 212.04 16.2015 208.907 16.2015H203.271V27.0932ZM203.271 45.6803H209.69C210.734 45.6803 211.865 45.6117 213.084 45.4734C214.302 45.3351 215.424 45.0501 216.446 44.6152C217.468 44.1814 218.317 43.549 218.992 42.7204C219.667 41.8917 220.005 40.7876 220.005 39.4058C220.005 37.1964 219.178 35.6573 217.524 34.7886C215.87 33.9209 213.368 33.486 210.018 33.486H203.272V45.6803H203.271Z" fill="#111111"></path><path d="M238.334 10.0441H246.558V51.9548H238.334V10.0441Z" fill="#111111"></path><path d="M254.603 16.5561V10.0441H286V16.5561H274.285V51.9548H266.061V16.5561H254.603Z" fill="#111111"></path></svg>