<svg xmlns="http://www.w3.org/2000/svg" role="img" viewBox="339.29 437.79 920.92 723.92"><path fill="#b44256" d="M607.345 744.718L800 841.015V648.421z"/><path fill="#b44256" d="M800 455.827l-192.655 96.297L800 648.421l192.655-96.297z"/><path fill="#c46878" d="M800 648.421l192.655 96.297V552.124z"/><path fill="#942e29" d="M800 841.015l192.655-96.297L800 648.421z"/><path d="M394.078 946.212h-36.986v197.278h115.613v-36.986h-78.627z"/><path d="M949.505 1143.49h36.986V946.212h-36.986z"/><clipPath id="a"><path d="M0 1600h1600V0H0z" transform="matrix(1 0 0 -1 0 1600)"/></clipPath><g clip-path="url(#a)"><path d="M590.249 1106.385c-33.96 0-61.591-27.632-61.591-61.591 0-33.96 27.631-61.592 61.591-61.592 33.959 0 61.591 27.632 61.591 61.592 0 33.959-27.632 61.591-61.591 61.591m0-160.169c-54.356 0-98.578 44.221-98.578 98.578 0 54.356 44.222 98.577 98.578 98.577s98.578-44.221 98.578-98.577c0-54.357-44.222-98.578-98.578-98.578"/><path d="M814.144 1063.348h47.32v29.925c-10.832 8.578-24.146 13.231-38.174 13.231-33.996 0-61.653-27.657-61.653-61.649 0-33.996 27.657-61.653 61.653-61.653 17.947 0 34.974 7.806 46.709 21.412l28.007-24.157c-18.767-21.762-46.002-34.241-74.716-34.241-54.39 0-98.64 44.25-98.64 98.639 0 54.389 44.25 98.635 98.64 98.635 26.349 0 51.12-10.262 69.747-28.892l5.414-5.418v-82.818h-68.172z"/><path d="M1187.26 1068.462l-27.026-23.12-24.041 28.109 27.202 23.27c-9.548 6.086-20.844 9.664-32.982 9.664-33.96 0-61.591-27.632-61.591-61.591 0-33.96 27.631-61.592 61.591-61.592s61.592 27.632 61.592 61.592c0 8.383-1.697 16.376-4.745 23.668m28.958 24.771c8.115-14.317 12.773-30.84 12.773-48.439 0-54.357-44.221-98.578-98.578-98.578-54.356 0-98.577 44.221-98.577 98.578 0 54.356 44.221 98.577 98.577 98.577 23.425 0 44.955-8.227 61.888-21.924l26.565 22.726 24.042-28.108z"/></g></svg>