<svg id="Layer_1" data-name="Layer 1" xmlns="http://www.w3.org/2000/svg" viewBox="0 0 795.25 149.95"><defs><style>.cls-1{fill:#1c2841;}.cls-2{fill:#0076ff;}</style></defs><title>LogicMonitor logo vector</title><path class="cls-1" d="M609.28,2.42,595.56,4.06a1.63,1.63,0,0,0-1.63,1.63v16.5a1.63,1.63,0,0,0,1.63,1.63l13.72-1.63a1.63,1.63,0,0,0,1.64-1.63V4.06a1.63,1.63,0,0,0-1.64-1.64"/><path class="cls-1" d="M492.32,86.72c0,10.67-5.56,15.85-17,15.85s-17-5.18-17-15.85v-24c0-10.66,5.56-15.85,17-15.85s17,5.19,17,15.85Zm-17-55c-21.59,0-34,11.49-34,31.53v23c0,20,12.39,31.53,34,31.53s34-11.49,34-31.53v-23c0-20-12.39-31.53-34-31.53"/><path class="cls-1" d="M564.36,31.67c-9.41,0-22.11,3.87-30.81,7.76l-.91-4.8A1.64,1.64,0,0,0,531,33.3l-11.12,1.64a1.62,1.62,0,0,0-1.63,1.63v77.92a1.63,1.63,0,0,0,1.63,1.64h13.73a1.63,1.63,0,0,0,1.63-1.64V55.38c8-4,19.44-7.38,25-7.38,4.35,0,6,1.61,6,5.72v60.77a1.63,1.63,0,0,0,1.64,1.64h13.72a1.63,1.63,0,0,0,1.63-1.64V53.56c0-14.53-6.37-21.89-18.95-21.89"/><path class="cls-1" d="M793.62,33.34a69.8,69.8,0,0,0-25.91,6.09l-.92-4.8a1.64,1.64,0,0,0-1.6-1.33l-11.11,1.63a1.63,1.63,0,0,0-1.64,1.64V114.5a1.63,1.63,0,0,0,1.64,1.63H767.8a1.63,1.63,0,0,0,1.64-1.63V55.38c7.32-3.64,17.65-5.87,24.18-6.5a1.78,1.78,0,0,0,1.63-1.73V34.93a1.58,1.58,0,0,0-1.63-1.59"/><path class="cls-1" d="M609.28,31.67,595.56,33.3a1.63,1.63,0,0,0-1.63,1.64v79.55a1.63,1.63,0,0,0,1.63,1.64h13.72a1.63,1.63,0,0,0,1.64-1.64V33.3a1.63,1.63,0,0,0-1.64-1.63"/><path class="cls-1" d="M669.47,101.2a1.64,1.64,0,0,0-1.29-.21,48.54,48.54,0,0,1-12.34,1.91c-6,0-6.54-1.76-6.54-7.19V48h19.77a1.64,1.64,0,0,0,1.63-1.47l1.14-11.43a1.63,1.63,0,0,0-1.63-1.8H649.3V13.37a1.62,1.62,0,0,0-1.86-1.62l-13.72,2a1.64,1.64,0,0,0-1.41,1.62v18H619.9a1.64,1.64,0,0,0-1.64,1.64V46.37A1.64,1.64,0,0,0,619.9,48h12.41V98c0,13.67,6.61,19.77,21.41,19.77a51.11,51.11,0,0,0,17.22-3,1.63,1.63,0,0,0,1-1.8l-1.8-10.62a1.6,1.6,0,0,0-.72-1.1"/><path class="cls-1" d="M725.92,86.72c0,10.67-5.55,15.85-17,15.85s-17-5.18-17-15.85v-24c0-10.66,5.56-15.85,17-15.85s17,5.19,17,15.85Zm-17-55c-21.6,0-34,11.49-34,31.53v23c0,20,12.38,31.53,34,31.53s34-11.49,34-31.53v-23c0-20-12.38-31.53-34-31.53"/><path class="cls-1" d="M381,131.21l19.08-66.5c.25-.87.64-.87.89,0l14.12,49.68a2.27,2.27,0,0,0,2.08,1.57h21.73a1.63,1.63,0,0,0,1.63-1.64l-3.26-13.06a1.64,1.64,0,0,0-1.64-1.64h-6.12a2.27,2.27,0,0,1-2.08-1.57L408.78,32.39a2.29,2.29,0,0,0-2.08-1.57l-12.45,1.66a2.28,2.28,0,0,0-2.08,1.58L373.53,99c-.24.87-.62.86-.84,0L348.35,1.59a2.2,2.2,0,0,0-2-1.59L333.74,1.65a2.21,2.21,0,0,0-2,1.59L307.92,98a2.91,2.91,0,0,1-2.54,1.58h-5.06a1.64,1.64,0,0,0-1.64,1.64l-3.26,13.06a1.63,1.63,0,0,0,1.63,1.64h21.58a2.2,2.2,0,0,0,2-1.58l19-75.79c.21-.88.57-.88.8,0l23.9,94.06a2.24,2.24,0,0,0,2,1.6l12.52-1.48a2.26,2.26,0,0,0,2.07-1.56"/><path class="cls-2" d="M230,2.42,216.29,4.06a1.63,1.63,0,0,0-1.63,1.63v16.5a1.63,1.63,0,0,0,1.63,1.63L230,22.19a1.63,1.63,0,0,0,1.63-1.63V4.06A1.63,1.63,0,0,0,230,2.42"/><path class="cls-2" d="M15.68,4.06l-14,1.63A1.63,1.63,0,0,0,0,7.33V109.6a6.53,6.53,0,0,0,6.53,6.53H58a1.63,1.63,0,0,0,1.63-1.63V101.91A1.63,1.63,0,0,0,58,100.28H20.58A3.26,3.26,0,0,1,17.32,97V5.69a1.64,1.64,0,0,0-1.64-1.63"/><path class="cls-2" d="M96.55,31.66c-21.6,0-34,11.5-34,31.54v23c0,20,12.38,31.54,34,31.54s34-11.5,34-31.54v-23c0-20-12.38-31.54-34-31.54m0,70.91c-11.43,0-17-5.18-17-15.85v-24c0-10.65,5.56-15.84,17-15.84s17,5.19,17,15.84v24c0,10.67-5.56,15.85-17,15.85"/><path class="cls-2" d="M169.74,31.67c-22,0-32.68,9.46-32.68,28.91v3.6c0,10.29,3.45,18.09,10,22.73a19.09,19.09,0,0,0-6.4,13.86c0,6.73,3,15,17,16.17,5.8.51,9.13.83,13,1.19,2.3.22,4.79.47,8.11.77,9.45.83,10.28,1.91,10.28,7,0,6.51,0,9.48-20.59,9.48a123.91,123.91,0,0,1-26.26-3.23,2.22,2.22,0,0,0-.37,0,1.62,1.62,0,0,0-.9.26,1.65,1.65,0,0,0-.71,1.08l-2,10.78a1.63,1.63,0,0,0,1.18,1.86A130,130,0,0,0,168.76,150c28.26,0,36.43-5.54,36.43-24.67,0-13-6.4-19.2-21.41-20.74-5.11-.5-8.71-.88-12.13-1.23-3.26-.34-6.35-.66-10.42-1.06-3.49-.32-3.75-1.32-3.75-3,0-2.46,2.14-4.72,4.59-6.78a66.78,66.78,0,0,0,7.67.41c21.17,0,32.83-10.21,32.83-28.75V60.54c-.15-5.89-1.29-10.8-3.39-14.64l7.13-1.35a1.64,1.64,0,0,0,1.33-1.61v-8A1.63,1.63,0,0,0,206,33.3H183.37a55,55,0,0,0-13.63-1.63m0,46.72c-12.65,0-16.51-3.32-16.51-14.21V60.75c0-10.87,4.17-14.54,16.51-14.54,12.18,0,16.5,3.8,16.5,14.54v3.43c0,10-4.94,14.21-16.5,14.21"/><path class="cls-2" d="M230,31.67,216.29,33.3a1.63,1.63,0,0,0-1.63,1.64v79.55a1.63,1.63,0,0,0,1.63,1.64H230a1.63,1.63,0,0,0,1.63-1.64V33.3A1.63,1.63,0,0,0,230,31.67"/><path class="cls-2" d="M290.89,99.69c-5.16,0-10.39,0-15.69,0-12.95,0-16.7-3.2-16.7-14.63V61.79c0-11.43,3.75-14.73,16.7-14.73a67.53,67.53,0,0,1,15.55,1.76,1.6,1.6,0,0,0,1.3-.28,1.65,1.65,0,0,0,.66-1.16l2.78-11.46a1.63,1.63,0,0,0-1.13-1.72c-4.58-1.47-12.77-2.53-19.49-2.53-23.4,0-33.39,9.15-33.39,30.61v25c0,15.9,3.79,28.8,33.13,28.8,4.11,0,8.75,0,12.16-.13a2.55,2.55,0,0,0,2-1.9L292.09,101c.22-.87-.29-1.26-1.2-1.26"/></svg>