<svg fill="none" height="37" width="189" xmlns="http://www.w3.org/2000/svg" xmlns:xlink="http://www.w3.org/1999/xlink"><linearGradient id="a"><stop offset="0" stop-color="#7e12dd"/><stop offset="1" stop-color="#b530dd"/></linearGradient><linearGradient id="b" gradientUnits="userSpaceOnUse" x1="27.194" x2="4.777" xlink:href="#a" y1="40.629" y2="8.011"/><linearGradient id="c" gradientUnits="userSpaceOnUse" x1="204.429" x2="83.486" xlink:href="#a" y1="187.062" y2="11.079"/><linearGradient id="d" gradientUnits="userSpaceOnUse" x1="178.602" x2="88.834" xlink:href="#a" y1="125.921" y2="-4.701"/><path d="M43.066 15.472h3.016v12.204h5.122v2.863h-8.138zm21.261 9.211a6.131 6.131 0 1 1-6.208-6.143 6.09 6.09 0 0 1 6.208 6.143zm-9.313 0c0 1.981 1.255 3.39 3.149 3.39a3.163 3.163 0 0 0 3.214-3.369c0-1.98-1.299-3.39-3.214-3.39a3.163 3.163 0 0 0-3.149 3.369zm22.856 0a6.132 6.132 0 1 1-6.209-6.143 6.091 6.091 0 0 1 6.209 6.143zm-9.313 0c0 1.981 1.255 3.39 3.149 3.39a3.163 3.163 0 0 0 3.213-3.369c0-1.981-1.298-3.39-3.213-3.39a3.163 3.163 0 0 0-3.149 3.369zm14.072-4.558a5.02 5.02 0 0 1 3.676-1.585c3.016 0 5.526 2.51 5.526 6.164 0 3.589-2.62 6.143-5.592 6.143a4.89 4.89 0 0 1-3.61-1.542v5.505H79.7V18.848h2.929zm-.133 4.535c0 2.114 1.41 3.501 3.215 3.501 1.827 0 3.17-1.476 3.17-3.478 0-1.916-1.233-3.457-3.17-3.457-1.871 0-3.215 1.387-3.215 3.434zm11.209-9.585h2.928v4.962a5.187 5.187 0 0 1 3.457-1.497c2.201 0 4.006 1.43 4.006 4.27v7.728h-2.928v-5.526c0-2.377-.286-3.786-2.003-3.786a2.317 2.317 0 0 0-1.982 1.145c-.594.924-.55 1.981-.55 3.192v4.975h-2.928zm24.352 9.608a6.136 6.136 0 0 1-3.775 5.65 6.133 6.133 0 0 1-8.042-7.957 6.126 6.126 0 0 1 5.609-3.836 6.091 6.091 0 0 1 6.208 6.143zm-9.313 0c0 1.981 1.255 3.39 3.149 3.39a3.165 3.165 0 0 0 3.214-3.369c0-1.981-1.299-3.39-3.214-3.39a3.16 3.16 0 0 0-2.971 2.098c-.145.407-.206.84-.178 1.27zm10.857-9.608h2.928v15.463h-2.928zm15.984 13.195c-1.255 1.784-2.906 2.577-5.372 2.577a5.92 5.92 0 0 1-6.12-6.164 5.98 5.98 0 0 1 3.72-5.703 5.969 5.969 0 0 1 2.357-.44c3.698 0 6.208 2.642 6.208 6.34 0 .265-.022.396-.022.661h-9.423a3.13 3.13 0 0 0 3.28 2.708 3.787 3.787 0 0 0 2.907-1.145zm-2.157-5.041a3.406 3.406 0 0 0-3.182-2.202 3.397 3.397 0 0 0-3.181 2.202zm10.682-7.757h3.016v12.204h5.122v2.863h-8.138zm18.201 13.833a4.857 4.857 0 0 1-3.61 1.542c-2.973 0-5.57-2.554-5.57-6.143 0-3.655 2.465-6.164 5.503-6.164a5.026 5.026 0 0 1 3.677 1.585v-1.276h2.928v11.69h-2.928zm-6.231-4.623c0 2.003 1.322 3.479 3.149 3.479 1.806 0 3.215-1.365 3.215-3.5 0-2.048-1.365-3.435-3.215-3.435-1.937 0-3.149 1.541-3.149 3.456zm14.49 5.856h-2.928V15.075h2.928v5.05a5.023 5.023 0 0 1 3.677-1.585c3.016 0 5.525 2.51 5.525 6.164 0 3.588-2.619 6.143-5.592 6.143a4.89 4.89 0 0 1-3.61-1.542zm-.132-5.878c0 2.114 1.409 3.5 3.214 3.5 1.827 0 3.171-1.475 3.171-3.478 0-1.915-1.234-3.456-3.171-3.456-1.871 0-3.214 1.387-3.214 3.434zm13.52.814c-1.871-.946-2.818-2.09-2.818-3.566 0-1.827 1.541-3.368 3.787-3.368a4.76 4.76 0 0 1 3.852 1.937l-1.804 1.827a3.003 3.003 0 0 0-2.026-1.078c-.594 0-1.057.242-1.057.704 0 .44.419.639 1.057.969l1.079.55c1.937.99 2.972 2.004 2.972 3.743 0 2.091-1.651 3.655-4.206 3.655a4.939 4.939 0 0 1-4.094-2.004l1.805-1.981a3.668 3.668 0 0 0 2.444 1.365c.726 0 1.299-.419 1.299-.947 0-.507-.484-.88-1.299-1.3z" fill="#2c0f62"/><path d="m33.66 22.871-4.748-8.223H18.355L12.83 27.35H6.91l-2.587-4.479 2.586-4.478h2.995l-2.55 5.982.636 1.102h2.965l4.489-10.528V12.4h7.916V8.656H10.3V12.4h1.4v1.782l-.198.465H4.748L0 22.87l4.748 8.224h10.697l5.384-12.702h5.92l2.587 4.478-2.112 3.658-2.671-6.264h-2.235l-.911 2.17 4.49 10.533H3.691l-.485 1.138 1.722 2.607h23.804l1.722-2.607-1.394-3.268z" fill="url(#b)"/><path d="m14.48 1.88-2.408 2.407 2.408 2.407 2.407-2.407z" fill="url(#c)"/><path d="M19.801.713 18.014 2.5l1.787 1.787L21.588 2.5z" fill="url(#d)"/></svg>