<svg enable-background="new 0 0 170.1 170.1" viewBox="0 0 170.1 170.1" xmlns="http://www.w3.org/2000/svg"><path d="m0 0h170.1v170.1h-170.1z" fill="#fff"/><path d="m11.7 103.3h5.1v2.4h.1c.2-.3.4-.7.7-1s.7-.6 1.1-.9.9-.5 1.5-.6c.5-.2 1.1-.2 1.8-.2 1.2 0 2.3.2 3.2.7s1.6 1.3 2.1 2.4c.6-1.1 1.4-1.9 2.2-2.4.9-.5 2-.7 3.2-.7s2.1.2 2.9.6 1.4.9 1.9 1.6.8 1.5 1 2.4.3 1.9.3 2.9v10.2h-5.4v-10.1c0-.8-.2-1.5-.5-2.1s-1-.9-1.8-.9c-.6 0-1.1.1-1.6.3-.4.2-.7.5-1 .8-.2.4-.4.8-.5 1.2-.1.5-.2 1-.2 1.5v9.2h-5.4v-9.2c0-.3 0-.7 0-1.1 0-.5-.1-.9-.2-1.3s-.4-.7-.7-1-.8-.4-1.4-.4c-.7 0-1.2.1-1.7.4-.4.2-.8.6-1 1s-.4.9-.4 1.4c-.1.5-.1 1.1-.1 1.6v8.6h-5.4v-17.3z"/><path d="m53.6 118.5c-.7.9-1.5 1.6-2.4 2-1 .4-2 .6-3.1.6-.8 0-1.6-.1-2.3-.3s-1.4-.6-2-1c-.6-.5-1-1-1.4-1.7-.3-.7-.5-1.4-.5-2.3 0-1 .2-1.8.6-2.5s.9-1.3 1.5-1.7c.6-.5 1.3-.8 2.2-1.1.8-.2 1.6-.4 2.5-.6.9-.1 1.7-.2 2.6-.2h2.4c0-1-.3-1.7-1-2.3s-1.5-.8-2.4-.8-1.7.2-2.4.6-1.4.9-1.9 1.5l-2.9-2.9c1-.9 2.2-1.6 3.5-2.1s2.7-.7 4.1-.7c1.6 0 2.9.2 3.9.6s1.8 1 2.4 1.7c.6.8 1 1.7 1.3 2.8.2 1.1.4 2.4.4 3.8v8.8h-4.9v-2.2zm-1.3-5.5c-.4 0-.9 0-1.5.1-.6 0-1.2.1-1.7.3-.6.2-1 .4-1.4.7s-.6.8-.6 1.4.3 1.1.8 1.4 1.1.5 1.7.5c.5 0 1-.1 1.5-.2s.9-.3 1.3-.6.7-.6.9-1 .3-.9.3-1.4v-1.2z"/><path d="m73.6 108.9c-.3-.4-.6-.7-1.1-.9s-1-.4-1.5-.4c-1.4 0-2.4.4-3.2 1.2-.7.8-1.1 1.9-1.1 3.2s.4 2.4 1.1 3.2 1.8 1.2 3.2 1.2c.6 0 1.1-.1 1.5-.4s.8-.6 1.1-.9l3.5 3.7c-.8.9-1.8 1.5-2.9 1.8s-2.2.5-3.2.5c-1.3 0-2.6-.2-3.8-.6s-2.2-1-3.1-1.8-1.6-1.8-2.1-2.9-.7-2.4-.7-3.7c0-1.4.2-2.6.7-3.7s1.2-2.1 2.1-2.9 1.9-1.4 3.1-1.8 2.4-.6 3.8-.6c1 0 2.1.2 3.2.5s2.1.9 2.9 1.8z"/><path d="m79.8 93.7h5.4v16.5l5.9-6.8h6.6l-6.9 7.8 7.1 9.5h-6.7l-5.9-8.8h-.1v8.8h-5.4z"/><path d="m114.6 117.6c-.9 1.1-1.9 1.9-3.2 2.5s-2.7.9-4.1.9c-1.3 0-2.6-.2-3.8-.6s-2.2-1-3.1-1.8-1.6-1.8-2.1-2.9-.7-2.4-.7-3.7c0-1.4.2-2.6.7-3.7s1.2-2.1 2.1-2.9 1.9-1.4 3.1-1.8 2.4-.6 3.8-.6c1.2 0 2.4.2 3.4.6s1.9 1 2.6 1.8 1.2 1.8 1.6 2.9.6 2.4.6 3.7v1.7h-12.5c.2 1 .7 1.8 1.4 2.4s1.6.9 2.6.9c.9 0 1.6-.2 2.2-.6s1.1-.9 1.6-1.5zm-4.5-7.6c0-.9-.3-1.7-.9-2.3s-1.4-1-2.4-1c-.6 0-1.1.1-1.6.3s-.8.4-1.2.7c-.3.3-.6.6-.7 1-.2.4-.3.8-.3 1.2h7.1z"/><path d="m118.7 103.3h5.4v2.8h.1c.6-1.1 1.2-1.9 2-2.4s1.8-.8 3-.8h.9c.3 0 .6.1.9.1v4.9c-.4-.1-.8-.2-1.1-.3-.4-.1-.8-.1-1.2-.1-1 0-1.8.1-2.4.4s-1.1.7-1.4 1.2-.5 1.1-.6 1.8-.1 1.5-.1 2.4v7.2h-5.4v-17.2z"/><path d="m148.9 117.6c-.9 1.1-1.9 1.9-3.2 2.5s-2.7.9-4.1.9c-1.3 0-2.6-.2-3.8-.6s-2.2-1-3.1-1.8-1.6-1.8-2.1-2.9-.7-2.4-.7-3.7c0-1.4.2-2.6.7-3.7s1.2-2.1 2.1-2.9 1.9-1.4 3.1-1.8 2.4-.6 3.8-.6c1.2 0 2.4.2 3.4.6s1.9 1 2.6 1.8 1.2 1.8 1.6 2.9.6 2.4.6 3.7v1.7h-12.4c.2 1 .7 1.8 1.4 2.4s1.6.9 2.6.9c.9 0 1.6-.2 2.2-.6s1.1-.9 1.6-1.5zm-4.5-7.6c0-.9-.3-1.7-.9-2.3s-1.4-1-2.4-1c-.6 0-1.1.1-1.6.3s-.8.4-1.2.7c-.3.3-.6.6-.7 1-.2.4-.3.8-.3 1.2h7.1z"/><path d="m153 93.7h5.4v27h-5.4z"/><path d="m94.3 67.6c-1.1 0-2.1.3-2.9.9l-11-11c.5-.9.9-1.9.9-2.9 0-3.1-2.5-5.5-5.5-5.5-3.1 0-5.5 2.5-5.5 5.5 0 1.1.3 2.1.9 2.9l-11 11c-.9-.5-1.9-.9-2.9-.9-1.1 0-2.1.3-2.9.8l-11-11c.5-.8.8-1.9.8-2.9 0-3.1-2.5-5.5-5.5-5.5s-5.5 2.5-5.5 5.5c0 1.1.3 2.1.8 2.9l-11 11c-.8-.5-1.9-.8-2.9-.8-3.1 0-5.5 2.5-5.5 5.5 0 3.1 2.5 5.5 5.5 5.5s5.5-2.5 5.5-5.5c0-1.1-.3-2.1-.8-2.9l11-11c.8.5 1.9.8 2.9.8 1.1 0 2.1-.3 2.9-.8l11 11c-.5.8-.8 1.9-.8 2.9 0 3.1 2.5 5.5 5.5 5.5 3.1 0 5.5-2.5 5.5-5.5 0-1.1-.3-2.1-.9-2.9l11-11c.9.5 1.9.9 2.9.9 1.1 0 2.1-.3 2.9-.9l11 11c-.5.9-.9 1.9-.9 2.9 0 3.1 2.5 5.5 5.5 5.5 3.1 0 5.5-2.5 5.5-5.5s-2.5-5.5-5.5-5.5z"/></svg>