<svg id="Layer_1" data-name="Layer 1" xmlns="http://www.w3.org/2000/svg" xmlns:xlink="http://www.w3.org/1999/xlink" viewBox="0 0 300 145"><defs><style>.cls-1{fill:none;}.cls-2{fill:#fff;}.cls-3{clip-path:url(#clip-path);}.cls-4{fill:url(#radial-gradient);}.cls-5{fill:#fe9000;}</style><clipPath id="clip-path"><rect class="cls-1" x="-2750.7" y="-2885.79" width="1920" height="337.86"/></clipPath><radialGradient id="radial-gradient" cx="-853.22" cy="-1885.69" r="1905.16" gradientUnits="userSpaceOnUse"><stop offset="0" stop-color="#2e2e69"/><stop offset="0.05" stop-color="#2e2e69"/><stop offset="0.27" stop-color="#662c56"/><stop offset="0.52" stop-color="#9d2a44"/><stop offset="0.73" stop-color="#c62936"/><stop offset="0.9" stop-color="#df282e"/><stop offset="1" stop-color="#e8282b"/></radialGradient></defs><title>Sponsor-mac-stadium</title><rect class="cls-2" width="300" height="145"/><g class="cls-3"><rect class="cls-4" x="-2758.38" y="-3790.85" width="3810.31" height="3810.31"/></g><rect class="cls-5" x="78.76" y="96.3" width="4.06" height="20.3"/><rect class="cls-5" x="78.62" y="34.03" width="4.06" height="20.3"/><rect class="cls-5" x="68.97" y="94.74" width="4.06" height="20.3" transform="translate(36.76 -17.06) rotate(18.41)"/><rect class="cls-5" x="60.26" y="90.29" width="4.06" height="20.3" transform="translate(70.89 -17.44) rotate(35.98)"/><rect class="cls-5" x="53.39" y="83.31" width="4.06" height="20.3" transform="translate(99.19 -5.99) rotate(54.42)"/><rect class="cls-5" x="49.04" y="74.64" width="4.06" height="20.3" transform="translate(115.87 9.97) rotate(71.95)"/><rect class="cls-5" x="47.54" y="65.08" width="4.06" height="20.3" transform="translate(124.8 25.66) rotate(90)"/><rect class="cls-5" x="48.97" y="55.55" width="4.06" height="20.3" transform="translate(129.22 37.44) rotate(107.96)"/><rect class="cls-5" x="53.39" y="46.79" width="4.06" height="20.3" transform="translate(134.1 45.92) rotate(126.25)"/><rect class="cls-5" x="68.98" y="35.53" width="4.06" height="20.3" transform="translate(-10.69 24.36) rotate(-18.13)"/><rect class="cls-5" x="60.37" y="39.82" width="4.06" height="20.3" transform="translate(-17.47 46.63) rotate(-36.29)"/><path d="M88.28,77.06c-.11-2.84-.21-6.23-.21-9.7H88c-.77,3-1.75,6.37-2.66,9.14l-2.87,9.2H78.31l-2.52-9.14c-.77-2.77-1.54-6.09-2.13-9.21h-.07c-.11,3.19-.24,6.83-.38,9.77l-.46,9H67.81l1.5-23.59h7.11l2.31,7.88c.77,2.73,1.47,5.67,2,8.44h.14c.63-2.73,1.44-5.85,2.24-8.47l2.49-7.84h7l1.26,23.59H88.67Z"/><path d="M112,82a22.18,22.18,0,0,0,.28,4.13h-4.8l-.31-1.72h-.11a6.17,6.17,0,0,1-4.9,2.1,5.25,5.25,0,0,1-5.53-5.25c0-4.44,4-6.55,10-6.55v-.21c0-.91-.49-2.2-3.11-2.2a10,10,0,0,0-4.72,1.26l-1-3.4a14.05,14.05,0,0,1,6.65-1.54c5.71,0,7.49,3.36,7.49,7.39Zm-5.15-4c-2.8,0-5,.67-5,2.7a1.91,1.91,0,0,0,2.1,2,2.94,2.94,0,0,0,2.77-2,3.81,3.81,0,0,0,.1-.91Z"/><path d="M129.09,85.63a12.17,12.17,0,0,1-4.76.8c-5.53,0-9.06-3.39-9.06-8.75,0-5,3.43-9.07,9.8-9.07a12.34,12.34,0,0,1,4.06.67l-.84,4a7.28,7.28,0,0,0-3-.53,4.78,4.78,0,0,0,.11,9.56,7.51,7.51,0,0,0,3-.56Z"/><path d="M135.67,82.38a10.79,10.79,0,0,0,5.46,1.54c3.12,0,4.94-1.64,4.94-4,0-2.2-1.26-3.47-4.44-4.69-3.85-1.36-6.23-3.36-6.23-6.69,0-3.67,3-6.4,7.63-6.4a10.72,10.72,0,0,1,5.21,1.15l-.84,2.48a9.39,9.39,0,0,0-4.48-1.12c-3.22,0-4.44,1.92-4.44,3.53,0,2.2,1.44,3.29,4.69,4.55,4,1.54,6,3.47,6,6.93,0,3.64-2.69,6.79-8.26,6.79a12.19,12.19,0,0,1-6-1.5Z"/><path d="M156.85,65.11v4h4.41v2.34h-4.41v9.13c0,2.1.59,3.29,2.31,3.29a6.85,6.85,0,0,0,1.78-.21l.14,2.31a7.54,7.54,0,0,1-2.73.42,4.27,4.27,0,0,1-3.33-1.3c-.87-.91-1.19-2.41-1.19-4.41V71.49h-2.62V69.15h2.63V66Z"/><path d="M174.1,86.09,173.86,84h-.1a6.31,6.31,0,0,1-5.18,2.52,4.83,4.83,0,0,1-5.18-4.86c0-4.09,3.64-6.33,10.19-6.3V75c0-1.4-.38-3.92-3.85-3.92a8.44,8.44,0,0,0-4.41,1.26l-.7-2a10.51,10.51,0,0,1,5.56-1.5c5.18,0,6.44,3.53,6.44,6.93V82a23.85,23.85,0,0,0,.28,4.06Zm-.46-8.65c-3.36-.07-7.17.53-7.17,3.82a2.73,2.73,0,0,0,2.91,2.94,4.21,4.21,0,0,0,4.09-2.84,3.21,3.21,0,0,0,.17-1Z"/><path d="M196.22,61.24V81.71c0,1.5,0,3.22.14,4.38H193.6l-.14-2.94h-.07a6.27,6.27,0,0,1-5.78,3.32c-4.09,0-7.25-3.46-7.25-8.61,0-5.63,3.47-9.1,7.59-9.1a5.66,5.66,0,0,1,5.11,2.59h.07V61.24ZM193.14,76a5.44,5.44,0,0,0-.14-1.3,4.53,4.53,0,0,0-4.44-3.57c-3.19,0-5.07,2.8-5.07,6.55,0,3.43,1.68,6.27,5,6.27A4.63,4.63,0,0,0,193,80.31a5.35,5.35,0,0,0,.14-1.33Z"/><path d="M204.76,64.39a1.91,1.91,0,0,1-3.81,0,1.88,1.88,0,0,1,1.93-1.93A1.83,1.83,0,0,1,204.76,64.39Zm-3.43,21.7V69.15h3.08V86.09Z"/><path d="M223.7,81.47c0,1.75,0,3.29.14,4.62h-2.73l-.17-2.77h-.07a6.37,6.37,0,0,1-5.6,3.15c-2.66,0-5.84-1.47-5.84-7.42v-9.9h3.08v9.38c0,3.22,1,5.39,3.78,5.39a4.45,4.45,0,0,0,4.06-2.8,4.5,4.5,0,0,0,.28-1.58V69.15h3.08Z"/><path d="M228.8,73.73c0-1.75,0-3.19-.14-4.58h2.7l.14,2.73h.1a5.84,5.84,0,0,1,5.32-3.11,5,5,0,0,1,4.79,3.39h.07a7,7,0,0,1,1.89-2.2,5.78,5.78,0,0,1,3.75-1.19c2.24,0,5.56,1.47,5.56,7.35v10h-3V76.5c0-3.25-1.19-5.22-3.67-5.22a4,4,0,0,0-3.64,2.8,5.07,5.07,0,0,0-.25,1.54V86.09h-3V75.94c0-2.69-1.19-4.66-3.53-4.66a4.59,4.59,0,0,0-4.06,4.59V86.09h-3Z"/></svg>