<svg xmlns="http://www.w3.org/2000/svg" role="img" viewBox="-9.12 -9.12 474.24 101.74"><path fill="#285e9c" d="M106.003-.005H77.65l-8.9 28.459-4.933 2.966L52.766-.005H24.42l.047 83.657H50.48V51.75l14.56 31.59 14.687-31.489-.15 31.8 26.426.016V-.005m37.387 58.776l3.613-12.596c.878-3.435 1.846-7.906 2.63-11.43h.267c.884 3.43 1.95 7.918 2.91 11.43l3.698 12.596zm15.665-34.065h-17.507l-18.132 59.32h13.9l4.132-15.223h17.085l4.578 15.224h14.426l-18.482-59.32m42.597 59.32l-19.01-59.32h14.698l7.215 25.085c2.024 7.13 3.86 13.825 5.278 21.211h.259c1.497-7.129 3.347-14.175 5.367-20.948l7.578-25.349h14.25l-19.974 59.32h-15.661m86.064-25.086h-21.837v14.088h24.382v10.999h-37.757v-59.32h36.53v11.007H265.88V48.03h21.837v10.91M308.2 84.027v-59.32h15.675l12.314 21.747c3.527 6.235 6.959 13.636 9.692 20.315h.171c-.79-7.828-1.053-15.841-1.053-24.805V24.706h12.313v59.32h-14.07l-12.675-22.879c-3.526-6.433-7.486-13.994-10.298-20.954h-.357c.45 7.931.62 16.287.62 25.97v17.864H308.2m83.004-59.321v59.32h-13.39v-59.32h13.39m38.966 26.315h-5.278V34.745c.979-.267 2.828-.445 6.072-.445 6.167 0 9.863 2.82 9.863 8.185 0 5.195-3.959 8.536-10.656 8.536zm21.482 16.198c-1.507-5.458-3.79-9.332-7.92-11.006v-.263c5.093-1.837 10.47-7.042 10.47-14.527 0-5.455-1.926-9.584-5.546-12.402-4.227-3.442-10.392-4.752-19.184-4.752-7.223 0-13.543.531-17.86 1.31v58.448h13.28V60.702h3.975c5.53.088 8.077 2.028 9.753 9.5 1.68 7.315 3.17 12.145 4.056 13.825h13.728c-1.147-2.283-2.917-10.036-4.752-16.808"/><path fill="#e01c3b" d="M60.771 54.84c9.346 6.571 42.87-26.791 58.77-26.264 10.026 2.422-9.674 25.574-13.132 29.037 5.526 0 32.484-26.1 15.898-32.503-11.235-6.04-30.597 11.063-47.184 19.37 4.32-7.959 23.674-25.41 11.408-33.533C71.243.68-9.744 69.365.973 79.907c15.035 14.352 30.079-31.97 73.278-52.712C68.604 34.89 55.464 50.67 60.77 54.84"/></svg>