<svg id="Layer_1" data-name="Layer 1" xmlns="http://www.w3.org/2000/svg" viewBox="0 0 1083.78723 582.84053"><defs><style>.cls-1{fill:#4c81c2;}</style></defs><title>MAX</title><polygon class="cls-1" points="1067.747 37.848 892.771 37.848 903.55 7.679 1067.747 7.679 1067.747 37.848"/><path class="cls-1" d="M601.29607,7.67413l162.45526-.01882L774.38855,37.8974c.07822-.043-173.03763.03711-173.03763,0C601.35092,37.85443,601.24655,7.67413,601.29607,7.67413Z"/><path class="cls-1" d="M472.27392,7.66772c26.77559,2.58333,50.04824,12.12249,69.87854,30.22314,0,0-294.47463.03057-294.47463,0V7.66118Z"/><rect class="cls-1" x="16.59398" y="7.66772" width="204.57093" height="30.16975"/><path class="cls-1" d="M1067.74683,94.45114H872.7203s10.63734-30.00945,10.57207-30.02188h184.45446Z"/><polygon class="cls-1" points="794.487 94.488 601.288 94.488 601.288 64.423 783.904 64.423 794.487 94.488"/><path class="cls-1" d="M565.083,64.41619c3.88027,9.9126,8.47486,18.38682,8.47486,30.02321H247.73322V64.41619Z"/><rect class="cls-1" x="16.59398" y="64.41619" width="204.57093" height="30.0232"/><polygon class="cls-1" points="852.77 151.194 863.474 121.033 1009.914 121.075 1009.914 151.127 852.77 151.194"/><polygon class="cls-1" points="803.886 121.025 814.555 151.194 658.891 151.194 658.891 121.025 803.886 121.025"/><path class="cls-1" d="M576.14136,121.01945c0,10.344-1.29829,21.1227-4.30912,30.175H482.61911v-30.175Z"/><rect class="cls-1" x="73.6118" y="121.16614" width="87.92914" height="30.02173"/><rect class="cls-1" x="306.91927" y="121.01945" width="87.77725" height="30.16842"/><path class="cls-1" d="M745.35731,183.769s.02482,22.83406.00654,22.877H658.89062v-30.0224H823.66853L833.903,204.616c.0483.01829,9.86829-28.06011,9.88777-27.99885h166.06832v30.02894H923.812c-.00774-.043-.04818-22.87118-.04818-22.87118l-7.95874,22.87118-162.50211-.043Z"/><path class="cls-1" d="M306.91927,176.61714H558.89959v-.01174a113.39475,113.39475,0,0,1-24.99642,30.04068s-226.98977.04176-226.98977,0C306.9134,206.6031,306.91927,176.6712,306.91927,176.61714Z"/><rect class="cls-1" x="73.6118" y="176.6106" width="87.92914" height="30.02961"/><rect class="cls-1" x="923.81199" y="233.22627" width="86.04706" height="30.02307"/><path class="cls-1" d="M745.35731,233.22627H658.89062v30.02307c-.043-.01562,86.49151.01041,86.49151,0C745.38213,263.23372,745.47985,233.22627,745.35731,233.22627Z"/><path class="cls-1" d="M906.43221,233.22627c-.39107-.04364-10.07945,30.00745-10.48613,30.02307l-122.56376.05219c-.09649-.047-10.77671-30.1189-10.78458-30.07526Z"/><path class="cls-1" d="M306.90753,233.21906H533.471a148.20316,148.20316,0,0,1,27.01357,30.03028c.41322-.01562-253.57115.01041-253.57115,0C306.9134,263.23372,306.90753,233.2503,306.90753,233.21906Z"/><path class="cls-1" d="M161.52786,263.2416V233.21906H73.75715s.01815,30.01466,0,30.01466Z"/><rect class="cls-1" x="923.81199" y="289.82886" width="86.04052" height="30.02827"/><rect class="cls-1" x="658.88541" y="289.82886" width="86.4719" height="30.02307"/><path class="cls-1" d="M875.82374,319.99794c.02349-.1356,10.61254-30.19512,10.77684-30.16908H782.4099c-.18127-.01308,10.68153,30.03348,10.68153,30.03348S875.80425,320.123,875.82374,319.99794Z"/><path class="cls-1" d="M306.9134,319.85193c0,.12-.00587-30.02307,0-30.02827h89.08s.07955,30.03868,0,30.03868C395.9087,319.86234,306.9134,319.8259,306.9134,319.85193Z"/><path class="cls-1" d="M572.98569,289.82366c4.30658,9.05092,4.73929,19.82242,5.59818,30.16641H484.19634V289.82366Z"/><rect class="cls-1" x="73.75715" y="289.82366" width="87.77071" height="30.02053"/><rect class="cls-1" x="923.81199" y="345.27399" width="143.92964" height="30.03615"/><rect class="cls-1" x="601.28312" y="345.27399" width="144.07419" height="30.03615"/><polygon class="cls-1" points="856.463 375.31 812.518 375.31 801.973 345.274 866.625 345.274 856.463 375.31"/><path class="cls-1" d="M16.58237,345.274v30.02307h204.43c.08543.047-.09182-30.00478,0-30.00478C221.09778,345.29228,16.34439,345.274,16.58237,345.274Z"/><path class="cls-1" d="M574.84307,345.274c-2.15193,9.90608-4.124,21.98092-11.362,30.03615l-2.69931-.01308H247.72148V345.274Z"/><polygon class="cls-1" points="836.545 431.978 832.501 431.978 822.229 401.882 847.086 401.882 836.545 431.978"/><rect class="cls-1" x="923.80425" y="401.88179" width="143.93738" height="30.16909"/><path class="cls-1" d="M247.67783,431.97787V401.93131s295.35126.03657,296.1984.03657c-19.82963,18.957-47.03792,29.65816-76.34159,30.083L247.72148,431.991"/><rect class="cls-1" x="601.28312" y="401.88179" width="144.07419" height="30.16909"/><path class="cls-1" d="M221.01235,402.01473s-.09182,29.96314,0,29.96314c.08543,0-204.37.12252-204.43.06006-.05552-.06006.05472-30.10662,0-30.10662C16.52685,401.93131,220.92053,402.11376,221.01235,402.01473Z"/><path d="M28.693,508.09964l12.6772,37.2737h.15195l11.99389-37.2737H70.29268v54.2018H59.13359V523.8895h-.15148l-13.285,38.41194H36.512L23.227,524.26892h-.15149v38.03252H11.9164v-54.2018Z"/><path d="M79.85768,534.176a17.95008,17.95008,0,0,1,10.47623-10.7037,22.40155,22.40155,0,0,1,8.35033-1.4799,22.70841,22.70841,0,0,1,8.38808,1.4799,17.87658,17.87658,0,0,1,10.514,10.7037,24.12022,24.12022,0,0,1,1.44214,8.53957,23.79836,23.79836,0,0,1-1.44214,8.50273,18.43663,18.43663,0,0,1-4.09942,6.49055,17.85185,17.85185,0,0,1-6.41457,4.13671,23.25134,23.25134,0,0,1-8.38808,1.44307,22.93628,22.93628,0,0,1-8.35033-1.44307,17.90694,17.90694,0,0,1-6.37681-4.13671,18.4042,18.4042,0,0,1-4.09942-6.49055,23.76786,23.76786,0,0,1-1.44214-8.50273A24.08914,24.08914,0,0,1,79.85768,534.176Zm9.79292,13.13305a12.22513,12.22513,0,0,0,1.55587,4.02344,8.28274,8.28274,0,0,0,2.923,2.84653,8.91579,8.91579,0,0,0,4.55481,1.06272,9.13162,9.13162,0,0,0,4.59256-1.06272,8.20206,8.20206,0,0,0,2.96071-2.84653,12.24513,12.24513,0,0,0,1.55588-4.02344,22.96529,22.96529,0,0,0,.45584-4.59348,23.5459,23.5459,0,0,0-.45584-4.63032,11.83105,11.83105,0,0,0-1.55588-4.02344,8.649,8.649,0,0,0-2.96071-2.84652,8.891,8.891,0,0,0-4.59256-1.10049,8.29116,8.29116,0,0,0-7.47777,3.947,11.81242,11.81242,0,0,0-1.55587,4.02344,23.54483,23.54483,0,0,0-.45539,4.63032A22.96445,22.96445,0,0,0,89.6506,547.30908Z"/><path d="M153.87141,557.29079a11.1205,11.1205,0,0,1-4.97243,4.59348,16.543,16.543,0,0,1-6.94594,1.40439,16.78471,16.78471,0,0,1-7.743-1.70829,15.54,15.54,0,0,1-5.5038-4.63032,20.98723,20.98723,0,0,1-3.26416-6.71893,28.19143,28.19143,0,0,1-1.10048-7.89493,26.49405,26.49405,0,0,1,1.10048-7.6288,19.8269,19.8269,0,0,1,3.26416-6.49055,15.84327,15.84327,0,0,1,13.01932-6.22441,15.42969,15.42969,0,0,1,6.642,1.4799,11.57989,11.57989,0,0,1,4.97243,4.3651h.15195V508.09964h10.77921v54.2018H154.02336v-5.01065Zm-.45538-19.39522a11.4327,11.4327,0,0,0-1.55634-3.947,8.77287,8.77287,0,0,0-2.84652-2.771,8.35152,8.35152,0,0,0-4.40331-1.06273,8.75959,8.75959,0,0,0-4.47883,1.06273,8.40393,8.40393,0,0,0-2.9225,2.80876,12.42253,12.42253,0,0,0-1.59409,3.98477,21.60516,21.60516,0,0,0-.49361,4.669,19.96949,19.96949,0,0,0,.53137,4.55481,12.39588,12.39588,0,0,0,1.70828,4.0612,9.44931,9.44931,0,0,0,2.96071,2.8852,8.00517,8.00517,0,0,0,4.28867,1.10048,8.54632,8.54632,0,0,0,4.44107-1.06272,8.08456,8.08456,0,0,0,2.84652-2.84653,12.769,12.769,0,0,0,1.51858-4.06212,23.94616,23.94616,0,0,0,.45538-4.70583A23.404,23.404,0,0,0,153.416,537.89557Z"/><path d="M183.93211,552.88793q2.42844,2.35385,6.98416,2.35384a9.61053,9.61053,0,0,0,5.61753-1.63184,6.778,6.778,0,0,0,2.88428-3.45433h9.489q-2.27717,7.06014-6.98369,10.09591a20.55519,20.55519,0,0,1-11.387,3.03715,22.40485,22.40485,0,0,1-8.35033-1.48082,17.34319,17.34319,0,0,1-6.30084-4.21315A18.94484,18.94484,0,0,1,171.9,551.06638a23.87529,23.87529,0,0,1-1.40439-8.35078,22.88534,22.88534,0,0,1,1.44214-8.19791,18.969,18.969,0,0,1,10.438-10.93117,20.32462,20.32462,0,0,1,8.16062-1.59409,18.65752,18.65752,0,0,1,8.73019,1.93575,17.43308,17.43308,0,0,1,6.11068,5.19944,21.40621,21.40621,0,0,1,3.45432,7.43908,27.75668,27.75668,0,0,1,.75883,8.7302H181.2753Q181.50323,550.535,183.93211,552.88793Zm12.18406-20.64765q-1.936-2.12452-5.88321-2.12545a9.38848,9.38848,0,0,0-4.28913.873,8.16846,8.16846,0,0,0-2.73279,2.16321,7.9214,7.9214,0,0,0-1.4426,2.73325,12.296,12.296,0,0,0-.49314,2.58038h17.53544A12.46265,12.46265,0,0,0,196.11617,532.24028Z"/><path d="M227.04989,508.09964v54.2018H216.27021v-54.2018Z"/><path d="M284.81837,508.09964l20.26869,54.2018H292.7133l-4.099-12.07032H268.34565l-4.25137,12.07032H252.10039l20.49616-54.2018Zm.68331,33.25025-6.83221-19.88974H278.518l-7.06013,19.88974Z"/><path d="M317.72651,552.54628a6.29192,6.29192,0,0,0,1.85977,2.04994,7.98242,7.98242,0,0,0,2.61906,1.17692,12.3201,12.3201,0,0,0,3.07445.37941,11.42518,11.42518,0,0,0,2.39113-.26614,8.09917,8.09917,0,0,0,2.2774-.83434,5.16954,5.16954,0,0,0,1.70828-1.51858,3.987,3.987,0,0,0,.68286-2.39159q0-2.42844-3.22594-3.64311a64.611,64.611,0,0,0-8.99588-2.42935q-2.35383-.53044-4.59256-1.25244a15.64186,15.64186,0,0,1-3.98522-1.898,9.1974,9.1974,0,0,1-2.80877-2.96071,8.37522,8.37522,0,0,1-1.06319-4.3651,11.81034,11.81034,0,0,1,1.48036-6.22441,10.92271,10.92271,0,0,1,3.90971-3.83373,17.14359,17.14359,0,0,1,5.46558-1.9735,33.71556,33.71556,0,0,1,6.22487-.56913,31.14136,31.14136,0,0,1,6.18665.60688,16.38036,16.38036,0,0,1,5.35185,2.04994,12.2927,12.2927,0,0,1,3.90971,3.83281,12.9003,12.9003,0,0,1,1.85977,6.03563H331.80809q-.22723-3.11222-2.35291-4.21315a10.77167,10.77167,0,0,0-5.01066-1.10048,18.69985,18.69985,0,0,0-1.9735.11327,6.615,6.615,0,0,0-1.93575.4936,4.004,4.004,0,0,0-1.48035,1.10049,2.907,2.907,0,0,0-.60734,1.93574,2.95494,2.95494,0,0,0,1.06272,2.35384,8.1952,8.1952,0,0,0,2.771,1.4799,34.67544,34.67544,0,0,0,3.90925,1.025q2.2012.45585,4.47883.98721a45.85043,45.85043,0,0,1,4.593,1.29019,15.171,15.171,0,0,1,3.98523,2.01126,9.747,9.747,0,0,1,2.80876,3.11266,9.14,9.14,0,0,1,1.06273,4.59257,11.92143,11.92143,0,0,1-5.61753,10.70369,16.6319,16.6319,0,0,1-5.73126,2.23965,33.48967,33.48967,0,0,1-6.56653.64556,32.55187,32.55187,0,0,1-6.68026-.68332,17.63365,17.63365,0,0,1-5.80723-2.2774,13.0159,13.0159,0,0,1-4.1754-4.21315,13.18993,13.18993,0,0,1-1.78379-6.567h10.24831A5.89854,5.89854,0,0,0,317.72651,552.54628Z"/><path d="M358.49044,552.54628a6.29206,6.29206,0,0,0,1.85978,2.04994,7.98228,7.98228,0,0,0,2.61905,1.17692,12.32022,12.32022,0,0,0,3.07445.37941,11.42527,11.42527,0,0,0,2.39114-.26614,8.09917,8.09917,0,0,0,2.2774-.83434,5.16963,5.16963,0,0,0,1.70828-1.51858,3.987,3.987,0,0,0,.68285-2.39159q0-2.42844-3.22593-3.64311a64.611,64.611,0,0,0-8.99588-2.42935q-2.35384-.53044-4.59256-1.25244a15.64209,15.64209,0,0,1-3.98523-1.898,9.19737,9.19737,0,0,1-2.80876-2.96071,8.37522,8.37522,0,0,1-1.06319-4.3651,11.81034,11.81034,0,0,1,1.48036-6.22441,10.92263,10.92263,0,0,1,3.90971-3.83373,17.1435,17.1435,0,0,1,5.46558-1.9735,33.71548,33.71548,0,0,1,6.22487-.56913,31.14136,31.14136,0,0,1,6.18665.60688,16.38045,16.38045,0,0,1,5.35185,2.04994,12.29281,12.29281,0,0,1,3.90971,3.83281,12.9003,12.9003,0,0,1,1.85977,6.03563H372.572q-.22723-3.11222-2.35292-4.21315a10.77163,10.77163,0,0,0-5.01065-1.10048,18.69955,18.69955,0,0,0-1.9735.11327,6.6149,6.6149,0,0,0-1.93575.4936,4.00412,4.00412,0,0,0-1.48036,1.10049,2.907,2.907,0,0,0-.60734,1.93574,2.95492,2.95492,0,0,0,1.06273,2.35384,8.1952,8.1952,0,0,0,2.771,1.4799,34.67487,34.67487,0,0,0,3.90925,1.025q2.20119.45585,4.47883.98721a45.85118,45.85118,0,0,1,4.593,1.29019,15.1708,15.1708,0,0,1,3.98522,2.01126,9.74707,9.74707,0,0,1,2.80877,3.11266,9.14,9.14,0,0,1,1.06273,4.59257,11.92148,11.92148,0,0,1-5.61753,10.70369,16.63188,16.63188,0,0,1-5.73127,2.23965,33.48957,33.48957,0,0,1-6.56652.64556,32.5518,32.5518,0,0,1-6.68026-.68332,17.6338,17.6338,0,0,1-5.80724-2.2774,13.01587,13.01587,0,0,1-4.17539-4.21315,13.18993,13.18993,0,0,1-1.7838-6.567h10.24831A5.89864,5.89864,0,0,0,358.49044,552.54628Z"/><path d="M401.72149,552.88793q2.42842,2.35385,6.98416,2.35384a9.61053,9.61053,0,0,0,5.61753-1.63184,6.778,6.778,0,0,0,2.88428-3.45433h9.489q-2.27717,7.06014-6.98369,10.09591a20.55523,20.55523,0,0,1-11.387,3.03715,22.4048,22.4048,0,0,1-8.35032-1.48082,17.34319,17.34319,0,0,1-6.30084-4.21315,18.94486,18.94486,0,0,1-3.98523-6.52831,23.87552,23.87552,0,0,1-1.40438-8.35078,22.88512,22.88512,0,0,1,1.44214-8.19791,18.969,18.969,0,0,1,10.438-10.93117,20.32457,20.32457,0,0,1,8.16061-1.59409,18.65753,18.65753,0,0,1,8.7302,1.93575,17.43308,17.43308,0,0,1,6.11068,5.19944,21.40621,21.40621,0,0,1,3.45432,7.43908,27.75668,27.75668,0,0,1,.75882,8.7302H399.06467Q399.2926,550.535,401.72149,552.88793Zm12.18406-20.64765q-1.936-2.12452-5.88322-2.12545a9.38847,9.38847,0,0,0-4.28912.873,8.16836,8.16836,0,0,0-2.73279,2.16321,7.92123,7.92123,0,0,0-1.4426,2.73325,12.296,12.296,0,0,0-.49315,2.58038h17.53545A12.46265,12.46265,0,0,0,413.90555,532.24028Z"/><path d="M455.31458,523.05516v7.21162h-7.89493v19.433q0,2.73371.91123,3.644.911.91032,3.64357.91078.911,0,1.746-.07551a14.65378,14.65378,0,0,0,1.59409-.22839v8.35078a25.83713,25.83713,0,0,1-3.03623.3039q-1.67076.0746-3.26461.07552a31.37767,31.37767,0,0,1-4.74452-.34166,11.18847,11.18847,0,0,1-3.94746-1.32795,7.02331,7.02331,0,0,1-2.69458-2.80876,10.02362,10.02362,0,0,1-.98675-4.78319V530.26678h-6.52877v-7.21162h6.52877V511.28874h10.77922v11.76642Z"/><path d="M493.11826,552.88793q2.42843,2.35385,6.98416,2.35384a9.61053,9.61053,0,0,0,5.61753-1.63184,6.77917,6.77917,0,0,0,2.88474-3.45433h9.489q-2.27785,7.06014-6.98415,10.09591a20.5552,20.5552,0,0,1-11.387,3.03715,22.4048,22.4048,0,0,1-8.35032-1.48082,17.34319,17.34319,0,0,1-6.30084-4.21315,18.94486,18.94486,0,0,1-3.98523-6.52831,23.87552,23.87552,0,0,1-1.40438-8.35078,22.88512,22.88512,0,0,1,1.44214-8.19791,18.969,18.969,0,0,1,10.438-10.93117,20.3246,20.3246,0,0,1,8.16061-1.59409,18.65753,18.65753,0,0,1,8.7302,1.93575,17.43463,17.43463,0,0,1,6.11114,5.19944,21.41449,21.41449,0,0,1,3.45432,7.43908,27.77022,27.77022,0,0,1,.75882,8.7302H490.46145Q490.68936,550.535,493.11826,552.88793Zm12.18406-20.64765q-1.936-2.12452-5.88322-2.12545a9.38847,9.38847,0,0,0-4.28912.873,8.16836,8.16836,0,0,0-2.73279,2.16321,7.92123,7.92123,0,0,0-1.4426,2.73325,12.29532,12.29532,0,0,0-.49314,2.58038h17.53544A12.45862,12.45862,0,0,0,505.30232,532.24028Z"/><path d="M522.11623,508.09964H535.9326l10.62726,17.30844,11.0076-17.30844h13.05661l-17.38395,25.88668,18.90253,28.31512H557.94687l-11.84194-18.75058-12.07032,18.75058H520.67409l18.90253-28.39155Z"/><path d="M594.53542,530.11483a7.57541,7.57541,0,0,0-4.32734,1.176,9.35894,9.35894,0,0,0-2.84653,3.03715,13.13237,13.13237,0,0,0-1.55633,4.099,22.29167,22.29167,0,0,0-.45493,4.44061,21.35676,21.35676,0,0,0,.45493,4.32734,13.37614,13.37614,0,0,0,1.48082,3.98568,8.4882,8.4882,0,0,0,2.771,2.922,7.60615,7.60615,0,0,0,4.2509,1.13916,7.897,7.897,0,0,0,5.95919-2.16413,10.236,10.236,0,0,0,2.61906-5.80724H613.286q-1.06365,7.81989-6.07338,11.91838-5.0102,4.09987-12.82915,4.09988a21.47014,21.47014,0,0,1-8.08464-1.48082,17.88941,17.88941,0,0,1-6.26217-4.13672,18.80686,18.80686,0,0,1-4.02344-6.3386,21.96437,21.96437,0,0,1-1.44306-8.08464,26.14424,26.14424,0,0,1,1.32887-8.465,19.03426,19.03426,0,0,1,3.90925-6.75577,17.88481,17.88481,0,0,1,6.30084-4.44062,21.40507,21.40507,0,0,1,8.50273-1.59409,24.59635,24.59635,0,0,1,6.718.91078,17.96345,17.96345,0,0,1,5.76948,2.77009,14.33469,14.33469,0,0,1,5.95919,11.1973H602.50587Q601.44222,530.11576,594.53542,530.11483Z"/><path d="M630.13859,508.09964v20.4211h.22747a12.48864,12.48864,0,0,1,5.23811-4.97289,14.15412,14.15412,0,0,1,6.22441-1.55542,18.32723,18.32723,0,0,1,7.09835,1.176,10.54644,10.54644,0,0,1,4.3651,3.26462,12.63356,12.63356,0,0,1,2.23872,5.08616,31.64047,31.64047,0,0,1,.64556,6.64251v24.13972H645.3971V540.13522q0-4.85687-1.51858-7.24938-1.5195-2.39252-5.39007-2.39159-4.40377,0-6.37635,2.61905-1.97535,2.61906-1.97351,8.616v20.57213H619.35846v-54.2018Z"/><path d="M663.91837,535.12456a12.518,12.518,0,0,1,1.898-6.30084,12.91044,12.91044,0,0,1,4.25091-4.02252,18.52286,18.52286,0,0,1,5.80723-2.16413,33.08413,33.08413,0,0,1,6.49056-.64464,44.03139,44.03139,0,0,1,5.99694.41718,18.4007,18.4007,0,0,1,5.5411,1.63184,10.92466,10.92466,0,0,1,4.09987,3.37789,9.44413,9.44413,0,0,1,1.59409,5.73172v20.42019a40.77875,40.77875,0,0,0,.3039,5.08617,9.16279,9.16279,0,0,0,1.06273,3.644H690.0316a15.13844,15.13844,0,0,1-.49268-1.86023,15.86782,15.86782,0,0,1-.26614-1.93574,14.03767,14.03767,0,0,1-6.07246,3.72046,24.39332,24.39332,0,0,1-7.13611,1.06273,19.29523,19.29523,0,0,1-5.23812-.68332,12.00009,12.00009,0,0,1-4.2509-2.12545,9.89161,9.89161,0,0,1-2.84652-3.644,12.31444,12.31444,0,0,1-1.025-5.23812,11.42836,11.42836,0,0,1,1.17692-5.50333,9.83336,9.83336,0,0,1,3.03623-3.45433,13.624,13.624,0,0,1,4.2509-1.93574,45.89172,45.89172,0,0,1,4.82-1.025q2.4298-.37849,4.78319-.60688a28.74639,28.74639,0,0,0,4.17447-.68331,7.2751,7.2751,0,0,0,2.8852-1.32887,2.91451,2.91451,0,0,0,.98629-2.54262,5.72267,5.72267,0,0,0-.56912-2.771,4.18883,4.18883,0,0,0-1.51766-1.59409,5.97556,5.97556,0,0,0-2.20188-.75883,18.07087,18.07087,0,0,0-2.69458-.1897,8.18468,8.18468,0,0,0-5.01065,1.3657,6.09838,6.09838,0,0,0-2.12545,4.5548Zm24.89856,7.97137a4.81658,4.81658,0,0,1-1.70736.94854,17.51786,17.51786,0,0,1-2.20189.56912q-1.17692.22792-2.46711.37941-1.29157.15333-2.58038.38034a19.39013,19.39013,0,0,0-2.3916.60687,7.1006,7.1006,0,0,0-2.04993,1.025,4.875,4.875,0,0,0-1.40439,1.63185,5.25029,5.25029,0,0,0-.53136,2.50487,5.06235,5.06235,0,0,0,.53136,2.42935,4.0672,4.0672,0,0,0,1.44214,1.55633,6.09631,6.09631,0,0,0,2.12638.79751,13.53914,13.53914,0,0,0,2.50486.22746,9.52549,9.52549,0,0,0,4.93422-1.06273,7.12263,7.12263,0,0,0,2.5813-2.54354,8.12406,8.12406,0,0,0,1.024-2.99847,20.65242,20.65242,0,0,0,.18971-2.42844Z"/><path d="M718.19477,523.05516v5.46558h.22747a12.373,12.373,0,0,1,5.31363-4.97289,15.38265,15.38265,0,0,1,6.68026-1.55542,18.32723,18.32723,0,0,1,7.09835,1.176,10.5464,10.5464,0,0,1,4.36509,3.26462,12.63357,12.63357,0,0,1,2.23873,5.08616,31.64116,31.64116,0,0,1,.64555,6.64251v24.13972H733.98464V540.13522q0-4.85687-1.51857-7.24938-1.5195-2.39252-5.39007-2.39159-4.40378,0-6.37636,2.61905-1.97535,2.61906-1.9735,8.616v20.57213H707.946V523.05516Z"/><path d="M790.04392,565.18572a13.29889,13.29889,0,0,1-2.77009,5.65621,16.5152,16.5152,0,0,1-6.14889,4.44061q-4.0253,1.822-10.78014,1.82156a25.09642,25.09642,0,0,1-5.88275-.72107,18.69109,18.69109,0,0,1-5.46558-2.23965,13.42824,13.42824,0,0,1-4.09988-3.90925,11.33092,11.33092,0,0,1-1.85931-5.7308H763.741a6.14807,6.14807,0,0,0,2.96071,4.21315,10.62908,10.62908,0,0,0,5.08617,1.176q4.55434,0,6.64158-2.73233a10.72657,10.72657,0,0,0,2.01218-6.90864v-5.16169h-.15195a10.67618,10.67618,0,0,1-4.972,4.59256,16.10805,16.10805,0,0,1-6.79445,1.48082,17.1378,17.1378,0,0,1-7.591-1.55633,14.3933,14.3933,0,0,1-5.23811-4.25183,17.70931,17.70931,0,0,1-2.99848-6.29992,29.82014,29.82014,0,0,1-.94945-7.62971,24.43869,24.43869,0,0,1,1.1014-7.32581,19.12962,19.12962,0,0,1,3.22594-6.22441,15.58958,15.58958,0,0,1,5.27587-4.28867,15.84224,15.84224,0,0,1,7.24938-1.59409,15.17481,15.17481,0,0,1,6.79445,1.44214,11.73227,11.73227,0,0,1,4.89646,4.85779h.15195v-5.2372h10.24785v36.74142A26.27725,26.27725,0,0,1,790.04392,565.18572ZM775.279,552.12911a8.41047,8.41047,0,0,0,2.8852-2.42935,10.77156,10.77156,0,0,0,1.70828-3.4534,14.32774,14.32774,0,0,0,.56912-4.06212,22.24938,22.24938,0,0,0-.45585-4.59257,11.50285,11.50285,0,0,0-1.51765-3.83281,7.88563,7.88563,0,0,0-2.80877-2.65774,8.87832,8.87832,0,0,0-4.40377-.98629,7.89727,7.89727,0,0,0-3.90925.91078,8.20849,8.20849,0,0,0-2.73233,2.46711,10.37335,10.37335,0,0,0-1.59409,3.56759,17.59712,17.59712,0,0,0-.49361,4.21315,21.37525,21.37525,0,0,0,.41717,4.21315,11.37047,11.37047,0,0,0,1.44214,3.75822,8.41431,8.41431,0,0,0,2.6955,2.73233,7.62606,7.62606,0,0,0,4.17447,1.06272A8.56655,8.56655,0,0,0,775.279,552.12911Z"/><path d="M810.8822,552.88793q2.42843,2.35385,6.98415,2.35384a9.6095,9.6095,0,0,0,5.61753-1.63184,6.77563,6.77563,0,0,0,2.88428-3.45433h9.489q-2.27649,7.06014-6.98416,10.09591a20.5531,20.5531,0,0,1-11.38609,3.03715,22.40555,22.40555,0,0,1-8.35078-1.48082,17.34323,17.34323,0,0,1-6.30085-4.21315,18.92987,18.92987,0,0,1-3.98476-6.52831,23.865,23.865,0,0,1-1.40438-8.35078,22.87511,22.87511,0,0,1,1.44214-8.19791,18.96632,18.96632,0,0,1,10.43755-10.93117,20.32374,20.32374,0,0,1,8.16108-1.59409,18.65233,18.65233,0,0,1,8.72927,1.93575,17.43463,17.43463,0,0,1,6.11114,5.19944,21.39793,21.39793,0,0,1,3.45432,7.43908,27.74286,27.74286,0,0,1,.75883,8.7302H808.22538Q808.45331,550.535,810.8822,552.88793Zm12.18359-20.64765q-1.93528-2.12452-5.88275-2.12545a9.39181,9.39181,0,0,0-4.28958.873,8.171,8.171,0,0,0-2.73233,2.16321,7.91192,7.91192,0,0,0-1.44214,2.73325,12.26935,12.26935,0,0,0-.49361,2.58038h17.53591A12.45892,12.45892,0,0,0,823.06579,532.24028Z"/><path d="M876.62112,523.54785a79.41015,79.41015,0,0,0-1.9735,17.65009,82.1714,82.1714,0,0,0,1.93575,17.83889,68.64341,68.64341,0,0,0,6.26308,17.00454h-8.95766a70.69112,70.69112,0,0,1-7.40225-16.47318,60.47415,60.47415,0,0,1-2.61906-17.61142,65.24979,65.24979,0,0,1,.64556-8.9199,74.63634,74.63634,0,0,1,1.898-9.29932,66.7683,66.7683,0,0,1,3.11266-8.95766,46.24635,46.24635,0,0,1,4.3651-7.97044H882.922A66.127,66.127,0,0,0,876.62112,523.54785Z"/><path d="M904.404,508.09964l12.67812,37.2737h.151l11.99481-37.2737h16.77616v54.2018H934.84545V523.8895h-.152l-13.285,38.41194h-9.18512l-13.285-38.03252h-.152v38.03252H887.6278v-54.2018Z"/><path d="M983.50524,508.09964l20.26824,54.2018h-12.3733l-4.09988-12.07032H967.03206l-4.2509,12.07032H950.78635l20.49662-54.2018Zm.68331,33.25025-6.8322-19.88974h-.152l-7.05967,19.88974Z"/><path d="M1004.30484,508.09964h13.81636l10.62727,17.30844,11.0076-17.30844h13.05661l-17.38395,25.88668,18.90253,28.31512h-14.19578l-11.84194-18.75058-12.07032,18.75058H1002.8627l18.90161-28.39155Z"/><path d="M1059.60621,559.37849a77.09215,77.09215,0,0,0,2.01126-17.57367,81.71925,81.71925,0,0,0-1.9735-17.91532,73.60479,73.60479,0,0,0-6.1489-17.08h8.88123a70.30686,70.30686,0,0,1,7.40225,16.54869,61.28423,61.28423,0,0,1,2.61814,17.68786,70.60065,70.60065,0,0,1-2.46711,18.18054,64.23647,64.23647,0,0,1-3.15043,8.9199,45.48086,45.48086,0,0,1-4.40285,7.89493h-8.95766A71.28126,71.28126,0,0,0,1059.60621,559.37849Z"/></svg>