<svg xmlns="http://www.w3.org/2000/svg" xmlns:xlink="http://www.w3.org/1999/xlink" viewBox="0 0 200 200"><defs><style>.a{fill:#04a118;}.b{fill:#05a119;}.c{fill:url(#a);}</style><linearGradient id="a" x1="34.69727" y1="138.19824" x2="166.66992" y2="138.19824" gradientUnits="userSpaceOnUse"><stop offset="0" stop-color="#006838"/><stop offset="0.75" stop-color="#69b02a"/><stop offset="1" stop-color="#95ce24"/></linearGradient></defs><title>cutom_landscape</title><path class="a" d="M108.91768,39.0239q-.45618,11.26235,0,22.6372a.25206.25206,0,0,0,.22866-.22866,10.91484,10.91484,0,0,1,4.57317-2.05793q-.05727-4.8032.11433-9.60366a6.9283,6.9283,0,0,1,4.91616-4.6875q6.85873-.1715,13.71951-.11433v2.51525q-6.74622-.05729-13.49085.11433a3.80635,3.80635,0,0,0-2.62957,2.62957q-.1715,4.2287-.11433,8.46037,9.81083-.0662,14.0625,8.689a13.42887,13.42887,0,0,1-.57165,11.20427q9.26512,1.42718,7.20274,10.51829-3.0742,5.62363-9.48933,4.57317.05729-3.66036-.11432-7.31707a3.76666,3.76666,0,0,0-2.40092-2.40092q-8.68891-.22876-17.378,0a4.61922,4.61922,0,0,0-2.40091,2.40092q-.17149,3.65659-.11433,7.31707-4.91741-.05727-9.83232.11433a.98477.98477,0,0,0,.45732.343q3.731,3.77629-.22866,7.4314a10.494,10.494,0,0,1-2.28659.91464q-12.91932.22876-25.83841,0-5.17294-.8297-4.6875-6.05945A5.25884,5.25884,0,0,1,66.27287,92.53q.79813-7.77383,8.57469-7.4314a9.65978,9.65978,0,0,0,2.51524.45731,8.97872,8.97872,0,0,1,2.62958-2.17225,70.0513,70.0513,0,0,0,0-8.00305,4.45309,4.45309,0,0,0-2.85823-2.85823q-4.80045-.17149-9.60366-.11433V69.8928q4.689-.05727,9.375.11433a6.102,6.102,0,0,1,5.4878,5.8308,25.41482,25.41482,0,0,0,.22866,4.80183.25207.25207,0,0,0,.22866-.22866,9.16454,9.16454,0,0,1,3.88719-1.82927,8.89984,8.89984,0,0,1,1.71494-8.23171,21.33026,21.33026,0,0,1,2.74391-2.51524,4.20185,4.20185,0,0,0-2.62958-5.14482q-10.51771-.1715-21.03658-.11433V60.06049q10.6333-.05729,21.26524.11433a6.6194,6.6194,0,0,1,5.14482,6.51677,10.80617,10.80617,0,0,1,4.00152-.45732,1.05471,1.05471,0,0,0,.91464.22866q.11352-10.34829-.22866-20.57927a3.69017,3.69017,0,0,0-2.7439-3.31555q-10.4035-.17149-20.80793-.11433V39.93854q10.29033-.05729,20.57927.11433a6.11935,6.11935,0,0,1,5.60213,5.60213q.05729,10.8631.343,21.72256a13.44689,13.44689,0,0,1,2.40091,1.60061,25.92212,25.92212,0,0,1,2.05793-4.11585q.11423-13.03354.22866-26.06708a6.92825,6.92825,0,0,1,4.6875-4.91615q3.88536-.17149,7.77439-.11433V36.28q-3.66036-.05729-7.31707.11433A3.40962,3.40962,0,0,0,108.91768,39.0239Z"/><path class="a" d="M121.26524,33.76476h2.51525V36.28h-2.51525Z"/><path class="a" d="M70.04573,39.93854H72.561v2.51524H70.04573Z"/><path class="a" d="M134.98476,44.969H137.5v2.51525h-2.51524Z"/><path class="a" d="M62.5,60.06049h2.51524v2.51524H62.5Z"/><path class="a" d="M62.5,69.8928h2.51524v2.51525H62.5Z"/><path class="a" d="M108.46037,86.12756q7.77519-.05727,15.54878.11433a1.59555,1.59555,0,0,1,.8003.57165,41.35685,41.35685,0,0,1,.11433,4.34451h-17.378a41.35685,41.35685,0,0,1,.11433-4.34451A6.91387,6.91387,0,0,1,108.46037,86.12756Z"/><path class="a" d="M107.54573,93.67329h17.378v5.03049h-17.378Z"/><path class="a" d="M107.54573,101.219h17.378a41.35711,41.35711,0,0,1-.11433,4.34452l-.57165.57164q-8.00293.22878-16.00609,0l-.57165-.57164A41.35711,41.35711,0,0,1,107.54573,101.219Z"/><path class="b" d="M40.10352,161.15234h.62207c.00488.01856.01855.05664.041.11621q.13623.38233.54688,1.52442.13037.37647.52636,1.4834.09522.27392.38965,1.09375.13623-.36915.53321-1.49707.13623-.37647.54-1.50391.10988-.30029.4375-1.2168h.62891v5.00391h-.50586v-3.93066q-.11573.32813-.46484,1.292-.13038.37645-.53321,1.51758-.10252.27978-.40332,1.12109h-.458a.4312.4312,0,0,1-.041-.11621q-.17139-.479-.51269-1.42871-.15089-.41016-.59473-1.6543-.06153-.17724-.25293-.73144v3.93066h-.50586v-5.00391Z"/><path class="b" d="M46.00977,161.15234v3.32911a1.38987,1.38987,0,0,0,.28711.94335.78315.78315,0,0,0,.59472.25293h.44434a.78479.78479,0,0,0,.64258-.29394,1.32351,1.32351,0,0,0,.08886-.13672,1.14113,1.14113,0,0,0,.08887-.23926,1.92565,1.92565,0,0,0,.0752-.58105v-3.27442h.47167v3.31543a1.84958,1.84958,0,0,1-.44433,1.31934,1.2918,1.2918,0,0,1-.19824.15723,1.90406,1.90406,0,0,1-.21875.123,1.37556,1.37556,0,0,1-.48535.08887h-.48536a1.31449,1.31449,0,0,1-.66308-.18457,1.38119,1.38119,0,0,1-.54688-.69727,2.20767,2.20767,0,0,1-.12988-.76562v-3.35645Z"/><path class="b" d="M49.87891,161.15234h.47168v4.52539h2.13964v.47852H49.87207v-5.00391Z"/><path class="b" d="M55.76465,161.15234h.00683v.47168c0,.00489-.00195.00684-.00683.00684h-1.333v4.52539h-.47852v-4.52539H52.61328v-.47852Z"/><path class="b" d="M56.41406,161.15234h.47168v5.00391h-.47851v-5.00391Z"/><path class="b" d="M60.87793,161.09082h.49219a1.26935,1.26935,0,0,1,1.20312.84082,2.32582,2.32582,0,0,1,.14356.84766h-.47168c-.00489,0-.00684-.002-.00684-.00684a1.3869,1.3869,0,0,0-.30762-.9707.77845.77845,0,0,0-.58105-.23926h-.44434a.78032.78032,0,0,0-.62207.28027,1.49007,1.49007,0,0,0-.25976.92285V164.543a1.556,1.556,0,0,0,.20508.84765c.02734.03614.06152.08008.10253.12989a.68717.68717,0,0,0,.19141.13672.86518.86518,0,0,0,.417.08886h.376a.85915.85915,0,0,0,.38281-.07519.82248.82248,0,0,0,.43067-.46485,1.84725,1.84725,0,0,0,.10937-.66308v-.00684H62.71c.00488,0,.00684.002.00684.00684a1.91012,1.91012,0,0,1-.3418,1.18262,1.81388,1.81388,0,0,1-.15039.16406.372.372,0,0,0-.03418.041,1.28671,1.28671,0,0,1-.84766.294h-.43066a1.26331,1.26331,0,0,1-.97754-.43066,2.04534,2.04534,0,0,1-.15039-.21192c-.041-.07324-.0752-.13867-.10254-.19824a2.26175,2.26175,0,0,1-.14355-.81348v-1.832a2.10253,2.10253,0,0,1,.1914-.90234,1.53967,1.53967,0,0,1,.16406-.2666,1.04612,1.04612,0,0,1,.1504-.16407,1.3266,1.3266,0,0,1,.43066-.25293A1.44724,1.44724,0,0,1,60.87793,161.09082Z"/><path class="b" d="M63.53711,161.15234h.47168v4.52539h2.13965v.47852H63.53027v-5.00391Z"/><path class="b" d="M67.27637,161.15234v3.32911a1.38987,1.38987,0,0,0,.28711.94335.78317.78317,0,0,0,.59472.25293h.44434a.78479.78479,0,0,0,.64258-.29394,1.32351,1.32351,0,0,0,.08886-.13672,1.14113,1.14113,0,0,0,.08887-.23926,1.92533,1.92533,0,0,0,.0752-.58105v-3.27442h.47168v3.31543a1.84958,1.84958,0,0,1-.44434,1.31934,1.2918,1.2918,0,0,1-.19824.15723,1.90406,1.90406,0,0,1-.21875.123,1.37556,1.37556,0,0,1-.48535.08887H68.1377a1.31453,1.31453,0,0,1-.66309-.18457,1.38119,1.38119,0,0,1-.54688-.69727,2.20767,2.20767,0,0,1-.12988-.76562v-3.35645Z"/><path class="b" d="M72.34863,161.09082h.05469a1.48577,1.48577,0,0,1,.69043.17773c.07324.0459.15039.10059.23242.16407a1.75124,1.75124,0,0,1,.15039.13672,2.248,2.248,0,0,1,.18457.24609,1.04423,1.04423,0,0,1,.0752.13672q-.10986.0542-.43067.20508a1.23817,1.23817,0,0,0-.18457-.25977.97651.97651,0,0,0-.73828-.32812H72.376a1.0099,1.0099,0,0,0-.7041.25293.83254.83254,0,0,0-.13672.16406.92325.92325,0,0,0-.15039.51269.593.593,0,0,0,.17773.458,1.285,1.285,0,0,0,.30078.19824,4.78005,4.78005,0,0,0,.98438.30078,1.35589,1.35589,0,0,1,.29394.11622,1.2591,1.2591,0,0,1,.294.20507.94227.94227,0,0,1,.15039.16407,1.30853,1.30853,0,0,1,.2666.793v.04785a1.48422,1.48422,0,0,1-.19141.71093,1.40334,1.40334,0,0,1-.73144.62891,1.70307,1.70307,0,0,1-.56055.10254h-.06152a1.58415,1.58415,0,0,1-.69043-.1709,1.67123,1.67123,0,0,1-.23926-.15039,1.92728,1.92728,0,0,1-.3418-.34863,2.32853,2.32853,0,0,1-.18457-.29395c-.03613-.08691-.05468-.13183-.05468-.13672q.00732-.00732.4375-.18457a1.77193,1.77193,0,0,0,.17089.30762,1.27247,1.27247,0,0,0,.15039.1709,1.11887,1.11887,0,0,0,.23926.18457,1.102,1.102,0,0,0,.54.14355h.02051a1.11942,1.11942,0,0,0,.62207-.1914,1.75442,1.75442,0,0,0,.15039-.13672.90053.90053,0,0,0,.19141-.35547,1.02034,1.02034,0,0,0,.04785-.30078v-.00684a.86478.86478,0,0,0-.23926-.61523.70544.70544,0,0,0-.19824-.13672.63074.63074,0,0,0-.14356-.06152,3.61986,3.61986,0,0,0-.35547-.08887,4.07177,4.07177,0,0,1-.86816-.31445,1.09639,1.09639,0,0,1-.65625-1.02539v-.02735a1.41678,1.41678,0,0,1,.25293-.80664c.03223-.041.084-.10059.15723-.17773a.988.988,0,0,1,.21191-.1709,1.42443,1.42443,0,0,1,.32129-.15723A1.65531,1.65531,0,0,1,72.34863,161.09082Z"/><path class="b" d="M77.31152,161.15234h.00684v.47168c0,.00489-.00195.00684-.00684.00684h-1.333v4.52539H75.5v-4.52539H74.16016v-.47852Z"/><path class="b" d="M77.96094,161.15234h2.48828v.47168l-.00684.00684H78.43262V163.415h1.60644l.00684.00684v.46484l-.00684.00683H78.43262v1.78418h2.00976l.00684.00684v.47168H77.9541v-5.00391Z"/><path class="b" d="M81.40625,161.15234h1.40137a1.58,1.58,0,0,1,.7041.1709,1.49431,1.49431,0,0,1,.2666.18457,1.38672,1.38672,0,0,1,.1709.1709,1.483,1.483,0,0,1,.16406.25293,1.34624,1.34624,0,0,1,.0957.24609,1.46332,1.46332,0,0,1,.06153.458v.02051a1.53835,1.53835,0,0,1-.12305.63574,1.50565,1.50565,0,0,1-.69043.77246q.20508.50538.6084,1.51075.06153.14355.23926.58105h-.54688a3.12982,3.12982,0,0,1-.15039-.36914q-.00732-.01318-.45117-1.169c-.03613-.09082-.08887-.22558-.15723-.40332a1.22606,1.22606,0,0,1-.22558.02051h-.89551v1.9209h-.47168l-.00684-.00684v-4.99707Zm.47168.47852v2.126h.86816a.91306.91306,0,0,0,.41016-.082.96574.96574,0,0,0,.52637-.51269,1.02186,1.02186,0,0,0,.10937-.45117v-.12989a.90286.90286,0,0,0-.21191-.58789.70765.70765,0,0,0-.15039-.15722,1.07874,1.07874,0,0,0-.64258-.20508Z"/><path class="b" d="M88.44727,161.15234l.06835.20508q.16407.50538.499,1.52442.123.38232.499,1.53125.13623.43066.55371,1.71582a.09556.09556,0,0,0,.00684.02734h-.5127l-.05468-.16406q-.14356-.438-.43067-1.3125H87.30566q-.10254.32813-.42382,1.3125c-.00879.02734-.02735.082-.05469.16406h-.50586q.14355-.42334.55371-1.69531.123-.38233.499-1.51758.13038-.41748.53321-1.66113a.946.946,0,0,1,.04785-.12989Zm-.60157,1.89356q-.0952.2871-.38281,1.15527H88.919q-.13038-.41748-.54-1.6748-.04834-.13623-.18457-.56739Q88.105,162.23291,87.8457,163.0459Z"/><path class="b" d="M90.76465,161.15234H92.166a1.54544,1.54544,0,0,1,.71777.18457,1.29707,1.29707,0,0,1,.25293.1709,1.36814,1.36814,0,0,1,.42383.62891,1.47376,1.47376,0,0,1,.06836.43066v.16407a1.54049,1.54049,0,0,1-.1709.68359,2.07615,2.07615,0,0,1-.15723.24609,1.04594,1.04594,0,0,1-.15039.16407,1.44292,1.44292,0,0,1-1.01855.41015h-.89551v1.9209h-.47852v-5.00391Zm.47168.47852v2.126h.86816a.98963.98963,0,0,0,.41016-.0752,1.02092,1.02092,0,0,0,.5332-.51953,1.08232,1.08232,0,0,0,.10254-.45117v-.12989a.90286.90286,0,0,0-.21191-.58789,1.04073,1.04073,0,0,0-.15039-.15722,1.07874,1.07874,0,0,0-.64258-.20508Z"/><path class="b" d="M94.42871,161.15234h1.40137a1.54541,1.54541,0,0,1,.71777.18457,1.29677,1.29677,0,0,1,.25293.1709,1.36814,1.36814,0,0,1,.42383.62891,1.47376,1.47376,0,0,1,.06836.43066v.16407a1.54049,1.54049,0,0,1-.1709.68359,2.07615,2.07615,0,0,1-.15723.24609,1.04543,1.04543,0,0,1-.15039.16407,1.44292,1.44292,0,0,1-1.01855.41015h-.89551v1.9209h-.47851v-5.00391Zm.47168.47852v2.126h.86816a.98956.98956,0,0,0,.41016-.0752,1.02088,1.02088,0,0,0,.5332-.51953,1.08232,1.08232,0,0,0,.10254-.45117v-.12989a.90286.90286,0,0,0-.21191-.58789,1.04073,1.04073,0,0,0-.15039-.15722,1.07871,1.07871,0,0,0-.64258-.20508Z"/><path class="b" d="M98.09277,161.15234h.47168v4.52539h2.13965v.47852H98.08594v-5.00391Z"/><path class="b" d="M101.36719,161.15234h.47168v5.00391h-.47852v-5.00391Z"/><path class="b" d="M104.09473,161.09082h.49218a1.26935,1.26935,0,0,1,1.20313.84082,2.326,2.326,0,0,1,.14355.84766h-.47168c-.00488,0-.00683-.002-.00683-.00684a1.3869,1.3869,0,0,0-.30762-.9707.77845.77845,0,0,0-.581-.23926h-.44434a.78032.78032,0,0,0-.62207.28027,1.49007,1.49007,0,0,0-.25977.92285V164.543a1.556,1.556,0,0,0,.20508.84765c.02735.03614.06153.08008.10254.12989a.687.687,0,0,0,.19141.13672.86513.86513,0,0,0,.417.08886h.376a.85918.85918,0,0,0,.38281-.07519.82247.82247,0,0,0,.43066-.46485,1.847,1.847,0,0,0,.10938-.66308v-.00684h.47168c.00488,0,.00683.002.00683.00684a1.91012,1.91012,0,0,1-.34179,1.18262,1.81542,1.81542,0,0,1-.15039.16406.372.372,0,0,0-.03418.041,1.28671,1.28671,0,0,1-.84766.294h-.43066a1.26328,1.26328,0,0,1-.97754-.43066,2.0438,2.0438,0,0,1-.15039-.21192c-.041-.07324-.0752-.13867-.10254-.19824a2.26154,2.26154,0,0,1-.14356-.81348v-1.832a2.10253,2.10253,0,0,1,.19141-.90234,1.53844,1.53844,0,0,1,.16406-.2666,1.04645,1.04645,0,0,1,.15039-.16407,1.32664,1.32664,0,0,1,.43067-.25293A1.44724,1.44724,0,0,1,104.09473,161.09082Z"/><path class="b" d="M108.40137,161.15234l.06836.20508q.16405.50538.499,1.52442.123.38232.499,1.53125.13623.43066.55371,1.71582a.09556.09556,0,0,0,.00684.02734h-.5127l-.05468-.16406q-.14356-.438-.43067-1.3125h-1.7705q-.10254.32813-.42383,1.3125c-.00879.02734-.02735.082-.05469.16406h-.50586q.14355-.42334.55371-1.69531.123-.38233.499-1.51758.13038-.41748.53321-1.66113a.946.946,0,0,1,.04785-.12989Zm-.60157,1.89356q-.09521.2871-.38281,1.15527h1.45606q-.13038-.41748-.54-1.6748-.04834-.13623-.18457-.56739Q108.05909,162.23291,107.7998,163.0459Z"/><path class="b" d="M113.33008,161.15234h.00683v.47168c0,.00489-.002.00684-.00683.00684h-1.333v4.52539h-.47852v-4.52539h-1.33984v-.47852Z"/><path class="b" d="M113.97949,161.15234h.47168v5.00391h-.47851v-5.00391Z"/><path class="b" d="M116.7207,161.09082h.48535a1.30075,1.30075,0,0,1,.64258.1709,1.33544,1.33544,0,0,1,.56739.7041,2.2853,2.2853,0,0,1,.13671.82031v1.75a1.77251,1.77251,0,0,1-.49218,1.35352,1.23517,1.23517,0,0,1-.417.25976,1.37055,1.37055,0,0,1-.43066.0752h-.49219a1.26229,1.26229,0,0,1-.59472-.15039,1.30446,1.30446,0,0,1-.60157-.69727,2.11071,2.11071,0,0,1-.15039-.80664v-1.82519a2.05053,2.05053,0,0,1,.21192-.94336,1.47587,1.47587,0,0,1,.14355-.23926c.03223-.03613.084-.08887.15723-.15723a1.36442,1.36442,0,0,1,.1914-.14355A1.30078,1.30078,0,0,1,116.7207,161.09082Zm-.86132,1.68164v1.77734a1.565,1.565,0,0,0,.1914.81348.76174.76174,0,0,0,.41016.335.83292.83292,0,0,0,.28027.04785h.44434a.77163.77163,0,0,0,.63574-.30078.75594.75594,0,0,0,.08887-.12988,1.41117,1.41117,0,0,0,.0957-.24609,2.00754,2.00754,0,0,0,.06836-.57422v-1.668a1.75941,1.75941,0,0,0-.12988-.74512,1.12331,1.12331,0,0,0-.11622-.21191.74448.74448,0,0,0-.23925-.20508.80261.80261,0,0,0-.39649-.10254h-.45117a.77635.77635,0,0,0-.66309.3418A1.54316,1.54316,0,0,0,115.85938,162.77246Z"/><path class="b" d="M122.79785,166.15625h-.56738a1.04147,1.04147,0,0,1-.08887-.15723q-.24609-.44385-.73144-1.333-.18458-.33546-.72461-1.333-.18458-.33545-.73145-1.33985v4.16309h-.50586v-5.00391h.58789a3.1262,3.1262,0,0,1,.15723.27344q.16406.3003.49219.90234.19189.36183.77246,1.42872.57421,1.03857.58105,1.05957l.25293.46484v-4.12891h.50586Z"/><path class="b" d="M125.71,161.15234h1.791a1.14032,1.14032,0,0,1,.57422.15723,1.287,1.287,0,0,1,.5332.66309,2.21608,2.21608,0,0,1,.13672.78613v1.791a2.19625,2.19625,0,0,1-.15723.84082,2.56431,2.56431,0,0,1-.123.23926,1.14388,1.14388,0,0,1-.15039.17774,1.00714,1.00714,0,0,1-.21875.18457c-.06836.03613-.1416.07031-.21875.10254a1.18532,1.18532,0,0,1-.3623.06152h-1.81153v-5.00391Zm.47168.47852v4.04687h1.3125a.68231.68231,0,0,0,.51953-.23925,1.06747,1.06747,0,0,0,.19141-.40332,1.99637,1.99637,0,0,0,.06152-.499v-1.75a1.61483,1.61483,0,0,0-.18457-.81347.67432.67432,0,0,0-.59473-.3418Z"/><path class="b" d="M129.6543,161.15234h.47168v5.00391h-.47852v-5.00391Z"/><path class="b" d="M132.51172,161.09082h.05469a1.48577,1.48577,0,0,1,.69043.17773c.07324.0459.15039.10059.23242.16407a1.75274,1.75274,0,0,1,.15039.13672,2.24936,2.24936,0,0,1,.18457.24609,1.04288,1.04288,0,0,1,.07519.13672q-.10986.0542-.43066.20508a1.23854,1.23854,0,0,0-.18457-.25977.97653.97653,0,0,0-.73828-.32812h-.00684a1.00992,1.00992,0,0,0-.7041.25293.83254.83254,0,0,0-.13672.16406.92333.92333,0,0,0-.15039.51269.59292.59292,0,0,0,.17774.458,1.285,1.285,0,0,0,.30078.19824,4.78012,4.78012,0,0,0,.98437.30078,1.35579,1.35579,0,0,1,.29395.11622,1.25885,1.25885,0,0,1,.29394.20507.94184.94184,0,0,1,.15039.16407,1.30853,1.30853,0,0,1,.2666.793v.04785a1.4842,1.4842,0,0,1-.1914.71093,1.40332,1.40332,0,0,1-.73145.62891,1.70306,1.70306,0,0,1-.56054.10254h-.06153a1.58421,1.58421,0,0,1-.69043-.1709,1.67118,1.67118,0,0,1-.23925-.15039,1.927,1.927,0,0,1-.3418-.34863,2.32739,2.32739,0,0,1-.18457-.29395c-.03613-.08691-.05469-.13183-.05469-.13672q.00732-.00732.4375-.18457a1.772,1.772,0,0,0,.1709.30762,1.27174,1.27174,0,0,0,.15039.1709,1.11838,1.11838,0,0,0,.23926.18457,1.10193,1.10193,0,0,0,.54.14355h.0205a1.1194,1.1194,0,0,0,.62207-.1914,1.75281,1.75281,0,0,0,.1504-.13672.90038.90038,0,0,0,.1914-.35547,1.02,1.02,0,0,0,.04785-.30078v-.00684a.86477.86477,0,0,0-.23925-.61523.70546.70546,0,0,0-.19825-.13672.63045.63045,0,0,0-.14355-.06152,3.62149,3.62149,0,0,0-.35547-.08887,4.07156,4.07156,0,0,1-.86816-.31445,1.09639,1.09639,0,0,1-.65625-1.02539v-.02735a1.41678,1.41678,0,0,1,.25293-.80664c.03222-.041.084-.10059.15722-.17773a.988.988,0,0,1,.21192-.1709,1.42422,1.42422,0,0,1,.32129-.15723A1.65531,1.65531,0,0,1,132.51172,161.09082Z"/><path class="b" d="M134.86328,161.15234h1.40137a1.54541,1.54541,0,0,1,.71777.18457,1.29677,1.29677,0,0,1,.25293.1709,1.36814,1.36814,0,0,1,.42383.62891,1.47376,1.47376,0,0,1,.06836.43066v.16407a1.54049,1.54049,0,0,1-.1709.68359,2.07615,2.07615,0,0,1-.15723.24609,1.04543,1.04543,0,0,1-.15039.16407,1.44292,1.44292,0,0,1-1.01855.41015H135.335v1.9209h-.47851v-5.00391Zm.47168.47852v2.126h.86816a.98956.98956,0,0,0,.41016-.0752,1.02088,1.02088,0,0,0,.5332-.51953,1.08232,1.08232,0,0,0,.10254-.45117v-.12989a.90286.90286,0,0,0-.21191-.58789,1.04073,1.04073,0,0,0-.15039-.15722,1.07871,1.07871,0,0,0-.64258-.20508Z"/><path class="b" d="M140.1748,161.15234l.06836.20508q.16407.50538.499,1.52442.123.38232.499,1.53125.13623.43066.55371,1.71582a.09556.09556,0,0,0,.00684.02734h-.5127l-.05468-.16406q-.14356-.438-.43067-1.3125H139.0332q-.10254.32813-.42382,1.3125c-.00879.02734-.02735.082-.05469.16406h-.50586q.14355-.42334.55371-1.69531.123-.38233.499-1.51758.13038-.41748.53321-1.66113a.946.946,0,0,1,.04785-.12989Zm-.60156,1.89356q-.0952.2871-.38281,1.15527h1.45605q-.13036-.41748-.54-1.6748-.04834-.13623-.18457-.56739Q139.83251,162.23291,139.57324,163.0459Z"/><path class="b" d="M145.10352,161.15234h.00683v.47168c0,.00489-.002.00684-.00683.00684h-1.333v4.52539H143.292v-4.52539h-1.33984v-.47852Z"/><path class="b" d="M146.82617,161.09082h.49219a1.26933,1.26933,0,0,1,1.20312.84082,2.32582,2.32582,0,0,1,.14356.84766h-.47168c-.00488,0-.00684-.002-.00684-.00684a1.38695,1.38695,0,0,0-.30761-.9707.77849.77849,0,0,0-.58106-.23926h-.44433a.78029.78029,0,0,0-.62207.28027,1.49,1.49,0,0,0-.25977.92285V164.543a1.556,1.556,0,0,0,.20508.84765c.02734.03614.06152.08008.10254.12989a.68715.68715,0,0,0,.1914.13672.8652.8652,0,0,0,.417.08886h.376a.85912.85912,0,0,0,.38281-.07519.82248.82248,0,0,0,.43067-.46485,1.84725,1.84725,0,0,0,.10937-.66308v-.00684h.47168c.00489,0,.00684.002.00684.00684a1.91012,1.91012,0,0,1-.3418,1.18262,1.81388,1.81388,0,0,1-.15039.16406.372.372,0,0,0-.03418.041,1.28668,1.28668,0,0,1-.84765.294h-.43067a1.26331,1.26331,0,0,1-.97754-.43066,2.04534,2.04534,0,0,1-.15039-.21192c-.041-.07324-.07519-.13867-.10254-.19824a2.26175,2.26175,0,0,1-.14355-.81348v-1.832a2.10253,2.10253,0,0,1,.1914-.90234,1.53914,1.53914,0,0,1,.16407-.2666,1.04594,1.04594,0,0,1,.15039-.16407,1.3266,1.3266,0,0,1,.43066-.25293A1.44724,1.44724,0,0,1,146.82617,161.09082Z"/><path class="b" d="M149.48535,161.15234h.47168v2.2627h2.36524v-2.2627h.47851v5.00391h-.47851v-2.2627H149.957v2.2627h-.47851v-5.00391Z"/><path class="b" d="M153.9834,161.15234h2.48828v.47168l-.00684.00684h-2.00976V163.415h1.60644l.00684.00684v.46484l-.00684.00683h-1.60644v1.78418h2.00976l.00684.00684v.47168h-2.49512v-5.00391Z"/><path class="b" d="M157.42871,161.15234h1.40137a1.58,1.58,0,0,1,.7041.1709,1.49431,1.49431,0,0,1,.2666.18457,1.38672,1.38672,0,0,1,.1709.1709,1.48237,1.48237,0,0,1,.16406.25293,1.347,1.347,0,0,1,.09571.24609,1.46364,1.46364,0,0,1,.06152.458v.02051a1.53835,1.53835,0,0,1-.12305.63574,1.50565,1.50565,0,0,1-.69043.77246q.20508.50538.6084,1.51075.06153.14355.23926.58105h-.54688a3.12982,3.12982,0,0,1-.15039-.36914q-.00732-.01318-.45117-1.169c-.03613-.09082-.08887-.22558-.15723-.40332a1.22606,1.22606,0,0,1-.22558.02051h-.89551v1.9209h-.47168l-.00683-.00684v-4.99707Zm.47168.47852v2.126h.86816a.91306.91306,0,0,0,.41016-.082.96571.96571,0,0,0,.52637-.51269,1.02186,1.02186,0,0,0,.10937-.45117v-.12989a.90286.90286,0,0,0-.21191-.58789.70765.70765,0,0,0-.15039-.15722,1.07871,1.07871,0,0,0-.64258-.20508Z"/><path class="c" d="M68.44727,122.18262V153.96H60.08789V141.47949l-8.47656,11.95313h-.0586l-8.49609-11.95313V153.96H34.69727V122.18262h3.35937l13.51563,18.51562,13.51562-18.51562Zm4.10156,16.03515c0-9.3164,7.53906-16.48437,17.34375-16.48437A18.2779,18.2779,0,0,1,101.5332,126.499l-4.80468,6.17188a10.666,10.666,0,0,0-6.81641-2.91016,8.50174,8.50174,0,1,0-.17578,16.99219,10.64,10.64,0,0,0,7.03125-3.06641l4.76562,6.34766a17.332,17.332,0,0,1-11.79687,4.62891C80.84961,154.66309,72.54883,148.10059,72.54883,138.21777Zm52.71484,12.07032H113.50586L111.9043,153.96h-9.14063l14.62891-31.875h3.96484l14.64844,31.875H126.8457Zm-2.65625-6.11329-3.22265-7.46093-3.24219,7.46093Zm44.0625-5.918c0,9.76562-6.543,15.70312-17.24609,15.70312H139.15039V122.49512l10.27344-.01953C160.127,122.43652,166.66992,128.41309,166.66992,138.25684Zm-8.3789-.01954c0-4.9414-3.4375-7.94921-9.082-7.94921h-1.91406v15.80078h1.99219C154.87305,146.08887,158.291,143.12012,158.291,138.2373Z"/></svg>