<svg id="Layer_1" data-name="Layer 1" xmlns="http://www.w3.org/2000/svg" viewBox="0 0 1120 560"><defs><style>.cls-1{fill:#101820;}</style></defs><title>Logo_B</title><path class="cls-1" d="M864.35,288.27q-5.36-4.65-16.54-4.66t-16.55,4.66a16.4,16.4,0,0,0,0,24.24q5.37,4.65,16.55,4.66t16.54-4.66a16.38,16.38,0,0,0,0-24.24Z"/><path class="cls-1" d="M462.05,245.63q-10.71,0-16.08,5.71t-6.05,17.59h44.5q-.71-12.35-5.94-17.82T462.05,245.63Z"/><path class="cls-1" d="M900,140H220a80,80,0,0,0-80,80V340a80,80,0,0,0,80,80H900a80,80,0,0,0,80-80V220A80,80,0,0,0,900,140ZM387.76,340H357.47V248H319v92H288.73V248H250.29v92H220V220H387.76Zm127-48.93H440.62q1.62,11.88,8.85,17.59t23.77,5.71q7.9,0,15.49-.7a145.41,145.41,0,0,0,18.06-3v27.5a158.16,158.16,0,0,1-19.57,3.49q-7.47.71-16.31.7-35.66,0-48.59-18.64t-12.93-43.57q0-28.67,12.82-45.55t40.31-16.89q27,0,39.61,16t12.58,43.92Zm53.79,15.26q5.36,8,20,8,11.88,0,16.43-5.94t5.24-17.36H640.5a55.15,55.15,0,0,1-6.06,25.86,45.22,45.22,0,0,1-17.94,18.53q-11.88,6.87-28.43,6.87-27,0-41.12-17t-14.1-45.43q0-28.42,14.1-45.32t41.12-16.89q16.54,0,28.43,6.87a45.26,45.26,0,0,1,17.94,18.52,55.2,55.2,0,0,1,6.06,25.86H610.21q-.71-11.4-5.24-17.35t-16.43-5.94q-14.68,0-20,7.92t-5.36,26.33Q563.14,298.3,568.5,306.33ZM772.81,340H742.52V248H693.59v92H663.3V176.9h30.29V220h79.22Zm142.33,0H869.71V328.35a30.36,30.36,0,0,1-12.35,10.37q-7.7,3.6-20,3.61-13.52,0-23-5.82a36.76,36.76,0,0,1-14.09-15.38,48.48,48.48,0,0,1,0-41.48,36.74,36.74,0,0,1,14.09-15.37q9.43-5.83,23-5.83,12.58,0,20.16,3.5a29.15,29.15,0,0,1,12.23,10.48V246.8H809.13V220H900v90.87h15.14Z"/></svg>