<?xml version="1.0" encoding="UTF-8" standalone="no"?><svg id="svg3355" version="1.1" inkscape:version="1.2.2 (b0a8486, 2022-12-01)" xml:space="preserve" width="600" height="500" viewBox="0 0 600.00001 500.00001" sodipodi:docname="logo.svg" inkscape:export-filename="logo.png" inkscape:export-xdpi="96" inkscape:export-ydpi="96" xmlns:inkscape="http://www.inkscape.org/namespaces/inkscape" xmlns:sodipodi="http://sodipodi.sourceforge.net/DTD/sodipodi-0.dtd" xmlns="http://www.w3.org/2000/svg" xmlns:svg="http://www.w3.org/2000/svg" xmlns:rdf="http://www.w3.org/1999/02/22-rdf-syntax-ns#" xmlns:cc="http://creativecommons.org/ns#" xmlns:dc="http://purl.org/dc/elements/1.1/"><metadata id="metadata3361"><rdf:RDF><cc:Work rdf:about=""><dc:format>image/svg+xml</dc:format><dc:type rdf:resource="http://purl.org/dc/dcmitype/StillImage" /></cc:Work></rdf:RDF></metadata><defs id="defs3359"><clipPath clipPathUnits="userSpaceOnUse" id="clipPath3369"><path d="M 0,768 H 1366 V 0 H 0 Z" id="path3371" inkscape:connector-curvature="0" /></clipPath></defs><sodipodi:namedview pagecolor="#000000" bordercolor="#666666" borderopacity="1" objecttolerance="10" gridtolerance="10" guidetolerance="10" inkscape:pageopacity="0" inkscape:pageshadow="2" inkscape:window-width="1920" inkscape:window-height="1027" id="namedview3357" showgrid="false" inkscape:zoom="0.70710678" inkscape:cx="159.80613" inkscape:cy="340.11836" inkscape:window-x="1920" inkscape:window-y="25" inkscape:window-maximized="0" inkscape:current-layer="g3363" fit-margin-top="0" fit-margin-left="0" fit-margin-right="0" fit-margin-bottom="0" inkscape:showpageshadow="2" inkscape:pagecheckerboard="0" inkscape:deskcolor="#000000" showguides="true"><inkscape:grid type="xygrid" id="grid204" /></sodipodi:namedview><g id="g3363" inkscape:groupmode="layer" inkscape:label="Micrometer logo" transform="matrix(1.25,0,0,-1.25,-218.92118,764.84757)"><g id="g435" inkscape:label="text" transform="matrix(1.1120414,0,0,1.09812,-448.64533,-186.85064)" style="fill:#1a1a1a"><path d="M 0,0 H -11.984 V 23.021 L -22.792,9.689 h -0.946 L -34.575,23.021 V 0 h -11.64 v 39.735 h 10.866 l 12.213,-14.908 12.27,14.908 H 0 Z" style="fill:#1a1a1a;fill-opacity:1;fill-rule:nonzero;stroke:none" id="path3383" inkscape:connector-curvature="0" transform="translate(607.1494,363.6182)" inkscape:label="M" /><path d="M 629.224,363.618 H 617.24 v 39.735 h 11.984 z" style="fill:#1a1a1a;fill-opacity:1;fill-rule:nonzero;stroke:none" id="path3385" inkscape:connector-curvature="0" inkscape:export-xdpi="69.889999" inkscape:export-ydpi="69.889999" inkscape:label="I" /><path d="m 0,0 c -1.643,-0.86 -3.325,-1.548 -5.045,-2.063 -1.72,-0.517 -3.455,-0.885 -5.204,-1.105 -1.749,-0.219 -3.56,-0.33 -5.432,-0.33 -3.46,0 -6.562,0.478 -9.304,1.435 -2.742,0.955 -5.122,2.364 -7.138,4.228 -2.016,1.863 -3.527,4.042 -4.53,6.536 -1.003,2.494 -1.504,5.233 -1.504,8.214 0,3.421 0.592,6.417 1.777,8.987 1.184,2.571 2.842,4.707 4.973,6.409 2.132,1.7 4.558,2.956 7.282,3.769 2.725,0.812 5.596,1.218 8.616,1.218 4.51,0 9.623,-1.003 15.337,-3.01 v -10.55 c -1.968,1.223 -3.913,2.241 -5.834,3.053 -1.92,0.813 -4.181,1.219 -6.78,1.219 -2.313,0 -4.472,-0.459 -6.48,-1.377 -2.005,-0.917 -3.622,-2.227 -4.844,-3.927 -1.223,-1.702 -1.835,-3.689 -1.835,-5.963 0,-2.008 0.535,-3.847 1.605,-5.519 1.071,-1.672 2.556,-3.001 4.459,-3.985 1.901,-0.984 4.047,-1.476 6.436,-1.476 1.93,0 3.755,0.233 5.476,0.702 1.72,0.468 3.167,0.989 4.343,1.562 1.176,0.574 2.383,1.252 3.626,2.036 z" style="fill:#1a1a1a;fill-opacity:1;fill-rule:nonzero;stroke:none" id="path3389" inkscape:connector-curvature="0" transform="translate(674.8364,366.5996)" inkscape:label="C" /><path d="m 0,0 c 0,1.834 -0.603,3.115 -1.807,3.841 -1.203,0.727 -3.163,1.09 -5.877,1.09 h -2.522 v -9.576 h 2.58 c 2.924,0 4.926,0.32 6.006,0.96 C -0.54,-3.044 0,-1.816 0,0 M 16.283,-27.178 H 3.412 l -3.126,7.053 c -1.146,2.58 -2.179,4.466 -3.096,5.662 -0.917,1.193 -1.81,1.958 -2.68,2.293 -0.869,0.335 -1.993,0.502 -3.368,0.502 h -1.348 v -15.51 H -22.19 v 39.735 h 20.383 c 3.288,0 5.983,-0.67 8.085,-2.007 2.102,-1.339 3.618,-2.963 4.544,-4.874 0.927,-1.911 1.391,-3.726 1.391,-5.447 0,-2.006 -0.387,-3.703 -1.161,-5.088 C 10.277,-6.245 9.461,-7.253 8.601,-7.883 7.74,-8.515 6.774,-9.117 5.705,-9.69 c 1.28,-0.746 2.337,-1.63 3.168,-2.652 0.831,-1.023 1.964,-3.092 3.398,-6.206 z" style="fill:#1a1a1a;fill-opacity:1;fill-rule:nonzero;stroke:none" id="path3393" inkscape:connector-curvature="0" transform="translate(705.082,390.7964)" inkscape:label="R" /><path d="m 0,0 c 0,1.491 -0.221,2.853 -0.66,4.086 -0.441,1.232 -1.104,2.303 -1.992,3.211 -0.889,0.907 -1.974,1.614 -3.254,2.121 -1.281,0.506 -2.763,0.76 -4.444,0.76 -3.211,0 -5.734,-0.937 -7.568,-2.809 -1.836,-1.875 -2.753,-4.33 -2.753,-7.369 0,-3.039 0.922,-5.5 2.767,-7.382 1.843,-1.883 4.362,-2.825 7.554,-2.825 2.198,0 4.071,0.435 5.619,1.305 1.548,0.87 2.724,2.073 3.526,3.613 C -0.401,-3.751 0,-1.988 0,0 m 12.212,0 c 0,-3.708 -0.856,-7.12 -2.566,-10.234 -1.71,-3.116 -4.256,-5.591 -7.64,-7.426 -3.383,-1.835 -7.501,-2.753 -12.356,-2.753 -4.912,0 -9.069,0.956 -12.471,2.868 -3.402,1.911 -5.93,4.423 -7.582,7.54 -1.655,3.115 -2.48,6.451 -2.48,10.005 0,3.574 0.82,6.914 2.465,10.02 1.643,3.106 4.171,5.609 7.583,7.511 3.411,1.902 7.573,2.853 12.485,2.853 3.67,0 6.942,-0.545 9.82,-1.635 C 2.346,17.66 4.711,16.184 6.564,14.32 8.418,12.457 9.822,10.288 10.779,7.813 11.734,5.337 12.212,2.733 12.212,0" style="fill:#1a1a1a;fill-opacity:1;fill-rule:nonzero;stroke:none" id="path3397" inkscape:connector-curvature="0" transform="translate(757.1162,383.5142)" inkscape:label="O" /><path d="M 0,0 H -11.984 V 23.021 L -22.792,9.689 h -0.946 L -34.575,23.021 V 0 h -11.64 v 39.735 h 10.865 l 12.214,-14.908 12.27,14.908 H 0 Z" style="fill:#1a1a1a;fill-opacity:1;fill-rule:nonzero;stroke:none" id="path3401" inkscape:connector-curvature="0" transform="translate(822.9971,363.6182)" inkscape:label="M" /><path d="m 0,0 h -29.959 v 39.735 h 29.473 v -7.97 H -17.975 V 24.483 H -1.29 V 16.484 H -17.975 V 7.998 H 0 Z" style="fill:#1a1a1a;fill-opacity:1;fill-rule:nonzero;stroke:none" id="path3405" inkscape:connector-curvature="0" transform="translate(862.9902,363.6182)" inkscape:label="E" /><path d="M 0,0 H -14.563 V -30.074 H -26.519 V 0 H -41.082 V 9.661 H 0 Z" style="fill:#1a1a1a;fill-opacity:1;fill-rule:nonzero;stroke:none" id="path3409" inkscape:connector-curvature="0" transform="translate(909.1182,393.6919)" inkscape:label="T" /><path d="m 0,0 h -29.959 v 39.735 h 29.473 v -7.97 H -17.975 V 24.483 H -1.29 V 16.484 H -17.975 V 7.998 H 0 Z" style="fill:#1a1a1a;fill-opacity:1;fill-rule:nonzero;stroke:none" id="path3413" inkscape:connector-curvature="0" transform="translate(946.0723,363.6182)" inkscape:label="E" /><path d="m 0,0 c 0,1.834 -0.603,3.115 -1.807,3.841 -1.203,0.727 -3.163,1.09 -5.877,1.09 h -2.522 v -9.576 h 2.58 c 2.924,0 4.926,0.32 6.006,0.96 C -0.54,-3.044 0,-1.816 0,0 M 16.283,-27.178 H 3.411 l -3.125,7.053 c -1.146,2.58 -2.179,4.466 -3.096,5.662 -0.918,1.193 -1.81,1.958 -2.68,2.293 -0.869,0.335 -1.993,0.502 -3.368,0.502 h -1.348 v -15.51 H -22.19 v 39.735 h 20.383 c 3.288,0 5.983,-0.67 8.085,-2.007 2.102,-1.339 3.618,-2.963 4.544,-4.874 0.927,-1.911 1.391,-3.726 1.391,-5.447 0,-2.006 -0.387,-3.703 -1.161,-5.088 C 10.277,-6.245 9.461,-7.253 8.601,-7.883 7.74,-8.515 6.774,-9.117 5.705,-9.69 c 1.28,-0.746 2.337,-1.63 3.168,-2.652 0.831,-1.023 1.964,-3.092 3.398,-6.206 z" style="fill:#1a1a1a;fill-opacity:1;fill-rule:nonzero;stroke:none" id="path3417" inkscape:connector-curvature="0" transform="translate(976.29,390.7964)" inkscape:label="R" /></g><g id="g452" inkscape:label="logo" transform="matrix(2.27386,0,0,2.2209604,-604.25764,-407.86036)"><path d="m 0,0 -15.938,-32.024 -19.815,-4.638 -9.046,32.435 -19.715,-22.457 -19.442,22 -7.513,-35.35 -14.72,-4.507 -6.562,-14.914 -14.192,-1.681 c 13.644,-19.783 36.461,-32.752 62.31,-32.752 41.776,0 75.642,33.867 75.642,75.643 0,8.303 -1.342,16.291 -3.814,23.765 z" style="fill:#117a71;fill-opacity:1;fill-rule:nonzero;stroke:none" id="path3379" inkscape:connector-curvature="0" transform="translate(514.7026,401.7451)" inkscape:label="logo-bottom" /><path d="m 0,0 6.153,13.984 13.601,4.163 10.115,47.589 24.485,-27.706 23.921,27.249 11.183,-40.1 7.351,1.719 14.983,30.109 10.831,8.308 c -12.137,25.565 -38.186,43.243 -68.367,43.243 -41.776,0 -75.642,-33.867 -75.642,-75.643 0,-12.414 2.99,-24.13 8.291,-34.466 z" style="fill:#1ba89c;fill-opacity:1;fill-rule:nonzero;stroke:none" id="path3375" inkscape:connector-curvature="0" transform="translate(395.813,350.585)" inkscape:label="logo-top" /></g></g></svg>
