<svg xmlns="http://www.w3.org/2000/svg" role="img" viewBox="-15.72 -15.72 817.44 221.94"><title>Micro Focus (member) logo</title><g fill="#0073E7"><path d="M189.8.6v152.8h-36.9v-116H36.8V.6z"/><path d="M152.9 153.4v36.9H0V37.4h36.8v116zm170-70.8V.6h-15.4l-28.6 40.6L250.8.6h-15.9v82h15.9v-54l23.1 34.1h9.9l23.1-34.1v54zm41.2 0H380V.6h-15.9zm137.5-8.4V56h-16v10.5h-48.4V16.4h48.4v10.4h16V8.7c0-5-3.3-8.2-8.2-8.2h-63.8c-4.4 0-7.7 3.3-7.7 8.2v65.4c0 4.4 3.3 8.2 7.7 8.2h64.3c4.4.3 7.7-3.1 7.7-8.1zm121.6 8.4l-24.2-33h16c4.4 0 8.2-3.3 8.2-8.3v-33c0-4.9-3.3-8.2-8.2-8.2h-72.1V82h16V49h19.8l24.2 33h20.4v.6h-.1zm-64.4-66h48.4v17.1h-48.4V16.6zm185.9 57.6V8.7c0-5-3.3-8.2-8.2-8.2h-64.3c-4.4 0-7.7 3.3-7.7 8.2v65.4c0 4.4 3.3 8.2 7.7 8.2H737c4.4.3 7.7-3.1 7.7-8.1zm-64.4-57.6h48.4v50.1h-48.4V16.6zM315.1 124.3v-16.5h-80.2v81.9h15.9v-32.4h47.8v-16.5h-47.8v-16.5zm102.4 57.8v-66c0-5-3.3-8.2-8.2-8.2h-63.8c-4.4 0-7.7 3.3-7.7 8.2v65.4c0 4.4 3.3 8.2 7.7 8.2h64.4c4.3 0 7.6-3.3 7.6-7.6zm-63.8-57.8h47.8v50h-48.4v-50h.6zm173.2 57.8V164h-16v10.4h-48.4v-50H511v10.5h16v-18.2c0-4.9-3.3-8.2-8.2-8.2h-64.4c-4.4 0-7.7 3.3-7.7 8.2v65.5c0 4.4 3.3 8.2 7.7 8.2h64.3c4.3-.7 8.2-4 8.2-8.3zm108.9 0v-74.2h-16v66h-48.4v-66h-15.9v73.7c0 4.4 3.3 8.2 7.7 8.2h64.3c5-.1 8.3-3.4 8.3-7.7zm108.9 0v-32.5c0-4.4-3.3-8.2-8.2-8.2h-56.1v-17h48.4v8.8h15.9v-16.5c0-4.9-3.3-8.2-8.2-8.2h-64.3c-4.4 0-7.7 3.3-7.7 8.2v32.5c0 4.4 3.3 8.2 7.7 8.2h56.1v17h-48.4v-8.2h-16v16.5c0 4.4 3.3 8.2 7.7 8.2h64.3c5.5-1.2 8.8-4.5 8.8-8.8z"/></g><path fill="#0073E7" d="M771.7 31.3c-8.2 0-14.8-6.6-14.8-14.9s6.6-14.9 14.8-14.9 14.8 6.6 14.8 14.9-6.6 14.9-14.8 14.9zm0-28.5c-7.7 0-13.8 6.1-13.8 13.8s6.1 13.2 13.8 13.2 13.2-6.1 13.2-13.2c-.1-7.8-5.6-13.8-13.2-13.8zm3.8 23l-3.8-8.2h-3.3v8.2h-2.2V7.1h5.5c4.4 0 6.1 1.7 6.1 5.5 0 2.8-1.1 4.4-3.8 5l3.8 8.2h-2.3zm-7.2-10.4h3.3c2.8 0 3.8-1.1 3.8-3.3s-1.1-3.3-3.8-3.3h-2.8v6.6h-.5z"/></svg>