<svg width="362" height="48" viewBox="0 0 362 48" fill="none" xmlns="http://www.w3.org/2000/svg">
<path d="M162.358 17.1321C164.929 17.1321 166.996 17.9327 168.56 19.5338C170.148 21.1095 170.942 23.3206 170.942 26.1671V38.5569H165.648V26.8914C165.648 25.2395 165.232 23.9814 164.4 23.1173C163.568 22.2278 162.433 21.783 160.996 21.783C159.559 21.783 158.412 22.2278 157.555 23.1173C156.723 23.9814 156.307 25.2395 156.307 26.8914V38.5569H151.013V26.8914C151.013 25.2395 150.597 23.9814 149.765 23.1173C148.933 22.2278 147.798 21.783 146.361 21.783C144.899 21.783 143.739 22.2278 142.882 23.1173C142.05 23.9814 141.634 25.2395 141.634 26.8914V38.5569H136.34V17.4371H141.634V19.9913C142.315 19.1018 143.185 18.4029 144.243 17.8946C145.328 17.3863 146.512 17.1321 147.798 17.1321C149.437 17.1321 150.899 17.4879 152.185 18.1995C153.471 18.8857 154.467 19.8769 155.172 21.1731C155.853 19.9532 156.836 18.9747 158.122 18.2377C159.433 17.5006 160.845 17.1321 162.358 17.1321Z" fill="#5B5FC7"/>
<path d="M178.651 14.921C177.718 14.921 176.937 14.6287 176.306 14.0442C175.701 13.4342 175.399 12.6845 175.399 11.795C175.399 10.9055 175.701 10.1684 176.306 9.58388C176.937 8.97392 177.718 8.66895 178.651 8.66895C179.584 8.66895 180.353 8.97392 180.958 9.58388C181.588 10.1684 181.903 10.9055 181.903 11.795C181.903 12.6845 181.588 13.4342 180.958 14.0442C180.353 14.6287 179.584 14.921 178.651 14.921ZM181.26 17.4371V38.5569H175.966V17.4371H181.26Z" fill="#5B5FC7"/>
<path d="M185.13 27.9207C185.13 25.7859 185.546 23.8925 186.378 22.2405C187.235 20.5885 188.394 19.3178 189.857 18.4283C191.319 17.5387 192.945 17.094 194.735 17.094C196.096 17.094 197.395 17.399 198.63 18.0089C199.865 18.5935 200.849 19.3813 201.58 20.3725V10.3463H206.95V38.5569H201.58V35.4308C200.924 36.4729 200.004 37.3115 198.819 37.9469C197.634 38.5823 196.26 38.9 194.697 38.9C192.932 38.9 191.319 38.4425 189.857 37.5276C188.394 36.6126 187.235 35.3292 186.378 33.6772C185.546 31.9998 185.13 30.081 185.13 27.9207ZM201.618 27.997C201.618 26.7008 201.366 25.5953 200.861 24.6803C200.357 23.74 199.676 23.0284 198.819 22.5455C197.962 22.0372 197.042 21.783 196.059 21.783C195.075 21.783 194.168 22.0245 193.336 22.5074C192.504 22.9902 191.823 23.7019 191.294 24.6422C190.789 25.5571 190.537 26.65 190.537 27.9207C190.537 29.1915 190.789 30.3097 191.294 31.2755C191.823 32.2159 192.504 32.9402 193.336 33.4485C194.193 33.9568 195.101 34.2109 196.059 34.2109C197.042 34.2109 197.962 33.9695 198.819 33.4866C199.676 32.9783 200.357 32.2667 200.861 31.3518C201.366 30.4114 201.618 29.2931 201.618 27.997Z" fill="#5B5FC7"/>
<path d="M210.759 27.9207C210.759 25.7859 211.175 23.8925 212.007 22.2405C212.864 20.5885 214.024 19.3178 215.486 18.4283C216.948 17.5387 218.575 17.094 220.365 17.094C221.726 17.094 223.024 17.399 224.26 18.0089C225.495 18.5935 226.478 19.3813 227.209 20.3725V10.3463H232.579V38.5569H227.209V35.4308C226.554 36.4729 225.634 37.3115 224.449 37.9469C223.264 38.5823 221.89 38.9 220.327 38.9C218.562 38.9 216.948 38.4425 215.486 37.5276C214.024 36.6126 212.864 35.3292 212.007 33.6772C211.175 31.9998 210.759 30.081 210.759 27.9207ZM227.247 27.997C227.247 26.7008 226.995 25.5953 226.491 24.6803C225.987 23.74 225.306 23.0284 224.449 22.5455C223.592 22.0372 222.671 21.783 221.688 21.783C220.705 21.783 219.797 22.0245 218.965 22.5074C218.133 22.9902 217.453 23.7019 216.923 24.6422C216.419 25.5571 216.167 26.65 216.167 27.9207C216.167 29.1915 216.419 30.3097 216.923 31.2755C217.453 32.2159 218.133 32.9402 218.965 33.4485C219.823 33.9568 220.73 34.2109 221.688 34.2109C222.671 34.2109 223.592 33.9695 224.449 33.4866C225.306 32.9783 225.987 32.2667 226.491 31.3518C226.995 30.4114 227.247 29.2931 227.247 27.997Z" fill="#5B5FC7"/>
<path d="M243.044 10.3463V38.5569H237.75V10.3463H243.044Z" fill="#5B5FC7"/>
<path d="M267.751 27.5395C267.751 28.302 267.7 28.9882 267.599 29.5981H252.284C252.41 31.123 252.939 32.3175 253.872 33.1816C254.805 34.0457 255.952 34.4778 257.313 34.4778C259.28 34.4778 260.679 33.6264 261.511 31.9236H267.221C266.616 33.9568 265.456 35.6342 263.742 36.9557C262.028 38.2519 259.923 38.9 257.427 38.9C255.41 38.9 253.595 38.4552 251.981 37.5657C250.393 36.6508 249.145 35.3673 248.237 33.7153C247.355 32.0634 246.914 30.1572 246.914 27.997C246.914 25.8113 247.355 23.8925 248.237 22.2405C249.12 20.5885 250.355 19.3178 251.943 18.4283C253.532 17.5387 255.359 17.094 257.427 17.094C259.418 17.094 261.196 17.526 262.759 18.3901C264.347 19.2543 265.57 20.4869 266.427 22.088C267.31 23.6637 267.751 25.4809 267.751 27.5395ZM262.267 26.0146C262.242 24.6422 261.75 23.5494 260.792 22.7361C259.834 21.8974 258.662 21.4781 257.276 21.4781C255.965 21.4781 254.855 21.8847 253.948 22.698C253.065 23.4858 252.523 24.5914 252.322 26.0146H262.267Z" fill="#5B5FC7"/>
<path d="M299.524 17.6658L293.057 38.5569H289.502L284.51 21.9736L279.519 38.5569H275.964L269.46 17.6658H272.976L277.741 35.2021L282.884 17.6658H286.401L291.431 35.2402L296.12 17.6658H299.524Z" fill="#5B5FC7"/>
<path d="M301.653 28.0351C301.653 25.9003 302.082 24.0323 302.939 22.4311C303.796 20.8046 304.968 19.5465 306.456 18.657C307.969 17.7675 309.645 17.3227 311.485 17.3227C313.301 17.3227 314.876 17.7167 316.213 18.5045C317.549 19.2924 318.545 20.2836 319.2 21.4781V17.6658H322.679V38.5569H319.2V34.6684C318.519 35.8883 317.498 36.9049 316.137 37.7182C314.801 38.506 313.238 38.9 311.448 38.9C309.607 38.9 307.943 38.4425 306.456 37.5276C304.968 36.6126 303.796 35.3292 302.939 33.6772C302.082 32.0252 301.653 30.1445 301.653 28.0351ZM319.2 28.0732C319.2 26.4975 318.885 25.1251 318.255 23.956C317.624 22.7869 316.767 21.8974 315.683 21.2874C314.624 20.6521 313.452 20.3344 312.166 20.3344C310.88 20.3344 309.708 20.6394 308.649 21.2493C307.59 21.8593 306.746 22.7488 306.116 23.9179C305.485 25.087 305.17 26.4594 305.17 28.0351C305.17 29.6362 305.485 31.0341 306.116 32.2286C306.746 33.3976 307.59 34.2999 308.649 34.9352C309.708 35.5452 310.88 35.8502 312.166 35.8502C313.452 35.8502 314.624 35.5452 315.683 34.9352C316.767 34.2999 317.624 33.3976 318.255 32.2286C318.885 31.0341 319.2 29.649 319.2 28.0732Z" fill="#5B5FC7"/>
<path d="M331.936 21.0587C332.541 19.8642 333.398 18.9366 334.507 18.2758C335.642 17.615 337.016 17.2846 338.629 17.2846V20.8681H337.722C333.865 20.8681 331.936 22.9775 331.936 27.1964V38.5569H328.495V17.6658H331.936V21.0587Z" fill="#5B5FC7"/>
<path d="M361.51 27.3108C361.51 27.9716 361.472 28.6705 361.397 29.4075H344.833C344.959 31.4661 345.652 33.08 346.913 34.249C348.199 35.3927 349.749 35.9646 351.564 35.9646C353.052 35.9646 354.287 35.6215 355.27 34.9352C356.279 34.2236 356.985 33.2833 357.388 32.1142H361.094C360.54 34.122 359.43 35.7612 357.766 37.032C356.102 38.2773 354.035 38.9 351.564 38.9C349.598 38.9 347.833 38.4552 346.27 37.5657C344.732 36.6762 343.522 35.4181 342.64 33.7916C341.757 32.1396 341.316 30.2335 341.316 28.0732C341.316 25.913 341.745 24.0195 342.602 22.393C343.459 20.7664 344.657 19.5211 346.195 18.657C347.758 17.7675 349.548 17.3227 351.564 17.3227C353.531 17.3227 355.27 17.7548 356.783 18.6189C358.296 19.483 359.456 20.6775 360.262 22.2024C361.094 23.7019 361.51 25.4047 361.51 27.3108ZM357.955 26.5865C357.955 25.2649 357.666 24.1339 357.086 23.1936C356.506 22.2278 355.712 21.5035 354.703 21.0206C353.72 20.5123 352.623 20.2581 351.413 20.2581C349.674 20.2581 348.186 20.8173 346.951 21.9355C345.741 23.0538 345.047 24.6041 344.871 26.5865H357.955Z" fill="#5B5FC7"/>
<path d="M77.3377 25.4838C77.7613 24.828 78.1003 24.347 78.411 23.837C80.7411 19.9896 83.029 16.1131 85.4721 12.2803C85.9173 11.5015 86.5855 10.8843 87.3847 10.5137C88.1839 10.1431 89.0749 10.0373 89.9348 10.2109C90.7672 10.3405 91.5337 10.7538 92.1121 11.385C92.6905 12.0162 93.0475 12.829 93.1264 13.6939C93.21 14.7406 92.9939 15.7895 92.505 16.7106C88.6826 23.2297 84.7848 29.7052 80.8118 36.1368C78.9194 39.1972 75.1628 39.0515 73.3269 35.8454C71.0815 32.0709 68.949 28.2235 66.7601 24.4199C66.4635 23.8953 66.1387 23.3998 65.7009 22.6711L64.1474 25.2069C62.0573 28.719 59.9107 32.2312 57.8206 35.7579C55.7305 39.2847 51.748 39.343 49.6156 35.5976C47.2148 31.4005 44.8281 27.1888 42.3426 22.8314C41.9754 23.3998 41.6647 23.8515 41.3964 24.2887C39.0521 28.1361 36.736 31.998 34.3352 35.8308C34.0454 36.3256 33.6633 36.7562 33.2111 37.0977C32.7589 37.4391 32.2456 37.6846 31.7008 37.8199C31.1561 37.9552 30.5907 37.9777 30.0375 37.886C29.4843 37.7943 28.9542 37.5903 28.4779 37.2857C28.0016 36.9812 27.5886 36.5822 27.2627 36.1118C26.9369 35.6414 26.7047 35.109 26.5796 34.5454C26.4545 33.9818 26.439 33.3982 26.5339 32.8283C26.6289 32.2585 26.8325 31.7137 27.1328 31.2256C30.8988 24.9494 34.7259 18.6877 38.6143 12.4406C39.0024 11.6748 39.5903 11.0362 40.3116 10.5971C41.0329 10.1579 41.8589 9.9356 42.6962 9.95531C43.5334 9.97501 44.3487 10.2359 45.0498 10.7086C45.751 11.1812 46.3101 11.8468 46.664 12.6301C48.7965 16.3463 50.9007 20.0916 53.0049 23.8078C53.3015 24.3325 53.6263 24.828 54.0358 25.4983L61.21 13.6648C61.5207 13.1547 61.8172 12.6155 62.1844 12.12C62.6035 11.4426 63.187 10.8902 63.877 10.5176C64.5671 10.1451 65.3396 9.96532 66.1178 9.99626C66.896 10.0272 67.6528 10.2678 68.313 10.694C68.9732 11.1203 69.5138 11.7174 69.8811 12.4261C72.07 16.1714 74.1178 19.9605 76.3209 23.735C76.6033 24.2742 76.914 24.7842 77.3377 25.4838Z" fill="#5B5FC7"/>
<path d="M97.105 47.296L119.454 24.1797H108.589L97.1613 36.0144C96.4418 36.7532 95.8707 37.632 95.481 38.6001C95.0913 39.5682 94.8906 40.6065 94.8906 41.6552C94.8906 42.7039 95.0913 43.7422 95.481 44.7103C95.8707 45.6784 96.4418 46.5572 97.1613 47.296H97.105Z" fill="#5B5FC7" fill-opacity="0.5"/>
<path d="M97.1391 1.06543C96.4262 1.79299 95.8608 2.65674 95.475 3.60735C95.0892 4.55797 94.8906 5.57684 94.8906 6.60578C94.8906 7.63472 95.0892 8.65359 95.475 9.6042C95.8608 10.5548 96.4262 11.4186 97.1391 12.1461L108.584 23.7701C109.298 24.4967 109.865 25.3602 110.252 26.3109C110.639 27.2617 110.838 28.281 110.838 29.3105C110.838 30.34 110.639 31.3593 110.252 32.31C109.865 33.2608 109.298 34.1242 108.584 34.8508L119.454 23.7701L97.1531 1.06543H97.1391Z" fill="#5B5FC7"/>
<path d="M22.0841 0.270508L4.53906 18.5414L10.6798 23.7835L22.0841 11.5521C22.799 10.8113 23.3661 9.93193 23.753 8.96408C24.1399 7.99623 24.339 6.95889 24.339 5.9113C24.339 4.8637 24.1399 3.82637 23.753 2.85852C23.3661 1.89067 22.799 1.01126 22.0841 0.270508Z" fill="#5B5FC7" fill-opacity="0.5"/>
<path d="M22.4567 47.296C23.1716 46.5301 23.7386 45.6209 24.1255 44.6203C24.5124 43.6196 24.7116 42.5471 24.7116 41.464C24.7116 40.3809 24.5124 39.3085 24.1255 38.3078C23.7386 37.3072 23.1716 36.398 22.4567 35.6321L11.0357 23.3963C10.3208 22.6305 9.7537 21.7212 9.36681 20.7206C8.97992 19.72 8.78079 18.6475 8.78079 17.5644C8.78079 16.4813 8.97992 15.4088 9.36681 14.4081C9.7537 13.4075 10.3208 12.4983 11.0357 11.7324L0.148438 23.3963L22.4567 47.296Z" fill="#5B5FC7"/>
</svg>
