<?xml version="1.0" encoding="utf-8"?>
<!-- Generator: Adobe Illustrator 21.1.0, SVG Export Plug-In . SVG Version: 6.00 Build 0)  -->
<svg version="1.1" id="Layer_1" xmlns="http://www.w3.org/2000/svg" xmlns:xlink="http://www.w3.org/1999/xlink" x="0px" y="0px"
	 viewBox="0 0 627.1 301.5" style="enable-background:new 0 0 627.1 301.5;" xml:space="preserve">
<style type="text/css">
	.st0{fill:none;}
	.st1{fill:#497B32;}
	.st2{fill:#A1B351;}
	.st3{fill:#769A50;}
	.st4{fill:#92A959;}
	.st5{fill:#D4D4D4;}
	.st6{fill:#2A6733;}
	.st7{fill:#9DAD33;}
	.st8{fill:#A9B432;}
	.st9{fill:#6F9233;}
	.st10{fill:#9EB04D;}
	.st11{fill:#3E7334;}
	.st12{fill:#397033;}
	.st13{fill:#9DAD36;}
	.st14{fill:#568232;}
	.st15{fill:#898C8C;}
	.st16{fill:#5D8632;}
	.st17{fill:#A2B28D;}
	.st18{fill:#AABC6C;}
	.st19{fill:#829A34;}
	.st20{fill:#CBD8B4;}
	.st21{fill:#B5C689;}
	.st22{fill:#BFCF9F;}
	.st23{fill:#D4D5D2;}
	.st24{fill:#AABB72;}
	.st25{fill:#558232;}
	.st26{fill:#BCCC98;}
	.st27{fill:#9C9F9E;}
	.st28{fill:#94A855;}
	.st29{fill:#A5B862;}
	.st30{fill:#A6B962;}
	.st31{fill:#B2C483;}
	.st32{fill:#CCCECB;}
	.st33{fill:#A3B559;}
	.st34{fill:#77933B;}
	.st35{fill:#D4DEC4;}
	.st36{fill:#C4D2A8;}
	.st37{fill:#B7C891;}
	.st38{fill:none;stroke:#B7C891;stroke-width:0;stroke-linecap:round;stroke-linejoin:round;}
	.st39{fill:#C1C2C3;}
	.st40{fill:#8A9F54;}
	.st41{fill:#D0DDC0;}
	.st42{fill:#7E9855;}
	.st43{fill:#B3C586;}
	.st44{fill:#96AC5F;}
	.st45{fill:#B0C27F;}
	.st46{fill:#8FA449;}
	.st47{fill:#BECE9E;}
	.st48{fill:#D6D9D0;}
	.st49{fill:#404040;}
	.st50{fill:#414141;}
	.st51{fill:#424242;}
	.st52{fill:#326798;}
	.st53{fill:#EBEBEB;}
	.st54{fill:#020202;}
	.st55{fill:#ECECEC;}
	.st56{fill:#010101;}
	.st57{fill:#030303;}
	.st58{fill:#040404;}
	.st59{fill:#BDBDBD;}
	.st60{fill:#E8E8E8;}
	.st61{fill:#CDCDCE;}
	.st62{fill:#CFCFCF;}
	.st63{fill-rule:evenodd;clip-rule:evenodd;fill:#003366;}
	.st64{fill:#003366;}
	.st65{fill:#FEFEFE;}
	.st66{fill:#676767;}
	.st67{fill:#F05A24;}
	.st68{fill:#4D4D4D;}
	.st69{fill:#4E4E4E;}
</style>
<g>
	<path class="st67" d="M65,19C65,19,65,19,65,19c-1.3,1.1-2.7,2.1-3.9,3.3C46.5,36.6,32.1,50.9,17.5,65c-4.7,4.5-9,9.5-14.3,13.3
		c0,0.3,0,0.7,0,1c23.6-16,48.2-30.6,71.9-46.4C71.7,28.3,68.4,23.7,65,19z"/>
	<path class="st67" d="M9.1,76.7C20,69.8,30.9,62.9,41.7,55.9c11.3-7.4,23.1-14.1,34-22.1c-0.2-0.3-0.4-0.6-0.6-0.8
		C51.4,48.7,26.9,63.4,3.2,79.4C5.7,79.7,7.3,77.8,9.1,76.7z"/>
	<path class="st68" d="M77,176.8c-0.3,1.2-0.7,2.5-1.2,3.8c0.3,0.1,0.5,0.2,0.8,0.4c0.2-0.1,0.3-0.3,0.5-0.4
		C77,179.3,77,178.1,77,176.8z"/>
	<path class="st68" d="M135.9,129.4c-15.4-17.3-33.1-31.6-54.8-40.5c-4.1-1.7-4.8-0.8-4.7,3.4c0.2,17.2,0,34.5,0.1,51.7
		c0,3-0.3,4.6-4,3.1c-7.5-3.1-14.9-6.4-21.1-11.7c-13.4-11.3-14.3-26-2.1-38.6c5.3-5.4,11-10.4,16.9-15.2
		c12.4-10.2,25.1-20,37.4-30.2c8-6.6,11-15.4,8.2-25.5C109,15.9,102,9.8,91.7,8.2C80.8,6.4,72.6,12.2,65,19c0,0,0,0,0,0
		c4.8,3.6,8.6,7.9,10.5,13.7c2.7-1.8,5.2-4,8-5.6c4.1-2.4,7.5-2,9.7,1c2.2,3.1,1.8,7.5-1.3,10.3c-4.4,3.9-9.1,7.4-13.7,11
		C63.9,60.7,49.4,71.6,36.8,84.6C25.4,96.4,20,110.3,24.8,126.7c2.8,9.4,8.7,16.8,16.3,22.8c8.3,6.6,17.7,11.3,27.7,14.7
		c4.4,1.5,7,3.4,8,6.1c0.2-1.8,1.5-1.7,3.6-0.9c5,1.8,10.1,3.5,15.1,5.2c28.1,9.4,56.2,18.8,85,28.5c-0.7-2.1-1-3.2-1.4-4.3
		C168.6,173.2,154.3,150.1,135.9,129.4z M114.3,161.4c-5.5-1.9-11.1-3.7-16.6-5.6c-1.6-0.5-3.1-1-3.1-3.4
		c0.1-11.1,0.1-22.3,0.1-34.7c21.2,14.4,37.3,31.7,50.1,53.9C133.9,168,124.1,164.6,114.3,161.4z"/>
	<path class="st68" d="M76.9,171.8c0-0.6,0-1,0-1.4c-1.1-2.7-3.7-4.6-8-6.1c-10.1-3.4-19.4-8.1-27.7-14.7
		c-7.6-6.1-13.5-13.4-16.3-22.8c-4.8-16.5,0.6-30.4,11.9-42.1c12.6-13,27.1-23.9,41.4-35.2c4.6-3.6,9.3-7.2,13.7-11
		c3.1-2.8,3.5-7.2,1.3-10.3c-2.2-3-5.6-3.4-9.7-1c-2.8,1.6-5.3,3.8-8,5.6c0.1,0.3,0.2,0.7,0.3,1c3-1,5-3.6,7.6-5.2
		c3.2-2.1,6.6-3,9.1,0.5c2.4,3.4,1.1,6.5-2.1,8.9c-5.3,4.1-10.6,8.3-15.8,12.5C61.4,61.1,47.9,71.3,36,83.4
		c-20.4,20.7-18.7,48.4,3.8,66.8c7.7,6.3,16.3,10.8,25.6,14.3c10.9,4.2,10.9,4.2,10.4,16.2c0.5-1.4,0.9-2.6,1.2-3.8
		C77,175.1,77,173.5,76.9,171.8z"/>
	<path class="st68" d="M75.4,32.8C75.4,32.8,75.4,32.7,75.4,32.8C73.6,27,69.8,22.6,65,19c3.4,4.6,6.8,9.3,10.2,13.9
		C75.2,32.9,75.3,32.8,75.4,32.8z"/>
	<path class="st68" d="M75.1,32.9c0.2,0.3,0.4,0.6,0.6,0.8c-0.1-0.4-0.2-0.7-0.3-1c0,0,0,0,0,0C75.3,32.8,75.2,32.9,75.1,32.9z"/>
	<path class="st68" d="M275.9,131.2c-7.2-14.3-12.8-15.7-24.9-13.8c-3.5,0.6-4.5,1.2-4.5,4.7c0.2,22.9,0.1,45.9,0.1,68.9
		c0,4.3-1.4,10,0.8,12.5c2.6,2.9,6.5,1.4,10,1.6c3.8,0.2,7.9-1.3,7.8-5.3c-0.2-16-0.1-32.1-0.1-48.1c0.3-0.1,0.6-0.2,0.9-0.4
		c7.7,11.3,15.5,22.6,23.5,34.4c8.1-11.8,15.9-23.2,23.7-34.6c1,13.3,0.9,26.2,1.1,39.1c0,4.6-0.9,10.7,2,13.6
		c2.9,2.8,6.3,1.8,11.2,1.5c4.1-0.3,6-1.9,6-5.6c-0.2-22.6,0-45.2-0.1-67.8c0-4.6,0.7-11.9-0.9-13.3c-2.5-2.3-8.5-0.8-12.9-0.9
		c-5.3-0.1-8,1.7-10.5,6c-6,10.2-12.4,20.1-18.6,30.2"/>
	<path class="st68" d="M473.3,121.2c0-2.6-0.6-3.2-3.4-3.6c-4.1-0.5-7.3,0.3-10.9,0c-3.9-0.4-4.9,1-4.9,4.8
		c0.2,15.6,0.1,31.3,0.1,47c-0.4,0.1-0.7,0.3-1.1,0.4c-10.8-14.1-22.1-27.8-32.1-42.4c-5.5-8-11.6-11.2-20.9-9.9
		c-3.2,0.4-4.5,0.8-4.4,4.3c0.3,6.2,0.1,12.4,0.1,18.6c0,19.8,0.1,39.7-0.1,59.5c0,3.6,1,4.5,4.6,4.6c4.6,0.2,6.6,0.3,10.3,0
		c3.4-0.3,4.4-0.9,4.4-4.3c-0.2-15-0.1-30,0-45c0-1.4-0.7-3.1,1-4.5c11.5,15,23.4,29.5,34.1,44.9c5.1,7.3,10.7,10.2,19.2,9.1
		c2.7-0.4,3.9-0.7,3.9-3.8C473.3,174.3,473.3,147.7,473.3,121.2z"/>
	<path class="st68" d="M578.7,116.4c-26.3-0.1-46.3,19-46.5,44.4c-0.2,25.9,19.4,45.3,46,45.4c25.8,0.1,46.2-19.5,46.3-44.8
		C624.7,135.8,605,116.5,578.7,116.4z M578.5,188.7c-14.8-0.1-26.2-12.2-26.2-27.6c0-15.6,11.3-27.1,26.4-27.1
		c15,0.1,26.1,11.8,26.1,27.5C604.8,177.1,593.5,188.8,578.5,188.7z"/>
	<path class="st68" d="M76.5,181c0,36.2,0,72.3,0,109.5c6.3-3.9,11.5-7.2,16.8-10.4c1.8-1.1,2.1-2.4,2.1-4.3
		c-0.1-29.6-0.1-59.2-0.2-88.9c-6-2.1-12.1-4.2-18.1-6.4C76.9,180.8,76.7,180.9,76.5,181z"/>
	<path class="st68" d="M77,180.6c-0.2,0.1-0.3,0.3-0.5,0.4C76.7,180.9,76.9,180.8,77,180.6C77,180.6,77,180.6,77,180.6z"/>
	<path class="st69" d="M510.6,117.6c-3.7-0.6-7.2-0.5-11.4,0c-3.3,0.4-4,1-4,4.1c0.1,26.2,0.1,52.4,0,78.7c0,3,0.5,3.9,3.9,4.2
		c4,0.3,6.9,0.3,11.4,0c3.3-0.3,4-1.1,4-4.2c-0.1-13.1-0.1-26.2-0.1-39.3c0-13.1-0.1-26.2,0.1-39.3
		C514.6,118.7,513.9,118.1,510.6,117.6z"/>
	<path class="st68" d="M373.7,118.5c-1.8-2.1-9.2-0.5-14-0.9c-3.4-0.3-4.4,0.9-4.3,4.3c0.2,13.1,0.1,26.2,0.1,39.3
		c0,13.1,0.1,26.2-0.1,39.3c0,3.2,0.8,3.8,4.1,4.1c3.9,0.3,6.9,0.3,10.3,0c3.9-0.4,4.9-1,4.9-4.9c-0.2-22.4,0-44.8-0.1-67.2
		C374.5,127.7,375.9,121.1,373.7,118.5z"/>
	<path d="M83.9,172c-5.7-1.6-5.6-1.8-5.9,4c-0.1,1.4,0,2.7-0.5,4c-0.1,0.2-0.3,0.5-0.5,0.7c6.7,0.2,12.8,2.2,18.1,6.4
		c0.1-4.1,0.2-8.2,0.3-12.3C91.2,175.6,87.7,173.1,83.9,172z"/>
	<path d="M76.9,170.4c0.7,1.8,0.7,3.9,0.1,6.4c0,1.3,0,2.5,0,3.8l0,0c0,0,0.1,0,0.1,0c0.2-0.2,0.3-0.4,0.5-0.7
		c0.5-1.3,0.4-2.7,0.5-4c0.2-5.7,0.2-5.6,5.9-4c3.8,1.1,7.3,3.7,11.6,2.7c-5-1.7-10.1-3.4-15.1-5.2
		C78.4,168.7,77.1,168.6,76.9,170.4z"/>
	<path d="M76.9,171.8c0.1,1.7,0.2,3.3,0.1,5c0.6-2.5,0.6-4.6-0.1-6.4C76.8,170.8,76.8,171.2,76.9,171.8z"/>
	<path d="M77.1,180.6c6,2.1,12.1,4.2,18.1,6.4C89.9,182.8,83.8,180.8,77.1,180.6C77.1,180.6,77.1,180.6,77.1,180.6z"/>
	<path d="M77.1,180.6C77.1,180.6,77,180.6,77.1,180.6L77.1,180.6C77,180.6,77,180.6,77.1,180.6C77.1,180.6,77.1,180.6,77.1,180.6z"
		/>
</g>
</svg>
