<?xml version="1.0" encoding="utf-8"?>
<!-- Generator: Adobe Illustrator 16.0.4, SVG Export Plug-In . SVG Version: 6.00 Build 0)  -->
<!DOCTYPE svg PUBLIC "-//W3C//DTD SVG 1.1//EN" "http://www.w3.org/Graphics/SVG/1.1/DTD/svg11.dtd">
<svg version="1.1" id="Layer_1" xmlns="http://www.w3.org/2000/svg" xmlns:xlink="http://www.w3.org/1999/xlink" x="0px" y="0px"
	 width="565.472px" height="294.661px" viewBox="0 0 565.472 294.661" enable-background="new 0 0 565.472 294.661"
	 xml:space="preserve">
<image display="none" overflow="visible" width="570" height="326" xlink:href="../../../Downloads/Minio/minio-layout.png"  transform="matrix(1 0 0 1 -13.3579 -11.9956)">
</image>
<g>
	<path fill="#4D4D4D" d="M222.651,123.667h17.504l19.405,31.218l19.404-31.218h17.501v73.808h-16.133v-48.189l-20.771,31.534h-0.419
		l-20.568-31.213v47.869h-15.922V123.667z"/>
	<path fill="#4D4D4D" d="M314.933,123.667h16.238v73.808h-16.238V123.667z"/>
	<path fill="#4D4D4D" d="M349.638,123.667h14.969l34.588,45.439v-45.439h16.036v73.808h-13.815l-35.757-46.93v46.93h-16.021V123.667
		z"/>
	<path fill="#4D4D4D" d="M433.702,123.667h16.23v73.808h-16.23V123.667z"/>
	<path fill="#4D4D4D" d="M465.119,160.776v-0.2c0-20.994,16.562-38.172,39.342-38.172c22.783,0,39.123,16.972,39.123,37.957v0.215
		c0,20.984-16.562,38.165-39.331,38.165C481.466,198.741,465.119,181.765,465.119,160.776z M526.602,160.776v-0.2
		c0-12.656-9.274-23.207-22.35-23.207c-13.094,0-22.151,10.332-22.151,22.992v0.215c0,12.653,9.291,23.196,22.359,23.196
		C517.532,183.772,526.602,173.435,526.602,160.776z"/>
</g>
<path fill-rule="evenodd" clip-rule="evenodd" fill="#4D4D4D" d="M112.139,51.601c-1.548-1.579-3.089-3.165-4.646-4.735
	c-2.279-2.298-5.017-3.216-8.107-2.159c-5.36,1.833-6.84,8.238-2.927,12.342c5.174,5.426,10.379,10.822,15.563,16.237
	c6.504,6.792,13.125,13.48,19.467,20.421c6.209,6.793,9.713,14.935,10.785,24.084c1.45,12.378-1.795,23.461-9.446,33.24
	c-4.086,5.222-9.188,9.257-15.114,12.245c-2.877,1.451-5.741,2.927-8.667,4.421c0,34.522,0,69.03,0,103.54
	c-0.069,0.033-0.139,0.065-0.207,0.1c-4.884-6.418-9.767-12.837-14.655-19.262c0-25.502,0-50.991,0-76.704
	c-21.977,11.181-43.842,22.305-65.921,33.538c3.266-15.126,8.577-29.277,15.971-42.659c7.414-13.419,16.674-25.431,27.625-36.133
	c10.979-10.728,23.35-19.545,37.168-26.729c0,8.174,0,16.191,0,24.208c0,8.006,0,16.013,0,24.041
	c0.139,0.018,0.244,0.065,0.314,0.034c10.562-4.786,17.245-12.724,18.901-24.304c1.387-9.695-1.479-18.278-8.258-25.394
	c-11.164-11.72-22.415-23.359-33.627-35.033c-7.793-8.113-8.321-20.24-1.261-28.929c6.626-8.155,18.207-10.253,27.304-5
	c3.781,2.183,6.859,5.118,9.554,8.501c0.103,0.129,0.157,0.297,0.234,0.447C118.757,45.087,115.409,48.304,112.139,51.601z
	 M52.789,180.762c0.246-0.115,0.497-0.223,0.738-0.347c10.117-5.208,20.233-10.419,30.349-15.628
	c3.436-1.771,6.871-3.541,10.234-5.274c0-10.101,0-20.09,0-30.233c-1.699,1.386-3.297,2.655-4.855,3.97
	c-13.363,11.272-24.333,24.518-32.803,39.819c-1.363,2.462-2.753,4.914-3.795,7.539c-0.1,0.03-0.151,0.087-0.089,0.226
	C52.639,180.811,52.714,180.786,52.789,180.762z"/>
<path fill-rule="evenodd" clip-rule="evenodd" fill="#EE5B35" d="M112.139,51.601c3.271-3.297,6.618-6.513,10.051-9.641
	c1.679,2.354,3.11,4.867,4.63,7.321c8.972,14.493,17.887,29.02,26.63,43.653c0.172,0.288,0.329,0.586,0.455,0.812
	c-0.038,0.438-0.222,0.654-0.53,0.758c-0.414,0.001-0.612-0.304-0.842-0.544c-13.372-13.98-26.741-27.964-40.108-41.95
	C112.312,51.892,112.233,51.738,112.139,51.601z"/>
<polygon fill-rule="evenodd" clip-rule="evenodd" points="109.019,177.922 94.228,185.662 94.207,175.359 109.05,167.734 "/>
</svg>
