<svg id="Layer_1" data-name="Layer 1" xmlns="http://www.w3.org/2000/svg" viewBox="0 0 757.80719 299.9994"><defs><style>.cls-1{fill:#0192e0;}.cls-2{fill:#43c7eb;}</style></defs><title>mlflow</title><path class="cls-1" d="M233.92972,294.48989c-.07945-.14642-.121-.35324-.24393-.43039-2.61163-1.63858-7.26806-.02652-8.18672-3.248-.69156-2.42514,1.40674-5.64471,2.25723-8.51235.09452-.31864.13133-.65442.22692-.97269,1.14674-3.81864,1.42277-8.29886,3.67869-11.28031,2.65788-3.51266,7.22959-.19329,10.9986-.48812,15.10724-1.18183,26.34373-9.95317,30.20015-26.10157,4.55441-19.07142,8.078-38.39055,11.97241-57.61769,4.62033-22.81125,9.15063-45.64071,13.74039-68.45817,1.14044-5.6697,1.17663-5.66878-4.83939-5.67339-8.32962-.00638-16.664-.16544-24.9866.07533-3.50153.10129-4.2681-1.1428-3.751-4.31044.80365-4.92364,1.49133-9.87665,1.944-14.84311.25678-2.81692,1.51547-3.57247,4.17358-3.53868,9.49421.12067,18.99329-.0735,28.48545.1115,3.36017.06549,4.90841-.6319,5.59762-4.39422q3.32368-18.14334,7.61365-36.10637c5.37537-22.30807,18.6243-37.094,41.57395-42.22927a5.5301,5.5301,0,0,0,1.545-.98207h22c.08807.14132.1496.37724.268.41048,9.36115,2.62872,9.37006,2.62972,6.83124,12.59956-.98386,3.86356-1.0068,8.53824-3.29962,11.34883-2.48282,3.04355-7.19724.14678-10.97437.44627-14.19641,1.12562-23.529,8.55031-28.47076,21.51677-4.28058,11.23158-5.34018,23.28777-8.07056,34.92312-.79422,3.38452,1.99283,2.34653,3.4899,2.35794,10.82285.08251,21.65048.21142,32.46811-.04017,4.144-.09638,5.22519.88965,3.81824,4.95034a98.16048,98.16048,0,0,0-3.73065,13.94977c-.61093,3.2499-2.22608,3.84412-5.1427,3.80622-10.48868-.13625-20.98584.14238-31.46759-.15936-3.67426-.10577-4.79435,1.23306-5.45411,4.54153-8.67742,43.51519-17.53585,86.9943-26.209,130.51034-4.68109,23.48674-16.837,40.16917-40.97436,46.439-1.69016.439-3.73571-.27881-5.08179,1.39932Z"/><path d="M5.92972,116.48989c7.13127.88278,14.29289.33757,21.43391.29642,3.34835-.01928,4.92791.65392,4.51408,4.3446a92.83461,92.83461,0,0,0-.06092,9.41243c9.22473-12.26163,21.099-17.2822,35.10734-16.81645,14.06626.46768,25.3421,6.33235,32.08136,19.41818,13.86657-17.54187,30.82985-23.40892,50.09916-17.53969,16.02139,4.88,26.35867,19.13617,26.65319,38.17044.37639,24.32589.074,48.66176.20871,72.99254.0163,2.94669-.95273,3.63677-3.70407,3.55426-6.16067-.18472-12.34241-.28512-18.49243.0307-3.53719.18166-4.03392-1.21931-4.01685-4.2879.11586-20.83121.06221-41.66336.05661-62.49521-.00045-1.66588.0488-3.3405-.0953-4.99624-1.15064-13.22184-8.96219-20.67524-21.61554-20.67743-12.24553-.00214-22.37351,8.68817-23.10478,21.025-.72858,12.29132-.37777,24.64843-.43863,36.977-.05019,10.1657-.11769,20.33365.05474,30.49668.052,3.06369-.828,4.05992-3.942,3.94015-6.15712-.23683-12.34148-.29829-18.49156.01688-3.62274.18565-4.34832-1.06632-4.32476-4.46172q.22728-32.74608.049-65.49467c-.04773-11.20214-5.36-18.95867-14.37308-21.54438-15.809-4.53535-30.3123,5.63651-30.60226,22.07154-.37917,21.49177-.24277,42.99545-.063,64.49179.0331,3.95887-1.00477,5.09677-4.96041,4.94987-7.31253-.27157-14.64711.05043-21.9725.12517Z"/><path class="cls-1" d="M610.06082,192.86617c1.93512-1.27337,2.33179-2.94989,3.09418-4.35109,12.24152-22.49858,24.517-44.97923,36.60431-67.56055,1.63086-3.04672,3.32617-4.34457,6.90869-4.08128a184.42275,184.42275,0,0,0,19.47668.38816c3.3855-.11,4.23322,1.36608,4.62732,4.21759q4.543,32.87254,9.22773,65.72552c.25518,1.8045.65722,3.58826,1.02423,5.55948,1.79828-1.18048,2.08923-3.05954,2.83-4.6039q16.17821-33.72825,32.20777-67.52726c1.328-2.81681,2.82782-3.89969,6.01532-3.77639,7.3089.28277,14.63635.0895,21.74426.0895.88965,2.32562-.382,3.47009-.9939,4.70753-17.2442,34.87453-34.59552,69.69636-51.7218,104.62857-1.60559,3.27492-3.44391,4.25508-6.848,4.11783-5.9881-.24144-12.006-.30545-17.98578.023-3.47174.19071-4.53045-1.2314-5.00976-4.31364-3.04114-19.55866-6.19379-39.1-9.325-58.64459-.88574-5.5291-1.82263-11.05-2.94781-17.85546-8.43781,15.87249-16.23077,30.5302-24.02209,45.18882-5.62012,10.5738-11.3288,21.10225-16.79358,31.75578-1.38038,2.69107-2.87574,3.978-6.06189,3.85582-6.65442-.25522-13.32752-.17038-19.9889-.03209-2.696.056-4.04949-.33362-4.42358-3.59331-3.81317-33.23068-7.91278-66.42842-11.76233-99.655-1.18909-10.26347-.95154-10.291,9.28815-10.291,4.8316,0,9.67743.227,14.48993-.07633,3.44745-.21731,4.6477,1.02582,4.879,4.36294,1.00122,14.45036,2.19122,28.88761,3.30358,43.33032C608.6135,173.74953,609.31363,183.04514,610.06082,192.86617Z"/><path class="cls-1" d="M418.33478,59.286c4.1401.19467,10.2178-1.1713,11.942.96931,2.2815,2.83249-.80752,8.09791-1.70773,12.2656-10.81311,50.06093-21.8258,100.07891-32.5376,150.16132-1.08737,5.084-2.67779,7.41956-8.27664,6.77931a100.474,100.474,0,0,0-15.97949-.06414c-3.43552.15907-4.31921-.84343-3.56061-4.24317,4.45416-19.962,8.73938-39.96164,13.101-59.94433q10.7445-49.2256,21.50309-98.44813c1.58532-7.27664,1.531-7.2885,9.00937-7.28871q3.24944-.00009,6.4989,0Z"/><path class="cls-2" d="M529.08951,124.04069c-11.40143,8.37142-22.21655,16.31237-33.95239,24.92932.15878-3.3649.19259-5.7507.3991-8.12146.47471-5.44931.02939-5.94467-5.13494-5.3221-15.57261,1.8774-29.47287,16.71858-30.55515,32.41258-.593,8.59864,1.032,16.58959,5.94479,23.72451,1.4621,2.12344,1.36408,3.35667-.81069,4.82855a119.9185,119.9185,0,0,0-11.65683,8.579c-2.97791,2.59149-4.19346,1.40587-5.98948-1.27347-19.8331-29.58708-8.28512-70.56173,24.44565-85.28324C491.39056,109.69384,510.30035,112.14487,529.08951,124.04069Z"/><path class="cls-1" d="M462.77365,219.32925c11.60526-8.51491,22.45215-16.47341,33.97119-24.92508,0,3.90976.14878,7.13545-.04547,10.34034-.16543,2.72943.73972,3.28517,3.44327,3.06565,26.79526-2.17578,41.57626-33.99263,25.91727-56.53736-2.66913-3.84279-2.04908-5.33661,1.40014-7.47447a82.68092,82.68092,0,0,0,9.66132-7.08235c2.50549-2.11171,3.77508-1.2995,5.48865,1.02615,24.81134,33.6752,3.9848,84.21193-37.394,90.70224C490.106,230.8144,476.23148,227.85763,462.77365,219.32925Z"/><path d="M235.8607,146.49c0,26.33316-.09825,52.66708.10341,78.9987.03108,4.05881-1.15506,5.06529-5.00032,4.86108-5.98309-.3177-12.00265-.25915-17.99254-.01352-3.21881.132-4.27066-.73063-4.19621-4.0988.22833-10.32821.08284-20.66468.08282-30.998,0-42.83306.06342-85.66635-.10008-128.49877-.016-4.18782,1.06586-5.40947,5.21742-5.12347a135.64061,135.64061,0,0,0,16.9885.01395c3.84651-.21888,5.03082.80178,5.00034,4.86009C235.76364,93.15626,235.8607,119.82348,235.8607,146.49Z"/></svg>