<svg id="Layer_1" data-name="Layer 1" xmlns="http://www.w3.org/2000/svg" viewBox="0 0 771.67154 603.78826"><defs><style>.cls-1{fill:#e77215;}.cls-2{fill:#3a3633;}</style></defs><title>mllib</title><path class="cls-1" d="M735.47115,49.91718c-9.34577.53491-18.65546,3.00983-27.80927,5.3039-17.10968,4.28784-34.0672,9.182-51.17,13.499-1.85407.468-5.14282-.53986-6.226-2.00311-3.44989-4.66059-6.14093-9.87885-9.1825-14.84656C633.434,39.377,626.00679,26.73774,618.01149,14.46912c-7.4898-11.4931-22.75128-16.401-33.16815-1.02807a53.38411,53.38411,0,0,0-7.81921,18.65149c-3.99268,19.21252-7.12433,38.60607-10.44587,57.954-.59826,3.48523-1.92346,5.548-5.55169,6.6358-14.66925,4.398-29.30084,8.9389-43.8385,13.75293-9.7696,3.23511-19.80237,6.14227-28.91767,10.77112-12.04345,6.11584-14.98071,20.13373-6.60614,29.468a52.75263,52.75263,0,0,0,15.26722,11.69129c12.03894,6.03509,24.64288,10.9339,36.89514,16.56,2.80163,1.28643,4.82629,1.17791,7.33069-.46839,9.18078-6.03509,18.48272-11.8855,27.71814-17.83783a14.503,14.503,0,0,0,1.93353-2.00812c-17.16321-6.85675-33.796-13.50158-50.42884-20.14648q.12791-.945.25574-1.89008c2.40936-.91326,4.78156-1.944,7.23413-2.72119,19.04279-6.03448,38.12976-11.933,57.111-18.15423,1.91816-.62866,4.283-2.90717,4.649-4.77173,2.46619-12.56183,4.37757-25.23114,6.61164-37.84033,1.60876-9.08014,3.43878-18.121,5.1701-27.17939q.78525-.24288,1.57062-.48584A69.57155,69.57155,0,0,1,607.15,51.00477q13.9845,23.063,27.81055,46.22174c1.52252,2.557,3.07819,3.25555,6.0993,2.42187,19.72547-5.44317,39.50611-10.687,59.29059-15.91339,1.91528-.50592,3.97925-.44891,7.55506-.81506-1.89582,2.58087-2.74872,3.90655-3.76148,5.09607q-20.87292,24.5169-41.7951,48.99182c-1.68964,1.97607-2.97242,3.67-1.39435,6.58636,8.79034,16.24512,17.403,32.58661,26.03192,48.91864.96265,1.82209,1.64416,3.79261,2.45605,5.69428q-.43725.698-.87463,1.39606c-15.90826-4.29383-31.81653-8.58759-48.81689-13.17615,1.822,10.5141,3.25726,19.86682,5.22912,29.105.32263,1.51172,2.8291,3.05682,4.63623,3.664,7.09381,2.3833,14.29358,4.46051,21.488,6.5332,9.74109,2.8064,19.36877,6.33735,29.30463,8.06348,17.1864,2.98584,29.87579-12.0838,24.78338-28.68713a53.567,53.567,0,0,0-4.03851-9.095q-13.38519-25.4004-26.91461-50.72473c-1.29328-2.43073-2.3031-4.54761.01635-7.22944q19.9237-23.03658,39.53785-46.33972c5.42773-6.48321,11.30462-12.87689,15.27227-20.23114C755.54933,59.46784,749.05977,49.13941,735.47115,49.91718Z"/><path class="cls-2" d="M207.65023,208.22291c-37.70832,6.623-65.39759,36.73028-70.08692,75.142-3.06109,25.07379-6.63776,50.08447-9.93872,75.12927-1.40533,10.663-2.69629,21.34112-4.11981,32.65246,9.76782,0,19.05621.09455,28.335-.15911.8454-.02314,2.17438-2.20374,2.35791-3.51172,1.77637-12.65674,3.32568-25.34516,5.01087-38.01508.46038-3.46112,1.15972-6.89044,1.87365-11.06,11.78815,8.67188,24.17291,12.91169,37.61768,13.01862,28.46832.22638,51.18262-11.85907,68.24017-34.24335,13.1358-17.23779,19.27332-36.885,15.542-58.60626C276.25954,222.34675,243.571,201.91382,207.65023,208.22291Zm44.3518,69.78784c-2.49933,23.2868-23.46338,42.2193-46.79382,42.25921-24.108.04126-40.452-20.21032-35.42731-43.89764,4.93414-23.26056,27.03595-40.16247,49.73194-38.03143C240.07723,240.2718,254.20149,257.51771,252.002,278.01075Z"/><path class="cls-2" d="M116.40889,261.43726c-4.33368-5.86236-9.43884-11.17169-14.36621-16.574-8.7456-9.58869-17.85455-18.85492-26.38415-28.62891-8.04511-9.21881-5.33747-19.18085,5.9967-23.91986,9.951-4.16077,20.33893-.7735,27.51209,9.04224,1.90393,2.60528,3.64184,5.332,5.5371,8.12243l30.52082-22.7619c-3.35077-4.38654-6.03577-8.189-9.01294-11.747-10.28119-12.2868-23.70258-18.24408-39.51654-17.81232-18.51361.50544-34.23725,8.05274-46.57746,21.82032C37.36116,193.21088,31.358,209.85078,39.14162,228.19544c3.99139,9.40711,10.92657,17.80493,17.58081,25.78357,8.94073,10.72015,19.04065,20.46521,28.34473,30.89484,3.71429,4.16363,5.725,9.36114,4.7677,15.17022-1.74988,10.61933-9.12567,16.0127-18.65137,18.53186-10.00592,2.64618-19.01251.26166-25.26129-8.48651-3.24451-4.54236-5.59577-9.72265-8.43115-14.75793-8.001,4.257-16.07843,8.54553-24.14747,12.84991-8.676,4.62812-8.79241,4.68463-4.93585,13.91791,5.5857,13.373,14.48084,23.47913,28.82764,27.75043,26.89795,8.008,57.16956-1.25775,74.584-23.25354C124.94344,310.01954,132.98946,283.86616,116.40889,261.43726Z"/><path class="cls-2" d="M357.04622,210.13325c-33.83288,9.82946-57.906,38.15655-61.174,73.14013-1.943,20.80005,4.55035,39.34162,21.01361,53.06043,21.67542,18.06207,45.981,18.62176,71.46185,9.41784,3.19989-1.15582,4.176-3.24957,4.5337-6.30169,1.27551-10.88538,2.69427-21.754,4.21276-33.85584-7.683,7.18665-15.56066,11.92938-24.937,13.89545-26.35522,5.52624-48.11426-13.35333-44.79724-39.763,2.37555-18.914,13.47168-32.02631,31.27924-38.67145,21.15222-7.89325,48.62207-1.51086,50.40045,31.47583.7417,13.75714-1.70038,27.72192-3.12219,41.54834-1.14746,11.15857-2.93653,22.25122-4.53247,34.04938,9.74475,0,18.87408.11969,27.99041-.16986,1.00269-.0318,2.59821-2.316,2.79383-3.713q4.525-32.31352,8.69574-64.67633c2.01873-15.69036-.5409-30.517-9.09638-44.05151C416.24593,210.9618,386.4153,201.60059,357.04622,210.13325Z"/><path class="cls-2" d="M598.26461,254.26856c11.13586-11.68719,22.31848-23.33026,33.37341-35.09332,1.25268-1.33289,2.74316-3.46216,2.524-4.99329-1.44806-10.11969-3.33362-20.17682-5.2696-31.36969-19.13678,21.13648-37.53784,41.46045-55.939,61.78436q-.44312-.26111-.88623-.52215c3.45154-26.6344,6.90307-53.2688,10.54236-81.35223-12.827,8.26715-24.30487,15.59405-35.66114,23.105-1.01586.67187-1.59832,2.48852-1.783,3.85443-2.98193,22.05578-5.85913,44.12567-8.77545,66.19037q-4.40817,33.352-8.83313,66.70184c-1.092,8.3158-2.07458,16.64593-3.177,25.53308,10.79584,0,20.94476.1441,31.07788-.19031,1.2088-.03985,3.14014-2.5697,3.36774-4.14343,2.02167-13.97729,3.71777-28.00146,5.54474-42.00726,1.23462-9.465,2.52508-18.92267,3.96081-29.656,1.8924,2.6582,3.0622,4.20142,4.12775,5.81342q22.16208,33.52734,44.3656,67.02679c.889,1.33429,2.72174,2.87036,4.13782,2.89276,12.47729.19751,24.95971.07611,37.44043.01184.16742-.00085.33227-.48358.6261-.93969q-31.789-44.566-63.71222-89.32007C596.5215,256.23139,597.3597,255.21821,598.26461,254.26856Z"/><path class="cls-2" d="M505.14656,210.606c-23.61486.01319-41.84265,15.9195-45.059,39.46186-2.58215,18.90039-5.03119,37.81909-7.51892,56.7323-1.77185,13.47052-3.50989,26.94555-5.36334,41.18988,10.1203,0,19.41266.13635,28.69019-.173,1.15667-.03857,3.02459-2.32507,3.22882-3.75988,2.47686-17.4021,4.70208-34.84,6.99511-52.26825,1.68872-12.8349,3.28968-25.68219,5.10773-38.49872,1.00147-7.06043,5.61835-11.01642,12.49707-11.09833,5.15918-.06146,10.32385.09351,15.47638-.10236,1.21881-.04626,3.33832-.97143,3.45392-1.73346,1.46179-9.6358,2.63238-19.31567,3.976-29.75061C519.02626,210.60541,512.08638,210.60212,505.14656,210.606Z"/><path class="cls-2" d="M459.89907,463.61882c-4.16906-.28648-5.65065,1.70151-6.78314,5.18842-3.49181,10.75083-7.20813,21.42882-10.84673,32.13189-8.15667,23.99329-16.319,47.98482-25.063,73.69381-12.74555-37.97257-24.94127-74.3069-37.0398-110.3517H355.27216V592.65645h15.92256V487.828a13.10127,13.10127,0,0,1,3.50987,5.89639c10.47458,30.67381,21.10453,61.29653,31.2443,92.08071,1.89744,5.76084,4.379,7.5717,10.49255,7.74745,6.56416.18866,8.50143-2.65677,10.25494-8.029,6.47038-19.82293,13.32416-39.5212,20.08563-59.24851,4.51992-13.18732,9.12743-26.34467,13.69575-39.51539q.82905.12889,1.658.25772V592.71353H477.941V463.7173C471.40471,463.7173,465.62819,464.01246,459.89907,463.61882Z"/><path class="cls-2" d="M758.53276,514.23119c-9.52982-17.63983-39.23-24.87119-54.14492-6.77484-.65652.7963-1.75914,1.22479-4.03463,2.75V464.1694H685.81229V592.74128h13.69925c.3041-3.93458.56763-7.34552.79261-10.25706,6.19948,3.91208,11.3961,8.64657,17.5,10.75581,15.10781,5.22069,33.35695-2.70094,41.41975-18.32041C769.58529,554.8468,769.35773,534.269,758.53276,514.23119Zm-12.3971,52.11434a22.95582,22.95582,0,0,1-23.99071,13.504c-10.54354-1.36025-18.29376-7.45128-20.10637-17.68022a90.45193,90.45193,0,0,1-.52651-29.74417A24.17792,24.17792,0,0,1,725.787,511.7273c11.58973.11655,20.58936,8.23634,23.4998,21.54638.906,4.14343,1.14669,8.43246,1.69163,12.65482q.4119.1935.8236.387C749.9737,553.01916,748.92807,560.07109,746.13566,566.34553Z"/><path class="cls-2" d="M521.88319,464.22841H506.13251V592.76387h79.38043V578.56153H521.88319Z"/><path class="cls-2" d="M605.87787,593.05718h13.94139V464.17935H605.87787Z"/><path class="cls-2" d="M645.39391,592.82851H659.523V498.86677H645.39391Z"/><path class="cls-2" d="M645.23125,479.48615h14.47657v-15.426H645.23125Z"/></svg>