<svg id="Layer_1" data-name="Layer 1" xmlns="http://www.w3.org/2000/svg" viewBox="0 0 400 245"><defs><style>.cls-1{fill:#13a5c3;}.cls-2{fill:#0b2361;}</style></defs><title>logo-mobilise</title><g id="Layer_2" data-name="Layer 2"><g id="Layer_1-2" data-name="Layer 1-2"><path class="cls-1" d="M261.63931,31.73191a42.04806,42.04806,0,0,0-37.74252,23.59556c-.48983-.02513-.97077-.03643-1.45566-.03643a30.11026,30.11026,0,0,0-12.40344,57.60667,14.98044,14.98044,0,0,1-.25922-2.70195,14.06252,14.06252,0,0,1,1.506-6.422,21.47979,21.47979,0,0,1,18.17-38.64483,33.29814,33.29814,0,1,1,51.48436,35.59838,14.94059,14.94059,0,0,1,2.9419,8.46165,41.88885,41.88885,0,0,0-22.24138-77.45709"/><path class="cls-2" d="M219.30894,118.447c.67022.22223,1.33252-.449,1.33252-.449L246.769,96.80085l26.1226,21.19718s.66625.67118,1.33742.449a1.24814,1.24814,0,0,0,.96583-1.333v-7.40363a7.2603,7.2603,0,0,0-2.11307-5.089L251.49279,87.124a6.38766,6.38766,0,0,0-9.02356-.4241q-.22189.202-.4241.4241l-21.59391,17.49734a7.28162,7.28162,0,0,0-2.11307,5.089V117.114a1.24861,1.24861,0,0,0,.97077,1.333"/><path class="cls-2" d="M69.46526,144.06867c-3.19178,0-7.37457.65932-12.54831,4.84307-1.87161,1.43108-3.08187,1.982-5.17375.11041a19.99815,19.99815,0,0,0-13.31906-4.95349,19.32535,19.32535,0,0,0-12.1092,4.5129c-1.76125,1.54144-2.42108,1.65084-3.52245,0l-1.43058-2.31214a1.707,1.707,0,0,0-1.6518-.99051H11.895a1.33,1.33,0,0,0-1.431,1.4311V197.8967a1.33,1.33,0,0,0,1.431,1.431H26.5352a1.32977,1.32977,0,0,0,1.431-1.431V170.8171c0-7.376,2.422-11.22764,7.70569-11.22764,3.963,0,5.83363,2.532,5.83363,6.82409V197.8967a1.33043,1.33043,0,0,0,1.43154,1.431H57.46737a1.33005,1.33005,0,0,0,1.43108-1.431V170.8171c0-7.376,2.75221-11.22764,7.81509-11.22764,4.18274,0,5.83459,2.532,5.83459,7.04486V197.8967a1.33,1.33,0,0,0,1.431,1.431H88.50945a1.33025,1.33025,0,0,0,1.43108-1.431V164.43258C89.94054,151.55409,82.67487,144.06867,69.46526,144.06867Z"/><path class="cls-2" d="M120.75887,144.06867c-16.6217,0-26.85884,11.00687-26.85884,28.17945,0,17.3924,10.23713,28.28987,26.85883,28.28987,16.51179,0,26.74943-10.89747,26.74943-28.28987C147.50831,155.07554,137.27065,144.06867,120.75887,144.06867Zm0,41.05794c-6.05389,0-9.79706-4.84307-9.79706-12.87847,0-7.92494,3.74317-12.65868,9.79707-12.65868,5.9445,0,9.68721,4.73372,9.68721,12.65868C130.44607,180.28354,126.70336,185.12661,120.75887,185.12661Z"/><path class="cls-2" d="M181.30063,144.06867a20.38889,20.38889,0,0,0-12.43891,3.74221c-1.76125,1.32067-2.86263.21976-1.98151-1.65084,2.09137-4.40254,2.64186-7.59579,2.64186-13.53978V120.62187a1.32935,1.32935,0,0,0-1.43057-1.43078H153.45079a1.32918,1.32918,0,0,0-1.431,1.43078V191.8423a1.56344,1.56344,0,0,0,1.10087,1.65085l11.66771,4.62332a35.465,35.465,0,0,0,13.42992,2.42154c16.73251,0,26.859-10.89747,26.859-28.28987C205.07729,154.96614,195.94081,144.06867,181.30063,144.06867Zm-3.08238,41.05794a19.7728,19.7728,0,0,1-6.71474-1.431l-2.20178-.9905V170.37656c0-6.1638,2.75221-10.78711,9.13678-10.78711,5.83408,0,9.5763,4.62331,9.5763,12.65867S184.3825,185.12661,178.21825,185.12661Z"/><path class="cls-2" d="M229.40519,145.27893H214.68271a1.32982,1.32982,0,0,0-1.43108,1.43108l.1912,13.86994V197.8967a1.33029,1.33029,0,0,0,1.43108,1.431H229.4052a1.33026,1.33026,0,0,0,1.431-1.431V146.71a1.33026,1.33026,0,0,0-1.43105-1.43108Z"/><path class="cls-2" d="M284.53416,145.27893H269.81168A1.32982,1.32982,0,0,0,268.3806,146.71l.1912,13.86994V197.8967a1.33029,1.33029,0,0,0,1.43108,1.431h14.53128a1.33027,1.33027,0,0,0,1.431-1.431V146.71a1.3303,1.3303,0,0,0-1.431-1.43108Z"/><path class="cls-2" d="M259.0137,185.89831a1.42179,1.42179,0,0,0-1.87156-.7717h-.66033c-.9905,0-1.43108-.8801-1.43108-2.09041V120.62187a1.32922,1.32922,0,0,0-1.431-1.43078H238.979a1.329,1.329,0,0,0-1.43008,1.43078v62.41433c0,11.00687,7.15526,17.50179,18.93288,17.50179a16.58659,16.58659,0,0,0,6.38452-1.32067,1.30114,1.30114,0,0,0,.66129-1.8706Z"/><path class="cls-2" d="M321.86468,166.74471l-9.356-2.20178c-1.87262-.55093-2.86312-1.7612-2.86312-2.86307,0-1.76024,1.65185-2.75075,4.51392-2.75075A56.88016,56.88016,0,0,1,324.39659,160.03l5.61382,1.32067a1.20305,1.20305,0,0,0,1.65083-.99051l3.30364-11.44841a1.2466,1.2466,0,0,0-.99146-1.7612l-5.50442-1.32067a68.74035,68.74035,0,0,0-14.30956-1.7612c-13.53976,0-21.46478,6.49492-21.46478,17.61119,0,8.36654,4.84313,13.21061,15.51984,15.63216l8.69669,2.20077c2.20174.55093,3.19128,1.87162,3.19128,3.30365,0,1.8706-1.54048,2.9705-4.29118,2.9705a70.64179,70.64179,0,0,1-13.54078-1.7612l-5.1733-1.32067a1.20529,1.20529,0,0,0-1.65179.9905l-3.3017,11.66918a1.245,1.245,0,0,0,.9905,1.7612l5.83459,1.43108a69.64526,69.64526,0,0,0,16.84248,1.981c13.42842,0,21.35437-6.60529,21.35437-17.72156C337.16566,174.22913,332.43295,169.27666,321.86468,166.74471Z"/><path class="cls-2" d="M382.07524,184.46728a1.20381,1.20381,0,0,0-1.65083-.99152l-6.60432,1.43108a40.38736,40.38736,0,0,1-7.04484.7717c-5.1733,0-7.926-1.6528-10.01739-5.50542l12.87847-1.8706c12.65968-1.76025,18.82342-6.8261,18.82342-15.63119,0-11.339-8.47589-18.60266-22.23547-18.60266-17.282,0-27.29937,10.89747-27.29937,28.28987,0,17.282,9.79656,28.17945,27.8503,28.17945a48.44429,48.44429,0,0,0,10.45689-1.21027l6.82509-1.6518a1.3227,1.3227,0,0,0,1.10092-1.76125Zm-16.51231-25.53817q6.60674,0,6.60534,3.962c0,2.42249-1.65083,3.962-5.06289,4.29315l-11.44841,1.7622c.3302-6.93549,5.17327-10.01737,9.906-10.01737Z"/></g></g></svg>