<svg xmlns="http://www.w3.org/2000/svg" xmlns:xlink="http://www.w3.org/1999/xlink" viewBox="0 0 320 360"><defs><style>.cls-1{fill:url(#linear-gradient);}.cls-2{fill:url(#linear-gradient-2);}.cls-3{fill:#11006d;}</style><linearGradient id="linear-gradient" x1="-5.04" y1="116.82" x2="300.21" y2="422.06" gradientUnits="userSpaceOnUse"><stop offset="0" stop-color="#4082ff"/><stop offset="0.02" stop-color="#477dfe"/><stop offset="0.23" stop-color="#884af6"/><stop offset="0.38" stop-color="#b12af1"/><stop offset="0.45" stop-color="#c11eef"/><stop offset="0.59" stop-color="#c91dbc"/><stop offset="0.71" stop-color="#d01d93"/><stop offset="0.83" stop-color="#d51c75"/><stop offset="0.93" stop-color="#d81c62"/><stop offset="1" stop-color="#d91c5c"/></linearGradient><linearGradient id="linear-gradient-2" x1="308.43" y1="133.42" x2="165.59" y2="276.26" gradientUnits="userSpaceOnUse"><stop offset="0" stop-color="#eb008b"/><stop offset="0.06" stop-color="#ec0982"/><stop offset="0.35" stop-color="#ee3158"/><stop offset="0.61" stop-color="#f04d3b"/><stop offset="0.84" stop-color="#f15f28"/><stop offset="1" stop-color="#f16522"/></linearGradient></defs><title>Momenton-Logo</title><g id="Layer_2" data-name="Layer 2"><g id="Layer_1-2" data-name="Layer 1"><path class="cls-1" d="M69.58,249.61,160,148.94,31.66,6.06C20.52-6.34,0,1.56,0,18.24V261.79A18.18,18.18,0,0,0,18.16,280H83.07C67.35,280,59.05,261.33,69.58,249.61Z"/><path class="cls-2" d="M288.34,6.06,160,148.94l90.42,100.67C261,261.33,252.65,280,236.93,280h64.91A18.18,18.18,0,0,0,320,261.79V18.24C320,1.56,299.48-6.34,288.34,6.06Z"/><path class="cls-3" d="M250.42,249.61,160,148.94,69.58,249.61C59.05,261.33,67.35,280,83.07,280H236.93C252.65,280,261,261.33,250.42,249.61Z"/><path class="cls-3" d="M.42,358.94A1.41,1.41,0,0,1,0,357.89V327.51a1.43,1.43,0,0,1,.42-1.06A1.41,1.41,0,0,1,1.47,326h2.7a1.31,1.31,0,0,1,1,.42,1.49,1.49,0,0,1,.39,1.06v2.18a11.35,11.35,0,0,1,9.35-4.3q7,0,10,5.9a11.35,11.35,0,0,1,4.39-4.3,12.89,12.89,0,0,1,6.38-1.6A11.22,11.22,0,0,1,44.29,329q3.33,3.58,3.33,10.38v18.53a1.41,1.41,0,0,1-.42,1.05,1.42,1.42,0,0,1-1.05.42H43.39a1.43,1.43,0,0,1-1.06-.42,1.41,1.41,0,0,1-.42-1.05V339.94c0-3.42-.7-5.86-2.11-7.34a7.38,7.38,0,0,0-5.58-2.21,7.09,7.09,0,0,0-5.28,2.28c-1.48,1.51-2.21,3.94-2.21,7.27v17.95a1.41,1.41,0,0,1-.42,1.05,1.43,1.43,0,0,1-1.06.42H22.43A1.42,1.42,0,0,1,21,357.89V339.94q0-5.06-2.21-7.31a7.41,7.41,0,0,0-5.48-2.24A7.18,7.18,0,0,0,8,332.63c-1.47,1.5-2.21,3.91-2.21,7.25v18a1.41,1.41,0,0,1-.42,1.05,1.43,1.43,0,0,1-1.06.42H1.47A1.41,1.41,0,0,1,.42,358.94Z"/><path class="cls-3" d="M60.21,356a15.58,15.58,0,0,1-4.07-10.58l-.06-2.75.06-2.76a15.36,15.36,0,0,1,4.14-10.57q3.87-4,10.8-4t10.8,4A15.4,15.4,0,0,1,86,339.94c.08.94.13,1.86.13,2.76s0,1.81-.13,2.75A15.58,15.58,0,0,1,81.94,356q-3.81,4-10.86,4T60.21,356Zm17.37-3.43q2.4-2.6,2.6-7.47.06-.64.06-2.43c0-1.2,0-2-.06-2.44q-.2-4.87-2.6-7.47a8.42,8.42,0,0,0-6.5-2.59,8.43,8.43,0,0,0-6.51,2.59C63,334.52,62.1,337,62,340.26l-.07,2.44.07,2.43c.12,3.25,1,5.74,2.59,7.47a8.43,8.43,0,0,0,6.51,2.59A8.42,8.42,0,0,0,77.58,352.6Z"/><path class="cls-3" d="M95.27,358.94a1.41,1.41,0,0,1-.42-1.05V327.51A1.44,1.44,0,0,1,96.33,326H99a1.31,1.31,0,0,1,1,.42,1.49,1.49,0,0,1,.39,1.06v2.18a11.35,11.35,0,0,1,9.36-4.3q7,0,10,5.9a11.35,11.35,0,0,1,4.39-4.3,12.89,12.89,0,0,1,6.38-1.6,11.21,11.21,0,0,1,8.59,3.59q3.33,3.58,3.33,10.38v18.53a1.44,1.44,0,0,1-1.47,1.47h-2.76a1.42,1.42,0,0,1-1.47-1.47V339.94c0-3.42-.71-5.86-2.12-7.34a7.37,7.37,0,0,0-5.57-2.21,7.11,7.11,0,0,0-5.29,2.28c-1.47,1.51-2.21,3.94-2.21,7.27v17.95a1.41,1.41,0,0,1-.42,1.05,1.43,1.43,0,0,1-1.06.42h-2.82a1.44,1.44,0,0,1-1.47-1.47V339.94q0-5.06-2.21-7.31a7.41,7.41,0,0,0-5.48-2.24,7.2,7.2,0,0,0-5.29,2.24c-1.47,1.5-2.21,3.91-2.21,7.25v18a1.44,1.44,0,0,1-1.47,1.47H96.33A1.43,1.43,0,0,1,95.27,358.94Z"/><path class="cls-3" d="M155.16,355.93q-3.91-4.06-4.29-11.12l-.07-2.18.07-2.11q.38-6.93,4.29-11a13.78,13.78,0,0,1,10.45-4.1q7,0,10.92,4.49t3.88,12.17v1.16a1.46,1.46,0,0,1-.41,1.06,1.48,1.48,0,0,1-1.06.41H156.7v.58a11.89,11.89,0,0,0,2.56,7.11,7.65,7.65,0,0,0,6.28,2.95,9.13,9.13,0,0,0,4.91-1.18,10.51,10.51,0,0,0,2.85-2.47,3.27,3.27,0,0,1,.9-.93,2.53,2.53,0,0,1,1.08-.16h2.82a1.62,1.62,0,0,1,1,.32,1,1,0,0,1,.42.83,5.66,5.66,0,0,1-1.74,3.4,14.09,14.09,0,0,1-4.9,3.43,17.41,17.41,0,0,1-7.27,1.44A13.84,13.84,0,0,1,155.16,355.93Zm19.42-15.61v-.19a10.73,10.73,0,0,0-2.44-7.3,8.19,8.19,0,0,0-6.53-2.82,8.08,8.08,0,0,0-6.54,2.82,11,11,0,0,0-2.37,7.3v.19Z"/><path class="cls-3" d="M189.29,358.94a1.41,1.41,0,0,1-.42-1.05V327.51a1.44,1.44,0,0,1,1.48-1.48h2.75a1.35,1.35,0,0,1,1.48,1.48v2.82a13.7,13.7,0,0,1,4.45-3.66,14,14,0,0,1,6.31-1.28q6.16,0,9.55,3.94t3.4,10.42v18.14a1.41,1.41,0,0,1-.42,1.05,1.42,1.42,0,0,1-1.05.42h-2.95a1.43,1.43,0,0,1-1.06-.42,1.41,1.41,0,0,1-.42-1.05V340.13c0-3.07-.74-5.47-2.24-7.18a8.09,8.09,0,0,0-6.41-2.56,8.56,8.56,0,0,0-6.54,2.6,10,10,0,0,0-2.43,7.14v17.76a1.41,1.41,0,0,1-.42,1.05,1.43,1.43,0,0,1-1.06.42h-2.94A1.43,1.43,0,0,1,189.29,358.94Z"/><path class="cls-3" d="M230.66,348.14V331H225.6a1.39,1.39,0,0,1-1-.39,1.36,1.36,0,0,1-.38-1v-2.05a1.48,1.48,0,0,1,.38-1.06,1.33,1.33,0,0,1,1-.42h5.06v-10.7a1.53,1.53,0,0,1,.38-1.06,1.33,1.33,0,0,1,1-.41h2.82a1.42,1.42,0,0,1,1.06.41,1.46,1.46,0,0,1,.41,1.06V326h7.95a1.42,1.42,0,0,1,1.47,1.48v2.05a1.31,1.31,0,0,1-.41,1,1.49,1.49,0,0,1-1.06.39h-7.95v16.72a9.37,9.37,0,0,0,1.06,4.94A4,4,0,0,0,241,354.3H245a1.36,1.36,0,0,1,1,.41,1.53,1.53,0,0,1,.38,1.06v2.12a1.5,1.5,0,0,1-.38,1.05,1.33,1.33,0,0,1-1,.42h-4.36Q230.66,359.36,230.66,348.14Z"/><path class="cls-3" d="M255.94,356a15.58,15.58,0,0,1-4.07-10.58l-.06-2.75.06-2.76A15.36,15.36,0,0,1,256,329.37q3.87-4,10.79-4t10.8,4a15.36,15.36,0,0,1,4.14,10.57c.08.94.13,1.86.13,2.76s-.05,1.81-.13,2.75A15.58,15.58,0,0,1,277.67,356q-3.81,4-10.87,4T255.94,356Zm17.37-3.43q2.4-2.6,2.6-7.47.06-.64.06-2.43c0-1.2,0-2-.06-2.44q-.2-4.87-2.6-7.47a9.46,9.46,0,0,0-13,0q-2.4,2.59-2.6,7.47l-.06,2.44.06,2.43q.19,4.88,2.6,7.47a9.46,9.46,0,0,0,13,0Z"/><path class="cls-3" d="M291,358.94a1.41,1.41,0,0,1-.42-1.05V327.51a1.44,1.44,0,0,1,1.48-1.48h2.75a1.35,1.35,0,0,1,1.48,1.48v2.82a13.7,13.7,0,0,1,4.45-3.66,14,14,0,0,1,6.31-1.28q6.17,0,9.55,3.94t3.4,10.42v18.14a1.41,1.41,0,0,1-.42,1.05,1.42,1.42,0,0,1-1.05.42h-2.95a1.43,1.43,0,0,1-1.06-.42,1.41,1.41,0,0,1-.42-1.05V340.13c0-3.07-.74-5.47-2.24-7.18a8.09,8.09,0,0,0-6.41-2.56,8.56,8.56,0,0,0-6.54,2.6,10,10,0,0,0-2.43,7.14v17.76a1.41,1.41,0,0,1-.42,1.05,1.43,1.43,0,0,1-1.06.42h-2.94A1.43,1.43,0,0,1,291,358.94Z"/></g></g></svg>