<svg xmlns="http://www.w3.org/2000/svg" role="img" viewBox="24.95 34.45 249.60 80.85"><style>svg {enable-background:new 0 0 300 150}</style><style>.st13{fill:#1a3853}</style><linearGradient id="SVGID_1_" x1="66.04" x2="93.394" y1="73.382" y2="73.382" gradientUnits="userSpaceOnUse"><stop offset=".238" stop-color="#3bb05e"/><stop offset=".918" stop-color="#237d86"/></linearGradient><path fill="url(#SVGID_1_)" d="M93.39 73.38c0 .33-.01.66-.04.98-.01.09-.01.18-.02.27-.01.06-.01.13-.02.19l-.03.24c-.01.06-.02.13-.03.19-.01.1-.03.21-.04.31v.01c-.02.13-.04.26-.07.38-1.41-6.06-6.83-10.58-13.32-10.58h-.35c-.09 0-.18 0-.27.01h-.03c-3.71.24-6.72 3.17-7.2 6.93-.04.34-.07.7-.07 1.05 0 4.42 3.47 8 7.75 8 3.94 0 7.19-3.04 7.68-6.97.58 1.21.91 2.57.91 4 0 3.51-1.95 6.56-4.82 8.14-1.18.33-2.42.51-3.7.51-2.71 0-5.24-.79-7.36-2.15-3.38-2.16-5.74-5.77-6.22-9.95-.02-.13-.03-.26-.04-.39l-.03-.36v-.04c-.01-.13-.01-.26-.02-.38 0-.13-.01-.26-.01-.4 0-7.55 6.12-13.68 13.68-13.68 7.55.01 13.67 6.14 13.67 13.69z"/><linearGradient id="SVGID_2_" x1="69.151" x2="79.389" y1="63.688" y2="81.42" gradientUnits="userSpaceOnUse"><stop offset=".238" stop-color="#3bb05e"/><stop offset=".918" stop-color="#237d86"/></linearGradient><path fill="url(#SVGID_2_)" d="M79.45 81.38c-6.4-.04-11.75-4.48-13.2-10.44.87-4.83 4.27-8.78 8.79-10.42-2.41 1.73-3.97 4.55-3.97 7.74 0 1.45.32 2.83.9 4.06v.01c-.04.34-.07.7-.07 1.05.01 4.35 3.37 7.89 7.55 8z"/><linearGradient id="SVGID_3_" x1="79.75" x2="93.147" y1="75.966" y2="75.966" gradientUnits="userSpaceOnUse"><stop offset="0" stop-color="#13576e"/><stop offset=".882" stop-color="#237d86"/></linearGradient><path fill="url(#SVGID_3_)" d="M93.15 75.96c-.97 5.11-4.78 9.21-9.73 10.59 2.88-1.57 4.82-4.63 4.82-8.14 0-1.43-.33-2.79-.91-4 .04-.34.06-.68.06-1.03 0-4.39-3.42-7.95-7.65-8h.08c6.49 0 11.92 4.52 13.33 10.58z"/><linearGradient id="SVGID_4_" x1="39.176" x2="54.917" y1="79.083" y2="79.083" gradientUnits="userSpaceOnUse"><stop offset="0" stop-color="#3bb05e"/><stop offset=".607" stop-color="#237d86"/></linearGradient><path fill="url(#SVGID_4_)" fill-rule="evenodd" d="M41.56 70.55c-5.11 4.5-2.6 10.5 13.36 17.07-1.82-3.01-3.41-6.2-4.75-9.55-4.91-2.66-7.64-5.19-8.61-7.52z" clip-rule="evenodd"/><linearGradient id="SVGID_5_" x1="46.483" x2="128.855" y1="86.127" y2="86.127" gradientUnits="userSpaceOnUse"><stop offset=".238" stop-color="#3bb05e"/><stop offset=".918" stop-color="#237d86"/></linearGradient><path fill="url(#SVGID_5_)" fill-rule="evenodd" d="M124.05 66.82c10.55 10.9-3.86 21.5-23.69 26.14-6.59 1.52-13.76 2.39-20.81 2.39-12.22 0-22.13-9.91-22.13-22.13 0-4.22 1.18-8.17 3.24-11.53-5.5.95-10.35 2.3-14.18 3.97 4.07 19.85 15.27 35.57 33.07 44.9 5.86-3.07 11-6.84 15.41-11.21-5.11.51-10.44.48-15.41-.09 6.63 0 13.41-.82 19.86-2.37 21.55-5.15 37.97-17.74 24.64-30.07z" clip-rule="evenodd"/><linearGradient id="SVGID_6_" x1="57.423" x2="125.51" y1="78.518" y2="78.518" gradientUnits="userSpaceOnUse"><stop offset=".238" stop-color="#3bb05e"/><stop offset=".918" stop-color="#237d86"/></linearGradient><path fill="url(#SVGID_6_)" fill-rule="evenodd" d="M79.55 94.78c-11.91 0-21.56-9.65-21.56-21.56 0-4.08 1.13-7.9 3.11-11.16l-.44-.37c-2.05 3.36-3.24 7.3-3.24 11.53 0 12.22 9.91 22.13 22.13 22.13 7.05 0 14.22-.86 20.81-2.39 11.43-2.68 21.07-7.33 25.15-12.89-6.72 8.48-26.8 14.71-45.96 14.71z" clip-rule="evenodd"/><radialGradient id="SVGID_7_" cx="499.588" cy="-93.911" r="4.792" gradientTransform="translate(-936.817 261.857) scale(1.9816)" gradientUnits="userSpaceOnUse"><stop offset=".238" stop-color="#3bb05e"/><stop offset=".918" stop-color="#237d86"/></radialGradient><path fill="url(#SVGID_7_)" fill-rule="evenodd" d="M54.92 87.62c-5.4-11.27-5.49-20.16 4.36-23.27.06-.15.13-.29.2-.44-4.91.87-9.23 2.05-12.61 3.49 1.68 7.37 4.37 14.15 8.05 20.22z" clip-rule="evenodd"/><linearGradient id="SVGID_8_" x1="37.456" x2="60.66" y1="75.421" y2="75.421" gradientUnits="userSpaceOnUse"><stop offset=".212" stop-color="#3bb05e"/><stop offset=".709" stop-color="#237d86"/><stop offset="1" stop-color="#13576e"/></linearGradient><path fill="url(#SVGID_8_)" fill-rule="evenodd" d="M55.88 89.15c-.33-.5-.65-1.02-.96-1.53-20.04-8.25-18.87-15.59-8.06-20.22 3.38-1.45 7.7-2.63 12.61-3.49.35-.76.75-1.5 1.19-2.22-5.5.95-10.35 2.3-14.18 3.97-12.68 5.52-14.07 14.49 9.4 23.49z" clip-rule="evenodd"/><linearGradient id="SVGID_9_" x1="111.608" x2="119.923" y1="69.554" y2="69.554" gradientUnits="userSpaceOnUse"><stop offset="0" stop-color="#13576e"/><stop offset=".882" stop-color="#237d86"/></linearGradient><path fill="url(#SVGID_9_)" fill-rule="evenodd" d="M113.08 63.22c-.4 2.3-.89 4.54-1.47 6.73 3.25 2.08 5.15 4.07 5.93 5.94 3.94-3.48 3.35-7.84-4.46-12.67z" clip-rule="evenodd"/><linearGradient id="SVGID_10_" x1="30" x2="114.344" y1="62.092" y2="62.092" gradientUnits="userSpaceOnUse"><stop offset=".238" stop-color="#3bb05e"/><stop offset=".918" stop-color="#237d86"/></linearGradient><path fill="url(#SVGID_10_)" fill-rule="evenodd" d="M44.75 47.77c0 1.25.02 2.49.06 3.72 10.97-3.7 22.59-4.97 34.73-4.3-12.17 0-25.01 2.87-34.56 7.39-13.32 6.29-20.27 15.77-10.18 25.11-7.99-8.25-1.67-16.33 10.47-21.79 9.28-4.17 21.97-6.8 34.27-6.8 12.22 0 22.13 9.91 22.13 22.13 0 4.22-1.18 8.17-3.24 11.53 3-.52 5.8-1.15 8.36-1.9 5.01-10.15 7.57-22 7.55-35.08-23.11-11.11-46.48-11.13-69.59-.01z" clip-rule="evenodd"/><linearGradient id="SVGID_11_" x1="31.921" x2="101.675" y1="67.92" y2="67.92" gradientUnits="userSpaceOnUse"><stop offset=".238" stop-color="#3bb05e"/><stop offset=".918" stop-color="#237d86"/></linearGradient><path fill="url(#SVGID_11_)" fill-rule="evenodd" d="M79.55 51.09c-12.3 0-24.99 2.63-34.27 6.8-6.7 3.01-11.63 6.82-13.36 11.02 4.4-9.74 26.61-17.25 47.63-17.25 11.91 0 21.56 9.65 21.56 21.56 0 4.08-1.13 7.89-3.1 11.14l.43.39c2.05-3.36 3.24-7.3 3.24-11.53 0-12.22-9.91-22.13-22.13-22.13z" clip-rule="evenodd"/><linearGradient id="SVGID_12_" x1="116.118" x2="99.738" y1="66.26" y2="82.64" gradientUnits="userSpaceOnUse"><stop offset=".238" stop-color="#2c758c"/><stop offset=".918" stop-color="#144a62"/></linearGradient><path fill="url(#SVGID_12_)" fill-rule="evenodd" d="M99.98 81.72c-.11.27-.23.54-.36.81 2.98-.52 5.75-1.17 8.22-1.92 2.41-5.37 4.16-11.19 5.23-17.39-2.22 9.38-6.4 16.43-13.09 18.5z" clip-rule="evenodd"/><linearGradient id="SVGID_13_" x1="98.439" x2="121.643" y1="73.354" y2="73.354" gradientUnits="userSpaceOnUse"><stop offset=".212" stop-color="#3bb05e"/><stop offset=".709" stop-color="#237d86"/><stop offset="1" stop-color="#13576e"/></linearGradient><path fill="url(#SVGID_13_)" fill-rule="evenodd" d="M113.28 61.96c-.07.42-.13.84-.21 1.26 11.95 7.4 7 13.69-5.23 17.39-2.47.75-5.24 1.39-8.22 1.92-.36.76-.75 1.5-1.19 2.22 3-.52 5.8-1.15 8.36-1.9 14.95-4.35 21.16-12.33 6.49-20.89z" clip-rule="evenodd"/><g><path d="M182.99 54.01h20.22v3.04h2.61v-5.64h-11.68v-3.66h-2.44v3.66h-11.31v5.64h2.6z" class="st13"/><path d="M183.4 67.64l8.13 3.71c-2.81 1.61-6.67 2.83-11.99 3.07l.12 2.6c6.74-.3 11.41-2.11 14.65-4.4l9.89 4.52.97-2.42-8.58-4c3.61-3.52 4.64-7.44 4.9-8.81h5.15v-2.6H191.1l1.64-2.96-2.24-1.33-2.41 4.29h-8.89v2.6h7.43l-3.23 5.73zm6.25-5.72h9.18c-.36 1.56-1.45 4.83-4.75 7.65l-6.89-3.21 2.46-4.44zm-17.71-11.7h2.44v5.21h-2.44z" class="st13"/><path d="M149.9709 53.16356l1.80735-.47995 1.20374 4.5329-1.80736.47995z" class="st13"/><path d="M156.53453 57.20074l1.25631-4.73621 1.8075.47945-1.25632 4.73621z" class="st13"/><path d="M161.67 75.9l2.16 1.46c2.53-3.75 4.07-7.51 5-10.9.82 3.18 2.21 6.74 4.62 10.83l2.24-1.32c-3.86-6.58-5.05-11.56-5.38-15.92h5.2v-2.44h-5.31c-.01-.39-.01-.78-.01-1.16l.04-8.69h-.04v-.01H169l-1.3-.01-.04 8.7c0 .35-.01.75-.02 1.16h-4.01v2.44h3.83c-.46 4.23-1.87 10.07-5.79 15.86zm79.92-9.55l1.09 2.18 3.36-1.68v5.61c0 1.08-.88 1.96-1.96 1.96h-1.45v2.6h1.45c2.52 0 4.56-2.05 4.56-4.56v-6.91l2.91-1.45-1.09-2.18-1.82.91v-4.92h2.09v-2.44h-2.09v-7.12h-2.6v7.12h-3.91v2.44h3.91v6.22l-4.45 2.22zm21.03 4.5c5.08-4.94 5.87-9.61 5.91-9.9l.23-1.5h-16.51v2.6h.39c.6 2.81 2.85 6.01 5.97 8.84-1.95 1.51-4.41 3-7.52 4.33l1.02 2.39c3.55-1.52 6.34-3.25 8.53-5.02 2.57 1.97 5.51 3.64 8.5 4.69l.86-2.46c-2.57-.89-5.12-2.31-7.38-3.97zm-2.04-1.64c-2.64-2.32-4.62-4.89-5.28-7.15h10.23c-.59 1.61-1.96 4.32-4.95 7.15z" class="st13"/><path d="M259.41 59.45h2.6v-3.98h7.75v-2.44h-7.75v-5.22h-2.6v5.22h-7.81v2.44h7.81zM149.92 71.5l-2.48.11-.76 4.83 2.4.37zm1.83 4.94l2.42-.37-.53-4.74-2.37.11zm4.05-.64l2.35-.35-.42-4.32-2.38.11zm3.6-4.73l.45 4.02 2.16-.24-.39-3.89zm3.35-4.07l-6.75.31v-1.96h6.17v-2.22H156V61.2h6.17V48.31h-14.94V61.2h6.17v1.93h-6.13v2.22h6.13v2.08l-6.92.32v2.44l16.26-.75V67zM156 50.6h4.24v8.31H156V50.6zm-2.6 8.31h-4.24V50.6h4.24v8.31zm69.39 8l-4.03-5.89-.6.41v-1.81h4.93v-2.6h-4.93v-4.99c3.07-.91 5.04-1.9 5.14-1.97l-1.42-1.98c-.04.03-5.02 2.46-11.27 2.94l.24 2.43c1.68-.15 3.26-.41 4.7-.73v4.31h-4.82v2.6h4.61c-1.12 6.32-5.85 11.77-5.9 11.83l1.83 1.62c.16-.18 2.43-2.79 4.29-6.56V77h2.6V64.46l2.61 3.82 2.02-1.37z" class="st13"/><path d="M226.00208 53.43294l2.0326-1.62127 3.94717 4.94861-2.0326 1.62127z" class="st13"/><path d="M224.44576 61.07902l1.93439-1.73727 4.2296 4.7095-1.9344 1.73727z" class="st13"/><path d="M238.47 66.82l-2.56.16V47.75h-2.6v19.4l-10.13.64v2.61l10.13-.65v7.38h2.6v-7.54l2.56-.16zm-82.14 33.34l-4.68-18.38h-3.86v22h2.91v-13.9l3.37 13.2h4.54l3.23-13v13.7h2.92v-22h-3.86zm21.74-11.51h-5.28c-2.38 0-4.31 1.93-4.31 4.31v10.82h9.59c2.38 0 4.31-1.93 4.31-4.31v-6.51c.01-2.37-1.93-4.31-4.31-4.31zm1.4 10.82c0 .77-.63 1.4-1.4 1.4h-6.68v-7.9c0-.77.63-1.4 1.4-1.4h5.28c.77 0 1.4.63 1.4 1.4v6.5zm31.92-10.82h-7.1c-1.88 0-3.4 1.52-3.4 3.4v11.73h13.9v-2.92H203.8v-2.93h10.99v-5.88c0-1.87-1.52-3.4-3.4-3.4zm.49 6.37h-8.07v-2.96c0-.27.22-.49.49-.49h7.1c.27 0 .49.22.49.49v2.96zm35.17-6.37h-7.1c-1.88 0-3.4 1.52-3.4 3.4v11.73h13.9v-2.92h-10.99v-2.93h10.99v-5.88c0-1.87-1.52-3.4-3.4-3.4zm.48 6.37h-8.07v-2.96c0-.27.22-.49.49-.49h7.1c.27 0 .49.22.49.49v2.96zm7.07-2.92v11.68h13.9v-2.92h-10.99V92.1c0-.29.24-.53.53-.53h10.46v-2.92h-10.46c-1.9 0-3.44 1.55-3.44 3.45zm-25.4-.06h-7.67v-5.33c0-.28.23-.51.51-.51h10.32v-2.92h-10.32c-1.89 0-3.42 1.54-3.42 3.42v8.24h10.58c.27 0 .49.22.49.49v5.35h-11.07v2.92h13.98v-8.26c.01-1.87-1.52-3.4-3.4-3.4zm-40.52.45v-3.84h-2.92v15.14h2.92v-4.04c0-4.21 3.42-7.63 7.63-7.63h1.46V89.2h-1.46c-3.01.01-5.71 1.27-7.63 3.29z" class="st13"/></g></svg>