<?xml version="1.0" encoding="utf-8"?>
<!-- Generator: Adobe Illustrator 25.2.0, SVG Export Plug-In . SVG Version: 6.00 Build 0)  -->
<svg version="1.1" id="图层_1" xmlns="http://www.w3.org/2000/svg" xmlns:xlink="http://www.w3.org/1999/xlink" x="0px" y="0px"
	 viewBox="0 0 300 150" style="enable-background:new 0 0 300 150;" xml:space="preserve">
<style type="text/css">
	.st0{fill:url(#SVGID_1_);}
	.st1{fill:url(#SVGID_2_);}
	.st2{fill:url(#SVGID_3_);}
	.st3{fill-rule:evenodd;clip-rule:evenodd;fill:url(#SVGID_4_);}
	.st4{fill-rule:evenodd;clip-rule:evenodd;fill:url(#SVGID_5_);}
	.st5{fill-rule:evenodd;clip-rule:evenodd;fill:url(#SVGID_6_);}
	.st6{fill-rule:evenodd;clip-rule:evenodd;fill:url(#SVGID_7_);}
	.st7{fill-rule:evenodd;clip-rule:evenodd;fill:url(#SVGID_8_);}
	.st8{fill-rule:evenodd;clip-rule:evenodd;fill:url(#SVGID_9_);}
	.st9{fill-rule:evenodd;clip-rule:evenodd;fill:url(#SVGID_10_);}
	.st10{fill-rule:evenodd;clip-rule:evenodd;fill:url(#SVGID_11_);}
	.st11{fill-rule:evenodd;clip-rule:evenodd;fill:url(#SVGID_12_);}
	.st12{fill-rule:evenodd;clip-rule:evenodd;fill:url(#SVGID_13_);}
	.st13{fill:#1A3853;}
</style>
<g>
	<g>
		<g>
			<g>
				<g>
					<linearGradient id="SVGID_1_" gradientUnits="userSpaceOnUse" x1="66.0404" y1="73.3816" x2="93.3939" y2="73.3816">
						<stop  offset="0.2385" style="stop-color:#3BB05E"/>
						<stop  offset="0.9184" style="stop-color:#237D86"/>
					</linearGradient>
					<path class="st0" d="M93.39,73.38c0,0.33-0.01,0.66-0.04,0.98c-0.01,0.09-0.01,0.18-0.02,0.27c-0.01,0.06-0.01,0.13-0.02,0.19
						c-0.01,0.08-0.02,0.16-0.03,0.24c-0.01,0.06-0.02,0.13-0.03,0.19c-0.01,0.1-0.03,0.21-0.04,0.31c0,0,0,0,0,0.01
						c-0.02,0.13-0.04,0.26-0.07,0.38c-1.41-6.06-6.83-10.58-13.32-10.58h-0.17c-0.03,0-0.06,0-0.09,0c-0.03,0-0.06,0-0.09,0
						c-0.09,0-0.18,0-0.27,0.01c-0.01,0-0.02,0-0.03,0c-3.71,0.24-6.72,3.17-7.2,6.93c-0.04,0.34-0.07,0.7-0.07,1.05
						c0,4.42,3.47,8,7.75,8c3.94,0,7.19-3.04,7.68-6.97c0.58,1.21,0.91,2.57,0.91,4c0,3.51-1.95,6.56-4.82,8.14
						c-1.18,0.33-2.42,0.51-3.7,0.51c-2.71,0-5.24-0.79-7.36-2.15c-3.38-2.16-5.74-5.77-6.22-9.95c-0.02-0.13-0.03-0.26-0.04-0.39
						c-0.01-0.12-0.02-0.24-0.03-0.36c0-0.02,0-0.03,0-0.04c-0.01-0.13-0.01-0.26-0.02-0.38c0-0.13-0.01-0.26-0.01-0.4
						c0-7.55,6.12-13.68,13.68-13.68C87.27,59.7,93.39,65.83,93.39,73.38z"/>
					<linearGradient id="SVGID_2_" gradientUnits="userSpaceOnUse" x1="69.1511" y1="63.6879" x2="79.3888" y2="81.4201">
						<stop  offset="0.2385" style="stop-color:#3BB05E"/>
						<stop  offset="0.9184" style="stop-color:#237D86"/>
					</linearGradient>
					<path class="st1" d="M79.45,81.38c-6.4-0.04-11.75-4.48-13.2-10.44c0.87-4.83,4.27-8.78,8.79-10.42
						c-2.41,1.73-3.97,4.55-3.97,7.74c0,1.45,0.32,2.83,0.9,4.06c0,0,0,0.01,0,0.01c-0.04,0.34-0.07,0.7-0.07,1.05
						C71.91,77.73,75.27,81.27,79.45,81.38z"/>
					<linearGradient id="SVGID_3_" gradientUnits="userSpaceOnUse" x1="79.7501" y1="75.9659" x2="93.1473" y2="75.9659">
						<stop  offset="0" style="stop-color:#13576E"/>
						<stop  offset="0.8818" style="stop-color:#237D86"/>
					</linearGradient>
					<path class="st2" d="M93.15,75.96c-0.97,5.11-4.78,9.21-9.73,10.59c2.88-1.57,4.82-4.63,4.82-8.14c0-1.43-0.33-2.79-0.91-4
						c0.04-0.34,0.06-0.68,0.06-1.03c0-4.39-3.42-7.95-7.65-8h0.08C86.31,65.38,91.74,69.9,93.15,75.96z"/>
				</g>
				<linearGradient id="SVGID_4_" gradientUnits="userSpaceOnUse" x1="39.1756" y1="79.0829" x2="54.9171" y2="79.0829">
					<stop  offset="0" style="stop-color:#3BB05E"/>
					<stop  offset="0.6071" style="stop-color:#237D86"/>
				</linearGradient>
				<path class="st3" d="M41.56,70.55c-5.11,4.5-2.6,10.5,13.36,17.07c-1.82-3.01-3.41-6.2-4.75-9.55
					C45.26,75.41,42.53,72.88,41.56,70.55z"/>
				<linearGradient id="SVGID_5_" gradientUnits="userSpaceOnUse" x1="46.4832" y1="86.1267" x2="128.8551" y2="86.1267">
					<stop  offset="0.2385" style="stop-color:#3BB05E"/>
					<stop  offset="0.9184" style="stop-color:#237D86"/>
				</linearGradient>
				<path class="st4" d="M124.05,66.82c10.55,10.9-3.86,21.5-23.69,26.14c-6.59,1.52-13.76,2.39-20.81,2.39
					c-12.22,0-22.13-9.91-22.13-22.13c0-4.22,1.18-8.17,3.24-11.53c-5.5,0.95-10.35,2.3-14.18,3.97
					c4.07,19.85,15.27,35.57,33.07,44.9c5.86-3.07,11-6.84,15.41-11.21c-5.11,0.51-10.44,0.48-15.41-0.09
					c6.63,0,13.41-0.82,19.86-2.37C120.96,91.74,137.38,79.15,124.05,66.82z"/>
				<linearGradient id="SVGID_6_" gradientUnits="userSpaceOnUse" x1="57.4235" y1="78.5182" x2="125.5095" y2="78.5182">
					<stop  offset="0.2385" style="stop-color:#3BB05E"/>
					<stop  offset="0.9184" style="stop-color:#237D86"/>
				</linearGradient>
				<path class="st5" d="M79.55,94.78c-11.91,0-21.56-9.65-21.56-21.56c0-4.08,1.13-7.9,3.11-11.16l-0.44-0.37
					c-2.05,3.36-3.24,7.3-3.24,11.53c0,12.22,9.91,22.13,22.13,22.13c7.05,0,14.22-0.86,20.81-2.39
					c11.43-2.68,21.07-7.33,25.15-12.89C118.79,88.55,98.71,94.78,79.55,94.78z"/>
				
					<radialGradient id="SVGID_7_" cx="499.5878" cy="-93.9108" r="4.7915" gradientTransform="matrix(1.9816 0 0 1.9816 -936.8166 261.857)" gradientUnits="userSpaceOnUse">
					<stop  offset="0.2385" style="stop-color:#3BB05E"/>
					<stop  offset="0.9184" style="stop-color:#237D86"/>
				</radialGradient>
				<path class="st6" d="M54.92,87.62c-5.4-11.27-5.49-20.16,4.36-23.27c0.06-0.15,0.13-0.29,0.2-0.44
					c-4.91,0.87-9.23,2.05-12.61,3.49C48.55,74.77,51.24,81.55,54.92,87.62z"/>
				<linearGradient id="SVGID_8_" gradientUnits="userSpaceOnUse" x1="37.4556" y1="75.421" x2="60.6598" y2="75.421">
					<stop  offset="0.2122" style="stop-color:#3BB05E"/>
					<stop  offset="0.709" style="stop-color:#237D86"/>
					<stop  offset="1" style="stop-color:#13576E"/>
				</linearGradient>
				<path class="st7" d="M55.88,89.15c-0.33-0.5-0.65-1.02-0.96-1.53c-20.04-8.25-18.87-15.59-8.06-20.22
					c3.38-1.45,7.7-2.63,12.61-3.49c0.35-0.76,0.75-1.5,1.19-2.22c-5.5,0.95-10.35,2.3-14.18,3.97
					C33.8,71.18,32.41,80.15,55.88,89.15z"/>
				<linearGradient id="SVGID_9_" gradientUnits="userSpaceOnUse" x1="111.608" y1="69.5543" x2="119.9231" y2="69.5543">
					<stop  offset="0" style="stop-color:#13576E"/>
					<stop  offset="0.8818" style="stop-color:#237D86"/>
				</linearGradient>
				<path class="st8" d="M113.08,63.22c-0.4,2.3-0.89,4.54-1.47,6.73c3.25,2.08,5.15,4.07,5.93,5.94
					C121.48,72.41,120.89,68.05,113.08,63.22z"/>
				<linearGradient id="SVGID_10_" gradientUnits="userSpaceOnUse" x1="30" y1="62.0923" x2="114.3445" y2="62.0923">
					<stop  offset="0.2385" style="stop-color:#3BB05E"/>
					<stop  offset="0.9184" style="stop-color:#237D86"/>
				</linearGradient>
				<path class="st9" d="M44.75,47.77c0,1.25,0.02,2.49,0.06,3.72c10.97-3.7,22.59-4.97,34.73-4.3c-12.17,0-25.01,2.87-34.56,7.39
					c-13.32,6.29-20.27,15.77-10.18,25.11c-7.99-8.25-1.67-16.33,10.47-21.79c9.28-4.17,21.97-6.8,34.27-6.8
					c12.22,0,22.13,9.91,22.13,22.13c0,4.22-1.18,8.17-3.24,11.53c3-0.52,5.8-1.15,8.36-1.9c5.01-10.15,7.57-22,7.55-35.08
					C91.23,36.67,67.86,36.65,44.75,47.77z"/>
				<linearGradient id="SVGID_11_" gradientUnits="userSpaceOnUse" x1="31.921" y1="67.92" x2="101.6751" y2="67.92">
					<stop  offset="0.2385" style="stop-color:#3BB05E"/>
					<stop  offset="0.9184" style="stop-color:#237D86"/>
				</linearGradient>
				<path class="st10" d="M79.55,51.09c-12.3,0-24.99,2.63-34.27,6.8c-6.7,3.01-11.63,6.82-13.36,11.02
					c4.4-9.74,26.61-17.25,47.63-17.25c11.91,0,21.56,9.65,21.56,21.56c0,4.08-1.13,7.89-3.1,11.14l0.43,0.39
					c2.05-3.36,3.24-7.3,3.24-11.53C101.68,61,91.77,51.09,79.55,51.09z"/>
				<linearGradient id="SVGID_12_" gradientUnits="userSpaceOnUse" x1="116.1178" y1="66.2602" x2="99.7381" y2="82.6399">
					<stop  offset="0.2385" style="stop-color:#2C758C"/>
					<stop  offset="0.9184" style="stop-color:#144A62"/>
				</linearGradient>
				<path class="st11" d="M99.98,81.72c-0.11,0.27-0.23,0.54-0.36,0.81c2.98-0.52,5.75-1.17,8.22-1.92
					c2.41-5.37,4.16-11.19,5.23-17.39C110.85,72.6,106.67,79.65,99.98,81.72z"/>
				<linearGradient id="SVGID_13_" gradientUnits="userSpaceOnUse" x1="98.4386" y1="73.3542" x2="121.6429" y2="73.3542">
					<stop  offset="0.2122" style="stop-color:#3BB05E"/>
					<stop  offset="0.709" style="stop-color:#237D86"/>
					<stop  offset="1" style="stop-color:#13576E"/>
				</linearGradient>
				<path class="st12" d="M113.28,61.96c-0.07,0.42-0.13,0.84-0.21,1.26c11.95,7.4,7,13.69-5.23,17.39
					c-2.47,0.75-5.24,1.39-8.22,1.92c-0.36,0.76-0.75,1.5-1.19,2.22c3-0.52,5.8-1.15,8.36-1.9
					C121.74,78.5,127.95,70.52,113.28,61.96z"/>
			</g>
		</g>
	</g>
	<g>
		<polygon class="st13" points="182.99,54.01 203.21,54.01 203.21,57.05 205.82,57.05 205.82,51.41 194.14,51.41 194.14,47.75 
			191.7,47.75 191.7,51.41 180.39,51.41 180.39,57.05 182.99,57.05 		"/>
		<path class="st13" d="M183.4,67.64l8.13,3.71c-2.81,1.61-6.67,2.83-11.99,3.07l0.12,2.6c6.74-0.3,11.41-2.11,14.65-4.4l9.89,4.52
			l0.97-2.42l-8.58-4c3.61-3.52,4.64-7.44,4.9-8.81h5.15v-2.6H191.1l1.64-2.96l-2.24-1.33l-2.41,4.29h-8.89v2.6h7.43L183.4,67.64z
			 M189.65,61.92h9.18c-0.36,1.56-1.45,4.83-4.75,7.65l-6.89-3.21L189.65,61.92z"/>
		<rect x="171.94" y="50.22" class="st13" width="2.44" height="5.21"/>
		
			<rect x="150.54" y="52.84" transform="matrix(0.9665 -0.2567 0.2567 0.9665 -9.0902 40.7375)" class="st13" width="1.87" height="4.69"/>
		
			<rect x="155.62" y="54.15" transform="matrix(0.2564 -0.9666 0.9666 0.2564 64.2966 193.741)" class="st13" width="4.9" height="1.87"/>
		<path class="st13" d="M161.67,75.9l2.16,1.46c2.53-3.75,4.07-7.51,5-10.9c0.82,3.18,2.21,6.74,4.62,10.83l2.24-1.32
			c-3.86-6.58-5.05-11.56-5.38-15.92h5.2v-2.44h-5.31c-0.01-0.39-0.01-0.78-0.01-1.16l0.04-8.69l-0.04,0v-0.01H169l-1.3-0.01
			l-0.04,8.7c0,0.35-0.01,0.75-0.02,1.16h-4.01v2.44h3.83C167,64.27,165.59,70.11,161.67,75.9z"/>
		<path class="st13" d="M241.59,66.35l1.09,2.18l3.36-1.68v5.61c0,1.08-0.88,1.96-1.96,1.96h-1.45v2.6h1.45
			c2.52,0,4.56-2.05,4.56-4.56v-6.91l2.91-1.45l-1.09-2.18l-1.82,0.91v-4.92h2.09v-2.44h-2.09v-7.12h-2.6v7.12h-3.91v2.44h3.91v6.22
			L241.59,66.35z"/>
		<path class="st13" d="M262.62,70.85c5.08-4.94,5.87-9.61,5.91-9.9l0.23-1.5h-16.51v2.6h0.39c0.6,2.81,2.85,6.01,5.97,8.84
			c-1.95,1.51-4.41,3-7.52,4.33l1.02,2.39c3.55-1.52,6.34-3.25,8.53-5.02c2.57,1.97,5.51,3.64,8.5,4.69l0.86-2.46
			C267.43,73.93,264.88,72.51,262.62,70.85z M260.58,69.21c-2.64-2.32-4.62-4.89-5.28-7.15h10.23
			C264.94,63.67,263.57,66.38,260.58,69.21z"/>
		<polygon class="st13" points="259.41,59.45 262.01,59.45 262.01,55.47 269.76,55.47 269.76,53.03 262.01,53.03 262.01,47.81 
			259.41,47.81 259.41,53.03 251.6,53.03 251.6,55.47 259.41,55.47 		"/>
		<polygon class="st13" points="149.92,71.5 147.44,71.61 146.68,76.44 149.08,76.81 		"/>
		<polygon class="st13" points="151.75,76.44 154.17,76.07 153.64,71.33 151.27,71.44 		"/>
		<polygon class="st13" points="155.8,75.8 158.15,75.45 157.73,71.13 155.35,71.24 		"/>
		<polygon class="st13" points="159.4,71.07 159.85,75.09 162.01,74.85 161.62,70.96 		"/>
		<path class="st13" d="M162.75,67L156,67.31v-1.96h6.17v-2.22H156V61.2h6.17V48.31h-14.94V61.2h6.17v1.93h-6.13v2.22h6.13v2.08
			l-6.92,0.32v2.44l16.26-0.75V67z M156,50.6h4.24v8.31H156V50.6z M153.4,58.91h-4.24V50.6h4.24V58.91z"/>
		<path class="st13" d="M222.79,66.91l-4.03-5.89l-0.6,0.41v-1.81h4.93v-2.6h-4.93v-4.99c3.07-0.91,5.04-1.9,5.14-1.97l-1.42-1.98
			c-0.04,0.03-5.02,2.46-11.27,2.94l0.24,2.43c1.68-0.15,3.26-0.41,4.7-0.73v4.31h-4.82v2.6h4.61c-1.12,6.32-5.85,11.77-5.9,11.83
			l1.83,1.62c0.16-0.18,2.43-2.79,4.29-6.56v10.48h2.6V64.46l2.61,3.82L222.79,66.91z"/>
		
			<rect x="227.69" y="51.94" transform="matrix(0.7818 -0.6236 0.6236 0.7818 15.6141 154.816)" class="st13" width="2.6" height="6.33"/>
		
			<rect x="226.23" y="59.41" transform="matrix(0.744 -0.6682 0.6682 0.744 16.4328 168.0451)" class="st13" width="2.6" height="6.33"/>
		<polygon class="st13" points="238.47,66.82 235.91,66.98 235.91,47.75 233.31,47.75 233.31,67.15 223.18,67.79 223.18,70.39 
			223.18,70.4 233.31,69.75 233.31,77.13 235.91,77.13 235.91,69.59 238.47,69.43 		"/>
		<polygon class="st13" points="156.33,100.16 151.65,81.78 147.79,81.78 147.79,103.78 150.7,103.78 150.7,89.88 154.07,103.08 
			158.61,103.08 161.84,90.08 161.84,103.78 164.76,103.78 164.76,81.78 160.9,81.78 		"/>
		<path class="st13" d="M178.07,88.65h-5.28c-2.38,0-4.31,1.93-4.31,4.31v10.82h9.59c2.38,0,4.31-1.93,4.31-4.31v-6.51
			C182.39,90.59,180.45,88.65,178.07,88.65z M179.47,99.47c0,0.77-0.63,1.4-1.4,1.4h-6.68v-7.9c0-0.77,0.63-1.4,1.4-1.4h5.28
			c0.77,0,1.4,0.63,1.4,1.4V99.47z"/>
		<path class="st13" d="M211.39,88.65h-7.1c-1.88,0-3.4,1.52-3.4,3.4v11.73h13.9v-2.92h-10.99v-2.93h10.99v-5.88
			C214.79,90.18,213.27,88.65,211.39,88.65z M211.88,95.02h-8.07v-2.96c0-0.27,0.22-0.49,0.49-0.49h7.1c0.27,0,0.49,0.22,0.49,0.49
			V95.02z"/>
		<path class="st13" d="M247.05,88.65h-7.1c-1.88,0-3.4,1.52-3.4,3.4v11.73h13.9v-2.92h-10.99v-2.93h10.99v-5.88
			C250.45,90.18,248.93,88.65,247.05,88.65z M247.53,95.02h-8.07v-2.96c0-0.27,0.22-0.49,0.49-0.49h7.1c0.27,0,0.49,0.22,0.49,0.49
			V95.02z"/>
		<path class="st13" d="M254.6,92.1v11.68h13.9v-2.92h-10.99V92.1c0-0.29,0.24-0.53,0.53-0.53h10.46v-2.92h-10.46
			C256.14,88.65,254.6,90.2,254.6,92.1z"/>
		<path class="st13" d="M229.2,92.04h-7.67v-5.33c0-0.28,0.23-0.51,0.51-0.51h10.32v-2.92h-10.32c-1.89,0-3.42,1.54-3.42,3.42v8.24
			h10.58c0.27,0,0.49,0.22,0.49,0.49v5.35h-11.07v2.92h13.98v-8.26C232.61,93.57,231.08,92.04,229.2,92.04z"/>
		<path class="st13" d="M188.68,92.49v-3.84h-2.92v11.1v3.15v0.89h2.92v-0.89v-3.15c0-4.21,3.42-7.63,7.63-7.63h1.46v-2.92h-1.46
			C193.3,89.21,190.6,90.47,188.68,92.49z"/>
	</g>
</g>
</svg>
