<?xml version="1.0" encoding="utf-8"?>
<!-- Generator: Adobe Illustrator 23.0.3, SVG Export Plug-In . SVG Version: 6.00 Build 0)  -->
<svg version="1.1" id="Layer_1" xmlns="http://www.w3.org/2000/svg" xmlns:xlink="http://www.w3.org/1999/xlink" x="0px" y="0px"
	 viewBox="0 0 396.2 31.1" style="enable-background:new 0 0 396.2 31.1;" xml:space="preserve">
<style type="text/css">
	.st0{fill:#2B2B2B;}
</style>
<g>
	<path class="st0" d="M142.1,18.2l-9.6-13.1h-4.6v20.8h4.4V12.4l9.9,13.5h4.3V5.1h-4.4L142.1,18.2z M121,11.8c0-3.9-2.6-6.7-7-6.7
		h-9.7v20.8h4.4v-7.4h3.2l4.1,7.4h5.1l-4.6-7.9C119.3,17.4,121.2,14.7,121,11.8z M113.4,14.7L113.4,14.7l-4.6,0V9h4.6h0.3
		c1.6,0,2.8,1.3,2.8,2.8c0,0.1,0,0.2,0,0.3C116.3,13.7,114.9,14.8,113.4,14.7z M154.2,25.9h4.4V5.1h-4.4V25.9z M0,0v11.7l15.5,15.5
		l15.5-15.5V0L15.5,15.5L0,0z M31.1,31.1V19.4L19.4,31.1H31.1z M57.9,17.7L52.8,5.1h-6.2v20.8H51V11.4l5.9,14.5h1.9l5.9-14.5v14.5
		h4.4V5.1h-6.2L57.9,17.7z M86.8,4.7L86.8,4.7c-6,0-10.9,4.9-10.9,10.9c0,6,4.9,10.9,10.9,10.9c6,0,10.9-4.9,10.9-10.9
		C97.6,9.5,92.8,4.7,86.8,4.7z M93,15.5c0,3.9-2.5,6.8-6.3,6.8s-6.3-2.9-6.3-6.8c0-3.9,2.5-6.8,6.3-6.8S93,11.6,93,15.5L93,15.5z
		 M0,31.1h11.7L0,19.4V31.1z M309.6,10.8L309.6,10.8c0-1.3,1.1-2.1,3-2.1c2.2,0,4.3,0.8,6,2.3l2.5-3.2c-2.2-1.9-5.1-3-8-2.9
		c-4.9,0-7.9,2.9-7.9,6.3c0,7.8,12,5.3,12,9c0,1.2-1.2,2.3-3.6,2.3c-2.5,0-4.9-1-6.6-2.8l-2.4,3.3c2.4,2.3,5.5,3.4,8.8,3.3
		c5.6,0,8.3-2.9,8.3-6.7C321.5,11.8,309.6,14.1,309.6,10.8z M342.4,17.5c0,2.9-1.7,4.9-4.9,4.9c-0.3,0-0.5,0-0.8,0
		c-2.5-0.2-4.3-2.4-4.1-4.9l0,0V5.1h-4.5v12.5c0,5.1,3,8.6,9.4,8.6s9.4-3.5,9.4-8.7V5.1h-4.5V17.5z M359,5.1h-4.4v20.8h13.2V22H359
		V5.1z M180.5,18.2l-9.6-13.1h-4.5v20.8h4.4V12.4l9.9,13.5h4.2V5.1h-4.4V18.2z M370.1,9h6.1v16.9h4.4V9h6V5.1h-16.6V9z M201.6,18.3
		h5.5v2.5c-1.2,1-2.8,1.6-4.4,1.6h-0.4c-3.6-0.2-6.3-3.2-6.1-6.8l0,0c0-0.1,0-0.3,0-0.4c0-3.6,2.9-6.4,6.5-6.4l0,0
		c2,0,3.8,1,4.9,2.7l3.7-2c-1.8-3-5.1-4.8-8.6-4.6c-6.1,0-11.1,4.2-11.1,10.8c0,6.6,5,10.8,11.1,10.8c3.4,0.1,6.6-1.4,8.8-3.9v-8
		h-9.9L201.6,18.3z M293.7,18.2l-9.6-13.1h-4.5v20.8h4.4V12.4l9.9,13.5h4.3V5.1h-4.4L293.7,18.2z M230.7,15.1c0-3.6,3-6.4,6.5-6.4
		c2.1,0,3.9,1.2,4.9,3l3.8-1.9c-1.7-3.2-5.1-5.2-8.7-5.1c-6.2,0-11.1,4.4-11.1,10.8c0,6.4,4.9,10.8,11.1,10.8c3.6,0.1,7-1.9,8.7-5.1
		l-3.8-1.8c-0.9,1.8-2.8,3-4.9,3h-0.4c-3.6-0.2-6.3-3.2-6.1-6.8C230.7,15.4,230.7,15.3,230.7,15.1z M262,4.7L262,4.7L262,4.7
		c-6.1,0-10.9,4.9-10.9,10.9c0,6,4.9,10.9,10.9,10.9c6,0,10.9-4.9,10.9-10.9C272.9,9.6,268.1,4.7,262,4.7z M262,22.4L262,22.4
		c-3.8,0-6.3-2.9-6.3-6.8c0-3.9,2.5-6.8,6.3-6.8s6.3,2.9,6.3,6.8C268.3,19.5,265.8,22.4,262,22.4z M393.6,0c-1.4,0-2.6,1.2-2.6,2.6
		c0,1.4,1.2,2.6,2.6,2.6c1.4,0,2.6-1.2,2.6-2.6C396.2,1.1,395.1,0,393.6,0z M394.9,4.1l-0.8-1.2c0.3-0.1,0.7-0.4,0.7-0.9
		c0-0.5-0.4-1-1-1h-1.3v3h0.6V3h0.4l0.7,1.1L394.9,4.1c-0.4,0.3-0.8,0.5-1.3,0.5c-1.1,0-2-0.9-2-2c0-1.1,0.9-2,2-2c1.1,0,2,0.9,2,2
		C395.6,3.2,395.4,3.7,394.9,4.1z M393.8,2.4h-0.7V1.6h0.7c0.2,0,0.4,0.2,0.4,0.4C394.2,2.2,394,2.4,393.8,2.4z"/>
</g>
</svg>
