<?xml version="1.0" encoding="UTF-8"?> <svg xmlns="http://www.w3.org/2000/svg" id="Laag_1" data-name="Laag 1" viewBox="0 0 400 245"><defs><style>.cls-1{fill:#f9ae21;}.cls-2{fill:#343434;}.cls-3{fill:#5c5b5b;}</style></defs><title>N-Able-spn</title><path class="cls-1" d="M76.83633,60.94275v2.87031c-1.47016-.14-2.94031-.21-4.48048-.21-1.47016,0-3.01033,0-4.48049.14V60.87274a4.40747,4.40747,0,0,1,4.48049-4.41047h.14A4.30791,4.30791,0,0,1,76.83633,60.94275Z"></path><path class="cls-1" d="M115.20047,80.8949l-2.10023,2.03022a53.56616,53.56616,0,0,0-6.23067-6.37069l2.10023-2.03021a4.50136,4.50136,0,0,1,6.30068.07l.07.07A4.48222,4.48222,0,0,1,115.20047,80.8949Z"></path><path class="cls-1" d="M36.792,157.76319l-2.10023,2.03021a4.50137,4.50137,0,0,1-6.30068-.07l-.07-.07a4.50137,4.50137,0,0,1,.07-6.30068l2.10023-2.03022A54.87551,54.87551,0,0,0,36.792,157.76319Z"></path><path class="cls-1" d="M132.63234,117.78887h0a4.423,4.423,0,0,1-4.55049,4.41048h-2.87031c.14-1.47016.21-2.94031.21-4.48048s0-3.01033-.14-4.48049h2.87031a4.57278,4.57278,0,0,1,4.48048,4.55049Z"></path><path class="cls-1" d="M18.24,116.66875c0,1.47016,0,3.01033.14,4.48049H15.50972a4.40747,4.40747,0,0,1-4.41047-4.48049v-.14a4.51311,4.51311,0,0,1,4.55049-4.41048h2.87031A33.08961,33.08961,0,0,0,18.24,116.66875Z"></path><path class="cls-1" d="M114.43038,160.49348h0a4.436,4.436,0,0,1-6.30068,0l-2.03021-2.10023a53.56616,53.56616,0,0,0,6.37069-6.23067l2.03021,2.10023A4.41542,4.41542,0,0,1,114.43038,160.49348Z"></path><path class="cls-1" d="M37.63211,75.85436A53.56541,53.56541,0,0,0,31.26142,82.085L29.2312,79.9848a4.50137,4.50137,0,0,1,.07-6.30068l.07-.07a4.50137,4.50137,0,0,1,6.30068.07Z"></path><path class="cls-1" d="M79.91666,117.22882a8.05117,8.05117,0,1,0-16.10173-.14,8.05139,8.05139,0,0,0,7.98086,8.12088A8.14376,8.14376,0,0,0,79.91666,117.22882Z"></path><path class="cls-1" d="M93.35812,89.78586a33.95558,33.95558,0,0,0-16.73181-7.14077l-.21,21.00226a9.73111,9.73111,0,0,1,1.96021.84009Z"></path><path class="cls-1" d="M78.09647,129.97019a16.30425,16.30425,0,0,1-1.96021.77008l-.21,21.00226a33.9969,33.9969,0,0,0,16.87182-6.79073Z"></path><path class="cls-1" d="M67.2453,130.67026a9.73083,9.73083,0,0,1-1.96021-.84008L50.30347,144.53175a33.95559,33.95559,0,0,0,16.7318,7.14077Z"></path><path class="cls-1" d="M37.28207,112.32829l21.00226.21a9.73111,9.73111,0,0,1,.84009-1.96021L44.42284,95.59648A35.57884,35.57884,0,0,0,37.28207,112.32829Z"></path><path class="cls-1" d="M44.00279,138.16107l14.98162-14.70158a16.30259,16.30259,0,0,1-.77008-1.96021l-21.00227-.21A34.9278,34.9278,0,0,0,44.00279,138.16107Z"></path><path class="cls-1" d="M106.37951,121.98933l-21.00226-.21a9.731,9.731,0,0,1-.84009,1.96022l14.70159,14.98161A35.57875,35.57875,0,0,0,106.37951,121.98933Z"></path><path class="cls-1" d="M67.52533,103.57735l.21-21.00227a33.99691,33.99691,0,0,0-16.87182,6.79074l14.70159,14.98161A16.3036,16.3036,0,0,1,67.52533,103.57735Z"></path><path class="cls-1" d="M67.73535,74.45421l.14-10.78117A53.37254,53.37254,0,0,0,37.63211,75.85436l7.4908,7.70083A42.3912,42.3912,0,0,1,67.73535,74.45421Z"></path><path class="cls-1" d="M29.16119,121.21925l-10.78116-.14c-.14-1.47016-.14-2.94031-.14-4.41048h0c0,1.47016,0,3.01033.14,4.48049A53.17571,53.17571,0,0,0,30.56135,151.3925l7.70083-7.56082A42.39123,42.39123,0,0,1,29.16119,121.21925Z"></path><path class="cls-1" d="M99.65879,96.15655,84.67718,110.85813a16.30375,16.30375,0,0,1,.77008,1.96022l21.00226.21A34.92767,34.92767,0,0,0,99.65879,96.15655Z"></path><path class="cls-1" d="M29.2312,112.25828a42.52759,42.52759,0,0,1,9.591-22.47242L31.26142,82.085A53.03909,53.03909,0,0,0,18.45,112.11826Z"></path><path class="cls-1" d="M125.42156,117.64886c0,1.54017-.07,3.01033-.21,4.48049l-10.78116-.14a42.60331,42.60331,0,0,1-9.591,22.47242l7.56082,7.70083a53.56616,53.56616,0,0,1-6.37069,6.23067l-7.56082-7.70083a43.0576,43.0576,0,0,1-27.09292,9.311,42.58789,42.58789,0,0,1-26.8829-9.80106L36.792,157.76319a53.49065,53.49065,0,0,0,34.51372,13.0214l-.21,17.85193,35.42383-30.5933a57.60264,57.60264,0,0,0,5.88063-5.81062,53.51625,53.51625,0,0,0,12.81138-30.03324c.14-1.47017.21-2.94032.21-4.5505v0Z"></path><path class="cls-1" d="M125.28155,113.23838a53.17579,53.17579,0,0,0-12.18131-30.24326v-.07l-7.70083,7.56081a42.39125,42.39125,0,0,1,9.101,22.61244Z"></path><path class="cls-1" d="M76.69632,74.52422a42.6032,42.6032,0,0,1,22.47241,9.591l7.63082-7.49081A52.70769,52.70769,0,0,0,76.83633,63.74305c-.70007-.07-1.47016-.14-2.24024-.14.77008.07,1.47016.07,2.24024.14Z"></path><path class="cls-2" d="M185.90808,99.79694a16.43439,16.43439,0,0,0-5.74062-3.92042,20.19267,20.19267,0,0,0-7.56082-1.40015,17.01535,17.01535,0,0,0-10.01108,2.73029,19.59128,19.59128,0,0,0-2.87031,2.45026V95.38647h-9.87107v46.275h9.87107V115.40862a12.93383,12.93383,0,0,1,.84009-4.83052,10.1442,10.1442,0,0,1,2.31025-3.64039,10.89078,10.89078,0,0,1,3.50038-2.31025,11.25531,11.25531,0,0,1,4.41047-.84009,11.57784,11.57784,0,0,1,4.41048.77008,7.97179,7.97179,0,0,1,3.08033,2.17024,10.5882,10.5882,0,0,1,1.96021,3.50037,16.36269,16.36269,0,0,1,.70008,4.83052v26.74288h9.87107V113.3784a23.77525,23.77525,0,0,0-1.19014-7.56081A18.16111,18.16111,0,0,0,185.90808,99.79694Z"></path><polygon class="cls-2" points="196.619 120.169 198.369 120.169 223.152 120.169 223.152 109.948 196.619 109.948 196.619 120.169"></polygon><path class="cls-2" d="M262.2163,99.58691a16.86279,16.86279,0,0,0-6.37069-3.64039,27.82744,27.82744,0,0,0-8.33089-1.19013,37.34957,37.34957,0,0,0-8.821.98011,38.611,38.611,0,0,0-7.49081,2.73029l-1.47017.70008,3.08033,8.54092,1.75019-.84009a36.4543,36.4543,0,0,1,5.81062-2.17023,22.79249,22.79249,0,0,1,6.4407-.84009,16.17429,16.17429,0,0,1,4.83052.63007,10.70185,10.70185,0,0,1,3.43036,1.82019,7.38918,7.38918,0,0,1,2.03022,2.94032,11.29163,11.29163,0,0,1,.70007,3.7104c-1.26013-.28-2.59029-.56006-3.92043-.77008a47.41334,47.41334,0,0,0-7.49081-.49005,30.424,30.424,0,0,0-7.84085.9801,19.00874,19.00874,0,0,0-6.3707,2.94032,13.84579,13.84579,0,0,0-5.88065,11.76126,13.26856,13.26856,0,0,0,1.61017,6.72072,15.06307,15.06307,0,0,0,4.13044,4.76052,17.893,17.893,0,0,0,5.67061,2.8003,21.43944,21.43944,0,0,0,6.30068.9101,20.09521,20.09521,0,0,0,10.36111-2.45026,20.5093,20.5093,0,0,0,3.36036-2.38026v3.92042h9.591v-27.863a23.993,23.993,0,0,0-1.26013-8.05087A13.20849,13.20849,0,0,0,262.2163,99.58691Zm-23.24249,22.47243c1.68018-1.26014,4.41047-2.03022,8.19089-2.03022a37.12371,37.12371,0,0,1,6.72073.56006c1.47016.28,2.87031.56006,4.06043.9101v2.8003a7.64224,7.64224,0,0,1-.91009,3.85042,9.1055,9.1055,0,0,1-2.59029,3.08033,12.04339,12.04339,0,0,1-3.99044,2.10023,16.53841,16.53841,0,0,1-5.04055.77008,11.89865,11.89865,0,0,1-3.57039-.49,10.95627,10.95627,0,0,1-2.87031-1.40015,6.9429,6.9429,0,0,1-1.89021-2.17023h0a5.71133,5.71133,0,0,1-.63007-2.80031,6.12336,6.12336,0,0,1,2.5203-5.18056l-1.05011-1.40015Z"></path><path class="cls-2" d="M319.97253,108.40787a23.83589,23.83589,0,0,0-5.04056-7.56082,21.80538,21.80538,0,0,0-7.14077-4.6905,22.0833,22.0833,0,0,0-8.12088-1.61018,20.03939,20.03939,0,0,0-5.95065.8401,21.78509,21.78509,0,0,0-4.83051,2.24023,21.36606,21.36606,0,0,0-3.85042,3.22035V77.74456h-9.87106v63.91689h9.87106V136.5509a19.85633,19.85633,0,0,0,3.78041,3.01033,20.8079,20.8079,0,0,0,4.90052,2.17023,20.3758,20.3758,0,0,0,5.95065.84009,21.25581,21.25581,0,0,0,8.26088-1.68018,23.18965,23.18965,0,0,0,7.14078-4.76051,23.66566,23.66566,0,0,0,4.97054-7.56082h0a25.87064,25.87064,0,0,0,1.89021-10.08108A27.21859,27.21859,0,0,0,319.97253,108.40787ZM311.85167,118.559a17.47955,17.47955,0,0,1-1.05012,6.30068,12.67357,12.67357,0,0,1-2.87031,4.6205,11.36063,11.36063,0,0,1-4.20045,2.8003,14.20085,14.20085,0,0,1-5.18056.98011,12.51154,12.51154,0,0,1-5.04055-1.05012,12.69432,12.69432,0,0,1-4.41046-3.01032,14.01933,14.01933,0,0,1-3.08033-4.69051,15.59346,15.59346,0,0,1-1.12013-6.16066,16.84491,16.84491,0,0,1,1.12013-6.09066,14.43316,14.43316,0,0,1,3.08033-4.62049,16.9985,16.9985,0,0,1,4.41046-3.01033,12.79048,12.79048,0,0,1,10.1511,0,11.71732,11.71732,0,0,1,4.20045,2.94031,14.89675,14.89675,0,0,1,2.94032,4.69051A18.02516,18.02516,0,0,1,311.85167,118.559Z"></path><polygon class="cls-2" points="328.233 141.661 329.984 141.661 338.104 141.661 338.104 77.745 328.233 77.745 328.233 141.661"></polygon><path class="cls-2" d="M386.89976,109.528a23.72853,23.72853,0,0,0-4.20045-7.77084,21.31781,21.31781,0,0,0-6.86073-5.32057,20.71977,20.71977,0,0,0-9.171-1.96021,21.19872,21.19872,0,0,0-8.961,1.8902,21.75745,21.75745,0,0,0-7.07076,5.18056,24.27814,24.27814,0,0,0-4.62051,7.70083,26.1762,26.1762,0,0,0-1.61016,9.381,26.52345,26.52345,0,0,0,1.8202,9.80106,22.00287,22.00287,0,0,0,5.04055,7.63082,23.1158,23.1158,0,0,0,7.35079,4.97054,22.727,22.727,0,0,0,8.961,1.75019,23.66227,23.66227,0,0,0,11.06118-2.38026,26.81733,26.81733,0,0,0,7.84086-6.23067l1.1201-1.33014-6.51069-5.81063L379.89905,128.22a22.72,22.72,0,0,1-5.39059,4.06043,14.23128,14.23128,0,0,1-6.86073,1.47016,13.35275,13.35275,0,0,1-4.7605-.84009,12.59783,12.59783,0,0,1-4.06043-2.45026,13.95109,13.95109,0,0,1-3.01032-4.06044l-1.54017.77008,1.54017-.77008a14.809,14.809,0,0,1-1.19013-3.64039H388.02l.21-1.47016a8.4744,8.4744,0,0,0,.07-1.33014v-.9101A31.929,31.929,0,0,0,386.89976,109.528Zm-20.51224-6.16067a10.55514,10.55514,0,0,1,4.90053,1.05011,11.54465,11.54465,0,0,1,3.57036,2.7303,13.15872,13.15872,0,0,1,2.31025,4.13045,24.134,24.134,0,0,1,.84009,3.22034H354.62624a13.42451,13.42451,0,0,1,1.05011-3.36036,15.51012,15.51012,0,0,1,2.66028-4.13045,11.366,11.366,0,0,1,3.64038-2.66029A9.28,9.28,0,0,1,366.38752,103.36732Z"></path><path class="cls-3" d="M159.16521,163.64382c-.35.21-.63007.42005-1.05012.63006-.35.14-.77008.28-1.19012.42005a8.618,8.618,0,0,1-1.40015.14,6.16635,6.16635,0,0,1-2.31025-.42005,5.32769,5.32769,0,0,1-1.8202-1.26014,5.79372,5.79372,0,0,1-1.19013-1.8902,6.16655,6.16655,0,0,1-.42005-2.31025,6.43438,6.43438,0,0,1,.42005-2.31025,6.63834,6.63834,0,0,1,1.19013-1.8902,4.7361,4.7361,0,0,1,1.8202-1.26014,6.1892,6.1892,0,0,1,2.31025-.49,8.61908,8.61908,0,0,1,1.40015.14,5.91424,5.91424,0,0,1,1.19012.35,4.4634,4.4634,0,0,1,.98011.56006,8.39033,8.39033,0,0,1,.84008.77009l-.84008.9101a5.76439,5.76439,0,0,0-1.54017-1.12012,4.56952,4.56952,0,0,0-2.03021-.42005,4.87457,4.87457,0,0,0-1.75019.35,3.90593,3.90593,0,0,0-1.40015.98011,3.99749,3.99749,0,0,0-.9101,1.47016,4.90752,4.90752,0,0,0,0,3.6404,5.20437,5.20437,0,0,0,.9101,1.47016,3.90553,3.90553,0,0,0,1.40015.9801,4.87436,4.87436,0,0,0,1.75019.35,4.56929,4.56929,0,0,0,2.03021-.42,8.26164,8.26164,0,0,0,1.68018-1.19012l.84009.84008A3.12469,3.12469,0,0,1,159.16521,163.64382Z"></path><path class="cls-3" d="M162.24554,164.62393V152.79266h1.26013v11.83127Z"></path><path class="cls-3" d="M174.28683,162.17366a4.83356,4.83356,0,0,1-.9101,1.40016,5.02886,5.02886,0,0,1-1.40015.9801,4.57286,4.57286,0,0,1-4.90053-.9101,3.73032,3.73032,0,0,1-.9101-1.40015,4.81238,4.81238,0,0,1-.35-1.68018,4.506,4.506,0,0,1,.35-1.68018,3.73032,3.73032,0,0,1,.9101-1.40015,5.02865,5.02865,0,0,1,1.40015-.9801,4.57286,4.57286,0,0,1,4.90053.9101,3.7302,3.7302,0,0,1,.9101,1.40015,4.2074,4.2074,0,0,1,0,3.36035Zm-1.19012-3.01032a2.63623,2.63623,0,0,0-.63007-1.05012,3.15554,3.15554,0,0,0-.9801-.70007,3.344,3.344,0,0,0-1.26014-.28,2.74589,2.74589,0,0,0-1.26014.28,3.15577,3.15577,0,0,0-.9801.70007,2.63621,2.63621,0,0,0-.63006,1.05012,3.96438,3.96438,0,0,0-.21,1.26014,3.66149,3.66149,0,0,0,.21,1.26013,2.63621,2.63621,0,0,0,.63006,1.05012,4.96992,4.96992,0,0,0,.9801.70007,3.34381,3.34381,0,0,0,1.26014.28,2.74589,2.74589,0,0,0,1.26014-.28,3.15554,3.15554,0,0,0,.9801-.70007,2.63623,2.63623,0,0,0,.63007-1.05012,3.88546,3.88546,0,0,0,0-2.52027Z"></path><path class="cls-3" d="M182.82775,156.293h1.26013v8.40091h-1.26013v-1.47016a4.46072,4.46072,0,0,1-1.12013,1.19012,2.733,2.733,0,0,1-1.75018.49,3.7891,3.7891,0,0,1-1.33014-.21,2.51129,2.51129,0,0,1-.9801-.70008,2.636,2.636,0,0,1-.63007-1.05011,4.07617,4.07617,0,0,1-.21-1.33014V156.363h1.26014v4.90052a2.50134,2.50134,0,0,0,.63006,1.8202,2.36576,2.36576,0,0,0,1.75019.70008,2.236,2.236,0,0,0,.9801-.21,1.98555,1.98555,0,0,0,.77009-.56006,2.51734,2.51734,0,0,0,.56005-.84009,2.80893,2.80893,0,0,0,.21-1.05011V156.293Z"></path><path class="cls-3" d="M193.60891,164.62393v-1.68018a2.74174,2.74174,0,0,1-.56005.70008,6.31071,6.31071,0,0,1-.70008.63006l-.8401.42005a5.40375,5.40375,0,0,1-1.05011.14,3.65634,3.65634,0,0,1-1.47017-.28,3.97262,3.97262,0,0,1-1.26012-.84009,4.04465,4.04465,0,0,1-.91009-1.40015,5.25873,5.25873,0,0,1-.35-1.8202,4.95784,4.95784,0,0,1,.35-1.8202,4.83328,4.83328,0,0,1,.91009-1.40015,4.95105,4.95105,0,0,1,1.26012-.84009,3.656,3.656,0,0,1,1.47017-.28,4.2375,4.2375,0,0,1,1.05011.14,2.1699,2.1699,0,0,1,.91009.42005,4.05923,4.05923,0,0,1,1.26013,1.26014v-5.04054H194.939V164.764h-1.33013v-.14Zm-.21-5.5306a2.76964,2.76964,0,0,0-.70007-1.05012,2.9366,2.9366,0,0,0-.9801-.63006,3.171,3.171,0,0,0-1.12013-.21,2.90225,2.90225,0,0,0-1.12012.21,2.13171,2.13171,0,0,0-.91009.63006,2.63611,2.63611,0,0,0-.63007,1.05012,4.20979,4.20979,0,0,0-.21,1.40015,4.07639,4.07639,0,0,0,.21,1.33014,2.6363,2.6363,0,0,0,.63007,1.05011,2.66389,2.66389,0,0,0,.91009.63006,3.17065,3.17065,0,0,0,1.12012.21,2.90215,2.90215,0,0,0,1.12013-.21,2.9366,2.9366,0,0,0,.9801-.63006,3.92354,3.92354,0,0,0,.70007-1.05011,4.09322,4.09322,0,0,0,.28-1.33014A3.13435,3.13435,0,0,0,193.39889,159.09333Z"></path><path class="cls-3" d="M211.60085,163.64382c-.35.21-.63006.42005-1.05011.63006-.35.14-.77009.28-1.19014.42005a8.61763,8.61763,0,0,1-1.40015.14,5.56084,5.56084,0,0,1-2.24025-.42005,4.73593,4.73593,0,0,1-1.8202-1.26014,5.79372,5.79372,0,0,1-1.19013-1.8902,6.16655,6.16655,0,0,1-.42005-2.31025,6.4346,6.4346,0,0,1,.42005-2.31025,6.6379,6.6379,0,0,1,1.19013-1.8902,4.73625,4.73625,0,0,1,1.8202-1.26014,6.18927,6.18927,0,0,1,2.31024-.49,8.619,8.619,0,0,1,1.40016.14,7.65159,7.65159,0,0,1,1.19013.35,4.4631,4.4631,0,0,1,.9801.56006,8.8665,8.8665,0,0,1,.91009.77009l-.91009.9101a5.76439,5.76439,0,0,0-1.54017-1.12012,4.56948,4.56948,0,0,0-2.03022-.42005,4.87452,4.87452,0,0,0-1.75018.35,3.906,3.906,0,0,0-1.40016.98011,3.99744,3.99744,0,0,0-.91008,1.47016,4.90752,4.90752,0,0,0,0,3.6404,5.20431,5.20431,0,0,0,.91008,1.47016,3.90557,3.90557,0,0,0,1.40016.9801,4.87431,4.87431,0,0,0,1.75018.35,4.56934,4.56934,0,0,0,2.03022-.42,8.26153,8.26153,0,0,0,1.68018-1.19012l.84009.84008A4.2631,4.2631,0,0,1,211.60085,163.64382Z"></path><path class="cls-3" d="M222.242,162.17366a4.83333,4.83333,0,0,1-.91009,1.40016,5.029,5.029,0,0,1-1.40015.9801,4.57286,4.57286,0,0,1-4.90053-.9101,3.73018,3.73018,0,0,1-.91009-1.40015,4.8126,4.8126,0,0,1-.35-1.68018,4.50615,4.50615,0,0,1,.35-1.68018,3.73042,3.73042,0,0,1,.91009-1.40015,5.0288,5.0288,0,0,1,1.40015-.9801,4.57286,4.57286,0,0,1,4.90053.9101,3.73006,3.73006,0,0,1,.91009,1.40015,4.81256,4.81256,0,0,1,.35,1.68018A3.63071,3.63071,0,0,1,222.242,162.17366Zm-1.12012-3.01032a2.63634,2.63634,0,0,0-.63007-1.05012,3.15554,3.15554,0,0,0-.9801-.70007,3.344,3.344,0,0,0-1.26013-.28,2.74573,2.74573,0,0,0-1.26012.28,3.15569,3.15569,0,0,0-.98011.70007,2.63609,2.63609,0,0,0-.63006,1.05012,3.96407,3.96407,0,0,0-.21,1.26014,3.66172,3.66172,0,0,0,.21,1.26013,2.63632,2.63632,0,0,0,.63006,1.05012,4.9697,4.9697,0,0,0,.98011.70007,3.3437,3.3437,0,0,0,1.26012.28,2.7458,2.7458,0,0,0,1.26013-.28,3.15554,3.15554,0,0,0,.9801-.70007,2.63611,2.63611,0,0,0,.63007-1.05012,3.88564,3.88564,0,0,0,0-2.52027Z"></path><path class="cls-3" d="M226.09242,164.62393H224.8323V156.223h1.26012v1.47017a4.46106,4.46106,0,0,1,1.12013-1.19013,2.733,2.733,0,0,1,1.75019-.49,3.7891,3.7891,0,0,1,1.33014.21,2.51146,2.51146,0,0,1,.9801.70008,2.636,2.636,0,0,1,.63006,1.05011,4.20956,4.20956,0,0,1,.21,1.40015v5.18056h-1.26013V159.6534a2.5013,2.5013,0,0,0-.63006-1.8202,2.36577,2.36577,0,0,0-1.75019-.70008,2.23594,2.23594,0,0,0-.9801.21,1.98541,1.98541,0,0,0-.77009.56006,2.5173,2.5173,0,0,0-.56.84009,2.80878,2.80878,0,0,0-.21,1.05011v4.83052Z"></path><path class="cls-3" d="M240.374,163.36379a2.18861,2.18861,0,0,1-.63006.77009,3.77178,3.77178,0,0,1-.91009.49,3.27528,3.27528,0,0,1-1.19014.14,5.58982,5.58982,0,0,1-1.8202-.35,4.03406,4.03406,0,0,1-1.61017-.9101l.63007-.9101a3.94813,3.94813,0,0,0,1.40015.77009,3.65593,3.65593,0,0,0,1.47016.28,2.41759,2.41759,0,0,0,1.26013-.35,1.05933,1.05933,0,0,0,.49006-.9801h0a1.64763,1.64763,0,0,0-.14-.56007,3.04578,3.04578,0,0,0-.49006-.42,2.09621,2.09621,0,0,0-.70008-.28c-.28-.07-.49006-.14-.77009-.21a5.48755,5.48755,0,0,1-.9801-.35c-.35-.14-.63006-.28-.91009-.42005a1.807,1.807,0,0,1-.63006-.63007,2.02346,2.02346,0,0,1-.28-.9801h0a2.23611,2.23611,0,0,1,.21-.9801,3.10871,3.10871,0,0,1,.56-.77009,2.79418,2.79418,0,0,1,.91009-.49,2.90181,2.90181,0,0,1,1.12012-.14,3.99068,3.99068,0,0,1,1.54018.28,5.67674,5.67674,0,0,1,1.47016.70007l-.56005.9101a4.08292,4.08292,0,0,0-1.26013-.56006,3.96441,3.96441,0,0,0-1.26013-.21,2.0024,2.0024,0,0,0-1.19013.35.998.998,0,0,0-.42005.84009h0a.63557.63557,0,0,0,.21.49,1.25582,1.25582,0,0,0,.49006.35,7.26268,7.26268,0,0,0,.70008.28,3.9484,3.9484,0,0,1,.8401.28,5.48788,5.48788,0,0,1,.9801.35,4.66056,4.66056,0,0,1,.8401.42005,2.67343,2.67343,0,0,1,.63006.63006,2.033,2.033,0,0,1,.21.9801h0A1.53413,1.53413,0,0,1,240.374,163.36379Z"></path><path class="cls-3" d="M248.91487,156.293H250.175v8.40091h-1.26012v-1.47016a4.46088,4.46088,0,0,1-1.12013,1.19012,2.733,2.733,0,0,1-1.75019.49,3.7891,3.7891,0,0,1-1.33014-.21,2.51144,2.51144,0,0,1-.9801-.70008,2.636,2.636,0,0,1-.63006-1.05011,4.0759,4.0759,0,0,1-.21-1.33014V156.363h1.26012v4.90052a2.50131,2.50131,0,0,0,.63007,1.8202,2.36576,2.36576,0,0,0,1.75019.70008,2.236,2.236,0,0,0,.9801-.21,1.98545,1.98545,0,0,0,.77008-.56006,2.51736,2.51736,0,0,0,.56006-.84009,2.80893,2.80893,0,0,0,.21-1.05011V156.293Z"></path><path class="cls-3" d="M253.11532,164.62393V152.79266h1.26013v11.83127Z"></path><path class="cls-3" d="M258.926,162.24367a1.37817,1.37817,0,0,0,.42005,1.12012,1.68714,1.68714,0,0,0,1.05011.28,1.93789,1.93789,0,0,0,.63007-.07l.63006-.21v1.05011a2.09613,2.09613,0,0,1-.70008.28,2.88479,2.88479,0,0,1-.8401.07,3.54715,3.54715,0,0,1-.91008-.14,1.66893,1.66893,0,0,1-.77009-.42005,2.08549,2.08549,0,0,1-.49006-.77009,2.66554,2.66554,0,0,1-.21-1.12012v-5.04055h-1.19013V156.153h1.19013v-2.45024H258.996V156.223h2.66028v1.12013H258.996l-.07,4.90052Z"></path><path class="cls-3" d="M265.50666,157.41315c-.42005.14-.77008.28-1.19013.42005l-.35-1.05011a5.57211,5.57211,0,0,1,1.40015-.49006,5.96757,5.96757,0,0,1,1.61017-.21,3.91081,3.91081,0,0,1,2.66027.84009,3.18279,3.18279,0,0,1,.91009,2.52027v5.11056h-1.19009v-1.26014a4.24605,4.24605,0,0,1-1.19014.9801,3.77875,3.77875,0,0,1-1.89021.42005,5.44158,5.44158,0,0,1-1.12013-.14,4.27749,4.27749,0,0,1-.9801-.49,2.52053,2.52053,0,0,1-.9801-1.96022,2.301,2.301,0,0,1,.28-1.19012,1.78137,1.78137,0,0,1,.77009-.84009,3.216,3.216,0,0,1,1.12012-.49,4.65393,4.65393,0,0,1,1.47016-.21,8.48665,8.48665,0,0,1,1.40015.07,7.32584,7.32584,0,0,1,1.19014.28v-.28a2.06722,2.06722,0,0,0-.63006-1.68017,2.82365,2.82365,0,0,0-1.8202-.56006A7.36954,7.36954,0,0,0,265.50666,157.41315Zm-.42005,3.43036a1.49692,1.49692,0,0,0-.63006,1.26014,2.07118,2.07118,0,0,0,.14.70008,3.50629,3.50629,0,0,0,.49007.56006,2.19,2.19,0,0,0,.70007.35,2.97723,2.97723,0,0,0,.77009.14,5.44139,5.44139,0,0,0,1.12012-.14,3.77141,3.77141,0,0,0,.91009-.49,3.00942,3.00942,0,0,0,.63007-.70008,1.9378,1.9378,0,0,0,.21-.9101v-.84009c-.28-.07-.70007-.14-1.05011-.21a7.87207,7.87207,0,0,0-1.40015-.14A3.43711,3.43711,0,0,0,265.08661,160.84351Z"></path><path class="cls-3" d="M274.46762,164.62393h-1.26013V156.223h1.26013v1.47017a4.4609,4.4609,0,0,1,1.12013-1.19013,2.86534,2.86534,0,0,1,1.75018-.49,3.789,3.789,0,0,1,1.33014.21,3.15573,3.15573,0,0,1,.98011.70008,2.636,2.636,0,0,1,.63006,1.05011,4.20983,4.20983,0,0,1,.21,1.40015v5.18056h-1.26012V159.6534a2.50131,2.50131,0,0,0-.63007-1.8202,2.36576,2.36576,0,0,0-1.75019-.70008,2.236,2.236,0,0,0-.9801.21,1.98555,1.98555,0,0,0-.77009.56006,2.5176,2.5176,0,0,0-.56005.84009,2.809,2.809,0,0,0-.21,1.05011v4.83052Z"></path><path class="cls-3" d="M289.0292,164.4139a4.18457,4.18457,0,0,1-3.64038.14,4.18762,4.18762,0,0,1-2.24022-2.31025,4.81238,4.81238,0,0,1-.35-1.68018,4.506,4.506,0,0,1,.35-1.68018,3.7304,3.7304,0,0,1,.91008-1.40015,4.68393,4.68393,0,0,1,1.33014-.9801,4.50588,4.50588,0,0,1,1.68018-.35,5.44158,5.44158,0,0,1,1.12013.14,3.51743,3.51743,0,0,1,.91009.35,4.70931,4.70931,0,0,1,.77008.49c.21.21.42005.35.63007.56007l-.8401.91009a7.069,7.069,0,0,0-1.12013-.91011,2.55156,2.55156,0,0,0-1.47016-.35,2.30117,2.30117,0,0,0-1.19014.28,3.15569,3.15569,0,0,0-.9801.70008,2.636,2.636,0,0,0-.63006,1.05011,3.9638,3.9638,0,0,0-.21,1.26014,3.66182,3.66182,0,0,0,.21,1.26014,2.63628,2.63628,0,0,0,.63006,1.05011,3.15569,3.15569,0,0,0,.9801.70008,3.344,3.344,0,0,0,1.26013.28,3.25417,3.25417,0,0,0,1.47016-.35,4.57069,4.57069,0,0,0,1.12013-.9101l.77008.77009C290.0093,163.71383,289.51924,164.06387,289.0292,164.4139Z"></path><path class="cls-3" d="M296.52,164.904a4.80833,4.80833,0,0,1-1.19014,1.8202,2.49617,2.49617,0,0,1-1.61016.56007,1.92144,1.92144,0,0,1-.91009-.14,4.28317,4.28317,0,0,1-.8401-.35l.42005-.9801a1.12919,1.12919,0,0,0,.63006.21,2.15814,2.15814,0,0,0,.70008.07,1.67266,1.67266,0,0,0,.9801-.35,3.2529,3.2529,0,0,0,.77008-1.26013l-3.85041-8.40091h1.40015L296.1,163.08378l2.73029-7.00076h1.33014Z"></path><path class="cls-3" d="M315.282,164.904l-1.8202-1.8202a7.38893,7.38893,0,0,1-1.68017,1.33014,4.82034,4.82034,0,0,1-2.03022.49,4.514,4.514,0,0,1-1.40015-.21,2.92042,2.92042,0,0,1-1.12013-.63006,3.40493,3.40493,0,0,1-.77008-.98011,3.17037,3.17037,0,0,1,.42005-3.29035,4.88941,4.88941,0,0,1,2.03021-1.33014,3.30635,3.30635,0,0,1-.8401-1.26014,2.39752,2.39752,0,0,1-.28-1.26013,2.80941,2.80941,0,0,1,.21-1.05012,1.91142,1.91142,0,0,1,.63006-.84009,3.96961,3.96961,0,0,1,.91009-.56006,3.3915,3.3915,0,0,1,1.26013-.21,2.90233,2.90233,0,0,1,1.12013.21,2.57406,2.57406,0,0,1,1.40015,1.40015,2.236,2.236,0,0,1,.21.9801,2.37464,2.37464,0,0,1-.70007,1.8202,4.81887,4.81887,0,0,1-1.96021,1.12013l2.59029,2.66029a6.648,6.648,0,0,0,.70008-1.19013c.21-.42005.42-.84009.63006-1.33014l1.05011.49c-.28.56007-.49006,1.05012-.77008,1.54017s-.56006.9101-.8401,1.33014l1.9602,2.03021Zm-5.6006-5.81062a3.85509,3.85509,0,0,0-1.68018,1.05011,2.14,2.14,0,0,0-.49006,1.40015,3.00858,3.00858,0,0,0,.14.84009,2.51443,2.51443,0,0,0,.49007.70007,2.89045,2.89045,0,0,0,.77008.49,2.22487,2.22487,0,0,0,.9801.14,2.99791,2.99791,0,0,0,1.54018-.42005,6.2732,6.2732,0,0,0,1.33014-1.05012Zm2.24023-4.48048a1.58989,1.58989,0,0,0-1.12013-.42005,1.687,1.687,0,0,0-1.26012.49,1.82668,1.82668,0,0,0-.49007,1.19012,1.19121,1.19121,0,0,0,.07.49006,2.54223,2.54223,0,0,0,.21.49,6.45594,6.45594,0,0,0,.35.56006,4.52974,4.52974,0,0,0,.56.63006,4.87588,4.87588,0,0,0,1.61016-.9101,1.75309,1.75309,0,0,0,.56006-1.26014A1.41518,1.41518,0,0,0,311.92166,154.61285Z"></path><path class="cls-3" d="M327.60336,164.62393h-1.26012V154.40282h-3.85042V153.2127h8.891v1.19012h-3.85042l.07,10.22111Z"></path><path class="cls-3" d="M333.414,164.62393h-1.26012V156.223H333.414v2.17024a4.4645,4.4645,0,0,1,.56005-.9801,4.01229,4.01229,0,0,1,.77009-.77009,4.27709,4.27709,0,0,1,.9801-.49,2.90187,2.90187,0,0,1,1.12013-.14v1.33014h-.07a3.66153,3.66153,0,0,0-1.26013.21,2.76943,2.76943,0,0,0-1.05011.70008,3.34921,3.34921,0,0,0-.70008,1.19012,4.23645,4.23645,0,0,0-.28,1.68018v3.50038Z"></path><path class="cls-3" d="M339.99469,157.41315c-.42005.14-.77009.28-1.19014.42005l-.35-1.05011a5.57211,5.57211,0,0,1,1.40015-.49006,5.96768,5.96768,0,0,1,1.61017-.21,3.91085,3.91085,0,0,1,2.66028.84009,3.18282,3.18282,0,0,1,.91009,2.52027v5.11056h-1.19014v-1.26014a4.24605,4.24605,0,0,1-1.19014.9801,3.77875,3.77875,0,0,1-1.89021.42005,5.44139,5.44139,0,0,1-1.12012-.14,4.27736,4.27736,0,0,1-.98011-.49,2.52053,2.52053,0,0,1-.9801-1.96022,2.301,2.301,0,0,1,.28-1.19012,1.78137,1.78137,0,0,1,.77009-.84009,3.216,3.216,0,0,1,1.12012-.49,4.65393,4.65393,0,0,1,1.47016-.21,8.48652,8.48652,0,0,1,1.40015.07,7.32584,7.32584,0,0,1,1.19014.28v-.28a2.06722,2.06722,0,0,0-.63006-1.68017,2.82365,2.82365,0,0,0-1.8202-.56006A8.23175,8.23175,0,0,0,339.99469,157.41315Zm-.35,3.43036a1.49692,1.49692,0,0,0-.63006,1.26014,2.07118,2.07118,0,0,0,.14.70008,3.5062,3.5062,0,0,0,.49006.56006,1.33391,1.33391,0,0,0,.70008.35,2.97716,2.97716,0,0,0,.77008.14,5.44158,5.44158,0,0,0,1.12013-.14,3.77159,3.77159,0,0,0,.91009-.49,3.00938,3.00938,0,0,0,.63006-.70008,1.36046,1.36046,0,0,0,.21-.9101v-.84009c-.28-.07-.70008-.14-1.05012-.21a7.87207,7.87207,0,0,0-1.40015-.14A3.28063,3.28063,0,0,0,339.64465,160.84351Z"></path><path class="cls-3" d="M347.76553,154.40282v-1.40015h1.40015v1.40015Zm.07,10.22111V156.223h1.26013v8.40091Z"></path><path class="cls-3" d="M353.29612,164.62393H352.036V156.223h1.26013v1.47017a4.4609,4.4609,0,0,1,1.12013-1.19013,2.733,2.733,0,0,1,1.75018-.49,3.789,3.789,0,0,1,1.33014.21,2.51139,2.51139,0,0,1,.9801.70008,2.63589,2.63589,0,0,1,.63007,1.05011,4.20983,4.20983,0,0,1,.21,1.40015v5.18056h-1.26012V159.6534a2.50131,2.50131,0,0,0-.63007-1.8202,2.36576,2.36576,0,0,0-1.75019-.70008,2.236,2.236,0,0,0-.9801.21,1.98555,1.98555,0,0,0-.77009.56006,2.51745,2.51745,0,0,0-.56.84009,2.809,2.809,0,0,0-.21,1.05011v4.83052Z"></path><path class="cls-3" d="M362.04709,154.40282v-1.40015h1.40015v1.40015Zm.07,10.22111V156.223h1.26012v8.40091Z"></path><path class="cls-3" d="M367.57766,164.62393h-1.26013V156.223h1.26013v1.47017a4.46173,4.46173,0,0,1,1.1201-1.19013,2.86527,2.86527,0,0,1,1.75019-.49,3.78922,3.78922,0,0,1,1.33016.21,2.51183,2.51183,0,0,1,.98012.70008,2.636,2.636,0,0,1,.63009,1.05011,4.20983,4.20983,0,0,1,.21,1.40015v5.18056H372.3382V159.6534a2.50123,2.50123,0,0,0-.63008-1.8202,2.36576,2.36576,0,0,0-1.75019-.70008,2.23609,2.23609,0,0,0-.98012.21,1.98505,1.98505,0,0,0-.77007.56006,2.51775,2.51775,0,0,0-.56.84009,2.809,2.809,0,0,0-.21,1.05011v4.83052Z"></path><path class="cls-3" d="M384.02943,164.974a3.97252,3.97252,0,0,1-.8401,1.26013,3.173,3.173,0,0,1-1.33016.77009,6.5441,6.5441,0,0,1-1.75019.28,6.47331,6.47331,0,0,1-2.03024-.28,6.33859,6.33859,0,0,1-1.82017-.9101l.56-.9801a4.55059,4.55059,0,0,0,1.54017.77009,4.70624,4.70624,0,0,0,1.6802.28,3.33987,3.33987,0,0,0,2.24025-.77008,2.85357,2.85357,0,0,0,.8401-2.24024v-.98011a5.69041,5.69041,0,0,1-1.33016,1.26014,3.55139,3.55139,0,0,1-1.9602.49,3.65605,3.65605,0,0,1-1.47015-.28,3.8109,3.8109,0,0,1-1.26012-.77009,5.82353,5.82353,0,0,1-.91009-1.26014,4.2074,4.2074,0,0,1,0-3.36035,3.24033,3.24033,0,0,1,.91009-1.26014,2.92964,2.92964,0,0,1,1.26012-.77009,3.6562,3.6562,0,0,1,1.47015-.28,4.23784,4.23784,0,0,1,1.05011.14,3.51665,3.51665,0,0,1,.91009.35,2.74039,2.74039,0,0,1,.70007.56006,4.53156,4.53156,0,0,1,.56006.63006V156.083h1.26012v6.93074A6.87606,6.87606,0,0,1,384.02943,164.974Zm-1.19014-6.09067a2.88764,2.88764,0,0,0-.70007-.9101,2.747,2.747,0,0,0-.98013-.56006,3.17077,3.17077,0,0,0-1.1201-.21,2.90222,2.90222,0,0,0-1.1201.21,3.9684,3.9684,0,0,0-.91009.56006,2.664,2.664,0,0,0-.63009.9101,3.47722,3.47722,0,0,0,0,2.38025,2.664,2.664,0,0,0,.63009.9101,2.4702,2.4702,0,0,0,.91009.56007,3.09193,3.09193,0,0,0,2.2402,0,2.89424,2.89424,0,0,0,1.6802-1.47017,3.2977,3.2977,0,0,0,.28005-1.19012A2.979,2.979,0,0,0,382.83929,158.8833Z"></path></svg> 