<svg width="187" height="66" viewBox="0 0 187 66" fill="none" xmlns="http://www.w3.org/2000/svg">
<path d="M80.6914 19.4405H82.9409V21.0355C83.3153 20.4525 83.838 19.9753 84.4576 19.651C85.0772 19.3267 85.7723 19.1665 86.4742 19.1862C88.9357 19.1862 90.3726 20.7697 90.3726 23.4975V29.9702H88.0171V23.902C88.0171 22.2376 87.2044 21.3361 85.6615 21.3361C83.9302 21.3361 83.0469 22.6537 83.0469 24.9654V29.9355H80.6914V19.4405Z" fill="#1C32FF"/>
<path d="M96.9327 19.1862C99.9359 19.1862 101.42 20.5501 101.42 23.2894V29.9702H99.0644V28.5139C98.6895 29.0597 98.1793 29.5031 97.5819 29.8023C96.9844 30.1015 96.3193 30.2468 95.6489 30.2245C95.1873 30.2581 94.7236 30.1973 94.2872 30.046C93.8508 29.8947 93.4511 29.6561 93.1135 29.3454C92.7758 29.0347 92.5076 28.6586 92.3257 28.2409C92.1438 27.8232 92.0522 27.373 92.0568 26.9188C92.0568 25.1041 93.3641 23.8443 95.4958 23.6478L98.4755 23.3588C98.9231 23.3588 99.0997 23.1623 99.0997 22.8733V22.6537C99.0997 21.7637 98.3224 21.2436 96.968 21.2436C95.6136 21.2436 94.5065 21.8446 94.2474 22.8849L92.3865 21.7291C92.9401 20.0646 94.53 19.1862 96.9327 19.1862ZM96.0022 25.4855C95.0247 25.5896 94.4594 26.0981 94.4594 26.8494C94.4594 27.6007 95.1307 28.2249 96.226 28.2249C96.5828 28.2468 96.9405 28.1991 97.2785 28.0847C97.6164 27.9702 97.928 27.7913 98.1951 27.5581C98.4623 27.325 98.6797 27.0422 98.835 26.7262C98.9902 26.4101 99.0802 26.067 99.0997 25.7167V25.1041L96.0022 25.4855Z" fill="#1C32FF"/>
<path d="M116.236 19.1862C118.815 19.1862 120.335 20.7466 120.335 23.7402V29.9702H117.979V23.902C117.979 22.2145 117.202 21.3361 115.741 21.3361C113.904 21.3361 112.997 22.6537 112.997 24.9654V29.9355H110.642V23.902C110.642 22.2145 109.853 21.3361 108.392 21.3361C106.602 21.3361 105.683 22.6537 105.683 24.9654V29.9355H103.328V19.4405H105.577V21.0818C105.89 20.4757 106.377 19.9729 106.977 19.6359C107.578 19.2989 108.267 19.1425 108.958 19.1862C109.672 19.1417 110.384 19.3113 110.998 19.6725C111.612 20.0337 112.1 20.5695 112.397 21.2089C112.785 20.5579 113.349 20.0247 114.027 19.6679C114.704 19.311 115.468 19.1443 116.236 19.1862Z" fill="#1C32FF"/>
<path d="M127.201 19.1862C130.522 19.1862 132.407 21.4979 132.407 24.7458V25.3931H124.162C124.243 26.1605 124.622 26.8678 125.221 27.3674C125.82 27.8671 126.593 28.1204 127.378 28.0746C127.981 28.0758 128.579 27.9542 129.132 27.7174C129.685 27.4807 130.183 27.134 130.593 26.6992L131.688 28.537C131.121 29.0789 130.451 29.505 129.715 29.7907C128.979 30.0764 128.192 30.216 127.401 30.2014C126.654 30.2505 125.905 30.1426 125.204 29.885C124.502 29.6274 123.865 29.2259 123.335 28.7074C122.804 28.1888 122.392 27.5652 122.127 26.878C121.861 26.1909 121.748 25.4561 121.795 24.7227C121.749 24.0035 121.856 23.2829 122.108 22.6063C122.361 21.9296 122.753 21.3117 123.261 20.7914C123.769 20.2712 124.382 19.8599 125.06 19.5836C125.738 19.3073 126.467 19.172 127.201 19.1862ZM127.201 21.2089C126.477 21.1574 125.76 21.3862 125.206 21.8463C124.651 22.3064 124.302 22.9613 124.233 23.6709H129.922C129.918 23.3266 129.842 22.9868 129.698 22.6727C129.555 22.3587 129.346 22.0772 129.086 21.846C128.826 21.6148 128.52 21.4389 128.188 21.3292C127.855 21.2196 127.503 21.1786 127.154 21.2089H127.201Z" fill="#1C32FF"/>
<path d="M137.836 19.1862C138.652 19.1318 139.47 19.2814 140.211 19.621C140.952 19.9606 141.594 20.479 142.076 21.128L140.51 22.5728C140.182 22.1409 139.749 21.7956 139.252 21.5676C138.755 21.3397 138.208 21.2363 137.659 21.2667C136.588 21.2667 135.928 21.6481 135.928 22.3185C135.928 22.9889 136.635 23.2085 138.46 23.6246C140.604 24.1332 142.1 24.7805 142.1 26.8726C142.1 28.9646 140.51 30.2245 137.754 30.2245C136.84 30.2992 135.922 30.1429 135.087 29.7707C134.252 29.3984 133.528 28.8224 132.984 28.0978L134.574 26.5952C134.946 27.1175 135.449 27.5359 136.036 27.8095C136.622 28.083 137.271 28.2023 137.919 28.1555C139.096 28.1555 139.744 27.7741 139.744 26.9997C139.744 26.2253 139.073 26.0519 137.389 25.6705C135.704 25.2891 133.584 24.6418 133.584 22.411C133.561 20.4114 135.198 19.1862 137.836 19.1862Z" fill="#1C32FF"/>
<path d="M143.407 19.4405H145.762V20.9315C146.185 20.3759 146.737 19.9275 147.372 19.6239C148.007 19.3203 148.707 19.1702 149.413 19.1862C152.381 19.1862 154.442 21.4979 154.442 24.6996C154.442 27.9013 152.381 30.2245 149.437 30.2245C148.718 30.2359 148.007 30.0794 147.362 29.7679C146.717 29.4564 146.156 28.9988 145.727 28.4329V34.2122H143.372L143.407 19.4405ZM152.052 24.6996C152.052 23.8627 151.713 23.0601 151.11 22.4683C150.507 21.8766 149.689 21.5441 148.836 21.5441C147.984 21.5441 147.166 21.8766 146.563 22.4683C145.96 23.0601 145.621 23.8627 145.621 24.6996C145.621 25.5364 145.96 26.3391 146.563 26.9308C147.166 27.5226 147.984 27.855 148.836 27.855C149.689 27.855 150.507 27.5226 151.11 26.9308C151.713 26.3391 152.052 25.5364 152.052 24.6996Z" fill="#1C32FF"/>
<path d="M160.202 19.1862C163.205 19.1862 164.689 20.5501 164.689 23.2894V29.9702H162.333V28.5139C161.96 29.058 161.451 29.5003 160.856 29.7995C160.261 30.0986 159.598 30.2448 158.93 30.2245C158.476 30.2607 158.019 30.2059 157.588 30.0634C157.156 29.921 156.759 29.6939 156.42 29.396C156.08 29.0981 155.806 28.7355 155.614 28.3304C155.422 27.9253 155.316 27.4861 155.303 27.0395C155.289 26.593 155.368 26.1483 155.535 25.7327C155.702 25.3171 155.954 24.9391 156.274 24.6218C156.595 24.3046 156.978 24.0546 157.4 23.8871C157.822 23.7197 158.274 23.6382 158.729 23.6478L161.721 23.3588C162.169 23.3588 162.333 23.1623 162.333 22.8733V22.6537C162.333 21.7637 161.568 21.2436 160.213 21.2436C158.859 21.2436 157.752 21.8446 157.493 22.8849L155.62 21.7291C156.209 20.0646 157.799 19.1862 160.202 19.1862ZM159.283 25.4855C158.294 25.5896 157.74 26.0981 157.74 26.8494C157.74 27.6007 158.423 28.2249 159.495 28.2249C159.852 28.2483 160.211 28.2018 160.549 28.0879C160.888 27.9741 161.2 27.7952 161.467 27.5618C161.735 27.3283 161.952 27.0449 162.107 26.7282C162.262 26.4114 162.351 26.0676 162.369 25.7167V25.1041L159.283 25.4855Z" fill="#1C32FF"/>
<path d="M171.579 19.1862C172.312 19.1688 173.04 19.2958 173.722 19.5599C174.404 19.8239 175.025 20.2196 175.548 20.7235L174.146 22.515C173.457 21.8032 172.508 21.3878 171.508 21.3592C171.068 21.3451 170.629 21.422 170.221 21.5849C169.813 21.7478 169.444 21.993 169.139 22.3047C168.834 22.6163 168.599 22.9875 168.449 23.3941C168.299 23.8007 168.238 24.2336 168.269 24.6649C168.24 25.0938 168.302 25.524 168.451 25.9281C168.6 26.3323 168.833 26.7016 169.135 27.0125C169.438 27.3234 169.803 27.5692 170.207 27.7341C170.612 27.8991 171.047 27.9796 171.485 27.9706C172.526 27.9591 173.521 27.5436 174.252 26.8148L175.583 28.6641C175.04 29.178 174.397 29.5807 173.694 29.8486C172.99 30.1165 172.239 30.2443 171.485 30.2245C170.739 30.2629 169.993 30.1468 169.296 29.8837C168.598 29.6206 167.965 29.2165 167.438 28.6976C166.91 28.1787 166.499 27.5566 166.233 26.8717C165.966 26.1869 165.85 25.4547 165.89 24.7227C165.858 23.9833 165.984 23.2454 166.259 22.5563C166.534 21.8672 166.953 21.2421 167.488 20.721C168.024 20.1998 168.664 19.7941 169.368 19.5299C170.073 19.2656 170.826 19.1485 171.579 19.1862Z" fill="#1C32FF"/>
<path d="M181.331 19.1862C184.664 19.1862 186.548 21.4979 186.548 24.7458V25.3931H178.304C178.387 26.1615 178.769 26.8689 179.37 27.3683C179.971 27.8676 180.745 28.1206 181.531 28.0746C182.135 28.0758 182.732 27.9542 183.285 27.7174C183.839 27.4807 184.336 27.134 184.746 26.6992L185.841 28.537C185.273 29.0803 184.6 29.5072 183.862 29.7929C183.124 30.0787 182.336 30.2175 181.543 30.2014C180.796 30.2488 180.049 30.1397 179.349 29.8812C178.649 29.6228 178.013 29.2211 177.484 28.7028C176.955 28.1844 176.544 27.5614 176.279 26.8751C176.014 26.1888 175.902 25.4551 175.948 24.7227C175.903 24.0055 176.009 23.2869 176.26 22.6118C176.511 21.9368 176.901 21.3199 177.407 20.8C177.912 20.2801 178.521 19.8684 179.197 19.5907C179.872 19.313 180.599 19.1753 181.331 19.1862ZM181.331 21.2089C180.6 21.1479 179.875 21.3723 179.313 21.8333C178.75 22.2944 178.396 22.9548 178.327 23.6709H184.016C184.012 23.3308 183.937 22.9952 183.796 22.6845C183.655 22.3738 183.451 22.0946 183.197 21.8641C182.942 21.6335 182.642 21.4565 182.315 21.3439C181.988 21.2312 181.641 21.1853 181.295 21.2089H181.331Z" fill="#1C32FF"/>
<path d="M83.4474 48.8914H81.0918V34.1428H83.4474V48.8914Z" fill="#1C32FF"/>
<path d="M89.9721 38.1073C92.9754 38.1073 94.4594 39.4712 94.4594 42.2106V48.8914H92.1039V47.435C91.7289 47.9808 91.2188 48.4242 90.6213 48.7234C90.0239 49.0227 89.3587 49.168 88.6884 49.1456C88.2343 49.1815 87.7776 49.1263 87.3459 48.9833C86.9143 48.8404 86.5169 48.6127 86.1778 48.3142C85.8387 48.0156 85.5651 47.6525 85.3736 47.2469C85.1821 46.8412 85.0768 46.4016 85.0639 45.9547C85.0511 45.5078 85.1312 45.0631 85.2991 44.6475C85.4671 44.2319 85.7195 43.8543 86.0409 43.5375C86.3624 43.2208 86.7462 42.9715 87.1689 42.805C87.5917 42.6385 88.0445 42.5581 88.4999 42.5689L91.515 42.3031C91.9625 42.3031 92.1392 42.1066 92.1392 41.8176V41.5864C92.1392 40.6964 91.3619 40.1647 90.0075 40.1647C88.653 40.1647 87.5459 40.7773 87.2868 41.8176L85.4024 40.6271C85.9795 38.9858 87.5695 38.1073 89.9721 38.1073ZM89.0417 44.4067C88.0642 44.5107 87.4988 45.0077 87.4988 45.7706C87.4988 46.5334 88.1702 47.1345 89.2655 47.1345C89.6236 47.1579 89.9828 47.111 90.3222 46.9964C90.6616 46.8819 90.9743 46.702 91.2419 46.4673C91.5095 46.2326 91.7268 45.9479 91.8808 45.6298C92.0349 45.3117 92.1228 44.9666 92.1392 44.6147V44.0021L89.0417 44.4067Z" fill="#1C32FF"/>
<path d="M98.7229 39.8758C99.1547 39.3142 99.7162 38.8611 100.361 38.5536C101.006 38.2462 101.716 38.0933 102.433 38.1073C105.377 38.1073 107.426 40.3612 107.426 43.6207C107.426 46.8802 105.424 49.1456 102.409 49.1456C101.696 49.1679 100.987 49.0196 100.345 48.7135C99.703 48.4075 99.1462 47.9528 98.7229 47.3888V48.8914H96.3673V34.1428H98.7229V39.8758ZM101.832 40.2688C101.389 40.2555 100.948 40.3348 100.538 40.5012C100.129 40.6677 99.7596 40.9176 99.4557 41.2345C99.1518 41.5513 98.9198 41.9279 98.7752 42.3392C98.6306 42.7506 98.5766 43.1874 98.6168 43.6207C98.6168 44.4576 98.9556 45.2602 99.5586 45.852C100.162 46.4437 100.979 46.7762 101.832 46.7762C102.685 46.7762 103.503 46.4437 104.106 45.852C104.709 45.2602 105.047 44.4576 105.047 43.6207C105.085 43.1927 105.031 42.7616 104.89 42.3552C104.748 41.9487 104.521 41.5758 104.224 41.2602C103.927 40.9447 103.566 40.6936 103.164 40.5228C102.762 40.3521 102.329 40.2656 101.891 40.2688H101.832Z" fill="#1C32FF"/>
<path d="M112.856 38.1073C113.668 38.0498 114.483 38.1919 115.225 38.5209C115.967 38.8498 116.614 39.3552 117.108 39.9914L115.541 41.494C115.213 41.0596 114.779 40.7126 114.279 40.4845C113.779 40.2564 113.229 40.1545 112.679 40.1879C111.607 40.1879 110.948 40.5693 110.948 41.2397C110.948 41.9101 111.655 42.1297 113.48 42.5458C115.624 43.0543 117.131 43.7016 117.131 45.7937C117.131 47.8858 115.541 49.1456 112.773 49.1456C111.868 49.2112 110.96 49.0492 110.136 48.6751C109.312 48.301 108.598 47.727 108.062 47.0073L109.652 45.5163C110.025 46.0378 110.529 46.4556 111.115 46.7291C111.701 47.0025 112.35 47.1223 112.997 47.0767C114.175 47.0767 114.823 46.6953 114.823 45.9208C114.823 45.1464 114.163 44.9731 112.467 44.5916C110.771 44.2102 108.663 43.5629 108.663 41.3321C108.581 39.321 110.218 38.1073 112.856 38.1073Z" fill="#1C32FF"/>
<path d="M32.9935 65.9869C51.2152 65.9869 65.9869 51.2152 65.9869 32.9935C65.9869 14.7717 51.2152 0 32.9935 0C14.7717 0 0 14.7717 0 32.9935C0 51.2152 14.7717 65.9869 32.9935 65.9869Z" fill="#1C32FF"/>
<path d="M50.1784 51.2887V46.3448H33.6151V51.2887H50.1784Z" fill="white"/>
<path d="M37.7006 42.8219H33.6448L21.9957 26.3918V42.8219H17.0519V18.162H21.8773L32.7567 33.7484V18.162H37.7006V42.8219Z" fill="white"/>
</svg>
