<?xml version="1.0" encoding="utf-8"?>
<!-- Generator: Adobe Illustrator 19.1.0, SVG Export Plug-In . SVG Version: 6.00 Build 0)  -->
<svg version="1.1" id="Layer_1" xmlns="http://www.w3.org/2000/svg" xmlns:xlink="http://www.w3.org/1999/xlink" x="0px" y="0px"
	 viewBox="0 0 792 612" style="enable-background:new 0 0 792 612;" xml:space="preserve">
<style type="text/css">
	.st0{fill:#4E9D2D;}
	.st1{fill:none;}
	.st2{fill:url(#SVGID_1_);}
</style>
<g>
	<path class="st0" d="M171.5,291.7H99c0,0-25.4,0-25.4,27v71.4h40.5v-70.7c0-5.8,4.7-10.5,10.5-10.5h21.4c5.8,0,10.5,4.7,10.5,10.5
		v70.7h40.4v-71.4C196.8,291.7,171.5,291.7,171.5,291.7z"/>
	<path class="st0" d="M482.4,291.7H367.3c0,0-25.3,0-25.3,27v71.4h40.4v-70.7c0-5.8,4.7-10.5,10.5-10.5h5.6
		c5.8,0,10.5,4.7,10.5,10.5v70.7h31.9v-70.7c0-5.8,4.7-10.5,10.5-10.5h5.6c5.8,0,10.5,4.7,10.5,10.5v70.7h40.4v-71.4
		C507.8,291.7,482.4,291.7,482.4,291.7z"/>
	<path class="st1" d="M242.7,359.8c0,10.4,6.9,14.1,12.7,14.1H276c5.8,0,10.5-4.7,10.5-10.5v-24.2l-31.1,6.7
		C249.6,347.7,242.7,349.8,242.7,359.8z"/>
	<path class="st0" d="M548.2,391.2h72.5c0,0,25.3,0,25.3-27v-71.4h-40.4v70.7c0,5.8-4.7,10.5-10.5,10.5h-21.4
		c-5.8,0-10.5-4.7-10.5-10.5v-70.7h-40.4v71.4C522.8,391.2,548.2,391.2,548.2,391.2z"/>
	<radialGradient id="SVGID_1_" cx="666.33" cy="241.502" r="57.9092" gradientUnits="userSpaceOnUse">
		<stop  offset="0" style="stop-color:#7ED3F7"/>
		<stop  offset="1" style="stop-color:#0089CF"/>
	</radialGradient>
	<path class="st2" d="M717.7,257c0,19.8-16,35.8-35.8,35.8c-19.8,0-35.8-16-35.8-35.8c0-19.8,16-35.8,35.8-35.8
		C701.6,221.1,717.7,237.2,717.7,257z"/>
	<path class="st0" d="M301.5,291.7h-79.1h-8.6v8.6c0,4.8,3.9,8.6,8.6,8.6c0,0,0,0,0,0h0H276c4.4,0,9.7,1.5,9.7,11l-46,11.4
		c-16.2,4.8-29.9,13.4-29.9,29.9c0,16.5,13.4,29.9,29.9,29.9h61.8c0,0,25.4,0,25.4-27v-45.5C326.9,291.7,301.5,291.7,301.5,291.7z
		 M286.4,363.5c0,5.8-4.7,10.5-10.5,10.5h-20.6c-5.8,0-12.7-3.7-12.7-14.1c0-10,6.9-12.1,12.6-13.8l31.1-6.7V363.5z"/>
</g>
</svg>
