<?xml version="1.0" encoding="UTF-8"?> <svg xmlns="http://www.w3.org/2000/svg" xmlns:xlink="http://www.w3.org/1999/xlink" viewBox="0 0 202.41 92.55"><defs><style>.cls-1{fill:none;}.cls-2{fill:#231f20;}.cls-3{clip-path:url(#clip-path);}.cls-4{fill:url(#linear-gradient);}</style><clipPath id="clip-path"><path class="cls-1" d="M56.77,30.67l-6.6,2a74.52,74.52,0,0,0-7.89,2.8c-7.47-11.31-18.61-17.71-24.64-15-4.46,2-6.27,8.6-5.5,17.17l.23-.14c-.18-7,1.08-12.8,4.43-14.31C22,20.87,32.16,26.71,39,37,17.22,47.48,7.09,66.31,2.32,79.79c8.57-13.88,22.33-25.56,42.23-32.61.59,1.29,1.14,2.57,1.62,3.81l-.63.25C21.77,60.78,9.2,76,2,92.6,10.52,80.72,24.91,68,42.48,63.17c2.47-.68,4.72-1.39,6.78-2.11,2.57,9.88,1.8,18.82-3,21-4.44,2-12.63-1.35-19.41-10.14,0,0-.14,0-.26.11s-.24.14-.26.11c7.13,10.21,16.18,14,21.75,11.46s7-12.08,4.48-23.78C64,55.3,67.89,50.76,67.89,50.76c13.75-12.18,18.31-27,20.78-35.5C83.38,25.8,77.8,34.49,62.25,43.85c-.73.74-5.34,2.78-12.85,5.83L48,46.1,48,46a146.8,146.8,0,0,0,14.17-5.9C81.7,30,91,8.27,93.61,1,86.78,12.52,76.16,24.29,56.77,30.67"></path></clipPath><linearGradient id="linear-gradient" x1="-69.28" y1="488.76" x2="-68.28" y2="488.76" gradientTransform="matrix(92.32, -0.67, 2.4, -92.29, 5222.69, 45110.28)" gradientUnits="userSpaceOnUse"><stop offset="0" stop-color="#57cbf5"></stop><stop offset="0.55" stop-color="#005ead"></stop><stop offset="1" stop-color="#005ead"></stop></linearGradient></defs><title>logo-lightbg-1</title><g id="Layer_2" data-name="Layer 2"><g id="Layer_1-2" data-name="Layer 1"><polygon class="cls-2" points="98.48 66.17 98 64.94 97.97 64.94 98.09 66.17 98.09 71.12 97.28 71.12 97.28 63.19 97.79 63.19 100.68 68.25 101.13 69.43 101.18 69.43 101.06 68.25 101.06 63.31 101.86 63.31 101.86 71.25 101.35 71.25 98.48 66.17"></polygon><path class="cls-2" d="M107.73,68.94h-2.2l-.62,2.19h-.83l2.35-7.93h.46l2.35,7.93h-.88Zm-2-.73h1.78l-.68-2.42-.21-1.18h0l-.22,1.2Z"></path><polygon class="cls-2" points="114.91 64.08 112.99 64.08 112.99 71.12 112.15 71.12 112.15 64.08 110.23 64.08 110.23 63.31 114.91 63.31 114.91 64.08"></polygon><rect class="cls-2" x="117.27" y="63.31" width="0.84" height="7.81"></rect><path class="cls-2" d="M120.77,67.22a5.79,5.79,0,0,1,.64-3,2.13,2.13,0,0,1,1.94-1,2.36,2.36,0,0,1,1.19.28,2.2,2.2,0,0,1,.8.81,4,4,0,0,1,.45,1.27,8.81,8.81,0,0,1,.15,1.67,5.75,5.75,0,0,1-.64,3,2.14,2.14,0,0,1-1.95,1,2.33,2.33,0,0,1-1.18-.28,2.24,2.24,0,0,1-.8-.81,3.83,3.83,0,0,1-.45-1.27,9.18,9.18,0,0,1-.14-1.67m.88,0a7.8,7.8,0,0,0,.09,1.25,4.15,4.15,0,0,0,.3,1,2,2,0,0,0,.52.71,1.19,1.19,0,0,0,.78.27,1.38,1.38,0,0,0,1.27-.8,5.37,5.37,0,0,0,.44-2.47A7.85,7.85,0,0,0,125,66a4.25,4.25,0,0,0-.3-1,1.94,1.94,0,0,0-.52-.72,1.2,1.2,0,0,0-.79-.27,1.37,1.37,0,0,0-1.26.8,5.37,5.37,0,0,0-.43,2.47"></path><polygon class="cls-2" points="129.69 66.17 129.21 64.94 129.17 64.94 129.29 66.17 129.29 71.12 128.49 71.12 128.49 63.19 128.99 63.19 131.88 68.25 132.34 69.43 132.38 69.43 132.26 68.25 132.26 63.31 133.07 63.31 133.07 71.25 132.55 71.25 129.69 66.17"></polygon><path class="cls-2" d="M138.94,68.94h-2.2l-.62,2.19h-.83l2.35-7.93h.46l2.35,7.93h-.88Zm-2-.73h1.78l-.68-2.42-.21-1.18h0l-.22,1.2Z"></path><polygon class="cls-2" points="146.44 71.12 142.68 71.12 142.68 63.31 143.52 63.31 143.52 70.35 146.44 70.35 146.44 71.12"></polygon><rect class="cls-2" x="152.8" y="63.35" width="0.75" height="7.81"></rect><polygon class="cls-2" points="157.12 66.21 156.69 64.98 156.66 64.98 156.76 66.21 156.76 71.17 156.04 71.17 156.04 63.23 156.49 63.23 159.09 68.3 159.51 69.47 159.55 69.47 159.44 68.3 159.44 63.35 160.16 63.35 160.16 71.29 159.7 71.29 157.12 66.21"></polygon><path class="cls-2" d="M162.46,70.13a2.11,2.11,0,0,0,.54.27,2.28,2.28,0,0,0,.79.13,1.34,1.34,0,0,0,.91-.31,1.22,1.22,0,0,0,.35-1,1.4,1.4,0,0,0-.2-.76,2.76,2.76,0,0,0-.5-.6c-.2-.18-.42-.36-.65-.54a5.38,5.38,0,0,1-.65-.58,2.88,2.88,0,0,1-.5-.73,2.25,2.25,0,0,1-.2-1,1.77,1.77,0,0,1,.51-1.39,1.91,1.91,0,0,1,1.32-.45,3.61,3.61,0,0,1,.89.1,2.16,2.16,0,0,1,.63.26l-.24.74a1.92,1.92,0,0,0-.52-.22,2.73,2.73,0,0,0-.78-.1,1,1,0,0,0-.8.3,1.08,1.08,0,0,0-.26.74,1.22,1.22,0,0,0,.2.69,3,3,0,0,0,.5.57c.2.18.42.36.65.54a5.16,5.16,0,0,1,.65.61,3.16,3.16,0,0,1,.5.76,2.32,2.32,0,0,1,.2,1,2.17,2.17,0,0,1-.52,1.54,1.92,1.92,0,0,1-1.48.56,3.32,3.32,0,0,1-1-.12,2.4,2.4,0,0,1-.62-.28Z"></path><path class="cls-2" d="M171.08,63.35h.72v5.23a3.33,3.33,0,0,1-.5,2,1.69,1.69,0,0,1-1.41.63,1.86,1.86,0,0,1-1.55-.61,3,3,0,0,1-.49-1.89V63.35h.75v5a6.16,6.16,0,0,0,.07,1,1.85,1.85,0,0,0,.23.67.93.93,0,0,0,.4.37,1.4,1.4,0,0,0,.59.11.94.94,0,0,0,.92-.51,3.93,3.93,0,0,0,.26-1.65Z"></path><path class="cls-2" d="M174.2,63.43a4.56,4.56,0,0,1,.73-.13q.4,0,.73,0a2.58,2.58,0,0,1,.74.11,1.5,1.5,0,0,1,.61.36,1.77,1.77,0,0,1,.42.66,2.91,2.91,0,0,1,.15,1,2.79,2.79,0,0,1-.35,1.48,1.7,1.7,0,0,1-.92.75l.38.41,1.39,3.11h-.87l-1.51-3.4-.75-.17v3.57h-.75ZM175,67h.6a1.12,1.12,0,0,0,.9-.39,1.82,1.82,0,0,0,.33-1.19,1.76,1.76,0,0,0-.28-1,.93.93,0,0,0-.82-.4l-.42,0a1.6,1.6,0,0,0-.33,0Z"></path><path class="cls-2" d="M183.1,69h-2l-.56,2.19h-.74l2.12-7.93h.41l2.12,7.93h-.79Zm-1.78-.73h1.6l-.61-2.42-.18-1.18h0l-.19,1.2Z"></path><polygon class="cls-2" points="187.43 66.21 187 64.98 186.97 64.98 187.08 66.21 187.08 71.17 186.36 71.17 186.36 63.23 186.81 63.23 189.41 68.3 189.82 69.47 189.86 69.47 189.75 68.3 189.75 63.35 190.48 63.35 190.48 71.29 190.01 71.29 187.43 66.21"></polygon><path class="cls-2" d="M196.56,70.86a1.45,1.45,0,0,1-.63.34,3.15,3.15,0,0,1-.8.1,2.2,2.2,0,0,1-1-.22,2,2,0,0,1-.78-.71,3.77,3.77,0,0,1-.51-1.25,8.2,8.2,0,0,1-.18-1.85,7.42,7.42,0,0,1,.21-1.89,3.86,3.86,0,0,1,.55-1.25,2.06,2.06,0,0,1,.79-.69,2.13,2.13,0,0,1,.92-.21,3.41,3.41,0,0,1,.8.08,2.85,2.85,0,0,1,.55.19l-.18.76a1.64,1.64,0,0,0-.47-.19,2.59,2.59,0,0,0-.62-.07,1.34,1.34,0,0,0-.66.17,1.56,1.56,0,0,0-.55.56,3.25,3.25,0,0,0-.38,1,7.07,7.07,0,0,0-.14,1.53,4.76,4.76,0,0,0,.5,2.45,1.51,1.51,0,0,0,1.34.82,1.66,1.66,0,0,0,.61-.11,1.87,1.87,0,0,0,.46-.25Z"></path><polygon class="cls-2" points="198.56 63.35 201.69 63.35 201.69 64.13 199.32 64.13 199.32 66.77 201.5 66.77 201.5 67.54 199.32 67.54 199.32 70.4 201.74 70.4 201.74 71.17 198.56 71.17 198.56 63.35"></polygon><path class="cls-2" d="M97.28,76.51a4.09,4.09,0,0,1,.76-.13q.4,0,.79,0a3.9,3.9,0,0,1,.88.1,2,2,0,0,1,.79.37,1.92,1.92,0,0,1,.57.74,2.84,2.84,0,0,1,.22,1.19,3.09,3.09,0,0,1-.21,1.19,2.2,2.2,0,0,1-.55.8,2.1,2.1,0,0,1-.78.45,3,3,0,0,1-.91.14h-.36l-.22,0-.15,0v3h-.84Zm1.6.6-.43,0a1.82,1.82,0,0,0-.33,0V80.5l.14,0h.53a2.31,2.31,0,0,0,.6-.08,1.21,1.21,0,0,0,.51-.28,1.5,1.5,0,0,0,.36-.56,2.42,2.42,0,0,0,.14-.89,2.05,2.05,0,0,0-.13-.78,1.38,1.38,0,0,0-.34-.5,1.17,1.17,0,0,0-.49-.27,2.14,2.14,0,0,0-.58-.08"></path><path class="cls-2" d="M103.34,76.51a5.55,5.55,0,0,1,.81-.13c.29,0,.56,0,.81,0a3.16,3.16,0,0,1,.82.11,1.71,1.71,0,0,1,.68.36,1.75,1.75,0,0,1,.46.66,2.61,2.61,0,0,1,.17,1,2.56,2.56,0,0,1-.38,1.48,1.85,1.85,0,0,1-1,.75l.42.41,1.54,3.11h-1L105,80.84l-.84-.17v3.57h-.84Zm.84,3.6h.67a1.32,1.32,0,0,0,1-.39,1.69,1.69,0,0,0,.37-1.19,1.63,1.63,0,0,0-.31-1,1.08,1.08,0,0,0-.91-.4l-.46,0a2,2,0,0,0-.36,0Z"></path><path class="cls-2" d="M109.27,80.33a5.79,5.79,0,0,1,.64-3,2.13,2.13,0,0,1,1.94-1,2.36,2.36,0,0,1,1.19.28,2.2,2.2,0,0,1,.8.81,4,4,0,0,1,.45,1.27,8.81,8.81,0,0,1,.15,1.67,5.75,5.75,0,0,1-.64,3,2.14,2.14,0,0,1-1.95,1,2.33,2.33,0,0,1-1.18-.28,2.24,2.24,0,0,1-.8-.81,3.83,3.83,0,0,1-.45-1.27,9.18,9.18,0,0,1-.14-1.67m.88,0a7.8,7.8,0,0,0,.09,1.25,4.15,4.15,0,0,0,.3,1,2,2,0,0,0,.52.71,1.19,1.19,0,0,0,.78.27,1.38,1.38,0,0,0,1.27-.8,5.37,5.37,0,0,0,.44-2.47,7.85,7.85,0,0,0-.1-1.24,4.25,4.25,0,0,0-.3-1,1.94,1.94,0,0,0-.52-.72,1.2,1.2,0,0,0-.79-.27,1.37,1.37,0,0,0-1.26.8,5.37,5.37,0,0,0-.43,2.47"></path><path class="cls-2" d="M116.69,76.43l.4,0,.44,0h.85a3.13,3.13,0,0,1,1.38.28,2.39,2.39,0,0,1,.93.8,3.47,3.47,0,0,1,.51,1.24,8.17,8.17,0,0,1,0,3.16,3.78,3.78,0,0,1-.51,1.3,2.68,2.68,0,0,1-.94.89,2.92,2.92,0,0,1-1.47.33h-.37l-.46,0-.45,0-.32,0Zm1.73.68h-.49l-.23,0-.17,0v6.36l.16,0h.66a1.85,1.85,0,0,0,1-.27,1.91,1.91,0,0,0,.65-.72,3.47,3.47,0,0,0,.34-1,7.63,7.63,0,0,0,.1-1.27,7.54,7.54,0,0,0-.09-1.16,3.32,3.32,0,0,0-.32-1,1.94,1.94,0,0,0-.62-.71,1.76,1.76,0,0,0-1-.27"></path><path class="cls-2" d="M127.16,76.43h.8v5.23a3.08,3.08,0,0,1-.55,2,2,2,0,0,1-1.57.63,2.19,2.19,0,0,1-1.72-.61,2.79,2.79,0,0,1-.54-1.89V76.43h.84v5a5.59,5.59,0,0,0,.08,1,1.72,1.72,0,0,0,.26.67,1,1,0,0,0,.45.37,1.7,1.7,0,0,0,.66.11,1.07,1.07,0,0,0,1-.51,3.58,3.58,0,0,0,.29-1.65Z"></path><path class="cls-2" d="M134.52,83.94a1.68,1.68,0,0,1-.7.34,3.86,3.86,0,0,1-.89.1,2.67,2.67,0,0,1-1.09-.22,2.18,2.18,0,0,1-.86-.71,3.59,3.59,0,0,1-.56-1.25,7.43,7.43,0,0,1-.2-1.85,6.69,6.69,0,0,1,.23-1.89A3.68,3.68,0,0,1,131,77.2a2.24,2.24,0,0,1,.88-.69,2.58,2.58,0,0,1,1-.21,4.18,4.18,0,0,1,.89.08,3.41,3.41,0,0,1,.61.19l-.2.76a2,2,0,0,0-.52-.19,3.18,3.18,0,0,0-.69-.07,1.63,1.63,0,0,0-.74.17,1.67,1.67,0,0,0-.61.56,3.07,3.07,0,0,0-.42,1,6.36,6.36,0,0,0-.16,1.53,4.37,4.37,0,0,0,.56,2.45,1.72,1.72,0,0,0,1.48.82,2,2,0,0,0,.68-.11,2.15,2.15,0,0,0,.51-.25Z"></path><polygon class="cls-2" points="136.56 76.43 140.03 76.43 140.03 77.2 137.4 77.2 137.4 79.84 139.82 79.84 139.82 80.61 137.4 80.61 137.4 83.47 140.09 83.47 140.09 84.24 136.56 84.24 136.56 76.43"></polygon><path class="cls-2" d="M142.25,76.51a5.55,5.55,0,0,1,.81-.13c.29,0,.56,0,.81,0a3.16,3.16,0,0,1,.82.11,1.71,1.71,0,0,1,.68.36,1.75,1.75,0,0,1,.46.66,2.61,2.61,0,0,1,.17,1,2.56,2.56,0,0,1-.38,1.48,1.85,1.85,0,0,1-1,.75l.42.41,1.54,3.11h-1l-1.67-3.4-.84-.17v3.57h-.84Zm.84,3.6h.67a1.32,1.32,0,0,0,1-.39,1.69,1.69,0,0,0,.37-1.19,1.63,1.63,0,0,0-.31-1,1.08,1.08,0,0,0-.91-.4l-.46,0a2,2,0,0,0-.36,0Z"></path><path class="cls-2" d="M152.73,76.48a6.36,6.36,0,0,1,.87-.13q.47,0,.87,0a3.61,3.61,0,0,1,.88.11,1.88,1.88,0,0,1,.73.36,1.77,1.77,0,0,1,.5.66,2.48,2.48,0,0,1,.18,1,2.44,2.44,0,0,1-.41,1.48,2,2,0,0,1-1.09.75l.45.41,1.65,3.11h-1l-1.79-3.4-.9-.17v3.57h-.9Zm.9,3.6h.72a1.46,1.46,0,0,0,1.07-.39,1.62,1.62,0,0,0,.39-1.19,1.56,1.56,0,0,0-.33-1,1.19,1.19,0,0,0-1-.4l-.5,0a2.22,2.22,0,0,0-.39,0Z"></path><polygon class="cls-2" points="159.83 76.41 163.54 76.41 163.54 77.17 160.73 77.17 160.73 79.82 163.32 79.82 163.32 80.59 160.73 80.59 160.73 83.45 163.6 83.45 163.6 84.22 159.83 84.22 159.83 76.41"></polygon><path class="cls-2" d="M168.49,80.32h2.3v3.44a2.23,2.23,0,0,1-.86.44,3.86,3.86,0,0,1-1.06.15,3,3,0,0,1-1.21-.23,2.31,2.31,0,0,1-.93-.73,3.59,3.59,0,0,1-.59-1.26,6.93,6.93,0,0,1-.21-1.82,6,6,0,0,1,.25-1.86,3.56,3.56,0,0,1,.67-1.25,2.58,2.58,0,0,1,1-.71,2.92,2.92,0,0,1,1.12-.22,5.39,5.39,0,0,1,1,.07,3,3,0,0,1,.66.2l-.21.76a2.19,2.19,0,0,0-.57-.19A3.79,3.79,0,0,0,169,77a2,2,0,0,0-.8.17,1.79,1.79,0,0,0-.69.55,2.91,2.91,0,0,0-.48,1,5.68,5.68,0,0,0-.18,1.54,4.3,4.3,0,0,0,.57,2.47,1.81,1.81,0,0,0,1.56.8,1.78,1.78,0,0,0,1-.28V81l-1.54-.22Z"></path><rect class="cls-2" x="173.6" y="76.4" width="0.9" height="7.81"></rect><path class="cls-2" d="M177.4,83.18a2.7,2.7,0,0,0,.64.27,3.16,3.16,0,0,0,.94.13,1.78,1.78,0,0,0,1.09-.31,1.12,1.12,0,0,0,.42-1,1.24,1.24,0,0,0-.24-.76,3,3,0,0,0-.6-.6q-.36-.27-.77-.54a6.16,6.16,0,0,1-.77-.58,3,3,0,0,1-.6-.73,2,2,0,0,1-.24-1,1.62,1.62,0,0,1,.6-1.39,2.55,2.55,0,0,1,1.57-.45,5.07,5.07,0,0,1,1.06.1,2.85,2.85,0,0,1,.75.26l-.29.74a2.52,2.52,0,0,0-.62-.22,3.82,3.82,0,0,0-.92-.1,1.35,1.35,0,0,0-1,.3,1,1,0,0,0-.31.74,1.08,1.08,0,0,0,.24.69,3.2,3.2,0,0,0,.6.57q.36.27.77.54a6,6,0,0,1,.77.61,3.19,3.19,0,0,1,.6.76,2,2,0,0,1,.24,1,2,2,0,0,1-.62,1.54,2.54,2.54,0,0,1-1.76.56,4.66,4.66,0,0,1-1.18-.12,3.16,3.16,0,0,1-.73-.28Z"></path><polygon class="cls-2" points="188.55 77.17 186.49 77.17 186.49 84.22 185.6 84.22 185.6 77.17 183.54 77.17 183.54 76.41 188.55 76.41 188.55 77.17"></polygon><path class="cls-2" d="M190.94,76.48a6.36,6.36,0,0,1,.87-.13q.47,0,.87,0a3.61,3.61,0,0,1,.88.11,1.88,1.88,0,0,1,.73.36,1.77,1.77,0,0,1,.5.66,2.48,2.48,0,0,1,.18,1,2.44,2.44,0,0,1-.41,1.48,2,2,0,0,1-1.09.75l.45.41,1.65,3.11h-1l-1.79-3.4-.9-.17v3.57h-.9Zm.9,3.6h.72a1.46,1.46,0,0,0,1.08-.39A1.62,1.62,0,0,0,194,78.5a1.56,1.56,0,0,0-.33-1,1.19,1.19,0,0,0-1-.4l-.5,0a2.22,2.22,0,0,0-.39,0Z"></path><polygon class="cls-2" points="199.32 81.11 197.13 76.41 198.15 76.41 199.66 79.81 199.81 80.49 199.84 80.49 199.99 79.78 201.45 76.41 202.41 76.41 200.22 81.1 200.22 84.22 199.32 84.22 199.32 81.11"></polygon><polygon class="cls-2" points="119.42 46.8 119.3 46.93 104.45 11.15 97.36 11.15 97.36 55.28 102.34 55.28 102.34 19.09 102.47 19.02 117.92 55.28 124.35 55.28 124.35 11.15 119.42 11.15 119.42 46.8"></polygon><rect class="cls-2" x="132.33" y="11.14" width="5.47" height="44.27"></rect><path class="cls-2" d="M163.2,11.15H145.67V55.28h5.47V38.69h11.92c4.57,0,6.93-2.93,6.93-5.86V17.06c0-2.88-1.75-5.91-6.81-5.91M164.51,32c0,1.23-.27,2.23-2.06,2.23h-11.3V15.66h11.27a2.07,2.07,0,0,1,2.09,1.81Z"></path><path class="cls-2" d="M198.92,51.27c-.75-2.12-1.54-6.1-2.74-11.23a5.94,5.94,0,0,0-2.57-4c4-.35,6.07-3.08,6.07-5.82V17.06c0-2.88-1.75-5.91-6.81-5.91H175.34V55.38h5.22L180.81,36h6.31c1.95.24,2.74,1,3.3,3.18.49,1.93,2.38,10.11,2.6,11.23.75,3.83,2.19,4.79,2.19,4.79h6.44v-.13a8.64,8.64,0,0,1-2.74-3.84m-18.1-35.61h11.27a2.07,2.07,0,0,1,2.09,1.81V29.35c0,1.23-.27,2.23-2.06,2.23h-11.3Z"></path><g class="cls-3"><polygon class="cls-4" points="2.39 0.67 94.3 0 91.91 91.88 0 92.55 2.39 0.67"></polygon></g></g></g></svg> 