<svg id="Layer_1" data-name="Layer 1" xmlns="http://www.w3.org/2000/svg" viewBox="0 0 760 200"><defs><style>.cls-1{fill:#95a823;}.cls-2{fill:#43505f;}</style></defs><title>NDUSTRIAL_logo_HORIZONTAL</title><path class="cls-1" d="M230.39,143.54V99.79a4.57,4.57,0,0,0-2.28-4c-3.94-2.27-9.16-3.29-14.65-3.29-5.22,0-10.44.85-14.63,3.28a4.6,4.6,0,0,0-2.3,4v43.75a4.55,4.55,0,0,1-4.55,4.55h-2.42a4.55,4.55,0,0,1-4.55-4.55V93.15a4.6,4.6,0,0,1,1.91-3.72c7.15-5.11,17.24-7.72,26.54-7.72s19.31,2.4,26.56,7.71a4.58,4.58,0,0,1,1.89,3.69v50.43a4.55,4.55,0,0,1-4.55,4.55h-2.42A4.55,4.55,0,0,1,230.39,143.54Zm64.08,5.9c-12.06,0-21.73-4.22-27.63-9.62a4.58,4.58,0,0,1-1.5-3.38V94.71a4.45,4.45,0,0,1,1.4-3.28c6.62-6.19,16.19-9.72,27.05-9.72a39.66,39.66,0,0,1,12.29,1.87,4.56,4.56,0,0,0,6-4.29V55.1a4.54,4.54,0,0,1,4.54-4.54H319a4.54,4.54,0,0,1,4.55,4.54v81.32a4.54,4.54,0,0,1-1.51,3.38C316.31,145,306.87,149.44,294.47,149.44Zm17.61-49.15a4.56,4.56,0,0,0-2.14-3.86c-3.7-2.3-8.75-3.88-15.47-3.88s-12.1,1.76-15.82,4.46a4.45,4.45,0,0,0-1.79,3.62v29.75a4.58,4.58,0,0,0,1.92,3.72,29.43,29.43,0,0,0,31.47-.1,4.47,4.47,0,0,0,1.83-3.64Zm64.34,49.15c-9.1,0-19.23-2.29-26.6-7.83A4.6,4.6,0,0,1,348,138V87.61a4.54,4.54,0,0,1,4.54-4.54h2.42a4.55,4.55,0,0,1,4.55,4.54v43.68a4.46,4.46,0,0,0,2.23,3.91,30.45,30.45,0,0,0,14.7,3.41c5.31,0,10.53-.94,14.63-3.3a4.58,4.58,0,0,0,2.31-4V87.61a4.54,4.54,0,0,1,4.54-4.54h2.42a4.54,4.54,0,0,1,4.55,4.54v50.32A4.57,4.57,0,0,1,403,141.6C396,146.83,385.86,149.44,376.42,149.44Zm78.3,0c-9.46,0-17.7-2.34-24.4-6.92a4.57,4.57,0,0,1-2-3.77v-9a4.54,4.54,0,0,1,4.54-4.54H435a4.55,4.55,0,0,1,4.55,4.54v2.69a4.55,4.55,0,0,0,2.66,4.14,30.19,30.19,0,0,0,12.51,2.31c5.36-.11,9.13-.84,12.66-2.61a4.55,4.55,0,0,0,2.51-4.07v-2.44a4.54,4.54,0,0,0-3-4.28L431.61,113a4.54,4.54,0,0,1-3-4.28V92.39a4.56,4.56,0,0,1,2-3.76c6.58-4.58,14.7-6.92,24.16-6.92,9,0,17.22,2.14,24.14,6.91a4.59,4.59,0,0,1,2,3.78v8.88a4.55,4.55,0,0,1-4.55,4.55h-2.15a4.55,4.55,0,0,1-4.55-4.55V98.56a4.58,4.58,0,0,0-2.73-4.18c-3.42-1.51-7-2.1-12.17-2.1s-8.77.63-12.42,2.41a4.5,4.5,0,0,0-2.48,4.06v2.65a4.54,4.54,0,0,0,3,4.28l35.28,12.61a4.55,4.55,0,0,1,3,4.28v16.24a4.47,4.47,0,0,1-1.84,3.65C472.4,147.4,463.79,149.44,454.72,149.44Zm76.68-.67a25.74,25.74,0,0,1-20.69-9.67,4.52,4.52,0,0,1-1-2.84V98a4.54,4.54,0,0,0-4.55-4.54h-.93A4.55,4.55,0,0,1,499.7,89V87.61a4.54,4.54,0,0,1,4.54-4.54h.93a4.55,4.55,0,0,0,4.55-4.55V65.94a4.55,4.55,0,0,1,4.55-4.55h2.42a4.55,4.55,0,0,1,4.55,4.55V78.52a4.55,4.55,0,0,0,4.54,4.55h6.49a4.54,4.54,0,0,1,4.54,4.54V89a4.55,4.55,0,0,1-4.54,4.55h-6.49A4.54,4.54,0,0,0,521.24,98v33.43a4.59,4.59,0,0,0,1.68,3.54,13.52,13.52,0,0,0,8.48,2.92h2.22a4.55,4.55,0,0,1,4.55,4.55v1.74a4.55,4.55,0,0,1-4.55,4.55Zm52-55.54a21.08,21.08,0,0,0-10.78,3.17,4.51,4.51,0,0,0-2.09,3.82v43.32a4.55,4.55,0,0,1-4.54,4.55h-2.42a4.55,4.55,0,0,1-4.55-4.55V94a4.47,4.47,0,0,1,1.63-3.49,35.73,35.73,0,0,1,22.75-8.07h6.7a4.55,4.55,0,0,1,4.55,4.55v1.74a4.55,4.55,0,0,1-4.55,4.55Zm31.16,50.31V87.61a4.55,4.55,0,0,1,4.55-4.54h2.42a4.55,4.55,0,0,1,4.55,4.54v55.93a4.55,4.55,0,0,1-4.55,4.55h-2.42A4.55,4.55,0,0,1,614.57,143.54ZM623,51.72a6.75,6.75,0,1,0,3.41,8.92A6.75,6.75,0,0,0,623,51.72Zm54.54,97.72c-10.61,0-18.3-2.13-25.12-6.92a4.6,4.6,0,0,1-2-3.75v-20a4.55,4.55,0,0,1,2-3.74c6-4.17,14.4-6.79,23.64-6.79a51.71,51.71,0,0,1,11.86,1.28,4.55,4.55,0,0,0,5.62-4.42v-6.4a4.54,4.54,0,0,0-2.6-4.11c-3.53-1.64-7.72-2.33-13.12-2.33-4.87,0-8.67.41-12.23,1.76a4.56,4.56,0,0,0-2.94,4.26h0a4.54,4.54,0,0,1-4.55,4.54h-2.42a4.54,4.54,0,0,1-4.54-4.54V91.61a4.56,4.56,0,0,1,2.2-3.9c6.85-4.13,15.33-6,24.48-6s17.77,2.13,24.76,6.78a4.58,4.58,0,0,1,2.07,3.81v46.46a4.52,4.52,0,0,1-1.91,3.7C696.14,147.08,688.42,149.44,677.56,149.44Zm16-24.49a4.57,4.57,0,0,0-3.12-4.32,44.7,44.7,0,0,0-12.87-2.07c-5.69,0-9.92.55-13.8,2.57a4.54,4.54,0,0,0-2.45,4v7.24a4.57,4.57,0,0,0,2.8,4.2c3.34,1.43,7.76,2.17,13.45,2.27s10-.75,13.42-2.32a4.5,4.5,0,0,0,2.57-4.1Zm36.17,18.59V55.1a4.54,4.54,0,0,1,4.54-4.54h2.42a4.54,4.54,0,0,1,4.55,4.54v88.44a4.55,4.55,0,0,1-4.55,4.55h-2.42A4.55,4.55,0,0,1,729.72,143.54Z"/><path class="cls-1" d="M39.3,118.21A52.46,52.46,0,0,1,134.07,74l5.32-12a63.49,63.49,0,0,0-106,69.45Z"/><path class="cls-1" d="M143.66,68.54,137.72,81.8A52.46,52.46,0,0,1,43,126l-5.32,12a63.49,63.49,0,0,0,106-69.45Z"/><path class="cls-2" d="M83.66,70.91l9.68,25.37a7.62,7.62,0,0,0,14.08.38l19.72-44.28a7.61,7.61,0,0,1,7-4.52h0a7.62,7.62,0,0,1,7,10.72l-32.75,73.56a7.61,7.61,0,0,1-7,4.52h-3A6.88,6.88,0,0,1,92,132.21l-9.58-25.38a7.62,7.62,0,0,0-14.09-.41L50,147.57a7.65,7.65,0,0,1-7,4.53s-11.44-.8-7.05-10.72L67.37,70.76a7.6,7.6,0,0,1,7-4.53h2.53A7.28,7.28,0,0,1,83.66,70.91Z"/><circle class="cls-2" cx="140.82" cy="40.48" r="6.16"/><circle class="cls-2" cx="147.29" cy="25.98" r="5.25"/><circle class="cls-2" cx="153.67" cy="11.7" r="4.58"/><circle class="cls-2" cx="36.2" cy="159.52" r="6.16"/><circle class="cls-2" cx="29.73" cy="174.02" r="5.25"/><circle class="cls-2" cx="23.35" cy="188.3" r="4.58"/></svg>