<?xml version="1.0" encoding="UTF-8"?>
<!DOCTYPE svg PUBLIC "-//W3C//DTD SVG 1.1//EN" "http://www.w3.org/Graphics/SVG/1.1/DTD/svg11.dtd">
<svg xmlns="http://www.w3.org/2000/svg" version="1.1" width="540px" height="304px" style="shape-rendering:geometricPrecision; text-rendering:geometricPrecision; image-rendering:optimizeQuality; fill-rule:evenodd; clip-rule:evenodd" xmlns:xlink="http://www.w3.org/1999/xlink">
<g><path style="opacity:0.992" fill="#76b900" d="M 245.5,71.5 C 269.833,71.5 294.167,71.5 318.5,71.5C 318.5,97.1667 318.5,122.833 318.5,148.5C 294.167,148.5 269.833,148.5 245.5,148.5C 245.5,145.5 245.5,142.5 245.5,139.5C 224.542,135.552 210.209,123.552 202.5,103.5C 214.224,91.2463 228.557,83.913 245.5,81.5C 245.5,78.1667 245.5,74.8333 245.5,71.5 Z M 246.5,82.5 C 264.311,82.5721 278.978,89.4054 290.5,103C 282.869,112.958 273.202,120.291 261.5,125C 256.58,126.25 251.58,126.75 246.5,126.5C 246.5,125.167 246.5,123.833 246.5,122.5C 254.858,123.657 262.191,121.49 268.5,116C 272.548,112.288 276.215,108.288 279.5,104C 271.719,92.4388 260.719,86.6055 246.5,86.5C 246.5,85.1667 246.5,83.8333 246.5,82.5 Z M 239.5,88.5 C 241.5,88.5 243.5,88.5 245.5,88.5C 245.5,90.5 245.5,92.5 245.5,94.5C 236.036,94.8932 228.703,98.8932 223.5,106.5C 226.891,117.391 234.057,124.391 245,127.5C 245.494,129.134 245.66,130.801 245.5,132.5C 230.94,128.446 220.94,119.279 215.5,105C 221.995,97.2569 229.995,91.7569 239.5,88.5 Z M 246.5,94.5 C 255.082,93.9612 262.082,96.9612 267.5,103.5C 265.249,106.295 262.582,108.628 259.5,110.5C 256.721,105.219 252.554,101.552 247,99.5C 246.506,97.8659 246.34,96.1992 246.5,94.5 Z M 243.5,100.5 C 244.82,103.428 245.486,106.761 245.5,110.5C 245.333,113.833 245.167,117.167 245,120.5C 239.726,117.226 235.892,112.726 233.5,107C 236.465,104.033 239.799,101.866 243.5,100.5 Z M 295.5,113.5 C 300.048,115.107 304.381,117.274 308.5,120C 294.345,129.722 278.678,135.722 261.5,138C 256.511,138.499 251.511,138.666 246.5,138.5C 246.5,136.833 246.5,135.167 246.5,133.5C 260.875,134.656 273.875,130.823 285.5,122C 289.025,119.302 292.358,116.469 295.5,113.5 Z"/></g>
<g><path style="opacity:0.864" fill="#000000" d="M 193.5,160.5 C 199.176,160.334 204.843,160.501 210.5,161C 215.981,161.147 219.815,163.647 222,168.5C 222.5,176.159 222.666,183.826 222.5,191.5C 219.5,191.5 216.5,191.5 213.5,191.5C 213.666,184.825 213.5,178.158 213,171.5C 209.959,169.071 206.459,168.071 202.5,168.5C 202.5,176.167 202.5,183.833 202.5,191.5C 199.5,191.5 196.5,191.5 193.5,191.5C 193.5,181.167 193.5,170.833 193.5,160.5 Z"/></g>
<g><path style="opacity:0.836" fill="#000000" d="M 223.5,160.5 C 226.572,160.183 229.572,160.516 232.5,161.5C 234.568,168.203 236.734,174.87 239,181.5C 241,174.833 243,168.167 245,161.5C 248.125,160.213 251.291,160.213 254.5,161.5C 251.24,171.381 247.907,181.214 244.5,191C 240.245,191.796 236.079,191.629 232,190.5C 228.65,180.621 225.817,170.621 223.5,160.5 Z"/></g>
<g><path style="opacity:0.843" fill="#000000" d="M 256.5,160.5 C 259.5,160.5 262.5,160.5 265.5,160.5C 265.5,170.833 265.5,181.167 265.5,191.5C 262.5,191.5 259.5,191.5 256.5,191.5C 256.5,181.167 256.5,170.833 256.5,160.5 Z"/></g>
<g><path style="opacity:0.857" fill="#000000" d="M 269.5,160.5 C 277.325,160.191 284.992,161.024 292.5,163C 298.421,169.152 299.921,176.318 297,184.5C 294.341,189.414 290.174,191.581 284.5,191C 279.511,191.499 274.511,191.666 269.5,191.5C 269.5,181.167 269.5,170.833 269.5,160.5 Z M 278.5,168.5 C 288.342,168.34 291.342,172.84 287.5,182C 284.649,183.289 281.649,183.789 278.5,183.5C 278.5,178.5 278.5,173.5 278.5,168.5 Z"/></g>
<g><path style="opacity:0.843" fill="#000000" d="M 301.5,160.5 C 304.5,160.5 307.5,160.5 310.5,160.5C 310.5,170.833 310.5,181.167 310.5,191.5C 307.5,191.5 304.5,191.5 301.5,191.5C 301.5,181.167 301.5,170.833 301.5,160.5 Z"/></g>
<g><path style="opacity:0.839" fill="#000000" d="M 323.5,160.5 C 327.555,160.176 331.555,160.509 335.5,161.5C 339.97,171.246 343.636,181.246 346.5,191.5C 343.428,191.817 340.428,191.484 337.5,190.5C 336.736,186.06 334.07,184.394 329.5,185.5C 324.93,184.394 322.264,186.06 321.5,190.5C 318.572,191.484 315.572,191.817 312.5,191.5C 315.97,181.091 319.636,170.758 323.5,160.5 Z M 328.5,169.5 C 329.497,169.47 330.164,169.97 330.5,171C 331.308,173.761 332.308,176.428 333.5,179C 330.773,179.818 328.106,179.652 325.5,178.5C 327.105,175.686 328.105,172.686 328.5,169.5 Z"/></g>
<g><path style="opacity:0.424" fill="#000000" d="M 348.5,184.5 C 353.159,184.015 354.492,185.848 352.5,190C 347.728,190.81 346.395,188.977 348.5,184.5 Z"/></g>
<g><path style="opacity:0.839" fill="#070707" d="M 291.5,209.5 C 294.505,209.253 297.005,210.253 299,212.5C 299.667,216.833 299.667,221.167 299,225.5C 295.333,229.5 291.667,229.5 288,225.5C 285.158,219.093 286.325,213.76 291.5,209.5 Z M 291.5,213.5 C 295.062,213.564 296.729,215.397 296.5,219C 296.604,223.249 294.771,224.749 291,223.5C 290.253,220.076 290.42,216.743 291.5,213.5 Z"/></g>
<g><path style="opacity:0.787" fill="#080808" d="M 236.5,209.5 C 237.978,209.238 239.311,209.571 240.5,210.5C 242.864,213.699 245.03,217.032 247,220.5C 247.499,216.848 247.665,213.182 247.5,209.5C 248.5,209.5 249.5,209.5 250.5,209.5C 250.5,215.5 250.5,221.5 250.5,227.5C 249.127,227.657 247.793,227.49 246.5,227C 245.04,223.911 243.207,221.078 241,218.5C 240.502,221.482 240.335,224.482 240.5,227.5C 239.167,227.5 237.833,227.5 236.5,227.5C 236.5,221.5 236.5,215.5 236.5,209.5 Z"/></g>
<g><path style="opacity:0.856" fill="#060606" d="M 254.5,209.5 C 258.5,209.5 262.5,209.5 266.5,209.5C 266.5,210.833 266.5,212.167 266.5,213.5C 263.5,213.5 260.5,213.5 257.5,213.5C 257.5,214.833 257.5,216.167 257.5,217.5C 259.833,217.5 262.167,217.5 264.5,217.5C 264.5,218.5 264.5,219.5 264.5,220.5C 262.167,220.5 259.833,220.5 257.5,220.5C 257.5,221.833 257.5,223.167 257.5,224.5C 260.5,224.5 263.5,224.5 266.5,224.5C 266.5,225.5 266.5,226.5 266.5,227.5C 262.5,227.5 258.5,227.5 254.5,227.5C 254.5,221.5 254.5,215.5 254.5,209.5 Z"/></g>
<g><path style="opacity:0.872" fill="#080808" d="M 268.5,209.5 C 269.822,209.33 270.989,209.663 272,210.5C 273.139,213.583 274.472,216.583 276,219.5C 277.484,216.531 278.984,213.531 280.5,210.5C 281.325,209.614 282.325,209.281 283.5,209.5C 283.5,215.5 283.5,221.5 283.5,227.5C 282.5,227.5 281.5,227.5 280.5,227.5C 280.663,225.143 280.497,222.81 280,220.5C 276.693,227.299 274.026,226.965 272,219.5C 271.503,222.146 271.336,224.813 271.5,227.5C 270.5,227.5 269.5,227.5 268.5,227.5C 268.5,221.5 268.5,215.5 268.5,209.5 Z"/></g>
</svg>
