<svg xmlns="http://www.w3.org/2000/svg" role="img" viewBox="308.15 735.65 3476.20 686.20"><style>svg {isolation:isolate}</style><defs><clipPath id="a"><path d="M0 0h4096v2160H0z"/></clipPath></defs><g fill-rule="evenodd" clip-path="url(#a)"><path fill="#35414A" d="M1200 924h51.78l163.51 252.74V924h41.65v312h-49.14l-165.93-252.531V1236H1200V924zm415.06 0h233.9v38.23h-191.53v94.73h177.12v36.1h-177.12v105.77h194.81V1236h-237.18V924zm612.7 37.168V924h-256.94v37.168h106.7V1236h43.55V961.168h106.69zm238.32 238.722c14.52 0 26.46-1.48 35.81-4.46 16.68-5.52 30.34-16.14 40.98-31.85 8.49-12.61 14.6-28.75 18.34-48.43 2.16-11.75 3.23-22.65 3.23-32.71 0-38.65-7.8-68.67-23.4-90.051-15.6-21.38-40.74-32.07-75.39-32.07h-76.15v239.571h76.58zM2346.35 924h128.36c43.57 0 77.37 15.221 101.38 45.664 21.43 27.469 32.14 62.656 32.14 105.556 0 33.13-6.32 63.08-18.98 89.84-22.29 47.29-60.61 70.94-114.98 70.94h-127.92V924zm524.1 46.301l48.74 137.839h-100.55l51.81-137.839zM2896.9 924h-49.19l-120.89 312h44.6l34.76-93.45h127l32.58 93.45h47.65L2896.9 924zm728.88 184.14l-48.75-137.839-51.81 137.839h100.56zM3554.3 924h49.18L3720 1236h-47.66l-32.57-93.45h-127.01l-34.75 93.45h-44.6l120.89-312zm-199.95 37.168V924h-261.88v37.168h108.75V1236h44.38V961.168h108.75z"/><path fill="#00CB51" d="M789.367 1356H653.808L376 804h394.341c153.336.29 277.579 128.207 277.659 286.01-.25 147.06-115.92 265.99-258.633 265.99z"/></g></svg>