<?xml version="1.0" encoding="utf-8"?>
<!-- Generator: Adobe Illustrator 26.5.0, SVG Export Plug-In . SVG Version: 6.00 Build 0)  -->
<svg version="1.1" xmlns="http://www.w3.org/2000/svg" xmlns:xlink="http://www.w3.org/1999/xlink" x="0px" y="0px"
	 viewBox="0 0 1080 1080" style="enable-background:new 0 0 1080 1080;" xml:space="preserve">
<style type="text/css">
	.st0{display:none;}
	.st1{display:inline;fill:#EB516C;}
	.st2{display:inline;fill:#00318D;}
	.st3{fill:#BCBEC0;}
	.st4{fill:#FFFFFF;}
	.st5{fill:none;stroke:#6D6E71;stroke-width:1.2233;stroke-miterlimit:10;}
	.st6{fill:none;stroke:#6D6E71;stroke-width:0.3058;stroke-miterlimit:10;}
	.st7{fill:none;stroke:#6D6E71;stroke-width:0.3007;stroke-miterlimit:10;}
	.st8{fill:#EB516C;}
	.st9{fill:#00318D;}
	.st10{fill:#231F20;}
</style>
<g id="Layer_2" class="st0">
</g>
<g id="Layer_1">
	<g>
		<g>
			<path class="st8" d="M413.66,638.44c16.19-6.67,30.43-17.83,40.77-32.44c2.81-3.96,2.66-9.29-0.36-13.09
				c-9-11.35-14.38-25.7-14.38-41.31c0-15.97,5.63-30.62,15.01-42.09c2.32-2.84,3.1-6.6,2.1-10.13c-2.81-9.89-0.23-20.74,7.31-28.24
				l0.85-0.85c6.95-6.95,17.12-9.29,26.59-6.63c11.97,3.36,25.36,0.35,34.8-9.05c14.5-14.44,13.99-38.26-1.6-52.02
				c-13.25-11.71-33.51-11.8-46.86-0.2c-10.72,9.31-14.45,23.35-11.18,35.95c2.59,9.99-0.14,20.61-7.46,27.9l0,0
				c-9.16,9.12-23.3,11.04-34.5,4.6c-5.96-3.43-12.4-6.25-19.25-8.35c-33.13-10.16-67.57-1.03-91.24,20.99
				c-5.94,5.52-14.89,6.19-21.42,1.38l-0.84-0.62c-4.65-3.43-7.08-9.05-6.55-14.8c0.75-8.16-3.01-16.51-10.71-21.17
				c-8.93-5.4-20.71-3.74-27.79,3.93c-9.17,9.94-7.47,25.32,3.1,33.11c6.48,4.78,14.7,5.52,21.65,2.68
				c5.45-2.22,11.66-1.52,16.4,1.97l0.58,0.43c6.55,4.82,8.59,13.6,5.07,20.93c-2.1,4.38-3.89,8.98-5.33,13.78
				c-14.7,49.09,13.27,101.32,62.27,116.3c12.22,3.74,24.61,4.84,36.57,3.65c5.98-0.6,11.49,3.29,12.96,9.12l0,0
				c0.91,3.6,0.18,7.46-2.14,10.36c-2.56,3.19-3.63,7.51-2.5,11.78c1.78,6.77,8.69,11.08,15.55,9.7c7.53-1.52,12.19-9,10.34-16.37
				c-1.03-4.11-3.87-7.29-7.44-8.91c-3.46-1.57-6.07-4.58-7.09-8.24l-0.01-0.02C405.34,646.76,408.19,640.7,413.66,638.44z
				 M406.09,607.15v-64.06c0-15.45-12.57-28.03-28.03-28.03c-15.45,0-28.03,12.57-28.03,28.03v64.06h-21.06v-64.06
				c0-27.11,21.98-49.09,49.09-49.09s49.09,21.98,49.09,49.09v64.06H406.09z"/>
		</g>
		<g>
			<g>
				<path class="st9" d="M556.97,552.07c0-9.87-2.05-19-6.34-27.28c-4.28-8.38-10.52-14.9-18.53-19.74
					c-8.01-4.75-17.04-7.17-27.01-7.17c-9.78,0-18.71,2.33-26.72,6.98c-8.1,4.66-14.43,11.17-18.99,19.46
					c-4.56,8.2-6.8,17.32-6.8,27.28c0,9.96,2.33,19.09,6.89,27.38c4.56,8.29,10.89,14.71,18.9,19.37
					c8.01,4.66,16.95,6.98,26.72,6.98c17.94,0,31.79-6.66,41.78-21.45l-15.44-10.29v-0.01c-6.07,8.9-14.18,12.47-26.34,12.47
					c-16.67,0-29.43-10.43-32.4-26.45h83.81C556.87,555.88,556.97,553.93,556.97,552.07z M473.16,541.17
					c3.81-14.99,15.92-24.49,31.93-24.49c15.74,0,27.94,9.4,31.75,24.49H473.16z"/>
			</g>
			<g>
				<path class="st9" d="M631.6,518.29v-18.25h-30.36v-23.93l-19.28-0.09v24.02h-17.04v18.25h17.04v47.92
					c0,22.53,14.62,36.88,36.59,36.88h13.04v-18.63h-10.99c-12.38,0-19.37-6.61-19.37-18.72v-47.45H631.6z"/>
			</g>
			<g>
				<path class="st9" d="M721.74,500.04V603.1h18.72V500.04H721.74z"/>
			</g>
			<g>
				<path class="st9" d="M838.83,569.2c-1.12-13.96-8.66-21.04-18.63-24.3c-4.84-1.49-11.27-2.98-19.65-4.38l-6.33-1.02
					c-1.49-0.28-3.35-0.75-5.49-1.21c-3.73-0.94-5.49-1.96-8.2-3.91c-1.59-1.21-2.61-3.26-2.61-6.33c0-6.89,6.7-12.2,19.56-12.2
					c10.73,0,17.63,4.61,19.95,12.83l18.13-4.38c-4.26-16.5-18.5-26.42-37.7-26.42c-22.45,0-38.93,12.02-38.93,30.73
					c0,4.84,0.74,8.94,2.33,12.2c1.86,3.73,3.35,6.15,6.14,8.29c1.96,1.49,3.36,2.61,4.29,3.26c1.21,0.75,2.7,1.4,4.28,1.96
					c3.26,1.21,5.87,2.05,9.87,3.07c2.98,0.65,6.43,1.3,10.15,1.95c4.84,0.84,8.94,1.68,12.38,2.61c3.82,0.93,5.68,1.95,8.38,4.19
					c1.95,1.68,2.98,4.01,2.98,7.36c0,7.63-7.73,13.31-20.95,13.31c-11.28,0-19.15-5.14-21.74-13.96l-18.69,4.24
					c4.39,17.75,19.49,28.26,39.87,28.26c23.93,0,40.79-12.57,40.79-32.6C839.01,571.99,838.92,570.78,838.83,569.2z"/>
			</g>
			<g>
				<circle class="st9" cx="731.1" cy="474.87" r="11.17"/>
			</g>
			<g>
				<path class="st9" d="M668.17,537.37c0-12.1,6.98-18.71,19.36-18.71h17.7v-18.62h-19.76c-21.96,0-36.57,14.34-36.57,36.86v66.19
					l19.26-0.09V537.37z"/>
			</g>
		</g>
	</g>
</g>
</svg>
