<?xml version="1.0" encoding="UTF-8" standalone="no"?>
<svg
   xmlns:dc="http://purl.org/dc/elements/1.1/"
   xmlns:cc="http://creativecommons.org/ns#"
   xmlns:rdf="http://www.w3.org/1999/02/22-rdf-syntax-ns#"
   xmlns:svg="http://www.w3.org/2000/svg"
   xmlns="http://www.w3.org/2000/svg"
   xmlns:sodipodi="http://sodipodi.sourceforge.net/DTD/sodipodi-0.dtd"
   xmlns:inkscape="http://www.inkscape.org/namespaces/inkscape"
   version="1.1"
   id="svg2"
   xml:space="preserve"
   width="732.84265"
   height="466.54001"
   viewBox="0 0 732.84265 466.54001"
   sodipodi:docname="vertical_stacked.ai"><metadata
     id="metadata8"><rdf:RDF><cc:Work
         rdf:about=""><dc:format>image/svg+xml</dc:format><dc:type
           rdf:resource="http://purl.org/dc/dcmitype/StillImage" /></cc:Work></rdf:RDF></metadata><defs
     id="defs6"><clipPath
       clipPathUnits="userSpaceOnUse"
       id="clipPath38"><path
         d="M 0,349.905 H 549.632 V 0 H 0 Z"
         id="path36" /></clipPath></defs><sodipodi:namedview
     pagecolor="#ffffff"
     bordercolor="#005eb8"
     borderopacity="1"
     objecttolerance="10"
     gridtolerance="10"
     guidetolerance="10"
     inkscape:pageopacity="0"
     inkscape:pageshadow="2"
     inkscape:window-width="640"
     inkscape:window-height="480"
     id="namedview4" /><g
     id="g10"
     inkscape:groupmode="layer"
     inkscape:label="vertical_stacked"
     transform="matrix(1.3333333,0,0,-1.3333333,0,466.54)"><g
       id="g12"
       transform="translate(240.271,261.0391)"><path
         d="m 0,0 -17.726,-30.703 28.125,-48.714 35.451,0.005 z"
         style="fill:#005eb8;fill-opacity:1;fill-rule:nonzero;stroke:none"
         id="path14" /></g><g
       id="g16"
       transform="translate(309.7905,298.8018)"><path
         d="m 0,0 -4.452,-7.743 34.79,-60.261 -34.79,-60.288 4.701,-7.329 39.022,67.617 z"
         style="fill:#005eb8;fill-opacity:1;fill-rule:nonzero;stroke:none"
         id="path18" /></g><g
       id="g20"
       transform="translate(298.9223,181.627)"><path
         d="M 0,0 28.374,49.171 0,98.342 h -47.011 l -11.984,18.833 -39.357,-68.004 39.022,-67.617 4.702,7.328 -34.791,60.289 30.648,53.086 z"
         style="fill:#005eb8;fill-opacity:1;fill-rule:nonzero;stroke:none"
         id="path22" /></g><g
       id="g24"
       transform="translate(50.103,102.7085)"><path
         d="M 0,0 H 7.956 L 36.599,-43.999 V 0 H 42.89 V -52.584 H 34.934 L 6.291,-8.511 V -52.584 H 0 Z"
         style="fill:#005eb8;fill-opacity:1;fill-rule:nonzero;stroke:none"
         id="path26" /></g><g
       id="g28"
       transform="translate(111.4946,50.1245)"><path
         d="m 0,0 v 52.584 h 30.825 v -5.55 H 6.291 V 29.863 h 22.5 V 24.312 H 6.291 V 5.551 H 30.825 V 0 Z"
         style="fill:#005eb8;fill-opacity:1;fill-rule:nonzero;stroke:none"
         id="path30" /></g><g
       id="g32"><g
         id="g34"
         clip-path="url(#clipPath38)"><g
           id="g40"
           transform="translate(158.9721,102.7085)"><path
             d="m 0,0 h 6.291 v -34.081 c 0,-2.098 0.179,-3.899 0.537,-5.403 0.358,-1.505 1.116,-2.912 2.276,-4.219 2.466,-2.788 6.106,-4.181 10.916,-4.181 3.478,0 6.384,0.758 8.714,2.276 2.331,1.517 3.843,3.657 4.535,6.42 0.32,1.307 0.48,3.009 0.48,5.107 V 0 h 6.218 c 0,-7.918 0.005,-14.395 0.017,-19.427 0.013,-5.033 0.019,-8.259 0.019,-9.677 0,-1.419 0.006,-2.553 0.018,-3.405 0.012,-0.851 0.019,-1.56 0.019,-2.127 0,-1.135 -0.025,-2.128 -0.073,-2.979 -0.05,-0.852 -0.217,-1.968 -0.5,-3.349 -0.283,-1.382 -0.673,-2.585 -1.167,-3.608 -0.493,-1.024 -1.238,-2.116 -2.238,-3.276 -0.999,-1.159 -2.183,-2.115 -3.553,-2.867 -1.368,-0.753 -3.121,-1.375 -5.255,-1.869 -2.133,-0.493 -4.546,-0.74 -7.234,-0.74 -2.886,0 -5.476,0.303 -7.771,0.907 -2.294,0.604 -4.095,1.326 -5.403,2.165 -1.308,0.838 -2.437,1.85 -3.385,3.034 -0.951,1.184 -1.605,2.202 -1.961,3.052 -0.358,0.852 -0.648,1.746 -0.87,2.684 -0.42,1.628 -0.63,3.935 -0.63,6.92 z"
             style="fill:#005eb8;fill-opacity:1;fill-rule:nonzero;stroke:none"
             id="path42" /></g><g
           id="g44"
           transform="translate(223.8423,77.5825)"><path
             d="m 0,0 h 9.067 c 1.258,0 2.369,0.042 3.329,0.129 0.962,0.087 2.092,0.321 3.387,0.704 1.295,0.382 2.368,0.912 3.22,1.591 0.85,0.678 1.578,1.665 2.183,2.96 0.603,1.295 0.907,2.831 0.907,4.608 0,1.258 -0.161,2.392 -0.482,3.404 -0.321,1.011 -0.728,1.844 -1.221,2.498 -0.494,0.653 -1.099,1.22 -1.814,1.702 -0.715,0.481 -1.406,0.845 -2.071,1.091 -0.667,0.247 -1.406,0.445 -2.22,0.592 -0.815,0.148 -1.488,0.241 -2.018,0.278 -0.53,0.037 -1.091,0.055 -1.683,0.055 L 0,19.612 Z m 28.384,10.694 c 0,-1.752 -0.21,-3.417 -0.63,-4.995 C 27.334,4.12 26.681,2.615 25.792,1.184 24.904,-0.247 23.678,-1.487 22.111,-2.535 20.544,-3.584 18.712,-4.354 16.615,-4.848 l 14.84,-22.61 H 24.424 L 10.177,-5.551 H 0 v -21.907 h -6.328 v 52.584 h 19.316 c 0.889,0 1.691,-0.025 2.407,-0.074 0.714,-0.049 1.633,-0.179 2.756,-0.388 1.122,-0.21 2.116,-0.494 2.979,-0.851 0.863,-0.358 1.769,-0.901 2.72,-1.628 0.949,-0.728 1.739,-1.586 2.369,-2.573 0.629,-0.986 1.146,-2.244 1.553,-3.774 0.407,-1.53 0.612,-3.244 0.612,-5.144"
             style="fill:#005eb8;fill-opacity:1;fill-rule:nonzero;stroke:none"
             id="path46" /></g><g
           id="g48"
           transform="translate(292.3745,97.75)"><path
             d="m 0,0 c -2.244,0 -4.402,-0.42 -6.476,-1.258 -2.072,-0.839 -3.978,-2.067 -5.716,-3.682 -1.74,-1.616 -3.133,-3.788 -4.182,-6.513 -1.049,-2.726 -1.572,-5.804 -1.572,-9.233 0,-3.281 0.481,-6.309 1.442,-9.084 0.962,-2.776 2.271,-5.101 3.924,-6.976 1.651,-1.875 3.607,-3.33 5.864,-4.367 2.258,-1.035 4.682,-1.554 7.272,-1.554 1.751,0 3.472,0.259 5.162,0.778 1.69,0.517 3.311,1.337 4.866,2.46 1.554,1.123 2.917,2.498 4.089,4.126 1.171,1.628 2.109,3.639 2.812,6.032 0.703,2.393 1.055,5.021 1.055,7.882 0,2.91 -0.37,5.576 -1.109,7.993 -0.741,2.417 -1.722,4.441 -2.944,6.069 -1.219,1.628 -2.639,3.003 -4.255,4.126 C 8.616,-2.078 6.951,-1.264 5.236,-0.758 3.521,-0.253 1.776,0 0,0 m 0.334,5.514 c 3.478,0 6.728,-0.61 9.75,-1.832 3.022,-1.221 5.637,-2.942 7.845,-5.162 2.208,-2.221 3.941,-4.99 5.2,-8.308 1.258,-3.318 1.888,-6.963 1.888,-10.935 0,-5.378 -1.069,-10.158 -3.202,-14.339 -2.134,-4.182 -5.094,-7.414 -8.88,-9.695 -3.789,-2.283 -8.075,-3.423 -12.86,-3.423 -3.158,0 -6.18,0.56 -9.067,1.683 -2.887,1.122 -5.489,2.757 -7.808,4.904 -2.318,2.146 -4.17,4.952 -5.55,8.418 -1.382,3.466 -2.073,7.37 -2.073,11.713 0,4.07 0.63,7.795 1.887,11.174 1.258,3.38 2.984,6.224 5.182,8.531 2.196,2.306 4.81,4.094 7.845,5.365 3.033,1.271 6.315,1.906 9.843,1.906"
             style="fill:#005eb8;fill-opacity:1;fill-rule:nonzero;stroke:none"
             id="path50" /></g><g
           id="g52"
           transform="translate(356.394,103.1162)"><path
             d="m 0,0 c 5.922,0 11.558,-1.493 16.912,-4.478 l -2.479,-4.7 c -1.875,0.987 -4.059,1.838 -6.55,2.553 -2.493,0.716 -5.008,1.074 -7.549,1.074 -2.59,0 -5.088,-0.481 -7.493,-1.444 -2.406,-0.961 -4.546,-2.312 -6.421,-4.051 -1.875,-1.74 -3.373,-3.935 -4.496,-6.588 -1.123,-2.652 -1.684,-5.556 -1.684,-8.714 0,-4.17 0.925,-7.919 2.775,-11.25 1.85,-3.33 4.405,-5.92 7.661,-7.771 3.257,-1.85 6.894,-2.775 10.916,-2.775 4.762,0 8.635,1.43 11.619,4.292 v 13.434 H -1.738 v 5.18 h 21.055 v -20.648 c -0.665,-0.765 -1.436,-1.506 -2.313,-2.221 -0.875,-0.716 -2.097,-1.542 -3.663,-2.479 -1.567,-0.938 -3.496,-1.696 -5.791,-2.276 -2.295,-0.579 -4.774,-0.869 -7.438,-0.869 -3.504,0 -6.729,0.523 -9.677,1.572 -2.949,1.048 -5.421,2.448 -7.42,4.201 -1.998,1.75 -3.688,3.792 -5.07,6.124 -1.382,2.331 -2.392,4.767 -3.034,7.308 -0.641,2.54 -0.962,5.131 -0.962,7.771 0,2.763 0.352,5.446 1.055,8.049 0.703,2.602 1.781,5.038 3.238,7.309 1.455,2.269 3.201,4.249 5.237,5.938 2.034,1.69 4.47,3.022 7.307,3.997 C -6.377,-0.487 -3.306,0 0,0"
             style="fill:#005eb8;fill-opacity:1;fill-rule:nonzero;stroke:none"
             id="path54" /></g><g
           id="g56"
           transform="translate(391.9936,102.7085)"><path
             d="M 0,0 H 6.291 V -47.07 H 29.9 v -5.514 H 0 Z"
             style="fill:#005eb8;fill-opacity:1;fill-rule:nonzero;stroke:none"
             id="path58" /></g><path
           d="m 435.031,102.709 h 6.29 V 50.125 h -6.29 z"
           style="fill:#005eb8;fill-opacity:1;fill-rule:nonzero;stroke:none"
           id="path60" /><g
           id="g62"
           transform="translate(476.9936,96.5659)"><path
             d="M 0,0 -8.955,-25.645 H 8.919 Z m -3.294,6.143 h 7.143 l 18.687,-52.584 h -6.365 l -5.329,15.283 h -21.685 l -5.328,-15.283 h -5.809 z"
             style="fill:#005eb8;fill-opacity:1;fill-rule:nonzero;stroke:none"
             id="path64" /></g></g></g></g></svg>
