<svg xmlns="http://www.w3.org/2000/svg" role="img" viewBox="0.24 69.25 403.26 91.76"><title>NeuVector-NEW-01.svg</title><path fill="#404040" d="M130.03458 142.21012v-31.32159h.61648c1.75292-.00266 3.50519.00266 5.25811-.02064.29691-.00266.40077.07789.39013.35618-.008.221-.00267.4394-.00267.65776q0 20.40194.01331 40.80056c0 .42674-.14047.5073-.52262.502q-2.40367-.023-4.80339 0a.769.769 0 0 1-.713-.35618q-5.51542-7.6415-11.04948-15.27034-5.64123-7.79827-11.27914-15.60387c-.18442-.25764-.36618-.51729-.56657-.79824-.05991.07524-.11184.11185-.11184.14846.008 5.37528.02863 10.75055.03395 16.12583.00467 5.07369-.008 10.14537.00467 15.21906.00266.43408-.13515.5406-.54592.53528q-2.65236-.023-5.308 0c-.41077.00532-.54592-.09854-.54592-.53528q.02-20.54974.01065-41.10545c0-.66777 0-.65777.67373-.65511 1.719.00266 3.43794-.01065 5.15691.00532a.74372.74372 0 0 1 .53.255q4.5018 6.15954 8.97764 12.3397 4.29509 5.90589 8.59219 11.80644 2.42265 3.3354 4.832 6.67082c.07524.10386.16378.19772.247.2936.03661-.01532.07523-.034.11185-.04927m82.89187-31.31631c2.10644 0 4.17692 0 6.24408-.00266.986 0 .96734.00266 1.29554.91807 1.29223 3.6097 2.60043 7.21674 3.89532 10.82378 1.03524 2.88137 2.05185 5.76807 3.09241 8.64944.79824 2.213 1.63043 4.41859 2.434 6.63155.87081 2.4027 1.72163 4.81338 2.58511 7.2194.01532.04128.05725.06991.1245.15047.30691-.83752.5985-1.63309.88944-2.42867q1.65374-4.55273 3.30545-9.10747 2.04418-5.62127 4.08838-11.23987 1.64175-4.50581 3.29746-9.003c.25965-.71035.512-1.42537.76163-2.13773a.64615.64615 0 0 1 .73631-.494c2.05451.02863 4.111.00467 6.16553-.00266.08322 0 .16443.00733.32821.01532-.1358.40077-.24233.75962-.38014 1.11047q-1.98526 5.12595-3.98386 10.25391-1.7286 4.44387-3.45592 8.88644-2.73123 7.03332-5.46181 14.064-1.51692 3.90463-3.05514 7.80193a.56774.56774 0 0 1-.41408.28828c-1.95266.016-3.90863.008-5.86395.01331a.4151.4151 0 0 1-.47335-.31756c-1.225-3.20626-2.4706-6.40253-3.70557-9.60613q-2.32578-6.02272-4.64228-12.05408-2.09511-5.44152-4.18957-10.87837-1.80651-4.68457-3.615-9.36979a.68588.68588 0 0 1-.00267-.18442m-62.49209 28.2918a10.70243 10.70243 0 0 0 1.96065 5.26876 9.30334 9.30334 0 0 0 6.90515 4.091 9.19273 9.19273 0 0 0 8.20472-3.2382c.34287-.40811.67841-.8242.98-1.26094.18773-.2703.3515-.30159.66108-.1691 1.51059.64978 3.03716 1.27425 4.67557 1.95532-.42142.61382-.80356 1.22764-1.24828 1.80219a12.89711 12.89711 0 0 1-4.24416 3.58906 13.44992 13.44992 0 0 1-5.09966 1.6251 38.20034 38.20034 0 0 1-5.08434.20305 14.59766 14.59766 0 0 1-8.26463-3.03249 15.26638 15.26638 0 0 1-5.7421-9.17206 16.00048 16.00048 0 0 1 1.13111-10.389 14.742 14.742 0 0 1 5.72146-6.47842 16.46631 16.46631 0 0 1 10.03021-2.34012 14.74545 14.74545 0 0 1 6.65018 1.94 13.42131 13.42131 0 0 1 5.07635 5.37261 20.33608 20.33608 0 0 1 2.31948 9.26326c.02331.93872.02863.93872-.952.93872q-11.59707-.004-23.19211-.00267c-.15313 0-.30626.02065-.48867.034m8.99563-4.093v-.00266c2.62639 0 5.25278-.00533 7.87983.00733.38746.00266.51729-.11652.452-.49665-.14514-.84218-.2157-1.703-.42343-2.52785a7.29046 7.29046 0 0 0-3.80742-4.90992 8.8341 8.8341 0 0 0-4.75146-.88412 7.53834 7.53834 0 0 0-4.51979 1.77889 9.51974 9.51974 0 0 0-3.183 6.60292c-.03927.40343.15579.43673.47069.43673q3.93959-.011 7.88249-.00467m99.91956 4.09293a10.75481 10.75481 0 0 0 1.96064 5.26876 9.30843 9.30843 0 0 0 6.90717 4.091 9.18582 9.18582 0 0 0 8.20274-3.2382c.34552-.40811.67839-.8242.98-1.26094.18773-.2703.35417-.30159.66376-.1691 1.51058.64978 3.03448 1.27425 4.67558 1.95532-.4241.61382-.80627 1.22764-1.24829 1.80219a12.88026 12.88026 0 0 1-4.24684 3.58906 13.43738 13.43738 0 0 1-5.097 1.6251 38.20029 38.20029 0 0 1-5.08435.20305 14.59057 14.59057 0 0 1-8.26462-3.03249 15.26638 15.26638 0 0 1-5.7421-9.17206 15.9834 15.9834 0 0 1 1.13111-10.389 14.742 14.742 0 0 1 5.72146-6.47842 16.4663 16.4663 0 0 1 10.0302-2.34012 14.765 14.765 0 0 1 6.65019 1.94 13.3967 13.3967 0 0 1 5.07371 5.37261 20.30545 20.30545 0 0 1 2.32213 9.26326c.02328.93872.0286.93872-.952.93872q-11.59709-.004-23.1921-.00267c-.15311 0-.30627.02065-.49135.034m8.99564-4.093v-.00266c2.629 0 5.25543-.00533 7.88251.00733.38745.00266.51727-.11652.452-.49665-.14779-.84218-.21569-1.703-.426-2.52785a7.28686 7.28686 0 0 0-3.80479-4.90992 8.8341 8.8341 0 0 0-4.75148-.88412 7.54583 7.54583 0 0 0-4.52243 1.77889 9.52753 9.52753 0 0 0-3.18027 6.60292c-.042.40343.15575.43673.47066.43673q3.93959-.011 7.87983-.00467m-65.64137 11.31967s-.43473 5.33665 2.55648 6.22876a12.04949 12.04949 0 0 0 4.56905 0v-5.42987s-2.13772.48334-2.13772-3.191V122.8614c0-.42875-.1012-.58986-.56455-.58253-1.685.02662-3.37.024-5.05506.00266-.41344-.00467-.54391.10451-.54125.53859.016 4.806.008 9.60944.008 14.41219a15.50106 15.50106 0 0 1-.51794 4.4006 8.96111 8.96111 0 0 1-2.35343 4.1736 7.1378 7.1378 0 0 1-6.25674 1.70365 5.286 5.286 0 0 1-3.76549-2.30416 9.63868 9.63868 0 0 1-1.55519-5.46116c-.026-5.62759-.01331-11.25785-.00266-16.88811.00266-.43472-.09919-.58519-.55923-.57786-1.70365.02863-3.40665.02129-5.10764.00266-.39812-.00266-.55923.07589-.55657.52794.01331 6.1349.00532 12.26979.01065 18.40735a17.09888 17.09888 0 0 0 .79557 5.47647 8.79879 8.79879 0 0 0 3.30545 4.59035 11.20788 11.20788 0 0 0 6.66284 1.79953 11.48521 11.48521 0 0 0 4.613-.94138 12.66491 12.66491 0 0 0 4.49382-3.3394zm154.64089 6.5197c-1.21167-.14249-2.44394-.18974-3.63034-.4494a13.81247 13.81247 0 0 1-7.63481-4.29609 15.10758 15.10758 0 0 1-3.129-5.65888 18.05984 18.05984 0 0 1-.68908-7.25069 16.77953 16.77953 0 0 1 1.31887-5.26077 13.50956 13.50956 0 0 1 4.093-5.24279 15.54445 15.54445 0 0 1 6.0124-2.7855 18.36645 18.36645 0 0 1 6.35593-.30691 15.62016 15.62016 0 0 1 5.43519 1.59181 13.29956 13.29956 0 0 1 4.9332 4.34 15.1755 15.1755 0 0 1 2.24959 5.06635 18.36218 18.36218 0 0 1-1.5732 12.67524 13.95887 13.95887 0 0 1-3.4559 4.18158 14.662 14.662 0 0 1-5.95315 2.892 19.68343 19.68343 0 0 1-4.33271.504m9.64608-15.61386c-.03661-.00533-.07322-.01-.10919-.01266a13.53141 13.53141 0 0 0-.918-5.33932 8.19221 8.19221 0 0 0-4.17164-4.5351 9.82319 9.82319 0 0 0-5.44315-.81421 8.20953 8.20953 0 0 0-4.33007 1.71365 9.60487 9.60487 0 0 0-3.32075 6.25472 16.6941 16.6941 0 0 0 .14848 6.18949 9.70384 9.70384 0 0 0 1.88539 4.14231 7.95167 7.95167 0 0 0 4.60032 2.81146 11.12955 11.12955 0 0 0 4.68622.04194 7.7193 7.7193 0 0 0 4.01783-2.09378 9.16048 9.16048 0 0 0 2.43932-4.619c.27826-1.22166.35152-2.49124.51528-3.73952m11.81973-15.0053h5.98376v6.11958c.1145-.10919.1924-.15378.229-.221a12.28651 12.28651 0 0 1 6.569-5.79469 7.57159 7.57159 0 0 1 3.51051-.52995c.09655.00734.18972.01.28359.026.60585.09321.64779.15313.59854.75163q-.21071 2.49657-.41609 4.99313c-.01065.10386-.02865.20772-.0473.35618-.21837-.0446-.41077-.10185-.60582-.12249-3.02184-.29627-5.70549.3615-7.68742 2.84541a9.31938 9.31938 0 0 0-1.64841 3.51317 24.96539 24.96539 0 0 0-.66839 6.50172c0 3.65365-.008 7.31.00532 10.9636 0 .35884-.09655.46069-.45807.458-1.75292-.01863-3.50584-.016-5.25807-.00266-.3382.00266-.42142-.09386-.41878-.4394.018-2.58244.01264-5.16223.01-7.74468q-.004-10.75919-.01-21.5224a1.13013 1.13013 0 0 1 .02865-.15112m-72.93906 25.45762a11.17281 11.17281 0 0 1-4.68622-.04194 7.94122 7.94122 0 0 1-4.60032-2.81146 9.72492 9.72492 0 0 1-1.88807-4.14231 16.75073 16.75073 0 0 1-.14584-6.18949 9.60515 9.60515 0 0 1 3.3208-6.25472 8.20937 8.20937 0 0 1 4.33-1.71365 9.08187 9.08187 0 0 1 5.44051.81421 7.741 7.741 0 0 1 3.181 3.46923l5.80135-1.89872c-.53791-2.28352-3.28946-4.69421-5.29472-5.72879a15.69793 15.69793 0 0 0-5.43519-1.59447 18.51308 18.51308 0 0 0-6.35857.30957 15.55162 15.55162 0 0 0-6.00976 2.7855 13.51649 13.51649 0 0 0-4.09568 5.24279 16.84714 16.84714 0 0 0-1.31619 5.26077 18.0579 18.0579 0 0 0 .6864 7.25069 15.14479 15.14479 0 0 0 3.129 5.65888 13.8196 13.8196 0 0 0 7.63748 4.29609c1.18636.25966 2.41867.30691 3.62835.4494a31.8354 31.8354 0 0 0 4.3347-.504c4.4106-.65841 8.46236-5.39124 8.98764-7.035l-5.42719-1.91936c-.05193.85615-3.667 3.98984-5.21951 4.29675m32.07059-1.77152a11.03855 11.03855 0 0 1-5.02974 1.36811c-2.97459 0-2.73558-3.04781-2.74622-4.23086-.036-5.069-.01532-10.56879-.01532-15.63515 0-.57721.00268-.57721.59253-.57721 1.33414-.00266 2.66832 0 6.24938 0v-5.061c-3.63567 0-5.02443 0-6.41582.008-.33487 0-.43674-.09321-.4341-.4394.01069-1.94266.008-3.45325.00537-9.57549H323.982c.00533 6.12224 0 7.63017.008 9.57283 0 .32756-.0779.45537-.43211.44206-.85547-.0233-1.71362-.008-2.56914-.00532h-1.53186v5.05837c2.24223-.00266 3.10039-.00266 3.95854-.00266.5692.00266.5692.00266.5692.56987.00269 5.24279.00269 10.91966.00537 16.16245a15.18081 15.18081 0 0 0 .50728 4.55373 5.52426 5.52426 0 0 0 2.64435 3.412 9.63392 9.63392 0 0 0 4.92592 1.01394 14.80392 14.80392 0 0 0 5.04771-.82154 4.716 4.716 0 0 0 1.78356-1.04056z"/><path fill="#a1d635" d="M62.59775 76.98458h24.4036a3.41992 3.41992 0 0 1 3.4189 3.41889v24.54435a3.41993 3.41993 0 0 1-3.4189 3.4189h-24.4036a3.41854 3.41854 0 0 1-3.4189-3.4189V80.40347a3.41854 3.41854 0 0 1 3.4189-3.41889m1.87878 26.08442h20.64335V82.28441H64.47653z"/><path fill="#42a342" d="M75.90611 93.44436H29.36164a6.52088 6.52088 0 0 0-6.52179 6.51964v6.65229l6.67333 4.032V100.0945h46.2414v46.55525h-46.2414v-28.52354l-6.67333-4.00668v32.66073a6.52133 6.52133 0 0 0 6.52179 6.52178h46.54447a6.52132 6.52132 0 0 0 6.52179-6.52178V99.964a6.52087 6.52087 0 0 0-6.52179-6.51964"/><path fill="#007300" d="M43.20117 85.01414H12.32431A4.32473 4.32473 0 0 0 8 89.34114v31.05374a4.326 4.326 0 0 0 4.32431 4.32647h30.87686a4.32611 4.32611 0 0 0 4.32485-4.32647v-12.17969l-14.97952 11.731-9.70665-5.82668v5.12511h-9.35667V90.49138h28.55967v2.953H29.36164a6.52088 6.52088 0 0 0-6.52179 6.51962v6.65229l9.437 5.70212L47.526 100.53507V89.34114a4.32485 4.32485 0 0 0-4.32485-4.327"/></svg>