<?xml version="1.0" encoding="utf-8"?>
<!-- Generator: Adobe Illustrator 23.0.2, SVG Export Plug-In . SVG Version: 6.00 Build 0)  -->
<svg version="1.1" xmlns="http://www.w3.org/2000/svg" xmlns:xlink="http://www.w3.org/1999/xlink" x="0px" y="0px"
	 viewBox="0 0 567.389 85.005" enable-background="new 0 0 567.389 85.005" xml:space="preserve">
<g id="Words">
	<g>
		<path fill="#013694" d="M143.988,69.01h-14.246l-17.994-31.49v31.49H98.253V16.527h14.246l17.994,31.489V16.527h13.496V69.01z"/>
		<path fill="#013694" d="M187.973,69.01h-36.988V22.359h36.988v9.33h-24.992v8.997h19.661v9.33h-19.661v9.664h24.992V69.01z"/>
		<path fill="#013694" d="M217.963,69.01h-11.996V31.689h-13.995v-9.33h39.987v9.33h-13.995V69.01z"/>
		<path fill="#013694" d="M250.619,69.01h-13.496V16.527h41.611v10.497h-28.116v12.371h22.118v10.497h-22.118V69.01z"/>
		<path fill="#013694" d="M325.471,56.347c0,4.665-1.056,8.054-3.166,10.164c-2.111,2.111-5.499,3.166-10.163,3.166h-16.661
			c-4.666,0-8.054-1.055-10.164-3.166c-2.11-2.11-3.166-5.498-3.166-10.164V35.021c0-4.665,1.056-8.052,3.166-10.163
			c2.11-2.11,5.498-3.166,10.164-3.166h16.661c4.665,0,8.052,1.056,10.163,3.166c2.11,2.111,3.166,5.498,3.166,10.163V56.347z
			 M313.474,35.021c0-2.666-1.332-3.999-3.999-3.999h-11.33c-2.665,0-3.999,1.333-3.999,3.999v21.326
			c0,2.666,1.333,3.999,3.999,3.999h11.33c2.666,0,3.999-1.333,3.999-3.999V35.021z"/>
		<path fill="#013694" d="M362.125,22.359h11.997v33.989c0,4.665-1.056,8.054-3.166,10.164c-2.111,2.111-5.498,3.166-10.163,3.166
			h-15.329c-4.665,0-8.053-1.055-10.163-3.166c-2.111-2.11-3.166-5.498-3.166-10.164V22.359h11.997v33.989
			c0,2.666,1.332,3.999,3.999,3.999h9.996c2.666,0,3.999-1.333,3.999-3.999V22.359z"/>
		<path fill="#013694" d="M422.106,69.01h-12.663l-15.994-27.991V69.01h-11.997V22.359h12.663l15.995,27.991V22.359h11.996V69.01z"
			/>
		<path fill="#013694" d="M455.427,22.359c5.021,0,8.831,1.3,11.43,3.898c2.599,2.599,3.898,6.41,3.898,11.43v15.995
			c0,5.022-1.299,8.83-3.898,11.43c-2.599,2.599-6.41,3.899-11.43,3.899h-25.992V22.359H455.427z M458.76,37.687
			c0-3.999-1.999-5.998-5.998-5.998h-11.33V59.68h11.33c3.999,0,5.998-1.999,5.998-5.998V37.687z"/>
		<path fill="#013694" d="M477.419,22.359h27.991c4.666,0,8.053,1.056,10.164,3.166c2.109,2.111,3.165,5.498,3.165,10.163v5.998
			c0,3.688-0.611,6.555-1.833,8.598c-1.222,2.044-3.166,3.399-5.831,4.065l8.331,14.662H506.41l-7.664-13.995h-9.33V69.01h-11.997
			V22.359z M506.743,35.688c0-2.666-1.333-3.999-3.999-3.999h-13.329v13.995h13.329c2.665,0,3.999-1.333,3.999-3.999V35.688z"/>
		<path fill="#013694" d="M520.071,22.359h12.663l10.997,22.659l10.996-22.659h12.663l-17.661,34.322V69.01h-11.997V56.681
			L520.071,22.359z"/>
	</g>
	<g>
		<path fill="#013694" d="M559.455,69.237h-1.205v-3.749h-1.406V64.55h4.017v0.937h-1.406V69.237z"/>
		<path fill="#013694" d="M565.213,66.626l-0.937,1.674h-0.937l-0.937-1.674v2.611h-1.205V64.55h1.272l1.339,2.477l1.339-2.477
			h1.272v4.687h-1.205V66.626z"/>
	</g>
</g>
<g id="Logo_Mark">
	<linearGradient id="SVGID_1_" gradientUnits="userSpaceOnUse" x1="7.1864" y1="7.1864" x2="80.4189" y2="80.4189">
		<stop  offset="0" style="stop-color:#026CFF"/>
		<stop  offset="1" style="stop-color:#0545B8"/>
	</linearGradient>
	<circle fill="url(#SVGID_1_)" cx="42.502" cy="42.502" r="42.502"/>
	<polygon opacity="0.26" fill="#FFFFFF" points="10.838,23.738 10.815,60.644 42.973,79.245 75.108,60.666 75.108,23.753 
		42.897,5.206 	"/>
	<polyline fill="#C1CED3" points="58.796,32.993 42.857,42.142 27.1,32.993 27.126,14.335 42.829,5.206 58.748,14.335 58.82,32.993 
		42.857,42.142 	"/>
	<polyline fill="#9BF315" points="59.371,69.758 75.115,60.668 75.115,42.097 58.796,32.947 42.857,42.097 42.948,60.396 	"/>
	<polyline fill="#01B5FF" points="42.857,42.097 27.1,32.947 10.781,42.097 10.781,60.668 27.118,70.085 42.948,60.396 	"/>
	
		<path fill="none" stroke="#000000" stroke-width="0.5782" stroke-linecap="round" stroke-linejoin="round" stroke-miterlimit="10" d="
		M58.82,51.232"/>
	<path fill="none" stroke="#000000" stroke-width="0.5782" stroke-miterlimit="10" d="M27.1,51.246"/>
	<polygon opacity="0.35" fill="#FFFFFF" points="27.1,32.947 42.857,42.097 42.948,60.396 27.1,51.246 	"/>
	<polygon opacity="0.45" fill="#FFFFFF" points="58.796,32.947 58.796,51.246 42.948,60.396 42.857,42.097 	"/>
	<polygon opacity="0.8" fill="#FFFFFF" points="42.948,23.797 27.1,32.947 42.857,42.097 58.796,32.947 	"/>
	<polygon opacity="0.07" fill="#FFFFFF" points="10.772,23.678 42.829,5.236 75.139,23.731 42.857,42.059 	"/>
	<polygon opacity="0.1" fill="#FFFFFF" points="10.778,60.638 42.973,79.229 42.893,42.081 10.807,23.7 	"/>
</g>
</svg>
