<?xml version="1.0" encoding="UTF-8"?>
<svg xmlns="http://www.w3.org/2000/svg" xmlns:xlink="http://www.w3.org/1999/xlink" width="215pt" height="259pt" viewBox="0 0 215 259" version="1.1">
<g id="surface1">
<path style=" stroke:none;fill-rule:nonzero;fill:rgb(6.27451%,5.882353%,5.098039%);fill-opacity:1;" d="M 39.835938 224.636719 L 29.625 214.09375 L 29.585938 214.042969 L 28.238281 214.042969 L 28.238281 231.644531 L 31.90625 231.644531 L 31.90625 221.164062 L 42 231.59375 L 42.046875 231.644531 L 43.5 231.644531 L 43.5 214.042969 L 39.835938 214.042969 L 39.835938 224.636719 "/>
<path style=" stroke:none;fill-rule:nonzero;fill:rgb(6.27451%,5.882353%,5.098039%);fill-opacity:1;" d="M 56.691406 231.644531 L 60.34375 231.644531 L 60.34375 214.03125 L 56.691406 214.03125 L 56.691406 231.644531 "/>
<path style=" stroke:none;fill-rule:nonzero;fill:rgb(6.27451%,5.882353%,5.098039%);fill-opacity:1;" d="M 83.457031 225.222656 L 78.742188 225.28125 L 81.152344 219.097656 Z M 89.660156 231.628906 L 82.890625 214.144531 L 82.851562 214.042969 L 79.289062 214.042969 L 72.5625 231.414062 L 72.472656 231.644531 L 76.386719 231.644531 L 77.386719 228.996094 L 84.753906 228.996094 L 85.753906 231.644531 L 89.660156 231.628906 "/>
<path style=" stroke:none;fill-rule:nonzero;fill:rgb(6.27451%,5.882353%,5.098039%);fill-opacity:1;" d="M 115.617188 231.644531 L 117.0625 231.644531 L 117.0625 214.042969 L 113.40625 214.042969 L 113.40625 224.636719 L 103.195312 214.09375 L 103.148438 214.042969 L 101.808594 214.042969 L 101.808594 231.644531 L 105.472656 231.644531 L 105.472656 221.164062 L 115.566406 231.59375 L 115.617188 231.644531 "/>
<path style=" stroke:none;fill-rule:nonzero;fill:rgb(6.27451%,5.882353%,5.098039%);fill-opacity:1;" d="M 144.226562 214.042969 L 129.414062 214.042969 L 129.414062 217.601562 L 134.988281 217.601562 L 134.988281 231.644531 L 138.648438 231.644531 L 138.648438 217.601562 L 144.226562 217.601562 L 144.226562 214.042969 "/>
<path style=" stroke:none;fill-rule:nonzero;fill:rgb(6.27451%,5.882353%,5.098039%);fill-opacity:1;" d="M 156.441406 231.644531 L 160.089844 231.644531 L 160.089844 214.03125 L 156.441406 214.03125 L 156.441406 231.644531 "/>
<path style=" stroke:none;fill-rule:nonzero;fill:rgb(6.27451%,5.882353%,5.098039%);fill-opacity:1;" d="M 184.679688 226.527344 C 183.613281 227.414062 182.339844 227.859375 180.882812 227.859375 C 179.433594 227.859375 178.246094 227.402344 177.363281 226.492188 C 176.476562 225.585938 176.023438 224.335938 176.015625 222.789062 C 176.015625 221.339844 176.464844 220.136719 177.347656 219.21875 C 178.230469 218.292969 179.414062 217.824219 180.863281 217.8125 C 182.289062 217.8125 183.574219 218.269531 184.679688 219.164062 L 184.792969 219.257812 L 187.234375 216.5 L 187.109375 216.390625 C 185.386719 214.832031 183.285156 214.042969 180.863281 214.042969 C 178.46875 214.042969 176.429688 214.898438 174.808594 216.574219 C 173.1875 218.253906 172.359375 220.351562 172.351562 222.8125 C 172.351562 225.324219 173.175781 227.441406 174.800781 229.113281 C 176.429688 230.78125 178.464844 231.632812 180.863281 231.644531 C 183.28125 231.644531 185.382812 230.855469 187.109375 229.300781 L 187.234375 229.191406 L 184.792969 226.425781 L 184.679688 226.527344 "/>
<path style=" stroke:none;fill-rule:nonzero;fill:rgb(6.27451%,5.882353%,5.098039%);fill-opacity:1;" d="M 146.679688 85.210938 L 147.488281 82.394531 C 148.425781 80.015625 149.117188 77.523438 149.574219 74.953125 C 161.996094 81.824219 166.324219 86.058594 167.261719 87.691406 C 164.890625 88.589844 157.636719 87.875 146.679688 85.210938 Z M 120.632812 77.339844 C 115.976562 75.707031 111.042969 73.871094 105.867188 71.824219 C 97.730469 68.601562 90.417969 65.410156 83.988281 62.367188 C 90.613281 60.292969 98.019531 58.183594 106.160156 56.136719 C 111.128906 54.882812 115.867188 53.777344 120.363281 52.808594 C 120.367188 52.828125 120.375 52.851562 120.386719 52.875 C 128.304688 51.183594 136.988281 49.550781 144.925781 48.453125 C 144.921875 48.445312 144.921875 48.445312 144.917969 48.4375 C 156.925781 46.84375 164.984375 46.753906 167.902344 47.710938 C 166.019531 49.492188 160.238281 53.199219 148.828125 57.816406 C 148.523438 56.695312 148.171875 55.597656 147.777344 54.515625 C 140.210938 54.59375 132.230469 55.683594 121.941406 58.300781 C 122.398438 60.589844 122.667969 62.96875 122.667969 65.433594 C 122.667969 69.671875 121.933594 73.691406 120.632812 77.339844 Z M 76.925781 58.90625 C 76.179688 58.53125 75.453125 58.15625 74.734375 57.785156 C 76.226562 50.902344 79.652344 45 84.273438 41.007812 C 82.070312 46.816406 81.78125 53.988281 81.78125 57.339844 C 80.132812 57.859375 78.511719 58.382812 76.925781 58.90625 Z M 68.84375 54.609375 C 59.191406 49.210938 53.398438 44.859375 52.058594 42.554688 C 53.769531 42.277344 58.867188 42.324219 73.347656 45.867188 C 71.503906 48.574219 69.984375 51.503906 68.84375 54.609375 Z M 90.625 37.082031 C 93.039062 36.105469 95.609375 35.554688 98.289062 35.554688 C 106.351562 35.554688 113.476562 40.367188 117.910156 47.761719 C 113.523438 48.722656 109.128906 49.765625 104.816406 50.851562 C 97.988281 52.570312 91.363281 54.410156 85.117188 56.308594 C 85.203125 50.347656 86.324219 40.675781 90.625 37.082031 Z M 87.539062 103.128906 L 92.96875 144.949219 C 92.3125 144.632812 91.6875 144.34375 91.105469 144.085938 L 76.300781 94.0625 C 79.460938 97.683594 83.257812 100.761719 87.539062 103.128906 Z M 91.191406 104.953125 L 91.164062 104.96875 C 96.195312 106.683594 99.113281 110.820312 100.007812 114.898438 C 100.042969 115.515625 100.121094 116.101562 100.269531 116.605469 C 100.273438 116.675781 100.292969 116.742188 100.296875 116.804688 L 100.34375 116.804688 C 100.699219 117.859375 101.363281 118.546875 102.546875 118.546875 L 114.09375 118.546875 C 115.277344 118.546875 115.945312 117.859375 116.304688 116.804688 L 116.351562 116.804688 C 116.359375 116.734375 116.375 116.652344 116.386719 116.582031 C 116.523438 116.082031 116.601562 115.515625 116.636719 114.902344 C 117.527344 110.824219 120.457031 106.683594 125.484375 104.96875 L 125.457031 104.953125 C 125.527344 104.917969 125.605469 104.882812 125.679688 104.847656 L 120.933594 142.441406 C 111.644531 135.210938 100.625 130.566406 100.246094 130.375 L 102.300781 151.351562 C 101.667969 150.699219 101.023438 150.015625 100.261719 149.40625 C 99.121094 148.492188 97.855469 147.65625 96.578125 146.898438 L 91.125 104.921875 C 91.148438 104.929688 91.171875 104.941406 91.191406 104.953125 Z M 117.480469 171.105469 C 111.570312 170.894531 105.246094 170.597656 99.671875 170.367188 C 99.453125 169.074219 99.089844 165.355469 98.601562 162.355469 L 103.347656 162.054688 L 103.566406 164.277344 C 103.589844 164.621094 103.679688 165.609375 103.679688 165.609375 L 103.691406 165.605469 L 103.695312 165.667969 L 118.351562 164.324219 C 117.921875 167.03125 117.617188 170.28125 117.480469 171.105469 Z M 103.558594 135.515625 C 105.742188 136.589844 107.730469 137.445312 111.199219 139.9375 C 114.664062 142.429688 115.617188 143.355469 115.617188 143.363281 C 117.070312 151.796875 112.746094 157.015625 108.582031 159.667969 C 108.429688 159.460938 108.308594 159.269531 108.246094 159.152344 C 108.179688 159.035156 107.246094 157.332031 105.503906 155.0625 C 105.496094 155.035156 105.476562 155.023438 105.472656 155.003906 L 104.75 147.726562 L 103.5625 135.582031 Z M 88.683594 159.480469 L 86.980469 146.167969 C 89.316406 146.714844 93.09375 148.464844 94.445312 149.292969 C 94.742188 149.480469 95.027344 149.664062 95.316406 149.859375 C 96.207031 150.457031 97.066406 151.101562 97.828125 151.8125 C 98.214844 152.175781 98.574219 152.539062 98.933594 152.90625 C 100.546875 154.539062 101.878906 156.148438 102.902344 157.496094 C 103.1875 157.871094 103.460938 158.234375 103.695312 158.554688 Z M 150.164062 69.058594 C 150.175781 68.734375 150.199219 68.414062 150.199219 68.085938 C 150.199219 66.457031 150.066406 64.859375 149.871094 63.277344 C 175.453125 53.113281 174.269531 48.070312 173.878906 46.414062 C 173.683594 45.578125 173.125 44.386719 171.59375 43.457031 C 167.347656 40.886719 155.714844 41.308594 141.441406 43.386719 C 133.785156 33.835938 121.808594 27.671875 108.324219 27.671875 C 95.914062 27.671875 84.761719 32.890625 77.09375 41.175781 C 51.847656 34.78125 48.253906 37.011719 46.789062 39.875 C 46.363281 40.710938 46 42.082031 46.683594 43.882812 C 48.3125 48.179688 56.351562 53.980469 67.285156 60.007812 C 67.117188 60.8125 66.984375 61.625 66.863281 62.445312 C 64.523438 63.324219 62.292969 64.203125 60.203125 65.074219 C 42.519531 72.445312 40.871094 76.574219 41.59375 79.636719 C 41.945312 81.136719 42.84375 84.925781 55.492188 84.925781 C 59.171875 84.925781 63.847656 84.601562 69.789062 83.8125 C 69.890625 84.050781 69.992188 84.300781 70.101562 84.535156 L 87.164062 142.488281 C 84.589844 141.5 82.824219 141.117188 82.824219 141.117188 L 85.34375 163.101562 L 85.539062 163.085938 L 85.542969 163.1875 L 93.652344 162.679688 L 95.59375 170.207031 C 94.277344 170.148438 95.167969 170.101562 94.617188 170.074219 C 94.351562 170.070312 93.613281 169.542969 93.230469 169.265625 C 92.386719 168.664062 92.269531 168.03125 91.140625 167.992188 L 82.996094 167.617188 C 82.996094 167.617188 82.949219 168.714844 82.941406 169.074219 C 82.796875 173.25 84.707031 181.300781 89.957031 181.949219 C 90.398438 182.007812 90.996094 182.046875 91.722656 182.105469 C 93.496094 186.796875 94.855469 186.863281 95.472656 186.886719 C 95.605469 186.894531 95.78125 186.898438 95.949219 186.894531 C 99.246094 186.847656 106.578125 185.386719 114.320312 183.859375 C 116.523438 183.421875 126.277344 181.835938 128.089844 180.703125 C 130.640625 179.128906 132.214844 174.417969 132.617188 174.039062 C 133.566406 173.519531 141.023438 170.882812 141.652344 170.621094 C 142.429688 170.289062 142.660156 170.21875 142.507812 169.796875 C 142.269531 169.164062 142.070312 169.417969 141.109375 169.625 C 140.871094 169.675781 132.777344 171.265625 131.9375 171.503906 C 131.679688 171.496094 131.617188 171.496094 131.535156 171.496094 C 131.445312 171.488281 131.347656 171.488281 130.640625 171.460938 C 129.519531 171.421875 124.109375 171.34375 121.398438 171.25 L 123.472656 163.855469 L 136.84375 162.625 L 136.789062 162.566406 L 137 162.546875 C 137 162.546875 136.3125 161.175781 136.089844 160.769531 C 135.972656 160.5625 134.222656 156.910156 130.726562 152.335938 C 130.726562 152.335938 129.542969 150.921875 127.921875 149.136719 L 143.507812 96.285156 C 143.429688 96.265625 143.355469 96.25 143.273438 96.230469 C 142.3125 96 141.289062 95.734375 140.273438 95.476562 L 125.277344 146.328125 C 124.839844 145.882812 124.402344 145.449219 123.96875 145.035156 L 129.261719 103.0625 C 133.019531 100.960938 136.40625 98.308594 139.308594 95.230469 C 136.539062 94.503906 133.613281 93.675781 130.566406 92.757812 L 130.566406 92.753906 C 129.507812 92.4375 128.421875 92.097656 127.332031 91.757812 L 127.332031 91.765625 C 123.265625 90.492188 119.015625 89.074219 114.648438 87.535156 C 110.324219 92.347656 104.59375 95.304688 98.289062 95.304688 C 95.234375 95.304688 92.316406 94.597656 89.625 93.335938 L 87.476562 76.816406 C 86.257812 76.292969 85.066406 75.78125 83.917969 75.28125 L 85.984375 91.195312 C 80.433594 87.195312 76.28125 80.585938 74.667969 72.738281 C 71.878906 73.644531 69.347656 74.488281 67.136719 75.265625 C 67.34375 76.378906 67.613281 77.472656 67.914062 78.554688 C 54.527344 80.230469 48.851562 79.222656 47.222656 78.40625 C 49.28125 75.757812 59.613281 70.550781 76.5 64.804688 C 79.492188 66.285156 82.601562 67.761719 85.78125 69.207031 C 85.726562 69.222656 85.675781 69.242188 85.621094 69.257812 C 85.921875 69.390625 86.242188 69.527344 86.550781 69.660156 L 86.53125 69.554688 C 92.195312 72.121094 98.0625 74.601562 103.847656 76.890625 C 108.96875 78.917969 146 93.332031 163.628906 93.328125 C 168.070312 93.328125 171.289062 92.414062 172.441406 90.152344 C 173.464844 88.144531 176.082031 82.972656 150.164062 69.058594 "/>
</g>
</svg>
