<?xml version="1.0" standalone="no"?>
<!DOCTYPE svg PUBLIC "-//W3C//DTD SVG 1.1//EN" "http://www.w3.org/Graphics/SVG/1.1/DTD/svg11.dtd">
<svg width="1557" height="1645" viewBox="0 0 1557 1645" version="1.1" xmlns="http://www.w3.org/2000/svg" xmlns:xlink="http://www.w3.org/1999/xlink" xml:space="preserve" xmlns:serif="http://www.serif.com/" style="fill-rule:evenodd;clip-rule:evenodd;stroke-linecap:round;">
    <g id="Artboard1" transform="matrix(19.555129,0,0,39.699552,-770.810404,-62.497417)">
        <rect x="39.417" y="1.574" width="79.583" height="41.426" style="fill:none;"/>
        <clipPath id="_clip1">
            <rect x="39.417" y="1.574" width="79.583" height="41.426"/>
        </clipPath>
        <g clip-path="url(#_clip1)">
            <g transform="matrix(0.212327,-0.000446,0.00113,0.104588,39.159002,1.497428)">
                <path d="M39.417,39.312l211.257,213.292" style="fill:none;fill-rule:nonzero;stroke:rgb(29,29,51);stroke-width:76.85px;"/>
            </g>
            <g transform="matrix(0.212931,0,0,0.105151,39.343121,1.335257)">
                <path d="M215.804,253c0,21.222 17.203,38.426 38.425,38.426c21.222,0 38.426,-17.204 38.426,-38.426l-76.851,0Zm76.851,-213l0,-38.426l-76.851,-0l0,38.426l76.851,0Zm-76.851,213l76.851,0l0,-213l-76.851,0l0,213Z" style="fill:rgb(29,29,51);fill-rule:nonzero;"/>
            </g>
            <g transform="matrix(0.213073,0,0,0.104955,39.207018,1.508348)">
                <circle cx="41.487" cy="250.528" r="40.477" style="fill:rgb(67,65,131);"/>
            </g>
            <g transform="matrix(0.220255,0,-0,0.104955,37.667504,1.395836)">
                <path d="M331.598,39l-77.198,0" style="fill:none;fill-rule:nonzero;stroke:rgb(29,29,51);stroke-width:76.58px;stroke-linecap:square;"/>
            </g>
            <g transform="matrix(0.214341,0,0,0.10558,38.979807,1.239925)">
                <path d="M2,395.528l0,-53.313l28.703,0c10.242,0 15.364,5.126 15.364,15.378l0,37.935l-8.216,0l0,-38.966c0,-4.779 -2.392,-7.17 -7.178,-7.17l-20.457,0l0,46.136l-8.216,0Z" style="fill:rgb(29,29,51);fill-rule:nonzero;"/>
            </g>
            <g transform="matrix(0.214341,0,0,0.10558,38.979807,1.239925)">
                <path d="M61.875,332.593l0,-9.448l8.612,0l0,9.448l-8.612,0Zm0.209,62.955l0,-53.328l8.216,0l0,53.313l-8.216,0.015Z" style="fill:rgb(29,29,51);fill-rule:nonzero;"/>
            </g>
            <g transform="matrix(0.214341,0,0,0.10558,38.979807,1.239925)">
                <path d="M86.68,395.528l0,-53.313l60.497,0c10.258,0 15.384,5.126 15.379,15.378l0,37.935l-8.193,0l0,-38.966c0,-4.779 -2.393,-7.17 -7.178,-7.17l-18.448,0l0,46.136l-8.216,0l0,-46.136l-25.618,0l0,46.136l-8.223,0Z" style="fill:rgb(29,29,51);fill-rule:nonzero;"/>
            </g>
            <g transform="matrix(0.214341,0,0,0.10558,38.979807,1.239925)">
                <path d="M178.141,380.155l0,-57.01l8.216,0l0,19.075l19.464,0l0,7.178l-19.479,0l0,31.78c0,4.795 2.392,7.187 7.177,7.177l13.325,0l0,4.116l-4.101,3.077l-9.224,0c-10.252,-0.01 -15.378,-5.141 -15.378,-15.393Z" style="fill:rgb(29,29,51);fill-rule:nonzero;"/>
            </g>
            <g transform="matrix(0.214341,0,0,0.10558,38.979807,1.239925)">
                <path d="M217.914,380.149l0,-22.556c0,-10.257 5.126,-15.383 15.379,-15.378l13.324,0c10.257,0 15.384,5.126 15.379,15.378l0,14.759l-35.851,0l0,8.82c0,4.795 2.393,7.188 7.177,7.178l26.657,0l0,4.116l-4.108,3.076l-22.578,0c-10.257,-0.01 -15.384,-5.141 -15.379,-15.393Zm8.216,-14.937l27.68,0l0,-8.65c0,-4.779 -2.393,-7.17 -7.178,-7.17l-13.339,0c-4.79,0 -7.183,2.391 -7.178,7.17l0.015,8.65Z" style="fill:rgb(29,29,51);fill-rule:nonzero;"/>
            </g>
            <g transform="matrix(0.214341,0,0,0.10558,38.979807,1.239925)">
                <path d="M276.773,380.149l0,-22.556c0,-10.257 5.126,-15.383 15.378,-15.378l20.092,0l4.115,3.069l0,4.108l-24.214,0c-4.79,0 -7.182,2.391 -7.177,7.17l0,24.61c0,4.795 2.392,7.188 7.177,7.178l24.214,0l0,4.116l-4.1,3.076l-20.091,0c-10.263,-0.01 -15.394,-5.141 -15.394,-15.393Z" style="fill:rgb(29,29,51);fill-rule:nonzero;"/>
            </g>
            <g transform="matrix(0.214341,0,0,0.10558,38.979807,1.239925)">
                <path d="M329.25,395.533l0,-72.388l8.216,0l0,19.075l20.487,0c10.257,0 15.383,5.126 15.378,15.378l0,37.935l-8.215,0l0,-38.965c0,-4.78 -2.393,-7.17 -7.178,-7.17l-20.488,0l0,46.135l-8.2,0Z" style="fill:rgb(29,29,51);fill-rule:nonzero;"/>
            </g>
        </g>
    </g>
</svg>