<?xml version="1.0" encoding="utf-8"?>
<!-- Generator: Adobe Illustrator 28.1.0, SVG Export Plug-In . SVG Version: 6.00 Build 0)  -->
<svg version="1.1" id="Layer_1" xmlns="http://www.w3.org/2000/svg" xmlns:xlink="http://www.w3.org/1999/xlink" x="0px" y="0px"
	 width="800px" height="800px" viewBox="0 0 800 800" style="enable-background:new 0 0 800 800;" xml:space="preserve">
<style type="text/css">
	.st0{fill:#FFFFFF;}
</style>
<g>
	<g>
		<g>
			<polygon points="480.6,615.3 532.8,615.3 532.8,628.3 493.6,628.3 493.6,680.6 480.6,680.6 			"/>
		</g>
		<path d="M271.5,615.3v-21.8h-78.4v108.9h78.4v-21.8h0V615.3z M258.5,680.6h-13.1v-52.3h-26.1v52.3h-13.1v-65.3h52.3V680.6z"/>
		<path d="M280.2,680.6h52.3h13.1v-65.3h-65.3V680.6z M293.3,628.3h39.2v39.2h-39.2V628.3z"/>
		<path d="M593.8,615.3v52.3h-39.2v-52.3h-13.1v65.3h52.3v8.7H280.2v13.1h326.6v-87.1H593.8z"/>
		<g>
			<g>
				<polygon points="336.6,730.7 376.2,730.7 376.2,740.6 346.5,740.6 346.5,780.2 336.6,780.2 				"/>
			</g>
			<path d="M382.8,780.2h39.6h9.9v-49.5h-49.5V780.2z M392.7,740.6h29.7v29.7h-29.7V740.6z"/>
			<path d="M280.8,730.7v49.5v9.9v9.9h9.9v-9.9v-9.9h29.7h9.9v-49.5H280.8z M320.3,770.3h-29.7v-29.7h29.7V770.3z"/>
			<g>
				<polygon points="558.3,770.3 531.3,770.3 531.3,740.7 558.3,740.7 560.8,740.7 570.7,740.7 570.7,730.8 521.4,730.8 
					521.4,780.1 560.8,780.1 570.7,780.1 570.7,770.3 560.8,770.3 				"/>
			</g>
			<path d="M514.8,760.5v-29.7h-49.5v39.6v9.9h49.5v-9.9h-39.6v-9.9H514.8z M475.2,740.7h29.7v9.9h-29.7V740.7z"/>
			<g>
				<polygon points="597.1,770.2 597.1,740.5 606.9,740.5 606.9,730.6 597.1,730.6 597.1,714.1 587.2,714.1 587.2,730.6 
					577.3,730.6 577.3,740.5 587.2,740.5 587.2,780.1 597.1,780.1 597.1,780.1 606.9,780.1 606.9,770.2 				"/>
			</g>
			<rect x="448.8" y="714.2" width="9.9" height="9.9"/>
			<g>
				<polygon points="448.8,740.6 448.8,740.6 448.8,770.3 438.9,770.3 438.9,780.2 448.8,780.2 448.8,780.2 458.7,780.2 458.7,743 
					458.7,740.6 458.7,734 448.8,734 				"/>
				<rect x="448.8" y="714.2" width="9.9" height="9.9"/>
			</g>
		</g>
		<path d="M380.4,615.3v-21.8h-13.1v21.8h-13.1v13.1h13.1v52.3h13.1v0h13.1v-13.1h-13.1v-39.2h78.4v6.2h0v6.9h-52.3v39.2h65.3v-46.1
			v-6.2v0v-6.9v-6.2H380.4z M458.8,667.5h-39.2v-13.1h39.2V667.5z"/>
	</g>
	<path d="M606.9,114.9V0H193.1v574.6h413.7V459.7h0V114.9z M537.9,459.7h-69V183.9H331v275.8h-69V114.9h275.8V459.7z"/>
</g>
</svg>
