<?xml version="1.0" encoding="utf-8"?>
<svg version="1.1" id="Layer_1" xmlns="http://www.w3.org/2000/svg" xmlns:xlink="http://www.w3.org/1999/xlink" x="0px" y="0px"
	 viewBox="0 0 841.89 595.28" style="enable-background:new 0 0 841.89 595.28;" xml:space="preserve">
<style type="text/css">
	.st0{fill:url(#SVGID_1_);}
	.st1{fill:url(#SVGID_2_);}
	.st2{fill:url(#SVGID_3_);}
	.st3{fill:url(#SVGID_4_);}
</style>
<g>
	<linearGradient id="SVGID_1_" gradientUnits="userSpaceOnUse" x1="270.8305" y1="297.3874" x2="565.1293" y2="301.3779">
		<stop  offset="0" style="stop-color:#FF3399"/>
		<stop  offset="0.4608" style="stop-color:#FF6A62"/>
		<stop  offset="0.8253" style="stop-color:#FF9933"/>
	</linearGradient>
	<path class="st0" d="M270.78,266.08c2,0,4.22,1.66,6.66,4.99l33.1,37.51h0.22v-36.98c0-2.38,1.34-4.12,4.02-5.21
		c0.32-0.15,0.85-0.25,1.59-0.31c2.53,0,4.37,1.49,5.52,4.46l0.09,1.24v51.85c0,2.62-1.44,4.44-4.32,5.47l-1.28,0.22
		c-2.03,0-4.07-1.41-6.13-4.24c-21.39-24.21-32.6-36.96-33.63-38.26h-0.31v16.15c0,3.03-1.72,4.94-5.16,5.74h-0.53
		c-2.59,0-4.4-1.48-5.43-4.46c-0.06-0.38-0.09-0.69-0.09-0.93v-31.64c0-2.56,1.44-4.35,4.32-5.38
		C270.06,266.15,270.52,266.08,270.78,266.08z M271,318.02c1.82,0,3.41,0.99,4.77,2.96c0.5,1,0.75,1.91,0.75,2.74
		c0,2.47-1.38,4.24-4.15,5.3c-0.29,0.15-0.82,0.25-1.59,0.31c-2.38,0-4.13-1.37-5.25-4.1c-0.24-0.91-0.35-1.41-0.35-1.5
		c0-2.59,1.46-4.43,4.37-5.52C270.31,318.08,270.8,318.02,271,318.02z"/>
	<linearGradient id="SVGID_2_" gradientUnits="userSpaceOnUse" x1="270.8633" y1="294.9631" x2="565.1622" y2="298.9536">
		<stop  offset="0" style="stop-color:#FF3399"/>
		<stop  offset="0.4608" style="stop-color:#FF6A62"/>
		<stop  offset="0.8253" style="stop-color:#FF9933"/>
	</linearGradient>
	<path class="st1" d="M441.26,266.25c2.85,0,4.94,2.04,6.27,6.13c10.86,24.45,16.39,36.83,16.59,37.16h0.22
		c6.29-14.33,17.93-40.7,18.4-41.26c1.38-1.41,2.82-2.12,4.32-2.12c2.38,0,4.15,1.31,5.3,3.93c0.21,0.56,0.31,1.09,0.31,1.59v0.31
		c0,1-1.44,4.56-4.32,10.68c-7.06,15.95-19.12,43.33-19.68,44.3c-1.47,1.56-2.94,2.34-4.41,2.34c-2.94,0-5.03-1.97-6.27-5.91
		c-14.74-32.98-22.11-49.66-22.11-50.04c-0.15-0.41-0.25-0.87-0.31-1.37c0-2.29,1.24-4.06,3.71-5.3
		C439.92,266.49,440.58,266.34,441.26,266.25z"/>
	<linearGradient id="SVGID_3_" gradientUnits="userSpaceOnUse" x1="270.8746" y1="294.1335" x2="565.1734" y2="298.124">
		<stop  offset="0" style="stop-color:#FF3399"/>
		<stop  offset="0.4608" style="stop-color:#FF6A62"/>
		<stop  offset="0.8253" style="stop-color:#FF9933"/>
	</linearGradient>
	<path class="st2" d="M546.13,266.08c2.91,0,5.13,2.29,6.66,6.88c8.27,17.3,13.43,28.15,13.49,28.68c0.12,0.26,0.18,0.65,0.18,1.15
		v0.44c0,2.5-1.52,4.27-4.55,5.3c-0.47,0.06-0.85,0.09-1.15,0.09c-2.68,0-4.72-1.97-6.13-5.91c-4.68-10.06-8.18-17.28-8.51-17.78
		h-0.22c-12.74,26.83-19.58,40.95-20.52,42.36c-1.32,1.35-2.77,2.03-4.32,2.03c-2.38,0-4.15-1.37-5.3-4.1l-0.31-1.5
		c0-1.03,1.24-3.99,3.71-8.87c14.24-29.59,21.71-45.07,22.42-46.42C543.03,266.86,544.54,266.08,546.13,266.08z M571.2,318.02
		c2.3,0,4.02,1.27,5.16,3.8c0.21,0.65,0.35,1.25,0.44,1.81c0,2.09-1.09,3.78-3.27,5.07c-0.35,0.21-1.13,0.41-2.34,0.62
		c-2.65,0-4.52-1.51-5.6-4.55c-0.09-0.73-0.13-1.16-0.13-1.28c0-2.44,1.46-4.21,4.37-5.3C570.45,318.08,570.9,318.02,571.2,318.02z"
		/>
	<linearGradient id="SVGID_4_" gradientUnits="userSpaceOnUse" x1="270.8474" y1="296.1435" x2="565.1462" y2="300.134">
		<stop  offset="0" style="stop-color:#FF3399"/>
		<stop  offset="0.4608" style="stop-color:#FF6A62"/>
		<stop  offset="0.8253" style="stop-color:#FF9933"/>
	</linearGradient>
	<path class="st3" d="M380.04,329.36c-17.5,0-31.73-14.23-31.73-31.73s14.23-31.73,31.73-31.73s31.73,14.23,31.73,31.73
		S397.54,329.36,380.04,329.36z M380.04,277.25c-11.24,0-20.38,9.14-20.38,20.38S368.8,318,380.04,318
		c11.24,0,20.38-9.14,20.38-20.38S391.27,277.25,380.04,277.25z"/>
</g>
</svg>
