<?xml version="1.0" standalone="no"?><!-- Generator: Gravit.io --><svg xmlns="http://www.w3.org/2000/svg" xmlns:xlink="http://www.w3.org/1999/xlink" style="isolation:isolate" viewBox="0 0 346.498 245" width="346.498" height="245"><defs><clipPath id="_clipPath_KyJW9wU3Vcp3fSutYLrKa75qsmo6QqOI"><rect width="346.498" height="245"/></clipPath></defs><g clip-path="url(#_clipPath_KyJW9wU3Vcp3fSutYLrKa75qsmo6QqOI)"><g><path d=" M 52.539 80.209 L 52.539 90.605 L 68.393 90.605 L 68.393 129.615 L 79.62 129.615 L 79.62 90.605 L 95.477 90.605 L 95.477 80.209 L 52.539 80.209 L 52.539 80.209 Z " fill="rgb(80,135,199)"/><path d=" M 221.024 119.054 C 219.321 119.054 217.417 118.185 217.417 113.953 C 217.417 109.704 219.304 108.971 221.024 108.971 L 242.188 108.971 L 242.188 119.054 L 221.024 119.054 Z  M 237.322 80.209 L 209.054 80.209 L 209.054 90.692 L 236.575 90.692 C 240.612 90.692 242.188 92.528 242.188 97.263 C 242.192 97.285 242.192 98.61 242.192 99.008 L 219.381 99.008 C 210.708 99.008 206.392 103.347 206.392 113.148 L 206.392 115.483 C 206.392 125.574 210.867 129.605 219.852 129.605 L 253.295 129.605 L 253.295 97.13 C 253.295 84.682 249.183 80.209 237.322 80.209" fill="rgb(80,135,199)"/><path d=" M 314.229 119.054 C 312.53 119.054 310.621 118.185 310.621 113.953 C 310.621 109.704 312.51 108.971 314.229 108.971 L 335.404 108.971 L 335.404 119.054 L 314.229 119.054 Z  M 330.519 80.209 L 302.261 80.209 L 302.261 90.692 L 329.791 90.692 C 333.82 90.692 335.404 92.528 335.404 97.263 L 335.404 99.008 L 312.595 99.008 C 303.92 99.008 299.603 103.347 299.603 113.148 L 299.603 115.483 C 299.603 125.574 304.081 129.605 313.061 129.605 L 346.497 129.605 L 346.497 97.13 C 346.497 84.682 342.408 80.209 330.519 80.209" fill="rgb(80,135,199)"/><path d=" M 99.047 80.209 L 99.047 90.605 L 114.896 90.605 L 114.896 129.615 L 126.13 129.615 L 126.13 90.605 L 141.982 90.605 L 141.982 80.209 L 99.047 80.209 L 99.047 80.209 Z " fill="rgb(80,135,199)"/><path d=" M 255.552 80.209 L 255.552 90.605 L 271.411 90.605 L 271.411 129.615 L 282.633 129.615 L 282.633 90.605 L 298.5 90.605 L 298.5 80.209 L 255.552 80.209 L 255.552 80.209 Z " fill="rgb(80,135,199)"/><path d=" M 190.576 112.522 C 190.576 117.268 188.987 119.095 184.947 119.095 L 166.862 119.095 L 166.862 90.732 L 184.947 90.732 C 188.987 90.732 190.576 92.569 190.576 97.308 L 190.576 112.522 Z  M 202.038 112.306 L 202.038 97.525 C 202.038 84.568 197.013 80.209 185.694 80.209 L 155.635 80.209 L 155.635 129.605 L 186.214 129.605 C 198.244 129.605 202.038 123.639 202.038 112.306" fill="rgb(80,135,199)"/><path d=" M 36.711 117.847 C 36.471 117.406 21.468 88.17 19.631 85.291 C 17.516 81.963 14.941 79.66 10.009 79.66 C 5.426 79.66 0 81.685 0 92.689 L 0 129.627 L 11.068 129.627 L 11.068 98.822 C 11.068 96.61 10.928 93.335 10.905 92.678 C 10.882 92.128 10.905 91.611 11.182 91.454 C 11.501 91.268 11.815 91.576 12.034 91.984 C 12.241 92.394 26.156 119.898 29.107 124.546 C 31.226 127.858 33.8 130.191 38.729 130.191 C 43.311 130.191 48.744 128.142 48.744 117.142 L 48.744 80.194 L 37.668 80.194 L 37.668 111.008 C 37.668 113.221 37.808 116.508 37.834 117.16 C 37.863 117.708 37.834 118.206 37.557 118.386 C 37.246 118.561 36.923 118.254 36.711 117.847" fill="rgb(80,135,199)"/><path d=" M 176.582 146.479 C 178.413 147.457 179.521 149.169 179.937 151.656 L 177.433 151.656 C 177.242 150.446 176.575 149.362 175.582 148.645 C 174.527 147.973 173.292 147.641 172.043 147.694 C 170.396 147.669 168.826 148.388 167.768 149.651 C 166.607 150.976 166.035 152.928 166.035 155.522 C 166.035 157.774 166.509 159.612 167.468 161.003 C 168.424 162.423 169.975 163.126 172.126 163.126 C 173.634 163.182 175.106 162.65 176.23 161.641 C 177.315 160.654 177.859 159.059 177.894 156.831 L 172.053 156.831 L 172.053 154.714 L 180.246 154.714 L 180.246 165.274 L 178.616 165.274 L 177.999 162.395 C 177.363 163.17 176.611 163.84 175.769 164.384 C 174.491 165.062 173.056 165.39 171.61 165.333 C 169.529 165.369 167.517 164.587 166.006 163.156 C 164.299 161.34 163.436 158.851 163.436 155.671 C 163.436 152.513 164.275 149.987 165.944 148.131 C 167.499 146.372 169.751 145.389 172.098 145.443 C 173.656 145.4 175.2 145.757 176.582 146.479 L 176.582 146.479 Z  M 199.182 152.13 Q 200.981 153.946 200.981 157.452 C 200.981 159.718 200.455 161.574 199.399 163.05 Q 197.805 165.275 194.468 165.274 C 192.766 165.344 191.129 164.617 190.039 163.309 C 188.944 162.015 188.401 160.248 188.401 158.055 C 188.401 155.703 188.972 153.816 190.132 152.433 C 191.26 151.039 192.978 150.258 194.769 150.326 C 196.425 150.296 198.021 150.948 199.182 152.13 L 199.182 152.13 Z  M 197.763 161.461 C 198.33 160.223 198.614 158.875 198.597 157.514 C 198.639 156.421 198.433 155.333 197.993 154.332 C 197.357 153.028 196.261 152.388 194.701 152.388 C 193.461 152.306 192.286 152.95 191.689 154.04 C 191.033 155.26 190.709 156.631 190.749 158.016 C 190.703 159.322 191.029 160.614 191.689 161.742 C 192.317 162.738 193.316 163.236 194.681 163.236 C 196.182 163.236 197.21 162.64 197.763 161.461 L 197.763 161.461 Z  M 287.776 152.13 Q 289.587 153.946 289.585 157.452 C 289.585 159.718 289.055 161.574 287.995 163.05 C 286.935 164.533 285.296 165.274 283.063 165.274 C 281.363 165.343 279.728 164.616 278.638 163.309 C 277.547 162.015 277.004 160.248 277.004 158.055 C 277.004 155.703 277.576 153.816 278.73 152.433 C 279.858 151.039 281.577 150.258 283.369 150.326 C 285.024 150.295 286.618 150.947 287.776 152.13 Z  M 286.365 161.461 C 286.932 160.223 287.217 158.875 287.199 157.514 C 287.242 156.421 287.034 155.332 286.591 154.332 C 285.958 153.028 284.862 152.388 283.309 152.388 C 282.067 152.305 280.89 152.949 280.289 154.04 C 279.637 155.261 279.314 156.632 279.351 158.016 C 279.308 159.321 279.633 160.613 280.289 161.742 C 280.919 162.738 281.913 163.236 283.28 163.236 C 284.781 163.236 285.803 162.64 286.365 161.461 Z  M 224.993 156.242 C 225.443 156.229 225.85 155.969 226.052 155.566 C 226.167 155.273 226.219 154.959 226.206 154.645 C 226.262 153.95 225.944 153.278 225.372 152.88 C 224.648 152.473 223.823 152.281 222.994 152.325 C 221.8 152.325 220.96 152.671 220.462 153.34 C 220.14 153.837 219.952 154.41 219.916 155.001 L 217.782 155.001 C 217.824 153.255 218.366 152.034 219.411 151.351 C 220.493 150.656 221.757 150.298 223.042 150.323 C 224.406 150.263 225.759 150.594 226.942 151.277 C 227.937 151.925 228.503 153.06 228.423 154.245 L 228.423 162.38 C 228.41 162.591 228.462 162.802 228.572 162.983 C 228.728 163.15 228.956 163.231 229.182 163.2 C 229.288 163.2 229.399 163.194 229.525 163.183 C 229.661 163.17 229.796 163.149 229.93 163.12 L 229.93 164.882 C 229.571 164.986 229.303 165.053 229.116 165.086 C 228.864 165.113 228.611 165.125 228.357 165.124 C 227.669 165.169 227.011 164.835 226.642 164.253 C 226.432 163.844 226.3 163.4 226.251 162.943 C 225.714 163.637 225.026 164.2 224.24 164.59 C 223.357 165.066 222.368 165.31 221.365 165.299 C 220.212 165.339 219.092 164.902 218.271 164.09 C 217.472 163.306 217.036 162.225 217.068 161.105 C 217.002 159.968 217.434 158.858 218.253 158.066 C 219.121 157.307 220.207 156.84 221.355 156.731 L 224.993 156.242 Z  M 220.184 162.679 C 220.669 163.071 221.277 163.279 221.901 163.267 C 222.712 163.263 223.51 163.067 224.231 162.695 C 225.452 162.131 226.208 160.882 226.14 159.538 L 226.14 157.624 C 225.804 157.833 225.441 157.992 225.06 158.096 C 224.636 158.215 224.205 158.301 223.768 158.353 L 222.39 158.533 C 221.738 158.596 221.105 158.783 220.523 159.082 C 219.819 159.479 219.405 160.244 219.458 161.05 C 219.431 161.677 219.7 162.28 220.184 162.679 L 220.184 162.679 Z  M 311.912 156.242 C 312.361 156.227 312.766 155.967 312.967 155.566 C 313.083 155.273 313.134 154.959 313.118 154.645 C 313.174 153.95 312.857 153.279 312.286 152.88 C 311.563 152.472 310.739 152.28 309.911 152.325 C 308.72 152.325 307.876 152.671 307.375 153.34 C 307.057 153.84 306.871 154.411 306.832 155.001 L 304.705 155.001 C 304.743 153.255 305.284 152.034 306.33 151.351 C 307.412 150.656 308.676 150.299 309.962 150.323 C 311.323 150.262 312.673 150.593 313.853 151.277 C 314.847 151.916 315.341 152.892 315.341 154.245 L 315.341 162.38 C 315.329 162.591 315.379 162.8 315.485 162.983 C 315.644 163.152 315.875 163.233 316.105 163.2 C 316.202 163.2 316.316 163.194 316.445 163.183 C 316.582 163.171 316.718 163.15 316.853 163.12 L 316.853 164.882 C 316.584 164.964 316.312 165.032 316.037 165.086 C 315.784 165.112 315.53 165.125 315.275 165.124 C 314.587 165.171 313.928 164.837 313.561 164.253 C 313.347 163.845 313.213 163.401 313.165 162.943 C 312.629 163.635 311.944 164.198 311.162 164.59 C 310.277 165.065 309.286 165.309 308.282 165.299 C 307.128 165.34 306.009 164.902 305.188 164.09 C 304.392 163.305 303.957 162.224 303.989 161.105 C 303.922 159.968 304.354 158.858 305.172 158.066 C 306.038 157.307 307.121 156.84 308.267 156.731 L 311.912 156.242 Z  M 307.099 162.679 C 307.585 163.071 308.193 163.28 308.817 163.267 C 309.629 163.264 310.428 163.067 311.149 162.694 C 312.37 162.131 313.125 160.881 313.054 159.538 L 313.054 157.624 C 312.72 157.833 312.358 157.992 311.978 158.096 C 311.554 158.215 311.123 158.301 310.686 158.353 L 309.304 158.533 C 308.653 158.598 308.02 158.784 307.437 159.082 C 306.733 159.478 306.319 160.244 306.375 161.05 C 306.346 161.677 306.615 162.28 307.099 162.679 L 307.099 162.679 Z  M 243.716 145.443 L 245.996 145.443 L 245.996 165.274 L 243.716 165.274 L 243.716 145.443 Z  M 249.456 150.326 L 251.628 150.326 L 251.628 153 C 252.171 152.277 252.868 151.686 253.67 151.27 C 254.419 150.913 255.24 150.731 256.07 150.739 C 258.005 150.739 259.305 151.421 259.982 152.789 C 260.406 153.804 260.597 154.901 260.54 155.999 L 260.54 165.274 L 258.217 165.274 L 258.217 156.141 C 258.244 155.45 258.118 154.762 257.848 154.125 C 257.46 153.268 256.575 152.747 255.637 152.825 C 255.187 152.812 254.737 152.869 254.304 152.995 C 253.651 153.199 253.076 153.6 252.658 154.142 C 252.298 154.535 252.043 155.012 251.915 155.529 C 251.781 156.213 251.723 156.91 251.741 157.607 L 251.741 165.274 L 249.456 165.274 L 249.456 150.326 Z  M 263.612 150.326 L 265.783 150.326 L 265.783 153 C 266.326 152.277 267.024 151.686 267.826 151.27 C 268.575 150.912 269.396 150.731 270.225 150.739 Q 273.121 150.739 274.137 152.789 C 274.559 153.804 274.75 154.901 274.696 155.999 L 274.696 165.274 L 272.372 165.274 L 272.372 156.141 C 272.4 155.45 272.273 154.761 272.001 154.125 C 271.615 153.267 270.729 152.745 269.791 152.825 C 269.342 152.812 268.894 152.869 268.463 152.995 C 267.806 153.198 267.229 153.599 266.81 154.142 C 266.452 154.536 266.197 155.013 266.069 155.529 C 265.933 156.213 265.874 156.91 265.892 157.607 L 265.892 165.274 L 263.612 165.274 L 263.612 150.326 Z  M 292.887 150.343 L 296.826 162.493 L 300.921 150.343 L 303.56 150.343 L 298.016 165.274 L 295.515 165.274 L 290.081 150.343 L 292.887 150.343 Z  M 319.021 145.443 L 321.337 145.443 L 321.337 150.326 L 323.507 150.326 L 323.507 152.219 L 321.337 152.219 L 321.337 162.159 C 321.286 162.546 321.475 162.924 321.816 163.114 C 322.097 163.227 322.401 163.275 322.704 163.255 C 322.817 163.255 322.931 163.251 323.061 163.249 C 323.21 163.243 323.359 163.228 323.507 163.203 L 323.507 165.046 C 323.238 165.13 322.964 165.189 322.685 165.224 C 322.379 165.259 322.071 165.275 321.764 165.274 C 320.7 165.274 319.974 164.986 319.591 164.442 C 319.188 163.795 318.989 163.042 319.021 162.281 L 319.021 152.219 L 317.183 152.219 L 317.183 150.326 L 319.021 150.326 L 319.021 145.443 Z  M 335.521 152.13 Q 337.325 153.946 337.327 157.457 C 337.327 159.72 336.797 161.579 335.745 163.054 C 334.684 164.538 333.031 165.277 330.809 165.277 C 329.109 165.345 327.473 164.62 326.383 163.314 C 325.293 162.02 324.745 160.253 324.745 158.057 C 324.745 155.704 325.317 153.818 326.467 152.433 C 327.6 151.041 329.32 150.261 331.113 150.326 C 332.768 150.297 334.361 150.949 335.521 152.13 Z  M 334.106 161.461 C 334.677 160.225 334.961 158.876 334.938 157.515 C 334.985 156.421 334.777 155.332 334.331 154.333 C 333.694 153.028 332.601 152.388 331.05 152.388 C 329.809 152.306 328.633 152.95 328.033 154.04 C 327.377 155.26 327.053 156.631 327.091 158.016 C 327.044 159.323 327.371 160.616 328.033 161.744 C 328.662 162.745 329.661 163.239 331.026 163.239 Q 333.262 163.239 334.106 161.461 L 334.106 161.461 Z  M 339.882 150.326 L 342.039 150.326 L 342.039 153.015 C 342.369 152.372 342.821 151.799 343.368 151.326 C 343.997 150.679 344.864 150.318 345.766 150.326 C 345.831 150.326 345.895 150.331 345.959 150.341 C 346.061 150.347 346.243 150.368 346.498 150.395 L 346.498 152.838 C 346.367 152.812 346.234 152.795 346.101 152.789 C 345.994 152.785 345.873 152.784 345.757 152.784 C 344.743 152.714 343.755 153.123 343.088 153.89 C 342.476 154.772 342.154 155.823 342.168 156.897 L 342.168 165.274 L 339.882 165.274 L 339.882 150.326 Z  M 213.829 152.149 C 212.792 150.953 211.271 150.287 209.688 150.337 C 208.899 150.336 208.121 150.521 207.417 150.878 C 206.709 151.251 206.096 151.782 205.627 152.431 L 205.627 145.443 L 203.402 145.443 L 203.402 165.274 L 205.627 165.274 L 205.627 163.163 C 205.973 163.665 206.391 164.113 206.869 164.491 C 207.64 165.027 208.563 165.302 209.502 165.274 C 211.236 165.335 212.878 164.494 213.842 163.05 C 214.89 161.574 215.41 159.73 215.41 157.498 Q 215.41 153.96 213.829 152.149 L 213.829 152.149 Z  M 212.138 161.641 C 211.574 162.634 210.5 163.226 209.359 163.174 C 207.831 163.256 206.44 162.294 205.978 160.835 C 205.619 159.798 205.455 158.704 205.494 157.608 C 205.494 155.784 205.891 154.452 206.674 153.664 C 207.381 152.899 208.376 152.465 209.417 152.468 C 210.522 152.415 211.567 152.972 212.138 153.918 C 212.792 155.035 213.115 156.315 213.07 157.608 C 213.132 159.012 212.81 160.407 212.138 161.641 L 212.138 161.641 Z  M 234.755 163.114 C 234.406 162.93 234.204 162.552 234.246 162.159 L 234.246 145.443 L 231.957 145.443 L 231.957 162.281 C 231.924 163.042 232.123 163.796 232.528 164.442 C 232.914 164.986 233.636 165.274 234.7 165.274 C 234.895 165.274 235.077 165.266 235.248 165.252 L 235.248 163.241 C 235.077 163.23 234.91 163.187 234.755 163.114 L 234.755 163.114 Z  M 186.549 163.114 C 186.202 162.929 186.004 162.55 186.048 162.159 L 186.048 145.443 L 183.753 145.443 L 183.753 162.281 C 183.723 163.042 183.921 163.794 184.321 164.442 C 184.707 164.986 185.435 165.274 186.499 165.274 C 186.689 165.274 186.872 165.266 187.045 165.252 L 187.045 163.241 C 186.873 163.23 186.705 163.187 186.549 163.114 L 186.549 163.114 Z  M 84.494 145.476 L 84.494 147.837 L 77.908 147.837 L 77.908 165.274 L 75.239 165.274 L 75.239 147.837 L 68.653 147.837 L 68.653 145.476 L 84.494 145.476 Z  M 96.626 150.333 L 96.626 159.989 C 96.605 160.612 96.719 161.232 96.961 161.806 C 97.378 162.659 98.148 163.096 99.285 163.096 C 100.781 163.187 102.146 162.248 102.596 160.819 C 102.959 159.753 103.121 158.628 103.074 157.503 L 103.074 150.333 L 105.471 150.333 L 105.471 164.833 L 103.206 164.833 L 103.238 162.708 C 102.953 163.24 102.567 163.71 102.101 164.092 C 101.187 164.858 100.028 165.266 98.836 165.243 C 96.839 165.243 95.489 164.552 94.769 163.177 C 94.333 162.252 94.13 161.236 94.175 160.215 L 94.175 150.333 L 96.626 150.333 Z  M 110.087 160.338 C 110.108 160.985 110.319 161.613 110.695 162.141 C 111.305 162.912 112.375 163.27 113.897 163.27 C 114.728 163.291 115.549 163.096 116.282 162.704 C 116.948 162.375 117.356 161.681 117.32 160.938 C 117.323 160.361 117.002 159.83 116.489 159.565 C 115.823 159.269 115.125 159.049 114.41 158.907 L 112.481 158.438 C 111.525 158.243 110.603 157.907 109.746 157.441 C 108.77 156.922 108.166 155.901 108.18 154.796 C 108.142 153.548 108.686 152.353 109.652 151.562 C 110.638 150.743 111.954 150.333 113.625 150.333 Q 116.884 150.333 118.328 152.197 C 118.91 152.916 119.218 153.817 119.199 154.742 L 116.939 154.742 C 116.894 154.213 116.693 153.71 116.361 153.295 C 115.793 152.682 114.821 152.369 113.433 152.369 C 112.696 152.321 111.962 152.497 111.327 152.875 C 110.87 153.172 110.599 153.684 110.61 154.229 C 110.62 154.853 110.984 155.416 111.548 155.682 C 112.049 155.957 112.591 156.147 113.154 156.244 L 114.763 156.649 C 116.515 157.039 117.689 157.446 118.291 157.836 C 119.216 158.438 119.681 159.371 119.681 160.666 C 119.69 161.906 119.158 163.088 118.223 163.903 C 117.254 164.82 115.765 165.274 113.775 165.274 Q 110.552 165.274 109.212 163.85 C 108.315 162.897 107.805 161.645 107.779 160.338 L 110.087 160.338 Z  M 143.426 157.509 Q 143.426 160.849 144.992 163.054 C 145.961 164.493 147.602 165.332 149.335 165.274 C 150.273 165.305 151.196 165.03 151.965 164.492 C 152.446 164.118 152.867 163.67 153.21 163.166 L 153.21 165.274 L 155.436 165.274 L 155.436 145.452 L 153.21 145.452 L 153.21 152.439 C 152.745 151.785 152.13 151.253 151.417 150.886 C 150.713 150.527 149.933 150.342 149.143 150.346 C 147.565 150.296 146.049 150.96 145.015 152.154 C 143.949 153.368 143.426 155.145 143.426 157.509 L 143.426 157.509 Z  M 145.778 157.62 C 145.732 156.326 146.048 155.046 146.691 153.923 C 147.269 152.98 148.314 152.427 149.418 152.478 C 150.461 152.471 151.457 152.906 152.161 153.675 C 152.948 154.457 153.336 155.794 153.336 157.62 C 153.375 158.716 153.212 159.81 152.855 160.847 C 152.394 162.302 151.007 163.259 149.484 163.174 C 148.341 163.229 147.263 162.639 146.691 161.648 C 146.033 160.411 145.718 159.02 145.778 157.62 L 145.778 157.62 Z  M 122.68 145.452 L 124.983 145.452 L 124.983 150.333 L 127.15 150.333 L 127.15 152.227 L 124.983 152.227 L 124.983 162.164 C 124.934 162.553 125.131 162.931 125.477 163.114 C 125.755 163.229 126.056 163.277 126.356 163.255 C 126.467 163.255 126.59 163.25 126.717 163.249 C 126.862 163.243 127.006 163.228 127.15 163.204 L 127.15 165.053 C 126.883 165.134 126.609 165.191 126.333 165.224 C 126.041 165.252 125.747 165.274 125.42 165.274 C 124.35 165.274 123.622 164.994 123.234 164.446 C 122.845 163.796 122.653 163.047 122.68 162.289 L 122.68 152.227 L 120.827 152.227 L 120.827 150.333 L 122.68 150.333 L 122.68 145.452 Z  M 138.334 151.041 C 139.201 151.44 139.942 152.069 140.477 152.859 C 140.969 153.614 141.295 154.465 141.433 155.355 C 141.601 156.384 141.672 157.425 141.646 158.467 L 131.287 158.467 C 131.266 159.696 131.619 160.903 132.301 161.927 C 132.933 162.781 133.915 163.222 135.242 163.222 C 136.362 163.272 137.447 162.823 138.205 161.997 C 138.615 161.517 138.917 160.953 139.088 160.345 L 141.45 160.345 C 141.342 160.953 141.132 161.538 140.828 162.076 C 140.513 162.653 140.116 163.181 139.651 163.645 C 138.907 164.358 137.979 164.848 136.971 165.06 C 136.336 165.208 135.684 165.279 135.032 165.271 C 133.331 165.292 131.702 164.59 130.55 163.339 C 129.33 162.076 128.714 160.279 128.714 157.983 Q 128.714 154.573 130.565 152.456 C 131.774 151.053 133.551 150.27 135.402 150.326 C 136.422 150.33 137.426 150.575 138.334 151.041 L 138.334 151.041 Z  M 139.186 156.594 C 139.136 155.734 138.909 154.894 138.518 154.127 C 137.863 152.97 136.771 152.394 135.254 152.394 C 134.211 152.376 133.211 152.811 132.512 153.586 C 131.757 154.406 131.337 155.479 131.337 156.594 L 139.186 156.594 Z  M 85.109 150.333 L 87.26 150.333 L 87.26 153.023 C 87.593 152.386 88.034 151.813 88.564 151.327 C 89.207 150.698 90.068 150.342 90.968 150.333 C 91.013 150.333 91.081 150.341 91.181 150.347 C 91.282 150.361 91.481 150.379 91.718 150.399 L 91.718 152.846 C 91.594 152.818 91.468 152.799 91.341 152.79 C 91.214 152.788 91.087 152.787 90.957 152.787 C 89.95 152.723 88.969 153.132 88.306 153.893 C 87.697 154.78 87.371 155.83 87.371 156.906 L 87.371 165.274 L 85.109 165.274 L 85.109 150.333 Z " fill="rgb(35,31,32)"/></g></g></svg>