<?xml version="1.0" encoding="utf-8"?>
<!-- Generator: Adobe Illustrator 27.1.1, SVG Export Plug-In . SVG Version: 6.00 Build 0)  -->
<svg version="1.1" id="Layer_1" xmlns="http://www.w3.org/2000/svg" xmlns:xlink="http://www.w3.org/1999/xlink" x="0px" y="0px"
	 viewBox="0 0 630.8 218.6" style="enable-background:new 0 0 630.8 218.6;" xml:space="preserve">
<style type="text/css">
	.st0{fill:#00BCAA;}
	.st1{fill:#1178B7;}
	.st2{fill:#03AEEA;}
	.st3{fill:#111828;}
	.st4{fill:#FFFFFF;}
</style>
<g>
	<g>
		<g>
			<path class="st0" d="M36.2,86.9l4.9,0.5c1.3,0.1,1.9-0.7,1.3-1.9l-2-4.5c-0.5-1.2-1.5-1.3-2.3-0.2l-2.9,4
				C34.6,85.8,35,86.7,36.2,86.9L36.2,86.9z"/>
			<path class="st0" d="M26.4,96.2l20.7,2.1l22.4,9.5c0.9,0.4,1.9,0.1,2.5-0.7c0-0.1,0.1-0.1,0.2-0.2c0.6-0.8,0.5-1.9-0.2-2.6
				L54.7,86.4l-8.1-18.1c-2.5-5.5-7.4-6-11-1.1L21.9,86.1C18.3,91,20.4,95.5,26.4,96.2z M29.8,85.2l7.1-9.8c1.8-2.5,4.4-2.3,5.7,0.6
				l5,11.1c1.3,2.9-0.2,5-3.3,4.6l-12.1-1.2C29,90,28,87.7,29.8,85.2L29.8,85.2z"/>
			<path class="st0" d="M85,151.3l-1.5-2.6c-0.4-0.7-1-0.7-1.4,0l-1.5,2.6c-0.4,0.7-0.1,1.2,0.7,1.2l3,0C85,152.6,85.4,152,85,151.3
				L85,151.3z"/>
			<path class="st0" d="M93,152.8l-6.1-11.1l-3.1-14.5c-0.1-0.6-0.6-1-1.2-1c-0.1,0-0.1,0-0.2,0c-0.6,0-1.1,0.4-1.2,1l-2.9,14.8
				l-6.2,10.4c-1.9,3.2-0.4,5.8,3.2,5.9l14.2,0.2C93.3,158.6,94.8,156,93,152.8L93,152.8z M86.4,154.9l-7.4-0.1
				c-1.9,0-2.7-1.4-1.7-3l3.8-6.3c1-1.6,2.5-1.6,3.5,0.1l3.6,6.4C89.1,153.6,88.3,155,86.4,154.9z"/>
			<path class="st1" d="M73.2,80c-0.1-1.8-1.7-3.1-3.5-3c-1.8,0.1-3.1,1.7-3,3.5c0.1,1.8,1.7,3.1,3.5,3C72.1,83.4,73.4,81.8,73.2,80
				z"/>
			<path class="st1" d="M78,102.8L78,102.8c0.8-0.3,1.3-1.1,1.1-1.9l-2.3-11.3C80.5,86.8,82.5,82,81,77c-1.3-4.3-5-7.5-9.4-8
				c-7.5-0.9-13.6,5.2-13,12.3c0.5,6,5.6,10.5,11.5,10.5l5.6,10.2C76.2,102.7,77.1,103.1,78,102.8z M62.9,80.9
				c-0.3-3.9,2.6-7.4,6.6-7.7c3.9-0.3,7.4,2.6,7.7,6.6c0.3,3.9-2.6,7.4-6.6,7.7C66.7,87.8,63.2,84.8,62.9,80.9L62.9,80.9z"/>
			<path class="st2" d="M86.6,64.7l0,0.2l-0.1,0.6l-0.1,1l-0.1,1.3l-0.1,1.6l-0.2,1.8l-0.2,2l-0.2,2.2l-0.2,2.3l-0.2,2.4l-0.2,2.4
				l-0.2,2.3l-0.2,2.3c0,0-0.2,2.2-0.2,2.2c-0.2,2.6-0.5,5.1-0.8,7.7c-0.3,2.4-0.6,4.7-0.6,5.8c0,0.8,0.2,0.6,1.1,0.7
				c0.3,0-0.2,0.2,0,0c0.9-0.8,0.9-1.3,1.8-4.4c0.7-2.6,1.3-5.5,2-8l0.6-2.2l0.6-2.3l0.6-2.4l0.6-2.5l0.6-2.4l0.6-2.4l0.6-2.3
				l0.6-2.1l0.5-1.9l0.4-1.6l0.3-1.3l0.2-1l0.1-0.5c0,0,0-0.1,0-0.1l4.9-1.6c1.7-0.6,3.5-2.5,3.9-4.3l1.4-6.7
				c0.4-1.8-0.4-4.3-1.8-5.5l-5.1-4.6c-1.4-1.2-3.9-1.8-5.6-1.2l-6.5,2.1c-1.7,0.6-3.5,2.5-3.9,4.3l-1.4,6.7
				c-0.4,1.8,0.4,4.3,1.8,5.5L86.6,64.7L86.6,64.7z M84.8,53.8l0.4-2.1c0.4-1.8,2.1-3.7,3.9-4.3l2.1-0.7c1.7-0.6,4.3,0,5.7,1.2
				l1.6,1.4c1.4,1.2,2.2,3.7,1.8,5.5L99.8,57c-0.4,1.8-2.1,3.7-3.9,4.3L93.9,62c-1.7,0.6-4.3,0-5.7-1.2l-1.6-1.4
				C85.2,58.1,84.4,55.6,84.8,53.8L84.8,53.8z"/>
			<path class="st2" d="M146.8,93.9c-0.4-0.3-1-0.4-1.5-0.2l-1.6,0.6c-0.4,0.2-0.9,0.7-0.9,1.1l-0.3,1.7c-0.1,0.5,0.2,1.1,0.5,1.4
				l1.3,1.1c0.4,0.3,1,0.4,1.5,0.2l1.6-0.6c0.4-0.2,0.9-0.7,0.9-1.1l0.3-1.7c0.1-0.5-0.2-1.1-0.5-1.4L146.8,93.9z"/>
			<path class="st2" d="M91,57.6c0.4,0.4,1.2,0.5,1.7,0.4l1.9-0.6c0.5-0.2,1-0.7,1.2-1.3l0.4-2c0.1-0.5-0.1-1.3-0.5-1.6l-1.5-1.4
				c-0.4-0.4-1.2-0.5-1.7-0.4l-1.9,0.6c-0.5,0.2-1,0.7-1.2,1.3l-0.4,2c-0.1,0.5,0.1,1.3,0.5,1.6L91,57.6L91,57.6z"/>
			<path class="st2" d="M139.6,162.1c-1.9-2.4-6-4-9-3.5l-7.6,1.2l-0.3-0.3l-0.8-0.8l-1.2-1.3l-1.6-1.7l-1.9-2.1l-2.2-2.4l-2.4-2.6
				l-2.5-2.7l-2.5-2.8l-2.6-2.8l-2.5-2.7l-2.4-2.6l-2.2-2.4l-2-2.1l-1.7-1.8l-1.3-1.4c-0.5-0.6-1.1-1.2-1.6-1.8
				c-0.4-0.4-0.7-0.8-1.1-1.2c-0.5-0.5-1.1-1-1.9-1.1c0,0-0.1,0-0.1,0c-0.7,0-0.9,0.6-0.8,1.2c0,0.4,0.2,0.8,0.3,1.1
				c0.4,0.8,0.8,1.5,1.2,2.3l22.6,39.2l-4,10.3c-1.1,2.9-0.4,7.2,1.5,9.5l7.2,8.9c1.9,2.4,6,4,9,3.5l11.3-1.8c3-0.5,6.4-3.2,7.5-6.1
				l4.1-10.6c1.1-2.9,0.4-7.2-1.5-9.6L139.6,162.1L139.6,162.1z M140.6,181.7l-1.3,3.4c-1.1,2.9-4.5,5.6-7.5,6.1l-3.6,0.6
				c-3,0.5-7.1-1.1-9-3.5l-2.3-2.8c-1.9-2.4-2.6-6.7-1.5-9.6l1.3-3.4c1.1-2.9,4.5-5.6,7.5-6.1l3.6-0.6c3-0.5,7.1,1.1,9,3.5l2.3,2.8
				C141.1,174.5,141.7,178.8,140.6,181.7L140.6,181.7z"/>
			<path class="st2" d="M155.7,89.9l-5.2-4.4c-1.4-1.2-4-1.6-5.7-1l-6.4,2.4c-1.7,0.6-3.4,2.6-3.7,4.4l-0.9,5
				c-0.6,0.2-1.1,0.4-1.7,0.5c-0.7,0.2-1.4,0.4-2,0.7c-0.8,0.3-1.6,0.5-2.4,0.8c-0.9,0.3-1.8,0.6-2.7,0.9c-1,0.3-1.9,0.6-2.9,0.9
				c-1,0.3-2,0.7-3.1,1c-1.1,0.3-2.1,0.7-3.2,1c-1.1,0.3-2.2,0.7-3.3,1.1c-1.1,0.4-2.2,0.7-3.3,1.1c-1.1,0.4-2.2,0.7-3.3,1.1
				c-1.1,0.3-2.1,0.7-3.2,1c-1,0.3-2,0.7-3,1c-1,0.3-1.9,0.6-2.9,0.9c-0.7,0.2-1.3,0.4-2,0.6c-0.3,0.1-0.7,0.2-1,0.3
				c-0.4,0.1-0.7,0.3-0.9,0.6c-0.2,0.5-0.1,1,0.4,1.1c0.5,0.2,1.1,0.2,1.7,0.1c0.6-0.1,1.2-0.2,1.8-0.3l1.3-0.2l1.5-0.3l1.8-0.3
				l2-0.3l2.2-0.4l2.3-0.4l2.4-0.4l2.5-0.4l2.5-0.4l2.5-0.4l2.5-0.4l2.5-0.4l2.3-0.4l2.2-0.4l2-0.3l1.8-0.3l1.6-0.3l1.3-0.2l1-0.2
				l0.6-0.1l0.2,0l4.5,3.7c1.4,1.2,4,1.6,5.7,1l6.4-2.4c1.7-0.6,3.4-2.6,3.7-4.4l1.2-6.7C158,93.6,157.1,91.1,155.7,89.9L155.7,89.9
				z M152.2,96.9l-0.3,1.8c-0.3,1.6-1.7,3.3-3.2,3.8l-1.7,0.6c-1.5,0.6-3.7,0.2-4.9-0.8l-1.4-1.2c-1.2-1-2-3.1-1.7-4.7l0.3-1.8
				c0.3-1.6,1.7-3.3,3.2-3.8l1.7-0.6c1.5-0.6,3.7-0.2,4.9,0.8l1.4,1.2C151.7,93.3,152.5,95.4,152.2,96.9z"/>
			<path class="st2" d="M131.3,174.1c-0.5-0.7-1.7-1.1-2.5-1l-3.1,0.5c-0.8,0.1-1.8,0.9-2.1,1.7l-1.1,3c-0.3,0.8-0.1,2,0.4,2.7
				l2,2.5c0.5,0.7,1.7,1.1,2.5,1l3.1-0.5c0.8-0.1,1.8-0.9,2.1-1.7l1.1-3c0.3-0.8,0.1-2-0.4-2.7L131.3,174.1L131.3,174.1z"/>
			<g>
				<path class="st1" d="M47.4,115.9c0.6,0.7,1.7,0.8,2.4,0.2l1.1-1c0.7-0.6,0.8-1.7,0.2-2.4l-1-1.1c-0.6-0.7-1.7-0.8-2.4-0.2
					l-1.1,1c-0.7,0.6-0.8,1.7-0.2,2.4L47.4,115.9L47.4,115.9z"/>
				<path class="st1" d="M43.8,121.5c2.2,2.6,6.1,3,8.7,0.8l4.1-3.5c0.2-0.1,0.3-0.3,0.5-0.5c1.6-0.3,3.2-0.6,4.9-1
					c1.7-0.4,5.8-0.7,7.3-1.4c0.4-0.2,0.7-0.3,1-0.6c0.6-0.5,0.7-1.1,0.1-1.8c-0.2-0.3-0.6-0.5-0.9-0.7c-2-1-6.3-1.4-8.4-1.7
					l-3.3-0.5c-0.1-0.2-0.2-0.4-0.4-0.5l-3.5-4.1c-2.2-2.6-6.1-3-8.7-0.8l-4.1,3.5c-2.6,2.2-3,6.1-0.8,8.7L43.8,121.5L43.8,121.5z
					 M44.1,110.6l2.5-2.1c1.6-1.3,3.9-1.1,5.3,0.5l2.1,2.5c1.3,1.6,1.1,3.9-0.5,5.3l-2.5,2.1c-1.6,1.3-3.9,1.1-5.3-0.5l-2.1-2.5
					C42.4,114.3,42.6,112,44.1,110.6L44.1,110.6z"/>
			</g>
			<path class="st2" d="M62.4,156.1c-0.1-1.1-0.4-2.2-0.8-3.1l0.3-0.6l0.9-1.7l1.4-2.5l1.7-3.1l1.8-3.4l1.9-3.4l1.8-3.2
				c0.9-1.6,1.8-3.2,2.6-4.8c0.8-1.5,1.9-3,2-4.8c0-1.1-1-1.3-1.9-0.8c-1,0.6-1.7,1.5-2.4,2.4c-2.7,2.7-5.2,5.7-7.7,8.6l-2.7,3
				l-2.5,2.8l-2.3,2.5l-1.8,2l-1.1,1.2l-0.2,0.3c-0.3,0-0.7,0-1,0l-8.1,0.6c-5.1,0.4-9,4.8-8.6,9.9l0.6,8.1c0.4,5.1,4.8,9,9.9,8.6
				l8.1-0.6c5.1-0.4,9-4.8,8.6-9.9L62.4,156.1L62.4,156.1z M52.4,168.9l-4.9,0.3c-3.1,0.2-5.7-2.1-6-5.2l-0.3-4.9
				c-0.2-3.1,2.1-5.8,5.2-6l4.9-0.3c3.1-0.2,5.7,2.1,6,5.2l0.3,4.9C57.8,166.1,55.4,168.7,52.4,168.9L52.4,168.9z"/>
			<path class="st1" d="M115.9,68H107c-5.6,0-10.2,4.6-10.2,10.2v8.9c0,0.8,0.1,1.6,0.3,2.3l-8.5,14c-0.6,1.1,0,2.1,0.9,3
				c0,0,0,1.5,0,1.6c0.9,0.8,0.6-0.6,1.7-1.2l15.3-9.5c0.2,0,0.3,0,0.5,0h8.9c5.6,0,10.2-4.6,10.2-10.2v-8.9
				C126.1,72.6,121.5,68.1,115.9,68L115.9,68z M121.6,85.8c0,3.9-3.2,7.1-7.1,7.1h-6.2c-3.9,0-7.1-3.2-7.1-7.1v-6.2
				c0-3.9,3.2-7.1,7.1-7.1h6.2c3.9,0,7.1,3.2,7.1,7.1L121.6,85.8L121.6,85.8z"/>
			<path class="st1" d="M110,78h2.9c1.8,0,3.3,1.5,3.3,3.3v2.9c0,1.8-1.5,3.3-3.3,3.3H110c-1.8,0-3.3-1.5-3.3-3.3v-2.9
				C106.7,79.5,108.2,78,110,78z"/>
			<path class="st2" d="M48,157.4l2.3-0.2c1.5-0.1,2.7,1,2.8,2.5l0.2,2.3c0.1,1.5-1,2.7-2.5,2.8l-2.3,0.2c-1.5,0.1-2.7-1-2.8-2.5
				l-0.2-2.3C45.4,158.7,46.5,157.5,48,157.4z"/>
			<g>
				<path class="st1" d="M158,153.2c-1.6,0-2.9,1.4-2.9,3.1s1.4,2.9,3.1,2.9c1.6,0,2.9-1.4,2.9-3.1S159.7,153.2,158,153.2z"/>
				<path class="st1" d="M150.4,145.9c-0.1,0.1-0.3,0.2-0.4,0.3l0,0C150.1,146.1,150.3,146,150.4,145.9z"/>
				<path class="st1" d="M152.3,167.7c0.4,0.2,0.8,0.4,1.1,0.5c0.1,0,0.2,0.1,0.3,0.1c0.4,0.2,0.9,0.3,1.3,0.4
					c0.1,0,0.2,0.1,0.3,0.1c0.1,0,0.3,0.1,0.4,0.1c0.1,0,0.2,0,0.4,0.1c0,0,0.1,0,0.1,0c0.1,0,0.3,0,0.4,0l0.2,0c0.1,0,0.2,0,0.2,0
					c0,0,0.1,0,0.1,0c0.1,0,0.2,0,0.3,0c0.6,0,1.2,0,1.8,0c0.6-0.1,1.2-0.2,1.8-0.3c0.2-0.1,0.4-0.1,0.6-0.2c0.1,0,0.2-0.1,0.3-0.1
					c0.3-0.1,0.6-0.2,0.9-0.3c0.1,0,0.2-0.1,0.3-0.1c0.2-0.1,0.4-0.2,0.6-0.3c0.1-0.1,0.2-0.1,0.4-0.2c0.1-0.1,0.3-0.1,0.4-0.2
					c0.2-0.1,0.5-0.3,0.7-0.4c1.5-1,2.8-2.3,3.7-3.9c0.1-0.1,0.1-0.2,0.2-0.4c0.1-0.1,0.1-0.2,0.2-0.3l0-0.1
					c0.1-0.1,0.1-0.2,0.2-0.3c0.3-0.6,0.5-1.2,0.7-1.7c0-0.1,0.1-0.2,0.1-0.3c0,0,0,0,0-0.1c0-0.1,0.1-0.2,0.1-0.3c0,0,0-0.1,0-0.1
					c0-0.1,0-0.2,0.1-0.3c0-0.1,0.1-0.3,0.1-0.4c0.1-0.3,0.1-0.6,0.2-0.9c0-0.2,0.1-0.5,0.1-0.7c0,0,0-0.1,0-0.1c0-0.1,0-0.2,0-0.4
					c0-0.1,0-0.3,0-0.4c0-0.1,0-0.3,0-0.4c0-0.2,0-0.4,0-0.6c0-0.2,0-0.4-0.1-0.6c0-0.1,0-0.3-0.1-0.4c0-0.1,0-0.2,0-0.2
					c0-0.2-0.1-0.4-0.1-0.6c0-0.1,0-0.2-0.1-0.3c-0.1-0.2-0.1-0.4-0.2-0.6c0-0.1-0.1-0.2-0.1-0.3c-0.1-0.2-0.1-0.4-0.2-0.6
					c0-0.1-0.1-0.2-0.1-0.3c0-0.1-0.1-0.2-0.1-0.3s-0.1-0.2-0.1-0.3c0-0.1-0.1-0.2-0.1-0.3c0-0.1-0.1-0.1-0.1-0.2
					c0-0.1-0.1-0.2-0.1-0.3c-0.1-0.1-0.1-0.2-0.2-0.4c-0.1-0.1-0.1-0.2-0.2-0.3c-0.1-0.2-0.3-0.4-0.4-0.6c0,0,0,0,0,0
					c-0.9-1.3-2-2.4-3.3-3.2l0,0c-0.1-0.1-0.2-0.1-0.3-0.2c-0.1-0.1-0.2-0.1-0.4-0.2c-0.1-0.1-0.2-0.1-0.3-0.2
					c-0.7-0.4-1.4-0.7-2.1-0.9c-0.1,0-0.2-0.1-0.3-0.1c0,0,0,0-0.1,0c-0.1,0-0.2-0.1-0.3-0.1l-0.1,0c-0.1,0-0.2,0-0.3-0.1
					c-0.1,0-0.3-0.1-0.4-0.1c-0.3-0.1-0.6-0.1-0.9-0.2c-0.1,0-0.2,0-0.3,0c-0.1,0-0.2,0-0.2,0c-0.2,0-0.3,0-0.4,0
					c-0.2,0-0.3,0-0.5,0c-0.1,0-0.2,0-0.3,0c-0.2,0-0.4,0-0.6,0c-0.1,0-0.2,0-0.3,0c-0.1,0-0.2,0-0.4,0c-0.1,0-0.2,0-0.2,0
					c-0.1,0-0.2,0-0.3,0c-0.5,0.1-1.1,0.2-1.6,0.3c-0.2,0.1-0.3,0.1-0.5,0.2c-0.3,0.1-0.6,0.2-0.9,0.3c-0.2,0.1-0.4,0.2-0.7,0.3
					c-0.1,0.1-0.2,0.1-0.3,0.2c-0.2,0.1-0.4,0.2-0.6,0.3c-0.1,0-0.1,0.1-0.2,0.1c0,0-0.1,0-0.1,0c0,0-0.1,0-0.1,0.1
					c-0.1,0-0.2,0.1-0.2,0.1c-0.3,0.2-0.5,0.3-0.7,0.5c-0.1,0.1-0.3,0.2-0.4,0.3l0,0l-56.9-26.8c-1.2-0.6-2.1,1.1-1,1.8l47.3,29.6
					l0.8,0.5l0.9,0.6c0.3,0.2,0.6,0.4,0.9,0.6c0.9,0.6,1.7,1.1,2.6,1.7l0.7,0.5c-0.1,0.8-0.1,0.8,0,1.6c0,0,0,0.1,0,0.1
					c0,0,0,0,0,0.1c0,0.2,0,0.3,0,0.5c0,0.2,0,0.3,0,0.5c0,0.2,0,0.3,0.1,0.5c0.1,0.9,0.4,1.8,0.7,2.7c0.1,0.1,0.1,0.3,0.2,0.4
					c0.1,0.2,0.2,0.4,0.3,0.6c0,0.1,0.1,0.2,0.1,0.3c0,0.1,0.1,0.2,0.1,0.3c0.1,0.3,0.3,0.5,0.4,0.7c0,0,0.1,0.1,0.1,0.1
					c0.1,0.1,0.2,0.2,0.2,0.3c0.1,0.1,0.2,0.2,0.2,0.3c0.1,0.1,0.1,0.2,0.2,0.3c0.1,0.2,0.3,0.3,0.4,0.5c0.1,0.2,0.3,0.3,0.4,0.5
					c0,0,0,0,0,0c0,0,0,0,0,0c0.1,0.1,0.1,0.1,0.2,0.2c0.1,0.1,0.2,0.2,0.3,0.3l0,0c0.1,0.1,0.2,0.2,0.3,0.3l0,0
					c0.2,0.2,0.4,0.3,0.6,0.5c0,0,0,0,0,0c0.2,0.2,0.5,0.4,0.7,0.6l0,0c0.1,0.1,0.2,0.1,0.3,0.2c0.1,0.1,0.2,0.1,0.3,0.2
					c0.1,0.1,0.2,0.1,0.3,0.2c0.1,0.1,0.3,0.1,0.4,0.2l0,0C152.1,167.6,152.2,167.7,152.3,167.7L152.3,167.7z M151,156.4
					c-0.1-3.9,3-7.2,6.9-7.3c3.9-0.1,7.2,3,7.3,6.9c0.1,3.9-3,7.2-6.9,7.3C154.4,163.5,151.1,160.3,151,156.4z"/>
				<path class="st1" d="M151.4,145.2c0,0-0.1,0-0.1,0.1C151.3,145.3,151.4,145.2,151.4,145.2C151.4,145.2,151.4,145.2,151.4,145.2
					L151.4,145.2z"/>
				<path class="st1" d="M150,146.2L150,146.2c0.4-0.3,0.8-0.6,1.2-0.8c-0.3,0.2-0.5,0.3-0.7,0.5C150.3,146,150.1,146.1,150,146.2
					L150,146.2z"/>
				<path class="st1" d="M145.2,156.5c0,0,0-0.1,0-0.1l0,0C145.2,156.4,145.2,156.4,145.2,156.5z"/>
				<path class="st1" d="M144.6,154.3L141,152c0.3,0.2,0.6,0.4,0.9,0.6C142.9,153.2,143.7,153.8,144.6,154.3L144.6,154.3z"/>
			</g>
			<g>
				<g>
					<path class="st0" d="M154.2,134.2l3.1-16.6c0.6-3.5-2.7-6.4-6.1-5.2l-15.9,5.7c-3.3,1.2-4.2,5.6-1.5,7.9l12.9,11
						C149.3,139.2,153.5,137.7,154.2,134.2L154.2,134.2z M147.7,132.1l-9.4-8c-1-0.8-0.7-2.3,0.5-2.8l11.6-4.1
						c1.2-0.4,2.4,0.6,2.1,1.8l-2.2,12.1C150.1,132.4,148.6,132.9,147.7,132.1L147.7,132.1z"/>
					<path class="st0" d="M143.5,122.8l4.1-1.5c0.7-0.2,1.3,0.3,1.2,1l-0.4,2.2l-0.4,2.2c-0.1,0.7-1,1-1.5,0.5l-3.3-2.9
						C142.7,123.9,142.8,123,143.5,122.8L143.5,122.8z"/>
				</g>
				<path class="st0" d="M95.3,114l40.9,4.2l-1.4,7.8l-39.8-10.2C92.9,115.3,93.2,113.8,95.3,114L95.3,114z"/>
			</g>
			<g>
				<g>
					<path class="st0" d="M16.6,136.7l7.2,15.3c1.5,3.2,5.9,3.6,8,0.7l9.6-13.9c2-2.9,0.1-6.9-3.4-7.2l-16.8-1.4
						C17.6,129.9,15.1,133.5,16.6,136.7z M23.1,134.7l12.3,1c1.2,0.1,1.9,1.5,1.2,2.5l-7,10.1c-0.7,1-2.3,0.9-2.8-0.2L21.5,137
						C20.9,135.8,21.8,134.6,23.1,134.7L23.1,134.7z"/>
					<path class="st0" d="M31.9,139.8l-2.5,3.6c-0.4,0.6-1.3,0.5-1.6-0.1l-0.9-2l-0.9-2c-0.3-0.6,0.2-1.4,0.9-1.3l4.4,0.4
						C32,138.4,32.3,139.2,31.9,139.8L31.9,139.8z"/>
				</g>
				<path class="st0" d="M69.7,122.4l-29.4,18.1l-4-9l32.4-11.2C70.6,119.6,71.4,121.4,69.7,122.4z"/>
			</g>
		</g>
		<g>
			<path class="st3" d="M615.1,98.6h-29c0,15.8,0,30.9,0,46.6h-12.1c0-15.6,0-30.7,0-46.5c0,0.1-62.7,0-74,0.1c-3,0-6.1,0.4-9,1.2
				c-4.6,1.3-7.4,5.9-7.1,10.8h60.3v10.8h-60.2c-0.8,5.4,3.2,10.5,9.2,11.5c2.4,0.4,4.9,0.5,7.4,0.5c14,0,28.1,0,42.1,0h2.6V145
				c-0.4,0.1-0.8,0.2-1.2,0.2c-16.5,0-33,0-49.5-0.2c-11.2-0.2-18.8-5.9-21.7-15.7c-0.6-2-1-4.1-1.2-6.3c-0.6-6.3-0.6-12.6,0.9-18.9
				c2.3-9.4,8.5-14.7,17.8-16.3c3.1-0.5,6.2-0.8,9.3-0.8C516.1,87,614.3,87,615.2,87C615.2,90.7,615.1,94.9,615.1,98.6L615.1,98.6z"
				/>
			<path class="st3" d="M382.7,86.9c5.4,0.2,10.5,0.2,15.5,0.7c7.2,0.8,12.5,5,16.7,10.5c6.2,7.9,12.1,16,18.1,24
				c2,2.6,4,5.1,6.2,7.6c2,2.2,4.5,3.4,7.9,3.2V87.2h12.1v57.9c-10.7,0.6-21.4,1-29.2-8.4c-6.3-7.5-12.3-15.3-18.5-22.9
				c-3-3.8-6.1-7.5-9.2-11.2c-1.8-2.2-4.2-3.4-7.4-3.1v45.7c-3.9,0-7.5,0-11.1,0c-0.4,0-0.9-0.7-1.1-1.1c-0.2-0.4,0-1,0-1.5
				c0-17.6,0-35.3,0-52.9L382.7,86.9L382.7,86.9z"/>
			<path class="st3" d="M207.2,87.2c7.2-0.4,14.3-0.2,19.5,5.3c5.5,5.8,10.5,12,15.5,18.2c6.4,8,12.6,16.1,19,24.1
				c3.6,4.4,8.3,6.9,14.1,6.8c0.5,0,1-0.1,1.7-0.1V87.3h3.7v57.9c-6.7,0.5-13.5,0.4-18.6-4.6c-5.1-5-9.7-10.5-14.2-16.1
				c-6.8-8.4-13.3-17-20.1-25.5c-1.7-2.1-3.9-3.9-6.1-5.6c-3.1-2.3-6.8-2.6-10.8-2.4v54.2h-3.7"/>
			<path class="st3" d="M298,87.2h3.8c0,0.9,0,1.7,0,2.5c0,10.2-0.2,20.5,0.1,30.7c0.3,13.1,5.1,18.7,18,20.9
				c9.1,1.6,18.3,1.5,27.4-0.3c10.9-2.2,15.9-8.4,16.1-19.6c0.2-10.5,0.1-20.9,0.1-31.4c0-0.8,0-1.7,0-2.7h3.7c0,0.5,0.1,1,0.1,1.4
				c0,10.7,0.1,21.3-0.1,32c0,3-0.5,6.1-1.3,9c-1.9,7.4-6.9,12.1-14.2,14c-12.6,3.3-25.3,3.4-37.9,0.1c-9.3-2.5-14.3-9-15.2-18.4
				c-0.6-6.7-0.5-13.5-0.5-20.2C297.9,99.3,298,93.3,298,87.2L298,87.2z"/>
		</g>
	</g>
	<g>
		<path class="st1" d="M81.1,107.4c3.8,0,7,3.1,7,7c0,3.8-3.1,7-7,7s-7-3.1-7-7C74.1,110.5,77.2,107.4,81.1,107.4 M81.1,100.9
			c-7.4,0-13.4,6-13.4,13.4c0,7.4,6,13.4,13.4,13.4s13.4-6,13.4-13.4C94.5,106.9,88.5,100.9,81.1,100.9L81.1,100.9z"/>
	</g>
</g>
</svg>
