<svg xmlns="http://www.w3.org/2000/svg" role="img" viewBox="-21.28 -21.28 1106.56 178.56"><style>svg {enable-background:new 0 0 1064.95 134.32}</style><path fill="#131313" d="M476.14 28.26h-53.43c-.05 0-.08.04-.08.08v103.97c0 1.1-.9 2-2 2h-25.81c-1.1 0-2-.9-2-2V28.34c0-.05-.04-.08-.08-.08h-53.28c-1.1 0-2-.9-2-2V2.98c0-1.1.9-2 2-2h136.68c1.1 0 2 .9 2 2v23.28c0 1.1-.89 2-2 2zM855.74.98h-25.81c-1.1 0-2 .9-2 2v129.34c0 1.1.9 2 2 2h25.81c1.1 0 2-.9 2-2V2.98c0-1.11-.9-2-2-2zm208.57 130.1c.58.5.79 1.32.52 2.04s-.96 1.2-1.73 1.2h-39.75c-.44 0-.87-.16-1.21-.45l-43.67-37.79c-.4-.35-.64-.86-.64-1.39 0-.54.23-1.04.64-1.39l19.87-17.2c.69-.6 1.72-.6 2.41 0l63.56 54.98zM998.36 59.2c.35.3.78.45 1.21.45.43 0 .86-.15 1.21-.45l63.54-54.99c.58-.5.79-1.32.52-2.04s-.96-1.2-1.73-1.2h-39.75c-.44 0-.87.16-1.21.45l-43.67 37.79c-.4.35-.64.86-.64 1.39 0 .54.23 1.04.64 1.39l19.88 17.21zm-8.32 8.45c0-.54-.23-1.04-.64-1.39L914.49 1.43c-.33-.29-.76-.45-1.21-.45h-39.75c-.77 0-1.46.48-1.73 1.2s-.06 1.53.52 2.04l73.23 63.37c.04.03.04.09 0 .13l-73.23 63.37c-.58.5-.79 1.32-.52 2.04s.96 1.2 1.73 1.2h39.75c.44 0 .87-.16 1.21-.45l74.91-64.83c.41-.36.64-.87.64-1.4zM29.81 44.32c0-.07.08-.11.13-.07 3.92 3.51 93.13 83.39 97.43 86.77 3.8 2.98 8.19 4.83 13.91 3.99 7.4-.9 15.54-7.22 15.54-17.86V2.98c0-1.1-.9-2-2-2h-25.81c-1.1 0-2 .9-2 2v87.91c0 .07-.08.11-.13.07-3.92-3.51-93.13-83.39-97.43-86.77C25.65 1.21 21.26-.64 15.54.2 8.14 1.1 0 7.43 0 18.06v114.25c0 1.1.9 2 2 2h25.81c1.1 0 2-.9 2-2V44.32zm655.15 0c0-.07.08-.11.13-.07 3.92 3.51 93.13 83.39 97.43 86.77 3.8 2.98 8.19 4.83 13.91 3.99 7.4-.9 15.54-7.22 15.54-17.86V2.98c0-1.1-.9-2-2-2h-25.81c-1.1 0-2 .9-2 2v87.91c0 .07-.08.11-.13.07-3.92-3.51-93.13-83.39-97.43-86.77-3.8-2.98-8.19-4.83-13.91-3.99-7.4.9-15.54 7.23-15.54 17.86v114.25c0 1.1.9 2 2 2h25.81c1.1 0 2-.9 2-2V44.32zm-429.24 92.64c16.08-.04 34-.95 45-7.44 14.64-8.64 21.76-20.64 21.76-36.67l.01-89.87c0-1.1-.9-2-2-2h-26.06c-1.1 0-2 .9-2 2l-.01 88.12c-.25 17.54-21.98 17.72-37.66 17.72h-14.25c-15.68 0-37.4-.17-37.66-17.72l-.01-88.12c0-1.1-.9-2-2-2h-26.06c-1.1 0-2 .9-2 2l.01 89.87c0 16.03 7.12 28.03 21.76 36.67 11 6.49 28.92 7.41 45 7.44h16.17zm387.14-5.65c.41.58.46 1.34.14 1.98-.32.63-.97 1.03-1.68 1.03h-31.87c-.64 0-1.24-.31-1.61-.84l-18.59-26.58c-.02-.02-.04-.04-.07-.04h-95.56c-.03 0-.05.01-.07.04l-18.66 26.61c-.35.51-.93.81-1.54.81h-31.87c-.71 0-1.36-.4-1.68-1.03s-.27-1.4.14-1.98c0 0 81.05-115.69 86.05-122.6S536.02 0 541.44 0c5.97 0 10.58 2.23 15.02 8.18l86.4 123.13zm-73.02-51.86L541.48 39.3c-.03-.05-.1-.05-.14 0l-28.37 40.15c-.04.06 0 .13.07.13h56.73c.07 0 .11-.08.07-.13z"/></svg>