<svg xmlns="http://www.w3.org/2000/svg" viewBox="0 0 933.33331 113.8" height="113.8" width="933.333"><path d="M719.844.754h-23.325a2.567 2.567 0 0 0-2.57 2.565v107.1a2.572 2.572 0 0 0 2.57 2.569h23.325a2.576 2.576 0 0 0 2.573-2.57V3.32a2.571 2.571 0 0 0-2.573-2.565M903.065 97.62h-4.418a1.483 1.483 0 1 1 0-2.967h12.09c.807 0 1.458.677 1.458 1.482 0 .808-.651 1.484-1.458 1.484h-4.445v13.78c0 .884-.73 1.589-1.613 1.589-.884 0-1.614-.705-1.614-1.589V97.62M915.443 96.163c0-.884.701-1.614 1.613-1.614h.336c.703 0 1.17.365 1.483.859l5.512 8.633 5.54-8.659c.337-.547.805-.833 1.456-.833h.337c.91 0 1.613.73 1.613 1.614V111.4c0 .884-.704 1.589-1.613 1.589-.856 0-1.585-.73-1.585-1.589v-10.92l-4.448 6.682c-.338.52-.754.834-1.351.834-.572 0-.99-.314-1.328-.834l-4.42-6.63v10.896c0 .884-.701 1.56-1.585 1.56s-1.56-.676-1.56-1.56V96.163M273.55.758h-19.826a4.326 4.326 0 0 0-4.325 4.326V77.86c0 7.678-10.714 10.143-23.856 10.143h-14.736-14.736c-13.144 0-23.858-2.465-23.858-10.143V5.084a4.325 4.325 0 0 0-4.325-4.326h-19.825a4.325 4.325 0 0 0-4.326 4.326s.008 61.605.008 74.457c0 12.852 5.592 20.973 16.235 27.355 10.641 6.382 35.437 6.094 42.79 6.094h16.073c7.352 0 32.148.288 42.789-6.094 10.643-6.382 16.235-14.503 16.235-27.355s.009-74.457.009-74.457a4.326 4.326 0 0 0-4.325-4.326M855.301 1.512a2.617 2.617 0 0 1 1.839-.754h32.5a2.626 2.626 0 0 1 1.59 4.715l-47.709 41.534a2.616 2.616 0 0 1-1.854.768 2.619 2.619 0 0 1-1.944-.859l-16.251-14.145a2.617 2.617 0 0 1-.68-1.763c0-.807.361-1.528.936-2.012l31.573-27.484M855.301 112.233a2.613 2.613 0 0 0 1.839.755h32.5a2.626 2.626 0 0 0 1.59-4.716l-47.709-41.535a2.619 2.619 0 0 0-1.854-.766c-.772 0-1.464.332-1.944.859l-16.251 14.145a2.617 2.617 0 0 0-.68 1.763c0 .808.361 1.528.936 2.013l31.573 27.482" fill="#254aa5"/><path d="M768.545 112.297a2.62 2.62 0 0 1-1.773.69h-32.541a2.626 2.626 0 0 1-1.856-4.48l57.024-49.627a2.618 2.618 0 0 0 .934-2.01c0-.762-.325-1.447-.842-1.926L732.536 5.387a2.626 2.626 0 0 1 1.695-4.63l32.541.001c.687 0 1.312.263 1.779.694L829.94 54.89a2.622 2.622 0 0 1-.004 3.972l-61.39 53.436" fill="#a3d71d"/><path d="M362.832 28.365a2.622 2.622 0 0 1 2.624-2.622h40.365a4.326 4.326 0 0 0 4.327-4.326V5.084a4.326 4.326 0 0 0-4.327-4.326H291.375a4.326 4.326 0 0 0-4.327 4.326v16.333a4.326 4.326 0 0 0 4.327 4.326h40.365a2.622 2.622 0 0 1 2.624 2.622v80.297a4.325 4.325 0 0 0 4.327 4.326h19.75a4.324 4.324 0 0 0 4.326-4.326l.065-80.297M102.983 70.396c.357.295.783.538 1.285.538 1.002 0 1.815-.81 1.815-1.812V5.076A4.326 4.326 0 0 1 110.41.75h19.816a4.325 4.325 0 0 1 4.326 4.326v92.776c0 9.469-3.697 13.605-7.316 15.193-3.62 1.588-14.598.965-21.152-4.74L35.086 46.496s-3.8-3.325-4.067-3.534a1.578 1.578 0 0 0-2.552 1.242v64.457a4.326 4.326 0 0 1-4.325 4.326H4.326A4.325 4.325 0 0 1 0 108.662v-92.71C0 6.482 3.697 2.346 7.316.758c3.62-1.588 14.598-.967 21.152 4.74l70.997 61.807s3.291 2.902 3.518 3.09M653.156 70.396c.357.295.783.538 1.285.538 1.003 0 1.815-.81 1.815-1.812V5.076A4.326 4.326 0 0 1 660.581.75h19.816a4.327 4.327 0 0 1 4.327 4.326v92.776c0 9.469-3.696 13.605-7.315 15.193-3.62 1.588-14.597.965-21.153-4.74l-70.997-61.808s-3.799-3.325-4.067-3.534a1.578 1.578 0 0 0-2.553 1.242v64.457a4.323 4.323 0 0 1-4.326 4.326H554.5a4.324 4.324 0 0 1-4.327-4.326v-92.71c0-9.47 3.696-13.606 7.315-15.194 3.62-1.588 14.597-.967 21.15 4.74 6.557 5.705 70.998 61.807 70.998 61.807s3.292 2.902 3.52 3.09M693.95 5.084a4.326 4.326 0 0 1 4.326-4.326h19.816a4.325 4.325 0 0 1 4.325 4.326v103.578a4.325 4.325 0 0 1-4.325 4.326h-19.816a4.326 4.326 0 0 1-4.327-4.326V5.084M470.961 58.981h-28.993a1.577 1.577 0 0 1-1.117-2.69l14.262-20.599c.079-.13.21-.213.323-.315.087-.08.155-.182.259-.24.19-.107.414-.152.642-.171.046-.006.082-.033.128-.034.046 0 .082.028.127.034.228.019.452.064.643.17.104.06.172.16.26.241.112.102.242.185.321.315l14.263 20.6a1.574 1.574 0 0 1-1.118 2.69zm69.372 49.688L470.232 7.418l.003-.005c-3.012-4.374-8.056-7.241-13.77-7.241h-.001c-5.713 0-10.757 2.867-13.77 7.241l.003.005-70.101 101.25a2.626 2.626 0 0 0 2.005 4.32l25.634.002a2.62 2.62 0 0 0 2.277-1.32l18.141-26.213a2.625 2.625 0 0 1 2.368-1.491h66.887c1.045 0 1.945.61 2.368 1.491l18.14 26.213a2.623 2.623 0 0 0 2.279 1.32h25.633a2.626 2.626 0 0 0 2.005-4.321" fill="#254aa5"/></svg>
