<?xml version="1.0" encoding="UTF-8"?>
<svg id="Layer_1" data-name="Layer 1" xmlns="http://www.w3.org/2000/svg" viewBox="0 0 400 400">
  <defs>
    <style>
      .cls-1 {
        fill: #0d80d8;
      }

      .cls-2 {
        fill: #0a151e;
      }
    </style>
  </defs>
  <path class="cls-2" d="M105.82,238.34c0,6-1.12,11.14-3.37,15.42-2.23,4.26-5.28,7.52-9.14,9.79-3.84,2.27-8.2,3.4-13.08,3.4s-9.25-1.13-13.11-3.4c-3.84-2.28-6.89-5.56-9.14-9.82-2.23-4.28-3.34-9.41-3.34-15.39s1.11-11.13,3.34-15.39c2.25-4.28,5.29-7.55,9.14-9.82,3.86-2.27,8.23-3.4,13.11-3.4s9.24,1.13,13.08,3.4c3.86,2.27,6.91,5.54,9.14,9.82,2.25,4.26,3.37,9.39,3.37,15.39ZM95.67,238.34c0-4.22-.66-7.79-1.98-10.69-1.31-2.92-3.12-5.12-5.44-6.61-2.32-1.5-5-2.26-8.02-2.26s-5.7.75-8.02,2.26c-2.32,1.49-4.14,3.69-5.47,6.61-1.3,2.9-1.96,6.46-1.96,10.69s.65,7.8,1.96,10.72c1.32,2.9,3.15,5.1,5.47,6.61,2.32,1.49,4.99,2.23,8.02,2.23s5.7-.74,8.02-2.23c2.32-1.5,4.13-3.71,5.44-6.61,1.32-2.92,1.98-6.49,1.98-10.72ZM130.18,267.01c-4.17,0-7.75-.92-10.74-2.75-2.97-1.83-5.27-4.36-6.88-7.59-1.6-3.25-2.39-6.98-2.39-11.21s.82-7.99,2.45-11.23c1.63-3.26,3.93-5.8,6.91-7.62,2.99-1.83,6.53-2.75,10.61-2.75,3.39,0,6.39.63,9,1.88,2.63,1.23,4.72,2.98,6.28,5.25,1.56,2.25,2.45,4.88,2.67,7.89h-9.41c-.38-2.01-1.29-3.69-2.72-5.03-1.41-1.36-3.31-2.04-5.68-2.04-2.01,0-3.78.54-5.3,1.63-1.52,1.07-2.71,2.61-3.56,4.62-.83,2.01-1.25,4.42-1.25,7.23s.42,5.29,1.25,7.34c.83,2.03,2,3.6,3.51,4.71,1.52,1.09,3.31,1.63,5.36,1.63,1.45,0,2.75-.27,3.89-.82,1.16-.56,2.13-1.37,2.91-2.42.78-1.05,1.31-2.33,1.6-3.84h9.41c-.24,2.96-1.11,5.58-2.61,7.86-1.5,2.27-3.55,4.04-6.15,5.33-2.59,1.27-5.64,1.9-9.14,1.9ZM174.05,224.42v7.62h-24.02v-7.62h24.02ZM155.97,214.41h9.85v39.22c0,1.32.2,2.34.6,3.05.42.69.96,1.16,1.63,1.41s1.41.38,2.23.38c.62,0,1.18-.04,1.69-.14.53-.09.92-.17,1.2-.24l1.66,7.7c-.53.18-1.28.38-2.26.6-.96.22-2.14.34-3.54.38-2.47.07-4.69-.3-6.66-1.12-1.98-.83-3.54-2.12-4.71-3.86-1.14-1.74-1.7-3.92-1.69-6.53v-40.85ZM197.09,267.01c-4.08,0-7.62-.9-10.61-2.69-2.99-1.8-5.31-4.31-6.96-7.53-1.63-3.23-2.45-7-2.45-11.31s.82-8.09,2.45-11.34c1.65-3.25,3.97-5.77,6.96-7.56,2.99-1.79,6.53-2.69,10.61-2.69s7.61.9,10.61,2.69c2.99,1.8,5.3,4.32,6.94,7.56,1.65,3.25,2.47,7.03,2.47,11.34s-.82,8.09-2.47,11.31c-1.63,3.23-3.94,5.74-6.94,7.53-2.99,1.79-6.53,2.69-10.61,2.69ZM197.15,259.12c2.21,0,4.06-.61,5.55-1.82,1.49-1.23,2.59-2.88,3.32-4.95.74-2.07,1.12-4.37,1.12-6.91s-.37-4.87-1.12-6.94c-.73-2.08-1.83-3.74-3.32-4.98-1.49-1.23-3.34-1.85-5.55-1.85s-4.15.62-5.66,1.85c-1.49,1.23-2.6,2.89-3.34,4.98-.73,2.07-1.09,4.38-1.09,6.94s.36,4.84,1.09,6.91c.74,2.07,1.86,3.72,3.34,4.95,1.51,1.22,3.39,1.82,5.66,1.82ZM222.5,281.86v-57.44h9.68v6.91h.57c.51-1.02,1.22-2.09,2.15-3.24.92-1.16,2.18-2.15,3.75-2.96,1.58-.83,3.59-1.25,6.04-1.25,3.23,0,6.14.82,8.73,2.47,2.61,1.63,4.68,4.05,6.2,7.26,1.54,3.19,2.31,7.11,2.31,11.75s-.75,8.48-2.26,11.69c-1.5,3.21-3.55,5.66-6.15,7.34-2.59,1.69-5.53,2.53-8.81,2.53-2.39,0-4.38-.4-5.96-1.2-1.58-.8-2.85-1.76-3.81-2.88-.94-1.14-1.68-2.22-2.2-3.24h-.41v22.25h-9.85ZM232.15,245.3c0,2.7.38,5.07,1.14,7.1.78,2.03,1.89,3.62,3.34,4.76,1.47,1.12,3.25,1.69,5.33,1.69s4-.58,5.47-1.74c1.47-1.18,2.57-2.78,3.32-4.81.76-2.05,1.14-4.38,1.14-6.99s-.37-4.9-1.11-6.91c-.74-2.01-1.85-3.59-3.32-4.73-1.47-1.14-3.3-1.71-5.49-1.71s-3.89.55-5.36,1.66c-1.47,1.11-2.58,2.66-3.34,4.65-.74,1.99-1.12,4.34-1.12,7.04ZM294.03,248.62v-24.21h9.85v41.77h-9.55v-7.42h-.43c-.94,2.34-2.49,4.25-4.65,5.74-2.14,1.49-4.78,2.23-7.91,2.23-2.74,0-5.16-.61-7.26-1.82-2.08-1.23-3.72-3.02-4.9-5.36-1.18-2.36-1.77-5.2-1.77-8.54v-26.6h9.85v25.08c0,2.65.73,4.75,2.18,6.31,1.45,1.56,3.35,2.34,5.71,2.34,1.45,0,2.86-.35,4.22-1.06,1.36-.71,2.47-1.76,3.34-3.15.89-1.41,1.33-3.18,1.33-5.3ZM344.05,235.46l-8.98.98c-.25-.91-.7-1.76-1.33-2.56-.62-.8-1.45-1.44-2.5-1.93-1.05-.49-2.34-.73-3.86-.73-2.05,0-3.77.44-5.17,1.33-1.38.89-2.06,2.04-2.04,3.45-.02,1.22.43,2.2,1.33,2.96.93.76,2.45,1.39,4.57,1.88l7.13,1.52c3.95.85,6.89,2.2,8.81,4.05,1.94,1.85,2.92,4.27,2.94,7.26-.02,2.63-.79,4.95-2.31,6.96-1.5,1.99-3.6,3.55-6.28,4.68-2.68,1.12-5.77,1.69-9.25,1.69-5.11,0-9.23-1.07-12.35-3.21-3.12-2.16-4.98-5.16-5.58-9l9.6-.92c.44,1.89,1.36,3.31,2.77,4.27,1.41.96,3.25,1.44,5.52,1.44s4.22-.48,5.63-1.44c1.43-.96,2.15-2.15,2.15-3.56,0-1.2-.46-2.18-1.39-2.96-.91-.78-2.32-1.38-4.24-1.79l-7.13-1.5c-4.01-.83-6.97-2.24-8.89-4.22-1.92-1.99-2.87-4.51-2.86-7.56-.02-2.57.68-4.8,2.09-6.69,1.43-1.9,3.42-3.37,5.96-4.41,2.56-1.05,5.5-1.58,8.84-1.58,4.9,0,8.75,1.04,11.56,3.13,2.83,2.08,4.58,4.9,5.25,8.46Z"/>
  <path class="cls-1" d="M140.12,149.47c10.6-7,22.94-18.81,18.4-32.59-2.6-7.65-6.06-14-6.71-22.31-.43-7,.65-14,3.03-20.34,9.52-25.81,37.87-38.06,63.41-30.4,23.59,7.22,39.82,34.99,30.08,59.05-5.63,14-8.22,24.93,4.33,35.65,3.46,2.84,11.69,7.44,11.69,12.68,0,6.78-13.42-1.53-14.72-2.62,1.73,3.06,18.4,20.56,7.79,21.87-9.74,1.09-18.4-12.68-24.24-18.59-9.96-10.06-8.22,12.03-8.22,16.62,0,7.22-5.19,21.87-14.07,12.25-7.36-7.87-4.54-20.34-9.74-29.09-5.63-9.62-15.15,9.62-17.53,13.12-2.6,3.94-15.8,22.75-20.99,12.68-4.33-8.09,2.6-21,5.84-28.43-1.3,2.63-9.96,6.56-12.34,7.87-5.41,3.06-11.69,4.59-17.96,4.16-13.63-.88-3.46-8.09,1.95-11.59Z"/>
  <path class="cls-2" d="M102.2,344.51h-18.87v-55.7h19.26c5.53,0,10.28,1.11,14.25,3.34,3.99,2.21,7.05,5.39,9.19,9.55,2.14,4.15,3.21,9.12,3.21,14.9s-1.08,10.79-3.24,14.96c-2.14,4.17-5.23,7.37-9.27,9.6-4.02,2.23-8.87,3.34-14.52,3.34ZM93.41,335.78h8.29c3.88,0,7.12-.71,9.71-2.12,2.59-1.43,4.54-3.56,5.85-6.39,1.31-2.85,1.96-6.4,1.96-10.66s-.65-7.8-1.96-10.61c-1.31-2.83-3.24-4.94-5.79-6.34-2.54-1.41-5.69-2.12-9.46-2.12h-8.59v38.24ZM153.91,345.32c-4.19,0-7.81-.87-10.85-2.61-3.03-1.76-5.36-4.24-6.99-7.45-1.63-3.23-2.45-7.03-2.45-11.4s.82-8.07,2.45-11.31c1.65-3.26,3.95-5.8,6.91-7.62,2.95-1.83,6.43-2.75,10.42-2.75,2.57,0,5,.42,7.29,1.25,2.3.82,4.33,2.08,6.09,3.81,1.78,1.72,3.17,3.92,4.19,6.58,1.02,2.65,1.52,5.8,1.52,9.46v3.02h-34.24v-6.64h24.8c-.02-1.89-.43-3.56-1.22-5.03-.8-1.49-1.91-2.66-3.35-3.51-1.41-.85-3.06-1.28-4.95-1.28-2.01,0-3.78.49-5.3,1.47-1.52.96-2.71,2.23-3.56,3.81-.83,1.56-1.26,3.27-1.28,5.14v5.79c0,2.43.44,4.51,1.33,6.26.89,1.72,2.13,3.05,3.73,3.97,1.6.91,3.46,1.36,5.6,1.36,1.43,0,2.73-.2,3.89-.6,1.16-.42,2.17-1.02,3.02-1.82.85-.8,1.5-1.79,1.93-2.96l9.19,1.03c-.58,2.43-1.69,4.55-3.32,6.36-1.61,1.79-3.68,3.19-6.2,4.19-2.52.98-5.4,1.47-8.65,1.47ZM177.85,360.17v-57.44h9.68v6.91h.57c.51-1.02,1.22-2.09,2.15-3.24.92-1.16,2.18-2.15,3.75-2.96,1.58-.83,3.59-1.25,6.04-1.25,3.23,0,6.14.82,8.73,2.47,2.61,1.63,4.68,4.05,6.2,7.26,1.54,3.19,2.31,7.11,2.31,11.75s-.75,8.48-2.26,11.69c-1.5,3.21-3.55,5.66-6.15,7.34s-5.53,2.53-8.81,2.53c-2.39,0-4.38-.4-5.96-1.2-1.58-.8-2.85-1.76-3.81-2.88-.94-1.14-1.68-2.22-2.2-3.24h-.41v22.25h-9.85ZM187.5,323.62c0,2.7.38,5.07,1.14,7.1.78,2.03,1.89,3.62,3.35,4.76,1.47,1.12,3.25,1.69,5.33,1.69s4-.58,5.47-1.74c1.47-1.18,2.57-2.78,3.32-4.81.76-2.05,1.14-4.38,1.14-6.99s-.37-4.9-1.12-6.91c-.74-2.01-1.85-3.59-3.32-4.73-1.47-1.14-3.3-1.71-5.49-1.71s-3.89.55-5.36,1.66c-1.47,1.11-2.58,2.66-3.35,4.65-.74,1.99-1.11,4.34-1.11,7.04ZM232.59,288.81v55.7h-9.85v-55.7h9.85ZM257.97,345.32c-4.08,0-7.62-.9-10.61-2.69-2.99-1.8-5.31-4.31-6.96-7.53-1.63-3.23-2.45-7-2.45-11.31s.82-8.09,2.45-11.34c1.65-3.25,3.97-5.77,6.96-7.56,2.99-1.79,6.53-2.69,10.61-2.69s7.62.9,10.61,2.69c2.99,1.8,5.3,4.32,6.93,7.56,1.65,3.25,2.47,7.03,2.47,11.34s-.82,8.09-2.47,11.31c-1.63,3.23-3.94,5.74-6.93,7.53-2.99,1.79-6.53,2.69-10.61,2.69ZM258.03,337.44c2.21,0,4.06-.61,5.55-1.82,1.49-1.23,2.59-2.88,3.32-4.95.74-2.07,1.11-4.37,1.11-6.91s-.37-4.87-1.11-6.94c-.73-2.08-1.83-3.74-3.32-4.98-1.49-1.23-3.34-1.85-5.55-1.85s-4.15.62-5.66,1.85c-1.49,1.23-2.6,2.89-3.35,4.98-.72,2.07-1.09,4.38-1.09,6.94s.36,4.84,1.09,6.91c.74,2.07,1.86,3.72,3.35,4.95,1.5,1.22,3.39,1.82,5.66,1.82ZM288.08,360.17c-1.34,0-2.58-.11-3.73-.33-1.12-.2-2.02-.44-2.69-.71l2.28-7.67c1.43.42,2.71.62,3.84.6,1.12-.02,2.11-.37,2.96-1.06.87-.67,1.6-1.8,2.2-3.37l.84-2.26-15.15-42.64h10.44l9.63,31.55h.43l9.66-31.55h10.47l-16.73,46.83c-.78,2.21-1.81,4.11-3.1,5.68-1.29,1.6-2.86,2.81-4.73,3.64-1.85.85-4.06,1.28-6.64,1.28Z"/>
</svg>