<?xml version="1.0" encoding="UTF-8"?>
<svg id="Layer_2" data-name="Layer 2" xmlns="http://www.w3.org/2000/svg" viewBox="0 0 1145.53 1061.85">
  <defs>
    <style>
      .cls-1 {
        fill: #0d0d0d;
      }
    </style>
  </defs>
  <g id="Layer_1-2" data-name="Layer 1">
    <g>
      <g>
        <path class="cls-1" d="M916.73,842.27h-23.89c-2.09,0-3.98-.85-5.34-2.21-1.37-1.37-2.21-3.26-2.21-5.34v-23.89c0-2.09-.85-3.98-2.21-5.34-1.37-1.37-3.26-2.21-5.34-2.21h-112.21c-1.28,0-2.54.24-3.71.69-1.33.51-2.55,1.3-3.58,2.33l-32.67,32.67c-.96.96-1.71,2.09-2.22,3.32-.52,1.24-.79,2.59-.79,3.97v111.61c0,1.69.55,3.24,1.49,4.5,1.38,1.85,3.58,3.06,6.07,3.06h23.89c1.8,0,3.45.63,4.74,1.67,1.72,1.39,2.81,3.51,2.81,5.88v23.89c0,2.09.85,3.98,2.21,5.34,1.37,1.37,3.26,2.21,5.34,2.21h112.05c1.37,0,2.7-.27,3.94-.78,1.24-.51,2.38-1.27,3.34-2.23l32.83-32.83c.91-.91,1.64-1.98,2.15-3.15.57-1.29.87-2.7.87-4.14v-111.44c0-1.71-.56-3.28-1.52-4.54-1.38-1.83-3.57-3.01-6.04-3.01ZM885.29,957.84c0,1.87-.68,3.58-1.8,4.9-1.39,1.63-3.45,2.66-5.76,2.66h-108.63c-2.09,0-3.98-.85-5.34-2.21-1.37-1.37-2.21-3.26-2.21-5.34v-108.02c0-2.09.85-3.98,2.21-5.34s3.26-2.21,5.34-2.21h108.63c2.09,0,3.98.85,5.34,2.21,1.37,1.37,2.21,3.26,2.21,5.34v108.02Z"/>
        <g>
          <path class="cls-1" d="M474.22,1004.4h-24.08c-2.09,0-3.98-.85-5.34-2.21-1.37-1.37-2.21-3.26-2.21-5.34v-186.03c0-1.99.77-3.79,2.02-5.14,1.38-1.49,3.35-2.41,5.54-2.41h24.08c1.8,0,3.45.63,4.75,1.68,1.71,1.39,2.81,3.5,2.81,5.88v186.03c0,2.09-.85,3.98-2.21,5.34-1.37,1.37-3.26,2.21-5.34,2.21Z"/>
          <path class="cls-1" d="M474.22,764.26h-24.08c-1.87,0-3.57-.68-4.89-1.8-1.63-1.39-2.66-3.45-2.66-5.76v-24.08c0-2.01.78-3.83,2.06-5.18,1.38-1.46,3.33-2.38,5.5-2.38h24.08c2.09,0,3.98.85,5.34,2.21,1.37,1.37,2.21,3.26,2.21,5.34v24.08c0,2.09-.85,3.98-2.21,5.34-1.37,1.37-3.26,2.21-5.34,2.21Z"/>
        </g>
        <path class="cls-1" d="M1114.09,883.29h23.89c1.04,0,2.04-.21,2.94-.59,2.71-1.15,4.61-3.83,4.61-6.96v-25.6c0-2.17-.88-4.14-2.3-5.56-1.42-1.42-3.39-2.3-5.56-2.3h-23.09c-2.22,0-4.23-.9-5.68-2.35-1.45-1.45-2.35-3.46-2.35-5.68v-23.1c0-2.17-.88-4.14-2.3-5.56-1.42-1.42-3.39-2.3-5.56-2.3h-111.9c-1.35,0-2.68.27-3.9.77-1.25.51-2.41,1.27-3.38,2.25l-32.67,32.67c-.88.88-1.58,1.89-2.08,3-.61,1.33-.93,2.79-.93,4.29v22.34c0,1.88.55,3.67,1.52,5.19.97,1.52,2.37,2.76,4.08,3.55l152.74,70.23c.67.31,1.28.71,1.82,1.18,1.61,1.41,2.58,3.47,2.58,5.69v3.43c0,1.88-.69,3.61-1.83,4.93-1.39,1.61-3.44,2.63-5.73,2.63h-108.63c-2.09,0-3.98-.85-5.34-2.21-1.37-1.37-2.21-3.26-2.21-5.34v-26.88c0-2.09-.85-3.98-2.21-5.34-1.37-1.37-3.26-2.21-5.34-2.21h-23.89c-1.94,0-3.71.73-5.05,1.93-1.54,1.38-2.51,3.39-2.51,5.62v26.88c0,2.09.85,3.98,2.21,5.34,1.37,1.37,3.26,2.21,5.34,2.21h23.89c1.95,0,3.72.74,5.06,1.95,1.53,1.38,2.49,3.38,2.49,5.61v23.57c0,2.17.88,4.14,2.3,5.56,1.42,1.42,3.39,2.3,5.56,2.3h111.74c1.37,0,2.7-.27,3.94-.78,1.24-.51,2.38-1.27,3.34-2.23l32.83-32.79c.93-.93,1.66-2.01,2.17-3.19.56-1.28.85-2.67.85-4.1v-22.41c0-1.53-.36-3-1.02-4.31-.96-1.91-2.55-3.49-4.58-4.42l-152.74-70.23c-1.34-.62-2.44-1.59-3.21-2.79-.76-1.19-1.19-2.6-1.19-4.08v-3.24c0-2.09.85-3.98,2.21-5.34,1.37-1.37,3.26-2.21,5.34-2.21h108.15c2.04,0,3.91.76,5.33,2.02,1.66,1.47,2.71,3.62,2.71,6.02v25.43c0,1.81.63,3.46,1.69,4.76,1.39,1.7,3.5,2.79,5.87,2.79Z"/>
        <path class="cls-1" d="M423.05,732.62c0-2.09-.85-3.98-2.21-5.34-1.37-1.37-3.26-2.21-5.34-2.21h-24.08c-1.9,0-3.64.7-4.97,1.86-1.59,1.39-2.59,3.42-2.59,5.69v78.07c0-1.79-.63-3.44-1.67-4.74-1.39-1.72-3.51-2.82-5.89-2.82h-112.21c-1.37,0-2.7.27-3.94.78-1.24.51-2.38,1.27-3.34,2.23l-32.67,32.67c-.96.96-1.71,2.09-2.22,3.32-.52,1.24-.79,2.59-.79,3.97v111.61c0,1.99.77,3.8,2.02,5.15,1.38,1.48,3.35,2.41,5.53,2.41h23.89c2.09,0,3.98.85,5.34,2.21,1.37,1.37,2.21,3.26,2.21,5.34v23.89c0,2.09.85,3.98,2.21,5.34,1.37,1.37,3.26,2.21,5.34,2.21h112.05c1.37,0,2.7-.27,3.94-.78,1.24-.51,2.38-1.27,3.34-2.23l32.83-32.83c.91-.92,1.64-1.98,2.15-3.15.57-1.29.87-2.7.87-4.14l.2-228.52ZM383.85,957.72c0,1.86-.67,3.57-1.79,4.88-1.39,1.64-3.46,2.67-5.77,2.67h-108.63c-2.09,0-3.98-.85-5.34-2.21-1.37-1.37-2.21-3.26-2.21-5.34v-108.02c0-2.09.85-3.98,2.21-5.34,1.37-1.37,3.26-2.21,5.34-2.21h108.63c2.09,0,3.98.85,5.34,2.21,1.37,1.37,2.21,3.26,2.21,5.34v108.02Z"/>
        <path class="cls-1" d="M695.49,842.27h-23.89c-2.09,0-3.98-.85-5.34-2.21-1.37-1.37-2.21-3.26-2.21-5.34v-23.89c0-2.01-.79-3.84-2.07-5.2-1.38-1.45-3.32-2.36-5.48-2.36h-112.21c-1.37,0-2.7.27-3.94.78-1.24.51-2.38,1.27-3.34,2.23l-32.67,32.67c-.48.48-.91,1.01-1.29,1.57-1.12,1.68-1.73,3.67-1.73,5.72v111.61c0,1.9.7,3.63,1.85,4.96,1.39,1.59,3.43,2.6,5.7,2.6h23.89c1.95,0,3.73.74,5.07,1.96,1.53,1.38,2.48,3.38,2.48,5.6v23.89c0,2.09.85,3.98,2.21,5.34,1.37,1.37,3.26,2.21,5.34,2.21h112.05s.03,0,.04,0c2.23,0,4.09,1.69,4.09,3.92v6.98c0,1.96-.75,3.75-1.97,5.09-1.38,1.52-3.37,2.47-5.58,2.47h-108.63c-1.75,0-3.36.59-4.64,1.59-1.78,1.38-2.92,3.54-2.92,5.97v23.89c0,2.09.85,3.98,2.21,5.34,1.37,1.37,3.26,2.21,5.34,2.21h112.05c1.37,0,2.7-.27,3.94-.78,1.24-.51,2.38-1.27,3.34-2.23l32.83-32.83c.97-.97,1.72-2.1,2.23-3.34.51-1.24.78-2.58.78-3.94v-168.9c0-1.78-.62-3.42-1.65-4.71-1.38-1.73-3.52-2.85-5.91-2.85ZM664.05,936.76v17.16c0,6.34-5.14,11.48-11.48,11.48h-104.71c-2.1,0-4-.86-5.37-2.24-1.35-1.37-2.19-3.25-2.19-5.32v-108.02c0-2.09.85-3.98,2.21-5.34,1.37-1.37,3.26-2.21,5.34-2.21h108.63c1.97,0,3.77.76,5.12,2,1.5,1.38,2.44,3.36,2.44,5.56v86.94h0Z"/>
        <path class="cls-1" d="M194.19,842.27h-23.89c-2.09,0-3.98-.85-5.34-2.21-1.37-1.37-2.21-3.26-2.21-5.34v-23.89c0-2.09-.85-3.98-2.21-5.34-1.37-1.37-3.26-2.21-5.34-2.21H42.97c-1.37,0-2.7.27-3.94.78-1.24.51-2.38,1.27-3.34,2.23l-32.67,32.67c-.97.97-1.72,2.1-2.23,3.34-.51,1.24-.78,2.58-.78,3.94v111.61c0,1.95.74,3.73,1.96,5.07,1.38,1.52,3.38,2.48,5.6,2.48h23.89c1.74,0,3.34.59,4.62,1.57,1.79,1.38,2.94,3.55,2.94,5.98v23.89c0,2.09.85,3.98,2.21,5.34,1.37,1.37,3.26,2.21,5.34,2.21h112.05c1.37,0,2.7-.27,3.94-.78s2.38-1.27,3.34-2.23l32.83-32.83c.91-.91,1.64-1.98,2.15-3.15.57-1.29.87-2.7.87-4.14v-111.44c0-2.02-.8-3.86-2.09-5.22-1.38-1.44-3.32-2.34-5.47-2.34ZM162.74,957.84c0,2.08-.84,3.97-2.21,5.34-1.37,1.37-3.26,2.22-5.35,2.22H46.55c-2.09,0-3.98-.85-5.34-2.21-1.37-1.37-2.21-3.26-2.21-5.34v-104.09c0-6.34,5.14-11.48,11.48-11.48h104.7c1.96,0,3.75.75,5.09,1.98,1.51,1.38,2.46,3.37,2.46,5.58v108.02Z"/>
      </g>
      <g>
        <path class="cls-1" d="M438.94,405.92l-111.1,111.1c-2.9,2.9-6.72,4.24-10.47,4.09-3.95-.16-7.83-1.98-10.46-5.39-17.97-23.3-32.46-48.42-43.46-74.66-1.82-4.34-2.22-9.02-1.33-13.45.89-4.43,3.07-8.6,6.4-11.93l86.81-86.81c4.53-4.53,6.8-10.47,6.81-16.41.01-5.97-2.26-11.94-6.81-16.49l-87.46-87.46c-4.57-4.57-6.97-10.73-6.85-16.95.05-2.81.62-5.63,1.74-8.32,10.89-26.35,25.28-51.6,43.17-75.03,2.56-3.35,6.31-5.18,10.17-5.43,3.86-.25,7.82,1.09,10.81,4.07l112.06,112.06c3.63,3.63,5.45,8.4,5.45,13.16,0,4.76-1.82,9.53-5.45,13.16l-50.74,50.74c-4.54,4.54-6.81,10.5-6.81,16.45,0,5.95,2.27,11.91,6.81,16.45l50.72,50.72c3.63,3.63,5.45,8.4,5.45,13.16,0,4.76-1.82,9.53-5.45,13.16Z"/>
        <path class="cls-1" d="M778.31,66.56l-116.83,116.83c-2.53,2.53-5.5,4.53-8.73,5.91-3.45,1.48-7.19,2.26-11.01,2.26h-137c-3.7,0-7.33-.74-10.68-2.13s-6.44-3.43-9.06-6.05l-117.38-117.38c-2.98-2.98-4.31-6.94-4.07-10.79.24-3.85,2.06-7.61,5.4-10.17,23.37-17.93,48.57-32.36,74.87-43.29,4.03-1.67,8.35-2.13,12.48-1.46,4.76.76,9.28,3,12.84,6.56l87.66,87.66c4.38,4.38,10.07,6.65,15.81,6.81,6.17.17,12.39-2.1,17.09-6.81L676.97,7.22c3.33-3.33,7.5-5.51,11.93-6.4,4.43-.89,9.11-.49,13.45,1.33,26.24,11,51.36,25.49,74.66,43.46,6.66,5.13,7.25,14.99,1.3,20.94Z"/>
        <circle class="cls-1" cx="572.6" cy="312.47" r="73.16"/>
        <path class="cls-1" d="M367.61,557.34l116.83-116.83c2.28-2.28,4.91-4.12,7.77-5.48,3.71-1.76,7.79-2.7,11.97-2.7h137c3.7,0,7.33.74,10.68,2.13,3.36,1.39,6.44,3.43,9.06,6.05l117.38,117.38c2.68,2.68,4.03,6.14,4.1,9.62.09,4.26-1.75,8.52-5.43,11.34-23.37,17.93-48.57,32.36-74.87,43.29-4.34,1.8-9,2.19-13.42,1.29-4.41-.89-8.58-3.07-11.9-6.39l-87.66-87.66c-4.54-4.54-10.5-6.81-16.45-6.81-5.95,0-11.91,2.27-16.45,6.81l-87.28,87.28c-3.06,3.06-6.84,5.15-10.86,6.16-4.74,1.18-9.82.88-14.51-1.09-26.24-11-51.36-25.49-74.66-43.46-3.33-2.57-5.14-6.32-5.38-10.16-.24-3.85,1.1-7.8,4.07-10.77Z"/>
        <path class="cls-1" d="M706.59,217.96l111.1-111.1c2.97-2.97,6.92-4.31,10.77-4.07,3.85.24,7.6,2.05,10.16,5.38,17.97,23.3,32.46,48.42,43.46,74.66.91,2.17,1.46,4.43,1.68,6.69.65,6.8-1.75,13.69-6.75,18.69l-86.81,86.81c-4.54,4.54-6.81,10.5-6.81,16.45,0,5.95,2.27,11.91,6.81,16.45l87.46,87.46c3.31,3.31,5.49,7.47,6.38,11.87.9,4.41.52,9.07-1.27,13.4-10.89,26.35-25.28,51.6-43.17,75.03-2.27,2.98-5.49,4.75-8.89,5.29-4.25.67-8.78-.62-12.09-3.93l-112.06-112.06c-3.63-3.63-5.45-8.4-5.45-13.16s1.82-9.53,5.45-13.16l50.74-50.74c4.42-4.42,6.69-10.17,6.81-15.96.13-6.12-2.14-12.27-6.81-16.94l-50.72-50.72c-3.63-3.63-5.45-8.4-5.45-13.16,0-4.76,1.82-9.53,5.45-13.16Z"/>
      </g>
    </g>
  </g>
</svg>