<svg width="1900" height="460" viewBox="0 0 1900 460" fill="none" xmlns="http://www.w3.org/2000/svg">
<g clip-path="url(#clip0_1_33)">
<g clip-path="url(#clip1_1_33)">
<g clip-path="url(#clip2_1_33)">
<g clip-path="url(#clip3_1_33)">
<g clip-path="url(#clip4_1_33)">
<g clip-path="url(#clip5_1_33)">
<path d="M722.73 230.941C722.73 260.673 715.218 284.056 700.196 301.091C685.139 318.125 664.237 326.642 637.488 326.642C610.115 326.642 589.004 318.281 574.155 301.559C559.272 284.802 551.83 261.193 551.83 230.733C551.83 200.48 559.289 177.027 574.207 160.375C589.126 143.756 610.306 135.447 637.748 135.447C664.427 135.447 685.261 143.913 700.248 160.843C715.236 177.773 722.73 201.139 722.73 230.941ZM574.728 230.941C574.728 256.128 580.071 275.209 590.756 288.185C601.476 301.195 617.054 307.7 637.488 307.7C658.061 307.7 673.604 301.229 684.116 288.289C694.593 275.313 699.832 256.197 699.832 230.941C699.832 205.962 694.611 187.019 684.168 174.113C673.691 161.207 658.217 154.754 637.748 154.754C617.14 154.754 601.476 161.242 590.756 174.217C580.071 187.227 574.728 206.135 574.728 230.941ZM959.512 324.092H938.435V233.491C938.435 222.389 936.059 214.08 931.306 208.564C926.588 203.013 919.233 200.237 909.241 200.237C896.092 200.237 886.395 204.001 880.151 211.53C873.871 219.058 870.731 230.663 870.731 246.345V324.092H849.655V233.491C849.655 222.389 847.279 214.08 842.526 208.564C837.773 203.013 830.366 200.237 820.305 200.237C807.086 200.237 797.407 204.192 791.266 212.102C785.126 220.012 782.055 232.988 782.055 251.028V324.092H760.927V184.833H778.1L781.535 203.88H782.576C786.531 197.115 792.134 191.824 799.384 188.008C806.635 184.191 814.754 182.283 823.739 182.283C845.492 182.283 859.716 190.159 866.412 205.909H867.401C871.564 198.659 877.583 192.899 885.459 188.632C893.334 184.4 902.32 182.283 912.415 182.283C928.166 182.283 939.962 186.342 947.803 194.461C955.609 202.544 959.512 215.468 959.512 233.23V324.092ZM1119.33 324.092H1098.25V234.011C1098.25 222.666 1095.67 214.201 1090.5 208.616C1085.33 203.03 1077.24 200.237 1066.25 200.237C1051.67 200.237 1041.01 204.175 1034.24 212.05C1027.44 219.926 1024.04 232.918 1024.04 251.028V324.092H1002.96V184.833H1020.14L1023.57 203.88H1024.56C1028.9 197.045 1034.95 191.737 1042.72 187.956C1050.53 184.174 1059.22 182.283 1068.8 182.283C1085.55 182.283 1098.16 186.342 1106.63 194.461C1115.09 202.544 1119.33 215.468 1119.33 233.23V324.092ZM1183.75 184.833V324.092H1162.68V184.833H1183.75ZM1160.91 147.104C1160.91 142.282 1162.09 138.743 1164.45 136.488C1166.8 134.268 1169.77 133.158 1173.34 133.158C1176.71 133.158 1179.62 134.285 1182.09 136.54C1184.55 138.83 1185.78 142.351 1185.78 147.104C1185.78 151.857 1184.55 155.396 1182.09 157.72C1179.62 160.045 1176.71 161.207 1173.34 161.207C1169.77 161.207 1166.8 160.045 1164.45 157.72C1162.09 155.396 1160.91 151.857 1160.91 147.104ZM1318.28 286.103C1318.28 299.078 1313.45 309.07 1303.81 316.078C1294.16 323.121 1280.62 326.642 1263.17 326.642C1244.67 326.642 1230.28 323.711 1219.97 317.848V298.28C1226.63 301.68 1233.8 304.352 1241.46 306.295C1249.13 308.237 1256.52 309.209 1263.63 309.209C1274.67 309.209 1283.15 307.457 1289.08 303.953C1295.01 300.449 1297.98 295.089 1297.98 287.872C1297.98 282.46 1295.62 277.829 1290.9 273.978C1286.22 270.127 1277.04 265.565 1263.37 260.291C1250.43 255.469 1241.22 251.254 1235.74 247.646C1230.29 244.072 1226.23 239.996 1223.56 235.416C1220.89 230.837 1219.56 225.372 1219.56 219.024C1219.56 207.679 1224.17 198.728 1233.4 192.171C1242.63 185.579 1255.29 182.283 1271.39 182.283C1286.37 182.283 1301.03 185.336 1315.36 191.442L1307.87 208.616C1293.89 202.856 1281.22 199.977 1269.88 199.977C1259.89 199.977 1252.34 201.538 1247.24 204.661C1242.18 207.783 1239.64 212.102 1239.64 217.618C1239.64 221.365 1240.6 224.54 1242.51 227.142C1244.41 229.779 1247.48 232.276 1251.72 234.636C1255.95 237.029 1264.08 240.464 1276.12 244.939C1292.64 250.941 1303.79 256.995 1309.58 263.101C1315.38 269.207 1318.28 276.875 1318.28 286.103ZM1397.53 309.209C1401.28 309.209 1404.89 308.931 1408.36 308.376C1411.83 307.856 1414.58 307.301 1416.63 306.711V322.843C1414.34 323.919 1410.96 324.821 1406.48 325.549C1402.04 326.278 1398.05 326.642 1394.51 326.642C1367.56 326.642 1354.08 312.453 1354.08 284.074V201.226H1334.15V191.078L1354.08 182.283L1362.98 152.569H1375.21V184.833H1415.59V201.226H1375.21V283.189C1375.21 291.585 1377.18 298.02 1381.14 302.496C1385.13 306.971 1390.59 309.209 1397.53 309.209ZM1507.96 182.283C1514.14 182.283 1519.69 182.804 1524.61 183.845L1521.65 203.412C1515.89 202.128 1510.81 201.486 1506.4 201.486C1495.16 201.486 1485.53 206.066 1477.52 215.225C1469.5 224.349 1465.5 235.728 1465.5 249.363V324.092H1444.42V184.833H1461.8L1464.25 210.645H1465.24C1470.41 201.59 1476.63 194.599 1483.92 189.673C1491.2 184.747 1499.22 182.283 1507.96 182.283ZM1651.9 324.092H1636.24L1632.08 304.265H1631.04C1624.1 313.008 1617.18 318.923 1610.27 322.011C1603.37 325.098 1594.75 326.642 1584.41 326.642C1570.6 326.642 1559.78 323.086 1551.94 315.974C1544.13 308.862 1540.23 298.731 1540.23 285.583C1540.23 257.481 1562.71 242.754 1607.67 241.401L1631.3 240.62V231.982C1631.3 221.053 1628.95 212.987 1624.27 207.783C1619.55 202.579 1612.02 199.977 1601.69 199.977C1590.1 199.977 1576.97 203.533 1562.29 210.645L1555.84 194.513C1562.71 190.766 1570.22 187.834 1578.37 185.718C1586.56 183.602 1594.76 182.544 1602.99 182.544C1619.57 182.544 1631.87 186.238 1639.88 193.628C1647.9 200.983 1651.9 212.796 1651.9 229.067V324.092ZM1588.62 309.209C1601.74 309.209 1612.04 305.618 1619.53 298.437C1627.03 291.22 1630.78 281.142 1630.78 268.201V255.608L1609.7 256.492C1592.94 257.082 1580.85 259.684 1573.43 264.298C1566 268.913 1562.29 276.094 1562.29 285.843C1562.29 293.475 1564.6 299.287 1569.21 303.276C1573.83 307.231 1580.3 309.209 1588.62 309.209ZM1740.32 309.209C1744.03 309.209 1747.62 308.931 1751.09 308.376C1754.56 307.856 1757.32 307.301 1759.37 306.711V322.843C1757.08 323.919 1753.71 324.821 1749.27 325.549C1744.8 326.278 1740.79 326.642 1737.25 326.642C1710.33 326.642 1696.87 312.453 1696.87 284.074V201.226H1676.88V191.078L1696.87 182.283L1705.71 152.569H1717.94V184.833H1758.33V201.226H1717.94V283.189C1717.94 291.585 1719.94 298.02 1723.93 302.496C1727.88 306.971 1733.35 309.209 1740.32 309.209ZM1846.01 326.642C1825.41 326.642 1809.15 320.363 1797.25 307.804C1785.35 295.28 1779.4 277.881 1779.4 255.608C1779.4 233.161 1784.94 215.329 1796 202.111C1807.04 188.892 1821.88 182.283 1840.55 182.283C1857.96 182.283 1871.76 188.025 1881.92 199.509C1892.09 210.992 1897.17 226.136 1897.17 244.939V258.262H1801.26C1801.67 274.637 1805.8 287.057 1813.64 295.522C1821.48 303.988 1832.52 308.22 1846.74 308.22C1861.73 308.22 1876.56 305.08 1891.24 298.801V317.587C1883.78 320.814 1876.72 323.138 1870.06 324.561C1863.43 325.948 1855.42 326.642 1846.01 326.642ZM1840.29 199.977C1829.08 199.977 1820.17 203.62 1813.54 210.905C1806.88 218.191 1802.96 228.269 1801.78 241.141H1874.58C1874.58 227.818 1871.62 217.636 1865.68 210.593C1859.75 203.516 1851.29 199.977 1840.29 199.977Z" fill="#1E1E1E"/>
</g>
</g>
</g>
</g>
<g clip-path="url(#clip6_1_33)">
<g clip-path="url(#clip7_1_33)">
<path d="M2.81201 229.9C2.81201 103.523 105.259 1.07568 231.636 1.07568C358.013 1.07568 460.461 103.523 460.461 229.9C460.461 356.277 358.013 458.724 231.636 458.724C105.259 458.724 2.81201 356.277 2.81201 229.9ZM231.636 441.274C348.377 441.274 443.011 346.637 443.011 229.9C443.011 113.159 348.373 18.5255 231.636 18.5255C114.896 18.5255 20.2619 113.163 20.2619 229.9C20.2619 346.64 114.899 441.274 231.636 441.274V441.274Z" fill="#38B601"/>
<g clip-path="url(#clip8_1_33)">
<g clip-path="url(#clip9_1_33)">
<path fill-rule="evenodd" clip-rule="evenodd" d="M323.489 349.969H182.108C166.499 349.969 153.892 337.362 153.892 321.753H168C168 329.558 174.303 335.861 182.108 335.861H323.489C331.294 335.861 337.598 329.558 337.598 321.753V180.372C337.598 172.567 331.294 166.263 323.489 166.263V152.155C339.098 152.155 351.706 164.763 351.706 180.372V321.753C351.706 337.362 339.098 349.969 323.489 349.969ZM281.165 307.645H139.783C124.174 307.645 111.567 295.038 111.567 279.429V138.047C111.567 122.438 124.174 109.831 139.783 109.831H281.165C296.774 109.831 309.381 122.438 309.381 138.047V279.429C309.381 295.038 296.774 307.645 281.165 307.645Z" fill="#38B601"/>
</g>
</g>
</g>
</g>
</g>
</g>
<defs>
<clipPath id="clip0_1_33">
<rect width="1894.38" height="457.649" fill="white" transform="translate(2.81201 1.07568)"/>
</clipPath>
<clipPath id="clip1_1_33">
<rect width="1894.38" height="457.649" fill="white" transform="translate(2.81201 1.07568)"/>
</clipPath>
<clipPath id="clip2_1_33">
<rect width="1345.37" height="193.485" fill="white" transform="translate(551.815 133.158)"/>
</clipPath>
<clipPath id="clip3_1_33">
<rect width="1345.37" height="193.485" fill="white" transform="translate(551.815 133.158)"/>
</clipPath>
<clipPath id="clip4_1_33">
<rect width="1345.37" height="193.485" fill="white" transform="translate(551.815 133.158)"/>
</clipPath>
<clipPath id="clip5_1_33">
<rect width="1345.37" height="193.485" fill="white" transform="translate(551.815 133.158)"/>
</clipPath>
<clipPath id="clip6_1_33">
<rect width="457.649" height="457.649" fill="white" transform="translate(2.81201 1.07568)"/>
</clipPath>
<clipPath id="clip7_1_33">
<rect width="457.649" height="457.649" fill="white" transform="translate(2.81201 1.07568)"/>
</clipPath>
<clipPath id="clip8_1_33">
<rect width="240.139" height="240.139" fill="white" transform="translate(111.567 109.831)"/>
</clipPath>
<clipPath id="clip9_1_33">
<rect width="240.139" height="240.139" fill="white" transform="translate(111.567 109.831)"/>
</clipPath>
</defs>
</svg>
