<svg id="Layer_1" data-name="Layer 1" xmlns="http://www.w3.org/2000/svg" viewBox="0 0 595.276 170.08453"><defs><style>.cls-1{fill:#343433;}.cls-2{fill:#fefefe;}.cls-3{fill:#f4f5f6;}.cls-4{fill:#dedfdf;}.cls-5{fill:#d1d1d1;}.cls-6{fill:#d8d8d8;}.cls-7{fill:#b2b2b2;}</style></defs><title>onnx</title><path class="cls-1" d="M148.778,80.026a1.43277,1.43277,0,0,1-1.42641-.89Q135.76533,57.63644,124.11731,36.1703a1.80419,1.80419,0,0,1-.14664-1.60487,5.848,5.848,0,0,0-8.97526-6.67406,2.38368,2.38368,0,0,1-2.12688.43173q-22.82763-4.5834-45.6611-9.13768a1.58241,1.58241,0,0,1-1.44315-1.25762,5.85654,5.85654,0,1,0-11.188,3.46684,1.97488,1.97488,0,0,1-.30693,1.959Q36.11966,49.33407,18.02356,75.35189c-.48954.70409-.9717,1.01019-1.69136.74847A5.84635,5.84635,0,0,0,10.0366,81.134a5.75192,5.75192,0,0,0,5.00132,6.61155A1.56709,1.56709,0,0,1,16.51725,88.968q9.72482,24.03377,19.50627,48.04464a2.4309,2.4309,0,0,1,.11639,1.6496,5.86484,5.86484,0,0,0,9.23393,6.32816,2.05876,2.05876,0,0,1,1.57554-.46312c3.79134.39359,7.58782.73718,11.38174,1.10644q12.46155,1.21281,24.92214,2.43464,11.23619,1.10081,22.47277,2.19672a1.529,1.529,0,0,1,1.48935,1.02458,5.86454,5.86454,0,1,0,10.39016-5.3882,1.45993,1.45993,0,0,1-.01992-1.68691q14.85166-25.73128,29.65485-51.49052a1.58692,1.58692,0,0,1,1.55282-.96285A5.86772,5.86772,0,1,0,148.778,80.026ZM58.015,33.61129q.83565-3.58885,1.66176-7.17989c.13827-.6061.32232-.96634,1.10492-1.01482A5.04,5.04,0,0,0,64.52018,23.466a1.38149,1.38149,0,0,1,1.623-.489q22.95454,4.60485,45.91571,9.17657c.12651.02528.24542.08866.71264.26268-5.02743,2.19868-9.73594,4.26405-14.44946,6.31792Q76.54,48.22532,54.75477,57.70886c-.22036.096-.44259.18762-.66534.27785-.46722.18936-.90836.63182-1.44886.17245-.50291-.42737-.13238-.89119-.0302-1.3312Q55.30715,45.21841,58.015,33.61129Zm-3.29688-4.02168.24067.16016Q51.86719,42.96707,48.7821,56.186a1.50721,1.50721,0,0,1-1.14694,1.26241,5.5298,5.5298,0,0,0-4.03807,4.95376,1.6304,1.6304,0,0,1-.79908,1.422q-9.79937,5.7346-19.56983,11.51857a2.7048,2.7048,0,0,1-.49223.10951C33.46922,60.06063,44.09369,44.82516,54.71811,29.58961ZM39.26177,132.74786a11.12191,11.12191,0,0,1-.28134,1.08456c-2.29419-5.64926-4.4484-10.95328-6.60222-16.25742q-6.06123-14.92692-12.142-29.84587a1.99918,1.99918,0,0,1,.308-2.43721,4.37978,4.37978,0,0,0,1.08935-3.35647A1.67808,1.67808,0,0,1,22.67788,80.138c7.15784-4.18768,14.28661-8.42479,21.43359-12.631.403-.23714.8047-.78291,1.38639-.22738.52755.50375,1.25492.736,1.12153,1.791-.69564,5.50258-1.29258,11.01753-1.92514,16.528q-1.378,12.00382-2.75818,24.00732Q40.60387,121.17744,39.26177,132.74786Zm6.70235,3.6406a4.44715,4.44715,0,0,0-2.25853-1.50012c-.52864-.16455-.88988-.38164-.70976-.88159.57022-4.974,1.12288-9.8138,1.68028-14.65308q1.68046-14.58966,3.36524-29.17878c.785-6.80353,1.61293-13.60244,2.32091-20.414.14036-1.35039,1.19441-1.30941,1.92945-1.80313.747-.50174,1.05784.24751,1.43094.57114q24.32886,21.10055,48.62642,42.23723a2.261,2.261,0,0,1-.60021,3.5804Q74.65045,125.52593,47.55146,136.704C46.90539,136.97085,46.464,137.047,45.96412,136.38846Zm63.44793,7.68827a2.47476,2.47476,0,0,0-1.07837.9356c-.75335,1.57528-2.054,1.38278-3.41392,1.24742q-16.044-1.59663-32.09132-3.15974-12.08786-1.18966-24.17489-2.3876l-.08806-.262c2.91114-1.21045,5.81927-2.42823,8.734-3.63014q22.83037-9.41444,45.65569-18.84115c.86015-.35627,1.39066-.04285,2.18643.23535,2.27008.79359,2.322,2.56485,2.52578,4.426.73431,6.7075,1.50932,13.41059,2.28757,20.1132C110.022,143.33057,110.0066,143.75968,109.41205,144.07673Zm-1.9366-37.03627c-.09289.71917-.42637.92336-.99777,1.18308a1.34969,1.34969,0,0,1-1.66041-.36517c-3.88079-3.40229-7.7849-6.778-11.68-10.164Q74.62392,81.60069,56.11139,65.50592a4.04851,4.04851,0,0,1-.98958-3.55708c.24956-.5197.87214-.56677,1.34106-.77148q23.682-10.33842,47.37625-20.6485c2.91271-1.2687,5.83675-2.51219,8.73141-3.82073.81817-.36983,1.45548-.56582,2.087.30733a2.73324,2.73324,0,0,0,1.17728.81237c.552.22319.78169.52537.656.89145-.56072,4.275-1.09136,8.33882-1.62719,12.402q-1.83411,13.90911-3.67334,27.8175C109.94854,88.30559,108.68577,97.66965,107.47545,107.04046Zm6.38692,35.78161c-.33631-2.75691-.63243-5.09011-.90352-7.42614-.5503-4.742-1.07262-9.48738-1.63879-14.2275-.15715-1.31612-.26743-2.39043,1.1183-3.35669a5.01557,5.01557,0,0,0,1.86839-4.9109c-.06029-.54032-.04682-.879.44127-1.21207q13.75257-9.38448,27.48625-18.79664a2.86359,2.86359,0,0,1,.42742-.10166C133.05343,109.48242,123.57826,125.94312,113.86237,142.82207Zm29.87411-59.71243a4.26637,4.26637,0,0,0-.69746,3.31628,1.53507,1.53507,0,0,1-.80532,1.76493q-14.75789,10.07021-29.47934,20.1938c-.32415.22206-.58945.63744-1.13522.32829-.60091-.34036-.38382-.83068-.32545-1.27166q2.95263-22.29347,5.92354-44.58451c1.01978-7.69489,2.01289-15.39326,3.02378-23.08929.06565-.49973.18056-.993.33461-1.82439,1.883,3.45507,3.614,6.60919,5.32477,9.77429q8.89871,16.463,17.80288,32.923A1.97235,1.97235,0,0,1,143.73648,83.10964Z"/><path class="cls-1" d="M485.95136,37.70072a7.76625,7.76625,0,0,0-3.29828-.182c-2.56951.46887-3.291,1.27392-3.291,3.85176q-.00047,37.52693-.00022,75.054v2.02736c-.47288-.67667-.69167-.97846-.899-1.288q-22.8666-34.1377-45.74336-68.26866a78.24869,78.24869,0,0,0-6.07258-8.62443,7.21329,7.21329,0,0,0-4.73575-2.8087c-2.29754-.19547-4.90459.47986-4.9,3.08193q.08082,45.35094.02934,90.70232a2.77119,2.77119,0,0,0,.47214,1.77488c1.0251,1.35443,3.86806,1.92291,6.06535,1.20413,1.84824-.60462,2.35477-1.41355,2.35482-3.77146q.00059-37.527.00026-75.054V53.37314c.41913.601.58081.82676.73613,1.05666q24.21,35.8491,48.428,71.69261a41.06855,41.06855,0,0,0,4.91828,6.60135,5.55721,5.55721,0,0,0,5.96726,1.48076,2.73592,2.73592,0,0,0,2.2645-3.06916q.00419-45.20623.00013-90.41252A2.656,2.656,0,0,0,485.95136,37.70072Z"/><path class="cls-1" d="M387.085,37.71283a7.68129,7.68129,0,0,0-3.43891-.17262c-2.467.49285-3.16885,1.28787-3.16889,3.79919q-.00039,37.60331-.00026,75.20666c0,.50832,0,1.01664,0,1.92775-.46259-.65989-.703-.98966-.9299-1.3285Q355.671,81.50075,331.79343,45.85724a44.47981,44.47981,0,0,0-4.07124-5.61966,7.946,7.946,0,0,0-4.47063-2.74959c-3.36245-.58953-5.09068.7925-5.09068,4.1236q0,28.03947-.00005,56.07889-.00006,16.66434-.00379,33.32858a2.98519,2.98519,0,0,0,.49189,2.05208c1.07562,1.32488,3.91737,1.86812,6.09172,1.137,1.81454-.61015,2.25447-1.35457,2.25452-3.824q.00039-37.53091.00823-75.06189a3.10886,3.10886,0,0,1,.12115-1.55256c.486.17088.605.62511.83216.961q25.20558,37.27677,50.39315,74.56582a19.41013,19.41013,0,0,0,3.25276,3.86589,5.44843,5.44843,0,0,0,5.55467,1.02545,2.79871,2.79871,0,0,0,2.17152-2.99371q-.03543-45.28332-.02009-90.56675A2.54729,2.54729,0,0,0,387.085,37.71283Z"/><path class="cls-1" d="M291.63365,85.6329c0-7.28966.11037-14.58142-.02572-21.86872-.20728-11.09609-5.98135-19.35628-16.42578-23.20019-11.20559-4.12412-22.72429-4.20747-34.16728-1.2754-13.575,3.47826-20.19271,12.40889-20.19271,26.40077q0,21.2967.00048,42.59351c.00179,11.57075,5.90148,20.28324,16.80463,24.11356,11.24356,3.94988,22.73938,3.94352,34.185.92959,11.59168-3.05238,19.62114-11.04661,19.81752-24.95292.107-7.57854.01909-15.15987.01909-22.74Zm-8.834.80941v20.28778c0,11.83954-5.26958,18.63208-16.80175,21.14836a43.02678,43.02678,0,0,1-22.86776-.88155c-8.5995-2.8162-13.34781-9.29876-13.39755-18.35231q-.1222-22.24339-.00131-44.48792c.04869-9.39322,5.25515-16.202,14.33081-18.68016a42.963,42.963,0,0,1,25.918.57384c8.25408,2.87452,12.76935,9.47116,12.81211,18.22045C282.8283,71.66116,282.79962,79.05177,282.79962,86.44231Z"/><path class="cls-1" d="M577.88929,128.6148Q563.42714,107.82759,548.93975,87.058a1.63817,1.63817,0,0,1-.03265-2.24444q14.19243-20.44406,28.30264-40.94531a19.37221,19.37221,0,0,0,1.53848-2.43974,2.36984,2.36984,0,0,0-1.13177-3.41113,5.51553,5.51553,0,0,0-7.07545,1.23085,35.392,35.392,0,0,0-2.44332,3.23049q-8.947,13.07516-17.86413,26.17087c-2.42866,3.5583-4.86535,7.1112-7.35779,10.75319-.27323-.35788-.457-.57575-.61608-.81036q-9.9474-14.66878-19.89419-29.338c-2.16751-3.19109-4.34138-6.37895-6.576-9.523a5.30669,5.30669,0,0,0-6.08479-2.21951c-3.02674.76337-3.7005,2.49876-1.923,5.08871q14.53263,21.17549,29.0878,42.33519a1.44209,1.44209,0,0,1-.02877,1.98691q-8.23254,11.8093-16.39217,23.66944-6.41974,9.28209-12.83883,18.56456c-1.58221,2.3002-1.092,3.874,1.46934,4.987,2.78974,1.21237,4.78872.48382,6.837-2.5128q10.53269-15.4096,21.05975-30.82319c1.924-2.81471,3.86248-5.61962,5.83466-8.48769.22811.26155.366.39154.471.54411q13.20854,19.18869,26.408,38.38351a12.07929,12.07929,0,0,0,2.0346,2.43778,5.1797,5.1797,0,0,0,6.52371-.39311C579.66273,132.00493,579.6003,131.0742,577.88929,128.6148Z"/><path class="cls-2" d="M116.49086,38.71928c.12568-.36608-.104-.66826-.656-.89145a2.73324,2.73324,0,0,1-1.17728-.81237c-.63156-.87315-1.26887-.67716-2.087-.30733-2.89466,1.30854-5.8187,2.552-8.73141,3.82073q-23.69048,10.3188-47.37625,20.6485c-.46892.20471-1.0915.25178-1.34106.77148a4.04851,4.04851,0,0,0,.98958,3.55708q18.51342,16.09369,37.02589,32.1884c3.89509,3.386,7.7992,6.76176,11.68,10.164a1.34969,1.34969,0,0,0,1.66041.36517c.5714-.25972.90488-.46391.99777-1.18308,1.21032-9.37081,2.47309-18.73487,3.71488-28.10168q1.8438-13.90779,3.67334-27.8175C115.3995,47.0581,115.93014,42.99423,116.49086,38.71928Z"/><path class="cls-3" d="M102.34907,110.76615Q78.043,89.63925,53.72265,68.52892c-.3731-.32363-.68391-1.07288-1.43094-.57114-.735.49372-1.78909.45274-1.92945,1.80313-.708,6.81154-1.53591,13.61045-2.32091,20.414q-1.68341,14.58932-3.36524,29.17878c-.5574,4.83928-1.11006,9.67909-1.68028,14.65308-.18012.49995.18112.717.70976.88159a4.44715,4.44715,0,0,1,2.25853,1.50012c.49991.6585.94127.58239,1.58734.31552q27.09378-11.19068,54.1974-22.35743A2.261,2.261,0,0,0,102.34907,110.76615Z"/><path class="cls-4" d="M125.90039,47.71738c-1.7108-3.1651-3.44178-6.31922-5.32477-9.77429-.154.83138-.269,1.32466-.33461,1.82439-1.01089,7.696-2.004,15.3944-3.02378,23.08929q-2.95448,22.29322-5.92354,44.58451c-.05837.441-.27546.9313.32545,1.27166.54577.30915.81107-.10623,1.13522-.32829q14.73945-10.0972,29.47934-20.1938a1.53507,1.53507,0,0,0,.80532-1.76493,4.26637,4.26637,0,0,1,.69746-3.31628,1.97235,1.97235,0,0,0-.03321-2.46921Q134.77257,64.19468,125.90039,47.71738Z"/><path class="cls-5" d="M52.64057,58.15916c.5405.45937.98164.01691,1.44886-.17245.22275-.09023.445-.18186.66534-.27785q21.784-9.4863,43.56726-18.97467c4.71352-2.05387,9.422-4.11924,14.44946-6.31792-.46722-.174-.58613-.2374-.71264-.26268q-22.95854-4.585-45.91571-9.17657a1.38149,1.38149,0,0,0-1.623.489,5.04,5.04,0,0,1-3.73851,1.95055c-.7826.04848-.96665.40872-1.10492,1.01482Q58.857,30.02392,58.015,33.61129,55.312,45.21942,52.61037,56.828C52.50819,57.268,52.13766,57.73179,52.64057,58.15916Z"/><path class="cls-5" d="M107.66738,122.64039c-.20374-1.8611-.2557-3.63236-2.52578-4.42595-.79577-.2782-1.32628-.59162-2.18643-.23535q-22.81573,9.4498-45.65569,18.84115c-2.91472,1.20191-5.82285,2.41969-8.734,3.63014l.08806.262Q60.741,141.90651,72.82844,143.1q16.04571,1.57925,32.09132,3.15974c1.35988.13536,2.66057.32786,3.41392-1.24742a2.47476,2.47476,0,0,1,1.07837-.9356c.59455-.317.6099-.74616.5429-1.32314C109.1767,136.051,108.40169,129.34789,107.66738,122.64039Z"/><path class="cls-6" d="M46.61939,69.07059c.13339-1.055-.594-1.28726-1.12153-1.791-.58169-.55553-.98338-.00976-1.38639.22738-7.147,4.20624-14.27575,8.44335-21.43359,12.631a1.67808,1.67808,0,0,0-1.04428,1.79746,4.37978,4.37978,0,0,1-1.08935,3.35647,1.99918,1.99918,0,0,0-.308,2.43721q6.10921,14.90731,12.142,29.84587c2.15382,5.30414,4.308,10.60816,6.60222,16.25742a11.12191,11.12191,0,0,0,.28134-1.08456q1.34292-11.57031,2.6743-23.142,1.382-12.00331,2.75818-24.00732C45.32681,80.08812,45.92375,74.57317,46.61939,69.07059Z"/><path class="cls-7" d="M114.748,111.68877c-.48809.33308-.50156.67175-.44127,1.21207a5.01557,5.01557,0,0,1-1.86839,4.9109c-1.38573.96626-1.27545,2.04057-1.1183,3.35669.56617,4.74012,1.08849,9.48546,1.63879,14.2275.27109,2.336.56721,4.66923.90352,7.42614,9.71589-16.879,19.19106-33.33965,28.79932-50.0316a2.86359,2.86359,0,0,0-.42742.10166Q128.49322,102.29355,114.748,111.68877Z"/><path class="cls-7" d="M42.798,63.82416a1.6304,1.6304,0,0,0,.79908-1.422,5.5298,5.5298,0,0,1,4.03807-4.95376A1.50721,1.50721,0,0,0,48.7821,56.186Q51.859,42.9652,54.95878,29.74977l-.24067-.16016C44.09369,44.82516,33.46922,60.06063,22.736,75.45224a2.7048,2.7048,0,0,0,.49223-.10951Q33.01094,69.57961,42.798,63.82416Z"/></svg>