<?xml version="1.0" encoding="utf-8"?>
<!-- Generator: Adobe Illustrator 28.4.1, SVG Export Plug-In . SVG Version: 6.00 Build 0)  -->
<svg version="1.1" id="Layer_1" xmlns="http://www.w3.org/2000/svg" xmlns:xlink="http://www.w3.org/1999/xlink" x="0px" y="0px"
	 width="800px" height="800px" viewBox="0 0 800 800" style="enable-background:new 0 0 800 800;" xml:space="preserve">
<style type="text/css">
	.Drop_x0020_Shadow{fill:none;}
	.Outer_x0020_Glow_x0020_5_x0020_pt{fill:none;}
	.Blue_x0020_Neon{fill:none;stroke:#8AACDA;stroke-width:7;stroke-linecap:round;stroke-linejoin:round;}
	.Chrome_x0020_Highlight{fill:url(#SVGID_1_);stroke:#FFFFFF;stroke-width:0.3629;stroke-miterlimit:1;}
	.Jive_GS{fill:#FFDD00;}
	.Alyssa_GS{fill:#A6D0E4;}
	.st0{fill:#FF6900;}
	.st1{fill:#FFB500;}
	.st2{fill:#FFFFFF;}
</style>
<linearGradient id="SVGID_1_" gradientUnits="userSpaceOnUse" x1="-2460" y1="0" x2="-2460" y2="-1">
	<stop  offset="0" style="stop-color:#656565"/>
	<stop  offset="0.618" style="stop-color:#1B1B1B"/>
	<stop  offset="0.6292" style="stop-color:#545454"/>
	<stop  offset="0.9831" style="stop-color:#3E3E3E"/>
</linearGradient>
<g>
	<g>
		<polygon class="st0" points="410.8,86.5 568.8,171.6 507.8,204.8 349.8,119.8 		"/>
		<path class="st1" d="M555.1,280.6l13.7,7.4l-61,33.3l-21-11.3v-14.9l18.7,10.1c0.7,0.4,1.5,0.6,2.3,0.6c0.8,0,1.6-0.2,2.3-0.6l0,0
			L555.1,280.6z"/>
		<path class="st1" d="M484.4,335.5c-0.1,0-0.1-0.1-0.2-0.1l0,0l-16-8.6l14.6-8l20.1,10.8v79.5l-16.2-8.7v-60.8
			C486.8,338,485.9,336.4,484.4,335.5z"/>
		<polygon class="st1" points="415.7,265 477.1,231.4 477.1,310.9 415.7,344.5 		"/>
		<path class="st0" d="M344.5,127.9L503,213.2v79.5l-16.2-8.7v-60.8c0-1.7-0.9-3.3-2.4-4.2c-0.1,0-0.1-0.1-0.2-0.1l0,0l-139.7-75.2
			V127.9z"/>
		<polygon class="st1" points="313.8,138.2 471.8,223.3 410.8,256.6 252.8,171.5 		"/>
		<polygon class="st1" points="247.5,259.2 247.5,179.7 406,265 406,344.5 268.8,270.7 		"/>
		<path class="st0" d="M266.5,280.4l142,76.5c0.7,0.4,1.5,0.6,2.3,0.6c0.8,0,1.6-0.2,2.3-0.6l0,0l45-24.5l13.7,7.4l-61,33.3
			l-158-85.1L266.5,280.4z"/>
		<polygon class="st0" points="247.5,296.1 406,381.4 406,460.9 247.5,375.6 		"/>
		<polygon class="st0" points="477.1,427.4 415.7,460.9 415.7,381.4 477.1,347.9 		"/>
		<polygon class="st1" points="574.1,375.6 512.7,409.1 512.7,329.6 574.1,296.1 		"/>
		<polygon class="st0" points="574.1,259.2 512.7,292.7 512.7,213.2 574.1,179.7 		"/>
	</g>
	<g>
		<g>
			<path d="M13.2,515.6c7.9-7.9,17.5-11.8,29-11.8s21.1,3.9,28.8,11.8c7.9,7.8,11.8,17.3,11.8,28.5c0,11.3-3.9,20.7-11.7,28.5
				c-7.8,7.7-17.5,11.6-29.1,11.6c-11.6,0-21.3-3.9-29-11.6C5.4,565,1.6,555.5,1.6,544.3C1.6,533,5.4,523.4,13.2,515.6z M58.3,560.6
				c4.3-4.4,6.5-9.9,6.4-16.4c-0.1-6.6-2.3-12.2-6.6-16.5c-4.3-4.4-9.7-6.6-15.9-6.6c-6.3,0-11.7,2.2-16,6.6
				c-4.3,4.4-6.5,9.9-6.5,16.5c0,6.5,2.2,12,6.5,16.4c4.3,4.3,9.7,6.5,16,6.5C48.6,567.1,54,564.9,58.3,560.6z"/>
			<path d="M146.9,532.7c5.4,5.8,8,12.9,8,21.4c0,8.5-2.7,15.7-8.1,21.6c-5.4,5.9-12.1,8.8-20.2,8.8c-6.8,0-12.6-2.4-17.4-7.4v29.7
				H92.7v-81.5H109v6.4c4.7-5.3,10.6-7.9,17.6-7.9C134.8,523.9,141.6,526.8,146.9,532.7z M134.1,543.5c-2.7-2.9-6.2-4.4-10.5-4.4
				c-4.2,0-7.7,1.5-10.4,4.4c-2.7,2.8-4.1,6.4-4.1,10.6c0,8.5,6,15.2,14.5,15.2s14.6-6.6,14.6-15.2
				C138.2,550,136.8,546.4,134.1,543.5z"/>
			<path d="M221,559.8h-42.4c2,7.3,7.3,10.8,15.7,10.8c6.5,0,12.5-1.9,18-5.6l6.5,11.3c-7.1,5.4-15.5,8-25.3,8
				c-10.2,0-18-3-23.5-8.7c-5.4-5.8-8.1-12.9-8.1-21.5c0-8.7,2.8-15.9,8.4-21.6c5.6-5.8,13-8.6,22-8.6c8.5,0,15.5,2.6,21,7.8
				c5.5,5.2,8.2,12.2,8.2,21.2C221.6,554.8,221.3,557.1,221,559.8z M178.5,548h27.2c-1.6-6.6-6.4-10.7-13.3-10.7
				C185.7,537.2,180.3,541.2,178.5,548z"/>
			<path d="M231.2,583v-57.7h16.1v8c3.1-5.5,9.9-9.6,18.2-9.6c6.2,0,11.6,2.1,15.9,6.2c4.3,4.1,6.5,10.1,6.5,17.8V583h-16.5v-31
				c0-8.4-4.4-13.2-11.3-13.2c-7.5,0-12.4,5.5-12.4,13.6V583H231.2z"/>
			<path d="M357.5,505.2c9.5,0,16.5,2.5,21.2,7.6c4.7,5.1,7.1,11.3,7.1,18.7c0,7.5-2.4,13.6-7.3,18.4c-4.8,4.8-12.2,7.3-22.2,7.3
				h-11.2V583h-17.4v-77.8H357.5z M356.9,541.5c7.2,0,11.1-4.6,11.1-10.2c0-5.6-4-10.1-10.3-10.1h-12.5v20.3H356.9z"/>
			<path d="M410.8,583h-16.5v-80.1h16.5V583z"/>
			<path d="M466.8,525.3h15.6V583h-15.6v-5.9c-4.9,4.9-10.8,7.4-17.8,7.4c-8.2,0-15.1-3-20.4-8.7c-5.4-5.9-8-13.2-8-21.9
				c0-8.6,2.7-15.8,8.1-21.5c5.4-5.7,12.2-8.5,20.3-8.5c6.9,0,12.8,2.5,17.8,7.6V525.3z M441.2,565c2.8,2.9,6.3,4.4,10.6,4.4
				s7.8-1.5,10.6-4.5c2.8-3.1,4.3-6.6,4.3-10.8c0-4.2-1.5-7.8-4.3-10.7c-2.8-2.9-6.3-4.4-10.6-4.4s-7.8,1.5-10.6,4.4
				c-2.7,2.9-4.1,6.5-4.1,10.7C437.1,558.4,438.5,562,441.2,565z"/>
			<path d="M538.3,579.8c-4.9,3.2-10.8,4.7-17.7,4.7c-13.8,0-20.6-7.8-20.6-23.3V539h-9.2v-13.7h9.3v-20.4h16.4v20.4H535V539h-18.5
				v20.6c0,6.5,2.5,9.8,7.7,9.8c2.6,0,5.8-0.9,9.5-2.8L538.3,579.8z"/>
			<path d="M566.6,523.9v1.5h17.8V539h-17.8v44h-16.4v-44h-8.5v-13.7h8.5v-1.9c0-7.7,2.2-13.5,6.6-17.5c4.5-4,10.3-6,17.4-6
				c5.9,0,11.8,1.6,17.6,4.6l-5.4,12.5c-3.9-1.8-7.2-2.6-9.7-2.6C570.3,514.5,566.6,517.9,566.6,523.9z"/>
			<path d="M595.8,575.9c-5.8-5.9-8.6-13.2-8.6-21.7c0-8.5,2.8-15.8,8.6-21.6c5.8-5.9,13.3-8.8,22.4-8.8s16.7,2.9,22.5,8.8
				c5.8,5.8,8.7,13.1,8.7,21.6c0,8.5-3,15.8-8.7,21.7c-5.8,5.8-13.4,8.7-22.5,8.7S601.6,581.7,595.8,575.9z M628.7,543.5
				c-2.8-2.9-6.3-4.4-10.4-4.4c-4.1,0-7.6,1.5-10.4,4.4c-2.8,2.8-4.2,6.4-4.2,10.5c0,4.3,1.4,7.9,4.2,10.8c2.8,2.8,6.3,4.3,10.4,4.3
				c4.1,0,7.6-1.5,10.4-4.3c2.8-2.9,4.3-6.5,4.3-10.8C633,550,631.5,546.4,628.7,543.5z"/>
			<path d="M659.2,583v-57.7H675v7.5c3.7-6,8.8-9.1,15.7-9.1c2.2,0,4.5,0.4,7.2,1.4l-1.4,15.8c-2.4-0.8-4.8-1.3-7.3-1.3
				c-8.1,0-13.5,5.3-13.5,17.1V583H659.2z"/>
			<path d="M792.5,530.1c4.5,4.2,6.7,10.2,6.7,17.9V583h-16.5v-31.9c0-8-4.3-12.2-10.6-12.2c-6.8,0-11.8,4.8-11.8,12.7V583h-16.5
				v-31.8c0-7.7-4.4-12.3-10.8-12.3c-6.7,0-11.7,4.8-11.7,12.8V583h-16.5v-57.7h16.1v8.2c3.3-6.2,10.3-9.9,17.8-9.8
				c7.1,0,13.5,3.2,16.5,9.8c4.3-6.3,12.1-9.8,20.4-9.8C782.4,523.8,788,525.9,792.5,530.1z"/>
			<path d="M23.8,637.1v1.4h16.4V651H23.8v40.5H8.6V651H0.8v-12.6h7.9v-1.7c0-7.1,2-12.4,6.1-16.1c4.2-3.7,9.5-5.5,16-5.5
				c5.4,0,10.9,1.5,16.2,4.3L42,630.9c-3.6-1.7-6.6-2.4-8.9-2.4C27.2,628.4,23.8,631.5,23.8,637.1z"/>
			<path d="M50.7,685c-5.3-5.4-8-12.1-8-20c0-7.9,2.6-14.6,8-19.9c5.3-5.4,12.2-8.1,20.7-8.1s15.4,2.7,20.8,8.1
				c5.3,5.3,8.1,12,8.1,19.9c0,7.9-2.7,14.5-8.1,20c-5.3,5.3-12.3,8.1-20.8,8.1S56.1,690.3,50.7,685z M81,655.2
				c-2.6-2.7-5.8-4.1-9.6-4.1c-3.8,0-7,1.4-9.6,4.1c-2.6,2.6-3.9,5.9-3.9,9.7c0,4,1.3,7.3,3.9,10c2.6,2.6,5.8,4,9.6,4
				c3.8,0,7-1.4,9.6-4c2.6-2.7,4-6,4-10C85,661.1,83.6,657.8,81,655.2z"/>
			<path d="M109.1,691.6v-53.2h14.6v6.9c3.4-5.5,8.1-8.3,14.5-8.3c2,0,4.2,0.4,6.6,1.3l-1.3,14.5c-2.2-0.8-4.5-1.2-6.7-1.2
				c-7.5,0-12.4,4.8-12.4,15.7v24.3H109.1z"/>
			<path d="M174.2,691.6v-71.7h50.1v14.9h-34v13.3h31.4V663h-31.4v13.7h33.9v14.9H174.2z"/>
			<path d="M234.9,691.6v-53.2h14.8v7.4c2.8-5,9.1-8.8,16.8-8.8c5.7,0,10.7,1.9,14.6,5.7c4,3.8,6,9.3,6,16.4v32.5h-15.2v-28.5
				c0-7.8-4.1-12.1-10.4-12.1c-6.9,0-11.4,5-11.4,12.5v28.1H234.9z"/>
			<path d="M337.3,688.6c-4.6,2.9-10,4.4-16.3,4.4c-12.7,0-19-7.2-19-21.4V651h-8.4v-12.6h8.5v-18.8h15.1v18.8h17.1V651h-17.1v19
				c0,6,2.3,9,7.1,9c2.4,0,5.3-0.9,8.7-2.6L337.3,688.6z"/>
			<path d="M394.5,670.1h-39.1c1.8,6.7,6.7,10,14.5,10c6,0,11.5-1.7,16.6-5.1l6,10.4c-6.5,4.9-14.3,7.4-23.3,7.4
				c-9.4,0-16.6-2.7-21.6-8.1c-4.9-5.3-7.5-11.9-7.5-19.8c0-8.1,2.6-14.6,7.8-19.9c5.1-5.3,11.9-8,20.3-8c7.9,0,14.3,2.4,19.3,7.2
				c5,4.8,7.6,11.3,7.6,19.5C395,665.6,394.8,667.7,394.5,670.1z M355.3,659.3h25c-1.5-6.1-5.9-9.9-12.2-9.9
				C361.9,649.4,357,653.1,355.3,659.3z"/>
			<path d="M403.9,691.6v-53.2h14.6v6.9c3.4-5.5,8.1-8.3,14.5-8.3c2,0,4.2,0.4,6.6,1.3l-1.3,14.5c-2.2-0.8-4.5-1.2-6.7-1.2
				c-7.5,0-12.4,4.8-12.4,15.7v24.3H403.9z"/>
			<path d="M495.8,645.2c4.9,5.3,7.4,11.9,7.4,19.7c0,7.9-2.5,14.5-7.5,19.9c-4.9,5.4-11.2,8.1-18.6,8.1c-6.3,0-11.6-2.2-16-6.8
				v27.4h-15.2v-75.1h15v5.9c4.4-4.8,9.8-7.3,16.2-7.3C484.6,637.1,490.8,639.8,495.8,645.2z M483.9,655.2c-2.5-2.7-5.7-4.1-9.7-4.1
				c-3.9,0-7.1,1.4-9.6,4.1c-2.5,2.6-3.8,5.9-3.8,9.8c0,7.9,5.5,14,13.4,14s13.5-6.1,13.5-14C487.7,661.1,486.5,657.8,483.9,655.2z"
				/>
			<path d="M512.2,691.6v-53.2h14.6v6.9c3.4-5.5,8.1-8.3,14.5-8.3c2,0,4.2,0.4,6.6,1.3l-1.3,14.5c-2.2-0.8-4.5-1.2-6.7-1.2
				c-7.5,0-12.4,4.8-12.4,15.7v24.3H512.2z"/>
			<path d="M553,624c0-5.1,4-9,9.1-9c5,0,9,3.9,9,9c0,5.1-4,9-9,9C557,633,553,629.1,553,624z M569.6,691.6h-15.2v-53.2h15.2V691.6z
				"/>
			<path d="M577.1,683.2l7.5-9.9c4.6,4.7,9.6,7,15.2,7c3.8,0,6.5-1.7,6.5-4.3c0-1.6-1.1-2.8-3.3-3.9c-0.8-0.4-2.9-1.2-6.3-2.3
				c-3.4-1.3-5.7-2.1-6.9-2.7c-6.3-3-9.5-7.8-9.5-14.1c0-4.8,1.8-8.8,5.6-11.8c3.8-3,8.8-4.6,15.1-4.6c7.7,0,14.1,2.4,19.2,7.4
				l-7.1,9.9c-4-3.3-8.1-4.9-12.4-4.9c-3.4,0-5.5,1.6-5.5,3.8c0,1.9,1.6,3.4,4.8,4.5c5.7,1.8,9.9,3.4,12.6,4.9c6,3.2,9,7.7,9,13.6
				c0,4.9-2,9.1-6,12.4c-4,3.3-9.2,4.9-15.8,4.9C590.4,693,582.9,689.7,577.1,683.2z"/>
			<path d="M682.2,670.1h-39.1c1.8,6.7,6.7,10,14.5,10c6,0,11.5-1.7,16.6-5.1l6,10.4c-6.5,4.9-14.3,7.4-23.3,7.4
				c-9.4,0-16.6-2.7-21.6-8.1c-4.9-5.3-7.5-11.9-7.5-19.8c0-8.1,2.6-14.6,7.8-19.9c5.1-5.3,11.9-8,20.3-8c7.9,0,14.3,2.4,19.3,7.2
				c5,4.8,7.6,11.3,7.6,19.5C682.7,665.6,682.5,667.7,682.2,670.1z M643,659.3h25c-1.5-6.1-5.9-9.9-12.2-9.9
				C649.6,649.4,644.6,653.1,643,659.3z"/>
			<path d="M758.2,691.6l-4.7-14.5h-24.1l-4.9,14.5h-16.7l26.9-71.7h14l26.3,71.7H758.2z M741.5,640.4l-7.8,22.7h15.4L741.5,640.4z"
				/>
			<path d="M783.1,619.9h16.1v71.7h-16.1V619.9z"/>
		</g>
	</g>
</g>
</svg>
