<svg xmlns="http://www.w3.org/2000/svg" role="img" viewBox="-4.68 -4.93 243.36 201.86"><title>OpenEBS logo</title><defs><style>.cls-3{fill:#348fc0}.cls-4{fill:#060707}.cls-5{fill:#fff}</style></defs><g id="Layer_2" data-name="Layer 2"><g id="Layer_1-2" data-name="Layer 1"><path fill="#563a39" d="M90.33 0h1.9c.06.09.15.06.23.07a8.85 8.85 0 0 1 2.38.6 10.59 10.59 0 0 1 4.53 3.82 29.41 29.41 0 0 1 4.1 8.52 72.55 72.55 0 0 1 2 8.18c.54 2.82 1 5.66 1.3 8.51.28 2.37.39 4.76.6 7.14A19.14 19.14 0 0 0 106 40a19.69 19.69 0 0 0-.92 3.8 25.57 25.57 0 0 1-.88-8.7 28.89 28.89 0 0 0-1.37 3.54 7.38 7.38 0 0 1 0-.94c0-1.94 0-3.86-.1-5.79a80.74 80.74 0 0 0-1.16-9.7 37.59 37.59 0 0 0-3.41-10.49 14 14 0 0 0-3-4.25 6.92 6.92 0 0 0-4.42-2 9 9 0 0 0-6.31 2.31 9 9 0 0 0-2.39 3.9 15.75 15.75 0 0 0-.62 7.49 57 57 0 0 0 2.06 9.5 73.79 73.79 0 0 0 9.81 20.23 27.48 27.48 0 0 0 4.64 5.39c.93.82 1.41.72 2-.36a17.27 17.27 0 0 0 1.62-4.16c.26-1 .48-2 .71-3a13.89 13.89 0 0 0 .72 2.46c.54 1.2.91 2.5 2.18 3.19a.23.23 0 0 1 .11.3 7.07 7.07 0 0 0 .1 3.48 22.1 22.1 0 0 0 1.08 3.53 16.13 16.13 0 0 0 1 2.12 7.74 7.74 0 0 1 .13-3.45 10.09 10.09 0 0 1 1.36-3.21 27.15 27.15 0 0 0 1.74 12.48 1.33 1.33 0 0 0 0-.19A47.14 47.14 0 0 1 111 61a13.14 13.14 0 0 1 .9-3.82 2.91 2.91 0 0 1 1.36-1.61c.2-.08.32-.08.42.15a23.92 23.92 0 0 1 1.59 4.8 7.71 7.71 0 0 1 .13 3.31v.19c0 .03.16-.07.22-.14a16.78 16.78 0 0 0 3.23-7 11 11 0 0 0 .12-2c0-.65-.19-1.27-.23-1.91a15.81 15.81 0 0 1 2 2.14 12.83 12.83 0 0 1 2.57 4.89 8.23 8.23 0 0 1 .27 2.84c-.06.56-.22 1.11-.23 1.67l-.06.08v-.09c.06-.1.13-.19.18-.29a28.35 28.35 0 0 0 1.84-4.84 15.49 15.49 0 0 0 .66-4.54v-.59a2.51 2.51 0 0 1 .69.65 6.78 6.78 0 0 1 1 2.88c.13.69.24 1.38.35 2.07a5.23 5.23 0 0 0 .38-1 13.88 13.88 0 0 0 .69-5.86 5.77 5.77 0 0 0-.91-2.53.35.35 0 0 1 0-.48 5.78 5.78 0 0 0 .64-1.49.78.78 0 0 1 .05.14 20.05 20.05 0 0 0 1.87 5.23c.64 1.16 1.13 1.23 2.13.35a24.07 24.07 0 0 0 3.15-3.39 70.24 70.24 0 0 0 7.33-12.2 65.61 65.61 0 0 0 5.45-16.42 24.72 24.72 0 0 0 .52-7.86 11.89 11.89 0 0 0-2.31-5.8 8.42 8.42 0 0 0-4.95-2.91 6.5 6.5 0 0 0-5.7 1.18 10.78 10.78 0 0 0-2.55 2.67 29.59 29.59 0 0 0-3.38 7.28 47.23 47.23 0 0 0-1.76 7.9c-.29 2-.53 4-.66 6-.06.94-.13 1.88-.16 2.81-.06 1.55 0 3.09 0 4.63 0 1.12.18 2.23.16 3.35-.22-.58-.44-1.16-.67-1.74-.14-.37-.3-.73-.45-1.1v3a7.61 7.61 0 0 1-.5 2.79 2.78 2.78 0 0 1-1.66 1.8c-.27.09-.41.07-.5-.23a4.47 4.47 0 0 1-.13-2.18 8.31 8.31 0 0 1 1.24-2.94c0-.08.14-.16.1-.25s-.19-.06-.29-.06a6.2 6.2 0 0 0-2.07.49c.22-2.81.43-5.62.69-8.44s.61-5.72 1.06-8.57a73.78 73.78 0 0 1 3.2-12.76 23 23 0 0 1 4.62-8.16 9.24 9.24 0 0 1 8.6-3 13.15 13.15 0 0 1 7.19 3.54 15.69 15.69 0 0 1 4.82 11.13v3.34a29.19 29.19 0 0 1-.23 3.1 54.31 54.31 0 0 1-2 9.25A126.12 126.12 0 0 1 141.93 52c-.55 1-1.15 2.07-1.76 3.09a1.06 1.06 0 0 0 .28 1.65l.21.18a15.78 15.78 0 0 1 2.62 2.61 17.25 17.25 0 0 1 3.18 7 21.34 21.34 0 0 1 .52 5.85c-.08 1.49-.27 3-.45 4.46-.21 1.67-.39 3.34-.61 5-.27 2-.59 4.11-.87 6.17-.35 2.65-.81 5.28-1.25 7.91s-.82 5-1.23 7.52c-.3 1.78-.51 3.58-.9 5.35a63.67 63.67 0 0 1-3.28 9.95c-.12-.07-.12-.2-.16-.31-.2-.46-.36-1-.58-1.4a36 36 0 0 0-6-8.76 33.28 33.28 0 0 0-6.81-5.59 20.57 20.57 0 0 0-8.8-3.2 13.34 13.34 0 0 0-6.52 1 20.52 20.52 0 0 0-6.31 4.15 40.18 40.18 0 0 0-6.54 7.71 28.55 28.55 0 0 0-3.41 7.45c-.33 1.15-.5 2.34-.79 3.5l-.24.81-.13-.26c-1.09-2.48-2.14-5-3.11-7.52a45.81 45.81 0 0 1-2.1-6.45 54 54 0 0 1-.89-7.77c-.11-1.63-.23-3.24-.33-4.86-.09-1.36-.3-2.71-.45-4.07-.2-1.79-.28-3.59-.37-5.38-.11-2.1-.3-4.18-.5-6.27-.17-1.88-.33-3.77-.46-5.66a22.38 22.38 0 0 1 .37-6.11 23.27 23.27 0 0 1 4.9-9.75 19.31 19.31 0 0 1 2.06-2.18.94.94 0 0 0 .23-1.32 3 3 0 0 0-.16-.31 153.58 153.58 0 0 1-7-13.77 81.91 81.91 0 0 1-6-18 41 41 0 0 1-.82-6.9c0-.07 0-.17-.07-.2v-1c.1 0 .08-.11.07-.18A19.07 19.07 0 0 1 77.6 14a18.62 18.62 0 0 1 1.81-6.41c1.92-3.86 5.18-6.05 9.2-7.24.57-.15 1.15-.23 1.72-.35zm35.4 92h1c.32 0 .63-.07.95-.12a18.69 18.69 0 0 0 10.8-5.56 6.93 6.93 0 0 0 1.82-7.23 14.13 14.13 0 0 0-6.36-8.09 6.64 6.64 0 0 0-5.7-.63 9.57 9.57 0 0 0-3.94 2.46 19.11 19.11 0 0 0-5.12 9.48 11.25 11.25 0 0 0 1 7.7 3.41 3.41 0 0 0 2.82 2c1 .1 1.84-.01 2.73-.01zm-19.84.09h.57a3.8 3.8 0 0 0 3.47-1.73 9.77 9.77 0 0 0 1.46-4.51 17 17 0 0 0-8.33-15.08 5.94 5.94 0 0 0-4.28-.77 10.87 10.87 0 0 0-5.16 3.11 15.12 15.12 0 0 0-3.4 5.51 6.61 6.61 0 0 0 1 6.75 15.71 15.71 0 0 0 3.3 3.11 20 20 0 0 0 11.37 3.59z"/><path fill="#af8070" d="M138.39 118.7c.12.54.26 1.07.36 1.61a11.39 11.39 0 0 1-2.21 9.33 19.8 19.8 0 0 1-10.09 7.09 23 23 0 0 1-6.32 1c-.11 0-.24-.07-.33.06h-4.87c-.05-.09-.14-.06-.22-.07a58.8 58.8 0 0 1-8.38-.77 26.48 26.48 0 0 1-6.85-2 11.55 11.55 0 0 1-7-11.16c0-.18.09-.37-.06-.53.29-1.16.46-2.35.79-3.5a28.25 28.25 0 0 1 3.41-7.45 40.24 40.24 0 0 1 6.54-7.72 20.61 20.61 0 0 1 6.31-4.14 13.46 13.46 0 0 1 6.52-1 20.59 20.59 0 0 1 8.8 3.21 33 33 0 0 1 6.81 5.59 35.78 35.78 0 0 1 6 8.75c.22.45.38.93.58 1.41.08.09.08.22.21.29zm-7.28 6.86a.79.79 0 0 0-.29.18 34.49 34.49 0 0 1-6.63 4.09 18.68 18.68 0 0 1-11.28 1.28 34.12 34.12 0 0 1-9.12-3.3c-1.26-.63-2.48-1.35-3.71-2 0 .19.15.29.24.42a22.11 22.11 0 0 0 10.41 7.28 16.84 16.84 0 0 0 10 .4 17 17 0 0 0 9.34-6.53 8.2 8.2 0 0 0 1.09-1.76zm1.13-10.33a1.75 1.75 0 0 0-.38-1.33 7.92 7.92 0 0 0-2-1.86 4 4 0 0 0-5.18.41 4.38 4.38 0 0 0-1.14 3 12 12 0 0 1-1.82 5.61c-.58 1-1.2 1.86-1.85 2.76a.8.8 0 0 0 .3 1.32 1.29 1.29 0 0 0 1.22 0 33.37 33.37 0 0 0 8-4.6 6.88 6.88 0 0 0 2.8-5.31zm-32 .72a3.74 3.74 0 0 0 .58 2.09 11.7 11.7 0 0 0 3.52 3.52 45.8 45.8 0 0 0 5.81 3.24 6.61 6.61 0 0 0 1.23.42 1.19 1.19 0 0 0 1.14-.3.56.56 0 0 0 .18-.72 2.73 2.73 0 0 0-.59-.87c-.12-.12-.27-.24-.25-.41a.66.66 0 0 0-.24-.55 6.26 6.26 0 0 1-.41-.49 11.6 11.6 0 0 1-2.33-6.65 4 4 0 0 0-4.59-3.89 4.92 4.92 0 0 0-4 4.61zm53.09-101.09h.06v3.24h-.06z"/><path d="M102.27 46.79c-.23 1-.45 2-.71 3a17.51 17.51 0 0 1-1.62 4.17c-.6 1.08-1.08 1.17-2 .35a27.48 27.48 0 0 1-4.64-5.39 73.93 73.93 0 0 1-9.79-20.25 58.07 58.07 0 0 1-2.06-9.5 15.87 15.87 0 0 1 .62-7.49 9 9 0 0 1 2.39-3.9 9.05 9.05 0 0 1 6.31-2.31 6.92 6.92 0 0 1 4.41 2.03 14 14 0 0 1 3 4.25 37.94 37.94 0 0 1 3.42 10.49 80.72 80.72 0 0 1 1.15 9.7c.12 1.92.14 3.85.1 5.78a7.6 7.6 0 0 0 0 1c0 .12 0 .23-.08.34a19.74 19.74 0 0 0-.72 5.5c.03.72.15 1.44.22 2.23zm25.79-5.29c0-1.12-.13-2.23-.16-3.34a64.98 64.98 0 0 1 0-4.63c0-.94.11-1.88.16-2.82.13-2 .37-4 .66-6a47.57 47.57 0 0 1 1.76-7.91 29.35 29.35 0 0 1 3.38-7.27 11 11 0 0 1 2.54-2.68 6.54 6.54 0 0 1 5.71-1.18 8.42 8.42 0 0 1 4.95 2.91 11.78 11.78 0 0 1 2.3 5.81 24.37 24.37 0 0 1-.51 7.85 66 66 0 0 1-5.45 16.42 69.31 69.31 0 0 1-7.34 12.2 22.91 22.91 0 0 1-3.14 3.39c-1 .89-1.49.81-2.13-.35a19.8 19.8 0 0 1-1.87-5.23v-.13a8.9 8.9 0 0 0 0-3.81 27.3 27.3 0 0 0-.86-3.23z" class="cls-3"/><path d="M128.06 41.5a27.34 27.34 0 0 1 .83 3.2 9.23 9.23 0 0 1 0 3.81 5.66 5.66 0 0 1-.65 1.49.37.37 0 0 0 0 .49 5.45 5.45 0 0 1 .91 2.52 13.88 13.88 0 0 1-.69 5.86 4.6 4.6 0 0 1-.38 1c-.11-.69-.21-1.38-.35-2.07a6.65 6.65 0 0 0-1-2.88 2.51 2.51 0 0 0-.69-.65v.59a15.83 15.83 0 0 1-.66 4.54 28.58 28.58 0 0 1-1.85 4.84 3 3 0 0 1-.18.3c0-.57.18-1.11.24-1.67a8.28 8.28 0 0 0-.27-2.85 12.9 12.9 0 0 0-2.53-4.87 16.43 16.43 0 0 0-2-2.14c0 .64.22 1.27.23 1.92a10.24 10.24 0 0 1-.13 2 16.8 16.8 0 0 1-3.23 7c-.05.07-.1.18-.22.14s-.05-.12 0-.19a7.71 7.71 0 0 0-.13-3.31 23.39 23.39 0 0 0-1.59-4.81c-.1-.22-.22-.23-.42-.14a2.91 2.91 0 0 0-1.36 1.61A13.14 13.14 0 0 0 111 61a47.14 47.14 0 0 0-.28 6.51v.19a27.15 27.15 0 0 1-1.74-12.48 10.09 10.09 0 0 0-1.36 3.21 7.73 7.73 0 0 0-.13 3.45 16.74 16.74 0 0 1-1-2.12 23 23 0 0 1-1.08-3.54 7.28 7.28 0 0 1-.1-3.47.22.22 0 0 0-.1-.3c-1.27-.7-1.65-2-2.19-3.19a14.78 14.78 0 0 1-.72-2.46c-.07-.76-.19-1.52-.2-2.27a20 20 0 0 1 .71-5.5 3.59 3.59 0 0 0 .08-.35 30.71 30.71 0 0 1 1.38-3.54 25.82 25.82 0 0 0 .88 8.7A19.87 19.87 0 0 1 106 40a19.5 19.5 0 0 1 1.28-3.19 2.46 2.46 0 0 0 0 .28.47.47 0 0 0-.07.12 7.74 7.74 0 0 0 0 2.45 3.41 3.41 0 0 0 .33 1.25 11.14 11.14 0 0 0 1.08 2.74c.63-1.75 1.22-3.4.68-5.21a11.26 11.26 0 0 1 1.34 1.42 25.21 25.21 0 0 1 1.5 2.3 16.46 16.46 0 0 1 1 2.24 20.24 20.24 0 0 1 1.95-5.58 17.23 17.23 0 0 0 1.77 6.09 5.68 5.68 0 0 0 .67-1 7.06 7.06 0 0 0 .93-4.75 4.71 4.71 0 0 1-.21-1h.07a24.83 24.83 0 0 1 2.36 5.16 7.26 7.26 0 0 1 .67-1 5.66 5.66 0 0 1 1.78-1.28 6 6 0 0 1 2.07-.49c.1 0 .24-.06.29.06s-.06.17-.1.25a8.31 8.31 0 0 0-1.24 2.94 4.48 4.48 0 0 0 .13 2.18c.09.3.23.32.5.23a2.82 2.82 0 0 0 1.66-1.81 7.56 7.56 0 0 0 .5-2.78v-3c.15.37.31.73.45 1.1.23.62.45 1.2.67 1.78z" class="cls-4"/><path d="M125.73 92c-.89 0-1.78.13-2.68 0a3.4 3.4 0 0 1-2.82-2 11.24 11.24 0 0 1-1-7.7 19.15 19.15 0 0 1 5.12-9.48 9.67 9.67 0 0 1 3.94-2.46 6.65 6.65 0 0 1 5.7.64 14.13 14.13 0 0 1 6.31 8.07 6.94 6.94 0 0 1-1.82 7.23 18.67 18.67 0 0 1-10.8 5.55c-.32.05-.63.1-.95.12s-.68.03-1 .03zm1.22-.55a6.22 6.22 0 0 0 1.61-.12A6.12 6.12 0 0 0 133 87.4a4.67 4.67 0 0 0 .51-2.35 1.25 1.25 0 0 0-1.8-1.1 4.65 4.65 0 0 0-.63.32 3.76 3.76 0 0 1-.74.32 2 2 0 0 1-2.34-.93 1.8 1.8 0 0 1 0-2.36c.18-.24.42-.43.62-.67a1.31 1.31 0 0 0-.76-2.21 6.15 6.15 0 0 0-3.37.29 6 6 0 0 0-4 4.28 8.33 8.33 0 0 0 .43 5 5.13 5.13 0 0 0 3.38 3.15 8.67 8.67 0 0 0 2.7.29zm-21.06.62a20 20 0 0 1-11.39-3.55 15.47 15.47 0 0 1-3.3-3.11 6.63 6.63 0 0 1-1-6.75 15.15 15.15 0 0 1 3.41-5.51A10.72 10.72 0 0 1 98.77 70a6 6 0 0 1 4.29.71 17 17 0 0 1 8.33 15.08 9.77 9.77 0 0 1-1.46 4.51 3.83 3.83 0 0 1-3.47 1.74zm-9-7c0 .2 0 .52.07.83a5 5 0 0 0 .14.69 6.15 6.15 0 0 0 4.32 4.68 9.56 9.56 0 0 0 2.13.21 5.44 5.44 0 0 0 3.59-.88A5.74 5.74 0 0 0 110 85c-.09-1-.94-1.72-2-.91a3.64 3.64 0 0 1-.59.37 1.83 1.83 0 0 1-2.11-.2 2 2 0 0 1-.14-3.33 3.22 3.22 0 0 0 .32-.32 1.18 1.18 0 0 0 .13-1.58 1.57 1.57 0 0 0-1.18-.69 7.45 7.45 0 0 0-2 .06 6.57 6.57 0 0 0-5.52 6.6z" class="cls-5"/><path d="M123.34 64.48v.09-.07zm8.91 50.75a6.85 6.85 0 0 1-2.8 5.3 33.22 33.22 0 0 1-8 4.61 1.29 1.29 0 0 1-1.22 0 .81.81 0 0 1-.29-1.33c.65-.89 1.27-1.8 1.85-2.75a12 12 0 0 0 1.81-5.61 4.4 4.4 0 0 1 1.15-3 4 4 0 0 1 5.18-.42 7.91 7.91 0 0 1 2 1.87 1.76 1.76 0 0 1 .32 1.33zm-31.97.77a4.92 4.92 0 0 1 4.06-4.61 3.94 3.94 0 0 1 4.58 3.89 11.57 11.57 0 0 0 2.34 6.65c.13.17.26.33.4.49a.65.65 0 0 1 .24.55c0 .17.13.29.25.41a2.81 2.81 0 0 1 .59.86.55.55 0 0 1-.18.73 1.19 1.19 0 0 1-1.13.3 6.64 6.64 0 0 1-1.23-.43 45.18 45.18 0 0 1-5.82-3.23 11.81 11.81 0 0 1-3.51-3.53 3.69 3.69 0 0 1-.59-2.08z" class="cls-4"/><path d="M100.08 125.78c1.24.68 2.45 1.4 3.71 2a34.19 34.19 0 0 0 9.13 3.3 18.69 18.69 0 0 0 11.28-1.28 34.42 34.42 0 0 0 6.62-4.09.83.83 0 0 1 .3-.18 8.66 8.66 0 0 1-1.1 1.76 16.71 16.71 0 0 1-19.3 6.13 22 22 0 0 1-10.4-7.28c-.1-.13-.25-.23-.24-.42zm31.03-.22zm-31.02.21z" class="cls-5"/><path d="M118.26 38.16a4.16 4.16 0 0 0 .21 1 7.17 7.17 0 0 1-.93 4.75 6.27 6.27 0 0 1-.67 1 17.23 17.23 0 0 1-1.77-6.09 20.24 20.24 0 0 0-1.95 5.58 15.35 15.35 0 0 0-1-2.24 23.17 23.17 0 0 0-1.49-2.3 5.84 5.84 0 0 1 4.09-2.43l.28-.05a4.41 4.41 0 0 0 .89 0A7.39 7.39 0 0 1 118 38a.49.49 0 0 1 .26.16zm-3.21-7.61a2.74 2.74 0 1 1 .88 0 4.3 4.3 0 0 1-.88 0z" class="cls-3"/><path d="M115.05 30.55a4.22 4.22 0 0 0 .87 0v6.85a4.41 4.41 0 0 1-.89 0z" class="cls-4"/><path d="M121.36 42.36a7.25 7.25 0 0 0-.66 1 25.39 25.39 0 0 0-2.37-5.16 4.38 4.38 0 0 1 1.75 1.41 5.66 5.66 0 0 1 1.22 2.61 1 1 0 0 0 .06.14z" class="cls-3"/><path fill="#4b3938" d="M107.56 40.94a3.4 3.4 0 0 1-.32-1.25 7.46 7.46 0 0 1 0-2.45.45.45 0 0 1 .06-.12c.11 1.27.21 2.54.26 3.82z"/><path d="M109.34 38.47v.06zM127 91.43a8.47 8.47 0 0 1-2.65-.35 5.11 5.11 0 0 1-3.38-3.15 8.38 8.38 0 0 1-.43-4.94 6 6 0 0 1 4-4.29 6.15 6.15 0 0 1 3.37-.29 1.3 1.3 0 0 1 .75 2.21c-.19.24-.43.44-.62.68a1.79 1.79 0 0 0-.07 2.36 2 2 0 0 0 2.34.93 4.41 4.41 0 0 0 .74-.33c.2-.11.41-.22.62-.31a1.24 1.24 0 0 1 1.8 1.09 4.75 4.75 0 0 1-.5 2.35 6.12 6.12 0 0 1-4.39 3.91 6.22 6.22 0 0 1-1.58.13zM96.91 85a6.55 6.55 0 0 1 5.51-6.63 7.38 7.38 0 0 1 2-.06 1.56 1.56 0 0 1 1.18.69 1.19 1.19 0 0 1-.12 1.58l-.33.32a2 2 0 0 0 .14 3.33 1.81 1.81 0 0 0 2.11.2 3.13 3.13 0 0 0 .6-.37c1.05-.81 1.89-.11 2 .91a5.76 5.76 0 0 1-2.82 5.57 5.44 5.44 0 0 1-3.59.88 10.19 10.19 0 0 1-2.13-.21 6.16 6.16 0 0 1-4.32-4.68 5.42 5.42 0 0 1-.14-.7c-.06-.28-.08-.6-.09-.83z" class="cls-4"/><path fill="#f15a29" d="M192.26 163a7.27 7.27 0 0 1 3.86 2.14 4.89 4.89 0 0 1 1.34 3.36v7.55c0 3.11-1.93 5.27-5.26 5.94a14.6 14.6 0 0 1-2.8.27h-26.67c-.59 0-.78-.14-.77-.77v-34.27c0-.6.16-.77.77-.77h25.78a11 11 0 0 1 4.48.82 5.42 5.42 0 0 1 3.57 5 58.82 58.82 0 0 1-.08 6.9c-.17 2.26-1.08 3.26-3.76 3.72a2.56 2.56 0 0 0-.46.11zm-14.11 15h9.86a10.31 10.31 0 0 0 2.65-.41 2.35 2.35 0 0 0 1.74-2.29c.06-2.09.09-4.19 0-6.28a2.69 2.69 0 0 0-2.43-2.83 6.66 6.66 0 0 0-1.55-.21h-21c-.54 0-.67.2-.67.7v10.62c0 .63.22.76.8.75h10.56zm-.33-16.32v-.06h10.31c2.21 0 3.48-1.24 3.5-3.19v-4.22a3 3 0 0 0-2.26-3 7.4 7.4 0 0 0-2-.31h-19.81c-.59 0-.74.2-.74.76v9.24c0 .83 0 .84.84.84h10.18zM130.66 166v7.36a4.23 4.23 0 0 0 4.53 4.52h23.72c1.25 0 1.09-.13 1.1 1.11v2.57c0 .58-.19.71-.72.7h-7.8c-5.79 0-11.58-.1-17.36 0a8.16 8.16 0 0 1-8.25-6.94 10.69 10.69 0 0 1-.06-1.13v-19.6a7.94 7.94 0 0 1 8.12-8.11h25.29c.59 0 .82.14.79.76-.06 1.05 0 2.1 0 3.15 0 .37-.12.55-.51.52h-24.4a4.13 4.13 0 0 0-4.36 3.39 5.29 5.29 0 0 0-.09 1.12v5.41c0 .62.19.77.78.77h22.83c.82 0 .83 0 .83.82v2.89c0 .57-.14.74-.74.74h-21.51zM200 177.93h24.67a4.24 4.24 0 0 0 4.57-4.3 33.85 33.85 0 0 0 0-3.77A4.1 4.1 0 0 0 225 166h-18a7.9 7.9 0 0 1-3.93-.92 7.4 7.4 0 0 1-4.22-6.08 29.39 29.39 0 0 1 .09-6.15 7.7 7.7 0 0 1 7.6-6.36h24.41c.46 0 .62.15.61.61v3c0 .56-.16.72-.71.72h-22.84a4.33 4.33 0 0 0-3.8 2c-1 1.47-1 5.4.07 6.83a4.31 4.31 0 0 0 3.73 1.84h17.8a8 8 0 0 1 8.21 8v5a7.9 7.9 0 0 1-7.81 7.89H200.6c-.44 0-.64-.09-.62-.59.02-1.31.02-2.53.02-3.86zM44.13 192.44h-4.28c-.12 0-.28-.2-.33-.34a1.74 1.74 0 0 1 0-.56v-34.72c0-.91 0-.91.92-.91h18.1a8 8 0 0 1 5.9 2.37 6.4 6.4 0 0 1 1.91 4.72v12.2a7.26 7.26 0 0 1-7.16 7.07c-3.75.09-7.5 0-11.25 0H44.8c-.53 0-.69.18-.69.69v8.68zm0-23.42v8.42c0 .43 0 .72.59.72h13.33a3.75 3.75 0 0 0 3.63-3.64q.06-5.43 0-10.88a3.47 3.47 0 0 0-.48-1.59 4.19 4.19 0 0 0-3.94-2H44.88c-.57 0-.75.19-.75.76.01 2.72 0 5.46 0 8.19zm39.65 2.48H73.41c-.63 0-.85.17-.83.82v3.59A2.19 2.19 0 0 0 75 178.3h16.74c.53 0 .69.15.67.67v2.77c0 .41-.15.54-.55.54H73.74a5.82 5.82 0 0 1-5.61-4.06 6.75 6.75 0 0 1-.19-1.61v-13.33a7.22 7.22 0 0 1 6.64-7.28c1.1-.1 2.22-.1 3.33-.1 3.43 0 6.88-.05 10.31.11a7.21 7.21 0 0 1 6.52 5.56 7.59 7.59 0 0 1 .11 1.43v7.67c0 .66-.23.81-.83.8-3.4.01-6.82.03-10.24.03zm-2.38-4.14h8.11c.54 0 .75-.13.72-.7v-2.64a3.79 3.79 0 0 0-3.66-3.89c-3.41-.08-6.83-.08-10.24 0A3.84 3.84 0 0 0 72.6 164v2.7c0 .53.19.67.69.67 2.71-.02 5.4-.01 8.11-.01zm42.38 4.55v9.62c0 .58-.14.78-.73.75h-3.21c-.56 0-.71-.16-.7-.71V164.4c0-2.54-1.34-4.19-3.85-4.29-3.48-.15-7-.13-10.44 0-2.35.1-3.7 1.74-3.7 4.1v17.42c0 .44-.11.65-.6.64h-3.52c-.43 0-.53-.16-.53-.56v-18.93a7.17 7.17 0 0 1 6.18-6.75 10 10 0 0 1 1.44-.13h12.07a7.69 7.69 0 0 1 6.52 3.43 5.51 5.51 0 0 1 1 3.14v9.43zm-86.99-7.69v9.87a7.91 7.91 0 0 1-6.28 7.68 7.67 7.67 0 0 1-1.66.18h-1.17c-4.88.15-9.76 0-14.64.06H8.81a9.26 9.26 0 0 1-2.88-.3A7.85 7.85 0 0 1 .3 176.1a7.55 7.55 0 0 1-.27-2v-2.35Q0 164 0 156.17v-2.54a7.79 7.79 0 0 1 1.49-4.06 7.83 7.83 0 0 1 5.19-3.2 20.8 20.8 0 0 1 2.36-.1c2.65-.14 5.31 0 8-.06s5.32 0 8 0h4a7.82 7.82 0 0 1 5.21 2.12 7.63 7.63 0 0 1 2.44 4.41 9.4 9.4 0 0 1 .14 1.59c-.03 3.29-.04 6.59-.04 9.89zM18.57 177.7h8.32a12.26 12.26 0 0 0 1.71-.1 4.16 4.16 0 0 0 2.84-1.6 3.66 3.66 0 0 0 .81-2.05v-18.63a8.94 8.94 0 0 0-.1-1.27 4.12 4.12 0 0 0-1.24-2.38 4.48 4.48 0 0 0-2.91-1.16c-.15 0-.31.06-.47.06H9.72a11.78 11.78 0 0 0-1.45.1 4.23 4.23 0 0 0-2.63 1.31 3.86 3.86 0 0 0-1.1 2.6v18.49a7.9 7.9 0 0 0 .46 1.46 4.2 4.2 0 0 0 4.23 3.23c.07 0 .14-.07.22-.07h9.14z"/></g></g></svg>