<svg xmlns="http://www.w3.org/2000/svg" role="img" viewBox="5.56 34.06 347.88 292.63"><style>svg {background-color:transparent}</style><path fill="none" d="M-36-36h432v432H-36z"/><path fill="none" d="M-36-36h432v432H-36z"/><path fill="#6b76e3" d="M239.52344 81.08984c-5.44922 8.72657-16.86328 11.46485-25.67578 6.2422-.04297-.02345-.08985-.0586-.13672-.08204-.14844-.08984-.29688-.1836-.44922-.27344-26.58984-16.24219-61.375-8.1211-77.98828 18.25781 5.19922-8.78515 2.45703-20.16015-6.27344-25.58984-8.82422-5.4961-20.42188-2.83984-25.97266 5.92188.01954-.04297.0547-.07813.07813-.125 27.66016-44.25782 85.9414-57.8086 130.32812-30.36329.01953 0 .03125.02344.0547.03516 0 0 .01171 0 .02343.01172 8.83594 5.51953 11.53125 17.14453 6.01172 25.97656zm0 0"/><path fill="#f45b49" d="M127.55469 189.98047c-5.50781 8.8086-2.84766 20.39062 5.92969 25.9336-.04688-.02345-.08204-.0586-.125-.07813-44.14844-27.5039-57.80079-85.35547-30.73438-129.59375.11328-.1914.22656-.38672.35547-.58203.02344-.03516.03516-.07032.05469-.10547 5.55468-8.76172 17.15234-11.41797 25.97656-5.91797 8.71875 5.42578 11.47266 16.80078 6.27344 25.58594 0 .01171 0 .02343-.02344.03515-.02344.04688-.05469.08985-.07813.13672-.09375.14844-.18359.29688-.27734.44531 0 .02344-.02344.03516-.03516.0586-16.21093 26.5625-8.0625 61.25781 18.3672 77.82031-8.79688-5.22656-20.21095-2.47656-25.66407 6.24219zm0 0"/><path fill="#5aca7a" d="M264.09766 185.4336c-.04688.0703-.08204.14062-.12891.20702-27.54297 44.07422-85.49219 57.70704-129.79688 30.6875-.1953-.11718-.39062-.23046-.58593-.35546-.03125-.02344-.0664-.03516-.10156-.0586-8.77735-5.54297-11.4375-17.125-5.9336-25.9336 5.45313-8.71483 16.86719-11.46483 25.66406-6.24218.04688.02344.09375.0586.14063.08203.14844.08985.29687.1836.44531.27344 0 0 .02344 0 .02344.02344 26.60547 16.21875 61.38672 8.08594 77.98828-18.3125-5.23047 8.78515-2.48828 20.1914 6.24219 25.63281 8.84375 5.50781 20.5 2.82813 26.03125-6.0039zm0 0"/><path fill="#45a4f3" d="M264.13281 185.35547s-.02344.03516-.03515.0586c0 0 0 .0078-.01172.01952-5.52735 8.82032-17.17188 11.51172-26.03125 6.00391-8.73047-5.4414-11.47266-16.83594-6.23828-25.63281.01953-.04688.05468-.09375.07812-.14063.09375-.14844.1836-.29687.27734-.44531 16.26563-26.57422 8.13282-61.3125-18.33593-77.88672 8.80078 5.22266 20.22656 2.48438 25.67578-6.24219 5.51953-8.83203 2.83594-20.45703-6.01172-25.97656.07031.04297.13672.07813.20703.125 44.32813 27.61328 57.90234 85.80078 30.41406 130.11719zm0 0"/><path fill="#121212" d="M190.85938 177.73828l-16.71485-53.375-10.15625 37.98047-10.44922-21.57813c-.17187-.36718-.55078-.59765-.95312-.59765h-20.21485c-2.05078 0-3.76172-1.61328-3.80859-3.66406v-.14844c-.02344-2.08594 1.72266-3.75781 3.8086-3.75781h20.21484c3.3164 0 6.33203 1.89062 7.77734 4.86718l1.57422 3.2422 11.63281-43.53517 17.27735 55.16016 12.95312-41.54297 8.58984 20.10156c.21875.51563.73438.85938 1.29688.85938h21.58984c2.0547 0 3.77735 1.63672 3.76563 3.6875v.20703c-.02344 2.03906-1.72266 3.67578-3.77344 3.67578h-23.03906c-2.73047 0-5.1836-1.625-6.26172-4.1211l-1.07813-2.5078-14.05468 45.04687zM27.6328 278.67968c2.13282 0 4.1289.39844 5.98438 1.19141 1.85937.79688 3.48828 1.89063 4.88281 3.28907 1.39453 1.39843 2.49219 3.02734 3.28516 4.88671.79687 1.86329 1.1914 3.85938 1.1914 5.9961 0 2.13281-.40234 4.07422-1.1914 5.9336-.79297 1.86327-1.89063 3.49218-3.28516 4.89062-1.39453 1.39453-3.02344 2.49219-4.88281 3.28906-1.85547.79297-3.85157 1.1914-5.98438 1.1914-2.13281 0-4.1289-.40234-5.98828-1.1914-1.85937-.79688-3.48437-1.89453-4.88281-3.28906-1.39453-1.39844-2.48828-3.02735-3.28516-4.89063-.79297-1.85937-1.1914-3.83984-1.1914-5.9336 0-2.09374.39843-4.1328 1.1914-5.99608.79688-1.85938 1.89063-3.48829 3.28516-4.88672 1.39844-1.39844 3.02344-2.4922 4.88281-3.28907 1.85938-.79687 3.85547-1.1914 5.98828-1.1914zm0 6.98048c-2.32812 0-4.30468.8125-5.92968 2.4453-1.62891 1.62892-2.44532 3.60548-2.44532 5.9375 0 2.32813.8125 4.25 2.44532 5.87892.77343.8164 1.67187 1.42187 2.69921 1.83203 1.02735.40625 2.10157.61328 3.23047.61328 1.125 0 2.1875-.20703 3.19532-.61328 1.0039-.40625 1.91796-1.01563 2.73437-1.83204 1.625-1.6289 2.4375-3.59375 2.4375-5.8789 0-2.28906-.8125-4.3086-2.4375-5.9375-1.70703-1.6289-3.6836-2.44531-5.92969-2.44531zm22.63672 16.69921h11.2539c1.1211 0 2.1875-.20312 3.19532-.60937 1.0039-.40625 1.91797-1.01953 2.73438-1.83594 1.625-1.6289 2.4414-3.58984 2.4414-5.8789 0-2.28516-.8164-4.3047-2.4414-5.9336-1.70704-1.6289-3.6836-2.44922-5.9297-2.44922-2.25 0-4.30468.8125-5.92968 2.44922-1.6289 1.6289-2.44531 3.60547-2.44531 5.9336v26.1875h-6.97657v-40.79297h6.97657v2.32422c1.1211-.89063 2.42187-1.62891 3.89843-2.21094 1.47266-.57813 3.16016-.875 5.0547-.875 2.1328 0 4.09765.40234 5.89843 1.1914 1.80078.79688 3.35938 1.89454 4.67969 3.28907 1.3164 1.39844 2.34375 3.02734 3.08203 4.89062.73437 1.85938 1.10547 3.85547 1.10547 5.99219s-.3711 4.07422-1.10547 5.9375c-.73828 1.85938-1.76563 3.48828-3.08203 4.88672-1.3164 1.39453-2.875 2.49219-4.67969 3.28906-1.80078.79688-3.76953 1.1914-5.89844 1.1914H50.26953v-6.98437zm51.8789-4.82812H86.91798c.38672.89063.94922 1.6875 1.6875 2.39063.8086.8164 1.71875 1.42187 2.73047 1.83203 1.00781.40625 2.07031.61328 3.19922.61328 1.58984 0 3-.3711 4.24218-1.10938l7.26563 2.91016c-1.39453 1.6289-3.07813 2.90234-5.05469 3.8125-1.97266.91406-4.1289 1.36719-6.44922 1.36719-2.13281 0-4.1289-.40235-5.98828-1.19141-1.85937-.79688-3.48437-1.89453-4.8789-3.28906-1.39844-1.39844-2.4922-3.02735-3.28907-4.89063-.79297-1.85937-1.1875-3.83984-1.1875-5.9336 0-2.09374.39453-4.1328 1.1875-5.99608.79688-1.85938 1.89063-3.48829 3.28906-4.88672 1.39454-1.39844 3.01954-2.4922 4.87891-3.28907 1.85938-.79687 3.85547-1.1914 5.98828-1.1914 2.13281 0 4.1289.39844 5.98828 1.1914 1.85547.79688 3.48438 1.89063 4.87891 3.28907 1.39453 1.39843 2.49219 3.02734 3.28516 4.88671.79687 1.86329 1.1914 3.85938 1.1914 5.9961 0 1.24219-.13672 2.40234-.40625 3.48828zm-7.61327-11.8711c-2.25 0-4.22657.8125-5.9297 2.44532-.73827.73828-1.30077 1.55078-1.6875 2.44531h15.23048c-.39063-.89062-.94922-1.70703-1.6875-2.44531-1.625-1.6289-3.60156-2.44531-5.92578-2.44531zm33.18359-6.98046c1.89453 0 3.6211.35937 5.17188 1.07422 1.54687.71875 2.875 1.70703 3.98046 2.96875 1.10547 1.26171 1.95703 2.72656 2.5586 4.39062.60156 1.66797.89844 3.45313.89844 5.35938v16.12109h-6.97657v-16.1211c0-1.9414-.67969-3.55077-2.03125-4.83202-1.3164-1.31641-2.90625-1.97657-4.76562-1.97657-1.85938 0-3.50781.66016-4.82422 1.97656-1.3164 1.32032-1.97266 2.9336-1.97266 4.83204v16.12109h-6.98047v-29.09766h6.98047v2.21485c1.04688-.89063 2.22656-1.61719 3.54297-2.1836 1.3164-.5625 2.78906-.84375 4.41797-.84375zm30.57422 0c2.13281 0 4.1289.39844 5.98437 1.1914 1.85938.79688 3.48828 1.89063 4.88282 3.28907 1.39453 1.39843 2.49218 3.02734 3.28515 4.88671.79688 1.86329 1.1914 3.85938 1.1914 5.9961 0 2.13281-.40233 4.07422-1.1914 5.9336-.79297 1.86327-1.89062 3.49218-3.28515 4.89062-1.39453 1.39453-3.02344 2.49219-4.88282 3.28906-1.85547.79297-3.85156 1.1914-5.98437 1.1914s-4.1289-.40234-5.98828-1.1914c-1.85938-.79688-3.48438-1.89453-4.88281-3.28906-1.39454-1.39844-2.48829-3.02735-3.28516-4.89063-.79297-1.85937-1.1914-3.83984-1.1914-5.9336 0-2.09374.39843-4.1328 1.1914-5.99608.79687-1.85938 1.89062-3.48829 3.28516-4.88672 1.39843-1.39844 3.02343-2.4922 4.8828-3.28907 1.85938-.79687 3.85548-1.1914 5.98829-1.1914zm0 6.98047c-2.32813 0-4.30469.8125-5.92969 2.4453-1.6289 1.62892-2.44531 3.60548-2.44531 5.9375 0 2.32813.8125 4.25 2.44531 5.87892.77344.8164 1.67188 1.42187 2.69922 1.83203 1.02734.40625 2.10156.61328 3.23047.61328 1.125 0 2.1875-.20703 3.19531-.61328 1.0039-.40625 1.91797-1.01563 2.73438-1.83204 1.625-1.6289 2.4375-3.59375 2.4375-5.8789 0-2.28906-.8125-4.3086-2.4375-5.9375-1.70703-1.6289-3.6836-2.44531-5.9297-2.44531zm18.53906 16.17968l15.34375.0586c2.36719 0 4.33984-.82031 5.92969-2.44922 1.6289-1.6289 2.44531-3.58985 2.44531-5.875 0-2.28906-.8164-4.3086-2.44531-5.9375-1.625-1.6289-3.60156-2.44531-5.92969-2.44531-2.32812 0-4.22266.8164-5.92969 2.4453-1.625 1.62892-2.4414 3.60548-2.4414 5.9375V308.125h-6.97656v-40.79688h6.97656v13.96485c1.1211-.89063 2.42187-1.6289 3.89453-2.20703 1.47656-.58203 3.16016-.875 5.0586-.875 2.1328 0 4.09374.39844 5.89452 1.1914 1.80078.79688 3.35938 1.89063 4.6836 3.28907 1.3164 1.39843 2.34375 3.02734 3.07812 4.88671.73828 1.86329 1.10547 3.85938 1.10547 5.9961 0 2.13281-.36719 4.07422-1.10547 5.9336-.73437 1.86327-1.76172 3.49218-3.07812 4.88671-1.3164 1.39844-2.875 2.4961-4.6836 3.29297-1.80078.79297-3.76953 1.1914-5.89453 1.1914h-15.92578m44.28906-18.33202c.46485.11718 1.23828.39062 2.32813.8125 1.08594.42578 2.20312 1.01562 3.34375 1.77734 1.14453.7539 2.14453 1.69531 2.99219 2.82031.85156 1.1211 1.28125 2.46094 1.28125 4.01563 0 1.35937-.22266 2.59765-.67188 3.72265-.44531 1.1211-1.09375 2.11328-1.94531 2.96875-.85547.85156-1.90234 1.51172-3.14063 1.97656-1.24218.46485-2.63672.69532-4.1875.69532-2.36328 0-4.55859-.42578-6.59765-1.28125-2.03125-.85547-3.66797-1.89844-4.91016-3.14063l4.82031-4.83203c1.00782 1.20313 2.08594 1.98047 3.23047 2.33203 1.14063.34766 2.10156.52344 2.875.52344 1.19922 0 2.08985-.23438 2.67578-.69922.57813-.46094.8711-1.02734.8711-1.6836 0-.46484-.1914-.8789-.57813-1.22656-.39062-.34765-.84375-.63671-1.36328-.875-.51953-.23046-1.0586-.41406-1.60156-.55078-.54297-.13671-.98828-.26562-1.33594-.3828-.46484-.15235-1.25-.42579-2.35547-.81642-1.10547-.3828-2.22656-.94921-3.3711-1.6875-1.14062-.73828-2.14062-1.66406-2.99608-2.79296-.85157-1.1211-1.27735-2.48438-1.27735-4.07422 0-1.59375.27734-3.03906.84375-4.21875.5625-1.17969 1.30469-2.16016 2.23438-2.9375.93359-.77344 1.99609-1.34766 3.19922-1.71875 1.19921-.36719 2.4414-.55078 3.71484-.55078 1.97656 0 3.65234.23046 5.03125.69921 1.375.46485 2.5039.97266 3.40234 1.51563 1.0039.65625 1.85938 1.39453 2.5586 2.20703l-4.88282 4.88672c-.77343-1.00781-1.625-1.7461-2.55859-2.20703-.9336-.46485-1.91797-.70313-2.96484-.70313-.81641 0-1.6172.19532-2.41016.58204-.79688.38671-1.1914 1.0039-1.1914 1.85937 0 .46484.17187.86328.51952 1.1914.34766.33204.77735.60157 1.28125.81641.50391.21094 1.03907.40235 1.59766.55469.5625.15625 1.07422.28906 1.53906.40625zm34.29688 6.98437H240.1914c.3828.89063.9453 1.6875 1.68359 2.39063.8125.8164 1.72266 1.42187 2.73438 1.83203 1.0039.40625 2.0703.61328 3.1953.61328 1.58985 0 3-.3711 4.2461-1.10938l7.26563 2.91016c-1.39454 1.6289-3.08204 2.90234-5.0547 3.8125-1.97655.91406-4.1289 1.36719-6.45312 1.36719-2.1328 0-4.1289-.40235-5.98437-1.19141-1.85938-.79688-3.48828-1.89453-4.88281-3.28906-1.39453-1.39844-2.4922-3.02735-3.28516-4.89063-.79688-1.85937-1.1914-3.83984-1.1914-5.9336 0-2.09374.39452-4.1328 1.1914-5.99608.79297-1.85938 1.89063-3.48829 3.28516-4.88672 1.39453-1.39844 3.02343-2.4922 4.8828-3.28907 1.85548-.79687 3.85157-1.1914 5.98438-1.1914 2.13282 0 4.12891.39844 5.98828 1.1914 1.85938.79688 3.48438 1.89063 4.88282 3.28907 1.39453 1.39843 2.48828 3.02734 3.28515 4.88671.79297 1.86329 1.19141 3.85938 1.19141 5.9961 0 1.24219-.13672 2.40234-.40625 3.48828zm-7.61328-11.8711c-2.25 0-4.22266.8125-5.92969 2.44532-.73828.73828-1.30078 1.55078-1.6836 2.44531h15.22657c-.38672-.89062-.94531-1.70703-1.6836-2.44531-1.6289-1.6289-3.60156-2.44531-5.92968-2.44531zm29.20312-6.16796c1.375-.58203 2.9336-.875 4.6836-.875v6.98437c-2.32813 0-4.3047.8164-5.9297 2.44531-1.6289 1.70704-2.4453 3.6875-2.4453 5.9375v14.60938h-6.97657V279.4375h6.97657v2.26953c1.08593-.89062 2.3164-1.6289 3.6914-2.21484zm40.77344 0l-13.48438 29.09375H296.625l-13.48828-29.09375h7.67187l9.64844 20.83203 9.64844-20.83203zm21.33203 18.03906h-15.22656c.38281.89063.94531 1.6875 1.6836 2.39063.8164.8164 1.72265 1.42187 2.73437 1.83203 1.0039.40625 2.07422.61328 3.19531.61328 1.58984 0 3-.3711 4.24219-1.10938l7.26953 2.91016c-1.39844 1.6289-3.08203 2.90234-5.05469 3.8125-1.97656.91406-4.1289 1.36719-6.45312 1.36719-2.13282 0-4.12891-.40235-5.98829-1.19141-1.85546-.79688-3.48437-1.89453-4.8789-3.28906-1.39453-1.39844-2.49219-3.02735-3.28516-4.89063-.79687-1.85937-1.1914-3.83984-1.1914-5.9336 0-2.09374.39453-4.1328 1.1914-5.99608.79297-1.85938 1.89063-3.48829 3.28516-4.88672 1.39453-1.39844 3.02344-2.4922 4.8789-3.28907 1.85938-.79687 3.85547-1.1914 5.98829-1.1914 2.1328 0 4.1289.39844 5.98828 1.1914 1.85937.79688 3.48437 1.89063 4.88281 3.28907 1.39453 1.39843 2.48828 3.02734 3.28516 4.88671.79296 1.86329 1.1875 3.85938 1.1875 5.9961 0 1.24219-.13672 2.40234-.40235 3.48828zM331.5 285.66015c-2.25 0-4.22266.8125-5.92969 2.44532-.73828.73828-1.30078 1.55078-1.6836 2.44531h15.22657c-.39062-.89062-.94922-1.70703-1.6836-2.44531-1.6289-1.6289-3.60156-2.44531-5.92968-2.44531zm0 0"/></svg>