<?xml version="1.0" standalone="no"?>
<!DOCTYPE svg PUBLIC "-//W3C//DTD SVG 20010904//EN"
 "http://www.w3.org/TR/2001/REC-SVG-20010904/DTD/svg10.dtd">
<svg version="1.0" xmlns="http://www.w3.org/2000/svg"
 width="512.000000pt" height="568.000000pt" viewBox="0 0 512.000000 568.000000"
 preserveAspectRatio="xMidYMid meet">

<g transform="translate(0.000000,568.000000) scale(0.100000,-0.100000)"
fill="#000000" stroke="none">
<path d="M2500 4256 c0 -17 -29 -29 -44 -18 -10 7 -35 8 -61 2 -5 -1 -17 -2
-25 -1 -13 1 -13 2 0 11 8 5 10 10 4 10 -19 0 -24 -13 -11 -28 10 -13 9 -14
-11 -3 -13 7 -30 10 -37 7 -8 -3 -15 0 -17 5 -2 7 -12 7 -30 0 -22 -8 -29 -7
-36 5 -8 14 -10 14 -21 0 -8 -9 -19 -16 -25 -16 -6 0 -4 5 4 10 9 6 10 10 3
10 -6 0 -15 -5 -18 -10 -5 -8 -11 -7 -21 1 -10 8 -14 8 -14 0 0 -6 -8 -11 -17
-11 -24 0 -159 -88 -249 -161 -176 -143 -321 -358 -393 -579 -89 -273 -87
-594 5 -852 160 -447 519 -755 999 -860 93 -20 400 -17 502 5 472 102 845 435
992 886 80 243 82 545 6 796 -31 102 -108 260 -171 350 -64 91 -200 233 -289
300 -87 65 -195 125 -214 118 -10 -4 -11 -1 -5 8 7 12 5 12 -9 1 -18 -15 -41
-7 -31 10 4 7 2 8 -5 4 -6 -4 -9 -11 -6 -16 3 -5 -10 -8 -30 -7 -19 1 -35 5
-35 9 0 4 -12 3 -27 -3 -17 -6 -30 -6 -36 0 -7 7 -17 6 -30 0 -15 -8 -18 -8
-12 1 6 9 2 9 -14 1 -19 -11 -25 -8 -22 11 0 4 -6 5 -15 1 -13 -5 -13 -7 -2
-14 10 -7 9 -9 -4 -9 -9 0 -21 7 -26 16 -8 15 -10 14 -16 -2 -6 -14 -9 -15
-15 -5 -7 10 -13 11 -30 1 -17 -9 -26 -9 -36 0 -8 7 -20 8 -27 4 -17 -11 -138
-13 -138 -3 0 5 -10 5 -23 0 -13 -5 -30 -5 -39 0 -11 6 -19 5 -23 -1 -3 -5
-12 -10 -18 -10 -7 0 -6 4 3 10 8 5 10 10 5 10 -6 0 -16 -5 -22 -11 -14 -14
-36 -2 -27 13 4 7 2 8 -5 4 -6 -4 -9 -11 -6 -16 3 -5 -10 -8 -30 -7 -32 2 -40
8 -36 30 0 4 -3 7 -9 7 -5 0 -10 -6 -10 -14z m749 -177 c494 -115 770 -650
580 -1127 -125 -313 -435 -522 -776 -522 -252 0 -454 88 -631 275 -134 141
-188 284 -165 436 46 292 343 477 620 384 193 -65 306 -211 332 -429 l7 -61
12 66 c18 101 15 251 -8 347 -59 248 -239 469 -456 562 -25 11 -43 24 -40 28
8 13 145 52 217 62 85 11 205 3 308 -21z"/>
<path d="M2805 4250 c-3 -6 1 -7 9 -4 18 7 21 14 7 14 -6 0 -13 -4 -16 -10z"/>
<path d="M2850 4250 c0 -5 5 -10 11 -10 5 0 7 5 4 10 -3 6 -8 10 -11 10 -2 0
-4 -4 -4 -10z"/>
<path d="M1063 1080 c-77 -16 -122 -49 -159 -120 -15 -27 -19 -57 -19 -135 0
-112 17 -160 74 -208 92 -77 275 -67 350 19 78 88 80 284 4 375 -49 57 -158
88 -250 69z m146 -97 c46 -35 66 -81 66 -153 -1 -118 -52 -180 -150 -180 -85
0 -133 43 -149 133 -16 88 19 176 84 210 43 22 111 18 149 -10z"/>
<path d="M2680 825 l0 -255 40 0 40 0 0 126 c0 78 4 123 10 119 5 -3 48 -60
95 -125 l86 -120 45 0 c24 0 44 4 44 9 0 4 -15 28 -33 52 -19 24 -59 78 -90
120 l-56 77 83 114 c45 62 86 119 90 126 5 9 -6 12 -43 12 l-50 0 -82 -120
c-46 -66 -86 -120 -91 -120 -4 0 -8 54 -8 120 l0 120 -40 0 -40 0 0 -255z"/>
<path d="M3720 1035 l0 -45 45 0 45 0 0 45 0 45 -45 0 -45 0 0 -45z"/>
<path d="M1925 926 c-131 -59 -137 -279 -9 -332 20 -8 70 -14 124 -14 l90 0 0
35 0 35 -64 0 c-73 0 -122 14 -136 40 -6 10 -10 21 -10 24 0 3 61 6 136 6
l137 0 -6 55 c-7 71 -37 118 -91 144 -49 24 -126 27 -171 7z m150 -91 c46 -46
35 -55 -65 -55 -78 0 -90 2 -90 17 0 60 108 86 155 38z"/>
<path d="M3167 919 c-20 -11 -49 -38 -65 -61 -26 -40 -27 -47 -27 -162 l0
-121 43 -3 42 -3 0 108 c0 121 17 167 65 179 21 5 25 12 25 45 0 34 -3 39 -22
39 -13 -1 -40 -10 -61 -21z"/>
<path d="M4300 918 c-115 -58 -122 -254 -11 -316 32 -18 55 -22 135 -22 l96 0
0 34 0 33 -85 5 c-63 3 -89 9 -105 23 -43 39 -29 45 115 45 l136 0 -7 53 c-8
60 -22 93 -56 124 -52 49 -145 58 -218 21z m145 -64 c18 -7 47 -58 38 -68 -4
-3 -43 -6 -88 -6 -45 0 -84 3 -88 6 -8 9 19 61 35 67 19 8 84 8 103 1z"/>
<path d="M1450 680 l0 -250 40 0 39 0 3 93 3 92 62 7 c35 4 75 13 90 20 92 44
99 214 11 268 -28 17 -50 20 -140 20 l-108 0 0 -250z m201 162 c18 -15 22 -29
22 -67 0 -61 -19 -77 -88 -73 l-50 3 -3 64 c-2 35 -1 70 2 77 8 21 89 18 117
-4z"/>
<path d="M2270 750 l0 -180 40 0 39 0 3 143 3 142 36 3 c24 2 43 -3 60 -17 23
-18 24 -26 27 -145 l4 -126 39 0 39 0 0 146 0 146 -34 34 -34 34 -111 0 -111
0 0 -180z"/>
<path d="M3330 791 c0 -135 1 -140 26 -170 34 -40 81 -53 184 -49 l85 3 3 178
2 177 -45 0 -45 0 0 -140 0 -140 -43 0 c-70 0 -77 15 -77 158 l0 122 -45 0
-45 0 0 -139z"/>
<path d="M3722 753 l3 -178 43 -3 42 -3 0 180 0 181 -45 0 -45 0 2 -177z"/>
<path d="M3933 911 c-48 -30 -55 -98 -16 -143 9 -9 44 -27 80 -39 106 -35 93
-79 -24 -79 l-63 0 0 -35 0 -35 76 0 c92 0 136 18 158 65 34 71 8 113 -90 145
-105 35 -98 70 14 70 l62 0 0 35 0 35 -82 0 c-64 0 -90 -4 -115 -19z"/>
</g>
</svg>
