<svg width="877" height="129" viewBox="0 0 877 129" fill="none" xmlns="http://www.w3.org/2000/svg">
<path d="M36.9849 64.0449L73.9615 128.09H0.00836182L36.9849 64.0449Z" fill="#006EFF"/>
<path d="M73.9532 0L110.93 64.0453H36.9766L73.9532 0Z" fill="#006EFF"/>
<path d="M156.123 0L193.1 64.0453H119.147L156.123 0Z" fill="#1EECFF"/>
<path d="M73.9523 128.079L110.929 64.0335H36.9758L73.9523 128.079Z" fill="#00A4FF"/>
<path d="M36.9766 64.0453L73.9532 -2.41101e-05H6.10352e-05L36.9766 64.0453Z" fill="#00A4FF"/>
<path d="M119.147 64.0453L156.123 -2.41101e-05H82.1703L119.147 64.0453Z" fill="#00C8DC"/>
<path d="M773.884 94.3633C777.964 97.5685 788.193 101.288 795.701 101.418C803.568 101.418 809.768 99.5587 813.463 95.9504C814.829 94.5732 815.907 92.9382 816.635 91.1405C817.363 89.3429 817.726 87.4184 817.704 85.479C817.704 78.9011 813.866 73.3834 799.353 69.7008C793.444 68.281 783.233 65.8446 782.558 60.9282C782.432 60.2192 782.466 59.491 782.658 58.7969C782.85 58.1029 783.195 57.4605 783.667 56.9169C785.726 54.5424 789.972 53.4513 795.701 53.4513C801.281 53.4513 809.917 56.4519 813.445 58.4668C813.524 58.5129 813.615 58.5371 813.707 58.5367C813.799 58.5364 813.889 58.5116 813.969 58.465C814.048 58.4184 814.114 58.3515 814.159 58.2713C814.204 58.191 814.227 58.1001 814.226 58.008V49.6943C810.103 48.1815 803.314 45.7079 794.48 45.7079C786.668 45.7079 780.425 47.8592 776.903 51.7588C775.735 53.0616 774.861 54.6009 774.341 56.2721C773.821 57.9432 773.667 59.7068 773.89 61.4427C774.932 71.5544 786.873 74.5985 794.387 76.5081C801.095 78.1634 809.44 80.2279 809.03 85.944C808.665 91.0402 804.536 93.3094 795.639 93.3094C788.361 93.3094 778.943 89.2236 774.783 84.9706C774.709 84.8972 774.616 84.8472 774.514 84.827C774.412 84.8067 774.306 84.8172 774.21 84.8569C774.114 84.8967 774.031 84.9641 773.973 85.0505C773.916 85.137 773.884 85.2386 773.884 85.3427V94.3633Z" fill="black"/>
<path d="M754.375 94.326V100.21H762.373V63.6312C762.373 52.5771 754.549 45.7079 741.945 45.7079C737.419 45.7079 728.454 46.6998 721.008 52.0564V59.899C721.008 59.9968 721.036 60.0929 721.087 60.1761C721.138 60.2594 721.212 60.3265 721.3 60.3703C721.387 60.4141 721.485 60.4327 721.583 60.4239C721.68 60.4151 721.773 60.3794 721.851 60.3207C727.56 56.2125 734.404 53.9809 741.436 53.9349C746.111 53.9349 753.96 55.1439 753.96 63.2345V67.785C752.552 67.6486 746.669 66.9605 741.015 66.9605C738.334 67.0082 735.661 67.2758 733.023 67.7603C726.204 69.1801 717.233 72.5527 718.045 85.4233C718.832 98.0212 730.19 101.381 736.78 101.381C743.935 101.406 750.55 98.5915 754.375 94.326ZM743.34 74.5552C746.883 74.6479 750.411 75.063 753.879 75.7951V79.1491C753.879 83.6997 749.787 93.675 737.636 93.675C730.977 93.675 726.687 90.7922 726.154 85.9502C725.299 78.213 730.444 76.1857 735.026 75.2805C737.766 74.7638 740.551 74.5209 743.34 74.5552Z" fill="black"/>
<path d="M695.079 62.186C703.02 57.7068 703.66 49.1324 703.66 46.5025C703.66 38.6191 699.75 32.4762 692.648 29.2256C689.051 27.5683 684.566 26.7942 678.538 26.7942H646.077V101.66H680.899C683.491 101.66 689.922 101.552 695.06 99.2992C702.623 95.9718 706.789 89.1444 706.789 80.058C706.789 73.2561 703.154 65.347 695.079 62.186ZM697.843 80.0132C697.843 85.3754 695.847 88.8563 691.56 90.9871C688.693 92.4077 684.982 93.0413 679.549 93.0413H655.035V66.9851H680.317C684.745 66.9851 688.821 67.7082 691.195 68.9048C695.86 71.2787 697.843 74.5934 697.843 80.0132ZM655.035 58.3851V35.4134H678.788C682.723 35.4134 685.961 35.8292 687.9 36.5907C692.232 38.28 694.714 42.0361 694.714 46.8993C694.714 50.7066 693.505 53.5604 691.118 55.3841C688.475 57.4061 684.617 58.3851 679.325 58.3851H655.035Z" fill="black"/>
<path d="M873.693 85.0386C873.692 84.9286 873.656 84.8216 873.591 84.7329C873.526 84.6442 873.434 84.578 873.33 84.5438C873.225 84.5096 873.112 84.509 873.007 84.5422C872.902 84.5753 872.811 84.6406 872.745 84.7286C868.894 89.8 859.675 93.9043 854.009 93.9043C848.59 93.9043 843.469 92.1187 840.717 89.2421C837.333 85.6781 835.477 80.932 835.546 76.018H876.136V75.398C876.136 63.9596 874.183 57.4746 869.18 52.2606C865.001 47.9208 859.26 45.7076 852.087 45.7076C836.91 45.7076 827.108 56.5695 827.108 73.3955C827.66 90.9036 837.604 101.356 853.711 101.356C861.393 101.356 867.89 98.771 873.712 93.6934L873.693 85.0386ZM867.915 68.5659H835.534V68.4047C835.778 64.2732 837.61 60.3961 840.646 57.5838C843.683 54.7715 847.689 53.2419 851.827 53.3147C861.275 53.3147 867.438 59.099 867.896 68.4109L867.915 68.5659Z" fill="black"/>
<path d="M467.099 26.7939V34.9708H492.954V101.621H501.905V34.9708H527.767V26.7939H467.099Z" fill="black"/>
<path d="M606.671 47.3043C600.031 47.3043 594.408 49.5238 590.632 53.5908V48.5071H582.436V101.763H590.818V71.415C590.818 66.4056 592.349 62.1154 595.158 59.4185C598.159 56.4798 601.866 55.1221 606.472 55.2585C613.038 55.4569 619.659 59.8029 619.659 69.0653V101.763H628.035V68.6686C628.035 62.1093 625.952 56.6411 622.009 52.8593C618.196 49.2262 612.901 47.3043 606.671 47.3043Z" fill="black"/>
<path d="M570.123 85.0385C570.122 84.9284 570.086 84.8215 570.021 84.7328C569.956 84.644 569.865 84.5779 569.76 84.5437C569.655 84.5095 569.543 84.5089 569.438 84.5421C569.333 84.5752 569.241 84.6405 569.175 84.7285C565.325 89.7999 556.106 93.9041 550.439 93.9041C545.021 93.9041 539.9 92.1186 537.147 89.2419C533.763 85.678 531.908 80.9319 531.976 76.0179H572.566V75.3979C572.566 63.9594 570.613 57.4745 565.61 52.2605C561.431 47.9207 555.69 45.7075 548.517 45.7075C533.34 45.7075 523.539 56.5694 523.539 73.3954C524.09 90.9034 534.035 101.356 550.142 101.356C557.823 101.356 564.32 98.7709 570.142 93.6933L570.123 85.0385ZM564.345 68.5658H531.964V68.4046C532.208 64.2731 534.04 60.396 537.076 57.5837C540.113 54.7714 544.119 53.2418 548.257 53.3146C557.705 53.3146 563.868 59.0988 564.327 68.4108L564.345 68.5658Z" fill="black"/>
<path d="M246.543 25.2179C225.83 25.2179 211.91 40.6469 211.91 63.6073C211.91 86.5678 225.83 102.003 246.543 102.003C267.255 102.003 281.176 86.5739 281.176 63.6073C281.176 40.6408 267.255 25.2179 246.543 25.2179ZM272.997 63.6073C272.997 81.6507 262.613 93.3111 246.543 93.3111C230.472 93.3111 220.088 81.6507 220.088 63.6073C220.088 45.564 230.472 33.9097 246.543 33.9097C262.613 33.9097 272.997 45.5701 272.997 63.6073Z" fill="black"/>
<path d="M319.009 44.4885C311.725 44.4885 305.32 47.1606 301.47 51.7173V45.7471H292.505V120.937H301.34V94.1545C304.545 97.8743 310.795 101.383 318.569 101.383C334.124 101.383 344.18 90.2796 344.18 73.094C344.18 51.9777 330.621 44.4885 319.009 44.4885ZM317.869 52.728H318.259C333.758 53.1 334.955 67.9235 334.955 72.4555C334.955 77.3222 333.771 93.1873 318.551 93.1873C308.551 93.1873 301.29 84.6441 301.29 72.877C301.29 66.2123 303.25 60.7752 306.957 57.1545C309.87 54.301 313.791 52.7106 317.869 52.728Z" fill="black"/>
<path d="M400.356 84.7126C400.355 84.6005 400.319 84.4915 400.253 84.4008C400.186 84.3102 400.094 84.2425 399.987 84.207C399.881 84.1716 399.766 84.1701 399.659 84.2029C399.552 84.2358 399.457 84.3013 399.389 84.3902C395.452 89.5794 386.035 93.7704 380.244 93.7704C374.708 93.7704 369.506 91.9105 366.667 89.0028C363.213 85.3631 361.319 80.5169 361.391 75.4998H402.83V74.8798C402.83 63.1933 400.84 56.5658 395.731 51.2403C391.46 46.8013 385.582 44.5446 378.267 44.5446C362.767 44.5446 352.748 55.6421 352.748 72.834C353.313 90.7201 363.474 101.396 379.928 101.396C387.771 101.396 394.411 98.7549 400.356 93.5658V84.7126ZM394.454 67.8866H361.372V67.7192C361.516 65.452 362.125 63.2387 363.162 61.2174C364.199 59.196 365.641 57.41 367.399 55.9707C370.407 53.5548 374.16 52.2575 378.019 52.3004C387.672 52.3004 393.964 58.2088 394.435 67.7254L394.454 67.8866Z" fill="black"/>
<path d="M437.467 46.0143C430.685 46.0143 424.944 48.2834 421.088 52.4373V47.2418H412.718V101.651H421.274V70.652C421.274 65.5372 422.842 61.1788 425.682 58.3951C428.75 55.3944 432.532 54.0058 437.244 54.1484C443.946 54.353 450.716 58.7919 450.716 68.2527V101.657H459.272V67.8497C459.272 61.1478 457.145 55.5618 453.115 51.6932C449.247 47.9795 443.834 46.0143 437.467 46.0143Z" fill="black"/>
</svg>
