<?xml version="1.0" encoding="UTF-8"?>
<svg id="Layer_1" xmlns="http://www.w3.org/2000/svg" version="1.1" viewBox="0 0 309.6 390.61">
  <!-- Generator: Adobe Illustrator 30.0.0, SVG Export Plug-In . SVG Version: 2.1.1 Build 123)  -->
  <defs>
    <style>
      .st0 {
        fill: #387ef4;
      }

      .st1 {
        fill: #0d2965;
      }
    </style>
  </defs>
  <g>
    <path d="M56.54,357.91c0,2.5-.37,4.7-1.12,6.6-.74,1.9-1.76,3.48-3.06,4.76-1.29,1.28-2.83,2.24-4.62,2.89-1.79.65-3.7.97-5.75.97s-3.88-.32-5.65-.97-3.32-1.61-4.64-2.89c-1.32-1.28-2.36-2.87-3.12-4.76-.76-1.9-1.14-4.1-1.14-6.6s.39-4.7,1.18-6.6c.79-1.9,1.85-3.49,3.18-4.78,1.33-1.29,2.88-2.26,4.64-2.91,1.76-.65,3.6-.97,5.54-.97s3.88.32,5.65.97c1.77.65,3.32,1.62,4.64,2.91,1.32,1.29,2.36,2.89,3.12,4.78.76,1.9,1.14,4.1,1.14,6.6ZM34.24,357.91c0,1.43.18,2.73.53,3.88s.86,2.14,1.52,2.97c.66.83,1.47,1.47,2.42,1.92.95.45,2.05.68,3.29.68s2.3-.23,3.27-.68c.97-.45,1.78-1.09,2.44-1.92.66-.83,1.17-1.82,1.52-2.97s.53-2.45.53-3.88-.18-2.73-.53-3.9c-.35-1.16-.86-2.16-1.52-2.99-.66-.83-1.48-1.47-2.44-1.92-.97-.45-2.06-.67-3.27-.67s-2.33.23-3.29.69c-.96.46-1.76,1.11-2.42,1.94-.66.83-1.17,1.83-1.52,2.99-.35,1.16-.53,2.45-.53,3.86Z"/>
    <path d="M82.21,361.45c0,1.71-.21,3.27-.63,4.68-.42,1.4-1.04,2.61-1.85,3.62s-1.83,1.8-3.04,2.36-2.6.84-4.17.84c-.87,0-1.69-.08-2.44-.25-.76-.17-1.49-.41-2.19-.72v8.34h-6.28v-29.21c.56-.17,1.21-.33,1.94-.48.73-.15,1.5-.29,2.3-.4.8-.11,1.62-.2,2.44-.27.83-.07,1.62-.11,2.38-.11,1.83,0,3.46.28,4.89.82s2.64,1.32,3.62,2.32c.98,1,1.74,2.21,2.26,3.65.52,1.43.78,3.04.78,4.81ZM75.8,361.62c0-1.94-.44-3.49-1.31-4.66-.87-1.17-2.16-1.75-3.88-1.75-.56,0-1.08.02-1.56.06-.48.04-.87.09-1.18.15v11.34c.39.25.91.46,1.54.63.63.17,1.27.25,1.92.25,2.98,0,4.47-2.01,4.47-6.03Z"/>
    <path d="M86.01,361.62c0-1.97.3-3.69.91-5.16s1.4-2.7,2.38-3.69c.98-.98,2.12-1.73,3.39-2.24s2.59-.76,3.94-.76c3.15,0,5.63.96,7.46,2.89,1.83,1.93,2.74,4.76,2.74,8.49,0,.37-.01.77-.04,1.2s-.06.82-.08,1.16h-14.25c.14,1.29.74,2.32,1.81,3.08,1.07.76,2.5,1.14,4.3,1.14,1.15,0,2.28-.1,3.39-.31,1.11-.21,2.02-.47,2.72-.78l.84,5.1c-.34.17-.79.34-1.35.51-.56.17-1.19.32-1.88.44s-1.43.23-2.21.31c-.79.08-1.57.13-2.36.13-2,0-3.73-.3-5.21-.89-1.48-.59-2.7-1.4-3.67-2.42-.97-1.02-1.69-2.24-2.15-3.65-.46-1.4-.69-2.92-.69-4.55ZM100.76,359.22c-.03-.53-.12-1.05-.27-1.56-.15-.51-.39-.95-.72-1.35-.32-.39-.73-.72-1.22-.97-.49-.25-1.1-.38-1.83-.38s-1.31.12-1.81.36-.93.55-1.27.95c-.34.39-.6.85-.78,1.37-.18.52-.32,1.05-.4,1.58h8.3Z"/>
    <path d="M111.68,351.13c1.07-.31,2.44-.6,4.13-.86s3.46-.4,5.31-.4,3.45.25,4.7.74c1.25.49,2.24,1.19,2.97,2.09.73.9,1.25,1.97,1.56,3.2.31,1.24.46,2.61.46,4.13v12.52h-6.28v-11.76c0-2.02-.27-3.46-.8-4.3-.53-.85-1.53-1.27-2.99-1.27-.45,0-.93.02-1.43.06-.51.04-.96.09-1.35.15v17.12h-6.28v-21.41Z"/>
    <path d="M150.25,373.13c-4.75,0-8.37-1.32-10.85-3.96-2.49-2.64-3.73-6.39-3.73-11.26,0-2.42.38-4.57,1.14-6.47.76-1.9,1.8-3.5,3.12-4.8,1.32-1.31,2.89-2.3,4.72-2.97,1.83-.67,3.81-1.01,5.94-1.01,1.24,0,2.36.09,3.37.28,1.01.18,1.9.39,2.66.63.76.24,1.39.48,1.9.74.51.25.87.45,1.1.59l-1.9,5.31c-.9-.48-1.95-.89-3.14-1.22-1.2-.34-2.55-.51-4.07-.51-1.01,0-2,.17-2.97.51-.97.34-1.83.88-2.57,1.62s-1.34,1.71-1.79,2.89c-.45,1.18-.67,2.61-.67,4.3,0,1.35.15,2.61.44,3.77.29,1.17.77,2.17,1.43,3.01s1.52,1.51,2.59,2,2.36.74,3.88.74c.95,0,1.81-.06,2.57-.17.76-.11,1.43-.25,2.02-.4.59-.15,1.11-.33,1.56-.53.45-.2.86-.38,1.22-.55l1.81,5.27c-.93.56-2.23,1.07-3.92,1.52-1.69.45-3.64.68-5.86.68Z"/>
    <path d="M163.82,372.54v-31.7l6.28-1.01v10.62c.42-.14.96-.27,1.62-.4.66-.13,1.3-.19,1.92-.19,1.8,0,3.29.25,4.49.74,1.19.49,2.15,1.19,2.87,2.09s1.22,1.97,1.52,3.2c.3,1.24.44,2.61.44,4.13v12.52h-6.28v-11.76c0-2.02-.26-3.46-.78-4.3-.52-.85-1.48-1.27-2.89-1.27-.56,0-1.09.05-1.58.15-.49.1-.93.21-1.33.32v16.86h-6.28Z"/>
    <path d="M209.39,361.41c0,1.74-.25,3.34-.76,4.78-.51,1.45-1.24,2.68-2.19,3.71s-2.1,1.82-3.43,2.38c-1.34.56-2.83.84-4.49.84s-3.11-.28-4.45-.84c-1.34-.56-2.48-1.36-3.44-2.38s-1.7-2.26-2.23-3.71c-.53-1.45-.8-3.04-.8-4.78s.27-3.33.82-4.76c.55-1.43,1.31-2.66,2.28-3.67.97-1.01,2.12-1.8,3.46-2.36,1.33-.56,2.79-.84,4.36-.84s3.07.28,4.4.84,2.48,1.35,3.44,2.36c.96,1.01,1.7,2.23,2.23,3.67.53,1.43.8,3.02.8,4.76ZM202.98,361.41c0-1.94-.39-3.46-1.16-4.57-.77-1.11-1.88-1.67-3.31-1.67s-2.54.55-3.33,1.67c-.79,1.11-1.18,2.63-1.18,4.57s.39,3.48,1.18,4.62c.79,1.14,1.9,1.71,3.33,1.71s2.54-.57,3.31-1.71c.77-1.14,1.16-2.68,1.16-4.62Z"/>
    <path d="M227.6,355.93c-.56-.14-1.22-.29-1.98-.44-.76-.15-1.57-.23-2.44-.23-.39,0-.86.03-1.41.1-.55.07-.96.15-1.24.23v16.95h-6.28v-20.99c1.12-.39,2.45-.77,3.98-1.12s3.24-.53,5.12-.53c.34,0,.74.02,1.22.06.48.04.96.1,1.43.17.48.07.96.15,1.43.25.48.1.89.22,1.22.36l-1.05,5.18Z"/>
    <path d="M230.55,361.62c0-1.97.3-3.69.91-5.16s1.4-2.7,2.38-3.69c.98-.98,2.12-1.73,3.39-2.24,1.28-.51,2.59-.76,3.94-.76,3.15,0,5.63.96,7.46,2.89,1.83,1.93,2.74,4.76,2.74,8.49,0,.37-.01.77-.04,1.2s-.06.82-.08,1.16h-14.25c.14,1.29.74,2.32,1.81,3.08,1.07.76,2.5,1.14,4.3,1.14,1.15,0,2.28-.1,3.39-.31,1.11-.21,2.02-.47,2.72-.78l.84,5.1c-.34.17-.79.34-1.35.51-.56.17-1.19.32-1.88.44s-1.43.23-2.21.31c-.79.08-1.57.13-2.36.13-2,0-3.73-.3-5.21-.89-1.48-.59-2.7-1.4-3.67-2.42-.97-1.02-1.69-2.24-2.15-3.65-.46-1.4-.69-2.92-.69-4.55ZM245.3,359.22c-.03-.53-.12-1.05-.27-1.56-.15-.51-.39-.95-.72-1.35-.32-.39-.73-.72-1.22-.97-.49-.25-1.1-.38-1.83-.38s-1.31.12-1.81.36-.93.55-1.27.95c-.34.39-.6.85-.78,1.37-.18.52-.32,1.05-.4,1.58h8.3Z"/>
    <path d="M276.96,361.41c0,1.74-.25,3.34-.76,4.78-.51,1.45-1.24,2.68-2.19,3.71s-2.1,1.82-3.43,2.38c-1.34.56-2.83.84-4.49.84s-3.11-.28-4.45-.84c-1.34-.56-2.48-1.36-3.44-2.38s-1.7-2.26-2.23-3.71c-.53-1.45-.8-3.04-.8-4.78s.27-3.33.82-4.76c.55-1.43,1.31-2.66,2.28-3.67.97-1.01,2.12-1.8,3.46-2.36,1.33-.56,2.79-.84,4.36-.84s3.07.28,4.4.84,2.48,1.35,3.44,2.36c.96,1.01,1.7,2.23,2.23,3.67.53,1.43.8,3.02.8,4.76ZM270.55,361.41c0-1.94-.39-3.46-1.16-4.57-.77-1.11-1.88-1.67-3.31-1.67s-2.54.55-3.33,1.67c-.79,1.11-1.18,2.63-1.18,4.57s.39,3.48,1.18,4.62c.79,1.14,1.9,1.71,3.33,1.71s2.54-.57,3.31-1.71c.77-1.14,1.16-2.68,1.16-4.62Z"/>
  </g>
  <g>
    <path class="st1" d="M209.69,131.12c-1.32-2.33-3.79-3.77-6.47-3.77h-44.94V10c0-4.11-3.33-7.44-7.44-7.44s-7.44,3.33-7.44,7.44v117.35h-10.02c-4.11,0-7.44,3.33-7.44,7.44s3.33,7.44,7.44,7.44h10.02v136.71c.9-.17,1.79-.34,2.7-.48,4.03-.62,8.13-.67,12.18-.19v-54.12l4.96-8.27,46.35-77.26c1.38-2.3,1.42-5.16.1-7.49ZM163.23,186.96l-4.96,8.27v-52.99h31.8l-26.84,44.73Z"/>
    <g>
      <path class="st0" d="M265.45,229.33c-20.01-1.65-27.83,5.05-45.13,9.3-23.93,5.88-35.25-5.65-56.97-8.41-.04,0-.07,0-.11-.01v18.09c15.12,2.95,28.8,11.65,45.99,11,19.18-.72,33.28-13.19,53.56-11.88,9.08.59,17.59,4.5,26.39,7.69,4.24-4.98,8.25-10.18,11.93-15.61-11.36-2.71-21.11-8.98-35.65-10.18Z"/>
      <path class="st0" d="M138.44,249.32v-18.43c-19.05,3.57-30.4,13.22-52.72,7.73-17.3-4.25-25.13-10.95-45.13-9.3-14.39,1.18-24.1,7.34-35.31,10.09,3.67,5.42,7.66,10.61,11.9,15.59,8.69-3.17,17.11-7,26.08-7.58,20.28-1.31,34.38,11.16,53.56,11.88,15.52.58,28.18-6.43,41.62-9.98Z"/>
      <path class="st0" d="M242.95,284.87c-2.4.02-16.52,7.87-21.71,9.15-20.54,5.08-39.2-6.8-61.3-10.23-4.58-.71-9.26-.71-13.84,0-22.1,3.43-40.77,15.31-61.3,10.23-5.19-1.28-19.31-9.14-21.71-9.15-.77,0-1.32.18-1.73.46-1.69,1.19-.56,4.58,1.21,7.92,2.05,1.21,4.12,2.4,6.22,3.54,8.22,4.42,16.84,8.19,25.77,11.29,4.25,1.48,8.56,2.82,12.95,3.98,12.38-2.45,25.22-7.55,37.44-9.91,5.32-1.03,10.81-1.03,16.13,0,12.3,2.37,25.23,7.53,37.68,9.96,4.44-1.17,8.81-2.53,13.11-4.03,8.66-3.01,17.02-6.66,25.02-10.91,2.16-1.15,4.28-2.35,6.38-3.58,1.87-3.44,3.15-7.03,1.4-8.26-.41-.29-.96-.47-1.73-.46Z"/>
    </g>
  </g>
</svg>