<svg id="图层_1" data-name="图层 1" xmlns="http://www.w3.org/2000/svg" xmlns:xlink="http://www.w3.org/1999/xlink" viewBox="0 0 165.37 165.37"><defs><style>.cls-1{fill:#263a66;}.cls-2{fill:url(#未命名的渐变_60);}.cls-3{fill:url(#未命名的渐变_89);}.cls-4{fill:url(#未命名的渐变_43);}</style><linearGradient id="未命名的渐变_60" x1="82.69" y1="108.85" x2="82.69" y2="4.19" gradientUnits="userSpaceOnUse"><stop offset="0" stop-color="#0071ff"/><stop offset="1" stop-color="#009bff"/></linearGradient><linearGradient id="未命名的渐变_89" x1="49.53" y1="71.14" x2="115.58" y2="71.14" gradientUnits="userSpaceOnUse"><stop offset="0" stop-color="#0050fa"/><stop offset="1" stop-color="#00a0ff" stop-opacity="0"/></linearGradient><linearGradient id="未命名的渐变_43" x1="97.45" y1="82.4" x2="97.45" y2="16.06" gradientUnits="userSpaceOnUse"><stop offset="0" stop-color="#00a0dc"/><stop offset="1" stop-color="#3cfaff"/></linearGradient></defs><title>openkruise</title><path class="cls-1" d="M54.18,140.77c-3.75,0-7.33,2.09-7.33,7.33s3.15,7.33,7.33,7.33h5.11v-3.16H54a3,3,0,0,1-3.12-2.39h10.6V148.1C61.48,142.85,57.91,140.77,54.18,140.77ZM50.7,147a3.21,3.21,0,0,1,3.57-3.08A3.23,3.23,0,0,1,57.86,147Z"/><path class="cls-1" d="M148.47,140.77c-3.75,0-7.34,2.09-7.34,7.33s3.16,7.33,7.34,7.33h5.11v-3.16h-5.3a3,3,0,0,1-3.12-2.39h10.61V148.1C155.77,142.85,152.2,140.77,148.47,140.77ZM145,147a3.2,3.2,0,0,1,3.56-3.08,3.24,3.24,0,0,1,3.6,3.08Z"/><path class="cls-1" d="M71.49,141.05H64.35v14.38H68V144.21h2.37a2.33,2.33,0,0,1,2.33,2.34v8.88H76.3v-9.56A4.82,4.82,0,0,0,71.49,141.05Z"/><path class="cls-1" d="M38.46,141.05H32v20.13h3.62v-7.66h2.82c4.35,0,6.24-2.79,6.24-6.23S42.81,141.05,38.46,141.05Zm-.21,9.31H35.64v-6.15h2.61c2.35,0,2.82,1.1,2.82,3.08S40.6,150.36,38.25,150.36Z"/><path class="cls-1" d="M19.38,135c-5.58,0-9.78,3-9.78,10.36s4.2,10.35,9.78,10.35,9.77-3,9.77-10.35S25,135,19.38,135Zm0,17.43c-3.45,0-5.93-2.33-5.93-7.07s2.48-7.08,5.93-7.08,5.95,2.35,5.95,7.08S22.82,152.44,19.38,152.44Z"/><rect class="cls-1" x="121.94" y="141.05" width="3.62" height="14.38"/><rect class="cls-1" x="121.82" y="135.3" width="3.85" height="3.62"/><path class="cls-1" d="M96.27,147.9v7.53H99.9V148a4.12,4.12,0,0,1,3.49-4.11v-3.16A7.13,7.13,0,0,0,96.27,147.9Z"/><path class="cls-1" d="M136.71,147.28c-1.64-.73-4.4-1.24-4.54-2.05,0-.61.41-1,1.78-1h4.19v-3.17h-4.67c-2.86,0-4.93,1.65-4.93,3.92a4,4,0,0,0,2.55,3.74c3.35,1.21,4.58,1.42,4.63,2.34s-.83,1.24-1.77,1.24h-4.68v3.14h5c2.86,0,5.1-2,5.1-4.5C139.34,149.16,138.49,148.07,136.71,147.28Z"/><path class="cls-1" d="M111.09,155.43h7.15V141.06h-3.62v11.21h-2.39a2.35,2.35,0,0,1-2.35-2.35v-8.86h-3.62v9.54A4.83,4.83,0,0,0,111.09,155.43Z"/><polygon class="cls-1" points="80.6 135.3 80.6 155.43 84.22 155.43 84.22 145.37 84.22 135.3 80.6 135.3"/><polygon class="cls-1" points="88.07 145.37 95.26 135.3 91.12 135.3 84.22 145.37 91.41 155.43 95.55 155.43 88.07 145.37"/><path class="cls-2" d="M82.69,4.19A52.33,52.33,0,1,0,135,56.52,52.32,52.32,0,0,0,82.69,4.19Zm0,70.92a18.59,18.59,0,1,1,18.59-18.59A18.58,18.58,0,0,1,82.7,75.11Z"/><path class="cls-3" d="M111.9,78A33.17,33.17,0,0,1,66.59,65.81l0-.09A18.49,18.49,0,0,1,81.19,38a33.15,33.15,0,1,0,34.39,37.47A35.32,35.32,0,0,1,111.9,78Z"/><path class="cls-4" d="M124,32.64A33.19,33.19,0,0,0,82.68,18.56a34.5,34.5,0,0,1,4,1.94A33.16,33.16,0,0,1,98.78,65.81a12.2,12.2,0,0,1-1.63,2.27,18.42,18.42,0,0,1-30.74-2.71,4.48,4.48,0,0,0,.18.44A33.17,33.17,0,1,0,124,32.64Z"/></svg>