<svg xmlns="http://www.w3.org/2000/svg" role="img" viewBox="0.01 -0.49 233.74 74.24"><style>svg {enable-background:new 0 0 232.4 70.6}</style><style>.st0{fill:#262b3e}.st2{fill:#f26d00}.st9{fill:#639}</style><path fill="none" stroke="#262b3e" stroke-miterlimit="10" stroke-width=".25" d="M126.6 47.2h102.7"/><path d="M169.7 54.5L175 67h-1.4l-4-9.5-4 9.5h-1.4l5.5-12.5z" class="st9"/><path d="M178.5 61.1l-.8-1.2 2.4-3.7h1.4l-3 4.9zm-.3.5V67h-1.3v-5.4l-4.4-7.1h1.5l4.2 7.1z" class="st9"/><path d="M185.5 54.5l5.3 12.5h-1.4l-4-9.5-4 9.5H180l5.5-12.5z" class="st9"/><path d="M181.1 54.5l-.8 1.3h1.6l.7-1.3z" class="st9"/><path d="M164 60.5l-.3-1.5c-.4-1.2-1.1-2.2-2-3.1-.6-.5-1.2-1-1.9-1.3h-.2c-.3.1-.5.2-.8.4-.5.3-1 .5-1.5.9s-1.1.8-1.6 1.2c-.1.1-.3.2-.4.3-.1.1-.2.1-.3 0-.2-.2-.4-.3-.6-.4-1-.8-2-1.4-3.1-2-.2-.1-.5-.2-.7-.3h-.3s-.1 0-.1.1c-.3.2-.6.3-.8.5-.5.3-.9.7-1.3 1.1-.5.5-.9 1.1-1.2 1.7-.5 1.1-.8 2.2-.8 3.4 0 .4 0 .7.1 1.1 0 .3.1.7.1 1 .1.7.4 1.3.7 1.9.3.5.6 1 .9 1.6h2.3c0-.1-.1-.3-.1-.4-.3-.8-.5-1.5-.7-2.3-.1-.4-.2-.9-.3-1.4 0-.3-.1-.6-.1-.8v-.5c0-.3 0-.6.1-.8 0-.3.1-.6.2-.9.1-.5.4-.9.7-1.2.4-.4.9-.6 1.4-.6.4 0 .8.1 1.1.3.2.2.4.4.6.7.2.4.3.8.4 1.2.1.6.2 1.1.2 1.7v2.5c0 .4 0 1.9-.1 2.3 0 .1 0 .1.1.1h3.1c0-.2 0-1.6-.1-1.8 0-.4-.1-.9-.1-1.3v-1.7c0-.5.1-1.1.2-1.6.1-.4.2-.8.3-1.1.1-.3.3-.7.6-.9.3-.3.7-.4 1.1-.4.2 0 .4 0 .6.1.5.2.9.4 1.2.9.3.4.5.9.5 1.4.1.4.1.8.1 1.1v.5c0 .4-.1.7-.1 1.1-.1.7-.3 1.4-.5 2-.2.6-.4 1.3-.7 1.9h2.3c.3-.5.6-.9.8-1.4.4-.6.7-1.3.8-2.1.1-.6.2-1.1.2-1.7.1-.5.1-1 0-1.5z" class="st9"/><path d="M192.7 54.6h4.3c.3 0 .6.1.9.1.7.1 1.3.4 1.9.7.6.3 1.1.7 1.5 1.3.4.5.8 1.1 1 1.8.3.7.4 1.4.4 2.2 0 .8-.1 1.5-.3 2.1-.2.6-.5 1.2-.9 1.7s-.9 1-1.4 1.3c-.6.4-1.1.6-1.8.8-.3.1-.6.1-.9.2h-4.6V54.6zm3.4 11.2h1c.3 0 .6-.1.8-.1.5-.1 1-.3 1.4-.7.4-.3.8-.7 1.1-1.1.3-.4.5-.9.7-1.4.2-.5.3-1.1.3-1.7 0-.7-.1-1.3-.3-1.8-.2-.5-.4-1-.8-1.5-.3-.4-.7-.8-1.2-1-.5-.3-1-.5-1.5-.6-.2-.1-.5-.1-.8-.1H194v10.1h2.1zM208 54l5.5 12.8h-1.4l-4.1-9.7-4.1 9.7h-1.4L208 54zm7.1 1.7h-3.3v-1.1h7.8v1.1h-3.2v11.1h-1.3V55.7zm8.7-1.7l5.5 12.8h-1.4l-4.1-9.7-4.1 9.7h-1.4l5.5-12.8z" class="st0"/><g><path d="M132.9 63.7c.3.3.4.7.4 1.2 0 .7-.3 1.2-.8 1.6-.5.4-1.3.6-2.3.6h-3.9v-7.8h3.7c.9 0 1.6.2 2.1.5s.7.9.7 1.5c0 .4-.1.7-.3 1s-.4.5-.7.7c.5.1.9.4 1.1.7zm-5.1-3.3v2.2h2c.5 0 .9-.1 1.2-.3.3-.2.4-.4.4-.8s-.1-.6-.4-.8c-.3-.2-.7-.3-1.2-.3h-2zm4 4.4c0-.8-.6-1.1-1.7-1.1h-2.3v2.2h2.3c1.2 0 1.7-.4 1.7-1.1zm8.5-3.7l-2.8 6.4c-.3.6-.6 1.1-.9 1.4-.4.3-.8.4-1.3.4-.3 0-.6 0-.9-.1-.3-.1-.5-.2-.7-.4l.6-1c.1.1.3.2.5.3.2.1.4.1.6.1.2 0 .4-.1.6-.2.2-.1.3-.3.4-.6l.1-.2-2.6-6h1.4l1.9 4.4 1.9-4.4h1.2z" class="st0"/></g><g><path d="M21.1 4.6c0-.3-.2-.6-.6-.6H12s-7.5-.3-7.4 7.3V31s.1 6.7 7.6 6.6h8.4c.3 0 .5-.3.5-.6v-3.2c0-.3-.2-.5-.6-.5h-7.7s-3.7.3-3.7-3.8V12.9s-.5-4.6 4.7-4.6h6.7c.3 0 .6-.2.6-.5V4.6zm1.6 0c0-.3.2-.6.6-.6h8.5s7.5-.3 7.4 7.3v20.2s-.1 6.1-7.6 6.1h-8.3c-.3 0-.6-.2-.6-.5v-3.2c0-.3.2-.5.6-.5H31s3.7.3 3.7-3.8V12.9s.5-4.6-4.7-4.6h-6.7c-.3 0-.6-.2-.6-.5V4.6zm29 28.7h7.5s3.7.3 3.7-3.5v-9.6s.1-3-3.9-3H47c-.3 0-.6.3-.6.6v28.8c0 .3-.2.6-.6.6h-3.3c-.3 0-.6-.2-.6-.6V13.5c0-.3.2-.6.6-.6h17.9s6.7.3 6.7 6.7v12.1s0 5.9-5.8 5.9H48.5c-.3 0-.6-.2-.6-.5v-3.2c0-.3.3-.5.6-.5h3.2zm24.7-10.1h13.9c.4 0 .6-.3.6-.6v-2.4s0-3-3.4-3h-9.9s-3.2-.4-3.2 4v8.1s-.2 4.1 3.6 4.1h14.4c.3 0 .6.2.6.5v3.2c0 .3-.2.6-.6.6H75.2s-5.2.2-5.2-5.8V19.2s.2-6.3 6.6-6.3h11.7s6.8-.2 6.8 6.2V27c0 .3-.2.6-.6.6H76.4c-.3 0-.6-.2-.6-.6v-3.1c0-.5.3-.7.6-.7zm22.1 14.4h3.2c.3 0 .6-.2.6-.6V20.7s-.1-3.5 3.9-3.5h9.4s3.6-.3 3.6 3.7v16.2c0 .3.2.6.6.6h3.2c.3 0 .6-.2.6-.6v-18s-.4-6.1-6.7-6.1h-12.3s-6.6-.1-6.6 7.1v17c0 .3.2.5.5.5zm54.9-15.3h-20.8c-.2 0-.3-.1-.3-.3v-3.4c0-.2.1-.3.3-.3h20.8c.2 0 .3.1.3.3V22c0 .1-.1.3-.3.3z" class="st2"/><path d="M158.3 7.8c0 .3-.2.6-.6.6h-22.6s-4.4-.6-4.4 4.9v16.1s-.4 4.5 5.6 4.1h21.3c.3 0 .6.3.6.6v3.2c0 .3-.2.6-.6.6h-24s-7.5.4-7.5-7.1V11.3s-.2-7 8.1-7h23.4c.3 0 .6.2.6.6v2.9zm70.7 0c0 .3-.2.6-.6.6h-23.1s-3.7-.3-3.7 3.9v2.6s-.1 3.4 3.7 3.4h16.9s6.6-.1 6.6 6.1v6.9s-.2 6.3-6.5 6.3h-24.7c-.3 0-.6-.2-.6-.6v-3.2c0-.3.2-.6.6-.6h22.9s3.8.7 3.8-4.3v-2.7s.6-4-4.4-4h-16.4s-6.5.3-6.5-5.9v-5.9s-.8-6.4 6.6-6.4h24.7c.3 0 .6.2.6.6l.1 3.2zm-67.9-3.7h26.1s6.4.1 6.4 6.1l-.1 6.1s.3 3.1-3.1 3.9c0 0 3.1.2 3.1 3.9v7.3s.2 6.1-6.4 6.1l-19.4.1c-.3 0-.6-.2-.6-.6v-3.2c0-.3.2-.6.6-.6H186s2.9 0 2.9-3.1v-5.4s.1-2.6-3-2.6h-18.2c-.3 0-.6-.2-.6-.6v-2.9c0-.3.2-.6.6-.6H186s2.9-.4 2.9-2.6v-4.7s-.3-2.6-3-2.6h-20.3v-4h21.5" class="st2"/><path d="M165.3 37.6h-3.9c-.2 0-.3-.1-.3-.3V4.1h4.5v33.3c0 .1-.1.2-.3.2z" class="st2"/></g></svg>