<svg xmlns="http://www.w3.org/2000/svg" role="img" viewBox="-7.48 -14.48 1012.96 750.96"><title>OpenTracing logo</title><style>svg {enable-background:new 0 0 1000 723}</style><style>.st0{fill:#0979b9}.st1{fill:#2592c0}</style><path d="M697.5 274.7l-98.3 167.7H401.3l-98.8-169.7 65.7-122h-98.9l-66 122.8 148.5 256.4h297l147.9-255.2z" class="st0"/><path d="M648.8 4.9H347.5L301 92.4h151.6V384h87.5V92.4h59.1L666 216.3h98.7z" class="st1"/><g><g><path d="M12.3 671.6v-.3c0-24.6 18.5-46.2 45.7-46.2s45.4 21.3 45.4 45.9v.3c0 24.6-18.5 46.2-45.7 46.2-27.1 0-45.4-21.3-45.4-45.9zm80.7 0v-.3c0-20.3-14.8-36.9-35.2-36.9s-35 16.3-35 36.6v.3c0 20.3 14.8 36.9 35.2 36.9s35-16.3 35-36.6zm31.7-44.9h33.4c20.2 0 33.4 10.7 33.4 28.3v.3c0 19.3-16.1 29.2-35.1 29.2h-21.7V716h-10.1l.1-89.3zm32.2 48.6c14.8 0 24.5-7.9 24.5-19.6v-.3c0-12.8-9.6-19.4-24-19.4h-22.6v39.3h22.1zm53.1-48.6h64.6v9.2h-54.5v30.5h48.7v9.2h-48.7v31.3h55.1v9.2H210v-89.4zm85.5 0h9.4l56.3 71.6v-71.6h9.8V716h-8l-57.7-73.2V716h-9.8v-89.3z" class="st0"/></g></g><g><g><path d="M429.9 636h-30v-9.3h70.2v9.3h-30v80h-10.2v-80zm59.1-9.3h38.4c11 0 19.8 3.3 25.4 8.9 4.3 4.3 6.9 10.6 6.9 17.6v.3c0 14.8-10.2 23.5-24.2 26l27.4 36.5h-12.4l-25.9-34.7h-25.5V716H489v-89.3zm37.5 45.5c13.4 0 23-6.9 23-18.4v-.3c0-11-8.4-17.6-22.8-17.6h-27.6v36.2h27.4zm87.8-46.2h9.4l40.7 90h-10.8l-10.5-23.6h-48.6L584 716h-10.3l40.6-90zm24.9 57.2l-20.3-45.4-20.4 45.4h40.7zm33.7-11.6v-.3c0-25.3 18.9-46.2 45.2-46.2 16.2 0 25.9 5.7 34.8 14.2l-6.9 7.4c-7.5-7.1-15.9-12.2-28.1-12.2-19.8 0-34.6 16.1-34.6 36.6v.3c0 20.7 14.9 36.9 34.6 36.9 12.2 0 20.3-4.7 28.8-12.9l6.6 6.5c-9.3 9.4-19.5 15.7-35.7 15.7-25.7-.1-44.7-20.4-44.7-46zm99-44.9H782V716h-10.1v-89.3zm36.2 0h9.4l56.3 71.6v-71.6h9.8V716h-8L818 642.7V716h-9.8v-89.3zm96.9 44.9v-.3c0-24.5 18-46.2 44.8-46.2 15.1 0 24.4 4.3 33.3 11.9l-6.5 7.7c-6.9-6-14.5-10.2-27.2-10.2-19.8 0-33.9 16.7-33.9 36.6v.3c0 21.3 13.7 37.1 35.3 37.1 10.2 0 19.6-4 25.8-8.9v-22.2h-27.2v-9.1h36.9v35.6c-8.3 7.4-20.8 13.7-35.9 13.7-28.1-.1-45.4-20.5-45.4-46z" class="st1"/></g></g></svg>