<?xml version="1.0" encoding="UTF-8"?>
<svg id="_图层_2" data-name="图层 2" xmlns="http://www.w3.org/2000/svg" viewBox="0 0 34.59 36">
  <defs>
    <style>
      .cls-1 {
        fill: #36569b;
      }

      .cls-2 {
        fill: #1b3882;
      }

      .cls-3 {
        fill: #5878b4;
      }
    </style>
  </defs>
  <g id="_图层_1-2" data-name="图层 1">
    <g>
      <g id="_3" data-name="3">
        <path class="cls-3" d="m16.53,22.65l-6.37,3.07,5.27-.16,1.1-2.91Zm-4.19,10.95l1.12-2.91-5.27.17,4.15,2.74Zm9.3-.29l6.37-3.07-5.27.16-1.1,2.91Zm4.19-10.95l-1.12,2.91,5.27-.17-4.15-2.74Zm5.72,3.81l-7.08.23-1.73-1.14,1.5-3.95-2.06-1.36-3.16,1.53-1.48,3.89-2.67,1.29-7.14.23-3.16,1.53,2.07,1.36,7.13-.23h0s1.69,1.11,1.69,1.11l-1.51,3.98,2.06,1.36,3.16-1.53,1.5-3.95h0s2.56-1.24,2.56-1.24h0s7.23-.24,7.23-.24l3.16-1.53-2.06-1.36Zm-11.29,2.56c-.99.48-2.31.52-2.96.1-.65-.42-.37-1.15.62-1.63.99-.48,2.31-.52,2.96-.1.65.42.37,1.15-.62,1.63Z"/>
      </g>
      <g id="_2" data-name="2">
        <path class="cls-1" d="m33.5,19.84l-1.26-6.51-1.46,1.88,2.72,4.63Zm-6.05-14.69l-4.16-2.74,2.71,4.64,1.45-1.89Zm-6.73.58l1.26,6.51,1.46-1.88-2.72-4.63Zm6.05,14.69l4.16,2.74-2.71-4.64-1.45,1.89Zm7.19,1.91l-3.63-6.2h0s-.53-2.74-.53-2.74l1.96-2.56-.63-3.23-2.07-1.36-1.96,2.56-1.69-1.11-3.71-6.33-2.07-1.36.63,3.23,3.68,6.28h0s.51,2.62.51,2.62h0s-1.99,2.6-1.99,2.6l.63,3.23,2.06,1.36,1.95-2.54,1.73,1.14,3.69,6.29,2.07,1.36-.63-3.23Zm-6.47-7.7c-.65-.42-1.33-1.59-1.52-2.6-.2-1.01.17-1.49.81-1.06.65.42,1.33,1.59,1.52,2.6.2,1.01-.17,1.49-.81,1.06Z"/>
      </g>
      <g id="_1" data-name="1">
        <path class="cls-2" d="m11.96,2.82l-6.37,3.07,3.81,1.74,2.55-4.81ZM1.07,14.37l1.26,6.53,2.56-4.8-3.82-1.73Zm7.99,9.59l6.37-3.07-3.81-1.74-2.55,4.81Zm10.89-11.55l-1.26-6.53-2.56,4.8,3.82,1.73Zm.45,2.53l-5.13-2.32h0s-.53-2.71-.53-2.71l3.47-6.53-.63-3.24-3.16,1.53-3.42,6.43-2.67,1.29h0s-5.17-2.34-5.17-2.34l-3.16,1.53.63,3.24,5.17,2.33.51,2.65h0s-3.49,6.57-3.49,6.57l.63,3.24,3.16-1.53,3.46-6.52,2.56-1.24h0s5.24,2.37,5.24,2.37l3.16-1.53-.63-3.24Zm-9.52.24c-.99.48-1.95.04-2.14-.97-.2-1.01.44-2.22,1.43-2.69.99-.48,1.95-.04,2.14.97.2,1.01-.44,2.22-1.43,2.7Z"/>
      </g>
    </g>
  </g>
</svg>
