<svg width="4113" height="846" viewBox="0 0 4113 846" fill="none" xmlns="http://www.w3.org/2000/svg">
<g clip-path="url(#clip0_29_27)">
<path d="M1548.22 488.523C1546.88 605.76 1475 722.931 1315.68 722.931C1156.37 722.931 1082.48 608.308 1082.48 489.126C1082.48 369.945 1158.92 250.16 1315.68 250.16C1472.45 250.16 1549.56 369.945 1548.22 488.456M1166.69 490.4C1168.64 564.871 1208.8 644.571 1315.68 644.571C1422.56 644.571 1462.73 564.268 1464 489.796C1465.34 413.381 1422.56 327.916 1315.68 327.916C1208.8 327.916 1164.75 414.051 1166.69 490.467" fill="#023927"/>
<path d="M1605.08 846V393.339H1678.9L1684.06 437.378C1708.67 401.785 1751.45 386.233 1787.72 386.233C1886.22 386.233 1951.6 459.364 1951.6 553.275C1951.6 647.186 1892.66 720.317 1790.27 720.317C1756.61 720.317 1706.73 709.927 1684.06 675.004V846H1605.01H1605.08ZM1872.61 553.275C1872.61 503.404 1838.95 462.582 1781.89 462.582C1724.83 462.582 1691.24 503.404 1691.24 553.275C1691.24 603.146 1728.18 643.968 1781.89 643.968C1835.6 643.968 1872.61 603.146 1872.61 553.275Z" fill="#023927"/>
<path d="M2077.32 581.093C2082.48 620.574 2116.81 649.062 2172.53 649.062C2201.7 649.062 2239.92 638.069 2258.02 619.301L2308.58 669.172C2274.92 704.162 2219.8 720.987 2171.26 720.987C2061.16 720.987 1995.72 653.017 1995.72 550.661C1995.72 448.304 2061.83 383.619 2165.43 383.619C2269.02 383.619 2339.02 449.645 2326.75 581.16H2077.39L2077.32 581.093ZM2250.92 515.67C2245.75 474.245 2213.37 453.533 2167.97 453.533C2125.19 453.533 2090.26 474.245 2078.59 515.67H2250.92Z" fill="#023927"/>
<path d="M2622.65 712.608V545.566C2622.65 496.969 2596.1 460.102 2545.54 460.102C2494.98 460.102 2463.94 500.857 2463.94 549.454V712.675H2385.55V392.668H2456.16L2461.32 436.038C2493.71 404.332 2526.09 388.11 2566.26 388.11C2641.42 388.11 2701.64 444.484 2701.64 544.829V712.541H2622.58L2622.65 712.608Z" fill="#023927"/>
<path d="M3175.15 655.564C3128.48 701.548 3068.27 722.931 3002.83 722.931C2834.4 722.931 2763.12 607.034 2762.52 489.193C2761.85 370.682 2838.96 250.227 3002.83 250.227C3064.38 250.227 3122.72 273.554 3169.32 319.537L3112.33 374.57C3082.55 345.411 3042.39 331.804 3002.83 331.804C2893.34 331.804 2846.06 413.381 2846.73 489.193C2847.41 564.335 2890.79 642.694 3002.83 642.694C3042.32 642.694 3087.05 626.54 3116.82 596.711L3175.15 655.631V655.564Z" fill="#023927"/>
<path d="M3528.11 553.275C3528.11 645.242 3465.28 719.714 3361.62 719.714C3257.96 719.714 3195.8 645.242 3195.8 553.275C3195.8 461.309 3259.3 386.837 3360.95 386.837C3462.6 386.837 3528.11 461.979 3528.11 553.275ZM3274.86 553.275C3274.86 601.873 3304.02 647.186 3361.62 647.186C3419.22 647.186 3448.45 601.873 3448.45 553.275C3448.45 504.678 3414.79 458.694 3361.62 458.694C3304.63 458.694 3274.86 505.348 3274.86 553.275Z" fill="#023927"/>
<path d="M3791.09 478.133C3768.42 456.75 3742.47 449.645 3712.03 449.645C3674.42 449.645 3653.7 461.308 3653.7 481.351C3653.7 501.393 3672.47 513.727 3713.31 516.341C3773.52 520.229 3849.96 533.836 3849.96 618.697C3849.96 675.004 3803.96 723.601 3712.64 723.601C3662.08 723.601 3611.59 715.155 3564.92 666.625L3603.81 610.252C3626.47 635.522 3678.31 654.291 3713.91 654.961C3743.68 655.632 3771.57 640.08 3771.57 616.754C3771.57 594.767 3753.4 585.651 3708.08 583.104C3647.86 578.546 3575.92 556.56 3575.92 484.032C3575.92 411.504 3652.36 384.29 3710.69 384.29C3760.58 384.29 3798.13 394.009 3835.07 426.385L3791.02 478.2L3791.09 478.133Z" fill="#023927"/>
<path d="M4011.95 303.316V394.009H4100.06V461.979H4011.28V599.929C4011.28 630.361 4028.18 645.242 4052.72 645.242C4065.06 645.242 4079.27 641.354 4090.94 635.522L4113 702.889C4090.34 711.938 4071.56 715.826 4047.56 716.496C3978.23 719.11 3932.9 679.562 3932.9 599.929V461.979H3873.29V394.009H3932.9V311.762L4011.95 303.316V303.316Z" fill="#023927"/>
<g opacity="0.4">
<path d="M54.5127 579.082C54.5127 579.082 147.982 441.869 318.494 483.898C489.006 525.926 487.665 360.091 659.45 333.346C831.236 306.667 894.13 393.138 894.13 393.138L904.926 504.61L857.587 625.803L768.744 689.683L728.916 722.059L705.649 793.448L633.435 798.408L596.892 792.576L590.253 735.332L553.71 712.474L479.686 725.344L451.591 760.2L433.353 798.408H343.705L328.753 731.98L272.966 707.715L175.943 652.28L135.243 619.904L92.9331 624.864L58.871 619.033L54.5127 578.948V579.082Z" fill="#416A5D"/>
</g>
<path d="M315.745 808.06H285.371C253.856 808.06 227.438 784.465 223.952 753.095L219.928 716.697C218.789 706.441 226.164 697.191 236.423 696.051C246.682 694.845 255.935 702.285 257.075 712.541L261.098 748.939C262.506 761.34 272.899 770.657 285.371 770.657H315.745C326.071 770.657 334.452 779.036 334.452 789.292C334.452 799.547 326.071 807.993 315.745 807.993" fill="#023927"/>
<path d="M574.832 808.06H548.346C521.191 808.06 497.521 790.699 489.408 764.825L480.624 736.873C477.54 727.02 483.038 716.563 492.828 713.479C502.684 710.396 513.144 715.825 516.229 725.679L525.012 753.631C528.231 763.887 537.618 770.724 548.346 770.724H574.832C585.158 770.724 593.539 779.103 593.539 789.359C593.539 799.614 585.158 808.06 574.832 808.06Z" fill="#023927"/>
<path d="M521.861 60.5959C521.861 64.8859 524.275 68.0364 528.968 70.0473V52.8203C524.208 53.6917 521.861 56.3059 521.861 60.5959Z" fill="#63E892"/>
<path d="M532.321 0C488 0 452.061 35.9287 452.061 80.2363C452.061 124.544 488 160.473 532.321 160.473C576.642 160.473 612.582 124.544 612.582 80.2363C612.582 35.9287 576.642 0 532.321 0Z" fill="#023927"/>
<g opacity="0.3">
<path d="M110.366 625.066C110.366 625.066 62.8941 353.589 408.142 330.933C753.389 308.276 631.892 137.548 772.432 223.281C912.972 309.014 866.706 374.369 866.706 374.369L878.709 538.73L791.274 669.909L712.689 721.322L705.716 793.515L638.195 794.99L587.504 783.862L567.59 721.322L508.317 715.558L457.961 735.667L426.38 794.855L379.645 814.227L307.699 799.011C307.699 799.011 311.856 744.582 311.856 739.488C311.856 734.393 258.014 715.893 258.014 715.893L248.895 690.019L136.919 637.064L110.366 624.865V625.066Z" fill="#7F9C93"/>
</g>
<path d="M675.811 821.333H601.317C582.274 821.333 566.048 807.725 562.695 789.024L555.923 751.352C554.917 745.721 550.023 741.633 544.256 741.633H471.908C466.611 741.633 461.917 745.252 460.509 750.347L449.11 792.308C444.484 809.401 428.928 821.266 411.226 821.266H342.297C323.925 821.266 307.766 808.195 303.944 790.163L293.35 740.493C258.416 732.986 161.46 707.179 118.748 645.108C115.194 639.879 108.623 637.6 102.522 639.41L82.6743 645.309C71.6108 648.593 59.6757 646.985 49.8191 640.885C40.0296 634.852 33.1904 624.864 31.1788 613.469L0.670425 442.003C-1.54227 429.536 2.01145 417.068 10.527 407.683C19.0425 398.299 31.1118 393.406 43.7845 394.478L50.959 395.015C57.9323 395.484 64.3022 391.194 66.1796 384.692C78.8524 340.585 113.384 260.416 203.903 204.378C191.432 196.267 174.669 191.039 153.816 188.827L139.132 187.285L135.108 157.657L149.256 152.295L321.511 88.4141C334.385 83.5879 348.6 84.7945 360.535 91.6987C372.336 98.5358 380.382 110.199 382.662 123.673C388.563 158.998 399.962 183.33 413.238 189.028C464.934 203.976 608.156 229.783 664.01 174.348C680.035 158.462 705.783 156.049 725.228 168.583C779.942 204.11 906.87 305.863 904.121 484.233C903.92 491.472 897.014 653.084 734.682 723.601L713.427 793.582C708.398 810.205 693.311 821.4 675.878 821.4M472.042 704.363H544.39C568.261 704.363 588.577 721.389 592.801 744.85L599.574 782.522C599.708 783.393 600.512 784.063 601.451 784.063H675.945C676.817 784.063 677.487 783.527 677.755 782.723L704.174 695.783L712.488 692.432C859.8 633.243 866.639 489.461 866.84 483.362C869.254 324.029 754.462 232.062 704.978 199.954C700.218 196.871 694.116 197.273 690.495 200.892C607.15 283.542 410.354 227.102 402.04 224.621L400.565 224.152C372.94 213.561 354.568 181.789 345.918 129.772C345.382 126.488 343.169 124.745 341.895 124.008C340.621 123.27 337.939 122.198 334.653 123.404L215.168 167.712C229.785 175.354 241.586 185.408 250.437 197.943C275.849 233.805 266.328 275.632 265.926 277.375C263.512 287.43 253.454 293.596 243.464 291.25C233.473 288.904 227.237 278.917 229.584 268.862C229.718 268.326 233.205 251.568 227.237 233.939C144.697 283.542 113.518 355.6 102.186 395.015C95.4141 418.475 72.7507 434.228 48.1428 432.217L40.9683 431.681C39.7614 431.614 38.8227 432.217 38.2863 432.753C37.8169 433.289 37.2805 434.161 37.4816 435.501L68.0571 607.101C68.2582 608.241 68.9958 608.911 69.5322 609.246C70.0686 609.581 71.0073 609.916 72.1472 609.581L91.9944 603.683C113.652 597.248 136.785 605.425 149.592 623.993C192.169 685.93 310.917 705.972 312.124 706.173L324.73 708.251L340.487 782.455C340.688 783.326 341.426 783.929 342.297 783.929H411.226C412.098 783.929 412.835 783.326 413.037 782.522L424.435 740.56C430.202 719.177 449.714 704.229 471.908 704.229" fill="#023927"/>
<path d="M238.502 382.279C238.502 402.254 222.342 418.408 202.361 418.408C182.38 418.408 166.22 402.254 166.22 382.279C166.22 362.303 182.38 346.149 202.361 346.149C222.342 346.149 238.502 362.303 238.502 382.279Z" fill="#023927"/>
</g>
<defs>
<clipPath id="clip0_29_27">
<rect width="4113" height="846" fill="white"/>
</clipPath>
</defs>
</svg>
