<?xml version="1.0" encoding="UTF-8"?><svg id="a" xmlns="http://www.w3.org/2000/svg" viewBox="0 0 209.76378 68.89398"><defs><style>.b{fill:none;}.c{fill:#0c2f4e;}.d{fill:#537893;}</style></defs><g><path class="b" d="M48.27757,34.00113c-.56751-.43626-1.22843-.66084-1.93356-.73166-1.52808-.15337-3.06205-.06311-4.59343-.08396-.34742-.00472-.36921,.0277-.37079,.38668-.00433,1.00416-.0015,2.00832-.0015,3.01248h.0011c0,.98716-.00071,1.97425,.00031,2.96141,.00047,.4634,.00189,.47269,.43531,.47371,1.27698,.00299,2.55403-.00787,3.83109-.0011,.51786,.00275,1.01982-.08931,1.50502-.24488,1.05436-.33805,1.81813-1.00219,2.1125-2.09771,.15478-.57617,.15195-1.17271,.07995-1.77233-.09474-.78918-.4431-1.42373-1.06601-1.90264Z"/><path class="b" d="M20.44477,33.02876c-3.41293-.02298-6.39582,2.82158-6.31351,6.27488-.11599,3.27751,2.72447,6.35317,6.25961,6.35829,3.37862,.00488,6.21035-2.82229,6.20783-6.34995-.0026-3.63641-2.98604-6.26189-6.15393-6.28322Z"/><path class="b" d="M138.07128,35.96003c-.09104-.81342-.42941-1.49629-1.10181-1.99164-.59293-.43689-1.2673-.64541-1.99266-.70868-1.59795-.13928-3.19952-.04446-4.79921-.06917-.35961-.00551-.36363,.00842-.36433,.37566-.00212,1.00424-.00079,2.00848-.00079,3.01271h-.0026c0,1.02124-.00031,2.04239,.00016,3.06363,.00024,.35717,.00976,.38117,.3678,.37984,1.5324-.00582,3.06536,.03966,4.59705-.02707,.63778-.02778,1.24149-.21309,1.80003-.51746,.68751-.37448,1.14974-.94066,1.37699-1.69797,.17988-.59946,.18783-1.20789,.11937-1.81986Z"/><path class="d" d="M21.39786,29.89667c-1.0461-.10277-2.10385-.06043-3.15538,.15628-1.76281,.36331-3.34573,1.086-4.6678,2.29388-2.33291,2.13155-3.32456,4.80621-3.02814,7.94932,.27486,2.91341,1.67491,5.17487,4.05716,6.8353,1.36723,.95301,2.89814,1.46709,4.55763,1.67082,1.95898,.24048,3.81039-.11386,5.58485-.89761,1.44459-.63802,2.62595-1.64005,3.59101-2.88894,.92917-1.20246,1.45686-2.58197,1.75242-4.05921,.10765-.53816,.09419-1.08545,.11371-1.63037-.02219-.66375-.04729-1.3223-.18272-1.98078-.83915-4.08085-4.25255-7.01944-8.62274-7.44869Zm-1.00699,15.76525c-3.53514-.00511-6.3756-3.08078-6.25961-6.35829-.08231-3.4533,2.90058-6.29785,6.31351-6.27488,3.16789,.02132,6.15133,2.64681,6.15393,6.28322,.00252,3.52766-2.82921,6.35483-6.20783,6.34995Z"/><path class="d" d="M70.90456,38.98109c-.88738-.48591-1.83898-.80799-2.79726-1.11118-.94121-.29776-1.89634-.55287-2.80537-.94546-.47387-.20459-.88872-.49102-1.26824-.84521-.56735-.5295-.59214-1.19545-.39502-1.83969,.1924-.62849,.76109-.92358,1.3851-1.06357,1.12581-.25259,2.22967-.11859,3.32952,.18303,1.1255,.30862,2.193,.74669,3.19071,1.34921,.1828,.1104,.29351,.14085,.39534-.08137,.3973-.867,.80138-1.73094,1.20309-2.59597,.09797-.21105,.031-.34561-.17288-.45443-.34718-.18531-.69459-.38062-1.04594-.5465-1.68152-.79398-3.45464-1.23543-5.16984-1.22701-1.7296-.0122-3.22644,.26361-4.61035,1.07105-.89179,.52022-1.61794,1.18932-2.05042,2.12092-.44656,.9619-.54398,1.98393-.394,3.0427,.17532,1.23779,.80484,2.17081,1.77674,2.91467,.72638,.55602,1.56608,.87448,2.4157,1.16201,1.08615,.36756,2.19104,.67933,3.27861,1.04295,.67539,.22576,1.34032,.49079,1.85566,1.01769,.73103,.74732,.72103,1.93711-.04375,2.64885-.50535,.47025-1.14076,.64179-1.81317,.71545-1.33237,.14597-2.60195-.14377-3.85863-.53375-.0635-.01967-.13763-.03887-.18138-.08333-.38826-.39431-.95616-.45199-1.40115-.77084-.47474-.34018-.95986-.66477-1.39446-1.05594-.26581-.2393-.34364-.23481-.50873,.09112-.40675,.80303-.75684,1.63533-1.21977,2.40877-.11394,.19035-.02392,.2725,.089,.38542,.3877,.38763,.84466,.68287,1.30586,.96891,1.27784,.79225,2.64279,1.38541,4.12869,1.64343,1.93191,.33538,3.8532,.34136,5.71571-.3877,1.8884-.73921,3.18615-2.00163,3.53207-4.07573,.37928-2.27421-.56586-4.10501-2.47141-5.14851Z"/><path class="d" d="M49.40165,30.84331c-1.11535-.52053-2.3071-.72686-3.52373-.73937-2.54058-.02612-5.08155-.01464-7.62228-.01605-.39675-.00024-.39825,.00582-.40879,.39353-.00464,.17028-.00212,.34081-.00212,.51133-.00016,2.7783-.00008,5.5566-.00008,8.33489h.00165c0,2.93174-.00039,5.86341,.00031,8.79515,.00016,.46207,.00244,.47269,.43334,.47599,.90375,.00692,1.80758,.00637,2.71125-.00118,.39534-.0033,.39101-.01456,.3903-.40258-.00275-1.53398-.00354-3.06803-.00307-4.60201,.00016-.41713,.00338-.41769,.41957-.41769,1.24479,.00008,2.48974,.01133,3.73446-.0022,1.06129-.01157,2.10731-.15974,3.11336-.50629,1.68144-.57931,2.9293-1.64643,3.59667-3.32181,.59741-1.49967,.66516-3.04372,.32499-4.61334-.39707-1.83198-1.48503-3.10384-3.16585-3.88837Zm-.13802,6.83279c-.29438,1.09552-1.05814,1.75966-2.1125,2.09771-.4852,.15557-.98716,.24764-1.50502,.24488-1.27706-.00677-2.55411,.00409-3.83109,.0011-.43342-.00102-.43484-.01031-.43531-.47371-.00102-.98716-.00031-1.97425-.00031-2.96141h-.0011c0-1.00416-.00283-2.00832,.0015-3.01248,.00157-.35898,.02337-.3914,.37079-.38668,1.53138,.02085,3.06536-.0694,4.59343,.08396,.70514,.07082,1.36605,.2954,1.93356,.73166,.62291,.47891,.97127,1.11346,1.06601,1.90264,.072,.59962,.07483,1.19616-.07995,1.77233Z"/><path class="d" d="M163.11161,43.8903c.10119-.4398,.10859-.8792-.00614-1.31813-.06948,.43972-.07546,.87912,.00614,1.31813Z"/><path class="d" d="M152.80727,48.31778c-.15636-.11418-.32821-.16399-.5214-.12457,.16627,.07302,.33089,.15313,.5214,.12457Z"/><path class="d" d="M163.05165,42.27433c.03486-.07775,.02093-.1492-.02778-.21616-.08105,.08365-.0506,.15297,.02778,.21616Z"/><path class="d" d="M162.53639,40.79748c.00842-.08436-.02723-.14148-.10662-.17162-.01007,.08546,.02888,.14054,.10662,.17162Z"/><path class="d" d="M162.74815,41.22044c-.02376,.09199,.01802,.15675,.08782,.20979,.01755-.08947,.00071-.16462-.08782-.20979Z"/><path class="d" d="M162.93865,41.73609c.02203-.05477,.00999-.09828-.04249-.12858-.03108,.05776-.01015,.09844,.04249,.12858Z"/><path class="d" d="M163.08604,44.18287c.0011-.03069-.0074-.06185-.01212-.09278-.04879,.03533-.05367,.07853-.02266,.12803,.0122-.01172,.03423-.02306,.03478-.03525Z"/></g><g><path class="b" d="M138.07127,35.96003c-.09104-.81342-.4294-1.49628-1.1018-1.99164-.59292-.43687-1.2673-.6454-1.99267-.70868-1.59795-.13928-3.19952-.04446-4.79921-.06917-.35961-.0055-.36363,.00842-.36432,.37566-.00214,1.00424-.0008,2.00849-.0008,3.01273h-.00259c0,1.02123-.00031,2.04239,.00016,3.06362,.00024,.35718,.00975,.38118,.36779,.37983,1.53241-.00581,3.06535,.03967,4.59705-.02705,.63779-.02778,1.24149-.21309,1.80003-.51747,.68751-.3745,1.14973-.94066,1.37698-1.69798,.17989-.59946,.18783-1.20788,.11937-1.81985Z"/><path class="c" d="M138.05138,42.79375c-.02795-.04272-.05863-.08381-.08578-.12701-.08585-.13683-.10025-.24999,.08813-.31577,.09584-.03354,.18579-.0853,.27604-.13323,1.38973-.73803,2.33638-1.84197,2.82031-3.34934,.35135-1.0945,.38779-2.20812,.28872-3.33668-.16107-1.83591-1.01761-3.26013-2.56521-4.25719-1.31875-.84969-2.80899-1.13667-4.33966-1.1621-2.62603-.04367-5.25325-.02093-7.8799-.02612-.03407-.00007-.06846,.0015-.10229-.00164-.18769-.01755-.29414,.05036-.28046,.25549,.00575,.08492,.00245,.17044,.00245,.25567-.00009,5.86482-.00024,11.72972-.00047,17.59455-.00007,.39156-.00047,.40314,.38558,.40573,.92106,.00614,1.84221,.00464,2.76319-.00292,.38604-.00314,.39044-.01361,.39092-.40147,.00197-1.53437,.0019-3.06881,.00024-4.60319-.00047-.41706-.00416-.41587,.40485-.4158,1.33042,.00031,2.6613,.01912,3.99092-.01392,.34236-.00851,.52154,.07814,.68672,.36637,.9035,1.57663,1.83324,3.13831,2.73132,4.71792,.1488,.26188,.30823,.36465,.5978,.35977,.73323-.01251,1.46678-.0029,2.20025-.00243,.45593,.00024,.91178,0,1.38604,0,.00448-.24364-.1311-.28848-.19121-.38472-1.1473-1.83512-2.38327-3.61186-3.5685-5.42196Zm-1.47646-3.31589c-.55855,.30437-1.16225,.48968-1.80003,.51747-1.5317,.06673-3.06464,.02124-4.59705,.02705-.35804,.00135-.36755-.02265-.36779-.37983-.00047-1.02123-.00016-2.04239-.00016-3.06362h.00259c0-1.00424-.00133-2.00849,.0008-3.01273,.00069-.36724,.00471-.38116,.36432-.37566,1.59969,.02471,3.20126-.07011,4.79921,.06917,.72537,.06327,1.39974,.2718,1.99267,.70868,.6724,.49536,1.01076,1.17823,1.1018,1.99164,.06846,.61197,.06052,1.22039-.11937,1.81985-.22725,.75732-.68948,1.32348-1.37698,1.69798Z"/><path class="c" d="M118.22015,45.91632c-.00245-.40871-.00961-.40706-.4343-.40706-3.08581,.00057-6.17172,.0004-9.25753,.00033-.11937,0-.23881-.00583-.35804-.00174-.20908,.00716-.31003-.07593-.30877-.29895,.0074-1.34615,.01094-2.69238,.00716-4.03851-.00071-.2448,.09772-.34065,.33553-.31855,.10143,.00944,.20444,.00205,.30673,.00205,2.62548,.00157,5.25104,.00316,7.87653,.00457q.47286,.00024,.47293-.48292c.00007-.73282,.00205-1.46559-.00055-2.19835-.0015-.42619-.00488-.42619-.41817-.42612-2.55733,.00024-5.11467,.00057-7.672,.00047-.20453,0-.40935-.00952-.61364-.00219-.2193,.00778-.30216-.08357-.29303-.30477,.0148-.35732,.00707-.71553,.0074-1.07333,.00069-.92027-.00197-1.84047,.00188-2.76067,.00174-.41147,.0074-.41147,.43059-.41824,.05115-.00086,.10229,0,.15344,0,2.96653,.0008,5.93305,.00159,8.89951,.00245,.08529,0,.17083-.00433,.25565,.00142,.22316,.01511,.3024-.09836,.30147-.30784-.00378-.83497-.00795-1.67003,.00031-2.50485,.00252-.25589-.11095-.31917-.34443-.30649-.32302,.01754-.64761,.00911-.97151,.00921-3.95532,.00015-7.91066-.00016-11.86601-.00047q-.40761-.00007-.41603,.4202c-.00228,.1193-.00111,.23859-.00111,.35789v8.43529h.0019c0,2.94812-.00064,5.89622,.00062,8.84435,.00016,.44515,.00402,.4453,.445,.45505,.08514,.0019,.17044,.00259,.25565,.00259,4.15994,0,8.31987,0,12.47981-.00038,.13636,0,.27335-.01156,.40902-.00252,.24395,.01629,.32309-.08404,.31878-.33049-.01377-.7836-.00024-1.56757-.0048-2.35142Z"/><path class="c" d="M184.6084,45.49974c-.08516,.00228-.1703,.0107-.25544,.0107-3.12045-.00016-6.24089,.00024-9.36132-.0029-.47081-.00047-.46986-.00811-.46994-.48859-.00016-1.24417,.00369-2.48841-.00433-3.73257-.00323-.4971,.06468-.43863,.45529-.43728,2.69411,.00904,5.38829,.00543,8.08246,.00557,.43233,0,.44003-.00079,.44296-.40588,.0055-.76691,.00614-1.53389-.00088-2.3008-.00369-.3955-.01313-.39629-.39864-.39629-2.54073,.00016-5.08138,.00079-7.62204,.0011-.22166,.00009-.44365-.00787-.66493,.00064-.21324,.00818-.31971-.06634-.29918-.29549,.01512-.16933,.01023-.34056,.01032-.511,.00024-1.09081,.00583-2.18167-.00402-3.2724-.0048-.53469,.04862-.50258,.46318-.48378,.23819,.01087,.47732,.00135,.71607,.00142,2.7794,.00102,5.55879,.00267,8.33819,.00267,.48718,0,.49008-.00331,.49127-.46977,.00188-.74992,.00376-1.49983-.00269-2.24975-.00331-.38651-.01149-.38904-.41004-.38904-4.22879-.00031-8.45758,.00079-12.68636-.00016-.37086-.00007-.44436-.10236-.44303,.44287,.0074,2.93152,.00354,5.86302,.00354,8.79461h-.00811c0,2.98257,.00409,5.96516-.00716,8.94773-.00093,.2625,.09175,.33451,.32107,.32364,.08497-.00409,.17044,.00316,.25565,.00316,4.24587,.00047,8.49173,.00071,12.73758,.00031,.1193,0,.23859-.00583,.35773-.01142,.14456-.00683,.21129-.08207,.21074-.22889-.00323-.86913-.00464-1.73835-.00402-2.60755,.00007-.16823-.07255-.25544-.24393-.25087Z"/><path class="c" d="M163.10547,42.57216l-.05381-.29783c-.07838-.0632-.10883-.13252-.02778-.21616,.00362-.11575-.02966-.22183-.08523-.32209-.05264-.03012-.07356-.07082-.04249-.12858l-.06019-.17727c-.06981-.05305-.11159-.1178-.08782-.20979-.01951-.10994-.06413-.20853-.13362-.29588-.05602-.0137-.08286-.04579-.06642-.10505l-.01173-.02203c-.07774-.03109-.11668-.08618-.10662-.17163-.51345-.74417-1.17743-1.31829-1.97935-1.73173-.97284-.50165-2.01408-.82458-3.05412-1.14847-.81206-.2529-1.63209-.48221-2.41389-.82293-.45695-.19908-.8736-.46254-1.22795-.81601-.70152-.6998-.78941-2.00713,.27149-2.63328,.4113-.24267,.85638-.36527,1.32717-.40911,1.43034-.13322,2.77185,.23474,4.08558,.73874,.63643,.24426,1.254,.53643,1.8282,.90595,.19899,.12803,.28368,.10364,.37912-.10693,.39329-.86834,.79705-1.73204,1.20325-2.59439,.09182-.19508,.0579-.32563-.14439-.40549-.5162-.20382-.95341-.55476-1.46914-.76589-1.49654-.61276-3.04128-.98212-4.66268-1.02556-1.37896-.03692-2.72346,.12991-3.99602,.68263-1.84087,.79948-3.02712,2.12384-3.20716,4.18959-.10317,1.18358,.07191,2.31916,.83378,3.28727,.57941,.73606,1.30766,1.29035,2.1742,1.65454,.61214,.2573,1.23615,.48236,1.86716,.68979,1.00196,.3294,2.03004,.57742,3.01468,.95969,.55886,.21695,1.09504,.47717,1.51588,.92303,.7244,.76731,.67766,1.94695-.10821,2.64823-.31075,.2773-.67633,.46057-1.07647,.56594-.88975,.23425-1.80146,.23417-2.69016,.07498-1.49519-.26778-2.85494-.89289-4.08582-1.78617-.36724-.26652-.72079-.55202-1.10747-.84945-.47631,.95512-.93005,1.86659-1.3855,2.77719-.07389,.14777-.0344,.25991,.09056,.35592,.24316,.18688,.47883,.38401,.72789,.56271,.97063,.6964,2.03704,1.21213,3.14545,1.64658,.19318-.03942,.36505,.01039,.52141,.12458,1.25754,.42705,2.55671,.50408,3.8698,.45481,.86873-.03257,1.71984-.16288,2.54632-.44805,1.64997-.5694,2.94094-1.53453,3.60116-3.21015-.02227-.04061-.01551-.07372,.02541-.09796l.07138-.21899c-.02488-.04044-.01472-.06965,.02833-.0883,.08812-.15241,.09119-.32245,.10158-.49102-.031-.0495-.02612-.0927,.02267-.12803l.03768-.1998c-.0816-.43901-.07562-.87841-.00614-1.31813Z"/><path class="c" d="M97.12162,30.08167c-.97198,.00205-1.94435,.02084-2.91561-.00385-.31343-.00804-.4524,.09403-.55745,.3744-1.60621,4.28614-3.21753,8.57033-4.83846,12.85098-.15384,.40604-.26833,.83607-.53549,1.23425-.16509-.25001-.19939-.50669-.28715-.74119-1.43151-3.82572-2.85966-7.65273-4.29095-11.47862-.24433-.65322-.50652-1.29981-.74636-1.95466-.07586-.20727-.18217-.29509-.41132-.28329-.39125,.02022-.78413,.00811-1.17633,.00835-.74662,.00055-1.4933,.00015-2.22346,.00015-.08278,.18186,.02179,.29533,.0698,.41698,1.38086,3.4987,2.76429,6.99638,4.14703,10.49437,.95081,2.40547,1.90855,4.80827,2.84212,7.22042,.11354,.29343,.2552,.38699,.54989,.38299,.92066-.01227,1.84164,.00172,2.76239-.00528,.5875-.0044,.49315,.08317,.7286-.50055,.94223-2.33591,1.86745-4.67858,2.80756-7.01534,.52572-1.30671,.9645-2.64665,1.54578-3.93298,.22796-.5044,.43728-1.0277,.61071-1.55066,.28422-.85654,.64926-1.68066,.99621-2.50604,.2939-.699,.57648-1.4072,.88809-2.101,.12291-.27354,.2581-.55407,.29345-.85198-.08916-.0717-.17525-.05761-.25905-.05745Z"/><path class="c" d="M198.12587,17.14311c.00102-.24143-.10985-.2802-.30949-.27518-.34081,.00866-.68288,.0185-1.02258-.00267-.27478-.01708-.42445,.06099-.53564,.33615-.2803,.69373-.6012,1.37118-.91571,2.05066-.04296,.09285-.04092,.24835-.22592,.24638-.07681-.16219-.15872-.32814-.23474-.4967-.27982-.62054-.55869-1.24156-.83544-1.86345-.06366-.14313-.11694-.27454-.31822-.27052-.49182,.00983-.98395,.00321-1.51219,.00321v.54746c.00007,1.36328-.00314,2.72659,.00269,4.08989,.00133,.30335-.12867,.68846,.058,.88999,.21245,.22946,.61307,.07153,.93058,.08128,.41084,.01266,.41565-.00347,.41674-.42343,.00267-.98685,.00086-1.97378,.00086-2.96071l.10443-.01675c.21255,.49494,.42405,.99038,.63786,1.48479,.27078,.62597,.27147,.61433,.96875,.60622,.22183-.00259,.34001-.06996,.42177-.27361,.20294-.50517,.4217-1.00408,.63864-1.50344,.04313-.0993,.04596-.23881,.20603-.25542,.103,.15477,.05357,.32711,.05476,.4889,.0059,.85205,.00764,1.7041,.00071,2.55615-.00174,.20972,.05288,.31697,.28596,.30603,.30618-.01432,.61369-.00904,.92042-.00338,.20013,.00369,.263-.08861,.26243-.2807-.00535-1.68702-.00826-3.37413-.00069-5.06116Z"/><path class="c" d="M189.32639,16.86761c-.71553,.01165-1.43129,.00426-2.14705,.00395-.56231-.00024-1.12464-.00024-1.68694-.00024-.86732,0-.85945-.00064-.79698,.85992,.01503,.2071,.0953,.25975,.28156,.25558,.35764-.00804,.7156-.00559,1.0734-.00133,.39322,.00471,.39362,.00771,.40133,.38746,.00212,.10213,.00038,.20434,.00038,.30656,.00009,1.12416-.00157,2.24825,.00088,3.37241,.00093,.42548,.00511,.42657,.4069,.43209,.20444,.00283,.40895,.00314,.61338,.0004,.41981-.00559,.42469-.00678,.42571-.41612,.00283-1.10708,.0011-2.21416,.0011-3.32125q0-.76236,.73693-.76251c.08514,0,.17044,.00174,.25558-.00031,.88913-.02172,.73087,.14927,.7603-.80375,.00787-.25637-.09073-.31672-.32647-.31286Z"/></g></svg>