<?xml version="1.0" encoding="UTF-8"?>
<svg id="Layer_1" xmlns="http://www.w3.org/2000/svg" version="1.1" viewBox="0 0 264 61">
  <!-- Generator: Adobe Illustrator 30.2.1, SVG Export Plug-In . SVG Version: 2.1.1 Build 1)  -->
  <defs>
    <style>
      .st0 {
        fill: #0a2c43;
      }
    </style>
  </defs>
  <path class="st0" d="M38.2,49.69c-6.68,0-12.95-2.53-17.67-7.13L.17,22.72l3.84-3.74,20.36,19.86c3.69,3.59,8.6,5.56,13.82,5.56s10.14-1.98,13.83-5.58c1.94-1.87,3.43-4.13,4.43-6.7l4.11,4.01c-1.22,2.41-2.81,4.57-4.71,6.42-4.72,4.6-10.99,7.13-17.67,7.13h0Z"/>
  <path class="st0" d="M52.04,11.86c-3.69-3.6-8.61-5.58-13.83-5.58s-10.14,1.98-13.83,5.58c-1.94,1.87-3.43,4.13-4.43,6.7l-4.11-4.01c1.21-2.39,2.78-4.54,4.67-6.39l.06-.04C25.26,3.53,31.54,1,38.21,1s12.95,2.53,17.67,7.13l20.36,19.84-3.84,3.74-20.36-19.84h0Z"/>
  <path class="st0" d="M46.04,17.71c-2.09-2.04-4.88-3.16-7.84-3.16s-5.75,1.12-7.84,3.16c-2.13,2.08-3.3,4.93-3.23,7.87l-4.79-4.67c.75-2.61,2.2-5.01,4.17-6.94,3.12-3.03,7.27-4.71,11.69-4.71s8.56,1.67,11.67,4.71l20.36,19.84-3.84,3.74-20.36-19.84Z"/>
  <path class="st0" d="M38.2,41.44c-4.42,0-8.56-1.67-11.67-4.71L6.17,16.9l3.84-3.74,20.36,19.84c2.09,2.04,4.88,3.16,7.84,3.16s5.75-1.12,7.84-3.16c2.13-2.08,3.3-4.93,3.23-7.87l4.79,4.67c-.75,2.61-2.2,5.01-4.17,6.94-3.12,3.03-7.27,4.71-11.69,4.71Z"/>
  <path class="st0" d="M113.76,49.04c-13.86,0-23.99-10.21-23.99-24.16S99.9.78,113.76.78s23.85,10.16,23.85,24.1-10.12,24.16-23.85,24.16ZM113.76,41.32c8.67,0,14.84-6.94,14.84-16.44s-6.18-16.44-14.84-16.44-14.99,7.02-14.99,16.44,6.23,16.44,14.98,16.44h.02ZM142.94,14.53h8.27v5.91c1.25-2.6,5.58-6.43,10.18-6.43,0,0-.17,0,.4,0,9.72,0,15.5,7.2,15.5,17.48s-6.38,17.23-15.46,17.23h-.22c-3.59,0-9.16-2.67-10.39-6.35v18.4h-8.27V14.53ZM159.82,41.79c5.32,0,9-4.13,9-10.41s-3.67-10.34-9-10.34-9.13,4.13-9.13,10.34,3.67,10.41,9.13,10.41ZM201.06,14.53v6.87h-7.95v19.97l7.95.07v7.59h-4.79c-7.02,0-11.44-3.29-11.44-10.88v-16.76h-5.78v-5.52s3.94.02,6.18-2.13c2.24-2.15,2.09-6.21,2.09-6.21v-1.13h5.79v8.13h7.95l-.02.02ZM227.76,22h-3.62c-4.8,0-9.26,1.78-9.26,12.01v15.05h-8.27V14.53h8.27v6.78c1.52-3.86,5.52-7.41,9.65-7.3h3.27l-.05,7.99h.02ZM245.75,49.04c-10.12,0-17.4-7.41-17.4-17.55s7.29-17.48,17.4-17.48,17.42,7.41,17.42,17.48-7.36,17.55-17.42,17.55ZM245.75,41.9c5.32,0,9-4.25,9-10.41s-3.74-10.34-9-10.34-8.93,4.25-8.93,10.34,3.49,10.41,8.93,10.41Z"/>
</svg>