<?xml version="1.0" encoding="UTF-8"?>
<svg id="_레이어_2" data-name="레이어 2" xmlns="http://www.w3.org/2000/svg" xmlns:xlink="http://www.w3.org/1999/xlink" viewBox="0 0 93.24 104.03">
  <defs>
    <style>
      .cls-1 {
        fill: #a1e6ff;
      }

      .cls-2 {
        fill: #536eb3;
      }

      .cls-3 {
        fill: #001446;
      }

      .cls-4 {
        fill: #1e4682;
      }

      .cls-5 {
        fill: url(#_무제_그라디언트_50);
      }
    </style>
    <linearGradient id="_무제_그라디언트_50" data-name="무제 그라디언트 50" x1="17.06" y1="40.65" x2="70.51" y2="40.65" gradientUnits="userSpaceOnUse">
      <stop offset="0" stop-color="#7dbe48"/>
      <stop offset=".47" stop-color="#da514f"/>
      <stop offset="1" stop-color="#536eb3"/>
    </linearGradient>
  </defs>
  <g id="_레이어_1-2" data-name="레이어 1">
    <g>
      <g>
        <circle class="cls-2" cx="84.84" cy="73.11" r="8.06"/>
        <path class="cls-2" d="M44.14,0C21.66,0,3.44,18.22,3.44,40.7s18.22,40.7,40.7,40.7,40.7-18.22,40.7-40.7S66.62,0,44.14,0ZM44.14,65.05c-13.47,0-24.4-10.92-24.4-24.4s10.92-24.4,24.4-24.4,24.4,10.92,24.4,24.4-10.92,24.4-24.4,24.4Z"/>
      </g>
      <g>
        <g>
          <path class="cls-4" d="M18.99,65.99s.07.06.1.09c-.03-.03-.07-.06-.1-.1,0,0,0,0,0,0Z"/>
          <path class="cls-4" d="M20.23,67.14c13.92,12.41,35.28,11.94,48.63-1.42.52-.52,1-1.05,1.48-1.59-.17.19-.33.38-.5.57.26-.29.52-.57.78-.86,0,0,0,0,0-.01,12.06-13.93,11.48-35.01-1.75-48.24-.04-.04-.09-.08-.13-.12-13.86-13.72-36.21-13.68-50.01.12-.05.05-.09.09-.13.14,0,0,0,0,0,0-13.71,13.86-13.67,36.2.13,50,.49.49.99.96,1.51,1.42"/>
        </g>
        <g>
          <path class="cls-3" d="M12.52,41.04s0,.08,0,.12c0-.04,0-.08,0-.12,0,0,0,0,0,0Z"/>
          <path class="cls-3" d="M12.57,42.53c.95,16.42,14.56,29.44,31.21,29.44.64,0,1.28-.03,1.91-.07-.22.01-.44.03-.67.04.34-.01.68-.03,1.02-.06,0,0,0,0,0-.01,16.21-1.17,29-14.67,29-31.18,0-.05,0-.1,0-.16-.08-17.2-14.05-31.11-31.27-31.11-.06,0-.11,0-.17,0,0,0,0,0,0,0-17.19.09-31.1,14.05-31.1,31.26,0,.61.02,1.22.05,1.82"/>
        </g>
        <g>
          <path class="cls-1" d="M62.87,38.32l-1.35-5.04-6.05,1.62c-2.11-4.22-6.47-7.12-11.52-7.12-2.56,0-4.94.75-6.95,2.04l-4.4-4.4-3.69,3.69,4.36,4.36c-1.38,2.05-2.19,4.53-2.19,7.19,0,5.1,2.96,9.5,7.25,11.59l-1.55,5.79,5.04,1.35,1.57-5.86c.19,0,.37.01.56.01,7.11,0,12.87-5.76,12.87-12.87,0-.24,0-.48-.02-.71l6.06-1.62ZM48.08,49.34h-8.24l-5.14-6.44,1.83-8.03,7.42-3.57,7.42,3.57,1.83,8.03-5.14,6.44Z"/>
          <path class="cls-5" d="M69.59,33.73c-3.82-14.25-18.47-22.71-32.73-18.89-14.25,3.82-22.71,18.47-18.89,32.73,3.82,14.25,18.47,22.71,32.73,18.89,14.25-3.82,22.71-18.47,18.89-32.73ZM48.54,58.4c-9.8,2.63-19.88-3.19-22.51-12.99-2.63-9.8,3.19-19.88,13-22.51,9.8-2.63,19.88,3.19,22.51,13,2.63,9.8-3.19,19.88-12.99,22.51Z"/>
        </g>
      </g>
      <g>
        <path class="cls-2" d="M6.4,90.38c-3.53,0-6.4,3.06-6.4,6.82s2.87,6.82,6.4,6.82,6.4-3.06,6.4-6.82-2.87-6.82-6.4-6.82ZM6.4,102.28c-2.63,0-4.77-2.28-4.77-5.08s2.13-5.08,4.77-5.08,4.77,2.28,4.77,5.08-2.13,5.08-4.77,5.08Z"/>
        <path class="cls-2" d="M20.26,97.98c1.1-.77,1.8-1.92,1.8-3.2,0-2.31-2.27-4.18-5.07-4.19h0s-3.18,0-3.18,0v13.22h1.78v-11.45h1.39c1.62,0,2.94,1.08,2.94,2.42s-1.31,2.42-2.93,2.42h-.02s6.6,6.6,6.6,6.6l1.26-1.26-4.57-4.57Z"/>
        <path class="cls-2" d="M73.62,97.98c1.1-.77,1.8-1.92,1.8-3.2,0-2.31-2.27-4.18-5.07-4.19h0s-3.18,0-3.18,0v13.22h1.78v-11.45h1.39c1.62,0,2.94,1.08,2.94,2.42s-1.31,2.42-2.93,2.42h-.02s6.6,6.6,6.6,6.6l1.26-1.26-4.57-4.57Z"/>
        <rect class="cls-2" x="78.97" y="90.59" width="1.78" height="13.22"/>
        <polygon class="cls-2" points="47.02 92.37 47.02 90.59 37.94 90.59 37.94 90.59 37.61 90.59 37.61 103.81 39.39 103.81 39.39 103.81 47.02 103.81 47.02 102.03 39.39 102.03 39.39 98.09 46.38 98.09 46.38 96.31 39.39 96.31 39.39 92.37 47.02 92.37"/>
        <polygon class="cls-2" points="66.17 90.59 57.1 90.59 57.1 92.37 60.75 92.37 60.75 103.81 62.52 103.81 62.52 92.37 66.17 92.37 66.17 90.59"/>
        <polygon class="cls-2" points="93.24 91.73 91.87 90.59 87.49 95.81 83.11 90.59 81.75 91.73 86.33 97.19 81.75 102.66 83.11 103.8 87.49 98.58 91.87 103.8 93.24 102.66 88.65 97.19 93.24 91.73"/>
        <path class="cls-2" d="M56.74,99.51c-.15-1.05-.78-1.97-1.65-2.58l-.15-.11c-.1-.06-.21-.11-.33-.16-.51-.23-1.03-.35-1.58-.35-.06,0-.12,0-.17,0h-.02s-.02,0-.02,0c-.06,0-.11,0-.15,0h-.12c-.06,0-.09,0-.09,0h-.54c-.94,0-1.79-.62-1.99-1.54-.28-1.28.69-2.42,1.93-2.42h4.14s0,0,0,0v-1.77h-3.55s-.51,0-.51,0c-.02,0-.05,0-.07,0h0c-2.59,0-4.55,2.59-3.46,5.29.56,1.38,1.95,2.25,3.44,2.21h.05s.04,0,.04,0h1.03c.94,0,1.79.62,1.99,1.54.28,1.28-.69,2.42-1.93,2.42h-4.94v1.78h4.64s.06,0,.09,0h.03s.03,0,.03,0c.03,0,.05,0,.08,0,.02,0,.04,0,.06,0,2.25,0,4.05-1.99,3.71-4.31Z"/>
        <g>
          <polygon class="cls-2" points="27.49 90.81 25.72 90.81 25.72 104.03 27.49 104.03 27.49 92.58 27.49 92.58 27.49 90.81"/>
          <polygon class="cls-2" points="33.54 99.89 31.07 97.42 33.54 94.95 33.54 94.95 36.42 92.07 35.16 90.82 28.55 97.42 35.16 104.03 36.42 102.77 33.54 99.89 33.54 99.89"/>
        </g>
      </g>
    </g>
  </g>
</svg>