<svg width="553" height="140" viewBox="0 0 553 140" fill="none" xmlns="http://www.w3.org/2000/svg">
<path d="M361.598 93.7777C361.387 93.6545 361.14 93.6193 360.911 93.6897C358.535 94.3762 355.842 94.7987 353.729 94.7987C347.938 94.7987 345.35 92.0174 345.35 85.7506V66.0524H361.14C361.598 66.0524 361.985 65.6828 361.985 65.2075V57.8845C361.985 57.4268 361.615 57.0395 361.14 57.0395H345.35V41.531C345.35 41.0733 344.98 40.686 344.505 40.686H335.756C335.298 40.686 334.911 41.0557 334.911 41.531V57.0395H312.379V41.531C312.379 41.0733 312.009 40.686 311.534 40.686H302.785C302.327 40.686 301.94 41.0557 301.94 41.531V57.0395H292.698C292.241 57.0395 291.853 57.4092 291.853 57.8845V65.2075C291.853 65.6652 292.223 66.0524 292.698 66.0524H301.94V85.7506C301.94 97.7032 308.207 104.551 319.121 104.551C322.712 104.551 325.282 104.128 329.718 102.808C330.123 102.685 330.387 102.28 330.299 101.858L328.961 94.341C328.926 94.1122 328.785 93.9009 328.574 93.7777C328.363 93.6545 328.116 93.6193 327.887 93.6897C325.511 94.3762 322.818 94.7987 320.705 94.7987C314.914 94.7987 312.326 92.0174 312.326 85.7506V66.0524H334.858V85.7506C334.858 97.7032 341.125 104.551 352.039 104.551C355.63 104.551 358.2 104.128 362.636 102.808C363.041 102.685 363.305 102.28 363.217 101.858L361.879 94.341C361.844 94.1122 361.703 93.9009 361.492 93.7777H361.598Z" fill="#03709A"/>
<path d="M388.619 55.9126C374.642 55.9126 364.485 66.1049 364.485 80.1348C364.485 94.1646 374.624 104.269 388.619 104.269C398.899 104.269 407.278 98.9704 409.954 90.7672C410.042 90.5032 409.989 90.2391 409.831 90.0103C409.673 89.799 409.426 89.6582 409.144 89.6582H399.727C399.41 89.6582 399.128 89.8342 398.987 90.0983C397.262 93.3725 393.671 95.168 388.901 95.168C380.574 95.168 376.332 89.7286 375.012 84.3068H409.901C409.901 84.3068 409.972 84.3068 409.989 84.3068C410.148 84.3068 410.324 84.3068 410.465 84.2188C410.711 84.0955 410.87 83.8667 410.905 83.6026C411.098 82.3 411.098 80.9093 411.098 79.6595C410.993 65.9113 401.54 55.9126 388.584 55.9126H388.619ZM374.994 76.0684C376.455 69.2735 381.454 65.1015 388.232 65.1015C395.009 65.1015 399.463 69.1855 400.501 76.0684H374.994Z" fill="#03709A"/>
<path d="M255.485 35.4751C236.473 35.4751 221 50.9484 221 69.96C221 88.9716 236.473 104.445 255.485 104.445C274.497 104.445 289.97 88.9716 289.97 69.96C289.97 50.9484 274.497 35.4751 255.485 35.4751ZM279.073 69.96C279.073 83.3914 268.494 94.3054 255.485 94.3054C242.476 94.3054 231.808 83.6026 231.808 69.96C231.808 56.3174 242.212 45.6146 255.485 45.6146C268.758 45.6146 279.073 56.5287 279.073 69.96Z" fill="#03709A"/>
<path d="M442.239 56.0181C436.06 56.0181 430.603 58.2009 426.343 62.3377V57.9016C426.343 57.444 425.973 57.0567 425.498 57.0567H416.749C416.291 57.0567 415.904 57.4264 415.904 57.9016V102.297C415.904 102.755 416.274 103.142 416.749 103.142H425.498C425.956 103.142 426.343 102.773 426.343 102.297V74.1495C430.233 68.9037 435.585 66.14 442.256 65.964C442.714 65.964 443.066 65.5767 443.066 65.119V56.8454C443.066 56.3878 442.696 56.0005 442.221 56.0005L442.239 56.0181Z" fill="#03709A"/>
<path d="M503.727 57.0571H465.51C465.053 57.0571 464.665 57.4268 464.665 57.9021V65.2251C464.665 65.6828 465.035 66.07 465.51 66.07H489.416L463.996 97.492C463.873 97.6328 463.803 97.8265 463.803 98.0201V102.298C463.803 102.755 464.172 103.143 464.648 103.143H503.709C504.167 103.143 504.554 102.773 504.554 102.298V94.9747C504.554 94.517 504.185 94.1298 503.709 94.1298H479.329L504.361 63.2711C504.484 63.1303 504.554 62.9366 504.554 62.743V57.9021C504.554 57.4444 504.185 57.0571 503.709 57.0571H503.727Z" fill="#03709A"/>
<path d="M530.062 55.9126C516.085 55.9126 505.928 66.1049 505.928 80.1348C505.928 94.1646 516.067 104.269 530.062 104.269C540.342 104.269 548.721 98.9704 551.397 90.7672C551.485 90.5032 551.432 90.2391 551.274 90.0103C551.115 89.799 550.869 89.6582 550.587 89.6582H541.169C540.853 89.6582 540.571 89.8342 540.43 90.0983C538.705 93.3725 535.114 95.168 530.343 95.168C522.017 95.168 517.775 89.7286 516.454 84.3068H551.344C551.344 84.3068 551.415 84.3068 551.432 84.3068C551.591 84.3068 551.767 84.3068 551.907 84.2188C552.154 84.0955 552.312 83.8667 552.348 83.6026C552.541 82.3 552.541 80.9093 552.541 79.6595C552.436 65.9113 542.983 55.9126 530.027 55.9126H530.062ZM516.437 76.0684C517.898 69.2735 522.897 65.1015 529.674 65.1015C536.452 65.1015 540.905 69.1855 541.944 76.0684H516.437Z" fill="#03709A"/>
<path d="M452.783 35C449.051 35 446.235 37.7285 446.235 41.3548C446.235 44.9811 449.051 47.7096 452.783 47.7096C456.515 47.7096 459.332 44.9107 459.332 41.3548C459.332 37.7989 456.462 35 452.783 35Z" fill="#03709A"/>
<path d="M457.149 57.0571H448.506C448.039 57.0571 447.661 57.4354 447.661 57.9021V102.28C447.661 102.747 448.039 103.125 448.506 103.125H457.149C457.615 103.125 457.994 102.747 457.994 102.28V57.9021C457.994 57.4354 457.615 57.0571 457.149 57.0571Z" fill="#03709A"/>
<path d="M44.4115 27.7111C46.7879 27.7111 48.7067 29.6299 48.7067 32.0063C48.7067 34.3828 46.7879 36.3015 44.4115 36.3015C42.035 36.3015 40.1163 34.3828 40.1163 32.0063C40.1163 29.6299 42.035 27.7111 44.4115 27.7111ZM89.2824 32.0063C89.2824 29.6299 87.3636 27.7111 84.9872 27.7111C82.6107 27.7111 80.6919 29.6299 80.6919 32.0063C80.6919 34.3828 82.6107 36.3015 84.9872 36.3015C87.3636 36.3015 89.2824 34.3828 89.2824 32.0063ZM48.7771 47.9726C50.1326 47.9726 51.224 46.8811 51.2416 45.5257C51.2416 44.1702 50.1502 43.0612 48.7947 43.0612H48.6891C31.7899 43.0612 15.3308 47.9021 1.12487 57.0735C-0.0193505 57.8128 -0.336211 59.3267 0.385526 60.4709C0.860816 61.1927 1.65297 61.5975 2.44512 61.5975C2.9028 61.5975 3.36049 61.4743 3.78297 61.2103C17.1967 52.567 32.7229 47.9902 48.6891 47.9902C48.7243 47.9902 48.7595 47.9902 48.7947 47.9902L48.7771 47.9726ZM86.1138 45.9834C86.1138 47.3388 87.2052 48.4478 88.5606 48.4478C100.02 48.4478 111.251 51.6516 121.004 57.672C121.391 57.9184 121.831 58.0241 122.253 58.0417C123.098 58.0417 123.908 57.6368 124.383 56.8798C125.088 55.718 124.735 54.2041 123.574 53.5C113.047 47.0044 100.936 43.5717 88.5606 43.5541C87.2052 43.5541 86.0962 44.6455 86.0962 46.001L86.1138 45.9834ZM165.927 103.722C165.927 103.722 165.769 103.863 165.698 103.934C175.081 107.155 176.912 114.988 177.211 118.245C177.281 118.967 176.789 119.618 176.084 119.759C160.664 123.033 150.119 133.331 129.735 137.362H129.647C110.477 141.147 91.0603 138.489 73.8442 131.06L73.1929 132.662C72.8409 133.525 71.9959 134.088 71.0629 134.106C65.2714 134.106 59.7616 131.465 56.1705 126.853C52.5794 122.241 51.3472 116.256 52.7554 110.658C28.5685 98.7582 19.9252 72.494 19.4323 71.3322C17.6192 72.7404 15.8413 74.2367 14.1513 75.8034C13.6584 76.2611 13.0071 76.4724 12.391 76.4547C11.7749 76.4371 11.1412 76.1731 10.6835 75.6626C9.7681 74.6592 9.82091 73.1101 10.8243 72.1947C21.8616 61.9672 35.469 54.8555 50.1678 51.634C51.488 51.3524 52.8083 52.1797 53.0899 53.5C53.3892 54.8202 52.5442 56.1405 51.224 56.4222C47.316 57.2847 43.4785 58.4465 39.7642 59.8724C47.404 68.8677 64.2504 62.9178 65.0602 49.3456C62.8246 49.3456 58.9518 47.6733 57.0683 44.9624C54.639 41.4769 57.1211 35.7558 68.352 35.7558C77.981 35.7558 82.5755 40.6496 79.6709 44.9096C78.4387 46.7227 75.851 48.6415 72.1367 49.4512C71.8903 56.0525 77.2065 61.5271 83.7901 61.5271C83.8429 61.5271 83.8958 61.5271 83.9662 61.5271C87.0467 61.5271 89.8633 60.2245 91.9229 58.2177C90.0217 57.6896 88.0853 57.2495 86.1314 56.915C84.7935 56.6862 83.8957 55.4364 84.107 54.0809C84.3358 52.7431 85.5857 51.8277 86.9411 52.0565C96.3589 53.6232 105.354 57.4783 112.959 63.2346C114.033 64.0444 114.262 65.5935 113.434 66.6849C112.941 67.3362 112.202 67.6707 111.445 67.6531C110.934 67.6531 110.424 67.4947 109.984 67.1602C105.495 63.7627 100.478 61.1046 95.1795 59.2387C99.7564 69.6599 110.16 76.93 122.271 76.93C134.382 76.93 145.155 69.4662 149.644 58.605C149.926 57.9184 150.7 57.5664 151.422 57.7952C157.953 60.0308 161.843 66.5089 161.069 73.0925C170.416 59.9252 172.898 42.5155 166.561 26.7957C166.438 26.4789 166.561 26.1268 166.825 25.9332C167.107 25.7395 167.476 25.7923 167.723 26.0212C179.57 38.0795 185.168 55.0491 182.668 71.8955C180.837 84.2354 174.835 95.3959 165.927 103.67V103.722ZM160.03 102.191C159.291 96.4697 157.038 91.4 153.165 87.5272C150.172 84.5347 146.476 82.792 142.304 82.0526C131.97 79.7466 119.014 82.8624 106.798 90.7663C105.935 91.312 101.693 92.9491 98.6649 90.5198C95.0211 87.5977 98.4713 83.901 95.5668 80.8204L95.4083 80.6619C93.7712 79.1129 92.1517 79.3769 89.4232 79.3769C86.8707 79.3769 84.7935 77.2997 84.7935 74.7472C84.7935 69.4134 85.0224 70.1528 80.6391 66.1216C76.8368 65.3646 72.7704 63.798 69.1442 59.1331C64.1272 66.2272 54.3574 71.3498 44.3763 69.5366L77.9282 106.222C80.868 109.426 81.4841 114.143 79.4421 117.999C78.6676 119.477 77.893 121.062 77.1537 122.822C76.5728 124.248 76.3439 124.776 75.9038 126.043C83.1388 129.177 90.7258 131.395 98.3657 132.609C108.083 134.158 117.923 130.691 124.507 123.368C125.739 121.995 126.971 120.551 128.203 119.09C140.015 105.131 151.317 101.258 160.013 102.208L160.03 102.191ZM34.0255 38.9596C30.5048 32.1119 31.561 24.2785 36.754 18.2581C48.6539 4.40429 72.9289 7.02719 89.7048 13.9629C90.3386 12.9243 90.6906 11.7097 90.6906 10.407C90.6906 6.58711 87.5925 3.48892 83.7725 3.48892C82.2586 3.48892 80.868 3.98181 79.7238 4.80917C62.7541 -1.86249 42.6511 -2.77787 29.3606 9.75571C28.1108 7.97777 26.0512 6.81595 23.7099 6.81595C19.89 6.81595 16.8094 9.91414 16.8094 13.7341C16.8094 16.797 18.7986 19.4023 21.5623 20.3001C17.7072 27.8167 16.0525 35.7382 15.7708 43.4837C21.5975 41.0896 27.7587 39.5758 34.0255 38.9772V38.9596Z" fill="url(#paint0_linear_616_98)"/>
<defs>
<linearGradient id="paint0_linear_616_98" x1="91.6412" y1="156.339" x2="91.6412" y2="17.2371" gradientUnits="userSpaceOnUse">
<stop stop-color="#023E57"/>
<stop offset="0.880208" stop-color="#02729D"/>
</linearGradient>
</defs>
</svg>
