<svg id="Layer_1" data-name="Layer 1" xmlns="http://www.w3.org/2000/svg" xmlns:xlink="http://www.w3.org/1999/xlink" viewBox="0 0 235.2 297.70001"><defs><style>.cls-1{fill:url(#radial-gradient);}.cls-10,.cls-11,.cls-13,.cls-2,.cls-3,.cls-4,.cls-5,.cls-7,.cls-8{fill-rule:evenodd;}.cls-2{fill:url(#linear-gradient);}.cls-3{fill:url(#linear-gradient-2);}.cls-4{fill:#be3d26;}.cls-5,.cls-6{fill:#df4c26;}.cls-7{fill:#f15d22;}.cls-8{fill:url(#linear-gradient-3);}.cls-9{fill:#a73423;}.cls-10{fill:#eb6224;}.cls-11{fill:#fed208;}.cls-12{fill:#f47721;}.cls-13{fill:#fdd207;}</style><radialGradient id="radial-gradient" cx="117.73" cy="180.35" r="112" gradientTransform="matrix(1, 0, 0, -1, 0, 298.08)" gradientUnits="userSpaceOnUse"><stop offset="0" stop-color="#ffa432"/><stop offset="1" stop-color="#f47721"/></radialGradient><linearGradient id="linear-gradient" x1="56.20609" y1="128.24086" x2="167.71271" y2="239.74748" gradientTransform="matrix(1, 0, 0, -1, 0, 298.08)" gradientUnits="userSpaceOnUse"><stop offset="0" stop-color="#fdd207"/><stop offset="0.5" stop-color="#f68a1f"/><stop offset="1" stop-color="#fdd207"/></linearGradient><linearGradient id="linear-gradient-2" x1="69.28341" y1="241.21074" x2="180.46877" y2="130.02538" xlink:href="#linear-gradient"/><linearGradient id="linear-gradient-3" x1="129.45521" y1="149.55754" x2="120.28427" y2="179.55232" gradientTransform="matrix(1, 0, 0, -1, 0, 298.08)" gradientUnits="userSpaceOnUse"><stop offset="0" stop-color="#a23422"/><stop offset="1" stop-color="#be3d26"/></linearGradient></defs><title>paa-sta</title><path d="M47.687,291.463v-12.94h4.517a39.60253,39.60253,0,0,0,7.184-.491,10.05522,10.05522,0,0,0,3.592-1.627,9.40732,9.40732,0,0,0,2.914-3.382,11.19466,11.19466,0,0,0,1.146-5.312,10.64984,10.64984,0,0,0-1.989-6.681,8.9842,8.9842,0,0,0-4.938-3.358,40.31724,40.31724,0,0,0-8.237-.515H40.76v34.306h6.927Zm3.347-28.503a33.43223,33.43223,0,0,1,4.984.234,4.79594,4.79594,0,0,1,2.785,1.521,4.43252,4.43252,0,0,1,1.1,3.089,4.61848,4.61848,0,0,1-.784,2.668,4.55229,4.55229,0,0,1-2.165,1.685,17.91165,17.91165,0,0,1-5.476.538H47.687V262.96Zm28.151,8.811a4.70754,4.70754,0,0,1,2.738-.689,5.61037,5.61037,0,0,1,3.533.807,3.40461,3.40461,0,0,1,.937,2.703v.655a35.75544,35.75544,0,0,1-6.389,1.614,22.08744,22.08744,0,0,0-5.23,1.533,6.581,6.581,0,0,0-2.82,2.527,7.06448,7.06448,0,0,0-1.006,3.756,6.92534,6.92534,0,0,0,2.211,5.266,8.464,8.464,0,0,0,6.049,2.082,10.3193,10.3193,0,0,0,4.095-.818,11.86769,11.86769,0,0,0,3.604-2.457q.0705.1875.234.771.375,1.287.632,1.942h6.506a14.08819,14.08819,0,0,1-1.182-3.335,26.68807,26.68807,0,0,1-.316-4.832l.07-7.676q0-4.281-.877-5.885a6.53619,6.53619,0,0,0-3.031-2.645,15.73687,15.73687,0,0,0-6.552-1.041q-4.84349,0-7.301,1.731a9.29415,9.29415,0,0,0-3.463,5.335l5.967,1.077a4.81189,4.81189,0,0,1,1.591-2.421Zm7.208,9.068a12.95145,12.95145,0,0,1-.258,3.206,4.12161,4.12161,0,0,1-1.568,2.177,5.69492,5.69492,0,0,1-3.393,1.17,3.59386,3.59386,0,0,1-2.621-1.007,3.22072,3.22072,0,0,1-1.029-2.387,2.74093,2.74093,0,0,1,1.287-2.316,12.01407,12.01407,0,0,1,3.58-1.146q2.7375-.58648,4.002-1.007v1.31Zm19.446-9.068a4.70754,4.70754,0,0,1,2.738-.689,5.61184,5.61184,0,0,1,3.534.807,3.4044,3.4044,0,0,1,.936,2.703v.655a35.75544,35.75544,0,0,1-6.389,1.614,22.08759,22.08759,0,0,0-5.23,1.533,6.581,6.581,0,0,0-2.82,2.527,7.067,7.067,0,0,0-1.006,3.756,6.92534,6.92534,0,0,0,2.211,5.266,8.46415,8.46415,0,0,0,6.049,2.082,10.32014,10.32014,0,0,0,4.095-.818,11.86769,11.86769,0,0,0,3.604-2.457q.0705.1875.234.771.3735,1.287.632,1.942h6.505a14.13339,14.13339,0,0,1-1.182-3.335,26.59527,26.59527,0,0,1-.316-4.832l.07-7.676q0-4.281-.877-5.885a6.5466,6.5466,0,0,0-3.031-2.645,15.74328,15.74328,0,0,0-6.552-1.041q-4.8435,0-7.301,1.731a9.28931,9.28931,0,0,0-3.463,5.335l5.967,1.077a4.81281,4.81281,0,0,1,1.592-2.421Zm7.208,9.068a13.01724,13.01724,0,0,1-.257,3.206,4.12167,4.12167,0,0,1-1.568,2.177,5.69715,5.69715,0,0,1-3.393,1.17,3.59226,3.59226,0,0,1-2.621-1.007,3.22172,3.22172,0,0,1-1.03-2.387,2.74093,2.74093,0,0,1,1.287-2.316,12.01271,12.01271,0,0,1,3.581-1.146q2.7375-.58648,4.001-1.007v1.31Zm15.398,8.226q3.486,3.00751,9.992,3.007a19.41939,19.41939,0,0,0,7.465-1.252,9.81364,9.81364,0,0,0,4.634-3.826,10.798,10.798,0,0,0,.269-10.986,9.6229,9.6229,0,0,0-3.791-3.487,33.58791,33.58791,0,0,0-7.477-2.469q-5.0535-1.194-6.365-2.293a2.63474,2.63474,0,0,1-1.029-2.083,2.49876,2.49876,0,0,1,1.1-2.129,7.91591,7.91591,0,0,1,4.728-1.241,6.98528,6.98528,0,0,1,4.388,1.159,5.87774,5.87774,0,0,1,1.907,3.803l6.927-.305a9.99617,9.99617,0,0,0-3.428-7.559q-3.2655-2.832-9.724-2.831a17.15042,17.15042,0,0,0-6.751,1.193,9.29479,9.29479,0,0,0-4.283,3.475,8.82276,8.82276,0,0,0-1.486,4.902,8.92377,8.92377,0,0,0,3.16,6.903q2.247,2.01448,7.816,3.394,4.3275,1.077,5.545,1.498a5.69809,5.69809,0,0,1,2.492,1.485,3.12107,3.12107,0,0,1,.715,2.071,4.21532,4.21532,0,0,1-1.697,3.312,7.708,7.708,0,0,1-5.043,1.416,7.46346,7.46346,0,0,1-5.02-1.592,8.22765,8.22765,0,0,1-2.469-4.984l-6.74.655q.678,5.757,4.165,8.764Zm36.412-22.453v-8.775l-6.6,3.837v4.938h-3.018v5.241h3.018v10.835a31.77849,31.77849,0,0,0,.211,4.634,6.09228,6.09228,0,0,0,.925,2.562,4.68769,4.68769,0,0,0,2.095,1.544,8.23165,8.23165,0,0,0,3.205.597,13.07389,13.07389,0,0,0,5.195-.982l-.562-5.102a8.51306,8.51306,0,0,1-2.644.632,1.85443,1.85443,0,0,1-1.112-.327,1.44693,1.44693,0,0,1-.585-.831,24.86773,24.86773,0,0,1-.129-3.546v-10.016h4.493v-5.241h-4.492Zm15.562,5.159a4.702,4.702,0,0,1,2.737-.689,5.61575,5.61575,0,0,1,3.534.807,3.40787,3.40787,0,0,1,.936,2.703v.655a35.73166,35.73166,0,0,1-6.389,1.614,22.10235,22.10235,0,0,0-5.23,1.533,6.57841,6.57841,0,0,0-2.819,2.527,7.06513,7.06513,0,0,0-1.007,3.756,6.92618,6.92618,0,0,0,2.212,5.266,8.46823,8.46823,0,0,0,6.05,2.082,10.32634,10.32634,0,0,0,4.095-.818,11.85572,11.85572,0,0,0,3.604-2.457q.069.1875.233.771.3735,1.287.632,1.942h6.506a14.04379,14.04379,0,0,1-1.182-3.335,26.59527,26.59527,0,0,1-.316-4.832l.07-7.676q0-4.281-.877-5.885a6.55161,6.55161,0,0,0-3.031-2.645,15.723,15.723,0,0,0-6.553-1.041q-4.8435,0-7.301,1.731a9.28447,9.28447,0,0,0-3.463,5.335l5.967,1.077a4.81294,4.81294,0,0,1,1.592-2.421Zm7.207,9.068a12.95145,12.95145,0,0,1-.258,3.206,4.1143,4.1143,0,0,1-1.567,2.177,5.69773,5.69773,0,0,1-3.394,1.17,3.59547,3.59547,0,0,1-2.621-1.007,3.22441,3.22441,0,0,1-1.029-2.387,2.74326,2.74326,0,0,1,1.287-2.316,12.02494,12.02494,0,0,1,3.58-1.146,41.2193,41.2193,0,0,0,4.002-1.007v1.31Z"/><circle class="cls-1" cx="117.73" cy="117.73" r="112"/><path class="cls-2" d="M171.562,67.592c-11.986,4.55-35.581,21.023-61.227,43.48-25.704,22.507-45.107,44.276-51.152,55.536-.759,2.26-5.467,2.983-5.092.119,1.034-7.896,22.708-33.074,53.121-59.709,29.907-26.191,54.493-43.012,63.455-44.548C173.337,62.013,174.146,66.473,171.562,67.592Z"/><path class="cls-3" d="M64.014,67.693c12.15,4.091,36.354,19.655,62.833,41.122,26.54,21.515,46.757,42.531,53.225,53.554.844,2.229,5.576,2.773,5.093-.075-1.333-7.851-23.947-32.188-55.351-57.647C98.933,79.611,73.726,63.737,64.712,62.542c-2.686-.358-3.323,4.13-.698,5.151Z"/><path class="cls-4" d="M120.23,153.48c-18.667,0-35.785-20.25-35.75-33.75.035-13.429,14.08-32.688,25.148-34.313,8.745-1.284,19.727-1.062,24.477.188s23.25,17.25,22.75,29.75C156.275,129.852,145.153,153.48,120.23,153.48Z"/><path class="cls-5" d="M134.921,85.909c-1.863,2.298-4.833,4.571-7.941,4.571-4.25,0-11,.5-12.5.5s-4.25-1.25-5,1.5-5.5,5.75-6.75,7.5-3.75,5.5-7,6a72.37236,72.37236,0,0,1-8.064,1.104c4.789-10.511,14.12-20.516,21.962-21.667,8.745-1.284,19.727-1.062,24.477.188A5.82175,5.82175,0,0,1,134.921,85.909Z"/><ellipse class="cls-6" cx="105.84703" cy="96.10945" rx="5.169" ry="4.578" transform="translate(-37.12205 95.42934) rotate(-41.967)"/><ellipse class="cls-6" cx="112.52351" cy="107.44358" rx="3.141" ry="2.782" transform="translate(-42.9889 102.80122) rotate(-41.96716)"/><ellipse class="cls-6" cx="116.51323" cy="91.59452" rx="2.785" ry="2.467" transform="translate(-31.36652 101.41635) rotate(-41.97182)"/><path class="cls-7" d="M109.628,85.417q3.30861-.475,6.648-.675a9.60578,9.60578,0,0,1-2.296,1.863,106.65765,106.65765,0,0,0-11.75,8.25c-2.5,2.125-10.125,9.125-12.625,9.375a.436.436,0,0,1-.417-.167C94.255,94.726,102.543,86.457,109.628,85.417Z"/><path class="cls-8" d="M150.98,113.98c-1.75,0-1.75,5-1.75,5s-4,1.5-5,3-3.25,5-5.75,4.25-8.25-1.75-8.25-1.75l-6.5,2-14.75,2.75a58.66983,58.66983,0,0,0-6-1c-1.25,0-7,1.25-8.75,1.25s-5.5-3-4.75-.75,8.75,11.5,12.25,13.75,8.5,7.75,19.5,7.75,25.5-12.5,26.75-15.5,6.25-7.875,6.25-14.25C154.23,116.697,152.73,113.98,150.98,113.98Z"/><circle class="cls-9" cx="90.48" cy="121.48" r="3.75"/><circle class="cls-9" cx="99.98" cy="130.23" r="4.25"/><circle class="cls-9" cx="128.23" cy="114.232" r="2.857"/><circle class="cls-9" cx="139.945" cy="117.659" r="2.571"/><circle class="cls-9" cx="143.08699" cy="108.236" r="4"/><circle class="cls-9" cx="139.08699" cy="131.65" r="4"/><path class="cls-10" d="M113.873,96.858c1.71-1.554,4.101-1.685,5.339-.294,1.237,1.392.854,3.778-.855,5.331-1.71,1.554-4.101,1.685-5.338.294C111.779,100.797,112.162,98.411,113.873,96.858Zm-11.98,7.271c1.315-1.194,3.154-1.295,4.106-.226.952,1.07.658,2.905-.658,4.1s-3.153,1.296-4.105.226C100.283,107.16,100.578,105.324,101.893,104.129Z"/><path class="cls-11" d="M172.23,107.605c-2.25-1.5.625-8.25,5.375-6s10.125,7,10,13.875-6,14.75-12,15.125-4.75-7.375-3.25-8.25,6.25-3,6.125-7.25S174.48,109.105,172.23,107.605Z"/><ellipse class="cls-12" cx="174.90697" cy="104.80336" rx="2.44" ry="1.39101" transform="translate(-19.14054 167.42728) rotate(-48.81599)"/><ellipse class="cls-12" cx="174.58215" cy="126.08265" rx="1.494" ry="2.621" transform="translate(-32.9021 68.41076) rotate(-20.303)"/><path class="cls-11" d="M67.572,108.19c2.361-1.319.024-8.273-4.887-6.403-4.912,1.87-10.644,6.184-11.059,13.047s4.824,15.176,10.776,16.021,5.314-6.979,3.888-7.97-5.995-3.481-5.537-7.708C61.211,110.949,65.211,109.508,67.572,108.19Z"/><ellipse class="cls-12" cx="65.12039" cy="105.18324" rx="1.391" ry="2.44" transform="translate(-49.93743 59.73131) rotate(-36.682)"/><ellipse class="cls-12" cx="63.77542" cy="126.41408" rx="2.62199" ry="1.494" transform="translate(-77.73354 131.21416) rotate(-65.172)"/><path class="cls-11" d="M111.605,56.23c-1.125-2.75-6.125-1.25-7.375,0s-2.375,4.125-1.25,6.375,6.5,10.562,16.5,10.562c11.125,0,17.5-7.688,18.625-11.688s-1.5-4.875-2.625-5.625-5.375-.875-6.5,1.375-5.125,5.5-8.625,5.5C114.355,62.73,112.73,58.98,111.605,56.23Z"/><ellipse class="cls-12" cx="107.15791" cy="58.34231" rx="3.313" ry="1.75" transform="matrix(0.76506, -0.64396, 0.64396, 0.76506, -12.39423, 82.71293)"/><ellipse class="cls-12" cx="133.44357" cy="58.64332" rx="1.517" ry="2.871" transform="translate(13.82532 141.93618) rotate(-58.574)"/><path class="cls-11" d="M128.33,182.297c1.021,2.79,6.073,1.479,7.369.277,1.297-1.202,2.529-4.032,1.49-6.323-1.04-2.291-6.098-10.8-16.091-11.177-11.117-.419-17.777,7.023-19.052,10.979-1.275,3.954,1.315,4.928,2.411,5.72s5.338,1.076,6.547-1.13,5.329-5.303,8.827-5.171c5.996.227,7.477,4.034,8.499,6.825Z"/><ellipse class="cls-12" cx="132.8393" cy="180.34261" rx="3.312" ry="1.75" transform="translate(-82.79457 119.74748) rotate(-37.929)"/><ellipse class="cls-12" cx="106.5883" cy="179.06699" rx="1.516" ry="2.871" transform="translate(-101.54654 168.77428) rotate(-56.406)"/><path class="cls-13" d="M59.184,166.609c-.509,1.385,1.188,2.724,2.609,2.184,11.36-3.647,35.213-20.513,61.556-43.318,26.353-22.813,46.073-44.255,51.3-54.972,1.773-2.681-.502-4.029-3.086-2.91-2.424.676-3.1-4.737-.895-5.121,6.172-1.076,10.137,2.313,9.776,6.133-1,10.599-22.599,33.826-53.552,60.931-30.416,26.634-57.869,44.699-66.348,44.699a6.92058,6.92058,0,0,1-6.453-7.506c.366-2.715,5.45-1.505,5.093-.12Z"/><path class="cls-13" d="M180.072,162.369c.561,1.364-1.084,2.767-2.523,2.28-11.491-3.213-35.968-19.16-63.158-40.948-27.2-21.796-47.72-42.473-53.351-52.983-1.875-2.611.349-4.045,2.974-3.024,2.448.582,2.917-4.853.699-5.152-6.208-.84-10.042,2.697-9.536,6.5,1.402,10.553,23.867,32.943,55.828,58.853,31.406,25.459,59.525,42.469,67.998,42.146a6.9199,6.9199,0,0,0,6.163-7.746C184.697,159.595,179.663,160.999,180.072,162.369Z"/></svg>