<svg xmlns="http://www.w3.org/2000/svg" role="img" viewBox="-11.76 -11.76 611.52 136.52"><path fill="#237536" d="M237.24607 65.4398l-.68798 6.42797 22.59143.07506-1.4693 13.57046-.70531 6.33838h-23.18609c-6.70783-.29373-12.41569-2.8718-15.94493-6.33838-.46932-.45932-.94265-.91291-1.29197-1.39103-3.66124-4.26976-5.81852-11.50291-5.86919-20.49016-.01066-2.1494.09333-4.39935.332-6.73676 1.93995-17.84862 10.94639-31.06069 31.07255-31.06069h19.29819c6.5945-.28026 12.18236-5.4088 13.241-11.92997l.11866-1.35676.94398-8.50286h-33.25117c-30.12991 0-54.19331 19.26819-57.83989 53.60493-.12666 1.1525-.21066 2.28634-.28266 3.41231-.58932 9.1415.48132 17.40277 3.10126 24.451 5.89185 15.79754 19.47818 25.52698 39.13369 25.52698 2.76793 0 9.3011-.16197 9.3011-.16197h42.6056l2.69993-25.36502 1.98395-18.7474 1.6053-15.17255h-46.01219zm-115.61471 9.15083c2.37234-5.87692 5.88479-14.19178 8.81898-21.3728 1.0677-2.61247 2.05781-5.08067 2.88633-7.21808 2.06128-5.4384 4.18123-11.03573 6.12384-16.48613l5.21987 26.13842 3.7839 18.9386zm49.0937-15.15735L156.40943 4.10026h-27.6017l-21.16974 44.64888L90.20454 85.5133l-11.99863 25.38429 19.05992-.0026c5.12174-.06563 9.65803-3.05566 12.06584-7.39097.93904-1.77651 2.53527-5.92022 2.53527-5.92022l1.58542-3.7811h38.95583l.76265 3.79737.53065 2.68789c.06133.45676.176.88956.29333 1.32393 1.3533 5.33891 6.05851 9.21174 11.83303 9.2831l18.17688.0026-6.52917-25.38429zM71.9118 39.35298c-.03026.2532-.0672.49372-.09906.73798-2.04835 15.74294-13.82726 16.0424-23.56288 16.0424H32.36172l2.877-27.23732.54265-5.1312H52.5487c7.6498 0 21.0088 0 19.36311 15.58814zm21.00308 16.78038c1.74262-3.01406 3.09472-6.31811 4.03683-9.76016.61465-2.24327 1.06037-4.54575 1.3161-6.87223.76665-7.26235-.2932-15.88293-3.7071-21.93798C86.73582 4.10026 71.2622 4.10026 53.9013 4.10026H11.3518L9.73726 19.29988 2.70515 85.51329 0 110.89758l14.17885-.0026c6.7717-.0849 12.59701-5.30508 13.59392-11.98722l.114-1.30464L29.1894 85.5133l1.05718-9.5523h17.53396c14.41684-.31092 33.95342-.76517 45.13434-19.82763zm483.71204-40.97031c-4.19856-4.93948-9.87442-9.19364-17.54223-11.9857C552.90218.91074 546.37434.0081 540.07583.0081c-29.68592 0-49.5041 20.85107-56.10126 45.36193-.95731 3.5723-1.64796 7.22275-2.03729 10.9008-.11333 1.34582-.23599 2.67912-.29199 4.00203h26.12202c.06666-1.42344.18-2.90727.29332-4.4495.73332-6.85809 2.69327-13.04647 5.6052-18.20834 5.31986-9.42056 13.85698-15.37615 24.23806-15.37615 4.60788 0 8.9371 1.2765 12.49568 3.43952.70665.43012 1.3933.87597 2.03462 1.3729 4.65055 3.53524 35.66044 25.81335 35.66044 25.81335.248-8.67112-.95064-25.33003-11.46771-37.70159zM451.8647 38.291c-1.52263 14.21738-13.70632 14.52524-17.47156 14.67684h-21.89412l3.12259-28.90248h22.4701c5.53587.15786 15.1863.60319 13.773 14.22564zM438.86236 4.10026H391.2009l-6.13852 57.74536-2.51593 23.66767-2.70794 25.38429 14.18098-.0026c6.77183-.0849 12.59569-5.29467 13.59966-11.9575l.17333-1.33436 1.29597-12.08983 1.35463-12.73355h16.59159l5.70785 12.73355 5.2932 12.0289s1.88663 4.11707 2.65194 5.88265c1.88395 4.3624 6.11851 7.37638 11.24105 7.43263l21.29814.0401-11.8277-25.38428-8.06114-17.26877c6.38917-2.3318 18.35554-6.54517 23.09676-21.13547.80664-2.47754 1.41063-5.2452 1.73329-8.36286 1.05997-9.68882-1.4693-18.15834-5.8212-23.75554-8.65578-10.58053-22.42477-10.7404-33.48449-10.89039zM294.02332 66.76483l-1.97462 18.74846-2.71193 25.38429 70.43824-.0026c7.17848-.0849 13.357-5.99881 13.82632-13.29186l.8293-7.73674h-56.49725l.472-4.35309 2.0466-19.25885.18934-1.79742h34.44447c4.72921-.33226 9.43443-.69572 14.10098-1.09478l2.00928-19.17552h-48.43612l2.05995-19.35831 39.54834-.0136c6.76783-.08013 12.58902-5.28894 13.585-11.94344.064-.43692.12266-.88957.18133-1.3369l.76131-7.43421h-78.25938zm267.05999-7.62168c-1.76263 12.61168-7.12383 20.97028-13.65966 25.88842-4.98388 3.45151-11.27705 5.58053-16.52892 5.58053-4.64389 0-9.41443-1.3713-13.477-4.3707-.29333-.22865-.58532-.45985-.94264-.7281-9.5331-7.05717-34.8298-25.20565-34.8298-25.20565-.47065 9.10551.82265 17.70583 3.7639 25.20564 6.46918 16.42774 21.06615 27.63371 43.1336 27.63371 10.93972 0 23.18342-2.56504 34.42314-11.18513 5.4932-4.12182 10.84906-10.0774 14.92762-16.44858h.02c.06267-.10053.12-.20733.18-.30826.04933-.07866.10533-.15573.156-.2344h-.016c5.00254-8.11912 8.53311-17.60062 9.56775-27.64103.116-.99211.232-2.529.29333-4.45816h-26.42067c-.05733 2.07595-.292 4.18843-.59065 6.27171"/></svg>