<svg id="Layer_1" data-name="Layer 1" xmlns="http://www.w3.org/2000/svg" viewBox="0 0 282.88 355.67999"><defs><style>.cls-1{fill:#ee0f55;}.cls-2{fill:#fefafb;}</style></defs><title>parl-ai</title><circle class="cls-1" cx="140.27891" cy="138.22035" r="136.03456"/><path class="cls-2" d="M6.22637,142.3474l-.13193.002-.13189-.00382v-9.22622a2.33751,2.33751,0,0,1,.255-.00214Z"/><path class="cls-2" d="M81.95017,184.98306a74.01787,74.01787,0,0,1-16.50725.875,72.67863,72.67863,0,0,1-16.22728-3.2827c2.52259-2.96563,4.931-5.81193,7.35525-8.64471q29.53173-34.50893,59.08728-68.99741a3.4634,3.4634,0,0,0,.81166-2.48529c-.01719-7.40307-.20192-14.81218.02813-22.20813.59-18.97033,9.13752-33.31091,26.11749-41.88072C170.44428,24.31384,204.176,41.413,209.55823,71.99417a47.03131,47.03131,0,0,1-3.97469,28.94073c-.50526,1.066-.96753,1.15916-1.90884.69034-1.37226-.68346-2.81619-1.22531-4.17534-1.93185-.80711-.41955-1.13881-.18847-1.55521.53281a38.94557,38.94557,0,0,1-11.93373,12.93953c-.92926.63108-.857.99041-.20808,1.78768,18.47549,22.69829,17.24508,53.99074-3.1397,75.04491a54.02044,54.02044,0,0,1-35.16078,16.62325c-1.24618.10766-1.6618.48819-1.89013,1.76913-2.98176,16.72782-12.52739,28.25577-27.97167,35.07875-1.72665.76284-1.16092-.56154-1.16176-1.204q-.03377-25.96779-.0313-51.93559c-.00067-.699.37544-1.6809-.29088-2.03191-.54021-.28458-1.14337.54816-1.69028.91312A64.48967,64.48967,0,0,1,76.551,200.08354c-1.319-.0245-1.42938-.34291-.90269-1.44655,1.88482-3.94953,3.70533-7.92979,5.54573-11.90048C81.42751,186.23287,81.63464,185.71706,81.95017,184.98306Zm57.43,26.89655A78.92021,78.92021,0,0,1,122.278,223.605c-.41352.20622-.84211.3782-.84211.94372V235.959a37.9285,37.9285,0,0,0,9.07152-7.33086,37.40863,37.40863,0,0,0,9.1398-16.50625.36464.36464,0,0,0,.15988-.4903l-.00875-.01622ZM78.17036,156.38739a22.65134,22.65134,0,0,0,5.41691-.67735c2.47054-.40692,2.4721-.416,3.27351,1.89981.29746.85957.5726,1.72685.86689,2.58757,1.361,3.98047,3.45885,5.03868,7.47413,3.80733,1.51232-.46379,3.24524-1.52169,4.50752-1.12654,1.32267.41406,1.55845,2.6015,2.34232,3.97369a6.60649,6.60649,0,0,0,.38791.758c.96817,1.26836,1.90453,2.75411,3.57512,2.9923,3.9831.56795,7.9.40677,10.922-2.77838.95624-1.00785,1.53495-.83292,2.26665.09874,2.81392,3.583,6.28424,5.50377,10.97652,4.29327a.4349.4349,0,0,1,.17-.00777c.314.04822.73013-.17182.9156.212.17876.36993-.16763.62476-.36989.87871a75.72226,75.72226,0,0,1-8.35926,9.452,3.18244,3.18244,0,0,0-1.13308,2.65131c.034,10.36249.01729,20.72514.02833,31.08774a3.02186,3.02186,0,0,0,.16543,1.6665,4.0017,4.0017,0,0,0,1.828-.82753,71.221,71.221,0,0,0,26.2477-97.24155q-.88435-1.53827-1.8445-3.03106a2.98693,2.98693,0,0,1-.3118-3.10681q14.15-36.00576,28.25-72.03122c.49749-1.26509.1921-1.64318-.99626-1.96667A45.47365,45.47365,0,0,0,160.06,38.49435c-1.15527.06735-1.5498.42252-1.46632,1.64388a37.70871,37.70871,0,0,1-1.455,13.3299,2.03407,2.03407,0,0,0,.4353,2.14147,13.64674,13.64674,0,0,1-16.24548,21.1863,2.32894,2.32894,0,0,0-2.48044.16378,37.6486,37.6486,0,0,1-15.93013,5.16488c-1.31977.11844-1.52951.56256-1.52037,1.74032.053,6.83207.014,13.66481.03952,20.4972a3.467,3.467,0,0,1-.83612,2.48008q-15.58077,18.12411-31.1081,36.29421C85.80071,147.44917,82.11642,151.76872,78.17036,156.38739Zm77.18442-36.91964c13.58628,28.5588,11.60288,55.813-6.23449,81.89919a1.50472,1.50472,0,0,0,.39846.076,8.832,8.832,0,0,0,1.01737-.10848,51.24476,51.24476,0,0,0,31.17624-83.56379c-.74509-.87024-1.28136-1.38755-2.63314-.78415a37.65881,37.65881,0,0,1-14.04777,3.19136,46.85611,46.85611,0,0,1-9.67668-.71008ZM205.388,80.383c-.77886-16.75445-8.13561-29.458-23.14368-37.47131-.90492-.48317-1.37308-.58548-1.82742.58948Q173.74981,60.74173,166.961,77.93512c-.32642.83008-.26479,1.23382.63679,1.64621q16.88779,7.72464,33.73232,15.54382c.84552.39159,1.21735.34661,1.56088-.64727A43.62544,43.62544,0,0,0,205.388,80.383ZM82.9129,194.89372c.47217,0,.75589.02365,1.0347-.00338a59.24031,59.24031,0,0,0,36.517-16.9871c1.08829-1.056,1.087-1.57679-.24289-2.26855a6.93151,6.93151,0,0,1-1.66329-1.44723.99577.99577,0,0,0-1.46213-.238c-2.40319,1.532-5.16019,1.60708-7.8745,1.846-5.25054.46217-8.97821-1.83006-11.43232-6.36563-.37082-.6853-.7271-.79-1.4779-.59425-6.58027,1.71548-10.82769-.45418-13.13057-6.7425a1.26338,1.26338,0,0,0-1.77151-.94662,8.8816,8.8816,0,0,1-5.53472-.25717,1.58938,1.58938,0,0,0-2.13634.64134c-2.33976,2.78767-4.72894,5.53384-7.09337,8.30087-2.79527,3.27124-5.58407,6.548-8.49368,9.96079.53016.12208.84106.20437,1.15616.26472a58.41534,58.41534,0,0,0,24.36716-.58442c.62023-.143,1.207-.32958,1.39065-1.058.42882-1.70124,1.39194-1.75836,2.69653-.89968a5.8996,5.8996,0,0,0,1.38331.65548c1.05588.34877,1.16319.84831.67475,1.8697C87.49458,184.90268,85.2649,189.811,82.9129,194.89372Zm79.38376-79.63427c13.30675-.00018,24.79517-6.47956,30.96446-16.84771.57433-.96521.52965-1.35009-.53738-1.83566q-13.40458-6.09986-26.75456-12.319c-.94535-.44-1.3451-.36422-1.73751.65174q-5.33633,13.8158-10.77606,27.59139c-.42872,1.08388-.0823,1.34315.88646,1.59555A36.53728,36.53728,0,0,0,162.29666,115.25945Zm-9.86149-63.55027a33.68653,33.68653,0,0,0,1.283-10.6083c-.00677-1.23767-.40286-1.49659-1.60185-1.17987-16.2396,4.2899-28.94858,19.35419-30.46834,36.10418-.09643,1.06285.14813,1.2798,1.14869,1.16072a36.67574,36.67574,0,0,0,11.8635-3.55745c1.154-.56443,1.52657-.94207.74167-2.2853a13.0529,13.0529,0,0,1,.12193-14.07872C138.927,51.58527,145.08362,49.60715,152.43517,51.70918Z"/><path class="cls-1" d="M78.17036,156.38739c3.94606-4.61867,7.63035-8.9382,11.32248-13.251q15.54333-18.1563,31.1081-36.2942a3.467,3.467,0,0,0,.83612-2.48007c-.02556-6.8324.01343-13.66513-.03952-20.49721-.00914-1.17776.2006-1.62188,1.52037-1.74032A37.6486,37.6486,0,0,0,138.848,76.9597a2.32894,2.32894,0,0,1,2.48044-.16378,13.64674,13.64674,0,0,0,16.2454-21.18629,2.03408,2.03408,0,0,1-.4353-2.14148,37.70845,37.70845,0,0,0,1.455-13.3299c-.08349-1.22136.311-1.57653,1.46633-1.64388A45.474,45.474,0,0,1,174.77,39.95149c1.18835.32349,1.49374.70158.99626,1.96667q-14.15751,36.00282-28.25,72.03123a2.98692,2.98692,0,0,0,.31179,3.10681,71.221,71.221,0,0,1-21.37219,98.4281q-1.49229.95984-3.031,1.84447a4.0017,4.0017,0,0,1-1.828.82753,3.02191,3.02191,0,0,1-.16543-1.66651c-.011-10.36259.00568-20.72525-.02832-31.08774a3.18237,3.18237,0,0,1,1.13307-2.6513,75.72173,75.72173,0,0,0,8.35926-9.452c.20225-.254.54864-.50877.36989-.87871-.18546-.3838-.6016-.16375-.91561-.212a.43454.43454,0,0,0-.17.00777c-4.69229,1.21049-8.16259-.7103-10.97653-4.29328-.73169-.93165-1.31041-1.10658-2.26665-.09874-3.022,3.18515-6.93888,3.34632-10.922,2.77838-1.6706-.2382-2.60695-1.72393-3.57513-2.99229a6.60413,6.60413,0,0,1-.3879-.758c-.78387-1.37219-1.01965-3.55961-2.34232-3.97369-1.26229-.39514-2.9952.66275-4.50753,1.12654-4.01528,1.23135-6.11312.17314-7.47412-3.80733-.29429-.8607-.56943-1.728-.86689-2.58757-.8014-2.31582-.803-2.30673-3.27351-1.89981A22.6507,22.6507,0,0,1,78.17036,156.38739Z"/><path class="cls-1" d="M155.35477,119.46775a46.85611,46.85611,0,0,0,9.67668.71007,37.6592,37.6592,0,0,0,14.04777-3.19136c1.35178-.60341,1.888-.08609,2.63314.78414a51.24478,51.24478,0,0,1-31.17624,83.5638,8.832,8.832,0,0,1-1.01737.10847,1.50511,1.50511,0,0,1-.39846-.07594C166.95766,175.28072,168.941,148.02655,155.35477,119.46775Z"/><path class="cls-1" d="M205.388,80.383a43.62556,43.62556,0,0,1-2.497,14.09483c-.34354.99388-.71537,1.03887-1.56089.64728Q184.47887,87.321,167.59781,79.58133c-.9016-.41239-.96321-.81613-.6368-1.64621q6.76454-17.20266,13.45589-34.43391c.45436-1.175.92252-1.07265,1.82742-.58948C197.2524,50.925,204.60918,63.62858,205.388,80.383ZM188.03163,67.25478a2.825,2.825,0,0,0,2.85292-2.79681q.00081-.08065-.003-.16126a2.86634,2.86634,0,0,0-2.83438-2.89793q-.04524-.0005-.09046.00043a2.916,2.916,0,0,0-2.95827,2.87311q-.00135.09252.00318.185a2.86726,2.86726,0,0,0,2.93162,2.8014Q187.98247,67.25759,188.03163,67.25478Z"/><path class="cls-1" d="M82.9129,194.89372c2.352-5.08279,4.58168-9.991,6.907-14.85357.48844-1.02138.38113-1.52094-.67475-1.86971a5.89956,5.89956,0,0,1-1.38331-.65547c-1.30459-.85867-2.26771-.80156-2.69653.89967-.18361.72844-.77042.915-1.39065,1.058a58.41535,58.41535,0,0,1-24.36716.58443c-.3151-.06037-.626-.14264-1.15616-.26473,2.90961-3.41278,5.69841-6.68954,8.49368-9.96078,2.36443-2.767,4.75361-5.51318,7.09337-8.30087a1.58938,1.58938,0,0,1,2.13634-.64135,8.88153,8.88153,0,0,0,5.53472.25718,1.26338,1.26338,0,0,1,1.7715.94662c2.30289,6.28832,6.5503,8.458,13.13058,6.74249.7508-.19572,1.10708-.09106,1.4779.59426,2.45411,4.53555,6.18178,6.8278,11.43232,6.36563,2.71431-.23892,5.47132-.314,7.8745-1.846a.99587.99587,0,0,1,1.46212.238,6.93138,6.93138,0,0,0,1.6633,1.44724c1.32991.69175,1.33118,1.21257.24289,2.26855a59.24028,59.24028,0,0,1-36.51694,16.98709C83.66879,194.91737,83.38507,194.89372,82.9129,194.89372Z"/><path class="cls-1" d="M162.29666,115.25945a36.53739,36.53739,0,0,1-7.9546-1.16368c-.96877-.25239-1.31519-.51166-.88646-1.59554q5.44756-13.77227,10.77607-27.59139c.39241-1.016.79215-1.09169,1.73751-.65174q13.3521,6.21389,26.75456,12.319c1.067.48556,1.11171.87044.53738,1.83567C187.09183,108.77989,175.60341,115.25927,162.29666,115.25945Z"/><path class="cls-1" d="M152.43517,51.70918c-7.35155-2.102-13.50814-.12391-16.91134,5.55526a13.053,13.053,0,0,0-.12193,14.07872c.7849,1.34323.41229,1.72087-.74167,2.2853a36.67537,36.67537,0,0,1-11.86354,3.55743c-1.00055.11909-1.24511-.09786-1.14869-1.16071,1.51976-16.75,14.22876-31.81428,30.46835-36.10418,1.199-.31672,1.59509-.0578,1.60187,1.17987A33.68692,33.68692,0,0,1,152.43517,51.70918Z"/><path class="cls-1" d="M139.64717,212.12181a37.40876,37.40876,0,0,1-9.1398,16.50626,37.92894,37.92894,0,0,1-9.07153,7.33085V224.54865c0-.56551.42859-.73749.84211-.94373a78.91986,78.91986,0,0,0,17.10221-11.72533Z"/><path class="cls-1" d="M139.38022,211.87958l.41814-.26427a.36466.36466,0,0,1-.13494.49774l-.0162.00876Z"/><path class="cls-2" d="M188.03163,67.25478a2.86727,2.86727,0,0,1-3.02608-2.6991q-.00279-.04915-.00392-.09837a2.916,2.916,0,0,1,2.77011-3.05493q.09243-.00453.185-.00317a2.86632,2.86632,0,0,1,2.9244,2.807q.00095.04524.00043.09046a2.825,2.825,0,0,1-2.68864,2.95506Q188.11233,67.25558,188.03163,67.25478Z"/><path d="M58.67818,295.09087a23.28041,23.28041,0,0,1,8.91937,1.52518,16.7053,16.7053,0,0,1,5.98486,4.02943,15.49576,15.49576,0,0,1,3.3643,5.71091,21.33913,21.33913,0,0,1,0,13.26138,15.41709,15.41709,0,0,1-3.3643,5.75043,16.67077,16.67077,0,0,1-5.98486,4.02943,23.26245,23.26245,0,0,1-8.91937,1.52608H45.76891v20.0286H33.4857V295.09087Zm-3.3643,26.28742a25.65239,25.65239,0,0,0,4.06851-.31258,9.464,9.464,0,0,0,3.44244-1.21261,6.61122,6.61122,0,0,0,2.38614-2.54287,10.73606,10.73606,0,0,0,0-8.60588,6.6113,6.6113,0,0,0-2.38614-2.54287,9.48062,9.48062,0,0,0-3.44244-1.21261,25.75732,25.75732,0,0,0-4.06851-.31348h-9.545v16.7429Z"/><path d="M84.027,322.943a12.89778,12.89778,0,0,1,1.95588-6.49326,13.31812,13.31812,0,0,1,4.38109-4.1471,19.09848,19.09848,0,0,1,5.98532-2.22939,34.064,34.064,0,0,1,6.68952-.66558,45.39348,45.39348,0,0,1,6.18068.43115,18.93261,18.93261,0,0,1,5.71135,1.68147,11.26264,11.26264,0,0,1,4.2248,3.48152,9.731,9.731,0,0,1,1.64285,5.90762V341.9548a42.22271,42.22271,0,0,0,.313,5.242,9.45068,9.45068,0,0,0,1.09539,3.75547H110.94044a15.7509,15.7509,0,0,1-.50839-1.91681,16.50374,16.50374,0,0,1-.274-1.995,14.47862,14.47862,0,0,1-6.25882,3.83362,25.15289,25.15289,0,0,1-7.35421,1.09493,19.84937,19.84937,0,0,1-5.39833-.70421A12.347,12.347,0,0,1,86.7652,349.075a10.19049,10.19049,0,0,1-2.934-3.75547,12.69508,12.69508,0,0,1-1.05586-5.39833,11.78429,11.78429,0,0,1,1.2126-5.67228,10.13552,10.13552,0,0,1,3.12941-3.56056,14.04754,14.04754,0,0,1,4.38109-1.995,47.46875,47.46875,0,0,1,4.96852-1.05631q2.50268-.38937,4.92856-.62516a29.81533,29.81533,0,0,0,4.30339-.70421A7.50142,7.50142,0,0,0,108.672,324.938a3.00629,3.00629,0,0,0,1.01679-2.621,5.8958,5.8958,0,0,0-.58654-2.85545,4.32287,4.32287,0,0,0-1.56471-1.64285,6.18467,6.18467,0,0,0-2.26891-.78236,18.721,18.721,0,0,0-2.77776-.19581,8.43347,8.43347,0,0,0-5.16344,1.40842,6.28221,6.28221,0,0,0-2.19077,4.69411Zm25.66181,8.21516a4.98807,4.98807,0,0,1-1.76007.97817,18.02223,18.02223,0,0,1-2.26891.58654q-1.214.23443-2.54288.39162-1.33116.15763-2.66009.39073a20.04339,20.04339,0,0,0-2.46427.62606,7.29644,7.29644,0,0,0-2.11263,1.05631A5.01645,5.01645,0,0,0,94.43244,336.87a5.40552,5.40552,0,0,0-.54747,2.58149,5.21571,5.21571,0,0,0,.54747,2.50335A4.18765,4.18765,0,0,0,95.919,343.559a6.2777,6.2777,0,0,0,2.19076.821,13.90458,13.90458,0,0,0,2.582.23533,9.81352,9.81352,0,0,0,5.08529-1.09583,7.3242,7.3242,0,0,0,2.66009-2.621,8.39222,8.39222,0,0,0,1.05632-3.08989,21.45367,21.45367,0,0,0,.19536-2.50425Z"/><path d="M139.9652,310.50349v7.51095h.15809a13.57128,13.57128,0,0,1,2.11083-3.48152,13.884,13.884,0,0,1,3.05216-2.73868,14.96106,14.96106,0,0,1,3.67733-1.76052,13.27763,13.27763,0,0,1,4.069-.62606,8.68514,8.68514,0,0,1,2.4252.39162v10.32778c-.52277-.10419-1.14793-.19581-1.87908-.274a19.89783,19.89783,0,0,0-2.11263-.11766,11.84673,11.84673,0,0,0-5.163,1.01679,8.94555,8.94555,0,0,0-3.40247,2.7782,11.12579,11.12579,0,0,0-1.83956,4.10668,22.38576,22.38576,0,0,0-.54792,5.08575v18.22945H129.40389V310.50349Z"/><path d="M171.26112,295.09087v55.86144H160.151V295.09087Z"/><path d="M209.0494,295.09087l20.8891,55.86144h-12.753l-4.22435-12.4395h-20.89l-4.38063,12.4395H175.32828l21.12443-55.86144Zm.70421,34.26814-7.04207-20.49837h-.1563L195.27963,329.359Z"/><path d="M247.07212,295.09087v55.86144H234.78891V295.09087Z"/></svg>