<svg id="Layer_1" data-name="Layer 1" xmlns="http://www.w3.org/2000/svg" viewBox="0 0 820 430"><defs><style>.cls-1{fill:#002747;}.cls-2{fill:#60cfff;}</style></defs><path class="cls-1" d="M84.38322,346.21139H50.32341v53.49824H39.65724V279.63984H84.21029c22.879,0,39.3929,8.77365,39.3929,33.19931C123.60319,337.61067,107.77825,346.21139,84.38322,346.21139Zm-.516-56.24985H50.32341v46.27263h33.5438c15.6534,0,29.07119-4.29967,29.07119-23.395C112.9384,293.91812,99.34906,289.96154,83.86721,289.96154Z"/><path class="cls-1" d="M216.48475,364.13837l-40.75427-.03659-13.4178,35.60785H150.7874l46.10111-120.06979h12.38576l46.1011,120.06979H244.02164L203.0807,292.0256l-23.73811,62.615,33.54505.0366Z"/><path class="cls-1" d="M352.22587,344.31887c3.78366,2.58008,6.87975,6.88114,9.46122,11.18219l26.8342,44.20857H375.964L350.5049,356.87618c-3.61211-6.02065-7.74024-11.69682-16.51389-11.69682h-18.7495v54.53027H304.57534V279.63984h41.28542c22.53453,0,38.70395,9.63275,38.70395,33.02777C384.56471,330.72954,373.38391,341.7388,352.22587,344.31887Zm-6.36511-54.18579H315.24151v45.41353h30.61925c15.48186,0,27.86762-5.16154,27.86762-22.879C373.72838,294.77722,360.99814,290.13308,345.86076,290.13308Z"/><path class="cls-1" d="M482.2757,401.25767c-24.084,0-40.94095-8.94519-46.274-31.13525l10.3217-1.89251c4.29967,17.54591,20.126,22.879,35.95233,22.879,14.62137,0,31.65128-7.56869,31.65128-24.94306,0-35.78077-73.79719-14.79429-73.79719-57.11034,0-21.158,19.09536-30.61923,38.53241-30.61923,19.2669,0,32.85624,6.7082,41.457,23.39363l-9.46122,4.301C503.7782,293.05763,493.285,288.585,478.6622,288.585c-11.86836,0-27.69469,4.64414-27.69469,20.47047,0,31.13525,73.7958,11.69682,73.7958,57.11034C524.76331,389.04484,503.94975,401.25767,482.2757,401.25767Z"/><path class="cls-1" d="M656.01671,399.70963H579.12343V279.63984h76.89328v10.49324H589.7896v42.489h57.79793v9.97722H589.7896v46.61711h66.22711Z"/><path class="cls-1" d="M789.16539,382.50818c-10.83771,12.55731-19.95445,18.74949-37.32883,18.74949-35.60786,0-48.68118-29.75874-48.68118-61.58294,0-31.99573,12.90178-61.58294,48.68118-61.58294,16.68682,0,26.66405,6.02065,37.15729,18.23348l-7.74162,7.2256c-8.08471-9.28966-15.825-14.79429-29.41567-14.79429-30.27477,0-37.84347,27.18-37.84347,50.91815s7.5687,50.91816,37.84347,50.91816c13.59072,0,21.5025-5.67756,29.5886-15.13738Z"/><path class="cls-2" d="M494.35227,34.138H383.8817a7.60255,7.60255,0,1,0,0,4.41134H491.04377V158.698l-21.73023,17.936a7.58052,7.58052,0,0,0-11.53765,4.91749,7.60507,7.60507,0,0,0,14.80287,3.45814,7.5304,7.5304,0,0,0-.38711-5.02957l22.86264-18.8705a1.10285,1.10285,0,0,0,.40082-.85053V35.24084A1.10283,1.10283,0,0,0,494.35227,34.138ZM376.64516,39.53479a3.19058,3.19058,0,1,1,3.19-3.19111A3.19445,3.19445,0,0,1,376.64516,39.53479Zm88.594,146.68451a3.19,3.19,0,1,1,3.19-3.19A3.19446,3.19446,0,0,1,465.23917,186.2193Z"/><path class="cls-2" d="M417.10971,195.1949l-26.31052-21.71461a7.31681,7.31681,0,0,0,.36576-5.91648,7.59367,7.59367,0,1,0-9.50679,9.75874,7.36515,7.36515,0,0,0,6.0976-.6327l28.65194,23.64663a1.10282,1.10282,0,0,0,1.404,0l60.02373-49.54229a1.10281,1.10281,0,0,0,.40082-.85053V61.16957a7.60146,7.60146,0,1,0-4.41134,0v87.213Zm-36.27938-25.08517a3.19058,3.19058,0,1,1,3.19111,3.19A3.19354,3.19354,0,0,1,380.83033,170.10973ZM472.84054,53.932a3.19111,3.19111,0,1,1,3.19,3.19111A3.19331,3.19331,0,0,1,472.84054,53.932Z"/><path class="cls-2" d="M373.19988,70.41738v69.21087a1.10283,1.10283,0,0,0,.40082.85054l36.49621,30.12312a7.69806,7.69806,0,0,0-.13549,5.56514,7.39608,7.39608,0,0,0,4.72037,4.586,7.61688,7.61688,0,1,0-1.77247-13.55136l-35.2981-29.13451V73.72588h78.997v57.96854a7.60147,7.60147,0,1,0,4.41134,0v-61.277a1.10283,1.10283,0,0,0-1.10283-1.10283h-85.614A1.10283,1.10283,0,0,0,373.19988,70.41738Zm43.90983,99.92067a3.19111,3.19111,0,1,1-3.19112,3.19219A3.19514,3.19514,0,0,1,417.10971,170.33805ZM462.0039,138.931a3.19,3.19,0,1,1-3.19-3.19A3.19262,3.19262,0,0,1,462.0039,138.931Z"/><path class="cls-2" d="M360.00494,156.81242a7.5821,7.5821,0,0,0,.38849-14.626V56.13761h68.56932a7.60147,7.60147,0,1,0,0-4.41133H357.08493a1.10283,1.10283,0,0,0-1.10284,1.10283v89.35732a7.58683,7.58683,0,0,0,4.02285,14.626ZM436.1993,50.74191a3.19058,3.19058,0,1,1-3.19,3.19A3.19331,3.19331,0,0,1,436.1993,50.74191Zm-78.01154,95.491a3.19,3.19,0,1,1-3.19111,3.19A3.19331,3.19331,0,0,1,358.18776,146.23293Z"/><path class="cls-2" d="M444.52728,190.80841a7.4283,7.4283,0,0,0-4.76035,4.52749,7.62909,7.62909,0,0,0,.08685,5.6124l-22.74407,18.7739L343.17564,158.698V43.5813a7.60254,7.60254,0,1,0-4.41133,0V160.259a1.10282,1.10282,0,0,0,.40082.85054l77.24255,63.75417a1.10283,1.10283,0,0,0,1.404,0l24.83388-20.49812a7.60858,7.60858,0,1,0,1.88168-13.55717ZM337.77886,36.34368A3.19112,3.19112,0,1,1,340.97,39.53479,3.19423,3.19423,0,0,1,337.77886,36.34368ZM446.87654,201.24541a3.19,3.19,0,1,1,3.19219-3.19A3.19261,3.19261,0,0,1,446.87654,201.24541Z"/></svg>