<?xml version="1.0" encoding="utf-8"?>
<!-- Generator: Adobe Illustrator 19.1.0, SVG Export Plug-In . SVG Version: 6.00 Build 0)  -->
<svg version="1.1" xmlns="http://www.w3.org/2000/svg" xmlns:xlink="http://www.w3.org/1999/xlink" x="0px" y="0px"
	 viewBox="0 0 943 267" enable-background="new 0 0 943 267" xml:space="preserve">
<g id="Layer_1">
	<g>
		<circle fill="#FFFFFF" cx="127.1" cy="133.5" r="106.1"/>
		<g>
			<linearGradient id="SVGID_1_" gradientUnits="userSpaceOnUse" x1="127.0852" y1="30.8086" x2="127.0852" y2="235.0399">
				<stop  offset="5.102041e-03" style="stop-color:#FFB700"/>
				<stop  offset="1.647841e-02" style="stop-color:#FBAC00"/>
				<stop  offset="5.679980e-02" style="stop-color:#EE8D00"/>
				<stop  offset="0.1025" style="stop-color:#E47200"/>
				<stop  offset="0.154" style="stop-color:#DB5C00"/>
				<stop  offset="0.2143" style="stop-color:#D44B00"/>
				<stop  offset="0.2888" style="stop-color:#CF3F00"/>
				<stop  offset="0.3934" style="stop-color:#CD3800"/>
				<stop  offset="0.6836" style="stop-color:#CC3600"/>
				<stop  offset="1" style="stop-color:#CC3600"/>
			</linearGradient>
			<path fill="url(#SVGID_1_)" d="M127.1,27.4C68.5,27.4,21,74.9,21,133.5c0,36.1,18.1,68,45.7,87.2v-87.2
				c0-33.4,27.1-60.4,60.4-60.4s60.4,27.1,60.4,60.4c0,33.4-27.1,60.4-60.4,60.4c-13.5,0-25.9-4.5-36-11.9v51.3
				c11.2,4,23.3,6.3,36,6.3c58.6,0,106.1-47.5,106.1-106.1C233.2,74.9,185.7,27.4,127.1,27.4z"/>
			<circle fill="#FFB700" cx="127.1" cy="133.5" r="35.3"/>
			<path fill="#E0A000" d="M127.1,101.6c18.9,0,34.3,14.9,35.3,33.6c0-0.6,0.1-1.2,0.1-1.7c0-19.5-15.8-35.3-35.3-35.3
				S91.7,114,91.7,133.5c0,0.6,0.1,1.2,0.1,1.7C92.7,116.5,108.2,101.6,127.1,101.6z"/>
		</g>
		<path fill="#292C2E" d="M300.1,169V98h29.7c16.2,0,26.6,9.5,26.6,24.2c0,14.5-11,24.6-26.6,24.6h-13.9V169H300.1z M328.9,133.4
			c7.4,0,11.7-4.1,11.7-11.2c0-7-4.2-10.8-11.7-10.8h-13v22.1H328.9z"/>
		<polygon fill="#292C2E" points="390.7,169 390.7,98 441,98 441,111.5 406.5,111.5 406.5,126.3 438,126.3 438,139.9 406.5,139.9 
			406.5,155.6 441.1,155.6 441.1,169 		"/>
		<path fill="#292C2E" d="M517.8,169L505.2,147h-12.9V169h-15.8V98h32.2c15.8,0,25.9,9.6,25.9,24.5c0,9.7-4.9,17.7-13.2,21.7
			l14.7,24.8H517.8z M507,133.8c7.4,0,11.8-4.3,11.8-11.4c0-7.1-4.3-11.1-11.8-11.1h-14.7v22.6H507z"/>
		<path fill="#292C2E" d="M696,170.4c-19.3,0-31.8-12.5-31.8-31.9v-10.1c0-19.4,12.5-31.9,31.8-31.9c19.6,0,31.8,12.2,31.8,31.9
			v10.1C727.8,158.2,715.6,170.4,696,170.4z M696,110.1c-10.1,0-16,6.5-16,17.7v11.4c0,11.3,5.8,17.7,16,17.7c10.1,0,16-6.5,16-17.7
			v-11.4C712,116.5,706.2,110.1,696,110.1z"/>
		<polygon fill="#292C2E" points="807.7,169 779.2,125.4 779.2,169 763.7,169 763.7,98 778.3,98 806.9,141.6 806.9,98 822.4,98 
			822.4,169 		"/>
		<path fill="#292C2E" d="M907.3,169l-4.6-14.5h-25.4l-4.6,14.5h-15.8l25.5-71h15.4l25.5,71H907.3z M898.5,141.6l-8.5-26.9
			l-8.6,26.9H898.5z"/>
		<g>
			<g>
				<path fill="#292C2E" d="M616.2,144c-1.2,8.2-6.7,13.1-15,13.1c-13.5,0-15.5-11.2-15.5-17.9v-11.2c0-6.7,2-17.9,15.5-17.9
					c8.2,0,13.8,4.9,15,13l14.7-2.2c-2-14.4-13.8-24.2-29.6-24.2c-19.5,0-31.2,11.9-31.2,32v9.9c0,20,11.7,32,31.2,32
					c15.9,0,27.7-9.8,29.6-24.2L616.2,144z"/>
			</g>
		</g>
	</g>
</g>
<g id="Guides" display="none">
	<g display="inline">
		
			<circle fill="none" stroke="#888888" stroke-width="0.5" stroke-miterlimit="10" stroke-dasharray="1.016,2.0319" cx="-38.2" cy="224.5" r="11.2"/>
	</g>
	<g display="inline">
		
			<circle fill="none" stroke="#888888" stroke-width="0.5" stroke-miterlimit="10" stroke-dasharray="1.016,2.0319" cx="-38.2" cy="313.8" r="11.2"/>
	</g>
	<g display="inline">
		
			<circle fill="none" stroke="#888888" stroke-width="0.5" stroke-miterlimit="10" stroke-dasharray="1.016,2.0319" cx="-82.8" cy="269.2" r="11.2"/>
	</g>
	<g display="inline">
		
			<circle fill="none" stroke="#888888" stroke-width="0.5" stroke-miterlimit="10" stroke-dasharray="1.016,2.0319" cx="215.5" cy="269.6" r="11.2"/>
	</g>
	<g display="inline">
		
			<circle fill="none" stroke="#888888" stroke-width="0.5" stroke-miterlimit="10" stroke-dasharray="1.016,2.0319" cx="6.5" cy="269.2" r="11.2"/>
	</g>
	<g display="inline">
		
			<circle fill="none" stroke="#888888" stroke-width="0.5" stroke-miterlimit="10" stroke-dasharray="1.016,2.0319" cx="31.4" cy="269.2" r="11.2"/>
	</g>
	<g display="inline">
		
			<circle fill="none" stroke="#888888" stroke-width="0.5" stroke-miterlimit="10" stroke-dasharray="1.016,2.0319" cx="55.5" cy="269.2" r="11.2"/>
	</g>
	<g display="inline">
		
			<circle fill="none" stroke="#888888" stroke-width="0.5" stroke-miterlimit="10" stroke-dasharray="1.016,2.0319" cx="81.1" cy="269.2" r="11.2"/>
	</g>
	<g display="inline">
		
			<circle fill="none" stroke="#888888" stroke-width="0.5" stroke-miterlimit="10" stroke-dasharray="1.016,2.0319" cx="108.7" cy="269.2" r="11.2"/>
	</g>
	<g display="inline">
		
			<circle fill="none" stroke="#888888" stroke-width="0.5" stroke-miterlimit="10" stroke-dasharray="1.016,2.0319" cx="140.4" cy="269.2" r="11.2"/>
	</g>
	<g display="inline">
		
			<circle fill="none" stroke="#888888" stroke-width="0.5" stroke-miterlimit="10" stroke-dasharray="1.016,2.0319" cx="170.5" cy="269.2" r="11.2"/>
	</g>
	
		<line display="inline" fill="none" stroke="#888888" stroke-width="0.5" stroke-miterlimit="10" stroke-dasharray="1,2" x1="-109" y1="257.8" x2="237.3" y2="258.2"/>
	
		<line display="inline" fill="none" stroke="#888888" stroke-width="0.5" stroke-miterlimit="10" stroke-dasharray="1,2" x1="-109" y1="280" x2="237.3" y2="280.4"/>
	
		<line display="inline" fill="none" stroke="#888888" stroke-width="0.5" stroke-miterlimit="10" stroke-dasharray="1,2" x1="-109" y1="776.5" x2="243" y2="777"/>
	
		<line display="inline" fill="none" stroke="#888888" stroke-width="0.5" stroke-miterlimit="10" stroke-dasharray="1,2" x1="-109" y1="798.7" x2="243" y2="799.2"/>
	<g display="inline">
		
			<circle fill="none" stroke="#888888" stroke-width="0.5" stroke-miterlimit="10" stroke-dasharray="1.016,2.0319" cx="-38.2" cy="743" r="11.2"/>
	</g>
	<g display="inline">
		
			<circle fill="none" stroke="#888888" stroke-width="0.5" stroke-miterlimit="10" stroke-dasharray="1.016,2.0319" cx="-38.2" cy="832.3" r="11.2"/>
	</g>
	<g display="inline">
		
			<circle fill="none" stroke="#888888" stroke-width="0.5" stroke-miterlimit="10" stroke-dasharray="1.016,2.0319" cx="-82.8" cy="787.6" r="11.2"/>
	</g>
	<g display="inline">
		
			<circle fill="none" stroke="#888888" stroke-width="0.5" stroke-miterlimit="10" stroke-dasharray="1.016,2.0319" cx="6.5" cy="787.6" r="11.2"/>
	</g>
	
		<line display="inline" fill="none" stroke="#888888" stroke-width="0.5" stroke-miterlimit="10" stroke-dasharray="1,2" x1="31.2" y1="235.7" x2="31.2" y2="298"/>
	<g display="inline">
		<g>
			
				<circle fill="none" stroke="#888888" stroke-width="0.5" stroke-miterlimit="10" stroke-dasharray="1.016,2.0319" cx="33.7" cy="787.7" r="11.2"/>
		</g>
		
			<line fill="none" stroke="#888888" stroke-width="0.5" stroke-miterlimit="10" stroke-dasharray="1,2" x1="33.7" y1="756.5" x2="33.7" y2="818.9"/>
	</g>
	<g display="inline">
		<g>
			
				<circle fill="none" stroke="#888888" stroke-width="0.5" stroke-miterlimit="10" stroke-dasharray="1.016,2.0319" cx="60.3" cy="787.7" r="11.2"/>
		</g>
		
			<line fill="none" stroke="#888888" stroke-width="0.5" stroke-miterlimit="10" stroke-dasharray="1,2" x1="60.3" y1="756.5" x2="60.3" y2="818.9"/>
	</g>
	<g display="inline">
		<g>
			
				<circle fill="none" stroke="#888888" stroke-width="0.5" stroke-miterlimit="10" stroke-dasharray="1.016,2.0319" cx="89.2" cy="787.7" r="11.2"/>
		</g>
		
			<line fill="none" stroke="#888888" stroke-width="0.5" stroke-miterlimit="10" stroke-dasharray="1,2" x1="89.2" y1="756.5" x2="89.2" y2="818.9"/>
	</g>
	<g display="inline">
		<g>
			
				<circle fill="none" stroke="#888888" stroke-width="0.5" stroke-miterlimit="10" stroke-dasharray="1.016,2.0319" cx="118.8" cy="787.7" r="11.2"/>
		</g>
		
			<line fill="none" stroke="#888888" stroke-width="0.5" stroke-miterlimit="10" stroke-dasharray="1,2" x1="118.8" y1="756.5" x2="118.8" y2="818.9"/>
	</g>
	<g display="inline">
		<g>
			
				<circle fill="none" stroke="#888888" stroke-width="0.5" stroke-miterlimit="10" stroke-dasharray="1.016,2.0319" cx="149.3" cy="787.7" r="11.2"/>
		</g>
		
			<line fill="none" stroke="#888888" stroke-width="0.5" stroke-miterlimit="10" stroke-dasharray="1,2" x1="149.3" y1="756.5" x2="149.3" y2="818.9"/>
	</g>
	<g display="inline">
		<g>
			
				<circle fill="none" stroke="#888888" stroke-width="0.5" stroke-miterlimit="10" stroke-dasharray="1.016,2.0319" cx="178.4" cy="787.7" r="11.2"/>
		</g>
		
			<line fill="none" stroke="#888888" stroke-width="0.5" stroke-miterlimit="10" stroke-dasharray="1,2" x1="178.4" y1="756.5" x2="178.4" y2="818.9"/>
	</g>
	
		<line display="inline" fill="none" stroke="#888888" stroke-width="0.5" stroke-miterlimit="10" stroke-dasharray="1,2" x1="189.6" y1="756.5" x2="189.6" y2="818.9"/>
	
		<line display="inline" fill="none" stroke="#888888" stroke-width="0.5" stroke-miterlimit="10" stroke-dasharray="1,2" x1="210" y1="756.5" x2="210" y2="818.9"/>
	<g display="inline">
		<g>
			
				<circle fill="none" stroke="#888888" stroke-width="0.5" stroke-miterlimit="10" stroke-dasharray="1.016,2.0319" cx="221.1" cy="787.7" r="11.2"/>
		</g>
	</g>
	
		<line display="inline" fill="none" stroke="#888888" stroke-width="0.5" stroke-miterlimit="10" stroke-dasharray="1,2" x1="55.1" y1="235.7" x2="55.1" y2="298"/>
	
		<line display="inline" fill="none" stroke="#888888" stroke-width="0.5" stroke-miterlimit="10" stroke-dasharray="1,2" x1="81.1" y1="235.7" x2="81.1" y2="298"/>
	
		<line display="inline" fill="none" stroke="#888888" stroke-width="0.5" stroke-miterlimit="10" stroke-dasharray="1,2" x1="108.7" y1="235.7" x2="108.7" y2="298"/>
	
		<line display="inline" fill="none" stroke="#888888" stroke-width="0.5" stroke-miterlimit="10" stroke-dasharray="1,2" x1="140.4" y1="235.7" x2="140.4" y2="298"/>
	
		<line display="inline" fill="none" stroke="#888888" stroke-width="0.5" stroke-miterlimit="10" stroke-dasharray="1,2" x1="170.5" y1="235.7" x2="170.5" y2="298"/>
	
		<line display="inline" fill="none" stroke="#888888" stroke-width="0.5" stroke-miterlimit="10" stroke-dasharray="1,2" x1="181.6" y1="235.7" x2="181.6" y2="298"/>
	<g display="inline">
		
			<line fill="none" stroke="#888888" stroke-width="0.5" stroke-miterlimit="10" stroke-dasharray="1,2" x1="237.3" y1="325.4" x2="-109" y2="325"/>
		
			<line fill="none" stroke="#888888" stroke-width="0.5" stroke-miterlimit="10" stroke-dasharray="1,2" x1="-109" y1="213.3" x2="237.3" y2="213.8"/>
		
			<line fill="none" stroke="#888888" stroke-width="0.5" stroke-miterlimit="10" stroke-dasharray="1,2" x1="-94" y1="334.9" x2="-94" y2="203.4"/>
		
			<line fill="none" stroke="#888888" stroke-width="0.5" stroke-miterlimit="10" stroke-dasharray="1,2" x1="226.6" y1="203.9" x2="226.6" y2="335.4"/>
	</g>
	<g display="inline">
		
			<line fill="none" stroke="#888888" stroke-width="0.5" stroke-miterlimit="10" stroke-dasharray="1,2" x1="243" y1="844" x2="-109" y2="843.6"/>
		
			<line fill="none" stroke="#888888" stroke-width="0.5" stroke-miterlimit="10" stroke-dasharray="1,2" x1="-109" y1="731.9" x2="243" y2="732.4"/>
		
			<line fill="none" stroke="#888888" stroke-width="0.5" stroke-miterlimit="10" stroke-dasharray="1,2" x1="-94" y1="853.5" x2="-94" y2="722"/>
		
			<line fill="none" stroke="#888888" stroke-width="0.5" stroke-miterlimit="10" stroke-dasharray="1,2" x1="232.3" y1="719.6" x2="232.3" y2="853.9"/>
	</g>
	
		<line display="inline" fill="none" stroke="#888888" stroke-width="0.5" stroke-miterlimit="10" stroke-dasharray="1,2" x1="204.3" y1="235.7" x2="204.3" y2="298"/>
	<g display="inline">
		
			<circle fill="none" stroke="#888888" stroke-width="0.5" stroke-miterlimit="10" stroke-dasharray="1.016,2.0319" cx="-38.2" cy="391.1" r="11.2"/>
	</g>
	<g display="inline">
		
			<circle fill="none" stroke="#888888" stroke-width="0.5" stroke-miterlimit="10" stroke-dasharray="1.016,2.0319" cx="-38.2" cy="480.4" r="11.2"/>
	</g>
	<g display="inline">
		
			<circle fill="none" stroke="#888888" stroke-width="0.5" stroke-miterlimit="10" stroke-dasharray="1.016,2.0319" cx="-82.8" cy="435.8" r="11.2"/>
	</g>
	<g display="inline">
		
			<circle fill="none" stroke="#888888" stroke-width="0.5" stroke-miterlimit="10" stroke-dasharray="1.016,2.0319" cx="215.5" cy="436.2" r="11.2"/>
	</g>
	<g display="inline">
		
			<circle fill="none" stroke="#888888" stroke-width="0.5" stroke-miterlimit="10" stroke-dasharray="1.016,2.0319" cx="6.5" cy="435.8" r="11.2"/>
	</g>
	<g display="inline">
		
			<circle fill="none" stroke="#888888" stroke-width="0.5" stroke-miterlimit="10" stroke-dasharray="1.016,2.0319" cx="31.4" cy="435.8" r="11.2"/>
	</g>
	<g display="inline">
		
			<circle fill="none" stroke="#888888" stroke-width="0.5" stroke-miterlimit="10" stroke-dasharray="1.016,2.0319" cx="55.5" cy="435.8" r="11.2"/>
	</g>
	<g display="inline">
		
			<circle fill="none" stroke="#888888" stroke-width="0.5" stroke-miterlimit="10" stroke-dasharray="1.016,2.0319" cx="81.1" cy="435.8" r="11.2"/>
	</g>
	<g display="inline">
		
			<circle fill="none" stroke="#888888" stroke-width="0.5" stroke-miterlimit="10" stroke-dasharray="1.016,2.0319" cx="108.7" cy="435.8" r="11.2"/>
	</g>
	<g display="inline">
		
			<circle fill="none" stroke="#888888" stroke-width="0.5" stroke-miterlimit="10" stroke-dasharray="1.016,2.0319" cx="140.4" cy="435.8" r="11.2"/>
	</g>
	<g display="inline">
		
			<circle fill="none" stroke="#888888" stroke-width="0.5" stroke-miterlimit="10" stroke-dasharray="1.016,2.0319" cx="170.5" cy="435.8" r="11.2"/>
	</g>
	
		<line display="inline" fill="none" stroke="#888888" stroke-width="0.5" stroke-miterlimit="10" stroke-dasharray="1,2" x1="-109" y1="424.4" x2="237.3" y2="424.8"/>
	
		<line display="inline" fill="none" stroke="#888888" stroke-width="0.5" stroke-miterlimit="10" stroke-dasharray="1,2" x1="-109" y1="446.6" x2="237.3" y2="447"/>
	
		<line display="inline" fill="none" stroke="#888888" stroke-width="0.5" stroke-miterlimit="10" stroke-dasharray="1,2" x1="31.2" y1="402.3" x2="31.2" y2="464.6"/>
	
		<line display="inline" fill="none" stroke="#888888" stroke-width="0.5" stroke-miterlimit="10" stroke-dasharray="1,2" x1="55.1" y1="402.3" x2="55.1" y2="464.6"/>
	
		<line display="inline" fill="none" stroke="#888888" stroke-width="0.5" stroke-miterlimit="10" stroke-dasharray="1,2" x1="81.1" y1="402.3" x2="81.1" y2="464.6"/>
	
		<line display="inline" fill="none" stroke="#888888" stroke-width="0.5" stroke-miterlimit="10" stroke-dasharray="1,2" x1="108.7" y1="402.3" x2="108.7" y2="464.6"/>
	
		<line display="inline" fill="none" stroke="#888888" stroke-width="0.5" stroke-miterlimit="10" stroke-dasharray="1,2" x1="140.4" y1="402.3" x2="140.4" y2="464.6"/>
	
		<line display="inline" fill="none" stroke="#888888" stroke-width="0.5" stroke-miterlimit="10" stroke-dasharray="1,2" x1="170.5" y1="402.3" x2="170.5" y2="464.6"/>
	
		<line display="inline" fill="none" stroke="#888888" stroke-width="0.5" stroke-miterlimit="10" stroke-dasharray="1,2" x1="181.6" y1="402.3" x2="181.6" y2="464.6"/>
	<g display="inline">
		
			<line fill="none" stroke="#888888" stroke-width="0.5" stroke-miterlimit="10" stroke-dasharray="1,2" x1="237.3" y1="492" x2="-109" y2="491.6"/>
		
			<line fill="none" stroke="#888888" stroke-width="0.5" stroke-miterlimit="10" stroke-dasharray="1,2" x1="-109" y1="380" x2="237.3" y2="380.4"/>
		
			<line fill="none" stroke="#888888" stroke-width="0.5" stroke-miterlimit="10" stroke-dasharray="1,2" x1="-94" y1="501.5" x2="-94" y2="370"/>
		
			<line fill="none" stroke="#888888" stroke-width="0.5" stroke-miterlimit="10" stroke-dasharray="1,2" x1="226.6" y1="370.5" x2="226.6" y2="502"/>
	</g>
	
		<line display="inline" fill="none" stroke="#888888" stroke-width="0.5" stroke-miterlimit="10" stroke-dasharray="1,2" x1="204.3" y1="402.3" x2="204.3" y2="464.6"/>
	<g display="inline">
		
			<circle fill="none" stroke="#888888" stroke-width="0.5" stroke-miterlimit="10" stroke-dasharray="1.016,2.0319" cx="-38.2" cy="576.1" r="11.2"/>
	</g>
	<g display="inline">
		
			<circle fill="none" stroke="#888888" stroke-width="0.5" stroke-miterlimit="10" stroke-dasharray="1.016,2.0319" cx="-38.2" cy="665.4" r="11.2"/>
	</g>
	<g display="inline">
		
			<circle fill="none" stroke="#888888" stroke-width="0.5" stroke-miterlimit="10" stroke-dasharray="1.016,2.0319" cx="-82.8" cy="620.8" r="11.2"/>
	</g>
	<g display="inline">
		
			<circle fill="none" stroke="#888888" stroke-width="0.5" stroke-miterlimit="10" stroke-dasharray="1.016,2.0319" cx="215.5" cy="621.2" r="11.2"/>
	</g>
	<g display="inline">
		
			<circle fill="none" stroke="#888888" stroke-width="0.5" stroke-miterlimit="10" stroke-dasharray="1.016,2.0319" cx="6.5" cy="620.8" r="11.2"/>
	</g>
	<g display="inline">
		
			<circle fill="none" stroke="#888888" stroke-width="0.5" stroke-miterlimit="10" stroke-dasharray="1.016,2.0319" cx="31.4" cy="620.9" r="11.2"/>
	</g>
	<g display="inline">
		
			<circle fill="none" stroke="#888888" stroke-width="0.5" stroke-miterlimit="10" stroke-dasharray="1.016,2.0319" cx="55.5" cy="620.9" r="11.2"/>
	</g>
	<g display="inline">
		
			<circle fill="none" stroke="#888888" stroke-width="0.5" stroke-miterlimit="10" stroke-dasharray="1.016,2.0319" cx="81.1" cy="620.9" r="11.2"/>
	</g>
	<g display="inline">
		
			<circle fill="none" stroke="#888888" stroke-width="0.5" stroke-miterlimit="10" stroke-dasharray="1.016,2.0319" cx="108.7" cy="620.9" r="11.2"/>
	</g>
	<g display="inline">
		
			<circle fill="none" stroke="#888888" stroke-width="0.5" stroke-miterlimit="10" stroke-dasharray="1.016,2.0319" cx="140.4" cy="620.9" r="11.2"/>
	</g>
	<g display="inline">
		
			<circle fill="none" stroke="#888888" stroke-width="0.5" stroke-miterlimit="10" stroke-dasharray="1.016,2.0319" cx="170.5" cy="620.9" r="11.2"/>
	</g>
	
		<line display="inline" fill="none" stroke="#888888" stroke-width="0.5" stroke-miterlimit="10" stroke-dasharray="1,2" x1="-109" y1="609.4" x2="237.3" y2="609.9"/>
	
		<line display="inline" fill="none" stroke="#888888" stroke-width="0.5" stroke-miterlimit="10" stroke-dasharray="1,2" x1="-109" y1="631.6" x2="237.3" y2="632.1"/>
	
		<line display="inline" fill="none" stroke="#888888" stroke-width="0.5" stroke-miterlimit="10" stroke-dasharray="1,2" x1="31.2" y1="587.3" x2="31.2" y2="649.6"/>
	
		<line display="inline" fill="none" stroke="#888888" stroke-width="0.5" stroke-miterlimit="10" stroke-dasharray="1,2" x1="55.1" y1="587.3" x2="55.1" y2="649.6"/>
	
		<line display="inline" fill="none" stroke="#888888" stroke-width="0.5" stroke-miterlimit="10" stroke-dasharray="1,2" x1="81.1" y1="587.3" x2="81.1" y2="649.6"/>
	
		<line display="inline" fill="none" stroke="#888888" stroke-width="0.5" stroke-miterlimit="10" stroke-dasharray="1,2" x1="108.7" y1="587.3" x2="108.7" y2="649.6"/>
	
		<line display="inline" fill="none" stroke="#888888" stroke-width="0.5" stroke-miterlimit="10" stroke-dasharray="1,2" x1="140.4" y1="587.3" x2="140.4" y2="649.6"/>
	
		<line display="inline" fill="none" stroke="#888888" stroke-width="0.5" stroke-miterlimit="10" stroke-dasharray="1,2" x1="170.5" y1="587.3" x2="170.5" y2="649.6"/>
	
		<line display="inline" fill="none" stroke="#888888" stroke-width="0.5" stroke-miterlimit="10" stroke-dasharray="1,2" x1="181.6" y1="587.3" x2="181.6" y2="649.6"/>
	<g display="inline">
		
			<line fill="none" stroke="#888888" stroke-width="0.5" stroke-miterlimit="10" stroke-dasharray="1,2" x1="237.3" y1="677" x2="-109" y2="676.6"/>
		
			<line fill="none" stroke="#888888" stroke-width="0.5" stroke-miterlimit="10" stroke-dasharray="1,2" x1="-109" y1="565" x2="237.3" y2="565.4"/>
		
			<line fill="none" stroke="#888888" stroke-width="0.5" stroke-miterlimit="10" stroke-dasharray="1,2" x1="-94" y1="686.5" x2="-94" y2="555"/>
		
			<line fill="none" stroke="#888888" stroke-width="0.5" stroke-miterlimit="10" stroke-dasharray="1,2" x1="226.6" y1="555.5" x2="226.6" y2="687"/>
	</g>
	
		<line display="inline" fill="none" stroke="#888888" stroke-width="0.5" stroke-miterlimit="10" stroke-dasharray="1,2" x1="204.3" y1="587.3" x2="204.3" y2="649.6"/>
</g>
</svg>
