<?xml version="1.0" encoding="UTF-8"?><svg id="Layer_1" xmlns="http://www.w3.org/2000/svg" xmlns:xlink="http://www.w3.org/1999/xlink" viewBox="0 0 1350 250"><defs><style>.cls-1{fill:url(#linear-gradient);}.cls-2{fill:#7ce2df;}.cls-3{fill:#23a899;}.cls-4{fill:#292837;}.cls-5{fill:url(#linear-gradient-3);}.cls-6{fill:url(#linear-gradient-4);}.cls-7{fill:url(#linear-gradient-2);}</style><linearGradient id="linear-gradient" x1="90.71" y1="56.33" x2="169.37" y2="56.33" gradientTransform="matrix(1, 0, 0, 1, 0, 0)" gradientUnits="userSpaceOnUse"><stop offset="0" stop-color="#315e7a" stop-opacity="0"/><stop offset=".29" stop-color="#2f536c" stop-opacity=".2"/><stop offset=".79" stop-color="#2b3648" stop-opacity=".74"/><stop offset="1" stop-color="#292837"/></linearGradient><linearGradient id="linear-gradient-2" x1="43.27" y1="123.84" x2="157.05" y2="126.09" gradientTransform="matrix(1, 0, 0, 1, 0, 0)" gradientUnits="userSpaceOnUse"><stop offset="0" stop-color="#23a899"/><stop offset=".1" stop-color="#24a297"/><stop offset=".22" stop-color="#279291"/><stop offset=".36" stop-color="#2d7888"/><stop offset=".45" stop-color="#326582"/><stop offset=".51" stop-color="#2f5771"/><stop offset=".62" stop-color="#2c4257"/><stop offset=".74" stop-color="#2a3345"/><stop offset=".86" stop-color="#292a3a"/><stop offset="1" stop-color="#292837"/></linearGradient><linearGradient id="linear-gradient-3" x1="11.11" y1="56.16" x2="90.71" y2="56.16" gradientTransform="matrix(1, 0, 0, 1, 0, 0)" gradientUnits="userSpaceOnUse"><stop offset="0" stop-color="#326582"/><stop offset=".42" stop-color="#2c7f8b" stop-opacity=".6"/><stop offset="1" stop-color="#23a899" stop-opacity="0"/></linearGradient><linearGradient id="linear-gradient-4" x1="-8.51" y1="216.62" x2="39.83" y2="116.31" gradientTransform="matrix(1, 0, 0, 1, 0, 0)" gradientUnits="userSpaceOnUse"><stop offset=".5" stop-color="#23a899" stop-opacity="0"/><stop offset=".57" stop-color="#23a497" stop-opacity=".05"/><stop offset=".67" stop-color="#269a94" stop-opacity=".2"/><stop offset=".79" stop-color="#298a8e" stop-opacity=".44"/><stop offset=".92" stop-color="#2e7387" stop-opacity=".78"/><stop offset="1" stop-color="#326582"/></linearGradient></defs><g><path class="cls-4" d="M290.95,60.98l-58.86,.2V198.34l21.19-12.19v-41.98h36.49c24.92,0,41.4-17.66,41.4-41.2s-16.09-41.98-40.22-41.98Zm-5.49,64.54h-32.17v-45.91h32.17c13.54,0,24.33,7.85,24.33,23.15s-10.79,22.76-24.33,22.76Z"/><path class="cls-4" d="M385.71,99.24c-27.86,0-46.69,20.6-46.69,51.01s18.64,50.42,47.28,50.42c23.54,0,39.24-13.93,42.18-33.15h-19.62c-4.51,12.95-16.28,15.11-22.56,15.11-15.5,0-25.7-9.81-25.7-25.9v-.2h69.45c2.35-32.37-14.13-57.29-44.34-57.29Zm-24.52,39.04c.78-12.36,10.79-20.99,23.93-20.99s22.37,8.63,22.95,20.99h-46.89Z"/><path class="cls-4" d="M467.74,112.38v-11.97h-20.21v98.09h20.21v-49.63c0-20.08,10.58-28.52,21.82-30.57,2.27-.41,4.58-.27,6.83-.23h3.34v-17.66h-4.51c-18.64,0-25.5,8.24-27.47,11.97Z"/><path class="cls-4" d="M560.51,79.62h13.34l-.2-18.44h-18.64c-15.69,0-26.88,10.79-26.88,26.09v13.14h-15.3v17.66h15.3v80.44h20.4V118.07h25.11v-17.66h-25.11v-7.85c0-9.81,2.55-12.95,11.97-12.95Z"/><path class="cls-4" d="M628.39,99.24c-27.86,0-46.69,20.6-46.69,51.01s18.64,50.42,47.28,50.42c23.54,0,39.24-13.93,42.18-33.15h-19.62c-4.51,12.95-16.28,15.11-22.56,15.11-15.5,0-25.7-9.81-25.7-25.9v-.2h69.45c2.36-32.37-14.13-57.29-44.34-57.29Zm-24.52,39.04c.78-12.36,10.79-20.99,23.93-20.99s22.37,8.63,22.95,20.99h-46.89Z"/><path class="cls-4" d="M735.7,116.31c12.36,0,19.82,8.44,21.97,17.26h21.97c-2.55-20.6-20.4-35.12-43.16-35.12-28.05,0-47.87,21.19-47.87,51.01s19.42,50.42,47.08,50.42c22.95,0,41.2-14.71,43.95-35.71h-21.97c-1.77,8.83-9.02,17.26-21.58,17.26-14.13,0-25.31-12.36-25.31-33.35s11.18-31.78,24.91-31.78Z"/><path class="cls-4" d="M917.56,118.66c-16.87-1.96-27.86-8.44-27.86-19.23,0-8.63,8.24-18.24,24.33-18.24,14.74,0,27.17,7.86,28.4,21.88l21.1-12.18c-5.87-19.45-23.5-30.88-49.31-30.88-28.45,0-49.05,18.05-49.05,40.22,0,18.44,13.54,35.12,53.76,39.43,18.64,1.96,25.11,8.83,25.11,19.23,0,9.81-9.22,20.6-26.29,20.6s-27.61-8.04-31.45-21.38l-21.45,12.38c8.4,19.74,30.51,29.4,52.9,29.4,29.43,0,50.81-15.69,50.81-40.81,0-19.81-11.57-35.9-51.01-40.41Z"/><path class="cls-4" d="M1032.32,116.31c12.36,0,19.81,8.44,21.97,17.26h21.97c-2.55-20.6-20.4-35.12-43.16-35.12-28.05,0-47.87,21.19-47.87,51.01s19.42,50.42,47.08,50.42c22.95,0,41.2-14.71,43.95-35.71h-21.97c-1.77,8.83-9.02,17.26-21.58,17.26-14.13,0-25.31-12.36-25.31-33.35s11.18-31.78,24.92-31.78Z"/><path class="cls-4" d="M1137.28,98.06c-23.94,0-39.83,15.5-41.59,35.12l21.97-.2c.98-7.26,6.87-15.89,20.6-15.89,10.01,0,16.09,5.49,16.09,11.77,0,10.2-13.93,10.99-26.49,12.16-11.18,.98-20.6,3.73-27.07,8.83-6.08,4.9-8.63,12.56-8.63,20.99,0,18.83,15.69,29.62,33.15,29.62,10.4,0,21.97-4.51,29.04-13.54v11.58h21.78v-66.31c0-19.42-13.93-34.14-38.84-34.14Zm17.07,62.97c-.39,15.5-14.71,21.97-25.5,21.38-9.02-.59-14.13-6.08-14.13-12.95,0-7.65,6.28-11.77,17.07-12.75,9.61-.78,18.44-2.16,22.76-4.51l-.2,8.83Z"/><polygon class="cls-4" points="1203.59 74.28 1203.59 198.51 1225.56 198.51 1225.56 61.59 1203.59 74.28"/><path class="cls-4" d="M1339.15,156.53c2.35-32.37-14.13-57.29-44.34-57.29-27.86,0-46.69,20.6-46.69,51.01s18.64,50.42,47.28,50.42c23.54,0,39.24-13.93,42.18-33.15h-19.62c-4.51,12.95-16.28,15.11-22.56,15.11-15.5,0-25.7-9.81-25.7-25.9v-.2h69.45Zm-44.93-39.24c13.14,0,22.37,8.63,22.95,20.99h-46.89c.78-12.36,10.79-20.99,23.93-20.99Z"/><path class="cls-4" d="M823.39,167.1v-49h25.09v-17.64h-25.09v-31.07l-20.39,11.54v19.53h-15.29v17.64h15.29v54.3c0,14.5,10.05,24.94,24.47,25.98l17.37-14.98,3.84-3.35h-13.33c-9.41,0-11.96-3.14-11.96-12.94Z"/></g><g><path class="cls-4" d="M290.95,60.98l-58.86,.2V198.34l21.19-12.19v-41.98h36.49c24.92,0,41.4-17.66,41.4-41.2s-16.09-41.98-40.22-41.98Zm-5.49,64.54h-32.17v-45.91h32.17c13.54,0,24.33,7.85,24.33,23.15s-10.79,22.76-24.33,22.76Z"/><path class="cls-4" d="M385.71,99.24c-27.86,0-46.69,20.6-46.69,51.01s18.64,50.42,47.28,50.42c23.54,0,39.24-13.93,42.18-33.15h-19.62c-4.51,12.95-16.28,15.11-22.56,15.11-15.5,0-25.7-9.81-25.7-25.9v-.2h69.45c2.35-32.37-14.13-57.29-44.34-57.29Zm-24.52,39.04c.78-12.36,10.79-20.99,23.93-20.99s22.37,8.63,22.95,20.99h-46.89Z"/><path class="cls-4" d="M467.74,112.38v-11.97h-20.21v98.09h20.21v-49.63c0-20.08,10.58-28.52,21.82-30.57,2.27-.41,4.58-.27,6.83-.23h3.34v-17.66h-4.51c-18.64,0-25.5,8.24-27.47,11.97Z"/><path class="cls-4" d="M560.51,79.62h13.34l-.2-18.44h-18.64c-15.69,0-26.88,10.79-26.88,26.09v13.14h-15.3v17.66h15.3v80.44h20.4V118.07h25.11v-17.66h-25.11v-7.85c0-9.81,2.55-12.95,11.97-12.95Z"/><path class="cls-4" d="M628.39,99.24c-27.86,0-46.69,20.6-46.69,51.01s18.64,50.42,47.28,50.42c23.54,0,39.24-13.93,42.18-33.15h-19.62c-4.51,12.95-16.28,15.11-22.56,15.11-15.5,0-25.7-9.81-25.7-25.9v-.2h69.45c2.36-32.37-14.13-57.29-44.34-57.29Zm-24.52,39.04c.78-12.36,10.79-20.99,23.93-20.99s22.37,8.63,22.95,20.99h-46.89Z"/><path class="cls-4" d="M735.7,116.31c12.36,0,19.82,8.44,21.97,17.26h21.97c-2.55-20.6-20.4-35.12-43.16-35.12-28.05,0-47.87,21.19-47.87,51.01s19.42,50.42,47.08,50.42c22.95,0,41.2-14.71,43.95-35.71h-21.97c-1.77,8.83-9.02,17.26-21.58,17.26-14.13,0-25.31-12.36-25.31-33.35s11.18-31.78,24.91-31.78Z"/><path class="cls-4" d="M917.56,118.66c-16.87-1.96-27.86-8.44-27.86-19.23,0-8.63,8.24-18.24,24.33-18.24,14.74,0,27.17,7.86,28.4,21.88l21.1-12.18c-5.87-19.45-23.5-30.88-49.31-30.88-28.45,0-49.05,18.05-49.05,40.22,0,18.44,13.54,35.12,53.76,39.43,18.64,1.96,25.11,8.83,25.11,19.23,0,9.81-9.22,20.6-26.29,20.6s-27.61-8.04-31.45-21.38l-21.45,12.38c8.4,19.74,30.51,29.4,52.9,29.4,29.43,0,50.81-15.69,50.81-40.81,0-19.81-11.57-35.9-51.01-40.41Z"/><path class="cls-4" d="M1032.32,116.31c12.36,0,19.81,8.44,21.97,17.26h21.97c-2.55-20.6-20.4-35.12-43.16-35.12-28.05,0-47.87,21.19-47.87,51.01s19.42,50.42,47.08,50.42c22.95,0,41.2-14.71,43.95-35.71h-21.97c-1.77,8.83-9.02,17.26-21.58,17.26-14.13,0-25.31-12.36-25.31-33.35s11.18-31.78,24.92-31.78Z"/><path class="cls-4" d="M1137.28,98.06c-23.94,0-39.83,15.5-41.59,35.12l21.97-.2c.98-7.26,6.87-15.89,20.6-15.89,10.01,0,16.09,5.49,16.09,11.77,0,10.2-13.93,10.99-26.49,12.16-11.18,.98-20.6,3.73-27.07,8.83-6.08,4.9-8.63,12.56-8.63,20.99,0,18.83,15.69,29.62,33.15,29.62,10.4,0,21.97-4.51,29.04-13.54v11.58h21.78v-66.31c0-19.42-13.93-34.14-38.84-34.14Zm17.07,62.97c-.39,15.5-14.71,21.97-25.5,21.38-9.02-.59-14.13-6.08-14.13-12.95,0-7.65,6.28-11.77,17.07-12.75,9.61-.78,18.44-2.16,22.76-4.51l-.2,8.83Z"/><polygon class="cls-4" points="1203.59 74.28 1203.59 198.51 1225.56 198.51 1225.56 61.59 1203.59 74.28"/><path class="cls-4" d="M1339.15,156.53c2.35-32.37-14.13-57.29-44.34-57.29-27.86,0-46.69,20.6-46.69,51.01s18.64,50.42,47.28,50.42c23.54,0,39.24-13.93,42.18-33.15h-19.62c-4.51,12.95-16.28,15.11-22.56,15.11-15.5,0-25.7-9.81-25.7-25.9v-.2h69.45Zm-44.93-39.24c13.14,0,22.37,8.63,22.95,20.99h-46.89c.78-12.36,10.79-20.99,23.93-20.99Z"/><path class="cls-4" d="M823.39,167.1v-49h25.09v-17.64h-25.09v-31.07l-20.39,11.54v19.53h-15.29v17.64h15.29v54.3c0,14.5,10.05,24.94,24.47,25.98l17.37-14.98,3.84-3.35h-13.33c-9.41,0-11.96-3.14-11.96-12.94Z"/></g><g><polygon class="cls-2" points="50.28 124.53 50.28 168.98 10.81 144.83 11.11 101.53 50.28 124.53"/><polygon class="cls-2" points="169.74 193.37 89.78 238.77 89.78 193.15 169.74 147.67 169.74 193.37"/><polygon class="cls-2" points="90.71 10.69 11.15 56.39 50.69 78.94 90.71 56 90.71 10.69"/><polygon class="cls-3" points="89.78 193.15 63.31 176.88 63.31 223.49 89.78 238.77 89.78 193.15"/><polygon class="cls-3" points="90.71 10.69 90.71 56 130.4 79.19 169.37 56.26 90.71 10.69"/><polygon class="cls-1" points="90.71 10.69 90.71 56 169.37 101.96 169.37 56.26 90.71 10.69"/><polygon class="cls-7" points="91.46 147.87 130.36 124.82 90.62 101.7 50.28 124.53 91.46 147.87"/><polygon class="cls-2" points="169.37 101.96 169.37 56.26 130.52 79.11 90.62 101.7 130.36 124.82 169.37 101.96"/><polygon class="cls-3" points="169.74 147.67 130.36 124.82 91.46 147.87 169.74 193.38 169.74 147.67"/><polygon class="cls-5" points="90.71 10.79 11.15 56.39 11.11 101.54 90.71 56 90.71 10.79"/><polygon class="cls-6" points="50.28 124.53 50.28 168.98 10.81 144.83 11.11 101.53 50.28 124.53"/><polyline class="cls-3" points="78.81 108.39 90.62 101.7 11.15 56.39 11.11 101.54 50.28 124.53"/></g></svg>