<?xml version="1.0" encoding="UTF-8"?>
<svg id="Layer_1" data-name="Layer 1" xmlns="http://www.w3.org/2000/svg" xmlns:xlink="http://www.w3.org/1999/xlink" viewBox="0 0 734.81 581.98">
  <defs>
    <style>
      .cls-1 {
        fill: url(#linear-gradient);
      }

      .cls-2 {
        fill: #7ce2df;
      }

      .cls-3 {
        fill: #23a899;
      }

      .cls-4 {
        fill: #292837;
      }

      .cls-5 {
        fill: url(#linear-gradient-3);
      }

      .cls-6 {
        fill: url(#linear-gradient-4);
      }

      .cls-7 {
        fill: url(#linear-gradient-2);
      }
    </style>
    <linearGradient id="linear-gradient" x1="368.25" y1="846.66" x2="520.21" y2="846.66" gradientTransform="translate(0 934.82) scale(1 -1)" gradientUnits="userSpaceOnUse">
      <stop offset="0" stop-color="#315e7a" stop-opacity="0"/>
      <stop offset=".29" stop-color="#2f536c" stop-opacity=".2"/>
      <stop offset=".79" stop-color="#2b3648" stop-opacity=".74"/>
      <stop offset="1" stop-color="#292837"/>
    </linearGradient>
    <linearGradient id="linear-gradient-2" x1="276.6" y1="716.23" x2="496.41" y2="711.88" gradientTransform="translate(0 934.82) scale(1 -1)" gradientUnits="userSpaceOnUse">
      <stop offset="0" stop-color="#23a899"/>
      <stop offset=".1" stop-color="#24a297"/>
      <stop offset=".22" stop-color="#279291"/>
      <stop offset=".36" stop-color="#2d7888"/>
      <stop offset=".45" stop-color="#326582"/>
      <stop offset=".51" stop-color="#2f5771"/>
      <stop offset=".62" stop-color="#2c4257"/>
      <stop offset=".74" stop-color="#2a3345"/>
      <stop offset=".86" stop-color="#292a3a"/>
      <stop offset="1" stop-color="#292837"/>
    </linearGradient>
    <linearGradient id="linear-gradient-3" x1="214.47" y1="846.97" x2="368.25" y2="846.97" gradientTransform="translate(0 934.82) scale(1 -1)" gradientUnits="userSpaceOnUse">
      <stop offset="0" stop-color="#326582"/>
      <stop offset=".42" stop-color="#2c7f8b" stop-opacity=".6"/>
      <stop offset="1" stop-color="#23a899" stop-opacity="0"/>
    </linearGradient>
    <linearGradient id="linear-gradient-4" x1="176.56" y1="536.99" x2="269.95" y2="730.78" gradientTransform="translate(0 934.82) scale(1 -1)" gradientUnits="userSpaceOnUse">
      <stop offset=".5" stop-color="#23a899" stop-opacity="0"/>
      <stop offset=".57" stop-color="#23a497" stop-opacity=".05"/>
      <stop offset=".67" stop-color="#269a94" stop-opacity=".2"/>
      <stop offset=".79" stop-color="#298a8e" stop-opacity=".44"/>
      <stop offset=".92" stop-color="#2e7387" stop-opacity=".78"/>
      <stop offset="1" stop-color="#326582"/>
    </linearGradient>
  </defs>
  <g>
    <path class="cls-4" d="M39.06,489.28l-39.06,.13v91.02l14.06-8.09v-27.86h24.22c16.54,0,27.47-11.72,27.47-27.34s-10.68-27.86-26.69-27.86h0Zm-3.64,42.82H14.07v-30.47h21.35c8.99,0,16.15,5.21,16.15,15.36s-7.16,15.1-16.15,15.1Z"/>
    <path class="cls-4" d="M101.95,514.67c-18.49,0-30.98,13.67-30.98,33.85s12.37,33.46,31.38,33.46c15.62,0,26.04-9.24,27.99-22h-13.02c-2.99,8.59-10.8,10.03-14.97,10.03-10.29,0-17.06-6.51-17.06-17.19v-.13h46.09c1.56-21.48-9.38-38.02-29.42-38.02Zm-16.27,25.91c.52-8.2,7.16-13.93,15.88-13.93s14.85,5.73,15.23,13.93h-31.11Z"/>
    <path class="cls-4" d="M156.38,523.39v-7.94h-13.41v65.09h13.41v-32.94c0-13.33,7.02-18.93,14.48-20.29,1.51-.27,3.04-.18,4.53-.15h2.22v-11.72h-2.99c-12.37,0-16.92,5.47-18.23,7.94h0Z"/>
    <path class="cls-4" d="M217.95,501.65h8.85l-.13-12.24h-12.37c-10.41,0-17.84,7.16-17.84,17.31v8.72h-10.15v11.72h10.15v53.38h13.54v-53.38h16.66v-11.72h-16.66v-5.21c0-6.51,1.69-8.59,7.94-8.59h0Z"/>
    <path class="cls-4" d="M262.99,514.67c-18.49,0-30.98,13.67-30.98,33.85s12.37,33.46,31.38,33.46c15.62,0,26.04-9.24,27.99-22h-13.02c-2.99,8.59-10.8,10.03-14.97,10.03-10.29,0-17.06-6.51-17.06-17.19v-.13h46.09c1.57-21.48-9.38-38.02-29.42-38.02h0Zm-16.27,25.91c.52-8.2,7.16-13.93,15.88-13.93s14.85,5.73,15.23,13.93h-31.11Z"/>
    <path class="cls-4" d="M334.21,526c8.2,0,13.15,5.6,14.58,11.45h14.58c-1.69-13.67-13.54-23.31-28.64-23.31-18.61,0-31.77,14.06-31.77,33.85s12.89,33.46,31.24,33.46c15.23,0,27.34-9.76,29.17-23.7h-14.58c-1.17,5.86-5.99,11.45-14.32,11.45-9.38,0-16.8-8.2-16.8-22.13s7.42-21.09,16.53-21.09h0Z"/>
    <path class="cls-4" d="M454.89,527.56c-11.2-1.3-18.49-5.6-18.49-12.76,0-5.73,5.47-12.1,16.15-12.1,9.78,0,18.03,5.22,18.85,14.52l14-8.08c-3.9-12.91-15.6-20.49-32.72-20.49-18.88,0-32.55,11.98-32.55,26.69,0,12.24,8.99,23.31,35.68,26.17,12.37,1.3,16.66,5.86,16.66,12.76,0,6.51-6.12,13.67-17.45,13.67s-18.32-5.34-20.87-14.19l-14.23,8.22c5.57,13.1,20.25,19.51,35.11,19.51,19.53,0,33.72-10.41,33.72-27.08,0-13.15-7.68-23.82-33.85-26.82h0Z"/>
    <path class="cls-4" d="M531.05,526c8.2,0,13.15,5.6,14.58,11.45h14.58c-1.69-13.67-13.54-23.31-28.64-23.31-18.61,0-31.77,14.06-31.77,33.85s12.89,33.46,31.24,33.46c15.23,0,27.34-9.76,29.17-23.7h-14.58c-1.17,5.86-5.99,11.45-14.32,11.45-9.38,0-16.8-8.2-16.8-22.13s7.42-21.09,16.54-21.09h0Z"/>
    <path class="cls-4" d="M600.7,513.89c-15.89,0-26.43,10.29-27.6,23.31l14.58-.13c.65-4.82,4.56-10.54,13.67-10.54,6.64,0,10.68,3.64,10.68,7.81,0,6.77-9.24,7.29-17.58,8.07-7.42,.65-13.67,2.48-17.96,5.86-4.03,3.25-5.73,8.34-5.73,13.93,0,12.5,10.41,19.66,22,19.66,6.9,0,14.58-2.99,19.27-8.99v7.68h14.45v-44c0-12.89-9.24-22.66-25.77-22.66h0Zm11.33,41.79c-.26,10.29-9.76,14.58-16.92,14.19-5.99-.39-9.38-4.03-9.38-8.59,0-5.08,4.17-7.81,11.33-8.46,6.38-.52,12.24-1.43,15.1-2.99l-.13,5.86h0Z"/>
    <polygon class="cls-4" points="644.71 498.11 644.71 580.55 659.29 580.55 659.29 489.69 644.71 498.11"/>
    <path class="cls-4" d="M734.67,552.69c1.56-21.48-9.38-38.02-29.42-38.02-18.49,0-30.98,13.67-30.98,33.85s12.37,33.46,31.38,33.46c15.62,0,26.04-9.24,27.99-22h-13.02c-2.99,8.59-10.8,10.03-14.97,10.03-10.29,0-17.06-6.51-17.06-17.19v-.13h46.09Zm-29.82-26.04c8.72,0,14.85,5.73,15.23,13.93h-31.12c.52-8.2,7.16-13.93,15.88-13.93h0Z"/>
    <path class="cls-4" d="M392.4,559.71v-32.52h16.65v-11.71h-16.65v-20.62l-13.53,7.66v12.96h-10.15v11.71h10.15v36.03c0,9.62,6.67,16.55,16.24,17.24l11.53-9.94,2.55-2.22h-8.85c-6.24,0-7.94-2.08-7.94-8.59h0Z"/>
  </g>
  <g>
    <polygon class="cls-2" points="290.14 219.92 290.14 305.79 213.89 259.14 214.47 175.49 290.14 219.92"/>
    <polygon class="cls-2" points="520.92 352.91 366.45 440.62 366.45 352.49 520.92 264.63 520.92 352.91"/>
    <polygon class="cls-2" points="368.25 0 214.55 88.29 290.93 131.85 368.25 87.53 368.25 0"/>
    <polygon class="cls-3" points="366.45 352.49 315.31 321.06 315.31 411.1 366.45 440.62 366.45 352.49"/>
    <polygon class="cls-3" points="368.25 0 368.25 87.53 444.92 132.33 520.21 88.03 368.25 0"/>
    <polygon class="cls-1" points="368.25 0 368.25 87.53 520.21 176.32 520.21 88.03 368.25 0"/>
    <polygon class="cls-7" points="369.7 265.01 444.85 220.48 368.07 175.82 290.14 219.92 369.7 265.01"/>
    <polygon class="cls-2" points="520.21 176.32 520.21 88.03 445.15 132.18 368.07 175.82 444.85 220.48 520.21 176.32"/>
    <polygon class="cls-3" points="520.92 264.63 444.85 220.48 369.7 265.01 520.92 352.93 520.92 264.63"/>
    <polygon class="cls-5" points="368.25 .19 214.55 88.29 214.47 175.51 368.25 87.53 368.25 .19"/>
    <polygon class="cls-6" points="290.14 219.92 290.14 305.79 213.89 259.14 214.47 175.49 290.14 219.92"/>
    <polyline class="cls-3" points="345.26 188.74 368.07 175.82 214.55 88.29 214.47 175.51 290.14 219.92"/>
  </g>
</svg>