<svg width="1220" height="1220" viewBox="0 0 1220 1220" fill="none" xmlns="http://www.w3.org/2000/svg">
<path d="M244.794 688.631C241.988 693.544 235.734 695.272 231.216 691.908C217.72 681.858 207.159 668.205 200.778 652.391C193.111 633.394 191.912 612.357 197.368 592.594C202.825 572.831 214.627 555.465 230.917 543.231C247.206 530.997 267.057 524.591 287.343 525.02C307.629 525.45 327.198 532.692 342.966 545.604C358.735 558.517 369.808 576.368 374.441 596.345C379.075 616.321 377.005 637.289 368.559 655.945C361.528 671.475 350.411 684.669 336.51 694.138C331.857 697.308 325.68 695.317 323.081 690.289L293.865 633.776C292.013 630.194 293.74 625.751 295.404 622.076C296.418 619.837 296.666 617.321 296.11 614.924C295.554 612.527 294.225 610.384 292.333 608.835C290.441 607.285 288.093 606.416 285.658 606.365C283.224 606.313 280.842 607.082 278.887 608.55C276.932 610.018 275.516 612.102 274.861 614.474C274.207 616.845 274.35 619.37 275.27 621.649C276.781 625.392 278.323 629.904 276.324 633.405L244.794 688.631Z" fill="#6318FF"/>
<path d="M410.652 661.333V560.533H457.308C463.932 560.533 469.692 561.829 474.588 564.421C479.484 566.917 483.324 570.421 486.108 574.933C488.892 579.445 490.284 584.677 490.284 590.629C490.284 596.581 488.892 601.813 486.108 606.325C483.324 610.837 479.436 614.389 474.444 616.981C469.548 619.477 463.836 620.725 457.308 620.725H425.772V661.333H410.652ZM425.772 607.909H455.724C461.676 607.909 466.38 606.373 469.836 603.301C473.388 600.133 475.164 595.957 475.164 590.773C475.164 585.589 473.388 581.461 469.836 578.389C466.38 575.317 461.676 573.781 455.724 573.781H425.772V607.909Z" fill="#6318FF"/>
<path d="M505.856 661.333V560.533H580.16V573.781H520.976V604.021H559.856V616.837H520.976V648.085H580.736V661.333H505.856Z" fill="#6318FF"/>
<path d="M596.277 661.333V560.533H641.925C648.645 560.533 654.501 561.781 659.493 564.277C664.581 566.773 668.517 570.277 671.301 574.789C674.181 579.205 675.621 584.389 675.621 590.341C675.621 596.965 673.749 602.677 670.005 607.477C666.261 612.277 661.221 615.733 654.885 617.845L677.349 661.333H660.645L639.765 620.005H611.397V661.333H596.277ZM611.397 607.333H640.773C646.725 607.333 651.477 605.845 655.029 602.869C658.677 599.797 660.501 595.669 660.501 590.485C660.501 585.493 658.677 581.461 655.029 578.389C651.477 575.317 646.725 573.781 640.773 573.781H611.397V607.333Z" fill="#6318FF"/>
<path d="M691.199 661.333V560.533H711.503L743.039 625.045L774.575 560.533H794.735V661.333H780.479V578.965L742.895 654.133L705.311 578.965V661.333H691.199Z" fill="#6318FF"/>
<path d="M815.231 661.333V560.533H830.351V661.333H815.231Z" fill="#6318FF"/>
<path d="M850.949 661.333V560.533H925.541V573.781H866.069V604.741H905.237V617.557H866.069V661.333H850.949Z" fill="#6318FF"/>
<path d="M970.486 661.333V621.301L929.878 560.533H947.446L978.406 607.909L1009.37 560.533H1026.21L985.606 621.589V661.333H970.486Z" fill="#6318FF"/>
</svg>
