<svg xmlns="http://www.w3.org/2000/svg" role="img" viewBox="59.53 5.03 271.44 234.94"><title>PipelineAI logo</title><defs><style>.cls-1{fill:#fbfbfb}.cls-2{fill:#eee}.cls-3{fill:#fcfcfc}.cls-4{fill:#f7f7f7}.cls-5{fill:#f1f1f1}.cls-6{fill:#f8f8f8}.cls-7{fill:#f9f9f9}.cls-8{fill:#fafafa}.cls-9{fill:#f6f6f6}.cls-10{fill:#f0f0f0}.cls-11{fill:#f3f3f3}.cls-12{fill:#f5f5f5}.cls-13{fill:#ececec}.cls-14{fill:#e6e6e6}.cls-15{fill:#e9e9e9}.cls-16{fill:#e2e2e2}.cls-17{fill:#e1e1e1}.cls-18{fill:#f2f2f2}.cls-19{fill:#ebebeb}.cls-20{fill:#ededed}.cls-21{fill:#f4f4f4}.cls-22{fill:#efefef}.cls-23{fill:#e7e7e7}.cls-24{fill:#eaeaea}.cls-25{fill:#e5e5e5}.cls-26{fill:#e3e3e3}.cls-27{fill:#dadada}.cls-28{fill:#dbdbdb}.cls-29{fill:#d7d7d7}.cls-30{fill:#d4d4d4}.cls-31{fill:#c6c6c6}.cls-32{fill:#e8e8e8}.cls-33{fill:#cecece}.cls-34{fill:#e4e4e4}.cls-35{fill:#dedede}.cls-36{fill:#d5d5d5}.cls-37{fill:#dcdcdc}.cls-38{fill:#ddd}.cls-39{fill:#d3d3d3}.cls-40{fill:#e0e0e0}.cls-41{fill:#dfdfdf}.cls-42{fill:#d9d9d9}.cls-43{fill:#fefefe}.cls-44{fill:#d6d6d6}.cls-45{fill:#ccc}.cls-46{fill:#c8c8c8}.cls-47{fill:#cacaca}.cls-48{fill:#c2c2c2}.cls-49{fill:#bababa}.cls-51{fill:#d2d2d2}.cls-52{fill:#b8b8b8}.cls-53{fill:#c5c5c5}.cls-54{fill:#cbcbcb}.cls-55{fill:#d1d1d1}.cls-57{fill:#bdbdbd}.cls-58{fill:#d0d0d0}.cls-60{fill:silver}.cls-61{fill:#fe5923}.cls-62{fill:#010101}.cls-65{fill:#bcbcbc}.cls-70{fill:#b4b4b4}.cls-71{fill:#bebebe}.cls-76{fill:#b9b9b9}</style></defs><path d="M303.434 11.176c.522-1.425 2.152-.63 2.673-1.104 2.118-1.924 4.573-.647 6.761-1.197 1.645-.414 2.787.713 3.84 1.217 2.92 1.399 6.784 1.583 8.382 4.997.939 2.004 3.315 3.218 3.102 5.847-.053.664.601.966 1.263 1.008v42.621c-1.263-.207-1.645.812-1.595 1.592.106 1.67-.79 2.554-1.994 3.344a1.931 1.931 0 0 1-.58-1.444 4.519 4.519 0 0 1 .409-2.364 18.62 18.62 0 0 0 1.793-7.263q-.022-15.324-.001-30.647a15.07 15.07 0 0 0-1.67-6.355 3.182 3.182 0 0 1-.49-1.397 3.081 3.081 0 0 0-1.193-2.909 19.908 19.908 0 0 0-14.063-6.256c-1.605-.06-2.915 1.217-4.554.916a2.628 2.628 0 0 1-2.083-.606z" class="cls-1"/><path d="M248.699 235.5H151.79a.537.537 0 0 1 .256-.741 8.836 8.836 0 0 1 3.757-.332q43.332-.02 86.664-.02c1.25-.001 2.55.244 3.723-.457a8.035 8.035 0 0 1 3.33-.425c.944.062 1.936-.133 2.78.497.484 1.11-.219 1.195-1.042 1.255-.854.061-1.742-.24-2.56.223z" class="cls-2"/><path d="M61.612 21.046c.78-.063.904-.595.899-1.236-.005-.666-.049-1.369.896-1.456a2.824 2.824 0 0 1 .38 3.163 10.62 10.62 0 0 0-.636 4.595q-.025 15.685-.004 31.37a8.658 8.658 0 0 0 .577 3.706 3.027 3.027 0 0 1-.317 3.377c-.945-.087-.901-.79-.896-1.455.005-.642-.118-1.174-.899-1.237z" class="cls-3"/><path d="M248.699 235.5c.578-.697 1.377-.394 2.09-.442.672-.045 1.396.06 1.501-.902 1.555-1.17 3.35-.468 5.029-.648a6.01 6.01 0 0 0 4.003-.773 1.55 1.55 0 0 1 1.666-.092c.813 1.102-.3 1.147-.83 1.511-1.24 0-2.051.997-3.14 1.346z" class="cls-4"/><path d="M151.79 235.052v.448h-4.037c-1.12-.522-2.314-.063-3.457-.265-1.15-.693-2.434-.427-3.671-.502a3.967 3.967 0 0 1-1.42-.274c-.587-.441-1.391-.771-.918-1.764a1.825 1.825 0 0 1 .666-.364 8.91 8.91 0 0 1 4.378.445 63.887 63.887 0 0 0 6.374.983 9.239 9.239 0 0 1 2.085 1.293z" class="cls-5"/><path d="M139.23 234.154l1.344.001c1.028.974 2.56-.067 3.59.896 1.19.197 2.486-.447 3.589.449h-8.973l-.45-1.345a.62.62 0 0 1 .9-.001z" class="cls-6"/><path d="M108.719 210.377c-2.163.091-1.252-1.996-1.983-2.952-1.332-1.744-1.304-4.255-2.806-6.017a.575.575 0 0 1-.11-.423c.526-2.866-.939-5.503-.938-8.313q.015-47.639 0-95.277c-.002-2.812.75-5.558 1.175-8.275.344-2.198 2.03-4.438 2.684-6.74.83-2.93 2.65-5.198 3.977-7.786.524-1.022.189-2.485.245-3.747a.414.414 0 0 1 .05-.605 1.6 1.6 0 0 1 1.358-.13 2.035 2.035 0 0 1 1.107.844c.733 1.618-.69 2.823-.82 4.278-1.923 3.281-4.078 6.455-4.814 10.293a2.933 2.933 0 0 1-.219.623 5.347 5.347 0 0 0-.803 2.476c-.538 2.004-1.069 4.007-1.52 6.034a5.256 5.256 0 0 0-.431 2.845c-.007 31.897-.048 63.793.051 95.69.012 3.765 1.176 7.415 2.474 10.997.681 1.882 2.248 3.594 1.607 5.859-.094.11-.189.218-.284.326z" class="cls-7"/><path d="M110.964 70.397v.45c-2.56.103-4.045-1.814-5.574-3.3-2.822-2.744-6.525-2.313-8.192 1.343-2.102 4.609-6.034 6.464-10.58 7.894a24.617 24.617 0 0 1-8.06.755 18.168 18.168 0 0 1-8.45-2.6c-1.497-.848-2.729-2.947-4.01-4.541-.65-1.344-2.13-2.348-1.694-4.136a1.171 1.171 0 0 1 .401-.504c1.659-.165 1.401 1.663 2.342 2.248a3.124 3.124 0 0 1 .366.862 3.543 3.543 0 0 0 1.379 1.965c6.589 5.745 14.99 6.589 21.547 2.154.782-.509 1.321-1.353 2.253-1.658a1.573 1.573 0 0 0 1.433-1.082c.412-.782 1.02-1.431 1.457-2.197a16.903 16.903 0 0 0 1.442-2.417 6.372 6.372 0 0 1 9.653.032c.601 1.6 2.159 2.163 3.369 3.104.532.414 1.517.575.918 1.628z" class="cls-8"/><path d="M63.407 64.565c-1.825-12.768-.41-25.613-.964-38.408-.118-2.72 1.413-5.117.964-7.803a23.615 23.615 0 0 0 1.346-3.14c1.324-1.536 2.516-3.22 4.486-4.038a1.391 1.391 0 0 1 1.53-.298.816.816 0 0 1 .414.463c-.02 1.452-1.327 1.81-2.208 2.465a7.207 7.207 0 0 0-2.603 2.552 6.732 6.732 0 0 0-1.154 2.856c-1.055 2.614-1.046 5.411-1.087 8.117-.146 9.673-.114 19.35-.017 29.025a21.921 21.921 0 0 0 .958 7.237 2.223 2.223 0 0 1-.318 2.318h-.001a.605.605 0 0 1-.898 0c-.527-.322-.432-.852-.448-1.346z" class="cls-8"/><path d="M133.396 232.808c-2.78.238-4.803-1.57-6.952-2.795a48.703 48.703 0 0 1-11.304-9.339c-2.222-2.382-4.048-5.133-6.06-7.711-.624-.8-.25-1.723-.361-2.586l.003-.002c.996-.59 1.3.267 1.643.853a7.695 7.695 0 0 0 2.03 2.547c3.529 4.226 6.749 8.761 11.635 11.63.991 1.473 2.838 1.928 3.93 3.283.39 1.022 1.364 1.225 2.234 1.576a3.282 3.282 0 0 1 .521.306 17.669 17.669 0 0 0 1.98.811c.552.3 1.262.563.701 1.427z" class="cls-7"/><path d="M133.396 232.808c-.085-1.107-1.104-.963-1.758-1.242-.559-.24-1.337-.078-1.382-1.002a1.842 1.842 0 0 1 2.41-.102 13.392 13.392 0 0 0 3.277 1.11c.696.6 1.731.554 2.385 1.24-.068.695.627.877.901 1.341l-.9.002c-1.928.592-3.317-.795-4.933-1.347z" class="cls-9"/><path d="M63.855 65.911h.898c-.417 1.756 1.267 2.88 1.346 4.487a4.63 4.63 0 0 1-2.244-4.487z" class="cls-3"/><path d="M294.012 89.24c.795 1.792 2.252 3.289 2.25 5.433q-.015 49.776.015 99.552c.001 1.269-1.1 2.41-1.062 3.116.108 1.98-1.266 3.467-1.19 5.3a2.296 2.296 0 0 1-1.359 2.352 1.98 1.98 0 0 1-.6-1.439c-.264-3.245 1.385-6.127 1.76-9.256.699-1.178.436-2.479.437-3.727q.023-47.132.01-94.262a8.224 8.224 0 0 0-.56-3.7 2.951 2.951 0 0 1 .3-3.368z" class="cls-8"/><path d="M307.472 77.576a2.331 2.331 0 0 1-2.336 1.36c-2.821-.043-5.651-.136-8.463.035-1.422.086-2.036-1.329-3.618-1.216-1.997.141-1.915.864-1.45 2.165.461 1.288 1.445 2.423 1.061 3.937-.648.464-1.093.106-1.51-.369-.513-2.045-1.987-3.65-2.618-5.642.08-.859-.795-1.193-1.038-1.878a.918.918 0 0 1 .42-.922 7.08 7.08 0 0 1 3.428-.266 25.134 25.134 0 0 0 13.052 2.168c1.047.1 2.184-.243 3.072.628z" class="cls-1"/><path d="M289.077 213.516a21.436 21.436 0 0 1-4.33 5.97c-2.952 2.579-5.394 5.736-8.594 8.038-3.064 2.205-6.131 4.48-9.957 5.284a1.174 1.174 0 0 1 .17-1.233c1.21-1.536 3.209-1.753 4.73-2.796a14.18 14.18 0 0 0 2.631-1.991c2.766-1.479 4.858-3.745 6.973-5.984 1.043-1.1 2.399-1.883 3.228-3.197a6.372 6.372 0 0 0 1.375-1.406 12.144 12.144 0 0 1 1.193-1.195 15.38 15.38 0 0 0 1.214-1.203c.418-.279.828-.594 1.367-.287z" class="cls-8"/><path d="M291.321 83.408l1.345.45c-.802 2.106 1.517 3.433 1.346 5.383-.587 2.361 1.347 4.387.896 6.73a.807.807 0 0 1-.993.06 19.768 19.768 0 0 1-1.699-5.16 23.903 23.903 0 0 0-1.228-3.698 4.584 4.584 0 0 1-.21-1.047 4.892 4.892 0 0 1 .288-2.464c.084-.086.17-.17.255-.254z" class="cls-6"/><path d="M292.665 203.644l.001 1.349c.16 2.077-1.022 3.792-1.58 5.67a1.744 1.744 0 0 1-2.008 1.06c-.08-.08-.159-.16-.24-.238a2.816 2.816 0 0 1-.306-1.299c-.105-2.284 1.73-3.727 2.454-5.655.437-.527.83-1.142 1.68-.887zm33.2-135.493l.001 1.35a2.119 2.119 0 0 1-1.095 2.419c-1.71.794-2.041 3.307-4.289 3.413a1.644 1.644 0 0 1-1.58.284.877.877 0 0 1-.42-.472c-.07-1.108.946-1.19 1.566-1.639a6.74 6.74 0 0 0 2.115-1.935 14 14 0 0 0 1.998-2.64c.293-.666.757-1.358 1.704-.78z" class="cls-8"/><path d="M307.472 77.576h-3.143c-.414-1.654.908-1.435 1.74-1.472 2.431-.106 4.859-.157 7.28-.466a10.37 10.37 0 0 0 3.25-.521 1.878 1.878 0 0 1 2.089.215v.001a.605.605 0 0 1 0 .897l-1.346.449c-1.277.612-2.7.566-4.038.897z" class="cls-8"/><path d="M313.304 77.576c1.091-1.444 2.663-.73 4.038-.897-1.166 1.108-2.447 1.7-4.038.897z" class="cls-1"/><path d="M262.158 234.154c.274-.465.97-.648.9-1.344a1.7 1.7 0 0 1 1.343-.53 1.67 1.67 0 0 1 1.346.528c-.637 1.94-2.296 1.155-3.589 1.346zm26.919-20.638l-1.346.449a30.968 30.968 0 0 0-.208-.203 1.388 1.388 0 0 1-.117-.851 1.754 1.754 0 0 1 .232-.534c.404-.381.71-.985 1.439-.655h.001l-.001 1.794z" class="cls-8"/><path d="M265.747 232.808h-1.346c.183-1.298.51-1.429 2.243-.898l-.448.898z" class="cls-4"/><path d="M318.688 76.23v-.897h1.794a1.577 1.577 0 0 1-1.794.897z" class="cls-1"/><path d="M197.552 8.932c1.572-1.925 3.5-1.592 5.472-.833.478.185.91.76 1.347.741 5.328-.225 8.565 3.499 12.17 6.456a3.091 3.091 0 0 0 2.164.822c2.841-.019 5.698.18 8.52-.056 3.194-.268 5.976.705 8.846 1.87a5.872 5.872 0 0 0 5.656-.443 9.806 9.806 0 0 1 4.964-1.379c3.74.004 7.491-.188 11.21.078 1.967.14 4.232.184 5.604 2.166a1.259 1.259 0 0 1-1.443.334c-3.487-1.622-7.188-.936-10.803-.988-2.724-.039-5.53-.491-8.123.85-3.193 2.033-6.427 1.491-9.664.129a6.85 6.85 0 0 0-2.074-.702 4.326 4.326 0 0 1-.74-.214c-4.472-.306-8.948-.029-13.417-.142a3.765 3.765 0 0 1-2.93-1.363c-4.178-4.564-9.45-6.59-15.53-6.775a2.868 2.868 0 0 1-.654-.13 1.264 1.264 0 0 1-.575-.42zm-121.134.001c7.823 0 15.648-.089 23.469.05a22.44 22.44 0 0 1 7.537 1.825c2.028.781 3.419-.744 5.088-1.182.815-.213 1.554-.796 2.49-.693.187 1.111-.802 1.5-1.331 2.175-3.232 1.76-6.564 1.541-9.862.326a8.534 8.534 0 0 0-3.034-.528q-12.412-.004-24.824 0a6.038 6.038 0 0 0-2.837.452 1.714 1.714 0 0 1-2.08-.181v-.002c-.144-1.728 1.254-1.518 2.253-1.75 1.028-.24 2.186.318 3.13-.492z" class="cls-8"/><path d="M197.552 8.932l.451.002c.118 1.152-.778 1.28-1.548 1.5a20.872 20.872 0 0 1-6.181.472 16.256 16.256 0 0 0-11.557 4.146c-3.129 2.739-6.887 2.81-10.745 2.624a16.669 16.669 0 0 0-7.905 1.05 2.993 2.993 0 0 1-2.611-.098c-.095-.09-.188-.182-.282-.274.12-1.143 1.162-1.03 1.86-1.268 3.706-1.27 7.576-1.132 11.385-.922 3.723.206 6.412-1.506 8.806-3.96 1.16-1.188 2.725-1.393 4.112-1.849a27.223 27.223 0 0 1 11.092-1.437c1.032.097 2.082.014 3.123.014zm45.314 9.421c.407-1.564 1.973-1.177 2.794-1.193 4.91-.096 9.835-.55 14.744.244 1.108.179 1.86 1.346 3.1.95 1.51-.227 3.239.642 4.486-.897 1.2-.718 1.973-1.936 3.14-2.692a7.03 7.03 0 0 1 1.347-1.346c.71-.412 1.148-1.416 2.228-1.029.731 1.261-.48 1.752-1.071 2.317-1.972 1.885-3.749 3.957-5.727 5.832a1.932 1.932 0 0 1-.521.366 5.012 5.012 0 0 1-2.51.104 2.3 2.3 0 0 1-.563-.237 3.742 3.742 0 0 0-1.302-.72 7.067 7.067 0 0 1-.604-.206 9.224 9.224 0 0 0-5.289-.836c-3.603.02-7.202.003-10.8-.023a8.185 8.185 0 0 1-3.16-.355 30.67 30.67 0 0 1-.292-.279z" class="cls-7"/><path d="M274.723 12.523l-2.247.896c.464-1.938 2.386-2.405 3.717-2.806 4.755-1.43 9.545-2.64 14.666-1.01 1.749.556 3.596 1.046 5.396 1.573a1.093 1.093 0 0 1 .16 1.318 1.171 1.171 0 0 1-.605.367c-2.177-.452-4.25-1.57-6.585-1.046-2.809-.028-5.616.045-8.42 0a6.241 6.241 0 0 0-3.762 1.03 2.207 2.207 0 0 1-2.32-.322z" class="cls-7"/><path d="M127.564 10.279c1.808.289 2.998 1.612 4.033 2.856a7.533 7.533 0 0 0 6.569 2.952c4.555-.277 8.825.89 12.987 2.475 1.836.698 3.401-.807 5.124-.208a1.179 1.179 0 0 1-.469 1.326c-1.588 1.017-3.358.528-5.06.613a4.106 4.106 0 0 1-1.389-.232 1.89 1.89 0 0 1-.565-.362 1.935 1.935 0 0 0-1.715-.755c-3.18-1.403-6.63-.627-9.923-1.202-1.491-.26-2.845-.833-4.288-1.156-2.164-1.951-4.829-3.28-6.836-5.436a.992.992 0 0 1 .174-.992 1.353 1.353 0 0 1 1.358.12zm-13.908.001l1.346-1.347a7.397 7.397 0 0 0 2.18-.25 5.277 5.277 0 0 1 5.282.059c.503.307 1.298.14 1.96.19a.758.758 0 0 1-.01 1.04c-.365.278-.858.533-1.228.368-2.778-1.245-5.42-.092-8.105.368a1.569 1.569 0 0 1-1.425-.428z" class="cls-8"/><path d="M303.434 11.176h2.243c-.062 1.204-1.301 1.195-1.9 1.85a7.723 7.723 0 0 1-5.918 1.24c-.813-.187-2.115-.213-1.604-1.744l.001-.001a1.73 1.73 0 0 1 2.243 0h1.346c.981-.6 2.22-.6 3.14-1.345z" class="cls-7"/><path d="M76.418 8.933c-.256 1.35-1.359.694-2.107.91-1.135.327-2.735-.451-3.277 1.332h-1.795c.702-1.948 2.575-1.832 4.095-2.197a13.552 13.552 0 0 1 3.084-.045zm-7.178 2.243c-1.571 1.263-2.478 3.263-4.487 4.038a5.04 5.04 0 0 1 4.486-4.038z" class="cls-3"/><path d="M124.423 9.83v-.897a3.59 3.59 0 0 1 3.141 1.346h-1.348c-.765.518-1.312.167-1.793-.449z" class="cls-8"/><path d="M302.985 11.176c-.63 1.423-1.871 1.416-3.14 1.346.717-1.217 1.885-1.383 3.14-1.346z" class="cls-1"/><path d="M271.13 14.765c-.901 1.066-1.447 2.548-3.14 2.692a4.961 4.961 0 0 1 3.14-2.692z" class="cls-7"/><path d="M298.499 12.522l-2.243-.001v-1.345a2.135 2.135 0 0 1 2.243 1.346z" class="cls-1"/><path d="M64.753 15.214a3.59 3.59 0 0 1-1.346 3.14 4.534 4.534 0 0 1 1.346-3.14z" class="cls-3"/><path d="M272.477 13.419c-.325.573-.464 1.331-1.346 1.346a1.263 1.263 0 0 1 1.346-1.346zm-116.648 5.833l.448-.898h.898c.316 1.449-.403 1.341-1.346.898z" class="cls-7"/><path d="M325.868 21.045c2.09 1.23 2.079 3.639 2.116 5.374q.364 16.803.011 33.617c-.04 1.94-.194 4.371-2.128 5.877l-.262-.274c-.9-1.889.886-3.35.811-5.11a39.614 39.614 0 0 0 .15-6.453c-.06-9.21.204-18.42-.14-27.624.096-1.767-1.419-3.281-.82-5.132l.262-.275z" class="cls-10"/><path d="M303.882 12.522c.233-.936 1.345-.7 1.795-1.346 1.435.474 2.426-.812 3.75-.931a14.515 14.515 0 0 1 7.04 1.22c2.727 1.154 5.55 2.215 7.544 4.615a1.716 1.716 0 0 1 .51.929 1.145 1.145 0 0 1 .172 1.278.81.81 0 0 1-.882.239c-.813-.42-.76-1.653-1.774-1.885a3.03 3.03 0 0 1-.81-.4 17.19 17.19 0 0 0-2.986-2.163c-3.607-1.645-7.202-3.282-11.246-1.338a3.883 3.883 0 0 1-2.188.285 1.444 1.444 0 0 1-.925-.503z" class="cls-11"/><path d="M325.865 68.151c-1.212.032-1.057 1.144-1.531 1.786-.51.692-1.01 1.63-2.057 1.807l-.206-.222c-.41-1.365 1.138-2.063 1.116-3.297a2.497 2.497 0 0 1 .594-1.033 3.641 3.641 0 0 1 .45-.374c.584-.228.801-1.124 1.633-.908l.003.003q0 1.12-.002 2.238z" class="cls-10"/><path d="M324.52 18.353v-1.344c1.442.401 1.43 1.529 1.345 2.693a.71.71 0 0 1-.734.232 1.037 1.037 0 0 1-.435-.324c-.197-.399-.527-.78-.175-1.257z" class="cls-12"/><path d="M324.969 19.7l.896.002.003 1.343h-.005c-1.029.037-1.3-.428-.894-1.345z" class="cls-13"/><path d="M151.79 235.052c-.704-.087-1.645.3-1.798-.895a1.872 1.872 0 0 1 1.19-.573c3.209-.138 6.42-.06 9.631-.06q40.89-.012 81.778.004a8.186 8.186 0 0 1 3.537.328l.33.304c-.372 1.468-1.576.863-2.413.864q-28.55.053-57.1.027l-35.155.001z" class="cls-14"/><path d="M257.67 234.152l-5.38.004-2.695-.004c.686-1.711 2.605-.813 3.664-1.739a13.139 13.139 0 0 1 3.287-.209 3.358 3.358 0 0 1 1.403.317.907.907 0 0 1 .416.908c-.078.388-.43.514-.696.723z" class="cls-15"/><path d="M253.19 232.815c-.867 1.338-2.573.418-3.595 1.337l-3.137.007-.004-.009a.407.407 0 0 1-.121-.363c.025-.128.054-.191.086-.192a1.761 1.761 0 0 1 .547-.3 5.405 5.405 0 0 0 2.005-.86 2.892 2.892 0 0 1 .677-.178c1.206.035 2.484-.396 3.542.558z" class="cls-16"/><path d="M257.67 234.152l.45-.447c.546-.62 1.431-.735 1.99-1.338a2.786 2.786 0 0 1 1.598-.945 5.962 5.962 0 0 0 3.492-1.016 5.625 5.625 0 0 0 2.617-1.394 14.081 14.081 0 0 1 1.93-1.002c.581-.228 1.183-.402 1.747-.677.751-.282 1.418-1.14 2.33-.356-.806 2.214-3.119 2.458-4.782 3.491a16.169 16.169 0 0 0-2.398 1.442c-.814.135-1.811-.191-2.243.898l-1.344.002c-1.862.181-3.334 1.932-5.388 1.342z" class="cls-11"/><path d="M150.898 234.15l-.906.007c-3.84.401-7.406-1.453-11.208-1.352-.603-.576-1.483-.327-2.15-.719a2.165 2.165 0 0 0-1.37-.44c-.79-.105-.86-.59-.539-1.22a2.326 2.326 0 0 1 1.374-.45c2.721.32 5.31 1.265 8.018 1.716 1.295.215 2.626.355 3.92.625.842.193 1.519.801 2.379.959a1.71 1.71 0 0 1 .536.321.432.432 0 0 1-.054.552z" class="cls-17"/><path d="M144.164 235.05c-1.176-.381-2.766.9-3.59-.895 1.176.381 2.766-.898 3.59.896z" class="cls-9"/><path d="M136.986 231.91a1.588 1.588 0 0 1 1.798.895l-.456.007c-.79-.194-1.95.53-2.246-.898a.626.626 0 0 1 .904-.004z" class="cls-13"/><path d="M112.306 213.969c-1.487.125-1.618-1.257-2.205-2.07-.412-.572-.428-1.448-1.38-1.524.458-2.089-.97-3.74-1.636-5.422a36.677 36.677 0 0 1-2.854-13.66q.008-47.061.019-94.122c0-1.05-.455-2.308.88-2.997 1.138 1.572.419 3.377.639 5.065-.011 30.75.023 61.5-.05 92.249-.006 2.293.749 4.37 1.03 6.56 1.319 4.84 2.844 9.601 5.545 13.895a2.582 2.582 0 0 1 .372 1.04 1.209 1.209 0 0 1-.36.986z" class="cls-5"/><path d="M107.374 85.652a20.398 20.398 0 0 1 4.933-10.322.688.688 0 0 1 .92-.023 1.102 1.102 0 0 1 .068 1.44c-1.498 1.97-1.935 4.485-3.36 6.487a7.334 7.334 0 0 1-.85.935c-.62.433-.601 1.614-1.71 1.483z" class="cls-10"/><path d="M105.133 99.112l-.003-4.938c-.315-2.12.667-3.94 1.345-5.832a.742.742 0 0 1 .88-.147 1.343 1.343 0 0 1 .38.516 6.262 6.262 0 0 1 .173 1.937 3.02 3.02 0 0 1-.292 1.27 6.636 6.636 0 0 0-.832 1.417c-.196 1.46-.563 2.89-.66 4.367-.039.599.002 1.411-.99 1.41z" class="cls-13"/><path d="M110.964 70.397c-.572-1.182-1.825-1.525-2.798-2.185-.874-.594-1.743-1.074-1.692-2.3a1.023 1.023 0 0 1 .903-.306 27.077 27.077 0 0 1 5.126 3.871.89.89 0 0 1-.195.922zm2.244 4.936l-.9-.003c-.427-1.64 1.33-2.841.897-4.482.79-.193 1.119.424 1.544.873a1.531 1.531 0 0 1 .081 1.209 15.642 15.642 0 0 0-1.389 2.224c-.076.06-.155.12-.233.18z" class="cls-11"/><path d="M107.374 85.652l1.347-1.795a1.786 1.786 0 0 1 .48 1.605 2.933 2.933 0 0 1-.148.668c-.565.731-.33 2.075-1.677 2.214l-.004-.004a1.734 1.734 0 0 1 0-2.243l.002-.445z" class="cls-13"/><path d="M114.553 71.743c-.697.075-.88-.625-1.348-.895a.929.929 0 0 1-.897-.449l.002-.899c1.19-.774 1.8.1 2.449.863a1.192 1.192 0 0 1-.206 1.38z" class="cls-2"/><path d="M107.372 86.097v2.243l-.897.002c.192-.79-.537-1.95.897-2.245z" class="cls-10"/><path d="M64.754 65.91c-2.515-12.225-.953-24.6-1.298-36.902a28.503 28.503 0 0 1 1.297-10.654c.519-.246.691-1.502 1.621-.553a2.952 2.952 0 0 1 .01 2.25 13.898 13.898 0 0 0-.99 6.11q-.02 16.575.014 33.15c.008 2.162 1.159 3.976 1.635 5.993a7.345 7.345 0 0 1 .448 1.714 1.54 1.54 0 0 1-.497 1.14c-1.507.008-.833-2.157-2.24-2.248z" class="cls-11"/><path d="M66.994 68.158l.005-.905c.742-.224 1.051.434 1.532.746.766.77 1.576 1.5 2.274 2.338.792 1.356 2.233 1.866 3.464 2.653a5.92 5.92 0 0 1 .652.7 5.172 5.172 0 0 0 3.742 1.054c2.692-.168 5.487.526 8.017-.973a3.496 3.496 0 0 1 .643-.215c1.196.195 2.16-1.358 3.451-.467-1.669 2.326-4.377 2.744-6.794 3.025-4.016.468-8.105.395-11.833-1.785a14.815 14.815 0 0 1-3.805-3.483 6.095 6.095 0 0 0-1.345-1.795z" class="cls-5"/><path d="M107.374 65.911l-.9.001c-3.486-2.58-5.349-2.53-9.417 0l-.225-.257a1.342 1.342 0 0 1 .135-1.3c1.133-1.641 3.232-1.348 4.69-2.347a2.73 2.73 0 0 1 2.04.022c1.14.749 2.464 1.238 3.326 2.385.345.46.846.852.35 1.496z" class="cls-18"/><path d="M90.774 73.09c-1.28-.034-2.19 1.412-3.59.895-.522-.876.173-1.167.74-1.473 1.217-.658 2.445-1.294 3.667-1.94a2.946 2.946 0 0 1 1.48-.437.877.877 0 0 1 .504.308 1.305 1.305 0 0 1-.558 1.3c-1.027-.017-1.126 1.512-2.243 1.346z" class="cls-19"/><path d="M97.057 65.913c-.064.978-.076 1.987-1.345 2.243l-.218-.252c-.158-1.194.277-1.925 1.56-1.994zm-1.345 2.243c.157 1.112-.748 1.585-1.347 2.243l-.299-.155c-.501-1.52.295-2.022 1.642-2.09z" class="cls-18"/><path d="M66.997 69.051c1.16.064 1.388.829 1.345 1.795a2.113 2.113 0 0 1-1.345-1.795z" class="cls-11"/><path d="M93.017 71.743l.45-1.345a.603.603 0 0 1 .893-.003l.005.004q.144 1.492-1.348 1.344z" class="cls-18"/><path d="M124.423 9.83l1.793.45.002.896a1.853 1.853 0 0 1-1.885.392 2.671 2.671 0 0 1-.595-.253c-.91-.702-1.977-.419-2.99-.464-.52.008-1.04.003-1.56.002-.992.047-2.028-.247-2.944.39a2.704 2.704 0 0 1-.554.28 9.972 9.972 0 0 0-2.131.574 8.667 8.667 0 0 1-2.952 1.002c-1.146.058-2.291.026-3.437.061-10.161-2.62-20.516-.844-30.77-1.347a5.291 5.291 0 0 0-3.645.765c-2.192.713-3.44 2.784-5.427 3.8a1.434 1.434 0 0 1-.98-.044 45.846 45.846 0 0 1-.249-.223c.272-2.034 2.329-2.282 3.512-3.39a4.895 4.895 0 0 0 1.423-1.544c10.15-1.933 20.4-.423 30.592-.888a5.752 5.752 0 0 1 2.309.492c3.261 1.223 6.588 1.669 9.72-.501 1.705-.296 3.486-.17 5.07-1.11a2.204 2.204 0 0 1 2.327-.02 5.328 5.328 0 0 0 3.371.68z" class="cls-11"/><path d="M66.102 17.459c-.469.27-.652.968-1.349.895a4.124 4.124 0 0 1 1.346-2.243.927.927 0 0 1 .215 1.123l-.212.225z" class="cls-11"/><path d="M112.306 213.969l.004-.901a.829.829 0 0 1 .883-.204c1.495.563 1.943 2.07 2.849 3.164a8.19 8.19 0 0 0 1.578 2.122c1.882 1.663 3.376 3.761 5.648 4.982a1.862 1.862 0 0 1 1.114 1.58 1.198 1.198 0 0 1-.411.925 12.272 12.272 0 0 1-5.001-3.418c-2.217-2.22-4.214-4.66-6.316-6.995a1.802 1.802 0 0 1-.348-1.255z" class="cls-20"/><path d="M123.971 225.637l.007-.915c1.036-.739 1.675.083 2.393.601 1.54 1.94 3.837 2.678 5.92 3.776a7.351 7.351 0 0 1 2.45 1.466c.12 1.498 1.776.432 2.245 1.345l-.904.003c-2.186.605-3.703-1.678-5.826-1.35-.829-.584-1.845-.796-2.692-1.346-.126-1.138-1.26-1.005-1.866-1.52-.669-.57-1.71-.915-1.727-2.06z" class="cls-13"/><path d="M127.564 229.218a2.853 2.853 0 0 1 2.692 1.346 2.837 2.837 0 0 1-2.692-1.346z" class="cls-9"/><path d="M294.012 95.97l.896.002q0 48.035-.031 96.07c-.001.891.696 2.184-.864 2.632a2.713 2.713 0 0 1-.626-2.074q-.029-46.715.003-93.431c0-1.09-.267-2.267.622-3.199z" class="cls-21"/><path d="M294.011 192.877l.002 1.797a13.29 13.29 0 0 1-1.18 5.919c-.415.839-.133 2.023-.168 3.05l-1.344.902a1.793 1.793 0 0 1-.559-1.313 8.285 8.285 0 0 1 .022-1.44c.375-1.933 1.317-3.709 1.573-5.676.832-.867.425-2.156 1.048-3.096a.527.527 0 0 1 .606-.143z" class="cls-5"/><path d="M318.688 75.332a50.142 50.142 0 0 1-13.304 1.354.923.923 0 0 0-1.055.89c-4.505.23-8.936.032-13.01-2.243a.731.731 0 0 1 .015-1.019c1.285-.657 2.337.313 3.388.658a20.538 20.538 0 0 0 12.296-.05 23.577 23.577 0 0 1 5.29-.197 9.91 9.91 0 0 0 5.583-1.711 2.624 2.624 0 0 1 .622-.339c1.35.086 2.203-1.854 3.762-.936l.002.005c.04 1.633-1.504 1.777-2.407 2.497-.427.34-1.181.286-1.182 1.091z" class="cls-11"/><path d="M287.732 75.333v.896a4.902 4.902 0 0 1 1.344 1.347c-.123 1.37 1.096 2.124 1.594 3.21a5.918 5.918 0 0 1 .651 2.622l-.003.002c-1.872.542-1.53-1.494-2.434-2.082a42.503 42.503 0 0 0-2.358-3.87 3.634 3.634 0 0 1-.274-1.345c.087-1.009-.157-2.203 1.335-2.441 1.44.43.245 1.094.145 1.66z" class="cls-9"/><path d="M287.732 75.333c-.911-.802.393-.866.448-1.346a1.628 1.628 0 0 1 1.639-.381 2.527 2.527 0 0 1 1.499.832l.001.895zm1.344 2.243c-.881-.016-1.02-.773-1.344-1.347q1.493-.146 1.344 1.347z" class="cls-4"/><path d="M273.825 226.977c-.987-.298-1.392.863-2.247.895a.88.88 0 0 1-.21-.92 3.715 3.715 0 0 1 2.296-1.723 6.041 6.041 0 0 0 3.268-2.815 2.999 2.999 0 0 1 .326-.51 6.517 6.517 0 0 1 1.414-1.172c.86-.199 1.388-1.445 2.517-.809a1.012 1.012 0 0 1-.188 1.22 30.438 30.438 0 0 1-5.551 5.331 2.251 2.251 0 0 1-1.625.503z" class="cls-5"/><path d="M281 221.143l.001-1.346a1.83 1.83 0 0 1 .82-1.15c.762-.317 1.065-1.401 2.099-1.268l.224.177c-.173 1.962-2.046 2.435-3.143 3.587zm5.834-5.833c-.466.274-.65.97-1.345.9a52.421 52.421 0 0 0-.232-.284c-.084-1.167-.19-2.353 1.618-1.95a1.026 1.026 0 0 1-.041 1.335z" class="cls-12"/><path d="M285.489 216.21q.146 1.49-1.346 1.346l-.003-.004q-.561-1.905 1.345-1.347z" class="cls-12"/><path d="M286.834 215.31v-1.346l.193-.181a.585.585 0 0 1 .704.182 1.355 1.355 0 0 1-.897 1.346z" class="cls-8"/><path d="M294.011 192.877l-.446.003-.298-.329a8.912 8.912 0 0 1-.328-3.762q-.02-44.168-.02-88.336a7.586 7.586 0 0 0-.35-3.528c-.538-2.109-1.553-4.082-1.834-6.27a29 29 0 0 1 .006-2.283 1.831 1.831 0 0 1 .58-1.377c1.713 2.747 2.142 5.88 2.691 8.975l-.001 96.907z" class="cls-13"/><path d="M289.08 81.161c1.404.095.73 2.258 2.238 2.249l.001 2.691a1.027 1.027 0 0 1-.808.34.913.913 0 0 1-.894-.695 5.242 5.242 0 0 0-.804-2.487 2.356 2.356 0 0 1-.115-1.573 1.23 1.23 0 0 1 .382-.525z" class="cls-22"/><path d="M290.42 86.104l.9-.003.002.894-.005 1.352a.753.753 0 0 1-.89.135 1.388 1.388 0 0 1-.37-.533 1.792 1.792 0 0 1 .363-1.845z" class="cls-23"/><path d="M285.485 216.205a1.267 1.267 0 0 0-1.345 1.347c-1.027-.017-1.125 1.515-2.243 1.346a1.067 1.067 0 0 1-.32-.517 1.351 1.351 0 0 1 .164-.885 11.286 11.286 0 0 0 1.388-1.524c.729-.985 1.228-2.112 1.933-3.11a3.333 3.333 0 0 1 .345-.488 4.369 4.369 0 0 0 1.032-1.71 2.934 2.934 0 0 1 .284-.494 2.355 2.355 0 0 0 .518-1.566 2.534 2.534 0 0 1 1.375-2.218 1.178 1.178 0 0 0 .844-1.286 2.933 2.933 0 0 1 .905-2.034.839.839 0 0 1 .952.128l.004 1.351a5.469 5.469 0 0 1-1.459 3.255 3.472 3.472 0 0 0-.788 2.573c-.706.594-.847 1.526-1.344 2.245-.458.343-.446.999-.897 1.346-1.27.253-1.282 1.264-1.348 2.241z" class="cls-13"/><path d="M287.73 212.618c.009-1.011-.143-2.119 1.344-2.245l.002 1.349zm-.897 1.346c-.007-.652-.012-1.304.897-1.346l.001 1.347z" class="cls-12"/><path d="M178.706 14.764c.855-2.202 3.039-2.728 4.851-3.395a16.51 16.51 0 0 1 7.52-1.122 16.138 16.138 0 0 0 5.517-.395 1.774 1.774 0 0 0 1.41-.918c6.526-.13 12.129 1.946 16.609 6.833.555.606 1.158 1.43 2.232 1.242 3.234.504 6.49.082 9.732.238 1.541.074 3.102-.258 4.624.21a.756.756 0 0 1-.133 1.121 5.389 5.389 0 0 1-3.04.437c-3.934-.066-7.871.174-11.798-.13-1.902-.674-2.767-2.54-4.24-3.71a4.3 4.3 0 0 0-2.122-1.406 3.167 3.167 0 0 1-.507-.291 4.289 4.289 0 0 0-1.7-.595c-4.253-2.306-8.688-2.207-13.197-.985a12.109 12.109 0 0 1-4.23.304c-2.864-.246-5.417.722-7.96 1.798a19.076 19.076 0 0 0-2.07.936 1.449 1.449 0 0 1-1.26.05c-.08-.073-.158-.148-.238-.222z" class="cls-21"/><path d="M231.201 18.354v-.897c1.205-.315 2.12.49 3.077.919a10.732 10.732 0 0 0 8.588-.023v.003c-.737 1.81-3.915 3.18-5.885 2.406a7.502 7.502 0 0 0-2.372-.49 4.136 4.136 0 0 1-1.014-.19 4.892 4.892 0 0 1-2.394-1.728zm0-.897c-4.014 0-8.029.016-12.043-.014-.782-.005-1.655.297-2.313-.434 4.014 0 8.029-.016 12.043.013.782.006 1.655-.297 2.313.435z" class="cls-4"/><path d="M155.829 19.252c.652.006 1.304.012 1.346-.897 1.675.284 3.147-.436 4.695-.875 3.12-.883 6.338-.436 9.511-.436 2.05 0 3.942-.098 5.457-1.717a2.263 2.263 0 0 1 1.868-.563l.006.003c.286 1.026-.644 1.483-1.026 2.2a2.147 2.147 0 0 1-.516.404c-.983.304-1.71 1.084-2.667 1.444a44.783 44.783 0 0 1-7.772.159 23.983 23.983 0 0 0-10.797 2.08c-1.818.774-3.712 1.08-5.485-.245a.846.846 0 0 1-.006-1.107c1.793-.171 3.65.408 5.386-.45z" class="cls-9"/><path d="M246.007 18.355h11.665c1.742.656 3.629.735 5.383 1.346.342.46.999.446 1.348.895h-.001a4.564 4.564 0 0 0 3.14 0h-.002a1.04 1.04 0 0 1 1.403-.03c-.056 1.438-1.098 1.77-2.235 1.932-.942.134-1.904.06-2.85.186-2.064-.319-3.911-1.328-5.933-1.827-3.003-.741-6.061-.283-9.066-.696-1.612-.793-3.336.692-4.942-.237-.54-.658.002-.868.468-1.056.525-.212 1.137-.163 1.622-.513z" class="cls-19"/><path d="M268.882 20.596h-1.342c1.718-2.751 4.319-4.689 6.494-7.018.307-.328.662-.567.689-1.055l2.24-.003a.677.677 0 0 1 .104.57c-.467.977-1.592 1.18-2.26 1.924a34.99 34.99 0 0 0-4.645 4.769 2.205 2.205 0 0 1-1.28.813z" class="cls-2"/><path d="M246.007 18.355c-.503.858-1.655.631-2.246 1.343-2.27 2.021-4.986 2.22-7.788 1.765-.818-.133-2.13-.224-1.63-1.763 1.083.029 2.16.505 3.099.607a6.44 6.44 0 0 0 5.424-1.951z" class="cls-5"/><path d="M263.055 19.7c-1.896-.041-3.837.094-5.383-1.346a7.788 7.788 0 0 1 5.383 1.347zm4.486.896a2.583 2.583 0 0 1-3.14 0z" class="cls-2"/><path d="M264.403 20.596c-.653.008-1.305.016-1.348-.895.653-.008 1.304-.014 1.348.895z" class="cls-2"/><path d="M276.963 12.97v-.45a3.125 3.125 0 0 1 3.056-1.347c3.169.01 6.338.003 9.507.002.922.774 2.815-.615 3.169 1.425-.69.602-1.59.516-2.398.731a23.948 23.948 0 0 0-9.545.005c-1.233-.428-2.557.078-3.79-.366z" class="cls-13"/><path d="M292.666 12.522c-.72-1.21-2.267-.494-3.14-1.347 2.445-.56 4.501.822 6.73 1.347 1.335 1.564 3.672 1.817 6.224.625.464-.217.835-.635 1.402-.625l.899.001c.22 1.058-.694 1.28-1.279 1.747-4.527 2.257-7.426 1.788-10.836-1.748z" class="cls-10"/><path d="M149.099 19.252l.002.446a1.531 1.531 0 0 1-1.047.507c-4.14-1.72-8.566-.908-12.842-1.426a8.605 8.605 0 0 0-1.94-.819 1.42 1.42 0 0 1-1.042-.872 1.026 1.026 0 0 1 .27-.978 49.119 49.119 0 0 0 12.161 1.457c.959-.01 1.916 1.017 3.092.788.345.454.922.561 1.346.897z" class="cls-21"/><path d="M132.5 16.11l-.002.9c-.737.563-1.305.06-1.77-.382-1.789-1.694-3.495-3.47-5.926-4.295-.424-.144-.986-.465-.827-1.158l2.243.001c2.287 1.4 4.762 2.559 6.283 4.934z" class="cls-2"/><path d="M148.2 19.701l.9-.003 1.343.004v.897c-1.742.71-2.037.591-2.242-.898z" class="cls-22"/><path d="M149.099 19.252c-.652.006-1.304.012-1.346-.897a1.353 1.353 0 0 1 1.346.897z" class="cls-9"/><path d="M324.969 19.7a1.356 1.356 0 0 0 .894 1.346c-.357 1.765 1.45 3.134.902 4.934a2.502 2.502 0 0 1 .212 1.52q.008 15.979 0 31.957a2.502 2.502 0 0 1-.213 1.52c.362 1.765-1.448 3.134-.9 4.933-.558.339-.636 1.16-1.35 1.343a2.147 2.147 0 0 1-.542-1.452 4.09 4.09 0 0 1 .261-1.593 13.666 13.666 0 0 0 .988-6.098q-.067-14.87 0-29.74a12.575 12.575 0 0 0-1.05-6.078 3.189 3.189 0 0 1 .106-2.41.49.49 0 0 1 .692-.182z" class="cls-13"/><path d="M326.765 60.977V25.98c.624.51.44 1.223.44 1.87q.013 15.628 0 31.257c0 .647.184 1.36-.44 1.87z" class="cls-13"/><path d="M303.433 13.867l1.348-1.344a6.18 6.18 0 0 0 3.036-.645c4.053-1.615 7.48.061 10.873 1.988-.752.613-1.72.38-2.56.659-1.13-.463-2.587-.148-3.38-1.414.057-.173.156-.263.287-.23.206.054.15-.11-.047-.06a8.996 8.996 0 0 1-3.725.15c-.04-.006-.563-.602-.337.15-.884 1.266-2.366 1.037-3.592 1.452a2.628 2.628 0 0 1-1.903-.706z" class="cls-24"/><path d="M316.448 14.306c.527-1.269 1.517-.18 2.242-.44.926.715 2.456.702 2.696 2.242a1.23 1.23 0 0 1-.446.379 2.612 2.612 0 0 1-1.161.259 6.362 6.362 0 0 1-3.331-2.44z" class="cls-25"/><path d="M322.274 16.114c1.276.245 1.283 1.26 1.354 2.235l-.288.225c-1.226.243-1.49-.503-1.526-1.484a1.8 1.8 0 0 1 .46-.976zm2.695 3.586l-.458.004a.692.692 0 0 1-.96-.033.992.992 0 0 1 .068-1.312l.01-.01.892.004.448 1.347z" class="cls-13"/><path d="M322.274 16.114l-.002.898c-.932.422-1.37.108-1.342-.9l.456-.004.888.006z" class="cls-26"/><path d="M322.275 71.74c-1.421-.15-2.077 1.737-3.588 1.348-.194-.906.736-1.142 1.04-1.754 1.271-1.092 1.616-3.323 3.893-3.185.395 1.513-1.5 2.168-1.345 3.59z" class="cls-13"/><path d="M323.62 68.149c-1.751.643-2.335 2.453-3.591 3.592a.754.754 0 0 1-.897.129c-.424-.503-.234-.994.027-1.484a7.208 7.208 0 0 1 .68-.98c.472-.442.882-.944 1.335-1.405.35-.29.675-.61 1.01-.92a1.978 1.978 0 0 1 1.326-.439.766.766 0 0 1 .55.613z" class="cls-27"/><path d="M324.06 67.255l-.442-.448a.742.742 0 0 1-.064-.959.758.758 0 0 1 .963.06l-.002 1.345z" class="cls-26"/><path d="M150.898 234.15q-.004-.223-.004-.445c.784-.792 1.8-.623 2.75-.624q45.031-.022 90.062 0c.95 0 1.967-.168 2.75.625l-.002.444h-95.556z" class="cls-28"/><path d="M253.19 232.815l-4.047-.012c.112-1.689 1.457-1.474 2.492-1.486a26.348 26.348 0 0 0 8.347-1.285 2.736 2.736 0 0 1 1.466.252.97.97 0 0 1 .473.903.551.551 0 0 1-.434.465c-1.494.697-3.212.485-4.716 1.152z" class="cls-29"/><path d="M256.771 232.804c1.398-1.358 3.209-1.198 4.937-1.343q.172.15.116.3-.056.151-.113.151c-.694-.07-.883.62-1.347.894a2.012 2.012 0 0 1-2.24.007z" class="cls-16"/><path d="M258.125 232.813l2.239-.006a2.583 2.583 0 0 1-2.245.898z" class="cls-5"/><path d="M246.456 233.706l-95.562-.001c-.508-.375-.85-.765-.108-1.253a2.743 2.743 0 0 1 .824-.225c13.385-.12 26.77-.037 40.153-.05q25.797-.023 51.591-.004a12.24 12.24 0 0 1 3.694.298c.727.501.342.873-.145 1.233l-.447.002z" class="cls-30"/><path d="M247.354 232.81l-3.59-.007c.067-1.18 1.165-.904 1.802-1.283.69-.172 1.388-.313 2.07-.52 4.525-1.06 9.22-.984 13.74-2.07.962 1.35-.693 1.075-1.013 1.63a25.542 25.542 0 0 1-9.567 1.354 1.57 1.57 0 0 0-1.653.89q-.222 0-.443.008a.955.955 0 0 1-1.346-.001z" class="cls-31"/><path d="M247.354 232.81l1.346.002c-.152 1.198-1.091.81-1.797.892z" class="cls-28"/><path d="M269.786 228.323a2.488 2.488 0 0 1-1.792.9.37.37 0 0 1-.548.029c-.474-1.264.626-1.673 1.265-2.334a1.49 1.49 0 0 1 1.218-.241.985.985 0 0 1 .482.38c.222.634-.184.958-.625 1.266z" class="cls-17"/><path d="M261.71 231.912l-.002-.451a11.21 11.21 0 0 1 1.31-1.1 2.25 2.25 0 0 1 .865-.252 2.086 2.086 0 0 1 1.206.23c.072.075.143.153.214.23-.796 1.522-2.236 1.322-3.592 1.343z" class="cls-32"/><path d="M267.535 229.212l.458.01c-.404 1.433-1.529 1.428-2.69 1.347l-.005-.005c-.12-1.007.743-1.175 1.34-1.572a.913.913 0 0 1 .897.22zm2.251-.889l.452-1.34a.921.921 0 0 1 1.342-.007l-.002.896a3.03 3.03 0 0 1-1.792.45z" class="cls-32"/><path d="M150.9 232.802l-.459.012a1.369 1.369 0 0 1-1.792 0 31.967 31.967 0 0 1-10.803-2.115 5.727 5.727 0 0 0-1.752-.14c-.756-.564-1.814-.538-2.491-1.264-.265-.381-.534-.763-.072-1.188a2.045 2.045 0 0 1 1.365-.247c2.693.727 5.22 2.005 8.016 2.397a5.265 5.265 0 0 0 3.154.605 8.524 8.524 0 0 1 4.258.68c.433.31.755.671.575 1.26z" class="cls-33"/><path d="M133.845 229.218a2.826 2.826 0 0 1 2.25 1.341l-1.353.006c-3.125-1.155-6.458-1.952-8.526-4.934a1.134 1.134 0 0 1 1.207-.276 9.714 9.714 0 0 0 2.495 1.227 13.094 13.094 0 0 1 2.681 1.459 3.211 3.211 0 0 0 1.246 1.177zm14.805 3.596h1.791l.453.89c-.865-.003-1.79.147-2.245-.89z" class="cls-28"/><path d="M105.133 99.112c.908-1.996.296-4.317 1.344-6.283.787.778.55 1.782.606 2.723a5.396 5.396 0 0 1-.215 1.678 10.6 10.6 0 0 0-.2 3.117q-.01 44.788 0 89.575a9.673 9.673 0 0 0 .224 3.11 17.528 17.528 0 0 1 .2 3.765 2.417 2.417 0 0 1-.617 1.919 23.668 23.668 0 0 1-1.382-6.596q.09-46.504.04-93.008z" class="cls-25"/><path d="M106.475 198.716l.005-1.805c.535-.21.856.093 1.143.477a24.135 24.135 0 0 0 1.405 4.355 3.703 3.703 0 0 1 .173.621c.211 1.9 1.238 3.49 1.988 5.185.39.968 1.4 1.564 1.604 2.645.015.848.783 1.465.723 2.338a1.03 1.03 0 0 1-.308.535h-.898c-2.926-3.817-3.9-8.515-5.758-12.814a4.51 4.51 0 0 1-.077-1.537z" class="cls-34"/><path d="M109.616 83.406a23.037 23.037 0 0 1 2.952-6.506 2.365 2.365 0 0 0 .64-1.567v.001a10.482 10.482 0 0 1 1.256-1.575c.5-.27.806-.986 1.557-.679a2.344 2.344 0 0 1 .54 1.461 93.806 93.806 0 0 1-5.203 8.983c-.494.22-.985-.136-1.48-.007l-.262-.11z" class="cls-35"/><path d="M108.72 85.651v-1.794a.928.928 0 0 1 .896-.45l.005.004c.719 1.746.598 2.046-.901 2.24z" class="cls-35"/><path d="M107.374 197.366l-.894-.455-.005-3.582a4.203 4.203 0 0 1-.206-2.197q-.016-46.035 0-92.069a4.191 4.191 0 0 1 .207-2.196l.003-1.344c.97-1.033-.062-2.561.889-3.6l.008-1.336c.398-.205.001-1.092.811-.945 1.066 1.004.548 2.316.688 3.501a7.081 7.081 0 0 1-.18 1.46 8.445 8.445 0 0 0-.267 2.873 2.496 2.496 0 0 1-.57 1.682c-.213-.033-.514 0-.51.219.501 28.514.068 57.03.216 85.544.004.71-.303 1.506.377 2.108a2.344 2.344 0 0 1 .304 1.76 10.78 10.78 0 0 0-.253 3.303c-.014 1.284.018 2.566-.021 3.85a1.89 1.89 0 0 1-.597 1.424z" class="cls-36"/><path d="M107.368 91.924c-.37 1.181.903 2.769-.89 3.599l-.001-2.694a.828.828 0 0 1 .89-.905z" class="cls-37"/><path d="M107.824 89.692a.924.924 0 0 1-.448.895v-2.243c.71-.594.493-1.74 1.339-2.253 1.018 1.526.356 2.636-.89 3.601z" class="cls-35"/><path d="M107.374 65.911c-.505-1.888-2.705-2.08-3.59-3.588 1.02-.84 1.91-.47 2.778.28.848.731 1.516 1.635 2.338 2.388a14.095 14.095 0 0 0 5.684 3.897 1.379 1.379 0 0 1 .295.594 1.048 1.048 0 0 1-.328.918c-.853-.038-1.255-1.194-2.241-.9-1.976-.741-3.337-2.329-4.936-3.589z" class="cls-23"/><path d="M114.55 70.4l.005-.903a.841.841 0 0 1 1.082-.019c.885 1.145 1.209 2.332.258 3.609-.462.278-.644.97-1.34.9a.627.627 0 0 1-.006-.9l.004-1.344z" class="cls-26"/><path d="M114.55 73.088l.005.9c-.023.875-.771 1.024-1.346 1.346.058-.98.072-1.987 1.34-2.246z" class="cls-2"/><path d="M107.824 89.692c.364-1.184 1.223-2.245.891-3.6l.005-.44c1.439-.29.704-1.453.901-2.241.459-.672.915-.567 1.37.003-.062 3.29-1.237 6.349-1.995 9.493a.607.607 0 0 1-.71.395c-.228-1.194.442-2.503-.462-3.61z" class="cls-37"/><path d="M68.342 68.154c-.697.072-.88-.625-1.343-.901-2.682-5.479-2.28-11.354-2.253-17.193q.056-12.658-.017-25.317a8.622 8.622 0 0 1 1.365-5.048c.089.094.178.188.268.28a3.275 3.275 0 0 1 .335 1.515 34.121 34.121 0 0 1-.167 5.588 4.483 4.483 0 0 0-.235 1.541q-.032 13.095.001 26.19a3.885 3.885 0 0 0 .189 1.32 21.07 21.07 0 0 1 .227 4.367 3.311 3.311 0 0 0 .541 2.29c.659 1.295 1.558 2.496 1.626 4.032a1.697 1.697 0 0 1-.537 1.336zm-2.248-48.459l.007-2.236-.002-.001a1.1 1.1 0 0 1 .887-.328 1.253 1.253 0 0 1 .577.292 1.958 1.958 0 0 1-.033 1.599 1.722 1.722 0 0 1-.525.822.773.773 0 0 1-.903-.14z" class="cls-16"/><path d="M92.113 70.839c-1.485 1.296-3.733 1.398-4.93 3.146h.002a21.476 21.476 0 0 1-13.008-.003l-.004-.89c.086-.084.172-.168.257-.254a3.16 3.16 0 0 1 1.394-.331c2.077-.193 4.148.094 6.225.101a13.508 13.508 0 0 0 8.842-2.997.872.872 0 1 1 1.222 1.228z" class="cls-38"/><path d="M74.177 73.982a46.82 46.82 0 0 0 13.008.003 14.228 14.228 0 0 1-13.008-.003z" class="cls-19"/><path d="M68.342 68.154l.005-1.353c.62-.459 1.067-.107 1.499.32.367 1.215 2.211 1.71 1.659 3.378a.756.756 0 0 1-.927-.098 4.204 4.204 0 0 1-2.236-2.247z" class="cls-37"/><path d="M70.578 70.4l.899-.002a5.415 5.415 0 0 1 1.97 1.213c.315.455.973.744.73 1.475l-.004.005c-1.712-.211-3.1-.855-3.595-2.69z" class="cls-38"/><path d="M108.718 65.467a17.706 17.706 0 0 1-2.047-1.98 2.835 2.835 0 0 0-2.887-1.164h-2.241a3.586 3.586 0 0 1-3.432.134c-.362-1.174.631-1.309 1.3-1.586a10.523 10.523 0 0 1 5.252-.377c1.766.495 2.951 1.799 4.19 3.031a1.824 1.824 0 0 1 .27.65 1.345 1.345 0 0 1-.405 1.292z" class="cls-28"/><path d="M94.36 70.395l-.894.003-.003-.004a1.41 1.41 0 0 1-.409-.847 4.003 4.003 0 0 1 .96-2.255 11.735 11.735 0 0 1 1.25-1.56 5.387 5.387 0 0 0 .925-.931 1.523 1.523 0 0 1 .387-.349.533.533 0 0 1 .48.114l-.003 1.344c-.598.658-1.503 1.132-1.345 2.243-.69.603-1.93.875-1.348 2.242z" class="cls-19"/><path d="M97.057 64.566l-.452-.003c-.627-1.2.454-1.552 1.063-2.14.094-.035.19-.068.285-.101h3.59c-.082.984-.836.868-1.494.918-1.153.089-1.98.918-2.992 1.326z" class="cls-14"/><path d="M93.461 69.495l.002.899-1.35.445.01-1.335.22-.213a.922.922 0 0 1 1.118.204z" class="cls-25"/><path d="M110.964 12.523l2.69-.899a.815.815 0 0 1 .99-.054 1.245 1.245 0 0 1 .207 1.017 3.877 3.877 0 0 1-3.117 2.047 18.567 18.567 0 0 0-5.249.037 49.835 49.835 0 0 1-7.522-2.17 4.41 4.41 0 0 0-2.205-.248c-6.797.04-13.595-.088-20.385.07a3.741 3.741 0 0 1-2.539.92 2.747 2.747 0 0 1-1.903-.722 4.413 4.413 0 0 1 3.585-1.37c8.341.053 16.684.11 25.023-.027 2.447-.04 4.458 1.453 6.836 1.4a3.602 3.602 0 0 0 3.589-.001z" class="cls-13"/><path d="M114.553 12.532l.001-.907c.358-.42.992-.015 1.345-.45.876-.898 2.269.016 3.142-.895h1.792c.873.91 2.265-.002 3.142.895 3.38 1.157 5.596 4.016 8.523 5.835a.93.93 0 0 0 .897.45.786.786 0 0 1 .105.95 1.803 1.803 0 0 1-.928.449 4.939 4.939 0 0 1-1.73.084 1.894 1.894 0 0 1-.85-.69c-3.238-4.992-7.984-6.23-13.543-5.463-.653.09-1.325.277-1.896-.258z" class="cls-25"/><path d="M71.93 12.521c.619.067 1.321-.21 1.793.445-1.137 1.54-2.868 2.424-4.173 3.778-.762.058-1.316.737-2.108.711l-.447.001a.961.961 0 0 1 .002-1.344c1.8-.983 2.77-3.108 4.934-3.59z" class="cls-14"/><path d="M123.975 11.175c-1.04-.32-2.486.776-3.142-.895 1.041.32 2.487-.779 3.142.895zm-4.935-.895c-.655 1.67-2.1.574-3.141.896.665-1.639 2.092-.605 3.141-.896zm-8.076 2.243c-1.197.976-2.393 1.58-3.59 0z" class="cls-2"/><path d="M66.997 16.112l-.002 1.344-.896.002V16.11z" class="cls-11"/><path d="M115.899 11.176c-.322.527-.852.433-1.345.45l-.9-.002c.63-.746 1.488-.34 2.245-.448z" class="cls-2"/><path d="M123.075 223.39c-1.854-.212-2.57-1.955-3.87-2.913a16.236 16.236 0 0 1-1.96-2.026.83.83 0 0 1-.106-.93c1.811-.458 2.294 1.284 3.376 2.035.74 1.153 2.043 1.78 2.77 2.948a.87.87 0 0 1-.21.885z" class="cls-38"/><path d="M123.075 223.39v-.9a1.038 1.038 0 0 1 .868-.338 3.022 3.022 0 0 1 1.612.956c.508.968 2.112.893 2.184 2.28l-.178.246-1.345-.003c-.854-.036-1.255-1.19-2.238-.909.066-.692-.627-.871-.903-1.333z" class="cls-39"/><path d="M113.208 213.067l.002-.447c.508-.306.99-.075 1.479.067a3.065 3.065 0 0 1 1.392 1.123 8.395 8.395 0 0 0 .908 1.471 1.536 1.536 0 0 1 .158.874 1.251 1.251 0 0 1-.267.541c-.517.225-.73-.18-.993-.48-1.404-.615-1.606-2.253-2.68-3.149z" class="cls-27"/><path d="M115.887 216.216l.91.44c.395.173.683.4.452.89l-.004.905c-.6-.655-1.498-1.13-1.358-2.235z" class="cls-40"/><path d="M290.425 203.2l-.452 2.24a.797.797 0 0 1-.986.074 1.719 1.719 0 0 1-.394-.986 2.822 2.822 0 0 1 .261-1.372c1.047-2.216 1.035-4.747 2.055-6.972a12.317 12.317 0 0 1 .584-1.635c.355-.435.579-1.165 1.376-.627a1.876 1.876 0 0 1-.201 2.098c.403 2.14-1.003 3.864-1.348 5.831-.464.34-.442 1.002-.895 1.35z" class="cls-26"/><path d="M292.668 196.02l-.005-2.246a.74.74 0 0 1-.065-.96.758.758 0 0 1 .964.063l.003.003c-.324 1.04.775 2.485-.897 3.14z" class="cls-13"/><path d="M290.425 203.2c-.009-.653-.017-1.306.895-1.349l-.003 1.343-.892.006z" class="cls-34"/><path d="M291.318 74.439c-.492-.02-1.022.074-1.345-.451-2.814-1.051-3.29-.905-4.336 1.336a.894.894 0 0 1-.651.228c-1.737-1.463-1.808-2.286-.362-4.093a8.147 8.147 0 0 1 3.79-.239c1.532.426 2.857 1.392 4.435 1.704 3.593 2.292 7.623 1.765 11.567 1.788.905.063 1.874-.148 2.608.622a17.45 17.45 0 0 1-11.603.46c-1.389-.373-2.737-.899-4.103-1.355z" class="cls-24"/><path d="M307.024 75.334l-2.698-.005c-.013-1.66 1.494-1.287 2.363-1.775a3.863 3.863 0 0 1 .738-.137c2.134-.089 4.27-.034 6.402-.047a4.156 4.156 0 0 0 2.713-.555 1.504 1.504 0 0 1 1.7.277c-1.154 1.84-3.131 2.004-4.952 2.19a62.122 62.122 0 0 1-6.266.052z" class="cls-14"/><path d="M318.242 73.092l-1.792.004-.09-.299a2.413 2.413 0 0 1 1.259-1.352 1.391 1.391 0 0 1 1.505.29l.905.006c-.185.711-1.006.787-1.342 1.347l-.445.004z" class="cls-41"/><path d="M285.49 75.332c.14-.843-.471-2.032.956-2.294 1.304-.24 2.674-.557 3.527.95l-1.793-.001c-1.846-.09-1.222 1.302-1.348 2.245-.82.256-1.128-.253-1.343-.9z" class="cls-18"/><path d="M289.08 81.161l-.006.456c-.95.277-1.165-.63-1.69-1.041a2.667 2.667 0 0 1-.985-1.55 2.308 2.308 0 0 1 .064-.95 1.173 1.173 0 0 1 .375-.507 5.1 5.1 0 0 1 2.242 3.592z" class="cls-19"/><path d="M286.838 77.57l-.005.457c-1.92-.36-2.074-.667-1.351-2.689l.007-.006 1.343.9.006 1.337z" class="cls-24"/><path d="M271.58 226.976l-1.342.006-.005-.01c-.225-.742.432-.998.78-1.425a10.28 10.28 0 0 0 1.333-.991 7.01 7.01 0 0 0 1.37-1.346 18.066 18.066 0 0 0 1.92-1.766 1.44 1.44 0 0 1 1.21-.117.967.967 0 0 1 .577.719q-.002.222-.01.444a47.058 47.058 0 0 1-3.59 3.14q-1.122.672-2.243 1.346z" class="cls-35"/><path d="M281.891 218.446l.006.452a1.54 1.54 0 0 1-.896.9c-.83.311-1.196 1.395-2.243 1.345-.326-.784.363-1.298.515-1.958a1.675 1.675 0 0 1 1.42-1.155 1.44 1.44 0 0 1 1.198.416zm-8.068 7.184a7.943 7.943 0 0 1 3.59-3.14 5.063 5.063 0 0 1-3.59 3.14z" class="cls-34"/><path d="M279.651 219.34c.074.786-.64 1.18-.893 1.803-.464.273-.641.97-1.335.903l-.465-.466a.503.503 0 0 1-.146-.371c.006-.137.023-.206.05-.207.788-.788 1.362-1.943 2.789-1.661z" class="cls-40"/><path d="M292.668 192.88l-.005.894-.894.9a1.875 1.875 0 0 1-.478-1.868 28.488 28.488 0 0 0 .282-6.466q.024-42.414.017-84.828a33.975 33.975 0 0 0-.374-5.765.47.47 0 0 0-.096-.386c-.135-.168-.047-.153.002.092a19.277 19.277 0 0 1 .382 3.775q.002 44.552-.022 89.105c-.001 1.015.394 2.306-1.085 2.803-1.005-1.235-.68-2.713-.681-4.099q-.03-40.466-.01-80.932c.001-5.973.303-11.964-1.363-17.805a2.244 2.244 0 0 1 .217-1.182c.354-.498.598-1.158 1.415-1.02.534.672-.109 1.578.449 2.245.727.576.15 1.674.897 2.243-.028 2.054 1.713 3.7 1.348 5.832a3.82 3.82 0 0 1 .437 2.594q.014 45.637 0 91.273a3.81 3.81 0 0 1-.438 2.595z" class="cls-42"/><path d="M292.668 192.88l.001-96.462c1.47.369.866 1.574.867 2.41q.054 26.76.027 53.519v40.53z" class="cls-14"/><path d="M291.321 90.586c-1.44-.291-.706-1.453-.898-2.243l.894.004.004 2.239z" class="cls-40"/><path d="M289.975 86.099l-.898.899a3.137 3.137 0 0 1-.27-3.312c.09-.094.181-.187.273-.28 1.614.46.595 1.795.895 2.693zm-2.245-5.831l1.344 1.35.006 1.788-.007.007a.521.521 0 0 1-.653-.01c-.806-.917-1.633-1.832-.69-3.135z" class="cls-17"/><path d="M290.424 88.343c-.747-.629-.343-1.487-.449-2.244q.223.001.445.005l.004 2.239z" class="cls-17"/><path d="M289.069 204.537l.011.905a.946.946 0 0 1-.014 1.337c-1.25.271-1.27 1.274-1.337 2.249-.46.342-.443 1-.895 1.348l-.002-.001a8.624 8.624 0 0 1-1.343 2.245c-.465.32-.551 1.17-1.378.984a2.137 2.137 0 0 1-.605-1.365 1.192 1.192 0 0 1 .32-.805 6.573 6.573 0 0 0 1.414-2.07 3.293 3.293 0 0 0 .63-1.533 1.993 1.993 0 0 1 .632-1.287 2.994 2.994 0 0 0 1.042-1.384c.385-.51.718-1.15 1.525-.623z" class="cls-36"/><path d="M284.141 213.516c.466-.274.65-.97 1.348-.896a6.332 6.332 0 0 1-2.242 3.59l-.255.174a.67.67 0 0 1-.43-.395 3.04 3.04 0 0 1 .493-2.038 1.25 1.25 0 0 1 1.086-.435z" class="cls-35"/><path d="M281.891 218.446h-1.348c-.597-1.356.483-1.823 1.288-2.438a.954.954 0 0 1 .963.198l.004.004c.283.836-.542.935-.896 1.348zm3.598-5.826c-.164-1.114.743-1.588 1.343-2.245-.058.982-.074 1.988-1.343 2.245z" class="cls-35"/><path d="M286.834 210.376c-.01-.654-.014-1.304.895-1.348.01.654.017 1.306-.895 1.348z" class="cls-17"/><path d="M289.066 206.78l.014-1.338.893-.002c.006.655.015 1.312-.907 1.34z" class="cls-25"/><path d="M281.902 217.558l.896-1.348h.449a1.27 1.27 0 0 1-1.345 1.348z" class="cls-34"/><path d="M181.845 13.865a9.679 9.679 0 0 1 5.981-2.184c2.802-.15 5.608-.15 8.406-.48 1.177-.139 2.022-.98 3.317-.992 3.18-.03 5.967 1.102 8.773 2.311.338.466.998.447 1.346.897a.445.445 0 0 1-.043.624 2.26 2.26 0 0 1-1.676.462c-4.024-2.347-8.298-2.14-12.64-1.23-2.774-.369-5.585.115-8.357-.34-.033-.005-.106.041-.107.065a1.07 1.07 0 0 0 .036.22 5.111 5.111 0 0 1-3.556 1.413 2.178 2.178 0 0 1-1.48-.766z" class="cls-23"/><path d="M231.201 18.354a4.166 4.166 0 0 1 2.247 1.344c-.978.918-2.311.48-3.422.898-4.615-.345-9.24-.16-13.86-.213a6.549 6.549 0 0 1-3.066-.41c-.392-.331-.528-.682.02-.979a9.202 9.202 0 0 0 1.51-.807.778.778 0 0 1 .877.161z" class="cls-19"/><path d="M181.845 13.865c.494.02 1.027-.078 1.351.451a15.511 15.511 0 0 1-5.071 4.47 1.953 1.953 0 0 1-1.644-.353c-.67-1.07.402-1.066.881-1.428h-.002a11.678 11.678 0 0 1 2.695-2.242c.149-1.192 1.085-.814 1.79-.898z" class="cls-25"/><path d="M215.507 18.348l-.91.008a.568.568 0 0 1-.589.076c-1.352-.97-2.84-1.836-2.972-3.77a.685.685 0 0 1 .874.103c1.76.63 2.504 2.283 3.597 3.583z" class="cls-13"/><path d="M180.055 14.763c-.723.958-1.346 2.036-2.695 2.243-.04-1.043 1.033-1.413 1.352-2.24z" class="cls-15"/><path d="M211.91 14.765h-.9c-.78.2-1.038-.385-1.343-.897l.001-.45c.979.064 1.988.077 2.242 1.347zm-2.242-1.348c-.654.009-1.306.016-1.346-.897.651-.005 1.303-.012 1.346.897z" class="cls-20"/><path d="M230.306 20.142c.948-.855 2.1-.265 3.142-.444l.894.002c1.3 1.548 5.002 1.934 7.394.591a3.817 3.817 0 0 1 2.025-.593c1.646.527 3.291-1.154 4.937 0-2.483 1.535-5.34 2.05-8.05 2.97a19.227 19.227 0 0 0-4.446-.004 17.834 17.834 0 0 1-5.896-2.522z" class="cls-14"/><path d="M148.2 19.701c.293 1.436 1.453.705 2.243.898 3.201 1.488 5.897-.53 8.691-1.41a17.054 17.054 0 0 1 5.452-.848c3.51.045 7.022.012 10.532.011l.034.352c-1.12.991-2.654.861-3.923 1.453-3.18.417-6.409-.047-9.584.742-1.966.488-3.707 1.602-5.733 1.854a32.43 32.43 0 0 0-6.349-.068c-1.372-.08-2.466-.924-3.71-1.36a21.548 21.548 0 0 0-7.841-1.009 7.13 7.13 0 0 1-2.411-.208 1.476 1.476 0 0 1-.98-1.415l.124-.342c4.526.05 9.11-.498 13.456 1.35z" class="cls-15"/><path d="M177.362 17.005c-.27.47-.973.655-.89 1.356l-.228.21a.907.907 0 0 1-1.122-.214l-.004-.005c.258-1.266 1.265-1.282 2.244-1.347z" class="cls-15"/><path d="M135.193 19.704c4.991-.192 9.937-.134 14.37 2.673 1.01-.232 1.665.447 2.396.927a1.653 1.653 0 0 0 1.797-.025c.68-.33 1.25-.92 2.084-.877 4.922-2.698 10.268-2.93 15.694-2.705a12.268 12.268 0 0 1 2.24-.002c1.899.88 3.242-.12 4.522-1.338 1.69-1.277 2.951-3.076 4.9-4.04l3.607-1.335a11.333 11.333 0 0 1 4.577-.088 14.7 14.7 0 0 0 3.932.08c4.54-1.517 8.933-1.612 13.015 1.335 2.366.373 2.995 2.522 4.194 4.092a1.58 1.58 0 0 1 .27.87c.754.738 1.7.379 2.562.416 4.982.215 9.991-.445 14.953.455a18.713 18.713 0 0 1 5.823 2.258c1.498.84 2.99.114 4.484-.018a29.436 29.436 0 0 1 8.085-2.684c5.289-.242 10.473.113 15.267 2.684 1.168-.232 1.927.59 2.815 1.084 1.46 1.388 2.003.162 2.594-.913.711-.753.862-1.813 1.437-2.642 1.345-1.903 2.626-3.866 4.683-5.118 1.603-.836 2.974-2.318 5.056-1.825a15.78 15.78 0 0 1 9.88-.005c2.798-.331 4.524 1.522 6.378 3.118.455.413.988.728 1.46 1.117.704.725 1.423.882 2.167.054.365-.345.716-.703 1.072-1.056 1.138-.825 2.073-2.054 3.714-1.89 1.065-.817 2.49-.658 3.61-1.325a7.553 7.553 0 0 1 4.011 0c1.119.669 2.543.505 3.606 1.325l3.575 2.266c1.66.583 2.085 2.22 2.97 3.467.197.482.34.984.564 1.458a7.926 7.926 0 0 1 .5 1.236c.157.845.358 1.677.559 2.514.18 10.95.063 21.898.061 32.846a12.702 12.702 0 0 1-.765 3.696 13.115 13.115 0 0 1-1.61 3.294 16.143 16.143 0 0 1-5.019 4.834 10.89 10.89 0 0 1-4.648 1.522c-1.21.015-2.42.04-3.628-.016-2.22-.973-4.101.43-6.119.88a46.84 46.84 0 0 1-5.084-.03 4.131 4.131 0 0 1-.692-.147 38.426 38.426 0 0 1-3.909-1.325c-2.716-2.647-6.105-2.73-9.571-2.505a6.497 6.497 0 0 0-2.822.31c-.821.35-1.446.8-.938 1.828a9.17 9.17 0 0 0 .915 1.096c.376.438.653.947 1.02 1.392a22.81 22.81 0 0 1 1.402 1.888c.912 1.48 1.794 2.975 2.699 4.459a50.299 50.299 0 0 1 2.2 4.634 6.949 6.949 0 0 1 .55 3.536 37.664 37.664 0 0 1 1.809 11.165q-.088 46.24-.036 92.48c.736.798.382 1.685.186 2.543a59.166 59.166 0 0 1-1.383 5.876c-.778 1.983-1.467 4.005-2.426 5.916-.891 1.57-1.688 3.195-2.65 4.727a52.187 52.187 0 0 1-6.003 7.297c-3.347 3.666-7.47 6.277-11.765 8.662a51.107 51.107 0 0 1-18.252 4.636q-48.178.028-96.345.012a18.558 18.558 0 0 1-2.8-.142 69.03 69.03 0 0 1-9.607-1.74 48.269 48.269 0 0 1-15.72-8.072 57.566 57.566 0 0 1-11.162-13.547 13.626 13.626 0 0 1-1.703-3.602c-.903-2.656-1.91-5.278-2.639-7.991a8.338 8.338 0 0 0-.259-2.3 8.507 8.507 0 0 1-.075-1.322 8.623 8.623 0 0 0-.152-2.281.922.922 0 0 1 .153-.92v-1.794c-.648-.775-.444-1.71-.444-2.586q-.017-41.377 0-82.754c0-.877-.204-1.811.444-2.587l.007-1.777c.547-.84-.1-1.866.42-2.71l.03-1.326c1.18-3.22 1.242-6.746 2.705-9.888 1.809-2.98 3.245-6.182 5.325-9-.18-1.025.749-1.521 1.09-2.298a4.244 4.244 0 0 0 .753-1.524 3.627 3.627 0 0 0-2.387-3.909 13.854 13.854 0 0 1-7.79-5.972 12.061 12.061 0 0 0-1.49-2.666c-1.15-.878-2.211-.043-3.298.176-.849.171-1.672.46-2.533.587a8.428 8.428 0 0 0-1.863.313c-1.546.4-3.76-.413-4.047 2.252a15.963 15.963 0 0 1-2.877 5.365 14.228 14.228 0 0 1-21.19.11c-.915-1.344-2.234-2.443-2.537-4.163a15.006 15.006 0 0 1-.874-4.07q-.036-18.125-.01-36.244a10.255 10.255 0 0 1 .145-2.448c.306-1.284.54-2.612 1.841-3.352a12.118 12.118 0 0 1 4.475-3.605c.652-.546 1.657-.193 2.252-.885 1.525-.484 3.09-.197 4.634-.209 5.5-.042 11-.025 16.5-.006a3.941 3.941 0 0 1 2.181.216l7.165 2.245a5.809 5.809 0 0 0 5.381-.024l2.716-1.77c4.392-.72 8.713-1.162 12.624 1.785a21.764 21.764 0 0 1 3.93 4.517 2.437 2.437 0 0 1 .878.17c1.022.45 2.177.29 3.208.699z" class="cls-43"/><path d="M266.628 23.754c-1.061-.12-1.698-1.065-2.663-1.372.814-.806 1.837-.392 2.758-.413 1.055-.024 1.527-.784 2.159-1.373l.9-.897a.4.4 0 0 1 .572-.006c.439.804-.076 1.458-.337 2.152a1.27 1.27 0 0 1-.704.543 6.784 6.784 0 0 0-1.621 1.083 1.96 1.96 0 0 1-1.064.283z" class="cls-35"/><path d="M270.239 19.704l-.456-.005a13.058 13.058 0 0 1 4.936-4.935c.525-.296.906-.306.901.452-1.903 1.277-3.022 3.263-4.476 4.946a1.176 1.176 0 0 1-.905-.458z" class="cls-16"/><path d="M275.62 15.216a.929.929 0 0 0-.9-.452c.241-1.23 1.619-1.041 2.243-1.794 1.195-.513 2.391-.833 3.587-.002-1.873.245-3.258 1.56-4.93 2.248z" class="cls-23"/><path d="M305.221 14.307l-3.56 2.273c-1.651.32-3.296-.143-4.945-.046-1.916-1.507-3.798-3.071-6.286-3.571.628-.742 1.484-.33 2.236-.441a2.33 2.33 0 0 1 1.38.642c2.984 2.131 6.082 2.82 9.387.703.616.066 1.316-.21 1.788.44z" class="cls-25"/><path d="M133.398 18.352l-.003-.892c.653-.011 1.302-.015 1.35.89l-.005.008a.933.933 0 0 1-1.343-.006z" class="cls-24"/><path d="M324.048 24.669c-.67-.647-.34-1.493-.448-2.251-.042-.84.402-.739.928-.48a8.681 8.681 0 0 1 1.364 5.056q-.078 16.261 0 32.522a8.57 8.57 0 0 1-1.37 5.052l-.278-.3a3.404 3.404 0 0 1-.335-1.594c.877-12.55.14-25.119.41-37.676.003-.117-.155-.228-.27-.33z" class="cls-44"/><path d="M324.528 21.939a.978.978 0 0 0-.928.478l-.465-.892a4.132 4.132 0 0 1 .276-1.642c.07-.062.142-.123.214-.185l.887.006.016 2.235z" class="cls-28"/><path d="M324.517 65.907l-.893.007a1.023 1.023 0 0 1-.325-.899 1.2 1.2 0 0 1 .31-.576.758.758 0 0 1 .91.125l.003.004-.005 1.34z" class="cls-44"/><path d="M312.842 12.98l-4.011.001c-.072-.014-.162-.005-.211-.046a1.774 1.774 0 0 1-.22-.267 16.652 16.652 0 0 1 4.874 0c-.01.055-.002.145-.03.16a3.974 3.974 0 0 1-.402.153z" class="cls-40"/><path d="M322.697 20.184l-2.674-3.612a.932.932 0 0 1 .907-.46 1.363 1.363 0 0 0 1.342.9c-.086.983.357 1.438 1.347 1.347l.006 1.34-.008.007a1.17 1.17 0 0 1-.92.478z" class="cls-28"/><path d="M319.124 71.734l-1.772.02-.196-.284c-.067-1.077.612-1.394 1.512-1.489a1.216 1.216 0 0 1 .918.417l-.462 1.336z" class="cls-45"/><path d="M323.62 65.008l.004.906-.006.893-1.339.45a1.063 1.063 0 0 1-.325-.52 1.392 1.392 0 0 1 .167-.904c.431-.397.733-1.033 1.499-.825z" class="cls-36"/><path d="M321.379 68.154c-.32.574-.46 1.33-1.339 1.349a.386.386 0 0 1-.56-.072c-.056-.939.316-1.524 1.315-1.59a.958.958 0 0 1 .584.313z" class="cls-46"/><path d="M321.379 68.154l-.45-.001q-.556-1.892 1.34-1.349l.01.454a.824.824 0 0 1-.9.896z" class="cls-31"/><path d="M319.584 69.5l.456.003a.937.937 0 0 1-.454.895h-.898c-.353-.95-.032-1.228.896-.898z" class="cls-46"/><path d="M260.363 230.56l1.348-1.336a.9.9 0 0 1 1.134-.186c.661 1.014-.168 1.223-.824 1.527h-.311z" class="cls-47"/><path d="M263.06 230.571c-.05.907-.7.9-1.352.89l.001-.896a1.056 1.056 0 0 1 1.35.006z" class="cls-16"/><path d="M150.9 232.802l-.456-.89c.783-.794 1.8-.625 2.75-.626q44.808-.022 89.615 0c.95.001 1.968-.168 2.75.626-.386.725-1.407.171-1.795.891l-92.865-.001z" class="cls-48"/><path d="M245.559 231.912h-95.115a20.3 20.3 0 0 0-5.531-.454c-.835.023-1.67.043-2.101-.89 1.458-1.115 3.111-.167 4.65-.442a58.123 58.123 0 0 0 10.894.716q42.119-.039 84.237-.012c1.195 0 2.39-.047 3.584.059a1.812 1.812 0 0 1 1.182.577c-.476.647-1.18.382-1.8.446z" class="cls-49"/><path fill="#b7b7b7" d="M247.36 231.466l-.907-.006a.767.767 0 0 1-.078-.952c.726-.406 1.605.123 2.316-.379 6.259-.42 12.153-2.275 17.936-4.565a.973.973 0 0 1 .338.85c-.411 1.194-1.543 1.513-2.492 2.053a6.105 6.105 0 0 0-1.17.662c-.08.032-.164.061-.247.09l-1.345.005c-4.633 1.713-9.59 1.358-14.352 2.242z"/><path d="M267.535 229.212l-.89.01a1.214 1.214 0 0 1-1.178.242.856.856 0 0 1-.409-.461.87.87 0 0 1 .263-.861c1.09-.52 1.936-1.636 3.347-1.372l.227.218c.003 1.02-1.512 1.112-1.36 2.224z" class="cls-44"/><path d="M271.139 225.637c.06.691-.631.872-.906 1.335l-1.338.016-.013-.022c-.549-.77.08-1.082.56-1.455a2.218 2.218 0 0 1 .577-.221 1.46 1.46 0 0 1 .905.125l.215.222z" class="cls-51"/><path d="M263.06 230.571l-1.35-.006 1.346-1.346a1.67 1.67 0 0 1 2.239-.004l.007.01c.188 1.09-.987.805-1.351 1.338z" class="cls-29"/><path d="M263.95 230.563l1.352-1.338 1.344-.003-1.348 1.342z" class="cls-16"/><path d="M147.309 230.563l-4.497.005c-2.96.219-5.4-1.429-8.073-2.244a19.922 19.922 0 0 1-5.485-2.25 2.775 2.775 0 0 1-.512-.311 9.955 9.955 0 0 0-2.752-2.145c-.704-.535-1.22-1.373-2.243-1.404a1.29 1.29 0 0 1-.996-1.213c.132-.643.304-1.223 1.155-.74a45.704 45.704 0 0 0 17.42 8.472c2.435.56 4.918.91 7.38 1.356-.36.47-1.03.025-1.397.474z" class="cls-52"/><path d="M128.91 225.63a19.853 19.853 0 0 1 5.83 2.694l-1.344-.002a.593.593 0 0 1-.894-.003l-2.693-1.345c-.41-.375-1.551-.259-.9-1.344z" class="cls-53"/><path d="M132.501 228.32l.895.002.449.896c-.65.002-1.307.015-1.344-.899z" class="cls-33"/><path d="M128.91 225.63c-.074.698.623.88.9 1.344a2.14 2.14 0 0 1-2.25-1.34l.01-.01a.965.965 0 0 1 1.341.004z" class="cls-39"/><path d="M106.476 96.867v96.462c-.728-.665-.433-1.541-.433-2.325q-.022-45.907 0-91.813c0-.784-.296-1.66.433-2.324z" class="cls-37"/><path d="M108.73 195.573l2.656 8.092c-.479.558.246 1.39-.435 1.903-1.047.38-.904-.608-1.286-1.052-.572-.662-.296-1.628-.943-2.217q-.005-.222-.004-.444c-.659-1.897-.707-3.935-1.338-5.839l-.004-4.033a.68.68 0 0 1 .438-.254.641.641 0 0 1 .432.26l.044 1.304c.494.693-.123 1.6.44 2.28z" class="cls-54"/><path d="M107.38 196.016a8.45 8.45 0 0 1 1.338 5.839 6.207 6.207 0 0 1-1.344-4.489z" class="cls-55"/><path d="M108.722 202.3c.921.046.762.823 1 1.382.279.655.136 1.67 1.237 1.763a1.486 1.486 0 0 1 .472 1.3 1.346 1.346 0 0 1-.468.94 8.276 8.276 0 0 1-2.241-5.386z" class="cls-36"/><path d="M110.963 207.685l.015-.91a.47.47 0 0 1 .557-.048 17.132 17.132 0 0 1 1.205 1.428c.517.704 1.197 1.376.492 2.336a.774.774 0 0 1-.925-.112c.12-1.182-1.703-1.394-1.344-2.694z" class="cls-54"/><path d="M112.307 210.379l.9-.004c.902.67 2.168 1.158 1.352 2.691l-1.35-.446c-.039-.853-1.196-1.255-.902-2.241z" class="cls-42"/><path d="M117.736 72.22c-.067.995-1.034 1.406-1.42 2.194-.506-.326-.396-.848-.421-1.327a9.16 9.16 0 0 0-.447-3.586.974.974 0 0 1 .582-.308 1.143 1.143 0 0 1 .895.34 15.232 15.232 0 0 1 .811 2.688z" class="cls-44"/><path d="M107.829 99.115v87.927l-.764 1.046V97.841c.618.141.125 1.1.764 1.274z" class="cls-37"/><path d="M107.824 191.98l-.448.003c.172-1.046-.418-2.201.453-3.147l.008.874a2.764 2.764 0 0 1-.013 2.27z" class="cls-55"/><path d="M108.256 94.628c-.097.91.322 1.9-.42 2.71.115-.907-.365-1.906.42-2.71z" class="cls-37"/><path d="M108.718 65.467v-1.345c.445-.265.743.025 1.054.274a6.601 6.601 0 0 0 1.426 1.43 8.084 8.084 0 0 0 3.064 1.948 1.392 1.392 0 0 1 .457.419.777.777 0 0 1-.168.862c-2.551-.21-4.28-1.755-5.833-3.588z" class="cls-29"/><path d="M114.55 69.055l.004-.902a.905.905 0 0 1 .982-.149c.513.401.827.852.366 1.493l-.454.004-.893-.004-.004-.442z" class="cls-55"/><path d="M66.096 26.876l.006-5.83c.34-.42.67-.911 1.184-.176a5.169 5.169 0 0 1 .156 1.629c.003 12.071.025 24.14-.03 36.21-.007 1.494.858 3.117-.413 4.51-1.331-.673-.833-1.916-.886-2.958-.064-1.254-.016-2.512-.017-3.769a2.087 2.087 0 0 1-.212-1.296q-.005-13.512 0-27.024a2.087 2.087 0 0 1 .212-1.296z" class="cls-37"/><path d="M66.999 63.218l-.002-41.274c1.245.331.63 1.35.633 2.01.046 10.936.028 21.872.042 32.807a5.053 5.053 0 0 0 .199 2.415l.899 3.61c-.48.922.159 1.533.613 2.193.428.622.878 1.236.52 2.056l-.22.228-1.336-.462c.037-1.377-1.089-2.317-1.348-3.583z" class="cls-54"/><path d="M66.096 26.876v29.616c-.62-.51-.437-1.222-.438-1.87q-.014-12.938 0-25.876c0-.648-.182-1.36.438-1.87zm.898-6.279l-.893.449.001-1.342.894-.004a.658.658 0 0 1-.002.897z" class="cls-37"/><path d="M66.994 20.597l.002-.897.003-.891c.525-.276.96-.377.921.465l-.049 39.902c-.74-.75-.412-1.695-.414-2.55-.024-10.714-.007-21.428-.031-32.142-.002-.851.337-1.801-.43-2.54z" class="cls-30"/><path d="M67.92 19.274a.954.954 0 0 0-.92-.465q.22-.677.443-1.354c.61-.279.693-1.633 1.806-.884l-1.329 2.703z" class="cls-35"/><path fill="#cdcdcd" d="M73.277 71.748a2.182 2.182 0 0 1-1.8-1.35c-.131-1.312-2.038-1.608-1.794-3.135l.01-.012c.505-.223.888.048 1.274.31a12.847 12.847 0 0 0 10.686 4.512 24.364 24.364 0 0 0 3.702-.772 5.466 5.466 0 0 0 2.75-1.019 4.81 4.81 0 0 1 .521-.252 2.318 2.318 0 0 0 1.102-.86 13.163 13.163 0 0 1 2.046-2.237c.625-.247.82-1.324 1.78-.928a1.426 1.426 0 0 1 .23 1.227 3.298 3.298 0 0 1-1.661 2.27v.002c-1.396.464-2.273 1.68-3.615 2.343-3.149 1.554-6.362 1.387-9.646 1.255-1.11-.045-2.222-.013-3.334-.017a6.394 6.394 0 0 1-2.25-1.337z"/><path d="M73.277 71.748a4.18 4.18 0 0 1 2.251 1.337l-1.351.001c-.277-.462-.97-.643-.9-1.338z" class="cls-37"/><path d="M115.449 68.157l-.895-.004h.002c-1.078-.676-2.345-1.055-3.214-2.056-.444-.658-1.194-.97-1.73-1.528l-.894-.447-.007-.444c-.503-.822-1.512-1.319-1.565-2.43.213-.501.774-.478 1.138-.752a16.682 16.682 0 0 0 7.67 5.836c-.808.632.746 1.24.02 1.874a.36.36 0 0 1-.525-.05z" class="cls-57"/><path d="M105.129 60.985c-2.457.1-5.048-.523-7.176 1.337v.001c-1.507.527-1.833 2.663-3.695 2.71a1.444 1.444 0 0 1-.3-.614c-.14-2.293 1.69-2.921 3.214-3.812 2.59-1.089 5.216-1.747 7.984-.645a.825.825 0 0 1-.027 1.023z" class="cls-54"/><path d="M105.129 60.985l.002-.9c1.076-.528 1.603.312 2.233.896-.113 1.18 1.736 1.38 1.347 2.697-1.457-.548-2.304-1.908-3.582-2.693z" class="cls-47"/><path d="M94.365 65.017c1.284-.78 1.673-2.755 3.589-2.694.019 1.029-1.514 1.124-1.349 2.24-.453.346-.556.926-.9 1.345l-1.338 1.352c-.075-.073-.15-.145-.227-.216a2.322 2.322 0 0 1-.204-1.22 1.143 1.143 0 0 1 .43-.807z" class="cls-38"/><path d="M92.123 69.502l1.341-2.248a.608.608 0 0 1 .896-.001l.006.007-.905 2.235-1.338.007z" class="cls-38"/><path d="M95.705 65.908c-.002-.65-.008-1.304.9-1.344a1.34 1.34 0 0 1-.9 1.344z" class="cls-14"/><path d="M99.291 12.082l-23.315-.001c-.183-.482.178-.456.453-.456q11.206-.008 22.412-.001a.673.673 0 0 1 .407.095c.068.057.032.238.043.363z" class="cls-32"/><path d="M111.837 14.303c-1.784 2.26-3.58 1.539-5.38.023a7.085 7.085 0 0 1 5.38-.023z" class="cls-44"/><path d="M133.398 18.352l1.342.006.453 1.346c-1.309.716-2.46.14-3.612-.438.156-.454.655-.564.917-.91z" class="cls-40"/><path d="M132.498 18.355a.84.84 0 0 1-.917.91l-.473-.43c.328-.55.873-.475 1.39-.48z" class="cls-30"/><path d="M117.249 217.546l-.452-.89.009-.459c1.822-.23 3.459 1.152 4.14 3.492a.358.358 0 0 1-.568.113c-1.328-.357-1.729-2-3.13-2.256z" class="cls-58"/><path d="M120.377 219.802l.456-.004c1.397-.632 1.538.826 2.242 1.349a1.555 1.555 0 0 0 .897.895q.23.15.154.298c-.05.1-.102.15-.153.15h-.897c-1.097-.698-2.352-1.237-2.698-2.688z" class="cls-51"/><path fill="#c3c3c3" d="M128.911 225.628l-1.341-.005c-.208-1.29-2.02-.968-2.249-2.237a.623.623 0 0 1 .9-.002c.994.631 2.3.889 2.69 2.244z"/><path d="M126.22 223.384l-.899.002-1.348-.896q.002-.224-.001-.448c1.116-.167 1.587.747 2.248 1.342zm-3.145-2.237c-1.114.16-1.213-1.368-2.242-1.35a7.444 7.444 0 0 0-4.027-3.6l-.014-.88c-.448-.35-.43-1.013-.904-1.344l-1.33-.907c.353-1.3-1.468-1.509-1.35-2.691.295-.987-.865-1.39-.9-2.243-.34-.421-.443-1-.896-1.345q-.217-.003-.434-.011l-.019-1.331c.075-.61-.207-1.305.427-1.78a45.747 45.747 0 0 0 11.656 15.637c.335.289.743.488.865.96-.577.014-.815.345-.832.885z" class="cls-60"/><path d="M115.888 213.973c.924.029.914.686.904 1.343-.901-.044-.904-.692-.904-1.343z" class="cls-47"/><path d="M291.322 95.521a7.531 7.531 0 0 1 .899 4.044q-.007 45.233-.023 90.466c0 1.547-.28 3.095-.43 4.643-.016.492.078 1.022-.449 1.344a2.895 2.895 0 0 1-.586-2.732 42.184 42.184 0 0 0 .371-7.36q-.003-43.882.01-87.764a5.515 5.515 0 0 1 .208-2.64z" class="cls-44"/><path d="M291.322 95.521l-.003 100.497c-.7 2.408-.603 5.065-2.24 7.182a18.764 18.764 0 0 0-.246-.242c-.638-1.081.074-2.244-.2-3.347l1.798-8.527c.789-.823.425-1.85.425-2.776q.032-46.239.017-92.477V92.93a4.901 4.901 0 0 1 .45 2.591z" class="cls-47"/><path d="M289.069 204.537c-.694-.061-.874.63-1.333.91-.528-1.325-.545-2.35 1.331-2.259l.012.012-.01 1.337z" class="cls-47"/><path d="M306.584 73.995c-.571.751-1.928.174-2.258 1.334-3.288-.14-6.663.566-9.81-.96-.674-.326-1.73-.136-1.856-1.273l.294-.258a2.113 2.113 0 0 1 1.725.03c3.13 1.257 6.366 1.123 9.617.717.82-.102 1.622-.274 2.288.41z" class="cls-42"/><path d="M285.487 79.371l-2.696-4.482c.078-1.247-.758-2.797 1.14-3.442a1.036 1.036 0 0 1 .662.298c-.591 1.417-.923 2.77.889 3.593-.078 1.162-.08 2.285 1.35 2.689l-.001.895a2.57 2.57 0 0 1-1.344.45z" class="cls-41"/><path d="M284.593 71.745l-.459-.005c.29-1.778 1.04-2.063 3.507-1.34.481.334 1.134.547.987 1.343z" class="cls-35"/><path d="M288.628 71.743l-.896-.897a4.179 4.179 0 0 1 4.937 2.24l-.01.01c-1.612.35-2.743-.734-4.03-1.353z" class="cls-42"/><path d="M292.669 73.086a8.958 8.958 0 0 0-4.937-2.24c-1.345-.29-2.772-.909-3.598.894-1.83.46-.179 2.404-1.343 3.149l-1.339-1.802c-.367-2.381 1.324-2.994 3.055-3.65a6.041 6.041 0 0 1 2.363-.507c2.652.496 4.978 1.845 7.417 2.89a31.446 31.446 0 0 0 4.874 1.446 5.553 5.553 0 0 0 3.92-.322 5.587 5.587 0 0 1 2.607-.462 4.883 4.883 0 0 1 2.53.389c.545 1.378-.963.567-1.195 1.118l-.44.006a28.382 28.382 0 0 1-13.914-.909z" class="cls-51"/><path d="M307.023 73.99l1.348-.896c1.926-1.106 3.945-.628 5.953-.351.725.49.385.875-.124 1.243z" class="cls-44"/><path d="M314.2 73.986l.453-.893a1.218 1.218 0 0 1 1.788-.008l.01.01c-.304 1.426-1.457.705-2.25.89z" class="cls-41"/><path d="M316.442 73.085l-1.789.008-6.282.001-2.694-.005c-.008-.936.75-.866 1.336-1.022 2.528-.23 5.093.334 7.6-.36a2.69 2.69 0 0 1 .65-.324 2.064 2.064 0 0 1 2.069.35l.02.02c.057.691-.633.87-.91 1.332z" class="cls-45"/><path d="M285.487 79.371c.258-.72.727-.804 1.344-.449-.066.693.626.88.9 1.346-.38 1.241.77 2.045.898 3.14a.98.98 0 0 1-.92.482 26.264 26.264 0 0 1-2.222-4.519z" class="cls-27"/><path d="M276.964 221.144l-.006.436-1.328.024-.23-.258c-.312-1.192.313-1.705 1.376-1.902a1.22 1.22 0 0 1 .624.227c.363.64-.203 1.008-.436 1.473zm-3.138 2.251a1.272 1.272 0 0 1-1.348 1.339.655.655 0 0 1-.774.174c-.569-.682.167-.987.41-1.438a2.194 2.194 0 0 1 .437-.372c.43-.211.857-.464 1.355-.188a.35.35 0 0 1-.08.485z" class="cls-31"/><path d="M273.826 223.395l-.004-.46c-.24-.485.038-.822.325-1.16.447-.343.902-.642 1.457-.197l.026.026a1.906 1.906 0 0 1-1.804 1.791z" class="cls-31"/><path d="M271.58 224.73l.898.004c-.038.906-.692.9-1.34.903l-.013-.014a.684.684 0 0 1-.2-.754l.163-.229a.397.397 0 0 1 .492.09z" class="cls-51"/><path d="M281.9 216.21c-.322.824-1.39 1.195-1.357 2.235l-.445.004a1.13 1.13 0 0 1-1.255.186.897.897 0 0 1-.316-.56 7.04 7.04 0 0 1 3.316-3.313 1.018 1.018 0 0 1 .363.537 1.072 1.072 0 0 1-.306.91z" class="cls-54"/><path d="M278.755 218.45l1.343-.001-.447.892-2.687 1.803.444-1.351c-.29-.79.284-1.115.791-1.478a.531.531 0 0 1 .556.135z" class="cls-33"/><path d="M287.709 83.89a.95.95 0 0 1 .92-.482q.222 0 .444.005l.004 3.585-.42.441-.948-3.549z" class="cls-27"/><path d="M281.898 214.86c-1.132.965-1.836 2.358-3.147 3.143-.818.219-.778-.414-.89-.897l5.862-7.175c1.21.002 1.223.059.417 1.784l-.443.456a4.968 4.968 0 0 1-1.799 2.69z" class="cls-57"/><path d="M289.067 203.188c-1.254.276-1.282 1.273-1.33 2.26-.003.647.006 1.303-.903 1.34-.475-.351-.433-.895-.52-1.391l2.319-5.786c.888 1.102.254 2.39.434 3.577z" class="cls-53"/><path d="M286.313 205.397c.577.312.512.865.52 1.39-.524.323-.424.855-.448 1.345-.458.345-.556.928-.894 1.351a2.746 2.746 0 0 1-1.351 2.232c-.374-.54.85-1.454-.418-1.784l2.591-4.534z" class="cls-48"/><path d="M281.898 214.86a4.522 4.522 0 0 1 1.799-2.69c.528.324.426.854.444 1.346a.93.93 0 0 1-.889.455c-.459.439-.203 1.6-1.353 1.34z" class="cls-54"/><path d="M285.49 209.483c-.009-.654-.018-1.308.895-1.35a1.362 1.362 0 0 1-.894 1.35z" class="cls-53"/><path d="M281.899 215.311l1.353-1.34-.458 2.235-.894.003z" class="cls-30"/><path d="M212.337 18.827c-1.277-1.56-2.22-3.414-4.01-4.518.323-.523.85-.424 1.34-.441.694-.07.879.623 1.343.898l3.14 3.59c-.488.605-1.192.38-1.813.47z" class="cls-35"/><path d="M195.312 12.973a2.533 2.533 0 0 1-2.821.52c-1.814-.744-3.775-.51-5.689-.511-.073-.014-.166-.005-.214-.048a1.703 1.703 0 0 1-.214-.274c2.985-.056 5.987-.596 8.938.313z" class="cls-17"/><path d="M212.337 18.827c.468-.682 1.184-.409 1.813-.47q.223.002.447 0c.157 1.804-1.281.456-1.806.914l-.454-.444z" class="cls-44"/><path d="M178.296 18.357c-1.432 2.643-1.713 2.754-4.504 1.78.293-1.498 2.15-.637 2.68-1.778v.002l1.824-.004z" class="cls-39"/><path d="M240.613 22.382c-1.491.93-2.981 2.044-4.484.018a5.051 5.051 0 0 1 4.484-.018z" class="cls-37"/><path d="M151.792 23.737l-2.229-1.36a9.414 9.414 0 0 1 6.277.025l-1.832 1.309c-.741-.2-1.476.14-2.216.026z" class="cls-41"/><path d="M176.472 18.36c-.034 1.888-1.98.892-2.68 1.776a3.48 3.48 0 0 1-2.258-.44c.958-1.082 2.546-.48 3.588-1.34l1.35.003z" class="cls-25"/><path d="M199.238 220.191c-15.697 0-31.394.026-47.09-.007a34.132 34.132 0 0 1-34.18-30.49 33.601 33.601 0 0 1-.186-3.803q-.015-42.718-.007-85.436a33.99 33.99 0 0 1 34.032-34.381q47.539-.196 95.078 0a34.051 34.051 0 0 1 34.063 34.378q.011 42.718-.001 85.436a34.161 34.161 0 0 1-34.17 34.29c-15.846.063-31.692.013-47.539.013zM77.566 40.293c0-5.382.085-10.766-.047-16.144-.045-1.839.56-2.22 2.267-2.189 5.53.103 11.063.007 16.594.046a13.402 13.402 0 1 1-.11 26.8c-3.064.01-6.137.137-9.19-.047-1.966-.118-2.422.582-2.263 2.382.158 1.78.043 3.585.033 5.38-.016 3.046-1.264 4.595-3.67 4.572-2.37-.023-3.599-1.575-3.609-4.654-.018-5.381-.005-10.764-.005-16.146z"/><path d="M303.579 58.471a3.247 3.247 0 0 1-2.436 3.397 3.18 3.18 0 0 1-4.087-1.856c-.91-2.126-1.692-4.313-2.403-6.514a1.973 1.973 0 0 0-2.223-1.635q-7.062.113-14.127.002a1.996 1.996 0 0 0-2.298 1.542c-.73 2.195-1.583 4.353-2.473 6.49-.91 2.187-2.749 3.023-4.66 2.235-1.785-.736-2.549-2.57-1.744-4.69q5.97-15.712 12.024-31.39c1.087-2.836 3.378-3.885 6.183-3.97a6.098 6.098 0 0 1 6.282 3.836c4.289 10.356 7.926 20.959 11.758 31.487a6.436 6.436 0 0 1 .204 1.066z" class="cls-61"/><path d="M133.774 55.368c0 2.548.034 4.86-.01 7.17-.043 2.246-1.445 3.734-3.36 3.67a3.34 3.34 0 0 1-3.2-3.61q-.042-14.79.004-29.58c.015-3.198 2.707-4.58 5.407-2.777a1.506 1.506 0 0 0 1.748.112 11.028 11.028 0 0 1 15.424 7.616 17.793 17.793 0 0 1-1.43 12.848c-3.178 6.061-8.33 7.722-14.583 4.551zm113.034-7.171a9.114 9.114 0 0 0 6.137 2.83c1.872.178 2.99.78 2.842 2.843-.143 1.985-1.232 2.895-3.179 3.019-7.077.448-12.719-4.472-13.484-11.8-1.008-9.647 4.76-15.94 14.331-15.636a12.25 12.25 0 0 1 11.873 10.246 46.925 46.925 0 0 1 .375 6.466c.096 1.485-.543 1.713-1.827 1.697-4.925-.06-9.85-.036-14.776-.01a3.315 3.315 0 0 0-2.292.345zm-84.668-.1a9.252 9.252 0 0 0 6.317 2.942c1.786.17 2.805.773 2.716 2.729a2.921 2.921 0 0 1-3.069 3.118 12.649 12.649 0 0 1-13.607-11.952 19.991 19.991 0 0 1 .294-4.908c1.436-7.463 6.741-11.22 14.934-10.527 6.391.54 11.087 5.807 11.268 12.638.151 5.701.151 5.7-5.617 5.701q-6.276.003-12.552.019a3.3 3.3 0 0 0-.684.24zm48.234-6.105c0-3.588.05-7.178-.027-10.765-.028-1.288.203-1.844 1.68-1.813 4.708.099 9.42-.025 14.128.055a9.38 9.38 0 0 1 9.244 9.137c.12 4.931.06 9.868.016 14.801a3.23 3.23 0 1 1-6.448.076c-.067-4.41-.008-8.821-.031-13.232-.018-3.32-1.284-4.696-4.597-4.686-2.437.008-5.617-1.083-7.092.472-1.176 1.24-.36 4.396-.378 6.702-.026 3.439.006 6.878-.012 10.316-.012 2.367-1.19 3.775-3.142 3.824-1.994.05-3.316-1.458-3.334-3.898-.027-3.663-.007-7.326-.007-10.99z"/><path d="M307.888 58.783c-.424-.42-.337-.965-.338-1.477q-.007-15.339-.01-30.678a3.433 3.433 0 0 1 1.958-3.471 3.193 3.193 0 0 1 4.6 2.906c.072 10.599.05 21.199.007 31.798a2.933 2.933 0 0 1-2.664 3.107c-1.71.245-3.108-.27-3.558-2.193.526-.747.252-1.594.254-2.388.023-9.109.01-18.217.021-27.325a11.561 11.561 0 0 1-.02-1.917c0 9.461.007 19.349-.013 29.236a4.123 4.123 0 0 1-.237 2.402z" class="cls-61"/><path d="M192.278 39.942c0 4.407.016 8.814-.006 13.221-.012 2.323-1.277 3.739-3.232 3.716-1.925-.022-3.215-1.474-3.22-3.776q-.032-13.22-.001-26.441c.005-2.372 1.203-3.762 3.162-3.815 2.046-.056 3.283 1.373 3.293 3.875.016 4.407.004 8.813.004 13.22z"/><path d="M116.303 43.128c0-3.283-.022-6.566.007-9.848.022-2.535 1.211-3.863 3.34-3.83 2.039.033 3.213 1.293 3.229 3.736q.066 9.96-.002 19.919c-.017 2.335-1.33 3.75-3.247 3.778-2.005.028-3.299-1.457-3.32-3.908-.029-3.282-.007-6.565-.007-9.847zm87.661-.11c0 3.355.02 6.71-.007 10.066-.02 2.326-1.25 3.758-3.177 3.796-2.017.04-3.276-1.423-3.282-3.9q-.022-9.842 0-19.684c.008-2.588 1.13-3.866 3.284-3.844 2.117.022 3.164 1.302 3.178 3.948.017 3.206.004 6.412.004 9.618z" class="cls-62"/><path fill="#b0b0b0" d="M147.309 230.563c.336-.54.9-.407 1.396-.474l2.645.042a5.68 5.68 0 0 0 2.645.205q44.91.02 89.819.023a5.558 5.558 0 0 1 2.643.206l-.004.895q-46.56.001-93.121.056c-2.116.005-3.896-1.456-6.023-.953z"/><path fill="#adadad" d="M246.457 230.565q-46.164 0-92.327-.018c-.928 0-1.954.371-2.78-.416 10.317-.019 20.634-.055 30.95-.053q33.196.01 66.39.051c-.63.73-1.482.327-2.233.436z"/><path d="M92.12 67.251l-2.242 2.25c-.345.454-1.007.433-1.345.9v-.002a18.323 18.323 0 0 0-2.693 1.342 14.554 14.554 0 0 1-10.6-.082c-1.982-.697-3.347-2.344-4.656-3.952-.297-.566-.57-1.125.394-1.313 4.667 5.146 13.465 6.58 19.438.943.379-.357.783-.689 1.175-1.032.836-.054.812.374.528.946z" class="cls-65"/><path fill="#040404" d="M200.762 21.636a3.41 3.41 0 0 1 3.177 3.409 3.286 3.286 0 0 1-3.248 3.29 3.335 3.335 0 0 1-3.19-3.364 3.433 3.433 0 0 1 3.26-3.335z"/><path fill="#030303" d="M122.768 24.912a3.283 3.283 0 0 1-3.095 3.426 3.353 3.353 0 0 1-3.312-3.234 3.46 3.46 0 0 1 3.124-3.457 3.336 3.336 0 0 1 3.283 3.265z"/><path d="M307.023 72.642c-.492.019-1.022-.077-1.346.447-1.583-.47-2.75.913-4.268.92-3.643.016-6.851-1.368-10.045-2.86a19.222 19.222 0 0 0-4.53-1.65.42.42 0 0 1 .038-.603 1.822 1.822 0 0 1 .948-.33c2.19-.243 3.749 1.446 5.721 1.874l3.626 1.293a11.126 11.126 0 0 0 7.492-.011c1.743-.535 3.421-.844 5.13.024-.567 1.397-1.987.153-2.766.896z" class="cls-65"/><path fill="#c9c9c9" d="M324.048 24.669c.017-.073.011-.164.054-.214a1.908 1.908 0 0 1 .27-.228c.05.64.142 1.28.143 1.92q.012 18.536.005 37.07a.715.715 0 0 1-.837.171c-.433-.229-.258-.744-.5-1.063a23.518 23.518 0 0 0 .898-7.035c-.056-10.207-.029-20.414-.033-30.621z"/><path d="M277.862 217.106l.89.897q.006.224.003.447-.22.004-.44.005a3.662 3.662 0 0 0-1.354 1.337c-1.147.069-1.382.828-1.357 1.787q-.666.23-1.331.463a13.54 13.54 0 0 0-1.795 1.345v.003a5.44 5.44 0 0 0-1.348 1.34c-.346.455-1.004.44-1.346.898-1.103.103-1.833 1.504-3.138.902l-.02-.966c2.452-1.893 5.269-3.24 7.645-5.276 1.216-1.042 2.36-2.16 3.59-3.182z" class="cls-52"/><path fill="#b6b6b6" d="M309.715 71.745c-2.849-.458-5.483.796-8.243 1.093a29.15 29.15 0 0 1-4.55-.334c-.911-.039-.322-.62.244-.77l-.011-.003a14.698 14.698 0 0 0 5.833.004c1.916-.486 3.658-2.135 5.836-.874a8.05 8.05 0 0 0 4.022.008c1.617-.107 2.966-1.038 4.481-1.456.619 2.077-1.514 1.527-2.228 2.332l.002.002a7.355 7.355 0 0 1-5.386-.002z"/><path d="M107.364 60.98c-.98.29-1.377-.874-2.233-.895-2.726-.012-5.473-.223-8.074.892a.362.362 0 0 1-.536.022c-.384-1.196.632-1.258 1.291-1.667.323-.2 1.15.31.968-.635.552-.513 1.232-.387 1.89-.378 1.794.325 3.627-.599 5.428.22.547.248.46-.657.88-.798a8.035 8.035 0 0 1 1.306 2.755c.018.778-.4.73-.92.485z" class="cls-49"/><path d="M293.541 70.44c-1.778.623-2.858-1.374-4.53-1.21a5.34 5.34 0 0 1-1.278-.18 4.79 4.79 0 0 0-3.38-.002c-.758.206-1.504.606-2.318.2-.525-1.235.76-1.025 1.193-1.495 1.761-.021 3.528.04 5.282-.086 2.323-.168 3.293 1.968 5.031 2.773z" class="cls-70"/><path d="M315.1 71.745c.322-1.178 2.224-.848 2.227-2.332a23.386 23.386 0 0 0 4.47-4.425c.783-.014.772.387.487.932l-.015.884a1.268 1.268 0 0 0-1.34 1.349c-.879.02-1.018.777-1.345 1.347a.82.82 0 0 0-.896.897 1.278 1.278 0 0 0-1.356 1.337l-2.233.01z" class="cls-71"/><path fill="#aeaeae" d="M106.978 57.741l.195 2.616c-1.344-1.769-2.87-1.672-4.405-1.64-.71.015-1.502.259-2.1-.398 1.358-.403 2.71-.82 4.072-1.205.86-.244 1.78-.606 2.238.627z"/><path fill="#b2b2b2" d="M98.78 58.697c.528.126 1.223-.143 1.521.688-1.184.659-3.049-.226-3.699 1.586-1.677 1.05-1.677 1.05-2.278.41.295-2.701.295-2.701 4.456-2.684z"/><path d="M94.324 61.382c.873.493 1.418-.835 2.278-.41l.455.005c-.816 1.256-3.04 1.45-2.7 3.578-.4.296-.41.812-.667 1.19l-.222.168c-.56.334-.637 1.157-1.349 1.338a.95.95 0 0 0-.528-.946 30.488 30.488 0 0 0 2.733-4.923z" class="cls-71"/><path fill="#afafaf" d="M283.228 67.754l-1.326 1.3.18.248a1.216 1.216 0 0 1-.237.555c-.647.569-1.078 1.62-2.255 1.026-1.354-.993-.858-1.879.26-2.54a4.784 4.784 0 0 1 3.378-.59z"/><path fill="#c4c4c4" d="M286.833 69.052l.001.447c-2.365.34-4.65.799-5.382 3.588l-.97-1.287c.132-.976.966-1.519 1.42-2.295h.001c.97-.31 1.973-.501 2.953-.777.645-.182 1.45-.549 1.977.324z"/><path d="M115.904 68.146c-.128-.33-.163-.774-.401-.969-1.406-1.148.1-.678.451-.845a3.7 3.7 0 0 1 2.626 4.51.418.418 0 0 1-.54.043c-.462-.618-.556-1.496-1.335-1.893a4.525 4.525 0 0 1-.8-.846z" class="cls-70"/><path d="M296.716 16.534l.139-.848c1.475.98 3.351-.195 4.806.894l-.9.897a12.289 12.289 0 0 1-2.747.016z" class="cls-37"/><path d="M268.892 21.95l.893-.011a.57.57 0 0 1-.007.862c-1.118 2.633-1.553 2.765-3.15.953a.949.949 0 0 1 .91-.47 2.829 2.829 0 0 0 1.354-1.335z" class="cls-33"/><path d="M70.978 66.394c-.486.331-.37.844-.394 1.313l-.89-.456a3.568 3.568 0 0 0-.838-2.377c-.5-.682-.832-1.36-.086-2.089.126 1.576 1.63 2.31 2.208 3.609z" class="cls-48"/><path d="M322.284 65.92a.985.985 0 0 0-.487-.931l1.385-2.664a.928.928 0 0 1 .442.896.961.961 0 0 1 0 1.344q-.005.221-.004.443c-.459.284-.643.97-1.336.912z" class="cls-31"/><path d="M298.014 17.493a2.023 2.023 0 0 1 2.748-.016c-.907 1.577-1.824 1.539-2.748.016z" class="cls-58"/><path d="M118.148 70.841h.432a1.391 1.391 0 0 1-.844 1.38c-1.65-.44-.651-1.803-.946-2.715l.292-.103c.71.216.612 1.032 1.066 1.438z" class="cls-46"/><path d="M302.988 71.735a7.801 7.801 0 0 1-5.833-.004l5.833.004z" class="cls-65"/><path d="M281.902 69.505c.142 1.145-.787 1.627-1.419 2.295l-.892-.917c1.132.148 1.27-1.373 2.311-1.378z" class="cls-76"/><path d="M269.778 22.801l.007-.862.454-2.235a.93.93 0 0 1 .905.458c-.563.824-.45 1.998-1.366 2.64z" class="cls-36"/><path d="M312.846 70.869a4.171 4.171 0 0 1-4.022-.008l4.022.008z" class="cls-52"/><path d="M151.792 23.737a1.502 1.502 0 0 1 2.216-.026c-.734.397-1.468.84-2.216.026z" class="cls-51"/><path d="M322.697 20.184a.941.941 0 0 1 .92-.478c-.054.634.212 1.353-.482 1.818-.493-.333-.397-.858-.438-1.34z" class="cls-44"/><path d="M107.824 191.98l.013-2.27c.673.663.37 1.502.41 2.279q-.212-.007-.423-.009z" class="cls-36"/><path d="M108.73 195.573c-.763-.64-.361-1.507-.44-2.28.66.66.368 1.506.44 2.28z" class="cls-55"/><path d="M268.892 21.95q.138 1.494-1.354 1.335a2.8 2.8 0 0 1 1.354-1.336zm54.731 42.615v-1.344l.897-.003v1.346l-.897.001z" class="cls-36"/><path d="M266.646 226.53c1.095-.13 1.896-1.283 3.138-.902-.27.467-.966.647-.902 1.338-1.375-.026-2.193 1.416-3.58 1.358a.95.95 0 0 1-1.35-.002z" class="cls-48"/><path d="M263.953 228.322l1.348.002-.006.891-2.239.004a.819.819 0 0 1 .897-.897z" class="cls-47"/><path d="M269.784 225.628c.043-.907.691-.906 1.345-.897l-.004.892-1.341.005z" class="cls-48"/><path d="M111.412 206.787c.911.04.9.694.895 1.345a1.355 1.355 0 0 1-.895-1.345z" class="cls-54"/><path d="M115.904 68.146a.953.953 0 0 1 .894.455.61.61 0 0 1 .001.897l-.009.008-.888-.009-.453-1.34z" class="cls-46"/><path fill="#cfcfcf" d="M111.412 65.911c.968.86 2.528.888 3.143 2.241a3.99 3.99 0 0 1-3.596-2.236q.224-.29.453-.005z"/><path fill="#c7c7c7" d="M111.412 65.911l-.453.005a1.277 1.277 0 0 1-1.346-1.347c1.064-.175 1.465.539 1.8 1.342z"/><path d="M85.84 71.74a2.844 2.844 0 0 1 2.693-1.34c-.78.684-1.517 1.453-2.693 1.34z" class="cls-71"/><path d="M94.36 67.253l-.896.001.004-1.34v-.002a.613.613 0 0 1 .892-.004z" class="cls-30"/><path d="M88.533 70.4c.038-.913.692-.906 1.345-.9-.044.905-.692.906-1.345.9z" class="cls-71"/><path d="M94.36 65.908l-.893.004c-.01-.655-.009-1.3.89-1.357l.008.462z" class="cls-47"/><path fill="#c1c1c1" d="M309.715 71.745l5.386.002c-.156 1.08-.997.882-1.7.887-2.126.015-4.252.007-6.378.008.681-.949 2.01.047 2.692-.897z"/><path d="M276.961 219.792a1.258 1.258 0 0 1 1.354-1.337l-.907 1.338-.224.001zm-4.483 3.595c.136-1.065.976-1.191 1.795-1.345l-.451.893-1.344.452z" class="cls-57"/><path d="M271.13 224.73a1.26 1.26 0 0 1 1.349-1.34c.068.694-.625.877-.9 1.34z" class="cls-48"/><path d="M199.387 74.224h46.88c14.786.001 26.463 11.14 26.546 25.864q.243 43.065-.005 86.132c-.09 14.61-11.812 25.82-26.393 25.822q-47.104.006-94.208 0a25.956 25.956 0 0 1-26.308-25.896q-.195-43.066.004-86.133c.073-14.583 11.75-25.785 26.38-25.789q23.552-.005 47.104 0zM91.803 29.512c1.792.002 3.587-.061 5.375.015a6.101 6.101 0 0 1-.002 12.184c-3.655.101-7.317-.01-10.974.05-1.11.018-1.387-.393-1.37-1.43.054-3.135.077-6.273-.008-9.407-.034-1.285.537-1.468 1.604-1.431 1.79.061 3.583.017 5.375.019z" class="cls-43"/><path fill="#fefdfc" d="M285.75 29.57c1.745 4.656 3.479 9.315 5.242 13.963.32.846-.038 1.099-.788 1.1-3.208.007-6.417 0-9.626.007-1.046.002-1.047-.538-.747-1.311q2.66-6.876 5.302-13.759z"/><path fill="#fe551e" d="M277.088 51.216h16.459v.22h-16.472z"/><path fill="#fdfdfd" d="M143.995 43.666a9.508 9.508 0 0 1-1.324 4.978 4.89 4.89 0 0 1-5.64 2.071c-2.193-.679-3.25-2.192-3.257-4.676-.006-2.38.07-4.765-.03-7.141a2.169 2.169 0 0 1 1.594-2.33c5.047-2.149 8.647.735 8.657 7.098z"/><path d="M252.275 41.238c-1.792 0-3.584-.042-5.373.017-1.088.035-1.467-.287-1.226-1.421.597-2.814 3.214-4.503 6.929-4.379 3.197.107 5.843 2.195 6.233 4.801.139.928-.288.989-.966.985-1.866-.01-3.732-.003-5.597-.003z" class="cls-1"/><path d="M167.495 41.238c-1.71 0-3.423-.069-5.127.022-1.356.073-1.448-.548-1.208-1.619.61-2.715 3.352-4.368 7.026-4.183 3.036.152 5.686 2.27 6.034 4.72.149 1.051-.41 1.07-1.15 1.065-1.859-.015-3.717-.005-5.575-.005z" class="cls-3"/><path fill="#fe551d" d="M307.888 58.783V26.014c.77.388.463.93.464 1.333q.033 14.671.009 29.342c-.001.718.224 1.517-.478 2.086z"/><path d="M286.833 69.052c-1.708-.554-3.241.796-4.93.452l-.001-.45c1.142-.292 2.274-.643 3.43-.858a2.429 2.429 0 0 1 2.401.853z" class="cls-76"/><path d="M116.8 69.498l-.002-.897a1.817 1.817 0 0 1 1.35 2.24c-.716-.18-.79-1.004-1.349-1.343z" class="cls-60"/><path d="M199.348 207.297H156.28c-14.676 0-25.052-9.57-25.199-24.254-.272-27.138-.187-54.282.067-81.42.117-12.382 10.926-22.647 23.336-22.678q44.863-.109 89.726 0a23.811 23.811 0 0 1 23.427 23.568q.073 40.6 0 81.201a23.841 23.841 0 0 1-23.65 23.57c-14.88.056-29.76.013-44.639.013z" class="cls-62"/><path d="M199.344 81.494q21.869 0 43.737.002c12.716.007 22.03 9.37 22.03 22.139q.004 39.476 0 78.952c0 12.858-9.34 22.164-22.246 22.166q-43.513.005-87.027 0c-12.995-.002-22.278-9.332-22.278-22.382q-.002-39.252 0-78.504c0-13.06 9.266-22.369 22.27-22.372q21.757-.005 43.514 0z" class="cls-43"/><path d="M200.31 153.816c0 2.766.148 5.543-.046 8.296-.152 2.15.415 2.996 2.702 3.412a15 15 0 0 1 12.655 15.57c-.507 9.539-10.348 16.255-20.338 13.88-7.276-1.73-12.35-7.899-12.256-14.901a15.085 15.085 0 0 1 12.825-14.567c2.272-.395 2.626-1.277 2.584-3.29-.126-5.98-.06-11.963-.03-17.944.004-1.03-.058-1.81-1.207-2.322a3.096 3.096 0 0 1-1.904-2.848 3.821 3.821 0 0 0-1.433-2.872c-6.87-6.98-13.77-13.93-20.556-20.99-1.127-1.174-1.691-.512-2.557.055-7.218 4.731-16.979 3.453-22.361-3.037a13.714 13.714 0 0 1-2.508-14.298c2.159-5.76 6.595-8.954 12.531-9.975 6.905-1.188 13.78 1.818 17.037 7.43 3.15 5.43 2.943 10.877-.712 16.005-.904 1.268-.772 1.89.237 2.9q10.145 10.154 20.175 20.423c.765.783 1.231.696 2.046.156a3.596 3.596 0 0 1 4.223-.032c1.012.705 1.572.555 2.408-.281q10.233-10.226 20.564-20.352c.67-.66.897-1.046.21-1.974-4.31-5.816-4.647-11.884-1.098-17.276a16.716 16.716 0 0 1 17.5-6.877c6.237 1.432 10.694 5.044 12.283 11.401a13.69 13.69 0 0 1-4.757 14.527c-5.257 4.46-11.263 5.127-17.67 2.816-.28-.1-.55-.234-.82-.362-3.53-1.67-3.53-1.67-6.277 1.057q-9.63 9.56-19.273 19.108a2.877 2.877 0 0 0-1.025 2.113 3.524 3.524 0 0 1-2.071 3.237c-1.055.49-1.1 1.224-1.092 2.167.03 3.215.012 6.43.012 9.645z"/><path d="M198.391 172.234c.106 2.126.31 4.06-2.13 5.455-1.804 1.031-1.523 3.8.052 5.298a4.474 4.474 0 0 0 6.403-.33c1.388-1.65 1.319-4.307-.61-5.278-1.985-1-1.837-2.412-1.799-4.037.02-.82.004-1.642.004-2.463 0-3.2 0-3.2 3.04-2.327 6.658 1.915 10.59 8.15 9.055 14.36-1.635 6.618-8.865 10.836-15.954 9.308-6.083-1.311-10.394-6.123-10.521-11.745-.122-5.39 3.749-10.29 9.418-11.923 3.03-.872 3.042-.862 3.042 2.339v1.343zm38.977-57.019a14.863 14.863 0 0 1-6.86-1.768c-1.13-.59-1.732-1.092-.416-2.179a26.627 26.627 0 0 0 2.662-2.714c1.21-1.333 2.317-2.28 4.485-1.806a3.756 3.756 0 0 0 4.418-3.878 4.057 4.057 0 0 0-4.566-3.85c-2.495.17-4.29 2.137-3.796 4.495a2.508 2.508 0 0 1-.922 2.693 29.426 29.426 0 0 0-3.463 3.495c-1.31 1.704-1.997 1-2.892-.352a11.332 11.332 0 0 1-.107-12.657c5.125-7.863 17.378-8.092 22.752-.387a10.952 10.952 0 0 1 .86 11.856 13.54 13.54 0 0 1-12.155 7.052zm-76.13-.007c-8.53-.02-14.87-7.286-13.043-14.945 1.638-6.864 9.439-11.097 16.828-9.133 6.891 1.832 11.004 8.47 9.208 14.865-.08.286-.177.57-.28.849-1.538 4.153-2.004 4.265-5.06 1.215-.846-.844-1.662-1.72-2.544-2.523a2.48 2.48 0 0 1-.883-2.31c.203-2.54-1.778-4.325-4.385-4.221a3.942 3.942 0 0 0-4 4.391 3.807 3.807 0 0 0 4.893 3.298c2.175-.785 3.128.252 4.29 1.515.504.548 1.052 1.057 1.58 1.584 2.626 2.618 2.619 2.658-.74 4.17a14.504 14.504 0 0 1-5.864 1.245z" class="cls-43"/></svg>