<?xml version="1.0" encoding="UTF-8" standalone="no"?>
<svg
   width="256px"
   height="35px"
   viewBox="0 0 256 35"
   version="1.1"
   id="svg1"
   sodipodi:docname="porch copy.svg"
   inkscape:export-filename="adfs_logo.png.png"
   inkscape:export-xdpi="96"
   inkscape:export-ydpi="96"
   inkscape:version="1.3 (0e150ed6c4, 2023-07-21)"
   xmlns:inkscape="http://www.inkscape.org/namespaces/inkscape"
   xmlns:sodipodi="http://sodipodi.sourceforge.net/DTD/sodipodi-0.dtd"
   xmlns="http://www.w3.org/2000/svg"
   xmlns:svg="http://www.w3.org/2000/svg">
  <defs
     id="defs1" />
  <sodipodi:namedview
     id="namedview1"
     pagecolor="#505050"
     bordercolor="#ffffff"
     borderopacity="1"
     inkscape:showpageshadow="0"
     inkscape:pageopacity="0"
     inkscape:pagecheckerboard="1"
     inkscape:deskcolor="#d1d1d1"
     inkscape:zoom="7.9804688"
     inkscape:cx="127.93735"
     inkscape:cy="7.4557024"
     inkscape:window-width="1920"
     inkscape:window-height="1009"
     inkscape:window-x="-8"
     inkscape:window-y="-8"
     inkscape:window-maximized="1"
     inkscape:current-layer="svg1" />
  <title
     id="title1">logo / porch copy</title>
  <g
     id="About-Porch-Booklet"
     stroke="none"
     stroke-width="1"
     fill="none"
     fill-rule="evenodd">
    <g
       id="logo-/-porch-copy"
       transform="translate(0.0019, 0.0008)">
      <g
         id="Page-1"
         transform="translate(-0.0019, -0.0008)">
        <path
           d="M28.8906154,17.8300769 C28.8798462,17.8381538 28.7883077,17.9162308 28.756,18.1639231 L27.6413846,18.0400769 L28.7129231,8.29123077 L28.9929231,17.8300769 L28.9067692,17.8193077 L28.8906154,17.8300769 Z M28.4517692,20.6300769 C28.3871538,21.3704615 28.3036923,22.162 28.2525385,22.2858462 C28.2336923,22.3127692 28.0990769,22.5227692 27.9456154,22.7489231 C27.8298462,22.9212308 27.706,23.1043077 27.6090769,23.2200769 L28.091,19.1654615 L28.5648462,19.2031538 C28.5513846,19.3727692 28.5056154,19.9866154 28.4517692,20.6300769 L28.4517692,20.6300769 Z M27.8944615,24.1273846 L28.0667692,23.8473846 L28.0775385,24.1408462 L27.8944615,24.1273846 Z M26.831,18.9877692 L27.251,19.0577692 L26.7206154,23.8850769 L26.2736923,23.7800769 L26.831,18.9877692 Z M26.2252308,26.7577692 L25.8025385,27.1831538 L6.53638462,23.2604615 C6.41253846,23.107 6.38292308,22.9185385 6.38292308,22.7677692 C6.38292308,22.687 6.39369231,22.6196923 6.39907692,22.582 L25.8348462,26.3754615 L25.8429231,26.3727692 C25.8725385,26.3700769 25.8967692,26.3673846 25.9183077,26.3673846 C26.1983077,26.3673846 26.2225385,26.6043077 26.2252308,26.7254615 L26.2252308,26.7523846 L26.2252308,26.7577692 Z M9.27715385,20.8050769 C9.02946154,20.9235385 7.10176923,21.847 6.48792308,22.1054615 L6.40984615,21.3839231 C6.55523077,21.3246923 7.16638462,21.0850769 7.79369231,20.8427692 C8.15176923,20.7054615 8.51523077,20.5654615 8.80061538,20.4631538 C9.01061538,20.3823846 9.18830769,20.3231538 9.26907692,20.2989231 L9.27715385,20.8050769 Z M5.831,20.5977692 L7.60253846,7.89815385 C7.61869231,7.89815385 7.63215385,7.89546154 7.64561538,7.89276923 L9.41446154,15.7516154 C9.36869231,15.7731538 9.32023077,15.8027692 9.27446154,15.8404615 L9.25292308,15.8539231 L9.25561538,19.2893077 C9.17484615,19.3431538 8.84907692,19.5585385 8.386,19.7927692 C7.85023077,20.062 7.12869231,20.3581538 6.39907692,20.4658462 C6.39907692,20.4658462 6.12984615,20.5062308 5.831,20.5977692 L5.831,20.5977692 Z M10.1602308,16.8958462 L10.1952308,20.8858462 L9.99330769,20.8481538 L9.98253846,16.8662308 L10.1602308,16.8958462 Z M10.8090769,17.0035385 L11.0648462,17.0277692 L11.0783077,21.0689231 L10.7498462,21.0096923 L10.8090769,17.0035385 Z M11.6948462,17.0977692 L11.9721538,17.1139231 L11.9748462,21.2439231 L11.6248462,21.1900769 L11.6948462,17.0977692 Z M12.621,17.2054615 L12.9171538,17.2296923 L12.8686923,21.4108462 L12.551,21.3435385 L12.621,17.2054615 Z M13.5121538,19.4535385 C13.5202308,18.9150769 13.531,18.382 13.5471538,17.9754615 C13.5525385,17.7735385 13.5606154,17.6039231 13.5713846,17.4854615 C13.5767692,17.4262308 13.5794615,17.3804615 13.5821538,17.3481538 C13.5848462,17.3400769 13.5848462,17.3373846 13.5875385,17.332 L13.8998462,17.3508462 L13.7975385,21.5939231 L13.496,21.5454615 C13.4986923,21.3462308 13.5013846,20.4012308 13.5121538,19.4535385 L13.5121538,19.4535385 Z M14.5406154,17.4531538 L14.8771538,17.4881538 L14.756,21.7931538 L14.4140769,21.6989231 L14.5406154,17.4531538 Z M15.5502308,17.5581538 L15.9029231,17.5850769 L15.7575385,21.9277692 L15.3321538,21.8685385 L15.5502308,17.5581538 Z M16.5517692,17.6766154 L16.926,17.6927692 L16.7617692,22.1216154 L16.3579231,22.0408462 L16.5517692,17.6766154 Z M17.6098462,17.8166154 L17.9813846,17.8408462 L17.7633077,22.302 L17.381,22.2131538 L17.6098462,17.8166154 Z M18.6544615,17.9754615 L19.0717692,17.9916154 L18.8321538,22.4635385 L18.4013846,22.3746923 L18.6544615,17.9754615 Z M19.7448462,18.1235385 L20.1890769,18.1316154 L19.8983077,22.6493077 L19.4944615,22.5873846 L19.7448462,18.1235385 Z M20.8433077,18.2150769 L21.3117692,18.2689231 L21.0075385,22.8404615 L20.5283077,22.7596923 L20.8433077,18.2150769 Z M21.9929231,18.3658462 L22.4317692,18.4385385 L22.106,23.0235385 L21.6375385,22.9508462 L21.9929231,18.3658462 Z M23.1371538,18.5246923 L23.6163846,18.5785385 L23.2367692,23.2873846 L22.7602308,23.1796923 L23.1371538,18.5246923 Z M24.3621538,18.6754615 L24.8871538,18.7373846 L24.4052308,23.4543077 L23.8936923,23.3816154 L24.3621538,18.6754615 Z M25.571,18.8235385 L26.0825385,18.8693077 L25.6221538,23.6454615 L25.0890769,23.5539231 L25.571,18.8235385 Z M29.4506154,17.962 C29.4371538,17.9243077 29.3994615,17.8785385 29.3429231,17.8785385 L29.2756154,17.8677692 L28.9740769,7.67738462 C29.0467692,7.61276923 29.0898462,7.51853846 29.0898462,7.41353846 C29.0898462,7.21430769 28.9283077,7.05276923 28.7236923,7.05276923 C28.5244615,7.05276923 28.3629231,7.21430769 28.3629231,7.41623077 C28.3629231,7.52661538 28.4140769,7.62623077 28.4948462,7.69353846 L27.3640769,18.0077692 L9.97176923,16.0612308 C9.96907692,16.0127692 9.961,15.932 9.93138462,15.8566154 C9.89638462,15.7623846 9.81830769,15.6654615 9.681,15.6654615 L7.896,7.72046154 C7.92830769,7.66392308 7.94715385,7.602 7.94715385,7.53469231 C7.94715385,7.33546154 7.78292308,7.17392308 7.58369231,7.17392308 C7.38446154,7.17392308 7.22023077,7.33546154 7.22023077,7.53738462 C7.22023077,7.63969231 7.26330769,7.73392308 7.33330769,7.79584615 L5.54023077,20.6273846 L5.68561538,20.6462308 C5.34638462,20.7700769 4.991,20.9585385 4.98292308,21.2789231 C4.98292308,21.3866154 5.02869231,21.4996923 5.12023077,21.6181538 L5.12561538,21.6289231 L5.14176923,21.6343077 C5.14446154,21.6343077 5.341,21.6962308 5.516,21.6989231 C5.56984615,21.6962308 5.61830769,21.6935385 5.66407692,21.6746923 C5.68561538,21.917 5.75830769,22.7516154 5.85253846,23.7450769 L26.8525385,28.2089231 L26.8525385,28.1954615 L27.3936923,27.3743077 L28.7102308,24.5958462 L28.7102308,24.2889231 L29.4667692,18.1612308 C29.4667692,18.1612308 29.4694615,18.1289231 29.4694615,18.0858462 C29.4694615,18.0481538 29.4667692,18.0023846 29.4506154,17.962 L29.4506154,17.962 Z"
           id="Fill-1"
           fill="#353535" />
        <path
           d="M0.634576923,33.8404231 L33.8388077,33.8161923 L33.8145769,0.611961538 L0.610346154,0.636192308 L0.634576923,33.8404231 Z M34.4526538,34.4273462 L0.0234230769,34.4515769 L0.00188461538,0.0223461538 L34.4284231,0.000807692308 L34.4526538,34.4273462 Z"
           id="Fill-3"
           fill="#353535" />
        <path
           d="M46.438,16.4720769 L48.0399231,16.4720769 C49.5341538,16.4720769 50.6541538,16.1759231 51.3972308,15.5836154 C52.1403077,14.994 52.5118462,14.1324615 52.5118462,13.0043846 C52.5118462,11.8628462 52.2022308,11.0228462 51.5776154,10.4763077 C50.9556923,9.93246154 49.9783846,9.66053846 48.6510769,9.66053846 L46.438,9.66053846 L46.438,16.4720769 Z M57.4226154,12.8293846 C57.4226154,15.3009231 56.6526154,17.1882308 55.1099231,18.4966923 C53.5645385,19.8024615 51.373,20.4566923 48.5245385,20.4566923 L46.438,20.4566923 L46.438,28.6170769 L41.573,28.6170769 L41.573,5.67592308 L48.9041538,5.67592308 C51.6853077,5.67592308 53.8014615,6.27361538 55.2499231,7.47169231 C56.7010769,8.66976923 57.4226154,10.4574615 57.4226154,12.8293846 L57.4226154,12.8293846 Z"
           id="Fill-5"
           fill="#FF7747" />
        <path
           d="M63.5726538,19.4995769 C63.5726538,21.2361154 63.8580385,22.5499615 64.4288077,23.4384231 C64.9968846,24.3268846 65.9284231,24.7711154 67.2153462,24.7711154 C68.4888077,24.7711154 69.4095769,24.3295769 69.9668846,23.4465 C70.5268846,22.5634231 70.8095769,21.2468846 70.8095769,19.4995769 C70.8095769,17.7630385 70.5241923,16.4626538 69.9588077,15.5930385 C69.3961154,14.7261154 68.4672692,14.2899615 67.1830385,14.2899615 C65.9068846,14.2899615 64.9834231,14.7234231 64.4207308,15.5849615 C63.8553462,16.4491923 63.5726538,17.7522692 63.5726538,19.4995769 M75.7041923,19.4995769 C75.7041923,22.3561154 74.9503462,24.5907308 73.4453462,26.2007308 C71.9376538,27.8107308 69.8403462,28.6184231 67.1507308,28.6184231 C65.4653462,28.6184231 63.9791923,28.2495769 62.6949615,27.5118846 C61.4080385,26.7741923 60.4199615,25.7134231 59.7280385,24.3322692 C59.0361154,22.9511154 58.6941923,21.3411154 58.6941923,19.4995769 C58.6941923,16.6349615 59.4426538,14.4057308 60.9368846,12.8145769 C62.4338077,11.2261154 64.5338077,10.4291923 67.2449615,10.4291923 C68.9303462,10.4291923 70.4165,10.7953462 71.7034231,11.5276538 C72.9876538,12.2599615 73.9757308,13.3126538 74.6676538,14.6830385 C75.3595769,16.0534231 75.7041923,17.6580385 75.7041923,19.4995769"
           id="Fill-7"
           fill="#FF7747" />
        <path
           d="M87.8427308,10.7441923 C88.4915769,10.7441923 89.0300385,10.7926538 89.4608077,10.8841923 L89.1000385,15.3722692 C88.7123462,15.2699615 88.2385,15.2161154 87.6865769,15.2161154 C86.1600385,15.2161154 84.9700385,15.6091923 84.1165769,16.3926538 C83.2631154,17.1788077 82.8377308,18.2745769 82.8377308,19.6880385 L82.8377308,28.6184231 L78.0508077,28.6184231 L78.0508077,11.0726538 L81.6773462,11.0726538 L82.3827308,14.0234231 L82.6196538,14.0234231 C83.1635,13.0407308 83.8958077,12.2491923 84.8219615,11.6461154 C85.7508077,11.0457308 86.7550385,10.7441923 87.8427308,10.7441923"
           id="Fill-9"
           fill="#FF7747" />
        <path
           d="M98.1650385,28.6386154 C92.7050385,28.6386154 89.9723462,25.6420769 89.9723462,19.6463077 C89.9723462,16.6659231 90.7154231,14.3882308 92.2015769,12.8132308 C93.6877308,11.2382308 95.8146538,10.4520769 98.5877308,10.4520769 C100.617731,10.4520769 102.437731,10.8478462 104.050423,11.6447692 L102.636962,15.3466923 C101.883115,15.0424615 101.183115,14.7947692 100.534269,14.6009231 C99.8854231,14.4070769 99.2338846,14.3101538 98.5877308,14.3101538 C96.0973462,14.3101538 94.8535,16.079 94.8535,19.614 C94.8535,23.0466923 96.0973462,24.7616923 98.5877308,24.7616923 C99.5085,24.7616923 100.359269,24.6405385 101.145423,24.3928462 C101.928885,24.1478462 102.715038,23.7628462 103.4985,23.2405385 L103.4985,27.3355385 C102.723115,27.8282308 101.942346,28.1674615 101.1535,28.3559231 C100.361962,28.5443846 99.3658077,28.6386154 98.1650385,28.6386154"
           id="Fill-11"
           fill="#FF7747" />
        <path
           d="M122.148654,28.6399615 L117.364423,28.6399615 L117.364423,18.3930385 C117.364423,15.8595769 116.422115,14.5941923 114.540192,14.5941923 C113.199423,14.5941923 112.230192,15.0518846 111.637885,15.9618846 C111.040192,16.8691923 110.741346,18.3445769 110.741346,20.3853462 L110.741346,28.6399615 L105.954423,28.6399615 L105.954423,4.22342308 L110.741346,4.22342308 L110.741346,9.19611538 C110.741346,9.58380769 110.703654,10.4938077 110.633654,11.9261154 L110.523269,13.3395769 L110.770962,13.3395769 C111.839808,11.6245769 113.535962,10.7657308 115.856731,10.7657308 C117.919038,10.7657308 119.483269,11.3203462 120.549423,12.4295769 C121.618269,13.5388077 122.148654,15.1272692 122.148654,17.2003462 L122.148654,28.6399615 Z"
           id="Fill-13"
           fill="#FF7747" />
        <path
           d="M139.391,21.9552308 C139.391,24.0256154 138.647923,25.6571538 137.156385,26.8498462 C135.664846,28.0425385 133.591769,28.6402308 130.931769,28.6402308 C128.484462,28.6402308 126.319846,28.1798462 124.435231,27.2590769 L124.435231,22.7386923 C125.986,23.4306154 127.294462,23.9179231 128.366,24.1979231 C129.440231,24.4806154 130.420231,24.6233077 131.308692,24.6233077 C132.377538,24.6233077 133.193308,24.4186923 133.764077,24.0094615 C134.334846,23.6029231 134.622923,22.9971538 134.622923,22.1894615 C134.622923,21.7398462 134.496385,21.3386923 134.243308,20.9886923 C133.992923,20.6386923 133.624077,20.3021538 133.139462,19.9790769 C132.652154,19.6533077 131.661385,19.1363846 130.164462,18.4229231 C128.761769,17.7633077 127.709077,17.1306154 127.009077,16.5248462 C126.309077,15.9190769 125.749077,15.2136923 125.329077,14.406 C124.911769,13.601 124.704462,12.6586923 124.704462,11.5817692 C124.704462,9.55176923 125.391,7.95792308 126.766769,6.79484615 C128.142538,5.63446154 130.043308,5.05292308 132.471769,5.05292308 C133.664462,5.05292308 134.800615,5.19561538 135.882923,5.47830769 C136.967923,5.761 138.101385,6.15676923 139.280615,6.671 L137.711,10.4536923 C136.488692,9.95023077 135.476385,9.60023077 134.674077,9.401 C133.874462,9.20176923 133.088308,9.10215385 132.312923,9.10215385 C131.392154,9.10215385 130.686769,9.31753846 130.194077,9.74561538 C129.701385,10.1763846 129.459077,10.7363846 129.459077,11.4256154 C129.459077,11.8536923 129.558692,12.2279231 129.755231,12.5456154 C129.954462,12.866 130.269462,13.1756154 130.702923,13.4744615 C131.141769,13.7706154 132.164846,14.3063846 133.788308,15.0817692 C135.934077,16.1075385 137.404077,17.1333077 138.198308,18.1644615 C138.995231,19.1956154 139.391,20.4583077 139.391,21.9552308"
           id="Fill-15"
           fill="#353535" />
        <path
           d="M145.264538,19.5219231 C145.264538,21.2584615 145.549923,22.5723077 146.120692,23.4607692 C146.688769,24.3492308 147.620308,24.7934615 148.907231,24.7934615 C150.180692,24.7934615 151.101462,24.3519231 151.658769,23.4688462 C152.218769,22.5857692 152.501462,21.2692308 152.501462,19.5219231 C152.501462,17.7853846 152.216077,16.485 151.650692,15.6153846 C151.088,14.7484615 150.159154,14.3123077 148.874923,14.3123077 C147.598769,14.3123077 146.675308,14.7457692 146.112615,15.6073077 C145.547231,16.4715385 145.264538,17.7746154 145.264538,19.5219231 M157.396077,19.5219231 C157.396077,22.3784615 156.642231,24.6130769 155.137231,26.2230769 C153.629538,27.8330769 151.532231,28.6407692 148.842615,28.6407692 C147.157231,28.6407692 145.671077,28.2719231 144.386846,27.5342308 C143.099923,26.7965385 142.111846,25.7357692 141.419923,24.3546154 C140.728,22.9734615 140.386077,21.3634615 140.386077,19.5219231 C140.386077,16.6573077 141.134538,14.4280769 142.628769,12.8369231 C144.125692,11.2484615 146.225692,10.4515385 148.936846,10.4515385 C150.622231,10.4515385 152.108385,10.8176923 153.395308,11.55 C154.679538,12.2823077 155.667615,13.335 156.359538,14.7053846 C157.051462,16.0757692 157.396077,17.6803846 157.396077,19.5219231"
           id="Fill-17"
           fill="#353535" />
        <path
           d="M169.555885,14.6671538 L165.412423,14.6671538 L165.412423,28.6186923 L160.6255,28.6186923 L160.6255,14.6671538 L157.989731,14.6671538 L157.989731,12.3598462 L160.6255,11.0729231 L160.6255,9.78869231 C160.6255,7.78830769 161.1155,6.32907692 162.098192,5.40830769 C163.083577,4.48753846 164.658577,4.02715385 166.823192,4.02715385 C168.478962,4.02715385 169.948962,4.27484615 171.233192,4.76484615 L170.010885,8.281 C169.047038,7.97676923 168.155885,7.82330769 167.342808,7.82330769 C166.661654,7.82330769 166.168962,8.02792308 165.867423,8.42907692 C165.563192,8.83292308 165.412423,9.34715385 165.412423,9.97446154 L165.412423,11.0729231 L169.555885,11.0729231 L169.555885,14.6671538 Z"
           id="Fill-19"
           fill="#353535" />
        <path
           d="M178.085115,24.8039615 C178.922423,24.8039615 179.926654,24.6208846 181.097808,24.2547308 L181.097808,27.8166538 C179.905115,28.3497308 178.4405,28.6189615 176.703962,28.6189615 C174.789731,28.6189615 173.395115,28.1343462 172.522808,27.1651154 C171.647808,26.1985769 171.211654,24.7474231 171.211654,22.8116538 L171.211654,14.3524231 L168.923192,14.3524231 L168.923192,12.3278077 L171.556269,10.7285769 L172.937423,7.02396154 L175.998577,7.02396154 L175.998577,10.7581923 L180.909346,10.7581923 L180.909346,14.3524231 L175.998577,14.3524231 L175.998577,22.8116538 C175.998577,23.4901154 176.189731,23.9935769 176.572038,24.3166538 C176.951654,24.6424231 177.457808,24.8039615 178.085115,24.8039615"
           id="Fill-21"
           fill="#353535" />
        <path
           d="M197.4595,28.6176154 L196.110654,22.4818462 L194.287962,14.7306923 L194.180269,14.7306923 L190.979115,28.6176154 L185.831423,28.6176154 L180.839885,11.0718462 L185.613346,11.0718462 L187.637962,18.8418462 C187.961038,20.2337692 188.2895,22.1533846 188.626038,24.6006923 L188.720269,24.6006923 C188.760654,23.8037692 188.943731,22.5437692 189.266808,20.818 L189.519885,19.4853077 L191.6845,11.0718462 L196.956038,11.0718462 L199.012962,19.4853077 C199.056038,19.7141538 199.120654,20.0533846 199.2095,20.5056923 C199.298346,20.9553077 199.3845,21.4345385 199.467962,21.9406923 C199.551423,22.4468462 199.6295,22.9449231 199.696808,23.4322308 C199.761423,23.9168462 199.801808,24.3072308 199.812577,24.6006923 L199.906808,24.6006923 C200.001038,23.8468462 200.170654,22.813 200.410269,21.5018462 C200.652577,20.188 200.822192,19.3022308 200.927192,18.8418462 L203.029885,11.0718462 L207.722577,11.0718462 L202.671808,28.6176154 L197.4595,28.6176154 Z"
           id="Fill-23"
           fill="#353535" />
        <path
           d="M218.666808,20.1753462 L216.817192,20.2372692 C215.425269,20.2803462 214.388731,20.5307308 213.707577,20.9911154 C213.029115,21.4515 212.687192,22.1515 212.687192,23.0938077 C212.687192,24.4426538 213.462577,25.1184231 215.013346,25.1184231 C216.119885,25.1184231 217.008346,24.7980385 217.670654,24.1599615 C218.335654,23.5218846 218.666808,22.6765 218.666808,21.6184231 L218.666808,20.1753462 Z M220.080269,28.3034231 L219.154115,25.9180385 L219.030269,25.9180385 C218.222577,26.9330385 217.393346,27.6357308 216.542577,28.0288077 C215.689115,28.4218846 214.577192,28.6184231 213.206808,28.6184231 C211.524115,28.6184231 210.196808,28.1365 209.227577,27.1753462 C208.261038,26.2115 207.776423,24.8411154 207.776423,23.0615 C207.776423,21.2011154 208.427962,19.8280385 209.731038,18.9422692 C211.034115,18.0591923 212.9995,17.5691923 215.6245,17.4749615 L218.666808,17.3807308 L218.666808,16.6134231 C218.666808,14.8338077 217.756808,13.9453462 215.936808,13.9453462 C214.536808,13.9453462 212.889115,14.3680385 210.993731,15.2161154 L209.410654,11.9826538 C211.429885,10.9272692 213.667192,10.3995769 216.127962,10.3995769 C218.481038,10.3995769 220.284885,10.9111154 221.5395,11.9368846 C222.794115,12.9626538 223.424115,14.5188077 223.424115,16.6134231 L223.424115,28.3034231 L220.080269,28.3034231 Z"
           id="Fill-25"
           fill="#353535" />
        <path
           d="M236.534846,10.7441923 C237.183692,10.7441923 237.722154,10.7926538 238.152923,10.8841923 L237.792154,15.3722692 C237.404462,15.2699615 236.930615,15.2161154 236.378692,15.2161154 C234.852154,15.2161154 233.662154,15.6091923 232.808692,16.3926538 C231.955231,17.1788077 231.529846,18.2745769 231.529846,19.6880385 L231.529846,28.6184231 L226.742923,28.6184231 L226.742923,11.0726538 L230.369462,11.0726538 L231.074846,14.0234231 L231.311769,14.0234231 C231.855615,13.0407308 232.587923,12.2491923 233.514077,11.6461154 C234.442923,11.0457308 235.447154,10.7441923 236.534846,10.7441923"
           id="Fill-27"
           fill="#353535" />
        <path
           d="M246.996615,13.8349615 C245.981615,13.8349615 245.187385,14.1580385 244.611231,14.7988077 C244.035077,15.4449615 243.706615,16.3576538 243.623154,17.5368846 L250.340462,17.5368846 C250.318923,16.3576538 250.009308,15.4449615 249.414308,14.7988077 C248.819308,14.1580385 248.011615,13.8349615 246.996615,13.8349615 M247.672385,28.6184231 C244.848154,28.6184231 242.640462,27.8376538 241.049308,26.2788077 C239.458154,24.7199615 238.663923,22.5122692 238.663923,19.6584231 C238.663923,16.7184231 239.401615,14.4461154 240.871615,12.8388077 C242.341615,11.2341923 244.371615,10.4291923 246.964308,10.4291923 C249.443923,10.4291923 251.377,11.1372692 252.758154,12.5480385 C254.136615,13.9615 254.828538,15.9107308 254.828538,18.4011154 L254.828538,20.7245769 L243.512769,20.7245769 C243.566615,22.0841923 243.967769,23.1449615 244.721615,23.9095769 C245.475462,24.6741923 246.530846,25.0538077 247.893154,25.0538077 C248.948538,25.0538077 249.947385,24.9434231 250.889692,24.7253462 C251.832,24.5045769 252.814692,24.1545769 253.840462,23.6753462 L253.840462,27.3772692 C253.000462,27.7972692 252.106615,28.1068846 251.156231,28.3115 C250.203154,28.5161154 249.042769,28.6184231 247.672385,28.6184231"
           id="Fill-29"
           fill="#353535" />
      </g>
    </g>
  </g>
</svg>
