<?xml version="1.0" encoding="utf-8"?>
<!-- Generator: Adobe Illustrator 21.1.0, SVG Export Plug-In . SVG Version: 6.00 Build 0)  -->
<svg version="1.1" id="Layer_1" xmlns="http://www.w3.org/2000/svg" xmlns:xlink="http://www.w3.org/1999/xlink" x="0px" y="0px"
	 viewBox="0 0 3960 1208" style="enable-background:new 0 0 3960 1208;" xml:space="preserve">
<style type="text/css">
	.st0{fill:#495061;}
	.st1{fill:#EBCFC2;}
	.st2{fill:#4189C6;}
	.st3{fill:#F5E0D4;}
	.st4{fill:#FFFFFF;}
	.st5{fill:#333333;}
	.st6{fill:#B08F7E;}
	.st7{fill:#979A9B;}
	.st8{fill:#D5AD98;}
	.st9{fill:#3373AA;}
	.st10{fill:url(#SVGID_1_);}
	.st11{fill:#221F1F;}
	.st12{fill:#FFE000;}
	.st13{fill:#FF9510;}
	.st14{fill:#FF4B21;}
	.st15{fill:#FF0031;}
	.st16{fill:#38D9FE;}
	.st17{fill:#39D9FE;}
	.st18{fill:#3ADAFE;}
	.st19{fill:#3AD9FE;}
</style>
<g>
	<path class="st16" d="M454.5,101c-82.6,48.1-165.6,95.5-248.1,143.8c-14,8.2-28.5,12.4-44.7,12.2c-28.3-0.4-56.6-0.1-84.9-0.1
		c-5,0-10.1-0.1-15.1,0.3c-6.9,0.6-12.3,2.9-12.6,11.1c-0.3,8.2,4.8,10.9,11.9,11.5c5.6,0.5,11.3,0.4,17,0.4
		c64.2,0,128.3-0.1,192.5,0.1c9.2,0,19.3-2.1,26.9,5.5c6.2,0,12.3,0.1,18.5,0.1c0,0,0,0,0,0c18.3,0,36.6,0,54.8,0c6,0,12,0,18-0.1
		c0.1-0.2,0.2-0.3,0.3-0.5c25.5-10.7,51.8-5.5,77.9-3.5c8,0.6,10.6,8,11.7,15.3c1.2,8.1,0.9,16.3,0.9,24.5c0,140.4,0,280.8,0,421.2
		c0,6.9-0.3,13.9,0.7,20.7c1,6.5,4.6,10.1,11.3,10.4c7.6,0.3,9.5-4.7,9.9-10.9c0.5-6.3,0.3-12.6,0.3-18.9c0-140.4,0-280.8,0-421.2
		c0-8.8-0.6-17.7,1.4-26.3c2.5-10.9,9.7-15.7,20.6-15.2c10.1,0.5,14.1,7,15.3,16c1.1,8.1,0.8,16.3,0.8,24.5c0,146.1,0,292.1,0,438.2
		c0,12.7-0.7,25.5,12.6,33.3c7.7,4.5,13,5.5,13.4-5.9c0.2-5.7,0.1-11.3,0.1-17c0-148.6,0-297.1,0-445.7c0-5-0.1-10.1,0.1-15.1
		c0.6-25.7,4.1-29.7,29.8-29.8c74.9-0.4,149.8,0.2,224.7-0.5c9.6-0.1,26.7,6.4,26.4-11.3c-0.3-15.6-16.3-10.1-25.7-10.3
		c-16.8-0.4-32.3-3.6-46.9-12.1c-82.6-48.3-165.5-96-248.4-143.8c-26-15-31.8-37.1-18.3-65.7c-11.3,0-22.7,0-34,0
		C486.6,65,480.4,85.9,454.5,101z M460.1,251.2c-65.9-0.1-131.7,0-197.6,0c-0.3-1.1-0.6-2.3-0.9-3.4
		c69.7-40.3,139.5-80.7,211.9-122.6c0,40.9-0.2,78.4,0.1,115.9C473.8,251.7,467.3,251.2,460.1,251.2z M508.7,126.3
		c71.7,41.4,140.9,81.4,210.1,121.3c-0.1,1.2-0.2,2.4-0.4,3.5c-65.7,0-131.4-0.2-197.1,0.2c-10.4,0.1-12.8-4.7-12.7-13.7
		C508.8,201.9,508.7,166.2,508.7,126.3z"/>
	<path class="st16" d="M525.9,101.7c82.9,47.8,165.8,95.5,248.4,143.8c14.6,8.5,30.1,11.8,46.9,12.1c9.5,0.2,25.5-5.3,25.7,10.3
		c0.3,17.7-16.8,11.2-26.4,11.3c-74.9,0.7-149.8,0.1-224.7,0.5c-25.7,0.1-29.2,4.1-29.8,29.8c-0.1,5-0.1,10.1-0.1,15.1
		c0,148.6,0,297.1,0,445.7c0,5.7,0,11.3-0.1,17c-0.4,11.4-5.7,10.4-13.4,5.9c-13.3-7.8-12.6-20.6-12.6-33.3c0-146.1,0-292.1,0-438.2
		c0-8.2,0.3-16.4-0.8-24.5c-1.2-9.1-5.3-15.6-15.3-16c-10.9-0.5-18.2,4.3-20.6,15.2c-2,8.7-1.4,17.5-1.4,26.3
		c0,140.4,0,280.8,0,421.2c0,6.3,0.2,12.6-0.3,18.9c-0.5,6.2-2.3,11.2-9.9,10.9c-6.7-0.3-10.3-3.9-11.3-10.4
		c-1.1-6.9-0.7-13.8-0.7-20.7c0-140.4,0-280.8,0-421.2c0-8.2,0.3-16.4-0.9-24.5c-1.1-7.3-3.7-14.6-11.7-15.3
		c-26-2-52.4-7.1-77.9,3.5c-0.1,0.2-0.2,0.3-0.3,0.5c0.9,0,1.7,0,2.6,0c0,0,0,0,0,0c0,0,0,0,0,0c20.8,0.1,41.6,1.6,62.3,0
		c17.6-1.4,20.4,5.4,20.4,21.3c-0.6,151.7,0.2,303.4-0.9,455.1c-0.2,24.3,15.1,17.9,26.8,19c17.2,1.7,8.5-12.4,8.5-18.4
		c0.6-149.8,0.4-299.6,0.4-449.4c0-5,0.2-10.1,0-15.1c-0.4-8.9,3.9-11.6,12.5-12.3c15.9-1.2,13.1,9.4,13.1,18.6
		c0,151.7,0,303.4,0,455.1c0,32.9,2,35.8,36.6,50.2c0-7.5,0-14.2,0-21c0-159.9,0.4-319.8-0.5-479.6c-0.1-20,5.9-23.7,24.3-23.5
		c79.9,1,159.9,0.2,239.8,0.6c13.4,0.1,21.5-0.1,21.7-18.1c0.2-19.6-10.5-17.2-22.5-17.1c-20,0.2-39,0.3-57.9-11
		c-74.4-44.6-149-89.2-225.4-130.3c-30.5-16.4-49.5-33.8-42-70.2c0.2-1.1-0.5-2.4-0.8-3.7C494.1,64.6,499.9,86.7,525.9,101.7z"/>
	<path class="st16" d="M473.7,69.9c0.7,10-2.7,15.7-11.7,20.9c-88.9,50.9-177.5,102.2-266,153.7c-8.5,5-17.1,6.9-26.8,6.8
		c-37.1-0.3-74.2,0.5-111.3-0.4c-14.5-0.4-14.6,7.2-14.4,17.5c0.2,9.9-1,18.2,14,18.1c79.2-0.7,158.5-0.6,237.7-0.7c0,0,0,0,0,0
		c0,0,0,0,0,0c0.7,0,1.4,0,2.1,0c-7.6-7.6-17.7-5.5-26.9-5.5c-64.2-0.3-128.3-0.1-192.5-0.1c-5.7,0-11.3,0.2-17-0.4
		c-7.1-0.6-12.1-3.3-11.9-11.5c0.3-8.1,5.6-10.5,12.6-11.1c5-0.4,10.1-0.3,15.1-0.3c28.3,0,56.6-0.3,84.9,0.1
		c16.3,0.2,30.7-4,44.7-12.2c82.5-48.3,165.6-95.6,248.1-143.8c25.9-15.1,32.1-36,19.1-65C473.5,47.3,472.9,58.7,473.7,69.9z"/>
	<path class="st16" d="M594.8,944.5c10.6-50.6-4.9-92.7-45.5-123.5c-38.8-29.4-82.2-33-126.2-11.1c-11,5.5-17.6,4.6-26.2-3.4
		c-22.1-20.6-48.5-30.9-74.1-30.6c-55.9-0.9-100.4,29.1-118.3,77.7c-3.9,10.6-8.7,13.8-20.1,14.2c-70.3,2.3-121.7,57.7-119,126.9
		c2.6,66.5,58.8,117.4,127.4,114.1c13.9-0.7,21,3.9,28.9,14.7c45.9,62.4,133.9,66.9,185.3,9.7c8.2-9.2,13.3-8.7,23.2-2.4
		c47.6,30.3,107.7,23.9,147.9-14.5c40.2-38.4,48.8-99.4,20.1-148.8C593.7,959.7,593.1,952.8,594.8,944.5z"/>
	<path class="st16" d="M173.6,849.7c7.1-2.2,12.4-2.7,15-10.6c30.3-89.8,144.2-101.1,201-60.3c11.1,8,14.9,4.9,17.8-6.2
		c12-45.7,12-90.5-8.2-134.3c-4.6-10-10.4-13.6-21.4-13.4c-45.9,0.6-91.8,0.3-137.8,0.3c-45.3,0-90.6,0.5-135.9-0.3
		c-12-0.2-18.2,4-22.7,14.6C56.1,699.8,60.9,757.4,96.7,812C114.5,839.3,135.1,862,173.6,849.7z"/>
	<path class="st16" d="M787.6,507.2c0-12.1-0.7-21.5,0.2-30.8c1.2-12.8-2.8-19-16.5-17c-4.3,0.6-8.9,0.6-13.2,0
		c-13.9-2.1-16.7,4.5-16.4,17.1c0.7,39.6,0.3,79.3,0.3,119c0,95-0.1,190.1,0.1,285.1c0,5.8-3.3,15.4,3.9,16.7
		c12.1,2.2,25.6,3.1,37.3-0.2c8.8-2.5,4.1-14.5,4.1-22c0.4-52,0.2-103.9,0.2-159.9c35.5,35.2,73.4,56.7,121.1,53.8
		c47.2-2.9,85-24.1,114.8-60.6c48.6-59.4,43.9-150.8-11-206.6C951.3,439.4,871.9,440.6,787.6,507.2z M902.5,723.9
		C843.5,723.6,790.7,670.1,791,611c0.3-60.1,52.3-110.7,113.2-110.3c59.4,0.4,106.5,50.3,105.8,111.9
		C1009.3,673.7,960.5,724.1,902.5,723.9z"/>
	<path class="st16" d="M2972.6,466.6c-66-25.1-132.9-7.5-178.5,47.1c-54.2,64.8-44.7,160.9,21.5,218.1
		c63.2,54.6,161.3,48.4,215.7-14.2c8.7-10,18.8-19.9,21-34.4c-29.2-2.3-53.2,0.4-78.7,20.1c-61.7,47.8-150.7,8.4-163.2-70.2
		c7,0,13.8,0,20.5,0c74.3,0,148.5-0.1,222.8,0.2c10.9,0,16.9-1,17.1-14.8C3071.7,551.1,3032.2,489.2,2972.6,466.6z M3008,588.5
		c-31.4-0.6-62.8-0.2-94.2-0.2c-30.8,0-61.5-0.4-92.3,0.2c-11.2,0.2-12.1-3.3-9.2-13.2c12.7-42.9,55.9-74.7,102.3-74.7
		c46.3,0,89.8,32,102.5,74.7C3020.1,585,3019.2,588.7,3008,588.5z"/>
	<path class="st16" d="M2174.4,459.4c-29.7-6.2-38.1-0.2-38.1,29c0,5.4,0,10.9,0,20.1c-76.2-78.3-167.8-59.3-221.3-10.4
		c-55,50.3-64,141.1-19.5,203.2c23.2,32.4,53.9,54.5,92.8,63.6c57.7,13.6,105.4-6.7,148-50c0,12.3,0.9,20.6-0.2,28.5
		c-2.2,16.3,4.8,20.2,20.1,19.4c29.8-1.5,25.4,2.9,25.6-26.8c0.2-32.1,0.1-64.2,0.1-96.3c0-54.7,0.1-109.5-0.2-164.2
		C2181.7,469.7,2185.6,461.7,2174.4,459.4z M2021,723.9c-57.9,0-106.9-51.1-107.2-111.8c-0.3-61.4,47.4-111.3,106.6-111.4
		c61-0.2,112.4,50.6,112.4,110.9C2132.8,671.2,2080.4,723.9,2021,723.9z"/>
	<path class="st16" d="M1245.1,455.9c-81.2,6.4-147.6,82.4-141.5,162c2.6,87.2,80.5,156.1,163.1,150.9
		c86.7-5.4,153.7-82.4,147.5-168.7C1408.1,514.1,1331.8,449.1,1245.1,455.9z M1258.4,723.8c-58.7-0.1-108.5-52.4-108-113.3
		c0.5-60.6,49.4-110,108.8-109.9c60.1,0.1,107,48.6,107.1,110.6C1366.4,673.3,1317.9,724,1258.4,723.8z"/>
	<path class="st16" d="M3770.4,455.4c-85.2-0.6-156.4,71-156.3,156.3c0.1,84.5,72.3,157.4,156,157.5
		c82.1-1.2,155.6-66.5,155.8-157.2C3926.1,520.9,3854.3,456,3770.4,455.4z M3770,723.8c-59.4-0.1-107.7-51-107.4-113.2
		c0.3-61.8,47.6-110.1,107.8-110c59.5,0.1,107.9,49.5,108,110.4C3878.6,672.2,3828.8,724,3770,723.8z"/>
	<path class="st16" d="M2609.4,459c-49.4-10-95-2.4-135.1,33.7c-5-11.4,2.9-25.2-5-30.4c-10.8-7.2-25.8-4-38.5-1.8
		c-9.9,1.7-5.8,12.6-5.9,19.4c-0.3,87.5,0.6,175.1-0.7,262.6c-0.3,21,9.9,19.8,24,19.6c13.7-0.2,25,2.3,24.3-19.3
		c-1.6-52.2-1.3-104.5,0.4-156.7c1.8-55.5,39.6-86.5,100.4-85.3c47.6,1,72.8,29.8,73.5,85.8c0.6,52.9,0.6,105.8,0,158.7
		c-0.2,13.2,3.7,18.5,16.9,16.8c4.9-0.7,10.1-0.5,15.1,0c10.4,1.1,14.4-2.8,14.2-13.7c-0.7-62.3,0.3-124.7-1.4-187
		C2690,504.3,2661.2,469.5,2609.4,459z"/>
	<path class="st16" d="M1829,480.1c0.4-10.5,2.8-22.4-15-20.8c-11.9,1.1-23.9-0.6-35.8,0.4c-12.9,1.1-17.8-2.9-17.3-16.6
		c1-28.3-0.3-56.6,0.6-84.9c0.4-13.1-3.7-18.7-17-16.9c-4.9,0.6-10.1,0.7-15.1,0c-13.3-1.9-15.9,4.8-15.6,16.4
		c0.6,25.1,0.3,50.3,0.2,75.5c-0.2,30.4,3.2,25.8-25.8,26.5c-6,0.1-14.6-3.3-17.5,3c-4.7,10.4-3.2,22.5-1,33.3
		c1.9,9.3,11.6,4.1,17.7,5.3c1.8,0.4,3.8,0.3,5.6,0c16-2.6,22,2.7,21.3,20.1c-1.4,36.4-0.4,72.9-0.4,109.4c0,39,0.3,78-0.2,117
		c-0.1,10.3,2.7,15.5,13.7,14.2c5-0.6,10.1-0.7,15.1,0c15,2.2,19.1-3.8,18.9-18.7c-0.8-63.5-0.5-127-0.2-190.5
		c0.1-16.2-6.7-36.9,2.8-47.6c9.9-11,30.9-2.5,47-3.9c1.2-0.1,2.5-0.1,3.8,0C1833.5,503.5,1828.6,489.7,1829,480.1z"/>
	<path class="st17" d="M3290.8,465.2c2-16.8-13.2-9.1-20.5-8.2c-30.1,3.8-55.4,18.4-79.4,40.9c-3.5-38.7-3.5-37.6-30.4-38.9
		c-15.8-0.7-18.6,5.2-18.5,19.3c0.6,69.2,0.3,138.4,0.3,207.6c0,15.7-0.2,31.5,0,47.2c0.5,32.8-5.3,27.4,29.2,28.9
		c13.8,0.6,18.5-3,18.3-17.6c-0.9-49.1-0.9-98.1-0.1-147.2c0.9-54.6,32.5-89.7,86.6-95.9C3305,498.1,3289.4,477.4,3290.8,465.2z"/>
	<path class="st16" d="M1614.1,456.6c-29.9,5.5-55.6,18.9-77.7,40.5c-5.2-4.8-3.8-8.8-3.9-12.3c-0.7-25.5-0.6-25.5-26.9-25.3
		c-1.9,0-3.8,0.2-5.7,0c-9.3-1-13.4,2.2-13.4,12.5c0.3,92.5,0.3,185,0,277.5c0,10.4,4.2,13.2,13.5,12.4c5-0.4,10.2-0.7,15.1,0
		c14.5,2.2,17.9-4.1,17.7-17.9c-0.8-47.2-0.7-94.4-0.2-141.6c0.6-55.2,26.8-90,79-98.9c21-3.6,23.6-11.6,23.6-29.8
		C1635.2,456.3,1628.9,453.9,1614.1,456.6z"/>
	<path class="st16" d="M3541.6,490.4c-0.2-35.8,6.8-29.8-32.3-31.3c-13.8-0.5-16.6,4.6-16.4,17.2c0.7,44,0.3,87.9,0.3,131.9
		c0,40.8,0,81.7,0,122.5c0,31.2,0,30.2,30.3,31.3c15.5,0.5,18.6-4.8,18.5-19.2C3541.4,658.8,3542,574.6,3541.6,490.4z"/>
	<path class="st17" d="M2329,490.7c0-31.8,0-31.1-32-31.6c-13.3-0.2-17,3.9-16.8,17c0.8,44.6,0.3,89.2,0.3,133.8
		c0,40.8,0,81.7,0,122.5c0,29.5,0,28.7,30.2,29.7c15.1,0.5,18.8-4.2,18.7-18.9C2328.6,659.1,2329,574.9,2329,490.7z"/>
	<path class="st18" d="M371.1,290.8c-0.1,0-0.3,0-0.4,0c0.6,20.9,2.3,41.8,0.6,62.5c-2,24.7-22.3,9.2-33.9,11.5
		c-7.6,1.5-23.2,8.1-22.7-11.4c0.5-20.9,0.7-41.8,1-62.6c-0.1,0-0.3,0-0.4,0c-5.8,0.3-11.4-0.2-16.4-2.8c4.7,11.7,2.8,24.1,2.9,36.2
		c0.3,35.8-0.1,71.6,0.2,107.5c0.2,19.6,2.2,21.4,21.8,21.6c13.8,0.2,27.7-0.4,41.5,0.1c14.6,0.5,20-5.5,19.8-20.1
		c-0.5-40.2-0.9-80.4-0.5-120.6c0.1-8.3-0.8-16.8,2.8-24.6C382.4,290.6,376.8,291.1,371.1,290.8z M326,436.4c0,4.7-1.1,9.2-6.9,8.9
		c-5.4-0.2-7.1-4.4-7.1-9.2c0-15.7-0.1-31.3,0.2-47c0.1-4.4,1.4-9.1,7.3-9c6,0.1,6.5,4.8,6.6,9.3c0.1,8.1,0,16.3,0,24.4
		C326,421.4,326,428.9,326,436.4z M352.2,413.6c0,7.6,0,15.1,0,22.7c0,4.7-1.2,9.3-6.8,9.6c-5.7,0.3-7.3-4.1-7.3-8.9
		c-0.1-15.7-0.1-31.5,0.1-47.2c0.1-4.6,1.2-9.3,6.9-9.5c7.4-0.2,7,5.8,7.2,10.7C352.4,398.5,352.2,406,352.2,413.6z M377.8,387.1
		c0.4,8.7,0.1,17.5,0.1,26.3c0.1,0,0.3,0,0.4,0c0,7.5,0,15,0,22.5c0,4.8-1.5,9-7,9.4c-6,0.5-7.1-4-7.1-8.7
		c-0.1-16.3-0.1-32.6,0.1-48.8c0-4,1.6-7.5,6.3-7.7C375.3,379.9,377.6,383.2,377.8,387.1z"/>
	<path class="st18" d="M384.5,312.7c-0.4,40.2-0.1,80.4,0.5,120.6c0.2,14.6-5.2,20.7-19.8,20.1c-13.8-0.5-27.6,0-41.5-0.1
		c-19.6-0.2-21.6-2-21.8-21.6c-0.3-35.8,0.1-71.6-0.2-107.5c-0.1-12.1,1.8-24.5-2.9-36.2c-1.3-0.7-2.5-1.4-3.8-2.4
		c0.6,6.8,1.6,13.7,1.7,20.5c0.2,44.6,0.6,89.3-0.2,133.9c-0.3,14.2,2.6,20.6,18.5,19.3c18.8-1.5,37.8-1.4,56.5,0
		c15.6,1.2,18.7-4.9,18.6-19.2c-0.4-51.5,0.6-103,1.1-154.5c-1.3,1-2.6,1.7-3.9,2.4C383.7,295.9,384.6,304.4,384.5,312.7z"/>
	<path class="st18" d="M371.1,290.8c5.7,0.3,11.2-0.3,16.2-2.7c0.4-0.8,0.8-1.6,1.3-2.4c-6,0-12,0-18,0.1c0,1.7,0.1,3.4,0.1,5
		C370.9,290.9,371,290.9,371.1,290.8z"/>
	<path class="st18" d="M298.9,288.1c5.1,2.6,10.6,3.1,16.4,2.8c0.1,0,0.3,0,0.4,0c0-1.7,0-3.3,0.1-5c-6.2,0-12.3-0.1-18.5-0.1
		c0.4,0.4,0.8,0.8,1.2,1.3C298.6,287.4,298.8,287.7,298.9,288.1z"/>
	<path class="st18" d="M298.5,287c-0.4-0.5-0.8-0.9-1.2-1.3c-0.7,0-1.4,0-2.1,0c0,0,0,0,0,0c1.2,0.9,2.5,1.7,3.8,2.4
		C298.8,287.7,298.6,287.4,298.5,287z"/>
	<path class="st18" d="M388.7,285.8c-0.5,0.8-0.9,1.6-1.3,2.4c1.3-0.7,2.6-1.4,3.9-2.4c0,0,0,0,0,0
		C390.4,285.8,389.5,285.8,388.7,285.8z"/>
	<path class="st17" d="M194.2,565.2c0,45.7,0,45.7,45.8,45.7c45.7,0,45.7,0,45.7-46c0-45.7,0-45.7-46-45.7
		C194.2,519.2,194.2,519.2,194.2,565.2z M222.8,591.4c-0.1,4-3,7.2-7.5,6.5c-3.3-0.5-5.6-3.2-5.7-6.6c-0.2-8.8-0.1-17.6-0.1-26.3
		c-0.1,0-0.1,0-0.2,0c0-8.2-0.1-16.3,0-24.5c0.1-4.1,1.7-7.7,6-8.4c4.6-0.8,7.4,2.7,7.4,6.6C223.1,556.3,223.1,573.9,222.8,591.4z
		 M261.9,540.7c0-3.9,0.7-8.1,5.4-8.4c6.4-0.5,6.4,4.7,6.5,9c0.2,8.1,0.1,16.2,0.1,24.3c0,7.5,0.2,15,0,22.5c-0.1,4.2,0.3,9.9-6,9.4
		c-5.5-0.4-6-5.5-6-10C261.9,571.9,261.9,556.3,261.9,540.7z M243.1,532.6c4.9,0.6,4.5,5.3,4.6,8.8c0.2,8.1,0.1,16.2,0.1,24.3
		c0,7.5,0.2,15,0,22.4c-0.1,4.2,0.2,9.7-6,9.5c-4.2-0.2-6-4-6-8.1c0-16.2-0.1-32.4,0-48.6C235.8,536.3,237.3,531.9,243.1,532.6z"/>
	<path class="st17" d="M137.1,508.5c45.4,0,45.4,0,45.4-46c0-45.9,0-45.9-45.7-45.9c-45.6,0-45.6,0-45.6,46.2
		C91.3,508.5,91.3,508.5,137.1,508.5z M157.8,435.9c0.1-4.1,3.1-7,7.7-6.4c4.7,0.6,5.6,4.5,5.6,8.5c0.1,8.2,0,16.4,0,24.6
		c0,8.2,0,16.4,0,24.6c0,4.2-1.8,7.6-6,8.3c-4.5,0.7-7.4-2.7-7.5-6.6C157.3,471.1,157.4,453.5,157.8,435.9z M132.8,437.5
		c0-3.8,0.9-8,5.9-7.8c4.7,0.2,5.8,4.1,5.9,8.1c0.1,8.2,0,16.4,0,24.5c0,8.2,0,16.4,0,24.5c0,4.2-1.6,7.9-6.1,7.9
		c-4.6,0-5.8-4.1-5.8-8.1C132.7,470.2,132.6,453.9,132.8,437.5z M106.7,436.5c0-3.2,1.1-6.4,5.1-6.7c5-0.4,6.4,3.2,6.5,7.2
		c0.2,8.2,0.1,16.3,0.1,24.5c0,0,0,0,0.1,0c0,8.2,0,16.3,0,24.5c0,4-0.6,8-5.3,8.6c-4.8,0.6-6.4-3.2-6.4-7.2
		C106.6,470.4,106.5,453.4,106.7,436.5z"/>
	<path class="st17" d="M137,519.2c-45.8,0-45.8,0-45.8,45.9c0,45.9,0,45.9,45.7,45.9c45.6,0,45.6,0,45.6-45.8
		C182.6,519.2,182.6,519.2,137,519.2z M118.3,591.1c0,3.3-1.5,6.3-5.2,6.7c-5,0.5-6.4-3.2-6.5-7.1c-0.2-9.4-0.1-18.8-0.1-28.2
		c0-7.5-0.1-15,0-22.6c0.1-3.9,1.1-8,6-7.8c4.7,0.2,5.7,4.2,5.8,8.2C118.4,557.2,118.4,574.2,118.3,591.1z M144.6,589.3
		c0,4.1-1.4,7.7-5.8,8.3c-5.2,0.7-6.1-3.6-6.1-7.3c-0.2-16.8-0.2-33.6,0-50.5c0-3.7,0.9-8.1,6-7.5c4.3,0.5,5.8,4.2,5.8,8.3
		c0,8.1,0,16.2,0,24.3S144.7,581.2,144.6,589.3z M171,589.7c-0.1,4.1-1.8,7.6-6.1,8.2c-4.6,0.6-7.3-2.9-7.3-6.8
		c-0.3-17.5-0.2-35.1,0.1-52.6c0.1-3.2,2.2-6,5.8-6.4c4.6-0.4,7.1,2.8,7.3,6.8c0.4,9.4,0.1,18.8,0.1,28.2c0.1,0,0.1,0,0.2,0
		C171,574.7,171.1,582.2,171,589.7z"/>
	<path class="st17" d="M239.4,508.5c46.3,0,46.3,0,46.3-47.2c0-44.7,0-44.7-43.5-44.7c-48,0-48,0-48,47.5
		C194.2,508.5,194.2,508.5,239.4,508.5z M262,436.5c0-3.3,1.4-6.3,5.2-6.7c5.2-0.6,6.4,3.2,6.5,7.1c0.2,8.2,0.1,16.3,0.1,24.5
		c0,8.8,0.1,17.6-0.1,26.4c0,3.4-1.4,6.5-5.1,6.8c-4.7,0.3-6.5-2.9-6.5-7.2C261.9,470.5,261.9,453.5,262,436.5z M235.8,436.4
		c0-3.3,1.6-6.2,5.2-6.7c5.1-0.7,6.4,3.1,6.5,7c0.3,8.7,0.1,17.5,0.1,26.2c0,8.1,0.1,16.2,0,24.4c-0.1,3.9-1.1,8.1-5.9,7.8
		c-4.2-0.3-6.1-3.8-6.1-8.1C235.7,470.1,235.6,453.3,235.8,436.4z M209.3,437c0.1-4,1.7-7.5,6.5-7.6c4.8-0.1,6.9,3.5,7,7.3
		c0.4,17,0.4,34,0.2,51c0,4-2.2,7.6-6.7,7.6c-5.6-0.1-7.1-4.4-7.1-9.2c-0.1-8.2,0-16.4,0-24.6C209.3,453.4,209.1,445.2,209.3,437z"
		/>
	<path class="st19" d="M344.1,610.9c45.8,0,45.8,0,45.8-46.1c0-45.7,0-45.7-46.2-45.7c-0.6,0-1.3,0-1.9,0c-44.9,0-44.9,0-44.9,45.2
		C296.9,610.9,296.9,610.9,344.1,610.9z M364.5,539.6c0.1-3.9,2.2-7.4,6.8-7.5c4.7,0,6.6,3.7,6.8,7.5c0.4,8.8,0.1,17.6,0.1,26.3
		c0,8.2,0.3,16.3-0.1,24.5c-0.2,3.8-2.2,7.5-6.8,7.5c-4.5-0.1-6.7-3.5-6.8-7.5C364.2,573.5,364.2,556.6,364.5,539.6z M338.3,539.8
		c0.1-3.9,2.1-7.5,6.6-7.7c4.6-0.2,6.8,3.4,7,7.3c0.4,8.1,0.1,16.3,0.1,24.5c0,8.8,0.2,17.6-0.1,26.4c-0.1,4-2.2,7.5-6.6,7.7
		c-4.6,0.2-6.9-3.5-7-7.3C338,573.7,338,556.8,338.3,539.8z M312.1,541.2c0.1-4.5,1.5-9.3,7.2-9c5.6,0.3,6.6,4.9,6.6,9.6
		c0.1,8.2,0,16.3,0,24.5c0,6.9,0.1,13.8,0,20.7c-0.1,5.1-0.4,10.9-7.3,10.8c-5.6,0-6.7-5-6.7-9.5
		C311.9,572.6,311.8,556.9,312.1,541.2z"/>
	<path class="st17" d="M3358.7,689.7c-20.7,0.6-36.4,17.4-36,38.3c0.4,20.3,17.7,37.4,37.5,37.1c20.5-0.3,38.5-19.2,37.6-39.6
		C3397,706,3378.6,689.1,3358.7,689.7z"/>
	<path class="st17" d="M2303.4,334.5c-17.5,0.1-31.1,13.5-31.4,31c-0.3,17.9,14.5,33.2,31.9,32.9c17.2-0.3,32.6-16.2,32.2-33.4
		C2335.7,349.1,2320,334.4,2303.4,334.5z"/>
	<path class="st17" d="M3515.1,334.5c-17.5,0.6-30.6,14.3-30.4,31.9c0.1,18,15.2,32.7,32.7,32c16.2-0.7,30.9-16,31.2-32.3
		C3548.8,349.3,3532.6,333.9,3515.1,334.5z"/>
</g>
</svg>
