<?xml version="1.0" encoding="utf-8"?>
<!-- Generator: Adobe Illustrator 28.1.0, SVG Export Plug-In . SVG Version: 6.00 Build 0)  -->
<svg version="1.1" id="Laag_1" xmlns="http://www.w3.org/2000/svg" xmlns:xlink="http://www.w3.org/1999/xlink" x="0px" y="0px"
	 viewBox="0 0 566.93 141.73" style="enable-background:new 0 0 566.93 141.73;" xml:space="preserve">
<style type="text/css">
	.st0{fill:#1A243C;}
	.st1{fill:#0099DB;}
</style>
<rect x="307.73" y="49.57" class="st0" width="9.42" height="53.38"/>
<polygon class="st0" points="250.48,49.6 240.62,49.6 256.07,102.98 265.83,102.98 "/>
<polygon class="st0" points="287.23,49.6 271.8,102.98 281.34,102.98 297,49.6 "/>
<path class="st0" d="M137.37,55.46c-3.19-4.65-8.32-6.81-14.8-6.79l-0.09,0c-4.73,0-9.24,1.54-12.35,2.87
	c-1.29,0.57-4.63,2.18-10.09,5.61l-0.82,0.51v61.53h9.42v-16.17c2.5,0.42,6.34,0.92,10.12,0.92l0.09,0c7.8,0,13.79-1.96,17.65-6.73
	c3.84-4.77,5.35-11.81,5.36-21.56C141.84,66.72,140.55,60.08,137.37,55.46 M121.91,57.57L121.91,57.57c3.4,0.06,5.72,1.03,7.46,3.62
	c1.75,2.63,2.83,7.17,2.86,14.27l0,0.05c0.01,7.56-1.03,12.55-3.09,15.38c-2.01,2.77-5.05,4.07-10.46,4.15h-0.23l-0.03,0
	c-3.51,0-7.49-0.55-9.8-0.92V61.36c0.8-0.41,2.1-1.04,3.7-1.67C115.06,58.62,118.66,57.57,121.91,57.57"/>
<path class="st0" d="M181.36,48.21v9.64l-0.93,0.19l-0.47,0.1c-4.47,0.9-8.88,2.74-12.14,4.36c-2.06,1.02-3.66,1.95-4.55,2.48v37.98
	h-9.42V62.3C153.85,62.3,165.75,50.61,181.36,48.21"/>
<path class="st0" d="M202.69,80.52h30.01l0.27-6.47c0-8.67-1.71-15.01-5.38-19.28c-3.69-4.28-9.17-6.1-15.8-6.09h-0.01h-0.08
	c-6.31-0.01-11.99,1.83-15.97,6.39c-3.97,4.56-6.09,11.54-6.09,21.4c0.01,8.47,1.09,15.2,4.37,20.06c3.3,4.91,8.86,7.41,16.54,7.43
	c7.62-0.01,18.09-1.29,19.11-1.42v0l0.53-0.07l1.06-0.13l-0.33-8.44l-1.88,0.15l-0.05,0.01l-0.01-0.01
	c-1.22,0.1-11.18,0.88-17.83,0.88c-4.89-0.04-7.57-1.36-9.35-3.82c-1.73-2.4-2.6-6.35-2.65-11.76l0-0.23v-5.48l0.01-0.46
	c0.11-6.04,1.38-9.94,3.45-12.28c2.05-2.34,5.02-3.38,9.14-3.43c4.38,0.03,7.05,1.09,8.88,3.41c1.69,2.14,2.74,5.8,2.9,11.33
	C213.19,73.57,202.69,80.52,202.69,80.52"/>
<path class="st0" d="M397.95,80.52h30.01l0.27-6.47c0-8.67-1.71-15.01-5.38-19.28c-3.69-4.28-9.16-6.1-15.8-6.09h-0.01h-0.07
	c-6.31-0.01-11.99,1.83-15.97,6.39c-3.97,4.56-6.09,11.54-6.1,21.4c0.01,8.47,1.09,15.2,4.37,20.06c3.3,4.91,8.86,7.41,16.54,7.43
	c7.62-0.01,18.09-1.29,19.11-1.42v0l0.53-0.07l1.06-0.13l-0.33-8.44l-1.88,0.15l-0.05,0.01l-0.01-0.01
	c-1.22,0.1-11.18,0.88-17.82,0.88c-4.9-0.04-7.57-1.36-9.35-3.82c-1.73-2.4-2.6-6.35-2.65-11.76l0-0.23v-5.48l0.01-0.46
	c0.12-6.04,1.38-9.94,3.45-12.28c2.06-2.34,5.02-3.38,9.14-3.43c4.38,0.03,7.05,1.09,8.88,3.41c1.69,2.14,2.74,5.8,2.89,11.33
	C408.45,73.57,397.95,80.52,397.95,80.52"/>
<path class="st0" d="M334.77,97.04c3.19,4.64,8.32,6.81,14.8,6.79l0.09,0c4.73,0,9.24-1.54,12.35-2.87
	c1.28-0.57,4.63-2.18,10.09-5.61l0.82-0.51V33.29h-9.42v16.17c-2.5-0.42-6.34-0.92-10.12-0.92l-0.09,0c-7.8,0-13.79,1.96-17.65,6.72
	c-3.84,4.78-5.35,11.82-5.36,21.56C330.29,85.77,331.58,92.42,334.77,97.04 M350.23,94.92L350.23,94.92
	c-3.4-0.05-5.71-1.03-7.47-3.63c-1.75-2.62-2.83-7.17-2.86-14.27v-0.05c-0.01-7.56,1.03-12.55,3.09-15.38
	c2.01-2.77,5.05-4.07,10.46-4.15h0.23l0.03,0c3.51,0,7.49,0.55,9.8,0.92v32.76c-0.8,0.41-2.1,1.04-3.7,1.66
	C357.08,93.87,353.48,94.93,350.23,94.92"/>
<path class="st0" d="M467.72,48.19v9.64l-0.93,0.19l-0.47,0.1c-4.48,0.9-8.89,2.74-12.15,4.36c-2.06,1.02-3.66,1.95-4.55,2.48v37.98
	h-9.42V62.29C440.21,62.29,452.1,50.6,467.72,48.19"/>
<path class="st1" d="M266.24,36.56c-3.73-2.65-9.52-5.98-16.25-7.01v7.23l0.7,0.14l0.36,0.07c3.35,0.67,6.66,2.06,9.1,3.27
	c1.55,0.77,2.75,1.46,3.41,1.86v11.15h6.98l4.06,1.09V42.5c3.2,1.72,7.03,3.27,11.25,3.92v-7.23l-0.7-0.14l-0.35-0.07
	c-1.75-0.35-3.49-0.89-5.1-1.51c3.2-1.55,7.36-3.25,11.59-4.09l0.47-0.1l0.93-0.19v-9.64C279.81,25.42,269.47,33.72,266.24,36.56
	 M272.28,22.53h-7.06v8.63c1.62-1.34,4.04-3.18,7.06-5.04V22.53z"/>
</svg>
