<svg width="400" height="110" viewBox="0 0 400 110" fill="none" xmlns="http://www.w3.org/2000/svg">
<path d="M22.8984 79.2124L0 110V51.1739C0 49.2859 1.9211 48.0006 3.67464 48.7155L45.3121 65.69L45.191 22.1044L21.1391 46.7643C20.446 47.475 19.3876 47.6914 18.4696 47.3103L4.98985 41.7132C3.10858 40.932 2.59648 38.5146 4.00038 37.0424L33.7706 5.82256C45.3737 -6.3454 65.9374 1.82694 65.9538 18.6126L66 66.1649C66.0142 80.7493 51.1882 90.695 37.6343 85.1936L22.8984 79.2124Z" fill="#FFBF00"/>
<path d="M121.311 34.3984C124.444 34.3984 127.155 34.9208 129.446 35.9656C131.77 37.0104 133.556 38.4934 134.802 40.4146C136.049 42.3357 136.672 44.6107 136.672 47.2396C136.672 49.8349 136.049 52.1099 134.802 54.0647C133.556 55.9858 131.77 57.4688 129.446 58.5136C127.155 59.5248 124.444 60.0303 121.311 60.0303H114.186V69.7877H106V34.3984H121.311ZM120.856 53.3569C123.315 53.3569 125.185 52.8345 126.465 51.7897C127.745 50.7112 128.385 49.1945 128.385 47.2396C128.385 45.2511 127.745 43.7344 126.465 42.6896C125.185 41.6111 123.315 41.0718 120.856 41.0718H114.186V53.3569H120.856Z" fill="#000D1A"/>
<path d="M149.489 46.178C150.432 44.8635 151.696 43.8692 153.279 43.1951C154.896 42.5211 156.749 42.184 158.837 42.184V49.4641C157.961 49.3967 157.372 49.363 157.069 49.363C154.812 49.363 153.043 50.0034 151.763 51.2841C150.483 52.5312 149.843 54.4186 149.843 56.9464V69.7877H141.96V42.5885H149.489V46.178Z" fill="#000D1A"/>
<path d="M176.213 70.1921C173.35 70.1921 170.773 69.6023 168.482 68.4226C166.225 67.2093 164.457 65.5409 163.177 63.4176C161.896 61.2942 161.256 58.8844 161.256 56.1881C161.256 53.4917 161.896 51.0819 163.177 48.9585C164.457 46.8352 166.225 45.1837 168.482 44.004C170.773 42.7907 173.35 42.184 176.213 42.184C179.077 42.184 181.637 42.7907 183.894 44.004C186.151 45.1837 187.92 46.8352 189.2 48.9585C190.48 51.0819 191.12 53.4917 191.12 56.1881C191.12 58.8844 190.48 61.2942 189.2 63.4176C187.92 65.5409 186.151 67.2093 183.894 68.4226C181.637 69.6023 179.077 70.1921 176.213 70.1921ZM176.213 63.7209C178.235 63.7209 179.885 63.0468 181.165 61.6987C182.479 60.3168 183.136 58.4799 183.136 56.1881C183.136 53.8962 182.479 52.0762 181.165 50.728C179.885 49.3461 178.235 48.6552 176.213 48.6552C174.192 48.6552 172.525 49.3461 171.211 50.728C169.897 52.0762 169.24 53.8962 169.24 56.1881C169.24 58.4799 169.897 60.3168 171.211 61.6987C172.525 63.0468 174.192 63.7209 176.213 63.7209Z" fill="#000D1A"/>
<path d="M194.368 80C191.605 80 189.5 79.4944 188.051 78.4833L190.174 72.7705C191.083 73.4109 192.195 73.731 193.509 73.731C194.519 73.731 195.311 73.394 195.883 72.7199C196.456 72.0795 196.742 71.1021 196.742 69.7877V42.5885H204.625V69.7371C204.625 72.9053 203.716 75.3994 201.897 77.2194C200.111 79.0731 197.601 80 194.368 80ZM200.684 38.7968C199.235 38.7968 198.056 38.3755 197.147 37.5329C196.237 36.6903 195.782 35.6454 195.782 34.3984C195.782 33.1513 196.237 32.1065 197.147 31.2639C198.056 30.4213 199.235 30 200.684 30C202.132 30 203.311 30.4044 204.221 31.2133C205.13 32.0222 205.585 33.0334 205.585 34.2467C205.585 35.5612 205.13 36.6566 204.221 37.5329C203.311 38.3755 202.132 38.7968 200.684 38.7968Z" fill="#000D1A"/>
<path d="M238.513 56.2892C238.513 56.3903 238.462 57.0981 238.361 58.4125H217.795C218.166 60.0977 219.042 61.4291 220.423 62.4065C221.804 63.3839 223.522 63.8726 225.577 63.8726C226.992 63.8726 228.238 63.6704 229.316 63.2659C230.428 62.8278 231.455 62.1537 232.399 61.2437L236.593 65.7937C234.032 68.726 230.293 70.1921 225.375 70.1921C222.309 70.1921 219.598 69.6023 217.24 68.4226C214.882 67.2093 213.062 65.5409 211.782 63.4176C210.502 61.2942 209.862 58.8844 209.862 56.1881C209.862 53.5254 210.485 51.1325 211.732 49.0091C213.012 46.852 214.747 45.1837 216.936 44.004C219.16 42.7907 221.636 42.184 224.364 42.184C227.026 42.184 229.434 42.757 231.59 43.9029C233.746 45.0489 235.43 46.7004 236.643 48.8574C237.89 50.9808 238.513 53.458 238.513 56.2892ZM224.415 48.1496C222.629 48.1496 221.13 48.6552 219.918 49.6663C218.705 50.6775 217.964 52.0593 217.694 53.8119H231.085C230.815 52.093 230.074 50.728 228.862 49.7169C227.649 48.6721 226.167 48.1496 224.415 48.1496Z" fill="#000D1A"/>
<path d="M256.899 70.1921C254.002 70.1921 251.391 69.6023 249.067 68.4226C246.776 67.2093 244.974 65.5409 243.66 63.4176C242.38 61.2942 241.74 58.8844 241.74 56.1881C241.74 53.4917 242.38 51.0819 243.66 48.9585C244.974 46.8352 246.776 45.1837 249.067 44.004C251.391 42.7907 254.002 42.184 256.899 42.184C259.762 42.184 262.255 42.7907 264.377 44.004C266.533 45.1837 268.1 46.8857 269.077 49.1102L262.962 52.3964C261.548 49.9023 259.509 48.6552 256.848 48.6552C254.793 48.6552 253.092 49.3293 251.745 50.6775C250.397 52.0256 249.723 53.8625 249.723 56.1881C249.723 58.5136 250.397 60.3505 251.745 61.6987C253.092 63.0468 254.793 63.7209 256.848 63.7209C259.543 63.7209 261.581 62.4739 262.962 59.9798L269.077 63.3165C268.1 65.4735 266.533 67.1587 264.377 68.3721C262.255 69.5854 259.762 70.1921 256.899 70.1921Z" fill="#000D1A"/>
<path d="M291.544 68.4732C290.769 69.0462 289.809 69.4843 288.664 69.7877C287.552 70.0573 286.373 70.1921 285.127 70.1921C281.893 70.1921 279.383 69.3664 277.598 67.7149C275.846 66.0634 274.97 63.6367 274.97 60.4348V49.2619H270.776V43.1951H274.97V36.5723H282.853V43.1951H289.624V49.2619H282.853V60.3337C282.853 61.4796 283.139 62.3728 283.712 63.0131C284.318 63.6198 285.16 63.9232 286.238 63.9232C287.485 63.9232 288.546 63.5861 289.422 62.912L291.544 68.4732Z" fill="#000D1A"/>
<path d="M322.457 70.3943C319.661 70.3943 316.949 70.0236 314.322 69.2821C311.728 68.5069 309.639 67.5126 308.056 66.2993L310.835 60.1314C312.351 61.2437 314.153 62.1368 316.242 62.8109C318.33 63.485 320.419 63.822 322.508 63.822C324.832 63.822 326.55 63.485 327.662 62.8109C328.773 62.1031 329.329 61.1763 329.329 60.0303C329.329 59.1877 328.992 58.4968 328.318 57.9575C327.678 57.3846 326.836 56.9296 325.792 56.5925C324.781 56.2555 323.4 55.8847 321.649 55.4803C318.954 54.8399 316.747 54.1995 315.029 53.5592C313.311 52.9188 311.829 51.8908 310.582 50.4752C309.37 49.0597 308.763 47.1722 308.763 44.8129C308.763 42.757 309.319 40.9033 310.431 39.2518C311.542 37.5666 313.21 36.2353 315.433 35.2578C317.69 34.2804 320.436 33.7917 323.67 33.7917C325.927 33.7917 328.133 34.0613 330.289 34.6006C332.445 35.1399 334.332 35.9151 335.949 36.9262L333.422 43.1446C330.154 41.2909 326.887 40.364 323.619 40.364C321.328 40.364 319.627 40.7348 318.516 41.4762C317.438 42.2177 316.899 43.1951 316.899 44.4085C316.899 45.6218 317.522 46.5319 318.768 47.1385C320.048 47.7115 321.985 48.2845 324.579 48.8574C327.274 49.4978 329.481 50.1382 331.199 50.7786C332.917 51.4189 334.382 52.4301 335.595 53.8119C336.841 55.1938 337.464 57.0644 337.464 59.4237C337.464 61.4459 336.892 63.2996 335.746 64.9848C334.635 66.6363 332.95 67.9508 330.693 68.9282C328.436 69.9056 325.691 70.3943 322.457 70.3943Z" fill="#000D1A"/>
<path d="M368.992 42.5885L356.713 71.456C355.467 74.5905 353.917 76.7981 352.064 78.0789C350.245 79.3596 348.039 80 345.445 80C344.03 80 342.632 79.7809 341.251 79.3428C339.87 78.9046 338.741 78.2979 337.865 77.5227L340.745 71.911C341.352 72.4503 342.042 72.8716 342.817 73.1749C343.626 73.4783 344.417 73.6299 345.192 73.6299C346.27 73.6299 347.146 73.3603 347.82 72.821C348.493 72.3155 349.1 71.456 349.639 70.2427L349.74 69.9899L337.966 42.5885H346.102L353.732 61.0415L361.412 42.5885H368.992Z" fill="#000D1A"/>
<path d="M388.732 42.184C392.1 42.184 394.812 43.1951 396.867 45.2174C398.956 47.2396 400 50.2393 400 54.2164V69.7877H392.117V55.4297C392.117 53.2727 391.646 51.6717 390.702 50.6269C389.759 49.5484 388.395 49.0091 386.609 49.0091C384.622 49.0091 383.039 49.6326 381.86 50.8797C380.681 52.093 380.091 53.913 380.091 56.3397V69.7877H372.208V42.5885H379.737V45.7735C380.782 44.6276 382.079 43.7513 383.628 43.1446C385.178 42.5042 386.879 42.184 388.732 42.184Z" fill="#000D1A"/>
</svg>
