<?xml version="1.0" encoding="UTF-8"?><svg id="a" xmlns="http://www.w3.org/2000/svg" viewBox="0 0 841.89 207.36"><defs><style>.b{fill:#fdb515;}.c{fill:#131e34;}</style></defs><g><path class="c" d="M308.27,65.54h-24.5v76.21h15.75v-26.13h9.8c17,0,27.37-9.84,27.37-25.71s-10.24-24.36-28.41-24.36Zm-1.96,37.13h-6.8v-24.21h7.14c8.63,0,14.03,4.69,14.03,12.22s-5.38,11.99-14.37,11.99h0Z"/><path class="c" d="M372,87.01c-3.07-.04-6.08,.84-8.63,2.53-2.32,1.77-3.98,4.26-4.72,7.07v-7.79h-14.6v52.9h14.6v-25.46c0-5.02,.47-7.3,2.13-9.71,1.12-1.52,2.6-2.75,4.3-3.58,1.7-.83,3.58-1.25,5.48-1.21,.81,0,1.98,.13,3.1,.23v-14.78c-.55-.11-1.1-.19-1.66-.21h0Z"/><path class="c" d="M405.7,87.01c-17.23,0-29.11,11.55-29.11,28.35s12.09,28.22,28.9,28.22,29.09-12.22,29.09-27.76c0-16.7-12.09-28.81-28.88-28.81Zm0,43.65c-8.5,0-14.28-6.14-14.28-15.3s5.76-15.3,14.39-15.3,14.15,5.93,14.15,15.54c-.11,8.78-5.97,15.07-14.37,15.07h.11Z"/><path class="c" d="M513.49,91.95c-1.68-1.67-3.69-2.98-5.91-3.83-2.22-.85-4.59-1.23-6.97-1.11-7.61,0-12.54,2.74-16.11,8.8-1.21-2.77-3.24-5.11-5.84-6.69-2.6-1.58-5.62-2.32-8.65-2.12-3-.17-5.99,.54-8.59,2.04-2.6,1.5-4.7,3.73-6.03,6.41v-6.63h-14.58v52.9h14.58v-31.39c0-7.3,2.89-11.08,8.5-11.08s8.03,3.78,8.03,11.08v31.41h14.62v-31.88c0-6.73,3.12-10.55,8.5-10.55s8.16,3.42,8.16,10.55v31.88h14.62v-34.58c-.06-8.04-1.11-11.69-4.34-15.22Z"/><path class="c" d="M605.14,130.87c-8.5,0-14.6-6.5-14.6-15.54s5.97-15.2,14.03-15.2c2.05-.02,4.08,.39,5.96,1.19,1.88,.81,3.57,2,4.96,3.49l9.8-8.8c-6.8-6.06-13.37-8.8-21.25-8.8-16.58,0-28.31,11.88-28.31,28.58-.11,3.71,.55,7.39,1.92,10.84,1.38,3.45,3.45,6.57,6.09,9.2,2.64,2.62,5.79,4.68,9.26,6.05,3.47,1.37,7.18,2.02,10.91,1.91,3.77,.09,7.52-.56,11.04-1.91,3.52-1.36,6.73-3.39,9.45-5.98l-8.86-9.48c-1.34,1.41-2.95,2.53-4.73,3.29-1.79,.77-3.71,1.16-5.66,1.16h0Z"/><path class="c" d="M670.77,89.08v6.73c-5.16-6.04-10.12-8.55-17.36-8.55-15.51,0-26.8,12.22-26.8,28.88s10.63,27.65,25.65,27.65c3.61,.11,7.18-.66,10.41-2.26,3.23-1.6,6.01-3.96,8.1-6.89v7.3h14.6v-52.88h-14.6Zm-14.49,43.06c-7.93,0-14.03-6.97-14.03-16.21,0-9.71,5.87-16.44,14.15-16.44s14.6,6.61,14.6,15.98-6.55,16.68-14.73,16.68Z"/><path class="c" d="M694.61,65.73v76.23h14.62V65.73h-14.62Z"/><path class="c" d="M772.58,116.83c.18-3.93-.44-7.85-1.81-11.54-1.38-3.69-3.48-7.06-6.2-9.93-2.71-2.71-5.96-4.84-9.54-6.24-3.58-1.4-7.42-2.05-11.26-1.91-3.73-.1-7.43,.58-10.88,1.98-3.45,1.4-6.57,3.5-9.16,6.17-2.64,2.7-4.71,5.9-6.08,9.41-1.37,3.51-2.02,7.26-1.91,11.02-.1,3.7,.55,7.38,1.93,10.82,1.38,3.44,3.45,6.56,6.08,9.17,2.73,2.67,5.97,4.76,9.55,6.14,3.57,1.38,7.39,2.01,11.22,1.86,4.89,.12,9.75-.87,14.2-2.89,4.13-2.05,7.66-5.13,10.24-8.93l-11.45-5.34c-1.71,1.71-3.75,3.05-5.99,3.96-2.25,.91-4.65,1.35-7.07,1.32-3.79,.16-7.52-1.04-10.5-3.38-2.77-2.31-4.57-5.56-5.06-9.12h43.67l.04-2.58Zm-43.1-8.06c1.06-2.69,2.77-5.08,4.97-6.97,2.89-2.11,6.4-3.22,9.99-3.15,3.28-.07,6.5,.92,9.18,2.81,2.57,1.75,4.44,4.33,5.31,7.3h-29.45Z"/><path class="c" d="M571.65,128.93c-.29,2.44-1.18,4.76-2.59,6.77-1.42,2.01-3.32,3.64-5.52,4.73-4.4,2.28-9.3,3.44-14.26,3.36-3.66,0-7.3-.53-10.8-1.58-5.44-1.54-10.59-3.93-15.26-7.09l-.21-.17,9.12-8.95c3.21,1.98,6.66,3.55,10.26,4.67,2.07,.62,4.22,.93,6.38,.91,1.43,.02,2.85-.11,4.25-.38,1.67-.22,3.27-.81,4.68-1.73,.55-.43,.97-1.01,1.21-1.67,.11-.57,.09-1.16-.08-1.71-.17-.56-.47-1.06-.88-1.48-1.21-1.05-2.68-1.78-4.25-2.11-3.63-.99-7.06-1.73-9.92-2.34-1.59-.32-3.15-.63-4.63-1.01-1.73-.44-3.42-1.06-5.02-1.86-3.85-2.11-6.72-4.22-7.99-8.57-.57-2.15-.66-4.39-.27-6.58,.39-2.19,1.25-4.26,2.52-6.09,4.7-6.8,13.13-8.44,17.68-8.61h2.13c6.67,.1,13.18,1.98,18.87,5.43,1.49,.88,2.91,1.88,4.25,2.98l.15,.15-9.41,8.44c-1.5-1.1-3.12-2.03-4.82-2.79-2.78-1.34-5.83-2.06-8.92-2.11h-1.19c-5.16,.36-7.12,2.11-7.74,2.89-.51,.59-.77,1.34-.74,2.11,.11,1.25,.74,2.58,7.31,4.07l.77,.17,2.44,.55c2.53,.57,4.74,1.16,7.97,2.11,6.08,1.69,15.94,6.48,14.54,17.5Z"/></g><g><path class="c" d="M158.72,140.5c-20.4,0-37-16.6-37-37s16.6-37,37-37,37,16.6,37,37-16.6,37-37,37Zm0-61.31c-13.4,0-24.31,10.9-24.31,24.31s10.9,24.31,24.31,24.31,24.31-10.9,24.31-24.31-10.9-24.31-24.31-24.31Z"/><circle class="b" cx="158.72" cy="103.5" r="12.69"/><g><path class="c" d="M70.45,103.54c12.91-12.92,25.55-26.08,38.59-38.91,12.03-11.83,25.97-21.41,43.16-23.19v12.99c-.67,.09-1.33,.19-2,.3-12.83,2.08-23.44,10.26-32.48,19.14-9.18,9.02-17.87,18.49-26.98,27.59-.11,.11-2.07,2.07-2.08,2.07h-18.21Z"/><path class="c" d="M246.82,103.6c-12.91,12.92-25.55,26.08-38.59,38.91-12.03,11.83-25.97,21.41-43.16,23.19v-12.99c.67-.09,1.33-.19,2-.3,12.83-2.08,23.44-10.26,32.48-19.14,9.18-9.02,17.87-18.49,26.98-27.59,.11-.11,2.07-2.07,2.08-2.07h18.21Z"/><g><path class="b" d="M220.99,103.54h-12.88c0-8.98-2.48-17.89-7.13-25.57s-11.48-14.12-19.47-18.33c-5.04-2.66-10.73-4.53-16.43-5.2v-12.93c28.69,2.94,51.64,25.42,55.35,53.87,.39,2.66,.56,5.39,.56,8.16Z"/><path class="b" d="M181.76,59.76c.11,.06,.21,.13,.32,.19-5.18-2.79-10.91-4.68-17.01-5.47v-.04c.73,.09,1.46,.19,2.17,.32,.19,.04,.37,.07,.56,.11,.67,.13,1.33,.26,1.98,.41,.17,.04,.34,.09,.52,.13,.77,.17,1.57,.39,2.32,.62,.56,.15,1.12,.32,1.67,.54,1.07,.34,2.1,.73,3.16,1.16,1.46,.6,2.9,1.29,4.32,2.04Z"/><path class="b" d="M184.27,61.19c-.67-.41-1.35-.79-2.06-1.18,.17,.09,.32,.17,.47,.26,.54,.28,1.07,.58,1.59,.92Z"/></g><g><path class="b" d="M152.2,152.62v12.93c-14.34-1.48-27.25-7.82-37.04-17.35-9.79-9.55-16.47-22.27-18.32-36.48-.39-2.68-.56-5.41-.56-8.18h12.88c0,7.5,1.72,14.96,5.01,21.69,3.25,6.64,8,12.53,13.79,17.13,6.25,4.97,13.72,8.41,21.58,9.85,.88,.16,1.76,.3,2.65,.41Z"/><path class="b" d="M125.38,140.12c.45,.41,.92,.82,1.37,1.22-.24-.19-.49-.41-.73-.62-.21-.19-.43-.36-.64-.6Z"/><path class="b" d="M152.2,152.58v.04c-.67-.09-1.33-.19-2-.3-.67-.11-1.33-.24-2-.39-2.28-.47-4.51-1.12-6.68-1.93-.49-.17-.99-.36-1.48-.56-.9-.36-1.78-.75-2.66-1.18-.58-.26-1.14-.56-1.7-.86-1.65-.86-3.29-1.82-4.83-2.9-.45-.3-.9-.62-1.33-.95-.79-.58-1.57-1.18-2.34-1.82-.15-.13-.28-.24-.43-.39,7.06,5.97,15.82,9.98,25.44,11.23Z"/></g></g></g></svg>
