<?xml version="1.0" encoding="utf-8"?>
<!-- Generator: Adobe Illustrator 23.1.0, SVG Export Plug-In . SVG Version: 6.00 Build 0)  -->
<svg version="1.1" id="Layer_1" xmlns="http://www.w3.org/2000/svg" xmlns:xlink="http://www.w3.org/1999/xlink" x="0px" y="0px"
	 viewBox="0 0 400 245" style="enable-background:new 0 0 400 245;" xml:space="preserve">
<style type="text/css">
	.st0{fill-rule:evenodd;clip-rule:evenodd;fill:#205B97;}
	.st1{fill-rule:evenodd;clip-rule:evenodd;fill:#FFFFFF;}
</style>
<g id="Page-1">
	<g id="logo_classic">
		<path id="Fill-1" class="st0" d="M133.1,125.9h6.6c1.9,0,3.4-0.5,4.4-1.6c1-1,1.5-2.4,1.5-4c0-1.7-0.5-3.1-1.5-4.1
			c-1-1.1-2.4-1.6-4.4-1.6h-6.6V125.9z M133.1,132.6v12.9h-8.8v-37.8h15.4c4.5,0,8.1,1.1,10.7,3.4c2.6,2.3,4,5.3,4,9
			c0,3.7-1.3,6.7-4,9c-2.6,2.3-6.2,3.4-10.7,3.4H133.1z M189.1,107.8v24.7c0,4.3-1.4,7.6-4.3,10c-2.9,2.4-6.6,3.6-11.3,3.6
			c-4.7,0-8.5-1.2-11.4-3.6c-2.9-2.4-4.3-5.7-4.3-10v-24.7h8.8v24.7c0,2.3,0.6,4,1.8,5.1c1.2,1.1,2.9,1.7,5.1,1.7
			c2.2,0,3.8-0.6,5-1.7c1.2-1.1,1.8-2.8,1.8-5.2v-24.7H189.1z M203.4,138.8h17.2v6.7h-28.1v-3.9l16.9-27.1h-17v-6.7h27.9v3.8
			L203.4,138.8z M234.2,138.8h17.2v6.7h-28.1v-3.9l16.9-27.1h-17v-6.7h27.9v3.8L234.2,138.8z M263.5,138.8h16.3v6.7h-25.1v-37.8h8.8
			V138.8z M306.6,129.4h-14.9v9.4h17.5v6.7h-26.3v-37.8h26.4v6.7h-17.6v8.1h14.9V129.4z M335.8,145.6H327v-37.8h8.8V145.6z
			 M367.8,114.6h-10v31H349v-31h-9.9v-6.7h28.7V114.6z M399.9,132.3l0.1,0.2c-0.2,4.4-1.5,7.8-3.9,10.1c-2.5,2.3-6,3.5-10.7,3.5
			c-4.7,0-8.5-1.4-11.4-4.3c-2.9-2.9-4.4-6.6-4.4-11.2v-7.9c0-4.6,1.4-8.3,4.2-11.2c2.8-2.9,6.5-4.3,11-4.3c4.8,0,8.4,1.2,11,3.6
			c2.5,2.4,4,5.8,4.3,10.2l-0.1,0.2h-8.6c-0.1-2.5-0.7-4.3-1.7-5.5c-1-1.2-2.6-1.8-5-1.8c-2,0-3.6,0.8-4.7,2.4
			c-1.1,1.6-1.7,3.7-1.7,6.3v7.9c0,2.6,0.6,4.7,1.9,6.3c1.2,1.6,3,2.4,5.1,2.4c2.1,0,3.6-0.6,4.5-1.7c0.9-1.1,1.4-2.9,1.5-5.4H399.9
			z M15.1,158.9C-5,138.8-5,106.2,15.1,86.1C35.3,66,68,66,88.1,86.1c20.2,20.1,20.2,52.7,0,72.8C68,179,35.3,179,15.1,158.9"/>
		<path id="Fill-19" class="st1" d="M77.1,123.9c-1.8,4.9-12.4,4.9-26.8,4.9c0,0,9.3-1.3,12-6.5c2.7-5.2,5.9-15.6,5.9-15.6
			c-14.3,0-15.6,5-15.6,5s-9,25.2-12.3,34.5c-25.1,0-21.1-12.3-21.1-12.3l12.5-35.1h25.4l-1.7,5c0,0,2.1-5,16.1-5
			c0,0,14.3,0.1,12.7,5.1C82.5,108.9,77.1,123.9,77.1,123.9"/>
	</g>
</g>
</svg>
