<svg id="Layer_1" data-name="Layer 1" xmlns="http://www.w3.org/2000/svg" viewBox="0 0 537.56195 642.98267"><defs><style>.cls-1{fill:#ec1f24;}.cls-2{fill:#f16722;}.cls-3{fill:#fdcc08;}</style></defs><title>pyro</title><path class="cls-1" d="M106.57314,10.01812q58.78644.08256,117.56443.03705a82.13411,82.13411,0,0,1,17.3969,1.84577c2.655.60651,6.014.77817,6.60153,4.59965a127.07445,127.07445,0,0,0-19.24453.03615c-22.36932,1.344-39.01333,16.23855-39.08907,38.67767-.2005,59.4043-.92748,118.82661.25288,178.208.6567,33.03684-14.24069,55.62174-40.77585,72.08741-20.73942,12.86926-43.30958,19.29525-67.82524,13.7803-26.58972-5.98151-38.79026-29.04474-28.71447-54.3721,9.92575-24.95026,29.4141-40.26276,53.49028-50.2925,12.23323-5.09616,24.252-10.15475,33.41633-20.3889,17.06168-19.05353,23.55231-41.82283,23.867-66.7002.30621-24.20739.08633-48.42171.06028-72.633C163.553,35.7673,150.73553,19.896,131.86539,17.287c-17.35627-2.3997-34.34586-.50642-49.56817,9.358A39.09075,39.09075,0,0,0,74.753,32.67415c-5.19223,5.62693-4.68187,7.7946,2.10785,11.54913,18.212,10.0707,27.46431,30.7893,23.01732,51.54224-4.14369,19.33748-21.608,34.49837-41.74495,36.23948-20.07584,1.73578-39.95372-10.11447-47.56008-28.353-8.98627-21.54732.58833-54.51,20.44568-70.33435C47.29393,20.34789,66.32831,14.23509,86.519,10.966"/><path class="cls-2" d="M304.2973,10.04033c31.08737.02086,62.01962-.81049,93.107-.83135,1.7055-.00114,2.73683.07483,5.20722.0748h4.49417c2.55518,2.02421,6.06989,2.06011,8.598,4.10378,2.91361,2.35527,5.79323,3.11723,2.20091,3.96682-8.84887-.8488-20.7624.7225-28.8292,4.98335-11.6304,6.14317-17.597,15.81912-18.5842,28.77289q-.05694.7467-.05862,1.49659c-.08149,75.89435-.20288,151.78918.083,227.68271.07535,20.01309,16.22507,34.921,36.3634,35.09409,2.24323-.12308,9.35807-.7088,11.59546-.50577,4.17554,1.0737-.92144,2.64251-4.85125,5.3915-3.87439,2.71021-8.547,2.38428-12.95944,2.77652-3.71256.33-7.47022-.06265-11.20493.16556a104.4378,104.4378,0,0,1-15.26727-1.01629c-20.05979,2.61489-38.40619-3.02814-55.0495-12.91407-24.22678-14.39041-36.32434-36.15319-35.7016-64.61038-.16791-3.22456-.48041-6.449-.48215-9.67372-.03021-55.83667.048-111.6735-.0545-167.51-.04593-25.08318-13.78871-44.16117-34.76778-50.98678-6.97015-3.73-14.7955-4.80195-22.31169-6.42925"/><path class="cls-3" d="M517.92737,97.75031c-12.78223-48.71814-44.582-78.125-94.92279-86.49268-3.29566-.54779-2.84912-.87225-9.574-1.5893-1.48956-.15881-6.32477-.38452-6.32477-.38452h0c16.864,8.14028,27.269,26.8193,27.4065,45.57886q.81757,111.5481.02991,223.09436c-.08942,14.16333-6.06092,28.42944-19.36219,35.82672l-25.72113,9.4281c20.52478.64991,40.85883.52307,59.7132-9.63,30.85681-16.61633,51.17462-42.43091,64.13812-74.23218C532.26685,192.84668,530.35449,145.11487,517.92737,97.75031Z"/><path class="cls-3" d="M325.178,451.94662c-23.4223-.08123-46.845-.11462-70.26633-.31271-2.53731-.02139-5.50848,1.32846-7.62755-1.381,17.23467-3.22662,26.1635-15.02268,31.3807-30.55524,4.011-11.94153,4.84393-24.33215,4.84588-36.81268q.01008-65.5041.00708-131.00816c.001-2.73554-.24245-5.471-.1339-8.20609,1.18213,13.494,4.774,26.44679,11.8489,38.129,13.963,23.05588,36.0376,33.25193,61.35483,38.02292,5.8114,1.09516,11.73449,1.5979,17.60391,2.37287-4.50421.8215-3.15238,4.41327-3.18665,7.12286-.25793,20.3739-.36593,40.74966-.597,61.124a99.15158,99.15158,0,0,1-5.11481,30.72238C358.56256,441.12158,346.27673,450.48459,325.178,451.94662Z"/><path d="M141.50487,474.42383q12.02086,0,20.45793,3.49942a38.31,38.31,0,0,1,13.72819,9.24206,35.55164,35.55164,0,0,1,7.71648,13.10047,48.94537,48.94537,0,0,1,0,30.4169,35.39265,35.39265,0,0,1-7.71648,13.19043,38.27062,38.27062,0,0,1-13.72818,9.24133q-8.43763,3.4997-20.45793,3.49939H111.89481v45.94049h-28.174V474.42383ZM133.78841,534.721a58.94243,58.94243,0,0,0,9.33163-.718,21.696,21.696,0,0,0,7.896-2.78137,15.16256,15.16256,0,0,0,5.4732-5.83258,24.63271,24.63271,0,0,0,0-19.73956,15.17808,15.17808,0,0,0-5.4732-5.83259,21.77823,21.77823,0,0,0-7.896-2.7814,59.20506,59.20506,0,0,0-9.33163-.718h-21.8936V534.721Z"/><path d="M234.99919,630.19055q-7.36061,4.84433-20.45793,4.84479-3.94929,0-7.806-.269-3.86138-.26871-7.8064-.62806V613.14252q3.58766.35715,7.35746.71728a53.29982,53.29982,0,0,0,7.53732.17987,9.911,9.911,0,0,0,7.44739-3.94836,12.72816,12.72816,0,0,0,2.42238-7.537,15.31579,15.31579,0,0,0-1.07665-5.74267l-32.481-87.0355h27.09736l20.99607,63.5275h.359l20.27843-63.52747H285.2467L246.48413,614.03961Q242.35408,625.34509,234.99919,630.19055Z"/><path d="M318.086,509.77618v17.228h.359a31.24691,31.24691,0,0,1,4.84475-7.9859,31.78807,31.78807,0,0,1,6.99881-6.28082A34.28269,34.28269,0,0,1,338.72269,508.7a30.45313,30.45313,0,0,1,9.332-1.436,19.89845,19.89845,0,0,1,5.56277.89788v23.6879q-1.79575-.35825-4.30661-.62805a45.45955,45.45955,0,0,0-4.84552-.26984,27.17694,27.17694,0,0,0-11.84356,2.33319,20.51972,20.51972,0,0,0-7.80677,6.37073,25.51689,25.51689,0,0,0-4.21667,9.42121,51.20527,51.20527,0,0,0-1.25617,11.66442v41.813h-25.483v-92.7782Z"/><path d="M360.976,536.06635a42.42919,42.42919,0,0,1,24.76419-25.30307,52.9913,52.9913,0,0,1,19.7403-3.49943,53.70838,53.70838,0,0,1,19.8295,3.49943,42.258,42.258,0,0,1,24.85486,25.30307,57.02065,57.02065,0,0,1,3.40948,20.18847,56.26351,56.26351,0,0,1-3.40948,20.09931,43.58858,43.58858,0,0,1-9.691,15.343A42.20633,42.20633,0,0,1,425.31,601.47736a54.99824,54.99824,0,0,1-19.82947,3.41021,54.26225,54.26225,0,0,1-19.7403-3.41021,42.33533,42.33533,0,0,1-15.07391-9.78022,43.50394,43.50394,0,0,1-9.69028-15.343,56.1831,56.1831,0,0,1-3.41021-20.09931A56.9378,56.9378,0,0,1,360.976,536.06635ZM384.125,567.112a28.87205,28.87205,0,0,0,3.67926,9.51111,19.56035,19.56035,0,0,0,6.90887,6.72973,21.07479,21.07479,0,0,0,10.76731,2.51233,21.58629,21.58629,0,0,0,10.85721-2.51233,19.37208,19.37208,0,0,0,6.99807-6.72973A28.93648,28.93648,0,0,0,427.015,567.112a54.35282,54.35282,0,0,0,1.0763-10.85724,55.7354,55.7354,0,0,0-1.0763-10.94641,27.97872,27.97872,0,0,0-3.67929-9.51111,20.44459,20.44459,0,0,0-6.99807-6.72974,21.02361,21.02361,0,0,0-10.85721-2.6015,19.59571,19.59571,0,0,0-17.67618,9.33124,27.91844,27.91844,0,0,0-3.67926,9.51111,55.73539,55.73539,0,0,0-1.07629,10.94641A54.35281,54.35281,0,0,0,384.125,567.112Z"/></svg>