<svg width="741" height="182" viewBox="0 0 741 182" fill="none" xmlns="http://www.w3.org/2000/svg">
<g filter="url(#filter0_i_1550_1760)">
<path d="M265.125 143.221C256.756 143.221 248.851 141.942 241.412 139.385C234.088 136.827 227.637 132.991 222.057 127.877C216.594 122.762 212.235 116.31 208.98 108.522C205.842 100.734 204.272 91.5509 204.272 80.9729C204.272 70.3949 205.842 61.2117 208.98 53.4235C212.235 45.519 216.594 39.0095 222.057 33.8948C227.637 28.6639 234.088 24.8279 241.412 22.3869C248.851 19.8295 256.756 18.609 265.125 18.7252C273.495 18.8415 281.341 20.1783 288.664 22.7356C296.104 25.1767 302.555 29.0127 308.018 34.2436C313.482 39.3582 317.783 45.8096 320.921 53.5979C324.176 61.2698 325.803 70.3949 325.803 80.9729C325.803 93.1783 323.014 103.814 317.434 112.881C311.854 121.948 303.194 128.342 291.454 132.061L291.628 132.41C293.488 131.829 295.581 131.248 297.905 130.666C300.23 130.085 302.381 129.678 304.357 129.446L329.814 126.482V143.221H265.125ZM265.125 35.8128C259.197 35.8128 253.559 36.8009 248.212 38.777C242.981 40.6369 238.331 43.4848 234.263 47.3208C230.311 51.1568 227.172 55.9227 224.847 61.6186C222.522 67.1982 221.36 73.6496 221.36 80.9729C221.36 88.2961 222.522 94.7476 224.847 100.327C227.172 105.907 230.311 110.615 234.263 114.451C238.215 118.287 242.807 121.193 248.037 123.169C253.385 125.145 259.08 126.133 265.125 126.133C272.216 126.133 278.435 125.029 283.782 122.82C289.245 120.495 293.779 117.357 297.382 113.404C301.102 109.336 303.892 104.57 305.752 99.1067C307.728 93.527 308.716 87.4824 308.716 80.9729C308.716 73.6496 307.495 67.1982 305.054 61.6186C302.729 55.9227 299.533 51.2149 295.464 47.4951C291.512 43.6592 286.92 40.7531 281.69 38.777C276.459 36.8009 270.937 35.8128 265.125 35.8128ZM367.423 143.046C361.146 143.046 355.915 141.826 351.73 139.385C347.546 136.943 344.233 133.689 341.792 129.62C339.351 125.552 337.607 120.844 336.561 115.497C335.631 110.15 335.166 104.628 335.166 98.9323V54.4697H352.254V98.9323C352.254 108.232 353.997 115.032 357.484 119.333C361.088 123.634 366.435 125.784 373.526 125.784C375.386 125.784 377.711 125.319 380.5 124.389C383.29 123.343 385.964 121.425 388.521 118.635C391.078 115.846 393.229 111.951 394.973 106.953C396.832 101.838 397.762 95.2125 397.762 87.0756V54.4697H414.85V141.651H397.762V124.912C397.762 123.053 397.879 121.076 398.111 118.984C398.46 116.892 398.809 114.974 399.157 113.23L398.809 113.056C397.995 117.124 396.774 121.018 395.147 124.738C393.519 128.342 391.427 131.538 388.87 134.328C386.312 137.002 383.232 139.152 379.629 140.779C376.141 142.291 372.073 143.046 367.423 143.046ZM427.885 142V19.9458H444.973V66.152C444.973 68.1281 444.74 70.2786 444.275 72.6035C443.81 74.9283 443.287 77.0788 442.706 79.0549H443.055C443.636 77.195 444.391 75.1608 445.321 72.9522C446.367 70.7436 447.588 68.9418 448.983 67.5469C450.959 65.4546 453.284 63.5947 455.957 61.9673C458.747 60.2237 461.595 58.7706 464.501 57.6082C467.523 56.3296 470.604 55.3996 473.742 54.8184C476.881 54.121 479.903 53.7722 482.809 53.7722C495.712 53.8885 505.825 57.6082 513.149 64.9315C520.588 72.1385 524.308 83.2977 524.308 98.4092C524.308 113.521 520.588 124.738 513.149 132.061C505.825 139.385 495.712 143.046 482.809 143.046C479.903 143.046 476.881 142.756 473.742 142.174C470.604 141.593 467.523 140.721 464.501 139.559C461.595 138.396 458.747 137.06 455.957 135.549C453.284 133.921 450.959 132.061 448.983 129.969C447.588 128.574 446.367 126.772 445.321 124.564C444.391 122.355 443.636 120.321 443.055 118.461L442.706 118.635C443.287 120.495 443.81 122.588 444.275 124.912C444.74 127.237 444.973 129.388 444.973 131.364V142H427.885ZM444.973 98.4092C444.973 103.059 445.902 107.244 447.762 110.963C449.738 114.683 452.238 117.822 455.26 120.379C458.282 122.936 461.711 124.912 465.547 126.307C469.5 127.586 473.394 128.225 477.23 128.225C487.924 128.225 495.596 125.842 500.246 121.076C504.895 116.31 507.22 108.755 507.22 98.4092C507.22 88.1799 504.837 80.566 500.071 75.5676C495.422 70.5692 487.808 68.0119 477.23 67.8956C473.394 67.8956 469.5 68.5931 465.547 69.988C461.711 71.3829 458.282 73.4171 455.26 76.0907C452.238 78.648 449.738 81.8447 447.762 85.6807C445.902 89.4004 444.973 93.6433 444.973 98.4092ZM576.69 143.046C570.297 143.046 564.194 142.174 558.382 140.431C552.57 138.571 547.455 135.781 543.038 132.061C538.737 128.342 535.308 123.692 532.751 118.112C530.193 112.533 528.915 105.965 528.915 98.4092C528.915 90.8535 530.193 84.2858 532.751 78.7062C535.308 73.1265 538.737 68.4769 543.038 64.7571C547.455 61.0374 552.57 58.3057 558.382 56.562C564.194 54.7022 570.297 53.7722 576.69 53.7722C583.084 53.7722 589.07 54.7022 594.65 56.562C600.346 58.4219 605.286 61.2117 609.471 64.9315C613.655 68.535 616.968 73.1265 619.409 78.7062C621.85 84.2858 623.071 90.8535 623.071 98.4092C623.071 99.6879 623.071 100.56 623.071 101.025C623.071 101.373 622.955 102.129 622.722 103.291H546.7C547.978 112.01 551.349 118.519 556.813 122.82C562.276 127.121 569.018 129.213 577.039 129.097C583.781 128.981 589.651 127.702 594.65 125.261C599.764 122.82 603.542 118.345 605.983 111.835L621.676 113.928C620.049 119.158 617.724 123.634 614.701 127.353C611.795 131.073 608.366 134.096 604.414 136.42C600.462 138.629 596.103 140.314 591.337 141.477C586.687 142.523 581.805 143.046 576.69 143.046ZM577.039 67.1982C573.203 67.1982 569.367 67.9538 565.531 69.4649C561.695 70.8598 558.324 73.0684 555.418 76.0907C552.512 78.9968 550.187 82.7165 548.443 87.25C546.816 91.7834 546.235 97.1305 546.7 103.291C547.397 100.967 548.153 99.1067 548.967 97.7118C549.896 96.3168 550.943 95.2707 552.105 94.5732C553.384 93.8758 554.779 93.4108 556.29 93.1783C557.917 92.9458 559.777 92.8296 561.869 92.8296H606.855C605.576 83.8789 602.264 77.4275 596.916 73.4753C591.686 69.4068 585.06 67.3144 577.039 67.1982ZM619.063 54.8184H640.859L662.48 82.1934C663.061 83.0071 663.468 83.9371 663.7 84.9832C664.049 86.0294 664.223 87.0756 664.223 88.1218H664.572C664.572 85.7969 665.211 83.8208 666.49 82.1934L687.937 54.8184H709.558L675.731 98.0605L709.558 142H688.111L666.316 113.928C665.734 113.114 665.269 112.184 664.921 111.138C664.688 109.975 664.572 108.929 664.572 107.999H664.223C664.223 108.929 664.049 109.975 663.7 111.138C663.352 112.184 662.887 113.114 662.305 113.928L640.684 142H619.063L653.064 98.0605L619.063 54.8184Z" fill="url(#paint0_linear_1550_1760)"/>
</g>
<g filter="url(#filter1_d_1550_1760)">
<path d="M725.757 121.325C727.497 121.325 729.195 121.774 730.853 122.671C732.511 123.56 733.802 124.837 734.727 126.504C735.652 128.162 736.114 129.892 736.114 131.697C736.114 133.482 735.656 135.2 734.741 136.848C733.834 138.496 732.556 139.779 730.908 140.694C729.269 141.601 727.552 142.054 725.757 142.054C723.962 142.054 722.24 141.601 720.591 140.694C718.952 139.779 717.674 138.496 716.759 136.848C715.843 135.2 715.385 133.482 715.385 131.697C715.385 129.892 715.847 128.162 716.772 126.504C717.707 124.837 719.002 123.56 720.66 122.671C722.318 121.774 724.016 121.325 725.757 121.325ZM725.757 123.042C724.3 123.042 722.881 123.418 721.498 124.169C720.124 124.91 719.048 125.977 718.27 127.369C717.491 128.752 717.102 130.195 717.102 131.697C717.102 133.189 717.482 134.623 718.242 135.996C719.012 137.361 720.083 138.428 721.457 139.197C722.831 139.957 724.264 140.337 725.757 140.337C727.249 140.337 728.683 139.957 730.056 139.197C731.43 138.428 732.497 137.361 733.257 135.996C734.017 134.623 734.397 133.189 734.397 131.697C734.397 130.195 734.008 128.752 733.23 127.369C732.46 125.977 731.384 124.91 730.001 124.169C728.618 123.418 727.204 123.042 725.757 123.042ZM721.21 137.425V126.27H725.042C726.352 126.27 727.3 126.376 727.886 126.586C728.472 126.788 728.939 127.145 729.287 127.658C729.635 128.171 729.809 128.716 729.809 129.293C729.809 130.108 729.516 130.817 728.93 131.422C728.353 132.026 727.584 132.365 726.622 132.438C727.016 132.603 727.332 132.8 727.57 133.029C728.019 133.469 728.568 134.206 729.218 135.241L730.578 137.425H728.38L727.391 135.667C726.613 134.284 725.985 133.418 725.509 133.07C725.18 132.814 724.699 132.686 724.067 132.686H723.009V137.425H721.21ZM723.009 131.147H725.193C726.237 131.147 726.947 130.991 727.323 130.68C727.707 130.369 727.9 129.957 727.9 129.444C727.9 129.114 727.808 128.821 727.625 128.564C727.442 128.299 727.185 128.102 726.856 127.974C726.535 127.846 725.935 127.781 725.056 127.781H723.009V131.147Z" fill="url(#paint1_linear_1550_1760)"/>
</g>
<g filter="url(#filter2_i_1550_1760)">
<path d="M78.0411 15.8584C98.2781 20.995 107.693 23.6067 127.93 28.7433C130.026 30.7032 130.276 31.9142 127.93 34.3804L79.4172 60.6865C75.8584 61.5941 73.7676 61.6631 69.7698 60.6865C69.7698 60.6865 36.9688 52.6336 30.0779 51.5599C23.1869 50.4861 21.2574 58.2882 24.8407 60.6865C28.424 63.0847 67.0134 84.3083 67.0134 84.3083C69.0225 86.0438 69.7159 87.3616 69.7698 90.4821V144.973C69.7698 146.852 67.7154 149.511 62.8789 146.852L16.0203 120.009C13.6076 118.601 13.048 117.719 12.9883 115.715V55.8547C12.9883 51.023 14.9287 48.2423 19.0523 45.9228L68.116 17.7377C70.5347 16.3254 72.2527 15.0533 78.0411 15.8584Z" fill="url(#paint2_linear_1550_1760)"/>
<path d="M135.103 71.1698L124.183 64.8672C121.891 63.519 120.358 63.5704 117.282 65.4034C113.179 67.4781 111.987 68.5723 114.797 70.2284L124.183 75.5896C127.489 77.7963 127.909 78.9601 125.563 80.9508L84.4316 102.664C82.2421 104.01 81.4516 105.007 81.395 107.489C81.395 107.489 81.1194 158.955 81.395 162.439C81.6706 165.924 84.2971 166.378 87.1921 165.35L136.33 137.472C137.802 136.393 137.967 135.702 137.986 133.759V79.3425C137.978 75.9157 138.415 73.0462 135.103 71.1698Z" fill="url(#paint3_linear_1550_1760)"/>
</g>
<defs>
<filter id="filter0_i_1550_1760" x="204.273" y="18.5508" width="505.285" height="128.67" filterUnits="userSpaceOnUse" color-interpolation-filters="sRGB">
<feFlood flood-opacity="0" result="BackgroundImageFix"/>
<feBlend mode="normal" in="SourceGraphic" in2="BackgroundImageFix" result="shape"/>
<feColorMatrix in="SourceAlpha" type="matrix" values="0 0 0 0 0 0 0 0 0 0 0 0 0 0 0 0 0 0 127 0" result="hardAlpha"/>
<feOffset dy="4"/>
<feGaussianBlur stdDeviation="2"/>
<feComposite in2="hardAlpha" operator="arithmetic" k2="-1" k3="1"/>
<feColorMatrix type="matrix" values="0 0 0 0 0 0 0 0 0 0 0 0 0 0 0 0 0 0 0.25 0"/>
<feBlend mode="normal" in2="shape" result="effect1_innerShadow_1550_1760"/>
</filter>
<filter id="filter1_d_1550_1760" x="711.387" y="121.325" width="28.7266" height="28.729" filterUnits="userSpaceOnUse" color-interpolation-filters="sRGB">
<feFlood flood-opacity="0" result="BackgroundImageFix"/>
<feColorMatrix in="SourceAlpha" type="matrix" values="0 0 0 0 0 0 0 0 0 0 0 0 0 0 0 0 0 0 127 0" result="hardAlpha"/>
<feOffset dy="4"/>
<feGaussianBlur stdDeviation="2"/>
<feComposite in2="hardAlpha" operator="out"/>
<feColorMatrix type="matrix" values="0 0 0 0 0 0 0 0 0 0 0 0 0 0 0 0 0 0 0.25 0"/>
<feBlend mode="normal" in2="BackgroundImageFix" result="effect1_dropShadow_1550_1760"/>
<feBlend mode="normal" in="SourceGraphic" in2="effect1_dropShadow_1550_1760" result="shape"/>
</filter>
<filter id="filter2_i_1550_1760" x="12.9883" y="15.6079" width="125.012" height="154.225" filterUnits="userSpaceOnUse" color-interpolation-filters="sRGB">
<feFlood flood-opacity="0" result="BackgroundImageFix"/>
<feBlend mode="normal" in="SourceGraphic" in2="BackgroundImageFix" result="shape"/>
<feColorMatrix in="SourceAlpha" type="matrix" values="0 0 0 0 0 0 0 0 0 0 0 0 0 0 0 0 0 0 127 0" result="hardAlpha"/>
<feOffset dy="4"/>
<feGaussianBlur stdDeviation="2"/>
<feComposite in2="hardAlpha" operator="arithmetic" k2="-1" k3="1"/>
<feColorMatrix type="matrix" values="0 0 0 0 1 0 0 0 0 1 0 0 0 0 1 0 0 0 0.25 0"/>
<feBlend mode="normal" in2="shape" result="effect1_innerShadow_1550_1760"/>
</filter>
<linearGradient id="paint0_linear_1550_1760" x1="443.5" y1="-68.5" x2="457" y2="142" gradientUnits="userSpaceOnUse">
<stop stop-color="#FAFAFC"/>
<stop offset="0.830857" stop-color="#6861E0"/>
<stop offset="1" stop-color="#2B267E"/>
</linearGradient>
<linearGradient id="paint1_linear_1550_1760" x1="725.844" y1="115.807" x2="725.844" y2="147.807" gradientUnits="userSpaceOnUse">
<stop stop-color="#6861E0"/>
<stop offset="0.427083" stop-color="#6861E0"/>
<stop offset="1" stop-color="#2B267E"/>
</linearGradient>
<linearGradient id="paint2_linear_1550_1760" x1="46.5" y1="-140" x2="75.4946" y2="165.833" gradientUnits="userSpaceOnUse">
<stop stop-color="#FAFAFC"/>
<stop offset="0.783308" stop-color="#6861E0"/>
<stop offset="1" stop-color="#2B267E"/>
</linearGradient>
<linearGradient id="paint3_linear_1550_1760" x1="46.5" y1="-140" x2="75.4946" y2="165.833" gradientUnits="userSpaceOnUse">
<stop stop-color="#FAFAFC"/>
<stop offset="0.783308" stop-color="#6861E0"/>
<stop offset="1" stop-color="#2B267E"/>
</linearGradient>
</defs>
</svg>
