<?xml version="1.0" encoding="UTF-8"?>
<svg id="Layer_1" data-name="Layer 1" xmlns="http://www.w3.org/2000/svg" viewBox="0 0 1299 1136">
  <defs>
   <style>
      .cls-1 {
         fill: none;
      }
      
      .cls-2 {
         fill: #bb311e;
      }
      
      .cls-3 {
         fill: #c74325;
      }

      .cls-4 {
         fill: #da4c2a;
      }
   </style>
  </defs>
  <rect class="cls-1" width="2253.98" height="946.87"/>
  <g transform="translate(-477.44716,96.29186)">
    <path class="cls-3" d="m 1459.7536,218.17745 c 0,-80.17719 -33.0321,-152.894462 -86.6499,-206.417608 L 1209.5514,181.99354 c 16.6558,25.30992 14.3903,59.12816 -7.7477,82.17994 -26.4312,27.50085 -71.0568,29.22133 -99.6696,3.81732 -28.613,-25.404 -30.403,-68.2951 -3.9717,-95.79594 21.7463,-22.6351 55.7853,-27.75623 83.1117,-14.73164 l 163.804,-170.489085 c -48.2755,-37.675885 -108.55,-61.614794 -174.4745,-65.79503 0.042,-0.01346 0.07,-0.02685 0.1119,-0.04032 -0.5454,-0.04032 -1.0908,-0.02685 -1.6362,-0.05378 -6.3211,-0.376356 -12.6842,-0.631743 -19.1032,-0.631743 -10.6985,0 -21.2569,0.524208 -31.6756,1.532308 -10.4187,1.021534 -20.6696,2.526958 -30.7526,4.516266 -20.1661,3.965173 -39.619,9.812128 -58.149,17.352684 -18.5299,7.527108 -36.13676,16.747825 -52.62486,27.447076 -20.59959,13.374062 -39.43716,29.07346998 -56.10704,46.694976 -6.67069,7.043232 -12.99183,14.409045 -18.93533,22.057129 -11.88714,15.282726 -22.29182,31.707961 -30.99037,49.060644 -5.78972,11.546055 -10.75432,23.549105 -14.97774,35.861305 -2.48929,7.25829 -4.71287,14.63755 -6.61481,22.13778 -5.8037,22.78297 -8.95028,46.57402 -8.95028,71.0909 v 0 c 0,25.69971 3.38433,50.63327 9.74741,74.41089 12.72618,47.56866 37.39536,90.52697 70.72112,125.78342 9.99912,10.57828 20.78143,20.45761 32.24895,29.55735 7.64973,6.06202 15.6071,11.788 23.84414,17.13763 6.48891,4.20711 13.20164,8.13197 20.02622,11.86864 4.23739,2.32534 8.53069,4.55659 12.89399,6.68031 42.1224,20.61891 89.7686,32.29938 140.2818,32.29938 1.832,0 3.65,-0.0268 5.4681,-0.0673 4.6289,-0.0941 9.2299,-0.2957 13.8169,-0.56453 0.4895,-0.0269 0.9789,-0.0135 1.4544,-0.0538 -0.042,-0.0135 -0.084,-0.0269 -0.1258,-0.0538 161.4686,-10.20192 289.1779,-139.23813 289.1779,-297.01178 z"/>
    <g>
      <path class="cls-4" d="m 274.35,362.48 c 4.25,-5.69 8.77,-11.16 13.54,-16.41 -4.77,5.24 -9.29,10.72 -13.54,16.41 z"/>
      <path class="cls-4" d="m 241.48,425.66 c 3.02,-9.16 6.57,-18.09 10.71,-26.68 -4.14,8.59 -7.69,17.52 -10.71,26.68 z"/>
      <path class="cls-4" d="m 252.19,398.98 c 6.22,-12.91 13.66,-25.13 22.16,-36.5 -8.5,11.37 -15.94,23.59 -22.16,36.5 z"/>
      <path class="cls-4" d="m 328.01,678.7 c -5.89,-3.98 -11.58,-8.24 -17.05,-12.75 5.47,4.51 11.16,8.77 17.05,12.75 z"/>
      <path class="cls-4" d="m 287.89,643.96 c -23.84,-26.22 -41.47,-58.19 -50.57,-93.58 9.1,35.39 26.74,67.36 50.57,93.58 z"/>
      <path class="cls-4" d="m 236.75,442.13 c -4.15,16.95 -6.4,34.65 -6.4,52.89 0,18.24 2.42,37.66 6.97,55.36 -4.55,-17.69 -6.97,-36.24 -6.97,-55.36 0,-19.12 2.25,-35.93 6.4,-52.89 z"/>
      <path class="cls-4" d="m 451.86,273.51 c 4.59,0 9.14,0.19 13.66,0.47 -4.52,-0.28 -9.07,-0.47 -13.66,-0.47 z"/>
      <path class="cls-4" d="m 342.33,687.53 c 32.31,18.42 69.67,29 109.53,29 4.63,0 9.22,-0.19 13.79,-0.47 -4.56,0.28 -9.15,0.47 -13.79,0.47 -39.86,0 -77.22,-10.58 -109.53,-29 z"/>
      <path class="cls-2" d="m 466.69,274.01 c -0.39,-0.03 -0.78,-0.02 -1.17,-0.04 0.36,0.02 0.73,0.05 1.09,0.07 0.03,-0.01 0.05,-0.02 0.08,-0.03 z"/>
      <path class="cls-2" d="m 342.33,687.53 c -4.88,-2.78 -9.68,-5.69 -14.32,-8.83 4.64,3.13 9.44,6.05 14.32,8.83 z"/>
      <path class="cls-2" d="m 466.69,716.02 c 0,0 -0.06,-0.02 -0.09,-0.04 -0.32,0.02 -0.63,0.05 -0.95,0.07 0.35,-0.02 0.7,-0.01 1.04,-0.04 z"/>
      <path class="cls-2" d="m 407.22,278.01 c 7.21,-1.48 14.55,-2.6 21.99,-3.36 -7.45,0.76 -14.78,1.88 -21.99,3.36 z"/>
      <path class="cls-2" d="m 236.75,442.13 c 1.37,-5.58 2.95,-11.06 4.73,-16.47 -1.78,5.4 -3.37,10.89 -4.73,16.47 z"/>
      <path class="cls-2" d="m 328.01,311.34 c 11.78,-7.96 24.38,-14.82 37.63,-20.42 -13.25,5.6 -25.84,12.46 -37.63,20.42 z"/>
      <path class="cls-4" d="m 954.30046,218.17745 c 0,-136.549879 90.11814,-252.857204 216.30314,-297.011787 -0.5034,-0.02685 -1.0209,-0.06717 -1.5243,-0.09408 -6.3211,-0.376356 -12.6842,-0.631743 -19.1032,-0.631743 -10.6985,0 -21.2569,0.524209 -31.6756,1.532308 -10.4187,1.021534 -20.6696,2.526958 -30.7526,4.516266 -20.1661,3.965174 -39.619,9.812128 -58.149,17.352685 -18.5299,7.527107 -36.13676,16.747825 -52.62486,27.447076 -20.59959,13.374069 -39.43716,29.07346898 -56.10704,46.694975 -6.67069,7.043232 -12.99183,14.409045 -18.93533,22.057129 -11.88714,15.282726 -22.29182,31.707962 -30.99037,49.060644 -5.78972,11.546057 -10.75432,23.549107 -14.97774,35.861307 -2.48929,7.25828 -4.71287,14.63754 -6.61481,22.13777 -5.8037,22.78296 -8.95028,46.57401 -8.95028,71.09089 0,24.51688 3.38433,50.63328 9.74741,74.41088 12.72618,47.56867 37.39536,90.54042 70.72112,125.78344 9.99912,10.57828 20.78143,20.45762 32.24895,29.55736 7.64973,6.06201 15.6071,11.78798 23.84414,17.13761 6.48891,4.20711 13.20164,8.11854 20.02622,11.86865 45.18499,24.75882 97.43239,38.97969 153.17579,38.97969 6.4749,0 12.894,-0.25539 19.285,-0.63174 0.4475,-0.0269 0.881,-0.0672 1.3286,-0.0941 C 1044.4046,471.0481 954.28651,354.74078 954.28651,218.19089 Z"/>
    </g>
    <g transform="translate(0,96.29186)">
      <path class="cls-3" d="m 837.02737,819.6464 c -6.72,16.27 -22.72,27.73 -41.42,27.73 -24.74,0 -44.8,-20.06 -44.8,-44.8 0,-24.74 20.06,-44.8 44.8,-44.8 18.7,0 34.7,11.46 41.42,27.73 h 109.75 v -94.83 h -77.22 v 21.38 c -18.32,-17.89 -43.19,-27.92 -73.29,-27.92 -65.44,0 -111.25,53.22 -111.25,118.66 0,65.44 45.81,118.23 111.25,118.23 30.54,0 56.71,-13.52 73.29,-31.85 h 0.87 v 25.3 h 76.34 v -94.82 h -109.75 z"/>
      <path class="cls-3" d="m 648.19737,684.1264 c -44.06,0 -68.49,38.83 -68.49,38.83 h -0.87 v -32.28 h -77.22 v 223.8 h 77.22 v -117.79 c 0,-5.67 5.67,-45.37 45.81,-45.37 25.74,0 40.14,12.21 40.14,12.21 l 32.28,-65.44 c 0,0 -20.07,-13.96 -48.86,-13.96 z"/>
      <path class="cls-3" d="m 1269.8674,651.8364 c 20.07,0 37.08,-17.45 37.08,-38.39 0,-20.94 -17.01,-38.39 -37.08,-38.39 -20.07,0 -37.08,17.45 -37.08,38.39 0,20.94 17.01,38.39 37.08,38.39 z"/>
      <path class="cls-3" d="m 1130.9874,712.0464 c -18.32,-17.89 -43.19,-27.92 -73.29,-27.92 -59.55003,0 -102.72003,44.12 -110.03003,101.37 h 67.95003 c 6.72,-16.27 22.72,-27.73 41.42,-27.73 24.74,0 44.8,20.06 44.8,44.8 0,24.74 -20.06,44.8 -44.8,44.8 -18.7,0 -34.7,-11.46 -41.42,-27.73 h -68.01003 c 7.15,57.39 50.39,101.37 110.08003,101.37 30.54,0 56.71,-13.52 73.29,-31.85 h 0.87 v 25.3 h 76.35 v -375.17 h -77.22 v 172.76 z"/>
      <path class="cls-3" d="m 1690.7674,773.1164 c -19.2,-6.11 -34.9,-9.6 -34.9,-21.38 0,-10.47 6.98,-13.52 23.99,-13.52 23.56,0 49.73,13.96 49.73,13.96 l 25.3,-50.61 c 0,0 -31.85,-17.45 -75.04,-17.45 -58.9,0 -97.72,26.18 -97.72,71.98 0,33.59 22.69,49.3 45.37,61.08 25.3,13.09 49.73,14.4 49.73,30.54 0,14.83 -13.09,16.14 -23.99,16.14 -24.87,0 -55.41,-25.74 -55.41,-25.74 l -31.41,52.79 c 0,0 32.28,30.1 86.38,30.1 45.81,0 106.01,-10.47 106.01,-76.34 0,-45.81 -38.39,-62.38 -68.06,-71.55 z"/>
      <rect class="cls-3" x="1229.7274" y="684.9964" width="78.529999" height="229.47" />
      <path class="cls-3" d="m 1483.0374,797.1164 c 0,44.06 -5.78,61.07 -38.06,61.07 -32.28,0 -38.06,-17.01 -38.06,-61.07 v -112.12 h -77.22 v 130.88 c 0,75.04 31.52,105.14 115.28,105.14 83.76,0 115.28,-30.1 115.28,-105.14 v -130.88 h -77.22 z"/>
    </g>
  </g>
</svg>
