<?xml version="1.0" encoding="UTF-8"?>
<svg width="32px" height="38px" viewBox="0 0 32 38" version="1.1" xmlns="http://www.w3.org/2000/svg" xmlns:xlink="http://www.w3.org/1999/xlink">
    <!-- Generator: Sketch 63.1 (92452) - https://sketch.com -->
    <title>razee-logo</title>
    <desc>Created with Sketch.</desc>
    <defs>
        <linearGradient x1="22.48%" y1="85%" x2="78.48%" y2="15%" id="linearGradient-1">
            <stop stop-color="#BB8EFF" offset="0%"></stop>
            <stop stop-color="#408BFC" offset="100%"></stop>
        </linearGradient>
        <linearGradient x1="12.8333333%" y1="68.6666667%" x2="87.3333333%" y2="31.3333333%" id="linearGradient-2">
            <stop stop-color="#BB8EFF" offset="0%"></stop>
            <stop stop-color="#408BFC" offset="100%"></stop>
        </linearGradient>
        <linearGradient x1="-8.29838598%" y1="50%" x2="104.26922%" y2="50%" id="linearGradient-3">
            <stop stop-color="#BB8EFF" offset="0%"></stop>
            <stop stop-color="#408BFC" offset="100%"></stop>
        </linearGradient>
    </defs>
    <g id="Fleet---version-2" stroke="none" stroke-width="1" fill="none" fill-rule="evenodd">
        <g id="Artboard" transform="translate(-117.000000, -50.000000)">
            <g id="razee-logo" transform="translate(117.000000, 50.000000)">
                <path d="M1.708,37 L1.708,33.4 L3.664,33.4 L5.476,37 L6.616,37 L4.696,33.304 C5.788,33.052 6.376,32.224 6.376,31 C6.376,29.476 5.5,28.624 4.036,28.624 L0.7,28.624 L0.7,37 L1.708,37 Z M4.036,32.536 L1.708,32.536 L1.708,29.512 L4.036,29.512 C4.828,29.512 5.296,29.944 5.296,30.712 L5.296,31.336 C5.296,32.104 4.828,32.536 4.036,32.536 Z M9.868,37.144 C10.732,37.144 11.392,36.748 11.656,35.992 L11.716,35.992 C11.788,36.568 12.076,37 12.784,37 L13.324,37 L13.324,36.16 L12.616,36.16 L12.616,32.752 C12.616,31.444 11.728,30.664 10.24,30.664 C9.124,30.664 8.38,31.216 8.044,31.876 L8.62,32.416 C8.956,31.852 9.448,31.492 10.192,31.492 C11.176,31.492 11.656,31.972 11.656,32.848 L11.656,33.46 L10.432,33.46 C8.632,33.46 7.792,34.108 7.792,35.272 C7.792,36.424 8.56,37.144 9.868,37.144 Z M10.024,36.328 C9.28,36.328 8.8,35.98 8.8,35.368 L8.8,35.116 C8.8,34.516 9.292,34.18 10.384,34.18 L11.656,34.18 L11.656,35.2 C11.656,35.836 10.972,36.328 10.024,36.328 Z M18.844,37 L18.844,36.16 L15.16,36.16 L18.748,31.528 L18.748,30.808 L14.176,30.808 L14.176,31.648 L17.584,31.648 L14.068,36.196 L14.068,37 L18.844,37 Z M22.588,37.144 C23.752,37.144 24.64,36.568 25.036,35.728 L24.352,35.236 C24.028,35.92 23.428,36.304 22.648,36.304 C21.496,36.304 20.812,35.5 20.812,34.432 L20.812,34.144 L25.264,34.144 L25.264,33.688 C25.264,31.936 24.244,30.664 22.588,30.664 C20.908,30.664 19.804,31.936 19.804,33.904 C19.804,35.872 20.908,37.144 22.588,37.144 Z M24.232,33.424 L20.812,33.424 L20.812,33.34 C20.812,32.26 21.544,31.468 22.588,31.468 C23.572,31.468 24.232,32.2 24.232,33.292 L24.232,33.424 Z M29.176,37.144 C30.34,37.144 31.228,36.568 31.624,35.728 L30.94,35.236 C30.616,35.92 30.016,36.304 29.236,36.304 C28.084,36.304 27.4,35.5 27.4,34.432 L27.4,34.144 L31.852,34.144 L31.852,33.688 C31.852,31.936 30.832,30.664 29.176,30.664 C27.496,30.664 26.392,31.936 26.392,33.904 C26.392,35.872 27.496,37.144 29.176,37.144 Z M30.82,33.424 L27.4,33.424 L27.4,33.34 C27.4,32.26 28.132,31.468 29.176,31.468 C30.16,31.468 30.82,32.2 30.82,33.292 L30.82,33.424 Z" id="razee-txt-outline" fill="#373737" fill-rule="nonzero"></path>
                <polygon id="pole" fill="url(#linearGradient-1)" fill-rule="nonzero" points="12 0 12 5 10 5 10 0"></polygon>
                <polygon id="flag" fill="url(#linearGradient-2)" fill-rule="nonzero" points="12 0 6 0 7.52 1.5 6 3 12 3"></polygon>
                <path d="M18,8 L16,8 C16.3540607,8.98117634 16.6479398,9.98303685 16.88,11 M18,8 L23,8 C25.67,12 30.2,21.4 27,27 L13,27 C13.6586319,26.4117171 14.2369355,25.7392709 14.72,25 M18,8 C17.9244577,6.83878893 17.3836435,5.75716049 16.5,5 L9,5 C10.1634319,6.76992369 10.5265144,8.94841859 10,11 M10,11 L4,11 C6.94695391,15.2014236 6.94695391,20.7985764 4,25 L14.75,25 M10,11 L16.88,11 M14.75,25 C16.64,22.21 18.35,17.38 16.91,11" id="Shape" stroke="url(#linearGradient-3)" stroke-width="2"></path>
            </g>
        </g>
    </g>
</svg>