<?xml version="1.0" encoding="utf-8"?>
<svg id="master-artboard" viewBox="0 0 400 245" version="1.1" xmlns="http://www.w3.org/2000/svg" x="0px" y="0px" style="enable-background:new 0 0 336 235.2;" width="400px" height="245px"><defs><clipPath id="clipPath18" clipPathUnits="userSpaceOnUse"><path id="path16" d="M 0,481.89 H 425.197 V 0 H 0 Z"/></clipPath><clipPath id="clipPath44" clipPathUnits="userSpaceOnUse"><path id="path42" d="M 0,0 H 3968 V 3463 H 0 Z"/></clipPath><clipPath id="clipPath50" clipPathUnits="userSpaceOnUse"><path id="path48" d="m 1000,3432.08 -407,-407 c -21.996,-22 -21.996,-56 0,-77 l 1353,-1353 c 22,-22 56,-22 77,0 l 1353,1353 c 22,22 22,56 0,77 l -406,407 c -20,20 -46,31 -74,31 H 1073 c -26,0 -54,-11 -73,-31 z"/></clipPath><linearGradient id="linearGradient56" spreadMethod="pad" gradientTransform="matrix(2816,0,0,2816,576.5,2520.83)" gradientUnits="userSpaceOnUse" y2="0" x2="1" y1="0" x1="0"><stop id="stop52" offset="0" style="stop-opacity:1;stop-color:#ed3e20"/><stop id="stop54" offset="1" style="stop-opacity:1;stop-color:#e9048b"/></linearGradient><clipPath id="clipPath66" clipPathUnits="userSpaceOnUse"><path id="path64" d="m 2382,2650.08 1011,328 c 2,17 -3,34 -15,46 l -408,408 c -11,11 -22,19 -36,23 z"/></clipPath><linearGradient id="linearGradient76" spreadMethod="pad" gradientTransform="matrix(1011.43,0,0,1011.43,2382,3052.58)" gradientUnits="userSpaceOnUse" y2="0" x2="1" y1="0" x1="0"><stop id="stop68" offset="0" style="stop-opacity:1;stop-color:#f360a3"/><stop id="stop70" offset="0.3347" style="stop-opacity:1;stop-color:#f146a3"/><stop id="stop72" offset="0.9249" style="stop-opacity:1;stop-color:#e7209a"/><stop id="stop74" offset="1" style="stop-opacity:1;stop-color:#e7209a"/></linearGradient><clipPath id="clipPath86" clipPathUnits="userSpaceOnUse"><path id="path84" d="M 0,0 H 3968 V 3463 H 0 Z"/></clipPath><clipPath id="clipPath92" clipPathUnits="userSpaceOnUse"><path id="path90" d="m 2382,2650.08 553,805 c -12,5 -25,8 -39,8 H 1073 c -11,0 -23,-2 -34,-6 z"/></clipPath><linearGradient id="linearGradient100" spreadMethod="pad" gradientTransform="matrix(1896,0,0,1896,1039,3056.58)" gradientUnits="userSpaceOnUse" y2="0" x2="1" y1="0" x1="0"><stop id="stop94" offset="0" style="stop-opacity:1;stop-color:#ee4f5a"/><stop id="stop96" offset="0.5129" style="stop-opacity:1;stop-color:#ed367d"/><stop id="stop98" offset="1" style="stop-opacity:1;stop-color:#ec2596"/></linearGradient><clipPath id="clipPath110" clipPathUnits="userSpaceOnUse"><path id="path108" d="m 1041,3457.08 c -15,-5 -29,-14 -40,-25 l -407,-407 c -12.004,-12 -17.004,-28 -15,-43 l 1804,-331 z"/></clipPath><linearGradient id="linearGradient116" spreadMethod="pad" gradientTransform="matrix(1804.43,0,0,1804.43,578.572,3054.08)" gradientUnits="userSpaceOnUse" y2="0" x2="1" y1="0" x1="0"><stop id="stop112" offset="0" style="stop-opacity:1;stop-color:#ed4b39"/><stop id="stop114" offset="1" style="stop-opacity:1;stop-color:#ea2273"/></linearGradient><clipPath id="clipPath126" clipPathUnits="userSpaceOnUse"><path id="path124" d="m 3393,2978.08 -1011,-328 -388,-1073 c 11,2 22,6 31,15 l 1353,1353 c 8,10 13,23 15,33 z"/></clipPath><linearGradient id="linearGradient132" spreadMethod="pad" gradientTransform="matrix(1399,0,0,1399,1994,2277.58)" gradientUnits="userSpaceOnUse" y2="0" x2="1" y1="0" x1="0"><stop id="stop128" offset="0" style="stop-opacity:1;stop-color:#ec2969"/><stop id="stop130" offset="1" style="stop-opacity:1;stop-color:#e71495"/></linearGradient><clipPath id="clipPath142" clipPathUnits="userSpaceOnUse"><path id="path140" d="m 576.004,2980.08 v 0 c 1.996,-12 5.992,-25 15,-34 L 1944,1593.08 c 12,-12 31,-19 48,-15 v 0 l 387,1073 z"/></clipPath><linearGradient id="linearGradient154" spreadMethod="pad" gradientTransform="matrix(1214.47,701.173,-701.173,1214.47,1051.86,2145.06)" gradientUnits="userSpaceOnUse" y2="0" x2="1" y1="0" x1="0"><stop id="stop144" offset="0" style="stop-opacity:1;stop-color:#ed3e20"/><stop id="stop146" offset="0.189" style="stop-opacity:1;stop-color:#e8312f"/><stop id="stop148" offset="0.6782" style="stop-opacity:1;stop-color:#d81a53"/><stop id="stop150" offset="0.9435" style="stop-opacity:1;stop-color:#d11261"/><stop id="stop152" offset="1" style="stop-opacity:1;stop-color:#d11261"/></linearGradient><clipPath id="a"><path d="M30.928 118.27l5.712 6.383 19.922-23.758zm5.712-31.583v8.618l30.649-4.286zm25.355-19.565l-5.758 6.382L81.87 90.879zm31.856 2.422l-8.545.885 7.477 30.14zm22.104 23.199l-6.966-5.031-14.535 27.39zm.928 32.096l-1.81-8.432-29.07 10.621zm-20.71 24.456l4.272-7.5-28.698-11.6zm-31.717 4.24l8.173-2.656-13.56-27.904zM38.033 135.46l7.848 3.494 8.544-29.86zm-7.523-31.211l3.483 7.873 26.284-16.444zm15.185-28.23l-2.647 8.2 30.463 5.403zm30.138-10.76l-7.476 4.285 19.085 24.503zm29.58 12.204l-8.405-1.816-2.182 30.978zm13.839 28.929l-5.062-6.988-22.29 21.568zm-9.01 30.745l.883-8.572-30.927 1.072zM83.032 154l6.362-5.776-23.683-19.985zm-31.485-5.776h8.591l-4.318-30.745zM18 16.903v27.925h10.069c8.18 0 13.53-5.585 13.53-13.845 0-8.26-5.31-14.08-13.609-14.08zm33.156-.472c-4.011 0-6.686 2.32-6.686 5.82 0 1.889.826 3.462 2.4 4.445 1.415.826 3.303 1.337 6.41 1.77l4.17.511v.512c0 2.95-1.141 4.208-3.658 4.208-2.321 0-3.698-1.22-3.855-3.461H45.1c.315 4.208 3.619 6.804 8.693 6.804 5.82 0 8.416-2.478 8.416-8.18v-5.861c0-2.675.197-4.72.59-6.096h-4.72a27.566 27.566 0 0 0-.314 3.382c-.944-2.4-3.422-3.854-6.608-3.854zm14.16 16.716v3.421h3.54v4.956l4.72 1.888v-6.844h4.798v-3.421h-4.799v-9.4c0-2.125.905-3.108 2.871-3.108.787 0 1.298.079 1.928.236v-3.972c-1.141-.236-2.006-.354-3.226-.354-4.72 0-6.293 2.478-6.293 6.45v10.148zm17.148 6.686v4.916h5.113v-4.916zm.236-22.93v19.665h4.72V16.903zm18.958-.472c-5.86 0-9.636 4.05-9.636 10.305 0 6.41 3.697 10.304 9.675 10.304 4.877 0 8.063-2.596 8.653-7.08l-4.602-.747c-.314 2.675-1.848 4.13-4.169 4.13-2.91 0-4.72-2.438-4.72-6.49 0-4.247 1.77-6.686 4.799-6.686 2.36 0 3.815 1.455 4.248 4.209l4.444-.905c-.708-4.366-4.012-7.04-8.692-7.04zm18.21 0c-4.012 0-6.686 2.32-6.686 5.82 0 1.889.826 3.462 2.4 4.445 1.415.826 3.303 1.337 6.41 1.77l4.17.511v.512c0 2.95-1.141 4.208-3.659 4.208-2.32 0-3.697-1.22-3.854-3.461h-4.838c.315 4.208 3.619 6.804 8.692 6.804 5.821 0 8.417-2.478 8.417-8.18v-5.861c0-2.675.197-4.72.59-6.096h-4.72a27.544 27.544 0 0 0-.314 3.382c-.944-2.4-3.422-3.854-6.608-3.854zm1.534 3.343c2.91 0 4.877 2.045 4.877 5.192v1.258l-4.444-.668c-2.596-.433-3.776-1.377-3.776-3.068 0-1.652 1.259-2.714 3.343-2.714zm-68.712 0c2.91 0 4.877 2.045 4.877 5.192v1.258l-4.444-.668c-2.596-.433-3.776-1.377-3.776-3.068 0-1.652 1.259-2.714 3.343-2.714zm-29.616 1.101h4.759c5.428 0 8.456 4.563 8.456 10.108 0 5.664-2.91 9.872-8.377 9.872h-4.838z" clip-rule="evenodd"/></clipPath><clipPath id="b"><path d="M0 0h149v171H0z"/></clipPath><clipPath id="k"><path d="M4751.45 8246.76c-1.04 0-2.35-.19-3.39-.19-704.41 0-1277.43 573.01-1277.43 1277.43 0 704.4 573.02 1277.4 1277.43 1277.4 1.04 0 2.35-.2 3.39-.2v217.3c-1.04 0-2.35.1-3.39.1-824.34 0-1494.72-670.5-1494.72-1494.6 0-824.07 670.38-1494.6 1494.72-1494.6 1.04 0 2.35.2 3.39.2z"/></clipPath><clipPath id="path-1"><path d="M0 747h714V0H0z"/></clipPath><pattern id="l" height="74.667" width="71.334" patternUnits="userSpaceOnUse" patternTransform="matrix(10 0 0 10 103 426)"><g clip-path="url(#a)" transform="scale(.1)"><path d="M713.336 0H0v746.672h713.336V0" fill="#2c323e"/></g></pattern><clipPath id="m"><path d="M9194.55 7040.7c-704.4 0-1277.43-573.02-1277.43-1277.43 0-704.41 573.03-1277.43 1277.43-1277.43 704.42 0 1277.45 573.02 1277.45 1277.43 0 704.41-573.03 1277.43-1277.45 1277.43zm0-2772.15c-824.07 0-1494.58 670.53-1494.58 1494.72 0 824.2 670.51 1494.72 1494.58 1494.72 824.25 0 1494.75-670.52 1494.75-1494.72 0-824.19-670.5-1494.72-1494.75-1494.72z"/></clipPath><clipPath id="n"><path d="M6733.42 8589.65l249.88 238.92h3706V5814.24H3263.9v3014.33h2554.2c-3.51-5.79-6.78-11.79-10.56-17.39-19.81-29.27-41.19-57.16-63.21-84.66-3.53-4.37-6.65-9.2-10.17-13.56-23.86-28.87-49.14-56.37-75.22-83.04-2.47-2.47-4.69-5.2-7.03-7.62-11.47-11.4-23.99-21.71-35.84-32.65h-2119.1V6053.04h6959.23v2536.61H6733.42"/></clipPath><clipPath id="o"><path d="M3755.45 4289.73h-298.5c-12.52 0-24.25 5.67-31.81 15.46-7.55 9.76-10.17 22.54-7.03 34.47 10.94 40.41 1131.43 4075.46 5689.76 6681.84 6.26 3.5 13.04 5.3 20.07 5.3h1683.56c19.6 0 36.3-14.1 39.4-33.4 3.1-19.3-8.3-37.9-26.8-44.1-48.3-15.8-4832.62-1638.16-7032.16-6635.77-6.24-14.47-20.6-23.8-36.49-23.8z"/></clipPath><linearGradient id="p" gradientTransform="scale(7622.34 -7622.34) rotate(-32 -1.199 -1.516)" gradientUnits="userSpaceOnUse" x2="1"><stop offset="0" stop-color="#cf3a34"/><stop offset=".027" stop-color="#d8463b"/><stop offset=".133" stop-color="#d8463b"/><stop offset=".461" stop-color="#e98c77"/><stop offset=".71" stop-color="#de4e41"/><stop offset=".745" stop-color="#de4e41"/><stop offset="1" stop-color="#dd493d"/></linearGradient><clipPath id="q"><path d="M10689.3 5814.24H3263.9l233.07 238.8h6959.23"/></clipPath><clipPath id="path-2"><path d="M0 747h714V0H0z"/></clipPath><pattern id="r" height="74.668" width="71.334" patternUnits="userSpaceOnUse" patternTransform="matrix(10 0 0 10 57 589)"><g clip-path="url(#b)" transform="scale(.1)"><path d="M713.336 0H0v746.676h713.336V0" fill="#dd493e"/></g></pattern><clipPath id="c"><path d="M0 747h714V0H0z"/></clipPath><pattern id="s" height="74.668" width="71.334" patternUnits="userSpaceOnUse" patternTransform="matrix(10 0 0 10 57 589)"><g clip-path="url(#c)" transform="scale(.1)"><path d="M713.336 0H0v746.676h713.336V0" fill="#dd493e"/></g></pattern><clipPath id="d"><path d="M0 747h714V0H0z"/></clipPath><pattern id="t" height="74.668" width="71.334" patternUnits="userSpaceOnUse" patternTransform="matrix(10 0 0 10 57 589)"><g clip-path="url(#d)" transform="scale(.1)"><path d="M713.336 0H0v746.676h713.336V0" fill="#dd493e"/></g></pattern><clipPath id="e"><path d="M0 747h714V0H0z"/></clipPath><pattern id="u" height="74.668" width="71.334" patternUnits="userSpaceOnUse" patternTransform="matrix(10 0 0 10 57 589)"><g clip-path="url(#e)" transform="scale(.1)"><path d="M713.336 0H0v746.676h713.336V0" fill="#dd493e"/></g></pattern><clipPath id="f"><path d="M0 747h714V0H0z"/></clipPath><pattern id="v" height="74.668" width="71.334" patternUnits="userSpaceOnUse" patternTransform="matrix(10 0 0 10 57 589)"><g clip-path="url(#f)" transform="scale(.1)"><path d="M713.336 0H0v746.676h713.336V0" fill="#dd493e"/></g></pattern><clipPath id="g"><path d="M0 747h714V0H0z"/></clipPath><pattern id="w" height="74.668" width="71.334" patternUnits="userSpaceOnUse" patternTransform="matrix(10 0 0 10 57 589)"><g clip-path="url(#g)" transform="scale(.1)"><path d="M713.336 0H0v746.676h713.336V0" fill="#dd493e"/></g></pattern><clipPath id="h"><path d="M0 747h714V0H0z"/></clipPath><pattern id="x" height="74.668" width="71.334" patternUnits="userSpaceOnUse" patternTransform="matrix(10 0 0 10 57 589)"><g clip-path="url(#h)" transform="scale(.1)"><path d="M713.336 0H0v746.676h713.336V0" fill="#dd493e"/></g></pattern><clipPath id="i"><path d="M0 747h714V0H0z"/></clipPath><pattern id="y" height="74.668" width="71.334" patternUnits="userSpaceOnUse" patternTransform="matrix(10 0 0 10 57 589)"><g clip-path="url(#i)" transform="scale(.1)"><path d="M713.336 0H0v746.676h713.336V0" fill="#dd493e"/></g></pattern><clipPath id="j"><path d="M0 747h714V0H0z"/></clipPath><pattern id="z" height="74.668" width="71.334" patternUnits="userSpaceOnUse" patternTransform="matrix(10 0 0 10 57 589)"><g clip-path="url(#j)" transform="scale(.1)"><path d="M713.336 0H0v746.676h713.336V0" fill="#dd493e"/></g></pattern><clipPath id="path-3"><path d="M4751.45 8246.76c-1.04 0-2.35-.19-3.39-.19-704.41 0-1277.43 573.01-1277.43 1277.43 0 704.4 573.02 1277.4 1277.43 1277.4 1.04 0 2.35-.2 3.39-.2v217.3c-1.04 0-2.35.1-3.39.1-824.34 0-1494.72-670.5-1494.72-1494.6 0-824.07 670.38-1494.6 1494.72-1494.6 1.04 0 2.35.2 3.39.2z"/></clipPath><clipPath id="path-4"><path d="M0 747h714V0H0z"/></clipPath><clipPath id="path-5"><path d="M9194.55 7040.7c-704.4 0-1277.43-573.02-1277.43-1277.43 0-704.41 573.03-1277.43 1277.43-1277.43 704.42 0 1277.45 573.02 1277.45 1277.43 0 704.41-573.03 1277.43-1277.45 1277.43zm0-2772.15c-824.07 0-1494.58 670.53-1494.58 1494.72 0 824.2 670.51 1494.72 1494.58 1494.72 824.25 0 1494.75-670.52 1494.75-1494.72 0-824.19-670.5-1494.72-1494.75-1494.72z"/></clipPath><clipPath id="path-6"><path d="M6733.42 8589.65l249.88 238.92h3706V5814.24H3263.9v3014.33h2554.2c-3.51-5.79-6.78-11.79-10.56-17.39-19.81-29.27-41.19-57.16-63.21-84.66-3.53-4.37-6.65-9.2-10.17-13.56-23.86-28.87-49.14-56.37-75.22-83.04-2.47-2.47-4.69-5.2-7.03-7.62-11.47-11.4-23.99-21.71-35.84-32.65h-2119.1V6053.04h6959.23v2536.61H6733.42"/></clipPath><clipPath id="path-7"><path d="M3755.45 4289.73h-298.5c-12.52 0-24.25 5.67-31.81 15.46-7.55 9.76-10.17 22.54-7.03 34.47 10.94 40.41 1131.43 4075.46 5689.76 6681.84 6.26 3.5 13.04 5.3 20.07 5.3h1683.56c19.6 0 36.3-14.1 39.4-33.4 3.1-19.3-8.3-37.9-26.8-44.1-48.3-15.8-4832.62-1638.16-7032.16-6635.77-6.24-14.47-20.6-23.8-36.49-23.8z"/></clipPath><linearGradient id="gradient-1" gradientTransform="scale(7622.34 -7622.34) rotate(-32 -1.199 -1.516)" gradientUnits="userSpaceOnUse" x2="1"><stop offset="0" stop-color="#cf3a34"/><stop offset=".027" stop-color="#d8463b"/><stop offset=".133" stop-color="#d8463b"/><stop offset=".461" stop-color="#e98c77"/><stop offset=".71" stop-color="#de4e41"/><stop offset=".745" stop-color="#de4e41"/><stop offset="1" stop-color="#dd493d"/></linearGradient><clipPath id="path-8"><path d="M10689.3 5814.24H3263.9l233.07 238.8h6959.23"/></clipPath><clipPath id="path-9"><path d="M0 747h714V0H0z"/></clipPath><clipPath id="path-10"><path d="M0 747h714V0H0z"/></clipPath><clipPath id="path-11"><path d="M0 747h714V0H0z"/></clipPath><clipPath id="path-12"><path d="M0 747h714V0H0z"/></clipPath><clipPath id="path-13"><path d="M0 747h714V0H0z"/></clipPath><clipPath id="path-14"><path d="M0 747h714V0H0z"/></clipPath><clipPath id="path-15"><path d="M0 747h714V0H0z"/></clipPath><clipPath id="path-16"><path d="M0 747h714V0H0z"/></clipPath><clipPath id="path-17"><path d="M0 747h714V0H0z"/></clipPath><clipPath id="path-18"><path d="M0 432h432V0H0z"/></clipPath><clipPath id="path-19"><path d="M181.472 265.113l34.527-34.249 34.534 34.249-34.534 71.545z"/></clipPath><radialGradient id="gradient-2" spreadMethod="pad" gradientTransform="matrix(-65.1427 0 0 65.1427 247.822 264.472)" gradientUnits="userSpaceOnUse" r="1" cy="0" cx="0" fy="0" fx="0"><stop offset="0" stop-color="#0068ab"/><stop offset=".263" stop-color="#0068ab"/><stop offset="1" stop-color="#133e67"/></radialGradient><clipPath id="path-20"><path d="M215.999 230.864l43.911-43.559h28.513l-37.89 77.808z"/></clipPath><radialGradient id="gradient-3" spreadMethod="pad" gradientTransform="matrix(-67.47137 0 0 67.47137 249.63 265.508)" gradientUnits="userSpaceOnUse" r="1" cy="0" cx="0" fy=".166" fx=".307"><stop offset="0" stop-color="#2688c8"/><stop offset="1" stop-color="#0068ab"/></radialGradient><clipPath id="path-21"><path d="M143.574 187.305h28.514l43.911 43.559-34.527 34.249z"/></clipPath><linearGradient id="gradient-4" gradientTransform="matrix(72.4252 0 0 -72.4252 143.574 226.209)" gradientUnits="userSpaceOnUse" x2="1"><stop offset="0" stop-color="#92c0dd"/><stop offset="1" stop-color="#c4daeb"/></linearGradient><clipPath id="path-22" clipPathUnits="userSpaceOnUse"><path id="path-23" d="M 0,128 H 386 V 0 H 0 Z"/></clipPath><radialGradient id="radialGradient3572" spreadMethod="pad" gradientTransform="matrix(30.668899,0,0,-30.668899,54.739258,480.55713)" gradientUnits="userSpaceOnUse" r="1" cy="0" cx="0" fy="0" fx="0">
      <stop id="stop3574" offset="0" style="stop-opacity:1;stop-color:#f9ab95"/>
      <stop id="stop3576" offset="0.42008579" style="stop-opacity:1;stop-color:#ed1c24"/>
      <stop id="stop3578" offset="0.426971" style="stop-opacity:1;stop-color:#ed1c24"/>
      <stop id="stop3580" offset="0.87256252" style="stop-opacity:1;stop-color:#ed1c24"/>
      <stop id="stop3582" offset="1" style="stop-opacity:1;stop-color:#981015"/>
    </radialGradient><radialGradient id="radialGradient3546" spreadMethod="pad" gradientTransform="matrix(30.666946,0,0,-30.666946,54.740234,480.55811)" gradientUnits="userSpaceOnUse" r="1" cy="0" cx="0" fy="0" fx="0">
      <stop id="stop3548" offset="0" style="stop-opacity:1;stop-color:#f9ab95"/>
      <stop id="stop3550" offset="0.42008579" style="stop-opacity:1;stop-color:#ed1c24"/>
      <stop id="stop3552" offset="0.426971" style="stop-opacity:1;stop-color:#ed1c24"/>
      <stop id="stop3554" offset="0.87256252" style="stop-opacity:1;stop-color:#ed1c24"/>
      <stop id="stop3556" offset="1" style="stop-opacity:1;stop-color:#981015"/>
    </radialGradient><radialGradient id="radialGradient3520" spreadMethod="pad" gradientTransform="matrix(30.662826,0,0,-30.662826,54.738281,480.55322)" gradientUnits="userSpaceOnUse" r="1" cy="0" cx="0" fy="0" fx="0">
      <stop id="stop3522" offset="0" style="stop-opacity:1;stop-color:#f9ab95"/>
      <stop id="stop3524" offset="0.42008579" style="stop-opacity:1;stop-color:#ed1c24"/>
      <stop id="stop3526" offset="0.426971" style="stop-opacity:1;stop-color:#ed1c24"/>
      <stop id="stop3528" offset="0.87256252" style="stop-opacity:1;stop-color:#ed1c24"/>
      <stop id="stop3530" offset="1" style="stop-opacity:1;stop-color:#981015"/>
    </radialGradient><radialGradient id="radialGradient3494" spreadMethod="pad" gradientTransform="matrix(30.668426,0,0,-30.668426,54.737793,480.55615)" gradientUnits="userSpaceOnUse" r="1" cy="0" cx="0" fy="0" fx="0">
      <stop id="stop3496" offset="0" style="stop-opacity:1;stop-color:#f9ab95"/>
      <stop id="stop3498" offset="0.42008579" style="stop-opacity:1;stop-color:#ed1c24"/>
      <stop id="stop3500" offset="0.426971" style="stop-opacity:1;stop-color:#ed1c24"/>
      <stop id="stop3502" offset="0.87256252" style="stop-opacity:1;stop-color:#ed1c24"/>
      <stop id="stop3504" offset="1" style="stop-opacity:1;stop-color:#981015"/>
    </radialGradient><radialGradient id="radialGradient3468" spreadMethod="pad" gradientTransform="matrix(30.633362,0,0,-30.633347,54.729981,480.55664)" gradientUnits="userSpaceOnUse" r="1" cy="0" cx="0" fy="0" fx="0">
      <stop id="stop3470" offset="0" style="stop-opacity:1;stop-color:#f9ab95"/>
      <stop id="stop3472" offset="0.42008579" style="stop-opacity:1;stop-color:#ed1c24"/>
      <stop id="stop3474" offset="0.426971" style="stop-opacity:1;stop-color:#ed1c24"/>
      <stop id="stop3476" offset="0.87256252" style="stop-opacity:1;stop-color:#ed1c24"/>
      <stop id="stop3478" offset="1" style="stop-opacity:1;stop-color:#981015"/>
    </radialGradient><radialGradient id="radialGradient3442" spreadMethod="pad" gradientTransform="matrix(30.633118,0,0,-30.633118,54.732422,480.55762)" gradientUnits="userSpaceOnUse" r="1" cy="0" cx="0" fy="0" fx="0">
      <stop id="stop3444" offset="0" style="stop-opacity:1;stop-color:#f9ab95"/>
      <stop id="stop3446" offset="0.42008579" style="stop-opacity:1;stop-color:#ed1c24"/>
      <stop id="stop3448" offset="0.426971" style="stop-opacity:1;stop-color:#ed1c24"/>
      <stop id="stop3450" offset="0.87256252" style="stop-opacity:1;stop-color:#ed1c24"/>
      <stop id="stop3452" offset="1" style="stop-opacity:1;stop-color:#981015"/>
    </radialGradient><radialGradient id="radialGradient3416" spreadMethod="pad" gradientTransform="matrix(30.641281,0,0,-30.641281,54.736328,480.56445)" gradientUnits="userSpaceOnUse" r="1" cy="0" cx="0" fy="0" fx="0">
      <stop id="stop3418" offset="0" style="stop-opacity:1;stop-color:#f9ab95"/>
      <stop id="stop3420" offset="0.42008579" style="stop-opacity:1;stop-color:#ed1c24"/>
      <stop id="stop3422" offset="0.426971" style="stop-opacity:1;stop-color:#ed1c24"/>
      <stop id="stop3424" offset="0.87256252" style="stop-opacity:1;stop-color:#ed1c24"/>
      <stop id="stop3426" offset="1" style="stop-opacity:1;stop-color:#981015"/>
    </radialGradient><radialGradient id="radialGradient3390" spreadMethod="pad" gradientTransform="matrix(30.638077,0,0,-30.638077,54.730957,480.56006)" gradientUnits="userSpaceOnUse" r="1" cy="0" cx="0" fy="0" fx="0">
      <stop id="stop3392" offset="0" style="stop-opacity:1;stop-color:#f9ab95"/>
      <stop id="stop3394" offset="0.42008579" style="stop-opacity:1;stop-color:#ed1c24"/>
      <stop id="stop3396" offset="0.426971" style="stop-opacity:1;stop-color:#ed1c24"/>
      <stop id="stop3398" offset="0.87256252" style="stop-opacity:1;stop-color:#ed1c24"/>
      <stop id="stop3400" offset="1" style="stop-opacity:1;stop-color:#981015"/>
    </radialGradient><clipPath id="clipPath3356" clipPathUnits="userSpaceOnUse">
      <path id="path3358" d="m 0,521.57 368.5,0 L 368.5,0 0,0 0,521.57 Z"/>
    </clipPath></defs><rect id="ee-background" x="0" y="0" width="400" height="245" style="fill: white; fill-opacity: 0; pointer-events: none;"/><g transform="matrix(0.8061713367081424, 0, 0, 0.8061713367081424, -30.267145736341003, 20.50084055708367)"><g>
	<path class="st0" d="M324.1,75.4l-10,1.5c-6.8,1-12.1,5-12.1,12.3c0,6.4,5.3,12.2,13.9,12.2c6,0,9.9-2.8,12-6   c0,1.6,0.2,3.8,0.4,4.9h10.1c-0.2-1.4-0.5-4.3-0.5-6.4v-20c0-8.2-4.8-15.4-17.7-15.4c-10.9,0-16.8,7-17.4,13.4l9.7,2.1   c0.3-3.5,3-6.6,7.8-6.6c4.6,0,6.8,2.4,6.8,5.3C327.1,73.9,326.4,75.1,324.1,75.4z M327.1,83.8c0,7.2-4.3,9.4-8.9,9.4   c-3.5,0-5.3-2.3-5.3-4.7c0-3.1,2.2-4.7,5-5.1l9.2-1.4V83.8z" style="fill: rgb(35, 16, 58);"/>
	<path class="st0" d="M74.5,154.6h7c0.4,0,0.7-0.2,0.9-0.5L97,124.7c0.1-0.1,0.1-0.3,0.1-0.5V73.9c0-0.5-0.4-1-1-1H74.5   c-0.5,0-1,0.4-1,1v79.7C73.5,154.1,74,154.6,74.5,154.6z" style="fill: rgb(35, 16, 58);"/>
	<path class="st0" d="M103.5,92.9h17.8c0.4,0,0.7-0.2,0.9-0.5l5.9-11.9c0.1-0.2,0.1-0.3,0.1-0.5v-6c0-0.6-0.5-1-1-1h-18   c-0.4,0-0.7,0.2-0.9,0.5l-5.7,11.2c-0.1,0.2-0.1,0.3-0.1,0.5v6.7C102.5,92.5,102.9,92.9,103.5,92.9z" style="fill: rgb(35, 16, 58);"/>
	<path class="st0" d="M148.8,92.4c5.2,0,9.4-4.2,9.4-9.4s-4.2-9.4-9.4-9.4c-5.2,0-9.4,4.2-9.4,9.4S143.6,92.4,148.8,92.4z    M148.8,78.3c2.6,0,4.7,2.1,4.7,4.7c0,2.6-2.1,4.7-4.7,4.7c-2.6,0-4.7-2.1-4.7-4.7C144.2,80.4,146.3,78.3,148.8,78.3z" style="fill: rgb(35, 16, 58);"/>
	<path class="st0" d="M140.3,104.1h17.2c0.6,0,1-0.5,1-1v-3.5c0-0.6-0.5-1-1-1h-17.2c-0.6,0-1,0.5-1,1v3.5   C139.3,103.7,139.7,104.1,140.3,104.1z" style="fill: rgb(35, 16, 58);"/>
	<path class="st0" d="M44.2,41.9v143.7h143.7V41.9H44.2z M181.1,178.7H51v-130h130V178.7z" style="fill: rgb(35, 16, 58);"/>
	<path class="st0" d="M210.3,101.5h11.5V77.7h5.9l12.1,23.7h12.7l-13.1-25.1c7.7-2.2,12.5-8.4,12.5-16.6c0-10.2-7.3-18-18.7-18   h-22.9V101.5z M240.2,59.8c0,4.8-3.4,8.1-9.2,8.1h-9.2V51.6h9.2C236.8,51.6,240.2,54.9,240.2,59.8z" style="fill: rgb(35, 16, 58);"/>
	<path class="st0" d="M295.7,79.4c0-13-7.5-21-20.1-21c-10.4,0-20,8.4-20,21.4c0,13.7,9.8,21.7,21,21.7c10,0,16.4-5.9,18.5-12.9   l-9.2-2.7c-1.3,3.6-4.1,6.2-9.2,6.2c-5.4,0-10-3.9-10.2-9.2h29.1C295.5,82.7,295.7,81,295.7,79.4z M266.7,75.3c0.2-3.7,3.4-8,9.1-8   c6.3,0,8.9,4,9.1,8H266.7z" style="fill: rgb(35, 16, 58);"/>
	<path class="st0" d="M366.4,68.6c5.4,0,8,3.5,9,6.8l9.8-3.3c-1.7-6.8-8-13.7-19.1-13.7c-11.8,0-21,9-21,21.5   c0,12.5,9.4,21.5,21.4,21.5c10.8,0,17.2-6.9,19-13.7l-9.7-3.2c-0.9,3.1-3.7,6.9-9.3,6.9c-5.6,0-10.4-4.1-10.4-11.5   S360.8,68.6,366.4,68.6z" style="fill: rgb(35, 16, 58);"/>
	<path class="st0" d="M416.3,69.4v-9.7h-8.2V47.5h-9.9v5.7c0,3.6-2,6.4-6.3,6.4h-2.1v9.7h7.3v19.4c0,7.8,5,12.5,12.9,12.5   c3.2,0,5.2-0.6,6.2-1v-9.1c-0.6,0.2-2.1,0.3-3.4,0.3c-3.1,0-4.8-1.2-4.8-4.7V69.4H416.3z" style="fill: rgb(35, 16, 58);"/>
	<path class="st0" d="M423.2,46.3c0,3.6,3.1,6.7,6.8,6.7c3.8,0,6.8-3.1,6.8-6.7c0-3.8-3-6.8-6.8-6.8   C426.3,39.5,423.2,42.6,423.2,46.3z" style="fill: rgb(35, 16, 58);"/>
	<path d="M 424.600006 59.599998 H 435.600006 V 101.299999 H 424.600006 V 59.599998 Z" class="st0" style="fill: rgb(35, 16, 58);"/>
	<path d="M 486.1000061035156 59.599998474121094 L 474.6000061035156 59.599998474121094 L 464.8999938964844 86.9000015258789 L 454.8999938964844 59.599998474121094 L 442.79998779296875 59.599998474121094 L 459.8999938964844 101.30000305175781 L 470 101.30000305175781 Z" class="st0" style="fill: rgb(35, 16, 58);"/>
	<path class="st0" d="M508.5,58.4c-10.4,0-20,8.4-20,21.4c0,13.7,9.8,21.7,21,21.7c10,0,16.4-5.9,18.5-12.9l-9.2-2.7   c-1.3,3.6-4.1,6.2-9.2,6.2c-5.4,0-10-3.9-10.2-9.2h29.1c0-0.2,0.2-1.8,0.2-3.4C528.6,66.4,521.1,58.4,508.5,58.4z M499.6,75.3   c0.2-3.7,3.4-8,9.1-8c6.3,0,8.9,4,9.1,8H499.6z" style="fill: rgb(35, 16, 58);"/>
	<path class="st0" d="M269.9,155c0-18.9-14.2-30.5-30.1-30.5c-15.8,0-30,11.6-30,30.5c0,18.8,14.2,30.5,30,30.5   C255.7,185.5,269.9,173.9,269.9,155z M221.5,155c0-13.2,9.2-19.5,18.2-19.5c9.1,0,18.3,6.3,18.3,19.5c0,13.2-9.2,19.5-18.3,19.5   C230.8,174.4,221.5,168.2,221.5,155z" style="fill: rgb(35, 16, 58);"/>
	<path class="st0" d="M288.8,180.3c2,2.7,6.1,5,11.7,5c11.5,0,19.1-9.1,19.1-21.4c0-12-6.8-21.1-18.7-21.1c-6.1,0-10.6,2.7-12.5,5.9   v-5h-10.6v56.3h11V180.3z M298.8,152.6c5.6,0,10.1,4.2,10.1,11.4c0,7.3-4.5,11.5-10.1,11.5c-5.6,0-10.1-4.3-10.1-11.5   C288.7,156.8,293.2,152.6,298.8,152.6z" style="fill: rgb(35, 16, 58);"/>
	<path class="st0" d="M341.7,177.1c-4.8,0-7.2-3-7.4-6.2l-9.4,2.1c0.5,4.6,4.7,12.5,16.9,12.5c10.6,0,15.8-6.8,15.8-13.4   c0-5.9-4-10.8-12-12.5l-5.8-1.2c-2.2-0.4-3.7-1.7-3.7-3.6c0-2.3,2.3-4,5.2-4c4.6,0,6.4,3.1,6.7,5.4l9.2-2.1   c-0.5-4.4-4.4-11.7-15.9-11.7c-8.7,0-15.2,6-15.2,13.3c0,5.7,3.5,10.4,11.4,12.1l5.4,1.2c3.1,0.7,4.4,2.1,4.4,4   C347.1,175.2,345.4,177.1,341.7,177.1z" style="fill: rgb(35, 16, 58);"/>
</g></g></svg>