<svg xmlns="http://www.w3.org/2000/svg" role="img" viewBox="123.59 148.34 359.58 161.08"><defs id="defs1"><style id="style1">.cls-2{fill:#5935c9}</style></defs><g id="g9"><g id="g5"><path id="path1" d="M296.93 247.75c-.6-1.78-1.01-4.97-1.25-9.59l-.35-4.8c-.36-5.8-1.45-9.77-3.29-11.9-1.84-2.13-5.6-3.2-11.28-3.2h-.36l-10.3.18v29.31h-11.37v-30.91c0-2.96.03-9.8.09-20.52.06-10.72.09-17.02.09-18.92l19.01-.18h1.78c9.95 0 16.87 1.27 20.78 3.82s5.86 7.49 5.86 14.83c0 3.67-.98 6.99-2.93 9.95-1.95 2.96-4.41 4.86-7.37 5.68v.53c3.43 1.07 6.03 3.17 7.81 6.31 1.78 3.14 2.85 7.97 3.2 14.48l.36 4.8c.23 4.74.77 7.82 1.6 9.24v.89zm-26.83-61.64v24.34h9.42c5.8 0 9.89-.95 12.26-2.84 2.37-1.89 3.55-5.15 3.55-9.77 0-4.26-1.07-7.31-3.2-9.15-2.13-1.83-5.81-2.75-11.01-2.75h-1.42l-9.6.18z" class="cls-2"/><path id="path2" d="M358.61 223.06h-36.24c.12 5.33 1.39 9.56 3.82 12.7 2.43 3.14 5.89 4.71 10.39 4.71 3.67 0 6.48-.95 8.44-2.84 1.95-1.89 3.05-4.62 3.29-8.17h10.84c-.47 6.28-3 11.16-7.55 14.66-4.56 3.49-10.04 5.24-16.43 5.24-15.99 0-23.98-9.71-23.98-29.13 0-9.24 2.25-16.46 6.75-21.67 4.5-5.21 10.24-7.82 17.23-7.82 7.93 0 13.86 2.1 17.76 6.31 3.91 4.2 5.86 10.93 5.86 20.16 0 1.07-.06 3.02-.18 5.86zm-10.3-7.82c0-5.69-1.09-9.83-3.29-12.44-2.19-2.6-5.48-3.91-9.86-3.91-3.67 0-6.72 1.27-9.15 3.82-2.43 2.55-3.64 6.31-3.64 11.28v1.24h25.94z" class="cls-2"/><path id="path3" d="M377.65 247.75h-9.59v-30.73c0-24.04-.12-38.73-.36-44.06l9.95.18z" class="cls-2"/><path id="path4" d="M419.81 192.32h9.7l-18.07 55.43h-10.09l-17.98-55.43h11.08l7.93 26.11 4.27 15.63 1.43-.17 3.89-13.68z" class="cls-2"/><path id="path5" d="M448.09 247.93c0-1.54-1.19-5.62-3.57-12.26l-15.46-43.17 11.2.18 8.17 25.46 4.62 15.4 1.24-.18 3.38-13.15 7.64-27.71 11.19.18-16.88 51.34c-2.37 7.22-5.11 12.4-8.23 15.54-3.11 3.14-7.13 4.71-12.03 4.71-1.78 0-4.15-.3-7.1-.89v-8.53c2.01.35 3.96.53 5.86.53 6.64-.12 9.97-2.61 9.97-7.46z" class="cls-2"/></g><g id="g8"><path id="polygon5" d="M182.15 244.77l34.39 57.92h-34.52l-34.12-57.85z" class="cls-2"/><path id="polygon6" d="M182.15 244.77l17.73 29.86 34.2-59.52-34.53-59.8H130.5l17.4 30.14h34.25l17.13 29.66z" class="cls-2"/><path id="polygon7" fill="#5dc936" d="M182.15 244.77l17.13-29.66-17.13-29.66-17.12 28.75z"/><path id="polygon8" fill="#a6c936" d="M147.9 244.84l34.25-.07-17.12-30.57-34.25.91z"/></g></g></svg>