<svg xmlns="http://www.w3.org/2000/svg" role="img" viewBox="-20.06 -19.06 991.12 200.12"><g transform="translate(-110.624 -86.667)"><path fill="#cdcad8" d="M117.03351 247.25493c-1.99823-1.0844-4.24823-3.12093-5-4.52563-1.88295-3.51833-1.87723-145.95096.006-149.46982 2.05259-3.8353 9.06823-6.97833 13.84593-6.20302 4.389.71224 109.59173 64.34955 115.71642 69.99706 1.98103 1.82669 3.97253 5.00881 4.42554 7.07137 1.60097 7.28917-2.20708 11.7083-22.29713 25.87511-39.31807 27.72575-40.84766 28.66667-46.60173 28.66667-10.8608 0-17.26577-13.04744-10.5784-21.54905 1.40259-1.78311 10.98902-9.13991 21.30317-16.34845l18.75301-13.10644-33.46269-20.49803c-18.40448-11.27392-33.69091-20.49803-33.96984-20.49803-.27893 0-.50714 24.61927-.50714 54.70949 0 58.70592-.25704 61.18429-6.8225 65.78292-3.82007 2.67568-9.98328 2.71556-14.81065.0959zm100.81697-10.64251c-7.97969-4.03987-10.2462-15.1808-4.36252-21.4437 1.69345-1.80259 18.2325-13.2409 36.75345-25.41846s33.39236-22.59745 33.04757-23.15532c-.34478-.55787-15.55078-10.70137-33.79111-22.54111-18.24032-11.83974-34.52112-22.97114-36.17954-24.73645-7.51835-8.00292-.91488-22.34768 10.28753-22.34768 4.50265 0 11.10504 3.83646 49.79254 28.93302 24.53087 15.91316 45.95158 30.42843 47.60158 32.25617 3.63335 4.02472 4.00307 11.81567.77915 16.41847-2.95192 4.21444-91.40259 62.63557-96.10711 63.47816-2.01962.36171-5.53931-.28768-7.82154-1.4431zm272.81615-17.02712c-9.78651-2.83085-15.71227-6.22754-22.0118-12.61734-8.95461-9.0829-11.81954-17.65301-11.91243-35.63463-.10281-19.90206 2.24156-26.55221 13.24015-37.55769 7.13056-7.13502 9.50212-8.61402 17.905-11.16632 8.16622-2.48041 11.91567-2.84845 23.8991-2.34589 11.9159.49973 15.55692 1.20108 22.52573 4.33902 15.7476 7.09089 24.33814 20.29206 26.25358 40.34418C562.09823 180.98748 564.53449 180 523.4268 180h-35.146l1.05929 4.69676C491.70825 195.19688 498.36118 200 510.53701 200c8.16813 0 12.57178-1.60796 18.38718-6.71395 4.16344-3.65555 5.2803-3.95272 14.8555-3.95272 11.39999 0 13.55361 1.10849 13.55361 6.97616 0 9.68142-6.87722 17.41001-19.33334 21.72671-8.7997 3.04956-38.75669 4.02998-47.33333 1.5491zm37.33333-61.62812c0-4.46867-4.07351-11.37888-8.25309-14.00037-3.54213-2.22167-6.06688-2.67516-12.78701-2.29679-7.22445.40678-8.92938 1.02742-12.42503 4.52307-2.22838 2.22837-4.54715 6.24879-5.15282 8.93425L488.2808 160h19.85958c16.94911 0 19.85958-.29938 19.85958-2.04282zm66.79588 61.31226c-14.66791-3.18168-24.11348-11.79662-24.12423-22.00277-.007-6.88352 1.78565-7.93334 13.54862-7.93334 9.57521 0 10.69207.29717 14.8555 3.95272C605.08887 198.56565 609.3019 200 618.79625 200c12.9715 0 21.36137-4.99032 17.07434-10.15588-2.37677-2.86383-5.61892-4.00617-26.03703-9.1739-19.48358-4.93119-24.45425-7.04376-30.94736-13.15282-6.36098-5.98475-8.22258-10.32622-8.19764-19.11785.0327-11.52558 3.7621-17.22936 15.01425-22.96287 8.58714-4.37556 9.68271-4.5873 26.62639-5.14618 33.76478-1.11372 50.1643 5.6513 53.65253 22.13238C667.51388 149.66194 664.28525 152 652.75665 152c-9.35585 0-12.61737-1.16027-17.9636-6.39043-3.1195-3.05178-7.88316-4.27723-16.54656-4.25658-10.11074.0241-14.76832 2.13141-15.32774 6.935-.56157 4.82207 3.41251 6.72239 24.57039 11.74904 9.3077 2.2113 19.41081 5.12099 22.45136 6.46597 17.74456 7.84926 24.34777 25.86352 14.78 40.3214-3.79913 5.74087-13.89589 11.14774-24.5692 13.15695-10.05077 1.89202-35.16861 1.49776-45.35546-.71191zm112.1665.18089c-8.57178-2.79181-14.33556-7.90648-18.52557-16.43925l-3.77015-7.67775-.40822-49.77315c-.3016-36.77394.002-50.26768 1.16326-51.66667 2.04214-2.46062 26.56282-2.70898 28.97829-.29351 1.06365 1.06365 1.6 6.87407 1.6 17.33333v15.73334h13.95309c16.08638 0 16.71358.44345 16.71358 11.8171 0 9.88616-1.5476 10.84956-17.42857 10.84956h-13.2381v18.04283c0 27.94031 1.64155 30.28963 21.86369 31.29051l13.46964.66666.39246 8.92145c.35773 8.13177.12169 9.06981-2.66666 10.59764-4.56965 2.50386-34.92127 2.93495-42.09674.59791zm76.13285-.51693c-15.8989-5.66241-22.15502-13.20908-22.88183-27.60203-.74534-14.75985 4.60873-23.00178 19.11992-29.43277 4.22448-1.87218 10.11527-2.48129 28.33333-2.9297 25.48155-.62718 24.72483-.28978 21.48623-9.58003-1.86192-5.34111-7.65693-8.05554-17.19773-8.05554-7.5298 0-10.80791 1.29967-16.36957 6.49005-3.26669 3.04861-5.10972 3.5594-14.35856 3.97941-12.41307.56371-14.56037-.58201-14.56037-7.76887 0-5.89455 4.20732-12.71961 10.42332-16.90857 10.71414-7.22026 42.70441-9.57304 59.52453-4.37784 6.78212 2.09479 10.42729 4.23293 15.34347 9 9.82216 9.52427 10.70868 13.92131 10.70868 53.11425 0 37.55584 1.0091 35.13824-14.66667 35.13824-10.04009 0-14.66666-1.48689-14.66666-4.71358 0-2.50748.31824-2.5674-8.83888 1.66432-10.43652 4.82296-30.69948 5.79338-41.39921 1.98266zm40.57142-22.90554l7-3.02291V180h-15.42099c-19.53273 0-23.18368 1.60916-23.22526 10.23656-.0147 3.04334 1.01229 5.05489 3.64625 7.14207 3.15225 2.49789 4.88256 2.819 12.33333 2.28882 4.76667-.33918 11.81667-1.977 15.66667-3.63959zm84.10182 24.08409c-6.44225-2.09666-14.14795-7.06845-17.06009-11.00732-6.94894-9.39895-7.23374-11.72936-7.74337-63.35937-.33466-33.90481-.0323-49.08433 1.01667-51.0444 1.39314-2.6031 2.44673-2.76438 15.75563-2.41192l14.26267.37773.37317 17 .37317 17h13.69349c8.87272 0 14.25678.56327 15.2935 1.6.88.88 1.6 5.03714 1.6 9.23809 0 10.98827-1.23813 11.82857-17.42857 11.82857h-13.2381l.007 17c.0127 29.04471 2.26309 32.33334 22.12546 32.33334 10.9344 0 12.60699.31212 13.82019 2.57901 2.22041 4.14888 1.64259 12.80158-1.07936 16.16305-2.30343 2.84462-3.59448 3.0637-20.33333 3.45044-9.83055.22713-19.47791-.10912-21.43857-.74722zm88.89817.31459c-16.46818-3.68965-26.4881-11.00537-32.88821-24.01227-4.32276-8.78509-4.44483-9.49322-4.43436-25.72402.009-14.31089.42482-17.58996 2.9152-23.00136 6.26935-13.62284 15.54066-21.49824 30.30499-25.74223 11.94108-3.43245 33.54938-2.28282 43.60288 2.31981 10.0861 4.61756 17.6581 11.7537 22.1265 20.8528 3.3026 6.72537 3.7063 8.9996 3.7063 20.88073v13.33333l-35.6866.35515-35.68656.35515.84934 3.64485c2.3893 10.25351 7.67208 15.03156 17.68292 15.99347 9.7897.94067 15.3486-.53624 21.5643-5.72934 5.2038-4.34766 6.1039-4.61928 15.3075-4.61928 12.1517 0 14.6576 1.82578 13.3896 9.75533-2.3739 14.84556-18.6157 22.43575-47.2691 22.09-7.0499-.0851-14.01803-.42352-15.4847-.75212zm33.9707-62.09321c-.016-.91666-1.1969-4.23925-2.6239-7.38352-2.965-6.53284-8.5275-9.61648-17.3468-9.61648-8.8193 0-14.38176 3.08364-17.34677 9.61648-1.42707 3.14427-2.60784 6.46686-2.62395 7.38352-.0222 1.26056 4.84399 1.66667 19.97072 1.66667 15.1267 0 19.9929-.40611 19.9707-1.66667zM376.26664 218.4c-2.29274-2.29274-2.29274-93.17393 0-95.46667 1.01328-1.01327 6.11217-1.6 13.90476-1.6 13.13028 0 16.49524 1.40207 16.49524 6.87302 0 1.4754.45 2.45561 1 2.17825 16.56567-8.35391 19.90229-9.50967 29.17117-10.10451 12.91131-.8286 13.82883-.0136 13.82883 12.28317 0 5.66561-.65278 10.22285-1.6 11.17007-1.01628 1.01628-6.14805 1.6-14.06622 1.6-13.39365 0-17.91521 1.41786-24.66711 7.73501l-3.66667 3.43057v29.54389c0 35.77095.89938 33.9572-16.83832 33.9572-7.52575 0-12.55503-.59335-13.56168-1.6z"/><path fill="#b4afc4" d="M117.48009 247.47266c-6.7692-3.75188-6.7156-3.12543-6.76618-79.07659-.0322-48.26185.41527-71.9524 1.3997-74.11297 1.75834-3.85914 7.78949-7.61643 12.22578-7.61643 3.80262 0 113.42546 66.41351 117.99393 71.48503 4.37844 4.86056 4.08555 12.64676-.66667 17.72257-2.01667 2.15399-16.19173 12.66346-31.50015 23.35437-20.40854 14.25268-28.87369 19.43803-31.73287 19.43803-9.65679 0-15.92645-7.86442-13.64157-17.11146 1.07508-4.35089 3.45074-6.48287 21.60051-19.38485 11.21591-7.97297 20.21591-14.65973 19.99999-14.85947-.21591-.19973-15.69257-9.74008-34.39257-21.20077l-34-20.83762-.70142 59.03042c-.38578 32.46673-.83578 59.18923-1 59.38334-.16422.19412-2.24858 1.54187-4.63191 2.99502-4.9975 3.04703-9.64876 3.3065-14.18657.79138zm97.084-14.03676c-4.39643-4.39643-5.32634-12.13584-2.02456-16.8498 1.03009-1.47065 17.53009-13.09632 36.66667-25.83481 19.13658-12.7385 34.7858-23.51875 34.77604-23.9561-.01-.43736-15.62133-10.91029-34.69239-23.2732-19.07106-12.3629-35.56307-23.7464-36.64892-25.29667-5.8536-8.35718.75817-20.89199 11.01997-20.89199 4.52508 0 11.16653 3.88767 51.21157 29.97741 31.41019 20.46404 46.50653 31.06232 47.56986 33.39607 1.93796 4.25336 1.99514 9.31771.14424 12.77615-.77738 1.45254-22.09616 16.4131-47.37508 33.24568-40.99901 27.30019-46.54409 30.60469-51.35582 30.60469-4.18417 0-6.26839-.87424-9.29158-3.89743zm276.76921-13.97688c-25.23404-6.23606-38.59259-28.8225-34.33275-58.04929 1.84544-12.66151 6.20574-21.84447 13.50243-28.43659 10.94275-9.88612 24.49976-13.8479 43.21949-12.63008 20.27571 1.31904 34.5099 9.71771 41.86929 24.70435 3.34244 6.80654 3.74154 9.04148 3.74154 20.95259v13.33333l-35.6866.35515-35.68659.35515.84934 3.64485c2.85004 12.23073 7.76757 15.64485 22.53407 15.64485 10.19448 0 11.46912-.29968 14.90223-3.50375 5.783-5.39719 8.86858-6.49625 18.23799-6.49625 10.74966 0 13.45979 2.06814 12.46167 9.50967-1.9477 14.52122-19.48453 22.64578-48.27878 22.36687-5.86666-.0568-13.66666-.84471-17.33333-1.75085zm36.20926-63.09442c-1.6301-10.04513-7.96685-14.98015-19.27547-15.01161-9.36669-.0261-14.53697 2.82159-17.67595 9.73543-4.76474 10.49468-5.19342 10.24491 17.58328 10.24491h20.17446zm71.12407 63.55016c-9.17334-1.60698-21.09333-7.49091-24.37141-12.03019-1.36981-1.89683-2.83787-6.03815-3.26235-9.20295-1.01857-7.594 1.35398-9.34829 12.64292-9.34829 9.21161 0 12.31116 1.11379 18.07839 6.49625 3.52984 3.29435 4.54363 3.50375 16.96296 3.50375 11.70447 0 13.53255-.3238 16.05203-2.84329 6.1651-6.16509.50831-10.22283-21.23932-15.23542-18.6043-4.28808-27.44162-7.68595-33.51851-12.88754-6.6937-5.72956-9.34471-11.31839-9.34471-19.70041 0-8.02229 2.54674-13.78112 8.34638-18.87326 8.26431-7.25617 16.29255-9.13023 38.98695-9.10087 24.99397.0323 33.1504 2.10699 41.63318 10.58977 5.0578 5.05779 5.70015 6.39077 5.70015 11.82867 0 7.87653-2.49364 9.3504-14.65711 8.6631-7.82895-.44237-9.59575-1.05318-13.84944-4.78797-6.05181-5.31356-9.06645-6.09084-21.00647-5.41617-7.85169.44366-9.89235 1.05135-11.9139 3.54787-5.1148 6.3165-.58243 9.14221 24.99754 15.58478 29.43316 7.41302 39.54753 15.32388 39.5336 30.92084-.0115 12.88187-6.29017 21.06449-19.85934 25.88151-9.14743 3.24731-37.35608 4.60928-49.91154 2.40982zm108.23032-1.1216c-8.76787-3.02811-16.67989-10.50077-19.78036-18.68194-2.00592-5.293-2.38152-12.57197-2.80529-54.36596-.33944-33.47609-.0393-49.09552.97993-51C686.62047 92.26153 688.00081 92 699.7802 92c8.34869 0 13.59378.57403 14.61975 1.6 1.06365 1.06365 1.6 6.87407 1.6 17.33333v15.73334h13.06667c8.38518 0 13.63991.57324 14.66666 1.6 2.08849 2.08848 2.08849 17.37818 0 19.46666-1.02675 1.02676-6.28148 1.6-14.66666 1.6h-13.06667v18.7985c0 27.9756 2.24486 31.23903 21.15234 30.74976 6.86206-.17756 11.86313.30132 13 1.24484 2.07824 1.72479 2.53413 14.05834.63075 17.06418-2.82518 4.46157-32.47307 5.54419-43.88609 1.60255zm78.45407.39899c-11.39862-3.0628-18.46181-8.31781-22.95232-17.07652-2.10368-4.1032-2.5673-7.12507-2.1705-14.14735.70499-12.47662 4.72106-18.29887 16.68684-24.1915 8.97108-4.41788 9.15165-4.44614 31.38728-4.91122l22.36429-.46777v-3.26511c0-5.11679-3.49377-10.59947-7.92366-12.43439-2.42719-1.00538-7.51748-1.4565-12.70641-1.12609-7.10031.45211-9.32049 1.18422-12.3468 4.07136C792.68947 150.4139 787.9448 152 778.67505 152c-11.55658 0-14.60398-4.54031-10.17001-15.15229 4.05979-9.71644 17.17794-15.36152 38.29289-16.47841 31.2361-1.65225 50.20548 8.02206 54.43934 27.76385.78614 3.66562 1.42934 20.39238 1.42934 37.17057 0 25.95477-.31258 30.81838-2.09524 32.60104-3.21779 3.21779-22.04239 2.95978-25.03144-.34308-1.21366-1.34108-2.20665-3.12084-2.20665-3.95503 0-.92062-1.70308-.51295-4.33334 1.03727-10.73094 6.32464-29.68678 8.29984-43.64892 4.54823zm38.31559-23.1065l7-3.0807V180h-16.51895c-18.16996 0-21.18876 1.09443-22.89365 8.29978-.69322 2.92975-.0501 4.44261 3.32182 7.81456 4.01095 4.01095 4.5466 4.15843 13.13612 3.61674 5.33833-.33666 11.78161-1.80886 15.95466-3.64543zm87.66666 24.43126c-12.31204-3.18888-18.82932-7.87055-23.74522-17.05734-2.86492-5.35394-2.92144-6.47858-2.92144-58.12624V92.66667l13.13655-.38327c8.5408-.24918 13.78847.15778 15 1.16326 1.40431 1.16548 1.86344 5.44855 1.86344 17.38327v15.83674h13.2381c16.00461 0 17.42857.91686 17.42857 11.22192 0 10.28621-1.799 11.44474-17.77165 11.44474H914.6666v18.04283c0 28.33434 2.35156 31.68471 22.35485 31.84996l12.97848.10721.39247 8.92145c.35176 7.99628.0931 9.08166-2.49438 10.46643-2.98687 1.59852-31.85275 3.01613-36.56475 1.7957zm82.66666-1.06227c-24.29096-6.01898-36.71663-24.78946-34.94455-52.78797.39453-6.23334 1.7321-14.20464 2.9724-17.71401 3.27018-9.25284 13.39866-19.7187 23.58351-24.36908 7.72559-3.5275 9.6533-3.83367 24.38861-3.87358 18.6177-.0504 25.6381 1.83701 36 9.67858 9.8889 7.48359 15.3786 18.93966 16.322 34.06121.5121 8.20866.236 12.07457-.9657 13.52255-1.4269 1.71936-6.945 2.02766-36.2921 2.02766h-34.60938l.92656 4.33333C993.76565 195.48455 1000.0799 200 1013.2891 200c8.926 0 12.0607-1.14168 17.7747-6.47356 3.1898-2.97651 5.18-3.55426 13.7304-3.98604 8.2854-.41839 10.4623-.0866 12.6965 1.93544 3.2081 2.90326 2.5493 9.25858-1.6717 16.12652-6.7696 11.01465-39.711 17.33036-61.81907 11.85228zm36.66667-60.8308c0-5.10908-3.8415-11.89997-8.2531-14.58966-6.0062-3.66189-17.4876-3.66189-23.4938 0-4.41162 2.68969-8.2531 9.48058-8.2531 14.58966 0 2.60335.78352 2.70949 20 2.70949 19.2165 0 20-.10614 20-2.70949zm-653.66663 59.93603c-2.15172-1.25326-2.33333-4.9825-2.33333-47.91255 0-54.10105-1.58349-49.31399 16.31234-49.31399 12.20064 0 14.35433 1.03182 14.35433 6.87707v3.67706l10.33333-5.36222c8.57574-4.45016 12.08544-5.49344 20.63443-6.13374 13.5361-1.01382 14.36557-.29834 14.36557 12.39151 0 12.09556-1.44963 13.31647-14.25356 12.00467-11.14384-1.14172-17.34672.68397-24.89344 7.32685l-6.18633 5.44543v29.62002c0 21.26002-.45159 30.07161-1.6 31.22002-1.97951 1.9795-23.38939 2.10754-26.73334.15987z"/><path fill="#9690ae" d="M119.18415 248.02657c-1.54872-.62575-4.09872-2.76863-5.66667-4.76196-2.83204-3.60036-2.85082-4.09714-2.85082-75.42339V96.04207l3.86355-4.32406c7.47844-8.36983 7.57043-8.33084 69.46978 29.44334 30.43333 18.57199 56.68333 35.24178 58.33333 37.04397 4.06324 4.43803 4.06324 12.44582 0 17.03229-1.65 1.86247-15.86498 12.39593-31.58884 23.40768-32.5349 22.78489-34.27561 23.42359-42.21116 15.48804-4.8453-4.84529-5.65067-8.88889-2.95069-14.8147.93712-2.05676 9.67828-9.20288 21.43113-17.52049 10.91667-7.72584 19.62216-14.27331 19.34554-14.54993-.27662-.27663-15.77063-9.84644-34.43113-21.26627l-33.92818-20.76331-.32101 57.05735c-.23557 41.86928-.7554 57.8862-1.95285 60.1711-2.93802 5.60611-10.31658 8.09484-16.54198 5.57949zm95.37994-14.59067c-4.20846-4.20846-5.23778-11.10676-2.43791-16.33836.80274-1.49993 17.6329-13.38549 37.40036-26.41236l35.94083-23.68522-34.40036-22.27565c-18.9202-12.25161-35.75036-23.76006-37.40036-25.57434-7.3183-8.0469-1.06349-21.82797 9.89744-21.80676 4.38779.0085 11.52676 4.18677 50.9635 29.82782 25.83089 16.79477 46.62896 31.20341 47.61941 32.99012.96717 1.7447 1.77974 4.49395 1.80573 6.10945.12183 7.57398-2.70277 9.9067-49.25478 40.6775-39.94665 26.40468-46.64124 30.38523-51.10256 30.38523-3.8965 0-6.07323-.93936-9.0313-3.89743zm278.82961-13.55905c-15.30361-2.9999-28.00352-13.37249-33.44793-27.31844-4.43509-11.36057-4.42304-32.45257.0251-43.85042 4.15881-10.65662 14.03301-20.54635 24.73714-24.77608 10.57168-4.17738 34.71718-4.60391 45.65264-.80644 17.67541 6.13799 28.3123 21.2195 29.38536 41.66402.40721 7.75822.0766 11.81775-1.07562 13.20604C557.26815 179.68506 551.56898 180 522.39743 180h-34.60934l.92656 4.33333c2.55596 11.95375 9.16533 16.19985 24.04653 15.44838 8.40598-.42448 10.30107-.99306 13.50825-4.0529 5.02707-4.79614 9.76448-6.39548 18.94402-6.39548 9.48674 0 12.9544 2.82725 11.62434 9.47755-1.4729 7.36449-5.90337 12.8631-13.24016 16.43224-11.12119 5.41014-34.99989 7.6141-50.20393 4.63373zm34.60626-61.94306c0-4.56957-3.17095-10.42145-7.4865-13.81606-2.68349-2.11083-5.44756-2.7844-11.42619-2.7844-10.23237 0-15.27454 2.6593-18.49613 9.75509-4.76121 10.4869-5.17241 10.24491 17.40883 10.24491h19.99999zm69.66772 61.49738c-16.24007-3.09694-25.20195-10.06674-26.62954-20.71022-.95584-7.1263 1.8473-9.38762 11.63693-9.38762 9.27988 0 14.01439 1.58605 19.03625 6.3771 3.12821 2.98444 5.16951 3.62318 12.9915 4.06516 15.31108.86515 22.63047-1.66944 22.63047-7.83659 0-3.66088-5.72104-6.14625-26.27526-11.41468-24.61142-6.30836-32.72664-10.72723-37.73704-20.54845-7.651-14.99718.51237-31.42809 18.35158-36.93735 10.97983-3.39089 41.80349-3.34255 52.99405.0831 13.58608 4.15897 20.66667 11.50174 20.66667 21.43191 0 5.80049-2.64258 7.44646-11.95517 7.44646-7.23565 0-12.58713-1.97404-19.90867-7.34386-3.92484-2.87859-5.93826-3.32281-15.06061-3.32281-9.44679 0-10.8721.34201-13.85451 3.32442-2.72575 2.72575-3.06634 3.80662-1.8913 6.0022 1.91416 3.57663 7.06729 5.57502 25.33693 9.82563 25.97253 6.04278 37.11699 13.3189 39.83884 26.01045 3.20545 14.94651-4.64507 26.37122-21.721 31.61015-9.48399 2.90971-36.29507 3.64292-48.45012 1.32499zm112.62227.53923c-10.97243-2.78496-17.52562-8.3943-22.55184-19.30373-2.99746-6.506-3.08197-7.8291-3.50629-54.89806-.30293-33.60251.0146-49.07113 1.04691-51C686.62591 92.25138 687.96256 92 699.99995 92c11.72491 0 13.39741.29504 14.61976 2.57901.75913 1.41846 1.38024 9.21846 1.38024 17.33333v14.75433h13.06667c8.38518 0 13.63991.57324 14.66666 1.6.90392.90392 1.6 5.23402 1.6 9.95308 0 10.4685-1.00102 11.11358-17.24567 11.11358h-12.08766v18.70949c0 28.49376 2.84057 32.44427 22.27202 30.97467 12.21383-.92373 13.72798.15516 13.72798 9.7817 0 10.04258-2.21141 11.2645-21.59454 11.93214-8.28967.28553-17.34162-.0569-20.11546-.76093zm77.37123-.0846c-6.82075-1.60753-17.03378-6.94867-20.5976-10.77199-4.3632-4.68091-7.06363-12.19343-7.06363-19.65082 0-8.4127 1.74776-12.99738 7.08178-18.57672 9.05588-9.47238 18.9959-12.18249 44.76044-12.20375l19.17556-.0158-.7416-5.529c-1.17428-8.75495-4.47446-11.03608-16.77429-11.59464-10.05168-.45647-10.61481-.32176-15.09373 3.61078C792.38878 150.43886 788.087 152 779.54316 152c-12.51988 0-15.93547-5.77664-9.85461-16.66667 5.81692-10.41735 25.38858-16.32731 49.64473-14.99097 20.53123 1.13112 33.03737 7.78907 39.16107 20.84835 3.44879 7.35483 3.51261 8.01906 3.93861 40.9972l.43302 33.52124-3.06303 2.14542c-4.13093 2.89342-19.41029 2.93881-23.50633.0698-1.62984-1.14158-2.96334-2.99051-2.96334-4.10874 0-1.68241-.76074-1.56298-4.40993.69234-9.52377 5.88602-28.57206 8.36862-41.26217 5.37778zm36.6721-23.58467l6.33333-2.81782V180h-16.36999c-17.85251 0-21.27964 1.09964-22.84326 7.32959-.90492 3.6055.94811 8.22787 4.43104 11.05317 3.24656 2.63356 20.72557 1.35459 28.44888-2.08166zm83.28463 23.136c-8.4782-2.27996-15.54176-8.10273-19.61797-16.17187l-3.33333-6.59856-.37928-51.22625c-.30052-40.58813-.0236-51.45191 1.33333-52.31292 2.75661-1.7491 25.61792-1.35552 27.44594.4725 1.06366 1.06365 1.6 6.87407 1.6 17.33333v15.73334h13.12669c11.02359 0 13.48022.39065 15.33333 2.43832 2.83086 3.12807 2.90807 13.30024.13104 17.265-1.90823 2.72439-3.14466 2.96334-15.33333 2.96334H914.6666v18.7985c0 21.4198 1.4094 26.33501 8.51873 29.7086 3.23185 1.53362 6.70638 1.84582 13.864 1.24575 12.01691-1.00746 13.62464.10526 13.59685 9.41041-.0112 3.76021-.50543 7.60098-1.09824 8.53505-2.53029 3.98692-30.15589 5.57176-41.93003 2.40546zm88.84047.59958c-10.62824-2.27897-19.01533-6.8757-25.48526-13.96779-9.08725-9.96108-11.64422-17.89695-11.62156-36.06892.0166-13.29986.37438-15.44131 3.83936-22.97908 7.43755-16.17975 21.80882-25.21671 42.41138-26.66919 25.0002-1.7625 44.3979 7.79983 52.7266 25.99225 3.9679 8.66697 5.8411 28.23794 3.0273 31.62836-1.4267 1.71907-6.9339 2.02766-36.1862 2.02766-38.81056 0-36.84618-.62053-31.97659 10.10115 3.49923 7.70447 9.51339 10.32295 22.23439 9.68056 8.3172-.42 10.3349-1.01371 13.5083-3.97481 5.7646-5.37916 8.8548-6.47357 18.2788-6.47357 7.7542 0 8.9582.35814 10.8354 3.22306 1.7037 2.60019 1.8434 4.21967.7231 8.38014-3.3363 12.39014-17.1976 18.89952-42.1068 19.77367-8.0667.28309-17.16037-.02-20.20822-.67352zm33.75082-63.67208c-1.645-10.13717-7.9734-14.99196-19.5426-14.99196-11.56916 0-17.89756 4.85479-19.5426 14.99196l-.80631 4.96873H1031.0155zM376.99997 218.5599c-2.15172-1.25326-2.33333-4.9825-2.33333-47.91255 0-53.91241-1.4298-49.31399 15.33333-49.31399 12.26769 0 15.33334 1.34227 15.33334 6.71358 0 2.1742.26013 3.95309.57807 3.95309s3.46794-1.78069 7-3.95708c10.90292-6.7182 32.10223-10.49595 36.15526-6.44292.92738.92739 1.6 5.37143 1.6 10.57143 0 12.30844-1.54596 13.74828-13.49708 12.57065-11.90085-1.17268-18.65668.78237-25.9571 7.51167l-5.87915 5.41921v29.78328c0 28.08124-.14739 29.86215-2.57902 31.16351-3.30695 1.76983-22.69027 1.72476-25.75432-.0599z"/><path fill="#877fa1" d="M120.37884 248.39832c-1.62497-.31452-4.47497-2.37885-6.33334-4.58739l-3.37884-4.01553v-71.60103c0-64.03784.22966-71.92891 2.17426-74.7052 2.77691-3.96461 9.8079-6.92024 13.94898-5.86377 4.53403 1.15671 113.37832 67.87757 116.21008 71.23603 3.37212 3.99933 3.03612 12.21449-.66666 16.29974-1.65 1.82044-15.58154 12.12863-30.95897 22.9071-31.29633 21.93647-34.60286 23.31927-41.62731 17.40858-4.9569-4.17096-6.36708-8.89143-4.4193-14.79326 1.16069-3.51694 5.24299-7.05623 20.69362-17.94108 10.58623-7.45791 19.55202-14.05225 19.92398-14.65409.56-.9061-65.97214-42.75509-67.97268-42.75509-.35164 0-.63934 25.47177-.63934 56.60393 0 39.48847-.45902 57.61138-1.51807 59.93575-1.39083 3.05252-8.65515 7.71109-11.3501 7.27875-.6225-.0999-2.46134-.43892-4.08631-.75344zm94.18525-14.96242c-4.29425-4.29425-5.10998-10.41463-2.1087-15.82139.93183-1.67868 17.79016-13.78072 37.46295-26.89342l35.76871-23.84128-15.84354-10.28268c-8.71394-5.65547-24.24353-15.68975-34.51019-22.2984-10.26667-6.60866-20.01667-13.46287-21.66667-15.23158-7.30674-7.83246-1.05165-21.73382 9.7794-21.73382 4.22889 0 11.57149 4.27076 48.43589 28.17232 23.89825 15.49478 45.40137 30.18597 47.7847 32.64709 4.67439 4.82695 5.48892 9.59528 2.54501 14.89865-.93161 1.67826-22.36034 16.82793-47.61942 33.66593-39.89382 26.59371-46.59574 30.61465-51.02814 30.61528-3.86249.00056-6.04976-.94646-9-3.8967zm280.34873-13.51324c-15.22225-2.70447-28.22996-12.18523-33.70739-24.56786-6.19687-14.00905-5.78589-37.23809.90208-50.98713 8.62035-17.72159 31.97818-27.21627 57.2783-23.28294 25.22496 3.92163 38.72155 18.55423 40.28911 43.68023.49496 7.93361.20886 11.76846-.98533 13.20738C557.26288 179.69141 551.75567 180 522.50337 180c-38.1111 0-36.39736-.44723-32.65034 8.52066 2.73195 6.53847 7.01711 9.86079 14.80341 11.47722 9.08879 1.88683 16.63713.15059 22.77513-5.23864 4.65995-4.09149 5.05347-4.18404 16.19796-3.80964 13.40651.4504 14.75625 1.52347 12.4922 9.93152-2.06367 7.6639-8.38427 13.34765-18.22234 16.38632-9.74126 3.00877-32.9334 4.44132-42.98657 2.65522zm32.70296-64.07143c-2.47475-18.45062-31.51449-21.05938-38.19366-3.4311-3.40805 8.99483-3.5798 8.9132 18.7534 8.9132h20.17556zm75.05085 64.07625c-9.99126-1.21669-18.53654-4.03715-23.98426-7.91627-4.55843-3.24589-8.68756-13.15295-7.48273-17.95338.83148-3.3129 1.1233-3.39116 12.6439-3.39116 10.59155 0 12.11689.31953 14.9746 3.13691 5.45056 5.37363 9.35233 6.6692 19.90431 6.60914 12.77062-.0727 18.97401-2.82761 18.35871-8.15311-.54176-4.68909-4.98299-6.69446-27.0812-12.2281-9.53333-2.38725-19.13333-5.24178-21.33333-6.34339-15.85794-7.94059-21.82908-21.79394-15.44918-35.8429 4.82103-10.61626 15.98877-15.91589 36.40797-17.27735 33.52796-2.2355 56.63441 7.79091 55.43703 24.05538L664.66662 150l-11.56287.38373c-11.13949.36968-11.72615.24037-16.02201-3.53144-8.58789-7.54027-25.24624-8.69025-32.72303-2.25898-7.1908 6.18527-1.68854 9.95212 23.59756 16.15488 24.39666 5.98459 31.28409 9.56637 37.26733 19.38075 3.30401 5.41959 3.7876 18.05991.90304 23.60394-7.17051 13.7815-31.75547 20.05543-63.46001 16.1946zm108.74618.074c-11.4367-2.05982-21.61914-11.33068-24.72481-22.51133-.78627-2.8306-1.34291-25.2851-1.34728-54.34752-.007-43.93384.23063-49.61537 2.10162-50.33333 1.15997-.4451 7.43886-.8093 13.95308-.8093 10.34525 0 12.0187.32636 13.22429 2.57901.75913 1.41846 1.38024 9.21846 1.38024 17.33333v14.75433h13.17007c9.71837 0 13.57978.49366 14.73331 1.88358.94017 1.13284 1.40382 5.25146 1.16326 10.33334l-.39997 8.44974-14.33334.37845-14.33333.37844v20.0211c0 22.32951 1.07876 26.30957 8.11753 29.94946 3.20392 1.65681 6.26604 1.91456 14.35862 1.20864 12.55862-1.09551 13.8581-.0886 13.26395 10.27789-.34733 6.05999-.89495 7.33009-3.74742 8.6914-4.42399 2.1113-28.26558 3.26023-36.57982 1.76279zm76.58714-.52216c-18.4527-4.10282-28.04173-14.30863-27.97072-29.76985.0383-8.34524 3.73395-16.22114 10.05718-21.43328 8.56678-7.06147 14.84239-8.55165 39.0676-9.27685l21.82073-.65322-.73829-5.50432c-.93012-6.93457-5.28016-10.86234-13.37444-12.07616-7.90422-1.18531-15.72844 1.01593-21.12231 5.94246-4.06328 3.71123-5.01335 3.95855-15.20698 3.95855-12.50465 0-14.66437-1.34612-13.34669-8.31872 2.27524-12.03962 12.1548-18.53474 32.13768-21.12829 29.11493-3.77879 50.84982 3.33102 58.59832 19.16839l3.45659 7.06501-.35601 35.27347-.356 35.27347h-12.66667c-12.12067 0-12.68503-.12931-13.09273-3-.52412-3.69035-.28777-3.69667-8.0052.21405-11.34775 5.75034-25.32865 7.28323-38.90206 4.26529zm34.66666-22.63343l7.33333-2.84873.39987-7.66525.39988-7.66526-14.39987.002c-11.04336.002-15.48431.54547-19.05225 2.33333-5.82118 2.91694-7.73607 7.76495-5.1779 13.10907 3.60217 7.52505 15.43421 8.58608 30.49694 2.73477zm88.45832 23.09887c-13.01105-2.57413-21.63422-10.12413-25.23739-22.09655-2.53245-8.41471-2.78994-101.74587-.2876-104.24821 2.17062-2.17062 25.29605-2.17062 27.46666 0 1.06366 1.06365 1.6 6.87407 1.6 17.33333v15.73334h13.17008c9.71836 0 13.57977.49366 14.73331 1.88358.94016 1.13284 1.40381 5.25146 1.16326 10.33334l-.39998 8.44974-14.33333.37845-14.33334.37844v19.42005c0 15.38957.46277 20.39527 2.22977 24.11893 3.15175 6.64183 8.85977 8.75337 20.54888 7.60155 11.61823-1.14483 13.22865-.0145 13.20093 9.26584-.0112 3.76021-.53436 7.64778-1.16252 8.63906-2.06634 3.2608-26.88784 5.07856-38.35873 2.80913zm86.36935-.11448c-27.51626-4.57035-42.56015-28.23071-37.72493-59.33209 3.77298-24.26876 19.09241-37.81035 45.18765-39.94354 25.7972-2.10884 46.7376 8.45052 53.709 27.08318 3.5004 9.35549 5.1081 27.42113 2.6987 30.32426-1.4376 1.73222-6.8665 2.03789-36.1947 2.03789-38.85173 0-36.85421-.6399-31.9208 10.22576 2.82417 6.22014 4.99137 7.73652 13.9151 9.73638 8.2753 1.85452 17.2904-.24781 23.1593-5.40079 4.4033-3.86617 4.9248-3.98306 16.1135-3.61175l11.5628.38373-.055 6.9702c-.046 5.79057-.693 7.63581-3.8234 10.90324-5.2909 5.52247-14.4134 9.07903-27.495 10.71932-12.8327 1.60909-18.9894 1.58884-29.13192-.0958zm33.16732-62.16363c-.01-4.66895-4.1494-11.49941-8.8388-14.572-4.8844-3.20039-17.3818-3.23068-22.23019-.0539-4.69358 3.07536-7.53834 7.59123-8.49474 13.48485l-.78018 4.80769H1030.6666zm-655.16895 58.93444c-1.24055-3.23283-.95424-90.33465.30346-92.3169.80056-1.26176 4.76436-1.61458 14.97958-1.33333l13.89095.38245.42385 4.41428c.23311 2.42785.83311 4.20255 1.33333 3.94379 15.33697-7.93387 21.82684-10.31009 30.33263-11.10611 12.13126-1.1353 13.91019.32272 13.91019 11.4009 0 12.16311.17613 12.0095-13.80932 12.04309-13.84428.0333-20.19041 2.17558-27.19544 9.1806l-4.27891 4.27891-.35816 30.25561-.35817 30.2556-14.17399.37683c-12.04111.32012-14.29829.0529-15-1.77572z"/><path fill="#655d89" d="M118.61304 246.95985c-2.51677-1.26125-5.33372-3.79318-6.25988-5.62652-1.30694-2.58706-1.6096-19.40422-1.35189-75.1161l.33206-71.78276 3.74101-3.21724c6.53508-5.62009 11.59394-4.52225 29.71912 6.44944 105.51232 63.86958 102.49567 61.67365 99.77901 72.63269-1.11803 4.51012-3.32446 6.473-22.57249 20.08083-39.1088 27.64885-40.71972 28.62678-45.79849 27.80261-5.6529-.91734-9.00775-3.879-10.90462-9.62659-2.61582-7.92602.48429-11.66642 22.01027-26.55621 10.6017-7.33333 19.29465-13.72424 19.31767-14.20201.0412-.85627-67.13482-42.46466-68.55851-42.46466-.40314 0-.73298 25.79054-.73298 57.3123v57.3123l-3.66666 3.8925c-4.75787 5.05091-9.30519 5.99019-15.05362 3.10942zm97.10319-12.22093c-4.52855-3.57376-6.12184-10.8383-3.55783-16.22176 1.32325-2.77835 11.93516-10.59279 37.70325-27.76409l35.86167-23.89743-21.195-13.81786c-11.65725-7.59982-27.85023-18.1457-35.98439-23.4353-14.30882-9.30494-17.87728-13.08469-17.87728-18.93581 0-9.53602 10.71971-16.1728 19.08766-11.81756 7.30518 3.80212 88.72827 57.40419 90.98273 59.89534 3.41183 3.77003 3.35928 12.11876-.1007 15.99956-1.45 1.62636-22.41119 16.16206-46.58043 32.30155-47.98277 32.04146-51.00938 33.47817-58.33968 27.69336zm280.7596-14.74227c-22.06766-3.23091-36.26292-17.76643-39.05334-39.98945-2.55559-20.35281 3.63487-39.70089 15.64416-48.89528 9.79749-7.50102 19.08914-10.24022 34.93332-10.29843 25.94722-.0953 42.2006 9.46537 48.92722 28.78034 2.82177 8.10253 3.92095 25.77761 1.76462 28.37582C557.26225 179.69218 551.77566 180 522.50337 180c-38.85797 0-36.85545-.64288-31.91223 10.24491 3.34276 7.36267 8.78707 10.13049 20.05313 10.19476 9.15571.0522 14.69352-1.95469 19.23216-6.96983 2.19031-2.42027 4.05031-2.80317 13.6166-2.80317 12.83595 0 14.47086 1.2922 12.5289 9.9026-2.37036 10.50987-13.08229 16.97692-32.06235 19.35682-12.3812 1.55247-17.27624 1.56504-27.48375.0706zM528.45839 157c-2.06092-11.04954-9.04527-16.38666-21.28639-16.26607-10.50974.10353-17.09547 5.65293-18.74077 15.79171l-.78018 4.80769h41.61558zm73.77803 62.91413c-17.3096-2.39122-29.03916-10.17607-30.98849-20.5669-1.38636-7.38994.60228-8.68056 13.37531-8.68056 9.44806 0 11.31406.38745 13.50025 2.80317 4.78233 5.28441 10.01798 7.07504 20.54313 7.02588 12.09959-.0565 18.66667-2.81206 18.66667-7.83256 0-4.80499-4.02911-6.77849-24.60774-12.05318-10.11849-2.59356-20.4209-5.56109-22.89423-6.59451-16.43394-6.86654-23.3314-22.53587-16.16469-36.72219 5.88978-11.65867 18.43818-16.49562 42.99999-16.57494 32.13379-.10378 47.70715 7.34974 47.91522 22.93255l.0848 6.34911-11.48161.38254c-11.34775.37809-11.54517.32945-16.9329-4.17188-8.50184-7.10307-25.58184-8.13883-32.22059-1.95389-6.60435 6.15289-.72178 10.37272 22.6351 16.2372 21.67332 5.44176 25.99751 7.16262 32.62891 12.98507 6.14447 5.39492 8.70442 11.03796 8.70442 19.18763 0 12.64778-6.3142 20.13669-20.73302 24.59021-10.27112 3.17242-32.01365 4.45545-45.03051 2.65725zm110.19873.0267c-12.33449-2.4389-20.45574-8.94416-24.43135-19.56995-2.49393-6.66562-2.67051-10.37872-2.67051-56.15423 0-36.34628.41358-49.43024 1.6-50.61665 1.00003-1.00004 5.96402-1.6 13.23809-1.6 15.75778 0 15.82857.08689 15.82857 19.42857v15.2381h12.41183c16.17534 0 17.18942.73254 16.65955 12.03431l-.40471 8.63235-14.33334.37845-14.33333.37844v20.0211c0 22.35195 1.07634 26.30831 8.15275 29.96767 3.23981 1.67537 6.19429 1.92859 13.98459 1.19858 12.15573-1.13908 13.86266-.0763 13.86266 8.63085 0 9.19338-1.78704 10.814-13.40754 12.15898-11.90945 1.37843-18.71238 1.34551-26.15726-.12657zm77.62519.0539c-16.95769-3.04191-28.22482-13.26166-29.6299-26.87551-1.33927-12.97632 3.85513-22.53337 15.40986-28.35223 9.14601-4.60584 18.34705-6.10028 37.55861-6.10028h17.2677v-4.48686c0-13.915-20.76479-18.84011-34.4569-8.17268-5.66619 4.41449-6.52772 4.65954-16.38166 4.65954-12.3567 0-14.24835-1.67854-11.86529-10.52857 1.99542-7.41042 9.55813-13.73661 20.094-16.8086 13.21843-3.85415 39.19013-3.52675 49.94318.62959 10.16446 3.92884 19.77986 13.12928 21.8826 20.93824.9709 3.60566 1.3717 17.42733 1.14052 39.33099L860.66661 218h-12.66667c-12.24433 0-12.68132-.10343-13.10609-3.10194-.25123-1.77344-1.10779-2.80504-2-2.40869-17.62587 7.82988-29.46234 9.90388-42.83351 7.50532zm22.65243-20.11607c4.32808-.80009 10.13828-2.61228 12.91154-4.02709 4.92135-2.51069 5.0423-2.75026 5.0423-9.98737v-7.41498l-16.78525.44208c-16.50123.43459-16.83965.50538-20 4.18309-6.72697 7.82822-2.02079 16.19148 10.20704 18.13873.41532.0661 4.29628-.53437 8.62437-1.33446zm98.41216 20.15064c-6.73288-1.43469-15.01706-5.53186-17.96964-8.88738-1.19789-1.36137-3.59789-5.17521-5.33333-8.47521-3.13324-5.95795-3.15821-6.35357-3.56275-56.44081-.30102-37.27062.003-50.93495 1.16326-52.33334C886.57386 92.50518 890.31818 92 899.44962 92c10.95076 0 12.62334.31175 13.83674 2.57901.75913 1.41846 1.38024 9.21846 1.38024 17.33333v14.75433h12.41183c16.17534 0 17.18943.73254 16.65956 12.03431l-.40472 8.63235-14.33333.37845-14.33334.37844v20.0211c0 22.32951 1.07876 26.30957 8.11754 29.94946 3.20391 1.65681 6.26603 1.91456 14.35861 1.20864 12.55862-1.09551 13.8581-.0886 13.26395 10.27789-.34732 6.05999-.89495 7.33009-3.74742 8.6914-4.37385 2.08737-28.44841 3.30047-35.53435 1.79055zm89.54167.37269c-12.38653-1.64687-24.4762-7.83992-31.18677-15.97573-7.30392-8.85519-9.94831-17.8289-9.94831-33.75955 0-16.58467 2.85502-25.61023 11.044-34.91341 13.56997-15.4163 44.00128-20.08237 66.85498-10.25097 8.4774 3.64688 18.4391 14.44222 21.664 23.47691 3.2013 8.96867 4.5507 26.23509 2.2655 28.98856-1.4316 1.72496-6.9037 2.03224-36.19 2.03224-33.79629 0-34.5034.0555-34.5034 2.70949 0 4.64699 3.62354 11.64903 7.26209 14.0331 4.61761 3.02556 14.46011 4.77328 20.99571 3.72819 3.1262-.49989 7.4725-2.68419 10.6902-5.37246 5.3536-4.47284 5.5672-4.52524 16.9037-4.14753l11.4816.38254.3959 5.37675c.8778 11.92432-11.1434 20.7413-31.6942 23.24615-11.1629 1.36059-18.2425 1.48179-26.035.44572zm29.6158-64.55072c-2.3672-17.6489-29.273-21.31786-37.64244-5.13305-1.08535 2.09883-1.97336 5.34586-1.97336 7.21561v3.39954h40.3511zm-653.97254 61.25866c-2.55899-2.55899-2.34988-90.86356.22023-92.99656 1.21153-1.00548 6.45919-1.41244 15-1.16326l13.13655.38326.42385 4.41428c.23311 2.42785.83311 4.22354 1.33333 3.99042.50022-.23312 4.53744-2.31657 8.97161-4.6299 12.35972-6.44811 29.19668-8.99218 33.17597-5.01289 2.55978 2.55978 2.93312 17.86687.49524 20.30476-1.00472 1.00471-6.01448 1.6-13.46516 1.6-12.94234 0-17.08165 1.32469-25.29553 8.09527l-4.92387 4.05867-.35772 30.92303-.35772 30.92303-13.35678.37656c-9.25097.2608-13.86189-.12857-15-1.26667z"/><path fill="#43396e" d="M116.99996 246.55985c-6.24213-3.63571-6.3333-4.76658-6.3333-78.55985 0-74.24697.0748-75.1388 6.59281-78.62714 7.0416-3.76855 9.67684-2.48108 68.03878 33.24096 33.10413 20.2623 57.25396 35.87959 58.24596 37.66667 2.16039 3.89195 2.16133 8.87877.002 12.7679-1.99553 3.59477-58.25177 43.67087-62.96172 44.853-4.11286 1.03226-11.93558-2.19681-13.81089-5.70086-.79236-1.48054-1.44066-5.06918-1.44066-7.97475 0-6.35728 1.54105-7.84911 25.02507-24.22578 8.93856-6.23333 16.07546-11.90075 15.85978-12.59426-.40287-1.29543-66.0875-41.96818-67.88485-42.03515-.55-.0205-1 25.8089-1 57.39864v57.4359l-3.89743 3.89743c-2.97451 2.97452-5.10574 3.88784-9 3.8569-2.80641-.0223-6.15258-.65213-7.43593-1.39961zm100.48012-11.08719c-6.63382-3.67685-8.73457-12.6707-4.2818-18.33148 1.3924-1.77014 18.19239-13.64322 37.33333-26.38462 19.14094-12.7414 34.77992-23.52402 34.75329-23.96137-.0266-.43736-16.14789-11.18378-35.82504-23.88094-35.18972-22.70702-38.79321-25.70249-38.79321-32.24758 0-7.00774 6.53406-13.33334 13.77273-13.33334 1.92661 0 16.67175 8.72336 36.39955 21.53431 18.23858 11.84387 38.97103 25.30854 46.07211 29.92148 7.10109 4.61294 13.55109 9.58306 14.33334 11.0447 2.52932 4.72609 1.7292 12.74959-1.57774 15.82118-1.65 1.53258-22.99353 16.03717-47.43008 32.23242-45.69902 30.28689-47.89035 31.39084-54.75648 27.58524zm269.6056-17.94895c-21.33378-7.37189-30.54333-22.9937-29.53968-50.10699.44701-12.07568.98233-14.54605 4.85804-22.41874 9.00364-18.28899 28.61646-26.60789 55.5976-23.58208 22.58992 2.53336 36.68992 14.95696 40.64512 35.81268 1.82062 9.60009 1.70853 19.2161-.2468 21.17142-1.16217 1.16217-11.06099 1.6-36.17445 1.6h-34.57446l.73982 4.55897c1.57016 9.67572 7.88324 14.96748 19.49722 16.34299 7.77163.92043 14.25062-1.04756 20.9337-6.3586 4.74551-3.77125 5.55915-3.95679 15.75769-3.59331l10.75382.38328.39583 5.37675c.74327 10.09626-7.4294 17.99939-22.21128 21.47872-11.31232 2.66267-37.90415 2.28177-46.43217-.66509zM528.61199 157c-2.33091-10.82373-7.55472-15.51549-18.39753-16.52373-5.02286-.46706-8.13425.0124-11.52125 1.77527-5.65797 2.94493-10.69324 10.13954-10.69324 15.27897v3.80282h41.54521zm65.38797 61.12569c-8.92685-2.20608-14.29106-5.16874-18.57353-10.25817-2.9277-3.47936-3.48717-5.31804-3.15882-10.38122l.39902-6.15297 10.89413-.38554c10.50862-.3719 11.05945-.24041 15.56532 3.7158 6.40879 5.62699 16.82468 7.78299 27.20721 5.63164 13.09977-2.71437 15.47046-10.00632 4.71429-14.50054-2.60575-1.08875-11.88204-3.74644-20.61397-5.90597-8.73193-2.15953-18.6386-5.22488-22.01482-6.81189-12.77346-6.00423-18.84771-16.1941-16.99966-28.51779 2.02921-13.53173 12.90026-21.07981 33.2475-23.08468 14.30623-1.40963 33.79382.0238 43.3144 3.18602 11.75931 3.90582 19.45953 14.59972 16.72238 23.2237-.80239 2.52813-1.89979 2.78259-12.00049 2.78259-10.7174 0-11.31497-.16513-16.61138-4.59016-8.52484-7.1223-26.01674-8.15135-32.26967-1.89842-6.34393 6.34393-.0125 10.83848 23.53833 16.70945 31.39746 7.82704 40.63975 15.08608 40.63975 31.91904 0 12.49378-8.05534 21.19088-23.28013 25.13482-9.69488 2.51144-40.84513 2.62462-50.71986.18429zm113.99136.69071c-10.90531-3.52018-17.53298-10.21095-20.77043-20.96819-2.53246-8.41471-2.78994-101.74587-.2876-104.24821 1.79197-1.79198 23.34582-2.229 26.02336-.52765 1.09806.69772 1.74525 6.40794 2 17.64625l.37663 16.61473L729.99995 128l14.66667.66667.41639 6.5783c.80291 12.6846.88848 12.61227-15.43051 13.0434l-14.31922.3783L714.90888 164c-.50726 18.32651 1.22812 27.74584 5.92368 32.15279 3.07703 2.88789 4.54887 3.18092 15.99595 3.18464 14.24381.005 15.11759.54719 15.15102 9.40773.0375 9.9276-1.23333 10.54965-22.20417 10.86909-10.14314.15451-19.94596-.20452-21.78404-.79785zm73.98075-1.14808c-9.21499-3.28302-14.88413-7.61535-18.02723-13.77634-5.51314-10.80665-4.59479-23.74586 2.26386-31.8969 7.97728-9.48047 22.23096-13.25512 50.23052-13.302l15.7726-.0264-.90348-4.33334C829.34061 144.8957 822.78991 140 812.12957 140c-6.86735 0-11.48763 1.82674-17.11332 6.76616-4.37787 3.84383-4.99959 3.98942-15.4555 3.61939L768.66661 150l-.40133-6.20949c-.34406-5.32347.17775-6.86902 3.65696-10.83164 5.89974-6.71942 15.19197-10.21163 30.77273-11.56499 23.48173-2.03966 39.45805 1.6907 49.61273 11.58421 8.3903 8.17451 9.12206 12.46511 8.71567 51.10315L860.66661 218h-12.66667c-12.12067 0-12.68503-.12931-13.09273-3-.23434-1.65-.61183-3-.83888-3-.22704 0-3.93531 1.63335-8.2406 3.62967-6.75573 3.13258-9.83645 3.68405-22.49445 4.02669-11.468.31043-16.12669-.12314-21.36121-1.98804zm42.02787-21.36092l7.33334-3.64073v-13.33334h-16.8962c-16.04787 0-17.06876.1623-20.33333 3.23242-5.75611 5.41327-4.01916 13.41697 3.66785 16.90109 5.91587 2.68135 17.20192 1.32184 26.22834-3.15944zm81.18009 21.91659c-8.1586-3.02302-12.85673-7.29847-16.76443-15.25616l-3.74899-7.6345-.40822-49.77315c-.3016-36.77394.002-50.26768 1.16326-51.66667C886.56154 92.52003 890.21781 92 898.73463 92c15.94297 0 15.93197-.01383 15.93197 20.05013v15.85965l14.33334.37844 14.33333.37845v18.66666l-14.33333.37845-14.33334.37844v20.0211c0 22.43829 1.06677 26.30337 8.29085 30.03908 3.34995 1.73233 6.34048 2.01847 14.17455 1.35625 12.03464-1.0173 13.5346-.0862 13.5346 8.40177 0 10.84044-1.00811 11.37402-22.22459 11.76321-12.87114.2361-19.89806-.2012-23.26198-1.44764zm84.57229-.70028c-20.85903-7.20784-29.94286-21.42297-29.94286-46.85704 0-24.07242 7.54398-37.22247 26.05028-45.40869 12.80127-5.66261 37.31366-5.71956 50.36646-.11702 8.2971 3.56136 16.5856 11.25198 20.5428 19.0611 2.9714 5.86382 5.8074 19.40602 5.8712 28.03604.056 7.54652-1.0006 7.7619-38.0688 7.7619-32.63567 0-33.9048.0966-33.9048 2.57987 0 8.35062 5.93076 15.32442 14.8526 17.46474 9.3877 2.25206 17.0619.71987 24.1831-4.82826 5.8836-4.58386 6.173-4.65601 17.1411-4.2728l11.1565.38978.3959 5.37675c.7421 10.08049-6.6371 17.30291-21.6824 21.2217-11.4108 2.97214-37.8437 2.74245-46.96108-.40807zm41.12768-60.19038c-.9473-6.96742-4.5874-12.29722-10.1123-14.80652-12.913-5.86489-26.41927-.26015-29.841 12.38327-.73085 2.70055-.97336 5.26555-.53889 5.70002.43446.43446 9.82489.62493 20.86769.42325l20.0778-.36668zm-654.61336 59.73334c-2.29145-2.29146-2.29145-90.50855 0-92.8 1.02436-1.02436 6.24978-1.6 14.52401-1.6 13.66387 0 14.54266.41615 14.54266 6.88682 0 1.4678.45 2.46873 1 2.22429.55-.24445 5.00749-2.45589 9.90554-4.91432 6.32981-3.17705 11.83852-4.79879 19.04619-5.60709 14.30061-1.60375 14.22425-1.6661 13.76623 11.2393l-.38463 10.83766L434.60453 144c-14.78873.70111-17.69553 1.73293-25.60456 9.08873l-3.66666 3.41018v28.97483c0 15.93615-.3642 29.9239-.80932 31.08388-.66097 1.72245-3.17831 2.10905-13.73334 2.10905-8.27423 0-13.49965-.57565-14.52401-1.6z"/><path fill="#291d5a" d="M116.16973 245.2053c-1.64987-1.53709-3.56301-4.27615-4.25142-6.0868-.72062-1.89539-1.25165-32.16096-1.25165-71.33713 0-58.66375.2846-68.64477 2.06425-72.39512C114.94459 90.72127 119.40045 88 124.82528 88c3.50392 0 110.33626 64.39284 116.47773 70.20657 4.94619 4.68223 4.63567 12.87995-.66666 17.60034-7.52545 6.69951-57.51587 41.28159-60.07345 41.55726-5.69525.61386-8.36173-.19329-11.71443-3.54599-3.72979-3.72979-4.70791-10.43147-2.20504-15.10811.72056-1.34638 10.37199-8.8555 21.44764-16.68693 11.07564-7.83143 19.83977-14.53673 19.47584-14.90066-.36393-.36393-16.16537-10.17087-35.11431-21.79321l-34.45261-21.13152-.66667 57.56779c-.69622 60.11972-.86714 61.79732-6.60956 64.87057-4.2769 2.28892-11.30276 1.59821-14.55403-1.43081zm100.18785-11.10901c-4.75189-3.99845-6.40739-9.3716-4.46307-14.48555.96807-2.54619 11.32952-10.18694 37.47598-27.63555 19.87589-13.264 35.94858-24.64628 35.71707-25.29396-.2315-.64768-15.72091-11.13464-34.42091-23.30435s-35.18636-23.31106-36.63636-24.75855c-4.0564-4.04937-3.56551-12.35585 1-16.92136 7.30379-7.30379 8.84555-6.62925 58.30302 25.5083 24.56667 15.96346 45.71667 30.23925 47 31.72398 1.33423 1.54361 2.33333 4.85668 2.33333 7.73742 0 2.86557-1.00612 6.21909-2.33333 7.77722-4.15134 4.87365-91.22261 61.75989-95.62428 62.47418-3.20883.52073-5.16434-.14-8.35145-2.82178zm270.77968-16.84406c-10.42274-3.30381-20.31866-11.95061-25.27809-22.08731-5.24258-10.71545-6.08338-29.55893-1.92919-43.23571 2.50612-8.25085 4.07129-10.81051 10.60646-17.34568 9.67973-9.67974 20.03198-13.38917 37.62242-13.4809 19.95129-.10406 34.93864 6.55933 43.47186 19.32762 5.12559 7.66945 6.79094 13.07925 7.89143 25.63487C560.79646 180.60396 562.42686 180 521.90473 180c-33.1945 0-33.90476.0568-33.90476 2.70949 0 4.50985 3.46312 11.34133 7.2656 14.33235 8.06144 6.34113 24.17638 5.44151 32.8869-1.83592 5.46007-4.56176 5.73971-4.63449 16.3679-4.25682l10.81293.38423.39583 5.37675c.76393 10.37682-8.98028 18.96067-24.91115 21.94467-12.10123 2.26667-34.35999 1.55198-43.68072-1.40252zm41.60848-60.9189c-1.77823-10.05403-9.75544-16.32747-20.76658-16.33126-10.94169-.004-19.97919 7.97733-19.97919 17.64379v3.68747h41.6301zm67.266 62.27019c-14.94628-3.09726-24.47762-11.88688-23.74094-21.89344l.39583-5.37675 10.89413-.38554c10.52034-.37232 11.05528-.24407 15.59047 3.73789 5.41079 4.75073 10.99238 6.65075 19.50659 6.64022 8.62889-.0107 15.72383-2.31813 18.05166-5.87085 4.33802-6.62065.96029-8.71635-25.05628-15.54608-11.09888-2.91362-22.69807-6.7733-25.77598-8.57708-17.78401-10.42212-19.81444-30.59974-4.27212-42.45445 6.72435-5.12891 18.21903-7.66328 35.16132-7.75243 29.3271-.15432 45.35406 6.83397 47.99828 20.92885 1.33848 7.13473-.74409 8.61281-12.13519 8.61281-9.11416 0-10.04803-.28193-15.20464-4.59016-11.18397-9.34394-36.09158-7.55642-36.09158 2.59016 0 4.81766 4.14803 6.85603 24.25954 11.9213 27.44935 6.91338 35.22602 11.06105 39.8563 21.25725 6.49883 14.31085.0706 28.08649-16.0472 34.38894-6.21796 2.43138-10.60116 2.95162-27.40197 3.25232-11 .19687-22.6947-.20046-25.98822-.88296zm109.75216-.78747c-7.63613-2.70573-15.72589-11.79087-18.34136-20.5981-1.72679-5.81473-2.08925-15.31271-2.08925-54.74637C685.33329 87.37673 683.9898 92 699.99995 92c14.81629 0 14.66667-.1977 14.66667 19.38025V128h13.73333c8.9037 0 14.29601.56268 15.33333 1.6 2.07604 2.07603 2.07604 14.72397 0 16.8-1.03911 1.03911-6.45622 1.6-15.453 1.6h-13.85299l.453 20.33333c.38428 17.24881.8455 20.98212 3.04042 24.61016 3.65684 6.04447 8.33949 7.59487 19.96952 6.61177 11.08809-.93729 14.1248.76151 14.09151 7.88306-.0348 7.44907-1.38538 9.78869-6.46507 11.19964-7.34614 2.04049-33.18205 1.50632-39.75277-.82191zm78.90271.3857C768.324 212.88163 760.94872 204.16823 760.7958 190c-.11065-10.25157 3.96508-17.85056 12.46598-23.24217 9.01737-5.71917 14.60961-6.8577 37.8504-7.70598l21.11224-.77059-.89725-4.78275c-.49349-2.63051-1.49229-5.89459-2.21956-7.25351-2.8591-5.34227-17.43907-8.08073-25.8987-4.86438-1.99721.75934-5.68391 3.18283-8.19266 5.38554-4.37787 3.84383-4.99959 3.98942-15.4555 3.61939L768.66661 150l-.40904-4.91981c-1.23329-14.83377 14.89142-23.65915 43.74237-23.94109 27.01376-.26399 43.24162 8.31718 47.97863 25.37073 1.9895 7.16234 1.77613 68.53541-.2453 70.55684-2.13768 2.13768-21.32897 2.13768-23.46666 0-.88-.88-1.6-2.64848-1.6-3.92995 0-2.02676-1.17113-1.77519-9 1.93333-8.02403 3.80097-10.44588 4.29607-22.33333 4.56559-8.15686.18494-15.40392-.37175-18.66667-1.43389zm40.13055-21.42334l7.20278-3.29755v-14.81419h-16.06621c-21.01314 0-25.26712 1.99955-25.26712 11.87663 0 3.5415 3.75307 8.20124 8 9.93266 4.09967 1.67138 19.01258-.43884 26.13055-3.69755zm78.44163 20.12517c-3.71864-1.77444-8.60692-5.46548-10.86286-8.20232-7.6681-9.30274-8.37599-14.97155-8.37599-67.07515 0-54.3703-1.51397-49.62611 15.83674-49.62611 14.28119 0 14.82992.77402 14.82992 20.91823v14.99155l14.33334.37844 14.33333.37845.40323 7.77916C944.30713 147.45461 943.55662 148 927.83668 148H914.6666v42.93333l4.72711 4.72711 4.72711 4.72711 11.24456-.79354c13.33634-.94115 15.30122.2034 15.30122 8.91306 0 10.11906-1.15841 10.70304-22.20276 11.19293-17.25723.40173-18.90576.21897-25.22505-2.79642zm87.06367.49281c-7.51472-2.4018-15.19324-7.26393-20.05027-12.69609-10.87945-12.1677-13.84975-40.07727-6.16612-57.93834 3.47895-8.08704 13.51086-17.82236 22.23526-21.5779 13.21527-5.68869 37.07467-5.43104 50.11987.54123 15.1788 6.9491 22.4626 17.61697 25.0147 36.63671 1.2864 9.58744 1.1969 11.46052-.6855 14.33333L1058.6051 180h-68.98837l1.20844 5.37839c2.17334 9.67285 6.6612 13.76175 16.90183 15.39929 9.097 1.45466 16.9292-.42283 23.0312-5.52086 5.1447-4.29829 6.1049-4.59015 15.1012-4.59015 10.3566 0 12.8072 1.2243 12.8072 6.39849 0 9.52816-9.1881 17.68079-23.8034 21.12084-11.229 2.643-35.14686 2.21918-44.56074-.78961zM1031.3071 157c-2.29-10.96805-9.6104-16.99586-20.6405-16.99586-11.03013 0-18.35055 6.02781-20.64049 16.99586l-.90473 4.33333h43.09042zm-655.26021 59.08766c-.86929-1.62429-1.38025-18.43873-1.38025-45.42099 0-26.98227.51096-43.79671 1.38025-45.42099 1.21213-2.2649 2.8848-2.57901 13.73333-2.57901 13.46606 0 15.55309.92295 15.55309 6.87811v3.67811l9.92001-5.35079c7.67329-4.13892 12.12746-5.5954 19.66666-6.43084 13.89802-1.54007 14.61094-.95324 14.1347 11.63493l-.38804 10.25714-14 .66667c-14.879.70852-17.94083 1.73994-25 8.42155l-4.33333 4.10156v29.47178c0 21.14471-.45207 29.92385-1.6 31.07178-1.01419 1.01418-6.12291 1.6-13.95309 1.6-10.84853 0-12.5212-.31412-13.73333-2.57901z"/></g></svg>