<svg id="Ricardo" xmlns="http://www.w3.org/2000/svg" viewBox="0 0 665.96 143"><defs><style>.cls-1{fill:#ef7310;}</style></defs><title>Ricardo_Logo_RGB</title><path class="cls-1" d="M178.85,204.1V119.5c0-4.5,1.4-7.7,4.1-9.5a18.71,18.71,0,0,1,10.3-2.6,23.23,23.23,0,0,1,13.2,4.1v92.6Z" transform="translate(-54.54 -63.3)"/><path class="cls-1" d="M352.48,160.36l-.14.08a13.78,13.78,0,0,0-7.8,12.5c0,8.1,6.4,14.6,21,15l1,0a109.68,109.68,0,0,0,18.67-1.12l-.1-16.27v-.83c0-1-2.5-5.5-8.1-8.4C368,156.78,357.26,157.91,352.48,160.36ZM382.33,106c17.2,4.9,30.11,16.17,30.11,40.67v57.9c0-.1-18.72,1.27-37.34,1.49l-1.68,0c-18.2.13-33.39-1.28-43.68-9.51a29.38,29.38,0,0,1-11.3-23.11v-.29c-.1-11.2,4.6-19.4,14.2-25.4,16.9-10.5,43.6-7.8,52.6,0V142c0-6.4-4.5-17.8-25.8-17.8a39.45,39.45,0,0,0-9.43,1.17,66.72,66.72,0,0,0-17.23,6.1l-.23-.23a15.69,15.69,0,0,1-4.41-10.74,11.78,11.78,0,0,1,3.08-7.79C340.1,104.41,360.94,99.91,382.33,106Z" transform="translate(-54.54 -63.3)"/><path class="cls-1" d="M552.3,126.9c-6.5,0-12.12,2.13-16.3,6.87l-.2.23c-4.5,5.1-6.5,10.5-6.5,20.7,0,11.3,5.5,19.1,7.9,21.6,7.4,7.6,16.4,7.8,21.4,7.8h.79a77.27,77.27,0,0,0,13-1l.07,0V140.4l-.06-.19C571.88,138.58,567.36,126.9,552.3,126.9Zm34.5-56.1a23.92,23.92,0,0,1,13.07,3.88l0,0-.1,129.8-3.51.25c-6.62.45-21.34,1.35-33.19,1.35-20.3,0-35.7-3.9-45.9-13.7C506.41,182,501.89,170.14,501.8,153v-.52c0-8.51,2.64-23.3,13.95-34.95l.35-.35a43.14,43.14,0,0,1,30.9-13c15.66,0,23.54,8.1,25.18,9.94l.32.36V82.9c0-4.5,1.4-7.7,4.1-9.5A18.35,18.35,0,0,1,586.8,70.8Z" transform="translate(-54.54 -63.3)"/><path class="cls-1" d="M474.1,104.3a39.73,39.73,0,0,1,15.4,2.6l.3.14c2.6,1.18,7.87,4.13,8.47,10.31l0,.25a14.62,14.62,0,0,1-4.64,12.6q-10.12-4.72-24.74-2.47l-.48.07h0A22.69,22.69,0,0,0,459.3,131v73.6H431.6V114.3l.22-.14C433.76,113,448.52,104.3,474.1,104.3Z" transform="translate(-54.54 -63.3)"/><path class="cls-1" d="M667.7,125.7a23.34,23.34,0,0,0-10.6,2.3,24.3,24.3,0,0,0-7.8,6.1,26,26,0,0,0-4.8,9.2,42.78,42.78,0,0,0-1.6,11.6,39.2,39.2,0,0,0,1.6,11.6,26,26,0,0,0,4.8,9.2,21.57,21.57,0,0,0,7.47,6l.33.15a24,24,0,0,0,10.6,2.3A23.6,23.6,0,0,0,678,181.94l.27-.14a24.3,24.3,0,0,0,7.8-6.1,26,26,0,0,0,4.8-9.2,39.2,39.2,0,0,0,1.6-11.6,39.67,39.67,0,0,0-1.6-11.6,26,26,0,0,0-4.8-9.2,21.45,21.45,0,0,0-7.8-6.1A22.65,22.65,0,0,0,667.7,125.7Zm.1-22a58.37,58.37,0,0,1,21.8,4,53.19,53.19,0,0,1,16.6,10.9,44.91,44.91,0,0,1,10.7,16.3,56,56,0,0,1,3.6,20.1,57.39,57.39,0,0,1-3.6,20.1,48.46,48.46,0,0,1-27.3,27.2,61.41,61.41,0,0,1-43.6,0,53.49,53.49,0,0,1-16.24-10.54l-.36-.36a44.08,44.08,0,0,1-10.7-16.3,53.54,53.54,0,0,1-3.6-20.1,57.39,57.39,0,0,1,3.6-20.1,48.61,48.61,0,0,1,10.7-16.3,49.28,49.28,0,0,1,16.14-10.71l.46-.19A56.44,56.44,0,0,1,667.8,103.7Z" transform="translate(-54.54 -63.3)"/><path class="cls-1" d="M253.19,107.7c16.63-5.84,33.46-3.06,39.43-1.06l.17.06c7.9,2.7,12.7,6,15.2,10,3.6,5.9,1.6,13.2-2.1,17.3a23,23,0,0,1-2.37,2.14l-.08-.06q-9.46-6.72-18.63-8.4a40.3,40.3,0,0,0-8.72-.78c-9.1.1-15,3.2-19.2,7.3-4.9,4.8-7.4,11.9-7.4,20.9,0,10.9,4,17,7.3,20.9l.23.27c2.38,2.65,8.31,7.23,18.07,7.23h.55a36.16,36.16,0,0,0,15.75-3.6,29.24,29.24,0,0,0,7.23-4.73l.07-.07,12.6,18.4-.17.16a44.57,44.57,0,0,1-13.42,7.77l-2.56.89a67,67,0,0,1-22,3.68h-.41c-6.9,0-24.3-1.6-35.8-13.1a51.82,51.82,0,0,1-11-16,55.05,55.05,0,0,1-4-21.8,55,55,0,0,1,4-21.3,49.08,49.08,0,0,1,11-16A45.69,45.69,0,0,1,253.19,107.7Z" transform="translate(-54.54 -63.3)"/><circle class="cls-1" cx="138.1" cy="17.3" r="17.3"/><path class="cls-1" d="M162.44,203.06c-.06-11.69-1.45-37.83-22.69-53.06,4.2-3,19.7-11.15,18.8-34.75-1.5-30.2-27.3-43.15-60.61-41.55-29.3,1.4-43.4,10.2-43.4,11.1V204h27.7l.2-48.6h.72a107.83,107.83,0,0,1,20.38,1.31c5.1.9,10.2,2.1,15.1,5.6,15.1,10.78,16.17,29.73,16.2,41.12v.68h27.6Zm-43.6-69.26c-9.21,3.75-28.84,1.87-35.71,1l-.79-.1-.1-34.9.23-.13c4.85-2.71,13.51-4,22.37-4,24.81,0,26.41,16.5,26.41,20C131.35,122.2,129,129.7,118.84,133.8Z" transform="translate(-54.54 -63.3)"/></svg>