<svg xmlns="http://www.w3.org/2000/svg" xmlns:xlink="http://www.w3.org/1999/xlink" width="140" height="45" version="1.1" id="katman_1" x="0px" y="0px" viewBox="0 0 412 132.1" style="enable-background:new 0 0 412 132.1;" xml:space="preserve">
<style type="text/css">
	.st0{fill-rule:evenodd;clip-rule:evenodd;}
</style>
<path class="st0" d="M194.5,95.7V65.6h4.8l13.4,30.1H244l-18.3-35.3c4.5-2.3,8.3-5.9,10.9-10.2c2.6-4.6,3.9-9.7,3.8-15v-4.4  c0-3.9-0.6-7.8-1.7-11.5c-2.3-7.3-7.9-13.2-15.1-15.8c-4.6-1.6-9.4-2.4-14.3-2.3h-44.4v94.4H194.5z M194.5,23.3h8.2  c3.4,0,5.8,0.6,7.3,1.9c1.5,1.3,2.3,3.5,2.3,6.7v2.3c0,6.1-3,9.1-9.1,9.1h-8.6V23.3z M247.1,1.3v94.4h28.1V49.3l26.2,46.4h25.7V1.3  H299v46.4L272.8,1.3L247.1,1.3L247.1,1.3z M384,40.1v20l0,0.2v13.1c-0.8,0.2-1.5,0.4-2.3,0.5c-0.9,0.1-1.7,0.2-2.6,0.2  c-2.5,0-4.9-0.3-7.3-0.9c-2-0.6-3.7-1.8-5-3.4c-1.5-2-2.5-4.3-3-6.8c-0.7-3.6-1.1-7.4-1-11.1v-7.4c-0.1-3.6,0.3-7.2,1.3-10.7  c0.7-2.5,2-4.7,3.8-6.5c1.9-1.6,4.2-2.7,6.6-3.2c3.2-0.6,6.4-0.9,9.6-0.9c3.9,0,7.7,0.3,11.5,0.9c3.5,0.6,6.6,1.2,9.5,1.9l4.5-21.9  c-4.2-1.2-8.5-2.1-12.9-2.8c-5.6-1-11.3-1.4-17-1.4c-15.8,0-27.7,3.6-35.7,10.7c-8,7.2-11.9,18.4-11.9,33.8v9.3  c-0.1,6.4,0.7,12.7,2.3,18.8c1.4,5.1,4,9.7,7.6,13.5c3.9,3.8,8.6,6.6,13.8,8.2c5.7,1.8,12.7,2.7,21,2.7c6.1,0,12.2-0.5,18.2-1.5  c5.4-0.8,10.7-2.1,15.8-3.8v-52L384,40.1z M0.8,108.5l-0.6,4.8h6.3v18.1h5.9v-18.1h6l0.6-4.8L0.8,108.5L0.8,108.5z M44.3,108.5v23  h15.4l0.6-4.7H50.2v-4.5h8.5l0.6-4.7h-9.1v-4.4h9.5l0.6-4.7L44.3,108.5L44.3,108.5z M98,131.7c0.9-0.1,1.8-0.2,2.7-0.5l0.9-4.5  c-0.9,0.1-1.8,0.3-2.5,0.3s-1.5,0.1-2.2,0.1c-0.8,0-1.7-0.1-2.5-0.2c-0.6-0.1-1.1-0.4-1.5-0.9c-0.4-0.5-0.7-1.1-0.8-1.8  c-0.2-1-0.2-2-0.2-3v-2.1c0-1,0.1-2,0.3-3c0.1-0.7,0.4-1.3,0.9-1.9c0.4-0.5,0.9-0.8,1.5-1c0.7-0.2,1.5-0.3,2.3-0.3  c0.7,0,1.4,0,2.1,0.2c0.6,0.1,1.2,0.2,1.7,0.4l1-4.4c-0.8-0.3-1.6-0.5-2.4-0.6c-1.1-0.2-2.2-0.3-3.3-0.3c-1.7-0.1-3.4,0.2-4.9,0.9  c-1.2,0.5-2.3,1.3-3.1,2.3c-0.8,1-1.4,2.2-1.7,3.4c-0.3,1.4-0.5,2.8-0.5,4.2v2.3c0,1.6,0.2,3.1,0.5,4.6c0.3,1.2,0.9,2.3,1.7,3.3  c0.8,0.9,1.9,1.5,3,1.9c1.4,0.5,3,0.7,4.5,0.6C96.2,131.8,97.1,131.8,98,131.7L98,131.7z M140.2,108.5v8.4h-6.6v-8.4h-6v23h6v-9.4  h6.6v9.4h6v-23H140.2z M173.1,108.5v23h5.5v-12.9l7.8,12.9h5.1v-23H186v12.9l-7.8-12.9H173.1z M226.2,127c-0.5-0.1-0.9-0.4-1.2-0.8  c-0.4-0.5-0.6-1.1-0.8-1.7c-0.2-1-0.3-2-0.3-3v-2.9c0-1,0.1-2,0.3-2.9c0.1-0.6,0.4-1.2,0.8-1.7c0.3-0.4,0.7-0.7,1.2-0.9  c0.5-0.2,1-0.2,1.6-0.2c0.5,0,1.1,0.1,1.6,0.2c0.5,0.1,0.9,0.4,1.2,0.8c0.4,0.5,0.6,1.1,0.7,1.7c0.2,1,0.3,2,0.2,3v2.9  c0,1-0.1,2-0.3,3c-0.1,0.6-0.4,1.2-0.8,1.7c-0.3,0.4-0.7,0.7-1.2,0.8c-0.5,0.1-1,0.2-1.5,0.2C227.2,127.2,226.7,127.1,226.2,127  L226.2,127z M223,108.8c-1.2,0.5-2.2,1.2-3,2.2c-0.8,1-1.3,2.1-1.6,3.4c-0.3,1.4-0.5,2.9-0.5,4.4v2.6c0,1.4,0.1,2.8,0.4,4.1  c0.2,1.2,0.8,2.4,1.5,3.4c0.8,1,1.8,1.8,3,2.3c1.6,0.6,3.2,0.9,4.9,0.9c1.6,0.1,3.3-0.2,4.8-0.8c1.2-0.5,2.2-1.2,3-2.2  c0.8-1,1.3-2.1,1.6-3.4c0.3-1.4,0.5-2.9,0.5-4.4v-2.6c0-1.4-0.1-2.8-0.4-4.2c-0.2-1.2-0.7-2.4-1.5-3.4c-0.8-1-1.8-1.8-3-2.3  c-1.6-0.6-3.2-0.9-4.9-0.8C226.1,107.9,224.5,108.2,223,108.8L223,108.8z M264,108.5v23h14.8l0.6-4.8h-9.4v-18.1H264L264,108.5z   M312,127c-0.5-0.1-0.9-0.4-1.2-0.8c-0.4-0.5-0.6-1.1-0.8-1.7c-0.2-1-0.3-2-0.3-3v-2.9c0-1,0.1-2,0.3-2.9c0.1-0.6,0.4-1.2,0.8-1.7  c0.3-0.4,0.7-0.7,1.2-0.9c0.5-0.2,1-0.2,1.6-0.2c0.5,0,1.1,0.1,1.6,0.2c0.5,0.1,0.9,0.4,1.2,0.8c0.4,0.5,0.6,1.1,0.7,1.7  c0.2,1,0.3,2,0.2,3v2.9c0,1-0.1,2-0.3,3c-0.1,0.6-0.4,1.2-0.8,1.7c-0.3,0.4-0.7,0.7-1.2,0.8c-0.5,0.1-1,0.2-1.4,0.2  C313,127.2,312.5,127.1,312,127L312,127z M308.8,108.8c-1.2,0.5-2.2,1.2-3,2.2c-0.8,1-1.3,2.1-1.6,3.4c-0.3,1.4-0.5,2.9-0.5,4.4v2.6  c0,1.4,0.1,2.8,0.4,4.1c0.2,1.2,0.8,2.4,1.5,3.4c0.8,1,1.8,1.8,3,2.3c1.6,0.6,3.2,0.9,4.9,0.9c1.6,0.1,3.3-0.2,4.8-0.8  c1.2-0.5,2.2-1.2,3-2.2c0.8-1,1.3-2.1,1.6-3.4c0.3-1.4,0.5-2.9,0.4-4.4v-2.6c0-1.4-0.1-2.8-0.4-4.2c-0.2-1.2-0.7-2.4-1.5-3.4  c-0.8-1-1.8-1.8-3-2.3c-1.6-0.6-3.2-0.9-4.9-0.8C311.9,107.9,310.3,108.2,308.8,108.8L308.8,108.8z M363.7,113.2  c0.7,0.1,1.4,0.3,2.1,0.5l1-4.4c-2.1-0.7-4.2-1-6.3-1c-1.8-0.1-3.6,0.2-5.3,0.9c-1.3,0.5-2.5,1.3-3.4,2.3c-0.9,1-1.5,2.2-1.8,3.4  c-0.4,1.4-0.5,2.8-0.5,4.2v2.3c0,1.4,0.1,2.9,0.5,4.3c0.3,1.2,0.8,2.3,1.6,3.3c0.8,0.9,1.8,1.7,3,2.1c1.5,0.5,3.1,0.8,4.7,0.8  c1.5,0,3-0.1,4.5-0.3c1.2-0.2,2.4-0.4,3.5-0.8v-12.1h-7.4l-0.5,4.3h2.7v4.2c-0.4,0-0.7,0.1-0.9,0.1s-0.6,0-0.9,0  c-0.7,0-1.4-0.1-2.2-0.3c-0.6-0.2-1.1-0.5-1.5-0.9c-0.4-0.5-0.7-1.2-0.8-1.9c-0.2-1-0.3-2-0.3-3v-2c0-1,0.1-2,0.3-3  c0.2-0.7,0.6-1.3,1.1-1.9c0.5-0.5,1.1-0.8,1.8-1c0.8-0.2,1.7-0.3,2.6-0.3C362,113,362.9,113,363.7,113.2L363.7,113.2z M397.7,108.5  h-6.6l7.4,14v8.9h6v-8.9l7.5-14h-6.2l-4.1,9.1L397.7,108.5z M0,1.1h155v95H0V1.1z"/>
</svg>