<svg width="320" height="88" viewBox="0 0 320 88" fill="none" xmlns="http://www.w3.org/2000/svg">
<g clip-path="url(#clip0_105_2)">
<path d="M115.42 62.7917L105.118 51.1802C111.579 49.8702 113.723 45.1562 113.723 40.462C113.723 34.557 109.495 29.1582 101.476 29.1582H85.2897V63.2284H91.7107V51.8551H97.8836L107.798 63.2284H115.43V62.7917H115.42ZM101.466 35.1326C105.496 35.1326 107.302 37.8618 107.302 40.6009C107.302 43.34 105.555 46.0692 101.466 46.0692H91.7008V35.1326H101.466ZM134.127 28.523C122.367 28.523 116.631 37.5145 116.631 46.4563C116.631 55.3981 122.168 64.0025 134.127 64.0025C146.086 64.0025 151.475 55.1996 151.574 46.4066C151.673 37.5145 145.838 28.523 134.127 28.523ZM134.127 34.3585C142.146 34.3585 145.352 40.7796 145.262 46.5059C145.163 52.0933 142.156 58.1273 134.127 58.1273C126.098 58.1273 123.091 52.1429 122.952 46.5555C122.804 40.8192 126.108 34.3585 134.127 34.3585ZM171.731 28.523C159.97 28.523 154.234 37.5145 154.234 46.4563C154.234 55.3981 159.772 64.0025 171.731 64.0025C183.689 64.0025 189.078 55.1996 189.178 46.4066C189.277 37.5145 183.441 28.523 171.731 28.523ZM171.731 34.3585C179.749 34.3585 182.955 40.7796 182.856 46.5059C182.756 52.0933 179.749 58.1273 171.731 58.1273C163.712 58.1273 160.695 52.1528 160.556 46.5555C160.407 40.8192 163.712 34.3585 171.731 34.3585ZM237.757 28.523C225.997 28.523 220.261 37.5145 220.261 46.4563C220.261 55.3981 225.798 64.0025 237.757 64.0025C249.716 64.0025 255.115 55.1996 255.204 46.4066C255.303 37.5145 249.468 28.523 237.757 28.523ZM237.757 34.3585C245.776 34.3585 248.981 40.7796 248.892 46.5059C248.793 52.0933 245.786 58.1273 237.757 58.1273C229.728 58.1273 226.721 52.1429 226.582 46.5555C226.433 40.8192 229.738 34.3585 237.757 34.3585ZM282.357 29.2574V48.7488C282.357 54.5744 279.34 58.1273 274.04 58.1273C268.741 58.1273 265.247 54.8721 265.247 48.7488V29.2574H258.886V48.7488C258.886 59.0006 265.833 63.9628 274.001 63.9628C282.168 63.9628 288.728 58.8121 288.728 48.7488V29.2574H282.357ZM192.433 63.2284H198.844V48.0342L213.234 63.2284H221.154V62.8413L204.769 45.6623L219.883 29.3567V29.1582H211.914L198.834 43.737V29.1582H192.423V63.2284H192.433ZM302.791 63.2284H309.202V34.9937H319.99V29.1582H291.994V34.9937H302.781V63.2284H302.791Z" fill="#361A8D"/>
<path fill-rule="evenodd" clip-rule="evenodd" d="M47.21 0.2883C46.5054 1.45937 45.7313 2.65029 44.7289 3.49386C42.6845 5.23061 39.9156 5.34971 37.3552 5.22069H37.2361C28.7111 5.22069 21.7442 12.1876 21.7442 20.7126V27.5703L21.4068 27.868C17.5462 31.2423 16.0278 35.9663 16.0278 40.9979C16.0278 46.5654 18.1615 52.53 21.2381 57.4623H11.5321C8.53492 57.4623 6.38134 55.7951 5.56755 53.2048H0V53.9094C0 60.5984 5.39883 63.546 11.2542 63.546H23.6695L21.0991 72.9939C20.4441 75.4055 20.3647 78.0851 21.5556 80.3578C22.4389 82.0449 23.9573 83.2954 25.8132 83.7618C27.1232 84.0893 28.4828 83.9901 29.7432 83.4939L30.5272 83.1763L30.954 83.9107C31.1425 84.2382 31.351 84.5458 31.5891 84.8436C32.9785 86.62 35.0329 87.7216 37.3055 87.7216C39.5782 87.7216 41.6325 86.62 43.022 84.8436C43.2502 84.5458 43.4586 84.2382 43.6472 83.9206L44.0739 83.1862L44.858 83.5038C46.0787 83.9901 47.4085 84.0893 48.6888 83.7717C50.5347 83.3152 52.0332 82.0648 52.9066 80.3875C54.0876 78.1149 53.9983 75.4254 53.3433 73.0038L50.7729 63.5559H63.1981C69.0535 63.5559 74.4523 60.6084 74.4523 53.9194V53.2147H68.8848C68.071 55.805 65.9174 57.4723 62.9202 57.4723H53.2242C56.3007 52.5399 58.4344 46.5853 58.4344 41.0078C58.4344 35.9762 56.916 31.2522 53.0555 27.8779L52.9264 27.7688L60.5185 22.8562C59.2979 19.5117 54.2067 15.0358 51.3584 13.567C50.9416 12.6937 50.4354 11.8898 49.8697 11.1852L49.5125 10.7485L49.711 10.2226C50.753 7.46359 48.8972 3.12666 47.1803 0.298224" fill="#361A8D"/>
<path fill-rule="evenodd" clip-rule="evenodd" d="M48.2223 63.536L50.9614 73.639C53.1547 81.7273 45.374 84.3771 42.5555 77.5294C43.0716 87.7812 31.5494 87.7812 32.0655 77.5294C29.247 84.3771 21.3175 81.7273 23.5107 73.639L26.2499 63.536H27.7683C31.083 63.536 33.6038 65.3224 34.4076 68.6173H40.0744C40.8684 65.3224 43.3991 63.536 46.7138 63.536H48.2223ZM50.2568 28.8108C53.7799 31.2621 55.9732 35.1822 55.9732 40.988C55.9732 45.4241 54.4349 50.3069 52.0432 54.6041C51.4279 54.1873 50.5545 54.1873 49.3338 53.9988C48.6193 53.8896 48.0635 53.2445 46.8031 53.2247C45.5427 53.2048 44.9374 53.9392 44.2724 54.0186C42.8433 54.1973 42.0097 54.0782 41.3745 54.6736C40.9478 55.0805 40.6798 55.8348 40.6203 56.4203C40.5905 56.7677 40.5607 57.1349 40.5508 57.5219C40.531 57.8693 40.531 58.2265 40.531 58.5838C39.479 59.209 38.5759 60.1618 37.8018 61.6107L37.246 62.6528L36.6902 61.6107C35.9062 60.1519 35.0031 59.1991 33.9611 58.5739C33.9611 58.2166 33.9611 57.8693 33.9412 57.5318C33.9214 57.1448 33.9015 56.7776 33.8717 56.4302C33.8122 55.8447 33.5542 55.0904 33.1175 54.6835C32.4823 54.0782 31.6487 54.2072 30.2196 54.0285C29.5547 53.9491 28.9493 53.2147 27.6889 53.2346C26.4285 53.2544 25.8727 53.8995 25.1582 54.0087C23.9375 54.1973 23.0641 54.1973 22.4488 54.6141C20.0571 50.3168 18.5188 45.4341 18.5188 40.9979C18.5188 35.1922 20.7121 31.2621 24.2352 28.8207C25.3467 28.136 26.4483 27.4413 27.5599 26.7565C28.3737 26.2106 28.4729 25.6847 27.1728 25.7938L24.2352 26.0419V20.7126C24.2352 13.5571 30.0906 7.70178 37.246 7.70178C37.246 7.70178 45.3641 8.10868 46.9321 4.53592C48.4307 7.4239 47.6467 9.83551 46.1184 11.2249C47.2696 11.741 48.3414 13.0113 49.0956 14.5496C46.0787 18.5689 46.0588 25.1984 50.2469 28.8207L50.2568 28.8108Z" fill="#9857FF"/>
<path fill-rule="evenodd" clip-rule="evenodd" d="M22.4389 54.6141C20.0471 50.3168 18.5089 45.4341 18.5089 40.9979C18.5089 35.1922 20.7021 31.2621 24.2253 28.8207C25.3368 28.136 26.4384 27.4413 27.5499 26.7565C28.3637 26.2106 28.463 25.6847 27.1629 25.7938L24.2253 26.0419V20.7126C24.2253 16.1573 26.5972 12.138 30.16 9.80574C25.3864 15.3634 28.2049 24.6426 32.919 26.9649C21.2778 34.1203 24.8604 44.2531 30.0906 54.0087C29.4653 53.8698 28.8599 53.2147 27.669 53.2346C26.4086 53.2544 25.8529 53.8995 25.1383 54.0087C23.9176 54.1973 23.0443 54.1973 22.429 54.6141M46.9222 4.53592C48.4208 7.4239 47.6368 9.83551 46.1084 11.2249C45.3641 10.9073 44.8977 10.7684 44.2327 10.6096C44.064 10.5699 43.8953 10.3218 44.2029 10.1233C45.9397 8.99194 47.0215 7.32466 46.9123 4.53592H46.9222ZM37.6926 85.2009C34.8245 85.449 31.7975 82.8885 32.0655 77.5294C29.247 84.3771 21.3175 81.7273 23.5107 73.639L26.2498 63.536H27.7683C31.083 63.536 33.6038 65.3224 34.4076 68.6173H39.9653V68.6669C37.2956 74.1451 37.6926 79.3554 37.6926 85.2009Z" fill="#793FEA"/>
<path fill-rule="evenodd" clip-rule="evenodd" d="M37.2361 32.5721C43.8159 32.5721 49.1552 37.5442 49.1552 45.97C49.1552 48.4709 48.53 51.0016 47.5276 53.3239C47.3093 53.2743 47.0711 53.2346 46.7932 53.2346C45.5328 53.2147 44.9274 53.9491 44.2625 54.0285C42.8334 54.2072 41.9998 54.0881 41.3646 54.6835C40.9378 55.0904 40.6699 55.8447 40.6103 56.4302C40.5806 56.7776 40.5508 57.1448 40.5409 57.5318C40.521 57.8792 40.521 58.2365 40.521 58.5937C39.469 59.219 38.5659 60.1717 37.7918 61.6206L37.2361 62.6627L36.6803 61.6206C35.8963 60.1618 34.9932 59.209 33.9511 58.5838C33.9511 58.2265 33.9511 57.8792 33.9313 57.5417C33.9114 57.1547 33.8916 56.7875 33.8618 56.4402C33.8023 55.8546 33.5442 55.1004 33.1076 54.6935C32.4724 54.0881 31.6388 54.2171 30.2096 54.0385C29.5447 53.9591 28.9393 53.2247 27.6789 53.2445C27.4011 53.2445 27.1629 53.2842 26.9445 53.3338C25.9422 51.0215 25.317 48.4908 25.317 45.9799C25.317 37.5542 30.6562 32.5821 37.2361 32.5821" fill="white"/>
<path d="M54.5243 18.5292C53.2142 17.3482 51.7851 16.326 50.3263 15.5321C49.175 17.6261 48.7681 19.601 48.8178 21.3378C48.8773 23.4616 49.6316 25.2083 50.5446 26.3099L57.7397 22.1318C56.8267 20.8317 55.735 19.611 54.5243 18.5292Z" fill="#F4A721"/>
<path d="M49.0758 23.2532C49.3835 24.5136 49.9293 25.5656 50.5446 26.3198L57.7397 22.1417C54.9312 22.9455 51.9737 23.3227 49.0758 23.2532Z" fill="#E57C35"/>
<path d="M56.1518 21.1393C54.8418 19.4819 53.3135 18.2613 51.1798 16.9413C50.8125 17.4375 50.6141 18.033 50.485 18.688C52.3707 19.5117 54.2662 20.3255 56.1518 21.1492" fill="#FFCD91"/>
<path fill-rule="evenodd" clip-rule="evenodd" d="M40.005 15.4825C40.8287 15.4825 41.5035 16.1474 41.5035 16.981C41.5035 17.8147 40.8386 18.4796 40.005 18.4796C39.1713 18.4796 38.5064 17.8147 38.5064 16.981C38.5064 16.1474 39.1713 15.4825 40.005 15.4825Z" fill="white"/>
<path d="M28.4332 55.5866C28.2347 55.408 27.9668 55.2889 27.6889 55.2889C27.411 55.2889 27.153 55.3981 26.9644 55.5767C26.7659 55.7554 26.6369 56.0035 26.627 56.2714C26.6171 56.6783 26.6071 57.0951 26.5972 57.4921C26.5972 57.899 26.5873 58.3059 26.5873 58.7128C26.5873 59.1197 26.5873 59.5266 26.5873 59.9335C26.5873 60.3305 26.5972 60.7374 26.6171 61.1542C26.6171 61.4221 26.756 61.6703 26.9545 61.8489C27.153 62.0275 27.4209 62.1466 27.6988 62.1466C27.9767 62.1466 28.2446 62.0275 28.4431 61.8489C28.6416 61.6703 28.7706 61.4221 28.7806 61.1542C28.7905 60.7374 28.8103 60.3305 28.8103 59.9434C28.8103 59.5365 28.8203 59.1296 28.8203 58.7327C28.8203 58.3258 28.8203 57.9189 28.8203 57.512C28.8203 57.115 28.8004 56.7081 28.7905 56.3012C28.7905 56.0332 28.6515 55.7851 28.4431 55.6065M24.5429 55.6859C24.5429 55.6859 24.5032 55.6859 24.4734 55.6859C24.1757 55.7057 23.8879 55.8546 23.6497 56.0729C23.4115 56.2913 23.2527 56.5791 23.2229 56.8768C23.1932 57.1845 23.1733 57.4723 23.1535 57.7501C23.1336 58.0479 23.1237 58.3456 23.1237 58.6235C23.1237 58.9113 23.1237 59.209 23.1237 59.4968C23.1237 59.7747 23.1435 60.0625 23.1733 60.3602C23.1932 60.658 23.3619 60.9359 23.5901 61.1542C23.8184 61.3725 24.126 61.5214 24.4238 61.5412C24.4238 61.5412 24.4734 61.5412 24.4932 61.5412C24.7215 61.5412 24.9299 61.442 25.0788 61.2931C25.2475 61.1244 25.3567 60.8962 25.3765 60.6282C25.3765 60.5786 25.3765 60.5389 25.3765 60.5091C25.3765 60.2015 25.3666 59.8839 25.3666 59.5564C25.3666 59.2388 25.3666 58.9311 25.3666 58.6136C25.3666 58.296 25.3666 57.9784 25.3765 57.6707C25.3765 57.3532 25.3864 57.0356 25.3964 56.718C25.3964 56.6783 25.3964 56.6386 25.3964 56.5989C25.3765 56.331 25.2673 56.1027 25.0986 55.934C24.9498 55.7851 24.7414 55.6859 24.523 55.6859H24.5429ZM31.7281 56.1027C31.4899 55.8744 31.1922 55.7256 30.9044 55.7057C30.9044 55.7057 30.8547 55.7057 30.8349 55.7057C30.6166 55.7057 30.4181 55.805 30.2692 55.9638C30.1005 56.1424 29.9913 56.3905 29.9715 56.6783C29.9715 56.7279 29.9715 56.7776 29.9715 56.8272C29.9814 57.1547 29.9913 57.4921 29.9913 57.8295C29.9913 58.157 29.9913 58.4945 29.9913 58.822C29.9913 59.1594 29.9913 59.4869 29.9814 59.8243C29.9814 60.1618 29.9616 60.4992 29.9516 60.8168C29.9516 60.8664 29.9516 60.916 29.9516 60.9756C29.9715 61.2534 30.0806 61.5015 30.2494 61.6703C30.3982 61.8191 30.5868 61.9084 30.7952 61.9184C30.815 61.9184 30.8448 61.9184 30.8746 61.9184C31.1624 61.8886 31.4601 61.7397 31.6983 61.5015C31.9464 61.2634 32.1151 60.9557 32.1449 60.6282C32.1747 60.3305 32.1945 60.0228 32.2144 59.7152C32.2342 59.3976 32.2342 59.0999 32.2342 58.7922C32.2342 58.4845 32.2342 58.1769 32.2144 57.8692C32.2044 57.5814 32.1846 57.2738 32.1449 56.9562C32.1151 56.6386 31.9464 56.331 31.7082 56.1027H31.7281Z" fill="#E57C35"/>
<path d="M28.8103 58.9609C28.5225 59.4571 28.1255 59.7648 27.6988 59.7648C27.2721 59.7648 26.8552 59.4373 26.5674 58.9113V58.7029C26.5674 58.296 26.5674 57.8891 26.5873 57.4822C26.5873 57.0753 26.6071 56.6684 26.617 56.2615C26.617 55.9935 26.756 55.7454 26.9545 55.5668C27.143 55.3882 27.411 55.279 27.6789 55.279C27.9568 55.279 28.2248 55.3981 28.4233 55.5767C28.6218 55.7554 28.7607 56.0035 28.7706 56.2714C28.7905 56.6783 28.8004 57.0852 28.8004 57.4822C28.8004 57.8891 28.8004 58.296 28.8004 58.7029V58.951L28.8103 58.9609ZM25.3666 58.5441C25.0788 59.0006 24.7116 59.2686 24.3047 59.2686C23.8382 59.2686 23.4214 58.9113 23.1336 58.3456C23.1336 58.1372 23.1435 57.9288 23.1535 57.7204C23.1634 57.4425 23.1932 57.1547 23.2229 56.847C23.2527 56.5493 23.4115 56.2615 23.6497 56.0432C23.8779 55.8248 24.1757 55.6859 24.4734 55.6561C24.4734 55.6561 24.523 55.6561 24.5429 55.6561C24.7711 55.6561 24.9696 55.7554 25.1185 55.9042C25.2872 56.0729 25.3964 56.3012 25.4162 56.5692C25.4162 56.6089 25.4162 56.6486 25.4162 56.6882C25.4162 56.9959 25.3964 57.3135 25.3964 57.641C25.3964 57.9387 25.3964 58.2364 25.3864 58.5342L25.3666 58.5441ZM31.7082 56.0729C31.47 55.8447 31.1723 55.6958 30.8845 55.676C30.8845 55.676 30.8349 55.676 30.815 55.676C30.5967 55.676 30.3982 55.7752 30.2493 55.934C30.0806 56.1126 29.9715 56.3607 29.9516 56.6485C29.9516 56.6982 29.9516 56.7478 29.9516 56.7974C29.9615 57.1249 29.9715 57.4623 29.9715 57.7998C29.9715 58.0082 29.9715 58.2166 29.9715 58.4349C30.2692 58.9609 30.6662 59.2785 31.1028 59.2785C31.5395 59.2785 31.9266 58.9708 32.2144 58.4746C32.2144 58.2662 32.2144 58.0677 32.1945 57.8593C32.1846 57.5715 32.1647 57.2639 32.125 56.9463C32.0953 56.6287 31.9266 56.321 31.6884 56.0928L31.7082 56.0729Z" fill="#F4A721"/>
<path d="M46.0489 55.5866C46.2474 55.408 46.5153 55.2889 46.8031 55.2889C47.081 55.2889 47.339 55.3981 47.5276 55.5767C47.7261 55.7554 47.8551 56.0035 47.865 56.2714C47.8749 56.6783 47.8849 57.0951 47.8948 57.4921C47.8948 57.899 47.9047 58.3059 47.9047 58.7128C47.9047 59.1197 47.9047 59.5266 47.9047 59.9335C47.9047 60.3305 47.8948 60.7374 47.875 61.1542C47.875 61.4221 47.736 61.6703 47.5375 61.8489C47.339 62.0275 47.0711 62.1466 46.7932 62.1466C46.5153 62.1466 46.2474 62.0275 46.0489 61.8489C45.8504 61.6703 45.7214 61.4221 45.7114 61.1542C45.7015 60.7374 45.6817 60.3305 45.6717 59.9434C45.6717 59.5365 45.6618 59.1296 45.6618 58.7327C45.6618 58.3258 45.6618 57.9189 45.6618 57.512C45.6618 57.115 45.6817 56.7081 45.6916 56.3012C45.6916 56.0332 45.8305 55.7851 46.0389 55.6065M49.9392 55.6859C49.9392 55.6859 49.9789 55.6859 50.0087 55.6859C50.3064 55.7057 50.5942 55.8546 50.8324 56.0729C51.0706 56.2913 51.2294 56.5791 51.2591 56.8768C51.2889 57.1845 51.3088 57.4723 51.3286 57.7501C51.3485 58.0479 51.3584 58.3456 51.3584 58.6235C51.3584 58.9113 51.3584 59.209 51.3584 59.4968C51.3584 59.7747 51.3385 60.0625 51.3088 60.3602C51.279 60.658 51.1202 60.9359 50.8919 61.1542C50.6637 61.3725 50.356 61.5214 50.0583 61.5412C50.0583 61.5412 50.0087 61.5412 49.9888 61.5412C49.7606 61.5412 49.5621 61.442 49.4033 61.2931C49.2346 61.1244 49.1254 60.8962 49.1056 60.6282C49.1056 60.5786 49.1056 60.5389 49.1056 60.5091C49.1056 60.2015 49.1155 59.8839 49.1155 59.5564C49.1155 59.2388 49.1155 58.9311 49.1155 58.6136C49.1155 58.296 49.1155 57.9784 49.1056 57.6707C49.1056 57.3532 49.0956 57.0356 49.0857 56.718C49.0857 56.6783 49.0857 56.6386 49.0857 56.5989C49.1056 56.331 49.2147 56.1027 49.3834 55.934C49.5323 55.7851 49.7407 55.6859 49.9591 55.6859H49.9392ZM42.7639 56.1027C43.0021 55.8744 43.2998 55.7256 43.5876 55.7057C43.5876 55.7057 43.6373 55.7057 43.6571 55.7057C43.8754 55.7057 44.0739 55.805 44.2228 55.9638C44.3915 56.1424 44.5007 56.3905 44.5205 56.6783C44.5205 56.7279 44.5205 56.7776 44.5205 56.8272C44.5106 57.1547 44.5007 57.4921 44.5007 57.8295C44.5007 58.157 44.5007 58.4945 44.5007 58.822C44.5007 59.1594 44.5007 59.4869 44.5106 59.8243C44.5106 60.1618 44.5305 60.4992 44.5404 60.8168C44.5404 60.8664 44.5404 60.916 44.5404 60.9756C44.5205 61.2534 44.4114 61.5015 44.2426 61.6703C44.1037 61.8191 43.9052 61.9084 43.6968 61.9184C43.677 61.9184 43.6472 61.9184 43.6174 61.9184C43.3296 61.8886 43.0319 61.7397 42.7937 61.5015C42.5456 61.2634 42.3769 60.9557 42.3471 60.6282C42.3173 60.3305 42.2975 60.0228 42.2776 59.7152C42.2578 59.3976 42.2578 59.0999 42.2578 58.7922C42.2578 58.4845 42.2578 58.1769 42.2776 57.8692C42.2876 57.5814 42.3074 57.2738 42.3372 56.9562C42.3669 56.6386 42.5357 56.331 42.7738 56.1027H42.7639Z" fill="#E57C35"/>
<path d="M45.6618 58.9609C45.9496 59.4571 46.3466 59.7648 46.7734 59.7648C47.2001 59.7648 47.6169 59.4373 47.9047 58.9113V58.7029C47.9047 58.296 47.9047 57.8891 47.8849 57.4822C47.8849 57.0753 47.865 56.6684 47.8551 56.2615C47.8551 55.9935 47.7162 55.7454 47.5177 55.5668C47.3291 55.3882 47.0612 55.279 46.7932 55.279C46.5153 55.279 46.2474 55.3981 46.0389 55.5767C45.8405 55.7554 45.7015 56.0035 45.6916 56.2714C45.6817 56.6783 45.6618 57.0852 45.6618 57.4822C45.6618 57.8891 45.6618 58.296 45.6618 58.7029V58.951V58.9609ZM49.1056 58.5441C49.3934 59.0006 49.7606 59.2686 50.1675 59.2686C50.6339 59.2686 51.0507 58.9113 51.3385 58.3456C51.3385 58.1372 51.3286 57.9288 51.3187 57.7204C51.3088 57.4425 51.279 57.1547 51.2492 56.847C51.2194 56.5493 51.0607 56.2615 50.8225 56.0432C50.5942 55.8248 50.2965 55.6859 49.9988 55.6561C49.9988 55.6561 49.9491 55.6561 49.9293 55.6561C49.701 55.6561 49.5025 55.7554 49.3537 55.9042C49.185 56.0729 49.0758 56.3012 49.0559 56.5692C49.0559 56.6089 49.0559 56.6486 49.0559 56.6882C49.0559 56.9959 49.0758 57.3135 49.0758 57.641C49.0758 57.9387 49.0758 58.2364 49.0857 58.5342L49.1056 58.5441ZM42.7639 56.0729C43.0021 55.8447 43.2998 55.6958 43.5876 55.676C43.5876 55.676 43.6373 55.676 43.6571 55.676C43.8754 55.676 44.0739 55.7752 44.2228 55.934C44.3915 56.1126 44.5007 56.3607 44.5205 56.6485C44.5205 56.6982 44.5205 56.7478 44.5205 56.7974C44.5106 57.1249 44.5007 57.4623 44.5007 57.7998C44.5007 58.0082 44.5007 58.2166 44.5007 58.4349C44.2029 58.9609 43.806 59.2785 43.3693 59.2785C42.9326 59.2785 42.5456 58.9708 42.2578 58.4746C42.2578 58.2662 42.2578 58.0677 42.2776 57.8593C42.2876 57.5715 42.3074 57.2639 42.3372 56.9463C42.3669 56.6287 42.5357 56.321 42.7738 56.0928L42.7639 56.0729Z" fill="#F4A721"/>
<path d="M38.685 22.231C40.8336 22.231 42.5754 20.4892 42.5754 18.3407C42.5754 16.1921 40.8336 14.4503 38.685 14.4503C36.5365 14.4503 34.7947 16.1921 34.7947 18.3407C34.7947 20.4892 36.5365 22.231 38.685 22.231Z" fill="#13171E"/>
<path d="M39.9355 18.1223C40.6261 18.1223 41.186 17.5625 41.186 16.8719C41.186 16.1813 40.6261 15.6214 39.9355 15.6214C39.2449 15.6214 38.685 16.1813 38.685 16.8719C38.685 17.5625 39.2449 18.1223 39.9355 18.1223Z" fill="white"/>
</g>
<defs>
<clipPath id="clip0_105_2">
<rect width="320" height="87.4234" fill="white" transform="translate(0 0.2883)"/>
</clipPath>
</defs>
</svg>
