<svg xmlns="http://www.w3.org/2000/svg" role="img" viewBox="-5.19 -5.69 333.38 503.88"><title>Rook logo</title><style>svg {enable-background:new 0 0 322.1 492.6}</style><style>.st0{fill:#0091bd}</style><g id="Layer_2"><g id="Layer_1-2"><g><path d="M318.6 122.9h-82.1V95.5h54.6V31.6h-41.7v36.3h-67.5V31.6H141v36.3H71.5V31.6H32.4v63.9h52.8v27.4H4.9V4.1H99v36.3h14.5V4.1h95.9v36.3h12.5V4.1h96.7zm-28.2 51.4v151c-.1 16.1-13.1 29.1-29.2 29.2H62.1c-16-.1-29.1-13.1-29.1-29.2v-151h257.4m27.5-27.5H5.5v178.9c.3 31.1 25.5 56.1 56.6 56.2h199.1c31.2-.1 56.6-25.4 56.6-56.6V146.4l.1.4z" class="st0"/><path d="M161.7 229.5c16.4.1 29.6 13.3 29.7 29.7v31.6H132v-31.6c.1-16.4 13.3-29.6 29.7-29.7m0-27.4c-31.6 0-57.1 25.6-57.1 57.1v58.6h114.3v-58.6c-.1-31.6-25.6-57.1-57.2-57.1z" class="st0"/></g><g><path fill="#546a79" d="M13.5 487.8H4.9v-75.9h36.3c15.6 0 25.5 9.3 25.5 23.7s-9.8 19.6-18.3 21.5l19.9 30.6H58.1l-18.3-29H13.5v29.1zm0-37.2h26.2c8.2 0 18.4-3.1 18.4-14.9 0-9.6-7.2-15.6-18-15.6H13.5v30.5zm140.5-.7c0 21.5-15.5 38.8-38.5 38.8S77 471.4 77 449.9c0-21.5 15.5-38.8 38.6-38.8s38.4 17.3 38.4 38.8zm-8.6 0c0-17.1-11.5-30.5-30-30.5s-29.8 13.4-29.8 30.5 11.5 30.5 30 30.5 29.8-13.4 29.8-30.5zm95.3 0c0 21.5-15.5 38.8-38.5 38.8s-38.5-17.3-38.5-38.8 15.5-38.8 38.5-38.8 38.5 17.3 38.5 38.8zm-8.6 0c0-17.1-11.5-30.5-30-30.5s-30 13.4-30 30.5c0 17 11.5 30.5 30 30.5s30-13.4 30-30.5zm51.8-7.4l34.1 45.3h-10.8l-29.7-39.5-15.6 14.7v24.9h-8.6v-76h8.6v39.6l42.2-39.6h12.1l-32.3 30.6z"/></g></g></g></svg>