<svg width="208" height="100" viewBox="0 0 208 100" fill="none" xmlns="http://www.w3.org/2000/svg">
<path fill-rule="evenodd" clip-rule="evenodd" d="M110.151 73.9298C108.452 73.0977 107.209 71.8664 106.417 70.2325L109.273 68.2638C109.77 69.5477 110.634 70.5102 111.864 71.1521C113.095 71.7932 114.544 72.1146 116.215 72.1146C117.941 72.1146 119.259 71.8075 120.168 71.195C121.076 70.5834 121.529 69.8111 121.529 68.8763C121.529 68.0325 121.105 67.3539 120.256 66.8432C119.405 66.3316 117.912 65.887 115.774 65.5084C113.666 65.1307 111.997 64.67 110.767 64.1289C109.536 63.5905 108.642 62.9048 108.086 62.0736C107.53 61.2432 107.253 60.2146 107.253 58.9905C107.253 57.7941 107.603 56.7004 108.306 55.7084C109.01 54.7173 110.02 53.9227 111.337 53.3245C112.655 52.7263 114.178 52.4263 115.906 52.4263C118.249 52.4263 120.131 52.8566 121.552 53.7164C122.972 54.578 123.99 55.8986 124.604 57.6771L121.617 59.4263C121.149 58.0271 120.438 57.0218 119.487 56.4075C118.535 55.795 117.341 55.4905 115.906 55.4905C114.471 55.4905 113.256 55.8111 112.261 56.4513C111.264 57.095 110.767 57.8379 110.767 58.6834C110.767 59.6459 111.198 60.3888 112.063 60.9138C112.926 61.4388 114.471 61.8923 116.698 62.27C119.742 62.7673 121.896 63.5102 123.156 64.5021C124.413 65.4932 125.044 66.8932 125.044 68.7021C125.044 69.9557 124.671 71.0718 123.924 72.0486C123.177 73.0263 122.108 73.7923 120.717 74.345C119.326 74.8995 117.708 75.1763 115.862 75.1763C113.754 75.1763 111.85 74.762 110.151 73.9298Z" fill="#0A2133"/>
<path fill-rule="evenodd" clip-rule="evenodd" d="M140.617 70.8013C141.949 69.9272 142.616 68.7888 142.616 67.3888V64.3701L137.695 65.2888C135.734 65.6397 134.269 66.1415 133.302 66.7996C132.337 67.4549 131.853 68.2933 131.853 69.3138C131.853 70.2192 132.204 70.9112 132.907 71.3924C133.611 71.8737 134.591 72.1147 135.851 72.1147C137.695 72.1147 139.284 71.6763 140.617 70.8013ZM149.558 71.9835L149.338 74.7388C148.518 75.0299 147.638 75.1763 146.701 75.1763C145.56 75.1763 144.659 74.929 143.999 74.4335C143.341 73.9371 142.923 73.1067 142.747 71.9397C142.073 72.9603 141.084 73.7558 139.782 74.3237C138.479 74.8924 137.11 75.1763 135.675 75.1763C133.507 75.1763 131.721 74.6746 130.315 73.6683C128.909 72.6621 128.206 71.2112 128.206 69.3138C128.206 67.6522 128.939 66.2147 130.403 65.0049C131.867 63.7942 133.99 62.9558 136.773 62.4897L142.616 61.5272V60.3013C142.616 58.8433 142.162 57.6772 141.254 56.8013C140.346 55.9263 139.086 55.4906 137.476 55.4906C136.011 55.4906 134.745 55.8388 133.676 56.5397C132.606 57.2397 131.78 58.2755 131.194 59.646L128.603 57.7638C129.187 56.1317 130.278 54.8326 131.875 53.8701C133.471 52.9076 135.337 52.4263 137.476 52.4263C140.082 52.4263 142.176 53.054 143.758 54.3076C145.34 55.5621 146.13 57.4138 146.13 59.8638V70.6272C146.13 71.1522 146.262 71.546 146.526 71.8076C146.789 72.071 147.213 72.2013 147.8 72.2013C148.385 72.2013 148.97 72.1299 149.558 71.9835Z" fill="#0A2133"/>
<path fill-rule="evenodd" clip-rule="evenodd" d="M156.234 68.8761C156.234 69.985 156.402 70.7511 156.739 71.1743C157.075 71.5966 157.698 71.8073 158.606 71.8073C159.222 71.8073 159.756 71.7636 160.21 71.677C160.663 71.5895 161.198 71.4287 161.813 71.1957L161.242 74.5645C160.276 74.9725 159.192 75.177 157.991 75.177C156.205 75.177 154.879 74.6957 154.015 73.7323C153.152 72.7698 152.72 71.2984 152.72 69.3136V42.802H156.234V68.8761Z" fill="#0A2133"/>
<path fill-rule="evenodd" clip-rule="evenodd" d="M175.41 70.8013C176.742 69.9272 177.409 68.7888 177.409 67.3888V64.3701L172.488 65.2888C170.527 65.6397 169.062 66.1415 168.095 66.7996C167.13 67.4549 166.646 68.2933 166.646 69.3138C166.646 70.2192 166.997 70.9112 167.7 71.3924C168.404 71.8737 169.384 72.1147 170.644 72.1147C172.488 72.1147 174.077 71.6763 175.41 70.8013ZM184.351 71.9835L184.131 74.7388C183.311 75.0299 182.431 75.1763 181.494 75.1763C180.353 75.1763 179.452 74.929 178.792 74.4335C178.134 73.9371 177.716 73.1067 177.54 71.9397C176.866 72.9603 175.877 73.7558 174.575 74.3237C173.272 74.8924 171.903 75.1763 170.468 75.1763C168.3 75.1763 166.514 74.6746 165.108 73.6683C163.702 72.6621 162.999 71.2112 162.999 69.3138C162.999 67.6522 163.732 66.2147 165.196 65.0049C166.66 63.7942 168.783 62.9558 171.566 62.4897L177.409 61.5272V60.3013C177.409 58.8433 176.955 57.6772 176.047 56.8013C175.139 55.9263 173.879 55.4906 172.269 55.4906C170.804 55.4906 169.538 55.8388 168.469 56.5397C167.399 57.2397 166.573 58.2755 165.987 59.646L163.396 57.7638C163.98 56.1317 165.071 54.8326 166.668 53.8701C168.264 52.9076 170.13 52.4263 172.269 52.4263C174.875 52.4263 176.969 53.054 178.551 54.3076C180.133 55.5621 180.923 57.4138 180.923 59.8638V70.6272C180.923 71.1522 181.055 71.546 181.319 71.8076C181.582 72.071 182.006 72.2013 182.593 72.2013C183.178 72.2013 183.763 72.1299 184.351 71.9835Z" fill="#0A2133"/>
<path fill-rule="evenodd" clip-rule="evenodd" d="M201.812 69.9277C203.057 68.4679 203.679 66.5152 203.679 64.0652V63.5402C203.679 61.0902 203.057 59.1348 201.812 57.6768C200.567 56.2188 198.89 55.4902 196.783 55.4902C194.644 55.4902 192.96 56.2402 191.73 57.7438C190.5 59.2446 189.884 61.2643 189.884 63.8018C189.884 66.3384 190.5 68.3598 191.73 69.8616C192.96 71.3643 194.644 72.1143 196.783 72.1143C198.89 72.1143 200.567 71.3857 201.812 69.9277ZM207.194 42.8018V74.7393H204.118L203.898 70.9339C203.254 72.217 202.266 73.2446 200.934 74.017C199.6 74.7893 198.085 75.1768 196.386 75.1768C193.312 75.1768 190.873 74.1634 189.072 72.1375C187.271 70.1089 186.37 67.3313 186.37 63.8018C186.37 60.2732 187.271 57.4955 189.072 55.4679C190.873 53.4411 193.312 52.4259 196.386 52.4259C197.996 52.4259 199.44 52.7768 200.714 53.4759C201.988 54.1768 202.977 55.1098 203.679 56.2768V42.8018H207.194Z" fill="#0A2133"/>
<path fill-rule="evenodd" clip-rule="evenodd" d="M64.4991 37.5006L85.9991 25.0006L64.4991 12.5006V37.5006Z" fill="#B2D530"/>
<path fill-rule="evenodd" clip-rule="evenodd" d="M21.4996 62.4996L42.9996 75.0005L21.4996 87.4996V62.4996Z" fill="#53A626"/>
<path fill-rule="evenodd" clip-rule="evenodd" d="M42.9996 50.0004L21.4996 62.5004L42.9996 75.0004V50.0004Z" fill="#1F4F22"/>
<path fill-rule="evenodd" clip-rule="evenodd" d="M21.4995 87.5005L42.9986 99.9996H42.9995V75.0005L21.4995 87.5005Z" fill="#0A2133"/>
<path fill-rule="evenodd" clip-rule="evenodd" d="M0 74.9996V75.0005L21.4991 87.4996V62.4996L0 74.9996Z" fill="#0A2133"/>
<path fill-rule="evenodd" clip-rule="evenodd" d="M64.4991 62.5005L85.9991 75.0005V50.0005L64.4991 62.5005Z" fill="#53A626"/>
<path fill-rule="evenodd" clip-rule="evenodd" d="M42.9996 25.0004L64.4996 37.5004L42.9996 50.0004V25.0004Z" fill="#53A626"/>
<path fill-rule="evenodd" clip-rule="evenodd" d="M0 49.9997V50.0006L21.4991 62.5006V37.5006L0 49.9997Z" fill="#53A626"/>
<path fill-rule="evenodd" clip-rule="evenodd" d="M42.9998 100H43.0015L64.4989 87.5009L42.9998 75V100Z" fill="#1F4F22"/>
<path fill-rule="evenodd" clip-rule="evenodd" d="M64.4991 87.5004L85.9991 75.0004L64.4991 62.5004V87.5004Z" fill="#1F4F22"/>
<path fill-rule="evenodd" clip-rule="evenodd" d="M42.9998 0.000358582L21.4998 12.5004L42.9998 25.0004V0.000358582Z" fill="#B2D530"/>
<path fill-rule="evenodd" clip-rule="evenodd" d="M64.4996 37.5004L42.9996 50.0004L64.4996 62.5004V37.5004Z" fill="#B2D530"/>
<path fill-rule="evenodd" clip-rule="evenodd" d="M64.4996 62.4996L42.9996 75.0005L64.4996 87.4996V62.4996Z" fill="#B2D530"/>
<path fill-rule="evenodd" clip-rule="evenodd" d="M110.151 73.9298C108.452 73.0977 107.209 71.8664 106.417 70.2325L109.273 68.2638C109.77 69.5477 110.634 70.5102 111.864 71.1521C113.095 71.7932 114.544 72.1146 116.215 72.1146C117.941 72.1146 119.259 71.8075 120.168 71.195C121.076 70.5834 121.529 69.8111 121.529 68.8763C121.529 68.0325 121.105 67.3539 120.256 66.8432C119.405 66.3316 117.912 65.887 115.774 65.5084C113.666 65.1307 111.997 64.67 110.767 64.1289C109.536 63.5905 108.642 62.9048 108.086 62.0736C107.53 61.2432 107.253 60.2146 107.253 58.9905C107.253 57.7941 107.603 56.7004 108.306 55.7084C109.01 54.7173 110.02 53.9227 111.337 53.3245C112.655 52.7263 114.178 52.4263 115.906 52.4263C118.249 52.4263 120.131 52.8566 121.552 53.7164C122.972 54.578 123.99 55.8986 124.604 57.6771L121.617 59.4263C121.149 58.0271 120.438 57.0218 119.487 56.4075C118.535 55.795 117.341 55.4905 115.906 55.4905C114.471 55.4905 113.256 55.8111 112.261 56.4513C111.264 57.095 110.767 57.8379 110.767 58.6834C110.767 59.6459 111.198 60.3888 112.063 60.9138C112.926 61.4388 114.471 61.8923 116.698 62.27C119.742 62.7673 121.896 63.5102 123.156 64.5021C124.413 65.4932 125.044 66.8932 125.044 68.7021C125.044 69.9557 124.671 71.0718 123.924 72.0486C123.177 73.0263 122.108 73.7923 120.717 74.345C119.326 74.8995 117.708 75.1763 115.862 75.1763C113.754 75.1763 111.85 74.762 110.151 73.9298Z" fill="#0A2133"/>
<path fill-rule="evenodd" clip-rule="evenodd" d="M140.617 70.8013C141.949 69.9272 142.616 68.7888 142.616 67.3888V64.3701L137.695 65.2888C135.734 65.6397 134.269 66.1415 133.302 66.7996C132.337 67.4549 131.853 68.2933 131.853 69.3138C131.853 70.2192 132.204 70.9112 132.907 71.3924C133.611 71.8737 134.591 72.1147 135.851 72.1147C137.695 72.1147 139.284 71.6763 140.617 70.8013ZM149.558 71.9835L149.338 74.7388C148.518 75.0299 147.638 75.1763 146.701 75.1763C145.56 75.1763 144.659 74.929 143.999 74.4335C143.341 73.9371 142.923 73.1067 142.747 71.9397C142.073 72.9603 141.084 73.7558 139.782 74.3237C138.479 74.8924 137.11 75.1763 135.675 75.1763C133.507 75.1763 131.721 74.6746 130.315 73.6683C128.909 72.6621 128.206 71.2112 128.206 69.3138C128.206 67.6522 128.939 66.2147 130.403 65.0049C131.867 63.7942 133.99 62.9558 136.773 62.4897L142.616 61.5272V60.3013C142.616 58.8433 142.162 57.6772 141.254 56.8013C140.346 55.9263 139.086 55.4906 137.476 55.4906C136.011 55.4906 134.745 55.8388 133.676 56.5397C132.606 57.2397 131.78 58.2755 131.194 59.646L128.603 57.7638C129.187 56.1317 130.278 54.8326 131.875 53.8701C133.471 52.9076 135.337 52.4263 137.476 52.4263C140.082 52.4263 142.176 53.054 143.758 54.3076C145.34 55.5621 146.13 57.4138 146.13 59.8638V70.6272C146.13 71.1522 146.262 71.546 146.526 71.8076C146.789 72.071 147.213 72.2013 147.8 72.2013C148.385 72.2013 148.97 72.1299 149.558 71.9835Z" fill="#0A2133"/>
<path fill-rule="evenodd" clip-rule="evenodd" d="M156.234 68.8761C156.234 69.985 156.402 70.7511 156.739 71.1743C157.075 71.5966 157.698 71.8073 158.606 71.8073C159.222 71.8073 159.756 71.7636 160.21 71.677C160.663 71.5895 161.198 71.4287 161.813 71.1957L161.242 74.5645C160.276 74.9725 159.192 75.177 157.991 75.177C156.205 75.177 154.879 74.6957 154.015 73.7323C153.152 72.7698 152.72 71.2984 152.72 69.3136V42.802H156.234V68.8761Z" fill="#0A2133"/>
<path fill-rule="evenodd" clip-rule="evenodd" d="M175.41 70.8013C176.742 69.9272 177.409 68.7888 177.409 67.3888V64.3701L172.488 65.2888C170.527 65.6397 169.062 66.1415 168.095 66.7996C167.13 67.4549 166.646 68.2933 166.646 69.3138C166.646 70.2192 166.997 70.9112 167.7 71.3924C168.404 71.8737 169.384 72.1147 170.644 72.1147C172.488 72.1147 174.077 71.6763 175.41 70.8013ZM184.351 71.9835L184.131 74.7388C183.311 75.0299 182.431 75.1763 181.494 75.1763C180.353 75.1763 179.452 74.929 178.792 74.4335C178.134 73.9371 177.716 73.1067 177.54 71.9397C176.866 72.9603 175.877 73.7558 174.575 74.3237C173.272 74.8924 171.903 75.1763 170.468 75.1763C168.3 75.1763 166.514 74.6746 165.108 73.6683C163.702 72.6621 162.999 71.2112 162.999 69.3138C162.999 67.6522 163.732 66.2147 165.196 65.0049C166.66 63.7942 168.783 62.9558 171.566 62.4897L177.409 61.5272V60.3013C177.409 58.8433 176.955 57.6772 176.047 56.8013C175.139 55.9263 173.879 55.4906 172.269 55.4906C170.804 55.4906 169.538 55.8388 168.469 56.5397C167.399 57.2397 166.573 58.2755 165.987 59.646L163.396 57.7638C163.98 56.1317 165.071 54.8326 166.668 53.8701C168.264 52.9076 170.13 52.4263 172.269 52.4263C174.875 52.4263 176.969 53.054 178.551 54.3076C180.133 55.5621 180.923 57.4138 180.923 59.8638V70.6272C180.923 71.1522 181.055 71.546 181.319 71.8076C181.582 72.071 182.006 72.2013 182.593 72.2013C183.178 72.2013 183.763 72.1299 184.351 71.9835Z" fill="#0A2133"/>
<path fill-rule="evenodd" clip-rule="evenodd" d="M201.812 69.9277C203.057 68.4679 203.679 66.5152 203.679 64.0652V63.5402C203.679 61.0902 203.057 59.1348 201.812 57.6768C200.567 56.2188 198.89 55.4902 196.783 55.4902C194.644 55.4902 192.96 56.2402 191.73 57.7438C190.5 59.2446 189.884 61.2643 189.884 63.8018C189.884 66.3384 190.5 68.3598 191.73 69.8616C192.96 71.3643 194.644 72.1143 196.783 72.1143C198.89 72.1143 200.567 71.3857 201.812 69.9277ZM207.194 42.8018V74.7393H204.118L203.898 70.9339C203.254 72.217 202.266 73.2446 200.934 74.017C199.6 74.7893 198.085 75.1768 196.386 75.1768C193.312 75.1768 190.873 74.1634 189.072 72.1375C187.271 70.1089 186.37 67.3313 186.37 63.8018C186.37 60.2732 187.271 57.4955 189.072 55.4679C190.873 53.4411 193.312 52.4259 196.386 52.4259C197.996 52.4259 199.44 52.7768 200.714 53.4759C201.988 54.1768 202.977 55.1098 203.679 56.2768V42.8018H207.194Z" fill="#0A2133"/>
<path fill-rule="evenodd" clip-rule="evenodd" d="M64.4991 37.5006L85.9991 25.0006L64.4991 12.5006V37.5006Z" fill="#B2D530"/>
<path fill-rule="evenodd" clip-rule="evenodd" d="M21.4996 62.4996L42.9996 75.0005L21.4996 87.4996V62.4996Z" fill="#53A626"/>
<path fill-rule="evenodd" clip-rule="evenodd" d="M42.9996 50.0004L21.4996 62.5004L42.9996 75.0004V50.0004Z" fill="#1F4F22"/>
<path fill-rule="evenodd" clip-rule="evenodd" d="M21.4995 87.5005L42.9986 99.9996H42.9995V75.0005L21.4995 87.5005Z" fill="#0A2133"/>
<path fill-rule="evenodd" clip-rule="evenodd" d="M0 74.9996V75.0005L21.4991 87.4996V62.4996L0 74.9996Z" fill="#0A2133"/>
<path fill-rule="evenodd" clip-rule="evenodd" d="M64.4991 62.5005L85.9991 75.0005V50.0005L64.4991 62.5005Z" fill="#53A626"/>
<path fill-rule="evenodd" clip-rule="evenodd" d="M42.9996 25.0004L64.4996 37.5004L42.9996 50.0004V25.0004Z" fill="#53A626"/>
<path fill-rule="evenodd" clip-rule="evenodd" d="M0 49.9997V50.0006L21.4991 62.5006V37.5006L0 49.9997Z" fill="#53A626"/>
<path fill-rule="evenodd" clip-rule="evenodd" d="M42.9998 100H43.0015L64.4989 87.5009L42.9998 75V100Z" fill="#1F4F22"/>
<path fill-rule="evenodd" clip-rule="evenodd" d="M64.4991 87.5004L85.9991 75.0004L64.4991 62.5004V87.5004Z" fill="#1F4F22"/>
<path fill-rule="evenodd" clip-rule="evenodd" d="M42.9998 0.000358582L21.4998 12.5004L42.9998 25.0004V0.000358582Z" fill="#B2D530"/>
<path fill-rule="evenodd" clip-rule="evenodd" d="M64.4996 37.5004L42.9996 50.0004L64.4996 62.5004V37.5004Z" fill="#B2D530"/>
<path fill-rule="evenodd" clip-rule="evenodd" d="M64.4996 62.4996L42.9996 75.0005L64.4996 87.4996V62.4996Z" fill="#B2D530"/>
</svg>
