<?xml version="1.0" encoding="utf-8"?>
<!-- Generator: Adobe Illustrator 16.0.0, SVG Export Plug-In . SVG Version: 6.00 Build 0)  -->
<!DOCTYPE svg PUBLIC "-//W3C//DTD SVG 1.1//EN" "http://www.w3.org/Graphics/SVG/1.1/DTD/svg11.dtd">
<svg version="1.1" xmlns="http://www.w3.org/2000/svg" xmlns:xlink="http://www.w3.org/1999/xlink" id="logo" viewBox="0 0 142 22">
	<path fill="#1428a0" d="M117.717,16.688h-0.109l-4.635-16.123h-7.477v20.326h4.953l-0.279-16.68h0.109l4.977,16.68h7.174V0.564
		h-4.986L117.717,16.688z M22.592,0.564l-3.73,20.541h5.443L27.063,2.46h0.115l2.685,18.646h5.411L31.561,0.564H22.592z
		 M53.038,0.566L50.55,16.271h-0.113L47.961,0.566h-8.217l-0.446,20.539h5.038l0.126-18.471h0.114l3.365,18.471h5.11l3.366-18.465
		l0.112-0.006l0.131,18.471h5.04L61.255,0.566H53.038z M6.38,5.848c-0.095-0.42-0.072-0.84-0.021-1.072
		c0.145-0.66,0.581-1.383,1.842-1.383c1.182,0,1.87,0.746,1.87,1.86v1.269h5.031V5.088c0-4.481-3.942-5.18-6.796-5.18
		c-3.581,0-6.505,1.213-7.044,4.564c-0.147,0.9-0.165,1.725,0.049,2.765c0.875,4.198,8.032,5.414,9.071,8.069
		c0.195,0.495,0.132,1.137,0.036,1.525c-0.163,0.672-0.616,1.371-1.961,1.371c-1.258,0-2.026-0.735-2.026-1.856l-0.003-1.993H1.026
		l-0.003,1.588c0,4.582,3.536,5.959,7.323,5.959c3.65,0,6.642-1.258,7.126-4.687c0.246-1.778,0.065-2.944-0.022-3.379
		C14.597,9.531,6.955,8.259,6.38,5.848z M71.93,5.896c-0.099-0.41-0.071-0.826-0.024-1.053c0.141-0.656,0.573-1.371,1.823-1.371
		c1.168,0,1.854,0.735,1.854,1.834v1.26h4.977V5.145c0-4.426-3.906-5.123-6.723-5.123c-3.55,0-6.449,1.186-6.976,4.516
		c-0.147,0.896-0.17,1.715,0.046,2.74c0.867,4.154,7.953,5.361,8.984,7.987c0.188,0.495,0.131,1.126,0.039,1.511
		c-0.164,0.677-0.617,1.355-1.943,1.355c-1.252,0-2.006-0.724-2.006-1.833l-0.004-1.978h-5.354v1.574
		c0,4.535,3.505,5.896,7.255,5.896c3.605,0,6.572-1.247,7.047-4.64c0.244-1.755,0.064-2.911-0.021-3.344
		C80.059,9.549,72.49,8.284,71.93,5.896z M94.779,15.755c0.004,0.261-0.004,0.563-0.047,0.783c-0.1,0.511-0.531,1.478-1.932,1.478
		c-1.396,0-1.832-0.967-1.932-1.478c-0.043-0.22-0.053-0.522-0.051-0.783V0.562h-5.092v14.722
		c-0.008,0.381,0.029,1.152,0.047,1.357c0.346,3.829,3.322,5.066,7.027,5.066c3.701,0,6.676-1.237,7.033-5.066
		c0.018-0.205,0.057-0.977,0.051-1.357V0.562h-5.105V15.755z M134.869,9.557v3.008h2.063v2.979c0.006,0.259-0.004,0.545-0.047,0.78
		c-0.09,0.553-0.604,1.486-2.057,1.486c-1.457,0-1.969-0.934-2.063-1.486c-0.039-0.235-0.051-0.521-0.045-0.78V6.146
		c0-0.334,0.021-0.699,0.082-0.964c0.107-0.506,0.541-1.491,2.006-1.491c1.541,0,1.922,1.04,2.014,1.491
		c0.059,0.285,0.063,0.776,0.063,0.774v1.157h5.078V6.427c-0.002,0,0.018-0.702-0.041-1.343c-0.373-3.863-3.504-5.079-7.072-5.079
		c-3.57,0-6.627,1.226-7.07,5.079c-0.043,0.332-0.088,0.978-0.088,1.343l-0.002,8.642c0.002,0.387,0.014,0.673,0.07,1.357
		c0.332,3.74,3.52,5.08,7.086,5.08c3.568,0,6.756-1.34,7.09-5.08c0.055-0.685,0.063-0.971,0.064-1.357V9.557H134.869z"/>
</svg>
