<?xml version="1.0" encoding="utf-8"?>
<!-- Generator: Adobe Illustrator 25.2.1, SVG Export Plug-In . SVG Version: 6.00 Build 0)  -->
<svg version="1.1" id="Layer_1" xmlns="http://www.w3.org/2000/svg" xmlns:xlink="http://www.w3.org/1999/xlink" x="0px" y="0px"
	 viewBox="0 0 1090 245" style="enable-background:new 0 0 1090 245;" xml:space="preserve">
<style type="text/css">
	.st0{fill:none;}
	.st1{fill:#219EBC;}
	.st2{display:none;opacity:0.5;fill:url(#SVGID_1_);}
	.st3{display:none;}
	.st4{display:inline;fill:#CECFCF;}
	.st5{display:inline;opacity:0.64;fill:url(#SVGID_2_);}
	.st6{display:inline;fill:url(#SVGID_3_);}
	.st7{display:inline;opacity:0.6;fill:url(#SVGID_4_);}
	.st8{display:inline;opacity:0.64;fill:url(#SVGID_5_);}
	.st9{display:inline;fill:url(#SVGID_6_);}
	.st10{display:inline;opacity:0.6;fill:url(#SVGID_7_);}
	.st11{display:inline;opacity:0.64;fill:url(#SVGID_8_);}
	.st12{display:inline;fill:url(#SVGID_9_);}
	.st13{display:inline;opacity:0.6;fill:url(#SVGID_10_);}
	.st14{display:inline;fill:url(#SVGID_11_);}
	.st15{display:inline;fill:#080809;}
	.st16{display:inline;fill:url(#SVGID_12_);}
	.st17{display:inline;fill:url(#SVGID_13_);}
	.st18{display:inline;}
	.st19{display:inline;opacity:0.5;fill:#FFFFFF;}
	.st20{display:none;fill:#3768F3;}
	.st21{fill:#023047;}
</style>
<pattern  x="-461" y="-10" width="28.8" height="28.8" patternUnits="userSpaceOnUse" id="New_Pattern" viewBox="0.7 -29.5 28.8 28.8" style="overflow:visible;">
	<g>
		<rect x="0.7" y="-29.5" class="st0" width="28.8" height="28.8"/>
		<g>
			<circle class="st1" cx="29.5" cy="-0.7" r="0.7"/>
		</g>
		<g>
			<g>
				<circle class="st1" cx="29.5" cy="-0.7" r="0.7"/>
				<path class="st1" d="M15.1,0c0.4,0,0.7-0.3,0.7-0.7c0-0.4-0.3-0.7-0.7-0.7c-0.4,0-0.7,0.3-0.7,0.7C14.4-0.3,14.7,0,15.1,0z"/>
			</g>
			<circle class="st1" cx="0.7" cy="-0.7" r="0.7"/>
		</g>
		<g>
			<g>
				<circle class="st1" cx="0.7" cy="-0.7" r="0.7"/>
			</g>
		</g>
		<g>
			<g>
				<circle class="st1" cx="29.5" cy="-0.7" r="0.7"/>
				<path class="st1" d="M29.5-14.4c0.4,0,0.7-0.3,0.7-0.7c0-0.4-0.3-0.7-0.7-0.7c-0.4,0-0.7,0.3-0.7,0.7
					C28.8-14.7,29.1-14.4,29.5-14.4z"/>
			</g>
			<circle class="st1" cx="29.5" cy="-29.5" r="0.7"/>
		</g>
		<g>
			<g>
				<circle class="st1" cx="29.5" cy="-0.7" r="0.7"/>
				<path class="st1" d="M15.1,0c0.4,0,0.7-0.3,0.7-0.7c0-0.4-0.3-0.7-0.7-0.7c-0.4,0-0.7,0.3-0.7,0.7C14.4-0.3,14.7,0,15.1,0z"/>
				<path class="st1" d="M29.5-14.4c0.4,0,0.7-0.3,0.7-0.7c0-0.4-0.3-0.7-0.7-0.7c-0.4,0-0.7,0.3-0.7,0.7
					C28.8-14.7,29.1-14.4,29.5-14.4z"/>
				<path class="st1" d="M15.1-14.4c0.4,0,0.7-0.3,0.7-0.7c0-0.4-0.3-0.7-0.7-0.7c-0.4,0-0.7,0.3-0.7,0.7
					C14.4-14.7,14.7-14.4,15.1-14.4z"/>
				<path class="st1" d="M7.9-7.2c0.4,0,0.7-0.3,0.7-0.7c0-0.4-0.3-0.7-0.7-0.7c-0.4,0-0.7,0.3-0.7,0.7C7.2-7.5,7.5-7.2,7.9-7.2z"/>
				<path class="st1" d="M22.3-7.2c0.4,0,0.7-0.3,0.7-0.7c0-0.4-0.3-0.7-0.7-0.7c-0.4,0-0.7,0.3-0.7,0.7C21.6-7.5,21.9-7.2,22.3-7.2
					z"/>
				<path class="st1" d="M7.9-21.6c0.4,0,0.7-0.3,0.7-0.7c0-0.4-0.3-0.7-0.7-0.7c-0.4,0-0.7,0.3-0.7,0.7C7.2-21.9,7.5-21.6,7.9-21.6
					z"/>
				<path class="st1" d="M22.3-21.6c0.4,0,0.7-0.3,0.7-0.7c0-0.4-0.3-0.7-0.7-0.7c-0.4,0-0.7,0.3-0.7,0.7
					C21.6-21.9,21.9-21.6,22.3-21.6z"/>
			</g>
			<g>
				<circle class="st1" cx="0.7" cy="-0.7" r="0.7"/>
				<path class="st1" d="M0.7-14.4c0.4,0,0.7-0.3,0.7-0.7c0-0.4-0.3-0.7-0.7-0.7c-0.4,0-0.7,0.3-0.7,0.7C0-14.7,0.3-14.4,0.7-14.4z"
					/>
			</g>
			<g>
				<circle class="st1" cx="29.5" cy="-29.5" r="0.7"/>
				<path class="st1" d="M15.1-28.8c0.4,0,0.7-0.3,0.7-0.7c0-0.4-0.3-0.7-0.7-0.7c-0.4,0-0.7,0.3-0.7,0.7
					C14.4-29.1,14.7-28.8,15.1-28.8z"/>
			</g>
			<circle class="st1" cx="0.7" cy="-29.5" r="0.7"/>
		</g>
		<g>
			<g>
				<circle class="st1" cx="0.7" cy="-0.7" r="0.7"/>
				<path class="st1" d="M0.7-14.4c0.4,0,0.7-0.3,0.7-0.7c0-0.4-0.3-0.7-0.7-0.7c-0.4,0-0.7,0.3-0.7,0.7C0-14.7,0.3-14.4,0.7-14.4z"
					/>
			</g>
			<g>
				<circle class="st1" cx="0.7" cy="-29.5" r="0.7"/>
			</g>
		</g>
		<g>
			<g>
				<circle class="st1" cx="29.5" cy="-29.5" r="0.7"/>
			</g>
		</g>
		<g>
			<g>
				<circle class="st1" cx="29.5" cy="-29.5" r="0.7"/>
				<path class="st1" d="M15.1-28.8c0.4,0,0.7-0.3,0.7-0.7c0-0.4-0.3-0.7-0.7-0.7c-0.4,0-0.7,0.3-0.7,0.7
					C14.4-29.1,14.7-28.8,15.1-28.8z"/>
			</g>
			<g>
				<circle class="st1" cx="0.7" cy="-29.5" r="0.7"/>
			</g>
		</g>
		<g>
			<g>
				<circle class="st1" cx="0.7" cy="-29.5" r="0.7"/>
			</g>
		</g>
	</g>
</pattern>
<pattern  id="SVGID_1_" xlink:href="#New_Pattern" patternTransform="matrix(0.8904 0 0 1.0336 -787.2289 290.9547)">
</pattern>
<rect x="-439.1" y="-13" class="st2" width="990.5" height="516.9"/>
<g class="st3">
	<path class="st4" d="M348.5-3747.7h-6.9c-0.2,0-0.3-0.1-0.3-0.3v-91.4c0-0.2,0.1-0.3,0.3-0.3h6.9c0.2,0,0.3,0.1,0.3,0.3v91.4
		C348.8-3747.9,348.7-3747.7,348.5-3747.7z"/>
	<linearGradient id="SVGID_2_" gradientUnits="userSpaceOnUse" x1="345.0409" y1="-3747.7334" x2="345.0409" y2="-3839.6904">
		<stop  offset="5.376340e-03" style="stop-color:#000000"/>
		<stop  offset="5.000000e-02" style="stop-color:#F5F5F5"/>
		<stop  offset="0.95" style="stop-color:#FFFFFF"/>
		<stop  offset="1" style="stop-color:#000000"/>
	</linearGradient>
	<path class="st5" d="M348.5-3747.7h-6.9c-0.2,0-0.3-0.1-0.3-0.3v-91.4c0-0.2,0.1-0.3,0.3-0.3h6.9c0.2,0,0.3,0.1,0.3,0.3v91.4
		C348.8-3747.9,348.7-3747.7,348.5-3747.7z"/>
	<linearGradient id="SVGID_3_" gradientUnits="userSpaceOnUse" x1="341.5752" y1="-3747.7334" x2="341.5752" y2="-3839.6904">
		<stop  offset="5.376340e-03" style="stop-color:#999999"/>
		<stop  offset="0.5" style="stop-color:#C7C7C7"/>
		<stop  offset="1" style="stop-color:#E6E6E6"/>
	</linearGradient>
	<path class="st6" d="M341.6-3747.7L341.6-3747.7c-0.2,0-0.3-0.1-0.3-0.3v-91.4c0-0.2,0.1-0.3,0.3-0.3l0,0c0.2,0,0.3,0.1,0.3,0.3
		v91.4C341.9-3747.9,341.7-3747.7,341.6-3747.7z"/>
	<linearGradient id="SVGID_4_" gradientUnits="userSpaceOnUse" x1="341.2827" y1="-3793.7119" x2="341.8678" y2="-3793.7119">
		<stop  offset="0" style="stop-color:#E6E6E6"/>
		<stop  offset="0.3013" style="stop-color:#E3E3E3"/>
		<stop  offset="0.4837" style="stop-color:#DBDBDB"/>
		<stop  offset="0.6343" style="stop-color:#CCCCCC"/>
		<stop  offset="0.7678" style="stop-color:#B8B8B8"/>
		<stop  offset="0.8886" style="stop-color:#9E9E9E"/>
		<stop  offset="0.9962" style="stop-color:#808080"/>
	</linearGradient>
	<path class="st7" d="M341.6-3747.7L341.6-3747.7c-0.2,0-0.3-0.1-0.3-0.3v-91.4c0-0.2,0.1-0.3,0.3-0.3l0,0c0.2,0,0.3,0.1,0.3,0.3
		v91.4C341.9-3747.9,341.7-3747.7,341.6-3747.7z"/>
</g>
<g class="st3">
	<path class="st4" d="M448.3-3967.9v-5.5c0-0.1,0.1-0.2,0.2-0.2h73.1c0.1,0,0.2,0.1,0.2,0.2v5.5c0,0.1-0.1,0.2-0.2,0.2h-73.1
		C448.4-3967.7,448.3-3967.8,448.3-3967.9z"/>
	
		<linearGradient id="SVGID_5_" gradientUnits="userSpaceOnUse" x1="-4704.1284" y1="-2654.4739" x2="-4704.1284" y2="-2728.0396" gradientTransform="matrix(0 1 -1 0 -2206.2158 733.4167)">
		<stop  offset="5.376340e-03" style="stop-color:#000000"/>
		<stop  offset="5.000000e-02" style="stop-color:#F5F5F5"/>
		<stop  offset="0.95" style="stop-color:#FFFFFF"/>
		<stop  offset="1" style="stop-color:#000000"/>
	</linearGradient>
	<path class="st8" d="M448.3-3967.9v-5.5c0-0.1,0.1-0.2,0.2-0.2h73.1c0.1,0,0.2,0.1,0.2,0.2v5.5c0,0.1-0.1,0.2-0.2,0.2h-73.1
		C448.4-3967.7,448.3-3967.8,448.3-3967.9z"/>
	
		<linearGradient id="SVGID_6_" gradientUnits="userSpaceOnUse" x1="-4706.9009" y1="-2654.4739" x2="-4706.9009" y2="-2728.0396" gradientTransform="matrix(0 1 -1 0 -2206.2158 733.4167)">
		<stop  offset="5.376340e-03" style="stop-color:#999999"/>
		<stop  offset="0.5" style="stop-color:#C7C7C7"/>
		<stop  offset="1" style="stop-color:#E6E6E6"/>
	</linearGradient>
	<path class="st9" d="M448.3-3973.5L448.3-3973.5c0-0.1,0.1-0.2,0.2-0.2h73.1c0.1,0,0.2,0.1,0.2,0.2l0,0c0,0.1-0.1,0.2-0.2,0.2
		h-73.1C448.4-3973.3,448.3-3973.4,448.3-3973.5z"/>
	
		<linearGradient id="SVGID_7_" gradientUnits="userSpaceOnUse" x1="-4707.1353" y1="-2691.2568" x2="-4706.667" y2="-2691.2568" gradientTransform="matrix(0 1 -1 0 -2206.2158 733.4167)">
		<stop  offset="0" style="stop-color:#E6E6E6"/>
		<stop  offset="0.3013" style="stop-color:#E3E3E3"/>
		<stop  offset="0.4837" style="stop-color:#DBDBDB"/>
		<stop  offset="0.6343" style="stop-color:#CCCCCC"/>
		<stop  offset="0.7678" style="stop-color:#B8B8B8"/>
		<stop  offset="0.8886" style="stop-color:#9E9E9E"/>
		<stop  offset="0.9962" style="stop-color:#808080"/>
	</linearGradient>
	<path class="st10" d="M448.3-3973.5L448.3-3973.5c0-0.1,0.1-0.2,0.2-0.2h73.1c0.1,0,0.2,0.1,0.2,0.2l0,0c0,0.1-0.1,0.2-0.2,0.2
		h-73.1C448.4-3973.3,448.3-3973.4,448.3-3973.5z"/>
</g>
<g class="st3">
	<path class="st4" d="M548.3-3967.9v-5.5c0-0.1,0.1-0.2,0.2-0.2h73.1c0.1,0,0.2,0.1,0.2,0.2v5.5c0,0.1-0.1,0.2-0.2,0.2h-73.1
		C548.4-3967.7,548.3-3967.8,548.3-3967.9z"/>
	
		<linearGradient id="SVGID_8_" gradientUnits="userSpaceOnUse" x1="-4704.1284" y1="-2754.4739" x2="-4704.1284" y2="-2828.0396" gradientTransform="matrix(0 1 -1 0 -2206.2158 733.4167)">
		<stop  offset="5.376340e-03" style="stop-color:#000000"/>
		<stop  offset="5.000000e-02" style="stop-color:#F5F5F5"/>
		<stop  offset="0.95" style="stop-color:#FFFFFF"/>
		<stop  offset="1" style="stop-color:#000000"/>
	</linearGradient>
	<path class="st11" d="M548.3-3967.9v-5.5c0-0.1,0.1-0.2,0.2-0.2h73.1c0.1,0,0.2,0.1,0.2,0.2v5.5c0,0.1-0.1,0.2-0.2,0.2h-73.1
		C548.4-3967.7,548.3-3967.8,548.3-3967.9z"/>
	
		<linearGradient id="SVGID_9_" gradientUnits="userSpaceOnUse" x1="-4706.9009" y1="-2754.4739" x2="-4706.9009" y2="-2828.0396" gradientTransform="matrix(0 1 -1 0 -2206.2158 733.4167)">
		<stop  offset="5.376340e-03" style="stop-color:#999999"/>
		<stop  offset="0.5" style="stop-color:#C7C7C7"/>
		<stop  offset="1" style="stop-color:#E6E6E6"/>
	</linearGradient>
	<path class="st12" d="M548.3-3973.5L548.3-3973.5c0-0.1,0.1-0.2,0.2-0.2h73.1c0.1,0,0.2,0.1,0.2,0.2l0,0c0,0.1-0.1,0.2-0.2,0.2
		h-73.1C548.4-3973.3,548.3-3973.4,548.3-3973.5z"/>
	
		<linearGradient id="SVGID_10_" gradientUnits="userSpaceOnUse" x1="-4707.1353" y1="-2791.2568" x2="-4706.667" y2="-2791.2568" gradientTransform="matrix(0 1 -1 0 -2206.2158 733.4167)">
		<stop  offset="0" style="stop-color:#E6E6E6"/>
		<stop  offset="0.3013" style="stop-color:#E3E3E3"/>
		<stop  offset="0.4837" style="stop-color:#DBDBDB"/>
		<stop  offset="0.6343" style="stop-color:#CCCCCC"/>
		<stop  offset="0.7678" style="stop-color:#B8B8B8"/>
		<stop  offset="0.8886" style="stop-color:#9E9E9E"/>
		<stop  offset="0.9962" style="stop-color:#808080"/>
	</linearGradient>
	<path class="st13" d="M548.3-3973.5L548.3-3973.5c0-0.1,0.1-0.2,0.2-0.2h73.1c0.1,0,0.2,0.1,0.2,0.2l0,0c0,0.1-0.1,0.2-0.2,0.2
		h-73.1C548.4-3973.3,548.3-3973.4,548.3-3973.5z"/>
</g>
<g id="cam" class="st3">
	<linearGradient id="SVGID_11_" gradientUnits="userSpaceOnUse" x1="378.8088" y1="-3147.3701" x2="391.8878" y2="-3129.0862">
		<stop  offset="5.376340e-03" style="stop-color:#000000"/>
		<stop  offset="1" style="stop-color:#121212"/>
	</linearGradient>
	<path class="st14" d="M395-3140.3c0,6.1-5,11.1-11.1,11.1c-6.1,0-11.1-5-11.1-11.1c0-6.1,5-11.1,11.1-11.1
		C390-3151.4,395-3146.4,395-3140.3z"/>
	<path class="st15" d="M392.6-3140.3c0,4.8-3.9,8.8-8.8,8.8c-4.8,0-8.8-3.9-8.8-8.8c0-4.8,3.9-8.8,8.8-8.8
		C388.7-3149.1,392.6-3145.2,392.6-3140.3z"/>
	<linearGradient id="SVGID_12_" gradientUnits="userSpaceOnUse" x1="382.6388" y1="-3143.2207" x2="388.6027" y2="-3132.4617">
		<stop  offset="5.376340e-03" style="stop-color:#00306A"/>
		<stop  offset="0.4364" style="stop-color:#02050D"/>
		<stop  offset="1" style="stop-color:#002B3F"/>
	</linearGradient>
	<path class="st16" d="M390.2-3140.3c0,3.3-2.7,6-6,6c-3.3,0-6-2.7-6-6c0-3.3,2.7-6,6-6C387.6-3146.3,390.2-3143.6,390.2-3140.3z"/>
	
		<radialGradient id="SVGID_13_" cx="1091.2417" cy="-3664.2573" r="5.3981" gradientTransform="matrix(0.9843 0 0 0.9864 -690.3003 474.1309)" gradientUnits="userSpaceOnUse">
		<stop  offset="0.5775" style="stop-color:#083547"/>
		<stop  offset="1" style="stop-color:#000F26"/>
	</radialGradient>
	<path class="st17" d="M389.4-3140.3c0,3.1-2.5,5.6-5.6,5.6s-5.5-2.5-5.5-5.6c0-3.1,2.5-5.5,5.5-5.5S389.4-3143.4,389.4-3140.3z"/>
	<path class="st18" d="M385.7-3140.3c0,1-0.8,1.9-1.9,1.9c-1,0-1.8-0.8-1.8-1.9c0-1,0.8-1.8,1.8-1.8
		C384.8-3142.1,385.7-3141.3,385.7-3140.3z"/>
	<path class="st19" d="M386.1-3138.4c0,0.4-0.3,0.7-0.7,0.7c-0.4,0-0.6-0.3-0.6-0.7c0-0.4,0.3-0.7,0.6-0.7
		C385.8-3139.1,386.1-3138.8,386.1-3138.4z"/>
	<path class="st19" d="M383.2-3141.2c0,0.3-0.2,0.5-0.5,0.5c-0.3,0-0.5-0.2-0.5-0.5s0.2-0.5,0.5-0.5
		C383-3141.6,383.2-3141.4,383.2-3141.2z"/>
</g>
<path class="st20" d="M-651.3-1040.4c-2.5,0-4.6,1.6-5.7,4l-73.9-21.4c0-0.2,0.1-0.3,0.1-0.5c0-4-2.9-7.2-6.5-7.2s-6.5,3.2-6.5,7.2
	c0,0.7,0.2,1.4,0.4,2.1l-68.8,40.6c-1.2-1.6-2.9-2.8-5-2.8c-3.2,0-5.7,2.6-6.3,5.9h-67.3c-0.5-3.5-3.1-6.2-6.3-6.2
	c-3.3,0-5.9,2.7-6.3,6.2h-67.3c-0.6-3.3-3.1-5.9-6.3-5.9c-3.5,0-6.2,3-6.4,6.8l-67.4,9.9c-0.9-2.9-3.2-5-6.1-5
	c-2.6,0-4.8,1.7-5.8,4.1l-67.7-20c0-0.1,0.1-0.2,0.1-0.3c0-4-2.9-7.2-6.5-7.2c-3.4,0-6.1,2.9-6.4,6.6l-67.3,9.9
	c-0.2-0.9-0.6-1.8-1.2-2.6c-1.1-1.5-2.6-2.5-4.4-2.7c-1.7-0.2-3.4,0.3-4.8,1.5c-1.4,1.2-2.2,2.9-2.4,4.8c-0.2,1.5,0.2,3,0.9,4.3
	l-73.5,65c-1.1-1.5-2.6-2.5-4.4-2.7c-1.7-0.2-3.4,0.3-4.8,1.5c-1.4,1.2-2.2,2.9-2.4,4.8c-0.2,1.9,0.3,3.8,1.4,5.3
	c1.1,1.5,2.6,2.5,4.4,2.7c0.2,0,0.5,0,0.7,0c1.5,0,2.9-0.5,4.1-1.6c1.4-1.2,2.2-2.9,2.4-4.9c0.1-1,0-2-0.2-2.9l73.9-65.4
	c0.9,0.8,2,1.5,3.2,1.6c0.2,0,0.5,0,0.7,0c1.5,0,2.9-0.5,4.1-1.6c1.4-1.2,2.2-2.9,2.4-4.8l0,0l67.3-10c0.8,3,3.2,5.2,6.1,5.2
	c2.6,0,4.9-1.8,5.9-4.3l67.6,20c0,0.2-0.1,0.3-0.1,0.5c0,4,2.9,7.2,6.5,7.2c3.5,0,6.2-3,6.4-6.8l67.4-9.9c0.9,2.9,3.2,5,6.1,5
	c3.2,0,5.7-2.6,6.3-5.9h67.5c0.7,3.2,3.2,5.5,6.2,5.5c3,0,5.5-2.4,6.2-5.5h67.5c0.6,3.3,3.1,5.9,6.3,5.9c3.6,0,6.5-3.2,6.5-7.2
	c0-0.7-0.2-1.4-0.4-2.1l68.8-40.6c1.2,1.6,2.9,2.8,5,2.8c2.6,0,4.8-1.7,5.8-4.1l73.8,21.4c0,0.2-0.1,0.4-0.1,0.6
	c0,4,2.9,7.2,6.5,7.2c3.6,0,6.5-3.2,6.5-7.2C-644.8-1037.2-647.7-1040.4-651.3-1040.4z M-1301.4-933.9c-1.1-0.1-2-0.7-2.7-1.7
	c-0.7-0.9-1-2.1-0.9-3.3c0.1-1.2,0.7-2.3,1.5-3c0.8-0.8,1.9-1.1,3-1c1.1,0.1,2,0.7,2.7,1.7c0.7,0.9,1,2.1,0.9,3.3
	C-1297.2-935.4-1299.2-933.6-1301.4-933.9z M-1214.3-1007.9c-0.8,0.8-1.9,1.1-3,1c-1.1-0.1-2-0.7-2.7-1.7c-0.7-0.9-1-2.1-0.9-3.3
	c0.1-1.2,0.7-2.3,1.5-3c0.9-0.7,1.9-1.1,3-1c1.1,0.1,2,0.7,2.7,1.7c0.7,0.9,1,2.1,0.9,3.3
	C-1212.9-1009.8-1213.5-1008.7-1214.3-1007.9z M-1136.9-1018.2c-2.2,0-4.1-2-4.1-4.5c0-2.5,1.8-4.5,4.1-4.5c2.2,0,4.1,2,4.1,4.5
	C-1132.9-1020.2-1134.7-1018.2-1136.9-1018.2z M-1057-994.8c-2.2,0-4.1-2-4.1-4.5c0-2.5,1.8-4.5,4.1-4.5c2.2,0,4.1,2,4.1,4.5
	C-1052.9-996.8-1054.8-994.8-1057-994.8z M-977.1-1006.6c-2.2,0-4.1-2-4.1-4.5c0-2.5,1.8-4.5,4.1-4.5c2.2,0,4.1,2,4.1,4.5
	C-973-1008.6-974.8-1006.6-977.1-1006.6z M-897.1-1006.9c-2.2,0-4.1-2-4.1-4.5c0-2.5,1.8-4.5,4.1-4.5c2.2,0,4.1,2,4.1,4.5
	C-893.1-1009-894.9-1006.9-897.1-1006.9z M-817.2-1006.6c-2.2,0-4.1-2-4.1-4.5c0-2.5,1.8-4.5,4.1-4.5c2.2,0,4.1,2,4.1,4.5
	C-813.1-1008.6-815-1006.6-817.2-1006.6z M-737.3-1053.8c-2.2,0-4.1-2-4.1-4.5c0-2.5,1.8-4.5,4.1-4.5c2.2,0,4.1,2,4.1,4.5
	C-733.2-1055.8-735-1053.8-737.3-1053.8z M-651.3-1028.7c-2.2,0-4.1-2-4.1-4.5c0-2.5,1.8-4.5,4.1-4.5c2.2,0,4.1,2,4.1,4.5
	C-647.2-1030.7-649-1028.7-651.3-1028.7z"/>
<g>
	<path class="st21" d="M420.1,203.6c-13.2,0-24.3-2.1-33.3-6.2c-9-4.1-15.8-9.4-20.6-15.8c-4.8-6.5-7.3-13.3-7.6-20.4
		c0-1.2,0.5-2.3,1.5-3.3c1-1,2.2-1.5,3.5-1.5h11.6c1.8,0,3.2,0.5,4.1,1.4c0.9,0.9,1.5,2,1.8,3.2c0.9,3.6,2.8,7.3,5.7,10.8
		c2.9,3.6,7,6.5,12.4,8.9c5.4,2.4,12.3,3.5,20.9,3.5c13.1,0,22.7-2.3,28.8-7c6.2-4.6,9.2-10.8,9.2-18.6c0-5.3-1.6-9.6-4.9-12.9
		c-3.3-3.3-8.2-6.2-14.9-8.8c-6.7-2.6-15.4-5.4-26-8.4c-11.1-3.2-20.3-6.7-27.6-10.5c-7.3-3.8-12.7-8.5-16.3-14.1
		c-3.6-5.6-5.4-12.8-5.4-21.4c0-8.2,2.2-15.5,6.6-22c4.4-6.5,10.8-11.6,19.2-15.4c8.4-3.8,18.4-5.7,30.1-5.7
		c9.4,0,17.7,1.3,24.7,3.8c7.1,2.5,13,5.9,17.7,10c4.7,4.2,8.3,8.7,10.7,13.5c2.4,4.8,3.7,9.5,3.9,14c0,1.1-0.4,2.1-1.1,3.1
		c-0.8,1-2,1.5-3.6,1.5H459c-1.1,0-2.2-0.3-3.3-0.9c-1.1-0.6-2-1.7-2.6-3.4c-0.9-6.2-4.4-11.5-10.5-15.7c-6.1-4.3-14-6.4-23.7-6.4
		c-9.9,0-17.9,1.9-24.1,5.7c-6.2,3.8-9.2,9.7-9.2,17.8c0,5.2,1.4,9.5,4.3,12.9c2.9,3.4,7.4,6.4,13.7,9c6.2,2.6,14.4,5.3,24.4,8.2
		c12.2,3.3,22.1,6.9,29.9,10.6c7.8,3.7,13.5,8.4,17.2,13.9c3.7,5.6,5.6,12.7,5.6,21.3c0,9.6-2.5,17.8-7.5,24.5
		c-5,6.8-12,11.9-21.1,15.5C443,201.8,432.4,203.6,420.1,203.6z"/>
	<path class="st21" d="M573.7,203.6c-14,0-25.6-2.6-34.8-7.8c-9.2-5.2-16.2-12.4-20.9-21.7c-4.7-9.3-7.3-20.1-7.8-32.4
		c-0.2-6.2-0.2-12.9-0.2-20.1c0-7.1,0.1-14,0.2-20.5c0.5-12.3,3-23.1,7.8-32.4c4.7-9.3,11.7-16.5,20.9-21.7
		c9.2-5.2,20.8-7.8,34.8-7.8c10.5,0,19.7,1.4,27.6,4.3c7.9,2.9,14.5,6.8,19.7,11.6c5.2,4.9,9.2,10.3,12,16.3
		c2.7,6,4.3,12.2,4.6,18.6c0.2,1.4-0.3,2.5-1.3,3.4c-1,0.9-2.2,1.4-3.5,1.4h-12.5c-1.4,0-2.5-0.4-3.5-1.1c-1-0.8-1.7-2.1-2.2-4.1
		c-2.6-11.9-7.4-20-14.5-24.4c-7.1-4.4-15.8-6.6-26.3-6.6c-12.3,0-22,3.5-29.2,10.4c-7.1,6.9-10.9,18-11.4,33.2
		c-0.5,12.5-0.5,25.2,0,38.3c0.5,15.2,4.3,26.3,11.4,33.2c7.1,6.9,16.9,10.4,29.2,10.4c10.5,0,19.3-2.2,26.3-6.6
		c7.1-4.4,11.9-12.5,14.5-24.4c0.5-2,1.2-3.3,2.2-4.1c1-0.8,2.2-1.1,3.5-1.1h12.5c1.4,0,2.5,0.4,3.5,1.3c1,0.8,1.4,1.9,1.3,3.3
		c-0.3,6.4-1.8,12.6-4.6,18.7c-2.7,6.1-6.7,11.6-12,16.4c-5.2,4.9-11.8,8.7-19.7,11.6C593.4,202.1,584.2,203.6,573.7,203.6z"/>
	<path class="st21" d="M661.5,201.3c-1.2,0-2.3-0.5-3.2-1.4c-0.9-0.9-1.4-2-1.4-3.2c0-0.8,0.1-1.6,0.2-2.5l56.6-147.5
		c0.6-1.5,1.4-2.7,2.5-3.6c1.1-0.9,2.7-1.4,4.8-1.4h15.5c2.1,0,3.7,0.5,4.8,1.4c1.1,0.9,1.9,2.1,2.5,3.6l56.3,147.5
		c0.3,0.9,0.5,1.8,0.5,2.5c0,1.2-0.5,2.3-1.4,3.2c-0.9,0.9-2,1.4-3.2,1.4h-11.6c-1.8,0-3.2-0.5-4-1.4c-0.8-0.9-1.4-1.7-1.7-2.5
		L766.2,165h-74.8l-12.5,32.4c-0.2,0.8-0.7,1.6-1.6,2.5c-0.9,0.9-2.3,1.4-4.1,1.4H661.5z M698,145.4h61.6l-30.8-81L698,145.4z"/>
	<path class="st21" d="M836,201.3c-1.7,0-3-0.5-3.9-1.5c-0.9-1-1.4-2.2-1.4-3.8V47.1c0-1.7,0.5-3,1.4-4c0.9-1,2.2-1.5,3.9-1.5h55.6
		c17.2,0,30.8,4,40.8,12.1c10,8.1,15,20,15,35.8c0,11.7-2.9,21.2-8.8,28.6c-5.9,7.4-13.8,12.5-23.8,15.4l35.1,60.7
		c0.5,0.9,0.7,1.8,0.7,2.5c0,1.2-0.5,2.3-1.5,3.2c-1,0.9-2.1,1.4-3.3,1.4H935c-2.6,0-4.5-0.7-5.7-2.1c-1.2-1.4-2.3-2.7-3.2-4.1
		L893,137.2h-39.9v58.8c0,1.5-0.5,2.8-1.5,3.8c-1,1-2.3,1.5-4,1.5H836z M853.1,117.8h37.6c11.4,0,19.9-2.4,25.5-7.2
		c5.6-4.8,8.4-11.9,8.4-21.3c0-9.3-2.8-16.3-8.3-21.2c-5.6-4.9-14.1-7.3-25.7-7.3h-37.6V117.8z"/>
	<path class="st21" d="M991,201.3c-1.7,0-3-0.5-3.9-1.5c-0.9-1-1.4-2.2-1.4-3.8V47.1c0-1.7,0.5-3,1.4-4c0.9-1,2.2-1.5,3.9-1.5h93
		c1.7,0,3,0.5,4,1.5c1,1,1.5,2.3,1.5,4v9.1c0,1.7-0.5,3-1.5,3.9c-1,0.9-2.3,1.4-4,1.4h-76.2v53.1h71.6c1.7,0,3,0.5,4,1.5
		c1,1,1.5,2.3,1.5,4v9.1c0,1.5-0.5,2.8-1.5,3.8c-1,1-2.3,1.5-4,1.5h-71.6v61.6c0,1.5-0.5,2.8-1.5,3.8c-1,1-2.3,1.5-4,1.5H991z"/>
</g>
<g>
	<path id="XMLID_4_" class="st21" d="M244.5,106.9V92.3c0-11-9-20-20-20h-91.1V28c0-3-2.4-5.4-5.4-5.4h-7.2V6.7c0-3-2.4-5.4-5.4-5.4
		c-3,0-5.4,2.4-5.4,5.4v15.9H94.6V6.7c0-3-2.4-5.4-5.4-5.4c-3,0-5.4,2.4-5.4,5.4v15.9H68.3V6.7c0-3-2.4-5.4-5.4-5.4
		c-3,0-5.4,2.4-5.4,5.4v15.9H41.9V6.7c0-3-2.4-5.4-5.4-5.4c-3,0-5.4,2.4-5.4,5.4v15.9H24c-3,0-5.4,2.4-5.4,5.4v44.5
		C8.4,73.4,0.4,81.9,0.4,92.3v14.6c0,5.7,2.4,10.9,6.3,14.6c-3.9,3.6-6.3,8.8-6.3,14.6v14.6c0,11,9,20,20,20h91.1V215
		c0,3,2.4,5.4,5.4,5.4h7.2v15.9c0,3,2.4,5.4,5.4,5.4s5.4-2.4,5.4-5.4v-15.9h15.5v15.9c0,3,2.4,5.4,5.4,5.4c3,0,5.4-2.4,5.4-5.4
		v-15.9h15.5v15.9c0,3,2.4,5.4,5.4,5.4s5.4-2.4,5.4-5.4v-15.9h15.5v15.9c0,3,2.4,5.4,5.4,5.4s5.4-2.4,5.4-5.4v-15.9h7.2
		c3,0,5.4-2.4,5.4-5.4v-44.5c10.2-0.9,18.1-9.5,18.1-19.9v-14.6c0-5.7-2.4-10.9-6.3-14.6C242.1,117.8,244.5,112.6,244.5,106.9z
		 M29.4,33.4h93.3v39H29.4V33.4z M215.6,209.6h-7.2h-86.2v-39h93.3L215.6,209.6L215.6,209.6z M233.8,106.9c0,5.1-4.1,9.2-9.2,9.2
		h-53.8c-3,0-5.4,2.4-5.4,5.4c0,3,2.4,5.4,5.4,5.4h53.8c5.1,0,9.2,4.1,9.2,9.2v14.6c0,5.1-4.1,9.2-9.2,9.2H221H20.4
		c-5.1,0-9.2-4.1-9.2-9.2v-14.6c0-5.1,4.1-9.2,9.2-9.2h53.8c3,0,5.4-2.4,5.4-5.4c0-3-2.4-5.4-5.4-5.4H20.4c-5.1,0-9.2-4.1-9.2-9.2
		V92.3c0-5.1,4.1-9.2,9.2-9.2h204.2c5.1,0,9.2,4.1,9.2,9.2V106.9z"/>
</g>
</svg>
