<svg xmlns="http://www.w3.org/2000/svg" role="img" viewBox="397.67 416.17 537.16 100.66"><style>svg {isolation:isolate}</style><defs><clipPath id="_clipPath_S7XlP5aqBNDX1Z94HyPqsPpc6o1woQzL"><path d="M0 0h2666.667v933.333H0z"/></clipPath></defs><g clip-path="url(#_clipPath_S7XlP5aqBNDX1Z94HyPqsPpc6o1woQzL)"><clipPath id="_clipPath_a3iyfsMah7mCtKAcnTo2s9vqqcgFOU37"><path fill="#FFF" d="M0 0h2666.667v933.333H0V0z"/></clipPath><g clip-path="url(#_clipPath_a3iyfsMah7mCtKAcnTo2s9vqqcgFOU37)"><path fill="#6268FF" d="M910.598 454.929c0 .729-.59 1.32-1.32 1.32h-8.846c-.73 0-1.322.592-1.322 1.321v27.554c0 .729-.59 1.32-1.32 1.32h-6.676c-.729 0-1.321-.591-1.321-1.32V457.57c0-.729-.592-1.321-1.32-1.321h-8.848c-.729 0-1.321-.591-1.321-1.32v-6.676c0-.729.592-1.321 1.321-1.321h29.653c.73 0 1.32.592 1.32 1.321v6.676zm-41.674 2.123c-2.807 0-5.082-2.275-5.082-5.082 0-2.806 2.275-5.082 5.082-5.082 2.806 0 5.082 2.276 5.082 5.082 0 2.807-2.276 5.082-5.082 5.082zm4.658 28.072c0 .729-.59 1.321-1.32 1.321h-6.676c-.73 0-1.321-.592-1.321-1.321v-21.99c0-.729.591-1.32 1.321-1.32h6.676c.73 0 1.32.591 1.32 1.32v21.99zm31.526-58.458h-40.186c-10.994 0-19.908 8.914-19.908 19.907v40.185c0 10.996 8.914 19.908 19.908 19.908h40.186c10.994 0 19.908-8.912 19.908-19.908v-40.185c0-10.993-8.914-19.907-19.908-19.907z"/><path fill="#FFF" d="M872.262 461.814h-6.676c-.729 0-1.321.592-1.321 1.322v21.989c0 .729.592 1.32 1.321 1.32h6.676c.729 0 1.321-.591 1.321-1.32v-21.989c0-.73-.592-1.322-1.321-1.322z"/><path fill="#FFF" d="M868.924 446.888c-2.807 0-5.083 2.275-5.083 5.083 0 2.805 2.276 5.081 5.083 5.081 2.807 0 5.083-2.276 5.083-5.081 0-2.808-2.276-5.083-5.083-5.083z"/><path fill="#FFF" d="M909.278 446.932h-29.653c-.73 0-1.32.591-1.32 1.32v6.677c0 .73.59 1.32 1.32 1.32h8.848c.729 0 1.32.592 1.32 1.322v27.552c0 .729.592 1.321 1.321 1.321h6.676c.729 0 1.32-.592 1.32-1.321v-27.552c0-.73.592-1.322 1.321-1.322h8.847c.729 0 1.32-.59 1.32-1.32v-6.677c0-.729-.591-1.32-1.32-1.32z"/><path fill="#0A2348" d="M420.036 443.316c8.517-5.764 21.648-3.175 30.2 2.855.609.429 1.426.293 1.841-.326l2.227-3.313c.401-.599.276-1.423-.312-1.84-12.49-8.845-34.49-11.581-42.767 3.087-5.765 12.617 2.616 22.382 15.272 24.892l1.363.344c8.941 2.317 23.7 4.545 18.248 17.358-6.579 10.591-24.123 7.115-33.391.354-.607-.443-1.432-.32-1.86.297l-2.291 3.3c-.401.577-.313 1.387.24 1.823 13.784 10.884 44.288 11.816 44.967-10.682.548-13.164-14-16.45-24.192-18.868-4.693-1.312-10.376-2.545-12.703-6.993-1.708-3.928-.538-9.773 3.158-12.288z"/><path fill="#0A2348" d="M463.932 461.581v20.842c0 8.933 7.243 16.176 16.176 16.176h26.007c.733 0 1.329-.595 1.329-1.33v-3.985c0-.735-.596-1.329-1.329-1.329h-26.007c-5.264 0-9.532-4.268-9.532-9.532v-14.198h26.24c.733 0 1.328-.596 1.328-1.329v-3.985c0-.735-.595-1.33-1.328-1.33h-26.24v-19.296c0-.733.595-1.329 1.328-1.329h34.211c.733 0 1.329-.595 1.329-1.328v-3.987c0-.733-.596-1.328-1.329-1.328h-40.854c-.734 0-1.329.595-1.329 1.328v25.94z"/><path fill="#0A2348" d="M546.99 448.526c6.838-1.729 13.202.368 17.607 4.531.529.5 1.339.52 1.853.005l8.152-8.152c.527-.526.539-1.405.003-1.922-7.288-7.03-17.776-10.759-29.061-8.662-12.975 2.41-23.492 12.787-26.023 25.739-4.111 21.031 11.961 39.524 32.273 39.524 8.858 0 16.891-3.533 22.811-9.245.536-.518.525-1.395-.001-1.92l-8.159-8.159c-.512-.512-1.316-.492-1.843.007-3.353 3.169-7.841 5.144-12.808 5.144-11.778 0-21.057-10.919-18.242-23.168 1.525-6.635 6.838-12.052 13.438-13.722z"/><path fill="#0A2348" d="M661.991 485.415c-10.341 0-18.753-8.41-18.753-18.749 0-10.337 8.412-18.748 18.753-18.748 10.337 0 18.749 8.411 18.749 18.748 0 10.339-8.412 18.749-18.749 18.749zm0-51.67c-18.153 0-32.923 14.768-32.923 32.921 0 18.152 14.77 32.923 32.923 32.923 18.153 0 32.919-14.771 32.919-32.923 0-18.153-14.766-32.921-32.919-32.921z"/><path fill="#0A2348" d="M745.748 469.927c0 9.056-8.29 16.21-17.676 14.284-6.825-1.402-11.532-7.744-11.532-14.712v-33.58c0-.734-.594-1.33-1.329-1.33H703.7c-.734 0-1.329.596-1.329 1.33v33.001c0 14.624 10.483 27.673 24.987 29.536 17.546 2.253 32.56-11.419 32.56-28.529v-34.008c0-.734-.595-1.33-1.33-1.33h-11.51c-.735 0-1.33.596-1.33 1.33v34.008z"/><path fill="#0A2348" d="M597.907 477.954c-.029-.265-.08-.524-.08-.797V435.918c0-.733-.596-1.328-1.329-1.328h-11.512c-.733 0-1.328.595-1.328 1.328v41.239c0 4.277 1.288 8.245 3.447 11.6 3.834 5.962 10.492 9.944 18.092 9.944h19.277c.733 0 1.328-.596 1.328-1.33v-11.516c0-.734-.595-1.329-1.328-1.329h-19.277c-3.788 0-6.886-2.888-7.29-6.572z"/><path fill="#0A2348" d="M795.749 484.526h-11.311c-.733 0-1.329-.594-1.329-1.329v-33.061c0-.735.596-1.33 1.329-1.33h12.105c10.436 0 18.814 8.996 17.776 19.642-.904 9.28-9.246 16.078-18.57 16.078zm-.319-49.893h-25.161c-.734 0-1.33.595-1.33 1.329v61.41c0 .733.596 1.328 1.33 1.328h26.274c19.051 0 34.268-16.715 31.762-36.25-2.072-16.146-16.598-27.817-32.875-27.817z"/></g></g></svg>