<?xml version="1.0" encoding="utf-8"?>
<!-- Generator: Adobe Illustrator 19.2.1, SVG Export Plug-In . SVG Version: 6.00 Build 0)  -->
<svg version="1.1" id="Ebene_1" xmlns="http://www.w3.org/2000/svg" xmlns:xlink="http://www.w3.org/1999/xlink" x="0px" y="0px"
	 viewBox="0 0 368.5 113.4" style="enable-background:new 0 0 368.5 113.4;" xml:space="preserve">
<style type="text/css">
	.st0{fill:#3296DC;}
	.st1{fill:#A9218E;}
</style>
<g>
	<path class="st0" d="M234.5,68.6c0,15.6-9.1,25.9-23.1,25.9c-6,0-11-2.3-14.4-6.6v5.9H178V24.3h18.9v24.5c3.4-4.2,8.2-6.6,14-6.6
		C225.1,42.2,234.5,52.7,234.5,68.6z M215.4,68.1c0-6.7-3.7-11.3-9.3-11.3c-5.4,0-9.2,4.6-9.2,11.3c0,6.7,3.7,11.3,9.2,11.3
		C211.7,79.5,215.4,74.9,215.4,68.1z"/>
	<path class="st0" d="M317.7,42.8l7,13.2l7.9-13.2h20.6l-15.9,24.8l17.1,26.1h-21.7l-7.9-14.4l-9,14.4h-20.8L312,67.8l-16-24.9
		H317.7z"/>
	<path class="st1" d="M286.5,45v-7.5c0-10.6-8.8-19.1-19.4-19.1c-10.6,0-19.4,8.6-19.4,19.1v9c-5.1,5.1-8.2,12.2-8.2,20
		c0,15.7,12.7,28.4,28.4,28.4c15.7,0,28.4-12.7,28.4-28.4C296.4,57.9,292.5,50.2,286.5,45z M273.3,77.7h-11.5l3.1-10.5
		c-2.3-1-3.9-3.3-3.9-6c0-3.6,3-6.6,6.6-6.6s6.6,3,6.6,6.6c0,2.7-1.6,5-3.9,6L273.3,77.7z M279.9,42c-2.5-2.2-6.6-3.9-11.9-3.9
		c-5.3,0-10.2,1-14.4,3.5v-1c0-10,4.1-15.6,14-15.6s12.4,6.4,12.4,16.5V42z"/>
	<g>
		<path class="st0" d="M24.7,29.2c-2.2,0-3.8,0.7-3.8,2.6c0,4.8,13.9,2.2,13.9,11.7c0,5.4-4.8,7.8-10,7.8c-3.8,0-7.9-1.3-10.5-3.6
			l2-4c2.3,2,5.9,3.2,8.8,3.2c2.4,0,4.3-0.8,4.3-2.8c0-5.4-13.8-2.4-13.7-11.8c0-5.3,4.6-7.6,9.6-7.6c3.3,0,6.8,1,9.1,2.7l-2.1,4.2
			C29.9,30.1,27,29.2,24.7,29.2z"/>
		<path class="st0" d="M63.4,40.1H43.7c0.9,4,4,6.5,8.1,6.5c2.9,0,5.5-1.1,7.4-3l3,3.2c-2.6,2.8-6.3,4.4-10.8,4.4
			C43.3,51.3,38,45.9,38,38c0-7.9,5.5-13.3,13.2-13.3C60.4,24.7,64.1,30.7,63.4,40.1z M58.5,36c-0.2-4.2-3-6.8-7.3-6.8
			c-4.1,0-7.1,2.6-7.7,6.8H58.5z"/>
		<path class="st0" d="M80.3,29.7c-4.5,0-7.8,3.4-7.8,8.4s3.2,8.4,7.8,8.4c3.3,0,5.9-1.1,7.7-3.1l3.1,3.1c-2.4,3.1-6.1,4.9-11.1,4.9
			c-7.8,0-13.2-5.4-13.2-13.2c0-7.9,5.4-13.3,13.2-13.3c4.7,0,8.4,1.5,10.8,4.3l-3.1,3.6C85.9,30.8,83.4,29.6,80.3,29.7z"/>
		<path class="st0" d="M120.8,24.9v26.2h-5.7v-5.1c-1.8,3.6-5.1,5.3-9.3,5.3c-6,0-9.6-3.8-9.6-10.1V24.9h5.7v14.7
			c0,3.9,2.3,6.3,6.1,6.3c4.5-0.1,7.2-3.6,7.2-8.2V24.9H120.8z"/>
		<path class="st0" d="M143.9,24.7v5.4c-5.3-0.3-8.6,2.8-9,7.3v13.7h-5.7V24.9h5.7v5.2C136.6,26.6,139.7,24.7,143.9,24.7z"/>
		<path class="st0" d="M171.5,40.1h-19.8c0.9,4,4,6.5,8.1,6.5c2.9,0,5.5-1.1,7.4-3l3,3.2c-2.6,2.8-6.3,4.4-10.8,4.4
			c-8.1,0-13.4-5.4-13.4-13.2c0-7.9,5.5-13.3,13.2-13.3C168.5,24.7,172.2,30.7,171.5,40.1z M166.6,36c-0.2-4.2-3-6.8-7.3-6.8
			c-4.1,0-7.1,2.6-7.7,6.8H166.6z"/>
		<path class="st0" d="M68.5,73c-4.5,0-7.8,3.4-7.8,8.4c0,5,3.2,8.4,7.8,8.4c3.3,0,5.9-1.1,7.7-3.1l3.1,3.1
			c-2.4,3.1-6.1,4.9-11.1,4.9c-7.8,0-13.2-5.4-13.2-13.2c0-7.9,5.4-13.3,13.2-13.3c4.7,0,8.4,1.5,10.8,4.3L76,76
			C74.2,74.1,71.7,73,68.5,73z"/>
		<path class="st0" d="M109.1,81.3c0,7.9-5.6,13.3-13.6,13.3c-8.1,0-13.7-5.4-13.7-13.3c0-7.9,5.6-13.3,13.7-13.3
			C103.5,68.1,109.1,73.4,109.1,81.3z M87.5,81.4c0,5.1,3.3,8.5,8,8.5c4.7,0,8-3.4,8-8.5c0-5-3.3-8.5-8-8.5
			C90.8,72.9,87.5,76.4,87.5,81.4z"/>
		<path class="st0" d="M139.9,57.9v36.5h-5.7v-4.5c-1.9,3-5,4.7-9.2,4.7c-7.5,0-12.5-5.5-12.5-13.4c0-7.9,5.1-13.2,12.4-13.2
			c4.2,0,7.4,1.7,9.3,4.8V57.9H139.9z M134.3,81.4c0-5.1-3.3-8.6-8-8.6c-4.7,0-8,3.6-8.1,8.6c0,5,3.3,8.5,8.1,8.5
			C131,89.9,134.3,86.4,134.3,81.4z"/>
		<path class="st0" d="M171.5,83.5h-19.8c0.9,4,4,6.5,8.1,6.5c2.9,0,5.5-1.1,7.4-3l3,3.2c-2.6,2.8-6.3,4.4-10.8,4.4
			c-8.1,0-13.4-5.4-13.4-13.2c0-7.9,5.5-13.3,13.2-13.3C168.5,68.1,172.2,74.1,171.5,83.5z M166.6,79.4c-0.2-4.2-3-6.8-7.3-6.8
			c-4.1,0-7.1,2.6-7.7,6.8H166.6z"/>
	</g>
</g>
</svg>
