<?xml version="1.0" encoding="UTF-8" standalone="no"?>
<!-- Generator: Adobe Illustrator 16.0.4, SVG Export Plug-In . SVG Version: 6.00 Build 0)  -->

<svg
   xmlns:dc="http://purl.org/dc/elements/1.1/"
   xmlns:cc="http://creativecommons.org/ns#"
   xmlns:rdf="http://www.w3.org/1999/02/22-rdf-syntax-ns#"
   xmlns:svg="http://www.w3.org/2000/svg"
   xmlns="http://www.w3.org/2000/svg"
   xmlns:xlink="http://www.w3.org/1999/xlink"
   xmlns:sodipodi="http://sodipodi.sourceforge.net/DTD/sodipodi-0.dtd"
   xmlns:inkscape="http://www.inkscape.org/namespaces/inkscape"
   version="1.1"
   id="Layer_2"
   x="0px"
   y="0px"
   width="198.426px"
   height="99.212px"
   viewBox="0 0 198.426 99.212"
   enable-background="new 0 0 198.426 99.212"
   xml:space="preserve"
   inkscape:version="0.92.4 (5da689c313, 2019-01-14)"
   sodipodi:docname="logo-text-white.svg"><metadata
     id="metadata78"><rdf:RDF><cc:Work
         rdf:about=""><dc:format>image/svg+xml</dc:format><dc:type
           rdf:resource="http://purl.org/dc/dcmitype/StillImage" /><dc:title /></cc:Work></rdf:RDF></metadata><defs
     id="defs76" /><sodipodi:namedview
     pagecolor="#ffffff"
     bordercolor="#666666"
     borderopacity="1"
     objecttolerance="10"
     gridtolerance="10"
     guidetolerance="10"
     inkscape:pageopacity="0"
     inkscape:pageshadow="2"
     inkscape:window-width="2237"
     inkscape:window-height="748"
     id="namedview74"
     showgrid="false"
     inkscape:zoom="1.8445164"
     inkscape:cx="-48.793277"
     inkscape:cy="50.41922"
     inkscape:window-x="149"
     inkscape:window-y="641"
     inkscape:window-maximized="0"
     inkscape:current-layer="g3" /><g
     id="g3"
     style="display:inline"><defs
       id="defs5"><path
         id="SVGID_1_"
         d="m 20.341,51.676 c 0,-3.94 3.193,-7.136 7.139,-7.136 3.941,0 7.135,3.195 7.135,7.136 0,3.942 -3.193,7.138 -7.135,7.138 -3.946,0 -7.139,-3.196 -7.139,-7.138 M 166.946,32.012 v 14.414 h -11.26 z m -60.357,2.37 c 0,-2.214 0.154,-2.843 0.283,-3.142 0.178,-0.396 0.619,-0.872 1.734,-0.872 0.758,0 1.32,0.349 1.576,0.982 0.129,0.314 0.301,0.973 0.301,3.031 v 2.612 h -3.895 v -2.611 z m 18.855,-21.295 v 33.388 h -6.559 c 0.066,-0.627 0.096,-1.342 0.096,-2.203 v -0.815 h -7.934 v 2.271 c 0,1.523 -0.133,2.501 -0.424,3.082 -0.238,0.474 -0.77,1.039 -1.947,1.039 -0.992,0 -1.451,-0.457 -1.662,-0.836 -0.162,-0.29 -0.377,-0.889 -0.377,-2.731 v -6.645 h 12.344 v -3.183 c 0,-2.635 -0.334,-4.696 -0.998,-6.123 -0.645,-1.387 -1.795,-2.521 -3.412,-3.373 -1.654,-0.865 -3.793,-1.304 -6.367,-1.304 -2.096,0 -3.975,0.366 -5.576,1.085 -1.561,0.701 -2.695,1.717 -3.373,3.018 -0.693,1.338 -1.047,3.211 -1.047,5.572 v 8.214 c 0,1.134 0.057,2.101 0.154,2.931 h -3.564 c 0.018,-0.334 0.039,-0.66 0.039,-1.021 0,-1.913 -0.396,-3.374 -1.178,-4.344 -0.805,-0.999 -2.568,-2.104 -5.244,-3.28 -2.129,-0.941 -3.51,-1.648 -4.217,-2.157 -0.773,-0.554 -1.232,-1.079 -1.406,-1.603 -0.154,-0.462 -0.229,-1.14 -0.229,-2.071 0,-0.766 0.176,-1.368 0.529,-1.79 0.373,-0.448 0.924,-0.675 1.629,-0.675 0.889,0 1.475,0.282 1.74,0.835 0.139,0.297 0.299,0.872 0.299,2.711 v 1.527 h 7.344 v -1.634 c 0,-1.362 -0.076,-2.366 -0.232,-2.986 -0.139,-0.562 -0.566,-1.204 -1.27,-1.906 -0.713,-0.713 -1.766,-1.299 -3.133,-1.745 -1.395,-0.453 -3.117,-0.682 -5.127,-0.682 -2.018,0 -3.807,0.281 -5.318,0.836 -1.457,0.533 -2.494,1.287 -3.084,2.244 -0.605,0.976 -0.91,2.552 -0.91,4.687 0,1.482 0.287,2.776 0.857,3.846 0.555,1.044 2.199,2.263 4.881,3.616 4.498,2.252 5.396,2.844 5.688,3.114 0.465,0.459 0.682,1.387 0.682,2.921 0,1.142 -0.17,1.868 -0.539,2.287 -0.375,0.427 -0.992,0.645 -1.83,0.645 -1.072,0 -1.549,-0.542 -1.762,-0.998 -0.16,-0.339 -0.371,-1.038 -0.371,-3.185 V 43.337 H 75.29 v 1.904 c 0,0.438 0.021,0.838 0.045,1.233 H 68.308 C 65.824,32.408 53.447,21.713 38.538,21.713 c -16.697,0 -30.234,13.415 -30.234,29.962 0,16.548 13.537,29.962 30.234,29.962 14.93,0 27.324,-10.727 29.781,-24.824 l 98.627,0.003 v 9.856 h 13.277 v -9.856 h 5.898 v -10.39 h -5.898 V 19.409 h -13.008 l -22.697,27.066 v 0 h -6.363 V 13.087 Z"
         inkscape:connector-curvature="0" /></defs><clipPath
       id="SVGID_2_"><use
         xlink:href="#SVGID_1_"
         overflow="visible"
         id="use9"
         style="overflow:visible"
         x="0"
         y="0"
         width="100%"
         height="100%" /></clipPath><radialGradient
       id="SVGID_3_"
       cx="-260.23541"
       cy="697.83301"
       r="0.48030001"
       gradientTransform="matrix(140.2563,0,0,-140.2563,36596.844,97922.703)"
       gradientUnits="userSpaceOnUse"><stop
         offset="0"
         style="stop-color:#96CA4F"
         id="stop12" /><stop
         offset="1"
         style="stop-color:#58B947"
         id="stop14" /></radialGradient><rect
       x="8.3039999"
       y="13.087"
       clip-path="url(#SVGID_2_)"
       width="177.81799"
       height="68.551003"
       id="rect16"
       style="fill:#96ca4f;fill-opacity:1" /></g><g
     id="g18"><path
       d="M68.202,81.593l1.185-0.14c0.133,0.937,0.569,1.404,1.31,1.404c0.366,0,0.654-0.096,0.864-0.287s0.314-0.429,0.314-0.712   c0-0.167-0.036-0.308-0.109-0.425c-0.073-0.116-0.185-0.212-0.335-0.287c-0.149-0.075-0.513-0.2-1.09-0.376   c-0.516-0.156-0.895-0.326-1.134-0.509c-0.24-0.183-0.431-0.423-0.572-0.722c-0.142-0.298-0.213-0.618-0.213-0.961   c0-0.399,0.091-0.759,0.272-1.079c0.182-0.32,0.433-0.561,0.752-0.724c0.32-0.163,0.715-0.245,1.185-0.245   c0.706,0,1.258,0.191,1.654,0.575s0.606,0.931,0.63,1.644L71.7,78.814c-0.053-0.393-0.168-0.668-0.345-0.825   c-0.177-0.156-0.428-0.235-0.754-0.235c-0.327,0-0.578,0.068-0.755,0.205s-0.265,0.306-0.265,0.508c0,0.2,0.08,0.367,0.24,0.503   s0.528,0.286,1.104,0.449c0.609,0.177,1.05,0.362,1.321,0.558c0.271,0.195,0.479,0.446,0.622,0.754s0.215,0.682,0.215,1.122   c0,0.636-0.196,1.171-0.587,1.604c-0.392,0.433-1.004,0.649-1.837,0.649C69.188,84.106,68.369,83.269,68.202,81.593z"
       id="path20" /><path
       d="M76.629,82.297l1.145,0.235c-0.154,0.533-0.393,0.929-0.716,1.187c-0.324,0.258-0.718,0.387-1.181,0.387   c-0.645,0-1.142-0.215-1.491-0.646c-0.414-0.5-0.621-1.202-0.621-2.103c0-0.888,0.209-1.599,0.625-2.133   c0.354-0.451,0.81-0.676,1.369-0.676c0.623,0,1.111,0.23,1.465,0.69c0.406,0.527,0.609,1.305,0.609,2.333l-0.005,0.16h-2.884   c0.007,0.421,0.102,0.748,0.283,0.979c0.182,0.23,0.401,0.346,0.659,0.346C76.258,83.057,76.505,82.804,76.629,82.297z    M76.688,80.873c-0.01-0.415-0.099-0.727-0.265-0.936c-0.167-0.209-0.365-0.313-0.595-0.313c-0.243,0-0.448,0.109-0.615,0.326   c-0.17,0.221-0.253,0.529-0.249,0.923H76.688z"
       id="path22" /><path
       d="M82.564,80.238l-1.134,0.25c-0.084-0.557-0.347-0.834-0.789-0.834c-0.285,0-0.515,0.12-0.688,0.361   c-0.175,0.241-0.262,0.646-0.262,1.218c0,0.632,0.087,1.078,0.261,1.338c0.174,0.261,0.405,0.391,0.696,0.391   c0.217,0,0.396-0.074,0.536-0.222c0.141-0.148,0.241-0.411,0.301-0.787l1.135,0.235c-0.233,1.279-0.905,1.919-2.015,1.919   c-0.709,0-1.235-0.271-1.579-0.811c-0.343-0.541-0.515-1.191-0.515-1.953c0-0.911,0.194-1.604,0.583-2.08s0.898-0.713,1.528-0.713   c0.511,0,0.927,0.135,1.249,0.405C82.193,79.224,82.425,79.652,82.564,80.238z"
       id="path24" /><path
       d="M86.288,83.981v-0.794c-0.159,0.288-0.369,0.513-0.628,0.675c-0.26,0.163-0.531,0.244-0.813,0.244   c-0.286,0-0.542-0.075-0.769-0.225c-0.226-0.15-0.395-0.363-0.506-0.64s-0.167-0.679-0.167-1.206v-3.361h1.154v2.438   c0,0.696,0.017,1.139,0.052,1.327c0.035,0.188,0.112,0.334,0.231,0.437c0.12,0.104,0.265,0.155,0.434,0.155   c0.193,0,0.371-0.067,0.533-0.202c0.163-0.135,0.271-0.308,0.321-0.52c0.052-0.211,0.077-0.677,0.077-1.396v-2.239h1.155v5.307   H86.288z"
       id="path26" /><path
       d="M89.666,83.981h-1.154v-5.307h1.069v0.754c0.184-0.353,0.348-0.588,0.492-0.705c0.146-0.117,0.312-0.175,0.503-0.175   c0.263,0,0.515,0.088,0.754,0.265l-0.359,1.225c-0.19-0.153-0.37-0.23-0.54-0.23c-0.16,0-0.301,0.059-0.422,0.178   c-0.122,0.118-0.209,0.333-0.263,0.643c-0.054,0.311-0.08,0.881-0.08,1.711V83.981z"
       id="path28" /><path
       d="M91.825,77.955v-1.299h1.154v1.299H91.825z M91.825,83.981v-5.307h1.154v5.307H91.825z"
       id="path30" /><path
       d="M96.148,78.674v1.119h-0.784v2.143c0,0.464,0.011,0.732,0.034,0.806c0.047,0.134,0.142,0.2,0.285,0.2   c0.106,0,0.26-0.045,0.46-0.135l0.1,1.089c-0.267,0.14-0.568,0.21-0.904,0.21c-0.293,0-0.528-0.07-0.705-0.21   c-0.177-0.14-0.295-0.342-0.354-0.605c-0.047-0.193-0.07-0.587-0.07-1.181v-2.316H93.68v-1.119h0.529V77.62l1.155-0.82v1.875   H96.148z"
       id="path32" /><path
       d="M96.403,78.674h1.229l1.037,3.77l1.017-3.77h1.195l-1.535,5.107l-0.296,0.994c-0.13,0.373-0.26,0.646-0.388,0.82   c-0.129,0.173-0.292,0.307-0.49,0.4c-0.199,0.093-0.443,0.14-0.733,0.14c-0.224,0-0.442-0.028-0.656-0.085l-0.1-1.099   c0.18,0.043,0.342,0.065,0.485,0.065c0.22,0,0.4-0.073,0.542-0.22c0.142-0.146,0.258-0.412,0.349-0.798L96.403,78.674z"
       id="path34" /><path
       d="M101.006,83.981v-1.404h1.149v1.404H101.006z"
       id="path36" /><path
       d="M105.679,83.981v-7.326h1.949c0.727,0,1.201,0.035,1.425,0.105c0.356,0.113,0.65,0.354,0.882,0.725   c0.231,0.37,0.347,0.846,0.347,1.429c0,0.53-0.1,0.974-0.3,1.332c-0.199,0.358-0.449,0.61-0.749,0.755s-0.816,0.217-1.55,0.217   h-0.794v2.764H105.679z M106.889,77.895v2.084h0.671c0.451,0,0.757-0.032,0.919-0.095s0.295-0.178,0.398-0.343   c0.104-0.165,0.155-0.368,0.155-0.608c0-0.244-0.054-0.449-0.16-0.616s-0.239-0.279-0.396-0.336   c-0.157-0.057-0.489-0.085-0.997-0.085H106.889z"
       id="path38" /><path
       d="M113.8,82.297l1.145,0.235c-0.154,0.533-0.393,0.929-0.716,1.187c-0.324,0.258-0.718,0.387-1.181,0.387   c-0.645,0-1.142-0.215-1.491-0.646c-0.414-0.5-0.621-1.202-0.621-2.103c0-0.888,0.209-1.599,0.625-2.133   c0.354-0.451,0.81-0.676,1.369-0.676c0.623,0,1.111,0.23,1.465,0.69c0.406,0.527,0.609,1.305,0.609,2.333l-0.005,0.16h-2.884   c0.007,0.421,0.102,0.748,0.283,0.979c0.182,0.23,0.401,0.346,0.659,0.346C113.429,83.057,113.676,82.804,113.8,82.297z    M113.859,80.873c-0.01-0.415-0.099-0.727-0.265-0.936c-0.167-0.209-0.365-0.313-0.595-0.313c-0.243,0-0.448,0.109-0.615,0.326   c-0.17,0.221-0.253,0.529-0.249,0.923H113.859z"
       id="path40" /><path
       d="M117.043,83.981h-1.154v-5.307h1.069v0.754c0.184-0.353,0.348-0.588,0.492-0.705c0.146-0.117,0.312-0.175,0.503-0.175   c0.263,0,0.515,0.088,0.754,0.265l-0.359,1.225c-0.19-0.153-0.37-0.23-0.54-0.23c-0.16,0-0.301,0.059-0.422,0.178   c-0.122,0.118-0.209,0.333-0.263,0.643c-0.054,0.311-0.08,0.881-0.08,1.711V83.981z"
       id="path42" /><path
       d="M118.696,78.674h0.64v-0.4c0-0.483,0.046-0.833,0.138-1.05c0.092-0.216,0.241-0.386,0.446-0.51   c0.205-0.123,0.458-0.185,0.759-0.185c0.327,0,0.647,0.06,0.962,0.18l-0.15,0.975c-0.187-0.053-0.365-0.08-0.535-0.08   c-0.163,0-0.281,0.047-0.354,0.141s-0.109,0.278-0.109,0.552v0.377h0.859v1.104h-0.859v4.203h-1.155v-4.203h-0.64V78.674z"
       id="path44" /><path
       d="M121.726,81.252c0-0.521,0.104-0.994,0.31-1.421c0.207-0.427,0.477-0.748,0.81-0.961s0.708-0.32,1.125-0.32   c0.699,0,1.249,0.274,1.648,0.823c0.4,0.549,0.6,1.191,0.6,1.925c0,0.547-0.104,1.042-0.312,1.482   c-0.209,0.44-0.481,0.772-0.82,0.994c-0.338,0.222-0.709,0.333-1.111,0.333c-0.646,0-1.183-0.247-1.609-0.741   C121.938,82.872,121.726,82.167,121.726,81.252z M122.905,81.328c0,0.538,0.104,0.945,0.315,1.221   c0.21,0.276,0.464,0.414,0.761,0.414c0.291,0,0.54-0.139,0.747-0.416s0.311-0.687,0.311-1.228c0-0.528-0.105-0.931-0.315-1.208   c-0.211-0.277-0.463-0.417-0.757-0.417c-0.29,0-0.54,0.139-0.749,0.417S122.905,80.793,122.905,81.328z"
       id="path46" /><path
       d="M128.228,83.981h-1.154v-5.307h1.069v0.754c0.184-0.353,0.348-0.588,0.492-0.705c0.146-0.117,0.312-0.175,0.503-0.175   c0.263,0,0.515,0.088,0.754,0.265l-0.359,1.225c-0.19-0.153-0.37-0.23-0.54-0.23c-0.16,0-0.301,0.059-0.422,0.178   c-0.122,0.118-0.209,0.333-0.263,0.643c-0.054,0.311-0.08,0.881-0.08,1.711V83.981z"
       id="path48" /><path
       d="M130.296,78.674h1.06v0.725c0.189-0.283,0.398-0.496,0.625-0.637s0.471-0.212,0.734-0.212c0.28,0,0.522,0.07,0.728,0.21   c0.204,0.14,0.372,0.352,0.502,0.634c0.193-0.283,0.4-0.495,0.622-0.634c0.222-0.14,0.457-0.21,0.707-0.21   c0.297,0,0.553,0.071,0.768,0.212s0.378,0.344,0.489,0.608c0.111,0.263,0.168,0.668,0.168,1.215v3.396h-1.155v-3.037   c0-0.53-0.046-0.883-0.14-1.058c-0.093-0.175-0.25-0.263-0.47-0.263c-0.257,0-0.463,0.123-0.619,0.368   c-0.157,0.246-0.235,0.725-0.235,1.438v2.552h-1.154v-2.912c0-0.577-0.032-0.949-0.095-1.116c-0.084-0.22-0.252-0.33-0.505-0.33   c-0.17,0-0.327,0.057-0.47,0.17c-0.144,0.113-0.247,0.279-0.311,0.498c-0.062,0.219-0.095,0.588-0.095,1.108v2.582h-1.154V78.674z"
       id="path50" /><path
       d="M138.707,80.288l-1.044-0.229c0.126-0.537,0.336-0.922,0.627-1.157c0.292-0.235,0.711-0.352,1.257-0.352   c0.486,0,0.858,0.068,1.114,0.205c0.257,0.137,0.44,0.323,0.55,0.558c0.11,0.235,0.165,0.663,0.165,1.283l-0.01,1.641   c0,0.46,0.019,0.803,0.055,1.028c0.037,0.225,0.105,0.464,0.205,0.718h-1.14l-0.149-0.58c-0.197,0.233-0.407,0.409-0.633,0.527   c-0.225,0.118-0.464,0.177-0.717,0.177c-0.423,0-0.77-0.143-1.039-0.428c-0.271-0.286-0.405-0.665-0.405-1.139   c0-0.3,0.055-0.562,0.165-0.786s0.265-0.402,0.465-0.536s0.52-0.252,0.959-0.355c0.533-0.123,0.905-0.238,1.115-0.345   c0-0.295-0.021-0.488-0.062-0.58c-0.042-0.092-0.119-0.167-0.23-0.227c-0.111-0.059-0.269-0.088-0.472-0.088   c-0.207,0-0.369,0.047-0.487,0.14S138.78,80.032,138.707,80.288z M140.247,81.433c-0.147,0.06-0.375,0.13-0.686,0.21   c-0.356,0.094-0.589,0.197-0.699,0.311s-0.165,0.261-0.165,0.441c0,0.204,0.061,0.375,0.183,0.514   c0.121,0.139,0.274,0.208,0.457,0.208c0.163,0,0.325-0.056,0.485-0.167c0.159-0.112,0.271-0.245,0.332-0.399   c0.062-0.153,0.093-0.433,0.093-0.837V81.433z"
       id="path52" /><path
       d="M146.473,83.981h-1.154V81.27c0-0.543-0.021-0.905-0.064-1.085c-0.044-0.18-0.125-0.319-0.243-0.416   s-0.252-0.145-0.402-0.145c-0.192,0-0.368,0.062-0.524,0.188c-0.156,0.125-0.267,0.298-0.33,0.518s-0.095,0.635-0.095,1.246v2.407   h-1.154v-5.307h1.069v0.774c0.19-0.3,0.404-0.525,0.643-0.675s0.502-0.225,0.792-0.225c0.336,0,0.62,0.087,0.852,0.262   c0.231,0.175,0.392,0.4,0.48,0.675c0.088,0.275,0.132,0.673,0.132,1.193V83.981z"
       id="path54" /><path
       d="M151.44,80.238l-1.134,0.25c-0.084-0.557-0.347-0.834-0.789-0.834c-0.285,0-0.515,0.12-0.688,0.361   c-0.175,0.241-0.262,0.646-0.262,1.218c0,0.632,0.087,1.078,0.261,1.338c0.174,0.261,0.405,0.391,0.696,0.391   c0.217,0,0.396-0.074,0.536-0.222c0.141-0.148,0.241-0.411,0.301-0.787l1.135,0.235c-0.233,1.279-0.905,1.919-2.015,1.919   c-0.709,0-1.235-0.271-1.579-0.811c-0.343-0.541-0.515-1.191-0.515-1.953c0-0.911,0.194-1.604,0.583-2.08s0.898-0.713,1.528-0.713   c0.511,0,0.927,0.135,1.249,0.405C151.069,79.224,151.301,79.652,151.44,80.238z"
       id="path56" /><path
       d="M154.839,82.297l1.145,0.235c-0.154,0.533-0.393,0.929-0.716,1.187c-0.324,0.258-0.718,0.387-1.181,0.387   c-0.645,0-1.142-0.215-1.491-0.646c-0.414-0.5-0.621-1.202-0.621-2.103c0-0.888,0.209-1.599,0.625-2.133   c0.354-0.451,0.81-0.676,1.369-0.676c0.623,0,1.111,0.23,1.465,0.69c0.406,0.527,0.609,1.305,0.609,2.333l-0.005,0.16h-2.884   c0.007,0.421,0.102,0.748,0.283,0.979c0.182,0.23,0.401,0.346,0.659,0.346C154.468,83.057,154.715,82.804,154.839,82.297z    M154.898,80.873c-0.01-0.415-0.099-0.727-0.265-0.936c-0.167-0.209-0.365-0.313-0.595-0.313c-0.243,0-0.448,0.109-0.615,0.326   c-0.17,0.221-0.253,0.529-0.249,0.923H154.898z"
       id="path58" /><path
       d="M156.978,83.981v-1.404h1.149v1.404H156.978z"
       id="path60" /><path
       d="M161.65,83.981v-7.326h1.949c0.727,0,1.201,0.035,1.425,0.105c0.356,0.113,0.65,0.354,0.882,0.725   c0.231,0.37,0.347,0.846,0.347,1.429c0,0.53-0.1,0.974-0.3,1.332c-0.199,0.358-0.449,0.61-0.749,0.755s-0.816,0.217-1.55,0.217   h-0.794v2.764H161.65z M162.86,77.895v2.084h0.671c0.451,0,0.757-0.032,0.919-0.095s0.295-0.178,0.398-0.343   c0.104-0.165,0.155-0.368,0.155-0.608c0-0.244-0.054-0.449-0.16-0.616s-0.239-0.279-0.396-0.336   c-0.157-0.057-0.489-0.085-0.997-0.085H162.86z"
       id="path62" /><path
       d="M168.347,83.981h-1.154v-5.307h1.069v0.754c0.184-0.353,0.348-0.588,0.492-0.705c0.146-0.117,0.312-0.175,0.503-0.175   c0.263,0,0.515,0.088,0.754,0.265l-0.359,1.225c-0.19-0.153-0.37-0.23-0.54-0.23c-0.16,0-0.301,0.059-0.422,0.178   c-0.122,0.118-0.209,0.333-0.263,0.643c-0.054,0.311-0.08,0.881-0.08,1.711V83.981z"
       id="path64" /><path
       d="M170.236,81.252c0-0.521,0.104-0.994,0.31-1.421c0.207-0.427,0.477-0.748,0.81-0.961s0.708-0.32,1.125-0.32   c0.699,0,1.249,0.274,1.648,0.823c0.4,0.549,0.6,1.191,0.6,1.925c0,0.547-0.104,1.042-0.312,1.482   c-0.209,0.44-0.481,0.772-0.82,0.994c-0.338,0.222-0.709,0.333-1.111,0.333c-0.646,0-1.183-0.247-1.609-0.741   C170.449,82.872,170.236,82.167,170.236,81.252z M171.416,81.328c0,0.538,0.104,0.945,0.315,1.221   c0.21,0.276,0.464,0.414,0.761,0.414c0.291,0,0.54-0.139,0.747-0.416s0.311-0.687,0.311-1.228c0-0.528-0.105-0.931-0.315-1.208   c-0.211-0.277-0.463-0.417-0.757-0.417c-0.29,0-0.54,0.139-0.749,0.417S171.416,80.793,171.416,81.328z"
       id="path66" /><path
       d="M175.363,81.252c0-0.521,0.104-0.994,0.31-1.421c0.207-0.427,0.477-0.748,0.81-0.961s0.708-0.32,1.125-0.32   c0.699,0,1.249,0.274,1.648,0.823c0.4,0.549,0.6,1.191,0.6,1.925c0,0.547-0.104,1.042-0.312,1.482   c-0.209,0.44-0.481,0.772-0.82,0.994c-0.338,0.222-0.709,0.333-1.111,0.333c-0.646,0-1.183-0.247-1.609-0.741   C175.576,82.872,175.363,82.167,175.363,81.252z M176.543,81.328c0,0.538,0.104,0.945,0.315,1.221   c0.21,0.276,0.464,0.414,0.761,0.414c0.291,0,0.54-0.139,0.747-0.416s0.311-0.687,0.311-1.228c0-0.528-0.105-0.931-0.315-1.208   c-0.211-0.277-0.463-0.417-0.757-0.417c-0.29,0-0.54,0.139-0.749,0.417S176.543,80.793,176.543,81.328z"
       id="path68" /><path
       d="M180.256,78.674h0.64v-0.4c0-0.483,0.046-0.833,0.138-1.05c0.092-0.216,0.241-0.386,0.446-0.51   c0.205-0.123,0.458-0.185,0.759-0.185c0.327,0,0.647,0.06,0.962,0.18l-0.15,0.975c-0.187-0.053-0.365-0.08-0.535-0.08   c-0.163,0-0.281,0.047-0.354,0.141s-0.109,0.278-0.109,0.552v0.377h0.859v1.104h-0.859v4.203h-1.155v-4.203h-0.64V78.674z"
       id="path70" /><path
       d="M183.555,83.981v-1.404h1.149v1.404H183.555z"
       id="path72" /></g></svg>