<svg version="1.1" id="Layer_1" xmlns:x="ns_extend;" xmlns:i="ns_ai;" xmlns:graph="ns_graphs;" xmlns="http://www.w3.org/2000/svg" xmlns:xlink="http://www.w3.org/1999/xlink" x="0px" y="0px" viewBox="0 0 123.8 153.6" style="enable-background:new 0 0 123.8 153.6;" xml:space="preserve">
 <style type="text/css">
  .st0{fill:#5159FF;}
	.st1{fill:#FF4072;}
	.st2{fill:#00DED0;}
 </style>
 <metadata>
  <sfw xmlns="ns_sfw;">
   <slices>
   </slices>
   <sliceSourceBounds bottomLeftOrigin="true" height="153.6" width="123.8" x="97.8" y="-218.5">
   </sliceSourceBounds>
  </sfw>
 </metadata>
 <g>
  <path class="st0" d="M96.6,12.8c4.4,0,7.9,3.6,7.9,7.9s-3.6,7.9-7.9,7.9c-0.3,0-1-0.1-1.7-0.2l-13.5-3.1l9.4-10.1
		C92.4,13.7,94.5,12.8,96.6,12.8 M96.6,0C91,0,85.5,2.4,81.6,6.5L56.9,32.9L92.6,41c0.6,0.1,2.6,0.4,4.1,0.4
		c11.4,0,20.7-9.3,20.7-20.7C117.4,9.3,108.1,0,96.6,0L96.6,0z">
  </path>
  <path class="st1" d="M27.1,125c0.5,0,1.1,0.1,1.7,0.2l13.5,3.1l-9.4,10.1c-1.5,1.6-3.6,2.5-5.8,2.5c-4.4,0-7.9-3.6-7.9-7.9
		C19.2,128.5,22.7,125,27.1,125 M27.1,112.2c-11.4,0-20.7,9.3-20.7,20.7c0,11.4,9.3,20.7,20.7,20.7c5.7,0,11.2-2.4,15.1-6.5
		l24.7-26.4l-35.3-8C30.1,112.3,28.6,112.2,27.1,112.2L27.1,112.2z">
  </path>
  <path class="st2" d="M27.1,27.7c6.2,0,11.6,3.9,13.6,9.8l10.5,28.6L22.3,55.5c-5.7-2.1-9.5-7.5-9.5-13.5
		C12.8,34.1,19.2,27.7,27.1,27.7 M72.6,87.5L101.3,98c5.8,2,9.6,7.4,9.6,13.5c0,7.9-6.4,14.3-14.3,14.3c-6.2,0-11.9-4.2-13.7-10.2
		L72.6,87.5z M27.1,14.9C12.2,14.9,0,27.1,0,42c0,11.4,7.2,21.7,18,25.5l38.9,14.2l13.8,37.6c3.5,11.4,14.1,19.3,26,19.3
		c15,0,27.1-12.2,27.1-27.1c0-11.5-7.3-21.8-18.2-25.6L66.9,71.8L52.8,33.4C49.1,22.3,38.8,14.9,27.1,14.9L27.1,14.9">
  </path>
 </g>
</svg>