<?xml version="1.0" encoding="UTF-8" standalone="no"?>
<svg
   xmlns:dc="http://purl.org/dc/elements/1.1/"
   xmlns:cc="http://creativecommons.org/ns#"
   xmlns:rdf="http://www.w3.org/1999/02/22-rdf-syntax-ns#"
   xmlns:svg="http://www.w3.org/2000/svg"
   xmlns="http://www.w3.org/2000/svg"
   viewBox="0 0 1333.3333 1333"
   height="1333"
   width="1333.3333"
   xml:space="preserve"
   id="svg2"
   version="1.1"><metadata
     id="metadata8"><rdf:RDF><cc:Work
         rdf:about=""><dc:format>image/svg+xml</dc:format><dc:type
           rdf:resource="http://purl.org/dc/dcmitype/StillImage" /></cc:Work></rdf:RDF></metadata><defs
     id="defs6" /><g
     transform="matrix(1.3333333,0,0,-1.3333333,0,1333)"
     id="g10"><g
       transform="scale(0.1)"
       id="g12"><path
         id="path14"
         style="fill:#293055;fill-opacity:1;fill-rule:nonzero;stroke:none"
         d="m 777.98,1817.56 c 64.223,41.3 156.047,62 275.39,62 142.26,0 264.49,-27.01 366.62,-80.91 102.09,-53.95 126.8,-67.37 296.47,-218.75 l 304.23,351.29 c -130.82,144.57 -272.54,248.97 -425.13,313.24 -152.65,64.23 -336.83,96.38 -552.51,96.38 -201.98,0 -376.945,-31.58 -524.96,-94.64 C 370.055,2183 257.598,2095.24 180.738,1982.82 103.813,1870.32 65.4023,1742.97 65.4023,1600.7 c 0,-142.3 34.9687,-259.34 105.0077,-351.1 69.977,-91.85 168.668,-164.7 296.051,-218.61 127.355,-53.927 288.555,-100.431 483.644,-139.42 158.345,-29.851 271.345,-61.441 339.075,-94.64 67.67,-33.328 101.55,-76.34 101.55,-129.11 0,-66.57 -31.57,-117.64 -94.66,-153.191 -63.15,-35.598 -157.82,-53.328 -284,-53.328 -158.343,0 -293.785,25.219 -406.203,75.719 C 493.391,587.48 399.262,649.359 279.871,767.191 L 0,385.52 C 117.055,254.719 255.879,157.77 416.523,94.6797 577.133,31.5898 785.996,0 1043.05,0 c 183.57,0 348.22,27.5391 493.97,82.6094 145.73,55.0706 259.91,135.3826 342.52,240.9536 82.63,105.539 123.94,230.679 123.94,375.246 0,199.64 -67.12,354.541 -201.39,464.731 -134.24,110.15 -358.59,193.9 -672.99,251.28 -162.979,29.81 -278.287,62.48 -345.959,98.13 -67.711,35.5 -101.543,82 -101.543,139.38 0,68.85 32.113,123.92 96.382,165.23" /><path
         id="path16"
         style="fill:#293055;fill-opacity:1;fill-rule:nonzero;stroke:none"
         d="m 2726.36,1043.02 c 34.42,224.92 144.57,337.38 330.47,337.38 183.57,0 289.17,-112.46 316.71,-337.38 z m 333.91,747 c -286.9,0 -508.35,-78.04 -664.38,-234.07 -156.1,-156.07 -234.09,-376.41 -234.09,-660.938 0,-284.571 79.72,-504.91 239.25,-660.942 C 2560.53,78 2790.59,0 3091.25,0 c 201.92,0 372.3,38.3906 511.19,115.332 138.82,76.859 232.36,188.707 280.56,335.629 l -475.05,151.461 c -18.4,-61.953 -54.54,-109.012 -108.44,-141.121 -53.94,-32.199 -123.38,-48.199 -208.26,-48.199 -101.02,0 -181.91,25.187 -242.69,75.73 -60.83,50.418 -100.42,129.617 -118.76,237.52 h 1173.85 c 11.46,50.449 17.21,114.718 17.21,192.75 0,275.418 -74,489.358 -222.02,642.028 -148.03,152.6 -360.92,228.89 -638.57,228.89" /><path
         id="path18"
         style="fill:#293055;fill-opacity:1;fill-rule:nonzero;stroke:none"
         d="m 5290.9,1790.02 c -135.44,0 -253.61,-30.41 -354.57,-91.19 -101.02,-60.83 -179.02,-152.07 -234.09,-273.69 l -17.21,330.45 H 4161.8 V 34.4219 h 585.19 V 943.199 c 0,135.381 28.67,235.811 86.05,301.211 57.35,65.4 131.96,98.13 223.77,98.13 77.99,0 138.23,-24.71 180.71,-74.04 42.44,-49.36 63.7,-132.54 63.7,-249.58 V 34.4219 h 585.2 V 1180.75 c 0,195.03 -53.95,345.35 -161.79,450.93 -107.9,105.53 -252.47,158.34 -433.73,158.34" /><path
         id="path20"
         style="fill:#293055;fill-opacity:1;fill-rule:nonzero;stroke:none"
         d="m 6781.43,1363.19 c 45.87,25.23 110.14,37.86 192.76,37.86 105.54,0 196.25,-18.39 271.97,-55.08 75.73,-36.72 141.13,-95.24 196.21,-175.54 l 302.91,296.02 c -78.03,107.84 -179.56,188.75 -304.65,242.7 -125.09,53.89 -286.31,80.87 -483.65,80.87 -178.99,0 -331.06,-26.98 -456.11,-80.87 -125.1,-53.95 -218.57,-124.52 -280.52,-211.72 -62,-87.23 -92.98,-180.17 -92.98,-278.82 0,-144.61 54.51,-260.508 163.53,-347.688 108.97,-87.242 292.01,-156.082 549.04,-206.543 114.73,-22.957 195.65,-46.488 242.7,-70.578 47.02,-24.102 70.58,-52.199 70.58,-84.321 0,-36.769 -23,-66.011 -68.88,-87.789 -45.92,-21.832 -109.02,-32.73 -189.32,-32.73 -240.96,0 -405.02,58.691 -534.02,217.629 L 6082.62,302.91 C 6247.89,100.949 6527.84,0 6922.56,0 c 266.22,0 469.31,52.1602 609.31,156.641 139.95,104.39 209.97,240.339 209.97,407.922 0,149.148 -55.64,266.789 -166.93,352.839 -111.37,86.048 -293.19,150.848 -545.64,194.458 -117.04,22.93 -199.12,46.5 -246.11,70.59 -47.09,24.1 -70.58,53.38 -70.58,87.8 0,36.69 22.93,67.67 68.85,92.94" /><path
         id="path22"
         style="fill:#293055;fill-opacity:1;fill-rule:nonzero;stroke:none"
         d="m 9824.4,416.539 c -59.68,0 -100.99,16 -123.91,48.191 -22.96,32.11 -34.43,87.192 -34.43,165.231 V 1755.59 H 9080.85 V 740.25 c -11.53,-82.398 -37.76,-147.469 -79.13,-194.648 -57.38,-65.403 -134.24,-98.071 -230.67,-98.071 -80.34,0 -140,22.879 -178.99,68.828 -39.03,45.891 -58.52,125.063 -58.52,237.512 V 1755.59 H 7948.33 V 605.871 c 0,-208.891 52.2,-362.039 156.64,-459.551 C 8209.38,48.7227 8353.38,0 8536.98,0 c 269.48,0 460.14,102.742 572.18,308.039 20.6,-73.887 52.27,-133.777 95.62,-178.937 C 9287.42,43.0391 9420.5,0 9604.11,0 c 64.22,0 129.63,8.05078 196.2,24.0898 66.54,16.0391 120.48,36.6915 161.79,61.961 l 37.9,361.4802 c -62,-20.66 -120.52,-30.992 -175.6,-30.992" /><path
         id="path24"
         style="fill:#80ce54;fill-opacity:1;fill-rule:nonzero;stroke:none"
         d="m 6626.04,5574.97 c -492.81,313.87 -1056.39,471.57 -1620.33,471.57 -563.92,0 -1127.51,-157.7 -1620.31,-471.55 L 2484,6476.37 c 727.39,533.94 1602.4,822.3 2521.71,822.3 919.33,0 1794.34,-288.36 2521.72,-822.31 z M 3863.62,5096.75 c 345.69,191.28 736.09,292.96 1142.09,292.96 406.02,0 796.42,-101.66 1142.1,-292.96 L 5005.71,3954.66 Z m 1142.09,3971.82 1283.8,-1283.8 c -420.03,112.88 -851.76,170.73 -1283.8,170.73 -432.03,0 -863.77,-57.85 -1283.79,-170.73 z M 8491.27,6511.88 5005.71,9997.45 1520.16,6511.88 c -0.1,-0.1 -0.19,-0.16 -0.28,-0.26 v -0.02 L 5005.71,3025.77 8491.55,6511.6 v 0.02 c -0.09,0.1 -0.18,0.16 -0.28,0.26" /></g></g></svg>