<?xml version="1.0" encoding="utf-8"?>
<!-- Generator: Adobe Illustrator 25.4.1, SVG Export Plug-In . SVG Version: 6.00 Build 0)  -->
<svg version="1.1" id="Layer_1" xmlns="http://www.w3.org/2000/svg" xmlns:xlink="http://www.w3.org/1999/xlink" x="0px" y="0px"
	 viewBox="0 0 1764.3 481.3" style="enable-background:new 0 0 1764.3 481.3;" xml:space="preserve">
<style type="text/css">
	.st0{fill:#004463;}
</style>
<g>
	<path class="st0" d="M515.1,275.5c-6.7-5-14.1-8.7-21.8-11.9c-31.3-13-62.5-26.2-93.9-39c-28.5-11.6-57.1-22.7-85.7-34.1
		c-32.1-12.8-64.4-25.1-97.3-35.7c-6.5-2.1-12.9-3.7-20-2.1c-13,2.8-24.4,14.9-25.3,28c-1,14.5,7.7,27.9,20.7,32.4
		c5.6,1.9,11.4,2.5,17.1,2.5c38.3,0.1,76.6,0,115,0.1c25.2,0,46.3,9.1,62.5,28.7c15.5,18.8,23.6,39.9,19.6,64.4
		c-3.5,21.8-14,39.8-31.4,53.8c-15.9,12.8-34.4,17.5-54.3,17.6c-5.2,0-10.4,0.1-15.6,0.1c-15.6,0-31.2,0-46.9,0
		c-22.5,0-45-0.1-67.5,0c-10.8,0-19.2,8.6-19.2,19.3c0,21.1,0,42.2,0,63.3c0,1.6,0.1,3.3,0.5,4.9c2.7,10.5,13.2,15.9,24.4,12.3
		c15.4-4.9,29.8-12.4,44.3-19.3c27-12.9,53.8-26.2,80.4-39.9c35.3-18,70.5-36,105.7-54.3c24.6-12.8,49.4-25.4,74.1-38
		c6.7-3.4,12.8-7.5,18-13.1C528.6,304.9,526.9,284.2,515.1,275.5z"/>
	<path class="st0" d="M257.8,380.3c15.6,0,31.2,0.1,46.9,0C289,380.3,273.4,380.3,257.8,380.3c-22.5,0-45-0.1-67.5,0
		C212.8,380.2,235.3,380.3,257.8,380.3z"/>
	<path class="st0" d="M305.2,325.3c9.8,3.2,19.5,6,30,1.4c12.2-5.4,19.1-16.4,18.9-32.5c-0.1-10.4-9-21.8-19.8-25.7
		c-5.9-2.1-12-2.8-18.1-2.8c-38.3-0.1-76.7-0.1-115,0c-24.4,0.1-44.7-8.9-60.7-27.1c-15.8-18.1-24.7-38.9-21.4-63.4
		c3.3-24.1,14.5-43.8,34.3-58.3c15.2-11.1,32.5-15.5,51-15.7c5.3-0.1,10.7-0.1,16-0.1c16-0.1,32,0.1,48,0.1c22.3,0,44.7,0,67,0
		c10.5,0,18.6-8.2,18.7-18.6c0-20.9-0.3-41.9,0.1-62.8c0.4-18.3-15.6-22.2-26.6-17.9c-10.2,4-20.3,8.3-30.2,13
		c-21.6,10.3-43.1,20.9-64.5,31.6c-30.2,15.1-60.4,30.3-90.5,45.7c-20.9,10.7-41.6,21.7-62.4,32.5C60,134.8,40,144.9,20.1,155.3
		c-7.5,3.9-14.3,8.8-17.6,16.9c-5.7,13.8-1.4,27.1,11,35.8c9.3,6.4,19.8,10.2,30,14.4c34.2,14.1,68.5,28.4,102.8,42.3
		c27.9,11.3,55.8,22.4,83.9,33.2C255,307.5,279.9,317.1,305.2,325.3z"/>
	<path class="st0" d="M268.4,100.9c-16,0-32-0.1-48-0.1C236.4,100.8,252.4,100.9,268.4,100.9c22.3,0,44.7,0,67,0
		C313.1,101,290.7,100.9,268.4,100.9z"/>
	<path class="st0" d="M1009.5,155.7c-0.7-4-2.3-5.5-6.1-4.8c-1.3,0.2-2.7,0.1-4,0.4c-14.6,3.1-24.4,11.6-28.3,26.2
		c-0.7,2.7-1.6,3.6-4.5,2.7c-19.4-6.2-38.5-5.6-57.4,2.1c-15.4,6.3-26.7,22.8-26.1,39.1c0.5,13.8,5.2,26,17.2,34.1
		c3,2,2.7,3.4-0.4,4.6c-4.4,1.7-7.3,5.2-10.3,8.5c-7.6,8.4-6.9,25.6,1.4,33.3c2.2,2.1,5,3.6,8.4,6c-1.7,0.4-2.3,0.6-2.9,0.7
		c-19.3,5.7-22.3,25.8-15.6,38.1c4.5,8.2,12,13.8,20.9,16.7c24,7.9,48.4,8.6,72.5,1.2c17.1-5.2,30.8-14.8,34.4-34.3
		c2.2-12.2-2.5-24.3-12.7-31.3c-7.6-5.2-16-7.3-24.9-7.4c-14.8-0.2-29.7-0.1-44.5,0c-3.4,0-6.6-0.6-9.8-1.4
		c-6.3-1.6-10.5-7.9-9.5-13.4c1.5-7.9,8.2-13,16.3-12.1c7.9,0.9,15.7,1.4,23.7,1.1c10-0.4,19.2-3,28.2-7.3
		c25.9-12.4,30.2-48.4,11.1-66.6c-2.2-2.1-2.4-4.1-1.2-6.6c1.4-3,3.2-5.7,6.2-7.6c5.3-3.5,11.1-5,17.4-4.9c2.5,0,4,0,3.3-3.5
		C1011.2,164.8,1010.3,160.2,1009.5,155.7z M917.3,314.6c18.1,0,36.2-1.4,54.3,0.8c6.7,0.8,12.2,5.4,13.3,11
		c0.9,4.5-2.6,11-7.9,13.9c-7.6,4.2-15.8,6.9-24.6,7c-3.5,0-6.8,1.7-10.4,1.1c-9.9-1.4-20.2-0.7-29.6-5.3c-7.6-3.7-11.9-9.5-11.1-15
		C902.6,320.1,908.1,314.7,917.3,314.6z M960.2,240.5c-5.9,4.2-12.4,6.2-19.6,6.1c-16.9-0.1-28.8-11.1-28.7-26.4
		c0.1-10.8,8.4-20.7,19.7-23.2c10.1-2.3,19.5-1.2,28.3,5C972.6,210.9,972.8,231.6,960.2,240.5z"/>
	<path class="st0" d="M759.7,223.6c-8.9-4.6-18.7-6.7-28.4-9c-14.4-3.4-29-5.6-42.9-10.6c-8.4-3.1-14.3-8.4-15.3-17.7
		c-1.2-11.1,3.8-19.1,13.7-23.6c14.9-6.8,30.3-6.2,45.6-1c11.6,3.9,20.3,11.8,27.4,21.4c2.3,3,3.7,4,7,0.6
		c4.3-4.4,8.5-8.3,12.7-12.7c2-2.1,2-3.4,0.4-5.4c-5.2-6.3-10.7-12.2-17.3-16.9c-15.2-10.7-32.1-15.6-48.9-14.8
		c-7.8,0.2-13.8-0.2-19.7,1c-21.5,4.6-39.7,14-48.1,35.7c-6.1,15.6-3.6,35.2,9.9,47.3c11.4,10.2,25.6,13.5,39.9,16.9
		c14.7,3.5,29.7,5.6,43.9,10.9c7.8,2.9,12.6,8.5,13.5,16.9c1,9.5-2.7,17.2-11.2,21.5c-11.4,5.8-23.5,6.9-36.3,5.6
		c-21-2.2-37.7-10.9-49.2-28.8c-1.6-2.5-2.8-2.3-4.6-0.4c-4.9,5-9.8,9.9-14.8,14.8c-1.9,1.9-1.8,3.3-0.2,5.5
		c11.5,15.1,26.9,24.5,44.9,29.7c17.2,4.9,34.6,5,52.2,2.2c22.2-3.5,46.6-20,48.8-45.9C784.1,248.6,776.7,232.3,759.7,223.6z"/>
	<path class="st0" d="M1476,123.3c0-3.1-0.8-4-4.2-4.5c-6.4-0.8-13.6-2-20,0c-4.8,1.5-4.2,8.2-4,12.4c0.4,7.6,0,15.1,0,22.7
		c-0.1,7.4,0.2,14.9,0.2,22.3c0,3.7-0.1,7.4-0.3,11.1c-0.2,3.5-0.1,7.8-1.2,11.2c-2.4-2.1-3.9-5.3-6.1-7.7
		c-11.2-12.2-25.1-16.3-41.4-14.2c-20.1,2.5-35.3,12.3-45,29.8c-8.6,15.6-10.4,32.5-8.4,50.1c1.9,16.9,7.8,31.6,20.3,43.6
		c14.6,14.1,40.9,18.6,59.5,10c9.8-4.6,17.1-11.8,22.9-20.9c2.4,5.7,1.3,11.3,1.5,16.9c0.1,3.3,1.2,5.2,4.7,5.8
		c5.5,1,11,0.1,16.4,0.6c3.6,0.3,5-0.8,4.9-4.7C1475.9,246.3,1475.9,184.8,1476,123.3z M1439.2,276.1c-0.9,1.4-1.9,2.7-2.9,4
		c-5.6,6.9-12.8,10.4-21.3,11.3c-22.8,2.5-35.8-11.5-39.4-28.9c-3.1-14.8-3.2-29.6,3.4-43.8c10.1-21.9,39.8-25.2,55.4-10.8
		c7.9,7.3,11.7,17.2,12.5,27.9c0.2,2.8,0,5.6,0,8.5C1447.4,255.8,1445.4,266.5,1439.2,276.1z"/>
	<path class="st0" d="M1317.8,292.5c-9.3,0-11.7-2.4-11.8-11.8c0-10.3,0-20.6,0-30.9c0-10.5,0.1-20.9,0-31.4
		c-0.1-15.3-11.4-31-25.6-36.7c-15.6-6.4-31.7-7.3-47.8-3.6c-16.9,3.9-30.6,12.5-37.6,29.5c-1.4,3.5-0.7,5.2,2.6,6.5
		c5.6,2.2,11.1,4.4,16.6,6.8c2.6,1.2,3.4,0.3,4.3-2c5.9-14,16.5-19.9,31.7-20.3c17.5-0.4,28.3,12.2,27.9,28.5
		c-0.1,3.7-1.6,4.9-4.8,5.5c-15.6,3-31.3,5.7-46.8,9.2c-16.8,3.8-29.7,12.3-33.1,30.8c-2.2,12.4,2.7,29.3,17.3,36.4
		c19.7,9.6,50.8,7,66.5-10.5c1.4-1.6,2.5-2.5,3.5,0c6.9,16.6,27.9,17.7,40.8,13.5c1.3-0.4,2.2-1.3,2.4-2.9c0.3-3.1,0.8-6.2,1-9.4
		C1325.3,292.5,1325.2,292.5,1317.8,292.5z M1278,260.9c0.7,19.8-12.6,30.1-30.5,31.5c-5.3,0.4-10.6,0.3-15.7-1.8
		c-5.6-2.3-8.9-6.1-9.8-12c-1-6.8,1.5-11.9,7.6-15.4c6.6-3.8,14.1-4.8,21.4-6.4c7.4-1.6,15-2.6,22.4-4.4c4.4-1.1,4.9,0.5,4.6,4
		C1277.9,257.9,1278,259.4,1278,260.9z"/>
	<path class="st0" d="M1306,249.8c0,10.3,0,20.6,0,30.9C1305.9,270.4,1306,260.1,1306,249.8c0-10.5,0.1-20.9,0-31.4
		C1306,228.9,1306,239.3,1306,249.8z"/>
	<path class="st0" d="M1604.1,180.5c-11.1-4.1-22.7-5.3-34.7-3.9c-14.2,1.7-26.7,6.4-37.1,16.3c-15,14.2-20.3,32.1-20.3,52.1
		c-0.3,5.2,0.2,10.3,1,15.4c3.1,17.7,10.8,32.7,26,43c16.3,11,34.5,13.1,53.5,9.9c17.2-2.9,31-11.3,40.6-26.1
		c12.7-19.5,13.6-40.9,8.8-62.6C1637.2,203.6,1624.9,188,1604.1,180.5z M1608.9,275.6c-8.5,14.1-21,18.2-36.2,16.5
		c-21.6-2.4-30.1-20-31.9-37.9c-1.1-11.1-0.6-21.8,3.2-32.2c10.3-28.9,45.9-28.8,60.2-13.3c9.6,10.4,11.7,23.4,11.8,37.6
		C1615.8,256.1,1614.5,266.4,1608.9,275.6z"/>
	<path class="st0" d="M1157,220.6c0-4-0.7-7.9-1.8-11.7c-4.7-16.5-15.7-26.4-32.2-30.7c-17.1-4.4-33.2-2.5-48,7.5
		c-5.3,3.6-8.6,9-12.5,14.4c-1.5-5.9-1.8-11.5-1.5-17.1c0.2-3.2-1-4.5-4.3-4.3c-5.8,0.2-11.7,0.2-17.5,0c-3.3-0.1-4.4,1.1-4.3,4.3
		c0.2,7.6,0.1,15.3,0.1,22.9c0,33.4,0.1,66.8-0.1,100.2c0,4.2,1.7,5.9,5.2,6c6.1,0.3,12.3,0.3,18.5,0c3.7-0.1,5.6-1.7,5.6-6.2
		c-0.3-22.9-0.3-45.9-0.1-68.8c0.1-15.6,7.7-30.6,24.7-35.8c14.8-4.6,30.5-0.8,37.1,14.2c2.4,5.5,2.9,11.6,3,17.5
		c0.2,12.6,0.1,25.3,0.1,37.9c0,12.5,0,24.9,0,37.4c0,1.6-0.8,3.8,2.4,3.8c6.5,0,12.9,0.2,19.4,0.3c4.4,0,6.4-1.5,6.3-6.5
		C1156.9,277.5,1157,249.1,1157,220.6z"/>
	<path class="st0" d="M1761,288c-1.2-4.1-2.3-4.9-5.9-2.4c-8.2,5.8-17.4,6.3-26.7,3.8c-7.1-1.9-10.5-7-10.5-14.5
		c0-23.1,0.1-46.2-0.1-69.3c0-4.1,1.4-5.1,5.2-5c11.5,0.2,23-0.1,34.5,0.2c4.8,0.1,6.3,0.1,6.5-6.2c0.1-3.1-0.1-5.8,0-9.5
		c0.2-4.9-0.9-6.7-6.2-6.5c-11.5,0.4-23,0-34.5,0.2c-4,0.1-5.6-1-5.4-5.3c0.3-10,0-19.9,0.1-29.9c0-3.2-0.9-4-4.1-3
		c-6.8,2.1-13.7,3.9-20.7,5.6c-3.1,0.8-4.4,2.3-4.3,5.6c0.2,7.6,0,15.3,0.1,22.9c0.1,3-1,4.1-4.1,4.1c-5.7-0.2-11.3,0.1-17-0.1
		c-3.1-0.1-4,1.1-4,4.1c0,5.1,0,9.4,0,14c0,3.1,1.1,4.1,4.1,4c5.5-0.2,11,0.1,16.5-0.1c3.6-0.2,4.6,1.2,4.5,4.6c0,3-0.1,6-0.1,9
		c0,9,0,18,0,26.9c0,8.9-0.1,17.7-0.1,26.6c0,2.9,0.1,5.9,0.2,8.8c0.3,9.9,1.9,19.7,9.6,26.9c11.9,11.4,26.8,11.9,42,10.4
		c6.7-0.7,12.9-3,18.8-6.3c6.1-3.4,5.2-4.1,4.1-11.1C1763.1,293.8,1761.9,290.8,1761,288z"/>
	<path class="st0" d="M1688.9,241.2c0-9-0.1-18,0-26.9C1688.9,223.2,1688.9,232.2,1688.9,241.2c0,8.9-0.1,17.7-0.1,26.6
		C1688.8,258.9,1688.9,250,1688.9,241.2z"/>
	<path class="st0" d="M846,245.6c0-15.5-0.1-30.9,0-46.4c0-5.2,0-10.3,0.1-15.5c0-3.9-1.1-5.3-5.1-5.1c-6.3,0.3-12.7,0.2-19,0
		c-3-0.1-4.1,1-4.1,4.1c0.1,41.6,0.1,83.1,0,124.7c0,3,1,4.2,4,4.1c6.3-0.2,12.7-0.3,19,0c4,0.2,5.1-1.1,5.1-5.1
		C845.9,286.2,846,265.9,846,245.6z"/>
	<path class="st0" d="M846,245.6c0-15.5-0.1-30.9,0-46.4C846,214.7,846,230.2,846,245.6c0,20.3-0.1,40.6,0.1,60.8
		C845.9,286.2,846,265.9,846,245.6z"/>
	<path class="st0" d="M835.5,120.9c-10.4-1-19,2.9-21.4,10c-3.5,10.8-0.7,26.1,18.2,24.9c3-0.2,5.9,0.3,8.8-1.1
		c7.3-3.5,11.1-10.7,9.7-19.4C849.6,127.1,843.8,121.7,835.5,120.9z"/>
	<path class="st0" d="M1446.9,235.9c0.2,2.8,0,5.6,0,8.5c0.4,11.5-1.6,22.2-7.8,31.8c6.2-9.6,8.2-20.3,7.8-31.8
		C1446.9,241.5,1447.1,238.7,1446.9,235.9z"/>
	<path class="st0" d="M1439.2,276.1c-0.9,1.4-1.9,2.7-2.9,4C1437.3,278.8,1438.3,277.5,1439.2,276.1z"/>
</g>
</svg>
