<?xml version="1.0" encoding="UTF-8" standalone="yes"?>
<!DOCTYPE svg PUBLIC "-//W3C//DTD SVG 1.1//EN" "http://www.w3.org/Graphics/SVG/1.1/DTD/svg11.dtd">

<svg width="500" height="500" viewBox="0 0 500 500" xmlns="http://www.w3.org/2000/svg" xmlns:xlink="http://www.w3.org/1999/xlink" version="1.1" baseProfile="full">
    <g transform="scale(1,-1) translate(0,-500)">
        <path d="M 11.593552 235.393227 L 230.205566 235.393227 C 230.205566 111.911193 132.329634 11.809227 11.593552 11.809227 Z" transform="scale(1.000000,1.000000) translate(239.000000,14.000000)" fill="#5a0046" opacity="0.744649"></path>
        <path d="M 17.483400 2.385300 L 23.336400 2.612600 L 29.150700 2.989100 L 34.924600 3.513100 L 46.343900 4.996000 L 57.579900 7.046600 L 68.618400 9.650200 L 79.445000 12.792200 L 90.045500 16.457900 L 100.405400 20.632700 L 110.510600 25.301800 L 120.346700 30.450700 L 129.899400 36.064500 L 139.154400 42.128700 L 148.097400 48.628600 L 156.714000 55.549500 L 164.990100 62.876700 L 172.911200 70.595600 L 180.463100 78.691500 L 187.631500 87.149700 L 194.402000 95.955600 L 200.760300 105.094400 L 206.692200 114.551600 L 212.183400 124.312400 L 217.219500 134.362200 L 221.786200 144.686300 L 225.869200 155.270000 L 229.454200 166.098700 L 232.526900 177.157600 L 235.073100 188.432200 L 237.078300 199.907700 L 238.528300 211.569500 L 239.408800 223.402900 L 239.705500 235.393200 L 239.512500 237.307800 L 238.959000 239.091000 L 238.083100 240.704700 L 236.923000 242.110700 L 235.517100 243.270700 L 233.903300 244.146600 L 232.120100 244.700200 L 230.205500 244.893200 L 11.593500 244.893200 L 9.678900 244.700200 L 7.895700 244.146600 L 6.282000 243.270700 L 4.876000 242.110700 L 3.716000 240.704700 L 2.840100 239.091000 L 2.286500 237.307800 L 2.093500 235.393200 L 2.093500 11.809200 L 2.286500 9.894600 L 2.840100 8.111300 L 3.716000 6.497600 L 4.876000 5.091700 L 6.282000 3.931600 L 7.895700 3.055700 L 9.678900 2.502200 L 11.593500 2.309200 Z M 11.593500 235.393200 L 230.205500 235.393200 L 229.921100 223.887600 L 229.076800 212.533000 L 227.686600 201.343500 L 225.764100 190.333200 L 223.323000 179.516100 L 220.377200 168.906100 L 216.940200 158.517500 L 213.025900 148.364200 L 208.648000 138.460300 L 203.820200 128.819800 L 198.556300 119.456700 L 192.870000 110.385200 L 186.775100 101.619300 L 180.285200 93.173000 L 173.414100 85.060300 L 166.175500 77.295400 L 158.583300 69.892200 L 150.651000 62.864900 L 142.392600 56.227400 L 133.821600 49.993800 L 124.951800 44.178200 L 115.797000 38.794600 L 106.370900 33.857000 L 96.687200 29.379500 L 86.759600 25.376200 L 76.602000 21.861100 L 66.228100 18.848200 L 55.651400 16.351600 L 44.886000 14.385400 L 33.945300 12.963500 L 22.843200 12.100100 L 11.593500 11.809200 Z" transform="scale(1.000000,1.000000) translate(239.000000,14.000000)" fill="#ffffff" opacity="1.000000"></path>
        <path d="M 11.593552 11.393227 L 11.593552 234.977242 C 132.329642 234.977242 230.205582 134.875268 230.205582 11.393227 Z" transform="scale(1.000000,1.000000) translate(239.000000,238.000000)" fill="#ad8100" opacity="0.763277"></path>
        <path d="M 232.120100 2.086200 L 233.903400 2.639700 L 235.517100 3.515600 L 236.923000 4.675700 L 238.083100 6.081600 L 238.959000 7.695300 L 239.512500 9.478600 L 239.705500 11.393200 L 239.408900 23.383500 L 238.528300 35.216900 L 237.078300 46.878700 L 235.073100 58.354200 L 232.527000 69.628700 L 229.454200 80.687700 L 225.869200 91.516400 L 221.786200 102.100100 L 217.219500 112.424200 L 212.183400 122.473900 L 206.692200 132.234700 L 200.760300 141.691900 L 194.402000 150.830800 L 187.631500 159.636600 L 180.463100 168.094900 L 172.911200 176.190800 L 164.990100 183.909700 L 156.714000 191.236900 L 148.097400 198.157800 L 139.154400 204.657700 L 129.899400 210.721900 L 120.346700 216.335700 L 110.510600 221.484500 L 100.405400 226.153700 L 90.045500 230.328400 L 79.445000 233.994100 L 68.618400 237.136200 L 57.579900 239.739800 L 46.343900 241.790400 L 34.924600 243.273300 L 29.150700 243.797200 L 23.336400 244.173800 L 17.483400 244.401000 L 11.593500 244.477200 L 9.678900 244.284200 L 7.895700 243.730600 L 6.282000 242.854700 L 4.876000 241.694700 L 3.716000 240.288700 L 2.840100 238.675000 L 2.286500 236.891800 L 2.093500 234.977200 L 2.093500 11.393200 L 2.286500 9.478600 L 2.840100 7.695300 L 3.716000 6.081600 L 4.876000 4.675700 L 6.282000 3.515600 L 7.895700 2.639700 L 9.678900 2.086200 L 11.593500 1.893200 L 230.205500 1.893200 Z M 11.593500 11.393200 L 11.593500 234.977200 L 22.843200 234.686300 L 33.945300 233.822900 L 44.886000 232.401000 L 55.651500 230.434800 L 66.228100 227.938200 L 76.602000 224.925300 L 86.759600 221.410200 L 96.687200 217.406900 L 106.370900 212.929400 L 115.797000 207.991800 L 124.951800 202.608200 L 133.821600 196.792600 L 142.392600 190.559000 L 150.651100 183.921500 L 158.583300 176.894100 L 166.175600 169.490900 L 173.414100 161.726000 L 180.285200 153.613400 L 186.775100 145.167100 L 192.870000 136.401100 L 198.556300 127.329600 L 203.820200 117.966600 L 208.648000 108.326100 L 213.025900 98.422200 L 216.940200 88.268900 L 220.377200 77.880200 L 223.323000 67.270300 L 225.764100 56.453200 L 227.686600 45.442800 L 229.076900 34.253300 L 229.921100 22.898800 L 230.205500 11.393200 Z" transform="scale(1.000000,1.000000) translate(239.000000,238.000000)" fill="#ffffff" opacity="1.000000"></path>
        <path d="M 230.593552 235.393227 L 230.593552 11.809227 C 109.857470 11.809227 11.981537 111.911193 11.981537 235.393227 Z" transform="scale(1.000000,1.000000) translate(20.000000,14.000000)" fill="#001563" opacity="0.764338"></path>
        <path d="M 232.508100 2.502200 L 234.291300 3.055700 L 235.905000 3.931600 L 237.311000 5.091700 L 238.471100 6.497600 L 239.346900 8.111300 L 239.900500 9.894600 L 240.093500 11.809200 L 240.093500 235.393200 L 239.900500 237.307800 L 239.346900 239.091000 L 238.471100 240.704700 L 237.311000 242.110700 L 235.905000 243.270700 L 234.291300 244.146600 L 232.508100 244.700200 L 230.593500 244.893200 L 11.981500 244.893200 L 10.066900 244.700200 L 8.283700 244.146600 L 6.669900 243.270700 L 5.264000 242.110700 L 4.103900 240.704700 L 3.228000 239.091000 L 2.674500 237.307800 L 2.481500 235.393200 L 2.778200 223.402900 L 3.658700 211.569500 L 5.108700 199.907700 L 7.113900 188.432200 L 9.660100 177.157600 L 12.732800 166.098700 L 16.317800 155.270000 L 20.400900 144.686300 L 24.967600 134.362200 L 30.003600 124.312400 L 35.494800 114.551600 L 41.426700 105.094400 L 47.785000 95.955600 L 54.555500 87.149700 L 61.723900 78.691500 L 69.275800 70.595600 L 77.196900 62.876700 L 85.473000 55.549500 L 94.089600 48.628600 L 103.032600 42.128700 L 112.287600 36.064500 L 121.840300 30.450700 L 131.676400 25.301800 L 141.781600 20.632700 L 152.141500 16.457900 L 162.742000 12.792200 L 173.568600 9.650200 L 184.607100 7.046600 L 195.843100 4.996000 L 207.262400 3.513100 L 213.036300 2.989100 L 218.850600 2.612600 L 224.703600 2.385300 L 230.593500 2.309200 Z M 219.343800 12.100100 L 208.241700 12.963500 L 197.301000 14.385400 L 186.535600 16.351600 L 175.959000 18.848200 L 165.585000 21.861100 L 155.427400 25.376200 L 145.499800 29.379500 L 135.816200 33.857000 L 126.390000 38.794600 L 117.235200 44.178200 L 108.365400 49.993800 L 99.794400 56.227400 L 91.536000 62.864900 L 83.603700 69.892200 L 76.011500 77.295400 L 68.772900 85.060300 L 61.901800 93.173000 L 55.412000 101.619300 L 49.317000 110.385200 L 43.630700 119.456700 L 38.366800 128.819800 L 33.539000 138.460300 L 29.161100 148.364200 L 25.246800 158.517500 L 21.809900 168.906100 L 18.864000 179.516100 L 16.422900 190.333200 L 14.500400 201.343500 L 13.110200 212.533000 L 12.265900 223.887600 L 11.981500 235.393200 L 230.593500 235.393200 L 230.593500 11.809200 Z" transform="scale(1.000000,1.000000) translate(20.000000,14.000000)" fill="#ffffff" opacity="1.000000"></path>
        <path d="M 230.593552 11.393227 L 11.981537 11.393227 C 11.981537 134.875260 109.857470 234.977226 230.593552 234.977226 Z" transform="scale(1.000000,1.000000) translate(20.000000,238.000000)" fill="#005c0c" opacity="0.789943"></path>
        <path d="M 232.508100 2.086200 L 234.291300 2.639700 L 235.905000 3.515600 L 237.311000 4.675700 L 238.471100 6.081600 L 239.346900 7.695300 L 239.900500 9.478600 L 240.093500 11.393200 L 240.093500 234.977200 L 239.900500 236.891800 L 239.346900 238.675000 L 238.471100 240.288700 L 237.311000 241.694700 L 235.905000 242.854700 L 234.291300 243.730600 L 232.508100 244.284200 L 230.593500 244.477200 L 224.703600 244.401000 L 218.850600 244.173800 L 213.036300 243.797200 L 207.262400 243.273300 L 195.843100 241.790400 L 184.607100 239.739800 L 173.568600 237.136200 L 162.742000 233.994100 L 152.141500 230.328400 L 141.781600 226.153600 L 131.676400 221.484500 L 121.840300 216.335700 L 112.287600 210.721800 L 103.032600 204.657600 L 94.089600 198.157800 L 85.473000 191.236900 L 77.196900 183.909600 L 69.275800 176.190700 L 61.723900 168.094900 L 54.555500 159.636600 L 47.785000 150.830800 L 41.426700 141.691900 L 35.494800 132.234700 L 30.003600 122.473900 L 24.967600 112.424100 L 20.400900 102.100100 L 16.317800 91.516400 L 12.732800 80.687700 L 9.660100 69.628700 L 7.113900 58.354200 L 5.108700 46.878700 L 3.658700 35.216900 L 2.778200 23.383500 L 2.481500 11.393200 L 2.674500 9.478600 L 3.228000 7.695300 L 4.103900 6.081600 L 5.264000 4.675700 L 6.669900 3.515600 L 8.283700 2.639700 L 10.066900 2.086200 L 11.981500 1.893200 L 230.593500 1.893200 Z M 11.981500 11.393200 L 12.265900 22.898800 L 13.110200 34.253300 L 14.500400 45.442800 L 16.422900 56.453200 L 18.864000 67.270300 L 21.809900 77.880200 L 25.246800 88.268900 L 29.161100 98.422200 L 33.539000 108.326100 L 38.366800 117.966600 L 43.630700 127.329600 L 49.317000 136.401100 L 55.412000 145.167000 L 61.901800 153.613400 L 68.772900 161.726000 L 76.011500 169.490900 L 83.603700 176.894100 L 91.536000 183.921500 L 99.794400 190.559000 L 108.365400 196.792500 L 117.235200 202.608200 L 126.390000 207.991800 L 135.816200 212.929400 L 145.499800 217.406800 L 155.427400 221.410200 L 165.585000 224.925300 L 175.959000 227.938200 L 186.535600 230.434700 L 197.301000 232.401000 L 208.241700 233.822800 L 219.343800 234.686300 L 230.593500 234.977200 L 230.593500 11.393200 Z" transform="scale(1.000000,1.000000) translate(20.000000,238.000000)" fill="#ffffff" opacity="1.000000"></path>
        <path d="M 350.286224 180.393227 C 350.286224 278.457723 272.521366 357.954704 176.593552 357.954704 C 80.665737 357.954704 2.900879 278.457723 2.900879 180.393227 C 2.900879 82.328730 80.665737 2.831749 176.593552 2.831749 C 272.521366 2.831749 350.286224 82.328730 350.286224 180.393227 Z" transform="scale(1.000000,1.000000) translate(74.000000,69.000000)" fill="#ffffff" opacity="1.000000"></path>
        <path d="M 124.934481 244.662945 Q 136.945959 244.662945 149.265423 243.507996 Q 161.584887 242.353046 174.674318 240.197140 Q 187.763749 238.041233 198.851267 235.269354 Q 209.938785 232.497475 219.178383 228.955629 L 193.307508 154.884850 Q 181.142037 171.208140 166.204686 180.216748 Q 151.267336 189.225356 134.944046 189.225356 Q 125.242468 189.225356 120.930655 185.298527 Q 116.618843 181.371698 116.618843 175.519952 Q 116.618843 169.976193 125.011478 164.894414 Q 133.404113 159.812635 150.959349 153.190923 Q 196.695360 136.405653 210.092778 119.774376 Q 223.182209 103.451086 223.182209 79.428131 Q 223.182209 42.007758 194.770444 22.065625 Q 166.358680 2.123492 110.151124 2.123492 Q 80.892396 2.123492 54.559541 6.127318 Q 28.226686 10.131144 2.817791 19.832722 L 28.226686 98.369307 Q 39.006218 81.430044 55.483501 71.112492 Q 71.806791 60.794941 87.052128 60.794941 Q 94.597800 60.794941 99.602583 64.567777 Q 104.607365 68.340613 104.607365 74.038365 Q 104.607365 80.814071 97.600670 85.818853 Q 90.593974 90.823635 75.810617 96.521388 Q 39.468198 110.226792 25.916787 126.242095 Q 12.519369 142.411392 12.519369 165.818374 Q 12.519369 205.086666 40.854137 224.874806 Q 69.188905 244.662945 124.934481 244.662945 Z" transform="scale(1.000000,1.000000) translate(137.000000,126.000000)" fill="#000000" opacity="1.000000"></path>
    </g>
</svg>