<svg xmlns="http://www.w3.org/2000/svg" role="img" viewBox="56.14 116.89 265.46 143.96"><title>SNCF (supporter) logo</title><defs><linearGradient id="a" x1="0" x2="1" y1="0" y2="0" gradientTransform="matrix(191.08994 0 0 -191.08994 46.065 141.732)" gradientUnits="userSpaceOnUse" spreadMethod="pad"><stop offset="0" stop-color="#832667" stop-opacity="1"/><stop offset=".247" stop-color="#af1773" stop-opacity="1"/><stop offset=".815" stop-color="#dc0d15" stop-opacity="1"/><stop offset="1" stop-color="#dc0d15" stop-opacity="1"/></linearGradient><clipPath id="b" clipPathUnits="userSpaceOnUse"><path d="M0 283.464h283.464V0H0z"/></clipPath></defs><g transform="matrix(1.33333 0 0 -1.33333 0 377.952)"><path fill="url(#a)" stroke="none" d="M49.576 191.645c-2.132-.094-3.51-1.076-3.51-3.173V94.69c0-1.633 1.168-3.106 2.969-3.106h167.41c1.501 0 2.708.134 3.413 2.122 0 0 16.967 53.094 17.261 54.047.629 2.017.226 3.028-1.487 4.119-54.53 34.93-136.058 40.009-173.082 40.009-5.318 0-9.703-.098-12.974-.236"/><g clip-path="url(#b)"><path fill="#fff" fill-opacity="1" fill-rule="nonzero" stroke="none" d="M84.197 131.706c-6.146 2.971-10.328 4.522-9.319 7.508 1.188 3.534 7.373 4.869 12.975 4.745 2.831-.07 4.839-.434 7.14-.961l2.03 6.394c-2.919.539-5.003.811-8.492.898-11.231.264-21.381-2.838-23.977-9.396-3.1-7.77 5.666-12.15 13.261-15.747 6.048-2.861 10.807-5.578 9.137-9.149-1.31-2.762-5.576-4.067-11.787-3.927-5.372.122-12.081 1.674-17.366 4.332l-3.141-6.806c3.885-1.798 11.896-4.252 18.736-4.419 12.843-.282 21.16 2.936 24.489 9.945 3.939 8.267-5.834 12.795-13.686 16.583"/><path fill="#fff" fill-opacity="1" fill-rule="nonzero" stroke="none" d="M101.618 120.032c.062-.156.174-.201.345-.201.177 0 .254.053.304.201.073.222 6.256 19.387 6.256 19.387 6.309-9.019 12.564-20.887 15.915-33.436h10.287l5.082 15.893c.052.156.168.193.332.193.166 0 .297-.053.311-.193 1.554-9.972 11.471-16.681 25.522-16.681 9.102 0 17.305 2.386 19.348 3.483l5.32 16.774h20.465l2.073 6.502h-20.456l3.526 11.01h24.391l2.112 6.743H188.51l-11.618-36.338c-2.47-.623-5.519-.922-8.698-.922-6.867 0-12.361 1.625-15.474 5.255-2.332 2.733-3.262 6.252-2.689 10.185 1.377 9.363 10.499 15.269 22.7 15.269 2.56 0 5.206-.151 7.577-.457l2.409 7.064c-2.936.444-6.497.643-9.981.643-10.82 0-20.223-3.725-26.313-10.281-.184-.203-.389-.197-.506-.197-.191 0-.311.037-.264.197l3.057 9.573h-8.935l-9.769-30.639c-3.104 9.036-9.5 20.94-17.323 30.639h-9.58l-7.167-22.31c3.605-2.655 4.742-4.603 5.682-7.356"/></g></g></svg>