<svg width="100" height="24" viewBox="0 0 100 24" fill="none" xmlns="http://www.w3.org/2000/svg">
<g clip-path="url(#clip0)">
<path d="M95.9451 16.9182C95.7216 17.3585 95.2746 17.5786 94.5083 17.5786H93.1673C92.5606 17.6101 91.9859 17.3585 91.6028 16.9182L88.9208 11.6352C88.6973 11.2893 88.4738 11.2893 88.3461 11.6352L85.249 16.9182C85.0255 17.4843 84.5785 17.5786 83.908 17.5786H82.4712C81.8965 17.5786 81.1303 17.3585 81.0345 16.7925L77.2031 6.85535C76.9796 6.06918 77.8736 5.75472 79.0868 5.75472H80.5236C81.6411 5.75472 82.3116 5.84906 82.5351 6.76101L83.8761 11.2893C83.8761 11.6352 84.1954 11.6352 84.4508 11.2893L86.1111 7.51572C86.3346 7.07547 86.6858 6.85535 87.3244 6.72956L88.8889 6.63522C90.1022 6.41509 90.5492 6.85535 90.7727 7.42138L92.8799 11.4151C93.0077 11.761 93.1992 11.6352 93.3269 11.4151L94.2209 8.86792C94.4444 8.55346 94.3486 8.42767 93.9016 8.08176C93.4547 7.86164 93.3269 7.86164 93.3269 7.07547C93.3269 5.97484 93.9016 5.75472 95.1149 5.75472H98.3397C99.1379 5.75472 100.351 6.10063 99.9042 7.07547L95.9451 16.9182ZM71.5198 9.74843C71.5198 8.6478 70.1788 7.86164 68.6143 7.86164C66.954 7.86164 65.613 8.6478 65.613 9.74843V13.7421C65.613 14.8428 66.954 15.6289 68.6143 15.6289C70.1788 15.6289 71.5198 14.8428 71.5198 13.7421V9.74843ZM68.6143 17.9245C64.0485 17.9245 60.3448 15.5975 60.3448 12.8302V10.5031C60.3448 7.51572 64.0166 5.4088 68.6143 5.4088C72.9566 5.4088 76.6603 7.51572 76.6603 10.5031V12.8302C76.6603 15.5975 73.0843 17.9245 68.6143 17.9245ZM56.673 17.4843H53.5441C52.2988 17.4843 51.7561 17.3899 51.7561 16.2579C51.7561 15.3774 51.8838 15.4717 52.4266 15.1572C52.8736 14.9371 53.0971 14.717 53.0971 14.3711V9.18239C53.0971 8.52201 51.9796 7.95597 50.7663 7.95597C49.553 7.95597 48.5313 8.52201 48.5313 9.18239V16.478C48.5313 17.1384 47.8608 17.4843 46.7433 17.4843H44.9553C43.9655 17.4843 43.295 17.1384 43.295 16.478V8.08176C43.295 6.98113 44.7318 6.63522 46.0728 6.85535L46.6475 6.94969C46.9987 7.04402 47.3499 7.01258 47.6373 6.85535C48.5313 5.84906 50.3193 5.4088 52.4266 5.4088C56.3218 5.4088 58.3333 7.61006 58.3333 9.71698V16.4465C58.3653 17.1384 57.7905 17.4843 56.673 17.4843ZM34.4828 17.7987C32.2478 17.8302 30.0128 17.4528 27.9055 16.6981C26.6922 16.1321 26.5645 14.9371 27.235 14.2767C28.2567 13.7107 29.47 13.5849 30.5875 13.9623C32.2478 14.5283 32.9183 15.283 34.1635 15.283C35.281 15.283 36.0473 15.0629 36.0473 14.4969C36.0473 13.8365 35.4725 13.4906 32.6948 12.956C29.5658 12.5157 27.3308 10.9434 27.3308 8.96226C27.3308 6.76101 31.0026 5.4088 34.4828 5.4088C35.6322 5.44025 36.7816 5.56604 37.931 5.75472C38.6015 5.97484 39.0485 6.41509 39.0485 6.98113V8.08176C39.0485 8.6478 37.8352 9.40252 36.8135 8.74214C36.175 8.36478 35.4406 8.14465 34.7063 8.08176C33.3653 8.08176 32.4713 8.30189 32.4713 9.08805C32.4713 9.74843 33.5888 10.0943 36.2707 10.6289C39.5275 11.4151 41.4112 12.2956 41.4112 14.4969C41.4112 16.6981 37.3882 17.7987 34.4828 17.7987ZM5.68327 11.6352L8.68455 7.10692H13.6015L16.6028 11.6352L13.6015 16.1635H8.71647L5.68327 11.6352ZM9.83397 0V4.08805H6.57727L5.01277 6.72956L1.341 4.74843L0 6.94969L3.7037 8.96226L2.01149 11.6352L3.67177 14.4025L0 16.3836L1.341 18.5849L5.01277 16.6038L6.57727 19.2453H9.83397V23.3333H12.516V19.2453H15.7407L17.3052 16.6038L20.977 18.5849L22.318 16.3836L18.6462 14.3711L20.2107 11.6038L18.6462 8.96226L22.318 6.98113L20.977 4.77987L17.3052 6.76101L15.7407 4.1195H12.484V0.0314465L9.83397 0Z" fill="black"/>
</g>
<defs>
<clipPath id="clip0">
<path d="M0 0H100V23.3333H0V0Z" fill="white"/>
</clipPath>
</defs>
</svg>
