<svg xmlns="http://www.w3.org/2000/svg" width="5622" height="1080" viewBox="0 0 5622 1080" version="1.1"><path d="M 4311 419.934 L 4311 522.887 4194.250 523.271 C 4090.377 523.614, 4076.232 523.845, 4066 525.372 C 4039.701 529.295, 4021.281 534.834, 4000.500 545.069 C 3948.333 570.760, 3914.992 618.823, 3901.621 687.609 C 3896.761 712.612, 3895.571 726.999, 3895.551 761 C 3895.533 793.232, 3896.312 804.573, 3900.121 827.500 C 3914.974 916.895, 3963.545 974.290, 4040.180 993.004 C 4066.969 999.545, 4066.078 999.500, 4167.500 999.500 L 4259.500 999.500 4272.500 997.154 C 4333.483 986.151, 4372.203 954.287, 4393.015 897.980 C 4399.577 880.228, 4404.395 857.145, 4407.206 830 C 4408.228 820.127, 4408.500 764.956, 4408.500 567.500 L 4408.500 317.500 4359.750 317.240 L 4311 316.981 4311 419.934 M 2897 523.971 C 2848.357 527.184, 2818.177 543.292, 2801.066 575.176 C 2793.975 588.389, 2789.651 602.395, 2786.302 623 C 2784.746 632.569, 2784.566 649.742, 2784.267 816.750 L 2783.939 1000 2831.969 1000 L 2880 1000 2880 836.724 C 2880 730.884, 2880.362 670.467, 2881.030 664.974 C 2884.065 640, 2895.100 625.622, 2916 619.412 C 2925.965 616.451, 2939.731 616.016, 3023.750 616.008 L 3109 616 3109 570 L 3109 524 3081.165 524 C 3065.856 524, 3020.968 523.808, 2981.415 523.573 C 2941.862 523.338, 2903.875 523.517, 2897 523.971 M 1226 524.678 C 1156.284 528.577, 1112.549 556.320, 1095.599 607.396 C 1085.055 639.168, 1085.004 687.320, 1095.481 718.539 C 1109.754 761.069, 1142.409 786.894, 1195.233 797.428 C 1216.946 801.758, 1226.008 802.199, 1308.500 802.942 C 1384.581 803.627, 1387.783 803.731, 1395.154 805.761 C 1415.301 811.310, 1426.667 822.647, 1429.916 840.434 C 1431.417 848.650, 1431.242 864.194, 1429.560 872.131 C 1425.957 889.128, 1416.836 898.351, 1397.839 904.206 L 1390.500 906.467 1241.500 906.984 L 1092.500 907.500 1092.500 954 L 1092.500 1000.500 1241 1000.500 C 1397.422 1000.500, 1397.724 1000.492, 1420 995.934 C 1470.449 985.611, 1504.330 956.735, 1518.479 912 C 1523.788 895.214, 1525.105 886.083, 1525.691 862 C 1526.299 837.003, 1525.053 824.310, 1520.427 808.346 C 1508.148 765.974, 1477.888 739.587, 1428.500 728.186 C 1402.646 722.217, 1381.233 721.033, 1298.822 721.015 C 1257.969 721.005, 1231.279 720.601, 1226.364 719.918 C 1203.716 716.768, 1190.935 708.456, 1184.780 692.878 C 1181.854 685.469, 1181.069 662.688, 1183.398 652.729 C 1188.478 631.002, 1202.752 620.145, 1230.272 617.076 C 1236.679 616.362, 1284.793 616, 1373.461 616 L 1507 616 1507 570 L 1507 524 1369.250 524.185 C 1293.487 524.287, 1229.025 524.508, 1226 524.678 M 1788 525.571 C 1754.014 530.154, 1725.454 540.327, 1700.827 556.622 C 1687.887 565.184, 1667.305 585.432, 1657.750 599 C 1635.599 630.454, 1622.671 669.339, 1616.858 722 C 1615.200 737.015, 1615.200 786.985, 1616.858 802 C 1621.606 845.011, 1629.524 873.793, 1644.644 903 C 1653.759 920.609, 1662.521 932.552, 1676.980 947.076 C 1706.433 976.662, 1742.565 992.905, 1791.577 998.591 C 1802.444 999.851, 1817.064 1000.044, 1878.077 999.732 C 1958.506 999.320, 1957.862 999.362, 1983.945 992.897 C 2051.813 976.076, 2098.198 928.075, 2117.505 854.685 C 2125.022 826.112, 2128.268 798.161, 2128.268 762 C 2128.268 735.568, 2126.972 718.226, 2123.411 697.008 C 2111.047 623.341, 2076.868 571.855, 2022.500 545.002 C 2004.832 536.275, 1988.070 531.004, 1964.500 526.762 C 1952.968 524.687, 1949.494 524.594, 1875.500 524.378 C 1813.707 524.199, 1796.426 524.434, 1788 525.571 M 2396.500 525.068 C 2358.484 529.440, 2327.610 540.617, 2300.525 559.813 C 2290.275 567.077, 2271.187 586.202, 2263.719 596.691 C 2239.490 630.720, 2225.879 671.750, 2221.021 725.403 C 2218.674 751.324, 2219.847 794.777, 2223.602 821 C 2229.519 862.316, 2243.174 898.497, 2263.719 927.292 C 2271.412 938.074, 2289.464 956.182, 2300 963.685 C 2319.002 977.218, 2339.239 986.558, 2362.417 992.494 C 2390.959 999.804, 2381.178 999.392, 2534.250 999.744 L 2672 1000.061 2672 953.530 L 2672 907 2550.750 906.999 C 2415.450 906.998, 2410.175 906.796, 2389.500 900.820 C 2337.908 885.906, 2314.951 838.559, 2317.340 752 C 2319.369 678.520, 2340.632 638.659, 2385.807 623.653 C 2407.929 616.304, 2400.818 616.637, 2543.750 616.253 L 2672 615.909 2672 569.954 L 2672 524 2537.750 524.131 C 2463.912 524.204, 2400.350 524.625, 2396.500 525.068 M 3221.240 570.250 L 3221.500 616.500 3374 617.013 L 3526.500 617.525 3533.821 619.786 C 3552.269 625.482, 3564.988 635.406, 3571.479 649.168 C 3577.576 662.095, 3578.212 665.951, 3578.742 693.207 L 3579.222 717.915 3450.861 718.269 C 3313.871 718.647, 3317.465 718.527, 3292.526 723.589 C 3272.466 727.661, 3250.729 736.849, 3237.127 747.006 C 3207.899 768.831, 3193.913 800.030, 3192.300 847 C 3189.555 926.921, 3222.774 976.309, 3290.788 993.429 C 3315.509 999.652, 3308.756 999.393, 3456.500 999.766 C 3549.892 1000.002, 3594.582 999.769, 3601.500 999.011 C 3647.371 993.980, 3667.263 974.721, 3671.961 930.789 C 3673.398 917.357, 3673.377 669.371, 3671.938 656.211 C 3663.445 578.524, 3616.885 533.664, 3535.789 525.033 C 3529.547 524.369, 3471.588 524, 3373.529 524 L 3220.980 524 3221.240 570.250 M 4664.500 524.686 C 4654.509 525.674, 4635.698 529.148, 4627.500 531.517 C 4600.851 539.219, 4581.559 550.164, 4564.903 567.027 C 4542.714 589.492, 4529.923 619.550, 4525.976 658.500 C 4525.206 666.090, 4524.983 700.347, 4525.255 769 C 4525.640 866.210, 4525.700 868.765, 4527.831 880 C 4539.771 942.960, 4576.083 980.614, 4638.117 994.363 C 4661.580 999.563, 4659.260 999.500, 4826.500 999.500 L 4982.500 999.500 4982.760 952.774 L 4983.020 906.049 4827.760 905.768 L 4672.500 905.487 4664.558 903.235 C 4645.593 897.858, 4632.693 888.093, 4625.772 873.876 C 4620.027 862.072, 4619 855.359, 4619 829.602 L 4619 807.099 4746.250 806.708 C 4835.377 806.434, 4876.047 805.969, 4882 805.154 C 4907.662 801.644, 4927.817 796.102, 4943.500 788.242 C 4977.688 771.108, 4996.431 744.592, 5003.747 703.012 C 5005.871 690.938, 5006.145 651.696, 5004.194 639 C 4999.323 607.305, 4987.754 582.524, 4969.120 563.871 C 4950.142 544.872, 4926.490 533.804, 4890 526.846 C 4878.661 524.684, 4877.030 524.651, 4773.500 524.471 C 4715.750 524.371, 4666.700 524.468, 4664.500 524.686 M 5047.535 527.738 C 5048.394 529.793, 5087.600 625.306, 5134.659 739.988 C 5181.718 854.669, 5221.478 951.279, 5223.014 954.676 C 5237.208 986.059, 5263.755 1004.422, 5303.094 1010.069 C 5313.896 1011.619, 5344.021 1011.625, 5355 1010.078 C 5394.083 1004.572, 5419.260 987.663, 5434.826 956.470 C 5438.492 949.123, 5622 525.582, 5622 524.467 C 5622 524.200, 5598.744 524.099, 5570.321 524.241 L 5518.641 524.500 5435.571 716.834 C 5370.242 868.090, 5351.805 909.892, 5349.247 912.559 C 5344.266 917.754, 5340.442 919.300, 5331.352 919.796 C 5324.221 920.185, 5322.523 919.928, 5317.745 917.741 C 5314.622 916.311, 5311.211 913.799, 5309.773 911.871 C 5308.391 910.017, 5271.354 821.987, 5227.467 716.250 L 5147.673 524 5096.823 524 L 5045.973 524 5047.535 527.738 M 1813.040 617.069 C 1753.050 622.682, 1723.183 654.598, 1714.378 722.500 C 1711.980 740.991, 1711.990 782.536, 1714.396 801.485 C 1718.693 835.313, 1728.303 859.743, 1743.760 876.129 C 1758.494 891.747, 1774.704 899.780, 1801.424 904.705 C 1812.344 906.718, 1909.151 907.739, 1928.425 906.044 C 1950.670 904.088, 1966.865 899.529, 1980.908 891.269 C 1989.029 886.492, 2001.983 874.387, 2007.208 866.694 C 2019.339 848.830, 2027.004 824.411, 2029.981 794.144 C 2031.313 780.610, 2031.287 743.297, 2029.937 729.424 C 2024.042 668.846, 2000.833 634.617, 1957 621.855 C 1940.534 617.060, 1935.576 616.723, 1877.500 616.446 C 1847.250 616.302, 1818.243 616.582, 1813.040 617.069 M 4098 616.671 C 4038.360 620.933, 4006.472 650.610, 3995.991 711.607 C 3989.939 746.830, 3991.220 795.775, 3999.002 826.649 C 4010.573 872.561, 4035.360 896.013, 4081.500 904.706 C 4087.839 905.900, 4101.718 906.313, 4148.364 906.695 C 4210.202 907.202, 4226.973 906.555, 4243 903.046 C 4276.651 895.678, 4296.669 876.682, 4305.540 843.700 C 4310.825 824.047, 4311 819.892, 4311 713.949 L 4311 616 4206.750 616.175 C 4149.413 616.271, 4100.475 616.494, 4098 616.671 M 4678.247 617.074 C 4647.657 620.756, 4628.079 636.248, 4621.400 662.053 C 4620.072 667.184, 4619.638 674.987, 4619.271 700.288 L 4618.810 732.076 4739.155 731.740 C 4857.289 731.410, 4859.668 731.365, 4868.651 729.300 C 4891.027 724.157, 4904.547 712.449, 4909.570 693.869 C 4911.917 685.184, 4912.364 671.641, 4910.621 662.028 C 4907.386 644.189, 4897.977 631.387, 4882.763 624.126 C 4866.492 616.360, 4871.117 616.684, 4773 616.429 C 4724.875 616.303, 4682.236 616.593, 4678.247 617.074 M 3335.814 795.078 C 3320.202 797.368, 3308.813 802.274, 3301.054 810.053 C 3291.710 819.419, 3287.771 831.115, 3287.765 849.510 C 3287.754 883.757, 3304.710 901.895, 3340.546 905.971 C 3347.517 906.763, 3382.264 907.012, 3456.500 906.801 C 3571.090 906.476, 3566.217 906.715, 3572.373 901.114 C 3578.547 895.497, 3578.471 896.189, 3578.803 842.750 L 3579.105 794 3460.303 794.122 C 3394.961 794.189, 3338.941 794.619, 3335.814 795.078 M 3752 938.500 L 3752 1000 3803.500 1000 L 3855 1000 3855 938.500 L 3855 877 3803.500 877 L 3752 877 3752 938.500" stroke="none" fill="#040404" fill-rule="evenodd"/><path d="M 447.500 1.165 C 436.214 2.441, 418.488 6.554, 406.617 10.653 C 357.277 27.690, 317.649 62.593, 294.389 109.500 C 280.769 136.969, 274 165.851, 274 196.500 C 274 226.976, 280.188 254.085, 293.403 281.500 C 313.351 322.884, 343.983 353.609, 385 373.375 C 415.465 388.056, 442.660 393.778, 476.914 392.715 C 506.184 391.806, 528.612 386.416, 554.500 374.068 C 576.141 363.746, 592.038 352.652, 608.693 336.249 L 617.783 327.296 627.142 336.420 C 643.559 352.427, 659.545 363.571, 680.364 373.524 C 735.158 399.720, 797.417 399.385, 851.714 372.604 C 948.757 324.738, 988.947 208.398, 942.012 111.213 C 932.200 90.897, 921.739 75.904, 906.027 59.638 C 874.327 26.822, 833.532 6.594, 787.650 0.941 C 771.947 -0.993, 742.477 0.240, 727 3.480 C 700.881 8.947, 677.460 18.716, 656.039 33.079 C 644.038 41.126, 626.793 55.773, 621.318 62.568 L 618.150 66.500 607.325 55.933 C 590.660 39.666, 576.760 29.823, 556.500 19.944 C 523.057 3.638, 484.466 -3.011, 447.500 1.165 M 453.660 98.989 C 420.320 104.990, 391.548 127.990, 379.100 158.593 C 373.421 172.553, 372.495 177.989, 372.557 197 C 372.610 213.112, 372.830 215.202, 375.333 223.353 C 380.222 239.278, 387.528 252.147, 398.090 263.437 C 425.920 293.187, 469.368 302.856, 506.972 287.667 C 530.273 278.255, 551.334 257.564, 560.830 234.753 C 566.108 222.075, 568.271 211.197, 568.336 197 C 568.419 179.176, 565.470 166.775, 557.399 151 C 545.163 127.085, 523.190 109.182, 496.500 101.380 C 488.994 99.185, 485.093 98.696, 473 98.433 C 465.025 98.260, 456.322 98.510, 453.660 98.989 M 747.698 99.519 C 728.767 103.112, 710.687 112.549, 696.969 126 C 678.245 144.359, 668.569 165.784, 667.280 191.739 C 664.970 238.263, 695.282 279.624, 740.500 291.650 C 748.955 293.898, 752.663 294.320, 764.500 294.380 C 782.962 294.472, 793.834 292.023, 809.500 284.243 C 819.491 279.281, 827.382 273.374, 836.068 264.357 C 844.706 255.390, 848.280 250.420, 853.228 240.500 C 860.416 226.087, 863.375 213.255, 863.375 196.500 C 863.375 189.900, 862.812 181.800, 862.124 178.500 C 854.043 139.772, 827.132 111.070, 789.477 101.017 C 778.849 98.179, 758.586 97.453, 747.698 99.519 M 229.505 396.540 C 216.987 433.686, 206.952 464.285, 207.204 464.538 C 207.911 465.244, 364.075 414.714, 363.769 413.878 C 363.530 413.224, 253.133 329, 252.515 329 C 252.377 329, 242.023 359.393, 229.505 396.540 M 541.454 405.750 C 542.259 407.860, 612.877 530.159, 613.950 531.301 C 614.559 531.950, 688 406.188, 688 404.496 C 688 404.223, 654.877 404, 614.393 404 C 544.703 404, 540.822 404.093, 541.454 405.750 M 286.645 448.012 C 241.075 462.787, 203.594 475.073, 203.353 475.314 C 202.706 475.960, 144.020 650.354, 144.341 650.675 C 144.711 651.044, 421.884 458.634, 421.895 458 C 421.920 456.604, 374.186 421.557, 372 421.366 C 370.625 421.247, 332.215 433.237, 286.645 448.012 M 912.500 439.363 C 907 442.794, 883.600 457.015, 860.500 470.967 C 837.400 484.918, 813.100 499.704, 806.500 503.824 C 788.286 515.195, 734.994 550.960, 735.044 551.779 C 735.068 552.176, 766.450 577.342, 804.780 607.703 C 849.804 643.367, 874.708 662.481, 875.139 661.703 C 875.505 661.042, 878.529 651.275, 881.860 640 C 899.366 580.732, 912.552 518.214, 920.533 456.631 C 921.949 445.703, 922.971 435.944, 922.804 434.944 C 922.547 433.408, 920.945 434.095, 912.500 439.363 M 407.990 477.981 C 396.721 485.674, 387.117 492.547, 386.649 493.255 C 386.071 494.130, 412.715 536.184, 469.814 624.521 C 516.022 696.010, 554.138 754.500, 554.516 754.500 C 555.543 754.500, 562.515 737.366, 567.958 721.465 C 581.847 680.890, 589.143 642.862, 590.854 602.127 L 591.500 586.753 510.675 525.627 C 466.221 492.007, 429.542 464.386, 429.165 464.247 C 428.789 464.108, 419.260 470.288, 407.990 477.981 M 323.828 535.810 C 294.859 555.990, 270.884 572.775, 270.552 573.110 C 270.219 573.446, 275.332 614.621, 281.915 664.610 C 288.497 714.600, 300.534 808.938, 308.662 874.250 C 322.486 985.317, 323.566 993, 325.352 993 C 327.618 993, 340.033 986.043, 359.971 973.601 C 440.314 923.465, 506.200 853.407, 544.088 777.825 C 549.792 766.446, 550.105 765.467, 548.847 762.965 C 545.661 756.628, 378.405 499.043, 377.500 499.080 C 376.950 499.102, 352.798 515.631, 323.828 535.810 M 716.912 563.289 C 703.774 572.791, 696.189 579.113, 688.279 587.157 C 674.205 601.469, 671.778 605.740, 653.714 648 C 637.436 686.084, 602.712 773.946, 603.572 774.876 C 603.907 775.240, 768.662 674.625, 770.316 673.047 C 770.764 672.619, 769.302 653.501, 767.066 630.562 C 764.830 607.623, 763 588.044, 763 587.053 C 763 585.277, 729.478 557.739, 726.769 557.289 C 726.071 557.173, 721.635 559.873, 716.912 563.289 M 201.011 621.193 C 167.742 644.214, 140.008 663.601, 139.380 664.275 C 137.993 665.762, 70.349 868.690, 71.024 869.338 C 71.772 870.057, 305.277 977.191, 307.364 977.773 C 309.057 978.245, 309.170 977.843, 308.599 973.396 C 308.253 970.703, 305.059 938.800, 301.503 902.500 C 296.735 853.839, 290.807 803.136, 278.939 709.500 C 270.086 639.650, 262.541 581.788, 262.171 580.918 C 261.643 579.673, 248.619 588.250, 201.011 621.193 M 772 594.438 C 772 597.505, 796.033 844.367, 796.364 844.698 C 796.557 844.891, 797.242 844.413, 797.886 843.638 C 800.359 840.657, 826.053 788.557, 834.447 769.500 C 850.881 732.191, 873.184 672.678, 871.346 671.036 C 867.910 667.965, 773.027 593, 772.576 593 C 772.259 593, 772 593.647, 772 594.438 M 726.250 709.671 L 681 737.324 681.008 744.912 C 681.013 749.085, 682.360 808.075, 684.002 876 C 685.644 943.925, 686.990 1001.413, 686.994 1003.750 C 686.997 1006.087, 687.337 1007.990, 687.750 1007.978 C 688.734 1007.950, 709.515 980.928, 723.348 961.690 C 750.730 923.611, 788.974 862.382, 789.028 856.536 C 789.076 851.391, 772.916 685.611, 772.186 683.759 C 771.607 682.291, 764.411 686.350, 726.250 709.671 M 635.500 765.116 C 615.700 777.241, 599.015 787.687, 598.422 788.331 C 597.829 788.974, 592.116 803.675, 585.726 821 C 579.337 838.325, 564.811 877.700, 553.446 908.500 C 529.517 973.347, 530.246 971.248, 531.528 971.678 C 532.063 971.857, 562.200 985.985, 598.500 1003.073 C 634.800 1020.161, 664.914 1034.222, 665.420 1034.321 C 665.926 1034.419, 669.308 1030.836, 672.935 1026.357 C 679.068 1018.786, 679.511 1017.908, 679.245 1013.857 C 678.863 1008.061, 673 761.277, 673 751.011 C 673 746.605, 672.663 743.016, 672.250 743.035 C 671.837 743.054, 655.300 752.990, 635.500 765.116 M 66.891 883.750 C 66.308 885.263, 61.641 898.875, 56.519 914 C 44.404 949.774, 5.669 1062.521, 2.475 1071.307 C 1.114 1075.051, 0 1078.605, 0 1079.204 C 0 1080.553, 15.425 1079.741, 43 1076.941 C 130.273 1068.080, 212.017 1046.788, 284.561 1014.022 C 303.168 1005.618, 324.244 994.911, 323.548 994.215 C 323.282 993.949, 321.812 994.245, 320.282 994.874 C 317.698 995.936, 308.669 991.920, 193.546 938.509 C 125.372 906.879, 69.223 881, 68.772 881 C 68.320 881, 67.474 882.237, 66.891 883.750" stroke="none" fill="#2b7cab" fill-rule="evenodd"/></svg>