<svg xmlns="http://www.w3.org/2000/svg" role="img" viewBox="-8.48 -8.73 440.96 79.21"><path d="M143.41 14.83c-1.77-8.65-3.61-11.65-13.56-11.65-4.22 0-7.67 1.17-10 3.2a7.86 7.86 0 0 0-3 6.4 10.28 10.28 0 0 0 2.87 6.74c2.18 2.1 5.38 4 10.69 6.64 6.58 3.38 11.55 5.32 15.17 9.43a16.06 16.06 0 0 1 3.54 10 14.6 14.6 0 0 1-4.72 11.2c-3.54 3.2-9.09 5.3-16.6 5.3a49.6 49.6 0 0 1-15.72-2.91 81.16 81.16 0 0 0-2.76-12.42l3-.77c2.69 10.37 7.41 12.9 16.34 12.9a16.55 16.55 0 0 0 10.11-3.12 10.75 10.75 0 0 0 4.3-8.76 10.5 10.5 0 0 0-2.7-7.5c-2.69-3.2-7.25-5.22-12.13-7.66-5.14-2.61-12.21-6.4-14.65-9.85a14.17 14.17 0 0 1-2.52-8.08 12.26 12.26 0 0 1 5-9.95c3-2.36 7.66-4 14.24-4a37.32 37.32 0 0 1 14.01 2.39c.49 3.46 1.26 8 2 11.8zM162 41.87c0-6.49 1.19-10.69 3.46-13.65a11.42 11.42 0 0 1 16.51 0c2.27 3 3.46 7.16 3.46 13.65 0 6.82-1.43 11.12-3.54 13.81a11.18 11.18 0 0 1-16.33 0c-2.12-2.69-3.56-6.99-3.56-13.81zm-6.05-.08c0 7.66 2 12.71 5.3 15.83 3.38 3 7.42 4.22 12.47 4.22 5.3 0 9.44-1.36 12.8-4.39 3.2-3.12 5.14-8.08 5.14-15.66 0-6.66-1.84-11.79-5.14-15.08-3.29-3.12-7.16-4.63-12.8-4.63-5.4 0-9.27 1.51-12.55 4.55-3.38 3.28-5.22 8.55-5.22 15.16zm46.97-16.09h-6.24v-2.69h6.24V17.7c0-5.15 1.27-9 4-11.88a13.23 13.23 0 0 1 15.75-1.27c2.44 1.6 3.62 3.71 3.62 5.22 0 1.69-.85 2.62-2.37 2.62-2 0-2.77-1.78-3.7-3.63s-2-3.62-4.63-3.62A5.46 5.46 0 0 0 211.37 7c-1.67 2-2.68 5-2.68 11v5h10.69v2.69h-10.64v27.53c0 5.06.33 5.57 6.66 5.57v2.1h-18.8v-2.1c5.9 0 6.32-.59 6.32-5.74z"/><path d="M223.07 23.76c5.3-.5 8.93-2.54 10-11.37h2.1V23h8.93v2.69h-8.93V52.9c0 4 1.18 6 4.13 6a8.32 8.32 0 0 0 5.23-1.95l1.34 1.87a11.85 11.85 0 0 1-8.26 3c-4.29 0-8.25-2-8.25-8.61V25.7h-6.31zm40.56-16.42c0-2.28.33-3 2.54-3h8c5.91 0 9.69 1.34 12 3.29a10.72 10.72 0 0 1 3.3 7.66 11.06 11.06 0 0 1-3.89 9c-3 2.53-7.75 3.62-13.56 3.62h-8.42zm-6.23 44.72c0 6-.51 6.4-6.82 6.4v2.45h27.46c8.76 0 13.73-2 17-5.23a15.64 15.64 0 0 0 4.72-11.61 12.83 12.83 0 0 0-5.4-10.37c-3.61-2.78-8.5-4.21-14-4.38v-.14c5.3-.76 8.84-2.44 11.37-4.71a12.87 12.87 0 0 0 4.21-9.69 11.73 11.73 0 0 0-5.38-9.85c-4.55-3-9.62-3.71-17.37-3.71h-22.61v2.44c6.31 0 6.82.42 6.82 6.49zm6.23-20.88h10.46c6.89 0 11.53 1.18 14.49 3.45a11.36 11.36 0 0 1 4.63 9.26c0 4.39-1.27 7.5-3.3 9.61-2.86 2.94-6.72 4.21-12.71 4.21h-10.46c-2.61 0-3.12-.6-3.12-4.14zm64.15 23.07c-2.11 2.1-5 4.37-9.09 4.37a7.75 7.75 0 0 1-5.57-2 7.23 7.23 0 0 1-1.85-5.3c0-3.87 2.36-6.06 5.64-7.83 3.12-1.93 7.25-3.12 10.87-4.12zm5.82-20.47c0-3.71-.6-6-2.78-8.42s-5.06-3.29-10.1-3.29a18.32 18.32 0 0 0-9.61 2.36c-2.7 1.59-4.38 3.88-4.38 5.89a2.26 2.26 0 0 0 2.35 2.44 2.74 2.74 0 0 0 2.94-2 9.73 9.73 0 0 1 2.63-4.12 8.67 8.67 0 0 1 5.72-1.92c2.78 0 4.8.82 6.06 2.52 1.09 1.43 1.35 4 1.35 5.89v3.63l-5 1.18a36.77 36.77 0 0 0-12.46 4.77c-3.71 2.44-5.22 5.48-5.22 9.35a8.89 8.89 0 0 0 3.36 7.24 12.36 12.36 0 0 0 7.75 2.54 15.8 15.8 0 0 0 11.81-4.66h.3c.75 2.79 2.53 4.3 5.48 4.3a11.27 11.27 0 0 0 5.14-1.18l-.5-1.93a4.19 4.19 0 0 1-2.28.59c-1.68 0-2.52-1.68-2.52-5.47zm42.85 19.63c0 4.72.35 5.4 4.13 5.4v2.1h-14.26v-2.1c4.05 0 4.3-.51 4.3-5.57V34.46c0-3.28-.42-6-2-7.67a6.46 6.46 0 0 0-4.87-1.68c-3.55 0-7.33 3.2-10.7 7.83v20.29c0 5.06.07 5.57 4 5.57v2.1h-14.73v-2.1c4.54 0 4.88-.51 4.88-5.57V32.77c0-4.88-.42-5.47-4.88-5.39v-1.86c3.7-.58 6.57-1.42 9.34-3.45l.84.5.34 6.49h.18c3.36-4.29 7.64-7 12.29-7 3.61 0 6.23.93 8.08 2.71s3 4.88 3 9.34zm19.75-13.23l12-11.72c2.27-2.1 2.87-3.36-1.18-3.36V23h12.5v2.1a7.49 7.49 0 0 0-5.72 2.53l-8.84 8.41 12.88 19.54c1.87 2.95 3.71 3.29 6.24 3.21v2.1h-9.6l-13.72-21.22-4.72 4.63v8.91c0 4.89.17 5.57 4.8 5.57v2.1h-15.67v-2.1c4.88 0 5-.68 5-5.57V13.32c0-4.89-.5-5.47-5-5.47V6a24.32 24.32 0 0 0 10.1-3.46l.75.5v37.14z"/><path fill="#b7bbbe" d="M0 .01h84.21V20.7H0zm0 41.38h84.21v20.7H0z"/></svg>