<svg viewBox="0 0 1908 712" fill="none" xmlns="http://www.w3.org/2000/svg">
<path fill-rule="evenodd" clip-rule="evenodd" d="M516.779 445.497C544.424 472.462 581.906 487.63 621.002 487.674C660.095 487.627 697.573 472.456 725.215 445.492C752.857 418.527 768.405 381.969 768.451 343.837C768.405 305.705 752.857 269.147 725.215 242.183C697.573 215.218 660.095 200.048 621.002 200C581.906 200.044 544.424 215.213 516.779 242.178C489.134 269.143 473.584 305.703 473.538 343.837C473.584 381.972 489.134 418.531 516.779 445.497ZM559.105 283.462C575.523 267.448 597.783 258.44 621.002 258.414C644.218 258.443 666.474 267.453 682.889 283.467C699.304 299.481 708.538 321.192 708.564 343.837C708.542 366.484 699.309 388.196 682.894 404.211C666.478 420.226 644.219 429.235 621.002 429.261C597.783 429.235 575.523 420.226 559.105 404.212C542.687 388.198 533.451 366.485 533.425 343.837C533.451 321.189 542.687 299.477 559.105 283.462ZM222.048 384.891C224.748 415.924 236.478 440.384 257.239 458.27C278.009 476.165 305.547 485.112 339.853 485.112C359.806 485.103 377.739 481.552 393.651 474.459C409.564 467.338 421.969 457.273 430.866 444.264C439.764 431.256 444.213 416.198 444.213 399.091C444.222 378.85 439.369 362.67 429.655 350.552C420.751 339.082 408.964 330.047 395.434 324.321C379.602 318.059 363.305 312.982 346.683 309.133C335.096 306.491 326.198 304.122 319.991 302.026C314.286 300.201 308.994 297.321 304.406 293.542C302.384 291.875 300.772 289.786 299.688 287.429C298.605 285.072 298.078 282.508 298.147 279.927C298.056 276.474 298.861 273.055 300.486 269.987C302.111 266.919 304.504 264.3 307.443 262.375C313.641 258.035 322.139 255.865 332.938 255.865C345.077 255.865 355.457 258.888 364.079 264.934C368.252 267.775 371.798 271.404 374.507 275.606C377.216 279.808 379.032 284.498 379.849 289.398H442.145C438.885 262.555 427.478 241.378 407.924 225.866C388.371 210.354 363.361 202.598 332.895 202.598C315.758 202.406 298.781 205.836 283.132 212.653C268.769 218.77 256.39 228.594 247.329 241.067C238.579 253.255 233.98 267.817 234.182 282.694C234.182 301.897 238.702 317.019 247.742 328.062C256.24 338.714 267.278 347.179 279.896 352.721C295.235 359.099 311.057 364.312 327.22 368.312C339.359 371.511 348.865 374.293 355.737 376.657C362.152 378.747 368.021 382.179 372.933 386.713C375.187 388.825 376.963 391.373 378.147 394.195C379.331 397.017 379.896 400.049 379.806 403.096C379.957 408.693 378.18 414.178 374.759 418.673C371.099 423.213 366.187 426.639 360.6 428.548C353.919 430.879 346.862 432.014 339.768 431.9C323.846 431.928 311.103 427.848 301.54 419.661C291.977 411.474 286.245 399.884 284.344 384.891H222.048ZM1043.32 487.674C1004.23 487.63 966.747 472.462 939.102 445.497C911.457 418.531 895.906 381.972 895.861 343.837C895.906 305.703 911.457 269.143 939.102 242.178C966.747 215.213 1004.23 200.044 1043.32 200C1082.42 200.048 1119.9 215.218 1147.54 242.183C1175.18 269.147 1190.73 305.705 1190.77 343.837C1190.73 381.969 1175.18 418.527 1147.54 445.492C1119.9 472.456 1082.42 487.627 1043.32 487.674ZM1043.32 258.414C1020.11 258.44 997.845 267.448 981.427 283.462C965.009 299.477 955.774 321.189 955.747 343.837C955.774 366.485 965.009 388.198 981.427 404.212C997.845 420.226 1020.11 429.235 1043.32 429.261C1066.54 429.235 1088.8 420.226 1105.22 404.211C1121.63 388.196 1130.86 366.484 1130.89 343.837C1130.86 321.192 1121.63 299.481 1105.21 283.467C1088.8 267.453 1066.54 258.443 1043.32 258.414ZM872.446 412.742C881.745 434.582 895.378 454.413 912.562 471.095L870.699 511.999C847.985 489.956 829.962 463.752 817.666 434.893C805.37 406.034 799.043 375.089 799.049 343.836V205.729H858.379V343.836C858.367 367.485 863.147 390.902 872.446 412.742Z" fill="#151927"/>
<path fill-rule="evenodd" clip-rule="evenodd" d="M1427.98 445.497C1455.62 472.462 1493.11 487.63 1532.2 487.674C1571.3 487.627 1608.77 472.456 1636.41 445.492C1664.06 418.527 1679.61 381.969 1679.65 343.837C1679.61 305.705 1664.06 269.147 1636.41 242.183C1608.77 215.218 1571.3 200.048 1532.2 200C1493.11 200.044 1455.62 215.213 1427.98 242.178C1400.33 269.143 1384.78 305.703 1384.74 343.837C1384.78 381.972 1400.33 418.531 1427.98 445.497ZM1470.3 283.462C1486.72 267.448 1508.98 258.44 1532.2 258.414C1555.42 258.443 1577.67 267.453 1594.09 283.467C1610.5 299.481 1619.74 321.192 1619.76 343.837C1619.74 366.484 1610.51 388.196 1594.09 404.211C1577.68 420.226 1555.42 429.235 1532.2 429.261C1508.98 429.235 1486.72 420.226 1470.3 404.212C1453.89 388.198 1444.65 366.485 1444.63 343.837C1444.65 321.189 1453.89 299.477 1470.3 283.462ZM1290.86 205.729H1349.87V481.929H1290.86V205.729Z" fill="#151927"/>
<path d="M1224.28 487.667C1245.4 487.667 1262.53 470.967 1262.53 450.366C1262.53 429.765 1245.4 413.064 1224.28 413.064C1203.16 413.064 1186.04 429.765 1186.04 450.366C1186.04 470.967 1203.16 487.667 1224.28 487.667Z" fill="#151927"/>
</svg>
