<svg xmlns="http://www.w3.org/2000/svg" role="img" viewBox="-19.98 -19.98 1038.96 402.96"><defs><clipPath id="d"><path d="M2173 331h2.664v5H2173zm0 0"/></clipPath></defs><g transform="scale(9.09429)"><linearGradient id="a" x1="1140.138" x2="1180.138" y1="3.275" y2="3.275" gradientTransform="translate(-1140.138 16.725)" gradientUnits="userSpaceOnUse"><stop offset="0" stop-color="#e7380d"/><stop offset=".02" stop-color="#e7380d"/><stop offset=".075" stop-color="#e8410c"/><stop offset=".165" stop-color="#ec590a"/><stop offset=".279" stop-color="#f18107"/><stop offset=".41" stop-color="#f9b703"/><stop offset=".5" stop-color="#ffe100"/><stop offset=".59" stop-color="#f9b703"/><stop offset=".721" stop-color="#f18107"/><stop offset=".835" stop-color="#ec590a"/><stop offset=".925" stop-color="#e8410c"/><stop offset=".98" stop-color="#e7380d"/><stop offset="1" stop-color="#e7380d"/></linearGradient><path fill="url(#a)" d="M40 20L20 0 0 20l20 20z"/><linearGradient id="b" x1="1163.991" x2="1153.311" y1="-3.523" y2="-3.523" gradientTransform="translate(-1140.138 16.527)" gradientUnits="userSpaceOnUse"><stop offset=".2" stop-color="#fd0"/><stop offset=".282" stop-color="#fdca02"/><stop offset=".449" stop-color="#f79a05"/><stop offset=".681" stop-color="#ee4e0c"/><stop offset=".9" stop-color="#e50012"/></linearGradient><path fill="url(#b)" d="M21.1 21.1V4.9L13 13z"/><linearGradient id="c" x1="-5195.939" x2="-5206.62" y1="-6982.673" y2="-6982.673" gradientTransform="rotate(180 -2589.903 -3477.837)" gradientUnits="userSpaceOnUse"><stop offset=".2" stop-color="#fd0"/><stop offset=".282" stop-color="#fdca02"/><stop offset=".449" stop-color="#f79a05"/><stop offset=".681" stop-color="#ee4e0c"/><stop offset=".9" stop-color="#e50012"/></linearGradient><path fill="url(#c)" d="M18.9 18.9v16.2L27 27z"/></g><g fill="#002b69"><path d="M469.743 71.366a42.938 42.938 0 0 0-6.62-1.755 36.878 36.878 0 0 0-6.572-.602c-1.404 0-2.758.15-4.113.4-1.353.3-2.558.753-3.56 1.354a6.679 6.679 0 0 0-2.408 2.458c-.654 1.053-.95 2.257-.95 3.712 0 1.153.205 2.207.654 3.11.398.902 1.104 1.805 2.056 2.608 1.001.852 2.257 1.605 3.762 2.407 1.555.803 3.41 1.655 5.668 2.558a55.282 55.282 0 0 1 7.122 3.31c2.106 1.153 3.962 2.458 5.467 3.913a14.667 14.667 0 0 1 3.41 4.965c.759 1.856 1.156 4.063 1.156 6.52 0 2.96-.603 5.568-1.755 7.775-1.207 2.207-2.808 4.012-4.815 5.417-2.057 1.404-4.413 2.457-6.972 3.16a32.764 32.764 0 0 1-7.975 1.002c-2.758 0-5.718-.25-8.978-.802-3.21-.552-6.32-1.404-9.278-2.608l2.055-8.226a37.889 37.889 0 0 0 8.377 2.709c2.808.552 5.366.852 7.624.852 3.661 0 6.52-.702 8.627-2.157 2.107-1.454 3.16-3.61 3.16-6.42 0-1.304-.245-2.508-.848-3.56-.552-1.004-1.404-2.007-2.507-2.86-1.105-.902-2.508-1.755-4.164-2.558-1.706-.852-3.611-1.655-5.768-2.508-2.558-1.002-4.815-2.106-6.77-3.26-2.008-1.153-3.663-2.458-5.016-3.862-1.355-1.454-2.408-3.01-3.16-4.765-.758-1.755-1.104-3.711-1.104-5.868 0-2.859.603-5.367 1.806-7.524 1.156-2.156 2.758-3.912 4.714-5.316a21.336 21.336 0 0 1 6.571-3.06c2.408-.652 4.916-.953 7.574-.953 2.809 0 5.567.2 8.225.603 2.66.4 5.067.952 7.273 1.755zm47.297 28.79c0-2.357-.244-4.514-.757-6.42-.45-1.956-1.207-3.661-2.208-5.116a10.82 10.82 0 0 0-3.762-3.31c-1.554-.753-3.36-1.153-5.466-1.153-2.107 0-3.962.4-5.467 1.153-1.555.802-2.81 1.956-3.812 3.36-1.002 1.455-1.756 3.16-2.208 5.066-.5 1.956-.758 4.063-.758 6.42 0 4.815 1.002 8.677 3.06 11.637 2.007 2.959 5.067 4.464 9.18 4.514 4.112-.051 7.172-1.555 9.178-4.464 2.006-2.96 3.01-6.821 3.01-11.687m9.73 0c0 3.662-.5 6.972-1.555 9.831a21.359 21.359 0 0 1-4.363 7.423c-1.957 2.007-4.215 3.612-6.923 4.665s-5.717 1.605-9.077 1.605c-3.412 0-6.42-.552-9.13-1.605a18.369 18.369 0 0 1-6.87-4.665c-1.957-2.056-3.412-4.514-4.415-7.423-1.002-2.859-1.555-6.17-1.555-9.83 0-3.662.552-6.922 1.555-9.831 1.001-2.91 2.458-5.367 4.414-7.373 1.856-2.007 4.163-3.511 6.871-4.565 2.71-1.103 5.718-1.655 9.13-1.655 3.36 0 6.37.552 9.077 1.605 2.708 1.053 4.966 2.558 6.923 4.564 1.855 2.007 3.36 4.514 4.363 7.424 1.053 2.909 1.555 6.169 1.555 9.83m18.619-22.37v6.27h.154c1.258-2.307 3.16-4.113 5.617-5.417 2.508-1.254 5.267-1.906 8.327-1.906 4.965 0 8.978 1.505 11.888 4.414 3.008 2.96 4.463 6.922 4.463 11.937v29.593h-9.73V96.746c0-1.956-.154-3.712-.399-5.317-.296-1.555-.796-2.909-1.554-3.962a6.96 6.96 0 0 0-2.91-2.458c-1.206-.602-2.707-.853-4.614-.853-1.355 0-2.708.25-4.013.753-1.303.502-2.457 1.304-3.51 2.357-1.002 1.103-1.857 2.508-2.508 4.213-.655 1.756-.95 3.862-.95 6.37v24.828h-9.73v-44.89zm59.035 33.054h.205l11.988-33.104h10.232l-24.477 61.492H592.13l7.272-17.504-17.705-43.988h10.634zm-166.169 40.677h9.98v60.74h-9.98zm32.2 15.799v6.32h.154c1.258-2.307 3.16-4.113 5.618-5.417 2.507-1.253 5.267-1.906 8.325-1.906 4.967 0 8.98 1.505 11.938 4.414 2.96 2.96 4.414 6.922 4.414 11.937v29.593h-9.73v-25.931a35.2 35.2 0 0 0-.398-5.317c-.296-1.555-.796-2.91-1.555-3.962a6.955 6.955 0 0 0-2.908-2.458c-1.155-.602-2.71-.853-4.615-.853-1.354 0-2.659.25-4.012.753-1.305.502-2.458 1.304-3.462 2.357-1.053 1.103-1.905 2.508-2.508 4.214-.654 1.755-1.001 3.862-1.001 6.37v24.827h-9.73v-44.94zm37.768 0h7.523V155.68h9.73v11.636h9.882v7.423h-9.882v23.474c0 1.505 0 2.758.206 3.711.128.903.346 1.656.758 2.157.397.502.95.853 1.605 1.003.707.2 1.655.3 2.858.3.796 0 1.605-.05 2.307-.102a30.43 30.43 0 0 0 2.107-.25v7.222c-.95.103-2.107.2-3.411.3-1.303.151-2.608.201-3.963.201-2.607 0-4.713-.3-6.268-.852-1.605-.553-2.86-1.405-3.712-2.508-.899-1.103-1.455-2.458-1.756-4.013-.295-1.555-.448-3.36-.448-5.367v-25.279h-7.523zm54.571 5.969c-3.41 0-6.17 1.154-8.276 3.36-2.057 2.257-3.261 5.167-3.712 8.828h22.47v-.2c0-3.612-.847-6.52-2.759-8.677-1.905-2.207-4.463-3.31-7.723-3.31m-11.988 19.31c.346 4.263 1.956 7.523 4.715 9.83 2.808 2.307 6.37 3.461 10.733 3.461 1.907 0 3.862-.2 5.868-.502 2.007-.3 3.862-.752 5.567-1.404l1.305 7.222c-3.912 1.405-8.426 2.057-13.593 2.057-3.862 0-7.272-.552-10.282-1.756-3.008-1.154-5.567-2.758-7.623-4.815-2.057-2.107-3.612-4.564-4.665-7.423-1.053-2.86-1.555-5.969-1.555-9.38 0-3.41.5-6.57 1.505-9.429 1.001-2.909 2.408-5.417 4.313-7.473a19.014 19.014 0 0 1 6.772-4.916c2.658-1.153 5.617-1.755 8.928-1.755 3.26 0 6.068.552 8.475 1.555 2.408 1.053 4.465 2.558 6.12 4.464 1.655 1.906 2.86 4.213 3.712 6.971.796 2.76 1.207 5.769 1.207 9.129v4.163zm64.703-18.509c-.95-.25-2.207-.35-3.662-.35a9.912 9.912 0 0 0-4.063.702 8.863 8.863 0 0 0-3.612 2.508c-.95 1.153-1.755 2.658-2.306 4.614-.552 1.906-.847 4.164-.847 6.722v23.974h-9.73v-44.89h9.48v5.919h.153c2.057-4.665 5.97-6.972 11.788-6.972.448 0 .95 0 1.554.05.552.052 1.105.052 1.706.151zm29.291 16.402c-2.308 0-4.465.103-6.57.3-2.108.25-3.963.703-5.568 1.355-1.555.652-2.86 1.554-3.762 2.608-.95 1.103-1.455 2.558-1.455 4.313 0 2.157.654 3.862 1.907 5.116 1.258 1.304 3.11 1.956 5.617 1.956 2.006 0 3.761-.351 5.266-1.053 1.505-.652 2.71-1.554 3.662-2.708.95-1.103 1.655-2.408 2.107-3.862.449-1.455.655-2.96.655-4.564v-3.461zm1.855-7.474c0-3.01-.847-5.316-2.558-6.921-1.705-1.555-4.363-2.358-7.925-2.358-1.605 0-3.41.2-5.517.602a36.296 36.296 0 0 0-6.018 1.856l-1.957-7.222c1.555-.652 3.712-1.255 6.471-1.806 2.809-.552 5.366-.852 7.724-.852 6.42 0 11.285 1.404 14.595 4.213 3.26 2.809 4.915 6.972 4.915 12.489v19.01c0 1.604 0 3.31.154 5.215.154 1.856.346 3.511.656 5.016h-8.676a25.08 25.08 0 0 1-.552-2.909c-.205-1.103-.296-2.207-.45-3.21h-.154c-1.156 2.107-2.858 3.812-5.216 5.116-2.357 1.354-5.167 2.006-8.427 2.006-1.955 0-3.862-.25-5.717-.702-1.806-.502-3.51-1.304-4.966-2.408-1.505-1.103-2.658-2.508-3.612-4.263-.898-1.755-1.353-3.912-1.353-6.42 0-3.21.758-5.868 2.307-7.875 1.555-2.056 3.661-3.611 6.269-4.714 2.66-1.103 5.668-1.856 9.13-2.257 3.41-.401 7.022-.603 10.883-.603zm50.458-7.674c-1.258-.552-2.608-.952-4.013-1.254a23.305 23.305 0 0 0-4.012-.35c-2.358 0-4.413.4-6.168 1.254-1.807.852-3.312 2.006-4.515 3.46-1.207 1.455-2.107 3.16-2.708 5.117-.655 2.006-.95 4.113-.95 6.32 0 2.206.308 4.263.95 6.219.603 1.906 1.504 3.611 2.708 5.066 1.207 1.504 2.758 2.658 4.615 3.46 1.905.853 3.962 1.255 6.218 1.255 1.405 0 2.81-.15 4.114-.352a16.275 16.275 0 0 0 4.013-1.304l1.605 7.323c-1.707.652-3.412 1.053-5.117 1.354-1.705.25-3.46.35-5.216.35-3.862 0-7.272-.601-10.282-1.805-2.96-1.153-5.468-2.809-7.423-4.915a20.37 20.37 0 0 1-4.414-7.373c-1.002-2.86-1.505-5.919-1.505-9.28 0-3.46.551-6.62 1.605-9.479 1.104-2.859 2.659-5.317 4.664-7.423 2.007-2.057 4.515-3.662 7.373-4.865 2.91-1.203 6.22-1.806 9.932-1.806 4.013 0 7.473.552 10.383 1.605zm6.872-8.025h7.523V155.68h9.73v11.636h9.882v7.423h-9.882v23.474c0 1.505 0 2.758.206 3.711.128.903.346 1.656.757 2.157a2.67 2.67 0 0 0 1.605 1.003c.707.2 1.656.3 2.86.3.795 0 1.604-.05 2.307-.102.705-.05 1.404-.15 2.107-.25v7.222c-1.002.103-2.107.2-3.412.3-1.303.151-2.608.201-3.962.201-2.608 0-4.715-.3-6.269-.852-1.605-.553-2.86-1.405-3.712-2.508-.899-1.103-1.455-2.458-1.755-4.013-.309-1.555-.45-3.36-.45-5.367v-25.279h-7.522zm45.843 44.941h-9.73v-44.89h9.73zm.206-53.066h-9.981v-9.028h9.98zm29.336 44.489h.155l11.937-36.314h10.333l-16.853 44.89h-11.387l-16.7-44.89h10.582zm46.596-30.395c-3.41 0-6.17 1.154-8.225 3.36-2.107 2.257-3.312 5.167-3.762 8.828h22.47v-.2c0-3.612-.847-6.52-2.76-8.677-1.905-2.207-4.463-3.31-7.723-3.31m-11.987 19.31c.397 4.263 1.955 7.523 4.715 9.83 2.808 2.307 6.37 3.461 10.733 3.461 1.905 0 3.862-.2 5.868-.502 2.057-.3 3.862-.752 5.567-1.404l1.305 7.222c-3.913 1.405-8.427 2.057-13.593 2.057-3.862 0-7.273-.552-10.282-1.756-3.01-1.154-5.568-2.758-7.623-4.815-2.057-2.107-3.612-4.564-4.665-7.423-1.053-2.86-1.555-5.969-1.555-9.38 0-3.41.5-6.57 1.505-9.429 1.001-2.909 2.407-5.417 4.313-7.473a19.015 19.015 0 0 1 6.772-4.916c2.657-1.153 5.617-1.755 8.927-1.755 3.26 0 6.069.552 8.476 1.555 2.408 1.053 4.465 2.558 6.12 4.464 1.655 1.906 2.86 4.213 3.712 6.971.796 2.76 1.207 5.769 1.207 9.129v4.163zm-375.724 48.501h35.108v8.075h-25.128v17.455h23.173v8.175h-23.173v18.96h25.88v8.075h-35.86zm55.823 15.849v6.27h.154c1.259-2.307 3.16-4.113 5.668-5.417 2.509-1.253 5.267-1.906 8.277-1.906 5.015 0 8.978 1.505 11.937 4.414 2.959 2.96 4.464 6.922 4.464 11.937v29.593h-9.73v-25.931c0-1.956-.155-3.712-.45-5.317-.309-1.555-.797-2.909-1.556-3.962-.706-1.103-1.706-1.906-2.86-2.458-1.206-.602-2.757-.853-4.614-.853-1.403 0-2.708.25-4.012.753a9.651 9.651 0 0 0-3.51 2.357c-1.054 1.103-1.856 2.508-2.509 4.213-.655 1.756-1.001 3.863-1.001 6.37v24.828h-9.732v-44.89zm37.818 0h7.525V245.26h9.73v11.686h9.88v7.374h-9.88v23.473c0 1.505 0 2.759.154 3.711.128.903.346 1.656.758 2.157.398.502.95.853 1.655 1.003.656.2 1.605.3 2.81.3.847 0 1.605-.05 2.306-.102.758-.051 1.455-.15 2.107-.25v7.222c-.95.103-2.107.2-3.41.3-1.305.15-2.608.2-3.913.2-2.608 0-4.715-.3-6.32-.852-1.605-.552-2.86-1.404-3.712-2.508-.899-1.103-1.453-2.457-1.755-4.012a34.772 34.772 0 0 1-.398-5.367v-25.279H531.9zm54.521 5.919c-3.41 0-6.169 1.153-8.226 3.36-2.107 2.258-3.31 5.167-3.712 8.828h22.42v-.2c0-3.612-.847-6.52-2.758-8.677-1.905-2.207-4.464-3.31-7.724-3.31m-11.938 19.31c.347 4.263 1.907 7.523 4.715 9.83 2.76 2.307 6.37 3.461 10.735 3.461 1.855 0 3.81-.2 5.868-.502 2.005-.3 3.862-.752 5.567-1.404l1.258 7.222c-3.91 1.405-8.425 2.057-13.54 2.057-3.863 0-7.325-.602-10.333-1.756-3.01-1.154-5.568-2.758-7.575-4.815-2.055-2.106-3.61-4.564-4.664-7.423-1.053-2.859-1.605-5.969-1.605-9.38 0-3.41.5-6.57 1.504-9.429 1.002-2.909 2.458-5.417 4.315-7.473a19.932 19.932 0 0 1 6.77-4.915c2.658-1.155 5.618-1.756 8.928-1.756 3.26 0 6.07.552 8.477 1.555a16.667 16.667 0 0 1 6.118 4.464c1.657 1.906 2.86 4.213 3.712 6.972.797 2.758 1.259 5.768 1.259 9.128v4.163zm64.653-18.559c-.95-.2-2.157-.3-3.662-.3a9.914 9.914 0 0 0-4.063.702 8.86 8.86 0 0 0-3.61 2.508c-.95 1.154-1.755 2.658-2.308 4.614-.552 1.906-.847 4.163-.847 6.721v23.975h-9.73v-44.89h9.48v5.919h.154c2.055-4.665 6.018-6.972 11.786-6.972.448 0 .95 0 1.555.05.552.052 1.104.052 1.706.151zm4.213-6.671h7.474V245.26h9.78v11.686h9.881v7.374h-9.88v23.473c0 1.505 0 2.759.154 3.711.128.903.346 1.656.757 2.157.398.502.95.853 1.605 1.003.706.2 1.655.3 2.858.3.847 0 1.605-.05 2.307-.102.758-.051 1.455-.15 2.107-.25v7.222c-.95.103-2.107.2-3.41.3-1.305.15-2.61.2-3.912.2-2.608 0-4.715-.3-6.32-.852-1.605-.552-2.86-1.404-3.713-2.508-.847-1.103-1.454-2.457-1.755-4.012a32.874 32.874 0 0 1-.449-5.367v-25.279h-7.474zm59.637 23.123a70.5 70.5 0 0 0-6.571.3c-2.106.25-3.963.703-5.518 1.354-1.605.653-2.858 1.505-3.81 2.609-.95 1.102-1.405 2.558-1.405 4.313 0 2.157.603 3.862 1.855 5.116 1.258 1.304 3.16 1.956 5.618 1.956 2.006 0 3.762-.35 5.267-1.053 1.504-.652 2.708-1.555 3.66-2.708.95-1.103 1.655-2.408 2.107-3.862.45-1.455.656-2.96.656-4.565v-3.46zm1.856-7.474c0-3.01-.848-5.316-2.558-6.921-1.705-1.555-4.314-2.358-7.925-2.358-1.605 0-3.41.2-5.517.602-2.057.451-4.063 1.053-5.97 1.856l-2.005-7.222c1.554-.653 3.712-1.255 6.52-1.806 2.76-.552 5.317-.853 7.674-.853 6.42 0 11.285 1.405 14.596 4.213 3.26 2.81 4.915 6.972 4.915 12.49v19.009c0 1.605.128 3.31.205 5.216.129 1.856.296 3.561.604 5.016h-8.627c-.244-.803-.399-1.756-.604-2.91a87.78 87.78 0 0 1-.398-3.21h-.205c-1.156 2.107-2.86 3.813-5.217 5.117-2.307 1.354-5.115 2.006-8.426 2.006-1.956 0-3.812-.25-5.667-.702a14.99 14.99 0 0 1-5.017-2.408 12.38 12.38 0 0 1-3.56-4.263c-.9-1.756-1.355-3.912-1.355-6.42 0-3.21.758-5.869 2.307-7.875 1.505-2.056 3.612-3.611 6.27-4.715 2.608-1.103 5.668-1.855 9.078-2.257 3.412-.4 7.072-.602 10.885-.602zm31.498 29.242h-9.73v-44.94h9.73zm.205-53.066h-9.98v-9.028h9.98zm22.365 8.175v6.27h.154c1.258-2.307 3.11-4.113 5.618-5.417 2.509-1.253 5.267-1.906 8.277-1.906 5.015 0 9.027 1.505 11.937 4.414 3.008 2.96 4.463 6.922 4.463 11.937v29.593h-9.73v-25.931a35.19 35.19 0 0 0-.398-5.317c-.308-1.555-.796-2.909-1.554-3.962a6.953 6.953 0 0 0-2.91-2.458c-1.207-.602-2.758-.853-4.615-.853-1.353 0-2.708.25-4.012.753-1.304.502-2.458 1.304-3.46 2.357-1.054 1.103-1.906 2.508-2.559 4.213-.655 1.756-.95 3.863-.95 6.37v24.828h-9.731v-44.89zm50.81 0v6.42h.205c1.156-2.357 2.909-4.213 5.366-5.517a16.512 16.512 0 0 1 7.875-1.956c6.672 0 11.085 2.458 13.292 7.323h.245c1.605-2.608 3.662-4.464 6.12-5.668 2.457-1.153 5.115-1.705 7.974-1.655 2.708 0 5.116.4 7.173 1.203 2.055.803 3.76 1.906 5.065 3.36 1.355 1.455 2.358 3.16 3.01 5.167.656 1.956.95 4.163.95 6.62v29.593h-9.73v-25.931c0-2.257-.129-4.113-.296-5.467a11.299 11.299 0 0 0-1.354-3.712c-.655-1.154-1.555-2.006-2.759-2.558-1.104-.602-2.608-.852-4.363-.852-1.207 0-2.408.2-3.612.652-1.156.4-2.206 1.053-3.16 1.906-.847.903-1.605 2.057-2.206 3.511-.552 1.455-.847 3.11-.847 5.066v27.385h-9.732v-26.432c0-1.906-.128-3.611-.296-5.066-.257-1.505-.654-2.809-1.304-3.862-.656-1.053-1.504-1.806-2.708-2.357-1.156-.553-2.608-.803-4.363-.803-1.305 0-2.61.25-3.863.752a8.46 8.46 0 0 0-3.21 2.257c-.95 1.003-1.655 2.308-2.257 4.013-.604 1.655-.899 3.712-.899 6.12v25.378h-9.73v-44.89zm87.422 5.919c-3.41 0-6.168 1.153-8.276 3.36-2.055 2.258-3.26 5.167-3.71 8.828h22.47v-.2c0-3.612-.847-6.52-2.76-8.677-1.905-2.207-4.463-3.31-7.724-3.31m-11.986 19.31c.398 4.263 1.955 7.523 4.713 9.83 2.81 2.307 6.37 3.461 10.735 3.461 1.905 0 3.862-.2 5.867-.502 2.007-.3 3.863-.752 5.568-1.404l1.305 7.222c-3.913 1.405-8.427 2.057-13.593 2.057-3.862 0-7.273-.602-10.282-1.756-3.01-1.154-5.568-2.758-7.625-4.815-2.056-2.106-3.61-4.564-4.663-7.423-1.053-2.859-1.555-5.969-1.555-9.38 0-3.41.5-6.57 1.505-9.429 1.001-2.909 2.407-5.417 4.313-7.473a19.01 19.01 0 0 1 6.77-4.916c2.66-1.154 5.618-1.755 8.928-1.755 3.261 0 6.07.552 8.477 1.555 2.407 1.053 4.464 2.558 6.12 4.464 1.655 1.906 2.858 4.213 3.71 6.972.796 2.758 1.207 5.768 1.207 9.128v4.163zm49.955-25.23v6.27h.154c1.258-2.307 3.16-4.113 5.618-5.417 2.507-1.253 5.267-1.906 8.325-1.906 4.967 0 8.98 1.505 11.938 4.414 2.96 2.96 4.414 6.922 4.414 11.937v29.593h-9.73v-25.931c0-1.956-.154-3.712-.398-5.317-.297-1.555-.796-2.909-1.556-3.962a6.953 6.953 0 0 0-2.908-2.458c-1.155-.602-2.709-.853-4.564-.853-1.405 0-2.71.25-4.063.753a9.874 9.874 0 0 0-3.462 2.357c-1.053 1.103-1.905 2.508-2.507 4.213-.655 1.756-1.002 3.863-1.002 6.37v24.828h-9.73v-44.89zm0 0"/><g clip-path="url(#d)" transform="matrix(12.84014 0 0 12.84013 -26935.821 -4011.746)"><path d="M2173.55 332.45h.587v-.91h.757v.91h.774v.573h-.774v1.829c0 .117.01.214.017.289.01.07.026.129.058.168a.22.22 0 0 0 .126.078.844.844 0 0 0 .222.023 2.495 2.495 0 0 0 .344-.027v.562a8.996 8.996 0 0 1-.57.04c-.207 0-.371-.024-.493-.067a.605.605 0 0 1-.289-.196.693.693 0 0 1-.136-.312 2.265 2.265 0 0 1-.035-.418v-1.969h-.586zm0 0"/></g></g></svg>