<svg xmlns="http://www.w3.org/2000/svg" xmlns:xlink="http://www.w3.org/1999/xlink" viewBox="0 0 144.65129 137.80968"><defs><style>.cls-1{fill:none;}.cls-2{clip-path:url(#clip-path);}.cls-3{fill:#307ad8;}.cls-4{fill:#3079d8;}.cls-5{fill:#3178d8;}.cls-6{fill:#3177d7;}.cls-7{fill:#3176d7;}.cls-8{fill:#3175d7;}.cls-9{fill:#3274d7;}.cls-10{fill:#3273d6;}.cls-11{fill:#3272d6;}.cls-12{fill:#3271d6;}.cls-13{fill:#3370d6;}.cls-14{fill:#336fd6;}.cls-15{fill:#336ed5;}.cls-16{fill:#346dd5;}.cls-17{fill:#346cd5;}.cls-18{fill:#346bd5;}.cls-19{fill:#346ad4;}.cls-20{fill:#3569d4;}.cls-21{fill:#3568d4;}.cls-22{fill:#20b4e5;}.cls-23{fill:#20b3e5;}.cls-24{fill:#21b2e5;}.cls-25{fill:#21b1e4;}.cls-26{fill:#21b0e4;}.cls-27{fill:#21afe4;}.cls-28{fill:#22aee4;}.cls-29{fill:#22ade3;}.cls-30{fill:#22ace3;}.cls-31{fill:#23abe3;}.cls-32{fill:#23aae3;}.cls-33{fill:#23a9e3;}.cls-34{fill:#23a8e2;}.cls-35{fill:#24a7e2;}.cls-36{fill:#24a6e2;}.cls-37{fill:#24a5e2;}.cls-38{fill:#24a4e1;}.cls-39{fill:#25a3e1;}.cls-40{fill:#25a2e1;}.cls-41{fill:#25a1e1;}.cls-42{fill:#26a0e0;}.cls-43{fill:#269fe0;}.cls-44{fill:#269ee0;}.cls-45{fill:#269de0;}.cls-46{fill:#279ce0;}.cls-47{fill:#279bdf;}.cls-48{fill:#279adf;}.cls-49{fill:#2899df;}.cls-50{fill:#2898df;}.cls-51{fill:#2897de;}.cls-52{fill:#2896de;}.cls-53{fill:#2995de;}.cls-54{fill:#2994de;}.cls-55{fill:#2993de;}.cls-56{fill:#2a92dd;}.cls-57{fill:#2a91dd;}.cls-58{fill:#2a90dd;}.cls-59{fill:#2a8fdd;}.cls-60{fill:#2b8ddc;}.cls-61{fill:#2b8cdc;}.cls-62{fill:#2b8bdc;}.cls-63{fill:#2b8adc;}.cls-64{fill:#2c89db;}.cls-65{fill:#2c88db;}.cls-66{fill:#2c87db;}.cls-67{fill:#2d86db;}.cls-68{fill:#2d85db;}.cls-69{fill:#2d84da;}.cls-70{fill:#2d83da;}.cls-71{fill:#2e82da;}.cls-72{fill:#2e81da;}.cls-73{fill:#2e80d9;}.cls-74{fill:#2f7fd9;}.cls-75{fill:#2f7ed9;}.cls-76{fill:#2f7dd9;}.cls-77{fill:#2f7cd9;}.cls-78{fill:#307bd8;}</style><clipPath id="clip-path"><path class="cls-1" d="M113.67359,27.94134,73.85628,4.95422c-.06991-.03961-.13983-.07689-.21207-.10952a2.63133,2.63133,0,0,0-2.21622,0c-.07224.03263-.14449.06991-.2144.10952L31.39629,27.94134A2.64333,2.64333,0,0,0,30.075,30.2298V76.20871a2.64267,2.64267,0,0,0,1.22346,2.22786c.03262.021.06525.04195.09788.0606l39.8173,22.98712a2.63786,2.63786,0,0,0,2.64269,0l39.81731-22.98712c.03263-.01865.06526-.03962.09786-.0606a2.62781,2.62781,0,0,0,1.14426-1.58934,2.66211,2.66211,0,0,0,.0792-.63852V30.2298A2.64334,2.64334,0,0,0,113.67359,27.94134Zm-3.69137,1.834L93.50858,39.24614,77.07224,10.78023ZM72.479,9.7199a.06568.06568,0,0,1,.11419,0L85.39877,31.9007a24.98876,24.98876,0,0,0-25.83021.17945Zm-4.37882.88789-16.55753,28.678L34.95714,29.773ZM33.42141,32.61147,49.81581,42.278l-.08623.14914-16.30817,28.678ZM47.67416,52.68559c-.00931.22606-.01164.4521-.01164.67816A24.9565,24.9565,0,0,0,60.6056,75.24858H34.64721ZM70.97124,97.772,37.47166,78.43657H70.97124Zm1.56369-22.75642q-.79,0-1.56369-.05593a21.64525,21.64525,0,0,1-18.007-30.82428,21.2543,21.2543,0,0,1,1.75014-3.03186,21.63593,21.63593,0,0,1,35.61792-.03261,21.12738,21.12738,0,0,1,1.7944,3.11341A21.64668,21.64668,0,0,1,74.20351,74.95261Q73.37856,75.01554,72.53493,75.01554ZM74.20351,97.772V78.43657h33.49958ZM84.66237,75.24858A24.95907,24.95907,0,0,0,97.60311,53.36375c0-.11187,0-.2214-.00466-.33326l12.82889,22.21809Zm27.091-3.964L95.34494,42.42714l-.06058-.10486,16.469-9.71081Z"/></clipPath></defs><g id="final"><g class="cls-2"><polygon class="cls-3" points="95.604 32.611 95.284 33.166 95.284 32.611 95.604 32.611"/><polygon class="cls-4" points="96.278 32.611 95.284 34.332 95.284 33.166 95.604 32.611 96.278 32.611"/><polygon class="cls-5" points="96.951 32.611 95.284 35.499 95.284 34.332 96.278 32.611 96.951 32.611"/><polygon class="cls-6" points="97.625 32.611 95.284 36.666 95.284 35.499 96.951 32.611 97.625 32.611"/><polygon class="cls-7" points="98.299 32.611 95.284 37.832 95.284 36.666 97.625 32.611 98.299 32.611"/><polygon class="cls-8" points="98.972 32.611 95.284 38.999 95.284 37.832 98.299 32.611 98.972 32.611"/><polygon class="cls-9" points="99.646 32.611 95.284 40.166 95.284 38.999 98.972 32.611 99.646 32.611"/><polygon class="cls-10" points="100.319 32.611 95.284 41.332 95.284 40.166 99.646 32.611 100.319 32.611"/><polygon class="cls-11" points="100.993 32.611 95.284 42.499 95.284 41.332 100.319 32.611 100.993 32.611"/><polygon class="cls-12" points="101.667 32.611 95.284 43.666 95.284 42.499 100.993 32.611 101.667 32.611"/><polygon class="cls-13" points="102.34 32.611 95.284 44.832 95.284 43.666 101.667 32.611 102.34 32.611"/><polygon class="cls-14" points="103.014 32.611 95.284 45.999 95.284 44.832 102.34 32.611 103.014 32.611"/><polygon class="cls-15" points="103.687 32.611 95.284 47.166 95.284 45.999 103.014 32.611 103.687 32.611"/><polygon class="cls-16" points="104.361 32.611 95.284 48.332 95.284 47.166 103.687 32.611 104.361 32.611"/><polygon class="cls-17" points="105.034 32.611 95.284 49.499 95.284 48.332 104.361 32.611 105.034 32.611"/><polygon class="cls-18" points="105.708 32.611 95.284 50.666 95.284 49.499 105.034 32.611 105.708 32.611"/><polygon class="cls-19" points="106.382 32.611 95.284 51.832 95.284 50.666 105.708 32.611 106.382 32.611"/><polygon class="cls-20" points="107.055 32.611 95.284 52.999 95.284 51.832 106.382 32.611 107.055 32.611"/><polygon class="cls-21" points="107.729 32.611 95.284 54.166 95.284 52.999 107.055 32.611 107.729 32.611"/><polygon class="cls-21" points="107.753 71.285 95.284 64.086 95.284 54.166 107.729 32.611 111.753 32.611 111.753 71.285 107.753 71.285"/><polygon class="cls-5" points="85.163 53.03 84.662 53.897 84.662 53.03 85.163 53.03"/><polygon class="cls-6" points="85.836 53.03 84.662 55.063 84.662 53.897 85.163 53.03 85.836 53.03"/><polygon class="cls-7" points="86.51 53.03 84.662 56.23 84.662 55.063 85.836 53.03 86.51 53.03"/><polygon class="cls-8" points="87.183 53.03 84.662 57.397 84.662 56.23 86.51 53.03 87.183 53.03"/><polygon class="cls-9" points="87.857 53.03 84.662 58.563 84.662 57.397 87.183 53.03 87.857 53.03"/><polygon class="cls-10" points="88.53 53.03 84.662 59.73 84.662 58.563 87.857 53.03 88.53 53.03"/><polygon class="cls-11" points="89.204 53.03 84.662 60.897 84.662 59.73 88.53 53.03 89.204 53.03"/><polygon class="cls-12" points="89.878 53.03 84.662 62.064 84.662 60.897 89.204 53.03 89.878 53.03"/><polygon class="cls-13" points="90.551 53.03 84.662 63.23 84.662 62.064 89.878 53.03 90.551 53.03"/><polygon class="cls-14" points="91.225 53.03 84.662 64.397 84.662 63.23 90.551 53.03 91.225 53.03"/><polygon class="cls-15" points="91.898 53.03 84.662 65.564 84.662 64.397 91.225 53.03 91.898 53.03"/><polygon class="cls-16" points="92.572 53.03 84.662 66.73 84.662 65.564 91.898 53.03 92.572 53.03"/><polygon class="cls-17" points="93.245 53.03 84.662 67.897 84.662 66.73 92.572 53.03 93.245 53.03"/><polygon class="cls-18" points="93.919 53.03 84.662 69.064 84.662 67.897 93.245 53.03 93.919 53.03"/><polygon class="cls-19" points="94.593 53.03 84.662 70.23 84.662 69.064 93.919 53.03 94.593 53.03"/><polygon class="cls-20" points="95.266 53.03 84.662 71.397 84.662 70.23 94.593 53.03 95.266 53.03"/><polygon class="cls-21" points="95.94 53.03 84.662 72.564 84.662 71.397 95.266 53.03 95.94 53.03"/><polygon class="cls-21" points="101.598 53.03 110.427 58.128 110.427 75.249 84.662 75.249 84.662 72.564 95.94 53.03 101.598 53.03"/><polygon class="cls-11" points="74.536 78.437 74.204 79.012 74.204 78.437 74.536 78.437"/><polygon class="cls-12" points="75.209 78.437 74.204 80.179 74.204 79.012 74.536 78.437 75.209 78.437"/><polygon class="cls-13" points="75.883 78.437 74.204 81.345 74.204 80.179 75.209 78.437 75.883 78.437"/><polygon class="cls-14" points="76.557 78.437 74.204 82.512 74.204 81.345 75.883 78.437 76.557 78.437"/><polygon class="cls-15" points="77.23 78.437 74.204 83.679 74.204 82.512 76.557 78.437 77.23 78.437"/><polygon class="cls-16" points="77.904 78.437 74.204 84.845 74.204 83.679 77.23 78.437 77.904 78.437"/><polygon class="cls-17" points="78.577 78.437 74.204 86.012 74.204 84.845 77.904 78.437 78.577 78.437"/><polygon class="cls-18" points="79.251 78.437 74.204 87.179 74.204 86.012 78.577 78.437 79.251 78.437"/><polygon class="cls-19" points="79.924 78.437 74.204 88.345 74.204 87.179 79.251 78.437 79.924 78.437"/><polygon class="cls-20" points="80.598 78.437 74.204 89.512 74.204 88.345 79.924 78.437 80.598 78.437"/><polygon class="cls-21" points="81.272 78.437 74.204 90.679 74.204 89.512 80.598 78.437 81.272 78.437"/><polygon class="cls-21" points="74.204 90.679 81.272 78.437 107.703 78.437 107.703 97.772 74.204 97.772 74.204 90.679"/><polygon class="cls-22" points="57.041 31.738 50.895 42.384 50.895 31.738 57.041 31.738"/><polygon class="cls-22" points="57.715 31.738 50.895 43.551 50.895 42.384 57.041 31.738 57.715 31.738"/><polygon class="cls-23" points="58.389 31.738 50.895 44.717 50.895 43.551 57.715 31.738 58.389 31.738"/><polygon class="cls-24" points="59.062 31.738 50.895 45.884 50.895 44.717 58.389 31.738 59.062 31.738"/><polygon class="cls-25" points="59.736 31.738 50.895 47.051 50.895 45.884 59.062 31.738 59.736 31.738"/><polygon class="cls-26" points="60.409 31.738 50.895 48.217 50.895 47.051 59.736 31.738 60.409 31.738"/><polygon class="cls-27" points="61.083 31.738 50.895 49.384 50.895 48.217 60.409 31.738 61.083 31.738"/><polygon class="cls-28" points="61.756 31.738 50.895 50.551 50.895 49.384 61.083 31.738 61.756 31.738"/><polygon class="cls-29" points="62.43 31.738 50.895 51.717 50.895 50.551 61.756 31.738 62.43 31.738"/><polygon class="cls-30" points="63.104 31.738 50.895 52.884 50.895 51.717 62.43 31.738 63.104 31.738"/><polygon class="cls-31" points="63.777 31.738 50.895 54.051 50.895 52.884 63.104 31.738 63.777 31.738"/><polygon class="cls-32" points="64.451 31.738 50.895 55.217 50.895 54.051 63.777 31.738 64.451 31.738"/><polygon class="cls-33" points="65.124 31.738 50.895 56.384 50.895 55.217 64.451 31.738 65.124 31.738"/><polygon class="cls-34" points="65.798 31.738 50.895 57.551 50.895 56.384 65.124 31.738 65.798 31.738"/><polygon class="cls-35" points="66.471 31.738 50.895 58.717 50.895 57.551 65.798 31.738 66.471 31.738"/><polygon class="cls-36" points="67.145 31.738 50.895 59.884 50.895 58.717 66.471 31.738 67.145 31.738"/><polygon class="cls-37" points="67.819 31.738 50.895 61.051 50.895 59.884 67.145 31.738 67.819 31.738"/><polygon class="cls-38" points="68.492 31.738 50.895 62.217 50.895 61.051 67.819 31.738 68.492 31.738"/><polygon class="cls-39" points="69.166 31.738 50.895 63.384 50.895 62.217 68.492 31.738 69.166 31.738"/><polygon class="cls-40" points="69.839 31.738 50.895 64.551 50.895 63.384 69.166 31.738 69.839 31.738"/><polygon class="cls-41" points="70.513 31.738 50.895 65.717 50.895 64.551 69.839 31.738 70.513 31.738"/><polygon class="cls-42" points="71.187 31.738 50.895 66.884 50.895 65.717 70.513 31.738 71.187 31.738"/><polygon class="cls-43" points="71.86 31.738 50.895 68.051 50.895 66.884 71.187 31.738 71.86 31.738"/><polygon class="cls-44" points="72.534 31.738 50.895 69.217 50.895 68.051 71.86 31.738 72.534 31.738"/><polygon class="cls-45" points="73.207 31.738 50.895 70.384 50.895 69.217 72.534 31.738 73.207 31.738"/><polygon class="cls-46" points="73.881 31.738 50.98 71.404 50.895 71.355 50.895 70.384 73.207 31.738 73.881 31.738"/><polygon class="cls-47" points="74.554 31.738 51.485 71.695 50.98 71.404 73.881 31.738 74.554 31.738"/><polygon class="cls-48" points="75.228 31.738 51.99 71.987 51.485 71.695 74.554 31.738 75.228 31.738"/><polygon class="cls-49" points="75.902 31.738 52.495 72.279 51.99 71.987 75.228 31.738 75.902 31.738"/><polygon class="cls-50" points="76.575 31.738 53 72.57 52.495 72.279 75.902 31.738 76.575 31.738"/><polygon class="cls-51" points="77.249 31.738 53.506 72.862 53 72.57 76.575 31.738 77.249 31.738"/><polygon class="cls-52" points="77.922 31.738 54.011 73.154 53.506 72.862 77.249 31.738 77.922 31.738"/><polygon class="cls-53" points="78.596 31.738 54.516 73.445 54.011 73.154 77.922 31.738 78.596 31.738"/><polygon class="cls-54" points="79.269 31.738 55.021 73.737 54.516 73.445 78.596 31.738 79.269 31.738"/><polygon class="cls-55" points="79.943 31.738 55.526 74.029 55.021 73.737 79.269 31.738 79.943 31.738"/><polygon class="cls-56" points="80.617 31.738 56.031 74.32 55.526 74.029 79.943 31.738 80.617 31.738"/><polygon class="cls-57" points="81.29 31.738 56.537 74.612 56.031 74.32 80.617 31.738 81.29 31.738"/><polygon class="cls-58" points="81.964 31.738 57.042 74.904 56.537 74.612 81.29 31.738 81.964 31.738"/><polygon class="cls-59" points="82.637 31.738 57.651 75.016 57.236 75.016 57.042 74.904 81.964 31.738 82.637 31.738"/><polygon class="cls-60" points="83.311 31.738 58.324 75.016 57.651 75.016 82.637 31.738 83.311 31.738"/><polygon class="cls-61" points="83.984 31.738 58.998 75.016 58.324 75.016 83.311 31.738 83.984 31.738"/><polygon class="cls-62" points="84.031 31.738 84.501 32.009 59.672 75.016 58.998 75.016 83.984 31.738 84.031 31.738"/><polygon class="cls-63" points="84.501 32.009 85.007 32.301 60.345 75.016 59.672 75.016 84.501 32.009"/><polygon class="cls-64" points="85.007 32.301 85.512 32.592 61.019 75.016 60.345 75.016 85.007 32.301"/><polygon class="cls-65" points="85.512 32.592 86.017 32.884 61.692 75.016 61.019 75.016 85.512 32.592"/><polygon class="cls-66" points="86.017 32.884 86.522 33.176 62.366 75.016 61.692 75.016 86.017 32.884"/><polygon class="cls-67" points="86.522 33.176 87.027 33.467 63.039 75.016 62.366 75.016 86.522 33.176"/><polygon class="cls-68" points="87.027 33.467 87.532 33.759 63.713 75.016 63.039 75.016 87.027 33.467"/><polygon class="cls-69" points="87.532 33.759 88.038 34.051 64.387 75.016 63.713 75.016 87.532 33.759"/><polygon class="cls-70" points="88.038 34.051 88.543 34.342 65.06 75.016 64.387 75.016 88.038 34.051"/><polygon class="cls-71" points="88.543 34.342 89.048 34.634 65.734 75.016 65.06 75.016 88.543 34.342"/><polygon class="cls-72" points="89.048 34.634 89.553 34.926 66.407 75.016 65.734 75.016 89.048 34.634"/><polygon class="cls-73" points="89.553 34.926 90.058 35.217 67.081 75.016 66.407 75.016 89.553 34.926"/><polygon class="cls-74" points="90.058 35.217 90.564 35.509 67.754 75.016 67.081 75.016 90.058 35.217"/><polygon class="cls-75" points="90.564 35.509 91.069 35.801 68.428 75.016 67.754 75.016 90.564 35.509"/><polygon class="cls-76" points="91.069 35.801 91.574 36.092 69.102 75.016 68.428 75.016 91.069 35.801"/><polygon class="cls-77" points="91.574 36.092 92.079 36.384 69.775 75.016 69.102 75.016 91.574 36.092"/><polygon class="cls-78" points="92.079 36.384 92.584 36.676 70.449 75.016 69.775 75.016 92.079 36.384"/><polygon class="cls-3" points="92.584 36.676 93.089 36.967 71.122 75.016 70.449 75.016 92.584 36.676"/><polygon class="cls-4" points="93.089 36.967 93.595 37.259 71.796 75.016 71.122 75.016 93.089 36.967"/><polygon class="cls-5" points="93.595 37.259 94.1 37.551 72.469 75.016 71.796 75.016 93.595 37.259"/><polygon class="cls-6" points="94.1 37.551 94.173 37.593 94.173 38.591 73.143 75.016 72.469 75.016 94.1 37.551"/><polygon class="cls-7" points="94.173 39.758 73.817 75.016 73.143 75.016 94.173 38.591 94.173 39.758"/><polygon class="cls-8" points="94.173 40.924 74.49 75.016 73.817 75.016 94.173 39.758 94.173 40.924"/><polygon class="cls-9" points="94.173 42.091 75.164 75.016 74.49 75.016 94.173 40.924 94.173 42.091"/><polygon class="cls-10" points="94.173 43.258 75.837 75.016 75.164 75.016 94.173 42.091 94.173 43.258"/><polygon class="cls-11" points="94.173 44.424 76.511 75.016 75.837 75.016 94.173 43.258 94.173 44.424"/><polygon class="cls-12" points="94.173 45.591 77.185 75.016 76.511 75.016 94.173 44.424 94.173 45.591"/><polygon class="cls-13" points="94.173 46.758 77.858 75.016 77.185 75.016 94.173 45.591 94.173 46.758"/><polygon class="cls-14" points="94.173 47.924 78.532 75.016 77.858 75.016 94.173 46.758 94.173 47.924"/><polygon class="cls-15" points="94.173 49.091 79.205 75.016 78.532 75.016 94.173 47.924 94.173 49.091"/><polygon class="cls-16" points="94.173 50.258 79.879 75.016 79.205 75.016 94.173 49.091 94.173 50.258"/><polygon class="cls-17" points="94.173 51.424 80.552 75.016 79.879 75.016 94.173 50.258 94.173 51.424"/><polygon class="cls-18" points="94.173 52.591 81.226 75.016 80.552 75.016 94.173 51.424 94.173 52.591"/><polygon class="cls-19" points="94.173 53.758 81.9 75.016 81.226 75.016 94.173 52.591 94.173 53.758"/><polygon class="cls-20" points="94.173 54.924 82.573 75.016 81.9 75.016 94.173 53.758 94.173 54.924"/><polygon class="cls-21" points="94.173 56.091 83.247 75.016 82.573 75.016 94.173 54.924 94.173 56.091"/><polygon class="cls-21" points="83.247 75.016 94.173 56.091 94.173 75.016 83.247 75.016"/><polygon class="cls-32" points="37.489 78.437 37.472 78.467 37.472 78.437 37.489 78.437"/><polygon class="cls-33" points="38.163 78.437 37.472 79.633 37.472 78.467 37.489 78.437 38.163 78.437"/><polygon class="cls-34" points="38.836 78.437 37.495 80.76 37.472 80.746 37.472 79.633 38.163 78.437 38.836 78.437"/><polygon class="cls-35" points="39.51 78.437 38 81.051 37.495 80.76 38.836 78.437 39.51 78.437"/><polygon class="cls-36" points="40.183 78.437 38.505 81.343 38 81.051 39.51 78.437 40.183 78.437"/><polygon class="cls-37" points="40.857 78.437 39.011 81.635 38.505 81.343 40.183 78.437 40.857 78.437"/><polygon class="cls-38" points="41.531 78.437 39.516 81.926 39.011 81.635 40.857 78.437 41.531 78.437"/><polygon class="cls-39" points="42.204 78.437 40.021 82.218 39.516 81.926 41.531 78.437 42.204 78.437"/><polygon class="cls-40" points="42.878 78.437 40.526 82.51 40.021 82.218 42.204 78.437 42.878 78.437"/><polygon class="cls-41" points="43.551 78.437 41.031 82.801 40.526 82.51 42.878 78.437 43.551 78.437"/><polygon class="cls-42" points="44.225 78.437 41.537 83.093 41.031 82.801 43.551 78.437 44.225 78.437"/><polygon class="cls-43" points="44.898 78.437 42.042 83.385 41.537 83.093 44.225 78.437 44.898 78.437"/><polygon class="cls-44" points="45.572 78.437 42.547 83.676 42.042 83.385 44.898 78.437 45.572 78.437"/><polygon class="cls-45" points="46.246 78.437 43.052 83.968 42.547 83.676 45.572 78.437 46.246 78.437"/><polygon class="cls-46" points="46.919 78.437 43.557 84.26 43.052 83.968 46.246 78.437 46.919 78.437"/><polygon class="cls-47" points="47.593 78.437 44.062 84.551 43.557 84.26 46.919 78.437 47.593 78.437"/><polygon class="cls-48" points="48.266 78.437 44.568 84.843 44.062 84.551 47.593 78.437 48.266 78.437"/><polygon class="cls-49" points="48.94 78.437 45.073 85.135 44.568 84.843 48.266 78.437 48.94 78.437"/><polygon class="cls-50" points="49.613 78.437 45.578 85.426 45.073 85.135 48.94 78.437 49.613 78.437"/><polygon class="cls-51" points="50.287 78.437 46.083 85.718 45.578 85.426 49.613 78.437 50.287 78.437"/><polygon class="cls-52" points="50.961 78.437 46.588 86.01 46.083 85.718 50.287 78.437 50.961 78.437"/><polygon class="cls-53" points="51.634 78.437 47.094 86.301 46.588 86.01 50.961 78.437 51.634 78.437"/><polygon class="cls-54" points="52.308 78.437 47.599 86.593 47.094 86.301 51.634 78.437 52.308 78.437"/><polygon class="cls-55" points="52.981 78.437 48.104 86.885 47.599 86.593 52.308 78.437 52.981 78.437"/><polygon class="cls-56" points="53.655 78.437 48.609 87.176 48.104 86.885 52.981 78.437 53.655 78.437"/><polygon class="cls-57" points="54.329 78.437 49.114 87.468 48.609 87.176 53.655 78.437 54.329 78.437"/><polygon class="cls-58" points="55.002 78.437 49.619 87.76 49.114 87.468 54.329 78.437 55.002 78.437"/><polygon class="cls-59" points="55.676 78.437 50.125 88.051 49.619 87.76 55.002 78.437 55.676 78.437"/><polygon class="cls-60" points="56.349 78.437 50.63 88.343 50.125 88.051 55.676 78.437 56.349 78.437"/><polygon class="cls-61" points="57.023 78.437 51.135 88.635 50.63 88.343 56.349 78.437 57.023 78.437"/><polygon class="cls-62" points="57.696 78.437 51.64 88.926 51.135 88.635 57.023 78.437 57.696 78.437"/><polygon class="cls-63" points="58.37 78.437 52.145 89.218 51.64 88.926 57.696 78.437 58.37 78.437"/><polygon class="cls-64" points="59.044 78.437 52.651 89.51 52.145 89.218 58.37 78.437 59.044 78.437"/><polygon class="cls-65" points="59.717 78.437 53.156 89.801 52.651 89.51 59.044 78.437 59.717 78.437"/><polygon class="cls-66" points="60.391 78.437 53.661 90.093 53.156 89.801 59.717 78.437 60.391 78.437"/><polygon class="cls-67" points="61.064 78.437 54.166 90.385 53.661 90.093 60.391 78.437 61.064 78.437"/><polygon class="cls-68" points="61.738 78.437 54.671 90.676 54.166 90.385 61.064 78.437 61.738 78.437"/><polygon class="cls-69" points="62.411 78.437 55.176 90.968 54.671 90.676 61.738 78.437 62.411 78.437"/><polygon class="cls-70" points="63.085 78.437 55.682 91.26 55.176 90.968 62.411 78.437 63.085 78.437"/><polygon class="cls-71" points="63.759 78.437 56.187 91.551 55.682 91.26 63.085 78.437 63.759 78.437"/><polygon class="cls-72" points="64.432 78.437 56.692 91.843 56.187 91.551 63.759 78.437 64.432 78.437"/><polygon class="cls-73" points="65.106 78.437 57.197 92.135 56.692 91.843 64.432 78.437 65.106 78.437"/><polygon class="cls-74" points="65.779 78.437 57.702 92.426 57.197 92.135 65.106 78.437 65.779 78.437"/><polygon class="cls-75" points="66.453 78.437 58.208 92.718 57.702 92.426 65.779 78.437 66.453 78.437"/><polygon class="cls-76" points="67.126 78.437 58.713 93.01 58.208 92.718 66.453 78.437 67.126 78.437"/><polygon class="cls-77" points="67.8 78.437 59.218 93.301 58.713 93.01 67.126 78.437 67.8 78.437"/><polygon class="cls-78" points="68.474 78.437 59.723 93.593 59.218 93.301 67.8 78.437 68.474 78.437"/><polygon class="cls-3" points="69.147 78.437 60.228 93.885 59.723 93.593 68.474 78.437 69.147 78.437"/><polygon class="cls-4" points="69.821 78.437 60.733 94.176 60.228 93.885 69.147 78.437 69.821 78.437"/><polygon class="cls-5" points="70.494 78.437 61.239 94.468 60.733 94.176 69.821 78.437 70.494 78.437"/><polygon class="cls-6" points="70.971 78.777 61.744 94.76 61.239 94.468 70.494 78.437 70.971 78.437 70.971 78.777"/><polygon class="cls-7" points="70.971 79.944 62.249 95.051 61.744 94.76 70.971 78.777 70.971 79.944"/><polygon class="cls-8" points="70.971 81.111 62.754 95.343 62.249 95.051 70.971 79.944 70.971 81.111"/><polygon class="cls-9" points="70.971 82.277 63.259 95.635 62.754 95.343 70.971 81.111 70.971 82.277"/><polygon class="cls-10" points="70.971 83.444 63.765 95.926 63.259 95.635 70.971 82.277 70.971 83.444"/><polygon class="cls-11" points="70.971 84.611 64.27 96.218 63.765 95.926 70.971 83.444 70.971 84.611"/><polygon class="cls-12" points="70.971 85.777 64.775 96.51 64.27 96.218 70.971 84.611 70.971 85.777"/><polygon class="cls-13" points="70.971 86.944 65.28 96.801 64.775 96.51 70.971 85.777 70.971 86.944"/><polygon class="cls-14" points="70.971 88.111 65.785 97.093 65.28 96.801 70.971 86.944 70.971 88.111"/><polygon class="cls-15" points="70.971 89.277 66.29 97.385 65.785 97.093 70.971 88.111 70.971 89.277"/><polygon class="cls-16" points="70.971 90.444 66.796 97.676 66.29 97.385 70.971 89.277 70.971 90.444"/><polygon class="cls-17" points="70.971 91.611 67.414 97.772 66.962 97.772 66.796 97.676 70.971 90.444 70.971 91.611"/><polygon class="cls-18" points="70.971 92.777 68.088 97.772 67.414 97.772 70.971 91.611 70.971 92.777"/><polygon class="cls-19" points="70.971 93.944 68.761 97.772 68.088 97.772 70.971 92.777 70.971 93.944"/><polygon class="cls-20" points="70.971 95.111 69.435 97.772 68.761 97.772 70.971 93.944 70.971 95.111"/><polygon class="cls-21" points="70.971 96.277 70.108 97.772 69.435 97.772 70.971 95.111 70.971 96.277"/><polygon class="cls-21" points="70.108 97.772 70.971 96.277 70.971 97.772 70.108 97.772"/><polygon class="cls-22" points="44.947 52.686 34.647 70.525 34.647 52.686 44.947 52.686"/><polygon class="cls-22" points="45.621 52.686 34.647 71.692 34.647 70.525 44.947 52.686 45.621 52.686"/><polygon class="cls-23" points="46.294 52.686 34.647 72.859 34.647 71.692 45.621 52.686 46.294 52.686"/><polygon class="cls-24" points="46.968 52.686 34.647 74.025 34.647 72.859 46.294 52.686 46.968 52.686"/><polygon class="cls-25" points="47.641 52.686 34.647 75.192 34.647 74.025 46.968 52.686 47.641 52.686"/><polygon class="cls-26" points="48.315 52.686 35.288 75.249 34.647 75.249 34.647 75.192 47.641 52.686 48.315 52.686"/><polygon class="cls-27" points="48.989 52.686 35.962 75.249 35.288 75.249 48.315 52.686 48.989 52.686"/><polygon class="cls-28" points="49.662 52.686 36.635 75.249 35.962 75.249 48.989 52.686 49.662 52.686"/><polygon class="cls-29" points="50.336 52.686 37.309 75.249 36.635 75.249 49.662 52.686 50.336 52.686"/><polygon class="cls-30" points="51.009 52.686 37.983 75.249 37.309 75.249 50.336 52.686 51.009 52.686"/><polygon class="cls-31" points="51.674 52.686 51.681 52.689 38.656 75.249 37.983 75.249 51.009 52.686 51.674 52.686"/><polygon class="cls-32" points="51.681 52.689 52.186 52.981 39.33 75.249 38.656 75.249 51.681 52.689"/><polygon class="cls-33" points="52.186 52.981 52.691 53.273 40.003 75.249 39.33 75.249 52.186 52.981"/><polygon class="cls-34" points="52.691 53.273 53.196 53.564 40.677 75.249 40.003 75.249 52.691 53.273"/><polygon class="cls-35" points="53.196 53.564 53.701 53.856 41.35 75.249 40.677 75.249 53.196 53.564"/><polygon class="cls-36" points="53.701 53.856 54.207 54.148 42.024 75.249 41.35 75.249 53.701 53.856"/><polygon class="cls-37" points="54.207 54.148 54.712 54.439 42.698 75.249 42.024 75.249 54.207 54.148"/><polygon class="cls-38" points="54.712 54.439 55.217 54.731 43.371 75.249 42.698 75.249 54.712 54.439"/><polygon class="cls-39" points="55.217 54.731 55.722 55.023 44.045 75.249 43.371 75.249 55.217 54.731"/><polygon class="cls-40" points="55.722 55.023 56.227 55.314 44.718 75.249 44.045 75.249 55.722 55.023"/><polygon class="cls-41" points="56.227 55.314 56.732 55.606 45.392 75.249 44.718 75.249 56.227 55.314"/><polygon class="cls-42" points="56.732 55.606 57.238 55.898 46.065 75.249 45.392 75.249 56.732 55.606"/><polygon class="cls-43" points="57.238 55.898 57.743 56.189 46.739 75.249 46.065 75.249 57.238 55.898"/><polygon class="cls-44" points="57.743 56.189 58.248 56.481 47.413 75.249 46.739 75.249 57.743 56.189"/><polygon class="cls-45" points="58.248 56.481 58.753 56.773 48.086 75.249 47.413 75.249 58.248 56.481"/><polygon class="cls-46" points="58.753 56.773 59.258 57.064 48.76 75.249 48.086 75.249 58.753 56.773"/><polygon class="cls-47" points="59.258 57.064 59.764 57.356 49.433 75.249 48.76 75.249 59.258 57.064"/><polygon class="cls-48" points="59.764 57.356 60.269 57.648 50.107 75.249 49.433 75.249 59.764 57.356"/><polygon class="cls-49" points="60.269 57.648 60.606 57.842 60.606 58.231 50.78 75.249 50.107 75.249 60.269 57.648"/><polygon class="cls-50" points="60.606 59.398 51.454 75.249 50.78 75.249 60.606 58.231 60.606 59.398"/><polygon class="cls-51" points="60.606 60.564 52.128 75.249 51.454 75.249 60.606 59.398 60.606 60.564"/><polygon class="cls-52" points="60.606 61.731 52.801 75.249 52.128 75.249 60.606 60.564 60.606 61.731"/><polygon class="cls-53" points="60.606 62.898 53.475 75.249 52.801 75.249 60.606 61.731 60.606 62.898"/><polygon class="cls-54" points="60.606 64.064 54.148 75.249 53.475 75.249 60.606 62.898 60.606 64.064"/><polygon class="cls-55" points="60.606 65.231 54.822 75.249 54.148 75.249 60.606 64.064 60.606 65.231"/><polygon class="cls-56" points="60.606 66.398 55.496 75.249 54.822 75.249 60.606 65.231 60.606 66.398"/><polygon class="cls-57" points="60.606 67.564 56.169 75.249 55.496 75.249 60.606 66.398 60.606 67.564"/><polygon class="cls-58" points="60.606 68.731 56.843 75.249 56.169 75.249 60.606 67.564 60.606 68.731"/><polygon class="cls-59" points="60.606 69.898 57.516 75.249 56.843 75.249 60.606 68.731 60.606 69.898"/><polygon class="cls-60" points="60.606 71.064 58.19 75.249 57.516 75.249 60.606 69.898 60.606 71.064"/><polygon class="cls-61" points="60.606 72.231 58.863 75.249 58.19 75.249 60.606 71.064 60.606 72.231"/><polygon class="cls-62" points="60.606 73.398 59.537 75.249 58.863 75.249 60.606 72.231 60.606 73.398"/><polygon class="cls-63" points="60.606 74.564 60.211 75.249 59.537 75.249 60.606 73.398 60.606 74.564"/><polygon class="cls-64" points="60.211 75.249 60.606 74.564 60.606 75.249 60.211 75.249"/><polygon class="cls-22" points="37.421 32.611 49.816 39.767 49.816 44.253 34.313 71.105 33.421 71.105 33.421 32.611 37.421 32.611"/><polygon class="cls-22" points="49.816 45.419 34.986 71.105 34.313 71.105 49.816 44.253 49.816 45.419"/><polygon class="cls-23" points="49.816 46.586 35.66 71.105 34.986 71.105 49.816 45.419 49.816 46.586"/><polygon class="cls-24" points="49.816 47.753 36.333 71.105 35.66 71.105 49.816 46.586 49.816 47.753"/><polygon class="cls-25" points="49.816 48.919 37.007 71.105 36.333 71.105 49.816 47.753 49.816 48.919"/><polygon class="cls-26" points="49.816 50.086 37.68 71.105 37.007 71.105 49.816 48.919 49.816 50.086"/><polygon class="cls-27" points="49.816 51.253 38.354 71.105 37.68 71.105 49.816 50.086 49.816 51.253"/><polygon class="cls-28" points="49.816 52.419 39.028 71.105 38.354 71.105 49.816 51.253 49.816 52.419"/><polygon class="cls-29" points="49.816 53.586 39.701 71.105 39.028 71.105 49.816 52.419 49.816 53.586"/><polygon class="cls-30" points="49.816 54.753 40.375 71.105 39.701 71.105 49.816 53.586 49.816 54.753"/><polygon class="cls-31" points="49.816 55.919 41.048 71.105 40.375 71.105 49.816 54.753 49.816 55.919"/><polygon class="cls-32" points="49.816 57.086 41.722 71.105 41.048 71.105 49.816 55.919 49.816 57.086"/><polygon class="cls-33" points="49.816 58.253 42.395 71.105 41.722 71.105 49.816 57.086 49.816 58.253"/><polygon class="cls-34" points="49.816 59.419 43.069 71.105 42.395 71.105 49.816 58.253 49.816 59.419"/><polygon class="cls-35" points="49.816 60.586 43.743 71.105 43.069 71.105 49.816 59.419 49.816 60.586"/><polygon class="cls-36" points="49.816 61.753 44.416 71.105 43.743 71.105 49.816 60.586 49.816 61.753"/><polygon class="cls-37" points="49.816 62.919 45.09 71.105 44.416 71.105 49.816 61.753 49.816 62.919"/><polygon class="cls-38" points="49.816 64.086 45.763 71.105 45.09 71.105 49.816 62.919 49.816 64.086"/><polygon class="cls-39" points="49.816 65.253 46.437 71.105 45.763 71.105 49.816 64.086 49.816 65.253"/><polygon class="cls-40" points="49.816 66.419 47.111 71.105 46.437 71.105 49.816 65.253 49.816 66.419"/><polygon class="cls-41" points="49.816 67.586 47.784 71.105 47.111 71.105 49.816 66.419 49.816 67.586"/><polygon class="cls-42" points="49.816 68.753 48.458 71.105 47.784 71.105 49.816 67.586 49.816 68.753"/><polygon class="cls-43" points="49.816 69.919 49.131 71.105 48.458 71.105 49.816 68.753 49.816 69.919"/><polygon class="cls-44" points="49.816 71.086 49.805 71.105 49.131 71.105 49.816 69.919 49.816 71.086"/><polygon class="cls-45" points="49.805 71.105 49.816 71.086 49.816 71.105 49.805 71.105"/><polygon class="cls-22" points="68.1 12.583 52.683 39.286 47.434 39.286 34.957 32.082 34.957 10.608 68.1 10.608 68.1 12.583"/><polygon class="cls-22" points="68.1 13.75 53.357 39.286 52.683 39.286 68.1 12.583 68.1 13.75"/><polygon class="cls-23" points="68.1 14.917 54.031 39.286 53.357 39.286 68.1 13.75 68.1 14.917"/><polygon class="cls-24" points="68.1 16.083 54.704 39.286 54.031 39.286 68.1 14.917 68.1 16.083"/><polygon class="cls-25" points="68.1 17.25 55.378 39.286 54.704 39.286 68.1 16.083 68.1 17.25"/><polygon class="cls-26" points="68.1 18.417 56.051 39.286 55.378 39.286 68.1 17.25 68.1 18.417"/><polygon class="cls-27" points="68.1 19.583 56.725 39.286 56.051 39.286 68.1 18.417 68.1 19.583"/><polygon class="cls-28" points="68.1 20.75 57.399 39.286 56.725 39.286 68.1 19.583 68.1 20.75"/><polygon class="cls-29" points="68.1 21.917 58.072 39.286 57.399 39.286 68.1 20.75 68.1 21.917"/><polygon class="cls-30" points="68.1 23.083 58.746 39.286 58.072 39.286 68.1 21.917 68.1 23.083"/><polygon class="cls-31" points="68.1 24.25 59.419 39.286 58.746 39.286 68.1 23.083 68.1 24.25"/><polygon class="cls-32" points="68.1 25.417 60.093 39.286 59.419 39.286 68.1 24.25 68.1 25.417"/><polygon class="cls-33" points="68.1 26.583 60.766 39.286 60.093 39.286 68.1 25.417 68.1 26.583"/><polygon class="cls-34" points="68.1 27.75 61.44 39.286 60.766 39.286 68.1 26.583 68.1 27.75"/><polygon class="cls-35" points="68.1 28.917 62.114 39.286 61.44 39.286 68.1 27.75 68.1 28.917"/><polygon class="cls-36" points="68.1 30.083 62.787 39.286 62.114 39.286 68.1 28.917 68.1 30.083"/><polygon class="cls-37" points="68.1 31.25 63.461 39.286 62.787 39.286 68.1 30.083 68.1 31.25"/><polygon class="cls-38" points="68.1 32.417 64.134 39.286 63.461 39.286 68.1 31.25 68.1 32.417"/><polygon class="cls-39" points="68.1 33.583 64.808 39.286 64.134 39.286 68.1 32.417 68.1 33.583"/><polygon class="cls-40" points="68.1 34.75 65.481 39.286 64.808 39.286 68.1 33.583 68.1 34.75"/><polygon class="cls-41" points="68.1 35.917 66.155 39.286 65.481 39.286 68.1 34.75 68.1 35.917"/><polygon class="cls-42" points="68.1 37.083 66.829 39.286 66.155 39.286 68.1 35.917 68.1 37.083"/><polygon class="cls-43" points="68.1 38.25 67.502 39.286 66.829 39.286 68.1 37.083 68.1 38.25"/><polygon class="cls-44" points="67.502 39.286 68.1 38.25 68.1 39.286 67.502 39.286"/><polygon class="cls-22" points="69.779 9.676 59.569 27.36 59.569 9.676 69.779 9.676"/><polygon class="cls-22" points="70.452 9.676 59.569 28.527 59.569 27.36 69.779 9.676 70.452 9.676"/><polygon class="cls-23" points="71.126 9.676 59.569 29.694 59.569 28.527 70.452 9.676 71.126 9.676"/><polygon class="cls-24" points="71.8 9.676 59.569 30.86 59.569 29.694 71.126 9.676 71.8 9.676"/><polygon class="cls-25" points="72.473 9.676 59.569 32.027 59.569 30.86 71.8 9.676 72.473 9.676"/><polygon class="cls-26" points="73.147 9.676 60.212 32.08 59.569 32.08 59.569 32.027 72.473 9.676 73.147 9.676"/><polygon class="cls-27" points="73.82 9.676 60.885 32.08 60.212 32.08 73.147 9.676 73.82 9.676"/><polygon class="cls-28" points="74.494 9.676 61.559 32.08 60.885 32.08 73.82 9.676 74.494 9.676"/><polygon class="cls-29" points="75.168 9.676 62.232 32.08 61.559 32.08 74.494 9.676 75.168 9.676"/><polygon class="cls-30" points="75.841 9.676 62.906 32.08 62.232 32.08 75.168 9.676 75.841 9.676"/><polygon class="cls-31" points="76.515 9.676 63.579 32.08 62.906 32.08 75.841 9.676 76.515 9.676"/><polygon class="cls-32" points="76.568 9.676 77.033 9.944 64.253 32.08 63.579 32.08 76.515 9.676 76.568 9.676"/><polygon class="cls-33" points="77.033 9.944 77.538 10.236 64.927 32.08 64.253 32.08 77.033 9.944"/><polygon class="cls-34" points="77.538 10.236 78.043 10.528 65.6 32.08 64.927 32.08 77.538 10.236"/><polygon class="cls-35" points="78.043 10.528 78.549 10.819 66.274 32.08 65.6 32.08 78.043 10.528"/><polygon class="cls-36" points="78.549 10.819 79.054 11.111 66.947 32.08 66.274 32.08 78.549 10.819"/><polygon class="cls-37" points="79.054 11.111 79.559 11.403 67.621 32.08 66.947 32.08 79.054 11.111"/><polygon class="cls-38" points="79.559 11.403 80.064 11.694 68.294 32.08 67.621 32.08 79.559 11.403"/><polygon class="cls-39" points="80.064 11.694 80.569 11.986 68.968 32.08 68.294 32.08 80.064 11.694"/><polygon class="cls-40" points="80.569 11.986 81.075 12.278 69.642 32.08 68.968 32.08 80.569 11.986"/><polygon class="cls-41" points="81.075 12.278 81.58 12.569 70.315 32.08 69.642 32.08 81.075 12.278"/><polygon class="cls-42" points="81.58 12.569 82.085 12.861 70.989 32.08 70.315 32.08 81.58 12.569"/><polygon class="cls-43" points="82.085 12.861 82.59 13.153 71.662 32.08 70.989 32.08 82.085 12.861"/><polygon class="cls-44" points="82.59 13.153 83.095 13.444 72.336 32.08 71.662 32.08 82.59 13.153"/><polygon class="cls-45" points="83.095 13.444 83.6 13.736 73.009 32.08 72.336 32.08 83.095 13.444"/><polygon class="cls-46" points="83.6 13.736 84.106 14.028 73.683 32.08 73.009 32.08 83.6 13.736"/><polygon class="cls-47" points="84.106 14.028 84.611 14.319 74.357 32.08 73.683 32.08 84.106 14.028"/><polygon class="cls-48" points="84.611 14.319 85.116 14.611 75.03 32.08 74.357 32.08 84.611 14.319"/><polygon class="cls-49" points="85.116 14.611 85.399 14.774 85.399 15.288 75.704 32.08 75.03 32.08 85.116 14.611"/><polygon class="cls-50" points="85.399 16.455 76.377 32.08 75.704 32.08 85.399 15.288 85.399 16.455"/><polygon class="cls-51" points="85.399 17.621 77.051 32.08 76.377 32.08 85.399 16.455 85.399 17.621"/><polygon class="cls-52" points="85.399 18.788 77.725 32.08 77.051 32.08 85.399 17.621 85.399 18.788"/><polygon class="cls-53" points="85.399 19.955 78.398 32.08 77.725 32.08 85.399 18.788 85.399 19.955"/><polygon class="cls-54" points="85.399 21.121 79.072 32.08 78.398 32.08 85.399 19.955 85.399 21.121"/><polygon class="cls-55" points="85.399 22.288 79.745 32.08 79.072 32.08 85.399 21.121 85.399 22.288"/><polygon class="cls-56" points="85.399 23.455 80.419 32.08 79.745 32.08 85.399 22.288 85.399 23.455"/><polygon class="cls-57" points="85.399 24.621 81.092 32.08 80.419 32.08 85.399 23.455 85.399 24.621"/><polygon class="cls-58" points="85.399 25.788 81.766 32.08 81.092 32.08 85.399 24.621 85.399 25.788"/><polygon class="cls-59" points="85.399 26.955 82.44 32.08 81.766 32.08 85.399 25.788 85.399 26.955"/><polygon class="cls-60" points="85.399 28.121 83.113 32.08 82.44 32.08 85.399 26.955 85.399 28.121"/><polygon class="cls-61" points="85.399 29.288 83.787 32.08 83.113 32.08 85.399 28.121 85.399 29.288"/><polygon class="cls-62" points="85.399 30.455 84.46 32.08 83.787 32.08 85.399 29.288 85.399 30.455"/><polygon class="cls-63" points="85.399 31.621 85.134 32.08 84.46 32.08 85.399 30.455 85.399 31.621"/><polygon class="cls-64" points="85.134 32.08 85.399 31.621 85.399 32.08 85.134 32.08"/><polygon class="cls-33" points="77.224 10.78 77.072 11.043 77.072 10.78 77.224 10.78"/><polygon class="cls-34" points="77.898 10.78 77.072 12.21 77.072 11.043 77.224 10.78 77.898 10.78"/><polygon class="cls-35" points="78.571 10.78 77.072 13.377 77.072 12.21 77.898 10.78 78.571 10.78"/><polygon class="cls-36" points="79.245 10.78 77.072 14.543 77.072 13.377 78.571 10.78 79.245 10.78"/><polygon class="cls-37" points="79.918 10.78 77.072 15.71 77.072 14.543 79.245 10.78 79.918 10.78"/><polygon class="cls-38" points="80.592 10.78 77.072 16.877 77.072 15.71 79.918 10.78 80.592 10.78"/><polygon class="cls-39" points="81.082 10.78 81.22 10.86 77.072 18.043 77.072 16.877 80.592 10.78 81.082 10.78"/><polygon class="cls-40" points="81.22 10.86 81.725 11.152 77.072 19.21 77.072 18.043 81.22 10.86"/><polygon class="cls-41" points="81.725 11.152 82.23 11.443 77.072 20.377 77.072 19.21 81.725 11.152"/><polygon class="cls-42" points="82.23 11.443 82.735 11.735 77.072 21.543 77.072 20.377 82.23 11.443"/><polygon class="cls-43" points="82.735 11.735 83.24 12.027 77.072 22.71 77.072 21.543 82.735 11.735"/><polygon class="cls-44" points="83.24 12.027 83.745 12.318 77.072 23.877 77.072 22.71 83.24 12.027"/><polygon class="cls-45" points="83.745 12.318 84.251 12.61 77.072 25.043 77.072 23.877 83.745 12.318"/><polygon class="cls-46" points="84.251 12.61 84.756 12.902 77.072 26.21 77.072 25.043 84.251 12.61"/><polygon class="cls-47" points="84.756 12.902 85.261 13.193 77.072 27.377 77.072 26.21 84.756 12.902"/><polygon class="cls-48" points="85.261 13.193 85.766 13.485 77.072 28.543 77.072 27.377 85.261 13.193"/><polygon class="cls-49" points="85.766 13.485 86.271 13.777 77.072 29.71 77.072 28.543 85.766 13.485"/><polygon class="cls-50" points="86.271 13.777 86.777 14.068 77.072 30.877 77.072 29.71 86.271 13.777"/><polygon class="cls-51" points="86.777 14.068 87.282 14.36 77.072 32.043 77.072 30.877 86.777 14.068"/><polygon class="cls-52" points="87.282 14.36 87.787 14.652 77.568 32.352 77.072 32.066 77.072 32.043 87.282 14.36"/><rect class="cls-53" x="72.71047" y="23.35592" width="20.43875" height="0.58333" transform="translate(20.98554 83.64318) rotate(-60.00003)"/><rect class="cls-54" x="73.21565" y="23.64759" width="20.43875" height="0.58333" transform="translate(20.98548 84.22644) rotate(-59.99997)"/><rect class="cls-55" x="73.72083" y="23.93926" width="20.43875" height="0.58333" transform="translate(20.98554 84.80985) rotate(-60.00003)"/><rect class="cls-56" x="74.22601" y="24.23092" width="20.43875" height="0.58333" transform="translate(20.98548 85.39311) rotate(-59.99997)"/><rect class="cls-57" x="74.7312" y="24.52259" width="20.43875" height="0.58333" transform="translate(20.9855 85.97647) rotate(-59.99999)"/><rect class="cls-58" x="75.23638" y="24.81426" width="20.43875" height="0.58333" transform="translate(20.98552 86.55983) rotate(-60.00001)"/><rect class="cls-59" x="75.74156" y="25.10593" width="20.43875" height="0.58333" transform="translate(20.9855 87.14314) rotate(-59.99999)"/><rect class="cls-60" x="76.24674" y="25.39759" width="20.43875" height="0.58333" transform="translate(20.98552 87.7265) rotate(-60.00001)"/><rect class="cls-61" x="76.75193" y="25.68926" width="20.43875" height="0.58333" transform="translate(20.9855 88.30981) rotate(-59.99999)"/><rect class="cls-62" x="77.25711" y="25.98093" width="20.43875" height="0.58333" transform="translate(20.98552 88.89317) rotate(-60.00001)"/><rect class="cls-63" x="77.76229" y="26.27259" width="20.43875" height="0.58333" transform="translate(20.9855 89.47648) rotate(-59.99999)"/><rect class="cls-64" x="78.26747" y="26.56426" width="20.43875" height="0.58333" transform="translate(20.98552 90.05984) rotate(-60.00001)"/><rect class="cls-65" x="78.77266" y="26.85593" width="20.43875" height="0.58333" transform="translate(20.9855 90.64315) rotate(-59.99999)"/><rect class="cls-66" x="79.27784" y="27.1476" width="20.43875" height="0.58333" transform="translate(20.98547 91.22646) rotate(-59.99997)"/><rect class="cls-67" x="79.78302" y="27.43926" width="20.43875" height="0.58333" transform="translate(20.98555 91.80987) rotate(-60.00003)"/><rect class="cls-68" x="80.2882" y="27.73093" width="20.43875" height="0.58333" transform="translate(20.98547 92.39312) rotate(-59.99997)"/><rect class="cls-69" x="80.79339" y="28.0226" width="20.43875" height="0.58333" transform="translate(20.98555 92.97654) rotate(-60.00003)"/><rect class="cls-70" x="81.29857" y="28.31426" width="20.43875" height="0.58333" transform="translate(20.98547 93.55979) rotate(-59.99997)"/><rect class="cls-71" x="81.80375" y="28.60593" width="20.43875" height="0.58333" transform="translate(20.98555 94.14321) rotate(-60.00003)"/><rect class="cls-72" x="82.30893" y="28.8976" width="20.43875" height="0.58333" transform="translate(20.98547 94.72646) rotate(-59.99997)"/><rect class="cls-73" x="82.81412" y="29.18927" width="20.43875" height="0.58333" transform="translate(20.98555 95.30988) rotate(-60.00003)"/><rect class="cls-74" x="83.3193" y="29.48093" width="20.43875" height="0.58333" transform="translate(20.98547 95.89313) rotate(-59.99997)"/><rect class="cls-75" x="83.82448" y="29.7726" width="20.43875" height="0.58333" transform="translate(20.9855 96.47649) rotate(-59.99999)"/><polygon class="cls-76" points="99.406 21.36 99.911 21.652 89.753 39.246 89.509 39.246 89.187 39.06 99.406 21.36"/><polygon class="cls-77" points="99.911 21.652 100.416 21.943 90.427 39.246 89.753 39.246 99.911 21.652"/><polygon class="cls-78" points="100.416 21.943 100.922 22.235 91.1 39.246 90.427 39.246 100.416 21.943"/><polygon class="cls-3" points="100.922 22.235 101.427 22.527 91.774 39.246 91.1 39.246 100.922 22.235"/><polygon class="cls-4" points="101.427 22.527 101.932 22.818 92.447 39.246 91.774 39.246 101.427 22.527"/><polygon class="cls-5" points="101.932 22.818 102.437 23.11 93.121 39.246 92.447 39.246 101.932 22.818"/><polygon class="cls-6" points="102.437 23.11 102.942 23.402 93.795 39.246 93.121 39.246 102.437 23.11"/><polygon class="cls-7" points="102.942 23.402 103.448 23.693 94.468 39.246 93.795 39.246 102.942 23.402"/><polygon class="cls-8" points="103.448 23.693 103.953 23.985 95.142 39.246 94.468 39.246 103.448 23.693"/><polygon class="cls-9" points="103.953 23.985 104.458 24.277 95.815 39.246 95.142 39.246 103.953 23.985"/><polygon class="cls-10" points="104.458 24.277 104.963 24.568 96.489 39.246 95.815 39.246 104.458 24.277"/><polygon class="cls-11" points="104.963 24.568 105.468 24.86 97.162 39.246 96.489 39.246 104.963 24.568"/><polygon class="cls-12" points="105.468 24.86 105.974 25.152 97.836 39.246 97.162 39.246 105.468 24.86"/><polygon class="cls-13" points="105.974 25.152 106.479 25.443 98.51 39.246 97.836 39.246 105.974 25.152"/><polygon class="cls-14" points="106.479 25.443 106.984 25.735 99.183 39.246 98.51 39.246 106.479 25.443"/><polygon class="cls-15" points="106.984 25.735 107.489 26.027 99.857 39.246 99.183 39.246 106.984 25.735"/><polygon class="cls-16" points="107.489 26.027 107.994 26.318 100.53 39.246 99.857 39.246 107.489 26.027"/><polygon class="cls-17" points="107.994 26.318 108.499 26.61 101.204 39.246 100.53 39.246 107.994 26.318"/><polygon class="cls-18" points="108.499 26.61 109.005 26.902 101.877 39.246 101.204 39.246 108.499 26.61"/><polygon class="cls-19" points="109.005 26.902 109.51 27.193 102.551 39.246 101.877 39.246 109.005 26.902"/><polygon class="cls-20" points="109.51 27.193 109.982 27.466 109.982 27.542 103.225 39.246 102.551 39.246 109.51 27.193"/><polygon class="cls-21" points="109.982 28.708 103.898 39.246 103.225 39.246 109.982 27.542 109.982 28.708"/><polygon class="cls-21" points="103.898 39.246 109.982 28.708 109.982 39.246 103.898 39.246"/><polygon class="cls-22" points="72.756 4.518 30.075 78.445 30.075 4.518 72.756 4.518"/><polygon class="cls-22" points="73.43 4.518 30.075 79.612 30.075 78.445 72.756 4.518 73.43 4.518"/><polygon class="cls-23" points="74.104 4.518 30.393 80.227 30.075 80.044 30.075 79.612 73.43 4.518 74.104 4.518"/><polygon class="cls-24" points="74.777 4.518 30.898 80.519 30.393 80.227 74.104 4.518 74.777 4.518"/><polygon class="cls-25" points="75.451 4.518 31.403 80.811 30.898 80.519 74.777 4.518 75.451 4.518"/><polygon class="cls-26" points="76.124 4.518 31.908 81.102 31.403 80.811 75.451 4.518 76.124 4.518"/><polygon class="cls-27" points="76.798 4.518 32.414 81.394 31.908 81.102 76.124 4.518 76.798 4.518"/><polygon class="cls-28" points="77.104 4.518 77.38 4.678 32.919 81.686 32.414 81.394 76.798 4.518 77.104 4.518"/><rect class="cls-29" x="10.94106" y="43.03585" width="88.92144" height="0.58333" transform="translate(-9.82182 69.64315) rotate(-60.00003)"/><rect class="cls-30" x="11.44625" y="43.32752" width="88.92144" height="0.58333" transform="translate(-9.82185 70.22642) rotate(-59.99997)"/><rect class="cls-31" x="11.95143" y="43.61919" width="88.92144" height="0.58333" transform="translate(-9.82182 70.80982) rotate(-60.00003)"/><rect class="cls-32" x="12.45661" y="43.91086" width="88.92144" height="0.58333" transform="translate(-9.82185 71.39308) rotate(-59.99997)"/><rect class="cls-33" x="12.96179" y="44.20252" width="88.92144" height="0.58333" transform="translate(-9.82182 71.97649) rotate(-60.00003)"/><rect class="cls-34" x="13.46698" y="44.49419" width="88.92144" height="0.58333" transform="translate(-9.82185 72.55975) rotate(-59.99997)"/><rect class="cls-35" x="13.97216" y="44.78586" width="88.92144" height="0.58333" transform="translate(-9.82184 73.14311) rotate(-59.99999)"/><rect class="cls-36" x="14.47734" y="45.07752" width="88.92144" height="0.58333" transform="translate(-9.82183 73.72647) rotate(-60.00001)"/><rect class="cls-37" x="14.98252" y="45.36919" width="88.92144" height="0.58333" transform="translate(-9.82184 74.30978) rotate(-59.99999)"/><rect class="cls-38" x="15.48771" y="45.66086" width="88.92144" height="0.58333" transform="translate(-9.82183 74.89314) rotate(-60.00001)"/><rect class="cls-39" x="15.99289" y="45.95253" width="88.92144" height="0.58333" transform="translate(-9.82184 75.47645) rotate(-59.99999)"/><rect class="cls-40" x="16.49807" y="46.24419" width="88.92144" height="0.58333" transform="translate(-9.82183 76.05981) rotate(-60.00001)"/><rect class="cls-41" x="17.00325" y="46.53586" width="88.92144" height="0.58333" transform="translate(-9.82184 76.64312) rotate(-59.99999)"/><rect class="cls-42" x="17.50844" y="46.82753" width="88.92144" height="0.58333" transform="translate(-9.82183 77.22648) rotate(-60.00001)"/><rect class="cls-43" x="18.01362" y="47.11919" width="88.92144" height="0.58333" transform="translate(-9.82186 77.80976) rotate(-59.99997)"/><rect class="cls-44" x="18.5188" y="47.41086" width="88.92144" height="0.58333" transform="translate(-9.82184 78.39312) rotate(-59.99999)"/><rect class="cls-45" x="19.02398" y="47.70253" width="88.92144" height="0.58333" transform="translate(-9.82183 78.97648) rotate(-60.00001)"/><rect class="cls-46" x="19.52917" y="47.9942" width="88.92144" height="0.58333" transform="translate(-9.82184 79.55979) rotate(-59.99999)"/><rect class="cls-47" x="20.03435" y="48.28586" width="88.92144" height="0.58333" transform="translate(-9.82183 80.14315) rotate(-60.00001)"/><rect class="cls-48" x="20.53953" y="48.57753" width="88.92144" height="0.58333" transform="translate(-9.82184 80.72646) rotate(-59.99999)"/><rect class="cls-49" x="21.04471" y="48.8692" width="88.92144" height="0.58333" transform="translate(-9.82183 81.30982) rotate(-60.00001)"/><rect class="cls-50" x="21.5499" y="49.16087" width="88.92144" height="0.58333" transform="translate(-9.82184 81.89313) rotate(-59.99999)"/><rect class="cls-51" x="22.05508" y="49.45253" width="88.92144" height="0.58333" transform="translate(-9.82183 82.47649) rotate(-60.00001)"/><rect class="cls-52" x="22.56026" y="49.7442" width="88.92144" height="0.58333" transform="translate(-9.82184 83.0598) rotate(-59.99999)"/><rect class="cls-53" x="23.06544" y="50.03587" width="88.92144" height="0.58333" transform="translate(-9.82186 83.6431) rotate(-59.99997)"/><rect class="cls-54" x="23.57063" y="50.32753" width="88.92144" height="0.58333" transform="translate(-9.82182 84.22652) rotate(-60.00003)"/><rect class="cls-55" x="24.07581" y="50.6192" width="88.92144" height="0.58333" transform="translate(-9.82186 84.80977) rotate(-59.99997)"/><rect class="cls-56" x="24.58099" y="50.91087" width="88.92144" height="0.58333" transform="translate(-9.82182 85.39319) rotate(-60.00003)"/><rect class="cls-57" x="25.08617" y="51.20254" width="88.92144" height="0.58333" transform="translate(-9.82186 85.97644) rotate(-59.99997)"/><rect class="cls-58" x="25.59136" y="51.4942" width="88.92144" height="0.58333" transform="translate(-9.82182 86.55986) rotate(-60.00003)"/><rect class="cls-59" x="26.09654" y="51.78587" width="88.92144" height="0.58333" transform="translate(-9.82186 87.14311) rotate(-59.99997)"/><rect class="cls-60" x="26.60172" y="52.07754" width="88.92144" height="0.58333" transform="translate(-9.82182 87.72653) rotate(-60.00003)"/><rect class="cls-61" x="27.1069" y="52.36921" width="88.92144" height="0.58333" transform="translate(-9.82186 88.30978) rotate(-59.99997)"/><rect class="cls-62" x="27.61209" y="52.66087" width="88.92144" height="0.58333" transform="translate(-9.82184 88.89314) rotate(-59.99999)"/><rect class="cls-63" x="28.11727" y="52.95254" width="88.92144" height="0.58333" transform="translate(-9.82183 89.4765) rotate(-60.00001)"/><rect class="cls-64" x="28.62245" y="53.24421" width="88.92144" height="0.58333" transform="translate(-9.82184 90.05981) rotate(-59.99999)"/><rect class="cls-65" x="29.12763" y="53.53587" width="88.92144" height="0.58333" transform="translate(-9.82183 90.64317) rotate(-60.00001)"/><rect class="cls-66" x="29.63282" y="53.82754" width="88.92144" height="0.58333" transform="translate(-9.82184 91.22648) rotate(-59.99999)"/><rect class="cls-67" x="30.138" y="54.11921" width="88.92144" height="0.58333" transform="translate(-9.82183 91.80984) rotate(-60.00001)"/><rect class="cls-68" x="30.64318" y="54.41088" width="88.92144" height="0.58333" transform="translate(-9.82186 92.39312) rotate(-59.99997)"/><rect class="cls-69" x="31.14836" y="54.70254" width="88.92144" height="0.58333" transform="translate(-9.82182 92.97655) rotate(-60.00003)"/><rect class="cls-70" x="31.65355" y="54.99421" width="88.92144" height="0.58333" transform="translate(-9.82186 93.55978) rotate(-59.99997)"/><rect class="cls-71" x="32.15873" y="55.28588" width="88.92144" height="0.58333" transform="translate(-9.82184 94.14315) rotate(-59.99999)"/><rect class="cls-72" x="32.66391" y="55.57755" width="88.92144" height="0.58333" transform="translate(-9.82183 94.72651) rotate(-60.00001)"/><rect class="cls-73" x="33.16909" y="55.86921" width="88.92144" height="0.58333" transform="translate(-9.82184 95.30982) rotate(-59.99999)"/><rect class="cls-74" x="33.67428" y="56.16088" width="88.92144" height="0.58333" transform="translate(-9.82183 95.89318) rotate(-60.00001)"/><rect class="cls-75" x="34.17946" y="56.45255" width="88.92144" height="0.58333" transform="translate(-9.82184 96.47649) rotate(-59.99999)"/><rect class="cls-76" x="34.68464" y="56.74421" width="88.92144" height="0.58333" transform="translate(-9.82183 97.05985) rotate(-60.00001)"/><rect class="cls-77" x="35.18982" y="57.03588" width="88.92144" height="0.58333" transform="translate(-9.82184 97.64316) rotate(-59.99999)"/><rect class="cls-78" x="35.69501" y="57.32755" width="88.92144" height="0.58333" transform="translate(-9.82183 98.22652) rotate(-60.00001)"/><rect class="cls-3" x="36.20019" y="57.61922" width="88.92144" height="0.58333" transform="translate(-9.82184 98.80983) rotate(-59.99999)"/><rect class="cls-4" x="36.70537" y="57.91088" width="88.92144" height="0.58333" transform="translate(-9.82186 99.39313) rotate(-59.99997)"/><rect class="cls-5" x="37.21055" y="58.20255" width="88.92144" height="0.58333" transform="translate(-9.82182 99.97656) rotate(-60.00003)"/><rect class="cls-6" x="37.71574" y="58.49422" width="88.92144" height="0.58333" transform="translate(-9.82186 100.5598) rotate(-59.99997)"/><rect class="cls-7" x="38.22092" y="58.78588" width="88.92144" height="0.58333" transform="translate(-9.82182 101.14323) rotate(-60.00003)"/><rect class="cls-8" x="38.7261" y="59.07755" width="88.92144" height="0.58333" transform="translate(-9.82186 101.72646) rotate(-59.99997)"/><rect class="cls-9" x="39.23128" y="59.36922" width="88.92144" height="0.58333" transform="translate(-9.82181 102.3099) rotate(-60.00003)"/><rect class="cls-10" x="39.73647" y="59.66089" width="88.92144" height="0.58333" transform="translate(-9.82186 102.89313) rotate(-59.99997)"/><rect class="cls-11" x="40.24165" y="59.95255" width="88.92144" height="0.58333" transform="translate(-9.82181 103.47657) rotate(-60.00003)"/><rect class="cls-12" x="40.74683" y="60.24422" width="88.92144" height="0.58333" transform="translate(-9.82186 104.0598) rotate(-59.99997)"/><rect class="cls-13" x="41.25201" y="60.53589" width="88.92144" height="0.58333" transform="translate(-9.82185 104.64317) rotate(-59.99999)"/><rect class="cls-14" x="41.7572" y="60.82756" width="88.92144" height="0.58333" transform="translate(-9.82183 105.22654) rotate(-60.00001)"/><rect class="cls-15" x="42.26238" y="61.11922" width="88.92144" height="0.58333" transform="translate(-9.82185 105.80984) rotate(-59.99999)"/><rect class="cls-16" x="42.76756" y="61.41089" width="88.92144" height="0.58333" transform="translate(-9.82183 106.39321) rotate(-60.00001)"/><rect class="cls-17" x="43.27274" y="61.70256" width="88.92144" height="0.58333" transform="translate(-9.82186 106.97647) rotate(-59.99997)"/><rect class="cls-18" x="43.77793" y="61.99422" width="88.92144" height="0.58333" transform="translate(-9.82181 107.55992) rotate(-60.00003)"/><rect class="cls-19" x="44.28311" y="62.28589" width="88.92144" height="0.58333" transform="translate(-9.82186 108.14314) rotate(-59.99997)"/><rect class="cls-20" x="44.78829" y="62.57756" width="88.92144" height="0.58333" transform="translate(-9.82185 108.72652) rotate(-59.99999)"/><rect class="cls-21" x="45.29347" y="62.86923" width="88.92144" height="0.58333" transform="translate(-9.82183 109.30988) rotate(-60.00001)"/><polygon class="cls-21" points="112.237 24.803 114.995 26.395 114.995 101.957 68.03 101.957 67.776 101.811 112.237 24.803"/></g><path class="cls-21" d="M23.15161,114.06979a1.19268,1.19268,0,0,1-.3164.36524.6899.6899,0,0,1-.41406.12207,1.15862,1.15862,0,0,1-.64942-.27539c-.249-.18457-.56055-.38672-.93359-.60938a7.56042,7.56042,0,0,0-1.34668-.6084,5.81072,5.81072,0,0,0-1.90723-.27636,5.58414,5.58414,0,0,0-1.8584.28418,3.96878,3.96878,0,0,0-1.34765.77148,3.15729,3.15729,0,0,0-.81934,1.14453,3.61625,3.61625,0,0,0-.27637,1.41992,2.62509,2.62509,0,0,0,.4795,1.61524,4.12571,4.12571,0,0,0,1.26562,1.0957,9.70465,9.70465,0,0,0,1.78516.78711q.999.33252,2.04492.68945,1.04736.35742,2.0459.80371a7.2292,7.2292,0,0,1,1.78515,1.12793,5.1441,5.1441,0,0,1,1.26563,1.67188,5.56234,5.56234,0,0,1,.47949,2.43457,7.868,7.868,0,0,1-.51953,2.86523,6.61774,6.61774,0,0,1-1.51758,2.3291,7.10292,7.10292,0,0,1-2.45117,1.55762,9.01112,9.01112,0,0,1-3.30273.56836,10.078,10.078,0,0,1-4.123-.81933,9.67569,9.67569,0,0,1-3.165-2.21583l.90918-1.49316a1.17546,1.17546,0,0,1,.31641-.30078.73946.73946,0,0,1,.41406-.12109.92149.92149,0,0,1,.47851.16992q.26807.16992.6084.43066.34131.25927.7793.56738a6.3803,6.3803,0,0,0,.99805.56836,6.76174,6.76174,0,0,0,1.27441.42969,6.89928,6.89928,0,0,0,1.60645.1709,5.98934,5.98934,0,0,0,1.99707-.30859,4.24422,4.24422,0,0,0,1.48535-.86817,3.76719,3.76719,0,0,0,.93261-1.33887,4.47019,4.47019,0,0,0,.3252-1.7373,2.91413,2.91413,0,0,0-.47949-1.72852,3.97521,3.97521,0,0,0-1.25782-1.12793,8.74812,8.74812,0,0,0-1.78515-.7705q-1.00635-.31641-2.04492-.64942a21.61547,21.61547,0,0,1-2.04493-.77148,6.603,6.603,0,0,1-1.78613-1.13574,5.214,5.214,0,0,1-1.25781-1.74512,6.69365,6.69365,0,0,1,0-4.97461A6.07581,6.07581,0,0,1,12.22,112.13913a6.80572,6.80572,0,0,1,2.25586-1.42871,8.22617,8.22617,0,0,1,3.0752-.53614,9.78047,9.78047,0,0,1,3.54687.61719,8.39232,8.39232,0,0,1,2.81641,1.78516Z"/><path class="cls-21" d="M50.03052,122.07272a13.4244,13.4244,0,0,1-.82812,4.7959,10.98212,10.98212,0,0,1-2.33789,3.75781,10.438,10.438,0,0,1-3.627,2.44239,13.04138,13.04138,0,0,1-9.35742,0A10.4647,10.4647,0,0,1,30.26,130.62643a10.99466,10.99466,0,0,1-2.33691-3.75781,14.304,14.304,0,0,1,0-9.59277A11.076,11.076,0,0,1,30.26,113.51022a10.50522,10.50522,0,0,1,3.62012-2.459,12.91927,12.91927,0,0,1,9.35742,0,10.478,10.478,0,0,1,3.627,2.459,11.0633,11.0633,0,0,1,2.33789,3.76563A13.42974,13.42974,0,0,1,50.03052,122.07272Zm-3.23047,0a11.82412,11.82412,0,0,0-.584-3.84765,8.13781,8.13781,0,0,0-1.65625-2.88086,7.18693,7.18693,0,0,0-2.59668-1.80957,9.45218,9.45218,0,0,0-6.80078,0,7.26229,7.26229,0,0,0-2.60547,1.80957,8.07708,8.07708,0,0,0-1.66309,2.88086,12.91459,12.91459,0,0,0,0,7.68554,8.07589,8.07589,0,0,0,1.66309,2.873,7.15951,7.15951,0,0,0,2.60547,1.80176,9.56258,9.56258,0,0,0,6.80078,0,7.08585,7.08585,0,0,0,2.59668-1.80176,8.1367,8.1367,0,0,0,1.65625-2.873A11.73858,11.73858,0,0,0,46.80005,122.07272Z"/><path class="cls-21" d="M66.09888,114.06979a1.1927,1.1927,0,0,1-.31641.36524.68988.68988,0,0,1-.41406.12207,1.15857,1.15857,0,0,1-.64941-.27539c-.249-.18457-.56055-.38672-.9336-.60938a7.55976,7.55976,0,0,0-1.34668-.6084,5.8107,5.8107,0,0,0-1.90722-.27636,5.58414,5.58414,0,0,0-1.8584.28418,3.96892,3.96892,0,0,0-1.34766.77148,3.15739,3.15739,0,0,0-.81933,1.14453,3.61625,3.61625,0,0,0-.27637,1.41992,2.62515,2.62515,0,0,0,.47949,1.61524,4.12575,4.12575,0,0,0,1.26563,1.0957,9.70425,9.70425,0,0,0,1.78515.78711q.999.33252,2.04492.68945,1.04738.35742,2.0459.80371a7.22927,7.22927,0,0,1,1.78516,1.12793,5.14408,5.14408,0,0,1,1.26562,1.67188,5.56219,5.56219,0,0,1,.4795,2.43457,7.868,7.868,0,0,1-.51953,2.86523,6.61774,6.61774,0,0,1-1.51758,2.3291,7.103,7.103,0,0,1-2.45117,1.55762,9.01114,9.01114,0,0,1-3.30274.56836,10.078,10.078,0,0,1-4.123-.81933,9.67564,9.67564,0,0,1-3.165-2.21583l.90917-1.49316a1.17546,1.17546,0,0,1,.31641-.30078.73949.73949,0,0,1,.41406-.12109.92149.92149,0,0,1,.47852.16992q.26807.16992.6084.43066.34131.25927.77929.56738a6.38075,6.38075,0,0,0,.998.56836,6.76161,6.76161,0,0,0,1.27442.42969,6.89913,6.89913,0,0,0,1.60644.1709,5.9893,5.9893,0,0,0,1.99707-.30859,4.24413,4.24413,0,0,0,1.48535-.86817,3.76722,3.76722,0,0,0,.93262-1.33887,4.47019,4.47019,0,0,0,.3252-1.7373,2.91406,2.91406,0,0,0-.4795-1.72852,3.97517,3.97517,0,0,0-1.25781-1.12793,8.74822,8.74822,0,0,0-1.78516-.7705q-1.00633-.31641-2.04492-.64942a21.61529,21.61529,0,0,1-2.04492-.77148,6.603,6.603,0,0,1-1.78613-1.13574,5.21387,5.21387,0,0,1-1.25781-1.74512,6.69365,6.69365,0,0,1,0-4.97461,6.07552,6.07552,0,0,1,1.39648-2.04492,6.80552,6.80552,0,0,1,2.25586-1.42871,8.22615,8.22615,0,0,1,3.07519-.53614,9.78052,9.78052,0,0,1,3.54688.61719,8.39242,8.39242,0,0,1,2.81641,1.78516Z"/><path class="cls-21" d="M74.636,133.69382H71.48755V110.43405H74.636Z"/><path class="cls-21" d="M99.16138,110.43405l-9.47949,23.25977H86.85767l-9.47852-23.25977h2.51563a1.05261,1.05261,0,0,1,.68164.21094,1.30869,1.30869,0,0,1,.38965.53613l6.55761,16.41016q.21094.55077.41407,1.20117.20214.64893.36523,1.36328.16113-.71484.34082-1.36328.17726-.6504.38867-1.20117l6.542-16.41016a1.18637,1.18637,0,0,1,.38086-.51172,1.04914,1.04914,0,0,1,.69043-.23535Z"/><path class="cls-21" d="M105.053,133.69382h-3.14844V110.43405H105.053Z"/><path class="cls-21" d="M132.15943,122.07272a13.42419,13.42419,0,0,1-.82813,4.7959,10.982,10.982,0,0,1-2.33789,3.75781,10.43794,10.43794,0,0,1-3.627,2.44239,13.04138,13.04138,0,0,1-9.35742,0,10.4647,10.4647,0,0,1-3.62012-2.44239,10.9945,10.9945,0,0,1-2.33691-3.75781,14.304,14.304,0,0,1,0-9.59277,11.07586,11.07586,0,0,1,2.33691-3.76563,10.50522,10.50522,0,0,1,3.62012-2.459,12.91927,12.91927,0,0,1,9.35742,0,10.478,10.478,0,0,1,3.627,2.459,11.06315,11.06315,0,0,1,2.33789,3.76563A13.42952,13.42952,0,0,1,132.15943,122.07272Zm-3.23047,0a11.82411,11.82411,0,0,0-.584-3.84765,8.13751,8.13751,0,0,0-1.65625-2.88086,7.18676,7.18676,0,0,0-2.59668-1.80957,9.45218,9.45218,0,0,0-6.80078,0,7.26238,7.26238,0,0,0-2.60547,1.80957,8.07721,8.07721,0,0,0-1.66308,2.88086,12.91459,12.91459,0,0,0,0,7.68554,8.076,8.076,0,0,0,1.66308,2.873,7.1596,7.1596,0,0,0,2.60547,1.80176,9.56258,9.56258,0,0,0,6.80078,0,7.08569,7.08569,0,0,0,2.59668-1.80176,8.1364,8.1364,0,0,0,1.65625-2.873A11.73858,11.73858,0,0,0,128.929,122.07272Z"/></g></svg>