<?xml version="1.0" encoding="UTF-8" standalone="no"?>
<!-- Created with Inkscape (http://www.inkscape.org/) -->

<svg
   version="1.1"
   id="svg2"
   width="1889.76"
   height="1889.76"
   viewBox="0 0 1889.76 1889.76"
   sodipodi:docname="SOURCEALLIES_LOGO.ai"
   xmlns:inkscape="http://www.inkscape.org/namespaces/inkscape"
   xmlns:sodipodi="http://sodipodi.sourceforge.net/DTD/sodipodi-0.dtd"
   xmlns="http://www.w3.org/2000/svg"
   xmlns:svg="http://www.w3.org/2000/svg">
  <defs
     id="defs6">
    <clipPath
       clipPathUnits="userSpaceOnUse"
       id="clipPath16">
      <path
         d="M 0,1417.32 H 1417.32 V 0 H 0 Z"
         id="path14" />
    </clipPath>
    <linearGradient
       x1="0"
       y1="0"
       x2="1"
       y2="0"
       gradientUnits="userSpaceOnUse"
       gradientTransform="matrix(-177.44827,151.57045,151.57045,177.44827,1129.6195,749.07922)"
       spreadMethod="pad"
       id="linearGradient78">
      <stop
         style="stop-opacity:1;stop-color:#38b856"
         offset="0"
         id="stop72" />
      <stop
         style="stop-opacity:1;stop-color:#38b856"
         offset="0.00641854"
         id="stop74" />
      <stop
         style="stop-opacity:1;stop-color:#75c933"
         offset="1"
         id="stop76" />
    </linearGradient>
    <linearGradient
       x1="0"
       y1="0"
       x2="1"
       y2="0"
       gradientUnits="userSpaceOnUse"
       gradientTransform="matrix(0,275.87787,275.87787,0,377.53421,674.56671)"
       spreadMethod="pad"
       id="linearGradient100">
      <stop
         style="stop-opacity:1;stop-color:#42bd7e"
         offset="0"
         id="stop94" />
      <stop
         style="stop-opacity:1;stop-color:#42bd7e"
         offset="0.00403366"
         id="stop96" />
      <stop
         style="stop-opacity:1;stop-color:#66caa6"
         offset="1"
         id="stop98" />
    </linearGradient>
    <linearGradient
       x1="0"
       y1="0"
       x2="1"
       y2="0"
       gradientUnits="userSpaceOnUse"
       gradientTransform="matrix(275.87637,0,0,-275.87637,565.92053,413.33542)"
       spreadMethod="pad"
       id="linearGradient122">
      <stop
         style="stop-opacity:1;stop-color:#38b856"
         offset="0"
         id="stop116" />
      <stop
         style="stop-opacity:1;stop-color:#38b856"
         offset="0.00641854"
         id="stop118" />
      <stop
         style="stop-opacity:1;stop-color:#75c933"
         offset="1"
         id="stop120" />
    </linearGradient>
    <linearGradient
       x1="0"
       y1="0"
       x2="1"
       y2="0"
       gradientUnits="userSpaceOnUse"
       gradientTransform="matrix(275.87637,0,0,-275.87637,565.92053,519.52051)"
       spreadMethod="pad"
       id="linearGradient144">
      <stop
         style="stop-opacity:1;stop-color:#38b856"
         offset="0"
         id="stop138" />
      <stop
         style="stop-opacity:1;stop-color:#38b856"
         offset="0.00641854"
         id="stop140" />
      <stop
         style="stop-opacity:1;stop-color:#75c933"
         offset="1"
         id="stop142" />
    </linearGradient>
    <linearGradient
       x1="0"
       y1="0"
       x2="1"
       y2="0"
       gradientUnits="userSpaceOnUse"
       gradientTransform="matrix(-130.12805,111.14961,111.14961,130.12805,1060.1168,387.77029)"
       spreadMethod="pad"
       id="linearGradient166">
      <stop
         style="stop-opacity:1;stop-color:#38b856"
         offset="0"
         id="stop160" />
      <stop
         style="stop-opacity:1;stop-color:#38b856"
         offset="0.00641854"
         id="stop162" />
      <stop
         style="stop-opacity:1;stop-color:#75c933"
         offset="1"
         id="stop164" />
    </linearGradient>
    <linearGradient
       x1="0"
       y1="0"
       x2="1"
       y2="0"
       gradientUnits="userSpaceOnUse"
       gradientTransform="matrix(-130.12805,111.14961,111.14961,130.12805,1128.2378,467.52267)"
       spreadMethod="pad"
       id="linearGradient188">
      <stop
         style="stop-opacity:1;stop-color:#38b856"
         offset="0"
         id="stop182" />
      <stop
         style="stop-opacity:1;stop-color:#38b856"
         offset="0.00641854"
         id="stop184" />
      <stop
         style="stop-opacity:1;stop-color:#75c933"
         offset="1"
         id="stop186" />
    </linearGradient>
    <clipPath
       clipPathUnits="userSpaceOnUse"
       id="clipPath198">
      <path
         d="M 0,1417.32 H 1417.32 V 0 H 0 Z"
         id="path196" />
    </clipPath>
    <clipPath
       clipPathUnits="userSpaceOnUse"
       id="clipPath206">
      <path
         d="M 892.252,950.445 H 1168.12 V 674.567 H 892.252 Z"
         id="path204" />
    </clipPath>
    <linearGradient
       x1="0"
       y1="0"
       x2="1"
       y2="0"
       gradientUnits="userSpaceOnUse"
       gradientTransform="matrix(928.53436,0,0,-798.34033,239.59529,812.50562)"
       spreadMethod="pad"
       id="linearGradient218">
      <stop
         style="stop-opacity:1;stop-color:#ffffff"
         offset="0"
         id="stop212" />
      <stop
         style="stop-opacity:1;stop-color:#80cc2c"
         offset="0.99954021"
         id="stop214" />
      <stop
         style="stop-opacity:1;stop-color:#80cc2c"
         offset="1"
         id="stop216" />
    </linearGradient>
    <linearGradient
       x1="0"
       y1="0"
       x2="1"
       y2="0"
       gradientUnits="userSpaceOnUse"
       gradientTransform="matrix(275.87637,0,0,-275.87637,565.92053,551.91101)"
       spreadMethod="pad"
       id="linearGradient252">
      <stop
         style="stop-opacity:1;stop-color:#38b856"
         offset="0"
         id="stop246" />
      <stop
         style="stop-opacity:1;stop-color:#38b856"
         offset="0.00641854"
         id="stop248" />
      <stop
         style="stop-opacity:1;stop-color:#75c933"
         offset="1"
         id="stop250" />
    </linearGradient>
    <clipPath
       clipPathUnits="userSpaceOnUse"
       id="clipPath262">
      <path
         d="M 0,1417.32 H 1417.32 V 0 H 0 Z"
         id="path260" />
    </clipPath>
    <clipPath
       clipPathUnits="userSpaceOnUse"
       id="clipPath270">
      <path
         d="M 565.921,622.837 H 840.154 V 480.985 H 565.921 Z"
         id="path268" />
    </clipPath>
    <linearGradient
       x1="0"
       y1="0"
       x2="1"
       y2="0"
       gradientUnits="userSpaceOnUse"
       gradientTransform="matrix(247.91376,0,0,-213.15265,578.80847,551.91101)"
       spreadMethod="pad"
       id="linearGradient284">
      <stop
         style="stop-opacity:1;stop-color:#3ab854"
         offset="0"
         id="stop276" />
      <stop
         style="stop-opacity:1;stop-color:#ffffff"
         offset="0.4711377"
         id="stop278" />
      <stop
         style="stop-opacity:1;stop-color:#ffffff"
         offset="0.861937"
         id="stop280" />
      <stop
         style="stop-opacity:1;stop-color:#ffffff"
         offset="1"
         id="stop282" />
    </linearGradient>
    <linearGradient
       x1="0"
       y1="0"
       x2="1"
       y2="0"
       gradientUnits="userSpaceOnUse"
       gradientTransform="matrix(-275.87637,0,0,275.87637,841.79688,1140.1083)"
       spreadMethod="pad"
       id="linearGradient318">
      <stop
         style="stop-opacity:1;stop-color:#4a94d7"
         offset="0"
         id="stop312" />
      <stop
         style="stop-opacity:1;stop-color:#4a94d7"
         offset="0.00251367"
         id="stop314" />
      <stop
         style="stop-opacity:1;stop-color:#5ccae0"
         offset="1"
         id="stop316" />
    </linearGradient>
    <linearGradient
       x1="0"
       y1="0"
       x2="1"
       y2="0"
       gradientUnits="userSpaceOnUse"
       gradientTransform="matrix(0,275.87646,275.87646,0,377.53421,1002.17)"
       spreadMethod="pad"
       id="linearGradient340">
      <stop
         style="stop-opacity:1;stop-color:#6ecfd6"
         offset="0"
         id="stop334" />
      <stop
         style="stop-opacity:1;stop-color:#6ecfd6"
         offset="0.09480964"
         id="stop336" />
      <stop
         style="stop-opacity:1;stop-color:#82d5cb"
         offset="1"
         id="stop338" />
    </linearGradient>
    <linearGradient
       x1="0"
       y1="0"
       x2="1"
       y2="0"
       gradientUnits="userSpaceOnUse"
       gradientTransform="matrix(198.6315,198.6315,198.6315,-198.6315,931.04425,1040.9659)"
       spreadMethod="pad"
       id="linearGradient362">
      <stop
         style="stop-opacity:1;stop-color:#3b76c4"
         offset="0"
         id="stop356" />
      <stop
         style="stop-opacity:1;stop-color:#4e9ada"
         offset="0.98719607"
         id="stop358" />
      <stop
         style="stop-opacity:1;stop-color:#4e9ada"
         offset="1"
         id="stop360" />
    </linearGradient>
    <linearGradient
       x1="0"
       y1="0"
       x2="1"
       y2="0"
       gradientUnits="userSpaceOnUse"
       gradientTransform="matrix(383.31021,0,0,-275.98526,185.87965,484.89893)"
       spreadMethod="pad"
       id="linearGradient384">
      <stop
         style="stop-opacity:1;stop-color:#38b975"
         offset="0"
         id="stop378" />
      <stop
         style="stop-opacity:1;stop-color:#45bd65"
         offset="0.9604395"
         id="stop380" />
      <stop
         style="stop-opacity:1;stop-color:#45bd65"
         offset="1"
         id="stop382" />
    </linearGradient>
    <radialGradient
       fx="0"
       fy="0"
       cx="0"
       cy="0"
       r="1"
       gradientUnits="userSpaceOnUse"
       gradientTransform="matrix(238.95303,50.736603,45.891296,-216.13319,711.32648,898.40631)"
       spreadMethod="pad"
       id="radialGradient408">
      <stop
         style="stop-opacity:1;stop-color:#ec1947"
         offset="0"
         id="stop400" />
      <stop
         style="stop-opacity:1;stop-color:#ec1947"
         offset="0.13580624"
         id="stop402" />
      <stop
         style="stop-opacity:1;stop-color:#be1d27"
         offset="0.999384"
         id="stop404" />
      <stop
         style="stop-opacity:1;stop-color:#be1d27"
         offset="1"
         id="stop406" />
    </radialGradient>
  </defs>
  <sodipodi:namedview
     id="namedview4"
     pagecolor="#ffffff"
     bordercolor="#000000"
     borderopacity="0.25"
     inkscape:showpageshadow="2"
     inkscape:pageopacity="0.0"
     inkscape:pagecheckerboard="0"
     inkscape:deskcolor="#d1d1d1" />
  <g
     id="g8"
     inkscape:groupmode="layer"
     inkscape:label="SOURCEALLIES_LOGO"
     transform="matrix(1.3333333,0,0,-1.3333333,0,1889.76)">
    <g
       id="g10">
      <g
         id="g12"
         clip-path="url(#clipPath16)">
        <g
           id="g18"
           transform="translate(186.3008,163.5351)">
          <path
             d="m 0,0 c 0,-11.488 -1.838,-19.455 -5.515,-23.896 -4.135,-4.905 -11.872,-7.353 -23.207,-7.353 h -76.975 v 16.773 h 57.904 c 6.739,0 11.41,0.765 14.016,2.298 3.368,2.144 5.055,6.434 5.055,12.867 0,6.585 -1.687,11.03 -5.055,13.328 -2.606,1.529 -7.277,2.297 -14.016,2.297 h -33.088 c -11.183,0 -18.766,1.997 -22.748,5.996 -3.985,3.996 -5.974,11.607 -5.974,22.834 0,11.682 1.838,19.983 5.515,24.906 4.286,5.841 12.024,8.763 23.207,8.763 H -5.974 V 62.04 H -61.81 c -6.742,0 -11.337,-0.772 -13.786,-2.316 -3.526,-2.161 -5.285,-6.642 -5.285,-13.435 0,-5.866 1.454,-9.65 4.366,-11.349 1.989,-1.235 6.125,-1.852 12.408,-1.852 h 35.385 c 11.03,0 18.763,-2.836 23.207,-8.502 C -1.838,19.682 0,11.489 0,0"
             style="fill:#231f20;fill-opacity:1;fill-rule:nonzero;stroke:none"
             id="path20" />
        </g>
        <g
           id="g22"
           transform="translate(280.9678,162.8887)">
          <path
             d="m 0,0 v 47.015 c 0,6.756 -1.694,11.212 -5.077,13.366 -2.463,1.537 -7.08,2.306 -13.847,2.306 h -14.077 c -6.772,0 -11.389,-0.769 -13.848,-2.306 -3.54,-2.154 -5.31,-6.61 -5.31,-13.366 V 0 c 0,-5.995 1.77,-9.987 5.31,-11.984 2.614,-1.537 7.227,-2.305 13.848,-2.305 h 14.077 c 6.462,0 11,0.768 13.614,2.305 C -1.77,-9.987 0,-5.995 0,0 m 28.722,2.094 c 0,-11.515 -1.917,-19.726 -5.744,-24.637 C 18.687,-28.223 11.029,-31.062 0,-31.062 h -52.159 c -11.029,0 -18.766,2.839 -23.208,8.519 -3.676,4.911 -5.514,13.122 -5.514,24.637 v 44.21 c 0,11.51 1.838,19.724 5.514,24.636 4.442,5.68 12.179,8.52 23.208,8.52 H 0 c 11.029,0 18.687,-2.84 22.978,-8.52 3.827,-4.912 5.744,-13.126 5.744,-24.636 z"
             style="fill:#231f20;fill-opacity:1;fill-rule:nonzero;stroke:none"
             id="path24" />
        </g>
        <g
           id="g26"
           transform="translate(436.7549,164.9824)">
          <path
             d="m 0,0 c 0,-11.515 -1.917,-19.726 -5.745,-24.637 -4.29,-5.679 -11.948,-8.519 -22.977,-8.519 h -52.159 c -11.03,0 -18.766,2.84 -23.208,8.519 -3.676,4.911 -5.515,13.122 -5.515,24.637 v 77.366 h 28.723 V -2.101 c 0,-5.988 1.77,-9.98 5.31,-11.977 2.613,-1.536 7.227,-2.305 13.847,-2.305 h 14.078 c 6.462,0 11,0.769 13.614,2.305 3.54,1.997 5.31,5.989 5.31,11.977 V 77.366 H 0 Z"
             style="fill:#231f20;fill-opacity:1;fill-rule:nonzero;stroke:none"
             id="path28" />
        </g>
        <g
           id="g30"
           transform="translate(531.6489,225.5752)">
          <path
             d="m 0,0 h -33.088 c -6.743,0 -11.338,-0.769 -13.787,-2.306 -3.525,-2.15 -5.284,-6.602 -5.284,-13.359 v -78.084 h -28.722 v 77.366 c 0,11.511 1.838,19.725 5.514,24.637 4.442,5.68 12.179,8.519 23.208,8.519 l 52.159,0 z"
             style="fill:#231f20;fill-opacity:1;fill-rule:nonzero;stroke:none"
             id="path32" />
        </g>
        <g
           id="g34"
           transform="translate(631.8281,131.8262)">
          <path
             d="m 0,0 h -63.648 c -11.029,0 -18.766,2.84 -23.207,8.52 -3.677,4.911 -5.515,13.122 -5.515,24.636 v 44.21 c 0,11.511 1.838,19.725 5.515,24.637 4.441,5.68 12.178,8.519 23.207,8.519 H 0 V 93.749 h -44.577 c -6.742,0 -11.338,-0.769 -13.786,-2.306 -3.526,-2.154 -5.285,-6.609 -5.285,-13.366 V 31.062 c 0,-5.995 1.759,-9.987 5.285,-11.984 2.603,-1.536 7.198,-2.305 13.786,-2.305 l 44.577,0 z"
             style="fill:#231f20;fill-opacity:1;fill-rule:nonzero;stroke:none"
             id="path36" />
        </g>
        <g
           id="g38"
           transform="translate(732.2383,206.6074)">
          <path
             d="m 0,0 v 4.628 c 0,6.01 -1.838,10.02 -5.514,12.027 -2.607,1.54 -7.123,2.313 -13.558,2.313 h -14.016 c -6.433,0 -11.029,-0.773 -13.787,-2.313 -3.525,-2.007 -5.284,-6.017 -5.284,-12.027 v -20.357 h 33.087 c 6.74,0 11.336,0.768 13.787,2.312 C -1.764,-11.259 0,-6.785 0,0 m 28.723,0.696 c 0,-11.528 -1.918,-19.75 -5.744,-24.668 C 18.687,-29.659 11.029,-32.503 0,-32.503 h -52.159 v -9.88 c 0,-6.742 1.759,-11.183 5.284,-13.327 2.449,-1.533 7.045,-2.298 13.787,-2.298 h 58.363 v -16.773 h -77.434 c -11.029,0 -18.691,2.84 -22.978,8.519 -3.83,4.911 -5.744,13.122 -5.744,24.637 v 44.21 c 0,11.511 1.914,19.725 5.744,24.637 4.287,5.679 11.949,8.519 22.978,8.519 H 0 c 11.488,0 19.377,-3.077 23.666,-9.223 3.369,-5.074 5.057,-13.679 5.057,-25.822"
             style="fill:#231f20;fill-opacity:1;fill-rule:nonzero;stroke:none"
             id="path40" />
        </g>
        <g
           id="g42"
           transform="translate(919.9629,148.5996)">
          <path
             d="m 0,0 v 43.657 h -33.002 c -6.771,0 -11.389,-0.767 -13.848,-2.297 -3.54,-2.147 -5.309,-6.589 -5.309,-13.327 V 14.246 c 0,-5.974 1.769,-9.959 5.309,-11.948 C -44.236,0.765 -39.622,0 -33.002,0 Z m 28.722,-16.773 h -80.881 c -11.029,0 -18.767,2.833 -23.208,8.502 -3.676,4.9 -5.515,13.096 -5.515,24.585 v 11.03 c 0,11.488 1.842,19.681 5.529,24.586 4.456,5.665 12.214,8.502 23.276,8.502 H 0 v 0.7 c 0,6.832 -1.691,11.338 -5.07,13.514 -2.459,1.55 -7.069,2.33 -13.829,2.33 H -77.435 V 93.749 H 0 c 11.028,0 18.687,-2.84 22.978,-8.52 3.827,-4.912 5.744,-13.125 5.744,-24.636 z"
             style="fill:#231f20;fill-opacity:1;fill-rule:nonzero;stroke:none"
             id="path44" />
        </g>
        <path
           d="m 993.487,132.745 h -28.723 v 141.542 h 28.723 z"
           style="fill:#231f20;fill-opacity:1;fill-rule:nonzero;stroke:none"
           id="path46" />
        <path
           d="m 1041.97,132.745 h -28.723 v 141.542 h 28.723 z"
           style="fill:#231f20;fill-opacity:1;fill-rule:nonzero;stroke:none"
           id="path48" />
        <path
           d="m 1090.452,132.745 h -28.723 v 109.604 h 28.723 z"
           style="fill:#231f20;fill-opacity:1;fill-rule:nonzero;stroke:none"
           id="path50" />
        <g
           id="g52"
           transform="translate(1189.0244,206.6074)">
          <path
             d="m 0,0 v 4.628 c 0,6.01 -1.839,10.02 -5.515,12.027 -2.607,1.54 -7.123,2.313 -13.557,2.313 h -14.016 c -6.433,0 -11.029,-0.773 -13.787,-2.313 -3.525,-2.007 -5.284,-6.017 -5.284,-12.027 v -20.357 h 33.087 c 6.739,0 11.335,0.768 13.787,2.312 C -1.764,-11.259 0,-6.785 0,0 m 28.722,0.696 c 0,-11.528 -1.917,-19.75 -5.744,-24.668 C 18.687,-29.659 11.028,-32.503 0,-32.503 h -52.159 v -9.88 c 0,-6.742 1.759,-11.183 5.284,-13.327 2.449,-1.533 7.044,-2.298 13.787,-2.298 h 58.363 v -16.773 h -77.434 c -11.029,0 -18.692,2.84 -22.978,8.519 -3.831,4.911 -5.745,13.122 -5.745,24.637 v 44.21 c 0,11.511 1.914,19.725 5.745,24.637 4.286,5.679 11.949,8.519 22.978,8.519 H 0 c 11.488,0 19.376,-3.077 23.666,-9.223 3.368,-5.074 5.056,-13.679 5.056,-25.822"
             style="fill:#231f20;fill-opacity:1;fill-rule:nonzero;stroke:none"
             id="path54" />
        </g>
        <g
           id="g56"
           transform="translate(1337.915,163.5351)">
          <path
             d="m 0,0 c 0,-11.488 -1.838,-19.455 -5.515,-23.896 -4.135,-4.905 -11.873,-7.353 -23.207,-7.353 h -76.974 v 16.773 h 57.903 c 6.738,0 11.409,0.765 14.016,2.298 3.368,2.144 5.055,6.434 5.055,12.867 0,6.585 -1.687,11.03 -5.055,13.328 -2.607,1.529 -7.278,2.297 -14.016,2.297 h -33.088 c -11.183,0 -18.766,1.997 -22.748,5.996 -3.985,3.996 -5.974,11.607 -5.974,22.834 0,11.682 1.838,19.983 5.515,24.906 4.286,5.841 12.024,8.763 23.207,8.763 H -5.974 V 62.04 H -61.81 c -6.742,0 -11.337,-0.772 -13.786,-2.316 -3.526,-2.161 -5.285,-6.642 -5.285,-13.435 0,-5.866 1.454,-9.65 4.365,-11.349 1.99,-1.235 6.125,-1.852 12.409,-1.852 h 35.385 c 11.03,0 18.763,-2.836 23.207,-8.502 C -1.838,19.682 0,11.489 0,0"
             style="fill:#231f20;fill-opacity:1;fill-rule:nonzero;stroke:none"
             id="path58" />
        </g>
      </g>
    </g>
    <g
       id="g60">
      <g
         id="g62">
        <g
           id="g68">
          <g
             id="g70">
            <path
               d="m 971.82,950.445 c -43.767,0 -79.568,-35.811 -79.568,-79.575 v 0 -116.728 c 0,-43.765 35.801,-79.575 79.568,-79.575 v 0 h 196.302 v 275.878 z"
               style="fill:url(#linearGradient78);stroke:none"
               id="path80" />
          </g>
        </g>
      </g>
    </g>
    <g
       id="g82">
      <g
         id="g84">
        <g
           id="g90">
          <g
             id="g92">
            <path
               d="M 239.595,950.445 V 674.567 h 196.3 c 43.767,0 79.578,35.81 79.578,79.575 v 0 116.728 c 0,43.764 -35.811,79.575 -79.578,79.575 v 0 z"
               style="fill:url(#linearGradient100);stroke:none"
               id="path102" />
          </g>
        </g>
      </g>
    </g>
    <g
       id="g104">
      <g
         id="g106">
        <g
           id="g112">
          <g
             id="g114">
            <path
               d="M 565.921,346.961 H 841.797 V 479.71 H 565.921 Z"
               style="fill:url(#linearGradient122);stroke:none"
               id="path124" />
          </g>
        </g>
      </g>
    </g>
    <g
       id="g126">
      <g
         id="g128">
        <g
           id="g134">
          <g
             id="g136">
            <path
               d="m 565.921,480.985 v -1.275 h 275.876 v 63.561 c 0,5.497 -0.567,10.868 -1.643,16.06 v 0 C 755.789,514.6 663.269,487.206 565.921,480.985"
               style="fill:url(#linearGradient144);stroke:none"
               id="path146" />
          </g>
        </g>
      </g>
    </g>
    <g
       id="g148">
      <g
         id="g150">
        <g
           id="g156">
          <g
             id="g158">
            <path
               d="m 892.252,346.961 h 275.87 V 479.71 h -275.87 z"
               style="fill:url(#linearGradient166);stroke:none"
               id="path168" />
          </g>
        </g>
      </g>
    </g>
    <g
       id="g170">
      <g
         id="g172">
        <g
           id="g178">
          <g
             id="g180">
            <path
               d="m 971.82,622.837 c -43.767,0 -79.568,-35.81 -79.568,-79.566 v 0 -63.561 h 275.87 v 143.127 z"
               style="fill:url(#linearGradient188);stroke:none"
               id="path190" />
          </g>
        </g>
      </g>
    </g>
    <g
       id="g192">
      <g
         id="g194"
         clip-path="url(#clipPath198)">
        <g
           id="g200">
          <g
             id="g202" />
          <g
             id="g232">
            <g
               clip-path="url(#clipPath206)"
               opacity="0.539993"
               id="g230">
              <g
                 id="g228">
                <g
                   id="g226">
                  <g
                     id="g224">
                    <g
                       id="g222">
                      <path
                         d="M 892.252,870.869 V 754.143 c 0,-43.766 35.801,-79.576 79.568,-79.576 h 29.278 c 65.143,60.642 121.654,133.393 167.023,215.352 v 60.526 H 971.82 c -43.767,0 -79.568,-35.811 -79.568,-79.576"
                         style="fill:url(#linearGradient218);stroke:none"
                         id="path220" />
                    </g>
                  </g>
                </g>
              </g>
            </g>
          </g>
        </g>
      </g>
    </g>
    <g
       id="g234">
      <g
         id="g236">
        <g
           id="g242">
          <g
             id="g244">
            <path
               d="m 645.494,622.837 c -43.767,0 -79.573,-35.81 -79.573,-79.566 v 0 -62.286 c 97.348,6.221 189.868,33.615 274.233,78.346 v 0 c -0.252,1.221 -0.535,2.431 -0.843,3.631 v 0 c -0.068,0.264 -0.147,0.525 -0.219,0.789 v 0 c -0.249,0.929 -0.508,1.852 -0.79,2.767 v 0 c -0.121,0.393 -0.253,0.781 -0.38,1.171 v 0 c -0.253,0.782 -0.515,1.559 -0.792,2.33 v 0 c -0.153,0.425 -0.314,0.847 -0.474,1.27 v 0 c -0.277,0.731 -0.564,1.457 -0.863,2.178 v 0 c -0.175,0.425 -0.353,0.849 -0.536,1.27 v 0 c -0.314,0.721 -0.64,1.435 -0.974,2.145 v 0 c -0.186,0.398 -0.371,0.797 -0.564,1.191 v 0 c -0.373,0.76 -0.763,1.509 -1.16,2.255 v 0 c -0.173,0.328 -0.339,0.66 -0.517,0.984 v 0 c -0.564,1.028 -1.149,2.045 -1.757,3.045 v 0 c -0.019,0.032 -0.036,0.064 -0.056,0.096 v 0 c -0.634,1.042 -1.297,2.067 -1.977,3.077 v 0 c -0.186,0.276 -0.383,0.544 -0.572,0.818 v 0 c -0.498,0.719 -1.002,1.434 -1.522,2.136 v 0 c -0.256,0.344 -0.521,0.683 -0.783,1.024 v 0 c -0.476,0.619 -0.955,1.235 -1.448,1.839 v 0 c -0.289,0.355 -0.583,0.705 -0.878,1.054 v 0 c -0.489,0.582 -0.987,1.157 -1.493,1.724 v 0 c -0.305,0.341 -0.611,0.682 -0.923,1.018 v 0 c -0.525,0.57 -1.062,1.13 -1.605,1.684 v 0 c -0.303,0.31 -0.604,0.622 -0.912,0.927 v 0 c -0.603,0.597 -1.22,1.18 -1.842,1.756 v 0 c -0.261,0.243 -0.516,0.492 -0.78,0.731 v 0 c -1.796,1.624 -3.665,3.168 -5.602,4.626 v 0 c -0.26,0.196 -0.528,0.382 -0.791,0.574 v 0 c -0.71,0.521 -1.425,1.036 -2.153,1.533 v 0 c -0.35,0.24 -0.706,0.47 -1.06,0.705 v 0 c -0.658,0.434 -1.32,0.863 -1.991,1.278 v 0 c -0.386,0.239 -0.777,0.473 -1.167,0.706 v 0 c -0.659,0.393 -1.324,0.777 -1.996,1.151 v 0 c -0.4,0.224 -0.802,0.446 -1.207,0.662 v 0 c -0.69,0.369 -1.388,0.725 -2.089,1.075 v 0 c -0.393,0.194 -0.782,0.393 -1.177,0.581 v 0 c -0.774,0.369 -1.557,0.719 -2.342,1.063 v 0 c -0.332,0.146 -0.661,0.3 -0.996,0.441 v 0 c -2.253,0.95 -4.56,1.8 -6.913,2.542 v 0 c -0.351,0.111 -0.71,0.209 -1.064,0.315 v 0 c -0.825,0.248 -1.652,0.489 -2.486,0.71 v 0 c -0.445,0.117 -0.894,0.224 -1.341,0.333 v 0 c -0.759,0.187 -1.52,0.367 -2.287,0.532 v 0 c -0.48,0.103 -0.963,0.198 -1.447,0.293 v 0 c -0.749,0.146 -1.502,0.282 -2.258,0.406 v 0 c -0.493,0.081 -0.987,0.161 -1.483,0.233 v 0 c -0.772,0.112 -1.549,0.208 -2.329,0.298 v 0 c -0.479,0.055 -0.958,0.115 -1.442,0.161 v 0 c -0.849,0.083 -1.706,0.142 -2.564,0.197 v 0 c -0.415,0.026 -0.827,0.063 -1.243,0.083 v 0 c -1.275,0.062 -2.556,0.098 -3.844,0.098 v 0 z"
               style="fill:url(#linearGradient252);stroke:none"
               id="path254" />
          </g>
        </g>
      </g>
    </g>
    <g
       id="g256">
      <g
         id="g258"
         clip-path="url(#clipPath262)">
        <g
           id="g264">
          <g
             id="g266" />
          <g
             id="g298">
            <g
               clip-path="url(#clipPath270)"
               opacity="0.149994"
               id="g296">
              <g
                 id="g294">
                <g
                   id="g292">
                  <g
                     id="g290">
                    <g
                       id="g288">
                      <path
                         d="m 839.311,562.962 c -0.068,0.265 -0.148,0.525 -0.219,0.789 -0.249,0.928 -0.508,1.852 -0.79,2.767 -0.121,0.393 -0.253,0.781 -0.38,1.171 -0.254,0.781 -0.515,1.559 -0.792,2.33 -0.153,0.425 -0.313,0.848 -0.474,1.27 -0.277,0.731 -0.564,1.457 -0.862,2.178 -0.176,0.425 -0.354,0.849 -0.537,1.271 -0.313,0.721 -0.64,1.434 -0.974,2.144 -0.187,0.398 -0.371,0.797 -0.564,1.191 -0.373,0.76 -0.763,1.509 -1.159,2.256 -0.174,0.327 -0.34,0.659 -0.518,0.983 -0.565,1.028 -1.149,2.045 -1.757,3.045 -0.019,0.031 -0.036,0.064 -0.055,0.096 -0.636,1.042 -1.297,2.067 -1.978,3.077 -0.186,0.276 -0.383,0.544 -0.573,0.818 -0.497,0.719 -1.001,1.434 -1.521,2.135 -0.256,0.346 -0.522,0.684 -0.783,1.025 -0.475,0.619 -0.956,1.235 -1.448,1.84 -0.289,0.354 -0.583,0.704 -0.878,1.054 -0.489,0.581 -0.987,1.156 -1.493,1.723 -0.305,0.341 -0.611,0.682 -0.922,1.018 -0.526,0.57 -1.064,1.13 -1.606,1.684 -0.303,0.31 -0.604,0.622 -0.912,0.927 -0.603,0.597 -1.22,1.179 -1.842,1.757 -0.261,0.242 -0.516,0.491 -0.78,0.73 -1.796,1.624 -3.665,3.169 -5.602,4.626 -0.26,0.196 -0.529,0.382 -0.791,0.574 -0.71,0.521 -1.425,1.036 -2.152,1.534 -0.351,0.239 -0.707,0.469 -1.061,0.703 -0.658,0.435 -1.32,0.864 -1.991,1.279 -0.386,0.24 -0.776,0.473 -1.167,0.706 -0.659,0.393 -1.324,0.777 -1.995,1.151 -0.401,0.223 -0.803,0.446 -1.208,0.662 -0.69,0.369 -1.388,0.725 -2.09,1.074 -0.391,0.195 -0.781,0.394 -1.177,0.582 -0.772,0.369 -1.555,0.719 -2.341,1.063 -0.333,0.146 -0.661,0.3 -0.995,0.441 -2.255,0.95 -4.561,1.8 -6.913,2.542 -0.353,0.112 -0.711,0.209 -1.065,0.315 -0.825,0.248 -1.651,0.489 -2.486,0.71 -0.445,0.118 -0.893,0.224 -1.341,0.333 -0.758,0.187 -1.52,0.367 -2.286,0.532 -0.481,0.103 -0.964,0.198 -1.448,0.293 -0.749,0.146 -1.502,0.281 -2.259,0.406 -0.492,0.081 -0.986,0.161 -1.481,0.233 -0.773,0.112 -1.55,0.208 -2.33,0.298 -0.48,0.055 -0.959,0.115 -1.441,0.161 -0.851,0.082 -1.707,0.142 -2.565,0.197 -0.414,0.026 -0.826,0.063 -1.243,0.083 -1.274,0.061 -2.555,0.098 -3.844,0.098 H 645.494 c -43.767,0 -79.573,-35.81 -79.573,-79.567 v -62.285 c 97.349,6.221 189.868,33.615 274.233,78.346 -0.252,1.221 -0.535,2.431 -0.843,3.631"
                         style="fill:url(#linearGradient284);stroke:none"
                         id="path286" />
                    </g>
                  </g>
                </g>
              </g>
            </g>
          </g>
        </g>
      </g>
    </g>
    <g
       id="g300">
      <g
         id="g302">
        <g
           id="g308">
          <g
             id="g310">
            <path
               d="m 565.921,1278.047 v -196.306 c 0,-43.765 35.806,-79.571 79.573,-79.571 v 0 h 116.728 c 43.767,0 79.575,35.806 79.575,79.571 v 0 196.306 z"
               style="fill:url(#linearGradient318);stroke:none"
               id="path320" />
          </g>
        </g>
      </g>
    </g>
    <g
       id="g322">
      <g
         id="g324">
        <g
           id="g330">
          <g
             id="g332">
            <path
               d="m 438.521,1278.047 c -109.41,0 -198.926,-89.519 -198.926,-198.933 v 0 -76.944 h 196.3 c 43.767,0 79.578,35.806 79.578,79.571 v 0 196.306 z"
               style="fill:url(#linearGradient340);stroke:none"
               id="path342" />
          </g>
        </g>
      </g>
    </g>
    <g
       id="g344">
      <g
         id="g346">
        <g
           id="g352">
          <g
             id="g354">
            <path
               d="m 892.252,1278.047 v -196.306 c 0,-43.765 35.801,-79.571 79.568,-79.571 v 0 h 196.302 v 76.944 c 0,109.414 -89.52,198.933 -198.926,198.933 v 0 z"
               style="fill:url(#linearGradient362);stroke:none"
               id="path364" />
          </g>
        </g>
      </g>
    </g>
    <g
       id="g366">
      <g
         id="g368">
        <g
           id="g374">
          <g
             id="g376">
            <path
               d="m 239.595,622.837 v -76.943 c 0,-109.414 89.516,-198.933 198.934,-198.933 v 0 h 76.944 v 196.31 c 0,43.756 -35.804,79.566 -79.57,79.566 v 0 z"
               style="fill:url(#linearGradient384);stroke:none"
               id="path386" />
          </g>
        </g>
      </g>
    </g>
    <g
       id="g388">
      <g
         id="g390">
        <g
           id="g396">
          <g
             id="g398">
            <path
               d="m 645.433,950.471 c -43.743,0 -79.528,-35.79 -79.528,-79.53 v 0 -116.661 c 0,-42.926 34.467,-78.191 77.095,-79.49 v 0 h 121.528 c 42.629,1.299 77.097,36.564 77.097,79.49 v 0 116.661 c 0,43.74 -35.788,79.53 -79.53,79.53 v 0 z"
               style="fill:url(#radialGradient408);stroke:none"
               id="path410" />
          </g>
        </g>
      </g>
    </g>
  </g>
</svg>
