<svg width="658" height="530" viewBox="0 0 658 530" fill="none" xmlns="http://www.w3.org/2000/svg">
<g clip-path="url(#clip0_1831_13097)">
<path d="M329.167 346.161L137.273 237.045V176.843L329.167 285.959L521.061 178.724V235.163L329.167 346.161Z" fill="#3575CF"/>
<path d="M329.167 248.332L171.137 158.029L137.273 176.843V146.742V86.5396L329.167 195.656L359.268 176.843L203.119 86.5396L250.152 60.2013L329.167 15.0498L487.197 107.234L521.061 86.5396V178.724L329.167 67.7265L295.304 86.5396L451.452 176.843" fill="white"/>
<path d="M329.167 248.332L171.137 158.029L137.273 176.843V146.742V86.5396L329.167 195.656L359.268 176.843L203.119 86.5396L250.152 60.2013L329.167 15.0498L487.197 107.234L521.061 86.5396V178.724L329.167 67.7265L295.304 86.5396L451.452 176.843" fill="#3575CF"/>
</g>
<path d="M29.5689 489.329C26.1826 487.824 23.7369 485.943 22.2318 483.873C20.5387 481.804 19.7861 480.11 19.7861 478.794C19.7861 478.041 19.9743 477.477 20.5387 477.1C21.1031 476.724 21.4793 476.536 22.0437 476.536H26.5589C26.9351 476.536 27.3114 476.536 27.4995 476.724C27.6876 476.912 28.0639 477.1 28.4402 477.665C30.1333 479.546 31.8265 481.239 33.896 482.368C35.9654 483.497 38.5992 484.061 41.9856 484.061C45.7482 484.061 48.7583 483.309 51.0159 481.992C53.2735 480.675 54.4022 478.605 54.4022 475.972C54.4022 474.278 53.8379 472.773 52.8972 471.833C51.9565 470.704 50.2634 469.763 48.0058 469.011C45.7482 468.258 42.3619 467.318 37.8467 466.189C31.8265 464.872 27.4995 462.991 24.8657 460.357C22.42 457.911 21.1031 454.525 21.1031 450.574C21.1031 447.94 21.8556 445.494 23.3606 443.049C24.8657 440.603 27.1232 438.722 30.3215 437.217C33.5197 435.712 37.0942 434.959 41.2331 434.959C45.7482 434.959 49.5108 435.712 52.5209 437.217C55.7192 438.722 57.9767 440.415 59.6699 442.296C61.175 444.177 62.1156 445.871 62.1156 447.188C62.1156 447.752 61.9275 448.316 61.3631 448.693C60.9868 449.069 60.4224 449.257 59.6699 449.257H55.7192C54.7785 449.257 54.026 448.881 53.6497 448.128C52.5209 446.811 51.3922 445.682 50.6396 444.93C49.8871 444.177 48.5702 443.613 47.0651 443.049C45.5601 442.484 43.6788 442.296 41.2331 442.296C37.8467 442.296 35.2129 443.049 33.3316 444.366C31.4503 445.871 30.5096 447.752 30.5096 450.198C30.5096 451.703 30.8859 452.831 31.6384 453.96C32.3909 454.901 33.896 455.842 36.1535 456.782C38.4111 457.723 41.6093 458.475 45.9364 459.416C52.5209 460.733 57.4123 462.802 60.0462 465.436C62.8681 468.07 64.1851 471.456 64.1851 475.407C64.1851 478.417 63.2444 481.239 61.5512 483.685C59.8581 486.131 57.2242 488.012 53.8379 489.517C50.4515 490.834 46.3126 491.586 41.6093 491.586C37.0942 491.586 32.9553 490.834 29.5689 489.329Z" fill="black"/>
<path d="M75.2838 510.023C74.9075 509.647 74.5312 509.082 74.5312 508.142V438.157C74.5312 437.404 74.7194 436.84 75.2838 436.276C75.66 435.899 76.4126 435.711 76.977 435.711H81.4921C82.2446 435.711 82.809 435.899 83.3734 436.276C83.7497 436.652 83.9378 437.216 83.9378 438.157V442.86C88.0767 437.404 93.7206 434.771 101.246 434.771C108.583 434.771 114.227 437.028 117.801 441.731C121.564 446.435 123.445 452.267 123.633 459.604C123.633 460.356 123.822 461.485 123.822 463.178C123.822 464.871 123.822 466 123.633 466.753C123.445 473.902 121.564 479.922 117.801 484.625C114.039 489.329 108.583 491.774 101.246 491.774C93.7206 491.774 88.0767 489.14 84.1259 483.685V508.142C84.1259 508.894 83.9378 509.459 83.3734 509.835C82.9971 510.211 82.2446 510.587 81.6802 510.587H76.977C76.4126 510.587 75.8482 510.399 75.2838 510.023ZM110.464 478.605C112.722 475.407 114.039 471.268 114.227 466.188C114.227 465.436 114.415 464.495 114.415 463.178C114.415 449.633 109.335 442.86 99.3645 442.86C94.4731 442.86 90.7105 444.553 88.2648 447.752C85.8191 450.95 84.5022 454.901 84.3141 459.228C84.3141 459.98 84.1259 461.297 84.1259 463.366C84.1259 465.436 84.1259 466.753 84.3141 467.505C84.5022 471.832 85.8191 475.407 88.4529 478.605C91.0868 481.803 94.6613 483.308 99.5527 483.308C104.444 483.308 108.019 481.803 110.464 478.605Z" fill="black"/>
<path d="M139.625 485.002C135.298 480.487 133.041 474.467 132.476 466.753L132.288 463.179L132.476 459.792C132.852 452.267 135.298 446.247 139.625 441.732C143.952 437.217 149.596 434.959 156.745 434.959C164.459 434.959 170.479 437.405 174.618 442.296C178.945 447.188 181.014 453.96 181.014 462.238V464.119C181.014 464.872 180.826 465.436 180.262 465.812C179.885 466.189 179.133 466.565 178.568 466.565H142.071V467.506C142.259 472.021 143.764 475.972 146.21 479.17C148.844 482.368 152.23 484.061 156.557 484.061C159.943 484.061 162.577 483.497 164.647 482.18C166.716 480.863 168.221 479.546 169.35 478.041C169.914 477.288 170.479 476.724 170.855 476.536C171.231 476.348 171.796 476.348 172.736 476.348H177.44C178.004 476.348 178.568 476.536 179.133 476.912C179.509 477.288 179.885 477.665 179.885 478.229C179.885 479.734 178.945 481.615 177.063 483.873C175.182 486.131 172.548 488.012 168.974 489.517C165.587 491.022 161.448 491.963 156.933 491.963C149.596 491.586 143.764 489.329 139.625 485.002ZM171.419 459.228V459.04C171.419 454.148 170.102 450.198 167.469 446.999C164.835 443.989 161.26 442.296 156.745 442.296C152.23 442.296 148.655 443.801 146.022 446.999C143.388 450.009 142.071 454.148 142.071 459.04V459.416H171.419V459.228Z" fill="black"/>
<path d="M196.064 485.19C191.925 480.863 189.667 475.031 189.479 467.317L189.291 463.178L189.479 459.039C189.667 451.326 191.925 445.494 196.064 441.167C200.203 436.84 206.223 434.771 213.748 434.771C218.828 434.771 223.155 435.711 226.541 437.404C229.927 439.286 232.561 441.355 234.254 444.177C235.948 446.811 236.888 449.445 237.076 452.267C237.076 452.831 236.888 453.395 236.324 453.96C235.759 454.524 235.195 454.712 234.631 454.712H229.927C229.175 454.712 228.61 454.524 228.422 454.148C228.046 453.772 227.67 453.207 227.294 452.455C225.977 449.068 224.283 446.623 222.026 445.118C219.768 443.613 216.946 443.048 213.56 443.048C209.045 443.048 205.658 444.365 203.025 447.187C200.391 450.009 199.074 454.148 198.886 459.792L198.698 463.555L198.886 467.317C199.074 472.961 200.579 477.1 203.025 479.922C205.658 482.744 209.045 484.061 213.56 484.061C216.946 484.061 219.768 483.308 222.026 481.991C224.283 480.486 225.977 478.041 227.105 474.654C227.482 473.902 227.858 473.149 228.234 472.961C228.61 472.585 229.175 472.397 229.739 472.397H234.442C235.007 472.397 235.571 472.585 236.136 473.149C236.7 473.714 236.888 474.278 236.888 474.842C236.7 477.476 235.759 480.11 234.066 482.744C232.373 485.378 229.739 487.635 226.353 489.517C222.966 491.398 218.639 492.339 213.56 492.339C206.223 491.586 200.391 489.517 196.064 485.19Z" fill="black"/>
<path d="M252.317 472.209V443.989H244.039C243.286 443.989 242.722 443.801 242.346 443.425C241.969 443.049 241.781 442.484 241.781 441.732V438.345C241.781 437.593 241.969 437.028 242.346 436.652C242.722 436.276 243.286 435.9 244.039 435.9H252.317V418.215C252.317 417.463 252.505 416.898 252.881 416.522C253.257 416.146 253.822 415.77 254.574 415.77H259.277C260.03 415.77 260.594 415.958 260.971 416.522C261.347 416.898 261.723 417.651 261.723 418.215V435.9H274.704C275.457 435.9 276.021 436.088 276.397 436.652C276.774 437.028 277.15 437.781 277.15 438.345V441.732C277.15 442.484 276.962 443.049 276.397 443.425C276.021 443.801 275.269 443.989 274.704 443.989H261.723V471.456C261.723 475.031 262.288 477.665 263.416 479.546C264.545 481.427 266.615 482.368 269.437 482.368H275.833C276.586 482.368 277.15 482.556 277.526 483.12C277.902 483.497 278.091 484.249 278.091 484.814V488.2C278.091 488.953 277.902 489.517 277.526 489.893C277.15 490.269 276.586 490.646 275.833 490.646H268.684C257.772 490.646 252.317 484.437 252.317 472.209Z" fill="black"/>
<path d="M287.121 489.893C286.744 489.516 286.368 488.952 286.368 488.199V438.345C286.368 437.592 286.556 437.028 287.121 436.463C287.497 435.899 288.061 435.711 288.814 435.711H293.329C294.082 435.711 294.646 435.899 295.21 436.463C295.587 436.84 295.963 437.592 295.963 438.345V443.048C298.785 438.345 303.676 435.899 310.637 435.899H314.776C315.528 435.899 316.093 436.087 316.657 436.463C317.034 436.84 317.222 437.404 317.222 438.345V442.296C317.222 443.048 317.034 443.612 316.657 443.989C316.281 444.365 315.717 444.741 314.776 444.741H308.756C304.805 444.741 301.795 445.87 299.725 448.128C297.468 450.385 296.339 453.395 296.339 457.346V488.388C296.339 489.14 296.151 489.705 295.587 490.081C295.022 490.457 294.458 490.833 293.705 490.833H288.814C288.061 490.645 287.497 490.269 287.121 489.893Z" fill="black"/>
<path d="M327.192 485.001C323.053 480.674 320.796 474.842 320.42 467.693L320.231 463.178L320.42 458.663C320.608 451.514 323.053 445.682 327.192 441.355C331.519 437.028 337.351 434.771 344.877 434.771C352.402 434.771 358.422 437.028 362.561 441.355C366.888 445.682 369.146 451.514 369.334 458.663C369.522 460.168 369.522 461.673 369.522 463.178C369.522 464.683 369.522 466.188 369.334 467.693C368.957 474.842 366.888 480.674 362.561 485.001C358.422 489.329 352.402 491.586 344.688 491.586C337.351 491.586 331.519 489.517 327.192 485.001ZM355.788 479.358C358.422 476.536 359.927 472.397 360.115 467.129C360.115 466.377 360.303 465.06 360.303 463.178C360.303 461.297 360.303 459.792 360.115 459.228C359.927 453.96 358.422 449.821 355.788 446.999C353.154 444.177 349.58 442.672 345.065 442.672C340.55 442.672 336.975 444.177 334.341 446.999C331.707 449.821 330.202 453.96 330.014 459.228L329.826 463.178L330.014 467.129C330.202 472.397 331.707 476.536 334.341 479.358C336.975 482.18 340.55 483.685 345.065 483.685C349.58 483.685 353.154 482.368 355.788 479.358Z" fill="black"/>
<path d="M406.209 485.19C402.258 480.863 400.188 475.031 399.812 467.317L399.624 463.178L399.812 459.039C400 451.326 402.07 445.494 406.209 441.167C410.159 436.84 415.803 434.771 423.14 434.771C427.844 434.771 431.794 435.523 434.993 437.216C438.191 438.909 440.637 440.979 442.33 443.613C444.023 446.246 444.775 448.88 444.964 451.514C444.964 452.079 444.775 452.643 444.399 453.207C443.835 453.584 443.27 453.96 442.706 453.96H441.201C440.448 453.96 440.072 453.772 439.696 453.395C439.32 453.019 439.132 452.455 438.755 451.702C437.438 447.752 435.369 445.118 432.923 443.425C430.478 441.731 427.279 440.979 423.329 440.979C418.249 440.979 414.298 442.484 411.288 445.494C408.278 448.504 406.773 453.207 406.585 459.604L406.397 463.366L406.585 467.129C406.773 473.526 408.466 478.229 411.288 481.239C414.298 484.249 418.249 485.754 423.329 485.754C427.279 485.754 430.478 485.001 432.923 483.308C435.369 481.615 437.438 478.981 438.755 475.031C439.132 474.278 439.508 473.526 439.696 473.337C439.884 473.149 440.448 472.773 441.201 472.773H442.706C443.27 472.773 443.835 472.961 444.399 473.525C444.964 473.902 445.152 474.466 444.964 475.219C444.775 478.041 444.023 480.674 442.33 483.12C440.637 485.754 438.191 487.823 434.993 489.517C431.794 491.21 427.844 491.962 423.14 491.962C415.991 491.586 410.347 489.517 406.209 485.19Z" fill="black"/>
<path d="M457.568 489.893C457.192 489.517 457.004 488.953 457.004 488.2V418.027C457.004 417.275 457.192 416.71 457.568 416.334C457.945 415.958 458.509 415.77 459.261 415.77H461.143C461.895 415.77 462.46 415.958 462.836 416.334C463.212 416.71 463.4 417.275 463.4 418.027V488.2C463.4 488.953 463.212 489.517 462.836 489.893C462.46 490.269 461.895 490.458 461.143 490.458H459.261C458.509 490.646 457.945 490.269 457.568 489.893Z" fill="black"/>
<path d="M482.214 485.002C478.264 480.487 476.006 474.843 475.818 467.694L475.63 463.179L475.818 458.664C476.006 451.515 478.076 445.871 482.214 441.356C486.165 436.841 491.997 434.583 499.146 434.583C506.295 434.583 512.127 436.841 516.078 441.356C520.029 445.871 522.286 451.515 522.475 458.664C522.475 459.416 522.663 460.921 522.663 463.179C522.663 465.436 522.663 466.942 522.475 467.694C522.286 474.843 520.217 480.487 516.078 485.002C512.127 489.517 506.295 491.775 499.146 491.775C491.997 491.775 486.353 489.329 482.214 485.002ZM511.375 480.675C514.385 477.477 516.078 472.962 516.266 466.942C516.266 466.189 516.454 464.872 516.454 462.991C516.454 461.11 516.454 459.793 516.266 459.04C516.078 453.208 514.385 448.505 511.375 445.306C508.365 442.108 504.226 440.603 499.334 440.603C494.255 440.603 490.304 442.108 487.294 445.306C484.284 448.505 482.591 453.02 482.403 459.04L482.214 462.991L482.403 466.942C482.591 472.774 484.284 477.477 487.294 480.675C490.304 483.873 494.443 485.378 499.334 485.378C504.226 485.567 508.365 483.873 511.375 480.675Z" fill="black"/>
<path d="M539.97 485.001C536.396 480.674 534.515 475.03 534.515 467.881V437.969C534.515 437.216 534.703 436.652 535.079 436.275C535.455 435.899 536.02 435.711 536.772 435.711H538.654C539.406 435.711 539.97 435.899 540.347 436.275C540.723 436.652 540.911 437.216 540.911 437.969V467.317C540.911 479.357 546.179 485.378 556.526 485.378C561.606 485.378 565.556 483.872 568.566 480.674C571.576 477.476 573.082 473.149 573.082 467.505V438.157C573.082 437.404 573.27 436.84 573.646 436.463C574.022 436.087 574.587 435.899 575.339 435.899H577.22C577.973 435.899 578.537 436.087 578.914 436.463C579.29 436.84 579.478 437.404 579.478 438.157V488.388C579.478 489.14 579.29 489.705 578.914 490.081C578.537 490.457 577.973 490.645 577.22 490.645H575.339C574.587 490.645 574.022 490.457 573.646 490.081C573.27 489.705 573.082 489.14 573.082 488.388V483.496C571.012 486.318 568.566 488.388 565.933 489.705C563.299 491.021 559.724 491.774 555.585 491.774C548.813 491.586 543.545 489.516 539.97 485.001Z" fill="black"/>
<path d="M597.725 484.249C594.151 479.358 592.269 473.338 591.893 466.189L591.705 463.179L591.893 460.168C592.081 453.019 593.963 446.999 597.725 442.108C601.3 437.216 606.944 434.771 614.469 434.771C622.182 434.771 628.014 437.593 632.153 443.049V418.027C632.153 417.275 632.341 416.71 632.718 416.334C633.094 415.958 633.658 415.77 634.411 415.77H636.292C637.045 415.77 637.609 415.958 637.985 416.334C638.362 416.71 638.55 417.275 638.55 418.027V488.2C638.55 488.953 638.362 489.517 637.985 489.893C637.609 490.269 637.045 490.458 636.292 490.458H634.411C633.658 490.458 633.094 490.269 632.718 489.893C632.341 489.517 632.153 488.953 632.153 488.2V483.309C628.014 488.953 622.182 491.586 614.469 491.586C606.944 491.586 601.3 489.141 597.725 484.249ZM627.638 479.922C630.46 476.16 631.965 471.833 632.153 466.941C632.153 466.189 632.341 464.872 632.341 462.802C632.341 460.733 632.341 459.416 632.153 458.663C632.153 455.653 631.401 452.831 630.084 450.009C628.767 447.187 626.886 445.118 624.44 443.237C621.994 441.543 618.796 440.603 615.033 440.603C609.389 440.603 605.251 442.484 602.617 446.059C599.983 449.633 598.478 454.336 598.29 459.98L598.102 462.99C598.102 469.575 599.418 474.843 601.864 478.982C604.31 483.12 608.825 485.19 614.845 485.19C620.677 485.566 624.816 483.685 627.638 479.922Z" fill="black"/>
<defs>
<clipPath id="clip0_1831_13097">
<rect width="421.414" height="361.212" fill="white" transform="translate(118.462)"/>
</clipPath>
</defs>
</svg>
