<?xml version="1.0" encoding="UTF-8"?> <svg xmlns="http://www.w3.org/2000/svg" xmlns:xlink="http://www.w3.org/1999/xlink" id="Spectro_Logo" data-name="Spectro Logo" viewBox="0 0 400 245"><defs><style>.cls-1,.cls-9{fill-rule:evenodd;}.cls-1{fill:url(#linear-gradient);}.cls-2{fill:url(#linear-gradient-2);}.cls-3{opacity:0.2;}.cls-4{fill:url(#linear-gradient-3);}.cls-5{fill:url(#linear-gradient-4);}.cls-6{fill:url(#linear-gradient-5);}.cls-7{fill:url(#linear-gradient-6);}.cls-8{fill:url(#linear-gradient-7);}.cls-9{fill:#fafafa;}.cls-10{fill:#2d53ff;}</style><linearGradient id="linear-gradient" x1="69.65733" y1="67.34249" x2="69.65733" y2="177.35519" gradientUnits="userSpaceOnUse"><stop offset="0" stop-color="#4e1bff"></stop><stop offset="1" stop-color="#009bfd"></stop></linearGradient><linearGradient id="linear-gradient-2" x1="76.5674" y1="103.71291" x2="72.9298" y2="124.34243" gradientTransform="matrix(1, 0, 0, -1, 0, 247)" gradientUnits="userSpaceOnUse"><stop offset="0.4" stop-opacity="0"></stop><stop offset="1" stop-opacity="0.2"></stop></linearGradient><linearGradient id="linear-gradient-3" x1="127.64713" y1="125.98653" x2="127.64713" y2="155.93995" gradientTransform="matrix(1, 0, 0, -1, 0, 247)" gradientUnits="userSpaceOnUse"><stop offset="0.4" stop-opacity="0"></stop><stop offset="1"></stop></linearGradient><linearGradient id="linear-gradient-4" x1="83.99826" y1="167.09499" x2="72.24869" y2="178.499" gradientTransform="matrix(1, 0, 0, -1, 0, 247)" gradientUnits="userSpaceOnUse"><stop offset="0.4" stop-opacity="0"></stop><stop offset="1" stop-opacity="0.6"></stop></linearGradient><linearGradient id="linear-gradient-5" x1="105.16153" y1="91.15862" x2="98.23022" y2="103.16399" gradientTransform="matrix(1, 0, 0, -1, 0, 247)" gradientUnits="userSpaceOnUse"><stop offset="0" stop-opacity="0"></stop><stop offset="1" stop-opacity="0.1"></stop></linearGradient><linearGradient id="linear-gradient-6" x1="72.16775" y1="152.26086" x2="66.39721" y2="161.97463" gradientTransform="matrix(1, 0, 0, -1, 0, 247)" gradientUnits="userSpaceOnUse"><stop offset="0" stop-opacity="0"></stop><stop offset="1" stop-opacity="0.2"></stop></linearGradient><linearGradient id="linear-gradient-7" x1="5.8601" y1="132.10981" x2="16.76192" y2="132.10981" gradientTransform="matrix(1, 0, 0, -1, 0, 247)" gradientUnits="userSpaceOnUse"><stop offset="0" stop-opacity="0"></stop><stop offset="1" stop-opacity="0.3"></stop></linearGradient></defs><title>Spectro_Cloud-spn</title><g id="Landscape_Black_Cloud" data-name="Landscape Black Cloud"><g id="Logo"><polygon class="cls-1" points="133.455 121.345 133.455 91.06 121.84 97.803 69.407 67.342 27.708 91.216 80.09 121.395 69.507 127.399 5.86 91.216 5.86 120.882 5.86 121.02 5.86 140.747 69.407 177.355 133.455 140.747 133.442 121.383 69.407 157.534 5.981 120.952 16.762 114.915 69.407 144.769 110 121.101 57.942 90.841 69.407 84.574 133.455 121.345"></polygon><g id="Shadow"><polygon id="SVGID" class="cls-2" points="80.09 121.395 80.09 138.539 69.407 144.55 69.507 127.399 80.09 121.395"></polygon><g class="cls-3"><polygon id="SVGID-2" data-name="SVGID" class="cls-4" points="133.455 91.06 133.304 121.013 121.84 114.497 121.84 97.803 133.455 91.06"></polygon></g><g class="cls-3"><polygon id="SVGID-3" data-name="SVGID" class="cls-5" points="69.407 84.574 121.84 114.665 121.84 97.803 69.407 67.342 69.407 84.574"></polygon></g><polygon id="SVGID-4" data-name="SVGID" class="cls-6" points="133.455 140.747 69.407 177.355 69.407 157.972 133.442 121.382 133.455 140.747"></polygon><polygon id="SVGID-5" data-name="SVGID" class="cls-7" points="110 120.882 94.67 130.095 57.899 108.26 57.942 90.841 110 120.882"></polygon><polygon id="SVGID-6" data-name="SVGID" class="cls-8" points="5.86 120.882 16.762 114.915 5.86 108.898 5.86 120.882"></polygon></g><g id="CC"><polygon class="cls-9" points="5.86 91.216 69.711 54.288 133.455 91.06 121.84 97.803 69.407 67.343 27.708 91.216 80.09 121.395 69.507 127.399 5.86 91.216"></polygon><polygon class="cls-9" points="5.979 120.951 16.762 114.915 69.407 144.769 110 121.101 57.942 90.841 69.407 84.574 133.455 121.345 69.407 157.534 5.979 120.951"></polygon></g></g><g id="spectro"><path id="SVGID-7" data-name="SVGID" class="cls-10" d="M387.03268,84.59417a4.71577,4.71577,0,0,0-1.55113-3.734,5.91137,5.91137,0,0,0-4.04673-1.36351,5.81264,5.81264,0,0,0-4.02172,1.36351,4.76,4.76,0,0,0-1.52613,3.734V95.09569a4.73939,4.73939,0,0,0,1.52613,3.734,5.81264,5.81264,0,0,0,4.02172,1.3635,5.91129,5.91129,0,0,0,4.04673-1.3635,4.71565,4.71565,0,0,0,1.55113-3.734Zm7.96214,11.25209a9.94382,9.94382,0,0,1-2.04528,6.361,12.48317,12.48317,0,0,1-5.17885,3.87161,16.65793,16.65793,0,0,1-12.69689.025,11.95626,11.95626,0,0,1-5.12255-3.87162A10.16549,10.16549,0,0,1,367.931,95.84V83.83736a10.17816,10.17816,0,0,1,2.02023-6.39223,12.00556,12.00556,0,0,1,5.12255-3.87162,16.65787,16.65787,0,0,1,12.69689.025,12.41769,12.41769,0,0,1,5.17885,3.87162,9.96786,9.96786,0,0,1,2.04528,6.361ZM358.96816,104.928a1.41261,1.41261,0,0,1,.20641.713.90547.90547,0,0,1-.25642.663.98084.98084,0,0,1-.7193.25644h-6.05447a2.651,2.651,0,0,1-1.43856-.35652A4.13107,4.13107,0,0,1,349.58,105.0343l-5.54159-8.19357a2.33406,2.33406,0,0,1-.46284-.99448,9.20247,9.20247,0,0,1-.10005-1.60119V90.1733a1.61762,1.61762,0,0,1,.33151-1.11957,1.54277,1.54277,0,0,1,1.15709-.35652h1.02577a5.25049,5.25049,0,0,0,3.415-1.19464,3.64162,3.64162,0,0,0,1.4636-2.92716,3.99829,3.99829,0,0,0-1.33224-3.12731,4.89453,4.89453,0,0,0-3.38374-1.19464h-6.82378v24.83088a1.51027,1.51027,0,0,1-.35652,1.1446,1.62476,1.62476,0,0,1-1.12582.33149h-5.07876a1.53794,1.53794,0,0,1-1.07578-.33149,1.51044,1.51044,0,0,1-.35652-1.1446V74.59927a1.68608,1.68608,0,0,1,.30647-1.11958,1.44383,1.44383,0,0,1,1.12583-.35651H345.696a20.118,20.118,0,0,1,6.23585.76306,10.289,10.289,0,0,1,3.97793,2.4956,9.01836,9.01836,0,0,1,2.20791,3.45881,12.98823,12.98823,0,0,1,.7693,4.52836,9.95878,9.95878,0,0,1-1.07578,4.60341,11.53986,11.53986,0,0,1-2.72074,3.53386,9.79108,9.79108,0,0,1-3.33373,1.98271ZM321.847,73.12318a1.2685,1.2685,0,0,1,1.50734,1.4761V78.8149a1.58742,1.58742,0,0,1-.33773,1.11958,1.56608,1.56608,0,0,1-1.16961.35652h-7.93087v24.79335a1.48576,1.48576,0,0,1-.36278,1.1446,1.66062,1.66062,0,0,1-1.13835.33149h-5.13506a1.64973,1.64973,0,0,1-1.13835-.33149,1.48576,1.48576,0,0,1-.36278-1.1446V80.291h-7.98717a1.26851,1.26851,0,0,1-1.50735-1.4761V74.59928a1.58747,1.58747,0,0,1,.33773-1.11958,1.56609,1.56609,0,0,1,1.16962-.35652ZM289.12272,96.66561a8.74764,8.74764,0,0,1-1.94519,5.59789,12.74739,12.74739,0,0,1-5.04749,3.7653,16.00786,16.00786,0,0,1-6.32968,1.326,17.12612,17.12612,0,0,1-6.436-1.26969,12.625,12.625,0,0,1-5.22886-3.87161,9.88035,9.88035,0,0,1-2.07654-6.361V83.83736a9.85622,9.85622,0,0,1,2.07654-6.361,12.625,12.625,0,0,1,5.22886-3.87162,17.005,17.005,0,0,1,6.436-1.26968,17.50526,17.50526,0,0,1,6.20458,1.09456,12.14287,12.14287,0,0,1,4.87235,3.28368A9.0942,9.0942,0,0,1,289.1352,82.011a1.57312,1.57312,0,0,1-.33152,1.19464,2.02753,2.02753,0,0,1-1.25718.28145h-4.92239a1.04691,1.04691,0,0,1-.76931-.25644,2.10858,2.10858,0,0,1-.43783-.663,6.48482,6.48482,0,0,0-.33152-.663,4.949,4.949,0,0,0-2.02649-1.85762,7.55967,7.55967,0,0,0-3.25242-.58794,6.0994,6.0994,0,0,0-4.12806,1.351,4.67159,4.67159,0,0,0-1.56365,3.74027V95.13948a4.6716,4.6716,0,0,0,1.56365,3.74027,6.0994,6.0994,0,0,0,4.12806,1.351,6.97025,6.97025,0,0,0,3.6402-.86314,3.63082,3.63082,0,0,0,1.745-2.59567,4.83436,4.83436,0,0,1,.38153-1.401,1.03467,1.03467,0,0,1,1.00072-.43157h5.02249a1.503,1.503,0,0,1,1.17587.40655A1.97316,1.97316,0,0,1,289.12272,96.66561Zm-37.28387,2.77706a1.4875,1.4875,0,0,1,1.13209.35652,1.6073,1.6073,0,0,1,.32523,1.11957v4.16559a1.618,1.618,0,0,1-.32523,1.11957,1.4875,1.4875,0,0,1-1.13209.35652H229.28466a1.4875,1.4875,0,0,1-1.13209-.35652,1.60735,1.60735,0,0,1-.32523-1.11957V74.59928a1.61807,1.61807,0,0,1,.32523-1.11958,1.4875,1.4875,0,0,1,1.13209-.35652H250.982a1.4875,1.4875,0,0,1,1.13209.35652,1.60731,1.60731,0,0,1,.32523,1.11958V78.8149a1.618,1.618,0,0,1-.32523,1.11958,1.4875,1.4875,0,0,1-1.13209.35652H235.777v5.53535h13.49124a1.4875,1.4875,0,0,1,1.13209.35652,1.60734,1.60734,0,0,1,.32523,1.11957v3.96543a1.61807,1.61807,0,0,1-.32523,1.11958,1.4875,1.4875,0,0,1-1.13209.35652H235.777v6.705h16.06188Zm-46.303-9.60086a5.79331,5.79331,0,0,0,4.15308-1.351,4.49835,4.49835,0,0,0,1.41979-3.39626,4.5565,4.5565,0,0,0-1.39478-3.47133,5.82829,5.82829,0,0,0-4.17809-1.326h-4.77855v9.54456Zm.19389-16.71863q6.41724,0,9.87607,3.20237a11.12775,11.12775,0,0,1,3.45881,8.58761,11.01212,11.01212,0,0,1-3.49008,8.56259q-3.49008,3.18048-9.90107,3.17735h-4.88487v8.4375a1.51032,1.51032,0,0,1-.35651,1.1446,1.61784,1.61784,0,0,1-1.11959.33149h-5.035a1.61781,1.61781,0,0,1-1.11958-.33149,1.51027,1.51027,0,0,1-.35652-1.1446V74.60553a1.61779,1.61779,0,0,1,.33149-1.11958,1.51029,1.51029,0,0,1,1.14459-.35651h11.45225ZM174.24391,87.14606a29.61016,29.61016,0,0,1,4.50334,1.6825,8.1439,8.1439,0,0,1,4.49708,7.8433,9.28745,9.28745,0,0,1-3.69022,7.96841q-3.6965,2.72076-9.76347,2.72076a17.23127,17.23127,0,0,1-6.4235-1.24467,12.55325,12.55325,0,0,1-5.16007-3.71525,8.90381,8.90381,0,0,1-2.0265-5.82931,1.558,1.558,0,0,1,.30648-1.1446,1.74822,1.74822,0,0,1,1.16335-.28146h4.90989a2.69885,2.69885,0,0,1,1.3635.25644c.26895.16888.41907.56292.4566,1.16962a3.80382,3.80382,0,0,0,.96321,2.089,4.08119,4.08119,0,0,0,2.05152,1.26969,10.05728,10.05728,0,0,0,2.9084.40655,7.45781,7.45781,0,0,0,3.6402-.738,2.8484,2.8484,0,0,0,1.31348-2.72077,2.19711,2.19711,0,0,0-1.31348-2.08905,19.96762,19.96762,0,0,0-4.14682-1.326q-2.53314-.60982-3.34-.86315a28.32645,28.32645,0,0,1-5.13505-2.089,9.55094,9.55094,0,0,1-3.365-3.05226,9.7608,9.7608,0,0,1,.38152-10.38895,10.6223,10.6223,0,0,1,4.50334-3.40877,17.933,17.933,0,0,1,6.09827-1.326,19.63088,19.63088,0,0,1,6.47354,1.06955,11.82975,11.82975,0,0,1,5.035,3.23364,7.72479,7.72479,0,0,1,1.94518,5.37273,1.685,1.685,0,0,1-.2752,1.16961,1.88053,1.88053,0,0,1-1.18838.25644h-4.95991a1.03554,1.03554,0,0,1-.80686-.28145,1.94712,1.94712,0,0,1-.38152-.638c-.08131-.23768-.14386-.38778-.17513-.45658a4.61079,4.61079,0,0,0-1.06329-1.52613,4.6811,4.6811,0,0,0-1.89516-1.01951,8.338,8.338,0,0,0-2.40177-.35652,6.64175,6.64175,0,0,0-3.0335.713,2.35,2.35,0,0,0-1.41355,2.23916q0,1.57616,2.05151,2.54563a34.41337,34.41337,0,0,0,5.38523,1.88264A8.79532,8.79532,0,0,1,174.24391,87.14606Z"></path></g><path class="cls-10" d="M181.1268,152.53575a12.61748,12.61748,0,0,1-5.01442,3.76722,15.791,15.791,0,0,1-6.28763,1.32371,16.83941,16.83941,0,0,1-6.38939-1.27283,12.53664,12.53664,0,0,1-5.19231-3.869,9.91081,9.91081,0,0,1-2.06248-6.36376V134.10633a9.91081,9.91081,0,0,1,2.06248-6.36376,12.54418,12.54418,0,0,1,5.19231-3.86937,16.83894,16.83894,0,0,1,6.38939-1.27245,17.31423,17.31423,0,0,1,6.16023,1.09455,11.98771,11.98771,0,0,1,4.83652,3.28365,9.12785,9.12785,0,0,1,2.23959,5.29446,1.57161,1.57161,0,0,1-.33092,1.19631,2.00389,2.00389,0,0,1-1.24681.28h-4.88779a1.03461,1.03461,0,0,1-.76362-.25441,2.11685,2.11685,0,0,1-.43269-.66185,6.05712,6.05712,0,0,0-.33093-.66186,5.00622,5.00622,0,0,0-2.01043-1.85817,7.44808,7.44808,0,0,0-3.23315-.58534,6.02994,6.02994,0,0,0-4.09853,1.349,4.69443,4.69443,0,0,0-1.5521,3.742v10.5893a4.69278,4.69278,0,0,0,1.5521,3.742,6.026,6.026,0,0,0,4.09853,1.349,6.86485,6.86485,0,0,0,3.61457-.86538,3.62319,3.62319,0,0,0,1.73077-2.59654,4.78873,4.78873,0,0,1,.3822-1.39984,1.01925,1.01925,0,0,1,.99278-.4327h4.98878a1.48777,1.48777,0,0,1,1.17146.40706,1.99745,1.99745,0,0,1,.35578,1.32371A8.77227,8.77227,0,0,1,181.1268,152.53575Z"></path><path class="cls-10" d="M216.78933,150.09186a1.61114,1.61114,0,0,1,.33093,1.12018v4.17467a1.608,1.608,0,0,1-.33093,1.11979,1.51721,1.51721,0,0,1-1.14581.35656H194.4649a1.51287,1.51287,0,0,1-1.145-.35656,1.60046,1.60046,0,0,1-.33093-1.11979v-30.546a1.51783,1.51783,0,0,1,.35579-1.14543,1.60735,1.60735,0,0,1,1.12018-.33093H199.505a1.606,1.606,0,0,1,1.12018.33093,1.52094,1.52094,0,0,1,.35657,1.14543v24.895h14.66182A1.522,1.522,0,0,1,216.78933,150.09186Z"></path><path class="cls-10" d="M252.31628,153.11033a12.515,12.515,0,0,1-5.21872,3.869,16.89338,16.89338,0,0,1-12.80365.02563,12.0718,12.0718,0,0,1-5.16744-3.86937,10.0977,10.0977,0,0,1-2.03684-6.389V134.73179a10.10188,10.10188,0,0,1,2.03684-6.3894,12.08645,12.08645,0,0,1,5.16744-3.869,16.89585,16.89585,0,0,1,12.80365.02525,12.52231,12.52231,0,0,1,5.21872,3.86937,9.91471,9.91471,0,0,1,2.0617,6.36376v12.01478A9.91469,9.91469,0,0,1,252.31628,153.11033Zm-7.50958-21.43341a6.05351,6.05351,0,0,0-4.12339-1.3742,5.95336,5.95336,0,0,0-4.09854,1.3742,4.77332,4.77332,0,0,0-1.55287,3.76761v10.58931a4.77081,4.77081,0,0,0,1.55287,3.76721,5.95356,5.95356,0,0,0,4.09854,1.3746,6.05371,6.05371,0,0,0,4.12339-1.3746,4.73606,4.73606,0,0,0,1.57851-3.76721V135.44453A4.73853,4.73853,0,0,0,244.8067,131.67692Z"></path><path class="cls-10" d="M289.78845,124.32077a1.521,1.521,0,0,1,.35657,1.14543v21.78958a9.55167,9.55167,0,0,1-2.01121,6.23636,11.68659,11.68659,0,0,1-5.09054,3.61458,18.19069,18.19069,0,0,1-6.3894,1.14543,17.97213,17.97213,0,0,1-6.36376-1.14543,11.701,11.701,0,0,1-5.06568-3.61458,9.55172,9.55172,0,0,1-2.0112-6.23636V125.4662a1.51779,1.51779,0,0,1,.35656-1.14543,1.606,1.606,0,0,1,1.12018-.33093H269.73a1.60738,1.60738,0,0,1,1.12019.33093,1.521,1.521,0,0,1,.35656,1.14543v20.6694a4.77492,4.77492,0,0,0,1.45033,3.71634,5.70628,5.70628,0,0,0,3.99677,1.32371,5.8026,5.8026,0,0,0,4.02163-1.32371,4.73252,4.73252,0,0,0,1.47675-3.71634V125.4662a1.51468,1.51468,0,0,1,.35656-1.14543,1.60388,1.60388,0,0,1,1.11941-.33093h5.04005A1.606,1.606,0,0,1,289.78845,124.32077Z"></path><path class="cls-10" d="M317.44563,124.63682a12.51989,12.51989,0,0,1,5.21794,3.86937,9.8329,9.8329,0,0,1,2.0617,6.31288v10.5893a9.9103,9.9103,0,0,1-2.0617,6.36376,12.31807,12.31807,0,0,1-5.21794,3.84374,17.31708,17.31708,0,0,1-6.415,1.24719H299.62679a1.51287,1.51287,0,0,1-1.145-.35656,1.60046,1.60046,0,0,1-.33093-1.11979v-30.546a1.60287,1.60287,0,0,1,.33093-1.12018,1.51759,1.51759,0,0,1,1.145-.35618H311.0306A17.03464,17.03464,0,0,1,317.44563,124.63682Zm-2.29086,7.153a6.13133,6.13133,0,0,0-4.12417-1.349h-4.887v19.3457h4.887a6.10384,6.10384,0,0,0,4.149-1.349,4.69332,4.69332,0,0,0,1.55287-3.742V135.5318A4.66313,4.66313,0,0,0,315.15477,131.78983Z"></path></g></svg> 