<svg xmlns="http://www.w3.org/2000/svg" viewBox="0 0 247 50"><svg xmlns="http://www.w3.org/2000/svg" height="50" viewBox="0 0 200 140" preserveAspectRatio="xMidYMid meet" width="70" x="0"><path d="M166.096 71.4542C165.51 82.4278 162.217 93.3718 156.61 102.83C147.219 118.676 131.485 131.052 111.486 134.805C101.502 136.597 94.2404 136.37 86.0852 135.119C80.2022 133.809 76.4985 129.03 80.4486 123.35C85.2888 116.387 92.1491 111.812 98.9966 107.236C118.97 93.8886 140.186 82.7323 161.598 71.9215C163.992 70.7146 166.264 68.3269 166.096 71.4542Z" fill="#A13974"></path><path d="M180.306 45.8493C185.336 41.8702 190.195 36.7584 193.637 31.2819L193.643 31.2778L193.649 31.2736C197.437 25.2428 195.286 19.7977 188.346 18.1471C180.367 16.2482 173.602 17.0129 165.436 18.1471C163.447 18.4233 162.94 18.8517 162.26 19.2813C160.882 20.1512 160.73 22.807 162.714 23.1376C166.344 23.3645 178.236 22.5522 181.088 23.8181C189.214 27.4257 166.978 39.4369 164.056 41.762C162.303 43.1547 161.463 42.9875 160.477 40.7948C152.744 23.6025 140.151 11.412 122.553 4.49034C111.524 0.154092 100.161 -0.838608 88.4221 0.644988C82.0962 1.44416 77.1335 3.18159 71.3216 5.44573C69.405 6.19237 66.8695 7.46422 65.1062 8.4775C60.9731 10.848 57.1692 13.5068 53.707 16.4688C50.6915 19.0487 52.4627 23.6672 56.414 24.0382L129.164 30.8682C132.393 31.1713 133.988 34.9422 131.958 37.4701L91.3821 89.3527C89.9063 91.1902 91.7907 94.2202 93.9788 93.3445C110.486 86.7196 126.534 78.6799 142.423 70.6907C155.673 64.0281 168.705 55.0251 180.306 45.8493Z" fill="#FB5B62"></path><path fill-rule="evenodd" clip-rule="evenodd" d="M104.73 50.2846C107.32 47.5099 105.039 43.0137 101.27 43.465L35.3704 51.3574C33.3771 51.5961 31.7184 53.0327 31.3161 54.9994C28.7818 67.3874 29.7928 79.8632 34.5611 92.3506C36.3467 97.0287 36.4586 97.1634 31.6384 97.7561C31.0099 97.8333 30.3801 97.9186 29.7493 98.0042C26.1152 98.4968 22.447 98.9941 18.7905 97.9561C9.95196 95.4383 23.5461 87.0659 24.5725 83.4884C25.3304 80.8466 21.7396 79.8571 19.4945 81.4426C12.3004 86.5231 5.4514 92.452 1.20434 100.292C0.296773 102.107 0.40903 104.377 0.750489 105.604C3.26522 114.639 22.7348 112.999 29.1492 111.847C37.5543 110.338 43.6231 109.79 51.7893 107.295C54.0165 106.614 54.0577 106.388 57.4603 102.882C74.7001 86.8794 90.4768 65.0613 104.73 50.2846Z" fill="#EFA16D"></path></svg><svg xmlns="http://www.w3.org/2000/svg" width="22" height="50" viewBox="0 0 22 50" fill="none" x="70"><path d="M19.6264 0.0136719H21.8139L2.31781 49.0137H-0.000549316L19.6264 0.0136719Z" fill="#4A4863" fill-opacity="0.3"></path></svg><svg width="155" height="50" viewBox="0 0 155 43" fill="none" xmlns="http://www.w3.org/2000/svg" x="92"><path d="M113.503 34.4422C107.321 34.4422 102.09 29.5675 102.09 22.4731C102.09 15.3786 107.321 10.5039 113.503 10.5039C115.751 10.5039 117.912 11.1568 119.512 12.4625C119.425 10.678 119.382 8.85 119.382 6.93494V0.362793H126.212V34.007H120.16L120.117 31.9178C118.561 33.5717 116.053 34.4422 113.503 34.4422ZM108.921 22.4731C108.921 25.955 111.255 28.1747 114.411 28.1747C117.523 28.1747 119.814 25.955 119.814 22.4731C119.814 18.9911 117.523 16.7714 114.411 16.7714C111.255 16.7714 108.921 18.9911 108.921 22.4731Z" fill="#4A4863"></path><path d="M143.225 34.4422C140.674 34.4422 138.167 33.5717 136.61 31.9178L136.567 34.007H130.515V0.362793H137.345V6.54322C137.345 8.45829 137.302 10.5474 137.216 12.4625C138.772 11.1568 140.977 10.5039 143.225 10.5039C149.406 10.5039 154.637 15.3786 154.637 22.4731C154.637 29.5675 149.406 34.4422 143.225 34.4422ZM136.913 22.4731C136.913 25.955 139.204 28.1747 142.317 28.1747C145.473 28.1747 147.807 25.955 147.807 22.4731C147.807 18.9911 145.473 16.7714 142.317 16.7714C139.204 16.7714 136.913 18.9911 136.913 22.4731Z" fill="#4A4863"></path><path d="M5.39365 34.295C4.28081 34.295 2.65436 34.2094 0.985107 34.0382V30.571C2.73997 30.785 4.23801 30.8706 5.22244 30.8706C8.13294 30.8706 9.50259 29.9289 9.50259 28.0027C9.50259 26.5901 8.68936 25.5628 6.59209 24.193L5.09404 23.2085C2.14074 21.2823 0.813904 19.4416 0.813904 17.0018C0.813904 13.4061 3.596 11.1802 8.21855 11.1802C9.20298 11.1802 10.4442 11.2659 11.6855 11.4371V14.6047C10.4014 14.4762 9.41698 14.4334 8.77496 14.4334C6.07847 14.4334 4.66603 15.3323 4.66603 16.9589C4.66603 18.1575 5.52206 19.0992 7.61933 20.469L9.11738 21.4535C12.1991 23.4653 13.5259 25.3488 13.5259 27.9599C13.5259 31.9408 10.5298 34.295 5.39365 34.295Z" fill="#4A4863"></path><path d="M18.6243 42.5136V11.4371H22.134L22.1768 14.9043C23.7605 12.4644 26.8422 11.009 30.2235 11.009C36.3869 11.009 41.4375 15.846 41.4375 22.7376C41.4375 29.6293 36.3869 34.4663 30.2235 34.4663C27.0562 34.4663 24.1029 33.1393 22.4336 30.9562C22.5192 32.6256 22.562 34.3379 22.562 35.9645V42.5136H18.6243ZM22.2196 22.7376C22.2196 27.9171 25.6009 30.785 29.7099 30.785C34.204 30.785 37.4569 27.4462 37.4569 22.7376C37.4569 17.9863 34.204 14.6475 29.7099 14.6475C25.6009 14.6475 22.2196 17.5582 22.2196 22.7376Z" fill="#4A4863"></path><path d="M46.7746 34.0382V11.4371H50.7123V34.0382H46.7746ZM46.7746 7.37058V1.03541H50.7123V7.37058H46.7746Z" fill="#4A4863"></path><path d="M67.643 34.3379C60.8803 34.3379 56.0438 29.5865 56.0438 22.7804C56.0438 15.9316 60.8803 11.1802 67.643 11.1802C68.713 11.1802 69.9542 11.2659 71.2811 11.4799V15.1183C69.9542 14.9043 68.8414 14.8187 68.071 14.8187C63.1488 14.8187 59.9815 18.1147 59.9815 22.7804C59.9815 27.4034 63.1488 30.6566 68.071 30.6566C68.8414 30.6566 69.9542 30.571 71.2811 30.3998V34.0382C69.9542 34.2522 68.713 34.3379 67.643 34.3379Z" fill="#4A4863"></path><path d="M86.3051 34.4663C79.3712 34.4663 74.7059 29.4581 74.7059 22.8233C74.7059 16.06 79.4996 11.009 86.0482 11.009C91.7836 11.009 96.9198 14.9043 96.7914 23.2513H78.3868C78.6008 27.7031 81.6825 30.9991 86.3478 30.9991C89.6435 30.9991 92.34 29.3725 94.0093 26.6329L96.7486 28.6448C94.7797 31.7267 91.3556 34.4663 86.3051 34.4663ZM78.6008 20.2978H92.9393C92.2116 16.2741 89.3867 14.3478 86.0054 14.3478C82.1961 14.3478 79.414 16.8733 78.6008 20.2978Z" fill="#4A4863"></path></svg></svg>
