<?xml version="1.0" encoding="UTF-8"?>
<!DOCTYPE svg PUBLIC "-//W3C//DTD SVG 1.1//EN" "http://www.w3.org/Graphics/SVG/1.1/DTD/svg11.dtd">
<svg xmlns="http://www.w3.org/2000/svg" version="1.1" width="516px" height="453px" style="shape-rendering:geometricPrecision; text-rendering:geometricPrecision; image-rendering:optimizeQuality; fill-rule:evenodd; clip-rule:evenodd" xmlns:xlink="http://www.w3.org/1999/xlink">
<g><path style="opacity:0.889" fill="#030303" d="M 264.5,-0.5 C 274.167,-0.5 283.833,-0.5 293.5,-0.5C 346.274,12.6449 373.274,46.6449 374.5,101.5C 374.32,111.288 373.153,120.954 371,130.5C 368.493,139.016 365.826,147.349 363,155.5C 367.842,149.957 373.009,144.791 378.5,140C 383.896,135.928 389.896,134.594 396.5,136C 405.331,140.245 413.664,145.245 421.5,151C 442.5,167.333 463.5,183.667 484.5,200C 492.877,202.014 500.877,205.014 508.5,209C 511.291,213.101 512.125,217.601 511,222.5C 509.891,224.815 508.057,226.315 505.5,227C 494.518,228.911 483.518,228.911 472.5,227C 447.495,212.835 423.161,197.668 399.5,181.5C 389.35,190.482 379.35,199.649 369.5,209C 380.131,205.566 390.797,201.9 401.5,198C 405.625,197.146 409.625,197.48 413.5,199C 435.22,220.055 456.887,241.055 478.5,262C 488.997,267.748 499.33,273.748 509.5,280C 512.121,282.114 514.121,284.614 515.5,287.5C 515.5,290.167 515.5,292.833 515.5,295.5C 512.199,299.809 507.699,301.809 502,301.5C 477.589,300.033 456.089,291.533 437.5,276C 425.5,264.667 413.5,253.333 401.5,242C 399.833,241.333 398.167,241.333 396.5,242C 388.5,244.667 380.5,247.333 372.5,250C 378.717,249.936 384.717,250.936 390.5,253C 396.791,260.406 401.958,268.573 406,277.5C 418,304.167 430,330.833 442,357.5C 447,363.167 452,368.833 457,374.5C 459.254,378.007 461.254,381.673 463,385.5C 465.394,394.729 461.894,399.729 452.5,400.5C 440.196,397.704 429.696,391.704 421,382.5C 413.087,371.675 405.42,360.675 398,349.5C 387.367,330.039 376.534,310.706 365.5,291.5C 363.833,291.167 362.167,290.833 360.5,290.5C 351.825,291.501 343.158,292.501 334.5,293.5C 332.892,304.449 332.392,315.449 333,326.5C 340,360.5 347,394.5 354,428.5C 355.275,435.821 354.442,442.821 351.5,449.5C 350.099,450.521 348.765,451.521 347.5,452.5C 344.5,452.5 341.5,452.5 338.5,452.5C 334.939,450.45 331.772,447.783 329,444.5C 325.745,438.992 322.745,433.325 320,427.5C 310.273,401.652 300.939,375.652 292,349.5C 290.193,343.631 289.359,337.631 289.5,331.5C 270.907,339.109 251.574,341.609 231.5,339C 202.401,335.809 180.735,321.642 166.5,296.5C 163.763,297.069 162.263,298.736 162,301.5C 157,321.833 152,342.167 147,362.5C 139.115,379.937 130.448,396.937 121,413.5C 118.117,418.05 114.284,421.55 109.5,424C 96.1195,424.942 90.9529,418.775 94,405.5C 99.928,390.716 105.261,375.716 110,360.5C 113.434,331.363 117.767,302.363 123,273.5C 125.669,268.332 129.502,264.332 134.5,261.5C 128.779,258.871 122.946,256.538 117,254.5C 106.84,268.152 97.1731,282.152 88,296.5C 75.9059,311.265 63.0725,325.431 49.5,339C 43.5822,342.331 37.2489,343.331 30.5,342C 25.5041,339.828 23.1707,335.995 23.5,330.5C 23.2952,327.205 24.1285,324.205 26,321.5C 29.2981,317.2 32.9648,313.2 37,309.5C 45,297.5 53,285.5 61,273.5C 72.0806,253.67 83.414,234.003 95,214.5C 99.5628,207.91 105.729,205.744 113.5,208C 108.667,203.167 103.833,198.333 99,193.5C 88.2012,202.63 77.7012,212.13 67.5,222C 53.8489,232.832 39.1823,242.165 23.5,250C 17.4853,251.942 11.4853,251.942 5.5,250C 2.97739,248.64 0.977392,246.807 -0.5,244.5C -0.5,241.5 -0.5,238.5 -0.5,235.5C 8.99362,225.513 19.327,216.347 30.5,208C 49.802,186.364 70.1354,165.698 91.5,146C 95.7109,144.466 100.044,144.133 104.5,145C 112.256,148.625 119.423,153.125 126,158.5C 119.051,147.948 113.051,136.614 108,124.5C 105.26,106.239 113.094,98.0723 131.5,100C 136.964,101.814 141.464,104.98 145,109.5C 155.333,123.5 165.667,137.5 176,151.5C 175.717,144.837 175.05,138.17 174,131.5C 173.333,117.5 173.333,103.5 174,89.5C 180.222,48.9473 202.388,21.1139 240.5,6C 248.486,3.2744 256.486,1.10773 264.5,-0.5 Z"/></g>
<g><path style="opacity:1" fill="#606468" d="M 313.5,211.5 C 312.71,212.401 311.71,213.068 310.5,213.5C 297.425,194.29 279.092,184.457 255.5,184C 234.919,182.692 217.586,189.525 203.5,204.5C 200.373,197.582 196.706,190.916 192.5,184.5C 193.043,184.44 193.376,184.107 193.5,183.5C 179.323,150.403 175.157,116.07 181,80.5C 193.928,37.2457 222.761,12.079 267.5,5C 314.548,3.09445 346.715,23.9278 364,67.5C 370.947,93.9209 369.614,119.921 360,145.5C 348.683,170.475 333.183,192.475 313.5,211.5 Z"/></g>
<g><path style="opacity:1" fill="#fab611" d="M 313.5,18.5 C 314.586,18.62 315.253,19.2867 315.5,20.5C 314.946,22.6096 314.112,24.6096 313,26.5C 300.582,46.069 288.415,65.7357 276.5,85.5C 275.5,85.8333 274.833,86.5 274.5,87.5C 271.927,88.5552 269.261,88.7218 266.5,88C 265.483,86.9505 265.316,85.7839 266,84.5C 282.578,63.0002 298.411,41.0002 313.5,18.5 Z"/></g>
<g><path style="opacity:1" fill="#fcc72a" d="M 313.5,18.5 C 298.411,41.0002 282.578,63.0002 266,84.5C 265.316,85.7839 265.483,86.9505 266.5,88C 269.261,88.7218 271.927,88.5552 274.5,87.5C 291.659,88.4967 308.992,88.83 326.5,88.5C 327.167,88.5 327.5,88.8333 327.5,89.5C 325.345,89.372 323.345,89.872 321.5,91C 287.133,123.036 252.466,154.702 217.5,186C 216.563,186.692 215.897,186.525 215.5,185.5C 228.514,161.977 242.18,138.81 256.5,116C 238.329,115.832 220.329,115.332 202.5,114.5C 220.836,114.667 239.17,114.5 257.5,114C 258.423,111.959 258.756,109.792 258.5,107.5C 240.503,107.967 222.503,108.3 204.5,108.5C 208.515,104.487 212.848,100.821 217.5,97.5C 219.035,96.6457 220.368,96.6457 221.5,97.5C 218.746,99.0528 217.913,101.386 219,104.5C 221.064,105.591 223.231,105.758 225.5,105C 244.333,86.8333 263.167,68.6667 282,50.5C 282.483,49.552 282.649,48.552 282.5,47.5C 281.5,47.5 280.5,47.5 279.5,47.5C 280.167,46.5 280.833,45.5 281.5,44.5C 291.424,34.8776 302.091,26.2109 313.5,18.5 Z"/></g>
<g><path style="opacity:1" fill="#ffe363" d="M 279.5,47.5 C 280.5,47.5 281.5,47.5 282.5,47.5C 282.649,48.552 282.483,49.552 282,50.5C 263.167,68.6667 244.333,86.8333 225.5,105C 223.231,105.758 221.064,105.591 219,104.5C 217.913,101.386 218.746,99.0528 221.5,97.5C 241.204,81.1197 260.537,64.453 279.5,47.5 Z"/></g>
<g><path style="opacity:1" fill="#f5c438" d="M 281.5,44.5 C 280.833,45.5 280.167,46.5 279.5,47.5C 260.537,64.453 241.204,81.1197 221.5,97.5C 220.368,96.6457 219.035,96.6457 217.5,97.5C 238.245,79.0856 259.578,61.4189 281.5,44.5 Z"/></g>
<g><path style="opacity:1" fill="#97835e" d="M 276.5,85.5 C 292.975,87.162 309.642,88.162 326.5,88.5C 308.992,88.83 291.659,88.4967 274.5,87.5C 274.833,86.5 275.5,85.8333 276.5,85.5 Z"/></g>
<g><path style="opacity:1" fill="#f8b516" d="M 327.5,89.5 C 329.273,90.3143 329.773,91.6476 329,93.5C 294.091,125.08 258.591,155.913 222.5,186C 220.294,188.346 217.794,188.846 215,187.5C 214.308,186.563 214.475,185.897 215.5,185.5C 215.897,186.525 216.563,186.692 217.5,186C 252.466,154.702 287.133,123.036 321.5,91C 323.345,89.872 325.345,89.372 327.5,89.5 Z"/></g>
<g><path style="opacity:1" fill="#848484" d="M 192.5,184.5 C 196.706,190.916 200.373,197.582 203.5,204.5C 203.5,204.833 203.5,205.167 203.5,205.5C 179.614,216.047 166.948,234.547 165.5,261C 165.881,270.239 167.548,279.239 170.5,288C 169.944,289.011 169.278,289.844 168.5,290.5C 162.948,290.186 159.115,292.519 157,297.5C 151.844,317.791 146.844,338.125 142,358.5C 133.814,378.543 123.814,397.543 112,415.5C 103.414,420.902 99.0802,418.568 99,408.5C 105.265,392.705 110.932,376.705 116,360.5C 118.855,332.329 122.855,304.329 128,276.5C 129.449,273.384 131.616,270.884 134.5,269C 139.341,266.079 144.341,263.412 149.5,261C 137.991,255.386 125.991,251.386 113.5,249C 102.544,264.413 91.7102,279.913 81,295.5C 70.1851,308.283 59.0185,320.783 47.5,333C 43.354,336.203 38.6874,337.536 33.5,337C 32.0692,336.535 30.9025,335.701 30,334.5C 29.3333,331.833 29.3333,329.167 30,326.5C 42.2215,312.388 53.2215,297.388 63,281.5C 74.1725,263.159 84.8392,244.492 95,225.5C 97.4476,221.385 100.281,217.552 103.5,214C 108.669,213.271 113.669,213.938 118.5,216C 127.944,219.734 137.277,223.401 146.5,227C 132.417,216.276 119.084,204.609 106.5,192C 104.252,190.086 101.752,188.586 99,187.5C 94.2961,189.536 90.1295,192.369 86.5,196C 66.9507,216.227 44.6173,232.56 19.5,245C 3.19684,246.072 0.863508,241.072 12.5,230C 28.9438,217.889 43.7772,204.056 57,188.5C 69.8622,175.304 83.0289,162.47 96.5,150C 98.9129,149.516 101.246,149.85 103.5,151C 124.525,163.678 143.525,179.012 160.5,197C 161.167,197.667 161.833,197.667 162.5,197C 151.387,180.887 139.887,165.053 128,149.5C 122.573,141.652 117.906,133.318 114,124.5C 110.647,110.517 116.147,104.351 130.5,106C 134.916,108.412 138.749,111.578 142,115.5C 158.843,138.529 175.676,161.529 192.5,184.5 Z"/></g>
<g><path style="opacity:1" fill="#fdb806" d="M 202.5,114.5 C 201.007,111.887 201.674,109.887 204.5,108.5C 222.503,108.3 240.503,107.967 258.5,107.5C 258.756,109.792 258.423,111.959 257.5,114C 239.17,114.5 220.836,114.667 202.5,114.5 Z"/></g>
<g><path style="opacity:1" fill="#ffe263" d="M 267.5,109.5 C 269.167,109.5 270.833,109.5 272.5,109.5C 272.662,111.527 272.495,113.527 272,115.5C 261.09,129.655 250.423,143.988 240,158.5C 238.736,160.607 236.903,161.607 234.5,161.5C 234.343,160.127 234.51,158.793 235,157.5C 245.609,141.261 256.442,125.261 267.5,109.5 Z"/></g>
<g><path style="opacity:1" fill="#848484" d="M 343.5,254.5 C 342.527,254.987 341.527,255.487 340.5,256C 346.349,256.818 352.015,256.652 357.5,255.5C 366.884,255.184 376.218,255.684 385.5,257C 393.043,265.907 399.209,275.74 404,286.5C 415,311.167 426,335.833 437,360.5C 444.047,368.545 450.713,376.878 457,385.5C 457.667,387.833 457.667,390.167 457,392.5C 453.38,394.907 449.547,395.073 445.5,393C 437.479,388.649 430.312,383.149 424,376.5C 404.614,349.739 387.614,321.406 373,291.5C 371.542,289.04 369.709,286.873 367.5,285C 354.79,285.467 342.123,286.634 329.5,288.5C 327.276,301.077 326.442,313.744 327,326.5C 334.462,361.475 341.795,396.475 349,431.5C 350.052,436.735 349.219,441.568 346.5,446C 343.366,446.79 340.366,446.457 337.5,445C 332.54,439.589 328.706,433.422 326,426.5C 316.47,400.91 307.136,375.243 298,349.5C 295.521,340.334 294.354,331 294.5,321.5C 322.814,297.717 331.648,268.051 321,232.5C 318.563,226.608 315.396,221.274 311.5,216.5C 311.443,215.391 311.11,214.391 310.5,213.5C 311.71,213.068 312.71,212.401 313.5,211.5C 314.922,211.291 316.255,210.791 317.5,210C 337.805,188.695 358.471,167.695 379.5,147C 383.058,144.054 387.058,141.887 391.5,140.5C 401.619,144.724 410.952,150.224 419.5,157C 439.213,173.048 459.213,188.715 479.5,204C 485.284,206.614 491.284,208.614 497.5,210C 500.759,211.211 503.592,213.044 506,215.5C 506.926,219.253 505.426,221.42 501.5,222C 492.833,222.667 484.167,222.667 475.5,222C 451.493,208.334 428.159,193.667 405.5,178C 402.783,175.924 399.783,175.257 396.5,176C 392.5,179.333 388.5,182.667 384.5,186C 371.167,198.667 357.833,211.333 344.5,224C 363.348,218.159 382.015,211.493 400.5,204C 403.5,203.333 406.5,203.333 409.5,204C 413.5,207.333 417.5,210.667 421.5,214C 439.198,233.365 457.865,251.698 477.5,269C 486.984,273.239 495.984,278.239 504.5,284C 507.284,286.112 509.284,288.779 510.5,292C 510.18,293.653 509.18,294.653 507.5,295C 490.592,295.44 474.592,291.774 459.5,284C 441.723,272.236 425.723,258.236 411.5,242C 408.833,240 406.167,238 403.5,236C 399.764,235.39 396.097,235.723 392.5,237C 376.029,242.545 359.696,248.378 343.5,254.5 Z"/></g>
<g><path style="opacity:1" fill="#4e4d50" d="M 310.5,213.5 C 311.11,214.391 311.443,215.391 311.5,216.5C 311.565,216.938 311.399,217.272 311,217.5C 286.29,199.781 258.79,192.948 228.5,197C 219.957,199.348 211.623,202.181 203.5,205.5C 203.5,205.167 203.5,204.833 203.5,204.5C 217.586,189.525 234.919,182.692 255.5,184C 279.092,184.457 297.425,194.29 310.5,213.5 Z"/></g>
<g><path style="opacity:1" fill="#606468" d="M 311.5,216.5 C 315.396,221.274 318.563,226.608 321,232.5C 331.648,268.051 322.814,297.717 294.5,321.5C 266.456,336.751 237.456,338.584 207.5,327C 191,319.833 179.167,308 172,291.5C 170.989,290.663 169.822,290.33 168.5,290.5C 169.278,289.844 169.944,289.011 170.5,288C 167.548,279.239 165.881,270.239 165.5,261C 166.948,234.547 179.614,216.047 203.5,205.5C 211.623,202.181 219.957,199.348 228.5,197C 258.79,192.948 286.29,199.781 311,217.5C 311.399,217.272 311.565,216.938 311.5,216.5 Z"/></g>
<g><path style="opacity:1" fill="#0a0907" d="M 186.5,227.5 C 194.535,227.034 198.535,230.867 198.5,239C 198.753,244.682 196.753,249.348 192.5,253C 183.25,255.938 178.583,252.438 178.5,242.5C 178.835,236.158 181.502,231.158 186.5,227.5 Z"/></g>
<g><path style="opacity:1" fill="#878787" d="M 191.5,233.5 C 192.833,233.5 194.167,233.5 195.5,233.5C 195.5,234.833 195.5,236.167 195.5,237.5C 194.167,237.5 192.833,237.5 191.5,237.5C 191.5,236.167 191.5,234.833 191.5,233.5 Z"/></g>
<g><path style="opacity:1" fill="#080705" d="M 211.5,238.5 C 221.238,237.113 227.405,241.113 230,250.5C 231.668,260.527 228.168,268.027 219.5,273C 209.754,274.879 203.587,271.045 201,261.5C 199.139,251.231 202.639,243.564 211.5,238.5 Z"/></g>
<g><path style="opacity:1" fill="#0a0907" d="M 292.5,241.5 C 303.451,242.333 307.951,248.333 306,259.5C 302.11,269.305 296.443,270.638 289,263.5C 286.657,258.398 285.99,253.064 287,247.5C 288.36,244.977 290.193,242.977 292.5,241.5 Z"/></g>
<g><path style="opacity:1" fill="#080705" d="M 262.5,244.5 C 276.743,244.917 282.91,252.25 281,266.5C 277.902,278.31 270.735,282.143 259.5,278C 248.15,265.634 249.15,254.468 262.5,244.5 Z"/></g>
<g><path style="opacity:1" fill="#808080" d="M 297.5,245.5 C 298.833,245.5 300.167,245.5 301.5,245.5C 301.5,246.833 301.5,248.167 301.5,249.5C 300.167,249.5 298.833,249.5 297.5,249.5C 297.5,248.167 297.5,246.833 297.5,245.5 Z"/></g>
<g><path style="opacity:1" fill="#808080" d="M 222.5,246.5 C 223.833,246.5 225.167,246.5 226.5,246.5C 226.5,247.833 226.5,249.167 226.5,250.5C 225.167,250.5 223.833,250.5 222.5,250.5C 222.5,249.167 222.5,247.833 222.5,246.5 Z"/></g>
<g><path style="opacity:1" fill="#808080" d="M 271.5,252.5 C 272.833,252.5 274.167,252.5 275.5,252.5C 275.5,253.833 275.5,255.167 275.5,256.5C 274.167,256.5 272.833,256.5 271.5,256.5C 271.5,255.167 271.5,253.833 271.5,252.5 Z"/></g>
<g><path style="opacity:1" fill="#585858" d="M 343.5,254.5 C 347.97,255.486 352.637,255.819 357.5,255.5C 352.015,256.652 346.349,256.818 340.5,256C 341.527,255.487 342.527,254.987 343.5,254.5 Z"/></g>
<g><path style="opacity:1" fill="#030303" d="M 226.5,287.5 C 235.653,288.589 244.986,289.256 254.5,289.5C 253.949,292.807 253.616,296.14 253.5,299.5C 252.476,303.362 250.143,306.195 246.5,308C 236.593,312.327 227.76,310.827 220,303.5C 219.324,298.129 219.491,292.796 220.5,287.5C 222.5,287.5 224.5,287.5 226.5,287.5 Z"/></g>
<g><path style="opacity:1" fill="#383a3d" d="M 226.5,287.5 C 236.183,287.468 245.849,287.801 255.5,288.5C 255.884,292.489 255.217,296.155 253.5,299.5C 253.616,296.14 253.949,292.807 254.5,289.5C 244.986,289.256 235.653,288.589 226.5,287.5 Z"/></g>
</svg>
