<?xml version="1.0" encoding="UTF-8" standalone="no"?>
<!-- Created with Inkscape (http://www.inkscape.org/) -->

<svg
   version="1.1"
   id="svg1"
   width="400"
   height="151.2"
   viewBox="0 0 400 151.2"
   sodipodi:docname="logo_splunk-corporate_rgb-k.ai"
   xmlns:inkscape="http://www.inkscape.org/namespaces/inkscape"
   xmlns:sodipodi="http://sodipodi.sourceforge.net/DTD/sodipodi-0.dtd"
   xmlns="http://www.w3.org/2000/svg"
   xmlns:svg="http://www.w3.org/2000/svg">
  <defs
     id="defs1">
    <clipPath
       clipPathUnits="userSpaceOnUse"
       id="clipPath2">
      <path
         d="M 0,113.4 H 300 V 0 H 0 Z"
         transform="translate(-299.99971,-18.3507)"
         id="path2" />
    </clipPath>
  </defs>
  <sodipodi:namedview
     id="namedview1"
     pagecolor="#ffffff"
     bordercolor="#000000"
     borderopacity="0.25"
     inkscape:showpageshadow="2"
     inkscape:pageopacity="0.0"
     inkscape:pagecheckerboard="0"
     inkscape:deskcolor="#d1d1d1">
    <inkscape:page
       x="0"
       y="0"
       inkscape:label="1"
       id="page1"
       width="400"
       height="151.2"
       margin="0"
       bleed="0" />
  </sodipodi:namedview>
  <g
     id="layer-MC0"
     inkscape:groupmode="layer"
     inkscape:label="black">
    <path
       id="path1"
       d="m 0,0 -4.646,-13.526 c -0.615,-1.796 -1.207,-3.02 -1.771,-3.671 -0.667,-0.768 -1.533,-1.154 -2.593,-1.154 -0.446,0 -0.975,0.078 -1.59,0.231 v 2.001 c 0.478,-0.119 0.905,-0.179 1.282,-0.179 0.531,0 0.941,0.184 1.233,0.552 0.29,0.369 0.658,1.169 1.103,2.4 H -7.777 L -12.68,0 h 2.668 L -6.238,-11.344 -2.465,0 H 0 Z m -22.742,-13.346 h -2.465 V 0 h 2.028 l 0.281,-1.694 c 0.995,1.386 2.345,2.079 4.057,2.079 1.575,0 2.779,-0.487 3.619,-1.464 0.735,-0.872 1.102,-2.061 1.102,-3.567 v -8.7 h -2.462 v 8.676 c 0,1.966 -0.95,2.949 -2.85,2.949 -0.992,0 -1.805,-0.341 -2.438,-1.025 -0.582,-0.615 -0.873,-1.404 -0.873,-2.36 v -8.24 z m -12.232,1.694 c 1.045,0 1.951,0.341 2.722,1.027 0.684,0.631 1.027,1.36 1.027,2.181 v 1.719 l -3.31,-0.589 c -1.216,-0.206 -2.046,-0.523 -2.492,-0.95 -0.358,-0.344 -0.538,-0.804 -0.538,-1.387 0,-0.651 0.222,-1.147 0.667,-1.488 0.445,-0.343 1.087,-0.513 1.924,-0.513 z m -2.334,7.929 h -2.617 c 0.135,1.336 0.768,2.372 1.897,3.107 1.01,0.667 2.286,1.001 3.825,1.001 1.831,0 3.235,-0.48 4.209,-1.437 0.822,-0.822 1.232,-1.882 1.232,-3.182 v -9.113 h -2.027 l -0.307,1.823 c -1.046,-1.473 -2.534,-2.208 -4.467,-2.208 -1.524,0 -2.713,0.412 -3.567,1.231 -0.702,0.685 -1.052,1.551 -1.052,2.594 0,1.317 0.452,2.336 1.359,3.053 0.804,0.634 2.035,1.096 3.696,1.387 l 3.902,0.668 v 0.667 c 0,0.872 -0.301,1.53 -0.899,1.975 -0.532,0.394 -1.258,0.591 -2.181,0.591 -1.814,0 -2.815,-0.72 -3.003,-2.157 z m -7.361,-2.796 c 0,1.676 -0.421,2.934 -1.258,3.773 -0.667,0.685 -1.539,1.025 -2.618,1.025 -1.249,0 -2.243,-0.451 -2.978,-1.359 -0.702,-0.873 -1.052,-2.02 -1.052,-3.439 0,-1.712 0.419,-3.021 1.258,-3.926 0.702,-0.789 1.625,-1.181 2.772,-1.181 1.283,0 2.259,0.47 2.926,1.411 0.633,0.873 0.95,2.104 0.95,3.696 z M -54.911,0 h 2.028 l 0.386,-1.745 c 1.093,1.42 2.599,2.13 4.517,2.13 1.915,0 3.404,-0.684 4.464,-2.052 0.941,-1.234 1.413,-2.868 1.413,-4.903 0,-2.414 -0.642,-4.26 -1.924,-5.545 -1.079,-1.076 -2.456,-1.617 -4.132,-1.617 -1.9,0 -3.329,0.702 -4.288,2.106 v -6.34 h -2.464 V 0 Z m -20.291,-13.346 h -2.465 V 0 h 2.029 l 0.257,-1.566 c 0.905,1.3 2.214,1.951 3.926,1.951 1.864,0 3.173,-0.702 3.928,-2.106 0.888,1.404 2.334,2.106 4.336,2.106 1.49,0 2.635,-0.454 3.439,-1.359 0.719,-0.84 1.078,-1.987 1.078,-3.442 v -8.93 h -2.462 v 8.751 c 0,1.918 -0.866,2.874 -2.593,2.874 -1.028,0 -1.849,-0.4 -2.465,-1.204 -0.496,-0.651 -0.744,-1.413 -0.744,-2.285 v -8.136 h -2.464 v 8.751 c 0,1.918 -0.864,2.875 -2.591,2.875 -0.959,0 -1.754,-0.377 -2.387,-1.13 -0.547,-0.631 -0.822,-1.393 -0.822,-2.283 z m -15.861,6.674 c 0,-1.712 0.436,-3.021 1.309,-3.928 0.717,-0.753 1.634,-1.13 2.745,-1.13 1.3,0 2.301,0.487 3.003,1.464 0.651,0.89 0.975,2.086 0.975,3.594 0,1.745 -0.428,3.063 -1.283,3.951 -0.702,0.737 -1.607,1.105 -2.721,1.105 -1.282,0 -2.283,-0.487 -3.003,-1.464 -0.684,-0.89 -1.025,-2.088 -1.025,-3.592 z m -2.567,0 c 0,2.445 0.727,4.294 2.181,5.542 1.163,1.01 2.636,1.515 4.414,1.515 2.07,0 3.696,-0.66 4.878,-1.977 1.13,-1.232 1.692,-2.926 1.692,-5.08 0,-2.414 -0.708,-4.254 -2.13,-5.519 -1.163,-1.027 -2.651,-1.541 -4.465,-1.541 -2.07,0 -3.704,0.684 -4.902,2.053 -1.112,1.249 -1.668,2.918 -1.668,5.007 z m -4.571,-2.387 h 2.695 c -0.203,-1.437 -0.881,-2.593 -2.026,-3.466 -1.045,-0.804 -2.319,-1.207 -3.824,-1.207 -1.969,0 -3.535,0.676 -4.697,2.029 -1.079,1.249 -1.617,2.892 -1.617,4.927 0,2.361 0.649,4.192 1.949,5.492 1.114,1.114 2.56,1.669 4.338,1.669 1.643,0 2.994,-0.436 4.057,-1.308 0.939,-0.771 1.512,-1.781 1.718,-3.029 h -2.719 c -0.173,0.719 -0.518,1.275 -1.041,1.667 -0.522,0.394 -1.176,0.591 -1.964,0.591 -1.214,0 -2.146,-0.478 -2.797,-1.437 -0.615,-0.89 -0.923,-2.13 -0.923,-3.722 0,-1.659 0.41,-2.917 1.231,-3.772 0.651,-0.686 1.488,-1.027 2.516,-1.027 0.89,0 1.616,0.257 2.181,0.771 0.496,0.445 0.804,1.051 0.923,1.822 z m -70.574,7.431 -1.341,0.431 c -0.796,0.256 -2.225,0.671 -2.225,1.848 0,0.938 1.054,1.599 3.005,1.599 1.675,0 3.728,-0.573 3.798,-0.597 v 4.152 c -0.146,0.038 -2.368,0.619 -4.735,0.619 -4.483,0 -7.181,-2.444 -7.181,-6.078 0,-3.217 2.266,-4.824 4.963,-5.683 0.303,-0.101 0.745,-0.242 1.044,-0.343 1.2,-0.38 2.162,-0.946 2.162,-1.927 0,-1.108 -1.109,-1.819 -3.53,-1.819 -2.123,0 -4.161,0.613 -4.589,0.721 v -4.476 c 0.243,-0.048 2.663,-0.529 5.245,-0.529 3.718,0 7.974,1.64 7.974,6.526 0,2.365 -1.437,4.548 -4.59,5.556 h -0.001 z m 39.278,-7.134 c -2.886,0 -5.029,2.288 -5.029,5.119 0,2.819 2.144,5.11 5.029,5.11 2.882,0 5.028,-2.291 5.028,-5.11 0,-2.831 -2.146,-5.119 -5.028,-5.119 m 0,15.175 c -5.924,0 -10.17,-4.503 -10.17,-10.055 0,-5.56 4.246,-10.068 10.17,-10.068 5.92,0 10.17,4.508 10.17,10.068 0,5.552 -4.25,10.055 -10.17,10.055 m -80.696,-10.056 c 0,-6.265 4.793,-10.067 10.248,-10.067 2.174,0 3.826,0.516 4.438,0.692 v 5.217 c -0.217,-0.112 -1.802,-1.029 -4.08,-1.029 -3.242,0 -5.329,2.301 -5.329,5.188 0,2.969 2.177,5.187 5.329,5.187 2.319,0 3.878,-0.946 4.08,-1.045 v 5.22 c -0.459,0.136 -2.149,0.693 -4.438,0.693 -5.91,0 -10.248,-4.249 -10.248,-10.055 z m 50.716,0 c 0,-6.265 4.794,-10.067 10.262,-10.067 2.157,0 3.817,0.516 4.428,0.692 v 5.217 c -0.211,-0.112 -1.805,-1.029 -4.083,-1.029 -3.239,0 -5.327,2.301 -5.327,5.188 0,2.969 2.18,5.187 5.327,5.187 2.318,0 3.886,-0.946 4.083,-1.045 v 5.22 c -0.459,0.136 -2.147,0.693 -4.428,0.693 -5.921,0 -10.262,-4.249 -10.262,-10.055 z m -29.35,-9.72 h 4.858 V 6.073 h -4.858 z m -39.652,1.708 c 1.045,0 1.951,0.341 2.721,1.028 0.685,0.631 1.028,1.359 1.028,2.181 v 1.718 l -3.311,-0.589 c -1.216,-0.206 -2.046,-0.523 -2.491,-0.95 -0.359,-0.343 -0.538,-0.804 -0.538,-1.386 0,-0.651 0.221,-1.147 0.666,-1.488 0.445,-0.343 1.087,-0.514 1.924,-0.514 v 0 z m -2.334,7.93 h -2.618 c 0.135,1.336 0.769,2.372 1.898,3.107 1.01,0.666 2.285,1.001 3.824,1.001 1.832,0 3.236,-0.481 4.21,-1.437 0.821,-0.822 1.231,-1.882 1.231,-3.182 v -9.113 h -2.026 l -0.308,1.823 c -1.045,-1.473 -2.533,-2.208 -4.466,-2.208 -1.524,0 -2.713,0.412 -3.568,1.231 -0.702,0.685 -1.052,1.55 -1.052,2.593 0,1.318 0.452,2.337 1.36,3.054 0.804,0.633 2.035,1.096 3.696,1.386 l 3.902,0.669 v 0.666 c 0,0.873 -0.301,1.531 -0.899,1.976 -0.532,0.394 -1.258,0.591 -2.182,0.591 -1.813,0 -2.814,-0.72 -3.002,-2.157 z M 0,47.88 v 7.404 l -36.167,18.15 V 65.307 L -8.139,51.671 -36.167,37.855 V 29.908 Z M -46.492,31.657 -64.67,54.26 -49.297,70.715 -58.34,74.603 -74.341,56.069 h -1.265 V 95.037 H -87.635 V 28.672 h 12.029 v 24.051 l 17.991,-24.955 z m -49.385,-2.973 v 25.67 c 0,1.748 -0.017,3.238 -0.048,4.475 -0.03,1.235 -0.103,2.304 -0.226,3.209 -0.121,0.903 -0.27,1.7 -0.453,2.394 -0.179,0.693 -0.393,1.37 -0.634,2.035 -1.087,2.711 -2.854,4.803 -5.299,6.28 -2.448,1.477 -5.452,2.216 -9.017,2.216 -3.2,0 -6.01,-0.559 -8.425,-1.678 -2.418,-1.115 -4.771,-2.946 -7.068,-5.479 l -0.022,6.055 h -12.03 V 28.684 h 12.03 v 24.393 c 0,2.108 0.075,3.749 0.225,4.924 0.152,1.174 0.439,2.272 0.867,3.298 0.784,1.805 1.982,3.176 3.587,4.109 1.605,0.934 3.53,1.4 5.772,1.4 3.515,0 5.968,-1.265 7.361,-3.794 0.541,-0.963 0.923,-2.05 1.132,-3.253 0.214,-1.204 0.319,-2.951 0.319,-5.239 V 28.684 c 0,0 11.929,0 11.929,0 m -51.443,-0.02 v 45.279 h -11.926 V 49.576 c 0,-2.174 -0.09,-3.849 -0.273,-5.025 -0.183,-1.179 -0.486,-2.25 -0.91,-3.217 -1.694,-3.744 -4.784,-5.615 -9.268,-5.615 -3.513,0 -5.968,1.267 -7.36,3.807 -0.547,0.962 -0.926,2.051 -1.138,3.257 -0.212,1.209 -0.317,2.958 -0.317,5.256 v 25.904 h -11.927 V 48.218 c 0,-1.753 0.015,-3.233 0.047,-4.439 0.029,-1.208 0.105,-2.28 0.225,-3.217 0.121,-0.937 0.257,-1.766 0.409,-2.49 0.15,-0.725 0.376,-1.421 0.68,-2.084 1.085,-2.777 2.851,-4.877 5.297,-6.297 2.448,-1.417 5.452,-2.124 9.014,-2.124 3.201,0 6.009,0.556 8.425,1.673 2.416,1.119 4.771,2.945 7.066,5.481 l 0.03,-6.057 z m -62.868,0.019 h 11.927 V 95.05 h -11.927 z m -17.81,23.118 c 0,4.948 -1.004,8.857 -3.008,11.725 -2.002,2.866 -4.734,4.301 -8.193,4.301 -3.642,0 -6.525,-1.523 -8.649,-4.572 -2.124,-3.049 -3.189,-7.17 -3.189,-12.36 0,-5.071 1.048,-9.055 3.14,-11.95 2.094,-2.9 4.965,-4.345 8.608,-4.345 2.185,0 3.986,0.556 5.417,1.672 1.425,1.118 2.578,2.536 3.459,4.255 0.879,1.719 1.502,3.593 1.865,5.615 0.364,2.021 0.549,3.908 0.55,5.659 m 12.638,0.459 c 0,-3.56 -0.544,-6.831 -1.636,-9.817 -1.088,-2.985 -2.6,-5.593 -4.536,-7.821 -1.938,-2.234 -4.233,-3.968 -6.899,-5.205 -2.661,-1.233 -5.534,-1.851 -8.62,-1.851 -1.391,0 -2.692,0.12 -3.901,0.359 -1.211,0.244 -2.358,0.652 -3.449,1.223 -1.089,0.574 -2.163,1.314 -3.22,2.222 -1.06,0.905 -2.163,2.023 -3.313,3.351 V 6.056 h -11.621 v 67.821 h 11.621 l 0.063,-6.601 c 2.117,2.651 4.409,4.597 6.885,5.834 2.478,1.236 5.346,1.853 8.608,1.853 2.958,0 5.658,-0.559 8.105,-1.675 2.446,-1.113 4.56,-2.668 6.342,-4.657 1.78,-1.992 3.154,-4.373 4.121,-7.148 0.966,-2.774 1.45,-5.847 1.45,-9.223 z m -52.627,-11.112 c 0,-1.993 -0.424,-3.834 -1.267,-5.525 -0.843,-1.692 -2.021,-3.125 -3.528,-4.301 -1.507,-1.177 -3.3,-2.098 -5.379,-2.762 -2.08,-0.663 -4.357,-0.993 -6.829,-0.993 -2.956,0 -5.607,0.404 -7.959,1.214 -2.351,0.811 -4.7,2.15 -7.051,4.014 l 3.888,6.321 c 1.868,-1.565 3.555,-2.711 5.063,-3.434 1.504,-0.724 3.043,-1.083 4.613,-1.083 1.928,0 3.479,0.494 4.655,1.491 1.176,0.996 1.765,2.338 1.765,4.027 0,0.724 -0.107,1.406 -0.317,2.037 -0.21,0.633 -0.602,1.284 -1.175,1.948 -0.571,0.662 -1.353,1.386 -2.347,2.17 -0.994,0.784 -2.274,1.751 -3.838,2.896 -1.204,0.845 -2.377,1.719 -3.521,2.624 -1.146,0.905 -2.184,1.872 -3.117,2.898 -0.933,1.025 -1.685,2.17 -2.259,3.437 -0.572,1.271 -0.856,2.717 -0.856,4.345 0,1.869 0.39,3.575 1.172,5.115 0.78,1.538 1.847,2.849 3.203,3.935 1.352,1.087 2.974,1.931 4.87,2.533 1.894,0.605 3.953,0.908 6.176,0.908 2.349,0 4.621,-0.315 6.824,-0.944 2.197,-0.63 4.233,-1.542 6.102,-2.74 l -3.526,-5.677 c -2.411,1.687 -4.943,2.531 -7.596,2.531 -1.625,0 -2.969,-0.424 -4.023,-1.268 -1.055,-0.845 -1.581,-1.9 -1.581,-3.169 0,-1.208 0.464,-2.296 1.397,-3.261 0.927,-0.966 2.535,-2.324 4.82,-4.073 2.3,-1.692 4.206,-3.17 5.718,-4.438 1.514,-1.268 2.708,-2.462 3.585,-3.577 0.879,-1.118 1.484,-2.251 1.817,-3.397 0.331,-1.148 0.501,-2.414 0.501,-3.802 z"
       style="fill:#000000;fill-opacity:1;fill-rule:nonzero;stroke:none"
       transform="matrix(1.3333333,0,0,-1.3333333,399.9996,126.7324)"
       clip-path="url(#clipPath2)" />
  </g>
</svg>
