<svg width="8775" height="1133" viewBox="0 0 8775 1133" fill="none" xmlns="http://www.w3.org/2000/svg">
<rect y="103" width="1000" height="1000" rx="200" fill="#1B71EC"/>
<circle cx="500" cy="603" r="392.5" stroke="white" stroke-width="15"/>
<circle cx="500" cy="603" r="392.5" stroke="white" stroke-width="15"/>
<path d="M788 603C788 757.264 659.439 883 500 883C340.561 883 212 757.264 212 603C212 448.736 340.561 323 500 323C659.439 323 788 448.736 788 603Z" stroke="white" stroke-width="30"/>
<path d="M788 603C788 757.264 659.439 883 500 883C340.561 883 212 757.264 212 603C212 448.736 340.561 323 500 323C659.439 323 788 448.736 788 603Z" stroke="white" stroke-width="30"/>
<circle cx="500" cy="603" r="152.5" stroke="white" stroke-width="45"/>
<circle cx="500" cy="603" r="152.5" stroke="white" stroke-width="45"/>
<path d="M1439.16 965.877C1385.17 965.877 1333.48 958.305 1284.1 943.16C1234.72 927.358 1195.54 907.276 1166.57 882.913L1211.01 783.16C1238.67 804.888 1272.91 822.995 1313.73 837.481C1354.55 851.967 1396.36 859.21 1439.16 859.21C1475.38 859.21 1504.68 855.259 1527.06 847.358C1549.45 839.456 1565.91 828.921 1576.45 815.753C1586.98 801.925 1592.25 786.452 1592.25 769.333C1592.25 748.263 1584.68 731.473 1569.53 718.962C1554.39 705.793 1534.64 695.588 1510.27 688.345C1486.57 680.444 1459.9 673.201 1430.27 666.616C1401.3 660.032 1372 652.46 1342.37 643.9C1313.4 634.682 1286.73 623.159 1262.37 609.332C1238.67 594.847 1219.24 575.752 1204.1 552.048C1188.95 528.344 1181.38 498.056 1181.38 461.184C1181.38 423.653 1191.26 389.414 1211.01 358.467C1231.42 326.862 1262.04 301.842 1302.86 283.405C1344.35 264.311 1396.69 254.763 1459.9 254.763C1501.38 254.763 1542.54 260.031 1583.36 270.566C1624.18 281.101 1659.74 296.245 1690.03 315.998L1649.53 415.751C1618.59 397.315 1586.65 383.817 1553.73 375.257C1520.81 366.039 1489.2 361.43 1458.91 361.43C1423.36 361.43 1394.39 365.71 1372 374.27C1350.27 382.829 1334.14 394.023 1323.61 407.85C1313.73 421.677 1308.79 437.48 1308.79 455.258C1308.79 476.328 1316.03 493.447 1330.52 506.616C1345.66 519.126 1365.09 529.003 1388.79 536.246C1413.15 543.488 1440.15 550.731 1469.78 557.974C1499.41 564.558 1528.71 572.13 1557.68 580.69C1587.31 589.25 1613.98 600.443 1637.68 614.271C1662.04 628.098 1681.47 646.863 1695.95 670.567C1711.1 694.271 1718.67 724.23 1718.67 760.444C1718.67 797.316 1708.46 831.555 1688.05 863.16C1668.3 894.107 1637.68 919.127 1596.2 938.222C1554.72 956.658 1502.37 965.877 1439.16 965.877ZM2032.65 962.914C1974.71 962.914 1929.93 948.099 1898.33 918.469C1866.72 888.181 1850.92 843.736 1850.92 785.135V312.047H1974.38V782.172C1974.38 807.193 1980.63 826.617 1993.14 840.444C2006.31 854.271 2024.42 861.185 2047.47 861.185C2075.12 861.185 2098.17 853.942 2116.6 839.456L2151.17 927.358C2136.68 939.21 2118.91 948.099 2097.84 954.025C2076.77 959.951 2055.04 962.914 2032.65 962.914ZM1764.01 531.307V432.542H2115.61V531.307H1764.01ZM2577.67 956V849.333L2570.75 826.617V639.95C2570.75 603.735 2559.89 575.752 2538.16 555.999C2516.43 535.587 2483.51 525.381 2439.4 525.381C2409.77 525.381 2380.47 529.99 2351.49 539.209C2323.18 548.427 2299.15 561.266 2279.4 577.727L2231 487.85C2259.31 466.122 2292.89 449.99 2331.74 439.455C2371.25 428.262 2412.07 422.665 2454.21 422.665C2530.59 422.665 2589.52 441.101 2631 477.974C2673.14 514.188 2694.21 570.484 2694.21 646.863V956H2577.67ZM2411.74 962.914C2372.24 962.914 2337.67 956.329 2308.04 943.16C2278.41 929.333 2255.36 910.568 2238.9 886.864C2223.1 862.502 2215.2 835.177 2215.2 804.888C2215.2 775.259 2222.11 748.592 2235.94 724.888C2250.42 701.184 2273.8 682.419 2306.06 668.592C2338.33 654.764 2381.12 647.851 2434.46 647.851H2587.54V729.826H2443.35C2401.21 729.826 2372.89 736.74 2358.41 750.567C2343.92 763.736 2336.68 780.197 2336.68 799.95C2336.68 822.337 2345.57 840.115 2363.35 853.284C2381.12 866.452 2405.82 873.037 2437.42 873.037C2467.71 873.037 2494.7 866.123 2518.41 852.296C2542.77 838.469 2560.22 818.057 2570.75 791.061L2591.5 865.136C2579.64 896.082 2558.24 920.115 2527.3 937.235C2497.01 954.354 2458.49 962.914 2411.74 962.914ZM3095.59 962.914C3040.29 962.914 2990.9 951.391 2947.45 928.346C2904.65 904.642 2871.07 872.378 2846.7 831.555C2822.34 790.732 2810.16 744.312 2810.16 692.295C2810.16 639.62 2822.34 593.201 2846.7 553.036C2871.07 512.213 2904.65 480.278 2947.45 457.233C2990.9 434.188 3040.29 422.665 3095.59 422.665C3146.95 422.665 3192.06 433.2 3230.9 454.27C3270.41 474.682 3300.37 504.97 3320.78 545.135L3225.96 600.443C3210.16 575.423 3190.74 556.986 3167.69 545.135C3145.31 533.283 3120.94 527.357 3094.61 527.357C3064.32 527.357 3036.99 533.941 3012.63 547.11C2988.27 560.279 2969.17 579.373 2955.35 604.394C2941.52 628.756 2934.61 658.057 2934.61 692.295C2934.61 726.534 2941.52 756.164 2955.35 781.185C2969.17 805.547 2988.27 824.312 3012.63 837.481C3036.99 850.65 3064.32 857.234 3094.61 857.234C3120.94 857.234 3145.31 851.308 3167.69 839.456C3190.74 827.605 3210.16 809.168 3225.96 784.148L3320.78 839.456C3300.37 878.963 3270.41 909.58 3230.9 931.309C3192.06 952.379 3146.95 962.914 3095.59 962.914ZM3523.42 838.469L3526.38 683.407L3801.94 428.591H3950.09L3716.01 663.653L3650.83 717.975L3523.42 838.469ZM3422.68 956V223.158H3546.14V956H3422.68ZM3820.7 956L3628.11 717.975L3706.14 619.209L3970.83 956H3820.7ZM4385.39 965.877C4331.4 965.877 4281.69 957.317 4236.25 940.197C4191.48 922.42 4152.3 897.728 4118.72 866.123C4085.14 833.86 4059.13 795.999 4040.7 752.543C4022.26 709.086 4013.04 661.678 4013.04 610.32C4013.04 558.962 4022.26 511.554 4040.7 468.097C4059.13 424.64 4085.14 387.109 4118.72 355.504C4152.96 323.241 4192.8 298.549 4238.23 281.43C4283.66 263.652 4333.37 254.763 4387.37 254.763C4445.97 254.763 4498.64 264.311 4545.39 283.405C4592.8 302.5 4632.63 330.484 4664.9 367.356L4583.91 446.369C4556.91 419.373 4527.61 399.62 4496.01 387.109C4465.06 373.941 4430.82 367.356 4393.29 367.356C4357.08 367.356 4323.5 373.282 4292.55 385.134C4261.6 396.986 4234.94 413.776 4212.55 435.505C4190.16 457.233 4172.71 482.912 4160.2 512.542C4148.35 542.172 4142.43 574.764 4142.43 610.32C4142.43 645.217 4148.35 677.481 4160.2 707.11C4172.71 736.74 4190.16 762.748 4212.55 785.135C4234.94 806.864 4261.27 823.654 4291.56 835.506C4321.85 847.358 4355.43 853.284 4392.3 853.284C4426.54 853.284 4459.46 848.016 4491.07 837.481C4523.33 826.288 4553.95 807.851 4582.92 782.172L4656.01 877.975C4619.79 906.946 4577.65 929.004 4529.59 944.148C4482.18 958.634 4434.11 965.877 4385.39 965.877ZM4534.53 861.185V602.419H4656.01V877.975L4534.53 861.185ZM5036.71 962.914C4991.94 962.914 4952.43 954.683 4918.19 938.222C4883.95 921.103 4857.29 895.424 4838.19 861.185C4819.1 826.288 4809.55 782.502 4809.55 729.826V428.591H4933.01V713.036C4933.01 760.444 4943.54 795.999 4964.61 819.703C4986.34 842.749 5016.96 854.271 5056.46 854.271C5085.44 854.271 5110.46 848.345 5131.53 836.493C5153.25 824.642 5170.04 806.864 5181.9 783.16C5194.41 759.456 5200.66 730.156 5200.66 695.258V428.591H5324.12V956H5206.59V813.777L5227.33 857.234C5209.55 891.473 5183.54 917.811 5149.3 936.247C5115.07 954.025 5077.53 962.914 5036.71 962.914ZM5810.7 956V849.333L5803.79 826.617V639.95C5803.79 603.735 5792.93 575.752 5771.2 555.999C5749.47 535.587 5716.55 525.381 5672.43 525.381C5642.8 525.381 5613.5 529.99 5584.53 539.209C5556.22 548.427 5532.18 561.266 5512.43 577.727L5464.04 487.85C5492.35 466.122 5525.93 449.99 5564.78 439.455C5604.28 428.262 5645.11 422.665 5687.25 422.665C5763.62 422.665 5822.55 441.101 5864.04 477.974C5906.18 514.188 5927.25 570.484 5927.25 646.863V956H5810.7ZM5644.78 962.914C5605.27 962.914 5570.7 956.329 5541.07 943.16C5511.44 929.333 5488.4 910.568 5471.94 886.864C5456.13 862.502 5448.23 835.177 5448.23 804.888C5448.23 775.259 5455.15 748.592 5468.97 724.888C5483.46 701.184 5506.83 682.419 5539.1 668.592C5571.36 654.764 5614.16 647.851 5667.49 647.851H5820.58V729.826H5676.38C5634.24 729.826 5605.93 736.74 5591.44 750.567C5576.96 763.736 5569.71 780.197 5569.71 799.95C5569.71 822.337 5578.6 840.115 5596.38 853.284C5614.16 866.452 5638.85 873.037 5670.46 873.037C5700.74 873.037 5727.74 866.123 5751.44 852.296C5775.81 838.469 5793.25 818.057 5803.79 791.061L5824.53 865.136C5812.68 896.082 5791.28 920.115 5760.33 937.235C5730.04 954.354 5691.53 962.914 5644.78 962.914ZM6085.69 956V428.591H6203.22V573.777L6189.39 531.307C6205.19 495.752 6229.89 468.756 6263.47 450.319C6297.71 431.883 6340.17 422.665 6390.87 422.665V540.196C6385.61 538.879 6380.67 538.221 6376.06 538.221C6371.45 537.562 6366.84 537.233 6362.23 537.233C6315.48 537.233 6278.28 551.06 6250.63 578.715C6222.97 605.711 6209.15 646.205 6209.15 700.197V956H6085.69ZM6713.99 962.914C6663.29 962.914 6617.53 951.72 6576.71 929.333C6536.54 906.288 6504.94 874.683 6481.89 834.518C6458.85 794.353 6447.33 746.946 6447.33 692.295C6447.33 637.645 6458.85 590.238 6481.89 550.073C6504.94 509.908 6536.54 478.632 6576.71 456.245C6617.53 433.858 6663.29 422.665 6713.99 422.665C6758.11 422.665 6797.61 432.542 6832.51 452.295C6867.41 471.389 6895.06 500.69 6915.48 540.196C6935.89 579.702 6946.09 630.402 6946.09 692.295C6946.09 753.53 6936.22 804.23 6916.46 844.395C6896.71 883.901 6869.38 913.531 6834.49 933.284C6799.59 953.037 6759.43 962.914 6713.99 962.914ZM6728.81 857.234C6758.44 857.234 6784.78 850.65 6807.82 837.481C6831.52 824.312 6850.29 805.218 6864.12 780.197C6878.6 755.176 6885.85 725.876 6885.85 692.295C6885.85 658.057 6878.6 628.756 6864.12 604.394C6850.29 579.373 6831.52 560.279 6807.82 547.11C6784.78 533.941 6758.44 527.357 6728.81 527.357C6699.18 527.357 6672.51 533.941 6648.81 547.11C6625.76 560.279 6607 579.373 6592.51 604.394C6578.68 628.756 6571.77 658.057 6571.77 692.295C6571.77 725.876 6578.68 755.176 6592.51 780.197C6607 805.218 6625.76 824.312 6648.81 837.481C6672.51 850.65 6699.18 857.234 6728.81 857.234ZM6888.81 956V831.555L6893.75 691.308L6883.87 551.06V223.158H7006.34V956H6888.81ZM7168.83 956V428.591H7292.29V956H7168.83ZM7231.05 341.677C7208.01 341.677 7188.91 334.434 7173.77 319.949C7159.28 305.463 7152.04 288.014 7152.04 267.603C7152.04 246.533 7159.28 229.084 7173.77 215.257C7188.91 200.771 7208.01 193.528 7231.05 193.528C7254.1 193.528 7272.87 200.442 7287.35 214.269C7302.5 227.438 7310.07 244.228 7310.07 264.64C7310.07 286.368 7302.82 304.804 7288.34 319.949C7273.85 334.434 7254.76 341.677 7231.05 341.677ZM7779.27 956V849.333L7772.35 826.617V639.95C7772.35 603.735 7761.49 575.752 7739.76 555.999C7718.03 535.587 7685.11 525.381 7640.99 525.381C7611.36 525.381 7582.06 529.99 7553.09 539.209C7524.78 548.427 7500.75 561.266 7480.99 577.727L7432.6 487.85C7460.91 466.122 7494.49 449.99 7533.34 439.455C7572.85 428.262 7613.67 422.665 7655.81 422.665C7732.19 422.665 7791.12 441.101 7832.6 477.974C7874.74 514.188 7895.81 570.484 7895.81 646.863V956H7779.27ZM7613.34 962.914C7573.83 962.914 7539.27 956.329 7509.64 943.16C7480.01 929.333 7456.96 910.568 7440.5 886.864C7424.7 862.502 7416.8 835.177 7416.8 804.888C7416.8 775.259 7423.71 748.592 7437.54 724.888C7452.02 701.184 7475.4 682.419 7507.66 668.592C7539.92 654.764 7582.72 647.851 7636.06 647.851H7789.14V729.826H7644.94C7602.8 729.826 7574.49 736.74 7560.01 750.567C7545.52 763.736 7538.28 780.197 7538.28 799.95C7538.28 822.337 7547.17 840.115 7564.94 853.284C7582.72 866.452 7607.41 873.037 7639.02 873.037C7669.31 873.037 7696.3 866.123 7720.01 852.296C7744.37 838.469 7761.82 818.057 7772.35 791.061L7793.09 865.136C7781.24 896.082 7759.84 920.115 7728.9 937.235C7698.61 954.354 7660.09 962.914 7613.34 962.914ZM8353.51 422.665C8395.65 422.665 8433.18 430.895 8466.1 447.356C8499.69 463.817 8526.02 489.167 8545.12 523.406C8564.21 556.986 8573.76 600.443 8573.76 653.777V956H8450.3V669.579C8450.3 622.83 8439.11 587.933 8416.72 564.888C8394.99 541.842 8364.38 530.32 8324.87 530.32C8295.9 530.32 8270.22 536.246 8247.83 548.097C8225.45 559.949 8208 577.727 8195.49 601.431C8183.63 624.476 8177.71 653.777 8177.71 689.332V956H8054.25V428.591H8171.78V570.814L8151.04 527.357C8169.48 493.776 8196.15 468.097 8231.04 450.319C8266.6 431.883 8307.42 422.665 8353.51 422.665Z" fill="#292929"/>
</svg>
