<svg id="Layer_6" data-name="Layer 6" xmlns="http://www.w3.org/2000/svg" viewBox="0 0 463.379 127.559"><defs><style>.cls-1{fill:#0d152c;}</style></defs><path class="cls-1" d="M245.217,44.04a17.947,17.947,0,0,1,12.333-4.392,18.6,18.6,0,0,1,8.69,2.056l8.878-4.673,4.578,7.663-6.727,3.364a15.04,15.04,0,0,1,1.868,7.475,14.64,14.64,0,0,1-4.952,11.493,18.281,18.281,0,0,1-12.335,4.2,23.647,23.647,0,0,1-6.821-1.027,3.941,3.941,0,0,0-2.242,3.551c0,2.335,1.5,3.456,4.392,3.456H262.5c10.09,0,16.538,4.953,16.538,13.83a13.819,13.819,0,0,1-3.271,9.251c-4.391,5.139-10.652,7.007-18.126,7.007-6.262,0-11.4-1.307-15.418-4.018a13.153,13.153,0,0,1-5.888-11.493,12.248,12.248,0,0,1,3.832-9.344,11.241,11.241,0,0,1-2.429-7.288c0-4.3,1.962-7.569,5.793-9.905a15.07,15.07,0,0,1-3.271-9.718A14.641,14.641,0,0,1,245.217,44.04Zm8.316,42.889a30.147,30.147,0,0,1-5.419-.373,7.887,7.887,0,0,0-1.028,4.3c0,4.392,4.2,6.727,10.559,6.727,6.54,0,9.811-1.963,9.811-5.793,0-3.271-2.523-4.859-7.569-4.859Zm4.017-25.042A6.159,6.159,0,0,0,264,55.533a6.448,6.448,0,1,0-12.895,0A6.159,6.159,0,0,0,257.55,61.887Z"/><path class="cls-1" d="M324.542,67.68H292.119a10.815,10.815,0,0,0,11.119,10.652c4.766,0,8.6-2.429,11.4-7.287l9.344,3.456c-4.018,9.157-11.119,13.736-21.4,13.736-16.165,0-22.612-13.081-22.612-24.295s6.447-24.294,22.612-24.294c7.476,0,13.549,3.084,16.914,7.849a26.214,26.214,0,0,1,5.045,15.418ZM292.4,58.523h20.278q-1.963-8.971-10.093-8.971C297.07,49.552,293.24,53.571,292.4,58.523Z"/><path class="cls-1" d="M330.426,40.4h11.586v7.568c3.831-5.513,8.69-8.316,14.577-8.316,8.69,0,14.483,4.953,14.483,14.2V87.49H359.486V57.308c0-5.139-2.243-7.756-6.727-7.756-5.981,0-10.747,7.289-10.747,19.156V87.49H330.426Z"/><path class="cls-1" d="M377.8,21.52a7.532,7.532,0,1,1,0,10.652A7.616,7.616,0,0,1,377.8,21.52ZM377.329,40.4h11.586V87.49H377.329Z"/><path class="cls-1" d="M440.022,67.68H407.6a10.816,10.816,0,0,0,11.119,10.652c4.767,0,8.6-2.429,11.4-7.287l9.344,3.456c-4.018,9.157-11.119,13.736-21.4,13.736-16.165,0-22.612-13.081-22.612-24.295s6.447-24.294,22.612-24.294c7.476,0,13.549,3.084,16.914,7.849a26.219,26.219,0,0,1,5.044,15.418Zm-32.143-9.157h20.277q-1.962-8.971-10.092-8.971C412.551,49.552,408.72,53.571,407.879,58.523Z"/><path class="cls-1" d="M61.263,47.31l-6.914,6.354A9.757,9.757,0,0,0,46.5,49.552c-2.336,0-4.3,1.4-4.3,3.925,0,1.963,1.5,3.457,4.486,4.579L50.05,59.27l4.018,1.4a31.492,31.492,0,0,1,3.364,1.776A10.38,10.38,0,0,1,60.8,64.877a11.983,11.983,0,0,1,2.9,7.662,15.1,15.1,0,0,1-4.672,11.119c-3.084,3.084-7.1,4.579-12.054,4.579a18.661,18.661,0,0,1-11.68-3.83,21.8,21.8,0,0,1-7.008-8.877l9.25-4.953c1.869,5.14,5.046,7.755,9.438,7.755,3.831,0,5.793-1.681,5.793-5.045a3.783,3.783,0,0,0-2.522-3.55,15.613,15.613,0,0,0-2.617-1.121c-1.588-.749-4.859-1.776-6.634-2.524-5.981-2.523-9.531-5.98-9.531-12.708a12.949,12.949,0,0,1,4.205-9.718A14.963,14.963,0,0,1,46.5,39.648,17.583,17.583,0,0,1,61.263,47.31Z"/><path class="cls-1" d="M96.113,86.556a17.969,17.969,0,0,1-7.662,1.681c-10.839,0-17.286-5.886-17.286-17.379V50.3H63.877V40.4h7.288V28.622l11.587-7.288V40.4H95.179v9.9H82.752V70.671c0,5.606,2.055,7.661,6.166,7.661A9.388,9.388,0,0,0,93.4,77.211Z"/><path class="cls-1" d="M100.034,52.73c1.5-7.85,8.5-13.082,17.941-13.082,13.175,0,19.809,6.541,19.809,19.716V87.49h-9.53l-1.215-5.98a17.773,17.773,0,0,1-14.484,6.727c-8.316,0-14.3-5.232-14.3-14.3,0-9.346,8.129-15.419,20.089-15.419h7.85V56.467c0-4.578-2.71-6.915-8.223-6.915-4.2,0-6.914,1.776-8.129,5.42Zm15.232,25.6a11.56,11.56,0,0,0,7.568-2.709,8.506,8.506,0,0,0,3.364-7.007V67.68h-7.756c-5.326,0-8.035,2.057-8.035,6.075A4.492,4.492,0,0,0,115.266,78.332Z"/><path class="cls-1" d="M187.582,74.781c-3.644,8.971-10.745,13.456-21.4,13.456-7.383,0-12.988-2.335-17.007-6.914s-5.98-10.372-5.98-17.381,1.962-12.8,5.98-17.38,9.624-6.914,17.007-6.914c10.652,0,17.753,4.485,21.4,13.456l-10.372,4.2c-2.522-5.139-6.26-7.756-11.025-7.756-7.1,0-10.84,5.794-10.84,14.39s3.738,14.39,10.84,14.39c4.765,0,8.5-2.615,11.025-7.755Z"/><path class="cls-1" d="M191.5,21.334H203.09V58.9l15.324-18.5h14.3L213.837,62.073,233.925,87.49h-14.2L203.09,65.251V87.49H191.5Z"/></svg>