<svg id="Capa_1" data-name="Capa 1" xmlns="http://www.w3.org/2000/svg" viewBox="0 0 1089.10891 321.56301"><defs><style>.cls-1{fill:#fecd07;}.cls-2{fill:none;}.cls-3{fill:#fff;}.cls-4{fill:#deb306;}.cls-5{fill:#333;}.cls-6{fill:#bf9a05;}.cls-7{fill:#957552;}.cls-8{fill:#c69c6d;}</style></defs><title>STAKATER</title><path d="M152.14409,37.737h-105.28v179h179.84v-27.88Zm63.85,161.32h-73.67v-26.06l-12.47-9.32h-73.42V48.317h87.65l71.91,144.57Z"/><path class="cls-1" d="M212.5941,257.367a30.30285,30.30285,0,0,1-.83,7.05h-58.78a29.77364,29.77364,0,0,1-.84-7.05,30.225,30.225,0,0,1,60.45,0Z"/><path class="cls-1" d="M99.50407,257.367a30.30284,30.30284,0,0,1-.82995,7.05H46.86406v-27.31a30.21807,30.21807,0,0,1,52.64,20.26Z"/><path class="cls-1" d="M226.70409,216.737v47.68h-9.27a35.76824,35.76824,0,0,0-35.06-42.81,43.96549,43.96549,0,0,0-19.98,6.12,1.62781,1.62781,0,0,1-.17.11,35.92489,35.92489,0,0,0-13.74,18.07.35842.35842,0,0,0-.04.11,44.68009,44.68009,0,0,0-1.14,18.39v.01h-42.96v-.03a45.20065,45.20065,0,0,0-.97-17.81.74794.74794,0,0,0-.05-.16,35.8025,35.8025,0,0,0-13.9-18.58.91509.91509,0,0,0-.13-.08,43.83595,43.83595,0,0,0-20.01-6.15,35.61207,35.61207,0,0,0-22.42,7.92v-12.79Z"/><polygon class="cls-2" points="215.996 192.891 215.996 199.062 142.325 199.062 142.325 172.993 129.857 163.674 56.437 163.674 56.437 48.318 144.088 48.318 215.996 192.891"/><polygon class="cls-2" points="215.996 192.891 215.996 199.062 142.325 199.062 142.325 172.993 129.857 163.674 56.437 163.674 56.437 48.318 144.088 48.318 215.996 192.891"/><polygon points="353.643 247.294 293.194 264.422 232.746 264.422 232.746 37.739 249.873 37.739 249.873 247.294 353.643 247.294"/><path d="M99.50407,257.367a30.21807,30.21807,0,1,1-30.22-30.22A30.30284,30.30284,0,0,1,99.50407,257.367Z"/><path class="cls-3" d="M105.04411,257.367a35.30177,35.30177,0,0,0-1.67-10.79,45.20065,45.20065,0,0,1,.97,17.81A35.34007,35.34007,0,0,0,105.04411,257.367Zm-34.84-35.75c-.31-.01-.61-.01-.92-.01a43.83595,43.83595,0,0,1,20.01,6.15A35.49655,35.49655,0,0,0,70.20409,221.617Z"/><path d="M212.5941,257.367a30.2208,30.2208,0,0,1-59.61,7.05,29.77364,29.77364,0,0,1-.84-7.05,30.225,30.225,0,0,1,60.45,0Z"/><path class="cls-3" d="M148.44408,246.017a35.86093,35.86093,0,0,0-1.14,18.39A44.68009,44.68009,0,0,1,148.44408,246.017Zm33.01-24.4a35.53738,35.53738,0,0,0-19.06,6.11,43.96549,43.96549,0,0,1,19.98-6.12C182.06407,221.607,181.76408,221.607,181.45409,221.617Z"/><circle class="cls-3" cx="182.37182" cy="257.36918" r="12.31498"/><path class="cls-3" d="M182.37407,244.017a13.34166,13.34166,0,1,0,13.35,13.35A13.36671,13.36671,0,0,0,182.37407,244.017Zm0,24.63a11.27127,11.27127,0,1,1,8.81-4.23A11.27072,11.27072,0,0,1,182.37407,268.647Z"/><circle class="cls-3" cx="69.5345" cy="257.36918" r="12.31498"/><path class="cls-3" d="M69.5341,244.017a13.34166,13.34166,0,1,0,13.35,13.35A13.36676,13.36676,0,0,0,69.5341,244.017Zm0,24.63a11.27116,11.27116,0,1,1,8.81-4.23A11.2707,11.2707,0,0,1,69.5341,268.647Z"/><circle cx="46.02673" cy="192.7228" r="16.95918"/><polygon class="cls-1" points="76.083 157.629 69.535 100.203 77.342 100.203 86.913 141.509 121.168 143.776 121.168 157.629 76.083 157.629"/><path class="cls-4" d="M104.3441,264.387a45.20065,45.20065,0,0,0-.97-17.81.74794.74794,0,0,0-.05-.16,31.56491,31.56491,0,0,0-13.9-18.58.91509.91509,0,0,0-.13-.08,43.83595,43.83595,0,0,0-20.01-6.15c.31,0,.61,0,.92.01,22.43.25,42.84,10.12,46.93,42.8h-12.79Z"/><path class="cls-4" d="M182.37407,221.607a43.96549,43.96549,0,0,0-19.98,6.12,1.62781,1.62781,0,0,1-.17.11,31.5953,31.5953,0,0,0-13.74,18.07.35842.35842,0,0,0-.04.11,44.68009,44.68009,0,0,0-1.14,18.39v.01h-12.79c4.1-32.68,24.5-42.55,46.94-42.8C181.76408,221.607,182.06407,221.607,182.37407,221.607Z"/><path d="M454.84428,143.29735a39.88527,39.88527,0,0,0-14.75537-10.144,53.88957,53.88957,0,0,0-21.02588-3.873q-17.33862,0-25.26806,6.54736-7.93213,6.54932-7.93067,17.79834a19.62189,19.62189,0,0,0,2.1211,9.6831,18.49171,18.49171,0,0,0,6.54736,6.54786,45.87686,45.87686,0,0,0,11.34277,4.79492q6.917,2.03173,16.32325,4.05761a177.74409,177.74409,0,0,1,18.90478,4.9795,54.318,54.318,0,0,1,14.29395,6.917,28.72665,28.72665,0,0,1,9.0376,10.05176q3.134,5.90478,3.13525,14.75488a33.15953,33.15953,0,0,1-3.5044,15.67773,31.27922,31.27922,0,0,1-9.77539,11.06641,43.58377,43.58377,0,0,1-14.93945,6.54688,79.998,79.998,0,0,1-18.99707,2.12109q-30.43213,0-52.56494-18.99707l6.45557-10.5127a50.98324,50.98324,0,0,0,8.39209,7.00879,60.74443,60.74443,0,0,0,10.88183,5.80957,69.02245,69.02245,0,0,0,12.81836,3.873,72.29057,72.29057,0,0,0,14.38623,1.38379q15.67383,0,24.438-5.626,8.75757-5.62353,8.76074-17.06054a19.57967,19.57967,0,0,0-2.48974-10.23633,21.56212,21.56212,0,0,0-7.46973-7.19239A52.94913,52.94913,0,0,0,431.605,194.018q-7.37916-2.21338-17.15284-4.42676-10.33153-2.395-18.07519-4.97949a48.12124,48.12124,0,0,1-13.09473-6.45606,25.10712,25.10712,0,0,1-8.02343-9.31347,30.11689,30.11689,0,0,1-2.67432-13.37207,36.79306,36.79306,0,0,1,3.41211-16.13819,31.70538,31.70538,0,0,1,9.6831-11.8042,45.82471,45.82471,0,0,1,14.75489-7.19287,66.64387,66.64387,0,0,1,18.813-2.49023,64.24891,64.24891,0,0,1,23.33154,3.96582,62.68123,62.68123,0,0,1,18.53564,11.1582Z"/><path d="M532.6768,245.10692q-1.10668.55371-3.22753,1.47558-2.12256.92578-4.8877,1.84473a56.63234,56.63234,0,0,1-6.271,1.66015,35.92511,35.92511,0,0,1-7.37744.73731,26.82329,26.82329,0,0,1-7.74658-1.10645,18.00467,18.00467,0,0,1-6.45508-3.41211,16.78607,16.78607,0,0,1-4.42676-5.80957,18.75536,18.75536,0,0,1-1.65966-8.11523v-68.7959H477.34526V153.626h13.27979V121.165h12.5415V153.626h22.13281v9.95947H503.16655v65.291q.36768,5.35254,3.78125,7.83886a12.94941,12.94941,0,0,0,7.83838,2.49024,23.51116,23.51116,0,0,0,9.40625-1.75293,41.402,41.402,0,0,0,5.16455-2.48926Z"/><path d="M572.51421,251.563a33.95785,33.95785,0,0,1-12.63379-2.30566,31.8262,31.8262,0,0,1-10.14453-6.36329,28.664,28.664,0,0,1-9.12989-21.21,23.66366,23.66366,0,0,1,2.95118-11.62011,28.09941,28.09941,0,0,1,8.2998-9.22168,40.63343,40.63343,0,0,1,12.72656-5.99414A58.65746,58.65746,0,0,1,580.814,192.727a88.82209,88.82209,0,0,1,14.93945,1.291,64.95637,64.95637,0,0,1,13.46387,3.68847v-8.668q0-12.72657-7.19336-20.19629-7.19238-7.47-19.91894-7.46973a42.37011,42.37011,0,0,0-15.124,2.95068,72.972,72.972,0,0,0-15.67773,8.48389l-4.42578-8.29932q18.627-12.54053,36.14941-12.542,18.07472,0,28.4043,10.14453,10.32714,10.14479,10.32812,28.03467v43.34277q0,5.165,4.61133,5.16407v11.0664a29.91507,29.91507,0,0,1-4.7959.55371q-4.79736,0-7.46972-2.39843a9.0019,9.0019,0,0,1-2.8584-6.63965l-.36914-7.56152a43.56641,43.56641,0,0,1-16.69141,13.27929A51.38476,51.38476,0,0,1,572.51421,251.563Zm2.95117-9.59082a43.32367,43.32367,0,0,0,17.98242-3.68945,29.3835,29.3835,0,0,0,12.4502-9.77442,11.48882,11.48882,0,0,0,2.48925-3.59668,9.17868,9.17868,0,0,0,.83008-3.59668V205.63719a77.14351,77.14351,0,0,0-13.00293-3.68848,72.99842,72.99842,0,0,0-13.74023-1.291q-13.28028,0-21.58008,5.5332-8.2998,5.53272-8.29981,14.57031a19.8726,19.8726,0,0,0,1.75293,8.29981,21.017,21.017,0,0,0,4.79493,6.73242,22.41285,22.41285,0,0,0,7.28515,4.51855A24.57283,24.57283,0,0,0,575.46538,241.97215Z"/><path d="M717.482,249.71824l-35.41309-49.24511-20.65625,19.18164v30.06347h-12.542V115.0786h12.542V206.56l54.04-52.74951h14.20215L690.3687,193.09617l40.76172,56.62207Z"/><path d="M769.49565,251.563a33.95789,33.95789,0,0,1-12.63379-2.30566,31.83721,31.83721,0,0,1-10.14453-6.36329,28.66315,28.66315,0,0,1-9.1289-21.21,23.6682,23.6682,0,0,1,2.95019-11.62011,28.10475,28.10475,0,0,1,8.29981-9.22168,40.65409,40.65409,0,0,1,12.72656-5.99414,58.65736,58.65736,0,0,1,16.23047-2.1211,88.82226,88.82226,0,0,1,14.93945,1.291,64.95654,64.95654,0,0,1,13.46387,3.68847v-8.668q0-12.72657-7.19336-20.19629-7.19238-7.47-19.91895-7.46973a42.37006,42.37006,0,0,0-15.124,2.95068,72.94341,72.94341,0,0,0-15.67676,8.48389l-4.42676-8.29932q18.627-12.54053,36.14942-12.542,18.0747,0,28.40429,10.14453,10.32715,10.14479,10.32813,28.03467v43.34277q0,5.165,4.61133,5.16407v11.0664a29.91531,29.91531,0,0,1-4.7959.55371q-4.79736,0-7.46973-2.39843a9.00194,9.00194,0,0,1-2.8584-6.63965l-.36914-7.56152a43.56638,43.56638,0,0,1-16.6914,13.27929A51.3848,51.3848,0,0,1,769.49565,251.563Zm2.95117-9.59082a43.32368,43.32368,0,0,0,17.98243-3.68945,29.38353,29.38353,0,0,0,12.45019-9.77442,11.48886,11.48886,0,0,0,2.48926-3.59668,9.17868,9.17868,0,0,0,.83008-3.59668V205.63719a77.14378,77.14378,0,0,0-13.00293-3.68848,72.99853,72.99853,0,0,0-13.74024-1.291q-13.28027,0-21.5791,5.5332-8.2998,5.53272-8.2998,14.57031a19.87187,19.87187,0,0,0,1.75195,8.29981,21.01683,21.01683,0,0,0,4.79492,6.73242,22.41769,22.41769,0,0,0,7.28613,4.51855A24.56769,24.56769,0,0,0,772.44682,241.97215Z"/><path d="M891.22514,245.10692q-1.106.55371-3.22753,1.47558-2.12256.92578-4.8877,1.84473a56.68014,56.68014,0,0,1-6.27051,1.66015,35.93687,35.93687,0,0,1-7.37793.73731,26.81751,26.81751,0,0,1-7.74609-1.10645,18.01316,18.01316,0,0,1-6.45606-3.41211,16.78368,16.78368,0,0,1-4.42578-5.80957,18.74116,18.74116,0,0,1-1.66015-8.11523v-68.7959h-13.2793V153.626h13.2793V121.165h12.542V153.626h22.13183v9.95947H861.71538v65.291q.36768,5.35254,3.78027,7.83886a12.95086,12.95086,0,0,0,7.83887,2.49024,23.51116,23.51116,0,0,0,9.40625-1.75293,41.38232,41.38232,0,0,0,5.16406-2.48926Z"/><path d="M946.00346,251.563A46.20866,46.20866,0,0,1,926.73,247.59715a47.18767,47.18767,0,0,1-15.21582-10.88184,50.477,50.477,0,0,1-10.05176-15.9541,51.85963,51.85963,0,0,1-3.59668-19.36621,50.68719,50.68719,0,0,1,3.59668-19.08887,49.435,49.435,0,0,1,9.959-15.67773,47.31366,47.31366,0,0,1,15.2168-10.69678,48.59324,48.59324,0,0,1,38.45508,0,45.89943,45.89943,0,0,1,15.03125,10.78955,50.66124,50.66124,0,0,1,13.28027,34.49024v2.95019a7.49069,7.49069,0,0,1-.18457,2.0293H910.9605a40.43667,40.43667,0,0,0,3.59668,14.29395,39.21027,39.21027,0,0,0,7.83886,11.34277,35.01029,35.01029,0,0,0,10.97364,7.46973,32.80756,32.80756,0,0,0,13.1875,2.6748,34.04984,34.04984,0,0,0,9.22168-1.291,37.25093,37.25093,0,0,0,8.48437-3.50488,31.59654,31.59654,0,0,0,7.00879-5.44043,23.36168,23.36168,0,0,0,4.79492-7.10156l10.88184,2.95117a31.942,31.942,0,0,1-6.27051,9.68359,43.75593,43.75593,0,0,1-9.40625,7.56153A46.05539,46.05539,0,0,1,959.46831,249.81,51.20182,51.20182,0,0,1,946.00346,251.563Zm35.41211-54.96289a38.54708,38.54708,0,0,0-11.34277-25.084,34.34533,34.34533,0,0,0-10.88184-7.19288,33.88411,33.88411,0,0,0-13.1875-2.582,34.54333,34.54333,0,0,0-13.27929,2.582,34.05365,34.05365,0,0,0-10.97364,7.19288,35.36093,35.36093,0,0,0-7.5625,11.0664,41.88973,41.88973,0,0,0-3.4121,14.01758Z"/><path d="M1060.72319,164.69236a39.45989,39.45989,0,0,0-22.13281,7.00831,35.345,35.345,0,0,0-13.2793,18.25976v59.75781h-12.542V153.626h11.80371v23.05517a43.69458,43.69458,0,0,1,14.38672-17.3374,33.34669,33.34669,0,0,1,19.36523-6.271,12.82826,12.82826,0,0,1,2.39844.18457Z"/><polygon class="cls-5" points="46.866 175.764 123.651 175.764 128.318 179.005 128.318 208.338 215.996 199.062 142.325 199.062 142.325 172.993 129.857 163.674 46.866 163.674 46.866 175.764"/><path class="cls-3" d="M194.6868,232.94226c12.19305,7.75,18.14123,22.48377,11.625,37.125C208.87478,255.91461,205.23288,243.47528,194.6868,232.94226Z"/><path class="cls-3" d="M80.8154,232.94226c12.19305,7.75,18.14123,22.48377,11.625,37.125C95.00338,255.91461,91.36148,243.47528,80.8154,232.94226Z"/><polygon class="cls-3" points="78.318 179.005 121.168 179.005 124.651 181.505 124.651 208.338 120.734 184.421 119.068 182.421 78.318 179.005"/><polygon class="cls-6" points="74.651 100.203 82.651 150.005 121.168 147.338 121.168 143.776 86.913 141.509 77.342 100.203 74.651 100.203"/><path class="cls-3" d="M217.99761,213.50438H205.31743a1,1,0,0,1,0-2h12.68018a1,1,0,0,1,0,2Z"/><path class="cls-3" d="M198.40044,213.50438H155.31889a1,1,0,0,1,0-2h43.08155a1,1,0,0,1,0,2Z"/><polygon class="cls-7" points="270.598 187.655 270.028 187.115 270.048 187.095 270.598 187.655"/><polygon class="cls-7" points="268.814 110.756 268.322 110.29 268.339 110.273 268.814 110.756"/><rect class="cls-8" x="257.61733" y="164.33027" width="77.91148" height="77.91148"/><rect class="cls-7" x="288.20345" y="164.33027" width="16.73922" height="16.9245"/><rect class="cls-7" x="288.20345" y="225.31725" width="16.73922" height="16.9245"/><rect class="cls-8" x="257.61733" y="90.63782" width="67.20075" height="67.20075"/><rect class="cls-7" x="283.99868" y="90.63782" width="14.43803" height="14.59783"/><rect class="cls-7" x="283.99868" y="143.24073" width="14.43803" height="14.59783"/><rect class="cls-8" x="257.61733" y="37.909" width="44.00928" height="44.00928"/><rect class="cls-7" x="274.89428" y="37.909" width="9.45536" height="9.56001"/><rect class="cls-7" x="274.89428" y="72.35826" width="9.45536" height="9.56001"/></svg>