<svg id="Layer_1" data-name="Layer 1" xmlns="http://www.w3.org/2000/svg" xmlns:xlink="http://www.w3.org/1999/xlink" viewBox="0 0 285 100"><defs><style>.cls-1{fill:#227f55;}.cls-2{fill:#6e4698;}.cls-3{fill:#f47119;}.cls-4{fill:#a82420;}.cls-5{fill:#9c73b0;}.cls-6{fill:#51bb8d;}.cls-7{fill:url(#linear-gradient);}.cls-8{fill:#ed4c40;}.cls-9{isolation:isolate;}.cls-10{fill:#202020;}</style><linearGradient id="linear-gradient" x1="18.1448" y1="73.4" x2="72.3448" y2="73.4" gradientTransform="matrix(1, 0, 0, -1, 0, 102)" gradientUnits="userSpaceOnUse"><stop offset="0" stop-color="#f9aa40"/><stop offset="1" stop-color="#f9aa40"/></linearGradient></defs><title>standard-library</title><path class="cls-1" d="M100.9,55.9c0,3.7-1.9,7.4-5.6,10.3l-4.6,3.5h0l-31-23.8a1.79925,1.79925,0,0,1-.7-1.5V36.8a1.88389,1.88389,0,0,1,.2-.8,1.34439,1.34439,0,0,1,.6-.7L76,22.9a2.1075,2.1075,0,0,1,2.4,0l17,13a17.18278,17.18278,0,0,1,3.3,3.3c.1.1.2.3.3.4.2.4.5.7.7,1.1a4.87628,4.87628,0,0,1,.3.7h0l.3.6c0,.1,0,.1.1.2,0,.1.1.2.1.3v.1c0,.1.1.3.1.4v.2c0,.2.1.3.1.5v.1c0,.2.1.3.1.5v.1c0,.2.1.3.1.5v.7h0V55.9Z"/><path class="cls-2" d="M90.7,60.2v9.5h0L68,87.1a21.97822,21.97822,0,0,1-13.5,4.3A21.97822,21.97822,0,0,1,41,87.1l-3.9-3h0a1.79922,1.79922,0,0,1-.7-1.5V75a1.88389,1.88389,0,0,1,.2-.8,1.34435,1.34435,0,0,1,.6-.7L68.7,49.4h0l4-3.1h0Z"/><path class="cls-3" d="M72.6,19.4v1.4a1.76316,1.76316,0,0,1-.8,1.5L57.2,33.5a2.98985,2.98985,0,0,0-1.1,2.3v3.8a1.76316,1.76316,0,0,1-.8,1.5l-19,14.6L18.1,41.8V32.3L28,24.7l12.9-9.9a1.38046,1.38046,0,0,1,.4-.3,1.38046,1.38046,0,0,1,.4-.3c.2-.2.5-.3.7-.5.4-.2.7-.4,1.1-.6a.34914.34914,0,0,0,.2-.1c.1,0,.1-.1.2-.1a.09793.09793,0,0,0,.1.1h.1c.1,0,.2-.1.3-.1.1-.1.2-.1.3-.2a.36737.36737,0,0,1,.3-.1c.1,0,.2-.1.3-.1.1-.1.3-.1.4-.2.1,0,.2-.1.3-.1s.2-.1.3-.1.3-.1.4-.1h0c.1,0,.3-.1.4-.1.2-.1.4-.1.5-.2l.2-.1a2.91986,2.91986,0,0,1,.9-.2.36737.36737,0,0,0,.3-.1,1.70178,1.70178,0,0,1,.7-.1.36737.36737,0,0,0,.3-.1c.2,0,.3-.1.5-.1h1.4a2.20185,2.20185,0,0,0,.8-.1h5a.90149.90149,0,0,1,.5.1.60127.60127,0,0,1,.4.1c.2,0,.3.1.5.1a.36738.36738,0,0,1,.3.1,2.9584,2.9584,0,0,0,1,.2c.1,0,.3.1.4.1h0c.1,0,.3.1.4.1l.9.3c.1,0,.3.1.4.1h.1c.1,0,.2.1.4.1.1.1.3.1.4.2.4.2.9.4,1.3.6.1.1.2.1.3.2.2.1.3.2.4.2a3.50818,3.50818,0,0,1,.8.5h0a4.23346,4.23346,0,0,1,.7.5h0c.2.2.5.3.7.5l3.8,2.9h0a4.34986,4.34986,0,0,1,.6.7A.98629.98629,0,0,1,72.6,19.4Z"/><path class="cls-4" d="M49.9,57.6V59a2.08761,2.08761,0,0,1-.8,1.6L34.5,71.8a2.98985,2.98985,0,0,0-1.1,2.3V78a1.61246,1.61246,0,0,1-.6,1.3h0a1.81667,1.81667,0,0,1-2,0L13.5,66.1c-3.7-2.9-5.6-6.6-5.6-10.4V45.5a1.26834,1.26834,0,0,1,.1-.6v-.5H8c0-.2.1-.3.1-.5v-.2a1.42123,1.42123,0,0,1,.2-.6c0-.1.1-.2.1-.3s.1-.2.1-.3c.1-.2.1-.3.2-.5,0-.1.1-.2.1-.3h0c0-.1.1-.1.1-.2v-.1c0-.1.1-.1.1-.2v-.1l.2-.1h0a.34914.34914,0,0,1,.1-.2c0-.1.1-.1.1-.2a.34914.34914,0,0,1,.1-.2.34914.34914,0,0,1,.1-.2c.1-.2.3-.4.4-.6.1-.1.1-.2.2-.3l.1-.1V39l.1-.1a.09794.09794,0,0,1,.1-.1l.1-.1.1-.1h0l.2-.2c0-.1.1-.1.1-.2l.2-.2.6-.6.4-.4h0a.09794.09794,0,0,0,.1-.1h.1l.3-.3.1-.1c.1-.1.2-.1.3-.2h0l.3-.3L18,32.5l4.2,3.2L24,37.1l12.1,9.3,4,3.1,8.8,6.7a1.34437,1.34437,0,0,1,.6.7h0A.86648.86648,0,0,1,49.9,57.6Z"/><path class="cls-5" d="M90.7,60.2h0l-4,3.1L68,77.6a21.97822,21.97822,0,0,1-13.5,4.3A21.97822,21.97822,0,0,1,41,77.6l-4.4-3.4a1.34435,1.34435,0,0,1,.6-.7L68.7,49.4h0l4-3.1h0Z"/><path class="cls-6" d="M100.9,46.3v.3a13.1474,13.1474,0,0,1-5.6,10l-4.6,3.5h0L72.6,46.3,59.2,36a1.34439,1.34439,0,0,1,.6-.7L76,22.9a2.1075,2.1075,0,0,1,2.4,0l17,13a17.18278,17.18278,0,0,1,3.3,3.3c.1.1.2.3.3.4.2.4.5.7.7,1.1a4.87628,4.87628,0,0,1,.3.7h0l.3.6c0,.1.1.3.1.4a.34914.34914,0,0,0,.1.2c0,.1.1.3.1.4v.2c0,.2.1.3.1.5v.1c0,.2.1.3.1.5v.1c0,.2.1.3.1.5v.7h0Z"/><path class="cls-7" d="M72.4,18.6,36.3,46.3l-8.4-6.5-9.7-7.5h0l9.9-7.6L41,14.8a3.03885,3.03885,0,0,1,.7-.5c.2-.2.5-.3.7-.5.4-.2.7-.4,1.1-.6a.34914.34914,0,0,0,.2-.1c.1,0,.1-.1.2-.1h.2c.1,0,.2-.1.3-.1.1-.1.2-.1.3-.2a.36737.36737,0,0,1,.3-.1c.1,0,.2-.1.3-.1.1-.1.3-.1.4-.2.1,0,.2-.1.3-.1s.2-.1.3-.1.3-.1.4-.1h0c.1,0,.3-.1.4-.1.2-.1.4-.1.5-.2l.2-.1a2.91986,2.91986,0,0,1,.9-.2.36737.36737,0,0,0,.3-.1,1.70178,1.70178,0,0,1,.7-.1.36737.36737,0,0,0,.3-.1c.2,0,.3-.1.5-.1h1.4a2.20185,2.20185,0,0,0,.8-.1h5a.90149.90149,0,0,1,.5.1.60127.60127,0,0,1,.4.1c.2,0,.3.1.5.1a.36738.36738,0,0,1,.3.1,2.9584,2.9584,0,0,0,1,.2c.1,0,.3.1.4.1h0c.1,0,.3.1.4.1l.9.3c.1,0,.3.1.4.1h.1c.1,0,.2.1.4.1.1.1.3.1.4.2.4.2.9.4,1.3.6.1.1.2.1.3.2.2.1.3.2.4.2a3.50818,3.50818,0,0,1,.8.5h0a4.23346,4.23346,0,0,1,.7.5h0c.2.2.5.3.7.5l3.8,2.9h0A1.72348,1.72348,0,0,1,72.4,18.6Z"/><path class="cls-8" d="M49.7,56.8h0l-18,13.8L13.5,56.7C9.8,53.8,7.9,50,7.9,46.3v-.7A1.26834,1.26834,0,0,1,8,45v-.5H8c0-.2.1-.3.1-.5v-.2a1.42132,1.42132,0,0,1,.2-.6c0-.1.1-.2.1-.3s.1-.2.1-.3c.1-.2.1-.3.2-.5,0-.1.1-.2.1-.3h0c0-.1.1-.1.1-.2v-.1c0-.1.1-.1.1-.2v-.1l.2-.2h0a.34914.34914,0,0,1,.1-.2c0-.1.1-.1.1-.2a.34914.34914,0,0,1,.1-.2.34914.34914,0,0,1,.1-.2c.1-.2.3-.4.4-.6.1-.1.1-.2.2-.3,0-.1.1-.1.1-.2s.1-.1.1-.2a.09794.09794,0,0,1,.1-.1l.1-.1.1-.1h0l.2-.2c0-.1.1-.1.1-.2l.2-.2.6-.6.4-.4h0a15922629181314.94,15922629181314.94,0,0,0,.2-.2h0l.3-.3.1-.1c.1-.1.2-.1.3-.2h0l.3-.3L18,32.4,24,37l12.1,9.3,4,3.1,8.8,6.7A1.85262,1.85262,0,0,1,49.7,56.8Z"/><g class="cls-9"><path class="cls-10" d="M133.333,16.29785a25.34544,25.34544,0,0,0,.17187,2.96,21.88694,21.88694,0,0,0,.53711,2.87891l-1.58105.30371a5.37016,5.37016,0,0,0-1.93555-3.72949,7.2551,7.2551,0,0,0-4.49023-1.2168,6.89031,6.89031,0,0,0-4.34864,1.29785,4.04511,4.04511,0,0,0-1.67285,3.34473q0,3.36474,7.13574,5.75781.95363.30323,1.46.48633A11.0352,11.0352,0,0,1,133.41406,31.29a6.45489,6.45489,0,0,1,1.541,4.38867,8.04338,8.04338,0,0,1-3.06153,6.53809,12.41315,12.41315,0,0,1-8.10937,2.5039,21.79814,21.79814,0,0,1-7.48047-1.29785c.01367-.13476.02344-.29394.03027-.47656s.01075-.44922.01075-.80078a24.78575,24.78575,0,0,0-.16211-2.83789,25.19386,25.19386,0,0,0-.48731-2.79785l1.8252-.42579a7.22289,7.22289,0,0,0,2.08789,4.86524,9.04361,9.04361,0,0,0,10.05469.03125,4.75214,4.75214,0,0,0,1.88574-3.88281q0-3.36475-5.87891-5.23047c-.55469-.17481-.98633-.31739-1.29785-.42578a13.60344,13.60344,0,0,1-5.83789-3.22266,6.883,6.883,0,0,1-1.76367-4.86621,7.3115,7.3115,0,0,1,2.75683-5.81738,10.33465,10.33465,0,0,1,6.91309-2.332,19.99587,19.99587,0,0,1,3.081.24317A36.73208,36.73208,0,0,1,133.333,16.29785Z"/><path class="cls-10" d="M143.124,20.61621l1.33887.40527q-.123,1.11475-.19336,1.99707-.07031.88185-.09082,1.7334h1.43945q1.15577,0,2.35157-.03027,1.19531-.03076,2.41211-.0918l-.48633,2.21q-1.29786-.10107-2.44336-.13183t-2.28027-.03028h-.95313q-.12158,3.48633-.17187,5.3418-.05127,1.85449-.05079,3.07129,0,4.582.62891,5.9707a2.26255,2.26255,0,0,0,2.25,1.38868,4.603,4.603,0,0,0,1.49023-.28418,13.32079,13.32079,0,0,0,1.9961-.93262l.66894,1.33789a21.966,21.966,0,0,1-3.52734,1.77441,7.97747,7.97747,0,0,1-2.75684.59766,3.52465,3.52465,0,0,1-3.16211-1.49024,8.87341,8.87341,0,0,1-.99414-4.79394q0-.64893.0918-4.63281.09083-3.98292.09082-7.3086c-.12109,0-.29687.00782-.52637.02051q-1.68311.06153-2.31152.06152v-1.46a5.9963,5.9963,0,0,0,3.28418-1.46972A6.93971,6.93971,0,0,0,143.124,20.61621Z"/><path class="cls-10" d="M171.16113,41.416l.56836,1.27734a18.37232,18.37232,0,0,1-2.77734,1.69238,5.08009,5.08009,0,0,1-2.02735.59864,2.4173,2.4173,0,0,1-1.94628-.76075,3.71229,3.71229,0,0,1-.71-2.30078,25.04848,25.04848,0,0,1-3.66894,2.11817,6.6345,6.6345,0,0,1-2.61523.63867,4.40958,4.40958,0,0,1-3.42579-1.541,5.445,5.445,0,0,1-1.3789-3.77051q0-3.791,8.16992-5.71679,1.92627-.44532,3-.709,0-.3457.02051-.99414.06152-1.3374.06054-1.74316a4.6616,4.6616,0,0,0-.87109-3.11133,3.33009,3.33009,0,0,0-2.65625-1.00391,5.08509,5.08509,0,0,0-2.74707.63868,1.96333,1.96333,0,0,0-1.00293,1.73339,2.6443,2.6443,0,0,0,.01953.27344,2.39273,2.39273,0,0,1,.02051.25391,1.229,1.229,0,0,1-.6084,1.04394,2.52707,2.52707,0,0,1-1.459.415,1.88413,1.88413,0,0,1-1.07422-.24316.85372.85372,0,0,1-.34473-.75q0-1.62159,2.73633-3.61914a9.48947,9.48947,0,0,1,5.65625-1.9961,5.59427,5.59427,0,0,1,4.27734,1.55078,6.40225,6.40225,0,0,1,1.46,4.55079q0,1.623-.19238,4.9873-.19336,3.36475-.19336,5.1084a3.69739,3.69739,0,0,0,.29395,1.78418,1.13579,1.13579,0,0,0,1.04492.4668,2.53761,2.53761,0,0,0,.84082-.19336Q170.148,41.90283,171.16113,41.416Zm-6.91308-6.85254q-.38526.10254-1.15528.30468-6.58885,1.80469-6.58886,4.25684a2.93026,2.93026,0,0,0,.85156,2.17969,3.06612,3.06612,0,0,0,2.251.84082,5.40765,5.40765,0,0,0,1.96582-.44531,15.10912,15.10912,0,0,0,2.59472-1.41993Z"/><path class="cls-10" d="M179.291,23.63672l-.24317,3.40625a22.83487,22.83487,0,0,1,3.9834-2.41309,7.75,7.75,0,0,1,3.1123-.75,5.69373,5.69373,0,0,1,4.4795,1.68262,7.38744,7.38744,0,0,1,1.501,5.04785q0,.02051-.0205,1.78418t-.02051,3.52735q0,.75-.02051,1.875t-.01953,1.53124a6.86445,6.86445,0,0,0,.40527,2.96,1.63375,1.63375,0,0,0,1.54.68847,2.319,2.319,0,0,0,.2334-.01953,2.39254,2.39254,0,0,1,.25391-.02051v1.41895q-1.8252-.12159-2.75782-.16211-.93163-.041-1.56054-.041-.97266,0-2.1084.05078-1.13526.05127-2.31153.15235l-.01953-1.41895h.30371q2.59425,0,2.63575-4.74414c.01269-.1748.01953-.31054.01953-.40527l.041-4.3584v-.73047q0-3.75-.87207-4.97656a3.429,3.429,0,0,0-3-1.22656,7.25372,7.25372,0,0,0-2.60547.55761A15.34875,15.34875,0,0,0,179.21,28.70508q-.082,2.10791-.12207,3.9834-.041,1.875-.04,3.3955v2.79786a8.71217,8.71217,0,0,0,.39551,3.38574,1.61565,1.61565,0,0,0,1.55078.709,2.33184,2.33184,0,0,0,.25293-.01953,2.45069,2.45069,0,0,1,.27344-.02051v1.41895q-1.74317-.12159-2.7461-.16211c-.66894-.02734-1.2207-.041-1.65234-.041q-.60791,0-1.60156.041-.99317.041-2.77735.16211l-.0205-1.41895h.38476q2.53419,0,2.55469-4.92675,0-.72949.02051-1.13477l.04-4.9668V29.90137a7.05251,7.05251,0,0,0-.30371-2.60547,1.12938,1.12938,0,0,0-1.11524-.61817,2.80529,2.80529,0,0,0-.415.04,4.6829,4.6829,0,0,0-.53711.12207l-.24414-1.25683a25.6241,25.6241,0,0,0,3.05176-.77051Q177.68848,24.32617,179.291,23.63672Z"/><path class="cls-10" d="M215.82227,12.93262l-.02051.36523q-.24317,7.19677-.38477,13.90723l-.041,3.16211q-.041,1.11474-.07032,2.96972-.03075,1.856-.03027,4.085v.791a19.52482,19.52482,0,0,0,.22266,3.92285q.22264.76026.87207.75977a4.14022,4.14022,0,0,0,.80078-.08106,5.70934,5.70934,0,0,0,.86133-.24316l.32422,1.27734a17.12306,17.12306,0,0,1-2.77735.82129,13.813,13.813,0,0,1-2.7373.27344l-.58789-.02051q-.1421-.87157-.21289-1.61133-.07032-.73974-.07032-1.40918a21.89163,21.89163,0,0,1-3.81152,2.04786,8.23438,8.23438,0,0,1-2.91895.56738,7.16121,7.16121,0,0,1-5.77832-2.68653,10.57123,10.57123,0,0,1-2.22949-6.98339,10.60971,10.60971,0,0,1,2.8584-7.72364,9.888,9.888,0,0,1,7.41992-2.93945,13.09578,13.09578,0,0,1,2.17871.19238,20.34338,20.34338,0,0,1,2.4834.59766c0-.12109.00684-.30371.02051-.54688q.10107-3.54784.10156-6.38574a3.09724,3.09724,0,0,0-.39551-1.80469A1.52877,1.52877,0,0,0,210.5918,15.71a3.26724,3.26724,0,0,0-.50684.05078q-.30322.05127-.83105.15235l-.24317-1.31836q1.5-.26222,3.18262-.67871Q213.87647,13.50147,215.82227,12.93262ZM212.0918,27.71191a12.54428,12.54428,0,0,0-2.57032-1.13574,8.46565,8.46565,0,0,0-2.44824-.36426,6.05349,6.05349,0,0,0-4.8164,1.94532,8.08635,8.08635,0,0,0-1.7002,5.49414,9.73693,9.73693,0,0,0,1.66992,5.99023,5.30292,5.30292,0,0,0,4.46192,2.2207,7.67011,7.67011,0,0,0,2.39843-.42578,17.07822,17.07822,0,0,0,2.88379-1.31836Z"/><path class="cls-10" d="M238.71,41.416l.56836,1.27734a18.37232,18.37232,0,0,1-2.77734,1.69238,5.08009,5.08009,0,0,1-2.02735.59864,2.41733,2.41733,0,0,1-1.94629-.76075,3.71236,3.71236,0,0,1-.71-2.30078,25.049,25.049,0,0,1-3.66894,2.11817,6.63454,6.63454,0,0,1-2.61524.63867,4.40958,4.40958,0,0,1-3.42578-1.541,5.445,5.445,0,0,1-1.3789-3.77051q0-3.791,8.16992-5.71679,1.92627-.44532,3-.709,0-.3457.02051-.99414.06151-1.3374.06054-1.74316a4.6616,4.6616,0,0,0-.87109-3.11133,3.33009,3.33009,0,0,0-2.65625-1.00391,5.08507,5.08507,0,0,0-2.74707.63868,1.96333,1.96333,0,0,0-1.00293,1.73339,2.64148,2.64148,0,0,0,.01953.27344,2.39273,2.39273,0,0,1,.02051.25391,1.229,1.229,0,0,1-.6084,1.04394,2.52708,2.52708,0,0,1-1.459.415,1.88411,1.88411,0,0,1-1.07421-.24316.85372.85372,0,0,1-.34473-.75q0-1.62159,2.73633-3.61914a9.48947,9.48947,0,0,1,5.65625-1.9961,5.59428,5.59428,0,0,1,4.27734,1.55078,6.40229,6.40229,0,0,1,1.46,4.55079q0,1.623-.19238,4.9873Q235,38.29346,235,40.03711a3.69739,3.69739,0,0,0,.29395,1.78418,1.13577,1.13577,0,0,0,1.04492.4668,2.53761,2.53761,0,0,0,.84082-.19336Q237.69677,41.90283,238.71,41.416Zm-6.91308-6.85254q-.38526.10254-1.15528.30468-6.58887,1.80469-6.58887,4.25684a2.93023,2.93023,0,0,0,.85157,2.17969,3.06612,3.06612,0,0,0,2.251.84082,5.40756,5.40756,0,0,0,1.96582-.44531,15.1088,15.1088,0,0,0,2.59473-1.41993Z"/><path class="cls-10" d="M246.79883,23.63672q-.14209,1.37841-.22266,2.78711-.082,1.41065-.12207,2.99023a17.543,17.543,0,0,1,3.03125-4.17578,4.22478,4.22478,0,0,1,2.86817-1.27734,2.58175,2.58175,0,0,1,1.82421.61816,2.16826,2.16826,0,0,1,.66895,1.67285,1.97976,1.97976,0,0,1-.43555,1.28711,1.28853,1.28853,0,0,1-1.02343.53711,2.85046,2.85046,0,0,1-1.125-.39453,2.94739,2.94739,0,0,0-1.30762-.39551,3.22088,3.22088,0,0,0-2.1084.92188,11.9337,11.9337,0,0,0-2.21,2.86914v2.22949q0,3.24463.05078,5.26074a22.00975,22.00975,0,0,0,.15137,2.56446,1.99634,1.99634,0,0,0,.78125,1.41894,3.95355,3.95355,0,0,0,2.03711.38574h.58789v1.41895q-1.58056-.12159-2.81836-.18262-1.23633-.06006-2.08789-.06055-1.17627,0-2.42188.06055-1.248.06153-2.60547.18262V42.93652h.46582a2.36963,2.36963,0,0,0,2.00782-.71,6.49041,6.49041,0,0,0,.52636-3.30371V30.20508a7.99079,7.99079,0,0,0-.30371-2.81738,1.12651,1.12651,0,0,0-1.11523-.62891c-.1084,0-.22266.00391-.34473.00976-.12109.00782-.32422.03125-.60742.07129l-.24414-1.25683q1.43994-.32373,2.96-.81055Q245.17676,24.28468,246.79883,23.63672Z"/><path class="cls-10" d="M275.32324,12.93262l-.02051.36523q-.24316,7.19677-.38574,13.90723l-.04,3.16211q-.041,1.11474-.07129,2.96972-.03075,1.856-.03027,4.085v.791a19.60418,19.60418,0,0,0,.22266,3.92285q.22412.76026.87207.75977a4.13271,4.13271,0,0,0,.80078-.08106,5.64646,5.64646,0,0,0,.86133-.24316l.32422,1.27734a17.0946,17.0946,0,0,1-2.77735.82129,13.80327,13.80327,0,0,1-2.73633.27344l-.58789-.02051q-.14208-.87157-.21289-1.61133-.07177-.73974-.07129-1.40918a21.85439,21.85439,0,0,1-3.81054,2.04786,8.23954,8.23954,0,0,1-2.91993.56738,7.158,7.158,0,0,1-5.77734-2.68653,10.5664,10.5664,0,0,1-2.23047-6.98339,10.60971,10.60971,0,0,1,2.8584-7.72364,9.88951,9.88951,0,0,1,7.41992-2.93945,13.1071,13.1071,0,0,1,2.17969.19238,20.38655,20.38655,0,0,1,2.4834.59766c0-.12109.00683-.30371.02051-.54688q.10107-3.54784.10058-6.38574a3.09835,3.09835,0,0,0-.39453-1.80469,1.53,1.53,0,0,0-1.30762-.52734,3.24509,3.24509,0,0,0-.50683.05078q-.30469.05127-.83106.15235l-.24414-1.31836q1.5-.26222,3.1836-.67871Q273.376,13.50147,275.32324,12.93262Zm-3.73047,14.77929a12.59057,12.59057,0,0,0-2.57031-1.13574,8.4706,8.4706,0,0,0-2.44824-.36426,6.05693,6.05693,0,0,0-4.81738,1.94532,8.09108,8.09108,0,0,0-1.69922,5.49414,9.73681,9.73681,0,0,0,1.66894,5.99023,5.30344,5.30344,0,0,0,4.46289,2.2207,7.67491,7.67491,0,0,0,2.39844-.42578,17.11318,17.11318,0,0,0,2.88379-1.31836Z"/></g><g class="cls-9"><path class="cls-10" d="M116.14258,53.83984q2.168.12159,3.29394.17286,1.125.05127,1.81446.05078,1.3169,0,2.585-.05078,1.26708-.05127,2.52344-.15235v1.419h-.62793a2.206,2.206,0,0,0-2.16895,1.10449q-.56836,1.103-.56836,5.07422v4.03027l.06152,14.84863q1.13379.06006,2.15821.09082,1.02392.03077,1.93652.03028,5.4331,0,7.00391-1.00293a6.94849,6.94849,0,0,0,2.5039-3.88281l1.46.44628q-.62988,1.74317-1.11523,3.42579-.48633,1.68311-.85156,3.38574-3.36476-.10107-6.19336-.15235-2.82861-.0498-5.30078-.05078-1.74463,0-3.89258.05078-2.14893.05127-5.06836.15235V81.5127c.09473.01367.18555.02343.27344.03027s.21972.00976.3955.00976q2.73633-.019,2.75684-7.79882,0-1.76222.02051-2.75489l.041-5.50976q0-.89209.01953-2.28906.02052-1.39748.02051-1.94532,0-3.72655-.59765-4.85058a2.38333,2.38333,0,0,0-2.32129-1.125h-.16211Z"/><path class="cls-10" d="M145.90234,62.11133q-.02051.7705-.06054,2.18945-.26367,8.1504-.26368,11.47461v2.14844a5.99536,5.99536,0,0,0,.44629,2.96,2.0527,2.0527,0,0,0,1.74317.6084c.08105,0,.18945-.00684.32422-.02051.13476-.0127.23632-.02051.30468-.02051v1.37891q-1.72411-.12159-2.77734-.16211-1.05468-.041-1.78418-.041-.64893,0-1.65234.041t-3.01074.16211V81.41113h.50683q2.51367,0,2.53418-4.94629V75.34961l.08106-5.00781q0-.54639.0205-1.37793c.0127-.55469.02051-.92578.02051-1.11524a4.87617,4.87617,0,0,0-.31445-2.16894,1.222,1.222,0,0,0-1.14551-.52735c-.1084,0-.26758.00977-.47656.03028-.21.0205-.43555.04394-.67871.07129l-.20313-1.27735q1.60107-.30468,3.19336-.77051Q144.30079,62.74024,145.90234,62.11133Zm-2.18945-9.54785,1.43945,1.07422a3.249,3.249,0,0,1,.83106.85156,1.66678,1.66678,0,0,1,.26367.8916,1.46043,1.46043,0,0,1-.21289.80078,3.37619,3.37619,0,0,1-.80078.78027l-1.52051,1.15625L142.294,57.00293a4.02637,4.02637,0,0,1-.85157-.86133,1.49048,1.49048,0,0,1-.26367-.8418,1.47042,1.47042,0,0,1,.20313-.78027,3.22754,3.22754,0,0,1,.831-.80078Z"/><path class="cls-10" d="M157.417,51.40723l-.01953.73047q-.30322,7.94677-.30273,11.63574v1.33789a19.85712,19.85712,0,0,1,3.67382-2.0166,8.4031,8.4031,0,0,1,3.06543-.61817,7.40858,7.40858,0,0,1,5.76368,2.7666,9.83954,9.83954,0,0,1,2.416,6.7002,10.759,10.759,0,0,1-3.18262,8.0791,11.64754,11.64754,0,0,1-8.4746,3.0918,25.615,25.615,0,0,1-3.40528-.22364,22.74807,22.74807,0,0,1-3.28418-.68945q.12159-6.791.18262-10.77441.06006-3.98437.06055-5.15918V63.57129q0-1.05469.0205-2.67578.01905-1.623.01954-2.18946a12.58111,12.58111,0,0,0-.31348-3.53808,1.16473,1.16473,0,0,0-1.166-.86133,4.90264,4.90264,0,0,0-.49707.03027q-.293.03076-.69922.09082l-.22265-1.27636q1.56006-.3252,3.15722-.751Q155.8042,51.97559,157.417,51.40723Zm.041,28.76757a8.4279,8.4279,0,0,0,1.86816.71875,8.24628,8.24628,0,0,0,2.01074.2334,6.84374,6.84374,0,0,0,5.30079-2.09765,8.22848,8.22848,0,0,0,1.92968-5.78809,9.28139,9.28139,0,0,0-1.73633-5.84863,5.43739,5.43739,0,0,0-4.499-2.24024,8.08848,8.08848,0,0,0-2.39648.38477,15.531,15.531,0,0,0-2.76172,1.2168q-.02051,1.76367-.03028,3.335-.01024,1.57177-.00976,2.90918,0,3.082.08105,4.78418A15.0666,15.0666,0,0,0,157.458,80.1748Z"/><path class="cls-10" d="M180.91309,62.11133q-.14209,1.37841-.22266,2.78711-.08056,1.41065-.12109,2.99023a17.57112,17.57112,0,0,1,3.03027-4.17578,4.22659,4.22659,0,0,1,2.86816-1.27734,2.58594,2.58594,0,0,1,1.8252.61816,2.16825,2.16825,0,0,1,.66894,1.67285,1.97976,1.97976,0,0,1-.43554,1.28711,1.29031,1.29031,0,0,1-1.02442.53711,2.85056,2.85056,0,0,1-1.125-.39453,2.94385,2.94385,0,0,0-1.30761-.39551,3.22282,3.22282,0,0,0-2.1084.92188,11.93345,11.93345,0,0,0-2.21,2.86914v2.22949q0,3.24463.05078,5.26074a22.16,22.16,0,0,0,.15234,2.56446,1.99908,1.99908,0,0,0,.78028,1.41894,3.956,3.956,0,0,0,2.0371.38574h.58887v1.41895q-1.582-.12159-2.81836-.18262-1.23633-.06006-2.08789-.06055-1.17627,0-2.42285.06055-1.24658.06153-2.60449.18262V81.41113h.46582a2.3687,2.3687,0,0,0,2.00683-.71,6.4761,6.4761,0,0,0,.52735-3.30371V68.67969a7.98294,7.98294,0,0,0-.30469-2.81739,1.12511,1.12511,0,0,0-1.11426-.6289c-.1084,0-.22363.0039-.34472.00976-.12207.00782-.32422.03125-.6084.07129l-.24317-1.25683q1.43848-.32373,2.96-.81055Q179.292,62.75929,180.91309,62.11133Z"/><path class="cls-10" d="M208.99121,79.89062l.56738,1.27735a18.37232,18.37232,0,0,1-2.77734,1.69238,5.07156,5.07156,0,0,1-2.02734.59863,2.4173,2.4173,0,0,1-1.94629-.76074,3.70623,3.70623,0,0,1-.709-2.30078,25.04933,25.04933,0,0,1-3.66992,2.11816,6.63055,6.63055,0,0,1-2.61523.63868,4.40958,4.40958,0,0,1-3.42578-1.541,5.4495,5.4495,0,0,1-1.37891-3.77051q0-3.791,8.16992-5.71679,1.92627-.44532,3.001-.709,0-.3457.02051-.99414.06-1.3374.06054-1.74316a4.66141,4.66141,0,0,0-.87207-3.11133,3.32788,3.32788,0,0,0-2.65527-1.00391,5.08285,5.08285,0,0,0-2.74707.63867,1.9643,1.9643,0,0,0-1.00391,1.7334,2.43488,2.43488,0,0,0,.02051.27344,2.39273,2.39273,0,0,1,.02051.25391,1.23116,1.23116,0,0,1-.6084,1.04394,2.52808,2.52808,0,0,1-1.46.415,1.88413,1.88413,0,0,1-1.07422-.24316.856.856,0,0,1-.34473-.75q0-1.62159,2.73731-3.61914a9.48892,9.48892,0,0,1,5.65527-1.9961,5.59655,5.59655,0,0,1,4.27832,1.55078,6.4065,6.4065,0,0,1,1.459,4.55079q0,1.623-.19239,4.9873-.19335,3.36474-.19238,5.1084a3.68554,3.68554,0,0,0,.29395,1.78418,1.134,1.134,0,0,0,1.04394.4668,2.54229,2.54229,0,0,0,.8418-.19336Q207.97657,80.37745,208.99121,79.89062Zm-6.91309-6.85253q-.38524.10254-1.15527.30468-6.58887,1.8047-6.58887,4.25684a2.93023,2.93023,0,0,0,.85157,2.17969,3.06224,3.06224,0,0,0,2.25.84082,5.41624,5.41624,0,0,0,1.96679-.44532,15.108,15.108,0,0,0,2.59473-1.41992Z"/><path class="cls-10" d="M217.0791,62.11133q-.14208,1.37841-.22265,2.78711-.08058,1.41065-.1211,2.99023a17.5714,17.5714,0,0,1,3.03027-4.17578,4.22662,4.22662,0,0,1,2.86817-1.27734,2.5859,2.5859,0,0,1,1.82519.61816,2.16826,2.16826,0,0,1,.66895,1.67285,1.97976,1.97976,0,0,1-.43555,1.28711,1.29028,1.29028,0,0,1-1.02441.53711,2.85046,2.85046,0,0,1-1.125-.39453,2.94388,2.94388,0,0,0-1.30762-.39551,3.22286,3.22286,0,0,0-2.1084.92188,11.934,11.934,0,0,0-2.21,2.86914v2.22949q0,3.24463.05078,5.26074a22.15665,22.15665,0,0,0,.15235,2.56446,1.99908,1.99908,0,0,0,.78027,1.41894,3.956,3.956,0,0,0,2.03711.38574h.58887v1.41895q-1.582-.12159-2.81836-.18262-1.23633-.06006-2.08789-.06055-1.17627,0-2.42285.06055-1.24659.06153-2.6045.18262V81.41113h.46582a2.36873,2.36873,0,0,0,2.00684-.71,6.47625,6.47625,0,0,0,.52734-3.30371V68.67969a7.98327,7.98327,0,0,0-.30468-2.81739,1.12511,1.12511,0,0,0-1.11426-.6289c-.1084,0-.22363.0039-.34473.00976-.12207.00782-.32422.03125-.6084.07129l-.24316-1.25683q1.43847-.32373,2.96-.81055Q215.458,62.75929,217.0791,62.11133Z"/><path class="cls-10" d="M226.44531,62.96289q1.5205.10107,2.43262.1416.9126.041,1.56152.041.60792,0,1.55078-.041.94189-.03956,2.625-.16211v1.41895h-.52734a2.672,2.672,0,0,0-1.41894.27441,1.07465,1.07465,0,0,0-.40528.96289,39.67122,39.67122,0,0,0,1.78418,5.35157q1.70215,4.582,2.81738,7.72363,2.81836-6.68994,3.96387-9.64942a16.91463,16.91463,0,0,0,1.14551-3.54785.9153.9153,0,0,0-.44629-.85156,3.02121,3.02121,0,0,0-1.46-.26367h-.30371V62.94238q.9126.082,1.79394.12207.88183.041,1.69336.04.668,0,1.54-.04.87159-.041,1.86524-.12207v1.41895h-.16211a2.03884,2.03884,0,0,0-1.125.29394,2.31583,2.31583,0,0,0-.78028.94336q-.041.10108-.34472.79-2.14893,4.96729-4.60254,10.4209-1.21582,2.75684-3.10156,7.19629-4.0547,9.60938-6.24414,9.60937a1.87909,1.87909,0,0,1-1.35743-.52734A1.77791,1.77791,0,0,1,228.3916,91.75q0-1.11474,1.56152-1.39844a3.82716,3.82716,0,0,0,.89161-.22363q1.13525-.44532,3.26367-5.14941.5874-1.3169.93262-2.06739-1.39893-3.60791-3.44629-9.26465-3.38526-9.32519-4.8252-9.32519a1.43244,1.43244,0,0,0-.19238.00976.91976.91976,0,0,1-.13184.01075Z"/></g></svg>