<?xml version="1.0" encoding="utf-8"?>
<!-- Generator: Adobe Illustrator 21.1.0, SVG Export Plug-In . SVG Version: 6.00 Build 0)  -->
<svg version="1.1" id="Layer_1" xmlns="http://www.w3.org/2000/svg" xmlns:xlink="http://www.w3.org/1999/xlink" x="0px" y="0px"
	 viewBox="0 0 288 217" style="enable-background:new 0 0 288 217;" xml:space="preserve">
<style type="text/css">
	.st0{fill:#8C8C8C;}
</style>
<g>
	<g>
		<path d="M166.7,56.5l-13.2-42.9h-22.8l33,45C164.6,57.6,165.6,56.9,166.7,56.5z"/>
		<path d="M163.1,74.3l-32.4,36.2h22.8l12.6-33.7C165,76.2,163.9,75.4,163.1,74.3z"/>
		<path d="M178.8,69.7l11.8,3.8V50.6l-13,10.1c1,1.7,1.5,3.8,1.5,6C179.1,67.8,179,68.7,178.8,69.7z"/>
		<path d="M160.7,64.9l-67-14.2v22.8l66.9-5.8c0-0.3,0-0.5,0-0.8C160.6,66.1,160.6,65.5,160.7,64.9z"/>
		<path d="M174.4,57.2l10.1-21.4l-16.1-16.1l1.1,36.1c0.1,0,0.2,0,0.3,0C171.5,55.8,173,56.3,174.4,57.2z"/>
		<path d="M99.8,88.3l16.1,16.1l45.9-32c-0.4-0.9-0.8-1.8-1-2.8L99.8,88.3z"/>
		<path d="M169.4,77.7l-1.1,26.6l16.1-16.1l-8.8-12.9c-1.6,1.5-3.6,2.4-5.8,2.4C169.7,77.8,169.6,77.8,169.4,77.7z"/>
		<path class="st0" d="M115.9,19.7L99.8,35.8l61.3,27.1c0.3-1,0.7-1.9,1.2-2.7L115.9,19.7z"/>
	</g>
	<g>
		<g>
			<path d="M33.4,134c-0.1-1.4-0.4-2.6-1-3.5c-0.5-0.9-1.2-1.6-2.1-2.2c-0.9-0.5-1.8-0.9-2.9-1.1c-1.1-0.2-2.2-0.3-3.4-0.3
				c-1.2,0-2.3,0.1-3.4,0.4c-1,0.3-1.9,0.6-2.7,1.1c-0.8,0.5-1.3,1.1-1.8,1.8c-0.4,0.7-0.6,1.6-0.6,2.5c0,1.1,0.2,2,0.7,2.7
				c0.5,0.7,1.1,1.3,2.1,1.8c0.9,0.5,2,0.9,3.4,1.2c1.4,0.3,3,0.7,4.8,1c1.4,0.2,2.7,0.6,4,0.9c1.3,0.4,2.5,0.9,3.5,1.5
				c1,0.6,1.8,1.5,2.5,2.5c0.6,1,0.9,2.3,0.9,3.9c0,2.1-0.4,3.7-1.1,5.1c-0.8,1.3-1.7,2.4-2.9,3.2c-1.2,0.8-2.5,1.3-4,1.7
				c-1.5,0.3-3,0.5-4.4,0.5c-1.9,0-3.7-0.2-5.3-0.6c-1.6-0.4-3-1-4.2-2c-1.2-0.9-2.2-2.2-2.9-3.7c-0.7-1.5-1.1-3.4-1.2-5.6h3.1
				c0.1,1.7,0.5,3.2,1.1,4.3c0.6,1.1,1.3,2,2.2,2.7c0.9,0.7,2,1.1,3.2,1.4c1.2,0.2,2.6,0.4,4,0.4c1.1,0,2.2-0.1,3.3-0.3
				c1.1-0.2,2.1-0.6,2.9-1c0.9-0.5,1.6-1.2,2.1-2c0.5-0.9,0.8-1.9,0.8-3.2c0-1.3-0.3-2.3-0.9-3.1c-0.6-0.8-1.5-1.4-2.5-1.8
				c-1-0.5-2.2-0.8-3.5-1c-1.3-0.2-2.6-0.5-4-0.7c-3.6-0.6-6.3-1.6-8.2-2.9c-1.9-1.3-2.8-3.3-2.8-6c0-1.8,0.3-3.3,1-4.6
				c0.7-1.2,1.6-2.2,2.7-3c1.1-0.7,2.4-1.3,3.8-1.6c1.4-0.3,2.8-0.5,4.3-0.5c1.5,0,3,0.2,4.5,0.5c1.5,0.3,2.8,0.9,4,1.7
				c1.2,0.8,2.1,1.8,2.9,3.2c0.7,1.3,1.1,3,1.2,5H33.4z"/>
			<path d="M50,127.6H38.3v-3.2h26.6v3.2H53.1v30.1H50V127.6z"/>
			<path d="M86.2,147.6H70.4l-4.1,10.1H63l13.6-33.3h3.6l13.6,33.3h-3.6L86.2,147.6z M78.3,127.9l-6.7,16.5h13.3L78.3,127.9z"/>
			<path d="M96.8,124.4h16.3c1.3,0,2.5,0.1,3.6,0.4c1.2,0.3,2.2,0.8,3.1,1.4c0.9,0.7,1.6,1.6,2.2,2.8c0.5,1.2,0.8,2.6,0.8,4.4
				c0,0.9-0.1,1.8-0.4,2.6c-0.3,0.9-0.6,1.6-1.1,2.4c-0.5,0.7-1.1,1.3-1.8,1.9c-0.7,0.5-1.6,0.9-2.6,1.2v0.1c1.1,0.2,1.9,0.5,2.6,1
				c0.7,0.5,1.2,1.1,1.6,1.9c0.4,0.8,0.7,1.7,0.8,2.8c0.2,1.1,0.3,2.3,0.3,3.6c0,0.5,0.1,1.1,0.1,1.9c0,0.7,0.1,1.4,0.2,2.1
				c0.1,0.7,0.2,1.3,0.3,1.8c0.1,0.5,0.3,0.9,0.4,1.1H120c-0.3-0.3-0.5-1.1-0.6-2.3c-0.1-1.2-0.2-2.7-0.2-4.5c0-1.5-0.2-2.7-0.4-3.7
				c-0.3-1-0.7-1.8-1.3-2.4c-0.6-0.6-1.3-1-2.2-1.3c-0.9-0.3-2-0.4-3.3-0.4h-12v14.6h-3.1V124.4z M99.9,139.9H113
				c0.8,0,1.6-0.1,2.4-0.3c0.8-0.2,1.5-0.5,2.1-1c0.6-0.5,1.1-1.1,1.4-2c0.3-0.8,0.5-1.9,0.5-3.2c0-1.2-0.2-2.2-0.6-3
				c-0.4-0.8-0.9-1.4-1.4-1.8c-0.6-0.4-1.3-0.7-2-0.9c-0.7-0.2-1.5-0.2-2.2-0.2H99.9V139.9z"/>
			<path d="M127.4,124.4h17c1.5,0,2.7,0.2,3.8,0.7c1.1,0.4,1.9,1,2.6,1.8c0.7,0.7,1.2,1.6,1.5,2.7c0.3,1,0.5,2.1,0.5,3.3
				c0,1.6-0.4,3.1-1.2,4.4c-0.8,1.3-2.1,2.2-3.9,2.7v0.1c2,0.3,3.5,1.3,4.7,2.7c1.1,1.5,1.7,3.3,1.7,5.4c0,1.7-0.3,3.2-0.9,4.4
				c-0.6,1.2-1.4,2.2-2.3,2.9c-1,0.7-2,1.3-3.2,1.6c-1.2,0.3-2.3,0.5-3.5,0.5h-16.7V124.4z M130.5,138.9h12.3c2.1,0,3.8-0.4,5-1.3
				c1.2-0.9,1.9-2.4,1.9-4.6c0-2-0.5-3.4-1.6-4.2c-1.1-0.8-2.5-1.2-4.2-1.2h-13.3V138.9z M130.5,154.6h13c1,0,1.9-0.1,2.8-0.3
				c0.9-0.2,1.6-0.6,2.2-1.1c0.6-0.5,1.1-1.2,1.5-2c0.4-0.8,0.5-1.8,0.5-2.9c0-1.2-0.2-2.2-0.5-3c-0.3-0.8-0.8-1.4-1.3-1.9
				c-0.6-0.5-1.2-0.8-2-1c-0.8-0.2-1.6-0.3-2.5-0.3h-13.8V154.6z"/>
			<path d="M185.4,144.9c0,1.5-0.1,3.1-0.4,4.7c-0.3,1.6-0.9,3.1-1.8,4.4c-0.9,1.3-2.3,2.4-4,3.3c-1.8,0.9-4.1,1.3-7.1,1.3
				c-3,0-5.3-0.4-7.1-1.3c-1.8-0.9-3.1-1.9-4-3.3c-0.9-1.3-1.5-2.8-1.8-4.4c-0.3-1.6-0.4-3.2-0.4-4.7v-20.4h3.1v20.4
				c0,2.2,0.3,3.9,0.9,5.3c0.6,1.4,1.4,2.4,2.3,3.2c0.9,0.8,2,1.3,3.3,1.6c1.2,0.3,2.5,0.4,3.8,0.4c1.3,0,2.6-0.1,3.8-0.4
				c1.2-0.3,2.3-0.8,3.3-1.6c1-0.8,1.7-1.8,2.3-3.2c0.6-1.4,0.9-3.1,0.9-5.3v-20.4h3.1V144.9z"/>
			<path d="M191.6,124.4h16.3c1.3,0,2.5,0.1,3.6,0.4c1.2,0.3,2.2,0.8,3.1,1.4c0.9,0.7,1.6,1.6,2.2,2.8c0.5,1.2,0.8,2.6,0.8,4.4
				c0,0.9-0.1,1.8-0.4,2.6c-0.3,0.9-0.6,1.6-1.1,2.4c-0.5,0.7-1.1,1.3-1.8,1.9c-0.7,0.5-1.6,0.9-2.6,1.2v0.1c1.1,0.2,1.9,0.5,2.6,1
				c0.7,0.5,1.2,1.1,1.6,1.9c0.4,0.8,0.7,1.7,0.8,2.8c0.2,1.1,0.3,2.3,0.3,3.6c0,0.5,0.1,1.1,0.1,1.9c0,0.7,0.1,1.4,0.2,2.1
				c0.1,0.7,0.2,1.3,0.3,1.8c0.1,0.5,0.3,0.9,0.4,1.1h-3.4c-0.3-0.3-0.5-1.1-0.6-2.3s-0.2-2.7-0.2-4.5c0-1.5-0.2-2.7-0.4-3.7
				c-0.3-1-0.7-1.8-1.3-2.4c-0.6-0.6-1.3-1-2.2-1.3c-0.9-0.3-2-0.4-3.3-0.4h-12v14.6h-3.1V124.4z M194.7,139.9h13.1
				c0.8,0,1.6-0.1,2.4-0.3c0.8-0.2,1.5-0.5,2.1-1c0.6-0.5,1.1-1.1,1.4-2c0.3-0.8,0.5-1.9,0.5-3.2c0-1.2-0.2-2.2-0.6-3
				c-0.4-0.8-0.9-1.4-1.4-1.8c-0.6-0.4-1.3-0.7-2-0.9c-0.7-0.2-1.5-0.2-2.2-0.2h-13.4V139.9z"/>
			<path d="M242.5,134c-0.1-1.4-0.4-2.6-1-3.5c-0.5-0.9-1.2-1.6-2.1-2.2c-0.9-0.5-1.8-0.9-2.9-1.1c-1.1-0.2-2.2-0.3-3.4-0.3
				c-1.2,0-2.3,0.1-3.4,0.4c-1,0.3-1.9,0.6-2.7,1.1c-0.8,0.5-1.3,1.1-1.8,1.8c-0.4,0.7-0.6,1.6-0.6,2.5c0,1.1,0.2,2,0.7,2.7
				c0.5,0.7,1.1,1.3,2.1,1.8c0.9,0.5,2,0.9,3.4,1.2c1.4,0.3,3,0.7,4.8,1c1.4,0.2,2.7,0.6,4,0.9c1.3,0.4,2.5,0.9,3.5,1.5
				c1,0.6,1.8,1.5,2.5,2.5c0.6,1,0.9,2.3,0.9,3.9c0,2.1-0.4,3.7-1.1,5.1c-0.8,1.3-1.7,2.4-2.9,3.2c-1.2,0.8-2.5,1.3-4,1.7
				c-1.5,0.3-3,0.5-4.4,0.5c-1.9,0-3.7-0.2-5.3-0.6s-3-1-4.2-2c-1.2-0.9-2.2-2.2-2.9-3.7c-0.7-1.5-1.1-3.4-1.2-5.6h3.1
				c0.1,1.7,0.5,3.2,1.1,4.3c0.6,1.1,1.3,2,2.2,2.7c0.9,0.7,2,1.1,3.2,1.4c1.2,0.2,2.6,0.4,4,0.4c1.1,0,2.2-0.1,3.3-0.3
				c1.1-0.2,2.1-0.6,2.9-1c0.9-0.5,1.6-1.2,2.1-2c0.5-0.9,0.8-1.9,0.8-3.2c0-1.3-0.3-2.3-0.9-3.1c-0.6-0.8-1.5-1.4-2.5-1.8
				c-1-0.5-2.2-0.8-3.5-1c-1.3-0.2-2.6-0.5-4-0.7c-3.6-0.6-6.3-1.6-8.2-2.9c-1.9-1.3-2.8-3.3-2.8-6c0-1.8,0.3-3.3,1-4.6
				c0.7-1.2,1.6-2.2,2.7-3c1.1-0.7,2.4-1.3,3.8-1.6c1.4-0.3,2.8-0.5,4.3-0.5c1.5,0,3,0.2,4.5,0.5c1.5,0.3,2.8,0.9,4,1.7
				c1.2,0.8,2.1,1.8,2.9,3.2c0.7,1.3,1.1,3,1.2,5H242.5z"/>
			<path d="M259.1,127.6h-11.7v-3.2h26.6v3.2h-11.7v30.1h-3.1V127.6z"/>
			<path d="M87,168.6h14.6c4.4,0,7.7,1.5,9.9,4.4c2.2,2.9,3.4,7,3.4,12.2c0,2.3-0.3,4.5-0.8,6.5c-0.5,2-1.4,3.8-2.4,5.3
				c-1.1,1.5-2.4,2.7-4,3.5c-1.6,0.9-3.4,1.3-5.5,1.3H87V168.6z M90.1,198.7h11.3c1.3,0,2.6-0.2,3.8-0.7c1.2-0.5,2.3-1.2,3.2-2.2
				c0.9-1,1.6-2.4,2.2-4.1c0.5-1.7,0.8-3.9,0.8-6.4c0-4.4-0.8-7.8-2.4-10c-1.6-2.3-4.1-3.4-7.6-3.4H90.1V198.7z"/>
			<path d="M139.8,191.7H124l-4.1,10.1h-3.4l13.6-33.3h3.6l13.6,33.3h-3.6L139.8,191.7z M131.9,172l-6.7,16.5h13.3L131.9,172z"/>
			<path d="M156.5,171.7h-11.7v-3.2h26.6v3.2h-11.7v30.1h-3.1V171.7z"/>
			<path d="M192.6,191.7h-15.8l-4.1,10.1h-3.4l13.6-33.3h3.6l13.6,33.3h-3.6L192.6,191.7z M184.8,172l-6.7,16.5h13.3L184.8,172z"/>
		</g>
	</g>
</g>
</svg>
