<?xml version="1.0" encoding="UTF-8" standalone="no"?>
<svg
   xmlns:dc="http://purl.org/dc/elements/1.1/"
   xmlns:cc="http://creativecommons.org/ns#"
   xmlns:rdf="http://www.w3.org/1999/02/22-rdf-syntax-ns#"
   xmlns:svg="http://www.w3.org/2000/svg"
   xmlns="http://www.w3.org/2000/svg"
   viewBox="0 0 776.22668 217.14667"
   height="217.14667"
   width="776.22668"
   xml:space="preserve"
   id="svg2"
   version="1.1"><metadata
     id="metadata8"><rdf:RDF><cc:Work
         rdf:about=""><dc:format>image/svg+xml</dc:format><dc:type
           rdf:resource="http://purl.org/dc/dcmitype/StillImage" /></cc:Work></rdf:RDF></metadata><defs
     id="defs6" /><g
     transform="matrix(1.3333333,0,0,-1.3333333,0,217.14667)"
     id="g10"><g
       transform="scale(0.1)"
       id="g12"><path
         id="path14"
         style="fill:#abaeb1;fill-opacity:1;fill-rule:nonzero;stroke:none"
         d="m 875.094,1050.17 -0.449,42.4 H 47.8789 C 39.0078,1068.18 31.2305,1043.24 24.6875,1017.82 17.9922,991.801 12.5547,965.277 8.43359,938.316 6.375,924.84 4.64453,911.254 3.25781,897.566 c -0.0664,-0.597 -0.07812,-1.207 -0.13672,-1.8 H 634.395 L 635.84,759.328 C 635.844,420.281 597.035,204.121 532.645,49.6992 575.461,33.9688 620.039,21.9688 665.891,13.5703 c 25.425,37.6992 48.855,78.75 70.254,124.8397 94.796,204.149 138.949,493.867 138.949,911.76" /><path
         id="path16"
         style="fill:#abaeb1;fill-opacity:1;fill-rule:nonzero;stroke:none"
         d="M 516.715,776.82 H 0 C 13.2969,483.559 181.621,230.691 425.055,98.3711 483.707,238.762 516.902,436.859 516.902,758.695 l -0.187,18.125" /><path
         id="path18"
         style="fill:#abaeb1;fill-opacity:1;fill-rule:nonzero;stroke:none"
         d="m 1623.48,897.566 c -1.4,13.688 -3.12,27.274 -5.18,40.75 -4.13,26.961 -9.56,53.485 -16.26,79.504 -13.39,52.04 -31.79,102.06 -54.66,149.53 -11.44,23.73 -23.99,46.82 -37.59,69.21 -27.21,44.77 -58.6,86.71 -93.66,125.27 -35.05,38.57 -73.74,73.75 -115.55,105.01 -62.7,46.9 -132.39,84.97 -207.23,112.37 -24.94,9.13 -50.45,17.08 -76.47,23.77 -65.056,16.74 -133.243,25.64 -203.517,25.64 -70.265,0 -138.461,-8.9 -203.508,-25.64 -26.015,-6.69 -51.535,-14.64 -76.476,-23.77 -74.832,-27.4 -144.527,-65.47 -207.231,-112.37 -41.8,-31.26 -80.503,-66.44 -115.55,-105.01 -35.051,-38.56 -66.453,-80.5 -93.657,-125.27 -4.992,-8.22 -9.691,-16.63 -14.398,-25.04 h 889.781 l 1.703,-160.72 C 994.031,614.359 946.363,308.719 844.02,88.3008 829.477,56.9805 814,27.9414 797.844,0.390625 c 5.183,-0.101562 10.316,-0.4023438 15.519,-0.4023438 449.737,0 814.317,364.5817188 814.317,814.3207188 0,28.105 -1.43,55.882 -4.2,83.257" /><path
         id="path20"
         style="fill:#333945;fill-opacity:1;fill-rule:nonzero;stroke:none"
         d="m 2068.21,967.016 c 30.11,-32.086 77.24,-60.231 138.12,-60.231 62.85,0 87.73,30.762 87.73,59.57 0,39.285 -46.48,51.055 -99.51,64.805 -71.36,17.68 -155.15,38.63 -155.15,130.93 0,72.01 63.5,127.65 159.08,127.65 68.08,0 123.07,-21.6 163.66,-60.88 l -43.87,-56.94 c -34.03,34.03 -80.51,49.73 -126.34,49.73 -45.16,0 -73.97,-21.59 -73.97,-54.32 0,-34.05 44.52,-45.17 96.23,-58.26 72.01,-18.34 157.77,-40.59 157.77,-135.519 0,-72.66 -51.06,-134.856 -168.9,-134.856 -80.52,0 -138.78,28.145 -177.4,69.399 l 42.55,58.922" /><path
         id="path22"
         style="fill:#333945;fill-opacity:1;fill-rule:nonzero;stroke:none"
         d="m 2592.64,1215.77 h -132.23 v 67.42 h 341.06 v -67.42 H 2669.23 V 846.555 h -76.59 v 369.215" /><path
         id="path24"
         style="fill:#333945;fill-opacity:1;fill-rule:nonzero;stroke:none"
         d="M 3100.04,1215.77 H 2995.3 v -138.79 h 104.74 c 43.21,0 74.64,27.5 74.64,69.4 0,41.9 -31.43,69.39 -74.64,69.39 z m -28.8,-206.21 H 2995.3 V 846.555 h -76.59 v 436.635 h 191.81 c 86.41,0 142.71,-56.29 142.71,-136.81 0,-77.9 -51.06,-119.79 -103.44,-128.32 L 3256.5,846.555 h -88.37 l -96.89,163.005" /><path
         id="path26"
         style="fill:#333945;fill-opacity:1;fill-rule:nonzero;stroke:none"
         d="m 3473.92,997.777 h 163.66 l -81.84,220.613 z m 185.26,-67.429 h -206.87 l -32.08,-83.793 h -83.78 l 171.51,436.635 h 95.58 l 171.51,-436.635 h -83.79 l -32.08,83.793" /><path
         id="path28"
         style="fill:#333945;fill-opacity:1;fill-rule:nonzero;stroke:none"
         d="m 3936.82,1215.77 h -132.24 v 67.42 h 341.06 v -67.42 H 4013.4 V 846.555 h -76.58 v 369.215" /><path
         id="path30"
         style="fill:#333945;fill-opacity:1;fill-rule:nonzero;stroke:none"
         d="m 4262.88,1283.19 h 299.17 v -67.42 h -222.58 v -113.25 h 218 v -67.43 h -218 V 913.98 h 222.58 v -67.425 h -299.17 v 436.635" /><path
         id="path32"
         style="fill:#333945;fill-opacity:1;fill-rule:nonzero;stroke:none"
         d="m 4902.53,1290.39 c 85.11,0 140.75,-40.59 176.1,-90.99 l -62.84,-35.35 c -22.92,32.74 -64.16,58.27 -113.26,58.27 -86.42,0 -150.57,-66.12 -150.57,-157.78 0,-91.634 64.15,-158.419 150.57,-158.419 44.51,0 83.8,20.953 103.44,39.281 v 68.078 h -130.28 v 67.43 h 206.87 V 917.258 c -43.2,-47.789 -104.09,-79.207 -180.03,-79.207 -126.34,0 -229.12,89.679 -229.12,226.489 0,136.83 102.78,225.85 229.12,225.85" /><path
         id="path34"
         style="fill:#333945;fill-opacity:1;fill-rule:nonzero;stroke:none"
         d="m 5226.16,1283.19 h 76.6 V 846.555 h -76.6 v 436.635" /><path
         id="path36"
         style="fill:#333945;fill-opacity:1;fill-rule:nonzero;stroke:none"
         d="m 5417.19,1064.54 c 0,134.21 100.15,225.85 225.85,225.85 91.65,0 145.97,-45.82 178.71,-98.19 l -65.46,-33.39 c -20.95,36.01 -62.84,63.51 -113.25,63.51 -83.15,0 -147.3,-66.12 -147.3,-157.78 0,-91.634 64.15,-157.755 147.3,-157.755 50.41,0 92.3,26.84 113.25,63.492 l 65.46,-33.379 c -33.38,-52.371 -87.06,-98.203 -178.71,-98.203 -125.7,0 -225.85,91.653 -225.85,225.845" /><path
         id="path38"
         style="fill:#333945;fill-opacity:1;fill-rule:nonzero;stroke:none"
         d="m 2025.66,686.215 h 233.29 V 633.637 H 2085.39 V 545.32 h 169.98 v -52.57 h -169.98 v -94.449 h 173.56 v -52.582 h -233.29 v 340.496" /><path
         id="path40"
         style="fill:#333945;fill-opacity:1;fill-rule:nonzero;stroke:none"
         d="m 2497.37,398.301 c 74.02,0 116.89,53.09 116.89,117.418 0,65.84 -40.83,117.918 -116.89,117.918 H 2430.5 V 398.301 Z m -126.6,287.914 h 126.6 c 106.18,0 178.16,-70.445 178.16,-170.496 0,-100.059 -71.98,-170 -178.16,-170 h -126.6 v 340.496" /><path
         id="path42"
         style="fill:#333945;fill-opacity:1;fill-rule:nonzero;stroke:none"
         d="m 2764.43,686.215 h 60.23 V 482.02 c 0,-54.098 30.12,-89.321 87.29,-89.321 56.67,0 86.78,35.223 86.78,89.321 v 204.195 h 60.24 V 480.5 c 0,-84.75 -48.5,-140.898 -147.02,-140.898 -99.03,0 -147.52,56.668 -147.52,140.378 v 206.235" /><path
         id="path44"
         style="fill:#333945;fill-opacity:1;fill-rule:nonzero;stroke:none"
         d="m 3150.59,515.719 c 0,104.64 78.1,176.109 176.11,176.109 71.47,0 113.84,-35.73 139.36,-76.566 l -51.04,-26.043 c -16.34,28.082 -49,49.523 -88.32,49.523 -64.82,0 -114.85,-51.562 -114.85,-123.023 0,-71.469 50.03,-123.02 114.85,-123.02 39.32,0 71.98,20.93 88.32,49.5 l 51.04,-26.027 c -26.03,-40.844 -67.89,-76.57 -139.36,-76.57 -98.01,0 -176.11,71.468 -176.11,176.117" /><path
         id="path46"
         style="fill:#333945;fill-opacity:1;fill-rule:nonzero;stroke:none"
         d="m 3630.31,463.641 h 127.63 l -63.82,172.023 z m 144.48,-52.571 h -161.32 l -25.01,-65.351 h -65.34 l 133.75,340.496 h 74.52 l 133.75,-340.496 h -65.35 l -25,65.351" /><path
         id="path48"
         style="fill:#333945;fill-opacity:1;fill-rule:nonzero;stroke:none"
         d="m 3991.28,633.637 h -103.12 v 52.578 h 265.96 V 633.637 H 4051 V 345.719 h -59.72 v 287.918" /><path
         id="path50"
         style="fill:#333945;fill-opacity:1;fill-rule:nonzero;stroke:none"
         d="m 4245.55,686.215 h 59.72 V 345.719 h -59.72 v 340.496" /><path
         id="path52"
         style="fill:#333945;fill-opacity:1;fill-rule:nonzero;stroke:none"
         d="m 4577.38,638.742 c -68.91,0 -112.82,-52.582 -112.82,-123.023 0,-69.949 43.91,-123.02 112.82,-123.02 68.4,0 112.82,53.071 112.82,123.02 0,70.441 -44.42,123.023 -112.82,123.023 z m 0,53.086 c 102.09,0 174.07,-74.527 174.07,-176.109 0,-101.598 -71.98,-176.117 -174.07,-176.117 -102.1,0 -174.08,74.519 -174.08,176.117 0,101.582 71.98,176.109 174.08,176.109" /><path
         id="path54"
         style="fill:#333945;fill-opacity:1;fill-rule:nonzero;stroke:none"
         d="m 4909.77,593.809 v -248.09 h -59.73 v 340.496 h 61.26 l 174.07,-241.453 v 241.453 h 59.73 V 345.719 h -57.69 l -177.64,248.09" /><path
         id="path56"
         style="fill:#333945;fill-opacity:1;fill-rule:nonzero;stroke:none"
         d="m 5336.21,533.488 h 32.85 V 346.191 h -32.85 v 187.297" /><path
         id="path58"
         style="fill:#333945;fill-opacity:1;fill-rule:nonzero;stroke:none"
         d="M 5464.27,482.672 V 346.191 h -32.85 v 187.297 h 33.69 l 95.76,-132.816 v 132.816 h 32.85 V 346.191 h -31.73 l -97.72,136.481" /><path
         id="path60"
         style="fill:#333945;fill-opacity:1;fill-rule:nonzero;stroke:none"
         d="m 5647.67,439.699 c 0,57.571 42.96,96.879 96.87,96.879 39.32,0 62.63,-19.648 76.66,-42.109 l -28.07,-14.328 c -8.99,15.437 -26.96,27.238 -48.59,27.238 -35.66,0 -63.17,-28.359 -63.17,-67.68 0,-39.308 27.51,-67.668 63.17,-67.668 21.63,0 39.6,11.52 48.59,27.239 l 28.07,-14.321 c -14.32,-22.469 -37.34,-42.129 -76.66,-42.129 -53.91,0 -96.87,39.321 -96.87,96.879" /><path
         id="path62"
         style="fill:#abaeb1;fill-opacity:1;fill-rule:nonzero;stroke:none"
         d="m 1379.97,46.2617 c 4,-4.4531 10.54,-8.6406 19.09,-8.6406 10.82,0 14.27,5.8203 14.27,10.457 0,7.2735 -7.36,9.2735 -15.36,11.4532 -9.73,2.5468 -20.55,5.2773 -20.55,17.1796 0,10 8.91,16.8204 20.82,16.8204 9.27,0 16.46,-3.0899 21.55,-8.4532 l -4.55,-5.5468 c -4.54,5 -10.9,7.2773 -17.54,7.2773 -7.28,0 -12.46,-3.9102 -12.46,-9.6367 0,-6.0938 7,-7.9102 14.73,-10 9.91,-2.6406 21.18,-5.7305 21.18,-18.461 0,-8.8203 -6,-17.8125 -22.37,-17.8125 -10.54,0 -18.27,3.9922 -23.27,9.6329 l 4.46,5.7304" /><path
         id="path64"
         style="fill:#abaeb1;fill-opacity:1;fill-rule:nonzero;stroke:none"
         d="m 1493.37,82.4414 -20.64,-50.4609 h -3.09 L 1449.1,82.4414 V 31.9805 h -7.55 v 60.6484 h 10.82 l 18.82,-46.1797 18.91,46.1797 h 10.82 V 31.9805 h -7.55 v 50.4609" /></g></g></svg>