<?xml version="1.0" encoding="UTF-8" standalone="no"?>
<svg
   xmlns:dc="http://purl.org/dc/elements/1.1/"
   xmlns:cc="http://creativecommons.org/ns#"
   xmlns:rdf="http://www.w3.org/1999/02/22-rdf-syntax-ns#"
   xmlns:svg="http://www.w3.org/2000/svg"
   xmlns="http://www.w3.org/2000/svg"
   xmlns:sodipodi="http://sodipodi.sourceforge.net/DTD/sodipodi-0.dtd"
   xmlns:inkscape="http://www.inkscape.org/namespaces/inkscape"
   id="Layer_1"
   data-name="Layer 1"
   viewBox="0 0 454.97116 237.99628"
   version="1.1"
   sodipodi:docname="submariner.svg"
   inkscape:version="1.0.2 (e86c870879, 2021-01-15)"
   width="454.97116"
   height="237.99628">
  <metadata
     id="metadata985">
    <rdf:RDF>
      <cc:Work
         rdf:about="">
        <dc:format>image/svg+xml</dc:format>
        <dc:type
           rdf:resource="http://purl.org/dc/dcmitype/StillImage" />
        <dc:title></dc:title>
      </cc:Work>
    </rdf:RDF>
  </metadata>
  <sodipodi:namedview
     pagecolor="#ffffff"
     bordercolor="#666666"
     borderopacity="1"
     objecttolerance="10"
     gridtolerance="10"
     guidetolerance="10"
     inkscape:pageopacity="0"
     inkscape:pageshadow="2"
     inkscape:window-width="1920"
     inkscape:window-height="1016"
     id="namedview983"
     showgrid="false"
     inkscape:zoom="2.1428885"
     inkscape:cx="248.47413"
     inkscape:cy="174.50501"
     inkscape:window-x="0"
     inkscape:window-y="27"
     inkscape:window-maximized="1"
     inkscape:current-layer="Layer_1"
     fit-margin-top="0"
     fit-margin-left="0"
     fit-margin-right="0"
     fit-margin-bottom="0" />
  <defs
     id="defs956">
    <style
       id="style954">.cls-1{fill:#3a4747;}.cls-2{fill:#2bdfc4;}</style>
  </defs>
  <g
     id="g1001"
     transform="translate(-163.81984,156.15661)">
    <path
       class="cls-1"
       d="m 174.96678,64.33009 c -0.89764,4.04 0.67354,8.67926 8.60558,8.67926 5.23788,0 7.03378,-2.09491 7.03378,-4.86457 0,-4.18982 -4.19043,-5.23727 -9.1293,-7.03256 -7.4077,-2.54556 -16.537,-6.13614 -16.537,-16.68742 0,-9.42831 7.25849,-15.19052 19.60506,-14.89091 15.11562,0.2984 19.38095,9.2042 17.73486,16.91152 l -11.44892,1.04745 c 0.74844,-5.83651 -1.34708,-9.1299 -7.25849,-9.1299 -3.96571,0 -6.211,1.4981 -6.211,4.64046 0,4.18982 4.04122,5.46138 8.9795,7.18359 7.633,2.54313 16.68679,5.61241 16.68679,16.087 0,9.05439 -6.73416,15.56566 -19.90406,15.56566 -12.34719,0 -20.803,-5.68792 -19.08135,-16.46209 z"
       id="path958" />
    <path
       class="cls-1"
       d="M 209.46458,30.43153 H 221.961 V 62.832 c 0,6.43576 2.69415,9.12991 7.85713,9.12991 5.08868,0 8.15675,-2.61863 8.15675,-9.354 V 30.43153 h 12.12186 v 31.95224 c 0,11.59873 -7.55751,19.45586 -20.65253,19.45586 -12.27227,0 -19.97958,-7.18359 -19.97958,-18.33289 z"
       id="path960" />
    <path
       class="cls-1"
       d="m 258.779,30.43153 h 21.62567 c 8.90457,0 15.63874,2.99377 15.63874,12.19676 0,6.95948 -3.81589,9.65363 -10.326,11.07622 v 0.2984 c 7.40768,0.89764 11.89712,4.78906 11.89712,12.34656 0,9.87774 -7.10806,14.5913 -16.61191,14.5913 H 258.779 Z m 17.95838,19.38035 c 3.29339,0 6.58557,-0.89643 6.58557,-5.23727 0,-4.41515 -2.91828,-5.08868 -5.83652,-5.08868 h -6.286 v 10.32595 z m 1.19726,22.0745 c 3.81711,0 7.10932,-1.87081 7.10932,-6.884 0,-4.33963 -3.29218,-6.13614 -7.10932,-6.13614 h -6.73416 v 13.02014 z"
       id="path962" />
    <path
       class="cls-1"
       d="m 304.27567,30.43153 h 15.48892 l 8.23227,22.52393 c 1.27154,3.5918 2.16919,7.25789 2.16919,7.25789 h 0.29962 a 71.28005,71.28005 0 0 1 2.17044,-7.25789 l 8.0069,-22.52393 h 14.74108 V 80.94077 H 343.7099 V 55.42429 c 0,-2.99256 0.82336,-10.02634 0.82336,-10.02634 h -0.2984 c 0,0 -1.49688,7.10808 -2.47,9.65242 l -9.72793,25.8904 h -5.6124 l -9.80222,-25.8904 a 79.70532,79.70532 0 0 1 -2.319,-9.20421 h -0.29962 c 0,0 0.52375,6.58556 0.52375,9.57813 v 25.51648 h -10.25177 z"
       id="path964" />
    <path
       class="cls-1"
       d="m 377.01163,30.43153 h 12.64618 l 17.06134,50.50924 H 394.073 l -3.14359,-9.57812 h -16.91153 l -3.06688,9.57812 h -10.92518 z m 0,31.65262 h 10.8497 l -3.442,-10.62557 a 49.40147,49.40147 0 0 1 -1.721,-8.67926 h -0.29962 a 64.16492,64.16492 0 0 1 -1.8696,8.60374 z"
       id="path966" />
    <path
       class="cls-1"
       d="m 411.35962,30.43153 h 20.803 c 9.87652,0 16.53637,4.78906 16.53637,14.06756 A 14.135,14.135 0 0 1 438.5228,58.194 a 14.99035,14.99035 0 0 1 3.51626,4.78906 c 2.09613,4.26534 3.51749,8.97888 7.93265,8.97888 a 5.82012,5.82012 0 0 0 2.01941,-0.37392 l -0.972,8.90459 a 24.4878,24.4878 0 0 1 -5.01441,0.67353 c -5.98633,0 -9.42831,-2.32023 -12.94458,-10.32717 -1.49689,-3.59057 -3.5918,-9.87774 -6.36023,-9.87774 h -2.844 v 19.97954 h -12.49628 z m 12.49637,9.0544 v 12.42086 h 4.48944 c 3.5918,0 7.78284,-1.12175 7.78284,-6.50884 0,-4.41514 -2.844,-5.912 -6.286,-5.912 z"
       id="path968" />
    <path
       class="cls-1"
       d="m 454.98611,30.43153 h 26.04023 v 8.83029 h -6.8097 V 72.1117 h 6.8097 v 8.82907 H 454.98611 V 72.1117 h 6.73417 V 39.26182 h -6.73417 z"
       id="path970" />
    <path
       class="cls-1"
       d="m 487.83722,30.43153 h 13.394 l 13.24546,25.06827 c 1.12177,2.17043 2.61866,5.98511 3.81592,8.97888 h 0.29962 c -0.14978,-2.84274 -0.52374,-6.884 -0.52374,-9.80223 V 30.43153 h 10.25165 V 80.94077 H 515.22449 L 501.45657,55.948 a 69.56459,69.56459 0 0 1 -3.66729,-8.231 h -0.29963 c 0.22535,2.844 0.59925,6.21165 0.59925,8.97888 v 24.24489 h -10.25168 z"
       id="path972" />
    <path
       class="cls-1"
       d="m 537.45,30.43153 h 33.4491 V 39.71 h -20.9527 v 10.8509 h 17.58508 v 9.2785 H 549.94641 V 71.66227 H 571.647 v 9.2785 H 537.45 Z"
       id="path974" />
    <path
       class="cls-1"
       d="m 578.15826,30.43153 h 20.80292 c 9.87775,0 16.5376,4.78906 16.5376,14.06756 a 14.136,14.136 0 0 1 -10.17737,13.69491 14.99455,14.99455 0 0 1 3.51752,4.78906 c 2.09491,4.26534 3.51629,8.97888 7.93146,8.97888 A 5.823,5.823 0 0 0 618.791,71.588 l -0.97315,8.90458 a 24.48432,24.48432 0 0 1 -5.01318,0.67353 c -5.98633,0 -9.42829,-2.32022 -12.9458,-10.32717 -1.49689,-3.59057 -3.5918,-9.87774 -6.36023,-9.87774 h -2.844 v 19.97957 h -12.4964 z m 12.4964,9.0544 v 12.42086 h 4.48944 c 3.593,0 7.78284,-1.12175 7.78284,-6.50884 0,-4.41514 -2.844,-5.912 -6.28595,-5.912 z"
       id="path976" />
  </g>
  <g
     id="g989"
     transform="matrix(1.5247962,0,0,1.5247962,-353.33734,148.99395)">
    <path
       class="cls-2"
       d="m 346.91541,-63.728011 v 14.69519 h 69.6093 a 12.411,12.411 0 0 1 12.397,12.39731 v 17.90093 a 12.411,12.411 0 0 1 -12.397,12.3970002 h -103.596 v 5.59357004 A 14.4348,14.4348 0 0 0 327.32122,13.648459 H 434.51556 A 14.4348,14.4348 0 0 0 448.90808,-0.74401076 V -63.728011 Z"
       id="path978" />
    <path
       class="cls-2"
       d="m 414.92171,-20.337611 v -14.69521 h -69.60933 a 12.41124,12.41124 0 0 1 -12.397,-12.39732 v -17.90087 a 12.41117,12.41117 0 0 1 12.397,-12.397 h 103.59568 v -5.5935 a 14.4348,14.4348 0 0 0 -14.3925,-14.3925 H 327.32122 a 14.4348,14.4348 0 0 0 -14.39251,14.39247 v 62.98393 z"
       id="path980" />
  </g>
</svg>
