<?xml version="1.0" encoding="utf-8"?>
<!-- Generator: Adobe Illustrator 25.3.1, SVG Export Plug-In . SVG Version: 6.00 Build 0)  -->
<svg version="1.1" id="Layer_2" xmlns="http://www.w3.org/2000/svg" xmlns:xlink="http://www.w3.org/1999/xlink" x="0px" y="0px"
	 viewBox="0 0 470.4 504" style="enable-background:new 0 0 470.4 504;" xml:space="preserve">
<style type="text/css">
	.st0{fill:#FFFFFF;}
	.st1{fill:#231F20;}
	.st2{fill:#357FBE;}
	.st3{fill:#224E84;}
	.st4{fill:#74C2B0;}
	.st5{fill:#A6A8AB;}
	.st6{fill:#58595B;}
	.st7{fill:#4C6275;}
	.st8{fill:#303E4E;}
</style>
<g>
	<g>
		<path class="st2" d="M274.8,165.1c-22-9.9-45.8-11-67.4-4.9c-2.3,0.6-3.5,3.1-2.7,5.3l0,0l7.9,20.6l0.2,0.6c0.7,1.9,2.7,3,4.7,2.5
			c14.5-3.7,30.2-2.7,44.8,3.8c14.7,6.6,25.9,17.7,32.8,31c0.9,1.8,3.1,2.6,4.9,1.9l0.6-0.2l20.6-7.9l0,0c2.2-0.8,3.2-3.4,2.2-5.5
			C313.6,192,296.9,175,274.8,165.1z"/>
		<path class="st3" d="M205.5,201.6c1.8-0.9,2.6-3.1,1.8-4.9l-1.3-3.5l-1.5-4l-7.9-20.6l-1.5-4l-1.1-2.9c-0.8-2.2-3.4-3.2-5.5-2.2
			c-22.1,10.5-40.7,28.6-51.5,52.6c-10.7,24-11.8,49.8-5,73.2c0.7,2.3,3.1,3.5,5.3,2.7l2.9-1.1l4-1.5l20.6-7.9l4-1.5l3.5-1.3
			c1.9-0.7,2.9-2.7,2.5-4.6c-3.1-12.7-2.2-26.5,3.6-39.4C184.2,217.6,193.9,207.7,205.5,201.6z"/>
		<path class="st3" d="M336.4,225.8c-0.7-2.3-3.1-3.5-5.3-2.7l-2.9,1.1l-4,1.5l-20.6,7.9l-4,1.5l-3.5,1.3c-1.9,0.7-2.9,2.7-2.5,4.6
			c3.1,12.7,2.2,26.5-3.6,39.4c-5.7,12.8-15.3,22.7-26.8,28.8c-1.8,0.9-2.5,3.1-1.8,4.9l1.3,3.5l1.5,4l7.9,20.6l1.5,4l1.1,2.9
			c0.8,2.2,3.4,3.2,5.5,2.2c21.9-10.5,40.4-28.5,51.1-52.4C342.2,275.1,343.3,249.3,336.4,225.8z"/>
		<path class="st4" d="M204.5,322c-15.8-7.1-27.8-19.1-35.1-33.4c-0.9-1.8-3.1-2.6-5-1.9l-13.2,5c-2.2,0.8-3.2,3.4-2.2,5.5
			c9.4,19.2,25.3,35.4,46.4,44.8c21.1,9.4,43.8,10.5,64.5,4.7c2.3-0.6,3.5-3.1,2.7-5.3l-5-13.2c-0.7-1.9-2.8-3-4.7-2.4
			C237.3,330,220.3,329.1,204.5,322z"/>
	</g>
	<g>
		<path class="st2" d="M84.7,273c2.8,24.4,11.3,46.9,24,66.1c1.3,1.9,3.9,2.3,5.7,1l0.1-0.1l17.7-13.2l0.4-0.3
			c1.7-1.2,2.1-3.6,1-5.3c-9.8-15.1-16.3-32.6-18.5-51.7c-7.3-63.5,36.3-121.4,98.4-132.7c2.1-0.4,3.6-2.3,3.3-4.4l-0.1-0.5
			l-2.5-21.9l0-0.1c-0.3-2.3-2.4-3.9-4.6-3.5C130.9,119.9,75.4,192.9,84.7,273z"/>
		<path class="st4" d="M359.4,241.5c2.3,19.8-0.2,39-6.6,56.5c-0.7,2,0.3,4.2,2.2,5l12.9,5.6c2.1,0.9,4.5-0.1,5.3-2.2
			c7.7-20.9,10.8-43.8,8-67.4c-8.9-77.8-77.3-134.5-154.4-130.1c-2.3,0.1-3.9,2.2-3.7,4.4l1.6,14c0.2,2.1,2.1,3.6,4.2,3.5
			C294.3,127.5,351.9,175.7,359.4,241.5z"/>
		<path class="st3" d="M372.3,319.8l-3.9-1.7l-20.2-8.8l-3.9-1.7l-3.3-1.4c-1.9-0.8-4.2,0-5.2,1.9c-16.8,32.3-48.9,55.9-87.7,60.4
			c-38.8,4.5-75.3-11.3-99-38.8c-1.4-1.6-3.7-1.9-5.5-0.6l-2.9,2.1l-3.4,2.6l-17.7,13.1l-3.4,2.6l-2.5,1.9c-1.8,1.4-2.2,4-0.7,5.7
			c33.1,39.9,85.1,62.8,140.3,56.4c55.3-6.4,100.7-40.6,124-87c1-2,0.1-4.5-2-5.4L372.3,319.8z"/>
	</g>
	<g>
		<path class="st4" d="M322,415.1l6.4,12.5c1,2,3.5,2.8,5.5,1.7c71.4-40.7,108.8-119.9,99.3-197.8c-0.3-2.2-2.4-3.8-4.6-3.4
			l-13.9,2.3c-2.1,0.3-3.6,2.3-3.3,4.4c8.1,68.9-24.9,138.8-87.9,175C321.8,410.8,321,413.1,322,415.1z"/>
		<path class="st2" d="M273.9,55.6c-2.2-0.4-4.3,1.1-4.7,3.3l0,0.1l-3.3,21.8l-0.1,0.4c-0.3,2.1,1.1,4.1,3.2,4.5
			c50,10,95.1,41.8,120.2,90.5c7.2,13.9,12.3,28.4,15.4,43c0.4,2.1,2.4,3.5,4.6,3.1l0.4-0.1l21.8-3.6l0.1,0c2.2-0.4,3.7-2.5,3.3-4.7
			c-3.7-17.6-9.7-35-18.4-51.8C386.7,104.7,333.1,67.2,273.9,55.6z"/>
		<path class="st3" d="M138.3,67.9c-38.4,19.8-68.1,49.7-87.7,84.9c-1.1,2-0.3,4.5,1.7,5.5l2.9,1.5l3.8,1.9l19.7,9.9l3.8,1.9
			l3.1,1.6c1.9,1,4.2,0.2,5.3-1.6c15.4-27,38.5-50.1,68.1-65.4c29.7-15.3,61.8-20.7,92.8-17.5c2.1,0.2,4.1-1.2,4.4-3.4l0.5-3.5
			l0.6-4.2l3.3-21.8l0.6-4.2l0.5-3.2c0.3-2.2-1.2-4.3-3.5-4.6C218.4,41.3,176.7,48.2,138.3,67.9z"/>
		<path class="st4" d="M77.2,337.1c-25.8-50-25.4-106.6-4-154.3c0.9-2,0.1-4.3-1.8-5.2l-12.5-6.3c-2-1-4.5-0.2-5.4,1.9
			c-24.4,53.7-24.9,117.7,4.2,174.1c8.4,16.4,18.8,31,30.7,43.9c1.5,1.7,4.2,1.7,5.8,0.1l9.9-10c1.5-1.5,1.5-3.9,0.1-5.5
			C93.7,364.4,84.6,351.4,77.2,337.1z"/>
		<path class="st2" d="M118.7,384.1c-1.6-1.4-4-1.4-5.5,0.1l-0.3,0.3l-15.5,15.6l-0.1,0.1c-1.6,1.6-1.6,4.2,0.1,5.8
			c59.2,54.2,147.4,70.1,223.7,34.7c2.1-1,2.9-3.4,1.8-5.5l-0.1-0.1l-10.1-19.6l-0.2-0.4c-1-1.9-3.3-2.7-5.2-1.8
			C242.9,442.8,168.8,429.5,118.7,384.1z"/>
	</g>
</g>
</svg>
