<?xml version="1.0" encoding="UTF-8" standalone="no"?>
<svg
   xmlns:dc="http://purl.org/dc/elements/1.1/"
   xmlns:cc="http://creativecommons.org/ns#"
   xmlns:rdf="http://www.w3.org/1999/02/22-rdf-syntax-ns#"
   xmlns:svg="http://www.w3.org/2000/svg"
   xmlns="http://www.w3.org/2000/svg"
   viewBox="0 0 226.77333 207.88"
   height="207.88"
   width="226.77333"
   xml:space="preserve"
   id="svg2"
   version="1.1"><metadata
     id="metadata8"><rdf:RDF><cc:Work
         rdf:about=""><dc:format>image/svg+xml</dc:format><dc:type
           rdf:resource="http://purl.org/dc/dcmitype/StillImage" /></cc:Work></rdf:RDF></metadata><defs
     id="defs6" /><g
     transform="matrix(1.3333333,0,0,-1.3333333,0,207.88)"
     id="g10"><g
       transform="scale(0.1)"
       id="g12"><path
         id="path14"
         style="fill:#17302e;fill-opacity:1;fill-rule:nonzero;stroke:none"
         d="m 1402.79,323.84 h -128.08 c -9.87,0 -17.91,8.031 -17.91,17.922 v 64.699 h 123.61 c 10.63,0 19.24,8.621 19.24,19.238 0,10.641 -8.61,19.25 -19.24,19.25 H 1256.8 v 63.672 c 0,9.879 8.04,17.93 17.91,17.93 h 128.08 c 11.16,0 20.2,9.019 20.2,20.179 0,11.149 -9.04,20.192 -20.2,20.192 h -128.08 c -32.13,0 -58.28,-26.141 -58.28,-58.301 V 341.762 c 0,-32.141 26.15,-58.301 58.28,-58.301 h 128.08 c 11.16,0 20.2,9.039 20.2,20.187 0,11.153 -9.04,20.192 -20.2,20.192 z m -376.64,120.582 c -27.068,4.859 -45.896,10.617 -56.443,17.316 -10.547,6.692 -15.82,15.75 -15.82,27.153 0,12.25 5.41,22.308 16.25,30.14 10.84,7.828 26.074,11.758 45.763,11.758 19.94,0 35.92,-3.84 47.89,-11.539 6.44,-4.148 12.32,-9.66 17.62,-16.551 7.79,-10.109 22.52,-11.437 32.01,-2.91 8.94,8.082 9.72,21.922 1.68,30.883 -9.71,10.859 -20.76,19.449 -33.15,25.777 -18.38,9.406 -40.54,14.106 -66.48,14.106 -22.247,0 -41.7,-3.848 -58.361,-11.543 -16.679,-7.684 -29.453,-18.102 -38.281,-31.211 -8.848,-13.11 -13.262,-27.66 -13.262,-43.61 0,-15.121 3.477,-27.953 10.489,-38.492 6.972,-10.558 18.164,-19.379 33.554,-26.508 15.391,-7.132 36.055,-13.121 62.011,-17.961 25.94,-4.859 44.1,-10.398 54.51,-16.671 10.41,-6.278 15.63,-14.539 15.63,-24.797 0,-12.84 -5.78,-22.742 -17.35,-29.723 -11.52,-7 -27.42,-10.48 -47.65,-10.48 -21.389,0 -39.28,3.98 -53.674,11.972 -8.223,4.559 -15.586,10.617 -22.109,18.141 -8.204,9.527 -22.911,9.738 -31.797,0.859 l -0.078,-0.082 c -8.125,-8.117 -8.75,-21.269 -1.075,-29.82 24.395,-27.231 60.782,-40.84 109.143,-40.84 22.24,0 41.83,3.352 58.81,10.051 16.95,6.691 30.13,16.32 39.55,28.859 9.41,12.551 14.1,27.09 14.1,43.621 0,15.391 -3.42,28.282 -10.25,38.692 -6.86,10.398 -17.74,19.097 -32.72,26.09 -14.96,6.988 -35.14,12.75 -60.51,17.32 z m -631.466,-0.09 c -27.082,4.879 -45.907,10.617 -56.446,17.316 -10.55,6.711 -15.82,15.762 -15.82,27.172 0,12.239 5.414,22.289 16.242,30.129 10.844,7.832 26.086,11.762 45.758,11.762 19.945,0 35.918,-3.852 47.891,-11.539 6.457,-4.141 12.324,-9.66 17.617,-16.563 7.793,-10.097 22.531,-11.429 32.023,-2.898 8.946,8.078 9.727,21.918 1.68,30.879 -9.719,10.851 -20.774,19.449 -33.145,25.781 -18.39,9.406 -40.558,14.106 -66.496,14.106 -22.23,0 -41.687,-3.848 -58.363,-11.547 -16.676,-7.692 -29.437,-18.098 -38.27,-31.211 -8.839,-13.11 -13.253,-27.649 -13.253,-43.61 0,-15.121 3.48,-27.949 10.472,-38.488 6.985,-10.551 18.18,-19.391 33.567,-26.512 15.39,-7.129 36.058,-13.121 61.996,-17.961 25.949,-4.847 44.117,-10.41 54.527,-16.679 10.399,-6.27 15.606,-14.528 15.606,-24.797 0,-12.832 -5.774,-22.742 -17.317,-29.711 -11.543,-6.992 -27.441,-10.481 -47.676,-10.481 -21.382,0 -39.277,3.981 -53.668,11.969 -8.226,4.563 -15.589,10.621 -22.097,18.153 -8.203,9.519 -22.926,9.73 -31.813,0.847 l -0.07,-0.078 c -8.121,-8.121 -8.746,-21.269 -1.082,-29.82 24.394,-27.231 60.781,-40.84 109.156,-40.84 22.231,0 41.832,3.348 58.793,10.051 16.965,6.687 30.137,16.32 39.551,28.859 9.414,12.539 14.113,27.09 14.113,43.617 0,15.391 -3.418,28.282 -10.265,38.692 -6.844,10.41 -17.735,19.101 -32.715,26.09 -14.961,6.992 -35.125,12.75 -60.496,17.312 z M 815.836,547.469 V 392.238 c 0,-37.047 -9.836,-65.058 -29.492,-84.008 -19.68,-18.968 -48.321,-28.441 -85.949,-28.441 -37.637,0 -66.29,9.473 -85.957,28.441 -19.668,18.95 -29.493,46.961 -29.493,84.008 v 155.231 c 0,12.754 10.325,23.086 23.078,23.086 12.743,0 23.094,-10.332 23.094,-23.086 v -149.66 c 0,-26.809 5.625,-46.539 16.895,-59.227 11.261,-12.672 28.703,-19.023 52.383,-19.023 23.664,0 41.105,6.351 52.375,19.023 11.257,12.688 16.882,32.418 16.882,59.227 v 149.66 c 0,12.754 10.352,23.086 23.098,23.086 12.742,0 23.086,-10.332 23.086,-23.086" /><path
         id="path16"
         style="fill:#4dc07a;fill-opacity:1;fill-rule:nonzero;stroke:none"
         d="m 1366.39,1081.24 c -6.21,-4.12 -14.53,-4.12 -20.75,0 -10.19,6.76 -11.17,20.9 -2.94,29.09 7.3,7.56 19.33,7.56 26.64,0.01 8.2,-8.2 7.2,-22.34 -2.95,-29.1 z m 29.66,41.2 c 11.84,-50.35 -33.41,-95.63 -83.76,-83.8 -25.63,6.02 -46,26.37 -52,52 -11.81,50.32 33.42,95.56 83.75,83.76 25.63,-5.98 45.98,-26.32 52.01,-51.96 z M 1057.01,851.648 c 5.78,-8.277 10.55,-16.261 13.24,-24.25 1.9,-5.671 4.32,-13.152 9.93,-16.16 0.33,-0.164 0.58,-0.316 0.91,-0.418 10.28,-3.738 36.7,-3.101 36.7,-3.101 h 48.6 c 4.14,-0.067 40.64,0.031 39.72,4.121 -4.37,19.519 -26.97,23.008 -44.14,33.211 -15.86,9.449 -30.86,20.16 -37.69,38.574 -3.54,9.508 -1.43,31.441 4.68,39.43 4.48,5.765 11.02,9.597 18.11,11.152 7.81,1.68 15.94,0.223 23.79,-0.566 9.65,-0.989 19.2,-2.731 28.81,-3.93 18.61,-2.414 37.36,-3.395 56.09,-2.887 30.94,0.856 61.94,5.801 91.25,15.781 20.47,6.879 40.63,16.168 58.03,29.086 19.78,14.707 14.61,13.321 -5.45,11.27 -24.02,-2.473 -48.26,-2.813 -72.34,-1.387 -22.48,1.301 -44.63,3.946 -64.98,14.399 -16.02,8.257 -29.77,16.547 -42.45,29.337 -1.89,1.93 -3.08,7.58 0.39,11.18 3.36,3.5 10.51,1.47 12.72,-0.38 22.15,-18.53 55.16,-33.76 89.36,-35.41 18.47,-0.927 36.48,-1.282 54.98,-0.46 9.23,0.42 23.22,0.35 32.46,0.46 4.8,0.04 17.85,-1.329 20.29,3.74 0.72,1.49 0.66,3.19 0.61,4.85 -2.72,73.98 -8.19,157.44 -85.61,192.82 -57.77,26.41 -144.39,67.33 -180.98,84.31 -8.49,4.02 -18.41,-2.35 -18.41,-11.79 0,-24.72 1.26,-60.22 1.26,-92.54 -17.51,17.85 -47.03,29.11 -69.53,39.43 -25.52,11.73 -51.91,21.65 -78.727,30.01 -54.043,16.73 -109.942,27.03 -166.168,32.63 -63.738,6.35 -128.582,3.31 -191.395,-9.66 -103.394,-21.45 -205.019,-71.18 -282.187,-143.89 -47.367,-44.64 -84.528,-108.06 -87.043,-172.438 -3.578,-91.125 21.937,-140.059 68.863,-190.488 74.824,-80.371 235.86,-91.621 301.078,3.679 29.328,42.914 35.715,101.106 14.414,148.516 -21.277,47.406 -70.242,81.671 -122.152,83.401 -40.281,1.34 -83.191,-19.151 -98.621,-56.393 -11.789,-28.434 -5.078,-63.578 16.359,-85.668 8.356,-8.625 19.668,-15.66 32.047,-12.903 7.27,1.618 13.356,7.102 14.469,14.485 1.613,10.902 -7.926,17.972 -13.789,26.336 -10.586,15.117 -8.449,37.781 4.816,50.617 11.188,10.84 27.766,14.043 43.344,14.008 14.5,-0.028 29.328,-2.625 41.848,-9.949 17.578,-10.333 29.277,-29.286 33.3,-49.321 12.082,-59.836 -36.562,-108.457 -102.535,-112.289 -33.738,-1.996 -68.093,6.883 -94.437,28.082 -66.707,53.656 -83.055,163.352 -6.789,221.915 72.371,55.58 163.758,41.25 217.609,12.37 43.137,-23.1 75.274,-60.922 99.621,-102.722 12.215,-21.016 22.625,-42.981 32.293,-65.293 9.289,-21.453 17.969,-43.071 36.574,-58.789 12.313,-10.43 27.508,-10.047 43.641,-10.047 h 92.086 c 12.5,0 9.473,8.332 4.043,13.851 -12.207,12.485 -29.746,15.309 -45.996,19.774 -37.086,10.207 -33.305,59.332 -23.047,59.332 33.184,0 34.238,-0.981 63.301,-0.602 41.972,0.574 54.648,3.008 87.44,-9.129 17.56,-6.496 34.42,-23.644 45.39,-39.297" /></g></g></svg>