<svg xmlns="http://www.w3.org/2000/svg" xmlns:xlink="http://www.w3.org/1999/xlink" width="1920" zoomAndPan="magnify" viewBox="0 0 1440 411.74999" height="549" preserveAspectRatio="xMidYMid meet" version="1.0"><defs><g/></defs><g fill="#daff00" fill-opacity="1"><g transform="translate(57.870787, 403.824317)"><g><path d="M 92.15625 6.4375 C 77.113281 6.4375 62.394531 5.253906 48 2.890625 C 33.613281 0.535156 21.476562 -1.710938 11.59375 -3.859375 L 11.59375 -104.390625 L 16.75 -104.390625 C 20.613281 -72.171875 29.632812 -49.296875 43.8125 -35.765625 C 57.988281 -22.234375 73.023438 -15.46875 88.921875 -15.46875 C 100.097656 -15.46875 109.117188 -18.472656 115.984375 -24.484375 C 122.859375 -30.503906 126.296875 -39.3125 126.296875 -50.90625 C 126.296875 -60.351562 123.503906 -68.617188 117.921875 -75.703125 C 112.335938 -82.796875 104.175781 -90.425781 93.4375 -98.59375 L 62.5 -122.4375 C 45.75 -135.320312 33.078125 -148.742188 24.484375 -162.703125 C 15.890625 -176.671875 11.59375 -192.460938 11.59375 -210.078125 C 11.59375 -228.546875 15.890625 -245.191406 24.484375 -260.015625 C 33.078125 -274.835938 45.425781 -286.757812 61.53125 -295.78125 C 77.644531 -304.800781 97.085938 -309.3125 119.859375 -309.3125 C 132.742188 -309.3125 145.304688 -308.128906 157.546875 -305.765625 C 169.796875 -303.410156 180.003906 -300.941406 188.171875 -298.359375 L 188.171875 -215.234375 L 183.65625 -215.234375 C 181.082031 -238.003906 173.78125 -255.722656 161.75 -268.390625 C 149.71875 -281.066406 136.179688 -287.40625 121.140625 -287.40625 C 111.265625 -287.40625 103.101562 -284.613281 96.65625 -279.03125 C 90.21875 -273.445312 87 -265.925781 87 -256.46875 C 87 -247.019531 90.113281 -238.960938 96.34375 -232.296875 C 102.570312 -225.640625 109.550781 -219.304688 117.28125 -213.296875 L 148.21875 -189.453125 C 185.59375 -160.242188 204.28125 -129.742188 204.28125 -97.953125 C 204.28125 -66.585938 195.148438 -41.347656 176.890625 -22.234375 C 158.628906 -3.117188 130.382812 6.4375 92.15625 6.4375 Z M 92.15625 6.4375 "/></g></g></g><g fill="#daff00" fill-opacity="1"><g transform="translate(258.280799, 403.824317)"><g><path d="M 254.546875 6.4375 L 189.453125 -195.90625 L 117.921875 6.4375 L 112.765625 6.4375 L 12.890625 -279.03125 C 11.171875 -283.75 9.128906 -287.71875 6.765625 -290.9375 C 4.398438 -294.164062 1.285156 -296.210938 -2.578125 -297.078125 L -2.578125 -302.875 L 136.609375 -302.875 L 136.609375 -297.078125 L 135.96875 -297.078125 C 129.957031 -297.078125 125.335938 -295.25 122.109375 -291.59375 C 118.890625 -287.9375 117.28125 -283.101562 117.28125 -277.09375 C 117.28125 -272.800781 118.242188 -267.320312 120.171875 -260.65625 C 122.109375 -254 124.582031 -245.734375 127.59375 -235.859375 L 154.015625 -159.8125 L 178.5 -228.765625 L 166.25 -267.421875 C 162.820312 -278.160156 160.03125 -285.359375 157.875 -289.015625 C 155.726562 -292.671875 152.9375 -295.359375 149.5 -297.078125 L 149.5 -302.875 L 279.03125 -302.875 L 279.03125 -297.078125 L 278.390625 -297.078125 C 272.796875 -297.078125 268.390625 -295.25 265.171875 -291.59375 C 261.953125 -287.9375 260.34375 -283.101562 260.34375 -277.09375 C 260.34375 -272.800781 260.878906 -267.320312 261.953125 -260.65625 C 263.023438 -254 265.066406 -245.734375 268.078125 -235.859375 L 292.5625 -159.171875 L 317.046875 -233.28125 C 319.628906 -240.582031 321.992188 -247.773438 324.140625 -254.859375 C 326.285156 -261.953125 327.359375 -268.289062 327.359375 -273.875 C 327.359375 -289.34375 319.625 -297.078125 304.15625 -297.078125 L 303.515625 -297.078125 L 303.515625 -302.875 L 380.203125 -302.875 L 380.203125 -297.078125 C 374.179688 -297.078125 368.054688 -293.207031 361.828125 -285.46875 C 355.597656 -277.738281 348.832031 -262.488281 341.53125 -239.71875 L 259.703125 6.4375 Z M 254.546875 6.4375 "/></g></g></g><g fill="#daff00" fill-opacity="1"><g transform="translate(612.703525, 403.824317)"><g><path d="M 119.859375 6.4375 C 95.796875 6.4375 75.390625 -0.539062 58.640625 -14.5 C 41.890625 -28.457031 29.21875 -47.035156 20.625 -70.234375 C 12.03125 -93.429688 7.734375 -118.78125 7.734375 -146.28125 C 7.734375 -178.5 12.78125 -206.851562 22.875 -231.34375 C 32.96875 -255.832031 47.035156 -274.945312 65.078125 -288.6875 C 83.128906 -302.4375 104.179688 -309.3125 128.234375 -309.3125 C 151.429688 -309.3125 170.441406 -303.507812 185.265625 -291.90625 C 200.085938 -280.3125 210.9375 -264.523438 217.8125 -244.546875 C 224.6875 -224.578125 227.476562 -201.914062 226.1875 -176.5625 L 90.21875 -176.5625 C 91.9375 -149.925781 96.660156 -129.519531 104.390625 -115.34375 C 112.128906 -101.164062 121.148438 -91.5 131.453125 -86.34375 C 141.765625 -81.195312 151.648438 -78.625 161.109375 -78.625 C 173.128906 -78.625 184.617188 -81.953125 195.578125 -88.609375 C 206.535156 -95.265625 215.445312 -106.109375 222.3125 -121.140625 L 226.828125 -119.859375 C 222.109375 -95.796875 214.914062 -74.207031 205.25 -55.09375 C 195.582031 -35.976562 183.660156 -20.941406 169.484375 -9.984375 C 155.304688 0.960938 138.765625 6.4375 119.859375 6.4375 Z M 89.578125 -197.828125 L 139.1875 -197.828125 C 138.757812 -233.484375 136.613281 -257.96875 132.75 -271.28125 C 128.882812 -284.601562 122.65625 -291.265625 114.0625 -291.265625 C 106.320312 -291.265625 100.304688 -284.285156 96.015625 -270.328125 C 91.722656 -256.367188 89.578125 -232.203125 89.578125 -197.828125 Z M 89.578125 -197.828125 "/></g></g></g><g fill="#daff00" fill-opacity="1"><g transform="translate(844.689396, 403.824317)"><g><path d="M 119.859375 6.4375 C 95.796875 6.4375 75.390625 -0.539062 58.640625 -14.5 C 41.890625 -28.457031 29.21875 -47.035156 20.625 -70.234375 C 12.03125 -93.429688 7.734375 -118.78125 7.734375 -146.28125 C 7.734375 -178.5 12.78125 -206.851562 22.875 -231.34375 C 32.96875 -255.832031 47.035156 -274.945312 65.078125 -288.6875 C 83.128906 -302.4375 104.179688 -309.3125 128.234375 -309.3125 C 151.429688 -309.3125 170.441406 -303.507812 185.265625 -291.90625 C 200.085938 -280.3125 210.9375 -264.523438 217.8125 -244.546875 C 224.6875 -224.578125 227.476562 -201.914062 226.1875 -176.5625 L 90.21875 -176.5625 C 91.9375 -149.925781 96.660156 -129.519531 104.390625 -115.34375 C 112.128906 -101.164062 121.148438 -91.5 131.453125 -86.34375 C 141.765625 -81.195312 151.648438 -78.625 161.109375 -78.625 C 173.128906 -78.625 184.617188 -81.953125 195.578125 -88.609375 C 206.535156 -95.265625 215.445312 -106.109375 222.3125 -121.140625 L 226.828125 -119.859375 C 222.109375 -95.796875 214.914062 -74.207031 205.25 -55.09375 C 195.582031 -35.976562 183.660156 -20.941406 169.484375 -9.984375 C 155.304688 0.960938 138.765625 6.4375 119.859375 6.4375 Z M 89.578125 -197.828125 L 139.1875 -197.828125 C 138.757812 -233.484375 136.613281 -257.96875 132.75 -271.28125 C 128.882812 -284.601562 122.65625 -291.265625 114.0625 -291.265625 C 106.320312 -291.265625 100.304688 -284.285156 96.015625 -270.328125 C 91.722656 -256.367188 89.578125 -232.203125 89.578125 -197.828125 Z M 89.578125 -197.828125 "/></g></g></g><g fill="#daff00" fill-opacity="1"><g transform="translate(1076.675177, 403.824317)"><g><path d="M 90.21875 5.15625 C 68.738281 5.15625 52.519531 -1.609375 41.5625 -15.140625 C 30.601562 -28.671875 25.125 -50.257812 25.125 -79.90625 L 25.125 -280.3125 L 3.859375 -280.3125 L 3.859375 -288.6875 C 16.316406 -292.125 29.742188 -299.640625 44.140625 -311.234375 C 58.535156 -322.835938 71.742188 -336.375 83.765625 -351.84375 C 95.796875 -367.3125 104.390625 -382.78125 109.546875 -398.25 L 118.578125 -398.25 L 118.578125 -302.875 L 168.1875 -302.875 L 168.1875 -280.3125 L 118.578125 -280.3125 L 117.921875 -78.625 C 117.921875 -68.3125 119.425781 -61.21875 122.4375 -57.34375 C 125.445312 -53.476562 129.53125 -51.546875 134.6875 -51.546875 C 140.695312 -51.546875 146.492188 -54.015625 152.078125 -58.953125 C 157.660156 -63.898438 163.242188 -72.171875 168.828125 -83.765625 L 173.34375 -81.84375 C 163.894531 -51.34375 152.1875 -29.21875 138.21875 -15.46875 C 124.257812 -1.71875 108.257812 5.15625 90.21875 5.15625 Z M 90.21875 5.15625 "/></g></g></g><g fill="#daff00" fill-opacity="1"><g transform="translate(1251.953385, 403.824317)"><g><path d="M 65.078125 6.4375 C 49.179688 6.4375 35.648438 0.851562 24.484375 -10.3125 C 13.316406 -21.476562 7.734375 -35.007812 7.734375 -50.90625 C 7.734375 -67.226562 13.316406 -80.972656 24.484375 -92.140625 C 35.648438 -103.316406 49.179688 -108.90625 65.078125 -108.90625 C 80.972656 -108.90625 94.503906 -103.316406 105.671875 -92.140625 C 116.847656 -80.972656 122.4375 -67.226562 122.4375 -50.90625 C 122.4375 -35.007812 116.847656 -21.476562 105.671875 -10.3125 C 94.503906 0.851562 80.972656 6.4375 65.078125 6.4375 Z M 65.078125 6.4375 "/></g></g></g></svg>