<svg id="svg14" xmlns="http://www.w3.org/2000/svg" viewBox="0 0 550 400"><title>symplegma</title><path d="M407.11447,103.04962c-.53369,1.51786-1.015,3.17482-1.68563,4.75127q-17.07189,40.13252-34.18795,80.24621c-1.22575,2.87481-2.42252,5.8516-6.26423,5.90384-4.13137.05618-5.33983-3.08042-6.65865-6.16956q-17.01052-39.84458-34.12658-79.64385a11.60544,11.60544,0,0,1,.02166-9.93845q17.1613-39.77778,34.0905-79.65562c1.32577-3.111,2.61572-6.27367,6.65109-6.22224,3.73172.04755,5.043,3.02222,6.28193,5.92885q17.10131,40.11843,34.20827,80.23442C406.04567,99.895,406.50315,101.36658,407.11447,103.04962Z"/><path d="M198.05954,196.35622c.04289-.1175.55952-1.763,1.23276-3.34172q16.88054-39.58449,33.7918-79.15587c1.37921-3.23149,2.608-6.77928,6.98785-6.588,4.0068.175,5.09258,3.56388,6.39056,6.604,11.11369,26.03056,22.17558,52.08368,33.43721,78.05017A13.90134,13.90134,0,0,1,280,204c-11.28442,25.95723-22.32288,52.02139-33.44553,78.049-1.35556,3.17206-2.29776,6.82619-6.77429,6.82912-4.47368.003-5.47323-3.679-6.81909-6.82174q-16.82826-39.29539-33.5643-78.63022C198.65379,201.67978,197.51929,200.00458,198.05954,196.35622Z"/><path d="M71.86106,103.07027c.6031-1.61242,1.14606-3.25392,1.8207-4.83936Q90.64468,58.36648,107.63343,18.513c1.30927-3.07475,2.60141-6.30052,6.67887-6.18058,3.69923.10881,4.97453,3.00092,6.23441,5.95753q17.09691,40.12184,34.3435,80.17965a10.99912,10.99912,0,0,1-.03576,9.39452q-17.26391,40.04863-34.31949,80.18694c-1.24574,2.92139-2.44635,5.78725-6.25655,5.89706-3.86174.11128-5.20446-2.73263-6.44452-5.63724q-17.23721-40.375-34.44852-80.761C72.78632,106.14325,72.3926,104.64912,71.86106,103.07027Z"/><path d="M351.57273,198.014c-.59235,1.62233-1.111,3.26947-1.78361,4.8511q-17.07221,40.14506-34.16671,80.28063c-1.64609,3.87372-3.87111,7.2959-8.59772,5.22536-4.64722-2.03577-3.79719-5.88356-2.10093-9.83314,10.79287-25.13031,21.39753-50.34195,32.3-75.42428A11.61317,11.61317,0,0,0,337.122,192.826c-10.60268-24.37136-20.96379-48.84783-31.39356-73.29434a47.63984,47.63984,0,0,1-1.8913-4.84242c-1.00951-3.33779.43056-5.69885,3.4279-7.00909,2.95339-1.291,5.26878.0161,6.92311,2.5082a22.44891,22.44891,0,0,1,1.71605,3.65256q16.80187,39.31652,33.58045,78.643C350.23667,194.24738,350.84382,196.07263,351.57273,198.014Z"/><path d="M328.377,197.99233c-.45363,1.45237-.70435,2.593-1.15494,3.64837q-17.6969,41.44845-35.4243,82.88387c-1.50551,3.5246-4.07077,5.44675-7.75059,3.93679-3.9458-1.6191-4.47847-4.92277-2.79616-8.66969.55217-1.22974,1.04435-2.48626,1.57363-3.72642,10.3574-24.26865,20.63644-48.57143,31.1604-72.76768a11.60646,11.60646,0,0,0,.06469-10.28776c-10.69055-24.54341-21.11993-49.20059-31.61594-73.82857a25.59388,25.59388,0,0,1-1.97147-5.41259c-.48907-2.78872.93486-4.82708,3.45182-6.03318a4.97883,4.97883,0,0,1,6.27395,1.3968,16.94625,16.94625,0,0,1,2.481,4.52384q16.92689,39.57717,33.78541,79.18355C327.20146,194.59351,327.792,196.414,328.377,197.99233Z"/><path d="M430.29048,103.0242c-.56182,1.581-1.05361,3.23558-1.72492,4.81378q-17.07523,40.14381-34.19569,80.26842c-1.14113,2.67543-2.22777,5.43375-5.72768,5.82491-4.62715.51712-7.584-3.72065-5.60772-8.601,3.90319-9.63869,8.0777-19.16775,12.1591-28.734,6.95339-16.29783,13.8282-32.63043,20.96118-48.84942a10.44835,10.44835,0,0,0-.01392-9.24335c-10.795-24.91793-21.40414-49.9164-32.04236-74.90207a18.645,18.645,0,0,1-1.80138-5.43686c-.214-2.50263,1.24472-4.37768,3.58866-5.4129a5.07,5.07,0,0,1,6.25674,1.51422,14.98363,14.98363,0,0,1,2.23413,4.00786q17.03145,39.84675,34.00115,79.71991C429.05378,99.5812,429.60818,101.22052,430.29048,103.0242Z"/><path d="M453.43919,103.07815c-.58849,1.67657-1.017,3.15839-1.61673,4.56732q-17.19925,40.40481-34.434,80.79452c-1.25157,2.93574-2.66953,5.67659-6.529,5.50856a5.53331,5.53331,0,0,1-4.9362-3.426c-1.32948-2.64571.06911-4.867,1.03513-7.13851,9.87445-23.21859,19.40649-46.59363,29.85869-69.54957,3.51517-7.72034,3.39338-13.89591-.08713-21.54377-10.20844-22.43157-19.54739-45.25891-29.21652-67.93566a37.2635,37.2635,0,0,1-1.87551-4.8466c-.82257-3.05978.49695-5.31107,3.21739-6.64171,2.90173-1.41935,5.27228-.32517,7.02787,2.128a18.81977,18.81977,0,0,1,1.79318,3.60983q16.90845,39.585,33.78255,79.18473C452.20789,99.54758,452.804,101.371,453.43919,103.07815Z"/><path d="M476.61284,103.07937c-.59595,1.63146-1.11512,3.27887-1.78792,4.86093q-17.073,40.14483-34.1683,80.28019c-1.64754,3.87688-3.88312,7.28844-8.60446,5.20939-4.64312-2.04462-3.77907-5.89351-2.08418-9.84,10.79284-25.13038,21.39552-50.34288,32.30015-75.4243a11.619,11.619,0,0,0-.109-10.28923c-10.59971-24.37273-20.96623-48.84691-31.39462-73.294a33.6118,33.6118,0,0,1-2.04871-5.39407c-.65082-2.783.61937-4.88549,3.07051-6.22072,2.59692-1.41463,4.93411-.71034,6.73836,1.387a15.35541,15.35541,0,0,1,2.20664,4.02482q17.02658,39.84884,33.99475,79.72261C475.402,99.68935,475.95318,101.32984,476.61284,103.07937Z"/><path d="M305.23854,197.99385c-.56532,1.63237-.98266,3.11828-1.58207,4.52672q-17.196,40.40607-34.42,80.8002c-1.66931,3.92358-4.01092,7.13468-8.69548,4.9786-4.27188-1.96617-3.72575-5.638-2.09485-9.4117,6.26568-14.49769,12.41872-29.044,18.62508-43.56739,4.6923-10.98029,9.30115-21.99814,14.16788-32.90071a9.88882,9.88882,0,0,0-.02032-8.719c-10.5488-24.39473-20.94938-48.85357-31.39409-73.29332-.30273-.70841-.55422-1.441-.89207-2.13177-1.89911-3.88243-3.40133-8.07437,1.70291-10.35895,5.61108-2.5114,7.31957,2.09625,9.02736,6.10167,1.73739,4.075,3.49849,8.13991,5.23921,12.21352q14.07637,32.94085,28.13571,65.889C303.86323,194.05743,304.52059,196.06575,305.23854,197.99385Z"/><path d="M178.1281,186.78314c.3099-.80091.94694-2.60612,1.69741-4.36286,10.5134-24.60991,20.97328-49.24318,31.63935-73.78683a12.41033,12.41033,0,0,0,.05676-10.88015c-10.6929-24.53344-21.1468-49.17111-31.64768-73.788a22.8542,22.8542,0,0,1-1.79385-5.44257c-.42273-2.83188,1.08194-4.81967,3.67826-5.86765a5.13142,5.13142,0,0,1,6.20555,1.78751,16.55212,16.55212,0,0,1,2.12036,4.07269q17.06943,39.8168,34.13294,79.63611a10.98472,10.98472,0,0,1,.23508,9.39113c-11.5978,26.86883-23.04734,53.80165-34.55866,80.70787a14.88156,14.88156,0,0,1-1.86107,3.56585,5.31087,5.31087,0,0,1-6.741,1.64586C178.96242,192.41825,177.82233,190.48838,178.1281,186.78314Z"/><path d="M202.33,104.519c-.21461.587-.73226,2.23233-1.40591,3.8111q-16.888,39.57927-33.82028,79.13964a22.08211,22.08211,0,0,1-2.06134,4.11861,5.28521,5.28521,0,0,1-6.65319,1.99666,5.12489,5.12489,0,0,1-3.45131-5.99717,25.80248,25.80248,0,0,1,1.87151-5.42665c10.41468-24.44292,20.77371-48.91035,31.37783-73.271a13.001,13.001,0,0,0,.06754-11.40838c-10.61271-24.35835-20.9863-48.821-31.40011-73.26568a25.12706,25.12706,0,0,1-1.92568-5.98786c-.38549-2.57751,1.09122-4.40874,3.41221-5.4646a5.011,5.011,0,0,1,6.26082,1.48266,17.66178,17.66178,0,0,1,2.45766,4.53143Q184.0206,58.32682,200.90424,97.909C201.6483,99.65442,202.69744,101.36284,202.33,104.519Z"/><path d="M179.65632,103.12247c-.66379,1.81534-1.23861,3.63815-1.984,5.38833q-16.74916,39.32514-33.54329,78.63114a33.39712,33.39712,0,0,1-1.72155,3.65394c-1.68454,2.908-4.25036,4.0029-7.34941,2.68635-3.16079-1.3428-3.92315-4.08247-3.06357-7.23518a34.04547,34.04547,0,0,1,1.73934-4.27407c10.3444-24.26393,20.56486-48.58222,31.1528-72.73944,1.97092-4.4968,1.7805-8.05052-.14184-12.44894-10.56357-24.16993-20.81231-48.4775-31.15248-72.74491a25.31345,25.31345,0,0,1-1.768-4.86211,5.36827,5.36827,0,0,1,3.55054-6.48833c2.71194-1.10518,4.94394-.05987,6.5847,2.14249a17.44122,17.44122,0,0,1,1.78152,3.61033q17.06336,39.81933,34.09382,79.65274C178.5087,99.67155,179.00914,101.32242,179.65632,103.12247Z"/><path d="M163.37436,355.44189c.001-9.256-.06137-18.51251.0168-27.76783.09665-11.442,6.4478-16.69205,17.43373-14.37592a9.917,9.917,0,0,0,4.47757-.11688c9.30067-2.11287,16.573,2.84329,16.72625,12.20945.33126,20.242.09782,40.49285.155,60.73993.00657,2.3297-.58911,3.45136-3.21834,3.53527-3.03193.09674-3.43057-1.3433-3.42237-3.84638.06187-18.89735.03609-37.795.02418-56.69258a20.67292,20.67292,0,0,0-.21385-5.18236c-.88631-3.343-3.16374-5.30821-6.78881-4.92662-3.68685.38809-2.40789,3.42355-2.43485,5.44509-.126,9.44714-.06328,18.89682-.0527,28.34562.00263,2.34362.3576,4.59489-3.33118,4.58185-3.71351-.01311-3.28883-2.31829-3.28859-4.62927.001-9.44876.06448-18.89838-.05265-28.34569-.02526-2.037,1.188-5.01563-2.50734-5.41057-3.366-.35968-5.61276,1.36651-6.59222,4.41282a17.29839,17.29839,0,0,0-.33781,5.15946c-.01961,18.31907.05363,36.63863-.09582,54.9565-.01881,2.30766,2.00108,6.277-3.32272,6.08248-5.22652-.1909-3.01018-4.11345-3.07205-6.40934C163.22741,373.95769,163.3734,364.69785,163.37436,355.44189Z"/><path d="M437.72566,350.9006c0-11.18513.116-22.37214-.067-33.55427-.05886-3.59566.74629-5.28189,4.761-5.10565,6.54421.28732,13.11268-.03533,19.66636.10829,9.15374.20062,14.301,5.25362,14.37341,14.51877.15221,19.47634.032,38.95466.07215,58.4321.00519,2.5294-.02311,4.43773-3.55329,4.38675-3.41373-.04925-3.03709-2.07573-3.03617-4.20118.00346-7.90672-.1744-15.81892.07628-23.71766.11543-3.63643-1.12957-4.6829-4.63386-4.51168-5.38686.26323-10.8057.2658-16.19238.00081-3.68254-.18111-5.106.86126-4.95765,4.78635.29117,7.70282.07233,15.42451.09112,23.13828.00572,2.34991.36746,4.54783-3.34342,4.50161-3.75677-.04674-3.25071-2.37546-3.25244-4.64866Q437.7166,367.96755,437.72566,350.9006Zm6.441-14.23393h0c0,4.03561,0,5.83333.091,10.00533.08,3.66392,1.23571,4.63648,4.659,4.48893,5.37086-.23143,10.76687-.23761,16.13709.00074,3.61392.16041,5.19377-.78215,4.97287-4.76339-.32951-5.93907-.06791-11.91-.08936-17.86731-.02869-7.96-1.74566-9.77725-9.908-9.58691-5.10219.119-11.91923-2.33331-14.81026,1.14558C442.77839,323.02667,444.16667,331.70139,444.16667,336.66667Z"/><path d="M352.86991,351.39327c-.00438,7.71328-.04773,15.42688.00894,23.13973.04805,6.53385,1.766,8.47663,8.0849,8.57584,17.80364.27948,17.89971.66527,17.52141-16.56609-.00848-.38544-.001-.7713-.0011-1.157-.00155-7.94025-.002-7.91746-7.87075-8.07642-2.32416-.04692-5.33065.91525-4.97054-3.37992.15769-1.88116.663-2.92608,2.67465-2.80019a3.62781,3.62781,0,0,0,.57786-.0183c16.1702-1.583,16.1773-1.58313,16.16507,14.347-.00293,3.85524.19563,7.73529-.16309,11.56036-.71279,7.60011-5.74047,12.2469-13.32726,12.54274-3.85079.15013-7.71483.12126-11.5682.01074-7.99449-.22924-13.377-4.81264-13.54635-12.80582-.36336-17.15328-.13264-34.3196-.08144-51.48033a10.9767,10.9767,0,0,1,.81027-3.94792c4.659-11.62668,14.92063-8.818,23.83666-8.92966,7.36352-.09222,11.84182,3.67031,13.47671,10.28345,1.03506,4.18673.39728,8.44777.54567,12.67417.08681,2.47283-1.51929,2.72189-3.42412,2.77-2.11244.05335-3.24188-.68064-3.15227-2.99427.10437-2.69543.02869-5.39834.0088-8.09787a7.91027,7.91027,0,0,0-.163-2.86979c-4.03106-9.55579-12.38862-4.12-18.78892-5.09982-4.31583-.66071-6.61925,2.4864-6.63861,6.86569C352.84776,334.424,352.8743,342.90873,352.86991,351.39327Z"/><path d="M78.49654,333.60285q0,.57805,0,1.15614c.001,13.02933.13,13.15639,13.33062,13.15872,1.73417.00028,3.47026-.046,5.20218.0182,7.9399.29432,13.05781,4.95818,13.56651,12.84663a139.95962,139.95962,0,0,1,.04132,15.6c-.38728,8.1744-5.54554,13.00679-13.77545,13.19536-3.85168.08826-7.71029.11342-11.56013-.00957-7.60529-.24287-12.63283-4.93411-13.26248-12.50136-.27078-3.25414-.00571-6.54936-.12527-9.82078-.09148-2.503.99488-3.3278,3.43709-3.369,2.67011-.045,3.307,1.20444,3.1629,3.52266-.10739,1.72739-.0201,3.467-.017,5.20119.01657,9.31821,1.23318,10.50764,10.7923,10.55346,14.83058.07112,14.83065.07112,14.83046-14.64536,0-1.92688.03351-3.85447-.008-5.78046-.13492-6.26331-1.99556-8.09914-8.40636-8.23807-3.65921-.07936-7.33844.14808-10.97673-.15094-7.5035-.61665-12.15728-5.09926-12.65014-12.53511-.36866-5.562-.12214-11.16916-.02921-16.7542a13.05,13.05,0,0,1,.83109-3.946c2.61153-7.55782,10.28011-10.20049,25.15376-8.73374,6.98354.6887,11.64836,5.08385,12.46969,12.21687.39447,3.42589.07955,6.928.22383,10.38984.11273,2.70514-1.41283,3.17347-3.63913,3.16761-2.2322-.00587-3.10336-1.00849-2.98167-3.18358.09669-1.72863.01957-3.46722.01145-5.20137a20.946,20.946,0,0,0-.08506-4.613c-2.43176-10.2937-10.803-5.18218-16.70454-6.15763-4.71122-.77876-8.491.88751-8.78482,6.52219-.14025,2.6902-.02412,5.39379-.02412,8.0913Z"/><path d="M392.18111,354.99377c.00311-9.6403-.09487-19.28184.03046-28.92051.12716-9.7787,7.06656-15.227,16.53486-12.92528a12.49623,12.49623,0,0,0,6.1353-.2198c8.04024-1.88388,15.51623,3.41914,15.62124,11.70017.25916,20.43409.09759,40.87348.13091,61.31068.00339,2.07291-.02735,3.66562-2.93081,3.73056-3.12054.06978-3.38674-1.52614-3.38158-3.93955q.06-28.05316-.008-56.10642a23.743,23.743,0,0,0-.58076-6.283c-.88938-3.17411-3.31342-4.69884-6.61035-4.32792-3.5711.40173-2.54424,3.32583-2.568,5.42926-.09352,8.28958.26153,16.59814-.21263,24.86158-.15239,2.65575,1.66526,7.9543-3.084,7.82083-4.42444-.12434-2.63847-5.39895-2.80054-8.12087-.49186-8.26139-.13776-16.57108-.20948-24.86112-.017-1.96444.79335-4.55652-2.32871-5.084a5.81925,5.81925,0,0,0-6.64836,3.43645c-1.07937,2.15954-.82045,4.51917-.82155,6.82386-.00883,18.31656.03636,36.63337-.06339,54.94939-.01145,2.10715,1.42181,5.25885-2.98667,5.38117-4.43112.123-3.15782-2.9725-3.1792-5.15657C392.12384,374.66052,392.178,364.82688,392.18111,354.99377Z"/><path d="M300.72555,350.65123c-.00025-11.18969.0896-22.38055-.05635-33.56833-.04243-3.2517.48529-4.94076,4.3541-4.846,10.02613.24549,20.06233.10561,30.09432.0665,2.31412-.009,4.08038.08787,4.11536,3.26021.03417,3.10482-1.53985,3.36886-3.95682,3.346-7.9092-.07473-15.824.12815-23.72759-.09427-3.52072-.09914-4.72883,1.00658-4.62411,4.57249.22644,7.71038.21305,15.43581.00689,23.14733-.09508,3.55746,1.15791,4.76148,4.6769,4.62506,5.779-.22408,11.57372-.00753,17.36064-.07589,2.45036-.02894,4.05593.39028,3.94859,3.45147-.10494,2.99321-2.013,2.77945-3.96442,2.78234-5.98069.0089-11.96463.12476-17.94069-.0401-2.99285-.08261-4.133.9692-4.05692,3.98707q.22593,8.96531-.001,17.93971c-.08112,3.09344,1.24571,4.018,4.14087,3.97937,7.90849-.10557,15.81959.00265,23.72925-.04314,2.51414-.01452,4.4642.03166,4.42158,3.55439-.04289,3.54358-2.296,2.88117-4.29739,2.887-10.03206.02887-20.06685-.11691-30.09488.0855-3.361.0678-4.23786-1.07576-4.19235-4.291C300.82518,373.80375,300.72576,362.22678,300.72555,350.65123Z"/><path d="M209.2715,350.64059c-.00007-11.17188.1594-22.3473-.08739-33.5137-.08524-3.857,1.15-5.026,4.90458-4.88009,6.53917.25411,13.0977-.0394,19.6438.09946,8.96305.19019,13.83728,5.15006,13.96165,14.0863.08042,5.77735.11916,11.55948-.01927,17.33475-.19922,8.31149-5.11014,13.26938-13.34225,13.51607-4.61884.13843-9.25963.26549-13.86311-.02989-3.77661-.24231-5.10666,1.01308-4.99072,4.839.2333,7.69763.0525,15.40741.07257,23.1121.00622,2.38631.26727,4.58069-3.41288,4.466-3.50952-.10935-2.84488-2.37337-2.85061-4.35866C209.25458,373.75488,209.27157,362.19774,209.2715,350.64059Zm6.27467-16.91468c-.00027,17.886-.00027,17.88607,16.979,17.37283,6.73072-.20344,8.79992-2.31235,8.9076-9.23921.06591-4.24026.0304-8.48243.00965-12.72357-.04189-8.55871-1.67675-10.38443-10.0192-10.19014-5.11539.11914-11.65164-2.29709-14.9612,1.12494C213.40967,323.22693,215.9564,329.64885,215.54618,333.72591Z"/><path d="M254.82294,350.91784q-.00042-16.75327.01-33.5065c.00509-2.42072-.65923-5.17162,3.43793-5.13042,4.34912.04378,3.08744,3.14015,3.09546,5.32574.07342,20.02664.1597,40.05487-.05045,60.07953-.04409,4.20433.92775,5.78382,5.38845,5.56734,7.49231-.36371,15.0155-.06279,22.52523-.11317,2.55251-.01714,4.51037.16278,4.43692,3.6129-.07462,3.50376-2.41835,2.81761-4.39964,2.82517-10.0133.03826-20.03042-.13656-30.03839.09773-3.68689.08635-4.52338-1.27108-4.47119-4.67513C254.93145,373.64231,254.82326,362.27925,254.82294,350.91784Z"/><path d="M118.03643,312.9739c4.28344-1.50862,6.47849-.375,7.97073,3.53489,3.2851,8.60743,7.01119,17.04654,11.01441,26.651,3.95534-9.43611,7.47827-17.86674,11.02356-26.288,1.9055-4.52617,1.92283-4.51889,8.03726-4.17921-1.68985,4.19677-2.923,8.36636-4.95046,12.10522a93.68561,93.68561,0,0,0-11.00064,55.06525c.2059,2.09976-.06743,4.24241.04341,6.3567.12467,2.37832-.62777,3.44164-3.2517,3.44186-2.84524.00021-3.01879-1.53741-3.01022-3.66887.03712-9.25179-.12607-18.50672.06819-27.75458a31.001,31.001,0,0,0-2.64941-13.40523C126.73281,334.29819,122.45575,323.623,118.03643,312.9739Z"/></svg>