<svg xmlns="http://www.w3.org/2000/svg" width="3.19975in" height="1.14998in" viewBox="0 0 230.382 82.79821">
  <defs>
    <style>
      .f04ca906-1e69-4f27-8621-a7ab0851ca11 {
        fill: #55565b;
      }

      .e330b834-161b-487c-bb13-8bca561e66de {
        fill: #00abc7;
      }
    </style>
  </defs>
  <title>sysdig_Horz_Color_Logo_RGB_med</title>
  <g id="ef34e798-518f-4388-ac79-8e481fcb331f" data-name="Layer 1">
    <g>
      <g>
        <path class="f04ca906-1e69-4f27-8621-a7ab0851ca11" d="M98.35805,65.73877a8.09485,8.09485,0,0,1-3.08749,6.85516,12.13152,12.13152,0,0,1-7.64045,2.19784A18.98772,18.98772,0,0,1,75.59435,70.553l3.4013-5.23315q4.60458,3.3495,8.84392,3.34913,3.34838,0,3.34913-2.09311v-.10473q0-1.15016-1.72712-1.93621-.62783-.26088-4.08149-1.30819-8.37319-2.4591-8.37282-8.425V54.697a8.05186,8.05186,0,0,1,3.03494-6.5939,11.065,11.065,0,0,1,7.22153-2.30258A18.35867,18.35867,0,0,1,97.73,49.04531l-3.03531,5.49441q-4.44861-2.61563-7.5879-2.61639-2.931,0-2.93058,1.93621v.10473q0,1.04749,1.72712,1.884.67943.31364,3.97713,1.4651a20.26062,20.26062,0,0,1,5.70388,2.72112A6.84343,6.84343,0,0,1,98.35805,65.634Z"/>
        <path class="f04ca906-1e69-4f27-8621-a7ab0851ca11" d="M117.70065,74.94867q-1.62258,4.34313-3.61077,6.07063a8.36155,8.36155,0,0,1-5.59914,1.77891,13.72127,13.72127,0,0,1-7.06463-1.9362l2.66894-5.75605a6.69644,6.69644,0,0,0,3.40131,1.09873A2.919,2.919,0,0,0,110.27,74.37322L99.28045,46.21946h8.42537l6.38406,19.10038,6.1228-19.10038h8.26809Z"/>
        <path class="f04ca906-1e69-4f27-8621-a7ab0851ca11" d="M150.88944,65.73877a8.09485,8.09485,0,0,1-3.08749,6.85516,12.13152,12.13152,0,0,1-7.64045,2.19784A18.98772,18.98772,0,0,1,128.12574,70.553l3.4013-5.23315q4.60458,3.3495,8.84392,3.34913,3.34838,0,3.34913-2.09311v-.10473q0-1.15016-1.72712-1.93621-.62783-.26088-4.08149-1.30819-8.3732-2.4591-8.37282-8.425V54.697a8.05186,8.05186,0,0,1,3.03494-6.5939,11.065,11.065,0,0,1,7.22153-2.30258,18.35869,18.35869,0,0,1,10.4663,3.24478l-3.03531,5.49441q-4.44861-2.61563-7.5879-2.61639-2.931,0-2.93058,1.93621v.10473q0,1.04749,1.72712,1.884.67942.31364,3.97713,1.4651a20.26062,20.26062,0,0,1,5.70388,2.72112,6.84343,6.84343,0,0,1,2.77367,5.59952Z"/>
        <path class="f04ca906-1e69-4f27-8621-a7ab0851ca11" d="M175.16031,74.26849V71.809a12.64966,12.64966,0,0,1-8.73919,2.98276,11.85372,11.85372,0,0,1-8.84391-3.7155q-3.92459-4.08168-3.92458-10.78012v-.10473q0-6.69787,3.8724-10.77974a11.91612,11.91612,0,0,1,8.89609-3.7155,14.207,14.207,0,0,1,8.73919,2.61639V36.06735h7.95427V74.26849Zm.10473-14.07707a8.02984,8.02984,0,0,0-1.98838-5.59914,6.22285,6.22285,0,0,0-4.8146-2.14567,6.29141,6.29141,0,0,0-4.81423,2.09311,7.97678,7.97678,0,0,0-2.04093,5.6517v.10473a7.90419,7.90419,0,0,0,2.04093,5.59952,6.47408,6.47408,0,0,0,9.62883,0,8.02951,8.02951,0,0,0,1.98838-5.59952Z"/>
        <path class="f04ca906-1e69-4f27-8621-a7ab0851ca11" d="M187.92919,43.132V36.06735H196.302V43.132Zm.20908,31.13652v-28.049h7.95427v28.049Z"/>
        <path class="f04ca906-1e69-4f27-8621-a7ab0851ca11" d="M230.382,67.93661q0,7.79811-3.92458,11.35557-3.768,3.45386-11.72232,3.45386A26.1327,26.1327,0,0,1,202.333,79.81546l2.72112-6.48879a19.04962,19.04962,0,0,0,9.47192,2.56421q8.00626,0,8.00645-6.5939v-.31382a14.29813,14.29813,0,0,1-9.15773,2.98276,11.985,11.985,0,0,1-8.687-3.40131A12.889,12.889,0,0,1,200.92,58.88323v-.10474a12.79532,12.79532,0,0,1,3.82023-9.681,11.921,11.921,0,0,1,8.63446-3.4013,15.62909,15.62909,0,0,1,9.053,2.61639V46.21946H230.382Zm-7.84954-9.15812a6.05709,6.05709,0,0,0-1.98838-4.65732,7.382,7.382,0,0,0-9.73356,0,6.13238,6.13238,0,0,0-1.93621,4.65732v.10474a6.1925,6.1925,0,0,0,1.93621,4.70987,6.91306,6.91306,0,0,0,4.86678,1.7793,6.8031,6.8031,0,0,0,4.86678-1.83148,6.05617,6.05617,0,0,0,1.98838-4.65769Z"/>
      </g>
      <g>
        <path class="e330b834-161b-487c-bb13-8bca561e66de" d="M42.23685,74.13642A19.90246,19.90246,0,0,1,24.57528,63.825c-1.555-2.6932-5.56425-9.833-5.76614-10.19528a2.70218,2.70218,0,0,1,4.72128-2.63c.04914.08838,4.191,7.46551,5.72538,10.1229,3.80552,6.59166,10.77507,9.10963,18.644,6.73109a2.70232,2.70232,0,0,1,1.56259,5.17383A24.9965,24.9965,0,0,1,42.23685,74.13642Z"/>
        <g>
          <path class="e330b834-161b-487c-bb13-8bca561e66de" d="M42.82286,82.70836c-10.30195,0-19.91745-4.82071-24.75568-13.20085L7.00908,50.35459a2.70194,2.70194,0,0,1,.9889-3.69124l7.53218-4.34873a2.70215,2.70215,0,1,1,2.70234,4.68014l-5.19211,2.99756,9.70693,16.81285c5.26221,9.1142,17.77318,12.91477,29.25641,8.95154C61.177,67.79407,64.14177,55.05834,58.88,45.94414l-9.2921-16.094A2.70215,2.70215,0,1,1,54.268,27.14777l9.2921,16.094c6.62366,11.47255,2.993,27.36393-8.4449,36.9642a2.69771,2.69771,0,0,1-.81368.46969A33.59034,33.59034,0,0,1,42.82286,82.70836Zm10.55489-4.572h0Z"/>
          <path class="e330b834-161b-487c-bb13-8bca561e66de" d="M42.0111,65.37439c-4.268,0-7.8857-2.84176-9.72294-6.02407L.36256,4.05372A2.70215,2.70215,0,0,1,5.0427,1.35138L36.96831,56.648c.87081,1.50773,3.33925,4.095,6.445,3.09279a2.70233,2.70233,0,0,1,1.65782,5.14412A9.94416,9.94416,0,0,1,42.0111,65.37439Z"/>
          <path class="e330b834-161b-487c-bb13-8bca561e66de" d="M35.09793,36.83985a2.70282,2.70282,0,0,1-2.34008-1.35117L23.79946,19.97176a2.70215,2.70215,0,0,1,4.68014-2.70234l7.60761,13.17685,4.83861-2.79376a2.70215,2.70215,0,0,1,2.70234,4.68014l-7.17907,4.14493A2.70326,2.70326,0,0,1,35.09793,36.83985Z"/>
        </g>
      </g>
    </g>
  </g>
</svg>
