<?xml version="1.0" encoding="UTF-8" standalone="no"?>
<svg
   id="_Слой_1"
   data-name="Слой 1"
   viewBox="0 0 695.44 218.85"
   version="1.1"
   sodipodi:docname="taikun.svg"
   xmlns:inkscape="http://www.inkscape.org/namespaces/inkscape"
   xmlns:sodipodi="http://sodipodi.sourceforge.net/DTD/sodipodi-0.dtd"
   xmlns="http://www.w3.org/2000/svg"
   xmlns:svg="http://www.w3.org/2000/svg">
  <sodipodi:namedview
     id="namedview96"
     pagecolor="#ffffff"
     bordercolor="#000000"
     borderopacity="0.25"
     inkscape:showpageshadow="2"
     inkscape:pageopacity="0.0"
     inkscape:pagecheckerboard="0"
     inkscape:deskcolor="#d1d1d1" />
  <defs
     id="defs39">
    <style
       id="style2">
      .cls-1 {
        stroke: rgba(77, 29, 234, .8);
      }

      .cls-1, .cls-2, .cls-3 {
        fill: none;
        stroke-width: .1px;
      }

      .cls-4 {
        fill: rgba(105, 61, 252, .8);
      }

      .cls-4, .cls-5, .cls-6, .cls-7, .cls-8, .cls-9, .cls-10, .cls-11, .cls-12, .cls-13, .cls-14 {
        fill-rule: evenodd;
      }

      .cls-5 {
        fill: url(#_Безымянный_градиент_4);
      }

      .cls-5, .cls-6, .cls-9 {
        fill-opacity: .8;
      }

      .cls-6 {
        fill: url(#_Безымянный_градиент);
      }

      .cls-7 {
        fill: url(#_Безымянный_градиент_2);
      }

      .cls-8, .cls-15 {
        fill: #7d58f7;
      }

      .cls-9 {
        fill: url(#_Безымянный_градиент_7);
      }

      .cls-2 {
        stroke: rgba(255, 227, 83, .8);
      }

      .cls-10 {
        fill: url(#_Безымянный_градиент_5);
      }

      .cls-11 {
        fill: url(#_Безымянный_градиент_3);
      }

      .cls-16 {
        fill: #262229;
      }

      .cls-3 {
        stroke: rgba(103, 177, 249, .8);
      }

      .cls-12 {
        fill: rgba(255, 177, 85, .8);
      }

      .cls-13 {
        fill: #54abff;
      }

      .cls-14 {
        fill: url(#_Безымянный_градиент_6);
      }
    </style>
    <radialGradient
       id="_Безымянный_градиент"
       data-name="Безымянный градиент"
       cx="-634.42"
       cy="676.24"
       fx="-634.42"
       fy="676.24"
       r="1"
       gradientTransform="translate(-45063.05 -8635.02) rotate(175.72) scale(70.03 -17.92)"
       gradientUnits="userSpaceOnUse">
      <stop
         offset="0"
         stop-color="#8bf8ff"
         id="stop4" />
      <stop
         offset="1"
         stop-color="#aad5ff"
         stop-opacity="0"
         id="stop6" />
    </radialGradient>
    <radialGradient
       id="_Безымянный_градиент_2"
       data-name="Безымянный градиент 2"
       cx="-616.43"
       cy="664.37"
       fx="-616.43"
       fy="664.37"
       r="1"
       gradientTransform="translate(-26374.55 27970.7) rotate(88.81) scale(44.31 -40.72)"
       gradientUnits="userSpaceOnUse">
      <stop
         offset="0"
         stop-color="#333a5c"
         id="stop9" />
      <stop
         offset="1"
         stop-color="#333a5c"
         stop-opacity="0"
         id="stop11" />
    </radialGradient>
    <radialGradient
       id="_Безымянный_градиент_3"
       data-name="Безымянный градиент 3"
       cx="-593.95"
       cy="661.01"
       fx="-593.95"
       fy="661.01"
       r="1"
       gradientTransform="translate(-34731.91 8989.35) rotate(88.71) scale(13.61 -52.99)"
       gradientUnits="userSpaceOnUse">
      <stop
         offset="0"
         stop-color="#333a5c"
         id="stop14" />
      <stop
         offset="1"
         stop-color="#333a5c"
         stop-opacity="0"
         id="stop16" />
    </radialGradient>
    <radialGradient
       id="_Безымянный_градиент_4"
       data-name="Безымянный градиент 4"
       cx="-633.72"
       cy="660.69"
       fx="-633.72"
       fy="660.69"
       r="1"
       gradientTransform="translate(-51239.56 -26002.92) rotate(179.34) scale(80.6 -40.4)"
       gradientUnits="userSpaceOnUse">
      <stop
         offset="0"
         stop-color="#ae96ff"
         id="stop19" />
      <stop
         offset="1"
         stop-color="#ae96ff"
         stop-opacity="0"
         id="stop21" />
    </radialGradient>
    <radialGradient
       id="_Безымянный_градиент_5"
       data-name="Безымянный градиент 5"
       cx="-613.83"
       cy="665.25"
       fx="-613.83"
       fy="665.25"
       r="1"
       gradientTransform="translate(-26533.96 19995.31) rotate(91.06) scale(33.23 -39.48)"
       gradientUnits="userSpaceOnUse">
      <stop
         offset="0"
         stop-color="#333a5c"
         id="stop24" />
      <stop
         offset="1"
         stop-color="#333a5c"
         stop-opacity="0"
         id="stop26" />
    </radialGradient>
    <radialGradient
       id="_Безымянный_градиент_6"
       data-name="Безымянный градиент 6"
       cx="-593.95"
       cy="661.01"
       fx="-593.95"
       fy="661.01"
       r="1"
       gradientTransform="translate(-34731.91 8966.72) rotate(88.71) scale(13.61 -52.99)"
       gradientUnits="userSpaceOnUse">
      <stop
         offset="0"
         stop-color="#333a5c"
         id="stop29" />
      <stop
         offset="1"
         stop-color="#333a5c"
         stop-opacity="0"
         id="stop31" />
    </radialGradient>
    <radialGradient
       id="_Безымянный_градиент_7"
       data-name="Безымянный градиент 7"
       cx="-632.86"
       cy="666.52"
       fx="-632.86"
       fy="666.52"
       r="1"
       gradientTransform="translate(-52112.35 -11537.28) rotate(168.83) scale(77.46 -32.28)"
       gradientUnits="userSpaceOnUse">
      <stop
         offset="0"
         stop-color="#fff1a6"
         id="stop34" />
      <stop
         offset="1"
         stop-color="#ffef99"
         stop-opacity="0"
         id="stop36" />
    </radialGradient>
  </defs>
  <path
     class="cls-16"
     d="m257.18,159.38c-5.35,0-9.54-1.42-12.58-4.25-2.94-2.93-4.4-6.87-4.4-11.79v-48.42h-12.58v-14.62h12.58v-22.95h15.57v22.95h18.08v14.62h-18.08v45.28c0,3.25,1.62,4.87,4.87,4.87h13.21v14.31h-16.67Z"
     id="path41" />
  <path
     class="cls-16"
     d="m323.73,160.95c-6.81,0-13.05-1.73-18.71-5.19-5.56-3.46-9.96-8.33-13.21-14.62-3.25-6.29-4.87-13.42-4.87-21.38s1.62-15.04,4.87-21.22c3.25-6.29,7.65-11.16,13.21-14.62,5.66-3.46,11.9-5.19,18.71-5.19,10.06,0,18.18,3.88,24.37,11.63h.79l1.57-10.06h13.36v79.08h-13.36l-1.57-10.06h-.79c-6.18,7.76-14.31,11.63-24.37,11.63Zm1.73-14.46c4.09,0,7.86-1.1,11.32-3.3,3.56-2.2,6.34-5.35,8.33-9.43,2.1-4.09,3.15-8.75,3.15-13.99s-1.05-9.85-3.15-13.83c-1.99-4.09-4.77-7.23-8.33-9.43-3.46-2.2-7.23-3.3-11.32-3.3s-8.02,1.1-11.48,3.3c-3.46,2.2-6.24,5.35-8.33,9.43-1.99,3.98-2.99,8.6-2.99,13.83s1,10.06,2.99,14.15c2.1,3.98,4.87,7.08,8.33,9.28,3.46,2.2,7.29,3.3,11.48,3.3Z"
     id="path43" />
  <path
     class="cls-16"
     d="m400.41,159.38h-15.57v-79.08h15.57v79.08Zm.79-94.02h-16.98v-15.72h16.98v15.72Z"
     id="path45" />
  <path
     class="cls-16"
     d="m437.9,159.38h-15.57V49.33h15.57v66.98l32.55-36h18.87l-35.53,38.68,37.1,40.41h-18.87l-34.12-37.58v37.58Z"
     id="path47" />
  <path
     class="cls-16"
     d="m531.91,160.95c-6.08,0-11.53-1.36-16.35-4.09-4.72-2.83-8.44-6.76-11.16-11.79-2.62-5.03-3.93-10.8-3.93-17.29v-47.48h15.57v46.22c0,5.66,1.84,10.38,5.5,14.15,3.67,3.77,8.23,5.66,13.68,5.66,3.67,0,7.02-.89,10.06-2.67,3.14-1.78,5.61-4.19,7.39-7.23,1.78-3.04,2.67-6.34,2.67-9.9v-46.22h15.57v79.08h-13.36l-1.57-8.18h-.79c-2.2,2.62-5.35,4.93-9.43,6.92-4.09,1.89-8.7,2.83-13.84,2.83Z"
     id="path49" />
  <path
     class="cls-16"
     d="m591.97,159.38v-79.08h13.36l1.57,8.18h.79c1.99-2.52,5.03-4.77,9.12-6.76,4.09-1.99,8.8-2.99,14.15-2.99,6.08,0,11.48,1.42,16.19,4.24,4.82,2.73,8.54,6.6,11.16,11.63,2.73,5.03,4.09,10.8,4.09,17.29v47.48h-15.57v-46.22c0-5.66-1.83-10.38-5.5-14.15-3.67-3.77-8.23-5.66-13.68-5.66-3.67,0-7.08.89-10.22,2.67-3.04,1.78-5.45,4.19-7.23,7.23-1.78,3.04-2.67,6.34-2.67,9.91v46.22h-15.57Z"
     id="path51" />
  <path
     class="cls-15"
     d="m683.62,159.38v-11.82h11.82v11.82h-11.82Z"
     id="path53" />
  <path
     class="cls-8"
     d="m0,71.25c0,2.7,2.19,4.9,4.9,4.9h14.06c6.89,0,13.72-1.26,20.15-3.73l56.69-21.73c4.51-1.73,9.5-1.73,14.02,0l56.69,21.73c6.43,2.47,13.26,3.73,20.15,3.73h14.06c2.7,0,4.9-2.19,4.9-4.9v-7.62c0-2.7-2.19-4.9-4.9-4.9h-47.5c-2.58,0-5.13-.51-7.51-1.5l-28.43-11.8c-1.58-.66-2.71-2.1-2.96-3.79l-5.48-36.46c-.45-2.98-3.01-5.19-6.02-5.19s-5.58,2.21-6.03,5.19l-5.48,36.46c-.26,1.7-1.38,3.14-2.96,3.79l-28.43,11.8c-2.38.99-4.93,1.5-7.51,1.5H4.9c-2.7,0-4.9,2.19-4.9,4.9v7.62Z"
     id="path55" />
  <g
     id="g63">
    <path
       class="cls-13"
       d="m46.58,134.58v-4.68c-.44-2.17.95-4.5,4.17-5.64l45.75-16.12c3.97-1.4,8.63-1.4,12.6,0l45.75,16.12c3,1.06,4.41,3.15,4.24,5.18v5.59c.17,2.03-1.24,4.12-4.24,5.18l-45.75,16.12c-3.97,1.4-8.63,1.4-12.6,0l-45.75-16.12c-3.22-1.14-4.61-3.47-4.17-5.64Z"
       id="path57" />
    <path
       class="cls-6"
       d="m46.58,134.58v-4.68c-.44-2.17.95-4.5,4.17-5.64l45.75-16.12c3.97-1.4,8.63-1.4,12.6,0l45.75,16.12c3,1.06,4.41,3.15,4.24,5.18v5.59c.17,2.03-1.24,4.12-4.24,5.18l-45.75,16.12c-3.97,1.4-8.63,1.4-12.6,0l-45.75-16.12c-3.22-1.14-4.61-3.47-4.17-5.64Z"
       id="path59" />
    <path
       class="cls-3"
       d="m46.63,129.9h0,0c-.44-2.15.93-4.46,4.14-5.59l45.75-16.12c3.96-1.39,8.61-1.39,12.57,0l45.74,16.12c2.98,1.05,4.37,3.13,4.2,5.13h0v5.6h0c.17,2.01-1.22,4.09-4.2,5.14l-45.74,16.12c-3.96,1.39-8.61,1.39-12.57,0l-45.75-16.12c-3.21-1.13-4.57-3.44-4.14-5.58h0v-4.69Z"
       id="path61" />
  </g>
  <g
     id="g69">
    <path
       class="cls-7"
       d="m46.58,117.12v-4.68c-.44-2.17.95-4.5,4.17-5.64l45.75-16.12c3.97-1.4,8.63-1.4,12.6,0l45.75,16.12c3,1.06,4.41,3.15,4.24,5.18v5.6c.17,2.03-1.24,4.12-4.24,5.18l-45.75,16.12c-3.97,1.4-8.63,1.4-12.6,0l-45.75-16.12c-3.22-1.14-4.61-3.47-4.17-5.64Z"
       id="path65" />
    <path
       class="cls-11"
       d="m46.58,117.12v-4.68c-.44-2.17.95-4.5,4.17-5.64l45.75-16.12c3.97-1.4,8.63-1.4,12.6,0l45.75,16.12c3,1.06,4.41,3.15,4.24,5.18v5.6c.17,2.03-1.24,4.12-4.24,5.18l-45.75,16.12c-3.97,1.4-8.63,1.4-12.6,0l-45.75-16.12c-3.22-1.14-4.61-3.47-4.17-5.64Z"
       id="path67" />
  </g>
  <g
     id="g77">
    <path
       class="cls-4"
       d="m46.58,111.58v-4.68c-.44-2.17.95-4.5,4.17-5.64l45.75-16.12c3.97-1.4,8.63-1.4,12.6,0l45.75,16.12c3,1.06,4.41,3.15,4.24,5.18v5.6c.17,2.03-1.24,4.12-4.24,5.18l-45.75,16.12c-3.97,1.4-8.63,1.4-12.6,0l-45.75-16.12c-3.22-1.14-4.61-3.47-4.17-5.64Z"
       id="path71" />
    <path
       class="cls-5"
       d="m46.58,111.58v-4.68c-.44-2.17.95-4.5,4.17-5.64l45.75-16.12c3.97-1.4,8.63-1.4,12.6,0l45.75,16.12c3,1.06,4.41,3.15,4.24,5.18v5.6c.17,2.03-1.24,4.12-4.24,5.18l-45.75,16.12c-3.97,1.4-8.63,1.4-12.6,0l-45.75-16.12c-3.22-1.14-4.61-3.47-4.17-5.64Z"
       id="path73" />
    <path
       class="cls-1"
       d="m46.63,106.9h0,0c-.44-2.15.93-4.46,4.14-5.59l45.75-16.12c3.96-1.39,8.61-1.39,12.57,0l45.74,16.12c2.98,1.05,4.37,3.13,4.2,5.13h0v5.6h0c.17,2.01-1.22,4.08-4.2,5.14l-45.74,16.12c-3.96,1.39-8.61,1.39-12.57,0l-45.75-16.12c-3.21-1.13-4.57-3.44-4.14-5.58h0v-4.69Z"
       id="path75" />
  </g>
  <g
     id="g83">
    <path
       class="cls-10"
       d="m46.58,94.49v-4.68c-.44-2.17.95-4.5,4.17-5.64l45.75-16.12c3.97-1.4,8.63-1.4,12.6,0l45.75,16.12c3,1.06,4.41,3.15,4.24,5.18v5.6c.17,2.03-1.24,4.12-4.24,5.18l-45.75,16.12c-3.97,1.4-8.63,1.4-12.6,0l-45.75-16.12c-3.22-1.14-4.61-3.47-4.17-5.64Z"
       id="path79" />
    <path
       class="cls-14"
       d="m46.58,94.49v-4.68c-.44-2.17.95-4.5,4.17-5.64l45.75-16.12c3.97-1.4,8.63-1.4,12.6,0l45.75,16.12c3,1.06,4.41,3.15,4.24,5.18v5.6c.17,2.03-1.24,4.12-4.24,5.18l-45.75,16.12c-3.97,1.4-8.63,1.4-12.6,0l-45.75-16.12c-3.22-1.14-4.61-3.47-4.17-5.64Z"
       id="path81" />
  </g>
  <g
     id="g91">
    <path
       class="cls-12"
       d="m46.58,88.96v-4.68c-.44-2.17.95-4.5,4.17-5.64l45.75-16.12c3.97-1.4,8.63-1.4,12.6,0l45.75,16.12c3,1.06,4.41,3.15,4.24,5.18v5.6c.17,2.03-1.24,4.13-4.24,5.18l-45.75,16.12c-3.97,1.4-8.63,1.4-12.6,0l-45.75-16.12c-3.22-1.14-4.61-3.47-4.17-5.64Z"
       id="path85" />
    <path
       class="cls-9"
       d="m46.58,88.96v-4.68c-.44-2.17.95-4.5,4.17-5.64l45.75-16.12c3.97-1.4,8.63-1.4,12.6,0l45.75,16.12c3,1.06,4.41,3.15,4.24,5.18v5.6c.17,2.03-1.24,4.13-4.24,5.18l-45.75,16.12c-3.97,1.4-8.63,1.4-12.6,0l-45.75-16.12c-3.22-1.14-4.61-3.47-4.17-5.64Z"
       id="path87" />
    <path
       class="cls-2"
       d="m46.63,84.27h0,0c-.44-2.15.93-4.46,4.14-5.59l45.75-16.12c3.96-1.39,8.61-1.39,12.57,0l45.74,16.12c2.98,1.05,4.37,3.13,4.2,5.13h0v5.6h0c.17,2.01-1.22,4.08-4.2,5.14l-45.74,16.12c-3.96,1.39-8.61,1.39-12.57,0l-45.75-16.12c-3.21-1.13-4.57-3.44-4.14-5.58h0s0,0,0,0v-4.68Z"
       id="path89" />
  </g>
  <path
     class="cls-8"
     d="m0,147.6c0-2.7,2.19-4.9,4.9-4.9h14.06c6.89,0,13.72,1.26,20.15,3.73l56.69,21.73c4.51,1.73,9.5,1.73,14.02,0l56.69-21.73c6.43-2.46,13.26-3.73,20.15-3.73h14.06c2.7,0,4.9,2.19,4.9,4.9v7.61c0,2.7-2.19,4.9-4.9,4.9h-47.5c-2.58,0-5.13.51-7.51,1.5l-28.43,11.8c-1.58.66-2.71,2.1-2.96,3.79l-5.48,36.46c-.45,2.98-3.01,5.19-6.02,5.19s-5.58-2.21-6.03-5.19l-5.48-36.46c-.26-1.7-1.38-3.14-2.96-3.79l-28.43-11.8c-2.38-.99-4.93-1.5-7.51-1.5H4.9c-2.7,0-4.9-2.19-4.9-4.9v-7.61Z"
     id="path93" />
</svg>
