<svg id="图层_1" data-name="图层 1" xmlns="http://www.w3.org/2000/svg" viewBox="0 0 380 123"><defs><style>.cls-1{fill:#1649dc;}</style></defs><title>tars</title><path class="cls-1" d="M12.6,108.2a785.51752,785.51752,0,0,1,77.3-14c4.8-.6,9.5-1.2,14.3-1.7V42.4l20-.1a1.43017,1.43017,0,0,0,1.4-1.4V29.4a1.36708,1.36708,0,0,0-1.4-1.4l-54.3.1a1.43017,1.43017,0,0,0-1.4,1.4V41a1.36707,1.36707,0,0,0,1.4,1.4h20V85.3A502.5372,502.5372,0,0,0,12.6,108.2Z"/><path class="cls-1" d="M313.3,89.5A21.21466,21.21466,0,0,0,316.6,78a21.53093,21.53093,0,0,0-21.5-21.5H280.9a7.2,7.2,0,1,1,0-14.4h25.4a2.79509,2.79509,0,0,0,2.8-2.8V30.7a2.79509,2.79509,0,0,0-2.8-2.8H280.9a21.5384,21.5384,0,0,0-21,26C262,64,271.4,70.8,281.7,70.8H295a7.2,7.2,0,1,1,0,14.4H261a1.36707,1.36707,0,0,0-1.4,1.4v3.8c16,1.3,31.9,3.1,47.6,5.4,22.1,3.2,44,7.4,65.5,12.4A499.67918,499.67918,0,0,0,313.3,89.5Z"/><path class="cls-1" d="M250.1,89.7l-5.7-12.3-4.1-8.8a21.4163,21.4163,0,0,0-9.4-40.7h-32a1.538,1.538,0,0,0-1.5,1.5V74.7h-4.8c-2.5,0-5,0-7.4.1L167.1,28.9a1.56809,1.56809,0,0,0-1.4-.9H151.2a1.291,1.291,0,0,0-1.3.9L130.4,78.6l-4.6,11.8c5.3-.4,10.5-.9,15.8-1.1l4.9-12.4,10.7-27.2,1.4-3.5.8,2.1.6,1.4h0l10,25.5,5,12.6c5.1-.1,10.2-.2,15.3-.2h7.2c4.8,0,9.5,0,14.3.2V42.2H231a7.1769,7.1769,0,0,1,.9,14.3H221.3a1.43017,1.43017,0,0,0-1.4,1.4,1.26823,1.26823,0,0,0,.1.6l8.1,17.4L234,88.7C239.3,88.9,244.7,89.3,250.1,89.7Z"/><path class="cls-1" d="M315,25h8.6a2.90208,2.90208,0,0,0,2.9-2.9V13.5a2.90208,2.90208,0,0,0-2.9-2.9H315a2.90207,2.90207,0,0,0-2.9,2.9v8.6A2.96843,2.96843,0,0,0,315,25Z"/></svg>
