<?xml version="1.0" encoding="UTF-8"?>
<svg width="150px" height="191px" viewBox="0 0 150 191" version="1.1" xmlns="http://www.w3.org/2000/svg" xmlns:xlink="http://www.w3.org/1999/xlink">
    <!-- Generator: Sketch 49 (51002) - http://www.bohemiancoding.com/sketch -->
    <title>Group 16</title>
    <desc>Created with Sketch.</desc>
    <defs>
        <radialGradient cx="50%" cy="18.5171054%" fx="50%" fy="18.5171054%" r="159.281659%" gradientTransform="translate(0.500000,0.185171),scale(0.481837,1.000000),rotate(130.653656),translate(-0.500000,-0.185171)" id="radialGradient-1">
            <stop stop-color="#7F7F7F" offset="0%"></stop>
            <stop stop-color="#000000" offset="100%"></stop>
        </radialGradient>
        <text id="text-2" font-family="SourceSansPro-Regular, Source Sans Pro" font-size="14" font-weight="normal" letter-spacing="0.777777791" fill="#2B2B2B">
            <tspan x="10.8713333" y="56">TELEPRESENCE</tspan>
        </text>
        <filter x="-0.5%" y="-2.8%" width="101.0%" height="105.6%" filterUnits="objectBoundingBox" id="filter-3">
            <feOffset dx="1" dy="1" in="SourceAlpha" result="shadowOffsetInner1"></feOffset>
            <feComposite in="shadowOffsetInner1" in2="SourceAlpha" operator="arithmetic" k2="-1" k3="1" result="shadowInnerInner1"></feComposite>
            <feColorMatrix values="0 0 0 0 0   0 0 0 0 0   0 0 0 0 0  0 0 0 0.198284647 0" type="matrix" in="shadowInnerInner1"></feColorMatrix>
        </filter>
        <filter x="-0.5%" y="-2.8%" width="101.0%" height="105.6%" filterUnits="objectBoundingBox" id="filter-4">
            <feOffset dx="1" dy="1" in="SourceAlpha" result="shadowOffsetInner1"></feOffset>
            <feComposite in="shadowOffsetInner1" in2="SourceAlpha" operator="arithmetic" k2="-1" k3="1" result="shadowInnerInner1"></feComposite>
            <feColorMatrix values="0 0 0 0 0   0 0 0 0 0   0 0 0 0 0  0 0 0 0.198284647 0" type="matrix" in="shadowInnerInner1"></feColorMatrix>
        </filter>
    </defs>
    <g id="Page-1" stroke="none" stroke-width="1" fill="none" fill-rule="evenodd">
        <g id="Group-17" transform="translate(-18.000000, 2.000000)">
            <g id="Group-16" transform="translate(7.000000, 0.000000)">
                <ellipse id="Oval-8-Copy-10" fill="#E4E4E4" cx="86.5" cy="185" rx="33.5" ry="4"></ellipse>
                <path d="M40.2688259,115.022134 L37.5342605,103.17743 L35.5855204,103.627332 L37.9976309,114.075331 L35.8428571,113.177061 L33.5342605,103.17743 L31.5855204,103.627332 L33.5716621,112.230257 L31.4168882,111.331987 L29.5342605,103.17743 L27.5855204,103.627332 L29.1456932,110.385183 L20.0874176,106.609019 C20.0874176,106.609019 13.7102244,88.4873522 11.8819259,84.3809266 C8.80285031,77.4652095 26.2667116,65.5926857 35.378926,73.923672 C44.4911405,82.2546583 49.694072,118.95128 49.694072,118.95128 L40.2688259,115.022134 Z" id="Combined-Shape-Copy-13" fill="#000000" transform="translate(30.608314, 95.009815) scale(-1, 1) rotate(50.000000) translate(-30.608314, -95.009815) "></path>
                <path d="M151.268826,109.022134 L148.53426,97.1774303 L146.58552,97.6273324 L148.997631,108.075331 L146.842857,107.177061 L144.53426,97.1774303 L142.58552,97.6273324 L144.571662,106.230257 L142.416888,105.331987 L140.53426,97.1774303 L138.58552,97.6273324 L140.145693,104.385183 L131.087418,100.609019 C131.087418,100.609019 124.710224,82.4873522 122.881926,78.3809266 C119.80285,71.4652095 137.266712,59.5926857 146.378926,67.923672 C155.49114,76.2546583 160.694072,112.95128 160.694072,112.95128 L151.268826,109.022134 Z" id="Combined-Shape-Copy-14" fill="#000000" transform="translate(141.608314, 89.009815) rotate(50.000000) translate(-141.608314, -89.009815) "></path>
                <g id="Group-12-Copy-8" transform="translate(60.000000, 164.000000)" fill="#000000">
                    <path d="M8.48341792,1.02090241 C7.82205781,1.00935833 7.27640645,1.54500247 7.26489516,2.20448384 L7.02102434,16.1758335 C7.00941292,16.8410515 7.53724295,17.3896949 8.19749842,17.4012197 L13.8012831,17.4990342 C14.4626433,17.5105782 15.0082946,16.9749341 15.0198059,16.3154527 L15.2636767,2.34410309 C15.2752881,1.67888504 14.7474581,1.13024164 14.0872026,1.11871684 L8.48341792,1.02090241 Z" id="Line-Copy-18" fill-rule="nonzero" transform="translate(11.142351, 9.259968) rotate(-3.000000) translate(-11.142351, -9.259968) "></path>
                    <path d="M0,18.2163932 C0,16.992313 0.995808514,16 2.21330166,16 L12.7866983,16 C14.0090711,16 15,16.9896445 15,17.8906917 L15,16 C15,17.0442002 14.0192772,18.055065 12.8161004,18.2567224 L7.37890625,19.1680188 L2.16405731,20.3854728 C0.96888146,20.6644975 0,19.9009873 0,18.6742985 L0,18.2163932 Z" id="Rectangle-7-Copy-15"></path>
                </g>
                <g id="Group-12-Copy-9" transform="translate(107.000000, 174.500000) scale(-1, 1) translate(-107.000000, -174.500000) translate(99.000000, 164.000000)" fill="#000000">
                    <path d="M8.48341792,1.02090241 C7.82205781,1.00935833 7.27640645,1.54500247 7.26489516,2.20448384 L7.02102434,16.1758335 C7.00941292,16.8410515 7.53724295,17.3896949 8.19749842,17.4012197 L13.8012831,17.4990342 C14.4626433,17.5105782 15.0082946,16.9749341 15.0198059,16.3154527 L15.2636767,2.34410309 C15.2752881,1.67888504 14.7474581,1.13024164 14.0872026,1.11871684 L8.48341792,1.02090241 Z" id="Line-Copy-18" fill-rule="nonzero" transform="translate(11.142351, 9.259968) rotate(-3.000000) translate(-11.142351, -9.259968) "></path>
                    <path d="M0,18.2163932 C0,16.992313 0.995808514,16 2.21330166,16 L12.7866983,16 C14.0090711,16 15,16.9896445 15,17.8906917 L15,16 C15,17.0442002 14.0192772,18.055065 12.8161004,18.2567224 L7.37890625,19.1680188 L2.16405731,20.3854728 C0.96888146,20.6644975 0,19.9009873 0,18.6742985 L0,18.2163932 Z" id="Rectangle-7-Copy-15"></path>
                </g>
                <path d="M32.3821634,53.7626937 C28.8473639,24.0703779 50.2295184,0 80.123453,0 L91.8402324,0 C121.741818,0 143.11633,24.0703039 139.581522,53.7626937 L128.583671,146.14464 C127.146721,158.215022 116.132186,168 103.9892,168 L67.974485,168 C55.8282841,168 44.8164455,158.210664 43.3800141,146.14464 L32.3821634,53.7626937 Z" id="Rectangle-2-Copy-16" fill="#000000"></path>
                <g id="Group-13-Copy" transform="translate(25.000000, 4.000000)">
                    <path d="M62,14.5 L62,0" id="Line-Copy-3" stroke="#4A4A4A" stroke-width="12" stroke-linecap="square"></path>
                    <g id="Group-2-Copy" transform="translate(0.000000, 23.000000)">
                        <path d="M16.0026789,0 C7.16464339,0 0,7.16347416 0,15.9981048 L0,45.2724824 C0,54.1079918 7.1064617,60.4013126 15.886098,59.3273724 L53.7493398,54.6958755 C58.1335374,54.1595929 65.2482917,54.160396 69.6259239,54.6958755 L107.489166,59.3273724 C116.262815,60.4005803 123.375264,54.1071131 123.375264,45.2724824 L123.375264,15.9981048 C123.375264,7.16259551 116.208815,0 107.372585,0 L16.0026789,0 Z" id="Shape" stroke="#000000" stroke-width="2" fill="url(#radialGradient-1)" fill-rule="nonzero"></path>
                        <ellipse id="Oval-9" fill="#80FF00" cx="10.8396947" cy="11.8571429" rx="2.83969466" ry="2.85714286"></ellipse>
                    </g>
                    <g id="Telepresence" fill="#2B2B2B" fill-opacity="1">
                        <use filter="url(#filter-3)" xlink:href="#text-2"></use>
                        <use filter="url(#filter-4)" xlink:href="#text-2"></use>
                    </g>
                </g>
                <path d="M39.9722414,123.191406 C39.9722414,123.191406 53.8183594,134.109375 81.2304688,132.238281 C108.642578,130.367188 132.417554,117 132.417554,117 C132.417554,117 135.600673,131.513243 134.64503,140.398438 C133.689387,149.283632 132.173704,150.892466 132.173704,150.892466 C129.973034,156.552368 123.696392,163.154772 118.145746,165.643241 L117.559092,165.90625 L113.269068,174.562419 C112.777216,175.55485 111.490728,176.248997 110.389906,176.11213 L98.2811392,174.60662 C97.1828739,174.47007 95.8518423,173.57498 95.3174939,172.623926 L93.8965202,170.094824 C93.3580094,169.136362 92.0273495,168.359375 90.9223161,168.359375 L85.041698,168.359375 C83.9376012,168.359375 82.4841114,169.071215 81.8058369,169.935804 L79.5722397,172.782946 C78.8892197,173.653584 77.4497573,174.486001 76.3607363,174.641684 L66.3200747,176.077066 C65.2294303,176.232981 63.9620627,175.560685 63.4817827,174.559722 L60.8904345,169.159028 C60.4135335,168.165107 59.1771857,167.05079 58.1444036,166.675734 L52.9267392,164.780935 C48.7687439,163.270955 44.0632039,158.715894 42.424281,154.626035 L41.8244567,153.129201 C39.5658422,147.492929 38.2908054,138.020797 38.9746099,131.989997 L39.9722414,123.191406 Z" id="Rectangle-2-Copy-17" fill="#CF0019"></path>
                <path d="M101.640576,134.261354 L101.640576,133.617926 C101.640576,132.956915 101.832196,132.454131 102.215442,132.109562 C102.598688,131.764992 103.103229,131.571614 103.72908,131.529422 C104.003329,131.508326 104.270543,131.497778 104.530728,131.497778 C105.494117,131.497778 106.316853,131.624352 106.998961,131.877506 L106.998961,133.470254 C106.359045,133.399934 105.515214,133.364774 104.46744,133.364774 C104.158031,133.364774 103.950589,133.389386 103.845108,133.43861 C103.739628,133.487834 103.686888,133.617925 103.686888,133.828886 L103.686888,133.944914 C103.686888,134.127747 103.725564,134.257838 103.802916,134.33519 C103.880268,134.412542 104.052551,134.451218 104.319768,134.451218 L105.31128,134.451218 C106.148093,134.451218 106.728227,134.813363 107.051701,135.537662 C107.206405,135.889264 107.283757,136.272504 107.283757,136.687394 L107.283757,137.035479 C107.283757,138.610655 106.570016,139.398231 105.142512,139.398231 C104.115835,139.398231 103.444286,139.382409 103.127844,139.350765 C102.811402,139.319121 102.396518,139.2154 101.88318,139.039599 L101.88318,137.446851 C102.656704,137.524203 103.567339,137.562879 104.615112,137.562879 C104.840137,137.562879 105.000114,137.529477 105.095046,137.462673 C105.189979,137.395868 105.237444,137.285115 105.237444,137.130411 L105.237444,136.961643 C105.237444,136.799906 105.198769,136.682121 105.121416,136.608284 C105.044064,136.534448 104.896393,136.49753 104.6784,136.49753 L103.72908,136.49753 C103.34935,136.49753 103.020607,136.434243 102.742842,136.307666 C102.465076,136.18109 102.259392,136.033419 102.125784,135.86465 C101.992175,135.695881 101.88318,135.495471 101.798796,135.263414 C101.693315,134.939941 101.640576,134.605924 101.640576,134.261354 Z M108.001021,139.313847 L108.001021,131.59271 L111.450217,131.59271 C112.195613,131.59271 112.775748,131.780814 113.190638,132.157028 C113.605528,132.533242 113.81297,133.171389 113.81297,134.07149 C113.81297,134.950495 113.689911,135.544693 113.44379,135.854102 C113.310181,136.008807 113.192396,136.11956 113.090432,136.186364 C112.988467,136.253169 112.849587,136.32173 112.673786,136.39205 L114.002834,139.313847 L111.671725,139.313847 L110.680213,136.581914 L110.047333,136.434242 L110.047333,139.313847 L108.001021,139.313847 Z M110.057881,134.894234 L111.186517,134.894234 C111.432639,134.894234 111.589099,134.834463 111.655903,134.714918 C111.722708,134.595374 111.756109,134.394964 111.756109,134.113682 C111.756109,133.832401 111.715676,133.631991 111.634807,133.512446 C111.553939,133.392901 111.40451,133.33313 111.186517,133.33313 L110.057881,133.33313 L110.057881,134.894234 Z M114.277082,137.067123 L114.277082,135.44273 L117.589154,135.44273 L117.589154,137.067123 L114.277082,137.067123 Z M117.979431,133.428062 L117.979431,131.59271 L123.053019,131.59271 L123.548775,132.415454 L121.133283,139.313847 L118.960395,139.313847 L121.048899,133.428062 L117.979431,133.428062 Z M127.240576,131.59271 L127.240576,139.313847 L125.194264,139.313847 L125.194264,133.533542 L123.9496,133.744502 L123.9496,132.447098 L125.21536,131.59271 L127.240576,131.59271 Z" id="SR-71-Copy-11" fill="#FFFFFF" transform="translate(114.440576, 135.448004) rotate(-15.000000) translate(-114.440576, -135.448004) "></path>
                <path d="M72.4842746,91.8678637 C72.4842746,90.7660063 73.3768974,89.8727744 74.4793639,89.8727744 L88.4891853,89.8727744 C89.5910427,89.8727744 90.7885277,90.7113637 91.1660866,91.7520002 L99.6093041,115.02339 C99.9858584,116.061258 99.4437295,116.627441 98.3798392,116.281959 L74.3955514,108.493432 C73.3399824,108.150652 72.4842746,106.980152 72.4842746,105.877685 L72.4842746,91.8678637 Z" id="Rectangle-4-Copy-7" fill="#F5A623" transform="translate(86.387695, 103.387695) rotate(-315.000000) translate(-86.387695, -103.387695) "></path>
            </g>
        </g>
    </g>
</svg>