<svg width="200" height="200" xmlns="http://www.w3.org/2000/svg" xmlns:xlink="http://www.w3.org/1999/xlink">
 <g>
  <title>background</title>
  <rect fill="none" id="canvas_background" height="202" width="202" y="-1" x="-1"/>
 </g>
 <g>
  <title>Layer 1</title>
  <g id="svg_1">
   <g id="svg_2">
    <g id="svg_3">
     <defs transform="translate(1,0) translate(1,0) translate(1,0) ">
      <path d="m82.424,68.6l9.893,10.303l-1.984,1.994l-7.382,-7.639l-9.419,15.617l-9.158,-7.521l2.006,-2.078l6.172,5.264l9.872,-15.94zm-44.446,16.432l0,-3.02l23.049,0l0,3.02l-23.049,0zm0.042,-43.008l54.965,0l0,2.991l-54.965,0l0,-2.991zm54.98,22.921l-54.996,0l0,-2.929l54.996,0l0,2.929zm-28.624,62.85l-55.346,-31.895l0,-1.875l0,0l0,-60.037l0,0l0,-1.876l55.346,-31.895l54.473,31.392l-2.612,1.511l-51.86,-29.886l-52.392,30.273l0,60.971l52.392,30.271l52.626,-30.271l0,-52.282l3.002,-1.642l0,52.532l0,2.814l-55.629,31.895z" id="SVGID_1_"/>
      <linearGradient y2="0.268304" x2="0.366702" y1="0.732733" x1="0.634868" id="SVGID_3_">
       <stop stop-color="#0063FF" offset="0"/>
       <stop stop-color="#00C8DE" offset="1"/>
      </linearGradient>
     </defs>
     <clipPath transform="translate(1,0) translate(1,0) translate(1,0) " id="SVGID_2_">
      <use x="30.142812" y="4.642846" id="svg_4" xlink:href="#SVGID_1_"/>
     </clipPath>
     <polygon id="svg_5" points="62.17681121826172,184.5078582763672 -22.352188110351562,38.1008415222168 123.99580383300781,-46.39215850830078 208.5238037109375,100.01385498046875 " fill="url(#SVGID_3_)" clip-path="url(#SVGID_2_)"/>
    </g>
   </g>
  </g>
  <text xml:space="preserve" text-anchor="start" font-family="Helvetica, Arial, sans-serif" font-size="20" id="svg_6" y="161.089031" x="34.535807" stroke-width="0" stroke="#000" fill="#000000">Tencent Cloud</text>
  <text xml:space="preserve" text-anchor="start" font-family="Helvetica, Arial, sans-serif" font-size="14" id="svg_7" y="181.374787" x="41.250089" stroke-width="0" stroke="#000" fill="#000000">Cloud Log Service</text>
 </g>
</svg>