<?xml version="1.0" encoding="utf-8"?>
<!-- Generator: Adobe Illustrator 21.0.2, SVG Export Plug-In . SVG Version: 6.00 Build 0)  -->
<svg version="1.1" id="图层_1" xmlns="http://www.w3.org/2000/svg" xmlns:xlink="http://www.w3.org/1999/xlink" x="0px" y="0px"
	 viewBox="0 0 140 180" style="enable-background:new 0 0 140 180;" xml:space="preserve">
<style type="text/css">
	.st0{fill:url(#SVGID_1_);}
	.st1{enable-background:new    ;}
</style>
<title>image</title>
<linearGradient id="SVGID_1_" gradientUnits="userSpaceOnUse" x1="100.7593" y1="24.0927" x2="39.7455" y2="-81.5867" gradientTransform="matrix(1 0 0 1 0 96)">
	<stop  offset="0" style="stop-color:#0063FF"/>
	<stop  offset="1" style="stop-color:#00C8DE"/>
</linearGradient>
<path class="st0" d="M48.1,47.5l13.9-8V43l-12.4,7.2L44.9,53v28.9l17,9.8v3.5l-20-11.5V51L48.1,47.5z M78.2,43l17,9.8v28.9l-14,8.1
	l-3,1.7v3.5l4.5-2.6l15.5-8.9V51l-20-11.5V43z M62.1,81.8l2.7,1.2l13.3-30.2l-2.7-1.2L62.1,81.8z M130.8,75.2
	c-4,30.3-29.9,53-60.5,53l0,0c-33.7,0-61-27.3-61-61l0,0c0-33.7,27.3-61,61-61l0,0c30.6,0,56.5,22.7,60.5,53h-3
	C123.3,27.5,94,5.4,62.3,9.8S8.4,43.5,12.9,75.2s33.7,53.9,65.4,49.4c25.7-3.6,45.9-23.8,49.4-49.4H130.8z"/>
<g class="st1">
	<path d="M13.1,142.3v2H8.4v12.3H6.1v-12.3H1.4v-2H13.1z"/>
	<path d="M22.9,147.7c0.8,1,1.2,2.5,1.2,4.4h-7.7c0.1,1,0.3,1.7,0.8,2.2s1.1,0.8,1.9,0.8c0.7,0,1.3-0.2,1.7-0.5
		c0.3-0.3,0.6-0.7,0.9-1.3H24c-0.2,1-0.7,1.8-1.4,2.4c-0.9,0.8-2.1,1.2-3.4,1.2c-1.5,0-2.8-0.5-3.7-1.4c-1-1-1.4-2.3-1.4-4
		c0-1.5,0.4-2.8,1.4-3.9c0.9-1.1,2.1-1.6,3.6-1.6C20.7,146,22,146.5,22.9,147.7z M17.3,148.5c-0.4,0.4-0.7,1-0.8,1.9h5.3
		c-0.2-1.7-1.1-2.5-2.7-2.5C18.3,147.8,17.7,148,17.3,148.5z"/>
	<path d="M35.1,150.2v6.4h-2.3v-6.2c0-1.7-0.8-2.5-2.3-2.5c-0.6,0-1.1,0.2-1.5,0.6c-0.5,0.4-0.8,1.1-0.8,1.9v6.2h-2.3v-10.3h2.3v1.2
		c0.4-0.5,0.9-0.9,1.4-1.1c0.5-0.3,1.1-0.4,1.7-0.4C33.8,146,35.1,147.4,35.1,150.2z"/>
	<path d="M45.4,146.9c0.8,0.6,1.3,1.6,1.5,2.9h-2.3c-0.1-0.7-0.4-1.1-0.8-1.5c-0.4-0.3-1-0.5-1.7-0.5c-0.8,0-1.5,0.3-2,0.9
		c-0.5,0.6-0.7,1.5-0.7,2.6c0,1.1,0.2,2,0.7,2.7c0.4,0.6,1.1,0.9,2,0.9c1.5,0,2.4-0.8,2.5-2.3H47c-0.2,1.4-0.8,2.4-1.6,3.1
		c-0.8,0.7-1.9,1-3.2,1c-1.6,0-2.8-0.5-3.7-1.6c-0.9-1-1.3-2.3-1.3-3.9c0-1.6,0.4-2.8,1.3-3.8c0.9-1.1,2.2-1.6,3.8-1.6
		C43.5,146,44.6,146.3,45.4,146.9z"/>
	<path d="M57.1,147.7c0.8,1,1.2,2.5,1.2,4.4h-7.7c0.1,1,0.3,1.7,0.8,2.2s1.1,0.8,1.9,0.8c0.7,0,1.3-0.2,1.7-0.5
		c0.3-0.3,0.6-0.7,0.9-1.3h2.3c-0.2,1-0.7,1.8-1.4,2.4c-0.9,0.8-2.1,1.2-3.4,1.2c-1.5,0-2.8-0.5-3.7-1.4c-1-1-1.4-2.3-1.4-4
		c0-1.5,0.4-2.8,1.4-3.9c0.9-1.1,2.1-1.6,3.6-1.6C54.9,146,56.2,146.5,57.1,147.7z M51.4,148.5c-0.4,0.4-0.7,1-0.8,1.9h5.3
		c-0.2-1.7-1.1-2.5-2.7-2.5C52.5,147.8,51.9,148,51.4,148.5z"/>
	<path d="M69.3,150.2v6.4H67v-6.2c0-1.7-0.8-2.5-2.3-2.5c-0.6,0-1.1,0.2-1.5,0.6c-0.5,0.4-0.8,1.1-0.8,1.9v6.2h-2.3v-10.3h2.3v1.2
		c0.4-0.5,0.9-0.9,1.4-1.1c0.5-0.3,1.1-0.4,1.7-0.4C68,146,69.3,147.4,69.3,150.2z"/>
	<path d="M75,146.2h2.3v1.9H75v5.8c0,0.2,0,0.4,0.2,0.6c0.1,0.1,0.3,0.2,0.5,0.2H77v1.9h-1.7c-0.9,0-1.6-0.2-2-0.7
		c-0.4-0.4-0.6-1.1-0.6-1.9v-5.8h-1.9v-1.9h1.9v-2.4l2.3-0.9V146.2z"/>
	<path d="M96.2,143.3c1,0.8,1.7,2,1.9,3.4h-2.3c-0.2-0.9-0.7-1.6-1.3-2.1c-0.6-0.4-1.5-0.6-2.5-0.6c-1.5,0-2.6,0.5-3.4,1.5
		c-0.7,0.9-1,2.2-1,3.8c0,1.7,0.3,3,1,3.9c0.7,1,1.9,1.5,3.5,1.5c1,0,1.9-0.3,2.5-0.7c0.7-0.5,1.2-1.4,1.4-2.4h2.3
		c-0.3,1.7-1.1,3-2.2,3.9c-1.1,0.9-2.4,1.3-4,1.3c-2.4,0-4.2-0.8-5.3-2.2c-1-1.3-1.5-3-1.5-5.2c0-2.1,0.5-3.9,1.6-5.2
		c1.2-1.5,2.9-2.3,5.2-2.3C93.7,142,95.1,142.5,96.2,143.3z"/>
	<path d="M102.7,142v14.6h-2.3V142H102.7z"/>
	<path d="M113.9,147.5c0.9,1,1.4,2.3,1.4,3.9c0,1.6-0.5,2.9-1.4,3.9c-1,1-2.2,1.6-3.8,1.6c-1.6,0-2.8-0.5-3.8-1.6
		c-0.9-1-1.4-2.3-1.4-3.9c0-1.6,0.5-2.9,1.4-3.9c0.9-1,2.2-1.5,3.8-1.5C111.7,146,113,146.5,113.9,147.5z M107.9,148.9
		c-0.4,0.6-0.7,1.5-0.7,2.5s0.2,1.8,0.7,2.5c0.5,0.7,1.2,1.1,2.2,1.1c0.9,0,1.7-0.4,2.2-1.1c0.4-0.7,0.7-1.5,0.7-2.5
		c0-1-0.2-1.8-0.7-2.5c-0.5-0.8-1.3-1.1-2.2-1.1C109.2,147.8,108.5,148.2,107.9,148.9z"/>
	<path d="M119.6,146.2v6.3c0,0.8,0.2,1.4,0.5,1.8c0.4,0.4,0.9,0.6,1.7,0.6c0.5,0,1-0.2,1.4-0.6c0.5-0.4,0.8-1,1-1.8v-6.3h2.3v10.3
		h-2.3v-1.3c-0.9,1.1-2,1.6-3.2,1.6c-2.5,0-3.7-1.4-3.7-4.2v-6.4H119.6z"/>
	<path d="M138.6,142v14.6h-2.1v-1.1c-0.7,0.9-1.8,1.4-3.1,1.4c-1.5,0-2.7-0.5-3.6-1.6c-0.8-1-1.2-2.3-1.2-3.9c0-1.5,0.4-2.8,1.2-3.8
		c0.8-1.1,2-1.6,3.5-1.6c1.2,0,2.2,0.6,3.1,1.7V142H138.6z M131.5,148.8c-0.4,0.6-0.6,1.4-0.6,2.5c0,1.1,0.2,2,0.6,2.6
		c0.5,0.7,1.2,1.1,2.2,1.1c0.9,0,1.6-0.4,2.1-1.1c0.4-0.6,0.6-1.5,0.6-2.5v-0.2c0-1.1-0.3-2-0.8-2.6c-0.5-0.6-1.1-0.9-1.8-0.9
		C132.8,147.8,132,148.1,131.5,148.8z"/>
	<path d="M7.6,165.1c0.5,0.4,0.9,1,0.9,1.9H7.2c-0.1-0.5-0.3-0.8-0.6-1c-0.3-0.2-0.7-0.3-1.3-0.3c-0.5,0-0.9,0.1-1.1,0.2
		c-0.3,0.2-0.5,0.4-0.5,0.8c0,0.3,0.2,0.6,0.5,0.8c0.2,0.1,0.6,0.3,1.3,0.5c1.1,0.3,1.7,0.6,2.1,0.8c0.7,0.4,1,1,1,1.7
		c0,0.7-0.3,1.3-0.8,1.7c-0.5,0.4-1.3,0.6-2.3,0.6c-1,0-1.7-0.2-2.3-0.6c-0.7-0.5-1-1.2-1.1-2.2h1.3c0.1,0.6,0.3,1,0.6,1.3
		c0.3,0.2,0.8,0.3,1.4,0.3c0.6,0,1-0.1,1.4-0.3c0.3-0.2,0.5-0.5,0.5-0.8c0-0.4-0.3-0.7-0.7-1c-0.2-0.1-0.7-0.3-1.5-0.5
		c-1-0.3-1.6-0.5-1.8-0.7c-0.6-0.4-0.9-0.9-0.9-1.6s0.3-1.2,0.9-1.6c0.6-0.4,1.2-0.6,2.1-0.6C6.3,164.6,7.1,164.8,7.6,165.1z"/>
	<path d="M14.3,167.7c0.5,0.6,0.7,1.4,0.7,2.4h-4.3c0,0.5,0.2,0.9,0.4,1.2c0.2,0.3,0.6,0.4,1,0.4c0.4,0,0.7-0.1,0.9-0.3
		c0.2-0.1,0.4-0.4,0.5-0.7h1.3c-0.1,0.5-0.4,1-0.8,1.3c-0.5,0.4-1.1,0.6-1.9,0.6c-0.8,0-1.5-0.3-2-0.8c-0.5-0.5-0.8-1.3-0.8-2.2
		c0-0.8,0.2-1.6,0.7-2.1c0.5-0.6,1.2-0.9,2-0.9C13,166.7,13.8,167,14.3,167.7z M11.2,168.1c-0.2,0.2-0.4,0.6-0.5,1h2.9
		c-0.1-0.9-0.6-1.4-1.5-1.4C11.7,167.8,11.4,167.9,11.2,168.1z"/>
	<path d="M19.3,166.9v1.3c-0.3-0.1-0.6-0.1-0.8-0.1c-0.3,0-0.6,0.1-0.9,0.4c-0.3,0.3-0.5,0.7-0.5,1.2v3h-1.2v-5.7h1.2v0.8
		c0.2-0.3,0.3-0.5,0.5-0.7c0.3-0.2,0.5-0.3,0.9-0.3C18.9,166.7,19.1,166.8,19.3,166.9z"/>
	<path d="M20.8,166.9l1.4,4.1l1.4-4.1h1.4l-2.1,5.7h-1.3l-2.1-5.7H20.8z"/>
	<path d="M30.2,167.7c0.5,0.6,0.7,1.4,0.7,2.4h-4.3c0,0.5,0.2,0.9,0.4,1.2c0.2,0.3,0.6,0.4,1,0.4c0.4,0,0.7-0.1,0.9-0.3
		c0.2-0.1,0.4-0.4,0.5-0.7h1.3c-0.1,0.5-0.4,1-0.8,1.3c-0.5,0.4-1.1,0.6-1.9,0.6c-0.8,0-1.5-0.3-2-0.8c-0.5-0.5-0.8-1.3-0.8-2.2
		c0-0.8,0.2-1.6,0.7-2.1c0.5-0.6,1.2-0.9,2-0.9C29,166.7,29.7,167,30.2,167.7z M27.1,168.1c-0.2,0.2-0.4,0.6-0.5,1h2.9
		c-0.1-0.9-0.6-1.4-1.5-1.4C27.6,167.8,27.3,167.9,27.1,168.1z"/>
	<path d="M35.2,166.9v1.3c-0.3-0.1-0.6-0.1-0.8-0.1c-0.3,0-0.6,0.1-0.9,0.4c-0.3,0.3-0.5,0.7-0.5,1.2v3h-1.2v-5.7h1.2v0.8
		c0.2-0.3,0.3-0.5,0.5-0.7c0.3-0.2,0.5-0.3,0.9-0.3C34.8,166.7,35,166.8,35.2,166.9z"/>
	<path d="M37.3,164.6v8h-1.3v-8H37.3z"/>
	<path d="M43.3,167.7c0.5,0.6,0.7,1.4,0.7,2.4h-4.3c0,0.5,0.2,0.9,0.4,1.2c0.2,0.3,0.6,0.4,1,0.4c0.4,0,0.7-0.1,0.9-0.3
		c0.2-0.1,0.4-0.4,0.5-0.7h1.3c-0.1,0.5-0.4,1-0.8,1.3c-0.5,0.4-1.1,0.6-1.9,0.6c-0.8,0-1.5-0.3-2-0.8c-0.5-0.5-0.8-1.3-0.8-2.2
		c0-0.8,0.2-1.6,0.7-2.1c0.5-0.6,1.2-0.9,2-0.9C42.1,166.7,42.8,167,43.3,167.7z M40.2,168.1c-0.2,0.2-0.4,0.6-0.5,1h2.9
		c-0.1-0.9-0.6-1.4-1.5-1.4C40.8,167.8,40.5,167.9,40.2,168.1z"/>
	<path d="M49.6,168.5h-1.2c-0.1-0.3-0.2-0.5-0.4-0.6c-0.2-0.1-0.5-0.2-0.9-0.2c-0.3,0-0.6,0-0.7,0.1c-0.2,0.1-0.3,0.3-0.3,0.5
		c0,0.2,0.1,0.3,0.5,0.5c0.2,0.1,0.6,0.2,1.1,0.3c0.6,0.2,1.1,0.3,1.4,0.5c0.5,0.3,0.7,0.7,0.7,1.2c0,1.2-0.9,1.8-2.6,1.8
		c-1.6,0-2.4-0.7-2.6-2h1.2c0.1,0.4,0.2,0.6,0.4,0.8c0.2,0.1,0.5,0.2,0.9,0.2c0.9,0,1.3-0.2,1.3-0.7c0-0.3-0.2-0.5-0.5-0.6
		c-0.2-0.1-0.6-0.2-1.1-0.3c-0.7-0.2-1.1-0.3-1.4-0.5c-0.4-0.3-0.7-0.7-0.7-1.2c0-0.5,0.2-0.9,0.6-1.2c0.4-0.3,1-0.5,1.7-0.5
		C48.6,166.7,49.5,167.3,49.6,168.5z"/>
	<path d="M55.4,168.5h-1.2c-0.1-0.3-0.2-0.5-0.4-0.6c-0.2-0.1-0.5-0.2-0.9-0.2c-0.3,0-0.6,0-0.7,0.1c-0.2,0.1-0.3,0.3-0.3,0.5
		c0,0.2,0.1,0.3,0.5,0.5c0.2,0.1,0.6,0.2,1.1,0.3c0.6,0.2,1.1,0.3,1.4,0.5c0.5,0.3,0.7,0.7,0.7,1.2c0,1.2-0.9,1.8-2.6,1.8
		c-1.6,0-2.4-0.7-2.6-2h1.2c0.1,0.4,0.2,0.6,0.4,0.8c0.2,0.1,0.5,0.2,0.9,0.2c0.9,0,1.3-0.2,1.3-0.7c0-0.3-0.2-0.5-0.5-0.6
		c-0.2-0.1-0.6-0.2-1.1-0.3c-0.7-0.2-1.1-0.3-1.4-0.5c-0.4-0.3-0.7-0.7-0.7-1.2c0-0.5,0.2-0.9,0.6-1.2c0.4-0.3,1-0.5,1.7-0.5
		C54.4,166.7,55.2,167.3,55.4,168.5z"/>
	<path d="M66,165.3c0.6,0.5,0.9,1.1,1,1.9h-1.3c-0.1-0.5-0.4-0.9-0.7-1.1c-0.4-0.2-0.8-0.4-1.4-0.4c-0.8,0-1.4,0.3-1.9,0.8
		c-0.4,0.5-0.6,1.2-0.6,2.1c0,0.9,0.2,1.6,0.6,2.1c0.4,0.5,1,0.8,1.9,0.8c0.6,0,1-0.1,1.4-0.4c0.4-0.3,0.6-0.7,0.8-1.3h1.3
		c-0.2,0.9-0.6,1.6-1.2,2.2c-0.6,0.5-1.3,0.7-2.2,0.7c-1.3,0-2.3-0.4-2.9-1.2c-0.6-0.7-0.8-1.7-0.8-2.8c0-1.2,0.3-2.1,0.9-2.8
		c0.7-0.8,1.6-1.2,2.9-1.2C64.6,164.6,65.4,164.8,66,165.3z"/>
	<path d="M69.6,164.6v8h-1.3v-8H69.6z"/>
	<path d="M75.8,167.6c0.5,0.6,0.8,1.3,0.8,2.2c0,0.9-0.3,1.6-0.8,2.1c-0.5,0.6-1.2,0.9-2.1,0.9c-0.9,0-1.6-0.3-2.1-0.9
		c-0.5-0.5-0.8-1.3-0.8-2.1c0-0.9,0.3-1.6,0.8-2.2c0.5-0.6,1.2-0.8,2.1-0.8C74.5,166.7,75.2,167,75.8,167.6z M72.5,168.4
		c-0.2,0.4-0.4,0.8-0.4,1.4c0,0.6,0.1,1,0.4,1.4c0.3,0.4,0.7,0.6,1.2,0.6c0.5,0,0.9-0.2,1.2-0.6c0.2-0.4,0.4-0.8,0.4-1.4
		c0-0.5-0.1-1-0.4-1.4c-0.3-0.4-0.7-0.6-1.2-0.6C73.2,167.8,72.8,168,72.5,168.4z"/>
	<path d="M78.9,166.9v3.5c0,0.5,0.1,0.8,0.3,1c0.2,0.2,0.5,0.3,0.9,0.3c0.3,0,0.5-0.1,0.8-0.4c0.3-0.2,0.4-0.6,0.6-1v-3.5h1.3v5.7
		h-1.3v-0.7c-0.5,0.6-1.1,0.9-1.8,0.9c-1.4,0-2-0.8-2-2.3v-3.5H78.9z"/>
	<path d="M89.3,164.6v8h-1.2V172c-0.4,0.5-1,0.8-1.7,0.8c-0.8,0-1.5-0.3-2-0.9c-0.4-0.5-0.7-1.3-0.7-2.1c0-0.8,0.2-1.5,0.6-2.1
		c0.5-0.6,1.1-0.9,1.9-0.9c0.7,0,1.2,0.3,1.7,0.9v-3.1H89.3z M85.5,168.3c-0.2,0.3-0.3,0.8-0.3,1.4s0.1,1.1,0.3,1.4
		c0.3,0.4,0.7,0.6,1.2,0.6c0.5,0,0.9-0.2,1.1-0.6c0.2-0.4,0.4-0.8,0.4-1.4v-0.1c0-0.6-0.2-1.1-0.4-1.4c-0.3-0.3-0.6-0.5-1-0.5
		C86.1,167.8,85.7,167.9,85.5,168.3z"/>
	<path d="M99.8,164.7v1.1h-4.1v2.2h3.8v1.1h-3.8v3.5h-1.3v-7.9H99.8z"/>
	<path d="M102,166.9v3.5c0,0.5,0.1,0.8,0.3,1c0.2,0.2,0.5,0.3,0.9,0.3c0.3,0,0.5-0.1,0.8-0.4c0.3-0.2,0.4-0.6,0.5-1v-3.5h1.3v5.7
		h-1.3v-0.7c-0.5,0.6-1.1,0.9-1.8,0.9c-1.4,0-2-0.8-2-2.3v-3.5H102z"/>
	<path d="M112.2,169.1v3.5H111v-3.4c0-0.9-0.4-1.4-1.3-1.4c-0.3,0-0.6,0.1-0.8,0.3c-0.3,0.2-0.4,0.6-0.5,1v3.4h-1.3v-5.7h1.3v0.7
		c0.2-0.3,0.5-0.5,0.7-0.6c0.3-0.1,0.6-0.2,0.9-0.2C111.5,166.7,112.2,167.5,112.2,169.1z"/>
	<path d="M117.8,167.2c0.5,0.4,0.7,0.9,0.8,1.6h-1.2c-0.1-0.4-0.2-0.6-0.5-0.8c-0.2-0.2-0.5-0.3-0.9-0.3c-0.5,0-0.8,0.2-1.1,0.5
		c-0.3,0.3-0.4,0.8-0.4,1.4c0,0.6,0.1,1.1,0.4,1.5c0.2,0.3,0.6,0.5,1.1,0.5c0.8,0,1.3-0.4,1.4-1.2h1.2c-0.1,0.8-0.4,1.3-0.9,1.7
		c-0.4,0.4-1,0.6-1.8,0.6c-0.9,0-1.6-0.3-2-0.9c-0.5-0.5-0.7-1.3-0.7-2.1c0-0.9,0.2-1.6,0.7-2.1c0.5-0.6,1.2-0.9,2.1-0.9
		C116.8,166.7,117.4,166.9,117.8,167.2z"/>
	<path d="M121.5,166.9h1.3v1h-1.3v3.2c0,0.1,0,0.2,0.1,0.3c0.1,0.1,0.2,0.1,0.3,0.1h0.7v1h-1c-0.5,0-0.9-0.1-1.1-0.4
		c-0.2-0.2-0.3-0.6-0.3-1v-3.2h-1v-1h1v-1.3l1.3-0.5V166.9z"/>
	<path d="M125.1,164.8c0.2,0.2,0.2,0.4,0.2,0.6c0,0.2-0.1,0.5-0.3,0.6s-0.4,0.2-0.6,0.2c-0.2,0-0.4-0.1-0.6-0.2
		c-0.2-0.2-0.2-0.4-0.2-0.6c0-0.2,0.1-0.4,0.2-0.6s0.4-0.2,0.6-0.2C124.8,164.6,125,164.6,125.1,164.8z M125.2,166.9v5.7h-1.3v-5.7
		H125.2z"/>
	<path d="M131.4,167.6c0.5,0.6,0.8,1.3,0.8,2.2c0,0.9-0.3,1.6-0.8,2.1c-0.5,0.6-1.2,0.9-2.1,0.9c-0.9,0-1.6-0.3-2.1-0.9
		c-0.5-0.5-0.8-1.3-0.8-2.1c0-0.9,0.3-1.6,0.8-2.2c0.5-0.6,1.2-0.8,2.1-0.8C130.2,166.7,130.9,167,131.4,167.6z M128.1,168.4
		c-0.2,0.4-0.4,0.8-0.4,1.4c0,0.6,0.1,1,0.4,1.4c0.3,0.4,0.7,0.6,1.2,0.6c0.5,0,0.9-0.2,1.2-0.6c0.2-0.4,0.4-0.8,0.4-1.4
		c0-0.5-0.1-1-0.4-1.4c-0.3-0.4-0.7-0.6-1.2-0.6C128.8,167.8,128.4,168,128.1,168.4z"/>
	<path d="M138.4,169.1v3.5h-1.3v-3.4c0-0.9-0.4-1.4-1.3-1.4c-0.3,0-0.6,0.1-0.8,0.3c-0.3,0.2-0.4,0.6-0.5,1v3.4h-1.3v-5.7h1.3v0.7
		c0.2-0.3,0.5-0.5,0.7-0.6c0.3-0.1,0.6-0.2,0.9-0.2C137.7,166.7,138.4,167.5,138.4,169.1z"/>
</g>
</svg>
