<svg xmlns="http://www.w3.org/2000/svg" viewBox="0 0 382.82 80.33">
    <defs>
        <style>
            .cls-1,
            .cls-2,
            .cls-3 {
                fill: #22205f;
                stroke: #22205f;
                stroke-miterlimit: 10;
            }

            .cls-1 {
                fill-rule: evenodd;
            }

            .cls-3 {
                stroke-width: 3px;
            }
        </style>
    </defs>
    <g id="Layer_2" data-name="Layer 2">
        <g id="Layer_1-2" data-name="Layer 1">
            <path class="cls-1"
                d="M.55,8.81c45.41-11.13,38.62-11,84.07,0-3,26.59-13.35,48.6-32.84,64.94-9.59,8-8.67,8.12-18.24.12C14,57.52,3.54,35.47.55,8.81ZM55.61,31.08c-2.34,9.15-3.11,19.23-3.42,28.61,0,1.67-.09,3.34-.11,5,13.41-12.95,21.09-29,24.59-47.06C68.94,21,60.39,26.27,55.61,31.08ZM45.52,70.53c0-3.68,0-7.36.13-11.05.33-10.18,1.22-21,3.85-30.9l.22-.79.56-.6C55.18,22,63.87,16.36,72.19,12.47c-5-1.22-9.91-2.42-14.87-3.49A70.86,70.86,0,0,0,42.55,7,69.81,69.81,0,0,0,27.81,9c-5,1.06-9.92,2.27-14.87,3.5,8.34,3.88,17,9.49,22,14.73l.56.6.21.79c2.64,9.86,3.53,20.72,3.86,30.9.12,3.69.15,7.36.13,11,1,.84,2.09,1.77,3,2.37.85-.6,1.94-1.51,2.92-2.35Zm-16-39.45C24.78,26.27,16.23,21,8.49,17.63,12,35.74,19.69,51.75,33.09,64.69c0-1.66-.06-3.33-.11-5C32.67,50.31,31.89,40.23,29.56,31.08Z" />
            <path class="cls-2" d="M108.82,60.19v-35h-14v-4h33v4h-14v35Z" />
            <path class="cls-2" d="M132.82,60.19v-39h22v4h-17v12h14v5h-14v14h18v4Z" />
            <path class="cls-2"
                d="M159.82,59.1V53.7q6.5,3,10.7,3a7.6,7.6,0,0,0,5.15-1.7,5.57,5.57,0,0,0,2-4.43,6,6,0,0,0-1.28-3.84,17.3,17.3,0,0,0-4.74-3.53L169,41.68A25,25,0,0,1,162,36.4a8.86,8.86,0,0,1-2-5.75,9.36,9.36,0,0,1,3.22-7.33,11.82,11.82,0,0,1,8.2-2.87,32.51,32.51,0,0,1,9.37,1.48v5q-6.07-2.39-9.06-2.39A7.12,7.12,0,0,0,167.09,26a4.67,4.67,0,0,0-1.84,3.79,4.9,4.9,0,0,0,1.35,3.4,21.67,21.67,0,0,0,4.93,3.53l2.75,1.56a23.92,23.92,0,0,1,7,5.34,9.55,9.55,0,0,1,2,6.05,9.92,9.92,0,0,1-3.69,8q-3.68,3-9.78,3A38.53,38.53,0,0,1,159.82,59.1Z" />
            <path class="cls-2" d="M199.82,60.19v-35h-14v-4h33v4h-14v35Z" />
            <path class="cls-2" d="M224.82,60.19v-39h5v39Z" />
            <path class="cls-2" d="M240.82,60.19v-39h21v4h-16v13h14v4h-14v18Z" />
            <path class="cls-2"
                d="M277.82,60.19V43.91L266.06,21.19h5.71l9.15,17.63,9.86-17.63h4.64L282.82,43.8V60.19Z" />
            <path class="cls-3"
                d="M299.32,57V52.08Q305.2,54.8,309,54.8a6.82,6.82,0,0,0,4.66-1.54,5,5,0,0,0,1.77-4,5.32,5.32,0,0,0-1.16-3.48A15.35,15.35,0,0,0,310,42.59l-2.4-1.39a22.41,22.41,0,0,1-6.26-4.78,8,8,0,0,1-1.82-5.2,8.51,8.51,0,0,1,2.91-6.64A10.74,10.74,0,0,1,309.84,22a29.58,29.58,0,0,1,8.48,1.34v4.51q-5.49-2.16-8.19-2.16A6.45,6.45,0,0,0,305.9,27a4.26,4.26,0,0,0-1.67,3.43,4.43,4.43,0,0,0,1.22,3.07,19.26,19.26,0,0,0,4.47,3.2l2.48,1.41A21.5,21.5,0,0,1,318.7,43a8.6,8.6,0,0,1,1.78,5.47,9,9,0,0,1-3.33,7.28,13.51,13.51,0,0,1-8.86,2.75A34.72,34.72,0,0,1,299.32,57Z" />
            <path class="cls-3" d="M328.32,57.69v-35h20v4h-15v11h12v4h-12v13h16v3Z" />
            <path class="cls-3"
                d="M381.32,56.13a25.27,25.27,0,0,1-11.53,2.7q-8.25,0-12.75-4.83t-4.5-13.74q0-8.88,4.58-13.74t12.93-4.87a36.75,36.75,0,0,1,10.27,1.55v4.72A28.74,28.74,0,0,0,370,25.4q-5.77,0-8.93,3.9t-3.15,11q0,6.8,3.37,10.69a11.54,11.54,0,0,0,9.23,3.9,23.44,23.44,0,0,0,10.84-3.08Z" />
        </g>
    </g>
</svg>