<?xml version="1.0" encoding="utf-8"?>
<!-- Generator: Adobe Illustrator 26.2.1, SVG Export Plug-In . SVG Version: 6.00 Build 0)  -->
<svg version="1.1" xmlns="http://www.w3.org/2000/svg" xmlns:xlink="http://www.w3.org/1999/xlink" x="0px" y="0px"
	 viewBox="0 0 221.7 175.5" style="enable-background:new 0 0 221.7 175.5;" xml:space="preserve">
<style type="text/css">
	.st0{opacity:0.2;fill:#999999;}
	.st1{fill:#282828;}
	.st2{fill:#3F4040;}
	.st3{fill:#68C1FF;}
	.st4{fill:#3999D5;}
	.st5{clip-path:url(#mask_00000057870474118817442530000010523476088024778138_);}
	.st6{fill:#EAF6FD;}
	.st7{fill:#1CA1EA;}
	.st8{clip-path:url(#mask_00000130614903430706009850000016928211386243179454_);}
	.st9{clip-path:url(#mask_00000130614903430706009850000016928211386243179454_);fill:#EAF6FD;}
	.st10{fill:#FDE100;}
	.st11{fill:#E8B120;}
	.st12{fill:#353535;}
	.st13{opacity:0.2;fill:#262626;}
	.st14{fill:#686868;}
	.st15{fill:#00FFC9;}
	.st16{fill:#FFFFFF;}
	.st17{fill:#3F3F3F;}
	.st18{opacity:0.2;fill:#0BE0D0;}
	.st19{fill:#40FFFF;}
	.st20{fill:#00D8D2;}
	.st21{fill:#D8D8D8;}
	.st22{fill:#B2B2B2;}
	.st23{fill:#D53B35;}
	.st24{fill:#333333;}
	.st25{fill:url(#SVGID_1_);}
	.st26{fill:#EDEDED;}
	.st27{fill:#232323;}
	.st28{fill:#E7262B;}
	.st29{fill:#6288C5;}
	.st30{fill:#F7C418;}
	.st31{fill:#8061A9;}
	.st32{fill:#EF7525;}
	.st33{fill:#96C93F;}
	.st34{fill:#CADC72;}
</style>
<g id="shadow">
	<ellipse class="st0" cx="110.2" cy="129" rx="47.8" ry="5.6"/>
</g>
<g id="leg-right_00000119824364864540445000000011189083722848698038_">
	<g id="leg-right_00000127757529415056396820000009101159447790618761_">
		<path class="st1" d="M129.9,131.5c0,0-3.5-4-3.5-4.2s-0.3-0.5-0.3-0.8s1.6-8,1.5-8.8s-1-2-2.6-1.3c-1.5,0.7-2.6,0.5-2.7,2.9
			c-0.1,2.4-0.7,7-0.7,7.4c0.1,0.3-0.2,1.6,0.7,2.6s3.2,2.6,4.7,3.8C128.3,134.2,131.7,134.1,129.9,131.5z"/>
		<path class="st2" d="M129.9,131.5c0,0-3.1-4.2-3.2-4.4c-0.1-0.2-0.3-0.5-0.3-0.8s1.2-7.8,1.2-8.6s-1-2-2.6-1.3
			c-1.5,0.7-0.1-0.2-0.2,2.2c-0.1,2.4-0.5,6.6,0,7.8c0.5,1.3,3,4.6,4.4,5.8C130.5,133.3,131,133.1,129.9,131.5z"/>
		<path d="M128.7,134.2c-0.8,0-1.6-0.3-2.1-0.7c-1.5-1.3-3.3-3-4.2-4c-0.9-1-1-2.1-1.1-2.6c0-0.1,0-0.1,0-0.2c0-0.2,0-0.7,0.2-2.3
			c0.2-1.6,0.4-3.7,0.4-5.1c0.1-2.2,1-2.5,2.1-2.9c0.3-0.1,0.6-0.2,0.9-0.4c0.7-0.4,1.5-0.4,2.1,0c0.7,0.4,1,1.1,1,1.6
			c0.1,0.9-1,8.6-1,8.7c0,0.1,0.1,0.3,0.2,0.5c0,0.1,0.1,0.1,0.1,0.1c0.1,0.2,1.9,2.8,3,4.3c0,0,0,0,0,0c0.9,1.3,0.5,2.1,0.1,2.4
			C129.9,134.1,129.4,134.2,128.7,134.2z M126,116.5c-0.2,0-0.5,0.1-0.8,0.2c-0.3,0.2-0.7,0.3-0.9,0.4c-1,0.4-1.5,0.6-1.6,2.2
			c-0.1,1.4-0.3,3.6-0.5,5.1c-0.1,1-0.2,2-0.2,2.2c0,0,0,0.1,0,0.2c0,0.5,0.1,1.4,0.9,2.2c0.9,1,2.7,2.7,4.1,3.9
			c0.7,0.6,2.2,0.7,2.7,0.2c0.4-0.4,0.1-1-0.2-1.4c-0.9-1.3-2.9-4.2-3-4.4c0,0,0-0.1-0.1-0.1c-0.1-0.2-0.3-0.6-0.2-0.9
			c0.1-0.4,1.1-7.8,1-8.5c0-0.3-0.3-0.8-0.7-1C126.5,116.6,126.2,116.5,126,116.5z"/>
	</g>
</g>
<g id="wing1">
	<g id="wing1_00000005971144265088277580000015472384972838731173_">
		<path class="st3" d="M125.8,51.3c57.5,42.3,32,87.8,3.2,57.9c-16.5-17.1-18.3-42.8-15.3-46.9C116.7,58.3,125.8,51.3,125.8,51.3z"
			/>
		<path class="st4" d="M127.4,55.2c29.5,18.8,25,66.2,1.7,54.1c-20.9-10.9-18.3-42.8-15.3-46.9C116.7,58.3,127.4,55.2,127.4,55.2z"
			/>
		<g>
			<defs>
				<path id="mask_00000124867998439546478350000008977434645125548936_" d="M125.8,51.3c57.5,42.3,32,87.8,3.2,57.9
					c-16.5-17.1-18.3-42.8-15.3-46.9C116.7,58.3,125.8,51.3,125.8,51.3z"/>
			</defs>
			<clipPath id="mask_00000155107343957626551400000005480637595807038909_">
				<use xlink:href="#mask_00000124867998439546478350000008977434645125548936_"  style="overflow:visible;"/>
			</clipPath>
			<g style="clip-path:url(#mask_00000155107343957626551400000005480637595807038909_);">
				<path class="st6" d="M148.2,71.3l-9.2-1c-1-0.1-2-0.5-2.9-1.2l-6.3-5.1l0.3-0.4l6.3,5.1c0.7,0.6,1.6,1,2.6,1.1l9.2,1L148.2,71.3
					z"/>
				<path class="st6" d="M154.1,80.8l-9.1-0.7c-1-0.1-2-0.4-2.8-1l-10.9-6.9l0.3-0.4l10.9,6.9c0.8,0.5,1.7,0.8,2.6,0.9l9,0.7
					L154.1,80.8z"/>
				
					<rect x="152.5" y="83.6" transform="matrix(0.1678 -0.9858 0.9858 0.1678 37.6051 226.1698)" class="st6" width="0.5" height="14.5"/>
				<path class="st6" d="M161.1,99.8l-7.6-1.4c-1.1-0.2-2.1-0.9-2.8-1.8c-4.1-5.3-6.8-8.7-7.4-9.1c-1-0.8-10.5-5.6-10.6-5.6l0.2-0.5
					c0.4,0.2,9.6,4.8,10.7,5.7c0.8,0.7,5,6.1,7.5,9.2c0.6,0.8,1.5,1.4,2.5,1.6l7.5,1.4L161.1,99.8z"/>
				<path class="st6" d="M160,111.7l-6.1-1.5c-0.9-0.2-2-0.6-2.7-1.5c-2.1-2.5-8.8-10.8-9.3-11.3c-1.1-1.2-4.7-2.5-6.9-3.3
					c-0.4-0.2-0.8-0.3-1.1-0.4l0.2-0.5c0.3,0.1,0.6,0.2,1,0.4c2.2,0.8,5.9,2.2,7.1,3.5c0.5,0.5,6.6,8.1,9.3,11.3
					c0.6,0.7,1.3,1,2.4,1.3l6.1,1.5L160,111.7z"/>
				<path class="st6" d="M152.6,118.7l-0.5,0l-0.3-7.9c0.1-0.8-0.1-1.7-0.6-2.3l-3.1-3.8l0.4-0.3l3.1,3.8c0.6,0.7,0.9,1.7,0.7,2.7
					L152.6,118.7z"/>
			</g>
		</g>
		<path d="M147,119.5c-5.8,0-12.3-3.4-18.4-9.8c-9.6-10-13.6-22.2-15.1-28.6c-1.7-7.1-2.3-16.2-0.2-19.1c3-4.1,11.8-10.9,12.2-11.1
			l0.4-0.3l0.4,0.3c13,9.6,22.6,19.9,28.6,30.6c5,8.9,7,17.9,5.8,25.1c-1.1,6.3-4.6,10.8-9.6,12.4c-0.8,0.2-1.6,0.4-2.5,0.5l0,0
			C148,119.5,147.5,119.5,147,119.5z M125.8,51.5c-0.9,0.7-9.1,7-12,10.9c-1.9,2.6-1.3,11.4,0.4,18.5c1.5,6.3,5.4,18.4,14.9,28.3
			c6.5,6.8,13.4,10.2,19.3,9.5c0.8-0.1,1.6-0.2,2.3-0.5c4.7-1.5,8.1-5.8,9.1-11.8c1.2-7.1-0.8-15.8-5.7-24.6
			C148.2,71.2,138.7,61,125.8,51.5z"/>
	</g>
</g>
<g id="wing2">
	<g id="wing2_00000134953672903871615030000010910938776199822214_">
		<path class="st3" d="M101.3,50.5c-62.4,42-36.5,89.9-5,59.8c18-17.2,20.7-43.8,17.6-48.1C110.8,57.9,101.3,50.5,101.3,50.5z"/>
		<path class="st7" d="M94.5,55.7c-28.7,23.3-22.1,50.5-7.6,61.6c21.1-10.1,22.6-51.4,18.9-55.2S94.5,55.7,94.5,55.7z"/>
		<g>
			<defs>
				<path id="mask_00000057831558694188422330000010630822467365836733_" d="M101.3,50.5c-62.4,42-36.5,89.9-5,59.8
					c18-17.2,20.7-43.8,17.6-48.1C110.8,57.9,101.3,50.5,101.3,50.5z"/>
			</defs>
			<clipPath id="mask_00000157995979778463798110000017819150934356619449_">
				<use xlink:href="#mask_00000057831558694188422330000010630822467365836733_"  style="overflow:visible;"/>
			</clipPath>
			<g style="clip-path:url(#mask_00000157995979778463798110000017819150934356619449_);">
				<path class="st6" d="M76.9,70.4l0-0.5l9.9-0.8c1-0.1,2-0.4,2.8-1l6.9-5.1l0.3,0.4l-6.9,5.1c-0.9,0.7-2,1.1-3.1,1.1L76.9,70.4z"
					/>
				
					<rect x="63.8" y="90.3" transform="matrix(0.9908 -0.135 0.135 0.9908 -11.5658 10.4826)" class="st6" width="15.4" height="0.5"/>
				<path class="st6" d="M62.4,99.5L62.3,99l8.1-1.2c1-0.2,2-0.8,2.7-1.6c2.7-3.2,7.3-8.6,8.2-9.3c1.2-0.9,11.1-5.4,11.5-5.5
					l0.2,0.5c-0.1,0-10.3,4.7-11.4,5.5c-0.6,0.5-3.6,3.8-8.1,9.2c-0.8,0.9-1.8,1.5-3,1.7L62.4,99.5z"/>
				<path class="st6" d="M64.8,111.1l4.8-1c1.2-0.3,2-0.6,2.6-1.3c2.9-3.3,9.7-10.9,10.2-11.4c1.3-1.3,5.2-2.6,7.6-3.4
					c0.4-0.1,0.8-0.3,1.1-0.4l0.2,0.5c-0.3,0.1-0.7,0.2-1.1,0.4c-2.3,0.8-6.2,2-7.4,3.2c-0.5,0.5-7.9,8.9-10.2,11.4
					c-0.8,0.9-1.9,1.2-2.9,1.4l-4.8,1L64.8,111.1z"/>
				<path class="st6" d="M71,118.4l0.5-7.1c-0.1-1,0.2-2,0.9-2.8l3.4-3.8l0.4,0.3l-3.4,3.8c-0.6,0.7-0.8,1.5-0.7,2.4l0,0l-0.5,7.2
					L71,118.4z"/>
			</g>
			<path style="clip-path:url(#mask_00000157995979778463798110000017819150934356619449_);fill:#EAF6FD;" d="M80.3,119.5l-0.5,0
				l0.2-5.9c0-1.1,0.5-2.2,1.3-3l5.1-5.1l0.4,0.4l-5.1,5.1c-0.7,0.7-1.1,1.7-1.1,2.7L80.3,119.5z"/>
		</g>
		<path d="M77.3,120.4c-1.4,0-2.8-0.2-4.2-0.6l0,0c-0.2-0.1-0.5-0.2-0.7-0.2c-5.3-1.9-8.8-6.8-9.6-13.5C61.1,92.6,70.2,70.7,101,50
			l0.4-0.2l0.4,0.3c0.4,0.3,9.6,7.5,12.7,11.9c2.1,3,1.2,12.4-0.8,19.7c-1.8,6.6-6.3,19.1-16.9,29.2C90.2,117,83.3,120.4,77.3,120.4
			z M73.3,119.1c6.6,1.9,15-1.3,22.9-8.8c10.4-9.9,14.9-22.3,16.7-28.8c2.6-9.6,2.4-17,0.9-19.1c-2.9-4.1-11.6-11-12.5-11.7
			C70.9,71.2,61.8,92.7,63.5,106c0.8,6.4,4.1,11.1,9.2,12.9C72.9,118.9,73.1,119,73.3,119.1L73.3,119.1z"/>
	</g>
</g>
<g id="hand-left_00000118374930264153231170000007325871766217546167_">
	<g id="hand-left">
		<path class="st1" d="M86.2,73.2c-0.9,0-7.2,5.4-9.3,6.7c-1,0.6-5-0.1-7.1,1.1c-1.8,1-2.7,3.7-1.3,5c0.6,0.5,1.9-0.1,2.4-0.5
			c1-0.5,5.8-1.3,7.3-1.6c1.7-0.4,5.7-5,8.6-7C89.3,75.3,88,73.3,86.2,73.2z"/>
		<path class="st2" d="M85.7,73.3c-0.9-0.2-7.2,5.4-9.3,6.7c-1,0.6-5-0.1-7.1,1.1c-1.8,1-2.7,3.7-1.3,5c0.6,0.5,1.7-1.8,2.3-2.1
			c1-0.5,5.8-2,7.4-2.1c1.6-0.1,5.4-4.8,8.3-6.9c0.5-0.3,1.3,0.7,1.5,0.3C87.9,74.1,86.6,73.4,85.7,73.3z"/>
		<path d="M69.2,86.2c-0.5,0-1-0.1-1.3-0.4c-0.9-0.8-1.3-1.9-1.2-3c0.1-1,0.6-1.8,1.5-2.3c1.3-0.7,3.5-0.7,5.4-0.7
			c1.1,0,2.3,0,2.7-0.2c0.6-0.4,1.6-1.2,2.8-2.1c3.7-2.9,6.4-4.9,7.6-4.7l0,0c0.9,0.2,1.6,0.7,1.7,1.5c0.2,0.9-0.4,2-1.7,2.8
			c-1.2,0.8-2.7,2.2-4.1,3.5c-2.3,2.2-3.7,3.5-4.7,3.6c-1.6,0.1-6.2,1.1-7.1,1.6C70.3,86.1,69.8,86.2,69.2,86.2z M72.6,80.6
			c-1.5,0-3.2,0.1-4.1,0.6c-0.7,0.4-1.1,1-1.1,1.7c-0.1,0.9,0.3,1.8,1,2.4c0.4,0.4,1.5,0.2,1.9,0c1.1-0.6,5.9-1.6,7.5-1.7
			c0.8,0,2.6-1.8,4.3-3.4c1.4-1.3,2.9-2.7,4.2-3.6c1-0.7,1.5-1.5,1.4-2.1c-0.1-0.4-0.5-0.8-1.2-0.9l0,0c-0.9-0.2-4.7,2.8-7,4.6
			c-1.2,0.9-2.2,1.7-2.8,2.1c-0.5,0.3-1.4,0.3-3.1,0.3C73.3,80.6,73,80.6,72.6,80.6z"/>
	</g>
</g>
<g id="body">
	<g id="body_00000097466981234071189910000005934561098645098405_">
		<path class="st10" d="M108.2,124.1c5.2,0.2,10.9-0.5,16.1-3c0.1,0,0.3-0.8,0.4-0.9c8.1-7.3,16.6-13.7,16-33.1
			C140.2,70,136.4,60.9,127,55c-6.1-3.8-35.2-1.3-41.7,18.5C77.5,97.2,87.6,123.1,108.2,124.1z"/>
		<g>
			<path id="sh_00000116211075775398579520000010397894594506782395_" class="st11" d="M133.2,61.7c-26.8,15.6-27.8,14-45.1,5.1
				c-1.2,1.8-1.5,2.9-1.7,3.4c18.5,16.2,36.4,6.7,38.2,6.7c4.8-0.1,14-6.3,14-6.3S136.4,63.4,133.2,61.7z"/>
			<path id="sh_00000017505216206532941860000001820317468601108411_" class="st11" d="M87.3,110.4c9.9,9.3,32.3,10.7,46.7,0.4
				c-3,4.1-5.5,6.7-9.1,9.3C118.4,126.1,98.2,127.7,87.3,110.4z"/>
			<path class="st1" d="M83.5,80.1c12.3,10.2,38,14.8,56.1-4.5c2.2,10.6,1.2,22-1.6,27.9c-21.9,14.1-51.4,3.9-52.8,2.1
				C80.9,95.2,82.4,83.6,83.5,80.1z"/>
			<path class="st12" d="M87.6,85.1c-5.7-2.6-6.7,15.5,1.5,17c8.7,1.7,14.8-5,10.7-11C97.8,88.2,94.1,88.1,87.6,85.1z"/>
		</g>
		<path class="st13" d="M122.4,69c5.9-2,16.2,3,15.1,17.7c-0.7,9.3-5.7,14-9.3,16.8c1.2-0.3,6,2.9,10.5-1c5.5-16,0.2-35.5-4.1-40
			C132.7,63.4,122.4,69,122.4,69z"/>
		<path d="M112.2,124.7c-1.3,0-2.6-0.1-4-0.3c-8.6-1.1-15.3-5.2-19.8-11.9c-3.9-5.8-6-13.3-6.1-21.8C82.1,75.5,89,58,100.7,56.2l0,0
			c2.1-0.3,4.2-0.9,6.2-1.4c3-0.8,6.1-1.6,9.1-1.7c4.6-0.2,8.5,0.3,10.3,1.4c3.3,2,7,4.7,9.9,9.9c3.5,6.2,5.1,14.4,4.9,25.1
			c-0.2,12.2-4.3,19.2-10.5,25.9C126.5,120,121.4,124.7,112.2,124.7z M100.8,56.9c-10,1.6-18,16.7-17.8,33.8
			c0.1,8.3,2.2,15.7,6,21.4c4.4,6.6,10.9,10.5,19.3,11.6c11.4,1.5,17.3-3.7,21.8-8.8c6.2-6.8,10.1-13.4,10.3-25.5
			c0.2-10.6-1.4-18.7-4.8-24.7c-2.8-5-6.5-7.7-9.7-9.7c-1.7-1-5.4-1.5-9.9-1.3c-3,0.1-6,0.9-9,1.7C105,56,102.8,56.6,100.8,56.9
			L100.8,56.9z"/>
	</g>
</g>
<g id="head">
	<g id="head_00000101078164178420404080000014410224768804178586_">
		<g id="head_00000080189537366929463620000012791703170485703589_">
			<path class="st1" d="M137.9,40.4c9.9,18.7-5.9,34.3-28.1,34.2C93.4,74.5,76.7,62,82.3,45.1c1.7-5,5.3-10,10.9-12.1
				c12.7-4.8,27.5-5.2,36.5-1.2C133.3,33.4,136.3,37.4,137.9,40.4z"/>
			<path class="st12" d="M137.9,40.4c7.6,18.7-8.1,28.2-30.3,28.1c-16.4-0.1-30-6.7-25.2-23.4c1.7-5.9,6.3-13,20.4-14.9
				C129.1,26.7,134.4,34.3,137.9,40.4z"/>
			<path d="M110,75.2l-0.3,0C99.7,75.2,90.2,70.7,85,63.7c-4.1-5.5-5.2-11.9-3.2-18.7c2.8-9.6,12.7-15.1,28.5-16
				c15.9-0.8,23.6,2.2,28.2,11.1c4,7.7,3.9,15.6-0.2,22.1c-2.5,4-6.4,7.3-11.3,9.5C122,74,116.2,75.2,110,75.2z M115.1,29.6
				c-1.5,0-3.1,0-4.7,0.1c-15.5,0.8-25.2,6.2-27.9,15.5c-1.9,6.6-0.8,12.8,3.1,18.1c5.1,6.9,14.4,11.2,24.3,11.3l0.3,0
				c6,0,11.8-1.2,16.6-3.4c4.8-2.2,8.6-5.4,11-9.3c4-6.3,4-13.9,0.2-21.4C133.8,32.7,127.5,29.6,115.1,29.6z"/>
		</g>
		<path class="st14" d="M111.7,59c-1.5-1.3-2.2-4.6-0.7-8c1.3-2.9,5.1-6.3,9.2-9.5c9-7,18.4,1.9,10.8,12.1
			C123.8,63.3,114.4,61.4,111.7,59z"/>
		<path class="st15" d="M111.7,57.5c-1.7-3.2-1.6-8.9,7.3-15.9s17.8-0.4,11.5,9.9C124.2,61.8,113.4,60.6,111.7,57.5z"/>
		<path d="M111,51.8c0.2-2,1.9-5.9,8.5-10.9c4.7-3.5,7.9-2.3,9.9-0.5c2.4,2.2,0.7,7.9-3.4,11.8C121.1,57,112.5,59.4,111,51.8z"/>
		<path d="M117,60.1c-0.3,0-0.6,0-1,0c-2.8-0.3-4.8-1.8-5.8-4.4l0,0c-0.8-2.1-0.2-4.6,1.7-7.4c2.8-4.2,9.9-9.8,13.3-10
			c4.2-0.1,6.1,1.5,6.9,2.9c1.2,2,1.5,6-1.4,10.7C127.8,56.6,121.9,60.1,117,60.1z M110.9,55.3c1.1,3,3.4,3.8,5.2,4
			c4.8,0.5,11-3,14-7.8c1.8-3,3-7.3,1.4-10c-1.1-1.8-3.2-2.7-6.2-2.6c-2.4,0.1-9.3,4.6-12.7,9.7C111.4,50.4,110.1,53,110.9,55.3
			L110.9,55.3z"/>
		<path class="st14" d="M92.6,59.5c2.8,1.8,11.4,2.7,12.2-3.6c0.8-6.3-7.1-15.3-12.3-15.8C87.2,39.6,80.3,51.6,92.6,59.5z"/>
		<path class="st15" d="M92.4,58c2.6,2.1,11.1,3.3,11.9-3c0.8-6.3-6.2-15.7-9.5-15.8C88.8,39.2,80.7,48.4,92.4,58z"/>
		<path d="M104.3,51.9c-0.2-3.1-4-10.8-9.1-12.2c-3.3-0.4-5.6,3-6,6C87.9,54.8,102.6,61.5,104.3,51.9z"/>
		<path d="M98.1,60.2c-2.5,0-4.9-0.9-7-2.8c-3.6-3.1-5.5-8.2-4.6-12.2l0,0c1.1-4.8,5.6-6.3,8.4-6.2c2.2,0.1,4.9,3.2,6.6,6
			c2.2,3.6,3.5,7.4,3.3,10c-0.1,2.1-1.3,3.8-3.1,4.5C100.5,60,99.3,60.2,98.1,60.2z M87.2,45.4c-0.8,3.8,1,8.6,4.4,11.5
			c1.7,1.5,5.3,3.7,9.9,2c1.6-0.6,2.6-2,2.7-3.8c0.1-2.4-1.1-6.1-3.2-9.6c-2.1-3.4-4.4-5.6-6-5.7C92.3,39.6,88.1,41,87.2,45.4
			L87.2,45.4z"/>
		<circle class="st16" cx="125.1" cy="42.4" r="0.9"/>
		<circle class="st16" cx="93.7" cy="42.9" r="0.9"/>
	</g>
</g>
<g id="mustache-right_00000116231229972604636190000003093440989971455622_">
	<g id="mustache-right_00000103231178783219715150000014394749929191222709_">
		<path class="st1" d="M129.8,33.2c0,0,4.1-13.4,3.3-19.3c-0.7-5.2-5.9-5.6-5.4,0.1c1.1,13.6-1.5,16.8-1.8,17.6
			C125.4,32.9,128.7,34.7,129.8,33.2z"/>
		<path class="st17" d="M126.9,33.4c0,0,1.1-2.4,2-6.3c0.8-3.7,1.4-8.7,1.4-11.6c0-1.5-0.2-4.7,1.5-4.9c-2.6-1.6-4.1-0.9-4,3.4
			c0,11.7-1.8,16.6-2,17.4C125.4,32.3,126,33,126.9,33.4z"/>
		<path d="M128.8,34c-0.7,0-1.4-0.2-1.8-0.3l0,0c-1.4-0.7-2-1.5-1.8-2.2c0.1-0.3,0.2-0.5,0.3-0.9c0.7-2.1,1.9-5.5,1.5-16.6
			c-0.1-2.9,0.6-4.3,2.4-4.5c1.4-0.1,3.8,0.2,4.3,4.2c0.8,5.8-3.1,19.4-3.4,19.7C130,33.9,129.4,34,128.8,34z M127.4,33
			c0.6,0.3,1.9,0.4,2.3,0.1c0.4-1.2,4-13.7,3.3-19.2c-0.3-2.6-1.5-3.8-3.5-3.6c-0.9,0.1-1.8,0.6-1.7,3.7c0.4,11.2-0.8,14.7-1.5,16.8
			c-0.1,0.3-0.2,0.6-0.3,0.8C125.9,32,126.4,32.5,127.4,33L127.4,33z"/>
	</g>
</g>
<g id="mustache-left_00000018944770184832211000000005122146466879270058_">
	<g id="mustache-left">
		<path class="st1" d="M96.8,32.9c0,0-2.5-14-5.7-19.4c-2.8-4.8-8-2.7-5.2,2.7c6.7,12.6,6.7,16.2,6.8,17.2
			C92.9,34.4,96.5,34.5,96.8,32.9z"/>
		<path class="st17" d="M94.4,34.1c0,0-0.3-2-0.6-4c-1.9-10.2-6.2-15.7-5.6-16.8c1.5-2.7,0.8-2.1-0.1-2.3c-2.3-0.6-4.2,1.5-2.2,5.2
			c6.7,12.6,6.7,16.2,6.8,17.2C92.9,33.9,94,34.2,94.4,34.1z"/>
		<path d="M93.8,34.6c-0.9,0-1.5-0.4-1.7-1.1l0,0c-0.1-0.4-0.1-0.7-0.2-1.2c-0.3-2.3-0.8-6.2-6.1-15.8c-2-3.6-0.5-5.1,0.3-5.5
			c0.8-0.5,1.7-0.6,2.5-0.4c1.1,0.3,2.2,1.2,3,2.6c3.2,5.5,5.6,19.1,5.5,19.5c-0.1,1.1-2,1.8-3.2,1.9C93.9,34.6,93.9,34.6,93.8,34.6
			z M87.9,11.2c-0.6,0-1,0.2-1.4,0.4c-1.2,0.8-1.2,2.4,0,4.6c5.3,9.7,5.9,13.7,6.2,16c0.1,0.4,0.1,0.8,0.2,1.1h0
			c0.1,0.5,0.7,0.5,1.1,0.5c1.2,0,2.5-0.8,2.6-1.3c0-0.4-2.3-13.7-5.4-19c-0.7-1.2-1.6-2-2.6-2.3C88.3,11.3,88.1,11.2,87.9,11.2z"/>
	</g>
</g>
<g id="sword_00000117646114799251239870000015968826616674153898_">
	<g id="sword_00000122695011775460756250000000877033635704459396_">
		<polygon points="72.3,91.2 67.3,78 70.5,77.3 75,90.1 		"/>
		<path class="st18" d="M50,22.3c0.2,0,0.4,0.1,0.6,0.2l3.6,3.1l15.2,45.1L69,72.5l-3.5,1.6l-1.7-1.3L48,27.6l0.7-4.3
			C48.9,22.7,49.4,22.3,50,22.3 M50,19L50,19c-2.2,0-4.1,1.6-4.4,3.7L44.9,27l-0.1,0.8l0.3,0.8l15.8,45.2l0.3,0.9l0.8,0.6l1.7,1.3
			l1.5,1.2l1.8-0.8l3.5-1.6l1.5-0.7l0.3-1.6l0.4-1.7l0.2-0.9l-0.3-0.8L57.3,24.5L57,23.7l-0.7-0.6L52.7,20l-0.2-0.1l-0.2-0.1
			C51.7,19.3,50.9,19,50,19L50,19z"/>
		<path class="st16" d="M70.2,74.7l-4.9,2L64,73.2L48.1,27.8c0-0.1,0-0.3,0-0.4L49,23c0.1-0.6,0.9-0.9,1.5-0.6l3.5,3.1
			c0.1,0.1,0.2,0.2,0.3,0.4l15.2,45.3L70.2,74.7z"/>
		<polygon class="st19" points="70.1,74.4 69.7,74.7 68,75.7 67.2,70.9 51.5,27.4 49.8,22.3 54.2,25.6 69.4,70.7 		"/>
		<path class="st20" d="M65.6,77.1l-2.3-4.2L47.5,27.6l0.8-4.5c0.1-0.6,0.5-1,1-1.3c0.6-0.2,1.2-0.2,1.7,0.1l0.1,0l3.7,3.2l0,0.1
			l15.2,45.2l0,0l0.7,4.6L65.6,77.1z M64.3,72.5l1.8,3.2l3.4-1.3l-0.6-3.7l-15.1-45l-3.5-3c-0.2-0.1-0.4-0.1-0.6,0
			c-0.2,0.1-0.4,0.3-0.4,0.5l-0.7,4.2L64.3,72.5z"/>
		<g>
			<polygon class="st21" points="74.5,88.3 71.5,89.3 70.9,92.4 73.3,94.5 76.3,93.5 76.9,90.4 			"/>
			<path d="M73.3,94.9c-0.1,0-0.2,0-0.2-0.1l-2.4-2.1c-0.1-0.1-0.1-0.2-0.1-0.3l0.6-3.1c0-0.1,0.1-0.2,0.2-0.3l3-1
				c0.1,0,0.3,0,0.4,0.1l2.4,2.1c0.1,0.1,0.1,0.2,0.1,0.3l-0.6,3.1c0,0.1-0.1,0.2-0.2,0.3l-3,1C73.3,94.9,73.3,94.9,73.3,94.9z
				 M71.3,92.3l2,1.8l2.6-0.9l0.5-2.7l-2-1.8l-2.6,0.9L71.3,92.3z"/>
		</g>
		<g>
			<path class="st21" d="M71.8,78l-0.6,0.2l-0.3,1l-2.7,1l-0.9-0.5l-0.6,0.2c-0.6,0.2-1.2-0.1-1.4-0.6l-0.6-1.5
				c-0.2-0.6,0.1-1.2,0.6-1.4l5.1-1.9c0.6-0.2,1.2,0.1,1.4,0.6l0.6,1.5C72.7,77.2,72.4,77.8,71.8,78z"/>
			<path class="st22" d="M71.8,78l-0.6,0.2l-0.3,1l-2.7,1l-0.9-0.5l-0.6,0.2c-0.6,0.2-1.2-0.1-1.4-0.6l7.1-2.7
				C72.7,77.2,72.4,77.8,71.8,78z"/>
			<path d="M68.3,80.9l-0.9-0.8l-0.4,0.1c-0.7,0.3-1.6-0.1-1.9-0.8l-0.6-1.5c-0.3-0.7,0.1-1.6,0.8-1.9l5.1-1.9
				c0.4-0.1,0.8-0.1,1.1,0c0.4,0.2,0.6,0.4,0.8,0.8l0.6,1.5c0.1,0.4,0.1,0.8,0,1.1c-0.2,0.4-0.4,0.6-0.8,0.8l-0.4,0.1l-0.3,1.2
				L68.3,80.9z M67.5,79.3l0.9,0.8l2.3-0.9L71,78l0.8-0.3c0.2-0.1,0.3-0.2,0.4-0.4c0.1-0.2,0.1-0.4,0-0.6l-0.6-1.5
				c-0.1-0.2-0.2-0.3-0.4-0.4c-0.2-0.1-0.4-0.1-0.6,0l-5.1,1.9c-0.4,0.1-0.6,0.6-0.4,0.9l0.6,1.5c0.1,0.4,0.6,0.6,0.9,0.4L67.5,79.3
				z"/>
		</g>
		<g>
			<circle class="st23" cx="73.9" cy="91.4" r="1.1"/>
			<path d="M73.9,92.9c-0.8,0-1.4-0.6-1.4-1.4s0.6-1.4,1.4-1.4s1.4,0.6,1.4,1.4S74.7,92.9,73.9,92.9z M73.9,90.7
				c-0.4,0-0.7,0.3-0.7,0.7s0.3,0.7,0.7,0.7s0.7-0.3,0.7-0.7S74.3,90.7,73.9,90.7z"/>
		</g>
	</g>
</g>
<g id="palm_00000025409605163714268540000014608989025989044884_">
	<g id="palm">
		<path class="st24" d="M67.5,80.9c-1.2,1.7-0.5,4.4,1.4,4.9c0.7,0.2,1-1.1,1.5-1.3C72.4,83.5,69.4,78.2,67.5,80.9z"/>
		<path class="st2" d="M67.6,80.6c-1.4,1.5-1.3,2.9,0.6,2.6C71.2,82.7,68.9,79.3,67.6,80.6z"/>
		<path d="M69,86.2c-0.1,0-0.2,0-0.3,0c-0.9-0.3-1.7-1.1-2.1-2.1c-0.4-1.2-0.2-2.4,0.5-3.4l0,0c0.8-1.1,1.7-1.1,2.2-0.9
			c1.1,0.3,1.9,1.8,2,3c0.1,1-0.3,1.9-1.1,2.2c-0.1,0.1-0.2,0.3-0.4,0.5C69.8,85.7,69.6,86.2,69,86.2z M67.8,81.1
			c-0.5,0.7-0.7,1.8-0.4,2.7c0.3,0.8,0.9,1.5,1.6,1.7c0.1,0,0.1,0,0.4-0.4c0.2-0.3,0.3-0.6,0.7-0.8c0.7-0.3,0.7-1.1,0.7-1.5
			c-0.1-1.1-0.8-2.1-1.5-2.4C68.7,80.3,68.2,80.5,67.8,81.1L67.8,81.1z"/>
	</g>
</g>
<g id="leg-left_00000111184205710614498540000011328051906611462807_">
	<g id="leg-left_00000132063823485118553790000010860612447021503921_">
		<path class="st1" d="M87.7,129.7c0,0,4.5-3,4.6-3.2s0.4-0.4,0.5-0.7c0-0.3,0.7-8.1,1-8.9c0.3-0.8,1.6-1.7,2.8-0.6
			c1.3,1.1,2.4,1.1,1.8,3.5s-1.3,7-1.5,7.3s-0.5,1.5-1.7,2.3c-1.2,0.8-3.6,1.8-5.3,2.7C88.5,132.6,85.3,131.7,87.7,129.7z"/>
		<path class="st2" d="M87.7,129.7c0,0,4.5-3,4.6-3.2s0.4-0.4,0.5-0.7c0-0.3,0.7-8.1,1-8.9c0.3-0.8,1.6-1.7,2.8-0.6
			c1.3,1.1,0.1-0.2-0.4,2.2s-0.7,6.9-1.5,8c-0.8,1.1-4.7,4-6.4,4.9C86.9,132,86.2,130.9,87.7,129.7z"/>
		<path d="M88.8,132.5c-0.9,0-1.7-0.3-2.1-0.9c-0.2-0.4-0.5-1.2,0.8-2.3c0,0,0,0,0,0c1.7-1.1,4.4-3,4.6-3.2c0,0,0,0,0.1-0.1
			c0.1-0.1,0.3-0.3,0.3-0.4l0-0.2c0.5-5.3,0.8-8.2,1-8.7c0.2-0.6,0.8-1.1,1.5-1.3c0.7-0.2,1.4,0,1.9,0.5c0.3,0.2,0.5,0.4,0.7,0.6
			c0.9,0.6,1.7,1.2,1.2,3.3c-0.3,1.4-0.7,3.5-1,5c-0.3,1.6-0.4,2.1-0.5,2.3c0,0,0,0.1-0.1,0.2c-0.2,0.5-0.6,1.5-1.8,2.3
			c-0.8,0.5-2.2,1.2-3.6,1.8c-0.6,0.3-1.2,0.6-1.8,0.9C89.8,132.4,89.3,132.5,88.8,132.5z M87.9,129.9c-0.4,0.3-0.9,0.9-0.7,1.3
			c0.4,0.5,1.8,0.7,2.6,0.3c0.6-0.3,1.2-0.6,1.8-0.9c1.3-0.6,2.7-1.3,3.5-1.8c0.9-0.6,1.3-1.5,1.5-1.9c0-0.1,0.1-0.1,0.1-0.2
			c0.1-0.1,0.2-1.2,0.4-2.1c0.3-1.6,0.7-3.7,1-5.1c0.4-1.6,0-1.9-0.9-2.5c-0.2-0.2-0.5-0.4-0.8-0.6c-0.4-0.4-0.8-0.5-1.3-0.4
			c-0.5,0.1-0.9,0.5-1,0.8c-0.1,0.2-0.3,1.2-1,8.6l0,0.2c0,0.4-0.3,0.7-0.5,0.9c0,0-0.1,0.1-0.1,0.1C92.4,126.9,90,128.5,87.9,129.9
			z"/>
	</g>
</g>
<g id="sheild_00000105388047920327978710000004971959123453468848_">
	<g id="sheild">
		<g>
			<linearGradient id="SVGID_1_" gradientUnits="userSpaceOnUse" x1="105.4239" y1="93.9179" x2="154.5509" y2="100.187">
				<stop  offset="0" style="stop-color:#7C7C7C"/>
				<stop  offset="0.3188" style="stop-color:#DDDDDD"/>
				<stop  offset="0.4637" style="stop-color:#C6C6C6"/>
				<stop  offset="0.6752" style="stop-color:#AAAAAA"/>
				<stop  offset="0.8611" style="stop-color:#999999"/>
				<stop  offset="1" style="stop-color:#939393"/>
			</linearGradient>
			<path class="st25" d="M112.1,63.6l-1.2,0.2l-2.7,2.4l-7,56.5c-0.1,1,0.5,2,1.5,2.3c13.2,4.4,28.7,5.1,44,3
				c1.3-0.2,2.3-1.2,2.5-2.4l8.8-53.8c0.1-0.8-0.3-1.6-1.1-2.4l-1.8-2C155.1,67.3,133,70.1,112.1,63.6z"/>
			<path class="st16" d="M109.9,68.1l-6.9,54.1c-0.1,0.7,0.4,1.4,1.1,1.6c12.7,3.4,28.5,5.3,41.7,2.8c0.9-0.2,1.6-0.9,1.8-1.8
				l8.6-52.3c0.2-1-0.7-1.9-1.7-1.8c-13.3,1-28.6-0.5-43-3.7C110.7,66.8,110,67.3,109.9,68.1z"/>
			<path class="st26" d="M127.5,127.7c6.3,0.2,12.7-0.2,18.5-1.3c0.8-0.2,1.4-0.8,1.6-1.6l8.7-52.6c0.1-0.8-0.4-1.4-1.3-1.4
				c-6,0.5-12.5,0.4-19.1-0.1L127.5,127.7z"/>
		</g>
		<path d="M157.4,70.4c-0.1,0-0.2,0-0.3-0.1l-1.7-2.1c-0.3-0.3-0.7-0.4-1.1-0.4l-0.6,0c-15.9,1-29.9-0.3-41.7-3.8
			c-0.3-0.1-0.7,0-1,0.2l-2.3,2c-0.1,0.1-0.4,0.1-0.5,0c-0.1-0.1-0.1-0.4,0-0.5l2.3-2c0.5-0.4,1.1-0.5,1.6-0.3
			c11.7,3.5,25.6,4.8,41.4,3.8l0.6,0c0.6,0,1.2,0.2,1.6,0.6c0,0,0,0,0,0l1.7,2.2c0.1,0.2,0.1,0.4-0.1,0.5
			C157.6,70.4,157.5,70.4,157.4,70.4z"/>
		<path d="M131,129.9c-9.4,0-19-1.5-27.7-4.3c-1.6-0.5-2.6-2.1-2.4-3.8l6.8-55c0.1-0.8,0.6-1.5,1.2-2c0.7-0.5,1.5-0.6,2.3-0.3
			c6.3,1.8,23.2,5.9,44,4.2c0.9-0.1,1.7,0.3,2.3,0.9c0.6,0.6,0.9,1.5,0.7,2.4l-8.8,53.3c-0.3,1.7-1.6,3-3.2,3.3l0,0
			C141.4,129.5,136.3,129.9,131,129.9z M110.5,65.2c-0.4,0-0.8,0.1-1.1,0.3c-0.5,0.3-0.8,0.9-0.9,1.5l-6.8,55
			c-0.2,1.3,0.6,2.6,1.9,3c13.5,4.4,29,5.5,42.6,2.9l0,0c1.3-0.2,2.4-1.3,2.6-2.7l8.8-53.3c0.1-0.6-0.1-1.3-0.5-1.8
			c-0.4-0.5-1.1-0.7-1.7-0.7c-20.9,1.7-37.9-2.4-44.2-4.2C110.9,65.2,110.7,65.2,110.5,65.2z M146.3,128.2L146.3,128.2L146.3,128.2z
			"/>
		<path d="M131.6,128.1c-12.7,0-23.7-3-27.6-4.1c-1-0.3-1.6-1.2-1.4-2.2l6.9-53.5c0.1-0.6,0.4-1.1,0.9-1.4c0.5-0.3,1.1-0.4,1.7-0.3
			c19.3,5,37.1,4.5,42.3,3.9c0.6-0.1,1.3,0.2,1.7,0.6c0.4,0.5,0.6,1.1,0.5,1.7l-8.7,51.9c-0.2,1-0.9,1.8-1.9,2l-0.1-0.4l0.1,0.4
			C141.1,127.7,136.3,128.1,131.6,128.1z M111.5,67.2c-0.3,0-0.5,0.1-0.7,0.2c-0.3,0.2-0.5,0.6-0.6,0.9l-6.9,53.5
			c-0.1,0.6,0.3,1.3,0.9,1.4c5.3,1.6,23.9,6.5,41.6,2.7l0,0c0.7-0.2,1.2-0.7,1.4-1.4l8.7-51.9c0.1-0.4-0.1-0.8-0.3-1.1
			c-0.3-0.3-0.7-0.5-1.1-0.4c-5.3,0.6-23.2,1-42.6-3.9C111.7,67.2,111.6,67.2,111.5,67.2z"/>
		<g>
			<path class="st27" d="M124.1,97.4c1-1.2,2.3-2.8,3.3-4.1c1.7,0.2,3.5,0.4,5.2,0.5c0.6,1.4,1.4,3.2,2,4.6c-1,1.2-2.3,2.9-3.2,4.2
				c-1.7-0.1-3.5-0.3-5.2-0.5C125.5,100.6,124.7,98.8,124.1,97.4 M133.7,92.3c-2.4-0.2-4.7-0.4-7.1-0.7c-1.3,1.7-3.1,3.9-4.4,5.5
				c0.8,1.9,1.9,4.5,2.7,6.4c2.4,0.3,4.7,0.5,7.1,0.7c1.3-1.7,3.1-4,4.4-5.7C135.6,96.6,134.5,94.1,133.7,92.3"/>
			<path class="st28" d="M132.5,93.8c-1.7-0.1-3.5-0.3-5.2-0.5c-1,1.2-2.3,2.8-3.3,4.1c0.6,1.4,1.4,3.3,2,4.7
				c1.7,0.2,3.5,0.4,5.2,0.5c1-1.2,2.3-2.9,3.2-4.2C133.9,97,133.1,95.2,132.5,93.8"/>
			<path class="st27" d="M122.3,110.2c1-1.2,2.3-2.8,3.3-4.1c1.7,0.2,3.5,0.4,5.2,0.5c0.6,1.4,1.4,3.2,2,4.6c-1,1.2-2.3,2.9-3.2,4.2
				c-1.7-0.1-3.5-0.3-5.2-0.5C123.7,113.4,122.9,111.6,122.3,110.2 M131.9,105.1c-2.4-0.2-4.7-0.4-7.1-0.7c-1.3,1.7-3.1,3.9-4.4,5.5
				c0.8,1.9,1.9,4.5,2.7,6.4c2.4,0.3,4.7,0.5,7.1,0.7c1.3-1.7,3.1-4,4.4-5.7C133.8,109.4,132.7,106.9,131.9,105.1"/>
			<path class="st29" d="M130.7,106.6c-1.7-0.1-3.5-0.3-5.2-0.5c-1,1.2-2.3,2.8-3.3,4.1c0.6,1.4,1.4,3.3,2,4.7
				c1.7,0.2,3.5,0.4,5.2,0.5c1-1.2,2.3-2.9,3.2-4.2C132.1,109.8,131.3,108,130.7,106.6"/>
			<path class="st27" d="M125.8,84.6c1-1.2,2.3-2.8,3.3-4.1c1.7,0.2,3.5,0.4,5.2,0.5c0.6,1.4,1.4,3.2,2,4.6c-1,1.2-2.3,2.9-3.2,4.2
				c-1.7-0.1-3.5-0.3-5.2-0.5C127.3,87.9,126.4,86,125.8,84.6 M135.5,79.5c-2.4-0.2-4.7-0.4-7.1-0.7c-1.3,1.7-3.1,3.9-4.4,5.5
				c0.8,1.9,1.9,4.5,2.7,6.4c2.4,0.3,4.7,0.5,7.1,0.7c1.3-1.7,3.1-4,4.4-5.7C137.4,83.8,136.3,81.4,135.5,79.5"/>
			<path class="st30" d="M134.3,81c-1.7-0.1-3.5-0.3-5.2-0.5c-1,1.2-2.3,2.8-3.3,4.1c0.6,1.4,1.4,3.3,2,4.7c1.7,0.2,3.5,0.4,5.2,0.5
				c1-1.2,2.3-2.9,3.2-4.2C135.7,84.2,134.9,82.4,134.3,81"/>
			<path class="st27" d="M134.7,104.9c1-1.3,2.2-3,3.2-4.3c1.7,0,3.4,0.1,5,0c0.6,1.3,1.3,3,1.8,4.3c-0.9,1.3-2.1,3.1-3.1,4.4
				c-1.6,0-3.3,0-5,0C136.1,108,135.3,106.2,134.7,104.9 M144.1,99c-2.2,0.1-4.5,0-6.8,0c-1.3,1.7-3,4.1-4.4,5.8
				c0.8,1.8,1.9,4.3,2.7,6.1c2.3,0.1,4.6,0.1,6.8,0c1.3-1.8,2.9-4.3,4.1-6.1C145.8,103.1,144.8,100.7,144.1,99"/>
			<path class="st31" d="M142.9,100.6c-1.6,0-3.3,0-5,0c-1,1.3-2.2,3-3.2,4.3c0.6,1.3,1.4,3.1,2,4.4c1.7,0,3.4,0.1,5,0
				c0.9-1.3,2.2-3.1,3.1-4.4C144.2,103.6,143.5,101.9,142.9,100.6"/>
			<path class="st27" d="M136.5,92.1c1-1.3,2.2-3,3.2-4.3c1.7,0,3.4,0.1,5,0c0.6,1.3,1.3,3,1.9,4.3c-0.9,1.3-2.1,3.1-3.1,4.4
				c-1.6,0-3.3,0-5,0C137.9,95.2,137.1,93.4,136.5,92.1 M145.8,86.2c-2.2,0.1-4.5,0-6.8,0c-1.3,1.7-3,4.1-4.4,5.8
				c0.8,1.8,1.9,4.3,2.7,6.1c2.3,0.1,4.6,0.1,6.8,0c1.3-1.8,2.9-4.3,4.1-6.1C147.6,90.3,146.6,87.9,145.8,86.2"/>
			<path class="st32" d="M144.7,87.8c-1.6,0-3.3,0-5,0c-1,1.3-2.2,3-3.2,4.3c0.6,1.3,1.4,3.1,2,4.4c1.7,0,3.4,0.1,5,0
				c0.9-1.3,2.2-3.1,3.1-4.4C146,90.8,145.3,89.1,144.7,87.8"/>
			<path class="st27" d="M111.8,101.8c0.9-1.2,2.2-2.7,3.1-3.9c1.7,0.3,3.4,0.7,5.1,0.9c0.6,1.4,1.4,3.4,2,4.8
				c-1,1.2-2.3,2.8-3.2,3.9c-1.7-0.3-3.4-0.6-5.1-0.9C113.1,105.2,112.3,103.2,111.8,101.8 M121.2,97.4c-2.4-0.4-4.7-0.8-7-1.3
				c-1.3,1.6-3,3.7-4.2,5.2c0.8,2,1.8,4.7,2.6,6.7c2.3,0.5,4.6,0.9,7,1.3c1.3-1.6,3.1-3.8,4.4-5.4C123.1,101.9,122,99.3,121.2,97.4"
				/>
			<path class="st33" d="M120,98.8c-1.7-0.3-3.4-0.6-5.1-0.9c-0.9,1.2-2.2,2.7-3.1,3.9c0.6,1.5,1.3,3.4,1.9,4.9
				c1.7,0.3,3.4,0.7,5.1,0.9c1-1.2,2.3-2.8,3.2-3.9C121.4,102.2,120.6,100.3,120,98.8"/>
			<path class="st27" d="M113.6,89c0.9-1.2,2.2-2.7,3.1-3.9c1.7,0.3,3.4,0.7,5.1,0.9c0.6,1.4,1.4,3.4,2,4.8c-1,1.2-2.3,2.8-3.2,3.9
				c-1.7-0.3-3.4-0.6-5.1-0.9C114.9,92.4,114.1,90.4,113.6,89 M123,84.6c-2.4-0.4-4.7-0.8-7-1.3c-1.3,1.6-3,3.7-4.2,5.2
				c0.8,2,1.8,4.7,2.6,6.7c2.3,0.5,4.6,0.9,7,1.3c1.3-1.6,3.1-3.8,4.4-5.4C124.9,89.1,123.8,86.6,123,84.6"/>
			<path class="st34" d="M121.8,86c-1.7-0.3-3.4-0.6-5.1-0.9c-0.9,1.2-2.2,2.7-3.1,3.9c0.6,1.5,1.3,3.4,1.9,4.9
				c1.7,0.3,3.4,0.7,5.1,0.9c1-1.2,2.3-2.8,3.2-3.9C123.2,89.4,122.4,87.5,121.8,86"/>
		</g>
		<g>
			
				<ellipse transform="matrix(0.7071 -0.7071 0.7071 0.7071 -8.6198 129.4365)" class="st21" cx="151.9" cy="75.1" rx="1.1" ry="1"/>
			<path d="M151.8,76.5c-0.3,0-0.7-0.1-0.9-0.4c-0.3-0.3-0.4-0.6-0.4-1c0-0.4,0.2-0.7,0.5-1c0.6-0.6,1.5-0.6,2-0.1
				c0.5,0.5,0.5,1.4-0.1,2C152.6,76.3,152.3,76.5,151.8,76.5C151.9,76.5,151.8,76.5,151.8,76.5z M152.1,74.4c-0.2,0-0.4,0.1-0.6,0.3
				c-0.1,0.1-0.2,0.3-0.2,0.5c0,0.2,0,0.3,0.2,0.4c0.1,0.1,0.3,0.2,0.4,0.2c0.2,0,0.4-0.1,0.5-0.2c0.1-0.1,0.2-0.3,0.2-0.5
				c0-0.2,0-0.3-0.2-0.4C152.4,74.5,152.2,74.4,152.1,74.4z"/>
		</g>
		<g>
			
				<ellipse transform="matrix(0.7071 -0.7071 0.7071 0.7071 -44.6708 137.7793)" class="st21" cx="144" cy="122.8" rx="1.1" ry="1"/>
			<path d="M143.8,124.2c-0.3,0-0.7-0.1-0.9-0.4c-0.5-0.5-0.5-1.4,0.1-2c0.6-0.6,1.5-0.6,2-0.1c0.5,0.5,0.5,1.4-0.1,2
				C144.6,124.1,144.2,124.2,143.8,124.2z M144.1,122.1c-0.2,0-0.4,0.1-0.6,0.2c-0.3,0.3-0.3,0.7-0.1,1s0.7,0.2,1-0.1
				c0.3-0.3,0.3-0.7,0.1-1C144.4,122.2,144.3,122.1,144.1,122.1z"/>
		</g>
		<g>
			<ellipse class="st21" cx="112.9" cy="71.1" rx="1" ry="1.1"/>
			<path d="M112.9,72.6c-0.7,0-1.3-0.7-1.3-1.5c0-0.8,0.6-1.5,1.3-1.5c0.7,0,1.3,0.7,1.3,1.5C114.2,71.9,113.6,72.6,112.9,72.6z
				 M112.9,70.4c-0.3,0-0.6,0.3-0.6,0.7c0,0.4,0.3,0.7,0.6,0.7s0.6-0.3,0.6-0.7C113.5,70.7,113.2,70.4,112.9,70.4z"/>
		</g>
		<g>
			<ellipse class="st21" cx="107.1" cy="120" rx="1" ry="1.1"/>
			<path d="M107.1,121.4c-0.7,0-1.3-0.7-1.3-1.5c0-0.8,0.6-1.5,1.3-1.5c0.7,0,1.3,0.7,1.3,1.5C108.4,120.8,107.8,121.4,107.1,121.4z
				 M107.1,119.2c-0.3,0-0.6,0.3-0.6,0.7c0,0.4,0.3,0.7,0.6,0.7s0.6-0.3,0.6-0.7C107.7,119.6,107.4,119.2,107.1,119.2z"/>
		</g>
	</g>
	<g>
		<path d="M52.7,159.9h-4.3v-19.9h-7.6v-3.6h19.5v3.6h-7.6V159.9z"/>
		<path d="M69.6,156.9c0.8,0,1.7-0.1,2.5-0.2s1.8-0.4,2.7-0.7v3.3c-0.5,0.2-1.4,0.5-2.5,0.7s-2.3,0.3-3.5,0.3
			c-1.2,0-2.4-0.2-3.4-0.5s-2-0.8-2.8-1.5s-1.5-1.6-1.9-2.7s-0.7-2.4-0.7-4c0-1.5,0.2-2.9,0.7-4.1s1-2.1,1.8-2.9s1.6-1.3,2.6-1.7
			s2-0.6,3-0.6c1.1,0,2.1,0.2,3,0.5s1.7,0.8,2.4,1.5s1.2,1.6,1.5,2.7s0.6,2.4,0.6,3.9c0,0.6,0,1.1-0.1,1.5H64.2
			c0.1,0.8,0.2,1.5,0.5,2s0.7,1,1.2,1.4s1,0.6,1.7,0.8S68.8,156.9,69.6,156.9z M67.9,145.7c-0.5,0-1,0.1-1.4,0.3s-0.8,0.5-1.1,0.8
			s-0.5,0.7-0.7,1.2s-0.3,0.9-0.4,1.4h6.7c0-0.5-0.1-1-0.2-1.4s-0.3-0.8-0.6-1.2s-0.6-0.6-1-0.8S68.4,145.7,67.9,145.7z"/>
		<path d="M89.7,159.8c-0.5,0.1-1,0.3-1.7,0.3s-1.3,0.1-1.8,0.1c-1.4,0-2.6-0.2-3.5-0.7s-1.5-1.1-1.9-2c-0.3-0.6-0.4-1.5-0.4-2.5
			v-8.8h-3.2v-3.4h3.2v-4.8h4.2v4.8h4.9v3.4h-4.9v8.3c0,0.7,0.1,1.1,0.3,1.5c0.4,0.5,1,0.8,2.1,0.8c0.5,0,1,0,1.4-0.1
			s0.9-0.2,1.3-0.3V159.8z"/>
		<path d="M103,146.1h-0.4c-1.3,0-2.4,0.2-3.4,0.6s-1.7,1-2.2,1.7v11.4h-4.2v-17h3.4l0.4,2.4h0.1c0.5-0.9,1.2-1.5,2-2
			s1.9-0.7,3.1-0.7c0.4,0,0.8,0,1.1,0.1V146.1z"/>
		<path d="M115.5,158L115.5,158c-0.3,0.2-0.6,0.5-0.9,0.8s-0.7,0.5-1.1,0.7s-0.9,0.4-1.4,0.6s-1.1,0.2-1.7,0.2
			c-0.8,0-1.6-0.1-2.3-0.4s-1.3-0.6-1.8-1.1s-0.9-1-1.2-1.7s-0.4-1.4-0.4-2.3c0-0.9,0.2-1.7,0.5-2.5s0.8-1.3,1.4-1.8
			s1.3-0.9,2.1-1.2s1.8-0.4,2.8-0.4c0.7,0,1.4,0,2,0.1s1.2,0.2,1.6,0.3v-0.7c0-0.4-0.1-0.8-0.2-1.2s-0.4-0.7-0.7-1s-0.7-0.5-1.2-0.7
			s-1.1-0.3-1.8-0.3c-0.8,0-1.7,0.1-2.5,0.3s-1.8,0.5-2.7,0.8v-3.3c0.9-0.4,1.8-0.7,2.7-0.9s2-0.3,3-0.3c1.2,0,2.3,0.2,3.3,0.5
			s1.7,0.7,2.3,1.3s1.1,1.2,1.4,1.9s0.5,1.5,0.5,2.4v6.4c0,1.1,0,2.1,0,2.9s0,1.5,0.1,2.2h-3.8L115.5,158z M115.2,152.6
			c-0.4-0.1-0.9-0.2-1.4-0.3s-1-0.1-1.6-0.1c-1,0-1.8,0.2-2.4,0.6s-0.9,1-0.9,1.9c0,0.4,0.1,0.7,0.2,1s0.3,0.5,0.5,0.7
			s0.5,0.3,0.8,0.4s0.6,0.1,1,0.1c0.4,0,0.8-0.1,1.2-0.2s0.7-0.3,1-0.4s0.6-0.4,0.9-0.6s0.5-0.4,0.6-0.6V152.6z"/>
		<path d="M135.1,160.3c0-0.2,0-0.5,0-0.9s0-0.6,0-0.9h0c-0.3,0.2-0.6,0.4-0.9,0.6s-0.7,0.4-1.1,0.6s-0.8,0.3-1.3,0.4
			s-1,0.1-1.5,0.1c-0.9,0-1.8-0.2-2.6-0.5s-1.6-0.8-2.3-1.5s-1.2-1.6-1.6-2.7s-0.6-2.4-0.6-3.9s0.2-2.9,0.6-4s1-2.1,1.7-2.9
			s1.5-1.4,2.4-1.7s1.8-0.6,2.8-0.6c1,0,2,0.2,2.8,0.7s1.5,1,2,1.7h0.1l0.2-1.9h3.7v17.3c0,1-0.1,1.9-0.2,2.6s-0.4,1.3-0.7,1.9
			c-0.4,0.6-0.9,1.2-1.4,1.7s-1.2,0.9-2,1.2s-1.6,0.6-2.5,0.7s-1.8,0.2-2.8,0.2c-0.6,0-1.1,0-1.7-0.1s-1-0.1-1.5-0.2
			s-0.9-0.2-1.3-0.3s-0.7-0.2-1-0.3v-3.4c0.8,0.3,1.6,0.5,2.4,0.6s1.7,0.2,2.7,0.2c1.9,0,3.3-0.4,4.3-1.1s1.5-1.8,1.5-3.3V160.3z
			 M131.4,157c0.4,0,0.8-0.1,1.2-0.2s0.7-0.2,1-0.4s0.6-0.3,0.9-0.5s0.5-0.4,0.6-0.6v-7.6c-0.4-0.5-1-1-1.7-1.3s-1.4-0.5-2.1-0.5
			c-0.3,0-0.5,0-0.8,0.1s-0.6,0.2-0.9,0.3s-0.6,0.4-0.8,0.7s-0.5,0.6-0.7,1s-0.4,0.9-0.5,1.5s-0.2,1.3-0.2,2c0,0.9,0.1,1.6,0.2,2.3
			s0.4,1.2,0.7,1.7s0.7,0.8,1.2,1.1S130.7,157,131.4,157z"/>
		<path d="M160.1,151.3c0,1.3-0.2,2.6-0.6,3.7s-1,2-1.7,2.8s-1.6,1.4-2.7,1.8s-2.2,0.6-3.5,0.6c-1.3,0-2.5-0.2-3.6-0.6s-2-1-2.7-1.8
			s-1.3-1.7-1.7-2.8s-0.6-2.3-0.6-3.7s0.2-2.6,0.6-3.7s1-2,1.7-2.8s1.6-1.4,2.7-1.8s2.2-0.6,3.5-0.6c1.3,0,2.5,0.2,3.6,0.6
			s2,1,2.7,1.8s1.3,1.7,1.7,2.8S160.1,150,160.1,151.3z M155.8,151.3c0-0.9-0.1-1.7-0.3-2.4s-0.5-1.3-0.9-1.7s-0.8-0.8-1.4-1.1
			s-1.1-0.4-1.7-0.4c-0.6,0-1.2,0.1-1.7,0.4s-1,0.6-1.3,1.1s-0.7,1-0.9,1.7s-0.3,1.5-0.3,2.4s0.1,1.7,0.3,2.4s0.5,1.3,0.9,1.7
			s0.8,0.8,1.4,1.1s1.1,0.4,1.7,0.4s1.2-0.1,1.7-0.4s1-0.6,1.3-1.1s0.7-1,0.9-1.7S155.8,152.2,155.8,151.3z"/>
		<path d="M167.6,145.2L167.6,145.2c0.3-0.4,0.6-0.7,1-1s0.8-0.6,1.3-0.9s1-0.5,1.6-0.6s1.2-0.2,1.9-0.2c0.6,0,1.2,0.1,1.8,0.2
			s1.1,0.4,1.6,0.7s0.9,0.7,1.3,1.2s0.7,1,0.9,1.7c0.1,0.4,0.2,0.8,0.2,1.2s0.1,0.9,0.1,1.5v11.1H175v-10.4c0-0.5,0-0.8-0.1-1.2
			s-0.1-0.6-0.2-0.9c-0.2-0.5-0.5-0.9-1-1.2s-0.9-0.4-1.6-0.4c-0.8,0-1.6,0.2-2.3,0.6s-1.4,0.9-2,1.7v11.7h-4.2v-17h3.4L167.6,145.2
			z"/>
	</g>
</g>
</svg>
