<?xml version="1.0" encoding="utf-8"?>
<!-- Generator: Adobe Illustrator 21.1.0, SVG Export Plug-In . SVG Version: 6.00 Build 0)  -->
<svg version="1.1" id="Layer_1" xmlns="http://www.w3.org/2000/svg" xmlns:xlink="http://www.w3.org/1999/xlink" x="0px" y="0px"
	 viewBox="0 0 581.9 220.5" style="enable-background:new 0 0 581.9 220.5;" xml:space="preserve">
<style type="text/css">
	.st0{fill:none;}
	.st1{fill:#ED262A;}
	.st2{fill:#868689;}
	.st3{fill:#0071C4;}
	.st4{fill:#0171C4;}
	.st5{fill:#008E74;}
	.st6{fill:#003C17;}
	.st7{fill:#78A372;}
	.st8{fill:#BAB96E;}
	.st9{fill:#309B85;}
	.st10{fill:#0171C3;}
	.st11{fill:#84AA7B;}
	.st12{fill:#13512B;}
	.st13{fill:#0E4F29;}
	.st14{fill:#106643;}
	.st15{fill:#165F38;}
	.st16{fill:#0A5834;}
	.st17{fill:#0B5530;}
	.st18{fill:#009245;}
	.st19{fill:#007F3A;}
	.st20{fill:none;stroke:#007F3A;stroke-width:0;stroke-linecap:round;stroke-linejoin:round;}
	.st21{fill:#007E3A;}
	.st22{fill:#459D57;}
	.st23{fill:#449D56;}
	.st24{fill:#EC4036;}
	.st25{fill:#FBFCFB;}
	.st26{fill:#FCFCFC;}
	.st27{fill:#FBFBFB;}
	.st28{fill:#003F18;}
	.st29{fill:#2E944D;}
	.st30{fill:#318F4B;}
	.st31{fill:#318D4A;}
	.st32{fill:#9BA662;}
	.st33{fill:#287842;}
	.st34{fill:#468251;}
	.st35{fill:#2B8A48;}
	.st36{fill:#003E18;}
	.st37{fill:#014019;}
	.st38{fill:#003F19;}
	.st39{fill:#005325;}
	.st40{fill:#005426;}
	.st41{fill:#005122;}
	.st42{fill:#005222;}
	.st43{fill:#003D17;}
	.st44{fill:#005323;}
	.st45{fill:#005B26;}
	.st46{fill:#1E93D3;}
	.st47{fill:#1E94D3;}
	.st48{fill:#2094D4;}
	.st49{fill:#2095D4;}
	.st50{fill:#2E9BD6;}
	.st51{fill:#2295D4;}
	.st52{fill:#2195D4;}
	.st53{fill:#2496D4;}
</style>
<g>
	<path class="st0" d="M101.2,115.1C101.2,115.1,101.2,115.1,101.2,115.1c0,0.2-0.1,0.3-0.1,0.3c0.1,0,0.2-0.1,0.3-0.1
		C101.3,115.2,101.3,115.1,101.2,115.1z"/>
	<path class="st0" d="M198.5,119.9c0,0,0-0.1-0.1-0.1c0,0,0,0-0.1,0.1C198.4,119.9,198.4,119.9,198.5,119.9z"/>
	<path class="st46" d="M208.6,19.1c-9.7-2.8-18.3-2.6-25.7,5.7c-4.2,4.7-7.9,4.4-12.7,0.2c-3.4-3-6.2-6.6-9.5-9.6
		c-4.5-4.1-7.9-4.1-12.3,0c-3.3,3-6.2,6.6-9.5,9.6c-5,4.5-8.5,4.3-12.9-0.7c-5.5-6.2-12.4-8.3-20-6.4c-26,6.3-49.5,17.5-69.2,36.1
		C5.8,82.9,2.9,124.7,30,156.9c18.1,21.5,42,33.5,68.4,41.5c8.5,2.6,17.6,3.1,25.9,6.4c4,0,8,0,11.9,0c-7.8-2.8-16.1-3-24-5.3
		c-17.4-5.2-33.6-12.2-46-26.1c-7.8-8.7-12.3-18.8-10.7-30.7c2.9-20.9,21.6-33.1,42-27.7c1.1,0.3,2.1,1.1,3.5,0.3
		c0-0.1,0.1-0.1,0.1-0.2c0,0,0-0.1,0-0.1c-2.8-3.2-6.6-3.8-10.3-4.6c-2.7-0.6-3.4-1.7-2.8-4.5c2.6-12.3,15.6-19.7,27-14.5
		c4.3,2,5.2,0.6,6.9-2.7c9.9-18.7,30.5-28,51.2-23.5c19.1,4.2,34.2,21.5,35.8,40.8c0.2,3-0.1,5-2.9,6.8c-2.8,1.9-5.2,4.6-7.8,7
		c0,0,0,0.1,0.1,0.1c1.6,0.7,2.5-0.2,3.6-0.8c15.1-8.5,30.6-6.8,41.6,4.7c10.8,11.2,12.2,28.4,3.4,42.5
		c-8.2,13.3-20.8,21.2-34.7,27.4c-10.1,4.5-20.8,7.1-31.6,9.2c0.7,0.3,1.5,0.6,2.2,0.9c0,0,0,0,0,0c0,0,0,0,0,0c0.7,0,1.5,0.1,2.2,0
		c32.8-5,62.8-16.4,87.3-39.6c32-30.3,33.8-73,4.6-105.4C258.5,38.3,234.7,26.6,208.6,19.1z"/>
	<path class="st47" d="M470.9,84.9c-8.6,0-8.4,0-8.5,8.7c-0.1,3.8,1,5.1,4.8,4.9c5.8-0.3,11.7-0.1,18.3-0.1
		c-6,13.3-11.7,25.7-17.3,38.2c-4.6,10.2-0.3,17.4,11,18.2c2,0.2,4,0.1,6,0.1c22.6,0,45.2-0.2,67.7,0.1c8.2,0.1,14.3-2.6,18.2-9.9
		c0-2.2,0-4.3,0-6.5c-1.5-5.9-3.2-11.8-5.4-17.5c-3.7-9.6-5.8-11-16.3-10c-4.9,0.5-6.2,2.2-4.4,6.8c1.9,4.9,3.9,9.7,5.9,14.6
		c2.4,5.8,1.3,7.7-5,7.8c-18.1,0.3-36.1,0.2-54.2,0c-5.2-0.1-6-1.4-3.8-6.5c3.8-9,8-17.8,11.6-26.9c2.1-5.2,5.1-7,10.6-6.9
		c17.7,0.3,35.4,0.1,53.1,0.1c2.7,0,5.5,0.4,7.8-1.5c0-4.7,0-9.4,0-14.1c-2,0.1-3.9,0.4-5.9,0.4C533.7,84.9,502.3,84.9,470.9,84.9z"
		/>
	<path class="st48" d="M469.8,39.1c-8.3,0-7-1.2-7.5,7.6c-0.3,4.7,1,6.1,5.9,6.1c32.1-0.2,64.3-0.1,96.4-0.1c2.1,0,4.3,0.3,6.4,0.4
		c0-4.7,0-9.4,0-14.1C537.3,39,503.6,39,469.8,39.1z"/>
	<path class="st49" d="M565.6,172.4c0.4,3.3,0.1,6.6,0.1,10.9c-7-5.3-13.2-9.9-19.3-14.5c-1.3-0.9-2.5-2.4-4.3-1.7
		c-2.1,0.9-1.8,3-1.9,4.7c-0.1,6.1,0,12.3-0.1,18.4c0,2.3,0.5,3.7,3.3,3.7c2.8-0.1,2.7-1.8,2.7-3.6c0-4,0-8.1,0-13.2
		c7.1,5.4,13.3,10,19.4,14.6c1.7,1.2,3.3,3.2,5.7,1.3c0-8.7,0-17.4,0-26C566.5,166,565.1,167.9,565.6,172.4z"/>
	<path class="st50" d="M180.7,202.9c-4,0.7-8.2,0.2-12,1.9c4.7,0,9.4,0,14.1,0c-0.1-0.4-0.1-0.7,0.1-1c0,0,0,0,0,0
		C182.2,203.5,181.5,203.2,180.7,202.9z"/>
	<path class="st47" d="M422.5,90.3c-0.4,19.9-0.1,39.7-0.2,59.6c0,3.7,0.9,5.4,4.8,4.9c1.2-0.2,2.5-0.2,3.8,0c3.9,0.6,4.9-1,4.8-4.8
		c-0.3-9.9-0.1-19.9-0.1-29.8c0-9.9,0.3-19.9-0.1-29.8c-0.2-5.3,1.2-6.7,6.5-6.5c9.9,0.3,8.4,1.8,8.7-9c0.1-3.7-1.3-4.5-4.7-4.5
		c-11.4,0.2-22.8,0.1-34.1,0.1c-13.6,0-13.4,0-13.2-13.6c0-3.5,1.3-4.1,4.4-4.1c14.3,0.1,28.5-0.1,42.8,0.1c3.8,0.1,5.3-1,4.8-4.9
		c-0.2-1.2-0.2-2.6,0-3.8c0.8-4.5-1.4-5.3-5.4-5.3c-17.7,0.2-35.4,0.4-53.1-0.1c-5.8-0.1-6.7,1.7-6.7,6.9
		c0.2,28.9,0.1,57.8,0.1,86.7c0,4.9-0.9,8.8-7,8.2c-3.6-0.4-3.7,1.8-3.5,4.3c0.1,2.2,0,4.3,0,6.5c0,1.2-0.1,2.4,1.5,3
		c10.1,4,20.9-2.5,22-13.3c0.2-2.3,0.2-4.7,0.2-7c0-15.4,0.1-30.7-0.1-46.1c0-3.2,0.8-4.6,4.2-4.3c4.3,0.3,8.7,0.4,13,0
		C420.9,83.4,422.6,84.9,422.5,90.3z"/>
	<path class="st47" d="M361.8,39c-9,0.2-18.1,0.3-27.1,0c-4.2-0.2-5.2,1.3-5.1,5.2c0.2,17.5,0.1,35,0.1,52.5c0,17.7,0,35.4,0,53.1
		c0,2.1-1,5.1,3,5c7.6-0.1,15.2,0.2,22.7-0.3c7.9-0.5,11.3-4.4,11.3-12.3c0.1-32.8,0-65.7,0.1-98.5C366.9,39.7,365.3,38.9,361.8,39z
		 M353.2,134.8c0,5.5-3.7,8-8.9,6.2c-2.5-0.9-1.6-3-1.6-4.6c-0.1-13.3,0-26.7,0-40c0-13.2,0.2-26.3-0.1-39.5
		c-0.1-4.8,2.5-4.5,5.7-4.6c3.5-0.1,5.1,0.6,5.1,4.6C353.2,82.9,353.3,108.8,353.2,134.8z"/>
	<path class="st51" d="M452.1,178.2c-0.2-0.2-0.7-0.1-1.1-0.1c-5.1,0-10.1,0-15.2,0c-2,0-3.5,0.3-3.5,2.9c0,2.7,1.7,2.7,3.6,2.7
		c3.3,0,6.5,0,9.8,0c1.1,0,2.2,0.1,2.4,1.6c0.2,1.2-0.2,2.3-1.5,2.3c-6.5-0.1-13,1.3-19.3-1c-3.1-1.1-5.1-3.4-4.8-7
		c0.3-3.6,2.4-5.6,5.6-6.4c2.1-0.5,4.3-0.8,6.4-0.8c4.9-0.1,9.8-0.1,14.6,0c2.3,0,2.7-1.1,2.7-3c0-1.8-0.5-2.7-2.4-2.6
		c-6.9,0.1-13.8-0.3-20.6,0.3c-7.3,0.7-12.1,5.9-12.5,12.1c-0.4,6.2,4.4,11.7,11.6,13.7c4.5,1.2,9,0.5,12.8,0.8c3.7,0,6.8-0.1,9.9,0
		c2.4,0.1,4.1-0.6,3.5-3.3C453.2,186.5,456.4,181.7,452.1,178.2z"/>
	<path class="st49" d="M408.9,166.8c-2.1,0-3.4,0.4-3.3,3c0.1,3.9,0,7.9,0,13.4c-7.3-5.6-13.4-10.3-19.6-14.8
		c-3.8-2.7-5.5-1.8-5.6,2.9c-0.1,6.3,0,12.6,0,18.9c0,1.8-0.2,3.6,2.6,3.7c2.7,0.1,3.4-1.2,3.4-3.6c-0.1-4,0-8,0-13.2
		c7.4,5.6,13.6,10.4,20,15c3.6,2.6,5.2,1.9,5.3-2.5c0.2-6.7,0-13.3,0.1-20C411.7,167.6,411,166.8,408.9,166.8z"/>
	<path class="st52" d="M531.2,166.8c-3,0-3.1,1.6-3.1,3.8c0.1,2.7-0.1,5.4,0,8.1c0.1,4.9-2.2,7.8-7,8.7c-8.6,1.5-15.2-0.4-16.8-5
		c-0.5-1.5-0.5-3.2-0.6-4.8c-0.1-2.5-0.1-5.1,0-7.6c0.1-2.3-0.7-3.2-3.1-3.2c-2.3,0-3.3,0.8-3.2,3.1c0.2,3.6-0.1,7.2,0.2,10.8
		c0.3,3.7,1.3,7.4,4.6,9.4c7.9,5,16.5,4.9,24.9,1.6c7.2-2.8,7.4-9.5,7.3-15.4c0-2.4-0.1-4.3,0-6.1
		C534.6,168,533.9,166.8,531.2,166.8z"/>
	<path class="st53" d="M359,166.8c-4.1,0.1-8.3,0-12.4,0c-4.3,0-8.7,0-13,0c-0.2,0-0.4,0-0.5,0c-2.2-0.3-2.8,0.9-2.7,2.9
		c0.1,1.8,0.1,3.3,2.5,3.2c1.3,0,2.6,0.2,3.8,0c5.9-1.1,7.5,1.6,6.9,7.1c-0.4,3.6,0,7.2-0.1,10.8c0,1.9,0.3,3.1,2.6,3.1
		c2.1,0,3.6-0.4,3.5-2.9c-0.1-2.5,0-5,0-7.6c0-9.7,0-9.8,9.5-10.4c2.4-0.2,3.6-0.8,3.6-3.4C362.5,166.9,360.9,166.8,359,166.8z"/>
	<path class="st48" d="M483.7,171c-2.2,2.9-5.2,7.5-7.7,7.5c-2.8-0.1-5.7-4.4-8.1-7.3c-3-3.6-6.3-5.5-11.5-3.7
		c4,4.2,7.6,8.4,11.6,12.1c3.1,3,5.6,6,4.8,10.7c-0.4,2.3,0.6,3.6,3.3,3.6c2.7,0,3-1.5,2.7-3.5c-0.8-4.4,1.3-7.4,4.3-10.3
		c4-4,7.7-8.3,11.7-12.7C489.8,165.8,486.5,167.3,483.7,171z"/>
	<path class="st46" d="M370.2,166.8c-2,0-2.9,0.7-2.9,2.8c0.1,7,0.1,14,0,21c0,2.3,0.7,3.2,3.1,3.2c2.3,0,3.2-0.9,3.1-3.2
		c-0.1-3.6,0-7.2,0-10.8c0-3.4-0.1-6.8,0-10.2C373.7,167.1,372.3,166.8,370.2,166.8z"/>
</g>
</svg>
