<svg xmlns="http://www.w3.org/2000/svg" role="img" viewBox="145.51 164.51 649.48 611.48"><title>Tokenetes</title><style>svg {shape-rendering:geometricPrecision;text-rendering:geometricPrecision;image-rendering:optimizeQuality;fill-rule:evenodd;clip-rule:evenodd}</style><defs><style>.fil1,.fil2{fill:#22cada;fill-rule:nonzero}.fil2{fill:#4f6ffd}</style></defs><g id="Layer_x0020_1"><g id="_1447430742144"><path fill="none" d="M0 0h941v941H0z"/><path d="M421 741c15 15 32 23 50 23 17 0 34-8 49-23 17-15 31-38 42-67 11-27 20-58 26-94 5-33 8-71 8-109 0-39-3-76-8-110-6-36-15-67-26-94-11-28-25-52-42-67-15-15-32-23-49-23-18 0-35 8-50 23-16 15-31 39-42 67-11 27-20 58-25 94-6 34-9 71-9 110 0 38 3 76 9 109 5 36 14 67 25 94 11 29 26 52 42 67z" class="fil1"/><path d="M252 317c-12 26-18 55-18 86s6 60 18 87c12 28 29 52 51 73s48 38 77 49c28 11 59 17 91 17s62-6 90-17c29-11 55-28 77-49s39-45 51-73c12-27 18-56 18-87s-6-60-18-86c-12-28-29-53-51-74s-48-38-77-49c-28-11-58-17-90-17s-63 6-91 17c-29 11-55 28-77 49s-39 46-51 74z" class="fil1"/><path d="M584 602c1-7 2-14 4-22 5-33 8-71 8-109 0-39-3-76-8-110-6-36-15-67-26-94-11-28-25-52-42-67-15-15-32-23-49-23-18 0-35 8-50 23-16 15-31 39-42 67-11 27-20 58-25 94-6 34-9 71-9 110 0 38 3 76 9 109 1 8 2 15 4 22 7 4 14 7 22 10 28 11 59 17 91 17s62-6 90-17c8-3 15-6 23-10z" class="fil2"/><path d="M183 251c-16 15-25 31-25 49 0 17 9 34 25 49 16 16 41 30 71 41 29 10 62 19 100 24 36 6 75 9 117 9 41 0 80-3 116-9 38-5 72-14 100-24 30-11 55-25 72-41 15-15 24-32 24-49 0-18-9-34-24-49-17-16-42-30-72-41-28-10-62-19-100-24-36-6-75-9-116-9-42 0-81 3-117 9-38 5-71 14-100 24-30 11-55 25-71 41z" class="fil1"/><path d="M252 317c-9 20-15 42-17 65 6 3 12 5 19 8 29 10 62 19 100 24 36 6 75 9 117 9 41 0 80-3 116-9 38-5 72-14 100-24 7-3 13-5 19-8-2-23-8-45-17-65-12-28-29-53-51-74s-48-38-77-49c-28-11-58-17-90-17s-63 6-91 17c-29 11-55 28-77 49s-39 46-51 74z" class="fil2"/><path fill="#2139a3" fill-rule="nonzero" d="M594 413c-1-18-4-36-6-52-6-36-15-67-26-94-11-28-25-52-42-67-15-15-32-23-49-23-18 0-35 8-50 23-16 15-31 39-42 67-11 27-20 58-25 94-3 16-5 34-7 52 2 1 4 1 7 1 36 6 75 9 117 9 41 0 80-3 116-9 3 0 5 0 7-1z"/></g></g></svg>