<svg xmlns="http://www.w3.org/2000/svg" role="img" viewBox="253.43 205.43 661.64 757.64"><title>Tokenetes</title><style>svg {shape-rendering:geometricPrecision;text-rendering:geometricPrecision;image-rendering:optimizeQuality;fill-rule:evenodd;clip-rule:evenodd}</style><defs><style>.fil1,.fil2,.fil3{fill-rule:nonzero}.fil3{fill:#2139a3}.fil1{fill:#22cada}.fil2{fill:#4f6ffd}</style></defs><g id="Layer_x0020_1"><g id="_1447430741792"><path fill="none" d="M0 0h1169v1169H0z"/><path d="M534 791c15 15 32 23 50 23 19 0 36-8 51-23 16-16 31-39 42-68 11-27 20-59 26-95 6-34 9-72 9-111s-3-77-9-111c-6-36-15-68-26-95-11-29-26-52-42-68-15-15-32-23-51-23-18 0-35 8-50 23-16 16-31 39-42 68-11 27-20 59-26 95-6 34-9 72-9 111s3 77 9 111c6 36 15 68 26 95 11 29 26 52 42 68z" class="fil1"/><path d="M363 361c-12 27-18 57-18 88s6 60 18 87c12 28 30 54 52 75s49 38 78 49c28 12 59 18 91 18 33 0 64-6 92-18 29-11 56-28 78-49s40-47 52-75c12-27 18-56 18-87s-6-61-18-88c-12-28-30-53-52-74s-49-38-78-50c-28-11-59-17-92-17-32 0-63 6-91 17-29 12-56 29-78 50s-40 46-52 74z" class="fil1"/><path d="M699 650c1-7 3-14 4-22 6-34 9-72 9-111s-3-77-9-111c-6-36-15-68-26-95-11-29-26-52-42-68-15-15-32-23-51-23-18 0-35 8-50 23-16 16-31 39-42 68-11 27-20 59-26 95-6 34-9 72-9 111s3 77 9 111c1 8 3 15 4 22 8 4 15 7 23 10 28 12 59 18 91 18 33 0 64-6 92-18 8-3 15-6 23-10z" class="fil2"/><path d="M293 295c-16 15-25 31-25 49s9 35 25 50c17 16 42 30 73 41 28 11 62 19 100 25 37 6 77 9 118 9 42 0 82-3 119-9 38-6 72-14 100-25 31-11 56-25 73-41 16-15 25-32 25-50s-9-34-25-49c-17-16-42-30-73-42-28-10-62-19-100-25-37-5-77-8-119-8-41 0-81 3-118 8-38 6-72 15-100 25-31 12-56 26-73 42z" class="fil1"/><path d="M363 361c-9 21-15 43-17 66 6 3 13 6 20 8 28 11 62 19 100 25 37 6 77 9 118 9 42 0 82-3 119-9 38-6 72-14 100-25 7-2 14-5 20-8-2-23-8-45-17-66-12-28-30-53-52-74s-49-38-78-50c-28-11-59-17-92-17-32 0-63 6-91 17-29 12-56 29-78 50s-40 46-52 74z" class="fil2"/><path d="M710 459c-2-18-4-36-7-53-6-36-15-68-26-95-11-29-26-52-42-68-15-15-32-23-51-23-18 0-35 8-50 23-16 16-31 39-42 68-11 27-20 59-26 95-3 17-5 35-7 53 3 0 5 1 7 1 37 6 77 9 118 9 42 0 82-3 119-9 2 0 4-1 7-1z" class="fil3"/><path d="M318 947h-17v-83h-32v-17h82v17h-32v83h-1zm40-70c4-2 9-3 15-3 5 0 10 1 14 3 5 2 9 4 12 8 7 7 11 16 11 26 0 6-1 11-3 15-2 5-4 8-8 12-3 3-7 6-11 8-5 2-10 3-15 3-6 0-11-1-15-3-5-2-9-5-12-8-3-4-6-7-8-12-1-4-2-9-2-15 0-5 1-10 2-14 2-5 5-9 8-12 3-4 7-6 12-8zm22 15c-2-1-5-2-7-2-3 0-6 1-8 2-3 1-5 2-7 4-3 4-5 9-5 15 0 3 0 6 1 9 1 2 3 4 4 6 2 2 4 4 7 5 2 1 5 1 8 1s5 0 8-1c2-1 4-3 6-5s3-4 4-6c1-3 1-6 1-9 0-2 0-5-1-8-1-2-2-4-4-7-2-2-4-3-7-4zm38 54v-99h17v55l23-26h20v2l-29 31 33 35v3h-20l-27-29v29h-17v-1zm131-47c1 5 1 11 1 18l-1 1h-55c1 2 1 4 2 5 1 2 3 4 4 5 2 2 4 3 7 4 2 0 5 1 8 1 2 0 4-1 5-1 2 0 4-1 6-1 1-1 3-2 4-3 2 0 3-1 4-2l1-1 11 11-1 1c-2 2-4 3-6 5-2 1-5 3-7 4-6 2-12 3-17 3-6 0-11-1-16-3-5-1-9-4-12-8-7-6-11-16-11-27s4-20 11-27c3-3 7-6 12-8 4-1 9-2 15-2s11 1 16 3c4 1 8 4 12 8 3 4 5 8 7 14zm-52-1c-1 2-2 3-2 5h38c0-2-1-3-2-5s-2-3-3-5c-4-2-8-4-14-4-5 0-9 2-13 4-2 2-3 3-4 5zm129 11v38h-17v-38c0-3 0-5-1-8-1-2-2-4-4-6-1-1-3-2-5-3s-4-1-7-1-5 0-7 1-4 2-6 4-3 4-4 6c-1 3-1 5-1 8v37h-17v-71h16v8c3-3 6-5 9-7 4-1 9-2 13-2 9 0 17 3 23 9 2 3 5 6 6 11 2 4 2 9 2 14zm80-10c1 5 1 11 1 18l-1 1h-55c0 2 1 4 2 5 1 2 2 4 4 5 2 2 4 3 7 4 2 0 5 1 8 1 2 0 3-1 5-1s4-1 6-1c1-1 3-2 4-3 2 0 3-1 4-2l1-1 11 11-1 1c-2 2-4 3-6 5-2 1-5 3-8 4-5 2-11 3-16 3-6 0-11-1-16-3-5-1-9-4-12-8-7-6-11-16-11-27s4-20 11-27c3-3 7-6 12-8 4-1 9-2 15-2s11 1 15 3c5 1 9 4 13 8 3 4 5 8 7 14zm-52-1c-1 2-2 3-3 5h39c0-2-1-3-2-5s-2-3-4-5c-3-2-7-4-13-4-5 0-9 2-13 4-2 2-3 3-4 5zm68-22v-18l17-2v20h20v15h-20v31c0 7 2 10 8 10h4c1-1 3-1 4-2l2-1 5 15-1 1c-5 2-10 3-15 3-4 0-7 0-10-1-3-2-6-3-8-5-2-3-4-5-5-9-1-3-1-6-1-11v-31h-14v-15h14zm112 23c2 5 2 11 1 18v1h-55c0 2 1 4 2 5 1 2 2 4 4 5 2 2 4 3 6 4 3 0 6 1 9 1 1 0 3-1 5-1s3-1 5-1c2-1 4-2 5-3 1 0 2-1 3-2l1-1 12 11-1 1c-2 2-4 3-6 5-3 1-5 3-8 4-5 2-11 3-17 3s-11-1-15-3c-5-1-9-4-13-8-7-6-10-16-10-27s3-20 10-27c4-3 8-6 12-8 5-1 10-2 15-2 6 0 11 1 16 3 5 1 9 4 12 8 4 4 6 8 7 14zm-52-1c-1 2-1 3-2 5h38c0-2 0-3-1-5s-2-3-4-5c-3-2-8-4-13-4s-10 2-13 4c-2 2-4 3-5 5zm103-22c4 2 8 4 12 7l1 1-10 12-1-1c-2-2-5-4-8-5s-6-1-9-1h-6c-2 1-3 1-4 2-1 0-2 1-3 2 0 1-1 2-1 3 0 2 2 3 4 4 2 2 5 3 10 3 2 0 4 1 6 1 1 0 3 0 4 1 2 0 3 0 5 1 1 0 3 1 5 2 1 1 3 2 4 3 2 1 3 2 4 4 1 1 1 3 2 5v6c0 7-3 13-8 17-3 2-6 4-10 5s-8 1-12 1c-7 0-13-1-19-3-5-2-10-6-14-10v-1l9-12 1 1c3 3 6 6 10 7 4 2 8 3 13 3 2 0 4 0 5-1 2 0 3-1 5-1 1-1 2-2 2-3 1-1 1-2 1-3v-3c-1-1-2-2-3-2-1-1-3-1-4-2-2 0-5-1-7-1-10-1-17-3-22-7-5-3-7-8-8-15 0-7 4-13 10-17 3-2 6-3 10-4 3-1 7-1 10-1 6 0 11 1 16 2z" class="fil3"/></g></g></svg>