<?xml version="1.0" encoding="UTF-8" standalone="no"?>
<svg
   width="182px"
   height="157px"
   viewBox="0 0 182 157"
   version="1.1"
   id="svg33"
   sodipodi:docname="编组 20.svg"
   xmlns:inkscape="http://www.inkscape.org/namespaces/inkscape"
   xmlns:sodipodi="http://sodipodi.sourceforge.net/DTD/sodipodi-0.dtd"
   xmlns="http://www.w3.org/2000/svg"
   xmlns:svg="http://www.w3.org/2000/svg">
  <sodipodi:namedview
     id="namedview35"
     pagecolor="#ffffff"
     bordercolor="#000000"
     borderopacity="0.25"
     inkscape:showpageshadow="2"
     inkscape:pageopacity="0.0"
     inkscape:pagecheckerboard="0"
     inkscape:deskcolor="#d1d1d1" />
  <title
     id="title2">编组 20</title>
  <defs
     id="defs9">
    <linearGradient
       x1="33.2859669%"
       y1="0%"
       x2="68.7109823%"
       y2="100%"
       id="linearGradient-1">
      <stop
         stop-color="#13A4F3"
         offset="0%"
         id="stop4" />
      <stop
         stop-color="#3654FF"
         offset="100%"
         id="stop6" />
    </linearGradient>
  </defs>
  <g
     id="页面-1"
     stroke="none"
     stroke-width="1"
     fill="none"
     fill-rule="evenodd">
    <g
       id="画板"
       transform="translate(-913,-466)"
       fill-rule="nonzero">
      <g
         id="编组-20"
         transform="translate(913,466)">
        <g
           id="编组-4"
           transform="translate(41)">
          <path
             d="m 55.892004,68.991073 c -2.536228,-2.54542 -6.95845,-2.535389 -9.474686,0 l -2.551382,2.560413 -7.893924,-7.922309 4.29712,-4.307552 c 2.601358,-2.610568 2.606302,-6.867964 0,-9.503665 L 23.595679,33.089741 c -0.948133,-0.95151 -2.330056,-1.323107 -3.625213,-0.974814 -1.295157,0.348294 -2.306782,1.363564 -2.653806,2.663367 -0.347024,1.299804 0.02327,2.68667 0.971407,3.63818 L 34.39125,54.572274 22.505009,66.500878 6.4069849,50.340009 c -1.4656864,-1.470937 -3.8420336,-1.470937 -5.3077201,0 -1.46568641,1.470937 -1.46568641,3.855797 0,5.326734 L 17.767774,72.394962 c 1.305623,1.315262 3.021483,1.967931 4.737343,1.967931 1.71586,0 3.43172,-0.652561 4.73745,-1.967931 l 3.421725,-3.439051 7.894031,7.922309 -4.462311,4.478188 c -1.26605,1.255482 -1.978999,2.967101 -1.979927,4.753332 -9.29e-4,1.786231 0.71024,3.498596 1.974983,4.755403 l 15.102579,15.156787 c 1.260698,1.27524 2.946572,1.97807 4.73745,1.97807 1.790879,0 3.471702,-0.70283 4.732399,-1.973 L 70.989745,93.656595 c 1.270586,-1.270175 1.971009,-2.957127 1.971009,-4.754421 0,-1.797294 -0.700423,-3.484246 -1.966065,-4.749352 L 55.892111,68.991073 Z M 53.936041,100.12795 39.969058,86.11083 51.15466,74.890012 65.121751,88.902174 Z M 98.953913,60.270482 82.285404,43.542262 c -2.618927,-2.614826 -6.850816,-2.614826 -9.469743,0 l -3.426776,3.439052 -7.88898,-7.91724 4.472306,-4.488219 c 2.601251,-2.620708 2.601251,-6.883066 -0.0051,-9.508735 L 50.854587,9.9052632 c -2.526232,-2.5403509 -6.933516,-2.5403509 -9.474794,0 L 29.053436,22.290768 c -2.606355,2.626833 -2.604096,6.874664 0.0051,9.498704 l 15.10763,15.17178 c 1.260697,1.260144 2.94152,1.958007 4.727455,1.958007 1.780883,0 3.461814,-0.692793 4.737343,-1.963077 l 2.561269,-2.570336 7.889087,7.91724 -4.292176,4.307552 c -1.263405,1.258612 -1.97154,2.972843 -1.966065,4.759383 0,1.797294 0.705368,3.484137 1.966065,4.744282 l 16.668509,16.728219 c 0.702173,0.707552 1.656239,1.105293 2.651281,1.105293 0.995042,0 1.949108,-0.397741 2.651281,-1.105293 0.704123,-0.706221 1.099731,-1.664318 1.099731,-2.663366 0,-0.999049 -0.395608,-1.957145 -1.099731,-2.663367 l -16.098132,-16.1558 11.880974,-11.928604 16.09824,16.155799 c 1.4707,1.425742 3.808149,1.407092 5.256076,-0.04194 1.447927,-1.449028 1.473097,-3.794788 0.05659,-5.274766 z M 34.931426,27.04012 46.117136,15.809271 60.089171,29.826395 48.893573,41.062098 34.931426,27.040012 Z"
             id="形状"
             fill="#231815"
             opacity="0.0945696" />
          <path
             d="m 55.892004,60.991073 c -2.536228,-2.54542 -6.95845,-2.535389 -9.474686,0 l -2.551382,2.560414 -7.893924,-7.92231 4.29712,-4.307552 c 2.601358,-2.610568 2.606302,-6.867964 0,-9.503665 L 23.595679,25.089741 c -0.948133,-0.95151 -2.330056,-1.323107 -3.625213,-0.974814 -1.295157,0.348294 -2.306782,1.363564 -2.653806,2.663367 -0.347024,1.299804 0.02327,2.68667 0.971407,3.63818 L 34.39125,46.572274 22.505009,58.500878 6.4069849,42.340009 c -1.4656864,-1.470937 -3.8420336,-1.470937 -5.3077201,0 -1.46568641,1.470937 -1.46568641,3.855797 0,5.326734 L 17.767774,64.394962 c 1.305623,1.315262 3.021483,1.967931 4.737343,1.967931 1.71586,0 3.43172,-0.652561 4.73745,-1.967931 l 3.421725,-3.439051 7.894031,7.922309 -4.462311,4.478188 c -1.26605,1.255482 -1.978999,2.967101 -1.979927,4.753332 -9.29e-4,1.786231 0.71024,3.498596 1.974983,4.755403 L 49.193647,98.02193 C 50.454345,99.297175 52.140219,100 53.931097,100 c 1.790879,0 3.471702,-0.702825 4.732399,-1.973 L 70.989745,85.656595 c 1.270586,-1.270175 1.971009,-2.957127 1.971009,-4.754421 0,-1.797294 -0.700423,-3.484246 -1.966065,-4.749352 L 55.892111,60.991073 Z M 53.936041,92.127954 39.969058,78.11083 51.15466,66.890012 65.121751,80.902174 Z M 98.953913,52.270482 82.285404,35.542262 c -2.618927,-2.614826 -6.850816,-2.614826 -9.469743,0 l -3.426776,3.439052 -7.88898,-7.91724 4.472306,-4.488219 c 2.601251,-2.620708 2.601251,-6.883066 -0.0051,-9.508735 L 50.854587,1.9052632 c -2.526232,-2.54035093 -6.933516,-2.54035093 -9.474794,0 L 29.053436,14.290768 c -2.606355,2.626833 -2.604096,6.874664 0.0051,9.498704 l 15.10763,15.17178 c 1.260697,1.260144 2.94152,1.958007 4.727455,1.958007 1.780883,0 3.461814,-0.692793 4.737343,-1.963077 l 2.561269,-2.570336 7.889087,7.91724 -4.292176,4.307552 c -1.263405,1.258612 -1.97154,2.972843 -1.966065,4.759383 0,1.797294 0.705368,3.484137 1.966065,4.744282 l 16.668509,16.728219 c 0.702173,0.707552 1.656239,1.105293 2.651281,1.105293 0.995042,0 1.949108,-0.397741 2.651281,-1.105293 0.704123,-0.706221 1.099731,-1.664318 1.099731,-2.663366 0,-0.999049 -0.395608,-1.957145 -1.099731,-2.663367 l -16.098132,-16.1558 11.880974,-11.928604 16.09824,16.155799 c 1.4707,1.425742 3.808149,1.407092 5.256076,-0.04194 1.447927,-1.449028 1.473097,-3.794788 0.05659,-5.274766 z M 34.931426,19.04012 46.117136,7.8092709 60.089171,21.826395 48.893573,33.062098 34.931426,19.040012 Z"
             id="形状备份"
             fill="url(#linearGradient-1)" />
        </g>
        <g
           id="TRaaS-DST备份-2"
           transform="translate(0,126)"
           fill="#000000"
           fill-opacity="0.65">
          <path
             id="路径"
             d="m 17.424,0.768 v 4.176 h -6.48 v 24.96 H 6.48 V 4.944 H 0 V 0.768 Z" />
          <path
             d="M 38.832,29.904 H 32.736 L 24.48,16.944 24.432,29.904 H 19.488 V 0.768 h 7.728 c 6.496,0 9.744,2.928 9.744,8.784 0,2.208 -0.568,4.048 -1.704,5.52 -1.136,1.472 -2.68,2.32 -4.632,2.544 z m -14.4,-14.976 h 1.488 c 4.064,0 6.096,-1.744 6.096,-5.232 0,-3.36 -2.016,-5.04 -6.048,-5.04 h -1.536 z"
             id="path15" />
          <path
             d="m 58.848,29.904 h -4.56 v -1.728 c -1.344,1.568 -3.344,2.352 -6,2.352 -2.656,0 -4.776,-1.024 -6.36,-3.072 -1.584,-2.048 -2.376,-4.448 -2.376,-7.2 0,-2.752 0.808,-5.096 2.424,-7.032 1.616,-1.936 3.688,-2.904 6.216,-2.904 2.688,0 4.72,0.8 6.096,2.4 v -1.776 h 4.56 z M 54.816,20.4 c 0,-1.76 -0.496,-3.208 -1.488,-4.344 -0.992,-1.136 -2.264,-1.704 -3.816,-1.704 -1.552,0 -2.816,0.552 -3.792,1.656 -0.976,1.104 -1.464,2.568 -1.464,4.392 0,1.824 0.496,3.296 1.488,4.416 0.992,1.12 2.272,1.68 3.84,1.68 1.568,0 2.832,-0.544 3.792,-1.632 0.96,-1.088 1.44,-2.576 1.44,-4.464 z"
             id="path17" />
          <path
             d="m 80.688,29.904 h -4.56 v -1.728 c -1.344,1.568 -3.344,2.352 -6,2.352 -2.656,0 -4.776,-1.024 -6.36,-3.072 -1.584,-2.048 -2.376,-4.448 -2.376,-7.2 0,-2.752 0.808,-5.096 2.424,-7.032 1.616,-1.936 3.688,-2.904 6.216,-2.904 2.688,0 4.72,0.8 6.096,2.4 v -1.776 h 4.56 z M 76.656,20.4 c 0,-1.76 -0.496,-3.208 -1.488,-4.344 -0.992,-1.136 -2.264,-1.704 -3.816,-1.704 -1.552,0 -2.816,0.552 -3.792,1.656 -0.976,1.104 -1.464,2.568 -1.464,4.392 0,1.824 0.496,3.296 1.488,4.416 0.992,1.12 2.272,1.68 3.84,1.68 1.568,0 2.832,-0.544 3.792,-1.632 0.96,-1.088 1.44,-2.576 1.44,-4.464 z"
             id="path19" />
          <path
             d="M 98.832,6.672 C 97.584,4.912 96,4.032 94.08,4.032 c -1.216,0 -2.24,0.368 -3.072,1.104 -0.832,0.736 -1.248,1.72 -1.248,2.952 0,1.232 1.512,2.696 4.536,4.392 3.024,1.696 4.552,2.544 4.584,2.544 2.144,1.6 3.216,3.488 3.216,5.664 0,2.976 -0.856,5.384 -2.568,7.224 -1.712,1.84 -4.056,2.76 -7.032,2.76 -3.776,0 -6.752,-1.888 -8.928,-5.664 l 3.12,-3.072 c 0.416,1.12 1.184,2.144 2.304,3.072 1.12,0.928 2.272,1.392 3.456,1.392 1.408,0 2.52,-0.48 3.336,-1.44 0.816,-0.96 1.224,-2.128 1.224,-3.504 0,-0.992 -0.304,-1.864 -0.912,-2.616 C 95.488,18.088 93.432,16.936 89.928,15.384 86.424,13.832 84.672,11.616 84.672,8.736 84.672,6.272 85.48,4.2 87.096,2.52 88.712,0.84 90.736,0 93.168,0 c 3.36,0 6.016,1.088 7.968,3.264 z"
             id="path21" />
          <path
             d="m 121.056,0.768 h 8.16 c 4.16,0 7.544,1.376 10.152,4.128 2.608,2.752 3.912,6.224 3.912,10.416 0,4.192 -1.32,7.672 -3.96,10.44 -2.64,2.768 -6.024,4.152 -10.152,4.152 h -8.112 z M 126,25.44 h 1.68 c 6.976,0 10.464,-3.368 10.464,-10.104 0,-6.736 -3.488,-10.104 -10.464,-10.104 H 126 Z"
             id="path23" />
          <path
             d="m 160.128,6.672 c -1.248,-1.76 -2.832,-2.64 -4.752,-2.64 -1.216,0 -2.24,0.368 -3.072,1.104 -0.832,0.736 -1.248,1.72 -1.248,2.952 0,1.232 1.512,2.696 4.536,4.392 3.024,1.696 4.552,2.544 4.584,2.544 2.144,1.6 3.216,3.488 3.216,5.664 0,2.976 -0.856,5.384 -2.568,7.224 -1.712,1.84 -4.056,2.76 -7.032,2.76 -3.776,0 -6.752,-1.888 -8.928,-5.664 l 3.12,-3.072 c 0.416,1.12 1.184,2.144 2.304,3.072 1.12,0.928 2.272,1.392 3.456,1.392 1.408,0 2.52,-0.48 3.336,-1.44 0.816,-0.96 1.224,-2.128 1.224,-3.504 0,-0.992 -0.304,-1.864 -0.912,-2.616 -0.608,-0.752 -2.664,-1.904 -6.168,-3.456 -3.504,-1.552 -5.256,-3.768 -5.256,-6.648 0,-2.464 0.808,-4.536 2.424,-6.216 1.616,-1.68 3.64,-2.52 6.072,-2.52 3.36,0 6.016,1.088 7.968,3.264 z"
             id="path25" />
          <path
             id="polygon27"
             d="m 181.68,0.768 v 4.176 h -6.48 v 24.96 h -4.464 V 4.944 h -6.48 V 0.768 Z" />
        </g>
      </g>
    </g>
  </g>
</svg>
