<?xml version="1.0" encoding="UTF-8" standalone="no"?>
<svg
   xmlns:dc="http://purl.org/dc/elements/1.1/"
   xmlns:cc="http://creativecommons.org/ns#"
   xmlns:rdf="http://www.w3.org/1999/02/22-rdf-syntax-ns#"
   xmlns:svg="http://www.w3.org/2000/svg"
   xmlns="http://www.w3.org/2000/svg"
   xmlns:sodipodi="http://sodipodi.sourceforge.net/DTD/sodipodi-0.dtd"
   xmlns:inkscape="http://www.inkscape.org/namespaces/inkscape"
   version="1.1"
   id="svg2"
   xml:space="preserve"
   width="1449.4133"
   height="256"
   viewBox="0 0 1449.4133 256"
   sodipodi:docname="tr42_logo_FULL-WHITE.eps"><metadata
     id="metadata8"><rdf:RDF><cc:Work
         rdf:about=""><dc:format>image/svg+xml</dc:format><dc:type
           rdf:resource="http://purl.org/dc/dcmitype/StillImage" /></cc:Work></rdf:RDF></metadata><defs
     id="defs6" /><sodipodi:namedview
     pagecolor="#ffffff"
     bordercolor="#666666"
     borderopacity="1"
     objecttolerance="10"
     gridtolerance="10"
     guidetolerance="10"
     inkscape:pageopacity="0"
     inkscape:pageshadow="2"
     inkscape:window-width="640"
     inkscape:window-height="480"
     id="namedview4" /><g
     id="g10"
     inkscape:groupmode="layer"
     inkscape:label="ink_ext_XXXXXX"
     transform="matrix(1.3333333,0,0,-1.3333333,0,256)"><g
       id="g12"
       transform="scale(0.1)"><path
         d="M 852.465,1566.33 H 25.2656 C 11.3086,1566.33 0,1555.02 0,1541.07 v -148.33 c 0,-13.95 11.3086,-25.26 25.2656,-25.26 H 300.766 c 13.957,0 25.265,-11.31 25.265,-25.26 V 593.691 c 0,-13.953 11.309,-25.261 25.262,-25.261 h 176.551 c 13.949,0 25.261,11.308 25.261,25.261 v 748.529 c 0,13.95 11.309,25.26 25.266,25.26 h 274.094 c 13.957,0 25.265,11.31 25.265,25.26 v 148.33 c 0,13.95 -11.308,25.26 -25.265,25.26"
         style="fill:#100f0d;fill-opacity:1;fill-rule:nonzero;stroke:none"
         id="path14" /><path
         d="m 4474.97,1242.5 c 0,-58.19 -17.88,-91.52 -58,-108.09 -37.47,-15.48 -90.97,-15.48 -158.72,-15.48 h -133.6 c -13.95,0 -25.26,11.31 -25.26,25.27 v 198.02 c 0,13.95 11.31,25.26 25.26,25.26 h 133.6 c 67.75,0 121.25,0 158.72,-15.66 40.12,-16.76 58,-50.48 58,-109.32 z m 189.28,-175.68 h -194.48 c 64.1,9.55 113.53,26.87 150.69,52.72 54.15,37.68 81.6,94.25 81.6,168.12 0,53.58 -12.11,99.97 -36,137.86 -21.99,34.89 -54.64,63.61 -97.01,85.35 -72.75,37.32 -174.42,55.46 -310.8,55.46 h -360.68 c -13.96,0 -25.27,-11.31 -25.27,-25.26 V 593.691 c 0,-13.953 11.31,-25.261 25.27,-25.261 h 176.56 c 13.95,0 25.26,11.308 25.26,25.261 v 301.118 c 0,13.953 11.31,25.269 25.26,25.269 h 337.76 c 13.95,0 25.27,-11.316 25.27,-25.269 V 593.691 c 0,-13.953 11.3,-25.261 25.26,-25.261 h 176.57 c 13.95,0 25.27,11.308 25.27,25.261 v 422.599 c 0,27.91 -22.63,50.53 -50.53,50.53"
         style="fill:#100f0d;fill-opacity:1;fill-rule:nonzero;stroke:none"
         id="path16" /><path
         d="m 5380.46,927.766 c 0,-57.746 -16.02,-101.938 -47.61,-131.336 -29.69,-27.629 -72.34,-41.649 -126.77,-41.649 -55.08,0 -98.15,14.02 -128.02,41.649 -31.71,29.34 -47.79,73.519 -47.79,131.336 0,57.16 16.08,100.934 47.79,130.084 29.92,27.53 73,41.47 128.02,41.47 54.37,0 97.02,-13.94 126.77,-41.46 31.59,-29.22 47.61,-72.993 47.61,-130.094 z m 110.06,278.514 c -70.82,60.11 -169.19,91.88 -284.44,91.88 -115.9,0 -214.69,-31.77 -285.69,-91.88 -37.26,-31.55 -66.14,-70.48 -85.85,-115.69 -20.8,-47.74 -31.35,-102.52 -31.35,-162.824 0,-60.645 10.55,-115.707 31.35,-163.645 19.7,-45.41 48.59,-84.48 85.85,-116.121 70.93,-60.238 169.72,-92.07 285.69,-92.07 115.33,0 213.68,31.832 284.44,92.07 37.2,31.648 66.02,70.719 85.69,116.121 20.79,47.957 31.32,103.02 31.32,163.645 0,60.285 -10.53,115.064 -31.32,162.824 -19.69,45.21 -48.51,84.13 -85.69,115.69"
         style="fill:#100f0d;fill-opacity:1;fill-rule:nonzero;stroke:none"
         id="path18" /><path
         d="m 1725.89,791.77 c -36.25,-24.168 -87.86,-36.961 -149.25,-36.961 -69.5,0 -77.01,37.082 -77.01,53.011 0,39.051 29.81,49.68 101.09,60.071 l 181.35,25.3 c -0.21,-42 -19.63,-77.062 -56.18,-101.421 z m 349.88,-22.829 h -41.36 c -13.95,0 -25.26,11.297 -25.26,25.258 v 174.528 c 0,56.483 -10.1,107.113 -30.02,150.483 -18.57,40.4 -45.76,74.82 -80.84,102.29 -64.07,50.18 -153.32,76.7 -258.14,76.7 -99.16,0 -188.46,-26.85 -251.45,-75.63 -59.63,-46.18 -94.15,-109.98 -100.83,-184.86 -1.31,-14.67 10.54,-27.26 25.27,-27.26 h 163.59 c 11.89,0 22.51,8.24 24.65,19.94 9.65,52.81 59.02,83.08 138.77,83.08 92.56,0 141.62,-31.81 141.93,-91.97 L 1558.2,990.512 c -104.2,-14.578 -176.9,-39.903 -222.27,-77.403 -43.24,-35.757 -63.39,-82.66 -63.39,-147.609 0,-49.148 18.78,-209.531 260.33,-209.531 92.98,0 186.9,21.293 236.9,65.082 36.82,32.258 62.64,76.898 78.62,136.09 V 669.52 c 0,-55.809 45.25,-101.051 101.06,-101.051 h 126.32 c 13.95,0 25.26,11.312 25.26,25.261 v 149.942 c 0,13.957 -11.31,25.269 -25.26,25.269"
         style="fill:#100f0d;fill-opacity:1;fill-rule:nonzero;stroke:none"
         id="path20" /><path
         d="m 6473.62,1285.53 h -176.55 c -13.95,0 -25.26,-11.31 -25.26,-25.26 v -240.76 c 0,-180.6 -64.39,-264.729 -202.62,-264.729 -55.08,0 -91.2,12.93 -113.65,40.699 -22.18,27.418 -32.5,71.239 -32.5,137.918 v 326.872 c 0,13.95 -11.31,25.26 -25.27,25.26 h -176.56 c -13.95,0 -25.26,-11.31 -25.26,-25.26 V 898.121 c 0,-108.851 26.23,-194.23 77.97,-253.762 25.12,-28.929 56.13,-51.129 92.13,-65.98 36.1,-14.899 77.39,-22.449 122.69,-22.449 72.57,0 151.03,22.25 199.07,66.148 39.18,35.781 68.02,85.223 84.01,143.774 V 593.699 c 0,-13.949 11.31,-25.269 25.26,-25.269 h 176.54 c 13.95,0 25.27,11.308 25.27,25.261 v 666.579 c 0,13.95 -11.32,25.26 -25.27,25.26"
         style="fill:#100f0d;fill-opacity:1;fill-rule:nonzero;stroke:none"
         id="path22" /><path
         d="m 7453.44,1080.05 c 27.78,22.14 71.04,33.38 128.57,33.38 57.62,0 101.11,-11.24 129.28,-33.39 28.82,-22.66 35.11,-51.86 35.21,-72.62 h -327.57 c 0.17,29.65 12.09,54.75 34.51,72.63 z m 322,-257.98 c -10.12,0 -18.88,-6.211 -23.18,-15.359 -8.85,-18.801 -24.25,-34 -45.98,-45.281 -26.11,-13.578 -60.78,-20.758 -100.27,-20.758 -104.53,0 -169.87,39.187 -184.13,108.738 -3.16,15.41 9.19,29.731 24.92,29.731 h 487.43 c 13.95,0 25.26,11.308 25.26,25.257 v 45.938 c 0,104.774 -36.48,192.964 -105.52,255.054 -67.52,60.7 -161.55,92.77 -271.96,92.77 -228.44,0 -376.05,-142.07 -376.05,-361.937 0,-51.422 8.05,-100.102 23.93,-144.684 16.54,-46.398 41.18,-87.211 73.26,-121.269 34,-36.09 75.95,-64.141 124.7,-83.36 52.14,-20.558 112.08,-30.98 178.16,-30.98 138.66,0 227.1,51.218 276.86,94.191 45.66,39.399 79.52,89.75 94.76,139.309 4.98,16.23 -7.31,32.64 -24.27,32.64 h -177.92"
         style="fill:#100f0d;fill-opacity:1;fill-rule:nonzero;stroke:none"
         id="path24" /><path
         d="m 2650.55,786.602 c -27.99,-20.821 -65.55,-31.821 -108.65,-31.821 -105.18,0 -163.1,61.43 -163.1,172.985 0,110.634 57.92,171.554 163.1,171.554 43.1,0 80.66,-11 108.65,-31.81 21.41,-15.91 36.18,-36.61 43.41,-60.58 3.25,-10.809 12.67,-18.571 23.96,-18.571 h 179.37 c 15.21,0 27.16,13.391 25.17,28.461 -10.96,83 -51.93,152.78 -119.61,202.9 -68.31,50.59 -160.98,78.44 -260.95,78.44 -114.37,0 -211.33,-33.24 -280.41,-96.12 -71.8,-65.38 -109.76,-160.22 -109.76,-274.274 0,-114.688 37.96,-209.965 109.76,-275.516 69.01,-63.02 165.98,-96.32 280.41,-96.32 99.97,0 192.64,27.859 260.95,78.449 67.68,50.121 108.62,119.91 119.58,202.91 1.99,15.07 -9.96,28.461 -25.17,28.461 h -179.34 c -11.29,0 -20.71,-7.762 -23.96,-18.57 -7.23,-23.981 -22,-44.68 -43.41,-60.578"
         style="fill:#100f0d;fill-opacity:1;fill-rule:nonzero;stroke:none"
         id="path26" /><path
         d="m 3233.32,1080.05 c 27.78,22.14 71.04,33.38 128.57,33.38 57.61,0 101.1,-11.24 129.28,-33.39 28.82,-22.66 35.1,-51.86 35.21,-72.62 H 3198.8 c 0.17,29.65 12.1,54.75 34.52,72.63 z m 321.99,-257.98 c -10.11,0 -18.87,-6.211 -23.18,-15.359 -8.84,-18.801 -24.25,-34 -45.97,-45.281 -26.11,-13.578 -60.78,-20.758 -100.28,-20.758 -104.53,0 -169.86,39.187 -184.13,108.738 -3.16,15.41 9.19,29.731 24.92,29.731 h 487.44 c 13.95,0 25.27,11.308 25.27,25.257 v 45.938 c 0,104.774 -36.5,192.964 -105.54,255.054 -67.52,60.7 -161.54,92.77 -271.95,92.77 -228.45,0 -376.06,-142.07 -376.06,-361.937 0,-51.422 8.06,-100.102 23.94,-144.684 16.53,-46.398 41.18,-87.211 73.27,-121.269 33.99,-36.09 75.93,-64.141 124.69,-83.36 52.14,-20.558 112.07,-30.98 178.15,-30.98 138.67,0 227.1,51.218 276.87,94.191 45.65,39.399 79.52,89.75 94.75,139.309 4.99,16.23 -7.29,32.64 -24.27,32.64 h -177.92"
         style="fill:#100f0d;fill-opacity:1;fill-rule:nonzero;stroke:none"
         id="path28" /><path
         d="m 6940.69,1093.15 h 176.55 c 13.95,0 25.26,11.32 25.26,25.27 v 141.85 c 0,13.95 -11.31,25.26 -25.26,25.26 h -176.55 c -13.95,0 -25.26,11.31 -25.26,25.27 V 1440 c 0,17.04 -16.53,29.2 -32.8,24.11 l -176.55,-55.17 c -10.54,-3.3 -17.73,-13.06 -17.73,-24.12 v -74.02 c 0,-13.96 -11.31,-25.27 -25.25,-25.27 h -50.53 c -13.96,0 -25.26,-11.31 -25.26,-25.26 v -141.85 c 0,-13.95 11.3,-25.27 25.26,-25.27 h 50.53 c 13.94,0 25.25,-11.3 25.25,-25.26 V 619.039 c 0,-27.898 22.62,-50.508 50.52,-50.508 l 403.92,-0.09 c 13.96,0 25.28,11.309 25.28,25.258 v 137.199 c 0,13.954 -11.31,25.262 -25.27,25.262 l -201.96,0.02 c -13.81,-0.739 -25.41,10.261 -25.41,24.082 v 287.628 c 0,13.96 11.31,25.26 25.26,25.26"
         style="fill:#100f0d;fill-opacity:1;fill-rule:nonzero;stroke:none"
         id="path30" /><path
         d="m 1196.75,1285.57 -377.203,0.01 c -27.867,0 -50.473,-22.57 -50.527,-50.44 l -1.172,-640.718 c -0.035,-13.953 11.254,-25.293 25.211,-25.32 l 176.554,-0.391 c 13.977,-0.031 25.321,11.301 25.321,25.269 l -0.016,473.98 c 0.035,14.18 11.732,25.56 25.912,25.19 h 175.92 c 13.95,0 25.27,11.31 25.27,25.27 v 141.89 c 0,13.95 -11.32,25.26 -25.27,25.26"
         style="fill:#100f0d;fill-opacity:1;fill-rule:nonzero;stroke:none"
         id="path32" /><path
         d="m 9735.54,723.059 148.15,-149.528 1.48,-1.359 c 10.25,-8.563 22.03,-16.371 39.4,-16.371 H 10501 c 21.1,0 36.4,15.89 36.4,37.769 v 77.219 c 0,21.191 -16,37.781 -36.4,37.781 h -601.24 c -19.79,0 -29.81,9.559 -29.81,28.418 v 77.524 l 164.65,164.648 h 289.9 c 18.6,0 32.8,2.727 46.3,16.278 l 150.3,150.312 c 11.1,11.1 16.3,23.63 16.3,39.44 v 173.74 c 0,16.28 -5.5,30.01 -16.3,40.81 l -150.3,150.3 c -11.1,11.12 -23.6,16.29 -39.4,16.29 h -397.18 c -16.28,0 -30.01,-5.47 -40.81,-16.27 L 9743.1,1399.74 c -11.25,-11.26 -16.27,-23.84 -16.27,-40.81 V 1243.1 c 0,-21.54 16.24,-37.77 37.77,-37.77 h 77.23 c 21.54,0 37.78,16.23 37.78,37.77 v 142.04 c 0,19.12 9.3,28.41 28.42,28.41 h 448.17 c 19.8,0 29.8,-9.56 29.8,-28.41 v -224.78 c 0,-19.22 -10.6,-29.8 -29.8,-29.8 h -358.53 c -16.48,0 -27.91,-4.72 -39.49,-16.32 L 9735.34,890.039 c -11.99,-10.34 -18.16,-24.309 -18.16,-41.34 v -85.5 c 0,-16.629 5.83,-29.379 18.36,-40.14"
         style="fill:#ffffff;fill-opacity:1;fill-rule:nonzero;stroke:none"
         id="path34" /><path
         d="m 8914.7,968.027 416.09,445.523 h 52.25 c 19.76,0 29.78,-9.56 29.78,-28.41 V 916.039 c 0,-13.949 -11.31,-25.258 -25.26,-25.258 l -444.44,-0.16 c -19.13,0 -28.42,9.289 -28.42,28.41 z m 15.18,-213.918 c 11.1,-11.097 23.63,-16.281 39.45,-16.281 h 415.07 c 18.86,0 28.42,-10.019 28.42,-29.777 V 593.57 c 0,-21.531 16.23,-37.769 37.76,-37.769 h 77.23 c 21.55,0 37.79,16.238 37.79,37.769 v 89.641 c 0,16 -5.46,28.609 -17.72,40.879 L 9434.2,835.711 h 93.62 c 21.18,0 37.78,15.988 37.78,36.398 v 486.821 c 0,16.03 -5.44,28.61 -17.64,40.81 l -150.32,150.32 c -11.24,11.25 -23.84,16.27 -40.81,16.27 h -57.93 c -15.54,0 -27.25,-2.72 -41.17,-16.66 l -479.6,-507.15 c -14.24,-14.25 -16.22,-28.01 -16.22,-40.75 v -56.536 c 0,-19.218 7.06,-30.214 17.65,-40.812 l 150.32,-150.313"
         style="fill:#ffffff;fill-opacity:1;fill-rule:nonzero;stroke:none"
         id="path36" /><path
         d="m 9383.04,1413.55 h -52.25 L 8914.7,968.027 v -48.996 c 0,-19.121 9.29,-28.41 28.42,-28.41 l 444.44,0.16 c 13.95,0 25.26,11.309 25.26,25.258 v 469.101 c 0,18.85 -10.02,28.41 -29.78,28.41"
         style="fill:#3d4ca8;fill-opacity:1;fill-rule:nonzero;stroke:none"
         id="path38" /><path
         d="m 10537.4,1185.19 c 0,-15.81 -5.2,-28.34 -16.3,-39.44 l -150.3,-150.312 c -13.5,-13.551 -27.7,-16.278 -46.3,-16.278 h -289.9 L 9869.95,814.512 v -77.524 c 0,-18.859 10.03,-28.418 29.8,-28.418 H 10501 c 20.4,0 36.4,-16.59 36.4,-37.781 V 593.57 c 0,-21.879 -15.3,-37.781 -36.4,-37.781 h -576.43 c -17.38,0 -29.16,7.82 -39.4,16.383 l -1.48,1.359 -148.16,149.528 c -12.52,10.761 -18.35,23.511 -18.35,40.14 v 85.5 c 0,17.031 6.17,31 18.17,41.34 l 222.83,224.201 c 11.58,11.6 23.01,16.32 39.49,16.32 h 358.53 c 19.2,0 29.8,10.58 29.8,29.8 v 224.78 c 0,18.85 -10,28.41 -29.8,28.41 h -448.17 c -19.12,0 -28.42,-9.29 -28.42,-28.41 V 1243.1 c 0,-21.53 -16.24,-37.77 -37.78,-37.77 h -77.23 c -21.53,0 -37.77,16.24 -37.77,37.77 v 115.83 c 0,16.97 5.02,29.55 16.27,40.81 l 150.31,150.32 c 10.79,10.8 24.53,16.27 40.81,16.27 h 397.18 c 15.8,0 28.3,-5.17 39.4,-16.29 l 150.3,-150.3 c 10.8,-10.8 16.3,-24.53 16.3,-40.81 z M 9565.6,872.109 c 0,-20.41 -16.6,-36.398 -37.77,-36.398 H 9434.2 L 9547.88,724.09 c 12.26,-12.27 17.72,-24.879 17.72,-40.879 V 593.57 c 0,-21.531 -16.24,-37.781 -37.79,-37.781 h -77.22 c -21.54,0 -37.77,16.25 -37.77,37.781 v 114.481 c 0,19.758 -9.56,29.777 -28.42,29.777 h -415.08 c -15.81,0 -28.34,5.184 -39.44,16.281 l -150.32,150.313 c -10.59,10.598 -17.65,21.594 -17.65,40.812 v 56.536 c 0,12.74 1.98,26.5 16.22,40.75 l 479.59,507.15 c 13.93,13.94 25.64,16.66 41.19,16.66 h 57.92 c 16.98,0 29.57,-5.02 40.81,-16.27 l 150.32,-150.32 c 12.2,-12.2 17.64,-24.78 17.64,-40.81 z M 10820.1,1919.04 8534.56,1920 c -27.91,0.01 -50.55,-22.61 -50.55,-50.53 V 617.52 c 0,-184.899 125.47,-346.231 304.68,-391.77 L 9677.29,0 10565.9,225.75 c 179.2,45.539 304.7,206.871 304.7,391.77 v 1250.99 c 0,27.9 -22.6,50.51 -50.5,50.53"
         style="fill:#3d4ca8;fill-opacity:1;fill-rule:nonzero;stroke:none"
         id="path40" /></g></g></svg>
