<?xml version="1.0"?>
<svg xmlns="http://www.w3.org/2000/svg" xmlns:xlink="http://www.w3.org/1999/xlink" version="1.1" id="Layer_1" x="0px" y="0px" width="100%" viewBox="0 0 3225 804" enable-background="new 0 0 3225 804" xml:space="preserve" style="background-color:transparent;">
<path fill="none" opacity="1.000000" stroke="none" d=" M1231.000000,805.000000   C955.637329,805.000000 680.274597,805.000000 404.468597,804.640076   C407.026978,799.813782 410.051270,795.362488 413.026581,790.878601   C428.402191,767.707153 444.293365,744.854736 458.939392,721.230591   C468.075348,706.494202 474.184479,690.140930 478.379333,672.883545   C479.006683,671.395935 479.314697,670.128540 479.609802,668.858093   C483.222656,653.306458 485.950317,637.595276 485.958618,621.601562   C486.035950,472.636902 486.004395,323.672180 486.004395,174.707504   C486.004395,172.602371 486.004395,170.497223 486.004395,167.833008   C509.744141,167.833008 532.868958,167.833008 556.458496,167.901672   C578.947754,167.924698 600.972168,167.879044 623.461121,167.900604   C636.137390,167.312485 648.486511,167.564743 660.521667,165.742599   C672.196533,163.975006 683.548889,160.076950 695.424805,157.069168   C703.397339,153.603485 711.491272,150.979630 718.459717,146.575012   C728.761230,140.063675 738.263000,132.287003 748.411133,124.907654   C753.007385,120.482094 757.403687,116.298088 761.567749,111.894493   C772.711609,100.109726 781.112610,86.539474 788.098022,71.922905   C798.839600,49.446690 803.383972,25.690561 804.000000,1.000000   C1326.696045,1.000000 1849.392090,1.000000 2372.540527,1.386126   C2368.465820,12.558062 2363.938232,23.343645 2359.411621,34.129684   C2352.996094,49.417030 2346.581299,64.704758 2339.997070,80.320862   C2337.558350,85.862015 2335.250000,91.058212 2333.025879,96.290047   C2324.873047,115.467239 2316.716553,134.643097 2308.625000,153.846222   C2304.403564,163.865372 2300.314697,173.940506 2295.998047,184.314590   C2294.976318,186.216995 2293.986328,187.737473 2293.288574,189.381989   C2281.892334,216.243164 2270.533447,243.120087 2258.993652,270.324249   C2255.197510,279.169067 2251.535156,287.666992 2247.960693,296.201660   C2244.647217,304.113434 2241.427002,312.064423 2237.996338,320.323853   C2232.606201,332.764954 2227.385742,344.880249 2221.993408,357.324402   C2216.193359,370.860077 2210.506348,384.042328 2204.959717,397.283386   C2201.812988,404.795929 2198.895752,412.404602 2195.576904,420.154968   C2186.729980,440.311218 2178.181396,460.282532 2169.409424,480.776306   C2206.104004,480.776306 2241.842773,480.776306 2277.483154,480.776306   C2285.650635,460.723846 2293.742920,440.856628 2301.909180,420.624054   C2307.716797,406.327881 2313.594238,392.453461 2319.083252,378.426910   C2320.473145,374.875458 2322.236816,373.890442 2325.948242,373.907776   C2360.092529,374.067108 2394.237549,374.001587 2428.382568,374.001617   C2457.697266,374.001617 2487.011963,374.021179 2516.326660,373.970154   C2519.111328,373.965332 2521.421631,373.974182 2522.688721,377.228729   C2527.736328,390.192444 2532.987549,403.077057 2538.219238,416.344971   C2540.513672,421.952789 2542.752441,427.206451 2544.990479,432.460388   C2548.622803,440.987427 2552.255371,449.514496 2555.933105,458.423889   C2558.836914,466.226898 2561.695312,473.647552 2564.407959,480.689636   C2601.578857,480.689636 2638.109619,480.689636 2675.563965,480.689636   C2671.900146,472.719879 2668.509521,465.344086 2665.069824,457.585938   C2659.056152,443.125427 2653.091797,429.047241 2647.060547,414.600311   C2638.940918,395.152893 2630.888184,376.074158 2622.776123,356.646820   C2617.422607,344.198181 2612.128418,332.098175 2606.773926,319.644897   C2604.476074,314.028748 2602.291748,308.742188 2599.989258,303.507751   C2595.064453,292.311218 2590.078125,281.141571 2585.065430,269.578796   C2580.988525,259.381073 2577.055420,249.526413 2572.911133,239.761353   C2569.097900,230.776932 2565.058105,221.888870 2561.055664,212.585358   C2554.698730,197.458389 2548.404053,182.704453 2542.051514,167.580994   C2537.702881,157.463013 2533.412109,147.714554 2529.058594,137.592133   C2528.229492,135.247940 2527.516113,133.255371 2526.689453,131.310867   C2519.415527,114.199089 2512.121826,97.095703 2504.775391,79.636147   C2500.145752,68.700005 2495.564209,58.122093 2491.005371,47.534401   C2484.328369,32.026661 2477.667725,16.511805 2471.000000,1.000038   C2722.628174,1.000000 2974.256592,1.000000 3225.942383,1.000000   C3225.942383,268.920715 3225.942383,536.841492 3225.942383,805.000000   C2845.637207,805.000000 2465.274658,805.000000 2084.646973,804.627075   C2102.729004,802.981628 2119.012451,796.921631 2131.474854,782.911804   C2138.816406,774.658508 2144.159180,765.175049 2146.017578,753.631958   C2147.133057,748.502625 2148.727051,743.751404 2148.864258,738.958313   C2149.208008,726.981018 2148.890625,714.984680 2148.905518,702.531860   C2148.928467,687.710083 2148.884277,673.352478 2148.905762,658.530518   C2148.971436,648.147827 2148.971436,638.229431 2148.971436,628.313110   C2138.363281,628.313110 2128.316895,628.313110 2118.159912,628.313110   C2118.159912,638.752502 2118.159912,648.873657 2118.085938,659.458618   C2118.062012,674.280273 2118.111816,688.638123 2118.089844,703.460022   C2118.011230,708.067993 2117.920410,712.213806 2118.012939,716.355530   C2118.298340,729.150696 2118.273682,741.895386 2113.010254,754.309509   C2107.067383,764.919250 2098.880615,771.925415 2087.041748,774.560486   C2073.812012,777.505188 2061.237549,776.271912 2049.845459,768.854309   C2041.943115,763.709045 2037.404907,755.669495 2034.065674,746.543884   C2033.341431,738.660950 2032.304443,731.205566 2032.083618,723.726135   C2031.722290,711.488953 2031.891846,699.236145 2031.901611,686.525757   C2031.965576,666.813965 2031.965576,647.566223 2031.965576,628.310913   C2021.033203,628.310913 2010.647827,628.310913 2000.162476,628.310913   C2000.162476,648.085266 2000.162476,667.537598 2000.087158,687.453857   C2000.008545,701.811157 1999.797852,715.708984 2000.100830,729.595703   C2000.227661,735.406982 2001.444214,741.194580 2002.092773,747.403687   C2002.344482,749.569397 2002.583740,751.344910 2003.005615,753.075989   C2009.742920,780.723938 2026.857544,797.575867 2054.953857,803.061096   C2055.732178,803.213074 2056.322266,804.331909 2057.000000,805.000000   C1974.970581,805.000000 1892.941284,805.000000 1810.645996,804.627686   C1833.821167,802.331177 1852.649536,791.614990 1868.862061,773.360657   C1862.468506,766.973022 1856.238403,760.621826 1849.766235,754.527649   C1849.258667,754.049744 1846.833496,755.055786 1845.694458,755.903015   C1842.016968,758.638489 1838.671021,761.829834 1834.934448,764.474060   C1818.861328,775.848511 1801.209839,779.230469 1782.293457,773.578613   C1767.962646,769.296814 1757.852905,759.451416 1750.056030,746.594360   C1743.890259,733.829102 1740.465332,720.941040 1742.901855,706.575684   C1743.098877,704.850403 1743.140259,703.529053 1743.373169,702.242249   C1745.265747,691.784180 1750.246582,682.713196 1756.413574,673.909424   C1774.824463,652.858459 1801.734253,648.683411 1827.120361,661.415283   C1832.854248,665.645752 1838.479980,669.489807 1843.963135,673.527100   C1845.854858,674.920044 1847.327393,676.726318 1849.508301,673.992371   C1852.969238,669.653992 1856.528809,665.394165 1860.360352,660.959595   C1862.831909,658.183594 1864.989868,655.549255 1867.988281,651.889160   C1859.833862,646.117249 1852.528564,639.515747 1844.051880,635.233398   C1824.223633,625.216492 1803.018799,622.763306 1781.115356,626.975037   C1753.064819,632.368835 1732.297607,647.533508 1719.000488,673.325989   C1713.818115,684.217224 1710.102539,695.115173 1710.091187,707.418091   C1707.704590,721.740845 1710.550781,734.979553 1715.102051,748.360229   C1717.061157,752.963867 1718.808716,757.358154 1721.153320,761.406555   C1734.084106,783.734192 1753.230957,797.590210 1778.466064,803.066650   C1779.406372,803.270630 1780.159546,804.336060 1781.000000,805.000000   C1604.970581,805.000000 1428.941284,805.000000 1252.656494,804.624756   C1258.063477,803.493530 1263.902344,803.370178 1269.350708,801.848511   C1280.252075,798.803772 1290.442993,794.161682 1297.986938,784.684509   C1303.620728,778.650269 1306.631836,771.754089 1307.916992,763.581909   C1308.278320,759.110718 1308.555176,755.054504 1308.900635,750.555908   C1307.923950,744.741760 1306.878662,739.369934 1305.784912,733.643921   C1301.737183,724.019775 1295.246338,717.154480 1285.881592,712.587524   C1278.769897,709.517944 1271.956177,706.367371 1264.863281,704.083862   C1252.508057,700.106262 1239.749512,697.289062 1227.598389,692.798950   C1217.767456,689.166138 1212.767212,684.822388 1212.898193,673.573547   C1212.559326,668.535156 1214.485596,664.932434 1217.695435,661.760315   C1226.986694,652.577576 1238.547852,653.044983 1250.029907,654.616150   C1262.493408,656.321655 1273.508789,662.064941 1283.582520,669.369141   C1286.691528,671.623352 1288.189575,670.915649 1289.933228,668.302551   C1290.473145,667.493469 1291.027344,666.693604 1291.588135,665.898682   C1295.847900,659.860474 1300.110962,653.824463 1304.495361,647.614624   C1302.845703,646.596252 1301.838013,646.068481 1300.932861,645.401794   C1273.879028,625.476074 1244.206909,620.079163 1212.466919,631.192871   C1192.993164,638.011536 1182.063843,654.713684 1181.091309,674.441895   C1181.340820,678.799011 1181.552002,682.717163 1182.011230,686.605957   C1183.620483,700.236938 1190.955688,709.849365 1203.133301,716.430481   C1221.350342,726.533020 1241.810059,728.757385 1261.123047,735.417969   C1263.176025,736.638794 1265.067749,737.536255 1266.942993,738.467163   C1272.241821,741.097656 1276.423340,744.647705 1277.242676,751.386841   C1276.839966,755.837280 1276.362671,759.898804 1275.586060,764.119446   C1269.107788,774.705505 1258.528809,776.483459 1248.067383,776.779541   C1236.938599,777.094543 1225.846191,774.888672 1215.960205,769.349182   C1207.895508,764.830200 1200.288086,759.494934 1192.325562,754.424500   C1186.412476,761.490723 1180.178223,768.940796 1173.391724,777.050903   C1178.331055,780.348328 1182.639893,783.224854 1187.093750,786.414917   C1198.442871,794.107727 1210.392700,799.662659 1223.702759,802.114258   C1226.226807,802.579163 1228.572144,804.013123 1231.000000,805.000000  M3021.996582,655.762024   C3025.700439,661.290649 3029.404053,666.819275 3033.091064,673.116516   C3040.782471,684.741943 3048.473877,696.367310 3056.227539,708.676147   C3058.641357,712.115784 3060.948486,715.636292 3063.489258,718.979248   C3070.480469,728.178528 3075.111328,738.052185 3073.039551,750.032471   C3072.875244,750.982666 3073.115723,752.002869 3073.021729,753.919128   C3073.021729,769.820557 3073.021729,785.721924 3073.021729,801.645752   C3083.977051,801.645752 3094.344727,801.645752 3104.832031,801.645752   C3104.832031,785.200195 3104.832031,769.095398 3104.963135,752.062927   C3104.973877,747.738159 3105.240967,743.394653 3104.926270,739.093750   C3104.582520,734.398193 3105.944336,730.535278 3108.662598,726.744202   C3113.020752,720.665649 3116.977295,714.299072 3121.710449,707.723999   C3130.085693,694.813110 3138.460693,681.902161 3147.137939,668.357727   C3155.983887,655.267761 3164.830078,642.177795 3174.415527,627.993774   C3162.324951,627.993774 3151.897705,628.177185 3141.483887,627.882751   C3138.336670,627.793701 3136.678711,629.060547 3135.226318,631.367676   C3127.541016,643.577393 3119.851562,655.784424 3111.851318,668.631165   C3104.406006,680.164917 3096.960938,691.698730 3089.105957,703.867249   C3082.026611,692.735657 3075.431641,682.365173 3068.758545,671.312805   C3064.878662,665.530029 3060.999023,659.747314 3057.002441,653.251221   C3052.336182,645.839539 3047.767334,638.363098 3042.918701,631.072449   C3041.987549,629.672241 3039.976562,628.163513 3038.432373,628.129333   C3027.173584,627.880188 3015.906982,627.995239 3003.387939,627.995239   C3009.901367,637.516907 3015.897705,646.282532 3021.996582,655.762024  M2435.964844,683.089111   C2436.202148,673.411621 2434.513916,664.220276 2429.000977,655.253296   C2425.701416,648.887207 2420.959229,643.955933 2414.980957,639.928162   C2402.941650,631.816895 2389.419678,628.415283 2375.306396,628.135071   C2350.049072,627.633606 2324.774902,627.993835 2299.507812,627.993835   C2297.752197,627.993835 2295.996826,627.993774 2294.163574,627.993774   C2294.163574,641.102600 2294.163574,653.547058 2294.014648,666.919556   C2294.064697,681.277893 2294.114746,695.636230 2294.019287,710.922485   C2294.068115,726.611877 2294.116943,742.301270 2294.018799,758.919067   C2294.018799,773.156555 2294.018799,787.394043 2294.018799,801.652954   C2304.643311,801.652954 2314.678711,801.652954 2324.834473,801.652954   C2324.834473,786.872131 2324.834473,772.431396 2324.963623,757.064758   C2324.963623,752.135315 2324.963623,747.205933 2324.963623,741.997314   C2334.128662,741.997314 2342.631592,742.416504 2351.072021,741.868469   C2358.194092,741.406067 2364.252197,742.172668 2368.001953,749.814392   C2369.073730,751.410339 2370.102783,753.037231 2371.224854,754.597107   C2378.771484,765.088501 2386.338135,775.565796 2393.999756,786.753418   C2397.120605,791.135742 2400.190674,795.556091 2403.404053,799.869568   C2404.080078,800.777405 2405.276123,801.887146 2406.244385,801.898621   C2417.951904,802.038269 2429.661377,801.989136 2442.249023,801.989136   C2437.710693,795.780396 2433.770508,790.389587 2429.750488,784.324219   C2428.141602,782.099731 2426.545166,779.866028 2424.921387,777.652344   C2417.660645,767.753418 2410.392090,757.860229 2402.999268,747.260437   C2400.628906,743.805725 2398.258545,740.351074 2395.734619,736.672424   C2398.315186,735.683777 2400.598633,734.933960 2402.777344,733.952393   C2411.952148,729.818665 2420.679443,725.074280 2426.733398,715.753784   C2433.428711,706.215759 2436.705566,695.698608 2435.964844,683.089111  M2608.959473,741.059204   C2608.917236,721.369873 2608.875000,701.680481 2608.964355,681.063110   C2608.964355,663.482056 2608.964355,645.900940 2608.964355,628.313110   C2598.365967,628.313110 2588.314453,628.313110 2578.167236,628.313110   C2578.167236,646.420349 2578.167236,664.205750 2578.017578,682.918945   C2578.067871,702.608337 2578.118164,722.297668 2578.018555,742.915527   C2578.018555,762.482788 2578.018555,782.049988 2578.018555,801.643311   C2588.642578,801.643311 2598.680176,801.643311 2608.831543,801.643311   C2608.831543,781.528870 2608.831543,761.757935 2608.959473,741.059204  M2801.015381,737.917480   C2801.015381,759.150146 2801.015381,780.382812 2801.015381,801.642883   C2811.642334,801.642883 2821.680420,801.642883 2831.835205,801.642883   C2831.835205,779.862488 2831.835205,758.426025 2831.962158,736.061157   C2831.919189,716.037170 2831.876221,696.013245 2831.963867,675.061951   C2831.963867,669.132690 2831.963867,663.203369 2831.963867,656.791138   C2850.676514,656.791138 2868.730957,656.791138 2886.614502,656.791138   C2886.614502,646.899414 2886.614502,637.509033 2886.614502,628.218262   C2839.637695,628.218262 2793.051758,628.218262 2746.265137,628.218262   C2746.265137,637.830383 2746.265137,647.216980 2746.265137,657.099854   C2764.583252,657.099854 2782.638184,657.099854 2801.166748,657.099854   C2801.166748,663.724915 2801.166748,669.857178 2801.015869,676.917542   C2801.065430,696.941528 2801.114990,716.965515 2801.015381,737.917480  M2937.184570,304.667175   C2951.506104,326.589355 2965.804932,348.526367 2980.170654,370.419556   C2982.592529,374.110596 2985.396240,373.991455 2987.916504,370.165283   C2995.660156,358.408630 3003.338135,346.608826 3011.035645,334.821716   C3017.734863,324.562836 3024.425781,314.298309 3031.736084,303.736053   C3037.103027,295.489166 3042.469971,287.242279 3048.155518,278.373688   C3053.122070,270.616730 3058.088379,262.859772 3063.675781,254.794220   C3064.533691,253.603409 3065.443604,252.446381 3066.241455,251.216507   C3072.541260,241.503311 3078.819824,231.776215 3085.723389,221.752609   C3096.559082,205.350616 3107.395020,188.948639 3118.994385,171.390717   C3118.994385,174.643799 3118.991943,176.420227 3118.994873,178.196655   C3119.051514,214.125076 3119.108398,250.053513 3119.018066,286.911774   C3119.066895,329.270111 3119.115723,371.628479 3119.024658,414.917084   C3119.024658,436.812469 3119.024658,458.707855 3119.024658,480.639038   C3154.325439,480.639038 3188.989990,480.639038 3223.835449,480.639038   C3223.835449,458.185974 3223.835449,436.086395 3223.955566,413.058228   C3223.970215,395.448669 3224.013428,377.839081 3223.993408,360.229553   C3223.965088,335.480316 3223.889893,310.731110 3223.951904,285.053650   C3223.966553,266.613708 3224.009033,248.173706 3223.989258,229.733780   C3223.962402,204.486359 3223.887939,179.238968 3223.960205,153.062851   C3223.918457,127.039406 3223.876709,101.015953 3223.964355,74.064034   C3223.964355,50.812550 3223.964355,27.561064 3223.964355,4.474310   C3223.057617,4.218128 3222.749268,4.054933 3222.440918,4.054697   C3185.961670,4.026664 3149.481934,3.961394 3113.003662,4.145626   C3111.254150,4.154462 3108.922119,5.988328 3107.868408,7.621912   C3101.058838,18.177547 3094.509521,28.901674 3087.913330,39.594280   C3080.642334,51.380375 3073.412842,63.191940 3065.847656,75.618805   C3065.233398,76.389030 3064.533447,77.106140 3064.017822,77.937408   C3054.644043,93.050232 3045.266602,108.160713 3035.946045,123.306084   C3029.882080,133.159561 3023.907227,143.067825 3017.265137,153.242432   C3008.846680,166.806473 3000.285645,180.284698 2992.055420,193.962204   C2985.690186,204.539932 2985.874512,204.650803 2978.997070,194.238205   C2971.609131,182.490402 2964.221191,170.742584 2956.736084,158.309616   C2948.482910,145.032227 2940.250732,131.741928 2931.970947,118.481239   C2923.950439,105.635384 2915.881104,92.820015 2907.737305,79.306976   C2906.836670,77.948174 2905.897949,76.613014 2905.041260,75.227066   C2891.333984,53.056656 2877.618896,30.891006 2863.957764,8.692137   C2861.938232,5.410336 2859.647461,3.825160 2855.346924,3.856092   C2821.073486,4.102619 2786.797852,3.993606 2752.522705,3.993608   C2750.766846,3.993608 2749.011230,3.993608 2747.166504,3.993608   C2747.166504,29.787937 2747.166504,54.889603 2747.020264,80.919472   C2747.068848,106.943802 2747.117676,132.968140 2747.025146,159.921509   C2747.072266,184.944687 2747.119385,209.967850 2747.025391,235.920471   C2747.072266,265.609772 2747.119385,295.299103 2747.023682,325.917419   C2747.070801,358.274536 2747.117920,390.631683 2747.026123,423.918884   C2747.026123,442.816315 2747.026123,461.713745 2747.026123,480.643860   C2781.993408,480.643860 2816.321777,480.643860 2850.834961,480.643860   C2850.834961,461.191559 2850.834961,442.090149 2850.955811,422.059967   C2850.915039,389.702789 2850.874268,357.345612 2850.954834,324.059540   C2850.914307,294.370026 2850.874023,264.680542 2850.960693,234.062668   C2850.960693,214.576309 2850.960693,195.089935 2850.960693,174.504730   C2856.456787,182.436676 2861.168457,189.236771 2865.997803,196.746231   C2871.630371,205.182037 2877.262695,213.617844 2883.195557,222.689346   C2890.446045,233.494507 2897.696777,244.299667 2905.011475,255.811218   C2910.062012,263.539276 2915.112549,271.267365 2920.254639,279.669678   C2925.795898,287.791443 2931.337158,295.913208 2937.184570,304.667175  M775.289673,252.224884   C772.678223,255.167221 770.101929,258.141663 767.448669,261.045807   C760.015747,269.181458 752.484619,277.228699 745.142273,285.444885   C743.122925,287.704529 741.630371,290.434845 739.283447,293.230804   C738.465332,294.058411 737.544067,294.807343 736.844360,295.725159   C722.048645,315.131866 709.286621,335.771942 699.018860,358.741333   C688.078796,382.279510 680.289673,406.804932 675.986877,432.415802   C674.666809,440.272919 673.437439,448.145294 672.034363,456.922485   C671.692505,461.520569 671.099121,466.115997 671.051147,470.717133   C670.809875,493.853790 670.193115,517.062927 675.076721,539.856079   C678.714905,556.836731 681.845886,574.104004 687.573120,590.411072   C693.795410,608.127380 702.205627,625.159302 710.665100,641.985229   C721.963562,664.458313 737.241333,684.351196 754.362732,702.650085   C766.612671,715.742432 779.915222,727.854431 792.846252,740.301880   C796.090759,743.424988 799.712524,746.156067 804.011230,749.785156   C804.011230,746.995789 804.011475,745.246887 804.011230,743.497986   C804.007935,719.331360 804.024658,695.164795 803.996155,670.998169   C803.962341,642.334778 803.889465,613.671448 803.982361,584.080078   C803.932251,542.389099 803.882080,500.698151 803.977966,458.078918   C803.929504,423.720795 803.881104,389.362640 803.976013,354.076202   C803.927917,328.718231 803.879761,303.360260 803.972107,277.073914   C803.972107,258.765717 803.972107,240.457550 803.972107,222.149353   C803.499573,221.996490 803.027039,221.843613 802.554443,221.690735   C793.668884,231.776901 784.783325,241.863083 775.289673,252.224884  M1478.960693,756.060913   C1478.960693,747.131836 1478.960693,738.202759 1478.960693,728.760620   C1508.376831,728.760620 1537.099487,728.760620 1565.752930,728.760620   C1565.752930,718.961365 1565.752930,709.690857 1565.752930,699.907471   C1536.774536,699.907471 1508.047119,699.907471 1478.832397,699.907471   C1478.832397,696.257996 1478.832397,693.121582 1478.960693,689.057617   C1478.960693,678.138000 1478.960693,667.218384 1478.960693,655.843018   C1511.975464,655.843018 1544.338989,655.843018 1576.665771,655.843018   C1576.665771,646.321777 1576.665771,637.270264 1576.665771,628.315796   C1533.635498,628.315796 1490.948853,628.315796 1448.167603,628.315796   C1448.167603,649.088745 1448.167603,669.536987 1448.014893,690.913696   C1448.065674,712.938782 1448.116577,734.963867 1448.018921,757.917419   C1448.018921,772.509033 1448.018921,787.100647 1448.018921,801.615845   C1491.702759,801.615845 1534.741943,801.615845 1577.745117,801.615845   C1577.745117,792.302734 1577.745117,783.369873 1577.745117,773.911011   C1544.777222,773.911011 1512.063110,773.911011 1478.832642,773.911011   C1478.832642,767.919312 1478.832642,762.454041 1478.960693,756.060913  M1878.719971,443.330139   C1867.424561,426.885162 1856.129150,410.440216 1844.726074,393.332092   C1839.396973,385.686157 1834.054810,378.049408 1828.742065,370.392120   C1819.975830,357.757599 1811.228638,345.109833 1802.176147,331.851318   C1797.461914,324.845184 1792.747559,317.839020 1788.710815,311.839722   C1802.493774,303.967377 1816.177612,296.151703 1830.381104,288.023743   C1842.316528,278.772522 1853.304321,268.590668 1862.152710,255.372574   C1867.427246,245.822540 1873.638306,236.652267 1877.708862,226.613983   C1881.651367,216.891388 1883.392456,206.276108 1886.766357,195.566864   C1887.508911,189.221695 1888.758789,182.887466 1888.895752,176.529221   C1889.258423,159.711197 1889.851929,142.785583 1885.890137,126.276306   C1883.434937,116.045944 1879.888916,106.077400 1876.938843,95.260315   C1864.271362,65.279755 1843.125366,42.961952 1814.801392,27.425312   C1784.843628,10.992371 1752.077148,4.554110 1718.454468,4.218478   C1644.841919,3.483653 1571.217041,3.990952 1497.597168,3.990952   C1495.832764,3.990952 1494.068237,3.990952 1492.167114,3.990952   C1492.167114,35.085701 1492.167114,65.537155 1492.020386,96.917366   C1492.069336,129.608490 1492.118164,162.299606 1492.024536,195.919861   C1492.071655,215.945206 1492.118896,235.970535 1492.029541,256.925201   C1492.075073,267.282501 1492.120605,277.639801 1492.030396,288.925934   C1492.075317,304.947601 1492.120361,320.969238 1492.025757,337.920502   C1492.071533,363.943665 1492.117188,389.966797 1492.026245,416.920135   C1492.026245,438.148529 1492.026245,459.376923 1492.026245,480.640137   C1527.326050,480.640137 1561.989136,480.640137 1596.837036,480.640137   C1596.837036,458.855225 1596.837036,437.422577 1596.959229,415.061157   C1596.917725,389.037750 1596.876221,363.014313 1596.958130,336.084930   C1596.958130,333.488129 1596.958130,330.891327 1596.958130,327.993896   C1599.495239,327.993896 1601.304565,327.993896 1603.113892,327.993896   C1625.444702,327.993896 1647.778198,328.178589 1670.104614,327.862488   C1675.607788,327.784607 1679.823364,328.619263 1682.255371,334.665741   C1689.521851,345.513824 1696.701782,356.421234 1704.081177,367.191956   C1710.340454,376.327942 1716.830200,385.306030 1723.229492,395.102722   C1726.514404,400.180237 1729.707397,405.320007 1733.102417,410.322754   C1740.982422,421.934265 1748.959961,433.479584 1757.003418,445.757843   C1764.070679,456.416626 1771.257935,466.999176 1778.120239,477.788361   C1779.817749,480.457153 1781.680786,481.055878 1784.574463,481.049713   C1822.549561,480.968658 1860.524658,480.999023 1898.499878,480.982880   C1899.917114,480.982269 1901.334351,480.792908 1904.180664,480.589264   C1895.334717,467.819031 1887.084106,455.908234 1878.719971,443.330139  M1162.025879,394.917908   C1162.025879,423.475342 1162.025879,452.032776 1162.025879,480.631775   C1197.656372,480.631775 1232.659058,480.631775 1267.834229,480.631775   C1267.834229,451.511932 1267.834229,422.749847 1267.955322,393.059143   C1267.914795,358.034485 1267.874390,323.009796 1267.954590,287.056854   C1267.972290,254.814865 1268.011597,222.572861 1267.998291,190.330887   C1267.991455,173.881683 1267.890259,157.432526 1267.951782,140.055176   C1267.951782,127.465225 1267.951782,114.875275 1267.951782,101.769897   C1316.357544,101.769897 1364.060913,101.769897 1411.772949,101.769897   C1411.772949,68.987259 1411.772949,36.731216 1411.772949,4.386199   C1280.074341,4.386199 1148.615845,4.386199 1017.268433,4.386199   C1017.268433,37.042000 1017.268433,69.298340 1017.268433,102.078430   C1065.583374,102.078430 1113.619995,102.078430 1162.168335,102.078430   C1162.168335,115.395264 1162.168335,128.189346 1162.016357,141.912201   C1162.008423,158.198730 1161.976685,174.485306 1161.997314,190.771805   C1162.038330,223.176285 1162.108154,255.580734 1162.021240,288.914886   C1162.069336,323.939209 1162.117554,358.963531 1162.025879,394.917908  M2092.952148,368.056641   C2092.968018,348.951630 2093.012451,329.846558 2092.992432,310.741577   C2092.967529,286.822571 2092.889404,262.903625 2092.954102,238.056335   C2092.969238,213.465103 2093.011230,188.873840 2092.992188,164.282623   C2092.975586,143.184647 2092.888916,122.086739 2092.956787,100.060104   C2092.956787,68.153099 2092.956787,36.246094 2092.956787,4.321437   C2057.360596,4.321437 2022.327271,4.321437 1987.167358,4.321437   C1987.167358,36.763908 1987.167358,68.876312 1987.018433,101.916847   C1987.009521,111.221275 1986.982300,120.525734 1986.995239,129.830139   C1987.045410,166.214981 1987.108154,202.599838 1987.019287,239.914139   C1987.068481,282.937836 1987.117676,325.961548 1987.023560,369.915131   C1987.023560,406.801910 1987.023560,443.688690 1987.023560,480.622559   C2022.654053,480.622559 2057.661377,480.622559 2092.833252,480.622559   C2092.833252,443.168549 2092.833252,406.076843 2092.952148,368.056641  z"/>
<path fill="none" opacity="1.000000" stroke="none" d=" M0.999999,222.000000   C1.000000,152.645767 1.000000,83.291542 1.375352,13.670246   C2.163550,17.311321 2.578271,21.219269 2.988920,25.127644   C4.793160,42.299599 10.217507,58.433350 17.517733,73.931541   C24.653170,89.079880 34.394638,102.570381 45.584164,114.966049   C48.949642,118.694305 53.103317,121.711052 57.037193,125.361160   C66.451759,132.390335 75.725052,139.112106 85.319756,145.993927   C97.708534,151.239273 109.526962,157.080841 121.924927,161.161743   C131.228470,164.224091 141.277161,165.022690 151.440308,166.900055   C164.923431,167.258606 177.960342,167.546234 191.461456,167.903168   C210.616333,167.926270 229.306992,167.880066 248.461884,167.902954   C269.616302,167.925964 290.306488,167.879913 311.444519,167.902740   C314.152710,167.971649 316.413025,167.971649 318.997131,167.971649   C318.997131,170.630768 318.997131,172.607727 318.997131,174.584671   C318.997131,318.063843 318.909271,461.543121 319.127960,605.021973   C319.150757,619.995239 320.420990,635.030518 322.122833,649.921631   C324.420105,670.022583 330.727753,689.117188 339.184601,707.468323   C346.901154,724.212952 356.824432,739.617859 367.714081,754.469055   C375.044495,764.466187 381.854248,774.845093 388.947266,785.405518   C393.331696,792.171936 397.665833,798.585999 402.000000,805.000000   C268.333313,805.000000 134.666641,805.000000 1.000000,805.000000   C1.000000,786.568848 1.000000,768.253052 1.354186,749.466919   C2.272011,748.699036 2.933558,748.507080 3.384907,748.088501   C13.078137,739.098633 23.127104,730.451843 32.327648,720.981323   C44.276672,708.681702 55.547226,695.723022 67.414246,682.893066   C67.884758,682.274780 67.937057,681.716431 68.233261,681.361816   C80.594917,666.559875 90.993324,650.355835 99.183945,633.033630   C107.332993,615.799377 113.689880,597.717712 120.917961,579.619019   C122.906624,572.030334 125.395050,564.926147 126.595673,557.610718   C129.393204,540.565247 132.153336,523.473633 133.793976,506.292389   C134.878693,494.932831 134.223801,483.378876 133.896896,471.924835   C133.735519,466.270233 132.553619,460.644745 131.905212,454.566040   C131.980667,452.627686 132.247040,451.074646 131.947754,449.639587   C128.725174,434.187439 125.911179,418.627167 122.019463,403.342407   C114.597328,374.191895 101.970375,347.229126 86.190315,321.676331   C70.017242,295.487152 48.904106,273.365295 28.319464,250.789276   C20.550440,242.268646 13.052789,233.500946 5.324171,224.942734   C4.188802,223.685471 2.456246,222.967499 0.999999,222.000000  z"/>
<path fill="#4C8ECB" opacity="1.000000" stroke="none" d=" M402.333313,805.000000   C397.665833,798.585999 393.331696,792.171936 389.261963,785.119873   C389.684235,782.344971 389.980225,780.208130 389.980408,778.071289   C390.001099,519.047546 390.000000,260.023773 390.000000,1.000000   C418.687561,1.000000 447.375122,1.000000 476.531342,1.468657   C477.000000,223.058701 476.996399,444.180084 477.043671,665.301453   C477.044250,667.901794 477.702637,670.502014 478.053955,673.102295   C474.184479,690.140930 468.075348,706.494202 458.939392,721.230591   C444.293365,744.854736 428.402191,767.707153 413.026581,790.878601   C410.051270,795.362488 407.026978,799.813782 404.012634,804.640076   C403.555542,805.000000 403.111115,805.000000 402.333313,805.000000  z"/>
<path fill="#4989C8" opacity="1.000000" stroke="none" d=" M389.531342,1.000000   C390.000000,260.023773 390.001099,519.047546 389.980408,778.071289   C389.980225,780.208130 389.684235,782.344971 389.211639,784.767456   C381.854248,774.845093 375.044495,764.466187 367.714081,754.469055   C356.824432,739.617859 346.901154,724.212952 339.184601,707.468323   C330.727753,689.117188 324.420105,670.022583 322.122833,649.921631   C320.420990,635.030518 319.150757,619.995239 319.127960,605.021973   C318.909271,461.543121 318.997131,318.063843 318.997131,174.584671   C318.997131,172.607727 318.997131,170.630768 318.997131,167.971649   C316.413025,167.971649 314.152710,167.971649 311.445618,167.445557   C310.999207,111.612976 310.999603,56.306488 311.000000,1.000000   C337.020905,1.000000 363.041779,1.000000 389.531342,1.000000  z"/>
<path fill="#4F94CF" opacity="1.000000" stroke="none" d=" M478.379303,672.883545   C477.702637,670.502014 477.044250,667.901794 477.043671,665.301453   C476.996399,444.180084 477.000000,223.058701 477.000000,1.468657   C503.020905,1.000000 529.041809,1.000000 555.531372,1.468657   C555.997925,57.235878 555.995850,112.534447 555.993774,167.833008   C532.868958,167.833008 509.744141,167.833008 486.004395,167.833008   C486.004395,170.497223 486.004395,172.602371 486.004395,174.707504   C486.004395,323.672180 486.035950,472.636902 485.958618,621.601562   C485.950317,637.595276 483.222656,653.306458 479.609802,668.858093   C479.314697,670.128540 479.006683,671.395935 478.379303,672.883545  z"/>
<path fill="#E17330" opacity="1.000000" stroke="none" d=" M131.833496,455.006104   C132.553619,460.644745 133.735519,466.270233 133.896896,471.924835   C134.223801,483.378876 134.878693,494.932831 133.793976,506.292389   C132.153336,523.473633 129.393204,540.565247 126.595673,557.610718   C125.395050,564.926147 122.906624,572.030334 120.585281,579.575012   C118.652405,578.653992 117.029556,577.496521 115.638512,576.106995   C79.460442,539.968872 43.322746,503.790283 7.095488,467.701599   C5.458720,466.071136 3.049456,465.216187 1.000001,464.000000   C1.000000,418.979095 1.000000,373.958221 1.365248,328.472717   C3.590889,329.276031 5.707788,330.286835 7.274176,331.849457   C47.132553,371.612549 86.926170,411.440491 126.772026,451.216125   C128.248779,452.690247 130.137024,453.752136 131.833496,455.006104  z"/>
<path fill="#D8652C" opacity="1.000000" stroke="none" d=" M1.000001,464.468658   C3.049456,465.216187 5.458720,466.071136 7.095488,467.701599   C43.322746,503.790283 79.460442,539.968872 115.638512,576.106995   C117.029556,577.496521 118.652405,578.653992 120.499939,579.963623   C113.689880,597.717712 107.332993,615.799377 99.183945,633.033630   C90.993324,650.355835 80.594917,666.559875 68.233261,681.361816   C67.937057,681.716431 67.884758,682.274780 67.105247,682.749878   C46.371525,662.717957 26.266617,642.658752 6.099180,622.662598   C4.631653,621.207520 2.710342,620.210144 1.000006,619.000000   C1.000000,567.645752 1.000000,516.291565 1.000001,464.468658  z"/>
<path fill="#549DD5" opacity="1.000000" stroke="none" d=" M695.042847,157.114517   C683.548889,160.076950 672.196533,163.975006 660.521667,165.742599   C648.486511,167.564743 636.137390,167.312485 623.462280,167.443878   C622.999329,111.613281 622.999695,56.306641 623.000000,1.000000   C646.687561,1.000000 670.375122,1.000000 694.531372,1.468657   C695.014282,53.663048 695.028564,105.388786 695.042847,157.114517  z"/>
<path fill="#E87D33" opacity="1.000000" stroke="none" d=" M131.905212,454.566040   C130.137024,453.752136 128.248779,452.690247 126.772026,451.216125   C86.926170,411.440491 47.132553,371.612549 7.274176,331.849457   C5.707788,330.286835 3.590889,329.276031 1.365248,328.004028   C1.000000,292.979095 1.000000,257.958221 0.999999,222.468658   C2.456246,222.967499 4.188802,223.685471 5.324171,224.942734   C13.052789,233.500946 20.550440,242.268646 28.319464,250.789276   C48.904106,273.365295 70.017242,295.487152 86.190315,321.676331   C101.970375,347.229126 114.597328,374.191895 122.019463,403.342407   C125.911179,418.627167 128.725174,434.187439 131.947754,449.639587   C132.247040,451.074646 131.980667,452.627686 131.905212,454.566040  z"/>
<path fill="#5299D3" opacity="1.000000" stroke="none" d=" M622.531372,1.000000   C622.999695,56.306641 622.999329,111.613281 622.997803,167.376648   C600.972168,167.879044 578.947754,167.924698 556.458496,167.901672   C555.995850,112.534447 555.997925,57.235878 556.000000,1.468657   C578.020874,1.000000 600.041809,1.000000 622.531372,1.000000  z"/>
<path fill="#4785C5" opacity="1.000000" stroke="none" d=" M310.531342,1.000000   C310.999603,56.306488 310.999207,111.612976 310.997742,167.376648   C290.306488,167.879913 269.616302,167.925964 248.462646,167.445709   C247.999451,111.612915 247.999725,56.306458 248.000000,1.000000   C268.687561,1.000000 289.375122,1.000000 310.531342,1.000000  z"/>
<path fill="#3D78BC" opacity="1.000000" stroke="none" d=" M2340.166260,79.992302   C2346.581299,64.704758 2352.996094,49.417030 2359.411621,34.129684   C2363.938232,23.343645 2368.465820,12.558062 2372.996582,1.386126   C2405.354248,1.000000 2437.708252,1.000000 2470.531250,1.000038   C2477.667725,16.511805 2484.328369,32.026661 2491.005371,47.534401   C2495.564209,58.122093 2500.145752,68.700005 2504.317871,79.639435   C2449.334717,79.995064 2394.750488,79.993683 2340.166260,79.992302  z"/>
<path fill="#407ABE" opacity="1.000000" stroke="none" d=" M150.994110,166.829132   C141.277161,165.022690 131.228470,164.224091 121.924927,161.161743   C109.526962,157.080841 97.708534,151.239273 85.332397,145.582123   C85.349083,142.230301 85.954575,139.450714 85.958206,136.670349   C86.017220,91.446960 86.000000,46.223469 86.000000,1.000000   C107.354225,1.000000 128.708450,1.000000 150.531128,1.468657   C150.997742,56.901253 150.995926,111.865196 150.994110,166.829132  z"/>
<path fill="#4681C3" opacity="1.000000" stroke="none" d=" M247.531342,1.000000   C247.999725,56.306458 247.999451,111.612915 247.998413,167.376617   C229.306992,167.880066 210.616333,167.926270 191.462341,167.445862   C190.999329,111.612846 190.999664,56.306423 191.000000,1.000000   C209.687561,1.000000 228.375122,1.000000 247.531342,1.000000  z"/>
<path fill="#56A1D8" opacity="1.000000" stroke="none" d=" M695.424805,157.069168   C695.028564,105.388786 695.014282,53.663048 695.000000,1.468657   C712.020874,1.000000 729.041809,1.000000 746.531372,1.468657   C747.000000,41.097244 746.984741,80.257195 747.046997,119.417015   C747.049988,121.294930 747.736938,123.171768 748.105347,125.049103   C738.263000,132.287003 728.761230,140.063675 718.459717,146.575012   C711.491272,150.979630 703.397339,153.603485 695.424805,157.069168  z"/>
<path fill="#447EC0" opacity="1.000000" stroke="none" d=" M190.531342,1.000000   C190.999664,56.306423 190.999329,111.612846 190.998123,167.376556   C177.960342,167.546234 164.923431,167.258606 151.440308,166.900055   C150.995926,111.865196 150.997742,56.901253 150.999786,1.468657   C164.020889,1.000000 177.041794,1.000000 190.531342,1.000000  z"/>
<path fill="#3C76BB" opacity="1.000000" stroke="none" d=" M56.895924,125.053749   C53.103317,121.711052 48.949642,118.694305 45.584164,114.966049   C34.394638,102.570381 24.653170,89.079880 17.517733,73.931541   C10.217507,58.433350 4.793160,42.299599 2.988920,25.127644   C2.578271,21.219269 2.163550,17.311321 1.375352,13.201590   C1.000000,9.025537 1.000000,5.051074 1.000000,1.000000   C19.687500,1.000000 38.375092,1.000000 57.531342,1.468657   C58.000000,41.098011 58.015263,80.258728 57.953114,119.419327   C57.950134,121.298019 57.263950,123.175636 56.895924,125.053749  z"/>
<path fill="#59A5DB" opacity="1.000000" stroke="none" d=" M748.411194,124.907669   C747.736938,123.171768 747.049988,121.294930 747.046997,119.417015   C746.984741,80.257195 747.000000,41.097244 747.000000,1.468657   C765.687561,1.000000 784.375122,1.000000 803.531372,1.000000   C803.383972,25.690561 798.839600,49.446690 788.098022,71.922905   C781.112610,86.539474 772.711609,100.109726 761.567749,111.894493   C757.403687,116.298088 753.007385,120.482094 748.411194,124.907669  z"/>
<path fill="#E67932" opacity="1.000000" stroke="none" d=" M2145.832764,753.990906   C2144.159180,765.175049 2138.816406,774.658508 2131.474854,782.911804   C2119.012451,796.921631 2102.729004,802.981628 2084.190918,804.627075   C2075.312500,805.000000 2066.625000,805.000000 2057.468750,805.000000   C2056.322266,804.331909 2055.732178,803.213074 2054.953857,803.061096   C2026.857544,797.575867 2009.742920,780.723938 2003.005615,753.075989   C2002.583740,751.344910 2002.344482,749.569397 2002.550293,747.406189   C2013.426758,746.985474 2023.773071,746.973022 2034.119507,746.960632   C2037.404907,755.669495 2041.943115,763.709045 2049.845459,768.854309   C2061.237549,776.271912 2073.812012,777.505188 2087.041748,774.560486   C2098.880615,771.925415 2107.067383,764.919250 2113.467529,754.311890   C2124.665771,753.994934 2135.249268,753.992920 2145.832764,753.990906  z"/>
<path fill="#E67932" opacity="1.000000" stroke="none" d=" M1750.118042,746.960327   C1757.852905,759.451416 1767.962646,769.296814 1782.293457,773.578613   C1801.209839,779.230469 1818.861328,775.848511 1834.934448,764.474060   C1838.671021,761.829834 1842.016968,758.638489 1845.694458,755.903015   C1846.833496,755.055786 1849.258667,754.049744 1849.766235,754.527649   C1856.238403,760.621826 1862.468506,766.973022 1868.862061,773.360657   C1852.649536,791.614990 1833.821167,802.331177 1810.189941,804.627686   C1800.645752,805.000000 1791.291504,805.000000 1781.468628,805.000000   C1780.159546,804.336060 1779.406372,803.270630 1778.466064,803.066650   C1753.230957,797.590210 1734.084106,783.734192 1721.153320,761.406555   C1718.808716,757.358154 1717.061157,752.963867 1715.559570,748.363159   C1718.888794,747.998108 1721.699219,748.083679 1724.503052,747.984192   C1733.042725,747.681213 1741.579956,747.306885 1750.118042,746.960327  z"/>
<path fill="#D15929" opacity="1.000000" stroke="none" d=" M1.000006,619.468628   C2.710342,620.210144 4.631653,621.207520 6.099180,622.662598   C26.266617,642.658752 46.371525,662.717957 66.800797,682.904846   C55.547226,695.723022 44.276672,708.681702 32.327648,720.981323   C23.127104,730.451843 13.078137,739.098633 3.384907,748.088501   C2.933558,748.507080 2.272011,748.699036 1.354186,748.998291   C1.000000,705.979126 1.000000,662.958191 1.000006,619.468628  z"/>
<path fill="#3D78BC" opacity="1.000000" stroke="none" d=" M57.037193,125.361160   C57.263950,123.175636 57.950134,121.298019 57.953114,119.419327   C58.015263,80.258728 58.000000,41.098011 58.000000,1.468657   C67.020897,1.000000 76.041786,1.000000 85.531342,1.000000   C86.000000,46.223469 86.017220,91.446960 85.958206,136.670349   C85.954575,139.450714 85.349083,142.230301 85.010986,145.422058   C75.725052,139.112106 66.451759,132.390335 57.037193,125.361160  z"/>
<path fill="#E87D33" opacity="1.000000" stroke="none" d=" M1231.468506,805.000000   C1228.572144,804.013123 1226.226807,802.579163 1223.702759,802.114258   C1210.392700,799.662659 1198.442871,794.107727 1187.379150,786.100525   C1189.322754,785.315125 1191.125732,785.021606 1192.928955,785.020142   C1227.896729,784.991760 1262.864624,784.997620 1297.832397,784.996399   C1290.442993,794.161682 1280.252075,798.803772 1269.350708,801.848511   C1263.902344,803.370178 1258.063477,803.493530 1252.200684,804.624756   C1245.312378,805.000000 1238.624634,805.000000 1231.468506,805.000000  z"/>
<path fill="#407ABE" opacity="1.000000" stroke="none" d=" M1162.168335,140.983429   C1162.168335,128.189346 1162.168335,115.395264 1162.168335,102.078430   C1113.619995,102.078430 1065.583374,102.078430 1017.268433,102.078430   C1017.268433,69.298340 1017.268433,37.042000 1017.268433,4.386199   C1148.615845,4.386199 1280.074341,4.386199 1411.772949,4.386199   C1411.772949,36.731216 1411.772949,68.987259 1411.772949,101.769897   C1364.060913,101.769897 1316.357544,101.769897 1267.951782,101.769897   C1267.951782,114.875275 1267.951782,127.465225 1267.434570,140.524551   C1232.000977,140.990433 1197.084717,140.986938 1162.168335,140.983429  z"/>
<path fill="#3E79BD" opacity="1.000000" stroke="none" d=" M1492.167114,95.988609   C1492.167114,65.537155 1492.167114,35.085701 1492.167114,3.990952   C1494.068237,3.990952 1495.832764,3.990952 1497.597168,3.990952   C1571.217041,3.990952 1644.841919,3.483653 1718.454468,4.218478   C1752.077148,4.554110 1784.843628,10.992371 1814.801392,27.425312   C1843.125366,42.961952 1864.271362,65.279755 1876.428345,95.628616   C1748.000977,95.994148 1620.083984,95.991379 1492.167114,95.988609  z"/>
<path fill="#4988C8" opacity="1.000000" stroke="none" d=" M2882.895020,222.053650   C2877.262695,213.617844 2871.630371,205.182037 2866.416260,196.380188   C2901.990967,196.009430 2937.146973,196.024124 2972.303223,195.955048   C2974.571289,195.950592 2976.838135,195.300461 2979.105713,194.950714   C2985.874512,204.650803 2985.690186,204.539932 2992.055420,193.962204   C3000.285645,180.284698 3008.846680,166.806473 3017.970215,153.265961   C3020.464844,153.526321 3022.254395,153.969345 3024.044189,153.970215   C3090.640869,154.002716 3157.237305,153.994370 3223.833984,153.991562   C3223.887939,179.238968 3223.962402,204.486359 3223.989258,229.733780   C3224.009033,248.173706 3223.966553,266.613708 3223.436035,285.523712   C3188.335449,285.989838 3153.750244,285.985901 3119.165283,285.981934   C3119.108398,250.053513 3119.051514,214.125076 3118.994873,178.196655   C3118.991943,176.420227 3118.994385,174.643799 3118.994385,171.390717   C3107.395020,188.948639 3096.559082,205.350616 3085.023438,221.732513   C3082.534668,221.474945 3080.745361,221.030869 3078.956299,221.029861   C3015.700928,220.994141 2952.445312,220.989883 2889.189941,221.044312   C2887.091309,221.046127 2884.993408,221.702438 2882.895020,222.053650  z"/>
<path fill="#4683C4" opacity="1.000000" stroke="none" d=" M1492.093750,96.452988   C1620.083984,95.991379 1748.000977,95.994148 1876.375244,95.994118   C1879.888916,106.077400 1883.434937,116.045944 1885.890137,126.276306   C1889.851929,142.785583 1889.258423,159.711197 1888.895752,176.529221   C1888.758789,182.887466 1887.508911,189.221695 1886.043213,195.638947   C1883.366089,195.474030 1881.412231,195.032852 1879.458008,195.030334   C1845.361084,194.986465 1811.264282,194.996384 1777.236450,194.628983   C1783.000488,180.408295 1783.197632,165.997299 1780.849487,151.566360   C1779.340698,142.294891 1775.622681,133.565475 1769.627197,126.239067   C1754.700317,107.998817 1734.153564,100.802521 1711.682617,100.250931   C1675.374878,99.359703 1639.029297,100.011253 1602.699707,100.011253   C1600.927490,100.011253 1599.155151,100.011253 1597.010620,100.011253   C1597.010620,102.575020 1597.014038,104.542618 1597.010132,106.510201   C1596.951660,136.004120 1596.892090,165.498047 1596.374756,194.994598   C1561.333374,194.995071 1526.750244,194.992905 1492.167114,194.990723   C1492.118164,162.299606 1492.069336,129.608490 1492.093750,96.452988  z"/>
<path fill="#D15B2A" opacity="1.000000" stroke="none" d=" M803.833496,585.008057   C803.889465,613.671448 803.962341,642.334778 803.996155,670.998169   C804.024658,695.164795 804.007935,719.331360 804.011230,743.497986   C804.011475,745.246887 804.011230,746.995789 804.011230,749.785156   C799.712524,746.156067 796.090759,743.424988 792.846252,740.301880   C779.915222,727.854431 766.612671,715.742432 754.362732,702.650085   C737.241333,684.351196 721.963562,664.458313 710.665100,641.985229   C702.205627,625.159302 693.795410,608.127380 687.573120,590.411072   C681.845886,574.104004 678.714905,556.836731 675.076721,539.856079   C670.193115,517.062927 670.809875,493.853790 671.051147,470.717133   C671.099121,466.115997 671.692505,461.520569 672.433533,456.505127   C674.346130,457.349579 675.968689,458.502136 677.357056,459.889130   C717.835938,500.328857 758.284424,540.798950 798.778625,581.223328   C800.253357,582.695557 802.139221,583.755798 803.833496,585.008057  z"/>
<path fill="#4B8CCA" opacity="1.000000" stroke="none" d=" M1492.095825,195.455292   C1526.750244,194.992905 1561.333374,194.995071 1596.446045,195.459106   C1596.975708,208.828522 1596.975708,221.736084 1596.975708,234.274307   C1597.779175,234.710052 1597.918701,234.852280 1598.057007,234.851318   C1638.571411,234.571777 1679.094727,234.667847 1719.594238,233.736084   C1730.419922,233.487030 1740.966309,229.508926 1750.591919,223.929916   C1762.479004,217.040176 1771.211670,207.305603 1777.167358,194.994583   C1811.264282,194.996384 1845.361084,194.986465 1879.458008,195.030334   C1881.412231,195.032852 1883.366089,195.474030 1885.710205,195.881989   C1883.392456,206.276108 1881.651367,216.891388 1877.708862,226.613983   C1873.638306,236.652267 1867.427246,245.822540 1861.536621,255.685501   C1738.002441,255.997574 1615.084229,255.996719 1492.166016,255.995880   C1492.118896,235.970535 1492.071655,215.945206 1492.095825,195.455292  z"/>
<path fill="#549CD4" opacity="1.000000" stroke="none" d=" M2622.835205,356.995483   C2630.888184,376.074158 2638.940918,395.152893 2646.582275,414.609985   C2614.607422,414.992249 2583.043701,414.957550 2551.480225,415.043976   C2547.040527,415.056152 2542.602295,415.660614 2538.163330,415.990906   C2532.987549,403.077057 2527.736328,390.192444 2522.688721,377.228729   C2521.421631,373.974182 2519.111328,373.965332 2516.326660,373.970154   C2487.011963,374.021179 2457.697266,374.001617 2428.382568,374.001617   C2394.237549,374.001587 2360.092529,374.067108 2325.948242,373.907776   C2322.236816,373.890442 2320.473145,374.875458 2319.083252,378.426910   C2313.594238,392.453461 2307.716797,406.327881 2301.498047,420.615417   C2298.231934,420.648102 2295.451416,420.048584 2292.669678,420.042053   C2260.404785,419.966217 2228.139893,419.979950 2195.875000,419.969971   C2198.895752,412.404602 2201.812988,404.795929 2204.959717,397.283386   C2210.506348,384.042328 2216.193359,370.860077 2222.450195,357.325897   C2356.330566,356.997559 2489.583008,356.996521 2622.835205,356.995483  z"/>
<path fill="#4F93CF" opacity="1.000000" stroke="none" d=" M2238.165771,319.998108   C2241.427002,312.064423 2244.647217,304.113434 2247.960693,296.201660   C2251.535156,287.666992 2255.197510,279.169067 2259.450684,270.326355   C2289.882324,269.998444 2319.685059,269.958374 2349.487305,270.044281   C2353.937012,270.057098 2358.385254,270.661774 2362.784912,271.345215   C2361.446045,274.614075 2360.156006,277.530365 2358.775879,280.650635   C2400.534912,280.650635 2441.614746,280.650635 2482.886475,280.650635   C2481.807861,277.201385 2480.844238,274.119232 2480.311035,271.017273   C2483.847656,270.664948 2486.953369,270.051636 2490.060303,270.043396   C2521.745850,269.959412 2553.431641,269.973877 2585.117188,269.960876   C2590.078125,281.141571 2595.064453,292.311218 2599.989258,303.507751   C2602.291748,308.742188 2604.476074,314.028748 2606.316895,319.645569   C2483.334961,319.998993 2360.750488,319.998535 2238.165771,319.998108  z"/>
<path fill="#4580C2" opacity="1.000000" stroke="none" d=" M2339.997070,80.320869   C2394.750488,79.993683 2449.334717,79.995064 2504.376465,79.993164   C2512.121826,97.095703 2519.415527,114.199089 2526.689453,131.310867   C2527.516113,133.255371 2528.229492,135.247940 2528.581055,137.602509   C2496.341553,137.991226 2464.516113,137.974487 2432.690674,138.044617   C2430.420166,138.049622 2428.151367,138.691315 2425.576660,138.856079   C2423.986816,135.781143 2422.702148,132.887085 2421.002686,129.058487   C2413.106689,148.028000 2405.611572,166.033997 2397.640869,184.027649   C2363.498779,184.007004 2329.832520,183.998734 2296.166016,183.990417   C2300.314697,173.940506 2304.403564,163.865372 2308.625000,153.846222   C2316.716553,134.643097 2324.873047,115.467239 2333.025879,96.290047   C2335.250000,91.058212 2337.558350,85.862015 2339.997070,80.320869  z"/>
<path fill="#4A8AC9" opacity="1.000000" stroke="none" d=" M1162.092285,141.447815   C1197.084717,140.986938 1232.000977,140.990433 1267.374512,140.988632   C1267.890259,157.432526 1267.991455,173.881683 1267.998291,190.330887   C1268.011597,222.572861 1267.972290,254.814865 1267.437256,287.525848   C1232.001953,287.991608 1197.084106,287.988403 1162.166016,287.985199   C1162.108154,255.580734 1162.038330,223.176285 1161.997314,190.771805   C1161.976685,174.485306 1162.008423,158.198730 1162.092285,141.447815  z"/>
<path fill="#D9672D" opacity="1.000000" stroke="none" d=" M803.907959,584.544067   C802.139221,583.755798 800.253357,582.695557 798.778625,581.223328   C758.284424,540.798950 717.835938,500.328857 677.357056,459.889130   C675.968689,458.502136 674.346130,457.349579 672.499634,456.049225   C673.437439,448.145294 674.666809,440.272919 675.986877,432.415802   C680.289673,406.804932 688.078796,382.279510 699.426025,358.414307   C701.344788,359.347504 702.964966,360.498962 704.351868,361.883972   C735.617615,393.108063 766.841431,424.374146 798.151978,455.553223   C799.678284,457.073151 801.922180,457.872375 803.831970,459.007202   C803.882080,500.698151 803.932251,542.389099 803.907959,584.544067  z"/>
<path fill="#4580C2" opacity="1.000000" stroke="none" d=" M2907.833496,79.991211   C2915.881104,92.820015 2923.950439,105.635384 2931.970947,118.481239   C2940.250732,131.741928 2948.482910,145.032227 2956.327148,158.653839   C2886.334473,158.996201 2816.750244,158.994339 2747.166260,158.992462   C2747.117676,132.968140 2747.068848,106.943802 2747.550781,80.458176   C2801.332031,79.994980 2854.582764,79.993073 2907.833496,79.991211  z"/>
<path fill="#4785C5" opacity="1.000000" stroke="none" d=" M1987.166260,238.984680   C1987.108154,202.599838 1987.045410,166.214981 1986.995239,129.830139   C1986.982300,120.525734 1987.009521,111.221275 1987.550049,101.456467   C2022.998901,100.993660 2057.916016,100.991226 2092.833008,100.988800   C2092.888916,122.086739 2092.975586,143.184647 2092.992188,164.282623   C2093.011230,188.873840 2092.969238,213.465103 2092.437012,238.525482   C2057.001953,238.991333 2022.084106,238.988007 1987.166260,238.984680  z"/>
<path fill="#447EC1" opacity="1.000000" stroke="none" d=" M3223.896973,153.527206   C3157.237305,153.994370 3090.640869,154.002716 3024.044189,153.970215   C3022.254395,153.969345 3020.464844,153.526321 3018.283691,153.120514   C3023.907227,143.067825 3029.882080,133.159561 3035.946045,123.306084   C3045.266602,108.160713 3054.644043,93.050232 3064.017822,77.937408   C3064.533447,77.106140 3065.233398,76.389030 3066.463867,75.308121   C3119.331543,74.995796 3171.583496,74.994148 3223.834961,74.992508   C3223.876709,101.015953 3223.918457,127.039406 3223.896973,153.527206  z"/>
<path fill="#5197D1" opacity="1.000000" stroke="none" d=" M2237.996338,320.323853   C2360.750488,319.998535 2483.334961,319.998993 2606.376953,319.998810   C2612.128418,332.098175 2617.422607,344.198181 2622.776123,356.646851   C2489.583008,356.996521 2356.330566,356.997559 2222.621582,356.997070   C2227.385742,344.880249 2232.606201,332.764954 2237.996338,320.323853  z"/>
<path fill="#4F93CF" opacity="1.000000" stroke="none" d=" M1829.861450,288.336060   C1816.177612,296.151703 1802.493774,303.967377 1788.710815,311.839722   C1792.747559,317.839020 1797.461914,324.845184 1802.007568,332.515045   C1800.073853,333.452545 1798.308960,333.963165 1796.543701,333.965149   C1758.417725,334.008026 1720.291748,333.994141 1682.165771,333.991211   C1679.823364,328.619263 1675.607788,327.784607 1670.104614,327.862488   C1647.778198,328.178589 1625.444702,327.993896 1603.113892,327.993896   C1601.304565,327.993896 1599.495239,327.993896 1596.958130,327.993896   C1596.958130,330.891327 1596.958130,333.488129 1596.439453,336.540985   C1561.335693,336.994995 1526.750488,336.992950 1492.165283,336.990906   C1492.120361,320.969238 1492.075317,304.947601 1492.555176,288.462463   C1602.682129,287.999329 1712.284058,287.997284 1821.886108,288.014008   C1824.544556,288.014435 1827.203003,288.224030 1829.861450,288.336060  z"/>
<path fill="#4F93CF" opacity="1.000000" stroke="none" d=" M1987.092773,239.449402   C2022.084106,238.988007 2057.001953,238.991333 2092.376953,238.989655   C2092.889404,262.903625 2092.967529,286.822571 2092.992432,310.741577   C2093.012451,329.846558 2092.968018,348.951630 2092.436035,368.525757   C2057.002197,368.991638 2022.084595,368.988434 1987.166992,368.985229   C1987.117676,325.961548 1987.068481,282.937836 1987.092773,239.449402  z"/>
<path fill="#5299D3" opacity="1.000000" stroke="none" d=" M3119.091797,286.446838   C3153.750244,285.985901 3188.335449,285.989838 3223.377441,285.987854   C3223.889893,310.731110 3223.965088,335.480316 3223.993408,360.229553   C3224.013428,377.839081 3223.970215,395.448669 3223.438721,413.526855   C3188.336182,413.992554 3153.750244,413.989685 3119.164551,413.986816   C3119.115723,371.628479 3119.066895,329.270111 3119.091797,286.446838  z"/>
<path fill="#4887C7" opacity="1.000000" stroke="none" d=" M2747.095703,159.456985   C2816.750244,158.994339 2886.334473,158.996201 2956.375977,158.996429   C2964.221191,170.742584 2971.609131,182.490402 2979.051270,194.594452   C2976.838135,195.300461 2974.571289,195.950592 2972.303223,195.955048   C2937.146973,196.024124 2901.990967,196.009430 2866.357422,196.025513   C2861.168457,189.236771 2856.456787,182.436676 2850.960693,174.504730   C2850.960693,195.089935 2850.960693,214.576309 2850.439941,234.529770   C2815.668457,234.994919 2781.417236,234.992966 2747.166504,234.991028   C2747.119385,209.967850 2747.072266,184.944687 2747.095703,159.456985  z"/>
<path fill="#56A1D8" opacity="1.000000" stroke="none" d=" M1987.095215,369.450195   C2022.084595,368.988434 2057.002197,368.991638 2092.376465,368.989990   C2092.833252,406.076843 2092.833252,443.168549 2092.833252,480.622559   C2057.661377,480.622559 2022.654053,480.622559 1987.023560,480.622559   C1987.023560,443.688690 1987.023560,406.801910 1987.095215,369.450195  z"/>
<path fill="#4D90CC" opacity="1.000000" stroke="none" d=" M1830.121338,288.179901   C1827.203003,288.224030 1824.544556,288.014435 1821.886108,288.014008   C1712.284058,287.997284 1602.682129,287.999329 1492.623047,287.998047   C1492.120605,277.639801 1492.075073,267.282501 1492.097778,256.460541   C1615.084229,255.996719 1738.002441,255.997574 1861.377686,255.996902   C1853.304321,268.590668 1842.316528,278.772522 1830.121338,288.179901  z"/>
<path fill="#5298D2" opacity="1.000000" stroke="none" d=" M1162.093750,288.450043   C1197.084106,287.988403 1232.001953,287.991608 1267.376953,287.989990   C1267.874390,323.009796 1267.914795,358.034485 1267.437988,393.527496   C1232.002319,393.993164 1197.084106,393.990509 1162.165771,393.987854   C1162.117554,358.963531 1162.069336,323.939209 1162.093750,288.450043  z"/>
<path fill="#3D78BC" opacity="1.000000" stroke="none" d=" M2907.785400,79.649071   C2854.582764,79.993073 2801.332031,79.994980 2747.624023,79.994080   C2747.166504,54.889603 2747.166504,29.787937 2747.166504,3.993608   C2749.011230,3.993608 2750.766846,3.993608 2752.522705,3.993608   C2786.797852,3.993606 2821.073486,4.102619 2855.346924,3.856092   C2859.647461,3.825160 2861.938232,5.410336 2863.957764,8.692137   C2877.618896,30.891006 2891.333984,53.056656 2905.041260,75.227066   C2905.897949,76.613014 2906.836670,77.948174 2907.785400,79.649071  z"/>
<path fill="#3E79BD" opacity="1.000000" stroke="none" d=" M2092.895020,100.524452   C2057.916016,100.991226 2022.998901,100.993660 1987.624512,100.992401   C1987.167358,68.876312 1987.167358,36.763908 1987.167358,4.321437   C2022.327271,4.321437 2057.360596,4.321437 2092.956787,4.321437   C2092.956787,36.246094 2092.956787,68.153099 2092.895020,100.524452  z"/>
<path fill="#539BD4" opacity="1.000000" stroke="none" d=" M2747.165039,422.988800   C2747.117920,390.631683 2747.070801,358.274536 2747.552002,325.456665   C2782.331299,324.993408 2816.582520,324.990936 2850.833496,324.988434   C2850.874268,357.345612 2850.915039,389.702789 2850.438721,422.528137   C2815.669434,422.993774 2781.417236,422.991302 2747.165039,422.988800  z"/>
<path fill="#3D78BC" opacity="1.000000" stroke="none" d=" M3223.899902,74.528275   C3171.583496,74.994148 3119.331543,74.995796 3066.622559,74.994934   C3073.412842,63.191940 3080.642334,51.380375 3087.913330,39.594280   C3094.509521,28.901674 3101.058838,18.177547 3107.868408,7.621912   C3108.922119,5.988328 3111.254150,4.154462 3113.003662,4.145626   C3149.481934,3.961394 3185.961670,4.026664 3222.440918,4.054697   C3222.749268,4.054933 3223.057617,4.218128 3223.964355,4.474310   C3223.964355,27.561064 3223.964355,50.812550 3223.899902,74.528275  z"/>
<path fill="#4D90CC" opacity="1.000000" stroke="none" d=" M2850.894043,324.523987   C2816.582520,324.990936 2782.331299,324.993408 2747.623535,324.992126   C2747.119385,295.299103 2747.072266,265.609772 2747.095703,235.455750   C2781.417236,234.992966 2815.668457,234.994919 2850.376465,234.993958   C2850.874023,264.680542 2850.914307,294.370026 2850.894043,324.523987  z"/>
<path fill="#58A3D9" opacity="1.000000" stroke="none" d=" M1162.095825,394.452881   C1197.084106,393.990509 1232.002319,393.993164 1267.377441,393.991791   C1267.834229,422.749847 1267.834229,451.511932 1267.834229,480.631775   C1232.659058,480.631775 1197.656372,480.631775 1162.025879,480.631775   C1162.025879,452.032776 1162.025879,423.475342 1162.095825,394.452881  z"/>
<path fill="#E07130" opacity="1.000000" stroke="none" d=" M803.904968,458.543060   C801.922180,457.872375 799.678284,457.073151 798.151978,455.553223   C766.841431,424.374146 735.617615,393.108063 704.351868,361.883972   C702.964966,360.498962 701.344788,359.347504 699.500244,358.048126   C709.286621,335.771942 722.048645,315.131866 736.844360,295.725159   C737.544067,294.807343 738.465332,294.058411 739.897949,293.234467   C760.044495,312.694946 779.563416,332.164917 799.136536,351.580353   C800.496216,352.929047 802.257935,353.872559 803.832703,355.004517   C803.881104,389.362640 803.929504,423.720795 803.904968,458.543060  z"/>
<path fill="#4B8CCA" opacity="1.000000" stroke="none" d=" M2295.998291,184.314621   C2329.832520,183.998734 2363.498779,184.007004 2397.585938,184.402054   C2395.672607,190.534576 2393.347168,196.283875 2391.002930,202.025497   C2381.616699,225.015915 2372.224121,248.003815 2362.833984,270.992676   C2358.385254,270.661774 2353.937012,270.057098 2349.487305,270.044281   C2319.685059,269.958374 2289.882324,269.998444 2259.623047,269.995544   C2270.533447,243.120087 2281.892334,216.243164 2293.288574,189.381989   C2293.986328,187.737473 2294.976318,186.216995 2295.998291,184.314621  z"/>
<path fill="#539BD4" opacity="1.000000" stroke="none" d=" M1492.095459,337.455688   C1526.750488,336.992950 1561.335693,336.994995 1596.377808,336.993958   C1596.876221,363.014313 1596.917725,389.037750 1596.441162,415.528992   C1561.336426,415.994537 1526.749756,415.992249 1492.162964,415.989960   C1492.117188,389.966797 1492.071533,363.943665 1492.095459,337.455688  z"/>
<path fill="#539AD3" opacity="1.000000" stroke="none" d=" M1682.210571,334.328491   C1720.291748,333.994141 1758.417725,334.008026 1796.543701,333.965149   C1798.308960,333.963165 1800.073853,333.452545 1802.156250,332.823212   C1811.228638,345.109833 1819.975830,357.757599 1828.742065,370.392120   C1834.054810,378.049408 1839.396973,385.686157 1844.323120,393.665222   C1806.005493,393.998901 1768.090820,393.993256 1730.176147,394.015167   C1727.856812,394.016510 1725.537354,394.236023 1723.218018,394.354034   C1716.830200,385.306030 1710.340454,376.327942 1704.081177,367.191956   C1696.701782,356.421234 1689.521851,345.513824 1682.210571,334.328491  z"/>
<path fill="#58A4DA" opacity="1.000000" stroke="none" d=" M3119.094727,414.451965   C3153.750244,413.989685 3188.336182,413.992554 3223.378662,413.991150   C3223.835449,436.086395 3223.835449,458.185974 3223.835449,480.639038   C3188.989990,480.639038 3154.325439,480.639038 3119.024658,480.639038   C3119.024658,458.707855 3119.024658,436.812469 3119.094727,414.451965  z"/>
<path fill="#58A4DA" opacity="1.000000" stroke="none" d=" M1492.094604,416.455048   C1526.749756,415.992249 1561.336426,415.994537 1596.380127,415.993347   C1596.837036,437.422577 1596.837036,458.855225 1596.837036,480.640137   C1561.989136,480.640137 1527.326050,480.640137 1492.026245,480.640137   C1492.026245,459.376923 1492.026245,438.148529 1492.094604,416.455048  z"/>
<path fill="#58A4DA" opacity="1.000000" stroke="none" d=" M2195.576660,420.154907   C2228.139893,419.979950 2260.404785,419.966217 2292.669678,420.042053   C2295.451416,420.048584 2298.231934,420.648102 2301.423828,420.980774   C2293.742920,440.856628 2285.650635,460.723846 2277.483154,480.776306   C2241.842773,480.776306 2206.104004,480.776306 2169.409424,480.776306   C2178.181396,460.282532 2186.729980,440.311218 2195.576660,420.154907  z"/>
<path fill="#56A1D8" opacity="1.000000" stroke="none" d=" M1723.223755,394.728394   C1725.537354,394.236023 1727.856812,394.016510 1730.176147,394.015167   C1768.090820,393.993256 1806.005493,393.998901 1844.376953,393.996796   C1856.129150,410.440216 1867.424561,426.885162 1878.319946,443.664581   C1839.841675,443.999359 1801.763428,443.981720 1763.685303,444.044922   C1761.422363,444.048676 1759.160400,444.701111 1756.898071,445.051697   C1748.959961,433.479584 1740.982422,421.934265 1733.102417,410.322754   C1729.707397,405.320007 1726.514404,400.180237 1723.223755,394.728394  z"/>
<path fill="#59A5DB" opacity="1.000000" stroke="none" d=" M2747.095703,423.453857   C2781.417236,422.991302 2815.669434,422.993774 2850.378418,422.992493   C2850.834961,442.090149 2850.834961,461.191559 2850.834961,480.643860   C2816.321777,480.643860 2781.993408,480.643860 2747.026123,480.643860   C2747.026123,461.713745 2747.026123,442.816315 2747.095703,423.453857  z"/>
<path fill="#4B8CCA" opacity="1.000000" stroke="none" d=" M2883.045410,222.371521   C2884.993408,221.702438 2887.091309,221.046127 2889.189941,221.044312   C2952.445312,220.989883 3015.700928,220.994141 3078.956299,221.029861   C3080.745361,221.030869 3082.534668,221.474945 3084.714355,221.882935   C3078.819824,231.776215 3072.541260,241.503311 3066.241455,251.216507   C3065.443604,252.446381 3064.533691,253.603409 3063.079102,254.633972   C3061.510986,254.316132 3060.539795,254.021072 3059.568359,254.020630   C3009.406006,253.998001 2959.243652,253.991577 2909.081299,254.046432   C2907.703125,254.047943 2906.325195,254.736710 2904.947266,255.104919   C2897.696777,244.299667 2890.446045,233.494507 2883.045410,222.371521  z"/>
<path fill="#4B8CCA" opacity="1.000000" stroke="none" d=" M2585.065430,269.578766   C2553.431641,269.973877 2521.745850,269.959412 2490.060303,270.043396   C2486.953369,270.051636 2483.847656,270.664948 2480.008789,270.827881   C2471.572266,251.769958 2463.868164,232.881592 2456.622559,213.995575   C2488.984619,213.998627 2520.888428,214.025070 2552.792236,213.954773   C2555.568359,213.948654 2558.342773,213.305557 2561.118164,212.958359   C2565.058105,221.888870 2569.097900,230.776932 2572.911133,239.761353   C2577.055420,249.526413 2580.988525,259.381073 2585.065430,269.578766  z"/>
<path fill="#4887C7" opacity="1.000000" stroke="none" d=" M2561.055664,212.585327   C2558.342773,213.305557 2555.568359,213.948654 2552.792236,213.954773   C2520.888428,214.025070 2488.984619,213.998627 2456.452881,213.663284   C2455.206055,211.835892 2454.575684,210.347717 2453.969727,208.849762   C2448.603027,195.579865 2443.240479,182.308182 2438.353271,169.025665   C2470.988281,169.009552 2503.147217,169.025909 2535.305908,168.954895   C2537.574463,168.949890 2539.841309,168.300415 2542.109375,167.950562   C2548.404053,182.704453 2554.698730,197.458389 2561.055664,212.585327  z"/>
<path fill="#58A3D9" opacity="1.000000" stroke="none" d=" M2538.219238,416.344971   C2542.602295,415.660614 2547.040527,415.056152 2551.480225,415.043976   C2583.043701,414.957550 2614.607422,414.992249 2646.649170,414.978699   C2653.091797,429.047241 2659.056152,443.125427 2664.591797,457.595856   C2628.071533,458.005920 2591.979492,458.023712 2555.887695,458.041504   C2552.255371,449.514496 2548.622803,440.987427 2544.990479,432.460388   C2542.752441,427.206451 2540.513672,421.952789 2538.219238,416.344971  z"/>
<path fill="#CF5729" opacity="1.000000" stroke="none" d=" M2801.166748,675.989380   C2801.166748,669.857178 2801.166748,663.724915 2801.166748,657.099854   C2782.638184,657.099854 2764.583252,657.099854 2746.265137,657.099854   C2746.265137,647.216980 2746.265137,637.830383 2746.265137,628.218262   C2793.051758,628.218262 2839.637695,628.218262 2886.614502,628.218262   C2886.614502,637.509033 2886.614502,646.899414 2886.614502,656.791138   C2868.730957,656.791138 2850.676514,656.791138 2831.963867,656.791138   C2831.963867,663.203369 2831.963867,669.132690 2831.440918,675.529053   C2821.000977,675.993835 2811.083740,675.991577 2801.166748,675.989380  z"/>
<path fill="#D15929" opacity="1.000000" stroke="none" d=" M1448.167603,689.985229   C1448.167603,669.536987 1448.167603,649.088745 1448.167603,628.315796   C1490.948853,628.315796 1533.635498,628.315796 1576.665771,628.315796   C1576.665771,637.270264 1576.665771,646.321777 1576.665771,655.843018   C1544.338989,655.843018 1511.975464,655.843018 1478.960693,655.843018   C1478.960693,667.218384 1478.960693,678.138000 1478.438965,689.526001   C1468.000732,689.991272 1458.084229,689.988220 1448.167603,689.985229  z"/>
<path fill="#DD6C2E" opacity="1.000000" stroke="none" d=" M1448.091309,690.449463   C1458.084229,689.988220 1468.000732,689.991272 1478.374878,689.989746   C1478.832397,693.121582 1478.832397,696.257996 1478.832397,699.907471   C1508.047119,699.907471 1536.774536,699.907471 1565.752930,699.907471   C1565.752930,709.690857 1565.752930,718.961365 1565.752930,728.760620   C1537.099487,728.760620 1508.376831,728.760620 1478.960693,728.760620   C1478.960693,738.202759 1478.960693,747.131836 1478.439209,756.528381   C1468.000977,756.993530 1458.084229,756.991211 1448.167358,756.988953   C1448.116577,734.963867 1448.065674,712.938782 1448.091309,690.449463  z"/>
<path fill="#59A5DB" opacity="1.000000" stroke="none" d=" M1756.950684,445.404755   C1759.160400,444.701111 1761.422363,444.048676 1763.685303,444.044922   C1801.763428,443.981720 1839.841675,443.999359 1878.376709,443.998230   C1887.084106,455.908234 1895.334717,467.819031 1904.180664,480.589264   C1901.334351,480.792908 1899.917114,480.982269 1898.499878,480.982880   C1860.524658,480.999023 1822.549561,480.968658 1784.574463,481.049713   C1781.680786,481.055878 1779.817749,480.457153 1778.120239,477.788361   C1771.257935,466.999176 1764.070679,456.416626 1756.950684,445.404755  z"/>
<path fill="#E87D33" opacity="1.000000" stroke="none" d=" M1448.093140,757.453186   C1458.084229,756.991211 1468.000977,756.993530 1478.375244,756.992310   C1478.832642,762.454041 1478.832642,767.919312 1478.832642,773.911011   C1512.063110,773.911011 1544.777222,773.911011 1577.745117,773.911011   C1577.745117,783.369873 1577.745117,792.302734 1577.745117,801.615845   C1534.741943,801.615845 1491.702759,801.615845 1448.018921,801.615845   C1448.018921,787.100647 1448.018921,772.509033 1448.093140,757.453186  z"/>
<path fill="#DE6E2F" opacity="1.000000" stroke="none" d=" M2426.107422,716.047302   C2420.679443,725.074280 2411.952148,729.818665 2402.777344,733.952393   C2400.598633,734.933960 2398.315186,735.683777 2395.734619,736.672424   C2398.258545,740.351074 2400.628906,743.805725 2402.585449,747.623596   C2392.453369,747.991211 2382.734619,747.943176 2373.017578,748.049866   C2371.324707,748.068481 2369.639160,748.739990 2367.950195,749.109985   C2364.252197,742.172668 2358.194092,741.406067 2351.072021,741.868469   C2342.631592,742.416504 2334.128662,741.997314 2324.963623,741.997314   C2324.963623,747.205933 2324.963623,752.135315 2324.441406,757.531006   C2314.001465,757.995056 2304.083496,757.992859 2294.165527,757.990662   C2294.116943,742.301270 2294.068115,726.611877 2294.549805,710.460449   C2304.998535,709.997070 2314.916748,709.995728 2324.908203,710.428162   C2324.539062,713.631348 2326.025391,714.048584 2328.398438,714.031555   C2344.252930,713.917847 2360.108398,713.917236 2376.243164,714.198120   C2378.321289,714.677551 2380.119629,714.972656 2381.918701,714.978455   C2394.552002,715.019043 2407.185791,714.952454 2419.818604,715.046997   C2421.917236,715.062683 2424.011230,715.698242 2426.107422,716.047302  z"/>
<path fill="#D15929" opacity="1.000000" stroke="none" d=" M1826.956299,661.104858   C1801.734253,648.683411 1774.824463,652.858459 1755.937622,673.895874   C1743.161743,673.676575 1731.164307,673.335571 1719.166992,672.994629   C1732.297607,647.533508 1753.064819,632.368835 1781.115356,626.975037   C1803.018799,622.763306 1824.223633,625.216492 1844.051880,635.233398   C1852.528564,639.515747 1859.833862,646.117249 1867.988281,651.889160   C1864.989868,655.549255 1862.831909,658.183594 1860.075684,660.645020   C1849.182007,660.341003 1838.886597,660.194092 1828.590454,660.123474   C1828.048096,660.119751 1827.501221,660.762817 1826.956299,661.104858  z"/>
<path fill="#CF5729" opacity="1.000000" stroke="none" d=" M2294.163574,665.991516   C2294.163574,653.547058 2294.163574,641.102600 2294.163574,627.993774   C2295.996826,627.993774 2297.752197,627.993835 2299.507812,627.993835   C2324.774902,627.993835 2350.049072,627.633606 2375.306396,628.135071   C2389.419678,628.415283 2402.941650,631.816895 2414.980957,639.928162   C2420.959229,643.955933 2425.701416,648.887207 2428.582275,655.619751   C2415.364746,655.990784 2402.564453,655.893127 2389.768799,656.095276   C2387.491211,656.131226 2385.233398,657.411438 2382.528809,658.065063   C2363.150391,658.013000 2344.209229,658.013000 2324.836670,658.013000   C2324.836670,660.396606 2324.836670,663.194519 2324.378418,665.995361   C2314.001221,665.995972 2304.082275,665.993713 2294.163574,665.991516  z"/>
<path fill="#4D90CC" opacity="1.000000" stroke="none" d=" M2904.979492,255.458099   C2906.325195,254.736710 2907.703125,254.047943 2909.081299,254.046432   C2959.243652,253.991577 3009.406006,253.998001 3059.568359,254.020630   C3060.539795,254.021072 3061.510986,254.316132 3062.768555,254.788269   C3058.088379,262.859772 3053.122070,270.616730 3047.539062,278.686157   C3004.669434,278.997528 2962.416260,278.996460 2920.163330,278.995392   C2915.112549,271.267365 2910.062012,263.539276 2904.979492,255.458099  z"/>
<path fill="#CF5729" opacity="1.000000" stroke="none" d=" M1181.166382,673.989502   C1182.063843,654.713684 1192.993164,638.011536 1212.466919,631.192871   C1244.206909,620.079163 1273.879028,625.476074 1300.932861,645.401794   C1301.838013,646.068481 1302.845703,646.596252 1304.495361,647.614624   C1300.110962,653.824463 1295.847900,659.860474 1291.588135,665.898682   C1291.027344,666.693604 1290.473145,667.493469 1289.933228,668.302551   C1288.189575,670.915649 1286.691528,671.623352 1283.582520,669.369141   C1273.508789,662.064941 1262.493408,656.321655 1250.029907,654.616150   C1238.547852,653.044983 1226.986694,652.577576 1217.695435,661.760315   C1214.485596,664.932434 1212.559326,668.535156 1212.440674,673.577026   C1201.667725,673.994141 1191.417114,673.991821 1181.166382,673.989502  z"/>
<path fill="#E67932" opacity="1.000000" stroke="none" d=" M803.904358,354.540375   C802.257935,353.872559 800.496216,352.929047 799.136536,351.580353   C779.563416,332.164917 760.044495,312.694946 740.204346,293.093689   C741.630371,290.434845 743.122925,287.704529 745.142273,285.444885   C752.484619,277.228699 760.015747,269.181458 767.448669,261.045807   C770.101929,258.141663 772.678223,255.167221 775.901733,252.231842   C784.165466,259.815582 791.788696,267.421478 799.497314,274.939819   C800.747986,276.159637 802.377380,276.991241 803.831665,278.002289   C803.879761,303.360260 803.927917,328.718231 803.904358,354.540375  z"/>
<path fill="#4F94CF" opacity="1.000000" stroke="none" d=" M3031.120605,304.036316   C3024.425781,314.298309 3017.734863,324.562836 3011.035645,334.821716   C3003.338135,346.608826 2995.660156,358.408630 2987.916504,370.165283   C2985.396240,373.991455 2982.592529,374.110596 2980.170654,370.419556   C2965.804932,348.526367 2951.506104,326.589355 2937.509277,304.340271   C2968.929443,304.021027 3000.024902,304.028687 3031.120605,304.036316  z"/>
<path fill="#4683C4" opacity="1.000000" stroke="none" d=" M2542.051270,167.581039   C2539.841309,168.300415 2537.574463,168.949890 2535.305908,168.954895   C2503.147217,169.025909 2470.988281,169.009552 2438.046143,168.829956   C2436.892334,167.570984 2436.557373,166.482712 2436.146484,165.423874   C2432.732666,156.625183 2429.304932,147.831909 2425.881592,139.036957   C2428.151367,138.691315 2430.420166,138.049622 2432.690674,138.044617   C2464.516113,137.974487 2496.341553,137.991226 2528.644287,137.976471   C2533.412109,147.714554 2537.702881,157.463013 2542.051270,167.581039  z"/>
<path fill="#4F93CF" opacity="1.000000" stroke="none" d=" M3031.428223,303.886200   C3000.024902,304.028687 2968.929443,304.021027 2937.356201,304.024170   C2931.337158,295.913208 2925.795898,287.791443 2920.208984,279.332520   C2962.416260,278.996460 3004.669434,278.997528 3047.379395,278.997009   C3042.469971,287.242279 3037.103027,295.489166 3031.428223,303.886200  z"/>
<path fill="#D8652C" opacity="1.000000" stroke="none" d=" M3146.835938,668.991272   C3138.460693,681.902161 3130.085693,694.813110 3121.016602,707.718506   C3118.699951,707.475403 3117.077393,707.035645 3115.454102,707.031067   C3097.806396,706.981445 3080.158447,706.966675 3062.511230,707.043701   C3060.394531,707.052979 3058.280273,707.661804 3056.165039,707.992676   C3048.473877,696.367310 3040.782471,684.741943 3033.627686,672.646362   C3045.721680,672.115784 3057.279053,672.055237 3068.836426,671.994751   C3075.431641,682.365173 3082.026611,692.735657 3089.105957,703.867249   C3096.960938,691.698730 3104.406006,680.164917 3112.465332,668.314453   C3124.331543,668.328979 3135.583740,668.660156 3146.835938,668.991272  z"/>
<path fill="#59A5DB" opacity="1.000000" stroke="none" d=" M2555.933105,458.423889   C2591.979492,458.023712 2628.071533,458.005920 2664.641113,457.978210   C2668.509521,465.344086 2671.900146,472.719879 2675.563965,480.689636   C2638.109619,480.689636 2601.578857,480.689636 2564.407959,480.689636   C2561.695312,473.647552 2558.836914,466.226898 2555.933105,458.423889  z"/>
<path fill="#D9672D" opacity="1.000000" stroke="none" d=" M1181.091309,674.441895   C1191.417114,673.991821 1201.667725,673.994141 1212.375977,673.993042   C1212.767212,684.822388 1217.767456,689.166138 1227.598389,692.798950   C1239.749512,697.289062 1252.508057,700.106262 1264.863281,704.083862   C1271.956177,706.367371 1278.769897,709.517944 1285.595947,712.901917   C1283.682129,713.683777 1281.881592,713.977234 1280.080933,713.979553   C1256.134155,714.010193 1232.187134,713.955444 1208.241089,714.091492   C1206.478271,714.101501 1204.722900,715.414551 1202.963989,716.121826   C1190.955688,709.849365 1183.620483,700.236938 1182.011230,686.605957   C1181.552002,682.717163 1181.340820,678.799011 1181.091309,674.441895  z"/>
<path fill="#E67932" opacity="1.000000" stroke="none" d=" M1297.986938,784.684509   C1262.864624,784.997620 1227.896729,784.991760 1192.928955,785.020142   C1191.125732,785.021606 1189.322754,785.315125 1187.234131,785.786987   C1182.639893,783.224854 1178.331055,780.348328 1173.391724,777.050903   C1180.178223,768.940796 1186.412476,761.490723 1192.325562,754.424500   C1200.288086,759.494934 1207.895508,764.830200 1215.960205,769.349182   C1225.846191,774.888672 1236.938599,777.094543 1248.067383,776.779541   C1258.528809,776.483459 1269.107788,774.705505 1276.062500,764.131409   C1287.169556,763.988403 1297.500977,763.992554 1307.832520,763.996765   C1306.631836,771.754089 1303.620728,778.650269 1297.986938,784.684509  z"/>
<path fill="#E67932" opacity="1.000000" stroke="none" d=" M2831.835205,736.989502   C2831.835205,758.426025 2831.835205,779.862488 2831.835205,801.642883   C2821.680420,801.642883 2811.642334,801.642883 2801.015381,801.642883   C2801.015381,780.382812 2801.015381,759.150146 2801.547852,737.457153   C2811.998535,736.994385 2821.916748,736.991943 2831.835205,736.989502  z"/>
<path fill="#DD6C2E" opacity="1.000000" stroke="none" d=" M3056.196289,708.334473   C3058.280273,707.661804 3060.394531,707.052979 3062.511230,707.043701   C3080.158447,706.966675 3097.806396,706.981445 3115.454102,707.031067   C3117.077393,707.035645 3118.699951,707.475403 3120.713135,707.883667   C3116.977295,714.299072 3113.020752,720.665649 3108.662598,726.744202   C3105.944336,730.535278 3104.582520,734.398193 3104.926270,739.093750   C3105.240967,743.394653 3104.973877,747.738159 3104.440186,752.529541   C3093.667480,752.994263 3083.417725,752.992432 3073.167969,752.990601   C3073.115723,752.002869 3072.875244,750.982666 3073.039551,750.032471   C3075.111328,738.052185 3070.480469,728.178528 3063.489258,718.979248   C3060.948486,715.636292 3058.641357,712.115784 3056.196289,708.334473  z"/>
<path fill="#DD6C2E" opacity="1.000000" stroke="none" d=" M2034.065674,746.543884   C2023.773071,746.973022 2013.426758,746.985474 2002.622803,746.995361   C2001.444214,741.194580 2000.227661,735.406982 2000.100830,729.595703   C1999.797852,715.708984 2000.008545,701.811157 2000.544922,687.457764   C2011.331299,686.995117 2021.584351,686.992493 2031.837524,686.989868   C2031.891846,699.236145 2031.722290,711.488953 2032.083618,723.726135   C2032.304443,731.205566 2033.341431,738.660950 2034.065674,746.543884  z"/>
<path fill="#D9672D" opacity="1.000000" stroke="none" d=" M2831.898682,736.525330   C2821.916748,736.991943 2811.998535,736.994385 2801.622559,736.993164   C2801.114990,716.965515 2801.065430,696.941528 2801.091309,676.453491   C2811.083740,675.991577 2821.000977,675.993835 2831.375488,675.992676   C2831.876221,696.013245 2831.919189,716.037170 2831.898682,736.525330  z"/>
<path fill="#D15B2A" opacity="1.000000" stroke="none" d=" M2031.901611,686.525757   C2021.584351,686.992493 2011.331299,686.995117 2000.620361,686.993835   C2000.162476,667.537598 2000.162476,648.085266 2000.162476,628.310913   C2010.647827,628.310913 2021.033203,628.310913 2031.965576,628.310913   C2031.965576,647.566223 2031.965576,666.813965 2031.901611,686.525757  z"/>
<path fill="#D9672D" opacity="1.000000" stroke="none" d=" M2608.832764,681.991150   C2608.875000,701.680481 2608.917236,721.369873 2608.438232,741.526855   C2598.000732,741.992065 2588.084717,741.989563 2578.168457,741.987061   C2578.118164,722.297668 2578.067871,702.608337 2578.549805,682.457642   C2588.999023,681.994629 2598.916016,681.992859 2608.832764,681.991150  z"/>
<path fill="#E67932" opacity="1.000000" stroke="none" d=" M2578.093506,742.451294   C2588.084717,741.989563 2598.000732,741.992065 2608.374268,741.990784   C2608.831543,761.757935 2608.831543,781.528870 2608.831543,801.643311   C2598.680176,801.643311 2588.642578,801.643311 2578.018555,801.643311   C2578.018555,782.049988 2578.018555,762.482788 2578.093506,742.451294  z"/>
<path fill="#D15929" opacity="1.000000" stroke="none" d=" M2608.898438,681.527100   C2598.916016,681.992859 2588.999023,681.994629 2578.624756,681.993774   C2578.167236,664.205750 2578.167236,646.420349 2578.167236,628.313110   C2588.314453,628.313110 2598.365967,628.313110 2608.964355,628.313110   C2608.964355,645.900940 2608.964355,663.482056 2608.898438,681.527100  z"/>
<path fill="#DD6C2E" opacity="1.000000" stroke="none" d=" M2146.017578,753.631958   C2135.249268,753.992920 2124.665771,753.994934 2113.625000,753.994507   C2118.273682,741.895386 2118.298340,729.150696 2118.012939,716.355530   C2117.920410,712.213806 2118.011230,708.067993 2118.547852,703.461731   C2128.997803,702.998291 2138.917969,702.997131 2148.838379,702.996033   C2148.890625,714.984680 2149.208008,726.981018 2148.864258,738.958313   C2148.727051,743.751404 2147.133057,748.502625 2146.017578,753.631958  z"/>
<path fill="#E67932" opacity="1.000000" stroke="none" d=" M3073.094727,753.454834   C3083.417725,752.992432 3093.667480,752.994263 3104.374512,752.993408   C3104.832031,769.095398 3104.832031,785.200195 3104.832031,801.645752   C3094.344727,801.645752 3083.977051,801.645752 3073.021729,801.645752   C3073.021729,785.721924 3073.021729,769.820557 3073.094727,753.454834  z"/>
<path fill="#DD6C2E" opacity="1.000000" stroke="none" d=" M1203.133301,716.430481   C1204.722900,715.414551 1206.478271,714.101501 1208.241089,714.091492   C1232.187134,713.955444 1256.134155,714.010193 1280.080933,713.979553   C1281.881592,713.977234 1283.682129,713.683777 1285.768188,713.211304   C1295.246338,717.154480 1301.737183,724.019775 1305.327393,733.644775   C1291.966675,733.999817 1279.014893,733.959229 1266.063965,734.049194   C1264.358276,734.061035 1262.657349,734.739929 1260.954224,735.109924   C1241.810059,728.757385 1221.350342,726.533020 1203.133301,716.430481  z"/>
<path fill="#CF5729" opacity="1.000000" stroke="none" d=" M3146.986816,668.674561   C3135.583740,668.660156 3124.331543,668.328979 3112.621582,667.995056   C3119.851562,655.784424 3127.541016,643.577393 3135.226318,631.367676   C3136.678711,629.060547 3138.336670,627.793701 3141.483887,627.882751   C3151.897705,628.177185 3162.324951,627.993774 3174.415527,627.993774   C3164.830078,642.177795 3155.983887,655.267761 3146.986816,668.674561  z"/>
<path fill="#DD6C2E" opacity="1.000000" stroke="none" d=" M1750.056030,746.594360   C1741.579956,747.306885 1733.042725,747.681213 1724.503052,747.984192   C1721.699219,748.083679 1718.888794,747.998108 1715.623779,747.994263   C1710.550781,734.979553 1707.704590,721.740845 1710.548828,707.419678   C1721.665405,706.997681 1732.250122,706.996643 1742.834961,706.995605   C1740.465332,720.941040 1743.890259,733.829102 1750.056030,746.594360  z"/>
<path fill="#E67932" opacity="1.000000" stroke="none" d=" M2367.976074,749.462158   C2369.639160,748.739990 2371.324707,748.068481 2373.017578,748.049866   C2382.734619,747.943176 2392.453369,747.991211 2402.648926,747.975891   C2410.392090,757.860229 2417.660645,767.753418 2424.921387,777.652344   C2426.545166,779.866028 2428.141602,782.099731 2429.333008,784.662048   C2419.492432,784.999939 2410.068848,784.934387 2400.646973,785.047791   C2398.393555,785.074951 2396.147705,785.698425 2393.898193,786.047607   C2386.338135,775.565796 2378.771484,765.088501 2371.224854,754.597107   C2370.102783,753.037231 2369.073730,751.410339 2367.976074,749.462158  z"/>
<path fill="#E87D33" opacity="1.000000" stroke="none" d=" M2294.092285,758.454834   C2304.083496,757.992859 2314.001465,757.995056 2324.376953,757.993896   C2324.834473,772.431396 2324.834473,786.872131 2324.834473,801.652954   C2314.678711,801.652954 2304.643311,801.652954 2294.018799,801.652954   C2294.018799,787.394043 2294.018799,773.156555 2294.092285,758.454834  z"/>
<path fill="#D8652C" opacity="1.000000" stroke="none" d=" M2294.089111,666.455566   C2304.082275,665.993713 2314.001221,665.995972 2324.452637,666.459351   C2324.935303,681.278442 2324.885254,695.636414 2324.835205,709.994385   C2314.916748,709.995728 2304.998535,709.997070 2294.622559,709.996460   C2294.114746,695.636230 2294.064697,681.277893 2294.089111,666.455566  z"/>
<path fill="#D8652C" opacity="1.000000" stroke="none" d=" M2148.905518,702.531860   C2138.917969,702.997131 2128.997803,702.998291 2118.619629,702.997742   C2118.111816,688.638123 2118.062012,674.280273 2118.543945,659.461182   C2128.997314,658.998352 2138.918701,658.996643 2148.840088,658.994873   C2148.884277,673.352478 2148.928467,687.710083 2148.905518,702.531860  z"/>
<path fill="#D8652C" opacity="1.000000" stroke="none" d=" M1742.901855,706.575684   C1732.250122,706.996643 1721.665405,706.997681 1710.622925,706.997192   C1710.102539,695.115173 1713.818115,684.217224 1719.000488,673.325989   C1731.164307,673.335571 1743.161743,673.676575 1755.635010,674.031128   C1750.246582,682.713196 1745.265747,691.784180 1743.373169,702.242249   C1743.140259,703.529053 1743.098877,704.850403 1742.901855,706.575684  z"/>
<path fill="#D8652C" opacity="1.000000" stroke="none" d=" M2426.420410,715.900513   C2424.011230,715.698242 2421.917236,715.062683 2419.818604,715.046997   C2407.185791,714.952454 2394.552002,715.019043 2381.918701,714.978455   C2380.119629,714.972656 2378.321289,714.677551 2376.458252,713.868652   C2390.235596,712.151917 2405.152832,701.770630 2404.627930,683.994141   C2415.333984,683.994873 2425.582031,683.993591 2435.830078,683.992249   C2436.705566,695.698608 2433.428711,706.215759 2426.420410,715.900513  z"/>
<path fill="#D15B2A" opacity="1.000000" stroke="none" d=" M2435.897461,683.540649   C2425.582031,683.993591 2415.333984,683.994873 2404.561035,683.572388   C2403.814453,681.369324 2403.765625,679.548035 2403.343750,677.817749   C2400.702393,666.986389 2392.630859,661.715515 2382.966309,658.117065   C2385.233398,657.411438 2387.491211,656.131226 2389.768799,656.095276   C2402.564453,655.893127 2415.364746,655.990784 2428.640137,655.975830   C2434.513916,664.220276 2436.202148,673.411621 2435.897461,683.540649  z"/>
<path fill="#CF5729" opacity="1.000000" stroke="none" d=" M3021.894043,655.048096   C3015.897705,646.282532 3009.901367,637.516907 3003.387939,627.995239   C3015.906982,627.995239 3027.173584,627.880188 3038.432373,628.129333   C3039.976562,628.163513 3041.987549,629.672241 3042.918701,631.072449   C3047.767334,638.363098 3052.336182,645.839539 3056.584229,653.618530   C3047.341064,653.990601 3038.515137,653.917664 3029.692139,654.047852   C3027.088379,654.086243 3024.493164,654.698669 3021.894043,655.048096  z"/>
<path fill="#CF5729" opacity="1.000000" stroke="none" d=" M2148.905762,658.530518   C2138.918701,658.996643 2128.997314,658.998352 2118.617920,658.997437   C2118.159912,648.873657 2118.159912,638.752502 2118.159912,628.313110   C2128.316895,628.313110 2138.363281,628.313110 2148.971436,628.313110   C2148.971436,638.229431 2148.971436,648.147827 2148.905762,658.530518  z"/>
<path fill="#E87D33" opacity="1.000000" stroke="none" d=" M803.901917,277.538086   C802.377380,276.991241 800.747986,276.159637 799.497314,274.939819   C791.788696,267.421478 784.165466,259.815582 776.205811,252.094025   C784.783325,241.863083 793.668884,231.776901 802.554443,221.690735   C803.027039,221.843613 803.499573,221.996490 803.972107,222.149353   C803.972107,240.457550 803.972107,258.765717 803.901917,277.538086  z"/>
<path fill="#D15B2A" opacity="1.000000" stroke="none" d=" M3021.945312,655.405029   C3024.493164,654.698669 3027.088379,654.086243 3029.692139,654.047852   C3038.515137,653.917664 3047.341064,653.990601 3056.642578,653.975220   C3060.999023,659.747314 3064.878662,665.530029 3068.797363,671.653748   C3057.279053,672.055237 3045.721680,672.115784 3033.636230,672.262085   C3029.404053,666.819275 3025.700439,661.290649 3021.945312,655.405029  z"/>
<path fill="#E87D33" opacity="1.000000" stroke="none" d=" M2393.948975,786.400513   C2396.147705,785.698425 2398.393555,785.074951 2400.646973,785.047791   C2410.068848,784.934387 2419.492432,784.999939 2429.372803,784.999268   C2433.770508,790.389587 2437.710693,795.780396 2442.249023,801.989136   C2429.661377,801.989136 2417.951904,802.038269 2406.244385,801.898621   C2405.276123,801.887146 2404.080078,800.777405 2403.404053,799.869568   C2400.190674,795.556091 2397.120605,791.135742 2393.948975,786.400513  z"/>
<path fill="#E07130" opacity="1.000000" stroke="none" d=" M1261.123047,735.417969   C1262.657349,734.739929 1264.358276,734.061035 1266.063965,734.049194   C1279.014893,733.959229 1291.966675,733.999817 1305.375732,733.998962   C1306.878662,739.369934 1307.923950,744.741760 1308.443115,750.556641   C1297.667480,750.999146 1287.417725,750.998535 1277.168091,750.997864   C1276.423340,744.647705 1272.241821,741.097656 1266.942993,738.467163   C1265.067749,737.536255 1263.176025,736.638794 1261.123047,735.417969  z"/>
<path fill="#E17330" opacity="1.000000" stroke="none" d=" M1277.242676,751.386841   C1287.417725,750.998535 1297.667480,750.999146 1308.374512,750.999023   C1308.555176,755.054504 1308.278320,759.110718 1307.916992,763.581909   C1297.500977,763.992554 1287.169556,763.988403 1276.361572,763.972229   C1276.362671,759.898804 1276.839966,755.837280 1277.242676,751.386841  z"/>
<path fill="#D15B2A" opacity="1.000000" stroke="none" d=" M1827.120361,661.415344   C1827.501221,660.762817 1828.048096,660.119751 1828.590454,660.123474   C1838.886597,660.194092 1849.182007,660.341003 1859.762207,660.786621   C1856.528809,665.394165 1852.969238,669.653992 1849.508301,673.992371   C1847.327393,676.726318 1845.854858,674.920044 1843.963135,673.527100   C1838.479980,669.489807 1832.854248,665.645752 1827.120361,661.415344  z"/>
<path fill="none" opacity="1.000000" stroke="none" d=" M1777.236450,194.628983   C1771.211670,207.305603 1762.479004,217.040176 1750.591919,223.929916   C1740.966309,229.508926 1730.419922,233.487030 1719.594238,233.736084   C1679.094727,234.667847 1638.571411,234.571777 1598.057007,234.851318   C1597.918701,234.852280 1597.779175,234.710052 1596.975708,234.274307   C1596.975708,221.736084 1596.975708,208.828522 1596.904297,195.456467   C1596.892090,165.498047 1596.951660,136.004120 1597.010132,106.510201   C1597.014038,104.542618 1597.010620,102.575020 1597.010620,100.011253   C1599.155151,100.011253 1600.927490,100.011253 1602.699707,100.011253   C1639.029297,100.011253 1675.374878,99.359703 1711.682617,100.250931   C1734.153564,100.802521 1754.700317,107.998817 1769.627197,126.239067   C1775.622681,133.565475 1779.340698,142.294891 1780.849487,151.566360   C1783.197632,165.997299 1783.000488,180.408295 1777.236450,194.628983  z"/>
<path fill="none" opacity="1.000000" stroke="none" d=" M2425.576660,138.856079   C2429.304932,147.831909 2432.732666,156.625183 2436.146484,165.423874   C2436.557373,166.482712 2436.892334,167.570984 2437.569824,168.841309   C2443.240479,182.308182 2448.603027,195.579865 2453.969727,208.849762   C2454.575684,210.347717 2455.206055,211.835892 2455.994629,213.660919   C2463.868164,232.881592 2471.572266,251.769958 2479.578613,270.847717   C2480.844238,274.119232 2481.807861,277.201385 2482.886475,280.650635   C2441.614746,280.650635 2400.534912,280.650635 2358.775879,280.650635   C2360.156006,277.530365 2361.446045,274.614075 2362.784912,271.345215   C2372.224121,248.003815 2381.616699,225.015915 2391.002930,202.025497   C2393.347168,196.283875 2395.672607,190.534576 2398.061768,184.414398   C2405.611572,166.033997 2413.106689,148.028000 2421.002686,129.058487   C2422.702148,132.887085 2423.986816,135.781143 2425.576660,138.856079  z"/>
<path fill="none" opacity="1.000000" stroke="none" d=" M2382.528809,658.065063   C2392.630859,661.715515 2400.702393,666.986389 2403.343750,677.817749   C2403.765625,679.548035 2403.814453,681.369324 2404.103027,683.570312   C2405.152832,701.770630 2390.235596,712.151917 2376.178711,713.550537   C2360.108398,713.917236 2344.252930,713.917847 2328.398438,714.031555   C2326.025391,714.048584 2324.539062,713.631348 2324.908203,710.428162   C2324.885254,695.636414 2324.935303,681.278442 2324.911133,666.456421   C2324.836670,663.194519 2324.836670,660.396606 2324.836670,658.013000   C2344.209229,658.013000 2363.150391,658.013000 2382.528809,658.065063  z"/>
</svg>
