<svg id="Layer_1" data-name="Layer 1" xmlns="http://www.w3.org/2000/svg" viewBox="0 0 1000 625"><defs><style>.cls-1{fill:#0497dc;}</style></defs><path class="cls-1" d="M742.14,163.35c-8.8-159.53-241.27-227.11-342-68.45-65.19-28-143.36,14.7-144.49,85.66-129.43,12.9-142.88,205.12,47.86,205.12h6.38a63.38,63.38,0,0,1,1.1-45.12l-20-.09c-91.75-.61-116-130.21,6.56-118.18-22.23-71.46,55.13-131,120.12-77.18,58.38-132.58,274-136.61,283.77,52.82,120,8.23,116.22,132.31,28.4,144H607.44A45.43,45.43,0,0,1,612,385.67H729.85C863.1,383,887.26,190.56,742.14,163.35Z"/><path class="cls-1" d="M508.07,251.23l1.2-2c12.23-21.29,60.85-22.68,79.92-5.75,6.23,7.65,11.62,13.37,20.27,17.26,23.89,10.75,52.2.59,63.23-22.68s.61-50.83-23.29-61.58-50.56.22-63.22,22.68c-14.16,25.11-68.93,17.43-79.56,6.24a58.05,58.05,0,0,0-26.26-18A46.1,46.1,0,0,0,456.64,185c-24.61,3.86-41.35,26.43-37.38,50.41.67,4.08.36,4.28,5.36,15.94S405.33,315.45,380,320c-10,.2-18,.92-26.37,5.28-23.23,12-32,40.15-19.67,62.77s41.21,31.2,64.44,19.15,30.39-39.36,19.68-62.75c-12-26.17,23.74-67.42,44-68.71s55.73,45.42,43.56,67.24c-12.56,22.51-7.62,50.29,14.56,64.07s51.65,7.43,65.79-14.2,7.62-50.29-14.57-64.06c-8-5-15.9-6.32-25.87-7.28C520.6,315,495,275.22,506.81,253.7,507.26,252.88,507.68,252.05,508.07,251.23Zm123.45-52.56c11.44,0,20.71,9,20.71,20.16S643,239,631.52,239s-20.7-9-20.7-20.16S620.09,198.67,631.52,198.67Zm-256,189.9a20.43,20.43,0,0,1-20.7-20.17c0-11.13,9.26-20.16,20.7-20.16s20.7,9,20.7,20.16S387,388.57,375.54,388.57ZM463.89,242a15.1,15.1,0,1,1,15.49-15.09A15.3,15.3,0,0,1,463.89,242Zm82.79,106.15c11.43,0,20.7,9,20.7,20.16s-9.27,20.16-20.7,20.16a20.17,20.17,0,1,1,0-40.32Z"/><path d="M39.64,480.47H8.55v-9.62H81.13v9.62H50v82.58H39.64Z"/><path d="M100.09,470.85h39.65c11.33,0,20.41,3.43,26.21,9.22a25.46,25.46,0,0,1,7.11,18.18v.26c0,15.28-10.54,24.24-25,26.87l28.31,37.67H163.58l-26.74-35.83H110.5v35.83H100.09Zm38.73,47c13.83,0,23.7-7.11,23.7-19v-.27c0-11.33-8.69-18.17-23.57-18.17H110.5v37.4Z"/><path d="M196.24,470.85h10.4v92.2h-10.4Z"/><path d="M229.56,517.21V517c0-25.29,18.57-47.68,46.23-47.68,15.54,0,25.16,4.48,34.38,12.25l-6.72,7.9c-7.11-6.19-15-10.53-28.05-10.53-20.42,0-35,17.25-35,37.8V517c0,22,14.09,38.33,36.48,38.33a43.4,43.4,0,0,0,26.61-9.22V523.14H275.4v-9.35h38.06v36.75a55.86,55.86,0,0,1-37,14.09C247.47,564.63,229.56,543.56,229.56,517.21Z"/><path d="M332.82,517.21V517c0-25.29,18.57-47.68,46.23-47.68,15.54,0,25.16,4.48,34.38,12.25l-6.72,7.9c-7.11-6.19-15-10.53-28-10.53-20.42,0-35,17.25-35,37.8V517c0,22,14.09,38.33,36.48,38.33a43.4,43.4,0,0,0,26.61-9.22V523.14h-28v-9.35h38.06v36.75a55.86,55.86,0,0,1-37,14.09C350.73,564.63,332.82,543.56,332.82,517.21Z"/><path d="M440.16,470.85h66.65v9.48H450.57v31.48h50.31v9.49H450.57v32.27h56.9v9.48H440.16Z"/><path d="M528.41,470.85h39.64c11.33,0,20.42,3.43,26.21,9.22a25.46,25.46,0,0,1,7.12,18.18v.26c0,15.28-10.54,24.24-25,26.87l28.32,37.67H591.89l-26.73-35.83H538.81v35.83h-10.4Zm38.72,47c13.83,0,23.71-7.11,23.71-19v-.27c0-11.33-8.69-18.17-23.58-18.17H538.81v37.4Z"/><path d="M618.76,470.85h27l22,35.7,22-35.7h27v92.2H691.33V510.1l-23.57,36.09h-.53l-23.45-36v52.82h-25Z"/><path d="M733.08,470.85h74.16v21.6H758.37v14.1h44.26V526.7H758.37v14.62h49.52v21.73H733.08Z"/><path d="M814.08,549.35l14.23-17c9.22,7.25,19.23,11.07,29.9,11.07,7,0,10.67-2.38,10.67-6.33v-.26c0-4-3-5.93-15.68-9-19.62-4.48-34.77-10-34.77-28.84v-.27c0-17.12,13.57-29.5,35.69-29.5,15.68,0,27.93,4.22,37.94,12.25l-12.78,18c-8.43-6.05-17.65-9.08-25.82-9.08-6.19,0-9.22,2.5-9.22,5.92v.27c0,4.21,3.17,6.06,16.07,8.95,21.08,4.61,34.25,11.46,34.25,28.72v.26c0,18.84-14.88,30-37.28,30C841,564.63,825.54,559.49,814.08,549.35Z"/><path d="M906.94,470.85h25.55v34.51h32.8V470.85h25.55v92.2H965.29V528h-32.8v35H906.94Z"/><path d="M32.67,597.75v-.08c0-7.6,5.68-13.91,13.6-13.91A14,14,0,0,1,56.76,588l-2.08,2.23a11.7,11.7,0,0,0-8.45-3.69c-6,0-10.41,4.84-10.41,11v.07c0,6.23,4.49,11.11,10.41,11.11,3.69,0,6.11-1.42,8.68-3.88l2,2a14,14,0,0,1-10.76,4.72C38.39,611.58,32.67,605.47,32.67,597.75Z"/><path d="M62.36,584.23h3v24.09H80.53v2.8H62.36Z"/><path d="M83,597.75v-.08a13.72,13.72,0,1,1,27.43-.07v.07a13.72,13.72,0,1,1-27.43.08Zm24.28,0v-.08c0-6.11-4.45-11.1-10.6-11.1s-10.53,4.92-10.53,11v.07c0,6.11,4.46,11.11,10.61,11.11S107.27,603.86,107.27,597.75Z"/><path d="M116.41,599.86V584.23h3v15.44c0,5.8,3.07,9.07,8.22,9.07,5,0,8.11-3,8.11-8.88V584.23h3v15.4c0,7.84-4.49,11.91-11.22,11.91S116.41,607.47,116.41,599.86Z"/><path d="M146,584.23h9.34c8.45,0,14.29,5.8,14.29,13.37v.07c0,7.57-5.84,13.45-14.29,13.45H146Zm3,2.8v21.29h6.3c6.8,0,11.14-4.61,11.14-10.57v-.08c0-5.95-4.34-10.64-11.14-10.64Z"/><path d="M187.56,584.23h2.84l16.95,21.55V584.23h3v26.89h-2.42l-17.36-22v22h-3Z"/><path d="M227.86,584h2.84L243,611.12h-3.27L236.54,604H221.9l-3.19,7.11H215.6Zm7.49,17.25-6.11-13.71-6.15,13.71Z"/><path d="M251.94,587h-9.06v-2.8h21.17V587H255v24.09h-3Z"/><path d="M269.85,584.23h3v26.89h-3Z"/><path d="M278.45,584.23h3.38l9.57,23.16,9.6-23.16h3.27L292.7,611.31H290Z"/><path d="M309.57,584.23H329V587H312.6v9.18h14.68v2.77H312.6v9.41h16.6v2.77H309.57Z"/><path d="M347.1,584.23h3v26.89h-3Z"/><path d="M358,584.23h2.84l16.95,21.55V584.23h3v26.89h-2.43l-17.36-22v22h-3Z"/><path d="M395.35,587h-9.07v-2.8h21.17V587h-9.06v24.09h-3Z"/><path d="M413,584.23h19.44V587H416v9.18H430.7v2.77H416v9.41h16.6v2.77H413Z"/><path d="M437.53,597.75v-.08c0-7.37,5.42-13.91,13.49-13.91a14.13,14.13,0,0,1,10,3.58l-2,2.3a11.48,11.48,0,0,0-8.19-3.07c-5.95,0-10.22,5-10.22,11v.07c0,6.42,4.11,11.18,10.64,11.18a12.68,12.68,0,0,0,7.77-2.69v-6.68H450.9v-2.73H462v10.72a16.31,16.31,0,0,1-10.8,4.11C442.76,611.58,437.53,605.43,437.53,597.75Z"/><path d="M468.84,584.23h11.57a10.59,10.59,0,0,1,7.64,2.68,7.43,7.43,0,0,1,2.08,5.31v.07c0,4.46-3.08,7.07-7.3,7.84l8.26,11h-3.73l-7.8-10.45h-7.68v10.45h-3Zm11.3,13.71c4,0,6.91-2.07,6.91-5.53v-.08c0-3.3-2.53-5.3-6.88-5.3h-8.29v10.91Z"/><path d="M506.57,584h2.84l12.26,27.09H518.4L515.25,604H500.61l-3.19,7.11h-3.11Zm7.49,17.25L508,587.57l-6.15,13.71Z"/><path d="M530.65,587h-9.06v-2.8h21.17V587h-9.07v24.09h-3Z"/><path d="M548.55,584.23h3v26.89h-3Z"/><path d="M558.27,597.75v-.08a13.72,13.72,0,1,1,27.43-.07v.07a13.72,13.72,0,1,1-27.43.08Zm24.28,0v-.08c0-6.11-4.45-11.1-10.6-11.1s-10.53,4.92-10.53,11v.07c0,6.11,4.46,11.11,10.61,11.11S582.55,603.86,582.55,597.75Z"/><path d="M592.12,584.23H595l16.94,21.55V584.23h3v26.89h-2.42l-17.37-22v22h-3Z"/><path d="M634,584.23h19.33V587H637v9.61h14.57v2.76H637v11.72h-3Z"/><path d="M657.42,597.75v-.08a13.72,13.72,0,1,1,27.44-.07v.07a13.72,13.72,0,1,1-27.44.08Zm24.29,0v-.08c0-6.11-4.46-11.1-10.61-11.1s-10.53,4.92-10.53,11v.07c0,6.11,4.46,11.11,10.61,11.11S681.71,603.86,681.71,597.75Z"/><path d="M691.27,584.23h11.56a10.6,10.6,0,0,1,7.65,2.68,7.42,7.42,0,0,1,2.07,5.31v.07c0,4.46-3.07,7.07-7.3,7.84l8.26,11h-3.72L702,600.67H694.3v10.45h-3Zm11.29,13.71c4,0,6.92-2.07,6.92-5.53v-.08c0-3.3-2.54-5.3-6.88-5.3h-8.3v10.91Z"/><path d="M730.57,584.23h3v16.06l15.45-16.06h4L741.44,596l12,15.14h-3.81l-10.33-13-5.73,5.8v7.22h-3Z"/><path d="M757.19,599.86V584.23h3v15.44c0,5.8,3.08,9.07,8.23,9.07,4.95,0,8.1-3,8.1-8.88V584.23h3v15.4c0,7.84-4.5,11.91-11.22,11.91S757.19,607.47,757.19,599.86Z"/><path d="M786.77,584.23h11.45a9.88,9.88,0,0,1,7,2.38,6,6,0,0,1,1.73,4.3V591a6.49,6.49,0,0,1-4.27,6.22c3.19,1,5.77,2.81,5.77,6.5v.07c0,4.61-3.88,7.34-9.76,7.34h-12Zm17.14,7.1c0-2.65-2.12-4.38-6-4.38h-8.18v9.26h8c3.65,0,6.19-1.65,6.19-4.8Zm-5.65,7.57h-8.49v9.49h9c4.07,0,6.6-1.8,6.6-4.8v-.08C805.4,600.59,802.94,598.9,798.26,598.9Z"/><path d="M814.51,584.23H834V587H817.54v9.18h14.68v2.77H817.54v9.41h16.6v2.77H814.51Z"/><path d="M840.24,584.23h11.57a10.64,10.64,0,0,1,7.65,2.68,7.47,7.47,0,0,1,2.07,5.31v.07c0,4.46-3.07,7.07-7.3,7.84l8.26,11h-3.73L851,600.67h-7.68v10.45h-3Zm11.3,13.71c4,0,6.92-2.07,6.92-5.53v-.08c0-3.3-2.54-5.3-6.88-5.3h-8.3v10.91Z"/><path d="M868,584.23h2.84l16.95,21.55V584.23h3v26.89h-2.42l-17.36-22v22h-3Z"/><path d="M898.37,584.23h19.44V587H901.4v9.18h14.68v2.77H901.4v9.41H918v2.77H898.37Z"/><path d="M931,587h-9.07v-2.8h21.17V587H934v24.09h-3Z"/><path d="M948.58,584.23H968V587H951.61v9.18h14.68v2.77H951.61v9.41h16.6v2.77H948.58Z"/><path d="M972.55,607.2l1.88-2.23a12.81,12.81,0,0,0,9.22,3.81c3.61,0,6-1.92,6-4.58v-.07c0-2.5-1.35-3.92-7-5.11-6.18-1.35-9-3.34-9-7.76v-.08c0-4.23,3.72-7.34,8.83-7.34a14,14,0,0,1,9.45,3.31l-1.76,2.34a11.81,11.81,0,0,0-7.76-2.92c-3.5,0-5.73,1.92-5.73,4.34V591c0,2.53,1.38,4,7.3,5.22s8.76,3.5,8.76,7.61v.08c0,4.61-3.84,7.6-9.18,7.6A15.74,15.74,0,0,1,972.55,607.2Z"/></svg>