<?xml version="1.0" encoding="UTF-8" standalone="no"?>
<svg
   xmlns:dc="http://purl.org/dc/elements/1.1/"
   xmlns:cc="http://creativecommons.org/ns#"
   xmlns:rdf="http://www.w3.org/1999/02/22-rdf-syntax-ns#"
   xmlns:svg="http://www.w3.org/2000/svg"
   xmlns="http://www.w3.org/2000/svg"
   xmlns:sodipodi="http://sodipodi.sourceforge.net/DTD/sodipodi-0.dtd"
   xmlns:inkscape="http://www.inkscape.org/namespaces/inkscape"
   version="1.1"
   id="svg2"
   xml:space="preserve"
   width="1333.3333"
   height="833.33331"
   viewBox="0 0 1333.3333 833.33331"
   sodipodi:docname="logo_triggermesh-cnintegrationforkubernetes-stacked-color.eps"><metadata
     id="metadata8"><rdf:RDF><cc:Work
         rdf:about=""><dc:format>image/svg+xml</dc:format><dc:type
           rdf:resource="http://purl.org/dc/dcmitype/StillImage" /></cc:Work></rdf:RDF></metadata><defs
     id="defs6" /><sodipodi:namedview
     pagecolor="#ffffff"
     bordercolor="#666666"
     borderopacity="1"
     objecttolerance="10"
     gridtolerance="10"
     guidetolerance="10"
     inkscape:pageopacity="0"
     inkscape:pageshadow="2"
     inkscape:window-width="640"
     inkscape:window-height="480"
     id="namedview4" /><g
     id="g10"
     inkscape:groupmode="layer"
     inkscape:label="ink_ext_XXXXXX"
     transform="matrix(1.3333333,0,0,-1.3333333,0,833.33333)"><g
       id="g12"
       transform="scale(0.1)"><path
         d="M 7421.45,4616.52 C 7333.38,6211.8 5008.74,6887.61 4001.44,5300.98 3349.51,5581.17 2567.79,5154.01 2556.52,4444.41 1262.23,4315.43 1127.74,2393.24 3035.13,2393.24 h 63.73 c -53.58,151.4 -45.91,310.88 11,451.16 l -199.87,0.92 c -917.49,6.07 -1159.73,1302.06 65.64,1181.77 -222.36,714.61 551.28,1310.41 1201.14,771.79 583.85,1325.86 2740,1366.09 2837.69,-528.18 1199.81,-82.26 1162.27,-1323.12 284.07,-1440.27 h -1224.1 c 87.96,-127.02 107.43,-291.56 45.44,-437.09 h 1178.66 c 1332.48,26.33 1574.02,1951.04 122.92,2223.18"
         style="fill:#4696d8;fill-opacity:1;fill-rule:nonzero;stroke:none"
         id="path14" /><path
         d="m 5466.77,2768.3 c 114.36,0 207.02,-90.24 207.02,-201.62 0,-111.37 -92.66,-201.62 -207.02,-201.62 -114.35,0 -207.01,90.25 -207.01,201.62 0,111.38 92.66,201.62 207.01,201.62 z m -827.89,1061.51 c -85.61,0 -154.97,67.55 -154.97,150.93 0,83.37 69.36,150.93 154.97,150.93 85.59,0 154.96,-67.56 154.96,-150.93 0,-83.38 -69.37,-150.93 -154.96,-150.93 z M 3755.4,2364.33 c -114.35,0 -207.02,90.27 -207.02,201.64 0,111.38 92.67,201.63 207.02,201.63 114.34,0 207.01,-90.25 207.01,-201.63 0,-111.37 -92.67,-201.64 -207.01,-201.64 z m 2559.85,1899.02 c 114.35,0 207.01,-90.26 207.01,-201.64 0,-111.37 -92.66,-201.62 -207.01,-201.62 -114.35,0 -207.03,90.25 -207.03,201.62 0,111.38 92.68,201.64 207.03,201.64 z m -1234.57,-525.65 11.99,19.92 c 122.33,212.92 608.54,226.82 799.21,57.49 62.33,-76.53 116.25,-133.68 202.73,-172.63 238.93,-107.47 521.98,-5.91 632.31,226.8 110.19,232.69 6.06,508.36 -232.93,615.77 -239.01,107.4 -505.58,-2.16 -632.24,-226.73 -141.55,-251.13 -689.3,-174.31 -795.5,-62.44 -75.97,88.98 -167.61,149.19 -262.68,179.66 -72.88,27.97 -154.16,37.9 -237.12,24.88 -246.17,-38.65 -413.56,-264.33 -373.89,-504.1 6.76,-40.79 3.61,-42.84 53.6,-159.39 49.99,-116.57 -192.84,-641.44 -446.57,-687.01 -100.31,-1.98 -179.62,-9.25 -263.72,-52.83 -232.26,-120.37 -320.26,-401.44 -196.7,-627.67 123.58,-226.21 412.09,-311.99 644.44,-191.56 232.2,120.48 303.9,393.6 196.78,627.58 -119.77,261.62 237.42,674.21 440.24,687.09 202.83,12.88 557.27,-454.21 435.52,-672.44 -125.59,-225.11 -76.17,-502.9 145.65,-640.7 222.02,-137.77 516.45,-74.29 657.91,141.96 141.47,216.07 76.18,502.92 -145.67,640.68 -80.34,49.92 -158.99,63.17 -258.77,72.75 -249.25,64.91 -505.06,462.97 -387.16,678.26 4.45,8.17 8.64,16.45 12.57,24.66"
         style="fill:#4696d8;fill-opacity:1;fill-rule:nonzero;stroke:none"
         id="path16" /><path
         d="M 396.395,1445.34 H 85.5508 v 96.16 H 811.293 v -96.16 H 500.449 V 619.488 H 396.395 v 825.852"
         style="fill:#100f0d;fill-opacity:1;fill-rule:nonzero;stroke:none"
         id="path18" /><path
         d="m 1388.16,1071.28 c 138.3,0 237.08,71.12 237.08,189.66 v 2.64 c 0,113.27 -86.93,181.76 -235.76,181.76 h -284.51 v -374.06 z m -387.24,470.22 h 396.46 c 113.27,0 204.16,-34.25 262.11,-92.21 44.78,-44.78 71.12,-109.32 71.12,-181.76 v -2.63 c 0,-152.79 -105.37,-242.36 -250.25,-268.701 L 1763.54,619.488 H 1635.78 L 1368.4,977.762 H 1104.97 V 619.488 H 1000.92 V 1541.5"
         style="fill:#100f0d;fill-opacity:1;fill-rule:nonzero;stroke:none"
         id="path20" /><path
         d="m 1962.39,1541.5 h 104.05 V 619.488 H 1962.39 V 1541.5"
         style="fill:#100f0d;fill-opacity:1;fill-rule:nonzero;stroke:none"
         id="path22" /><path
         d="m 2295.59,1077.86 v 2.64 c 0,252.89 185.72,476.8 462.32,476.8 155.42,0 251.57,-44.78 343.77,-122.49 l -67.17,-79.03 c -71.13,61.9 -150.16,105.37 -280.55,105.37 -204.16,0 -350.36,-172.54 -350.36,-378.02 v -2.63 c 0,-219.969 140.93,-383.289 364.84,-383.289 105.38,0 202.84,40.828 266.07,92.199 v 229.18 h -280.55 v 93.52 h 380.65 V 744.629 C 3049,668.23 2919.92,603.691 2764.49,603.691 c -289.77,0 -468.9,210.75 -468.9,474.169"
         style="fill:#100f0d;fill-opacity:1;fill-rule:nonzero;stroke:none"
         id="path24" /><path
         d="m 3328.19,1077.86 v 2.64 c 0,252.89 185.72,476.8 462.32,476.8 155.42,0 251.57,-44.78 343.77,-122.49 l -67.18,-79.03 c -71.12,61.9 -150.15,105.37 -280.55,105.37 -204.15,0 -350.36,-172.54 -350.36,-378.02 v -2.63 c 0,-219.969 140.94,-383.289 364.85,-383.289 105.37,0 202.84,40.828 266.06,92.199 v 229.18 h -280.55 v 93.52 h 380.66 V 744.629 c -85.62,-76.399 -214.7,-140.938 -370.12,-140.938 -289.77,0 -468.9,210.75 -468.9,474.169"
         style="fill:#100f0d;fill-opacity:1;fill-rule:nonzero;stroke:none"
         id="path26" /><path
         d="m 4401.62,1541.5 h 666.47 v -94.84 h -562.42 v -314.8 h 503.15 v -94.83 H 4505.67 V 714.332 h 569.01 V 619.488 H 4401.62 V 1541.5"
         style="fill:#100f0d;fill-opacity:1;fill-rule:nonzero;stroke:none"
         id="path28" /><path
         d="m 5671.31,1071.28 c 138.3,0 237.08,71.12 237.08,189.66 v 2.64 c 0,113.27 -86.93,181.76 -235.77,181.76 h -284.5 v -374.06 z m -387.24,470.22 h 396.46 c 113.27,0 204.15,-34.25 262.11,-92.21 44.78,-44.78 71.12,-109.32 71.12,-181.76 v -2.63 c 0,-152.79 -105.37,-242.36 -250.25,-268.701 L 6046.69,619.488 H 5918.93 L 5651.55,977.762 H 5388.12 V 619.488 H 5284.07 V 1541.5"
         style="fill:#100f0d;fill-opacity:1;fill-rule:nonzero;stroke:none"
         id="path30" /><path
         d="m 6187.58,1541.5 h 270.02 l 219.96,-356.95 219.96,356.95 h 270.01 V 619.488 h -254.2 v 529.502 l -235.77,-360.9 h -5.27 l -234.45,359.58 V 619.488 H 6187.58 V 1541.5"
         style="fill:#100f0d;fill-opacity:1;fill-rule:nonzero;stroke:none"
         id="path32" /><path
         d="m 7330.81,1541.5 h 741.55 v -216.02 h -488.65 v -140.93 h 442.55 V 983.031 H 7583.71 V 836.82 h 495.24 V 619.488 H 7330.81 V 1541.5"
         style="fill:#100f0d;fill-opacity:1;fill-rule:nonzero;stroke:none"
         id="path34" /><path
         d="m 8140.82,756.48 142.25,169.911 c 92.21,-72.442 192.31,-110.641 299,-110.641 69.8,0 106.68,23.711 106.68,63.219 v 2.64 c 0,39.512 -30.29,59.27 -156.74,89.563 -196.25,44.778 -347.72,100.108 -347.72,288.458 v 2.63 c 0,171.23 135.66,295.04 356.94,295.04 156.74,0 279.24,-42.15 379.34,-122.49 l -127.76,-180.45 c -84.3,60.58 -176.5,90.88 -258.16,90.88 -61.91,0 -92.2,-25.02 -92.2,-59.27 v -2.64 c 0,-42.15 31.61,-60.58 160.69,-89.56 210.74,-46.1 342.46,-114.59 342.46,-287.141 V 904 c 0,-188.352 -148.84,-300.309 -372.76,-300.309 -163.32,0 -317.42,51.368 -432.02,152.789"
         style="fill:#100f0d;fill-opacity:1;fill-rule:nonzero;stroke:none"
         id="path36" /><path
         d="m 9069.37,1541.5 h 255.52 v -345.1 h 327.97 v 345.1 h 255.53 V 619.488 H 9652.86 V 969.859 H 9324.89 V 619.488 H 9069.37 V 1541.5"
         style="fill:#100f0d;fill-opacity:1;fill-rule:nonzero;stroke:none"
         id="path38" /><path
         d="m 326.656,272.5 v 0.77 c 0,76.07 56.864,139.089 136.012,139.089 48.797,0 77.996,-17.289 104.891,-42.648 l -20.746,-22.289 c -22.672,21.519 -48.028,36.891 -84.528,36.891 -59.555,0 -104.125,-48.411 -104.125,-110.274 v -0.769 c 0,-62.239 44.953,-111.04 104.125,-111.04 36.883,0 61.09,14.219 86.832,38.809 l 19.977,-19.598 C 541.047,153.012 510.313,134.18 461.516,134.18 c -77.614,0 -134.86,61.101 -134.86,138.32"
         style="fill:#100f0d;fill-opacity:1;fill-rule:nonzero;stroke:none"
         id="path40" /><path
         d="m 623.609,407.75 h 30.356 V 166.84 H 805.344 V 138.789 H 623.609 V 407.75"
         style="fill:#100f0d;fill-opacity:1;fill-rule:nonzero;stroke:none"
         id="path42" /><path
         d="m 1072.73,272.5 v 0.77 c 0,61.089 -44.57,111.043 -106.046,111.043 -61.473,0 -105.274,-49.184 -105.274,-110.274 v -0.769 c 0,-61.09 44.567,-111.04 106.043,-111.04 61.477,0 105.277,49.18 105.277,110.27 z m -242.828,0 v 0.77 c 0,74.152 55.711,139.089 137.551,139.089 81.837,0 136.777,-64.168 136.777,-138.32 v -0.769 c 0,-74.161 -55.71,-139.09 -137.546,-139.09 -81.836,0 -136.782,64.172 -136.782,138.32"
         style="fill:#100f0d;fill-opacity:1;fill-rule:nonzero;stroke:none"
         id="path44" /><path
         d="M 1164.12,251.371 V 407.75 h 30.36 V 253.289 c 0,-58.008 30.73,-90.68 82.22,-90.68 49.56,0 81.07,29.981 81.07,88.762 V 407.75 h 30.35 V 253.672 c 0,-78.371 -44.95,-119.102 -112.19,-119.102 -66.47,0 -111.81,40.731 -111.81,116.801"
         style="fill:#100f0d;fill-opacity:1;fill-rule:nonzero;stroke:none"
         id="path46" /><path
         d="M 1490.28,379.699 V 166.84 h 63.01 c 68.01,0 111.42,46.109 111.42,105.66 v 0.77 c 0,59.55 -43.41,106.429 -111.42,106.429 z m -30.35,28.051 h 93.36 c 84.53,0 142.93,-58.02 142.93,-133.711 v -0.769 c 0,-75.688 -58.4,-134.481 -142.93,-134.481 h -93.36 V 407.75"
         style="fill:#100f0d;fill-opacity:1;fill-rule:nonzero;stroke:none"
         id="path48" /><path
         d="m 1875.58,407.75 h 28.44 L 2073.46,192.199 V 407.75 h 29.58 V 138.789 h -24.2 L 1905.17,359.332 V 138.789 h -29.59 V 407.75"
         style="fill:#100f0d;fill-opacity:1;fill-rule:nonzero;stroke:none"
         id="path50" /><path
         d="m 2353.51,237.152 -61.09,137.168 -61.48,-137.168 z m -74.93,172.52 h 28.44 l 122.56,-270.883 h -32.66 l -31.5,71.09 h -146.39 l -31.89,-71.09 h -31.12 l 122.56,270.883"
         style="fill:#100f0d;fill-opacity:1;fill-rule:nonzero;stroke:none"
         id="path52" /><path
         d="m 2519.45,379.699 h -90.68 v 28.051 h 211.71 v -28.051 h -90.68 v -240.91 h -30.35 v 240.91"
         style="fill:#100f0d;fill-opacity:1;fill-rule:nonzero;stroke:none"
         id="path54" /><path
         d="m 2698.46,407.75 h 30.35 V 138.789 h -30.35 V 407.75"
         style="fill:#100f0d;fill-opacity:1;fill-rule:nonzero;stroke:none"
         id="path56" /><path
         d="m 2784.5,407.75 h 33.81 l 95.67,-231.691 96.06,231.691 h 32.65 L 2927.04,136.871 h -26.89 L 2784.5,407.75"
         style="fill:#100f0d;fill-opacity:1;fill-rule:nonzero;stroke:none"
         id="path58" /><path
         d="m 3095.68,407.75 h 194.41 V 380.082 H 3126.03 V 288.25 h 146.77 v -27.66 h -146.77 v -94.129 h 165.98 V 138.789 H 3095.68 V 407.75"
         style="fill:#100f0d;fill-opacity:1;fill-rule:nonzero;stroke:none"
         id="path60" /><path
         d="m 3471,407.75 h 30.35 V 138.789 H 3471 V 407.75"
         style="fill:#100f0d;fill-opacity:1;fill-rule:nonzero;stroke:none"
         id="path62" /><path
         d="m 3580.1,407.75 h 28.43 L 3777.97,192.199 V 407.75 h 29.58 V 138.789 h -24.2 L 3609.68,359.332 V 138.789 H 3580.1 V 407.75"
         style="fill:#100f0d;fill-opacity:1;fill-rule:nonzero;stroke:none"
         id="path64" /><path
         d="m 3953.51,379.699 h -90.67 v 28.051 h 211.7 v -28.051 h -90.68 v -240.91 h -30.35 v 240.91"
         style="fill:#100f0d;fill-opacity:1;fill-rule:nonzero;stroke:none"
         id="path66" /><path
         d="m 4129.83,407.75 h 194.41 V 380.082 H 4160.18 V 288.25 h 146.77 v -27.66 h -146.77 v -94.129 h 165.98 V 138.789 H 4129.83 V 407.75"
         style="fill:#100f0d;fill-opacity:1;fill-rule:nonzero;stroke:none"
         id="path68" /><path
         d="m 4375.31,272.5 v 0.77 c 0,73.769 54.17,139.089 134.86,139.089 45.34,0 73.38,-13.07 100.28,-35.738 l -19.6,-23.051 c -20.75,18.059 -43.8,30.743 -81.84,30.743 -59.55,0 -102.2,-50.333 -102.2,-110.274 v -0.769 c 0,-64.168 41.11,-111.809 106.43,-111.809 30.74,0 59.17,11.91 77.61,26.898 v 66.852 h -81.84 v 27.281 h 111.04 V 175.301 c -24.97,-22.289 -62.62,-41.121 -107.96,-41.121 -84.53,0 -136.78,61.48 -136.78,138.32"
         style="fill:#100f0d;fill-opacity:1;fill-rule:nonzero;stroke:none"
         id="path70" /><path
         d="m 4801.36,270.582 c 40.34,0 69.16,20.75 69.16,55.328 v 0.762 c 0,33.047 -25.36,53.027 -68.78,53.027 h -82.99 V 270.582 Z M 4688.4,407.75 h 115.65 c 33.04,0 59.55,-9.988 76.46,-26.898 13.06,-13.063 20.75,-31.891 20.75,-53.02 v -0.773 c 0,-44.567 -30.74,-70.7 -73,-78.379 l 82.6,-109.891 h -37.27 l -77.99,104.512 h -76.85 V 138.789 H 4688.4 V 407.75"
         style="fill:#100f0d;fill-opacity:1;fill-rule:nonzero;stroke:none"
         id="path72" /><path
         d="m 5140.58,237.152 -61.09,137.168 -61.47,-137.168 z m -74.92,172.52 h 28.43 L 5216.66,138.789 H 5184 l -31.51,71.09 h -146.38 l -31.89,-71.09 h -31.12 l 122.56,270.883"
         style="fill:#100f0d;fill-opacity:1;fill-rule:nonzero;stroke:none"
         id="path74" /><path
         d="m 5306.53,379.699 h -90.68 v 28.051 h 211.7 v -28.051 h -90.67 v -240.91 h -30.35 v 240.91"
         style="fill:#100f0d;fill-opacity:1;fill-rule:nonzero;stroke:none"
         id="path76" /><path
         d="m 5485.53,407.75 h 30.36 V 138.789 h -30.36 V 407.75"
         style="fill:#100f0d;fill-opacity:1;fill-rule:nonzero;stroke:none"
         id="path78" /><path
         d="m 5825.54,272.5 v 0.77 c 0,61.089 -44.57,111.043 -106.04,111.043 -61.48,0 -105.28,-49.184 -105.28,-110.274 v -0.769 c 0,-61.09 44.57,-111.04 106.05,-111.04 61.47,0 105.27,49.18 105.27,110.27 z m -242.82,0 v 0.77 c 0,74.152 55.71,139.089 137.55,139.089 81.84,0 136.78,-64.168 136.78,-138.32 v -0.769 c 0,-74.161 -55.71,-139.09 -137.55,-139.09 -81.84,0 -136.78,64.172 -136.78,138.32"
         style="fill:#100f0d;fill-opacity:1;fill-rule:nonzero;stroke:none"
         id="path80" /><path
         d="m 5921.16,407.75 h 28.44 L 6119.04,192.199 V 407.75 h 29.58 V 138.789 h -24.21 L 5950.75,359.332 V 138.789 h -29.59 V 407.75"
         style="fill:#100f0d;fill-opacity:1;fill-rule:nonzero;stroke:none"
         id="path82" /><path
         d="m 6339.9,407.75 h 193.26 v -28.051 h -162.91 v -96.051 h 145.62 V 255.98 H 6370.25 V 138.789 H 6339.9 V 407.75"
         style="fill:#100f0d;fill-opacity:1;fill-rule:nonzero;stroke:none"
         id="path84" /><path
         d="m 6817.06,272.5 v 0.77 c 0,61.089 -44.57,111.043 -106.05,111.043 -61.47,0 -105.27,-49.184 -105.27,-110.274 v -0.769 c 0,-61.09 44.57,-111.04 106.04,-111.04 61.48,0 105.28,49.18 105.28,110.27 z m -242.83,0 v 0.77 c 0,74.152 55.71,139.089 137.55,139.089 81.84,0 136.78,-64.168 136.78,-138.32 v -0.769 c 0,-74.161 -55.71,-139.09 -137.55,-139.09 -81.84,0 -136.78,64.172 -136.78,138.32"
         style="fill:#100f0d;fill-opacity:1;fill-rule:nonzero;stroke:none"
         id="path86" /><path
         d="m 7025.64,270.582 c 40.34,0 69.16,20.75 69.16,55.328 v 0.762 c 0,33.047 -25.36,53.027 -68.78,53.027 h -82.99 V 270.582 Z M 6912.68,407.75 h 115.65 c 33.04,0 59.55,-9.988 76.46,-26.898 13.06,-13.063 20.74,-31.891 20.74,-53.02 v -0.773 c 0,-44.567 -30.73,-70.7 -73,-78.379 l 82.61,-109.891 h -37.27 l -78,104.512 h -76.84 V 138.789 h -30.35 V 407.75"
         style="fill:#100f0d;fill-opacity:1;fill-rule:nonzero;stroke:none"
         id="path88" /><path
         d="m 7305.67,407.75 h 30.35 V 247.141 l 154.46,160.609 h 39.57 L 7414.4,290.18 7534.66,138.789 h -38.03 l -103.36,130.262 -57.25,-58.02 v -72.242 h -30.35 V 407.75"
         style="fill:#100f0d;fill-opacity:1;fill-rule:nonzero;stroke:none"
         id="path90" /><path
         d="M 7571.89,251.371 V 407.75 h 30.36 V 253.289 c 0,-58.008 30.73,-90.68 82.22,-90.68 49.56,0 81.07,29.981 81.07,88.762 V 407.75 h 30.35 V 253.672 c 0,-78.371 -44.95,-119.102 -112.19,-119.102 -66.47,0 -111.81,40.731 -111.81,116.801"
         style="fill:#100f0d;fill-opacity:1;fill-rule:nonzero;stroke:none"
         id="path92" /><path
         d="m 7982.57,260.969 h -84.91 v -94.891 h 90.29 c 40.73,0 66.09,18.051 66.09,48.024 v 0.769 c 0,29.199 -24.59,46.098 -71.47,46.098 z m 56.48,75.691 c 0,26.52 -21.13,43.809 -59.55,43.809 h -81.84 v -92.598 h 79.54 c 36.5,0 61.85,16.52 61.85,48.031 z m -171.36,71.09 h 114.5 c 30.74,0 54.94,-8.84 70.31,-23.828 11.14,-11.524 17.29,-25.742 17.29,-43.031 v -0.77 c 0,-34.961 -21.52,-53.019 -42.65,-62.242 31.89,-9.609 57.64,-28.051 57.64,-64.93 v -0.769 c 0,-46.102 -38.81,-73.391 -97.59,-73.391 h -119.5 V 407.75"
         style="fill:#100f0d;fill-opacity:1;fill-rule:nonzero;stroke:none"
         id="path94" /><path
         d="m 8145.05,407.75 h 194.42 V 380.082 H 8175.41 V 288.25 h 146.77 v -27.66 h -146.77 v -94.129 h 165.98 V 138.789 H 8145.05 V 407.75"
         style="fill:#100f0d;fill-opacity:1;fill-rule:nonzero;stroke:none"
         id="path96" /><path
         d="m 8515.4,270.582 c 40.35,0 69.16,20.75 69.16,55.328 v 0.762 c 0,33.047 -25.36,53.027 -68.77,53.027 H 8432.8 V 270.582 Z M 8402.44,407.75 h 115.65 c 33.05,0 59.56,-9.988 76.46,-26.898 13.07,-13.063 20.75,-31.891 20.75,-53.02 v -0.773 c 0,-44.567 -30.74,-70.7 -73,-78.379 l 82.61,-109.891 h -37.27 l -78,104.512 H 8432.8 V 138.789 h -30.36 V 407.75"
         style="fill:#100f0d;fill-opacity:1;fill-rule:nonzero;stroke:none"
         id="path98" /><path
         d="m 8680.19,407.75 h 28.43 L 8878.06,192.199 V 407.75 h 29.59 V 138.789 h -24.21 L 8709.78,359.332 V 138.789 h -29.59 V 407.75"
         style="fill:#100f0d;fill-opacity:1;fill-rule:nonzero;stroke:none"
         id="path100" /><path
         d="m 8983.68,407.75 h 194.41 V 380.082 H 9014.03 V 288.25 h 146.77 v -27.66 h -146.77 v -94.129 h 165.99 V 138.789 H 8983.68 V 407.75"
         style="fill:#100f0d;fill-opacity:1;fill-rule:nonzero;stroke:none"
         id="path102" /><path
         d="m 9309.46,379.699 h -90.68 v 28.051 h 211.71 v -28.051 h -90.68 v -240.91 h -30.35 v 240.91"
         style="fill:#100f0d;fill-opacity:1;fill-rule:nonzero;stroke:none"
         id="path104" /><path
         d="m 9485.78,407.75 h 194.41 V 380.082 H 9516.13 V 288.25 h 146.77 v -27.66 h -146.77 v -94.129 h 165.98 V 138.789 H 9485.78 V 407.75"
         style="fill:#100f0d;fill-opacity:1;fill-rule:nonzero;stroke:none"
         id="path106" /><path
         d="m 9725.49,177.98 18.83,22.29 c 28.05,-25.36 54.94,-38.04 92.21,-38.04 36.12,0 59.94,19.211 59.94,45.719 v 0.77 c 0,24.972 -13.45,39.191 -69.93,51.101 -61.86,13.45 -90.29,33.43 -90.29,77.61 v 0.781 c 0,42.258 37.27,73.371 88.37,73.371 39.19,0 67.24,-11.133 94.52,-33.031 l -17.67,-23.442 c -24.98,20.36 -49.95,29.204 -77.62,29.204 -34.96,0 -57.25,-19.211 -57.25,-43.422 v -0.77 c 0,-25.351 13.84,-39.57 73.01,-52.25 59.93,-13.062 87.6,-34.973 87.6,-76.082 v -0.758 c 0,-46.109 -38.43,-76.082 -91.83,-76.082 -42.65,0 -77.61,14.223 -109.89,43.031"
         style="fill:#100f0d;fill-opacity:1;fill-rule:nonzero;stroke:none"
         id="path108" /></g></g></svg>
