<svg xmlns="http://www.w3.org/2000/svg" role="img" viewBox="3.98 1.98 391.04 71.54"><defs><style>.cls-1{fill:#0096db}</style></defs><path d="M90.00049 31.50111C88.81506 9.45356 57.52362.11366 43.96466 22.04157c-8.77545-3.87237-19.298 2.03113-19.44952 11.8382-17.42206 1.78259-19.23243 28.34814 6.44232 28.34814h.85779a8.97821 8.97821 0 01.14813-6.23523L29.273 55.98c-12.35-.084-15.61084-17.99512.88361-16.33276-2.99311-9.8761 7.42059-18.11048 16.16821-10.66645 7.85907-18.324 36.88232-18.88 38.1972 7.29968 16.15039 1.13691 15.645 18.28626 3.8238 19.90522H71.86865a6.42308 6.42308 0 01.61157 6.04083h15.86561c17.93609-.3639 21.18756-26.96424 1.65466-30.72541z" class="cls-1"/><path d="M58.492 43.6468l.1615-.27533c1.64667-2.94263 8.19129-3.13465 10.75794-.7945a7.349 7.349 0 002.72882 2.38593 6.4129 6.4129 0 105.37591-11.64478 6.58262 6.58262 0 00-8.51025 3.13355c-1.90546 3.47064-9.2785 2.409-10.70813.86291a7.82434 7.82434 0 00-3.53589-2.483 6.07821 6.07821 0 00-8.22455 6.62311 6.79794 6.79794 0 00.7215 2.20282c.67285 1.611-2.59576 8.86505-6.01117 9.49475a7.32318 7.32318 0 00-3.54987.73022 6.41314 6.41314 0 106.02692 11.32209 6.58426 6.58426 0 002.64874-8.67346c-1.61224-3.61567 3.19593-9.31781 5.926-9.49585 2.73022-.178 7.50128 6.27734 5.86249 9.29345a6.58442 6.58442 0 001.96045 8.85474A6.41365 6.41365 0 0067.01758 54.367a7.31764 7.31764 0 00-3.48322-1.00549c-3.35516-.897-6.79852-6.39844-5.21142-9.37384a7.47942 7.47942 0 00.16906-.34087zm16.61823-7.26465a2.78662 2.78662 0 11-2.78674 2.78668 2.78631 2.78631 0 012.78674-2.78668zM40.65277 62.62739a2.78662 2.78662 0 112.78656-2.78662 2.78644 2.78644 0 01-2.78656 2.78662zM52.5451 42.37391a2.086 2.086 0 112.0859-2.08606 2.08574 2.08574 0 01-2.0859 2.08606zm11.14405 14.67041a2.78653 2.78653 0 11-2.7865 2.78656 2.78612 2.78612 0 012.7865-2.78656z" class="cls-1"/><path d="M125.669 25.32044h-8.459V22.693h19.79785v2.62744h-8.459v22.56934H125.669zm16.6684-2.62744h10.83448a9.93678 9.93678 0 017.16357 2.51953 6.96053 6.96053 0 011.94336 4.96729v.07226c0 4.1753-2.8794 6.623-6.83887 7.34278l7.73877 10.29492h-3.49121l-7.30713-9.791h-7.19922v9.791h-2.84375zm10.58252 12.8501c3.77979 0 6.47949-1.94336 6.47949-5.18311v-.07177c0-3.09571-2.376-4.96778-6.44336-4.96778h-7.7749V35.5431zm15.69727-12.8501h2.84375v25.19678h-2.84375zm9.10791 12.67041v-.07226c0-6.91114 5.07519-13.03028 12.63428-13.03028a13.277 13.277 0 019.39453 3.34766l-1.835 2.15967a10.72 10.72 0 00-7.668-2.8794c-5.57813 0-9.57422 4.71533-9.57422 10.33057v.07178c0 6.01123 3.85156 10.47509 9.9707 10.47509a11.86766 11.86766 0 007.27149-2.52V36.983h-7.668v-2.55562h10.40342v10.043a15.27029 15.27029 0 01-10.11524 3.85156c-7.91845-.00003-12.81396-5.75931-12.81396-12.95853zm28.22314 0v-.07226c0-6.91114 5.07617-13.03028 12.63477-13.03028a13.277 13.277 0 019.39453 3.34766l-1.835 2.15967a10.71928 10.71928 0 00-7.667-2.8794c-5.58008 0-9.5752 4.71533-9.5752 10.33057v.07178c0 6.01123 3.85156 10.47509 9.9707 10.47509a11.86763 11.86763 0 007.27149-2.52V36.983h-7.667v-2.55562h10.40234v10.043a15.27026 15.27026 0 01-10.11523 3.85156c-7.91889-.00003-12.8144-5.75931-12.8144-12.95853zM235.28809 22.693H253.502v2.5918h-15.37016v8.60254h13.75v2.59179h-13.75V45.298h15.5498v2.5918h-18.39355zm24.12011 0h10.835a9.93552 9.93552 0 017.16309 2.51953 6.96053 6.96053 0 011.94336 4.96729v.07226c0 4.1753-2.87988 6.623-6.83887 7.34278L280.25 47.88978h-3.49219l-7.30664-9.791H262.252v9.791h-2.8438zm10.583 12.8501c3.7793 0 6.47852-1.94336 6.47852-5.18311v-.07177c0-3.09571-2.375-4.96778-6.44239-4.96778H262.252V35.5431zm14.90528-12.8501h5.97559l6.623 10.65479 6.623-10.65479h5.97559v25.19678h-5.50781V31.44007l-7.09082 10.76221h-.14356L290.332 31.548v16.3418h-5.43555zm31.24707 0h19.00586v4.93115h-13.498v5.11133h11.87789v4.93164h-11.87793v5.29151h13.67773v4.93115h-19.18555zm22.39258 21.52539l3.27539-3.92383a11.55742 11.55742 0 007.52344 3.05957c2.26758 0 3.63574-.8999 3.63574-2.37548v-.07178c0-1.40381-.86425-2.124-5.07617-3.20361-5.07519-1.2959-8.35058-2.69971-8.35058-7.70313v-.07227c0-4.57128 3.67187-7.59472 8.81933-7.59472a14.58553 14.58553 0 019.3584 3.20361L354.8418 29.712a11.82053 11.82053 0 00-6.55078-2.48388c-2.124 0-3.24024.97217-3.24024 2.1958v.07226c0 1.65577 1.08008 2.1958 5.43555 3.31153 5.11133 1.33154 7.99121 3.16748 7.99121 7.55908v.07178c0 5.00341-3.81543 7.811-9.251 7.811a16.03269 16.03269 0 01-10.69041-4.03118zM363.30371 22.693h5.54395v9.9707h10.22265V22.693h5.543v25.19678h-5.543V37.775h-10.22265v10.11478h-5.54395zM117.7915 59.64124v-.02392a4.2297 4.2297 0 014.24561-4.3418 4.36951 4.36951 0 013.27441 1.33154l-.64746.6958a3.64929 3.64929 0 00-2.63867-1.15136 3.29152 3.29152 0 00-3.25049 3.44189v.02393a3.313 3.313 0 003.25049 3.46631 3.64472 3.64472 0 002.71045-1.21143l.62354.61182a4.37231 4.37231 0 01-3.35792 1.47509 4.18783 4.18783 0 01-4.20996-4.31787zm9.22803-4.22168h.94727v7.52h4.72558v.87549h-5.67285zm6.57568 4.22168v-.02392a4.282 4.282 0 118.56348-.02393v.02393a4.282 4.282 0 11-8.56348.02392zm7.58008 0v-.02392a3.33771 3.33771 0 00-3.31006-3.46582 3.29829 3.29829 0 00-3.28662 3.44189v.02393a3.33824 3.33824 0 003.31055 3.46631 3.298 3.298 0 003.28613-3.44239zm2.85987.65967v-4.88135h.94726v4.82129c0 1.811.95947 2.83057 2.56641 2.83057 1.54736 0 2.53076-.93555 2.53076-2.77051v-4.88135h.94727v4.80957c0 2.44678-1.40284 3.71778-3.502 3.71778a3.289 3.289 0 01-3.4897-3.646zm9.23974-4.88135h2.9141a4.18484 4.18484 0 014.46192 4.17383v.02393a4.20326 4.20326 0 01-4.46192 4.19775h-2.9141zm2.91406 7.52a3.24949 3.24949 0 003.478-3.29834v-.02392a3.26778 3.26778 0 00-3.478-3.32227h-1.96679v6.64453zm10.06934-7.52h.88721l5.28906 6.72852v-6.72852h.92383v8.39551h-.75586l-5.4209-6.88428v6.88428h-.92334zm12.58594-.06005h.88769l3.82569 8.45556h-1.019l-.98388-2.21875h-4.56934l-.99512 2.21875h-.97168zm2.33887 5.38525l-1.90674-4.28176-1.91895 4.28174zm5.17431-4.44971h-2.81885v-.87549h6.5962v.87549h-2.81836v7.52h-.959zm5.64063-.87549h.94726v8.39551h-.94726zm2.6875 0h1.05566l2.98633 7.23194 2.999-7.23194h1.01953l-3.61035 8.45557h-.83984zm9.7207 0h6.06836v.86377h-5.12109v2.86621h4.58105v.86377h-4.58105v2.938h5.18066v.86377h-6.12793zm11.08789 7.17237l.58691-.6958a4 4 0 002.87793 1.1875c1.12793 0 1.8711-.59961 1.8711-1.42725v-.02393c0-.77978-.41992-1.22363-2.18164-1.59521-1.93164-.41992-2.81836-1.04346-2.81836-2.42285v-.02393a2.47776 2.47776 0 012.75781-2.29053 4.381 4.381 0 012.9502 1.03125l-.55176.73145a3.68451 3.68451 0 00-2.42188-.91113c-1.09179 0-1.78711.59961-1.78711 1.355v.02392c0 .79151.43164 1.23536 2.27832 1.63135 1.8711.40772 2.73438 1.09131 2.73438 2.37451v.02393c0 1.43945-1.19922 2.375-2.86621 2.375a4.90936 4.90936 0 01-3.42969-1.34328zm8.23145-7.17237h6.06841v.86377h-5.1211v2.86621h4.58106v.86377h-4.58106v2.938h5.18067v.86377h-6.12793zm8.04003 0h3.60938a3.30934 3.30934 0 012.38672.83985 2.31663 2.31663 0 01.64844 1.65478v.02393a2.45726 2.45726 0 01-2.2793 2.44678l2.57812 3.43017h-1.1621l-2.43555-3.26221h-2.39844v3.26221h-.94727zm3.5254 4.28174c1.25976 0 2.15918-.64746 2.15918-1.72705v-.02392c0-1.03125-.792-1.65528-2.14649-1.65528h-2.59082v3.40625zm4.1914-4.28174h1.05469l2.98633 7.23194 2.998-7.23194h1.01956l-3.60938 8.45557h-.83984zm9.71875 0h6.06934v.86377h-5.12207v2.86621h4.582v.86377h-4.582v2.938h5.18164v.86377h-6.12891zm8.04004 0h3.60938a3.30769 3.30769 0 012.38671.83985 2.31659 2.31659 0 01.64844 1.65478v.02393a2.45726 2.45726 0 01-2.27929 2.44678l2.5791 3.43017h-1.16407l-2.43457-3.26221h-2.39843v3.26221h-.94727zm3.52637 4.28174c1.25879 0 2.1582-.64746 2.1582-1.72705v-.02392c0-1.03125-.791-1.65528-2.14648-1.65528h-2.59082v3.40625zm5.14942-4.28174h.94727v7.52h4.72558v.87549H265.917zm7.42773 0h6.06836v.86377H274.292v2.86621h4.582v.86377h-4.582v2.938h5.18164v.86377h-6.1289zm7.48827 7.17237l.58789-.6958a3.99674 3.99674 0 002.87793 1.1875c1.12793 0 1.87109-.59961 1.87109-1.42725v-.02393c0-.77978-.41992-1.22363-2.18262-1.59521-1.93066-.41992-2.81835-1.04346-2.81835-2.42285v-.02393a2.47832 2.47832 0 012.75781-2.29053 4.38176 4.38176 0 012.95117 1.03125l-.55176.73145a3.68873 3.68873 0 00-2.42285-.91113c-1.0918 0-1.78711.59961-1.78711 1.355v.02392c0 .79151.43164 1.23536 2.27832 1.63135 1.87109.40772 2.73535 1.09131 2.73535 2.37451v.02393c0 1.43945-1.20019 2.375-2.86718 2.375a4.91272 4.91272 0 01-3.42969-1.34328zm7.55958 0l.58789-.6958a3.99674 3.99674 0 002.87793 1.1875c1.12793 0 1.87109-.59961 1.87109-1.42725v-.02393c0-.77978-.41992-1.22363-2.18261-1.59521-1.93067-.41992-2.81836-1.04346-2.81836-2.42285v-.02393a2.47832 2.47832 0 012.75781-2.29053 4.38176 4.38176 0 012.95117 1.03125l-.55176.73145a3.68873 3.68873 0 00-2.42285-.91113c-1.0918 0-1.78711.59961-1.78711 1.355v.02392c0 .79151.43164 1.23536 2.27832 1.63135 1.8711.40772 2.73535 1.09131 2.73535 2.37451v.02393c0 1.43945-1.20019 2.375-2.86718 2.375a4.91272 4.91272 0 01-3.42969-1.34328zm11.91504-7.17237h.94726v8.39551h-.94726zm3.4082 0h.8877l5.28906 6.72852v-6.72852h.92285v8.39551h-.75488l-5.4209-6.88428v6.88428h-.92383zm11.69824.87549h-2.81836v-.87549h6.59571v.87549h-2.81836v7.52h-.959zm5.55762-.87549H327.04v.86377h-5.121v2.86621h4.582v.86377h-4.582v2.938h5.18164v.86377h-6.12891zm7.66797 4.22168v-.02392a4.21329 4.21329 0 014.21-4.3418 4.42232 4.42232 0 013.12988 1.11572l-.61133.71973a3.5699 3.5699 0 00-2.55468-.95947 3.2792 3.2792 0 00-3.19043 3.44189v.02393a3.244 3.244 0 003.32226 3.49023 3.95387 3.95387 0 002.42285-.83984v-2.08643h-2.55468v-.85156h3.46582v3.34619a5.08844 5.08844 0 01-3.37012 1.2832 4.11686 4.11686 0 01-4.26957-4.31787zm9.78027-4.22168h3.61035a3.30688 3.30688 0 012.38575.83985 2.31662 2.31662 0 01.64843 1.65478v.02393a2.45726 2.45726 0 01-2.27929 2.44678l2.5791 3.43017h-1.16406l-2.43458-3.26221h-2.39843v3.26221h-.94727zm3.52637 4.28174c1.25879 0 2.1582-.64746 2.1582-1.72705v-.02392c0-1.03125-.791-1.65528-2.14648-1.65528h-2.59082v3.40625zm8.25586-4.34179h.88672l3.82617 8.45556h-1.01953l-.9834-2.21875h-4.56934l-.99511 2.21875h-.97166zm2.33887 5.38525l-1.90723-4.28176-1.91895 4.28174zm6.53906-5.08106h-3.05567v-.9487h7.15039v.94873h-3.05468v8.15137h-1.04zm6.10937-.9487h1.02735v9.1001h-1.02735zm3.28907 4.57615v-.02637a4.64142 4.64142 0 119.28222-.02588v.02588a4.64141 4.64141 0 11-9.28222.02637zm8.21679 0v-.02637a3.61864 3.61864 0 00-3.58886-3.75684 3.57441 3.57441 0 00-3.56153 3.731v.02588a3.618 3.618 0 003.58789 3.75732 3.57518 3.57518 0 003.5625-3.73099zm3.23633-4.57615h.96191l5.7334 7.293v-7.293h1.001v9.1001h-.81934l-5.876-7.4624v7.4624h-1.001z"/></svg>