<?xml version="1.0" encoding="UTF-8" standalone="no"?>
<svg
   xmlns:dc="http://purl.org/dc/elements/1.1/"
   xmlns:cc="http://creativecommons.org/ns#"
   xmlns:rdf="http://www.w3.org/1999/02/22-rdf-syntax-ns#"
   xmlns:svg="http://www.w3.org/2000/svg"
   xmlns="http://www.w3.org/2000/svg"
   xmlns:sodipodi="http://sodipodi.sourceforge.net/DTD/sodipodi-0.dtd"
   xmlns:inkscape="http://www.inkscape.org/namespaces/inkscape"
   version="1.1"
   id="svg2"
   xml:space="preserve"
   width="800"
   height="207.17332"
   viewBox="0 0 800 207.17332"
   sodipodi:docname="Trilio 2020 logo PMS gray-green (2).eps"><metadata
     id="metadata8"><rdf:RDF><cc:Work
         rdf:about=""><dc:format>image/svg+xml</dc:format><dc:type
           rdf:resource="http://purl.org/dc/dcmitype/StillImage" /></cc:Work></rdf:RDF></metadata><defs
     id="defs6" /><sodipodi:namedview
     pagecolor="#ffffff"
     bordercolor="#666666"
     borderopacity="1"
     objecttolerance="10"
     gridtolerance="10"
     guidetolerance="10"
     inkscape:pageopacity="0"
     inkscape:pageshadow="2"
     inkscape:window-width="640"
     inkscape:window-height="480"
     id="namedview4" /><g
     id="g10"
     inkscape:groupmode="layer"
     inkscape:label="ink_ext_XXXXXX"
     transform="matrix(1.3333333,0,0,-1.3333333,0,207.17333)"><g
       id="g12"
       transform="scale(0.1)"><path
         d="m 0,1297.86 v -222.4 H 358.785 V 53.082 H 591.23 V 1075.46 h 358.754 v 222.4 H 0"
         style="fill:#2f3844;fill-opacity:1;fill-rule:nonzero;stroke:none"
         id="path14" /><path
         d="m 1425.99,726.828 h 208.86 c 149.89,0 207.16,89.27 207.16,180.227 0,94.335 -62.31,176.845 -181.91,176.845 H 1425.99 Z M 1579.25,519.621 H 1425.99 V 53.0586 h -229.1 V 1297.84 h 463.21 c 284.69,0 417.76,-186.99 417.76,-389.098 0,-151.629 -79.18,-303.207 -261.12,-362.164 L 2130.06,53.0586 H 1857.19 L 1579.25,519.621"
         style="fill:#2f3844;fill-opacity:1;fill-rule:nonzero;stroke:none"
         id="path16" /><path
         d="M 2653.42,53.0391 H 2422.66 V 1297.81 h 230.76 V 53.0391"
         style="fill:#2f3844;fill-opacity:1;fill-rule:nonzero;stroke:none"
         id="path18" /><path
         d="m 3036.78,1297.84 h 230.78 V 273.719 h 640.05 V 53.0703 H 3036.78 V 1297.84"
         style="fill:#2f3844;fill-opacity:1;fill-rule:nonzero;stroke:none"
         id="path20" /><path
         d="M 4393.24,53.0391 H 4162.46 V 1297.81 h 230.78 V 53.0391"
         style="fill:#2f3844;fill-opacity:1;fill-rule:nonzero;stroke:none"
         id="path22" /><path
         d="m 5342.01,89.7383 c 155.66,0 299.7,58.8127 405.67,165.5237 107.12,107.929 165.53,255.347 164.42,415.156 0,326.855 -250.41,582.882 -570.09,582.882 h -65.52 v -45.07 h 65.52 c 294.44,0 525.04,-236.3 525.04,-537.988 1.08,-147.781 -52.69,-283.902 -151.35,-383.254 -97.44,-98.136 -230.16,-152.199 -373.69,-152.199 -299.33,0 -525.02,230.262 -525.02,535.652 0,133.539 46.18,260.469 130.19,357.969 l -32.15,32.12 c -92.3,-105.889 -143.08,-244.253 -143.08,-390.089 0,-331.05 245.06,-580.7027 570.06,-580.7027"
         style="fill:#69c32f;fill-opacity:1;fill-rule:nonzero;stroke:none"
         id="path24" /><path
         d="m 5342.03,0 c 179.61,0 345.89,67.8203 468.18,191 123.65,124.5 191.03,294.691 189.76,479.23 0,375.48 -287.55,670.96 -654.66,672.72 l -24.25,0.1 v 210.71 L 5015,1228.97 5321.06,904.172 V 1118.5 h 20.97 c 245.12,0 437.15,-196.812 437.15,-448.066 0.89,-123.153 -43.88,-236.524 -126.04,-319.184 -81.09,-81.711 -191.58,-126.711 -311.11,-126.711 -249.24,0 -437.17,191.781 -437.17,446.09 0,109.441 37.43,213.891 105.5,294.609 l -32.13,32.121 c -76.39,-89.187 -118.41,-205.043 -118.41,-326.73 0,-280 207.31,-491.129 482.21,-491.129 131.6,0 253.45,49.738 343.11,140.02 90.61,91.281 139.98,215.96 139.06,351.082 0,276.402 -211.81,492.918 -482.17,492.948 h -66 v -145.92 l -199.16,211.34 199.16,211.35 v -142.34 h 66 c 343.68,0 612.9,-275.8 612.9,-627.925 C 5956.17,497.59 5893.44,338.699 5778.26,222.75 5664.44,108.148 5509.54,45.0391 5342.03,45.0391 c -349.41,0 -612.91,268.8009 -612.91,625.2189 0,157.617 54.98,307.055 154.9,421.312 l -32.05,32.03 C 4743.68,1000.87 4684.1,840.07 4684.1,670.258 4684.1,288.172 4966.95,0 5342.03,0"
         style="fill:#69c32f;fill-opacity:1;fill-rule:nonzero;stroke:none"
         id="path26" /></g></g></svg>
