<svg width="152" height="25" viewBox="0 0 152 25" fill="none" xmlns="http://www.w3.org/2000/svg">
<path d="M117.736 20.0989H107.44V24.9999H117.736V20.0989Z" fill="#558F7B"/>
<path d="M6.11432 4.47H0V0H17.2095V4.47H11.1271V20.099H6.11432V4.47Z" fill="black"/>
<path d="M26.389 13.1705L18.6143 0H24.3775L28.9113 8.49299L33.6527 0H39.2083L31.4177 13.1705V20.115H26.389V13.1705Z" fill="black"/>
<path d="M40.6131 0H45.6099L54.3583 11.8774V0H59.3552V20.099H54.3583L45.6099 8.2216V20.099H40.6131V0V0Z" fill="black"/>
<path d="M68.5985 13.1705L60.8079 0H66.571L71.1049 8.49299L75.8463 0H81.4178L73.6272 13.1705V20.115H68.5985V13.1705Z" fill="black"/>
<path d="M82.7588 0H93.2633C96.983 0 99.5532 2.13921 99.5532 5.06068C99.5532 7.05621 98.5315 8.6686 96.7755 9.53067C99.0903 10.5524 100.463 12.4521 100.463 14.6552C100.463 17.88 97.6216 20.099 93.6465 20.099H82.7588V0V0ZM92.0341 7.96617C93.407 7.96617 94.4127 7.16796 94.4127 6.09835C94.4127 5.02875 93.423 4.2465 92.0341 4.2465H87.7397V7.96617H92.0341ZM92.8004 15.8685C94.2691 15.8685 95.3227 15.0224 95.3227 13.857C95.3227 12.6916 94.2691 11.8295 92.8004 11.8295H87.7397V15.8685H92.8004Z" fill="black"/>
<path d="M127.618 13.1705L119.844 0H125.607L130.141 8.49299L134.882 0H140.438L132.663 13.1705V20.115H127.634V13.1705H127.618Z" fill="black"/>
<path d="M115.406 0H109.786L101.82 20.099H107.44L112.596 7.08814L117.737 20.099H123.356L115.406 0Z" fill="black"/>
<path d="M145.371 0.78225H144.301V0H147.334V0.78225H146.265V3.5281H145.387V0.78225H145.371Z" fill="black"/>
<path d="M150.735 0L149.713 1.83589L148.691 0H147.813V3.54407H148.691V1.48468L149.537 3.01725H149.889L150.735 1.48468V3.54407H151.613V0H150.735Z" fill="black"/>
</svg>
