<svg xmlns="http://www.w3.org/2000/svg" role="img" viewBox="-7.99 65.00 415.74 114.74"><title>Upbound (member) logo</title><style>svg {isolation:isolate}</style><defs><clipPath id="a"><path d="M0 0h400v245H0z"/></clipPath></defs><g clip-path="url(#a)"><clipPath id="b"><path fill="#FFF" d="M0 73.145h400v98.71H0v-98.71z"/></clipPath><g clip-path="url(#b)"><path fill="#6553C0" d="M51.42 112.49l-.193 19.208c0 18.459-17.774 22.2-23.959 22.2-12.869 0-23.733-7.834-23.733-22.2V111.4c0-4.489 2.594-7.182 6.784-7.182 4.29 0 6.883 2.693 6.883 7.182v18.755c0 7.283 3.682 11.273 10.066 11.273 6.784 0 10.486-3.392 10.486-11.273V112.49c0-4.489 2.593-7.182 6.883-7.182 4.19 0 6.783 2.693 6.783 7.182zm232.898-1.09l-.194 20.298c0 18.459-17.773 22.201-23.958 22.201-12.87 0-23.733-7.835-23.733-22.201V111.4c0-4.49 2.593-7.183 6.784-7.183 4.289 0 6.883 2.693 6.883 7.183v18.756c0 7.282 3.681 11.272 10.066 11.272 6.784 0 10.485-3.392 10.485-11.273V111.4c0-4.49 2.594-7.183 6.883-7.183 4.19 0 6.784 2.693 6.784 7.183zM98.511 128.758c0-7.582-4.889-12.669-11.872-12.669-7.082 0-12.171 5.287-12.171 12.669 0 7.383 5.089 12.67 12.171 12.67 6.983 0 11.872-5.187 11.872-12.67zm13.966 0c0 15.264-9.178 25.14-23.044 25.14-6.285 0-11.374-2.194-14.765-5.985h-.2v16.66c0 4.49-2.592 7.282-6.884 7.282-4.188 0-6.782-2.792-6.782-7.282v-53.174c0-4.489 2.594-7.182 6.782-7.182 3.692 0 6.187 1.995 6.785 5.487h.199c3.392-3.891 8.48-6.086 14.865-6.086 13.866 0 23.044 9.877 23.044 25.14zm44.363 0c0-7.582-4.889-12.669-11.872-12.669-7.082 0-12.171 5.287-12.171 12.669 0 7.383 5.089 12.67 12.171 12.67 6.983 0 11.872-5.187 11.872-12.67zm13.967 0c0 15.264-9.179 25.14-23.046 25.14-6.384 0-11.471-2.194-14.864-6.184h-.198c-.599 3.491-3.094 5.586-6.685 5.586-4.29 0-6.883-2.794-6.883-7.283V89.552c0-4.489 2.593-7.282 6.883-7.282 4.19 0 6.783 2.793 6.783 7.282v20.152h.2c3.293-3.891 8.38-6.086 14.764-6.086 13.867 0 23.046 9.877 23.046 25.14m32.657 12.67c7.183 0 12.07-5.187 12.07-12.67 0-7.581-4.887-12.669-12.07-12.669-7.084 0-11.971 5.088-11.971 12.669 0 7.483 4.887 12.67 11.971 12.67zm0-37.809c15.463 0 26.037 10.175 26.037 25.139 0 14.865-10.574 25.14-26.037 25.14-15.363 0-25.938-10.275-25.938-25.14 0-14.964 10.575-25.139 25.938-25.139zm138.174 22.146v20.252c0 4.489-2.594 7.283-6.883 7.283-4.19 0-6.784-2.794-6.784-7.283v-18.656c0-7.382-3.392-11.272-9.977-11.272-6.883 0-10.874 4.689-10.874 12.569v17.359c0 4.489-2.592 7.283-6.883 7.283-4.19 0-6.784-2.794-6.784-7.283V111.5c0-4.49 2.594-7.283 6.784-7.283 3.593 0 6.086 1.995 6.785 5.387h.198c3.293-3.891 8.081-5.985 14.366-5.985 13.068 0 20.052 7.781 20.052 22.146zm44.694 2.993c0-7.382-5.088-12.669-12.171-12.669-6.983 0-11.871 5.087-11.871 12.669 0 7.483 4.888 12.67 11.871 12.67 7.083 0 12.171-5.287 12.171-12.67zM400 89.552v56.465c0 4.489-2.593 7.283-6.884 7.283-3.592 0-6.086-2.095-6.684-5.586h-.2c-3.391 3.99-8.479 6.184-14.863 6.184-13.869 0-23.046-9.876-23.046-25.14 0-15.263 9.177-25.14 23.046-25.14 6.384 0 11.472 2.195 14.763 6.086h.2V89.552c0-4.489 2.595-7.282 6.784-7.282 4.291 0 6.884 2.793 6.884 7.282zM20.706 83.497c0 5.718-4.635 10.353-10.354 10.353C4.635 93.85 0 89.215 0 83.497s4.635-10.352 10.352-10.352c5.719 0 10.354 4.634 10.354 10.352z"/></g></g></svg>