<?xml version="1.0" encoding="utf-8"?>
<!-- Generator: Adobe Illustrator 27.0.1, SVG Export Plug-In . SVG Version: 6.00 Build 0)  -->
<svg version="1.1" id="Layer_1" xmlns="http://www.w3.org/2000/svg" xmlns:xlink="http://www.w3.org/1999/xlink" x="0px" y="0px"
	 viewBox="0 0 778 230.728" style="enable-background:new 0 0 778 230.728;" xml:space="preserve">
<style type="text/css">
	.st0{fill:#141217;}
	.st1{fill:url(#SVGID_1_);}
</style>
<g>
	<path class="st0" d="M169.019,70.115c6.466-10.195,20.14-20.389,37.292-20.389c30.085,0,54.203,27.098,54.203,63.649
		s-24.118,63.649-54.203,63.649c-17.153,0-30.826-10.195-37.292-20.881v74.585h-31.825V51.715h31.825V70.115z M228.69,113.375
		c0-18.4-13.424-33.814-29.835-33.814s-29.835,15.413-29.835,33.814s13.424,33.814,29.835,33.814S228.69,131.775,228.69,113.375z"/>
	<path class="st0" d="M456.411,51.715l-41.77,123.32h-29.836l-25.857-83.04l-25.857,83.04h-29.835l-41.77-123.32h33.814
		l23.868,77.073l24.368-77.073h30.826l24.368,77.073l23.868-77.073H456.411z"/>
	<path class="st0" d="M468.629,0h31.825v29.835h-31.825V0z M468.629,51.715h31.825v123.32h-31.825V51.715z"/>
	<path class="st0" d="M639.266,103.43v71.605h-31.825v-69.616c0-19.89-11.685-25.857-23.369-25.857
		c-14.422,0-28.346,9.446-28.346,29.835v65.638h-31.825V51.715h31.825v18.4c3.978-7.465,16.411-20.389,35.803-20.389
		C618.627,49.726,639.266,66.137,639.266,103.43z"/>
	<path class="st0" d="M778,0v175.035h-31.825v-18.892c-6.466,10.686-20.14,20.881-37.292,20.881
		c-30.085,0-54.203-27.098-54.203-63.649s24.118-63.649,54.203-63.649c17.153,0,30.826,10.195,37.292,20.389V0H778z
		 M746.175,113.375c0-18.4-13.424-33.814-29.836-33.814c-16.411,0-29.835,15.413-29.835,33.814s13.424,33.814,29.835,33.814
		C732.751,147.188,746.175,131.775,746.175,113.375z"/>
	<g>
		<linearGradient id="SVGID_1_" gradientUnits="userSpaceOnUse" x1="0" y1="14.9177" x2="115.3639" y2="14.9177">
			<stop  offset="0" style="stop-color:#F2583C"/>
			<stop  offset="0.5417" style="stop-color:#9214C4"/>
			<stop  offset="1" style="stop-color:#1E71ED"/>
		</linearGradient>
		<rect class="st1" width="115.364" height="29.835"/>
		<g>
			<path class="st0" d="M57.682,177.024C25.876,177.024,0,151.148,0,119.342V51.715h31.825v69.616
				c0,14.258,11.599,25.858,25.858,25.858c14.258,0,25.857-11.599,25.857-25.858V51.715h31.825v67.627
				C115.364,151.148,89.488,177.024,57.682,177.024z"/>
		</g>
	</g>
</g>
</svg>
