<?xml version="1.0" encoding="UTF-8" standalone="no"?>
<svg
   xmlns:dc="http://purl.org/dc/elements/1.1/"
   xmlns:cc="http://creativecommons.org/ns#"
   xmlns:rdf="http://www.w3.org/1999/02/22-rdf-syntax-ns#"
   xmlns:svg="http://www.w3.org/2000/svg"
   xmlns="http://www.w3.org/2000/svg"
   xmlns:sodipodi="http://sodipodi.sourceforge.net/DTD/sodipodi-0.dtd"
   xmlns:inkscape="http://www.inkscape.org/namespaces/inkscape"
   xml:space="preserve"
   id="svg2"
   viewBox="0 0 43.66459 12.16346"
   height="278.57144"
   width="1000"
   version="1.1"
   sodipodi:docname="Valve.svg"
   inkscape:version="0.92.3 (2405546, 2018-03-11)"><sodipodi:namedview
     pagecolor="#ffffff"
     bordercolor="#666666"
     borderopacity="1"
     objecttolerance="10"
     gridtolerance="10"
     guidetolerance="10"
     inkscape:pageopacity="0"
     inkscape:pageshadow="2"
     inkscape:window-width="1366"
     inkscape:window-height="705"
     id="namedview12"
     showgrid="false"
     inkscape:zoom="0.32162836"
     inkscape:cx="472.05556"
     inkscape:cy="158.75253"
     inkscape:window-x="-8"
     inkscape:window-y="-8"
     inkscape:window-maximized="1"
     inkscape:current-layer="svg2" /><defs
     id="defs28" /><metadata
     id="metadata3344"><rdf:RDF><cc:Work
         rdf:about=""><dc:title></dc:title><dc:format>image/svg+xml</dc:format><dc:type
           rdf:resource="http://purl.org/dc/dcmitype/StillImage" /></cc:Work></rdf:RDF></metadata><path
     inkscape:connector-curvature="0"
     class="st0"
     d="M 0,12.163582 V -1.2594915e-4 H 43.66459 V 12.163582 Z M 7.589321,2.4949933 6.133835,8.0050489 4.678348,2.4949933 H 3.326826 l 2.183228,7.2774318 h 1.24756 L 8.940842,2.4949933 Z m 7.589321,0 h -1.767376 l -2.183231,7.2774318 h 1.455488 l 0.447041,-1.7673762 h 2.224817 l 0.44704,1.7673762 h 1.455488 z m 10.188405,6.0298723 h -3.1189 V 2.4949933 h -1.351524 v 7.2774318 h 0.727743 0.623781 3.1189 z M 31.500883,2.4949933 30.045397,8.0050489 28.589909,2.4949933 h -1.351521 l 2.183228,7.2774318 h 1.24756 L 32.852404,2.4949933 Z M 38.98624,6.5495632 H 37.010937 V 5.4059647 h 1.767376 V 4.4702956 H 37.010937 V 3.4306623 h 1.975303 v -0.935669 h -1.975303 -1.039633 v 4.990239 h 1.039633 1.975303 z m -24.743267,-2.9109747 0.82131,3.2228652 h -1.642621 z"
     id="path4"
     style="stroke-width:0.10396331;fill:#f74843;fill-opacity:1" /></svg>