<?xml version="1.0" encoding="UTF-8"?>
<svg width="132px" height="112px" viewBox="0 0 132 112" version="1.1" xmlns="http://www.w3.org/2000/svg" xmlns:xlink="http://www.w3.org/1999/xlink">
    <!-- Generator: Sketch 57.1 (83088) - https://sketch.com -->
    <title>Vamp official</title>
    <desc>Created with Sketch.</desc>
    <g id="PDConf21" stroke="none" stroke-width="1" fill="none" fill-rule="evenodd">
        <g id="Vamp-official" fill-rule="nonzero">
            <path d="M99.8498831,4.5138539 C98.2391068,1.61209068 94.8564766,0 90.5073806,0 L73.2720743,0 L40.4122379,0 C36.0631419,0 32.6805117,1.61209068 31.0697354,4.5138539 C29.4589591,7.41561713 29.6200367,11.1234257 31.8751235,14.8312343 L57.0032337,58.1964736 C59.2583205,61.9042821 62.1577178,64 65.5403481,64 C68.9229783,64 71.9834532,61.9042821 74.0774624,58.1964736 L99.2055726,14.8312343 C101.299582,10.9622166 101.621737,7.41561713 99.8498831,4.5138539 Z M34.9355985,6.60957179 C35.7409866,5.15869018 37.8349958,4.35264484 40.4122379,4.35264484 L73.2720743,4.35264484 C76.010394,4.35264484 77.9433255,5.15869018 78.7487137,6.60957179 C79.5541018,8.0604534 79.2319465,10.1561713 77.9433255,12.5743073 L76.4936268,15.1536524 C75.6882387,14.6700252 74.7217729,14.5088161 73.7553071,14.5088161 L48.627197,14.5088161 C44.278101,14.5088161 40.8954708,16.1209068 39.2846945,19.02267 L35.7409866,12.5743073 C34.4523656,10.3173804 34.1302104,8.0604534 34.9355985,6.60957179 Z M65.5403481,34.3375315 C65.5403481,34.3375315 65.3792704,34.1763224 65.2181928,34.0151134 L59.0972429,23.3753149 L56.8421561,19.5062972 C56.6810784,19.3450882 56.6810784,19.1838791 56.6810784,19.02267 C56.8421561,19.02267 57.0032337,19.02267 57.1643113,19.02267 L73.9163848,19.02267 C74.0774624,19.02267 74.23854,19.02267 74.3996177,19.02267 C74.3996177,19.02267 74.3996177,19.02267 74.3996177,19.1838791 L65.8625033,34.0151134 C65.7014257,34.0151134 65.5403481,34.1763224 65.5403481,34.3375315 Z M70.2115993,56.1007557 C68.9229783,58.3576826 67.1511243,59.8085642 65.5403481,59.8085642 C63.9295718,59.8085642 62.1577178,58.5188917 60.8690968,56.1007557 L43.4727129,25.9546599 C42.6673247,24.1813602 42.6673247,22.4080605 43.3116352,21.279597 C44.1170234,19.8287154 46.2110325,19.02267 48.7882746,19.02267 L52.3319825,19.02267 C52.3319825,19.9899244 52.6541377,20.7959698 53.1373706,21.7632242 L65.7014257,43.5264484 C67.9565125,47.2342569 70.8559098,49.3299748 74.23854,49.3299748 C74.23854,49.3299748 74.23854,49.3299748 74.23854,49.3299748 L70.2115993,56.1007557 Z M95.3397095,12.5743073 L78.2654808,42.0755668 C76.9768597,43.8488665 75.5271611,44.8161209 74.0774624,44.8161209 C72.4666861,44.8161209 70.6948322,43.5264484 69.4062112,41.1083123 L67.6343572,38.0453401 C68.4397454,37.5617128 69.0840559,36.9168766 69.5672888,35.9496222 L81.8091886,14.6700252 C84.0642754,10.9622166 84.2253531,7.25440806 82.6145768,4.35264484 C82.6145768,4.35264484 82.6145768,4.35264484 82.6145768,4.35264484 L90.5073806,4.35264484 C93.2457003,4.35264484 95.1786318,5.15869018 95.98402,6.60957179 C96.9504858,8.0604534 96.6283305,10.3173804 95.3397095,12.5743073 Z" id="Shape" fill="#FF405E"></path>
            <g id="Group" transform="translate(0.000000, 78.000000)" fill="#183B4D">
                <polygon id="Shape" points="0.435714286 1.45714286 6.01904762 1.45714286 13.5166667 21.047619 20.6952381 1.45714286 25.8 1.45714286 15.9095238 27.0380952 10.6452381 27.0380952"></polygon>
                <path d="M60.7357143,1.45714286 L65.202381,1.45714286 L65.202381,5.5047619 L65.3619048,5.5047619 C65.5214286,5.18095238 65.6809524,4.6952381 66.1595238,4.20952381 C66.6380952,3.72380952 67.1166667,3.23809524 67.9142857,2.75238095 C68.552381,2.26666667 69.35,1.78095238 70.3071429,1.45714286 C71.2642857,1.13333333 72.2214286,0.971428571 73.3380952,0.971428571 C75.252381,0.971428571 76.847619,1.2952381 78.1238095,2.1047619 C79.4,2.91428571 80.5166667,4.04761905 81.3142857,5.66666667 C82.1119048,4.04761905 83.2285714,2.91428571 84.8238095,2.1047619 C86.2595238,1.2952381 87.8547619,0.971428571 89.2904762,0.971428571 C91.2047619,0.971428571 92.8,1.2952381 94.0761905,1.94285714 C95.352381,2.59047619 96.3095238,3.4 96.947619,4.53333333 C97.5857143,5.66666667 98.0642857,6.8 98.3833333,8.0952381 C98.702381,9.39047619 98.702381,10.847619 98.702381,12.3047619 L98.702381,27.2 L93.9166667,27.2 L93.9166667,12.952381 C93.9166667,11.9809524 93.9166667,11.0095238 93.7571429,10.2 C93.597619,9.22857143 93.4380952,8.58095238 92.9595238,7.77142857 C92.6404762,7.12380952 92.002381,6.47619048 91.3642857,6.15238095 C90.7261905,5.66666667 89.7690476,5.5047619 88.4928571,5.5047619 C86.2595238,5.5047619 84.5047619,6.15238095 83.547619,7.60952381 C82.5904762,9.06666667 82.1119048,10.847619 82.1119048,13.1142857 L82.1119048,27.0380952 L77.3261905,27.0380952 L77.3261905,13.6 C77.3261905,12.3047619 77.3261905,11.3333333 77.1666667,10.2 C77.0071429,9.22857143 76.847619,8.25714286 76.3690476,7.60952381 C76.05,6.8 75.4119048,6.31428571 74.7738095,5.82857143 C74.1357143,5.34285714 73.1785714,5.18095238 72.0619048,5.18095238 C71.2642857,5.18095238 70.4666667,5.34285714 69.6690476,5.66666667 C68.8714286,5.99047619 68.2333333,6.47619048 67.5952381,7.12380952 C66.9571429,7.77142857 66.4785714,8.74285714 66.1595238,9.71428571 C65.8404762,10.847619 65.6809524,11.9809524 65.6809524,13.4380952 L65.6809524,26.7142857 L60.8952381,26.7142857 L60.8952381,1.45714286 L60.7357143,1.45714286 Z" id="Shape"></path>
                <path d="M104.92381,1.45714286 L109.709524,1.45714286 L109.709524,5.18095238 L109.869048,5.18095238 C110.82619,3.88571429 112.102381,2.75238095 113.697619,1.94285714 C115.292857,1.13333333 116.888095,0.80952381 118.642857,0.80952381 C120.557143,0.80952381 122.311905,1.13333333 123.907143,1.78095238 C125.502381,2.42857143 126.778571,3.4 127.895238,4.6952381 C129.011905,5.99047619 129.809524,7.28571429 130.447619,8.9047619 C131.085714,10.5238095 131.404762,12.3047619 131.404762,14.0857143 C131.404762,16.0285714 131.085714,17.8095238 130.447619,19.4285714 C129.809524,21.047619 129.011905,22.5047619 127.895238,23.6380952 C126.778571,24.7714286 125.502381,25.7428571 123.907143,26.3904762 C122.311905,27.0380952 120.557143,27.3619048 118.642857,27.3619048 C116.888095,27.3619048 115.133333,27.0380952 113.538095,26.2285714 C111.942857,25.4190476 110.666667,24.447619 109.869048,23.152381 L109.709524,23.152381 L109.709524,33.5142857 L104.92381,33.5142857 L104.92381,1.45714286 Z M118.004762,5.34285714 C116.728571,5.34285714 115.611905,5.5047619 114.495238,5.99047619 C113.538095,6.47619048 112.580952,7.12380952 111.942857,7.77142857 C111.304762,8.58095238 110.666667,9.55238095 110.347619,10.5238095 C110.028571,11.6571429 109.709524,12.7904762 109.709524,14.0857143 C109.709524,15.3809524 109.869048,16.5142857 110.347619,17.647619 C110.666667,18.7809524 111.304762,19.752381 111.942857,20.4 C112.580952,21.2095238 113.538095,21.8571429 114.495238,22.1809524 C115.452381,22.6666667 116.728571,22.8285714 118.004762,22.8285714 C119.280952,22.8285714 120.397619,22.6666667 121.514286,22.1809524 C122.471429,21.6952381 123.428571,21.047619 124.066667,20.4 C124.704762,19.5904762 125.342857,18.6190476 125.661905,17.647619 C125.980952,16.5142857 126.3,15.3809524 126.3,14.0857143 C126.3,12.7904762 126.140476,11.6571429 125.661905,10.5238095 C125.342857,9.39047619 124.704762,8.41904762 124.066667,7.77142857 C123.428571,6.96190476 122.471429,6.31428571 121.514286,5.99047619 C120.397619,5.66666667 119.280952,5.34285714 118.004762,5.34285714 Z" id="Shape"></path>
                <path d="M40.4761905,27.847619 C44.1452381,27.847619 47.8142857,26.2285714 49.8880952,23.4761905 L49.8880952,27.0380952 L54.1952381,27.0380952 L54.1952381,1.13333333 L49.8880952,1.13333333 L49.8880952,5.01904762 C47.8142857,2.42857143 44.1452381,0.647619048 40.4761905,0.647619048 C33.4571429,0.647619048 27.8738095,6.63809524 27.8738095,14.0857143 C27.7142857,21.6952381 33.4571429,27.847619 40.4761905,27.847619 Z M41.1142857,5.34285714 C45.7404762,5.18095238 49.4095238,9.39047619 49.4095238,14.4095238 C49.4095238,19.4285714 45.7404762,23.4761905 41.1142857,23.4761905 C35.85,23.4761905 32.8190476,19.4285714 32.8190476,14.4095238 C32.8190476,9.39047619 36.0095238,5.34285714 41.1142857,5.34285714 Z" id="Shape"></path>
            </g>
        </g>
    </g>
</svg>
