<svg xmlns="http://www.w3.org/2000/svg" role="img" viewBox="130.15 122.65 2982.20 1702.20"><style>svg {isolation:isolate}</style><defs><clipPath id="a"><path d="M0 0h3242.667v1958.667H0z"/></clipPath></defs><g clip-path="url(#a)"><clipPath id="b"><path fill="#FFF" d="M7.98 1953.978h3234.693V.005H7.98v1953.973z"/></clipPath><g clip-path="url(#b)"><path fill="#387B85" d="M1592.8 481.307c7.307 0 13.24-5.934 13.24-13.254V339.92l9.08 12.707c2.587 3.613 6.653 5.533 10.787 5.533 2.666 0 5.36-.8 7.693-2.467 5.96-4.253 7.333-12.533 3.08-18.493l-33.107-46.32c-2.48-3.48-6.506-5.547-10.773-5.547-4.28 0-8.293 2.067-10.787 5.547l-33.106 46.32c-4.254 5.96-2.867 14.24 3.08 18.493 5.946 4.254 14.226 2.88 18.493-3.066l9.067-12.707v128.133c0 7.32 5.933 13.254 13.253 13.254m-50.507 170.688c-6.533-3.287-14.506-.628-17.786 5.916l-38.814 77.521-2.453-15.719c-1.12-7.234-7.893-12.16-15.12-11.06-7.227 1.126-12.187 7.902-11.053 15.138l8.8 56.69c.653 4.207 3.293 7.844 7.08 9.772 1.893.964 3.96 1.443 6.013 1.443 2.08 0 4.16-.492 6.053-1.468l50.107-25.757c6.507-3.346 9.08-11.332 5.733-17.843-3.346-6.509-11.333-9.067-17.84-5.727l-14.04 7.216 39.227-78.338c3.28-6.543.64-14.51-5.907-17.784m74.8 122.972c-4.253 5.954-2.866 14.232 3.094 18.484l45.986 32.817c2.28 1.624 4.974 2.465 7.694 2.465 1.44 0 2.88-.233 4.28-.705 4.04-1.379 7.173-4.615 8.4-8.697l16.64-54.815c2.12-7.009-1.84-14.405-8.84-16.535-7.014-2.122-14.4 1.832-16.534 8.834l-5.52 18.224-50.613-128.274c-2.693-6.808-10.373-10.153-17.187-7.46-6.813 2.684-10.146 10.387-7.466 17.195l48.266 122.305-9.72-6.93c-5.96-4.247-14.226-2.88-18.48 3.092m31.147-284.954c2.333 4.6 6.987 7.254 11.827 7.254 2.013 0 4.066-.454 5.986-1.44l112.12-56.92-7.493 14.786c-3.307 6.52-.707 14.494 5.827 17.814 1.92.973 3.96 1.426 5.986 1.426 4.827 0 9.48-2.653 11.827-7.266l25.827-50.934c1.893-3.746 1.906-8.16.04-11.92-1.88-3.746-5.414-6.4-9.547-7.133l-55.24-9.787c-7.2-1.253-14.08 3.534-15.36 10.747-1.28 7.213 3.533 14.08 10.747 15.36l16.186 2.867-112.92 57.333c-6.52 3.307-9.133 11.28-5.813 17.813m-135.52 77.32c-2.08-7.013-9.453-11.013-16.467-8.946l-146.84 43.493 10-13.2c4.414-5.84 3.267-14.147-2.573-18.573-5.827-4.414-14.133-3.254-18.56 2.573l-34.343 45.36c-2.522 3.333-3.325 7.668-2.164 11.687 1.164 4.018 4.154 7.254 8.068 8.722l52.626 19.778c1.533.577 3.12.854 4.666.854 5.36-.006 10.4-3.281 12.4-8.6 2.574-6.853-.893-14.49-7.746-17.066l-15.64-5.876 147.626-43.726c7.014-2.08 11.027-9.453 8.947-16.48m325.72 203.583c.493 6.989 6.307 12.335 13.213 12.335.307 0 .614-.012.92-.032l79-5.482c4.267-.297 8.12-2.621 10.36-6.257 2.24-3.632 2.6-8.123.96-12.064l-29.36-70.468c-2.813-6.751-10.573-9.973-17.333-7.132-6.747 2.815-9.947 10.575-7.12 17.331l13.507 32.436-225.6-139.81c-6.214-3.853-14.387-1.933-18.24 4.28-3.854 6.227-1.934 14.4 4.293 18.254l225.627 139.836-37.92 2.633c-7.307.505-12.814 6.833-12.307 14.14m-359.16-352.143c7.2-1.28 12.013-8.146 10.733-15.36-1.266-7.2-8.146-12-15.36-10.733l-55.24 9.773c-4.12.734-7.666 3.387-9.546 7.134-1.867 3.76-1.854 8.173.04 11.92l25.84 50.946c2.333 4.6 6.986 7.254 11.826 7.254 2.014 0 4.067-.454 5.987-1.427 6.52-3.32 9.133-11.293 5.813-17.813l-7.493-14.774L1523.427 482c1.92.973 3.96 1.44 5.986 1.44 4.827 0 9.48-2.653 11.827-7.253 3.307-6.534.707-14.507-5.827-17.827l-72.333-36.72 16.2-2.867m113.493 193.734c29.227 0 53-23.774 53-53.014 0-29.226-23.773-53.013-53-53.013-29.226 0-53.013 23.787-53.013 53.013 0 29.24 23.787 53.014 53.013 53.014zm0-79.52c14.614 0 26.494 11.893 26.494 26.506 0 14.627-11.88 26.507-26.494 26.507-14.613 0-26.506-11.88-26.506-26.507 0-14.613 11.893-26.506 26.506-26.506zm39.774-311.467c0-21.947-17.8-39.76-39.747-39.76-21.96 0-39.76 17.813-39.76 39.76 0 21.96 17.8 39.773 39.76 39.773 21.947 0 39.747-17.813 39.747-39.773zm-53 0c0-7.293 5.933-13.253 13.253-13.253 7.307 0 13.24 5.96 13.24 13.253 0 7.307-5.933 13.267-13.24 13.267-7.32 0-13.253-5.96-13.253-13.267zm-132.534 669.32c21.947 0 39.747-17.803 39.747-39.76 0-21.959-17.8-39.761-39.747-39.761-21.96 0-39.76 17.802-39.76 39.761 0 21.957 17.8 39.76 39.76 39.76zm0-53.013c7.307 0 13.254 5.946 13.254 13.253 0 7.305-5.947 13.253-13.254 13.253-7.306 0-13.253-5.948-13.253-13.253 0-7.307 5.947-13.253 13.253-13.253zm265.014 86.148c21.946 0 39.746-17.803 39.746-39.76 0-21.959-17.8-39.763-39.746-39.763-21.96 0-39.76 17.804-39.76 39.763 0 21.957 17.8 39.76 39.76 39.76zm0-53.015c7.306 0 13.253 5.948 13.253 13.255 0 7.305-5.947 13.253-13.253 13.253-7.307 0-13.254-5.948-13.254-13.253 0-7.307 5.947-13.255 13.254-13.255zm-477.028-176.719c21.953 0 39.752-17.802 39.752-39.761 0-21.959-17.799-39.76-39.752-39.76-21.954 0-39.752 17.801-39.752 39.76s17.798 39.761 39.752 39.761zm0-53.014c7.308 0 13.25 5.946 13.25 13.253s-5.942 13.253-13.25 13.253-13.251-5.946-13.251-13.253 5.943-13.253 13.251-13.253zm79.504-267.28c0 21.96 17.8 39.76 39.75 39.76 21.96 0 39.76-17.8 39.76-39.76 0-21.96-17.8-39.76-39.76-39.76-21.95 0-39.75 17.8-39.75 39.76zm53.004 0c0 7.306-5.947 13.253-13.254 13.253-7.306 0-13.253-5.947-13.253-13.253 0-7.307 5.947-13.254 13.253-13.254 7.307 0 13.254 5.947 13.254 13.254zm556.533 0c0-21.96-17.8-39.76-39.76-39.76-21.947 0-39.747 17.8-39.747 39.76 0 21.96 17.8 39.76 39.747 39.76 21.96 0 39.76-17.8 39.76-39.76zm-53 0c0-7.307 5.933-13.254 13.24-13.254s13.253 5.947 13.253 13.254c0 7.306-5.946 13.253-13.253 13.253s-13.24-5.947-13.24-13.253zm132.507 384.356c-21.96 0-39.76 17.804-39.76 39.761 0 21.959 17.8 39.763 39.76 39.763 21.946 0 39.746-17.804 39.746-39.763 0-21.957-17.8-39.761-39.746-39.761zm0 53.016c-7.307 0-13.254-5.948-13.254-13.255 0-7.305 5.947-13.253 13.254-13.253 7.306 0 13.24 5.948 13.24 13.253 0 7.307-5.934 13.255-13.24 13.255z"/><path fill="#387B85" d="M190.987 1269.458c-4.096-11.262 2.047-17.407 12.284-17.407h82.928c10.238 0 15.358 6.145 18.429 17.407l102.38 355.34 103.404-355.34c3.07-11.262 7.166-17.407 17.404-17.407h83.952c10.238 0 16.38 6.145 12.284 17.407l-161.759 474.127c-5.12 14.336-11.263 20.48-23.547 20.48h-62.453c-12.284 0-19.451-6.144-24.57-20.48l-160.736-474.127zm1009.465 276.489c13.308 0 20.475 7.169 19.451 19.457-6.143 129.028-73.713 203.782-204.758 203.782h-91.119c-138.212 0-205.784-82.947-205.784-212.998v-301.066c0-130.051 67.572-212.998 205.784-212.998h91.119c131.045 0 198.615 74.754 204.758 202.758 1.024 13.314-6.143 20.481-19.451 20.481h-76.785c-12.286 0-19.451-7.167-20.477-20.481-3.07-72.706-30.712-97.283-88.045-97.283h-91.119c-62.452 0-89.07 28.674-89.07 107.523v301.066c0 79.875 26.618 107.523 89.07 107.523h91.119c57.333 0 84.975-23.553 88.045-98.307 1.026-12.288 8.191-19.457 20.477-19.457h76.785zm394.162-297.992c113.642 0 152.545 72.706 152.545 180.229v320.521c0 10.24-5.118 15.36-15.356 15.36h-82.928c-10.239 0-15.358-5.12-15.358-15.36v-331.786c0-47.105-23.547-66.56-67.57-66.56h-13.31c-53.237 0-89.069 25.6-101.355 46.079v352.267c0 10.24-5.119 15.36-15.356 15.36h-82.928c-10.238 0-15.358-5.12-15.358-15.36v-686.1c0-10.24 5.12-15.359 15.358-15.359h82.928c10.237 0 15.356 5.119 15.356 15.359v253.961c21.499-32.77 63.476-68.611 136.165-68.611h7.167zm676.738 506.895c1.013 4.095 2.044 9.215-3.075 9.215h-94.192c-11.27 0-18.434-10.239-18.434-24.575v-34.819c-23.552 35.843-57.325 64.515-109.55 64.515h-31.728c-95.223 0-164.833-57.346-164.833-159.75 0-102.401 56.314-148.483 162.789-148.483h143.322v-41.986c0-54.272-19.446-68.608-72.683-68.608h-27.64c-52.225 0-91.117 13.31-112.626 22.527-16.37 6.145-27.64 6.145-33.791-8.191l-21.49-50.179c-4.088-10.241-5.119-18.432 5.119-24.577 42.999-26.624 106.475-41.984 162.788-41.984h27.64c126.952 0 186.321 56.32 186.321 176.133v315.402c0 5.119 1.032 11.264 2.063 15.36zm-202.71-88.068c55.281 0 74.727-22.529 87.009-49.153v-67.586h-141.278c-30.716 0-52.225 13.314-52.225 58.369 0 43.01 21.509 58.37 52.225 58.37h54.269zm331.706-604.177c0-10.24 5.119-15.359 15.358-15.359h82.922c10.239 0 15.358 5.119 15.358 15.359v80.899c0 10.241-5.119 15.36-15.358 15.36h-82.922c-10.239 0-15.358-5.119-15.358-15.36v-80.899zm0 204.806c0-10.239 5.119-15.36 15.358-15.36h82.922c10.239 0 15.358 5.121 15.358 15.36v481.294c0 10.24-5.119 15.36-15.358 15.36h-82.922c-10.239 0-15.358-5.12-15.358-15.36v-481.294zm503.701-19.456c113.638 0 152.549 72.706 152.549 180.229v320.521c0 10.24-5.12 15.36-15.358 15.36h-82.922c-10.239 0-15.358-5.12-15.358-15.36v-331.786c0-47.105-23.553-66.56-67.583-66.56h-13.295c-53.238 0-89.073 25.6-101.355 46.079v352.267c0 10.24-5.12 15.36-15.358 15.36h-82.941c-10.239 0-15.358-5.12-15.358-15.36v-481.294c0-10.239 5.119-15.36 15.358-15.36h82.941c10.238 0 15.358 5.121 15.358 15.36v49.155c21.489-32.77 63.475-68.611 136.159-68.611h7.163"/></g></g></svg>