<?xml version="1.0" encoding="UTF-8"?>
<svg width="32px" height="25px" viewBox="0 0 32 25" version="1.1" xmlns="http://www.w3.org/2000/svg" xmlns:xlink="http://www.w3.org/1999/xlink">
    <title>形状结合备份</title>
    <defs>
        <linearGradient x1="50%" y1="0%" x2="50%" y2="100%" id="linearGradient-1">
            <stop stop-color="#744BE4" offset="0%"></stop>
            <stop stop-color="#E44BD3" offset="99.9535621%"></stop>
        </linearGradient>
    </defs>
    <g id="页面-1" stroke="none" stroke-width="1" fill="none" fill-rule="evenodd">
        <g id="官网样式图" transform="translate(-336.000000, -23.000000)" fill="url(#linearGradient-1)" fill-rule="nonzero">
            <path d="M362.251989,31.4006118 C362.323461,31.4006118 362.389145,31.4399061 362.422941,31.5028829 C362.456736,31.5658597 362.45317,31.6423175 362.413658,31.7018744 L362.413658,31.7018744 L352.044616,47.330918 C352.00867,47.3850939 351.947976,47.417662 351.88296,47.417662 C351.817944,47.417662 351.75725,47.3850939 351.721304,47.330918 L351.721304,47.330918 L350.555225,45.5738144 C350.512117,45.5088316 350.512102,45.4243557 350.555186,45.3593574 L350.555186,45.3593574 L359.754194,31.4873982 C359.790137,31.4331976 359.850846,31.4006118 359.915881,31.4006118 L359.915881,31.4006118 Z M344.078141,23.0000023 C344.184953,23.0000023 344.284687,23.0534277 344.343876,23.1423404 L344.343876,23.1423404 L345.45613,24.8132016 C345.495764,24.8727421 345.499422,24.9492602 345.46565,25.0123104 C345.431878,25.0753606 345.366154,25.1147145 345.294628,25.1147138 L345.294628,25.1147138 L340.037097,25.1147138 L349.207035,38.9281243 L356.909285,27.3070035 C356.946763,27.2548896 357.006773,27.2236835 357.07096,27.2229308 L357.07096,27.2229308 L362.56787,27.2229308 L363.964836,25.1147138 L351.263641,25.1147138 L353.358776,28.2706392 C353.404243,28.3345004 353.404243,28.4201597 353.358776,28.4840209 L353.358776,28.4840209 L349.375366,34.4530272 C349.339263,34.5071296 349.278491,34.5395877 349.213449,34.5395066 C349.148406,34.5394256 349.087716,34.5068162 349.051747,34.452624 L349.051747,34.452624 L344.453223,27.5242318 C344.413696,27.4646776 344.410117,27.388213 344.443909,27.3252271 C344.4777,27.2622413 344.543388,27.2229379 344.614866,27.2229372 L344.614866,27.2229372 L346.880085,27.2229372 C346.988402,27.2229384 347.089524,27.2771719 347.14945,27.3674019 L347.14945,27.3674019 L349.213685,30.4757548 L350.623259,28.3611376 L347.260633,23.3040152 C347.221259,23.2440723 347.217714,23.1674256 347.251389,23.1041046 C347.285064,23.0407837 347.350595,23.0008722 347.422308,23.0000023 L347.422308,23.0000023 L367.806175,23.0000023 C367.877861,23.0009316 367.943346,23.0408521 367.977008,23.1041501 C368.010671,23.1674482 368.00716,23.2440612 367.967849,23.3040152 L367.967849,23.3040152 L364.061785,29.1888528 C364.003609,29.2794598 363.904186,29.335207 363.796537,29.33758 L363.796537,29.33758 L358.370668,29.33758 L349.47862,42.7436451 C349.418139,42.8345169 349.316216,42.8891153 349.207057,42.8891153 C349.097899,42.8891153 348.995975,42.8345169 348.935495,42.7436451 L348.935495,42.7436451 L336.03377,23.3040152 C335.993082,23.2443077 335.988847,23.1669656 336.022773,23.1031728 C336.056699,23.03938 336.123192,22.999652 336.195444,23.0000023 L336.195444,23.0000023 Z" id="形状结合备份"></path>
        </g>
    </g>
</svg>