<?xml version="1.0" encoding="utf-8"?>
<!-- Generator: Adobe Illustrator 27.9.0, SVG Export Plug-In . SVG Version: 6.00 Build 0)  -->
<svg version="1.1" id="Layer_1" xmlns="http://www.w3.org/2000/svg" xmlns:xlink="http://www.w3.org/1999/xlink" x="0px" y="0px"
	 viewBox="0 0 432 288.7" style="enable-background:new 0 0 432 288.7;" xml:space="preserve">
<style type="text/css">
	.st0{fill:#101820;}
</style>
<path class="st0" d="M157,224H96L0,32L16,0h64l48,96l48-96h64l14.5,29L157,224z M336,0h-61l-97.5,195l14.5,29h64l16-32h64l16,32h64
	l16-32L336,0z M368,0h13.6v2.6h-5.3V16h-3V2.6H368V0z M383,0h4.4l4,12.2h0.1L395.6,0h4.4v16h-2.9V3.6H397L393,16h-2.9l-4-12.4H386
	V16H383V0z M106.3,287.3h8.2l10-30.9h-8.2l-5.9,21.7h-0.1l-5.8-21.7H96L106.3,287.3z M131.8,288c6.2,0,9.9-2.9,11.2-7.4h-7
	c-0.4,1.1-1.5,2.2-3.9,2.2c-2.6,0-4.8-1.7-4.8-4.8h15.9v-1c0-8.2-3.8-12.6-11.3-12.6c-7.4,0-11.5,5.3-11.5,11.8
	C120.3,283.1,124.6,288,131.8,288z M127.3,273.8c0.2-2.9,1.9-4.4,4.5-4.4c2.7,0,4.4,1.5,4.4,4.4H127.3z M151.5,277
	c0-4,2.9-5.9,6-5.9c0.5,0,0.9,0,1.4,0.1v-6.1c-0.8-0.2-1.3-0.2-1.9-0.2c-2.4,0-4.3,1.5-5.4,3.8h-0.1v-3.6h-6.9v22.1h6.9V277z
	 M160.3,262.5h6.9v-6.1h-6.9V262.5z M160.3,287.3h6.9v-22.1h-6.9V287.3z M178.6,287.7c1.4,0,2.6-0.1,4.1-0.5v-4.9
	c-0.8,0.1-1.2,0.2-1.9,0.2c-1.3,0-2.2-0.2-2.2-2.6v-9.6h3.9v-5.2h-3.9V259h-6.9v6.2h-3.1v5.2h3.1v9.8
	C171.7,285.5,173.7,287.7,178.6,287.7z M191.1,288c3.2,0,5.8-1.4,7.3-3.4h0.1c0.4,1.9,1.4,2.9,4.1,2.9c1,0,2.4-0.1,3.8-0.4v-3.3
	c-0.3,0-0.4,0-0.6,0c-0.7,0-0.8-0.5-0.8-1.7v-8.6c0-6.8-3.3-9.2-9.3-9.2c-7.5,0-10.6,3.6-10.8,7.9h6.6c0.2-2.2,1.4-3.2,3.9-3.2
	c2,0,2.9,0.8,2.9,2c0,2.2-3.4,2.5-5.8,3.1c-4.7,1-8.5,2.8-8.5,7.4C184,285.4,186.8,288,191.1,288z M191.1,280.8
	c0-1.6,0.9-2.6,3.5-3.2c1.8-0.4,2.9-0.7,3.8-1v1.9c0,2.5-1.6,4.9-4.4,4.9C192.2,283.2,191.1,282.4,191.1,280.8z M217.8,288
	c6.4,0,9.9-2.5,9.9-7.2c0-5.1-4.3-6.5-8.7-7.5c-3.3-0.8-4.6-0.9-4.6-2.3c0-1.1,0.8-1.8,2.7-1.8c2.3,0,3.2,1,3.5,2.7h6.5
	c-0.2-3.9-3-7.5-10.1-7.5c-6.2,0-9.7,2.8-9.7,7c0,4.5,4,6,7.9,7c3.2,0.7,5.4,1,5.4,2.9c0,1.3-0.9,1.9-2.9,1.9
	c-2.6,0-4.1-1.1-4.3-3.3h-6.5C207,284.2,210.1,288,217.8,288z M394.5,287.7c1.4,0,2.6-0.1,4.1-0.5v-4.9c-0.8,0.1-1.2,0.2-1.9,0.2
	c-1.3,0-2.2-0.2-2.2-2.6v-9.6h3.8v-5.2h-3.8V259h-6.9v6.2h-3.1v5.2h3.1v9.8C387.6,285.5,389.7,287.7,394.5,287.7z M407,288
	c3.2,0,5.8-1.4,7.3-3.4h0.1c0.3,1.9,1.4,2.9,4.2,2.9c1,0,2.4-0.1,3.8-0.4v-3.3c-0.3,0-0.4,0-0.6,0c-0.7,0-0.8-0.5-0.8-1.7v-8.6
	c0-6.8-3.3-9.2-9.3-9.2c-7.5,0-10.6,3.6-10.8,7.9h6.6c0.2-2.2,1.4-3.2,3.9-3.2c2,0,2.9,0.8,2.9,2c0,2.2-3.4,2.5-5.8,3.1
	c-4.7,1-8.5,2.8-8.5,7.4C400,285.4,402.7,288,407,288z M407,280.8c0-1.6,0.9-2.6,3.5-3.2c1.8-0.4,2.8-0.7,3.8-1v1.9
	c0,2.5-1.6,4.9-4.4,4.9C408.1,283.2,407,282.4,407,280.8z M233.3,287.3h8.4l2-6.5h10.6l2,6.5h8.5l-11.8-30.9h-7.8L233.3,287.3z
	 M245.4,274.9l3.5-11.4h0.1l3.5,11.4H245.4z M271.4,288c3.9,0,6.1-1.9,7.3-3.9h0.1v3.2h6.9v-22.1h-6.9v12.8c0,3.1-1.5,4.4-4.1,4.4
	c-2.3,0-3.5-1.1-3.5-4.5v-12.8h-6.9v15C264.2,285.2,267.1,288,271.4,288z M297.1,287.7c1.4,0,2.6-0.1,4.1-0.5v-4.9
	c-0.8,0.1-1.2,0.2-1.9,0.2c-1.3,0-2.2-0.2-2.2-2.6v-9.6h3.9v-5.2h-3.9V259h-6.9v6.2h-3.1v5.2h3.1v9.8
	C290.1,285.5,292.2,287.7,297.1,287.7z M313.4,288.7c7.4,0,11.9-4.9,11.9-11.9c0-7-4.5-11.7-11.8-11.7c-7.4,0-11.9,4.9-11.9,11.9
	C301.6,283.9,306.1,288.7,313.4,288.7z M308.6,276.9c0-4.3,1.7-6.6,4.8-6.6c3.1,0,4.8,2.3,4.8,6.6s-1.7,6.6-4.8,6.6
	C310.4,283.5,308.6,281.2,308.6,276.9z M340.4,274.5v12.8h6.9v-12.8c0-3.1,1.4-4.4,3.6-4.4c2.5,0,3.2,1.1,3.2,4.5v12.8h7v-15
	c0-5.1-2.6-7.9-7.1-7.9c-3.6,0-5.5,1.7-7.4,3.9h-0.1c-0.9-2.3-2.9-3.9-5.8-3.9c-3.3,0-5.8,1.9-6.9,3.9h-0.1v-3.2h-6.9v22.1h6.9
	v-12.8c0-3.1,1.4-4.4,3.6-4.4C339.7,270.1,340.4,271.2,340.4,274.5z M369.5,288c3.2,0,5.8-1.4,7.3-3.4h0.1c0.3,1.9,1.4,2.9,4.2,2.9
	c1,0,2.4-0.1,3.8-0.4v-3.3c-0.3,0-0.4,0-0.6,0c-0.7,0-0.8-0.5-0.8-1.7v-8.6c0-6.8-3.3-9.2-9.3-9.2c-7.5,0-10.6,3.6-10.8,7.9h6.6
	c0.2-2.2,1.4-3.2,3.9-3.2c2,0,2.9,0.8,2.9,2c0,2.2-3.4,2.5-5.8,3.1c-4.7,1-8.5,2.8-8.5,7.4C362.4,285.4,365.2,288,369.5,288z
	 M369.5,280.8c0-1.6,0.9-2.6,3.5-3.2c1.8-0.4,2.8-0.7,3.8-1v1.9c0,2.5-1.6,4.9-4.4,4.9C370.6,283.2,369.5,282.4,369.5,280.8z
	 M423.8,283.9h1.3v3.4h0.8v-3.4h1.3v-0.7h-3.4L423.8,283.9L423.8,283.9z M427.7,287.3h0.7v-3.1h0l1,3.1h0.7l1-3.1h0v3.1h0.7v-4h-1.1
	l-1,3.1h0l-1-3.1h-1.1L427.7,287.3L427.7,287.3z"/>
</svg>
