<svg xmlns="http://www.w3.org/2000/svg" role="img" viewBox="-93.90 -83.90 6182.80 1497.80"><style>svg {isolation:isolate}</style><defs><clipPath id="a"><path d="M0 0h6000v1350H0z"/></clipPath></defs><g clip-path="url(#a)"><path fill="#BDBDBD" d="M44.256 342.152c-31.617 78.181-10.591 245.754-10.591 245.754l425.436 311.822c31.159-32.061 63.568-65.294 96.801-99.334C335.322 605.163 117.165 410.85 44.256 342.152zm-4.891 332.153c-5.7 77.818 42.305 230.349 42.305 230.349l238.233 139.373c30.193-31.633 63.061-65.768 97.845-101.676C263.57 833.438 118.671 730.907 39.365 674.305zm97.081-637.303C88.251 102.96 61.384 249.649 61.384 249.649l540.191 503.998c35.972-36.779 72.608-74.223 109.419-111.873C479.142 404.682 244.345 163.441 136.446 37.002z"/><path fill="#3F51B5" d="M1480.912 587.912s21.041-167.572-10.577-245.753c-124.27 117.113-670.556 599.088-931.399 828.756l81.697 47.577 860.279-630.58zm-47.992 316.746s47.989-152.531 42.305-230.348c-157.582 112.443-573.963 406.232-808.079 571.271l91.75 53.419 674.024-394.342zm20.295-655.011S1426.348 102.959 1378.154 37c-180.428 211.428-715.633 743.798-998.655 1041.071l114.374 66.607 959.342-895.031z"/><g><path fill="#3F51B5" d="M1931.587 803.117l-101.534-270.23h77.2l61.003 185.304 60.986-185.304h77.216l-101.534 270.23h-73.337zm435.033-.001h-71.421v-270.23h71.421v270.23zm297.999-100.366h69.473l-27.785-77.975c-1.283-3.357-2.439-6.951-3.484-10.814-1.029-3.863-2.185-9.389-3.467-16.593-1.299 7.204-2.454 12.73-3.467 16.593-1.029 3.863-2.185 7.457-3.484 10.814l-27.786 77.975zm-110.02 100.362l106.158-270.23h77.199l106.173 270.23h-73.352l-15.437-42.463h-111.953l-15.436 42.463h-73.352zm622.658-189.153c0-7.71-2.564-13.837-7.71-18.334-5.161-4.496-12.507-6.76-22.023-6.76h-43.999v49.793l43.999.396c9.516 0 16.862-2.248 22.023-6.745 5.146-4.512 7.71-10.639 7.71-18.35zm10.419 104.986c0-10.798-3.294-18.192-9.848-22.182-6.555-3.989-15.247-5.984-26.061-5.984h-48.621v56.364h48.621c10.814 0 19.506-1.995 26.061-5.985 6.554-3.99 9.848-11.399 9.848-22.213zm-33.582-186.064c29.592 0 52.755 5.557 69.49 16.624 16.719 11.051 25.094 28.293 25.094 51.725 0 14.914-3.42 27.264-10.243 37.048-6.825 9.785-16.783 16.989-29.909 21.628 7.189 2.058 13.902 4.955 20.076 8.676 6.16 3.736 11.574 8.375 16.197 13.901 4.639 5.525 8.249 11.969 10.813 19.3 2.582 7.314 3.864 15.642 3.864 24.889 0 15.453-3.356 28.055-10.038 37.839-6.681 9.785-15.31 17.558-25.854 23.369-10.56 5.779-22.325 9.769-35.338 11.954-12.983 2.185-25.919 3.277-38.775 3.277h-117.366v-270.23h121.989zm375.595.006v206.536h123.525v63.694h-194.946v-270.23h71.421zm510.697 0v61.779H3917.24v41.291h111.573v61.399H3917.24v43.983h125.457v61.778h-196.861v-270.23h194.55z"/><path fill="#212121" d="M4664.19 668.004c0-25.475-5.921-44.078-17.748-55.778-11.859-11.716-28.577-17.559-50.189-17.559h-36.288V741.34h36.288c21.612 0 38.33-5.842 50.189-17.558 11.827-11.717 17.748-30.304 17.748-55.778zm-67.937-135.115c24.192 0 45.17 3.372 62.919 10.037 17.748 6.698 32.425 16.039 44.014 27.992 11.574 11.97 20.187 26.251 25.855 42.859 5.668 16.593 8.486 34.658 8.486 54.227 0 19.822-2.818 37.95-8.486 54.432-5.668 16.466-14.281 30.684-25.855 42.669-11.589 11.954-26.266 21.279-44.014 27.976-17.749 6.681-38.727 10.038-62.919 10.038h-107.709v-270.23h107.709zm413.428 169.861h69.474l-27.787-77.975c-1.282-3.357-2.438-6.951-3.483-10.814-1.029-3.863-2.184-9.389-3.468-16.593-1.297 7.204-2.453 12.73-3.467 16.593-1.029 3.863-2.185 7.457-3.483 10.814l-27.786 77.975zM4899.66 803.112l106.158-270.23h77.2l106.173 270.23h-73.369l-15.436-42.463H4988.45l-15.437 42.463h-73.353zm648.512-270.225v63.695h-76.043v206.535h-71.405V596.582h-76.44v-63.695h223.888zm245.505 169.863h69.473l-27.786-77.975c-1.283-3.357-2.438-6.951-3.483-10.814-1.029-3.863-2.185-9.389-3.467-16.593-1.299 7.204-2.455 12.73-3.468 16.593-1.029 3.863-2.184 7.457-3.483 10.814l-27.786 77.975zm-110.021 100.362l106.157-270.23h77.2l106.173 270.23h-73.367l-15.438-42.463h-111.936l-15.436 42.463h-73.353z"/></g></g></svg>