<?xml version="1.0" encoding="UTF-8"?>
<svg id="VillageSQL_Logo" xmlns="http://www.w3.org/2000/svg" version="1.1" viewBox="0 0 515.93 414.72">
  <!-- Generator: Adobe Illustrator 29.4.0, SVG Export Plug-In . SVG Version: 2.1.0 Build 152)  -->
  <defs>
    <style>
      .st0 {
        fill: #9500bf;
      }

      .st1 {
        fill: #c6f;
      }

      .st2 {
        fill: #1f062a;
      }

      .st3 {
        fill: #630080;
      }

      .st4 {
        fill: #93c;
      }
    </style>
  </defs>
  <g>
    <g>
      <polygon class="st0" points="293.28 156.12 312.42 181.76 401.33 171.76 401.32 171.76 293.28 156.12"/>
      <polygon class="st1" points="282.81 126.44 258.25 151.06 401.32 171.76 401.33 171.76 282.81 126.44"/>
      <polygon class="st3" points="275.32 153.53 279.37 184.83 293.23 156.12 275.32 153.53"/>
      <polygon class="st4" points="279.37 184.83 308.18 201.83 293.26 156.12 293.23 156.12 279.37 184.83"/>
      <polygon class="st0" points="136.88 121.64 151.92 158.14 222.51 103 136.88 121.64"/>
      <polygon class="st3" points="151.92 158.14 196.33 179.07 222.51 103 151.92 158.14"/>
      <polygon class="st4" points="222.51 103 196.33 179.07 247.27 165 222.51 103"/>
      <polygon class="st1" points="247.27 165 196.33 179.07 279.37 184.83 247.27 165"/>
      <polygon class="st4" points="167.77 270.66 292.85 220.95 217.99 199 167.77 270.66"/>
      <polygon class="st3" points="167.77 270.66 292.85 220.95 259.47 258.15 167.77 270.66"/>
      <polygon class="st3" points="217.99 199 292.85 220.95 279.37 184.83 217.99 199"/>
      <polygon class="st1" points="292.85 220.95 308.18 201.83 279.37 184.83 292.85 220.95"/>
      <polygon class="st0" points="196.33 179.07 217.99 199 279.37 184.83 196.33 179.07"/>
    </g>
    <polygon class="st1" points="155.89 117.5 222.51 103 114.6 62.59 131.91 108.47 155.89 117.5"/>
  </g>
  <g>
    <polygon class="st2" points="82.67 347.58 81.43 347.58 71.97 303.83 62.59 303.83 73.49 352.13 90.6 352.13 101.51 303.83 92.12 303.83 82.67 347.58"/>
    <path class="st2" d="M118.62,312.42c.6.58,1.29,1.04,2.07,1.38.78.34,1.63.52,2.55.52.87,0,1.71-.17,2.52-.52.8-.34,1.51-.8,2.1-1.38.6-.58,1.07-1.26,1.41-2.07.35-.8.52-1.67.52-2.59s-.17-1.78-.52-2.59c-.34-.8-.82-1.49-1.41-2.07-.6-.57-1.3-1.04-2.1-1.38-.81-.34-1.65-.52-2.52-.52-.92,0-1.77.17-2.55.52-.78.34-1.47.81-2.07,1.38-.6.58-1.07,1.27-1.42,2.07-.34.81-.52,1.67-.52,2.59s.17,1.78.52,2.59c.34.81.82,1.5,1.42,2.07Z"/>
    <polygon class="st2" points="127.66 317.91 108.2 317.91 108.2 326.19 118.96 326.19 118.96 343.85 107.37 343.85 107.37 352.13 137.59 352.13 137.59 343.85 127.66 343.85 127.66 317.91"/>
    <polygon class="st2" points="162.72 303.83 142.43 303.83 142.43 312.11 154.03 312.11 154.03 343.85 142.02 343.85 142.02 352.13 173.9 352.13 173.9 343.85 162.72 343.85 162.72 303.83"/>
    <polygon class="st2" points="199.02 303.83 178.74 303.83 178.74 312.11 190.33 312.11 190.33 343.85 178.32 343.85 178.32 352.13 210.2 352.13 210.2 343.85 199.02 343.85 199.02 303.83"/>
    <path class="st2" d="M248.36,341.78v-23.87h-8.69v4.14h-1.24c-.87-1.75-2.06-3.04-3.55-3.86-1.5-.83-3.46-1.24-5.9-1.24-2.02,0-3.92.4-5.69,1.21-1.77.81-3.32,1.97-4.66,3.48-1.33,1.52-2.39,3.36-3.17,5.52-.78,2.16-1.17,4.6-1.17,7.31v1.1c0,2.76.4,5.22,1.21,7.38.8,2.16,1.9,4,3.28,5.52,1.38,1.52,2.98,2.67,4.79,3.45,1.82.78,3.76,1.17,5.83,1.17,2.21,0,4.14-.45,5.8-1.34,1.66-.9,2.94-2.43,3.86-4.59h1.24c0,1.47.49,2.67,1.48,3.59.99.92,2.27,1.38,3.83,1.38h5.93v-8.28h-1.31c-1.24,0-1.86-.69-1.86-2.07ZM239.67,335.43c0,2.9-.76,5.19-2.28,6.87-1.52,1.68-3.54,2.52-6.07,2.52s-4.55-.84-6.07-2.52c-1.52-1.68-2.28-3.97-2.28-6.87v-.83c0-2.9.76-5.19,2.28-6.87,1.52-1.68,3.54-2.52,6.07-2.52s4.55.84,6.07,2.52c1.52,1.68,2.28,3.97,2.28,6.87v.83Z"/>
    <path class="st2" d="M327.24,322.43c-1.38-1.59-3.13-2.9-5.24-3.93-2.12-1.03-4.65-1.55-7.59-1.55-2.39,0-4.63.43-6.73,1.28-2.09.85-3.92,2.04-5.49,3.55-1.56,1.52-2.79,3.36-3.69,5.52-.9,2.16-1.35,4.55-1.35,7.18v.41c0,2.85.42,5.41,1.28,7.66.85,2.25,2.05,4.16,3.59,5.73,1.54,1.56,3.37,2.76,5.49,3.59,2.12.83,4.46,1.24,7.04,1.24,2.25,0,4.22-.25,5.9-.76,1.68-.51,3.11-1.15,4.28-1.93s2.13-1.64,2.86-2.59c.74-.94,1.31-1.85,1.73-2.73l-7.45-4.14c-.51,1.06-1.33,1.97-2.48,2.73-1.15.76-2.81,1.14-4.97,1.14-1.1,0-2.15-.17-3.14-.52-.99-.34-1.86-.83-2.62-1.45s-1.36-1.36-1.79-2.21c-.44-.85-.68-1.78-.72-2.79h25.12v-4.62c0-1.79-.32-3.65-.97-5.55-.64-1.91-1.66-3.66-3.04-5.24ZM306.27,330.4c.41-1.47,1.31-2.77,2.69-3.9s3.17-1.69,5.38-1.69,4.04.53,5.49,1.59c1.45,1.06,2.31,2.39,2.59,4h-16.15Z"/>
    <path class="st2" d="M370.61,327.91c-2.67-2.16-6.53-3.7-11.59-4.62-2.03-.37-3.69-.76-5-1.17-1.31-.41-2.37-.88-3.17-1.42-.81-.53-1.37-1.13-1.69-1.79-.32-.67-.48-1.41-.48-2.24,0-1.61.67-2.89,2-3.83,1.33-.94,3.15-1.42,5.45-1.42,2.71,0,4.82.71,6.31,2.14,1.49,1.43,2.24,3.1,2.24,5.04v1.66h9.11v-2.48c0-1.98-.38-3.86-1.14-5.66-.76-1.79-1.89-3.38-3.38-4.76-1.5-1.38-3.35-2.47-5.55-3.28-2.21-.8-4.74-1.21-7.59-1.21-2.53,0-4.82.34-6.87,1.04-2.05.69-3.79,1.66-5.24,2.9s-2.58,2.7-3.38,4.38c-.81,1.68-1.21,3.51-1.21,5.49v.41c0,2.39.41,4.42,1.24,6.07.83,1.66,1.99,3.04,3.48,4.14,1.5,1.1,3.25,1.99,5.28,2.66,2.02.67,4.25,1.21,6.69,1.62,1.84.32,3.36.71,4.55,1.17,1.2.46,2.14.98,2.83,1.55.69.58,1.17,1.22,1.45,1.93.28.71.41,1.46.41,2.24,0,1.66-.67,3.08-2,4.28-1.33,1.2-3.38,1.79-6.14,1.79-3.54,0-6.15-.86-7.83-2.59-1.68-1.72-2.52-4.04-2.52-6.93v-1.66h-9.11v2.07c0,2.53.41,4.87,1.24,7,.83,2.14,2.05,4,3.66,5.59,1.61,1.59,3.62,2.83,6.04,3.73,2.42.9,5.21,1.34,8.38,1.34,2.71,0,5.15-.34,7.31-1.03,2.16-.69,4-1.68,5.52-2.97,1.52-1.29,2.68-2.84,3.49-4.66.8-1.82,1.21-3.85,1.21-6.11v-.83c0-4.23-1.33-7.43-4-9.59Z"/>
    <path class="st2" d="M397.57,302.87c-5.57,0-9.92,1.72-13.08,5.17-3.15,3.45-4.73,8.3-4.73,14.56v10.76c0,5.57,1.17,9.98,3.52,13.25,2.35,3.27,5.66,5.29,9.94,6.07v4.83c0,1.89.62,3.46,1.86,4.73,1.24,1.26,2.81,1.9,4.69,1.9h6.26l4.23-8.28h-6.62c-1.15,0-1.72-.65-1.72-1.93v-1.24c4.23-.78,7.53-2.8,9.9-6.07,2.37-3.27,3.55-7.68,3.55-13.25v-10.76c0-6.25-1.58-11.11-4.73-14.56-3.15-3.45-7.51-5.17-13.08-5.17ZM406.27,333.78c0,1.61-.14,3.09-.41,4.45-.28,1.36-.76,2.52-1.45,3.48s-1.59,1.73-2.69,2.28c-1.1.55-2.48.83-4.14.83s-3.04-.28-4.14-.83c-1.1-.55-2-1.31-2.69-2.28-.69-.97-1.17-2.13-1.45-3.48-.28-1.36-.41-2.84-.41-4.45v-11.59c0-1.52.16-2.94.48-4.28.32-1.33.83-2.51,1.52-3.52.69-1.01,1.59-1.8,2.69-2.38,1.1-.58,2.44-.86,4-.86s2.9.29,4,.86c1.1.58,2,1.37,2.69,2.38.69,1.01,1.2,2.19,1.52,3.52.32,1.33.48,2.76.48,4.28v11.59Z"/>
    <polygon class="st2" points="431.4 343.44 431.4 303.83 422.29 303.83 422.29 352.13 449.11 352.13 453.34 343.44 431.4 343.44"/>
    <path class="st2" d="M282.79,322.88h-1.24c-.92-1.89-2.19-3.35-3.79-4.38-1.61-1.04-3.79-1.55-6.56-1.55-2.07,0-4.04.39-5.9,1.17-1.86.78-3.5,1.92-4.9,3.42-1.4,1.5-2.51,3.32-3.31,5.49-.81,2.16-1.21,4.62-1.21,7.38v1.24c0,2.81.38,5.29,1.14,7.45.76,2.16,1.82,3.99,3.17,5.49,1.36,1.5,2.94,2.62,4.76,3.38,1.82.76,3.78,1.14,5.9,1.14,1.66,0,3.07-.16,4.24-.48,1.17-.32,2.18-.76,3.04-1.31.85-.55,1.54-1.18,2.07-1.9.53-.71.98-1.46,1.35-2.24h1.24v8.91c0,1.38-.62,2.07-1.86,2.07h-18.98l4.23,8.28h19.99c1.56,0,2.84-.51,3.83-1.52.99-1.01,1.48-2.3,1.48-3.86v-43.13h-8.69v4.97ZM282.79,335.44c0,2.81-.84,5.07-2.52,6.8-1.68,1.72-3.88,2.59-6.59,2.59s-4.91-.84-6.59-2.52c-1.68-1.68-2.52-3.97-2.52-6.87v-.83c0-2.9.84-5.19,2.52-6.87s3.88-2.52,6.59-2.52,4.91.86,6.59,2.59c1.68,1.72,2.52,3.99,2.52,6.8v.83Z"/>
  </g>
</svg>