<svg id="Layer_1" data-name="Layer 1" xmlns="http://www.w3.org/2000/svg" viewBox="0 0 422.12451 336.34786"><defs><style>.cls-1{fill:#461c38;}.cls-1,.cls-2,.cls-3,.cls-4{fill-rule:evenodd;}.cls-2{fill:#de2d3a;}.cls-3{fill:#481e3a;}.cls-4{fill:#481d39;}</style></defs><title>mirantis-virtlet</title><path d="M157.63727,291.02285h9.0293l-14.17969,41.5918H144.276l-14.06543-41.5918h9.2832l9.0293,31.5752Z"/><path d="M178.44733,298.18984h-8.15478v-7.4209h8.15478Zm-8.15478,3.66895h8.15478v30.75586h-8.15478Z"/><path d="M203.31989,301.13906q.15528.01466.69141.042v8.23926q-.76173-.085-1.3545-.1123-.59252-.02784-.95947-.02832-4.853,0-6.51806,3.16015a12.29386,12.29386,0,0,0-.93116,5.47364v14.70117H186.15V301.85879h7.67529v5.36133a17.00178,17.00178,0,0,1,3.24463-4.20508,8.83626,8.83626,0,0,1,5.86914-1.89063Q203.16461,301.12441,203.31989,301.13906Z"/><path d="M205.56354,307.86855V302.141h4.28858v-8.57813h7.958V302.141h4.99414v5.72753h-4.99414v16.25293a3.6582,3.6582,0,0,0,.47949,2.35645q.479.46436,2.93457.46484c.24414,0,.50293-.0039.77539-.01367s.541-.02344.80469-.042v6.00976l-3.80957.14063q-5.69971.19776-7.7876-1.97461a5.87913,5.87913,0,0,1-1.355-4.26074v-18.9336Z"/><path d="M236.17829,332.61465h-8.042v-41.5918h8.042Z"/><path d="M264.065,302.48184a12.50643,12.50643,0,0,1,5.31445,4.5498,15.10006,15.10006,0,0,1,2.4502,6.3584,39.32031,39.32031,0,0,1,.26562,6.10351H249.69489q.186,4.62891,3.21582,6.49024a8.16786,8.16786,0,0,0,4.43359,1.15723,6.2472,6.2472,0,0,0,6.1211-3.52735h8.21a10.0433,10.0433,0,0,1-2.98145,5.5586q-4.13232,4.48681-11.57128,4.48632a16.76649,16.76649,0,0,1-10.833-3.78418q-4.69337-3.78369-4.69336-12.31347,0-7.99073,4.2373-12.25586a14.82666,14.82666,0,0,1,10.99805-4.26465A17.50866,17.50866,0,0,1,264.065,302.48184Zm-12.03125,6.94628a8.36445,8.36445,0,0,0-2.1416,4.76075h13.85449a6.70882,6.70882,0,0,0-2.14258-4.85938,7.04721,7.04721,0,0,0-4.76953-1.6582A6.381,6.381,0,0,0,252.03376,309.42812Z"/><path d="M273.00153,307.86855V302.141h4.28906v-8.57813h7.957V302.141h4.99414v5.72753h-4.99414v16.25293a3.6582,3.6582,0,0,0,.47949,2.35645q.479.46436,2.93457.46484c.24414,0,.50293-.0039.77539-.01367s.541-.02344.80469-.042v6.00976l-3.80957.14063q-5.69972.19776-7.78711-1.97461a5.87905,5.87905,0,0,1-1.3545-4.26074v-18.9336Z"/><path class="cls-1" d="M171.54048,75.2049C150.288,56.45053,126.629,42.84773,97.84827,39.35805c-24.23966-2.93893-47.77136-1.14393-70.51021,8.185a119.97713,119.97713,0,0,0-10.9976,5.221c-.70507.37713-1.361.99926-2.40169.61633a181.16253,181.16253,0,0,1,28.93791-21.6036A189.89894,189.89894,0,0,1,113.01844,6.25433c30.88626-4.66158,60.80509-2.011,89.07649,12.39521,11.75765,5.9907,22.26622,13.75616,32.23757,22.31253a9.75236,9.75236,0,0,1-.94234.60476c-12.68842,6.27042-24.98138,13.271-37.338,20.1568C187.90569,66.26272,179.712,70.714,171.54048,75.2049Z"/><path class="cls-1" d="M193.79128,92.72853c21.06442-10.80566,41.12766-22.70606,61.77539-33.86377,21.404,17.10213,46.43837,24.86179,73.21766,27.75056,27.01559,2.91385,52.74545-1.54229,77.09316-14.88274a3.81594,3.81594,0,0,1-1.67539,2.24447c-24.10946,21.22936-51.97479,35.12442-83.17645,42.43943a171.1917,171.1917,0,0,1-54.09193,4.03368c-26.64327-2.3004-50.84727-11.178-72.365-27.16991C194.38735,93.14617,194.2012,93.01885,193.79128,92.72853Z"/><path class="cls-2" d="M171.54048,75.2049c8.17152-4.49086,16.36619-8.94218,24.51165-13.48127,12.35663-6.8858,24.64961-13.88638,37.338-20.1568a9.869,9.869,0,0,0,.94234-.60476c7.12791-3.03153,14.113-6.38231,21.29978-9.28845A296.28635,296.28635,0,0,1,331.92483,12.002a329.86191,329.86191,0,0,1,47.41353-1.88952,1.38422,1.38422,0,0,1,.81215.26525c-4.70789.46105-9.42253.85458-14.12077,1.39471-17.82648,2.04963-34.99129,6.7797-51.77609,12.98261-23.225,8.58241-45.14688,19.91374-66.81993,31.76784-19.55106,10.6928-38.70572,22.1148-58.64164,32.09481a304.9789,304.9789,0,0,1-86.018,28.57524,311.30908,311.30908,0,0,1-58.10247,4.13881c-.67517-.01254-1.35035.03376-2.02648.05209q.081-.45575.162-.91342a163.35931,163.35931,0,0,0,30.59593-4.26033c27.23937-6.06788,52.56606-17.13589,77.27063-29.7867C157.70233,82.82374,164.74052,79.23375,171.54048,75.2049Z"/><path class="cls-3" d="M11.27666,241.7864H2.33158V176.73351h9.82087Q22.60558,190.494,33.44933,204.7686c7.23689-9.46784,14.31077-18.72253,21.4512-28.065h9.91539v65.02973h-9.056V191.29407q-.246-.08538-.49384-.17073c-7.22146,9.46206-14.44291,18.9222-21.81869,28.58584-7.32081-9.653-14.523-19.146-21.7232-28.63889-.14951.053-.298.1061-.44755.16011C11.27666,208.05189,11.27666,224.87332,11.27666,241.7864Z"/><path class="cls-3" d="M224.13065,176.66792h10.36292c12.02387,17.10309,24.0487,34.20522,36.37251,51.73365v-51.643h9.029v65.00659H269.87067q-18.0546-25.64305-36.18636-51.39221c-.14082.03857-.28261.07716-.42343.11671v51.27165h-9.13124C224.13065,220.11433,224.13065,198.50784,224.13065,176.66792Z"/><path class="cls-4" d="M151.65182,241.797H140.86353q-7.846-12.34843-15.6534-24.638H110.60808V241.772h-9.15535V176.60621c1.83261,0,3.61893-.03664,5.40427.00676,8.2101.19676,16.44431-.55268,24.6303.462,9.37333,1.1613,15.992,7.1279,17.24006,15.338,1.6995,11.17892-2.72384,18.74568-13.38674,22.90379-.20737.081-.40125.20061-.83721.42247C140.16714,224.3467,145.80579,232.91561,151.65182,241.797Zm-41.08426-33.2079c6.69771-.16976,13.18227.45236,19.6099-.44755,6.03412-.844,9.34728-4.64133,9.59517-10.42371.28839-6.75365-2.36986-10.824-8.50331-12.25727-6.80574-1.58954-13.73881-.45912-20.7008-.77259C110.56756,192.738,110.56756,200.47548,110.56756,208.58913Z"/><path class="cls-4" d="M182.324,176.6525h8.95761q12.88374,32.404,25.89963,65.1397h-9.82569q-3.48822-9.03957-6.97356-18.07824H173.13681q-3.42891,8.8877-6.961,18.04157H156.353Q169.38569,209.08684,182.324,176.6525Zm14.74094,38.31894c-3.42217-8.921-6.77-17.64516-10.3205-26.90081-3.58516,9.383-6.91474,18.09945-10.27709,26.90081Z"/><path class="cls-3" d="M375.05778,237.94564v-9.245a41.60545,41.60545,0,0,0,11.5416,4.66545,32.34563,32.34563,0,0,0,15.21646-.21026c3.27555-.88641,5.96758-2.54926,6.77969-6.19134a9.59333,9.59333,0,0,0-3.10965-9.60192,15.46416,15.46416,0,0,0-5.61935-3.25433c-5.10816-1.78825-10.23079-3.5408-15.27916-5.49012-6.201-2.394-10.19609-6.69481-10.41694-13.62595-.24016-7.55712,2.98137-13.4205,9.85655-16.62661,7.95739-3.71153,16.26492-3.13183,24.49912-.68964a20.78967,20.78967,0,0,1,5.24126,2.23868V188.225c-.76585.42247-1.25774-.246-1.81621-.52182a30.285,30.285,0,0,0-21.08178-2.47691c-3.94494.94524-6.77778,3.12412-7.4703,7.45873a5.9376,5.9376,0,0,0,2.2628,5.99747,19.68336,19.68336,0,0,0,6.39871,3.26108,95.34347,95.34347,0,0,1,16.616,6.96875,18.01966,18.01966,0,0,1,8.61424,21.26506c-2.08725,6.72471-7.30343,9.899-13.65681,11.50784C394.634,243.9624,383.34891,242.40372,375.05778,237.94564Z"/><path class="cls-1" d="M312.52813,185.15871H290.65157v-8.37213h52.87276v8.33163H321.64488v56.6576h-9.11773C312.52813,222.94812,312.52813,204.21787,312.52813,185.15871Z"/><path class="cls-1" d="M78.69169,176.66407h8.867v65.14259h-8.867Z"/><path class="cls-1" d="M354.21616,241.77675v-65.049h8.91613v65.049Z"/></svg>