<svg xmlns="http://www.w3.org/2000/svg" role="img" viewBox="39.75 9.50 260.00 84.00"><style>svg {enable-background:new 0 0 339.4 104.4}</style><path d="M141.9 82.7v2.4h-1.1V69h1.1v7.4c1-1.5 2.4-2.8 4.6-2.8 2.7 0 5.5 2.2 5.5 5.9s-2.8 5.9-5.5 5.9c-2.3-.1-3.7-1.3-4.6-2.7zm8.9-3.2c0-3-2.1-4.9-4.4-4.9-2.3 0-4.6 2-4.6 4.8 0 2.9 2.3 4.8 4.6 4.8 2.4.1 4.4-1.7 4.4-4.7zm12.8-5.7h1.2l-4.9 11.7c-1 2.4-2.1 3.2-3.8 3.2-.9 0-1.5-.2-2.2-.5l.4-.9c.6.3 1.1.4 1.9.4 1.2 0 1.9-.7 2.8-2.7l-5.4-11.2h1.3l4.7 10.1 4-10.1zm10.7-4.2h6.9c1.8 0 3.2.5 4 1.4.7.7 1 1.5 1 2.6 0 1.9-1.1 2.8-2.2 3.4 1.8.6 3.1 1.7 3.1 3.8 0 2.8-2.3 4.2-5.7 4.2h-7.2V69.6zm9.3 4.4c0-1.2-1-2-2.7-2H177v4.1h3.7c1.8 0 2.9-.6 2.9-2.1zm-2.3 4.4H177v4.2h4.5c1.8 0 3-.7 3-2.1 0-1.3-1-2.1-3.2-2.1zm8.7-5h2.7V76c.7-1.7 2.1-2.9 4.1-2.8V76h-.2c-2.3 0-4 1.5-4 4.6V85H190V73.4zm8.1 5.9c0-3.4 2.7-6.1 6.2-6.1 3.6 0 6.2 2.7 6.2 6.1 0 3.3-2.7 6.1-6.3 6.1-3.5-.1-6.1-2.8-6.1-6.1zm9.7 0c0-2.1-1.5-3.8-3.6-3.8s-3.5 1.7-3.5 3.7 1.5 3.7 3.6 3.7c2.2.1 3.5-1.6 3.5-3.6zm4.6 2.4c0-2.6 2-3.8 4.8-3.8 1.3 0 2.2.2 3.1.5v-.3c0-1.7-1-2.5-2.9-2.5-1.3 0-2.3.3-3.3.7l-.7-2.1c1.3-.6 2.6-.9 4.4-.9 1.7 0 3 .5 3.9 1.3.9.8 1.3 2.1 1.3 3.6v6.9h-2.6v-1.5c-.8.9-2 1.7-3.8 1.7-2.2 0-4.2-1.2-4.2-3.6zm8-.8v-.8c-.7-.3-1.6-.5-2.7-.5-1.7 0-2.7.7-2.7 1.9 0 1.1 1 1.8 2.3 1.8 1.8.1 3.1-.9 3.1-2.4zm5.2-1.6c0-3.9 2.6-6.1 5.4-6.1 1.9 0 3.1.9 4 2.1V69h2.7v16.1H235v-1.9c-.9 1.2-2.1 2.2-4 2.2-2.7-.1-5.4-2.3-5.4-6.1zm9.4 0c0-2.3-1.6-3.8-3.4-3.8-1.8 0-3.4 1.4-3.4 3.7 0 2.3 1.5 3.7 3.4 3.7 1.8.1 3.4-1.4 3.4-3.6zm5.4 0c0-3.4 2.6-6.1 6.1-6.1 2.2 0 3.6.8 4.7 2l-1.7 1.8c-.8-.8-1.7-1.5-3-1.5-1.9 0-3.4 1.7-3.4 3.7 0 2.1 1.4 3.7 3.5 3.7 1.3 0 2.2-.6 3-1.4l1.6 1.6c-1.1 1.3-2.5 2.2-4.8 2.2-3.5 0-6-2.7-6-6zm12.2 0c0-3.4 2.7-6.1 6.2-6.1 3.6 0 6.2 2.7 6.2 6.1 0 3.3-2.7 6.1-6.3 6.1-3.4-.1-6.1-2.8-6.1-6.1zm9.8 0c0-2.1-1.5-3.8-3.6-3.8s-3.5 1.7-3.5 3.7 1.5 3.7 3.6 3.7c2.1.1 3.5-1.6 3.5-3.6zm5.4-5.9h2.7v1.8c.8-1 1.8-2 3.6-2 1.7 0 2.9.8 3.5 2.1.9-1.2 2.2-2.1 3.9-2.1 2.5 0 4.1 1.6 4.1 4.5v7.4h-2.7v-6.6c0-1.9-.9-2.8-2.4-2.8s-2.5 1-2.5 2.9v6.6h-2.7v-6.6c0-1.8-.9-2.8-2.4-2.8s-2.5 1.1-2.5 2.9v6.6h-2.7V73.4z"/><path d="M191.1 15.4c-1.5 0-2.2 1-2.6 2.1l-9.2 26.4-9.1-26.4c-.4-1.2-1.3-2.2-2.8-2.2h-.3c-1.4 0-2.2.9-2.6 2.2l-9.1 26.4-9.1-26.3c-.4-1.3-1.3-2.2-2.7-2.2-1.6 0-2.7 1.3-2.7 2.6 0 .5.2 1 .3 1.5l11 30.5c.6 1.6 1.7 2.4 3 2.4h.1c1.4 0 2.4-.8 2.9-2.4l9.1-25.9 9 25.9c.5 1.6 1.5 2.4 2.9 2.4h.2c1.3 0 2.4-.8 2.9-2.4l11-30.6c.1-.4.3-1 .3-1.5.2-1.3-1-2.5-2.5-2.5zm58.7 0c-3.9 0-9.8 2.8-12.4 8.9v-6.2c0-1.5-1.2-2.7-2.7-2.7-1.5 0-2.7 1.3-2.7 2.7v31.6c0 1.5 1.2 2.7 2.7 2.7 1.5 0 2.7-1.3 2.7-2.7V37.4c0-10.4 5.7-15.7 12.7-16.5 1.4-.2 2.4-1.3 2.4-2.7 0-1.6-1-2.8-2.7-2.8zm19.3-.1c-9.8 0-17 8.3-17 18.6v.1c0 11.1 7.9 18.6 17.7 18.6 6 0 10-2.1 13.4-5.4.6-.5.8-1.1.8-1.7 0-1.3-1-2.3-2.3-2.3-.6 0-1.1.3-1.5.6-2.6 2.4-5.8 4.2-10.2 4.2-6.3 0-11.7-4.4-12.5-12.1h25.6c1.3 0 2.5-1 2.5-2.5-.1-9.4-6-18.1-16.5-18.1zM257.5 32c.7-7 5.3-12.2 11.5-12.2 7 0 10.8 5.7 11.3 12.2h-22.8zm-47.3-16.6c-4.6 0-7.3.5-10.8 2.1-1 .4-1.5 1.1-1.5 2.2 0 1.2 1.1 2.3 2.4 2.3.3 0 .6-.1 1-.2 2.7-1.2 4.8-1.6 8.4-1.6 6.8 0 10.7 3.3 10.7 9.8v1.3c-3.2-.9-6.5-1.5-11.1-1.5-9.1 0-15.4 4-15.4 11.6v.1c0 7.4 6.8 11.2 13.5 11.2 6.3 0 10.5-2.9 13-6.2v3.4c0 1.4 1 2.5 2.6 2.5 1.5 0 2.6-1.1 2.6-2.6V29.9c0-4.6-1.3-8.1-3.7-10.5-2.7-2.7-6.7-4-11.7-4zm10.2 23.3c0 5.7-5.4 9.8-12.1 9.8-4.9 0-9.1-2.7-9.1-7.2v-.1c0-4.5 3.8-7.5 10.5-7.5 4.4 0 7.9.8 10.6 1.5v3.5zm-94.7-24.1c-7 0-11.4 4.9-11.4 4.9-2.3-3-5.6-4.9-11-4.9-5.8 0-10.8 4.9-10.8 4.9-2.3-3-6.3-4.9-9.6-4.9-5.1 0-9.2 2.2-11.6 7.9L64 39.7l-9.4-22.1c-1.2-2.6-4.1-3.8-6.8-2.5-2.7 1.2-3.7 4.2-2.5 6.8l11.4 24.9c1.8 3.9 3.7 5.9 7.3 5.9 3.8 0 5.5-2.2 7.3-5.9 0 0 10-21.7 10.1-22 .1-.2.4-.9 1.4-.9.9 0 1.6.7 1.6 1.6v21.3c0 3.3 1.8 6 5.3 6s5.4-2.7 5.4-6V29.4c0-3.4 2.4-5.5 5.7-5.5 3.3 0 5.5 2.2 5.5 5.5v17.4c0 3.3 1.8 6 5.3 6s5.4-2.7 5.4-6V29.4c0-3.4 2.4-5.5 5.7-5.5 3.3 0 5.5 2.2 5.5 5.5v17.4c0 3.3 1.8 6 5.3 6s5.4-2.7 5.4-6V27c-.3-7.3-6.2-12.4-13.2-12.4zm164.7.7c-2.5 0-4.5 2-4.5 4.5 0 2.4 1.9 4.5 4.5 4.5 2.5 0 4.5-2 4.5-4.5s-2-4.5-4.5-4.5zm3.6 4.5c0 2-1.6 3.7-3.6 3.7-2.1 0-3.6-1.6-3.6-3.6s1.6-3.7 3.6-3.7c2.1-.1 3.6 1.6 3.6 3.6z"/><path d="M290.7 17.6h-1.5c-.3 0-.5.2-.5.5v3.4c0 .3.2.5.5.5s.5-.2.5-.5v-.9h.8l.9 1.2c.1.1.3.2.5.2s.5-.2.5-.4c0-.1-.1-.2-.1-.4l-.7-.8c.5-.2.9-.6.9-1.3 0-.4-.1-.7-.4-1-.4-.4-.9-.5-1.4-.5zm.7 1.4c0 .4-.3.6-.7.6h-1v-1.2h.9c.5 0 .8.2.8.6z"/></svg>