<svg width="512" height="120" viewBox="0 0 512 120" fill="none" xmlns="http://www.w3.org/2000/svg">
<path d="M99.9394 55.0198L84.0381 117.776C83.8561 118.495 84.4021 119.197 85.1473 119.197H116.941C117.686 119.197 118.232 118.495 118.05 117.776L102.158 55.0198C101.863 53.8673 100.234 53.8673 99.9394 55.0198Z" fill="#35EDE8"/>
<path d="M12.4086 69.2486L0.120863 117.767C-0.0611139 118.486 0.484816 119.188 1.23005 119.188H25.7969C26.5421 119.188 27.0881 118.486 26.9061 117.767L14.627 69.2399C14.3324 68.0874 12.7032 68.0874 12.4086 69.2399V69.2486Z" fill="#35EDE8"/>
<path d="M34.1332 29.0578L11.6807 117.767C11.4988 118.486 12.0447 119.188 12.7899 119.188H57.6948C58.4401 119.188 58.986 118.486 58.804 117.767L36.3516 29.0578C36.0569 27.9053 34.4278 27.9053 34.1332 29.0578Z" fill="#1664FF"/>
<path d="M72.8509 0.851391C72.5563 -0.283797 70.9358 -0.283797 70.6412 0.851391L39.9478 117.767C39.7658 118.486 40.3117 119.188 41.057 119.188H102.435C103.18 119.188 103.726 118.486 103.544 117.767L72.8509 0.851391Z" fill="#1664FF"/>
<path d="M50.3117 41.9521L30.8489 117.758C30.6669 118.478 31.2128 119.188 31.9581 119.188H70.8751C71.6203 119.188 72.1663 118.486 71.9843 117.758L52.5214 41.9521C52.2268 40.8083 50.5977 40.8083 50.3031 41.9521H50.3117Z" fill="#35EDE8"/>
<path d="M138.086 69.2156L511.914 69.2156" stroke="#EAEDF1" stroke-width="2"/>
<path d="M151.15 118.783L138 82H144.269L155.024 112.57L165.727 82H171.997L158.796 118.783H151.15Z" fill="#42464E"/>
<path d="M177.997 117.681V83.1017H184.366L195.129 103.662L205.843 83.1017H212.213V117.681H207.473V89.8306L197.401 108.803H192.809L182.736 89.7372V117.681H177.997Z" fill="#42464E"/>
<path d="M218.213 117.681V83.1017H231.247C234.045 83.1017 236.366 83.6469 238.209 84.7372C240.085 85.8275 241.484 87.245 242.406 88.9895C243.361 90.7029 243.838 92.4942 243.838 94.3634C243.838 96.2637 243.361 98.0861 242.406 99.8306C241.484 101.544 240.085 102.961 238.209 104.083C236.366 105.173 234.045 105.718 231.247 105.718H223.051V117.681H218.213ZM231.247 87.1204H223.051V101.7H231.247C232.992 101.7 234.44 101.342 235.592 100.625C236.744 99.9085 237.6 99.0051 238.16 97.9147C238.752 96.7933 239.049 95.625 239.049 94.4101C239.049 93.1951 238.752 92.0269 238.16 90.9054C237.6 89.7839 236.744 88.8805 235.592 88.1951C234.44 87.4786 232.992 87.1204 231.247 87.1204Z" fill="#42464E"/>
<path fill-rule="evenodd" clip-rule="evenodd" d="M444.508 18.8159C445.187 19.5118 446.054 19.8597 447.107 19.8597C448.16 19.8597 449.027 19.5283 449.707 18.8656C450.42 18.1697 450.777 17.3412 450.777 16.3802C450.777 15.4193 450.42 14.6074 449.707 13.9446C449.027 13.2487 448.16 12.9008 447.107 12.9008C446.054 12.9008 445.187 13.2487 444.508 13.9446C443.828 14.6074 443.488 15.4193 443.488 16.3802C443.488 17.3081 443.828 18.12 444.508 18.8159ZM444.253 24.383V50.7275H450.063V24.383H444.253ZM457.678 50.7275V24.383H463.488V28.2104H463.794C464.032 27.7465 464.44 27.1831 465.017 26.5204C465.595 25.8245 466.394 25.2114 467.413 24.6812C468.466 24.151 469.791 23.8859 471.388 23.8859C473.393 23.8859 475.075 24.3333 476.434 25.228C477.794 26.1227 478.813 27.3157 479.493 28.8069C480.206 30.2981 480.563 31.9384 480.563 33.7278V50.7275H474.753V34.3243C474.753 32.7337 474.294 31.3916 473.376 30.2981C472.493 29.2045 471.168 28.6578 469.401 28.6578C468.008 28.6578 466.869 29.0057 465.986 29.7016C465.136 30.3644 464.508 31.2425 464.1 32.3361C463.692 33.3965 463.488 34.5397 463.488 35.7658V50.7275H457.678ZM500.039 51.2246C497.762 51.2246 495.791 50.8435 494.126 50.0813C492.495 49.286 491.136 48.2422 490.049 46.9498C488.995 45.6243 488.197 44.1497 487.653 42.5259C487.143 40.9022 486.888 39.2453 486.888 37.5552C486.888 35.8984 487.143 34.258 487.653 32.6343C488.163 31.0105 488.944 29.5359 489.998 28.2104C491.051 26.8849 492.393 25.8411 494.024 25.0789C495.655 24.2836 497.575 23.8859 499.784 23.8859C502.162 23.8859 504.252 24.4161 506.053 25.4766C507.888 26.5038 509.315 28.0447 510.334 30.0993C511.388 32.1207 511.914 34.6391 511.914 37.6547V39.1956H492.75C492.886 41.217 493.582 42.9567 494.84 44.4148C496.097 45.8728 497.83 46.6018 500.039 46.6018C501.296 46.6018 502.332 46.403 503.148 46.0054C503.963 45.5746 504.592 45.0941 505.034 44.5639C505.475 44.0337 505.781 43.5697 505.951 43.1721L506.257 42.5756H511.66L511.405 43.4703C511.235 44.0337 510.912 44.7461 510.436 45.6077C509.995 46.4693 509.349 47.3309 508.499 48.1925C507.65 49.054 506.529 49.7831 505.135 50.3795C503.742 50.9429 502.043 51.2246 500.039 51.2246ZM492.801 35.219H506.308C506.172 32.8994 505.458 31.1928 504.167 30.0993C502.91 29.0057 501.432 28.4589 499.733 28.4589C497.83 28.4589 496.25 29.072 494.993 30.2981C493.735 31.491 493.005 33.1314 492.801 35.219ZM423.588 61.2156C421.243 61.2156 419.306 60.9173 417.777 60.3209C416.248 59.7244 415.025 58.9788 414.108 58.0841C413.19 57.2225 412.511 56.3443 412.069 55.4496C411.627 54.588 411.338 53.859 411.202 53.2625L410.998 52.3678H416.758L416.962 52.9643C417.098 53.3951 417.387 53.8756 417.828 54.4058C418.304 54.9691 419.001 55.4496 419.918 55.8473C420.836 56.2781 422.042 56.4935 423.537 56.4935C425.304 56.4935 426.714 56.1455 427.767 55.4496C428.855 54.7869 429.619 53.8921 430.061 52.7655C430.537 51.6719 430.775 50.479 430.775 49.1866V46.2042H430.52C430.146 46.7675 429.602 47.3971 428.889 48.093C428.209 48.7558 427.292 49.3357 426.136 49.8328C424.981 50.3298 423.588 50.5784 421.957 50.5784C419.918 50.5784 418.134 50.1973 416.605 49.4351C415.11 48.673 413.853 47.6623 412.833 46.403C411.848 45.1106 411.1 43.6692 410.591 42.0785C410.081 40.4879 409.826 38.8642 409.826 37.2073C409.826 35.5504 410.081 33.9432 410.591 32.3858C411.1 30.7952 411.848 29.3702 412.833 28.111C413.853 26.8186 415.11 25.7914 416.605 25.0292C418.134 24.267 419.918 23.8859 421.957 23.8859C423.588 23.8859 424.981 24.1345 426.136 24.6315C427.292 25.0955 428.226 25.6754 428.94 26.3713C429.653 27.034 430.18 27.6636 430.52 28.2601H430.775V24.383H436.585V49.1369C436.585 51.4897 436.092 53.5773 435.107 55.3999C434.122 57.2225 432.66 58.6474 430.724 59.6747C428.787 60.7019 426.408 61.2156 423.588 61.2156ZM423.282 45.906C424.947 45.906 426.34 45.4917 427.462 44.6633C428.583 43.8017 429.415 42.7082 429.959 41.3827C430.503 40.0571 430.775 38.6654 430.775 37.2073C430.775 35.7492 430.503 34.3575 429.959 33.0319C429.415 31.7064 428.583 30.6295 427.462 29.801C426.34 28.9726 424.947 28.5584 423.282 28.5584C421.583 28.5584 420.173 28.9726 419.052 29.801C417.93 30.6295 417.098 31.7064 416.554 33.0319C416.01 34.3575 415.739 35.7492 415.739 37.2073C415.739 38.6654 416.01 40.0571 416.554 41.3827C417.098 42.7082 417.93 43.8017 419.052 44.6633C420.173 45.4917 421.583 45.906 423.282 45.906ZM380.616 24.383V50.7275H386.426V35.7658C386.426 34.5397 386.63 33.3965 387.038 32.3361C387.445 31.2425 388.074 30.3644 388.924 29.7016C389.807 29.0057 390.945 28.6578 392.338 28.6578C394.105 28.6578 395.431 29.2045 396.314 30.2981C397.232 31.3916 397.69 32.7337 397.69 34.3243V50.7275H403.501V33.7278C403.501 31.9384 403.144 30.2981 402.43 28.8069C401.751 27.3157 400.731 26.1227 399.372 25.228C398.013 24.3333 396.331 23.8859 394.326 23.8859C392.729 23.8859 391.404 24.151 390.351 24.6812C389.331 25.2114 388.533 25.8245 387.955 26.5204C387.377 27.1831 386.97 27.7465 386.732 28.2104H386.426V24.383H380.616ZM349.017 50.7275V13.9446H373.635V19.0147H354.98V29.5028H371.29V34.5231H354.98V45.6574H373.89V50.7275H349.017ZM321.111 49.286C323.149 50.5784 325.647 51.2246 328.603 51.2246C331.525 51.2246 333.989 50.5784 335.994 49.286C338.033 47.9936 339.562 46.3036 340.581 44.2159C341.634 42.1283 342.161 39.908 342.161 37.5552C342.161 35.2025 341.634 32.9822 340.581 30.8946C339.562 28.8069 338.033 27.1169 335.994 25.8245C333.989 24.5321 331.525 23.8859 328.603 23.8859C325.647 23.8859 323.149 24.5321 321.111 25.8245C319.106 27.1169 317.577 28.8069 316.523 30.8946C315.504 32.9822 314.994 35.2025 314.994 37.5552C314.994 39.908 315.504 42.1283 316.523 44.2159C317.577 46.3036 319.106 47.9936 321.111 49.286ZM332.783 45.1604C331.661 45.9888 330.268 46.403 328.603 46.403C326.938 46.403 325.528 45.9888 324.373 45.1604C323.217 44.3319 322.351 43.2384 321.773 41.8797C321.196 40.5211 320.907 39.0796 320.907 37.5552C320.907 35.9978 321.196 34.5563 321.773 33.2308C322.351 31.8721 323.217 30.7786 324.373 29.9501C325.528 29.1217 326.938 28.7075 328.603 28.7075C330.268 28.7075 331.661 29.1217 332.783 29.9501C333.938 30.7786 334.804 31.8721 335.382 33.2308C335.994 34.5563 336.3 35.9978 336.3 37.5552C336.3 39.0796 335.994 40.5211 335.382 41.8797C334.804 43.2384 333.938 44.3319 332.783 45.1604ZM285.784 50.7275V24.383H291.594V28.2104H291.9C292.138 27.7465 292.546 27.1831 293.123 26.5204C293.701 25.8245 294.499 25.2114 295.519 24.6812C296.572 24.151 297.897 23.8859 299.494 23.8859C301.499 23.8859 303.181 24.3333 304.54 25.228C305.9 26.1227 306.919 27.3157 307.599 28.8069C308.312 30.2981 308.669 31.9384 308.669 33.7278V50.7275H302.858V34.3243C302.858 32.7337 302.4 31.3916 301.482 30.2981C300.599 29.2045 299.274 28.6578 297.507 28.6578C296.113 28.6578 294.975 29.0057 294.092 29.7016C293.242 30.3644 292.614 31.2425 292.206 32.3361C291.798 33.3965 291.594 34.5397 291.594 35.7658V50.7275H285.784ZM268.483 24.6812C267.361 24.151 265.951 23.8859 264.252 23.8859C262.213 23.8859 260.43 24.2836 258.9 25.0789C257.405 25.8411 256.148 26.8849 255.129 28.2104C254.109 29.5028 253.345 30.9608 252.835 32.5846C252.359 34.2083 252.121 35.8652 252.121 37.5552C252.121 39.2453 252.359 40.9022 252.835 42.5259C253.345 44.1497 254.109 45.6243 255.129 46.9498C256.148 48.2422 257.405 49.286 258.9 50.0813C260.43 50.8435 262.213 51.2246 264.252 51.2246C265.951 51.2246 267.361 50.9595 268.483 50.4292C269.638 49.899 270.555 49.286 271.235 48.5901C271.915 47.8942 272.407 47.2977 272.713 46.8007H273.019V50.7275H278.829V24.383H273.019V28.3098H272.713C272.407 27.8128 271.915 27.2163 271.235 26.5204C270.555 25.8245 269.638 25.2114 268.483 24.6812ZM261.347 29.9501C262.468 29.0554 263.861 28.6081 265.526 28.6081C267.191 28.6081 268.568 29.0554 269.655 29.9501C270.776 30.8117 271.609 31.9218 272.152 33.2805C272.73 34.6391 273.019 36.0641 273.019 37.5552C273.019 39.0464 272.73 40.4714 272.152 41.83C271.609 43.1887 270.776 44.3153 269.655 45.2101C268.568 46.0716 267.191 46.5024 265.526 46.5024C263.861 46.5024 262.468 46.0716 261.347 45.2101C260.226 44.3153 259.376 43.1887 258.798 41.83C258.255 40.4714 257.983 39.0464 257.983 37.5552C257.983 36.0641 258.255 34.6391 258.798 33.2805C259.376 31.9218 260.226 30.8117 261.347 29.9501ZM234.119 51.2246C231.842 51.2246 229.854 50.8435 228.155 50.0813C226.456 49.286 225.046 48.2422 223.925 46.9498C222.803 45.6243 221.954 44.1497 221.376 42.5259C220.832 40.9022 220.561 39.2453 220.561 37.5552C220.561 35.8652 220.832 34.2083 221.376 32.5846C221.954 30.9608 222.803 29.5028 223.925 28.2104C225.046 26.8849 226.456 25.8411 228.155 25.0789C229.854 24.2836 231.842 23.8859 234.119 23.8859C236.361 23.8859 238.213 24.2173 239.674 24.8801C241.169 25.5097 242.359 26.305 243.242 27.266C244.126 28.227 244.788 29.188 245.23 30.149C245.672 31.11 245.943 31.9218 246.045 32.5846L246.249 33.5787H240.745L240.49 32.8331C240.354 32.3361 240.065 31.7561 239.623 31.0934C239.181 30.4306 238.519 29.8507 237.635 29.3537C236.786 28.8566 235.631 28.6081 234.169 28.6081C232.437 28.6081 230.992 29.0389 229.837 29.9004C228.682 30.7289 227.798 31.8224 227.187 33.1811C226.609 34.5397 226.32 35.9978 226.32 37.5552C226.32 39.1127 226.609 40.5708 227.187 41.9294C227.798 43.2881 228.682 44.3982 229.837 45.2598C230.992 46.0882 232.437 46.5024 234.169 46.5024C235.631 46.5024 236.786 46.2539 237.635 45.7568C238.519 45.2598 239.181 44.6799 239.623 44.0171C240.065 43.3543 240.354 42.7744 240.49 42.2774L240.745 41.5318H246.249L246.045 42.5259C245.943 43.1887 245.672 44.0005 245.23 44.9615C244.788 45.9225 244.126 46.8835 243.242 47.8445C242.359 48.8055 241.169 49.6174 239.674 50.2801C238.213 50.9097 236.361 51.2246 234.119 51.2246ZM207.988 12.9505L207.937 50.7275H213.747V12.9505H207.988ZM187.523 51.2246C184.567 51.2246 182.07 50.5784 180.031 49.286C178.026 47.9936 176.497 46.3036 175.444 44.2159C174.424 42.1283 173.914 39.908 173.914 37.5552C173.914 35.2025 174.424 32.9822 175.444 30.8946C176.497 28.8069 178.026 27.1169 180.031 25.8245C182.07 24.5321 184.567 23.8859 187.523 23.8859C190.446 23.8859 192.909 24.5321 194.914 25.8245C196.953 27.1169 198.482 28.8069 199.501 30.8946C200.554 32.9822 201.081 35.2025 201.081 37.5552C201.081 39.908 200.554 42.1283 199.501 44.2159C198.482 46.3036 196.953 47.9936 194.914 49.286C192.909 50.5784 190.446 51.2246 187.523 51.2246ZM187.523 46.403C189.188 46.403 190.581 45.9888 191.703 45.1604C192.858 44.3319 193.725 43.2384 194.302 41.8797C194.914 40.5211 195.22 39.0796 195.22 37.5552C195.22 35.9978 194.914 34.5563 194.302 33.2308C193.725 31.8721 192.858 30.7786 191.703 29.9501C190.581 29.1217 189.188 28.7075 187.523 28.7075C185.858 28.7075 184.448 29.1217 183.293 29.9501C182.138 30.7786 181.271 31.8721 180.693 33.2308C180.116 34.5563 179.827 35.9978 179.827 37.5552C179.827 39.0796 180.116 40.5211 180.693 41.8797C181.271 43.2384 182.138 44.3319 183.293 45.1604C184.448 45.9888 185.858 46.403 187.523 46.403ZM138.086 13.9446L151.236 50.7275H158.881L172.082 13.9446H165.813L155.109 44.5142L144.355 13.9446H138.086Z" fill="#42464E"/>
</svg>
