<?xml version="1.0" encoding="utf-8"?>
<!-- Generator: Adobe Illustrator 24.3.0, SVG Export Plug-In . SVG Version: 6.00 Build 0)  -->
<svg version="1.1" id="Layer_1" xmlns="http://www.w3.org/2000/svg" xmlns:xlink="http://www.w3.org/1999/xlink" x="0px" y="0px"
	 viewBox="0 0 228 228" style="enable-background:new 0 0 228 228;" xml:space="preserve">
<style type="text/css">
	.st0{fill:none;}
</style>
<rect x="-55.06" y="-55.46" class="st0" width="338.75" height="338.72"/>
<g>
	<g>
		<path d="M103.39,122.55l27.41,0v-9.15h-3.01c0,3.5-2.56,6.08-6.47,6.08h-4.22v-13.66h4.55v-3.03l-18.26,0l0,3.03h4.6l0.01,13.66
			h-4.61V122.55z"/>
		<polygon points="143.98,122.57 154.65,122.58 163.7,105.83 168.24,105.84 168.24,102.8 154.59,102.8 154.59,105.83 158.53,105.83 
			151.94,118.02 145.26,105.84 150.05,105.83 150.04,102.8 130.24,102.8 130.24,105.84 134.77,105.84 		"/>
		<polygon points="48.82,102.8 29.01,102.8 29.01,105.84 33.54,105.84 42.75,122.57 53.42,122.58 62.47,105.83 67.01,105.84 
			67.01,102.8 53.36,102.8 53.36,105.83 57.3,105.83 50.71,118.02 44.03,105.84 48.82,105.83 		"/>
		<path d="M69.66,112.7c0,5.82,4.69,10.45,14.09,10.45c9.4,0,14.04-4.63,14.04-10.45c0-5.74-4.92-10.32-14.1-10.32
			C74.53,102.38,69.66,106.96,69.66,112.7z M88.59,112.75c-0.06,3.59-1.55,7.33-4.99,7.27c-3.35-0.06-4.82-3.76-4.76-7.44
			c0.07-3.81,1.89-7.13,5.03-7.08C87,105.56,88.66,108.94,88.59,112.75z"/>
		<path d="M170.86,112.7c0,5.82,4.69,10.45,14.09,10.45c9.4,0,14.04-4.63,14.04-10.45c0-5.74-4.92-10.32-14.09-10.32
			C175.73,102.38,170.86,106.96,170.86,112.7z M185.07,105.5c3.13,0.06,4.79,3.44,4.72,7.25c-0.07,3.59-1.55,7.33-4.99,7.27
			c-3.35-0.06-4.82-3.76-4.76-7.44C180.1,108.77,181.93,105.45,185.07,105.5z"/>
	</g>
	<g>
		<g>
			<path d="M206.92,49.84l-11.47,11.47C205.29,76.48,211,94.57,211,114c0,53.57-43.43,97-97,97s-97-43.43-97-97s43.43-97,97-97
				c19.47,0,37.6,5.74,52.8,15.62l11.47-11.47C160.03,8.5,137.88,1.08,114,1.08C51.64,1.08,1.08,51.64,1.08,114
				S51.64,226.92,114,226.92S226.92,176.36,226.92,114C226.92,90.17,219.53,68.06,206.92,49.84z"/>
		</g>
		<path d="M170.8,5.52l0,3.17c6.85,3.71,13.29,8.09,19.26,13.01l-16.09,16.09c6.07,4.76,11.55,10.24,16.32,16.3l16.07-16.07
			c4.93,5.98,9.31,12.43,13.02,19.18l3.09,0V5.52H170.8z"/>
	</g>
</g>
</svg>
