<svg height="31.100801mm" viewBox="0 0 269.1933 117.54634" width="71.22406mm" xmlns="http://www.w3.org/2000/svg"><g fill="#654ff0" transform="translate(-97.43 4.280868)"><path d="m163.76 0v.58c0 6.8151984-5.52481 12.339995-12.34 12.339995s-12.34-5.5247966-12.34-12.339995v-.58h-41.44v107.62h107.62v-107.62z" transform="translate(-.21)"/><path d="m183.87 81.37-3.57-13.98h-3l-3.11 13.98z"/></g><path d="m219.48056 116.06097c-5.92548-1.93861-9.68182-4.19903-14.55898-8.76103-15.86954-14.844102-16.05002-41.530512-.49142-72.661812 6.50984-13.02556 20.15192-29.8347901 27.29297-33.6292901 2.05405-1.09144997 2.07893-1.03416997 2.07893 4.78582 0 7.2712501 2.82946 18.6656501 6.15007 24.7667101 1.37203 2.52084 5.80151 8.20364 9.84331 12.62842 14.1091 15.44602 17.54344 21.01487 18.70797 30.33545 1.42645 11.41692-4.08943 27.098752-12.14265 34.521942-7.02684 6.47711-13.09818 8.76188-23.94465 9.01085-5.68725.13055-10.66066-.2528-12.93555-.99706z" fill="#654ff0" stroke="#654ff0" stroke-width=".923968"/><g font-family="sans-serif" letter-spacing="0" word-spacing="0"><text fill="#fff" font-size="51" font-weight="bold" x="21" y="100">WA</text><text fill="#555" font-size="51" font-weight="bold" x="112" y="100">SM</text><text fill="#fff" font-size="51" font-weight="bold" x="196" y="100">EX</text></g></svg>