<svg xmlns="http://www.w3.org/2000/svg" viewBox="0 0 35 42.069"><title>Wasmer logo</title><path d="M10.75 16.3v.119c0 1.386-.899 1.99-2.005 1.351-1.106-.639-2.006-2.28-2.006-3.667v-.118L0 10.092v21.875l17.5 10.102V20.194L10.75 16.3Z" fill="#4946DD"/><path d="M19.5 11.252v.118c0 1.386-.899 1.99-2.005 1.352-1.106-.64-2.006-2.281-2.006-3.667v-.118L8.75 5.048v7.826l10.716 6.19v14.048l6.784 3.918V15.155l-6.75-3.903Z" fill="#4946DD"/><path d="M28.25 6.209v.118c0 1.386-.899 1.99-2.005 1.351-1.106-.639-2.006-2.28-2.006-3.667v-.118L17.5 0v7.826l10.716 6.189v14.049L35 31.982V10.107l-6.75-3.898Z" fill="#4946DD"/></svg>