<?xml version="1.0" encoding="UTF-8" standalone="no"?>
<!-- Created with Inkscape (http://www.inkscape.org/) -->

<svg
   xmlns:dc="http://purl.org/dc/elements/1.1/"
   xmlns:cc="http://creativecommons.org/ns#"
   xmlns:rdf="http://www.w3.org/1999/02/22-rdf-syntax-ns#"
   xmlns:svg="http://www.w3.org/2000/svg"
   xmlns="http://www.w3.org/2000/svg"
   xmlns:sodipodi="http://sodipodi.sourceforge.net/DTD/sodipodi-0.dtd"
   xmlns:inkscape="http://www.inkscape.org/namespaces/inkscape"
   width="524.46649"
   height="90.725975"
   id="svg2"
   version="1.1"
   inkscape:version="0.47 r22583"
   sodipodi:docname="waveconlogo.svg">
  <defs
     id="defs4">
    <inkscape:perspective
       sodipodi:type="inkscape:persp3d"
       inkscape:vp_x="0 : 526.18109 : 1"
       inkscape:vp_y="0 : 1000 : 0"
       inkscape:vp_z="744.09448 : 526.18109 : 1"
       inkscape:persp3d-origin="372.04724 : 350.78739 : 1"
       id="perspective10" />
    <inkscape:perspective
       id="perspective2832"
       inkscape:persp3d-origin="0.5 : 0.33333333 : 1"
       inkscape:vp_z="1 : 0.5 : 1"
       inkscape:vp_y="0 : 1000 : 0"
       inkscape:vp_x="0 : 0.5 : 1"
       sodipodi:type="inkscape:persp3d" />
  </defs>
  <sodipodi:namedview
     id="base"
     pagecolor="#ffffff"
     bordercolor="#666666"
     borderopacity="1.0"
     inkscape:pageopacity="0.0"
     inkscape:pageshadow="2"
     inkscape:zoom="1"
     inkscape:cx="212.09568"
     inkscape:cy="44.015603"
     inkscape:document-units="px"
     inkscape:current-layer="layer1"
     showgrid="false"
     inkscape:window-width="1680"
     inkscape:window-height="975"
     inkscape:window-x="1680"
     inkscape:window-y="24"
     inkscape:window-maximized="1" />
  <metadata
     id="metadata7">
    <rdf:RDF>
      <cc:Work
         rdf:about="">
        <dc:format>image/svg+xml</dc:format>
        <dc:type
           rdf:resource="http://purl.org/dc/dcmitype/StillImage" />
        <dc:title />
      </cc:Work>
    </rdf:RDF>
  </metadata>
  <g
     inkscape:label="Ebene 1"
     inkscape:groupmode="layer"
     id="layer1"
     transform="translate(-17.556612,-273.01516)">
    <g
       id="g2835">
      <path
         d="m 60.413357,277.27578 c 0.334119,-1.08596 0.835368,-2.04666 1.503745,-2.88218 0.668283,-0.91885 1.75432,-1.37834 3.258115,-1.37844 1.503692,1e-4 2.589732,0.45959 3.258115,1.37844 0.668277,0.83552 1.169526,1.79622 1.503746,2.88218 l 21.553684,75.93914 0.250625,0 12.029963,-75.68852 c 0.33408,-1.83783 0.96064,-3.04916 1.87968,-3.63405 0.91887,-0.58468 1.92136,-0.87709 3.00749,-0.87719 1.16949,1e-4 2.13021,0.33427 2.88218,1.0025 0.83532,0.5849 1.25302,1.50384 1.25312,2.75687 -1e-4,0.50134 -0.16716,1.58739 -0.50125,3.25811 -0.25071,1.67091 -0.58488,3.67591 -1.00249,6.01498 l -13.157775,72.68103 c -0.334248,1.67085 -1.169664,2.92397 -2.506243,3.75937 -1.336742,0.83542 -2.715175,1.25312 -4.1353,1.25312 -1.670905,0 -3.091105,-0.37594 -4.260612,-1.12781 -1.169651,-0.75187 -2.005066,-2.04675 -2.506242,-3.88468 l -19.423379,-71.55322 -0.250624,0 -19.924627,71.55322 c -0.50128,1.83793 -1.336692,3.13281 -2.506242,3.88468 -1.169607,0.75187 -2.58981,1.12781 -4.260613,1.12781 -1.420228,0 -2.798658,-0.4177 -4.1353,-1.25312 -1.336682,-0.8354 -2.172094,-2.08852 -2.506242,-3.75937 L 19.060357,286.04762 c -0.33417,-1.83782 -0.626564,-3.29978 -0.877185,-4.38592 -0.167072,-1.08595 -0.292416,-1.92135 -0.375936,-2.50624 -0.08355,-0.66823 -0.167073,-1.16948 -0.250624,-1.50375 -4e-6,-0.33408 -4e-6,-0.62646 0,-0.87718 -4e-6,-1.25303 0.375933,-2.17197 1.127809,-2.75687 0.835408,-0.66823 1.837905,-1.0024 3.00749,-1.0025 1.08603,1e-4 2.088527,0.29261 3.007491,0.87719 0.918945,0.58489 1.545503,1.79622 1.879682,3.63405 l 12.029964,75.68852 0.250624,0 21.553685,-75.93914"
         style="font-size:40px;font-style:normal;font-variant:normal;font-weight:bold;font-stretch:normal;fill:#024273;fill-opacity:1;stroke:none;font-family:VAGRounded LT Thin;-inkscape-font-specification:'VAGRounded LT Thin, Bold'"
         id="path2839" />
      <path
         d="m 150.17405,284.7945 -0.25062,0 -18.54621,50.50079 37.34303,0 -18.5462,-50.50079 m -27.69399,74.81134 c -0.5848,1.1696 -1.16959,2.1721 -1.75437,3.00749 -0.5848,0.75187 -1.67084,1.12781 -3.25812,1.12781 -1.33666,0 -2.33916,-0.33415 -3.00749,-1.0025 -0.66833,-0.75187 -1.0025,-1.58726 -1.00249,-2.50624 -1e-5,-0.50125 0.0836,-1.08602 0.25062,-1.75437 0.16707,-0.66832 0.37593,-1.33664 0.62656,-2.00499 l 28.69649,-76.94165 c 0.25063,-0.75177 0.54298,-1.50365 0.87719,-2.25561 0.41766,-0.75178 0.87712,-1.4201 1.37843,-2.005 0.50119,-0.66822 1.12775,-1.21123 1.87968,-1.62906 0.75181,-0.4176 1.71255,-0.62646 2.88215,-0.62656 1.08602,1e-4 2.00496,0.20896 2.7569,0.62656 0.83536,0.41783 1.50368,0.96084 2.00499,1.62906 0.50119,0.5849 0.91888,1.25322 1.25309,2.005 0.41767,0.75196 0.75184,1.50384 1.00253,2.25561 l 28.69648,76.94165 c 0.25062,0.66835 0.45939,1.33667 0.62656,2.00499 0.16698,0.66835 0.25063,1.25312 0.25063,1.75437 -1e-4,0.91898 -0.33427,1.75437 -1.00253,2.50624 -0.66839,0.66835 -1.67088,1.0025 -3.00746,1.0025 -1.58736,0 -2.71517,-0.37594 -3.38343,-1.12781 -0.66841,-0.83539 -1.21142,-1.83789 -1.62906,-3.00749 l -5.8897,-16.03995 -43.35798,0 -5.88967,16.03995"
         style="font-size:40px;font-style:normal;font-variant:normal;font-weight:bold;font-stretch:normal;fill:#024273;fill-opacity:1;stroke:none;font-family:VAGRounded LT Thin;-inkscape-font-specification:'VAGRounded LT Thin, Bold'"
         id="path2841" />
      <path
         d="m 240.9803,276.77453 c 0.75181,-2.50615 2.21379,-3.75927 4.38592,-3.75937 1.42013,1e-4 2.50618,0.41783 3.25812,1.25312 0.83533,0.75197 1.25305,1.75447 1.25312,3.0075 -7e-5,1.00259 -0.58487,3.09113 -1.75437,6.2656 l -26.44086,74.68603 c -0.41776,1.25312 -1.04432,2.50624 -1.87968,3.75936 -0.75191,1.1696 -1.92148,1.75437 -3.50874,1.75437 -1.58733,0 -2.79866,-0.58477 -3.63405,-1.75437 -0.75191,-1.25312 -1.33671,-2.50624 -1.75437,-3.75936 l -26.44086,-74.68603 c -1.16957,-3.17447 -1.75437,-5.26301 -1.75437,-6.2656 0,-1.25303 0.37594,-2.25553 1.12781,-3.0075 0.83542,-0.83529 1.96323,-1.25302 3.38343,-1.25312 2.17206,1e-4 3.63405,1.25322 4.38592,3.75937 l 24.56118,72.05447 0.25062,0 24.56118,-72.05447"
         style="font-size:40px;font-style:normal;font-variant:normal;font-weight:bold;font-stretch:normal;fill:#024273;fill-opacity:1;stroke:none;font-family:VAGRounded LT Thin;-inkscape-font-specification:'VAGRounded LT Thin, Bold'"
         id="path2843" />
      <path
         d="m 268.50391,354.71867 27.31804,0 c 1.42017,3e-5 2.54798,0.41772 3.38343,1.25312 0.91892,0.7519 1.3784,1.71261 1.37844,2.88218 -4e-5,1.1696 -0.45952,2.17209 -1.37844,3.00749 -0.83545,0.75187 -1.96326,1.12781 -3.38343,1.12781 l -30.82678,0 c -2.00499,0 -3.42518,-0.37594 -4.26061,-1.12781 -0.83539,-0.8354 -1.25312,-2.04676 -1.25312,-3.63405 l 0,-79.69851 c 0,-1.58721 0.41773,-2.75678 1.25312,-3.50874 0.83543,-0.8353 2.25562,-1.25303 4.26061,-1.25312 l 29.57366,0 c 1.42017,9e-5 2.54797,0.41782 3.38343,1.25312 0.91891,0.75196 1.3784,1.7127 1.37847,2.88218 -7e-5,1.16966 -0.45956,2.17216 -1.37847,3.00749 -0.83546,0.75196 -1.96326,1.1279 -3.38343,1.12781 l -25.93961,0 0,32.33052 24.8118,0 c 1.42017,7e-5 2.54798,0.41776 3.38343,1.25312 0.91892,0.75194 1.3784,1.71265 1.37843,2.88218 -3e-5,1.16964 -0.45951,2.17213 -1.37843,3.00749 -0.83545,0.75194 -1.96326,1.12788 -3.38343,1.12781 l -24.93711,0 0,32.07991"
         style="font-size:40px;font-style:normal;font-variant:normal;font-weight:bold;font-stretch:normal;fill:#024273;fill-opacity:1;stroke:none;font-family:VAGRounded LT Thin;-inkscape-font-specification:'VAGRounded LT Thin, Bold'"
         id="path2845" />
      <path
         d="m 350.6284,273.01516 c 3.7593,1e-4 7.26804,0.50135 10.52622,1.50375 3.3416,1.00259 6.22378,2.21395 8.64654,3.63405 2.42262,1.33677 4.3441,2.79872 5.76435,4.38592 1.42013,1.50384 2.13025,2.79873 2.13031,3.88468 -6e-5,1.58736 -0.45955,2.79872 -1.37843,3.63405 -0.83549,0.75197 -1.71268,1.12791 -2.63156,1.12781 -0.91901,10e-5 -1.9633,-0.50115 -3.1328,-1.50374 -1.16963,-1.08596 -2.63162,-2.21377 -4.38593,-3.38343 -1.67088,-1.25303 -3.80118,-2.38084 -6.39091,-3.38343 -2.50631,-1.08595 -5.59732,-1.62896 -9.2731,-1.62906 -4.67837,1e-4 -8.85543,1.16967 -12.53121,3.50874 -3.59233,2.25572 -6.59979,5.22141 -9.02248,8.89716 -2.42272,3.59236 -4.26064,7.6859 -5.51373,12.28059 -1.25312,4.59485 -1.87968,9.14785 -1.87968,13.65902 0,4.59482 0.58477,9.0643 1.75437,13.4084 1.16957,4.26064 2.9657,8.06177 5.38842,11.4034 2.50621,3.3417 5.68077,6.01502 9.52372,8.01998 3.84288,2.00502 8.4794,3.00752 13.90965,3.00749 3.9264,3e-5 7.18452,-0.45946 9.77434,-1.37843 2.67325,-0.91895 4.88711,-1.92145 6.64154,-3.0075 1.83786,-1.08601 3.29982,-2.08851 4.38593,-3.00749 1.08598,-0.91891 2.04669,-1.3784 2.88218,-1.37843 1.1695,3e-5 2.08845,0.37597 2.75686,1.12781 0.66826,0.66835 1.00244,1.79616 1.0025,3.38343 -6e-5,1.00252 -0.71017,2.21385 -2.13031,3.63405 -1.33673,1.42022 -3.25817,2.79866 -5.76435,4.1353 -2.42276,1.25312 -5.34673,2.38093 -8.77185,3.38343 -3.42525,0.91897 -7.18462,1.37843 -11.27809,1.37843 -6.85044,0 -12.78187,-1.16957 -17.79432,-3.50874 -5.01252,-2.42269 -9.14782,-5.63901 -12.4059,-9.64903 -3.25812,-4.00996 -5.68084,-8.68827 -7.26811,-14.03496 -1.58729,-5.3466 -2.38093,-10.98565 -2.38093,-16.91714 0,-5.84784 0.79364,-11.57041 2.38093,-17.16776 1.58727,-5.59719 3.9682,-10.56791 7.14279,-14.91214 3.25809,-4.34407 7.30987,-7.85281 12.15528,-10.52622 4.84538,-2.67322 10.56795,-4.00989 17.16776,-4.00999"
         style="font-size:40px;font-style:normal;font-variant:normal;font-weight:bold;font-stretch:normal;fill:#024273;fill-opacity:1;stroke:none;font-family:VAGRounded LT Thin;-inkscape-font-specification:'VAGRounded LT Thin, Bold'"
         id="path2847" />
      <path
         id="path2849"
         transform="translate(17.556612,273.01516)"
         d="M 406.46875 0 C 400.20311 0.0001 394.69932 1.28533 389.9375 3.875 C 385.1756 6.46489 381.20582 9.89574 378.03125 14.15625 C 374.94021 18.41696 372.58726 23.25738 371 28.6875 C 369.4127 34.11774 368.625 39.69426 368.625 45.375 C 368.625 50.782535 369.34302 56.06964 370.78125 61.25 L 385.78125 61.21875 C 387.44142 49.01506 388.9142 39.78789 390.21875 33.875 C 390.96141 30.50886 391.61629 28.0477 392.4375 26.03125 C 392.84811 25.02303 393.269 24.11558 394.03125 23.125 C 394.7935 22.13442 396.18866 20.67944 398.625 20.46875 C 401.06134 20.25806 403.03728 21.71391 403.90625 22.71875 C 404.77522 23.72359 405.141 24.54773 405.5 25.40625 C 406.21799 27.12329 406.68984 28.95812 407.15625 31.125 C 408.08906 35.45875 408.89469 41.03486 409.75 46.96875 C 411.06888 56.11873 412.72392 66.31095 414.28125 72.53125 C 415.13632 70.53301 416.04994 68.46919 417 65.25 A 5.3449835 5.3449835 0 0 1 422.125 61.4375 L 442.09375 61.46875 C 443.57296 56.218229 444.3124 50.859181 444.3125 45.375 C 444.3124 39.69426 443.52471 34.11774 441.9375 28.6875 C 440.35015 23.25738 437.95575 18.41696 434.78125 14.15625 C 431.69015 9.89574 427.7618 6.46489 423 3.875 C 418.23808 1.28533 412.73429 0.0001 406.46875 0 z M 398.8125 46.1875 C 397.87348 51.7981 396.86824 58.44936 395.71875 67.25 A 5.3449835 5.3449835 0 0 1 390.40625 71.90625 L 375.09375 71.9375 C 375.98276 73.550535 376.96245 75.089308 378.03125 76.5625 C 381.20582 80.82314 385.1756 84.25399 389.9375 86.84375 C 394.69932 89.43355 400.20311 90.71875 406.46875 90.71875 C 412.73429 90.71875 418.23808 89.43355 423 86.84375 C 427.7618 84.25399 431.69015 80.82314 434.78125 76.5625 C 435.82625 75.159976 436.78324 73.685522 437.65625 72.15625 L 425.96875 72.125 C 424.0269 78.36256 422.35819 82.79335 419.125 85.71875 C 418.1408 86.60926 416.81585 87.45681 415.09375 87.75 C 413.37165 88.04319 411.44053 87.56086 410.15625 86.78125 C 407.58769 85.22204 406.7212 83.26688 405.84375 81.28125 C 402.33396 73.33874 400.89162 60.32268 399.1875 48.5 C 399.05725 47.59635 398.94127 47.06648 398.8125 46.1875 z "
         style="font-size:40px;font-style:normal;font-variant:normal;font-weight:bold;font-stretch:normal;fill:#024273;fill-opacity:1;stroke:none;font-family:VAGRounded LT Thin;-inkscape-font-specification:'VAGRounded LT Thin, Bold'" />
      <path
         d="m 484.12888,357.97678 c -3e-5,3.84292 -1.50377,5.76436 -4.51123,5.76436 -3.00749,0 -4.51124,-1.92144 -4.51124,-5.76436 l 0,-79.69851 c 0,-1.75427 0.4177,-3.04915 1.25312,-3.88467 0.91895,-0.91885 2.005,-1.37834 3.25812,-1.37844 1.25312,1e-4 2.25562,0.33427 3.00749,1.0025 0.83539,0.5849 1.58727,1.33677 2.25562,2.25562 l 47.86923,70.04947 0.25062,0 0,-67.54323 c -6e-5,-3.84282 1.50368,-5.76426 4.51124,-5.76436 3.00743,1e-4 4.51117,1.92154 4.51123,5.76436 l 0,79.44789 c -6e-5,2.17209 -0.41779,3.63405 -1.25312,4.38592 -0.75193,0.75187 -1.75443,1.12781 -3.00749,1.12781 -1.16966,0 -2.08861,-0.25063 -2.75686,-0.75187 -0.66839,-0.58477 -1.3785,-1.4202 -2.13031,-2.50625 l -48.49579,-70.92666 -0.25063,0 0,68.42042"
         style="font-size:40px;font-style:normal;font-variant:normal;font-weight:bold;font-stretch:normal;fill:#024273;fill-opacity:1;stroke:none;font-family:VAGRounded LT Thin;-inkscape-font-specification:'VAGRounded LT Thin, Bold'"
         id="path2851" />
    </g>
  </g>
</svg>
