<svg xmlns="http://www.w3.org/2000/svg" id="Layer_1" data-name="Layer 1" viewBox="0 0 400 245"><defs><style>.cls-1{fill:none}.cls-2{fill:#727073}.cls-3{fill:#2d2d2d}.cls-4{clip-path:url(#clip-path)}.cls-5{fill:#29a9e1}.cls-6{fill:#231f20}</style><clipPath id="clip-path"><path class="cls-1" d="M3 74.488h394v96.988H3z"/></clipPath></defs><title>wavefront__by_VMware</title><path class="cls-2" d="M276.956 166.197l-8.122-22.614a3.75 3.75 0 0 1-.248-1.085 1.96 1.96 0 0 1 2.017-1.895 2.093 2.093 0 0 1 2.018 1.644l6.711 19.473 6.785-19.536a2.002 2.002 0 0 1 1.943-1.58h.21a2.1 2.1 0 0 1 2.077 1.58l6.712 19.536 6.835-19.576a1.934 1.934 0 0 1 1.917-1.54 1.893 1.893 0 0 1 1.948 1.862 4.394 4.394 0 0 1-.244 1.08l-8.162 22.651a2.386 2.386 0 0 1-2.183 1.791h-.143a2.248 2.248 0 0 1-2.188-1.79l-6.668-19.217-6.712 19.216a2.241 2.241 0 0 1-2.177 1.791h-.11a2.373 2.373 0 0 1-2.216-1.79M336.108 142.608a2.022 2.022 0 0 1 1.968-2.028 1.98 1.98 0 0 1 2.02 2.028v4.59a10.87 10.87 0 0 1 9.216-6.552 1.913 1.913 0 0 1 1.975 2.008 2 2 0 0 1-1.764 2.021c-5.166.612-9.427 4.508-9.427 12.223v9.08a1.965 1.965 0 0 1-1.956 2.01 1.991 1.991 0 0 1-2.031-2.01v-23.37M364.092 167.988c-7.211 0-13.098-5.583-13.098-13.784v-.101c0-7.631 5.328-13.798 12.588-13.798 7.76 0 12.171 6.41 12.171 13.426a1.844 1.844 0 0 1-1.822 1.86h-18.972c.556 5.734 4.554 8.963 9.233 8.963a10.632 10.632 0 0 0 7.556-3.077 1.7 1.7 0 0 1 1.118-.461 1.733 1.733 0 0 1 1.734 1.707 1.674 1.674 0 0 1-.61 1.255 13.226 13.226 0 0 1-9.898 4.01m7.743-15.32c-.398-4.824-3.136-9.02-8.353-9.02-4.58 0-8.023 3.838-8.523 9.02zM307.841 159.684v-.106c0-5.63 4.644-8.618 11.396-8.618a28.66 28.66 0 0 1 8.23 1.135v-.943c0-4.782-2.946-7.275-7.958-7.275a13.371 13.371 0 0 0-6.188 1.223 2.383 2.383 0 0 1-.729.153 1.772 1.772 0 0 1-1.77-1.693 1.648 1.648 0 0 1 1.095-1.665 17.574 17.574 0 0 1 8-1.514c3.77 0 6.675.964 8.636 2.937 1.802 1.803 2.728 4.402 2.728 7.8v14.731a1.89 1.89 0 0 1-1.92 1.963 1.83 1.83 0 0 1-1.893-1.862v-2.563a11.654 11.654 0 0 1-9.65 4.601c-4.956 0-9.977-2.826-9.977-8.305m19.678-2.057v-2.595a28.098 28.098 0 0 0-7.853-1.133c-5.003 0-7.79 2.172-7.79 5.519v.116c0 3.34 3.11 5.314 6.717 5.314 4.89 0 8.926-2.997 8.926-7.221M205.706 142.453a3.73 3.73 0 1 0-6.78 3.117l8.336 18.095c1.306 2.836 2.68 4.323 5.276 4.323 2.755 0 3.98-1.616 5.29-4.323 0 0 7.262-15.82 7.325-15.985a1.062 1.062 0 0 1 1.05-.663 1.167 1.167 0 0 1 1.165 1.169v15.466c0 2.37 1.306 4.336 3.85 4.336s3.925-1.966 3.925-4.336v-12.67a3.874 3.874 0 0 1 4.126-4.01 3.789 3.789 0 0 1 3.974 4.01v12.67c0 2.37 1.325 4.336 3.862 4.336 2.553 0 3.915-1.966 3.915-4.336v-12.67a3.89 3.89 0 0 1 4.152-4.01 3.784 3.784 0 0 1 3.956 4.01v12.67c0 2.37 1.32 4.336 3.87 4.336 2.544 0 3.924-1.966 3.924-4.336v-14.409c0-5.289-4.241-9.006-9.38-9.006a11.972 11.972 0 0 0-8.315 3.553c-1.706-2.217-4.071-3.543-8.041-3.543-4.181 0-7.858 3.543-7.858 3.543a9.371 9.371 0 0 0-7.005-3.543c-3.703 0-6.666 1.622-8.459 5.733l-5.326 12.553-6.832-16.08M375.753 143.726v-.013a3.242 3.242 0 1 1 6.484-.024v.024a3.264 3.264 0 0 1-3.241 3.256 3.226 3.226 0 0 1-3.243-3.243m5.866-.013v-.012a2.617 2.617 0 0 0-2.623-2.662 2.643 2.643 0 0 0-2.632 2.674v.013a2.628 2.628 0 1 0 5.255-.013"/><path class="cls-2" d="M377.758 142.41a.343.343 0 0 1 .345-.349h1.08a1.23 1.23 0 0 1 .918.326 1.043 1.043 0 0 1-.353 1.677l.49.59a.455.455 0 0 1 .112.267.329.329 0 0 1-.336.313.383.383 0 0 1-.33-.18l-.669-.83h-.579v.67a.33.33 0 0 1-.333.34.342.342 0 0 1-.345-.34v-2.484m1.403 1.186c.324 0 .522-.175.522-.44v-.017c0-.294-.205-.457-.546-.457h-.7v.914zM159.707 163.843v2.893h-2.245v-21.272h2.245v9.23a6.786 6.786 0 0 1 5.768-3.342c3.608 0 7.196 2.852 7.196 7.808v.051c0 4.924-3.557 7.84-7.196 7.84a6.777 6.777 0 0 1-5.768-3.208m10.659-4.597v-.061c0-3.557-2.444-5.823-5.3-5.823a5.616 5.616 0 0 0-5.446 5.798v.051a5.604 5.604 0 0 0 5.446 5.83c2.912 0 5.3-2.156 5.3-5.795M187.346 151.672h2.39l-6.324 15.552c-1.277 3.121-2.735 4.252-5.01 4.252a6.809 6.809 0 0 1-3.204-.753l.761-1.78a4.66 4.66 0 0 0 2.36.553c1.34 0 2.179-.694 3.082-2.822l-6.84-15.002h2.471l5.483 12.55 4.831-12.55"/><path class="cls-3" d="M73.093 84.79h7.887l6.932 22.658 7.504-22.754h6.31l7.505 22.754 6.931-22.658h7.696l-11.423 33.7h-6.407l-7.553-21.894-7.552 21.894h-6.406l-11.424-33.7M134.422 84.55h6.788l14.34 33.7h-7.696l-3.059-7.505h-14.15l-3.059 7.506h-7.505l14.341-33.7m7.743 19.694l-4.444-10.851-4.447 10.851zM151.056 84.79h8.126l8.748 23.565 8.747-23.565h7.936l-13.528 33.7h-6.502l-13.527-33.7M188.29 84.79h25.238v6.548h-17.925v6.789h15.774v6.547h-15.774v7.027h18.164v6.55H188.29V84.79M219.623 84.79H245.1v6.692h-18.117v7.121h15.966v6.693h-15.966v12.955h-7.36V84.79M249.631 84.79h15.296c4.255 0 7.553 1.195 9.752 3.393a10.504 10.504 0 0 1 2.869 7.648v.096a10.39 10.39 0 0 1-7.17 10.373l8.172 11.95h-8.603l-7.171-10.706h-5.783v10.707h-7.362V84.79m14.819 16.252c3.585 0 5.64-1.913 5.64-4.733v-.095c0-3.156-2.198-4.78-5.784-4.78h-7.313v9.608zM281.098 101.615v-.096c0-9.512 7.505-17.303 17.83-17.303s17.735 7.697 17.735 17.21v.093c0 9.513-7.505 17.305-17.83 17.305s-17.735-7.696-17.735-17.209m27.868 0v-.096c0-5.736-4.206-10.515-10.134-10.515s-10.037 4.683-10.037 10.421v.094c0 5.738 4.206 10.517 10.132 10.517 5.928 0 10.039-4.684 10.039-10.421zM321.06 84.79h6.787l15.68 20.601V84.79h7.266v33.461h-6.263l-16.204-21.272v21.272h-7.266V84.79"/><g class="cls-4"><path class="cls-3" d="M364.85 91.577h-10.182V84.79h27.724v6.787h-10.18v26.674h-7.362V91.577"/><path class="cls-5" d="M15.765 127.622l-11.52 2.9a1.05 1.05 0 0 1-1.308-1.02V118.05a1.053 1.053 0 0 1 .795-1.02l11.52-2.9a1.05 1.05 0 0 1 1.308 1.02v11.454a1.052 1.052 0 0 1-.795 1.02M15.765 110.298L4.245 113.2a1.051 1.051 0 0 1-1.308-1.02V87.103a1.052 1.052 0 0 1 .795-1.019l11.52-2.9a1.05 1.05 0 0 1 1.308 1.02v25.076a1.051 1.051 0 0 1-.795 1.02"/></g><path class="cls-5" d="M33.088 127.021l-11.52 2.901a1.052 1.052 0 0 1-1.308-1.019v-15.148a1.052 1.052 0 0 1 .795-1.02l11.52-2.9a1.051 1.051 0 0 1 1.308 1.019v15.148a1.05 1.05 0 0 1-.795 1.02M33.088 105.998l-11.52 2.901a1.052 1.052 0 0 1-1.308-1.02V86.503a1.052 1.052 0 0 1 .795-1.02l11.52-2.9a1.051 1.051 0 0 1 1.308 1.019v21.376a1.052 1.052 0 0 1-.795 1.02"/><g class="cls-4"><path class="cls-5" d="M50.41 118.96l-11.518 2.901a1.052 1.052 0 0 1-1.308-1.02v-11.454a1.05 1.05 0 0 1 .795-1.019l11.52-2.901a1.052 1.052 0 0 1 1.308 1.02v11.454a1.052 1.052 0 0 1-.796 1.02M50.41 101.636l-11.518 2.901a1.05 1.05 0 0 1-1.308-1.02V78.442a1.051 1.051 0 0 1 .795-1.02l11.52-2.9a1.051 1.051 0 0 1 1.308 1.02v25.076a1.05 1.05 0 0 1-.796 1.02"/></g><path class="cls-6" d="M387.69 91.136v-5.302h-1.981v-.708h4.764v.708h-1.99v5.302h-.793M391.263 91.136v-6.01h1.198l1.423 4.254c.132.397.226.694.287.89.067-.218.175-.539.32-.962l1.438-4.182H397v6.01h-.767v-5.03l-1.746 5.03h-.718l-1.738-5.116v5.116h-.768"/></svg>
