<?xml version="1.0" encoding="utf-8"?>
<!-- Generator: Adobe Illustrator 21.1.0, SVG Export Plug-In . SVG Version: 6.00 Build 0)  -->
<svg version="1.1" id="Layer_1" xmlns="http://www.w3.org/2000/svg" xmlns:xlink="http://www.w3.org/1999/xlink" x="0px" y="0px"
	 viewBox="0 0 359 291" style="enable-background:new 0 0 359 291;" xml:space="preserve">
<style type="text/css">
	.st0{fill:#0B5565;}
	.st1{fill:#27AAE0;}
	.st2{fill:#375C92;}
	.st3{fill:#8DC53E;}
	.st4{fill:#34A474;}
	.st5{enable-background:new    ;}
	.st6{fill:#003399;}
	.st7{fill:#0088D1;}
	.st8{fill:#4299D0;}
	.st9{fill:none;}
	.st10{fill:#E95028;}
	.st11{fill:#FB6D26;}
	.st12{fill:#FBA226;}
	.st13{fill:#E14329;}
	.st14{fill:#BC5A34;}
	.st15{fill:#FFFFFF;}
	.st16{fill:#195C8B;}
	.st17{fill:#0E89C8;}
	.st18{fill:#54AEDE;}
	.st19{fill:#1F608E;}
	.st20{fill:#246391;}
	.st21{fill:none;stroke:#246391;stroke-width:0;stroke-linecap:round;stroke-linejoin:round;}
	.st22{fill:#83C6EB;}
	.st23{fill:none;stroke:#83C6EB;stroke-width:0;stroke-linecap:round;stroke-linejoin:round;}
	.st24{fill:#369BD1;}
	.st25{fill:none;stroke:#369BD1;stroke-width:0;stroke-linecap:round;stroke-linejoin:round;}
	.st26{fill:#0D538A;}
	.st27{fill:#0B528A;}
	.st28{fill:none;stroke:#0B528A;stroke-width:0;stroke-linecap:round;stroke-linejoin:round;}
	.st29{fill:#0B487D;}
	.st30{fill:none;stroke:#0B487D;stroke-width:0;stroke-linecap:round;stroke-linejoin:round;}
	.st31{fill:#010101;}
	.st32{fill:#818181;}
	.st33{fill:#FEFEFE;}
	.st34{fill:#2296F3;}
	.st35{clip-path:url(#SVGID_2_);fill:#32324B;}
	.st36{clip-path:url(#SVGID_2_);}
	.st37{clip-path:url(#SVGID_4_);fill:#32324B;}
	.st38{clip-path:url(#SVGID_4_);fill:#00D2FF;}
	.st39{clip-path:url(#SVGID_4_);fill:#FF4B19;}
</style>
<g>
	<g>
		<defs>
			<rect id="SVGID_1_" x="-28" y="-10" width="413" height="309.8"/>
		</defs>
		<clipPath id="SVGID_2_">
			<use xlink:href="#SVGID_1_"  style="overflow:visible;"/>
		</clipPath>
		<polygon class="st35" points="42,273.2 48.3,249.4 56.9,249.4 47.4,282.5 37.4,282.5 31.8,260.2 26.2,282.5 16.1,282.5 6.7,249.4 
			15.2,249.4 21.6,273.2 27.9,249.4 35.7,249.4 		"/>
		<g class="st36">
			<defs>
				<rect id="SVGID_3_" x="-28" y="-10" width="413" height="309.8"/>
			</defs>
			<clipPath id="SVGID_4_">
				<use xlink:href="#SVGID_3_"  style="overflow:visible;"/>
			</clipPath>
			<path class="st37" d="M88.3,271.7c-1,6.6-6,11.3-14.7,11.3c-9.2,0-16.1-5.6-16.1-16.8c0-11.3,7.1-17.2,16.1-17.2
				c10,0,15.2,7.3,15.2,17.1v1.8H65.9c0,3.7,1.5,8.3,7.5,8.3c3.3,0,5.9-1.6,6.6-4.7L88.3,271.7z M80.1,262c-0.3-4.6-3.3-6.3-6.6-6.3
				c-3.9,0-6.8,2.4-7.3,6.3H80.1z"/>
			<path class="st37" d="M113.2,261.1v-1.1c0-2.6-1.1-4.3-6-4.3c-6.1,0-6.3,3.4-6.3,4.5H93c0-4.9,2.1-11.2,14.4-11.2
				c11.8,0,13.9,5.9,13.9,10.6v18.2c0,1.3,0.1,2.4,0.2,3.3l0.2,1.4h-8.3v-3.3c-2.4,2.4-5.6,3.7-10.3,3.7c-6.5,0-11.5-3.8-11.5-10.4
				c0-7.6,7.2-9.2,10.1-9.7L113.2,261.1z M113.2,267.3l-3.2,0.5c-1.8,0.3-3.9,0.6-5.1,0.8c-1.4,0.2-2.6,0.5-3.5,1.3
				c-0.8,0.7-1.3,1.6-1.3,2.7c0,1,0.4,4,4.9,4c2.7,0,5-1,6.3-2.2c1.6-1.6,1.9-3.7,1.9-5.3V267.3z"/>
			<polygon class="st37" points="144.8,282.5 133.7,282.5 122.8,249.4 131.8,249.4 139.4,274.7 147.1,249.4 155.8,249.4 			"/>
			<path class="st37" d="M186.9,271.7c-1,6.6-6,11.3-14.7,11.3c-9.2,0-16.1-5.6-16.1-16.8c0-11.3,7.1-17.2,16.1-17.2
				c10,0,15.2,7.3,15.2,17.1v1.8h-22.8c0,3.7,1.5,8.3,7.5,8.3c3.3,0,5.9-1.6,6.6-4.7L186.9,271.7z M178.7,262
				c-0.3-4.6-3.3-6.3-6.6-6.3c-3.9,0-6.8,2.4-7.3,6.3H178.7z"/>
			<polygon class="st37" points="199.1,282.5 189.5,250.3 194.7,250.3 202.2,277.6 209.8,250.3 215.4,250.3 223,277.6 230.6,250.3 
				235.6,250.3 225.9,282.5 219.9,282.5 212.5,255.8 205.1,282.5 			"/>
			<path class="st37" d="M252.3,283c-8.8,0-14.8-5.6-14.8-16.6c0-10.9,6-16.6,14.8-16.6c8.7,0,14.7,5.6,14.7,16.6
				C267,277.5,261,283,252.3,283 M252.3,278.8c5.6,0,9.7-3.4,9.7-12.4c0-8.9-4.1-12.4-9.7-12.4c-5.6,0-9.7,3.4-9.7,12.4
				C242.5,275.4,246.6,278.8,252.3,278.8"/>
			<path class="st37" d="M287.2,255.3c-5.8,0-9.8,2-9.8,9.6v17.6h-5v-32.3h4.9v5.6c2.1-4.1,6.4-5.6,9.8-5.6h2.3v5.1H287.2z"/>
			<polygon class="st37" points="322.1,250.3 310.4,262.2 322.7,282.5 316.9,282.5 306.9,265.7 299.2,273.8 299.2,282.5 
				294.3,282.5 294.3,237.8 299.2,237.8 299.2,267.5 316,250.3 			"/>
			<path class="st37" d="M345.1,259.1c-0.3-3.9-3.4-5.1-7.4-5.1c-3.4,0-7.7,1.1-7.7,4.9c0,8.2,21.1,0.7,21.1,13.8
				c0,4.4-2.5,10.2-13.8,10.2c-8.6,0-12.8-4.4-12.9-10.3h5.4c0.1,3.6,2.4,6.1,8.1,6.1c6.6,0,8.2-2.8,8.2-5.7
				c0-6.1-11.2-3.5-17.3-6.9c-2.2-1.3-3.8-3.3-3.8-6.9c0-5.3,5-9.4,12.8-9.4c9.6,0,12.4,5.6,12.6,9.2H345.1z"/>
			<path class="st37" d="M139.3,112.9l97-86.6c-7.7-6.1-16.3-11-25.7-14.4l-71.3,63.7V112.9z"/>
			<path class="st37" d="M111.4,100.4l-26.3,23.5c2.4,9.7,6.3,18.9,11.4,27.2l14.9-13.3V100.4z"/>
			<path class="st38" d="M191.1,29.2V7c-4.4-0.6-9-1-13.6-1c-4.8,0-9.6,0.4-14.2,1.1v47.1L191.1,29.2z"/>
			<path class="st38" d="M191.1,160.1V66.6l-27.9,24.9v103.7c4.6,0.7,9.4,1.1,14.2,1.1c5.7,0,11.2-0.5,16.6-1.5l74.6-66.6
				c2.5-8.6,3.9-17.6,3.9-27c0-4.4-0.3-8.8-0.9-13L191.1,160.1z"/>
			<path class="st39" d="M191.1,132.6l74.7-66.8c-3.6-8.9-8.4-17.2-14.4-24.5l-60.4,53.9V132.6z"/>
			<path class="st39" d="M163.3,120.2l-24,21.4V14c-10.4,4.6-19.8,10.9-27.9,18.7v136.8c6.3,6.1,13.4,11.3,21.1,15.5l30.7-27.4
				V120.2z"/>
		</g>
	</g>
</g>
</svg>
