<?xml version="1.0" encoding="utf-8"?>
<!-- Generator: Adobe Illustrator 21.1.0, SVG Export Plug-In . SVG Version: 6.00 Build 0)  -->
<svg version="1.1" id="Layer_1" xmlns="http://www.w3.org/2000/svg" xmlns:xlink="http://www.w3.org/1999/xlink" x="0px" y="0px"
	 viewBox="0 0 288 288" style="enable-background:new 0 0 288 288;" xml:space="preserve">
<style type="text/css">
	.st0{fill:#030303;}
	.st1{fill:#3B68B2;}
	.st2{fill:#3B65AF;}
	.st3{fill:#3B6AB3;}
	.st4{fill:#3D69B2;}
	.st5{fill:#FFFFFF;}
	.st6{fill:#FDFDFD;}
	.st7{fill:#FBFCFD;}
	.st8{fill:#FAFAFC;}
	.st9{fill:#FCFCFD;}
	.st10{fill:#F5F4F8;}
	.st11{fill:#F7F6F9;}
	.st12{fill:#3D6AB3;}
	.st13{fill:#F7F6FA;}
	.st14{fill:#FAF9FB;}
	.st15{fill:#F0F1F7;}
	.st16{fill:#EBEDF4;}
	.st17{fill:#3B6BB3;}
	.st18{fill:#416BB3;}
	.st19{fill:#676867;}
	.st20{fill:#318BCB;}
	.st21{fill:#3491CF;}
	.st22{fill:#FDFEFF;}
</style>
<g>
	<path class="st20" d="M142.2,177.9c-40.3,0-80.6,0-121,0c-1.1,0-1.3-0.3-1.3-1.3c0-19.9,0-39.8,0-59.7c0-1,0.2-1.3,1.3-1.3
		c42.9,0,85.7,0,128.6,0c0.8,0.5,1,1.3,0.9,2.2c-0.1,3,0.3,6-0.2,8.9c-0.1,0.4,0.1,0.8,0.4,1c0.9,0.7,1,1.6,1,2.6
		c-0.1,2.3,0.2,4.6-0.2,6.9c-0.1,0.4,0.1,0.8,0.4,1c0.8,0.7,1,1.6,1,2.6c-0.1,1.9,0.2,3.8-0.2,5.7c-0.1,0.5,0.1,0.8,0.5,1.2
		c0.7,0.6,0.9,1.5,0.9,2.4c0.1,2.1-0.3,4.3,0.3,6.4c0.1,0.3,0,0.6-0.1,0.9c-2.2,4.3-4.3,8.7-6.9,12.7c-1.3,2-2.4,4.1-3.7,6.2
		C143.4,177,142.9,177.6,142.2,177.9z"/>
	<path class="st21" d="M142.2,177.9c3-5.2,5.9-10.3,8.9-15.5c1-1.7,1.5-3.7,2.7-5.4c0.3-0.5-0.2-1.9-0.2-2.9c0.1-1.3,0-2.5,0-3.8
		c0-1,0.1-2-1.3-2.3c-0.7-0.2-0.5-0.9-0.3-1.4c0.8-2.2,0.3-4.5,0.3-6.8c0-0.5-0.3-0.9-0.9-1.1c-1-0.2-0.9-0.8-0.7-1.6
		c0.8-2.6,0.3-5.3,0.3-8c0-0.6-0.4-1-1-1.1c-0.6-0.1-0.8-0.6-0.6-1.1c0.8-1.9,0.4-3.9,0.5-5.8c0-1.9,0.2-3.8-0.3-5.7
		c39.5,0,79.1,0,118.6,0c1.1,0,1.3,0.3,1.3,1.3c0,19.9,0,39.8,0,59.7c0,1-0.2,1.3-1.3,1.3C226.4,177.9,184.3,177.9,142.2,177.9z"/>
	<path class="st5" d="M64.8,159.9c0.7-3,1.3-5.6,1.9-8.3c1.8-8,3.5-15.9,5.3-23.9c0.2-0.8,0.5-1.2,1.4-1.1c1.9,0.1,3.7,0.1,5.6,0
		c1.2,0,1.2,0.4,1,1.4c-2.1,7.7-4.1,15.4-6.2,23.1c-1.4,5.1-2.7,10.2-4,15.3c-0.3,1.1-0.8,1.6-2,1.6c-2-0.1-4-0.1-6,0
		c-1.1,0-1.5-0.4-1.8-1.4c-1.4-6.5-2.7-13.1-4.3-19.6c-1.6-6.3-0.7-12.8-1-19.1c0-0.7,0.2-1.2,1-1.1c0.8,0.2,2.1-0.7,2.4,0.9
		c0.8,3.8,1.6,7.6,2.4,11.5c1.4,6.8,2.8,13.6,4.2,20.4C64.5,159.3,64.5,159.4,64.8,159.9z"/>
	<path class="st5" d="M42.4,160.1c1-4.3,1.8-8.3,2.7-12.2c1.4-6.6,2.9-13.2,4.3-19.7c0.3-1.4,1.7-2.1,3-1.5c0.6,0.2,0.5,0.7,0.5,1.1
		c0.2,7.8,0.1,15.5-2.1,23.1c-1.5,5.2-2.5,10.5-3.7,15.8c-0.2,0.9-0.6,1.2-1.5,1.2c-2.3,0-4.5,0-6.8,0c-0.8,0-1.2-0.3-1.4-1.1
		c-3.2-12.9-6.5-25.8-9.8-38.6c-0.3-1.2-0.1-1.6,1.2-1.5c1.7,0.1,3.4,0.1,5.1,0c1,0,1.4,0.2,1.6,1.3c2.1,10.6,4.3,21.1,6.5,31.7
		C42.1,159.6,42.2,159.6,42.4,160.1z"/>
	<path class="st5" d="M149,135.9c0,1.6,0,3.1-0.3,4.7c0.2,1.8-1.1,2.9-2.1,3.9c-1,0.9-1,1.5-0.2,2.3c0.5,0.3,0.9,0.6,1.4,0.9
		c1.2,0.4,1.9,1.1,2.1,2.3l0,0c1.3,0.7,1.9,1.7,1.4,3.2c0.1,2,0.1,4.1-0.3,6.1c-0.2,0.6,0.1,1.5-0.8,1.9c-0.8,1.6-2,2.7-3.3,3.9
		c-0.3,0.8-1.1,0.8-1.8,1.1c-3.8,1.8-7.8,1.2-11.8,1.3c-0.8,0-1-0.3-1-1.1c0-0.9,0-1.9,0-2.8c-0.1-1.1,0.3-1.5,1.4-1.5
		c1.8,0.1,3.5,0,5.3,0c2.4,0,4.1-1.2,5-3.4c0.8-2,0.8-4.1,0-6.2c-1-2.7-3.1-3.8-5.8-3.9c-1.6-0.1-3.1,0-4.7,0
		c-0.9,0-1.2-0.3-1.2-1.2c-0.2-3.6-0.2-3.6,3.3-3.6c1,0,2-0.1,3.1-0.3c0.7-0.1,1.3-0.3,1.9-0.8c1.9-1.8,2-4.1,1.6-6.5
		c-0.4-2.2-1.9-3.3-3.9-3.9c-1.5-0.4-3-0.5-4.5-0.4c-1.1,0.1-1.4-0.3-1.5-1.4c-0.1-4.1-0.1-4,4-4c2,0,4,0.4,5.9,1
		c2.1,0.6,3.9,1.5,5.3,3.5C148.4,132.6,148.9,134.1,149,135.9z"/>
	<path class="st5" d="M96.1,147c0,6.3,0,12.5,0,18.8c0,1.2-0.3,1.8-1.6,1.7c-1.5-0.1-2.9-0.1-4.4,0c-0.9,0-1.3-0.2-1.3-1.2
		c0-12.8,0-25.6,0-38.5c0-1,0.4-1.3,1.3-1.2c1.5,0.1,3,0.1,4.5,0c1.2-0.1,1.5,0.4,1.5,1.5C96,134.3,96.1,140.7,96.1,147z"/>
	<path class="st5" d="M130.5,147c0,6.3,0,12.6,0,18.9c0,1.2-0.3,1.6-1.5,1.5c-1.4-0.1-2.7-0.1-4.1,0c-1.2,0.1-1.5-0.4-1.5-1.5
		c0-6.7,0-13.3,0-20c0-6,0-11.9,0-17.9c0-1.2,0.3-1.7,1.6-1.6c1.3,0.1,2.6,0.1,3.8,0c1.4-0.1,1.7,0.5,1.7,1.8
		C130.4,134.5,130.5,140.8,130.5,147z"/>
	<path class="st5" d="M106.2,131.9c-2.4,0-4.8,0-7.2,0c-0.9,0-1.2-0.3-1.2-1.2c-0.1-4.3-0.2-4.3,4.1-4.3c3.8,0,7.6,0,11.4,0
		c0.9,0,1.3,0.3,1.3,1.2c0.1,4.2,0.1,4.2-4,4.2C109.2,131.9,107.7,131.9,106.2,131.9C106.2,131.9,106.2,131.9,106.2,131.9z"/>
	<path class="st5" d="M106.4,162.1c2.3,0,4.7,0,7,0c1,0,1.2,0.3,1.2,1.3c0.1,4.1,0.1,4.1-4,4.1c-3.8,0-7.6,0-11.5,0
		c-1.1,0-1.4-0.4-1.4-1.4c0-4,0-4,4-4C103.3,162.1,104.9,162.1,106.4,162.1z"/>
	<path class="st22" d="M105.3,149.2c-2.1,0-4.2,0-6.3,0c-0.9,0-1.2-0.3-1.2-1.2c-0.1-3.8-0.1-3.8,3.6-3.8c3.4,0,6.8,0,10.1,0
		c1,0,1.3,0.3,1.4,1.4c0,3.6,0.1,3.6-3.5,3.6C108.1,149.2,106.7,149.2,105.3,149.2z"/>
	<path class="st21" d="M149,135.9c-0.7-4.1-3.1-6.8-6.9-8.5c1.7-0.2,4.4,1.3,5.2,2.9c0.1,0.2,0.2,0.5,0.4,0.6
		C149.3,132.3,149.3,134.1,149,135.9z"/>
	<path class="st21" d="M146.3,146.8c-0.7-0.3-1.3-0.6-2.2-1c2.3-1.3,3.6-3.1,4.5-5.2c0.9,1.7-0.6,2.6-1.4,3.6
		C146.5,145,146.1,145.7,146.3,146.8z"/>
	<path class="st21" d="M151.3,153.3c-0.5-1.1-0.9-2.1-1.4-3.2c1,0,1.8,0.4,2.1,1.3C152.1,152.1,152,152.8,151.3,153.3z"/>
	<path class="st21" d="M149.8,150c-0.7-0.8-1.4-1.5-2.1-2.3C149.5,147.6,150.1,148.3,149.8,150z"/>
	<path class="st21" d="M145.1,166.2c0.6-0.4,1.2-0.7,1.8-1.1C146.9,166.5,145.9,166.1,145.1,166.2z"/>
	<path class="st21" d="M150.2,161.2c0.3-0.6,0.5-1.2,0.8-1.9C151,160.1,151.7,161.1,150.2,161.2z"/>
	<path class="st5" d="M208.4,138.1c-1.8,5.2-3.6,10.3-5.4,15.3c-1.5,4.3-3,8.6-4.5,12.9c-0.3,0.9-0.8,1.2-1.7,1.2
		c-1.5-0.1-2.9,0-4.4,0c-1.7,0-1.7-0.1-1.2-1.6c1.7-5,3.5-10,5.2-14.9c2.7-7.7,5.4-15.3,8-23c0.3-1,0.8-1.4,1.9-1.4
		c1.4,0.1,2.7,0.1,4.1,0c1.1-0.1,1.6,0.4,2,1.4c2.7,7.9,5.4,15.7,8.1,23.5c1.7,4.8,3.3,9.6,5,14.4c0.5,1.3,0.1,1.7-1.2,1.6
		c-1.2-0.1-2.5-0.1-3.7,0c-1.5,0.2-2.2-0.4-2.7-1.9c-2.9-8.7-6-17.4-9-26.1C209,139.1,209,138.6,208.4,138.1z"/>
	<path class="st5" d="M160.2,147c0-6.3,0-12.5,0-18.8c0-1.4,0.4-1.8,1.8-1.7c1.3,0.1,2.6,0.1,4,0c1.4-0.1,1.6,0.4,1.6,1.7
		c-0.1,7.2,0,14.5,0,21.7c0,3.6,0,7.1,0,10.7c0,1.1,0.3,1.5,1.5,1.5c5.2-0.1,10.5,0,15.7-0.1c1.1,0,1.5,0.3,1.5,1.5
		c0,3.9,0,3.9-3.9,3.9c-6.8,0-13.5,0-20.3,0c-1.4,0-1.8-0.5-1.8-1.8C160.2,159.4,160.2,153.2,160.2,147
		C160.2,147,160.2,147,160.2,147z"/>
	<path class="st5" d="M255.1,145.9c2.2,0.8,4,2,5.3,3.9c4.5,6.3,0.7,15.6-7.1,17.3c-3.1,0.7-6.2,0.3-9.4,0.4c-0.5,0-0.8-0.2-0.8-0.8
		c0-0.1,0-0.2,0-0.3c0.1-5.2-0.7-4.1,3.9-4.2c0.9,0,1.8,0,2.6,0c2.6,0,4.3-1.3,5.2-3.7c0.6-1.7,0.6-3.4,0.2-5.1
		c-0.8-3-2.9-4.6-6.2-4.7c-1.5,0-3-0.1-4.6,0c-1,0-1.3-0.4-1.3-1.3c0.1-4.3-0.5-3.4,3.3-3.5c1,0,2-0.1,3.1-0.3
		c0.7-0.1,1.3-0.3,1.9-0.8c1.9-1.8,2-4,1.7-6.4c-0.3-2.2-1.7-3.4-3.8-4c-1.5-0.5-3.1-0.5-4.7-0.4c-1,0.1-1.5-0.3-1.5-1.4
		c-0.1-4.1-0.1-4,4-4c2.5,0,4.8,0.6,7.1,1.6c6.9,3.1,7.7,13.8,1.5,17.3C255.5,145.5,255.4,145.6,255.1,145.9z"/>
	<path class="st5" d="M234.4,147c0-6.2,0-12.3,0-18.5c0-1.9,0-1.9,2-1.9c1.3,0,2.6,0,4,0c0.8,0,1.1,0.3,1,1c0,1.4,0,2.7,0,4.1
		c0,11.4,0,22.7,0,34.1c0,1.3-0.3,1.9-1.7,1.7c-1.3-0.1-2.6-0.1-4,0c-1.1,0.1-1.4-0.3-1.4-1.4C234.4,159.7,234.4,153.3,234.4,147z"
		/>
	<path class="st22" d="M208.5,159.1c-1.4,0-2.8,0-4.2,0c-1,0-1.3-0.3-1-1.3c1.2-3.7,1.2-3.7,5-3.7c0.1,0,0.3,0,0.4,0c4,0,4,0,5,4
		c0.2,0.9-0.1,1.1-0.8,1.1C211.4,159.1,210,159.1,208.5,159.1z"/>
</g>
</svg>
