<svg xmlns="http://www.w3.org/2000/svg" role="img" viewBox="-2.68 -2.68 139.49 61.62"><title>werf logo</title><path fill="#06F" fill-rule="evenodd" d="M40.388 30.6l2.125 6.35 3.708-6.35h-5.833zm-.387-13.731v11.743h6.292l-6.292-11.743zm-1.989 6.63v-9.485h-3.174l3.174 9.485zM31.09 2.817l3.082 9.208h3.234l-5.249-9.796-.794.437-.273.15zM26.757 53.96h4.718l-1.78-3.28-.59.64c-.7.853-1.48 1.735-2.348 2.64zm-2.31-2.991l.08-19.13c-.508.295-1.238.753-2.097 1.352.081 2.362.46 10.406 2.017 17.778zm-5.383-15.152c.072 1.513.522 6.945 3.32 12.858-1.009-5.791-1.376-11.527-1.504-14.346a39.9 39.9 0 0 0-1.816 1.488zM17.342 53.96h4.91l-.375-.44a44.73 44.73 0 0 1-2.628-3.071l-1.907 3.51zm-1.57-14.858c.177 1.067 1.558 5.09 4.99 9.88-2.26-4.902-2.977-9.388-3.202-11.78a30.034 30.034 0 0 0-1.789 1.9zm2.481-9.864v4.55a30.179 30.179 0 0 1 2.497-1.938c2.201-1.63 3.097-1.965 3.662-2.001h-.003v-.611h-6.156zM2.596 30.6l3.964 6.787L9.288 30.6H2.596zm7.17-10.777l-6.864 8.788h6.863v-8.788zm1.99-2.547v7.187l4.827-12.011-.645-.531-4.183 5.355zm32.07 21.372h3.997l.995.995v15.31l-.995.996H.994L0 54.955V39.644l.994-.995h3.998l-4.988-8.54.074-1.114 14.92-19.101 1.355-.15.025-.034 6.703 5.028-1.194 1.592-3.624-2.72L7.83 39.564l7.808 13.365 2.311-4.254c-3.915-5.687-4.2-9.603-4.214-9.824l.233-.7a40.406 40.406 0 0 1 2.295-2.507v-7.4l.996-.995h14.3l.995.995v7.169c.814.802 1.662 1.71 2.528 2.739l.232.699c-.012.224-.305 4.224-4.343 10.012l2.21 4.066 7.998-13.694L29.32 3.793l-3.253 1.795-.96-1.742L32.076 0l1.358.402 15.397 28.735-.018.972-4.989 8.54zm45.4-.004l-5.77 17.306h-4.04l-4.353-13.082L70.92 55.95h-4.04l-5.77-17.305h4.007l3.902 13.844 4.318-13.844h3.661l4.283 13.844 3.938-13.844h4.006zm17.354 8.133c0 .67-.046 1.304-.138 1.904H93.8c.208 1.523.749 2.682 1.624 3.478.875.796 2.003 1.194 3.385 1.194 1.128 0 2.066-.202 2.814-.605.749-.405 1.26-.987 1.538-1.748l3.073 1.28c-1.29 2.677-3.764 4.015-7.425 4.015-2.718 0-4.842-.796-6.373-2.388-1.531-1.592-2.297-3.796-2.297-6.61 0-2.838.737-5.047 2.21-6.628 1.474-1.58 3.546-2.371 6.218-2.371 2.533 0 4.5.773 5.906 2.319 1.405 1.546 2.107 3.599 2.107 6.16zm-8.013-5.537c-1.336 0-2.412.392-3.23 1.177-.817.784-1.33 1.926-1.537 3.426h9.326c-.184-1.454-.673-2.584-1.468-3.391-.794-.808-1.825-1.212-3.091-1.212zm19.633-2.942c.806 0 1.44.115 1.9.346l-.588 3.391c-.529-.299-1.254-.449-2.176-.449-.737 0-1.433.195-2.089.588-.656.393-1.197.98-1.624 1.765-.425.785-.639 1.73-.639 2.838v9.171h-3.695V38.645h3.143l.31 3.115c.968-2.308 2.787-3.46 5.458-3.46zm10.293.346h5.596v2.907h-5.492V55.95H124.9V41.552h-3.247v-2.907h3.247v-2.491c0-1.754.529-3.115 1.589-4.084 1.059-.97 2.545-1.454 4.456-1.454.69 0 1.323.075 1.899.225.576.15 1.025.352 1.347.606l-.691 2.699c-.53-.346-1.186-.52-1.968-.52-2.027 0-3.04.935-3.04 2.804v2.215z"/></svg>