<svg id="图层_1" data-name="图层 1" xmlns="http://www.w3.org/2000/svg" xmlns:xlink="http://www.w3.org/1999/xlink" viewBox="0 0 106.64 29.82">
  <defs>
    <style>
      .cls-1 {
        fill: #fff;
      }

      .cls-1, .cls-3 {
        fill-rule: evenodd;
      }

      .cls-2 {
        mask: url(#mask);
      }

      .cls-3 {
        fill: #d71e26;
      }

      .cls-4 {
        mask: url(#mask-2-2);
      }

      .cls-5 {
        mask: url(#mask-3);
      }

      .cls-6 {
        mask: url(#mask-4-2);
      }
    </style>
    <mask id="mask" x="0" y="1.85" width="25.33" height="19.57" maskUnits="userSpaceOnUse">
      <g transform="translate(0 -0.18)">
        <g id="mask-2">
          <polygon id="path-1" class="cls-1" points="0 2.03 25.33 2.03 25.33 21.61 0 21.61 0 2.03"/>
        </g>
      </g>
    </mask>
    <mask id="mask-2-2" x="9.45" y="0.01" width="49.92" height="29.81" maskUnits="userSpaceOnUse">
      <g transform="translate(0 -0.18)">
        <g id="mask-4">
          <polygon id="path-3" class="cls-1" points="9.45 0.2 59.37 0.2 59.37 30.01 9.45 30.01 9.45 0.2"/>
        </g>
      </g>
    </mask>
    <mask id="mask-3" x="98.86" y="9.1" width="7.78" height="9.57" maskUnits="userSpaceOnUse">
      <g transform="translate(0 -0.18)">
        <g id="mask-6">
          <polygon id="path-5" class="cls-1" points="98.86 9.29 106.64 9.29 106.64 18.85 98.86 18.85 98.86 9.29"/>
        </g>
      </g>
    </mask>
    <mask id="mask-4-2" x="63.63" y="0" width="43" height="29.76" maskUnits="userSpaceOnUse">
      <g transform="translate(0 -0.18)">
        <g id="mask-8">
          <polygon id="path-7" class="cls-1" points="63.63 29.95 106.64 29.95 106.64 0.18 63.63 0.18 63.63 29.95"/>
        </g>
      </g>
    </mask>
  </defs>
  <g id="页面-1">
    <g id="logo-2">
      <g id="logo">
        <g id="编组">
          <g class="cls-2">
            <path id="Fill-1" class="cls-3" d="M14.83,12.35A9.21,9.21,0,0,1,16,9.66a9,9,0,0,1,7.64-4.3,9.36,9.36,0,0,1,1.3.1c.14-.22.28-.44.43-.65A8.8,8.8,0,0,0,18.93,2,8.89,8.89,0,0,0,11,7l0,0A4.78,4.78,0,0,0,5.39,9.07a5,5,0,0,0-.73,2.23v0a5.16,5.16,0,0,0,.39,10.29H7.67a9.58,9.58,0,0,1,7.16-9.26" transform="translate(0 -0.18)"/>
          </g>
          <path id="Fill-3" class="cls-3" d="M43.46,17.07A1.56,1.56,0,1,0,45,18.63a1.56,1.56,0,0,0-1.55-1.56" transform="translate(0 -0.18)"/>
          <g class="cls-4">
            <path id="Fill-5" class="cls-3" d="M43.14,23.11a4.22,4.22,0,0,1-3.83-2.48L37.05,22.9h0l-2,2-4-4.06L27.88,24l-.83.84-6-6,2-2,4,4.07,2.06-2.08,2-2,4,4.07,5-5.11a4.21,4.21,0,0,1,3-1.25,4.28,4.28,0,0,1,0,8.55M52.2,15v-.05c0-.31,0-.61,0-.92A13.66,13.66,0,0,0,26.36,7.74l0,0a7.4,7.4,0,0,0-8.6,3.12,7.52,7.52,0,0,0-1.12,3.4v0A7.86,7.86,0,0,0,17.22,30H51.93a7.51,7.51,0,0,0,.27-15" transform="translate(0 -0.18)"/>
          </g>
        </g>
        <g id="编组-2" data-name="编组">
          <polygon id="Fill-1-2" data-name="Fill-1" class="cls-3" points="64.84 0 64.84 3.74 67.77 3.75 67.77 0 64.84 0"/>
          <g>
            <g class="cls-5">
              <path id="Fill-2" class="cls-3" d="M98.86,9.29a87.53,87.53,0,0,1,5,9.56l2.8-1.72s-3.27-5.38-7.78-7.84" transform="translate(0 -0.18)"/>
            </g>
            <polygon id="Fill-4" class="cls-3" points="67.77 5.25 64.84 5.24 64.84 8.98 67.77 8.98 67.77 5.25"/>
            <path id="Fill-6" class="cls-3" d="M67.77,10.66H64.84v7.82a4.12,4.12,0,0,0,2.93-4Z" transform="translate(0 -0.18)"/>
            <path id="Fill-8" class="cls-3" d="M78,8.71l0-.14h6.71V6H78.05V2.73l3.19,0A4.76,4.76,0,0,0,85.46.18H70.19V2.74h4.93V6H69.81V8.56h5.32c0,2-2.9,7.19-8,10.16a14.11,14.11,0,0,0,8.3-4,10.18,10.18,0,0,0,2.13-4,10.15,10.15,0,0,0,1.52,3.88,16.62,16.62,0,0,0,4.15,4.25l2.39-2.11c-1.91-.68-6.06-4.49-7.6-8" transform="translate(0 -0.18)"/>
            <path id="Fill-10" class="cls-3" d="M87.81.18h17.84s-1,2.57-5.21,2.57H87.81Zm-1,8.35H106.6V6.06H86.86Z" transform="translate(0 -0.18)"/>
            <path id="Fill-12" class="cls-3" d="M96.3,8.13c-.87,1.19-4.59,7.2-4.59,7.2l10.87-.58.6,2.41L87.64,18V15.72c1.8-1.38,4.06-5.64,5.48-7.69Z" transform="translate(0 -0.18)"/>
            <polygon id="Fill-14" class="cls-3" points="72.37 22.27 70.68 27.59 68.98 22.27 68.98 22.28 68.98 22.27 68.24 22.27 66.55 27.57 64.86 22.27 63.63 22.27 65.94 29.5 65.92 29.54 66.67 29.54 68.37 24.2 70.06 29.52 70.06 29.54 70.8 29.54 73.12 22.27 72.37 22.27"/>
            <path id="Fill-16" class="cls-3" d="M76.3,28.68a1.06,1.06,0,0,1-1,.58,1.09,1.09,0,0,1-.61-.17,1.35,1.35,0,0,1-.4-.48,2.31,2.31,0,0,1-.24-.7,4.32,4.32,0,0,1-.07-.84,4.56,4.56,0,0,1,.06-.72,2.13,2.13,0,0,1,.21-.66,1.39,1.39,0,0,1,.42-.5,1.11,1.11,0,0,1,.63-.18,1,1,0,0,1,.61.18,1.35,1.35,0,0,1,.4.48,2,2,0,0,1,.21.67,4.08,4.08,0,0,1,.08.75,3.07,3.07,0,0,1-.35,1.59m-1-4.23a2.39,2.39,0,0,0-2.39,2.39v.72a2.39,2.39,0,1,0,4.77,0v-.72a2.39,2.39,0,0,0-2.38-2.39" transform="translate(0 -0.18)"/>
            <path id="Fill-18" class="cls-3" d="M93.6,28.68a1.07,1.07,0,0,1-.95.58,1.09,1.09,0,0,1-.61-.17,1.49,1.49,0,0,1-.41-.48,2.3,2.3,0,0,1-.23-.7,4.32,4.32,0,0,1-.07-.84,3.62,3.62,0,0,1,.06-.72,2.13,2.13,0,0,1,.21-.66,1.39,1.39,0,0,1,.42-.5,1.11,1.11,0,0,1,.63-.18,1,1,0,0,1,.61.18,1.47,1.47,0,0,1,.4.48,2.52,2.52,0,0,1,.21.67,4,4,0,0,1,.07.75,3.08,3.08,0,0,1-.34,1.59m-1-4.23a2.38,2.38,0,0,0-2.38,2.39v.72a2.39,2.39,0,1,0,4.77,0v-.72a2.39,2.39,0,0,0-2.39-2.39" transform="translate(0 -0.18)"/>
            <path id="Fill-20" class="cls-3" d="M85.77,27.05a3.29,3.29,0,0,1-.46,1.19,1.74,1.74,0,0,1-1.54.87,1.83,1.83,0,0,1-1-.26,2.21,2.21,0,0,1-.67-.72,3.5,3.5,0,0,1-.39-1,6.4,6.4,0,0,1-.12-1.28,5.87,5.87,0,0,1,.1-1.08,3.48,3.48,0,0,1,.35-1,2.07,2.07,0,0,1,.7-.74,1.86,1.86,0,0,1,1-.27,1.74,1.74,0,0,1,1,.27,2,2,0,0,1,.66.71,3.62,3.62,0,0,1,.35,1,3.32,3.32,0,0,1,.06.44h1.32a3.43,3.43,0,0,0-6.84.33v1a3.43,3.43,0,0,0,6.81.53Z" transform="translate(0 -0.18)"/>
            <path id="Fill-22" class="cls-3" d="M99.73,24.46v2.63a3.07,3.07,0,0,1-.35,1.59,1.05,1.05,0,0,1-.94.58,1.09,1.09,0,0,1-.61-.17,1.38,1.38,0,0,1-.41-.48,2.14,2.14,0,0,1-.23-.7,3.63,3.63,0,0,1-.08-.84V24.46H96v3.1a2.39,2.39,0,0,0,4.78,0v-3.1Z" transform="translate(0 -0.18)"/>
            <g class="cls-6">
              <polygon id="Fill-24" class="cls-3" points="88.26 29.69 89.31 29.69 89.31 22.12 88.26 22.12 88.26 29.69"/>
            </g>
            <g class="cls-6">
              <path id="Fill-26" class="cls-3" d="M105.09,28.68a1,1,0,0,1-.94.58,1.09,1.09,0,0,1-.61-.17,1.38,1.38,0,0,1-.41-.48,2.62,2.62,0,0,1-.23-.7,4.28,4.28,0,0,1-.08-.84,4.56,4.56,0,0,1,.06-.72,2.44,2.44,0,0,1,.22-.66,1.39,1.39,0,0,1,.42-.5,1.09,1.09,0,0,1,.63-.18,1,1,0,0,1,.61.18,1.33,1.33,0,0,1,.39.48,2.2,2.2,0,0,1,.22.67,4.08,4.08,0,0,1,.08.75,3,3,0,0,1-.36,1.59m1.41-2.16V22.31h-1.08v2.52a2.36,2.36,0,0,0-1.29-.38,2.4,2.4,0,0,0-2.39,2.39v.72a2.39,2.39,0,1,0,4.78,0v-.72c0-.11,0-.22,0-.32" transform="translate(0 -0.18)"/>
            </g>
          </g>
        </g>
      </g>
    </g>
  </g>
</svg>
