<svg id="Layer_1" data-name="Layer 1" xmlns="http://www.w3.org/2000/svg" viewBox="0 0 432 176.71783"><defs><style>.cls-1{fill:#1ca0dc;}.cls-2{fill:#706f6f;}</style></defs><title>xgboost</title><path class="cls-1" d="M96.657,168.667c-.97645-.24321-2.28228-.44778-3.22711-.73559-9.83053-2.99451-14.48016-10.65112-15.25442-20.492-1.178-14.97313,1.12954-29.50693,8.5-42.8057,10.01191-18.06486,27.011-24.81108,49.52282-20.05148,1.01768.21517,2.02414.48313,3.03659.72336,9.39611,2.22944,10.17492,4.22287,5.714,12.93053-1.2997,2.537-3.08828,1.7397-4.83091,1.57616-5.69548-.53448-11.36753-1.33837-17.06818-1.79317-7.39833-.59022-13.31895,2.4995-17.45139,8.43623-8.1851,11.75883-10.59964,25.18095-9.718,39.155.42739,6.77427,12.58267,11.46876,18.56025,7.69855a3.60312,3.60312,0,0,0,1.41009-2.62934c1.18274-4.874,2.29365-9.76546,3.493-14.92312a29.58049,29.58049,0,0,0-3.88794-.25283c-2.83294.20582-3.83059-.9438-2.99455-3.66684.10181-.33157.17673-.67132.26844-1.0061,3.24744-11.85459-.01557-9.55766,12.19565-9.62115,4.73663-.02462,11.146-2.34467,13.80075,1.127,2.35737,3.08274-1.22088,8.78424-2.2052,13.31812-1.76581,8.13351-3.919,16.18626-5.543,24.34587-.84641,4.25275-2.10431,5.08544-6.7636,7.41447a12.09441,12.09441,0,0,1-3.57723,1.252C114.14481,169.70952,104.41331,170.5989,96.657,168.667Z"/><path class="cls-1" d="M225.94049,168.667c-12.939-3.40445-14.75581-16.77458-12.81751-29.39429,1.31957-8.59152,4.10136-16.46552,9.53792-23.28017,8.16962-10.24049,20.30837-13.61985,32.71541-9.29493,6.62932,2.31087,10.90179,6.86372,12.229,13.67111,2.78225,14.27033-.68874,27.14457-9.50553,38.61806a25.39653,25.39653,0,0,1-14.435,9.68022A38.25146,38.25146,0,0,1,225.94049,168.667ZM251.93476,131.109c.17056-5.3203-.06733-9.20692-4.0306-10.88024a9.195,9.195,0,0,0-10.57,1.99185,21.09508,21.09508,0,0,0-4.4732,6.32793,40.876,40.876,0,0,0-3.60045,15.05727c-.21277,4.05145-.246,8.22615,4.20589,10.29844,3.99358,1.8589,8.91247.08575,12.2684-4.32978C250.21508,143.67961,251.43993,136.71369,251.93476,131.109Z"/><path class="cls-1" d="M285.3692,168.667c-12.93918-3.40436-14.755-16.77493-12.81765-29.39422,1.319-8.59174,4.10168-16.46543,9.538-23.28006,8.16944-10.24072,20.30819-13.62,32.71536-9.29518,6.62936,2.31083,10.90193,6.86372,12.22912,13.67107,2.78225,14.27032-.68867,27.14462-9.50551,38.61814a25.39662,25.39662,0,0,1-14.43495,9.68025A38.25217,38.25217,0,0,1,285.3692,168.667Zm26.02867-37.97381c.10382-5.137-.18021-9.17276-4.57188-10.684-4.53886-1.56189-8.52029-.08118-11.5276,3.74562-4.58769,5.8379-6.08692,12.72927-6.59795,19.89354-.28846,4.04436-.2443,8.22261,4.23458,10.26573,4.02608,1.83656,8.89222.0683,12.25356-4.373C309.65536,143.63909,310.88182,136.67445,311.39787,130.69315Z"/><path class="cls-1" d="M334.37183,168.667c-8.19884-1.85671-8.20708-5.79523-4.68445-13.90131,1.01671-2.33962,2.52742-1.88793,4.19181-1.7265,4.65541.4515,9.29834,1.07807,13.96275,1.37165a29.492,29.492,0,0,0,7.23415-.4838,4.76718,4.76718,0,0,0,4.10877-4.16616c.32264-2.69781-1.80569-3.46394-3.82508-4.133-3.12156-1.03429-6.31786-1.866-9.38386-3.04083-10.54544-4.04079-13.60276-10.55437-10.181-21.38608,2.83924-8.98754,11.30649-15.32551,21.62676-16.05812a66.44619,66.44619,0,0,1,21.09237,2.3653c2.889.73082,4.22494,1.95573,3.00956,5.05349a16.45278,16.45278,0,0,0-1.07608,4.5376c-.30357,3.53461-2.3025,4.1836-5.36921,3.6567a93.96529,93.96529,0,0,0-16.576-1.25567c-3.43866.02309-6.42677,1.05814-7.042,4.76438-.6213,3.74268,2.71878,4.29915,5.26972,5.25424,4.04873,1.51587,8.19269,2.80411,12.15673,4.51274,5.17944,2.23255,7.43307,6.3895,7.32613,12.03234-.20608,10.87388-6.24693,18.63354-16.96479,21.48507a34.13323,34.13323,0,0,1-5.06669,1.118C347.61635,169.37572,340.812,170.12539,334.37183,168.667Z"/><path class="cls-1" d="M394.84316,168.667c-9.39441-2.80557-10.05268-9.85329-7.9016-20.34663,1.63325-7.96709,3.5911-15.86827,5.452-23.78761.54482-2.31833.67877-4.20062-2.58072-4.12781-.64676.01445-1.76964-.2399-1.88247-.61073-1.19123-3.91667,1.35229-7.27559,1.80894-10.97181.21038-1.70273,1.05251-3.0903,3.05128-2.70948,3.58276.68261,4.27591-1.589,4.9367-4.29795,3.10269-12.71959,3.13244-12.66964,16.29252-11.4581,1.918.17659,3.02474.48527,2.36639,2.69291-.24681.8278-.39088,1.68774-.55668,2.53792-.62627,3.21123-2.69727,7.219-1.48838,9.43293,1.463,2.67913,5.9838.77727,9.16155.99753,2.12906.14758,2.77831.79232,2.12649,2.82916-.36791,1.14968-.49439,2.3743-.78237,3.55226-1.94812,7.9693-1.95614,8.1539-10.39647,7.99667-3.41177-.06354-4.92061.97284-5.58459,4.3256-1.51271,7.63817-3.43652,15.19394-5.04374,22.81473-1.276,6.0506-.26167,6.997,5.86248,6.9573,1.66774-.01082,4.92793-2.03649,4.93719,1.40555.01015,3.78883,1.42894,8.60953-3.403,10.89581a23.31227,23.31227,0,0,1-6.99205,1.87175C401.12342,169.05857,397.84019,169.562,394.84316,168.667Z"/><path class="cls-2" d="M53.91,4.97733C49.4534,24.17416,44.907,43.351,40.6302,62.58783c-.698,3.13938-1.66333,4.47512-5.0362,4.14072-4.03955-.40049-.82109-3.336-2.11322-4.83579a77.1681,77.1681,0,0,1-7.10663,4.56472c-7.46857,3.76891-15.11017.17-15.965-7.95644C9.28541,47.8178,11.72833,37.82833,18.58259,29.26468c4.86169-6.07415,11.38347-7.82174,18.66286-5.97223,4.52853,1.1506,6.30116-.144,6.752-4.64053C44.46,14.03814,46.7628,9.73764,46.61172,4.97733ZM16.77384,54.1351c-.01128,5.87588,2.93912,9.135,7.28179,7.60686,5.92154-2.0838,10.7193-6.03153,12.76144-12.091,1.81751-5.393,2.656-11.11484,3.94882-16.68638.31962-1.37744.74041-2.63314-.98436-3.53588-5.62538-2.94431-13.33279-.90691-17.0712,4.69375C18.63174,40.23273,17.399,47.20682,16.77384,54.1351Z"/><path class="cls-2" d="M136.2761,4.97733c.10535,7.3734-2.56826,14.22474-4.07558,21.28719-2.63252,12.33452-5.68063,24.58191-8.19859,36.93836-.76078,3.73338-2.84271,3.89529-5.57422,3.38382-3.54676-.66412-1.19524-3.05491-.89458-4.42158,3.82535-17.38865,7.82052-34.73987,11.73608-52.10882.37532-1.66483.50664-3.38467.75124-5.079Z"/><path class="cls-1" d="M198.90232,124.73935c8.86976,6.58409,8.54113,15.07482,5.81115,23.81217-3.20606,10.261-10.86376,16.03581-21.03448,18.07324-12.86966,2.57806-25.97736.84042-38.97695,1.14408-3.81732.08915-2.28658-2.76022-1.91271-4.43723,2.60245-11.67368,5.36519-23.31158,8.06973-34.96254,3.09652-13.33947,6.303-26.6553,9.19229-40.03956.68052-3.15239,1.78972-4.28624,5.0918-4.19635,8.85192.241,17.71535.015,26.57244.12142,10.646.12793,17.18038,3.96777,19.73929,11.37918a23.228,23.228,0,0,1-7.7588,25.70991C202.3289,122.40754,200.8689,123.3521,198.90232,124.73935Zm-27.14217,28.19894a50.55388,50.55388,0,0,0,6.75567-.048c6.32028-.85956,10.49482-6.70984,9.99841-13.70316-.35246-4.965-2.28188-6.09162-10.49469-6.128-11.04716-.04893-11.04716-.04893-13.48974,10.54605C162.35054,153.05789,162.35053,153.05789,171.76015,152.93829Zm11.80393-53.94572c-8.05173-.00229-8.22832-.03657-9.74826,7.79311-.74571,3.84132-4.44454,8.96126-1.43405,11.21349,2.78625,2.08445,8.33265.4926,12.66343.48158a5.527,5.527,0,0,0,1.50373-.38046,12.02353,12.02353,0,0,0,8.2976-13.84807c-1.11754-6.14983-5.997-5.12109-10.24192-5.25807C184.25811,98.983,183.91094,98.99268,183.56408,98.99257Z"/><path class="cls-1" d="M47.46226,113.194C53.778,103.97146,59.37752,96.0418,64.67883,87.91756c1.81945-2.7883,3.76535-4.0828,7.17478-3.8136,4.09673.32346,8.2385.07646,13.45483.07646-4.1731,5.76605-7.76006,10.78282-11.411,15.75263-5.5509,7.55613-11.07868,15.13112-16.76316,22.5861a7.209,7.209,0,0,0-1.36367,7.14844c3.257,11.15377,6.1635,22.40939,9.31527,33.59475.8913,3.16314.673,4.59629-3.3156,4.63895-13.3794.1431-13.36456.3-16.349-12.87627-1.142-5.042-2.35934-10.06689-3.64341-15.52951-2.12334.76886-2.7627,2.42664-3.68,3.738-4.87662,6.971-9.81792,13.90013-14.5289,20.982-1.699,2.554-3.51741,3.88594-6.73875,3.65971-4.14-.29073-8.31593-.07071-12.49517-.07071-.55278-2.60266,1.379-3.70973,2.41567-5.11871q12.50235-16.99207,25.224-33.82178a7.17287,7.17287,0,0,0,1.44064-7.10625c-3.14279-11.002-5.81939-22.13662-8.91081-33.15417-.89665-3.1956-.9663-4.5068,3.089-4.52165,13.69083-.05014,13.7008-.21276,16.54838,13.08375C45.18481,102.03523,46.16448,106.91829,47.46226,113.194Z"/><path class="cls-2" d="M112.41332,36.24242c-1.1076,8.66659-3.9028,18.344-6.01125,28.16365-.6771,3.15339-2.99908,2.342-4.92256,2.19389-3.04487-.23447-1.70442-2.49708-1.40679-3.91651,1.74358-8.31555,3.65995-16.59469,5.45237-24.90029.69541-3.22239.53387-6.44014-2.55311-8.36215-2.944-1.833-5.67975-.24945-8.21457,1.40131-3.74065,2.436-6.3592,5.345-7.07767,10.21451-1.08627,7.36234-3.1944,14.56805-4.60641,21.89083-.63838,3.31071-2.35325,4.38091-5.403,3.70494-3.82947-.8488-1.26727-3.3375-.96124-4.89974,1.53338-7.8278,3.389-15.59184,5.00037-23.40531.64062-3.1064,1.03464-6.47654-2.13144-8.50313-3.2989-2.11162-6.28106-.505-9.08087,1.54375-4.33962,3.17554-7.44718,6.93654-8.331,12.58727-.96188,6.1496-2.79991,12.15734-4.07133,18.26535-.64218,3.08506-1.69643,5.39958-5.39194,4.40576C48.98538,65.62682,51.285,63.082,51.674,61.2912Q55.31946,44.511,59.25427,27.79438c.38641-1.65175.024-4.11769,2.9488-4.058,2.09407.04271,4.58793-.81944,3.62243,3.20878-.30508,1.27287,1.805.78287,2.84866.15493a51.31174,51.31174,0,0,1,5.773-3.47177c4.99961-2.16488,9.35516-1.115,12.28272,3.408,1.53008,2.36392,2.44585,2.22388,4.28071.68041a25.81038,25.81038,0,0,1,4.76489-3.14057C105.13757,19.74932,112.65648,24.42866,112.41332,36.24242Z"/><path class="cls-2" d="M160.16588,28.86433c-8.14329-.46541-12.14525,1.959-15.48753,9.42213a36.92906,36.92906,0,0,0-2.96243,14.68678c-.102,6.67252,3.18133,9.59186,9.75249,9.05158,1.38078-.11352,2.74418-.53678,4.12139-.569,1.50823-.0353,3.6707-1.45613,4.15651,1.39025.45508,2.66629-1.0977,3.51739-3.507,4.05407a33.30878,33.30878,0,0,1-10.85635.7042c-5.73987-.61413-9.55625-4.33664-10.12926-10.137a40.6166,40.6166,0,0,1,4.37956-23.70838c5.14545-9.56043,15.5461-13.45739,25.83369-10.05,1.64812.54588,2.37915,1.25451,2.02346,2.924-.30361,1.425-.77351,2.70534-2.64786,2.54334C163.28624,29.04174,161.72523,28.96189,160.16588,28.86433Z"/></svg>