<svg id="图层_1" data-name="图层 1" xmlns="http://www.w3.org/2000/svg" xmlns:xlink="http://www.w3.org/1999/xlink" viewBox="0 0 3344 1375"><defs><style>.cls-1{fill:#0c1e9f;}.cls-1,.cls-2,.cls-3,.cls-5{fill-rule:evenodd;}.cls-2{fill:url(#未命名的渐变_13);}.cls-3{fill:url(#未命名的渐变_18);}.cls-4{opacity:0.3;}.cls-5{fill:#fff;}.cls-6{fill:#0c1e9b;}</style><linearGradient id="未命名的渐变_13" x1="437.23672" y1="1088.18382" x2="437.23672" y2="629.99946" gradientUnits="userSpaceOnUse"><stop offset="0.43" stop-color="#1c79ff"/><stop offset="1" stop-color="#42b1ff"/></linearGradient><linearGradient id="未命名的渐变_18" x1="948.6688" y1="1097.63904" x2="948.6688" y2="629.93764" gradientUnits="userSpaceOnUse"><stop offset="0.24" stop-color="#3143bf"/><stop offset="0.82" stop-color="#6076f8"/></linearGradient></defs><title>虚云logo</title><path class="cls-1" d="M1145.95312,606.7148c-133.18771-2.41533-234.68229,109.94582-294.60978,185.15-24.06321,26.39191-72.77731,79.7699-72.77731,79.7699l-2.91294-2.91519L704.6207,789.5359c-58.59136-73.172-150.29685-171.75856-270.156-180.49217C436.95366,563.9533,458.994,521.57712,477.55,490.26826c62.51724-105.48287,206.90943-221.0953,391.2604-174.66981,116.45073,29.32613,203.59781,99.0556,248.03113,200.288C1128.39787,542.21553,1143.612,571.98078,1145.95312,606.7148Z"/><path class="cls-2" d="M399.53077,630.00414c146.98045-.86823,248.081,119.24475,314.40565,202.617L762.844,887.351s-4.15882,4.42831-6.68026,6.56772c-24.83244,22.08177-49.60476,43.89462-74.83232,65.62913-76.56709,56.25381-262.86292,161.23293-385.438,118.77547-98.54824-34.135-227.58882-144.36483-170.012-292.28081,8.9042-22.875,21.86028-43.89033,36.09843-61.71667,33.11076-41.4552,91.768-68.2846,150.216-83.8415l61.71666-9.31573Z"/><path class="cls-3" d="M1128.48614,630.00414c142.59-1.9959,246.01684,40.899,293.44528,133.91352,19.12006,37.49741,31.89657,106.73163,12.80912,156.03836-11.27412,29.12316-27.4206,54.33535-45.41415,76.85471-35.23963,44.1032-96.536,75.17521-159.53176,90.8283-53.60722,13.32032-125.06929,9.31549-190.97233,9.31573L710.443,1095.79029c-84.22124-.77623-173.051,2.50524-257.27224,1.729,43.943-8.19641,90.23422-34.41835,126.85211-50.63655C684.40907,1000.64963,774.71744,921.36386,842.02762,837.279c39.92372-49.87312,84.03845-103.45763,135.078-142.06478,29.21877-22.10155,64.06936-42.496,102.473-54.72987Z"/><g class="cls-4"><path class="cls-5" d="M796.4563,889.40963c18.05527,17.49306,36.10029,33.383,54.72987,50.072,36.404,30.66235,71.67253,53.75743,112.95318,75.69025,60.364,32.07217,101.21987,45.21677,156.03836,61.71666,65.41524,16.66967,65.40963,16.68131,69.62989,17.54337-25.0218,2.0349-60.39331,3.95323-89.80135,3.00787-124.89672-38.76819-188.45742-78.98586-261.6292-136.99778-19.88208-15.7629-58.61343-53.773-58.61343-53.773S782.487,904.47734,796.4563,889.40963Z"/></g><path class="cls-6" d="M1820.26265,505.93269c-16.48,1.44238-31.98083,2.8377-47.48913,4.14581-16.54883,1.39587-33.09912,2.7829-49.6615,4.00146-3.64038.26783-5.21448,1.59082-5.54944,5.37146-.97534,11.00812,3.01465,16.19349,14.09326,17.35108a87.002,87.002,0,0,0,8.98926.18811q45.9873.01666,91.97461.00366c17.38623-.00629,20.6803-2.85706,23.28174-20.10828.24694-1.637.31115-3.305,2.0592-5.16278,9.45715,3.86975,19.07764,8.28736,29.43835,10.46167,2.32837.48865,3.19373,1.6399,2.82862,4.20362-1.08277,7.602-2.26624,15.21307-5.58264,22.16961-4.0409,8.4762-10.449,14.48371-19.80616,16.9906a78.88131,78.88131,0,0,1-20.72729,2.58393q-55.98412-.10537-111.96887-.0268a118.77868,118.77868,0,0,1-20.82288-1.93908c-22.72851-4.02546-30.871-12.84766-32.81848-35.75715-.32886-3.8692,1.75073-8.71966-1.75659-11.34179-2.86939-2.14514-7.029.27044-10.6084.50921-16.899,1.12708-33.76538,2.74042-50.64551,4.15436-2.31994.19434-4.66113.14942-6.97644.37842-4.31555.42694-6.82263-.59613-6.87488-5.77319-.05334-5.28-1.19043-10.544-1.75708-15.82532-.41162-3.837.59729-5.981,5.26453-6.27814,16.23437-1.03357,32.43994-2.53332,48.65051-3.925,6.61426-.56787,13.2052-1.41864,19.82288-1.932,3.28979-.25522,4.80591-1.78214,4.80273-5.00269-.00647-6.33066-.03747-12.66168.01819-18.99185.02881-3.28537-1.39807-4.96668-4.76819-4.87473-1.33081.03635-2.66479-.06265-3.99731-.06289-25.9928-.00431-51.98584-.04682-77.9784.0217-8.59765.02264-8.71289.15451-8.73608,8.97879-.06494,24.65966.51868,49.33429-.14465,73.97631-1.218,45.252-4.87683,90.2594-17.1294,134.13776-5.56775,19.93854-12.7334,39.22424-23.07812,57.22888-.81006,1.40961-1.84021,2.69269-3.22827,4.7-10.2826-7.10131-20.05176-14.42572-30.78223-20.19567-4.14343-2.22809-2.239-4.838-.73535-7.44837a208.5407,208.5407,0,0,0,16.7793-38.33258c9.34362-27.9696,13.65136-56.79626,15.886-86.06616,3.75855-49.23108,1.22266-98.53455,1.9513-147.79929.20629-13.94113-.748-12.26523,12.47253-12.28891q55.48443-.09933,110.96936-.02728c2.66541-.00043,5.33105-.05072,7.99634-.0878,2.7699-.03851,4.34961-1.37747,4.44092-4.21152q.12872-3.99513.13623-7.99395c.01074-21.99393-.02588-43.98792.02209-65.98175.02112-9.63739.09522-9.65879,10.02783-9.71256,6.99793-.03787,13.99622-.01959,20.99427-.00442,10.90283.02365,10.00122-.419,10.056,10.57406.02331,4.66529.14465,9.33472-.007,13.99484-.13477,4.14539,1.48767,6.24451,5.79626,6.07212,2.66114-.10645,5.33081.01733,7.99671.01751q58.48388.004,116.96765.00358c2.33264.00012,4.66589.06564,6.99768.0249,3.67981-.06424,5.57043,1.62494,5.55493,5.37866q-.04779,11.496-.0365,22.99213c.001,3.36215-1.76221,4.7417-4.99328,4.67746-2.66443-.053-5.33143.02572-7.9972.02591q-58.48388.00393-116.96777.00448c-2.66565.00028-5.33118.04874-7.99683.05463-3.06884.0068-4.73755,1.172-5.27966,4.54605-2.75513,17.15066-.78357,19.62933,16.26355,19.62955,38.32275.00042,76.66931.76776,114.95532-.41727,13.41614-.41528,25.45947,2.38953,37.85572,5.94723,4.34716,1.24768,5.07263,3.114,3.83593,7.15073a449.09329,449.09329,0,0,1-22.7511,59.615c-2.19775,4.67755-4.65686,5.46649-9.30554,3.53815-6.74328-2.79724-13.79309-4.84876-20.67615-7.31836-8.35839-2.99912-8.37707-3.05713-5.37878-11.03909,2.79041-7.428,5.89624-14.75611,7.01148-22.55732-2.74354-2.68673-5.89063-1.76306-8.73975-1.76873q-52.485-.10461-104.97034-.04276c-1.66577.00018-3.33166.05518-4.99743.06241-3.11829.01352-5.08863,1.24792-5.05591,4.67111.00634.66583-.02124,1.33313-.06128,1.998-1.0824,17.93994-1.07007,18.11246,16.5553,16.79315,25.1665-1.88379,50.30761-4.10663,75.46911-6.06171,7.43335-.57757,7.68189-.42151,8.74024,6.84659C1819.28755,491.97648,1819.57759,498.29255,1820.26265,505.93269Z"/><path class="cls-6" d="M3214.013,706.96589c-8.56812,10.58124-16.43579,20.44891-22.95361,31.26141-2.07813,3.44788-4.64136,2.78638-7.69922,1.84888-26.53809-8.1366-51.83765-18.998-75.21778-34.078-8.95092-5.77314-18.00659-11.44361-26.00879-18.52185-4.12036-3.64441-7.23315-3.85993-12.074-.39423-31.92358,22.85547-66.93921,39.55713-104.44409,51.10077-8.68823,2.67419-8.93189,2.85791-12.7688-5.39984-4.6084-9.91852-11.23511-18.651-17.06006-28.74823,10.52734-3.32782,20.2981-6.33313,30.01465-9.504a333.84245,333.84245,0,0,0,73.79126-34.94275c1.12842-.707,2.20044-1.50623,3.342-2.18964,2.99683-1.79357,3.1814-3.67212.81006-6.3637a334.35288,334.35288,0,0,1-20.95288-26.67774c-17.53247-24.51562-31.26148-51.05072-42.07569-79.09112-1.41552-3.6698-2.457-5.78418-6.51977-5.1681-5.73071.86915-6.54224-2.44848-6.405-7.09539.2063-6.991-.00513-13.99323.0625-20.98969.08545-8.83435.12891-8.9588,8.72925-8.98779,21.99072-.07416,43.98217-.02387,65.97314-.02985,3.33179-.00091,6.66406-.087,9.99487-.04315,3.80787.05011,5.28077-1.86084,5.26514-5.546q-.10473-24.48876-.03979-48.97821c.00341-3.29166-1.56372-4.8877-4.82715-4.90594-2.33179-.013-4.66333-.08085-6.99512-.08146q-36.98511-.0096-73.97-.01226c-13.72681-.01551-12.0022.78628-12.13916-12.60309-.04761-4.66425-.02222-9.32947-.00391-13.99417.04322-10.95331-.76611-10.48569,10.13526-10.49207q36.48522-.02133,72.97021-.00552c1.99927,0,3.999.03091,5.99756-.00959,8.70728-.17639,8.81812-.18347,8.86572-9.02261.08814-16.3262-.04907-32.65381.073-48.97958.05249-7.02271.23755-7.16,7.3938-7.28083,8.66064-.14624,17.32983.13361,25.98706-.08752,4.769-.1218,6.4419,1.76535,6.387,6.47525-.1792,15.32489-.06176,30.65326-.04785,45.98032.0022,2.665.07862,5.33.075,7.995-.00439,3.31,1.66773,4.85492,4.92334,4.855,2.665.00006,5.33008.07041,7.99512.07111,26.65576.007,53.31152-.03714,79.96729.033,8.15942.02148,8.22363.16122,8.34692,8.36267q.15051,9.99368.00146,19.99121c-.12695,8.55472-.18823,8.6677-9.24731,8.6951-22.65723.06854-45.3147.02255-67.97217.025-5.6643.00058-11.33471.1731-16.99145-.03305-4.91529-.17914-7.2627,1.38983-7.17212,6.8085q.38452,22.98409.00049,45.97809c-.08887,5.38275,2.19873,6.8993,7.1394,6.84528,19.32056-.21124,38.645-.09992,57.96533-.32428,10.48267-.1217,18.88989,5.7456,28.08838,9.27893,2.96362,1.13837,1.26953,4.12158.58936,6.19183-2.70069,8.21814-5.311,16.47986-8.408,24.55152-15.69873,40.91321-38.24781,77.4696-69.37329,108.55212-5.06885,5.06207-5.07886,5.44977.885,9.65338a288.892,288.892,0,0,0,68.91723,35.7262C3193.01326,700.15,3202.83943,703.22926,3214.013,706.96589Zm-74.53223-164.852a2.66728,2.66728,0,0,0-2.76806-1.84833q-55.44324-.10181-110.88648-.08752c-5.32178.0097-5.85229,1.30243-3.34936,7.05987a279.95381,279.95381,0,0,0,49.7727,76.61731c5.41992,5.98584,5.94043,5.97718,11.70191.26081a266.4,266.4,0,0,0,52.74462-73.35181C3138.11043,547.84345,3139.971,544.97083,3139.48079,542.1139Z"/><path class="cls-6" d="M2071.25374,536.71c-3.26416-2.25348-7.01538-1.21082-10.52661-1.22016q-50.48841-.13476-100.97778-.05517c-2.33277-.00012-4.66834-.09149-6.99768-.007-4.01831.14551-6.28443-1.35455-6.24463-5.73657q.13641-14.99515.00793-29.99219c-.03235-3.7923,1.61621-5.50772,5.39014-5.34772,1.99536.08466,3.99817-.01605,5.99768-.01611q181.96051-.00239,363.921-.00134c.99976,0,1.99976-.012,2.99927.00445,8.63183.14215,8.6853.14319,8.75781,8.8606.06934,8.33093.12158,16.66485-.02417,24.99383-.12183,6.952-.25269,6.97132-7.48047,7.22449-2.32983.0816-4.66528.01843-6.99805.01849-59.65356.00074-119.3081.13923-178.96-.18206-7.07959-.03809-10.782,2.50891-13.98925,8.35315a834.7342,834.7342,0,0,1-79.93616,119.35174c-1.80261,2.25708-4.458,4.13269-4.84656,8.92969,16.09448.14038,31.94043-1.97864,47.803-2.97315,16.2373-1.018,32.43384-2.676,48.66577-3.79925,15.91773-1.10144,31.91626-1.316,47.77124-2.96259,16.03784-1.66558,32.28-1.46576,49.59766-4.57788-14.62964-24.57647-31.62891-46.22406-47.155-69.52386,10.58227-7.08753,21.99-11.71259,32.48047-17.93689,4.17431-2.47681,5.938-.00958,8.01538,2.86236,10.14648,14.02625,20.6167,27.82508,30.5061,42.02906,21.68823,31.15094,43.12549,62.4776,61.68945,95.6502,4.58106,8.1861,4.62378,8.23005-3.23144,13.0127q-11.94215,7.27076-23.99756,14.35455c-7.64917,4.5213-7.78516,4.54633-11.51587-2.98291-5.33154-10.7594-12.03735-20.73315-17.68188-31.28918-2.8501-5.33-6.61329-6.78034-12.093-6.32666-12.91651,1.06933-25.854,1.88293-38.77075,2.9505-13.89527,1.14831-27.77564,2.4801-41.66431,3.71057-34.72363,3.07629-69.43213,6.34851-104.17944,9.131-20.53785,1.64459-41.05762,3.32807-61.42578,6.46112a141.1977,141.1977,0,0,0-16.54725,3.60059c-4.26306,1.19311-6.60485.80237-7.985-4.13129a300.02942,300.02942,0,0,0-12.04309-34.88867c-.949-2.27093-1.8346-4.36432,1.2633-5.80048,12.9126-5.986,20.97181-17.22467,29.5177-27.80249,26.67286-33.01495,48.69544-69.06176,68.61072-106.44427C2070.16634,541.97816,2072.08211,539.78761,2071.25374,536.71Z"/><path class="cls-6" d="M2445.8348,404.59159c-14.10474,2.16037-26.90064,4.11563-39.69434,6.08676-1.31055.202-2.59839.55573-3.9104.74234-10.49561,1.4928-10.38843,1.44919-13.78955-8.63583-2.30859-6.84616-4.97461-13.57187-7.77173-21.13831,8.78442-1.717,17.15649-3.399,25.54688-4.98547,36.30688-6.8653,72.293-14.93372,106.80151-28.5155,2.91089-1.1456,5.32959-2.36924,7.69922,1.17047,6.45532,9.64215,13.18042,19.10373,19.58447,28.329-1.65869,3.63513-4.46973,3.72748-6.88452,4.60223a391.202,391.202,0,0,1-40.1919,11.74039c-8.16723,2.00336-8.23022,2.11993-8.26709,10.70032q-.10363,23.99048-.00268,47.98172c.03857,9.572.11694,9.61837,10.19311,9.651,14.32789.04648,28.6565-.063,42.9834.05209,7.18213.05771,7.30591.21347,7.426,7.13324.13867,7.99448-.23535,16.005.11743,23.98627.24219,5.47525-2.22192,6.73691-7.11279,6.668-13.9917-.19721-27.98853-.06464-41.98316-.05841-1.99927.00091-4.00683-.09491-5.99585.05352-5.81567.43378-7.16967,2.82367-3.61865,7.61713,3.74439,5.05426,8.35132,9.45953,12.40283,14.29822,13.45532,16.07062,26.72534,32.29791,40.30786,48.25952,3.45972,4.06567,3.45069,6.99951.00879,11.091-6.79541,8.07813-13.05615,16.60608-20.458,26.13227-10.366-18.74909-20.27466-36.23218-32.01563-53.42121-3.29907,3.68946-2.21582,7.45063-2.22046,10.80194q-.11609,80.96925-.07178,161.93872c-.012,15.1222,1.24976,13.0326-13.51587,13.218-4.66406.05853-9.33007.04193-13.99462.00256-12.80518-.10809-11.46094,1.16633-11.55933-12.05975-.05689-7.66333-.0105-15.32751-.0105-22.99127q0-60.977-.04126-121.95386c-.00586-3.53064.72632-7.1842-1.53833-12.78485-15.2876,33.66773-30.40259,65.582-52.67724,94.132-3.83423-2.9737-4.72437-6.96234-6.55982-10.27191-3.71142-6.69141-7.01147-13.63172-11.0581-20.10926-2.73218-4.37384-2.24805-7.24237.95141-11.32409,26.71143-34.07666,46.19336-72.15735,61.82642-112.39014,4.56714-11.754,1.65381-10.23975-7.18067-10.24017-15.32739-.00074-30.65722-.14929-45.9812.0733-5.029.07306-7.32251-1.43127-7.1355-6.76492.28077-7.987-.05517-15.99387.10767-23.98746.1394-6.83484.28589-7.00156,7.62817-7.04761,17.32618-.10864,34.65357.00434,51.98023-.05945,9.50708-.035,9.60644-.11413,9.65332-9.22839C2445.8929,437.46223,2445.8348,421.838,2445.8348,404.59159Z"/><path class="cls-6" d="M2909.45174,540.16517c10.07324-2.54,20.6521-5.07691,31.15674-7.89026,12.20239-3.26807,12.22461-3.381,14.13037,8.94965.86157,5.57537,1.50781,11.185,2.19726,16.78576.93189,7.5683.94288,7.684-6.15283,9.78211-11.80005,3.48913-23.66748,6.75049-35.4685,10.23663-7.5708,2.23669-7.67676,2.34009-7.6897,10.30914q-.08386,51.96534-.02637,103.931c0,1.99866.00806,3.99744-.002,5.996-.12525,24.72821-9.10278,35.30316-33.27661,39.21649-13.19605,2.13611-26.49463,2.059-39.804,1.97863-3.81323-.023-6.22339-1.09631-7.12646-5.2246-2.26978-10.37726-6.10547-20.28779-10.18457-30.83777,3.78662-1.6687,7.37988-1.13379,10.81152-.84113a192.45081,192.45081,0,0,0,30.92041-.26373c6.98438-.52789,8.80029-2.19562,8.82837-9.23456q.18969-47.46762-.00854-94.9364c-.0232-5.82312-.6565-6.14911-6.5918-4.63269-11.917,3.0448-23.85474,6.04706-35.63721,9.55884-4.44726,1.32544-6.16064-.19043-7.19556-4.02832-2.51123-9.3111-4.97363-18.63666-7.62988-27.90656-1.1914-4.15692.11572-5.93964,4.35474-6.88068,13.6272-3.02532,27.17383-6.41247,40.74756-9.678,1.93823-.46631,3.82763-1.32605,5.78344-1.49494,5.17969-.4472,6.37256-3.44879,6.30518-8.12433-.18652-12.98871-.05664-25.98181-.05689-38.9732-.00024-11.65894.095-23.31909-.04882-34.97629-.08765-7.10431-.34644-7.40109-7.27271-7.49283-12.32324-.16318-24.65014.01251-36.97461-.08169-8.84814-.06763-8.9021-.15992-9.019-8.92225-.08911-6.661-.10254-13.32565.00635-19.98611.13086-7.99417.20215-8.08261,8.56372-8.14536,11.6582-.08743,23.31787.023,34.97656-.041,9.66284-.053,9.73218-.11044,9.75366-10.13416.04737-21.98523-.01977-43.9707.03516-65.9559.0227-9.10553.10986-9.14462,9.50781-9.2156,7.66138-.05784,15.32544-.127,22.98389.03118,6.98486.14423,7.17041.27491,7.20727,7.46494.105,20.31934-.07959,40.64041.07764,60.95908.15039,19.4533-2.66455,16.5921,17.00977,16.85174,7.6604.10114,15.32519.15122,22.98339-.01083,4.116-.08707,6.11475,1.24856,6.00586,5.69406-.2041,8.32266-.22046,16.65872.01392,24.97992.13184,4.686-1.562,6.6026-6.356,6.50131-9.98877-.21115-19.98535-.09985-29.97851-.03039-9.55249.06643-9.65869.1166-9.68775,9.13974-.06567,20.31961-.02173,40.63961-.00049,60.95944C2907.62581,535.5312,2907.48226,537.5705,2909.45174,540.16517Z"/><path class="cls-6" d="M2681.11141,636.87763c-16.72022,1.59656-33.20362,5.37457-49.84595,8.08472-25.571,4.16424-51.08618,8.66846-76.65332,12.85681-8.5061,1.39343-8.61621,1.16437-10.04736-7.29114-1.27466-7.53235-2.33594-15.10071-3.55371-22.643-1.1709-7.25116-.96265-7.70911,6.5039-8.95227,17.69312-2.94574,35.41187-5.73792,53.1062-8.67652q35.88465-5.95926,71.74658-12.05279c10.05665-1.70355,10.11866-1.75623,10.12134-11.9737q.03186-115.91152.01343-231.82312c.00049-14.58621-.97436-13.38223,13.56641-13.40622,6.66162-.011,13.33081.20453,19.98242-.0513,5.27344-.20285,7.25342,2.11872,6.90576,7.15628-.18286,2.65174-.02246,5.327-.02246,7.99161q.00073,110.41576.00439,220.83148c.00147,13.13166.0149,13.07215,12.5918,10.79926,9.47412-1.7121,19.00244-3.1264,28.46216-4.90949,4.98267-.9392,7.2793.40687,7.821,5.82325.7583,7.58233,2.51978,15.05859,3.63062,22.61279,1.28442,8.73486,1.1875,8.7926-7.03882,10.2124q-18.17028,3.13614-36.35962,6.16236c-8.96948,1.5075-9.07446,1.49255-9.09033,10.62493q-.07691,44.46626-.02417,88.93287c-.00049,2.6643-.07251,5.32885-.053,7.99286.02417,3.24578-1.4314,4.8944-4.78882,4.87915q-15.487-.07059-30.97412-.01679c-3.52173.01215-4.58813-1.99219-4.56738-5.093.01562-2.33105-.044-4.66253-.04419-6.99383-.00391-26.6463.03174-53.29279-.04468-79.93884C2682.4493,644.4325,2683.29329,640.68787,2681.11141,636.87763Z"/><path class="cls-6" d="M1729.11641,732.10017q-73.46154,0-146.923-.00135c-2.66516-.00012-5.339-.15924-7.99365.003-4.45191.27192-5.78748-2.01458-5.713-6.0697.12818-6.99383-.08276-13.994.04956-20.98767.14551-7.68555.31507-7.92364,7.90723-8.00342,12.99182-.13653,25.98608-.042,38.97925-.04315,12.3269-.00116,24.65393.04163,36.98059-.01221,12.97107-.05664,12.06873,1.08222,12.08459-11.65387.03907-31.31683-.00927-62.63385.02283-93.95074.01636-15.9613-1.37744-14.2951,14.58862-14.37787,5.66358-.0293,11.33655.20807,16.98829-.04913,5.31042-.24158,7.04443,2.19177,6.89465,7.192-.21948,7.32282-.04907,14.65729-.0481,21.98676.00354,27.65216-.046,55.3045.04187,82.95636.0243,7.65369.2096,7.75848,7.81873,7.87225q12.49073.18687,24.98608-.00287c7.77075-.12719,7.83631-.24047,8.02454-7.77819.12475-4.99439.03149-9.99421.03174-14.99158q.00183-43.4772.01135-86.95441c.01-10.16729.06238-10.1864,10.50952-10.22943,6.99622-.02875,13.9989.19086,20.9867-.05047,4.85827-.16791,6.49792,1.92944,6.29345,6.55554-.2351,5.31988-.04089,10.65857-.0404,15.98907q.00366,43.977.02173,87.95386c.01635,9.3833.11523,9.50006,9.30578,9.52014q41.97784.09165,83.95606.02472c2.33215.00006,4.66613-.058,6.996.01617,7.49927.23908,7.56665.257,7.69519,8.02247q.15692,9.49236.00171,18.98931c-.12036,7.91144-.18152,7.91987-8.5376,8.06513-2.33142.04053-4.66406.00922-6.99622.00922Q1801.57851,732.10029,1729.11641,732.10017Z"/><path class="cls-6" d="M2142.74495,372.99769q66.45411,0,132.90821.00107c2.33178.00009,4.666.08972,6.99462.00677,3.98853-.142,6.31714,1.29154,6.2793,5.69507-.08642,9.99216-.07153,19.98575-.012,29.97824.02221,3.687-1.44629,5.60162-5.32422,5.40884-2.32544-.1156-4.66211.01081-6.9939.01087q-134.90661.00266-269.81335-.01926c-13.00867-.00567-12.24536,1.626-12.278-12.45038-.017-7.32821.134-14.65933-.03259-21.98364-.10376-4.56314,1.58057-6.91806,6.37146-6.648,2.32385.131,4.66211.0015,6.99378.00144Q2075.29164,372.99668,2142.74495,372.99769Z"/><path class="cls-6" d="M3103.96468,918.93708c5.54614-4.39246,10.04-8.17255,14.7583-11.648,15.58838-11.48224,32.77661-15.86011,51.83789-11.07934,13.23193,3.31866,22.17456,11.48718,27.1648,24.20544a88.20081,88.20081,0,0,1,5.8247,32.20349q.18054,47.49381.022,94.98889c-.0144,8.29358-.14257,8.31678-8.11767,8.477-3.33154.0669-6.66748.07935-9.99854-.004-7.41186-.18567-7.56811-.21644-7.58618-7.99866-.06982-30.32959-.12524-60.66.03955-90.989a78.16969,78.16969,0,0,0-2.53222-19.72424c-3.66846-14.45947-13.46851-21.584-28.48975-21.2594-10.03906.21686-18.728,4.14-26.73291,9.85242-2.16431,1.54455-4.137,3.35461-6.26294,4.95593-7.686,5.78943-10.813,12.90833-10.56445,23.04425.75171,30.64472.28833,61.31964.261,91.98273-.009,10.05273-.06176,10.05273-9.47021,10.15417-16.27954.17542-16.28027.17554-16.28052-16.35266q-.00074-100.48837.00049-200.97674c.00024-2.66632.189-5.34693-.02271-7.99585-.36987-4.62842,1.33252-6.79792,6.22608-6.47968a89.52627,89.52627,0,0,0,12.98877-.01459c5.53125-.44757,6.708,2.283,6.61645,7.12891-.45385,23.98242.61817,47.97711-.59839,71.959C3102.81356,907.99183,3102.4261,912.683,3103.96468,918.93708Z"/><path class="cls-6" d="M1606.66829,964.46894c-13.6438,28.50305-29.05505,54.948-42.8656,82.22681-3.5564,7.02453-7.89038,10.72192-16.10327,9.52331-4.54724-.66369-9.27087-.119-13.88025-.119-1.37964-3.75061.78516-6.11511,2.17066-8.56189,17.5332-30.96484,34.98669-61.97644,52.82629-92.76434,3.55994-6.14392,3.86084-10.78552.102-17.20135-16.30432-27.82941-31.93726-56.05231-47.80811-84.13562-1.60351-2.83735-3.74865-5.44025-4.35839-10.35443,8.17553,0,16.00366-.10193,23.82739.03875,4.606.08277,5.64941,4.31507,7.30664,7.3432,8.30188,15.17035,16.1842,30.57166,24.57275,45.69275,5.93225,10.693,10.69666,22.07764,17.80933,31.86426,3.43384-.5946,3.65613-3.23767,4.61023-5.25482,11.52685-24.37134,24.74011-47.87641,36.86914-71.93579,2.86511-5.68347,6.25159-8.84894,13.10937-7.9657,5.21412.67157,10.584.1333,15.57.1333,2.131,3.59192-.33472,5.60236-1.53381,7.75525-16.18042,29.05194-32.26966,58.15759-48.80872,87.00494-3.85535,6.72473-4.38342,11.88849-.18078,18.96582,17.99731,30.30933,35.26806,61.05,52.82458,91.62152,1.14685,1.9972,2.52783,3.86975,2.97534,7.63062-8.42932,0-16.53784.10486-24.64172-.04321-4.21546-.077-4.95618-4.13025-6.45386-6.81751-8.74084-15.68518-17.25134-31.49914-25.78516-47.29907-5.37341-9.94824-10.655-19.94605-15.97033-29.92554C1611.464,969.28547,1610.22725,966.5619,1606.66829,964.46894Z"/><path class="cls-6" d="M2356.13826,919.29713c4.86768.16107,6.74488-3.41291,9.38965-5.70337,14.60327-12.64746,30.87012-20.81134,50.86621-19.04932,20.08228,1.76959,33.30225,12.69287,38.61353,32.09015a111.5353,111.5353,0,0,1,3.83545,28.58411c.2434,30.331.09106,60.66516.08764,90.998,0,1.66626-.07226,3.333-.05444,4.99878.03491,3.26819-1.48364,4.9469-4.82153,4.83594a8.8617,8.8617,0,0,0-.99927.02454c-20.554,1.648-20.554,1.64819-20.554-19.18421-.00024-26.99963-.04272-53.99927.0293-80.99865a67.64714,67.64714,0,0,0-2.49756-19.72474c-3.89648-13.05688-12.64868-19.78369-26.41748-20.0415-12.68408-.23755-22.9812,5.372-32.61279,13.05542-8.22778,6.56335-12.823,13.59015-12.42041,25.23157,1.04712,30.29669.36743,60.65356.3435,90.98645-.0083,10.61853-.05273,10.61841-10.05419,10.699-16.36939.13159-16.37012.13172-16.37012-16.39111q-.00074-63.99894.00146-127.99793c0-2.66644.12183-5.33673.01685-7.99847-.1499-3.79443,1.56348-5.56616,5.35058-5.34711.33179.01911.66626-.01306.99952-.01495,19.02221-.10754,14.79614-.77393,16.61718,14.15686C2355.75765,914.72346,2355.91658,916.95387,2356.13826,919.29713Z"/><path class="cls-6" d="M2778.25252,983.43488c-14.31909.00226-28.63843-.02838-42.95752.01221-10.76684.03046-10.90234.34814-9.125,10.45874,6.51318,37.0531,38.19385,53.42285,72.35571,43.34033a73.67113,73.67113,0,0,0,16.3501-7.266c2.48047-1.45117,3.9624-1.07971,5.67407,1.40662,8.02344,11.65417,7.457,14.1438-5.66186,19.89941-18.09131,7.937-36.73413,11.09485-56.41284,6.86585-21.51416-4.62354-37.68213-16.46485-48.16626-35.56946-15.99536-29.14624-15.08716-75.92072,10.386-105.08924,17.55786-20.10473,47.57618-28.36315,72.77613-19.54382,18.43628,6.45215,29.50171,19.88757,35.42431,37.90351,4.09033,12.44207,5.30664,25.35748,4.64893,38.42077-.42163,8.37225-1.11743,9.08246-9.3374,9.13233C2808.88948,983.499,2793.57064,983.43269,2778.25252,983.43488Zm-9.53149-18.44482v-.02173c12.31982,0,24.64135-.11761,36.95874.05835,4.87329.06958,6.79028-2.0766,6.06323-6.64569-.83252-5.23126-1.62451-10.50031-2.96387-15.61426-6.63623-25.33923-32.803-34.59918-54.70337-24.508-16.59912,7.64856-24.35351,21.87225-28.18408,38.79364-1.57178,6.94287-.7478,7.82775,6.8689,7.90527C2744.74617,965.07972,2756.73421,964.99006,2768.721,964.99006Z"/><path class="cls-6" d="M1843.36067,1032.39326c-5.70239,2.56115-8.2489,6.6228-11.63317,9.6643-16.33484,14.68091-34.81617,21.61719-56.89185,16.20618-12.5686-3.08069-21.28125-10.75476-26.38635-22.38049a82.02985,82.02985,0,0,1-6.576-33.03968q-.13386-47.97225-.01062-95.94519c.014-8.35962.13659-8.40277,8.03979-8.54321,4.32874-.077,8.6626.106,12.99073.01441,3.46582-.07331,4.75659,1.6444,4.66833,4.8944-.06311,2.32959.03442,4.66309.03467,6.99488.00354,28.3172.08728,56.63489-.06262,84.95129a104.45135,104.45135,0,0,0,1.66137,18.82251c3.31116,18.723,16.31458,26.32617,34.04627,23.84766,15.95642-2.23023,26.54016-12.92969,35.80591-25.10828,2.22729-2.92737,1.41272-6.41052,1.41906-9.66968q.08772-44.97417.03565-89.94867c0-1.99884-.02918-3.99829.00732-5.99646.15845-8.67346.16565-8.6734,8.92249-8.822,17.50281-.29705,17.50305-.297,17.50317,17.23908q.00018,62.96411-.00024,125.92828c0,1.9989.03235,3.99842-.00867,5.99646-.17224,8.39844-.1803,8.39844-8.12939,8.59741-13.73719.34388-13.74305.34424-14.78235-13.55456C1843.79366,1039.59541,1843.63253,1036.64436,1843.36067,1032.39326Z"/><path class="cls-6" d="M2227.5909,1032.69257c-4.95654,2.287-7.50537,6.32874-10.8645,9.35584-16.31348,14.701-34.80567,21.59631-56.85279,16.23193-12.55468-3.05493-21.15869-10.7622-26.40234-22.3435-5.167-11.41175-6.72266-23.6753-6.85767-35.96515-.33667-30.62561-.11377-61.25751-.10473-91.88684.00049-1.99555.0271-3.9953.15771-5.98548.15357-2.33819,1.48633-3.55682,3.83448-3.65161.665-.02685,1.331-.0423,1.99462-.09247,20.439-1.54553,20.439-1.546,20.439,19.25568q.00036,40.45074-.00244,80.90143a78.42694,78.42694,0,0,0,1.46875,16.848c3.60888,16.55847,14.582,24.04871,31.18774,22.80689,17.81714-1.33252,29.21192-13.11255,39.23877-26.4054,1.8938-2.511.97656-5.81952.981-8.76752q.06921-46.44351.03393-92.8872c.00074-2.66285.04688-5.326.105-7.98835.05249-2.41815,1.37354-3.654,3.73926-3.66937q8.98682-.05823,17.97437-.00519c2.32568.0127,3.74023,1.14356,3.82275,3.58606.06738,1.99585.10938,3.99359.10962,5.99054q.00843,68.916.00293,137.83209c0,1.66455-.11352,3.33423-.01685,4.99244.22339,3.842-1.58764,5.45129-5.34692,5.24633-1.991-.10864-3.99365.011-5.99121.00525-9.48877-.02722-9.41992-.038-10.491-9.24524C2229.22518,1042.337,2228.38973,1037.85847,2227.5909,1032.69257Z"/><path class="cls-6" d="M1927.3763,898.34333c6.62854,0,12.94092.28632,19.2135-.09167,4.90369-.29548,7.1051,1.95019,8.64685,6.23266,7.20728,20.01862,14.73,39.92383,21.90186,59.9549,6.94922,19.409,13.59716,38.92584,20.41015,58.38385.83338,2.37988,1.32752,5.01013,3.58911,6.80224,3.74317-2.07446,3.71888-5.80578,4.56849-8.78015,11.14563-39.017,24.63195-77.295,36.47851-116.08807,1.28565-4.21033,3.04468-6.952,8.22461-6.51911,5.599.468,11.26721.106,17.28723.106.98194,3.888-.64355,6.82123-1.68994,9.80347q-29.22381,83.29567-58.5581,166.55237c-4.35132,12.26477-10.14563,23.98974-19.2876,33.52612-13.28015,13.853-29.7229,18.292-48.34424,14.839-6.16492-1.14307-6.59815-2.20947-5.43555-8.13953.511-2.60547,1.413-5.13684,1.87561-7.74829.70191-3.96143,2.42408-5.661,6.81372-4.80444,19.65882,3.8363,30.84851-8.57923,38.37842-22.09326.64295-1.15394.93006-2.50245,1.53858-3.67994,6.15051-11.89941,6.02673-23.11071.58337-35.94751-18.42688-43.457-35.57947-87.45483-53.15027-131.27349C1929.202,906.33955,1927.36336,903.44794,1927.3763,898.34333Z"/><path class="cls-6" d="M2603.59774,962.22034q-.00185,42.44788-.01954,84.89582c-.01538,8.82837-.115,8.82812-8.614,8.98095-17.12573.30787-17.12646.308-17.12671-16.46923q-.00074-79.90183-.001-159.80371c0-2.6634-.18676-5.33979.0149-7.98725.36621-4.81134-1.89453-6.45355-6.48291-6.41986-15.64673.11487-31.29444.03742-46.9419.01563-11.99316-.01667-11.99658-.02857-11.92138-12.02576.01245-1.99658.02832-3.99481.11767-5.989.12573-2.79651,1.69214-4.20356,4.43726-4.3097,1.99487-.07721,3.99316-.1054,5.98974-.10565q67.41725-.00861,134.83448-.00348c1.66455,0,3.33813-.09124,4.99194.04523,6.09839.503,6.11206.56427,6.05811,11.85809-.04737,9.90015-.11963,10.35639-6.42994,10.446-14.97876.21246-29.9624.0404-44.94384.09845-15.71241.06085-13.89356-1.26526-13.93848,13.8753C2603.54012,906.95472,2603.599,934.58759,2603.59774,962.22034Z"/><path class="cls-6" d="M3011.23665,912.62971a30.13923,30.13923,0,0,1-1.8562,2.9671c-3.35791,4.095-6.03271,9.9732-10.35791,11.70654-4.29443,1.72107-8.04687-4.51831-12.28833-6.86468-17.55811-9.71295-40.78638-5.20819-54.38452,10.68921-16.14356,18.873-17.45581,40.996-13.91187,64.08764a55.29275,55.29275,0,0,0,7.02124,19.65222c14.90918,25.38953,44.616,31.72388,69.97071,14.93116,2.467-1.63391,4.78442-3.49341,7.03881-5.15088.93189.45642,1.74561.585,2.06959,1.05261,12.22338,17.63123,12.73,14.93543-5.12891,25.12195-37.92066,21.62964-96.48267,6.61755-107.43628-51.34284-4.74048-25.085-2.51685-49.1994,11.24609-71.20111C2926.44588,891.1468,2980.02816,882.51655,3011.23665,912.62971Z"/><path class="cls-6" d="M2556.15486,505.66731c6.561-8.49323,14.78174-13.8364,21.30616-20.90754,2.83569-3.0733,5.68066-2.37793,8.802-.13943,22.42187,16.08005,44.4873,32.5961,63.93237,52.29819,6.20484,6.28674,6.19727,6.54882.0708,12.51342-7.07763,6.89087-14.40771,13.52271-21.9956,20.61036C2607.21273,545.12189,2582.57405,525.02119,2556.15486,505.66731Z"/><path class="cls-6" d="M2667.67781,429.72559c-8.439,7.8226-15.9934,14.77539-23.48608,21.79432-3.27026,3.06356-5.59692,3.26358-8.90259-.63285a355.84373,355.84373,0,0,0-55.82934-52.34521c-1.3169-1.00592-2.52881-2.15628-3.88428-3.1037-2.844-1.98776-3.13086-4.12973-.46387-6.42432,6.53369-5.62149,13.14014-11.15863,19.645-16.813,2.26245-1.96655,4.41065-2.73971,7.08423-.78064C2625.40438,388.68549,2648.48323,406.48872,2667.67781,429.72559Z"/><path class="cls-6" d="M1867.71187,608.4875c-16.10144,25.27984-30.72827,50.21606-47.93823,73.50048-2.73584,3.7013-5.13233,4.26813-9.09888,2.01538-5.77344-3.27905-11.81909-6.08978-17.81567-8.96026-3.36-1.60822-4.36609-3.33533-2.05579-6.87451,14.38965-22.04389,26.24939-45.44239,36.51612-69.65009,1.67138-3.94086,3.73986-4.88507,7.66088-3.24859C1845.38106,599.61085,1855.87569,603.72718,1867.71187,608.4875Z"/><path class="cls-6" d="M1620.07418,684.05769c-7.4126-27.28913-18.11072-52.17438-30.51172-76.8678,9.473-4.93714,19.42-7.57544,28.81128-11.54547,3.00341-1.26972,4.31738.508,5.46447,2.63244,11.52161,21.33454,22.01282,43.1175,28.97181,66.4477,1.16015,3.889.172,6.079-3.82166,7.58667C1639.69576,675.81922,1630.56673,679.76063,1620.07418,684.05769Z"/></svg>