<?xml version="1.0" encoding="utf-8"?>
<!-- Generator: Adobe Illustrator 28.1.0, SVG Export Plug-In . SVG Version: 6.00 Build 0)  -->
<svg version="1.1" id="Layer_1" xmlns="http://www.w3.org/2000/svg" xmlns:xlink="http://www.w3.org/1999/xlink" x="0px" y="0px"
	 width="750px" height="450px" viewBox="0 0 750 450" style="enable-background:new 0 0 750 450;" xml:space="preserve">
<style type="text/css">
	.st0{fill:#F7931E;}
	.st1{fill:#FFFFFF;}
	.st2{fill-rule:evenodd;clip-rule:evenodd;fill:#FFFFFF;}
	.st3{fill-rule:evenodd;clip-rule:evenodd;fill:#29ABE2;}
	.st4{fill-rule:evenodd;clip-rule:evenodd;fill:#809FC5;}
</style>
<rect class="st0" width="750" height="450"/>
<g>
	<path class="st1" d="M160.1,314.3l2.2-5.4l-30-75.5c-1.8-4.3-2.8-7.5-2.8-9.5c0-2.1,0.5-4,1.6-5.8c1.1-1.8,2.5-3.2,4.4-4.3
		c1.9-1.1,3.8-1.6,5.8-1.6c3.5,0,6.2,1.1,7.9,3.3s3.4,5.4,4.7,9.6l20.6,60l19.5-55.8c1.5-4.5,2.9-8.1,4.2-10.6
		c1.2-2.6,2.6-4.3,4-5.2c1.4-0.9,3.4-1.3,5.9-1.3c1.8,0,3.6,0.5,5.3,1.5s3,2.3,3.9,4c0.9,1.7,1.4,3.4,1.4,5.3
		c-0.2,1.1-0.6,2.7-1.2,4.8c-0.5,2.1-1.2,4.2-2,6.3l-31.8,83.2c-2.7,7.3-5.4,13.1-8,17.2c-2.6,4.2-6.1,7.4-10.4,9.6
		c-4.3,2.2-10.1,3.3-17.4,3.3c-7.1,0-12.5-0.8-16.1-2.3c-3.6-1.5-5.4-4.4-5.4-8.5c0-2.8,0.8-5,2.5-6.5s4.2-2.3,7.5-2.3
		c1.3,0,2.6,0.2,3.8,0.5c1.5,0.4,2.9,0.5,4,0.5c2.8,0,5-0.4,6.6-1.2s3-2.3,4.3-4.3C156.9,321.3,158.4,318.3,160.1,314.3z"/>
	<path class="st1" d="M311.7,261.8c0,7.3-1.1,14-3.4,20.1c-2.3,6.1-5.5,11.4-9.8,15.8c-4.3,4.4-9.4,7.8-15.3,10.1
		c-5.9,2.3-12.6,3.5-20.1,3.5c-7.4,0-14-1.2-19.9-3.6c-5.9-2.4-11-5.8-15.3-10.2c-4.3-4.4-7.6-9.7-9.8-15.7c-2.2-6-3.3-12.7-3.3-20
		c0-7.4,1.1-14.1,3.4-20.3c2.3-6.1,5.5-11.4,9.7-15.7c4.2-4.3,9.3-7.7,15.3-10c6-2.3,12.6-3.5,19.9-3.5c7.4,0,14.1,1.2,20.1,3.6
		c6,2.4,11.2,5.8,15.4,10.2c4.3,4.4,7.5,9.6,9.8,15.7C310.6,247.8,311.7,254.5,311.7,261.8z M287.3,261.8c0-9.9-2.2-17.7-6.6-23.2
		s-10.2-8.3-17.6-8.3c-4.8,0-9,1.2-12.6,3.7c-3.6,2.5-6.4,6.1-8.4,10.9s-2.9,10.4-2.9,16.9c0,6.4,1,11.9,2.9,16.7
		c1.9,4.8,4.7,8.4,8.3,10.9c3.6,2.5,7.8,3.8,12.7,3.8c7.4,0,13.3-2.8,17.6-8.3C285.1,279.3,287.3,271.6,287.3,261.8z"/>
	<path class="st1" d="M332,227.4l19.7,55.3l21.2-57.7c1.7-4.6,3.3-7.9,4.9-9.9c1.6-1.9,4-2.9,7.3-2.9c3.1,0,5.7,1,7.9,3.1
		c2.2,2.1,3.3,4.5,3.3,7.2c0,1.1-0.2,2.3-0.6,3.7c-0.4,1.4-0.8,2.8-1.3,4c-0.5,1.2-1.1,2.7-1.7,4.3l-23.4,58
		c-0.7,1.7-1.5,3.8-2.5,6.3c-1,2.6-2.2,4.7-3.5,6.6c-1.3,1.8-2.9,3.2-4.7,4.2s-4.1,1.5-6.8,1.5c-3.5,0-6.2-0.8-8.3-2.4
		c-2.1-1.6-3.6-3.3-4.5-5.2c-1-1.9-2.6-5.6-5-11.1l-23.2-57.4c-0.5-1.4-1.1-2.9-1.7-4.3c-0.6-1.4-1-2.9-1.4-4.4
		c-0.4-1.5-0.6-2.8-0.6-3.8c0-1.7,0.5-3.3,1.5-5c1-1.6,2.4-3,4.2-4c1.8-1,3.7-1.6,5.8-1.6c4,0,6.8,1.2,8.3,3.5
		C328.5,218.1,330.1,222,332,227.4z"/>
	<path class="st1" d="M412.4,200.9c-3.4,0-6.3-1-8.7-3.1c-2.4-2.1-3.6-5-3.6-8.8c0-3.4,1.2-6.3,3.7-8.5c2.5-2.2,5.3-3.3,8.6-3.3
		c3.2,0,5.9,1,8.4,3c2.4,2,3.7,5,3.7,8.8c0,3.7-1.2,6.7-3.6,8.8C418.5,199.9,415.7,200.9,412.4,200.9z M424.5,226.1v70.4
		c0,4.9-1.2,8.6-3.5,11.1c-2.3,2.5-5.3,3.7-8.8,3.7s-6.5-1.3-8.7-3.8c-2.2-2.6-3.3-6.2-3.3-11v-69.7c0-4.8,1.1-8.4,3.3-10.9
		c2.2-2.4,5.1-3.7,8.7-3.7s6.5,1.2,8.8,3.7C423.3,218.4,424.5,221.8,424.5,226.1z"/>
	<path class="st1" d="M435.9,296.5V190.8c0-4.9,1.1-8.6,3.3-11.1c2.2-2.5,5.1-3.7,8.8-3.7c3.7,0,6.7,1.2,8.9,3.7
		c2.3,2.5,3.4,6.2,3.4,11.1v105.6c0,4.9-1.1,8.6-3.4,11.1s-5.2,3.7-8.9,3.7c-3.6,0-6.5-1.3-8.7-3.8
		C437,304.9,435.9,301.3,435.9,296.5z"/>
	<path class="st1" d="M494.2,314.3l2.2-5.4l-30-75.5c-1.8-4.3-2.8-7.5-2.8-9.5c0-2.1,0.5-4,1.6-5.8c1.1-1.8,2.5-3.2,4.4-4.3
		c1.9-1.1,3.8-1.6,5.8-1.6c3.5,0,6.2,1.1,7.9,3.3s3.4,5.4,4.7,9.6l20.6,60l19.5-55.8c1.5-4.5,2.9-8.1,4.2-10.6
		c1.2-2.6,2.6-4.3,4-5.2c1.4-0.9,3.4-1.3,5.9-1.3c1.8,0,3.6,0.5,5.3,1.5s3,2.3,3.9,4c0.9,1.7,1.4,3.4,1.4,5.3
		c-0.2,1.1-0.6,2.7-1.2,4.8c-0.5,2.1-1.2,4.2-2,6.3l-31.8,83.2c-2.7,7.3-5.4,13.1-8,17.2c-2.6,4.2-6.1,7.4-10.4,9.6
		c-4.3,2.2-10.1,3.3-17.4,3.3c-7.1,0-12.5-0.8-16.1-2.3c-3.6-1.5-5.4-4.4-5.4-8.5c0-2.8,0.8-5,2.5-6.5s4.2-2.3,7.5-2.3
		c1.3,0,2.6,0.2,3.8,0.5c1.5,0.4,2.9,0.5,4,0.5c2.8,0,5-0.4,6.6-1.2s3-2.3,4.3-4.3C491.1,321.3,492.6,318.3,494.2,314.3z"/>
</g>
<g>
	<g>
		<path class="st2" d="M594.8,233.1c0.4,0,0.8,0,1.3,0c0.3,0.6,0.8,0.4,1.3,0.4c18.9,1.2,32.2,17.6,29.2,36.4
			c-0.9,5.7-3.4,10.6-7.3,14.9c-6.6-6.8-14.4-10.4-23.7-10.3c-9.3,0.1-17,3.9-23.3,10.7c-3.9-4.3-6.3-9-7.5-14.5
			c-0.2-0.8,0-1.8-0.8-2.5c0-2.5,0-5.1,0-7.6c0.7-0.3,0.5-1,0.6-1.5c2.8-13.7,12.8-23.1,26.6-25.4
			C592.2,233.6,593.6,234.1,594.8,233.1z"/>
		<path class="st3" d="M592.2,301.8c-1.5-0.9-3.2-0.8-4.8-1.3c-5.7-1.7-10.6-4.6-14.6-8.9c11.1-13.8,34-15,46.7-0.5
			c-3.8,4.3-8.5,7.2-13.9,9.1c-2,0.7-4.3,0.7-6.2,1.6c-0.6,0-1.1,0-1.7,0c-1-0.7-2-0.6-3,0C593.9,301.8,593.1,301.8,592.2,301.8z"/>
		<path class="st4" d="M594.8,301.8c1-0.6,2-0.7,3,0C596.8,301.8,595.8,301.8,594.8,301.8z"/>
	</g>
</g>
<circle class="st3" cx="412.5" cy="187.5" r="15.5"/>
</svg>
