<?xml version="1.0" encoding="UTF-8"?>
<svg width="425px" height="104px" viewBox="0 0 425 104" version="1.1" xmlns="http://www.w3.org/2000/svg" xmlns:xlink="http://www.w3.org/1999/xlink">
    <title>full-logo-dark</title>
    <g id="Style-Guide" stroke="none" stroke-width="1" fill="none" fill-rule="evenodd">
        <g id="solid-color" transform="translate(-76.000000, -318.000000)" fill-rule="nonzero">
            <g id="full-logo-dark" transform="translate(76.000000, 318.000000)">
                <g id="Brandmark">
                    <path d="M19.3934857,57.620003 L36.186716,86.7205191 L95.8938969,86.7205191 L86.3614197,103.456443 L26.6533502,103.456443 L0.26566416,57.620003 L19.3934857,57.620003 Z M86.2046178,-6.70752343e-12 L112.32289,45.6369994 L92.7608538,45.6443684 L76.225159,17.0515719 L16.6259386,17.0515719 L26.5044712,-6.70752343e-12 L86.2046178,-6.70752343e-12 Z" id="Combined-Shape" fill="#191C34"></path>
                    <path d="M112.73616,57.5488638 L102.96164,74.6516291 L42.9519599,74.821114 L33.216393,57.5488638 L112.73616,57.5488638 Z M69.6664354,29.258859 L79.0810119,45.7143814 L7.77689024e-12,45.7143814 L9.69034509,29.258859 L69.6664354,29.258859 Z" id="Combined-Shape" fill="#6A56F6"></path>
                </g>
                <g id="Group" transform="translate(145.052632, 6.907268)">
                    <path d="M69.8483822,0.00273182951 L69.8483822,15.0270078 L25.5951238,71.2467688 L69.8483822,71.2467688 L69.8483822,88.9027318 L-4.54747351e-13,88.9027318 L-4.54747351e-13,73.6333561 L44.5440199,17.422775 L-4.54747351e-13,17.422775 L-4.54747351e-13,0.00273182951 L69.8483822,0.00273182951 Z M166.059308,-7.07416348e-11 L196.348,70.796 L217.223677,44.458 L181.998677,-7.07416348e-11 L208.310212,-7.07416348e-11 L230.385677,27.853 L252.461066,-7.07416348e-11 L278.772601,-7.07416348e-11 L243.546677,44.458 L278.772601,88.9027318 L252.439168,88.9027318 L230.385677,61.068 L208.33211,88.9027318 L182.243312,88.9027318 L176.965716,75.28931 L136.93715,75.28931 L131.488194,88.8979542 L110.465551,88.8979542 L148.252284,-7.07416348e-11 L166.059308,-7.07416348e-11 Z M99.7079532,17.7323047 L99.7079532,88.8979524 L80.7934946,88.8979524 L80.7934946,41.664736 L99.7079532,17.7323047 Z M157.278836,24.487664 L144.577346,56.2080218 L169.571198,56.2080218 L157.278836,24.487664 Z" id="Combined-Shape" fill="#191C34"></path>
                    <polygon id="Accent-path" fill="#6A56F6" points="99.7314031 2.26059176e-12 99.7314031 17.7323047 80.7934946 17.7323047 80.7934946 2.26059176e-12"></polygon>
                </g>
            </g>
        </g>
    </g>
</svg>