<svg xmlns="http://www.w3.org/2000/svg" viewBox="-11.32000000000005 -5.860000000000014 562.64 294.32" enable-background="new 0 0 540.5 283.2"><g fill="#f42534"><path d="m0 221.8h5.8l2 8.5h14.3v7.6h-12.8v30.3c0 4.9 2.1 7.4 6.4 7.4h6.4v7.5h-8.9c-8.8.1-13.2-4.6-13.2-14.1v-47.2"/><path d="m94.6 283.2v-52.8h6.3l1.7 6.8c4.6-4.5 10.2-6.8 16.7-6.8v7.7c-6.3 0-11.4 2.2-15.4 6.7v38.4h-9.3"/><path d="m150.3 230.4c15 0 22.5 7.4 22.5 22.3 0 2.1-.2 4.4-.5 6.8h-37.1c0 10.8 6.3 16.2 18.9 16.2 6 0 11.3-.7 16-2v7.6c-4.7 1.3-10.3 2-17 2-18.2 0-27.2-9-27.2-27 .1-17.3 8.2-25.9 24.4-25.9m-15 21.3h28.6c-.2-9.3-4.7-13.9-13.6-13.9-9.4 0-14.4 4.6-15 13.9"/><path d="m182.9 267.3c0-10.8 7.1-16.3 21.4-16.3 4.6 0 9.2.3 13.8 1v-5c0-6.1-4.7-9.1-14.2-9.1-5.4 0-11 .8-16.7 2.5v-7.6c5.7-1.7 11.3-2.5 16.7-2.5 15.7 0 23.5 5.5 23.5 16.4v36.4h-5.2l-3.2-5.1c-5.3 3.5-11 5.2-17.2 5.2-12.6 0-18.9-5.3-18.9-15.9m21.4-8.8c-8.1 0-12.1 2.8-12.1 8.6 0 5.7 3.2 8.5 9.6 8.5 6.4 0 11.9-1.7 16.4-5.1v-11c-4.7-.6-9.3-1-13.9-1"/><path d="m242.5 221.8h5.8l2 8.5h14.3v7.6h-12.8v30.3c0 4.9 2.1 7.4 6.4 7.4h6.4v7.5h-8.9c-8.9 0-13.3-4.7-13.3-14.2v-47.1z"/><path d="m59.7 230.4c-6.4 0-11.9 1.9-16.4 5.7l-3.5-14.3h-5.8v.8 12.6 48h9.3v-38.4c4.8-4.5 9.9-6.7 15.2-6.7 7.8 0 11.7 3.9 11.7 11.8v33.3h9.3v-33.2c0-13.1-6.6-19.6-19.8-19.6"/><path d="m346.3 28.2c-7.6 0-13.8-6.2-13.8-13.8 0-7.6 6.2-13.8 13.8-13.8 7.6 0 13.8 6.2 13.8 13.8-.1 7.7-6.2 13.8-13.8 13.8"/><path d="m270.3 29c-8 0-14.5-6.5-14.5-14.5 0-8 6.5-14.5 14.5-14.5 8 0 14.5 6.5 14.5 14.5-.1 8-6.5 14.5-14.5 14.5"/><path d="m270.3 66.2c-7.6 0-13.8-6.2-13.8-13.8 0-7.6 6.2-13.8 13.8-13.8 7.6 0 13.8 6.2 13.8 13.8-.1 7.7-6.2 13.8-13.8 13.8"/><path d="m270.3 103.5c-7.2 0-13-5.8-13-13 0-7.2 5.8-13 13-13 7.2 0 13 5.8 13 13 0 7.2-5.8 13-13 13"/><path d="m270.3 178.1c-6.4 0-11.6-5.2-11.6-11.6 0-6.4 5.2-11.6 11.6-11.6 6.4 0 11.6 5.2 11.6 11.6-.1 6.4-5.2 11.6-11.6 11.6"/><path d="m194.3 28.2c-7.6 0-13.8-6.2-13.8-13.8 0-7.6 6.2-13.8 13.8-13.8 7.6 0 13.8 6.2 13.8 13.8-.1 7.7-6.2 13.8-13.8 13.8"/><path d="m270.3 140.8c-6.8 0-12.3-5.5-12.3-12.3 0-6.8 5.5-12.3 12.3-12.3 6.8 0 12.3 5.5 12.3 12.3 0 6.8-5.5 12.3-12.3 12.3"/></g><g fill="#5c6670"><path d="m346.3 64.2c-6.5 0-11.7-5.3-11.7-11.7 0-6.5 5.3-11.7 11.7-11.7 6.5 0 11.7 5.3 11.7 11.7 0 6.5-5.3 11.7-11.7 11.7"/><path d="m346.3 100.6c-5.6 0-10.1-4.5-10.1-10.1 0-5.6 4.5-10.1 10.1-10.1 5.6 0 10.1 4.5 10.1 10.1 0 5.6-4.6 10.1-10.1 10.1"/><path d="m346.3 137.2c-4.8 0-8.7-3.9-8.7-8.7 0-4.8 3.9-8.7 8.7-8.7 4.8 0 8.7 3.9 8.7 8.7-.1 4.8-3.9 8.7-8.7 8.7"/><path d="m308.2 45.3c-6.8 0-12.4-5.5-12.4-12.4 0-6.8 5.5-12.4 12.4-12.4 6.8 0 12.4 5.5 12.4 12.4 0 6.9-5.5 12.4-12.4 12.4"/><path d="m308.2 82.7c-6.5 0-11.7-5.3-11.7-11.7s5.3-11.7 11.7-11.7c6.5 0 11.7 5.3 11.7 11.7s-5.2 11.7-11.7 11.7"/><path d="m308.2 119.1c-5.6 0-10.1-4.5-10.1-10.1 0-5.6 4.5-10.1 10.1-10.1 5.6 0 10.1 4.5 10.1 10.1.1 5.5-4.4 10.1-10.1 10.1"/><path d="m308.2 155.6c-4.8 0-8.7-3.9-8.7-8.7 0-4.8 3.9-8.7 8.7-8.7 4.8 0 8.7 3.9 8.7 8.7 0 4.8-3.8 8.7-8.7 8.7"/><path d="m232.3 45.3c-6.8 0-12.4-5.5-12.4-12.4 0-6.8 5.5-12.4 12.4-12.4 6.8 0 12.4 5.5 12.4 12.4-.1 6.9-5.6 12.4-12.4 12.4"/><path d="m232.3 82.7c-6.5 0-11.7-5.3-11.7-11.7s5.3-11.7 11.7-11.7c6.5 0 11.7 5.3 11.7 11.7s-5.3 11.7-11.7 11.7"/><path d="m232.3 119.1c-5.6 0-10.1-4.5-10.1-10.1 0-5.6 4.5-10.1 10.1-10.1 5.6 0 10.1 4.5 10.1 10.1 0 5.5-4.5 10.1-10.1 10.1"/><path d="m232.3 155.6c-4.8 0-8.7-3.9-8.7-8.7 0-4.8 3.9-8.7 8.7-8.7 4.8 0 8.7 3.9 8.7 8.7-.1 4.8-3.9 8.7-8.7 8.7"/><path d="m194.3 64.2c-6.5 0-11.7-5.3-11.7-11.7 0-6.5 5.3-11.7 11.7-11.7 6.5 0 11.7 5.3 11.7 11.7 0 6.5-5.3 11.7-11.7 11.7"/><path d="m194.3 100.6c-5.6 0-10.1-4.5-10.1-10.1 0-5.6 4.5-10.1 10.1-10.1 5.6 0 10.1 4.5 10.1 10.1 0 5.6-4.5 10.1-10.1 10.1"/><path d="m194.3 137.2c-4.8 0-8.7-3.9-8.7-8.7 0-4.8 3.9-8.7 8.7-8.7 4.8 0 8.7 3.9 8.7 8.7-.1 4.8-3.9 8.7-8.7 8.7"/><path d="m299.5 280.7v-8c6.2 2 12.5 3 18.8 3 8.4 0 12.6-2.5 12.6-7.6 0-4.7-2.9-7-8.8-7h-7.6c-11.4 0-17.1-5.2-17.1-15.6 0-10.1 7.3-15.1 22-15.1 6.3 0 12.6.8 18.8 2.5v8c-6.2-2-12.5-3-18.8-3-8.8 0-13.2 2.5-13.2 7.6 0 4.7 2.8 7 8.3 7h7.6c12.1 0 18.1 5.2 18.1 15.6 0 10.1-7.3 15.1-21.9 15.1-6.3 0-12.6-.8-18.8-2.5"/><path d="m352.9 221.8h5.8l2 8.5h14.3v7.5h-12.8v30.3c0 4.9 2.1 7.4 6.4 7.4h6.4v7.6h-8.8c-8.9 0-13.3-4.7-13.3-14.2v-47.1"/><path d="m384.3 267.3c0-10.8 7.1-16.3 21.4-16.3 4.6 0 9.2.3 13.8 1v-5c0-6.1-4.7-9.1-14.2-9.1-5.4 0-11 .8-16.7 2.5v-7.6c5.7-1.7 11.3-2.5 16.7-2.5 15.7 0 23.5 5.5 23.5 16.4v36.4h-5.2l-3.2-5.2c-5.3 3.5-11 5.2-17.2 5.2-12.6.1-18.9-5.2-18.9-15.8m21.4-8.8c-8.1 0-12.1 2.9-12.1 8.6 0 5.7 3.2 8.5 9.6 8.5 6.4 0 11.9-1.7 16.3-5.1v-11c-4.6-.6-9.2-1-13.8-1"/><path d="m483.7 281.7c-4.4 1-9.1 1.5-14.1 1.5-18.8 0-28.2-9.1-28.2-27.4 0-16.9 9.4-25.4 28.2-25.4 5 0 9.7.5 14.1 1.5v7.5c-4.4-1-9.2-1.5-14.6-1.5-12.2 0-18.4 6-18.4 17.9 0 13.2 6.1 19.9 18.4 19.9 5.4 0 10.2-.5 14.6-1.5v7.5"/><path d="m495.5 221.8h9.3v61.4h-9.3z"/><path d="m540.5 230.4h-11.7l-19.8 26.4.1.1h-.1l19.8 26.3h11.7l-20-26.4z"/></g></svg>