<svg xmlns="http://www.w3.org/2000/svg" role="img" viewBox="-1.52 52.73 404.30 140.80"><title>99Cloud (KTP) logo</title><style>.st0{fill:#212427}.st1{fill:#238cc1}.st2{fill:#0986bd}.st3{fill:#c9171e}</style><style>.st0{fill:#212427}.st1{fill:#238cc1}.st2{fill:#0986bd}.st3{fill:#c9171e}</style><style>.st0{fill:#212427}.st1{fill:#238cc1}.st2{fill:#0986bd}.st3{fill:#c9171e}</style><style>.st0{fill:#212427}.st1{fill:#238cc1}.st2{fill:#0986bd}.st3{fill:#c9171e}</style><style>.st0{fill:#212427}.st1{fill:#238cc1}.st2{fill:#0986bd}.st3{fill:#c9171e}</style><style>.st0{fill:#212427}.st1{fill:#238cc1}.st2{fill:#0986bd}.st3{fill:#c9171e}</style><style>.st0{fill:#212427}.st1{fill:#238cc1}.st2{fill:#0986bd}.st3{fill:#c9171e}</style><style>.st0{fill:#212427}.st1{fill:#238cc1}.st2{fill:#0986bd}.st3{fill:#c9171e}</style><style>.st0{fill:#212427}.st1{fill:#238cc1}.st2{fill:#0986bd}.st3{fill:#c9171e}</style><style>.st0{fill:#212427}.st1{fill:#238cc1}.st2{fill:#0986bd}.st3{fill:#c9171e}</style><style>.st0{fill:#212427}.st1{fill:#238cc1}.st2{fill:#0986bd}.st3{fill:#c9171e}</style><style>.st0{fill:#212427}.st1{fill:#238cc1}.st2{fill:#0986bd}.st3{fill:#c9171e}</style><style>.st0{fill:#212427}.st1{fill:#238cc1}.st2{fill:#0986bd}.st3{fill:#c9171e}</style><style>.st0{fill:#212427}.st1{fill:#238cc1}.st2{fill:#0986bd}.st3{fill:#c9171e}</style><style>.st0{fill:#212427}.st1{fill:#238cc1}.st2{fill:#0986bd}.st3{fill:#c9171e}</style><style>.st0{fill:#212427}.st1{fill:#238cc1}.st2{fill:#0986bd}.st3{fill:#c9171e}</style><style>.st0{fill:#212427}.st1{fill:#238cc1}.st2{fill:#0986bd}.st3{fill:#c9171e}</style><style>.st0{fill:#212427}.st1{fill:#238cc1}.st2{fill:#0986bd}.st3{fill:#c9171e}</style><style>.st0{fill:#212427}.st1{fill:#238cc1}.st2{fill:#0986bd}.st3{fill:#c9171e}</style><style>.st0{fill:#212427}.st1{fill:#238cc1}.st2{fill:#0986bd}.st3{fill:#c9171e}</style><style>.st0{fill:#212427}.st1{fill:#238cc1}.st2{fill:#0986bd}.st3{fill:#c9171e}</style><path d="M278 128.8v-26.5c-.1-4-3.3-7.2-7.2-7.2h-13.3c.2-1.2.4-2.4.5-3.4l.3-2-5.4-.7-.3 1.9c-.1.8-.3 1.6-.4 2.3v.1l-.3 1.8h-13v5.5h12c-2.8 14.1-6.5 23.3-12.3 30.6l-1.2 1.5 4.1 3.6 1.3-1.6c6.6-8.3 10.7-18.5 13.6-34h14.3c1 0 1.8.8 1.8 1.8V129c0 3.5 2.8 6.3 6.3 6.3h6.5v-5.5h-6.5c-.4-.1-.8-.5-.8-1zm21.1-16.8c0 10-1.6 14.5-6.9 19.1l-1.4 1.3 3.5 4.2 1.5-1.3c6.8-6 8.8-11.4 8.8-23.2V88.4h-5.5V112z" class="st0"/><path d="M291.6 96.7h5.1v22.9h-5.1zm15.6 0h5.1v22.9h-5.1zm16.4 0h5.1v22.9h-5.1zm7.9-8.7h5.5v48.2h-5.5zm-16.4 1.3h5.5v45.1h-5.5zm29.8 1.5h43.5v5.5h-43.5zm45.2 19v-5.5h-47v5.5h9.4l-4.8 16.8c-.6 2-.1 4.2 1.2 5.8 1.2 1.4 3 2.2 4.8 2.3H379c4 0 7.2-3.3 7.2-7.2v-12.1h-5.5v12.1c0 1-.8 1.8-1.7 1.8h-25.4c-.3 0-.5-.1-.6-.3-.2-.2-.3-.5-.2-.8l5.3-18.3h32zm-201.7 37.9c-10.7 0-16.1 6.4-16.1 19.1 0 6.2 1.3 10.7 3.9 13.8 2.6 3.1 6.7 4.6 12 4.6 2.1 0 4.2-.2 6.2-.6l.5-.1-.2-2.9-.6.1c-1.9.3-3.9.5-5.8.5-9.3 0-13.2-4.6-13.2-15.5 0-11.1 4.2-16.2 13.3-16.2 2 0 4 .2 5.9.6l.7.1.2-2.9-.5-.1c-2-.2-4.1-.5-6.3-.5zm40.1-.9h2.9v39h-2.9zm49.1 10.8h-.7c-4.7 0-8.2 1.9-9.8 5.3-2 4.7-2 13.2 0 17.7 1.4 3.2 4.3 5 8.8 5.2h.7c4.7 0 8.3-2 9.7-5.4 2.3-5.1 1.8-13.1 0-17.6-1.2-3.3-4.3-5.1-8.7-5.2zm-1.4 25.2c-3.3-.2-5.4-1.3-6.3-3.5-1.7-4.3-1.7-11.3 0-15.3 1.3-2.7 4.5-3.6 7.2-3.6h.5c3.3.2 5.3 1.3 6.2 3.5 1.7 4.4 1.7 11.2 0 15.3-1.1 2.3-3.8 3.7-7.1 3.7-.2-.1-.3-.1-.5-.1zm62.7-3l-.3.1c-2.3 1-6.1 2.6-9.5 2.6-3.3 0-4.8-1.8-4.8-5.7v-19.6h-2.9v19.6c0 5.6 2.6 8.5 7.6 8.5 3.5 0 7.2-1.4 9.8-2.4v3.1h2.9v-28.8h-2.9v22.6zm53.4-32.7v10.7c-.4 0-.8-.1-1.2-.1-.2 0-.5-.1-.7-.1-.3 0-.6-.1-.9-.1-1.3-.2-2.5-.3-3.8-.3-2.2-.1-4.4.5-6.3 1.7-2.7 2.1-4.4 6.7-4.4 12.3 0 4.3 1.2 9.7 3.8 11.8 2.4 1.5 5.2 2.3 8 2.2 1.8 0 3.7-.2 5.5-.4v.3h2.9v-38h-2.9zm-11.2 14.1c1.4-.9 3-1.3 4.6-1.2 1.2 0 2.3.1 3.5.3.3 0 .6.1.8.1.8.1 1.5.2 2.3.3v21.2c-1.8.3-3.7.5-5.5.5-2.8 0-4.8-.5-6.3-1.6-1.6-1.2-2.7-4.9-2.7-9.5.1-3 .5-8 3.3-10.1z" class="st0"/><path d="M83.7 162.3H67.4l4-16.3h16.3z" class="st1"/><path d="M57.3 122.9c-2.3 0-4.5 1.3-5.5 3.4l-.6 2.4-2.6 10.4h16.3l4-16.3-11.6.1z" class="st2"/><path d="M73.3 185.4c2.3 0 4.5-1.3 5.5-3.4l.6-2.4 2.6-10.4H65.7l-4 16.3 11.6-.1zM46.5 146l-2.9 11.9c-.1.3-.2.6-.2 1v.3c0 1.7 1.4 3.1 3.2 3.1h12.3l4-16.3H46.5zm43.3-6.9l2.9-11.9c.1-.3.2-.6.2-1v-.3c0-1.7-1.4-3.1-3.2-3.1H77.6l-4 16.3h16.2z" class="st1"/><path d="M137 154.5h-16.2l4-16.3h16.3z" class="st2"/><path d="M110.7 115.1c-2.3 0-4.5 1.3-5.5 3.4l-.6 2.4-2.6 10.4h16.3l4-16.3-11.6.1z" class="st3"/><path d="M126.7 177.6c2.3 0 4.5-1.3 5.5-3.4l.6-2.4 2.6-10.4h-16.3l-4 16.3 11.6-.1z" class="st2"/><path d="M99.8 138.2l-2.9 11.9c-.1.3-.2.6-.2 1v.3c0 1.7 1.4 3.1 3.2 3.1h12.3l4-16.3H99.8z" class="st3"/><path d="M143.2 131.4l2.9-11.9c.1-.3.2-.6.2-1v-.3c0-1.7-1.4-3.1-3.2-3.1h-12.3l-4 16.3h16.4z" class="st2"/><path d="M129.1 89.3c-1.6 0-3.2.1-4.8.4-9.4-23.7-36.2-35.3-59.9-26-19.8 7.8-31.6 28.1-28.8 49.1-11 .3-21 6.7-26 16.5-2.1 3.9-3.2 8.2-3.2 12.6v.5c.1 5.4 1.8 10.6 5 14.9-2.8-15.7 7.7-30.7 23.5-33.5 1.1-.2 2.3-.3 3.5-.4H40c1.4 0 2.7.1 4.1.3-.3-1.9-.5-3.8-.6-5.7v-1.2c0-1.1.1-2.1.1-3.1 1.7-22.9 21.7-40.1 44.6-38.3 14.6 1.1 27.5 9.8 34 22.8l.1.1c.1 0 .3 0 .4-.1 1.3-.2 2.6-.4 3.9-.5h1.8c.7 0 1.3 0 2 .1 12.2.7 23.2 8 28.5 19-1.2-15.6-14.2-27.5-29.8-27.5z" class="st2"/></svg>