<svg xmlns="http://www.w3.org/2000/svg" role="img" viewBox="-3.67 -3.67 140.85 191.10"><title>Adobe (supporter) logo</title><style>svg {enable-background:new 0 0 133.7 184}</style><style>.st0{fill:#eb1000}</style><g id="Layer_1"><path d="M84.3 0h49.4v118.2zM49.5 0H.1v118.2zm17.4 43.6l31.5 74.6H77.8l-9.5-23.7h-23z" class="st0"/><path d="M9.4 172.7L7.3 183c-.1.4-.2.5-.5.5H.5c-.4 0-.5-.1-.5-.7l8.6-37.2c.3-1.1.3-1.7.3-3.6 0-.3.1-.4.4-.4h9c.3 0 .5.1.5.5L28.9 183c.1.4-.1.5-.4.5h-7c-.3 0-.5-.2-.5-.5l-2.3-10.3H9.4zm7.9-7.1c-.9-4.8-2.6-12.1-3.3-16.7h-.1c-.7 4.5-1.9 10.9-3 16.7h6.4zm12.7 1.8c0-9.5 5.6-16.9 14.5-16.9h1v-11.2c0-.2.1-.3.4-.3h7c.3 0 .3.1.3.3v37.5c0 1-.1 2.3.2 4.4 0 .2 0 .3-.3.5-2.7 1.4-6.1 2.3-9.4 2.3-8.2 0-13.7-5.4-13.7-16.6zm15.5-9.9c-.3-.1-.7-.2-1.4-.2-3.6 0-6.4 3.3-6.4 9.8 0 6.9 2.7 9.8 6.3 9.8.5 0 1.1-.1 1.5-.2v-19.2zm35.6 9.7c0 10.3-4.3 16.8-11.8 16.8-8.5 0-11.8-7.4-11.8-16.9 0-9.6 4.3-16.5 12-16.5 7.2 0 11.6 6.1 11.6 16.6zm-16.1 0c0 6.1 1.3 10 4.2 10 2.8 0 4.2-3.4 4.2-10 0-6.1-1-9.9-4.1-9.9-2.7 0-4.3 3.1-4.3 9.9zM92.5 139c.3 0 .3.1.3.4V151c.9-.2 2-.4 3.5-.4 6.8 0 11.9 5.2 11.9 15.3 0 11.8-6.7 18.1-15.1 18.1-2.4 0-4.9-.3-7.5-1.2-.2-.1-.4-.3-.4-.5v-42.8c0-.3.1-.4.4-.4h6.9zm2.7 18.5c-.5 0-1.6.1-2.3.3V177c.5.1 1 .1 1.4.1 2.9 0 6.4-3 6.4-11.1 0-6.3-2.5-8.5-5.5-8.5zm23.6 11.5c0 5 1.9 8.1 7.2 8.1 1.8 0 3.2-.3 4.9-.9.3-.1.5-.1.5.3v5.4c0 .5-.1.7-.5.8-1.8 1-4.3 1.2-6.4 1.2-9.6 0-13.3-7-13.3-16.2 0-9.8 4.3-17.2 11.9-17.2 8 0 10.3 7.1 10.3 12.9 0 2.1-.2 4.1-.3 4.9-.1.3-.3.5-.6.5-.7.1-2.7.2-6.2.2h-7.5zm5.5-6.1c1.2 0 1.8 0 2-.1.1-.3.1-.5.1-.7 0-2.5-.8-5.1-3.4-5.1-2.6 0-3.6 2.7-4 5.9h5.3z" class="st0"/></g></svg>