<svg xmlns="http://www.w3.org/2000/svg" role="img" viewBox="126.64 433.64 1110.72 497.72"><title>Aembit (member) logo</title><style>svg {isolation:isolate}</style><defs><clipPath id="_clipPath_G7MS5Hsp4BikFjALVlMyFfrWUpBxXe4v"><path d="M0 0h1365.333v1365.333H0z"/></clipPath></defs><g clip-path="url(#_clipPath_G7MS5Hsp4BikFjALVlMyFfrWUpBxXe4v)"><linearGradient id="_lgradient_0" x1="-.033" x2="1.001" y1=".191" y2=".788" gradientTransform="matrix(229.45 0 0 -229.752 148.62 910.452)" gradientUnits="userSpaceOnUse"><stop offset="0%" stop-color="#fff33b"/><stop offset="13.313%" stop-color="#fdc70c"/><stop offset="28.09%" stop-color="#fdc70c"/><stop offset="66.854%" stop-color="#f3903f"/><stop offset="88.764%" stop-color="#ed683c"/><stop offset="100%" stop-color="#e93e3a"/><stop offset="100%" stop-color="#e93e3a"/></linearGradient><path fill="url(#_lgradient_0)" d="M323.305 684.893L161.156 845.48s-28.205 24.072 0 52.207c0 0 25.669 26.894 51.684 2.609l165.231-164.187s-17.451-55.404-42.762-55.409c-3.833-.001-7.842 1.268-12.004 4.193"/><linearGradient id="_lgradient_1" x1=".198" x2=".771" y1="1.021" y2=".029" gradientTransform="matrix(187.857 0 0 -220.191 228.193 755.687)" gradientUnits="userSpaceOnUse"><stop offset="0%" stop-color="#fff33b"/><stop offset="13.313%" stop-color="#fdc70c"/><stop offset="28.09%" stop-color="#fdc70c"/><stop offset="66.854%" stop-color="#f3903f"/><stop offset="88.764%" stop-color="#ed683c"/><stop offset="100%" stop-color="#e93e3a"/><stop offset="100%" stop-color="#e93e3a"/></linearGradient><path fill="url(#_lgradient_1)" d="M240.509 546.865s-29.054 26.703 2.088 56.904l100.756 101.279s31.324 31.323 15.14 50.639l49.596-49.595s23.1-25.392-9.397-54.816L292.193 546.865s-11.257-11.368-26.569-11.369c-7.657 0-16.327 2.841-25.115 11.369z"/><linearGradient id="_lgradient_2" x1="1.033" x2="0" y1=".81" y2=".21" gradientTransform="matrix(229.146 0 0 -230.077 485.388 684.959)" gradientUnits="userSpaceOnUse"><stop offset="0%" stop-color="#fff33b"/><stop offset="13.313%" stop-color="#fdc70c"/><stop offset="28.09%" stop-color="#fdc70c"/><stop offset="66.854%" stop-color="#f3903f"/><stop offset="88.764%" stop-color="#ed683c"/><stop offset="100%" stop-color="#e93e3a"/><stop offset="100%" stop-color="#e93e3a"/></linearGradient><path fill="url(#_lgradient_2)" d="M650.251 465.089L485.388 629.644s23.295 73.405 54.88 51.093l161.788-160.946s28.153-24.136-.116-52.207c0 0-12.18-12.701-28.231-12.703-7.281-.001-15.357 2.611-23.458 10.208"/><g><linearGradient id="_lgradient_3" x1=".803" x2=".227" y1="-.021" y2=".97" gradientTransform="matrix(188.102 0 0 -219.983 447.523 830.007)" gradientUnits="userSpaceOnUse"><stop offset="0%" stop-color="#fff33b"/><stop offset="13.313%" stop-color="#fdc70c"/><stop offset="28.09%" stop-color="#fdc70c"/><stop offset="66.854%" stop-color="#f3903f"/><stop offset="88.764%" stop-color="#ed683c"/><stop offset="100%" stop-color="#e93e3a"/><stop offset="100%" stop-color="#e93e3a"/></linearGradient><path fill="url(#_lgradient_3)" d="M455.436 659.729s-23.044 25.443 9.52 54.795l106.732 104.173s25.38 25.523 51.683-.114c0 0 28.994-26.771-2.215-56.9L520.173 660.629s-31.393-31.253-15.253-50.605l-49.484 49.705z"/></g><g><clipPath id="_clipPath_dnQRxFbzvdTLVYTWYXSkNZdgd5ml4Y78"><path fill="#FFF" d="M0 0h1365.333v1365.333H0V0z"/></clipPath><g clip-path="url(#_clipPath_dnQRxFbzvdTLVYTWYXSkNZdgd5ml4Y78)"><path fill="#E93E3A" d="M729.168 707.277c0 6.842 2.285 12.478 6.856 16.91s10.301 6.648 17.189 6.648c7.006 0 12.616-2.172 16.832-6.515 4.216-4.341 6.324-10.023 6.324-17.043 0-6.9-2.108-12.55-6.324-16.953-4.216-4.401-9.766-6.603-16.653-6.603-6.888 0-12.647 2.202-17.279 6.603-4.632 4.403-6.945 10.053-6.945 16.953zm47.201 22.13c-6.484 7.556-14.633 11.332-24.449 11.332-9.339 0-17.251-3.242-23.733-9.726-6.486-6.484-9.727-14.396-9.727-23.736 0-9.28 3.256-17.176 9.771-23.69 6.514-6.514 14.409-9.771 23.689-9.771 9.577 0 17.727 3.54 24.449 10.619v-11.511c0-12.313-6.513-18.471-19.541-18.471-8.029 0-17.52 2.38-28.464 7.139l4.016-11.868c8.923-3.092 17.428-4.64 25.52-4.64 19.152 0 28.731 9.637 28.731 28.911v64.513l-10.262 2.231v-11.332z"/><path fill="#E93E3A" d="M811.704 700.853l60.14-35.78c-5.108-6.306-12.77-9.46-22.988-9.46-10.453 0-19.302 3.562-26.55 10.686-7.484 7.363-11.108 16.208-10.87 26.539v4.364l.268 3.651zm73.256 26.858c-11.54 8.686-23.586 13.027-36.136 13.027-13.802 0-25.297-4.52-34.486-13.563-9.192-9.041-13.787-20.433-13.787-34.174 0-13.682 4.612-25.014 13.836-33.996 9.224-8.983 20.709-13.475 34.456-13.475 17.852 0 30.529 7.308 38.027 21.919l-71.516 42.134c7.138 13.691 18.293 20.536 33.465 20.536 11.065 0 23.112-5.174 36.141-15.524v13.116z"/><path fill="#E93E3A" d="M898.703 739.757v-92.263l10.083-1.249v15.525c6.006-11.123 14.664-16.685 25.965-16.685 12.729 0 21.563 6.277 26.501 18.828 6.603-12.551 15.852-18.828 27.751-18.828 9.815 0 17.189 3.54 22.128 10.617 4.283 6.128 6.425 14.308 6.425 24.539v58.266l-10.084 1.25v-54.43c0-20.938-6.75-31.409-20.254-31.409-7.376 0-13.326 2.827-17.846 8.477-4.104 5.235-6.157 11.659-6.157 19.274v56.838l-10.172 1.25v-54.43c0-20.938-6.723-31.409-20.165-31.409-7.316 0-13.266 2.856-17.847 8.565-4.164 5.236-6.245 11.631-6.245 19.186v56.838l-10.083 1.25z"/><path fill="#E93E3A" d="M1044.771 693.001c0 10.648 3.614 19.586 10.841 26.812 7.228 7.228 16.165 10.843 26.813 10.843 10.41 0 19.288-3.673 26.636-11.02 7.346-7.345 11.019-16.224 11.019-26.635 0-10.409-3.673-19.288-11.019-26.636-7.348-7.345-16.226-11.02-26.636-11.02-10.469 0-19.362 3.659-26.68 10.976-7.316 7.316-10.974 16.211-10.974 26.68zm-10.26-1.428v-80.842l10.26-1.248v56.125c9.517-13.385 22.069-20.077 37.654-20.077 13.682 0 25.132 4.505 34.354 13.518 9.22 9.011 13.83 20.331 13.83 33.952 0 13.623-4.61 24.984-13.83 34.084-9.222 9.103-20.672 13.654-34.354 13.654-14.276 0-25.876-4.64-34.798-13.92-8.746-9.102-13.116-20.848-13.116-35.246z"/><path fill="#E93E3A" d="M1146.224 740.025v-92.53l10.44-1.25v92.35l-10.44 1.43zm-2.615-121.142l7.7-9.401 7.811 8.347-7.816 9.402-7.695-8.348z"/><path fill="#E93E3A" d="M1216.09 738.508l-5.175.892-4.55.357c-.835.058-1.636.09-2.411.09-7.436 0-13.087-2.588-16.952-7.763-3.868-5.176-5.8-14.545-5.8-28.107v-46.58h-13.205l2.944-9.904h10.261V625.9l10.172-6.156v27.749h23.824v9.904h-23.824v47.828c0 9.875 1.16 16.39 3.48 19.542 2.497 3.569 6.513 5.174 12.045 4.818l4.106-.268c.653-.058 1.456-.148 2.408-.268 1.19-.296 2.082-.505 2.677-.624v10.083z"/></g></g></g></svg>