<svg xmlns="http://www.w3.org/2000/svg" role="img" viewBox="2.10 1.60 592.80 352.30"><title>Aeraki Mesh logo</title><defs><clipPath id="clippath"><path d="M291.94672 64.54864c-16.1855 0-32.37285-.133-48.55523.09175-4.14311.05755-5.23933-1.22932-5.19686-5.27445.11839-11.27395-.06464-11.27587 11.40719-11.27586 30.22594.00005 60.45276.11462 90.67691-.11824 4.75695-.03665 5.80999 1.43732 5.70872 5.88335-.24344 10.68942-.03143 10.6943-10.7494 10.69433-14.43045.00004-28.86089 0-43.29134-.00088z" class="cls-1"/></clipPath><clipPath id="clippath-1"><path d="M291.44307 196.61219c-15.99552 0-31.99287-.13156-47.98528.09144-4.05549.05655-5.30988-1.03459-5.26861-5.17749.11303-11.34642-.08349-11.3484 11.30087-11.34838 30.2354.00004 60.47153.10227 90.70547-.10857 4.60853-.03213 5.92524 1.19207 5.8034 5.79967-.28394 10.73719-.04295 10.74358-10.66574 10.7436-14.63004.00002-29.26008 0-43.89011-.00027z" class="cls-1"/></clipPath><clipPath id="clippath-2"><path d="M234.54614 64.9587c0 13.62736-.08222 27.25559.06136 40.88144.03334 3.16414-.7136 4.33969-4.15532 4.42097-12.40356.29288-12.40015.43851-12.40013-11.91945.00006-24.1399-.00928-48.2798.00609-72.41969.00451-7.08767 2.57833-10.61305 7.78481-10.80599 5.39286-.19984 8.66473 3.74842 8.69026 10.71284.0478 13.04314.01375 26.08657.01293 39.12988z" class="cls-1"/></clipPath><clipPath id="clippath-3"><path d="M218.05234 179.75008c0-13.24668.16323-26.49653-.09524-39.73817-.08208-4.20526.82102-5.72155 5.38598-5.6184 11.1985.25304 11.20426-.00122 11.20426 11.36364 0 23.7661.00238 47.53218-.00495 71.29828-.00054 1.75133.21661 3.5681-.16409 5.24145-1.07092 4.70714-3.85176 7.75994-9.02179 7.2308-4.77736-.48896-7.24876-3.52941-7.27158-8.28445-.06637-13.83077-.02354-27.66206-.0326-41.49315z" class="cls-1"/></clipPath><clipPath id="clippath-4"><path d="M366.07569 179.62903c0 13.42802.04974 26.85631-.02152 40.28395-.03436 6.4714-2.97328 9.83185-8.18075 9.7217-5.01489-.10605-7.70315-3.29908-7.71324-9.56157-.04329-26.85597.07562-53.7127-.11554-80.56736-.03036-4.26436 1.41679-5.13017 5.34334-5.08067 10.68927.13473 10.69153-.04114 10.69161 10.75817.00007 11.48192.00002 22.96385-.00389 34.44577z" class="cls-1"/></clipPath><clipPath id="clippath-5"><path d="M350.14162 64.48942c0-13.2638-.0407-26.52777.01768-39.79131.02802-6.36683 2.58899-9.4272 7.72971-9.57662 5.16577-.15015 8.12978 2.95427 8.14732 9.14026.07689 27.11254-.01854 54.22566.10743 81.33784.01645 3.5429-1.02323 4.62401-4.61551 4.65977-11.3903.11342-11.38878.26944-11.38882-11.24506-.00004-11.5083 0-23.01658.0022-34.52488z" class="cls-1"/></clipPath><clipPath id="clippath-6"><path d="M300.22699 30.19145c.00002 13.02788.00656 12.92925-12.86893 12.07481-2.83548-.18817-3.6754-1.14636-3.60089-3.84389.15063-5.45345-.09622-10.91878.08898-16.37011.19379-5.70385 3.66524-9.21417 8.53946-9.0465 4.80219.16519 7.66766 3.41975 7.82328 8.99971.07604 2.72666.01315 5.4572.0181 8.18598z" class="cls-1"/></clipPath><clipPath id="clippath-7"><path d="M300.21384 214.79009c0 2.90582.05641 5.81296-.01273 8.71713-.11368 4.77401-2.59594 7.66152-7.32454 8.12363-5.1654.50479-8.36775-2.50307-8.82107-7.23401-.6071-6.33582-.18171-12.76844-.25429-19.15887-.0227-1.99791.92248-2.76351 2.8263-2.74407 3.48647.03561 6.97789.10705 10.45914-.03495 2.7324-.11147 3.21591 1.36404 3.15358 3.61418-.08042 2.90362-.0196 5.81114-.0264 8.71697z" class="cls-1"/></clipPath><clipPath id="clippath-8"><path d="M384.54418 64.54952h-.58166c-12.8172-.00002-12.74534.00589-11.66528-13.10802.20105-2.44107.88641-3.43964 3.40937-3.38455 5.81389.12692 11.64236-.15927 17.44575.12029 5.1609.2486 8.70858 4.02915 8.56944 8.4674-.1412 4.50449-3.75956 7.70741-9.03494 7.88303-2.71139.09026-5.42828.01584-8.14269.02184z" class="cls-1"/></clipPath><clipPath id="clippath-9"><path d="M384.32963 196.61246c-12.74427 0-12.60728.00584-12.06485-12.72572.13904-3.26345 1.40877-3.82832 4.19803-3.75074 5.42873.15101 10.86674-.04799 16.29685.0756 5.20119.11834 8.87921 3.50941 8.95312 7.981.07401 4.47756-3.55131 8.0885-8.6535 8.38722-2.90053.16983-5.81917.0307-8.72965.03263z" class="cls-1"/></clipPath><clipPath id="clippath-10"><path d="M199.82741 196.59069c-3.10567 0-6.25113.31443-9.30787-.07233-4.80924-.60846-7.98724-3.39274-7.73419-8.49911.24604-4.96493 3.2023-7.72649 8.31583-7.81588 3.10484-.0543 6.21122-.02438 9.3169-.02483 12.40034-.00184 12.87005.63283 11.33216 13.48162-.26645 2.22618-1.00512 3.05302-3.18901 2.97017-2.90743-.11032-5.8222-.02724-8.73381-.03963z" class="cls-1"/></clipPath><clipPath id="clippath-11"><path d="M199.39631 64.51706c-2.90784 0-5.81924.09152-8.72272-.02113-4.51849-.17532-7.28376-2.6387-7.83336-7.06032-.59441-4.78212 1.90484-8.34831 6.44512-8.8464 6.70221-.73527 13.52664-.36125 20.29918-.44682 1.4713-.01859 2.03906.90952 2.05124 2.21451.03619 3.87641-.00882 7.75371.04281 11.62979.0282 2.11711-1.19576 2.57362-2.97697 2.55282-3.10137-.03624-6.20347-.01009-9.30529-.02245z" class="cls-1"/></clipPath><style>.cls-1{fill:none}.cls-3{fill:#00b7cd}.cls-4{fill:#006bcf}</style></defs><path d="M38.27653 292.48496l-17.25938 49.33302h-7.2615l24.20524-65.98619h.84183l24.20558 65.98619h-7.57749l-17.15428-49.33302zm11.36623 30.38964h-23.7845l1.47346-5.68295h20.62704l1.684 5.68295zm43.67481 19.78556c-3.50917 0-6.70097-.5413-9.57713-1.62183-2.87754-1.07985-5.35082-2.66528-7.4195-4.75697-2.07005-2.09169-3.66682-4.68828-4.78822-7.79112-1.12313-3.10285-1.684-6.64189-1.684-10.61645 0-4.04325.57874-7.63313 1.73655-10.77032 1.15747-3.13788 2.73637-5.76881 4.73567-7.89622 1.99964-2.12673 4.34962-3.74787 7.0513-4.86275 2.69997-1.11488 5.55964-1.67404 8.57697-1.67404 2.73637 0 5.29655.45543 7.68259 1.36355 2.38432.90743 4.45472 2.28884 6.20947 4.14011 1.75269 1.85195 3.13891 4.21155 4.15694 7.07603 1.01631 2.86448 1.52601 6.25378 1.52601 10.16583 0 .55916-.0182 1.13618-.05255 1.72968-.03641.59557-.08896 1.17052-.15799 1.72968H77.11022c.13979 3.05202.66598 5.70424 1.5789 7.95736.91086 2.25312 2.10474 4.09134 3.5782 5.5119 1.47311 1.42056 3.1736 2.47843 5.10387 3.17223 1.92889.6938 3.98108 1.03932 6.15658 1.03932 1.684 0 3.26256-.19234 4.73602-.57908 1.47346-.38468 2.85796-.98162 4.15694-1.78876 1.2976-.80577 2.47328-1.80593 3.52565-2.99981l4.20949 4.10439c-1.33332 1.61496-2.85933 2.98332-4.57768 4.10439-1.72006 1.12313-3.59641 1.94744-5.6304 2.47362-2.03605.52619-4.24589.78928-6.63022.78928zm-15.89136-29.67798h26.41543c0-2.22839-.2995-4.23147-.89472-6.00717-.59694-1.77571-1.43877-3.30824-2.52583-4.5976-1.08844-1.28936-2.38604-2.26411-3.89384-2.92562-1.50952-.66082-3.20967-.9933-5.10421-.9933-1.68366 0-3.28042.27958-4.78822.83736-1.50952.5571-2.89437 1.44529-4.15728 2.6639-1.26291 1.21998-2.33315 2.73466-3.20967 4.54471-.87824 1.81211-1.49166 3.97181-1.84165 6.47772zm52.4101-19.25937h7.89313l-.31599 14.10261-.94693-1.57856c.42074-2.17412 1.15747-4.10439 2.20984-5.78873 1.05237-1.68366 2.31529-3.10422 3.78874-4.26169 1.47346-1.15816 3.08671-2.03468 4.84112-2.63162 1.75304-.59488 3.5782-.89438 5.4724-.89438 2.52583 0 4.8576.43895 6.99875 1.31546 2.13909.87789 4.05149 2.19404 5.7355 3.94639l-3.36766 5.89383-.42109.94727-.73673-.42109c-.14116-.56053-.35171-1.08672-.63129-1.57856-.2813-.49047-.87824-1.08672-1.7891-1.78944-1.12313-.69998-2.15729-1.17396-3.10457-1.42056-.94727-.24523-2.01785-.36819-3.21001-.36819-1.75441 0-3.50917.33179-5.26186.99467-1.75475.66426-3.35117 1.69396-4.78857 3.0898-1.43877 1.39584-2.57838 3.17704-3.42021 5.34086-.84217 2.16451-1.26291 4.74735-1.26291 7.74853v25.44858h-7.68259v-48.09518zm62.30254 48.93735c-5.47275 0-9.68223-1.2399-12.62915-3.72314-2.94657-2.48118-4.42003-5.64516-4.42003-9.49127 0-2.58491.63163-4.91015 1.89454-6.97231 1.26257-2.06215 2.99912-3.81038 5.20931-5.244 2.20984-1.43362 4.78857-2.53407 7.73514-3.30343 2.94692-.77004 6.06762-1.15472 9.36659-1.15472 1.19216 0 2.40218.01855 3.63075.05289 1.22651.03641 2.52583.1051 3.89384.2102 1.36801.10579 2.78892.26309 4.26238.47398l.2102 5.78804c-1.26291-.2102-2.54369-.36819-3.84129-.47329-1.29898-.10579-2.57838-.19234-3.84129-.26309-1.26291-.06938-2.49114-.10579-3.6833-.10579-2.52583 0-4.84112.21089-6.94586.62854-2.10474.41903-3.93025 1.04756-5.4724 1.88424-1.54421.83736-2.73637 1.91721-3.5782 3.24298-.84217 1.32508-1.26291 2.93043-1.26291 4.8133 0 1.46659.26309 2.70443.78928 3.71627.52619 1.01116 1.24471 1.81349 2.15729 2.40562.91121.5935 1.98144 1.02902 3.21001 1.3086 1.22651.27958 2.57838.41765 4.05184.41765 2.73603 0 5.17325-.43414 7.31405-1.30379 2.13943-.86965 3.96288-2.13909 5.4724-3.8097 1.50815-1.66923 2.64776-3.72177 3.42055-6.1583.77108-2.43584 1.15747-5.21927 1.15747-8.35028 0-4.73086-.56225-8.41966-1.68366-11.06364-1.12313-2.64398-2.78892-4.52204-4.99911-5.63555-2.20984-1.11282-5.03517-1.67061-8.47187-1.67061-2.31529 0-4.59588.43895-6.84076 1.31546-2.24625.87858-4.28024 2.22839-6.10369 4.05218l-3.68364-4.84146c2.24453-2.24419 4.84112-3.92853 7.78803-5.05166 2.94657-1.12106 6.06762-1.68366 9.36625-1.68366 3.15712 0 6.03328.38674 8.62986 1.15747 2.59487.77279 4.82291 2.05254 6.68277 3.84129 1.85814 1.78944 3.29691 4.19369 4.31493 7.2093 1.01631 3.01767 1.52601 6.80607 1.52601 11.36589v25.5736h-8.20877v-7.68259c-.91258 1.75441-2.01785 3.19352-3.31511 4.31459-1.29932 1.12313-2.68382 1.98316-4.15694 2.57872-1.47346.59694-2.98298 1.01596-4.52547 1.26257-1.54421.24523-3.01733.36888-4.42003.36888zm51.3574-25.10168l-6.31457 5.93299v18.32652h-7.68259v-69.98547h8.62986v.73364c-.42109.42109-.68418.87514-.78928 1.36355-.10544.48978-.15799 1.32852-.15799 2.51553v39.20703l24.10014-22.45564c.42109.07075.84183.14151 1.26291.21089.42109.07007.85832.12296 1.31546.15731.45543.03641.94727.07075 1.47346.10579.52619.03572 1.03417.05221 1.52601.05221h2.73637l-20.20629 19.17556 23.57395 28.91962-9.78768.42109-19.67977-24.68059zm42.20169 24.2595v-6.10403h12.31316v-35.88712h-11.68153v-6.10403h19.25902v41.99115h11.26079v6.10403h-31.15144zm15.68082-58.1985c-1.47346 0-2.73603-.52619-3.78874-1.57856-1.05237-1.05237-1.57856-2.31494-1.57856-3.7884 0-1.54215.50833-2.84182 1.52601-3.89419 1.01631-1.05237 2.29743-1.57856 3.84129-1.57856 1.47346 0 2.75286.54473 3.84129 1.63145 1.08706 1.08878 1.63145 2.36784 1.63145 3.84129s-.54439 2.73603-1.63145 3.7884c-1.08844 1.05237-2.36784 1.57856-3.84129 1.57856zm83.35066 58.1985v-65.5651h5.78804l16.20735 32.09871 16.52265-32.20381h5.57785v65.6702h-6.94586v-49.46285l-14.20771 26.41508h-2.84147l-13.26009-26.09978v49.14755h-6.84076zm76.93099.84218c-3.50917 0-6.70097-.5413-9.57713-1.62183-2.87754-1.07985-5.35082-2.66528-7.4195-4.75697-2.07005-2.09169-3.66682-4.68828-4.78822-7.79112-1.12313-3.10285-1.684-6.64189-1.684-10.61645 0-4.04325.57874-7.63313 1.73655-10.77032 1.15747-3.13788 2.73637-5.76881 4.73567-7.89622 1.99964-2.12673 4.34962-3.74787 7.0513-4.86275 2.69997-1.11488 5.55964-1.67404 8.57697-1.67404 2.73637 0 5.29655.45543 7.68259 1.36355 2.38432.90743 4.45472 2.28884 6.20947 4.14011 1.75269 1.85195 3.13891 4.21155 4.15694 7.07603 1.01631 2.86448 1.52601 6.25378 1.52601 10.16583 0 .55916-.0182 1.13618-.05255 1.72968-.03641.59557-.08896 1.17052-.15799 1.72968h-34.20346c.13979 3.05202.66598 5.70424 1.5789 7.95736.91086 2.25312 2.10474 4.09134 3.5782 5.5119 1.47311 1.42056 3.1736 2.47843 5.10387 3.17223 1.92889.6938 3.98108 1.03932 6.15658 1.03932 1.684 0 3.26256-.19234 4.73602-.57908 1.47346-.38468 2.85796-.98162 4.15694-1.78876 1.2976-.80577 2.47328-1.80593 3.52565-2.99981l4.20949 4.10439c-1.33332 1.61496-2.85933 2.98332-4.57768 4.10439-1.72006 1.12313-3.59641 1.94744-5.6304 2.47362-2.03605.52619-4.24589.78928-6.63022.78928zm-15.89136-29.67798h26.41543c0-2.22839-.2995-4.23147-.89472-6.00717-.59694-1.77571-1.43877-3.30824-2.52583-4.5976-1.08844-1.28936-2.38604-2.26411-3.89384-2.92562-1.50952-.66082-3.20967-.9933-5.10421-.9933-1.68366 0-3.28042.27958-4.78822.83736-1.50952.5571-2.89437 1.44529-4.15728 2.6639-1.26291 1.21998-2.33315 2.73466-3.20967 4.54471-.87824 1.81211-1.49166 3.97181-1.84165 6.47772zm58.67179 28.8358c-2.42039-.56053-4.70133-1.4027-6.84042-2.52583-2.14115-1.12175-4.12259-2.52583-5.94638-4.20949l4.20983-7.1564.63129-.94727.63163.42109c.13979.56259.29744 1.14099.47364 1.73655.17414.59694.64777 1.31546 1.42056 2.15695 1.47346 1.47346 3.24436 2.68382 5.31475 3.63109 2.06868.94727 4.71781 1.42056 7.94568 1.42056 2.59487 0 4.78857-.31049 6.57767-.93559 1.7891-.62442 3.1736-1.50918 4.15694-2.6536.98162-1.14511 1.47346-2.47981 1.47346-4.00616 0-1.0455-.21054-1.96805-.63163-2.77038-.42109-.80302-1.10492-1.55245-2.05219-2.24969s-2.1937-1.39309-3.73619-2.09032c-1.54387-.69723-3.43841-1.39446-5.68295-2.09169-3.64896-1.0455-6.84042-2.26548-9.57679-3.65995s-4.84112-3.01423-6.31457-4.86275c-1.47311-1.84852-2.20984-3.95601-2.20984-6.32728 0-2.44065.66598-4.54883 1.9993-6.32797 1.33195-1.77777 3.31511-3.17223 5.94638-4.18338 2.63093-1.00978 5.87528-1.51605 9.73478-1.51605 2.24453 0 4.27852.15799 6.10369.47398 1.82379.3153 3.50779.78928 5.05166 1.42056 1.54249.63129 2.9634 1.42056 4.26238 2.36784 1.29726.94727 2.54232 2.05185 3.73585 3.31511l-4.31459 5.26186-.73673.84217-.52619-.52619c-.07075-.56122-.22875-1.10527-.47364-1.63145-.24661-.52619-.75493-1.17396-1.52601-1.94675-1.61496-1.26326-3.43841-2.22633-5.47275-2.89402-2.03571-.66632-3.99894-1.00017-5.89349-1.00017-2.80678 0-5.22751.48497-7.2615 1.4556-2.03571.96994-3.05202 2.45988-3.05202 4.46915 0 1.04619.36854 2.07521 1.10527 3.08499.73639 1.01116 2.08654 2.02231 4.05149 3.03416 1.96358 1.01116 4.77036 2.0388 8.41932 3.0843 3.99929 1.25502 7.20895 2.52789 9.62968 3.81725 2.42039 1.29074 4.17342 2.77244 5.26186 4.44442 1.08706 1.67404 1.63145 3.66063 1.63145 5.96115 0 2.65085-.72024 5.12516-2.15764 7.42568-1.43877 2.30258-3.63075 4.13255-6.57732 5.49061-2.94692 1.35874-6.66662 2.03949-11.15569 2.03949-2.66734 0-5.20931-.28164-7.63004-.84217zm41.51751-69.98547h8.31387v.74051c-.42074.42246-.68384.87927-.78928 1.37317-.1051.49321-.15765 1.33676-.15765 2.53339v25.8731c1.26291-1.96324 2.75252-3.66544 4.47258-5.10387 1.71835-1.43774 3.54214-2.56086 5.47275-3.368 1.92855-.80577 3.87564-1.21036 5.84059-1.21036 2.87616 0 5.41985.66632 7.63004 1.99621 2.21019 1.33058 3.92853 3.46486 5.15676 6.40491 1.22685 2.94005 1.84165 6.82599 1.84165 11.65715v29.08929h-7.3666v-28.87085c0-3.3577-.3864-6.03465-1.15782-8.02949-.77279-1.99415-1.82516-3.42983-3.15712-4.30497-1.33367-.87446-2.84147-1.31203-4.52547-1.31203-1.26291 0-2.56189.2102-3.89384.62991-1.33367.42109-2.61444 1.051-3.84129 1.88905-1.22823.8408-2.33349 1.87325-3.31511 3.09804-.98334 1.22548-1.75441 2.60826-2.31529 4.14766-.56225 1.53872-.84183 3.25397-.84183 5.14371V341.818h-7.36695v-69.98547z" class="cls-4"/><g opacity=".61"><g clip-path="url(#clippath)"><path d="M238.13 47.935h.063v16.763h-.063zm.063 0h107.8v16.763h-107.8zm107.801 0h.095v16.763h-.095z" class="cls-3"/></g><g clip-path="url(#clippath-1)"><path d="M238.106 180.037h.083v16.723h-.083z" class="cls-3"/><path d="M238.188 180.037h107.818v16.723H238.188zm107.819 0h.114v16.723h-.114z" class="cls-3"/></g><g clip-path="url(#clippath-2)"><path d="M218.043 14.916h.007v95.783h-.007z" class="cls-3"/><path d="M218.049 14.916h16.559v95.783h-16.559zm16.56 0h.032v95.783h-.032z" class="cls-3"/></g><g clip-path="url(#clippath-3)"><path d="M217.875 134.29h.077v95.766h-.077zm.077 0h16.651v95.766h-16.651zm16.652 0h.155v95.766h-.155z" class="cls-3"/></g><g clip-path="url(#clippath-4)"><path d="M350.014 134.376h.03v95.369h-.03zm.03 0h16.048v95.369h-16.048zm16.049 0h.033v95.369h-.033z" class="cls-3"/></g><g clip-path="url(#clippath-5)"><path d="M350.101 14.971h.027v95.557h-.027zm.027 0h16.016v95.557h-16.016zm16.016 0h.016v95.557h-.016z" class="cls-3"/></g><g clip-path="url(#clippath-6)"><path d="M283.661 12.838h.092v30.381h-.092zm.092 0h16.494v30.381h-16.494zm16.494 0h.038v30.381h-.038z" class="cls-3"/></g><g clip-path="url(#clippath-7)"><path d="M283.448 202.347h.275v29.788h-.275zm.275 0h16.522v29.788h-16.522zm16.522 0h.057v29.788h-.057z" class="cls-3"/></g><g clip-path="url(#clippath-8)"><path d="M371.145 47.898h.711v16.72h-.711zm.712 0h29.869v16.72h-29.869zm29.869 0h.135v16.72h-.135z" class="cls-3"/></g><g clip-path="url(#clippath-9)"><path d="M371.585 180.058h.499v16.691h-.499zm.499 0h29.63v16.691h-29.63zm29.63 0h.073v16.691h-.073z" class="cls-3"/></g><g clip-path="url(#clippath-10)"><path d="M182.532 180.149h.239v16.756h-.239z" class="cls-3"/><path d="M182.771 180.149h29.602v16.756h-29.602zm29.602 0h.915v16.756h-.915z" class="cls-3"/></g><g clip-path="url(#clippath-11)"><path d="M182.246 47.854h.508v16.755h-.508z" class="cls-3"/><path d="M182.754 47.854h28.925v16.755h-28.925zm28.925 0h.028v16.755h-.028z" class="cls-3"/></g></g><path d="M159.27131 67.42955c4.1539-2.21695 5.97317 1.52452 8.15436 3.51478 9.89218 9.02628 20.27177 17.11847 32.8238 22.37136 23.8681 9.98858 47.63645 6.80656 71.44487.27972 21.84916-5.98972 42.85698-14.75462 65.01677-19.75504 19.51299-4.40319 38.87031-5.33931 57.97155 1.95498 1.30793.49947 2.7326.77736 3.93291 1.45816 3.17054 1.7983 5.11976 4.60573 3.51555 8.12805-1.57205 3.45171-4.82508 2.05456-7.3968 1.13939-9.11085-3.24224-18.43817-4.99794-28.13173-5.18462-17.81932-.34317-34.7189 4.14409-51.51219 9.33596-20.29474 6.27443-40.13811 13.96708-61.11145 18.07794-35.86084 7.02886-65.44275-3.9384-89.91855-30.28699-1.87285-2.01616-3.2054-4.53421-4.7891-6.81897v-4.21472zm206.39041 44.75339c-18.2474-.07918-35.61092 4.56123-52.821 10.00991-21.81731 6.90731-43.19971 15.38565-66.11054 18.34611-15.81927 2.04411-31.26344.61494-46.20962-5.15317-3.83188-1.47882-6.94017-4.13866-5.45803-8.42004 1.53302-4.42835 5.31727-2.43125 8.36546-1.34723 23.92592 8.50857 47.51577 4.82611 71.00783-1.96662 21.54423-6.22951 42.40103-14.66889 64.36163-19.59769 36.41729-8.17339 67.58957.6459 93.29536 27.96204.64166.68185 1.39425 1.27655 1.9471 2.02171 2.35528 3.17458 6.07446 7.48039 3.04854 10.37785-2.87514 2.75308-5.86369-2.33143-8.14519-4.51373-17.74755-16.97574-38.21128-27.51724-63.28153-27.71915z" class="cls-4"/><path d="M235.26402 174.53069c-23.45234-.13703-41.93328-7.02523-58.0803-20.23565-1.60283-1.31135-3.06243-2.90067-4.23943-4.60242-1.3419-1.94012-2.53174-4.53179-.72967-6.45477 2.08493-2.22482 4.35399-.23682 6.12607 1.16217 26.85719 21.20278 56.77645 22.70677 88.47437 14.24019 23.26857-6.21509 45.55268-15.61048 69.04889-21.03752 24.6649-5.69697 48.72695-5.62456 71.38042 7.59687 1.40965.82271 2.98099 1.52283 4.10291 2.65182 2.31717 2.33182 5.02023 5.1398 2.64537 8.50246-2.27635 3.22323-5.12632.56215-7.4174-.71705-25.06248-13.99318-51.17526-12.41036-77.66755-5.36404-23.48556 6.24658-45.92956 15.93384-69.74697 21.09911-8.71947 1.891-17.54233 2.78156-23.89671 3.15881zm10.33341-96.26278c-4.58357.0546-6.4849-3.05458-4.41896-6.99889 1.28757-2.45824 3.39163-3.74398 6.10613-4.20213 25.01669-4.2223 48.35165-14.21777 72.58214-21.13928 6.05933-1.73087 12.20467-3.16965 18.33722-4.63043 2.24833-.53556 4.77271-1.23241 6.15273 1.57658 1.33629 2.72001.14472 5.05923-1.7097 6.98038-.92759.96097-2.26962 1.82526-3.5568 2.09103-27.30504 5.63749-52.86278 17.15703-79.89804 23.6727-4.53823 1.09373-9.17041 1.79767-13.59472 2.65004zm-16.08342 153.78852c-24.91975.27851-45.03795-8.90351-62.42914-24.83731-.34471-.31583-.71091-.61632-1.01108-.97132-2.55455-3.02106-6.49667-6.94657-3.42474-10.18301 2.97162-3.13077 5.99432 1.73474 8.44491 3.81023 25.60645 21.68692 54.88499 25.05521 86.42158 17.69525 2.87998-.67216 6.92208-3.39608 8.25471 1.38315 1.24192 4.45392-1.7919 7.63565-6.08095 8.79757-10.1825 2.75843-20.55101 4.42131-30.1753 4.30545z" class="cls-4"/></svg>