<svg xmlns="http://www.w3.org/2000/svg" role="img" viewBox="33.18 24.68 692.64 363.64"><title>AIM (member) logo</title><defs><clipPath id="a" clipPathUnits="userSpaceOnUse"><path d="M511.078 407.598l-10.199 35.5c-4.438 15.382-8.875 31.215-13.313 47.488-4.437 16.269-8.722 32.387-12.867 48.375h-1.773c-4.153-16.281-8.289-32.477-12.43-48.594-4.144-16.14-8.582-31.887-13.312-47.269l-10.204-35.5zm11.543-40.383h-97.18l-22.632-78.535h-52.805l94.961 290.207h60.351l94.512-290.207h-54.574z" clip-rule="evenodd"/></clipPath><clipPath id="b" clipPathUnits="userSpaceOnUse"><path d="M0 0h5700v3100H0z"/></clipPath><clipPath id="c" clipPathUnits="userSpaceOnUse"><path d="M636.656 432.898c0 23.665 3.559 44.887 10.66 63.68 7.09 18.781 16.86 34.684 29.278 47.703 12.422 13.008 27.074 22.918 43.941 29.735 16.86 6.797 35.055 10.203 54.578 10.203 10.051 0 19.379-1.035 27.961-3.114 8.571-2.074 16.414-4.804 23.516-8.199 7.09-3.414 13.605-7.332 19.523-11.769 5.914-4.426 11.094-9.024 15.532-13.758l-28.411-31.941c-7.394 7.101-15.445 12.875-24.168 17.304-8.734 4.438-19.914 6.656-33.519 6.656-13.016 0-24.774-2.437-35.27-7.32-10.507-4.883-19.523-11.836-27.074-20.863-7.547-9.016-13.387-20.043-17.519-33.063-4.153-13.015-6.223-27.668-6.223-43.918 0-33.14 7.551-59.101 22.633-77.882 15.097-18.793 37.285-28.18 66.574-28.18 7.973 0 15.672 1.109 23.07 3.336 7.383 2.211 13.453 5.387 18.196 9.527v62.574h-54.59v42.157h100.738V317.969c-10.062-9.473-23.23-17.61-39.492-24.406-16.281-6.801-34.324-10.204-54.141-10.204-19.23 0-37.133 3.254-53.699 9.758-16.562 6.504-30.918 16.117-43.035 28.844-12.137 12.723-21.676 28.398-28.617 47.039-6.961 18.641-10.442 39.938-10.442 63.898" clip-rule="evenodd"/></clipPath><clipPath id="d" clipPathUnits="userSpaceOnUse"><path d="M0 0h5700v3100H0z"/></clipPath><clipPath id="e" clipPathUnits="userSpaceOnUse"><path d="M951.281 578.895h51.479V288.684h-51.479z"/></clipPath><clipPath id="f" clipPathUnits="userSpaceOnUse"><path d="M1097.27 578.891h51.47V332.164h120.25v-43.48h-171.72z" clip-rule="evenodd"/></clipPath><clipPath id="g" clipPathUnits="userSpaceOnUse"><path d="M0 0h5700v3100H0z"/></clipPath><clipPath id="h" clipPathUnits="userSpaceOnUse"><path d="M1340.88 578.891h174.4v-43.493h-122.92v-74.101h104.28v-43.481h-104.28v-85.652h127.34v-43.48h-178.82z" clip-rule="evenodd"/></clipPath><clipPath id="i" clipPathUnits="userSpaceOnUse"><path d="M0 0h5700v3100H0z"/></clipPath><clipPath id="j" clipPathUnits="userSpaceOnUse"><path d="M1591.16 317.969c0 10.058 3.17 18.344 9.54 24.851 6.35 6.504 14.27 9.754 23.74 9.754 9.47 0 17.3-3.25 23.51-9.754 6.22-6.507 9.33-14.793 9.33-24.851 0-10.071-3.11-18.348-9.33-24.856-6.21-6.504-14.04-9.754-23.51-9.754-9.47 0-17.39 3.25-23.74 9.754-6.37 6.508-9.54 14.785-9.54 24.856" clip-rule="evenodd"/></clipPath><clipPath id="k" clipPathUnits="userSpaceOnUse"><path d="M0 0h5700v3100H0z"/></clipPath><clipPath id="l" clipPathUnits="userSpaceOnUse"><path d="M1812.59 578.895h51.48V288.684h-51.48z"/></clipPath><clipPath id="m" clipPathUnits="userSpaceOnUse"><path d="M2006.06 535.398h-83.88v43.497h218.78v-43.497h-83.42V288.672h-51.48z" clip-rule="evenodd"/></clipPath><clipPath id="n" clipPathUnits="userSpaceOnUse"><path d="M0 0h5700v3100H0z"/></clipPath><clipPath id="o" clipPathUnits="userSpaceOnUse"><path d="M2153.37 317.969c0 10.058 3.18 18.344 9.55 24.851 6.35 6.504 14.27 9.754 23.73 9.754 9.48 0 17.31-3.25 23.51-9.754 6.23-6.507 9.34-14.793 9.34-24.851 0-10.071-3.11-18.348-9.34-24.856-6.2-6.504-14.03-9.754-23.51-9.754-9.46 0-17.38 3.25-23.73 9.754-6.37 6.508-9.55 14.785-9.55 24.856" clip-rule="evenodd"/></clipPath><clipPath id="p" clipPathUnits="userSpaceOnUse"><path d="M0 0h5700v3100H0z"/></clipPath><clipPath id="q" clipPathUnits="userSpaceOnUse"><path d="M2374.8 578.891h56.35l52.37-142.879 19.09-55.035h1.76l19.09 55.035 51.03 142.879h56.8V288.684h-48.37v132.679c0 6.805.23 14.203.67 22.188.43 7.98.95 16.043 1.55 24.176.59 8.136 1.32 16.128 2.22 23.972.89 7.832 1.62 15.149 2.22 21.957h-1.78l-23.52-66.117-50.14-131.797h-23.51l-50.15 131.797-23.09 66.117h-1.76c.58-6.808 1.25-14.125 2-21.957.73-7.844 1.4-15.836 2-23.972.58-8.133 1.1-16.196 1.55-24.176.44-7.985.66-15.383.66-22.188V288.684h-47.04z" clip-rule="evenodd"/></clipPath><clipPath id="r" clipPathUnits="userSpaceOnUse"><path d="M0 0h5700v3100H0z"/></clipPath><clipPath id="s" clipPathUnits="userSpaceOnUse"><path d="M2849.15 407.598l-10.2 35.5c-4.44 15.382-8.88 31.215-13.31 47.488-4.44 16.269-8.73 32.387-12.87 48.375H2811c-4.16-16.281-8.29-32.477-12.43-48.594-4.14-16.14-8.58-31.887-13.32-47.269l-10.2-35.5zm11.54-40.383h-97.18l-22.63-78.535h-52.8l94.96 290.207h60.35l94.51-290.207h-54.58z" clip-rule="evenodd"/></clipPath><clipPath id="t" clipPathUnits="userSpaceOnUse"><path d="M0 0h5700v3100H0z"/></clipPath><clipPath id="u" clipPathUnits="userSpaceOnUse"><path d="M2994.71 578.891h52.81l90.08-163.305 30.18-61.68h1.76c-1.48 15.086-2.95 31.282-4.43 48.586-1.48 17.313-2.22 34.098-2.22 50.379v126.02h48.82V288.684h-52.82l-90.07 163.293-30.18 61.679h-1.78c1.49-15.386 2.96-31.496 4.45-48.367 1.47-16.867 2.21-33.43 2.21-49.703V288.684h-48.81z" clip-rule="evenodd"/></clipPath><clipPath id="v" clipPathUnits="userSpaceOnUse"><path d="M0 0h5700v3100H0z"/></clipPath><clipPath id="w" clipPathUnits="userSpaceOnUse"><path d="M3429.58 407.598l-10.2 35.5c-4.44 15.382-8.88 31.215-13.31 47.488-4.44 16.269-8.73 32.387-12.87 48.375h-1.77c-4.16-16.281-8.29-32.477-12.43-48.594-4.15-16.14-8.59-31.887-13.32-47.269l-10.2-35.5zm11.54-40.383h-97.18l-22.63-78.535h-52.81l94.96 290.207h60.36l94.51-290.207h-54.58z" clip-rule="evenodd"/></clipPath><clipPath id="x" clipPathUnits="userSpaceOnUse"><path d="M0 0h5700v3100H0z"/></clipPath><clipPath id="y" clipPathUnits="userSpaceOnUse"><path d="M3555.16 432.898c0 23.665 3.55 44.887 10.66 63.68 7.09 18.781 16.86 34.684 29.28 47.703 12.42 13.008 27.07 22.918 43.94 29.735 16.85 6.797 35.05 10.203 54.57 10.203 10.05 0 19.39-1.035 27.96-3.114 8.58-2.074 16.42-4.804 23.52-8.199 7.09-3.414 13.61-7.332 19.52-11.769 5.92-4.426 11.1-9.024 15.53-13.758l-28.4-31.941c-7.4 7.101-15.45 12.875-24.17 17.304-8.73 4.438-19.91 6.656-33.52 6.656-13.02 0-24.78-2.437-35.27-7.32-10.51-4.883-19.53-11.836-27.07-20.863-7.55-9.016-13.39-20.043-17.53-33.063-4.15-13.015-6.22-27.668-6.22-43.918 0-33.14 7.55-59.101 22.64-77.882 15.09-18.793 37.28-28.18 66.57-28.18 7.97 0 15.67 1.109 23.07 3.336 7.39 2.211 13.46 5.387 18.19 9.527v62.574h-54.58v42.157h100.73V317.969c-10.06-9.473-23.23-17.61-39.49-24.406-16.28-6.801-34.32-10.204-54.14-10.204-19.23 0-37.13 3.254-53.7 9.758-16.56 6.504-30.92 16.117-43.04 28.844-12.13 12.723-21.67 28.398-28.61 47.039-6.96 18.641-10.44 39.938-10.44 63.898" clip-rule="evenodd"/></clipPath><clipPath id="z" clipPathUnits="userSpaceOnUse"><path d="M0 0h5700v3100H0z"/></clipPath><clipPath id="A" clipPathUnits="userSpaceOnUse"><path d="M3869.78 578.891h174.4v-43.493h-122.92v-74.101h104.28v-43.481h-104.28v-85.652h127.35v-43.48h-178.83z" clip-rule="evenodd"/></clipPath><clipPath id="B" clipPathUnits="userSpaceOnUse"><path d="M0 0h5700v3100H0z"/></clipPath><clipPath id="C" clipPathUnits="userSpaceOnUse"><path d="M4128.48 578.891h56.36l52.36-142.879 19.09-55.035h1.76l19.09 55.035 51.03 142.879h56.8V288.684h-48.37v132.679c0 6.805.23 14.203.68 22.188.42 7.98.94 16.043 1.54 24.176.59 8.136 1.33 16.128 2.22 23.972.89 7.832 1.62 15.149 2.22 21.957h-1.78l-23.52-66.117-50.14-131.797h-23.52l-50.14 131.797-23.08 66.117h-1.76c.57-6.808 1.24-14.125 1.98-21.957.75-7.844 1.41-15.836 2-23.972.59-8.133 1.11-16.196 1.56-24.176.44-7.985.67-15.383.67-22.188V288.684h-47.05z" clip-rule="evenodd"/></clipPath><clipPath id="D" clipPathUnits="userSpaceOnUse"><path d="M0 0h5700v3100H0z"/></clipPath><clipPath id="E" clipPathUnits="userSpaceOnUse"><path d="M4479.93 578.891h174.39v-43.493H4531.4v-74.101h104.28v-43.481H4531.4v-85.652h127.35v-43.48h-178.82z" clip-rule="evenodd"/></clipPath><clipPath id="F" clipPathUnits="userSpaceOnUse"><path d="M0 0h5700v3100H0z"/></clipPath><clipPath id="G" clipPathUnits="userSpaceOnUse"><path d="M4739.07 578.891h52.81l90.07-163.305 30.19-61.68h1.76c-1.48 15.086-2.95 31.282-4.43 48.586-1.49 17.313-2.22 34.098-2.22 50.379v126.02h48.82V288.684h-52.82l-90.08 163.293-30.17 61.679h-1.78c1.49-15.386 2.96-31.496 4.45-48.367 1.47-16.867 2.21-33.43 2.21-49.703V288.684h-48.81z" clip-rule="evenodd"/></clipPath><clipPath id="H" clipPathUnits="userSpaceOnUse"><path d="M0 0h5700v3100H0z"/></clipPath><clipPath id="I" clipPathUnits="userSpaceOnUse"><path d="M5109.61 535.398h-83.87v43.497h218.77v-43.497h-83.42V288.672h-51.48z" clip-rule="evenodd"/></clipPath><clipPath id="J" clipPathUnits="userSpaceOnUse"><path d="M0 0h5700v3100H0z"/></clipPath><clipPath id="K" clipPathUnits="userSpaceOnUse"><path d="M5256.93 317.969c0 10.058 3.17 18.344 9.54 24.851 6.35 6.504 14.27 9.754 23.74 9.754 9.47 0 17.3-3.25 23.51-9.754 6.22-6.507 9.33-14.793 9.33-24.851 0-10.071-3.11-18.348-9.33-24.856-6.21-6.504-14.04-9.754-23.51-9.754-9.47 0-17.39 3.25-23.74 9.754-6.37 6.508-9.54 14.785-9.54 24.856" clip-rule="evenodd"/></clipPath><clipPath id="L" clipPathUnits="userSpaceOnUse"><path d="M0 0h5700v3100H0z"/></clipPath><clipPath id="M" clipPathUnits="userSpaceOnUse"><path d="M1982.51 1847.39l-498.35 863.17c-.29.51-.64.96-.95 1.45-1.85 3.16-3.89 6.2-5.96 9.23-1.07 1.57-2.09 3.18-3.2 4.7-2.01 2.74-4.2 5.35-6.39 7.98-1.4 1.67-2.73 3.4-4.18 5.01-1.92 2.11-4 4.11-6.03 6.14-1.93 1.93-3.81 3.89-5.82 5.7-1.72 1.55-3.56 3-5.36 4.48-2.51 2.09-5 4.18-7.61 6.09-1.64 1.21-3.37 2.32-5.07 3.46-2.91 1.99-5.82 3.94-8.84 5.72-.54.32-1.02.69-1.56 1.01-1.39.79-2.82 1.4-4.22 2.16-2.86 1.53-5.71 3.05-8.64 4.42-2.41 1.12-4.84 2.12-7.28 3.12-2.47 1.01-4.93 2.02-7.44 2.91-2.87 1.01-5.73 1.89-8.63 2.75-2.19.65-4.39 1.29-6.62 1.84-3.07.78-6.15 1.43-9.24 2.02-2.2.42-4.39.82-6.61 1.15-3.01.45-6.02.8-9.03 1.07-2.45.24-4.89.43-7.34.55-2.72.14-5.44.19-8.15.19-2.81 0-5.63-.05-8.45-.19-2.36-.12-4.7-.31-7.04-.53-3.12-.28-6.22-.64-9.32-1.11-2.13-.32-4.22-.7-6.32-1.09-3.19-.61-6.35-1.28-9.5-2.08-2.16-.53-4.27-1.15-6.4-1.78-2.96-.87-5.89-1.77-8.82-2.81-2.45-.87-4.87-1.86-7.28-2.85-2.48-1.02-4.95-2.02-7.39-3.17-2.93-1.37-5.79-2.88-8.63-4.41-1.39-.76-2.83-1.37-4.21-2.16-.54-.31-1.02-.69-1.54-1-3.04-1.79-5.98-3.76-8.91-5.76-1.67-1.13-3.39-2.22-5.01-3.41-2.62-1.93-5.13-4.04-7.65-6.13-1.78-1.48-3.62-2.91-5.33-4.45-2.01-1.82-3.89-3.78-5.82-5.71-2.04-2.03-4.12-4.02-6.03-6.14-1.44-1.61-2.78-3.33-4.17-5-2.19-2.63-4.39-5.25-6.4-7.99-1.11-1.52-2.13-3.12-3.19-4.68-2.07-3.04-4.11-6.09-5.98-9.25-.3-.49-.65-.94-.94-1.45L375.539 1290.08c-46.004-79.68-18.707-181.53 60.969-227.53 26.238-15.15 54.863-22.36 83.117-22.36 57.566 0 113.574 29.89 144.41 83.32l675.875 1170.65 257.94-446.77z" clip-rule="evenodd"/></clipPath><clipPath id="N" clipPathUnits="userSpaceOnUse"><path d="M0 0h5700v3100H0z"/></clipPath><clipPath id="O" clipPathUnits="userSpaceOnUse"><path d="M2763.48 2652.33c0 86.56-70.19 156.75-156.76 156.75-86.56 0-156.75-70.19-156.75-156.75v-804.94h313.51z" clip-rule="evenodd"/></clipPath><clipPath id="P" clipPathUnits="userSpaceOnUse"><path d="M0 0h5700v3100H0z"/></clipPath><clipPath id="Q" clipPathUnits="userSpaceOnUse"><path d="M5335.94 1258.5L4808.5 2707.61c-.04.11-.09.21-.12.32l-.4 1.1c-.49 1.36-1.14 2.61-1.66 3.94-1.3 3.28-2.6 6.57-4.11 9.75-1.06 2.22-2.26 4.32-3.41 6.48-1.24 2.31-2.42 4.65-3.78 6.91-1.43 2.39-3.01 4.66-4.55 6.95-1.29 1.92-2.54 3.85-3.91 5.7-1.66 2.26-3.45 4.38-5.22 6.52-1.49 1.79-2.93 3.6-4.5 5.34-1.77 1.95-3.64 3.78-5.5 5.63-1.77 1.77-3.52 3.57-5.39 5.27-1.81 1.64-3.71 3.15-5.59 4.71-2.06 1.7-4.1 3.42-6.27 5.02-1.95 1.43-3.97 2.74-5.97 4.09-2.22 1.49-4.4 3-6.7 4.38-2.35 1.41-4.77 2.65-7.17 3.92-2.07 1.11-4.09 2.26-6.22 3.28-3.27 1.55-6.64 2.89-10.01 4.22-1.27.5-2.44 1.11-3.72 1.57-.16.06-.31.09-.48.14-4.69 1.7-9.47 3.17-14.32 4.42-.19.05-.38.12-.57.17-5.06 1.28-10.2 2.31-15.39 3.08-.16.02-.31.02-.47.05-4.89.71-9.83 1.2-14.8 1.44-1.75.09-3.48-.02-5.22.01-3.37.06-6.72.15-10.11-.02-2.68-.13-5.33-.51-7.99-.78-2.42-.24-4.84-.36-7.25-.72-5.11-.77-10.15-1.78-15.13-3.03-.87-.23-1.73-.56-2.61-.79-4.15-1.13-8.28-2.34-12.32-3.8-.18-.07-.37-.1-.56-.17-1.52-.55-2.92-1.27-4.41-1.86-3.11-1.24-6.22-2.46-9.24-3.9-2.3-1.09-4.47-2.34-6.69-3.52-2.25-1.21-4.52-2.36-6.7-3.66-2.42-1.45-4.72-3.05-7.04-4.61-1.89-1.27-3.81-2.5-5.64-3.87-2.25-1.66-4.37-3.45-6.52-5.22-1.8-1.48-3.62-2.94-5.35-4.51-1.94-1.75-3.75-3.6-5.59-5.44-1.8-1.8-3.61-3.58-5.31-5.46-1.63-1.78-3.12-3.65-4.64-5.5-1.73-2.1-3.47-4.17-5.1-6.36-1.42-1.91-2.7-3.9-4.01-5.86-1.52-2.25-3.06-4.47-4.46-6.8-1.38-2.31-2.6-4.69-3.85-7.05-1.13-2.11-2.32-4.18-3.35-6.36-1.52-3.19-2.82-6.48-4.13-9.78-.52-1.33-1.16-2.57-1.65-3.92l-.4-1.1c-.04-.11-.09-.22-.11-.32l-380.14-1044.43-380.14 1044.43c-.04.11-.08.21-.12.32l-.4 1.1c-.49 1.36-1.13 2.61-1.66 3.94-1.3 3.28-2.6 6.57-4.12 9.75-1.05 2.22-2.25 4.32-3.4 6.46-1.24 2.32-2.43 4.67-3.79 6.93-1.42 2.38-2.98 4.63-4.51 6.9-1.3 1.94-2.56 3.89-3.95 5.77-1.66 2.22-3.43 4.33-5.18 6.45-1.5 1.82-2.96 3.65-4.54 5.4-1.76 1.93-3.61 3.75-5.45 5.57-1.79 1.81-3.56 3.62-5.46 5.34-1.78 1.6-3.65 3.09-5.49 4.62-2.1 1.73-4.18 3.48-6.38 5.11-1.89 1.41-3.87 2.68-5.83 4-2.26 1.52-4.49 3.07-6.83 4.47-2.29 1.37-4.66 2.59-7.01 3.84-2.13 1.13-4.19 2.31-6.38 3.35-3.2 1.51-6.48 2.82-9.78 4.13-1.33.52-2.57 1.15-3.93 1.65-.16.07-.33.09-.49.15-4.58 1.66-9.25 3.08-13.98 4.31-.3.08-.6.2-.91.27-5.06 1.28-10.19 2.31-15.38 3.08l-.33.03c-4.94.72-9.92 1.22-14.94 1.46-1.62.09-3.23-.02-4.85.01-3.49.07-6.98.16-10.5-.02-2.26-.11-4.48-.45-6.72-.65-2.85-.27-5.68-.44-8.54-.87-5.07-.75-10.09-1.76-15.04-3-1.15-.3-2.31-.73-3.47-1.05-3.86-1.07-7.7-2.18-11.45-3.53-.21-.08-.41-.11-.61-.19-1.65-.6-3.19-1.39-4.82-2.04-2.95-1.19-5.91-2.34-8.77-3.7-2.41-1.13-4.7-2.44-7.03-3.68-2.13-1.16-4.3-2.25-6.37-3.49-2.51-1.51-4.9-3.15-7.29-4.78-1.8-1.22-3.64-2.39-5.39-3.69-2.32-1.72-4.52-3.57-6.74-5.4-1.72-1.43-3.47-2.82-5.14-4.33-1.99-1.81-3.87-3.72-5.76-5.62-1.74-1.74-3.49-3.45-5.15-5.28-1.66-1.83-3.21-3.76-4.77-5.66-1.69-2.05-3.4-4.07-4.98-6.22-1.45-1.95-2.76-3.98-4.1-5.99-1.49-2.21-3-4.38-4.38-6.67-1.4-2.34-2.63-4.75-3.9-7.15-1.11-2.09-2.28-4.12-3.3-6.26-1.53-3.21-2.84-6.52-4.15-9.83-.52-1.32-1.15-2.55-1.65-3.89l-.39-1.1c-.04-.11-.08-.21-.12-.32l-313.1-860.22h333.61l127.3 349.74 380.15-1044.43c.03-.1.07-.22.11-.32l.4-1.1c1.52-4.17 3.22-8.23 5.04-12.19.38-.83.84-1.63 1.24-2.44 1.65-3.46 3.42-6.84 5.31-10.13.65-1.11 1.34-2.19 2.01-3.29 1.82-2.98 3.73-5.89 5.71-8.73.77-1.08 1.53-2.15 2.32-3.21 2.19-2.93 4.47-5.77 6.84-8.53.7-.81 1.36-1.65 2.07-2.44 3.11-3.48 6.34-6.81 9.71-9.96.65-.61 1.36-1.17 2.02-1.75 2.75-2.49 5.57-4.87 8.47-7.15 1.32-1.03 2.69-2.02 4.05-3.02 2.52-1.83 5.08-3.57 7.69-5.25 1.36-.89 2.72-1.78 4.12-2.63 3.98-2.38 8.01-4.63 12.17-6.65.26-.13.55-.23.8-.36 4.15-1.98 8.39-3.73 12.7-5.35.48-.18.93-.42 1.41-.6.81-.3 1.61-.48 2.41-.76 2.83-.98 5.69-1.89 8.57-2.7 1.43-.41 2.87-.81 4.31-1.18 2.78-.7 5.59-1.3 8.41-1.85 1.48-.29 2.95-.61 4.43-.86 2.91-.48 5.84-.82 8.77-1.14 1.34-.15 2.67-.36 4.01-.47 4.12-.33 8.27-.53 12.45-.53.07 0 .16-.01.23-.01h.04c.08 0 .16.01.25.01 4.16 0 8.31.2 12.44.53 1.33.11 2.67.32 4 .47 2.94.32 5.87.66 8.78 1.14 1.48.25 2.95.57 4.42.86 2.83.55 5.63 1.15 8.42 1.85 1.44.37 2.87.77 4.3 1.18 2.89.81 5.75 1.72 8.58 2.7.8.28 1.61.46 2.4.76.48.18.93.42 1.41.6 4.31 1.61 8.56 3.37 12.7 5.35.26.13.54.23.81.36 4.15 2.02 8.2 4.27 12.16 6.65 1.4.85 2.76 1.74 4.13 2.63 2.61 1.68 5.16 3.42 7.68 5.25 1.36 1 2.73 1.99 4.05 3.02 2.91 2.28 5.73 4.66 8.48 7.15.65.58 1.36 1.14 2.01 1.75 3.39 3.15 6.61 6.48 9.72 9.96.71.79 1.37 1.63 2.06 2.43 2.37 2.76 4.66 5.61 6.85 8.55.79 1.06 1.55 2.12 2.31 3.19 2 2.83 3.9 5.76 5.72 8.74.67 1.1 1.36 2.18 2 3.29 1.89 3.29 3.66 6.67 5.32 10.13.4.81.85 1.61 1.23 2.44 1.83 3.96 3.52 8.02 5.04 12.19l.4 1.1c.05.1.08.22.12.32l380.13 1044.43 380.67-1045.85c23.15-63.66 83.27-103.18 147.3-103.18 17.8 0 35.89 3.05 53.6 9.5 81.35 29.6 123.3 119.56 93.68 200.9" clip-rule="evenodd"/></clipPath><clipPath id="R" clipPathUnits="userSpaceOnUse"><path d="M0 0h5700v3100H0z"/></clipPath><clipPath id="S" clipPathUnits="userSpaceOnUse"><path d="M2092.05 1657.66h-384.67l308.4-534.14c30.85-53.45 86.83-83.32 144.42-83.32 28.24 0 56.89 7.21 83.11 22.35 79.67 45.99 106.97 147.86 60.96 227.52z" clip-rule="evenodd"/></clipPath><clipPath id="T" clipPathUnits="userSpaceOnUse"><path d="M0 0h5700v3100H0z"/></clipPath><clipPath id="U" clipPathUnits="userSpaceOnUse"><path d="M2449.97 1657.66v-454.91c0-86.56 70.19-156.76 156.76-156.76s156.75 70.2 156.75 156.76v454.91z" clip-rule="evenodd"/></clipPath><clipPath id="V" clipPathUnits="userSpaceOnUse"><path d="M0 0h5700v3100H0z"/></clipPath><clipPath id="W" clipPathUnits="userSpaceOnUse"><path d="M3074.84 1657.66l-145.29-399.16c-29.62-81.34 12.33-171.29 93.69-200.9 17.69-6.44 35.78-9.5 53.59-9.5 64.03 0 124.15 39.54 147.31 103.19l184.31 506.37z" clip-rule="evenodd"/></clipPath><clipPath id="X" clipPathUnits="userSpaceOnUse"><path d="M0 0h5700v3100H0z"/></clipPath></defs><g transform="matrix(1.33333 0 0 -1.33333 0 413.333) scale(.1)"><g clip-path="url(#a)"><g clip-path="url(#b)"><path fill="#212120" fill-opacity="1" fill-rule="nonzero" stroke="none" d="M300.004 238.68h349.824v390.207H300.004z"/></g></g><g clip-path="url(#c)"><g clip-path="url(#d)"><path fill="#212120" fill-opacity="1" fill-rule="nonzero" stroke="none" d="M586.656 233.359h329.426v400.859H586.656z"/></g></g><g clip-path="url(#e)"><path fill="#212120" fill-opacity="1" fill-rule="nonzero" stroke="none" d="M901.281 238.684h151.477v390.211H901.281z"/></g><g clip-path="url(#f)"><g clip-path="url(#g)"><path fill="#212120" fill-opacity="1" fill-rule="nonzero" stroke="none" d="M1047.27 238.684h271.727v390.207H1047.27z"/></g></g><g clip-path="url(#h)"><g clip-path="url(#i)"><path fill="#212120" fill-opacity="1" fill-rule="nonzero" stroke="none" d="M1290.88 238.684h278.824v390.207H1290.88z"/></g></g><g clip-path="url(#j)"><g clip-path="url(#k)"><path fill="#212120" fill-opacity="1" fill-rule="nonzero" stroke="none" d="M1541.16 233.359h166.125v169.215H1541.16z"/></g></g><g clip-path="url(#l)"><path fill="#212120" fill-opacity="1" fill-rule="nonzero" stroke="none" d="M1762.59 238.684h151.477v390.211H1762.59z"/></g><g clip-path="url(#m)"><g clip-path="url(#n)"><path fill="#212120" fill-opacity="1" fill-rule="nonzero" stroke="none" d="M1872.18 238.672h318.773v390.223H1872.18z"/></g></g><g clip-path="url(#o)"><g clip-path="url(#p)"><path fill="#212120" fill-opacity="1" fill-rule="nonzero" stroke="none" d="M2103.37 233.359h166.125v169.215H2103.37z"/></g></g><g clip-path="url(#q)"><g clip-path="url(#r)"><path fill="#212120" fill-opacity="1" fill-rule="nonzero" stroke="none" d="M2324.8 238.684h356.48v390.207H2324.8z"/></g></g><g clip-path="url(#s)"><g clip-path="url(#t)"><path fill="#212120" fill-opacity="1" fill-rule="nonzero" stroke="none" d="M2638.08 238.68h349.824v390.207H2638.08z"/></g></g><g clip-path="url(#u)"><g clip-path="url(#v)"><path fill="#212120" fill-opacity="1" fill-rule="nonzero" stroke="none" d="M2944.71 238.684h316.992v390.207H2944.71z"/></g></g><g clip-path="url(#w)"><g clip-path="url(#x)"><path fill="#212120" fill-opacity="1" fill-rule="nonzero" stroke="none" d="M3218.5 238.68h349.828v390.207H3218.5z"/></g></g><g clip-path="url(#y)"><g clip-path="url(#z)"><path fill="#212120" fill-opacity="1" fill-rule="nonzero" stroke="none" d="M3505.16 233.359h329.422v400.859H3505.16z"/></g></g><g clip-path="url(#A)"><g clip-path="url(#B)"><path fill="#212120" fill-opacity="1" fill-rule="nonzero" stroke="none" d="M3819.78 238.684h278.828v390.207H3819.78z"/></g></g><g clip-path="url(#C)"><g clip-path="url(#D)"><path fill="#212120" fill-opacity="1" fill-rule="nonzero" stroke="none" d="M4078.48 238.684h356.484v390.207H4078.48z"/></g></g><g clip-path="url(#E)"><g clip-path="url(#F)"><path fill="#212120" fill-opacity="1" fill-rule="nonzero" stroke="none" d="M4429.93 238.684h278.828v390.207H4429.93z"/></g></g><g clip-path="url(#G)"><g clip-path="url(#H)"><path fill="#212120" fill-opacity="1" fill-rule="nonzero" stroke="none" d="M4689.07 238.684h316.992v390.207H4689.07z"/></g></g><g clip-path="url(#I)"><g clip-path="url(#J)"><path fill="#212120" fill-opacity="1" fill-rule="nonzero" stroke="none" d="M4975.74 238.672h318.773v390.223H4975.74z"/></g></g><g clip-path="url(#K)"><g clip-path="url(#L)"><path fill="#212120" fill-opacity="1" fill-rule="nonzero" stroke="none" d="M5206.93 233.359h166.125v169.215H5206.93z"/></g></g><g clip-path="url(#M)"><g clip-path="url(#N)"><path fill="#151616" fill-opacity="1" fill-rule="nonzero" stroke="none" d="M303.191 990.191h1729.32v1853.52H303.191z"/></g></g><g clip-path="url(#O)"><g clip-path="url(#P)"><path fill="#151616" fill-opacity="1" fill-rule="nonzero" stroke="none" d="M2399.97 1797.39h413.508v1061.69H2399.97z"/></g></g><g clip-path="url(#Q)"><g clip-path="url(#R)"><path fill="#151616" fill-opacity="1" fill-rule="nonzero" stroke="none" d="M3093.89 998.098h2301.55v1864.01H3093.89z"/></g></g><g clip-path="url(#S)"><g clip-path="url(#T)"><path fill="#8fdaf4" fill-opacity="1" fill-rule="nonzero" stroke="none" d="M1657.38 990.199h719.238v717.465H1657.38z"/></g></g><g clip-path="url(#U)"><g clip-path="url(#V)"><path fill="#fcdf4e" fill-opacity="1" fill-rule="nonzero" stroke="none" d="M2399.97 995.992h413.508v711.672H2399.97z"/></g></g><g clip-path="url(#W)"><g clip-path="url(#X)"><path fill="#7ce292" fill-opacity="1" fill-rule="nonzero" stroke="none" d="M2870.05 998.098h588.402v709.566H2870.05z"/></g></g></g></svg>