<svg xmlns="http://www.w3.org/2000/svg" role="img" viewBox="130.60 128.60 748.80 321.80"><title>Akamai (member) logo</title><style>svg {enable-background:new 0 0 1007.9 581.5}</style><style>.st0{fill:#f93}</style><path d="M865.2 294.9c0 8.5-6.9 15.3-15.3 15.3s-15.3-6.8-15.3-15.3c0-8.4 6.8-15.3 15.3-15.3s15.3 6.9 15.3 15.3m-499 85.9l1.8 20.4h32.3l-10.9-118.7h-48.1l-60.8 118.7h32.9l10.2-20.4h42.6zm-1.4-23.2h-29.5l25.4-51.4h.3l3.8 51.4zm80.5-8.4h4.8l23.1-31.2h29.9l-31.9 39.9 19.6 43.3H459l-12.8-33.8h-4.7l-7.2 33.8h-27.2l25.2-118.8h27.2z" class="st0"/><path d="M545.6 401.2h27.2l11-51.9c6-28.7-4.9-32.2-32.8-32.2-19.4 0-38.2-.2-43.8 25.6h27.2c1.5-7.5 6.2-9 13-9 11.8 0 11.3 4.9 9.6 12.6l-2.8 13.2h-1.3c-1-9.5-12.9-9.4-20.7-9.4-19.7 0-31.4 6.2-35.6 26.1-4.5 21.2 5.6 25.8 24.6 25.8 9.5 0 22.2-1.9 26.7-13.3h.9l-3.2 12.5zm-7.6-34.4c8.9 0 14.7.6 13.3 7.6-1.9 8.7-5.6 10.1-17 10.1-4.2 0-11.9 0-10-9 1.6-7.6 7-8.7 13.7-8.7m89.7-48.8l-2.5 11.7h1.1c5.4-9.8 16.2-12.7 25.5-12.7 11.7 0 23.3 2 21.7 16.3h1.3c4-11.8 16.1-16.3 26.6-16.3 19.2 0 27.3 7.9 23.2 27.3l-12.1 56.8h-27.2l10.2-48.1c1.3-8.7 2.9-15-7.7-15s-14.1 7.1-16 16l-10 47.2h-27.2l10.7-50.3c1.3-7.6 1.9-12.8-7.6-12.8-11.2 0-14.6 6-16.6 16L611 401.3h-27.2l17.7-83.1h26.2zm147.2 83.2h27.2l11-51.9c6.1-28.7-4.9-32.2-32.7-32.2-19.5 0-38.3-.2-43.8 25.6H764c1.5-7.5 6.2-9 12.9-9 11.9 0 11.3 4.9 9.7 12.6l-2.8 13.2h-1.3c-1-9.5-12.9-9.4-20.6-9.4-19.6 0-31.4 6.2-35.6 26.1-4.5 21.2 5.6 25.8 24.6 25.8 9.5 0 22.2-1.9 26.8-13.3h.9l-3.7 12.5zm-7.5-34.4c8.8 0 14.7.6 13.3 7.6-1.8 8.7-5.6 10.1-17 10.1-4.1 0-11.9 0-10-9 1.6-7.6 7-8.7 13.7-8.7" class="st0"/><path d="M841.4 401.2h-27.2l17.6-83.2h27.3z" class="st0"/><g><path fill="#009cde" d="M294.3 429.8c6.9 2.1 6.6 6.5-1 6.5-81.6 0-147.8-65.7-147.8-146.6 0-81 66.2-146.6 147.8-146.6 7.6 0 9.2 4.1 2.9 5.9C234.8 166.8 190 223.1 190 289.7c.1 65.9 44 121.7 104.3 140.1M218.1 324c-.4-3.9-.6-7.9-.6-11.9 0-64.3 52.1-116.4 116.4-116.4 60.8 0 79 27.1 81.3 25.4 2.5-2-22.1-55.7-93.4-55.7-64.3 0-116.4 52.1-116.4 116.4 0 14.9 2.8 29.1 7.9 42.1 2 5.4 5.3 5.4 4.8.1m48.7-83.9c30.3-13.2 68.3-13.6 105.6-.5 25.1 8.8 39.6 21.3 40.8 20.7 2-.9-14.6-27.1-44.5-38.5-36.2-13.7-75.3-6.5-103.7 15.8-3 2.5-1.9 4.1 1.8 2.5"/></g></svg>