<svg xmlns="http://www.w3.org/2000/svg" role="img" xmlns:xlink="http://www.w3.org/1999/xlink" viewBox="454.15 341.65 1419.20 2124.20"><title>Akri logo</title><defs><path id="a" d="M669.619 1145.631L.197 758.86V.795l669.422 391.51z"/><path id="c" d="M668.321.089l668.464 391.629-668.464 391.629L.568 392.106z"/></defs><g fill="none" fill-rule="evenodd" stroke="none" stroke-width="1"><path fill="#3E446F" d="M921.44672 2367.97631h-65.38683l-17.50356 58.06733h-44.852l84.49798-251.09118h21.62508l84.49799 251.09118h-45.65294l-17.22572-58.06733zm-55.60899-32.43762h45.98635l-22.80923-76.88917-23.17712 76.88917zm204.98796 6.00696l-14.81718 14.81719v69.6808h-46.05341v-268.71161h49.25712v3.60418c-1.33488 1.60186-2.20255 3.33719-2.60302 5.20603-.40046 1.86885-.60069 5.07253-.60069 9.61115v131.35233l71.28266-68.87988c2.13582.26697 4.4051.60069 6.8079 1.00116 2.4028.40046 4.80556.73418 7.20836 1.00116s4.80556.46721 7.20836.6007c2.4028.13348 4.4051.20023 6.00696.20023h21.62508l-74.08591 72.48406 84.09752 112.13003-51.65991 2.00232-63.67384-86.09985zm196.63103-71.74033c.51163-1.07275 1.0557-2.12158 1.63223-3.14651 3.60419-6.40746 8.14274-12.01391 13.61579-16.81951 5.47304-4.80559 11.47994-8.40974 18.02089-10.81253 6.54095-2.4028 13.28204-3.60418 20.22346-3.60418 10.41212 0 19.82294 1.66858 28.23274 5.0058 8.40979 3.33722 16.21877 8.74344 23.42716 16.21881l-19.22229 38.04412-1.20139 3.20371-3.60418-1.60185c-.80093-2.13582-1.60185-4.33836-2.40279-6.60767-.80093-2.26931-2.80323-4.8723-6.00696-7.80905-3.73769-2.93676-7.67555-5.20603-11.8137-6.8079-4.13816-1.60186-8.60996-2.40278-13.41556-2.40278-6.40746 0-12.54786 1.06789-18.42136 3.20371-5.87351 2.13582-11.01275 5.47299-15.41788 10.01161-4.40513 4.53862-7.87579 10.3453-10.41208 17.4202-2.53628 7.07491-3.80441 15.41783-3.80441 25.02903v97.71331h-46.05341v-186.21595h46.85434l-.2306 29.97763zm134.50298 156.23832v-35.64133h45.65294v-114.93328h-43.25015v-35.64134h88.90309v150.57462h41.6483v35.64133H1401.9597zm66.47709-217.0517c-7.74235 0-14.41669-2.66974-20.02322-8.00929-5.60653-5.33956-8.40975-11.74692-8.40975-19.22229 0-8.00933 2.66973-14.55019 8.00929-19.62276 5.33955-5.07258 12.14737-7.60882 20.42368-7.60882 7.47537 0 14.08297 2.66973 19.82299 8.00928 5.74002 5.33956 8.60998 11.74692 8.60998 19.2223 0 7.47537-2.86996 13.88273-8.60998 19.22229-5.74002 5.33955-12.34762 8.00929-19.82299 8.00929z"/><g transform="rotate(180 916.655 960.398)"><g transform="translate(666.606 .028)"><mask id="b" fill="#fff"><use xlink:href="#a"/></mask><use fill="#78FFC9" xlink:href="#a"/><path fill="#3E446F" fill-rule="nonzero" d="M456.61 887.366V510.958l-467.252-278.01v407.871l10.273 4.404 105.287 64.923v142.968l124.971 56.678V640.819l-126.661-79.071V441.807l237.818 140.9v387.454l344.845 199.185V378.531L-4.13-16.971v136.844l3.761 6.997 559.051 329.404v489.367z" mask="url(#b)"/></g><g transform="translate(.153 753.974)"><mask id="d" fill="#fff"><use xlink:href="#c"/></mask><use fill="#FFF" xlink:href="#c"/><path fill="#3E446F" fill-rule="nonzero" d="M1336.046 391.502L668.518 783.278.486 392.026l119.382-70.631L668.29 642.429l562.068-328.051L907.133 128.47l-9.83 5.581-228.785 126.581-124.83-76.168-108.285 63.134 233.115 133.889 227.875-128.474 124.659 73.78-351.624 198.834-455.552-261.816L572.961 54.595l97.376 60.47 148.57-80.132 554.373 310.681z" mask="url(#d)"/></g><g fill-rule="nonzero" transform="translate(0 .91)"><path fill="#8CCFCE" d="M667.446.424L.96 393.713v750.46l666.486-391.232z"/><path fill="#524886" d="M119.695 1075.588V676.744L459.6 484.29v126.127L217.606 746.694v271.72l121.354-70.977V815.564l229.563-133.006V290.667L1.028 615.814l-.375 529.572z"/><path fill="#524886" d="M667.373.057v125.699L.575 514.394l-.57-120.356z"/></g></g></g></svg>