<svg xmlns="http://www.w3.org/2000/svg" role="img" viewBox="-3.91 -3.41 450.32 271.07"><title>AKS logo</title><defs><style>.cls-1{fill:#814b99}.cls-2{fill:#682a7a}</style></defs><path d="M210.266 55.972l-41.928 16.192V5.248l41.928 14.543v36.181z" class="cls-1"/><path d="M152.04659 62.46863l-2.7486-.89954V15.49276l2.7486-.54972 2.74859-1.09943 3.29831-1.09944V64.0678l-3.34828-1.14941zm-9.89493-3.24833l-2.049-.54972V18.3413l2.19887-.54972 2.19887-.54972 2.1489-.54972v44.22729l-2.1489-.54972zm-8.14581-1.999l-1.69912-.54973v-36.3313l1.64914-.54972 1.64916-.54972 1.69913-.54972v39.47974l-1.44925-.54972zm-3.24833-40.4792v43.57763l30.98408 11.84391V5.69779z" class="cls-2"/><path d="M307.816 55.972l-41.928 16.192V5.248l41.928 14.543v36.181z" class="cls-1"/><path d="M249.5465 62.46863l-2.7486-1.09943V15.49276l2.7486-.54972 2.74859-1.09943 3.14838-1.09944V64.0678l-3.14838-1.14941zm-9.9449-3.24833l-2.19887-.54972V18.3413l2.19887-.54972 2.14889-.54972 2.19887-.54972v44.22729l-2.19887-.54972zm-8.19579-2.1489l-1.64915-.54972V20.34027l1.64915-.54972 1.64916-.54972 1.64915-.54972v39.47974l-1.64915-.54972zm-3.14838-40.52917v43.7775l31.03406 11.84391V5.69779z" class="cls-2"/><path d="M210.266 188.804l-41.928 16.141V138.03l41.928 14.592v36.182z" class="cls-1"/><path d="M152.04659 195.2504l-2.74859-1.0994v-45.87646l2.7486-.54971 2.69861-1.1494 3.29831-1.09944v51.42357l-3.29831-1.04946zm-9.89493-3.24834l-2.049-.7496v-40.2793l2.19887-.54971 2.19887-.54971 2.1489-.54971v44.37716l-2.1489-.54971zm-8.14581-2.14889l-1.69912-.49974V153.172l1.64914-.54972 1.64916-.54971 1.69913-.54971v39.37976l-1.44925-.49974zm-3.24833-40.4792v43.77751l30.98408 11.84392v-66.46584z" class="cls-2"/><path d="M307.816 188.804l-41.928 16.141V138.03l41.928 14.592v36.182z" class="cls-1"/><path d="M249.5465 195.2504l-2.7486-1.09944v-45.87642l2.7486-.54971 2.74859-1.09944 3.29825-1.0994v51.32362l-3.29831-1.04945zm-9.9449-3.24834l-2.19887-.54971v-40.4792l2.19887-.54971 2.14889-.54972 2.19887-.54971v44.37718l-2.19887-.54971zm-8.19579-2.14889l-1.64915-.54971V153.172l1.64915-.54972 1.64916-.54971 1.64915-.54971v39.37976l-1.64915-.54971zm-3.14838-40.4792v43.77751l31.03406 11.84392v-66.46584z" class="cls-2"/><path d="M262.04 122.388l-41.379 15.642V71.614l41.379 14.642v36.132z" class="cls-1"/><path d="M203.72 128.83452l-2.7486-1.09944V81.85866l2.7486-.54973 2.74859-1.09942 3.29831-1.09943v51.32361l-3.24834-1.09944zm-9.89492-3.24832l-2.19887-.54972V84.60724l2.19887-.54972 2.19887-.54972 2.1489-.54972v44.37721l-2.1489-.54972zm-8.14581-2.69862l-1.69913-.49974V86.20643l1.64916-.54972 1.64915-.54972 1.64916-.54972V123.937l-1.64916-.54972zm-3.19827-40.4792v43.77751l31.184 11.89387V71.564z" class="cls-2"/><path d="M165.09 122.388l-41.429 15.642V71.614l41.429 14.642v36.132z" class="cls-1"/><path d="M106.76985 128.83452l-2.74859-1.09944V81.85866l2.74859-.54973 2.74859-1.09942 3.29831-1.09943v51.32361l-3.29831-1.09944zm-9.84494-3.24832l-2.19887-.54972V84.60724l2.19887-.54972 2.19887-.54972 2.09892-.29985v44.07734l-2.14891-.54972zm-8.1958-2.69862l-1.64911-.54972V86.20643l1.64914-.54972 1.7491-.59969 1.64915-.54972v39.37977l-1.64915-.44977zm-3.19834-40.4792v43.77751l30.98408 11.89387V71.564z" class="cls-2"/><path d="M357.89 122.388l-41.328 15.642V71.614l41.328 14.642v36.132zM168.338 5.248v66.916l41.928-16.192V19.791L168.338 5.248zm97.55 0v66.916l41.928-16.192V19.791L265.888 5.248zm-97.55 132.782v66.915l41.928-16.141v-36.182l-41.928-14.592zm97.55 0v66.915l41.928-16.141v-36.182l-41.928-14.592zm-45.227-66.416v66.416l41.379-15.642V86.256l-41.379-14.642zm-97 0v66.416l41.429-15.642V86.256l-41.429-14.642z" class="cls-1"/><path d="M316.562 71.614v66.416l41.328-15.642V86.256l-41.328-14.642z" class="cls-1"/><path d="M299.72069 128.83452l-2.74859-1.09944V81.85866l2.74859-.54973 2.7486-1.09942 3.29831-1.09943v51.32361l-3.3483-1.09944zm-9.84494-3.24832l-2.19888-.54972V84.60724l2.19888-.54972 2.1489-.54972 2.19888-.54972v44.37721l-2.19888-.54972zm-8.1958-2.69862l-1.64914-.54972V86.20643l1.64914-.54972 1.64914-.54972 1.64914-.54972V123.937l-1.64914-.54972zm-3.19836-40.4792v43.77751l31.03405 11.89387V71.564z" class="cls-2"/><path d="M12.03271 233.2666h4.791l7.16992 20.26465h-4.59177l-1.33741-4.166h-7.4624l-1.374 4.166H4.79883zm-.2788 12.60742h5.18945l-2.55957-7.97461zm13.64892-4.13867v-3.18945h11.85059v3.25879l-7.353 8.50976h7.61426v3.2168H24.88037v-3.05176l7.42822-8.74414zm18.83447-3.18945v9.03222a4.74831 4.74831 0 0 0 .30079 1.92481 2.08173 2.08173 0 0 0 2.09326 1.1416 2.73466 2.73466 0 0 0 2.73584-1.62305 5.89312 5.89312 0 0 0 .3833-2.32324v-8.15234h3.97314v14.98535H49.915v-2.11719c-.03613.0459-.12793.1836-.27393.41211a2.74951 2.74951 0 0 1-.521.60547 5.42984 5.42984 0 0 1-1.77539 1.127 6.04654 6.04654 0 0 1-2.0083.30274q-3.31788 0-4.46924-2.39258a9.17367 9.17367 0 0 1-.64453-3.89063v-9.03227zm21.6187-.35059q.07544.00733.33691.02051v4.01465q-.37134-.041-.66016-.05469c-.19238-.00976-.34814-.01367-.46728-.01367a3.2491 3.2491 0 0 0-3.17578 1.53906 5.996 5.996 0 0 0-.45361 2.667v7.16309h-3.94585V238.5459H61.23v2.6123a8.29741 8.29741 0 0 1 1.58106-2.04882 4.3066 4.3066 0 0 1 2.85937-.9209c.07322 0 .13523.00195.18557.00683zm12.39791.6543a6.09238 6.09238 0 0 1 2.58984 2.2168 7.36529 7.36529 0 0 1 1.19385 3.09765 19.13269 19.13269 0 0 1 .1289 2.97461H71.25244a3.59794 3.59794 0 0 0 1.5669 3.16211 3.98024 3.98024 0 0 0 2.16064.56348 3.04222 3.04222 0 0 0 2.98193-1.71875h4.00049a4.88983 4.88983 0 0 1-1.45263 2.708 7.28 7.28 0 0 1-5.6377 2.18652 8.16806 8.16806 0 0 1-5.27881-1.84375q-2.28661-1.84423-2.28662-6a8.11036 8.11036 0 0 1 2.06445-5.9707 7.22232 7.22232 0 0 1 5.35891-2.07812 8.53427 8.53427 0 0 1 3.52391.70215zm-5.86133 3.38477a4.06912 4.06912 0 0 0-1.04395 2.31933h6.75049a3.2715 3.2715 0 0 0-1.04394-2.36816 3.43563 3.43563 0 0 0-2.32373-.80762 3.10548 3.10548 0 0 0-2.33887.85645zm19.96289-8.96778H96.521v8.34961l7.82959-8.34961h5.47168l-8.31592 8.334 8.74219 11.93066h-5.44434l-6.24365-8.8457-2.03955 2.06835v6.77734h-4.16553zm23.85253 5.2793v9.03222a4.74851 4.74851 0 0 0 .30078 1.92481 2.08174 2.08174 0 0 0 2.09326 1.1416 2.73465 2.73465 0 0 0 2.73584-1.62305 5.89312 5.89312 0 0 0 .3833-2.32324v-8.15234h3.97315v14.98535h-3.8086v-2.11719c-.03613.0459-.12793.1836-.27392.41211a2.74982 2.74982 0 0 1-.521.60547 5.42973 5.42973 0 0 1-1.77539 1.127 6.04649 6.04649 0 0 1-2.0083.30274q-3.31788 0-4.46924-2.39258a9.17367 9.17367 0 0 1-.64453-3.89063v-9.03227zm26.08985 1.80078a8.61439 8.61439 0 0 1 1.68115 5.499 9.6332 9.6332 0 0 1-1.6582 5.78809 6.0202 6.0202 0 0 1-7.62793 1.55371 5.95822 5.95822 0 0 1-1.46484-1.54v1.88379h-3.86328V233.294h3.91845v7.2041a5.73445 5.73445 0 0 1 1.64649-1.59473 4.9164 4.9164 0 0 1 2.71191-.6875 5.60353 5.60353 0 0 1 4.65625 2.13081zm-3.27539 9.12891a5.5485 5.5485 0 0 0 .8457-3.2168 7.20489 7.20489 0 0 0-.41552-2.63965 2.89526 2.89526 0 0 0-2.91114-1.97949 2.93914 2.93914 0 0 0-2.95263 1.93847 7.21405 7.21405 0 0 0-.416 2.667 5.5511 5.5511 0 0 0 .85986 3.18945 2.951 2.951 0 0 0 2.61963 1.26465 2.71811 2.71811 0 0 0 2.3701-1.22363zm17.44336-10.62598a6.09238 6.09238 0 0 1 2.58984 2.2168 7.36529 7.36529 0 0 1 1.19385 3.09765 19.1337 19.1337 0 0 1 .12891 2.97461h-10.91406a3.59792 3.59792 0 0 0 1.56689 3.16211 3.98027 3.98027 0 0 0 2.16064.56348 3.04222 3.04222 0 0 0 2.98194-1.71875h4.00049a4.88985 4.88985 0 0 1-1.45264 2.708A7.28 7.28 0 0 1 153.084 254.04a8.168 8.168 0 0 1-5.2788-1.84375q-2.28663-1.84423-2.28663-6a8.11032 8.11032 0 0 1 2.06446-5.9707 7.22229 7.22229 0 0 1 5.35888-2.07813 8.53423 8.53423 0 0 1 3.52391.70219zm-5.86133 3.38477a4.06911 4.06911 0 0 0-1.04394 2.31933h6.75045a3.27151 3.27151 0 0 0-1.04395-2.36816 3.4356 3.4356 0 0 0-2.32373-.80762 3.10548 3.10548 0 0 0-2.33883.85645zm20.08008-4.03907q.07543.00733.33691.02051v4.01465q-.37132-.041-.66015-.05469c-.19238-.00976-.34815-.01367-.46729-.01367a3.2491 3.2491 0 0 0-3.17578 1.53906 5.99611 5.99611 0 0 0-.45361 2.667v7.16309h-3.9458V238.5459h3.73974v2.6123a8.29741 8.29741 0 0 1 1.58106-2.04882 4.3066 4.3066 0 0 1 2.85937-.9209c.07325 0 .13526.00195.18555.00683zm14.71631 1.20996a4.95708 4.95708 0 0 1 1.47168 4.03516v10.09082h-4.01416V244.416a4.18255 4.18255 0 0 0-.314-1.81446 2.20545 2.20545 0 0 0-2.18359-1.15527 2.70726 2.70726 0 0 0-2.71582 1.69141 5.84376 5.84376 0 0 0-.38232 2.28222v8.11133h-3.918v-14.958h3.79443v2.18653a6.63007 6.63007 0 0 1 1.42383-1.66407 4.935 4.935 0 0 1 3.05273-.90722 5.74121 5.74121 0 0 1 3.78522 1.2168zm14.87988-.55566a6.09246 6.09246 0 0 1 2.58985 2.2168 7.36527 7.36527 0 0 1 1.19384 3.09765 19.1337 19.1337 0 0 1 .12891 2.97461H193.2793a3.59792 3.59792 0 0 0 1.56689 3.16211 3.98028 3.98028 0 0 0 2.16065.56348 3.04222 3.04222 0 0 0 2.98193-1.71875h4.00049a4.88985 4.88985 0 0 1-1.45264 2.708 7.28 7.28 0 0 1-5.63769 2.18652 8.16806 8.16806 0 0 1-5.27881-1.84375q-2.28663-1.84423-2.28662-6a8.11032 8.11032 0 0 1 2.06445-5.9707 7.22232 7.22232 0 0 1 5.35889-2.07813 8.53419 8.53419 0 0 1 3.52392.70216zm-5.86133 3.38477a4.06911 4.06911 0 0 0-1.04394 2.31933h6.75051a3.27151 3.27151 0 0 0-1.04395-2.36816 3.4356 3.4356 0 0 0-2.32373-.80762 3.10548 3.10548 0 0 0-2.33889.85645zm10.21582-.75977v-2.791h2.08985v-4.17968h3.87695v4.17968h2.43359v2.791h-2.43359v7.91894a1.78044 1.78044 0 0 0 .23389 1.14747 2.57258 2.57258 0 0 0 1.42968.22656c.11915 0 .24512-.002.37793-.00684a8.47067 8.47067 0 0 0 .39209-.02051v2.92877l-1.85644.06835q-2.77662.09669-3.79443-.96191a2.86646 2.86646 0 0 1-.65967-2.07617v-9.22461zm20.68116-2.625a6.08989 6.08989 0 0 1 2.58886 2.2168 7.36585 7.36585 0 0 1 1.19434 3.09765 19.1337 19.1337 0 0 1 .12891 2.97461h-10.91407a3.595 3.595 0 0 0 1.56739 3.16211 3.97854 3.97854 0 0 0 2.16015.56348 3.0439 3.0439 0 0 0 2.98242-1.71875h4a4.88774 4.88774 0 0 1-1.45312 2.708 7.27927 7.27927 0 0 1-5.6377 2.18652 8.16676 8.16676 0 0 1-5.27832-1.84375q-2.28661-1.84423-2.28662-6a8.11032 8.11032 0 0 1 2.06446-5.9707 7.22228 7.22228 0 0 1 5.35888-2.07813 8.54144 8.54144 0 0 1 3.52442.70216zm-5.86231 3.38477a4.07221 4.07221 0 0 0-1.04394 2.31933h6.751a3.26962 3.26962 0 0 0-1.04394-2.36816 3.4369 3.4369 0 0 0-2.32422-.80762 3.107 3.107 0 0 0-2.3389.85645zm14.7949 6.51269a2.60787 2.60787 0 0 0 .53809 1.48438 3.65415 3.65415 0 0 0 2.708.78417 4.15192 4.15192 0 0 0 1.84375-.34374 1.15185 1.15185 0 0 0 .13281-2.03516 22.50977 22.50977 0 0 0-4.09863-1.18164 8.521 8.521 0 0 1-3.59864-1.58106 3.42706 3.42706 0 0 1-1.04492-2.69531 4.67118 4.67118 0 0 1 1.63184-3.56738 6.56938 6.56938 0 0 1 4.5957-1.49121 8.44 8.44 0 0 1 4.58008 1.12011 4.79432 4.79432 0 0 1 2.03223 3.87012h-3.918a2.3158 2.3158 0 0 0-.42676-1.19629 2.696 2.696 0 0 0-2.20606-.79687 3.181 3.181 0 0 0-1.82714.39843 1.14727 1.14727 0 0 0-.54395.93458 1.02275 1.02275 0 0 0 .5791.97656 25.11439 25.11439 0 0 0 4.09082 1.08594 7.5034 7.5034 0 0 1 3.50977 1.66308 3.7761 3.7761 0 0 1 1.15527 2.81836 4.55084 4.55084 0 0 1-1.66015 3.63672 7.81062 7.81062 0 0 1-5.13184 1.40918q-3.54052 0-5.22754-1.49219a4.84669 4.84669 0 0 1-1.6875-3.80078zm23.81057-1.4707a4.11233 4.11233 0 0 0 .77246 2.07519 4.495 4.495 0 0 0 3.60742 1.251 7.766 7.766 0 0 0 2.48438-.3291 2.35876 2.35876 0 0 0 1.81152-2.35156 1.73275 1.73275 0 0 0-.88769-1.55372 9.63066 9.63066 0 0 0-2.81348-.94824l-2.19336-.48144a13.65767 13.65767 0 0 1-4.44434-1.55371A4.939 4.939 0 0 1 254.34766 239a5.82272 5.82272 0 0 1 2.00488-4.52344 8.54338 8.54338 0 0 1 5.88672-1.80078 9.02842 9.02842 0 0 1 5.53222 1.69727 6.03781 6.03781 0 0 1 2.4004 4.92871h-4.06934a2.89949 2.89949 0 0 0-1.63477-2.59766 5.59057 5.59057 0 0 0-2.52246-.50879 4.80632 4.80632 0 0 0-2.67871.65918 2.08935 2.08935 0 0 0-1 1.84278 1.73706 1.73706 0 0 0 .98633 1.62207 12.29456 12.29456 0 0 0 2.69238.83886l3.55567.83887a9.0339 9.0339 0 0 1 3.50488 1.4707 4.95833 4.95833 0 0 1 1.8125 4.1377 5.81552 5.81552 0 0 1-2.14746 4.61328 9.0637 9.0637 0 0 1-6.06543 1.835 9.9159 9.9159 0 0 1-6.29492-1.80762 5.98221 5.98221 0 0 1-2.292-4.96972zm25.17676-8.42676a6.09 6.09 0 0 1 2.58887 2.2168 7.366 7.366 0 0 1 1.19433 3.09765 19.1337 19.1337 0 0 1 .12891 2.97461h-10.91406a3.59493 3.59493 0 0 0 1.56738 3.16211 3.97854 3.97854 0 0 0 2.16015.56348 3.0439 3.0439 0 0 0 2.98243-1.71875h4a4.88783 4.88783 0 0 1-1.45313 2.708 7.27927 7.27927 0 0 1-5.63769 2.18652 8.16674 8.16674 0 0 1-5.27832-1.84375q-2.28663-1.84423-2.28614-6a8.10831 8.10831 0 0 1 2.06446-5.9707 7.22114 7.22114 0 0 1 5.35839-2.07813 8.54144 8.54144 0 0 1 3.52442.70216zm-5.86231 3.38477a4.06524 4.06524 0 0 0-1.043 2.31933h6.75a3.26959 3.26959 0 0 0-1.04394-2.36816 3.43688 3.43688 0 0 0-2.32422-.80762 3.107 3.107 0 0 0-2.33886.85645zm20.08106-4.03907c.0498.00489.16211.01172.33594.02051v4.01465q-.37061-.041-.65918-.05469c-.19239-.00976-.34864-.01367-.46778-.01367a3.25 3.25 0 0 0-3.17578 1.53906 5.9902 5.9902 0 0 0-.45312 2.667v7.16309h-3.94629V238.5459h3.73925v2.6123a8.30928 8.30928 0 0 1 1.58106-2.04882 4.30932 4.30932 0 0 1 2.86035-.9209c.07324 0 .13477.00195.18555.00683zm11.86426.35059h4.207l-5.41211 14.98535h-4.13083l-5.374-14.98535h4.39941l3.12109 11.05371zm10.45507-1.78711h-3.97265v-3.61621h3.97265zm-3.97265 1.78711h3.97265v14.98535h-3.97265zm16.73047 5.37598a3.47378 3.47378 0 0 0-.56446-1.5127 2.37361 2.37361 0 0 0-2.05371-.90723 2.70276 2.70276 0 0 0-2.71484 1.96582 8.1487 8.1487 0 0 0-.38574 2.76953 7.4969 7.4969 0 0 0 .38574 2.64747 2.62033 2.62033 0 0 0 2.64551 1.86914 2.335 2.335 0 0 0 1.957-.74219 3.69525 3.69525 0 0 0 .70312-1.92481h4.001a6.55094 6.55094 0 0 1-1.29395 3.38184 6.291 6.291 0 0 1-5.4629 2.57125q-3.61962 0-5.32617-2.14453a8.66228 8.66228 0 0 1-1.70605-5.56153 8.79019 8.79019 0 0 1 1.88476-6.001 6.56642 6.56642 0 0 1 5.20215-2.14453 7.84188 7.84188 0 0 1 4.61719 1.26464q1.79589 1.26564 2.126 4.46876zm16.46093-5.07227a6.08986 6.08986 0 0 1 2.58887 2.2168 7.36585 7.36585 0 0 1 1.19434 3.09765 19.134 19.134 0 0 1 .1289 2.97461h-10.91406a3.595 3.595 0 0 0 1.56738 3.16211 3.97858 3.97858 0 0 0 2.16016.56348 3.0439 3.0439 0 0 0 2.98242-1.71875h4a4.88781 4.88781 0 0 1-1.45312 2.708 7.27927 7.27927 0 0 1-5.6377 2.18652 8.16676 8.16676 0 0 1-5.27832-1.84375q-2.28661-1.84423-2.28613-6a8.10834 8.10834 0 0 1 2.06445-5.9707 7.22118 7.22118 0 0 1 5.3584-2.07813 8.54136 8.54136 0 0 1 3.52441.70216zm-5.8623 3.38477a4.06518 4.06518 0 0 0-1.043 2.31933h6.75a3.26962 3.26962 0 0 0-1.04394-2.36816 3.4369 3.4369 0 0 0-2.32422-.80762 3.107 3.107 0 0 0-2.33884.85645zm20.58203-3.85352a29.43015 29.43015 0 0 1 3.17578-5.44434h2.95606l-.83887 1.54a22.94315 22.94315 0 0 0-2.40625 6.6543 26.35363 26.35363 0 0 0-.43945 4.97656 23.4959 23.4959 0 0 0 1.22363 7.74024 35.32087 35.32087 0 0 0 2.5293 5.36132h-2.90039l-.97657-1.333a17.90682 17.90682 0 0 1-2.02051-3.60254 20.50507 20.50507 0 0 1-1.91113-8.41309 18.66521 18.66521 0 0 1 1.6084-7.47945zm14.48438-5.11426h4.791l7.16992 20.26465h-4.59179l-1.33692-4.166h-7.46288l-1.374 4.166h-4.42871zm-.27927 12.6074h5.19043l-2.56055-7.97461zm14.88669-12.6074h4.165v8.34961l7.83007-8.34961h5.47071l-8.31543 8.334 8.74219 11.93066h-5.44434l-6.24316-8.8457-2.04 2.06836v6.77734h-4.165zm23.31543 14.00977a4.11224 4.11224 0 0 0 .77246 2.07519 4.495 4.495 0 0 0 3.60742 1.251 7.76607 7.76607 0 0 0 2.48438-.3291 2.35877 2.35877 0 0 0 1.81152-2.35156 1.73274 1.73274 0 0 0-.8877-1.55372 9.63058 9.63058 0 0 0-2.81347-.94824l-2.19336-.48144a13.65767 13.65767 0 0 1-4.44434-1.55371A4.939 4.939 0 0 1 412.4082 239a5.82273 5.82273 0 0 1 2.00489-4.52344 8.54335 8.54335 0 0 1 5.88671-1.80078 9.02845 9.02845 0 0 1 5.53223 1.69727 6.0378 6.0378 0 0 1 2.40039 4.92871h-4.06933a2.89949 2.89949 0 0 0-1.63477-2.59766 5.59063 5.59063 0 0 0-2.52246-.50879 4.80632 4.80632 0 0 0-2.67871.65918 2.08935 2.08935 0 0 0-1 1.84278 1.737 1.737 0 0 0 .98633 1.62207 12.29456 12.29456 0 0 0 2.69238.83886l3.55566.83887a9.034 9.034 0 0 1 3.50489 1.4707 4.95836 4.95836 0 0 1 1.8125 4.1377 5.81552 5.81552 0 0 1-2.14746 4.61328 9.0637 9.0637 0 0 1-6.06543 1.835 9.916 9.916 0 0 1-6.29493-1.80762 5.9822 5.9822 0 0 1-2.292-4.96972zm20.0625-8.89551a18.69427 18.69427 0 0 1 1.60547 7.47949 20.5454 20.5454 0 0 1-1.90723 8.41309 17.91918 17.91918 0 0 1-2.01758 3.60254l-.97461 1.333h-2.89551a35.51218 35.51218 0 0 0 2.52051-5.36132 23.59892 23.59892 0 0 0 1.21875-7.74024 26.438 26.438 0 0 0-.43847-4.97656 22.95076 22.95076 0 0 0-2.39747-6.6543l-.835-1.54h2.9502a29.54967 29.54967 0 0 1 3.17094 5.4443z"/></svg>