<svg viewBox="-5.22 -5.22 271.44 264.44" xmlns="http://www.w3.org/2000/svg" xmlns:xlink="http://www.w3.org/1999/xlink"><title>Alcide</title><use fill="#0031E2" xlink:href="#path0_fill"/><defs><path id="path0_fill" fill-rule="evenodd" d="M129.063 139.611c-32.072 0-60.544-18.086-74.278-28.502l74.278-77.98 74.28 77.98c-13.743 10.42-42.211 28.502-74.28 28.502zm22.023-43.561l-22.224-22.2-22.224 22.2 22.224 22.2 22.224-22.2zM30.073 120.219c1.798 1.718 44.704 42.054 98.99 42.054 54.288 0 97.194-40.336 98.992-42.054l8.132-7.757L129.063 0 21.941 112.462l8.132 7.757zm43.888 68.455l-14.777.004.018 66.322 14.778-.004-.019-66.322zm-41.485 30.214c1.963 1.567 3.436 3.666 4.418 6.299l.002 10.25c-1.226 2.131-2.666 3.808-4.323 5.032-1.655 1.222-3.618 1.834-5.887 1.835-1.656 0-3.19-.329-4.6-.986a11.161 11.161 0 0 1-3.636-2.679c-1.013-1.128-1.81-2.459-2.393-3.996-.584-1.535-.875-3.211-.875-5.03 0-1.693.259-3.323.78-4.89.52-1.567 1.271-2.963 2.253-4.185a11.396 11.396 0 0 1 3.45-2.916c1.317-.721 2.774-1.083 4.37-1.083 2.33-.001 4.477.783 6.441 2.349zm-18.898 34.187c2.79 1.283 5.873 1.926 9.246 1.925 3.313-.001 6.119-.707 8.42-2.118 2.299-1.412 4.185-3.465 5.656-6.161l.002 7.334 14.721-.004-.014-48.709-14.721.004.002 7.429c-1.473-2.758-3.575-4.951-6.304-6.581-2.73-1.629-5.813-2.443-9.247-2.442-3.068.001-5.904.66-8.51 1.977a21.037 21.037 0 0 0-6.76 5.409c-1.903 2.289-3.39 5.001-4.462 8.135C.534 222.409 0 225.762 0 229.335c.001 3.699.554 7.1 1.66 10.202 1.104 3.103 2.668 5.815 4.693 8.132a21.293 21.293 0 0 0 7.225 5.406zm67.8-23.909c-.001-3.407.574-6.673 1.724-9.797 1.15-3.124 2.817-5.869 4.997-8.236 2.181-2.367 4.862-4.245 8.043-5.635 3.18-1.387 6.801-2.084 10.86-2.085 5.514-.002 10.15 1.213 13.908 3.64 3.758 2.429 6.576 5.599 8.456 9.511l-14.178 4.453c-1.879-3.155-4.636-4.733-8.272-4.731-3.031 0-5.56 1.17-7.59 3.504-2.03 2.337-3.042 5.46-3.041 9.372 0 1.957.273 3.739.819 5.347.545 1.61 1.303 2.982 2.273 4.117a10.377 10.377 0 0 0 3.41 2.65 9.35 9.35 0 0 0 4.136.945c1.817-.001 3.483-.458 4.998-1.374 1.514-.914 2.636-2.098 3.362-3.55l14.181 4.539c-1.757 3.85-4.558 7.005-8.405 9.468-3.848 2.462-8.53 3.694-14.043 3.696-3.999.001-7.59-.708-10.77-2.127-3.182-1.419-5.88-3.311-8.092-5.677-2.213-2.366-3.895-5.111-5.046-8.234-1.153-3.123-1.73-6.388-1.73-9.796zm51.79-21.863l.014 47.697 14.777-.004-.013-47.697-14.778.004zm-.002-5.451l-.003-13.173 14.778-.005.003 13.174-14.778.004zm54.689 18.732c2.065 1.493 3.592 3.464 4.578 5.913l.003 9.858c-.986 2.032-2.403 3.63-4.252 4.796-1.848 1.165-3.852 1.748-6.009 1.748-1.665.001-3.205-.296-4.623-.893a10.651 10.651 0 0 1-3.654-2.509c-1.017-1.075-1.819-2.359-2.405-3.853-.587-1.493-.879-3.106-.879-4.839-.001-1.614.26-3.182.784-4.706.523-1.523 1.278-2.852 2.265-3.988a11.872 11.872 0 0 1 3.419-2.734c1.295-.687 2.742-1.032 4.346-1.032 2.219-.001 4.36.746 6.427 2.239zm4.584 26.704l.002 6.811 14.702-.003-.019-65.422-14.793.004.006 26.079c-1.541-2.627-3.669-4.718-6.381-6.271-2.714-1.553-5.796-2.329-9.247-2.328-3.083.001-5.933.629-8.553 1.884a21.024 21.024 0 0 0-6.794 5.155c-1.91 2.182-3.389 4.766-4.435 7.753-1.049 2.989-1.571 6.185-1.57 9.59.001 3.526.571 6.766 1.713 9.723 1.141 2.957 2.73 5.542 4.765 7.751a21.336 21.336 0 0 0 7.26 5.151c2.804 1.223 5.871 1.836 9.199 1.835 6.411-.002 11.126-2.572 14.145-7.712zm50.932-30.06c1.878 1.819 2.968 4.294 3.273 7.428l-20.534.006c.302-3.071 1.375-5.532 3.224-7.383 1.846-1.849 4.192-2.775 7.04-2.775 2.785-.001 5.119.907 6.997 2.724zm-25.659 30.192c2.211 2.32 4.908 4.153 8.088 5.499 3.18 1.346 6.769 2.02 10.767 2.019 5.51-.002 10.235-1.225 14.173-3.672 3.936-2.446 6.841-5.612 8.719-9.499l-12.357-3.57c-.667 1.818-1.984 3.26-3.951 4.326-1.969 1.068-4.013 1.6-6.132 1.601-2.667 0-5.044-.86-7.134-2.584-2.089-1.723-3.257-4.245-3.5-7.569l35.252-.01c.122-.626.212-1.364.273-2.21a36.53 36.53 0 0 0 .09-2.586c-.001-3.385-.563-6.613-1.684-9.685-1.122-3.07-2.772-5.782-4.953-8.133-2.181-2.35-4.848-4.213-7.998-5.592-3.15-1.377-6.754-2.066-10.813-2.065-4.058.001-7.676.693-10.856 2.071-3.179 1.38-5.859 3.262-8.039 5.645-2.179 2.383-3.846 5.158-4.995 8.323-1.15 3.166-1.725 6.536-1.723 10.109 0 3.324.576 6.504 1.729 9.544a23.611 23.611 0 0 0 5.044 8.038z"/></defs></svg>