<?xml version="1.0" encoding="UTF-8" standalone="yes"?>
<svg version="1.1" xmlns="http://www.w3.org/2000/svg" xmlns:xlink="http://www.w3.org/1999/xlink" x="0px" y="0px" width="500px" height="221.989px" viewBox="29 31 445 165" enable-background="new 0 0 500 221.989" xml:space="preserve">
  <g id="Layer_2">
    <path fill-rule="evenodd" clip-rule="evenodd" fill="#3B3B3B" d="M47.871,135.024c3.892,0,7.466,0,11.222,0&#xD;&#xA;&#x9;&#x9;c9.785,18.623,15.704,38.626,21.049,59.013c-2.854,0-5.447,0-8.115,0c-1.371-4.928-2.726-9.799-4.096-14.722&#xD;&#xA;&#x9;&#x9;c-9.64,0-19.133,0-28.762,0c-1.62,4.845-2.78,9.819-4.207,14.734c-2.639,0-5.19,0-8.109,0&#xD;&#xA;&#x9;&#x9;C32.165,173.648,38.145,153.686,47.871,135.024z M65.401,171.268c-3.229-9.782-6.66-19.187-11.101-28.189&#xD;&#xA;&#x9;&#x9;c-0.344-0.053-0.603-0.116-0.864-0.124c-0.206-0.006-0.414,0.058-0.728,0.108c-4.412,9.034-7.927,18.436-11.079,28.205&#xD;&#xA;&#x9;&#x9;C49.646,171.268,57.403,171.268,65.401,171.268z"/>
    <path fill-rule="evenodd" clip-rule="evenodd" fill="#3B3B3B" d="M120.083,193.886c0-19.61,0-39.158,0-58.812&#xD;&#xA;&#x9;&#x9;c2.584,0,5.066,0,7.725,0c0,5.31,0,10.571,0,15.956c2.339-0.312,4.485-0.647,6.644-0.875c3.36-0.355,6.716-0.382,10.035,0.422&#xD;&#xA;&#x9;&#x9;c6.179,1.496,9.652,5.808,9.704,12.206c0.049,6.148,0.028,12.3,0.007,18.447c-0.028,7.776-4.712,12.838-12.455,13.638&#xD;&#xA;&#x9;&#x9;c-3.431,0.355-6.836,0.243-10.222-0.27c-3.136-0.473-6.278-0.491-9.431-0.48C121.464,194.121,120.811,194.262,120.083,193.886z&#xD;&#xA;&#x9;&#x9; M127.901,186.18c1.135,0.212,2.125,0.441,3.126,0.575c3.927,0.527,7.854,0.901,11.765-0.159c2.1-0.57,3.289-1.9,3.482-4.068&#xD;&#xA;&#x9;&#x9;c0.1-1.116,0.165-2.237,0.168-3.355c0.017-5.184,0.033-10.368-0.003-15.552c-0.024-3.511-0.984-4.855-4.119-5.506&#xD;&#xA;&#x9;&#x9;c-4.883-1.014-9.631,0.055-14.419,1.011C127.901,168.195,127.901,177.105,127.901,186.18z"/>
    <path fill-rule="evenodd" clip-rule="evenodd" fill="#3B3B3B" d="M203.422,194.042c0-19.735,0-39.292,0-58.964&#xD;&#xA;&#x9;&#x9;c2.543,0,5.021,0,7.688,0c0,5.32,0,10.538,0,15.939c2.356-0.312,4.502-0.648,6.659-0.865c4.068-0.405,8.12-0.435,12.02,1.063&#xD;&#xA;&#x9;&#x9;c4.598,1.767,7.167,5.186,7.531,10.031c0.521,6.933,0.418,13.891,0.087,20.83c-0.354,7.45-4.974,12.033-12.441,12.799&#xD;&#xA;&#x9;&#x9;c-3.703,0.381-7.371,0.186-11.018-0.368c-2.984-0.455-5.968-0.346-8.957-0.385C204.52,194.118,204.048,194.076,203.422,194.042z&#xD;&#xA;&#x9;&#x9; M211.194,186.172c4.659,0.962,9.148,1.516,13.7,0.711c3.242-0.575,4.702-2.012,4.749-5.077c0.099-6.415,0.08-12.835,0-19.252&#xD;&#xA;&#x9;&#x9;c-0.029-2.381-1.059-3.649-3.234-4.227c-5.138-1.365-10.14-0.208-15.215,0.801C211.194,168.216,211.194,177.123,211.194,186.172z"/>
    <path fill-rule="evenodd" clip-rule="evenodd" fill="#3B3B3B" d="M462.696,150.786c0-5.342,0-10.458,0-15.696&#xD;&#xA;&#x9;&#x9;c2.644,0,5.12,0,7.684,0c0,19.637,0,39.198,0,58.735c-0.241,0.324-0.579,0.313-0.891,0.293c-4.515-0.306-8.947,0.543-13.417,0.896&#xD;&#xA;&#x9;&#x9;c-3.272,0.259-6.524,0.033-9.65-1.063c-4.902-1.72-7.901-5.163-8.341-10.343c-0.631-7.462-0.661-14.975-0.021-22.426&#xD;&#xA;&#x9;&#x9;c0.537-6.238,4.546-9.904,10.787-10.891c3.793-0.6,7.566-0.375,11.341,0.146C460.921,150.539,461.655,150.642,462.696,150.786z&#xD;&#xA;&#x9;&#x9; M462.633,158.81c-4.467-0.795-8.804-1.675-13.236-0.596c-2.614,0.637-3.644,1.805-3.671,4.491c-0.066,6.354-0.064,12.712,0,19.066&#xD;&#xA;&#x9;&#x9;c0.028,2.844,1.28,4.398,4.021,5.018c4.313,0.977,8.577,0.35,12.886-0.575C462.633,177.092,462.633,168.08,462.633,158.81z"/>
    <path fill-rule="evenodd" clip-rule="evenodd" fill="#3B3B3B" d="M186.204,168.472c0.071-2.529,0.234-4.873-0.201-7.196&#xD;&#xA;&#x9;&#x9;c-0.313-1.665-1.549-2.5-3.054-2.971c-3.047-0.949-6.137-0.624-9.219-0.222c-2.806,0.365-5.538,1.098-8.452,1.891&#xD;&#xA;&#x9;&#x9;c-0.633-2.536-1.246-4.984-1.894-7.582c7.473-2.048,14.759-3.694,22.25-1.4c5.061,1.55,8.251,5.636,8.312,10.81&#xD;&#xA;&#x9;&#x9;c0.123,10.538,0.048,21.079,0.051,31.619c0,0.157-0.056,0.312-0.097,0.518c-0.187,0.055-0.388,0.176-0.584,0.165&#xD;&#xA;&#x9;&#x9;c-5.526-0.267-10.984,0.606-16.472,0.959c-3.166,0.201-6.319-0.039-9.292-1.294c-5.17-2.182-7.52-6.323-7.729-11.722&#xD;&#xA;&#x9;&#x9;c-0.197-5.101,1.984-9.051,6.54-11.432c5.054-2.642,10.557-2.837,16.107-2.503C183.637,168.18,184.798,168.333,186.204,168.472z&#xD;&#xA;&#x9;&#x9; M186.148,176.494c-5.124-0.899-10.192-1.185-15.152,0.611c-2.95,1.065-3.919,3.214-3.121,6.261c0.591,2.252,2.2,3.561,5.146,3.783&#xD;&#xA;&#x9;&#x9;c4.382,0.329,8.72-0.196,13.127-1.017C186.148,182.93,186.148,179.805,186.148,176.494z"/>
    <path fill-rule="evenodd" clip-rule="evenodd" fill="#3B3B3B" d="M277.127,193.847c-0.33,0.303-0.662,0.29-0.977,0.271&#xD;&#xA;&#x9;&#x9;c-5.366-0.285-10.661,0.611-15.989,0.943c-3.168,0.195-6.311-0.062-9.3-1.265c-4.922-1.976-7.725-6.392-7.764-12.182&#xD;&#xA;&#x9;&#x9;c-0.037-5.37,2.781-9.618,7.92-11.686c4.71-1.895,9.656-2.174,14.66-1.826c1.17,0.081,2.336,0.228,3.721,0.366&#xD;&#xA;&#x9;&#x9;c0.044-2.674,0.5-5.315-0.373-7.889c-0.47-1.388-1.737-1.98-3.062-2.344c-3.665-1.006-7.322-0.479-10.957,0.19&#xD;&#xA;&#x9;&#x9;c-2.136,0.392-4.24,0.956-6.489,1.474c-0.627-2.501-1.229-4.911-1.86-7.426c2.843-1.008,5.65-1.607,8.487-2.041&#xD;&#xA;&#x9;&#x9;c4.251-0.646,8.518-0.864,12.74,0.215c5.79,1.481,9.28,5.721,9.334,11.685c0.094,10.217,0.027,20.434,0.021,30.65&#xD;&#xA;&#x9;&#x9;C277.238,193.295,277.16,193.605,277.127,193.847z M269.422,186.186c0-3.306,0-6.387,0-9.702&#xD;&#xA;&#x9;&#x9;c-5.111-0.878-10.162-1.152-15.132,0.599c-2.479,0.87-3.596,2.586-3.425,4.815c0.226,2.908,1.475,4.502,4.269,5.014&#xD;&#xA;&#x9;&#x9;C259.893,187.787,264.576,186.854,269.422,186.186z"/>
    <path fill-rule="evenodd" clip-rule="evenodd" fill="#3B3B3B" d="M335.899,137.851c-0.655,2.566-1.272,4.988-1.922,7.533&#xD;&#xA;&#x9;&#x9;c-3.545-1.238-7.062-2.038-10.67-2.379c-4.977-0.469-9.934-0.433-14.818,0.794c-3.688,0.927-5.41,3.132-5.411,6.888&#xD;&#xA;&#x9;&#x9;c-0.003,9.523-0.003,19.045,0,28.569c0.001,3.833,1.71,6.099,5.505,6.966c8,1.826,15.917,1.265,23.744-1.061&#xD;&#xA;&#x9;&#x9;c0.444-0.131,0.883-0.28,1.451-0.46c0.64,2.54,1.247,4.954,1.879,7.465c-2.139,1.059-4.391,1.495-6.624,1.899&#xD;&#xA;&#x9;&#x9;c-7.38,1.344-14.762,1.464-22.128-0.178c-7.233-1.611-11.686-7.146-11.686-14.577c0-9.417,0.172-18.837-0.06-28.246&#xD;&#xA;&#x9;&#x9;c-0.16-6.542,3.819-13.266,11.863-14.967c9.354-1.979,18.579-1.495,27.701,1.304C335.074,137.51,335.41,137.662,335.899,137.851z"/>
    <path fill-rule="evenodd" clip-rule="evenodd" fill="#3B3B3B" d="M391.801,172.569c0,2.994,0.02,5.988-0.004,8.983&#xD;&#xA;&#x9;&#x9;c-0.055,7.237-5.708,13.189-12.985,13.498c-2.928,0.123-5.882,0.256-8.809-0.154c-6.591-0.925-11.55-6.629-11.564-13.311&#xD;&#xA;&#x9;&#x9;c-0.015-6.043-0.016-12.085,0-18.128c0.02-7.439,5.998-13.48,13.445-13.485c3.089-0.003,6.203-0.346,9.274,0.304&#xD;&#xA;&#x9;&#x9;c6.052,1.28,10.569,6.782,10.636,12.988C391.828,166.366,391.801,169.468,391.801,172.569z M366.188,172.431&#xD;&#xA;&#x9;&#x9;c0,2.832,0,5.662,0,8.494c0,0.053,0,0.107,0.001,0.16c0.077,3.684,2.518,6.124,6.16,6.146c1.817,0.011,3.633,0.008,5.45,0&#xD;&#xA;&#x9;&#x9;c3.644-0.016,6.175-2.391,6.226-6.08c0.08-5.77,0.081-11.542-0.003-17.312c-0.049-3.446-2.221-5.79-5.602-6.067&#xD;&#xA;&#x9;&#x9;c-2.176-0.178-4.388-0.178-6.564-0.006c-3.475,0.272-5.613,2.682-5.659,6.17C366.158,166.766,366.188,169.598,366.188,172.431z"/>
    <path fill-rule="evenodd" clip-rule="evenodd" fill="#3B3B3B" d="M398.355,150.976c2.686,0,5.137,0,7.606,0&#xD;&#xA;&#x9;&#x9;c0.457,0.568,0.238,1.236,0.24,1.85c0.025,9.256,0.002,18.511,0.055,27.763c0.023,4.388,1.32,5.822,5.606,6.522&#xD;&#xA;&#x9;&#x9;c2.767,0.452,9.009-0.118,11.542-1.101c0-11.578,0-23.219,0-34.96c2.642,0,5.128,0,7.734,0c0,14.289,0,28.585,0,42.849&#xD;&#xA;&#x9;&#x9;c-0.086,0.065-0.131,0.128-0.171,0.126c-5.843-0.282-11.586,1.112-17.41,1.042c-2.405-0.028-4.791-0.395-7.057-1.296&#xD;&#xA;&#x9;&#x9;c-4.786-1.899-7.357-5.472-7.924-10.543c-0.356-3.198-0.211-6.412-0.218-9.618c-0.016-6.901-0.005-13.802-0.005-20.703&#xD;&#xA;&#x9;&#x9;C398.355,152.326,398.355,151.746,398.355,150.976z"/>
    <path fill-rule="evenodd" clip-rule="evenodd" fill="#3B3B3B" d="M343.411,134.983c2.498,0,4.935,0,7.491,0&#xD;&#xA;&#x9;&#x9;c0,19.661,0,39.303,0,59.043c-2.484,0-4.917,0-7.491,0C343.411,174.338,343.411,154.704,343.411,134.983z"/>
    <path fill-rule="evenodd" clip-rule="evenodd" fill="#3B3B3B" d="M93.458,194.024c-2.59,0-5.022,0-7.525,0&#xD;&#xA;&#x9;&#x9;c0-19.694,0-39.283,0-58.966c2.527,0,4.96,0,7.525,0C93.458,154.715,93.458,174.302,93.458,194.024z"/>
    <path fill-rule="evenodd" clip-rule="evenodd" fill="#3B3B3B" d="M110.654,194.126c-2.232,0-4.305,0.005-6.377-0.005&#xD;&#xA;&#x9;&#x9;c-0.416-0.003-0.859,0.097-1.309-0.249c0-14.196,0-28.441,0-42.805c2.542,0,5.066,0,7.686,0&#xD;&#xA;&#x9;&#x9;C110.654,165.357,110.654,179.601,110.654,194.126z"/>
    <path fill-rule="evenodd" clip-rule="evenodd" fill="#3B3B3B" d="M106.78,145.429c-3.011-0.017-5.208-2.269-5.171-5.3&#xD;&#xA;&#x9;&#x9;c0.036-2.882,2.319-5.144,5.212-5.161c2.907-0.021,5.301,2.376,5.282,5.281C112.082,143.222,109.8,145.441,106.78,145.429z"/>
  </g>
  <g id="Layer_3">
    <path fill-rule="evenodd" clip-rule="evenodd" fill="#3B3B3B" d="M263.297,44.114c-1.092-4.305-2.188-8.623-3.322-13.096&#xD;&#xA;&#x9;&#x9;c0.741,0,1.322,0,1.903,0c11.312,0,22.622-0.009,33.933,0.002c11.82,0.012,21.015,7.693,23.188,19.337&#xD;&#xA;&#x9;&#x9;c0.247,1.32,0.266,2.652,0.267,3.984c0.01,13.018,0.018,26.035,0.003,39.054c-0.015,13.262-10.152,23.362-23.431,23.365&#xD;&#xA;&#x9;&#x9;c-11.311,0.003-22.621,0-33.933,0c-0.583,0-1.166,0-1.928,0c1.124-4.45,2.214-8.766,3.324-13.157&#xD;&#xA;&#x9;&#x9;c4.658-1.025,9.279-2.052,13.902-3.058c5.568-1.211,11.146-2.384,16.708-3.612c3.65-0.805,5.564-3.214,5.567-6.927&#xD;&#xA;&#x9;&#x9;c0.006-10.725,0.004-21.448,0.001-32.171c-0.003-3.832-1.924-6.211-5.646-7.022c-9.781-2.129-19.563-4.258-29.346-6.39&#xD;&#xA;&#x9;&#x9;C264.126,44.345,263.771,44.238,263.297,44.114z"/>
    <path fill-rule="evenodd" clip-rule="evenodd" fill="#3B3B3B" d="M240.071,31.112c-1.092,4.328-2.17,8.604-3.29,13.042&#xD;&#xA;&#x9;&#x9;c-3.309,0.725-6.624,1.455-9.942,2.175c-6.973,1.515-13.952,3.009-20.92,4.545c-3.251,0.715-5.384,3.21-5.404,6.643&#xD;&#xA;&#x9;&#x9;c-0.066,10.938-0.071,21.877,0.003,32.816c0.024,3.527,2.233,5.867,5.799,6.639c9.993,2.163,19.985,4.332,29.977,6.501&#xD;&#xA;&#x9;&#x9;c0.101,0.022,0.19,0.094,0.499,0.25c1.061,4.162,2.162,8.479,3.304,12.959c-0.644,0.028-1.196,0.075-1.749,0.075&#xD;&#xA;&#x9;&#x9;c-11.472,0.004-22.944,0.014-34.417,0c-12.877-0.014-23.086-10.206-23.093-23.043c-0.006-13.288-0.012-26.575,0.002-39.861&#xD;&#xA;&#x9;&#x9;c0.013-12.314,9.866-22.587,22.161-22.778c12.056-0.186,24.118-0.051,36.177-0.053C239.441,31.023,239.703,31.074,240.071,31.112z"/>
    <path fill-rule="evenodd" clip-rule="evenodd" fill="#3B3B3B" d="M263.115,72.443c0.177,1.017,0.177,1.911,0,2.929&#xD;&#xA;&#x9;&#x9;c-8.667,0-17.33,0-26.113,0c-0.214-0.937-0.161-1.868-0.023-2.929C245.66,72.443,254.323,72.443,263.115,72.443z"/>
  </g>
</svg>