<svg xmlns="http://www.w3.org/2000/svg" role="img" viewBox="36.83 3.83 476.84 238.84"><title>Alibaba Cloud Container Registry (ACR) logo</title><g fill="none"><path fill="#ff6a00" d="M52.30788 71.78411l92.31342-51.71588 11.0388 6.2436 6.30788-3.53411L144.5 13 46 68.25v76.33689h6.30788zM144.5 226.93178L52.30788 175.2159v-11.7804H46V178.75L144.5 234l67.0819-37.46162-6.30788-3.65192zm32.99507-195.31876l-6.30787 3.53411 65.50492 36.637V175.2159l-15.6484 8.71747 6.30788 3.65193L243 178.8678v-110.5z"/><path fill="#ff6a00" d="M144.5591 124.36794c0-.11756-29.70685-16.57557-29.70685-16.57557l29.5851 16.34045 72.4409-40.08702-29.70685-16.45801L186.31915 67 114 107.32214v19.74962l.85225.47023L144.5591 144v-.11756L217 103.79542V84.0458l-72.4409 40.08702z"/><path fill="#ff6a00" d="M115.55919 137.8114l-13.05793-7.30845L73 114v19.68566l29.50126 16.50294 13.05793 7.30845L145.06045 174 217 133.80354v-19.68566l-71.93955 40.19646z"/><path fill="#ff6a00" d="M115.47395 169.00073L73 145.31391v19.58267l42.47395 23.68682L145 205l72-40.22068v-19.69993l-72 40.22068c0 .11726-29.52605-16.29934-29.52605-16.29934zM73.12101 84.22068H73v19.58267l29.52605 16.41661.84706.46904v-19.58266l71.87899-40.22069-.84706-.46904L145 44z"/><g><path fill="#343c43" d="M296 108.02772c0 5.778.058 8.834.167 8.834.091 0 .166.102.166.227 0 .366.845 1.106 1.263 1.106.211 0 .431.075.487.167.136.22 3.015.215 3.428-.006.282-.151.322-.36.322-1.667v-1.494h-.856c-1.371 0-1.299.459-1.305-8.292l-.005-7.708H296v8.833m7.542-8.412c-.403.43-.58 2.912-.209 2.912.092 0 .167.15.167.334 0 .572 3.129.499 3.637-.085.573-.66.528-2.538-.076-3.143-.635-.634-2.931-.646-3.519-.018m6.958 9.079v9.5h1.73c1.277 0 1.78-.061 1.922-.233.2-.24.848-.175.848.086 0 .081.146.147.323.147.178 0 .37.075.427.167.06.096.974.166 2.177.166 1.271 0 2.073-.064 2.073-.166 0-.092.208-.167.463-.167.272 0 .563-.138.704-.333.132-.184.373-.334.536-.334.164 0 .297-.104.297-.232s.094-.268.208-.312c.261-.101.959-1.39.959-1.771 0-.157.068-.356.152-.443.452-.468.47-5.951.024-6.992-.078-.183-.242-.596-.363-.916-.257-.681-1.336-1.834-1.717-1.834-.145 0-.263-.075-.263-.166 0-.092-.225-.167-.5-.167s-.5-.075-.5-.167c0-.102-.778-.166-2-.166s-2 .064-2 .166c0 .092-.208.167-.463.167-.272 0-.563.138-.704.333-.448.622-.5.337-.5-2.75v-3.083H310.5v9.5m30.833 0v9.5h1.73c1.277 0 1.78-.061 1.923-.233.199-.24.847-.175.847.086 0 .081.146.147.324.147.178 0 .37.075.426.167.06.096.974.166 2.177.166 1.271 0 2.073-.064 2.073-.166 0-.092.209-.167.464-.167.272 0 .562-.138.703-.333.132-.184.374-.334.537-.334.163 0 .296-.112.296-.25 0-.137.075-.25.167-.25.092 0 .167-.112.167-.25 0-.137.075-.25.166-.25.092 0 .167-.142.167-.315 0-.174.112-.359.25-.412.137-.052.25-.281.25-.508 0-.226.065-.452.145-.501.15-.093.387-2.139.396-3.43.012-1.818-.531-4.667-.89-4.667-.083 0-.151-.115-.151-.256 0-.331-1.079-1.411-1.411-1.411-.141 0-.256-.075-.256-.166 0-.092-.225-.167-.5-.167s-.5-.075-.5-.167c0-.102-.777-.166-2-.166-1.222 0-2 .064-2 .166 0 .092-.208.167-.463.167-.272 0-.562.138-.703.333-.449.622-.5.337-.5-2.75v-3.083h-3.834v9.5m53.5-.827c0 7.971.024 8.709.292 9.125.502.78 1.011 1.202 1.451 1.202.233 0 .424.075.424.167 0 .247 3.217.216 3.467-.034.125-.125.2-.748.2-1.666v-1.467h-.774c-1.273 0-1.215.396-1.221-8.292l-.005-7.708h-3.834v8.673m46.5-5.756c0 2.666-.092 3.275-.416 2.75-.057-.092-.286-.167-.51-.167-.224 0-.407-.075-.407-.167 0-.102-.802-.166-2.073-.166-1.203 0-2.117.07-2.177.166-.057.092-.286.167-.51.167-.224 0-.407.075-.407.167 0 .091-.115.166-.255.166-.332 0-1.411 1.08-1.411 1.411 0 .141-.075.256-.167.256-.092 0-.167.15-.167.333 0 .184-.075.334-.166.334-.092 0-.167.225-.167.5s-.075.5-.167.5c-.105 0-.166 1.135-.166 3.073 0 1.869.065 3.114.166 3.177.092.056.167.319.167.583 0 .264.075.527.167.583.091.057.166.221.166.365 0 .412 1.802 2.052 2.255 2.052.216 0 .439.075.495.167.132.212 3.986.222 4.378.011.159-.086.533-.254.831-.374.298-.12.541-.275.541-.345 0-.069.075-.126.167-.126.092 0 .167.15.167.334 0 .313.111.333 1.833.333h1.833v-9.262c0-10.837.253-9.738-2.238-9.738h-1.762v2.917m-55.833-1.425c0 .096-.296.175-.657.175-.361 0-.703.075-.76.166-.056.092-.248.167-.426.167s-.324.075-.324.167c0 .091-.111.166-.248.166-.418 0-1.554 1.018-1.907 1.709-.129.252-.297.458-.373.458-.076 0-.138.15-.138.333 0 .184-.075.334-.167.334-.092 0-.167.15-.167.333 0 .183-.075.333-.166.333-.092 0-.167.3-.167.667 0 .367-.075.667-.167.667-.105 0-.166 1.163-.166 3.156 0 1.925.065 3.198.166 3.26.092.057.167.436.167.844 0 .407.075.74.167.74.091 0 .166.145.166.323 0 .178.075.37.167.427.092.056.167.212.167.346 0 .275 1.732 2.07 1.996 2.07.094 0 .17.075.17.167 0 .092.183.167.407.167.224 0 .453.075.51.166.057.092.399.167.76.167s.657.075.657.167c0 .104.996.166 2.656.166 1.592 0 2.699-.067 2.76-.166.057-.092.361-.167.677-.167.315 0 .573-.075.573-.167 0-.091.15-.166.334-.166.311 0 .333-.111.333-1.667v-1.667h-.99c-.545 0-1.037.075-1.093.167-.06.097-.974.167-2.177.167-1.271 0-2.073-.065-2.073-.167 0-.092-.127-.167-.282-.167-.37 0-1.552-1.273-1.552-1.67 0-.171-.075-.356-.166-.413-.092-.057-.167-.399-.167-.76s-.075-.657-.167-.657c-.098 0-.166-.583-.166-1.416 0-.834.068-1.417.166-1.417.092 0 .167-.337.167-.75s.075-.75.167-.75c.091 0 .166-.15.166-.333 0-.184.075-.334.167-.334.092 0 .167-.118.167-.262 0-1.022 5.357-2.143 5.916-1.238.057.092.439.167.849.167h.746l-.048-1.875-.047-1.875-.75-.146c-1.177-.229-5.833-.319-5.833-.112m-102.333.425c0 .137-.075.25-.167.25-.092 0-.167.183-.167.406 0 .224-.075.454-.166.51-.092.057-.167.324-.167.594 0 .269-.075.49-.167.49-.091 0-.166.15-.166.333 0 .183-.075.333-.167.333-.092 0-.167.225-.167.5s-.075.5-.166.5c-.092 0-.167.225-.167.5s-.075.5-.167.5c-.091 0-.166.15-.166.334 0 .183-.075.333-.167.333-.092 0-.167.225-.167.5s-.075.5-.166.5c-.092 0-.167.225-.167.5s-.075.5-.167.5c-.091 0-.166.146-.166.323 0 .178-.064.363-.142.412-.078.048-.272.446-.43.885-.158.438-.367.984-.464 1.213-.096.23-.249.605-.339.834-.091.229-.23.547-.311.706-.081.159-.148.478-.148.708 0 .23-.061.419-.136.419-.075 0-.239.375-.364.833-.124.459-.288.834-.363.834-.075 0-.137.225-.137.5s-.075.5-.166.5c-.092 0-.167.3-.167.666v.667h2.083c1.749 0 2.084-.04 2.084-.252 0-.245.069-.422.474-1.204.106-.205.192-.524.192-.708 0-.185.075-.336.167-.336.092 0 .167-.225.167-.5s.075-.5.166-.5c.092 0 .167-.225.167-.5v-.5h6.333v.49c0 .27.075.537.167.593.092.057.167.271.167.477 0 .205.059.445.132.532.073.087.229.458.345.825.117.366.292.873.388 1.125l.175.458h4.126v-.503c0-.601-.363-1.83-.54-1.83-.07 0-.126-.225-.126-.5s-.075-.5-.167-.5c-.092 0-.167-.151-.167-.336 0-.185-.075-.485-.166-.667-.092-.182-.242-.48-.334-.662-.091-.182-.166-.477-.166-.657 0-.179-.06-.363-.134-.408-.074-.045-.237-.462-.363-.926-.127-.465-.292-.844-.367-.844-.075 0-.136-.173-.136-.384 0-.211-.062-.454-.138-.541-.076-.087-.241-.496-.368-.909-.126-.412-.327-.81-.445-.883-.119-.073-.216-.317-.216-.542 0-.224-.075-.408-.167-.408-.091 0-.166-.225-.166-.5s-.075-.5-.167-.5c-.092 0-.167-.225-.167-.5s-.075-.5-.166-.5c-.092 0-.167-.15-.167-.333 0-.184-.075-.334-.167-.334-.091 0-.166-.225-.166-.5s-.075-.5-.167-.5c-.092 0-.167-.225-.167-.5s-.075-.5-.166-.5c-.092 0-.167-.155-.167-.345 0-.73-.323-.821-2.905-.821-2.047 0-2.428.039-2.428.25m45.202 3.506c-.151.17-.2.705-.167 1.785l.048 1.542.625.052c.362.03.625-.023.625-.125 0-.114.628-.177 1.75-.177 1.056 0 1.75.066 1.75.167 0 .091.15.166.333.166.223 0 .334.111.334.334 0 .183.075.333.166.333.092 0 .167.225.167.5v.5h-2.75c-1.722 0-2.75.062-2.75.167 0 .091-.225.166-.5.166s-.5.075-.5.167c0 .092-.115.167-.256.167-.276 0-1.199.881-1.536 1.466-.114.199-.208.738-.208 1.198 0 .46-.075.836-.167.836-.091 0-.166.145-.166.323 0 .178.075.37.166.427.092.056.169.454.171.885.002.518.113.922.329 1.198.18.229.328.504.33.611.002.107.229.294.504.416.275.121.5.278.5.347 0 .069.225.126.5.126s.5.075.5.167c0 .102.777.166 2 .166 1.222 0 2-.064 2-.166 0-.092.185-.167.411-.167.227 0 .679-.15 1.005-.333.327-.184.629-.334.672-.334.043 0 .078.15.078.334 0 .313.111.333 1.834.333H338v-5.323c0-3.37-.061-5.362-.167-5.427-.091-.057-.166-.29-.166-.518 0-.474-1.3-1.899-1.732-1.899-.148 0-.268-.075-.268-.166 0-.092-.221-.167-.49-.167-.27 0-.537-.075-.594-.167-.177-.287-5.955-.204-6.214.09m30.833 0c-.15.17-.2.705-.167 1.785l.048 1.542.625.052c.362.03.625-.023.625-.125 0-.231 3.275-.24 3.417-.01.057.091.249.166.427.166.212 0 .323.115.323.334 0 .183.075.333.167.333.091 0 .166.225.166.5v.5h-2.74c-1.647 0-2.781.066-2.843.167-.057.091-.286.166-.51.166-.224 0-.407.075-.407.167 0 .092-.115.167-.255.167-.277 0-1.199.881-1.536 1.466-.115.199-.209.738-.209 1.198 0 .46-.075.836-.166.836-.092 0-.167.145-.167.323 0 .178.075.37.167.427.091.056.168.454.17.885.002.518.114.922.33 1.198.179.229.327.504.329.611.002.107.229.294.504.416.275.121.5.278.5.347 0 .069.225.126.5.126s.5.075.5.167c0 .102.778.166 2 .166s2-.064 2-.166c0-.092.225-.167.5-.167s.5-.075.5-.167c0-.091.146-.166.323-.166.178 0 .37-.075.427-.167.174-.282.417-.185.417.167 0 .313.111.333 1.833.333h1.833v-5.323c0-3.37-.061-5.362-.166-5.427-.092-.057-.167-.29-.167-.518 0-.474-1.299-1.899-1.732-1.899-.147 0-.268-.075-.268-.166 0-.092-.263-.167-.583-.167-.321 0-.584-.075-.584-.167 0-.29-5.871-.205-6.131.09m46.631-.09c0 .092-.262.167-.583.167-.321 0-.583.075-.583.167 0 .091-.15.166-.334.166-.183 0-.333.057-.333.126 0 .07-.217.222-.482.34-.266.117-.575.436-.687.707-.113.272-.271.494-.351.494-.081 0-.147.15-.147.333 0 .184-.075.334-.166.334-.092 0-.167.3-.167.666 0 .367-.075.667-.167.667-.104 0-.166.997-.166 2.657 0 1.591.067 2.698.166 2.76.092.056.167.356.167.666 0 .31.075.61.167.667.091.057.166.249.166.427 0 .177.075.323.167.323.092 0 .167.112.167.25 0 .137.075.25.166.25.092 0 .167.106.167.236s.225.336.5.457c.275.122.5.278.5.348 0 .069.15.126.333.126.184 0 .334.075.334.166 0 .092.22.167.49.167.269 0 .536.075.593.167.061.099 1.113.166 2.593.166 1.549 0 2.49-.063 2.49-.166 0-.092.225-.167.5-.167s.5-.075.5-.167c0-.091.15-.166.334-.166.183 0 .333-.057.333-.126 0-.07.225-.226.5-.348.275-.121.5-.313.5-.426 0-.112.15-.365.333-.562.184-.197.334-.469.334-.605s.075-.293.166-.35c.092-.057.167-.399.167-.76s.075-.657.167-.657c.104 0 .166-1 .166-2.666 0-1.667-.062-2.667-.166-2.667-.092 0-.167-.3-.167-.667 0-.366-.075-.666-.167-.666-.091 0-.166-.134-.166-.297 0-.163-.15-.405-.334-.537-.183-.132-.333-.341-.333-.465 0-.305-.417-.701-.738-.701-.144 0-.262-.075-.262-.167 0-.092-.15-.167-.333-.167-.184 0-.334-.075-.334-.166 0-.092-.225-.167-.5-.167s-.5-.075-.5-.167c0-.103-.944-.166-2.5-.166-1.555 0-2.5.063-2.5.166m-102.333 6.917v6.75h3.667v-13.5H303.5v6.75m114.167-1.01c0 3.647.06 5.778.166 5.843.092.057.167.249.167.427s.075.323.167.323c.091 0 .166.081.166.179 0 .265.439.655.738.655.144 0 .262.075.262.166 0 .092.15.167.334.167.183 0 .333.075.333.167 0 .102.833.166 2.167.166 1.333 0 2.166-.064 2.166-.166 0-.092.209-.167.464-.167.272 0 .562-.138.703-.333.308-.427.5-.425.5.005 0 .323.086.337 1.875.292l1.875-.047v-13.334l-2.042-.046-2.041-.047v9.012l-.76.749c-.749.738-2.574 1.151-2.574.582 0-.091-.107-.166-.237-.166-.646 0-.763-.861-.763-5.609v-4.558h-3.666v5.74m-131.834-4.75c0 .178.075.37.167.427.092.056.167.286.167.51 0 .223.075.406.166.406.092 0 .167.225.167.5s.075.5.167.5c.091 0 .166.225.166.5s.075.5.167.5c.092 0 .167.225.167.5s.075.5.166.5c.092 0 .167.075.167.167 0 .101-.722.167-1.833.167s-1.834-.066-1.834-.167c0-.092.075-.167.167-.167.092 0 .167-.225.167-.5s.075-.5.166-.5c.092 0 .167-.225.167-.5s.075-.5.167-.5c.091 0 .166-.151.166-.335 0-.185.087-.504.193-.709.415-.802.474-.963.474-1.287 0-.184.075-.335.167-.335.091 0 .166.145.166.323m31.834 1.843c0 .092.12.167.266.167.477 0 1.4 1.082 1.4 1.64 0 .279.075.553.167.61.092.057.167.736.167 1.51 0 .827-.069 1.407-.167 1.407-.092 0-.167.265-.167.589 0 .627-.897 1.744-1.401 1.744-.135 0-.292.075-.349.167-.056.091-.286.166-.51.166-.223 0-.406-.075-.406-.166 0-.092-.195-.167-.433-.167-.532 0-1.381-.858-1.515-1.532-.053-.261-.161-.515-.241-.565-.206-.127-.185-3.403.022-3.403.092 0 .167-.19.167-.422 0-.509 1.005-1.578 1.484-1.578.181 0 .376-.075.432-.167.057-.091.324-.166.594-.166.269 0 .49.075.49.166m30.833 0c0 .092.12.167.267.167.476 0 1.4 1.082 1.4 1.64 0 .279.075.553.166.61.092.057.167.736.167 1.51 0 .827-.069 1.407-.167 1.407-.091 0-.166.265-.166.589 0 .627-.898 1.744-1.402 1.744-.135 0-.292.075-.348.167-.057.091-.286.166-.51.166-.224 0-.407-.075-.407-.166 0-.092-.195-.167-.433-.167-.531 0-1.38-.858-1.515-1.532-.052-.261-.16-.515-.24-.565-.206-.127-.186-3.403.021-3.403.092 0 .167-.19.167-.422 0-.509 1.006-1.578 1.485-1.578.181 0 .375-.075.432-.167.056-.091.323-.166.593-.166.269 0 .49.075.49.166m60.333 0c0 .092.191.167.425.167.467 0 1.242.671 1.242 1.076 0 .141.075.257.167.257.103 0 .166.917.166 2.417 0 1.5-.063 2.417-.166 2.417-.092 0-.167.116-.167.257 0 .405-.775 1.076-1.242 1.076-.234 0-.425.075-.425.167 0 .091-.22.166-.49.166-.269 0-.536-.075-.593-.166-.057-.092-.286-.167-.51-.167-.224 0-.407-.075-.407-.167 0-.091-.08-.166-.178-.166-.266 0-.655-.439-.655-.738 0-.144-.075-.262-.167-.262-.103 0-.166-.917-.166-2.417 0-1.5.063-2.417.166-2.417.092 0 .167-.122.167-.272 0-.375.835-1.061 1.292-1.061.206 0 .375-.075.375-.167 0-.091.262-.166.583-.166.321 0 .583.075.583.166m30.417 0c.057.092.219.167.36.167.338 0 1.39 1.059 1.39 1.4 0 .147.075.267.167.267.214 0 .224 3.731.011 4.127-.086.159-.254.533-.374.831-.13.323-.337.542-.511.542-.161 0-.293.075-.293.166 0 .092-.15.167-.333.167-.184 0-.334.075-.334.167 0 .091-.262.166-.583.166-.321 0-.583-.075-.583-.166 0-.092-.191-.167-.425-.167-.546 0-1.242-.696-1.242-1.242 0-.234-.075-.425-.167-.425-.102 0-.166-.805-.166-2.083s.064-2.083.166-2.083c.092 0 .167-.191.167-.425 0-.546.696-1.242 1.242-1.242.234 0 .425-.075.425-.167 0-.091.22-.166.49-.166.269 0 .536.075.593.166m-105.25 5.75c0 .321-.075.584-.167.584-.091 0-.166.15-.166.333 0 .208-.111.333-.297.333-.163 0-.405.15-.537.334-.182.253-.431.333-1.036.333-.439 0-.797.075-.797.167 0 .091-.113.166-.25.166-.138 0-.25-.075-.25-.166 0-.092-.206-.168-.458-.168-.714-.002-1.201-1.393-.66-1.886.557-.508.947-.594 2.743-.603l1.875-.01v.583m30.833 0c0 .321-.075.584-.166.584-.092 0-.167.15-.167.333 0 .222-.111.333-.333.333-.184 0-.334.075-.334.167 0 .092-.112.167-.25.167-.137 0-.25.075-.25.166 0 .092-.337.167-.75.167-.412 0-.75.075-.75.167 0 .091-.112.166-.25.166-.137 0-.25-.075-.25-.166 0-.092-.206-.168-.458-.168-.714-.002-1.2-1.393-.66-1.886.558-.508.948-.594 2.743-.603l1.875-.01v.583m-16.227 20.856c-.591.591-.646 2.47-.095 3.244.336.472.382.484 1.822.484 1.441 0 1.486-.012 1.822-.484.373-.524.519-2.85.178-2.85-.091 0-.166-.085-.166-.19 0-.777-2.826-.939-3.561-.204m106.333 0c-.591.591-.645 2.47-.094 3.244.336.472.381.484 1.822.484 1.44 0 1.486-.012 1.822-.484.373-.524.518-2.85.178-2.85-.092 0-.167-.085-.167-.19 0-.777-2.826-.939-3.561-.204m-170.606 1.056c-.137.092-.45.168-.694.169-.46.003-1.469.49-1.471.711-.001.069-.151.125-.335.125-.183 0-.333.075-.333.167 0 .091-.131.169-.292.171-.16.003-.479.233-.708.511-.229.278-.585.685-.792.904-.206.219-.375.514-.375.656 0 .142-.075.258-.166.258-.092 0-.167.145-.167.323 0 .178-.075.37-.167.427-.091.056-.166.356-.166.666 0 .31-.075.61-.167.667-.101.063-.167 1.304-.167 3.167 0 1.862.066 3.104.167 3.166.092.057.167.359.167.672 0 1.391 2.335 4.412 3.411 4.412.232 0 .422.075.422.166 0 .092.3.167.667.167.366 0 .666.075.666.167 0 .104 1.025.166 2.74.166 1.647 0 2.782-.066 2.844-.166.056-.092.323-.167.593-.167.269 0 .49-.07.49-.155 0-.085.169-.179.375-.208.359-.051.375-.122.375-1.637v-1.583l-.983-.051c-.54-.028-1.061.028-1.158.125-.23.23-4.276.239-4.276.009 0-.092-.121-.167-.269-.167-.39 0-1.397-1.165-1.397-1.616 0-.211-.075-.384-.167-.384-.092 0-.167-.295-.167-.656 0-.362-.075-.704-.166-.76-.092-.057-.167-.732-.167-1.5 0-.769.075-1.444.167-1.5.091-.057.166-.399.166-.76s.075-.657.167-.657c.092 0 .167-.15.167-.333 0-.184.075-.334.166-.334.092 0 .167-.118.167-.262 0-1.04 4.919-2.085 5.777-1.227.098.098.507.154.909.125l.731-.052.042-1.584c.049-1.844-.011-1.979-.98-2.211-1-.239-5.331-.336-5.646-.127m124.834 8.838v8.667h4v-6.167h.591c.579 0 1.39.632 1.403 1.094.003.097.137.322.297.5.161.178.393.519.516.759.124.239.386.614.584.833.197.219.465.604.595.856.13.252.299.458.375.458.076 0 .139.099.139.219s.15.379.333.576c.183.197.333.474.333.615 0 .219.343.257 2.334.257H423v-.5c0-.275-.075-.5-.167-.5-.091 0-.166-.133-.166-.297 0-.163-.15-.404-.334-.536-.183-.132-.333-.325-.333-.429 0-.104-.225-.424-.5-.712s-.5-.602-.5-.699c0-.096-.187-.363-.417-.592-.229-.229-.416-.485-.416-.568 0-.084-.188-.339-.417-.569-.229-.229-.417-.5-.417-.602 0-.103-.126-.312-.279-.466-.262-.262-.262-.283 0-.334.153-.03.279-.123.279-.208 0-.085.115-.155.256-.155.332 0 1.411-1.079 1.411-1.411 0-.14.075-.255.167-.255.091 0 .166-.225.166-.5s.075-.5.167-.5c.101 0 .167-.723.167-1.834 0-1.111-.066-1.833-.167-1.833-.092 0-.167-.223-.167-.495 0-.822-.873-2.172-1.404-2.172-.144 0-.262-.075-.262-.166 0-.092-.113-.167-.25-.167-.138 0-.25-.061-.25-.136 0-.48-1.835-.697-5.89-.697h-4.11v8.666m-84.459-7.921c-.131.152-.208.765-.208 1.664v1.424H322.833v3H324.5v3.323c0 2.036.065 3.364.167 3.427.091.057.166.512.166 1.012 0 .793.198 1.463.512 1.738.053.046.144.215.204.375.059.16.222.292.362.292.141 0 .256.075.256.166 0 .092.225.167.5.167s.5.075.5.167c0 .102.777.166 2 .166h2v-3.333l-1.125-.001c-1.538-.002-1.542-.013-1.542-4.199v-3.3h2.667v-3H328.512l-.048-1.625-.047-1.625-1.75-.039c-1.353-.03-1.798.016-1.959.201m149.667.004c-.132.15-.208.759-.208 1.66v1.424H472.5v3H474.167v3.333c0 2.111.061 3.334.166 3.334.093 0 .167.445.167 1.002 0 .873.189 1.549.512 1.831.053.046.144.215.203.375.059.16.223.292.363.292.14 0 .255.075.255.166 0 .092.225.167.5.167s.5.075.5.167c0 .101.772.166 1.983.166 2.313 0 2.184.115 2.184-1.93v-1.403l-1.208-.001c-1.635-.002-1.625.022-1.625-4.199v-3.3H481v-3h-2.833v-3.333l-1.792.006c-1.332.005-1.845.067-2 .243M297 139.02772c0 .092-.225.167-.5.167s-.5.075-.5.167c0 .091-.15.166-.333.166-.184 0-.334.075-.334.167 0 .092-.118.167-.262.167-.299 0-.738.389-.738.654 0 .099-.075.179-.166.179-.092 0-.167.112-.167.25s-.075.25-.167.25c-.091 0-.166.15-.166.333 0 .184-.075.334-.167.334-.092 0-.167.3-.167.666 0 .367-.075.667-.166.667-.105 0-.167 1.024-.167 2.74 0 1.647.066 2.781.167 2.843.091.057.166.361.166.677 0 .315.075.573.167.573.092 0 .167.15.167.334 0 .183.075.333.166.333.092 0 .167.094.167.208.001.323.757 1.125 1.061 1.125.15 0 .272.075.272.167 0 .092.15.167.334.167.183 0 .333.075.333.166 0 .092.225.167.5.167s.5.075.5.167c0 .103.941.166 2.49.166 1.48 0 2.532-.067 2.593-.166.057-.092.324-.167.594-.167.269 0 .49-.075.49-.167 0-.091.15-.166.333-.166.183 0 .333-.057.333-.126 0-.07.225-.226.5-.348.275-.121.5-.313.5-.426 0-.112.15-.365.334-.562.183-.197.333-.473.333-.615 0-.141.075-.257.167-.257.091 0 .166-.3.166-.666 0-.367.075-.667.167-.667.104 0 .167-1.028.167-2.75s-.063-2.75-.167-2.75c-.092 0-.167-.3-.167-.667 0-.366-.075-.666-.166-.666-.092 0-.167-.134-.167-.297 0-.163-.15-.405-.333-.537-.184-.132-.334-.373-.334-.536 0-.164-.112-.297-.25-.297-.137 0-.25-.075-.25-.167 0-.091-.112-.166-.25-.166-.137 0-.25-.075-.25-.167 0-.092-.15-.167-.333-.167-.183 0-.333-.075-.333-.166 0-.092-.263-.167-.584-.167-.321 0-.583-.075-.583-.167 0-.103-.944-.166-2.5-.166s-2.5.063-2.5.166m17.333 0c0 .092-.225.167-.5.167s-.5.066-.5.147c0 .081-.15.187-.333.235-.217.056-.333.005-.333-.148 0-.187-.381-.234-1.917-.234h-1.917v13.5h3.834v-4.417c0-2.833.059-4.416.166-4.416.092 0 .167-.116.167-.258 0-.333.742-1.076 1.076-1.076.141 0 .257-.075.257-.166 0-.092.416-.167.925-.167 1.058 0 1.742.488 1.742 1.242 0 .234.075.425.167.425.107 0 .166 1.583.166 4.416v4.417H321v-5.573c0-3.536-.061-5.612-.167-5.677-.091-.057-.166-.257-.166-.445 0-.496-1.385-1.805-1.909-1.805-.234 0-.425-.075-.425-.167 0-.102-.777-.166-2-.166-1.222 0-2 .064-2 .166m21.202.09c-.15.17-.2.705-.166 1.785l.048 1.542.625.052c.361.03.625-.023.625-.125 0-.113.603-.177 1.666-.177 1 0 1.667.067 1.667.167 0 .091.15.166.333.166.223 0 .334.111.334.334 0 .183.075.333.166.333.092 0 .167.225.167.5v.5h-2.657c-1.591 0-2.698.067-2.76.167-.056.091-.286.166-.51.166-.223 0-.406.075-.406.167 0 .092-.115.167-.256.167-.281 0-1.199.882-1.552 1.492-.526.909-.551 4.471-.033 4.644.096.032.174.164.174.294 0 .13.075.236.167.236.091 0 .166.107.166.236 0 .13.225.336.5.458.275.121.5.278.5.347 0 .069.225.126.5.126s.5.075.5.167c0 .102.778.166 2 .166 1.223 0 2-.064 2-.166 0-.092.225-.167.5-.167s.5-.075.5-.167c0-.091.15-.166.334-.166.183 0 .333-.075.333-.167 0-.092.075-.167.167-.167.091 0 .166.15.166.334 0 .314.111.333 1.917.333h1.917v-5.127c0-4.654-.03-5.209-.323-6.009-.343-.94-1.352-2.031-1.877-2.031-.165 0-.3-.075-.3-.166 0-.092-.225-.167-.5-.167s-.5-.075-.5-.167c0-.29-5.872-.205-6.132.09m25.465-.09c0 .092-.191.167-.424.167-.233 0-.589.155-.791.345l-.368.345-.054-.345c-.05-.325-.161-.345-1.875-.345h-1.821v13.5h3.666v-4.417c0-2.833.06-4.416.167-4.416.092 0 .167-.116.167-.258 0-.333.742-1.076 1.075-1.076.142 0 .258-.075.258-.166 0-.329 1.82-.193 2.203.164.7.652.792 1.332.794 5.877l.003 4.292h3.833v-5.583c0-3.611-.059-5.584-.166-5.584-.092 0-.167-.195-.167-.435 0-.58-1.319-1.898-1.899-1.898-.228 0-.461-.075-.518-.167-.059-.096-.946-.166-2.093-.166-1.216 0-1.99.065-1.99.166m13.667 0c0 .092-.263.167-.584.167-.321 0-.583.075-.583.167 0 .091-.15.166-.333.166-.184 0-.334.057-.334.126 0 .07-.225.226-.5.348-.275.121-.5.313-.5.426 0 .112-.15.365-.333.562-.183.197-.333.473-.333.615 0 .141-.075.257-.167.257-.092 0-.167.3-.167.666 0 .367-.075.667-.166.667-.105 0-.167 1.028-.167 2.75s.062 2.75.167 2.75c.091 0 .166.3.166.667 0 .366.075.666.167.666.092 0 .167.15.167.334 0 .183.056.333.126.333.069 0 .223.221.343.49.119.27.437.588.707.708.27.119.49.273.49.343 0 .069.15.126.334.126.183 0 .333.075.333.166 0 .092.262.167.583.167.321 0 .584.075.584.167 0 .104.996.166 2.656.166 1.592 0 2.699-.067 2.76-.166.057-.092.394-.167.75-.167s.694-.075.75-.167c.057-.091.249-.166.427-.166.298 0 .323-.128.323-1.667v-1.667h-.666c-.367 0-.667.075-.667.167 0 .092-.3.167-.667.167-.366 0-.666.075-.666.166 0 .101-.723.167-1.834.167-1.111 0-1.833-.066-1.833-.167 0-.091-.118-.166-.262-.166-.302 0-.738-.39-.738-.66 0-.101-.113-.227-.25-.28-.303-.116-.33-.656-.042-.842.115-.074 1.334-.187 2.709-.249 4.169-.191 5.25-.309 5.25-.57 0-.128.075-.233.166-.233.1 0 .167-.663.167-1.656 0-.925-.074-1.703-.167-1.76-.091-.057-.166-.436-.166-.844 0-.407-.075-.74-.167-.74-.092 0-.167-.114-.167-.254 0-.331-1.415-1.746-1.745-1.746-.14 0-.255-.075-.255-.166 0-.092-.225-.167-.5-.167s-.5-.075-.5-.167c0-.103-.889-.166-2.333-.166-1.444 0-2.333.063-2.333.166m16.166-.007c0 .096-.187.174-.416.174-.229 0-.417.075-.417.167 0 .091-.113.166-.25.166-.138 0-.25.075-.25.167 0 .092-.075.167-.167.167-.091 0-.166-.15-.166-.334 0-.313-.111-.333-1.834-.333H385.5v13.5h3.667v-3.917c0-2.5.06-3.916.166-3.916.092 0 .167-.19.167-.423 0-.469.991-1.577 1.411-1.577.141 0 .256-.075.256-.167 0-.092.3-.167.666-.167.367 0 .667-.075.667-.166 0-.092.15-.167.333-.167.295 0 .334-.111.334-.967 0-.531.081-1.047.179-1.146.631-.63.11-1.136-1.221-1.186-.816-.03-1.292.016-1.292.125m25.5.007c0 .092.118.167.262.167.337 0 .738.401.738.738 0 .144.075.262.167.262.092 0 .167.375.167.833 0 .459-.075.834-.167.834-.092 0-.167.118-.167.262 0 .332-.4.738-.728.738-.139 0-.298.075-.355.166-.057.092-.774.167-1.593.167h-1.49v-4.333h1.583c.944 0 1.583.067 1.583.166m11.834 0c0 .092-.221.167-.49.167-.27 0-.537.075-.594.167-.056.091-.248.166-.426.166s-.324.057-.324.126c0 .07-.225.226-.5.348-.275.121-.5.313-.5.426 0 .112-.15.365-.333.562-.183.197-.333.473-.333.615 0 .141-.075.257-.167.257-.092 0-.167.3-.167.666 0 .367-.075.667-.166.667-.105 0-.167 1.028-.167 2.75s.062 2.75.167 2.75c.091 0 .166.3.166.667 0 .366.075.666.167.666.092 0 .167.15.167.334 0 .183.066.333.146.333.081 0 .239.222.351.494.113.271.422.59.687.707.265.118.482.27.482.34 0 .069.146.126.324.126.178 0 .37.075.426.166.057.092.324.167.594.167.269 0 .49.075.49.167 0 .104.996.166 2.656.166 1.592 0 2.699-.067 2.76-.166.057-.092.394-.167.75-.167s.694-.075.75-.167c.057-.091.249-.166.427-.166.298 0 .323-.128.323-1.667v-1.667h-.666c-.367 0-.667.075-.667.167 0 .092-.3.167-.667.167-.366 0-.666.075-.666.166 0 .101-.691.167-1.74.167-.981 0-1.786-.073-1.844-.167-.056-.091-.216-.166-.355-.166-.427 0-1.061-.893-1.061-1.495 0-.433.253-.481 3.083-.583 3.864-.14 4.917-.251 4.917-.519 0-.13.075-.237.166-.237.1 0 .167-.663.167-1.656 0-.925-.074-1.703-.167-1.76-.091-.057-.166-.436-.166-.844 0-.407-.075-.74-.167-.74-.092 0-.167-.114-.167-.254 0-.331-1.415-1.746-1.745-1.746-.14 0-.255-.075-.255-.166 0-.092-.225-.167-.5-.167s-.5-.075-.5-.167c0-.103-.889-.166-2.333-.166-1.444 0-2.333.063-2.333.166m13.833 0c0 .092-.225.167-.5.167s-.5.075-.5.167c0 .091-.115.166-.256.166-.14 0-.515.26-.833.578-.318.318-.578.693-.578.833 0 .141-.056.257-.125.257-.186.002-.541.843-.541 1.282 0 .211-.075.384-.167.384-.105 0-.167 1.139-.167 3.083 0 1.944.062 3.083.167 3.083.092 0 .167.225.167.5s.075.5.166.5c.092 0 .167.15.167.334 0 .183.075.333.167.333.091 0 .166.116.166.258 0 .333.743 1.075 1.076 1.075.142 0 .258.075.258.167 0 .092.15.167.333.167.183 0 .333.075.333.166 0 .104.945.167 2.5.167 1.556 0 2.5-.063 2.5-.167 0-.091.15-.166.334-.166.183 0 .333-.075.333-.167 0-.092.075-.167.167-.167.091 0 .166.15.166.334 0 .183-.075.333-.166.333-.092 0-.167.118-.167.262 0 .407-.877 1.071-1.414 1.071-.139 0-.253.075-.253.167 0 .1-.691.167-1.74.167-.98 0-1.785-.073-1.843-.167-.057-.092-.474-.167-.927-.167H440v3.334h1.153c.76 0 1.176.069 1.22.203.113.339 2.508.392 2.836.063.191-.19.581-.266 1.362-.266.619 0 1.096-.073 1.096-.167 0-.092.15-.167.333-.167.183 0 .333-.075.333-.166 0-.092.155-.167.345-.167.396 0 2.155-1.683 2.155-2.063 0-.138.075-.297.167-.354.092-.056.167-.431.167-.833 0-.402.075-.777.166-.833.107-.066.167-2.502.167-6.76v-6.657h-2.069c-1.493 0-2.097.058-2.167.208-.078.167-.117.167-.195 0-.053-.114-.316-.208-.583-.208-.267 0-.486-.075-.486-.167 0-.102-.778-.166-2-.166s-2 .064-2 .166m22.417 0c-.057.092-.307.167-.557.167-.262 0-.554.141-.693.333-.132.184-.342.334-.466.334-.305 0-.701.417-.701.738 0 .144-.075.262-.167.262-.091 0-.166.375-.166.833 0 .458-.075.833-.167.833-.092 0-.167.183-.167.407 0 .224.075.453.167.51.092.057.167.438.167.848 0 .882 1.147 2.235 1.894 2.235.222 0 .443.103.491.229.049.127.3.272.56.324 2.315.462 2.783.74 2.757 1.639-.024.844-.327.975-2.264.975-.988 0-1.797-.073-1.855-.167-.057-.091-.511-.166-1.01-.166h-.907v3.333h.834c.458 0 .833.075.833.167 0 .103.889.166 2.333.166 1.445 0 2.334-.063 2.334-.166 0-.092.3-.167.666-.167.367 0 .667-.075.667-.167 0-.091.135-.166.301-.166.736 0 1.866-1.451 1.866-2.396 0-.322.075-.631.166-.688.092-.056.167-.394.167-.75s-.075-.693-.167-.75c-.091-.056-.166-.398-.166-.76 0-.361-.075-.656-.167-.656-.092 0-.167-.095-.167-.21 0-.366-.749-1.036-1.513-1.353-.405-.167-.867-.372-1.026-.454-.159-.083-.515-.15-.792-.15-.276 0-.502-.075-.502-.167 0-.091-.225-.166-.5-.166s-.5-.075-.5-.167c0-.092-.155-.167-.343-.167-.598 0-.391-1.232.218-1.302.252-.029.458-.123.458-.209 0-.209 1.287-.199 1.417.011.057.092.549.167 1.093.167.549 0 .99.074.99.167 0 .273.79.188.899-.097.056-.145.101-.895.101-1.667v-1.403h-.49c-.269 0-.536-.075-.593-.167-.061-.099-1.137-.166-2.667-.166-1.529 0-2.605.067-2.666.166m23.916 0c0 .092-.097.167-.216.167-.307 0-1.114.392-1.116.542 0 .068-.076.125-.168.125-.091 0-.166-.15-.166-.334 0-.313-.111-.333-1.834-.333H483v13.5h3.667v-3.917c0-2.5.06-3.916.166-3.916.092 0 .167-.19.167-.423 0-.469.991-1.577 1.411-1.577.141 0 .256-.075.256-.167 0-.092.3-.167.666-.167.367 0 .667-.075.667-.166 0-.092.176-.167.392-.167.38 0 .808-2.708.506-3.197-.123-.199-2.565-.17-2.565.03m-139.833 6.917v6.75h3.667v-13.5H348.5v6.75m106.333 0v6.75h3.667v-13.5h-3.667v6.75m36.334-6.083c0 .366.075.666.166.666.092 0 .167.225.167.5s.075.5.167.5c.091 0 .166.15.166.334 0 .183.075.333.167.333.092 0 .167.225.167.5s.075.5.166.5c.092 0 .167.15.167.333 0 .184.075.334.167.334.091 0 .166.225.166.5s.075.5.167.5c.092 0 .167.15.167.333 0 .183.075.333.166.333.092 0 .167.225.167.5s.075.5.167.5c.091 0 .166.188.166.417 0 .229.075.417.167.417.092 0 .167.183.167.406 0 .224.075.454.166.51.092.057.167.249.167.427s.075.323.167.323c.091 0 .166.225.166.5s.075.5.167.5c.092 0 .167.15.167.334 0 .183.075.333.166.333.092 0 .167.225.167.5s.075.5.167.5c.091 0 .166.266.166.591 0 .632-.593 1.409-1.075 1.409-.142 0-.258.075-.258.167 0 .091-.331.166-.736.166-1.27 0-1.264-.009-1.264 1.932 0 1.706.005 1.73.418 1.834.513.128 1.582-.056 1.582-.273 0-.088.375-.159.833-.159.459 0 .834-.075.834-.167 0-.092.208-.167.463-.167.272 0 .562-.137.703-.333.132-.183.34-.333.461-.333.287 0 1.039-.753 1.039-1.039 0-.122.15-.329.334-.461.183-.132.333-.374.333-.537 0-.163.075-.297.167-.297.091 0 .166-.183.166-.406 0-.224.075-.454.167-.51.092-.057.167-.249.167-.427s.075-.323.166-.323c.092 0 .167-.225.167-.5s.075-.5.167-.5c.091 0 .166-.15.166-.334 0-.183.068-.333.151-.333.084 0 .283-.431.445-.958.161-.527.342-1.034.402-1.125.06-.092.211-.505.335-.917.124-.413.287-.821.363-.908.076-.087.138-.331.138-.542 0-.211.075-.383.166-.383.092 0 .167-.225.167-.5s.075-.5.167-.5c.091 0 .166-.146.166-.324 0-.178.075-.37.167-.426.092-.057.167-.286.167-.51 0-.224.075-.407.166-.407.092 0 .167-.225.167-.5s.075-.5.167-.5c.091 0 .166-.183.166-.407 0-.224.075-.453.167-.51.092-.056.167-.248.167-.426s.075-.324.166-.324c.092 0 .167-.302.167-.671v-.672l-2.031.047-2.031.046-.273.79c-.149.434-.323.841-.385.903-.062.062-.113.251-.113.421 0 .169-.068.438-.151.597-.082.159-.24.627-.349 1.039-.11.413-.267.881-.35 1.04-.083.159-.15.404-.15.544s-.068.384-.151.544c-.082.159-.241.626-.353 1.039-.111.412-.229.844-.261.958-.124.442-.569.214-.569-.291 0-.275-.075-.5-.166-.5-.092 0-.167-.225-.167-.5s-.075-.5-.167-.5c-.091 0-.166-.188-.166-.417 0-.229-.075-.417-.167-.417-.092 0-.167-.225-.167-.5s-.075-.5-.166-.5c-.092 0-.167-.225-.167-.5s-.075-.5-.167-.5c-.091 0-.166-.225-.166-.5s-.075-.5-.167-.5c-.092 0-.167-.225-.167-.5s-.075-.5-.166-.5c-.092 0-.167-.193-.167-.428 0-.79-.305-.905-2.405-.905h-1.928v.667m-191 2.166c0 .092.191.167.424.167.468 0 1.242.671 1.242 1.076 0 .141.075.257.167.257.103 0 .167.917.167 2.417 0 1.5-.064 2.417-.167 2.417-.092 0-.167.116-.167.257 0 .405-.774 1.076-1.242 1.076-.233 0-.424.075-.424.167 0 .091-.263.166-.584.166-.321 0-.583-.075-.583-.166 0-.092-.191-.167-.424-.167-.468 0-1.243-.671-1.243-1.076 0-.141-.075-.257-.166-.257-.104 0-.167-.917-.167-2.417 0-1.5.063-2.417.167-2.417.091 0 .166-.116.166-.257 0-.405.775-1.076 1.243-1.076.233 0 .424-.075.424-.167 0-.091.262-.166.583-.166.321 0 .584.075.584.166m77.5 0c0 .092.116.167.257.167.334 0 1.076.742 1.076 1.076 0 .141.075.257.167.257.091 0 .166.15.166.334 0 .315-.111.333-2.094.333-1.152 0-2.239.078-2.417.173-.278.148-.322.116-.322-.239 0-.486.66-1.584.958-1.594.115-.003.209-.082.209-.173 0-.092.183-.167.406-.167.224 0 .454-.075.51-.167.057-.091.324-.166.594-.166.269 0 .49.075.49.166m53.5 0c0 .092.116.167.257.167.334 0 1.076.742 1.076 1.076 0 .141.075.257.167.257.091 0 .166.15.166.334 0 .315-.111.333-2.094.333-1.152 0-2.224.069-2.382.154-.25.134-.279.081-.221-.416.08-.684.984-1.738 1.491-1.738.194 0 .4-.075.456-.167.057-.091.324-.166.594-.166.269 0 .49.075.49.166m14.166 0c0 .092.188.167.417.167.229 0 .417.075.417.167 0 .091.08.166.178.166.266 0 .655.439.655.738 0 .144.068.262.151.262.156 0 .361 1.315.363 2.334.003.945-.202 2.166-.364 2.166-.083 0-.15.145-.15.322 0 .652-1.138 1.345-2.21 1.345-1.013 0-2.123-.738-2.123-1.411 0-.141-.075-.256-.167-.256-.102 0-.167-.802-.167-2.073 0-1.203.07-2.117.167-2.177.092-.056.167-.252.167-.434 0-.427.721-1.149 1.149-1.149.182 0 .377-.075.434-.167.057-.091.324-.166.593-.166.27 0 .49.075.49.166M341 147.76972c0 .532-.334 1.258-.579 1.258-.105 0-.352.15-.549.334-.229.213-.588.333-.998.333-.353 0-.74.094-.862.208-.176.167-.236.167-.297 0-.042-.114-.283-.208-.535-.208-.875 0-1.134-1.297-.388-1.939.423-.364.602-.394 2.333-.394H341v.408"/></g></g></svg>