<svg xmlns="http://www.w3.org/2000/svg" viewBox="-0.06 -0.06 232.12 263.12"><title>Amazon Elastic Container Service (ECS) logo</title><defs><style>.cls-1{fill:#9d5125}.cls-2{fill:#f58534}.cls-3{fill:#6b3b19}</style></defs><path d="M14.333 232.055h6.13l9.171 25.925H23.76l-1.71-5.329h-9.548l-1.757 5.33H5.078zm-.357 16.128h6.639l-3.275-10.2zm42.471-9.303a5.575 5.575 0 0 1 2.234 1.723 5.509 5.509 0 0 1 1.09 2.462 17.044 17.044 0 0 1 .176 2.832l-.035 12.083h-5.136v-12.206a4.008 4.008 0 0 0-.351-1.794 2.5 2.5 0 0 0-2.463-1.337 2.881 2.881 0 0 0-2.867 1.724 5.41 5.41 0 0 0-.404 2.198v11.415h-5.048v-11.415a6.411 6.411 0 0 0-.352-2.48 2.456 2.456 0 0 0-2.48-1.389 2.96 2.96 0 0 0-2.884 1.39 5.347 5.347 0 0 0-.405 2.356v11.538H32.44v-19.135h4.871v2.796a8.077 8.077 0 0 1 1.759-2.128 6.963 6.963 0 0 1 7.334-.159 5.637 5.637 0 0 1 1.654 2.305 6.368 6.368 0 0 1 2.444-2.48 7.464 7.464 0 0 1 3.447-.791 6.677 6.677 0 0 1 2.498.492zm15.701 7.44a7.93 7.93 0 0 0 2.002-.44 1.508 1.508 0 0 0 1.081-1.425 1.685 1.685 0 0 0-.829-1.627 5.242 5.242 0 0 0-2.434-.448 3.193 3.193 0 0 0-2.549.88 3.624 3.624 0 0 0-.713 1.758h-4.837a7.336 7.336 0 0 1 1.413-4.133q1.996-2.533 6.854-2.533a12.228 12.228 0 0 1 5.618 1.248q2.455 1.25 2.455 4.714v8.794q0 .916.035 2.216a2.786 2.786 0 0 0 .299 1.337 1.788 1.788 0 0 0 .738.58v.74H75.83a5.538 5.538 0 0 1-.317-1.092q-.087-.51-.14-1.16a10.359 10.359 0 0 1-2.406 1.917 7.274 7.274 0 0 1-3.68.932 6.348 6.348 0 0 1-4.325-1.486 5.284 5.284 0 0 1-1.707-4.212A5.46 5.46 0 0 1 66 247.76a12.29 12.29 0 0 1 4.43-1.231zm3.065 2.339a5.538 5.538 0 0 1-.972.483 8.214 8.214 0 0 1-1.345.343l-1.141.211a7.498 7.498 0 0 0-2.305.687 2.288 2.288 0 0 0-1.184 2.128 2.225 2.225 0 0 0 .723 1.855 2.75 2.75 0 0 0 1.76.571 5.24 5.24 0 0 0 3.027-.949 4.023 4.023 0 0 0 1.437-3.465zm8.284-5.769v-4.08h15.161v4.167l-9.406 10.888h9.74v4.115H82.83v-3.904l9.503-11.187zm35.089 12.745q-2.428 2.997-7.37 2.996-4.943 0-7.37-2.996a11.893 11.893 0 0 1 0-14.4q2.428-3.042 7.37-3.04 4.942 0 7.37 3.04a11.893 11.893 0 0 1 0 14.4zm-4.01-2.77a8.951 8.951 0 0 0 0-8.878 4.454 4.454 0 0 0-6.763 0 8.89 8.89 0 0 0 0 8.878 4.44 4.44 0 0 0 6.763 0zm25.484-12.956q1.882 1.556 1.883 5.162v12.91h-5.137v-11.662a5.357 5.357 0 0 0-.401-2.321 2.82 2.82 0 0 0-2.794-1.478 3.46 3.46 0 0 0-3.474 2.163 7.477 7.477 0 0 0-.489 2.92v10.377h-5.012v-19.135h4.854v2.796a8.495 8.495 0 0 1 1.821-2.128 6.313 6.313 0 0 1 3.905-1.16 7.346 7.346 0 0 1 4.843 1.556zm36.127-3.263h-13.719v5.505h12.593v4.502h-12.593v6.666h14.352v4.661h-19.645v-25.924h19.012zm7.329-1.882a10.671 10.671 0 0 1 7.97-3.2q6.473 0 9.466 4.29a9.355 9.355 0 0 1 1.774 4.837h-5.417a7.383 7.383 0 0 0-1.327-2.814 5.34 5.34 0 0 0-4.29-1.689 5.288 5.288 0 0 0-4.566 2.384 11.645 11.645 0 0 0-1.671 6.745q0 4.363 1.764 6.533a5.527 5.527 0 0 0 4.481 2.173 5.08 5.08 0 0 0 4.25-1.864 8.185 8.185 0 0 0 1.342-3.008h5.382a11.676 11.676 0 0 1-3.559 6.895 10.356 10.356 0 0 1-7.334 2.655 11 11 0 0 1-8.7-3.588q-3.166-3.605-3.166-9.884 0-6.79 3.601-10.465zm27.442 15.213a5.258 5.258 0 0 0 .987 2.657q1.348 1.6 4.615 1.6a9.94 9.94 0 0 0 3.179-.422 3.018 3.018 0 0 0 2.316-3.007 2.215 2.215 0 0 0-1.134-1.988 12.278 12.278 0 0 0-3.6-1.214l-2.807-.615a17.506 17.506 0 0 1-5.684-1.987 6.32 6.32 0 0 1-2.621-5.612 7.452 7.452 0 0 1 2.563-5.786q2.565-2.304 7.532-2.303a11.549 11.549 0 0 1 7.078 2.172 7.726 7.726 0 0 1 3.07 6.305h-5.205a3.712 3.712 0 0 0-2.092-3.324 7.167 7.167 0 0 0-3.228-.651 6.137 6.137 0 0 0-3.425.844 2.671 2.671 0 0 0-1.28 2.357 2.223 2.223 0 0 0 1.261 2.075 15.64 15.64 0 0 0 3.444 1.073l4.55 1.072a11.583 11.583 0 0 1 4.485 1.883 6.342 6.342 0 0 1 2.317 5.294 7.438 7.438 0 0 1-2.746 5.9q-2.747 2.349-7.76 2.348-5.12 0-8.054-2.312a7.654 7.654 0 0 1-2.932-6.359z"/><path d="M20.362 19.212L8.873 24.901v162.185l11.489 5.689 45.287-83.435-45.287-90.128zm34.913 29.225L72.23 24.566l75.85 33.686-17.736 2.789-75.069-12.604zm-13.05 116.786l18.627 25.655 87.228-37.701-16.843-2.566-89.012 14.612z" class="cls-1"/><path d="M47.132 186.528l-26.77 6.247V19.212l26.77 6.135v161.181z" class="cls-2"/><path d="M33.078 12.854l14.054-7.027 26.436 111.432-26.436 88.901-14.054-7.027V12.854zm97.155 137.534l17.847 2.789 16.285-45.399-16.285-49.526-17.847 2.789v89.347z" class="cls-1"/><path d="M74.461 198.463l-27.329 7.697V5.827l27.329 7.808v184.828z" class="cls-2"/><path d="M166.708 149.719L47.132 171.916v34.244l119.576-33.798v-22.643zm.223-87.897L47.132 39.067V5.827l119.799 34.021v21.974z" class="cls-2"/><path d="M148.08 34.494l19.186 5.242v132.626l-19.186 5.243V34.494z" class="cls-2"/><path d="M223.484 88.481l-51.422 2.454-18.182-1.227 51.98-41.941 17.624 40.714z" class="cls-3"/><path d="M153.88 89.708l51.98-3.012V47.767l-51.98 8.478v33.463z" class="cls-1"/><path d="M104.912 86.362l52.761-53.095 26.77 51.31-54.656 3.458-24.875-1.673z" class="cls-3"/><path d="M104.912 86.362l52.761-4.462V33.267l-52.761 12.269v40.826zm48.968 36.698l69.604 1.115-17.624 40.714-51.98-8.366V123.06z" class="cls-1"/><path d="M104.912 126.294l79.531 1.785-26.77 51.31-52.761-12.269v-40.826z" class="cls-1"/><path fill="#fcbf92" d="M104.912 126.294l52.761 4.462 26.77-2.677-54.656-3.458-24.875 1.673zm118.572-2.119l-51.422-2.342-18.182 1.227 51.98 2.9 17.624-1.785z"/><path d="M205.86 86.696l17.624 1.785V53.01l-17.624-5.243v38.929zm-21.417-2.119l-26.77-2.677V33.267l26.77 8.031v43.279zm21.417 41.383l17.624-1.785v35.471l-17.624 5.243V125.96zm-21.417 2.119l-26.77 2.677v48.633l26.77-8.031v-43.279z" class="cls-2"/></svg>