<svg xmlns="http://www.w3.org/2000/svg" role="img" viewBox="31.96 0.21 76.33 106.21"><defs><style>.cls-1{fill:#d86613}</style></defs><g id="Reference"><g id="Product_Icon" data-name="Product Icon"><path d="M103.287 32.448v30.768L76.205 78.863V67.188l15.045-8.681a3.01 3.01 0 0 0 1.505-2.197 7.522 7.522 0 0 0 0-1.174V38.015l10.532-6.019m2.121-4.513a.888.888 0 0 0-.436.105l-14.369 8.305c-.27.15-.857.421-.857.767v18.476a6.019 6.019 0 0 1 0 .768l-16.099 9.283a.903.903 0 0 0-.436.767v16.55a.888.888 0 0 0 .887.888.903.903 0 0 0 .437-.12l31.34-18.055a.903.903 0 0 0 .436-.768V28.25a.873.873 0 0 0-.873-.873h-.015z" class="cls-1"/><path d="M67.81 84.926a2.377 2.377 0 0 1-1.19-.316L35.267 66.556a2.377 2.377 0 0 1-1.189-2.061V24.639a2.377 2.377 0 0 1 1.189-2.061L69.75 2.673a2.347 2.347 0 0 1 2.392 0l31.34 18.054a2.392 2.392 0 0 1 1.189 2.061 2.422 2.422 0 0 1-1.189 2.077L70.187 44.123v38.426a2.347 2.347 0 0 1-1.19 2.061 2.377 2.377 0 0 1-1.188.316zM37.085 64.088l30.091 17.363v-37.69a2.407 2.407 0 0 1 1.189-2.075l32.664-18.837L70.939 5.47 37.1 25.031zM70.623 5.275z" class="cls-1"/></g></g><path d="M42.055 104.162l-.49-2.012h-2.604l-.504 2.012h-1.68l2.464-9.496h2.142l2.422 9.496zm-1.75-7.98h-.056l-1.078 4.708h2.185zm6.835 1.295a1.67 1.67 0 0 1 1.137-.383 1.825 1.825 0 0 1 .656.107 1.467 1.467 0 0 1 .474.288 1.661 1.661 0 0 1 .327.423 2.227 2.227 0 0 1 .203.496h.028a2.056 2.056 0 0 1 .637-.898 1.899 1.899 0 0 1 .539-.302 2.002 2.002 0 0 1 .7-.114 1.692 1.692 0 0 1 .945.235 1.593 1.593 0 0 1 .553.623 2.843 2.843 0 0 1 .266.893 7.391 7.391 0 0 1 .07 1.025v4.292h-1.582V99.87a4.89 4.89 0 0 0-.028-.516 1.666 1.666 0 0 0-.12-.476.796.796 0 0 0-.265-.342.756.756 0 0 0-.455-.128.958.958 0 0 0-.847.51 2.413 2.413 0 0 0-.315 1.287v3.957h-1.554V99.87a4.89 4.89 0 0 0-.028-.517 1.665 1.665 0 0 0-.119-.475.81.81 0 0 0-.256-.342.716.716 0 0 0-.446-.128.921.921 0 0 0-.827.51 2.486 2.486 0 0 0-.299 1.274v3.97h-1.58v-6.84h1.567v1.086h.028a1.883 1.883 0 0 1 .592-.931zm11.477 5.666a1.616 1.616 0 0 1-.56.878 1.711 1.711 0 0 1-1.078.316 1.995 1.995 0 0 1-.63-.108 1.55 1.55 0 0 1-.581-.355 1.914 1.914 0 0 1-.427-.645 2.438 2.438 0 0 1-.168-.958 2.306 2.306 0 0 1 .273-1.187 2.11 2.11 0 0 1 .7-.73 2.758 2.758 0 0 1 .952-.37 5.442 5.442 0 0 1 1.029-.1h.392v-.215a1.404 1.404 0 0 0-.287-.985 1.005 1.005 0 0 0-.763-.302 1.49 1.49 0 0 0-.735.18 1.888 1.888 0 0 0-.567.477l-.756-.952a2.64 2.64 0 0 1 .994-.732 2.974 2.974 0 0 1 1.19-.261 2.757 2.757 0 0 1 1.113.2 1.804 1.804 0 0 1 .735.585 2.424 2.424 0 0 1 .399.945 6.202 6.202 0 0 1 .119 1.275v4.063h-1.316v-1.02zm-.056-2.186h-.462a3.342 3.342 0 0 0-.567.047 1.298 1.298 0 0 0-.483.18.983.983 0 0 0-.336.37 1.254 1.254 0 0 0-.126.596 1.107 1.107 0 0 0 .245.791.764.764 0 0 0 .567.255.863.863 0 0 0 .546-.174 1.267 1.267 0 0 0 .357-.443 2.302 2.302 0 0 0 .196-.597 3.37 3.37 0 0 0 .063-.636zm2.744 3.205v-1.274l2.687-4.279H61.5v-1.287h4.173v1.22l-2.689 4.333h2.703v1.287zm10.947-3.406a5.42 5.42 0 0 1-.189 1.474 3.45 3.45 0 0 1-.548 1.148 2.587 2.587 0 0 1-.863.744 2.608 2.608 0 0 1-2.301 0 2.597 2.597 0 0 1-.864-.744 3.449 3.449 0 0 1-.547-1.148 5.382 5.382 0 0 1-.189-1.474 5.522 5.522 0 0 1 .19-1.496 3.598 3.598 0 0 1 .54-1.16 2.425 2.425 0 0 1 .863-.745 2.518 2.518 0 0 1 1.158-.261 2.468 2.468 0 0 1 1.15.261 2.502 2.502 0 0 1 .863.745 3.528 3.528 0 0 1 .548 1.16 5.56 5.56 0 0 1 .19 1.496zm-1.581-.014a5.604 5.604 0 0 0-.07-.919 2.885 2.885 0 0 0-.217-.737 1.401 1.401 0 0 0-.364-.496.85.85 0 0 0-1.05 0 1.344 1.344 0 0 0-.358.496 3.08 3.08 0 0 0-.21.737 6.079 6.079 0 0 0 0 1.831 2.954 2.954 0 0 0 .21.738 1.349 1.349 0 0 0 .358.489.79.79 0 0 0 .525.181.817.817 0 0 0 .531-.181 1.308 1.308 0 0 0 .365-.49 2.933 2.933 0 0 0 .21-.737 5.648 5.648 0 0 0 .07-.912zm4.773-3.42v1.086h.027a2.135 2.135 0 0 1 .652-.931 1.92 1.92 0 0 1 2.072-.148 1.586 1.586 0 0 1 .553.623 2.817 2.817 0 0 1 .265.893 7.391 7.391 0 0 1 .07 1.025v4.292h-1.581V99.87a4.887 4.887 0 0 0-.028-.516 1.699 1.699 0 0 0-.119-.476.798.798 0 0 0-.267-.342.754.754 0 0 0-.455-.128.958.958 0 0 0-.846.51 2.413 2.413 0 0 0-.316 1.287v3.957h-1.58v-6.84zm8.554 6.84v-9.496h4.438v1.422h-2.828v2.521h2.618v1.315h-2.618v2.803h2.968v1.435zm10.997-.107a3.05 3.05 0 0 1-1.534.348 3.087 3.087 0 0 1-1.518-.375 3.43 3.43 0 0 1-1.149-1.04 5.15 5.15 0 0 1-.727-1.575 7.873 7.873 0 0 1 0-4.004 5.051 5.051 0 0 1 .735-1.583 3.42 3.42 0 0 1 1.155-1.032 3.1 3.1 0 0 1 1.504-.37 3.494 3.494 0 0 1 1.499.303 2.666 2.666 0 0 1 1.05.865l-.966 1.127a1.758 1.758 0 0 0-1.484-.792 1.457 1.457 0 0 0-.882.275 2.175 2.175 0 0 0-.63.744 3.958 3.958 0 0 0-.379 1.107 7.017 7.017 0 0 0-.126 1.361 6.925 6.925 0 0 0 .126 1.348 3.965 3.965 0 0 0 .38 1.107 2.14 2.14 0 0 0 .636.744 1.51 1.51 0 0 0 .902.275 1.476 1.476 0 0 0 .848-.241 2.22 2.22 0 0 0 .595-.59l.966 1.086a3.033 3.033 0 0 1-1.001.912zm6.432.107l-1.54-4.05h-.938v4.05h-1.624v-9.496h2.828a3.964 3.964 0 0 1 1.134.154 2.285 2.285 0 0 1 .89.49 2.309 2.309 0 0 1 .58.845 3.203 3.203 0 0 1 .21 1.221 2.958 2.958 0 0 1-.147.972 2.557 2.557 0 0 1-.371.717 2.04 2.04 0 0 1-.497.477 1.77 1.77 0 0 1-.54.248l1.78 4.372zm-.112-6.706a1.745 1.745 0 0 0-.126-.71 1.159 1.159 0 0 0-.33-.443 1.242 1.242 0 0 0-.454-.229 1.985 1.985 0 0 0-.504-.066h-.952v2.924h.952a1.33 1.33 0 0 0 1.414-1.476z"/></svg>