<svg viewBox="-0.66 -1.66 291.32 294.32" xmlns="http://www.w3.org/2000/svg"><title>Ambassador</title><style>.st1{fill:#fff}.st2{fill:#333}</style><filter id="filter-1" width="130%" height="366.7%" x="-15%" y="-133.3%" filterUnits="objectBoundingBox"><feGaussianBlur in="SourceGraphic" stdDeviation="4"/></filter><g id="Page-1"><g id="Ambassador" transform="translate(-25 -10)"><g id="Group-4" transform="translate(0 4)"><g id="Group-2" transform="translate(12)"><g id="Group-17-Copy-2" transform="translate(0 54)"><g id="Group-16"><g id="Oval-8-Copy-10" filter="url(#filter-1)" opacity=".204"><ellipse cx="153.4" cy="187.5" rx="40" ry="4.5"/></g><g id="Group-12-Copy-8" transform="translate(52 164)"><path id="Line-Copy-18" d="M83.5 4.2c-.7 0-1.2.6-1.2 1.2l.5 14c0 .7.6 1.2 1.2 1.2l5.6-.2c.7 0 1.2-.6 1.2-1.2l-.5-14c0-.7-.6-1.2-1.2-1.2l-5.6.2z"/><path id="Rectangle-7-Copy-15" d="M70.4 17.4c0-1.3 1.1-2.4 2.4-2.4H83c1.3 0 2.4 1.1 2.4 2.4v1.1c0 .6-.4 1-1 1l-11.6.3c-1.3.1-2.4-1-2.4-2.4z"/></g><g id="Group-12-Copy-10" transform="matrix(-1 0 0 1 117 164)"><path id="Line-Copy-18_1_" d="M-57.4 4.2c-.7 0-1.2.6-1.2 1.2l.5 14c0 .7.6 1.2 1.2 1.2l5.6-.2c.7 0 1.2-.6 1.2-1.2l-.5-14c0-.7-.6-1.2-1.2-1.2l-5.6.2z"/><path id="Rectangle-7-Copy-15_1_" d="M-70.4 17.4c0-1.3 1.1-2.4 2.4-2.4h10.2c1.3 0 2.4 1.1 2.4 2.4v1.1c0 .6-.4 1-1 1l-11.6.3c-1.4.1-2.4-1-2.4-2.4z"/></g><path id="Combined-Shape" d="M145.8 3c3.4 4.2 12.7 9.7 24.3 13.9 12 4.4 23 6.1 28.1 4.9 7 9.4 10.4 21.6 8.9 35l-11 92.4c-1.4 12.1-12.5 21.9-24.6 21.9h-36c-12.1 0-23.2-9.8-24.6-21.9l-11-92.4C96.4 27.7 116.8 4 145.8 3zm10.8 0h2.7c12.3 0 23.1 4.1 31.4 10.9-1 2.5-9.4 1.7-18.8-1.8-7.7-2.8-13.8-6.5-15.3-9.1z"/><g id="Group" transform="translate(42 27)"><g id="Group-3" transform="translate(43)"><path id="Oval-3-Copy-4" d="M95.2 29.6c7.8-4.5 10.5-14.5 6-22.3-4.5-7.8-28.3 16.4-28.3 16.4s14.5 10.4 22.3 5.9z" class="st1"/><ellipse id="Oval-3-Copy-5" cx="82.2" cy="19.3" rx="5.3" ry="5.2"/></g><g id="Group-3-Copy" transform="matrix(-1 0 0 1 39 0)"><path id="Oval-3-Copy-4_1_" d="M-45.7 29.6c7.8-4.5 10.5-14.5 6-22.3S-68 23.7-68 23.7s14.5 10.4 22.3 5.9z" class="st1"/><ellipse id="Oval-3-Copy-5_1_" cx="-58.7" cy="19.3" rx="5.3" ry="-5.2"/></g></g><path id="Combined-Shape-Copy-13" d="M106.9 122.5l-5.7-10.7 1.8-.9 5 9.5 1-2.1-4.8-9.1 1.8-.9 4.1 7.8 1-2.1-3.9-7.4 1.8-.9 3.3 6.1 4.4-8.8s-7.1-17.9-8.4-22.2C106 73.5 85 76 83.6 88.2c-1.4 12.3 18.7 43.4 18.7 43.4l4.6-9.1z"/><path id="Combined-Shape-Copy-4" d="M232.9 65.2L222.8 72l1.1 1.7 8.9-6-.1 2.3-8.5 5.7 1.1 1.7 7.3-4.9-.1 2.3-6.9 4.7 1.1 1.7 5.7-3.9-.3 9.8s-14.6 12.4-17.8 15.6c-5.4 5.4-22.7-6.7-18.2-18.2C200.8 73 233.2 55 233.2 55l-.3 10.2z"/><path id="Rectangle-2-Copy-18" d="M102.4 69l51.6 45.7 50.9-48.4-10.6 90.4-79.5.9z" class="st1"/><g id="Rectangle-2-Copy-17"><path id="path-2" d="M108 126.6l-5.4-54.4 52.7 78.6 48.9-76.3-4.5 45.5-4.1 44.1-15.8 15.3-15.1-1-10.1-5.8-8.8 4.8-14 2-19-14.4z" class="st2"/><path fill="none" stroke="#000" d="M108.5 126.5l4.8 38.2 18.6 14.1 13.7-2 8.9-4.8 10.3 5.8 14.8 1 15.5-14.9 4.1-43.9 4.3-43.5-48.2 75.2-52-77.6 5.2 52.4z"/></g><path id="Rectangle-4-Copy-7" fill="#f5a623" d="M152.2 59.4c.8-.8 2-.8 2.8 0l9.9 9.9c.8.8.6 1.8-.4 2.3l-8.6 4.3c-1 .5-2.6.5-3.6.1l-9.6-4.4c-1-.5-1.2-1.5-.4-2.2l9.9-10z"/></g></g><g id="Group_1_" transform="rotate(20 46.248 262.283)"><path id="Shape" d="M115.2 21.5c.1 1.4.2 2.9.4 4.3 0 2.6-8.2 4.8-18.3 4.8-10.1 0-18.3-2.1-18.3-4.8.2-1.4.3-2.8.4-4.3-7.4 1.4-12.2 3.7-12.2 6.3 0 4.3 13.5 7.9 30.1 7.9s30.1-3.5 30.1-7.9c-.1-2.6-4.8-4.9-12.2-6.3z"/><path id="Shape_1_" fill="#e54733" d="M116.5-7.5c-.6 2.8-7.9 5-19.2 5-11.4 0-18.7-2.2-19.2-5 0 0 2.2 17.3 1.4 34 .8 2.4 8.5 4.2 17.8 4.2s17-1.9 17.8-4.2c-.8-16.8 1.4-34 1.4-34z"/><path id="Shape-Copy" d="M118.5-14.2c-.6 2.8-9.9 5-21.2 5-11.4 0-20.7-2.2-21.2-5 0 0 4.2 17.3 3.4 34 .8 2.4 8.5 4.2 17.8 4.2s17-1.9 17.8-4.2c-.8-16.7 3.4-34 3.4-34z"/><path id="Shape_2_" d="M118.6-15.5v.3c-.6 2.8-9.9 5-21.2 5-11.4 0-20.7-2.2-21.2-5v-.3c0-2.9 9.5-5.3 21.3-5.3 11.5 0 21.1 2.4 21.1 5.3z"/></g><path id="Path-8-Copy" fill="#e64934" stroke="#000" d="M132.6 139.7c-.9-.6-1.6-.2-1.5.9l2.1 26c.1 1.1.9 1.5 1.8.9l39.7-27.5c.9-.6 1.6-.2 1.6.9v25.3c0 1.1-.8 1.5-1.7.9l-42-27.4z"/><g id="Group-2-Copy" transform="translate(81 174)"><circle id="Oval-10-Copy" cx="72.4" cy="5" r="2"/><circle id="Oval-10-Copy-2" cx="72.4" cy="13" r="2"/></g><g id="SR-71-Copy-4"><g transform="rotate(-56 108.896 180.164)"><path id="path-3" d="M133.7 239.1v-.6c0-.6.2-1.1.5-1.4.4-.3.8-.5 1.4-.5h.8c.9 0 1.7.1 2.3.4v1.5c-.6-.1-1.4-.1-2.4-.1-.3 0-.5 0-.6.1-.1 0-.2.2-.2.4v.1c0 .2 0 .3.1.4s.2.1.5.1h.9c.8 0 1.3.3 1.7 1 .1.3.2.7.2 1.1v.3c0 1.5-.7 2.2-2 2.2H135c-.3 0-.7-.1-1.2-.3v-1.5c.7.1 1.6.1 2.6.1.2 0 .4 0 .5-.1.1-.1.1-.2.1-.3v-.2c0-.2 0-.3-.1-.3-.1-.1-.2-.1-.4-.1h-.9c-.4 0-.7-.1-.9-.2-.3-.1-.5-.3-.6-.4-.1-.2-.2-.3-.3-.6-.1-.4-.1-.8-.1-1.1zm6 4.8v-7.3h3.3c.7 0 1.3.2 1.7.5.4.4.6 1 .6 1.8s-.1 1.4-.4 1.7c-.1.1-.2.3-.3.3s-.2.1-.4.2l1.3 2.8h-2.2l-.9-2.6-.6-.1v2.7h-2.1zm1.9-4.2h1.1c.2 0 .4-.1.4-.2.1-.1.1-.3.1-.6s0-.5-.1-.6c-.1-.1-.2-.2-.4-.2h-1.1v1.6zm4 2.1v-1.5h3.1v1.5h-3.1zm3.6-3.5v-1.7h4.8l.5.8-2.3 6.5h-2.1l2-5.6h-2.9zm8.8-1.7v7.3h-1.9v-5.5l-1.2.2v-1.2l1.2-.8h1.9z" class="st2"/></g><g transform="rotate(-56 108.896 180.164)"><path id="path-3_1_" d="M133.7 239.1v-.6c0-.6.2-1.1.5-1.4.4-.3.8-.5 1.4-.5h.8c.9 0 1.7.1 2.3.4v1.5c-.6-.1-1.4-.1-2.4-.1-.3 0-.5 0-.6.1-.1 0-.2.2-.2.4v.1c0 .2 0 .3.1.4s.2.1.5.1h.9c.8 0 1.3.3 1.7 1 .1.3.2.7.2 1.1v.3c0 1.5-.7 2.2-2 2.2H135c-.3 0-.7-.1-1.2-.3v-1.5c.7.1 1.6.1 2.6.1.2 0 .4 0 .5-.1.1-.1.1-.2.1-.3v-.2c0-.2 0-.3-.1-.3-.1-.1-.2-.1-.4-.1h-.9c-.4 0-.7-.1-.9-.2-.3-.1-.5-.3-.6-.4-.1-.2-.2-.3-.3-.6-.1-.4-.1-.8-.1-1.1zm6 4.8v-7.3h3.3c.7 0 1.3.2 1.7.5.4.4.6 1 .6 1.8s-.1 1.4-.4 1.7c-.1.1-.2.3-.3.3s-.2.1-.4.2l1.3 2.8h-2.2l-.9-2.6-.6-.1v2.7h-2.1zm1.9-4.2h1.1c.2 0 .4-.1.4-.2.1-.1.1-.3.1-.6s0-.5-.1-.6c-.1-.1-.2-.2-.4-.2h-1.1v1.6zm4 2.1v-1.5h3.1v1.5h-3.1zm3.6-3.5v-1.7h4.8l.5.8-2.3 6.5h-2.1l2-5.6h-2.9zm8.8-1.7v7.3h-1.9v-5.5l-1.2.2v-1.2l1.2-.8h1.9z"/></g></g><circle id="Oval-10" cx="135.4" cy="97" r="19" fill="#fff" fill-opacity=".2" stroke="#fff" stroke-width="2"/><path id="Path-9" fill="none" stroke="#fff" stroke-width="2" d="M116.9 93s-4.9 11.4 3.6 32.9 6.6 31.3 6.6 31.3"/></g></g></g></g><path d="M25.5 253.5l12.4 33.1h-7.5l-2.5-7.4H15.5l-2.6 7.4H5.6l12.5-33.1h7.4zm.4 20.3l-4.2-12.1h-.1l-4.3 12.1h8.6zm20.5-11.1v3.2h.1c.9-1.2 1.9-2.2 3.1-2.9 1.2-.7 2.6-1 4.2-1 1.5 0 2.9.3 4.1.9 1.3.6 2.2 1.6 2.8 3.1.7-1 1.7-2 2.9-2.8 1.2-.8 2.7-1.2 4.3-1.2 1.3 0 2.4.2 3.5.5s2 .8 2.8 1.5c.8.7 1.4 1.6 1.8 2.7.4 1.1.6 2.4.6 4v16H70V273c0-.8 0-1.6-.1-2.3-.1-.7-.2-1.3-.5-1.9-.3-.5-.7-.9-1.2-1.2-.5-.3-1.3-.5-2.2-.5-.9 0-1.7.2-2.2.5-.6.4-1 .8-1.3 1.4-.3.6-.5 1.2-.6 1.9-.1.7-.2 1.5-.2 2.2v13.3h-6.6v-15.5c0-.7-.2-1.3-.4-1.9-.2-.6-.6-1.1-1.2-1.4-.5-.4-1.3-.5-2.4-.5-.3 0-.7.1-1.2.2s-1 .4-1.5.8-.9.9-1.2 1.7c-.3.7-.5 1.7-.5 2.8v13.9h-6.6v-23.9h6.3zm42.2-9.2v12h.1c.8-1.2 1.9-2.1 3.3-2.7 1.4-.6 2.8-.9 4.3-.9 1.2 0 2.4.2 3.6.7 1.2.5 2.2 1.2 3.2 2.3.9 1 1.7 2.3 2.3 3.9.6 1.6.9 3.5.9 5.7s-.3 4.1-.9 5.7c-.6 1.6-1.4 2.9-2.3 3.9-.9 1-2 1.8-3.2 2.3-1.2.5-2.4.7-3.6.7-1.8 0-3.3-.3-4.7-.8-1.4-.6-2.4-1.5-3.1-2.8h-.1v3.1H82v-33.1h6.6zm10.6 18.2c-.2-.9-.6-1.7-1-2.5-.5-.7-1-1.3-1.7-1.7-.7-.4-1.5-.6-2.5-.6s-1.8.2-2.5.6c-.7.4-1.3 1-1.8 1.7s-.8 1.5-1 2.5c-.2.9-.3 1.9-.3 2.9s.1 1.9.3 2.9c.2.9.6 1.7 1 2.5.5.7 1 1.3 1.8 1.7.7.4 1.5.6 2.5.6s1.8-.2 2.5-.6c.7-.4 1.3-1 1.7-1.7.5-.7.8-1.5 1-2.5.2-.9.3-1.9.3-2.9s-.1-1.9-.3-2.9zm12-5.5c.7-1 1.5-1.8 2.6-2.5 1-.6 2.2-1.1 3.5-1.3 1.3-.3 2.6-.4 4-.4 1.2 0 2.4.1 3.7.3 1.2.2 2.4.5 3.4 1s1.9 1.2 2.5 2.1c.6.9 1 2 1 3.5v12.5c0 1.1.1 2.1.2 3.1s.3 1.7.6 2.2H126c-.1-.4-.2-.7-.3-1.1-.1-.4-.1-.8-.2-1.2-1 1.1-2.3 1.8-3.7 2.3-1.4.4-2.9.6-4.4.6-1.1 0-2.2-.1-3.2-.4-1-.3-1.9-.7-2.6-1.3-.7-.6-1.3-1.3-1.7-2.2s-.6-2-.6-3.2c0-1.4.2-2.5.7-3.4.5-.9 1.1-1.6 1.9-2.1.8-.5 1.6-.9 2.6-1.2 1-.3 2-.5 2.9-.6 1-.2 2-.3 2.9-.4 1-.1 1.8-.2 2.5-.4s1.3-.5 1.8-.8c.4-.4.6-.9.6-1.6 0-.7-.1-1.3-.3-1.7-.2-.4-.5-.7-.9-1-.4-.2-.8-.4-1.3-.5-.5-.1-1.1-.1-1.6-.1-1.3 0-2.3.3-3.1.8-.7.6-1.2 1.5-1.3 2.8H110c.1-1.5.5-2.8 1.2-3.8zm12.9 9.3c-.4.1-.9.3-1.3.3-.5.1-1 .2-1.5.2-.5.1-1 .1-1.6.2-.5.1-1 .2-1.5.4s-.9.4-1.2.6c-.4.3-.6.6-.9 1-.2.4-.3.9-.3 1.5s.1 1.1.3 1.5c.2.4.5.7.9.9.4.2.8.4 1.3.5.5.1 1 .1 1.5.1 1.3 0 2.3-.2 3-.6.7-.4 1.2-.9 1.6-1.6.3-.6.5-1.2.6-1.8.1-.6.1-1.1.1-1.5v-2.5c-.2.4-.5.6-1 .8zm18.3 5.1c.3.5.7.9 1.1 1.2.5.3 1 .6 1.6.7.6.2 1.2.2 1.9.2.5 0 .9-.1 1.5-.2.5-.1 1-.3 1.4-.5.4-.2.8-.5 1-.9.3-.4.4-.9.4-1.5 0-1-.7-1.7-2-2.2-1.3-.5-3.1-1-5.5-1.5-1-.2-1.9-.5-2.8-.8-.9-.3-1.7-.7-2.4-1.2s-1.3-1.1-1.7-1.8c-.4-.7-.6-1.6-.6-2.7 0-1.5.3-2.8.9-3.8.6-1 1.4-1.8 2.4-2.3 1-.6 2.1-1 3.3-1.2 1.2-.2 2.5-.3 3.8-.3 1.3 0 2.6.1 3.8.4 1.2.2 2.3.7 3.3 1.2 1 .6 1.8 1.4 2.4 2.3.6 1 1 2.2 1.1 3.7H151c-.1-1.3-.6-2.1-1.4-2.6-.9-.4-1.9-.7-3.1-.7-.4 0-.8 0-1.2.1-.4 0-.8.1-1.2.3s-.7.4-.9.7c-.2.3-.4.7-.4 1.2 0 .6.2 1.1.6 1.4.4.4 1 .7 1.7.9.7.2 1.5.4 2.4.6l2.7.6c1 .2 1.9.5 2.8.8.9.3 1.7.7 2.4 1.2s1.3 1.1 1.7 1.9c.4.8.6 1.7.6 2.8 0 1.6-.3 2.9-.9 4-.6 1.1-1.5 1.9-2.5 2.6-1 .6-2.2 1.1-3.5 1.4-1.3.3-2.6.4-4 .4s-2.7-.1-4.1-.4c-1.3-.3-2.5-.7-3.5-1.4s-1.9-1.5-2.5-2.6c-.7-1.1-1-2.4-1.1-4h6.3c0 .9.2 1.5.5 2zm24.9 0c.3.5.7.9 1.1 1.2.5.3 1 .6 1.6.7.6.2 1.2.2 1.9.2.5 0 .9-.1 1.5-.2.5-.1 1-.3 1.4-.5.4-.2.8-.5 1-.9.3-.4.4-.9.4-1.5 0-1-.7-1.7-2-2.2-1.3-.5-3.1-1-5.5-1.5-1-.2-1.9-.5-2.8-.8-.9-.3-1.7-.7-2.4-1.2s-1.3-1.1-1.7-1.8c-.4-.7-.6-1.6-.6-2.7 0-1.5.3-2.8.9-3.8.6-1 1.4-1.8 2.4-2.3 1-.6 2.1-1 3.3-1.2 1.2-.2 2.5-.3 3.8-.3 1.3 0 2.6.1 3.8.4 1.2.2 2.3.7 3.3 1.2 1 .6 1.8 1.4 2.4 2.3.6 1 1 2.2 1.1 3.7h-6.3c-.1-1.3-.6-2.1-1.4-2.6-.9-.4-1.9-.7-3.1-.7-.4 0-.8 0-1.2.1-.4 0-.8.1-1.2.3-.4.2-.7.4-.9.7-.2.3-.4.7-.4 1.2 0 .6.2 1.1.6 1.4.4.4 1 .7 1.7.9.7.2 1.5.4 2.4.6l2.7.6c1 .2 1.9.5 2.8.8.9.3 1.7.7 2.4 1.2s1.3 1.1 1.7 1.9c.4.8.6 1.7.6 2.8 0 1.6-.3 2.9-.9 4-.6 1.1-1.5 1.9-2.5 2.6-1 .6-2.2 1.1-3.5 1.4-1.3.3-2.6.4-4 .4s-2.7-.1-4.1-.4c-1.3-.3-2.5-.7-3.5-1.4s-1.9-1.5-2.5-2.6c-.7-1.1-1-2.4-1.1-4h6.3c0 .9.2 1.5.5 2zm20.2-14.4c.7-1 1.5-1.8 2.6-2.5 1-.6 2.2-1.1 3.5-1.3 1.3-.3 2.6-.4 4-.4 1.2 0 2.4.1 3.7.3 1.2.2 2.4.5 3.4 1s1.9 1.2 2.5 2.1c.6.9 1 2 1 3.5v12.5c0 1.1.1 2.1.2 3.1s.3 1.7.6 2.2h-6.7c-.1-.4-.2-.7-.3-1.1-.1-.4-.1-.8-.2-1.2-1.1 1.1-2.3 1.8-3.7 2.3-1.4.4-2.9.6-4.4.6-1.1 0-2.2-.1-3.2-.4-1-.3-1.9-.7-2.6-1.3-.7-.6-1.3-1.3-1.7-2.2-.4-.9-.6-2-.6-3.2 0-1.4.2-2.5.7-3.4.5-.9 1.1-1.6 1.9-2.1.8-.5 1.6-.9 2.6-1.2 1-.3 2-.5 2.9-.6 1-.2 2-.3 2.9-.4 1-.1 1.8-.2 2.5-.4s1.3-.5 1.8-.8c.4-.4.6-.9.6-1.6 0-.7-.1-1.3-.3-1.7-.2-.4-.5-.7-.9-1-.4-.2-.8-.4-1.3-.5-.5-.1-1.1-.1-1.6-.1-1.3 0-2.3.3-3.1.8-.7.6-1.2 1.5-1.3 2.8h-6.6c0-1.5.4-2.8 1.1-3.8zm12.9 9.3c-.4.1-.9.3-1.3.3-.5.1-1 .2-1.5.2-.5.1-1.1.1-1.6.2s-1 .2-1.5.4-.9.4-1.3.6c-.4.3-.6.6-.9 1s-.3.9-.3 1.5.1 1.1.3 1.5c.2.4.5.7.9.9.4.2.8.4 1.3.5.5.1 1 .1 1.5.1 1.3 0 2.3-.2 3-.6.7-.4 1.2-.9 1.6-1.6.3-.6.5-1.2.6-1.8.1-.6.1-1.1.1-1.5v-2.5c-.1.4-.4.6-.9.8zm29.7 8c-.8 1.3-1.8 2.2-3 2.8-1.3.6-2.7.9-4.2.9-1.8 0-3.4-.3-4.7-1-1.4-.7-2.5-1.6-3.4-2.8-.9-1.2-1.5-2.6-2-4.1-.4-1.5-.7-3.1-.7-4.8 0-1.6.2-3.2.7-4.7.4-1.5 1.1-2.8 2-4 .9-1.1 2-2.1 3.3-2.8 1.3-.7 2.9-1 4.6-1 1.4 0 2.8.3 4.1.9 1.3.6 2.3 1.5 3 2.7h.1v-12h6.6v33.1h-6.2l-.2-3.2zm-.2-11.8c-.2-.9-.5-1.7-.9-2.4s-1-1.3-1.7-1.7c-.7-.4-1.6-.6-2.7-.6s-2 .2-2.7.6c-.7.4-1.3 1-1.8 1.7-.4.7-.8 1.5-1 2.4s-.3 1.9-.3 2.8c0 .9.1 1.9.3 2.8.2.9.6 1.8 1 2.5.5.7 1.1 1.3 1.8 1.8.7.4 1.6.7 2.6.7 1.1 0 2-.2 2.7-.6.7-.4 1.3-1 1.7-1.7.4-.7.7-1.6.9-2.5.2-.9.3-1.9.3-2.9s0-2-.2-2.9zm11.7-2.3c.6-1.6 1.4-2.9 2.5-4s2.4-1.9 3.9-2.5c1.5-.6 3.2-.9 5.1-.9 1.9 0 3.6.3 5.1.9s2.8 1.5 3.9 2.5c1.1 1.1 1.9 2.4 2.5 4 .6 1.6.9 3.3.9 5.2 0 1.9-.3 3.6-.9 5.2-.6 1.5-1.4 2.9-2.5 4s-2.4 1.9-3.9 2.5c-1.5.6-3.2.9-5.1.9-1.9 0-3.6-.3-5.1-.9-1.5-.6-2.8-1.4-3.9-2.5s-1.9-2.4-2.5-4c-.6-1.5-.9-3.3-.9-5.2 0-1.9.3-3.6.9-5.2zm6 8c.2.9.5 1.7.9 2.5.4.7 1 1.3 1.8 1.7.7.4 1.7.6 2.8.6 1.1 0 2-.2 2.8-.6.8-.4 1.4-1 1.8-1.7.4-.7.8-1.5.9-2.5.2-.9.3-1.8.3-2.8 0-1-.1-1.9-.3-2.8-.2-.9-.5-1.7-.9-2.5-.4-.7-1.1-1.3-1.8-1.7-.8-.4-1.7-.7-2.8-.7-1.1 0-2 .2-2.8.7-.7.4-1.3 1-1.8 1.7-.4.7-.8 1.5-.9 2.5-.2.9-.3 1.9-.3 2.8 0 1 .1 1.9.3 2.8zm28.4-14.7v4.4h.1c.3-.7.7-1.4 1.3-2.1.5-.6 1.1-1.2 1.8-1.6.7-.4 1.4-.8 2.2-1 .8-.2 1.6-.4 2.4-.4.4 0 .9.1 1.4.2v6.1c-.3-.1-.7-.1-1.1-.2-.4 0-.8-.1-1.2-.1-1.2 0-2.2.2-3.1.6-.8.4-1.5.9-2 1.6s-.9 1.5-1.1 2.4c-.2.9-.3 1.9-.3 3v10.8h-6.6v-23.9h6.2z"/></svg>