<svg xmlns="http://www.w3.org/2000/svg" role="img" viewBox="90.78 92.78 427.44 426.19"><title>American Express (member) logo</title><style>svg {enable-background:new 0 0 610 610}</style><style>.st1{fill:#006fcf}</style><switch><g><path fill="#fff" d="M509.001 511H99V101h410.001v410z"/><path d="M493.51898 390.56604h-134.729l-8.55896-11.11005v11.11005h-29.19605v-17.72705c-3.695 1.37701-7.883 2.198-12.56195 2.198h-4.76098v15.52905h-43.279l-6.62805-9.24805-6.41801 9.24805h-70.40299v-67.919H247.66l6.56002 9.11096 6.48701-9.11097h248.29395V101H99v166.521l14.219-33.138h28.303l7.31201 17.01v-17.01h34.583l4.556 13.462 4.55499-13.462h150.264v6.32199c5.62597-4.33799 12.932-6.322 20.911-6.322h46.66101l7.31195 17.01002V234.383h27.95502l8.143 12.631v-12.631h29.959v67.92H454.258l-7.659-11.873v11.873h-41.82703l-3.93493-10.079h-8.83802l-3.92901 10.079h-25.125c-6.638 0-14.14801-1.35299-20.15302-5.859v5.859h-42.453l-8.55896-11.11v11.11H135.92999l-3.935-10.079H123.162l-3.935 10.079H99V511h410.00098V386.13898c-4.175 2.75503-9.47998 4.42706-15.482 4.42706z" class="st1"/><path d="M493.52197 369.932h-24.98694v10.83698h24.91901c10.48993 0 16.70294-6.35498 16.70294-15.67102 0-8.76391-5.456-13.87195-15.04602-13.87195H483.654c-2.557 0-4.35095-1.58902-4.35095-4.00403 0-2.41397 1.79394-3.935 4.35095-3.935h20.84204l4.76093-10.836h-25.46698c-10.49494 0-16.776 6.41703-16.776 15.18702 0 9.111 5.94 14.35596 15.11902 14.35596h11.38897c2.552 0 4.41907 1.58905 4.41907 4.00305 0 2.41498-1.86707 3.935-4.41907 3.935m-44.24695 0h-24.98199v10.83697h24.914c10.495 0 16.708-6.35498 16.708-15.67102 0-8.76391-5.455-13.87195-15.05102-13.87195h-11.45703c-2.552 0-4.34497-1.58902-4.34497-4.00403 0-2.41397 1.79297-3.935 4.34497-3.935H460.255l4.76001-10.836h-25.47204c-10.48901 0-16.76996 6.41703-16.76996 15.18702 0 9.111 5.93298 14.35596 15.11896 14.35596h11.38305c2.55701 0 4.41895 1.58905 4.41895 4.00305 0 2.41498-1.86194 3.935-4.41895 3.935m-30.437-26.64502v-10.836h-39.34406v48.318H418.838V369.932h-27.05499v-8.21704h26.43396V351.157h-26.43396V343.287h27.055zm-62.25898 0c3.72992 0 5.65997 2.27801 5.65997 4.97204 0 2.76197-1.93005 4.89698-5.65997 4.89698h-13.32v-9.86902h13.32zm-13.32 20.36401h4.76098l14.43 17.11798h15.11297L361.89703 363.167c7.93897-1.72601 12.69898-7.59698 12.69898-15.11902 0-9.24798-6.417-15.59698-16.77002-15.59698H330.976v48.318h12.28302V363.651zm-29.88502-14.84c0 2.96702-1.93603 5.382-5.661 5.382h-13.66706v-10.90601H307.713c3.72498 0 5.66101 2.483 5.66101 5.52401M281.763 332.451v48.318h12.28296v-15.74H308.539c10.63196 0 17.18604-6.96997 17.18604-16.286 0-9.66398-6.41803-16.292-16.77008-16.292H281.763zm-16.42895 48.318H280.726l-19.46405-24.36701 19.32807-23.951h-14.98304l-11.389 14.83906-11.389-14.83905H227.442l19.32202 24.224-19.25403 24.094h14.97702l11.389-14.982 11.45804 14.982zm-38.79204-37.482v-10.836h-39.344v48.318h39.344V369.932H199.487v-8.21704h26.435V351.157h-26.435V343.287h27.055zM458.60699 292.502h14.90802v-48.31903H461.3v29.96003l-19.25897-29.96003h-15.52906v48.31903H438.727V261.444l19.88 31.05801zM389.65601 272.138l6.69097-16.565 6.766 16.565H389.656zm21.742 20.36401h13.80402L404.565 244.18298H388.62l-20.706 48.31903h13.52503l4.00293-9.86901h21.953l4.00305 9.86901zm-49.69604 0h.96704l5.03497-10.83697h-3.935c-7.72803 0-12.284-4.69205-12.284-12.97803v-.68902c0-7.249 4.07203-12.62998 12.07905-12.62998h12.97796v-11.18503h-13.94696c-15.18103 0-23.32403 10.08002-23.32403 23.815v.68903c0 14.84 8.55798 23.815 22.43097 23.815m-40.654 0h12.28907V244.183h-12.28907V292.502zm-22.91601-37.48199c3.72503 0 5.661 2.27801 5.661 4.97198 0 2.761-1.93597 4.90201-5.661 4.90201h-13.31897v-9.87399h13.31897zM284.81299 275.384h4.76105l14.42395 17.11801H319.117L303.44604 274.9c7.938-1.725 12.69898-7.591 12.69898-15.113 0-9.249-6.41803-15.604-16.771-15.604H272.524V292.502h12.289v-17.118zM265.622 255.02002v-10.83704H226.278v48.31903h39.344v-10.83697h-27.055V273.454h26.43398v-10.564H238.567v-7.87h27.055zm-83.101 37.482H193.215l12.773-35.75602v35.75601h12.147v-48.31903h-19.328l-10.768 30.785-10.837-30.785h-19.533v48.31903h12.153v-35.756l12.69901 35.756zm-61.707-20.36402l6.697-16.565 6.765 16.565h-13.462zm21.742 20.36401h13.804L135.722 244.18298h-15.945l-20.7052 48.31903H112.602l4.00401-9.86901h21.947l4.00302 9.86901z" class="st1"/></g></switch></svg>