<svg xmlns="http://www.w3.org/2000/svg" role="img" viewBox="-1.20 -1.20 114.27 49.27"><title>Amido (member) logo</title><style>svg {enable-background:new 0 0 112 47}</style><path d="M48.65 44.56c0 .03-.01.06-.03.08-.02.02-.06.03-.11.04-.05.01-.12.01-.22.01s-.18 0-.23-.01c-.05-.01-.08-.02-.1-.04-.02-.02-.03-.04-.03-.08v-.25c-.13.14-.27.24-.43.32-.16.08-.34.11-.54.11-.16 0-.31-.02-.45-.06-.14-.04-.26-.11-.36-.19-.1-.08-.18-.19-.23-.31-.06-.12-.08-.27-.08-.44 0-.18.04-.34.11-.47.07-.13.18-.24.32-.33.14-.09.31-.15.52-.19.21-.04.45-.06.72-.06h.3v-.19c0-.1-.01-.18-.03-.25-.02-.07-.05-.13-.1-.18-.05-.05-.11-.08-.18-.11s-.17-.03-.28-.03c-.15 0-.28.02-.39.05-.11.03-.22.07-.3.11-.09.04-.16.08-.22.11s-.11.05-.14.05c-.03 0-.05-.01-.07-.02-.02-.02-.04-.04-.05-.07-.01-.03-.02-.07-.03-.11-.02-.06-.02-.11-.02-.16 0-.07.01-.13.02-.17.01-.04.03-.08.07-.11.03-.03.09-.07.17-.11.08-.04.18-.08.28-.11.11-.03.23-.06.36-.08.13-.02.26-.03.4-.03.24 0 .45.02.62.07.17.05.31.12.42.22.11.1.19.22.24.38.05.15.08.34.08.55v2.06zm-.85-1.32h-.33c-.14 0-.26.01-.36.03-.1.02-.18.05-.24.09-.06.04-.11.09-.14.15-.03.06-.04.13-.04.2 0 .13.04.23.12.3.08.07.2.11.34.11.12 0 .23-.03.34-.09.1-.06.21-.15.31-.27v-.52zm4.49 1.31c0 .02-.01.04-.02.06-.01.02-.04.03-.07.04s-.08.02-.13.03c-.06.01-.13.01-.21.01-.09 0-.16 0-.21-.01-.06-.01-.1-.01-.13-.03s-.06-.03-.07-.04c-.01-.02-.02-.04-.02-.06v-1.76c0-.15-.01-.27-.03-.35-.02-.09-.05-.16-.1-.22-.04-.06-.1-.11-.16-.14-.07-.03-.14-.05-.23-.05-.11 0-.22.04-.34.12-.11.08-.23.2-.35.35v2.05c0 .02-.01.04-.02.06-.01.02-.04.03-.07.04-.03.01-.08.02-.13.03-.06.01-.13.01-.21.01-.09 0-.16 0-.21-.01-.06-.01-.1-.01-.13-.03-.03-.01-.06-.03-.07-.04-.01-.02-.02-.04-.02-.06v-3.09c0-.02.01-.04.02-.06.01-.02.03-.03.06-.04.03-.01.07-.02.12-.03s.11-.01.18-.01c.07 0 .14 0 .18.01.05.01.09.01.11.03.03.01.05.03.06.04.01.02.02.04.02.06v.36c.17-.18.34-.32.52-.42.18-.09.36-.14.55-.14.21 0 .39.03.53.1s.26.16.35.28c.09.12.15.26.19.42.04.16.06.35.06.58v1.91zm4.89-.24c0 .07 0 .12-.01.17s-.01.08-.03.11c-.01.03-.03.05-.04.06s-.04.02-.06.02h-2.25c-.08 0-.14-.02-.19-.07-.05-.04-.08-.12-.08-.22v-3.91c0-.1.03-.18.08-.22.05-.04.12-.07.19-.07h2.24c.02 0 .04.01.06.02.02.01.03.03.04.06.01.03.02.07.03.11.01.04.01.1.01.17 0 .06 0 .12-.01.16-.01.04-.01.08-.03.11-.01.03-.03.05-.04.06-.02.01-.03.02-.06.02h-1.6V42h1.35c.02 0 .04.01.06.02.02.01.03.03.04.06.01.03.02.06.03.11.01.05.01.1.01.16 0 .07 0 .12-.01.17-.01.04-.01.08-.03.11-.01.03-.03.05-.04.06s-.04.02-.06.02h-1.35v1.26h1.61c.02 0 .04.01.06.02.02.01.03.03.04.06.01.03.02.06.03.11.01.03.01.09.01.15zm3.48.24c0 .02-.01.04-.02.06-.01.02-.04.03-.07.04-.03.01-.08.02-.13.03-.06.01-.13.01-.21.01-.09 0-.16 0-.21-.01-.06-.01-.1-.01-.13-.03-.03-.01-.06-.03-.07-.04-.01-.02-.02-.04-.02-.06v-1.76c0-.15-.01-.27-.03-.35-.02-.09-.05-.16-.1-.22-.04-.06-.1-.11-.16-.14-.07-.03-.14-.05-.23-.05-.11 0-.22.04-.34.12-.11.08-.23.2-.35.35v2.05c0 .02-.01.04-.02.06-.01.02-.04.03-.07.04-.03.01-.08.02-.13.03-.06.01-.13.01-.21.01-.09 0-.16 0-.21-.01-.06-.01-.1-.01-.13-.03-.03-.01-.06-.03-.07-.04-.01-.02-.02-.04-.02-.06v-3.09c0-.02.01-.04.02-.06.01-.02.03-.03.06-.04.03-.01.07-.02.12-.03s.11-.01.18-.01c.07 0 .14 0 .18.01s.09.01.11.03c.03.01.05.03.06.04s.02.04.02.06v.36c.17-.18.34-.32.52-.42.18-.09.36-.14.55-.14.21 0 .39.03.53.1s.26.16.35.28c.09.12.15.26.19.42.04.16.06.35.06.58v1.91zm2.87-.87c0 .18-.03.33-.1.46s-.16.25-.28.34c-.12.09-.26.16-.43.2-.16.04-.34.07-.53.07-.12 0-.23-.01-.33-.03-.11-.02-.2-.04-.28-.07-.08-.03-.15-.05-.21-.08s-.1-.05-.12-.08-.04-.06-.06-.11c-.01-.05-.02-.13-.02-.23 0-.07 0-.12.01-.16 0-.04.01-.07.02-.1.01-.02.02-.04.03-.05.01-.01.03-.01.05-.01.03 0 .06.01.11.04s.11.06.19.1c.07.03.16.07.26.1s.21.04.33.04c.08 0 .15-.01.21-.02.06-.02.11-.04.16-.07.04-.03.08-.07.1-.11.02-.05.03-.1.03-.16 0-.07-.02-.13-.06-.18-.04-.05-.1-.09-.17-.13-.07-.04-.15-.07-.24-.1s-.18-.07-.27-.11c-.09-.04-.18-.08-.27-.13-.09-.05-.17-.11-.24-.19-.07-.07-.13-.16-.17-.27s-.06-.23-.06-.37c0-.15.03-.28.09-.41.06-.12.14-.23.25-.32.11-.09.24-.16.4-.2s.33-.07.52-.07c.1 0 .19.01.28.02.09.01.17.03.25.05.07.02.14.04.19.07.05.02.09.05.11.06.02.02.04.03.05.05.01.02.02.04.02.06 0 .02.01.05.01.09 0 .04.01.08.01.13 0 .06 0 .11-.01.15 0 .04-.01.07-.02.09-.01.02-.02.04-.03.05-.01.01-.03.01-.05.01-.02 0-.05-.01-.1-.04l-.16-.08c-.07-.03-.14-.05-.23-.08-.09-.02-.19-.04-.3-.04-.08 0-.15.01-.2.02-.06.02-.11.04-.14.07-.04.03-.06.07-.08.11-.02.04-.03.08-.03.13 0 .07.02.13.07.18.04.05.1.09.17.13.07.04.15.07.24.1s.18.07.28.11c.09.04.19.08.28.13.09.05.17.11.24.19.07.07.13.16.17.27.04.12.06.24.06.38zm3.63-.7c0 .26-.03.5-.1.72-.07.22-.17.4-.32.56-.14.16-.32.28-.53.36-.21.09-.46.13-.74.13-.27 0-.51-.04-.72-.11s-.37-.19-.51-.33c-.13-.15-.23-.32-.3-.54-.06-.21-.1-.46-.1-.73 0-.26.04-.5.11-.72.07-.22.18-.41.32-.56.14-.16.32-.28.53-.36.21-.09.46-.13.74-.13.28 0 .52.04.72.11.2.07.37.19.5.33.13.15.23.32.3.54.07.21.1.45.1.73zm-.9.03c0-.15-.01-.29-.04-.42-.02-.13-.07-.24-.12-.33-.06-.09-.13-.17-.23-.22-.1-.05-.22-.08-.36-.08-.13 0-.24.02-.34.07s-.18.12-.24.21-.11.2-.14.33c-.03.13-.05.27-.05.44 0 .15.01.29.04.42s.07.24.12.33c.06.09.13.17.23.22.1.05.22.08.36.08.13 0 .25-.02.34-.07.1-.05.18-.12.24-.21s.11-.2.14-.33c.04-.13.05-.28.05-.44zm4.39 1.54c0 .02-.01.04-.02.06-.01.02-.04.03-.07.04-.03.01-.08.02-.13.03-.06.01-.13.01-.21.01-.09 0-.16 0-.21-.01-.06-.01-.1-.01-.13-.03-.03-.01-.06-.03-.07-.04-.01-.02-.02-.04-.02-.06v-1.76c0-.15-.01-.27-.03-.35-.02-.09-.05-.16-.1-.22-.04-.06-.1-.11-.16-.14-.07-.03-.14-.05-.23-.05-.11 0-.22.04-.34.12-.11.08-.23.2-.35.35v2.05c0 .02-.01.04-.02.06-.01.02-.04.03-.07.04s-.08.02-.13.03c-.06.01-.13.01-.21.01s-.16 0-.21-.01c-.06-.01-.1-.01-.13-.03-.03-.01-.06-.03-.07-.04-.01-.02-.02-.04-.02-.06v-3.09c0-.02.01-.04.02-.06s.03-.03.06-.04c.03-.01.07-.02.12-.03.05-.01.11-.01.18-.01.07 0 .13 0 .18.01.05.01.09.01.11.03.03.01.05.03.06.04.01.02.02.04.02.06v.36c.17-.18.34-.32.52-.42.18-.09.36-.14.55-.14.21 0 .39.03.53.1s.26.16.35.28c.09.12.15.26.19.42.04.16.06.35.06.58v1.91zm3.81-1.57c0 .26-.03.5-.1.72-.07.22-.17.4-.32.56-.14.16-.32.28-.53.36-.21.09-.46.13-.74.13-.27 0-.51-.04-.72-.11s-.37-.19-.51-.33c-.13-.15-.23-.32-.3-.54-.06-.21-.1-.46-.1-.73 0-.26.04-.5.11-.72.07-.22.18-.41.32-.56.14-.16.32-.28.53-.36.21-.09.46-.13.74-.13.28 0 .52.04.72.11.2.07.37.19.5.33.13.15.23.32.3.54.06.21.1.45.1.73zm-.9.03c0-.15-.01-.29-.04-.42-.02-.13-.07-.24-.12-.33-.06-.09-.13-.17-.23-.22-.1-.05-.22-.08-.36-.08-.13 0-.24.02-.34.07s-.18.12-.24.21-.11.2-.14.33c-.03.13-.05.27-.05.44 0 .15.01.29.04.42s.07.24.12.33c.06.09.13.17.23.22.1.05.22.08.36.08.13 0 .25-.02.34-.07.1-.05.18-.12.24-.21s.11-.2.14-.33c.03-.13.05-.28.05-.44zm5.25 1.05c0 .06 0 .11-.01.15 0 .04-.01.07-.01.1-.01.03-.01.05-.02.07-.01.02-.03.04-.05.07-.03.03-.07.06-.14.1-.07.04-.14.07-.23.1s-.18.05-.28.07c-.1.02-.2.03-.31.03-.24 0-.45-.04-.63-.11s-.34-.18-.46-.33c-.12-.14-.22-.32-.28-.53-.06-.21-.1-.45-.1-.71 0-.31.04-.58.12-.8.08-.23.19-.41.32-.56s.3-.26.49-.33.4-.11.62-.11c.09 0 .18.01.27.02.09.02.17.04.25.07.08.03.15.06.21.09s.1.06.13.09.04.05.05.06c.01.02.02.04.02.07.01.03.01.06.01.1 0 .04.01.09.01.15 0 .13-.01.23-.03.28-.02.05-.05.08-.09.08-.04 0-.08-.02-.12-.05-.04-.03-.1-.07-.16-.11-.06-.04-.13-.07-.21-.11-.08-.03-.18-.05-.3-.05-.23 0-.4.09-.52.26s-.18.43-.18.77c0 .17.01.31.04.44s.07.23.13.32.13.15.22.19c.09.04.19.06.31.06s.22-.02.31-.05c.09-.04.16-.08.23-.12.06-.04.12-.08.16-.12.04-.04.08-.05.11-.05.02 0 .04.01.05.02.01.01.02.03.03.06.01.03.01.07.02.12s.02.12.02.2zm3.59-1.08c0 .26-.03.5-.1.72-.07.22-.17.4-.32.56-.14.16-.32.28-.53.36-.21.09-.46.13-.75.13-.27 0-.51-.04-.72-.11s-.37-.19-.51-.33c-.13-.15-.23-.32-.3-.54-.06-.21-.1-.46-.1-.73 0-.26.04-.5.11-.72.07-.22.18-.41.32-.56.14-.16.32-.28.53-.36.21-.09.46-.13.74-.13.28 0 .52.04.72.11.2.07.37.19.5.33.13.15.23.32.3.54.08.21.11.45.11.73zm-.89.03c0-.15-.01-.29-.04-.42-.02-.13-.07-.24-.12-.33-.06-.09-.13-.17-.23-.22-.1-.05-.22-.08-.36-.08-.13 0-.24.02-.34.07-.1.05-.18.12-.24.21s-.11.2-.14.33c-.03.13-.05.27-.05.44 0 .15.01.29.04.42s.07.24.12.33c.06.09.13.17.23.22.1.05.22.08.36.08.13 0 .25-.02.34-.07.1-.05.18-.12.24-.21s.11-.2.14-.33c.03-.13.05-.28.05-.44zm6.34 1.54c0 .02-.01.04-.02.06-.01.02-.04.03-.07.04-.03.01-.08.02-.13.03-.06.01-.13.01-.21.01-.09 0-.16 0-.21-.01-.06-.01-.1-.01-.13-.03-.03-.01-.06-.03-.07-.04-.01-.02-.02-.04-.02-.06v-1.83c0-.1-.01-.2-.03-.28-.02-.09-.05-.16-.09-.22-.04-.06-.09-.11-.15-.14-.06-.03-.13-.05-.22-.05-.1 0-.21.04-.32.12-.11.08-.22.2-.35.35v2.05c0 .02-.01.04-.02.06-.01.02-.04.03-.07.04-.03.01-.08.02-.13.03-.06.01-.12.01-.21.01s-.16 0-.21-.01c-.06-.01-.1-.01-.13-.03-.03-.01-.06-.03-.07-.04-.01-.02-.02-.04-.02-.06v-1.83c0-.1-.01-.2-.03-.28-.02-.09-.05-.16-.09-.22-.04-.06-.09-.11-.15-.14-.06-.03-.14-.05-.22-.05-.11 0-.21.04-.32.12-.11.08-.22.2-.34.35v2.05c0 .02-.01.04-.02.06-.01.02-.04.03-.07.04s-.08.02-.13.03c-.06.01-.13.01-.21.01s-.16 0-.21-.01c-.06-.01-.1-.01-.13-.03-.03-.01-.06-.03-.07-.04-.01-.02-.02-.04-.02-.06v-3.09c0-.02.01-.04.02-.06s.03-.03.06-.04c.03-.01.07-.02.12-.03.05-.01.11-.01.18-.01.07 0 .13 0 .18.01.05.01.09.01.11.03.03.01.05.03.06.04.01.02.02.04.02.06v.36c.17-.18.34-.32.51-.42.17-.09.35-.14.53-.14.13 0 .24.01.34.04.1.03.19.06.27.11.08.05.15.11.21.18.06.07.11.15.15.23.09-.1.18-.18.27-.26.09-.07.18-.13.26-.18.09-.04.17-.08.26-.1.09-.02.18-.03.27-.03.21 0 .38.03.52.1s.25.16.34.28c.09.12.15.26.19.42.04.16.06.33.06.51v1.99zm3.79-1.59c0 .27-.03.52-.09.74-.06.22-.15.41-.26.56-.11.15-.25.27-.42.36-.17.08-.36.12-.58.12-.09 0-.17-.01-.25-.03-.08-.02-.15-.04-.22-.08s-.14-.08-.21-.13c-.07-.05-.14-.12-.21-.19v1.46c0 .02-.01.04-.02.06-.01.02-.04.03-.07.05-.03.01-.08.02-.13.03-.06.01-.13.01-.21.01s-.16 0-.21-.01c-.06-.01-.1-.02-.13-.03-.03-.01-.06-.03-.07-.05-.01-.02-.02-.04-.02-.06v-4.32c0-.02.01-.04.02-.06s.03-.03.06-.04c.03-.01.07-.02.11-.03s.11-.01.18-.01c.07 0 .13 0 .18.01s.09.01.11.03c.03.01.05.03.06.04s.02.04.02.06v.36c.09-.09.18-.17.27-.24.09-.07.18-.13.27-.18.09-.05.18-.08.28-.11.1-.02.2-.03.31-.03.23 0 .42.04.58.13.16.09.29.21.39.37.1.15.17.33.22.54s.04.44.04.67zm-.9.06c0-.13-.01-.26-.03-.38-.02-.12-.05-.23-.1-.32s-.11-.17-.19-.23-.17-.08-.29-.08c-.06 0-.12.01-.17.03-.06.02-.11.05-.17.08-.06.04-.12.09-.18.15s-.13.14-.2.23v1.02c.12.15.24.27.35.36.11.08.23.13.35.13.11 0 .21-.03.29-.09.08-.06.15-.13.2-.23.05-.09.09-.2.11-.32.01-.11.03-.23.03-.35zm4.06 1.54c0 .03-.01.06-.03.08-.02.02-.06.03-.11.04-.05.01-.12.01-.22.01s-.18 0-.23-.01c-.05-.01-.08-.02-.1-.04-.02-.02-.03-.04-.03-.08v-.25c-.13.14-.27.24-.43.32s-.34.11-.54.11c-.16 0-.31-.02-.45-.06s-.26-.11-.36-.19-.18-.19-.23-.31c-.06-.12-.08-.27-.08-.44 0-.18.04-.34.11-.47s.18-.24.32-.33c.14-.09.31-.15.52-.19.21-.04.45-.06.72-.06h.3v-.19c0-.1-.01-.18-.03-.25-.02-.07-.05-.13-.1-.18-.05-.05-.11-.08-.18-.11-.08-.02-.17-.03-.28-.03-.15 0-.28.02-.39.05-.11.03-.22.07-.3.11-.09.04-.16.08-.22.11s-.11.05-.14.05c-.03 0-.05-.01-.07-.02-.02-.02-.04-.04-.05-.07-.01-.03-.02-.07-.03-.11-.01-.04-.01-.09-.01-.15 0-.07.01-.13.02-.17s.03-.08.07-.11c.03-.03.09-.07.17-.11.08-.04.18-.08.28-.11s.23-.06.36-.08c.13-.02.26-.03.4-.03.24 0 .45.02.62.07.17.05.31.12.42.22.11.1.19.22.24.38.05.15.08.34.08.55v2.05zm-.85-1.32h-.33c-.14 0-.26.01-.36.03-.1.02-.18.05-.24.09-.06.04-.11.09-.14.15-.03.06-.04.13-.04.2 0 .13.04.23.12.3.08.07.2.11.34.11.12 0 .23-.03.34-.09.1-.06.21-.15.31-.27v-.52zm4.49 1.31c0 .02-.01.04-.02.06-.01.02-.04.03-.07.04-.03.01-.08.02-.13.03-.06.01-.13.01-.21.01-.09 0-.16 0-.21-.01-.06-.01-.1-.01-.13-.03-.03-.01-.06-.03-.07-.04-.01-.02-.02-.04-.02-.06v-1.76c0-.15-.01-.27-.03-.35-.02-.09-.05-.16-.1-.22-.04-.06-.1-.11-.16-.14-.07-.03-.14-.05-.23-.05-.11 0-.22.04-.34.12-.11.08-.23.2-.35.35v2.05c0 .02-.01.04-.02.06-.01.02-.04.03-.07.04-.03.01-.08.02-.13.03-.06.01-.13.01-.21.01s-.16 0-.21-.01c-.06-.01-.1-.01-.13-.03-.03-.01-.06-.03-.07-.04-.01-.02-.02-.04-.02-.06v-3.09c0-.02.01-.04.02-.06s.03-.03.06-.04c.03-.01.07-.02.12-.03s.11-.01.18-.01c.07 0 .13 0 .18.01.05.01.09.01.11.03.03.01.05.03.06.04.01.02.02.04.02.06v.36c.17-.18.34-.32.52-.42.18-.09.36-.14.55-.14.21 0 .39.03.53.1s.26.16.35.28c.09.12.15.26.19.42.04.16.06.35.06.58v1.91zm2.4.12l-.37 1.09c-.02.06-.08.1-.17.12-.09.03-.23.04-.41.04-.09 0-.17 0-.22-.01-.06-.01-.1-.02-.12-.04-.03-.02-.04-.04-.05-.07 0-.03 0-.06.02-.1l.41-1.04c-.03-.01-.06-.04-.08-.06-.02-.03-.04-.06-.05-.09l-1.06-2.84c-.03-.08-.04-.14-.04-.19 0-.04.01-.08.04-.1.03-.02.07-.04.14-.05.07-.01.15-.01.26-.01.1 0 .18 0 .24.01.06 0 .1.01.14.03.03.01.06.04.07.06.02.03.03.07.05.12l.73 2.07h.01l.67-2.11c.01-.06.03-.1.05-.12.02-.02.06-.03.11-.04.05-.01.14-.01.27-.01.1 0 .18 0 .25.01s.11.03.15.05c.03.03.05.06.05.1s-.01.09-.03.15l-1.06 3.03z"/><path d="M11.85 21.82l2.79 6.78H9.01l2.84-6.78zm.06-8.64L1 35.47h5.14l1.38-3.14h8.68l1.36 3.14h5.36L12.24 13.18h-.33zm17.36-.03h.36l8.08 14.08 7.62-14.08h.39l4.47 22.32h-4.86l-1.82-9.86-5.74 10.65h-.34l-6.16-10.81-1.88 10.02h-4.56zm23.07.7h5.11v21.62h-5.11z"/><path d="M64.95 18.46h1.12c4.6 0 7.15 2.44 7.15 6.2s-2.55 6.17-7.15 6.17h-1.12V18.46zm-5.05-4.61v21.61h5.68c2.87 0 5.23-.3 7.49-1.61 3.48-2.01 5.3-5.19 5.3-9.19 0-6.47-4.54-10.81-12.79-10.81H59.9zm31.87 4.16c3.62 0 6.55 2.96 6.55 6.61 0 3.65-2.93 6.61-6.55 6.61-3.62 0-6.55-2.96-6.55-6.61.01-3.65 2.94-6.61 6.55-6.61m0-4.88c-6.28 0-11.38 5.14-11.38 11.49 0 6.34 5.09 11.49 11.38 11.49 6.28 0 11.37-5.14 11.37-11.49.01-6.34-5.08-11.49-11.37-11.49m18.44-5.58c-.01-3.12-2.57-5.69-5.66-5.68-3.08.01-5.61 2.58-5.62 5.69 0 3.12 2.55 5.7 5.64 5.7s5.65-2.59 5.64-5.71m-5.65-6.48c3.58 0 6.44 2.89 6.44 6.51 0 3.58-2.88 6.48-6.44 6.47-3.57 0-6.42-2.91-6.42-6.53 0-3.55 2.88-6.45 6.42-6.45"/><path d="M101.01 5.5c.67-.67.92-.93 1.58-1.59.4.4.8.81 1.19 1.2.35.36 1.36.36 1.71 0 .39-.39.79-.8 1.19-1.2.65.66.91.92 1.58 1.59-.37.37-.75.76-1.12 1.13-.44.45-.44 1.42.01 1.87.36.36.73.74 1.11 1.12-.65.65-.91.92-1.58 1.59-.37-.38-.77-.78-1.15-1.16-.4-.4-1.38-.41-1.78 0-.37.38-.76.77-1.15 1.16-.65-.66-.89-.9-1.56-1.58.39-.39.92-.96 1.3-1.35.36-.37.22-1.23-.15-1.61-.38-.36-.78-.77-1.18-1.17"/></svg>