<svg xmlns="http://www.w3.org/2000/svg" role="img" viewBox="7.96 9.71 236.08 57.08"><title>Anova (supporter) logo</title><path d="M179.25419 50.06425l-13.50367-35.15646h-8.0278l16.55692 43.10933c.95865 2.54207 2.7386 3.7775 5.4412 3.7775h3.81857l18.01955-46.88683h-8.06913l-13.469 35.15686-.76664-.0004m-87.8538 3.64097L76.48768 14.9078H63.25722v46.88683h7.50141V23.00026l.78331-.0036 14.8955 38.79796h13.24553V14.9078H92.1821v38.79437l-.78172.00306M34.58554 14.9078c-2.70194 0-4.48163 1.23437-5.43787 3.77391L12.58771 61.79462h8.02897l4.05817-10.56747h11.57211l-2.62847-6.90182h-6.29264l6.79303-17.6877h.76771l13.46847 35.157h8.0686L38.4037 14.90778h-3.81817m183.16102 0c2.7026 0 4.48122 1.23437 5.43853 3.77391l16.55958 43.11292h-8.0278l-4.05856-10.56747h-11.57305l2.62927-6.90182h6.29184l-6.79183-17.6877h-.76798l-13.469 35.157h-8.0678l18.01956-46.88684h3.81724M132.08363 54.7c-8.86538 0-16.05213-7.32007-16.05213-16.34905 0-9.02897 7.18675-16.34852 16.05213-16.34852 8.86618 0 16.05267 7.31955 16.05267 16.34852 0 9.02898-7.18649 16.34906-16.05267 16.34906zm0-40.39845c-13.04074 0-23.61288 10.76747-23.61288 24.0494 0 13.28247 10.57214 24.0494 23.61288 24.0494 13.04208 0 23.61381-10.76693 23.61381-24.0494 0-13.28193-10.57173-24.0494-23.6138-24.0494" fill="#28292b"/></svg>