<?xml version="1.0" encoding="utf-8"?>
<!-- Generator: Adobe Illustrator 22.0.0, SVG Export Plug-In . SVG Version: 6.00 Build 0)  -->
<!DOCTYPE svg PUBLIC "-//W3C//DTD SVG 1.1//EN" "http://www.w3.org/Graphics/SVG/1.1/DTD/svg11.dtd">
<svg version="1.1" id="Layer_1" xmlns="http://www.w3.org/2000/svg" xmlns:xlink="http://www.w3.org/1999/xlink" x="0px" y="0px"
	 viewBox="-3.480000000000018 3.9799999999999898 492.96000000000004 209.04000000000002" style="enable-background:new 0 0 488 216;" xml:space="preserve">
<style type="text/css">
	.st0{fill:#ED1C24;}
</style>
<title>x</title>
<path d="M226.4,166.9v-5.6c-3.5,5.8-9.3,10-15.9,11.5c-6.6,1.5-13.6,1-19.8-1.6c-6.6-2.6-12.2-7.5-16.9-14.6
	c-4.7-7.1-7.1-16.4-7.1-28c0-13.6,3.1-24.6,9.4-33c6.2-8.4,16.2-12.6,30-12.6c10.4,0,20.5,2.9,29.2,8.5c9,5.6,13.5,16.1,13.5,31.5
	v46.2c0,15.3-4.5,25.8-13.4,31.3c-8.7,5.5-18.9,8.4-29.2,8.4c-20.1,0-32.6-9.4-37.4-28.2h23.9c4,6.4,11.4,9.7,18.9,8.4
	c3.6-0.8,6.9-2.9,9.8-6.4C224.2,179.2,225.9,173.9,226.4,166.9z M189,129.2c0,15.1,4.4,23.4,13.1,25.1s15.2-0.4,19.4-6.1
	c2-2.4,3.4-6.2,4.3-11.3c0.9-5,0.9-10.2,0.2-15.2c-0.7-4.8-2.6-9.5-5.4-13.4c-2.8-3.9-7-5.9-12.5-5.9c-7.4,0-12.5,2.7-15.1,8.2
	C190.2,116.4,188.9,122.8,189,129.2z"/>
<path d="M328.7,172.2h-11.5c-5.9,0.3-10.9-4.3-11.2-10.2c0-0.3,0-0.7,0-1v-44.6c0-5.2-1.6-9.1-4.8-11.5c-3-2.4-6.8-3.6-10.7-3.6
	c-3.8,0-7.5,1.2-10.5,3.6c-3.1,2.4-4.6,6.2-4.6,11.5v55.8h-23V121c0-14.9,3.9-24.8,11.6-29.8c7.7-5,16.6-7.8,25.8-8.2
	c9.4-0.1,18.6,2.6,26.6,7.5c8.1,5,12.1,15.2,12.1,30.5L328.7,172.2z"/>
<path d="M334.3,92.5h23v79.7h-23V92.5z"/>
<path d="M399.5,172.2c-7.8,0.4-15.7,0.3-23.5-0.3c-8.4-0.7-12.6-6-12.6-16.1V70.4h11.8c2.9,0,5.6,1.2,7.5,3.3
	c2.1,2.1,3.3,4.9,3.2,7.9v3.1h13.5v4.6c0.1,3-1.1,5.9-3.3,8c-2.1,2-4.9,3.2-7.9,3.1H386v49.1c0,3.7,2.2,5.6,6.6,5.6h6.9L399.5,172.2
	z"/>
<path d="M462.1,145.3h16.4c-2.4,9.2-7,16.2-13.8,21c-6.8,5-15.3,7.5-25.6,7.5c-12.5,0-22.2-4-29.2-12.1c-7-7.9-10.5-19.1-10.5-33.8
	c0-14,3.4-24.9,10.2-32.8c7-8.1,16.7-12.1,29.2-12.1c13.1,0,23.3,3.9,30.5,11.8c7,8.1,10.5,19.4,10.5,33.8v3.6
	c0,0.8-0.1,1.6-0.3,2.3h-56.7c0.2,6.8,1.9,11.8,4.9,15.1c2.8,3.5,7.1,5.2,12.8,5.2c3.3,0.1,6.6-0.7,9.5-2.3c0.7-0.2,1.3-0.6,1.8-1.1
	l1.8-1.8c0.6-1.1,1.4-2,2.5-2.6C457.9,145.7,460,145.2,462.1,145.3z M422.8,119.7h33.5c-0.4-5.9-2-10.3-4.6-13.1
	c-2.8-3.1-6.9-4.6-12.1-4.6c-4.4-0.2-8.7,1.5-11.8,4.6C424.6,109.7,423,114,422.8,119.7z"/>
<path d="M138.8,52.4h11.8c6.1,0,11.1,5,11.1,11.2v108.6h-23L138.8,52.4z"/>
<path d="M334.3,70.4h11.8c6.1,0,11.1,5,11.1,11.2v6.9h-23L334.3,70.4z"/>
<path d="M196.9,71.6h-3.6v-2.6c-1.9,2-4.6,3.1-7.4,3c-2.8,0.1-5.5-1-7.5-2.9c-2.2-2-3.4-4.9-3.3-7.9c-0.1-3.1,1.2-6.1,3.5-8.1
	c2.1-1.9,4.8-3,7.6-2.9c2.7-0.1,5.4,1,7.2,3.1v-2.6h3.6V71.6z M193.2,61.3c0-1.9-0.7-3.8-2-5.2c-1.3-1.4-3.1-2.2-5-2.1
	c-2,0-3.9,0.8-5.3,2.2c-1.3,1.1-2,2.8-2.1,4.5c0,2,0.6,3.9,1.9,5.4c1.3,1.5,3.1,2.4,5.1,2.3c1.9,0,3.7-0.7,5.1-2.1
	C192.4,65,193.2,63.2,193.2,61.3z"/>
<path d="M222.9,60.7c0.1,3-1,5.9-3,8.1c-2.1,2.2-5,3.4-8,3.3c-2.7,0.1-5.3-0.9-7.1-2.9v9.4H201V50.6h3.6v2.5c1.8-1.9,4.3-3,6.9-2.9
	c2.8,0,5.6,1,7.7,2.9C221.6,54.9,223,57.7,222.9,60.7z M219,61.2c0-1.9-0.7-3.8-2.1-5.1c-1.4-1.4-3.2-2.1-5.2-2.1
	c-2-0.1-3.9,0.8-5.2,2.3c-1.2,1.4-1.9,3.2-1.9,5c0,1.7,0.6,3.4,1.6,4.7c1.4,1.6,3.5,2.5,5.7,2.4c1.9,0.1,3.7-0.7,5.1-2.1
	C218.3,64.9,219.1,63.1,219,61.2L219,61.2z"/>
<path d="M248,71.6h-3.6v-2.6c-1.9,2-4.6,3.1-7.4,3c-2.8,0.1-5.5-1-7.5-2.9c-2.2-2-3.4-4.9-3.3-7.9c-0.1-3.1,1.2-6.1,3.5-8.1
	c2.1-1.9,4.8-3,7.6-2.9c2.7-0.1,5.4,1,7.2,3.1v-2.6h3.6V71.6z M244.4,61.3c0-1.9-0.7-3.8-2-5.2c-1.3-1.4-3.1-2.2-5-2.1
	c-2,0-4,0.8-5.4,2.2c-1.3,1.1-2,2.8-2.1,4.5c0,2,0.6,3.9,1.9,5.4c1.3,1.5,3.2,2.4,5.2,2.3c1.9,0,3.8-0.7,5.2-2.1
	C243.6,65,244.4,63.2,244.4,61.3z"/>
<path d="M273.1,64.7c-1,2.1-2.4,3.9-4.2,5.4c-1.9,1.4-4.1,2.1-6.5,2c-2.9,0-5.6-1.1-7.7-3.1c-2.3-2-3.5-5-3.5-8h0.2l-0.1,0.2
	c-0.1-3,1.1-6,3.4-8.1c1.9-1.9,4.5-2.9,7.2-2.9c2.4,0,4.8,0.7,6.8,2c2,1.4,3.4,3.3,4.3,5.5h-4.2c-1.4-2.5-4-3.9-6.8-3.8
	c-1.9,0-3.7,0.7-4.9,2.1c-1.3,1.4-2,3.2-2,5.1c-0.1,1.9,0.7,3.8,2.1,5.2c1.3,1.4,3.2,2.1,5.1,2.1c1.3,0,2.6-0.3,3.8-1
	c1.2-0.6,2.1-1.5,2.8-2.7L273.1,64.7z"/>
<path d="M294.8,71.7h-3.8v-12c0-1.5-0.5-2.9-1.5-4c-2.2-2-5.6-2.1-7.9-0.1c-1,1-1.6,2.4-1.5,3.8v12.3h-3.8V43.7h3.8v8.7
	c1.5-1.5,3.4-2.2,5.5-2.2c2.3,0,4.6,0.9,6.3,2.5c1.9,1.8,3,4.3,2.9,6.9V71.7z"/>
<path d="M319.5,62.7h-17.7c0.3,1.7,1.2,3.3,2.6,4.3c1.2,0.9,2.7,1.4,4.2,1.4c1.4,0,2.8-0.4,4-1.2c1.2-0.7,2.2-1.9,2.7-3.2h3.9
	c-0.9,2.5-2.5,4.7-4.7,6.2c-1.8,1.2-3.9,1.8-6,1.8c-2.7,0-5.3-1-7.2-3c-2.1-2.1-3.3-5-3.2-8c-0.1-5.9,4.7-10.8,10.6-10.9
	c2.7,0,5.4,1,7.4,2.8c2.4,2.2,3.7,5.3,3.5,8.6L319.5,62.7z M315.7,59.2c-0.4-1.5-1.3-2.8-2.6-3.8c-1.2-1-2.7-1.5-4.3-1.5
	c-1.9-0.1-3.7,0.7-5,2c-0.9,0.9-1.6,2.1-1.9,3.3L315.7,59.2z"/>
<path class="st0" d="M39,42.4c0,0-69.5,42.4-4,84.5c12.6,8.2,58.3,31,57,52.1c0,0,27.7-41-12.8-66.8C37.6,85.7,27.2,57.6,39,42.4z"
	/>
<path class="st0" d="M14.8,123.4c0,0-24.8,37.6,24,45.3c4.8,0.6,40.2,4.3,49.3,15.9c0,0-0.8-20-29.6-31.8S18,138,14.8,123.4z"/>
<path class="st0" d="M110.8,83.8C81,52.6,72.7,33.3,85.5,8.4c0,0-88.9,34.2-1.1,94.9c31.4,21.7,26.2,43.9,26.2,44.7
	C115.5,142.9,140.6,115,110.8,83.8z"/>
<path d="M461.5,68.8h-3.6v9.6h-2.9v-9.6h-3.6v-2.3h10.1L461.5,68.8z M476.7,78.3h-2.6v-9.6H474l-3.4,9.6H469l-3.4-9.6h-0.1v9.6H463
	V66.5h4.2l2.7,7l2.7-7h4.2L476.7,78.3z"/>
</svg>
