<?xml version="1.0" encoding="UTF-8" standalone="yes"?>
<svg version="1.1" id="Layer_1" xmlns="http://www.w3.org/2000/svg" xmlns:xlink="http://www.w3.org/1999/xlink" x="0px" y="0px" viewBox="6.12 7.9 281.76 95.2" style="enable-background:new 0 0 288 110.5;" xml:space="preserve">
  <style type="text/css">
	.st0{fill:#245692;}
	.st1{fill:#358FBF;}
	.st2{fill:#E79943;}
	.st3{fill:#2B76AD;}
	.st4{fill:#80746D;}
	.st5{fill:#3C3C3B;}
</style>
  <g>
    <path class="st0" d="M25,28c4.8-5,9.8-9.9,15.4-13.9c9.9-7.1,25.5-6.8,35.3,0.6c6.6,4.9,8.6,10.2,7.1,18.4c2.7,0.2,5.5,0.6,8,1.6&#xA;&#x9;&#x9;c5.8,2.2,9.3,7.1,9.4,12.9c0.1,6.1-3.5,11.5-9.3,14c-2.5,1-5,1.6-7.7,1.7c-4.8,0.4-9.6,0.1-14.4,0.2c-0.6,0-1.3,0.1-1.6-0.5&#xA;&#x9;&#x9;c-0.3-0.7,0.1-1.3,0.7-1.8c2-1.6,3.9-3.2,6.7-3c3,0.1,6,0.3,9.1-0.1c1.7-0.5,3.4-0.8,5-1.5c4.1-1.8,6.1-5.4,5.7-9.6&#xA;&#x9;&#x9;c-0.4-3.7-3.8-6.8-8.5-7.8c-4.1-0.9-8.3-0.3-12.7-0.7c0.9-1.5,1.7-2.8,2.4-4.1C78.3,29,77.4,24.1,73,20c-6.9-6.3-18.6-7.5-26.9-2.9&#xA;&#x9;&#x9;c-3.6,2-6.6,4.8-9.8,7.4c-0.3,0.7-0.8,1.3-1.5,1.7c-2.2,1-4.5,1.5-6.9,2.1C27,28.6,25.9,28.9,25,28z"/>
    <path class="st1" d="M35.1,25.7c0.3-0.5,0.6-1,1.2-1.1c0.9,1.1,2,0.4,3,0.3c5.9-0.6,11.8-0.4,17.1,2.6c6.1,3.4,8.9,8.9,8.6,15.8&#xA;&#x9;&#x9;c-0.3,7-4.5,11.2-10.4,14c-4.8,2.3-10,3.4-15.3,3.5C28,61,16.8,60.9,5.5,61c-0.4,0-0.7-0.1-1.7-0.2c4-3.2,7.7-6.1,11.3-8.9&#xA;&#x9;&#x9;c2.7-2.1,5.7-3.9,8.1-6.3c3.8-3.6,8-5,13.6-3.6c-5.7,4.4-11.2,8.8-17.5,13.7c7.2-0.2,13.6,0.2,20-0.4c4.4-0.4,8.7-1.1,12.8-3&#xA;&#x9;&#x9;c5.4-2.6,8.2-7.1,7.4-11.8c-0.9-5.4-5.2-9.3-11.2-10c-5.3-0.6-10.5,0-15.7,1.4c-0.7,0.2-1.5,0.3-2.3,0.4c-0.8-2.5,1.4-3.5,2.6-5&#xA;&#x9;&#x9;C33.5,26.6,34.4,26.2,35.1,25.7z"/>
    <path class="st2" d="M65.7,64c-2.9,2.3-5.9,4.6-8.8,7c0,0.2,0.1,0.4,0.1,0.6c8.5,0,17,0,26,0c-2.3,3-5,4.4-7.3,6.2&#xA;&#x9;&#x9;c-8.9,7-17.9,13.7-26.6,20.9c-3.4,2.8-6.9,2.5-11.4,2.2c10.2-8,19.8-15.6,29.5-23.1c0-0.2-0.1-0.4-0.1-0.6c-8.6,0-17.1,0-25.7,0&#xA;&#x9;&#x9;c-0.1-0.3-0.2-0.6-0.3-0.8c5.5-4.3,10.9-8.5,16.4-12.8c1.8-0.2,3.6-0.8,5.4-0.7C64,62.7,65,62.9,65.7,64z"/>
    <path class="st3" d="M35.1,25.7c-1.4,2.3-4,3.8-4.7,6.6c-5.1,2-10.3,4-15.4,6.1c-0.1-0.2-0.3-0.4-0.4-0.7c3.5-3.2,6.9-6.4,10.4-9.6&#xA;&#x9;&#x9;C28.5,28,31.7,26.3,35.1,25.7z"/>
    <path class="st4" d="M65.7,64c-2.7-1.4-5.6,0.7-8.2-0.6c1.8-1.5,3.7-2.8,5.5-4.4c1-0.9,2.1-0.9,3.3-0.9c5.8,0,11.7,0,17.5-0.1&#xA;&#x9;&#x9;c-1.9,1-4.1,0.7-6,0.4c-4.2-0.6-7.3,1.3-10.8,4.9c5.9,0,11.1,0,16.3,0c-4.5,0.8-9.1,0.2-13.7,0.4C68.2,63.9,67,63.9,65.7,64z"/>
  </g>
  <g>
    <path class="st5" d="M132.6,38.5l-2-4.9H120l-2,4.9h-2l8.2-20h2.1l8.2,20H132.6z M125.3,20.3l-4.7,11.7h9.5L125.3,20.3z"/>
    <path class="st5" d="M137.5,38.5v-20h7.5c3.8,0,6,2.7,6,5.9s-2.2,5.9-6,5.9h-5.8v8.3H137.5z M149.2,24.4c0-2.5-1.8-4.3-4.4-4.3&#xA;&#x9;&#x9;h-5.6v8.6h5.6C147.5,28.7,149.2,26.9,149.2,24.4z"/>
    <path class="st5" d="M166.8,38.5l-2-4.9h-10.6l-2,4.9h-2l8.2-20h2.1l8.2,20H166.8z M159.5,20.3l-4.7,11.7h9.5L159.5,20.3z"/>
    <path class="st5" d="M169.8,28.5c0-6.2,4.5-10.4,10.1-10.4c3.2,0,5.6,1.4,7.3,3.5l-1.4,0.9c-1.3-1.7-3.5-2.9-5.9-2.9&#xA;&#x9;&#x9;c-4.7,0-8.3,3.6-8.3,8.8c0,5.2,3.6,8.8,8.3,8.8c2.4,0,4.6-1.2,5.9-2.9l1.4,0.9c-1.8,2.2-4.1,3.6-7.3,3.6&#xA;&#x9;&#x9;C174.2,38.9,169.8,34.7,169.8,28.5z"/>
    <path class="st5" d="M205.1,38.5V29h-12.7v9.5h-1.7v-20h1.7v8.9h12.7v-8.9h1.7v20H205.1z"/>
    <path class="st5" d="M211.8,38.5v-20h12.7v1.6h-11v7.4h10.8v1.6h-10.8V37h11v1.6H211.8z"/>
  </g>
  <g>
    <path class="st5" d="M114.5,72l3.5-5c2.1,2.2,5.4,4.1,9.6,4.1c3.6,0,5.2-1.6,5.2-3.3c0-5.2-17.4-1.6-17.4-12.9&#xA;&#x9;&#x9;c0-5,4.3-9.2,11.4-9.2c4.8,0,8.8,1.4,11.8,4.2l-3.6,4.8c-2.4-2.3-5.7-3.3-8.8-3.3c-2.7,0-4.2,1.2-4.2,3c0,4.7,17.3,1.5,17.3,12.8&#xA;&#x9;&#x9;c0,5.5-4,9.7-12.1,9.7C121.5,76.7,117.3,74.8,114.5,72z"/>
    <path class="st5" d="M150.1,76.2V51.7h-8.8v-5.6h24v5.6h-8.8v24.5H150.1z"/>
    <path class="st5" d="M166.9,61.2c0-9.1,6.6-15.6,15.8-15.6c9.1,0,15.7,6.5,15.7,15.6c0,9.1-6.6,15.6-15.7,15.6&#xA;&#x9;&#x9;C173.5,76.7,166.9,70.2,166.9,61.2z M191.8,61.2c0-5.6-3.6-9.9-9.1-9.9c-5.6,0-9.2,4.2-9.2,9.9c0,5.6,3.6,9.9,9.2,9.9&#xA;&#x9;&#x9;C188.2,71.1,191.8,66.8,191.8,61.2z"/>
    <path class="st5" d="M219.9,76.2L214,65.5h-4.7v10.7h-6.4V46.1H217c6.3,0,10.2,4.1,10.2,9.7c0,5.3-3.4,8.2-6.6,8.9l6.8,11.5H219.9z&#xA;&#x9;&#x9; M220.6,55.7c0-2.5-1.9-4-4.5-4h-6.8v8.1h6.8C218.6,59.8,220.6,58.3,220.6,55.7z"/>
    <path class="st5" d="M258.2,76.2V54.5l-8.5,21.7h-2.8l-8.5-21.7v21.7H232V46.1h9l7.3,18.8l7.3-18.8h9v30.1H258.2z"/>
  </g>
  <g>
    <path class="st5" d="M269.5,46.8h-1.6V46h4.2v0.8h-1.6v4.3h-0.9V46.8z"/>
    <path class="st5" d="M273.2,46h1l1.6,2.4l1.6-2.4h1v5.1h-0.9v-3.7l-1.6,2.4h0l-1.6-2.4v3.7h-0.9V46z"/>
  </g>
</svg>