<svg xmlns="http://www.w3.org/2000/svg" role="img" viewBox="-4.29 -1.54 223.08 55.33"><defs><style>.cls-1{fill:#4e4e4e}.cls-2{isolation:isolate}.cls-3{fill:#d42029;fill-opacity:.93725}</style></defs><g id="layer1"><g id="text3338"><path id="path11146" d="M46.111 22.48a9.304 9.304 0 0 0-9.311 9.174 9.285 9.285 0 0 0 9.277 9.093c2.277 0 4.809-.927 5.998-2.863l.187 1.301a1.514 1.514 0 0 0 1.512 1.627 1.669 1.669 0 0 0 1.7-1.627l.033-15.062v-.032a1.669 1.669 0 0 0-1.699-1.627 1.514 1.514 0 0 0-1.512 1.627l-.187 1.561a7.742 7.742 0 0 0-5.998-3.172zm5.862 9.142a5.905 5.905 0 1 1-5.896-5.889 5.863 5.863 0 0 1 5.896 5.889z" class="cls-1"/><path id="path11148" d="M70.17 24.611c0-1.74-1.664-2.066-3.975-2.066a5.381 5.381 0 0 0-4.146 2.554l-.17-1.171a1.787 1.787 0 0 0-1.631-1.399 1.479 1.479 0 0 0-1.427 1.675v14.981a1.704 1.704 0 0 0 3.398.017v-8.394c0-3.009.985-5.4 3.959-5.4.985 0 2.039.716 2.684.65a1.336 1.336 0 0 0 1.309-1.447z" class="cls-1"/><path id="path11150" d="M90.322 31.605A8.944 8.944 0 0 0 81.3 22.53a7.258 7.258 0 0 0-5.607 2.651v-6.848a1.7 1.7 0 0 0-3.398 0v20.772a1.669 1.669 0 0 0 1.699 1.627c.934 0 1.36-.749 1.495-1.627l.204-1.318a7.369 7.369 0 0 0 5.726 2.863 8.972 8.972 0 0 0 8.903-9.044zm-8.87 5.791a5.753 5.753 0 0 1-4.043-1.74 6.104 6.104 0 0 1-1.597-4.132 5.61 5.61 0 0 1 5.556-5.79 5.779 5.779 0 0 1 5.573 5.871 5.671 5.671 0 0 1-5.488 5.791z" class="cls-1"/><path id="path11152" d="M101.35 22.561a9.297 9.297 0 0 0-9.312 9.11 9.325 9.325 0 0 0 18.64 0 9.245 9.245 0 0 0-9.328-9.11zm-5.88 9.142a5.89 5.89 0 1 1 5.897 5.693 5.832 5.832 0 0 1-5.896-5.693z" class="cls-1"/><path id="path11154" d="M116.523 25.132l-.29-.976c-.254-.879-.713-1.627-1.647-1.627a1.475 1.475 0 0 0-1.461 1.627l.033 14.948a1.7 1.7 0 0 0 3.399.016l-.018-6.49c-.017-4.164 1.852-6.8 5.2-6.8a2.97 2.97 0 0 1 2.735 1.839 7.782 7.782 0 0 1 .476 3.204v8.215a1.7 1.7 0 0 0 3.398 0v-8.215a10.4 10.4 0 0 0-.764-4.538 6.328 6.328 0 0 0-5.88-3.757c-2.276 0-3.958 1.415-5.182 2.554z" class="cls-1"/><path id="path11156" d="M139.461 16.998l-5.98.098a1.683 1.683 0 0 0-1.666 1.627l-.119 19.958a1.718 1.718 0 0 0 1.682 1.676l3.874.032h.799c8.971 0 13.763-4.864 13.763-11.581 0-5.872-4.13-11.81-12.098-11.81zm9.328 11.712c0 6.295-4.672 8.393-11.503 8.393l-2.192-.032.102-16.738c.918-.032 1.835-.065 2.77-.065 6.541 0 10.823 2.407 10.823 8.442z" class="cls-1"/><path id="path11158" d="M164.098 22.48a9.304 9.304 0 0 0-9.31 9.174 9.285 9.285 0 0 0 9.276 9.093c2.277 0 4.809-.927 5.998-2.863l.187 1.301a1.514 1.514 0 0 0 1.512 1.627 1.669 1.669 0 0 0 1.7-1.627l.033-15.062v-.032a1.669 1.669 0 0 0-1.699-1.627 1.514 1.514 0 0 0-1.512 1.627l-.187 1.561a7.742 7.742 0 0 0-5.998-3.172zm5.862 9.142a5.905 5.905 0 1 1-5.896-5.889 5.863 5.863 0 0 1 5.896 5.889z" class="cls-1"/><path id="path11160" d="M179.441 19.65v3.253h-2.209a1.547 1.547 0 1 0 0 3.09h2.192l-.017 10.2v.146a4.153 4.153 0 0 0 4.452 4.408 5.564 5.564 0 0 0 3.262-1.09 1.593 1.593 0 0 0-1.02-2.895 2.062 2.062 0 0 0-1.053.341 2.267 2.267 0 0 1-1.291.374c-.782 0-.952-.341-.952-1.399v-.032l.018-10.069h2.293a1.547 1.547 0 1 0 0-3.09h-2.276V19.65a1.7 1.7 0 0 0-3.399 0z" class="cls-1"/><path id="path11162" d="M198.828 22.48a9.304 9.304 0 0 0-9.31 9.174 9.285 9.285 0 0 0 9.276 9.093c2.277 0 4.809-.927 5.998-2.863l.187 1.301a1.514 1.514 0 0 0 1.512 1.627 1.669 1.669 0 0 0 1.7-1.627l.033-15.062v-.032a1.669 1.669 0 0 0-1.699-1.627 1.514 1.514 0 0 0-1.512 1.627l-.187 1.561a7.742 7.742 0 0 0-5.998-3.172zm5.862 9.142a5.904 5.904 0 1 1-5.896-5.889 5.863 5.863 0 0 1 5.896 5.889z" class="cls-1"/></g><g id="text3342" class="cls-2"><g class="cls-2"><path d="M205.053 49.643v-4.774h-1.781v-.973h4.771v.973h-1.777v4.774zm3.756 0v-5.747h1.814l1.09 3.92 1.076-3.92h1.819v5.747h-1.126v-4.524l-1.193 4.524h-1.166l-1.187-4.524v4.524z" class="cls-1"/></g></g><g id="text3346"><path id="path11165" d="M137.337 10.654l-1.046 2.198h-1.883l4.603-9.663h1.883l4.603 9.663h-1.883l-1.046-2.198zm4.514-1.507l-1.898-3.981-1.898 3.981z" class="cls-3"/><path id="path11167" d="M152.252 3.19a5.693 5.693 0 0 1 3.468.842 3.078 3.078 0 0 1 1.09 2.6 2.965 2.965 0 0 1-1.12 2.57 5.757 5.757 0 0 1-3.408.816h-1.853v2.834h-1.763V3.189zm.225 5.349a2.878 2.878 0 0 0 1.987-.512 2.03 2.03 0 0 0 .538-1.52 1.538 1.538 0 0 0-.672-1.424 4.135 4.135 0 0 0-2.107-.415h-1.794v3.87z" class="cls-3"/><path id="path11169" d="M161.523 10.654l-1.046 2.198h-1.883l4.603-9.663h1.883l4.603 9.663H167.8l-1.046-2.198zm4.513-1.507l-1.898-3.981-1.898 3.981z" class="cls-3"/><path id="path11171" d="M177.619 11.373a4.036 4.036 0 0 0 1.569-.277 5.596 5.596 0 0 0 1.375-.912l1.136 1.078a5.426 5.426 0 0 1-4.035 1.7 5.662 5.662 0 0 1-3.931-1.41 4.607 4.607 0 0 1-1.554-3.566 4.651 4.651 0 0 1 1.584-3.594 5.788 5.788 0 0 1 4.02-1.438 5.465 5.465 0 0 1 4.065 1.659l-1.12 1.133a4.874 4.874 0 0 0-1.42-.926 4.182 4.182 0 0 0-1.555-.262 3.865 3.865 0 0 0-2.66.954 3.065 3.065 0 0 0-1.076 2.419 3.239 3.239 0 0 0 1.061 2.46 3.646 3.646 0 0 0 2.54.981z" class="cls-3"/><path id="path11173" d="M185.572 12.852V3.189h1.763v4.189h5.186V3.189h1.764v9.663h-1.764V8.898h-5.186v3.954z" class="cls-3"/><path id="path11175" d="M206.243 3.19v1.534h-5.574V7.28h5.006v1.451h-5.006v2.585h5.753v1.535h-7.517V3.189z" class="cls-3"/></g><g id="g3413"><path id="path3427" fill="#cdcdcd" d="M13.224 46.765v-.379h.758v.758h-.758zm17.908 0v-.379h.826v.758h-.826zm-17.15-3.513v-.792h7.852v.827h-.827v.757h-7.025zm-5.441-3.1v-1.549h.757v3.1h-.757zm14.808-1.17v-1.136h-2.342v1.515h-2.342v-2.342h17.15v.827h-6.199v1.515h-5.44v.757h-.827zM5.44 34.298v-.378h2.342v.757H5.44zm8.54 0v-.378h2.342v.757h-2.341zM.759 29.615v-.379H3.1v.758H.758zm4.683-4.27v-.792h2.342v.757H6.199v.827H5.44zM.758 20.66v-.792H0v-.758h3.857v.758h-.758v1.584H.758zm17.15-1.17v-.38h.757v.758h-.757zm-3.926-2.756v-1.55h1.584v.758h1.584v.827h-.827v.757h-.757v.758h-1.584zm-8.54-.379v-.413h2.34v.827h-2.34zm3.099-2.72v-1.55h.757v3.1h-.757zm23.417-1.171v-1.137h3.1v.758H34.3v.758h-.826v.757h-1.516zm-17.976-.379v-.758h7.025v.758h-5.441v.758h-1.584zm-3.857-.379v-.379h1.515v.758h-1.515zm3.857-3.512v-1.55h-.758v-.827h2.342v.827h1.584V8.16h-.826v.827h-1.516v.757h-.826zm1.584-1.171v-.38h-.758v.759h.758zm12.466.757v-.378h-.757V5.818h.757v.827h2.342v.758H28.79v.757h-.758zm3.1-1.55v-.413h.826v.827h-.826z"/><path id="path3425" fill="#acacac" d="M13.982 46.765v-.379h17.15v.758h-17.15zm0-1.929v-.792h-.758V42.46h.758v1.584h7.025v-.757h.827v.757h-.827v.758h-6.199v.827h-.826zm9.367-1.963v-.413h6.267v.827H23.35zm-4.684-2.72v-.792h2.342v-1.515h.827v1.515h-.827v.757h-1.515v.827h-.827zm4.684.379v-.414h.826v-.757h5.441v-1.515h.758v1.515h-.758v.757h-5.44v.827h-.827zm-13.224-1.929v-.757h.757v1.515h-.757zm21.833 0v-.757h.758v1.515h-.758zm-9.367-.379v-.378h.758v.757h-.758zm-4.683-2.72v-2.342h.757v4.684h-.757zM5.44 35.469v-.792h2.342v-.757H5.44v-.758h2.342v.758h.758v.757h-.758v.827H6.199v.757H5.44zm8.54 0v-.792h2.342v-.757h-2.341v-.758h2.341v.758h.827v.757h-.827v.827h-.757v.757h-1.584zM.759 30.786v-.792H0v-1.516h3.1v.758h.757v.758h-.758v1.584H.758zM3.1 29.615v-.379H.758v.758h2.341zm2.342-.758v-2.72H6.2v-.827h1.584v-.757h.758v.757h-.758v6.268H5.44zm4.684.758v-.379h-.827v-.758h1.584v.758h.758v.758h-1.515zM0 24.93v-.378h3.1v.757H0zm4.684 0v-.378h.757v.757h-.757zm8.54-.757v-.38h.758v.759h-.758zM.758 22.21v-.758h2.341V19.87h.758v-.758h.827v.758h-.827v1.584h-.758v.758H1.515v.757H.758zm4.683-1.55v-.792h6.199v.758H6.199v.826H5.44zM0 20.248v-.379h.758v.758H0zm13.982-1.55v-.413h.826v.826h-.826zm3.926-1.55v-1.963h.757v3.926h-.757zm-12.467.38v-.758h2.342v-.827h-3.1v-.758h3.1v.758h.758v.827h-.758v.757H6.199v.758H5.44zm4.684-2.343v-3.099h-.827v-1.584h2.342v.827h.827v.757h-.827v5.441h-.758v.758h-.757zm1.515-3.478v-.379h-1.515v.758h1.515zm3.926 6.2v-.38h.758v-.757h.826v1.515h-1.584zm0-2.343v-.379h1.584v.758h-1.584zm16.392-1.55v-.413h.758v.827h-.758zm-17.976-.791v-.38h1.584v-.757h5.441v-.758h-2.342v-.826h2.342v.827h.827v.757h-.827v1.515h-7.025zm19.492 0v-.38h.826v.758h-.826zm-10.125-1.516v-.379h6.267v.758H23.35zm-9.367-.792v-.413h.826v.827h-.826zm17.976 0v-.413h-.826V6.645h.826v3.857h3.1v.827h-3.1zm-17.15-1.55v-.378h.758v.757h-.758zm12.467-.792v-1.17h.757v.757h.758v-.757h1.584v.757h-.758v.827h-1.584v.757h-.757zm-14.05-.757V6.645h.757v2.342h-.758zm3.099.757V8.16h.826v.827h-.826zm.826-1.55v-.378h-1.584v-.827h1.584v.827h.758v.758h-.758zm1.515-.413v-.792h7.026v.827h-.758v.758h-6.268zm9.367-.378v-.414h2.342v.827h-2.342z"/><path id="path3423" fill="#8e8e8e" d="M13.224 45.215v-1.17h.758v2.341h-.758zm17.908-.792V42.46h.826v3.926h-.826zm-16.324.792v-.413h.758v.827h-.758zm8.54-1.55v-.378h6.268v-.827h.758v.827h-.758v.757H23.35zm11.71-1.584v-.378h.757v.757h-.757zm-15.566-1.55v-.413h1.515v.827h-1.515zm4.683 0v-.413h5.441v-.757h.758v.757h-.758v.827h-5.44zm-13.293-1.928v-.757h6.268v.757h-.826v.758h-5.442zm11.71.379v-.379h.757v.758h-.758zm10.124-.379v-.757H34.3v1.515h-1.584zm-23.418-.379v-.378h.827v.757h-.827zm8.61 0v-.378h.757v.757h-.757zm12.466 0v-.378h.758v.757h-.758zM13.982 36.64v-.379h.826v.758h-.826zm-7.783-.757v-.38h1.584v.758H6.199zm9.367 0v-.38h.757v-.826h.827v.827h-.826v.757h-.758zM4.684 33.92v-.758h.757v1.515h-.757zm3.099-.38v-.378h.758v.758h-.758zm8.54 0v-.378h.827v.758h-.826zM.759 31.958v-.38H0v-1.583h.758v1.584h.757v.757H.758zm4.683 0v-.38H6.2v.758h-.76zM3.1 30.786v-.792h.758v1.584H3.1zm7.026-.379v-.413h.757v.826h-.757zm1.515-.792v-.379h-.758v-.758h1.585v1.516h-.827zm-8.54-.758v-.379h.757v.758H3.1zm10.124 0v-.379h.758v.758h-.758zM0 25.723v-.413h3.1v-.757h.757v.757h-.758v.827H0zm7.783 0v-.413h.758v.827h-.758zM0 24.173v-.378h.758v.758H0zm5.441 0v-.378H6.2v.758h-.76zm3.857 0v-.378h3.926v.758H9.298zM0 21.799v-1.171h.758v2.341H0zm1.515.792v-.38H3.1v.758H1.515zM6.2 21.04v-.413h5.441v-.758h.827v.758h-.827v.826H6.199zm8.61-2.342v-.413h2.341v-2.342h.758v3.168h-3.1zm-8.61-.792v-.379h1.584v.758H6.199zm4.683 0v-.379h.758v-5.44h.827v-.759h-.827v-.826h.827v.827h.757v.757h-.757v5.441h-.827v.758h-.758zm-6.198-1.55v-.413h.757v.827h-.757zm3.099-.792v-.379h.758v.758h-.758zm6.199-1.55v-.413h.826v.827h-.826zm18.734 0v-.413H34.3v-1.515h.758v2.342h-2.342zm-9.367-1.55v-.378h.826v.758h-.826zm-8.54-1.549v-.413h3.856v.827h-3.857zm6.198 0v-.413h.827v.827h-.827zm1.584 0v-.413h1.584v.827h-1.584zm8.54 0v-.413h.827v.827h-.826zm-17.907-1.17v-.758h.758v1.515h-.758zm2.342-.38v-.378h1.584V7.403h.758v2.341h-2.342zm14.05-.792V8.16h.758v.827h-.758zm-10.95-.792v-.378h5.51v.757h-5.51zm6.267-.757v-.38h.758v-.826h1.584v.827H25.69v.758h-.758zm5.441-.414v-.792h.758v1.585h-.758zM17.15 6.232v-.414h1.515v.827H17.15z"/><path id="path3421" fill="#7f7f7f" d="M15.566 45.215v-.413h5.441v-.758h.827v1.585h-6.268zm7.783-.792v-.379h.826v.758h-.826zm-.758-1.55v-.413h.758v.827h-.758zm-13.293-.792v-.378h8.61v.757h-8.61zm22.66 0v-.378h3.1v.757h-3.1zm-13.293-.757v-.38h2.342v-1.583h.827v2.342h-3.169zm4.684 0v-.38h6.267v-.826h.758v1.585h-7.025zM10.125 39.74v-.38h.757v.758h-.757zm12.466 0v-.38h.758v.758h-.758zm9.367 0v-.38h.758v.758h-.758zm-14.05-.758v-.379h.757v.758h-.757zM5.44 36.64v-.379h2.342v-1.584h.758v2.342h-3.1zm9.367 0v-.379h1.515v-.757h.827v1.515h-2.342zM4.684 35.09v-.413h.757v.827h-.757zm5.44-1.928V30.82h.758v-.826h.758v.826h-.758v4.684h-.757zm7.026 1.136v-.378h.758v.757h-.758zM0 31.957v-.38h.758v.758H0zm1.515 0v-.38h2.342v.758H1.515zm6.268-2.72v-2.343h.758v4.684h-.758zm1.515.378v-.379h.827v.758h-.827zm3.168-.758v-.379h.758v.758h-.758zM0 26.894v-.757h2.342v.757H.758v.758H0zm4.684-1.17v-.414h.757v.827h-.757zm0-1.55v-.38h.757v.759h-.757zm1.515 0v-.38h1.584v.759H6.199zM0 23.382v-.414h3.1v-1.515h.757v2.342H0zm5.441-1.55v-.379H6.2v.758h-.76zm6.199-.792v-.413h.827v.826h-.827zm-6.956-.792v-.379h.757v.758h-.757zm9.298-.758v-.379h3.926v.758h-3.926zm-8.54-.792v-.413h2.34V16.77h.759v2.341h-3.1zm3.856-3.513v-3.099h.827v6.199h-.827zm2.342 2.721v-.379h.827v.758h-.827zm-6.956-.758v-.378h.757v.757h-.757zm12.466-1.584v-.379h.758v.758h-.758zm-2.342-1.55v-.413h6.199v-1.515h.827v2.342h-7.026zm8.54-.791v-.38h.827v.758h-.826zm-.757-1.516v-.379h.758v.758h-.758zm7.025 0v-.379h-5.44v-.826h5.44v.827h.758v.757h-.758zm1.516 0v-.379h.826v.758h-.826zm-18.666-.792v-.413h1.516v.827h-1.516zm15.566-1.55v-.378h2.342v.757h-2.342zm-9.367-.792V8.16h.827v.827h-.827zm5.51-.792v-.378h.758v.757h-.758z"/><path id="path3419" fill="#707070" d="M13.982 46.007v-.379h7.852v.758h-7.852zm10.193-1.584v-.379h5.441v-.757h.758v-.827h-7.783v-.757h7.783v-3.1h.758v3.1h-.758v.757h.758v.827h-.758v.757h-.758v.758h-5.44zm-6.267-3.513v-1.55h.757v2.343h3.169v.757h-3.926zm-7.783-.378v-.414h.757v-.757h5.441v-.758h.827v.758h-.827v.757h-5.44v.827h-.758zm12.466 0v-.414h.758v.827h-.758zm9.367 0v-.414h.758v-.757H34.3v.757h-1.584v.827h-.758zm-22.66-1.55v-.379h.827v.758h-.827zm25.002-.758v-.378h.758v.757H34.3zm-29.616-1.55v-1.17h.757v1.515h3.857v.827H4.684zm9.298.758v-.413h2.341v.827h-2.341zm3.168-1.584v-1.17h.758v2.341h-.758zm-7.025.035v-.38h.757V30.82h.758v-.826h.827v1.584h-.827v3.926h-.758v.757h-.757zm3.1-4.305v-2.342h.757v4.684h-.758zm3.925 1.963v-.379h.758v.758h-.758zM0 32.749v-.414h.758v.827H0zm6.199-.792v-.38H8.54v.758H6.199zm-1.515-1.171v-.792h-.827v-.758h.827v-3.1h.757v5.442h-.757zm4.614-.379v-.413h.827v.826h-.827zM0 28.065v-.413h.758v-.758h.757v.758H.758v.827H0zm2.342-1.55v-.378h.757v-.827h.758v.827h-.758v.757h-.757zm5.44 0v-.378h.759v.757h-.758zm-7.023-2.34v-.38h3.099v.759h-3.1zm7.025 0v-.38h.758v.759h-.758zm5.441-1.963v-1.584h-.758v-.758h-2.341v-.758h-.827v-.826h3.168v-6.199h.758v-.758h.758v.758h-.758v3.1h.758v.757h-.758v3.168h-.758v.758h1.516v3.926h-.758zm-7.783.379v-.38H6.2v-.757h5.441v.758H6.199v.757H5.44zm-.757-1.55v-.413h-.827v-.758h.827v-2.342h.757v1.584h3.1v.758H4.684v.758h.757v.826h-.757zm26.448-7.783v-1.17h.826v2.34h-.826zm-6.957-.413v-.758h5.441v1.515h-5.44zm5.441-1.929v-.413h.758v.827h-.758zm-15.634-.792v-.379h3.926v.758h-3.926zm16.392-1.55v-1.17h.758v2.341h-.758zm-10.882 0V8.16h5.44v-.757h.759v-.758h1.584v.758H25.69v.757h-.758v.827h-5.441z"/><path id="path3417" fill="#505050" d="M21.834 42.116v-4.27h.757v3.099h.758v.758h-.758v1.584h.758v1.515h6.267v-.758h.758v-.757h.758v2.341h-7.783v-.826h-.758v1.584h-.757zm8.54-.035v-.378h1.584v-.758h.758v-.827H34.3v-1.515h.758v-.757h.757v3.857h-3.857v.757h-1.584zm-20.25-.757v-.38h-.826v-1.583h.827v1.584h.757v-.827h5.441v-.757h.827v-1.515h-.826v-.827h1.584v4.684h-7.783zm21.008-2.72v-.758h.826v1.515h-.826zM9.298 37.431v-.413h-.757v-3.857h-3.1v-.827H3.857v.827h-3.1v-.827h3.1v-2.341h.827v1.584h.757v.757h3.1v-8.54h-3.1v-.827h-.757v1.585h-.827v-3.926h.827v.826h.757v1.515H6.2v-.757h5.441v-.758h.827v-.826h.757v3.168H9.298v7.025h.827v5.441h.757v-.757h.758v-3.926h.827v-2.342h.757v4.684h.758v3.926H9.298zm.827-.792v-.379h-.827v.758h.827zm-.827-3.891v-.414h-.757v.827h.757zm-5.441-3.892v-.379h.827v.758h-.827zm-2.342-1.584v-.379H3.1v-.757h.758v1.515H1.515zm7.026-9.746v-2.342h.757v3.926h.827v.758H8.54zm3.925 1.963v-.379h.758v-3.168h.758v3.926h-1.516zm.758-5.854v-1.55h.758v2.342h7.852v-3.926h.757v1.584h.758V13.6h6.267v-1.515h.758v-1.584h-3.1v-.758h-8.609v-.757h6.268V8.16h.758v-.757h1.584v2.341h3.857v4.684h3.926v-3.926h.757v3.926h-.757v.758h-3.926v-.758h-8.54v.758h-9.368zm4.684-6.233v-.758h.757V8.16h-.757z"/><path id="path3415" fill="#363636" d="M22.591 45.594v-.792h.758v.827h7.783v.757h-8.54zm-13.293-4.27v-.38h.827v.759h-.827zm21.834-.792V39.36h.826v2.342h-.826zM9.298 36.64v-.379h.827v.758h-.827zm-5.441-3.89v-.414h1.584v.827H3.857zm4.684 0v-.414h.757v.827h-.757zM.758 28.065v-.413h3.099v-3.1h.827v3.927H.758zm3.926-4.683v-.414h.757v.827h-.757zm17.907-8.575v-.38h8.54v.758h-8.54zm12.467 0v-.38h.757v.758h-.757zM17.908 9.33V8.16h.757v1.583h8.61v.758h-9.367z"/></g></g></svg>