<svg xmlns="http://www.w3.org/2000/svg" role="img" viewBox="-2.01 -2.01 104.26 85.64"><title>ApeCloud logo</title><style>svg {isolation:isolate}</style><defs><clipPath id="_clipPath_62KVih5MlMvcqwW8difutm5jj1zkpbj4"><path d="M0 0h100.37v81.68H0z"/></clipPath></defs><g clip-path="url(#_clipPath_62KVih5MlMvcqwW8difutm5jj1zkpbj4)"><path fill="#192548" d="M64.05 66.42c-.297-.004-.592.047-.87.15-.279.11-.541.258-.78.44-.581.433-.986 1.062-1.14 1.77l-2 8.54h8.95c.297.004.592-.047.87-.15.279-.11.542-.258.78-.44.573-.423.978-1.036 1.14-1.73l2-8.54-8.95-.04zm2.26 8.89q0 .16-.25.4c-.126.135-.296.22-.48.24h-1.5L66 68.43c.044-.165.138-.312.27-.42.118-.133.283-.215.46-.23h1.47l-1.89 7.53zm17.28-8.89c-.672-.052-1.336.169-1.842.613-.507.444-.812 1.074-.848 1.747L79.26 76c-.421.017-.836-.106-1.18-.35-.292-.213-.486-.533-.54-.89-.027-.142-.027-.288 0-.43l1.78-7.77H75l-1.86 8s0 .16-.06.42c-.041.262-.041.528 0 .79.039.498.283.957.673 1.268.391.311.893.446 1.387.372h8.17l2.56-10.91-2.28-.08zm-43.1 1.26c-.138-.49-.47-.902-.92-1.14a2.0112 2.0112 0 0 0-.78-.12h-9l-2 8.54c-.096.359-.113.734-.05 1.1.139.489.471.901.92 1.14.249.091.515.132.78.12h8.81l.31-1.32h-5.83q-.35 0-.45-.4a.42602.42602 0 0 1 0-.24l.64-3h6.58l.92-3.52c.112-.376.136-.773.07-1.16zm-6.49.1h1.47c.21 0 .38 0 .45.31.021.112.021.228 0 .34l-.58 2.5h-2l.66-3.15zm-15.37-1.36c-.293-.003-.585.047-.86.15-.276.106-.535.251-.77.43-.565.434-.944 1.067-1.06 1.77l-3.06 12.9h2.51c.293.004.585-.047.86-.15.273-.11.529-.258.76-.44.565-.434.944-1.067 1.06-1.77l.47-2h4.53c.294.004.585-.047.86-.15.273-.109.529-.258.76-.44.558-.42.94-1.034 1.07-1.72l2-8.54-9.13-.04zm2.43 8.89c-.038.165-.13.312-.26.42-.114.133-.275.216-.45.23h-1.48l1.76-7.55c0-.11.06-.24.23-.4.121-.136.289-.221.47-.24h1.5l-1.77 7.54zM6 60.64c-.297-.004-.592.047-.87.15-.276.11-.535.258-.77.44-.573.433-.965 1.064-1.1 1.77L.54 75l-.25 1.09c.014.049.014.101 0 .15L0 77.32h2.44c.297.004.592-.046.87-.15.276-.11.535-.258.77-.44.569-.422.964-1.037 1.11-1.73l1.68-7.15h2.81L8.1 74.56c-.138.677.035 1.38.471 1.916.435.537 1.088.85 1.779.854h1.57l3.84-16.69H6zm4.16 5.16q0 .16-.24.4c-.125.136-.296.222-.48.24H7.17L8 62.65c.042-.166.137-.313.27-.42.107-.125.257-.207.42-.23H11l-.84 3.8zm90.21-5.16H98c-.297-.004-.592.047-.87.15-.279.11-.541.258-.78.44-.593.428-1.009 1.057-1.17 1.77l-.75 3.42h-4.37c-.297-.004-.592.047-.87.15-.279.11-.541.258-.78.44-.578.435-.979 1.063-1.13 1.77l-2 8.54h8.95c.297.004.592-.047.87-.15.279-.11.542-.258.78-.44.566-.426.963-1.039 1.12-1.73l3.37-14.36zm-8.06 14.67q0 .16-.25.4c-.126.135-.296.22-.48.24h-1.5l1.73-7.5c.044-.165.138-.312.27-.42.118-.133.283-.215.46-.23h1.53l-1.76 7.51zM51.64 76h-1.83c-1.22-.097-2.336-.726-3.05-1.72-.289-.318-.468-.722-.51-1.15-.04-.643.027-1.289.2-1.91l2-8.45c.044-.165.138-.312.27-.42.118-.133.283-.215.46-.23h5.75l.34-1.44h-8.83c-.297-.004-.592.047-.87.15-.279.11-.541.258-.78.44-.57.425-.97 1.038-1.13 1.73l-1.8 7.88c-.115.528-.149 1.071-.1 1.61.058.525.207 1.036.44 1.51.26.519.575 1.008.94 1.46.477.561 1.071 1.012 1.74 1.32.615.341 1.298.539 2 .58h4.39l.37-1.36zm5.66 1.32h-4.25l3.89-16.68h4.25L57.3 77.32zm18.98-42.68c-.74-3.64-3.14-6.57-5.28-9.53-2.38-3.33-4.38-6.92-6.87-10.17C61.9 12 59.19 9 55.28 8.66c-2.379-.163-4.749.421-6.78 1.67-3.119 2.015-5.398 5.097-6.41 8.67-.309.082-.605.207-.88.37-.31.162-.602.356-.87.58-1.839 1.38-3.327 3.176-4.34 5.24-.441.83-.809 1.696-1.1 2.59-.11.33-.21.63-.29.9-1.71-1.349-3.95-1.825-6.061-1.288-2.111.537-3.852 2.026-4.709 4.028 1.153.091 2.299.258 3.43.5 3.7 1 5.45 4 7.1 7.14.854 1.785 1.812 3.518 2.87 5.19 3.27 4.71 10.67 5.83 16 2.4-3.517-.76-6.683-2.667-9-5.42-2.44-3.16-6.22-9.35-8.37-11.5l-.08-.07c.67-1.23 1.59-2.44 2.72-2.66 1.064-.11 2.122.256 2.89 1 1.013.996 1.876 2.135 2.56 3.38 4.1 7.16 9.19 12.18 17.69 10.16-.689-2.668-1.735-5.232-3.11-7.62-1.8-3-4.27-6.91-5.55-8.49-1.73-2.14-3.5-4.49-6-5.76-.692-.359-1.434-.615-2.2-.76 2.72-2.24 6.82-4 10.52 1 3 4.11 8.87 12.6 11.09 20 .82 2.73.75 6.52-1.39 8.66 1.339.09 2.685 0 4-.27 2.565-.66 4.74-2.36 6-4.69 1.471-2.746 1.921-5.924 1.27-8.97zM57.5 5.05c2.74.62 9 3.14 12.81 13.31.57 1.61 1.18 3 1.74 3.2.347.077.71.005 1-.2.93-.369 1.78-.916 2.5-1.61a2.0078 2.0078 0 0 0-.44-.62c0-.1.09-.19.13-.29l.06-.19c.04-.14.064-.284.07-.43.041-.562-.013-1.126-.16-1.67-.378-1.629-1.545-2.961-3.11-3.55-.146-.07-.301-.121-.46-.15l2.1-.71c.117-.039.214-.123.269-.234.055-.111.062-.239.021-.356-.53-1.355-1.341-2.582-2.38-3.6 0 0-.8-1-1.86-2.15 0 0-4.3-6.29-7.43-5.76-2.3.39-4.56 2.8-5.61 4.05-.213.242-.414.496-.6.76l1.35.2z"/></g></svg>