<svg xmlns="http://www.w3.org/2000/svg" role="img" viewBox="-2.87 -2.99 155.74 47.74"><title>Apiiro (member) logo</title><g fill="#2DD59F" fill-rule="evenodd"><path d="M68.82592 21.63058c0-1.9216-.55935-3.4476-1.67832-4.57803-1.11927-1.13042-2.44719-1.69533-3.98464-1.69533-1.53716 0-2.86538.55376-3.98435 1.66159C58.05963 18.12634 57.5 19.6409 57.5 21.56279c0 1.9216.55963 3.46433 1.6786 4.6285 1.11898 1.16446 2.4472 1.7464 3.98436 1.7464 1.53745 0 2.86009-.56492 3.96762-1.69534 1.13042-1.15301 1.69534-2.69017 1.69534-4.61177zM56.54344 28.5651C54.84781 26.74535 54 24.41671 54 21.57951s.84224-5.14293 2.52642-6.9175C58.21061 12.88742 60.3074 12 62.81681 12c1.46937 0 2.76354.33337 3.88251 1.00012 1.11927.66704 1.98381 1.54303 2.59422 2.62826V12.3052h3.89953v18.6845h-3.89953v-3.4928c-.633 1.15302-1.50341 2.0742-2.61094 2.76355-1.10783.68964-2.39642 1.03446-3.8658 1.03446-2.4868 0-4.57802-.91003-6.27336-2.7298zm37.51652-7.00232c0-1.9219-.55934-3.43645-1.67832-4.54398-1.11927-1.10783-2.45306-1.6616-4.00137-1.6616-1.5489 0-2.88269.56492-4.00166 1.69534C83.25993 18.18297 82.7 19.70898 82.7 21.63058c0 1.9216.55993 3.45318 1.6786 4.59475 1.11898 1.14157 2.4475 1.71236 3.98465 1.71236 1.53716 0 2.87095-.57636 4.00137-1.72938 1.13013-1.17561 1.69534-2.72392 1.69534-4.64552zM88.65653 12c2.5094 0 4.60062.88743 6.27336 2.662 1.67274 1.77458 2.5094 4.08031 2.5094 6.91752 0 2.8372-.84224 5.16583-2.52642 6.9856-1.68419 1.81976-3.76983 2.72979-6.25634 2.72979-1.46967 0-2.75826-.34482-3.8658-1.03446-1.10782-.68935-1.98938-1.61053-2.64527-2.76354V39.874h-3.86579V12.3052h3.86579v3.32317c.6333-1.08523 1.50928-1.96122 2.62826-2.62826C85.89269 12.33337 87.18686 12 88.65652 12zm12.6145 18.9897h3.8658V12.3052h-3.8658v18.6845zm8.9524 0h3.86578V12.3052h-3.86579v18.6845zm12.81817-18.6845v3.25539C124.2395 13.18676 126.10447 12 128.63647 12v4.00137h-.9831c-1.51485 0-2.6623.38444-3.44203 1.15302-.78002.76858-1.16974 2.10237-1.16974 4.00137v9.83394h-3.86608V12.3052h3.86608zm21.29544 14.03898c1.13042-1.13042 1.69534-2.70162 1.69534-4.7136 0-2.01198-.54819-3.57761-1.64457-4.69658-1.09638-1.11927-2.4246-1.67861-3.98435-1.67861-1.56005 0-2.87095.55934-3.93358 1.6786-1.06263 1.11898-1.5938 2.69018-1.5938 4.71361 0 2.02313.51973 3.59434 1.55976 4.71331 1.03974 1.11927 2.3342 1.67861 3.88281 1.67861 1.5486 0 2.88797-.56521 4.0184-1.69534zm-4.0354 4.95073c-2.71278 0-4.95073-.88744-6.71415-2.662-1.76342-1.77458-2.64498-4.1032-2.64498-6.98531 0-2.8824.90973-5.21102 2.7295-6.9856 1.82005-1.77457 4.08647-2.662 6.79924-2.662 2.71278 0 4.9792.88743 6.79896 2.662C149.08997 16.43658 150 18.75934 150 21.63058c0 2.87095-.93263 5.19958-2.79758 6.9853-1.86525 1.78602-4.16542 2.67903-6.90079 2.67903z"/><path d="M.117 20.929l20.928 20.928-11.52-20.928L21.046 0zM21.046 0l11.52 20.928-11.52 20.929 20.929-20.929z"/></g></svg>