<svg xmlns="http://www.w3.org/2000/svg" role="img" viewBox="-85.60 894.40 16411.20 15431.20"><title>APISIX logo</title><style>svg {shape-rendering:geometricPrecision;text-rendering:geometricPrecision;image-rendering:optimizeQuality;fill-rule:evenodd;clip-rule:evenodd}</style><defs><style/><linearGradient id="id0" x1="25119.8" x2="21725.7" y1="11052.5" y2="21551.7" gradientTransform="translate(-3430.365 -2523)" gradientUnits="userSpaceOnUse"><stop offset="0" stop-color="#a92f33"/><stop offset="1" stop-color="#e62129"/></linearGradient><linearGradient id="id1" x1="27026.6" x2="30514.6" y1="8021.8" y2="16218.5" gradientTransform="translate(-3430.365 -2523)" gradientUnits="userSpaceOnUse"><stop offset="0" stop-color="#a92f33"/><stop offset="1" stop-color="#e8443f"/></linearGradient><linearGradient id="id2" x1="23046.1" x2="26713.9" y1="14340.2" y2="9900.07" gradientTransform="translate(-3430.365 -2523)" gradientUnits="userSpaceOnUse"><stop offset="0" stop-color="#e62129"/><stop offset="1" stop-color="#e8443f"/></linearGradient></defs><g id="图层_x0020_1"><path fill="url(#id0)" d="M19665.635 14648.001l3249-4713-1024-1603-2993 3552c-994 1180-1154 1474-1984 2858l2753-94z" transform="translate(-14095.048 -3237.067)"/><path fill="url(#id1)" d="M27731.635 14742.001l1317-5-5919-10285 2858 10290h1745zm-4603-10290l-1497 2474 301-497 1196-1976z" transform="translate(-14095.048 -3237.067)"/><path fill="url(#id2)" d="M21889.635 8332.001l4097 6410-2858-10290-1195 1976-5021 8314z" transform="translate(-14095.048 -3237.067)"/><path fill-rule="nonzero" d="M17654.635 19248.001h-723l-286-755h-1330l-275 755h-710l1287-3315h709l1328 3315zm-1227-1315l-461-1227-448 1227h908zm2009 1315v-3315h1073c407 0 671 16 795 49 190 50 349 158 477 325s192 382 192 646c0 204-37 374-110 513-74 139-167 248-281 327-113 79-229 131-346 157-160 32-390 48-693 48h-435v1250h-671zm671-2755v945h365c263 0 438-18 527-52 89-35 158-89 208-164 50-74 76-160 76-259 0-121-35-221-106-299-71-79-160-128-269-148-79-15-239-22-480-22h-322zm2819 2755v-3315h671v3315h-671zm1559-1074l653-65c39 218 118 378 238 481s281 154 484 154c215 0 377-46 485-137 109-91 164-198 164-319 0-79-23-145-69-201-46-55-126-103-240-143-78-28-255-76-533-145-357-90-608-199-752-330-203-183-304-406-304-669 0-169 48-328 143-475 96-147 233-259 413-336s396-116 651-116c414 0 727 92 936 276 210 184 319 430 330 738l-671 23c-29-171-90-294-183-369s-234-113-421-113c-193 0-344 40-453 120-70 52-106 120-106 207 0 79 33 146 100 201 84 72 289 146 613 223 325 76 565 157 720 238 156 83 278 194 366 337s132 319 132 528c0 190-52 368-158 534s-255 289-448 370-434 121-722 121c-419 0-741-96-965-290-225-193-358-475-402-844zm3666 1074v-3315h671v3315h-671zm1399 0l1144-1729-1038-1587h782l653 987 653-987h783l-1040 1587 1142 1728h-804l-735-1123-735 1123h-805z" transform="translate(-14095.048 -3237.067)"/></g></svg>