<svg xmlns="http://www.w3.org/2000/svg" role="img" viewBox="-12.94 34.06 1608.88 1400.88"><title>Apono (member) logo</title><g fill="#2FA6DD" clip-path="url(#clip0_4042_1130)"><path d="M382.91 1401.78c-4.526 0-8.867-1.77-12.067-4.92-3.2-3.15-4.998-7.43-4.998-11.88v-240.5c0-4.46 1.798-8.73 4.998-11.88 3.2-3.15 7.541-4.92 12.067-4.92h104.232c23.499 0 46.039 9.18 62.674 25.51 16.636 16.34 26.009 38.51 26.063 61.64-.027 22.81-9.253 44.68-25.649 60.79-16.396 16.12-38.622 25.17-61.791 25.16h-29.454c-4.526 0-8.866-1.77-12.067-4.92-3.2-3.15-4.998-7.42-4.998-11.88 0-4.46 1.798-8.73 4.998-11.88 3.201-3.15 7.541-4.92 12.067-4.92h29.454c6.992.01 13.917-1.34 20.38-3.96 6.463-2.63 12.337-6.48 17.288-11.34 4.95-4.86 8.879-10.64 11.563-16.99 2.684-6.36 4.07-13.17 4.079-20.06-.054-14.22-5.831-27.84-16.066-37.88-10.235-10.04-24.094-15.67-38.541-15.67h-87.269v223.7c0 4.43-1.784 8.69-4.962 11.84-3.179 3.15-7.493 4.93-12.001 4.96zm385.102 0c-27.534 0-54.45-8.04-77.343-23.1-22.894-15.06-40.738-36.46-51.275-61.51-10.536-25.04-13.293-52.59-7.922-79.18 5.372-26.58 18.631-51 38.1-70.17 19.47-19.17 44.276-32.22 71.281-37.51 27.005-5.28 54.996-2.57 80.434 7.8 25.439 10.37 47.181 27.94 62.478 50.48 15.297 22.54 23.462 49.03 23.462 76.14-.036 36.33-14.715 71.17-40.815 96.87-26.1 25.69-61.489 40.14-98.4 40.18zm0-240.5c-20.784 0-41.101 6.07-58.382 17.43-17.281 11.37-30.75 27.53-38.704 46.43-7.954 18.9-10.035 39.7-5.98 59.77s14.063 38.5 28.76 52.97c14.696 14.47 33.421 24.32 53.805 28.31 20.385 3.99 41.513 1.94 60.715-5.89 19.202-7.83 35.614-21.09 47.161-38.1 11.547-17.01 17.71-37.01 17.71-57.47-.036-27.43-11.119-53.72-30.818-73.11-19.7-19.4-46.408-30.31-74.267-30.34zm658.768 240.5c-27.54 0-54.45-8.04-77.35-23.1-22.89-15.06-40.73-36.46-51.27-61.51-10.54-25.04-13.29-52.59-7.92-79.18 5.37-26.58 18.63-51 38.1-70.17 19.47-19.17 44.27-32.22 71.28-37.51 27-5.28 54.99-2.57 80.43 7.8 25.44 10.37 47.18 27.94 62.48 50.48 15.3 22.54 23.46 49.03 23.46 76.14-.03 36.33-14.71 71.17-40.81 96.87-26.1 25.69-61.49 40.14-98.4 40.18zm0-240.5c-20.79 0-41.1 6.07-58.38 17.43-17.29 11.37-30.75 27.53-38.71 46.43-7.95 18.9-10.03 39.7-5.98 59.77 4.06 20.07 14.06 38.5 28.76 52.97 14.7 14.47 33.42 24.32 53.81 28.31 20.38 3.99 41.51 1.94 60.71-5.89 19.2-7.83 35.62-21.09 47.16-38.1 11.55-17.01 17.71-37.01 17.71-57.47-.03-27.43-11.12-53.72-30.82-73.11-19.7-19.4-46.4-30.31-74.26-30.34zm-228.58 240.5c-2.5 0-4.98-.55-7.24-1.59-2.26-1.05-4.27-2.57-5.87-4.46l-171.36-202.47v191.52c0 4.45-1.8 8.72-5 11.87-3.2 3.15-7.54 4.92-12.069 4.92-4.525 0-8.866-1.77-12.066-4.92-3.2-3.15-4.998-7.42-4.998-11.87v-237.81c.001-3.46 1.082-6.82 3.096-9.65 2.014-2.82 4.863-4.97 8.16-6.14 3.296-1.18 6.88-1.32 10.267-.42 3.38.9 6.4 2.8 8.65 5.45l171.36 202.37v-194.1c0-4.46 1.8-8.73 5-11.88 3.2-3.15 7.54-4.92 12.07-4.92 4.52 0 8.86 1.77 12.06 4.92 3.2 3.15 5 7.42 5 11.88v240.5c0 4.45-1.8 8.73-5 11.88-3.2 3.15-7.54 4.92-12.06 4.92zm-894.76-21.88l-126.28-244.39c-1.429-2.76-3.605-5.08-6.289-6.7-2.683-1.62-5.769-2.47-8.916-2.47-3.147 0-6.233.85-8.916 2.47-2.683 1.62-4.86 3.94-6.289 6.7L20.4709 1379.9c-2.0502 3.98-2.4127 8.59-1.0078 12.83s4.462 7.75 8.4991 9.77c4.0371 2.02 8.7234 2.37 13.0277.99 4.3044-1.38 7.8742-4.39 9.9244-8.37 7.0768-13.88 16.9226-26.22 28.9493-36.27 12.0267-10.06 25.9874-17.63 41.0504-22.25 14.468-4.47 29.517-6.84 44.676-7.06 5.704.01 11.403.36 17.065 1.04 18.992 2.53 37.069 9.59 52.66 20.56 15.59 10.97 28.221 25.53 36.793 42.4l.82 1.58c.973 2.04 2.351 3.86 4.053 5.36 1.702 1.5 3.692 2.65 5.853 3.38 2.161.73 4.448 1.02 6.727.86 2.279-.15 4.502-.76 6.539-1.78 2.036-1.02 3.843-2.43 5.315-4.15 1.472-1.72 2.579-3.71 3.254-5.86.675-2.15.905-4.41.676-6.65-.229-2.23-.912-4.4-2.008-6.38h.103zm-137.952-83.99c-24.11.18-47.978 4.74-70.4098 13.44l66.8258-129.29 65.495 126.67c-19.867-7.03-40.802-10.68-61.911-10.79v-.03zM768 536c18.79 0 37.157-5.484 52.779-15.758 15.623-10.274 27.799-24.876 34.989-41.961 7.191-17.085 9.072-35.885 5.407-54.022-3.666-18.137-12.714-34.797-26-47.873-13.286-13.077-30.213-21.982-48.642-25.589-18.428-3.608-37.528-1.756-54.887 5.32-17.359 7.077-32.197 19.061-42.636 34.437C678.572 405.93 673 424.007 673 442.5c.015 24.793 10.029 48.567 27.842 66.098C718.654 526.129 742.81 535.985 768 536zm43.494-146.446c4.607 0 9.11 1.345 12.94 3.864 3.831 2.519 6.816 6.099 8.579 10.288 1.763 4.189 2.225 8.798 1.326 13.245-.899 4.447-3.117 8.532-6.375 11.738-3.257 3.206-7.408 5.389-11.926 6.274-4.518.884-9.201.43-13.457-1.305-4.256-1.735-7.895-4.673-10.454-8.443-2.559-3.77-3.925-8.202-3.925-12.736 0-6.08 2.454-11.911 6.822-16.21 4.368-4.3 10.293-6.715 16.47-6.715z"/><path d="M768.007 65c-104.019-.0035-204.579 36.774-283.368 103.636-78.788 66.862-130.563 159.359-145.897 260.647-15.333 101.289 6.795 204.63 62.356 291.204 55.56 86.575 140.857 150.623 240.356 180.482 4.188 1.257 8.712.825 12.576-1.202 3.864-2.026 6.752-5.481 8.029-9.604 1.277-4.123.838-8.577-1.22-12.381-2.058-3.804-5.567-6.648-9.755-7.905-71.131-21.277-134.859-61.593-184.072-116.45-49.214-54.857-81.979-122.097-94.638-194.218-12.66-72.121-4.717-146.286 22.943-214.222 27.659-67.936 73.948-126.969 133.7-170.515 59.753-43.545 130.62-69.889 204.694-76.0937 74.074-6.2043 148.443 7.9757 214.808 40.9577 66.361 32.982 122.121 83.469 161.041 145.828 38.91 62.36 59.47 134.138 59.37 207.328-.33 85.114-28.44 167.868-80.19 236.053-51.74 68.185-124.38 118.188-207.192 142.63-3.794 1.113-7.055 3.532-9.189 6.815-2.134 3.283-2.998 7.211-2.436 11.069.563 3.858 2.516 7.389 5.502 9.948 2.986 2.559 6.807 3.976 10.766 3.993 1.591-.004 3.174-.232 4.7-.677 88.774-26.038 166.849-79.171 222.959-151.733 57.46-74.123 88.45-164.854 88.15-258.098-.06-113.32-45.8-221.986-127.17-302.137C993.462 110.204 883.111 65.1196 768.007 65z"/><path d="M1004.24 532.205c31.47-6.775 74.19 0 92.91 10.782 3.47 1.982 7.55 2.656 11.49 1.898 3.94-.758 7.46-2.897 9.91-6.019 2.45-3.121 3.67-7.013 3.42-10.949-.25-3.937-1.95-7.649-4.78-10.447L779.657 178.743c-1.555-1.52-3.402-2.721-5.432-3.535-2.03-.814-4.204-1.225-6.397-1.207-4.314.03-8.442 1.734-11.485 4.742L418.806 517.47c-2.827 2.798-4.524 6.51-4.774 10.447-.25 3.936.964 7.828 3.416 10.949 2.452 3.122 5.974 5.261 9.911 6.019 3.937.758 8.02.084 11.488-1.898 18.663-10.557 61.443-17.557 92.911-10.782 108.359 23.428 194.667 207.583 219.934 469.195.417 4 2.33 7.71 5.369 10.41 3.039 2.7 6.988 4.19 11.082 4.19 4.095 0 8.044-1.49 11.083-4.19 3.039-2.7 4.952-6.41 5.369-10.41 24.979-261.781 111.287-445.936 219.645-469.195zM767.828 213.406l77.234 77.117c-50.7-11.065-103.252-11.065-153.953 0l76.719-77.117zm-165.84 315.298c-18.996-13.524-40.581-23.126-63.453-28.227-11.329-2.333-22.88-3.469-34.454-3.387-6.489 0-13.093.282-19.754.903l118.35-118.554c21.364-21.573 46.846-38.791 74.988-50.668 28.142-11.876 58.391-18.179 89.014-18.546h2.47c30.621.376 60.867 6.683 89.008 18.559 28.14 11.876 53.624 29.089 74.993 50.655l118.29 118.554c-18.11-1.879-36.41-1.041-54.262 2.484-22.765 5.158-44.245 14.757-63.166 28.227-19.639 12.861-41.097 22.81-63.683 29.526-66.337 21.452-137.919 21.452-204.256 0-22.735-6.737-44.33-16.743-64.085-29.695v.169zm165.84 351.091c-23.659-127.926-61.329-231.463-106.406-291.983 69.267 21.529 143.602 21.529 212.869 0-45.078 60.576-82.747 163.888-106.463 291.814v.169z"/></g><defs><clipPath id="clip0_4042_1130"><rect width="1584" height="1582" fill="#fff" rx="75"/></clipPath></defs></svg>