<?xml version="1.0" encoding="utf-8"?>
<!-- Generator: Adobe Illustrator 21.1.0, SVG Export Plug-In . SVG Version: 6.00 Build 0)  -->
<svg version="1.1" id="Layer_1" xmlns="http://www.w3.org/2000/svg" xmlns:xlink="http://www.w3.org/1999/xlink" x="0px" y="0px"
	 viewBox="0 0 2000 2624" style="enable-background:new 0 0 2000 2624;" xml:space="preserve">
<style type="text/css">
	.st0{fill:#38D9FE;}
	.st1{fill:#39D9FE;}
	.st2{fill:#3ADAFE;}
	.st3{fill:#3AD9FE;}
	.st4{fill:#45AFE4;}
	.st5{fill:#454545;}
	.st6{fill:#C69B6E;}
	.st7{fill:#3CB54B;}
	.st8{fill:#673090;}
	.st9{fill:#D2D2D2;}
	.st10{fill:#F05B28;}
	.st11{stroke:#000000;stroke-width:16;stroke-miterlimit:10;}
	.st12{fill:url(#Triangle-3_1_);}
	.st13{fill:#333333;}
	.st14{fill:#D02129;}
	.st15{fill:#CD3832;}
	.st16{fill:#BB443D;}
	.st17{fill:#BBC656;}
	.st18{fill:#F9E04B;}
	.st19{fill:#F6D047;}
	.st20{fill:#AAB85D;}
	.st21{fill:#DEBF5B;}
	.st22{fill:#6FBFCC;}
	.st23{fill:#79C1C0;}
	.st24{fill:#77C4D3;}
	.st25{fill:#5CB9BC;}
	.st26{fill:#52A0B6;}
	.st27{fill:#BB3D36;}
	.st28{fill:#9E3634;}
	.st29{fill:#D43E35;}
	.st30{fill:#879C63;}
	.st31{fill:#BFC64F;}
	.st32{fill:#9FAE59;}
</style>
<g>
	<path class="st13" d="M291.4,2319.3l-21.4-70c-5.8-19.4-11.7-44.7-17.5-64.2h-1.9c-5.8,19.4-9.7,44.7-15.6,64.2l-19.4,70H291.4z
		 M207.8,2375.7l-23.3,83.6h-77.8l101.1-328.6H305l103.1,328.6h-79.7l-25.3-83.6H207.8z"/>
	<path class="st13" d="M515,2358.2c0,5.8,0,11.7,1.9,15.6c5.8,19.4,21.4,35,42.8,35c33.1,0,50.6-27.2,50.6-68.1
		c0-38.9-17.5-66.1-50.6-66.1c-21.4,0-38.9,15.6-44.7,36.9c-1.9,3.9-1.9,9.7-1.9,13.6v33.1H515z M441.1,2301.8
		c0-31.1-1.9-58.3-1.9-79.7h64.2l3.9,33.1h1.9c17.5-25.3,44.7-38.9,79.7-38.9c52.5,0,99.2,44.7,99.2,122.5
		c0,87.5-54.5,128.3-108.9,128.3c-29.2,0-50.6-11.7-62.2-27.2H515v118.6h-73.9V2301.8z"/>
	<path class="st13" d="M802.8,2358.2c0,5.8,0,11.7,1.9,15.6c5.8,19.4,21.4,35,42.8,35c33.1,0,50.6-27.2,50.6-68.1
		c0-38.9-17.5-66.1-50.6-66.1c-21.4,0-38.9,15.6-44.7,36.9c-1.9,3.9-1.9,9.7-1.9,13.6v33.1H802.8z M728.9,2301.8
		c0-31.1-1.9-58.3-1.9-79.7h64.2l3.9,33.1h1.9c17.5-25.3,44.7-38.9,79.7-38.9c52.5,0,99.2,44.7,99.2,122.5
		c0,87.5-54.5,128.3-108.9,128.3c-29.2,0-50.6-11.7-62.2-27.2h-1.9v118.6h-73.9V2301.8z"/>
	<path class="st13" d="M1022.6,2459.3v-328.6h46.7l105,167.2c25.3,38.9,42.8,73.9,58.3,107h1.9c-3.9-44.7-5.8-83.6-5.8-136.1v-138.1
		h40.8v328.6h-42.8L1123.7,2292c-23.3-36.9-44.7-73.9-62.2-110.8h-1.9c1.9,40.8,3.9,81.7,3.9,136.1v140h-40.8V2459.3z"/>
	<path class="st13" d="M1489.3,2319.3c0-27.2-11.7-70-60.3-70c-42.8,0-62.2,40.8-66.1,70H1489.3z M1362.9,2350.4
		c1.9,58.3,38.9,81.7,81.7,81.7c31.1,0,48.6-5.8,66.1-11.7l7.8,31.1c-15.6,7.8-40.8,15.6-77.8,15.6c-72,0-116.7-48.6-116.7-118.6
		c0-72,42.8-128.3,110.8-128.3c77.8,0,97.2,68.1,97.2,110.8c0,9.7-1.9,15.6-1.9,19.4C1530.1,2350.4,1362.9,2350.4,1362.9,2350.4z"/>
	<path class="st13" d="M1629.3,2155.9v68.1h62.2v33.1h-62.2v128.3c0,29.2,7.8,46.7,33.1,46.7c11.7,0,19.4-1.9,25.3-3.9l1.9,33.1
		c-7.8,3.9-21.4,5.8-38.9,5.8c-19.4,0-36.9-5.8-46.7-17.5c-11.7-13.6-17.5-33.1-17.5-62.2V2259h-36.9v-35h36.9v-56.4L1629.3,2155.9z
		"/>
	<path class="st13" d="M1860.7,2338.7c-46.7-1.9-101.1,7.8-101.1,52.5c0,27.2,19.4,40.8,40.8,40.8c31.1,0,50.6-19.4,56.4-38.9
		c1.9-3.9,1.9-9.7,1.9-13.6v-40.8H1860.7z M1866.6,2459.3l-3.9-29.2h-1.9c-13.6,19.4-38.9,35-72,35c-48.6,0-72-33.1-72-68.1
		c0-56.4,50.6-87.5,142-87.5v-5.8c0-19.4-5.8-54.5-54.5-54.5c-21.4,0-44.7,7.8-62.2,17.5l-9.7-29.2c19.4-13.6,48.6-21.4,77.8-21.4
		c72,0,89.5,48.6,89.5,97.2v87.5c0,21.4,1.9,40.8,3.9,56.4h-36.9V2459.3z"/>
</g>
<g>
	<polygon class="st15" points="1005.1,726.8 1357.5,935 1357.5,935 1709.9,726.8 1533.7,630.7 1357.5,526.6 1357.5,526.6 
		1181.3,630.7 	"/>
	<polygon class="st16" points="1357.5,935 1357.5,1343.5 1533.7,1239.4 1709.9,1135.3 1709.9,1135.3 1709.9,935 1709.9,726.8 	"/>
	<polygon class="st17" points="300.2,734.8 652.7,935 652.7,935 1005.1,734.8 828.9,630.7 652.7,526.6 652.7,526.6 476.5,630.7 	"/>
	<polygon class="st18" points="652.7,935 1005.1,1135.3 1005.1,1135.3 1357.5,935 1181.3,830.9 1005.1,726.8 1005.1,726.8 
		828.9,830.9 	"/>
	<polygon class="st19" points="1005.1,1135.3 652.7,935 652.7,1135.3 652.7,1343.5 652.7,1343.5 828.9,1439.6 1005.1,1543.8 
		1005.1,1543.8 	"/>
	<polygon class="st17" points="292.2,726.8 652.7,935 652.7,935 1005.1,726.8 828.9,630.7 652.7,526.6 652.7,526.6 476.5,630.7 	"/>
	<polygon class="st20" points="652.7,935 292.2,726.8 292.2,935 292.2,1135.3 292.2,1135.3 476.5,1239.4 652.7,1343.5 652.7,1343.5 
			"/>
	<polygon class="st21" points="1005.1,1135.3 1005.1,1543.8 1181.3,1439.6 1357.5,1343.5 1357.5,1343.5 1357.5,1135.3 1357.5,935 	
		"/>
	<polygon class="st22" points="1005.1,1543.8 652.7,1343.5 652.7,1543.8 652.7,1752 652.7,1752 828.9,1848.1 1005.1,1952.2 
		1005.1,1952.2 	"/>
	<polygon class="st23" points="1005.1,1543.8 1005.1,1952.2 1181.3,1848.1 1357.5,1752 1357.5,1752 1357.5,1543.8 1357.5,1343.5 	
		"/>
	<polygon class="st24" points="788.8,166.1 1005.1,294.3 1005.1,294.3 1221.3,166.1 1109.2,102.1 1005.1,46 1005.1,46 892.9,102.1 	
		"/>
	<polygon class="st25" points="1005.1,294.3 788.8,166.1 788.8,294.3 788.8,414.4 788.8,414.4 892.9,478.5 1005.1,542.6 
		1005.1,542.6 	"/>
	<polygon class="st26" points="1005.1,294.3 1005.1,542.6 1109.2,478.5 1221.3,414.4 1221.3,414.4 1221.3,294.3 1221.3,166.1 	"/>
	<polygon class="st27" points="276.2,1808.1 276.2,1551.8 276.2,1551.8 60,1431.6 60,1551.8 60,1679.9 60,1679.9 164.1,1744 	"/>
	<polygon class="st28" points="276.2,1551.8 276.2,1808.1 380.3,1744 492.5,1679.9 492.5,1679.9 492.5,1551.8 492.5,1431.6 
		492.5,1431.6 	"/>
	<polygon class="st29" points="276.2,1551.8 492.5,1431.6 380.3,1367.6 276.2,1303.5 276.2,1303.5 164.1,1367.6 60,1431.6 	"/>
	<polygon class="st30" points="1950.2,1431.6 1733.9,1551.8 1733.9,1551.8 1733.9,1808.1 1838.1,1744 1950.2,1679.9 1950.2,1679.9 
		1950.2,1551.8 	"/>
	<polygon class="st31" points="1733.9,1551.8 1950.2,1431.6 1838.1,1367.6 1733.9,1303.5 1733.9,1303.5 1621.8,1367.6 
		1517.7,1431.6 1517.7,1431.6 	"/>
	<polygon class="st32" points="1733.9,1551.8 1517.7,1431.6 1517.7,1551.8 1517.7,1679.9 1517.7,1679.9 1621.8,1744 1733.9,1808.1 	
		"/>
</g>
</svg>
