<svg xmlns="http://www.w3.org/2000/svg" role="img" xmlns:xlink="http://www.w3.org/1999/xlink" viewBox="0.01 -3.99 467.48 153.98"><title>Aqua logo</title><style>svg {enable-background:new 0 0 466.5 148.5}</style><defs><path id="a" d="M-7-14.6h490.4v176H-7z"/></defs><clipPath id="b"><use overflow="visible" xlink:href="#a"/></clipPath><path fill="#f1df36" d="M78.6 5.4l-34.8 34h69.6v-34z" clip-path="url(#b)"/><path fill="#faaf42" d="M113.4 107.4l34.8-34v-34h-34.8z" clip-path="url(#b)"/><path fill="#9ad7ec" d="M43.8 107.4v34h34.8l34.8-34z" clip-path="url(#b)"/><path fill="#07b1d5" d="M9 73.4v34h34.8v-68z" clip-path="url(#b)"/><path fill="#f69421" d="M113.4 5.4h34.8v34h-34.8z" clip-path="url(#b)"/><path fill="#1280c4" d="M9 107.4h34.8v34H9z" clip-path="url(#b)"/><g clip-path="url(#b)"><defs><path id="c" d="M-7-14.6h490.4v176H-7z"/></defs><clipPath id="d"><use overflow="visible" xlink:href="#c"/></clipPath><path fill="#464547" d="M232.9 36.9c-2.9-2.2-6.2-3.7-9.8-4.5-3.5-.8-7.9-1.2-12.9-1.2-4.2 0-8.5.4-12.7 1.2-4.2.8-7.5 1.5-9.8 2.2l-1.1.3v15h2.5l.3-.1c3.7-1.6 7.5-2.8 11.2-3.6 3.7-.8 6.9-1.2 9.6-1.2 2.3 0 4.6.2 6.7.5 2 .3 3.8.9 5.1 1.8 1.3.8 2.3 1.9 3.1 3.4.8 1.5 1.1 3.6 1.1 6.3v.9c-5.9.3-11.5.9-16.6 1.5-5.7.7-10.7 2.1-14.8 4-4.9 2.2-8.5 5.2-10.7 9-2.3 3.7-3.4 8.3-3.4 13.6 0 3.4.6 6.7 1.9 9.8 1.2 3.1 2.9 5.7 5 7.9 2.2 2.2 4.7 3.9 7.6 5.1 2.9 1.2 5.9 1.8 9.1 1.8 3.8 0 6.7-.3 8.9-1 2.1-.6 4.3-1.5 6.5-2.7 1.6-.8 3.4-1.9 5.1-3.3.6-.4 1.1-.9 1.6-1.2v6.2h15.1V57.3c0-4.7-.7-8.8-2.1-12.1-1.5-3.4-3.6-6.2-6.5-8.3m-6.7 33.7v17.8c-2.5 2.1-5.2 4-8 5.5-2.9 1.5-6.2 2.3-9.7 2.3-4.1 0-7.2-.9-9.3-2.8-2-1.8-3-4.6-3-8.3 0-3.3.9-5.7 2.7-7.5 1.9-1.9 4.4-3.3 7.4-4.2 2.6-.8 6.2-1.4 10.5-1.9 3.7-.3 6.8-.6 9.4-.9m73.5-35.3c-2.3-1.3-4.7-2.3-6.9-3-2.9-.9-6.3-1.4-10.1-1.4-4.2 0-8.3.9-12.3 2.7-3.9 1.8-7.3 4.4-10.1 7.7-2.9 3.4-5.3 7.6-7.1 12.5-1.8 4.9-2.7 10.7-2.7 17 0 12.1 2.6 21.6 7.6 28.5 5.2 7 12.2 10.5 20.9 10.5 4.3 0 8.3-.8 11.8-2.4 2.7-1.2 5.5-2.9 8.3-5.2v32.9h15.2V32.9h-14.1l-.5 2.4zM292 45.8c2.1.5 4.5 1.4 7.1 2.7v39.7c-2.5 2.1-5.2 3.8-8.1 5.1-3 1.4-6.2 2.1-9.4 2.1-5.3 0-9.1-2-11.6-6.1-2.6-4.3-3.9-10.6-3.9-18.8 0-8.3 1.6-14.8 4.9-19.1 3.2-4.3 7.6-6.3 13.6-6.3 2.7-.2 5.2.1 7.4.7m81.3 42.1c-2.6 2.2-5.4 4.1-8.5 5.6-3.1 1.6-6.1 2.4-8.9 2.4-3 0-5.2-.4-6.7-1.1-1.4-.7-2.6-1.9-3.4-3.4-.9-1.7-1.5-3.8-1.8-6.1-.3-2.5-.4-5.6-.4-9.4v-43h-15.2v48.6c0 5 .6 9.4 1.8 12.9 1.2 3.6 2.9 6.7 5.2 9 2.2 2.4 4.9 4.2 7.9 5.3 2.9 1.1 6.1 1.7 9.5 1.7 4.4 0 8.4-.9 12-2.7 2.7-1.4 5.6-3.3 8.5-5.6v6.3h15.2V32.9h-15.2v55zm83.5-42.7c-1.4-3.4-3.5-6.2-6.4-8.4-2.9-2.2-6.2-3.7-9.8-4.5-3.5-.8-7.9-1.2-12.9-1.2-4.2 0-8.5.4-12.7 1.2-4.2.8-7.5 1.5-9.8 2.2l-1.1.3v15h2.5l.3-.1c3.7-1.6 7.5-2.8 11.2-3.6 3.7-.8 6.9-1.2 9.6-1.2 2.3 0 4.6.2 6.7.5 2 .3 3.8.9 5.1 1.8 1.3.8 2.3 1.9 3.1 3.4.8 1.5 1.1 3.6 1.1 6.3v.9c-5.9.3-11.5.9-16.6 1.5-5.7.7-10.7 2.1-14.8 4-4.9 2.2-8.5 5.2-10.7 9-2.3 3.7-3.4 8.3-3.4 13.6 0 3.4.6 6.7 1.9 9.8 1.2 3.1 2.9 5.7 5 7.9 2.2 2.2 4.7 3.9 7.6 5.1 2.9 1.2 5.9 1.8 9.1 1.8 3.8 0 6.7-.3 8.9-1 2.1-.6 4.3-1.5 6.5-2.7 1.6-.8 3.4-1.9 5.1-3.3.6-.4 1.1-.9 1.6-1.2v6.2H459V57.3c-.1-4.7-.8-8.7-2.2-12.1m-13.1 25.4v17.8c-2.5 2.1-5.2 4-8 5.5-2.9 1.5-6.2 2.3-9.7 2.3-4.1 0-7.2-.9-9.3-2.8-2-1.8-3-4.6-3-8.3 0-3.3.9-5.7 2.7-7.5 1.9-1.9 4.4-3.3 7.4-4.2 2.6-.8 6.2-1.4 10.5-1.9 3.6-.3 6.8-.6 9.4-.9" clip-path="url(#d)"/></g></svg>