<?xml version="1.0" encoding="UTF-8" standalone="yes"?>
<svg version="1.1" id="Layer_1" xmlns="http://www.w3.org/2000/svg" xmlns:xlink="http://www.w3.org/1999/xlink" x="0px" y="0px" viewBox="12 9 792 129" style="enable-background:new 0 0 813 148.5;" xml:space="preserve">
  <style type="text/css">
	.st0{fill:#4A8FE1;}
	.st1{fill:#FEFEFE;}
	.st2{fill:#716F73;}
	.st3{fill:#4D8951;}
	.st4{fill:#A6D3EA;}
	.st5{fill:#3A3868;}
	.st6{fill:#717073;}
	.st7{fill:#1B995A;}
	.st8{fill:#717B83;}
	.st9{fill:#2BA3A4;}
	.st10{fill:#717074;}
	.st11{fill:#717173;}
	.st12{fill:#707B83;}
	.st13{fill:#67A3D1;}
	.st14{fill:#2B5B68;}
	.st15{fill:#B9DCF3;}
	.st16{fill:#2A4B38;}
	.st17{fill:#83939F;}
	.st18{fill:#9DCCE8;}
	.st19{fill:#85939C;}
	.st20{fill:#82929C;}
	.st21{fill:#40A6D5;}
	.st22{fill:#2B4B39;}
	.st23{fill:#28493A;}
	.st24{fill:#2EA3A7;}
	.st25{fill:#F8FCFC;}
	.st26{fill:#568F52;}
	.st27{fill:#94C453;}
	.st28{fill:#206289;}
	.st29{fill:#F1FBFD;}
	.st30{fill:#F6FDFE;}
	.st31{fill:#F8FCFB;}
	.st32{fill:#FAFDFB;}
	.st33{fill:#F4FCFD;}
	.st34{fill:#65AC62;}
	.st35{fill:#F8FAF3;}
	.st36{fill:#5EAD5A;}
	.st37{fill:#F6FCFA;}
	.st38{fill:#85C5B8;}
	.st39{fill:#3CA0D5;}
	.st40{fill:#727A80;}
	.st41{fill:#F6FCFD;}
	.st42{fill:#FEFEFA;}
	.st43{fill:#459ED2;}
	.st44{fill:#5DAE5B;}
	.st45{fill:#5E7F47;}
	.st46{fill:#FCFCFC;}
	.st47{fill:#C1DBED;}
	.st48{fill:#FBFDF8;}
	.st49{fill:#EBF5F7;}
	.st50{fill:#294949;}
	.st51{fill:#8FC8E5;}
	.st52{fill:#F7FCFC;}
	.st53{fill:#FCFEFA;}
	.st54{fill:#4E8A56;}
	.st55{fill:#64BDE8;}
	.st56{fill:#FEFDFA;}
	.st57{fill:#FBFDFC;}
	.st58{fill:#449DD5;}
	.st59{fill:#F6FBF7;}
	.st60{fill:#279A5B;}
	.st61{fill:#30493D;}
	.st62{fill:#F5FBF9;}
	.st63{fill:#35583B;}
	.st64{fill:#323C62;}
	.st65{fill:#F8FBF9;}
	.st66{fill:#E7EFF2;}
	.st67{fill:#8DC1B6;}
	.st68{fill:#FAFCFA;}
	.st69{fill:#F1FBF9;}
	.st70{fill:#F7FEFE;}
	.st71{fill:#FDFEFA;}
	.st72{fill:#31A1A1;}
	.st73{fill:#F9FEFD;}
	.st74{fill:#FAFAFC;}
	.st75{fill:#FDFCF8;}
	.st76{fill:#2D5C60;}
	.st77{fill:#FDFCF9;}
	.st78{fill:#F9FDFB;}
	.st79{fill:#FBFBFB;}
	.st80{fill:#518B58;}
	.st81{fill:#5A82AF;}
	.st82{fill:#FDFEF8;}
	.st83{fill:#244C40;}
	.st84{fill:#266495;}
	.st85{fill:#42A0D3;}
	.st86{fill:#5B80A9;}
	.st87{fill:#2E5B63;}
	.st88{fill:#FDFBF9;}
	.st89{fill:#F8FDFB;}
	.st90{fill:#FDFDF7;}
	.st91{fill:#F3F9FB;}
	.st92{fill:#309F96;}
	.st93{fill:#93C367;}
	.st94{fill:#3B3C68;}
	.st95{fill:#E0F1F9;}
	.st96{fill:#E4F6F9;}
	.st97{fill:#FEFEF9;}
	.st98{fill:#224C38;}
	.st99{fill:#498AB2;}
	.st100{fill:#FDFDF9;}
	.st101{fill:#F9FEFE;}
	.st102{fill:#F6FCF2;}
	.st103{fill:#FEFCF9;}
	.st104{fill:#EEFCFE;}
	.st105{fill:#FDFDF8;}
	.st106{fill:#FBFDFA;}
	.st107{fill:#275962;}
	.st108{fill:#FDFEF9;}
	.st109{fill:#F2F8F2;}
	.st110{fill:#F8FBFB;}
	.st111{fill:#8A8A8A;}
	.st112{fill:#F7FEFD;}
	.st113{fill:#EFF8FB;}
	.st114{fill:#FAFCFB;}
	.st115{fill:#E5F3F8;}
	.st116{fill:#ECF7FA;}
	.st117{fill:#FDFDF6;}
	.st118{fill:#F5FDFD;}
	.st119{fill:#7799BF;}
	.st120{fill:#5C8055;}
	.st121{fill:#6EAECC;}
	.st122{fill:#FEFEF7;}
	.st123{fill:#3282B5;}
	.st124{fill:#F3FCF5;}
	.st125{fill:#F4FAFB;}
	.st126{fill:#FEF8FA;}
	.st127{fill:#F5FCF9;}
	.st128{fill:#3C9392;}
	.st129{fill:#EBF6F6;}
	.st130{fill:#98BFD6;}
	.st131{fill:#FEFDF7;}
	.st132{fill:#658796;}
	.st133{fill:#EEF7F6;}
	.st134{fill:#FAFBF5;}
	.st135{fill:#F8FCF9;}
	.st136{fill:#FDFDF4;}
	.st137{fill:#FDFBF8;}
	.st138{fill:#FDFDF5;}
	.st139{fill:#EFF9FD;}
	.st140{fill:#FDFEF6;}
	.st141{fill:#37586D;}
	.st142{fill:#FDFEF5;}
	.st143{fill:#FDFBF6;}
	.st144{fill:#324A49;}
	.st145{fill:#F8F8F9;}
	.st146{fill:#CDF5CD;}
	.st147{fill:#FEFDF3;}
	.st148{fill:#ECFBFE;}
	.st149{fill:#858585;}
	.st150{fill:#C5C5C5;}
	.st151{fill:#6C6C6C;}
	.st152{fill:#498B4F;}
	.st153{fill:#478A4D;}
	.st154{fill:#4A884D;}
	.st155{fill:#429169;}
	.st156{fill:#3CA29D;}
	.st157{fill:#518654;}
	.st158{fill:#51855F;}
	.st159{fill:#289FA0;}
	.st160{fill:#448E49;}
	.st161{fill:#458B55;}
	.st162{fill:#568356;}
	.st163{fill:#89C9ED;}
	.st164{fill:#246081;}
	.st165{fill:#206186;}
	.st166{fill:#8EC8E9;}
	.st167{fill:#2B5D7D;}
	.st168{fill:#215F80;}
	.st169{fill:#A0D4EF;}
	.st170{fill:#A4D3F2;}
	.st171{fill:#245E84;}
	.st172{fill:#69BADA;}
	.st173{fill:#9AC9D1;}
	.st174{fill:#9AC7DD;}
	.st175{fill:#3B396C;}
	.st176{fill:#3A376D;}
	.st177{fill:#3D366C;}
	.st178{fill:#6A9BC9;}
	.st179{fill:#57B156;}
	.st180{fill:#2A9762;}
	.st181{fill:#139C59;}
	.st182{fill:#169A5E;}
	.st183{fill:#139C5D;}
	.st184{fill:#129652;}
	.st185{fill:#61839B;}
	.st186{fill:#637F92;}
	.st187{fill:#289193;}
	.st188{fill:#288F8D;}
	.st189{fill:#34A3A8;}
	.st190{fill:#23A7A5;}
	.st191{fill:#36A2A8;}
	.st192{fill:#32A1A0;}
	.st193{fill:#23A7A2;}
	.st194{fill:#249A96;}
	.st195{fill:#FCFCFD;}
	.st196{fill:#FDFDFD;}
	.st197{fill:#6B7B8C;}
	.st198{fill:#4C84B0;}
	.st199{fill:#4F81BA;}
	.st200{fill:#5280B6;}
	.st201{fill:#6CA1CE;}
	.st202{fill:#6CA0CF;}
	.st203{fill:#7AA4CC;}
	.st204{fill:#71A3D5;}
	.st205{fill:#6AA3C9;}
	.st206{fill:#6EA5D6;}
	.st207{fill:#6C97B9;}
	.st208{fill:#4F6684;}
	.st209{fill:#2D5D62;}
	.st210{fill:#275C5E;}
	.st211{fill:#2B5859;}
	.st212{fill:#285C5E;}
	.st213{fill:#9FCCE5;}
	.st214{fill:#BCDBEF;}
	.st215{fill:#B5DDF9;}
	.st216{fill:#234D37;}
	.st217{fill:#2E483A;}
	.st218{fill:#8294A2;}
	.st219{fill:#256286;}
	.st220{fill:#8095A3;}
	.st221{fill:#3FA6DA;}
	.st222{fill:#62BEEC;}
	.st223{fill:#40A7D6;}
	.st224{fill:#43A3DF;}
	.st225{fill:#274C3B;}
	.st226{fill:#4C9FC8;}
	.st227{fill:#234D32;}
	.st228{fill:#2C473D;}
	.st229{fill:#27572D;}
	.st230{fill:#2D473F;}
	.st231{fill:#22A69E;}
	.st232{fill:#22A1A1;}
	.st233{fill:#378E8D;}
	.st234{fill:#268C8A;}
	.st235{fill:#40817E;}
	.st236{fill:#528E4D;}
	.st237{fill:#94C15C;}
	.st238{fill:#518D4F;}
	.st239{fill:#4B954A;}
	.st240{fill:#95C350;}
	.st241{fill:#93C451;}
	.st242{fill:#90C147;}
	.st243{fill:#90B254;}
	.st244{fill:#1A6292;}
	.st245{fill:#2F82B5;}
	.st246{fill:#3FA7DA;}
	.st247{fill:#43A5D7;}
	.st248{fill:#51ADD8;}
	.st249{fill:#57B0E2;}
	.st250{fill:#4C95B8;}
	.st251{fill:#7BC2EB;}
	.st252{fill:#7BC2E8;}
	.st253{fill:#439DCE;}
	.st254{fill:#1A66A0;}
	.st255{fill:#429FD0;}
	.st256{fill:#22669E;}
	.st257{fill:#42A1D2;}
	.st258{fill:#42A6D7;}
	.st259{fill:#4EA6CD;}
	.st260{fill:#90B15F;}
	.st261{fill:#5EAF59;}
	.st262{fill:#1568A3;}
	.st263{fill:#44A4D8;}
	.st264{fill:#2D5F86;}
	.st265{fill:#82C6B7;}
	.st266{fill:#93C6B3;}
	.st267{fill:#81C7BD;}
	.st268{fill:#8CC3BB;}
	.st269{fill:#3EA0D1;}
	.st270{fill:#429ED2;}
	.st271{fill:#449DD7;}
	.st272{fill:#3AA1DA;}
	.st273{fill:#3D9FD7;}
	.st274{fill:#439DD3;}
	.st275{fill:#69A46E;}
	.st276{fill:#74B273;}
	.st277{fill:#58AB52;}
	.st278{fill:#325946;}
	.st279{fill:#214A49;}
	.st280{fill:#244B3F;}
	.st281{fill:#3181B4;}
	.st282{fill:#1DA3A4;}
	.st283{fill:#346E9F;}
	.st284{fill:#869197;}
	.st285{fill:#53B0EA;}
	.st286{fill:#5181C0;}
	.st287{fill:#1767A6;}
	.st288{fill:#3F9FD5;}
	.st289{fill:#399291;}
	.st290{fill:#27A2A7;}
	.st291{fill:#81969C;}
	.st292{fill:#46A4D7;}
	.st293{fill:#C7DCB8;}
	.st294{fill:#B5B5B5;}
	.st295{fill:#4F9A83;}
	.st296{fill:#63BDE8;}
	.st297{fill:#95C3E7;}
	.st298{fill:#1D618B;}
	.st299{fill:#1D6286;}
	.st300{fill:#3181B5;}
	.st301{fill:#249190;}
	.st302{fill:#2C9096;}
	.st303{fill:#23918E;}
	.st304{fill:#2E939A;}
	.st305{fill:#469DD6;}
	.st306{fill:#40A0D2;}
	.st307{fill:#4B82C0;}
	.st308{fill:#809398;}
	.st309{fill:#69BCE2;}
	.st310{fill:#5BBFEB;}
	.st311{fill:#5DBEF5;}
	.st312{fill:#42A6D8;}
	.st313{fill:#39A4DC;}
	.st314{fill:#94C356;}
	.st315{fill:#95C446;}
	.st316{fill:#2B83B5;}
	.st317{fill:#2A83B8;}
	.st318{fill:#3EA7DE;}
	.st319{fill:#37A8DF;}
	.st320{fill:#7CC9F7;}
	.st321{fill:#1568A7;}
	.st322{fill:#3EA7DD;}
	.st323{fill:#3AA9DA;}
	.st324{fill:#55B0E2;}
	.st325{fill:#5FAF60;}
	.st326{fill:#16639A;}
	.st327{fill:#16689E;}
	.st328{fill:#419FCE;}
	.st329{fill:#216186;}
	.st330{fill:#21607D;}
	.st331{fill:#3BA7DD;}
	.st332{fill:#6E408A;}
	.st333{fill:#3A3A3C;}
	.st334{fill:none;}
	.st335{fill:#44546A;}
	.st336{fill:#E67C0C;}
	.st337{fill:#922A50;}
	.st338{fill:#E67C0D;}
	.st339{fill:#4471CD;}
	.st340{fill:#922B50;}
	.st341{fill:#45556B;}
	.st342{fill:#922B51;}
	.st343{fill:#4571CD;}
	.st344{fill:#46556B;}
	.st345{fill:#45556A;}
	.st346{fill:#F0B272;}
	.st347{fill:#1D94D2;}
	.st348{fill:#3C3F3F;}
	.st349{fill:#080809;}
	.st350{fill:#048DC9;}
	.st351{fill:#7496A2;}
	.st352{fill:#9DAAC1;}
	.st353{fill:#868689;}
	.st354{fill:#052C50;}
	.st355{fill:#101214;}
	.st356{fill:#191C1E;}
	.st357{fill:#242C35;}
	.st358{fill:#343C42;}
	.st359{fill:#343B44;}
	.st360{fill:#3D4A5B;}
	.st361{fill:#73AAFE;}
	.st362{fill:#4CCAFE;}
	.st363{fill:#CFE1FD;}
	.st364{fill:#87DCFE;}
	.st365{fill:#0090CC;}
	.st366{fill:#008FCC;}
	.st367{fill:none;stroke:#407DCC;stroke-width:0;stroke-linecap:round;stroke-linejoin:round;}
	.st368{fill:#407DCC;}
	.st369{fill:#15191E;}
	.st370{fill:#10191F;}
	.st371{fill:#12161B;}
	.st372{fill:#0E181E;}
	.st373{fill:#121D24;}
	.st374{fill:#3F7BC7;}
	.st375{fill:#222932;}
	.st376{fill:#22404E;}
	.st377{fill:#202831;}
	.st378{fill:#010101;}
	.st379{fill:#161A1F;}
	.st380{fill:#323C47;}
	.st381{fill:#303B48;}
	.st382{fill:#14181B;}
	.st383{fill:#353F4A;}
	.st384{fill:#194691;}
	.st385{fill:#164C96;}
	.st386{fill:#184893;}
	.st387{fill:#174A94;}
	.st388{fill:#184792;}
	.st389{fill:#184892;}
	.st390{fill:#0090CD;}
	.st391{fill:#018CCA;}
	.st392{fill:#FDBB87;}
	.st393{fill:#FE9545;}
	.st394{fill:#FE8B00;}
	.st395{fill:#DC5900;}
	.st396{fill:#DE6D45;}
	.st397{fill:#292925;}
	.st398{fill:#63A1BF;}
	.st399{fill:#61A1BF;}
	.st400{fill:#8DC53F;}
	.st401{fill:#8EC642;}
	.st402{fill:#61853A;}
	.st403{fill:#424243;}
	.st404{fill:#8EC641;}
	.st405{fill:#8DC640;}
	.st406{fill:#414142;}
	.st407{fill:#94C94C;}
	.st408{fill:#4C4C4D;}
	.st409{fill:#62863C;}
	.st410{fill:#8DC540;}
	.st411{fill:#577138;}
	.st412{fill:#A2B24F;}
	.st413{fill:#DCDF72;}
	.st414{fill:#5E3108;}
</style>
  <g>
    <path class="st411" d="M785.5,62.6c0.7-0.5,1.2-0.8,1.7-1.1c14-7.1,12.6-27.8,2.4-35.3c-7.3-5.4-15.6-7-24.4-7.1&#xA;&#x9;&#x9;c-13-0.1-26,0.1-38.9-0.1c-2.9,0-3.8,0.7-3.7,3.7c0.2,7.4,0.1,7.4,7.2,8.8c1.7,0.3,2.7,0.8,2.7,2.9c-0.1,20.1-0.1,40.3,0,60.4&#xA;&#x9;&#x9;c0,1.8-0.6,2.6-2.4,2.9c-2.5,0.5-5.9-0.3-7.1,1.9c-1.1,2-0.3,5-0.4,7.6c0,0.1,0,0.2,0,0.3c-0.4,2.1,0.7,2.6,2.7,2.6&#xA;&#x9;&#x9;c14.8-0.1,29.5,0.1,44.3-0.1c8-0.1,16-1.4,22.4-6.6C806.3,92,803,70.1,785.5,62.6z M752.7,33.3c5.8,0.3,11.6-0.6,17.4,0.8&#xA;&#x9;&#x9;c5.7,1.3,8.9,5.1,9,10.9c0.1,5.9-3,10.2-8.7,11.4c-6,1.3-12,0.4-18.1,0.6c-1.5,0-1.4-1.1-1.4-2.1c0-3.2,0-6.5,0-9.7&#xA;&#x9;&#x9;c0-3.2,0-6.5,0-9.7C750.8,34.1,751.1,33.3,752.7,33.3z M772.7,95.3c-6.7,1.2-13.6,0.3-20.4,0.5c-1.5,0-1.4-1.1-1.4-2.1&#xA;&#x9;&#x9;c0-3.6,0-7.1,0-10.7c0-3.7,0.1-7.4,0-11.1c0-1.6,0.5-2.2,2.1-2.2c6.2,0.2,12.5-0.4,18.7,0.3c6.8,0.8,10.4,5.1,10.7,12.3&#xA;&#x9;&#x9;C782.6,89.9,779.6,94.1,772.7,95.3z"/>
    <path class="st411" d="M680.1,19.1c-12.5,0-25.1,0.1-37.6-0.1c-3.1,0-4.3,0.6-4.1,4c0.3,7.1,0.1,7.2,7.2,8.5c1.8,0.3,2.6,0.9,2.6,3&#xA;&#x9;&#x9;c-0.1,20.1-0.1,40.3,0,60.4c0,1.8-0.6,2.5-2.4,2.9c-7.4,1.4-7.3,1.5-7.4,9c0,2.5,0.5,3.5,3.3,3.4c6.9-0.2,13.9-0.1,20.8-0.1&#xA;&#x9;&#x9;c6,0,12.1,0.1,18.1,0c18.3-0.3,32.2-11.2,36.3-28.9c1.9-8.2,1-16.5,0.9-24.8C717.7,34.8,701.8,19.2,680.1,19.1z M699,77.2&#xA;&#x9;&#x9;c-1.1,10.3-8.4,19.2-20.6,18.7c-2.9-0.1-5.8-0.2-8.7,0c-2.3,0.1-3.1-0.5-3-2.9c0.1-9.5,0.1-19,0.1-28.5c0-9.4,0.1-18.8-0.1-28.2&#xA;&#x9;&#x9;c0-2.4,0.7-3.1,3-2.9c2.9,0.2,5.8,0,8.7,0c11.3,0.1,19.7,7.4,20.7,18.7C699.8,60.4,699.8,68.9,699,77.2z"/>
    <path class="st412" d="M562.1,43.2c0.2-1.7-0.6-2.3-2.3-2.3c-6.9,0.1-13.9,0.1-20.8,0c-2,0-2.8,0.8-3,2.7c-0.2,2.1-0.6,4.1-0.9,6.1&#xA;&#x9;&#x9;c-0.9,0.1-1.2-0.4-1.5-0.8c-9.2-12.3-30.3-9.3-37.3,5.1c-6.6,13.5-7.1,27.3-2.2,41.3c2.9,8.2,8.8,14.1,17.7,15.7&#xA;&#x9;&#x9;c8.1,1.5,15.6,0.3,21.9-6.9c0,2.7,0.1,4.5,0,6.3c-0.8,8.9-5.6,13.1-14.6,13c-2.7,0-5.3-0.8-7.9-1.2c-3-0.5-6.4-3.8-8.7-1.6&#xA;&#x9;&#x9;c-2,1.9-1.9,6-2.8,9.1c-0.6,2,0.1,3,2,3.8c8.7,3.5,17.6,4.7,26.9,3.3c11.6-1.7,20.8-10.3,22.8-21.8c1.4-7.8,0.5-15.6,0.6-23.4&#xA;&#x9;&#x9;c0.1-11.5,0-23,0-34.5c0-1.6-0.2-3,2.1-3.4c7.9-1.5,7.9-1.6,7.7-9.7C562.1,43.6,562.1,43.4,562.1,43.2z M530.1,95&#xA;&#x9;&#x9;c-8,4.9-17.1,1.7-19.3-7.3c-2.2-8.9-2.2-18,2-26.5c2-4.1,5.6-5.7,9.9-5.6c4.6,0.1,8.5,1.8,10.9,6c0.4,0.7,0.3,1.7,0.4,2.6&#xA;&#x9;&#x9;c0,4.1,0,8.3,0,12.4c0,3.9-0.2,7.8,0.1,11.7C534.3,91.6,532.6,93.5,530.1,95z"/>
    <path class="st412" d="M276.7,98.5c-2.4,0.1-3.4-1-4.2-3.3c-8.5-24.6-17.1-49.1-25.6-73.7c-0.6-1.8-1.4-2.5-3.3-2.4&#xA;&#x9;&#x9;c-4.6,0.1-9.2,0.1-13.8,0c-1.9,0-2.7,0.6-3.4,2.4c-3.9,11.4-8,22.7-12,34.1c-4.7,13.4-9.4,26.8-14,40.1c-0.4,1.3-0.8,2.4-2.5,2.7&#xA;&#x9;&#x9;c-5,0.8-4.9,0.9-4.9,5.8c0,0.9,0.1,1.8,0,2.7c-0.3,2.5,0.6,3.3,3.1,3.2c6.8-0.2,13.6-0.1,20.5-0.1c7.5,0,7.4,0,7.6-7.6&#xA;&#x9;&#x9;c0.1-2.8-0.6-4.3-3.6-4.1c-1.9,0.1-2.7-0.6-2-2.6c1.6-4.7,3.2-9.5,4.7-14.3c0.4-1.4,1.2-1.9,2.7-1.9c7,0.1,14.1,0.1,21.1,0&#xA;&#x9;&#x9;c1.7,0,2.3,0.6,2.8,2.1c1.5,4.8,3.1,9.6,4.7,14.3c0.4,1.2,0.5,2.4-1.2,2.3c-4.4-0.3-4.9,2.2-4.6,5.6c0.1,1.2,0.1,2.5,0,3.7&#xA;&#x9;&#x9;c-0.2,1.9,0.7,2.5,2.6,2.5c4.4-0.1,8.7,0,13.1,0c2.7,0,5.4,0,8,0c7.7,0,7.6,0,7.7-7.7C280.3,99.6,279.4,98.3,276.7,98.5z&#xA;&#x9;&#x9; M242.8,66.1c-4.1,0-8.2,0-12.4,0c-1.6,0-2.2-0.5-1.7-2.2c2.5-7.6,4.9-15.2,7.4-22.8c0.3,0,0.5,0,0.8-0.1&#xA;&#x9;&#x9;c2.4,7.7,4.9,15.4,7.4,23.1C244.9,65.7,244.3,66.2,242.8,66.1z"/>
    <path class="st412" d="M481.1,98.2c-4.8-0.6-4.7-0.8-4.8-5.8c-0.2-10.8,0.8-21.7-0.7-32.5c-2.1-15.6-16.8-23.2-31-16.5&#xA;&#x9;&#x9;c-3.6,1.7-6.1,4.7-9,7.3c-1.1-1.6-0.9-3.3-0.9-4.8c0.1-2.8-1-3.6-3.8-3.5c-6.7,0.2-13.4,0.2-20.1,0c-2.8-0.1-3.6,0.7-3.6,3.5&#xA;&#x9;&#x9;c0.1,7.3,0,7.4,7,8.8c2.1,0.4,3,1.1,3,3.5c-0.1,12.1-0.1,24.2,0,36.2c0,2-0.5,3-2.7,3.4c-6.1,1.2-6.1,1.3-6.1,7.7&#xA;&#x9;&#x9;c0,0.6,0.1,1.1,0,1.7c-0.3,2.2,0.6,2.9,2.8,2.8c8.3-0.1,16.5,0,24.8,0c6.8,0,6.6,0,6.9-6.9c0.1-3.3-0.8-5.1-4.2-5.2&#xA;&#x9;&#x9;c-2.7,0-3.2-1.4-3.2-3.9c0.1-10.2,0-20.3,0.1-30.5c0-1-0.1-2,0.4-2.9c1.9-3.4,8.6-5.9,13.5-4.9c5,1,7.6,3.8,8.1,8.9&#xA;&#x9;&#x9;c1,10.1,0.2,20.3,0.5,30.5c0.1,2-1,2.4-2.6,2.7c-5.5,1.3-5.5,1.3-5.5,7.1c0,0.8,0.1,1.6,0,2.3c-0.3,2.2,0.7,2.9,2.8,2.9&#xA;&#x9;&#x9;c8.3-0.1,16.5,0,24.8,0c7.4,0,7.2,0,7.5-7.3C485.1,99.6,484.1,98.5,481.1,98.2z"/>
    <path class="st412" d="M401.1,98.6c-3.3,0.3-3.5-1.7-3.5-4.2c0.1-10.2,0.1-20.4,0-30.5c-0.1-7.4-3.1-13.3-9.3-17.6&#xA;&#x9;&#x9;c-7.9-5.4-16.8-5.9-25.8-4.6c-6.7,0.9-12.9,3.4-18.6,7.2c-1.9,1.3-2.2,2.5-0.7,4.3c2,2.4,3.9,4.9,5.7,7.4c1.1,1.5,1.7,1.4,3.1,0.3&#xA;&#x9;&#x9;c3.4-2.6,7.2-4.5,11.3-5.7c9.6-2.8,15.6,1.7,15.8,11.4c0.1,3-0.7,3.8-3.7,3.7c-9.3-0.4-18.3,0.6-26.6,5.3&#xA;&#x9;&#x9;c-11.9,6.6-10.6,22.4-4.3,29.1c8,8.5,23.4,9.1,32.7,1.2c0.8-0.7,1.4-1.8,2.8-2c0.3,0.9,0.8,1.8,0.9,2.8c0.4,2.8,1.8,3.7,4.6,3.4&#xA;&#x9;&#x9;c3.2-0.3,6.5-0.1,9.7-0.1c8.8,0,8.8,0,8.4-8.8C403.5,99.4,402.8,98.5,401.1,98.6z M376.1,94.7c-4.1,2.5-8.3,4-13,2.6&#xA;&#x9;&#x9;c-3.1-0.9-4.7-3.2-4.9-6.5c-0.2-3.9,2-7.6,5.3-9c0.9-0.4,1.9-0.6,2.9-0.9c2.2-0.5,4.4-0.6,6.2-0.5c6.5,0,6.4,0,6.5,6&#xA;&#x9;&#x9;C379,89.5,379.5,92.7,376.1,94.7z"/>
    <path class="st411" d="M165.2,58.8c-3-10-9.7-17.7-15.7-25.9c-11.4-15.4-26.2-23.9-39.8-24C83.6,8.4,65.2,20.3,57.3,39&#xA;&#x9;&#x9;c-1,2.4-2.3,3.4-4.7,3.9c-8.7,2-17.4,4-25.5,8.1c-5.5,2.8-11.1,5.4-14.6,10.8c-4.4,6.8-3.9,14-2.2,21.5&#xA;&#x9;&#x9;c4.4,18.6,15.7,30.1,34.4,34.3c11.5,2.5,22.7,2.2,33.2-3.8c6.6-3.7,11.9-9,17.1-14.4c1.3-1.4,2.3-1.7,4-0.9&#xA;&#x9;&#x9;c3.2,1.6,6.4,3.1,9.6,4.7c10.2,5.1,20.6,9.3,32.3,8.6c18.6-1.1,29.7-13.6,28.5-31.8C169,72.8,167.3,65.8,165.2,58.8z M96.3,84.1&#xA;&#x9;&#x9;c-11.2,7.5-22.8,14-36.2,16.7c-4.3,0.9-8.6,1.2-11.5,1c-10.8,0-19.9-1.1-27.9-6.6c-9.4-6.6-13.4-21-8-31.1c1.7-3.3,4.6-5.7,7.8-7.6&#xA;&#x9;&#x9;c11.1-6.9,23.5-10.1,36.1-12.7C69.7,41,83,38,96.7,38.1c6.6,0,12.5,2.6,16.7,7.9c3.7,4.8,2.6,10.2,0.8,15.3&#xA;&#x9;&#x9;C110.7,70.9,104.7,78.5,96.3,84.1z M164.4,92.3c-4.2,10.5-13.1,14-23.2,15.5c-10.8,1.6-19.7-3.5-28.9-7.8c-3-1.4-5.9-3.2-9-4.4&#xA;&#x9;&#x9;c-2.7-1-3.1-2-0.9-3.9c3.4-4.3,6.8-8.6,9.5-13.4c0,0,0,0,0,0c0,0,0,0,0,0c3.3-7.1,5.3-14.6,5.3-22.5c0-12.2-6.5-17.6-18.8-19&#xA;&#x9;&#x9;c-2.4-0.3-4.9-0.1-7.4-0.1c-8.3,0.6-16.6,1.9-24.8,3.4l0,0c0,0,0,0,0,0c-1.7-0.1-3.8,1.9-4.9,0.1c-0.8-1.3,1.2-2.9,2.1-4.3&#xA;&#x9;&#x9;c6-10.4,15-16.8,26.3-20.4c9.9-3.1,19.7-3.8,29.9-1.1c8.4,2.2,14.4,7.3,19.9,13.4c6.8,7.5,13,15.3,18,24c4.9,8.5,7.4,17.6,8.1,27.3&#xA;&#x9;&#x9;C165.8,83.6,166.2,88,164.4,92.3z"/>
    <path class="st412" d="M597.1,41.2c-14.1,0-25.2,7.3-29.4,19.6c-3,8.6-3.4,17.5-1.3,26.4c1.5,6.7,4.6,12.5,9.9,17.1&#xA;&#x9;&#x9;c7.2,6.3,15.7,7.5,24.8,6.9c11.6-0.8,19.9-6.7,24.8-17.2c3.5-7.5,3.8-15.5,3-23.6C627.2,52.5,615,41.2,597.1,41.2z M606.7,92.8&#xA;&#x9;&#x9;c-4.9,6.7-16.2,5.9-20-1.5c-2.5-4.7-3.3-9.7-3-14.5c-0.1-5.2,0.4-9.9,2.6-14.4c4.1-8.4,15.5-9.5,20.9-1.9&#xA;&#x9;&#x9;C612.4,67.9,612.2,85.4,606.7,92.8z"/>
    <path class="st412" d="M333.3,41.5c-6.1-1.5-12.5,1-16.3,6.2c-0.7,1-1,2.3-2.4,2.9c-0.6-1.6-0.8-3.3-0.7-4.9&#xA;&#x9;&#x9;c0.2-2.5-0.9-3.2-3.3-3.2c-6.5,0.2-13,0.2-19.4,0c-3.2-0.1-4.5,0.5-4.3,4.1c0.3,6.8,0.1,6.9,6.8,8.2c1.9,0.4,2.9,1,2.8,3.2&#xA;&#x9;&#x9;c-0.1,12.2-0.1,24.4,0,36.5c0,2.1-0.6,2.9-2.7,3.3c-6.1,1.1-6,1.2-6,7.4c0,4.7,0,4.8,4.6,4.8c7.7,0,15.4,0,23.1,0&#xA;&#x9;&#x9;c8.5,0,8.5,0,8.3-8.4c0-2.1-0.6-3.2-2.8-3.2c-1,0-2-0.5-3-0.5c-2.4-0.1-3.1-1.2-3.1-3.6c0.1-8.8,0-17.7,0.1-26.5&#xA;&#x9;&#x9;c0-5.2,2.6-8.3,7.8-8.9c2.6-0.3,5.4-0.1,8-0.1c1.2,0,2.2,0.1,2.4-1.6c0.4-4.6,0.9-9.1,1.5-13.6C335,42.3,334.6,41.8,333.3,41.5z"/>
    <path class="st413" d="M127,102.5c7.4,3.2,14.8,2.6,22.1-0.1c8.9-3.3,13.1-10.1,13.7-19.2c0.8-12.8-3.2-24.2-10.5-34.5&#xA;&#x9;&#x9;c-4.6-6.5-9.3-13.1-14.7-19c-7.4-8-16.2-13-27.4-13.3c-11.6-0.3-22.4,2.4-32.1,8.7c-5.4,3.5-9.9,8.3-11.9,14.8l0,0&#xA;&#x9;&#x9;c8.2-1.5,16.5-2.8,24.8-3.4c0.5-0.2,1-0.6,1.5-0.5c4.3,0.3,8.3-0.6,12.4-2c4.8-1.7,9.3,0.2,13.1,3c8.2,6.1,13.9,13.8,13.9,24.5&#xA;&#x9;&#x9;c0,7.7-6.7,16.6-16.2,16c-1.3-0.1-2.7-0.2-3.9,0.7c0,0,0,0,0,0c-2.6,4.9-6.1,9.1-9.5,13.4c3.2,3.3,7.7,3.8,11.6,5.6&#xA;&#x9;&#x9;C118.1,99.4,122.7,100.7,127,102.5z"/>
    <path class="st412" d="M157.5,51.8c-5.1-8.7-11.3-16.6-18-24c-5.5-6.1-11.5-11.2-19.9-13.4c-10.2-2.7-20-2-29.9,1.1&#xA;&#x9;&#x9;c-11.3,3.5-20.3,10-26.3,20.4c-0.8,1.4-2.9,3-2.1,4.3c1.1,1.7,3.2-0.2,4.9-0.1c0,0,0,0,0,0c2-6.5,6.4-11.3,11.9-14.8&#xA;&#x9;&#x9;c9.7-6.3,20.5-8.9,32.1-8.7c11.2,0.3,20,5.2,27.4,13.3c5.4,5.9,10.1,12.5,14.7,19c7.3,10.3,11.3,21.7,10.5,34.5&#xA;&#x9;&#x9;c-0.6,9.1-4.8,15.9-13.7,19.2c-7.3,2.7-14.7,3.3-22.1,0.1c-4.3-1.8-8.8-3.1-13-5.2c-3.9-1.9-8.4-2.4-11.6-5.6&#xA;&#x9;&#x9;c-2.3,1.9-1.8,2.9,0.9,3.9c3.1,1.2,6,3,9,4.4c9.2,4.3,18.2,9.4,28.9,7.8c10.1-1.5,19-5.1,23.2-15.5c1.7-4.3,1.4-8.7,1.1-13.1&#xA;&#x9;&#x9;C164.9,69.4,162.4,60.3,157.5,51.8z"/>
    <path class="st412" d="M114.1,61.3c1.8-5.1,2.9-10.5-0.8-15.3c-4.2-5.4-10-7.9-16.7-7.9C83,38,69.7,41,56.4,43.8&#xA;&#x9;&#x9;c-12.6,2.7-25,5.8-36.1,12.7c-3.2,2-6.1,4.4-7.8,7.6c-5.3,10.1-1.4,24.5,8,31.1c8,5.6,17.1,6.6,27.9,6.6c2.9,0.2,7.3-0.2,11.5-1&#xA;&#x9;&#x9;c13.4-2.7,25-9.2,36.2-16.7C104.7,78.5,110.7,70.9,114.1,61.3z M91,84.8C81.5,90.5,71.9,96,60.8,98c-9,1.6-18.2,2.1-27.2-0.2&#xA;&#x9;&#x9;C23.1,95.3,15,85.8,14.6,75c-0.2-5.9,2.7-10.7,7.2-14.5c7-5.9,15.3-9,24.1-10.9c0.2,0,0.5,0.3,0.8,0.5c7.4-5.7,15.8-6.8,24.8-6.1&#xA;&#x9;&#x9;c0.8-1.9,2.7-1.3,4.1-1.7c7.7-1.9,15.5-2.7,23.2-1.1c14.5,2.9,16.3,11,11.6,22.8C106.7,73.5,99.4,79.7,91,84.8z"/>
    <path class="st412" d="M115.7,77.6c9.5,0.6,16.2-8.3,16.2-16c0-10.7-5.7-18.4-13.9-24.5c-3.9-2.8-8.3-4.7-13.1-3&#xA;&#x9;&#x9;c-4.1,1.4-8.1,2.3-12.4,2c-0.5,0-1,0.4-1.5,0.5c2.5,0,4.9-0.2,7.4,0.1c12.3,1.4,18.8,6.8,18.8,19c0,7.9-2,15.4-5.3,22.5&#xA;&#x9;&#x9;c0,0,0,0,0,0C113,77.5,114.3,77.5,115.7,77.6z"/>
    <path class="st413" d="M98.8,41.3c-7.7-1.6-15.6-0.7-23.2,1.1c-1.4,0.3-3.3-0.2-4.1,1.7c8.8,1.7,15.6,6.5,20.2,14.2&#xA;&#x9;&#x9;c3.8,6.3,2.8,12.4-3,17.3c-6.1,5.3-13.4,7.8-21.4,8.7c-10.7,1.2-20.3-2-29.3-7.5c-2.5-1.5-3.2-3.5-2.9-6.2&#xA;&#x9;&#x9;c1-8.5,5.3-15.1,11.6-20.5c0,0,0,0,0,0c-0.3-0.2-0.6-0.5-0.8-0.5c-8.8,1.9-17.1,5-24.1,10.9c-4.5,3.8-7.4,8.6-7.2,14.5&#xA;&#x9;&#x9;c0.4,10.7,8.6,20.2,19,22.8c9.1,2.2,18.2,1.8,27.2,0.2c11-2,20.7-7.5,30.1-13.2c8.4-5.1,15.7-11.3,19.4-20.6&#xA;&#x9;&#x9;C115.1,52.3,113.3,44.2,98.8,41.3z"/>
    <path class="st414" d="M35.1,70.6c-0.3,2.6,0.4,4.7,2.9,6.2c9,5.5,18.6,8.7,29.3,7.5c7.9-0.9,15.3-3.4,21.4-8.7&#xA;&#x9;&#x9;c5.7-4.9,6.8-11,3-17.3C87,50.6,80.3,45.8,71.5,44.1c-8.9-0.7-17.4,0.4-24.8,6.1c0,0,0,0,0,0C40.3,55.6,36,62.2,35.1,70.6z"/>
  </g>
</svg>