<?xml version="1.0" encoding="utf-8"?>
<!-- Generator: Adobe Illustrator 21.1.0, SVG Export Plug-In . SVG Version: 6.00 Build 0)  -->
<svg version="1.1" id="Layer_1" xmlns="http://www.w3.org/2000/svg" xmlns:xlink="http://www.w3.org/1999/xlink" x="0px" y="0px"
	 viewBox="0 0 432 491.1" style="enable-background:new 0 0 432 491.1;" xml:space="preserve">
<style type="text/css">
	.st0{fill:#2E2E2E;}
	.st1{fill:#FEFEFE;}
	.st2{fill:#FDFDFD;}
	.st3{fill:#303030;}
</style>
<g>
	<path class="st0" d="M251,15.7c6.3,0,12.6,0,18.9,0.1c34.9,3.1,64.2,29.8,72.2,66c1.5,6.8,2.3,13.7,3.2,20.5
		c1.1,8.5,1.7,9.2,10.5,10.1c17.2,1.9,32.7,7.7,44.5,20.9c17.9,20,23.2,43.2,15.1,68.7c-7.9,24.7-24.8,40.4-50.5,45.7
		c-4.8,1-9.8,1.2-14.7,1.2c-15.7,0.1-31.4,0.1-47.1,0c-3,0-5.6,0.6-8.3,2.1c-13.5,7.6-27.1,15.1-40.6,22.6c-1.2,0.7-2.4,1.5-4.2,2.7
		c15.2,4.2,29.7,8.3,45,12.5c-32.2,39.3-64,78.1-95.7,116.9c-0.4-0.3-0.8-0.6-1.2-0.9c12.2-28.3,24.3-56.7,36.5-84.9
		c1.7-3.8-0.4-4-3-4.8c-25.1-7.2-50.1-14.5-75.1-21.8c-1.4-0.4-2.8-0.9-4.9-1.5c11.7-14.1,23.2-27.9,35.3-42.4
		c-2.7-0.1-4.5-0.3-6.4-0.3c-39.8,0-79.6,0.1-119.5,0c-29.1-0.1-50.3-21.6-49.8-50.4c0.5-29.2,26.7-51.2,55.4-46.5
		c5.5,0.9,12.5,4.4,16.1,1.3c3.2-2.7,2.3-10.2,3-15.6c2.9-23.3,12.1-42.7,32.9-55.2c16.5-9.9,34.2-10.3,52.4-5.9
		c8.1,1.9,8.2,3.6,12.5-6.3c10.9-24.7,28.3-42.7,54.2-51.7C242,17.1,246.4,15.8,251,15.7z"/>
	<path class="st1" d="M183,194.1c-6.3,7.9-14.2,9-22.7,7.9c-10.7-1.3-16.8-8.2-17.1-18.6c-0.3-10,5-16.2,15.6-18.6
		c6.9-1.5,13.8-0.9,20.7-0.9c3.4,0,4.1-1,2.9-4.1c-1.3-3.5-3.6-5.5-7.1-5.9c-4.3-0.6-8.8-0.5-12.1,2.3c-4.3,3.6-6.5,1.6-9.4-1.7
		c-7.1-8-7.1-9.1,2.8-13.7c9.8-4.6,20.2-5,30.4-1.5c10.8,3.8,15.3,12.7,15.7,23.5c0.4,11.5,0,23,0.2,34.5c0,2.9-0.8,3.9-3.7,3.7
		c-2.9-0.2-5.9-0.3-8.8,0C185.5,201.5,181.5,201.2,183,194.1z"/>
	<path class="st1" d="M304.5,137.3c8.3-0.1,16,2.8,22.3,9.4c2.3,2.4,2.2,3.8-0.5,5.4c-1.4,0.9-2.6,2-3.8,3.1
		c-3.9,3.7-7.1,6.5-12.8,1.4c-4.9-4.4-13.4-2.2-17.3,2.5c-4.5,5.4-4.3,16.2,0.4,21.5c4.2,4.7,12.6,6.3,18,2c4.5-3.6,7.1-2.5,10.1,1
		c0.6,0.7,1.3,1.3,2,1.9c6.9,6.1,6.9,6.5-0.8,11.6c-13.9,9.3-35.9,5.9-46.3-7.1c-10.4-13-9.1-32.5,2.9-43.9
		C285,140.2,293.5,137.1,304.5,137.3z"/>
	<path class="st1" d="M237.1,147.9c5.6-9.6,13.3-11.8,22.6-10.1c3.3,0.6,5.5,2,3.4,5.9c-0.5,0.9-0.8,2-1.1,3.1
		c-1.1,3.1-1.6,6.6-3.4,9.2c-2.4,3.4-5.8-0.3-8.9-0.1c-7.9,0.7-12.3,4.6-12.7,13.5c-0.4,9.1-0.3,18.3-0.1,27.4
		c0.1,3.3-0.8,4.6-4.3,4.3c-3.8-0.3-7.7-0.3-11.5,0c-3.6,0.3-4.2-1.2-4.2-4.4c0.1-18.1,0.1-36.2,0-54.2c0-3.1,0.9-4.2,4-3.9
		c2.2,0.2,4.4,0,6.6,0C236.2,138.5,236.2,138.5,237.1,147.9z"/>
	<path class="st2" d="M133.8,189.5c-0.1,7-5.5,12.5-12.4,12.5c-6.9,0-12.4-5.6-12.4-12.5c0-7,5.4-12.3,12.5-12.4
		C128.5,177,133.9,182.4,133.8,189.5z"/>
	<path class="st3" d="M174.9,175.7c0.9,0,1.8-0.1,2.7,0c1.8,0.4,4.5-1.2,5.3,1.1c0.9,2.5-0.2,5-2.2,6.9c-3.4,3.2-11.4,4.2-15.4,1.8
		c-1.9-1.1-3-2.7-2.7-4.9c0.3-2.4,1.8-4.1,4.1-4.5c2.7-0.5,5.4-0.4,8.1-0.6C174.9,175.6,174.9,175.6,174.9,175.7z"/>
</g>
<g>
	<path class="st0" d="M79.8,418.8l20.9,55.8H87.9l-4.2-12.4H62.8l-4.4,12.4H46.1l21.1-55.8H79.8z M80.5,453.1l-7-20.5h-0.2L66,453.1
		H80.5z"/>
	<path class="st0" d="M114.9,434.2v7.5h0.2c0.5-1.2,1.2-2.4,2.1-3.5c0.9-1.1,1.9-2,3-2.7c1.1-0.8,2.4-1.3,3.7-1.8
		c1.3-0.4,2.7-0.6,4.1-0.6c0.7,0,1.5,0.1,2.4,0.4v10.3c-0.5-0.1-1.1-0.2-1.9-0.3c-0.7-0.1-1.4-0.1-2.1-0.1c-2,0-3.8,0.3-5.2,1
		c-1.4,0.7-2.5,1.6-3.4,2.8c-0.9,1.2-1.5,2.5-1.8,4.1c-0.4,1.6-0.5,3.3-0.5,5.1v18.2h-11.1v-40.4H114.9z"/>
	<path class="st0" d="M152.6,441.5c-1.8,0-3.3,0.4-4.5,1.2c-1.2,0.8-2.2,1.8-2.9,3.1c-0.8,1.3-1.3,2.7-1.6,4.2
		c-0.3,1.5-0.5,3.1-0.5,4.6c0,1.5,0.2,2.9,0.5,4.5c0.3,1.5,0.8,2.9,1.5,4.1c0.7,1.2,1.7,2.2,2.9,3c1.2,0.8,2.7,1.2,4.4,1.2
		c2.7,0,4.7-0.7,6.1-2.2c1.4-1.5,2.3-3.5,2.7-6h10.7c-0.7,5.4-2.8,9.5-6.3,12.3c-3.4,2.8-7.8,4.2-13.2,4.2c-3,0-5.8-0.5-8.3-1.5
		c-2.5-1-4.7-2.4-6.4-4.3c-1.8-1.8-3.2-4-4.1-6.5c-1-2.5-1.5-5.3-1.5-8.3c0-3.1,0.5-6,1.4-8.7c0.9-2.7,2.3-5,4-7
		c1.8-2,3.9-3.5,6.5-4.6c2.6-1.1,5.5-1.6,8.8-1.6c2.4,0,4.7,0.3,6.9,0.9c2.2,0.6,4.2,1.6,5.9,2.9c1.7,1.3,3.2,2.9,4.3,4.8
		c1.1,1.9,1.7,4.2,1.9,6.8h-10.9C160.1,443.8,157.4,441.5,152.6,441.5z"/>
	<path class="st0" d="M189.3,418.8v21h0.2c1.4-2.3,3.2-4.1,5.4-5.1c2.2-1.1,4.3-1.6,6.4-1.6c3,0,5.4,0.4,7.3,1.2
		c1.9,0.8,3.4,1.9,4.5,3.4c1.1,1.4,1.9,3.2,2.3,5.2c0.4,2.1,0.7,4.3,0.7,6.8v24.9H205v-22.8c0-3.3-0.5-5.8-1.6-7.5
		c-1-1.6-2.9-2.5-5.5-2.5c-3,0-5.2,0.9-6.6,2.7c-1.4,1.8-2,4.8-2,8.9v21.2h-11.1v-55.8H189.3z"/>
	<path class="st0" d="M224.8,428v-9.1h11.1v9.1H224.8z M235.9,434.2v40.4h-11.1v-40.4H235.9z"/>
	<path class="st0" d="M266.9,434.2v7.4h-8.1v20c0,1.9,0.3,3.1,0.9,3.8s1.9,0.9,3.8,0.9c0.6,0,1.2,0,1.8-0.1c0.6-0.1,1.1-0.1,1.6-0.2
		v8.6c-0.9,0.2-2,0.3-3.1,0.3c-1.1,0.1-2.3,0.1-3.4,0.1c-1.7,0-3.3-0.1-4.9-0.4c-1.5-0.2-2.9-0.7-4.1-1.4c-1.2-0.7-2.1-1.6-2.8-2.9
		c-0.7-1.3-1-2.9-1-4.9v-23.8h-6.7v-7.4h6.7v-12.1h11.1v12.1H266.9z"/>
	<path class="st0" d="M284.1,465c1.7,1.6,4.1,2.4,7.2,2.4c2.2,0,4.2-0.6,5.8-1.7c1.6-1.1,2.6-2.3,3-3.6h9.8c-1.6,4.8-4,8.3-7.2,10.4
		s-7.1,3.1-11.7,3.1c-3.2,0-6-0.5-8.6-1.5c-2.6-1-4.7-2.5-6.5-4.3c-1.8-1.9-3.1-4.1-4.1-6.7c-1-2.6-1.4-5.5-1.4-8.6
		c0-3,0.5-5.8,1.5-8.4c1-2.6,2.4-4.9,4.2-6.8c1.8-1.9,4-3.4,6.5-4.5c2.5-1.1,5.3-1.6,8.4-1.6c3.4,0,6.4,0.7,9,2s4.7,3.1,6.3,5.4
		c1.6,2.2,2.8,4.8,3.6,7.7c0.7,2.9,1,5.9,0.8,9h-29.2C281.5,460.7,282.4,463.3,284.1,465z M296.6,443.7c-1.3-1.5-3.3-2.2-6.1-2.2
		c-1.8,0-3.2,0.3-4.4,0.9c-1.2,0.6-2.1,1.3-2.8,2.2c-0.7,0.9-1.2,1.8-1.5,2.8c-0.3,1-0.5,1.9-0.5,2.7h18.1
		C298.9,447.3,297.9,445.2,296.6,443.7z"/>
	<path class="st0" d="M336.4,441.5c-1.8,0-3.3,0.4-4.5,1.2c-1.2,0.8-2.2,1.8-2.9,3.1c-0.8,1.3-1.3,2.7-1.6,4.2
		c-0.3,1.5-0.5,3.1-0.5,4.6c0,1.5,0.2,2.9,0.5,4.5c0.3,1.5,0.8,2.9,1.5,4.1c0.7,1.2,1.7,2.2,2.9,3c1.2,0.8,2.7,1.2,4.4,1.2
		c2.7,0,4.7-0.7,6.1-2.2c1.4-1.5,2.3-3.5,2.7-6h10.7c-0.7,5.4-2.8,9.5-6.3,12.3s-7.8,4.2-13.2,4.2c-3,0-5.8-0.5-8.3-1.5
		c-2.5-1-4.7-2.4-6.4-4.3c-1.8-1.8-3.2-4-4.1-6.5c-1-2.5-1.5-5.3-1.5-8.3c0-3.1,0.5-6,1.4-8.7c0.9-2.7,2.3-5,4-7
		c1.8-2,3.9-3.5,6.5-4.6c2.6-1.1,5.5-1.6,8.8-1.6c2.4,0,4.7,0.3,6.9,0.9c2.2,0.6,4.2,1.6,5.9,2.9c1.7,1.3,3.2,2.9,4.3,4.8
		c1.1,1.9,1.7,4.2,1.9,6.8h-10.9C343.8,443.8,341.1,441.5,336.4,441.5z"/>
	<path class="st0" d="M384.1,434.2v7.4H376v20c0,1.9,0.3,3.1,0.9,3.8s1.9,0.9,3.8,0.9c0.6,0,1.2,0,1.8-0.1c0.6-0.1,1.1-0.1,1.6-0.2
		v8.6c-0.9,0.2-2,0.3-3.1,0.3c-1.1,0.1-2.3,0.1-3.4,0.1c-1.7,0-3.3-0.1-4.9-0.4c-1.5-0.2-2.9-0.7-4.1-1.4c-1.2-0.7-2.1-1.6-2.8-2.9
		c-0.7-1.3-1-2.9-1-4.9v-23.8h-6.7v-7.4h6.7v-12.1H376v12.1H384.1z"/>
</g>
</svg>
