<svg xmlns="http://www.w3.org/2000/svg" role="img" viewBox="400.53 241.28 401.18 219.43"><title>Arctiq (KCSP) logo</title><style>svg {enable-background:new 0 0 1224 792}</style><style>.st0{fill:#0055b8}</style><path d="M448.25 434.45h-25.28l-4.82 12.34h-9.88l22.78-56.7h8.75l23.45 56.7h-10.09l-4.91-12.34zm-22.07-8.33h18.83l-9.48-23.91-9.35 23.91zm81.65-.32h-10.75v20.98h-9.3v-56.7h22.07c10.92 0 19.05 7.48 19.05 17.94 0 7.73-4.6 13.89-11.53 16.47l13.09 22.29h-10.44l-12.19-20.98zm-10.75-8.71h12.22c6.16 0 10.13-3.81 10.13-9.14 0-5.27-3.96-9.14-10.13-9.14h-12.22v18.28zm84.99 30.7c-16.78 0-29.15-12.42-29.15-29.33 0-16.96 12.37-29.38 29.15-29.38 13.41 0 24.16 8.36 27.13 21.12h-9.42c-2.71-7.55-9.32-12.12-17.72-12.12-11.36 0-19.68 8.55-19.68 20.38s8.33 20.33 19.68 20.33c8.66 0 15.36-4.89 17.91-12.93h9.44c-2.94 13.33-13.69 21.93-27.34 21.93zm90.53-49.02h-16.62v48.02h-9.3v-48.02h-16.62v-8.68h42.55v8.68zm25.15-8.68h9.3v56.7h-9.3v-56.7z" class="st0"/><path d="M783.33 440.4c5.92-5.3 9.49-13.03 9.49-21.96 0-16.81-12.67-29.41-29.87-29.41-17.22 0-29.91 12.62-29.91 29.41s12.69 29.41 29.91 29.41c5.02 0 9.65-1.07 13.69-3.01l7.15 8.34h10.49l-10.95-12.78zm-12.88-2.81l-.02.01c-2.29.84-4.81 1.3-7.48 1.3-11.69 0-20.45-8.84-20.45-20.46 0-11.62 8.75-20.46 20.45-20.46s20.4 8.75 20.4 20.46c0 6-2.29 11.22-6.09 14.89-1.85 1.89-4.12 3.32-6.81 4.26z" class="st0"/><path fill="#5eb3e4" d="M574.26 353.6l-42.47.01c-2.05 0-3.18-1.21-2.49-2.99l32.73-84.72c1.55-4.39 5.04-2.91 5.32-.35l9.74 84.72c.26 2.44-.58 3.35-2.83 3.33z"/><path fill="#009ade" d="M621.04 328.56l-39.08.01c-1.18 0-2.24-.92-2.41-2.05l-10.22-73.81c-.68-3.99 3.22-4.85 4.9-2.12l49.3 73.8c1.22 1.89-.28 4.17-2.49 4.17z"/><path d="M670.61 338.12l-28.94-.2c-1.78 0-2.81-.65-3.97-2.18l-46.34-65.51c-2.58-3.72 1.57-6.82 4.21-4.37l76.31 65.99c.83.72 1.45 1.7 1.56 2.8.21 2.05-1.04 3.47-2.83 3.47z" class="st0"/></svg>