<svg xmlns="http://www.w3.org/2000/svg" role="img" viewBox="-8.90 -7.90 462.80 142.30"><title>Aruba SpA (member) logo</title><g class="g-aruba"><g fill="#e35205"><path d="M56.1 46.9c-.5 0-1 0-1.4.1-3.9.5-7.2 2.7-9 6.1-.8-.2-1.6-.4-2.5-.7-3.6-.9-6.6-1.4-9.1-1.6h-1.5c-2.7 0-5.6.5-8.5 1.5-2.3.8-4.3 1.6-6 2.3-2.3 1-4.4 2.2-6.2 3.6-2.6 2-4.5 4.9-6.1 8.8-.9 2.3-1.7 4.3-2.5 6.2-1.1 2.7-1.8 5.9-2.2 9.3C.8 85.2.6 87.7.5 90c-.2 2.5-.2 5.1 0 7.6.2 3.9 1.3 7.3 3.3 10.3l3.1 4.6c1.7 2.6 4.3 5 7.6 7.2 3.5 2.3 6.5 3.7 9.5 4.2 1.6.3 3.8.6 6.5 1 2.5.4 4.6.5 6.5.5.7 0 1.4 0 2.1-.1 3-.2 6-1.2 9.1-2.8.6-.3 1.1-.6 1.7-1 2.1 2.6 5.3 4 8.6 4 4.1 0 9.4-2.5 10.8-9.6.4-2.1.5-5 .4-9.7-.1-3.6-.3-10.6-.4-20.7-.1-10.4-.3-17.5-.6-21.3-.4-5-.9-8-1.9-10.3-2-4.3-6.1-7-10.7-7zM31.4 75.7h4.3c1.1 0 2.4.1 3.6.3 1.2 1.1 1.8 1.8 2 2 .1.2.7 1.1 2 4.1.8 1.8 1.3 3.5 1.3 4.9.1 1.6-.1 3.1-.5 4.6s-1.1 3-2.1 4.6c-.8 1.3-1.7 2.4-2.8 3.4-.8.6-1.8 1.1-2.8 1.4-.3.1-.6.1-.9.1-.2 0-.5 0-.7-.1-1.8-.4-3.5-.9-5.2-1.6-1.5-.6-2.2-1-2.4-1.2l-2.7-2.1c-.1-1.4-.2-3.6-.2-7.2 0-2.9.4-5.5 1.2-7.8.5-1.3 1.5-2.7 3.1-4.1 1.1-.5 2-.9 2.8-1.3z"/><path d="M80.7 49.1c-2 0-3.9.5-5.7 1.5-3.5 2-5.9 5.8-6.3 10l-.2 1.6v2.1c1.2 29 2 46.5 2.1 48.7.5 6.9 3.8 9.9 6.6 11.3 1.6.8 3.3 1.2 5 1.2 3.3 0 6.5-1.5 8.7-4.2 2.5-3 3.2-6.8 3-16.8-.1-6.1-.2-12.7-.2-19.5 0-4.2 0-6.7-.1-8.5.6-.8 1.3-1.6 2.2-2.3.6-.5 1.4-.8 2.5-1 .8-.2 1.6-.3 2.2-.3.4 0 .6 0 .8.1.3.1.4.1.5.2 1.9 1.8 3.3 2.9 4.6 3.6.3.2.8.5 1.7 1.1 2.5 1.8 5.2 2.7 7.8 2.7 3.5 0 6.8-1.6 9.1-4.5 2.1-2.7 3.1-6.1 2.6-9.6-.5-3.7-2.7-6.9-6.1-9-.4-.2-1.2-.8-2.7-2-2.6-2.2-5.7-3.8-9-4.7-2.5-.7-5.4-1.1-8.6-1.3h-1.7c-2.9 0-5.8.4-8.7 1.1-.9.2-1.8.5-2.6.8-2.2-1.5-4.8-2.4-7.5-2.3z"/><path d="M145.7 42.9c-2.7 0-5.4.9-8.1 2.7l-.3.2c-1.1.8-2 1.8-2.6 3l-.2.3c-4.3 8.6-6.5 14.1-7.4 17.8-.7 3.2-1.3 6.6-1.7 10.1-.4 3.6-.5 6.9-.4 9.8.2 4.2 1.5 8.2 4 11.9 2.2 3.3 4.7 5.9 7.6 7.8 2.2 1.5 4.6 2.7 6.9 3.8 3.1 1.4 6.2 2.1 9.3 2.1h7c3.8 0 6.6-.3 8.8-.8 2.5-.6 5.3-2 9-4.3 4.4-2.8 7.5-6.2 9.3-10.2 1.3-2.9 2.3-6 2.9-9.1.6-3.1 1-6.8 1-10.8 0-4.6-1.1-10-3.4-16.1-2.8-7.7-5.5-12.4-10.7-14-3.7-1.1-7.7-.7-11 1.3-2.3 1.3-4 3.2-5.1 5.6-1 2.3-1.6 5.9.4 10.6.9 2.1 2.1 4.6 3.4 7.3.6 1.3 1 2.9 1 4.7 0 2.6-.2 4.9-.6 6.6-.4 2-.8 2.7-.8 2.7 0 .1-.5.8-1.9 2.1-.5.5-1.1.8-1.9 1-1.5.4-2.8.6-4 .6-1.1 0-2.2-.2-3.3-.5-.9-.3-1.7-.7-2.4-1.2-.6-.5-1-.9-1.1-1-.1-.3-.3-1.4-.5-3.5-.2-2.3 0-4.4.5-6.3.7-2.6 1.6-5.3 2.7-8.1 1.3-3.1 1.9-4.2 2-4.4 1.7-2.3 2.7-4.8 3-7.3.4-3-.1-5.8-1.5-8.3-1.8-3.8-5.7-6.2-9.9-6.1z"/><path d="M203.1 1c-2.7 0-5.2.9-7.2 2.6-3 2.6-3.5 5.7-3.9 9.4-.3 3.9-.5 11.1-.6 22.6-.2 19.6-.4 26.4-.6 28.7-.3 3.7-.5 10.9-.6 21.3-.1 10.1-.3 17.1-.4 20.7-.2 4.7-.1 7.6.4 9.7 1.4 7 6.7 9.6 10.8 9.6 3.3 0 6.4-1.5 8.6-4 .6.3 1.1.7 1.7 1 3.1 1.6 6.1 2.6 9.1 2.8.7.1 1.4.1 2.1.1 1.9 0 4-.2 6.5-.5 2.8-.4 5-.7 6.5-1 2.9-.5 5.9-1.8 9.5-4.1 3.3-2.2 5.9-4.7 7.6-7.2l3.1-4.6c2-3 3.1-6.4 3.3-10.3.2-5 0-10.1-.6-15.1-.3-3.4-1.1-6.6-2.2-9.3-.8-1.9-1.6-4-2.5-6.2-1.5-4-3.5-6.9-6.1-8.8-1.9-1.5-4-2.7-6.2-3.6-1.7-.7-3.7-1.5-6-2.3-2.9-1-5.7-1.5-8.5-1.5h-1.4c-2.5.2-5.5.7-9.1 1.6-.6.2-1.2.3-1.8.5 0-3.4.1-7.5.2-12.8.3-19.9.6-23.5.7-24.1.6-4.9-.9-11.1-7-13.7-1.9-1.1-3.7-1.5-5.4-1.5zm17.1 74.8c1.3-.2 2.5-.3 3.6-.3h4.3c.8.4 1.7.9 2.7 1.3 1.6 1.4 2.7 2.8 3.1 4.1.8 2.3 1.2 4.9 1.2 7.8 0 3.5-.1 5.8-.2 7.2l-2.7 2.1c-.2.2-.9.6-2.4 1.2-1.7.6-3.4 1.2-5.2 1.6-.2.1-.5.1-.7.1-.3 0-.6 0-.9-.1-1-.3-1.9-.8-2.8-1.4-.6-.5-1.6-1.5-2.8-3.4-1-1.6-1.7-3.2-2.1-4.6-.4-1.5-.5-3-.5-4.6.1-1.4.5-3.1 1.3-4.9 1.3-2.9 1.9-3.9 2-4.1.4-.2.9-.9 2.1-2z"/><path d="M314.5 46.9c-.5 0-1 0-1.5.1-3.9.5-7.1 2.7-9 6-.8-.2-1.6-.4-2.5-.7-3.6-.9-6.6-1.4-9.1-1.6h-1.5c-2.8 0-5.6.5-8.5 1.5-2.3.8-4.4 1.6-6 2.3-2.3 1-4.4 2.2-6.2 3.6-2.6 2-4.5 4.9-6.1 8.8-.9 2.3-1.7 4.4-2.5 6.2-1.1 2.7-1.8 5.9-2.2 9.3-.6 5-.8 10.1-.6 15.1.2 3.9 1.3 7.3 3.3 10.3l3.1 4.6c1.7 2.6 4.3 5 7.6 7.2 3.5 2.3 6.5 3.7 9.5 4.1 1.6.3 3.8.6 6.5 1 2.5.4 4.6.5 6.5.5.7 0 1.4 0 2.1-.1 3-.2 6-1.2 9.1-2.8.6-.3 1.1-.6 1.7-1 2.1 2.6 5.3 4 8.6 4 4.1 0 9.4-2.5 10.8-9.5.4-2.1.5-5 .4-9.7-.1-3.6-.2-10.4-.4-20.7-.1-10.3-.3-17.5-.6-21.3-.4-5-.9-8-1.9-10.3-1.9-4.2-6-6.9-10.6-6.9zm-24.7 28.8h4.3c1.1 0 2.4.1 3.6.3 1.2 1.1 1.8 1.8 2 2 .1.2.7 1.1 2 4.1.8 1.8 1.3 3.5 1.3 4.9.1 1.6-.1 3.1-.5 4.6s-1.1 3-2.1 4.6c-.8 1.3-1.7 2.4-2.8 3.4-.8.7-1.8 1.1-2.8 1.4-.3.1-.6.1-.9.1-.2 0-.5 0-.7-.1-1.8-.4-3.5-.9-5.2-1.6-1.5-.6-2.2-1-2.4-1.2l-2.7-2.1c-.1-1.4-.2-3.6-.2-7.2 0-2.9.4-5.5 1.2-7.8.5-1.3 1.5-2.7 3.1-4.1 1.1-.5 2-.9 2.8-1.3z"/><path d="M341.8 95.5c-.9 0-1.9.2-2.8.5l-2 .8c-6.5 2.4-8.7 6.6-9.4 9.7-.5 2.2-.6 4.4-.3 6.5.4 2.5 1.9 7.1 8.2 9.7 2.1.9 4.2 1.3 6.3 1.3 1.5 0 3-.2 4.4-.7 2.8-.9 5.2-2.5 7-4.7 2.6-3.1 3.5-7.1 2.5-11.1-.8-3.2-2.7-6-5.4-7.9-.9-.6-1.7-1.2-2.5-1.6-.4-.4-.8-.8-1.3-1.2-1.5-.8-3.1-1.3-4.7-1.3zm26.6-75.2c-3 0-5.8.8-8.4 2.4-2.7 1.7-4.7 3.9-5.8 6.6-.8 1.8-1.2 3.7-1.5 5.8-.2 1.5-.2 2.9-.2 4.3 0 2.5.5 4.8 1.6 6.9.6 1.1 1.2 2.2 1.9 3.3.7 1 1.6 2.2 2.8 3.7l.2.3c.1.1.2.3.3.4-.2 1.1-.3 2.3-.3 3.5 0 2.1.3 4.1.9 6 2 24.2 3 37.5 3.2 39.1.5 6.3 4.2 9.3 6.3 10.5 2 1.1 4 1.7 6.1 1.7 2 0 4-.6 5.8-1.6 1.9-1.1 5.1-3.9 5.7-9.7.1-1.3.3-2.8-1.7-24.8-1.7-18.9-2.2-22.9-2.4-24.2-.2-1-.4-2-.8-2.9.8-1.1 1.5-2.4 2.2-3.9 1.5-3.5 2.2-6.9 1.9-10.2-.2-3.2-1.1-6.1-2.5-8.7-1.8-3.3-4.8-5.9-8.3-7.3-2.5-.8-4.8-1.2-7-1.2z"/><path d="M416.5 7.4c-3.3 0-6.4 1.4-8.9 3.9-3.2 3.2-4 7.3-3.8 18.4l.3 11.9c-11.1 1-12.3 1.6-14 2.7-4 2.3-6.2 6.1-6.2 10.3 0 2.4.8 4.7 2.3 6.6 1.3 1.7 3.9 3.8 8.3 4.3.7.1 1.4.1 2.3.1 1.7 0 4-.1 7.2-.4.1 3.9.1 8.9.2 14.9.3 18.4.2 24.5.1 26.4-.3 5 .3 8.5 1.9 11.2 2.3 4 6 6.2 10.1 6.2 3 0 7.2-1.2 10.5-6.8 1.9-3.3 2.5-7.8 2.2-16.7-.2-6.1-.3-14.9-.2-26.1 0-4.3.1-7.9.1-10.6h1c5.4 0 9.6-1.6 12.3-4.7 4.6-5.2 3.5-11.3.5-15-1.7-2-4.9-4.5-10.4-4.5h-.7c-.8 0-1.7.1-2.7.1 0-.8 0-1.7-.1-2.7-.1-7.6-.3-12.7-.7-16-.2-1.8-.5-4-1.3-6.2-1.5-4-4.6-6.6-8.5-7.1-.7-.2-1.3-.2-1.8-.2z"/></g><path fill="#fff" d="M58.5 117.5c-.9 0-2.3-.4-3.3-2.4-.4-.8-.8-2.5-.9-8.8L50 111c-1.6 1.8-3.5 3.2-5.6 4.3-1.8 1.1-3.9 1.7-6 1.9-1.8.1-4 0-6.8-.4-2.7-.4-4.8-.7-6.4-1-1.8-.3-3.8-1.2-6.3-2.9-2.5-1.6-4.3-3.3-5.4-5l-3.1-4.6c-1.2-1.7-1.8-3.9-2-6.3-.1-2.2-.1-4.5 0-6.7s.3-4.6.6-7.2c.3-2.7.8-5.1 1.6-7.1.8-1.9 1.6-4 2.5-6.3 1-2.6 2.2-4.4 3.5-5.4s2.7-1.8 4.4-2.5c1.6-.7 3.5-1.4 5.6-2.1 2.4-.8 4.6-1.2 6.7-1 2 .1 4.6.6 7.7 1.4 3.2.8 5.7 1.7 7.6 2.6 1.2.6 2.4 1.4 3.3 2.3-.1-1.2-.2-2.2-.3-3.1-.1-1.6 0-3.1.5-4.3.6-1.5 1.8-2.5 3.3-2.7 1.7-.2 3.1.7 3.9 2.4.6 1.3 1 3.8 1.3 7.6.3 3.6.5 10.6.6 20.8s.3 17.2.4 20.9c.1 3.9.1 6.4-.2 7.8-.4 2.7-2 3.1-2.9 3.1zm-40.6-39c-1.1 3.1-1.6 6.7-1.6 10.4 0 3.9.1 6.9.4 9 .2 1.7.8 2.9 1.7 3.5 1.3.9 2.6 1.9 3.9 2.9 1.1.9 2.7 1.7 4.6 2.5 2 .7 4 1.4 6.1 1.9 1.9.4 3.8.4 5.8-.2s3.8-1.5 5.4-2.8c1.8-1.5 3.4-3.4 4.6-5.4 1.4-2.3 2.5-4.6 3.1-6.9s.8-4.6.7-7-.8-5-2-7.7c-1.5-3.5-2.4-5-2.9-5.6-.7-.9-1.7-2-3.1-3.2-1.1-1-2.5-1.7-4-1.9-1.7-.2-3.4-.4-5-.4h-4.8c-1.5 0-2.3.3-2.6.5-.8.5-2.1 1.2-3.9 2-3.2 2.6-5.3 5.5-6.4 8.4zm64.3 39c-.5 0-.9-.1-1.4-.3-1.3-.6-2-2.2-2.2-4.7-.1-1.9-.8-17.5-2.1-48.5v-1l.2-1.6c.2-1.6 1-3.1 2.4-3.8.6-.3 1.1-.5 1.7-.5 1.2 0 2.5.4 3.1 1.5.8 1.7.7 4.1.9 4.8.3-.3.6-.7 1-1.1 1.7-1.9 4-3.2 6.9-3.9 2.7-.7 5.4-.9 8.1-.8 2.6.1 5 .5 7 1 2.2.6 4.2 1.7 5.9 3.1 1.4 1.2 2.6 2.1 3.5 2.6 1.4.9 2.2 2 2.4 3.4.2 1.3-.1 2.5-.9 3.5-1 1.3-2.1 1.5-2.9 1.5-1 0-2-.4-3.2-1.2-.9-.6-1.6-1.1-2.2-1.5-.7-.4-1.8-1.3-3.3-2.7-1.2-1.1-2.7-1.8-4.3-2.1-1.7-.3-3.8-.3-6.1.2s-4.3 1.3-5.9 2.6c-1.6 1.3-3 2.8-4.1 4.4-.8 1.3-1.1 1.9-1.3 2.1.1 1.2.2 3.8.2 10.5 0 6.9.1 13.6.2 19.7.2 9.2-.5 10.8-1.1 11.5-.6.9-1.5 1.3-2.5 1.3zm77.7-13.1h-7c-2 0-4-.5-6.1-1.4-2-.9-3.9-1.9-5.7-3.1-1.9-1.3-3.7-3.2-5.4-5.5-1.6-2.3-2.5-4.9-2.6-7.7-.1-2.5 0-5.4.4-8.6s.9-6.3 1.5-9.2c.7-3 2.9-8.2 6.7-16l.2-.3.3-.2c1.3-.9 2.4-1.3 3.5-1.3 1.3 0 2.4.7 3 1.8.5 1 .7 2.1.6 3.4-.2 1.2-.7 2.5-1.6 3.7-.5.7-1.4 2.2-2.9 6-1.2 3.1-2.3 6.2-3 9.1-.7 2.8-1 5.8-.7 8.9.3 3.9.9 5.7 1.4 6.5.7 1.2 1.8 2.5 3.2 3.6 1.5 1.2 3.2 2.1 5 2.6 3.7 1.1 7.5 1.1 11.7 0 2-.5 3.8-1.5 5.3-2.9s2.7-2.7 3.4-3.9c.7-1.2 1.3-2.9 1.7-5.1.5-2.3.7-5.1.7-8.3 0-3.1-.6-5.9-1.8-8.3-1.3-2.6-2.4-5-3.3-7-1.7-3.9.3-5.5 1.2-6 1.6-.9 3.3-1.1 4.8-.6 1.3.4 2.8 1.8 5.5 9.1 1.9 5.3 2.9 9.8 2.9 13.4 0 3.5-.3 6.6-.8 9.2s-1.3 5.1-2.4 7.5c-1.1 2.5-3.2 4.8-6.3 6.7-2.9 1.9-5.1 3-6.7 3.4-1.4.3-3.6.5-6.7.5zm41.2 13c-.9 0-2.5-.4-3-3.1-.3-1.4-.4-4-.2-7.8.1-3.7.3-10.7.4-20.9.1-10.2.3-17.2.6-20.8.3-3.5.4-13.4.6-29.2.2-24.6.9-25.2 1.6-25.9.7-.6 2.1-1.2 4.2-.2 1.3.6 2.7 1.9 2.3 5.4-.2 2-.5 10.4-.8 24.9s-.3 23.2-.2 25.9c1.2-1.3 2.5-2.3 4.2-3.1 1.9-.9 4.4-1.8 7.6-2.6 3.1-.8 5.7-1.2 7.7-1.4 2.1-.1 4.4.2 6.7 1 2.2.8 4.1 1.5 5.6 2.1 1.7.7 3.1 1.5 4.4 2.5 1.4 1.1 2.5 2.9 3.5 5.4.9 2.3 1.7 4.4 2.5 6.3.8 2 1.4 4.4 1.6 7.1.3 2.6.5 5 .6 7.2s.1 4.5 0 6.7c-.1 2.4-.8 4.6-2 6.3l-3.1 4.6c-1.1 1.7-2.9 3.4-5.4 5-2.5 1.7-4.6 2.6-6.3 2.9-1.5.3-3.6.6-6.4 1-2.8.4-5.1.5-6.8.4-1.9-.1-3.9-.8-6-1.9s-3.9-2.6-5.6-4.3l-4.3-4.7c-.1 6.3-.5 8-.9 8.8-.9 2-2.2 2.4-3.1 2.4zm22.8-49.8c-1.6 0-3.2.1-5 .4-1.5.2-2.8.8-4 1.9-1.3 1.2-2.4 2.3-3.1 3.2-.5.6-1.4 2.1-2.9 5.6-1.2 2.8-1.9 5.4-2 7.7-.1 2.4.1 4.8.7 7 .6 2.3 1.6 4.6 3.1 6.9 1.2 2 2.8 3.9 4.6 5.4 1.6 1.3 3.5 2.2 5.4 2.8 1.9.6 3.8.6 5.8.2 2.1-.5 4.2-1.1 6.1-1.9 1.9-.7 3.4-1.5 4.6-2.5 1.3-1 2.6-2 3.9-2.9.9-.6 1.5-1.8 1.7-3.5.2-2.1.4-5.2.4-9s-.6-7.3-1.6-10.4c-1-3-3.2-5.8-6.4-8.4-1.8-.8-3.1-1.4-3.9-2-.4-.2-1.1-.5-2.6-.5h-4.8zm93 49.9c-.9 0-2.3-.4-3.3-2.4-.4-.8-.8-2.5-.9-8.8l-4.3 4.7c-1.6 1.8-3.5 3.2-5.6 4.3-1.8 1.1-3.9 1.7-6 1.9-1.8.1-4 0-6.8-.4-2.7-.4-4.8-.7-6.4-1-1.8-.3-3.8-1.2-6.3-2.9-2.5-1.6-4.3-3.3-5.4-5l-3.1-4.6c-1.2-1.8-1.8-3.9-2-6.3-.1-2.2-.1-4.5 0-6.7s.3-4.6.6-7.2c.3-2.7.8-5.1 1.6-7.1.8-1.9 1.6-4 2.5-6.3 1-2.6 2.2-4.4 3.5-5.4s2.7-1.8 4.4-2.5c1.6-.7 3.5-1.4 5.6-2.1 2.4-.8 4.6-1.2 6.7-1 2 .1 4.6.6 7.7 1.4 3.2.8 5.7 1.7 7.6 2.6 1.2.6 2.4 1.4 3.3 2.3-.1-1.2-.2-2.2-.3-3.1-.1-1.6 0-3.1.5-4.3.6-1.5 1.8-2.5 3.3-2.7 1.7-.2 3.1.7 3.9 2.4.6 1.3 1 3.8 1.3 7.6.3 3.6.5 10.6.6 20.8.1 10.4.3 17.2.4 20.9.1 3.9.1 6.4-.2 7.8-.4 2.7-2 3.1-2.9 3.1zm-40.5-39c-1.1 3.1-1.6 6.7-1.6 10.4 0 3.9.1 6.9.4 9 .2 1.7.8 2.9 1.7 3.5 1.3.9 2.6 1.9 3.9 2.9 1.1.9 2.7 1.7 4.6 2.5 2 .7 4 1.4 6.1 1.9 1.9.4 3.8.4 5.8-.2s3.8-1.5 5.4-2.8c1.8-1.5 3.4-3.4 4.6-5.4 1.4-2.3 2.5-4.6 3.1-6.9s.8-4.6.7-7c-.1-2.4-.8-5-2-7.7-1.5-3.5-2.4-5-2.9-5.6-.7-.9-1.7-2-3.1-3.2-1.1-1-2.5-1.7-4-1.9-1.7-.2-3.4-.4-5-.4h-4.8c-1.5 0-2.3.3-2.6.5-.8.5-2.1 1.2-3.9 2-3.2 2.6-5.4 5.5-6.4 8.4zm65.4 37.5c-1 0-2.1-.2-3.2-.7-2-.9-3.2-2-3.4-3.5-.2-1.1-.1-2.3.2-3.6.4-1.7 1.8-3 4.4-4l2-.8v1.1c.4 0 .8.1 1.2.2.7.2 1.5.6 2.6 1.4 1.2.9 2 2 2.3 3.3.4 1.5.1 2.9-.9 4-.8 1-2 1.7-3.4 2.2-.6.3-1.2.4-1.8.4zm33.7-9.2c-.6 0-1.3-.2-2.2-.6-1.3-.8-2.1-2.2-2.3-4.2-.1-1.5-1.2-14.9-3.2-40-.5-1.4-.8-2.8-.8-4.4 0-1.8.4-3.1 1.1-4 .6-.7 1.6-1.5 3.5-1.5 1.1 0 2.9.5 3.4 3.8.3 1.7 1 9.5 2.3 23.7 1.7 19 1.8 22.4 1.7 23.3-.2 1.8-.8 3-1.9 3.6-.4.1-1 .3-1.6.3zm-5.9-57.1c-1.2 0-2.6-.3-4-.9l-.4-.1-.2-.3c-1-1.3-1.8-2.4-2.4-3.2-.5-.8-1-1.6-1.4-2.5-.5-1-.7-2.1-.7-3.4 0-1.1.1-2.2.2-3.4.1-1.3.4-2.5.9-3.5.5-1.2 1.4-2.2 2.7-3 2.4-1.5 5.1-1.5 8.4-.3 1.8.6 3.1 1.8 4.1 3.6.9 1.6 1.4 3.4 1.5 5.4s-.3 4.2-1.3 6.5c-1.1 2.5-2.3 3.9-3.7 4.4-1.3.4-2.5.7-3.7.7zm-.8-7.4c.5.3 1.2.3 1.7 0 0 0 .3-.2.8-1.3.4-.9.5-1.6.5-2.3-.1-.8-.3-1.5-.6-2.1-.2-.4-.5-.7-.9-.8-.9-.4-1.6-.5-2.2-.1-.3.2-.4.4-.5.6-.1.3-.2.7-.2 1.1v1.7c0 .4 0 .8.1 1 .1.3.2.6.4.9.1.2.4.6.9 1.3zm47.4 73.7c-.9 0-2.1-.4-3.2-2.2-.7-1.3-1-3.4-.8-6.8.2-2.9.1-12-.1-27-.2-12.6-.3-20.7-.3-23.2-.7-.1-2.4-.2-6.2.2-5.4.6-8.8.7-10.3.6-3.1-.4-3.4-2.2-3.4-3 0-1 .4-2.3 2.2-3.4.6-.4 1.7-1 18.3-2.2-.3-6.5-.5-13-.6-19.4-.2-10.1.7-11.8 1.5-12.6 1.5-1.5 2.9-1.6 3.8-1.5 2.2.3 2.7 3.3 3 6.2.3 3.1.5 8.2.6 15.4.1 7.3.3 9.9.4 10.8.4.1 1.4.2 3.5.1 3-.2 5.4-.3 7.1-.4 2.2-.1 3.7.5 4.7 1.6.5.6 1.6 2.4-.4 4.6-1.2 1.3-3.2 2-6.3 2-2.5 0-4.9.1-7 .2-1.1.1-1.6.2-1.9.3 0 1.6-.1 7.3-.2 18-.1 11.4-.1 20.3.2 26.6.4 8.7-.4 11.2-1.1 12.3-.7 1.1-1.8 2.8-3.5 2.8z"/></g></svg>