<svg xmlns="http://www.w3.org/2000/svg" role="img" viewBox="-4.59 13.41 407.68 217.93"><title>Aspen Mesh (member) logo</title><style>svg {enable-background:new 0 0 1400 980}</style><defs><clipPath id="a"><path d="M0 0h103.609v63.46H0V0z"/></clipPath></defs><path fill="#fff" fill-opacity="0" d="M0 0h400v245H0z" pointer-events="none"/><g clip-path="url(#a)" transform="translate(0 .001) scale(3.86067)"><path d="M103.609 103.603H-99.968"/><path fill="none" d="M0 0h103.609v63.46H0V0z"/><path fill="none" d="M0 0h103.609v63.46H0V0z"/><path fill="#E40593" d="M37.32 31.706c-.252-.158-.155-.411-.155-.624-.005-5.176 0-10.351-.013-15.527-.023-.35.14-.687.428-.887q5.627-4.439 11.234-8.905c.089-.08.174-.164.253-.253h.125c-.011 2.62-.036 5.239-.021 7.859.025.412-.172.807-.516 1.035-1.546 1.197-3.067 2.425-4.601 3.637a.706.706 0 0 0-.355.601c.013 2.538.007 5.077.013 7.615a.933.933 0 0 0 .095.281c.013.285-.233.376-.403.509-2.013 1.573-4.069 3.089-6.084 4.659zm23.625-5.173c.186-.169.103-.391.104-.588.006-2.37-.008-4.741.015-7.111a.98.98 0 0 0-.444-.874c-1.558-1.214-3.096-2.451-4.646-3.675a.718.718 0 0 1-.365-.601c.014-2.579.013-5.157.02-7.735a2.66 2.66 0 0 1 .064-.376c.471.369.893.697 1.312 1.029q5.057 4.009 10.118 8.012c.343.228.54.62.519 1.032-.02 5.115-.011 10.23-.016 15.345 0 .198.082.416-.084.594-.284.032-.458-.172-.652-.318-1.855-1.399-3.696-2.819-5.547-4.225-.171-.13-.417-.222-.398-.509z"/><path fill="#D30057" d="M60.945 26.533l6.597 5.052c-.586.59-1.296 1.022-1.956 1.517-1.494 1.123-3.012 2.217-4.5 3.349-.329.25-.526.23-.841-.021-1.396-1.115-2.815-2.202-4.23-3.294a.767.767 0 0 1-.399-.647c.013-3.222.01-6.445.013-9.668.015-.103.037-.205.067-.305l5.249 4.017zM37.32 31.706c.294-.673.977-.917 1.499-1.329 1.645-1.302 3.323-2.563 4.988-3.839l5.237-4.003c.18.184.108.357.108.509.006 3.077-.003 6.154.014 9.231a.97.97 0 0 1-.43.881c-1.441 1.09-2.863 2.207-4.287 3.32-.206.161-.353.281-.634.07-2.156-1.625-4.328-3.23-6.495-4.841v.001z"/><path d="M9.206 54.315H4.098l-1.329 2.897H.83l5.903-12.679 5.695 12.679h-1.971l-1.251-2.897zm-.734-1.693l-1.77-4.056-1.854 4.056h3.624zm12.35-5.563l-1.46.865a2.507 2.507 0 0 0-.78-.927 1.825 1.825 0 0 0-.997-.247 1.841 1.841 0 0 0-1.244.425 1.32 1.32 0 0 0-.495 1.051q0 .873 1.298 1.406l1.19.487q1.453.587 2.125 1.433c.458.593.696 1.326.673 2.075a3.645 3.645 0 0 1-1.098 2.72 3.762 3.762 0 0 1-2.743 1.081 3.673 3.673 0 0 1-2.565-.919q-.997-.92-1.244-2.588l1.824-.402q.123 1.051.432 1.452a2.057 2.057 0 0 0 3.021.209c.373-.381.574-.897.557-1.43a2.026 2.026 0 0 0-.097-.637 1.636 1.636 0 0 0-.301-.533 2.405 2.405 0 0 0-.53-.456 5.117 5.117 0 0 0-.772-.406l-1.152-.479q-2.449-1.035-2.449-3.029a2.872 2.872 0 0 1 1.028-2.248 3.711 3.711 0 0 1 2.557-.912q2.063 0 3.222 2.009zm4.439 5.308v4.845h-1.8v-11.93h2.04c.76-.024 1.52.046 2.264.209.514.139.983.411 1.359.788a3.395 3.395 0 0 1 1.028 2.534 3.273 3.273 0 0 1-1.097 2.597q-1.097.957-2.959.958l-.835-.001zm0-1.668h.672q2.481 0 2.481-1.909 0-1.847-2.558-1.847h-.595v3.756zm13.487-3.725h-4.783v2.867h4.643v1.692h-4.643v3.987h4.783v1.692h-6.583v-11.93h6.583v1.692zm2.522 10.238V44.471l8.7 9.102v-8.291h1.8v12.656l-8.7-9.078v8.352h-1.8zm18.142 0l2.511-12.826 4.095 9.272 4.242-9.272 2.256 12.826h-1.847l-1.151-7.201-3.531 7.75-3.43-7.758-1.283 7.209h-1.862zm22.372-10.238h-4.783v2.867h4.644v1.692h-4.644v3.987h4.783v1.692h-6.583v-11.93h6.583v1.692zm9.268.085l-1.461.865a2.507 2.507 0 0 0-.78-.927 1.823 1.823 0 0 0-.997-.247 1.84 1.84 0 0 0-1.243.425 1.317 1.317 0 0 0-.495 1.051q0 .873 1.298 1.406l1.19.487q1.453.587 2.125 1.433c.457.593.695 1.326.672 2.075a3.648 3.648 0 0 1-1.097 2.72 3.768 3.768 0 0 1-2.743 1.081 3.67 3.67 0 0 1-2.565-.919q-.997-.92-1.244-2.588l1.823-.402q.123 1.051.433 1.452a2.055 2.055 0 0 0 3.021.209 1.95 1.95 0 0 0 .556-1.43 2.025 2.025 0 0 0-.096-.637 1.62 1.62 0 0 0-.302-.533 2.377 2.377 0 0 0-.529-.456 5.08 5.08 0 0 0-.773-.406l-1.151-.479q-2.449-1.035-2.449-3.029a2.872 2.872 0 0 1 1.028-2.248 3.71 3.71 0 0 1 2.557-.912q2.063 0 3.222 2.009zm4.439 2.89h5.145v-4.667h1.801v11.93h-1.801v-5.571h-5.145v5.571H93.69v-11.93h1.801v4.667z"/></g></svg>