<svg xmlns="http://www.w3.org/2000/svg" role="img" viewBox="-2.38 9.37 358.02 298.27"><title>Athenz logo</title><style>.st0{fill:none;} .st1{fill:url(#SVGID_1_);} .st2{fill:url(#SVGID_2_);} .st3{fill:url(#SVGID_3_);} .st4{fill:url(#SVGID_4_);} .st5{fill:#303030;} .st6{fill:url(#SVGID_5_);} .st7{fill:url(#SVGID_6_);} .st8{fill:url(#SVGID_7_);} .st9{fill:url(#SVGID_8_);} .st10{fill:url(#SVGID_9_);} .st11{fill:url(#SVGID_10_);} .st12{fill:url(#SVGID_11_);} .st13{fill:url(#SVGID_12_);} .st14{fill:#FFFFFF;} .st15{fill:url(#SVGID_13_);} .st16{fill:url(#SVGID_14_);} .st17{fill:url(#SVGID_15_);} .st18{fill:url(#SVGID_16_);} .st19{fill:#058AE5;}</style><style>.st5{fill:#303030}</style><style>.st5{fill:#303030}</style><style>.st5{fill:#303030}</style><style>.st5{fill:#303030}</style><style>.st5{fill:#303030}</style><g id="svg_1" stroke="null"><g id="svg_2"><path id="svg_3" fill="none" d="M122.101 71.314c-.29 2.8-.386 5.696-.386 8.593 0 36.301 22.882 67.39 55.032 79.362 32.054-11.972 55.032-43.06 55.032-79.362 0-2.897-.096-5.793-.386-8.593-14.675-12.551-33.792-20.178-54.55-20.178-20.95 0-40.066 7.53-54.742 20.178z"/><linearGradient id="SVGID_1_" x1="241.636" x2="128.009" y1="34.593" y2="34.593" gradientUnits="userSpaceOnUse" transform="translate(-2.541 10.393) scale(.96547)"><stop offset=".001" stop-color="#2D4BFF"/><stop offset=".999" stop-color="#058AE5"/></linearGradient><path id="svg_4" fill="url(#SVGID_1_)" d="M176.65 51.136c20.758 0 39.875 7.627 54.55 20.178l32.343-17.186A119.556 119.556 0 0 0 207.16 20.24c-9.752-2.606-19.986-3.958-30.51-3.958-10.523 0-20.757 1.352-30.605 3.958-21.916 5.793-41.322 17.765-56.383 33.888l32.343 17.186c14.772-12.648 33.888-20.178 54.646-20.178z"/><linearGradient id="SVGID_2_" x1="208.167" x2="265.125" y1="167.826" y2="77.965" gradientUnits="userSpaceOnUse" transform="translate(-2.541 10.393) scale(.96547)"><stop offset=".001" stop-color="#2D4BFF"/><stop offset=".999" stop-color="#058AE5"/></linearGradient><path id="svg_5" fill="url(#SVGID_2_)" d="M263.543 54.128l-32.247 17.09c.29 2.8.387 5.696.387 8.592 0 36.302-22.882 67.39-55.032 79.362v36.398c23.654-5.986 44.411-19.116 60.052-36.88a119.097 119.097 0 0 0 22.882-39.006c4.441-12.454 6.758-25.875 6.758-39.874 0-8.786-.965-17.378-2.8-25.682z"/><linearGradient id="SVGID_3_" x1="106.294" x2="162.423" y1="77.406" y2="168.374" gradientUnits="userSpaceOnUse" transform="translate(-2.541 10.393) scale(.96547)"><stop offset=".001" stop-color="#2D4BFF"/><stop offset=".999" stop-color="#058AE5"/></linearGradient><path id="svg_6" fill="url(#SVGID_3_)" d="M121.619 79.81c0-2.896.096-5.793.386-8.593L89.758 54.128a118.932 118.932 0 0 0-2.8 25.682c0 14 2.414 27.42 6.759 39.874a119.097 119.097 0 0 0 22.881 39.005c15.64 17.765 36.399 30.895 60.053 36.881v-36.398c-32.054-11.875-55.032-42.964-55.032-79.362z"/><linearGradient id="SVGID_4_" x1="157.609" x2="222.244" y1="108.662" y2="69.606" gradientUnits="userSpaceOnUse" transform="translate(-2.541 10.393) scale(.96547)"><stop offset=".001" stop-color="#058AE5"/><stop offset=".999" stop-color="#2D4BFF"/></linearGradient><path id="svg_7" fill="url(#SVGID_4_)" d="M176.65 68.514a66.397 66.397 0 0 1 36.785 11.103c.58.386.87.965.87 1.641-.29 13.517-4.539 26.358-12.262 37.364-6.373 9.076-14.772 16.317-24.523 21.24-.58.29-1.159.29-1.738 0-9.752-4.923-18.151-12.164-24.523-21.24-7.724-11.006-11.972-23.944-12.262-37.364 0-.676.29-1.255.87-1.641a66.397 66.397 0 0 1 36.784-11.103"/></g><g id="svg_8"><path id="svg_9" stroke="null" d="M55.194 280.822H27.485l-3.862 12.358c-1.255 4.055-5.02 6.758-9.172 6.758H4.507l25.102-72.41c1.352-3.862 5.02-6.47 9.076-6.47h12.55l27.517 78.977H68.325c-4.249 0-7.917-2.704-9.172-6.759l-3.959-12.454zm-24.137-12.358h20.661L41.581 236.12h-.386l-10.138 32.344z" class="st5"/><path id="svg_10" stroke="null" d="M111.192 241.334v7.24c0 2.704-2.124 4.828-4.828 4.828h-4.344v36.978c0 5.31-4.345 9.655-9.655 9.655h-6.276v-46.633h-9.268v-7.24c0-2.704 2.124-4.828 4.827-4.828h4.441v-10.62c0-5.31 4.345-9.655 9.655-9.655h6.276v20.275h9.172z" class="st5"/><path id="svg_11" stroke="null" d="M127.412 221.059h6.082v30.798h.29c3.282-7.53 9.558-11.392 18.44-11.392 13.034 0 20.468 8.4 20.468 22.013v27.902c0 5.31-4.344 9.655-9.655 9.655h-6.275v-34.082c0-7.53-3.765-12.165-11.006-12.165-7.531 0-11.972 5.31-11.972 13.034v23.558c0 5.31-4.345 9.655-9.655 9.655h-6.276V230.81a9.562 9.562 0 0 1 9.559-9.751z" class="st5"/><path id="svg_12" stroke="null" d="M233.807 282.077C232.069 293.469 221.449 301 207.063 301c-17.958 0-28.868-11.393-28.868-30.123s11.007-30.605 28.289-30.605c16.992 0 27.805 11.296 27.805 29.157h0c0 2.703-2.124 4.827-4.827 4.827h-35.626v.966c0 8.303 5.407 13.903 13.42 13.903 4.152 0 7.724-1.449 9.945-3.862 1.834-2.028 4.248-3.283 6.95-3.283l9.656.097zm-39.778-17.572h24.91c-.29-7.53-5.214-12.454-12.262-12.454-6.952.096-12.069 5.213-12.648 12.454z" class="st5"/><path id="svg_13" stroke="null" d="M249.93 241.334h5.793v10.523h.29c3.379-7.53 9.268-11.392 18.344-11.392 13.033 0 20.371 8.206 20.371 21.916v27.999c0 5.31-4.345 9.655-9.655 9.655h-6.275V265.76c0-7.627-3.573-12.068-10.814-12.068-7.24 0-11.682 5.213-11.682 12.937v23.75c0 5.31-4.344 9.656-9.655 9.656h-6.275v-48.95a9.562 9.562 0 0 1 9.558-9.751z" class="st5"/><path id="svg_14" stroke="null" d="M300.424 294.242c0-2.124.773-4.248 2.028-5.986l27.13-34.371v-.29H300.81v-2.51c0-5.31 4.344-9.655 9.654-9.655h37.654v6.855c0 2.124-.676 4.152-1.931 5.89l-25.489 33.308v.29h28.096v2.607c0 5.31-4.345 9.655-9.655 9.655h-38.716v-5.793z" class="st5"/></g></g></svg>