<svg xmlns="http://www.w3.org/2000/svg" role="img" viewBox="138.49 71.24 300.77 338.52"><title>Atmo logo</title><style>svg {enable-background:new 0 0 576 504}</style><style>.st7{fill:#4c6275}.st8{fill:#303e4e}</style><path d="M189.2 387.9H158l-6.7 15h-6.2l25.6-56h5.8l25.6 56H196l-6.8-15zm-2.1-4.8L173.6 353l-13.4 30.1h26.9zm48.5-31.2h-19.7v-5.1h45.3v5.1h-19.7v50.9h-5.9v-50.9zm109.2-5.1v56h-5.7V358l-22 37.7h-2.8l-22-37.4v44.6h-5.7v-56h4.9l24.3 41.5 24.1-41.5h4.9zm43.6 52.8c-4.5-2.5-8-5.9-10.6-10.2-2.5-4.3-3.8-9.2-3.8-14.6s1.3-10.2 3.8-14.6c2.5-4.3 6.1-7.7 10.6-10.2s9.5-3.7 15.1-3.7 10.5 1.2 15 3.7 8 5.9 10.5 10.2c2.6 4.3 3.8 9.2 3.8 14.6s-1.3 10.3-3.8 14.6c-2.6 4.3-6.1 7.7-10.5 10.2-4.5 2.5-9.5 3.7-15 3.7s-10.6-1.2-15.1-3.7zm27.1-4.6c3.6-2 6.4-4.8 8.4-8.3 2-3.5 3-7.5 3-11.9s-1-8.3-3-11.9c-2-3.5-4.8-6.3-8.4-8.3s-7.6-3-12-3-8.4 1-12 3c-3.6 2-6.4 4.8-8.5 8.3-2.1 3.5-3.1 7.5-3.1 11.9s1 8.3 3.1 11.9c2.1 3.5 4.9 6.3 8.5 8.3 3.6 2 7.6 3 12 3s8.4-1 12-3z" class="st7"/><path d="M383.4 237.4V135.9c0-2.7-1.4-5.2-3.8-6.5l-87.9-50.7c-2.3-1.3-5.2-1.3-7.5 0l-87.9 50.7c-2.3 1.3-3.8 3.8-3.8 6.5v101.4c0 2.7 1.4 5.2 3.8 6.5l87.9 50.7c2.3 1.3 5.2 1.3 7.5 0l87.9-50.7c2.3-1.3 3.8-3.7 3.8-6.4z" class="st7"/><path d="M222.5 241.4l65.5-37.8 65.5 37.8-65.5 37.8z" class="st8"/><path fill="#74c2b0" d="M353.2 224v-75.3L288 111l-65.2 37.7V224l65.2 37.7z"/><path d="M222.5 148.9L288 111l65.5 37.9-65.5 37.8z" class="st8"/></svg>