<svg xmlns="http://www.w3.org/2000/svg" role="img" viewBox="-10.06 -10.06 523.12 111.62"><title>AuriStor (member) logo</title><defs><style>.cls-1{fill:#f1c618}</style></defs><path d="M277.54 11.23l7.59 7.59c2 2 3.09 4 3.19 5.92a6.48 6.48 0 0 1-2.08 5.12 6.72 6.72 0 0 1-5.21 2.18c-1.93-.1-3.9-1.17-5.93-3.19l-8.13-8.13a31.39 31.39 0 0 0-7.87-6 11.31 11.31 0 0 0-7.61-1q-3.9.84-8.16 5.09-5.88 5.88-5.18 11.43t7 11.9l8.33 8.34q3.06 3.03 3.22 5.9a6.57 6.57 0 0 1-2.1 5.12 6.77 6.77 0 0 1-5.17 2.16q-2.91-.1-6-3.17l-7.59-7.59a50.05 50.05 0 0 1-8.56-10.82 21.11 21.11 0 0 1-2.55-11.1 23.4 23.4 0 0 1 2.64-9.93 39 39 0 0 1 7.22-9.52 48.94 48.94 0 0 1 11.06-8.6 22.31 22.31 0 0 1 10.54-2.9 21.68 21.68 0 0 1 10.44 2.8 47.83 47.83 0 0 1 10.91 8.4z" class="cls-1"/><path d="M231.94 80.53l-7.58-7.58q-3-3-3.19-5.93a6.51 6.51 0 0 1 2.07-5.12 6.7 6.7 0 0 1 5.22-2.18c1.93.11 3.9 1.17 5.92 3.2l8.16 8.13a31.35 31.35 0 0 0 7.86 6 11.34 11.34 0 0 0 7.62 1q3.9-.83 8.15-5.09 5.88-5.88 5.19-11.43t-7-11.9l-8.4-8.25c-2-2.05-3.12-4-3.22-5.93a6.54 6.54 0 0 1 2.11-5.12 6.83 6.83 0 0 1 5.17-2.16c1.93.07 3.93 1.13 6 3.18l7.52 7.54a49.85 49.85 0 0 1 8.57 10.83 21.24 21.24 0 0 1 2.55 11.09 23.4 23.4 0 0 1-2.64 9.93 38.68 38.68 0 0 1-7.23 9.52 48.91 48.91 0 0 1-11.05 8.6 22.23 22.23 0 0 1-10.54 2.9 21.66 21.66 0 0 1-10.44-2.8 47.65 47.65 0 0 1-10.82-8.43z" class="cls-1"/><path fill="#025b9e" d="M29.72 11.5h12.53l29.91 68.76H55.07L49.14 65.7h-26.7l-5.73 14.56H0zm5.83 20L27.2 52.87H44zm93.99 22.25a33.12 33.12 0 0 1-1.85 11.26 24.67 24.67 0 0 1-5.49 8.94 25.11 25.11 0 0 1-9.08 5.92 34.16 34.16 0 0 1-12.53 2.14 34.47 34.47 0 0 1-12.62-2.14 25.11 25.11 0 0 1-9.08-5.92 24.51 24.51 0 0 1-5.48-8.94 32.88 32.88 0 0 1-1.87-11.26V11.5h15.17v41.67a16.73 16.73 0 0 0 1 5.92 14.2 14.2 0 0 0 2.86 4.71 12.88 12.88 0 0 0 4.42 3.11 13.93 13.93 0 0 0 5.58 1.11 13.6 13.6 0 0 0 5.54-1.11 13.07 13.07 0 0 0 4.43-3.11 14.39 14.39 0 0 0 2.87-4.71 16.73 16.73 0 0 0 1-5.92V11.5h15.13zm7.67-42.25h26.61a46.93 46.93 0 0 1 9.95 1 23.81 23.81 0 0 1 8.26 3.39 17 17 0 0 1 5.63 6.49 21.74 21.74 0 0 1 2.09 10 20.17 20.17 0 0 1-3.79 12.39c-2.52 3.4-6.22 5.55-11.07 6.46l17.48 29H174.2l-14.36-27.45h-7.48v27.48h-15.15zm15.15 28.46h8.93q2 0 4.32-.15a13.52 13.52 0 0 0 4.13-.87 7.07 7.07 0 0 0 3.06-2.28 6.93 6.93 0 0 0 1.21-4.37 7.29 7.29 0 0 0-1.06-4.18 7.4 7.4 0 0 0-2.72-2.38 12.08 12.08 0 0 0-3.79-1.11 30 30 0 0 0-4.18-.29h-9.9zM197 11.5h15.16v68.76H197zm120.64 13.41h-19.61V11.5h54.38v13.41h-19.62v55.35h-15.15zm36.75 20.97a38.92 38.92 0 0 1 2.76-15 32.86 32.86 0 0 1 7.72-11.41 34.17 34.17 0 0 1 11.76-7.24 45.07 45.07 0 0 1 29.72 0 34.17 34.17 0 0 1 11.74 7.24 32.59 32.59 0 0 1 7.72 11.41 38.92 38.92 0 0 1 2.77 15 38.94 38.94 0 0 1-2.77 15 32.59 32.59 0 0 1-7.72 11.41 34.17 34.17 0 0 1-11.74 7.24 45.07 45.07 0 0 1-29.72 0 34.17 34.17 0 0 1-11.76-7.24 32.86 32.86 0 0 1-7.72-11.41 38.94 38.94 0 0 1-2.76-15zm15.73 0a25.28 25.28 0 0 0 1.5 8.89 20.2 20.2 0 0 0 4.33 7 19.68 19.68 0 0 0 6.74 4.61 24.24 24.24 0 0 0 17.58 0 20 20 0 0 0 6.76-4.61 20.48 20.48 0 0 0 4.32-7 25.28 25.28 0 0 0 1.5-8.89 25.38 25.38 0 0 0-1.5-8.83 20.55 20.55 0 0 0-4.32-7 20 20 0 0 0-6.76-4.67 24.24 24.24 0 0 0-17.58 0 19.68 19.68 0 0 0-6.74 4.61 20.27 20.27 0 0 0-4.33 7.05 25.38 25.38 0 0 0-1.5 8.84zm65.36-34.38h26.61a46.93 46.93 0 0 1 9.95 1 23.73 23.73 0 0 1 8.26 3.39 17.11 17.11 0 0 1 5.63 6.49 21.74 21.74 0 0 1 2.09 10 20.17 20.17 0 0 1-3.79 12.39q-3.78 5.1-11.07 6.46l17.48 29h-18.16L458.1 52.78h-7.47v27.48h-15.15zm15.15 28.46h8.91c1.37 0 2.8 0 4.32-.15a13.65 13.65 0 0 0 4.14-.87 7.18 7.18 0 0 0 3.06-2.28 7 7 0 0 0 1.21-4.37 6.7 6.7 0 0 0-3.73-6.56 12.08 12.08 0 0 0-3.79-1.11 30.09 30.09 0 0 0-4.21-.24h-9.9zm46.19-28.15a6.07 6.07 0 0 1 6.26 6.26 6.26 6.26 0 0 1-12.51 0 6.07 6.07 0 0 1 6.25-6.26zm0 11a4.46 4.46 0 0 0 4.37-4.76 4.38 4.38 0 1 0-8.73 0 4.44 4.44 0 0 0 4.36 4.78zm-2.47-7.36a.71.71 0 0 1 .74-.75h2.11c1.5 0 2.41.45 2.41 2a1.71 1.71 0 0 1-1.54 1.89l1.09 1.46a1 1 0 0 1 .22.66.68.68 0 0 1-.72.58 1 1 0 0 1-.86-.53l-1.53-2.17h-.43v1.94a.7.7 0 0 1-.75.76.71.71 0 0 1-.74-.76zm1.49 1.93h1.28c.48 0 .9-.13.9-.76s-.42-.75-.9-.75h-1.28z"/></svg>