<?xml version="1.0" encoding="UTF-8" standalone="yes"?>
<svg version="1.1" id="Layer_1" xmlns="http://www.w3.org/2000/svg" xmlns:xlink="http://www.w3.org/1999/xlink" x="0px" y="0px" viewBox="-1.48 -0.17 150.96 17.34" style="enable-background:new 0 0 148.4 17.8;" xml:space="preserve">
  <style type="text/css">
	.st0{fill:#DF4825;}
</style>
  <path class="st0" d="M46.4,8.3C44,8.4,42,8.6,40.3,8.9c-1.7,0.2-3.1,0.5-4.2,0.9c-1.1,0.4-1.9,0.8-2.4,1.2c-0.5,0.5-0.8,1-0.8,1.6&#xA;&#x9;c0,0.5,0.1,0.9,0.4,1.3c0.2,0.4,0.6,0.7,1.1,0.9c0.5,0.3,1,0.4,1.7,0.6c0.7,0.1,1.4,0.2,2.2,0.2c0.5,0,1,0,1.5-0.1&#xA;&#x9;c0.5-0.1,1-0.1,1.5-0.2c0.5-0.1,1-0.2,1.5-0.4c0.5-0.1,1-0.3,1.4-0.4c0.4-0.2,0.8-0.3,1.2-0.5c0.4-0.2,0.7-0.4,0.9-0.6V8.3z&#xA;&#x9; M46.4,16.5v-1.7c-0.5,0.3-1.1,0.5-1.8,0.8c-0.7,0.2-1.4,0.5-2.1,0.6c-0.7,0.2-1.5,0.3-2.3,0.4c-0.8,0.1-1.6,0.1-2.3,0.1&#xA;&#x9;c-1,0-1.9-0.1-2.6-0.3c-0.8-0.2-1.4-0.4-2-0.8c-0.5-0.3-1-0.8-1.3-1.3c-0.3-0.5-0.4-1.1-0.4-1.8c0-0.7,0.2-1.3,0.5-1.8&#xA;&#x9;c0.3-0.5,0.8-1,1.5-1.4c0.6-0.4,1.4-0.7,2.3-1c0.9-0.3,1.9-0.5,3-0.7s2.3-0.3,3.6-0.5c1.3-0.1,2.6-0.2,4-0.3V5.9&#xA;&#x9;c0-0.5-0.1-0.9-0.3-1.2C46,4.3,45.7,4,45.4,3.8c-0.3-0.3-0.7-0.5-1.1-0.7c-0.4-0.2-0.9-0.3-1.4-0.4c-0.5-0.1-1-0.2-1.6-0.2&#xA;&#x9;c-0.5,0-1.1-0.1-1.6-0.1c-0.7,0-1.4,0-2,0.1c-0.6,0.1-1.2,0.2-1.7,0.3c-0.5,0.1-1,0.3-1.5,0.4c-0.5,0.2-1,0.3-1.5,0.5V2.1&#xA;&#x9;c1-0.3,2.1-0.5,3.3-0.7c1.2-0.2,2.4-0.3,3.7-0.3c1.1,0,2.1,0.1,3.1,0.3c1,0.2,1.8,0.5,2.5,0.9c0.7,0.4,1.3,0.9,1.7,1.6&#xA;&#x9;c0.4,0.6,0.6,1.4,0.6,2.4v10.2H46.4z"/>
  <path class="st0" d="M91.2,8.3c-2.4,0.1-4.4,0.3-6.1,0.6c-1.7,0.2-3.1,0.5-4.2,0.9c-1.1,0.4-1.9,0.8-2.4,1.2c-0.5,0.5-0.8,1-0.8,1.6&#xA;&#x9;c0,0.5,0.1,0.9,0.4,1.3c0.2,0.4,0.6,0.7,1.1,0.9c0.5,0.3,1,0.4,1.7,0.6c0.7,0.1,1.4,0.2,2.2,0.2c0.5,0,1,0,1.5-0.1&#xA;&#x9;c0.5-0.1,1-0.1,1.5-0.2c0.5-0.1,1-0.2,1.5-0.4s1-0.3,1.4-0.4c0.4-0.2,0.8-0.3,1.2-0.5c0.4-0.2,0.7-0.4,0.9-0.6V8.3z M91.2,16.5v-1.7&#xA;&#x9;c-0.5,0.3-1.1,0.5-1.8,0.8c-0.7,0.2-1.4,0.5-2.1,0.6c-0.7,0.2-1.5,0.3-2.3,0.4c-0.8,0.1-1.6,0.1-2.3,0.1c-1,0-1.9-0.1-2.6-0.3&#xA;&#x9;c-0.8-0.2-1.4-0.4-2-0.8c-0.5-0.3-1-0.8-1.3-1.3c-0.3-0.5-0.4-1.1-0.4-1.8c0-0.7,0.2-1.3,0.5-1.8c0.3-0.5,0.8-1,1.5-1.4&#xA;&#x9;c0.6-0.4,1.4-0.7,2.3-1c0.9-0.3,1.9-0.5,3-0.7c1.1-0.2,2.3-0.3,3.6-0.5c1.3-0.1,2.6-0.2,4-0.3V5.9c0-0.5-0.1-0.9-0.3-1.2&#xA;&#x9;c-0.2-0.4-0.4-0.7-0.7-0.9c-0.3-0.3-0.7-0.5-1.1-0.7c-0.4-0.2-0.9-0.3-1.4-0.4c-0.5-0.1-1-0.2-1.6-0.2c-0.5,0-1.1-0.1-1.6-0.1&#xA;&#x9;c-0.7,0-1.4,0-2,0.1c-0.6,0.1-1.2,0.2-1.7,0.3c-0.5,0.1-1,0.3-1.5,0.4c-0.5,0.2-1,0.3-1.5,0.5V2.1c1-0.3,2.1-0.5,3.3-0.7&#xA;&#x9;c1.2-0.2,2.4-0.3,3.7-0.3c1.1,0,2.1,0.1,3.1,0.3c1,0.2,1.8,0.5,2.5,0.9c0.7,0.4,1.3,0.9,1.7,1.6c0.4,0.6,0.6,1.4,0.6,2.4v10.2H91.2z&#xA;&#x9;"/>
  <path class="st0" d="M123.6,2.4c-0.4-0.1-0.9-0.1-1.5-0.1c-0.8,0-1.6,0.1-2.3,0.3c-0.7,0.2-1.4,0.5-2,0.8c-0.6,0.3-1.2,0.7-1.7,1.2&#xA;&#x9;c-0.5,0.5-1,0.9-1.4,1.5v10.5h-1.4V1.4h1.4v3.1c0.5-0.5,1-1,1.6-1.4c0.6-0.4,1.2-0.8,1.8-1.1c0.6-0.3,1.3-0.5,2-0.7&#xA;&#x9;c0.7-0.2,1.4-0.3,2.2-0.3c0.3,0,0.5,0,0.7,0c0.2,0,0.4,0,0.6,0s0.3,0,0.5,0.1c0.2,0,0.3,0,0.5,0.1v1.4C124.3,2.5,124,2.4,123.6,2.4"/>
  <path class="st0" d="M23.2,12l-2.5-3.1l-4.6-5.8l-1.4-1.8C14.1,0.5,13.1,0,12,0c-1.1,0-2.1,0.5-2.8,1.4L7.8,3.1L3.2,8.9L0.8,12&#xA;&#x9;c-1.2,1.6-1,3.8,0.6,5c0.7,0.5,1.4,0.8,2.2,0.8c1.1,0,2.1-0.5,2.8-1.4l1.4-1.8l3.6-4.6L9.6,6.5l1.5,1.9l0.8,1l4.2,5.3l1.4,1.8&#xA;&#x9;c0.7,0.9,1.8,1.4,2.8,1.4c0.8,0,1.6-0.2,2.2-0.8C24.1,15.8,24.4,13.6,23.2,12"/>
  <polygon class="st0" points="60.4,16.5 58.3,16.5 50.8,1.4 52.3,1.4 59.4,15.6 66.5,1.4 68,1.4 "/>
  <polygon class="st0" points="103.5,2.7 103.5,16.5 102.1,16.5 102.1,2.7 95.2,2.7 95.2,1.4 110.3,1.4 110.3,2.7 "/>
  <polygon class="st0" points="140.2,9.7 133.7,16.5 131.9,16.5 139.3,8.8 132.3,1.4 134,1.4 140.2,7.9 146.3,1.4 148.1,1.4 &#xA;&#x9;141.1,8.8 148.4,16.5 146.7,16.5 "/>
  <rect x="71.1" y="1.4" class="st0" width="1.4" height="15.1"/>
  <rect x="127" y="1.4" class="st0" width="1.4" height="15.1"/>
</svg>