<svg xmlns="http://www.w3.org/2000/svg" viewBox="-0.06 -0.06 237.12 263.12"><title>AWS Lambda logo</title><defs><style>.cls-1{fill:#9d5125}.cls-2{fill:#f58534}</style></defs><path d="M35.45 165.14l10.6 5.2 18.7-64-18.7-64.3-10.6 5.3v117.8z" class="cls-1"/><path d="M66.55 46.94l-20.5-4.8v128.2l20.5-4.8V46.94z" class="cls-2"/><path d="M58.75 35.74l15.599-7.8 19.401 78.4-19.401 78.2-15.599-7.8v-141z" class="cls-1"/><path d="M106.15 174.14l-31.801 10.1V27.94l31.801 10.2v136z" class="cls-2"/><path d="M178.45 55.44h12.8v97.5l-12.8-.7v-96.8z" class="cls-1"/><path fill="#6b3b19" d="M129.049 56.84l14.3-7.4 46.901 6 1.4 12.5-12.9 1.8-49.701-12.9z"/><path fill="#fcbf92" d="M129.45 155.64l14.3 7.4 48.299-18.5-12.899-1.8-49.7 12.9z"/><path d="M133.049 134.94l25.601 3.4v-64.2l-25.601 3.4v57.4z" class="cls-1"/><path d="M93.75 194.24l24.9 12.4 21.3-100.5-21.3-100.3-24.9 12.4v176z" class="cls-1"/><path d="M191.25 144.74l-47.7 14.3V53.44l47.7 14.3v77zm-72.6-138.9v200.9l83.2-41.6V47.44z" class="cls-2"/><path d="M158.65 74.14v64.4l26.5-32.2-26.5-32.2z" class="cls-2"/><path d="M14.418 231.774h6.09l9.115 25.76h-5.837l-1.7-5.294h-9.487l-1.746 5.294h-5.63zm-.355 16.026h6.598l-3.254-10.137zm20.384-16.026l3.4 14.752.741 4.105.744-4.021 2.909-14.836h5.68l3.061 14.75.784 4.107.795-3.947 3.434-14.91h5.48l-7.247 25.76h-5.153l-3.112-15.064-.908-4.981-.909 4.981-3.111 15.065h-5l-7.303-25.761zm34.157 17.808a5.216 5.216 0 0 0 .981 2.64q1.338 1.59 4.586 1.59a9.874 9.874 0 0 0 3.159-.42 2.998 2.998 0 0 0 2.301-2.988 2.204 2.204 0 0 0-1.127-1.975 12.245 12.245 0 0 0-3.577-1.206l-2.789-.611a17.353 17.353 0 0 1-5.648-1.975 6.281 6.281 0 0 1-2.605-5.575 7.403 7.403 0 0 1 2.548-5.75q2.547-2.29 7.483-2.29a11.477 11.477 0 0 1 7.033 2.159A7.672 7.672 0 0 1 84 239.447h-5.172a3.69 3.69 0 0 0-2.079-3.304 7.125 7.125 0 0 0-3.206-.647 6.108 6.108 0 0 0-3.405.84 2.654 2.654 0 0 0-1.272 2.341 2.208 2.208 0 0 0 1.255 2.063 15.608 15.608 0 0 0 3.422 1.066l4.52 1.065a11.521 11.521 0 0 1 4.456 1.87 6.305 6.305 0 0 1 2.303 5.261 7.391 7.391 0 0 1-2.729 5.864q-2.73 2.333-7.71 2.333-5.088 0-8.003-2.298a7.603 7.603 0 0 1-2.914-6.319zm29.938-17.808h5.382v21.13h12.863v4.63H98.542zm29.005 14.174a7.866 7.866 0 0 0 1.99-.437 1.5 1.5 0 0 0 1.074-1.416 1.672 1.672 0 0 0-.824-1.616 5.193 5.193 0 0 0-2.418-.446 3.177 3.177 0 0 0-2.534.874 3.597 3.597 0 0 0-.708 1.748h-4.806a7.291 7.291 0 0 1 1.404-4.108q1.984-2.516 6.81-2.516a12.14 12.14 0 0 1 5.582 1.24q2.44 1.241 2.44 4.684v8.739q0 .908.034 2.202a2.76 2.76 0 0 0 .298 1.328 1.779 1.779 0 0 0 .734.576v.734h-5.418a5.568 5.568 0 0 1-.315-1.084q-.086-.505-.14-1.153a10.275 10.275 0 0 1-2.39 1.905 7.227 7.227 0 0 1-3.656.926 6.31 6.31 0 0 1-4.298-1.476 5.25 5.25 0 0 1-1.697-4.186 5.424 5.424 0 0 1 2.729-5.086 12.19 12.19 0 0 1 4.401-1.223zm3.046 2.324a5.49 5.49 0 0 1-.966.48 8.058 8.058 0 0 1-1.337.341l-1.134.21a7.472 7.472 0 0 0-2.29.682 2.275 2.275 0 0 0-1.176 2.114 2.208 2.208 0 0 0 .719 1.844 2.73 2.73 0 0 0 1.748.568 5.206 5.206 0 0 0 3.008-.943 4 4 0 0 0 1.428-3.444zm33.083-9.717a5.536 5.536 0 0 1 2.22 1.713 5.471 5.471 0 0 1 1.083 2.446 16.949 16.949 0 0 1 .175 2.814l-.035 12.006h-5.103v-12.128a3.989 3.989 0 0 0-.35-1.783 2.484 2.484 0 0 0-2.447-1.328 2.862 2.862 0 0 0-2.848 1.713 5.384 5.384 0 0 0-.402 2.185v11.341h-5.016v-11.341a6.364 6.364 0 0 0-.35-2.465 2.44 2.44 0 0 0-2.464-1.381 2.942 2.942 0 0 0-2.866 1.38 5.33 5.33 0 0 0-.401 2.343v11.464h-5.051V238.52h4.84v2.78a8.037 8.037 0 0 1 1.748-2.116 6.917 6.917 0 0 1 7.288-.157 5.592 5.592 0 0 1 1.642 2.29 6.327 6.327 0 0 1 2.43-2.465 7.41 7.41 0 0 1 3.425-.786 6.639 6.639 0 0 1 2.482.489zm24.323 2.22a10.947 10.947 0 0 1 2.137 6.99 12.244 12.244 0 0 1-2.108 7.357 7.652 7.652 0 0 1-9.696 1.976 7.576 7.576 0 0 1-1.863-1.958v2.394h-4.91V231.81h4.98v9.158a7.275 7.275 0 0 1 2.093-2.027 6.242 6.242 0 0 1 3.448-.874 7.12 7.12 0 0 1 5.919 2.709zm-4.164 11.604a7.058 7.058 0 0 0 1.076-4.09 9.147 9.147 0 0 0-.53-3.355 3.68 3.68 0 0 0-3.7-2.517 3.736 3.736 0 0 0-3.753 2.464 9.177 9.177 0 0 0-.529 3.39 7.057 7.057 0 0 0 1.093 4.055 3.75 3.75 0 0 0 3.33 1.608 3.455 3.455 0 0 0 3.013-1.555zm19.863-13.588a6.046 6.046 0 0 1 2.184 2.106v-9.088h5.051v25.725h-4.84v-2.638a7.027 7.027 0 0 1-2.43 2.464 6.818 6.818 0 0 1-3.391.768 7.078 7.078 0 0 1-5.618-2.699 10.371 10.371 0 0 1-2.281-6.93 11.928 11.928 0 0 1 2.246-7.673 7.308 7.308 0 0 1 6.003-2.795 6.146 6.146 0 0 1 3.076.76zm1.223 13.57a6.955 6.955 0 0 0 1.101-4.072q0-3.495-1.765-4.998a3.802 3.802 0 0 0-2.516-.909 3.499 3.499 0 0 0-3.207 1.652 8.904 8.904 0 0 0 .017 8.319 3.515 3.515 0 0 0 3.155 1.58 3.678 3.678 0 0 0 3.215-1.571zm18.082-6.413a7.866 7.866 0 0 0 1.99-.437 1.5 1.5 0 0 0 1.074-1.416 1.672 1.672 0 0 0-.824-1.616 5.193 5.193 0 0 0-2.418-.446 3.177 3.177 0 0 0-2.534.874 3.597 3.597 0 0 0-.708 1.748h-4.806a7.292 7.292 0 0 1 1.404-4.108q1.984-2.516 6.81-2.516a12.14 12.14 0 0 1 5.582 1.24q2.44 1.241 2.44 4.684v8.739q0 .908.034 2.202a2.76 2.76 0 0 0 .298 1.328 1.78 1.78 0 0 0 .734.576v.734h-5.418a5.567 5.567 0 0 1-.315-1.084q-.086-.505-.14-1.153a10.276 10.276 0 0 1-2.39 1.905 7.227 7.227 0 0 1-3.656.926 6.31 6.31 0 0 1-4.298-1.476 5.25 5.25 0 0 1-1.697-4.186 5.424 5.424 0 0 1 2.729-5.086 12.19 12.19 0 0 1 4.401-1.223zm3.046 2.324a5.49 5.49 0 0 1-.965.48 8.058 8.058 0 0 1-1.338.341l-1.134.21a7.472 7.472 0 0 0-2.29.682 2.275 2.275 0 0 0-1.176 2.114 2.208 2.208 0 0 0 .719 1.844 2.73 2.73 0 0 0 1.748.568 5.206 5.206 0 0 0 3.008-.943 4 4 0 0 0 1.428-3.444z"/></svg>