<?xml version="1.0" encoding="UTF-8" standalone="yes"?>
<svg version="1.1" id="Layer_1" xmlns="http://www.w3.org/2000/svg" xmlns:xlink="http://www.w3.org/1999/xlink" x="0px" y="0px" viewBox="12.120000000000001 15.120000000000001 268.76 255.76" style="enable-background:new 0 0 288 288;" xml:space="preserve">
  <style type="text/css">
	.st0{fill:#779D3F;}
	.st1{fill:#759C3F;}
	.st2{fill:#B7CA9D;}
	.st3{fill:#4C622C;}
	.st4{fill:#3C4929;}
</style>
  <g>
    <path class="st0" d="M21.6,248.2l6.9,18.4h-4.2l-1.4-4.1H16l-1.4,4.1h-4.1l6.9-18.4H21.6z M21.9,259.5l-2.3-6.7h-0.1l-2.4,6.7H21.9&#xA;&#x9;&#x9;z"/>
    <path class="st0" d="M42.9,266.6l-3.1-12.5h-0.1l-3.1,12.5h-4.1l-4.9-18.4h4l2.9,12.5h0.1l3.2-12.5h3.8l3.1,12.7h0.1l3-12.7h4&#xA;&#x9;&#x9;L47,266.6H42.9z"/>
    <path class="st0" d="M56.8,262.1c0.2,0.4,0.5,0.8,0.9,1c0.4,0.3,0.8,0.5,1.3,0.6c0.5,0.1,1,0.2,1.5,0.2c0.4,0,0.7,0,1.2-0.1&#xA;&#x9;&#x9;c0.4-0.1,0.8-0.2,1.2-0.3c0.4-0.2,0.7-0.4,0.9-0.7c0.2-0.3,0.4-0.7,0.4-1.1c0-0.5-0.2-0.9-0.5-1.2c-0.3-0.3-0.7-0.6-1.2-0.8&#xA;&#x9;&#x9;c-0.5-0.2-1.1-0.4-1.7-0.5s-1.3-0.3-2-0.5c-0.7-0.2-1.4-0.4-2-0.6c-0.7-0.2-1.2-0.6-1.7-1s-0.9-0.9-1.2-1.5&#xA;&#x9;&#x9;c-0.3-0.6-0.5-1.3-0.5-2.1c0-0.9,0.2-1.8,0.6-2.5s0.9-1.3,1.6-1.7c0.7-0.5,1.4-0.8,2.2-1c0.8-0.2,1.6-0.3,2.5-0.3&#xA;&#x9;&#x9;c1,0,1.9,0.1,2.8,0.3c0.9,0.2,1.7,0.6,2.4,1c0.7,0.5,1.2,1.1,1.6,1.8c0.4,0.7,0.6,1.6,0.6,2.7h-3.9c0-0.5-0.2-1-0.3-1.4&#xA;&#x9;&#x9;c-0.2-0.4-0.5-0.6-0.8-0.8c-0.3-0.2-0.7-0.4-1.1-0.4c-0.4-0.1-0.9-0.1-1.4-0.1c-0.3,0-0.7,0-1,0.1c-0.3,0.1-0.6,0.2-0.9,0.4&#xA;&#x9;&#x9;c-0.3,0.2-0.5,0.4-0.7,0.6c-0.2,0.3-0.3,0.6-0.3,1c0,0.4,0.1,0.7,0.2,0.9s0.4,0.4,0.8,0.6s1,0.4,1.7,0.6c0.7,0.2,1.6,0.4,2.8,0.7&#xA;&#x9;&#x9;c0.3,0.1,0.8,0.2,1.4,0.4s1.2,0.5,1.8,0.9c0.6,0.4,1.1,0.9,1.6,1.6c0.4,0.7,0.7,1.5,0.7,2.5c0,0.8-0.2,1.6-0.5,2.3&#xA;&#x9;&#x9;s-0.8,1.3-1.5,1.9c-0.6,0.5-1.4,0.9-2.4,1.2c-1,0.3-2.1,0.4-3.3,0.4c-1,0-2-0.1-2.9-0.4c-1-0.2-1.8-0.6-2.5-1.2&#xA;&#x9;&#x9;c-0.7-0.5-1.3-1.2-1.7-2c-0.4-0.8-0.6-1.8-0.6-2.9h3.9C56.5,261.1,56.6,261.7,56.8,262.1z"/>
    <path class="st0" d="M89.4,253.1c-0.2-0.4-0.5-0.7-0.9-1c-0.4-0.3-0.8-0.5-1.2-0.7c-0.5-0.2-0.9-0.2-1.4-0.2&#xA;&#x9;&#x9;c-0.9,0-1.7,0.2-2.3,0.5s-1.1,0.8-1.5,1.4c-0.4,0.6-0.7,1.3-0.9,2c-0.2,0.8-0.3,1.5-0.3,2.3c0,0.8,0.1,1.5,0.3,2.2&#xA;&#x9;&#x9;c0.2,0.7,0.5,1.4,0.9,2c0.4,0.6,0.9,1.1,1.5,1.4c0.6,0.4,1.4,0.5,2.3,0.5c1.2,0,2.2-0.4,2.9-1.1c0.7-0.8,1.1-1.7,1.3-3h3.9&#xA;&#x9;&#x9;c-0.1,1.1-0.4,2.2-0.8,3.1c-0.4,0.9-1,1.7-1.7,2.4c-0.7,0.7-1.5,1.1-2.5,1.5c-0.9,0.3-2,0.5-3.1,0.5c-1.4,0-2.7-0.2-3.8-0.7&#xA;&#x9;&#x9;s-2.1-1.2-2.8-2c-0.8-0.9-1.4-1.9-1.8-3s-0.6-2.4-0.6-3.7c0-1.4,0.2-2.6,0.6-3.8c0.4-1.2,1-2.2,1.8-3.1c0.8-0.9,1.7-1.6,2.8-2.1&#xA;&#x9;&#x9;c1.1-0.5,2.4-0.7,3.8-0.7c1,0,2,0.1,2.9,0.4c0.9,0.3,1.7,0.7,2.4,1.3c0.7,0.6,1.3,1.2,1.8,2.1c0.5,0.8,0.8,1.8,0.9,2.8h-3.9&#xA;&#x9;&#x9;C89.8,254,89.6,253.5,89.4,253.1z"/>
    <path class="st0" d="M100,248.2v18.4h-3.7v-18.4H100z"/>
    <path class="st0" d="M103,257.1c0.3-0.9,0.8-1.6,1.4-2.2c0.6-0.6,1.3-1.1,2.2-1.4c0.8-0.3,1.8-0.5,2.8-0.5s2,0.2,2.8,0.5&#xA;&#x9;&#x9;c0.8,0.3,1.6,0.8,2.2,1.4c0.6,0.6,1.1,1.3,1.4,2.2c0.3,0.9,0.5,1.8,0.5,2.9s-0.2,2-0.5,2.9c-0.3,0.9-0.8,1.6-1.4,2.2&#xA;&#x9;&#x9;s-1.3,1.1-2.2,1.4c-0.8,0.3-1.8,0.5-2.8,0.5s-2-0.2-2.8-0.5c-0.8-0.3-1.6-0.8-2.2-1.4s-1.1-1.3-1.4-2.2c-0.3-0.9-0.5-1.8-0.5-2.9&#xA;&#x9;&#x9;S102.6,257.9,103,257.1z M106.3,261.5c0.1,0.5,0.3,1,0.5,1.4c0.2,0.4,0.6,0.7,1,1c0.4,0.2,0.9,0.4,1.5,0.4c0.6,0,1.1-0.1,1.6-0.4&#xA;&#x9;&#x9;s0.8-0.6,1-1c0.2-0.4,0.4-0.9,0.5-1.4c0.1-0.5,0.2-1,0.2-1.6s-0.1-1.1-0.2-1.6c-0.1-0.5-0.3-1-0.5-1.4c-0.2-0.4-0.6-0.7-1-1&#xA;&#x9;&#x9;s-0.9-0.4-1.6-0.4c-0.6,0-1.1,0.1-1.5,0.4c-0.4,0.2-0.7,0.6-1,1c-0.2,0.4-0.4,0.8-0.5,1.4c-0.1,0.5-0.2,1-0.2,1.6&#xA;&#x9;&#x9;S106.2,261,106.3,261.5z"/>
    <path class="st0" d="M127.6,266.6v-1.9h-0.1c-0.5,0.8-1.1,1.3-1.8,1.7c-0.7,0.3-1.5,0.5-2.3,0.5c-1,0-1.8-0.1-2.4-0.4&#xA;&#x9;&#x9;c-0.6-0.3-1.1-0.6-1.5-1.1c-0.4-0.5-0.6-1-0.8-1.7c-0.1-0.7-0.2-1.4-0.2-2.2v-8.2h3.7v7.5c0,1.1,0.2,1.9,0.5,2.5&#xA;&#x9;&#x9;c0.3,0.5,1,0.8,1.8,0.8c1,0,1.7-0.3,2.2-0.9c0.4-0.6,0.7-1.6,0.7-2.9v-7h3.7v13.3H127.6z"/>
    <path class="st0" d="M143.3,264.9c-0.4,0.7-1,1.2-1.7,1.6c-0.7,0.3-1.5,0.5-2.4,0.5c-1,0-1.9-0.2-2.6-0.6s-1.4-0.9-1.9-1.6&#xA;&#x9;&#x9;c-0.5-0.7-0.9-1.4-1.1-2.3c-0.2-0.9-0.4-1.7-0.4-2.7c0-0.9,0.1-1.8,0.4-2.6c0.2-0.8,0.6-1.6,1.1-2.2c0.5-0.6,1.1-1.1,1.8-1.5&#xA;&#x9;&#x9;c0.7-0.4,1.6-0.6,2.6-0.6c0.8,0,1.5,0.2,2.2,0.5s1.3,0.8,1.7,1.5h0.1v-6.7h3.6v18.4h-3.5L143.3,264.9L143.3,264.9z M143.1,258.3&#xA;&#x9;&#x9;c-0.1-0.5-0.3-1-0.5-1.3s-0.6-0.7-1-0.9s-0.9-0.4-1.5-0.4c-0.6,0-1.1,0.1-1.5,0.4s-0.7,0.6-1,1s-0.4,0.8-0.5,1.3&#xA;&#x9;&#x9;c-0.1,0.5-0.2,1-0.2,1.6c0,0.5,0.1,1,0.2,1.5c0.1,0.5,0.3,1,0.6,1.4c0.3,0.4,0.6,0.7,1,1c0.4,0.2,0.9,0.4,1.5,0.4&#xA;&#x9;&#x9;c0.6,0,1.1-0.1,1.5-0.4c0.4-0.2,0.7-0.6,1-1c0.2-0.4,0.4-0.9,0.5-1.4c0.1-0.5,0.2-1,0.2-1.6C143.3,259.4,143.2,258.8,143.1,258.3z"/>
    <path class="st0" d="M162.8,248.2v3.4H154v4.2h7.7v3.1H154v7.6h-4v-18.4H162.8z"/>
    <path class="st0" d="M164.9,257.1c0.3-0.9,0.8-1.6,1.4-2.2c0.6-0.6,1.3-1.1,2.2-1.4s1.8-0.5,2.8-0.5c1,0,2,0.2,2.8,0.5&#xA;&#x9;&#x9;s1.6,0.8,2.2,1.4c0.6,0.6,1.1,1.3,1.4,2.2c0.3,0.9,0.5,1.8,0.5,2.9s-0.2,2-0.5,2.9c-0.3,0.9-0.8,1.6-1.4,2.2&#xA;&#x9;&#x9;c-0.6,0.6-1.3,1.1-2.2,1.4s-1.8,0.5-2.8,0.5c-1,0-2-0.2-2.8-0.5s-1.6-0.8-2.2-1.4c-0.6-0.6-1.1-1.3-1.4-2.2&#xA;&#x9;&#x9;c-0.3-0.9-0.5-1.8-0.5-2.9S164.5,257.9,164.9,257.1z M168.2,261.5c0.1,0.5,0.3,1,0.5,1.4c0.2,0.4,0.6,0.7,1,1s0.9,0.4,1.5,0.4&#xA;&#x9;&#x9;s1.1-0.1,1.6-0.4c0.4-0.2,0.8-0.6,1-1c0.2-0.4,0.4-0.9,0.5-1.4c0.1-0.5,0.2-1,0.2-1.6s-0.1-1.1-0.2-1.6c-0.1-0.5-0.3-1-0.5-1.4&#xA;&#x9;&#x9;c-0.2-0.4-0.6-0.7-1-1c-0.4-0.2-0.9-0.4-1.6-0.4s-1.1,0.1-1.5,0.4s-0.7,0.6-1,1c-0.2,0.4-0.4,0.8-0.5,1.4c-0.1,0.5-0.2,1-0.2,1.6&#xA;&#x9;&#x9;S168.1,261,168.2,261.5z"/>
    <path class="st0" d="M184,253.3v2.5h0.1c0.2-0.4,0.4-0.8,0.7-1.1c0.3-0.4,0.6-0.7,1-0.9c0.4-0.2,0.8-0.4,1.2-0.6&#xA;&#x9;&#x9;c0.4-0.1,0.9-0.2,1.3-0.2c0.2,0,0.5,0,0.8,0.1v3.4c-0.2,0-0.4-0.1-0.6-0.1c-0.2,0-0.5,0-0.7,0c-0.7,0-1.2,0.1-1.7,0.3&#xA;&#x9;&#x9;s-0.8,0.5-1.1,0.9c-0.3,0.4-0.5,0.8-0.6,1.4c-0.1,0.5-0.2,1.1-0.2,1.7v6h-3.7v-13.3H184z"/>
    <path class="st0" d="M194.1,253.3v1.8h0.1c0.5-0.7,1.1-1.2,1.7-1.6c0.7-0.4,1.5-0.6,2.3-0.6c0.8,0,1.6,0.2,2.3,0.5&#xA;&#x9;&#x9;c0.7,0.3,1.2,0.9,1.6,1.7c0.4-0.6,0.9-1.1,1.6-1.5c0.7-0.4,1.5-0.7,2.4-0.7c0.7,0,1.4,0.1,2,0.3c0.6,0.2,1.1,0.4,1.5,0.8&#xA;&#x9;&#x9;c0.4,0.4,0.8,0.9,1,1.5s0.4,1.3,0.4,2.2v8.9h-3.7v-7.5c0-0.4,0-0.9-0.1-1.3s-0.1-0.7-0.3-1c-0.2-0.3-0.4-0.5-0.7-0.7&#xA;&#x9;&#x9;c-0.3-0.2-0.7-0.3-1.2-0.3c-0.5,0-0.9,0.1-1.2,0.3c-0.3,0.2-0.6,0.5-0.7,0.8c-0.2,0.3-0.3,0.7-0.4,1.1c-0.1,0.4-0.1,0.8-0.1,1.2&#xA;&#x9;&#x9;v7.4h-3.7v-7.5c0-0.4,0-0.8,0-1.2c0-0.4-0.1-0.7-0.2-1.1c-0.1-0.3-0.3-0.6-0.6-0.8c-0.3-0.2-0.7-0.3-1.3-0.3c-0.2,0-0.4,0-0.7,0.1&#xA;&#x9;&#x9;s-0.6,0.2-0.8,0.4c-0.3,0.2-0.5,0.5-0.7,0.9c-0.2,0.4-0.3,0.9-0.3,1.6v7.7h-3.7v-13.3H194.1z"/>
    <path class="st0" d="M214.3,255.3c0.4-0.6,0.9-1,1.4-1.4c0.6-0.3,1.2-0.6,2-0.7c0.7-0.1,1.5-0.2,2.2-0.2c0.7,0,1.3,0,2,0.1&#xA;&#x9;&#x9;c0.7,0.1,1.3,0.3,1.9,0.6c0.6,0.3,1,0.7,1.4,1.1c0.4,0.5,0.5,1.1,0.5,1.9v6.9c0,0.6,0,1.2,0.1,1.7c0.1,0.5,0.2,1,0.4,1.2h-3.7&#xA;&#x9;&#x9;c-0.1-0.2-0.1-0.4-0.2-0.6c0-0.2-0.1-0.4-0.1-0.7c-0.6,0.6-1.3,1-2.1,1.3c-0.8,0.2-1.6,0.4-2.4,0.4c-0.6,0-1.2-0.1-1.8-0.2&#xA;&#x9;&#x9;c-0.5-0.2-1-0.4-1.4-0.7c-0.4-0.3-0.7-0.7-1-1.2c-0.2-0.5-0.3-1.1-0.3-1.8c0-0.8,0.1-1.4,0.4-1.9c0.3-0.5,0.6-0.9,1-1.2&#xA;&#x9;&#x9;c0.4-0.3,0.9-0.5,1.4-0.7s1.1-0.3,1.6-0.3s1.1-0.2,1.6-0.2s1-0.1,1.4-0.2c0.4-0.1,0.7-0.3,1-0.5c0.2-0.2,0.4-0.5,0.3-0.9&#xA;&#x9;&#x9;c0-0.4-0.1-0.7-0.2-0.9c-0.1-0.2-0.3-0.4-0.5-0.5c-0.2-0.1-0.5-0.2-0.7-0.3c-0.3,0-0.6-0.1-0.9-0.1c-0.7,0-1.3,0.2-1.7,0.5&#xA;&#x9;&#x9;s-0.7,0.8-0.7,1.5h-3.7C213.7,256.5,213.9,255.8,214.3,255.3z M221.5,260.4c-0.2,0.1-0.5,0.1-0.7,0.2s-0.5,0.1-0.8,0.1&#xA;&#x9;&#x9;c-0.3,0-0.6,0.1-0.9,0.1c-0.3,0.1-0.5,0.1-0.8,0.2c-0.3,0.1-0.5,0.2-0.7,0.3c-0.2,0.1-0.4,0.3-0.5,0.6c-0.1,0.2-0.2,0.5-0.2,0.8&#xA;&#x9;&#x9;c0,0.3,0.1,0.6,0.2,0.8c0.1,0.2,0.3,0.4,0.5,0.5c0.2,0.1,0.4,0.2,0.7,0.3c0.3,0.1,0.6,0.1,0.8,0.1c0.7,0,1.3-0.1,1.7-0.4&#xA;&#x9;&#x9;c0.4-0.2,0.7-0.5,0.9-0.9c0.2-0.3,0.3-0.7,0.3-1s0.1-0.6,0.1-0.8v-1.4C221.9,260.2,221.7,260.3,221.5,260.4z"/>
    <path class="st0" d="M235.9,253.3v2.4h-2.7v6.6c0,0.6,0.1,1,0.3,1.2c0.2,0.2,0.6,0.3,1.2,0.3c0.2,0,0.4,0,0.6,0&#xA;&#x9;&#x9;c0.2,0,0.4,0,0.5-0.1v2.8c-0.3,0.1-0.7,0.1-1,0.1c-0.4,0-0.7,0-1.1,0c-0.6,0-1.1,0-1.6-0.1c-0.5-0.1-1-0.2-1.3-0.5&#xA;&#x9;&#x9;c-0.4-0.2-0.7-0.5-0.9-1c-0.2-0.4-0.3-1-0.3-1.6v-7.8h-2.2v-2.4h2.2v-4h3.7v4H235.9z"/>
    <path class="st0" d="M237.7,251.3v-3h3.7v3H237.7z M241.4,253.3v13.3h-3.7v-13.3H241.4z"/>
    <path class="st0" d="M244.3,257.1c0.3-0.9,0.8-1.6,1.4-2.2c0.6-0.6,1.3-1.1,2.2-1.4s1.8-0.5,2.8-0.5c1,0,2,0.2,2.8,0.5&#xA;&#x9;&#x9;s1.6,0.8,2.2,1.4c0.6,0.6,1.1,1.3,1.4,2.2c0.3,0.9,0.5,1.8,0.5,2.9s-0.2,2-0.5,2.9c-0.3,0.9-0.8,1.6-1.4,2.2&#xA;&#x9;&#x9;c-0.6,0.6-1.3,1.1-2.2,1.4s-1.8,0.5-2.8,0.5c-1,0-2-0.2-2.8-0.5s-1.6-0.8-2.2-1.4c-0.6-0.6-1.1-1.3-1.4-2.2&#xA;&#x9;&#x9;c-0.3-0.9-0.5-1.8-0.5-2.9S244,257.9,244.3,257.1z M247.6,261.5c0.1,0.5,0.3,1,0.5,1.4c0.2,0.4,0.6,0.7,1,1s0.9,0.4,1.5,0.4&#xA;&#x9;&#x9;s1.1-0.1,1.6-0.4c0.4-0.2,0.8-0.6,1-1c0.2-0.4,0.4-0.9,0.5-1.4c0.1-0.5,0.2-1,0.2-1.6s-0.1-1.1-0.2-1.6c-0.1-0.5-0.3-1-0.5-1.4&#xA;&#x9;&#x9;c-0.2-0.4-0.6-0.7-1-1c-0.4-0.2-0.9-0.4-1.6-0.4s-1.1,0.1-1.5,0.4s-0.7,0.6-1,1c-0.2,0.4-0.4,0.8-0.5,1.4c-0.1,0.5-0.2,1-0.2,1.6&#xA;&#x9;&#x9;S247.5,261,247.6,261.5z"/>
    <path class="st0" d="M263.4,253.3v1.9h0.1c0.5-0.8,1.1-1.3,1.8-1.7c0.7-0.4,1.5-0.5,2.3-0.5c1,0,1.8,0.1,2.4,0.4s1.1,0.6,1.5,1.1&#xA;&#x9;&#x9;c0.4,0.5,0.6,1,0.8,1.7c0.1,0.7,0.2,1.4,0.2,2.2v8.2h-3.7v-7.5c0-1.1-0.2-1.9-0.5-2.5s-1-0.8-1.8-0.8c-1,0-1.7,0.3-2.2,0.9&#xA;&#x9;&#x9;c-0.4,0.6-0.7,1.6-0.7,2.9v7H260v-13.3H263.4z"/>
  </g>
  <g>
    <polygon class="st1" points="92.5,177.6 64.1,170.6 64.1,72.5 92.5,67 92.5,177.6 &#x9;"/>
    <polygon class="st2" points="69.2,159.7 142.9,214.3 142.9,169 92.5,156.4 69.2,159.7 &#x9;"/>
    <polygon class="st3" points="191.9,169 219.8,170.6 220.6,78.1 191.9,69 191.9,169 &#x9;"/>
    <polygon class="st4" points="142.9,73 92.5,84.8 69.2,81.5 142.9,28.3 142.9,73 &#x9;"/>
    <polygon class="st2" points="215.2,159.7 141.5,211 141.5,169 191.9,156.4 215.2,159.7 &#x9;"/>
    <polygon class="st4" points="141.5,73 191.9,84.8 215.2,81.5 142.2,26.1 141.5,73 &#x9;"/>
    <path class="st3" d="M117.6,174.2l-48.4-14.5V81.5L117.6,67V174.2L117.6,174.2z M142.1,18.6L58.4,60.8l0,119.6l83.7,42.2L163.4,122&#xA;&#x9;&#x9;L142.1,18.6L142.1,18.6z"/>
    <path class="st1" d="M166.8,67l48.4,14.5v78.2l-48.4,14.5V67L166.8,67z M142.1,222.6l83.9-42.2l0-119.6l-83.9-42.2V222.6&#xA;&#x9;&#x9;L142.1,222.6z"/>
  </g>
</svg>