<svg viewBox="97.66 -7.34 524.68 537.68" xmlns="http://www.w3.org/2000/svg"><title>Azure Registry</title><defs><style>.cls-2{fill:#959595}.cls-3{fill:#b3b4b5}</style></defs><path d="M139.495 454.6l19.248 51.471h-11.751l-3.893-11.462h-19.248l-4.037 11.462h-11.39L127.89 454.6zm.649 31.575l-6.488-18.888h-.144l-6.705 18.888zm39.072-9.66h-17.95V468.8h31.431v7.714l-19.392 21.842h20.762v7.714h-34.243v-7.714zm45.56 29.556v-5.19h-.216a11.516 11.516 0 0 1-5.046 4.685 14.9 14.9 0 0 1-6.344 1.443 17.888 17.888 0 0 1-6.74-1.082 9.716 9.716 0 0 1-4.145-3.064 11.984 11.984 0 0 1-2.127-4.83 30.022 30.022 0 0 1-.613-6.307V468.8h10.237v21.05q0 4.615 1.442 6.884 1.441 2.272 5.118 2.272 4.18 0 6.055-2.487 1.875-2.488 1.875-8.183V468.8h10.237v37.27zm27.25-37.271v6.922h.144a12.565 12.565 0 0 1 1.946-3.208 12.775 12.775 0 0 1 2.812-2.524 13.789 13.789 0 0 1 3.388-1.622 12.244 12.244 0 0 1 3.749-.576 7.993 7.993 0 0 1 2.235.36v9.516q-.723-.144-1.73-.252a18.253 18.253 0 0 0-1.947-.108 10.915 10.915 0 0 0-4.758.937 8.243 8.243 0 0 0-3.136 2.559 10.241 10.241 0 0 0-1.694 3.785 20.57 20.57 0 0 0-.505 4.685v16.797h-10.236v-37.27zm27.97 28.332q2.307 2.235 6.633 2.235a9.13 9.13 0 0 0 5.334-1.55 6.435 6.435 0 0 0 2.74-3.28h9.01q-2.162 6.705-6.632 9.588a19.522 19.522 0 0 1-10.813 2.884 21.276 21.276 0 0 1-7.93-1.406 16.465 16.465 0 0 1-5.983-4.001 17.995 17.995 0 0 1-3.785-6.2 22.674 22.674 0 0 1-1.333-7.93 21.731 21.731 0 0 1 1.37-7.785 18.02 18.02 0 0 1 9.911-10.381 19.291 19.291 0 0 1 7.75-1.514 17.722 17.722 0 0 1 8.29 1.838 16.56 16.56 0 0 1 5.804 4.938 20.317 20.317 0 0 1 3.28 7.065 26.351 26.351 0 0 1 .72 8.29h-26.889q.217 4.974 2.523 7.209zm11.57-19.609q-1.838-2.017-5.586-2.018a8.918 8.918 0 0 0-4.073.829 7.78 7.78 0 0 0-2.596 2.055 7.527 7.527 0 0 0-1.37 2.595 11.676 11.676 0 0 0-.468 2.452h16.653a11.839 11.839 0 0 0-2.56-5.913zm67.729-22.923a16.565 16.565 0 0 1 6.235 1.117 14.363 14.363 0 0 1 4.758 3.063 13.326 13.326 0 0 1 3.028 4.506 14.455 14.455 0 0 1 1.045 5.515 15.488 15.488 0 0 1-1.91 7.858 12.002 12.002 0 0 1-6.235 5.046v.145a8.74 8.74 0 0 1 3.46 1.765 9.804 9.804 0 0 1 2.234 2.812 13.078 13.078 0 0 1 1.262 3.568 31.182 31.182 0 0 1 .54 3.893q.071 1.227.145 2.883.07 1.66.252 3.39a22.553 22.553 0 0 0 .577 3.28 7.549 7.549 0 0 0 1.189 2.63h-11.317a19.917 19.917 0 0 1-1.154-5.839q-.217-3.388-.65-6.488a10.222 10.222 0 0 0-2.45-5.911q-1.875-1.875-6.127-1.875h-11.319v20.113H331.54V454.6zm-4.037 23.284q3.893 0 5.839-1.73 1.946-1.73 1.947-5.623 0-3.747-1.947-5.443-1.946-1.692-5.84-1.693h-12.399v14.489zm38.206 19.248q2.307 2.235 6.633 2.235a9.128 9.128 0 0 0 5.334-1.55 6.435 6.435 0 0 0 2.739-3.28h9.012q-2.164 6.705-6.633 9.588a19.522 19.522 0 0 1-10.814 2.884 21.278 21.278 0 0 1-7.93-1.406 16.47 16.47 0 0 1-5.983-4.001 18.002 18.002 0 0 1-3.784-6.2 22.663 22.663 0 0 1-1.334-7.93 21.72 21.72 0 0 1 1.37-7.785 18.02 18.02 0 0 1 9.912-10.381 19.287 19.287 0 0 1 7.75-1.514 17.723 17.723 0 0 1 8.29 1.838 16.558 16.558 0 0 1 5.803 4.938 20.317 20.317 0 0 1 3.28 7.065 26.337 26.337 0 0 1 .72 8.29H390.94q.217 4.974 2.524 7.209zm11.57-19.609q-1.838-2.017-5.587-2.018a8.921 8.921 0 0 0-4.073.829 7.772 7.772 0 0 0-2.595 2.055 7.52 7.52 0 0 0-1.37 2.595 11.708 11.708 0 0 0-.469 2.452h16.654a11.843 11.843 0 0 0-2.56-5.913zM459.1 508.81a12.632 12.632 0 0 1-2.63 5.372 15.675 15.675 0 0 1-5.84 4.216 25.18 25.18 0 0 1-10.237 1.73 23.862 23.862 0 0 1-5.586-.684 17.79 17.79 0 0 1-5.19-2.127 12.76 12.76 0 0 1-3.893-3.713 10.757 10.757 0 0 1-1.767-5.442h10.165a5.84 5.84 0 0 0 2.811 4.001 10.098 10.098 0 0 0 4.83 1.117q4.326 0 6.308-2.595a10.178 10.178 0 0 0 1.91-6.56v-4.902h-.143a10.13 10.13 0 0 1-4.723 4.361 15.29 15.29 0 0 1-6.451 1.406 16.266 16.266 0 0 1-7.21-1.478 13.664 13.664 0 0 1-4.974-4.037 16.824 16.824 0 0 1-2.847-5.984 28.309 28.309 0 0 1-.902-7.244 23.219 23.219 0 0 1 1.046-6.957 18.173 18.173 0 0 1 3.064-5.911 14.789 14.789 0 0 1 5.01-4.073 15.033 15.033 0 0 1 6.884-1.514 14.423 14.423 0 0 1 6.452 1.37 11.152 11.152 0 0 1 4.65 4.613h.144v-4.974h9.733v34.891a24.978 24.978 0 0 1-.614 5.119zm-14.02-12.399a7.993 7.993 0 0 0 2.74-2.307 10.217 10.217 0 0 0 1.621-3.28 13.6 13.6 0 0 0 .54-3.856 21.084 21.084 0 0 0-.432-4.362 10.89 10.89 0 0 0-1.442-3.64 7.486 7.486 0 0 0-2.667-2.524 8.425 8.425 0 0 0-4.181-.937 7.513 7.513 0 0 0-3.713.865 7.814 7.814 0 0 0-2.595 2.343 9.876 9.876 0 0 0-1.514 3.389 16.684 16.684 0 0 0-.468 4 20.325 20.325 0 0 0 .396 4.002 10.796 10.796 0 0 0 1.37 3.568 8.004 8.004 0 0 0 2.559 2.596 7.248 7.248 0 0 0 3.965 1.008 8.143 8.143 0 0 0 3.821-.865zm23.14-33.377V454.6h10.236v8.434zm10.236 5.767v37.27H468.22v-37.27zm16.688 28.007a5.985 5.985 0 0 0 1.767 1.946 7.542 7.542 0 0 0 2.487 1.117 11.668 11.668 0 0 0 2.92.361 10.9 10.9 0 0 0 2.27-.253 7.713 7.713 0 0 0 2.163-.793 4.9 4.9 0 0 0 1.622-1.44 3.788 3.788 0 0 0 .65-2.272q0-2.306-3.065-3.46a61.513 61.513 0 0 0-8.542-2.307q-2.235-.504-4.361-1.19a14.85 14.85 0 0 1-3.786-1.802 8.728 8.728 0 0 1-2.667-2.812 7.952 7.952 0 0 1-1.01-4.144 11.212 11.212 0 0 1 1.407-5.911 10.36 10.36 0 0 1 3.713-3.641 16.275 16.275 0 0 1 5.19-1.875 32.003 32.003 0 0 1 5.911-.54 29.584 29.584 0 0 1 5.875.576 15.593 15.593 0 0 1 5.082 1.946 11.687 11.687 0 0 1 3.713 3.641 12.256 12.256 0 0 1 1.767 5.732h-9.733q-.216-2.955-2.234-4.001a10.228 10.228 0 0 0-4.758-1.045 17.619 17.619 0 0 0-1.875.107 6.246 6.246 0 0 0-1.838.469 3.788 3.788 0 0 0-1.406 1.046 2.76 2.76 0 0 0-.576 1.838 2.802 2.802 0 0 0 1.009 2.234 7.768 7.768 0 0 0 2.632 1.406 32.786 32.786 0 0 0 3.711.973q2.09.433 4.254.937a43.728 43.728 0 0 1 4.362 1.226 14.383 14.383 0 0 1 3.784 1.91 9.25 9.25 0 0 1 2.668 2.956 8.684 8.684 0 0 1 1.009 4.361 11.32 11.32 0 0 1-5.334 10.165 15.807 15.807 0 0 1-5.444 2.126 31.744 31.744 0 0 1-6.235.614 30.866 30.866 0 0 1-6.344-.65 16.756 16.756 0 0 1-5.515-2.162 12.369 12.369 0 0 1-3.965-4 12.519 12.519 0 0 1-1.694-6.237h9.732a5.607 5.607 0 0 0 .684 2.848zm50.571-28.008v6.85h-7.497v18.454q0 2.596.865 3.46.864.866 3.46.866c.577 0 1.129-.024 1.658-.073a13.905 13.905 0 0 0 1.514-.215v7.93a24.266 24.266 0 0 1-2.884.287q-1.586.072-3.1.073a29.94 29.94 0 0 1-4.505-.325 10.637 10.637 0 0 1-3.75-1.261 6.67 6.67 0 0 1-2.558-2.667 9.523 9.523 0 0 1-.938-4.542v-21.988h-6.199v-6.848h6.2v-11.174h10.237v11.174zm14.634 0v6.922h.144a12.524 12.524 0 0 1 1.946-3.208 12.764 12.764 0 0 1 2.812-2.524 13.777 13.777 0 0 1 3.388-1.622 12.244 12.244 0 0 1 3.749-.576 7.99 7.99 0 0 1 2.234.36v9.516q-.72-.144-1.73-.252a18.278 18.278 0 0 0-1.947-.108 10.918 10.918 0 0 0-4.758.937 8.249 8.249 0 0 0-3.135 2.559 10.25 10.25 0 0 0-1.695 3.785 20.627 20.627 0 0 0-.504 4.685v16.797h-10.237v-37.27z"/><path d="M592.428 517.173q-2.958 1.947-8.22 1.946-1.586 0-3.135-.107-1.551-.109-3.136-.253v-8.435q1.442.144 2.956.29a21.325 21.325 0 0 0 3.028.07 3.98 3.98 0 0 0 2.992-1.585 5.11 5.11 0 0 0 .973-3.028 6.14 6.14 0 0 0-.433-2.306L574.405 468.8h10.886l8.434 25.52h.144l8.147-25.52h10.596l-15.571 41.884a12.61 12.61 0 0 1-4.613 6.488z"/><path fill="#59b4d9" d="M268.411 307.766h-65.304c-43.608-10.848-77.217-45.096-77.217-90.618 0-37.65 24.25-72.111 57.221-85.087a111.739 111.739 0 0 1-.638-11.912 117.118 117.118 0 0 1 208.464-73.175 92.923 92.923 0 0 1 42.756-9.998c51.266 0 95.51 45.522 97.425 96.149L356.264 61.013l-87.853 52.542z"/><path d="M595.147 356.054L354.137 402l1.063-169.324 239.947 44.458zm-240.16-273.13l240.16 90.404v90.406L355.413 212.68" class="cls-2"/><path d="M355.413 212.681l-65.305 30.42V122.488l64.88-39.566m229.31 170.388l-217.824-49.777V95.474l217.824 80.407v77.43zm-119.76-38.715l21.697 5.956v-70.623l-21.697-7.657zm-21.91-79.131l-21.698-7.871v75.302l21.698 6.17zm65.517 91.043l21.484 5.743.426-67.219-21.91-7.232zm-130.822-34.673l21.697 5.53v-77.003l-21.697-7.233zm196.126-12.125l-21.697-7.658v65.73l21.697 5.956zm-206.975 70.835V390.3l217.824-39.99v-66.156zm10.849 123.377V266.286l21.697 2.766v101.254zm65.305-10.849l-21.698 4.042V272.03l21.698 3.19zm21.91-3.19v-82.535l21.697 2.765v75.728zm65.304-11.487l-21.697 3.616v-69.346l21.697 3.19zm44.246-7.02l-22.549 3.829v-57.009l21.06 2.553z" class="cls-3"/><path d="M312.231 210.554l-10.849 6.382V131.21l10.85-5.956zm21.697-97.638l-10.848 7.446v83.385l10.848-5.956z" class="cls-2"/><path d="M290.108 363.286l-.425-99.127 65.517-31.695.426 169.75" class="cls-3"/><path d="M310.742 362.86l-9.998-5.105v-83.598l9.998-4.467zm23.4-103.593l-10.85 4.68-.425 105.508 11.274 5.743z" class="cls-2"/><path fill="#7a7a7a" d="M573.237 186.73L377.536 121l.212-8.51 195.489 67.22zm-.638 104.232l-194.85-24.463v8.509L572.81 297.98zm-238.67-166.984v-10.636l-31.696 17.443-.425 8.934zm-32.972 156.56l33.184-12.124v-9.147l-33.397 14.89z"/><path fill="#fff" d="M595.147 173.754v182.3L355.626 402l181.449-250.157z" opacity=".2"/></svg>