<?xml version="1.0" encoding="UTF-8" standalone="yes"?>
<svg version="1.1" id="Layer_1" xmlns="http://www.w3.org/2000/svg" xmlns:xlink="http://www.w3.org/1999/xlink" x="0px" y="0px" viewBox="17 14 689 501" style="enable-background:new 0 0 720 528;" xml:space="preserve">
  <style type="text/css">
	.st0{fill:#814B99;}
	.st1{fill:#682A7A;}
	.st2{fill:#010101;}
</style>
  <polygon class="st0" points="324.1,115.5 240.2,147.9 240.2,14 324.1,43.1 "/>
  <polygon class="st0" points="519.3,115.5 435.4,147.9 435.4,14 519.3,43.1 "/>
  <polygon class="st0" points="324.1,381.3 240.2,413.6 240.2,279.7 324.1,308.9 "/>
  <polygon class="st0" points="519.3,381.3 435.4,413.6 435.4,279.7 519.3,308.9 "/>
  <polygon class="st0" points="427.7,248.4 344.9,279.7 344.9,146.8 427.7,176.1 "/>
  <polygon class="st0" points="233.7,248.4 150.8,279.7 150.8,146.8 233.7,176.1 "/>
  <polygon class="st0" points="619.5,248.4 536.8,279.7 536.8,146.8 619.5,176.1 "/>
  <polygon class="st0" points="240.2,14 240.2,147.9 324.1,115.5 324.1,43.1 "/>
  <polygon class="st0" points="435.4,14 435.4,147.9 519.3,115.5 519.3,43.1 "/>
  <polygon class="st0" points="240.2,279.7 240.2,413.6 324.1,381.3 324.1,308.9 "/>
  <polygon class="st0" points="435.4,279.7 435.4,413.6 519.3,381.3 519.3,308.9 "/>
  <polygon class="st0" points="344.9,146.8 344.9,279.7 427.7,248.4 427.7,176.1 "/>
  <polygon class="st0" points="150.8,146.8 150.8,279.7 233.7,248.4 233.7,176.1 "/>
  <polygon class="st0" points="536.8,146.8 536.8,279.7 619.5,248.4 619.5,176.1 "/>
  <path class="st1" d="M207.6,128.5l-5.5-1.8V34.5l5.5-1.1l5.5-2.2l6.6-2.2v102.7l-6.7-2.3L207.6,128.5z M187.8,122l-4.1-1.1V40.2&#xA;&#x9;l4.4-1.1l4.4-1.1l4.3-1.1v88.5l-4.3-1.1L187.8,122z M171.5,118l-3.4-1.1V44.2l3.3-1.1l3.3-1.1l3.4-1.1v79l-2.9-1.1L171.5,118z&#xA;&#x9; M165,37v87.2l62,23.7v-133L165,37z"/>
  <path class="st1" d="M402.7,128.5l-5.5-2.2V34.5l5.5-1.1l5.5-2.2l6.3-2.2v102.7l-6.3-2.3L402.7,128.5z M382.8,122l-4.4-1.1V40.2&#xA;&#x9;l4.4-1.1l4.3-1.1l4.4-1.1v88.5l-4.4-1.1L382.8,122z M366.4,117.7l-3.3-1.1V44.2l3.3-1.1l3.3-1.1l3.3-1.1v79l-3.3-1.1L366.4,117.7z&#xA;&#x9; M360.1,36.6v87.6l62.1,23.7v-133L360.1,36.6z"/>
  <path class="st1" d="M207.6,394.2l-5.5-2.2v-91.8l5.5-1.1l5.4-2.3l6.6-2.2v102.9l-6.6-2.1L207.6,394.2z M187.8,387.7l-4.1-1.5v-80.6&#xA;&#x9;l4.4-1.1l4.4-1.1l4.3-1.1v88.8l-4.3-1.1L187.8,387.7z M171.5,383.4l-3.4-1v-72.4l3.3-1.1l3.3-1.1l3.4-1.1v78.8l-2.9-1L171.5,383.4z&#xA;&#x9; M165,302.4v87.6l62,23.7v-133L165,302.4z"/>
  <path class="st1" d="M402.7,394.2l-5.5-2.2v-91.8l5.5-1.1l5.5-2.2l6.6-2.2v102.7l-6.6-2.1L402.7,394.2z M382.8,387.7l-4.4-1.1v-81&#xA;&#x9;l4.4-1.1l4.3-1.1l4.4-1.1v88.8l-4.4-1.1L382.8,387.7z M366.4,383.4l-3.3-1.1v-72.3l3.3-1.1l3.3-1.1l3.3-1.1v78.8l-3.3-1.1&#xA;&#x9;L366.4,383.4z M360.1,302.4v87.6l62.1,23.7v-133L360.1,302.4z"/>
  <path class="st1" d="M311,261.3l-5.5-2.2v-91.8l5.5-1.1l5.5-2.2l6.6-2.2v102.7l-6.5-2.2L311,261.3z M291.2,254.8l-4.4-1.1v-80.9&#xA;&#x9;l4.4-1.1l4.4-1.1l4.3-1.1v88.8l-4.3-1.1L291.2,254.8z M274.9,249.4l-3.4-1V176l3.3-1.1l3.3-1.1l3.3-1.1v78.8l-3.3-1.1L274.9,249.4z&#xA;&#x9; M268.5,168.4v87.6l62.4,23.8V146.7L268.5,168.4z"/>
  <path class="st1" d="M117,261.3l-5.5-2.2v-91.8l5.5-1.1l5.5-2.2l6.6-2.2v102.7l-6.6-2.2L117,261.3z M97.3,254.8l-4.4-1.1v-80.9&#xA;&#x9;l4.4-1.1l4.4-1.1l4.2-0.6v88.2l-4.3-1.1L97.3,254.8z M80.9,249.4l-3.3-1.1V176l3.3-1.1l3.5-1.2l3.3-1.1v78.8l-3.3-0.9L80.9,249.4z&#xA;&#x9; M74.5,168.4v87.6l62,23.8V146.7L74.5,168.4z"/>
  <path class="st1" d="M503.1,261.3l-5.5-2.2v-91.8l5.5-1.1l5.5-2.2l6.6-2.2v102.7l-6.7-2.2L503.1,261.3z M483.4,254.8l-4.4-1.1v-80.9&#xA;&#x9;l4.4-1.1l4.3-1.1l4.4-1.1v88.8l-4.4-1.1L483.4,254.8z M467,249.4l-3.3-1.1V176l3.3-1.1l3.3-1.1l3.3-1.1v78.8l-3.3-1.1L467,249.4z&#xA;&#x9; M460.6,168.4v87.6l62.1,23.8V146.7L460.6,168.4z"/>
  <g>
    <path class="st2" d="M25.8,498.7l-4.9,14.8h-6.3l15.9-46.9h7.3l16,46.9h-6.5l-5-14.8H25.8z M41.2,494l-4.6-13.5&#xA;&#x9;&#x9;c-1-3.1-1.7-5.8-2.4-8.6H34c-0.7,2.8-1.5,5.6-2.4,8.5L27,494H41.2z"/>
    <path class="st2" d="M57.7,509.9l15.2-19.8c1.5-1.8,2.9-3.4,4.4-5.2v-0.1H59.1v-4.9h25.7l-0.1,3.8l-15,19.5&#xA;&#x9;&#x9;c-1.4,1.9-2.8,3.5-4.3,5.3v0.1H85v4.9H57.7V509.9z"/>
    <path class="st2" d="M119.4,504.3c0,3.5,0.1,6.5,0.3,9.2h-5.4l-0.3-5.5h-0.1c-1.6,2.7-5.1,6.3-11.1,6.3c-5.3,0-11.6-2.9-11.6-14.8&#xA;&#x9;&#x9;v-19.7h6.1v18.6c0,6.4,1.9,10.7,7.5,10.7c4.1,0,7-2.8,8.1-5.6c0.3-0.9,0.6-2,0.6-3.1v-20.7h6.1V504.3z"/>
    <path class="st2" d="M129.6,490.3c0-4-0.1-7.4-0.3-10.5h5.4l0.2,6.6h0.3c1.5-4.5,5.2-7.4,9.3-7.4c0.7,0,1.2,0.1,1.7,0.2v5.8&#xA;&#x9;&#x9;c-0.6-0.1-1.3-0.2-2.1-0.2c-4.3,0-7.4,3.3-8.2,7.9c-0.1,0.8-0.3,1.8-0.3,2.9v17.9h-6.1V490.3z"/>
    <path class="st2" d="M155,497.8c0.1,8.3,5.4,11.7,11.5,11.7c4.4,0,7-0.8,9.3-1.7l1,4.4c-2.2,1-5.8,2.1-11.2,2.1&#xA;&#x9;&#x9;c-10.4,0-16.6-6.8-16.6-17c0-10.2,6-18.2,15.8-18.2c11,0,13.9,9.7,13.9,15.9c0,1.3-0.1,2.2-0.2,2.9H155z M173,493.4&#xA;&#x9;&#x9;c0.1-3.9-1.6-9.9-8.5-9.9c-6.2,0-8.9,5.7-9.4,9.9H173z"/>
    <path class="st2" d="M234.1,512c-2.2,1.1-6.7,2.2-12.4,2.2c-13.2,0-23.2-8.3-23.2-23.7c0-14.7,9.9-24.6,24.5-24.6&#xA;&#x9;&#x9;c5.8,0,9.5,1.3,11.1,2.1l-1.5,4.9c-2.3-1.1-5.6-1.9-9.5-1.9c-11,0-18.3,7-18.3,19.3c0,11.5,6.6,18.8,18,18.8c3.7,0,7.4-0.8,9.9-1.9&#xA;&#x9;&#x9;L234.1,512z"/>
    <path class="st2" d="M271.2,496.4c0,12.5-8.6,17.9-16.8,17.9c-9.1,0-16.1-6.7-16.1-17.3c0-11.3,7.4-17.9,16.7-17.9&#xA;&#x9;&#x9;C264.7,479.1,271.2,486.1,271.2,496.4z M244.5,496.7c0,7.4,4.2,12.9,10.2,12.9c5.8,0,10.2-5.5,10.2-13.1c0-5.7-2.9-12.9-10.1-12.9&#xA;&#x9;&#x9;C247.6,483.6,244.5,490.3,244.5,496.7z"/>
    <path class="st2" d="M278.9,488.9c0-3.5-0.1-6.3-0.3-9.1h5.4l0.3,5.6h0.1c1.7-3.2,5.6-6.3,11.1-6.3c4.7,0,11.9,2.8,11.9,14.3v20.1&#xA;&#x9;&#x9;h-6.1v-19.4c0-5.4-2-10-7.8-10c-4,0-7.2,2.9-8.2,6.3c-0.3,0.8-0.4,1.8-0.4,2.9v20.2h-6.1V488.9z"/>
    <path class="st2" d="M324.6,470.2v9.7h8.8v4.7h-8.8v18.2c0,4.2,1.2,6.5,4.6,6.5c1.6,0,2.8-0.2,3.5-0.4l0.3,4.6&#xA;&#x9;&#x9;c-1.2,0.5-3.1,0.8-5.4,0.8c-2.9,0-5.1-0.9-6.6-2.6c-1.7-1.8-2.4-4.8-2.4-8.8v-18.4h-5.2v-4.7h5.2v-8.1L324.6,470.2z"/>
    <path class="st2" d="M358.8,513.5l-0.5-4.2h-0.2c-1.9,2.6-5.5,5-10.3,5c-6.8,0-10.3-4.8-10.3-9.7c0-8.1,7.2-12.6,20.2-12.5v-0.7&#xA;&#x9;&#x9;c0-2.8-0.8-7.8-7.7-7.8c-3.1,0-6.4,1-8.8,2.5l-1.4-4c2.8-1.8,6.8-3,11.1-3c10.3,0,12.8,7,12.8,13.8v12.6c0,2.9,0.1,5.8,0.6,8.1&#xA;&#x9;&#x9;H358.8z M357.9,496.3c-6.7-0.1-14.3,1-14.3,7.6c0,4,2.6,5.8,5.8,5.8c4.4,0,7.2-2.8,8.1-5.6c0.2-0.6,0.4-1.3,0.4-1.9V496.3z"/>
    <path class="st2" d="M380.5,470.4c0.1,2.1-1.5,3.8-3.9,3.8c-2.2,0-3.7-1.7-3.7-3.8c0-2.2,1.6-3.8,3.8-3.8&#xA;&#x9;&#x9;C379.1,466.5,380.5,468.2,380.5,470.4z M373.7,513.5v-33.7h6.1v33.7H373.7z"/>
    <path class="st2" d="M390,488.9c0-3.5-0.1-6.3-0.3-9.1h5.4l0.4,5.6h0.1c1.7-3.2,5.6-6.3,11.1-6.3c4.7,0,11.9,2.8,11.9,14.3v20.1&#xA;&#x9;&#x9;h-6.1v-19.4c0-5.4-2-10-7.8-10c-4,0-7.2,2.9-8.2,6.3c-0.3,0.8-0.4,1.8-0.4,2.9v20.2H390V488.9z"/>
    <path class="st2" d="M432,497.8c0.1,8.3,5.4,11.7,11.5,11.7c4.4,0,7-0.8,9.3-1.7l1,4.4c-2.2,1-5.8,2.1-11.2,2.1&#xA;&#x9;&#x9;c-10.4,0-16.6-6.8-16.6-17c0-10.2,6-18.2,15.8-18.2c11,0,13.9,9.7,13.9,15.9c0,1.3-0.1,2.2-0.2,2.9H432z M449.9,493.4&#xA;&#x9;&#x9;c0.1-3.9-1.6-9.9-8.5-9.9c-6.2,0-8.9,5.7-9.4,9.9H449.9z"/>
    <path class="st2" d="M463.4,490.3c0-4-0.1-7.4-0.3-10.5h5.4l0.2,6.6h0.3c1.5-4.5,5.2-7.4,9.3-7.4c0.7,0,1.2,0.1,1.7,0.2v5.8&#xA;&#x9;&#x9;c-0.6-0.1-1.3-0.2-2.1-0.2c-4.3,0-7.4,3.3-8.2,7.9c-0.1,0.8-0.3,1.8-0.3,2.9v17.9h-6.1V490.3z"/>
    <path class="st2" d="M500.2,506.1c2.7,1.7,6.7,3.1,10.9,3.1c6.2,0,9.8-3.3,9.8-8c0-4.4-2.5-6.9-8.8-9.3&#xA;&#x9;&#x9;c-7.7-2.7-12.4-6.7-12.4-13.3c0-7.3,6.1-12.7,15.2-12.7c4.8,0,8.3,1.1,10.4,2.3l-1.7,4.9c-1.5-0.8-4.7-2.2-8.9-2.2&#xA;&#x9;&#x9;c-6.4,0-8.8,3.8-8.8,7c0,4.4,2.8,6.5,9.3,9c7.9,3.1,12,6.9,12,13.8c0,7.2-5.4,13.5-16.4,13.5c-4.5,0-9.5-1.3-12-3L500.2,506.1z"/>
    <path class="st2" d="M539,497.8c0.1,8.3,5.4,11.7,11.5,11.7c4.4,0,7-0.8,9.3-1.7l1,4.4c-2.2,1-5.8,2.1-11.2,2.1&#xA;&#x9;&#x9;c-10.4,0-16.6-6.8-16.6-17c0-10.2,6-18.2,15.8-18.2c11,0,13.9,9.7,13.9,15.9c0,1.3-0.1,2.2-0.2,2.9H539z M556.9,493.4&#xA;&#x9;&#x9;c0.1-3.9-1.6-9.9-8.5-9.9c-6.2,0-8.9,5.7-9.4,9.9H556.9z"/>
    <path class="st2" d="M570.4,490.3c0-4-0.1-7.4-0.3-10.5h5.4l0.2,6.6h0.3c1.5-4.5,5.2-7.4,9.3-7.4c0.7,0,1.2,0.1,1.7,0.2v5.8&#xA;&#x9;&#x9;c-0.6-0.1-1.3-0.2-2.1-0.2c-4.3,0-7.4,3.3-8.2,7.9c-0.1,0.8-0.3,1.8-0.3,2.9v17.9h-6V490.3z"/>
    <path class="st2" d="M597.2,479.8l6.6,18.9c1.1,3.1,2,5.8,2.7,8.6h0.2c0.8-2.8,1.7-5.6,2.9-8.6l6.5-18.9h6.4l-13.2,33.7h-5.8&#xA;&#x9;&#x9;l-12.8-33.7H597.2z"/>
    <path class="st2" d="M635.1,470.4c0.1,2.1-1.5,3.8-3.9,3.8c-2.2,0-3.7-1.7-3.7-3.8c0-2.2,1.6-3.8,3.8-3.8&#xA;&#x9;&#x9;C633.6,466.5,635.1,468.2,635.1,470.4z M628.3,513.5v-33.7h6.1v33.7H628.3z"/>
    <path class="st2" d="M668.5,512.2c-1.6,0.8-5.1,1.9-9.7,1.9c-10.2,0-16.8-6.9-16.8-17.2c0-10.4,7.1-17.9,18.1-17.9&#xA;&#x9;&#x9;c3.6,0,6.8,0.9,8.5,1.7l-1.4,4.7c-1.5-0.8-3.8-1.6-7.1-1.6c-7.7,0-11.9,5.7-11.9,12.7c0,7.8,5,12.6,11.7,12.6&#xA;&#x9;&#x9;c3.5,0,5.8-0.9,7.5-1.7L668.5,512.2z"/>
    <path class="st2" d="M678.7,497.8c0.1,8.3,5.4,11.7,11.5,11.7c4.4,0,7-0.8,9.3-1.7l1,4.4c-2.2,1-5.8,2.1-11.2,2.1&#xA;&#x9;&#x9;c-10.4,0-16.6-6.8-16.6-17c0-10.2,6-18.2,15.8-18.2c11,0,13.9,9.7,13.9,15.9c0,1.3-0.1,2.2-0.2,2.9H678.7z M696.6,493.4&#xA;&#x9;&#x9;c0.1-3.9-1.6-9.9-8.5-9.9c-6.2,0-8.9,5.7-9.4,9.9H696.6z"/>
  </g>
</svg>