<svg xmlns="http://www.w3.org/2000/svg" role="img" viewBox="99.38 -4.12 506.74 526.24"><title>Azure Monitor logo</title><defs><style>.cls-6{fill:#a0a1a2}</style></defs><path fill="#fff" d="M335.041 42.36a172.695 172.695 0 1 0 189.813 153.682l-.003-.033c-5.062-47.873-29.368-88.811-64.297-117.072a169.612 169.612 0 0 0-107.016-37.542 178.266 178.266 0 0 0-18.497.965"/><path d="M281.983 168.073l-42.021-34.013a138.412 138.412 0 0 0-24.898 85.174l53.725-5.652a84.866 84.866 0 0 1 13.194-45.509" style="isolation:isolate" fill="#7fba00" opacity=".4"/><path d="M399.513 141.494l34.02-42.03a138.498 138.498 0 0 0-85.223-24.822l5.652 53.716a84.96 84.96 0 0 1 45.55 13.136" style="isolation:isolate" fill="#7fba00" opacity=".8"/><path d="M335.233 130.48l-5.66-53.774a138.604 138.604 0 0 0-77.816 42.645l41.988 33.996a84.805 84.805 0 0 1 41.488-22.866" style="isolation:isolate" fill="#7fba00" opacity=".6"/><path d="M270.87 232.311l-53.775 5.677a138.504 138.504 0 0 0 42.629 77.89l33.987-41.987a84.836 84.836 0 0 1-22.841-41.58" style="isolation:isolate" fill="#7fba00" opacity=".25"/><path d="M560.037 192.305c-6.06-57.745-35.553-107.241-77.19-140.913a201.8 201.8 0 0 0-25.806-17.48l-16.34 31.44a164.977 164.977 0 0 1 19.853 13.585c34.929 28.26 59.235 69.191 64.288 117.064A172.44 172.44 0 0 1 281.75 371.193l-16.323 31.415c104.067 48.523 227.766 3.495 276.289-100.573a207.907 207.907 0 0 0 18.322-109.73" class="cls-6"/><path d="M244.482 348.318A172.643 172.643 0 0 1 440.7 65.344l16.34-31.433a207.949 207.949 0 0 0-265.684 49.255l-.059.075c-72.331 88.781-58.996 219.389 29.786 291.72a207.348 207.348 0 0 0 44.35 27.64l16.324-31.417a173.257 173.257 0 0 1-37.276-22.866" class="cls-6"/><path d="M244.482 348.318A172.643 172.643 0 0 1 440.7 65.344l16.34-31.433a207.949 207.949 0 0 0-265.684 49.255l-.059.075c-72.331 88.781-58.996 219.389 29.786 291.72a207.348 207.348 0 0 0 44.35 27.64l16.324-31.417a173.257 173.257 0 0 1-37.276-22.866" style="isolation:isolate" fill="#fff" opacity=".2"/><path fill="#7fba00" d="M448.25 111.26l-33.995 41.996a84.582 84.582 0 0 1 18.846 28.61h56.397a138.377 138.377 0 0 0-41.247-70.606z"/><path fill="#dd5900" d="M337.139 231.08a24.328 24.328 0 0 1 17.156-41.597 23.96 23.96 0 0 1 17.123 6.768c.059.058.084-.067.158 0h118.92l5.17-.042.033.042a17.69 17.69 0 1 1 .15 35.377H370.227a24.772 24.772 0 0 1-16.008 6.485 24.18 24.18 0 0 1-17.081-7.034"/><path fill="#ff8c00" d="M495.7 196.4l-.034-.041-5.17.041h-118.92c-.074-.066-.1.059-.158 0a23.96 23.96 0 0 0-17.123-6.767 24.327 24.327 0 0 0-24.348 24.306v.009h183.5a17.721 17.721 0 0 0-17.748-17.548z"/><path d="M140.984 459.927l19.248 51.471H148.48l-3.893-11.461H125.34l-4.037 11.461h-11.39l19.464-51.471zm.649 31.575l-6.488-18.888H135l-6.705 18.888zm39.072-9.66h-17.95v-7.714h31.431v7.714l-19.392 21.843h20.762v7.713h-34.243v-7.713zm45.56 29.556v-5.19h-.216a11.516 11.516 0 0 1-5.046 4.686 14.9 14.9 0 0 1-6.344 1.442 17.888 17.888 0 0 1-6.74-1.082 9.716 9.716 0 0 1-4.146-3.064 11.984 11.984 0 0 1-2.127-4.83 30.023 30.023 0 0 1-.612-6.307v-22.925h10.236v21.05q0 4.615 1.442 6.885 1.442 2.272 5.119 2.271 4.18 0 6.055-2.487 1.874-2.488 1.875-8.183v-19.536h10.237v37.27zm27.25-37.27v6.92h.144a12.565 12.565 0 0 1 1.946-3.207 12.776 12.776 0 0 1 2.811-2.524 13.79 13.79 0 0 1 3.389-1.622 12.244 12.244 0 0 1 3.749-.576 7.994 7.994 0 0 1 2.234.36v9.516q-.722-.143-1.73-.252a18.252 18.252 0 0 0-1.946-.108 10.915 10.915 0 0 0-4.758.937 8.243 8.243 0 0 0-3.136 2.559 10.241 10.241 0 0 0-1.694 3.785 20.57 20.57 0 0 0-.505 4.686v16.796h-10.236v-37.27zm27.97 28.331q2.307 2.235 6.633 2.235a9.13 9.13 0 0 0 5.334-1.55 6.435 6.435 0 0 0 2.74-3.28h9.01q-2.162 6.705-6.632 9.588a19.522 19.522 0 0 1-10.813 2.884 21.276 21.276 0 0 1-7.93-1.406 16.465 16.465 0 0 1-5.983-4.001 17.995 17.995 0 0 1-3.785-6.2 22.675 22.675 0 0 1-1.333-7.93 21.732 21.732 0 0 1 1.37-7.785 18.02 18.02 0 0 1 9.911-10.381 19.29 19.29 0 0 1 7.75-1.514 17.723 17.723 0 0 1 8.29 1.838 16.56 16.56 0 0 1 5.804 4.939 20.317 20.317 0 0 1 3.28 7.064 26.352 26.352 0 0 1 .72 8.29h-26.89q.218 4.975 2.524 7.209zm11.57-19.608q-1.838-2.017-5.586-2.019a8.918 8.918 0 0 0-4.073.83 7.779 7.779 0 0 0-2.596 2.054 7.527 7.527 0 0 0-1.37 2.596 11.676 11.676 0 0 0-.468 2.45h16.653a11.84 11.84 0 0 0-2.56-5.911zm55.905-22.924L361 495.322h.145l11.39-35.395h15.93v51.471H377.87v-36.477h-.144l-12.616 36.477h-8.723l-12.616-36.117h-.144v36.117H333.03v-51.471zm48.589 24.763a17.042 17.042 0 0 1 9.948-10.166 21.298 21.298 0 0 1 7.93-1.405 21.582 21.582 0 0 1 7.966 1.405 16.971 16.971 0 0 1 9.984 10.165 22.88 22.88 0 0 1 1.37 8.11 22.58 22.58 0 0 1-1.37 8.074 17.5 17.5 0 0 1-3.893 6.164 16.959 16.959 0 0 1-6.091 3.929 22.098 22.098 0 0 1-7.966 1.37 21.804 21.804 0 0 1-7.93-1.37 17.008 17.008 0 0 1-6.056-3.929 17.474 17.474 0 0 1-3.892-6.164 22.58 22.58 0 0 1-1.37-8.074 22.88 22.88 0 0 1 1.37-8.11zm9.3 12.471a11.595 11.595 0 0 0 1.477 3.82 7.854 7.854 0 0 0 2.776 2.704 8.463 8.463 0 0 0 4.325 1.01 8.664 8.664 0 0 0 4.361-1.01 7.77 7.77 0 0 0 2.812-2.704 11.64 11.64 0 0 0 1.478-3.82 21.847 21.847 0 0 0 .433-4.362 22.405 22.405 0 0 0-.433-4.398 11.256 11.256 0 0 0-1.478-3.82 8.209 8.209 0 0 0-2.812-2.703 8.439 8.439 0 0 0-4.361-1.046 7.875 7.875 0 0 0-7.1 3.749 11.215 11.215 0 0 0-1.478 3.82 22.33 22.33 0 0 0-.433 4.398 21.777 21.777 0 0 0 .433 4.362zm44.262-23.033v5.19h.216a11.747 11.747 0 0 1 5.047-4.721 14.599 14.599 0 0 1 6.344-1.478 17.384 17.384 0 0 1 6.74 1.117 9.994 9.994 0 0 1 4.145 3.1 12.009 12.009 0 0 1 2.127 4.83 30.063 30.063 0 0 1 .613 6.308v22.924h-10.237v-21.05q0-4.612-1.442-6.884-1.443-2.27-5.118-2.27-4.182 0-6.056 2.486-1.876 2.487-1.875 8.182v19.536H441.38v-37.27zm33.304-5.767v-8.434h10.237v8.434zm10.237 5.767v37.27h-10.237v-37.27zm28.548 0v6.849h-7.498v18.455q0 2.595.865 3.46.865.865 3.46.865c.578 0 1.13-.024 1.659-.072a13.91 13.91 0 0 0 1.513-.216v7.93a24.271 24.271 0 0 1-2.883.288q-1.587.071-3.1.072a29.926 29.926 0 0 1-4.505-.324 10.623 10.623 0 0 1-3.749-1.262 6.671 6.671 0 0 1-2.56-2.667 9.523 9.523 0 0 1-.936-4.542v-21.987h-6.2v-6.849h6.2v-11.174h10.236v11.174zm5.116 10.562a17.046 17.046 0 0 1 9.95-10.166 21.294 21.294 0 0 1 7.93-1.405 21.584 21.584 0 0 1 7.964 1.405 16.971 16.971 0 0 1 9.985 10.165 22.902 22.902 0 0 1 1.37 8.11 22.603 22.603 0 0 1-1.37 8.074 17.486 17.486 0 0 1-3.893 6.164 16.95 16.95 0 0 1-6.092 3.929 22.1 22.1 0 0 1-7.965 1.37 21.802 21.802 0 0 1-7.93-1.37 17.007 17.007 0 0 1-6.055-3.929 17.489 17.489 0 0 1-3.894-6.164 22.581 22.581 0 0 1-1.369-8.074 22.88 22.88 0 0 1 1.37-8.11zm9.3 12.471a11.619 11.619 0 0 0 1.478 3.82 7.87 7.87 0 0 0 2.775 2.704 8.467 8.467 0 0 0 4.326 1.01 8.664 8.664 0 0 0 4.362-1.01 7.783 7.783 0 0 0 2.81-2.704 11.619 11.619 0 0 0 1.479-3.82 21.777 21.777 0 0 0 .431-4.362 22.33 22.33 0 0 0-.431-4.398 11.236 11.236 0 0 0-1.479-3.82 8.223 8.223 0 0 0-2.81-2.703 8.439 8.439 0 0 0-4.362-1.046 7.875 7.875 0 0 0-7.101 3.749 11.236 11.236 0 0 0-1.479 3.82 22.475 22.475 0 0 0-.431 4.398 21.917 21.917 0 0 0 .431 4.362zm44.263-23.033v6.92h.144a12.526 12.526 0 0 1 1.947-3.207 12.765 12.765 0 0 1 2.811-2.524 13.777 13.777 0 0 1 3.388-1.622 12.244 12.244 0 0 1 3.749-.576 7.99 7.99 0 0 1 2.234.36v9.516q-.72-.143-1.73-.252a18.278 18.278 0 0 0-1.946-.108 10.917 10.917 0 0 0-4.758.937 8.249 8.249 0 0 0-3.136 2.559 10.25 10.25 0 0 0-1.694 3.785 20.625 20.625 0 0 0-.504 4.686v16.796h-10.238v-37.27z"/></svg>