<svg xmlns="http://www.w3.org/2000/svg" role="img" viewBox="-9.05 -8.55 470.60 470.10"><title>B1 Systems (member) logo</title><g transform="matrix(1.33333 0 0 -1.33333 0 454.667) scale(.1)"><path fill="#224779" fill-opacity="1" fill-rule="nonzero" stroke="none" d="M2.53906 2360.73V634.398c690.58194 0 1312.23094-.386 1312.23094-.386 345.27 0 345.03 345.429 345.03 345.429V2015.3s.28 345.43-345.03 345.43H2.53906zM347.969 2015.3H1107.5c207.19 0 207.27-207.23 207.27-207.23v-621.36s-.08-207.269-207.27-207.269H347.969z"/><path fill="#224779" fill-opacity="1" fill-rule="nonzero" stroke="none" d="M2.53906 3396.63V2084.4H1038.44c345.27 0 345.43 276.33 345.43 276.33v690.47s-.16 345.43-345.43 345.43zM347.969 3051.2H900.27c138.17 0 138.17-138.17 138.17-138.17.04-189.88.04-224.18 0-414.14 0 0 0-138.16-138.17-138.16H347.969z"/><path fill="#f7b234" fill-opacity="1" fill-rule="nonzero" stroke="none" d="M2695.94 2982.17l-1104.96-276.21h1104.96"/><path fill="none" stroke="#1a171b" stroke-dasharray="none" stroke-linecap="butt" stroke-linejoin="round" stroke-miterlimit="4" stroke-opacity="1" stroke-width="18.272" d="M2695.94 2982.18l-1104.96-276.21h1104.96"/><path fill="#1a171b" fill-opacity="1" fill-rule="nonzero" stroke="none" d="M2695.94 2982.17l-1104.96-276.21 1104.88 690.55"/><path fill="none" stroke="#1a171b" stroke-dasharray="none" stroke-linecap="round" stroke-linejoin="round" stroke-miterlimit="4" stroke-opacity="1" stroke-width="18.272" d="M2695.94 2982.18l-1104.96-276.21 1104.88 690.54"/><path fill="#1a171b" fill-opacity="1" fill-rule="nonzero" stroke="none" d="M2695.94 634.129V3396.51h276.29s414.41 0 414.33-414.34V634.129z"/><path fill="none" stroke="#1a171b" stroke-dasharray="none" stroke-linecap="round" stroke-linejoin="round" stroke-miterlimit="4" stroke-opacity="1" stroke-width="18.272" d="M2695.94 634.129V3396.51h276.29s414.41 0 414.33-414.33V634.129z"/><path fill="#fff" fill-opacity="1" fill-rule="nonzero" stroke="none" d="M2695.94 2705.96V634.129h690.62L2972.23 1739.13v621.52z"/><path fill="none" stroke="#1a171b" stroke-dasharray="none" stroke-linecap="butt" stroke-linejoin="miter" stroke-miterlimit="4" stroke-opacity="1" stroke-width="12.181" d="M2695.94 2705.97V634.129h690.62L2972.23 1739.13v621.52z"/><path fill="#1a171b" fill-opacity="1" fill-rule="nonzero" stroke="none" d="M21.4492 84.2813C45.3906 69.0898 79.6094 57.4102 116.41 57.4102c54.488 0 86.399 28.1601 86.399 70.4298 0 37.969-22.11 60.66-77.887 81.441-67.3009 24.528-109.0236 60.078-109.0236 117.578 0 64.379 53.2422 112.153 133.5506 112.153 41.723 0 72.93-9.692 90.75-20.203l-14.73-43.59c-12.77 8.09-40.309 19.73-77.77 19.73-56.4099 0-77.8201-33.75-77.8201-61.918 0-38.551 25.1992-57.609 82.0001-79.679 69.922-27.5 104.801-60.551 104.801-121.293 0-63.5981-46.52-119.4184-143.91-119.4184-39.8403 0-83.3911 12.1485-105.46922 26.961z"/><path fill="#1a171b" fill-opacity="1" fill-rule="nonzero" stroke="none" d="M606.02 19.4414V194.602L474.961 432.25h61.25l58.129-113.898c15.43-31.223 28.199-56.332 41.051-85.082h1.25c11.089 26.871 25.781 53.859 41.757 85.082l59.493 113.898h59.839L659.84 195.18V19.4414z"/><path fill="#1a171b" fill-opacity="1" fill-rule="nonzero" stroke="none" d="M1014.88 84.2813c23.91-15.1915 58.28-26.8711 95-26.8711 54.65 0 86.29 28.1601 86.29 70.4298 0 37.969-22.03 60.66-77.65 81.441-67.47 24.528-109.18 60.078-109.18 117.578 0 64.379 53.28 112.153 133.71 112.153 41.52 0 72.97-9.692 90.5-20.203l-14.64-43.59c-12.82 8.09-40.36 19.73-77.7 19.73-56.44 0-77.97-33.75-77.97-61.918 0-38.551 25.2-57.609 82.15-79.679 69.88-27.5 104.65-60.551 104.65-121.293 0-63.5981-46.56-119.4184-143.79-119.4184-39.84 0-83.36 12.1485-105.35 26.961z"/><path fill="#1a171b" fill-opacity="1" fill-rule="nonzero" stroke="none" d="M1586.09 386.941h-125.66v45.309h305.86v-45.309h-126.33V19.4414h-53.87z"/><path fill="#1a171b" fill-opacity="1" fill-rule="nonzero" stroke="none" d="M2209.3 213.031h-159.85V64.0898h178.79V19.4414h-232.77V432.25h223.63v-44.648h-169.65v-130.5h159.85z"/><path fill="#1a171b" fill-opacity="1" fill-rule="nonzero" stroke="none" d="M2829.49 200.77c-3.2 57.5-6.83 127.378-6.83 178.242h-1.18c-14.72-47.813-31.36-99.801-52.07-156.84l-72.85-200.2736h-40.54l-67.31 196.5626c-19.57 58.867-35.51 111.57-47.11 160.551h-1.21c-1.29-51.453-4.37-120.121-8.09-182.543l-11.01-177.0276h-50.78l28.75 412.8476h68.01l70.39-199.609c17.11-50.942 30.58-96.168 41.6-139.1409h1.29c10.9 41.6799 25.74 86.9219 44.14 139.1409l73.47 199.609h68.05l25.78-412.8476h-52.77z"/><path fill="#1a171b" fill-opacity="1" fill-rule="nonzero" stroke="none" d="M3151.33 84.2813c23.87-15.1915 58.16-26.8711 94.88-26.8711 54.57 0 86.45 28.1601 86.45 70.4298 0 37.969-22.07 60.66-77.78 81.441-67.38 24.528-109.14 60.078-109.14 117.578 0 64.379 53.44 112.153 133.71 112.153 41.57 0 72.82-9.692 90.63-20.203l-14.69-43.59c-12.89 8.09-40.51 19.73-77.89 19.73-56.29 0-77.73-33.75-77.73-61.918 0-38.551 25-57.609 82.07-79.679 69.88-27.5 104.76-60.551 104.76-121.293 0-63.5981-46.6-119.4184-144.02-119.4184-39.77 0-83.24 12.1485-105.35 26.961z"/><path fill="#fff" fill-opacity="1" fill-rule="nonzero" stroke="none" d="M3041.21 3120.26c0-76.25-61.8-138.09-138.09-138.09-76.28 0-138.12 61.84-138.12 138.09 0 76.29 61.84 138.16 138.12 138.16 76.29 0 138.09-61.87 138.09-138.16z"/><path fill="#1a171b" fill-opacity="1" fill-rule="nonzero" stroke="none" d="M2972.23 3120.26c0-38.09-30.86-69.02-69.11-69.02-38.04 0-68.98 30.93-68.98 69.02 0 38.16 30.94 69.14 68.98 69.14 38.25 0 69.11-30.98 69.11-69.14z"/></g></svg>