<svg id="Layer_1" data-name="Layer 1" xmlns="http://www.w3.org/2000/svg" viewBox="-5.050399999999968 1.6384800000000155 593.84 287.04"><defs><style>.cls-1{fill:#e46017;}</style></defs><title>beakerx</title><path class="cls-1" d="M207.47166,218.38294V141.92119c2.02343,0,3.95632-.0334,5.88772.00572,8.68376.17589,17.38764.06475,26.04523.64227,9.94207.66318,17.1332,6.672,18.50245,14.64945,1.71123,9.96976-1.86733,16.74664-11.13617,21.10565-.54507.25634-1.06373.56883-2.11337,1.13493,1.29865.46725,2.10779.78984,2.9362,1.05155,8.62174,2.72391,12.91119,7.34693,13.31591,15.52466.40378,8.15788-2.74951,15.02632-10.2675,18.71429a36.629,36.629,0,0,1-13.58379,3.70579c-9.3885.55864-18.83381.1652-28.25569.15146A8.88447,8.88447,0,0,1,207.47166,218.38294Zm9.94634-7.471c6.2176,0,12.20284.09691,18.182-.05183a23.16983,23.16983,0,0,0,6.36621-1.12047c6.12341-1.951,9.417-6.82466,9.15888-13.17824-.25608-6.30259-3.97916-11.16032-10.49889-11.95119-6.8462-.83047-13.823-.59275-20.74368-.78824a17.5765,17.5765,0,0,0-2.4645.28427Zm-.17491-61.6506c0,9.02645-.0472,17.372.10062,25.71415.01042.58916,1.44088,1.62128,2.24028,1.65062a107.05629,107.05629,0,0,0,13.32166-.019,27.16728,27.16728,0,0,0,9.16336-2.36371c5.05686-2.41539,7.14292-7.70927,6.20039-13.96846-.77239-5.12919-4.00891-9.12823-9.36931-9.791C231.8874,149.61689,224.76436,149.6424,217.24309,149.26138Z"/><path class="cls-1" d="M415.05738,164.39894c-7.6296,8.17293-14.88283,15.94264-22.26184,23.84714,7.76484,9.94369,15.51662,19.87059,23.55793,30.16827-5.54758.40462-10.22888,1.06361-13.87315-4.43343-4.39116-6.6237-9.798-12.5746-14.77666-18.80756-.51446-.64408-1.00876-1.5773-1.68332-1.76634a13.06023,13.06023,0,0,0-5.05571-.62971c-.489.064-.985,2.20993-1,3.40794-.09158,7.33677-.04585,14.67523-.04585,22.22692h-8.79364v-78.0997h8.793v3.7204c.00015,12.74665-.02414,25.4934.03962,38.23974a16.57034,16.57034,0,0,0,.86032,3.66675c1.73035-.42793,3.93615-.32976,5.10163-1.38286,3.44682-3.11441,6.48647-6.68008,9.67746-10.0767,1.20542-1.28307,2.366-2.60885,3.58653-3.8771C406.55178,162.94675,403.38649,164.36731,415.05738,164.39894Z"/><path class="cls-1" d="M511.48377,218.24192c8.02321-11.17279,15.95149-22.21337,23.87976-33.25393l-1.02364-.78657a25.89471,25.89471,0,0,0-1.85295,2.0752c-6.54572,9.06578-13.27614,18.0088-19.50317,27.28925-2.747,4.094-5.69508,6.29247-10.97374,4.65119.53613-.78542,1.11033-1.6661,1.7234-2.5188,8.34121-11.6009,16.62965-23.2407,25.08864-34.75512,1.46427-1.99311,1.2989-3.26324-.06711-5.12893-7.40084-10.10788-14.682-20.3034-21.9961-30.47469-.6973-.96969-1.33732-1.98052-2.14188-3.17749,4.66764-.85544,7.89955-.4622,10.87171,3.76044,16.62552,23.62035,33.63131,46.973,50.50229,70.42068.4127.57364.76877,1.188,1.32346,2.05143-4.50564.57056-8.058.75168-10.91286-3.87077-4.45-7.20527-9.78628-13.86364-14.7614-20.74332-.64791-.896-1.38161-1.72991-2.32012-2.89658-2.5994,3.58327-5.01983,6.90794-7.42748,10.24187-3.09143,4.28077-6.54249,8.3569-9.15468,12.91327C520.09511,218.64871,516.52729,219.42048,511.48377,218.24192Z"/><path class="cls-1" d="M275.97108,191.26742c-1.20424,15.57825,11.22875,24.89922,25.1461,19.42521a32.31854,32.31854,0,0,0,3.64608-1.71807c5.08319-2.776,5.0756-2.78992,8.35313,2.23491-3.34452,3.91988-7.80978,5.93075-12.71954,7.02482-10.5809,2.35781-20.29335,1.0912-27.65581-7.76641-7.83339-9.42414-8.13066-27.48006-.86992-37.33412,6.13729-8.32937,18.026-11.73743,28.19285-8.08193,9.01109,3.23993,14.45745,12.5193,13.89452,23.38574-.12613,2.43526-1.32791,2.86493-3.39835,2.85411-10.362-.05418-20.72436-.02448-31.0866-.02426C278.35874,191.26744,277.244,191.26742,275.97108,191.26742Zm29.68067-5.99967c.19249-5.4875-1.38249-10.05359-5.96123-12.94182-5.14354-3.2445-10.69606-3.06571-15.931-.19411-4.99818,2.74174-7.021,7.45544-7.66122,13.13593Z"/><path class="cls-1" d="M424.68542,191.26739c-1.02092,13.02385,7.66265,24.433,23.46038,19.9769a26.91761,26.91761,0,0,0,5.39105-2.35365c4.877-2.63873,4.85419-2.68089,8.35248,2.47993a42.77626,42.77626,0,0,1-5.50933,4.07755,31.10024,31.10024,0,0,1-22.851,2.84508c-9.93594-2.568-16.85917-11.08642-17.87435-21.88679-.65558-6.97453-.48235-13.82582,2.96173-20.25659,5.36042-10.00881,17.27969-14.83,28.74341-11.473,9.96573,2.91837,16.03643,12.54957,15.21855,23.92914-.16287,2.26541-1.30885,2.69023-3.24686,2.68183-10.362-.045-20.72434-.02075-31.08657-.02046C427.11375,191.26741,425.98257,191.26739,424.68542,191.26739Zm.20913-6.05451h29.24618c.54767-8.34976-4.74959-14.69462-12.34544-15.04539C432.09274,169.71941,425.26619,175.72676,424.89455,185.21288Z"/><path class="cls-1" d="M352.50115,211.05212c-1.56809,1.24614-2.74682,2.207-3.9506,3.1354a22.64617,22.64617,0,0,1-19.544,4.48594,12.18048,12.18048,0,0,1-9.8048-9.2588c-1.45829-5.44007-.5353-10.30683,3.896-14.07454,5.25912-4.47158,11.72581-5.89219,18.32683-6.78071a70.72659,70.72659,0,0,1,8.34473-.58113c1.70166-.02583,2.19589-.82217,2.12055-2.27768a45.94367,45.94367,0,0,0-.47195-6.79067c-1.313-6.4246-7.03661-9.69955-14.1689-7.78883-3.124.8369-6.03282,2.60045-8.92012,4.16343-3.05161,1.65194-5.46806.9068-6.46829-2.40861a2.36837,2.36837,0,0,1,.624-2.03776c7.76138-6.34493,16.514-8.89226,26.32726-6.08438a16.05909,16.05909,0,0,1,11.68466,15.22477c.35208,11.89333.234,23.80047.32866,35.70166.01219,1.532-.32642,2.68886-2.19755,2.60817-2.00121-.08635-4.33511.53237-5.04736-2.314C353.21371,214.50944,352.93006,213.02378,352.50115,211.05212Zm-.62058-10.35536a27.55288,27.55288,0,0,0-.0802-4.90953c-.14932-.74406-1.10909-1.877-1.72451-1.891-6.45182-.14645-12.7966.56749-18.55487,3.76681-3.50637,1.94811-4.98215,5.08091-3.81241,8.88421a8.88519,8.88519,0,0,0,3.64252,4.99345c5.0182,2.61328,10.04737,1.27577,14.71615-1.3736C349.911,207.98589,353.24718,205.36571,351.88057,200.69676Z"/><path class="cls-1" d="M576.742,218.22313c-5.176,1.57314-7.9766-.54581-10.784-4.51477-16.32748-23.0834-32.965-45.94747-49.49037-68.891-.58149-.80735-1.08514-1.67075-1.78558-2.757,4.25277-.53854,7.51345-.68338,10.07915,3.51485,3.76974,6.16836,8.35517,11.83877,12.60582,17.71209.59109.81676,1.25465,1.58107,2.15227,2.70452,3.02953-4.21211,5.85291-8.14232,8.68156-12.06874,1.87691-2.60535,4.09276-5.03187,5.56607-7.84761,2.30793-4.4109,5.76629-4.988,10.43472-3.88365-7.05642,9.837-14.02459,19.551-20.99273,29.26493l.99066.79528c.7244-.83246,1.51833-1.61466,2.16234-2.50525,5.58337-7.72125,11.43741-15.27047,16.58645-23.27269,2.83967-4.41318,6.21083-5.46476,11.22725-4.29844-.64764.99066-1.20708,1.92338-1.84019,2.803-7.26086,10.0874-14.45544,20.22415-21.85859,30.20617-1.75719,2.36935-1.86081,3.96757-.05952,6.39945,8.32166,11.23513,16.43163,22.62715,24.607,33.97053C575.61583,216.37564,576.12323,217.25712,576.742,218.22313Z"/><path class="cls-1" d="M480.81909,218.5145H472.418v-54.205c1.44765,0,2.7707.066,4.08475-.0145,2.3493-.14395,3.40221.89338,3.49479,3.2512.09128,2.32329.4322,4.63675.74117,7.73159,1.44792-2.0523,2.38874-3.48835,3.43159-4.84613,4.41941-5.75391,10.96649-7.97711,17.60475-6.18437,1.97043.53211,2.85086,1.4779,2.35747,3.509-.09767.40192-.21677.79934-.29754,1.20451-.90724,4.55134-.90576,4.55162-5.66555,3.78265A14.492,14.492,0,0,0,481.16977,187.152q-.01833,15.22687-.05458,30.4537A4.42,4.42,0,0,1,480.81909,218.5145Z"/><path class="cls-1" d="M188.21852,79.29582c-5.25738,5.51566-10.13422,11.4713-15.87077,16.433-6.80974,5.88987-8.957,12.569-8.87362,21.60063.46226,50.05113.19776,100.10877.28147,150.164.00493,2.94161-1.14121,4.77955-2.956,6.992-5.29322,6.45289-11.79007,7.83253-19.89079,7.75309-39.79177-.39035-79.58949-.19832-119.38495-.12446-2.37089.0044-3.94041-.94713-5.78171-2.24311C8.56428,274.819,6.76843,268.22318,6.83,259.49474c.41375-58.65412.21537-117.31258.21537-175.96963V80.15l.55931-.01712v3.454q0,91.40515-.06952,182.8102c-.00513,3.29493,1.23235,5.40151,3.27947,7.85677,4.89683,5.87313,10.78114,7.20043,18.22662,7.13431,39.79245-.35345,79.58974-.18933,119.3852-.11588a10.509,10.509,0,0,0,6.63121-2.49613c6.407-4.65433,8.36246-10.39194,8.29456-18.44014-.42671-50.57-.19383-101.14535-.273-151.71879a9.09464,9.09464,0,0,1,2.83905-7.09717c7.01974-7.04094,13.809-14.31164,20.69195-21.4891.38345-.39985.81687-.75177,1.227-1.126Z"/><path class="cls-1" d="M28.18919,188.51658q0-33.73263.00049-67.46523c.00019-4.29425.00309-4.30652,4.133-4.30689q53.31929-.005,106.63857.00076c4.01244.00052,4.02051.01725,4.02069,4.14842q.003,67.7761,0,135.5522c-.00018,4.13341-.00823,4.15017-4.01843,4.15068q-53.3193.00682-106.63858.0008c-4.13221-.00038-4.13511-.01259-4.13531-4.30463Q28.18813,222.40463,28.18919,188.51658Zm114.34886.47267c0-22.59154-.06077-45.18341.06952-67.77421.01826-3.1672-.88991-3.99215-4.02541-3.98245q-53.00668.164-106.014.006c-2.973-.00825-3.88325.79158-3.87755,3.80582q.128,67.61889.00082,135.23808c-.00557,2.99384.86922,3.8299,3.86191,3.82148q53.00679-.14937,106.014.00393c3.11263.00941,4.06055-.77539,4.04149-3.96638C142.47519,233.7581,142.538,211.37349,142.53805,188.98925Z"/><path class="cls-1" d="M111.38267,38.59709a26.29332,26.29332,0,1,1,.28618,52.58565c-14.96349.00916-26.444-11.29869-26.52766-26.12881A26.04746,26.04746,0,0,1,111.38267,38.59709Zm25.672,26.19851c-.017-14.11693-11.82713-25.91313-25.73721-25.70679a25.7636,25.7636,0,0,0,.22093,51.52669A25.61757,25.61757,0,0,0,137.05466,64.7956Z"/><path class="cls-1" d="M54.40508,49.59227A20.51806,20.51806,0,0,1,33.5239,28.53045C33.57212,16.509,42.715,7.52748,54.8725,7.5587A20.909,20.909,0,0,1,75.71526,28.53541C75.65977,42.46837,63.71928,50.42865,54.40508,49.59227ZM74.94792,28.79881a20.43558,20.43558,0,0,0-40.868-.50772,20.43624,20.43624,0,1,0,40.868.50772Z"/><path class="cls-1" d="M44.2979,91.24309a10.74782,10.74782,0,1,1-.00332-21.49564,10.7487,10.7487,0,1,1,.00332,21.49564Zm10.045-10.68168A10.04209,10.04209,0,0,0,44.17021,70.364,10.32642,10.32642,0,0,0,34.08654,80.46313c-.01719,5.48179,4.90737,10.41434,10.29036,10.307A10.26894,10.26894,0,0,0,54.34292,80.56141Z"/></svg>