<svg xmlns="http://www.w3.org/2000/svg" role="img" viewBox="-7.63 -7.63 396.76 296.01"><title>Biqmind (member) logo</title><defs><style>.cls-1{fill:#ff4438}</style></defs><g id="Layer_2" data-name="Layer 2"><g id="Layer_1-2" data-name="Layer 1"><path d="M65.77 204.6v24.28a20.95 20.95 0 0 1 28.79.8 21 21 0 0 1-14.82 35.77 21 21 0 0 1-20.95-20.79V204.6zm4.08 30a13.49 13.49 0 0 0-4.08 9.77 13.7 13.7 0 0 0 4.08 10 14 14 0 1 0 0-19.78zm48.78-11.06v41.91h-7v-41.91zm0-18.94v7h-7v-7zm45.87 76.25v-20.79a20.94 20.94 0 1 1 7-15.48v36.27zm-4.08-26.51a13.47 13.47 0 0 0 4.08-9.76 13.93 13.93 0 0 0-14-14.1 14 14 0 1 0 9.89 23.86zm55.67 11.11v-21.08q0-9.51-7.57-12.75a13.54 13.54 0 0 0-10.69 0q-7.62 3.24-7.62 12.75v21.08h-6.94v-21.08a21.58 21.58 0 0 1 3.41-12.25 18.72 18.72 0 0 1 8.41-6.94 20.72 20.72 0 0 1 16.16 0 18.23 18.23 0 0 1 8.33 6.86 18.57 18.57 0 0 1 8.38-6.86 20.2 20.2 0 0 1 8.08-1.64 20.41 20.41 0 0 1 8.08 1.64 18.8 18.8 0 0 1 8.42 6.94 21.65 21.65 0 0 1 3.4 12.25v21.08h-7v-21.08q0-9.51-7.58-12.75a13.26 13.26 0 0 0-5.34-1.1 13.43 13.43 0 0 0-5.39 1.1q-7.58 3.24-7.57 12.75v21.08zm59.04-41.91v41.91h-7v-41.91zm.05-18.94v7h-7v-7zm47.09 60.85v-21a14 14 0 0 0-28-.08v21h-6.94v-21a21 21 0 0 1 35.77-14.73 20.25 20.25 0 0 1 6.1 14.81v21zm52.39-36.57V204.6h7v39.77a21 21 0 1 1-7-15.49zm-4.08 5.72a14 14 0 1 0 4.08 9.89 13.73 13.73 0 0 0-4.08-9.89z" class="cls-1"/><path fill="#2b3990" d="M292.63 88q2.64-2.24 5.12-4.47c1.21-1.09 2.38-2.18 3.53-3.27 23.5-22.36 34.72-44.91 27.23-60.89C315.38-8.83 249.35-5.89 181 25.92c-41.35 19.26-74.07 44.69-90.54 68-42.89 12.76-70.25 28.58-67.3 41.32.58 2.53 2.35 4.81 5.14 6.83 3.49-9.91 23.27-21.21 53.06-31.4C78.55 118.4 78 125.59 80 131.9c8.22 27.66 63.74 51.56 132.19 55.26 75.26 4.07 137.64-17.8 139.32-48.86 1.09-19.65-22.41-38.3-58.88-50.3zm-107-57.18c50-23.26 99.29-23.13 110.2.3 5.61 12-.08 27.92-13.7 43.66-2 2.32-5.41 5.85-7.76 8.16a45.5 45.5 0 0 0-5.42-1.4 310.13 310.13 0 0 0-50.66-6.83c-8.6-.47-17-.58-25.21-.39-27.68.64-74 12.13-75 12.36 10.41-19.5 35.12-40.76 67.57-55.88zm-67.47 89.52c-.55-8.87 9.72-18.72 22.47-25.45 18.82-9.94 47.57-15.43 79.45-13.7q6.85.38 13.44 1.16a186.85 186.85 0 0 1 33.64 7 193.45 193.45 0 0 1-42 26.28c-46.1 21.46-105.95 20.74-106.98 4.69zM215 174.61c-30.88-1.68-58.13-9.76-75.84-21.1 25.81-2 57.34-10.56 89.38-25.48a301.33 301.33 0 0 0 54.71-32.58c21.44 9.76 34.69 23.4 33.91 37.83-1.36 25.8-47.09 44.3-102.16 41.33z"/><path d="M18.07 157.12a9.94 9.94 0 1 1-2.4-13.86 9.95 9.95 0 0 1 2.4 13.86z" class="cls-1"/></g></g></svg>