<svg xmlns="http://www.w3.org/2000/svg" role="img" viewBox="-3.94 -3.69 204.88 96.13"><title>Biznet Gio (member) logo</title><defs><linearGradient id="a" x1="-.083%" x2="100.081%" y1="50.038%" y2="50.038%"><stop offset="16.99%" stop-color="#A1C53B"/><stop offset="26.51%" stop-color="#94BB3D"/><stop offset="43.54%" stop-color="#73A63F"/><stop offset="65.98%" stop-color="#3B8A40"/><stop offset="76.24%" stop-color="#077E40"/></linearGradient><linearGradient id="b" x1="103.49%" x2="25.353%" y1="89.42%" y2="10.71%"><stop offset="0%" stop-color="#A1C53B"/><stop offset="20.57%" stop-color="#9DC23C"/><stop offset="38.72%" stop-color="#91B93D"/><stop offset="55.97%" stop-color="#7EAD3E"/><stop offset="72.65%" stop-color="#649D40"/><stop offset="88.78%" stop-color="#3E8B40"/><stop offset="100%" stop-color="#077E40"/></linearGradient><linearGradient id="c" x1="50.277%" x2="50.277%" y1="-1.341%" y2="107.209%"><stop offset="16.99%" stop-color="#A1C53B"/><stop offset="26.51%" stop-color="#94BB3D"/><stop offset="43.54%" stop-color="#73A63F"/><stop offset="65.98%" stop-color="#3B8A40"/><stop offset="76.24%" stop-color="#077E40"/></linearGradient><radialGradient id="d" cx="6.723%" cy="95.613%" r="117.052%" fx="6.723%" fy="95.613%"><stop offset="0%" stop-color="#A1C53B"/><stop offset="25.87%" stop-color="#9EC23C"/><stop offset="43.59%" stop-color="#93BB3D"/><stop offset="58.86%" stop-color="#83B03E"/><stop offset="72.76%" stop-color="#6DA23F"/><stop offset="85.72%" stop-color="#4F9240"/><stop offset="97.83%" stop-color="#1E8140"/><stop offset="100%" stop-color="#077E40"/></radialGradient></defs><g fill="none" fill-rule="evenodd"><path fill="#3DAA49" d="M83.1 58.9c0-5.4 3.8-10.2 9.7-10.2 2.9 0 4.9.8 6.7 2.2.2.1.3.3.3.6 0 .4-.3.7-.7.7-.1 0-.3-.1-.4-.2-1.5-1.2-3.2-2-5.9-2-4.8 0-8.1 4-8.1 8.8v.1c0 5.1 3.2 8.9 8.4 8.9 2.5 0 4.8-1 6.3-2.2V60h-6c-.4 0-.7-.3-.7-.7 0-.4.3-.7.7-.7h6.7c.4 0 .7.3.7.7v6.4c0 .3-.2.6-.5.8-1.9 1.4-4.3 2.5-7.2 2.5-6.3 0-10-4.5-10-10.1zm21.2-9.4c0-.5.4-.8.8-.8.5 0 .9.4.9.8v.5c0 .5-.4.8-.9.8s-.8-.4-.8-.8v-.5zm.2 5.5c0-.4.3-.7.7-.7.4 0 .7.3.7.7v13.1c0 .4-.3.7-.7.7-.4 0-.7-.3-.7-.7V55zm4.4 6.6c0-4.1 3.1-7.5 7.4-7.5 4.2 0 7.3 3.4 7.3 7.4v.1c0 4-3.1 7.5-7.4 7.5-4.2-.1-7.3-3.5-7.3-7.5zm13.2 0c0-3.5-2.6-6.3-5.9-6.3-3.4 0-5.8 2.8-5.8 6.1v.1c0 3.5 2.6 6.2 5.9 6.2 3.4.1 5.8-2.7 5.8-6.1zm3.8-2.7c0-5.6 4.2-10.2 9.8-10.2 3.3 0 5.3 1.1 7.2 2.8.1.1.3.3.3.6 0 .4-.4.7-.8.7-.2 0-.4-.1-.5-.2-1.6-1.5-3.5-2.6-6.3-2.6-4.7 0-8.3 3.8-8.3 8.8v.1c0 5 3.6 8.8 8.3 8.8 2.7 0 4.5-1 6.4-2.7.1-.1.3-.2.5-.2.4 0 .7.3.7.7 0 .2-.1.4-.2.5-2 1.9-4.2 3.1-7.4 3.1-5.6-.1-9.7-4.5-9.7-10.2zm20.3-10.1c0-.4.3-.7.7-.7.4 0 .7.3.7.7v19.3c0 .4-.3.7-.7.7-.4 0-.7-.3-.7-.7V48.8zm4.4 12.8c0-4.1 3.1-7.5 7.4-7.5 4.2 0 7.3 3.4 7.3 7.4v.1c0 4-3.1 7.5-7.4 7.5-4.2-.1-7.3-3.5-7.3-7.5zm13.2 0c0-3.5-2.6-6.3-5.9-6.3-3.4 0-5.8 2.8-5.8 6.1v.1c0 3.5 2.6 6.2 5.9 6.2 3.4.1 5.8-2.7 5.8-6.1zm16.3 6.5c0 .4-.3.7-.7.7-.4 0-.7-.3-.7-.7V66c-1 1.7-2.6 3-5.2 3-3.6 0-5.7-2.5-5.7-5.9V55c0-.4.3-.7.7-.7.4 0 .7.3.7.7v7.9c0 2.9 1.7 4.9 4.5 4.9s5-2.1 5-5.1V55c0-.4.3-.7.7-.7.4 0 .7.3.7.7v13.1zm17.1 0c0 .4-.3.7-.7.7-.4 0-.7-.3-.7-.7v-2.6c-1.2 1.9-3.1 3.5-5.9 3.5-3.4 0-7-2.8-7-7.4v-.1c0-4.7 3.5-7.5 7-7.5 2.9 0 4.7 1.6 5.9 3.4v-8.7c0-.4.3-.7.7-.7.4 0 .7.3.7.7v19.4zm-12.7-6.6c0 3.8 2.6 6.2 5.6 6.2 3 0 5.8-2.5 5.8-6.1v-.1c0-3.7-2.9-6.1-5.8-6.1-3.1 0-5.6 2.3-5.6 6.1z"/><path fill="url(#a)" d="M46.3 1.6C28-5 13.8 14.8 12.9 30.4 15.3 13.1 33.8 5.6 43.7 9.3c2.5 1 4.6 3 4.1 6.1-.2 1-.7 2-1.4 3.1-.2 0 10.5-13.1-.1-16.9z"/><path fill="url(#b)" d="M22.5 84.8c-11.3-5.9-9.9-36.5-9.9-48.5 0-2.1.1-4 .3-5.8C13.7 16.7 25-.5 40.3.4c-1.5-.1-3.1-.1-4.8 0-4.2.3-15.3 2.5-24 10.7C2.5 19.6.1 32.1.2 45.7c.3 32.9 15.3 38.4 21.9 40h.2c.3 0 .5-.2.5-.5-.1-.2-.2-.3-.3-.4z"/><path fill="url(#c)" d="M26.1 48.3c-9.2-8.3-14.7-10.8-15-15.7-.3-3.6 2.5-5.7 5.7-10.5 5.6-8.4 2.3-17.4-6.5-21.2 8.9 4.3-1.1 16.5-1.1 16.5 0-.1.1-.1.1-.2C6.1 21.8-1.3 28 .2 34.3c2.4 10.4 18.1 5.5 29 17.2-1.3-1.5-2.5-2.6-3.1-3.2z" transform="translate(37 1)"/><path fill="url(#d)" d="M40.1 18.5c-10.9-11.4-26.4-6.7-28.8-17-.1-.4-.1-.7-.2-1.1.2 8.9 6 12.3 15.1 19.3 9.9 7.4 11.4 30.5-24.6 32.1-.2 0-.5 0-.8.1-.5 0-.6.8 0 1 9.5 2.4 28.4 3.5 38.7-6.2 7.5-7.3 8.3-18.8.6-28.2z" transform="translate(26 34)"/><g fill="#2C2C6C"><path d="M83.9 21.4c0-1.1.8-1.9 1.9-1.9h7.8c2.5 0 4.4.7 5.7 1.9 1 1 1.5 2.1 1.5 3.6v.1c0 2.6-1.5 4-3.1 4.8 2.5.9 4.3 2.3 4.3 5.3v.1c0 3.9-3.2 6-8 6h-8.1c-1.1 0-1.9-.8-1.9-1.9v-18h-.1zm8.9 7.3c2.5 0 4.1-1 4.1-2.9v-.1c0-1.7-1.4-2.8-3.8-2.8h-5.5v5.8h5.2zm1.2 9.1c2.6 0 4.2-1 4.2-3v-.1c0-1.8-1.5-2.9-4.5-2.9h-6.1v6H94zm10.2-16.6c0-1.1.9-1.8 2.1-1.8 1.2 0 2.1.7 2.1 1.8v.2c0 1.1-.9 1.8-2.1 1.8-1.2 0-2.1-.7-2.1-1.8v-.2zm.2 5.9c0-1 .8-1.8 1.8-1.8s1.8.8 1.8 1.8v12.5c0 1-.8 1.8-1.8 1.8s-1.8-.8-1.8-1.8V27.1zm6.1 12.7c0-.7.2-1.2.8-1.8l8.4-9.6h-7.5c-.8 0-1.5-.7-1.5-1.5s.7-1.5 1.5-1.5h10.4c1 0 1.7.6 1.7 1.4v.2c0 .7-.2 1.1-.8 1.7l-8.4 9.6h7.8c.8 0 1.5.7 1.5 1.5s-.7 1.5-1.5 1.5h-10.7c-1-.1-1.7-.7-1.7-1.5zm16-12.7c0-1 .8-1.8 1.8-1.8s1.8.8 1.8 1.8v.8c1-1.5 2.5-2.8 4.9-2.8 3.6 0 5.6 2.4 5.6 6.1v8.4c0 1-.8 1.8-1.8 1.8s-1.8-.8-1.8-1.8v-7.3c0-2.4-1.2-3.9-3.4-3.9-2.1 0-3.6 1.5-3.6 3.9v7.3c0 1-.8 1.8-1.8 1.8s-1.8-.8-1.8-1.8V27.1h.1zm16.1 6.3c0-4.6 3.2-8.3 7.7-8.3 5 0 7.5 4.1 7.5 7.8 0 1-.8 1.7-1.7 1.7h-9.9c.4 2.6 2.2 4 4.5 4 1.5 0 2.7-.5 3.7-1.4.2-.1.5-.3.9-.3.8 0 1.4.7 1.4 1.5 0 .4-.2.8-.5 1.1-1.4 1.3-3.2 2.1-5.7 2.1-4.3 0-7.9-3.3-7.9-8.2zm11.7-1.2c-.2-2.3-1.6-4.1-4-4.1-2.2 0-3.8 1.7-4.1 4.1h8.1zm6.5 4.7v-8.3h-.6c-.9 0-1.6-.7-1.6-1.6 0-.9.7-1.6 1.6-1.6h.6v-2.7c0-1 .8-1.8 1.8-1.8s1.8.8 1.8 1.8v2.7h2.8c.9 0 1.6.7 1.6 1.6 0 .9-.7 1.6-1.6 1.6h-2.8v7.7c0 1.4.7 2 1.9 2 .4 0 .8-.1.9-.1.8 0 1.5.7 1.5 1.5 0 .7-.4 1.2-1 1.4-.8.3-1.5.4-2.5.4-2.5 0-4.4-1.2-4.4-4.6zm6.4-16c0-.9.7-1.7 1.7-1.7.9 0 1.7.8 1.7 1.7 0 .9-.7 1.7-1.7 1.7s-1.7-.8-1.7-1.7zm3.1 0c0-.8-.6-1.4-1.4-1.4-.8 0-1.4.7-1.4 1.4 0 .8.6 1.4 1.4 1.4.8 0 1.4-.6 1.4-1.4z"/><path d="M168.2 20.1c0-.1.1-.2.2-.2h.6c.2 0 .4.1.5.2.1.1.1.2.1.4 0 .3-.2.4-.4.5l.3.4v.1c0 .1-.1.2-.2.2s-.1 0-.1-.1l-.4-.6h-.4v.5c0 .1-.1.2-.2.2s-.2-.1-.2-.2v-1.4h.2zm.8.7c.2 0 .4-.1.4-.3 0-.2-.1-.3-.4-.3h-.4v.6h.4z"/></g></g></svg>