<svg xmlns="http://www.w3.org/2000/svg" role="img" viewBox="-3.84 45.16 407.94 154.44"><title>Blockchain Technology Partners (member) logo</title><path fill="none" d="M0 0h400v245H0z" pointer-events="none"/><defs><clipPath id="a"><path d="M2122.13 1156.25h-128.21v65.97h329.86v-65.97h-128.65v-343.5h-73.45z"/></clipPath><clipPath id="b"><path d="M0 0h4900v1800H0z"/></clipPath><clipPath id="c"><path d="M2279.03 956.348c0 75.212 43.98 151.632 141.84 151.632 101.27 0 134.04-81.26 134.04-145.804.24-9.344-.64-18.684-2.64-27.817h-197.92c6.04-37.933 26.83-63.336 72.35-63.336a87.96 87.96 0 0 1 69.38 30.68l48.16-42.332a150.97 150.97 0 0 0-118.2-52.34c-100.06 0-147.01 71.469-147.01 149.317zm206.38 28.918c-4.62 41.454-28.37 63.444-65.09 63.444-41.67 0-59.93-27.27-65.97-63.444z"/></clipPath><clipPath id="d"><path d="M0 0h4900v1800H0z"/></clipPath><clipPath id="e"><path d="M2576.57 956.898c0 75.872 45.07 151.082 139.42 151.082 56.03 2.61 107.03-32.19 125.02-85.33l-67.08-26.056c-5.81 27.446-29.89 47.186-57.94 47.496-48.6 0-67.74-43.98-67.74-87.192 0-43.21 18.59-85.875 67.74-85.875 27.62.075 51.58 19.082 57.94 45.961l64.22-24.629c-16.98-52.371-66.47-87.261-121.5-85.652-94.34.328-140.08 73.559-140.08 150.195z"/></clipPath><clipPath id="f"><path d="M0 0h4900v1800H0z"/></clipPath><clipPath id="g"><path d="M2875.31 1222.22h71.8v-153.94a107.107 107.107 0 0 0 83.57 39.59c75.87 0 106.87-61.03 106.87-120.952v-173.73h-71.8v164.933c0 35.629-9.57 66.629-52.12 66.629-45.19 0-66.52-36.83-66.52-84.883V812.75h-71.8z"/></clipPath><clipPath id="h"><path d="M0 0h4900v1800H0z"/></clipPath><clipPath id="i"><path d="M3184.72 1101.93h70.05v-33.65a110.813 110.813 0 0 0 85.43 39.59c75.76 0 104.78-61.03 104.78-120.952v-173.73h-69.82v164.933c0 37.929-19.02 65.969-54.97 65.969-39.7 0-65.21-21.99-65.21-71.797V813.957h-70.26v287.973z"/></clipPath><clipPath id="j"><path d="M0 0h4900v1800H0z"/></clipPath><clipPath id="k"><path d="M3481.6 958.328c0 81.582 58.83 149.872 148.22 149.872s148.66-68.5 148.66-149.872c0-81.367-58.83-151.078-148.22-151.078s-148.66 68.941-148.66 151.078zm222.88 0c0 47.502-21.11 88.842-74.66 88.842s-74.66-41.34-74.66-88.842c0-47.5 21.44-90.273 74.66-90.273s74.99 42.554 74.99 90.273z"/></clipPath><clipPath id="l"><path d="M0 0h4900v1800H0z"/></clipPath><clipPath id="m"><path d="M3817.84 870.363v351.857h70.59V889.828c0-13.637 8.91-19.465 23.09-19.465 6.52.192 13.02.782 19.46 1.762V812.75a306.527 306.527 0 0 0-52.66-5.719c-33.32 0-60.48 12.426-60.48 63.332z"/></clipPath><clipPath id="n"><path d="M0 0h4900v1800H0z"/></clipPath><clipPath id="o"><path d="M3946.27 958.328c0 81.582 58.71 149.872 148.21 149.872 89.51 0 148.11-68.5 148.11-149.872 0-81.367-58.71-151.078-148.11-151.078-89.39 0-148.21 68.941-148.21 151.078zm222.87 0c0 47.502-21.1 88.842-74.65 88.842-53.55 0-74.11-41.56-74.11-88.842 0-47.281 21.33-90.273 74.66-90.273 53.32 0 74.1 42.554 74.1 90.273z"/></clipPath><clipPath id="p"><path d="M0 0h4900v1800H0z"/></clipPath><clipPath id="q"><path d="M4254.91 774.926a70.72 70.72 0 0 0 4.62 26.058l39.91 15.282c-23.51 13.183-38.19 37.922-38.48 64.875-.14 26.203 13.92 50.429 36.72 63.332a92.651 92.651 0 0 0-18.47 57.287c0 62.78 51.57 106.22 118.09 106.22 23.5.48 46.67-5.66 66.85-17.71l44.53 38.27 36.18-45.2-42.22-33.86a106.52 106.52 0 0 0 11.87-49.808c0-63.996-51.56-98.961-113.8-98.961a163.45 163.45 0 0 0-58.72 10.996c-9.74-3.656-15.94-13.254-15.28-23.641 0-18.91 15.83-24.961 42.55-24.961h61.03c45.19 0 103.91-17.589 103.91-83.015 0-69.16-65.98-101.266-135.8-101.266-69.82 0-143.49 31.559-143.49 96.102zm211.55-1.211c0 26.058-27.82 29.578-64.54 29.578h-55.86l-25.51-23.75a33.043 33.043 0 0 1 3.85-15.945c10.12-19.129 43.1-28.368 76.31-28.368 36.28 0 65.75 11.325 65.75 38.485zm-20.01 226.945c0 28.59-17.37 51.46-48.05 51.46-30.68 0-48.16-22.87-48.16-51.46-1.27-26.687 19.33-49.355 46.02-50.629 26.69-1.273 49.36 19.332 50.63 46.02.07 1.535.07 3.074 0 4.609h-.44z"/></clipPath><clipPath id="r"><path d="M0 0h4900v1800H0z"/></clipPath><clipPath id="s"><path d="M4666.69 820.664l-113.14 281.266h77.63l72.89-200.887 74.11 200.887h77.85L4691.1 688.391h-76.97z"/></clipPath><clipPath id="t"><path d="M0 0h4900v1800H0z"/></clipPath><clipPath id="u"><path d="M2028.66 699.715h128.21c83.34 0 144.37-43.981 144.37-120.949 0-76.969-61.03-118.313-144.37-118.313h-54.98v-169.66h-72.9zm128.21-170.758c50.36 0 71.47 17.371 71.47 49.699 0 32.324-21.99 52.449-71.47 52.449h-54.98V528.957z"/></clipPath><clipPath id="v"><path d="M0 0h4900v1800H0z"/></clipPath><clipPath id="w"><path d="M2302.89 379.527c0 62.895 50.36 83.676 115.12 83.676h75.32c0 36.727-19.68 61.024-57.07 61.024-28.4-.161-54.45-15.801-67.95-40.793l-54.2 39.144c26.94 40.621 72.87 64.539 121.6 63.336 78.73 0 125.02-49.152 125.02-119.851v-175.93h-57.72l-4.62 41.453c-19.35-30.777-53.74-48.789-90.05-47.168-59.27.551-105.45 34.637-105.45 95.109zm190.44 32.989h-71.25c-32.11 0-46.84-16.825-46.84-35.078 0-18.25 15.28-32.985 42.77-32.985 39.01-.613 71.87 28.985 75.32 67.84v.223z"/></clipPath><clipPath id="x"><path d="M0 0h4900v1800H0z"/></clipPath><clipPath id="y"><path d="M2609.22 579.867h68.83v-48.601c11.64 32.906 42.73 54.925 77.63 54.976a74.457 74.457 0 0 0 53-20.781l-32.22-57.945a56.353 56.353 0 0 1-31.55 9.894c-32.99 0-67.41-30.676-67.41-104.234v-122.16h-68.28z"/></clipPath><clipPath id="z"><path d="M0 0h4900v1800H0z"/></clipPath><clipPath id="A"><path d="M2865.2 370.621V520.82h-46.63v59.043h47.29v71.801l68.94 50.359v-122.16h72.9V520.82h-72.9V383.047c0-27.82 14.18-35.844 32.98-35.844 13.99.59 27.7 4.11 40.25 10.336v-63.887a166.335 166.335 0 0 0-52.12-8.683c-57.07 0-90.71 32.984-90.71 85.652z"/></clipPath><clipPath id="B"><path d="M0 0h4900v1800H0z"/></clipPath><clipPath id="C"><path d="M3055.53 579.867h70.04v-32.988a110.805 110.805 0 0 0 85.32 39.582c75.87 0 104.79-61.023 104.79-120.949V291.785h-69.71v164.93c0 37.937-19.13 65.426-54.98 65.426-39.69 0-65.09-21.442-65.09-71.801V292.004h-70.04z"/></clipPath><clipPath id="D"><path d="M0 0h4900v1800H0z"/></clipPath><clipPath id="E"><path d="M3351.08 434.285c0 75.211 43.99 151.629 141.85 151.629 101.27 0 134.03-81.367 134.03-145.801.25-9.343-.64-18.687-2.64-27.82h-198.46c6.04-37.934 26.82-63.441 72.34-63.441a87.985 87.985 0 0 1 69.39 30.675l48.7-42.441a150.944 150.944 0 0 0-118.75-52.117c-99.5 0-146.46 71.469-146.46 149.316zm206.39 29.25c-4.62 41.34-28.37 63.442-65.09 63.442-41.68 0-59.93-27.27-66.53-63.442z"/></clipPath><clipPath id="F"><path d="M0 0h4900v1800H0z"/></clipPath><clipPath id="G"><path d="M3661.59 579.867h68.95v-48.601c11.56 32.91 42.63 54.945 77.51 54.976a74.424 74.424 0 0 0 53-20.781l-32.21-57.945a56.066 56.066 0 0 1-31.45 9.894c-32.99 0-67.51-30.676-67.51-104.234v-122.16h-68.29z"/></clipPath><clipPath id="H"><path d="M0 0h4900v1800H0z"/></clipPath><clipPath id="I"><path d="M3845.44 366.004l56.19 24.851c7.8-20.785 23.2-47.503 61.68-47.503 32.99 0 46.84 19.132 46.84 34.527 0 48.601-145.25 15.832-145.25 118.09 0 61.027 51.46 89.945 107.31 89.945 45.56 1.457 88.07-22.812 109.96-62.785l-54.98-29.797c-10.14 22.5-32.6 36.902-57.28 36.723-23.09 0-37.28-10.996-37.28-24.848 0-43.984 147.01-17.703 147.01-123.918 0-66.855-58.16-96.32-112.92-96.32-60.7 0-107.1 36.394-121.28 81.035z"/></clipPath><clipPath id="J"><path d="M0 0h4900v1800H0z"/></clipPath><clipPath id="K"><path d="M2028.66 1748.68h141.73c62.24 0 130.85-28.37 130.85-109.95a92.283 92.283 0 0 0-45.41-79.83c39.23-18.15 64.79-56.96 65.97-100.17 0-76.2-63.88-118.64-133.37-118.64h-159.44zm148.77-164.93c28.59 0 56.41 10.11 56.41 50.36 0 31.89-27.27 48.05-62.24 48.05h-69.49v-98.96zm11.77-174.17c37.93 0 59.92 18.14 59.92 56.63 0 29.25-24.3 54.2-62.78 54.2h-84.23V1409.8z"/></clipPath><clipPath id="L"><path d="M0 0h4900v1800H0z"/></clipPath><clipPath id="M"><path d="M2360.07 1397.27v351.41h70.7v-331.95c0-13.64 8.9-19.46 23.09-19.46 6.52.19 13.01.78 19.46 1.76v-59.27a296.962 296.962 0 0 0-52.67-5.83c-33.54 0-60.58 12.43-60.58 63.34z"/></clipPath><clipPath id="N"><path d="M0 0h4900v1800H0z"/></clipPath><clipPath id="O"><path d="M2488.38 1485.01c0 81.59 58.72 149.87 148.22 149.87s148.11-68.28 148.11-149.87c0-81.58-58.72-151.08-148.11-151.08-89.39 0-148.22 69.16-148.22 151.08zm222.88 0c0 47.5-21.11 88.84-74.66 88.84s-74.77-41.34-74.77-88.84 21.99-90.27 74.77-90.27 74.66 42.77 74.66 90.27z"/></clipPath><clipPath id="P"><path d="M0 0h4900v1800H0z"/></clipPath><clipPath id="Q"><path d="M2814.73 1483.8c0 75.87 45.08 151.08 139.42 151.08 56.06 2.63 107.1-32.17 125.13-85.33l-67.19-26.05c-5.84 27.56-30.09 47.33-58.27 47.5-48.6 0-67.62-43.99-67.62-87.2s18.8-85.65 67.62-85.65c27.62.07 51.59 19.08 57.95 45.96l64.21-24.3c-16.98-52.37-66.47-87.26-121.5-85.66-94.01-.22-139.75 73.01-139.75 149.65z"/></clipPath><clipPath id="R"><path d="M0 0h4900v1800H0z"/></clipPath><clipPath id="S"><path d="M3112.92 1748.68h70.6v-239.92l109.07 120.29h91.7l-108.2-112.04 120.07-177.03h-83.34l-84.77 133.93-44.53-49.16v-84.77h-70.6z"/></clipPath><clipPath id="T"><path d="M0 0h4900v1800H0z"/></clipPath><clipPath id="U"><path d="M3382.64 1483.8c0 75.87 45.19 151.08 139.53 151.08 55.8 2.32 106.45-32.43 124.36-85.33l-67.18-26.05c-5.77 27.42-29.81 47.17-57.83 47.5-48.61 0-67.74-43.99-67.74-87.2s18.92-85.65 68.17-85.65c27.61.04 51.57 19.07 57.84 45.96l64.32-24.3c-17.05-52.37-66.56-87.24-121.61-85.66-94.34-.22-139.86 73.01-139.86 149.65z"/></clipPath><clipPath id="V"><path d="M0 0h4900v1800H0z"/></clipPath><clipPath id="W"><path d="M3678.31 1748.68H3750v-153.93a107.466 107.466 0 0 0 83.67 39.58c75.87 0 106.77-61.03 106.77-120.95v-173.62h-71.69v164.93c0 35.63-9.57 66.63-52.12 66.63-45.19 0-66.63-36.83-66.63-84.88v-146.68h-71.69v408.92z"/></clipPath><clipPath id="X"><path d="M0 0h4900v1800H0z"/></clipPath><clipPath id="Y"><path d="M3974.42 1428.6c0 62.79 50.35 83.57 115.23 83.57h75.21c0 36.83-19.68 61.13-56.96 61.13-28.44-.14-54.52-15.78-68.06-40.79l-54.1 39.03c26.92 40.66 72.87 64.59 121.61 63.34 78.62 0 125.02-49.15 125.02-119.74v-175.93h-58.06l-4.72 41.34c-19.3-30.78-53.66-48.8-89.95-47.17-59.26.55-105.22 34.64-105.22 95.22zm190.44 32.99h-71.14c-32.11 0-46.95-16.82-46.95-34.96 0-18.15 15.39-32.99 42.88-32.99 38.92-.68 71.75 28.84 75.21 67.62z"/></clipPath><clipPath id="Z"><path d="M0 0h4900v1800H0z"/></clipPath><clipPath id="aa"><path d="M4280.86 1629.05h70.04v-289.29h-70.04z"/></clipPath><clipPath id="ab"><path d="M4398.62 1629.05h70.04v-33.53a109.977 109.977 0 0 0 85.32 39.58c75.88 0 104.79-61.03 104.79-120.95v-174.39h-69.71v164.93c0 37.94-19.13 65.42-54.98 65.42-39.69 0-65.09-21.43-65.09-71.8v-158.55h-70.37v289.29z"/></clipPath><clipPath id="ac"><path d="M0 0h4900v1800H0z"/></clipPath><clipPath id="ad"><path d="M4280.86 1749.34h70.04v-70.04h-70.04z"/></clipPath><clipPath id="ae"><path d="M1260.01 1270l240.02 240H510v-240z"/></clipPath><clipPath id="af"><path d="M0 0h4900v1800H0z"/></clipPath><clipPath id="ag"><path d="M280 290l242.457 246H1259.9l9.68-246.359z"/></clipPath><clipPath id="ah"><path d="M0 0h4900v1800H0z"/></clipPath><clipPath id="ai"><path d="M289.992 1749.98L50 1507.22V50.215L1500 50v1460l-240-240.03V290.039H289.992z"/></clipPath><clipPath id="aj"><path d="M0 0h4900v1800H0z"/></clipPath><clipPath id="ak"><path d="M290 290l240.035 246v974l969.985-.04V50L1750 290.078V1750H290z"/></clipPath><clipPath id="al"><path d="M0 0h4900v1800H0z"/></clipPath></defs><g clip-path="url(#a)" transform="matrix(.08163 0 0 -.08163 0 195.97)"><g clip-path="url(#b)"><path fill="#131b32" d="M1943.92 762.75h429.863v509.469H1943.92z"/></g></g><g clip-path="url(#c)" transform="matrix(.08163 0 0 -.08163 0 195.97)"><g clip-path="url(#d)"><path fill="#131b32" d="M2229.03 756.98h375.918v400.996H2229.03z"/></g></g><g clip-path="url(#e)" transform="matrix(.08163 0 0 -.08163 0 195.97)"><g clip-path="url(#f)"><path fill="#131b32" d="M2526.57 756.648h364.441v401.465H2526.57z"/></g></g><g clip-path="url(#g)" transform="matrix(.08163 0 0 -.08163 0 195.97)"><g clip-path="url(#h)"><path fill="#131b32" d="M2825.31 762.75h362.238v509.469H2825.31z"/></g></g><g clip-path="url(#i)" transform="matrix(.08163 0 0 -.08163 0 195.97)"><g clip-path="url(#j)"><path fill="#131b32" d="M3134.72 763.188h360.262v394.68H3134.72z"/></g></g><g clip-path="url(#k)" transform="matrix(.08163 0 0 -.08163 0 195.97)"><g clip-path="url(#l)"><path fill="#131b32" d="M3431.6 757.25h396.875v400.945H3431.6z"/></g></g><g clip-path="url(#m)" transform="matrix(.08163 0 0 -.08163 0 195.97)"><g clip-path="url(#n)"><path fill="#131b32" d="M3767.84 757.031h213.145v515.188H3767.84z"/></g></g><g clip-path="url(#o)" transform="matrix(.08163 0 0 -.08163 0 195.97)"><g clip-path="url(#p)"><path fill="#131b32" d="M3896.27 757.25h396.324v400.945H3896.27z"/></g></g><g clip-path="url(#q)" transform="matrix(.08163 0 0 -.08163 0 195.97)"><g clip-path="url(#r)"><path fill="#131b32" d="M4204.9 628.824h389.957v549.715H4204.9z"/></g></g><g clip-path="url(#s)" transform="matrix(.08163 0 0 -.08163 0 195.97)"><g clip-path="url(#t)"><path fill="#131b32" d="M4503.55 638.391h402.484v513.539H4503.55z"/></g></g><g clip-path="url(#u)" transform="matrix(.08163 0 0 -.08163 0 195.97)"><g clip-path="url(#v)"><path fill="#131b32" d="M1978.66 240.793h372.574v508.922H1978.66z"/></g></g><g clip-path="url(#w)" transform="matrix(.08163 0 0 -.08163 0 195.97)"><g clip-path="url(#x)"><path fill="#131b32" d="M2252.89 234.316h357.844v401.641H2252.89z"/></g></g><g clip-path="url(#y)" transform="matrix(.08163 0 0 -.08163 0 195.97)"><g clip-path="url(#z)"><path fill="#131b32" d="M2559.22 241.016h299.457v395.242H2559.22z"/></g></g><g clip-path="url(#A)" transform="matrix(.08163 0 0 -.08163 0 195.97)"><g clip-path="url(#B)"><path fill="#131b32" d="M2768.57 234.969h289.453v517.055H2768.57z"/></g></g><g clip-path="url(#C)" transform="matrix(.08163 0 0 -.08163 0 195.97)"><g clip-path="url(#D)"><path fill="#131b32" d="M3005.53 241.785h360.152v394.68H3005.53z"/></g></g><g clip-path="url(#E)" transform="matrix(.08163 0 0 -.08163 0 195.97)"><g clip-path="url(#F)"><path fill="#131b32" d="M3301.08 234.898h375.918v401.016H3301.08z"/></g></g><g clip-path="url(#G)" transform="matrix(.08163 0 0 -.08163 0 195.97)"><g clip-path="url(#H)"><path fill="#131b32" d="M3611.59 241.016h299.457v395.242H3611.59z"/></g></g><g clip-path="url(#I)" transform="matrix(.08163 0 0 -.08163 0 195.97)"><g clip-path="url(#J)"><path fill="#131b32" d="M3795.44 234.969h336.73v401.008h-336.73z"/></g></g><g clip-path="url(#K)" transform="matrix(.08163 0 0 -.08163 0 195.97)"><g clip-path="url(#L)"><path fill="#131b32" d="M1978.66 1290.09h393.137v508.59H1978.66z"/></g></g><g clip-path="url(#M)" transform="matrix(.08163 0 0 -.08163 0 195.97)"><g clip-path="url(#N)"><path fill="#131b32" d="M2310.07 1283.93h213.25v514.746h-213.25z"/></g></g><g clip-path="url(#O)" transform="matrix(.08163 0 0 -.08163 0 195.97)"><g clip-path="url(#P)"><path fill="#131b32" d="M2438.38 1283.93h396.328v400.945H2438.38z"/></g></g><g clip-path="url(#Q)" transform="matrix(.08163 0 0 -.08163 0 195.97)"><g clip-path="url(#R)"><path fill="#131b32" d="M2764.73 1284.1h364.551v400.914H2764.73z"/></g></g><g clip-path="url(#S)" transform="matrix(.08163 0 0 -.08163 0 195.97)"><g clip-path="url(#T)"><path fill="#131b32" d="M3062.92 1289.98h383.242v508.699H3062.92z"/></g></g><g clip-path="url(#U)" transform="matrix(.08163 0 0 -.08163 0 195.97)"><g clip-path="url(#V)"><path fill="#131b32" d="M3332.64 1284.1h363.891v400.887H3332.64z"/></g></g><g clip-path="url(#W)" transform="matrix(.08163 0 0 -.08163 0 195.97)"><g clip-path="url(#X)"><path fill="#131b32" d="M3628.31 1289.76h362.133v508.918H3628.31z"/></g></g><g clip-path="url(#Y)" transform="matrix(.08163 0 0 -.08163 0 195.97)"><g clip-path="url(#Z)"><path fill="#131b32" d="M3924.42 1283.28h357.953v401.641H3924.42z"/></g></g><g clip-path="url(#aa)" transform="matrix(.08163 0 0 -.08163 0 195.97)"><path fill="#131b32" d="M4230.86 1289.76h170.039v389.289H4230.86z"/></g><g clip-path="url(#ab)" transform="matrix(.08163 0 0 -.08163 0 195.97)"><g clip-path="url(#ac)"><path fill="#131b32" d="M4348.62 1289.76h360.148v395.34H4348.62z"/></g></g><g clip-path="url(#ad)" transform="matrix(.08163 0 0 -.08163 0 195.97)"><path fill="#131b32" d="M4230.86 1629.3h170.039v170.039H4230.86z"/></g><g clip-path="url(#ae)" transform="matrix(.08163 0 0 -.08163 0 195.97)"><g clip-path="url(#af)"><path fill="#131b32" d="M460 1220h1090.03v340H460z"/></g></g><g clip-path="url(#ag)" transform="matrix(.08163 0 0 -.08163 0 195.97)"><g clip-path="url(#ah)"><path fill="#131b32" d="M230 239.641h1089.58V586H230z"/></g></g><g clip-path="url(#ai)" transform="matrix(.08163 0 0 -.08163 0 195.97)"><g clip-path="url(#aj)"><path fill="#db1332" d="M0 0h1550v1799.98H0z"/></g></g><g clip-path="url(#ak)" transform="matrix(.08163 0 0 -.08163 0 195.97)"><g clip-path="url(#al)"><path fill="#3b439a" d="M240 0h1560v1800H240z"/></g></g></svg>