<svg xmlns="http://www.w3.org/2000/svg" role="img" viewBox="-2.24 80.00 402.74 93.49"><title>Bloomberg (member) logo</title><defs><style>.cls-1{fill:#010101}</style></defs><path d="M42.722 118.947a17.053 17.053 0 0 0-6.81-2.858c.773-.318 1.237-.495 1.69-.697 5.08-2.256 7.97-6.093 8.03-11.713.06-5.648-2.36-9.926-7.557-12.467a23.057 23.057 0 0 0-10.243-2.148c-7.372-.023-14.745-.018-22.117-.025v57.485c6.93-.022 13.86.012 20.79-.084 5.005-.07 9.92-.708 14.366-3.286 8.823-5.115 9.803-18.009 1.851-24.207zM16.897 97.82c4.27.127 8.575-.374 12.793.65 3.828.929 5.55 2.952 5.644 6.494.091 3.414-1.69 5.732-5.368 6.772-4.323 1.223-8.768.501-13.157.687-1.007.043-.863-.68-.865-1.295-.006-2.016-.002-4.032-.003-6.047s.01-4.032-.007-6.048c-.005-.687.013-1.24.963-1.213zm15.017 38.989c-4.994 1.389-10.134.683-15.215.816-.9.023-.754-.638-.755-1.188q-.005-3.589-.002-7.178c0-2.33.025-4.66-.014-6.989-.013-.788.186-1.131 1.049-1.1 4.65.169 9.32-.344 13.951.413 4.367.713 6.64 3.026 6.879 6.968.256 4.229-1.695 7.09-5.893 8.258zm353.319-29.294c-1.328-.063-1.604.433-1.518 1.608.09 1.221.02 2.454.02 4.194a16.116 16.116 0 0 0-5.43-4.933c-7.246-3.775-17.58-1.695-22.683 4.695-4.186 5.242-5.222 11.305-4.25 17.812a18.99 18.99 0 0 0 21.863 15.803 16.684 16.684 0 0 0 9.862-5.223 54.205 54.205 0 0 1-.029 5.523c-.63 5.857-3.692 8.993-9.405 9.84a18.135 18.135 0 0 1-15.027-4.533c-.837-.718-1.22-.718-1.836.192-1.164 1.72-2.445 3.36-3.674 5.035-1.473 2.008-1.47 2.007.618 3.481 6.206 4.383 13.259 5.323 20.545 4.659 10.185-.927 15.824-6.043 18.051-15.81.111-.487-.033-1.173.64-1.443V107.57c-2.582-.007-5.17.068-7.747-.055zm-13.172 30.633a11.234 11.234 0 0 1-11.237-11.508c.046-6.682 4.802-11.323 11.541-11.26 6.866.064 11.387 4.593 11.37 11.39a11.02 11.02 0 0 1-11.674 11.378zm-146.353-17.803c-.785-12.625-9.914-15.326-18.79-13.102-3.454.865-5.862 3.242-7.749 6.274-3.971-9.067-19.143-9.44-24.23-.013 0-1.99-.024-3.423.01-4.855.018-.75-.142-1.14-1.028-1.12-2.394.056-4.79.046-7.185.007-.794-.012-1.097.2-1.095 1.056q.038 18.342-.005 36.683c-.004 1.106.495 1.212 1.375 1.197 2.268-.038 4.541-.086 6.806.018 1.33.06 1.703-.361 1.69-1.691-.068-6.555-.017-13.11-.04-19.665a11.42 11.42 0 0 1 1.355-5.81c1.724-3.047 5.273-4.52 9.142-3.81 2.825.52 4.377 2.543 4.85 6.373a18.706 18.706 0 0 1 .115 2.261c.008 6.682.101 13.365-.055 20.043-.047 2.023.595 2.456 2.417 2.301a35.656 35.656 0 0 1 5.478-.003c1.482.103 1.916-.344 1.892-1.863-.094-6.05-.051-12.101-.039-18.152a15.202 15.202 0 0 1 1.242-6.81c1.65-3.374 4.995-4.892 9.06-4.122 2.87.543 4.79 3.05 5.067 6.674a48.82 48.82 0 0 1 .125 3.589c.012 6.366.038 12.732-.02 19.098-.012 1.25.345 1.637 1.598 1.585 2.328-.098 4.664-.059 6.995-.012.889.017 1.207-.256 1.201-1.178-.053-8.32.333-16.664-.182-24.953zm28.896-13.648a16.56 16.56 0 0 0-11.08 5.84v-2.445c.002-6.74-.072-13.482.054-20.22.034-1.823-.563-2.233-2.215-2.12a42.028 42.028 0 0 1-5.665-.001c-1.507-.101-2.025.275-2.001 1.914.101 7.054.042 14.11.042 21.165 0 11.276.034 22.552-.04 33.827-.01 1.547.457 1.937 1.9 1.835a31.77 31.77 0 0 1 5.097 0c1.762.161 2.578-.288 2.293-2.208a26.45 26.45 0 0 1-.027-3.53c1.064 1.14 1.8 2.086 2.69 2.856 8.11 7.027 22.195 4.115 27.439-5.695a23.596 23.596 0 0 0 2.284-15.024 18.607 18.607 0 0 0-20.771-16.194zm-.138 31.892c-6.464-.024-11.281-4.996-11.277-11.642.005-6.647 4.849-11.587 11.343-11.567a11.606 11.606 0 0 1-.066 23.21zM93.33 106.639c-15.316-.897-25.078 11.528-21.874 25.332 2.17 9.35 10.222 15.365 20.457 15.374 14.68.013 24.195-12.16 20.476-26.2-2.197-8.296-9.301-13.935-19.058-14.506zm-1.305 31.95c-6.553.015-11.419-4.994-11.4-11.734a11.193 11.193 0 0 1 11.456-11.478c6.543.04 11.258 4.911 11.252 11.622-.006 6.674-4.79 11.576-11.308 11.59zm46.528-32.053c-12.173.047-21.095 8.714-21.07 20.47.023 11.808 8.878 20.326 21.142 20.339 12.262.013 21.147-8.526 21.141-20.316-.006-11.9-8.949-20.54-21.213-20.493zm.264 32.052a11.268 11.268 0 0 1-11.586-11.574c.018-6.636 4.829-11.582 11.315-11.634 6.562-.052 11.48 4.938 11.489 11.657a11.275 11.275 0 0 1-11.218 11.551zm170.361-30.303c-7.413-3.18-14.61-2.202-21.1 2.408-6.288 4.467-8.664 10.914-7.895 18.486.879 8.656 5.608 14.503 13.825 17.051 8.415 2.61 16.163 1.212 22.557-5.372.936-.963.951-1.5-.19-2.265a54.122 54.122 0 0 1-4.665-3.53c-.83-.697-1.304-.59-1.959.199a11.917 11.917 0 0 1-4.016 3.076c-6.48 3.157-13.892.19-15.628-6.21-.36-1.331-.29-1.87 1.348-1.826 4.404.117 8.814.04 13.222.04s8.815-.03 13.223.024c1.087.013 1.576-.163 1.521-1.422a44.588 44.588 0 0 0-.575-7.327c-1.242-5.877-3.896-10.856-9.668-13.332zm-.862 14.792c-2.897-.066-5.797-.022-8.696-.021-2.898 0-5.797.008-8.696-.008-.503-.002-1.207.233-1.017-.796.97-5.244 4.694-8.2 9.292-8.316 5.872-.148 9.655 2.702 10.325 7.726.15 1.115-.076 1.441-1.208 1.415z" class="cls-1"/><path fill="#020202" d="M64.4 117.124c0-9.259-.02-18.516.024-27.774.006-1.184-.238-1.663-1.534-1.597-2.199.111-4.41.098-6.61.002-1.299-.057-1.72.319-1.702 1.67.074 5.73.03 11.46.03 17.192 0 12.659.026 25.318-.034 37.977-.007 1.48.344 1.998 1.872 1.9a48.072 48.072 0 0 1 6.23 0c1.457.095 1.77-.388 1.76-1.786-.066-9.194-.034-18.39-.035-27.584z"/><path d="M350.59 109.938c0-3.188-.117-3.313-3.333-3.403a11.075 11.075 0 0 0-1.32.065 13.556 13.556 0 0 0-10.462 6.404c0-1.38-.07-2.764.021-4.137.075-1.117-.367-1.37-1.4-1.34q-3.589.102-7.182 0c-1.022-.03-1.285.325-1.257 1.298.065 2.203.02 4.41.02 6.615 0 9.765.033 19.53-.036 29.296-.01 1.45.405 1.832 1.801 1.754a58.348 58.348 0 0 1 6.423 0c1.385.077 1.649-.447 1.636-1.716q-.091-9.544-.02-19.09a9.46 9.46 0 0 1 8.09-9.67 11.072 11.072 0 0 1 5.061.168c1.426.43 2.199.306 1.994-1.523a42.604 42.604 0 0 1-.036-4.721z" class="cls-1"/></svg>