<svg xmlns="http://www.w3.org/2000/svg" role="img" viewBox="10.78 18.28 297.18 150.93"><title>BlueData (member) logo</title><path fill="#1f4576" d="M297.765 128.338c-.278-.156-.726-.234-1.341-.234h-.947v2.277h1.002c.469 0 .822-.047 1.056-.14.433-.172.649-.5.649-.983 0-.457-.14-.764-.419-.92zm-1.194-.991c.778 0 1.35.075 1.714.226.65.271.975.802.975 1.593 0 .563-.204.976-.613 1.242-.218.14-.52.242-.908.303.492.078.85.284 1.078.616.228.333.342.657.342.974v.46c0 .145.005.3.016.468.01.166.028.274.054.326l.039.078h-1.037l-.016-.062a1.596 1.596 0 0 1-.016-.07l-.023-.202v-.498c0-.725-.197-1.205-.592-1.438-.235-.134-.645-.202-1.232-.202h-.875v2.472h-1.108v-6.286zm-3.371-.32c-.956.962-1.435 2.125-1.435 3.486 0 1.373.476 2.543 1.428 3.51.956.968 2.118 1.45 3.486 1.45 1.368 0 2.529-.482 3.486-1.45.958-.967 1.435-2.137 1.435-3.51 0-1.361-.477-2.524-1.435-3.486-.962-.967-2.124-1.45-3.486-1.45-1.358 0-2.516.483-3.479 1.45zm7.535 7.542c-1.119 1.123-2.471 1.685-4.056 1.685-1.587 0-2.935-.562-4.047-1.685-1.108-1.119-1.661-2.472-1.661-4.063 0-1.576.557-2.922 1.676-4.04 1.112-1.113 2.456-1.67 4.032-1.67 1.585 0 2.937.557 4.056 1.67 1.118 1.113 1.677 2.459 1.677 4.04 0 1.586-.559 2.94-1.677 4.063"/><path fill="#4b96ce" d="M45.627 144.726v-.137c0-7-4.734-11.597-10.363-11.597-5.627 0-10.568 4.667-10.568 11.597v.137c0 7 4.941 11.6 10.568 11.6 5.697 0 10.363-4.46 10.363-11.6zM24.902 157.15v5.628h-8.305v-50.1h8.305v19.903c2.676-3.776 6.452-6.794 12.283-6.794 8.58 0 16.883 6.794 16.883 18.803v.137c0 12.011-8.235 18.806-16.883 18.806-5.97 0-9.744-3.021-12.283-6.383m34.053-44.474h8.308v50.101h-8.308v-50.1M73.586 149.6v-23.06h8.304v20.588c0 5.628 2.815 8.855 7.755 8.855 4.806 0 8.168-3.363 8.168-8.99V126.54h8.305v36.238h-8.305v-5.628c-2.332 3.432-5.696 6.383-11.323 6.383-8.167 0-12.904-5.49-12.904-13.932m64.734-7.482c-.55-5.352-3.707-9.539-9.195-9.539-5.081 0-8.649 3.912-9.404 9.539zm-26.834 2.676v-.138c0-10.362 7.342-18.871 17.706-18.871 11.528 0 17.364 9.058 17.364 19.491 0 .752-.07 1.507-.137 2.334h-26.63c.893 5.9 5.078 9.194 10.432 9.194 4.05 0 6.932-1.51 9.812-4.322l4.875 4.322c-3.432 4.118-8.167 6.795-14.825 6.795-10.5 0-18.597-7.617-18.597-18.805"/><path fill="#1f4576" d="M180.321 144.726v-.137c0-7-4.942-11.597-10.5-11.597-5.697 0-10.432 4.392-10.432 11.597v.137c0 7 4.803 11.6 10.432 11.6 5.558 0 10.5-4.666 10.5-11.6zm-29.304 0v-.137c0-12.009 8.167-18.803 16.815-18.803 5.97 0 9.745 3.018 12.352 6.381v-19.49h8.304v50.1h-8.304v-6.04c-2.675 3.774-6.45 6.795-12.352 6.795-8.51 0-16.815-6.795-16.815-18.806m67.133 2.884c-2.126-.826-5.077-1.442-8.303-1.442-5.215 0-8.304 2.127-8.304 5.627v.138c0 3.432 3.089 5.354 7 5.354 5.49 0 9.608-3.088 9.608-7.618zm-.203 15.167v-4.461c-2.472 2.95-6.247 5.216-11.736 5.216-6.864 0-12.904-3.912-12.904-11.188v-.135c0-8.032 6.246-11.874 14.688-11.874 4.392 0 7.206.617 10.018 1.51v-.686c0-5.011-3.154-7.756-8.921-7.756-4.048 0-7.068.892-10.363 2.265l-2.264-6.657c3.979-1.785 7.892-3.02 13.794-3.02 10.706 0 15.922 5.628 15.922 15.305v21.481h-8.234m15.729-10.021v-19.079h-4.599v-7.138h4.599v-9.95h8.301v9.95h9.748v7.138h-9.748v17.777c0 3.223 1.65 4.529 4.464 4.529 1.852 0 3.498-.412 5.146-1.238v6.798c-2.06 1.164-4.391 1.85-7.479 1.85-6.11 0-10.432-2.676-10.432-10.637m46.737-5.146c-2.128-.826-5.078-1.442-8.305-1.442-5.213 0-8.305 2.127-8.305 5.627v.138c0 3.432 3.092 5.354 7 5.354 5.493 0 9.61-3.088 9.61-7.618zm-.206 15.167v-4.461c-2.471 2.95-6.244 5.216-11.735 5.216-6.864 0-12.903-3.912-12.903-11.188v-.135c0-8.032 6.244-11.874 14.684-11.874 4.396 0 7.21.617 10.022 1.51v-.686c0-5.011-3.156-7.756-8.922-7.756-4.05 0-7.068.892-10.362 2.265l-2.266-6.657c3.982-1.785 7.894-3.02 13.795-3.02 10.708 0 15.921 5.628 15.921 15.305v21.481h-8.234"/><path fill="#4b96ce" d="M142.037 35.81l-.01 37.264 32.276-18.624zm-6.774 48.974l.016-60.684 52.546 30.353-52.562 30.33"/><path fill="#4b96ce" d="M154.993 58.03l-.01 37.262 32.28-18.623zm-6.774 48.975l.016-60.689 52.549 30.357-52.565 30.332"/><path fill="#1f4576" d="M129.108 58.28l-.01 37.267 32.275-18.624zm-6.772 48.978l.011-60.69 52.55 30.36-52.561 30.33"/></svg>