<svg xmlns="http://www.w3.org/2000/svg" role="img" viewBox="-14.15 -14.15 735.80 179.30"><title>BoxBoat (KCSP) logo</title><path fill="#8ecef1" d="M70.644.001V16.64h16.637V0H70.644m0 19.714v16.638h16.637V19.714H70.644m19.713 0v16.638h16.638V19.714H90.357M70.644 39.335v16.637h16.637V39.335H70.644m19.713 0v16.637h16.638V39.335H90.357M70.638 58.957v16.637h16.638V58.957H70.638m19.716 0v16.637h16.638V58.957H90.354m19.716-19.622v16.637h16.637V39.335h-16.636m-.001 19.622v16.637h16.637V58.957h-16.636M50.916.001V16.64h16.638V0H50.916m0 19.714v16.638h16.638V19.714H50.916m-19.712 0v16.638H47.84V19.714H31.204m19.712 19.621v16.637h16.638V39.335H50.916m-19.712 0v16.637H47.84V39.335H31.204m19.718 19.622v16.637H67.56V58.957H50.922m-19.715 0v16.637h16.636V58.957H31.207M11.49 39.335v16.637h16.638V39.335H11.49m0 19.622v16.637h16.638V58.957H11.49"/><path fill="#427abe" d="M196.496 111.385c.101 5.134.744 9.343 1.925 12.627 1.179 3.286 2.719 5.904 4.619 7.853 1.899 1.951 4.081 3.286 6.545 4.003 2.463.72 5.028 1.077 7.699 1.077 2.873 0 5.543-.512 8.007-1.538 2.464-1.026 4.62-2.642 6.466-4.851 1.85-2.207 3.286-5.106 4.312-8.7 1.026-3.592 1.54-8.007 1.54-13.243 0-5.028-.538-9.316-1.617-12.857-1.077-3.541-2.49-6.414-4.235-8.623-1.745-2.206-3.825-3.823-6.236-4.85a18.922 18.922 0 0 0-7.468-1.54c-3.798 0-7.058.616-9.777 1.848-2.721 1.23-4.953 2.978-6.699 5.235-1.746 2.259-3.028 4.954-3.849 8.084-.823 3.133-1.232 6.597-1.232 10.394v3.85zm.155-72.525v40.343c3.18-4.208 6.852-7.416 11.009-9.624 4.157-2.207 9.008-3.31 14.55-3.31 5.749 0 10.727 1.026 14.937 3.079 4.209 2.055 7.7 4.927 10.472 8.623 2.77 3.696 4.85 8.137 6.236 13.32 1.385 5.184 2.078 10.908 2.078 17.168 0 6.57-.822 12.5-2.464 17.785-1.642 5.289-4.002 9.779-7.082 13.473-3.08 3.697-6.776 6.544-11.087 8.547-4.312 2.001-9.137 3.003-14.475 3.003-4.825 0-9.292-.924-13.396-2.772-4.106-1.847-7.853-4.927-11.241-9.239v9.547h-16.937V38.86h17.4M300.74 137.1c7.392 0 12.805-2.54 16.245-7.622 3.438-5.081 5.159-12.034 5.159-20.865 0-8.723-1.721-15.602-5.159-20.633-3.44-5.029-8.853-7.546-16.245-7.546-7.39 0-12.807 2.541-16.245 7.623-3.44 5.081-5.159 11.934-5.159 20.556 0 8.727 1.668 15.656 5.005 20.788 3.335 5.134 8.802 7.699 16.399 7.699zm-.153 14.167c-12.526 0-22.227-3.696-29.103-11.087-6.879-7.39-10.316-17.862-10.316-31.413 0-6.363.896-12.164 2.693-17.4 1.795-5.235 4.39-9.7 7.778-13.396 3.386-3.696 7.544-6.568 12.472-8.623 4.926-2.053 10.521-3.08 16.784-3.08 6.364 0 12.01 1.054 16.938 3.157 4.927 2.105 9.058 5.004 12.395 8.7 3.335 3.696 5.85 8.137 7.545 13.32 1.694 5.185 2.54 10.855 2.54 17.014 0 6.982-.976 13.116-2.925 18.4-1.95 5.29-4.696 9.756-8.237 13.397-3.543 3.647-7.726 6.392-12.551 8.239-4.825 1.848-10.163 2.772-16.013 2.772"/><path fill="#427abe" d="M336.464 68.732h20.633l16.323 25.56 17.553-25.56h18.324l-26.022 37.726 28.485 42.345h-20.324l-19.093-29.257-19.403 29.257h-19.095l29.104-41.575-26.485-38.496"/><path fill="#2a4f83" d="M432.701 111.385c.1 5.134.744 9.343 1.926 12.627 1.178 3.286 2.717 5.904 4.618 7.853 1.898 1.951 4.08 3.286 6.544 4.003 2.466.72 5.028 1.077 7.699 1.077 2.873 0 5.544-.512 8.008-1.538 2.463-1.026 4.619-2.642 6.468-4.851 1.847-2.207 3.283-5.106 4.31-8.7 1.026-3.592 1.54-8.007 1.54-13.243 0-5.028-.538-9.316-1.615-12.857-1.08-3.541-2.491-6.414-4.235-8.623-1.748-2.206-3.827-3.823-6.239-4.85-2.412-1.025-4.901-1.54-7.466-1.54-3.799 0-7.06.616-9.778 1.848-2.721 1.23-4.954 2.978-6.7 5.235-1.745 2.259-3.028 4.954-3.848 8.084-.824 3.133-1.232 6.597-1.232 10.394v3.85zm.154-72.525v40.343c3.181-4.208 6.852-7.416 11.01-9.624 4.158-2.207 9.008-3.31 14.552-3.31 5.747 0 10.724 1.026 14.935 3.079 4.21 2.055 7.7 4.927 10.47 8.623 2.774 3.696 4.851 8.137 6.237 13.32 1.386 5.184 2.078 10.908 2.078 17.168 0 6.57-.822 12.5-2.462 17.785-1.644 5.289-4.003 9.779-7.084 13.473-3.079 3.697-6.775 6.544-11.087 8.547-4.31 2.001-9.137 3.003-14.475 3.003-4.825 0-9.29-.924-13.396-2.772-4.106-1.847-7.853-4.927-11.24-9.239v9.547h-16.938V38.86h17.4m104.09 98.24c7.392 0 12.804-2.54 16.246-7.622 3.438-5.081 5.157-12.034 5.157-20.865 0-8.723-1.719-15.602-5.157-20.633-3.442-5.029-8.854-7.546-16.246-7.546-7.392 0-12.808 2.541-16.245 7.623-3.44 5.081-5.157 11.934-5.157 20.556 0 8.727 1.666 15.656 5.004 20.788 3.333 5.134 8.801 7.699 16.398 7.699zm-.153 14.167c-12.527 0-22.227-3.696-29.103-11.087-6.88-7.39-10.317-17.862-10.317-31.413 0-6.363.899-12.164 2.696-17.4 1.793-5.235 4.388-9.7 7.775-13.396 3.386-3.696 7.545-6.568 12.472-8.623 4.928-2.053 10.521-3.08 16.785-3.08 6.364 0 12.01 1.054 16.937 3.157 4.927 2.105 9.058 5.004 12.396 8.7 3.334 3.696 5.851 8.137 7.544 13.32 1.695 5.185 2.542 10.855 2.542 17.014 0 6.982-.978 13.116-2.926 18.4-1.95 5.29-4.696 9.756-8.238 13.397-3.542 3.647-7.726 6.392-12.548 8.239-4.828 1.848-10.163 2.772-16.015 2.772m86.383-39.882c-5.236.308-9.471.873-12.704 1.694-3.232.823-5.723 1.874-7.467 3.156-1.748 1.286-2.903 2.772-3.465 4.466-.566 1.693-.848 3.518-.848 5.466 0 3.492 1.102 6.213 3.312 8.161 2.206 1.952 5.465 2.927 9.778 2.927 7.699 0 13.395-1.95 17.092-5.852 3.695-3.9 5.543-9.186 5.543-15.86v-4.62zm11.548 26.947c-2.978 3.595-6.62 6.57-10.932 8.93-4.311 2.362-9.547 3.542-15.707 3.542-3.799 0-7.34-.488-10.624-1.463-3.287-.973-6.136-2.437-8.545-4.388-2.414-1.949-4.314-4.438-5.699-7.468-1.385-3.026-2.077-6.594-2.077-10.702 0-5.543 1.232-10.032 3.694-13.474 2.464-3.438 5.671-6.132 9.623-8.083 3.952-1.949 8.393-3.31 13.32-4.08 4.928-.77 9.855-1.256 14.783-1.463l11.857-.617V95.68c0-6.056-1.463-10.24-4.39-12.55-2.925-2.31-6.75-3.464-11.471-3.464-5.442 0-9.47.924-12.087 2.771-2.619 1.848-4.337 4.519-5.157 8.008l-16.015-1.695c1.435-7.8 4.977-13.496 10.624-17.09 5.644-3.594 13.397-5.39 23.252-5.39 6.363 0 11.624.822 15.783 2.463 4.157 1.643 7.468 3.902 9.93 6.775 2.466 2.876 4.184 6.29 5.159 10.24.976 3.953 1.464 8.292 1.464 13.011v50.045h-16.785v-10.471m20.478-55.743V68.733h12.627V47.175h17.399v21.557h19.865v13.859h-19.865v41.883c0 4.106.848 7.083 2.541 8.931 1.693 1.847 4.181 2.771 7.468 2.771 1.745 0 3.413-.1 5.005-.308a24.759 24.759 0 0 0 4.698-1.077l2.617 13.088c-4.928 1.64-10.267 2.464-16.015 2.464-8.83 0-14.989-2.284-18.478-6.852-3.491-4.567-5.235-11.42-5.235-20.557V82.591h-12.627"/><path fill="#8ecef1" d="M42.384 132.078c1.02 0 2.02.334 2.794 1.036.697.525 1.22 1.222 1.568 2.093 2.616 2.965 5.58 4.707 8.891 4.707 3.662 0 6.8-2.093 9.59-5.578.927-1.459 2.358-2.11 3.833-2.11.467 0 .937.065 1.398.19 1.046.351 2.09.871 2.789 1.92 2.789 3.661 6.102 5.578 9.589 5.578 3.66 0 6.8-2.093 9.59-5.578.926-1.459 2.356-2.11 3.831-2.11.466 0 .937.065 1.397.19 1.047.351 2.093.871 2.79 1.92 2.79 3.661 6.103 5.578 9.59 5.578 3.66 0 6.798-2.093 9.587-5.578.937-1.353 2.495-2.085 4.006-2.085 1.02 0 2.02.334 2.794 1.036 2.266 1.396 2.789 4.71 1.046 6.627-4.358 6.102-10.635 9.591-17.086 9.591-5.056 0-9.588-1.92-13.598-5.405-3.836 3.485-8.369 5.405-13.425 5.405-5.055 0-9.589-1.92-13.598-5.405-3.662 3.485-8.369 5.405-13.425 5.405-5.055 0-9.589-1.92-13.598-5.405-3.835 3.485-8.542 5.405-13.424 5.405-6.8 0-12.903-3.662-17.609-9.591-1.57-2.266-1.394-5.231.522-6.45 1.052-.901 2.202-1.317 3.294-1.317 1.444 0 2.788.725 3.682 2.016 2.789 3.658 5.926 5.577 9.587 5.577 3.662 0 6.8-2.092 9.589-5.577.937-1.354 2.494-2.086 4.006-2.085"/><path fill="#427abe" d="M28.789 136.144c2.264 0 4.462-1.358 6.717-4.15a8.468 8.468 0 0 1 6.878-3.513c1.902 0 3.7.659 5.084 1.858a8.22 8.22 0 0 1 2.323 2.873c1.952 2.09 3.868 3.107 5.847 3.107 2.252 0 4.437-1.343 6.68-4.104 1.534-2.282 3.98-3.585 6.743-3.585.024 0 .048.01.074.01V48.378a12.067 12.067 0 0 0-5.05 1.043L27.663 65.607 2.681 76.867c-2.112.879-3.167 3.342-2.464 5.63l25.395 52.796c1.257.702 2.344.85 3.177.85"/><path fill="#2a4f83" d="M135.53 76.867l-24.982-11.26-36.42-16.187a12.069 12.069 0 0 0-5.05-1.043v80.256a8.931 8.931 0 0 1 2.321.313l.2.06c.757.253 3.035 1.016 4.564 3.223 1.45 1.883 3.768 4.09 6.672 4.09 2.251 0 4.438-1.343 6.68-4.104 1.535-2.282 3.98-3.585 6.742-3.585a8.96 8.96 0 0 1 2.34.316l.198.06c.758.254 3.038 1.017 4.565 3.223 1.45 1.883 3.77 4.09 6.674 4.09.787 0 1.564-.227 2.341-.56l25.621-53.262c.703-2.288-.352-4.751-2.465-5.63"/></svg>