<svg xmlns="http://www.w3.org/2000/svg" width="115" height="23" viewBox="0 0 115 23">
    <g fill="none" fill-rule="evenodd">
        <path fill="#1F98DE" d="M7.003 5.194c-1.59-.096-3.012.712-3.686 1.854V1.113A.74.74 0 0 0 2.58.37H.737A.74.74 0 0 0 0 1.113v15.58c0 .41.33.742.737.742H2.58a.74.74 0 0 0 .737-.741V15.58c.722 1.442 1.883 2.225 3.686 2.225 3.67 0 5.898-2.85 5.898-6.306 0-3.528-2.062-6.402-5.898-6.306zm2.58 5.913c0 1.873-1.039 3.273-2.601 3.273-1.66 0-2.928-.997-2.928-2.945 0-2.043 1.185-3.274 2.928-3.274 1.645 0 2.601 1.401 2.601 2.946zm15.481-5.172a.74.74 0 0 0-.737-.741h-1.843a.74.74 0 0 0-.737.741v5.936c-.15 1.65-.825 2.975-2.58 2.968-1.457.007-2.062-1.293-2.212-2.968V5.935a.74.74 0 0 0-.737-.741h-1.843a.74.74 0 0 0-.737.741v5.936c0 3.167.907 5.935 4.423 5.935 1.278 0 2.535-.505 3.686-1.854v.742c0 .41.33.741.737.741h1.843a.74.74 0 0 0 .737-.741V5.935zm4.055 5.172c0-1.545.956-2.946 2.601-2.946 1.743 0 2.927 1.231 2.927 3.274 0 1.948-1.267 2.945-2.927 2.945-1.562 0-2.601-1.4-2.601-3.273zM36.122.371a.74.74 0 0 0-.737.742v5.935c-.674-1.142-2.096-1.95-3.686-1.854C27.863 5.098 25.8 7.972 25.8 11.5c0 3.456 2.228 6.306 5.898 6.306 1.803 0 2.964-.783 3.686-2.225v1.113c0 .41.33.741.737.741h1.843a.74.74 0 0 0 .737-.742V1.113a.74.74 0 0 0-.737-.742h-1.843zm6.634 10.736c0-1.545.957-2.946 2.602-2.946 1.743 0 2.927 1.231 2.927 3.274 0 1.948-1.268 2.945-2.927 2.945-1.562 0-2.602-1.4-2.602-3.273zM49.76.371a.74.74 0 0 0-.738.742v5.935c-.674-1.142-2.095-1.95-3.685-1.854-3.836-.096-5.898 2.778-5.898 6.306 0 3.456 2.227 6.306 5.898 6.306 1.803 0 2.964-.783 3.685-2.225v1.113c0 .41.33.741.738.741h1.843a.74.74 0 0 0 .737-.742V1.113a.74.74 0 0 0-.737-.742H49.76zm10.068 12.261c-.064.194-.175.196-.248.005l-2.555-6.75c-.145-.383-.592-.693-1-.693h-2.58c-.407 0-.597.3-.425.672l4.693 10.12a.933.933 0 0 1 .006.676l-2.5 5.66c-.165.375.031.678.438.678h2.212c.407 0 .87-.304 1.032-.68l7.15-16.447c.163-.375-.035-.68-.442-.68h-2.58c-.407 0-.842.316-.97.705l-2.23 6.734z"/>
        <path fill="#8BC7E9" d="M112.42.371h1.843a.74.74 0 0 1 .737.742v15.58a.74.74 0 0 1-.737.742h-1.843a.74.74 0 0 1-.737-.741V15.58c-.722 1.442-1.883 2.225-3.686 2.225-3.67 0-5.898-2.85-5.898-6.306 0-3.528 2.062-6.402 5.898-6.306 1.59-.096 3.012.712 3.686 1.854V1.113c0-.41.33-.742.737-.742zm-7.003 10.736c0 1.873 1.039 3.273 2.601 3.273 1.66 0 2.928-.997 2.928-2.945 0-2.043-1.185-3.274-2.928-3.274-1.645 0-2.601 1.401-2.601 2.946zm-4.792 6.328h-1.843a.74.74 0 0 1-.737-.742V1.113c0-.41.33-.742.737-.742h1.843a.74.74 0 0 1 .737.742v15.58a.74.74 0 0 1-.737.742zm-4.792 0H93.99a.74.74 0 0 1-.737-.741V5.935c0-.41.33-.741.737-.741h1.843a.74.74 0 0 1 .738.741v10.759a.74.74 0 0 1-.738.741zM94.912 3.34a1.664 1.664 0 0 1-1.659-1.67c0-.922.743-1.669 1.659-1.669s1.659.747 1.659 1.67c0 .921-.743 1.669-1.66 1.669zm-3.133 2.596v10.759a.74.74 0 0 1-.737.741h-1.843a.74.74 0 0 1-.737-.741v-.742c-1.151 1.349-2.408 1.854-3.686 1.854-3.516 0-4.423-2.768-4.423-5.935V5.935c0-.41.33-.741.737-.741h1.843a.74.74 0 0 1 .737.741v5.936c.15 1.675.755 2.975 2.211 2.968 1.756.007 2.43-1.317 2.58-2.968V5.935c0-.41.33-.741.738-.741h1.843a.74.74 0 0 1 .737.741zm-18.061-.741c3.836-.096 5.897 2.778 5.897 6.306 0 3.456-2.227 6.306-5.897 6.306-1.804 0-2.965-.783-3.686-2.225v1.113a.74.74 0 0 1-.737.741h-1.843a.74.74 0 0 1-.737-.742V1.113c0-.41.33-.742.737-.742h1.843a.74.74 0 0 1 .737.742v5.935c.674-1.142 2.096-1.95 3.686-1.854zm2.58 5.913c0-1.545-.956-2.946-2.602-2.946-1.742 0-2.927 1.231-2.927 3.274 0 1.948 1.268 2.945 2.927 2.945 1.563 0 2.602-1.4 2.602-3.273z"/>
    </g>
</svg>
