<svg xmlns="http://www.w3.org/2000/svg" role="img" viewBox="-3.36 -3.23 168.09 46.72"><title>Caddy logo</title><defs><linearGradient id="b" x1="0" x2="1" y1="0" y2="0" gradientTransform="matrix(0 -6.96631 4.70908 0 29.159 24.332)" gradientUnits="userSpaceOnUse"><stop offset="0" stop-color="#fff"/><stop offset="1" stop-color="#fff" stop-opacity="0"/></linearGradient><linearGradient id="c" x1="20.223" x2="20.223" y1="4.768" y2="25.768" gradientTransform="matrix(.93042 -.3665 .22795 .5787 -6.902 11.177)" gradientUnits="userSpaceOnUse"><stop offset="0" stop-color="#babdb6"/><stop offset=".481" stop-color="#e9eae7"/><stop offset="1" stop-color="#babdb6"/></linearGradient><linearGradient id="d" x1="19.831" x2="19.831" y1="4.373" y2="25.931" gradientTransform="matrix(.82244 -.56885 .14089 .2037 -4.754 19.12)" gradientUnits="userSpaceOnUse"><stop offset="0" stop-color="#818181"/><stop offset="1" stop-color="#333530"/></linearGradient><linearGradient id="e" x1="0" x2="1" y1="0" y2="0" gradientTransform="matrix(31.1842 0 0 22.045 4.197 36.199)" gradientUnits="userSpaceOnUse"><stop offset="0" stop-color="#02c49a"/><stop offset=".21" stop-color="#009f00"/><stop offset=".85" stop-color="#01af17"/><stop offset="1" stop-color="#40c965"/></linearGradient><linearGradient id="f" x1="0" x2="1" y1="0" y2="0" gradientTransform="rotate(56.791 -20.955 16.418) scale(15.43056)" gradientUnits="userSpaceOnUse"><stop offset="0" stop-color="#fff"/><stop offset=".53" stop-color="#fff" stop-opacity=".77"/><stop offset="1" stop-color="#fff" stop-opacity="0"/></linearGradient></defs><circle cx="20.178" cy="20.178" r="20.178" fill="#3dd0ff"/><clipPath id="a"><circle cx="20.178" cy="20.178" r="20.178"/></clipPath><g clip-path="url(#a)"><path fill="url(#b)" d="M28.407 17.241h1.445v6.91h-1.445z"/><path fill="url(#c)" d="M7.732 17.39c0-7.687 4.922-11.191 12.242-11.095 7.359.096 12.218 3.44 12.218 11.218l-.012 7.383h-4.49v-5.45c-.121-1.892.501-8.229-7.665-8.229-8.221 0-7.738 6.36-7.708 8.267v5.412H7.732z"/><path fill="url(#d)" d="M8.448 24.152H11.6v-4.656a21.04 21.04 0 0 1-.003-.145l-.004-.165c-.015-.67-.011-1.118.028-1.657a9.696 9.696 0 0 1 .385-2.138c.429-1.395 1.2-2.558 2.383-3.411 1.371-.987 3.233-1.507 5.636-1.507 2.387 0 4.228.518 5.577 1.503 1.161.848 1.911 2.002 2.333 3.396.188.62.306 1.268.373 1.967.047.488.06.798.079 1.57.006.246.011.374.018.488l.001.024v4.731h3.058l.012-6.639c0-3.567-1.061-6.186-3.088-7.915-1.94-1.654-4.79-2.512-8.423-2.559-3.571-.047-6.439.79-8.403 2.46-2.037 1.733-3.114 4.366-3.114 7.891zM19.983 5.551c3.932.051 7.092 1.002 9.315 2.897 2.377 2.028 3.611 5.074 3.611 9.066l-.012 7.384-.002.742h-5.922v-6.177a13.78 13.78 0 0 1-.019-.516c-.018-.735-.03-1.021-.073-1.46a8.54 8.54 0 0 0-.313-1.669c-.333-1.098-.904-1.977-1.791-2.625-1.089-.795-2.643-1.232-4.752-1.232-2.128 0-3.707.441-4.819 1.242-.908.655-1.497 1.543-1.834 2.64a8.088 8.088 0 0 0-.321 1.799 14.72 14.72 0 0 0-.025 1.51l.004.165.003.155v6.168H7.015v-8.25c0-7.794 4.881-11.945 12.968-11.839z"/><path fill="#fff" d="M8.415 17.832c.238-5.945 1.71-10.422 11.527-10.801-6.357 1.006-9.815 3.09-9.815 9.305l-.158 7.703H8.415v-6.207z"/><path fill="#007c00" d="M37.014 28.858a4.941 4.941 0 0 0-4.939-4.939H7.556a4.941 4.941 0 0 0-4.939 4.939v14.789a4.941 4.941 0 0 0 4.939 4.939h24.519a4.941 4.941 0 0 0 4.939-4.939V28.858z"/><path fill="url(#e)" d="M35.381 28.947a3.772 3.772 0 0 0-3.77-3.771H7.968a3.773 3.773 0 0 0-3.771 3.771v14.504c0 2.081 1.69 3.77 3.771 3.77h23.643a3.771 3.771 0 0 0 3.77-3.77V28.947z"/><path fill="url(#f)" d="M30.55 26.526a3.465 3.465 0 0 1 3.464 3.464v12.418a3.465 3.465 0 0 1-3.464 3.463H9.028a3.465 3.465 0 0 1-3.463-3.463V29.99a3.465 3.465 0 0 1 3.463-3.464H30.55zm-.613 1.799H9.641a2.025 2.025 0 0 0-2.025 2.025v11.885c0 1.117.907 2.025 2.025 2.025h20.296a2.026 2.026 0 0 0 2.025-2.025V30.35a2.025 2.025 0 0 0-2.025-2.025z"/></g><path d="M160.653 7.739c.598.598.897 1.317.897 2.158 0 .84-.298 1.561-.893 2.161a2.938 2.938 0 0 1-2.17.901c-.851 0-1.572-.297-2.161-.892a2.947 2.947 0 0 1-.885-2.153c0-.841.298-1.563.893-2.166a2.923 2.923 0 0 1 2.162-.906c.846 0 1.565.299 2.157.897zm-.406 3.841a2.35 2.35 0 0 0 .677-1.692c0-.66-.237-1.227-.711-1.7a2.335 2.335 0 0 0-1.713-.711c-.668 0-1.241.24-1.718.719a2.352 2.352 0 0 0-.714 1.718c0 .665.234 1.235.702 1.709.468.473 1.043.71 1.726.71.682 0 1.26-.245 1.734-.736h-.981l-.736-1.057h-.373v1.057h-.93V8.162h1.362c.541 0 .928.093 1.159.279.231.187.347.485.347.897 0 .502-.229.852-.686 1.049l.855 1.193zm-1.658-1.802c.22 0 .369-.035.448-.106.079-.07.119-.183.119-.338 0-.155-.041-.262-.123-.322-.082-.059-.224-.088-.427-.088h-.466v.854h.449zM63.584 33.423c-2.401 0-4.569-.558-6.505-1.674a11.971 11.971 0 0 1-4.553-4.624c-1.098-1.967-1.647-4.186-1.647-6.657 0-2.472.555-4.691 1.664-6.658 1.11-1.967 2.633-3.509 4.569-4.624 1.937-1.116 4.105-1.674 6.506-1.674 1.948 0 3.725.36 5.333 1.08a10.931 10.931 0 0 1 4.077 3.131l-2.854 2.843c-1.721-1.968-3.838-2.951-6.352-2.951-1.631 0-3.092.378-4.383 1.133a7.954 7.954 0 0 0-3.023 3.149c-.725 1.344-1.087 2.867-1.087 4.571 0 1.703.362 3.226 1.087 4.57a7.954 7.954 0 0 0 3.023 3.149c1.291.755 2.752 1.133 4.383 1.133 2.514 0 4.631-.995 6.352-2.987l2.854 2.879a10.883 10.883 0 0 1-4.094 3.131c-1.619.72-3.402 1.08-5.35 1.08zM82.098 13.63c2.672 0 4.716.678 6.132 2.033 1.415 1.356 2.123 3.401 2.123 6.136v11.264h-4.009v-2.339c-.52.84-1.262 1.481-2.225 1.925-.962.444-2.123.666-3.482.666s-2.548-.246-3.567-.738c-1.019-.492-1.806-1.175-2.361-2.051-.554-.876-.832-1.865-.832-2.969 0-1.727.606-3.113 1.818-4.157 1.211-1.043 3.119-1.565 5.724-1.565h4.688v-.288c0-1.343-.38-2.375-1.138-3.095-.759-.719-1.886-1.079-3.381-1.079a9.278 9.278 0 0 0-3.006.503c-.985.336-1.817.804-2.497 1.404l-1.664-3.275c.951-.768 2.095-1.355 3.431-1.763a14.458 14.458 0 0 1 4.246-.612zm-.577 16.41c1.064 0 2.009-.258 2.836-.774.827-.515 1.41-1.253 1.75-2.213v-2.231h-4.383c-2.446 0-3.668.852-3.668 2.555 0 .816.305 1.464.917 1.943.611.48 1.46.72 2.548.72zm30.336-23.679v26.702h-4.077V30.58a6.61 6.61 0 0 1-2.599 2.051c-1.03.456-2.168.684-3.414.684-1.744 0-3.312-.408-4.705-1.224-1.393-.815-2.485-1.973-3.278-3.472-.793-1.5-1.189-3.221-1.189-5.165 0-1.943.396-3.658 1.189-5.146.793-1.487 1.885-2.639 3.278-3.454 1.393-.816 2.961-1.224 4.705-1.224 1.2 0 2.299.216 3.295.648a6.65 6.65 0 0 1 2.548 1.943v-9.86h4.247zm-9.58 23.103c1.019 0 1.936-.246 2.751-.737.816-.492 1.461-1.194 1.937-2.106.475-.911.713-1.967.713-3.167 0-1.199-.238-2.255-.713-3.166-.476-.912-1.121-1.614-1.937-2.106-.815-.491-1.732-.737-2.751-.737s-1.937.246-2.752.737c-.815.492-1.461 1.194-1.936 2.106-.476.911-.714 1.967-.714 3.166 0 1.2.238 2.256.714 3.167.475.912 1.121 1.614 1.936 2.106.815.491 1.733.737 2.752.737zm31.219-23.103v26.702h-4.077V30.58a6.613 6.613 0 0 1-2.598 2.051c-1.031.456-2.169.684-3.414.684-1.744 0-3.313-.408-4.705-1.224-1.393-.815-2.486-1.973-3.279-3.472-.792-1.5-1.188-3.221-1.188-5.165 0-1.943.396-3.658 1.188-5.146.793-1.487 1.886-2.639 3.279-3.454 1.392-.816 2.961-1.224 4.705-1.224 1.2 0 2.298.216 3.295.648a6.657 6.657 0 0 1 2.548 1.943v-9.86h4.246zm-9.58 23.103c1.019 0 1.937-.246 2.752-.737.815-.492 1.461-1.194 1.936-2.106.476-.911.714-1.967.714-3.167 0-1.199-.238-2.255-.714-3.166-.475-.912-1.121-1.614-1.936-2.106-.815-.491-1.733-.737-2.752-.737-1.019 0-1.936.246-2.751.737-.816.492-1.461 1.194-1.937 2.106-.475.911-.713 1.967-.713 3.166 0 1.2.238 2.256.713 3.167.476.912 1.121 1.614 1.937 2.106.815.491 1.732.737 2.751.737zm30.438-15.618l-8.493 20.764c-.792 2.088-1.755 3.557-2.887 4.409-1.132.852-2.503 1.277-4.111 1.277-.905 0-1.8-.156-2.683-.467-.884-.312-1.608-.744-2.174-1.296l1.698-3.311c.408.408.889.732 1.444.972a4.2 4.2 0 0 0 1.681.36c.748 0 1.365-.204 1.852-.612.487-.408.934-1.092 1.342-2.051l.305-.756-7.915-19.289h4.416l5.708 14.215 5.741-14.215h4.076z"/></svg>