<svg xmlns="http://www.w3.org/2000/svg" role="img" viewBox="-3.37 -2.87 291.98 90.23"><path fill="#00274D" d="M82.9 25.1c0-7.7 2.5-14.6 13-14.6 7.6 0 11.1 3.8 11.1 10V25h-7.2v-2.8c0-3.5-1.2-5.7-4.4-5.7-4 0-4.8 2.8-4.8 9.5v27.1c0 6.5 2.1 7.7 4.5 7.7 2.8 0 4.7-2 4.7-6.6v-2h7.2v4.3c0 5.8-2.4 10.3-11.3 10.3-9.7 0-12.8-5.1-12.8-13.7v-28zm29.4 41.3h7.7l2.5-14.1h12l2.5 14.1h7.7L133.4 11h-8.9l-12.2 55.4zm16.2-47.3h.2l4.8 26.7h-9.7l4.7-26.7zm23.3 47.3h6.7v-49h.2l8.6 49h7.7l7.8-49h.2v49h7.2V11H178l-6.7 40.1h-.3L164.5 11h-12.7v55.4zm47.1 0h12c11.2 0 12.7-3.8 12.7-15.8 0-9.4-1.2-11.5-7.4-12.6v-.2c5.2-.7 7-2.5 7-13.3 0-10.1-1.6-13.4-11-13.4h-13.3v55.3zm7.7-49.4h3.6c4.9 0 5.9 1.5 5.9 7.8 0 9-.5 10-5.1 10h-4.4V17zm0 23.8h5c4.2 0 4.9 1.2 4.9 9.6 0 8.7-.8 10-5.1 10h-4.8V40.8zm25.5 25.6h7.7V11h-7.7v55.4zm14.9 0h7.7l2.5-14.1h12l2.5 14.1h7.7L268.1 11h-8.9L247 66.4zm16.2-47.3h.2l4.8 26.7h-9.7l4.7-26.7zM122.4 78.4h-4.5v3.3h-1v-7h1v3h4.5v-3h1v7h-1v-3.3zm3.3 3.2h5.4v-.8h-4.3v-2.4h4v-.8h-4v-2.2h4.2v-.8h-5.2v7zm14.2 0h1.2l-3.6-7h-1.2l-3.6 7h1.1l.9-1.8h4.3l.9 1.8zm-4.8-2.6l1.8-3.5 1.7 3.5h-3.5zm7.8 2.6h5v-.8h-4v-6.2h-1v7zm9.2 0h1v-6.1h3v-.9h-6.9v.9h3v6.1zm11.5.1h1v-7h-1v2.9h-4.5v-2.9h-1v7h1v-3.3h4.5v3.3zm14.1-5.2c-.1-1.6-1.6-2-3.1-2-1.9 0-3.1.8-3.1 2.1 0 2.9 5.4 1.2 5.4 3.1 0 .8-.8 1.3-2.3 1.3-1.3 0-2.2-.5-2.3-1.5h-1.1c.1 1.5 1.3 2.3 3.3 2.3 2.1 0 3.3-.8 3.3-2.2 0-.9-.5-1.5-1.7-1.7l-2.6-.4c-.9-.1-1.1-.5-1.1-.9 0-.8.8-1.3 1.8-1.3 1.1 0 2.1.3 2.2 1.3h1.3zm6.3-2.1c-2.9 0-3.9 2-3.9 3.7 0 1.7 1 3.7 3.9 3.7s3.9-2 3.9-3.7c0-1.7-1-3.7-3.9-3.7m0 6.6c-1.7 0-2.9-1.2-2.9-2.9s1.2-2.9 2.9-2.9 2.9 1.2 2.9 2.9-1.2 2.9-2.9 2.9m6.1.6h5v-.8h-4v-6.2h-1v7zm12.7-2.8c0 1.3-.8 2.2-2.3 2.2-1.4 0-2.2-.8-2.2-2.2v-4.2h-1v4.2c0 2 1.4 3 3.3 3s3.3-1 3.3-3v-4.2h-1v4.2zm6 2.8h1v-6.1h3v-.9h-6.9v.9h3v6.1zm6 0h1v-7h-1v7zm6.8-7.2c-2.9 0-3.9 2-3.9 3.7 0 1.7 1 3.7 3.9 3.7s3.9-2 3.9-3.7c.1-1.7-.9-3.7-3.9-3.7m0 6.6c-1.7 0-2.9-1.2-2.9-2.9s1.2-2.9 2.9-2.9 2.9 1.2 2.9 2.9-1.2 2.9-2.9 2.9m11.7-.4l-4.3-6h-1.4v7h1v-6l4.3 6h1.4v-7h-1v6zm9.3-4.1c-.1-1.6-1.6-2-3.1-2-1.9 0-3.1.8-3.1 2.1 0 2.9 5.4 1.2 5.4 3.1 0 .8-.8 1.3-2.3 1.3-1.3 0-2.2-.5-2.3-1.5h-1.1c.1 1.5 1.3 2.3 3.3 2.3 2.1 0 3.3-.8 3.3-2.2 0-.9-.5-1.5-1.7-1.7l-2.6-.4c-.9-.1-1.1-.5-1.1-.9 0-.8.8-1.3 1.8-1.3 1.1 0 2.1.3 2.2 1.3h1.3zM74.2 38.7c0-19.9-16.1-35.9-35.9-35.9-19.9 0-35.9 16-35.9 35.9 0 19.8 16.1 35.9 35.9 35.9 19.8 0 35.9-16.1 35.9-35.9m-6 4.6c0 16.5-13.4 29.8-29.9 29.8s-30-13.3-30-29.8c0-16.6 13.5-30 30-30s29.9 13.4 29.9 30"/><path fill="#006990" d="M62.2 39.3c0-13.2-10.7-23.9-23.9-23.9s-24 10.7-24 23.9 10.8 24 24 24 23.9-10.8 23.9-24m-5.9 4.6c0 9.9-8.1 18-18 18-10 0-18-8.1-18-18 0-10.1 8-18 18-18 9.9 0 18 7.9 18 18"/><path fill="#5C8727" d="M50.3 40c0-6.6-5.4-11.9-11.9-11.9-6.6 0-12 5.4-12 11.9 0 6.6 5.4 12 12 12 6.5 0 11.9-5.4 11.9-12M38.2 50.5c-3.3 0-6-2.7-6-5.9 0-3.4 2.7-6.1 6-6.1s5.9 2.7 5.9 6.1c.1 3.2-2.5 5.9-5.9 5.9"/><path fill="#00274C" d="M283.2 14.8c0 2.1-1.7 3.8-3.8 3.8-2 0-3.8-1.7-3.8-3.8 0-2.1 1.8-3.8 3.8-3.8 2.1 0 3.8 1.7 3.8 3.8zm-7.2 0c0 1.9 1.5 3.4 3.3 3.4 1.8 0 3.3-1.5 3.3-3.4 0-1.8-1.4-3.3-3.3-3.3-1.7 0-3.3 1.5-3.3 3.3zm2-2.1h1.4c.3 0 1.4 0 1.4 1 0 .1 0 .8-.8 1 .4.1.6.3.6.8.1.5.1.9.2 1.3h-.6c-.1-.3-.1-.4-.2-1.1-.1-.6-.2-.8-.9-.8h-.7v1.8h-.4v-4zm.6 1.8h.9c.3 0 .8 0 .8-.6s-.5-.6-.8-.6h-.9v1.2z"/></svg>