<?xml version="1.0" encoding="UTF-8" standalone="yes"?>
<svg version="1.1" id="Layer_1" xmlns="http://www.w3.org/2000/svg" xmlns:xlink="http://www.w3.org/1999/xlink" x="0px" y="0px" viewBox="4 10 279 156" style="enable-background:new 0 0 288 174;" xml:space="preserve">
  <style type="text/css">
	.st0{fill:#20BEDB;}
	.st1{fill:#DBE1EB;}
	.st2{fill:#99D8E9;}
	.st3{fill:#FEFEFE;}
</style>
  <g>
    <path class="st0" d="M5,71.3c0.2-1.4,0.3-2.9,0.5-4.3c1.1-6.8,3.9-12.7,8.9-17.5c4.1-3.9,9-6,14.6-6.8c4.2-0.6,8.4-0.6,12.5,0.4&#xA;&#x9;&#x9;c4.7,1.1,8.8,3.2,11.6,7.2c3.3,4.6,3.8,9.7,1.2,14.8c-2.3,4.5-6.9,6.3-11.6,5.9c-1.3-0.1-2-0.9-1.9-2c0.1-0.5,0.4-0.9,0.6-1.3&#xA;&#x9;&#x9;c2-3.1,2.5-6.5,2.1-10.1c-0.5-4.1-3.4-6.8-7.3-7.7c-5.5-1.2-9.9,0.7-13.1,5.5c-2.1,3.1-3.2,6.6-3.8,10.2&#xA;&#x9;&#x9;c-0.9,5.2-0.9,10.5,0.2,15.7c0.9,4,2.5,7.6,5.4,10.6c2.5,2.5,5.5,4,9,4.4c6.6,0.8,12.4-1.3,17.5-5.4c1-0.8,2.5-1,3.6,0&#xA;&#x9;&#x9;c1,0.9,1.9,1.9,1.7,3.4c0,0.5-0.1,0.9-0.5,1.3c-3.4,4-7.6,7-12.6,8.7c-4.4,1.5-8.9,1.7-13.5,1.1c-4.9-0.6-9.4-2.4-13.3-5.5&#xA;&#x9;&#x9;C11.1,95.7,7.7,89.9,6,83.1c-0.5-2.1-0.8-4.3-0.9-6.4c0-0.1-0.1-0.3-0.1-0.4C5,74.6,5,73,5,71.3z"/>
    <path class="st0" d="M267.4,10c0.3,0.2,0.6,0.2,0.9,0.3c1.9,0.6,3,1.9,3,3.9c0,3.5,0,7,0,10.4c0,0.2,0,0.4,0,0.6&#xA;&#x9;&#x9;c0,13.3,0,26.5,0,39.8c0,7,0,14,0,20.9c0,2.3,0,4.6,0,7c0,0.5,0,1,0.1,1.4c0.2,1.3,1.1,2.1,2.5,2.2c2.2,0.1,4-0.9,5.6-2.1&#xA;&#x9;&#x9;c0.8-0.6,0.8-0.6,1.4,0.2c0.7,1,1.4,1.9,2.1,2.9c0.1,0.2,0.3,0.3,0,0.6c-2.7,2.9-5.6,5.5-9.4,7c-2.3,0.9-4.7,1.1-7.1,0.6&#xA;&#x9;&#x9;c-3.4-0.6-5.4-2.7-6.4-6c-0.7-2.5-0.9-5-0.9-7.6c0-22.8,0-45.6,0-68.4c0-0.2,0-0.3,0-0.5c0-1.2-0.6-1.7-1.7-1.7c-1.7,0-3.4,0-5.2,0&#xA;&#x9;&#x9;c-0.4,0-0.6-0.1-0.7-0.5c-0.3-1-0.7-2-1-3c-0.1-0.3-0.1-0.5,0.2-0.7c3.9-3.4,8.3-5.8,13.3-7.1c0.3-0.1,0.6,0,0.9-0.2&#xA;&#x9;&#x9;C265.7,10,266.5,10,267.4,10z"/>
    <path class="st1" d="M210.7,165.7c-0.7-0.3-1.4-0.2-2.1-0.2c-4.7-0.4-9.4-1.3-13.9-2.7c-2.6-0.8-5.1-1.9-7.7-2.9&#xA;&#x9;&#x9;c-3.5-1.4-7.2-2.5-10.9-3.1c-3.5-0.6-7-0.7-10.6-0.5c-4.6,0.3-9.1,1.2-13.6,2.6c-0.6,0.2-1.1,0.3-1.7,0.5c-0.3,0.1-0.5,0-0.6-0.3&#xA;&#x9;&#x9;c-1.4-2.7-2.8-5.4-4.2-8.2c-0.2-0.3-0.4-0.7-0.6-1c-0.3-0.6-0.3-0.7,0.4-0.9c2.2-0.7,4.4-1.3,6.6-1.8c3-0.7,6-1.3,9.1-1.6&#xA;&#x9;&#x9;c1.7-0.2,3.4-0.3,5.1-0.4c0.9,0,1.8-0.1,2.7-0.1c2.3,0.1,4.7,0.2,7,0.5c5.1,0.6,10,1.8,14.8,3.5c2.2,0.8,4.3,1.7,6.5,2.6&#xA;&#x9;&#x9;c2.6,1,5.2,1.7,7.9,2.2c2.9,0.5,5.8,0.9,8.8,0.9c0.4,0,0.5,0.2,0.6,0.6c0.6,2,1.2,4.1,1.8,6.1c0.4,1.5,0.8,2.9,1.3,4.4&#xA;&#x9;&#x9;C215.1,165.7,212.9,165.7,210.7,165.7z"/>
    <path class="st0" d="M100.4,94.5c-1.2,1.5-2.4,2.9-3.7,4.1c-3.5,3.3-7.5,5.8-12.3,6.8c-7.7,1.5-14.1-0.7-19.4-6.5&#xA;&#x9;&#x9;c-2.9-3.3-4.7-7.2-5.7-11.4c-1.3-5.2-1.5-10.4-1.1-15.7c0.4-5.1,1.6-10,4.1-14.5c4.4-7.8,11.1-12.6,20-14.3&#xA;&#x9;&#x9;c4.1-0.8,8.2-0.8,12.3-0.3c4.4,0.5,8.8,1.4,13.2,2c1.7,0.2,3.4,0.5,5.1,0.6c0.4,0,0.7,0.2,0.9,0.5c0.3,0.5,0.7,0.9,1.1,1.3&#xA;&#x9;&#x9;c0.3,0.3,0.2,0.5,0,0.7c-0.6,1-1.3,1.9-1.9,2.9c-0.7,1.2-1,2.5-1,3.9c0,12.7,0,25.4,0,38.2c0,3,1.6,3.7,4.2,3.3&#xA;&#x9;&#x9;c1.6-0.3,3-1,4.3-1.9c0.4-0.3,0.6-0.3,0.9,0.2c0.7,1.1,1.5,2.1,2.3,3.2c0.1,0.2,0.3,0.3,0,0.6c-2.4,2.7-5.1,5.1-8.4,6.6&#xA;&#x9;&#x9;c-2.4,1.1-4.9,1.4-7.5,1.1c-3.7-0.5-5.9-2.7-6.9-6.2C100.7,97.9,100.5,96.3,100.4,94.5z"/>
    <path class="st0" d="M233.8,94.5c-1,1.2-1.8,2.2-2.8,3.2c-3.1,3.2-6.7,5.8-11,7.1c-7.7,2.2-14.5,0.9-20.4-4.8&#xA;&#x9;&#x9;c-3.6-3.5-5.7-7.7-6.8-12.5c-1.7-7.6-2-15.2,0-22.7c2.1-8.2,6.7-14.6,14.2-18.8c3.5-2,7.3-3,11.3-3.4c4.5-0.5,9-0.1,13.4,0.6&#xA;&#x9;&#x9;c4.5,0.7,9,1.6,13.5,2c1.3,0.1,2.2,0.6,3,1.6c0.4,0.5,0.5,0.8,0.1,1.4c-0.7,1-1.5,2-2,3.2c-0.4,1-0.7,2-0.7,3.1&#xA;&#x9;&#x9;c0,12.8,0,25.6,0,38.4c0,0.1,0,0.2,0,0.3c0,2.1,1.2,3.1,3.3,2.9c1.9-0.2,3.6-0.9,5.2-2c0.4-0.3,0.6-0.2,0.9,0.2&#xA;&#x9;&#x9;c0.7,1.1,1.5,2.1,2.3,3.2c0.1,0.2,0.3,0.3,0,0.6c-2.7,3-5.7,5.7-9.6,7.1c-2.2,0.8-4.5,0.9-6.8,0.5c-3.7-0.7-5.7-3.1-6.5-6.6&#xA;&#x9;&#x9;C234.1,97.6,233.9,96.1,233.8,94.5z"/>
    <path class="st0" d="M144,57.4c0.7-1.1,1.3-2.2,2-3.2c3-4.3,6.7-7.9,11.5-10c3.9-1.8,8.1-2.3,12.3-1.5c5.2,0.9,8.6,4.1,10.4,9&#xA;&#x9;&#x9;c1,2.6,1.4,5.2,1.6,7.9c0.2,2.1,0.2,4.2,0.2,6.3c0,8.9,0,17.8,0,26.7c0,0.7,0,1.3,0.2,2c0.3,1.2,1.1,1.8,2.3,1.9&#xA;&#x9;&#x9;c1.8,0.1,3.3-0.5,4.7-1.4c0.5-0.3,1-0.7,1.5-1.1c0.2-0.2,0.3-0.2,0.5,0.1c0.8,1.2,1.7,2.3,2.5,3.5c0.1,0.2,0.2,0.3,0,0.5&#xA;&#x9;&#x9;c-2.9,3.2-6.2,6.1-10.5,7.4c-2.1,0.6-4.3,0.7-6.5,0.1c-3.4-0.8-5.2-3.1-6-6.4c-0.5-1.8-0.6-3.6-0.7-5.5c-0.1-10,0-20.1-0.1-30.1&#xA;&#x9;&#x9;c0-1.8-0.3-3.6-0.9-5.3c-1.2-3.4-3.8-5-7.3-5.4c-5.2-0.5-8.9,1.9-11.7,6c-2.5,3.6-3.9,7.6-4.9,11.8c-1.2,5.3-1.5,10.6-1.3,16&#xA;&#x9;&#x9;c0.1,3.7,0.8,7.4,2.5,10.8c0.7,1.4,1.6,2.6,2.6,3.8c0.3,0.3,0.3,0.6,0,0.9c-0.6,0.6-0.9,1.5-1.6,1.9c-0.7,0.4-1.6,0.1-2.4,0.1&#xA;&#x9;&#x9;c-6.2,0-12.3,0-18.5,0c-0.5,0-0.7-0.1-0.8-0.6c-0.4-1.3-0.9-2.5-1.3-3.7c-0.1-0.3-0.1-0.5,0.3-0.6c1-0.2,1.9-0.5,2.8-0.7&#xA;&#x9;&#x9;c2.5-0.5,3.9-2,4.2-4.6c0.1-1.1,0.2-2.2,0.2-3.3c0-11.2,0-22.3,0-33.5c0-0.3,0-0.6-0.1-0.9c-0.2-0.9-0.6-1.3-1.5-1.3&#xA;&#x9;&#x9;c-1.8,0-3.5,0-5.3,0c-0.4,0-0.6-0.1-0.7-0.5c-0.3-1-0.7-2-1.1-3c-0.1-0.3-0.1-0.5,0.2-0.7c4-3.5,8.5-5.9,13.7-7.1&#xA;&#x9;&#x9;c1.3-0.3,2.6-0.2,3.9,0.1c2,0.5,3,2,3,4.2c0,2.9,0,5.8,0,8.8C144,57,144,57.2,144,57.4z"/>
    <path class="st2" d="M214.8,138.7c-9,0-17.3-1.7-25.2-5.2c-4.1-1.8-8.5-3.1-12.9-3.8c-2.9-0.5-5.9-0.7-8.9-0.5&#xA;&#x9;&#x9;c-5.2,0.2-10.3,1.3-15.2,2.8c-1.6,0.5-1.6,0.5-2.3-1c-1.4-2.9-2.8-5.8-4.3-8.7c-0.2-0.4-0.1-0.6,0.3-0.7c3.3-1,6.7-1.9,10.1-2.5&#xA;&#x9;&#x9;c2-0.4,4.1-0.7,6.1-0.8c2.2-0.2,4.5-0.3,6.7-0.3c3.4,0.1,6.8,0.3,10.1,0.9c6.2,1,12.2,3,18,5.5c3.5,1.5,7.2,2.5,11,3&#xA;&#x9;&#x9;c2.6,0.3,5.2,0.5,7.9,0.4c4-0.2,7.9-0.8,11.7-2c1.3-0.4,1.3-0.4,2,0.7c1.8,2.7,3.6,5.4,5.4,8.1c0.3,0.4,0.2,0.6-0.2,0.7&#xA;&#x9;&#x9;c-3,1.2-6.1,1.9-9.3,2.5c-2.2,0.4-4.3,0.7-6.5,0.8C217.6,138.7,216,138.8,214.8,138.7z"/>
    <path class="st2" d="M123.1,137.2c-3.3,0-6.6-0.2-9.8-0.7c-5.4-0.8-10.5-2.4-15.5-4.5c-4.1-1.8-8.5-3.1-12.9-3.8&#xA;&#x9;&#x9;c-2.8-0.4-5.7-0.6-8.5-0.5c-3.4,0.2-6.8,0.6-10.2,1.4c-2.1,0.5-4.2,1.1-6.3,1.7c-0.5,0.1-0.7,0-0.9-0.4c-1.6-3.1-3.1-6.1-4.7-9.2&#xA;&#x9;&#x9;c-0.2-0.5-0.2-0.6,0.3-0.7c3.8-1.2,7.7-2.2,11.6-2.9c2.2-0.4,4.4-0.7,6.6-0.8c2.4-0.2,4.8-0.3,7.2-0.2c2.4,0.1,4.8,0.3,7.1,0.7&#xA;&#x9;&#x9;c4.3,0.6,8.5,1.8,12.6,3.2c2.5,0.9,4.9,2,7.4,2.9c2.8,1.1,5.7,1.8,8.7,2.3c3.1,0.5,6.2,0.6,9.3,0.5c4-0.2,8-0.8,11.8-2.3&#xA;&#x9;&#x9;c0.3-0.1,0.5-0.1,0.7,0.2c1.8,3.2,3.6,6.3,5.4,9.4c0.2,0.4,0.2,0.6-0.2,0.7c-2.8,1-5.7,1.6-8.6,2.1c-2.7,0.4-5.4,0.7-8.1,0.8&#xA;&#x9;&#x9;C125.1,137.3,124.1,137.2,123.1,137.2z"/>
    <path class="st1" d="M78.3,143.6c3.2-0.1,6,0.2,8.8,0.6c4.4,0.6,8.7,1.8,13,3.3c3.1,1.1,6,2.6,9.1,3.5c2.6,0.8,5.3,1.4,8,1.8&#xA;&#x9;&#x9;c2.8,0.4,5.6,0.5,8.4,0.3c3.9-0.2,7.7-0.8,11.4-2.1c0.6-0.2,0.8-0.1,1.1,0.4c1.7,3.1,3.4,6.1,5.1,9.2c0.2,0.3,0.1,0.4-0.3,0.6&#xA;&#x9;&#x9;c-2.5,1-5.1,1.6-7.8,2.1c-2.4,0.5-4.9,0.7-7.4,0.9c-1.5,0.1-3.1,0.2-4.6,0.2c-2.4,0-4.8-0.2-7.2-0.4c-4-0.5-7.9-1.3-11.8-2.5&#xA;&#x9;&#x9;c-2.7-0.8-5.2-2-7.8-3.1c-3.5-1.4-7.1-2.5-10.8-3.1c-2.1-0.3-4.3-0.5-6.4-0.4c-0.1,0-0.2,0-0.3,0c-0.7,0.1-1.1-0.2-1.3-0.9&#xA;&#x9;&#x9;c-1-3.2-2.1-6.3-3.2-9.5c-0.2-0.5-0.3-0.7,0.4-0.7C76.2,143.5,77.4,143.7,78.3,143.6z"/>
    <path class="st2" d="M32.2,136.1c-7.5,0.1-14.6-1.1-21.4-3.6c-1.4-0.5-2.8-1.1-4.3-1.7c-0.4-0.1-0.4-0.3-0.2-0.6&#xA;&#x9;&#x9;c2-2.7,3.9-5.4,5.9-8.2c0.7-1,0.7-1,1.9-0.5c3.6,1.5,7.3,2.5,11.1,3c2.9,0.4,5.8,0.6,8.7,0.4c4.1-0.3,8.1-0.8,11.9-2.3&#xA;&#x9;&#x9;c0.4-0.1,0.4,0,0.5,0.3c1.4,2.6,2.7,5.2,4.1,7.8c0.3,0.6,0.6,1.2,0.9,1.8c0.2,0.4,0.2,0.6-0.3,0.8c-1.7,0.6-3.4,1.1-5.2,1.4&#xA;&#x9;&#x9;c-3.4,0.7-6.8,1.1-10.3,1.3C34.4,136.1,33.2,136.1,32.2,136.1z"/>
    <path class="st2" d="M256.6,120.3c4.8,0,8.9,0.4,13,1.5c4.3,1.1,8.5,2.5,12.6,4.3c0.5,0.2,0.6,0.4,0.2,0.8c-1.8,2.3-3.5,4.7-5.2,7&#xA;&#x9;&#x9;c-0.3,0.4-0.7,0.9-1,1.3c-0.2,0.3-0.5,0.4-0.8,0.2c-3-1.4-6.1-2.4-9.4-3c-2.3-0.5-4.7-0.8-7.1-1c-1.7-0.1-3.4-0.1-5.1-0.1&#xA;&#x9;&#x9;c-3.6,0.2-7.2,0.6-10.6,1.7c-0.3,0.1-0.5,0.2-0.8-0.2c-1.9-3-3.7-6-5.6-8.9c-0.2-0.4,0-0.4,0.3-0.6c2.3-0.9,4.6-1.4,7-1.9&#xA;&#x9;&#x9;c2.7-0.5,5.4-0.8,8.1-1C253.9,120.3,255.5,120.5,256.6,120.3z"/>
    <path class="st3" d="M100.4,69.3c0,5,0,10.1,0,15.1c0,0.4-0.1,0.8-0.3,1.1c-2,3.3-4.5,6.2-8,8.1c-2.9,1.5-6,2.2-9.2,1.7&#xA;&#x9;&#x9;c-3.9-0.6-6.5-3.2-8.3-6.5c-1.4-2.6-2-5.5-2.4-8.5c-0.4-3.3-0.5-6.5-0.2-9.8c0.3-4.4,1.2-8.6,3.4-12.4c3-5.2,7.5-7.7,13.5-7.9&#xA;&#x9;&#x9;c4-0.1,7.6,1,11,3c0.4,0.3,0.6,0.5,0.6,1.1C100.3,59.3,100.4,64.3,100.4,69.3z"/>
    <path class="st3" d="M233.8,69.4c0,5,0,10.1,0,15.1c0,0.4-0.1,0.7-0.3,1.1c-1.9,3.1-4.2,5.9-7.4,7.7c-3.1,1.8-6.4,2.6-10,2&#xA;&#x9;&#x9;c-3.4-0.6-5.7-2.7-7.5-5.5c-1.5-2.4-2.3-5-2.7-7.8c-0.5-3-0.7-6.1-0.6-9.2c0.1-4.8,0.8-9.5,3.1-13.9c2.4-4.6,6.1-7.7,11.3-8.5&#xA;&#x9;&#x9;c5-0.8,9.6,0.3,13.9,2.9c0.3,0.2,0.3,0.5,0.3,0.8C233.8,59.2,233.8,64.3,233.8,69.4z"/>
  </g>
</svg>