<svg xmlns="http://www.w3.org/2000/svg" role="img" viewBox="-51.30 -51.30 2667.60 852.60"><title>Cast.ai (member) logo</title><style>svg {enable-background:new 0 0 2567.6 751.6}</style><path d="M1975 479.5h76.9v71.7H1975v-71.7zm515.7-352.2h76.9V199h-76.9v-71.7zm-312 424.8c-15.7-5-29.3-12-40.7-21-11.4-9.1-20.3-19.9-26.5-32.7-6.3-12.7-9.4-27-9.4-43 0-21.6 6.3-39.4 18.8-53.7 12.5-14.2 29.4-25.9 50.8-34.9s46.1-15.9 74.4-20.7c28.2-4.7 58.3-8.8 90.2-12.3v-6.5c0-14.7-1.9-27-5.8-37.2-3.9-10.1-9.2-18.1-15.8-23.9-6.7-5.8-14.4-10-23.3-12.6-8.8-2.6-18-3.9-27.5-3.9-19.4 0-35.7 5.2-48.8 15.5-13.1 10.3-20.1 26.1-21 47.2h-75.6c1.3-17.7 5.8-33.8 13.6-48.5 7.8-14.7 18.1-27.3 31-37.8 12.9-10.6 28.1-18.7 45.6-24.6 17.5-5.8 36.7-8.7 57.9-8.7 20.7 0 40.1 2.6 58.2 7.8 18.1 5.2 33.8 13.6 47.2 25.2 13.4 11.6 23.7 27 31 46.2s10.8 42.6 10.3 70.2c0 4.3-.1 9.9-.3 16.8-.2 6.9-.3 14.4-.3 22.6s-.1 16.7-.3 25.5c-.2 8.8-.3 17.1-.3 24.9 0 22 .9 43.6 2.6 65 1.7 21.3 4.3 39.3 7.8 54H2352c-1.3-7.3-2.5-14-3.6-20s-2-15.1-2.9-27.2c-11.2 19-26.6 33-46.2 42s-42.3 13.6-68.2 13.6c-19.3.2-36.6-2.3-52.4-7.3zm88.9-155.5c-19.4 3.4-35.3 7.8-47.8 12.9-12.5 5.2-21.7 11.3-27.5 18.4-5.8 7.1-8.7 15.6-8.7 25.5 0 15.1 5.8 26.9 17.5 35.6 11.6 8.6 27.2 12.9 46.6 12.9 28.4 0 50.6-7.2 66.6-21.7 15.9-14.4 23.9-36.5 23.9-66.3v-26.5c-27.7 2.8-51.2 5.8-70.6 9.2zm300 154.6h-76.9v-301h76.9v301z"/><path d="M477.2 335.2l28.1-28.1c.4-.4.7-.7 1-1.1l.1.1-29.2 29.1z"/><path d="M569.5 439.2c5.2 12.8 7.7 26.5 7.7 39.9 0 13.6-2.5 27.1-7.7 39.9-5.2 12.8-13.1 24.9-23.4 35.1L380.3 720.5c-10.3 10.3-22.4 18.2-35.1 23.3-12.8 5.2-26.4 7.8-39.9 7.8s-27.1-2.6-39.9-7.8-24.9-13.1-35.2-23.3L208.7 699l-176-175.9c-9.7-9.7-17.7-21-23.4-33.7C3.6 476.7 0 462.6 0 448V301.4c1-27.4 11.8-52.5 30.5-71.2L229.6 31.1c20.7-20.7 48-31.2 75-31.1 13.6 0 27.1 2.5 39.9 7.7 12.8 5.2 24.9 13.1 35.2 23.4l167 167c10.3 10.3 18.2 22.3 23.3 35.1 5.2 12.8 7.8 26.4 7.8 39.9 0 13.6-2.6 27.1-7.7 39.9-5.2 12.8-13.1 24.9-23.4 35.2l-28.1 28.1-41.5 41.7-97.3 97.3c-10.3 10.3-22.4 18.2-35.1 23.3-12.8 5.2-26.5 7.8-39.9 7.8s-27.1-2.6-39.9-7.8-24.9-13.1-35.1-23.3l-17.3-16.9-46.2-46.2c-10.3-10.3-18.2-22.4-23.4-35.2-5.1-12.8-7.7-26.4-7.7-39.9 0-13.6 2.6-27.1 7.7-39.9 5.2-12.8 13.1-24.9 23.4-35.2l63.6-63.6c10.3-10.3 22.4-18.2 35.1-23.4 12.8-5.2 26.4-7.7 39.9-7.7 13.6 0 27.1 2.5 39.9 7.7 12.8 5.2 24.9 13.1 35.2 23.3l62.6 62.6-41.4 41.4-62.6-62.5c-4.7-4.7-10-8.1-15.8-10.5-5.7-2.4-11.8-3.5-17.9-3.5-6.1 0-12.2 1.1-17.9 3.5-5.7 2.4-11 5.7-15.8 10.5l-63.5 63.7c-4.7 4.7-8.1 10-10.5 15.8-2.4 5.7-3.5 11.8-3.5 17.9 0 6.1 1.2 12.2 3.5 17.9 2.4 5.7 5.7 11 10.5 15.8l46.2 46.2 17.2 17.2c4.7 4.7 10 8.1 15.7 10.5 5.7 2.4 11.8 3.5 17.9 3.5s12.2-1.1 17.9-3.5c5.7-2.4 11-5.8 15.8-10.5l12.9-12.9 155.2-155.2-.1-.1c4.2-4.5 7.3-9.3 9.5-14.7 2.4-5.7 3.5-11.8 3.5-17.9 0-6.1-1.1-12.2-3.5-17.9-2.4-5.7-5.7-11-10.5-15.8l-166.9-167c-4.7-4.7-10.1-8.1-15.8-10.5-5.7-2.4-11.8-3.5-18-3.5-6.1 0-12.2 1.1-17.9 3.5-5.7 2.4-11 5.8-15.7 10.5L72.9 271.9c-8.8 8.8-13.8 20-14.3 31.5V447.9c0 5.8 1.5 11.6 4.1 17.4 2.6 5.7 6.5 11.4 11.3 16.3l175.8 175.7 21.5 21.5c4.7 4.7 10 8.2 15.7 10.5 5.7 2.4 11.8 3.5 17.9 3.5 6.1 0 12.2-1.2 17.9-3.5 5.7-2.4 11-5.7 15.8-10.5l166-165.8c4.7-4.7 8.1-10 10.5-15.8 2.4-5.7 3.5-11.8 3.5-17.9 0-6.1-1.1-12.2-3.5-17.9-1-2.4-2.1-4.6-3.5-6.7l42.1-42.1c6.6 8.2 12 17.2 15.8 26.6z"/><g><path d="M1006.4 432.3c-4 20.2-11 38.2-21.4 54.1-10.2 15.9-22.8 29.4-37.5 40.1-14.6 10.8-30.7 18.9-48.3 24.6-17.8 5.5-35.7 8.5-54.3 8.5-25.4 0-48.3-4.7-68.8-13.9-20.5-9.3-38-22-52.6-38.1-14.7-16.2-26-35.3-34-57.5-8-22.1-11.9-46.2-11.9-72s4-49.9 11.9-72c8-22.1 19.4-41.4 34.2-57.7s32.9-29.2 54-38.3c21.2-9.3 44.5-13.9 70.3-13.9 18.9 0 37.2 2.9 54.6 9 17.4 6 33 14.6 46.8 25.5 13.8 10.8 25.4 24.1 34.8 39.6 7.8 12.8 13.6 27 17.3 42.7h-75.2c-4.6-14.2-12.7-26-24.6-35.5-14.7-11.6-32.6-17.4-53.6-17.4-12.1 0-23.5 2.2-34.6 6.7-11 4.6-20.7 11.6-29 21.4-8.5 9.6-15.2 21.7-20 36.3-4.9 14.7-7.5 32.2-7.5 53 0 20.7 2.6 38.3 7.5 53.3 4.9 14.8 11.6 27 20 36.8 8.5 9.6 18 16.8 28.7 21.3 10.7 4.6 21.7 6.7 32.9 6.7 9.5 0 18.8-1.1 27.9-3.2 9.1-2.1 17.4-5.8 25.3-10.8 7.6-5.2 14.4-11.8 20-19.7 5.5-8 9.6-17.8 12.2-29.4h74.9zm112 119.7c-15.7-5-29.2-11.9-40.7-21s-20.3-19.9-26.5-32.6c-6.2-12.7-9.3-27-9.3-42.9 0-21.5 6.2-39.4 18.7-53.6 12.4-14.2 29.4-25.9 50.6-34.8 21.3-9.1 46-15.9 74.3-20.7 28.2-4.7 58.2-8.8 90.1-12.3v-6.5c0-14.7-1.9-27-5.8-37.1-3.9-10.1-9.2-18-15.8-23.9-6.7-5.8-14.4-10-23.3-12.6-8.8-2.6-17.9-3.9-27.5-3.9-19.4 0-35.6 5.2-48.8 15.6-13.2 10.3-20.2 26-21 47.2h-75.5c1.2-17.7 5.8-33.8 13.6-48.4 7.7-14.7 18-27.3 31-37.8s28.1-18.7 45.5-24.5c17.4-5.8 36.7-8.7 57.7-8.7 20.7 0 40.1 2.6 58.1 7.7 18 5.2 33.8 13.6 47.2 25.1 13.3 11.6 23.6 27 31 46.2s10.8 42.6 10.3 70.1c0 4.4-.1 10-.4 16.8-.2 6.8-.4 14.4-.4 22.6 0 8.2-.1 16.7-.4 25.5-.2 8.8-.4 17.2-.4 24.9 0 21.9.9 43.6 2.6 65 1.7 21.3 4.4 39.3 7.7 53.9h-70.4c-1.2-7.3-2.5-13.9-3.6-20-1.1-6-2-15.1-2.9-27.1-11.2 18.9-26.6 33-46.2 41.9-19.5 9.1-42.3 13.6-68.1 13.6-18.3-.2-35.7-2.7-51.4-7.7zm88.8-155.3c-19.4 3.5-35.3 7.7-47.8 12.9-12.4 5.2-21.7 11.3-27.5 18.4s-8.7 15.6-8.7 25.5c0 15.1 5.8 26.9 17.4 35.5 11.6 8.6 27.1 12.9 46.5 12.9 28.4 0 50.6-7.2 66.6-21.7s23.9-36.5 23.9-66.2v-26.5c-27.6 2.7-51.1 5.8-70.4 9.2zm394.2-132c-13.6-6.7-30-10-49.4-10-16.8 0-31.7 3.5-44.9 10.3-13.1 6.8-19.7 16.2-19.7 27.7 0 11.6 4 20.7 11.9 27.1 8 6.5 19.5 11.2 34.6 14.2l49 9.7c17.7 3.5 34 7.6 49 12.3 15.1 4.7 28.2 11.1 39.4 19 11.2 8 19.9 17.8 26.1 29.4 6.2 11.6 9.3 25.9 9.3 42.6 0 18-4 34.1-11.9 48.2-8 13.9-18.7 25.8-32.2 35.2-13.6 9.5-29.1 16.7-46.8 21.7-17.7 5-36.3 7.5-56.2 7.5-21.5 0-40.9-2.9-58.5-8.7-17.4-5.8-32.6-13.8-45.5-23.9-12.9-10.1-23.4-22.1-31.4-36.2-8-13.9-13.1-29.1-15.2-45.5h74.9c3.5 18 11.6 32 24.5 41.7 12.9 9.7 30.7 14.6 53.6 14.6 20.3 0 37-4 50-11.9 13.1-8 19.7-19 19.7-33.2s-5.7-24.9-17.2-32c-11.4-7.1-25.8-12.3-42.9-15.8l-52.3-10.3c-14.7-3-28.2-7-41.1-11.9-12.7-5-23.8-11.4-33.2-19.4-9.5-8-16.9-17.7-22.3-29-5.4-11.4-8.1-25.1-8.1-41.1 0-15.6 3.9-29.4 11.6-41.7 7.7-12.3 18-22.8 31-31.6 12.9-8.8 27.9-15.6 44.9-20.3 17-4.7 35-7.1 53.9-7.1 16.8 0 33.1 2 49 6.1 15.9 4.1 30.4 10.5 43.3 19s23.9 19.4 33 32.4c9.1 12.9 15.3 28 18.7 45.2h-72c-4.2-16.4-13-27.6-26.6-34.3zm247.9 3v211.8h69.7v71.7h-89.2c-31.7 0-57.4-25.8-57.4-57.4V267.7h-50v-65.3h50v-71.8h76.9v71.8h69.7v65.3h-69.7z"/></g></svg>