<svg xmlns="http://www.w3.org/2000/svg" role="img" viewBox="-8.32 -8.32 377.89 432.64"><title>Cerbos (member) logo</title><g clip-path="url(#clip0_667_8707)"><path d="M180.679 307.14c84.815 0 153.57-68.756 153.57-153.57C334.249 68.7556 265.494 0 180.679 0 95.865 0 27.1094 68.7556 27.1094 153.57c0 84.814 68.7556 153.57 153.5696 153.57z"/><path fill="#fff" d="M259.243 200.44c-1.17-3.48-4.16-6.37-6-9.38-3.45-5.62-2.17-12.26-.86-18.31 1.54-7.1 1.55-10.63 2.16-17.87 1.152-13.768.608-27.625-1.62-41.26-2.18-13.38-6.5-26.2805-9-39.5905-1.47-7.74-4.18-14.39-7.2-21.58-.91-2.16-1.58-1.83-2.68-.25a165.47222 165.47222 0 0 0-12.64 22.2c-1 2-10.53 22.65-9.51 22.95-5.44-1.59-13.44-4.24-29.63-4.24-15.08 0-22.57 2.18-28.12 4.24 0 0-2.33-5.65-2.51-6-5.4-10.85-10.88-21.7-17.14-32-.78-1.28-3.57-8.08-5.53-7-3.62 2-5 10.37-6 14.09-4.24 15.5-8.44 31.79-10.51 47.7905-2.62 20.32-3.73 40.77-1.38 61.17.36 3.15.93 6.85.12 9.92-1.25 4.83-5.84 8-7.52 12.64-1.68 4.64 1.36 8.19 5.67 8.46 1.08.07 10.39-2.44 10.07-4 .46 2.24.76 3.92 1.16 5.56 2.49 10.48 12.41 42 21.13 47 5.61 3.22 10.23-.05 10.29-6.82 0-1.11-.11-2.22-.19-3.63 9.768 3.578 20.078 5.455 30.48 5.55 10.901-.063 21.715-1.939 32-5.55-.08 1.41-.2 2.52-.19 3.63.06 6.77 4.68 10 10.29 6.82 5.2-3 8-10.38 10-15.86 3-8 6.19-20.07 8.16-28.42.4-1.65.7-3.32 1.16-5.56-.18.88 7.8 3.74 8.73 3.87 3.17.44 6.61-.55 7.2-4.36a8.8775 8.8775 0 0 0-.39-4.21zm-100.45-59.28c1.767-.03 3.502.466 4.985 1.426 1.483.96 2.647 2.339 3.344 3.962.697 1.624.894 3.418.568 5.154-.326 1.736-1.162 3.336-2.4 4.596-1.239 1.26-2.824 2.122-4.555 2.478-1.73.356-3.527.188-5.162-.481a8.90003 8.90003 0 0 1-4.019-3.276c-.985-1.466-1.511-3.193-1.511-4.959-.01-1.16.208-2.309.642-3.384a8.81802 8.81802 0 0 1 1.888-2.88c.813-.827 1.781-1.485 2.848-1.937 1.067-.453 2.213-.69 3.372-.699zm-21.07 46.48l-2.82-1.11s1.07-3.78 1.46-5.18l4-12.19 7.12 20.76c-3.303-.527-6.565-1.289-9.76-2.28zm11.65 2.6c3-5.87 8.84-14.5 11.53-19.26l2 5.34c1.7 5 3.91 10.73 5.34 15.94-6.92-.43-13.24-1.11-18.87-2.02zm34.9 2.51c-4.66 0-9.18-.12-13.51-.35l12.6-21.34c3.4 7.15 6.7 14.34 10 21.53-2.96.1-6 .16-9.09.16zm11.91-.27c3.54-7.5 6.24-15.08 9.51-21.42 3.31 7.63 5.06 12.2 8.58 19.9-5.5.71-11.6 1.23-18.09 1.52zm12-33.52c-1.766.029-3.501-.467-4.985-1.427-1.483-.96-2.647-2.339-3.343-3.962-.697-1.624-.895-3.418-.569-5.154.327-1.736 1.162-3.336 2.401-4.596 1.238-1.259 2.824-2.122 4.554-2.478 1.73-.356 3.528-.188 5.163.481 1.635.669 3.034 1.809 4.018 3.276.985 1.466 1.511 3.193 1.511 4.96.016 1.164-.199 2.321-.633 3.402-.433 1.082-1.077 2.067-1.893 2.898a8.8326 8.8326 0 0 1-2.863 1.945c-1.073.453-2.226.689-3.391.695l.03-.04zm24.08 28.35c-4.933 1.463-9.971 2.546-15.07 3.24l12.4-21.39 2.9 17.75c-.068.144-.156.278-.26.4h.03z"/><path fill="#FFBA00" d="M36.5707 370.069c2.12 2.55 5.16 3.85 9 3.85 2.5882.059 5.13-.693 7.27-2.15 1.1408-.753 2.0769-1.778 2.7246-2.982a8.2705 8.2705 0 0 0 .9866-3.918c0-1.367-.339-2.713-.9866-3.917a8.27501 8.27501 0 0 0-2.7246-2.983c-2.1409-1.455-4.6821-2.206-7.27-2.15h-34.57c-2.59521-.032-5.13849.729-7.28997 2.18-1.15347.741-2.09935 1.763-2.74845 2.97a8.06936 8.06936 0 0 0-.96155 3.93v42.16c-.01364 1.373.32598 2.725.98622 3.929.66024 1.203 1.61889 2.216 2.78378 2.941a12.38339 12.38339 0 0 0 7.22997 2.22h34.62c2.5961.04 5.1392-.736 7.27-2.22 1.1538-.732 2.1006-1.749 2.75-2.951.6495-1.203.98-2.552.96-3.919.0139-1.368-.3167-2.719-.9616-3.926a8.15971 8.15971 0 0 0-2.7284-2.984c-2.1199-1.529-4.676-2.336-7.29-2.3-3.89 0-6.93 1.32-9 3.92h-14.62v-31.7h14.57zm70.9133 21.051c2.563.051 5.076-.72 7.17-2.2 1.172-.694 2.14-1.684 2.809-2.871.669-1.186 1.014-2.527 1.001-3.889V365c.013-1.378-.326-2.736-.984-3.947-.658-1.211-1.613-2.234-2.776-2.973-2.106-1.498-4.637-2.279-7.22-2.23H72.8438c-2.6273-.02-5.1982.761-7.37 2.24a8.25481 8.25481 0 0 0-2.638 3.011 8.26106 8.26106 0 0 0-.912 3.899v42a7.99889 7.99889 0 0 0 .9452 3.952 7.99965 7.99965 0 0 0 2.7648 2.978c2.1106 1.479 4.6332 2.255 7.21 2.22h34.6402c2.575.046 5.098-.731 7.2-2.22a7.8993 7.8993 0 0 0 2.817-2.959c.664-1.217.996-2.586.963-3.971.005-1.367-.337-2.713-.995-3.911-.657-1.199-1.609-2.21-2.765-2.939-2.106-1.498-4.637-2.279-7.22-2.23-3.89 0-6.92 1.31-9.0002 3.92h-14.54v-10.72h23.5402zM83.9438 370h12.49v6.93h-12.49V370zM169.1 358.002c-2.165-1.443-4.719-2.19-7.32-2.14h-25.59c-2.603-.051-5.159.699-7.32 2.15-1.161.74-2.113 1.766-2.764 2.98-.652 1.213-.981 2.573-.956 3.95v42.16c-.014 1.372.326 2.725.986 3.928.66 1.203 1.619 2.216 2.784 2.942 2.147 1.449 4.679 2.223 7.27 2.223 2.59 0 5.122-.774 7.27-2.223 1.153-.733 2.1-1.749 2.75-2.952.649-1.202.98-2.551.96-3.918v-37h5.64c1.108 1.284 2.494 2.299 4.054 2.966 1.56.668 3.251.97 4.946.884 2.584.06 5.122-.688 7.26-2.14 1.153-.744 2.102-1.765 2.759-2.97.658-1.205 1.005-2.554 1.008-3.927.003-1.373-.338-2.724-.99-3.931-.653-1.208-1.597-2.233-2.747-2.982zm61.369-.002c-2.14-1.458-4.682-2.21-7.27-2.15h-23.59v-10.17c.011-1.37-.321-2.721-.968-3.928-.646-1.208-1.586-2.233-2.732-2.982-2.163-1.454-4.71-2.231-7.315-2.231-2.606 0-5.153.777-7.315 2.231-1.147.749-2.087 1.774-2.733 2.982-.647 1.207-.979 2.558-.967 3.928v61.38c-.014 1.372.326 2.725.986 3.928.66 1.203 1.619 2.216 2.784 2.942 2.134 1.483 4.68 2.26 7.28 2.22h34.57c2.596.043 5.14-.734 7.27-2.22 1.153-.733 2.1-1.749 2.75-2.952.649-1.203.979-2.552.96-3.918V364.9c.025-1.372-.303-2.727-.953-3.936-.65-1.208-1.599-2.229-2.757-2.964zm-18.31 43.8h-12.55v-31.7h12.55v31.7zm81.904-43.799c-2.14-1.457-4.682-2.209-7.27-2.15h-34.57c-2.606-.051-5.164.7-7.33 2.15-1.161.74-2.113 1.766-2.764 2.98-.651 1.213-.98 2.573-.956 3.95v42.16c-.013 1.372.326 2.725.986 3.928.661 1.203 1.619 2.216 2.784 2.942 2.134 1.485 4.681 2.261 7.28 2.22h34.57c2.597.042 5.14-.735 7.27-2.22 1.154-.733 2.101-1.749 2.75-2.952.65-1.202.98-2.552.96-3.918v-42.19c.019-1.371-.312-2.723-.961-3.931-.65-1.207-1.595-2.229-2.749-2.969zm-18.31 43.8h-12.55v-31.7h12.55v31.7zM357.669 381c-2.116-1.537-4.675-2.344-7.29-2.3h-23.59v-8.63h14.15c2.26 3.86 5.43 5.81 9.44 5.81 2.877-.125 5.603-1.324 7.64-3.36 2.036-2.037 3.235-4.763 3.36-7.64.024-1.376-.305-2.734-.954-3.947s-1.598-2.24-2.756-2.983c-2.14-1.457-4.682-2.208-7.27-2.15h-34.59c-2.606-.051-5.164.7-7.33 2.15-1.161.741-2.113 1.767-2.764 2.98-.651 1.213-.98 2.573-.956 3.95v19.16c-.011 1.372.331 2.723.993 3.924a7.99462 7.99462 0 0 0 2.787 2.936c2.139 1.46 4.681 2.215 7.27 2.16h23.53v8.69h-14.53c-2.09-2.6-5.11-3.92-9-3.92-2.628-.048-5.204.736-7.36 2.24-1.148.769-2.086 1.811-2.73 3.033-.645 1.222-.974 2.586-.96 3.967-.014 1.372.326 2.725.986 3.928.661 1.203 1.619 2.216 2.784 2.942 2.134 1.485 4.681 2.262 7.28 2.22h34.57c2.596.042 5.14-.735 7.27-2.22 1.154-.733 2.101-1.749 2.75-2.952.65-1.202.98-2.551.96-3.918v-19.16c.017-1.369-.313-2.721-.958-3.929-.645-1.208-1.585-2.233-2.732-2.981z"/></g><defs><clipPath id="clip0_667_8707"><path fill="#fff" d="M0 0h361.36v416.15H0z"/></clipPath></defs></svg>