<?xml version="1.0" encoding="UTF-8" standalone="yes"?>
<svg version="1.1" id="Laag_1" xmlns="http://www.w3.org/2000/svg" xmlns:xlink="http://www.w3.org/1999/xlink" x="0px" y="0px" width="1708.278px" height="445.276px" viewBox="-17.080000000000002 -4.45 1742.16 453.9" enable-background="new 0 0 1708.278 445.276" xml:space="preserve">
  <g>
    <path fill="none" d="M65.606,186.108c-0.033,1.458-0.047,2.916-0.036,4.373c0.032-0.715,0.058-1.429,0.051-2.14&#xD;&#xA;&#x9;&#x9;C65.614,187.598,65.612,186.854,65.606,186.108z"/>
    <path fill="none" d="M1069.812,339.562c-0.146-0.021-0.29-0.033-0.437-0.056c-1.171-0.179-2.312-0.084-3.442,0.097&#xD;&#xA;&#x9;&#x9;C1067.226,339.613,1068.519,339.601,1069.812,339.562z"/>
    <path fill="none" d="M1628.118,342.959c0.302-0.134,0.605-0.242,0.912-0.336C1628.723,342.702,1628.418,342.808,1628.118,342.959z"/>
    <path fill="#ED8323" d="M118.197,62.222c2.365,0.014,4.731,0.027,7.097,0.041c1.732-0.147,3.474-0.356,5.038,0.701&#xD;&#xA;&#x9;&#x9;c19.359,2.889,30.927,15.331,39.175,31.888c2.549,5.115,4.939,10.279,7.968,15.19c5.794,9.396,13.81,14.547,24.795,15.145&#xD;&#xA;&#x9;&#x9;c1.964,0.026,3.929,0.053,5.893,0.078c15.334-1.854,25.034-10.006,28.319-25.331c-0.055-1.734-0.214-3.482,0.686-5.089&#xD;&#xA;&#x9;&#x9;c-1.068-27.262-14.081-48.263-34.063-65.81c-13.667-12.001-29.706-18.77-47.182-22.639c-3.534-0.782-7.17-1.098-10.759-1.628&#xD;&#xA;&#x9;&#x9;c-1.769,0.096-3.537,0.197-5.176-0.686c-2.945-0.115-5.891-0.229-8.836-0.345c-5.295,0.021-10.59,0.042-15.885,0.062&#xD;&#xA;&#x9;&#x9;c-2.296,0.086-4.593,0.171-6.889,0.257c-0.002,0.002-0.005,0.002-0.007,0.004c-1.597,0.962-3.352,0.838-5.103,0.736&#xD;&#xA;&#x9;&#x9;C83.688,7.708,65.125,13.5,49.001,25.331C26.728,41.675,11.386,62.713,5.258,90.181c-2.21,9.909-3.419,19.834-4.24,29.876&#xD;&#xA;&#x9;&#x9;c0.101,2.758,0.219,5.518-0.714,8.185c-0.102,4.598-0.203,9.195-0.304,13.793c0.015,20.99,0.029,41.98,0.044,62.971&#xD;&#xA;&#x9;&#x9;c0.005,1.991,0.011,3.982,0.017,5.974c0.041,1.009,0.083,2.017,0.124,3.025c0.025,1.298,0.051,2.596,0.077,3.894&#xD;&#xA;&#x9;&#x9;c1.006,2.614,0.82,5.331,0.699,8.043c0.109,1.961,0.218,3.923,0.326,5.884c0.948,1.611,0.812,3.378,0.732,5.136&#xD;&#xA;&#x9;&#x9;c2.058,21.11,7.792,41.006,20.647,58.192c13.458,17.992,30.254,31.826,51.713,39.512c7.476,2.677,14.967,5.183,22.846,6.353&#xD;&#xA;&#x9;&#x9;c1.847,0.02,3.722-0.135,5.455,0.621c0.221,0.076,0.439,0.178,0.649,0.327c1.297,0.087,2.594,0.175,3.89,0.262&#xD;&#xA;&#x9;&#x9;c2.139-0.103,4.276-0.196,6.312,0.674c0.004,0.002,0.008,0.003,0.012,0.004c6.521,0.019,13.042,0.038,19.563,0.057&#xD;&#xA;&#x9;&#x9;c2.633-1.051,5.39-0.767,8.121-0.755c20.433-1.733,39.503-7.471,56.049-19.945c20.025-15.097,33.804-34.452,39.145-59.307&#xD;&#xA;&#x9;&#x9;c-0.042-1.75-0.193-3.515,0.742-5.122c0.007-1.906,0.014-3.812,0.021-5.718c-0.002-0.004-0.003-0.008-0.005-0.012&#xD;&#xA;&#x9;&#x9;c-1.031-1.921-0.688-4.021-0.789-6.063c-2.985-13.159-11.259-21.03-24.215-24.221c-4.297-0.022-8.595-0.045-12.893-0.067&#xD;&#xA;&#x9;&#x9;c-11.394,1.767-18.457,8.788-24.082,18.446c-4.754,8.162-7.63,17.365-13.763,24.731c-9.155,10.997-20.033,18.869-35.056,19.129&#xD;&#xA;&#x9;&#x9;c-3.132,0.971-6.267,0.921-9.404,0.026c-20.185,0.35-41.333-17.411-46.051-37.947c-0.551-0.214-0.723-0.604-0.536-1.159&#xD;&#xA;&#x9;&#x9;c-0.994-4.579-2.573-9.065-2.208-13.861c-0.001-0.002-0.001-0.004-0.003-0.007c-1.027-1.571-0.848-3.329-0.775-5.069&#xD;&#xA;&#x9;&#x9;c-0.072-1.646-0.144-3.293-0.216-4.939c-0.003-0.007-0.003-0.014-0.006-0.021c-1.051-2.601-0.848-5.317-0.733-8.026&#xD;&#xA;&#x9;&#x9;c-0.063-2.351-0.126-4.7-0.19-7.051c-0.025-2.296-0.05-4.592-0.076-6.888c-1.008-2.832-0.742-5.742-0.613-8.634&#xD;&#xA;&#x9;&#x9;c-0.011-1.457,0.003-2.915,0.036-4.373c-0.087-10.998-0.045-21.998-0.005-32.997c0.006-1.784-0.45-3.647,0.544-5.345v-0.001&#xD;&#xA;&#x9;&#x9;c0.093-4.602,0.187-9.203,0.28-13.805c-0.042-2.752-0.384-5.531,0.719-8.184c0-0.001,0-0.003,0.001-0.004&#xD;&#xA;&#x9;&#x9;c-0.305-11.405,1.561-22.626,6.302-32.823c7.768-16.705,20.765-27.438,39.594-30.011C114.65,61.908,116.429,62.102,118.197,62.222z&#xD;&#xA;&#x9;&#x9;"/>
    <path fill="#ED8323" d="M467.246,7.852c-0.776,0.153-1.55,0.292-2.165-0.409c0,0-0.001,0-0.001-0.001&#xD;&#xA;&#x9;&#x9;c-1.299-0.205-2.596-0.411-3.895-0.616c-55.634-0.027-111.267-0.055-166.9-0.081c-6.954,1.102-13.993,2.334-19.365,7.254&#xD;&#xA;&#x9;&#x9;c-6.077,5.564-9.545,12.629-9.877,21.028c0.005,92.653,0.01,185.306,0.015,277.958c1.255,16.96,11.617,26.621,25.29,28.641&#xD;&#xA;&#x9;&#x9;c21.507,3.176,38.651-8.122,39.887-31.728c0.034-0.658,0.167-1.312,0.254-1.968c-0.047-33.396-0.096-66.791-0.125-100.187&#xD;&#xA;&#x9;&#x9;c-0.001-0.924-0.341-2.036,0.861-2.593v0.001c0.652-0.107,1.305-0.309,1.956-0.309c33.932,0.015,67.862,0.047,101.793,0.076&#xD;&#xA;&#x9;&#x9;c1.99-0.924,4.108-0.73,6.207-0.715c5.025-1.08,9.797-2.669,13.656-6.312c9.42-8.891,11.391-19.925,8.071-31.766&#xD;&#xA;&#x9;&#x9;c-3.404-12.146-12.534-17.972-24.744-19.38c-34.715-0.031-69.429-0.062-104.143-0.1c-0.976-0.001-2.008,0.16-2.815-0.628&#xD;&#xA;&#x9;&#x9;c-0.001,0-0.002,0.001-0.002,0.001c-1.276-0.777-0.836-2.062-0.837-3.144c-0.025-24.883-0.026-49.765,0.008-74.646&#xD;&#xA;&#x9;&#x9;c0.002-1.052-0.558-2.371,0.851-3.079c0.818-0.106,1.638-0.306,2.457-0.306c41.741,0.009,83.482,0.034,125.224,0.058&#xD;&#xA;&#x9;&#x9;c0.004-0.002,0.009-0.003,0.013-0.005c1.672-0.844,3.468-0.762,5.262-0.693c12.078-2.711,19.853-9.73,22.209-22.177&#xD;&#xA;&#x9;&#x9;c1.017-4.35,0.743-8.7,0.002-13.05C484.188,18.149,477.566,11.324,467.246,7.852z"/>
    <path fill="#1E6C92" d="M1165.409,351.964c0.139-0.158,0.204-0.349,0.246-0.55C1165.573,351.597,1165.491,351.78,1165.409,351.964z&#xD;&#xA;&#x9;&#x9;"/>
    <path fill="#1E6C92" d="M1130.067,426.013c18.505-14.418,28.681-33.639,33.154-56.272c0.383-1.936,0.807-3.862,1.211-5.794&#xD;&#xA;&#x9;&#x9;c-0.035-1.711-0.213-3.444,0.764-5.002c0.07-2.327,0.142-4.654,0.213-6.98c0.019-75.303,0.037-150.604,0.055-225.906&#xD;&#xA;&#x9;&#x9;c-1.154-10.902-4.717-15.461-14.323-18.33c-2.292,0.036-4.584,0.073-6.876,0.109c-9.629,2.824-12.166,6.122-13.253,17.226&#xD;&#xA;&#x9;&#x9;c0.023,2.893,0.166,5.79,0.033,8.676c-0.111,2.429-1.053,1.168-1.806,0.258c-14.19-17.511-32.867-25.948-55.081-27.23&#xD;&#xA;&#x9;&#x9;c-4.621-0.013-9.242-0.024-13.863-0.036c-14.933,1.593-29.379,4.524-42.321,12.917c-12.566,8.146-19.967,20.099-25.668,33.337&#xD;&#xA;&#x9;&#x9;c-4.106,9.533-7.309,19.396-8.07,29.884c-0.053,0.735-0.771,1.423-1.18,2.132c0.051,1.335,0.102,2.669,0.153,4.004&#xD;&#xA;&#x9;&#x9;c-0.058,1.017-0.114,2.033-0.171,3.05c0.021,2.04,0.249,4.106-0.787,6.007c-0.071,2.332-0.144,4.663-0.215,6.994&#xD;&#xA;&#x9;&#x9;c-0.027,11.626-0.054,23.252-0.08,34.877c0.104,2.654,0.21,5.308,0.315,7.961c0.937,1.584,0.796,3.314,0.683,5.041&#xD;&#xA;&#x9;&#x9;c0.085,1.357,0.171,2.714,0.256,4.07c-0.051,1.001-0.102,2.002-0.153,3.004c2.361,4.449,2.226,9.508,3.27,14.256&#xD;&#xA;&#x9;&#x9;c3.65,16.591,10.093,31.897,22.073,43.971c10.498,10.58,23.931,16.662,38.594,19.495c6.294,1.216,12.616,1.829,18.939,1.875&#xD;&#xA;&#x9;&#x9;c1.131-0.181,2.271-0.275,3.442-0.097c0.146,0.022,0.29,0.034,0.437,0.056c5.648-0.169,11.293-0.788,16.914-1.854&#xD;&#xA;&#x9;&#x9;c16.289-3.087,29.732-11.271,40.497-23.868c0.757-0.887,1.516-1.773,2.307-2.629c0.213-0.229,0.549-0.346,0.91-0.563&#xD;&#xA;&#x9;&#x9;c1.292,1.22,0.626,2.8,0.592,4.141c-0.424,16.621,1.216,33.294-1.751,49.852c-4.846,27.043-21.349,44.69-47.11,49.891&#xD;&#xA;&#x9;&#x9;c-1.612,0.325-3.296,0.3-4.946,0.438c-19.188,2.701-37.024-0.432-52.732-12.412c-4.232-3.228-8.504-6.347-13.304-8.683&#xD;&#xA;&#x9;&#x9;c-2.63-0.045-5.26-0.092-7.889-0.138c-10.733,1.54-13.794,16.092-8.88,23.021c7.188,10.133,17.421,16.149,28.271,21.114&#xD;&#xA;&#x9;&#x9;c9.941,4.55,20.563,7.037,31.593,7.341c8.288,0.021,16.577,0.043,24.865,0.064C1097.901,443.561,1115.047,437.717,1130.067,426.013&#xD;&#xA;&#x9;&#x9;z M1125.231,270.215c-7.796,26.736-27.751,39.795-55.614,38.133c-30.854-1.841-44.085-19.997-48.995-41.697&#xD;&#xA;&#x9;&#x9;c-6.771-29.92-7.047-60.204,0.802-89.968c10.042-38.078,57.586-52.927,87.589-27.809c10.753,9.002,15.347,21.457,18.191,34.687&#xD;&#xA;&#x9;&#x9;c2.814,13.087,3.444,26.368,3.134,39.136C1130.621,239.135,1129.704,254.876,1125.231,270.215z"/>
    <path fill="#1E6C92" d="M545.219,5.84c0.002-0.001,0.003-0.001,0.005-0.001c0.323,0,0.647,0.002,0.971,0.002&#xD;&#xA;&#x9;&#x9;c-0.323-0.01-0.646-0.021-0.971-0.031c0,0.009,0,0.018,0,0.027C545.222,5.838,545.221,5.839,545.219,5.84z"/>
    <path fill="#1E6C92" d="M565.879,38.407c48.28-0.045,96.56-0.033,144.839-0.044c3.159,0,6.318-0.096,9.478-0.146&#xD;&#xA;&#x9;&#x9;c7.699-1.689,11.989-6.784,12.683-14.302c0.68-7.353-2.916-12.815-9.65-16.056c-0.668-0.289-1.336-0.578-2.004-0.866&#xD;&#xA;&#x9;&#x9;c-0.684-0.067-1.367-0.134-2.052-0.201C667.697,6.74,616.224,6.68,564.749,6.645c-8.825-0.006-17.65,0.097-26.476,0.149&#xD;&#xA;&#x9;&#x9;c-10.364,2.689-12.847,5.52-14.267,16.271c0.026,81.295,0.062,162.59,0.073,243.885c0.002,18.656-0.085,37.312-0.131,55.968&#xD;&#xA;&#x9;&#x9;c0,0-0.001,0-0.001-0.001c0,0.001,0.001,0.002,0.001,0.002c0.215,7.582,2.977,13.432,10.636,16.188&#xD;&#xA;&#x9;&#x9;c3.498,1.259,7.118,0.479,10.639,1.062c32.236-0.055,64.473-0.146,96.709-0.154c22.764-0.006,45.527,0.1,68.291,0.155&#xD;&#xA;&#x9;&#x9;c2.982-0.128,5.996-0.028,8.943-0.423c14.173-1.893,17.748-18.496,9.24-27c-0.462-0.462-0.835-1.013-1.25-1.522&#xD;&#xA;&#x9;&#x9;c-1.301-0.737-2.602-1.475-3.902-2.214c-0.005-0.002-0.01-0.004-0.015-0.007c-4.339-0.39-8.678-0.778-13.017-1.168&#xD;&#xA;&#x9;&#x9;c-11.291,0.056-22.583,0.166-33.874,0.157c-35.709-0.028-71.417-0.102-107.125-0.156c-0.001,0-0.002,0-0.003-0.001&#xD;&#xA;&#x9;&#x9;c-0.822,0.055-1.643,0.147-2.465,0.157c-6.739,0.083-6.739,0.078-6.366-6.991c-0.056-35.817-0.017-71.635-0.283-107.451&#xD;&#xA;&#x9;&#x9;c-0.034-4.659,1.295-5.664,5.755-5.648c41.15,0.142,82.303-0.03,123.453,0.06c9.385,0.02,15.245-4.228,18.082-12.999&#xD;&#xA;&#x9;&#x9;c0.013-1.97,0.026-3.938,0.04-5.908c-2.523-10.088-9.91-13.124-19.274-13.29c-41.695,0.03-83.392,0.064-125.087,0.078&#xD;&#xA;&#x9;&#x9;c-0.922,0.001-2.035,0.359-2.596-0.846c-0.085-0.988-0.244-1.977-0.244-2.964c-0.014-36.528-0.015-73.057,0.003-109.584&#xD;&#xA;&#x9;&#x9;c0.001-1.146,0.23-2.29,0.354-3.436C562.225,37.725,564.125,38.408,565.879,38.407z"/>
    <path fill="#1E6C92" d="M1558.579,233.406c41.561-0.038,83.121-0.022,124.68-0.049c4.648-0.003,9.299-0.195,13.947-0.3&#xD;&#xA;&#x9;&#x9;c9.279-3.6,10.635-11.574,11.072-20.055c0-1.333,0-2.667,0-4c-0.033-0.967-0.064-1.935-0.098-2.901&#xD;&#xA;&#x9;&#x9;c-0.024-0.052-0.033-0.105-0.056-0.157c-0.91-2.223-0.697-4.558-0.653-6.876c-2.299-19.58-7.719-38.12-18.32-54.931&#xD;&#xA;&#x9;&#x9;c-1.02-1.361-2.037-2.724-3.057-4.085c-7.43-8.733-15.734-16.382-25.855-22.01c-12.188-6.774-25.406-9.689-39.062-11.209&#xD;&#xA;&#x9;&#x9;c-4.969-0.016-9.936-0.031-14.904-0.048c-14.367,1.264-28.133,4.493-40.906,11.569c-12.291,6.809-21.436,16.667-28.783,28.388&#xD;&#xA;&#x9;&#x9;c-9.053,14.441-13.678,30.392-16.381,47.1c-0.607,3.76-0.318,7.553-1.225,11.233c0.02,2.357,0.309,4.742-0.727,6.989&#xD;&#xA;&#x9;&#x9;c-0.064,4.312-0.129,8.625-0.193,12.938c0,1.665,0,3.331,0,4.997c0.064,2.647,0.129,5.294,0.191,7.941&#xD;&#xA;&#x9;&#x9;c1.027,2.251,0.758,4.637,0.732,6.998c0.068,1.354,0.137,2.708,0.205,4.062c-0.043,1.344-0.088,2.688-0.131,4.032&#xD;&#xA;&#x9;&#x9;c2.398,6.061,2.498,12.645,4.342,18.849c3.344,11.247,6.982,22.335,13.873,32.033c0.998,0.807,1.945,1.646,1.863,3.102&#xD;&#xA;&#x9;&#x9;c7.703,10.126,16.584,18.854,28.146,24.628c7.012,3.502,14.303,6.138,21.857,8.067c1.191,0.305,2.08,0.891,3.059,1.455&#xD;&#xA;&#x9;&#x9;c0.342-0.021,0.686-0.042,1.027-0.063c3.676,0.368,7.354,0.737,11.031,1.106c2.103-0.067,4.207-0.144,6.207,0.702&#xD;&#xA;&#x9;&#x9;c0.004,0.001,0.007,0.002,0.01,0.003c5.881,0.015,11.764,0.028,17.646,0.042c0.3-0.151,0.604-0.257,0.912-0.336&#xD;&#xA;&#x9;&#x9;c1.999-0.606,4.084-0.419,6.146-0.43c1.682-0.324,3.363-0.582,5.049-0.023c4.4-1.091,8.801-2.177,13.199-3.273&#xD;&#xA;&#x9;&#x9;c16.721-4.168,30.99-12.458,42.621-25.235c2.061-2.264,3.209-4.979,4.375-7.718c-0.014-1.967-0.029-3.934-0.043-5.9&#xD;&#xA;&#x9;&#x9;c-2.561-5.769-6.023-10.33-12.914-11.39c-4.143-0.638-7.625,0.461-11.047,2.447c-0.748,0.558-1.496,1.114-2.244,1.672&#xD;&#xA;&#x9;&#x9;c-4.273,3.174-8.547,6.348-12.82,9.521c0,0,0,0-0.001-0.001c-0.661,0.417-1.323,0.833-1.984,1.249&#xD;&#xA;&#x9;&#x9;c-0.045,0.043-0.094,0.078-0.153,0.097c-7.055,3.244-13.984,6.845-21.896,7.615c-1.512,1.356-3.34,0.637-5.039,0.775&#xD;&#xA;&#x9;&#x9;c-1.551,1.011-3.264,0.871-4.982,0.7c-4.377,0.461-8.754,0.408-13.133,0.033c-1.734,0.142-3.463,0.241-5.041-0.718&#xD;&#xA;&#x9;&#x9;c-12.418-0.66-23.383-5.173-32.635-13.309c-16.393-14.413-22.623-33.351-23.326-54.563c-0.725-3.387-1.676-6.775,0.055-10.148&#xD;&#xA;&#x9;&#x9;l0.039-0.023C1554.919,232.839,1556.806,233.408,1558.579,233.406z M1552.513,202.603c1.324-16.336,4.363-32.152,14.863-45.298&#xD;&#xA;&#x9;&#x9;c13.799-17.277,32.545-23.319,53.854-20.79c22.039,2.616,37.902,14.282,46.408,35.24c4.057,9.994,5.775,20.423,6.572,31.107&#xD;&#xA;&#x9;&#x9;c0.273,3.674-0.594,4.894-4.496,4.852c-18.826-0.202-37.656-0.091-56.484-0.091c-18.66-0.001-37.322-0.101-55.982,0.079&#xD;&#xA;&#x9;&#x9;C1553.257,207.74,1552.183,206.665,1552.513,202.603z"/>
    <path fill="#1E6C92" d="M939.966,338.92c4.12-2.914,4.812-7.06,6.5-10.987c0.076-2.072-0.197-4.183,0.673-6.168&#xD;&#xA;&#x9;&#x9;c0.047-1.588,0.093-3.175,0.14-4.762c-0.068-19.089-0.193-38.179-0.189-57.268c0.004-22.244,0.121-44.488,0.189-66.732&#xD;&#xA;&#x9;&#x9;c-0.027-0.979-0.055-1.959-0.082-2.939c-0.106-0.301-0.186-0.604-0.254-0.908c-0.755-2.99-0.4-6.068-0.531-9.108&#xD;&#xA;&#x9;&#x9;c-2.538-20.575-9.426-39.146-25.225-53.407c-11.989-10.823-26.247-16.732-42.227-18.647c-2.941-0.353-5.87-0.814-8.805-1.226&#xD;&#xA;&#x9;&#x9;c-4.287-0.012-8.573-0.022-12.859-0.034c-15.728,1.426-30.656,5.267-43.884,14.361c-3.659,2.516-7.222,5.075-10.123,8.526&#xD;&#xA;&#x9;&#x9;c-1.067,1.269-1.913,3.192-4.102,3.147l0,0v0.001c-0.001-0.005-0.002-0.009-0.003-0.014c-0.099-0.317-0.174-0.637-0.239-0.956&#xD;&#xA;&#x9;&#x9;c-0.814-3.545-0.287-7.184-0.591-10.764c-2.022-6.778-6.411-11.2-13.19-13.239c-2.293-0.011-4.587-0.021-6.88-0.032&#xD;&#xA;&#x9;&#x9;c-9.68,2.32-13.751,7.384-13.924,17.259c-0.023,1.328-0.198,2.654-0.303,3.981c0.055,1.991,0.158,3.982,0.159,5.974&#xD;&#xA;&#x9;&#x9;c0.009,51.369,0.015,102.738-0.001,154.106c-0.002,9.306-0.104,18.612-0.158,27.918c0.105,2.327,0.272,4.653,0.305,6.981&#xD;&#xA;&#x9;&#x9;c0.128,9.09,5.138,16.528,12.157,17.979c9.556,1.974,17.8-2.863,21.364-12.538c0.173-0.469,0.322-0.945,0.482-1.419&#xD;&#xA;&#x9;&#x9;c0.031-0.354,0.063-0.708,0.095-1.062c0.043-42.41,0.078-84.821,0.152-127.232c0.003-1.955-0.481-3.991,0.542-5.866&#xD;&#xA;&#x9;&#x9;c0.002-0.003,0.002-0.006,0.004-0.009c-0.154-0.293-0.13-0.57,0.073-0.832c-0.054-31.396,20.068-54.126,50.831-55.064&#xD;&#xA;&#x9;&#x9;c0.006-0.001,0.011-0.002,0.017-0.002c4.104-0.969,8.207-0.956,12.312,0.001c23.26,1.558,42.684,14.87,47.986,42.298&#xD;&#xA;&#x9;&#x9;c0.304,1.571,1.478,3.028,0.855,4.768c0.033,1.651,0.067,3.303,0.102,4.954c1.814,3.562,0.867,7.333,0.834,11.035&#xD;&#xA;&#x9;&#x9;c0.068,10.455,0.203,20.911,0.191,31.366c-0.03,28.886-0.122,57.771-0.19,86.657c0.688,4.327-0.236,8.713,1.689,13.067&#xD;&#xA;&#x9;&#x9;C918.172,341.835,931.181,345.133,939.966,338.92z"/>
    <path fill="#1E6C92" d="M1484.163,189.162c-0.154-0.416-0.254-0.837-0.326-1.259c-0.549-2.585-0.361-5.231-0.43-7.856&#xD;&#xA;&#x9;&#x9;c-1.541-12.219-4.805-23.936-10.189-35.036c-1.051-1.648-2.104-3.297-3.154-4.945c-5.545-7.73-12.14-14.416-19.88-19.96v-0.001&#xD;&#xA;&#x9;&#x9;c-1.637-1.038-3.272-2.077-4.908-3.116c-12.001-6.043-24.825-9.022-38.124-10.236c-0.001-0.001-0.002-0.001-0.002-0.001&#xD;&#xA;&#x9;&#x9;c0,0.001,0.001,0.001,0.002,0.002c-4.629,0.026-9.259,0.054-13.889,0.081c-12.652,1.092-24.798,3.975-36.001,10.188&#xD;&#xA;&#x9;&#x9;c-1.159,1.032-2.266,2.172-4.031,1.948c-6.518,3.566-10.97,9.686-17.044,13.799v0.001c-1.246-3.501-0.315-7.147-0.722-10.705&#xD;&#xA;&#x9;&#x9;c-1.655-7.347-5.931-12.252-13.303-14.27c-2.292-0.012-4.584-0.023-6.876-0.035c-8.845,1.523-13.047,5.642-13.882,17.266&#xD;&#xA;&#x9;&#x9;c-0.286,3.98-0.241,7.984-0.347,11.979c0.055,1.991,0.158,3.982,0.159,5.974c0.009,45.877,0.019,91.755-0.001,137.632&#xD;&#xA;&#x9;&#x9;c-0.005,12.131-0.104,24.262-0.158,36.393c0.187,3.952-0.15,8.017,0.669,11.832c1.693,7.891,6.782,12.384,13.713,13.024&#xD;&#xA;&#x9;&#x9;c9.41,0.871,15.072-2.364,18.952-10.828c0.369-1.371,0.738-2.743,1.107-4.114c0.032-42.377,0.057-84.755,0.123-127.132&#xD;&#xA;&#x9;&#x9;c0.004-1.946-0.557-3.99,0.576-5.842c-0.224-15.426,4.091-29.241,14.756-40.68c7.412-7.947,16.688-12.579,27.366-14.272&#xD;&#xA;&#x9;&#x9;c2.884-0.458,5.719-1.66,8.741-1.047c0.001,0,0.002,0,0.004-0.001c4.104-0.966,8.21-0.949,12.315,0.001&#xD;&#xA;&#x9;&#x9;c13.438,0.881,25.249,5.491,34.841,15.193c1.508,0.417,2.195,1.621,2.789,2.915c5.795,7.885,9.404,16.701,10.901,26.339&#xD;&#xA;&#x9;&#x9;c0.647,4.169,0.853,8.406,1.259,12.612c-0.001,0.337-0.002,0.674-0.002,1.011c0,1.326,0,2.652,0,3.979&#xD;&#xA;&#x9;&#x9;c0.068,15.104,0.199,30.207,0.19,45.311c-0.016,24.567-0.122,49.134-0.19,73.701c0.049,1.917,0.099,3.835,0.147,5.752&#xD;&#xA;&#x9;&#x9;c0.104,0.172,0.174,0.35,0.222,0.531c0.483,1.173,0.58,2.412,0.49,3.683c2.591,8.979,6.782,12.392,14.871,12.991&#xD;&#xA;&#x9;&#x9;c7.398,0.549,15.75-3.429,17.658-11.775c0.18-0.786,0.623-1.514,0.943-2.268c0.001-0.002,0.001-0.004,0.002-0.006&#xD;&#xA;&#x9;&#x9;c-0.002,0.002-0.002,0.004-0.004,0.006c0.08-2.01-0.311-4.074,0.695-5.976c0.027-1.313,0.057-2.626,0.084-3.939&#xD;&#xA;&#x9;&#x9;c-0.068-17.596-0.197-35.191-0.191-52.787c0.01-24.071,0.123-48.143,0.191-72.214&#xD;&#xA;&#x9;&#x9;C1484.239,191.722,1484.2,190.442,1484.163,189.162z"/>
    <path fill="#1E6C92" d="M1250.238,321.426c-0.041-1.472,0.097-2.948,0.151-4.422c-0.055-1.992-0.158-3.983-0.159-5.975&#xD;&#xA;&#x9;&#x9;c-0.009-51.369-0.015-102.738,0.001-154.107c0.003-9.306,0.104-18.612,0.158-27.918c-0.113-4.281-0.401-8.491-2.336-12.472&#xD;&#xA;&#x9;&#x9;c-2.271-4.676-6.238-7.047-10.871-8.668c-2.639-0.009-5.277-0.018-7.917-0.027c-8.855,1.771-12.812,7.557-13.279,16.203&#xD;&#xA;&#x9;&#x9;c0.032,64.313,0.064,128.627,0.094,192.94c0.001,2.998-0.028,5.996-0.044,8.994c0.454,9.709,6.124,17.156,20.189,16.016&#xD;&#xA;&#x9;&#x9;c0.625-0.137,1.248-0.273,1.873-0.41C1247.312,337.973,1250.496,330.747,1250.238,321.426z"/>
    <path fill="#1E6C92" d="M1238.022,46.062c0.035-0.115,0.089-0.23,0.167-0.347c9.103-3.608,15.024-10,17.181-19.675&#xD;&#xA;&#x9;&#x9;c0.7-1.775,0.632-3.539-0.089-5.295c-2.101-10.108-7.969-16.788-18.12-19.084c-12.102-2.738-22.866,4.575-26.062,17.355&#xD;&#xA;&#x9;&#x9;c-0.787,2.577-0.779,5.161-0.064,7.751c1.402,10.219,7.929,15.788,17.15,18.92c0.109,0.142,0.171,0.284,0.211,0.427&#xD;&#xA;&#x9;&#x9;C1231.596,43.77,1234.806,43.804,1238.022,46.062z"/>
    <path fill="#1E6C92" d="M1228.185,45.688c-9.222-3.132-15.748-8.701-17.15-18.92c-0.715-2.59-0.723-5.174,0.064-7.751&#xD;&#xA;&#x9;&#x9;c3.196-12.78,13.961-20.094,26.062-17.355c10.151,2.296,16.02,8.976,18.12,19.084c0.721,1.756,0.789,3.52,0.089,5.295&#xD;&#xA;&#x9;&#x9;c-2.156,9.675-8.078,16.066-17.181,19.675c-0.078,0.116-0.132,0.231-0.167,0.347c0.068,0.047,0.136,0.09,0.203,0.139&#xD;&#xA;&#x9;&#x9;c10.447-2.806,16.029-9.982,18.182-20.239c0.021-1.632,0.042-3.264,0.062-4.896c-0.405-1.425-0.836-2.844-1.212-4.276&#xD;&#xA;&#x9;&#x9;c-2.731-10.417-12.711-17.511-23.993-16.73c-11.51,0.796-19.361,7.754-21.22,18.988c-0.032,2.627-0.065,5.254-0.098,7.88&#xD;&#xA;&#x9;&#x9;c2.14,11.471,8.318,17.329,18.274,19.311c0.058-0.044,0.115-0.081,0.174-0.123C1228.355,45.972,1228.294,45.829,1228.185,45.688z"/>
    <path fill="#1E6C92" d="M1228.396,46.114c0.012,0.041,0.02,0.082,0.025,0.122c3.193-0.012,6.387-0.024,9.58-0.035&#xD;&#xA;&#x9;&#x9;c0.008-0.047,0.008-0.093,0.021-0.14C1234.806,43.804,1231.596,43.77,1228.396,46.114z"/>
    <path fill="#1E6C92" d="M1228.396,46.114c-0.059,0.042-0.116,0.079-0.174,0.123c0.066,0,0.133,0,0.199-0.001&#xD;&#xA;&#x9;&#x9;C1228.415,46.196,1228.407,46.155,1228.396,46.114z"/>
    <path fill="#1E6C92" d="M1238.001,46.201c0.075-0.001,0.149-0.001,0.225-0.001c-0.067-0.049-0.135-0.092-0.203-0.139&#xD;&#xA;&#x9;&#x9;C1238.009,46.108,1238.009,46.154,1238.001,46.201z"/>
  </g>
</svg>