<svg xmlns="http://www.w3.org/2000/svg" role="img" viewBox="727.91 253.66 369.42 446.42"><defs><clipPath id="a" clipPathUnits="userSpaceOnUse"><path d="M571.269 456.75c0-63.237 51.263-114.5 114.499-114.5 53.398 0 98.256 36.553 110.924 86h-57.553c-10.189-19.042-30.264-32-53.371-32-33.413 0-60.499 27.087-60.499 60.5s27.086 60.5 60.499 60.5c25.079 0 46.593-15.26 55.765-37h56.317c-10.841 51.963-56.9 91-112.082 91-63.236 0-114.499-51.263-114.499-114.5"/></clipPath><clipPath id="c" clipPathUnits="userSpaceOnUse"><path d="M625.269 455.75c0-57.765 49.765-100.411 111.632-101.475 29.328 14.664 51.483 41.545 59.791 73.975h-57.553c-10.189-19.042-30.264-32-53.371-32-33.291 0-60.294 26.892-60.49 60.137-.002-.212-.009-.424-.009-.637"/></clipPath><clipPath id="e" clipPathUnits="userSpaceOnUse"><path d="M0 768h1366V0H0z"/></clipPath><clipPath id="f" clipPathUnits="userSpaceOnUse"><path d="M625.302 458.513h.011v-.449h-.011z"/></clipPath><clipPath id="g" clipPathUnits="userSpaceOnUse"><path d="M625.313 458.513l-.011-.449.011.449"/></clipPath><clipPath id="i" clipPathUnits="userSpaceOnUse"><path d="M650.04 407.936c-.123.09-.251.173-.372.264.121-.091.249-.174.372-.264"/></clipPath><clipPath id="k" clipPathUnits="userSpaceOnUse"><path d="M652.51 406.219c-.158.104-.321.2-.479.306.158-.106.321-.202.479-.306"/></clipPath><clipPath id="m" clipPathUnits="userSpaceOnUse"><path d="M657.706 403.155c-.234.122-.472.235-.702.36.23-.125.468-.238.702-.36"/></clipPath><clipPath id="o" clipPathUnits="userSpaceOnUse"><path d="M655.06 404.627c-.192.114-.391.219-.582.335.191-.116.39-.221.582-.335"/></clipPath><clipPath id="q" clipPathUnits="userSpaceOnUse"><path d="M660.441 401.809c-.279.128-.563.245-.838.378.275-.133.559-.25.838-.378"/></clipPath><clipPath id="s" clipPathUnits="userSpaceOnUse"><path d="M643.191 413.777l-.083.079.083-.079"/></clipPath><clipPath id="u" clipPathUnits="userSpaceOnUse"><path d="M647.655 409.774c-.087.071-.178.137-.265.208.087-.071.178-.137.265-.208"/></clipPath><clipPath id="w" clipPathUnits="userSpaceOnUse"><path d="M641.128 415.922l-.018.019.018-.019"/></clipPath><clipPath id="y" clipPathUnits="userSpaceOnUse"><path d="M645.373 411.721c-.056.051-.114.097-.171.148.057-.051.115-.097.171-.148"/></clipPath><clipPath id="A" clipPathUnits="userSpaceOnUse"><path d="M681.582 396.41c-.664.046-1.331.085-1.988.152.657-.067 1.324-.106 1.988-.152"/></clipPath><clipPath id="C" clipPathUnits="userSpaceOnUse"><path d="M591.268 410.25c0-8.303 1.381-16.157 3.921-23.538 20.943-27.046 53.725-44.462 90.579-44.462 18.379 0 35.746 4.331 51.138 12.027l-.005-.002c-61.867 1.064-111.632 43.71-111.632 101.475 0 .213.007.425.009.637-.001.122-.009.242-.009.363 0 30.181 22.1 55.193 50.999 59.752v.429c-49.74-8.49-85-50.973-85-106.681"/></clipPath><clipPath id="E" clipPathUnits="userSpaceOnUse"><path d="M663.242 400.601c-.322.129-.649.247-.968.381.319-.134.646-.252.968-.381"/></clipPath><clipPath id="G" clipPathUnits="userSpaceOnUse"><path d="M678.305 396.724c-.578.072-1.159.134-1.733.221.574-.087 1.155-.149 1.733-.221"/></clipPath><clipPath id="I" clipPathUnits="userSpaceOnUse"><path d="M675.093 397.208c-.498.089-.999.166-1.493.266.494-.1.995-.177 1.493-.266"/></clipPath><clipPath id="K" clipPathUnits="userSpaceOnUse"><path d="M666.125 399.529c-.37.127-.745.243-1.111.376.366-.133.741-.249 1.111-.376"/></clipPath><clipPath id="M" clipPathUnits="userSpaceOnUse"><path d="M672.047 397.832c-.455.106-.916.199-1.367.315.451-.116.912-.209 1.367-.315"/></clipPath><clipPath id="O" clipPathUnits="userSpaceOnUse"><path d="M669.079 398.601c-.42.12-.846.229-1.263.358.417-.129.843-.238 1.263-.358"/></clipPath><clipPath id="Q" clipPathUnits="userSpaceOnUse"><path d="M783.807 397.584c.166.274.327.55.49.824-.163-.274-.324-.55-.49-.824"/></clipPath><clipPath id="S" clipPathUnits="userSpaceOnUse"><path d="M781.209 393.491c.148.222.298.442.445.664-.147-.222-.297-.442-.445-.664"/></clipPath><clipPath id="U" clipPathUnits="userSpaceOnUse"><path d="M786.082 401.523c.108.197.221.392.329.589-.108-.197-.221-.392-.329-.589"/></clipPath><clipPath id="W" clipPathUnits="userSpaceOnUse"><path d="M788.295 405.738c.147.294.289.591.434.887-.145-.296-.287-.593-.434-.887"/></clipPath><clipPath id="Y" clipPathUnits="userSpaceOnUse"><path d="M790.313 410.004c.07.156.143.309.213.464-.07-.155-.143-.308-.213-.464"/></clipPath><clipPath id="aa" clipPathUnits="userSpaceOnUse"><path d="M769.677 378.86c.224.24.448.476.669.719-.221-.241-.445-.479-.669-.719"/></clipPath><clipPath id="ac" clipPathUnits="userSpaceOnUse"><path d="M772.99 382.577c.19.223.375.449.564.674-.189-.225-.374-.451-.564-.674"/></clipPath><clipPath id="ae" clipPathUnits="userSpaceOnUse"><path d="M775.731 385.93c.184.234.371.466.554.702-.183-.236-.37-.468-.554-.702"/></clipPath><clipPath id="ag" clipPathUnits="userSpaceOnUse"><path d="M778.694 389.852c.181.25.356.503.534.754-.178-.251-.353-.504-.534-.754"/></clipPath><clipPath id="ai" clipPathUnits="userSpaceOnUse"><path d="M752.687 363.835c.157.112.309.229.464.343-.155-.114-.307-.231-.464-.343"/></clipPath><clipPath id="ak" clipPathUnits="userSpaceOnUse"><path d="M748.465 360.939c.311.204.621.407.931.614-.31-.207-.62-.41-.931-.614"/></clipPath><clipPath id="am" clipPathUnits="userSpaceOnUse"><path d="M759.952 369.535c.182.154.36.314.54.47-.18-.156-.358-.316-.54-.47"/></clipPath><clipPath id="ao" clipPathUnits="userSpaceOnUse"><path d="M744.97 358.725c.109.066.216.136.324.203-.108-.067-.215-.137-.324-.203"/></clipPath><clipPath id="aq" clipPathUnits="userSpaceOnUse"><path d="M763.096 372.322c.255.233.511.465.764.7-.253-.235-.509-.466-.764-.7"/></clipPath><clipPath id="as" clipPathUnits="userSpaceOnUse"><path d="M793.861 418.91c.033.096.069.188.103.284-.034-.096-.07-.188-.103-.284"/></clipPath><clipPath id="au" clipPathUnits="userSpaceOnUse"><path d="M766.732 375.794c.19.19.377.385.566.577-.189-.192-.376-.387-.566-.577"/></clipPath><clipPath id="aw" clipPathUnits="userSpaceOnUse"><path d="M692.563 483.55c-2.9-1.467-5.073-3.482-6.517-6.044-1.446-2.564-2.168-5.287-2.168-8.17 0-4.386 1.412-7.995 4.235-10.827 2.801-2.83 7.488-5.101 14.061-6.809 4.014-1.02 6.572-2.104 7.675-3.252 1.102-1.148 1.654-2.449 1.654-3.903 0-1.53-.58-2.875-1.738-4.036-1.156-1.161-2.806-1.74-4.944-1.74-2.868 0-5.074 1.134-6.618 3.405-.948 1.402-1.576 3.443-1.886 6.12l-14.258-1.033c.419-5.662 2.216-10.329 5.392-14.002 3.177-3.673 8.889-5.509 17.137-5.509 4.698 0 8.591.784 11.679 2.353 3.088 1.569 5.492 3.871 7.212 6.905 1.72 3.036 2.581 6.352 2.581 9.948 0 3.06-.646 5.828-1.936 8.302-1.29 2.474-3.353 4.547-6.187 6.217s-7.526 3.322-14.077 4.955c-2.646.637-4.321 1.326-5.028 2.066-.727.714-1.092 1.517-1.092 2.41 0 1.224.441 2.264 1.323 3.118.883.854 2.195 1.281 3.937 1.281 2.118 0 3.777-.574 4.98-1.721 1.202-1.148 1.989-2.985 2.365-5.509l14.125.956c-.616 5.815-2.552 10.055-5.805 12.721-3.253 2.666-7.978 3.998-14.176 3.998-5.05 0-9.026-.734-11.926-2.2"/></clipPath><clipPath id="ay" clipPathUnits="userSpaceOnUse"><path d="M649.059 484.75v-56h15.031v22.882h20.789v6.535c-1.1 1.327-2.032 2.953-2.701 4.771H664.09v9.779h17.315c.991 4.963 4.019 9.183 7.978 12.033z"/></clipPath><clipPath id="aA" clipPathUnits="userSpaceOnUse"><path d="M0 768h1366V0H0z"/></clipPath><linearGradient id="b" x1="0" x2="1" y1="0" y2="0" gradientTransform="scale(228.97853 -228.97853) rotate(-10 -9.652 -15.255)" gradientUnits="userSpaceOnUse" spreadMethod="pad"><stop offset="0" stop-color="#3f8dbb"/><stop offset="1" stop-color="#0f578b"/></linearGradient><linearGradient id="d" x1="0" x2="1" y1="0" y2="0" gradientTransform="scale(-153.74255 153.74255) rotate(-24 4.36 13.498)" gradientUnits="userSpaceOnUse" spreadMethod="pad"><stop offset="0" stop-color="#3282b4"/><stop offset="1" stop-color="#0f578b"/></linearGradient><linearGradient id="h" x1="0" x2="1" y1="0" y2="0" gradientTransform="matrix(-.23 -.23 -.23 .23 625.413 458.397)" gradientUnits="userSpaceOnUse" spreadMethod="pad"><stop offset="0" stop-color="#3f8dbb"/><stop offset="1" stop-color="#0f578b"/></linearGradient><linearGradient id="j" x1="0" x2="1" y1="0" y2="0" gradientTransform="matrix(-.3937 .2273 .2273 .3937 650.05 407.954)" gradientUnits="userSpaceOnUse" spreadMethod="pad"><stop offset="0" stop-color="#4798c7"/><stop offset="1" stop-color="#0a5183"/></linearGradient><linearGradient id="l" x1="0" x2="1" y1="0" y2="0" gradientTransform="scale(-.56748 .56748) rotate(30 -1910.7 -1787.707)" gradientUnits="userSpaceOnUse" spreadMethod="pad"><stop offset="0" stop-color="#4798c7"/><stop offset="1" stop-color="#0a5183"/></linearGradient><linearGradient id="n" x1="0" x2="1" y1="0" y2="0" gradientTransform="scale(-.78816 .78816) rotate(30 -1371.692 -1301.395)" gradientUnits="userSpaceOnUse" spreadMethod="pad"><stop offset="0" stop-color="#4798c7"/><stop offset="1" stop-color="#0a5183"/></linearGradient><linearGradient id="p" x1="0" x2="1" y1="0" y2="0" gradientTransform="scale(-.67125 .67125) rotate(30 -1612.783 -1519.63)" gradientUnits="userSpaceOnUse" spreadMethod="pad"><stop offset="0" stop-color="#4798c7"/><stop offset="1" stop-color="#0a5183"/></linearGradient><linearGradient id="r" x1="0" x2="1" y1="0" y2="0" gradientTransform="matrix(-.79195 .45723 .45723 .79195 660.418 401.77)" gradientUnits="userSpaceOnUse" spreadMethod="pad"><stop offset="0" stop-color="#4798c7"/><stop offset="1" stop-color="#0a5183"/></linearGradient><linearGradient id="t" x1="0" x2="1" y1="0" y2="0" gradientTransform="matrix(-.0973 .05618 .05618 .0973 643.198 413.788)" gradientUnits="userSpaceOnUse" spreadMethod="pad"><stop offset="0" stop-color="#4798c7"/><stop offset="1" stop-color="#0a5183"/></linearGradient><linearGradient id="v" x1="0" x2="1" y1="0" y2="0" gradientTransform="matrix(-.2896 .1672 .1672 .2896 647.668 409.794)" gradientUnits="userSpaceOnUse" spreadMethod="pad"><stop offset="0" stop-color="#4798c7"/><stop offset="1" stop-color="#0a5183"/></linearGradient><linearGradient id="x" x1="0" x2="1" y1="0" y2="0" gradientTransform="matrix(-.02254 .01301 .01301 .02254 641.13 415.925)" gradientUnits="userSpaceOnUse" spreadMethod="pad"><stop offset="0" stop-color="#4798c7"/><stop offset="1" stop-color="#0a5183"/></linearGradient><linearGradient id="z" x1="0" x2="1" y1="0" y2="0" gradientTransform="matrix(-.19207 .1109 .1109 .19207 645.384 411.74)" gradientUnits="userSpaceOnUse" spreadMethod="pad"><stop offset="0" stop-color="#4798c7"/><stop offset="1" stop-color="#0a5183"/></linearGradient><linearGradient id="B" x1="0" x2="1" y1="0" y2="0" gradientTransform="scale(-1.7977 1.7977) rotate(30 -600.597 -597.11)" gradientUnits="userSpaceOnUse" spreadMethod="pad"><stop offset="0" stop-color="#4798c7"/><stop offset="1" stop-color="#0a5183"/></linearGradient><linearGradient id="D" x1="0" x2="1" y1="0" y2="0" gradientTransform="scale(-170.20129 170.20129) rotate(30 -6.374 -7.125)" gradientUnits="userSpaceOnUse" spreadMethod="pad"><stop offset="0" stop-color="#4798c7"/><stop offset="1" stop-color="#0a5183"/></linearGradient><linearGradient id="F" x1="0" x2="1" y1="0" y2="0" gradientTransform="matrix(-.89054 .51415 .51415 .89054 663.2 400.533)" gradientUnits="userSpaceOnUse" spreadMethod="pad"><stop offset="0" stop-color="#4798c7"/><stop offset="1" stop-color="#0a5183"/></linearGradient><linearGradient id="H" x1="0" x2="1" y1="0" y2="0" gradientTransform="scale(-1.6101 1.6101) rotate(30 -670.032 -662.817)" gradientUnits="userSpaceOnUse" spreadMethod="pad"><stop offset="0" stop-color="#4798c7"/><stop offset="1" stop-color="#0a5183"/></linearGradient><linearGradient id="J" x1="0" x2="1" y1="0" y2="0" gradientTransform="scale(-1.42498 1.42498) rotate(30 -756.691 -744.58)" gradientUnits="userSpaceOnUse" spreadMethod="pad"><stop offset="0" stop-color="#4798c7"/><stop offset="1" stop-color="#0a5183"/></linearGradient><linearGradient id="L" x1="0" x2="1" y1="0" y2="0" gradientTransform="matrix(-.99686 .57554 .57554 .99686 666.068 399.43)" gradientUnits="userSpaceOnUse" spreadMethod="pad"><stop offset="0" stop-color="#4798c7"/><stop offset="1" stop-color="#0a5183"/></linearGradient><linearGradient id="N" x1="0" x2="1" y1="0" y2="0" gradientTransform="scale(-1.34193 1.34193) rotate(30 -803.324 -786.21)" gradientUnits="userSpaceOnUse" spreadMethod="pad"><stop offset="0" stop-color="#4798c7"/><stop offset="1" stop-color="#0a5183"/></linearGradient><linearGradient id="P" x1="0" x2="1" y1="0" y2="0" gradientTransform="scale(-1.2733 1.2733) rotate(30 -846.649 -823.952)" gradientUnits="userSpaceOnUse" spreadMethod="pad"><stop offset="0" stop-color="#4798c7"/><stop offset="1" stop-color="#0a5183"/></linearGradient><linearGradient id="R" x1="0" x2="1" y1="0" y2="0" gradientTransform="matrix(-.01033 .00597 .00597 .01033 784.058 397.993)" gradientUnits="userSpaceOnUse" spreadMethod="pad"><stop offset="0" stop-color="#4798c7"/><stop offset="1" stop-color="#0a5183"/></linearGradient><linearGradient id="T" x1="0" x2="1" y1="0" y2="0" gradientTransform="matrix(-.04555 .0263 .0263 .04555 781.454 393.81)" gradientUnits="userSpaceOnUse" spreadMethod="pad"><stop offset="0" stop-color="#4798c7"/><stop offset="1" stop-color="#0a5183"/></linearGradient><linearGradient id="V" x1="0" x2="1" y1="0" y2="0" gradientTransform="matrix(-.00836 .00483 .00483 .00836 786.25 401.816)" gradientUnits="userSpaceOnUse" spreadMethod="pad"><stop offset="0" stop-color="#4798c7"/><stop offset="1" stop-color="#0a5183"/></linearGradient><linearGradient id="X" x1="0" x2="1" y1="0" y2="0" gradientTransform="matrix(-.05825 .03363 .03363 .05825 788.542 406.165)" gradientUnits="userSpaceOnUse" spreadMethod="pad"><stop offset="0" stop-color="#4798c7"/><stop offset="1" stop-color="#0a5183"/></linearGradient><linearGradient id="Z" x1="0" x2="1" y1="0" y2="0" gradientTransform="matrix(-.04203 .02427 .02427 .04203 790.44 410.224)" gradientUnits="userSpaceOnUse" spreadMethod="pad"><stop offset="0" stop-color="#4798c7"/><stop offset="1" stop-color="#0a5183"/></linearGradient><linearGradient id="ab" x1="0" x2="1" y1="0" y2="0" gradientTransform="scale(-.21876 .21876) rotate(30 -4994.416 -5702.364)" gradientUnits="userSpaceOnUse" spreadMethod="pad"><stop offset="0" stop-color="#4798c7"/><stop offset="1" stop-color="#0a5183"/></linearGradient><linearGradient id="ad" x1="0" x2="1" y1="0" y2="0" gradientTransform="scale(-.15042 .15042) rotate(30 -7320.144 -8320.668)" gradientUnits="userSpaceOnUse" spreadMethod="pad"><stop offset="0" stop-color="#4798c7"/><stop offset="1" stop-color="#0a5183"/></linearGradient><linearGradient id="af" x1="0" x2="1" y1="0" y2="0" gradientTransform="scale(-.12963 .12963) rotate(30 -8553.105 -9681.271)" gradientUnits="userSpaceOnUse" spreadMethod="pad"><stop offset="0" stop-color="#4798c7"/><stop offset="1" stop-color="#0a5183"/></linearGradient><linearGradient id="ah" x1="0" x2="1" y1="0" y2="0" gradientTransform="matrix(-.07377 .0426 .0426 .07377 778.998 390.208)" gradientUnits="userSpaceOnUse" spreadMethod="pad"><stop offset="0" stop-color="#4798c7"/><stop offset="1" stop-color="#0a5183"/></linearGradient><linearGradient id="aj" x1="0" x2="1" y1="0" y2="0" gradientTransform="matrix(-.1989 .11483 .11483 .1989 753.019 363.949)" gradientUnits="userSpaceOnUse" spreadMethod="pad"><stop offset="0" stop-color="#4798c7"/><stop offset="1" stop-color="#0a5183"/></linearGradient><linearGradient id="al" x1="0" x2="1" y1="0" y2="0" gradientTransform="matrix(-.43157 .24916 .24916 .43157 749.144 361.12)" gradientUnits="userSpaceOnUse" spreadMethod="pad"><stop offset="0" stop-color="#4798c7"/><stop offset="1" stop-color="#0a5183"/></linearGradient><linearGradient id="an" x1="0" x2="1" y1="0" y2="0" gradientTransform="scale(-.23208 .23208) rotate(30 -4610.785 -5316.903)" gradientUnits="userSpaceOnUse" spreadMethod="pad"><stop offset="0" stop-color="#4798c7"/><stop offset="1" stop-color="#0a5183"/></linearGradient><linearGradient id="ap" x1="0" x2="1" y1="0" y2="0" gradientTransform="scale(-.1802 .1802) rotate(30 -5782.908 -6721.24)" gradientUnits="userSpaceOnUse" spreadMethod="pad"><stop offset="0" stop-color="#4798c7"/><stop offset="1" stop-color="#0a5183"/></linearGradient><linearGradient id="ar" x1="0" x2="1" y1="0" y2="0" gradientTransform="matrix(-.2685 .15502 .15502 .2685 763.612 372.595)" gradientUnits="userSpaceOnUse" spreadMethod="pad"><stop offset="0" stop-color="#4798c7"/><stop offset="1" stop-color="#0a5183"/></linearGradient><linearGradient id="at" x1="0" x2="1" y1="0" y2="0" gradientTransform="matrix(-.04592 .02651 .02651 .04592 793.936 419.039)" gradientUnits="userSpaceOnUse" spreadMethod="pad"><stop offset="0" stop-color="#4798c7"/><stop offset="1" stop-color="#0a5183"/></linearGradient><linearGradient id="av" x1="0" x2="1" y1="0" y2="0" gradientTransform="matrix(-.17385 .10037 .10037 .17385 767.1 376.032)" gradientUnits="userSpaceOnUse" spreadMethod="pad"><stop offset="0" stop-color="#4798c7"/><stop offset="1" stop-color="#0a5183"/></linearGradient><linearGradient id="ax" x1="0" x2="1" y1="0" y2="0" gradientTransform="scale(56.45414 -56.45414) rotate(-45 -3.275 -18.494)" gradientUnits="userSpaceOnUse" spreadMethod="pad"><stop offset="0" stop-color="#51a2d1"/><stop offset="1" stop-color="#0e5688"/></linearGradient><linearGradient id="az" x1="0" x2="1" y1="0" y2="0" gradientTransform="scale(68.11095 -68.11095) rotate(-45 -3.09 -14.544)" gradientUnits="userSpaceOnUse" spreadMethod="pad"><stop offset="0" stop-color="#51a2d1"/><stop offset="1" stop-color="#0e5688"/></linearGradient></defs><g clip-path="url(#a)" transform="matrix(1.33333 0 0 -1.33333 0 1024)"><path fill="url(#b)" d="M571.269 456.75c0-63.237 51.263-114.5 114.499-114.5 53.398 0 98.256 36.553 110.924 86h-57.553c-10.189-19.042-30.264-32-53.371-32-33.413 0-60.499 27.087-60.499 60.5s27.086 60.5 60.499 60.5c25.079 0 46.593-15.26 55.765-37h56.317c-10.841 51.963-56.9 91-112.082 91-63.236 0-114.499-51.263-114.499-114.5"/></g><g clip-path="url(#c)" transform="matrix(1.33333 0 0 -1.33333 0 1024)"><path fill="url(#d)" d="M625.269 455.75c0-57.765 49.765-100.411 111.632-101.475 29.328 14.664 51.483 41.545 59.791 73.975h-57.553c-10.189-19.042-30.264-32-53.371-32-33.291 0-60.294 26.892-60.49 60.137-.002-.212-.009-.424-.009-.637"/></g><g clip-path="url(#e)" transform="matrix(1.33333 0 0 -1.33333 0 1024)"><g clip-path="url(#f)"><g clip-path="url(#g)" opacity=".59"><path fill="url(#h)" d="M625.313 458.513l-.011-.449.011.449"/></g></g></g><g clip-path="url(#i)" transform="matrix(1.33333 0 0 -1.33333 0 1024)"><path fill="url(#j)" d="M650.04 407.936c-.123.09-.251.173-.372.264.121-.091.249-.174.372-.264"/></g><g clip-path="url(#k)" transform="matrix(1.33333 0 0 -1.33333 0 1024)"><path fill="url(#l)" d="M652.51 406.219c-.158.104-.321.2-.479.306.158-.106.321-.202.479-.306"/></g><g clip-path="url(#m)" transform="matrix(1.33333 0 0 -1.33333 0 1024)"><path fill="url(#n)" d="M657.706 403.155c-.234.122-.472.235-.702.36.23-.125.468-.238.702-.36"/></g><g clip-path="url(#o)" transform="matrix(1.33333 0 0 -1.33333 0 1024)"><path fill="url(#p)" d="M655.06 404.627c-.192.114-.391.219-.582.335.191-.116.39-.221.582-.335"/></g><g clip-path="url(#q)" transform="matrix(1.33333 0 0 -1.33333 0 1024)"><path fill="url(#r)" d="M660.441 401.809c-.279.128-.563.245-.838.378.275-.133.559-.25.838-.378"/></g><g clip-path="url(#s)" transform="matrix(1.33333 0 0 -1.33333 0 1024)"><path fill="url(#t)" d="M643.191 413.777l-.083.079.083-.079"/></g><g clip-path="url(#u)" transform="matrix(1.33333 0 0 -1.33333 0 1024)"><path fill="url(#v)" d="M647.655 409.774c-.087.071-.178.137-.265.208.087-.071.178-.137.265-.208"/></g><g clip-path="url(#w)" transform="matrix(1.33333 0 0 -1.33333 0 1024)"><path fill="url(#x)" d="M641.128 415.922l-.018.019.018-.019"/></g><g clip-path="url(#y)" transform="matrix(1.33333 0 0 -1.33333 0 1024)"><path fill="url(#z)" d="M645.373 411.721c-.056.051-.114.097-.171.148.057-.051.115-.097.171-.148"/></g><g clip-path="url(#A)" transform="matrix(1.33333 0 0 -1.33333 0 1024)"><path fill="url(#B)" d="M681.582 396.41c-.664.046-1.331.085-1.988.152.657-.067 1.324-.106 1.988-.152"/></g><g clip-path="url(#C)" transform="matrix(1.33333 0 0 -1.33333 0 1024)"><path fill="url(#D)" d="M591.268 410.25c0-8.303 1.381-16.157 3.921-23.538 20.943-27.046 53.725-44.462 90.579-44.462 18.379 0 35.746 4.331 51.138 12.027l-.005-.002c-61.867 1.064-111.632 43.71-111.632 101.475 0 .213.007.425.009.637-.001.122-.009.242-.009.363 0 30.181 22.1 55.193 50.999 59.752v.429c-49.74-8.49-85-50.973-85-106.681"/></g><g clip-path="url(#E)" transform="matrix(1.33333 0 0 -1.33333 0 1024)"><path fill="url(#F)" d="M663.242 400.601c-.322.129-.649.247-.968.381.319-.134.646-.252.968-.381"/></g><g clip-path="url(#G)" transform="matrix(1.33333 0 0 -1.33333 0 1024)"><path fill="url(#H)" d="M678.305 396.724c-.578.072-1.159.134-1.733.221.574-.087 1.155-.149 1.733-.221"/></g><g clip-path="url(#I)" transform="matrix(1.33333 0 0 -1.33333 0 1024)"><path fill="url(#J)" d="M675.093 397.208c-.498.089-.999.166-1.493.266.494-.1.995-.177 1.493-.266"/></g><g clip-path="url(#K)" transform="matrix(1.33333 0 0 -1.33333 0 1024)"><path fill="url(#L)" d="M666.125 399.529c-.37.127-.745.243-1.111.376.366-.133.741-.249 1.111-.376"/></g><g clip-path="url(#M)" transform="matrix(1.33333 0 0 -1.33333 0 1024)"><path fill="url(#N)" d="M672.047 397.832c-.455.106-.916.199-1.367.315.451-.116.912-.209 1.367-.315"/></g><g clip-path="url(#O)" transform="matrix(1.33333 0 0 -1.33333 0 1024)"><path fill="url(#P)" d="M669.079 398.601c-.42.12-.846.229-1.263.358.417-.129.843-.238 1.263-.358"/></g><g clip-path="url(#Q)" transform="matrix(1.33333 0 0 -1.33333 0 1024)"><path fill="url(#R)" d="M783.807 397.584c.166.274.327.55.49.824-.163-.274-.324-.55-.49-.824"/></g><g clip-path="url(#S)" transform="matrix(1.33333 0 0 -1.33333 0 1024)"><path fill="url(#T)" d="M781.209 393.491c.148.222.298.442.445.664-.147-.222-.297-.442-.445-.664"/></g><g clip-path="url(#U)" transform="matrix(1.33333 0 0 -1.33333 0 1024)"><path fill="url(#V)" d="M786.082 401.523c.108.197.221.392.329.589-.108-.197-.221-.392-.329-.589"/></g><g clip-path="url(#W)" transform="matrix(1.33333 0 0 -1.33333 0 1024)"><path fill="url(#X)" d="M788.295 405.738c.147.294.289.591.434.887-.145-.296-.287-.593-.434-.887"/></g><g clip-path="url(#Y)" transform="matrix(1.33333 0 0 -1.33333 0 1024)"><path fill="url(#Z)" d="M790.313 410.004c.07.156.143.309.213.464-.07-.155-.143-.308-.213-.464"/></g><g clip-path="url(#aa)" transform="matrix(1.33333 0 0 -1.33333 0 1024)"><path fill="url(#ab)" d="M769.677 378.86c.224.24.448.476.669.719-.221-.241-.445-.479-.669-.719"/></g><g clip-path="url(#ac)" transform="matrix(1.33333 0 0 -1.33333 0 1024)"><path fill="url(#ad)" d="M772.99 382.577c.19.223.375.449.564.674-.189-.225-.374-.451-.564-.674"/></g><g clip-path="url(#ae)" transform="matrix(1.33333 0 0 -1.33333 0 1024)"><path fill="url(#af)" d="M775.731 385.93c.184.234.371.466.554.702-.183-.236-.37-.468-.554-.702"/></g><g clip-path="url(#ag)" transform="matrix(1.33333 0 0 -1.33333 0 1024)"><path fill="url(#ah)" d="M778.694 389.852c.181.25.356.503.534.754-.178-.251-.353-.504-.534-.754"/></g><g clip-path="url(#ai)" transform="matrix(1.33333 0 0 -1.33333 0 1024)"><path fill="url(#aj)" d="M752.687 363.835c.157.112.309.229.464.343-.155-.114-.307-.231-.464-.343"/></g><g clip-path="url(#ak)" transform="matrix(1.33333 0 0 -1.33333 0 1024)"><path fill="url(#al)" d="M748.465 360.939c.311.204.621.407.931.614-.31-.207-.62-.41-.931-.614"/></g><g clip-path="url(#am)" transform="matrix(1.33333 0 0 -1.33333 0 1024)"><path fill="url(#an)" d="M759.952 369.535c.182.154.36.314.54.47-.18-.156-.358-.316-.54-.47"/></g><g clip-path="url(#ao)" transform="matrix(1.33333 0 0 -1.33333 0 1024)"><path fill="url(#ap)" d="M744.97 358.725c.109.066.216.136.324.203-.108-.067-.215-.137-.324-.203"/></g><g clip-path="url(#aq)" transform="matrix(1.33333 0 0 -1.33333 0 1024)"><path fill="url(#ar)" d="M763.096 372.322c.255.233.511.465.764.7-.253-.235-.509-.466-.764-.7"/></g><g clip-path="url(#as)" transform="matrix(1.33333 0 0 -1.33333 0 1024)"><path fill="url(#at)" d="M793.861 418.91c.033.096.069.188.103.284-.034-.096-.07-.188-.103-.284"/></g><g clip-path="url(#au)" transform="matrix(1.33333 0 0 -1.33333 0 1024)"><path fill="url(#av)" d="M766.732 375.794c.19.19.377.385.566.577-.189-.192-.376-.387-.566-.577"/></g><g clip-path="url(#aw)" transform="matrix(1.33333 0 0 -1.33333 0 1024)"><path fill="url(#ax)" d="M692.563 483.55c-2.9-1.467-5.073-3.482-6.517-6.044-1.446-2.564-2.168-5.287-2.168-8.17 0-4.386 1.412-7.995 4.235-10.827 2.801-2.83 7.488-5.101 14.061-6.809 4.014-1.02 6.572-2.104 7.675-3.252 1.102-1.148 1.654-2.449 1.654-3.903 0-1.53-.58-2.875-1.738-4.036-1.156-1.161-2.806-1.74-4.944-1.74-2.868 0-5.074 1.134-6.618 3.405-.948 1.402-1.576 3.443-1.886 6.12l-14.258-1.033c.419-5.662 2.216-10.329 5.392-14.002 3.177-3.673 8.889-5.509 17.137-5.509 4.698 0 8.591.784 11.679 2.353 3.088 1.569 5.492 3.871 7.212 6.905 1.72 3.036 2.581 6.352 2.581 9.948 0 3.06-.646 5.828-1.936 8.302-1.29 2.474-3.353 4.547-6.187 6.217s-7.526 3.322-14.077 4.955c-2.646.637-4.321 1.326-5.028 2.066-.727.714-1.092 1.517-1.092 2.41 0 1.224.441 2.264 1.323 3.118.883.854 2.195 1.281 3.937 1.281 2.118 0 3.777-.574 4.98-1.721 1.202-1.148 1.989-2.985 2.365-5.509l14.125.956c-.616 5.815-2.552 10.055-5.805 12.721-3.253 2.666-7.978 3.998-14.176 3.998-5.05 0-9.026-.734-11.926-2.2"/></g><g clip-path="url(#ay)" transform="matrix(1.33333 0 0 -1.33333 0 1024)"><path fill="url(#az)" d="M649.059 484.75v-56h15.031v22.882h20.789v6.535c-1.1 1.327-2.032 2.953-2.701 4.771H664.09v9.779h17.315c.991 4.963 4.019 9.183 7.978 12.033z"/></g><g fill="#4a4a4a" clip-path="url(#aA)" transform="matrix(1.33333 0 0 -1.33333 0 1024)"><path d="M582.562 286.46c2.86-2.31 4.62-5.499 5.225-9.459h-5.83c-.66 2.64-1.924 4.62-3.794 5.885-1.87 1.264-4.18 1.87-7.039 1.87-4.235 0-7.424-1.431-9.569-4.345-2.035-2.639-3.025-6.269-3.025-10.834 0-4.729.99-8.358 2.97-10.943 2.09-2.75 5.334-4.124 9.734-4.124 2.859 0 5.279.715 7.149 2.144 1.979 1.54 3.354 3.85 4.124 6.929h5.829c-.879-4.564-2.914-8.139-6.159-10.724-3.024-2.42-6.654-3.628-10.888-3.628-6.435 0-11.274 2.089-14.519 6.159-2.859 3.519-4.234 8.249-4.234 14.187 0 5.829 1.43 10.559 4.4 14.243 3.299 4.18 8.028 6.215 14.298 6.215 4.564 0 8.358-1.155 11.328-3.575m17.108 3.575v-15.618c1.044 1.65 2.364 2.914 3.958 3.684 1.43.77 3.025 1.1 4.84 1.1 3.41 0 5.994-.99 7.754-3.024 1.65-1.925 2.474-4.785 2.474-8.525V250h-5.829v16.663c0 2.53-.55 4.4-1.54 5.72-1.099 1.374-2.804 2.034-5.004 2.034-1.98 0-3.574-.77-4.784-2.365-1.265-1.595-1.87-3.629-1.87-6.104V250h-5.829v40.035zm31.46-11.603v-17.323c0-2.42.494-4.18 1.54-5.28.988-1.1 2.638-1.705 4.893-1.705 1.54 0 2.915.66 4.234 1.87 1.32 1.265 2.255 2.97 2.75 5.06v17.378h5.83V250h-5.83v3.85c-2.419-3.08-5.389-4.62-8.964-4.62-6.874 0-10.283 3.85-10.283 11.494v17.708zm33.824-6.545c-1.54-1.87-2.255-4.344-2.255-7.424v-.495c0-2.86.605-5.17 1.815-6.983 1.375-1.981 3.355-3.026 5.884-3.026 2.86 0 4.95 1.045 6.324 3.08 1.1 1.76 1.705 4.18 1.705 7.315 0 3.134-.605 5.554-1.815 7.203-1.375 1.98-3.52 2.915-6.38 2.915-2.2 0-3.96-.825-5.278-2.585m-2.09 18.148v-15.837c2.31 3.354 5.169 5.003 8.689 5.003 4.069 0 7.259-1.484 9.624-4.454 2.144-2.75 3.244-6.214 3.244-10.393 0-4.345-1.1-7.92-3.3-10.67-2.42-2.97-5.664-4.453-9.843-4.453-3.905 0-6.82 1.429-8.8 4.178v-3.41h-5.443v40.036zm39.928-27.057c-5.334-.11-7.974-1.98-7.974-5.5 0-1.1.44-1.979 1.375-2.694.88-.714 2.089-1.1 3.575-1.1 2.474 0 4.564.77 6.324 2.256 1.76 1.484 2.694 3.354 2.694 5.554v1.65zm9.184 13.088c1.705-1.814 2.585-4.453 2.585-7.918V250h-5.39v4.015a11.849 11.849 0 0 0-4.124-3.41c-1.87-.88-4.069-1.374-6.6-1.374-2.968 0-5.279.769-6.928 2.254-1.815 1.485-2.695 3.41-2.695 5.774 0 3.19 1.265 5.664 3.794 7.369 2.31 1.65 5.61 2.475 9.789 2.585l6.379.165v1.155c0 3.96-2.144 5.939-6.433 5.939-1.816 0-3.3-.33-4.4-.99-1.32-.77-2.145-1.925-2.474-3.52l-5.775.496c.605 3.08 2.145 5.389 4.565 6.819 2.089 1.319 4.949 1.925 8.468 1.925 4.18 0 7.259-1.045 9.239-3.135m16.061-4.839c-1.319-1.815-1.925-4.18-1.925-7.04 0-2.86.606-5.17 1.925-6.983 1.485-2.09 3.575-3.19 6.27-3.19 2.694 0 4.784 1.1 6.324 3.19 1.32 1.87 1.98 4.179 1.98 6.984 0 2.859-.66 5.224-1.98 7.039-1.54 2.145-3.63 3.189-6.324 3.189-2.695 0-4.785-1.044-6.27-3.19m16.608 3.686c2.53-2.805 3.85-6.38 3.85-10.724 0-4.29-1.266-7.864-3.795-10.614-2.64-2.86-6.104-4.344-10.393-4.344-4.29 0-7.754 1.484-10.394 4.344-2.53 2.75-3.795 6.324-3.795 10.614 0 4.344 1.265 7.919 3.85 10.724 2.585 2.859 6.048 4.289 10.34 4.289 4.288 0 7.752-1.43 10.337-4.29m36.628 14.353v-5.114h-20.677v-11.44h19.523v-5.113h-19.523V250h-5.994v39.265zm29.755-2.145c2.75-2.035 4.29-5.169 4.675-9.459h-5.94c-.55 2.53-1.54 4.4-3.08 5.5-1.539 1.154-3.739 1.704-6.709 1.704-2.584 0-4.564-.385-5.938-1.154-1.705-.88-2.53-2.31-2.53-4.29 0-1.76.935-3.135 2.915-4.18.88-.494 3.134-1.319 6.82-2.419 5.278-1.65 8.742-2.915 10.282-3.849 3.355-2.036 5.06-4.84 5.06-8.469 0-3.52-1.376-6.27-4.125-8.305-2.749-1.979-6.599-2.969-11.548-2.969-4.785 0-8.525.99-11.219 2.86-3.245 2.31-5.005 5.94-5.334 10.888h5.94c.44-3.08 1.54-5.335 3.298-6.654 1.595-1.21 4.015-1.814 7.315-1.814 2.97 0 5.334.55 7.094 1.54 1.76.99 2.64 2.364 2.64 4.124 0 2.2-1.265 3.904-3.74 5.17-.88.44-3.465 1.32-7.81 2.638-4.838 1.54-7.808 2.585-9.018 3.245-3.025 1.815-4.51 4.455-4.51 7.864 0 3.465 1.431 6.16 4.345 8.14 2.75 1.868 6.214 2.804 10.393 2.804 4.565 0 8.14-.936 10.724-2.915"/></g></svg>