<svg xmlns="http://www.w3.org/2000/svg" role="img" viewBox="-6.70 -0.20 413.14 245.14"><title>Citi (member) logo</title><style>svg {enable-background:new 0 0 400 245}</style><path fill="#7c848a" fill-rule="evenodd" d="M109.68 192.72l-.77.8c-10.12 10.13-21.8 15.59-34.25 15.59-25.69 0-44.38-18.73-44.38-45.24 0-27.3 18.69-46.02 44.38-46.02 12.45 0 24.13 5.45 34.25 15.6l.77.79 16.35-19.51v-.77c-14.01-16.37-30.36-24.19-50.59-24.19-20.24 0-38.93 7.03-52.16 19.5-14.79 13.26-21.8 31.98-21.8 54.6 0 21.84 7.01 40.56 21.8 53.83 13.23 12.47 31.92 19.49 52.16 19.49 20.23 0 36.58-7.79 50.59-24.18v-.78l-16.35-19.51zM143.93 92.1h28.8v141.97h-28.8zm137.78 111.55c-7 4.67-14.8 7.02-21.02 7.02-9.34 0-14.01-4.68-14.01-16.37v-74.9h29.59V92.1h-29.59V47.64l-28.03 15.61V92.1h-24.9v27.3h24.9v80.35c0 21.83 12.47 36.65 31.93 36.65 13.22.78 21.02-3.11 25.69-6.24h.77v-.77l7-27.3-2.33 1.56zM302.73 92.1h29.58v141.97h-29.58z" clip-rule="evenodd"/><path fill="#ee3b29" d="M237.91 36.96c32.03 0 61.06 12.8 82.36 33.52h38.05C331.63 32.62 287.71 7.82 237.91 7.82c-49.78 0-93.71 24.8-120.41 62.67h38.05c21.31-20.72 50.33-33.53 82.36-33.53"/><path fill="#7c848a" d="M365.67 63.33c0-9.31 7.19-16.56 16.49-16.56 9.25 0 16.36 7.12 16.36 16.4 0 9.31-7.24 16.57-16.49 16.57-9.3 0-16.36-7.12-16.36-16.41m29.56 0c0-7.72-5.62-13.55-13.2-13.55-7.55 0-13.07 5.7-13.07 13.39 0 7.73 5.61 13.56 13.2 13.56 7.53 0 13.07-5.71 13.07-13.4m-19.63-9.4h6.94c4.33 0 6.94 1.9 6.94 5.84 0 2.83-1.33 4.38-3.29 5.2l3.51 6.86h-4.49l-3.17-6.31h-2.19v6.31h-4.24v-17.9zm6.68 8.5c2.02 0 3.01-.72 3.01-2.39 0-1.59-.99-2.32-3.01-2.32h-2.44v4.71h2.44z"/></svg>