<?xml version="1.0" encoding="UTF-8" standalone="yes"?>
<svg version="1.1" id="Layer_1" xmlns="http://www.w3.org/2000/svg" xmlns:xlink="http://www.w3.org/1999/xlink" x="0px" y="0px" width="500px" height="500px" viewBox="75 15 348 479" enable-background="new 0 0 500 500" xml:space="preserve">
  <g>
    <path d="M192.336,415.47c-0.985-1.66-2.217-3.125-3.695-4.383s-3.151-2.243-5.018-2.943s-3.812-1.051-5.861-1.051&#xD;&#xA;&#x9;&#x9;c-3.734,0-6.898,0.752-9.504,2.27c-2.606,1.517-4.72,3.54-6.328,6.094c-1.621,2.542-2.801,5.446-3.54,8.701&#xD;&#xA;&#x9;&#x9;c-0.739,3.255-1.103,6.613-1.103,10.075c0,3.319,0.363,6.548,1.103,9.687c0.739,3.138,1.919,5.965,3.54,8.479&#xD;&#xA;&#x9;&#x9;c1.621,2.516,3.734,4.525,6.328,6.03c2.606,1.517,5.77,2.269,9.504,2.269c5.07,0,9.025-1.62,11.878-4.875&#xD;&#xA;&#x9;&#x9;c2.853-3.255,4.59-7.547,5.226-12.876h16.04c-0.428,4.953-1.517,9.439-3.268,13.434c-1.75,3.993-4.084,7.404-6.963,10.218&#xD;&#xA;&#x9;&#x9;c-2.892,2.813-6.263,4.966-10.127,6.457c-3.877,1.479-8.13,2.23-12.772,2.23c-5.77,0-10.957-1.05-15.573-3.164&#xD;&#xA;&#x9;&#x9;c-4.603-2.113-8.493-5.005-11.657-8.713c-3.164-3.696-5.588-8.04-7.274-13.032c-1.686-4.992-2.528-10.373-2.528-16.144&#xD;&#xA;&#x9;&#x9;c0-5.913,0.843-11.411,2.528-16.468c1.686-5.07,4.111-9.479,7.274-13.252c3.164-3.773,7.041-6.729,11.657-8.87&#xD;&#xA;&#x9;&#x9;c4.616-2.139,9.803-3.215,15.573-3.215c4.149,0,8.078,0.635,11.774,1.893c3.695,1.258,7.002,3.1,9.919,5.498&#xD;&#xA;&#x9;&#x9;c2.917,2.412,5.33,5.395,7.236,8.947c1.906,3.553,3.099,7.624,3.592,12.215h-16.04C193.958,418.957,193.322,417.129,192.336,415.47&#xD;&#xA;&#x9;&#x9;z"/>
    <path d="M236.048,394.281v79.215h-14.99v-79.215H236.048L236.048,394.281z"/>
    <path d="M249.792,424.546c1.543-2.438,3.527-4.396,5.913-5.874c2.399-1.478,5.084-2.528,8.078-3.15&#xD;&#xA;&#x9;&#x9;c2.996-0.623,6.004-0.947,9.039-0.947c2.748,0,5.523,0.208,8.35,0.61c2.814,0.401,5.381,1.205,7.716,2.386&#xD;&#xA;&#x9;&#x9;c2.334,1.18,4.228,2.826,5.705,4.94c1.479,2.113,2.218,4.901,2.218,8.376v29.85c0,2.594,0.143,5.07,0.414,7.443&#xD;&#xA;&#x9;&#x9;c0.285,2.373,0.778,4.136,1.479,5.329l-15.21-0.013c-0.285-0.882-0.506-1.776-0.687-2.697c-0.182-0.921-0.299-1.854-0.363-2.813&#xD;&#xA;&#x9;&#x9;c-2.399,2.58-5.213,4.396-8.441,5.42c-3.242,1.037-6.549,1.556-9.92,1.556c-2.606,0-5.031-0.337-7.287-0.998&#xD;&#xA;&#x9;&#x9;s-4.228-1.699-5.913-3.112c-1.686-1.4-3.008-3.177-3.955-5.329c-0.946-2.152-1.426-4.694-1.426-7.664&#xD;&#xA;&#x9;&#x9;c0-3.254,0.544-5.938,1.634-8.052c1.089-2.114,2.502-3.8,4.227-5.058s3.695-2.204,5.913-2.826c2.218-0.636,4.448-1.128,6.704-1.504&#xD;&#xA;&#x9;&#x9;c2.256-0.363,4.473-0.662,6.652-0.882c2.178-0.221,4.123-0.558,5.809-0.999c1.686-0.44,3.034-1.089,4.02-1.945&#xD;&#xA;&#x9;&#x9;c0.985-0.855,1.439-2.087,1.375-3.721c0-1.699-0.26-3.048-0.791-4.046c-0.532-0.998-1.232-1.776-2.114-2.334&#xD;&#xA;&#x9;&#x9;s-1.905-0.921-3.073-1.115c-1.166-0.182-2.412-0.272-3.76-0.272c-2.957,0-5.291,0.661-6.977,1.997&#xD;&#xA;&#x9;&#x9;c-1.699,1.336-2.684,3.54-2.956,6.652h-14.99C247.368,430.044,248.25,426.984,249.792,424.546z M279.435,446.849&#xD;&#xA;&#x9;&#x9;c-0.946,0.338-1.971,0.61-3.06,0.83c-1.09,0.221-2.23,0.402-3.437,0.558c-1.193,0.143-2.399,0.337-3.592,0.558&#xD;&#xA;&#x9;&#x9;c-1.128,0.221-2.23,0.519-3.333,0.882c-1.089,0.376-2.049,0.869-2.853,1.504c-0.804,0.636-1.465,1.427-1.958,2.387&#xD;&#xA;&#x9;&#x9;c-0.492,0.959-0.738,2.178-0.738,3.656c0,1.4,0.246,2.594,0.738,3.553c0.493,0.96,1.167,1.725,2.01,2.27&#xD;&#xA;&#x9;&#x9;c0.844,0.558,1.828,0.946,2.957,1.167c1.128,0.22,2.295,0.337,3.488,0.337c2.956,0,5.251-0.519,6.859-1.556&#xD;&#xA;&#x9;&#x9;c1.621-1.038,2.813-2.27,3.592-3.722c0.777-1.439,1.244-2.904,1.426-4.383s0.26-2.658,0.26-3.553v-5.888&#xD;&#xA;&#x9;&#x9;C281.186,446.059,280.395,446.512,279.435,446.849z"/>
    <path d="M328.618,490.586c-2.892,1.997-6.898,2.995-12.033,2.995c-1.544,0-3.073-0.052-4.591-0.155&#xD;&#xA;&#x9;&#x9;c-1.517-0.104-3.047-0.221-4.59-0.363V480.07c1.4,0.143,2.853,0.298,4.331,0.44c1.478,0.143,2.956,0.182,4.435,0.117&#xD;&#xA;&#x9;&#x9;c1.971-0.221,3.436-1.038,4.383-2.438c0.946-1.4,1.426-2.956,1.426-4.668c0-1.258-0.207-2.438-0.635-3.553l-19.101-53.838h15.937&#xD;&#xA;&#x9;&#x9;l12.344,39.276h0.208l11.93-39.276h15.521l-22.795,64.471C333.753,485.27,331.51,488.589,328.618,490.586z"/>
  </g>
  <linearGradient id="SVGID_1_" gradientUnits="userSpaceOnUse" x1="163.9858" y1="38.2832" x2="338.0146" y2="339.71">
    <stop offset="0" style="stop-color:#F77159"/>
    <stop offset="1" style="stop-color:#DB5153"/>
  </linearGradient>
  <circle fill-rule="evenodd" clip-rule="evenodd" fill="url(#SVGID_1_)" cx="251" cy="188.996" r="174"/>
  <path fill-rule="evenodd" clip-rule="evenodd" fill="#FFFFFF" d="M282,313.209v-31.746c38.649-12.952,66.5-49.455,66.5-92.465&#xD;&#xA;&#x9;c0-43.01-27.851-79.513-66.5-92.465V64.786c55.713,13.859,97,64.21,97,124.211C379,248.999,337.713,299.35,282,313.209z M219,96.877&#xD;&#xA;&#x9;c-38.128,13.243-65.5,49.483-65.5,92.121c0,42.637,27.372,78.877,65.5,92.12v31.847c-55.207-14.21-96-64.325-96-123.968&#xD;&#xA;&#x9;c0-59.643,40.793-109.758,96-123.967V96.877z"/>
</svg>