<svg xmlns="http://www.w3.org/2000/svg" role="img" viewBox="184.86 260.86 995.28 245.28"><title>Cloocus (KCSP) logo</title><style>svg {enable-background:new 0 0 1366 768}</style><style>.st0{fill:#69287d}</style><path d="M514.33 487.06c-42.19 0-73.9-31.42-73.9-72.74 0-41.61 32-73.03 74.48-73.03 43.06 0 74.48 30.55 74.48 73.03 0 36.08-25.6 72.74-75.06 72.74zm.58-122.49c-25.89 0-44.52 20.95-44.52 49.75 0 28.51 18.62 49.46 44.52 49.46 25.89 0 44.52-20.95 44.52-49.46 0-28.8-18.63-49.75-44.52-49.75zm162.91 122.49c-42.19 0-73.9-31.42-73.9-72.74 0-41.61 32-73.03 74.48-73.03 43.06 0 74.48 30.55 74.48 73.03.01 36.08-25.6 72.74-75.06 72.74zm.58-122.49c-25.89 0-44.52 20.95-44.52 49.75 0 28.51 18.62 49.46 44.52 49.46s44.52-20.95 44.52-49.46c0-28.8-18.62-49.75-44.52-49.75zm201.32 114.05c-9.89 5.53-22.11 8.14-36.07 8.14-44.22 0-76.23-30.55-76.23-72.74s32-72.74 76.23-72.74c13.97 0 26.18 2.91 36.07 8.15v26.77c-9.31-7.27-19.49-11.06-35.78-11.06-27.06 0-46.55 20.37-46.55 48.88s19.49 48.88 46.55 48.88c16.29 0 26.47-3.49 35.78-11.06v26.78zm124.29 4.95l.21-18.33c-10.76 14.55-27.93 21.82-45.68 21.82-23.28 0-45.39-11.93-45.39-52.95v-58.19c0-19.88 1.63-28.22-4-28.22v-2.91h32.8v89.32c0 18.33 7.56 29.97 25.31 29.97 14.26 0 28.22-10.47 35.49-23.57v-95.72h29.09v108.52c0 21.53.91 30.17.91 30.17l-28.74.09zm157.63-38.99c0 32.59-35.52 42.48-54.14 42.48-18.04 0-32.88-4.37-48.56-10.48v-28.51c18.01 10.76 33.44 16 48.56 16 15.13 0 25.45-8.44 26.04-16.58v-1.16c0-7.85-9.75-13.97-18.76-18.33-4.66-2.33-13.68-6.69-22.99-11.35-9.6-4.95-27.44-15.81-27.44-37.04 0-1.46-.01-2.02.1-3.4 2.62-25.31 28.8-34.62 48.88-34.62 13.39 0 27.35 2.04 42.65 9.31v26.47c-15.31-8.73-25.78-12.8-41.2-12.8-11.06 0-21.58 3.78-22.46 11.64-.05.74-.02 1.14 0 1.75.2 6.84 6.75 10.76 13.73 14.55 5.82 3.2 16.87 8.44 25.31 12.8 12.22 6.69 30.29 16.58 30.29 38.11v1.16z" class="st0"/><path d="M354.15 474.24c-11.88 8-29.82 13.57-55.27 13.57-54.78 0-94.53-37.81-94.53-88.71 0-50.9 39.75-88.47 94.53-88.47 25.45 0 43.39 5.58 55.27 13.33v26.18c-15.76-12.85-33.5-17.32-55.56-17.06-37.25.43-64.11 29.02-63.67 65.84.45 38.05 25.99 66.27 62.81 66.27 22.06 0 40.67-4.04 56.42-16.88v25.93zm63.03 9.45h-28.82V340.2c0-15.9.59-22.68-4.54-22.68v-3.31l33.36.05v169.43z" class="st0"/><path fill="#e69623" d="M677.97 324l25.3-43.81h-50.59z"/></svg>