<svg xmlns="http://www.w3.org/2000/svg" role="img" viewBox="184.47 28.97 729.56 579.06"><defs><clipPath id="a" clipPathUnits="userSpaceOnUse"><path d="M0 480h824V0H0z"/></clipPath></defs><g clip-path="url(#a)" transform="matrix(1.33333 0 0 -1.33333 0 640)"><path fill="#0090d1" d="M466.344 152.2c-17.25-12.143-38.285-19.276-60.986-19.276-21.902 0-42.252 6.64-59.148 18.009 20.305 8.454 41.246 18.939 61.57 30.856 19.326-11.332 39.2-21.361 58.564-29.588M156.1 231.023c0 53.285 43.2 96.484 96.493 96.484 13.879 0 27.075-2.931 38.999-8.205a96.784 96.784 0 0 0-5.28 31.616c0 53.477 43.357 96.825 96.84 96.825 9.33 0 18.354-1.32 26.893-3.782l-1.96.134h-.607c-26.35-1.271-47.321-23.06-47.321-49.716 0-26.662 20.972-48.45 47.32-49.716h.608c26.346 1.267 47.32 23.054 47.32 49.716 0 12.27-4.445 23.512-11.812 32.193 13.35-10.678 23.81-24.812 30.027-41.05 18.694 10.145 40.108 15.906 62.873 15.906 72.89 0 131.98-59.083 131.98-131.967 0-49.802-27.585-93.158-68.312-115.623.282 18.095-15.896 44.3-47.838 73.727-3.291-8.171-9.722-13.716-17.085-16.557 23.77-29.122 20.43-50.184-11.84-50.184-25.268 0-62.254 12.91-97.584 32.482 19.179 12.357 29.654 18.968 45.607 33.415 7.47 6.767-6.017 22.882-22.492 8.078-11.611-10.431-26.996-21.37-41.15-30.371-14.147 9.002-37.531 26.605-49.145 37.033-16.474 14.805-29.965-1.312-22.494-8.076 15.958-14.446 34.428-27.722 53.606-40.08-21.035-11.647-42.656-20.947-62.046-26.555 0 0-2.713-.801-4.204-1.167-11.55-3.074-22.205-4.76-31.327-4.76-32.273 0-35.616 21.063-11.842 50.185-7.36 2.84-13.801 8.386-17.082 16.557-41.22-37.966-56.186-70.57-43.427-87.317-37.16 13.413-63.718 48.995-63.718 90.775m367.153-6.566c8.215 0 15.688 5.197 15.688 15.686 0 52.254-30.084 97.482-73.881 119.314a69.28 69.28 0 0 0-23.547-23.918c38.594-14.5 66.055-51.743 66.055-95.396 0-10.49 7.47-15.686 15.685-15.686m-230.947 0c8.22 0 15.692 5.197 15.692 15.686 0 43.653 27.46 80.896 66.053 95.396a69.312 69.312 0 0 0-23.55 23.918c-43.791-21.832-73.88-67.06-73.88-119.314 0-10.49 7.472-15.686 15.685-15.686"/><path fill="#005bab" fill-rule="evenodd" d="M409.97 343.298v-138.02l-2.782-1.78c-14.149 8.993-31.742 19.608-43.355 30.036-16.475 14.798-26.306-4.824-18.832-11.59 15.956-14.442 24.976-17.218 44.153-29.565-10.486-5.81-21.115-11.033-31.543-15.503l-67.458 46.054 1.223-.036c5.816 0 11.252 2.599 13.934 7.838 1.327 2.276 2.097 5.105 2.097 8.474 0 17.469 4.395 33.908 12.147 48.275 11.644 21.234 30.636 37.869 53.556 46.48l-.506.314.854.324a69.29 69.29 0 0 0-23.546 23.916 133.307 133.307 0 0 1-31.154-21.542c10.308 17.51 24.47 33.027 41.513 45.592 4.558-21.802 23.381-38.38 46.263-39.483h.61zm-119.309-25.573l-.313.926.661-.29a96.283 96.283 0 0 0-3.338 12.203 122.066 122.066 0 0 0 6.304-5.27l8.044-7.2c-16.54-22.195-26.329-49.714-26.329-79.521 0-2.486.424-4.676 1.167-6.567l-94.53 64.538c17.54 18.12 42.123 29.386 69.34 29.386 13.88 0 27.067-2.931 38.994-8.205m119.31-139.318v-37.275l-33.258 22.706a531.305 531.305 0 0 1 30.13 16.39z"/><path fill="#005bab" fill-rule="evenodd" d="M542.783 390.3l-21.955-85.024a133.815 133.815 0 0 1-24.053 30.606zm-36.639-141.882l-21.154-81.93c-9.459 2.85-19.418 6.556-29.549 10.956l-8.865 4.004a362.187 362.187 0 0 0-21.357 10.93c19.18 12.348 25.755 15.53 41.712 29.973 7.467 6.762-2.12 26.315-18.595 11.51-11.614-10.428-26.996-21.37-41.148-30.362-4.122 2.612-9.019 5.963-14.182 9.645l83.02 98.2c16.681-16.337 27.761-38.356 30.118-62.926m-99.3-68.19c19.201-11.265 38.955-21.243 58.21-29.44-17.123-11.848-37.892-18.792-60.292-18.792-21.709 0-41.894 6.523-58.699 17.715 20.062 8.395 40.716 18.752 60.78 30.517m-26.972 17.377l8.571-5.618a355.095 355.095 0 0 0-23.26-11.754z"/><path fill="#32449b" fill-rule="evenodd" d="M540.928 399.735l81.084-231.21a132.462 132.462 0 0 0-22.451-15.618c.279 18.096-15.901 44.302-47.84 73.725l-.36-.63-.204-.48-.604-1.362-12.211 15.046c0 52.254-30.086 97.477-73.881 119.31a68.875 68.875 0 0 0-10.892-13.995l-11.981 14.872a49.746 49.746 0 0 1 6.955 9.842c3.992 7.165 6.266 15.415 6.266 24.198 0 7.992-1.881 15.548-5.233 22.242l2.938.234a96.922 96.922 0 0 0 20.162-31.97c18.688 10.14 40.102 15.904 62.867 15.904zm-295.232-73.99l-81.088-136.583c-5.832 12.427-9.083 26.296-9.083 40.927 0 16.329 4.049 31.709 11.208 45.184 15.42 28.519 44.794 48.39 78.963 50.472"/><path fill="#005bab" fill-rule="evenodd" d="M667.512 267.89c0-23.395-6.096-45.37-16.771-64.42a132.43 132.43 0 0 0-20.415-27.132c4.647 54.976 10.276 118.576 14.485 165.57 14.326-21.106 22.7-46.588 22.7-74.018"/><path fill="#fff" d="M411.95 312.595h-5.635v18.697h5.635z"/><path fill="#fff" fill-rule="evenodd" d="M475.16 302.776l-13.22-13.224-3.985 3.985 13.221 13.224z"/><path fill="#fff" d="M499.41 237.185l-18.699.002v5.63h18.7zm-182.058 7.517l18.7-.005v-5.632h-18.7zm29.171 62.938l13.226-13.221-3.99-3.986-13.22 13.224z"/><path fill="#32449b" fill-rule="evenodd" d="M196.8 69.559c-.512-6.112-2.804-10.9-6.88-14.365-4.176-3.361-9.677-5.042-16.502-5.042-7.947 0-14.01 2.395-18.186 7.183-4.176 4.584-6.265 11.358-6.265 20.323 0 9.169 2.139 16.046 6.419 20.63 4.38 4.787 10.696 7.18 18.949 7.18 6.723 0 12.072-1.68 16.045-5.042 3.77-3.26 5.908-7.844 6.42-13.752h-6.572c-2.446 0-4.178 1.07-5.197 3.209a14.898 14.898 0 0 1-2.598 3.514c-2.036 1.528-4.737 2.293-8.098 2.293-4.687 0-8.303-1.527-10.851-4.585-2.444-3.056-3.667-7.537-3.667-13.447 0-5.704 1.223-10.085 3.667-13.142 2.344-3.158 5.859-4.737 10.545-4.737 3.26 0 5.96.815 8.099 2.445 1.937 1.529 3.312 3.973 4.126 7.335zm5.275 34.382h5.501c1.427 0 2.65-.484 3.668-1.452 1.02-.968 1.528-2.164 1.528-3.59V51.374h-10.697zm27.315-22.005c-2.14-2.345-3.107-5.833-2.903-10.468.204-4.634 1.07-7.868 2.597-9.702.612-.814 1.682-1.504 3.209-2.062 1.529-.561 3.082-.612 4.662-.154 1.58.458 2.98 1.605 4.202 3.439 1.223 1.834 1.885 4.788 1.987 8.86 0 3.669-.585 6.419-1.758 8.253-1.171 1.833-2.521 3.005-4.05 3.515a7.423 7.423 0 0 1-4.585.077c-1.526-.46-2.647-1.045-3.36-1.759m-7.335-26.892c-2.141 1.834-3.668 4.303-4.584 7.41-.917 3.109-1.376 6.343-1.376 9.704 0 2.75.38 5.5 1.145 8.252.765 2.75 1.962 5.042 3.59 6.876 2.65 3.056 6.064 4.864 10.24 5.424 4.178.56 7.947.23 11.309-.994 3.87-1.526 6.724-4.175 8.558-7.946 1.732-3.36 2.599-7.283 2.599-11.766 0-3.26-.358-6.06-1.071-8.403-.713-2.345-1.63-4.33-2.751-5.96-2.445-3.362-5.553-5.45-9.321-6.265a20.819 20.819 0 0 0-10.162-.231c-3.414.766-6.14 2.065-8.176 3.899m71.175 36.979V68.183c0-7.231-1.885-11.971-5.653-14.21-3.77-2.242-7.897-3.363-12.379-3.363-4.38.204-8.38 1.426-11.995 3.668-3.618 2.242-5.426 6.877-5.426 13.906v23.838h10.697V66.043c0-2.444.713-4.227 2.14-5.348 1.426-1.122 3.054-1.68 4.89-1.68 1.834 0 3.49.558 4.966 1.68 1.478 1.12 2.216 2.903 2.216 5.348v20.783c0 1.424.483 2.647 1.451 3.667.97 1.018 2.216 1.528 3.745 1.528zm13.642-20.018c0-4.074.765-7.182 2.292-9.322 1.529-2.14 3.719-3.208 6.572-3.208 2.75 0 4.889 1.069 6.418 3.208 1.427 2.14 2.139 5.248 2.139 9.322 0 3.668-.764 6.57-2.292 8.71-1.63 2.038-3.82 3.055-6.571 3.055-2.648 0-4.737-1.07-6.266-3.208-1.527-2.037-2.292-4.89-2.292-8.557m17.421 32.09h5.196c1.427 0 2.65-.534 3.668-1.605 1.018-1.07 1.528-2.266 1.528-3.59V69.1c0-7.235-2.087-12.123-6.265-14.67-4.177-2.546-8.711-3.822-13.6-3.822-2.65 0-5.248.434-7.796 1.3-2.546.866-4.584 2.268-6.112 4.202-2.954 3.769-4.432 8.914-4.432 15.435 0 6.419 1.478 11.562 4.432 15.433 3.057 3.973 6.979 5.96 11.767 5.96 2.547 0 4.788-.51 6.725-1.53 2.037-1.22 3.667-2.801 4.889-4.735zm44.641-52.719h-10.849v19.56l-19.103 33.006h13.295l11.156-22.616 9.017 19.56c1.018 2.037 2.7 3.056 5.043 3.056h8.71l-17.269-33.006zm50.337 40.647V68.183c0-7.231-1.885-11.971-5.654-14.21-3.769-2.242-7.895-3.363-12.379-3.363-4.38.204-8.377 1.426-11.995 3.668-3.617 2.242-5.425 6.877-5.425 13.906v23.838h10.697V66.043c0-2.444.714-4.227 2.14-5.348 1.425-1.122 3.056-1.68 4.89-1.68 1.834 0 3.49.558 4.966 1.68 1.477 1.12 2.215 2.903 2.215 5.348v20.783c0 1.424.484 2.647 1.453 3.667.97 1.018 2.215 1.528 3.743 1.528zm15.512-20.63c0-7.03 2.038-10.926 6.114-11.688 4.074-.766 7.08.176 9.015 2.826.917 1.12 1.58 2.877 1.986 5.27.407 2.397.434 4.765.076 7.108-.354 2.342-1.196 4.43-2.52 6.265-1.325 1.833-3.26 2.749-5.807 2.749-3.464 0-5.807-1.272-7.03-3.82-1.223-2.545-1.834-5.45-1.834-8.71m17.422-17.572v2.597c-1.834-2.852-4.305-4.635-7.41-5.348-3.11-.713-6.193-.46-9.247.764-3.057 1.222-5.68 3.488-7.869 6.799-2.192 3.312-3.288 7.667-3.288 13.067 0 6.316 1.453 11.435 4.356 15.357 2.904 3.922 7.563 5.883 13.983 5.883 4.89 0 9.424-1.324 13.601-3.974 4.177-2.647 6.265-7.54 6.265-14.668V52.75c0-7.132-2.088-11.995-6.265-14.593-4.177-2.598-8.71-3.897-13.6-3.897-9.374 0-15.18 4.38-17.423 13.14h11.156c.815-1.425 2.063-2.52 3.745-3.283 1.68-.766 3.361-.968 5.043-.611 1.68.356 3.21 1.349 4.584 2.979 1.376 1.63 2.165 4.074 2.37 7.335m42.453-.765a18.841 18.841 0 0 0-6.8-2.063c-2.395-.253-4.51-.382-6.343-.382-3.668 0-6.876.994-9.628 2.98-2.75 1.987-4.125 5.272-4.125 9.857 0 4.279 1.248 7.335 3.744 9.169 2.496 1.834 5.678 3.056 9.55 3.668.51 0 1.121.074 1.834.228.714.153 1.527.279 2.445.383 4.482.609 6.724 1.934 6.724 3.972 0 1.528-.79 2.52-2.369 2.979-1.579.46-3.03.688-4.355.688-1.426 0-2.7-.204-3.82-.612-1.12-.406-1.936-1.17-2.445-2.292h-10.239c.408 3.158 1.833 5.757 4.28 7.794 2.75 2.344 6.671 3.515 11.766 3.515 5.706 0 9.984-.968 12.837-2.904 2.955-2.037 4.431-4.89 4.431-8.558V67.573c0-4.077-.738-7.26-2.217-9.552-1.476-2.292-3.234-3.946-5.27-4.966m-2.446 18.795c-1.427-.711-3.412-1.373-5.96-1.985l-3.515-.764c-1.833-.51-3.158-1.171-3.973-1.986-.713-1.122-1.07-2.243-1.07-3.362 0-1.53.458-2.751 1.376-3.668.916-.815 2.241-1.223 3.973-1.223 2.853 0 5.093.816 6.723 2.446 1.631 1.63 2.446 3.87 2.446 6.723z"/><path fill="#0090d1" fill-rule="evenodd" d="M511.19 59.778h5.194v-8.403h-8.404v5.194c0 2.14 1.069 3.21 3.21 3.21m48.66-2.139c-1.834-2.647-4.023-4.585-6.571-5.807-2.65-1.12-5.552-1.681-8.71-1.681-7.54 0-13.5 2.496-17.88 7.488-4.484 4.89-6.724 11.614-6.724 20.17 0 8.456 2.19 15.129 6.57 20.019 4.586 5.093 10.647 7.64 18.187 7.64 6.52 0 11.919-1.58 16.197-4.736 4.177-3.362 6.673-7.743 7.489-13.143h-7.336c-2.14 0-3.718.969-4.737 2.904-.714 1.222-1.732 2.343-3.056 3.362-2.036 1.426-4.737 2.139-8.1 2.139-4.38 0-7.845-1.58-10.391-4.737-2.546-3.361-3.822-7.844-3.822-13.448 0-5.703 1.326-10.187 3.976-13.447 2.546-3.16 6.163-4.736 10.85-4.736 3.463 0 6.315.967 8.557 2.903 2.242 2.037 3.667 4.839 4.278 8.405h-6.417c-1.53 0-2.83.534-3.898 1.604-1.07 1.069-1.604 2.369-1.604 3.895v3.516h21.852V51.375h-2.903c-2.853 0-4.635 1.426-5.35 4.279zm49.037 34.382V68.183c0-7.231-1.885-11.971-5.653-14.21-3.77-2.242-7.897-3.363-12.38-3.363-4.38.204-8.38 1.426-11.995 3.668-3.617 2.242-5.425 6.877-5.425 13.906v23.838h10.698V66.043c0-2.444.713-4.227 2.139-5.348 1.426-1.122 3.054-1.68 4.888-1.68s3.492.558 4.968 1.68c1.478 1.12 2.216 2.903 2.216 5.348v20.783c0 1.424.484 2.647 1.45 3.667.969 1.018 2.217 1.528 3.746 1.528zm4.167-40.647v19.712c0 3.974.586 7.309 1.758 10.009 1.172 2.7 2.776 4.864 4.814 6.494 1.935 1.528 4.2 2.649 6.8 3.362a30.134 30.134 0 0 0 8.023 1.069h1.528V81.173h-3.516c-2.954 0-5.143-.714-6.57-2.14-1.427-1.426-2.14-3.668-2.14-6.725V51.375zm61.979 40.647V68.183c0-7.231-1.885-11.971-5.654-14.21-3.769-2.242-7.896-3.363-12.379-3.363-4.38.204-8.378 1.426-11.995 3.668-3.617 2.242-5.425 6.877-5.425 13.906v23.838h10.697V66.043c0-2.444.712-4.227 2.14-5.348 1.425-1.122 3.056-1.68 4.89-1.68 1.834 0 3.49.558 4.966 1.68 1.477 1.12 2.215 2.903 2.215 5.348v20.783c0 1.424.484 2.647 1.453 3.667.967 1.018 2.215 1.528 3.743 1.528z"/><path fill="#32449b" fill-rule="evenodd" d="M153.006 38.837H420.13a24.041 24.041 0 0 1 3.075-4.5h-270.2zm314.466 0h207.07v-4.5H464.18a19.737 19.737 0 0 1 3.29 4.5"/></g></svg>