<svg xmlns="http://www.w3.org/2000/svg" role="img" viewBox="-44.60 -44.60 5959.20 3694.20"><path fill="#0c4f8b" fill-rule="evenodd" d="M1699.164 1963.721a959.983 959.983 0 0 1-127.553 8.475c-401.677 0-727.288-248.034-727.288-554.016 0-302.607 318.49-548.522 714.058-553.893a501.573 501.573 0 0 1-20.991-143.452c0-357.962 382.13-648.152 853.502-648.152 222.337 0 424.772 64.585 576.651 170.366l-920.56 1223.989 403.032-110.2-564.035 753.76c-75.434-40.605-139.026-90.438-186.816-146.877zM3531.497 469.098c156.437 39.913 269.05 151.714 269.05 283.397 0 49.941-16.196 97.01-44.841 138.384 279.791 91.868 472.66 285.796 472.66 510.193 0 313.071-375.422 566.854-838.523 566.854-112.12 0-219.084-14.914-316.849-41.918-121.154 176.148-389.612 298.616-701.36 298.616-138.008 0-267.515-24.014-379.521-66.063L3726.337 804.382l-639.216 5.233 444.376-340.517z"/><path fill="#7b868c" d="M5803.754 2102.023c0 26.757-20.991 47.733-48.291 47.733-27.02 0-48.603-20.976-48.603-47.733 0-26.165 21.583-47.14 48.603-47.14 27.3 0 48.29 20.975 48.29 47.14zm-84.805 0c0 20.993 15.523 37.664 36.778 37.664 20.712 0 35.954-16.671 35.954-37.368 0-20.991-15.243-37.927-36.218-37.927-20.991 0-36.514 16.936-36.514 37.631zm29.04 24.737h-10.939v-47.158a95.148 95.148 0 0 1 18.101-1.428c8.935 0 12.96 1.428 16.393 3.448a13.098 13.098 0 0 1 4.599 10.365c0 5.158-4.009 9.198-9.758 10.89v.576c4.584 1.757 7.179 5.173 8.624 11.514 1.43 7.177 2.3 10.069 3.433 11.793h-11.793c-1.43-1.724-2.284-6.044-3.712-11.513-.87-5.159-3.729-7.458-9.806-7.458h-5.141zm.297-26.74h5.14c6.045 0 10.94-2.02 10.94-6.9 0-4.32-3.171-7.177-10.069-7.177a24.638 24.638 0 0 0-6.011.574z"/><path d="M73.237 2529.594q0-76.5 27.656-151.235a411.126 411.126 0 0 1 80.625-133.594q52.97-58.851 129.47-95.343 76.5-36.47 174.202-36.485 115.336 0 199.5 50.61 84.14 50.625 125.344 131.828l-124.75 85.922q-16.5-35.297-40.031-59.438t-50.61-38.265A227.438 227.438 0 0 0 538.16 2263a268.212 268.212 0 0 0-57.672-6.469q-61.219 0-106.531 24.719-45.328 24.726-75.328 64.156-30 39.422-45.313 89.438a338.461 338.461 0 0 0-15.297 99.453 324.152 324.152 0 0 0 17.657 106.53q17.648 51.188 50.015 90.032a249.878 249.878 0 0 0 77.688 62.39q45.304 23.532 99.453 23.532a261.008 261.008 0 0 0 58.844-7.062 223.393 223.393 0 0 0 58.265-22.36 220.577 220.577 0 0 0 51.203-39.437q23.532-24.118 37.672-58.25l133 76.5a251.304 251.304 0 0 1-57.093 82.984 366.736 366.736 0 0 1-83.563 60.61 426.31 426.31 0 0 1-99.453 37.671q-52.969 12.914-103.578 12.938-89.461 0-163.61-37.656-74.156-37.665-127.703-98.282a455.697 455.697 0 0 1-83.562-137.718q-30.024-77.086-30.016-157.125zm841.812-435.484h157.718v661.468q0 34.125 16.47 52.969 16.476 18.843 47.077 18.828a118.065 118.065 0 0 0 31.188-4.703 210.357 210.357 0 0 0 32.375-11.782l21.187 120.063q-31.78 15.305-74.156 23.547-42.375 8.226-76.5 8.234-74.156 0-114.766-39.422-40.593-39.422-40.593-112.422zm659.213 870.968q-75.328 0-135.36-25.89-60.023-25.876-101.796-70.032a308.986 308.986 0 0 1-64.156-101.812 332.395 332.395 0 0 1-22.36-121.235q0-64.734 22.36-122.406a309.078 309.078 0 0 1 64.156-101.797q41.765-44.133 101.797-70.031 60.023-25.899 135.36-25.906 75.327 0 134.765 25.906 59.437 25.898 101.234 70.031a309.292 309.292 0 0 1 64.14 101.797q22.36 57.68 22.36 122.406a332.395 332.395 0 0 1-22.36 121.235 313.912 313.912 0 0 1-63.562 101.812q-41.203 44.156-101.219 70.031-60.046 25.875-135.359 25.89zm-161.25-318.969q0 41.203 12.36 74.75 12.351 33.563 34.124 58.266a152.704 152.704 0 0 0 51.204 38.25 156.057 156.057 0 0 0 127.125 0 152.8 152.8 0 0 0 51.187-38.25q21.774-24.703 34.14-58.844 12.352-34.125 12.36-75.344 0-40.008-12.36-74.14-12.374-34.125-34.14-58.86a152.8 152.8 0 0 0-51.187-38.25 150.424 150.424 0 0 0-63.563-13.531 145.158 145.158 0 0 0-63.562 14.125 159.58 159.58 0 0 0-51.204 38.828q-21.773 24.727-34.125 58.86-12.375 34.125-12.359 74.14zm778.213 318.969q-95.344 0-144.766-61.203-49.453-61.196-49.437-181.25v-386.063h157.719v351.922q0 142.43 102.406 142.422 45.89 0 88.86-27.656 42.96-27.656 70.03-84.156v-382.532h157.72v435.485q0 24.726 8.827 35.312 8.813 10.594 28.844 11.781v134.172a339.197 339.197 0 0 1-39.437 5.89q-15.891 1.15-28.829 1.173-42.374 0-68.859-19.422-26.484-19.406-31.187-53.547l-3.532-49.437q-41.203 63.562-105.937 95.343-64.735 31.758-142.422 31.766zm794.711 0q-63.562 0-117.703-24.703a277.415 277.415 0 0 1-92.985-68.266q-38.836-43.547-60.609-101.812t-21.766-125.36q0-67.078 20.594-124.765 20.578-57.657 57.078-101.22a262.983 262.983 0 0 1 87.094-68.265q50.625-24.703 110.641-24.718 68.25 0 123 32.968 54.727 32.953 85.328 85.907v-350.735h157.719v677.938q0 24.726 8.234 35.312 8.25 10.594 28.25 11.781v134.172q-41.203 8.227-67.078 8.235-42.375 0-69.453-21.188-27.07-21.187-30.594-55.312l-3.53-38.844q-34.15 58.875-92.407 88.875-58.266 29.976-121.813 30zm41.204-134.172a148.166 148.166 0 0 0 45.89-7.64 161.562 161.562 0 0 0 43.547-21.782 189.973 189.973 0 0 0 35.906-32.953 137.221 137.221 0 0 0 24.125-41.203v-147.125a172.49 172.49 0 0 0-26.484-47.656 196.06 196.06 0 0 0-38.844-37.672 202.836 202.836 0 0 0-45.89-25.297 130.453 130.453 0 0 0-47.672-9.422q-35.32 0-65.328 15.297a155.045 155.045 0 0 0-51.204 41.781 201.043 201.043 0 0 0-32.953 60.625 215.165 215.165 0 0 0-11.766 70.61q0 38.859 12.938 71.796a186.741 186.741 0 0 0 35.312 57.672 160.54 160.54 0 0 0 53.563 38.844q31.172 14.133 68.86 14.125zm1151.334-92.984q0 52.968-21.187 92.984a195.191 195.191 0 0 1-58.266 67.094q-37.078 27.07-85.922 41.187-48.843 14.133-104.156 14.125h-403.719V2117.64h447.266q43.547 0 78.86 18.844a197.321 197.321 0 0 1 60.03 48.844 224.11 224.11 0 0 1 38.25 68.266 229.87 229.87 0 0 1 13.532 77.078 227.48 227.48 0 0 1-30.61 114.765q-30.609 53.555-89.437 79.453 71.79 21.188 113.578 75.922 41.766 54.727 41.781 137.11zm-510.812-481.391v210.688h216.563q41.18 0 70.015-28.25 28.828-28.243 28.844-77.688 0-48.234-26.485-76.5-26.484-28.242-65.312-28.25zm347.203 450.781a122.526 122.526 0 0 0-7.656-42.953 119.434 119.434 0 0 0-20.594-35.89 95.963 95.963 0 0 0-30.594-24.141 85.794 85.794 0 0 0-38.843-8.828h-249.516v220.11h241.281a105.754 105.754 0 0 0 41.781-8.235 100.367 100.367 0 0 0 33.547-22.953 111.743 111.743 0 0 0 30.594-77.11zm560.501 257.766q-75.328 0-135.36-25.89-60.023-25.876-101.796-70.032a308.986 308.986 0 0 1-64.156-101.812 332.395 332.395 0 0 1-22.36-121.235q0-64.734 22.36-122.406a309.078 309.078 0 0 1 64.156-101.797q41.765-44.133 101.797-70.031 60.023-25.899 135.36-25.906 75.327 0 134.765 25.906 59.437 25.898 101.234 70.031a309.292 309.292 0 0 1 64.14 101.797q22.36 57.68 22.36 122.406a332.395 332.395 0 0 1-22.36 121.235 313.912 313.912 0 0 1-63.562 101.812q-41.203 44.156-101.219 70.031-60.046 25.875-135.359 25.89zm-161.25-318.969q0 41.203 12.36 74.75 12.351 33.563 34.124 58.266a152.704 152.704 0 0 0 51.204 38.25 156.057 156.057 0 0 0 127.125 0 152.8 152.8 0 0 0 51.187-38.25q21.774-24.703 34.14-58.844 12.352-34.125 12.36-75.344 0-40.008-12.36-74.14-12.374-34.125-34.14-58.86a152.8 152.8 0 0 0-51.187-38.25 150.424 150.424 0 0 0-63.563-13.531 145.158 145.158 0 0 0-63.562 14.125 159.58 159.58 0 0 0-51.204 38.828q-21.773 24.727-34.125 58.86-12.375 34.125-12.359 74.14zm588.729-551.999h157.718v661.468q0 34.125 16.47 52.969 16.476 18.843 47.077 18.828a118.065 118.065 0 0 0 31.188-4.703 210.357 210.357 0 0 0 32.375-11.782l21.187 120.063q-31.781 15.305-74.156 23.547-42.375 8.226-76.5 8.234-74.156 0-114.766-39.422-40.593-39.422-40.593-112.422zm743.963 827.421q-31.78 14.133-77.687 28.25a326.592 326.592 0 0 1-96.516 14.125 224.348 224.348 0 0 1-61.797-8.234 136.12 136.12 0 0 1-50.609-26.485q-21.773-18.234-34.719-47.078-12.937-28.828-12.937-70.031v-354.281h-81.219v-121.235h81.219V2136.47h157.719v200.093h129.468v121.235h-129.468v301.312q0 32.953 17.062 46.5t41.781 13.531a144.857 144.857 0 0 0 48.25-8.234q23.532-8.25 37.672-14.14z"/><path fill="#7b7b7b" d="M3273.718 3539.782a224.696 224.696 0 0 1-77.371-13.455 178.722 178.722 0 0 1-64.588-40.368l16.819-22.874q28.258 25.576 58.533 37.676 30.276 12.11 66.607 12.11 45.744 0 73.67-19.175 27.91-19.175 27.92-53.486 0-16.147-7.064-27.248-7.063-11.1-21.192-18.838-14.13-7.727-34.986-13.793-20.862-6.054-48.441-12.782-29.612-6.718-51.468-13.456-21.871-6.718-35.994-16.148-14.128-9.413-21.193-22.874-7.064-13.452-7.065-34.312 0-26.239 10.092-45.75a90.192 90.192 0 0 1 27.92-32.294 128.317 128.317 0 0 1 41.04-19.174 185.681 185.681 0 0 1 49.451-6.392q41.03 0 72.661 13.792 31.616 13.798 49.114 35.322l-18.838 18.165q-17.502-20.183-45.414-30.276a173.858 173.858 0 0 0-59.542-10.092 159.708 159.708 0 0 0-36.667 4.037 88.343 88.343 0 0 0-29.938 12.784 62.99 62.99 0 0 0-20.184 22.538q-7.412 13.797-7.4 32.63 0 15.484 5.045 24.893 5.046 9.43 16.147 16.147 11.101 6.734 28.594 11.774 17.487 5.046 41.713 11.1 32.956 8.075 58.532 15.475 25.562 7.41 42.723 18.165 17.156 10.77 26.238 25.567 9.084 14.806 9.083 37.675 0 47.101-36.667 75.017-36.678 27.926-97.89 27.92zm359.26 0q-37.007 0-68.288-14.465a168.969 168.969 0 0 1-54.159-39.358 181.312 181.312 0 0 1-35.658-57.86 189.898 189.898 0 0 1-12.783-69.296 188.785 188.785 0 0 1 49.114-127.83 169.291 169.291 0 0 1 54.16-39.359 159.191 159.191 0 0 1 67.614-14.465q36.331 0 67.28 14.465a174.523 174.523 0 0 1 54.159 39.358 183.452 183.452 0 0 1 36.33 57.86 189.679 189.679 0 0 1-35.993 197.127 169.1 169.1 0 0 1-54.16 39.358 159.191 159.191 0 0 1-67.616 14.465zm-137.249-179.635a156.859 156.859 0 0 0 10.765 58.197 151.848 151.848 0 0 0 29.267 47.431 138.636 138.636 0 0 0 43.394 31.958 125.859 125.859 0 0 0 106.301 0 137.881 137.881 0 0 0 43.731-32.63 162.176 162.176 0 0 0 29.603-165.17 153.28 153.28 0 0 0-29.603-47.768 146.508 146.508 0 0 0-43.394-32.63 117.81 117.81 0 0 0-52.815-12.11 119.881 119.881 0 0 0-53.15 12.11 138.481 138.481 0 0 0-43.394 32.967 164.067 164.067 0 0 0-29.603 48.776 157.901 157.901 0 0 0-11.102 58.87zm398.965 172.907V3210.79h-49.114v-27.585h49.114v-11.438q0-64.588 26.239-100.582 26.238-35.984 72.66-35.994a126.732 126.732 0 0 1 39.022 6.056q18.828 6.054 30.95 16.146l-12.111 24.221a78.431 78.431 0 0 0-23.212-12.11 88.104 88.104 0 0 0-28.593-4.71q-34.312 0-52.814 27.248-18.513 27.249-18.502 79.052v12.11h99.573v27.586h-99.573v322.265zm354.555-16.819q-2.695 1.355-9.082 5.046a93.257 93.257 0 0 1-16.148 7.064 198.3 198.3 0 0 1-21.865 6.055 121.334 121.334 0 0 1-26.24 2.692 85.607 85.607 0 0 1-26.574-4.038 63.008 63.008 0 0 1-21.865-12.11 57.584 57.584 0 0 1-14.802-19.51q-5.392-11.432-5.382-26.912V3210.79h-49.114v-27.585h49.114v-119.757h33.64v119.757h81.407v27.585h-81.407v255.659q0 19.522 13.455 29.267a50.287 50.287 0 0 0 30.275 9.755q20.846 0 35.994-7.064 15.138-7.065 18.502-9.083zm502.568-333.031h33.64l-151.378 349.85h-28.257l-78.717-185.016-78.715 185.016h-28.258l-151.377-349.85h32.967l133.884 312.848 73.334-172.235-59.205-139.94h28.93l48.44 115.72 47.769-115.72h29.602l-59.205 139.94 73.334 172.235zm176.281 356.578a119.986 119.986 0 0 1-81.745-31.284 101.176 101.176 0 0 1-24.556-34.313 104.665 104.665 0 0 1-8.746-42.721 82.575 82.575 0 0 1 10.764-41.713 103.237 103.237 0 0 1 29.939-32.631q19.175-13.781 46.087-21.53 26.9-7.725 59.205-7.737a326.714 326.714 0 0 1 56.85 5.046 281.71 281.71 0 0 1 51.47 13.793v-34.312q0-49.782-28.259-79.053-28.257-29.266-76.697-29.267-25.578 0-54.16 10.765-28.604 10.77-58.196 30.948l-12.784-22.875q67.269-45.744 127.83-45.749 63.233 0 99.574 36.667 36.33 36.677 36.33 101.255v170.888q0 16.825 14.802 16.82v30.276a71.195 71.195 0 0 1-7.065 1.008c-2.47.221-4.604.337-6.392.337q-13.466 0-21.529-9.083a37.997 37.997 0 0 1-9.419-21.865v-28.93q-24.22 31.63-61.896 48.44-37.686 16.81-81.407 16.82zm6.727-26.911q39.012 0 71.652-14.802 32.625-14.79 50.123-39.021 10.754-14.129 10.765-26.912v-61.897a271.443 271.443 0 0 0-50.46-14.128 308.63 308.63 0 0 0-54.495-4.71q-26.24 0-47.769 5.719-21.539 5.724-37.002 15.81a73.23 73.23 0 0 0-23.885 24.557 62.393 62.393 0 0 0-8.41 31.958 81.692 81.692 0 0 0 6.728 32.967 77.383 77.383 0 0 0 18.838 26.575 89.813 89.813 0 0 0 28.594 17.492 96.676 96.676 0 0 0 35.321 6.392zm433.941-299.391q-47.101 1.356-82.416 27.92-35.322 26.586-49.45 72.998v218.656h-33.64v-349.85h32.294v86.117q18.165-36.993 48.104-60.215 29.928-23.21 64.251-26.575c4.479-.441 8.516-.673 12.11-.673h8.747zm195.11 326.302q-37.01 0-68.625-14.465a169.427 169.427 0 0 1-54.832-39.694 188.657 188.657 0 0 1-49.45-128.839 185.404 185.404 0 0 1 49.114-126.821 167.255 167.255 0 0 1 54.16-38.686q31.284-14.128 67.614-14.128 36.993 0 68.625 14.465a170.814 170.814 0 0 1 54.495 39.022 178.802 178.802 0 0 1 35.659 57.187 187.534 187.534 0 0 1 12.783 68.961v8.41c0 3.363-.232 5.497-.673 6.39h-306.792a155.85 155.85 0 0 0 14.129 56.178 159.409 159.409 0 0 0 30.611 44.742 137.57 137.57 0 0 0 42.723 29.602 126.029 126.029 0 0 0 51.805 10.765 128.044 128.044 0 0 0 35.657-5.046 145.543 145.543 0 0 0 32.63-13.792 117.93 117.93 0 0 0 26.912-21.193 99.434 99.434 0 0 0 18.502-27.248l29.602 8.074a111.58 111.58 0 0 1-21.865 34.648 148.032 148.032 0 0 1-33.64 27.248 171.673 171.673 0 0 1-42.05 17.828 174.322 174.322 0 0 1-47.094 6.392zm137.249-195.108q-2.019-30.938-13.792-56.515a151.152 151.152 0 0 0-30.276-44.067 136.053 136.053 0 0 0-42.722-28.93 133.884 133.884 0 0 0-103.61 0 135.927 135.927 0 0 0-42.721 28.93 140.034 140.034 0 0 0-29.604 44.404 170.322 170.322 0 0 0-13.119 56.178z"/></svg>