<svg xmlns="http://www.w3.org/2000/svg" role="img" viewBox="-1.82 -3.32 250.64 209.39"><title>Cloudical (member) logo</title><defs><style>.cls-2{fill:#dc0a2f}</style></defs><path id="C" fill="#1d1d1b" stroke="#1d1d1b" stroke-miterlimit="10" stroke-width=".3" d="M123.379 39.377c-18.9 0-33.3 14.4-33.3 32.4s14.4 32.4 33.3 32.4a33.58 33.58 0 0 0 26.1-12.6l-6.3-6.3a25.09 25.09 0 0 1-19.8 9.9 23.4 23.4 0 0 1-.008-46.8h.008a24 24 0 0 1 19.35 9.45l6.3-6.3a32.46 32.46 0 0 0-25.65-12.15"/><g id="Klammer"><path d="M61.39 57.78h-8V14.178c0-7.728 2.881-12.5 9.21-12.5h34.189v7h-31.83c-2.483.022-3.608 1.21-3.57 5.5z" class="cls-2"/><path d="M53.999 69.637s7.39-1.84 7.39-12.28v-.4h-8v.4c0 5.65-2.97 8.6-8.62 8.6v7.37c5.65 0 8.62 2.95 8.62 8.6h8c0-10.44-7.39-12.28-7.39-12.28z" class="cls-2"/></g><path d="M61.389 81.133h-8v43.604c0 7.727 2.882 12.5 9.21 12.5h34.19v-7h-31.83c-2.483-.023-3.608-1.21-3.57-5.5z" class="cls-2"/><g id="Klammer-2" data-name="Klammer"><path d="M181.949 57.78h8V14.178c0-7.728-2.882-12.5-9.21-12.5h-34.19v7h31.83c2.483.022 3.608 1.21 3.57 5.5z" class="cls-2"/><path d="M189.339 69.637s-7.39-1.84-7.39-12.28v-.4h8v.4c0 5.65 2.97 8.6 8.62 8.6v7.37c-5.65 0-8.62 2.95-8.62 8.6h-8c0-10.44 7.39-12.28 7.39-12.28z" class="cls-2"/></g><path d="M181.95 81.133h7.999v43.604c0 7.727-2.882 12.5-9.21 12.5h-34.19v-7h31.83c2.483-.023 3.608-1.21 3.57-5.5z" class="cls-2"/><path fill="#e21c3d" d="M182.328 1.884c1.505.847 3.194 1.273 4.368 2.8a12.02 12.02 0 0 1 2.432 7.552c.048 14.506.009 29.013.043 43.52a16.81 16.81 0 0 0 .494 4.268c.963 3.594 3.2 5.004 7.219 5.498.86.106 1.087.316 1.054 1.133a25.403 25.403 0 0 0 .023 4.378c.25 1.856-.713 2.247-2.21 2.33a7.055 7.055 0 0 0-6.305 6.633c-.675 15.564-.014 31.135-.355 46.697-.077 3.526-1.092 6.92-4.678 8.776a7.43 7.43 0 0 1-3.48.917c-11.205-.005-22.41-.022-33.615.025-1.171.005-1.494-.337-1.393-1.45.168-1.866-.773-4.378.373-5.432 1.01-.928 3.49-.286 5.32-.288 8.227-.012 16.457-.1 24.682.041 3.328.057 4.73-1.052 4.73-4.73q-.004-21.76-.022-43.52a18.923 18.923 0 0 1 .45-3.64 11.134 11.134 0 0 1 6.316-8.085c-4.757-2.338-6.684-6.42-6.714-11.408-.088-14.722-.042-29.446-.023-44.169.004-3.003-1.218-4.795-4.696-4.746-9.633.136-19.27.025-28.904.075-1.187.006-1.605-.241-1.526-1.494.118-1.887.03-3.787.03-5.681zm-85.443 0c0 1.894-.087 3.794.03 5.68.08 1.253-.338 1.501-1.525 1.495-9.85-.05-19.701-.03-29.552-.026-2.575 0-3.6 1.082-3.723 3.686-.723 15.344-.1 30.696-.324 46.043a11.282 11.282 0 0 1-6.472 10.573c1.461 1.027 3.047 1.799 4.139 3.376a12.27 12.27 0 0 1 2.323 7.101q.056 20.297-.011 40.594c-.008 1.997.238 3.96.377 5.935.136 1.933 1.434 2.892 3.674 2.893 9.797.004 19.593.027 29.39-.029 1.296-.007 1.839.221 1.706 1.643a35.593 35.593 0 0 0-.017 4.543c.028.78-.232 1.008-1.008 1.006-11.529-.021-23.058.03-34.586-.045-3.029-.02-6.182-3.092-6.947-6.537a26.687 26.687 0 0 1-.697-5.851c.027-14.289 0-28.578.024-42.867.007-3.782-2.034-7.373-6.693-7.767-1.143-.097-2.164-.5-1.776-2.054a4.906 4.906 0 0 0 .013-1.133c.006-1.407-.421-3.034.147-4.157.527-1.04 2.351-.682 3.58-1.05 2.794-.838 4.71-3.855 4.714-7.044.013-14.885-.047-29.77.045-44.653.021-3.404.66-6.747 3.283-9.339 1.09-1.076 2.54-1.367 3.825-2.016z"/><path fill="#0f1415" d="M123.469 103.564a31.549 31.549 0 0 1-19.43-5.543 30.804 30.804 0 0 1-13.35-20.306 31.408 31.408 0 0 1 2.918-21.067c4.794-9.244 12.473-14.712 22.615-16.743a33.038 33.038 0 0 1 22.898 3.235 35.255 35.255 0 0 1 9.144 7.374c.444.484.652.937 0 1.55q-2.658 2.505-5.165 5.166c-.653.695-1.036.511-1.52-.091a23.376 23.376 0 0 0-40.7 8.655c-1.968 7.763-.138 14.817 5.247 20.868a22.03 22.03 0 0 0 18.386 7.755 24.43 24.43 0 0 0 17.656-9.08c.73-.856.994-.636 1.55-.076 1.641 1.65 3.27 3.313 4.945 4.927.65.627.627 1.054.023 1.737a34.757 34.757 0 0 1-19.178 11.255 23.696 23.696 0 0 1-6.04.384z"/><path fill="#697172" d="M54.976 186.59c-.681-7.265 6.409-15.353 15.845-14.87 7.324.374 15.073 6.196 14.44 16.057a15.15 15.15 0 0 1-15.833 13.607c-7.602-.307-14.942-6.576-14.452-14.794zm15.104-10.248a9.948 9.948 0 0 0-10.432 10.282 10.46 10.46 0 0 0 20.916-.17 10.054 10.054 0 0 0-10.484-10.112zm52.146 10.168c0-4.383.031-8.765-.023-13.147-.013-1.007.274-1.283 1.272-1.266 3.515.06 7.046-.174 10.547.066a14.379 14.379 0 0 1 12.887 11.464c1.275 6.856-1.438 11.967-7.16 15.57a11.725 11.725 0 0 1-6.02 1.82c-3.408.06-6.819-.035-10.225.045-1.148.026-1.307-.421-1.297-1.405.044-4.382.019-8.765.02-13.147zm4.872-.14c0 2.972-.01 5.943.012 8.914.003.467-.282 1.205.625 1.188 2.262-.04 4.576.367 6.778-.148a9.747 9.747 0 0 0 7.79-11.12 9.148 9.148 0 0 0-5.243-7.505c-2.917-1.373-5.985-1.326-9.075-1.372-.917-.014-.894.494-.891 1.13.011 2.971.005 5.942.004 8.913zm65.839 14.662c1.357-3.298 2.647-6.412 3.922-9.532q3.66-8.962 7.312-17.927c.37-.906.783-1.547 2.063-1.501 3.423.121 3.368.052 4.736 3.404 2.66 6.517 5.395 13.002 8.091 19.504.669 1.612 1.246 3.264 1.982 4.843.446.957.274 1.191-.756 1.228-3.937.14-3.936.167-5.444-3.824-1.385-3.666-1.385-3.666-5.128-3.666-2.435 0-4.873.062-7.304-.028a1.711 1.711 0 0 0-1.883 1.32c-.71 1.823-1.54 3.602-2.199 5.443-.206.576-.407.757-.973.746-1.397-.029-2.795-.01-4.42-.01zm14.324-23.085l-4.348 10.995h8.67l-4.322-10.995zM95.585 181.87c0 2.599-.102 5.18-.04 7.792-.19 2.691 2.759 6.723 6.211 7.139 4.404.53 7.078-2.265 8.134-5.468a8.866 8.866 0 0 0 .317-2.85c-.004-4.98.032-9.96-.028-14.94-.013-1.118.258-1.467 1.42-1.454 3.478.042 3.479-.013 3.479 3.428 0 4.222-.045 8.445.012 12.667.065 4.8-1.702 8.663-5.754 11.304a12.163 12.163 0 0 1-18.299-7.038 11.473 11.473 0 0 1-.328-3.175c.009-5.25.04-10.502-.024-15.752-.014-1.149.31-1.445 1.442-1.432 3.458.04 3.458-.011 3.458 3.446zm92.527-1.228a18.511 18.511 0 0 0-4.316-3.432c-3.626-1.825-9.437-.963-12.088 2.181-2.67 3.168-3.605 6.844-2.084 10.708a10.48 10.48 0 0 0 17.505 3.33c.95-1.055 1.395-.743 2.444.053.332.422.768.76 1.136 1.156.576.62.494 1.004-.17 1.678a15.24 15.24 0 0 1-8.697 4.81c-5.899.916-10.93-.81-14.567-5.368a14.792 14.792 0 0 1 11.061-23.972 15.003 15.003 0 0 1 12.1 4.683c.6.62.713.762-.082 1.512a23.507 23.507 0 0 0-2.242 2.66zM3.057 186.537c-.514-7.768 6.528-14.92 14.778-14.8a16.728 16.728 0 0 1 10.659 3.965c1.273 1.031 1.27 1.625.138 2.788-.618.635-1.198 1.307-1.796 1.963-.624-.598-1.205-1.25-1.879-1.784a10.479 10.479 0 0 0-11.12-1.523 9.59 9.59 0 0 0-5.988 8.181 10.391 10.391 0 0 0 14.597 10.66 9.83 9.83 0 0 0 3.725-2.706c.542-.638.93-.813 1.658-.105 2.413 2.35 2.527 2.404-.03 4.616a14.466 14.466 0 0 1-13.737 3.072c-5.958-1.535-9.311-5.528-10.77-11.419a12.354 12.354 0 0 1-.235-2.908zm31.777-.014c0-4.385.03-8.771-.023-13.156-.012-1 .266-1.268 1.268-1.274 3.628-.02 3.627-.061 3.627 3.601 0 6.389.046 12.778-.036 19.165-.018 1.395.397 1.692 1.715 1.659 3.679-.093 7.363.003 11.043-.055 1-.016 1.272.265 1.275 1.267.009 3.304.053 3.303-3.276 3.303-4.71 0-9.421-.05-14.13.034-1.267.022-1.51-.38-1.49-1.551.068-4.33.027-8.662.027-12.993zm190.703.101c0-4.385.03-8.771-.022-13.156-.012-1.029.232-1.383 1.329-1.377 3.24.018 3.24-.035 3.24 3.178 0 6.605.03 13.21-.027 19.815-.01 1.15.31 1.45 1.443 1.429 3.734-.072 7.47.007 11.206-.05 1.029-.015 1.384.231 1.378 1.329-.019 3.241.034 3.241-3.178 3.241-4.656 0-9.312-.04-13.967.028-1.154.017-1.446-.314-1.429-1.444.066-4.33.027-8.662.027-12.993zm-67.575.034c0 4.328-.022 8.656.017 12.983.008.958-.106 1.428-1.278 1.426-3.612-.009-3.612.05-3.612-3.618 0-7.952.03-15.904-.03-23.856-.01-1.242.344-1.524 1.535-1.503 3.367.06 3.368.004 3.368 3.37v11.198z"/><path fill="#fefefe" d="M70.08 176.343a10.054 10.054 0 0 1 10.484 10.11 10.46 10.46 0 0 1-20.916.17 9.948 9.948 0 0 1 10.432-10.28zm57.019 10.027c0-2.97.006-5.942-.005-8.913-.003-.636-.026-1.144.89-1.13 3.091.046 6.16 0 9.077 1.372a9.148 9.148 0 0 1 5.241 7.505 9.747 9.747 0 0 1-7.79 11.12c-2.201.515-4.515.108-6.777.148-.907.017-.622-.72-.625-1.188-.022-2.971-.012-5.942-.011-8.913zm80.162-8.423l4.323 10.995h-8.67l4.347-10.995z"/></svg>