<?xml version="1.0" encoding="utf-8"?>
<!-- Generator: Adobe Illustrator 21.1.0, SVG Export Plug-In . SVG Version: 6.00 Build 0)  -->
<svg version="1.1" id="Layer_1" xmlns="http://www.w3.org/2000/svg" xmlns:xlink="http://www.w3.org/1999/xlink" x="0px" y="0px"
	 viewBox="-2.759999999999991 4.19687620000002 507.52000000000004 328.64" style="enable-background:new 0 0 500 337.4831238;" xml:space="preserve">
<style type="text/css">
	.st0{fill:#4DCEF3;}
</style>
<g id="cloudevents-transparent">
	<g id="text" transform="translate(118.000000, 284.000000)">
		<path id="cloudevents" d="M-79.1860733,31.2715263l4.4809494,6.5593414
			c-3.4468842,2.9344482-8.4448624,4.5742836-13.873703,4.5742836c-12.581131,0-22.3185806-9.1485596-22.3185806-22.8713989
			c0-12.7734623,9.8236237-22.8714008,22.663269-22.8714008c4.9979782,0,9.3927612,1.4672213,13.0981598,4.1427441
			l-4.308609,6.99088c-2.4989929-1.898757-5.6011887-3.1070571-8.7895508-3.1070571
			c-7.5831451,0-13.6151962,6.6456509-13.6151962,14.8448343c0,8.889637,6.3767395,14.8448334,13.6151962,14.8448334
			C-85.3042908,34.3785858-81.5988846,33.1702843-79.1860733,31.2715263z M-55.867897-23.3609123v64.7303772h-8.8757324v-64.7303772
			H-55.867897z M-22.1229057-3.3376489c12.8396473,0,22.4047546,10.0979385,22.4047546,22.8714008
			s-9.5651073,22.8713989-22.4047546,22.8713989c-12.9258118,0-22.404747-10.0979385-22.404747-22.8713989
			S-35.0487175-3.3376489-22.1229057-3.3376489z M-8.7662249,19.5337524c0-8.1991835-5.6011848-14.8448343-13.3566809-14.8448343
			c-7.7554874,0-13.3566742,6.6456509-13.3566742,14.8448343c0,8.112875,5.6011868,14.8448334,13.3566742,14.8448334
			C-14.3674097,34.3785858-8.7662249,27.6466274-8.7662249,19.5337524z M50.3133659,41.3694649h-8.4448547l-0.2585258-6.9045715
			c-3.2745438,5.0921249-8.531044,7.940258-14.1322289,7.940258c-5.7735271,0-9.8236198-2.0713692-12.4087772-5.5236549
			c-3.0160275-4.142746-3.8777514-9.9253273-3.8777514-16.4846725V-2.3019633h8.8757391v21.9220219
			c0,3.9701309,0.1723423,8.3717976,2.068119,11.3925495c1.292593,2.0713692,3.6192379,3.3659782,7.1522903,3.3659782
			c4.6532898,0,9.3065948-3.1933651,12.1502647-7.7676449V-2.3019633h8.8757248V41.3694649z M105.6013947-23.3609123v64.7303772
			h-8.44487l-0.2585144-5.7825775c-3.1021957,4.574276-8.7895584,6.818264-13.8737106,6.818264
			c-12.3226089,0-21.3706779-10.1842461-21.3706779-22.9577084c0-11.7377739,8.6172142-22.7850914,21.5430336-22.7850914
			c4.9117966,0,10.0821304,2.0713711,13.5290146,5.6962729v-25.7195358H105.6013947z M96.7256699,10.9893408
			c-2.9298553-4.1427426-7.7554932-6.3004227-12.0640945-6.3004227c-9.4789352,0-13.9598846,7.7676458-13.9598846,14.9311399
			c0,7.7676449,5.2565002,14.7585278,13.7875443,14.7585278c4.4809418,0,9.9959564-2.5892162,12.2364349-7.7676449V10.9893408z
			 M125.9035263,21.7777386c0.6032257,7.1634941,5.4288559,13.1186924,13.1843338,13.1186924
			c5.7735443,0,9.9959717-2.1576805,12.6673126-6.9045753l6.2043915,4.0564384
			c-4.480957,7.0771828-10.3406677,10.3568573-19.3025513,10.3568573c-13.7013626,0-21.7153625-9.9253235-21.7153625-22.7850933
			c0-13.032383,9.4789352-22.9577065,21.7153625-22.9577065c11.7194214,0,20.2504578,8.6307163,20.2504578,20.2821827
			c0,1.5535316-0.1723633,3.5385952-0.4308777,4.8332043H125.9035263z M149.687027,14.9594727
			c-0.3446808-5.9551973-4.7394562-10.8747044-10.8576813-10.8747044c-6.7214203,0-10.8576813,4.746892-12.4087601,10.8747044
			H149.687027z M195.7546539-2.3019633h9.565094l-17.234436,43.6714287h-7.5831299L163.9571381-2.3019633h9.8236237
			l10.9438629,32.3651886h0.1723328L195.7546539-2.3019633z M219.1589813,21.7777386
			c0.6032257,7.1634941,5.4288635,13.1186924,13.1843414,13.1186924c5.7735291,0,9.9959717-2.1576805,12.6672974-6.9045753
			l6.2043915,4.0564384c-4.4809418,7.0771828-10.3406525,10.3568573-19.3025513,10.3568573
			c-13.701355,0-21.7153778-9.9253235-21.7153778-22.7850933c0-13.032383,9.4789581-22.9577065,21.7153778-22.9577065
			c11.7194214,0,20.2504425,8.6307163,20.2504425,20.2821827c0,1.5535316-0.172348,3.5385952-0.4308624,4.8332043H219.1589813z
			 M242.9424896,14.9594727c-0.3446808-5.9551973-4.7394562-10.8747044-10.8576813-10.8747044
			c-6.7214203,0-10.8576965,4.746892-12.4087677,10.8747044H242.9424896z M263.5031433-2.3019633h8.4448853l0.2585144,6.9045744
			c3.2745361-5.0921226,8.5310364-7.9402599,14.1322327-7.9402599c5.7735291,0,9.8236084,2.0713711,12.4087524,5.5236583
			c3.0160522,4.142746,3.8777771,9.9253263,3.8777771,16.4846725v22.6987839h-8.8757324V19.447443
			c0-3.9701281-0.1723328-8.3717928-2.0681458-11.3925447c-1.2925415-2.0713711-3.6192322-3.3659801-7.1522827-3.3659801
			c-4.6532898,0-9.3065796,3.1933661-12.1502686,7.7676458v28.9129009h-8.8757324V-2.3019633z M338.3522644,5.3793755h-11.9779358
			v18.9875774c0,1.121994,0,2.1576786,0.0861816,3.4522877c0.2585144,4.1427422,1.6372375,6.5593452,5.5150146,6.5593452
			c1.8957825,0,3.5330505-0.5178452,4.9118042-1.2083015l2.5851746,6.9908791
			c-2.3266907,1.2946091-5.6873779,2.0713692-8.7033997,2.0713692c-6.2905579,0-10.2544861-2.9344368-11.9779358-7.4224129
			c-0.947876-2.4165993-1.292572-5.4373493-1.292572-8.6307163V5.3793755h-5.6873474v-7.6813388h5.6873474l0.4308777-10.2705517
			h8.4448547v10.2705517h11.9779358V5.3793755z M375.5440979,1.6681668l-5.1702881,5.6099658
			c-1.9819336-1.812448-5.5150146-3.3659785-8.617218-3.3659785c-3.5330505,0-5.9458618,2.0713732-5.9458618,5.1784296
			c0,3.1933661,3.9638977,4.7468939,8.0140076,6.3867311c5.6873474,2.2439852,12.753479,5.3510427,12.753479,13.1186876
			c0,9.7527142-7.7554932,13.8091488-16.0280151,13.8091488c-6.2044067,0-11.8917847-2.4165993-15.6833191-6.9908829
			l5.8596802-5.0921192c3.0160217,3.1070576,6.0320435,4.7468929,9.7374573,4.7468929
			c3.7915649,0,7.2384644-1.8987579,7.2384644-5.9551964c0-3.3659763-3.9638977-4.919508-8.2725525-6.6456509
			c-5.6873474-2.3302937-12.150238-4.919508-12.150238-12.6871538c0-8.8896389,6.9799194-13.1186905,14.4768982-13.1186905
			C366.9269104-3.3376489,371.9248657-1.6115062,375.5440979,1.6681668z"/>
	</g>
	<g id="icon" transform="translate(171.000000, 150.000000)">
		<path id="Fill-1" class="st0" d="M152.2614288,32.7875977c22.1291504,0.000988,46.1723328-14.5718937,51.5767975-36.1985054
			c6.2056732-24.8339005-8.3381958-50.4260368-32.7377014-57.5743675c-4.668396-1.3676033-9.4621582-1.8125534-14.3102112-1.8046112
			c-7.1263275,0.0115776-14.2523041,0.0029716-21.571106,0.0029716c0.497818-18.2039604-5.9259949-33.2297401-20.3243942-44.4176979
			c-9.1805038-7.1337738-19.7502136-10.4717331-31.317894-10.0995636
			c-13.10495,0.4211349-24.421566,5.3731537-33.7175674,14.6982727c-9.2713242,9.3006363-14.1108246,20.678154-14.9877129,33.513916
			c-6.745615-2.3292923-13.3474426-4.6092911-20.0535812-6.9246902
			c1.7863503-22.1536102,19.6876945-52.7536774,54.3874474-60.7859497
			c39.5810394-9.1626892,76.2625885,16.6742477,84.8718719,53.0173264c3.2900543,0,6.7127228-0.3238678,10.0570679,0.0512848
			c26.869278,3.0137558,45.9262238,17.1354141,56.5479126,41.9613724
			c13.1250153,30.6754856,1.9748993,66.8038635-25.4327087,84.7736053
			c-11.3923187,7.469223-29.3798523,11.1241074-42.9355774,11.1548729"/>
		<path id="Fill-3" class="st0" d="M136.3590393,54.0302048c0,0-32.5126724,0.2413406-59.2691269,0.0550232
			c-28.1410751-0.1959381-50.845089-18.2558327-57.857254-42.8071518
			c-6.0893068-21.3185368-1.2024345-40.4177856,13.4276028-57.0242538
			c9.3083267-10.5656128,20.8556442-17.3378258,34.8254395-19.7464142
			c23.5527496-4.0606079,47.2590637,6.4575958,59.9456482,26.6582069
			c8.1900024,13.0401649,11.2594147,27.2194786,9.0623169,42.4961739c-0.137619,0.9567921-0.3603516,1.4633791-1.493988,1.4613845
			c-19.003273-0.0314865-38.0062408-0.0231977-57.0091934-0.028502c-0.2676086,0-0.5348892-0.0576973-0.9447937-0.1054363
			c-0.0325775-0.5712295-0.0887604-1.103334-0.0894241-1.6357777C76.9502869-2.5030587,76.949295-8.3599138,76.953949-14.2164431
			c0.0019913-2.3770857,0.2616272-2.6250753,2.6834488-2.6250753c10.6926193-0.0006638,21.385231-0.0003242,32.0778351-0.0003242
			c0.6595612,0,1.3191223,0,2.2486343,0c-0.3021927-0.9408951-0.4860382-1.7233067-0.796196-2.452013
			c-5.6252289-13.2281513-15.5229645-21.4514828-29.6859283-23.809679
			c-14.1995163-2.3641586-26.5985489,1.8383484-35.9261627,12.9264545
			c-14.3447952,17.0517082-9.8538628,44.2088661,8.9738922,56.4805527
			c6.4849167,4.2267075,13.5742035,6.3259735,21.3337021,6.3183479c26.4825287-0.0268631,58.4426727-0.00597,58.4426727-0.00597
			L136.3590393,54.0302048"/>
		<path id="Fill-4" class="st0" d="M7.2066226,27.9347649c4.4648862,5.6478348,8.8104591,11.1450691,13.1287556,16.607563
			C2.196116,55.9577904-28.3823109,56.4016037-49.7035942,34.7968864
			c-21.5224342-21.8089275-22.8628197-56.8185081-2.9483223-80.3739014
			C-32.4563904-69.4646988-0.363376-71.2211075,20.3800755-58.6274261
			c-4.3163223,5.4482574-8.6566334,10.9263039-13.1724701,16.6264267
			c-10.2556915-4.4467735-20.9962082-4.5986862-31.6190491,0.4365349
			c-7.141386,3.3850594-12.6574154,8.6284485-16.5668201,15.5369015
			c-8.0949059,14.3054104-6.2831841,32.0375671,4.5247116,44.3899765
			C-26.1794529,30.1055317-8.9848385,35.1433945,7.2066226,27.9347649"/>
	</g>
</g>
</svg>
