<svg xmlns="http://www.w3.org/2000/svg" role="img" viewBox="-3.55 -5.80 353.86 67.36"><title>CloudQuery (member) logo</title><style>svg {enable-background:new 0 0 347 56}</style><style>.st0{fill:#29235c}</style><path d="M69.5 17.9c1.4-2.5 3.4-4.5 5.9-6 2.5-1.4 5.2-2.2 8.3-2.2 3.6 0 6.7.9 9.3 2.6 2.7 1.7 4.6 4.2 5.8 7.3h-5.1c-.9-2-2.2-3.5-3.9-4.5-1.7-1.1-3.7-1.6-6.1-1.6-2.3 0-4.3.5-6.1 1.6-1.8 1.1-3.2 2.6-4.3 4.5-1 2-1.5 4.2-1.5 6.9 0 2.6.5 4.9 1.5 6.8 1 2 2.5 3.5 4.3 4.5 1.8 1.1 3.9 1.6 6.1 1.6 2.4 0 4.4-.5 6.1-1.6 1.7-1 3-2.6 3.9-4.5h5.1c-1.2 3.1-3.2 5.5-5.8 7.2-2.7 1.7-5.8 2.6-9.3 2.6-3 0-5.8-.7-8.3-2.1-2.5-1.4-4.4-3.4-5.9-5.9-1.4-2.5-2.2-5.4-2.2-8.6.1-3.2.8-6.1 2.2-8.6zm39.1-9.5v34.7h-4.3V8.4h4.3zm9.7 33.1c-2-1.1-3.5-2.7-4.6-4.7-1.1-2-1.7-4.4-1.7-7 0-2.6.6-4.9 1.7-7 1.1-2 2.7-3.6 4.7-4.6 2-1.1 4.2-1.6 6.6-1.6s4.6.5 6.6 1.6 3.5 2.6 4.7 4.6c1.1 2 1.7 4.3 1.7 7s-.6 5-1.8 7c-1.2 2-2.8 3.6-4.8 4.7s-4.2 1.6-6.7 1.6c-2.2 0-4.4-.5-6.4-1.6zm10.9-3.2c1.3-.7 2.4-1.8 3.3-3.2.8-1.4 1.2-3.2 1.2-5.3 0-2.1-.4-3.8-1.2-5.3-.8-1.4-1.9-2.5-3.2-3.2-1.3-.7-2.7-1.1-4.3-1.1-1.6 0-3 .4-4.3 1.1-1.3.7-2.3 1.8-3.1 3.2-.8 1.4-1.2 3.2-1.2 5.3 0 2.1.4 3.9 1.1 5.3.8 1.4 1.8 2.5 3.1 3.2 1.3.7 2.7 1.1 4.2 1.1 1.6 0 3-.4 4.4-1.1zm35.6-21.2v25.7h-4.3V39c-.8 1.3-1.9 2.3-3.4 3.1-1.5.7-3.1 1.1-4.8 1.1-2 0-3.8-.4-5.4-1.2-1.6-.8-2.9-2.1-3.8-3.7-.9-1.7-1.4-3.7-1.4-6.1V17.1h4.2v14.5c0 2.5.6 4.5 1.9 5.8 1.3 1.4 3 2 5.3 2s4.1-.7 5.4-2.1c1.3-1.4 2-3.5 2-6.1V17.1h4.3zm5 5.8c1.1-2 2.5-3.5 4.4-4.6 1.9-1.1 3.9-1.6 6.3-1.6 2 0 3.9.5 5.6 1.4 1.7.9 3 2.1 3.9 3.6V8h4.3v34.7H190v-4.8c-.8 1.5-2.1 2.8-3.8 3.8-1.7 1-3.6 1.5-5.8 1.5-2.3 0-4.4-.6-6.2-1.7-1.9-1.1-3.3-2.7-4.4-4.7-1.1-2-1.6-4.3-1.6-6.9 0-2.7.6-5.1 1.6-7zm19 1.9c-.8-1.4-1.8-2.5-3.2-3.3-1.3-.8-2.8-1.1-4.4-1.1-1.6 0-3 .4-4.4 1.1-1.3.8-2.4 1.8-3.1 3.3-.8 1.4-1.2 3.1-1.2 5.1 0 2 .4 3.7 1.2 5.1.8 1.5 1.8 2.6 3.1 3.3 1.3.8 2.8 1.1 4.4 1.1 1.6 0 3.1-.4 4.4-1.1 1.3-.8 2.4-1.9 3.2-3.3.8-1.5 1.2-3.1 1.2-5.1 0-2-.4-3.7-1.2-5.1z" class="st0"/><path d="M236.2 49l-6.5-6.5c-1.6.4-3.2.7-4.9.7-3 0-5.8-.7-8.3-2.1-2.5-1.4-4.5-3.4-5.9-6s-2.2-5.4-2.2-8.6c0-3.2.7-6.1 2.2-8.6s3.4-4.5 5.9-6c2.5-1.4 5.3-2.1 8.3-2.1 3.1 0 5.8.7 8.3 2.1 2.5 1.4 4.5 3.4 5.9 5.9 1.4 2.5 2.2 5.4 2.2 8.6 0 3.1-.7 5.9-2.1 8.4s-3.3 4.5-5.7 5.9l8.3 8.2h-5.5zm-21.9-15.7c1 2 2.5 3.5 4.3 4.5 1.8 1.1 3.9 1.6 6.2 1.6 2.3 0 4.3-.5 6.2-1.6 1.8-1.1 3.3-2.6 4.3-4.5 1-2 1.6-4.3 1.6-6.8 0-2.6-.5-4.9-1.6-6.9-1-2-2.5-3.5-4.3-4.5-1.8-1.1-3.9-1.6-6.2-1.6-2.3 0-4.4.5-6.2 1.6-1.8 1.1-3.2 2.6-4.3 4.5-1 2-1.6 4.2-1.6 6.9 0 2.5.5 4.8 1.6 6.8zm54.1-16.2v25.7h-4.3V39c-.8 1.3-1.9 2.3-3.4 3.1-1.5.7-3.1 1.1-4.8 1.1-2 0-3.8-.4-5.4-1.2-1.6-.8-2.9-2.1-3.8-3.7-.9-1.7-1.4-3.7-1.4-6.1V17.1h4.2v14.5c0 2.5.6 4.5 1.9 5.8 1.3 1.4 3 2 5.3 2s4.1-.7 5.4-2.1c1.3-1.4 2-3.5 2-6.1V17.1h4.3zm29.1 14.5H277c.2 2.5 1 4.5 2.6 5.9 1.6 1.4 3.5 2.1 5.7 2.1 1.8 0 3.4-.4 4.6-1.3 1.2-.9 2.1-2 2.6-3.4h4.6c-.7 2.5-2.1 4.5-4.1 6-2.1 1.5-4.6 2.3-7.7 2.3-2.4 0-4.6-.5-6.5-1.6-1.9-1.1-3.4-2.7-4.5-4.7s-1.6-4.4-1.6-7c0-2.7.5-5 1.6-7s2.6-3.5 4.5-4.6c1.9-1.1 4.1-1.6 6.6-1.6 2.4 0 4.6.5 6.5 1.6 1.9 1.1 3.3 2.5 4.3 4.4 1 1.9 1.5 4 1.5 6.3-.1.8-.1 1.7-.2 2.6zm-5.4-7.7c-.7-1.2-1.7-2.1-2.9-2.7-1.2-.6-2.6-.9-4.1-.9-2.2 0-4 .7-5.5 2.1-1.5 1.4-2.4 3.3-2.6 5.7h16.2c0-1.6-.4-3-1.1-4.2zm18.6-6c1.4-.8 3.1-1.2 5.1-1.2v4.4h-1.1c-4.8 0-7.2 2.6-7.2 7.8v14h-4.3V17.1h4.3v4.2c.8-1.5 1.8-2.6 3.2-3.4zm33-.8l-15.5 37.8h-4.4l5.1-12.4-10.4-25.4h4.7l8.1 20.8 8-20.8h4.4z" class="st0"/><circle cx="34.5" cy="24.5" r="4.1" class="st0"/><circle cx="20.8" cy="24.5" r="4.1" class="st0"/><path fill="#39a935" d="M12.9 29.7v-.2c-.6-1.9-.7-3.9-.5-6 .8-7.4 7-13.3 14.4-13.7 4.3-.3 8.4 1.2 11.5 4.2 3.1 2.9 4.9 6.9 4.9 11.2 0 1.5-.2 3-.6 4.4v.1h9c.3-1.5.4-3 .4-4.5 0-6.7-2.8-13.1-7.7-17.6C39.4 3 32.9.7 26.1 1.2 13.8 1.9 4.2 11.7 3.5 23.9c-.1 2 0 3.9.4 5.8h9z"/><path fill="#ab79b2" d="M41.1 33l-1 1.4c-2.9 4-7.6 6.4-12.5 6.4s-9.6-2.4-12.5-6.4l-1-1.4-6.3 6.3.8 1c4.6 5.9 11.5 9.2 19 9.2 3.6 0 7.2-.8 10.4-2.4l1.3 1.3c1.2 1.2 2.7 1.8 4.3 1.8 1.6 0 3.1-.6 4.3-1.8 1.1-1.1 1.8-2.7 1.8-4.3 0-1.6-.6-3.2-1.8-4.3L41.1 33z"/></svg>