<svg xmlns="http://www.w3.org/2000/svg" role="img" viewBox="131.46 536.46 1068.08 262.08"><defs><clipPath id="a" clipPathUnits="userSpaceOnUse"><path d="M0 1000h1000V0H0z"/></clipPath></defs><g clip-path="url(#a)" transform="matrix(1.33333 0 0 -1.33333 0 1333.333)"><path fill="#378cff" d="M130.487 528.89l54.52 33.703 52.603-32.519-49.903-30.885c-4.696-2.728-5.258-7.782-2.997-11.974 2.261-4.193 7.268-5.629 11.183-3.209l60.19 37.243c2.22 1.604 3.473 3.797 4.015 6.605 1.348 4.636.317 9.25-3.5 11.61l-67.024 41.434c-1.304.806-2.723 1.16-4.129 1.183-.142.013-.284.007-.426.012-.143-.005-.285.001-.427-.012-1.405-.024-2.823-.377-4.126-1.182l-62.048-38.359c-1.578-.976-2.715-2.426-3.426-4.072z"/><path fill="#084fca" d="M114.992 538.468c-.04-.09-.093-.175-.129-.267-.11-.256-.19-.525-.277-.793-.06-.202-.128-.398-.175-.604a9.187 9.187 0 0 1-.227-1.45l-.014-.145c-.014-.214-.06-.417-.06-.635V464.17c0-1.5.385-2.892 1.005-4.126l.026-.052c.056-.109.124-.209.182-.316l15.161 9.373v59.84l.003.001z"/><path fill="#186ff4" d="M258.022 470.296c-2.261 4.193-7.268 5.63-11.183 3.209l-61.577-38.322-54.778 33.863v.002l-15.003-9.274.001-.001-.171-.107c.118-.22.243-.433.382-.64.677-1.087 1.563-2.047 2.693-2.745l61.854-38.24a7.91 7.91 0 0 1 3.896-1.68c.085-.012.169-.035.254-.045.29-.031.58-.027.872-.025.292-.002.582-.006.872.025.085.01.169.033.254.045a7.91 7.91 0 0 1 3.896 1.68l64.741 40.28c3.916 2.42 5.258 7.783 2.997 11.975"/><path fill="#378cff" d="M151.35 516.333l33.765 20.873 24.633-15.229c3.66-2.263 8.342-.92 10.455 3 2.113 3.919.859 8.931-2.801 11.194l-28.451 17.588a7.207 7.207 0 0 1-3.348 1.05l-.035.001c-.45.028-.896.019-1.34-.038-.13-.015-.256-.046-.386-.069a7.15 7.15 0 0 1-.976-.236c-.215-.07-.423-.164-.635-.254a7.766 7.766 0 0 1-.682-.329c-.103-.058-.213-.089-.314-.152l-41.355-25.566c-1.042-.644-1.864-1.525-2.493-2.526-.038-.059-.07-.123-.105-.183-.113-.189-.198-.392-.297-.586"/><path fill="#084fca" d="M136.964 524.882a7.53 7.53 0 0 1-.252-.547c-.066-.16-.114-.325-.17-.49a8.855 8.855 0 0 1-.274-.943c-.054-.244-.083-.493-.116-.744a8.675 8.675 0 0 1-.075-.791c-.005-.12-.033-.233-.033-.354v-43.72c0-4.526 3.426-8.194 7.653-8.194 4.226 0 7.653 3.668 7.653 8.194v39.04zm46.685-30.912c.022.086.043.178.068.264.142.493.244.788.463 1.255.089.188.29.567.415.76.305.476.53.75.53.75l14.917-9.258-.003-.001v-63.641s-8.203-5.116-9.76-6.071c-3.186-2.545-6.614-1.596-6.614-1.596s-1.99 57.274-.215 76.258c.016.337.12.975.199 1.28"/><path fill="#2f302f" d="M309.851 455c-4.398 0-8.533.723-12.289 2.15-3.608 1.374-6.836 3.711-9.59 6.947-2.84 3.337-5.12 7.844-6.78 13.395-1.702 5.686-2.565 12.842-2.565 21.272 0 8.722.966 16.02 2.872 21.691 1.87 5.556 4.313 9.999 7.263 13.208 2.881 3.127 6.195 5.354 9.85 6.617 3.831 1.324 7.748 1.996 11.64 1.996 4.15 0 7.783-.321 10.8-.953a56.868 56.868 0 0 0 4.735-1.189l-1.816-7.705c-.904.272-1.844.509-2.806.705-2.52.52-5.51.784-8.888.784-7.457 0-13.257-3.13-17.24-9.306-3.703-5.738-5.503-14.235-5.503-25.973 0-4.922.404-9.486 1.202-13.566.833-4.259 2.188-8.004 4.027-11.135 1.933-3.297 4.46-5.905 7.507-7.749 3.111-1.879 6.841-2.832 11.086-2.832 3.562 0 6.7.485 9.325 1.443.86.311 1.705.651 2.523 1.013l1.804-7.311c-1.699-.988-3.8-1.758-6.258-2.296-3.656-.801-7.323-1.206-10.899-1.206m24.53 1.805v83.667h10.096v-75.31h33.191v-8.357zm75.211 77.113c-12.583 0-18.963-11.87-18.963-35.28 0-4.684.28-9.102.838-13.133.579-4.198 1.568-7.893 2.939-10.98 1.459-3.288 3.373-5.943 5.689-7.892 2.567-2.172 5.764-3.275 9.497-3.275 6.524 0 11.655 3.269 14.839 9.454 2.87 5.575 4.266 14.024 4.266 25.827 0 4.509-.282 8.84-.838 12.875-.571 4.153-1.532 7.85-2.854 10.989-1.404 3.338-3.321 6.053-5.698 8.07-2.632 2.22-5.9 3.346-9.715 3.346m0-78.918c-5.323 0-9.87.969-13.514 2.88-3.647 1.912-6.696 4.698-9.065 8.283-2.463 3.728-4.306 8.35-5.475 13.739-1.205 5.542-1.816 11.845-1.816 18.736 0 14.583 2.578 25.73 7.664 33.137 4.85 7.065 12.114 10.5 22.206 10.5 5.24 0 9.772-.971 13.469-2.887 3.678-1.91 6.746-4.695 9.117-8.277 2.465-3.737 4.33-8.368 5.544-13.761 1.246-5.558 1.878-11.854 1.878-18.712 0-14.562-2.64-25.701-7.843-33.108-4.986-7.086-12.236-10.53-22.165-10.53m66.148.258c-9.274 0-16.058 2.212-20.162 6.576-4.204 4.465-6.335 11.597-6.335 21.199v57.438h10.094V485.87c0-7.797 1.165-13.232 3.564-16.616 2.649-3.741 6.925-5.638 12.708-5.638 5.594 0 9.88 2.086 12.392 6.035 2.245 3.527 3.336 8.832 3.336 16.219v54.602h9.152v-55.243c0-10.792-2.218-18.593-6.59-23.187-4.345-4.564-10.284-6.783-18.158-6.783m59.119 78.143c-1.478 0-2.97-.024-4.488-.068-1.735-.05-3.074-.18-4.093-.4l-2.696-.576v-67.15l2.33-.766c.563-.188 1.28-.304 2.31-.368l4.323-.257c.768-.054 1.32-.07 1.636-.07 4.771 0 8.812 1.12 12.01 3.33 3.078 2.137 5.513 4.992 7.238 8.49 1.623 3.295 2.765 7.103 3.396 11.318.605 4.032.913 8.333.913 12.784a90.1 90.1 0 0 1-.77 11.893c-.54 4.023-1.596 7.634-3.14 10.737-1.663 3.321-4.053 6.016-7.105 8.013-3.139 2.05-7.132 3.09-11.865 3.09m-3.104-78.019c-1.134 0-2.654.048-4.566.13-1.964.083-4.013.191-6.148.317l-6.185.39c-.487.03-.944.062-1.37.095v84.566c.714.068 1.461.127 2.237.176l6.203.387c2.062.124 4.065.21 6.001.255 1.94.04 3.67.061 5.177.061 6.932 0 12.734-1.004 17.243-2.984 4.42-1.942 8.002-4.707 10.648-8.218 2.718-3.604 4.68-8.027 5.836-13.147 1.202-5.329 1.811-11.385 1.811-18 0-6.035-.59-11.866-1.752-17.33-1.115-5.262-3.095-9.939-5.888-13.903-2.719-3.858-6.464-6.985-11.133-9.293-4.697-2.324-10.79-3.502-18.114-3.502m65.21 53.295l-6.231-24.689h24.434l-6.447 25.107-4.101 16.697h-3.14zm25.218-51.874l-5.804 20.632h-27.584l-5.535-20.632h-9.6l24.665 84.311h9.768l24.656-84.31zm82.422.001l.173 43.142.008 20.688h-2.413l-8.042-17.35-13.088-29.845h-4.4l-14.856 30.205-8.284 17.248h-2.341l.279-21.02-.012-43.068h-9.151v83.667h10.705l18.184-37.03 6.452-13.262h1.487l6.709 14.058 16.619 36.234h11.57l-.341-83.667zm125.377 63.085h5.607a.94.94 0 0 0 .941-.938l-3.01-58.821a.94.94 0 0 0-.94-.94h-5.608a.94.94 0 0 0-.94.94l3.011 58.82c0 .52.42.94.94.94m-15.963-.011h5.607a.94.94 0 0 0 .941-.938l2.822-44.28a.94.94 0 0 0-.939-.938h-5.608a.94.94 0 0 0-.94.939l-2.822 44.279c0 .519.42.939.94.939m44.451 22.272h8.792a.2.2 0 0 0 .2-.2v-14.841a.2.2 0 0 0-.2-.2h-8.792a.2.2 0 0 0-.2.2v14.84c0 .11.09.2.2.2m0-24.082h8.792a.2.2 0 0 0 .2-.2v-11.587a.2.2 0 0 0-.2-.199h-8.792a.2.2 0 0 0-.2.2v11.585c0 .111.09.2.2.2m-16.035-11.05h4.957c.75 0 1.358-.608 1.358-1.358v-44.399c0-.75-.405-1.327-1.314-1.993l-5.001-3.95c-.75 0-1.357.609-1.357 1.359v48.983c0 .75.607 1.358 1.357 1.358m11.18-7.636h6.952a.36.36 0 0 0 .36-.36v-37.762c0-.75-.404-1.327-1.314-1.992l-5-3.95c-.75 0-1.358.608-1.358 1.358v42.346c0 .2.161.36.36.36m11.787 0h6.752a.46.46 0 0 0 .46-.459v-37.663c0-.75-.404-1.327-1.315-1.992l-5-3.95c-.75 0-1.357.608-1.357 1.358v42.247a.46.46 0 0 0 .46.46"/><path fill="#231815" d="M883.338 507.019h-4.957c-.75 0-1.357-.608-1.357-1.358v-44.399c0-.75.404-1.327 1.314-1.993l5-3.95c.75 0 1.358.609 1.358 1.359v48.983c0 .75-.608 1.358-1.358 1.358"/><path fill="#2f302f" d="M841.335 540.283l7.636-.053a.2.2 0 0 0 .199-.201l-.101-14.401a.2.2 0 0 0-.201-.2l-7.637.055a.2.2 0 0 0-.198.2l.1 14.402a.2.2 0 0 0 .202.198m-20.043.862l7.637-.053a.2.2 0 0 0 .198-.202l-.1-14.4a.2.2 0 0 0-.202-.199l-7.636.054a.2.2 0 0 0-.199.201l.101 14.4a.2.2 0 0 0 .201.199"/><path fill="#231815" d="M877.284 540.045l7.198-.05a.2.2 0 0 0 .198-.2l-.098-14.209a.2.2 0 0 0-.2-.199l-7.2.05a.2.2 0 0 0-.199.202l.1 14.207a.201.201 0 0 0 .201.2"/><path fill="#2f302f" d="M837.76 525.433h-26.27a.201.201 0 0 0-.201.2v4.63c0 .11.09.2.2.2h26.272a.2.2 0 0 0 .2-.2v-4.63a.2.2 0 0 0-.2-.2m-4.388-69.12h-20.681a.201.201 0 0 0-.201.201v4.63c0 .11.09.2.201.2h20.681a.2.2 0 0 0 .2-.2v-4.63a.2.2 0 0 0-.2-.2m51.014 69.119h-43.14a.2.2 0 0 0-.2.2v4.63a.2.2 0 0 0 .2.2h43.14a.2.2 0 0 0 .2-.2v-4.63a.2.2 0 0 0-.2-.2m0-10.573h-43.14a.2.2 0 0 0-.2.2v4.63c0 .11.09.2.2.2h43.14a.2.2 0 0 0 .2-.2v-4.63a.2.2 0 0 0-.2-.2m.104-12.803h-43.244a.2.2 0 0 0-.2.2v4.63c0 .11.09.2.2.2h43.244a.2.2 0 0 0 .201-.2v-4.63a.2.2 0 0 0-.2-.2m-87.156-45.177l-8.908-.121a.765.765 0 0 0-.74.627c-.386 2.127-1.41 9.265-2.023 13.48-.581 3.994-1.791 11.24-2.041 13.283a.762.762 0 0 0 .66.846l8.883.009a.764.764 0 0 0 .89-.66c.253-2.155 1.216-8.12 1.754-11.44.725-4.481 1.85-12.426 2.323-15.116a.776.776 0 0 0-.798-.907"/><path fill="#2f302f" d="M788.537 456.761h-51.903v6.806h51.903zm13.498 52.099v-6.405a.2.2 0 0 0-.2-.2h-72.41a.2.2 0 0 0-.202.2v6.406c0 .11.09.2.201.2h72.411a.2.2 0 0 0 .2-.2m-5.084 29.674v-6.406a.2.2 0 0 0-.2-.2h-62.305a.2.2 0 0 0-.2.2v6.406c0 .111.09.2.2.2h62.305a.2.2 0 0 0 .2-.2"/><path fill="#2f302f" d="M743.545 456.759l-9.344.007a1.284 1.284 0 0 0-1.242 1.605l12.862 49.638 10.24-2.667z"/></g></svg>