<?xml version="1.0" encoding="utf-8"?>
<!-- Generator: Adobe Illustrator 16.0.4, SVG Export Plug-In . SVG Version: 6.00 Build 0)  -->
<!DOCTYPE svg PUBLIC "-//W3C//DTD SVG 1.1//EN" "http://www.w3.org/Graphics/SVG/1.1/DTD/svg11.dtd">
<svg version="1.1" id="Layer_1" xmlns="http://www.w3.org/2000/svg" xmlns:xlink="http://www.w3.org/1999/xlink" x="0px" y="0px"
	 width="500px" height="332px" viewBox="0 0 500 332" enable-background="new 0 0 500 332" xml:space="preserve">
<g>
	<path fill="#62B5E5" d="M312.085,80.74c-7.699,8.276-15.599,16.767-23.55,25.313c-2.224-1.271-3.535-3.142-5.185-4.62
		c-4.974-4.458-10.527-7.816-17.104-9.362c-19.982-4.693-35.551,6.433-40.793,24.042c-3.142,10.556-2.596,21.144,2.1,31.191
		c5.118,10.951,13.783,17.432,25.852,19.236c2.734,0.409,5.465,0.478,8.209,0.478c17.312,0.005,34.625,0.007,51.938-0.007
		c0.981-0.001,1.995,0.2,2.961-0.238c0.218-0.89-0.444-1.398-0.868-1.963c-9.515-12.695-14.893-27.036-16.829-42.695
		c-0.55-4.448-0.79-8.942-0.637-13.446c0.054-1.599,0.592-2.85,1.681-4.01c7.173-7.638,14.309-15.312,21.453-22.976
		c0.334-0.359,0.637-0.748,1.096-1.29c-3.898-4.678-7.948-9.129-12.666-13.07c1.03-3.108,2.905-5.568,4.688-8.036
		c14.878-20.599,35.002-32.911,59.972-36.983c18.052-2.943,35.836-1.427,52.98,5.367c9.36,3.709,17.867,8.846,25.484,15.458
		c16.686,14.48,26.45,32.801,29.442,54.547c2.393,17.39,0.306,34.335-7.05,50.482c-7.653,16.8-19.464,29.882-35.173,39.426
		c-11.246,6.833-23.504,10.86-36.577,12.457c-6.206,0.758-12.421,0.953-18.663,0.948c-42.781-0.031-85.562,0.096-128.343-0.072
		c-16.88-0.066-32.301-5.04-45.599-15.721c-13.098-10.521-21.431-24.146-24.6-40.558c-4.484-23.226,0.017-44.523,15.545-62.877
		c12.132-14.339,27.8-22.206,46.375-24.204c13.75-1.479,27.255-0.316,40.177,5.03c8.917,3.689,16.445,9.359,22.95,16.437
		C311.691,79.394,312.018,79.774,312.085,80.74z M338.639,113.811c-0.002,4.982,0.655,9.407,3.258,16.693
		c4.235,11.862,11.591,21.246,22.502,27.673c9.996,5.888,20.788,8.125,32.337,6.851c16.263-1.796,28.907-9.551,37.654-23.296
		c7.12-11.188,9.648-23.561,8.197-36.762c-1.741-15.839-8.469-28.976-21.354-38.527c-12.151-9.005-25.943-11.646-40.706-9.017
		c-14.37,2.558-25.479,10.249-33.355,22.47C341.202,89.16,338.486,99.423,338.639,113.811z"/>
	<path fill="#62B5E5" d="M294.165,258.151c-0.176-10.897,3.49-20.091,10.844-27.602c5.965-6.091,13.359-9.839,21.883-11.091
		c12.474-1.832,23.854,0.653,33.623,8.914c6.938,5.868,11.116,13.431,12.526,22.379c2.155,13.688-1.567,25.581-11.724,35.141
		c-6.379,6.006-14.143,9.15-22.861,10.122c-9.156,1.021-17.7-0.695-25.688-5.229C300.843,284.014,293.795,270.776,294.165,258.151z
		 M311.529,260.733c-0.344,7.554,7.162,16.77,16.046,19.199c8.5,2.326,16.198,0.646,22.222-5.745
		c7.196-7.635,8.456-18.476,3.653-27.832c-5.614-10.935-18.062-14.865-28.765-10.101
		C315.567,240.312,311.741,247.949,311.529,260.733z"/>
	<path fill="#62B5E5" d="M273.611,243.819c0-8.721,0-17.487,0-26.096c2.095-0.921,13.306-1.091,16.318-0.326
		c0,25.655,0,51.375,0,77.316c-5.398,0-10.577,0-15.794,0c-0.999-2.248-0.015-4.578-0.715-6.712
		c-1.054,0.137-1.455,0.952-1.997,1.521c-6.908,7.266-15.353,7.968-24.168,4.971c-9.499-3.229-14.66-10.619-16.703-20.178
		c-1.599-7.479-1.146-14.915,1.862-22.039c4.126-9.773,12.673-15.536,23.437-15.762c6.137-0.129,11.553,2.14,16.045,6.425
		c0.354,0.338,0.751,0.634,1.138,0.937C273.078,243.912,273.185,243.866,273.611,243.819z M273.739,266.406
		c0.086-3.161-0.697-6.1-2.192-8.852c-4.234-7.797-14.442-9.279-20.716-3.021c-5.896,5.881-6.217,16.782-0.678,22.983
		c5.187,5.805,13.766,6.005,19.249,0.461C272.584,274.761,273.643,270.766,273.739,266.406z"/>
	<path fill="#62B5E5" d="M394.038,288.771c0,7.503,0,15.099,0,22.982c-5.517,0.31-10.698,0.116-15.755,0.138
		c-0.829-2.251-0.932-71.518-0.166-74.204c5.108,0,10.288,0,15.555,0c0.952,2.302,0.142,4.68,0.637,7.155
		c1.503-1.375,2.813-2.727,4.276-3.886c8.359-6.621,20.551-5.343,28.334,0.616c6.511,4.985,9.724,11.776,10.72,19.82
		c0.937,7.567,0.082,14.852-3.642,21.509c-4.59,8.207-11.652,12.686-21.242,13.061c-6.909,0.27-12.712-1.979-17.572-6.823
		C394.961,288.919,394.792,288.579,394.038,288.771z M394.069,267.021c-0.203,2.538,0.654,5.433,2.172,8.19
		c4.746,8.622,16.976,9.157,22.343,0.903c3.764-5.787,3.931-11.949,0.96-18.03c-3.236-6.625-11.999-10.299-19.466-4.958
		C395.56,256.359,394.026,261.037,394.069,267.021z"/>
	<path fill="#62B5E5" d="M85.542,230.444c-3.419,4.25-6.798,8.092-10.222,11.857c-1.5-0.281-2.342-1.234-3.302-1.996
		c-5.44-4.312-11.566-6.559-18.552-5.812c-6.626,0.707-11.788,4.043-15.258,9.662c-4.6,7.448-5.089,15.441-1.784,23.458
		c5.242,12.715,20.414,17.246,32.194,9.769c2.305-1.463,4.437-3.2,6.353-4.596c3.523,3.489,6.963,6.896,10.576,10.474
		c-1.585,2.395-4.197,4.318-6.799,6.199c-5.455,3.943-11.609,5.855-18.309,6.583c-8.2,0.893-15.987-0.248-23.211-4.094
		c-11.33-6.031-17.953-15.562-19.793-28.291c-1.61-11.143,0.756-21.334,7.729-30.295c5.88-7.556,13.661-12.111,23.018-13.774
		c8.331-1.48,16.566-0.864,24.542,2.195C77.544,223.632,81.527,226.686,85.542,230.444z"/>
	<path fill="#62B5E5" d="M171.528,269.348c0.558,11.693-11.21,24.781-26.463,26.619c-10.286,1.239-19.32-1.266-26.845-8.471
		c-10.582-10.132-11.652-26.923-2.837-38.761c5.201-6.985,12.315-10.689,20.884-11.862c7.637-1.044,14.769,0.338,21.297,4.367
		C166.899,247.004,171.391,255.521,171.528,269.348z M140.422,281.903c8.766,0.415,14.77-6.193,14.879-15.157
		c0.109-8.94-6.17-15.601-14.464-15.865c-9.692-0.31-15.013,7.492-14.979,15.104C125.901,275.227,131.893,281.863,140.422,281.903z"
		/>
	<path fill="#62B5E5" d="M226.21,294.71c-5.105,0-10.28,0-15.486,0c-0.949-2.248-0.088-4.556-0.746-7.017
		c-1.708,1.818-3.215,3.423-5.001,4.74c-6.795,5.011-17.783,4.885-24.242-0.537c-4.098-3.44-5.99-8.137-6.409-13.373
		c-1.022-12.786-0.259-25.6-0.468-38.399c-0.012-0.74-0.053-1.508,0.712-2.402c4.939,0,10.107,0,15.208,0
		c0.859,1.063,0.578,2.188,0.581,3.235c0.023,8.983,0.006,17.967,0.018,26.951c0.003,2.592,0.325,5.146,1.216,7.594
		c1.237,3.397,3.773,5.137,7.335,5.412c7.359,0.569,11.189-3.742,11.293-11.315c0.132-9.481,0.027-18.966,0.046-28.448
		c0.002-1.062-0.216-2.164,0.477-3.435c5.043,0,10.211,0,15.32,0C226.925,239.754,227.065,291.951,226.21,294.71z"/>
	<path fill="#62B5E5" d="M481.757,243.744c-1.81,3.638-3.836,7.218-6.065,10.919c-2.223-1-4.334-1.911-6.411-2.896
		c-2.591-1.229-5.363-1.774-8.156-2.238c-1.521-0.252-3.004,0.119-4.398,0.667c-2.378,0.936-2.923,3.642-1.164,5.494
		c1.123,1.183,2.603,1.744,4.079,2.333c4.251,1.695,8.721,2.798,12.867,4.771c2.035,0.968,3.938,2.132,5.712,3.538
		c7.897,6.264,6.076,21.689-3.223,26.559c-3.373,1.766-6.906,2.789-10.712,3.026c-8.745,0.544-16.861-1.331-24.268-6.079
		c-0.771-0.494-1.527-1.011-2.259-1.56c-0.32-0.24-0.558-0.59-0.996-1.067c1.962-3.659,4.449-6.956,6.758-10.587
		c3.176,1.821,6.059,3.804,9.375,4.9c3.806,1.259,7.626,2.471,11.712,1.438c0.64-0.161,1.311-0.333,1.868-0.666
		c2.214-1.319,2.462-3.948,0.504-5.658c-1.601-1.396-3.596-2.049-5.597-2.652c-3.979-1.2-8.029-2.194-11.793-4.031
		c-7.744-3.781-10.603-8.579-10.036-16.889c0.466-6.819,5.338-12.924,12.48-14.962c10.41-2.971,20.069-0.729,29.093,4.899
		C481.324,243.127,481.444,243.37,481.757,243.744z"/>
	<path fill="#62B5E5" d="M105.646,294.717c-5.404,0-10.585,0-16.018,0c0-25.844,0-51.506,0-77.153
		c1.818-0.764,13.09-0.913,16.018-0.159C105.646,242.997,105.646,268.656,105.646,294.717z"/>
</g>
</svg>
