<?xml version="1.0" encoding="UTF-8" standalone="yes"?>
<svg version="1.1" id="Layer_1" xmlns="http://www.w3.org/2000/svg" xmlns:xlink="http://www.w3.org/1999/xlink" x="0px" y="0px" viewBox="-3.4399999999999977 -2.420000000000016 438.88 437.84000000000003" style="enable-background:new 0 0 432 432;" xml:space="preserve">
  <style type="text/css">
	.st0{fill:none;}
	.st1{fill:#1D3141;}
	.st2{fill:#F9B41C;}
</style>
  <g>
    <polygon class="st0" points="276.6,398.1 293.5,398.1 285,376.9 &#x9;"/>
    <polygon class="st1" points="339.7,360.1 325.7,360.1 325.7,425.5 371.3,425.5 371.3,412.4 339.7,412.4 &#x9;"/>
    <polygon class="st1" points="392.4,412.7 392.4,398.9 422.3,398.9 422.3,386.1 392.4,386.1 392.4,372.9 426.4,372.9 426.4,360.1 &#xA;&#x9;&#x9;378.6,360.1 378.6,425.5 426.4,425.5 426.4,412.7 &#x9;"/>
    <path class="st0" d="M100.1,372.2c-11.2,0-19,9.2-19,20.4v0.2c0,11.2,8,20.5,19.2,20.5c11.2,0,19-9.2,19-20.4v-0.2&#xA;&#x9;&#x9;C119.3,381.6,111.3,372.2,100.1,372.2z"/>
    <path class="st1" d="M38.9,413.3c-10.9,0-18.4-9.3-18.4-20.5v-0.2c0-11.2,7.7-20.4,18.4-20.4c6.3,0,11.3,2.8,16.2,7.4L64,369&#xA;&#x9;&#x9;c-5.9-6-13-10.1-25-10.1c-19.5,0-33.1,15.2-33.1,33.8v0.2c0,18.8,13.9,33.6,32.5,33.6c12.2,0,19.5-4.5,26-11.7l-8.9-9.2&#xA;&#x9;&#x9;C50.6,410.3,46.2,413.3,38.9,413.3z"/>
    <path class="st1" d="M100.2,359c-19.6,0-33.8,15.2-33.8,33.8v0.2c0,18.6,14,33.6,33.6,33.6c19.6,0,33.8-15.2,33.8-33.8v-0.2&#xA;&#x9;&#x9;C133.8,374,119.8,359,100.2,359z M119.3,393c0,11.2-7.8,20.4-19,20.4C89,413.3,81,404,81,392.8v-0.2c0-11.2,7.8-20.4,19-20.4&#xA;&#x9;&#x9;c11.2,0,19.2,9.3,19.2,20.5V393z"/>
    <path class="st1" d="M167,386.3c-11-2.9-13.7-4.3-13.7-8.6v-0.2c0-3.2,2.8-5.7,8.2-5.7c5.3,0,10.9,2.4,16.5,6.4l7.2-10.8&#xA;&#x9;&#x9;c-6.4-5.3-14.3-8.3-23.5-8.3c-13,0-22.2,7.8-22.2,19.7v0.2c0,13,8.2,16.6,21,20c10.6,2.8,12.8,4.7,12.8,8.3v0.2&#xA;&#x9;&#x9;c0,3.8-3.4,6.2-9.1,6.2c-7.2,0-13.2-3.1-18.9-7.9l-8.2,10.2c7.6,7,17.3,10.5,26.9,10.5c13.7,0,23.3-7.3,23.3-20.3v-0.2&#xA;&#x9;&#x9;C187.1,394.5,179.9,389.8,167,386.3z"/>
    <path class="st1" d="M224.9,413.3c-10.9,0-18.4-9.3-18.4-20.5v-0.2c0-11.2,7.7-20.4,18.4-20.4c6.3,0,11.3,2.8,16.2,7.4L250,369&#xA;&#x9;&#x9;c-5.9-6-13-10.1-25-10.1c-19.5,0-33.1,15.2-33.1,33.8v0.2c0,18.8,13.9,33.6,32.5,33.6c12.2,0,19.5-4.5,26-11.7l-8.9-9.2&#xA;&#x9;&#x9;C236.6,410.3,232.1,413.3,224.9,413.3z"/>
    <path class="st1" d="M278.8,359.6l-27.2,65.8h14.2l5.8-14.7h26.8l5.8,14.7h14.6l-27.2-65.8H278.8z M276.6,398.1l8.4-21.2l8.4,21.2&#xA;&#x9;&#x9;H276.6z"/>
    <path class="st2" d="M216.4,273.1c61,0,110.6-49.6,110.6-110.6c0-61-49.6-110.6-110.6-110.6v17.8c51.1,0,92.7,41.6,92.7,92.7&#xA;&#x9;&#x9;c0,51.1-41.6,92.7-92.7,92.7c-51.1,0-92.7-41.6-92.7-92.7v0h-17.8C105.8,223.5,155.4,273.1,216.4,273.1z"/>
    <path class="st1" d="M218,226.4c22.4,0,36-8.5,48.5-21.8L253,190.4c-10.3,9.9-19.6,16-34.3,16c-22.9,0-39.5-19.7-39.5-44&#xA;&#x9;&#x9;c0-24.3,16.6-43.7,39.5-43.7c13.7,0,23.9,6.2,33.5,15.3l13.5-16c-11.4-11.3-24.8-19.2-46.8-19.2c-36.2,0-61.7,28.7-61.7,64&#xA;&#x9;&#x9;C157.2,198.4,183.1,226.4,218,226.4z"/>
    <path class="st2" d="M216.4,318.6l0-17.8c-76.2,0-138.1-62-138.1-138.1H60.4C60.4,248.6,130.4,318.6,216.4,318.6z"/>
    <path class="st2" d="M216.4,6.6v17.8c76.2,0,138.1,62,138.1,138.1v0h17.8C372.4,76.6,302.4,6.6,216.4,6.6z"/>
  </g>
</svg>