<svg xmlns="http://www.w3.org/2000/svg" role="img" viewBox="-10.66 -10.66 554.32 141.82"><title>CockroachDB logo</title><path fill="#1a2845" d="M183.936 64.897c-4.675 2.851-12.597 4.356-19.807 4.356-19.728 0-27.809-11.488-27.809-29.869 0-16.875 9.745-29.472 29.473-29.472 6.575 0 13.626 1.663 17.984 4.516v15.53l-8.714-.715-1.268-7.764c-.159-.792-.476-1.189-1.267-1.426-1.744-.555-4.437-.95-7.053-.95-10.06 0-16.479 6.813-16.479 20.281 0 14.024 6.1 20.837 15.924 20.837 2.615 0 5.864-.395 7.924-1.03.95-.236 1.188-.476 1.425-1.663l1.19-7.369h8.477v14.738m33.671-17.432c0-9.348-2.852-12.675-8.002-12.675-5.229 0-8.714 3.248-8.714 12.754 0 9.588 3.089 13.39 8.397 13.39 5.15 0 8.319-3.565 8.319-13.469zm-29.235.476c0-13.151 6.893-21.708 21.392-21.708 14.656 0 20.361 8.714 20.361 20.837 0 13.468-6.813 22.183-21.39 22.183-14.499 0-20.363-8.873-20.363-21.312m82.081 17.429c-3.645 2.22-9.269 3.883-15.053 3.883-14.34 0-20.759-8.953-20.759-20.995 0-14.815 9.034-22.025 21.71-22.025 6.178 0 11.646 1.743 14.102 3.328v12.438l-8.477-.396-.95-5.23c-.08-.553-.238-1.03-.951-1.267-.951-.316-2.456-.555-4.042-.555-4.753 0-8.793 3.248-8.793 12.519 0 10.3 4.595 13.23 10.22 13.23 3.961 0 7.527-1.267 9.903-2.297l3.09 7.368m34.464 2.932L294.856 48.1l-4.279 4.673v7.132c0 1.268.079 1.425 1.267 1.584l4.755.555v6.259h-23.215v-6.26l3.963-.554c1.108-.159 1.266-.396 1.266-1.584V18.072c0-.87-.237-1.426-1.029-1.663l-4.357-1.507.87-6.416h16.48v33.83l14.499-15.291h10.933v6.259l-4.12.792c-1.029.16-1.268.397-1.98 1.189l-5.625 5.942 10.14 18.936c.555 1.108 1.11 1.267 2.379 1.426l3.485.554v6.18h-15.37m19.014 0v-6.418l3.565-.475c1.11-.159 1.268-.396 1.268-1.584V36.61c0-.872-.237-1.426-1.029-1.664l-4.279-1.504.871-6.418h13.945l.95 6.338h.476c2.614-4.04 6.101-7.13 11.17-7.13 1.824 0 5.468.316 6.894.713v14.42l-9.508-.318-.791-4.198c-.159-.714-.397-.873-1.03-.873-2.06 0-4.517 1.744-5.705 2.774v20.996c0 1.267.078 1.504 1.267 1.583l7.844.634v6.339h-25.908m66.632-20.837c0-9.348-2.853-12.675-8.003-12.675-5.228 0-8.713 3.248-8.713 12.754 0 9.588 3.088 13.39 8.397 13.39 5.15 0 8.319-3.565 8.319-13.469zm-29.236.476c0-13.151 6.893-21.708 21.392-21.708 14.657 0 20.363 8.714 20.363 20.837 0 13.468-6.815 22.183-21.392 22.183-14.499 0-20.363-8.873-20.363-21.312m69.008 3.329l-5.388.395c-4.675.316-6.339 1.505-6.339 4.674 0 3.169 1.902 4.358 4.516 4.358 2.695 0 5.388-1.506 7.211-2.852zm2.137 17.033l-.789-4.279-.397-.08c-3.011 2.933-6.974 5.31-13.311 5.31-9.983 0-11.567-6.815-11.567-11.726 0-7.923 4.911-11.567 14.815-12.202l9.112-.634v-4.357c0-3.724-.396-6.259-5.308-6.259-3.804 0-5.784.555-5.784 5.308l-11.17-.95c0-10.696 9.743-12.201 17.033-12.201 12.041 0 16.874 3.248 16.874 14.34v19.253c0 1.267.08 1.425 1.27 1.584l3.801.634v6.259h-14.579m52.134-2.933c-3.644 2.22-9.27 3.883-15.052 3.883-14.342 0-20.758-8.953-20.758-20.995 0-14.815 9.031-22.025 21.708-22.025 6.18 0 11.646 1.743 14.102 3.328v12.438l-8.476-.396-.951-5.23c-.08-.553-.239-1.03-.95-1.267-.953-.316-2.458-.555-4.042-.555-4.753 0-8.793 3.248-8.793 12.519 0 10.3 4.593 13.23 10.22 13.23 3.961 0 7.525-1.267 9.904-2.297l3.088 7.368m31.533 2.932v-25.83c0-2.375-.236-6.734-4.197-6.734-2.932 0-6.259 1.507-8.242 2.933v21.233c0 1.268.08 1.425 1.27 1.584l3.802.555v6.259h-21.866v-6.26l3.565-.554c1.11-.159 1.267-.396 1.267-1.584V18.072c0-.87-.238-1.426-1.03-1.663l-4.358-1.507.872-6.416h16.32v22.421l.397.08c3.565-2.932 7.685-4.754 12.677-4.754 8.398 0 11.487 4.595 11.487 12.836v20.836c0 1.268.08 1.425 1.268 1.584l3.961.555v6.259H516.14M73.4 34.662a58.101 58.101 0 0 1-13.258 1.513c-4.556 0-9.004-.516-13.276-1.513a59.168 59.168 0 0 1 13.276-14.788 59.346 59.346 0 0 1 13.257 14.788zm40.095-32.489C108.147.746 102.51.005 96.71.005a65.763 65.763 0 0 0-36.586 11.057C49.645 4.07 37.071.005 23.54.005c-5.8 0-11.436.741-16.784 2.168C4.498 2.746 2.307 3.47.167 4.278a.262.262 0 0 0-.144.353c.935 2.032 1.98 4 3.103 5.907.062.105.19.15.304.11 2.231-.8 4.514-1.48 6.849-2.025a58.389 58.389 0 0 1 13.26-1.5c11.165 0 21.608 3.126 30.534 8.51a66.251 66.251 0 0 0-14.274 16.929 64.088 64.088 0 0 0-2.06 3.74 70.989 70.989 0 0 0-1.264 2.62c-.596 1.355-1.174 2.71-1.68 4.1a65.792 65.792 0 0 0-4.137 23.018c0 18.7 7.823 35.61 20.361 47.643a49.79 49.79 0 0 0 3.054 2.746 44.18 44.18 0 0 0 2.53 2.042c1.09.867 2.233 1.666 3.378 2.432a.259.259 0 0 0 .288-.001 68.749 68.749 0 0 0 3.361-2.431 39.293 39.293 0 0 0 2.549-2.042 63.97 63.97 0 0 0 3.07-2.746c12.52-12.033 20.343-28.96 20.343-47.643a65.726 65.726 0 0 0-4.136-23 69.039 69.039 0 0 0-1.7-4.118 71.292 71.292 0 0 0-1.227-2.62c-.67-1.265-1.337-2.512-2.078-3.74a66.614 66.614 0 0 0-14.272-16.928c8.924-5.385 19.367-8.51 30.532-8.51 4.553 0 8.997.505 13.262 1.5a61.064 61.064 0 0 1 6.848 2.023.252.252 0 0 0 .304-.11 70.05 70.05 0 0 0 3.099-5.905.262.262 0 0 0-.143-.354c-2.156-.808-4.345-1.532-6.586-2.105"/><path fill="#4db938" d="M137.363 87.981h6.5v23.499h12.042v5.998h-18.542V87.981m35.665 8.583l-3.584 9.166h7.208zm-2.5-8.583h5.375l12.832 29.497h-7.332l-2.542-6.25h-11.458l-2.459 6.25h-7.165l12.749-29.497m27.499 23.997h5.832c.5 0 1.005-.054 1.52-.166.514-.11.98-.305 1.396-.584a3.322 3.322 0 0 0 1.021-1.083c.264-.444.396-.985.396-1.625 0-.693-.175-1.256-.521-1.687a3.328 3.328 0 0 0-1.312-.98 6.712 6.712 0 0 0-1.708-.456 12.453 12.453 0 0 0-1.708-.125h-4.916zm0-12.206h4.706c.502 0 .994-.055 1.48-.169.484-.109.923-.29 1.312-.54.39-.25.702-.583.938-1 .234-.415.353-.916.353-1.499 0-.612-.13-1.118-.396-1.52a2.754 2.754 0 0 0-1.02-.94 4.827 4.827 0 0 0-1.417-.477 8.46 8.46 0 0 0-1.542-.147h-4.414zm-6.5-11.79h10.998c1.278 0 2.562.09 3.854.27 1.292.18 2.45.542 3.48 1.083a6.684 6.684 0 0 1 2.5 2.27c.637.972.957 2.264.957 3.876 0 1.666-.465 3.048-1.396 4.145-.93 1.097-2.16 1.881-3.687 2.354v.083c.972.14 1.854.41 2.646.813a7 7 0 0 1 2.041 1.541 6.581 6.581 0 0 1 1.313 2.186c.304.834.459 1.724.459 2.667 0 1.557-.333 2.856-1 3.896a7.861 7.861 0 0 1-2.584 2.52c-1.056.64-2.244 1.099-3.563 1.376-1.318.277-2.63.416-3.937.416h-12.081V87.981m41.83 7.207c-.529-.666-1.244-1.159-2.146-1.479-.904-.32-1.758-.479-2.563-.479-.472 0-.957.056-1.457.167-.5.11-.974.286-1.418.52a3.09 3.09 0 0 0-1.082.938c-.278.389-.418.862-.418 1.417 0 .89.334 1.568 1 2.041.667.473 1.507.875 2.522 1.209 1.012.333 2.104.666 3.27 1a13.44 13.44 0 0 1 3.271 1.415 7.794 7.794 0 0 1 2.521 2.46c.666 1.027.999 2.402.999 4.123 0 1.64-.307 3.07-.916 4.292a8.705 8.705 0 0 1-2.48 3.041c-1.041.807-2.25 1.404-3.624 1.792a15.961 15.961 0 0 1-4.355.583c-1.916 0-3.694-.291-5.333-.875-1.639-.583-3.165-1.527-4.581-2.831l4.624-5.085a6.72 6.72 0 0 0 2.52 2.062 7.19 7.19 0 0 0 3.146.731c.527 0 1.062-.064 1.604-.19a5.222 5.222 0 0 0 1.458-.56c.43-.252.777-.57 1.042-.96.263-.388.396-.846.396-1.373 0-.89-.341-1.59-1.021-2.106-.681-.513-1.535-.95-2.563-1.311a76.536 76.536 0 0 0-3.333-1.083 14.884 14.884 0 0 1-3.333-1.46 8.03 8.03 0 0 1-2.563-2.415c-.681-1-1.02-2.32-1.02-3.959 0-1.583.312-2.971.937-4.165a9.028 9.028 0 0 1 2.5-3.001c1.042-.805 2.243-1.408 3.604-1.813a14.8 14.8 0 0 1 4.208-.603c1.667 0 3.278.236 4.834.708a11.13 11.13 0 0 1 4.206 2.375l-4.456 4.874M82.475 66.046c0 15.624-6.11 29.839-16.082 40.395a59.19 59.19 0 0 1-2.706-17.695c0-15.624 6.11-29.864 16.082-40.395a59.04 59.04 0 0 1 2.706 17.695"/><path fill="#8cd024" d="M56.561 88.746c0 6.148-.94 12.092-2.705 17.695-9.972-10.556-16.08-24.77-16.08-40.395 0-6.161.964-12.106 2.73-17.695 9.97 10.53 16.055 24.77 16.055 40.395"/></svg>