<?xml version="1.0" encoding="UTF-8" standalone="yes"?>
<svg xmlns:dc="http://purl.org/dc/elements/1.1/" xmlns:cc="http://creativecommons.org/ns#" xmlns:rdf="http://www.w3.org/1999/02/22-rdf-syntax-ns#" xmlns:svg="http://www.w3.org/2000/svg" xmlns="http://www.w3.org/2000/svg" viewBox="-13.68665999999996 -3.280000000000001 691.6 166.4" height="160.08" width="665.38666" xml:space="preserve" id="svg2" version="1.1">
  <metadata id="metadata8">
    <rdf:RDF>
      <cc:Work rdf:about="">
        <dc:format>image/svg+xml</dc:format>
        <dc:type rdf:resource="http://purl.org/dc/dcmitype/StillImage"/>
      </cc:Work>
    </rdf:RDF>
  </metadata>
  <defs id="defs6"/>
  <g transform="matrix(1.3333333,0,0,-1.3333333,0,160.08)" id="g10">
    <g transform="scale(0.1)" id="g12">
      <path id="path14" style="fill:#323e4e;fill-opacity:1;fill-rule:nonzero;stroke:none" d="m 1653.72,416.383 c -101.96,0 -183.95,81.992 -183.95,183.945 0,101.953 81.99,183.945 183.95,183.945 51.5,0 96.7,-12.648 130.35,-46.308 10.49,-10.488 10.49,-26.27 0,-36.777 -10.52,-10.528 -27.34,-11.543 -37.85,-1.036 -24.19,24.161 -55.73,31.563 -92.5,31.563 -72.53,0 -131.39,-58.848 -131.39,-131.387 0,-72.539 58.86,-131.387 131.39,-131.387 36.77,0 69.37,6.348 93.54,30.508 10.52,10.508 26.29,10.508 36.81,0 10.49,-10.488 10.49,-26.269 0,-36.797 -33.65,-33.613 -78.85,-46.269 -130.35,-46.269"/>
      <path id="path16" style="fill:#323e4e;fill-opacity:1;fill-rule:nonzero;stroke:none" d="m 2102.6,468.941 c 72.53,0 131.39,58.848 131.39,131.387 0,72.539 -58.86,131.387 -131.39,131.387 -72.54,0 -131.39,-58.848 -131.39,-131.387 0,-72.539 58.85,-131.387 131.39,-131.387 z m 0,315.332 c 101.96,0 183.95,-81.992 183.95,-183.945 0,-101.953 -81.99,-183.945 -183.95,-183.945 -101.96,0 -183.95,81.992 -183.95,183.945 0,101.953 81.99,183.945 183.95,183.945"/>
      <path id="path18" style="fill:#323e4e;fill-opacity:1;fill-rule:nonzero;stroke:none" d="M 2507.36,728.551 V 472.086 h 89.34 c 72.52,0 131.38,55.703 131.38,128.242 0,72.539 -58.86,128.223 -131.38,128.223 z m 89.34,50.469 c 101.96,0 183.95,-76.739 183.95,-178.692 0,-101.953 -81.99,-178.711 -183.95,-178.711 h -115.64 c -14.71,0 -26.27,11.582 -26.27,26.289 V 752.75 c 0,14.715 11.56,26.27 26.27,26.27 h 115.64"/>
      <path id="path20" style="fill:#323e4e;fill-opacity:1;fill-rule:nonzero;stroke:none" d="m 3227.43,472.086 c 14.7,0 26.27,-10.527 26.27,-25.234 0,-14.727 -11.57,-25.235 -26.27,-25.235 h -252.29 c -14.71,0 -26.25,11.582 -26.25,26.289 V 752.75 c 0,14.715 11.54,26.27 26.25,26.27 h 252.29 c 14.7,0 26.27,-10.508 26.27,-25.235 0,-14.707 -11.57,-25.234 -26.27,-25.234 h -226 v -98.789 h 173.44 c 14.71,0 26.29,-10.528 26.29,-25.235 0,-14.707 -11.58,-25.234 -26.29,-25.234 H 3001.43 V 472.086 h 226"/>
      <path id="path22" style="fill:#323e4e;fill-opacity:1;fill-rule:nonzero;stroke:none" d="m 4159.94,584.566 h -241.77 v -138.75 c 0,-14.726 -11.57,-26.308 -26.28,-26.308 -14.72,0 -26.28,11.582 -26.28,26.308 v 309.032 c 0,14.718 11.56,26.261 26.28,26.261 14.71,0 26.28,-11.543 26.28,-26.261 V 635.016 h 241.77 v 119.832 c 0,14.718 11.55,26.261 26.27,26.261 14.71,0 26.29,-11.543 26.29,-26.261 V 445.816 c 0,-14.726 -11.58,-26.308 -26.29,-26.308 -14.72,0 -26.27,11.582 -26.27,26.308 v 138.75"/>
      <path id="path24" style="fill:#323e4e;fill-opacity:1;fill-rule:nonzero;stroke:none" d="m 4475.35,445.816 c 0,-14.726 -11.58,-26.308 -26.28,-26.308 -14.72,0 -26.28,11.582 -26.28,26.308 v 309.032 c 0,14.718 11.56,26.261 26.28,26.261 14.7,0 26.28,-11.543 26.28,-26.261 V 445.816"/>
      <path id="path26" style="fill:#323e4e;fill-opacity:1;fill-rule:nonzero;stroke:none" d="M 4738.16,728.551 V 600.328 h 137.68 c 36.82,0 62.05,30.488 62.05,64.121 0,33.633 -25.23,64.102 -62.05,64.102 z m 137.68,50.469 c 63.08,0 114.58,-51.504 114.58,-114.571 0,-63.086 -51.5,-114.59 -114.58,-114.59 H 4738.16 V 444.762 c 0,-14.727 -11.57,-25.254 -26.28,-25.254 -14.72,0 -26.27,11.582 -26.27,26.308 V 752.75 c 0,14.715 11.55,26.27 26.27,26.27 h 163.96"/>
      <path id="path28" style="fill:#323e4e;fill-opacity:1;fill-rule:nonzero;stroke:none" d="m 600.328,1139.75 c -297.445,0 -539.4374,-241.992 -539.4374,-539.441 0,-297.442 241.9924,-539.4379 539.4374,-539.4379 297.442,0 539.422,241.9959 539.422,539.4379 0,297.449 -241.98,539.441 -539.422,539.441 z M 600.328,0 C 269.309,0 0,269.293 0,600.309 0,931.332 269.309,1200.64 600.328,1200.64 931.344,1200.64 1200.63,931.332 1200.63,600.309 1200.63,269.293 931.344,0 600.328,0"/>
      <path id="path30" style="fill:#5e6372;fill-opacity:1;fill-rule:nonzero;stroke:none" d="m 506.559,936.52 v 97.17 c 0,14 55.105,29.63 92.488,29.63 37.363,0 94.453,-15.63 94.453,-29.63 v -96.967 c -31.543,5.957 -65.234,10.097 -93.555,10.097 -28.632,0 -62.226,-4.234 -93.386,-10.3"/>
      <path id="path32" style="fill:#666a79;fill-opacity:1;fill-rule:nonzero;stroke:none" d="m 466.977,344.445 c -82.461,0 -149.715,25.559 -174.747,28.149 -37.207,3.851 -76.675,40.293 -112.484,40.293 -5.945,0 -11.797,-1.004 -17.516,-3.332 -7.996,18.722 -14.851,38.019 -20.457,57.863 58.536,53.375 114.098,70.898 161.832,70.898 90.754,0 153.141,-63.406 153.403,-64.296 4.867,-4.532 94.344,-70.618 142.379,-81.329 l 36.652,-4.648 C 578.148,354.801 519.484,344.445 466.977,344.445"/>
      <path id="path34" style="fill:#b42c9d;fill-opacity:1;fill-rule:nonzero;stroke:none" d="m 163.098,407.359 0.093,0.039 -0.808,1.778 z"/>
      <path id="path36" style="fill:#323e4e;fill-opacity:1;fill-rule:nonzero;stroke:none" d="m 799.629,754.645 c 0,12.714 0,101.347 0,101.347 0,14.004 -120.688,46.219 -199.684,46.219 -78.984,0 -195.476,-32.215 -195.476,-46.219 0,0 0,-96.465 0,-100.097 92.465,66.113 193.855,95.566 193.855,95.566 0.305,0.078 108.098,-29.668 201.305,-96.816"/>
      <path id="path38" style="fill:#323e4e;fill-opacity:1;fill-rule:nonzero;stroke:none" d="m 848.301,554.918 c -29.903,-5.723 -64.942,-48.672 -110.278,-92.09 17.872,64.004 50.375,135.77 109.204,197.637 -15.84,14.363 -31.993,27.441 -48.047,39.324 v 0.266 c -59.098,43.613 -127.496,81.074 -198.414,101.64 l -0.067,-0.019 C 571.383,794.027 542.5,780.309 515.297,767.367 456.711,739.496 401.609,704.203 353.5,660.543 l -0.098,-0.078 c 52.411,-53.145 83.629,-119.942 102.305,-182.336 0.41,-1.356 0.902,-2.754 1.301,-4.109 4.867,-4.532 9.902,-9.024 14.949,-13.321 36.836,-31.347 78.504,-57.179 126.535,-67.89 l -0.179,1.472 -18.864,152.571 -4.797,102.703 25.801,117.57 23.664,-117.57 -5.637,-102.969 -16.875,-153.035 -0.144,-1.348 34.578,-4.16 c -55.996,-25.773 -143.426,-39.785 -234.086,3.602 -36.594,17.511 -72.008,34.171 -112.976,38.41 -43.387,4.492 -86.598,-4.16 -126.747,-20.5 l -0.019,-0.008 0.172,-0.371 0.808,-1.778 c 77.555,-176.445 258.965,-291.57 451.782,-285.699 189.074,5.77 360.968,127.602 429.827,303.688 3.75,9.57 7.18,19.258 10.29,29.043 -65.063,47.89 -167.281,108.066 -206.789,100.488"/>
      <path id="path40" style="fill:#323e4e;fill-opacity:1;fill-rule:nonzero;stroke:none" d="m 848.301,554.918 c 39.508,7.578 -29.903,-5.723 0,0"/>
      <path id="path42" style="fill:#323e4e;fill-opacity:1;fill-rule:nonzero;stroke:none" d="m 3545.51,407.172 c -4.45,0 -8.67,0.129 -12.9,0.387 -35.23,1.636 -69.55,15.195 -94.14,37.207 -4.76,5.187 -6.92,11.136 -6.2,16.898 0.7,5.547 4.02,10.524 9.36,14 4.72,3.078 10.78,4.766 17.05,4.766 8.27,0 15.9,-2.946 20.4,-7.875 14.81,-12.68 36.34,-20.875 57.42,-21.754 3.06,-0.184 5.84,-0.27 8.57,-0.27 45.39,0 76.78,22.371 79.96,56.992 3.35,38.176 -36.24,55.868 -82.09,76.348 -52.62,23.535 -112.19,50.176 -106.44,115.188 4.9,54.066 50.46,86.343 121.86,86.343 4.7,0 9.56,-0.144 14.44,-0.422 33.54,-1.656 64.64,-13.929 87.52,-34.566 4.77,-4.633 7.15,-10.285 6.73,-15.961 -0.42,-5.66 -3.58,-10.867 -8.88,-14.676 -5.64,-3.398 -11.91,-5.148 -18.26,-5.148 -8.2,0 -15.56,2.922 -20.2,8.012 -13.26,11.433 -30.98,18.281 -51.09,19.656 -2.18,0.105 -4.59,0.16 -6.98,0.16 -41.75,0 -67.86,-16.246 -69.85,-43.457 -3.93,-40.488 36.15,-58.496 82.57,-79.348 52.22,-23.464 111.41,-50.062 105.3,-115.554 -5.12,-57.969 -59.03,-96.926 -134.15,-96.926"/>
    </g>
  </g>
</svg>