<svg xmlns="http://www.w3.org/2000/svg" role="img" viewBox="203.46 233.46 1692.08 332.08"><title>Commvault logo</title><style>svg {enable-background:new 0 0 2100 800}</style><style>.st0{fill:#0b2e44}.st1{fill:#ff4a6a}</style><path d="M359 467.3c-12.7 4.8-27 7.2-43.1 7.2-52.7 0-79.1-25.5-79.1-76.5 0-48.3 26.4-72.4 79.1-72.4 16.1 0 30.5 2.4 43.1 7.2v24.6c-12.7-5.5-26.4-8.2-41.1-8.2-35.3 0-52.9 16.3-52.9 48.8 0 35.3 17.6 52.9 52.9 52.9 14.7 0 28.4-2.7 41.1-8.2v24.6zm14.2-67.1c0-49.8 24.6-74.7 73.7-74.7 48.4 0 72.6 24.9 72.6 74.7 0 49.5-24.2 74.3-72.6 74.3-47 0-71.5-24.8-73.7-74.3zm73.7 50.6c29.6 0 44.4-17.1 44.4-51.2 0-33.6-14.8-50.4-44.4-50.4-30.3 0-45.5 16.8-45.5 50.4 0 34.2 15.2 51.2 45.5 51.2zm94 22.6V326.6h28.2L618.9 438l48.8-111.4h27.2v146.9h-25.2V371.1l-39.8 102.3h-23.2L566 371.1v102.3h-25.1zm184.8 0V326.6H754L803.8 438l48.8-111.4h27.2v146.9h-25.2V371.1l-39.8 102.3h-23.2l-40.7-102.3v102.3h-25.2zm320.6-146.8l-64.4 146.9h-29.3L891 326.6h32.4L968.8 439l45.4-112.5h32.1zm-30.4 146.8l62.3-146.9h29.3l63.7 146.9h-29.3l-18.5-40.1h-46l9.4-23.6h29.5l-24-55.2-48.4 118.8h-28zm159-57.7v-89.1h27.2v89.1c0 23.4 12 35.1 35.9 35.1 24 0 35.9-11.7 35.9-35.1v-89.1h27.2v89.1c0 39.2-21.1 58.7-63.2 58.7s-63-19.5-63-58.7zm181.3-89.1v123.2h68.6v23.6H1329V326.6h27.2zm165.2 0v23.6h-42.1v123.2h-27.2V350.2H1410v-23.6h111.4zm26.2 4.8c1.7 0 2.9.3 3.7 1 .8.7 1.2 1.7 1.2 3s-.4 2.2-1.1 2.8c-.7.6-1.6.9-2.6 1l4 6.2h-2.3l-3.8-6h-2.3v6h-2.2v-14.1h5.4zm-.9 6.2h1.4c.4 0 .8-.1 1.2-.3.3-.2.6-.4.8-.7.2-.3.3-.7.3-1.3 0-.5-.1-.8-.3-1.1-.2-.3-.4-.5-.7-.6s-.6-.3-1-.3c-.4-.1-.7-.1-1.1-.1h-2.9v4.5h2.3z" class="st0"/><path d="M1546.9 326.4c-6.6 0-12 5.4-12 12s5.4 12 12 12 12-5.4 12-12-5.4-12-12-12zm0 22.3c-5.7 0-10.3-4.6-10.3-10.3s4.6-10.3 10.3-10.3c5.7 0 10.3 4.6 10.3 10.3s-4.6 10.3-10.3 10.3z" class="st0"/><path id="XMLID_18_" d="M1745.1 266.3L1627 334.4v131.1l118.1 68.2 118.1-68.2V334.4l-118.1-68.1zm97.7 187.5l-97.7 56.4-97.7-56.4V346.2l97.7-56.4 97.7 56.4v107.6z" class="st1"/><path id="XMLID_17_" d="M1738.3 483c0 1-1.1 1.6-2 1.1l-68.7-39.7c-1.2-.7-2-2-2-3.4v-76.8c0-1 1.1-1.6 2-1.1l68.7 39.7c1.2.7 2 2 2 3.4V483z" class="st1"/><path id="XMLID_16_" d="M1813.6 352.6l-65.8 38c-1.6.9-3.6.9-5.2 0l-65.8-38c-.9-.5-.9-1.8 0-2.3l65.8-38c1.6-.9 3.6-.9 5.2 0l65.8 38c.8.6.8 1.8 0 2.3z" class="st1"/><path id="XMLID_15_" d="M1813.6 449.7l-59.7 34.4c-.9.5-2-.1-2-1.1v-68.9c0-1 1.1-1.6 2-1.1l59.7 34.4c.8.5.8 1.7 0 2.3z" class="st1"/></svg>