<svg xmlns="http://www.w3.org/2000/svg" role="img" viewBox="-35.18 -35.18 1829.36 967.36"><title>ComplianceCow (member) logo</title><defs><clipPath id="a" clipPathUnits="userSpaceOnUse"><path d="M0 2000h2000V0H0z"/></clipPath></defs><g clip-path="url(#a)" transform="matrix(1.33333 0 0 -1.33333 -453.387 1782.06)"><path fill="#774ac5" fill-opacity="1" fill-rule="nonzero" stroke="none" d="M395.948 835.984v2.402c0 1.309-.218 2.73-.655 4.258-.437 1.529-1.348 2.948-2.73 4.259-1.386 1.31-3.313 2.437-5.788 3.385-2.477.945-5.825 1.42-10.045 1.42-3.932 0-7.098-.475-9.5-1.42-2.403-.948-4.259-2.15-5.569-3.604-1.311-1.457-2.15-2.948-2.512-4.476-.365-1.529-.546-2.949-.546-4.26V736.179c0-1.311.181-2.729.546-4.258.362-1.529 1.201-2.986 2.512-4.368 1.31-1.386 3.166-2.549 5.569-3.494 2.402-.948 5.568-1.42 9.5-1.42 4.22 0 7.568.472 10.045 1.42 2.475.945 4.402 2.074 5.788 3.384 1.382 1.311 2.293 2.731 2.73 4.26.437 1.528.655 2.873.655 4.04v2.402h18.563v-5.46c0-1.747-.293-4.077-.874-6.989-.583-2.914-2.112-5.824-4.585-8.735-2.478-2.914-6.191-5.426-11.139-7.535-4.951-2.108-11.793-3.166-20.528-3.166-8.736 0-15.581 1.058-20.529 3.166-4.951 2.109-8.701 4.621-11.247 7.535-2.549 2.911-4.115 5.859-4.695 8.845-.584 2.983-.874 5.276-.874 6.879V841.662c0 1.6.29 3.893.874 6.879.58 2.983 2.146 5.931 4.695 8.845 2.546 2.91 6.296 5.422 11.247 7.534 4.948 2.108 11.793 3.167 20.529 3.167 8.735 0 15.577-1.059 20.528-3.167 4.948-2.112 8.661-4.624 11.139-7.534 2.473-2.914 4.002-5.862 4.585-8.845.581-2.986.874-5.279.874-6.879v-5.678z"/><path fill="#774ac5" fill-opacity="1" fill-rule="nonzero" stroke="none" d="M494.222 738.145v55.689c0 1.311-.219 2.731-.655 4.259-.437 1.528-1.348 2.948-2.73 4.259-1.386 1.309-3.313 2.436-5.788 3.385-2.477.945-5.825 1.419-10.045 1.419-3.932 0-7.098-.474-9.501-1.419-2.402-.949-4.258-2.113-5.569-3.494-1.31-1.386-2.149-2.878-2.511-4.478-.365-1.604-.546-2.986-.546-4.149V735.961c0-1.168.181-2.549.546-4.149.362-1.604 1.201-3.096 2.511-4.478 1.311-1.384 3.167-2.549 5.569-3.494 2.403-.948 5.569-1.419 9.501-1.419 4.22 0 7.568.471 10.045 1.419 2.475.945 4.402 2.075 5.788 3.386 1.382 1.309 2.293 2.73 2.73 4.257.436 1.53.655 2.949.655 4.26zm18.563-2.184v-3.494c0-1.747-.293-4.078-.874-6.989-.583-2.915-2.112-5.825-4.585-8.735-2.478-2.915-6.19-5.426-11.139-7.534-4.951-2.11-11.793-3.168-20.528-3.168-8.736 0-15.581 1.058-20.529 3.168-4.951 2.108-8.664 4.619-11.138 7.534-2.477 2.91-4.006 5.859-4.586 8.844-.583 2.983-.873 5.276-.873 6.88v64.644c0 1.599.29 3.892.873 6.879.58 2.981 2.109 5.929 4.586 8.844 2.474 2.911 6.187 5.423 11.138 7.535 4.948 2.109 11.793 3.166 20.529 3.166 8.735 0 15.577-1.057 20.528-3.166 4.949-2.112 8.661-4.624 11.139-7.535 2.473-2.915 4.002-5.825 4.585-8.735.581-2.915.874-5.241.874-6.988z"/><path fill="#774ac5" fill-opacity="1" fill-rule="nonzero" stroke="none" d="M673.08 707.788h-18.563V793.616c0 1.309-.185 2.729-.547 4.257-.364 1.53-1.166 2.983-2.402 4.369-1.238 1.382-3.057 2.545-5.46 3.494-2.402.946-5.643 1.419-9.718 1.419-4.078 0-7.391-.473-9.936-1.419-2.549-.949-4.515-2.075-5.897-3.385-1.385-1.31-2.293-2.73-2.73-4.259-.437-1.528-.655-2.877-.655-4.04v-86.264h-18.563V793.616c0 1.309-.184 2.729-.546 4.257-.365 1.53-1.168 2.983-2.402 4.369-1.239 1.382-3.058 2.545-5.46 3.494-2.402.946-5.644 1.419-9.719 1.419-4.077 0-7.391-.473-9.936-1.419-2.549-.949-4.515-2.075-5.897-3.385-1.385-1.31-2.293-2.73-2.73-4.259-.437-1.528-.655-2.877-.655-4.04v-86.264h-18.345v89.322c0 1.747.29 4.073.874 6.989.58 2.91 2.109 5.82 4.586 8.735 2.474 2.91 6.187 5.422 11.138 7.535 4.948 2.108 11.793 3.166 20.528 3.166 6.989 0 12.702-.693 17.144-2.075 4.44-1.385 8.043-3.096 10.81-5.131 2.765 2.035 6.368 3.746 10.81 5.131 4.44 1.382 10.156 2.075 17.144 2.075 8.736 0 15.578-1.058 20.529-3.166 4.948-2.113 8.661-4.625 11.138-7.535 2.474-2.915 4.003-5.863 4.586-8.845.581-2.987.874-5.28.874-6.879v-2.185z"/><path fill="#774ac5" fill-opacity="1" fill-rule="nonzero" stroke="none" d="M759.123 792.96c-.147 1.89-.546 3.712-1.201 5.459-.655 1.747-1.675 3.277-3.057 4.586-1.386 1.311-3.277 2.328-5.679 3.058-2.402.727-5.351 1.092-8.845 1.092-3.64 0-6.661-.403-9.063-1.201-2.402-.802-4.296-1.856-5.678-3.166-1.385-1.311-2.368-2.73-2.948-4.26-.584-1.528-.874-3.094-.874-4.695v-74.471c.29 1.601.983 2.764 2.075 3.494 1.092.727 2.218 1.236 3.385 1.529 2.327.728 4.729 1.564 7.207 2.512 2.474.945 4.804 1.781 6.989 2.512 2.62.872 5.094 1.747 7.424 2.619 1.89.728 3.638 1.747 5.242 3.058 1.311 1.165 2.474 2.655 3.494 4.477 1.017 1.819 1.529 4.113 1.529 6.88v1.092zm18.345-45.425v-5.024c0-5.534-1.386-10.557-4.15-15.069-2.767-4.514-6.845-7.718-12.23-9.608-2.62-.874-5.606-1.895-8.954-3.058-3.351-1.167-6.589-2.293-9.718-3.384-3.132-1.092-5.862-2.076-8.19-2.949-2.331-.874-3.788-1.382-4.368-1.528-.583-.29-1.31-.69-2.183-1.202-.874-.508-1.747-1.273-2.621-2.293-.873-1.018-1.638-2.184-2.293-3.494-.655-1.31-.983-2.84-.983-4.587v-31.884h-18.563v133.872c.143 7.425 3.167 13.65 9.063 18.673 5.897 5.022 15.25 7.534 28.063 7.534 6.552 0 12.155-.692 16.817-2.074 4.657-1.386 8.516-3.277 11.574-5.679 3.057-2.402 5.276-5.207 6.661-8.407 1.382-3.205 2.075-6.627 2.075-10.264v-5.242z"/><path fill="#774ac5" fill-opacity="1" fill-rule="nonzero" stroke="none" d="M813.281 866.121h18.345V707.788h-18.345z"/><path fill="#774ac5" fill-opacity="1" fill-rule="nonzero" stroke="none" d="M864.382 821.788h18.345v-114h-18.345zm18.345 22.057h-18.345v22.057h18.345z"/><path fill="#774ac5" fill-opacity="1" fill-rule="nonzero" stroke="none" d="M968.77 765.662c-.293-1.457-1.021-2.55-2.184-3.277-1.167-.73-2.259-1.238-3.275-1.528-2.185-.731-4.553-1.567-7.099-2.512-2.548-.948-4.913-1.784-7.097-2.512-2.621-.873-5.098-1.747-7.426-2.62-1.747-.73-3.422-1.747-5.023-3.058-1.31-1.166-2.511-2.658-3.603-4.476-1.092-1.822-1.638-4.116-1.638-6.879 0-5.535 1.311-9.647 3.931-12.34 2.621-2.696 7.497-4.04 14.632-4.04 7.279 0 12.23 1.419 14.851 4.26 2.62 2.838 3.931 6.878 3.931 12.12zm-18.782 57.873c12.81 0 22.201-2.513 28.173-7.535 5.968-5.023 8.954-11.322 8.954-18.89v-64.643c0-2.622-.475-5.499-1.42-8.628-.948-3.132-2.805-6.005-5.569-8.626-2.768-2.62-6.552-4.805-11.356-6.552-4.805-1.746-11.066-2.62-18.782-2.62-7.718 0-13.977.874-18.781 2.62-4.805 1.747-8.593 3.932-11.356 6.552-2.768 2.621-4.624 5.494-5.569 8.626-.949 3.129-1.42 6.006-1.42 8.628v10.263c0 5.532 1.42 10.555 4.259 15.069 2.839 4.511 6.879 7.715 12.121 9.61 2.62.873 5.602 1.89 8.953 3.057 3.347 1.164 6.586 2.293 9.719 3.385 3.129 1.092 5.858 2.075 8.189 2.948 2.328.874 3.784 1.383 4.368 1.529.58.29 1.345.69 2.294 1.201.944.508 1.856 1.273 2.729 2.294.874 1.016 1.638 2.183 2.293 3.494.655 1.31.983 2.839.983 4.586v4.149c0 1.453-.293 2.948-.874 4.477-.583 1.529-1.604 2.948-3.057 4.259-1.457 1.311-3.385 2.364-5.788 3.166-2.402.799-5.425 1.201-9.063 1.201-7.281 0-12.196-1.494-14.741-4.476-2.549-2.986-3.822-6.59-3.822-10.81h-18.563v5.241c0 3.637.689 7.06 2.075 10.264 1.382 3.2 3.603 6.006 6.661 8.407 3.057 2.402 6.913 4.294 11.574 5.679 4.658 1.382 10.265 2.075 16.816 2.075"/><path fill="#774ac5" fill-opacity="1" fill-rule="nonzero" stroke="none" d="M1091.72 707.788h-18.563V793.616c0 1.309-.186 2.729-.547 4.257-.365 1.53-1.202 2.983-2.512 4.369-1.311 1.382-3.166 2.545-5.568 3.494-2.403.946-5.569 1.419-9.5 1.419-4.078 0-7.391-.473-9.936-1.419-2.549-.949-4.516-2.075-5.897-3.385-1.386-1.31-2.293-2.73-2.73-4.259-.437-1.528-.655-2.877-.655-4.04v-86.264h-18.563v89.322c0 1.747.29 4.073.873 6.989.58 2.91 2.147 5.82 4.696 8.735 2.546 2.91 6.296 5.422 11.247 7.535 4.947 2.108 11.792 3.166 20.529 3.166 8.734 0 15.577-1.058 20.527-3.166 4.948-2.113 8.662-4.625 11.137-7.535 2.477-2.915 4.004-5.863 4.589-8.845.578-2.987.873-5.28.873-6.879v-2.185z"/><path fill="#774ac5" fill-opacity="1" fill-rule="nonzero" stroke="none" d="M1177.764 791.869v2.184c0 1.453-.294 2.948-.874 4.476-.583 1.53-1.604 2.948-3.057 4.259-1.457 1.311-3.384 2.365-5.787 3.166-2.402.799-5.426 1.202-9.064 1.202-7.281 0-12.196-1.495-14.74-4.477-2.55-2.985-3.823-6.589-3.823-10.81V738.8c0-5.535 1.311-9.646 3.931-12.339 2.621-2.696 7.497-4.04 14.632-4.04 7.279 0 12.23 1.419 14.851 4.259 2.62 2.839 3.931 6.879 3.931 12.12h18.344v-6.333c0-2.621-.473-5.498-1.419-8.627-.949-3.132-2.804-6.005-5.57-8.626-2.766-2.62-6.55-4.805-11.355-6.553-4.805-1.745-11.066-2.62-18.782-2.62-7.719 0-13.977.875-18.781 2.62-4.804 1.748-8.592 3.933-11.356 6.553-2.769 2.621-4.625 5.494-5.568 8.626-.951 3.129-1.421 6.006-1.421 8.627v64.644c0 3.636.69 7.059 2.074 10.263 1.382 3.201 3.604 6.006 6.662 8.408 3.058 2.402 6.913 4.293 11.574 5.679 4.659 1.382 10.264 2.074 16.816 2.074 12.957 0 22.386-2.512 28.282-7.535 5.896-5.022 8.844-11.322 8.844-18.889v-5.242z"/><path fill="#774ac5" fill-opacity="1" fill-rule="nonzero" stroke="none" d="M1282.152 791.65v1.966c0 1.309-.185 2.729-.546 4.258-.365 1.529-1.201 2.983-2.512 4.368-1.31 1.382-3.166 2.545-5.568 3.494-2.402.946-5.569 1.419-9.5 1.419-4.077 0-7.391-.473-9.937-1.419-2.548-.949-4.515-2.075-5.897-3.384-1.384-1.311-2.293-2.731-2.729-4.26-.437-1.527-.656-2.877-.656-4.04V771.34c.29 1.31.946 2.364 1.966 3.166 1.018.799 2.184 1.42 3.495 1.856 1.309.437 2.619.727 3.931.874 1.31.143 2.327.218 3.057.218h12.448c3.347 0 6.258 1.201 8.735 3.604 2.475 2.402 3.713 5.276 3.713 8.626v1.747zm-18.562 31.885c8.735 0 15.577-1.058 20.528-3.166 4.948-2.113 8.661-4.625 11.138-7.535 2.474-2.915 4.002-5.863 4.586-8.845.58-2.986.873-5.279.873-6.879v-10.482c0-2.478-.474-5.242-1.418-8.3-.95-3.057-3.167-6.333-6.662-9.827-1.603-1.747-3.423-3.058-5.461-3.932-2.039-.873-3.859-1.528-5.459-1.965-1.894-.584-3.859-.874-5.896-.874h-16.598c-3.787 0-7.134-1.384-10.045-4.149-2.916-2.767-4.369-6.19-4.369-10.264v-9.828c0-3.494.656-6.261 1.966-8.299.581-1.02 1.234-1.893 1.965-2.62.728-.73 1.82-1.386 3.277-1.966 1.163-.582 2.655-1.092 4.477-1.528 1.818-.438 4.183-.655 7.098-.655 3.784 0 6.769.399 8.953 1.201 2.184.798 3.713 1.491 4.587 2.074 1.889 1.454 3.2 3.202 3.93 5.241.727 2.038 1.092 4.221 1.092 6.552h18.563v-5.241c0-3.931-.839-7.573-2.511-10.919-1.675-3.352-4.258-6.262-7.752-8.736-2.478-1.747-5.898-3.276-10.266-4.586-4.367-1.311-9.902-1.966-16.596-1.966-4.952 0-9.248.402-12.886 1.201-3.641.798-6.808 1.819-9.5 3.058-2.696 1.234-4.913 2.655-6.66 4.258-1.747 1.601-3.205 3.201-4.369 4.805-2.62 3.784-3.859 8.153-3.711 13.104v64.643c0 1.748.29 4.073.873 6.989.58 2.91 2.108 5.82 4.586 8.735 2.473 2.91 6.186 5.422 11.137 7.535 4.947 2.108 11.794 3.166 20.53 3.166"/><path fill="#774ac5" fill-opacity="1" fill-rule="nonzero" stroke="none" d="M1382.828 835.984v2.402c0 1.309-.22 2.73-.656 4.258-.436 1.529-1.347 2.948-2.73 4.259-1.385 1.31-3.313 2.437-5.787 3.385-2.477.945-5.825 1.42-10.046 1.42-3.93 0-7.097-.475-9.5-1.42-2.402-.948-4.258-2.15-5.568-3.604-1.312-1.457-2.151-2.948-2.513-4.476-.365-1.529-.546-2.949-.546-4.26V736.179c0-1.311.181-2.729.546-4.258.362-1.529 1.201-2.986 2.513-4.368 1.31-1.386 3.166-2.549 5.568-3.494 2.403-.948 5.57-1.42 9.5-1.42 4.221 0 7.569.472 10.046 1.42 2.474.945 4.402 2.074 5.787 3.384 1.383 1.311 2.294 2.731 2.73 4.26.436 1.528.656 2.873.656 4.04v2.402h18.562v-5.46c0-1.747-.293-4.077-.873-6.989-.584-2.914-2.112-5.824-4.586-8.735-2.477-2.914-6.19-5.426-11.137-7.535-4.951-2.108-11.794-3.166-20.529-3.166-8.736 0-15.582 1.058-20.53 3.166-4.951 2.109-8.701 4.621-11.247 7.535-2.549 2.911-4.115 5.859-4.695 8.845-.583 2.983-.873 5.276-.873 6.879V841.662c0 1.6.29 3.893.873 6.879.58 2.983 2.146 5.931 4.695 8.845 2.546 2.91 6.296 5.422 11.247 7.534 4.948 2.108 11.794 3.167 20.53 3.167 8.735 0 15.578-1.059 20.529-3.167 4.947-2.112 8.66-4.624 11.137-7.534 2.474-2.914 4.002-5.862 4.586-8.845.58-2.986.873-5.279.873-6.879v-5.678z"/><path fill="#774ac5" fill-opacity="1" fill-rule="nonzero" stroke="none" d="M1481.101 738.145v55.689c0 1.311-.218 2.731-.655 4.259-.437 1.528-1.348 2.948-2.73 4.259-1.386 1.309-3.313 2.436-5.787 3.385-2.477.945-5.824 1.419-10.047 1.419-3.93 0-7.096-.474-9.499-1.419-2.402-.949-4.259-2.113-5.569-3.494-1.311-1.386-2.15-2.878-2.511-4.478-.365-1.604-.547-2.986-.547-4.149V735.961c0-1.168.182-2.549.547-4.149.361-1.604 1.2-3.096 2.511-4.478 1.31-1.384 3.167-2.549 5.569-3.494 2.403-.948 5.569-1.419 9.499-1.419 4.223 0 7.57.471 10.047 1.419 2.474.945 4.401 2.075 5.787 3.386 1.382 1.309 2.293 2.73 2.73 4.257.437 1.53.655 2.949.655 4.26zm18.562-2.184v-3.494c0-1.747-.291-4.078-.872-6.989-.585-2.915-2.112-5.825-4.586-8.735-2.478-2.915-6.191-5.426-11.138-7.534-4.951-2.11-11.793-3.168-20.529-3.168s-15.581 1.058-20.529 3.168c-4.951 2.108-8.663 4.619-11.137 7.534-2.477 2.91-4.006 5.859-4.587 8.844-.582 2.983-.873 5.276-.873 6.88v64.644c0 1.599.291 3.892.873 6.879.581 2.981 2.11 5.929 4.587 8.844 2.474 2.911 6.186 5.423 11.137 7.535 4.948 2.109 11.793 3.166 20.529 3.166s15.578-1.057 20.529-3.166c4.947-2.112 8.66-4.624 11.138-7.535 2.474-2.915 4.001-5.825 4.586-8.735.581-2.915.872-5.241.872-6.988z"/><path fill="#774ac5" fill-opacity="1" fill-rule="nonzero" stroke="none" d="M1659.96 724.823c0-1.895-.146-3.604-.437-5.132-.292-1.529-.764-2.948-1.417-4.259-.656-1.31-1.64-2.621-2.95-3.93-2.767-2.622-6.19-4.403-10.264-5.351-4.078-.946-7.79-.836-11.138.327-3.641 1.31-7.643 2.731-12.012 4.259-4.367 1.528-8.445 2.873-12.229 4.04-.731.29-1.784.69-3.166 1.201-1.386.508-2.512.908-3.386 1.201-.73-2.183-1.965-4.078-3.712-5.677-2.621-2.622-5.972-4.403-10.046-5.351-4.079-.946-7.863-.836-11.357.327-3.641 1.31-7.643 2.731-12.011 4.259-4.367 1.528-8.374 2.873-12.011 4.04-1.167.437-2.622.945-4.369 1.528-1.747.581-2.767.946-3.058 1.092-1.747.58-3.569 1.311-5.458 2.185-1.894.873-3.604 2.074-5.132 3.603-1.53 1.529-2.839 3.528-3.932 6.005-1.092 2.474-1.713 5.678-1.855 9.61h-.219v82.551h18.562v-75.345c0-2.914.618-5.35 1.857-7.315 1.236-1.966 2.764-3.57 4.587-4.805 1.818-1.238 3.855-2.222 6.115-2.949 2.255-.73 4.33-1.457 6.224-2.183 4.367-1.457 7.786-2.403 10.263-2.839 2.474-.437 4.33-.365 5.57.218 1.234.58 2 1.639 2.293 3.167.291 1.528.436 3.528.436 6.006v86.045h18.564v-75.345c0-2.914.617-5.35 1.856-7.315 1.235-1.966 2.764-3.57 4.586-4.805 1.818-1.238 3.821-2.222 6.006-2.949 2.183-.73 4.221-1.457 6.114-2.183 4.369-1.457 7.788-2.403 10.266-2.839 2.473-.437 4.367-.365 5.677.218 1.311.58 2.109 1.639 2.403 3.167.29 1.528.436 3.528.436 6.006v86.045h18.344v-89.322z"/><path fill="#774ac5" fill-opacity="1" fill-rule="nonzero" stroke="none" d="M1103.421 1017.158h-6.345c-.004-9.778-2.576-19.074-7.333-27.674-7.125-12.885-19.264-24.163-34.829-32.19-15.554-8.03-34.478-12.788-54.914-12.785-27.25-.011-51.807 8.471-69.279 21.835-8.742 6.676-15.709 14.548-20.465 23.14-4.756 8.6-7.329 17.896-7.334 27.674.005 9.779 2.578 19.074 7.334 27.675 7.125 12.885 19.264 24.163 34.829 32.19 15.554 8.03 34.479 12.788 54.915 12.784 27.249.012 51.806-8.471 69.278-21.834 8.743-6.676 15.709-14.549 20.465-23.14 4.757-8.601 7.329-17.896 7.333-27.675h12.69c.005 12.036-3.211 23.521-8.921 33.822-8.575 15.467-22.664 28.312-40.112 37.32-17.458 9.005-38.331 14.194-60.733 14.197-29.87-.01-57.024-9.212-76.982-24.439-9.974-7.619-18.153-16.768-23.864-27.078-5.71-10.301-8.925-21.786-8.921-33.822-.004-12.035 3.211-23.521 8.921-33.821 8.576-15.468 22.664-28.312 40.112-37.32 17.458-9.005 38.331-14.195 60.734-14.198 29.868.011 57.023 9.213 76.982 24.44 9.973 7.619 18.152 16.768 23.863 27.078 5.71 10.3 8.926 21.786 8.921 33.821z"/><path fill="#774ac5" fill-opacity="1" fill-rule="nonzero" stroke="none" d="M928.127 995.091c5.892-11.466 15.916-20.927 28.372-27.547 12.468-6.618 27.43-10.422 43.501-10.425 16.071.003 31.034 3.807 43.502 10.425 12.456 6.62 22.479 16.081 28.371 27.547l-11.291 5.792c-4.472-8.74-12.497-16.542-23.033-22.131-10.522-5.593-23.491-8.947-37.549-8.944-14.058-.003-27.027 3.351-37.549 8.944-10.535 5.589-18.56 13.391-23.032 22.131z"/><path fill="#774ac5" fill-opacity="1" fill-rule="nonzero" stroke="none" d="M971.127 1042.717c7.902-9.663 9.642-21.313 3.885-26.021-5.757-4.708-16.829-.691-24.732 8.972-7.903 9.664-9.642 21.314-3.885 26.022 5.757 4.708 16.829.691 24.732-8.973"/><path fill="#774ac5" fill-opacity="1" fill-rule="nonzero" stroke="none" d="M1028.874 1042.717c-7.902-9.663-9.643-21.313-3.886-26.021 5.757-4.708 16.83-.691 24.733 8.972 7.903 9.664 9.642 21.314 3.885 26.022-5.756 4.708-16.83.691-24.732-8.973"/><path fill="#774ac5" fill-opacity="1" fill-rule="nonzero" stroke="none" d="M902.705 1031.332c-16.345 23.511-26.134 53.147-26.133 85.416-.004 38.548 13.974 73.344 36.395 98.419 11.209 12.539 24.516 22.642 39.233 29.604 14.721 6.963 30.844 10.797 47.8 10.799 16.957-.002 33.08-3.836 47.801-10.799 22.073-10.44 40.985-27.961 54.379-50.139 13.392-22.175 21.25-48.971 21.25-77.884 0-32.269-9.789-61.904-26.134-85.416l10.42-7.243c17.837 25.66 28.402 57.817 28.403 92.659-.003 41.625-15.076 79.413-39.624 106.877-12.276 13.732-26.933 24.888-43.268 32.617-16.331 7.73-34.347 12.02-53.227 12.018-18.879.002-36.896-4.288-53.227-12.018-24.505-11.597-45.222-30.889-59.815-55.05-14.592-24.163-23.076-53.227-23.076-84.444.001-34.843 10.566-67 28.404-92.659z"/><path fill="#774ac5" fill-opacity="1" fill-rule="nonzero" stroke="none" d="M1039.062 1250.869c.591.318 8.104 4.399 15.562 14.503 3.721 5.047 7.408 11.597 10.143 19.835 2.737 8.238 4.52 18.154 4.519 29.893 0 3.085-.123 6.297-.382 9.638l-6.326-.491-3.45-5.326 2.139 3.302-2.148-3.295.009-.007 2.139 3.302-2.148-3.295.015-.01c.417-.266 8.55-5.743 16.353-15.404 3.906-4.828 7.73-10.687 10.554-17.431 2.826-6.752 4.667-14.37 4.67-22.906-.008-10.191-2.61-21.765-9.731-34.899l11.152-6.055c8.018 14.746 11.278 28.553 11.269 40.954.003 10.632-2.376 20.172-5.901 28.386-5.294 12.333-13.096 21.724-19.561 28.098-6.475 6.372-11.649 9.739-11.913 9.912l-10.767 6.972.992-12.789c.236-3.023.344-5.907.344-8.656-.001-10.462-1.575-18.975-3.871-25.892-3.449-10.368-8.531-17.197-12.681-21.462-2.074-2.127-3.914-3.603-5.182-4.517-.635-.457-1.126-.774-1.43-.961-.152-.093-.258-.155-.311-.185l.028-.049-.026.049h-.002l.028-.049-.026.049z"/><path fill="#774ac5" fill-opacity="1" fill-rule="nonzero" stroke="none" d="M966.879 1262.083l-1.947-3.676 1.985 3.656-.038.02-1.947-3.676 1.985 3.656-.028-.05.028.05-.028-.05.028.05c-.19.103-6.096 3.443-11.882 11.609-2.899 4.088-5.787 9.386-7.97 16.184-2.18 6.799-3.659 15.106-3.66 25.244 0 2.75.109 5.633.344 8.656l.993 12.789-10.768-6.972c-.348-.235-9.439-6.13-18.68-17.289-4.615-5.583-9.269-12.499-12.794-20.721-3.524-8.213-5.903-17.754-5.9-28.386-.009-12.401 3.251-26.208 11.268-40.954l11.152 6.055c-7.121 13.135-9.722 24.708-9.73 34.898.002 8.74 1.933 16.519 4.874 23.388 4.402 10.292 11.145 18.493 16.801 24.055 2.824 2.78 5.366 4.901 7.17 6.303.901.701 1.619 1.222 2.094 1.557.237.168.415.289.524.363l.113.075.016.012-1.485 2.27 1.475-2.278.01.008-1.485 2.27 1.475-2.278-3.449 5.326-6.326.491c-.26-3.341-.382-6.552-.382-9.638-.002-11.739 1.781-21.655 4.519-29.892 4.103-12.365 10.347-20.901 15.637-26.32 5.294-5.427 9.619-7.779 10.069-8.019z"/><path fill="#774ac5" fill-opacity="1" fill-rule="nonzero" stroke="none" d="M1127.927 1146.406c15.777 3.943 28.41 11.439 38.269 20.362 14.805 13.402 23.471 29.863 28.529 42.932 5.05 13.084 6.493 22.857 6.544 23.185l2.093 14.299-11.944-8.136c-1.387-.946-3.219-1.708-5.604-2.224-2.378-.516-5.277-.768-8.574-.766-3.86-.001-8.257.338-13.021.87-7.149.796-15.118 2.021-23.5 3.06-8.384 1.037-17.188 1.888-26.087 1.889-11.67-.003-23.563-1.462-34.772-6.098l4.856-11.725c9.101 3.776 19.295 5.136 29.916 5.133 10.782.004 21.94-1.399 32.608-2.851 5.336-.725 10.554-1.459 15.573-2.019 5.02-.559 9.841-.947 14.427-.949 3.918.003 7.672.282 11.254 1.053 3.574.773 7.009 2.057 10.07 4.14l-3.573 5.243-6.278.92 2.606-.382-2.605.39-.001-.008 2.606-.382-2.605.39c.003-.073-2.464-16.116-11.773-33.457-4.647-8.678-10.975-17.664-19.454-25.273-8.492-7.612-19.091-13.885-32.642-17.286z"/><path fill="#774ac5" fill-opacity="1" fill-rule="nonzero" stroke="none" d="M875.155 1158.716c-13.659 3.429-24.319 9.774-32.843 17.466-12.768 11.522-20.627 26.226-25.2 38.091-2.29 5.924-3.761 11.12-4.651 14.792-.445 1.837-.744 3.292-.93 4.268-.093.488-.157.857-.196 1.092-.02.119-.034.203-.041.254l-.008.049-.001.005-2.312-.345 2.312.342v.003l-2.312-.345 2.312.342-5.021-.741 5.022.735-.001.006-5.021-.741 5.022.735-6.277-.919-3.573-5.243c3.06-2.084 6.496-3.367 10.07-4.14 3.582-.772 7.335-1.051 11.253-1.053 4.586.001 9.407.389 14.428.949 7.527.84 15.507 2.07 23.652 3.077 8.142 1.009 16.443 1.794 24.528 1.793 10.621.003 20.815-1.357 29.916-5.133l4.856 11.724c-11.208 4.637-23.101 6.095-34.772 6.098-11.864-.003-23.565-1.51-34.316-2.967-5.373-.73-10.505-1.45-15.271-1.981-4.763-.532-9.161-.872-13.021-.87-3.297-.002-6.195.25-8.573.766-2.386.516-4.219 1.277-5.605 2.224l-11.944 8.137 2.093-14.3c.078-.437 2.59-17.667 12.899-37.146 5.163-9.734 12.303-20.046 22.174-28.972 9.859-8.922 22.492-16.419 38.269-20.362z"/><path fill="#774ac5" fill-opacity="1" fill-rule="nonzero" stroke="none" d="M1118.035 1169.43c-2.934 9.033-8.212 16.905-13.318 24.834-.909 1.411-1.416 2.807-1.599 4.147-15.344 3.106-30.997 3.64-46.894 1.72-10.757-1.298-20.601-5.976-30.203-10.828-5.63-2.845-11.019-3.936-17.205-1.615-5.594 2.099-11.659 2.127-17.277.059-6.297-2.319-11.787-1.336-17.601 1.616-9.079 4.61-18.429 9.015-28.568 10.498-16.517 2.417-32.824 1.73-48.864-1.57-2.851-5.384-4.962-11.159-8.371-16.235-2.972-4.425-5.816-8.823-8.319-13.444 2.95-2.71 4.638-6.374 5.369-10.804 1.532-9.272 4.544-18.095 8.894-26.465 4.356-8.379 10.909-13.91 20.038-16.512 9.911-2.827 19.995-3.619 30.237-3.193 9.016.374 16.821 3.481 23.35 9.805 11.885 11.507 17.437 25.968 19.802 41.952.172 1.162 0 2.213-.71 3.168-2.262 3.043-.494 4.515 2.201 5.622 6.726 2.763 13.528 3.133 20.407.61 4.867-1.785 5.05-2.245 3.516-7.104-.281-.892-.338-1.943-.188-2.869.943-5.785 1.905-11.598 4.117-17.051 9.195-22.652 21.935-35.602 45.956-34.175 3.955-.15 8.523.309 13.089.972 12.372 1.797 23.27 5.996 29.603 17.794 4.457 8.302 7.628 17.097 9.085 26.392.652 4.155 2.05 7.669 4.425 10.482-.382.66-.711 1.389-.972 2.194"/></g></svg>