<svg xmlns="http://www.w3.org/2000/svg" role="img" viewBox="63.02 19.52 223.95 310.70"><title>Consul logo</title><g fill="none"><path fill="#000" d="M70.63 283.601c0-10.113 5.89-15.97 19.642-15.97a62.597 62.597 0 0 1 15.015 1.812l-1.157 9.036a81.361 81.361 0 0 0-13.516-1.418c-7.205 0-9.466 2.495-9.466 8.38v21.171c0 5.884 2.314 8.354 9.519 8.354a81.361 81.361 0 0 0 13.516-1.419l1.157 9.036a62.597 62.597 0 0 1-15.015 1.813c-13.753 0-19.643-5.884-19.643-15.971L70.63 283.6zm57.035 40.821c-13.832 0-17.566-7.618-17.566-15.892v-10.192c0-8.275 3.734-15.892 17.566-15.892 13.832 0 17.566 7.617 17.566 15.892v10.192c0 8.274-3.603 15.892-17.566 15.892zm0-33.36c-5.26 0-7.468 2.39-7.468 6.96v10.85c0 4.544 2.077 6.96 7.468 6.96 5.39 0 7.468-2.39 7.468-6.96v-10.85c0-4.544-2.077-6.96-7.468-6.96zm48.305 32.546v-28.16c0-2.154-.92-3.23-3.234-3.23a27.988 27.988 0 0 0-10.518 3.388v27.976h-10.072v-40.296h7.705l1 3.389a40.462 40.462 0 0 1 16.171-4.23c6.706 0 9.125 4.729 9.125 11.926v29.237H175.97zm30.924.814a47.59 47.59 0 0 1-13.937-2.311l1.42-7.697a45.15 45.15 0 0 0 12.017 1.734c4.47 0 5.26-.999 5.26-4.046 0-2.495-.5-3.73-7.048-5.253-9.86-2.39-11.018-4.886-11.018-12.661 0-7.776 3.577-11.664 15.094-11.664a53.14 53.14 0 0 1 12.096 1.419l-.999 8.038a71.197 71.197 0 0 0-11.097-1.156c-4.391 0-5.259.998-5.259 3.468 0 3.23.237 3.467 5.732 4.885 11.281 2.969 12.36 4.466 12.36 12.74-.027 7.828-2.446 12.504-14.62 12.504zm31.318-41.136v28.16c0 2.154.92 3.23 3.235 3.23a27.988 27.988 0 0 0 10.518-3.388v-28.002h10.124v40.322h-7.705l-1-3.389a40.462 40.462 0 0 1-16.171 4.23c-6.705 0-9.125-4.729-9.125-11.926v-29.237h10.124zm32.58 40.322V266.79l10.203-1.392v58.21h-10.202zM78.335 257.806v-5.569H73.26v5.57h-2.63v-13.371h2.63v5.595h5.075v-5.595h2.63v13.37h-2.63zm12.149 0h-2.078l-.184-.657a5.697 5.697 0 0 1-2.997.841c-1.841 0-2.63-1.208-2.63-2.863s.894-2.627 2.919-2.627h2.42v-1.05c0-1.078-.316-1.445-1.92-1.445-.937.007-1.867.105-2.788.288l-.315-1.838a13.68 13.68 0 0 1 3.497-.5c3.156 0 4.076 1.078 4.076 3.494v6.357zm-2.525-3.73h-1.867c-.815 0-1.051.21-1.051.946 0 .735.236.972.999.972a4.102 4.102 0 0 0 1.893-.5l.026-1.418zm7.89 3.835a12.255 12.255 0 0 1-3.472-.551l.342-1.84c.973.269 1.985.41 2.998.421 1.104 0 1.288-.236 1.288-.972 0-.735 0-.893-1.762-1.26-2.445-.579-2.63-1.156-2.63-3.022 0-1.865.895-2.784 3.761-2.784 1.018 0 2.033.116 3.024.342l-.237 1.917a18.398 18.398 0 0 0-2.76-.289c-1.105 0-1.29.237-1.29.84 0 .605 0 .841 1.42 1.157 2.815.709 3.077 1.077 3.077 3.047 0 1.97-.841 3.073-3.865 3.073l.105-.079zm11.517-.21v-6.62c0-.525-.237-.761-.815-.761-.92.1-1.815.375-2.63.814v6.698h-2.63v-13.58l2.63.368v4.202a9.185 9.185 0 0 1 3.681-.919c1.683 0 2.262 1.13 2.262 2.863v6.988l-2.498-.053zm4.628-11.006v-2.364h2.63v2.364h-2.63zm0 11.006v-9.535h2.63v9.64l-2.63-.105zm4.523-9.562c0-2.416 1.472-3.808 4.89-3.808 1.258 0 2.512.152 3.735.446l-.29 2.154a21.249 21.249 0 0 0-3.365-.341c-1.789 0-2.367.604-2.367 1.996v5.07c0 1.418.578 1.996 2.367 1.996a21.249 21.249 0 0 0 3.365-.341l.29 2.154a15.972 15.972 0 0 1-3.734.446c-3.419 0-4.891-1.418-4.891-3.809v-5.963zm14.2 9.772c-3.445 0-4.366-1.812-4.366-3.809v-2.443c0-1.97.92-3.808 4.365-3.808 3.445 0 4.365 1.812 4.365 3.808v2.417c-.078 2.102-.999 3.914-4.444 3.914l.08-.079zm0-7.88c-1.342 0-1.868.578-1.868 1.655v2.626c0 1.077.526 1.655 1.867 1.655s1.867-.578 1.867-1.655v-2.626c-.105-1.077-.604-1.655-1.946-1.655h.08zm11.464.157c-.91.408-1.788.88-2.63 1.419v6.225h-2.629v-9.666h2.077l.158 1.077c.815-.53 1.704-.954 2.63-1.261l.394 2.206zm9.966 4.413a2.97 2.97 0 0 1-3.313 3.415 14.52 14.52 0 0 1-2.63-.289v3.94l-2.63.368v-13.87h2l.236.815a5.454 5.454 0 0 1 3.182-.998c2.025 0 3.103 1.156 3.103 3.336l.052 3.283zm-5.995 1.077a11.84 11.84 0 0 0 2.235.263c.92 0 1.262-.42 1.262-1.287v-3.415c0-.788-.315-1.234-1.236-1.234-.83.02-1.63.328-2.261.866v4.807z"/><path fill="#961D59" d="M172.026 149.004c-12.112.013-21.95-9.772-21.983-21.874-.035-12.099 9.748-21.942 21.862-21.994 12.112-.053 21.978 9.703 22.052 21.802a21.875 21.875 0 0 1-6.359 15.604 21.929 21.929 0 0 1-15.572 6.462"/><path fill="#D62783" d="M214.756 137.078c-5.59 0-10.123-4.529-10.123-10.113 0-5.585 4.533-10.114 10.123-10.114 5.591 0 10.124 4.53 10.124 10.114a10.07 10.07 0 0 1-2.958 7.158 10.09 10.09 0 0 1-7.166 2.955m37.051 9.535c-1.572 5.033-6.89 7.889-11.96 6.423-5.069-1.466-8.038-6.714-6.678-11.81 1.362-5.096 6.547-8.17 11.675-6.927 5.133 1.253 8.317 6.37 7.174 11.518 0 .263 0 .5-.21.788m-7.153-26.058a10.153 10.153 0 0 1-10.64-3.827 10.127 10.127 0 0 1-.494-11.28 10.161 10.161 0 0 1 10.266-4.74 10.16 10.16 0 0 1 8.283 7.69 10.482 10.482 0 0 1 0 3.967 9.75 9.75 0 0 1-7.626 8.222m36.236 24.928c-.968 5.498-6.216 9.173-11.72 8.21-5.506-.968-9.185-6.205-8.223-11.706.963-5.506 6.206-9.183 11.712-8.222 5.225.83 8.94 5.522 8.546 10.796a2.656 2.656 0 0 0-.21.893m-8.362-25.37c-5.501.912-10.702-2.805-11.612-8.3-.913-5.49 2.803-10.686 8.304-11.6 5.496-.914 10.702 2.798 11.617 8.29a10.89 10.89 0 0 1 0 2.627 10.037 10.037 0 0 1-8.309 8.984m-7.047 60.416a10.264 10.264 0 0 1-12.964 4.445 10.248 10.248 0 0 1-5.811-12.41c1.525-5.008 6.587-8.063 11.735-7.084 5.15.988 8.73 5.687 8.302 10.902a9.059 9.059 0 0 1-1.262 4.15m-3.655-92.937c-4.886 2.748-11.07 1.02-13.821-3.861-2.75-4.878-1.02-11.059 3.865-13.807 4.88-2.747 11.07-1.024 13.821 3.854a9.464 9.464 0 0 1 1.262 5.858 10.134 10.134 0 0 1-5.101 7.88"/><path fill="#D62783" d="M172.42 228.885c-36.75.591-70.967-18.658-89.516-50.356a101.595 101.595 0 0 1 0-102.63c18.55-31.695 52.765-50.944 89.516-50.356a100.86 100.86 0 0 1 61.795 21.015l-12.438 16.207c-24.56-18.781-57.66-22.012-85.395-8.332-27.734 13.678-45.294 41.898-45.294 72.794.015 30.9 17.57 59.117 45.297 72.816 27.726 13.685 60.832 10.494 85.419-8.249l12.411 16.234a100.962 100.962 0 0 1-61.795 20.857z"/></g></svg>