<svg xmlns="http://www.w3.org/2000/svg" role="img" viewBox="16.69 -11.31 586.12 588.12"><title>Constellation logo</title><circle cx="310.5" cy="224.5" r="224.5" fill="#90FF99"/><path fill-rule="evenodd" d="M535 224.5C535 348.488 434.488 449 310.5 449S86 348.488 86 224.5 186.512 0 310.5 0c43.217 0 83.581 12.2114 117.832 33.3718C419.476 42.2375 414 54.4792 414 68c0 27.062 21.938 49 49 49 13.975 0 26.584-5.85 35.51-15.236C521.585 137.039 535 179.203 535 224.5zM512 68c0 13.087-5.13 24.9757-13.49 33.764-18.07-27.6239-42.064-51.0229-70.178-68.3922C437.201 24.4928 449.459 19 463 19c27.062 0 49 21.938 49 49zM344.039 319.019c37.702-13.35 61.924-47.739 64.148-85.304l59.42-21.042c6.968 70.013-34.249 138.369-103.54 162.905-81.476 28.851-170.912-13.81-199.763-95.285s13.809-170.912 95.285-199.763c69.628-24.6557 145.071 2.9156 183.546 62.307l-59.258 20.983c-25.316-28.376-66.197-40.21-104.261-26.731-50.238 17.79-76.543 72.938-58.754 123.176 17.79 50.239 72.938 76.544 123.177 58.754z" clip-rule="evenodd"/><path d="M69.8438 542.359h14.0156c-.2813 4.594-1.5469 8.672-3.7969 12.235-2.2187 3.562-5.3281 6.344-9.3281 8.344-3.9688 2-8.75 3-14.3438 3-4.375 0-8.2968-.75-11.7656-2.25-3.4688-1.532-6.4375-3.719-8.9062-6.563-2.4376-2.844-4.2969-6.281-5.5782-10.313-1.2812-4.031-1.9218-8.546-1.9218-13.546v-4.735c0-5 .6562-9.515 1.9687-13.547 1.3437-4.062 3.25-7.515 5.7187-10.359 2.5-2.844 5.4844-5.031 8.9532-6.563 3.4687-1.531 7.3437-2.296 11.625-2.296 5.6875 0 10.4844 1.031 14.3906 3.093 3.9375 2.063 6.9844 4.907 9.1406 8.532 2.1875 3.625 3.5 7.75 3.9375 12.375H69.8906c-.1562-2.75-.7031-5.078-1.6406-6.985-.9375-1.937-2.3594-3.39-4.2656-4.359-1.875-1-4.375-1.5-7.5-1.5-2.3438 0-4.3906.437-6.1406 1.312s-3.2188 2.204-4.4063 3.985c-1.1875 1.781-2.0781 4.031-2.6719 6.75-.5625 2.687-.8437 5.843-.8437 9.469v4.828c0 3.531.2656 6.64.7969 9.328.5312 2.656 1.3437 4.906 2.4374 6.75 1.125 1.812 2.5626 3.187 4.3126 4.125 1.7812.906 3.9218 1.359 6.4218 1.359 2.9375 0 5.3594-.469 7.2656-1.406 1.9063-.938 3.3594-2.328 4.3594-4.172 1.0313-1.844 1.6406-4.141 1.8282-6.891zm20.25-2.203v-.984c0-3.719.5312-7.141 1.5937-10.266 1.0625-3.156 2.6094-5.89 4.6406-8.203 2.0313-2.312 4.5309-4.109 7.4999-5.391 2.969-1.312 6.375-1.968 10.219-1.968 3.844 0 7.265.656 10.265 1.968 3 1.282 5.516 3.079 7.547 5.391 2.063 2.313 3.625 5.047 4.688 8.203 1.062 3.125 1.594 6.547 1.594 10.266v.984c0 3.688-.532 7.11-1.594 10.266-1.063 3.125-2.625 5.859-4.688 8.203-2.031 2.313-4.531 4.109-7.5 5.391-2.968 1.281-6.375 1.922-10.218 1.922-3.844 0-7.266-.641-10.266-1.922-2.969-1.282-5.4844-3.078-7.5469-5.391-2.0312-2.344-3.5781-5.078-4.6406-8.203-1.0625-3.156-1.5937-6.578-1.5937-10.266zm13.5002-.984v.984c0 2.125.187 4.11.562 5.953.375 1.844.969 3.469 1.782 4.875.843 1.375 1.937 2.454 3.281 3.235 1.343.781 2.984 1.172 4.922 1.172 1.875 0 3.484-.391 4.828-1.172 1.343-.781 2.422-1.86 3.234-3.235.813-1.406 1.406-3.031 1.781-4.875.407-1.843.61-3.828.61-5.953v-.984c0-2.063-.203-4-.61-5.813-.375-1.843-.984-3.468-1.828-4.875-.812-1.437-1.89-2.562-3.234-3.375-1.344-.812-2.969-1.218-4.875-1.218-1.906 0-3.531.406-4.875 1.218-1.313.813-2.391 1.938-3.234 3.375-.813 1.407-1.407 3.032-1.782 4.875-.375 1.813-.562 3.75-.562 5.813zm56.062-14.063V565h-13.5v-50.719h12.656l.844 10.828zm-1.968 12.75h-3.657c0-3.75.485-7.125 1.453-10.125.969-3.031 2.328-5.609 4.078-7.734 1.75-2.156 3.829-3.797 6.235-4.922 2.437-1.156 5.156-1.734 8.156-1.734 2.375 0 4.547.344 6.516 1.031 1.969.687 3.656 1.781 5.062 3.281 1.438 1.5 2.531 3.485 3.281 5.953.782 2.469 1.172 5.485 1.172 9.047V565h-13.593v-32.391c0-2.25-.313-4-.938-5.25s-1.547-2.125-2.765-2.625c-1.188-.531-2.657-.796-4.407-.796-1.812 0-3.39.359-4.734 1.078-1.313.718-2.406 1.718-3.281 3-.844 1.25-1.485 2.718-1.922 4.406-.438 1.687-.656 3.5-.656 5.437zm69.984 13.125c0-.968-.281-1.843-.844-2.625-.562-.781-1.609-1.5-3.14-2.156-1.5-.687-3.672-1.312-6.516-1.875-2.563-.562-4.953-1.266-7.172-2.109-2.188-.875-4.094-1.922-5.719-3.141-1.593-1.219-2.843-2.656-3.75-4.312-.906-1.688-1.359-3.61-1.359-5.766 0-2.125.453-4.125 1.359-6 .938-1.875 2.266-3.531 3.985-4.969 1.75-1.469 3.875-2.609 6.375-3.422 2.531-.843 5.375-1.265 8.531-1.265 4.406 0 8.187.703 11.344 2.109 3.187 1.406 5.625 3.344 7.312 5.813 1.719 2.437 2.578 5.218 2.578 8.343h-13.5c0-1.312-.281-2.484-.844-3.515-.531-1.063-1.374-1.891-2.531-2.485-1.125-.625-2.593-.937-4.406-.937-1.5 0-2.797.266-3.891.797-1.093.5-1.937 1.187-2.531 2.062-.562.844-.844 1.781-.844 2.813 0 .781.157 1.484.469 2.109.344.594.891 1.141 1.641 1.641s1.719.968 2.906 1.406c1.219.406 2.719.781 4.5 1.125 3.656.75 6.922 1.734 9.797 2.953 2.875 1.188 5.156 2.813 6.844 4.875 1.687 2.031 2.531 4.703 2.531 8.016 0 2.25-.5 4.312-1.5 6.187s-2.438 3.516-4.313 4.922c-1.875 1.375-4.125 2.453-6.75 3.234-2.593.75-5.515 1.126-8.765 1.126-4.719 0-8.719-.844-12-2.532-3.25-1.687-5.719-3.828-7.407-6.422-1.656-2.625-2.484-5.312-2.484-8.062h12.797c.063 1.844.531 3.328 1.406 4.453.907 1.125 2.047 1.937 3.422 2.437 1.406.5 2.922.75 4.547.75 1.75 0 3.203-.234 4.359-.703 1.157-.5 2.032-1.156 2.625-1.968.625-.844.938-1.813.938-2.907zm46.734-36.703v9.563h-29.531v-9.563h29.531zm-22.218-12.515h13.5v47.953c0 1.469.187 2.593.562 3.375.406.781 1 1.328 1.781 1.64.781.282 1.766.422 2.953.422.844 0 1.594-.031 2.25-.094.688-.093 1.266-.187 1.735-.281l.047 9.938c-1.157.375-2.407.672-3.75.89-1.344.219-2.828.329-4.454.329-2.968 0-5.562-.485-7.781-1.454-2.187-1-3.875-2.593-5.062-4.781-1.188-2.187-1.781-5.062-1.781-8.625v-49.312zm53.25 64.172c-3.938 0-7.469-.626-10.594-1.876-3.125-1.281-5.782-3.046-7.969-5.296-2.156-2.25-3.813-4.86-4.969-7.828-1.156-3-1.734-6.188-1.734-9.563V539.5c0-3.844.547-7.359 1.64-10.547 1.094-3.187 2.657-5.953 4.688-8.297 2.062-2.344 4.562-4.14 7.5-5.39 2.938-1.282 6.25-1.922 9.938-1.922 3.593 0 6.781.594 9.562 1.781 2.781 1.187 5.109 2.875 6.984 5.063 1.907 2.187 3.344 4.812 4.313 7.874.969 3.032 1.453 6.407 1.453 10.126v5.624h-40.312v-9h27.046v-1.031c0-1.875-.343-3.547-1.031-5.015-.656-1.5-1.656-2.688-3-3.563s-3.062-1.312-5.156-1.312c-1.781 0-3.313.39-4.594 1.171-1.281.782-2.328 1.876-3.141 3.282-.781 1.406-1.374 3.062-1.781 4.968-.375 1.876-.562 3.938-.562 6.188v1.875c0 2.031.281 3.906.843 5.625.594 1.719 1.422 3.203 2.485 4.453 1.094 1.25 2.406 2.219 3.937 2.906 1.563.688 3.328 1.032 5.297 1.032 2.438 0 4.703-.469 6.797-1.407 2.125-.968 3.953-2.422 5.484-4.359l6.563 7.125c-1.063 1.531-2.516 3-4.359 4.406-1.813 1.406-4 2.563-6.563 3.469-2.562.875-5.484 1.313-8.765 1.313zM348.188 493v72h-13.547v-72h13.547zm25.406 0v72h-13.547v-72h13.547zm38.531 60.562v-22.593c0-1.625-.266-3.016-.797-4.172-.531-1.188-1.359-2.109-2.484-2.766-1.094-.656-2.516-.984-4.266-.984-1.5 0-2.797.265-3.89.797-1.094.5-1.938 1.234-2.532 2.203-.594.937-.89 2.047-.89 3.328h-13.5c0-2.156.5-4.203 1.5-6.141 1-1.937 2.453-3.64 4.359-5.109 1.906-1.5 4.172-2.672 6.797-3.516 2.656-.843 5.625-1.265 8.906-1.265 3.938 0 7.438.656 10.5 1.968 3.063 1.313 5.469 3.282 7.219 5.907 1.781 2.625 2.672 5.906 2.672 9.843v21.704c0 2.781.172 5.062.515 6.843.344 1.75.844 3.282 1.5 4.594V565h-13.64c-.656-1.375-1.156-3.094-1.5-5.156-.313-2.094-.469-4.188-.469-6.282zm1.781-19.453l.094 7.641h-7.547c-1.781 0-3.328.203-4.641.609-1.312.407-2.39.985-3.234 1.735-.844.718-1.469 1.562-1.875 2.531-.375.969-.562 2.031-.562 3.187 0 1.157.265 2.204.797 3.141.531.906 1.296 1.625 2.296 2.156 1 .5 2.172.75 3.516.75 2.031 0 3.797-.406 5.297-1.218 1.5-.813 2.656-1.813 3.469-3 .843-1.188 1.281-2.313 1.312-3.375l3.563 5.718c-.5 1.282-1.188 2.61-2.063 3.985-.844 1.375-1.922 2.672-3.234 3.89-1.313 1.188-2.891 2.172-4.735 2.953-1.843.75-4.031 1.126-6.562 1.126-3.219 0-6.141-.641-8.766-1.922-2.593-1.313-4.656-3.11-6.187-5.391-1.5-2.313-2.25-4.937-2.25-7.875 0-2.656.5-5.016 1.5-7.078 1-2.063 2.468-3.797 4.406-5.203 1.969-1.438 4.422-2.516 7.359-3.235 2.938-.75 6.344-1.125 10.219-1.125h7.828zm47.063-19.828v9.563h-29.531v-9.563h29.531zm-22.219-12.515h13.5v47.953c0 1.469.188 2.593.562 3.375.407.781 1 1.328 1.782 1.64.781.282 1.765.422 2.953.422.844 0 1.594-.031 2.25-.094.687-.093 1.265-.187 1.734-.281l.047 9.938c-1.156.375-2.406.672-3.75.89-1.344.219-2.828.329-4.453.329-2.969 0-5.563-.485-7.781-1.454-2.188-1-3.875-2.593-5.063-4.781-1.187-2.187-1.781-5.062-1.781-8.625v-49.312zm44.156 12.515V565h-13.547v-50.719h13.547zm-14.39-13.219c0-1.968.687-3.593 2.062-4.874 1.375-1.282 3.219-1.922 5.531-1.922 2.282 0 4.11.64 5.485 1.922 1.406 1.281 2.109 2.906 2.109 4.874 0 1.969-.703 3.594-2.109 4.876-1.375 1.281-3.203 1.921-5.485 1.921-2.312 0-4.156-.64-5.531-1.921-1.375-1.282-2.062-2.907-2.062-4.876zm23.39 39.094v-.984c0-3.719.532-7.141 1.594-10.266 1.062-3.156 2.609-5.89 4.641-8.203 2.031-2.312 4.531-4.109 7.5-5.391 2.968-1.312 6.375-1.968 10.218-1.968 3.844 0 7.266.656 10.266 1.968 3 1.282 5.516 3.079 7.547 5.391 2.062 2.313 3.625 5.047 4.687 8.203 1.063 3.125 1.594 6.547 1.594 10.266v.984c0 3.688-.531 7.11-1.594 10.266-1.062 3.125-2.625 5.859-4.687 8.203-2.031 2.313-4.531 4.109-7.5 5.391-2.969 1.281-6.375 1.922-10.219 1.922-3.844 0-7.265-.641-10.265-1.922-2.969-1.282-5.485-3.078-7.547-5.391-2.032-2.344-3.579-5.078-4.641-8.203-1.062-3.156-1.594-6.578-1.594-10.266zm13.5-.984v.984c0 2.125.188 4.11.563 5.953.375 1.844.969 3.469 1.781 4.875.844 1.375 1.938 2.454 3.281 3.235 1.344.781 2.985 1.172 4.922 1.172 1.875 0 3.485-.391 4.828-1.172 1.344-.781 2.422-1.86 3.235-3.235.812-1.406 1.406-3.031 1.781-4.875.406-1.843.609-3.828.609-5.953v-.984c0-2.063-.203-4-.609-5.813-.375-1.843-.985-3.468-1.828-4.875-.813-1.437-1.891-2.562-3.235-3.375-1.343-.812-2.968-1.218-4.875-1.218-1.906 0-3.531.406-4.875 1.218-1.312.813-2.39 1.938-3.234 3.375-.812 1.407-1.406 3.032-1.781 4.875-.375 1.813-.563 3.75-.563 5.813zm56.063-14.063V565h-13.5v-50.719h12.656l.844 10.828zm-1.969 12.75h-3.656c0-3.75.484-7.125 1.453-10.125.969-3.031 2.328-5.609 4.078-7.734 1.75-2.156 3.828-3.797 6.234-4.922 2.438-1.156 5.157-1.734 8.157-1.734 2.375 0 4.546.344 6.515 1.031 1.969.687 3.657 1.781 5.063 3.281 1.437 1.5 2.531 3.485 3.281 5.953.781 2.469 1.172 5.485 1.172 9.047V565h-13.594v-32.391c0-2.25-.312-4-.937-5.25s-1.547-2.125-2.766-2.625c-1.188-.531-2.656-.796-4.406-.796-1.813 0-3.391.359-4.735 1.078-1.312.718-2.406 1.718-3.281 3-.844 1.25-1.484 2.718-1.922 4.406-.437 1.687-.656 3.5-.656 5.437z"/></svg>