<?xml version="1.0" encoding="utf-8"?>
<!-- Generator: Adobe Illustrator 21.1.0, SVG Export Plug-In . SVG Version: 6.00 Build 0)  -->
<svg version="1.1" id="Capa_1" xmlns="http://www.w3.org/2000/svg" xmlns:xlink="http://www.w3.org/1999/xlink" x="0px" y="0px"
	 viewBox="0 0 281 370" style="enable-background:new 0 0 281 370;" xml:space="preserve">
<style type="text/css">
	.Arqueado:_x0020_verde{fill:url(#SVGID_1_);stroke:#FFFFFF;stroke-width:0.25;stroke-miterlimit:1;}
	.st0{fill:#416CAA;}
	.st1{opacity:0.6;}
	.st2{fill:url(#SVGID_2_);}
	.st3{opacity:0.6;fill:#F6921E;}
	.st4{fill:url(#SVGID_3_);}
	.st5{opacity:0.6;fill:#416CAA;}
	.st6{fill:#73C5D7;}
	.st7{fill:url(#SVGID_4_);}
	.st8{fill:url(#SVGID_5_);}
	.st9{fill:url(#SVGID_6_);}
	.st10{fill:url(#SVGID_7_);}
	.st11{fill:#FFFFFF;}
</style>
<linearGradient id="SVGID_1_" gradientUnits="userSpaceOnUse" x1="-1963" y1="248" x2="-1962.2928" y2="247.2929">
	<stop  offset="0" style="stop-color:#1EAB4B"/>
	<stop  offset="0.9831" style="stop-color:#19361A"/>
</linearGradient>
<g>
	<g>
		<g>
			<radialGradient id="SVGID_2_" cx="225.1118" cy="57.8199" r="243.3827" gradientUnits="userSpaceOnUse">
				<stop  offset="0" style="stop-color:#FFF000"/>
				<stop  offset="1" style="stop-color:#F5911E"/>
			</radialGradient>
			<path class="st2" d="M250.6,197.4c-6.3,0-12.3-1.6-17.6-4.3c-6.8,15.8-21.5,27.6-39.7,29.8c-2,0.2-3.9,0.3-5.9,0.3
				c-25.1,0-46.2-18.8-49.2-43.8c-0.1-0.7-0.2-1.3-0.4-2.1c-2.9-15.8-11.3-29.3-23-38.9c3.9,0.8,8,1.1,12.2,1.1
				c13.3,0,27.1-3.8,41.1-11.3c0,0,0.1,0,0.1-0.1l0.2-0.1c0.2-0.1,0.4-0.3,0.6-0.3c0,0,4.4-2.6,11.1-4.3c0.3,0,0.6-0.1,1-0.1
				c1.9-0.2,3.8-0.3,5.7-0.3c12.7,0,24.5,5,33.5,13.2c7-9.2,17.9-15.1,30.4-15.1c0.7,0,1.3,0.1,2,0.1c-4.7-5.9-10.3-11.2-16.5-15.6
				c-13.7-11-29.2-16.5-46.1-16.5c-13.4,0-27.6,3.8-38,10.1c-6.2,3.3-15.4,7.2-24.9,7.2c-8.9,0-16.1-3.3-22-10.1
				c-5-5.8-7.7-12.8-7.8-20.2c0.5-7.9,3.7-15.2,9.1-20.5c5.9-5.9,13.8-9.1,22.2-9.1c8.5,0,16.4,3.3,22.4,9.3
				c2.2,2.3,4.1,4.8,5.6,7.6c3,5.7,8.8,9.2,15.1,9.2c2.7,0,5.5-0.7,7.9-1.9c8.3-4.3,11.6-14.7,7.2-23c-3.1-5.9-7-11.2-11.6-15.8
				c-12.4-12.5-28.9-19.4-46.5-19.4c-15.5,0-30.5,5.5-42.3,15.4c-0.2,0.1-0.5,0.3-0.9,0.6c-0.5,0.4-1,0.9-1.5,1.4
				c-0.2,0.2-0.4,0.4-0.6,0.6c-0.1,0.1-0.2,0.2-0.3,0.2c-0.2,0.2-0.5,0.4-0.7,0.7c-0.1,0.1-0.3,0.3-0.4,0.5
				c-1.2,1.2-2.3,2.4-3.4,3.8l-0.2,0.2c-0.2,0.2-0.4,0.5-0.6,0.7C69.3,46.8,64.6,59.3,64,72.5c-0.8,16.6,4.9,32.8,16.1,45.6
				c2.3,2.6,4.6,5,7.2,7.1c-6.9-1.5-14.3-1.9-21.6-1c-35.9,4.3-61.7,37-57.4,72.9C12,230.1,40,255,73.2,255c2.6,0,5.2-0.2,7.8-0.5
				c6.6-0.8,13-2.5,18.9-5.2c8.6-3.8,12.5-13.9,8.6-22.5c-2.7-6.1-8.9-10.1-15.6-10.1c-2.4,0-4.7,0.5-6.9,1.5
				c-2.9,1.3-5.9,2.1-9.1,2.5c-1.2,0.1-2.5,0.2-3.8,0.2c-15.9,0-29.4-12-31.3-27.8c-1-8.3,1.3-16.6,6.6-23.2
				c5.2-6.6,12.7-10.8,21-11.8c1.2-0.1,2.5-0.2,3.7-0.2c15.9,0,29.4,11.9,31.3,27.7c0.1,0.7,0.2,1.3,0.3,1.9
				c3.2,19.5,13.4,37.3,28.5,50.1c15.1,12.8,34.3,19.8,54,19.8h0c3.3,0,6.6-0.2,9.9-0.6c35.9-4.3,63.8-30.8,71.6-64.1
				C263.5,195.7,257.2,197.4,250.6,197.4z"/>
			<path class="st3" d="M250.6,197.4c-6.3,0-12.3-1.6-17.6-4.3c-6.8,15.8-21.5,27.6-39.7,29.8c-2,0.2-3.9,0.3-5.9,0.3
				c-25.1,0-46.2-18.8-49.2-43.8c-0.1-0.7-0.2-1.3-0.4-2.1c-2.9-15.8-11.3-29.3-23-38.9c3.9,0.8,8,1.1,12.2,1.1
				c13.3,0,27.1-3.8,41.1-11.3c0,0,0.1,0,0.1-0.1l0.2-0.1c0.2-0.1,0.4-0.3,0.6-0.3c0,0,4.4-2.6,11.1-4.3c0.3,0,0.6-0.1,1-0.1
				c1.9-0.2,3.8-0.3,5.7-0.3c12.7,0,24.5,5,33.5,13.2c7-9.2,17.9-15.1,30.4-15.1c0.7,0,1.3,0.1,2,0.1c-4.7-5.9-10.3-11.2-16.5-15.6
				c-13.7-11-29.2-16.5-46.1-16.5c-13.4,0-27.6,3.8-38,10.1c-6.2,3.3-15.4,7.2-24.9,7.2c-8.9,0-16.1-3.3-22-10.1
				c-5-5.8-7.7-12.8-7.8-20.2c0.5-7.9,3.7-15.2,9.1-20.5c5.9-5.9,13.8-9.1,22.2-9.1c8.5,0,16.4,3.3,22.4,9.3
				c2.2,2.3,4.1,4.8,5.6,7.6c3,5.7,8.8,9.2,15.1,9.2c2.7,0,5.5-0.7,7.9-1.9c8.3-4.3,11.6-14.7,7.2-23c-3.1-5.9-7-11.2-11.6-15.8
				c-12.4-12.5-28.9-19.4-46.5-19.4c-15.5,0-30.5,5.5-42.3,15.4c-0.2,0.1-0.5,0.3-0.9,0.6c-0.5,0.4-1,0.9-1.5,1.4
				c-0.2,0.2-0.4,0.4-0.6,0.6c-0.1,0.1-0.2,0.2-0.3,0.2c-0.2,0.2-0.5,0.4-0.7,0.7c-0.1,0.1-0.3,0.3-0.4,0.5
				c-1.2,1.2-2.3,2.4-3.4,3.8l-0.2,0.2c-0.2,0.2-0.4,0.5-0.6,0.7C69.3,46.8,64.6,59.3,64,72.5c-0.8,16.6,4.9,32.8,16.1,45.6
				c2.3,2.6,4.6,5,7.2,7.1c-6.9-1.5-14.3-1.9-21.6-1c-35.9,4.3-61.7,37-57.4,72.9C12,230.1,40,255,73.2,255c2.6,0,5.2-0.2,7.8-0.5
				c6.6-0.8,13-2.5,18.9-5.2c8.6-3.8,12.5-13.9,8.6-22.5c-2.7-6.1-8.9-10.1-15.6-10.1c-2.4,0-4.7,0.5-6.9,1.5
				c-2.9,1.3-5.9,2.1-9.1,2.5c-1.2,0.1-2.5,0.2-3.8,0.2c-15.9,0-29.4-12-31.3-27.8c-1-8.3,1.3-16.6,6.6-23.2
				c5.2-6.6,12.7-10.8,21-11.8c1.2-0.1,2.5-0.2,3.7-0.2c15.9,0,29.4,11.9,31.3,27.7c0.1,0.7,0.2,1.3,0.3,1.9
				c3.2,19.5,13.4,37.3,28.5,50.1c15.1,12.8,34.3,19.8,54,19.8h0c3.3,0,6.6-0.2,9.9-0.6c35.9-4.3,63.8-30.8,71.6-64.1
				C263.5,195.7,257.2,197.4,250.6,197.4z"/>
			<radialGradient id="SVGID_3_" cx="226.9463" cy="57.8161" r="243.4844" gradientUnits="userSpaceOnUse">
				<stop  offset="0" style="stop-color:#FFF000"/>
				<stop  offset="1" style="stop-color:#F5911E"/>
			</radialGradient>
			<circle class="st4" cx="250.6" cy="159.3" r="20.4"/>
			<circle class="st3" cx="250.6" cy="159.3" r="20.4"/>
		</g>
	</g>
	<g>
		<path d="M96.2,346.9c-8,7.6-18.6,11.4-29.1,11.4c-26.9,0-40.9-17.9-41.1-38.4c-0.2-20.3,13.7-39.2,41.1-39.2
			c10.5,0,21.1,3.8,29.1,11.4l-4.2,3.5c-6.8-6.5-15.8-9.6-24.9-9.6c-23.3,0-35.2,15.6-35.1,33.8c0.2,17.8,12.1,33.2,35.1,33.2
			c9,0,18.1-3.3,25-9.6L96.2,346.9z"/>
		<path d="M186.4,296.2c-5.8-8.9-15.2-10.2-24.2-10.3c-9.4,0-24.2,3.3-24.2,15.4c0,9.6,10.9,11.9,24.4,14.3
			c15.4,2.8,31.4,5.4,31.4,21.8c-0.1,17.1-18.2,21.2-31.6,21.2c-12.4,0-26.6-4.9-32.7-16.5l5.5-2.6c4.9,9.2,17.4,13.8,27.3,13.8
			c9.8,0,25.4-2.6,25.4-16c0.1-11.4-13.1-13.9-26.2-16.3c-14.6-2.7-29.5-5.5-29.5-19.5c-0.3-16,17.2-21,30.3-21
			c11.4,0,21.3,1.7,29.2,12.9L186.4,296.2z"/>
		<path d="M229.8,357.4v-75.8h6v75.8H229.8z"/>
	</g>
</g>
</svg>
