<svg xmlns="http://www.w3.org/2000/svg" role="img" viewBox="22.13 19.13 565.24 161.24"><title>Contour logo</title><path fill="#239de0" d="M125.042 33.403a69.6 69.6 0 0 0-17.695-3.294c-7.3 40.263-27.42 68.438-44.867 86.085a173.557 173.557 0 0 1-20.281 17.54 70.177 70.177 0 0 0 5.636 8.629c10.974-6.946 21.034-14.837 28.897-22.327 18.799-17.907 40.483-46.364 48.31-86.633m23.542 44.481a150.362 150.362 0 0 0 9.436-21.732 70.585 70.585 0 0 0-12.35-11.987c-9.611 37.966-32.025 65.35-51.592 83.007-10.995 9.921-23.312 18.726-36.13 25.903a70.643 70.643 0 0 0 5.933 4.584c14.05-6.967 28.869-16.415 42.933-28.5 17.703-15.212 31.757-32.464 41.77-51.275"/><path fill="#239de0" d="M142.641 41.985a69.844 69.844 0 0 0-15.438-7.849c-7.982 40.674-29.902 69.428-48.912 87.536a187.034 187.034 0 0 1-28.953 22.603 70.452 70.452 0 0 0 5.896 6.341 195.622 195.622 0 0 0 36.53-26.01c19.4-17.507 41.653-44.766 50.877-82.62m23.778 39.629a150.512 150.512 0 0 0 2.904-5.459 69.817 69.817 0 0 0-7.939-15.485 155.843 155.843 0 0 1-8.693 19.4c-10.286 19.323-24.701 37.026-42.845 52.616-12.611 10.838-26.747 20.346-41.373 27.874a70.355 70.355 0 0 0 5.856 3.042c15.42-7.112 31.85-17.001 47.554-29.906 18.854-15.493 33.838-33.016 44.536-52.082M106.273 30.07a67.806 67.806 0 0 0-2.763-.07c-38.597 0-70 31.403-70 70 0 11.841 2.967 23 8.18 32.787a172.477 172.477 0 0 0 20.034-17.34c17.31-17.511 37.271-45.452 44.55-85.376"/><path fill="#239de0" d="M125.596 138.217c-13.436 11.04-28.408 20.68-43.84 28.304A69.693 69.693 0 0 0 103.51 170c38.598 0 70-31.403 70-70a69.91 69.91 0 0 0-1.826-15.828c-.057.1-.107.203-.163.305-11.056 19.703-26.506 37.783-45.925 53.74"/><path fill="#fff" d="M107.347 30.11c-.356-.02-.716-.027-1.074-.04-7.278 39.925-27.239 67.866-44.549 85.377a172.477 172.477 0 0 1-20.034 17.34c.168.317.336.633.509.946a173.557 173.557 0 0 0 20.28-17.54c17.448-17.646 37.568-45.82 44.868-86.084"/><path fill="#fff" d="M127.203 34.136a68.58 68.58 0 0 0-2.161-.733c-7.827 40.269-29.511 68.726-48.31 86.633-7.863 7.49-17.923 15.381-28.897 22.327.492.645.99 1.285 1.503 1.912a187.034 187.034 0 0 0 28.953-22.603c19.01-18.108 40.93-46.862 48.912-87.536"/><path fill="#fff" d="M145.67 44.165a68.868 68.868 0 0 0-3.029-2.18c-9.224 37.855-31.478 65.114-50.878 82.62a195.622 195.622 0 0 1-36.53 26.011 70.577 70.577 0 0 0 2.714 2.459c12.82-7.177 25.136-15.982 36.131-25.903 19.567-17.656 41.98-45.04 51.593-83.007"/><path fill="#fff" d="M152.69 80.07a155.843 155.843 0 0 0 8.694-19.4 71.51 71.51 0 0 0-3.364-4.518 150.362 150.362 0 0 1-9.436 21.732c-10.013 18.811-24.067 36.063-41.77 51.275-14.064 12.085-28.883 21.533-42.933 28.5a70.151 70.151 0 0 0 4.592 2.902c14.626-7.528 28.762-17.036 41.373-27.874 18.144-15.59 32.56-33.293 42.845-52.617"/><path fill="#fff" d="M166.419 81.615c-10.698 19.066-25.682 36.59-44.536 52.082-15.703 12.905-32.134 22.794-47.554 29.906a69.545 69.545 0 0 0 7.427 2.918c15.432-7.624 30.404-17.264 43.84-28.304 19.419-15.957 34.87-34.037 45.925-53.74.056-.102.106-.205.163-.305a69.43 69.43 0 0 0-2.361-8.016 151.798 151.798 0 0 1-2.904 5.459"/><path fill="#696566" d="M195.964 101.04c0-15.438 12.959-28.398 28.159-28.398 7.598 0 14.638 3.2 19.758 8.4l-4.24 4.318c-4-4.24-9.518-6.959-15.518-6.959-11.84 0-21.84 10.4-21.84 22.64 0 12.32 10 22.718 21.84 22.718 6 0 11.518-2.718 15.518-6.96l4.24 4.32c-5.12 5.12-12.16 8.4-19.758 8.4-15.2 0-28.159-13.038-28.159-28.478m100.717-.001c0-12.239-9.92-22.639-21.76-22.639-11.838 0-21.838 10.4-21.838 22.64 0 12.32 10 22.718 21.838 22.718 11.84 0 21.76-10.399 21.76-22.718zm-49.918 0c0-15.438 12.96-28.398 28.158-28.398C290.2 72.642 303 85.602 303 101.04c0 15.44-12.8 28.478-28.079 28.478-15.198 0-28.158-13.038-28.158-28.478m65.518-27.438h6.24L352.6 118.32V73.602h6.24v54.958h-6.24l-34.079-44.72v44.719h-6.24V73.602m73.759 5.92h-18.479v-5.92h43.198v5.92H392.28v49.038h-6.24V79.522m76.559 21.518c0-12.239-9.92-22.639-21.759-22.639-11.84 0-21.84 10.4-21.84 22.64 0 12.32 10 22.718 21.84 22.718 11.839 0 21.759-10.399 21.759-22.718zm-49.918 0c0-15.438 12.959-28.398 28.159-28.398 15.279 0 28.077 12.96 28.077 28.399 0 15.44-12.798 28.478-28.077 28.478-15.2 0-28.159-13.038-28.159-28.478m64.879 4.719V73.602h6.24v32.158c0 10.56 6.959 18.08 16.719 18.08 9.76 0 16.72-7.52 16.72-18.08V73.602h6.238v32.158c0 13.92-9.518 23.76-22.958 23.76-13.439 0-22.959-9.84-22.959-23.76m62.959-2.88h14.958c8.959 0 15.04-4.32 15.04-11.68 0-7.359-6.081-11.678-15.04-11.678H540.52zm21.357 5.361l14.24 20.319h-7.12l-13.919-19.76H540.52v19.759h-6.24V73.602h22.318c11.36 0 20.239 7.28 20.239 17.599 0 8.64-6.24 15.2-14.96 17.04"/></svg>