<svg xmlns="http://www.w3.org/2000/svg" role="img" viewBox="12.00 -3.26 377.26 250.51"><title>Containous (member) logo</title><defs><style>.cls-1{fill:none}</style><linearGradient id="linear-gradient" x1="133.53" x2="267.956" y1="80.619" y2="80.619" gradientUnits="userSpaceOnUse"><stop offset="0" stop-color="#03008c"/><stop offset="1" stop-color="#8c008e"/></linearGradient></defs><path d="M207.683 107.727h28.674l14.312-24.789h-28.674l-14.312 24.789zm-33.56 45.182l-39.544-68.492q-.17-.285-.314-.584l-.004-.008-.061-.13-.004-.01-.068-.153a7.349 7.349 0 0 1-.596-2.754v-.048l-.002-.111v76.473h47.27a7.42 7.42 0 0 1-6.677-4.183zm15.224-72.29l14.328 24.818 14.326-24.814-14.328-24.817-14.326 24.813zm-55.815-.159a7.356 7.356 0 0 1 .596-2.754l.067-.152.005-.01.06-.131.005-.008q.144-.299.314-.584l39.544-68.492a7.42 7.42 0 0 1 6.677-4.183h-47.27v76.473l.001-.111zM75.15 203.704a12.22 12.22 0 0 0-9.9 4.381q-3.652 4.386-3.647 12.062 0 7.685 3.647 12.07a12.21 12.21 0 0 0 9.9 4.372 12.222 12.222 0 0 0 9.917-4.372q3.625-4.385 3.63-12.07c0-5.133-1.213-9.167-3.63-12.071a12.222 12.222 0 0 0-9.917-4.372zM207.672 53.482l14.329 24.819h28.668L236.34 53.482h-28.668zm-27.042 172.23h17.025l-8.508-21.397-8.517 21.397z" class="cls-1"/><path d="M267.956 11.565a7.384 7.384 0 0 1-1.372 4.299l-17.452 30.228 17.752 30.748a7.384 7.384 0 0 1 .057 7.46l-17.809 30.846 17.452 30.228a7.42 7.42 0 0 1-6.047 11.718h7.781V4.146h-7.781a7.42 7.42 0 0 1 7.42 7.419zm19.648 192.139a12.22 12.22 0 0 0-9.9 4.381q-3.652 4.386-3.647 12.062 0 7.685 3.648 12.07a13.415 13.415 0 0 0 19.817 0q3.625-4.385 3.629-12.07c0-5.133-1.212-9.167-3.629-12.071a12.222 12.222 0 0 0-9.918-4.372zm-86.869-81.139v-.017a7.398 7.398 0 0 1-6.404-3.692l-19.884-34.438a7.4 7.4 0 0 1-.051-7.508l19.935-34.528c2.094-3.615 5.049-3.68 8.674-3.68h33.335l11.384-19.718h-62.66L149.478 80.62l35.586 61.635h62.66l-11.367-19.689z" class="cls-1"/><path fill="#15232e" d="M381.323 225.223a7.52 7.52 0 0 0-2.021-2.839 13.948 13.948 0 0 0-2.914-1.974 27.793 27.793 0 0 0-3.808-1.523l-7.22-2.369a13.598 13.598 0 0 1-4.926-2.51 4.885 4.885 0 0 1-1.542-3.826 5.461 5.461 0 0 1 2.557-4.701 11.947 11.947 0 0 1 6.91-1.777 14.987 14.987 0 0 1 5.65 1.053 18.648 18.648 0 0 1 4.108 2.172 1.672 1.672 0 0 0 1.072.385 1.753 1.753 0 0 0 1.241-.517 1.62 1.62 0 0 0 .545-1.184 1.563 1.563 0 0 0-.545-1.157 15.561 15.561 0 0 0-5.18-2.98 19.979 19.979 0 0 0-7.248-1.325 18.208 18.208 0 0 0-6.787 1.213 11.136 11.136 0 0 0-4.833 3.543 8.583 8.583 0 0 0-1.786 5.387 8.187 8.187 0 0 0 2.2 6.055 16.255 16.255 0 0 0 6.45 3.61l7.153 2.425a29.708 29.708 0 0 1 3.253 1.222 9.566 9.566 0 0 1 2.2 1.41 4.58 4.58 0 0 1 1.41 1.984 8.33 8.33 0 0 1 .414 2.792 5.695 5.695 0 0 1-2.699 5.03 12.316 12.316 0 0 1-6.89 1.767 16.002 16.002 0 0 1-6.017-1.1 16.67 16.67 0 0 1-4.588-2.67 1.037 1.037 0 0 0-.658-.244 2.206 2.206 0 0 0-1.485.677 1.863 1.863 0 0 0-.743 1.363.89.89 0 0 0 .272.658 17.652 17.652 0 0 0 12.862 4.87q6.641 0 10.453-2.859A9.686 9.686 0 0 0 382 229.05a9.994 9.994 0 0 0-.677-3.826zM131.114 200.32a2.102 2.102 0 0 0-1.466.536 1.932 1.932 0 0 0-.592 1.504v31.146l-20.994-30.958a5.75 5.75 0 0 0-1.635-1.664 3.226 3.226 0 0 0-1.692-.564 2.454 2.454 0 0 0-1.918.818 3.207 3.207 0 0 0-.733 2.237v34.154a1.878 1.878 0 0 0 .592 1.486 2.165 2.165 0 0 0 1.476.526 2.075 2.075 0 0 0 1.447-.536 1.885 1.885 0 0 0 .593-1.476v-30.685l21.265 31.24a3.111 3.111 0 0 0 2.754 1.457 2.981 2.981 0 0 0 2.134-.809 3.013 3.013 0 0 0 .837-2.246V202.36a1.912 1.912 0 0 0-.61-1.504 2.095 2.095 0 0 0-1.458-.536zm36.025 0h-26.36a1.89 1.89 0 0 0-1.392.507 1.75 1.75 0 0 0-.507 1.288 1.676 1.676 0 0 0 .507 1.223 1.89 1.89 0 0 0 1.391.507h11.075v33.572a1.931 1.931 0 0 0 .658 1.56 2.466 2.466 0 0 0 3.14 0 1.938 1.938 0 0 0 .667-1.56v-33.572h10.82a1.93 1.93 0 0 0 1.42-.507 1.676 1.676 0 0 0 .508-1.223 1.78 1.78 0 0 0-.498-1.288 1.909 1.909 0 0 0-1.43-.507zm-91.989-.17q-8.377 0-13.322 5.387-4.936 5.387-4.935 14.61 0 9.236 4.935 14.619 4.95 5.372 13.322 5.377 8.376 0 13.311-5.377 4.95-5.388 4.945-14.62 0-9.222-4.945-14.609-4.936-5.387-13.311-5.386zm9.917 32.067a12.222 12.222 0 0 1-9.917 4.372 12.21 12.21 0 0 1-9.9-4.372q-3.652-4.385-3.647-12.07 0-7.672 3.647-12.062a12.22 12.22 0 0 1 9.9-4.381 12.222 12.222 0 0 1 9.917 4.372c2.417 2.904 3.63 6.938 3.63 12.07q0 7.686-3.63 12.071zm-37.632 1.429a2.023 2.023 0 0 0-.987.302 22.399 22.399 0 0 1-4.09 1.983 13.352 13.352 0 0 1-4.418.658 14.629 14.629 0 0 1-5.358-.93 11.401 11.401 0 0 1-3.93-2.492 13.463 13.463 0 0 1-2.557-3.704 18.151 18.151 0 0 1-1.448-4.437 26.426 26.426 0 0 1-.423-4.823 24.93 24.93 0 0 1 .442-4.804 18.197 18.197 0 0 1 1.466-4.456 14.033 14.033 0 0 1 2.567-3.751 11.001 11.001 0 0 1 3.863-2.529 13.787 13.787 0 0 1 5.266-.959c.62 0 1.221.029 1.786.075.573.048 1.062.094 1.475.15s.846.142 1.279.245c.441.113.78.198 1.024.264a7.97 7.97 0 0 1 .884.329c.348.16.565.263.659.32.094.055.281.159.573.3l.442.254a2.138 2.138 0 0 0 .912.244 1.402 1.402 0 0 0 1.119-.507 1.789 1.789 0 0 0 .423-1.176 1.515 1.515 0 0 0-.8-1.4 18.209 18.209 0 0 0-9.861-2.651 18.468 18.468 0 0 0-7.982 1.682 15.655 15.655 0 0 0-5.763 4.523 20.822 20.822 0 0 0-3.356 6.383 24.085 24.085 0 0 0-1.156 7.493 26.867 26.867 0 0 0 .686 6.185 19.833 19.833 0 0 0 2.153 5.453 17.275 17.275 0 0 0 3.535 4.353 15.17 15.17 0 0 0 5.039 2.876 19.49 19.49 0 0 0 6.515 1.044 18.422 18.422 0 0 0 10.36-2.971 2.45 2.45 0 0 0 1.316-1.955 1.492 1.492 0 0 0-.48-1.119 1.654 1.654 0 0 0-1.175-.452zm145.811-29.744a6.932 6.932 0 0 0-1.777-2.877 3.611 3.611 0 0 0-2.322-.733 3.697 3.697 0 0 0-2.34.714 7.025 7.025 0 0 0-1.768 2.896l-13.388 32.856a2.518 2.518 0 0 0-.188.912 1.844 1.844 0 0 0 .65 1.43 2.186 2.186 0 0 0 1.494.582 2.1 2.1 0 0 0 2.096-1.523l3.638-9.194h19.61l3.63 9.194a2.109 2.109 0 0 0 2.096 1.523 2.192 2.192 0 0 0 1.505-.583 1.843 1.843 0 0 0 .648-1.429 2.34 2.34 0 0 0-.197-.912zm-12.616 21.81l8.517-21.397 8.508 21.397zm35.997-25.364a2.394 2.394 0 0 0-1.58.564 1.92 1.92 0 0 0-.677 1.56v34.973a1.902 1.902 0 0 0 .649 1.541 2.321 2.321 0 0 0 1.551.555 2.433 2.433 0 0 0 1.598-.536 1.89 1.89 0 0 0 .668-1.56v-34.972a1.937 1.937 0 0 0-.65-1.57 2.331 2.331 0 0 0-1.56-.555zm126.396.028a2.37 2.37 0 0 0-1.597.565 1.936 1.936 0 0 0-.668 1.56v23.295a12.155 12.155 0 0 1-.602 3.912 9.794 9.794 0 0 1-1.626 3.046 10.014 10.014 0 0 1-2.397 2.134 10.627 10.627 0 0 1-2.915 1.297 12.334 12.334 0 0 1-3.168.404 11.53 11.53 0 0 1-3.93-.667 10.873 10.873 0 0 1-3.412-1.974 9.085 9.085 0 0 1-2.435-3.413 11.806 11.806 0 0 1-.912-4.739v-23.295a1.937 1.937 0 0 0-.649-1.57 2.278 2.278 0 0 0-1.55-.555 2.37 2.37 0 0 0-1.599.565 1.936 1.936 0 0 0-.667 1.56v23.409a14.99 14.99 0 0 0 1.269 6.28 11.961 11.961 0 0 0 3.412 4.484 15.717 15.717 0 0 0 4.823 2.594 18.728 18.728 0 0 0 11.31 0 15.554 15.554 0 0 0 4.832-2.594 11.96 11.96 0 0 0 3.412-4.485 14.99 14.99 0 0 0 1.269-6.28v-23.408a1.937 1.937 0 0 0-.648-1.57 2.278 2.278 0 0 0-1.552-.555zm-55.419-.226q-8.376 0-13.321 5.387-4.936 5.387-4.936 14.61 0 9.236 4.936 14.619 4.95 5.372 13.321 5.377 8.377 0 13.312-5.377 4.95-5.388 4.945-14.62 0-9.222-4.945-14.609-4.936-5.387-13.312-5.386zm9.918 32.067a13.415 13.415 0 0 1-19.817 0q-3.653-4.385-3.647-12.07 0-7.672 3.647-12.062a13.405 13.405 0 0 1 19.817-.01c2.417 2.905 3.629 6.939 3.629 12.072q0 7.685-3.629 12.07zm-38.92-31.897a2.101 2.101 0 0 0-1.466.536 1.932 1.932 0 0 0-.593 1.504v31.146l-20.993-30.958a5.751 5.751 0 0 0-1.635-1.664 3.226 3.226 0 0 0-1.692-.564 2.454 2.454 0 0 0-1.918.818 3.207 3.207 0 0 0-.733 2.237v34.154a1.878 1.878 0 0 0 .592 1.486 2.165 2.165 0 0 0 1.476.526 2.075 2.075 0 0 0 1.447-.536 1.885 1.885 0 0 0 .593-1.476v-30.685l21.265 31.24a3.11 3.11 0 0 0 2.754 1.457 2.982 2.982 0 0 0 2.134-.809 3.012 3.012 0 0 0 .837-2.246V202.36a1.913 1.913 0 0 0-.611-1.504 2.096 2.096 0 0 0-1.457-.536z"/><path fill="url(#linear-gradient)" d="M249.132 115.146l17.81-30.846a7.384 7.384 0 0 0-.058-7.46l-17.752-30.748 17.452-30.228a7.42 7.42 0 0 0-6.047-11.718h-79.736a7.42 7.42 0 0 0-6.678 4.183L134.579 76.82q-.17.285-.314.584l-.004.008-.061.13-.004.01-.068.153a7.356 7.356 0 0 0-.596 2.754v.048l-.002.11.001.112v.048a7.349 7.349 0 0 0 .597 2.753v.001l.068.152.004.01.06.131.005.008q.144.299.314.584l39.544 68.492a7.42 7.42 0 0 0 6.678 4.183h79.736a7.42 7.42 0 0 0 6.047-11.718zm-12.775-7.42h-28.674l14.312-24.788h28.674zm-32.682-2.29L189.347 80.62l14.326-24.813L218 80.623zm46.994-27.135H222l-14.33-24.82 28.67.001zm-65.605 63.953l-35.586-61.635 35.586-61.635h62.66L236.34 38.702h-33.335c-3.625 0-6.58.065-8.674 3.68L174.396 76.91a7.4 7.4 0 0 0 .051 7.508l19.884 34.438a7.398 7.398 0 0 0 6.404 3.692v.017h35.622l11.367 19.689z"/></svg>