<?xml version="1.0" encoding="UTF-8" standalone="no"?>
<svg
   xmlns:dc="http://purl.org/dc/elements/1.1/"
   xmlns:cc="http://creativecommons.org/ns#"
   xmlns:rdf="http://www.w3.org/1999/02/22-rdf-syntax-ns#"
   xmlns:svg="http://www.w3.org/2000/svg"
   xmlns="http://www.w3.org/2000/svg"
   viewBox="5.466699999999946 224.62670000000003 1310.4 678.08"
   height="1333.3333"
   width="1333.3333"
   xml:space="preserve"
   id="svg2"
   version="1.1"><metadata
     id="metadata8"><rdf:RDF><cc:Work
         rdf:about=""><dc:format>image/svg+xml</dc:format><dc:type
           rdf:resource="http://purl.org/dc/dcmitype/StillImage" /></cc:Work></rdf:RDF></metadata><defs
     id="defs6" /><g
     transform="matrix(1.3333333,0,0,-1.3333333,0,1333.3333)"
     id="g10"><path
       id="path12"
       style="fill:#f28217;fill-opacity:1;fill-rule:nonzero;stroke:none"
       d="m 88.688,439.399 c 5.902,-2.759 10.79,-6.46 14.662,-11.106 3.869,-4.645 6.242,-9.726 7.113,-15.243 0.095,-0.387 0.145,-0.871 0.145,-1.451 0,-0.485 -0.097,-0.799 -0.29,-0.943 -0.195,-0.146 -0.581,-0.268 -1.161,-0.364 L 95.656,409.421 H 95.22 c -0.58,0 -1.016,0.532 -1.306,1.597 -1.356,6 -4.09,10.79 -8.202,14.372 -4.115,3.579 -9.218,5.371 -15.316,5.371 -9.388,0 -16.526,-3.509 -21.412,-10.524 -4.888,-7.019 -7.331,-17.639 -7.331,-31.864 0,-14.132 2.443,-24.679 7.331,-31.648 4.886,-6.968 12.217,-10.452 21.993,-10.452 6.581,0 12.072,1.598 16.477,4.791 4.402,3.193 7.959,8.322 10.67,15.388 0.095,0.675 0.821,0.919 2.177,0.725 l 10.307,-2.468 c 0.871,-0.194 1.209,-1.015 1.017,-2.467 -1.357,-4.646 -3.8,-9.196 -7.332,-13.646 -3.534,-4.453 -8.202,-8.179 -14.008,-11.178 -5.807,-3.001 -12.485,-4.501 -20.034,-4.501 -9.678,0 -18.05,2.274 -25.113,6.824 -7.066,4.548 -12.485,11.008 -16.26,19.38 -3.774,8.37 -5.661,18.169 -5.661,29.396 0,11.323 1.862,21.122 5.589,29.397 3.725,8.274 9.096,14.612 16.114,19.017 7.015,4.402 15.315,6.605 24.896,6.605 6.678,0 12.968,-1.379 18.872,-4.137" /><path
       id="path14"
       style="fill:#f28217;fill-opacity:1;fill-rule:nonzero;stroke:none"
       d="m 175.744,351.427 c 3.774,5.08 5.661,12.217 5.661,21.412 0,9.194 -1.912,16.379 -5.734,21.558 -3.824,5.176 -9.123,7.766 -15.896,7.766 -6.775,0 -12.099,-2.59 -15.968,-7.766 -3.872,-5.179 -5.807,-12.364 -5.807,-21.558 0,-9.098 1.935,-16.211 5.807,-21.339 3.869,-5.131 9.24,-7.695 16.113,-7.695 6.773,0 12.049,2.541 15.824,7.622 z m -35.64,-13.501 c -5.661,3.339 -10.041,8.007 -13.137,14.009 -3.098,5.999 -4.645,12.822 -4.645,20.469 0,7.839 1.596,14.83 4.79,20.976 3.194,6.145 7.621,10.911 13.283,14.299 5.662,3.387 12.122,5.081 19.38,5.081 7.353,0 13.864,-1.719 19.525,-5.153 5.661,-3.437 10.039,-8.202 13.138,-14.299 3.096,-6.098 4.645,-13.017 4.645,-20.76 0,-7.645 -1.574,-14.468 -4.718,-20.467 -3.146,-6.002 -7.549,-10.696 -13.21,-14.082 -5.662,-3.389 -12.172,-5.082 -19.525,-5.082 -7.356,0 -13.864,1.67 -19.526,5.009" /><path
       id="path16"
       style="fill:#f28217;fill-opacity:1;fill-rule:nonzero;stroke:none"
       d="m 210.729,336.692 v 72.439 c 0,1.452 0.628,2.178 1.887,2.178 h 11.468 c 1.162,0 1.743,-0.631 1.743,-1.888 v -7.984 c 0,-0.58 0.12,-0.921 0.362,-1.016 0.241,-0.097 0.604,0.095 1.089,0.58 5.031,4.066 9.484,7.041 13.356,8.928 3.869,1.888 8.079,2.831 12.629,2.831 7.259,0 12.943,-2.01 17.058,-6.024 4.112,-4.017 6.169,-9.413 6.169,-16.187 v -53.566 c 0,-1.742 -0.823,-2.613 -2.468,-2.613 H 263.28 c -1.452,0 -2.177,0.773 -2.177,2.322 v 50.809 c 0,4.355 -1.139,7.716 -3.412,10.089 -2.275,2.37 -5.687,3.557 -10.234,3.557 -3.68,0 -7.091,-0.849 -10.235,-2.541 -3.146,-1.694 -6.847,-4.477 -11.105,-8.347 v -53.422 c 0,-0.871 -0.218,-1.502 -0.653,-1.886 -0.436,-0.389 -1.139,-0.581 -2.105,-0.581 h -10.307 c -1.55,0 -2.323,0.773 -2.323,2.322" /><path
       id="path18"
       style="fill:#f28217;fill-opacity:1;fill-rule:nonzero;stroke:none"
       d="m 316.469,400.276 c -0.871,0 -1.306,-0.485 -1.306,-1.452 V 356.29 c 0,-4.065 0.748,-6.873 2.25,-8.419 1.499,-1.55 3.894,-2.324 7.186,-2.324 h 9.29 c 1.162,0 1.742,-0.58 1.742,-1.742 v -6.242 c 0,-1.356 -0.726,-2.177 -2.177,-2.468 -3.099,-0.485 -8.035,-0.725 -14.808,-0.725 -6.387,0 -11.13,1.474 -14.226,4.427 -3.098,2.952 -4.645,7.524 -4.645,13.718 v 46.019 c 0,1.161 -0.485,1.742 -1.452,1.742 h -10.887 c -1.259,0 -1.888,0.581 -1.888,1.742 v 7.693 c 0,1.065 0.581,1.598 1.743,1.598 h 11.613 c 0.773,0 1.161,0.435 1.161,1.306 l 1.742,22.792 c 0.193,1.353 0.774,2.032 1.742,2.032 h 10.017 c 1.256,0 1.887,-0.775 1.887,-2.323 v -22.501 c 0,-0.871 0.435,-1.306 1.306,-1.306 h 17.421 c 1.161,0 1.741,-0.533 1.741,-1.598 v -7.693 c 0,-1.161 -0.678,-1.742 -2.032,-1.742 h -17.42" /><path
       id="path20"
       style="fill:#f28217;fill-opacity:1;fill-rule:nonzero;stroke:none"
       d="m 392.68,372.694 -7.839,-0.58 c -8.034,-0.487 -14.397,-2.106 -19.09,-4.864 -4.695,-2.758 -7.04,-6.557 -7.04,-11.396 0,-3.773 1.354,-6.75 4.064,-8.928 2.709,-2.176 6.338,-3.265 10.888,-3.265 5.226,0 10.162,1.789 14.807,5.371 4.16,3.386 6.242,6.772 6.242,10.161 v 11.323 c 0,1.547 -0.678,2.274 -2.032,2.178 z m -24.969,-39.777 c -7.453,0 -13.333,1.911 -17.638,5.735 -4.307,3.822 -6.46,8.928 -6.46,15.315 0,7.839 3.412,14.081 10.235,18.727 6.822,4.645 16.524,7.259 29.106,7.839 l 9.436,0.726 c 1.547,0.193 2.322,0.918 2.322,2.177 v 3.63 c 0,4.74 -1.451,8.492 -4.355,11.25 -2.903,2.759 -6.873,4.138 -11.903,4.138 -7.937,0 -14.277,-3.582 -19.017,-10.743 -0.291,-0.581 -0.606,-0.944 -0.944,-1.088 -0.34,-0.146 -0.848,-0.123 -1.524,0.072 l -9.872,2.903 c -0.58,0.193 -0.871,0.581 -0.871,1.161 0,0.386 0.146,0.919 0.436,1.597 2.708,5.227 6.845,9.267 12.412,12.122 5.564,2.854 12.266,4.282 20.105,4.282 10.162,0 17.759,-2.177 22.792,-6.532 5.031,-4.355 7.549,-10.404 7.549,-18.146 v -51.245 c 0,-0.968 -0.171,-1.622 -0.509,-1.96 -0.34,-0.339 -0.896,-0.507 -1.669,-0.507 h -9.726 c -1.357,0 -2.13,0.965 -2.323,2.903 l -0.29,5.517 c -0.195,0.773 -0.486,1.161 -0.871,1.161 -0.291,0 -0.824,-0.29 -1.597,-0.871 -7.066,-6.776 -15.34,-10.163 -24.824,-10.163" /><path
       id="path22"
       style="fill:#f28217;fill-opacity:1;fill-rule:nonzero;stroke:none"
       d="m 441.817,337.127 c 0,-1.065 -0.217,-1.792 -0.653,-2.176 -0.435,-0.389 -1.186,-0.581 -2.25,-0.581 h -9.872 c -0.968,0 -1.646,0.168 -2.032,0.507 -0.388,0.338 -0.581,0.945 -0.581,1.815 v 72.439 c 0,0.774 0.146,1.329 0.436,1.669 0.29,0.338 0.821,0.509 1.597,0.509 h 11.613 c 1.161,0 1.742,-0.679 1.742,-2.033 z m 0.435,89.57 c 0,-1.067 -0.217,-1.84 -0.652,-2.323 -0.436,-0.486 -1.187,-0.726 -2.251,-0.726 h -10.742 c -0.969,0 -1.647,0.218 -2.032,0.653 -0.388,0.436 -0.581,1.137 -0.581,2.105 v 13.211 c 0,1.644 0.726,2.467 2.177,2.467 h 12.049 c 0.581,0 1.064,-0.217 1.452,-0.653 0.386,-0.435 0.58,-0.994 0.58,-1.67 v -13.064" /><path
       id="path24"
       style="fill:#f28217;fill-opacity:1;fill-rule:nonzero;stroke:none"
       d="m 459.687,336.692 v 72.439 c 0,1.452 0.628,2.178 1.887,2.178 h 11.468 c 1.162,0 1.742,-0.631 1.742,-1.888 v -7.984 c 0,-0.58 0.12,-0.921 0.363,-1.016 0.241,-0.097 0.603,0.095 1.089,0.58 5.031,4.066 9.483,7.041 13.355,8.928 3.87,1.888 8.08,2.831 12.63,2.831 7.258,0 12.943,-2.01 17.057,-6.024 4.113,-4.017 6.17,-9.413 6.17,-16.187 v -53.566 c 0,-1.742 -0.823,-2.613 -2.468,-2.613 h -10.743 c -1.451,0 -2.177,0.773 -2.177,2.322 v 50.809 c 0,4.355 -1.139,7.716 -3.412,10.089 -2.274,2.37 -5.686,3.557 -10.234,3.557 -3.679,0 -7.09,-0.849 -10.234,-2.541 -3.146,-1.694 -6.848,-4.477 -11.106,-8.347 v -53.422 c 0,-0.871 -0.217,-1.502 -0.653,-1.886 -0.435,-0.389 -1.138,-0.581 -2.105,-0.581 h -10.307 c -1.549,0 -2.322,0.773 -2.322,2.322" /><path
       id="path26"
       style="fill:#f28217;fill-opacity:1;fill-rule:nonzero;stroke:none"
       d="m 594.141,378.936 c 0.966,0 1.62,0.146 1.96,0.436 0.338,0.29 0.508,0.821 0.508,1.596 0,3.775 -0.798,7.307 -2.395,10.598 -1.597,3.289 -3.92,5.927 -6.968,7.911 -3.049,1.982 -6.656,2.977 -10.815,2.977 -4.355,0 -8.18,-1.089 -11.469,-3.267 -3.291,-2.178 -5.831,-5.033 -7.621,-8.564 -1.792,-3.535 -2.638,-7.381 -2.541,-11.541 z m -36.51,-23.299 c 2.08,-3.534 4.911,-6.34 8.493,-8.42 3.579,-2.083 7.499,-3.121 11.758,-3.121 4.451,0 8.42,0.918 11.904,2.758 3.484,1.837 6.678,4.693 9.581,8.565 0.29,0.385 0.629,0.581 1.016,0.581 0.483,0 0.871,-0.098 1.161,-0.291 l 7.404,-3.484 c 0.483,-0.29 0.726,-0.678 0.726,-1.161 0,-0.29 -0.145,-0.679 -0.436,-1.161 -4.064,-6.002 -8.71,-10.332 -13.936,-12.993 -5.226,-2.66 -11.565,-3.993 -19.017,-3.993 -7.258,0 -13.743,1.645 -19.452,4.937 -5.711,3.289 -10.162,7.911 -13.355,13.863 -3.194,5.952 -4.791,12.702 -4.791,20.251 0,8.129 1.645,15.29 4.936,21.485 3.289,6.192 7.766,10.961 13.428,14.299 5.661,3.339 11.976,5.008 18.944,5.008 7.161,0 13.451,-1.574 18.872,-4.718 5.419,-3.146 9.604,-7.718 12.557,-13.718 2.951,-6.002 4.428,-13.116 4.428,-21.34 v -0.58 c 0,-0.871 -0.123,-1.525 -0.363,-1.96 -0.243,-0.436 -0.849,-0.653 -1.815,-0.653 h -53.712 c -0.969,0 -1.452,-0.776 -1.452,-2.323 0,-4.355 1.039,-8.3 3.121,-11.831" /><path
       id="path28"
       style="fill:#f28217;fill-opacity:1;fill-rule:nonzero;stroke:none"
       d="m 625.016,336.692 v 72.439 c 0,1.452 0.628,2.178 1.887,2.178 h 11.178 c 1.161,0 1.742,-0.631 1.742,-1.888 v -9.145 c 0,-0.581 0.168,-0.921 0.508,-1.017 0.338,-0.096 0.701,0.096 1.089,0.581 3.579,4.16 7.281,7.354 11.105,9.581 3.822,2.226 7.572,3.339 11.25,3.339 3.387,0 5.081,-0.677 5.081,-2.032 v -11.323 c 0,-1.161 -0.533,-1.647 -1.596,-1.451 -1.84,0.482 -4.406,0.725 -7.694,0.725 -2.711,0 -5.566,-0.751 -8.565,-2.25 -3.001,-1.502 -5.517,-3.462 -7.549,-5.88 -2.032,-2.42 -3.049,-4.887 -3.049,-7.403 v -46.309 c 0,-1.646 -0.921,-2.467 -2.757,-2.467 h -10.308 c -1.549,0 -2.322,0.773 -2.322,2.322" /><path
       id="path30"
       style="fill:#f28217;fill-opacity:1;fill-rule:nonzero;stroke:none"
       d="m 721.029,429.165 h -20.033 c -0.776,0 -1.331,-0.146 -1.669,-0.436 -0.341,-0.291 -0.508,-0.823 -0.508,-1.597 v -33.824 c 0,-1.452 0.531,-2.178 1.597,-2.178 h 21.629 c 7.064,0 12.605,1.62 16.622,4.864 4.015,3.241 6.025,8.056 6.025,14.444 0,12.484 -7.889,18.727 -23.663,18.727 z m 31.139,-42.826 c -7.018,-5.421 -16.381,-8.129 -28.09,-8.129 h -23.807 c -0.969,0 -1.452,-0.485 -1.452,-1.452 v -39.921 c 0,-1.646 -0.871,-2.467 -2.613,-2.467 h -12.63 c -1.549,0 -2.323,0.725 -2.323,2.177 v 103.36 c 0,0.773 0.145,1.329 0.436,1.669 0.29,0.339 0.821,0.508 1.597,0.508 h 38.759 c 12.195,0 22.016,-2.685 29.47,-8.056 7.451,-5.372 11.177,-13.381 11.177,-24.026 0,-10.357 -3.508,-18.244 -10.524,-23.663" /><path
       id="path32"
       style="fill:#f28217;fill-opacity:1;fill-rule:nonzero;stroke:none"
       d="m 791.029,337.127 c 0,-1.065 -0.217,-1.792 -0.653,-2.176 -0.436,-0.389 -1.187,-0.581 -2.251,-0.581 h -9.871 c -0.968,0 -1.647,0.168 -2.032,0.507 -0.388,0.338 -0.581,0.945 -0.581,1.815 v 72.439 c 0,0.774 0.146,1.329 0.436,1.669 0.29,0.338 0.821,0.509 1.597,0.509 h 11.613 c 1.161,0 1.742,-0.679 1.742,-2.033 z m 0.435,89.57 c 0,-1.067 -0.217,-1.84 -0.652,-2.323 -0.436,-0.486 -1.187,-0.726 -2.251,-0.726 h -10.742 c -0.969,0 -1.647,0.218 -2.032,0.653 -0.389,0.436 -0.581,1.137 -0.581,2.105 v 13.211 c 0,1.644 0.726,2.467 2.177,2.467 h 12.049 c 0.581,0 1.064,-0.217 1.452,-0.653 0.386,-0.435 0.58,-0.994 0.58,-1.67 v -13.064" /><path
       id="path34"
       style="fill:#f28217;fill-opacity:1;fill-rule:nonzero;stroke:none"
       d="m 824.432,337.127 c 0,-1.065 -0.218,-1.792 -0.654,-2.176 -0.435,-0.389 -1.234,-0.581 -2.395,-0.581 h -9.871 c -0.969,0 -1.647,0.168 -2.033,0.507 -0.388,0.338 -0.581,0.945 -0.581,1.815 l 0.291,103.215 c 0,1.451 0.628,2.177 1.887,2.177 h 11.468 c 1.257,0 1.888,-0.726 1.888,-2.177 v -102.78" /><path
       id="path36"
       style="fill:#f28217;fill-opacity:1;fill-rule:nonzero;stroke:none"
       d="m 891.744,351.427 c 3.774,5.08 5.661,12.217 5.661,21.412 0,9.194 -1.912,16.379 -5.734,21.558 -3.824,5.176 -9.123,7.766 -15.896,7.766 -6.775,0 -12.099,-2.59 -15.968,-7.766 -3.872,-5.179 -5.807,-12.364 -5.807,-21.558 0,-9.098 1.935,-16.211 5.807,-21.339 3.869,-5.131 9.24,-7.695 16.113,-7.695 6.774,0 12.049,2.541 15.824,7.622 z m -35.639,-13.501 c -5.661,3.339 -10.042,8.007 -13.138,14.009 -3.098,5.999 -4.645,12.822 -4.645,20.469 0,7.839 1.596,14.83 4.79,20.976 3.194,6.145 7.622,10.911 13.283,14.299 5.662,3.387 12.122,5.081 19.38,5.081 7.353,0 13.864,-1.719 19.525,-5.153 5.661,-3.437 10.039,-8.202 13.138,-14.299 3.096,-6.098 4.645,-13.017 4.645,-20.76 0,-7.645 -1.574,-14.468 -4.717,-20.467 -3.147,-6.002 -7.549,-10.696 -13.211,-14.082 -5.661,-3.389 -12.171,-5.082 -19.525,-5.082 -7.356,0 -13.864,1.67 -19.525,5.009" /><path
       id="path38"
       style="fill:#f28217;fill-opacity:1;fill-rule:nonzero;stroke:none"
       d="m 947.967,400.276 c -0.871,0 -1.306,-0.485 -1.306,-1.452 V 356.29 c 0,-4.065 0.749,-6.873 2.25,-8.419 1.5,-1.55 3.894,-2.324 7.186,-2.324 h 9.29 c 1.162,0 1.742,-0.58 1.742,-1.742 v -6.242 c 0,-1.356 -0.725,-2.177 -2.177,-2.468 -3.098,-0.485 -8.035,-0.725 -14.807,-0.725 -6.388,0 -11.131,1.474 -14.227,4.427 -3.098,2.952 -4.645,7.524 -4.645,13.718 v 46.019 c 0,1.161 -0.485,1.742 -1.451,1.742 h -10.888 c -1.259,0 -1.888,0.581 -1.888,1.742 v 7.693 c 0,1.065 0.581,1.598 1.743,1.598 h 11.613 c 0.773,0 1.161,0.435 1.161,1.306 l 1.742,22.792 c 0.194,1.353 0.774,2.032 1.742,2.032 h 10.017 c 1.257,0 1.888,-0.775 1.888,-2.323 v -22.501 c 0,-0.871 0.434,-1.306 1.305,-1.306 h 17.421 c 1.161,0 1.741,-0.533 1.741,-1.598 v -7.693 c 0,-1.161 -0.677,-1.742 -2.032,-1.742 h -17.42" /><path
       id="path40"
       style="fill:#f28217;fill-opacity:1;fill-rule:nonzero;stroke:none"
       d="M 511.67,810.778 671.898,533.255 c 8.14,-14.097 -2.034,-31.719 -18.313,-31.719 H 333.129 c -16.278,0 -26.452,17.622 -18.313,31.719 l 160.228,277.523 c 8.14,14.097 28.487,14.097 36.626,0" /><path
       id="path42"
       style="fill:#141c24;fill-opacity:1;fill-rule:nonzero;stroke:none"
       d="m 493.361,757.525 c -4.909,0 -9.204,-3.145 -10.688,-7.824 l -12.043,-37.981 -0.453,-2.926 v -35.353 l -80.473,-59.162 -3.945,-7.797 V 583.64 l 14.604,-8.33 50.562,29.901 h 20.599 l 5.683,-37.788 -23.721,-10.505 -5.759,-8.848 v -13.481 l 11.967,-9.402 33.473,8.15 33.878,-8.156 11.943,9.408 v 13.481 l -5.759,8.848 -23.72,10.505 5.682,37.788 h 20.599 l 50.562,-29.901 14.604,8.33 v 22.842 l -3.945,7.797 -80.473,59.162 v 35.353 l -0.452,2.924 -12.038,37.983 c -1.483,4.679 -5.777,7.824 -10.687,7.824 z m 0,-9.678 c 0.618,0 1.236,-0.357 1.462,-1.07 l 12.037,-37.983 v -40.25 l 84.418,-62.062 V 583.64 l -52.84,31.249 H 506.86 l -8.019,-53.325 30.47,-13.494 v -13.481 l -36.157,8.706 -35.75,-8.706 v 13.481 l 30.471,13.494 -8.02,53.325 H 448.278 L 395.437,583.64 v 22.842 l 84.418,62.062 v 40.25 l 12.044,37.983 c 0.226,0.713 0.844,1.07 1.462,1.07" /></g></svg>