<svg xmlns="http://www.w3.org/2000/svg" role="img" viewBox="-6.47 11.53 374.44 544.44"><title>Contiv logo</title><style>svg {enable-background:new 0 0 360 556.5}</style><style>.st15{fill:#4a8fe1}</style><path d="M27.2 275.4c6 0 12 .2 18-.1 3.4-.1 4.2 1.1 4.2 4.3.7 36.8 14.6 68.1 41.3 93.2 30.1 28.1 66.1 40.1 107 34.7 58.4-7.8 101.1-47.9 113.2-105.1 1.6-7.7 2.5-15.4 2.5-23.3 0-2.7.7-3.8 3.6-3.8 12.3.1 24.7.2 37 0 4-.1 3.7 2.1 3.7 4.7-.1 39.8-13.1 75.2-37.7 106.1-30.4 38.1-70.2 60.5-118.5 65.9-93.4 10.5-175.6-51.6-193.8-140.8-2.1-10.3-3.1-20.7-3.4-31.2-.1-3.9 1.2-4.8 4.8-4.6 6.1.2 12.1 0 18.1 0z" class="st15"/><path d="M93.6 275.4c3.5 0 7 .2 10.5-.1 3.5-.3 4.4.9 4.6 4.4 1 19.3 8 36.1 22.2 49.3 20.7 19.2 45.2 25.4 72.1 16.9 27.1-8.6 43.6-27.7 49.6-55.7.8-3.6 1.1-7.3 1-10.9-.1-3 .9-4.1 4-4 7.2.2 14.3.2 21.5 0 3.4-.1 4.6.8 4.5 4.4-.8 24.2-8.9 45.6-24.8 63.8-20.8 23.8-47.4 35.8-78.9 35.5-50.9-.4-93.6-38.8-100.1-89.3-.5-3.8-.5-7.6-.8-11.5-.2-2.2.6-3 2.8-3 3.8.3 7.8.2 11.8.2zm90.9-182.1c-15.2 0-30.3-.1-45.5.1-3.6 0-4.9-.7-4.9-4.6.2-20.6.2-41.3 0-61.9 0-3.5 1-4.5 4.5-4.5 30.5.1 60.9.2 91.4 0 4 0 4.6 1.3 4.6 4.9-.2 20.5-.2 41 0 61.4 0 3.7-.9 4.9-4.7 4.8-15.1-.3-30.3-.2-45.4-.2zm56 22.2c13.8 0 27.7.1 41.5-.1 3.2 0 4.8.5 4.7 4.3-.2 17.2-.2 34.3 0 51.5 0 3.4-1.1 4.2-4.3 4.2-28.2-.1-56.3-.1-84.5 0-3.6 0-4.5-1.1-4.4-4.5.2-17 .2-34 0-51 0-3.6 1.1-4.5 4.5-4.5 14.2.2 28.4.1 42.5.1zM68.4 257.4c-13.8 0-27.6-.1-41.4.1-3.3 0-4.7-.5-4.6-4.3.2-17.1.2-34.3 0-51.4 0-3.2.8-4.3 4.2-4.3 28.3.1 56.6.1 84.9 0 3.4 0 4.1 1.2 4.1 4.3-.1 17-.2 33.9 0 50.9 0 3.7-.9 4.8-4.7 4.8-14.2-.3-28.3-.1-42.5-.1zM181 197.5c13.8 0 27.7.1 41.5-.1 3.5 0 5 .6 5 4.6-.2 17-.2 34 0 51 0 3.6-1.1 4.4-4.5 4.4-28-.1-56-.1-84 0-3.8 0-4.7-1.1-4.7-4.8.2-16.8.2-33.7 0-50.5 0-3.8 1.1-4.8 4.8-4.7 13.9.3 27.9.1 41.9.1zm-52.6-22.2c-14 0-28-.1-42 .1-3.1 0-4.4-.8-4.3-4.2.2-17.1.1-34.3 0-51.4 0-3.2.8-4.4 4.2-4.3 28.3.1 56.6.1 84.9 0 3 0 4.1.9 4.1 4-.1 17.3-.1 34.6 0 51.9 0 3.6-1.5 4-4.5 4-14.1-.1-28.3-.1-42.4-.1zm163.8 82.1c-14 0-28-.1-42 .1-3.3 0-4.7-.6-4.7-4.3.2-17 .2-34 0-51 0-3.9 1.3-4.7 4.9-4.7 27.8.1 55.6.1 83.4 0 3.6 0 4.9.8 4.9 4.7-.2 16.8-.2 33.6 0 50.5.1 4.2-1.5 4.9-5.2 4.8-13.6-.2-27.5-.1-41.3-.1z" class="st15"/><path d="M47.4 484.4c5.3-5.5 12.1-8.2 20.4-8.2 11 0 19.1 3.7 24.2 11 2.8 4.1 4.3 8.2 4.5 12.4H82.7c-.9-3.2-2-5.6-3.4-7.2-2.5-2.9-6.1-4.3-11-4.3s-8.8 2-11.7 6.1c-2.9 4.1-4.3 9.8-4.3 17.3 0 7.4 1.5 13 4.5 16.7 3 3.7 6.8 5.6 11.5 5.6 4.8 0 8.4-1.6 10.9-4.8 1.4-1.7 2.5-4.3 3.4-7.7h13.8c-1.2 7.2-4.2 13.1-9.1 17.6-4.9 4.5-11.1 6.8-18.8 6.8-9.4 0-16.9-3.1-22.3-9.2-5.4-6.2-8.1-14.6-8.1-25.3.1-11.6 3.2-20.5 9.3-26.8zm100.1 53.4c-4.1 5.1-10.4 7.7-18.9 7.7-8.4 0-14.7-2.6-18.9-7.7-4.1-5.1-6.2-11.3-6.2-18.5 0-7.1 2.1-13.2 6.2-18.4 4.1-5.2 10.4-7.8 18.9-7.8 8.4 0 14.7 2.6 18.9 7.8 4.1 5.2 6.2 11.3 6.2 18.4.1 7.2-2 13.4-6.2 18.5zm-10.2-7.1c2-2.7 3-6.5 3-11.4s-1-8.7-3-11.3c-2-2.7-4.9-4-8.6-4-3.8 0-6.6 1.3-8.7 4s-3 6.4-3 11.3 1 8.7 3 11.4c2 2.7 4.9 4 8.7 4 3.7 0 6.6-1.3 8.6-4zm65.2-33.1c3.2 2.7 4.8 7.1 4.8 13.2v33h-13.1V514c0-2.6-.3-4.6-1-5.9-1.3-2.5-3.6-3.8-7.1-3.8-4.3 0-7.3 1.8-8.9 5.5-.8 2-1.3 4.4-1.3 7.5v26.6H163v-49h12.4v7.2c1.6-2.5 3.2-4.3 4.7-5.4 2.6-2 6-3 10-3 5.1-.1 9.2 1.2 12.4 3.9zm11.7 6.7v-9.1h6.8v-13.7h12.7v13.7h8v9.1h-8v25.9c0 2 .3 3.3.8 3.8s2.1.7 4.7.7h1.2c.4 0 .9 0 1.3-.1v9.6l-6.1.2c-6.1.2-10.2-.8-12.4-3.2-1.4-1.5-2.2-3.7-2.2-6.8v-30.2h-6.8zm48.9-15.4h-13v-11.8h13v11.8zm-13 5.9h13v49.1h-13v-49.1zm55.7 0h13.8l-17.7 49.1h-13.5l-17.6-49.1h14.4l10.2 36.2 10.4-36.2z"/></svg>