<svg xmlns="http://www.w3.org/2000/svg" role="img" viewBox="6.51 -3.74 207.48 74.23"><title>ControlMonkey (member) logo</title><style>svg {enable-background:new 0 0 218.5 67.2}</style><style>.st0{enable-background:new}.st1{fill:#0d1238}.st2,.st5{fill:#2c63f9;stroke:#2c63f9;stroke-miterlimit:10}.st5{stroke-width:.75;fill:#2c63fc;stroke:#2c63fc}</style><g class="st0"><path d="M152.1 43.8v13H150V46.6l-4 6h-.2l-4-6v10.1h-2.1v-13h2.4l3.7 5.6 3.7-5.6h2.6zm12.9 7.9c0 3.1-2.3 5.3-5.2 5.3-2.9 0-5.2-2.3-5.2-5.3 0-3.1 2.4-5.3 5.2-5.3 2.8 0 5.2 2.2 5.2 5.3zm-8.4 0c0 2 1.4 3.3 3.1 3.3 1.8 0 3.2-1.4 3.2-3.3 0-2-1.4-3.3-3.2-3.3-1.7 0-3.1 1.3-3.1 3.3zm19.6-1.4v6.4h-2.1v-6c0-1.6-.7-2.4-2.2-2.4-1.8 0-2.7 1.2-2.7 3.1v5.3h-2.1V46.6h2.1v1.7c.7-1.2 1.8-1.9 3.4-1.9 2.2 0 3.6 1.5 3.6 3.9zm9.3 6.5l-4.8-4.7v4.7h-2.1V42.5h2.1V51l4.4-4.4h2.7l-5 4.8 5.4 5.4h-2.7zm13.2-4.5h-8.2c.2 1.9 1.5 2.9 3.2 2.9 1.2 0 2.2-.5 2.7-1.5h2.2c-.8 2.3-2.7 3.4-4.9 3.4-3.1 0-5.3-2.2-5.3-5.3 0-3.1 2.2-5.3 5.2-5.3 3.3-.1 5.4 2.4 5.1 5.8zm-8.1-1.7h5.9c-.3-1.4-1.4-2.4-2.9-2.4-1.6 0-2.6 1-3 2.4zm19.3-4l-6.7 14.8H201l2.7-5.9-4-8.9h2.2l2.9 6.6 2.9-6.6h2.2z" class="st1"/></g><g class="st0"><path d="M74.7 24.7c0-7.4 5.5-12.9 12.9-12.9 5.9 0 10.5 3.8 11.9 9.1h-5.4c-1.2-2.6-3.5-4.2-6.6-4.2-4.6 0-7.7 3.4-7.7 8 0 4.7 3.1 8.1 7.6 8.1 3 0 5.4-1.5 6.6-4.1h5.4c-1.5 5.3-6.1 9-12 8.9-7.4.1-12.8-5.5-12.7-12.9zm48 3c0 5.9-4.5 10.3-10.2 10.2-5.7 0-10.1-4.4-10.1-10.3s4.6-10.2 10.2-10.2 10.1 4.4 10.1 10.3zm-15.2-.1c0 3.3 2.2 5.4 5 5.4s5-2.1 5.1-5.4c0-3.2-2.2-5.4-5-5.4s-5.1 2.2-5.1 5.4zm36.9-2.2l-.1 12.4h-5.1l.1-11.2c0-2.6-.9-4-3.6-4-2.9 0-4.4 1.7-4.4 4.9l-.1 10.3h-5.1l.1-19.7h5.1v2.7c1.4-2 3.4-3.1 6.1-3.1 4.4-.1 7 2.8 7 7.7zm19 11.3c-1.1.7-3.5 1.6-5.8 1.5-3.9 0-7.3-2.4-7.2-8.1v-7.3h-3.5V18h3.5v-4.3l5.1-1.1V18h7.2v4.8h-7.2v7c0 2.3 1.1 3.6 3.1 3.6 1.1 0 2.5-.4 4.1-.9l.7 4.2zm15.7-18.8v5.3c-.4 0-.7-.1-1.2-.1-3.2 0-6 1.4-6 6.1l-.1 8.8h-5.1l.1-19.7h5.1v3.4c1.2-2.6 3.4-3.8 6.1-3.8.4-.1.8-.1 1.1 0zm22.2 10.3c0 5.9-4.5 10.2-10.2 10.2-5.7 0-10.1-4.4-10.1-10.3s4.6-10.2 10.2-10.2 10.1 4.4 10.1 10.3zm-15.2-.1c0 3.3 2.2 5.4 5 5.4s5-2.1 5.1-5.4c0-3.2-2.2-5.4-5-5.4-2.9 0-5.1 2.2-5.1 5.4zM205 10.5h5.1l-.2 27.6h-5.1l.2-27.6z" class="st1"/></g><path d="M38.1 17c.5-2.4 1.4-4.3.4-6.4-1.1-2.5-4.1-3.5-5.3-3.8-2.8-.8-7.4-.9-10.4 1.7-4.7 4.1-5.4 14.5-4.3 19.9.2.7.7 3-.4 4-1.1 1.1-3-.1-4.8 1.3-.6.5-.9 1-1.3 1.6-1.3 2.3-1 4.7-.9 5.5v.1c.4 2.5 2.5 4.1 3.2 4.6 2.3 1.7 3.7 1.2 4.6 2.8.1.2.7 1.2.3 2-.6 1.1-2.8.7-2.9 1.2-.1.6 2.8 1 5.5 3 2 1.5 1.7 2.3 4.7 5.6 1.9 2 3.1 3.4 5.2 4.5 2.5 1.3 5 1.5 6.6 1.5l-.3-3c-1.1.1-2.3-.1-3.4-.5-4.1-1.5-7.4-5.3-8.4-9.5-.8-3.4.1-5.9.5-6.7.4-.6.8-1 .8-1 .2-.2.6-.4 1-.7 1.1-.7 1.6-.8 1.6-1 0-.3-.9-.3-1.8-.6-.4-.1-2.8-.8-4.4-2.7-.8-.9-1.1-1.8-1.3-2.4-1.6-4-.2-8.1 3.2-10.8 1.6-1.2 3.6-2.2 5.6-2.3 1.7-.1 3.4.6 4.9 1.3.6.3 1.1.6 1.7.8.1 0 .2.1.4.1.7-4.7-1.1-6.6-.3-10.1zM17.7 44.8c-1.2.1-2.1-.5-2.5-.7-2-1.4-2.3-3.9-2.3-4.4-.1-1.2-.3-2.9.9-4 1-.9 2.6-1.1 3.7-.4 1.1.6 1.3 2.1 1.5 3 .1.3.1.5.1.6.7 2.7.5 5-.6 5.6-.3.3-.7.3-.8.3z" class="st2"/><path d="M63.7 35.2c-.3-.6-.6-1.1-1.3-1.6-1.8-1.3-4-.1-4.7-1.3-.1-.1-.2-.7-.3-1.9-.1-1 0-1.2-.1-2.1-.4-3.7-.4-3.3-.2-5.3.3-3.7 1.6-5.1 1.6-7.7 0-3.5-3.7-3.7-4-7.9-.2-1.4.2-2.4-.5-3-1.3-1.2-4.6.6-4.8.1s3.5-2.2 3.3-3.1C52.4.1 42.3 1.5 33 4c-7.8 2.1-10.2 3.7-11.2 4.7l-.4.4c-2.3 2.6-2.8 5.6-3.2 8-.1.5-.2 1.6-.3 3.1-.1 3.1.3 7 1.1 7 .1 0 .4-.1.6-.8 0 0 4 2.4 17.8-9.1 0 0 .6-.5.6-.4 0 .1 0 .4-.4 2.8-.1.6-.2 1.4-.3 2.4-.1.9-.1 1.9 0 3.1 0 .4.1.8.1 1.1.3.1.5.3.8.4.1.1.3.1.4.2.1 0 .4.1.5.1l-.1.1c0 .1.2.1.4 0 .1 0 .2-.1.4-.2s.4-.1.4-.1c.5-.2 1-.6 1.5-.9 1.5-1.3 2.6-3 4.9-2.9 1.8.1 3.7 1.1 4.8 2.5 2.1 2.7 2.6 6.5 2.4 9.8-.2 2.4-.2 4.6-1.8 6.1-1.5 1.4-3 1.7-3 1.7-1 .3-1.6.3-1.6.4-.2.4 1.8 1.4 2.7 3 2.3 3.9-2.6 10.6-3.2 11.3-1.1 1.2-2.3 2.4-2.4 2.5-.9.7-1.6 1.4-2.7 1.9-.7.3-1.9.8-3.6.8-.1.5-.2 1-.3 1.6-.1.5-.3 1-.4 1.5.9.1 1.6 0 2.1 0 1.4-.2 2.5-.6 3-.9.5-.3 1-.5 1.6-1 2.8-2 4.7-4.1 5.1-4.5 3-3.3 2.6-4 4.6-5.6 2.6-2 5.5-2.5 5.4-3s-2.3 0-2.9-1.2c-.3-.6-.1-1.4.3-2 .9-1.3 2.4-.6 4.1-1.5 2.9-1.4 3.6-5.6 3.7-6 .1-.4.5-2.9-.8-5.2zM62.3 41c-.4 1.3-.8 2.9-2.1 3.6-.2.1-1.6.8-2.7.3-.1-.1-.4-.2-.6-.4-.4-.4-.4-1-.2-2.7.1-1 .2-1.5.3-2.1.2-1.1.4-2.3 1.1-3.2 1-1.4 3.1-1.8 4.2-.2.7 1.2.5 2.8 0 4.7z" class="st2"/><path fill="#2c63f9" stroke="#2c63f9" stroke-miterlimit="10" stroke-width=".75" d="M35.9 43.8c.1 0 .3.1.5.1.3 0 1 .1 1.1-.2.1-.2-.2-.8-.6-.9-.6-.2-1.3.5-1.2.8 0 0 0 0 0 0 .1.2.5.2.6.2m3.7-.2c0 .1.1.1.2.2s.3.2.6.2c.4 0 .9 0 1-.3.1-.3-.2-.8-.6-.9-.6-.2-1.3.5-1.2.8 0 0 0 0 0 0 0 .2.2.2.2.2"/><path fill="none" stroke="#2c63f9" stroke-miterlimit="10" d="M22.5 30c.9-1.7 2.3-2.6 4.2-3.9 1.5-1 2.8-1.8 4.6-2 .8 0 2 .1 3.1.7.3.2.3.2 1 .7 1.5 1 2.2 1.6 2.8 1.7 1.4.2 2.8-.5 3.5-1.3.4-.4.4-.6 1-1.2.7-.7 1.3-1.2 1.8-1.5 1.3-.7 2.6-.4 3.3-.3 1.9.4 3.2 1.5 3.8 2.1.4.4 1.1 1.2 1.7 2.4.6 1.2.8 2.5.9 4 .2 3.5.4 7.1-1.9 9.4-2 2-4.9 2.1-4.8 2.8.1.5 1.7.3 2.9 1.6.6.7.8 1.4.9 1.9.7 2.5-.9 6.2-1.1 6.6-1.6 3.5-3 6.8-6.5 8.4-2 .9-3.9.9-5 .9-1.2 0-3.5 0-6-1.2-2.9-1.5-4.2-3.9-5.3-6-1.2-2.2-1.5-3.9-1.6-4.3-.3-2.2 0-3.7.1-4.1.3-1.1.7-2.7 2-3.4.7-.3 1.3-.3 1.3-.5 0-.3-1.6-.5-3.3-1.4 0 0-1.4-.8-2.6-2.2-1.9-2.5-2.5-6.7-.8-9.9z"/><path d="M22.3 31c5.6-.3 11.2-.5 16.7-.4h.1c-.1 1.2-.1 2.4-.1 3.5.7.1.8.2.8.2 0 .1-1.4-.2-2.3.5-.4.3-.5.6-.9 1.7-.3.9-.7 2.1-1.5 2.8-.9.9-2.2 1-3.1 1.1-1.9.2-3.4-.5-3.6-.6-1.5-.7-3.4-2.3-3.8-4.4-.1-.9-.1-1.5-.6-2-.8-.6-2 0-2.4-.5-.2-.2-.2-.7.7-1.9z" class="st5"/><path fill="#2c63f9" d="M32.2 52.5c0 .2 1.4.6 1.9.7 4.7 1.3 8 .3 9.1-.1.4-.1 1.4-.5 1.4-.7-.1-.3-2.3.1-5.3.1-4.3.2-7.1-.3-7.1 0z"/><path d="M53.8 31c-5.1-.3-10.2-.5-15.2-.4h-.1c.1 1.2.1 2.4.1 3.5-.6.1-.8.2-.8.2 0 .1 1.3-.2 2.1.5.4.3.5.6.8 1.7.3.9.7 2.1 1.4 2.8.8.9 2 1 2.8 1.1 1.7.2 3.1-.5 3.3-.6 1.3-.7 3.1-2.3 3.4-4.4.1-.9.1-1.5.6-2 .7-.6 1.9 0 2.2-.5.2-.2.2-.7-.6-1.9z" class="st5"/></svg>