<svg xmlns="http://www.w3.org/2000/svg" role="img" viewBox="-11.16 -10.66 554.32 344.32"><title>Copa logo</title><style>svg {enable-background:new 0 0 532.6 323.5}</style><style/><path fill="#55abdf" d="M519.2 131.8L400.8 13.4C392.2 4.8 380.6 0 368.5 0H45.7C20.5 0 0 20.5 0 45.7v232.1c0 25.2 20.5 45.7 45.7 45.7h327.6c12.1 0 23.8-4.8 32.3-13.4l113.6-113.6c17.9-17.9 17.9-46.8 0-64.7zM422.3 74l31.9 31.9-8.2 8.1-31.9-31.9 8.2-8.1zm-74.1-54.3h1.5c11.8 0 22.9 4.6 31.3 13l9.4 9.4-8.1 8.1-9.4-9.4c-6.2-6.2-14.4-9.6-23.2-9.6h-1.5V19.7zm-90.2 0h45.1v11.5H258V19.7zm-90.1 0H213v11.5h-45.1V19.7zm-45.1 0v11.5h-45l-.1-11.5h45.1zM33.5 138.8H45v45.1H33.5v-45.1zm3.1 137c-2-5.2-3.1-10.6-3.1-16.2V229H45v30.6c0 4.2.8 8.2 2.3 12l-10.7 4.2zM45 64v29.7H33.5V64c0-5.9 1.2-11.7 3.4-17.1l10.6 4.5C45.8 55.3 45 59.6 45 64zm76.9 239.8H76.7l.3-11.5h44.9v11.5zm90.1 0h-45.1v-11.5H212v11.5zm90.1 0H257v-11.5h45.1v11.5zm82.9-13c-8.4 8.4-19.5 13-31.3 13h-6.5v-11.5h6.5c8.8 0 17-3.4 23.2-9.6l5.9-5.9 8.1 8.1-5.9 5.9zm37.7-37.7l-8.1-8.1 31.9-31.9 8.1 8.1-31.9 31.9zm63.9-65.2l-9.6-6.3c3.5-5.3 5.3-11.5 5.3-17.8 0-6.6-1.9-12.9-5.6-18.3l9.5-6.4c5 7.3 7.6 15.9 7.6 24.8-.1 8.5-2.5 16.8-7.2 24z"/></svg>