<svg xmlns="http://www.w3.org/2000/svg" role="img" viewBox="-19.84 -19.84 1031.68 488.68"><title>Core 24/7 (member) logo</title><path fill="#ee252c" d="M252.12303 293.1669c-18.55154 0-35.47111-7.15315-47.64148-20.14216-11.9957-12.80101-18.6022-30.38324-18.6022-49.5041 0-19.12218 6.6065-36.70441 18.6022-49.50676 12.17037-12.99034 29.08994-20.14483 47.64148-20.14483 19.42751 0 36.68842 6.99183 51.35205 20.79415l17.22624-18.7982c-13.23434-12.86234-35.46978-27.30598-68.57829-27.30598-24.35406 0-46.8615 8.49179-63.97307 23.99806l-23.23675 108.77195c4.53855 11.00373 11.08772 21.03414 19.48485 29.56726 17.49956 17.7889 41.5523 27.58598 67.72497 27.58598 33.10984 0 55.34528-14.44497 68.57829-27.30998l-17.22624-18.79287c-14.65963 13.797-31.9232 20.78748-51.35205 20.78748"/><path fill="#a6a9a7" d="M218.59853 75.68967c0 6.98783-5.66519 12.65169-12.65301 12.65169-6.98783 0-12.65169-5.66386-12.65169-12.65169 0-6.98916 5.66386-12.65301 12.65169-12.65301 6.98782 0 12.65301 5.66385 12.65301 12.65301m-52.47468 237.24607c0 6.98663-5.6652 12.65315-12.65302 12.65315-6.98783 0-12.65168-5.66652-12.65168-12.65315 0-6.98916 5.66385-12.65435 12.65168-12.65435 6.98783 0 12.65302 5.6652 12.65302 12.65435M299.4085 436.6142c0 6.98783-5.66385 12.6528-12.65168 12.6528-6.98782 0-12.65302-5.66497-12.65302-12.6528 0-6.98938 5.6652-12.65337 12.65302-12.65337 6.98783 0 12.65168 5.664 12.65168 12.65337M404.35922 67.84187c0 6.9865-5.66519 12.65302-12.65301 12.65302-6.98783 0-12.65169-5.66653-12.65169-12.65302 0-6.98916 5.66386-12.65302 12.65169-12.65302 6.98782 0 12.65301 5.66386 12.65301 12.65302M166.12385 12.66058c0 6.9865-5.6652 12.65302-12.65302 12.65302-6.98783 0-12.65168-5.66653-12.65168-12.65302 0-6.98916 5.66385-12.65301 12.65168-12.65301 6.98783 0 12.65302 5.66385 12.65302 12.65301M25.30457 156.11833c0 6.98782-5.6644 12.65302-12.65229 12.65302C5.66445 168.77135 0 163.10615 0 156.11833c0-6.98783 5.66445-12.65302 12.65228-12.65302 6.9879 0 12.65229 5.6652 12.65229 12.65302M77.90739 381.0739c0 6.98676-5.6644 12.65182-12.65275 12.65182-6.9873 0-12.65182-5.66506-12.65182-12.65182 0-6.98889 5.66452-12.65275 12.65182-12.65275 6.98835 0 12.65275 5.66386 12.65275 12.65275"/><path fill="#a6a9a7" d="M205.12554 76.37232l-52.47469-63.02909 1.6413-1.3653 52.47468 63.02776-1.6413 1.36663"/><path fill="#a6a9a7" d="M13.41526 156.86631l-1.52441-1.49463L152.70952 11.9126l1.52396 1.49596L13.41526 156.86631"/><path fill="#a6a9a7" d="M152.67618 313.64906L11.85804 156.83164l1.58949-1.4253 140.81795 156.81609-1.5893 1.42663"/><path fill="#a6a9a7" d="M65.90715 381.91922l-1.3057-1.69063 88.2174-68.13683 1.3053 1.68796-88.217 68.1395m-1.68942-13.24234L11.61586 156.37566l2.07393-.51332 52.60122 212.30149-2.07328.51305"/><path fill="#a6a9a7" d="M154.51347 313.16507l-2.08528-.45999 52.47469-237.24607 2.08528.46-52.47469 237.24606"/><path fill="#a6a9a7" d="M286.03018 437.39646l-133.286-123.67807 1.4533-1.5653 133.286 123.67678-1.4533 1.56659"/><path fill="#a6a9a7" d="M286.49684 437.6501L64.99478 382.10881l.51918-2.06928 221.50153 55.53821-.51865 2.07236M205.99085 76.75498l-.08933-2.13328 185.75935-7.84647.09067 2.13328-185.76069 7.84647"/><path fill="#a6a9a7" d="M391.46488 68.88318l-238.23404-55.1813.48132-2.0826L391.94753 66.8019l-.48265 2.08128M13.06894 157.1023l-.83174-1.96661 189.98574-80.42866.83198 1.96662L13.06894 157.1023"/><path fill="#ee252c" d="M445.50886 293.1669c-39.04169 0-67.37698-29.28993-67.37698-69.64626 0-40.35765 28.3353-69.65159 67.37698-69.65159 38.8217 0 66.99966 29.29394 66.99966 69.6516 0 40.35632-28.17796 69.64625-66.99966 69.64625zm0-164.60788c-54.56797 0-95.7176 40.82431-95.7176 94.96162 0 54.13598 41.14963 94.96163 95.7176 94.96163 26.36334 0 50.60407-9.79976 68.25296-27.59264 17.46623-17.61023 27.08733-41.53497 27.08733-67.36899 0-25.83668-9.61976-49.76275-27.08733-67.37031-17.64889-17.79156-41.88828-27.59131-68.25296-27.59131m223.27842 28.33929c5.62386 0 10.8184.51065 15.49295 1.52263v-27.98997c-3.34525-.48399-6.95716-.73598-10.5744-.73598-20.73015 0-37.60307 7.81714-50.15075 23.23409l-4.73988 5.82385v-27.16465h-27.20466V315.453h27.20466V188.90018l.22799-.51466c8.84911-20.0115 26.97933-31.48721 49.74409-31.48721m67.35298 48.85878l.83065-3.31725c7.48914-29.96592 31.22988-49.3281 60.48515-49.3281 32.1032-.40133 55.74394 19.04485 60.16117 49.59342l.44132 3.05193zm126.84083-50.6814c-15.79027-17.34757-37.79239-26.51667-63.63174-26.51667-51.76537 0-92.3137 41.71229-92.3137 94.96162 0 25.8447 9.53844 49.7721 26.858 67.37565 17.5009 17.7889 41.5523 27.58598 67.72498 27.58598 28.07663 0 54.29997-10.19441 72.37952-28.04863l-17.25024-18.8182c-9.50376 8.83578-27.91396 21.55146-55.12928 21.55146-35.14046 0-62.99443-25.84602-66.23035-61.45846l-.26533-2.91193h153.8215c-.98532-30.67123-9.9371-56.11726-25.96336-73.72082m129.39143-20.95548c0 23.44208-19.00352 42.4456-42.44694 42.4456-23.44208 0-42.44693-19.00352-42.44693-42.4456 0-23.44341 19.00485-42.44694 42.44693-42.44694 23.44342 0 42.44694 19.00353 42.44694 42.44694"/><path fill="#fff" d="M922.77826 142.78266c-.26932.38933-.46932.83731-.59865 1.3413h13.54766a2142.4714 2142.4714 0 0 1-.67731 3.11992h-16.1596v-2.03195c.01467-.37332.052-.73598.10666-1.08797.18533-1.16797.59066-2.2106 1.21597-3.11592.95065-1.3733 2.03329-1.88795 3.67591-2.66527.76398-.36265 1.7173-.81331 2.93193-1.47596 2.6746-1.45596 3.7919-2.09061 4.57322-3.17859.81198-1.12797 1.2253-2.56927 1.22797-4.28256v-.016c-.01067-2.91726-2.38661-5.2892-5.30787-5.2892-2.26261 0-4.20123 1.42663-4.95988 3.42658l-2.91726-1.10397c1.2053-3.17725 4.28256-5.4412 7.87714-5.4412 2.01062 0 3.85857.70665 5.30787 1.88662 1.87995 1.52797 3.09192 3.8519 3.11725 6.45184.00134.02133.00134.04267.00134.064v.02133c-.004 2.37994-.61332 4.4319-1.81463 6.10118-1.22796 1.71063-2.87859 2.60927-5.61319 4.09857-1.29197.70265-2.28927 1.17597-3.08792 1.55463-1.53196.72664-1.99062.9653-2.4466 1.62262"/><path fill="#fff" d="M946.46834 125.6311a122299.0411 122299.0411 0 0 0-7.8278 9.87174h7.8278zm6.58783 9.87308c-.22532 1.03997-.45199 2.07995-.67731 3.11859h-2.79193v8.63578h-3.1186v-8.63712H935.2393v-3.11859c3.7399-4.71854 7.4838-9.43843 11.22505-14.15964h3.11859l-.00667.012h.01067v14.14898h3.46924m27.90597-14.15298c-1.03997 2.39327-2.07995 4.78388-3.11859 7.17582-2.71326 6.24384-5.42653 12.48769-8.1398 18.7302h-3.11858l9.90375-22.78743h-9.1651c-.22666-1.03864-.452-2.07995-.67732-3.1186h14.31564m-18.7862.036c-2.51593 5.79053-8.8251 20.0795-11.34104 25.8687h3.11858c2.51594-5.78786 8.82512-20.07817 11.34105-25.8687h-3.11858"/></svg>