<?xml version="1.0" encoding="utf-8"?>
<!-- Generator: Adobe Illustrator 21.1.0, SVG Export Plug-In . SVG Version: 6.00 Build 0)  -->
<svg version="1.1" id="Layer_1" xmlns="http://www.w3.org/2000/svg" xmlns:xlink="http://www.w3.org/1999/xlink" x="0px" y="0px"
	 viewBox="0 0 612 502.5" style="enable-background:new 0 0 612 502.5;" xml:space="preserve">
<style type="text/css">
	.st0{fill:#434343;}
	.st1{fill:#9A9A9A;}
	.st2{fill:url(#SVGID_1_);}
	.st3{fill:url(#SVGID_2_);}
	.st4{fill:url(#SVGID_3_);}
	.st5{fill:url(#SVGID_4_);}
	.st6{fill:#FFFFFF;}
	.st7{fill:#2C256C;}
	.st8{fill:#5B2D82;}
	.st9{fill:url(#SVGID_5_);}
	.st10{fill:url(#SVGID_6_);}
	.st11{fill:url(#SVGID_7_);}
	.st12{fill:url(#SVGID_8_);}
	.st13{fill:url(#SVGID_9_);}
	.st14{fill:#623393;}
</style>
<g>
	<g>
		<path class="st0" d="M59.4,385.9c15.7,0,27.4,5.2,37.4,14.3c0.8,0.8,0.9,2,0.2,2.8l-2.5,2.6c-0.9,0.9-1.7,0.8-2.6-0.2
			c-8.8-7.9-19.9-12.6-32.5-12.6c-27,0-48.1,22-48.1,48.7c0,26.5,21.1,48.4,48.1,48.4c13.2,0,23.3-5.2,32.5-12.9
			c0.9-0.8,1.8-0.8,2.5-0.3l2.6,2.6c0.8,0.6,0.8,1.8,0,2.6c-10.5,10.2-23.9,14.9-37.6,14.9c-30.8,0-55.8-24.3-55.8-55.3
			C3.6,410.7,28.6,385.9,59.4,385.9z"/>
		<path class="st0" d="M141.9,432.1c17.3,0,31,14.6,31,32.2c0,18-13.7,32.5-31,32.5c-17.4,0-31-14.5-31-32.5
			C111,446.7,124.5,432.1,141.9,432.1z M141.9,490.5c13.6,0,24.2-11.6,24.2-26.2c0-14.2-10.6-25.7-24.2-25.7
			c-13.7,0-24.3,11.6-24.3,25.7C117.6,478.9,128.2,490.5,141.9,490.5z"/>
		<path class="st0" d="M191.7,435.7c0-1.1,0.9-2,2-2h1.8c0.9,0,1.7,0.6,1.8,1.7l0.6,6.3c1.5-2.2,7.7-9.5,19.3-9.5
			c4.9,0,8.3,1.4,9.5,1.9c1.4,0.5,2.2,1.5,1.7,2.8l-1.2,3.1c-0.5,1.1-1.4,1.2-2.5,0.8c-0.8-0.3-3.8-1.8-8-1.8
			c-12,0-17.9,9.7-18.3,10.6v43.9c0,1.2-0.6,2-2,2h-3.1c-1.1,0-1.7-0.9-1.7-2V435.7z"/>
		<path class="st0" d="M267,432.1c16.2,0,27.9,11.9,27.9,28.2c0,2.5,0,6-2.3,6h-49.1c0.6,13.2,10.2,24.3,24,24.3
			c8.2,0,14.5-3.2,18.2-5.7c1.4-0.9,2-1.1,2.8,0l1.5,2.2c0.5,0.6,0.3,1.5-0.6,2.5c-3.1,3.1-12.8,7.2-22.3,7.2
			c-18.8,0-30.3-14.5-30.3-32.5C236.7,446.7,248.2,432.1,267,432.1z M288.1,460.8c0-12-7.2-22.5-21.1-22.5
			c-13.6,0-22.6,9.9-23.4,22.5H288.1z"/>
		<path class="st1" d="M315.2,389.5c0-1.1,0.9-2,1.8-2h32.7c29.9,0,54.2,24.2,54.2,53.8c0,30-24.3,54.1-54.2,54.1h-32.7
			c-0.9,0-1.8-0.9-1.8-2V389.5z M348.5,488.6c27,0,47.7-20.5,47.7-47.4c0-26.6-20.8-47.1-47.7-47.1h-26v94.6H348.5z"/>
		<path class="st1" d="M428.9,387.9c0-1.2,1.1-2,2.3-2h2.6l73.9,96.3c0.2,0,0.2,0,0.2,0v-92.7c0-1.1,0.9-2,2-2h3.1c1.1,0,2,0.9,2,2
			v105.4c0,1.4-1.2,2-2.5,2h-2c-0.2,0-1.4-0.5-74.5-97.2h-0.2v93.6c0,1.1-0.9,2-2,2h-2.9c-1.1,0-2-0.9-2-2V387.9z"/>
		<path class="st1" d="M541.2,480.9l1.4-1.9c1.1-1.2,2.2-1.7,3.4-0.6c1.5,1.4,12.9,11.9,28.5,11.9c14,0,25.9-9.4,25.9-20.6
			c0-13.7-11.2-19.9-29.9-26.2c-17.9-6.3-29.7-12.6-29.7-30.3c0-11.6,9.2-27.3,33.3-27.3c15.2,0,26.5,7.9,26.5,7.9
			c0.6,0.5,1.7,1.5,0.6,3.2c-0.5,0.6-0.9,1.4-1.2,2c-0.9,1.2-1.9,1.7-3.4,0.8c-0.5-0.3-10.8-7.2-22.6-7.2c-18.9,0-26,11.7-26,20.5
			c0,13.1,10,18.8,25.6,23.9c21.1,7.2,34.5,14.6,34.5,32.5c0,15.4-15.9,27.4-33.6,27.4c-18.3,0-30.6-10.8-32.7-12.6
			C540.7,483.4,539.9,482.6,541.2,480.9z"/>
	</g>
	<g>
		
			<linearGradient id="SVGID_1_" gradientUnits="userSpaceOnUse" x1="1565.7933" y1="-3508.1304" x2="1821.8121" y2="-3508.1304" gradientTransform="matrix(0.7071 -0.7071 0.7071 0.7071 1553.3612 3809.4397)">
			<stop  offset="0" style="stop-color:#623393"/>
			<stop  offset="0.5738" style="stop-color:#452B7C"/>
			<stop  offset="1" style="stop-color:#2C256C"/>
		</linearGradient>
		<path class="st2" d="M229.7,170.7c-2.5,2.5-4.6,5.3-6.1,8.3C225.2,176.1,227.2,173.2,229.7,170.7L229.7,170.7z"/>
		
			<linearGradient id="SVGID_2_" gradientUnits="userSpaceOnUse" x1="1565.7933" y1="-3473.3589" x2="1821.8121" y2="-3473.3589" gradientTransform="matrix(0.7071 -0.7071 0.7071 0.7071 1553.3612 3809.4397)">
			<stop  offset="0" style="stop-color:#623393"/>
			<stop  offset="0.5738" style="stop-color:#452B7C"/>
			<stop  offset="1" style="stop-color:#2C256C"/>
		</linearGradient>
		<path class="st3" d="M333.7,97.1c4.7,0,9.4,1.8,13,5.4l10.7,10.7l0,0l-10.7-10.7C343.1,98.9,338.4,97.1,333.7,97.1z"/>
		
			<linearGradient id="SVGID_3_" gradientUnits="userSpaceOnUse" x1="1565.7933" y1="-3521.9663" x2="1821.8121" y2="-3521.9663" gradientTransform="matrix(0.7071 -0.7071 0.7071 0.7071 1553.3612 3809.4397)">
			<stop  offset="0" style="stop-color:#754FA0"/>
			<stop  offset="0.1807" style="stop-color:#6E4A99"/>
			<stop  offset="0.4566" style="stop-color:#5C3F8B"/>
			<stop  offset="0.7913" style="stop-color:#413079"/>
			<stop  offset="1" style="stop-color:#2C256C"/>
		</linearGradient>
		<path class="st4" d="M229.7,110c11.8-11.8,31.1-11.9,42.9,0l8.9,8.9l27.8-27.8c13.5-13.5,35.3-13.5,48.8,0l10.7,10.7l26.7-26.7
			L337.3,17c-16.8-16.8-44.2-16.8-60.9,0L156.3,137.1c-14.2,14.2-16.3,36.2-6.4,52.7l0.4-0.4L229.7,110z"/>
		
			<linearGradient id="SVGID_4_" gradientUnits="userSpaceOnUse" x1="1565.793" y1="-3400.3184" x2="1821.8119" y2="-3400.3184" gradientTransform="matrix(0.7071 -0.7071 0.7071 0.7071 1553.3612 3809.4397)">
			<stop  offset="0" style="stop-color:#754FA0"/>
			<stop  offset="0.1807" style="stop-color:#6E4A99"/>
			<stop  offset="0.4566" style="stop-color:#5C3F8B"/>
			<stop  offset="0.7913" style="stop-color:#413079"/>
			<stop  offset="1" style="stop-color:#2C256C"/>
		</linearGradient>
		<path class="st5" d="M386.5,214.5c-11.9,11.9-31.1,11.8-42.9,0L333,203.9l-35,35c-13.5,13.5-35.3,13.5-48.8,0l-9-9l-26,26
			l53.5,53.5c16.8,16.8,44.2,16.8,60.9,0l120.1-120.1c12.5-12.5,15.7-31,9.5-46.5l-3.9,3.9L386.5,214.5z"/>
		<path class="st6" d="M286.6,227.6L286.6,227.6c-1.8,1.8-3.9,3.1-6.1,4c-2.2,0.9-4.6,1.3-6.9,1.3c-4.7,0-9.4-1.8-13-5.4l-9-9
			l-10.4-10.4c-3.6-3.6-5.4-8.3-5.4-13c0-2.4,0.5-4.7,1.3-6.9c0.9-2.2,2.2-4.3,4-6.1l0,0l51.8-51.8l27.8-27.8l0,0
			c2.7-2.7,6-4.4,9.5-5.1c1.2-0.2,2.3-0.3,3.5-0.3c4.7,0,9.4,1.8,13,5.4l10.7,10.7l11.4-11.4l0,0l-10.7-10.7
			c-13.5-13.5-35.3-13.5-48.8,0l-27.8,27.8l-51.8,51.8c-2.5,2.5-4.6,5.3-6.1,8.3c-0.5,1-1,2-1.4,3.1c-3.8,9.3-3.3,20,1.4,29
			c1.6,3,3.6,5.8,6.1,8.3l10.4,10.4l9,9c13.5,13.5,35.3,13.5,48.8,0l35-35l-11.4-11.4L286.6,227.6z"/>
		<path class="st7" d="M454.3,146.7l3.9-3.9c-1.4-3.6-3.4-7-5.8-10.1C453.3,137.3,453.9,142,454.3,146.7z"/>
		<path class="st8" d="M150.3,189.4l-0.4,0.4c0.2,0.4,0.5,0.8,0.7,1.2C150.5,190.5,150.4,189.9,150.3,189.4z"/>
		
			<linearGradient id="SVGID_5_" gradientUnits="userSpaceOnUse" x1="1565.7933" y1="-3460.6572" x2="1821.8121" y2="-3460.6572" gradientTransform="matrix(0.7071 -0.7071 0.7071 0.7071 1553.3612 3809.4397)">
			<stop  offset="0" style="stop-color:#623393"/>
			<stop  offset="0.5738" style="stop-color:#452B7C"/>
			<stop  offset="1" style="stop-color:#2C256C"/>
		</linearGradient>
		<path class="st9" d="M321.3,149.3l36.1-36.1l-10.7-10.7c-3.6-3.6-8.3-5.4-13-5.4c-1.2,0-2.4,0.1-3.5,0.3c-3.5,0.7-6.8,2.4-9.5,5.1
			l-27.8,27.8l2,2c11.8,11.8,11.8,31.1,0,42.9l-43.4,43.4l9,9c3.6,3.6,8.3,5.4,13,5.4c2.4,0,4.7-0.5,6.9-1.3c2.2-0.9,4.3-2.2,6.1-4
			l35-35l-0.3-0.3C309.4,180.4,309.4,161.2,321.3,149.3z"/>
		
			<linearGradient id="SVGID_6_" gradientUnits="userSpaceOnUse" x1="1541.5217" y1="-3460.6572" x2="1848.9905" y2="-3460.6572" gradientTransform="matrix(0.7071 -0.7071 0.7071 0.7071 1553.3612 3809.4397)">
			<stop  offset="0" style="stop-color:#754FA0"/>
			<stop  offset="0.1807" style="stop-color:#6E4A99"/>
			<stop  offset="0.4566" style="stop-color:#5C3F8B"/>
			<stop  offset="0.7913" style="stop-color:#413079"/>
			<stop  offset="1" style="stop-color:#2C256C"/>
		</linearGradient>
		<path class="st10" d="M321.3,149.3l36.1-36.1l-10.7-10.7c-3.6-3.6-8.3-5.4-13-5.4c-1.2,0-2.4,0.1-3.5,0.3
			c-3.5,0.7-6.8,2.4-9.5,5.1l-27.8,27.8l2,2c11.8,11.8,11.8,31.1,0,42.9l-43.4,43.4l9,9c3.6,3.6,8.3,5.4,13,5.4
			c2.4,0,4.7-0.5,6.9-1.3c2.2-0.9,4.3-2.2,6.1-4l35-35l-0.3-0.3C309.4,180.4,309.4,161.2,321.3,149.3z"/>
		<path class="st6" d="M286.6,227.6L286.6,227.6c-1.8,1.8-3.9,3.1-6.1,4C282.7,230.7,284.8,229.4,286.6,227.6z"/>
		
			<linearGradient id="SVGID_7_" gradientUnits="userSpaceOnUse" x1="1541.5217" y1="-3429.2161" x2="1848.9905" y2="-3429.2161" gradientTransform="matrix(0.7071 -0.7071 0.7071 0.7071 1553.3612 3809.4397)">
			<stop  offset="0" style="stop-color:#623393"/>
			<stop  offset="0.5738" style="stop-color:#452B7C"/>
			<stop  offset="1" style="stop-color:#2C256C"/>
		</linearGradient>
		<path class="st11" d="M286.6,227.6L286.6,227.6c-1.8,1.8-3.9,3.1-6.1,4C282.7,230.7,284.8,229.4,286.6,227.6z"/>
		<path class="st6" d="M251.5,218.6L251.5,218.6l9,9c3.6,3.6,8.3,5.4,13,5.4c-4.7,0-9.4-1.8-13-5.4L251.5,218.6z"/>
		
			<linearGradient id="SVGID_8_" gradientUnits="userSpaceOnUse" x1="1541.5217" y1="-3446.7842" x2="1848.9905" y2="-3446.7842" gradientTransform="matrix(0.7071 -0.7071 0.7071 0.7071 1553.3612 3809.4397)">
			<stop  offset="0" style="stop-color:#623393"/>
			<stop  offset="0.5738" style="stop-color:#452B7C"/>
			<stop  offset="1" style="stop-color:#2C256C"/>
		</linearGradient>
		<path class="st12" d="M251.5,218.6L251.5,218.6l9,9c3.6,3.6,8.3,5.4,13,5.4c-4.7,0-9.4-1.8-13-5.4L251.5,218.6z"/>
		<path class="st6" d="M320.7,102.5L320.7,102.5c2.7-2.7,6-4.4,9.5-5.1C326.7,98.2,323.4,99.8,320.7,102.5z"/>
		
			<linearGradient id="SVGID_9_" gradientUnits="userSpaceOnUse" x1="1541.5217" y1="-3491.2483" x2="1848.9905" y2="-3491.2483" gradientTransform="matrix(0.7071 -0.7071 0.7071 0.7071 1553.3612 3809.4397)">
			<stop  offset="0" style="stop-color:#623393"/>
			<stop  offset="0.5738" style="stop-color:#452B7C"/>
			<stop  offset="1" style="stop-color:#2C256C"/>
		</linearGradient>
		<path class="st13" d="M320.7,102.5L320.7,102.5c2.7-2.7,6-4.4,9.5-5.1C326.7,98.2,323.4,99.8,320.7,102.5z"/>
		<path class="st7" d="M156.3,198c-2.2-2.2-4-4.5-5.7-7c-0.3-0.4-0.5-0.8-0.7-1.2l-11.4,11.4c-11.9,11.9-11.9,31.1,0,42.9l22.3,22.3
			c9.6,9.6,23.9,11.4,35.3,5.5c2.7-1.4,5.3-3.2,7.6-5.5l7.1-7.1l2.5-2.5l0.9-0.9L156.3,198z"/>
		<path class="st8" d="M229.7,219.5c-2.5-2.5-4.6-5.3-6.1-8.3c-4.7-9-5.2-19.7-1.4-29c0.4-1,0.9-2.1,1.4-3.1c1.6-3,3.6-5.8,6.1-8.3
			l0,0l51.8-51.8l-8.9-8.9c-11.9-11.9-31.1-11.8-42.9,0l-79.4,79.4c0.1,0.5,0.2,1.1,0.3,1.6c1.6,2.5,3.5,4.8,5.7,7l57.9,57.9l26-26
			L229.7,219.5z"/>
		<path class="st8" d="M222.2,182.1c-3.8,9.3-3.3,20,1.4,29C218.9,202.2,218.4,191.5,222.2,182.1z"/>
		<path class="st8" d="M251.5,218.6l43.4-43.4c11.8-11.8,11.8-31.1,0-42.9l-2-2l-51.8,51.8c-1.8,1.8-3.1,3.9-4,6.1
			c-0.9,2.2-1.3,4.6-1.3,6.9c0,4.7,1.8,9.4,5.4,13L251.5,218.6z"/>
		<path class="st8" d="M241.1,208.1c-3.6-3.6-5.4-8.3-5.4-13C235.7,199.8,237.5,204.6,241.1,208.1l10.4,10.4l0,0L241.1,208.1z"/>
		<path class="st8" d="M241.1,182.1c-1.8,1.8-3.1,3.9-4,6.1C238,186,239.3,183.9,241.1,182.1L241.1,182.1z"/>
		<path class="st7" d="M357.4,113.2l-36.1,36.1c-11.9,11.9-11.9,31.1,0,42.9l0.3,0.3l44.5-44.5c2.7-2.7,4.4-6,5.1-9.5
			c0.2-1.2,0.3-2.3,0.3-3.5c0-4.7-1.8-9.4-5.4-13L357.4,113.2z"/>
		<path class="st7" d="M366.2,148c2.7-2.7,4.4-6,5.1-9.5C370.5,142,368.8,145.3,366.2,148L366.2,148z"/>
		<path class="st14" d="M366.2,122c3.6,3.6,5.4,8.3,5.4,13C371.5,130.3,369.8,125.6,366.2,122l-8.8-8.8l0,0L366.2,122z"/>
		<path class="st14" d="M377.5,159.4c3.4-3.4,5.9-7.3,7.6-11.4C383.4,152.1,380.9,156,377.5,159.4L377.5,159.4z"/>
		<path class="st14" d="M385.1,148c0.4-1,0.8-2.1,1.1-3.2c3.5-11.7,0.6-25-8.7-34.2l-8.8-8.8l-11.4,11.4l8.8,8.8
			c3.6,3.6,5.4,8.3,5.4,13c0,1.2-0.1,2.4-0.3,3.5c-0.7,3.5-2.4,6.8-5.1,9.5l0,0l-44.5,44.5l11.4,11.4l44.5-44.5
			C380.9,156,383.4,152.1,385.1,148z"/>
		<path class="st14" d="M477.7,80.4l-22.3-22.3c-11.1-11.1-28.8-11.8-40.7-2c-0.8,0.6-1.5,1.3-2.2,2l-14.4,14.4l-2.5,2.5l-0.1,0.1
			l53.2,53.2c1.4,1.4,2.6,2.8,3.7,4.4c2.4,3.1,4.3,6.5,5.8,10.1l19.5-19.5C489.5,111.5,489.5,92.3,477.7,80.4z"/>
		<path class="st7" d="M377.5,110.6c9.3,9.3,12.1,22.5,8.7,34.2c-0.3,1.1-0.7,2.1-1.1,3.2c-1.7,4.2-4.2,8-7.6,11.4l0,0L333,203.9
			l10.6,10.6c11.9,11.9,31.1,11.9,42.9,0l67.8-67.8c-0.4-4.7-1-9.4-1.9-14c-1.1-1.5-2.4-3-3.7-4.4l-53.2-53.2l-26.7,26.7
			L377.5,110.6z"/>
		<path class="st7" d="M377.5,110.6c9.3,9.3,12.1,22.5,8.7,34.2C389.7,133.1,386.8,119.8,377.5,110.6l-8.8-8.8l0,0L377.5,110.6z"/>
	</g>
</g>
</svg>
