<svg xmlns="http://www.w3.org/2000/svg" role="img" viewBox="4.42 23.42 1279.16 1590.16"><title>Cortex logo</title><defs><clipPath id="a" clipPathUnits="userSpaceOnUse"><path d="M0 1235.753h953.809V0H0z"/></clipPath></defs><g clip-path="url(#a)" transform="matrix(1.33333 0 0 -1.33333 0 1647.667)"><path fill="#3b697e" d="M483.434 1177.998c-207.245 0-375.85-168.605-375.85-375.85 0-207.243 168.605-375.85 375.85-375.85 207.243 0 375.849 168.607 375.849 375.85 0 207.245-168.606 375.85-375.85 375.85m0-769.027c-216.8 0-393.177 176.378-393.177 393.178 0 216.799 176.378 393.177 393.178 393.177 216.799 0 393.177-176.378 393.177-393.177 0-216.8-176.378-393.178-393.177-393.178"/><path fill="#3b697e" d="M548.41 1041.607c0-35.939-29.135-65.073-65.074-65.073-35.939 0-65.073 29.134-65.073 65.073 0 35.938 29.134 65.073 65.073 65.073 35.94 0 65.073-29.135 65.073-65.073m212.648-248.37c0-35.938-29.135-65.072-65.073-65.072-35.94 0-65.073 29.134-65.073 65.072 0 35.939 29.134 65.073 65.073 65.073 35.938 0 65.073-29.134 65.073-65.073m-214.092-248.37c0-35.938-29.134-65.072-65.072-65.072-35.94 0-65.073 29.134-65.073 65.072 0 35.939 29.134 65.073 65.073 65.073 35.938 0 65.072-29.134 65.072-65.073m-265.698 248.37c0-35.938-29.134-65.072-65.073-65.072-35.938 0-65.072 29.134-65.072 65.072 0 35.939 29.134 65.073 65.072 65.073 31.447 0 57.683-22.305 63.75-51.958a65.353 65.353 0 0 0 1.323-13.115M363.45 662.37l-51.367 128.413 10.73 4.292 41.05-102.63L410.4 800.149h54.77l49.042 121.82 44.152-126.152h24.782v-11.55h-32.978l-36.712 104.89-40.486-100.559h-54.978z"/><path fill="#3b697e" d="M638.371 884.045L522.851 993.79l7.958 8.376L646.33 892.422zM532.357 586.683l-8.168 8.168 109.745 109.745 8.168-8.168z"/><path fill="#3b697e" d="M695.982 895.304c-56.068 0-101.682-45.613-101.682-101.682 0-56.068 45.614-101.684 101.682-101.684 56.068 0 101.685 45.616 101.685 101.684 0 56.07-45.617 101.682-101.685 101.682m0-214.918c-62.437 0-113.234 50.797-113.234 113.236 0 62.437 50.797 113.234 113.234 113.234 62.44 0 113.236-50.797 113.236-113.234 0-62.439-50.797-113.236-113.236-113.236M322.694 784.578h-47.396v11.553h47.396z"/><path fill="#35354d" d="M138.978 194.284c-7.122 6.005-16.68 9.009-28.691 9.009-10.233 0-18.798-1.893-25.688-5.672-6.896-3.785-12.401-8.788-16.513-15.013-4.121-6.23-7.065-13.402-8.842-21.52-1.783-8.121-2.668-16.512-2.668-25.188 0-8.007.942-15.793 2.835-23.351 1.886-7.565 4.837-14.294 8.841-20.186 4.002-5.894 9.226-10.624 15.679-14.178 6.449-3.56 14.121-5.338 23.019-5.338 14.011 0 24.966 3.668 32.862 11.01 7.892 7.338 12.729 17.68 14.511 31.027h29.027c-3.119-21.353-11.067-37.816-23.854-49.376-12.793-11.567-30.192-17.348-52.21-17.348-13.126 0-24.746 2.115-34.865 6.337-10.123 4.223-18.572 10.229-25.355 18.017-6.786 7.78-11.899 17.066-15.346 27.856-3.452 10.785-5.172 22.63-5.172 35.53 0 12.898 1.67 24.963 5.006 36.199 3.337 11.229 8.393 21.018 15.179 29.358 6.783 8.34 15.289 14.896 25.521 19.682 10.227 4.78 22.129 7.173 35.697 7.173 9.784 0 18.959-1.168 27.524-3.503 8.56-2.336 16.124-5.951 22.687-10.841 6.557-4.897 11.952-11.068 16.18-18.516 4.222-7.454 6.89-16.296 8.007-26.522h-29.36c-2.225 10.895-6.895 19.35-14.011 25.354m100.914-84.238c2.778-8.123 6.617-14.905 11.51-20.352 4.89-5.452 10.618-9.623 17.181-12.51 6.558-2.894 13.513-4.338 20.851-4.338 7.342 0 14.288 1.444 20.851 4.338 6.557 2.887 12.288 7.058 17.182 12.51 4.89 5.447 8.726 12.23 11.51 20.352 2.777 8.114 4.17 17.398 4.17 27.856 0 10.453-1.393 19.734-4.17 27.857-2.784 8.117-6.62 14.956-11.51 20.517-4.894 5.557-10.625 9.785-17.182 12.678-6.563 2.888-13.509 4.338-20.85 4.338-7.339 0-14.294-1.45-20.852-4.338-6.563-2.893-12.29-7.12-17.18-12.678-4.894-5.56-8.733-12.4-11.51-20.517-2.784-8.123-4.169-17.404-4.169-27.857 0-10.458 1.385-19.742 4.168-27.856m-28.857 63.387c3.556 11.008 8.892 20.57 16.013 28.691 7.116 8.114 15.9 14.511 26.357 19.182 10.452 4.67 22.461 7.006 36.03 7.006 13.788 0 25.856-2.336 36.198-7.006 10.342-4.67 19.07-11.068 26.187-19.182 7.116-8.122 12.455-17.683 16.014-28.69 3.557-11.012 5.34-22.854 5.34-35.532 0-12.677-1.783-24.469-5.34-35.364-3.559-10.9-8.898-20.408-16.014-28.524-7.118-8.12-15.845-14.46-26.187-19.016-10.342-4.557-22.41-6.839-36.199-6.839-13.568 0-25.577 2.282-36.029 6.84-10.458 4.555-19.24 10.895-26.357 19.015-7.12 8.116-12.457 17.624-16.013 28.524-3.56 10.895-5.339 22.687-5.339 35.364 0 12.678 1.78 24.52 5.34 35.531m211.184 50.876v-36.365h.666c6.893 14.011 15.348 24.353 25.355 31.026 10.008 6.673 22.686 9.784 38.035 9.342v-30.025c-11.344 0-21.021-1.558-29.028-4.671-8.007-3.117-14.46-7.671-19.347-13.679-4.896-6.005-8.455-13.292-10.678-21.852-2.225-8.562-3.336-18.406-3.336-29.523V51.829H395.53v172.48zm169.135 0v-25.021h-34.363V92.197c0-3.337.276-6.005.832-8.007.552-2.003 1.613-3.56 3.17-4.671 1.554-1.114 3.722-1.836 6.507-2.169 2.778-.333 6.39-.499 10.84-.499h13.014V51.829h-21.686c-7.341 0-13.627.5-18.851 1.501-5.226 1-9.453 2.836-12.677 5.504-3.226 2.668-5.618 6.448-7.173 11.344-1.556 4.891-2.335 11.343-2.335 19.351v109.759h-29.357v25.021h29.356v51.711h28.36v-51.711zM737.976 173.6c-2.562 6.004-6.005 11.177-10.343 15.512-4.338 4.338-9.456 7.784-15.347 10.342-5.895 2.555-12.402 3.838-19.518 3.838-7.338 0-13.957-1.283-19.85-3.838-5.893-2.558-10.956-6.061-15.178-10.509-4.228-4.45-7.565-9.622-10.01-15.512-2.447-5.897-3.892-12.178-4.334-18.851h99.084c-.448 6.673-1.952 13.013-4.504 19.018m6.839-110.761c-12.903-9.792-29.14-14.679-48.71-14.679-13.791 0-25.744 2.225-35.863 6.672-10.122 4.446-18.631 10.675-25.522 18.682-6.895 8.007-12.068 17.568-15.512 28.691-3.452 11.119-5.395 23.238-5.84 36.364 0 13.123 2.002 25.132 6.006 36.032 4.002 10.895 9.619 20.349 16.847 28.355 7.226 8.007 15.79 14.232 25.69 18.685 9.894 4.445 20.735 6.671 32.527 6.671 15.346 0 28.076-3.168 38.199-9.508 10.119-6.337 18.234-14.403 24.354-24.187 6.114-9.789 10.34-20.464 12.676-32.028 2.336-11.566 3.28-22.577 2.838-33.026h-129.11c-.225-7.565.666-14.739 2.669-21.52 2.002-6.788 5.223-12.793 9.674-18.015 4.447-5.23 10.119-9.398 17.014-12.512 6.89-3.116 15.013-4.67 24.354-4.67 12.012 0 21.852 2.778 29.526 8.343 7.674 5.556 12.729 14.011 15.179 25.354h28.023c-3.782-19.35-12.125-33.92-25.02-43.704m33.363 161.47h36.366l41.368-60.386 43.038 60.386h34.03l-59.384-79.4 66.724-93.08h-36.366l-48.042 71.394-48.041-71.394h-34.363l64.72 90.745z"/></g></svg>