<svg xmlns="http://www.w3.org/2000/svg" role="img" viewBox="-3.81 -10.81 822.12 162.12"><style>svg {enable-background:new 0 0 813 141.1}</style><style/><g id="TdI2jd.tif"><path fill="#55d4f5" d="M143.3 5v39.9c0 3.5.1 3.6 3.5 3.6h36.3c4.1 0 4.7.6 4.7 4.6v35.8c0 4.2 0 4.2-4.1 4.2h-79.2c-4.1 0-4.1 0-4.1 4.1V136H55.8V96.8c0-3.6-.1-3.7-3.7-3.7H12.3V48.5c27.7 0 55.5 0 83.2.1 2.3 0 3.3-.8 3.2-3.2 0-13.5.1-26.9 0-40.4h44.6z"/><path d="M802.6 93.1c-1.6 1.6-2.9 3.5-4.4 5.2-3.6 4.2-8.3 6.1-13.6 6.3-4.6.2-9.2.1-13.7 0-5.5-.1-10.2-2-13.7-6.4-1.7-2.2-4.2-3.7-4.9-6.7-.3-1.2-.5-2.3-.5-3.5V52.3c0-3.6 2-6.2 4-8.9 2.9-4.1 7.5-4.8 11.5-6.9.5-.2 1.1-.2 1.6-.2 6 0 12.1-.4 18.1.1 3.6.3 7 2.2 9.7 4.8 2 1.8 3.6 4 5.9 5.6v46.3zm-36.2-22.8v14c0 3.9 2 5.8 5.8 5.8h11c2.9-.1 6.6-3.9 6.6-6.7V58.9c0-4.6-3.5-8.1-8.1-8.1h-9.1c-4.5 0-6.1 1.7-6.2 6.3v13.2zm-431.7.3V42c0-4.2 0-4.2 4.3-4.2 9.4 0 18.7.3 28.1-.1 5.9-.3 9.8 2.5 13.3 6.5 2.3 2.7 3.3 5.7 3.1 9.3-.2 3-.3 6.1 0 9.1.5 5-2.1 8.3-5.3 11.4-1.2 1.2-2.3 2.8-4.3 3.3-1.3.3-1.2 1.6-.4 2.4 4.5 4.7 6.6 11.1 11 16 1.6 1.8 2.3 4.5 3.9 6.5.7.9-.3 1.4-1 1.4-4.8 0-9.5.1-14.3 0-1.4 0-2-1.3-2.6-2.2-3.2-4.9-6.1-10-9.3-14.9-1.3-2-2.6-3.8-3.8-5.8-1.5-2.4-4-2.5-6.6-2.2-1.8.2-1.5 1.6-1.5 2.7v18.7c0 3.7-.1 3.8-3.9 3.8-2.5 0-5-.1-7.4 0-2.6.2-3.3-1-3.3-3.4V70.6zm22.6-5.3h6.5c3-.1 5-2.2 5.1-5.2 0-1.8.1-3.7 0-5.5-.1-2.7-1.3-3.8-3.9-3.8h-9.6c-7 .1-6.1-1-6.1 6.1 0 2.6-1.1 5.9.5 7.7 1.8 2 5.2.4 7.5.7zm216.2 5.5c0-9.8.1-19.6 0-29.4 0-2.5.6-3.6 3.3-3.6 12.3.1 24.6.1 36.9 0 2.4 0 3.3.7 3.2 3.1-.2 2.2-.2 4.4 0 6.6.2 2.7-1 3.4-3.5 3.4-7.3-.1-14.7.1-22-.1-2.6-.1-3.5.8-3.3 3.3.2 1.7.2 3.5 0 5.2-.2 2.6.7 3.6 3.4 3.5 6.9-.2 13.8-.1 20.6 0 3.9 0 4.5.6 4.5 4.4 0 2.3-.1 4.6 0 6.9.1 2.4-.9 3.2-3.2 3.2-7.3-.1-14.7.1-22-.1-2.4 0-3.4.6-3.4 3.2.1 8.2 0 8.2 8.3 8.2 5.8 0 11.6.1 17.3 0 2.2 0 3.2.8 3.2 3-.1 3.2-.1 6.4 0 9.6 0 1.8-.7 2.4-2.5 2.4-12.7 0-25.5-.1-38.2 0-2.4 0-2.6-1.4-2.6-3.2V70.8zm-108.9 32.9h-3.3c-3.8 0-5.3-1.2-6.1-4.9-.3-1.6-.6-3.3-1.3-4.7-.8-1.5-1.9-2.7-4-2.7-5 .1-10.1 0-15.1 0-3.8 0-4.3.3-5 3.9-.5 2.3-2 4.2-2.5 6.5-.3 1.3-1.3 1.9-2.7 1.8-3.8-.1-7.5 0-11.3-.1-1.4 0-2.7.1-1.4-2.3 1.4-2.7 1.5-6 2.7-8.8 1.9-4.3 2.6-9 5-13.1.7-1.2.8-2.6 1.2-3.9 1.2-4.7 3-9.3 4.5-13.9 1.3-4 2.7-8 4.4-11.8 1.5-3.2 2.1-6.8 3.5-10.1.5-1.1.9-1.8 2.1-1.8h13.2c1.1 0 1.8.5 2.2 1.7.5 1.7 1.3 3.4 1.7 5.2 1.8 7.2 4.8 13.9 7.1 20.9 2.2 6.7 4.1 13.5 6.7 19.9 2.1 5.1 2.8 10.6 5.6 15.4 1.1 1.9.2 2.7-1.8 2.8h-5.4zm-23.3-44.2c-.1 4.1-2.4 7.2-3.4 10.7-.5 1.6-.6 3.3-1.9 4.8-1 1.1.2 1.9 1.6 1.9 2.7 0 5.3.1 8 0 1.8-.1 2.5-1.4 1.6-3-2.6-4.4-2.9-9.7-5.9-14.4zm-189 10.8c0-4.3.2-8.6-.1-12.9-.2-3.1 1-5.9 1.2-8.9.1-1.6 1.7-2.3 2.6-3.4 4.5-5.3 9.7-9.2 17.2-8.8 2.7.1 5.3.1 8 0 7.1-.2 12.4 3.1 17 8.3 2.3 2.6 3.1 5.9 5 8.6.9 1.2.4 2.8-1.5 3.1-3.1.4-6 1-8.8 2.6-2 1.1-3.7 0-5.4-3.5-1.6-3.3-3.8-4.9-7.4-4.6-2.1.2-4.2 0-6.3 0-3.6 0-5.6 1.9-5.6 5.5v28.6c0 3.2 2.1 5.2 5.3 5.2 2.4 0 4.8-.2 7.1 0 2.9.3 4.6-1.1 6-3.3 3.1-5 3.8-5.2 9.5-3.5 1.8.5 3.7 1 5.6 1.3 1.8.3 2.2 1.6 1.6 2.8-2.3 5-5 9.8-9.5 13.2-3.5 2.6-7.4 4.1-11.8 4-3.4-.1-6.8 0-10.2 0-6.8-.1-11.8-3.5-15.8-8.7-2.9-3.8-3.8-8.1-3.8-12.7.1-4.3.1-8.6.1-12.9zm272.6 6.9c0 7.8-.1 15.6 0 23.4 0 2.4-.8 3.3-3.2 3.1-2.6-.2-5.3-.2-8 0-2.6.1-3.5-.9-3.5-3.5.1-14.7.1-29.3 0-44 0-6.1.6-5.3-5.5-5.4-2.9 0-5.9-.1-8.8 0-1.9 0-2.9-.6-2.8-2.7.1-2.6.1-5.1 0-7.7-.1-1.8.6-2.6 2.5-2.6h44.8c2.1 0 3 .8 2.9 3-.1 2.3-.1 4.6 0 6.9.1 2.5-1 3.2-3.3 3.2-4.1-.1-8.3.1-12.4-.1-2.3-.1-3 .8-2.9 3 .3 7.8.2 15.6.2 23.4zM718 70.5c0 9.9-.1 19.8 0 29.7 0 2.6-.8 3.7-3.5 3.5-2.9-.2-5.9-.1-8.8 0-2.1.1-3-.8-2.9-2.9.1-4.3 0-8.6 0-12.9 0-15.5.1-31-.1-46.5 0-2.7.7-3.8 3.6-3.6 2.8.2 5.7.1 8.5 0 2.4-.1 3.2.9 3.1 3.3 0 9.8.1 19.6.1 29.4zM651.7 95v-6c0-1.7.8-2.5 2.5-2.5h11.5c2 0 3.1 1 3.1 3v11.8c0 1.6-.8 2.4-2.4 2.4H654c-1.7 0-2.5-.9-2.4-2.6.2-2 .1-4 .1-6.1z"/></g></svg>