<svg xmlns="http://www.w3.org/2000/svg" role="img" viewBox="14.23 15.73 163.55 170.30"><title>crates.io logo</title><g fill="none" stroke-width="2"><path stroke="#ebc06e" d="M114.04 24.32L79.15 37.69q-.54.21-.55.79l-.03 1.62" vector-effect="non-scaling-stroke"/><path stroke="#daa337" d="M78.57 40.1q-6.22-3.19-13.03-4.35" vector-effect="non-scaling-stroke"/><path stroke="#ebc06e" d="M120.95 26.73L85.4 40.23q-.46.17-.48.66l-.06 1.42" vector-effect="non-scaling-stroke"/><path stroke="#dfb158" d="M84.86 42.31l.22 5.91a.64.64 0 0 1-.93.6l-4.98-2.53q-.34-.17-.36-.55l-.24-5.64" vector-effect="non-scaling-stroke"/><path stroke="#e7af43" d="M171.97 50.83q-5.66-.6-9.43 1.7-2.32 1.42-3.29 1.43" vector-effect="non-scaling-stroke"/><path stroke="#ebc06e" d="M159.25 53.96l-.39-1.34q-.14-.46-.6-.62-8.36-2.79-16.48-6.2c-5.6-2.35-12.81-4.36-18.94-7.47q-.5-.25-1.01-.06l-5.78 2.18a.51.51 0 0 0 .1.98q2.56.41 5.09 1.37 15.61 5.92 31.23 11.95.51.2.5.75l-.01 1.5" vector-effect="non-scaling-stroke"/><path stroke="#e7af43" d="M152.96 57q-7.68 1.93-14.8 5.52-.45.23-.45.73l.33 42.99" vector-effect="non-scaling-stroke"/><path stroke="#d8aa62" d="M138.04 106.24q-.17-.09-.69.37-.64.56.2.38c4.62-.97 9.56-3.51 13.04-4.8q4.83-1.79 9.41-4.15" vector-effect="non-scaling-stroke"/><path stroke="#e7af43" d="M160 98.04l10.49-3.81q.47-.17.47-.67.01-1.04 1-1.56m.25 4.25c-.21-.8-1.43-2.44-2.22-1.03q-.25.44-.72.63l-30.56 11.99q-.8.31-.79 1.17l.1 41.3" vector-effect="non-scaling-stroke"/><path stroke="#b48b47" d="M138.02 150.31q-.31.5-2.49 1.25" vector-effect="non-scaling-stroke"/><path stroke="#e7af43" d="M135.53 151.56c0-13.61-.44-27.08-.05-40.64q.02-.68-.66-.67c-2.79.05-6.96 2.58-10.9 4.12q-.59.23-.63.86l-.36 5.83q-.04.58-.61.67-2.6.39-4.71 1.97-.81.61-.78-.41l.2-5.19a.86.86 0 0 0-1.18-.83l-13.34 5.46a1.56 1.56 0 0 0-.97 1.46l.36 38.04q.01.31-.31.36-.65.11-1.05-.34" vector-effect="non-scaling-stroke"/><path stroke="#d0992d" d="M100.54 162.25l-.04-16.79" vector-effect="non-scaling-stroke"/><path stroke="#daa337" d="M100.5 145.46l-.02-24.56" vector-effect="non-scaling-stroke"/><path stroke="#d0992d" d="M100.48 120.9l-.02-9.4" vector-effect="non-scaling-stroke"/><path stroke="#daa337" d="M100.46 111.5q.48-17.5-.27-35.32a.48.47 8.9 0 0-.31-.41c-3.73-1.32-7.29-2.6-10.86-4.34q-1.76-.86-3.77-.97" vector-effect="non-scaling-stroke"/><path stroke="#ebc06e" d="M85.25 70.46l.05-1.75q.01-.5.48-.68c11.11-4.17 17.96-7.52 26.68-10.31 2.66-.85 5.25-2.47 8.3-3.04q1.01-.19.08-.63l-5.03-2.39q-.58-.28-1.17-.02-8.66 3.79-21.21 8.29-6.94 2.48-15.13 6.91" vector-effect="non-scaling-stroke"/><path stroke="#daa337" d="M78.3 66.84l-12.76-4.09m0-2.5l31.72-12.4a.42.42 0 0 0 0-.78l-12.4-4.76" vector-effect="non-scaling-stroke"/><path stroke="#b5883d" d="M135.53 151.56l-12.24 5.69" vector-effect="non-scaling-stroke"/><path stroke="#ebbd64" d="M123.29 157.25q-.51-3.12.11-6.32a.79.79 0 0 0-1.13-.85l-4.76 2.42q-.49.25-.51.8l-.25 7.41" vector-effect="non-scaling-stroke"/><path stroke="#b5883d" d="M116.75 160.71l-15.34 7.14q-.58.27-.95-.25l-.25-.35" vector-effect="non-scaling-stroke"/><path stroke="#d19623" d="M100.21 167.25l.33-5" vector-effect="non-scaling-stroke"/><path stroke="#c48a16" d="M100.46 111.5q-.59-1.44-1.98-1.55-.4-.04-.58-.4l-.28-.59q-.27-.56-.86-.74l-9.24-2.8q-.51-.15-.88-.56-.88-.98-2.4-.56-.69.2-.82-.51-.38-2.06-2.33-1.79-.58.08-1.09-.22-6.47-3.86-14.01-4.59" vector-effect="non-scaling-stroke"/><path stroke="#daa337" d="M65.99 97.19l-.53-3.44" vector-effect="non-scaling-stroke"/><path stroke="#dfb158" d="M65.46 93.75q.63-2.01.13-4.79" vector-effect="non-scaling-stroke"/><path stroke="#daa337" d="M65.59 88.96q1.12-5.08-.09-10.75" vector-effect="non-scaling-stroke"/><path stroke="#d5a74e" d="M85.04 114.25l.09-6.62q.01-.5-.44-.7l-5.18-2.41q-.52-.24-.52.33l-.01 7.29" vector-effect="non-scaling-stroke"/><path stroke="#dfb158" d="M85.25 70.46l.02 6.14q.01.76-.59.3-2.39-1.86-5.41-2.27-.57-.08-.46-.65.75-3.86-.51-7.14" vector-effect="non-scaling-stroke"/><path stroke="#a6730e" d="M79 125.21q-2.38-.07-4.4 1.68-.37.32-.49.8-3.17 12.62 5.94 20.79c3.26 2.92 8.04 4.19 10.58-.24 1.35-2.37.95-5.75.66-8.49" vector-effect="non-scaling-stroke"/><path stroke="#9e7227" d="M100.21 167.25l-51.03-23.39" vector-effect="non-scaling-stroke"/><path stroke="#c48a16" d="M49.18 143.86l.03-7.24q0-.51-.46-.71l-5.29-2.31q-.48-.22-.49.31l-.08 6.71" vector-effect="non-scaling-stroke"/><path stroke="#9e7227" d="M42.89 140.62L30.04 135" vector-effect="non-scaling-stroke"/><path stroke="#aa750b" stroke-opacity=".549" d="M30.04 135l-.26-5.61" vector-effect="non-scaling-stroke"/><path stroke="#c48a16" d="M65.62 105.64q5.58 5.26 13.36 6.5" vector-effect="non-scaling-stroke"/><path stroke="#dfb158" d="M78.98 112.14c-.1.44 4.77 2.24 5.47 2.72q.38.25.56-.16.09-.21.03-.45" vector-effect="non-scaling-stroke"/><path stroke="#c48a16" d="M85.04 114.25l.24.48q.19.37.58.52c3.3 1.3 6.53 3.03 9.79 4.09q2.38.77 4.83 1.56m.02 24.56q-.84-1.34-2.55-.85-.58.17-1.09-.13l-4.35-2.53q-.12-.08-.18.06-.05.12-.06.25-.07.62-.25.01l-.73-2.52" vector-effect="non-scaling-stroke"/><path stroke="#b07c18" d="M91.29 139.75c-.33-2.31-3.67-11.87-6.44-12.02q-.48-.02-.73-.44-.9-1.53-2.64-1.68-.49-.04-.47-.53.02-.61-.54-.75-.45-.11-.46.35-.01.19-.01.39-.01.56-.55.41-.26-.07-.45-.27" vector-effect="non-scaling-stroke"/><path stroke="#c48a16" d="M79 125.21c-2.72-2.76-5.46 4.12-7.43-1.06q-.18-.47-.68-.54l-3.78-.52q-.33-.05-.33.29l-.09 26.29q0 .65-.65.57c-3.11-.42-2.1-21.01-2-24.04q.02-.59-.56-.71-3.17-.71-5.82-2.52-.46-.32-1.02-.33-8.39-.18-15.84-3.76c-2.62-1.26-4.83-1.87-7.44-2.71q-.11-.04-.11.08 0 .16.01.32.02.33-.22.1l-.48-.48a.84.84 0 0 0-1.43.52c-.19 2.22-.43 12.83-.78 13.12q-.35.29-.37-.17l-.19-4.16" vector-effect="non-scaling-stroke"/><path stroke="#b99968" d="M116.75 160.71l6.54-3.46" vector-effect="non-scaling-stroke"/><path stroke="#a6835c" d="M172 135.71c-3.45 2.2-8.01 3.81-10.86 5.23-12.44 6.16-26.76 12.43-37.7 17.63q-10.31 4.9-20.66 9.78-.45.21-.94.15l-6.89-.84" vector-effect="non-scaling-stroke"/><path stroke="#6d5439" d="M94.95 167.66q-23.26-10.08-38.18-17.45-4.61-2.28-7.99-3.76c-7.26-3.18-13.02-6.03-19.57-8.96q-.43-.2-.89-.12l-.78.13" vector-effect="non-scaling-stroke"/><path stroke="#d9a758" d="M160 98.04l-.96-.79" vector-effect="non-scaling-stroke"/><path stroke="#ebbd64" d="M159.04 97.25l-.13-6.9q-.02-.7-.66-.42l-4.67 1.99q-.47.21-.47.73l.01 7.26" vector-effect="non-scaling-stroke"/><path stroke="#d9a758" d="M153.12 99.91q-7.18 4.01-15.08 6.33" vector-effect="non-scaling-stroke"/><path stroke="#ebbd64" d="M159.25 53.96q-.99 2.51-.25 5.22a1.84 1.83-17.9 0 1-1.12 2.19l-4.16 1.56q-.67.25-.68-.46l-.08-5.47" vector-effect="non-scaling-stroke"/><path stroke="#b5883d" d="M171.71 135l-33.69 15.31" vector-effect="non-scaling-stroke"/><path stroke="#d0992d" d="M65.99 97.19l-.37 8.45" vector-effect="non-scaling-stroke"/><path stroke="#daa337" d="M65.62 105.64q-.72.63-.36 2.79.16 1.01-.53.26l-1.48-1.59q-.37-.39-.87-.59l-11.85-4.57a.99.98-84.8 0 0-1.32 1.1q.22 1.16-.17 2.21" vector-effect="non-scaling-stroke"/><path stroke="#ebc06e" d="M65.59 88.96q-10.89 3.16-21.33 7.77c-1.23.54-1.42 1.29-1.55 2.52" vector-effect="non-scaling-stroke"/><path stroke="#daa337" d="M42.71 99.25q-6.22-2.95-12.89-4.64" vector-effect="non-scaling-stroke"/><path stroke="#ebc06e" d="M65.46 93.75c-3.85.59-7.25 2.77-10.43 3.75q-2.69.83-5.35 1.8-.46.16-.47.64l-.17 5.31" vector-effect="non-scaling-stroke"/><path stroke="#dfb158" d="M49.04 105.25l.16 1.94q.05.64-.56.46l-4.05-1.19a2.32 2.31-83.2 0 1-1.67-2.13l-.21-5.08" vector-effect="non-scaling-stroke"/><path stroke="#a87b31" d="M49.18 143.86q-3.45-1.13-6.29-3.24" vector-effect="non-scaling-stroke"/><path stroke="#775a3b" stroke-opacity=".549" d="M30.04 135c-.48 1.79-3.15.43-2.5 2.5" vector-effect="non-scaling-stroke"/><path stroke="#513f2c" stroke-opacity=".549" d="M27.54 137.5l.46 1.04" vector-effect="non-scaling-stroke"/><path stroke="#775a3b" stroke-opacity=".549" d="M28 138.54l.09 6.74" vector-effect="non-scaling-stroke"/><path stroke="#513f2c" stroke-opacity=".549" d="M28.09 145.28q.21 2.01 2.16 2.18" vector-effect="non-scaling-stroke"/><path stroke="#917454" d="M101.29 172q-.04.13-.08.25" vector-effect="non-scaling-stroke"/><path stroke="#6d5439" d="M101.21 172.25l-11.42-4.75" vector-effect="non-scaling-stroke"/><path stroke="#3e3122" stroke-opacity=".71" d="M89.79 167.5l-9.28-4.64q-.46-.23-.95-.1c-3.78.96-8.24 5.11-11.81 3.78" vector-effect="non-scaling-stroke"/><path stroke="#443525" stroke-opacity=".647" d="M67.75 166.54q-5.68-2.42-10.08-6.49" vector-effect="non-scaling-stroke"/><path stroke="#6d5439" d="M57.67 160.05q6.27 1.81 11.52 5.12.46.28.92.02l6.05-3.4q.59-.33 0-.66-8.79-4.96-18.2-8.38" vector-effect="non-scaling-stroke"/><path stroke="#443525" stroke-opacity=".647" d="M57.96 152.75q-1.85-2-4.57-2.44-.47-.08-.87-.33l-3.29-2.09q-.47-.3-.98-.04L39.98 152q-.4.2-.79 0l-8.94-4.54" vector-effect="non-scaling-stroke"/><path stroke="#6d5439" d="M28.09 145.28q6.07 2.02 11.59 5.2.46.27.9-.03l5.15-3.5q.43-.29-.04-.51c-5.54-2.48-11.87-6.71-17.69-7.9" vector-effect="non-scaling-stroke"/><path stroke="#a6835c" d="M174.25 136.96q-15.49 6.6-30.67 13.9c-14.07 6.76-28.39 12.87-42.33 19.93" vector-effect="non-scaling-stroke"/><path stroke="#917454" d="M101.25 170.79q-3.33-1.05-6.3-3.13" vector-effect="non-scaling-stroke"/><path stroke="#ddb883" d="M159.04 97.25q-2.62 2.17-5.92 2.66" vector-effect="non-scaling-stroke"/><path stroke="#644d32" stroke-opacity=".647" d="M57.96 152.75l-.29 7.3" vector-effect="non-scaling-stroke"/><path stroke="#917454" d="M101 180.54l-.29-.54" vector-effect="non-scaling-stroke"/><path stroke="#5c462e" stroke-opacity=".71" d="M89.79 167.5v7.5" vector-effect="non-scaling-stroke"/><path stroke="#3e3122" stroke-opacity=".71" d="M89.79 175q-.49 1.89.96 2.96" vector-effect="non-scaling-stroke"/><path stroke="#a6835c" d="M174.21 138.25l-8.52 4.25" vector-effect="non-scaling-stroke"/><path stroke="#6d5439" d="M165.69 142.5q-3.74.91-6.94 3.29" vector-effect="non-scaling-stroke"/><path stroke="#7d5b36" d="M158.75 145.79q-8.19 3.07-15.9 7.26" vector-effect="non-scaling-stroke"/><path stroke="#a6835c" d="M142.85 153.05l-8.23 4.01" vector-effect="non-scaling-stroke"/><path stroke="#7d5b36" d="M134.62 157.06q-3.39 1.3-6.66 2.97c-6.08 3.09-12.37 5.17-18.31 8.56" vector-effect="non-scaling-stroke"/><path stroke="#a6835c" d="M109.65 168.59l-8.36 3.41" vector-effect="non-scaling-stroke"/><path stroke="#6d5439" d="M101.29 172l-.04-1.21" vector-effect="non-scaling-stroke"/><path stroke="#a6835c" d="M101.21 172.25l-.5 7.75" vector-effect="non-scaling-stroke"/><path stroke="#6d5439" d="M100.71 180l-10.92-5m10.92 7.75q.61-1.07.29-2.21" vector-effect="non-scaling-stroke"/><path stroke="#a6835c" d="M101 180.54l8.79-4.54" vector-effect="non-scaling-stroke"/><path stroke="#7d5b36" d="M109.79 176q12.15-5.17 23.79-11.37c.47-.25.79-.72 1.13-1.13" vector-effect="non-scaling-stroke"/><path stroke="#a6835c" d="M134.71 163.5l.2.19q.38.37.84.11c1.33-.77 7.08-3.21 7.29-4.3" vector-effect="non-scaling-stroke"/><path stroke="#7d5b36" d="M143.04 159.5l.86.15q.47.09.9-.14c6.54-3.54 13.55-6.12 19.89-10.08" vector-effect="non-scaling-stroke"/><path stroke="#a17b51" d="M109.79 176l-.14-7.41" vector-effect="non-scaling-stroke"/><path stroke="#6d5439" d="M165.83 148.9q-.32.8-1.14.53" vector-effect="non-scaling-stroke"/><path stroke="#684c2d" d="M164.69 149.43l-5.94-3.64" vector-effect="non-scaling-stroke"/><path stroke="#a6835c" d="M174.36 145.13l-8.53 3.77" vector-effect="non-scaling-stroke"/><path stroke="#917454" d="M165.83 148.9l-.14-6.4" vector-effect="non-scaling-stroke"/><path stroke="#a17b51" d="M143.04 159.5q.5-2.91-.19-6.45m-8.14 10.45l-.09-6.44" vector-effect="non-scaling-stroke"/><path stroke="#d8aa62" d="M102 120.96q2.89.75 5.2-1.41.37-.34.86-.46 3-.74 5.76-2.11c2.44-1.21 5.51-1.63 7.88-3.59" vector-effect="non-scaling-stroke"/><path stroke="#e7af43" d="M121.7 113.39l13.17-5.62q.36-.15.36-.55l.05-44.27q0-.55-.51-.35l-32.42 12.72q-.51.2-.51.75l.16 44.89" vector-effect="non-scaling-stroke"/><path stroke="#d9a758" d="M121.7 113.39l-19.7 7.57" vector-effect="non-scaling-stroke"/><path stroke="#d19623" d="M167.75 57.97v.5q0 1.91.35.03l.66-3.47q.07-.36-.2-.62-.26-.25-.75-.14-.46.11-.66.53-.6 1.25.34 2.44.26.32.26.73M143.5 69.46q.01-2.21.56-2.96.29-.4.14-.88-.26-.79-1.09-1.06-.88-.29-.78.63l.47 4.3a.35.35 0 0 0 .7-.03" vector-effect="non-scaling-stroke"/><path stroke="#ebc06e" d="M80.74 69.89q-1.66 3.66 2.19 4.77.8.23.8-.6l.03-2.7q0-.48-.3-.85-.87-1.08-2.13-1.02-.42.02-.59.4" vector-effect="non-scaling-stroke"/><path stroke="#d19623" d="M112.47 102.51c.74.54.93.94 1.38 1.67q.27.44.78.46c2.39.09 4.43.4 6.44-1.18 6.76-5.33 12.68-17.29 3.7-23.66q-.37-.26-.81-.28c-6.5-.39-10.67 4.78-12.54 9.4-1.37 3.37-2.44 11.05 1.05 13.59" vector-effect="non-scaling-stroke"/><path stroke="#c48a16" d="M71.05 69.71l-.18-1.88q-.07-.67-.64-.32c-1.35.84-.87 2.67.19 2.81q.7.08.63-.61" vector-effect="non-scaling-stroke"/><path stroke="#d19623" d="M124.87 86.26l.95-.66q.44-.3.16-.75-1.31-2.12-3.75-2.66-.65-.15-1.12.32l-.88.89q-.34.33-.81.29-3.14-.3-4.2 2.78-.28.83.54.51l6.29-2.5a1.5 1.5 0 0 1 1.98.93q.63 1.91-.47 3.68-.32.51-.02 1.04l.8 1.4q.42.74.97.08 1.08-1.31 1.21-2.99.04-.57-.47-.84l-1.12-.57q-.83-.43-.06-.95" vector-effect="non-scaling-stroke"/><path stroke="#d19623" d="M121.2849 88.6086a1.72.75-23.7 0 0-1.8764.0047 1.72.75-23.7 0 0-1.2734 1.3781 1.72.75-23.7 0 0 1.8764-.0047 1.72.75-23.7 0 0 1.2734-1.3781M114.75 91.75q-.05-1.89-.95-.23-1.23 2.26-1.16 4.78.02.68.7.7c1.95.09 1.44-3.76 1.41-5.25m6.98 3.98l-.72-3.04q-.12-.5-.63-.44-1.52.16-2.31 1.5-.39.66.38.72l.56.04q.4.03.6.38c1.56 2.8-3.3 3.59-4.98 4.31q-3.46 1.49.12.6 1.68-.43 1.51 1.08-.1.78.69.71 3.18-.31 5.38-2.59c1.15-1.19.63-2.26 2.39-3.35q1.55-.96-.24-.66-.96.16-1.55.98-.86 1.19-1.2-.24" vector-effect="non-scaling-stroke"/><path stroke="#ebc06e" d="M44.71 99.97a.55.55 0 0 0-.61.59l.26 3.64a.55.55 0 0 0 .36.48l2.33.89a.55.55 0 0 0 .74-.53l-.13-4.27a.55.55 0 0 0-.49-.53l-2.46-.27" vector-effect="non-scaling-stroke"/><path stroke="#d19623" d="M150.0381 134.4426a13.38 8.76 112.6 0 0 13.2292-8.9862 13.38 8.76 112.6 0 0-2.9454-15.719 13.38 8.76 112.6 0 0-13.2292 8.9862 13.38 8.76 112.6 0 0 2.9454 15.719" vector-effect="non-scaling-stroke"/><path stroke="#dfb158" d="M83.89 111.19q1.15-4.38-3.1-4.62-.54-.03-.54.51c0 1.11-.4 6.7 2.37 5.56q1-.41 1.27-1.45" vector-effect="non-scaling-stroke"/><path stroke="#d19623" d="M160.18 115.71a1.59 1.59 0 0 1-.08 1.98q-1.97 2.29.52 4.13.56.41.75-.26l.78-2.68q.18-.62-.31-1.05-1.01-.91-.2-1.81.38-.43.14-.95c-2.62-5.54-8.72-1.73-11.27 1.31a.38.38 0 0 0 .45.59c2.28-1.05 7.26-3.94 9.22-1.26" vector-effect="non-scaling-stroke"/><path stroke="#d19623" d="M155.87 118.11q-1.81.05-2.49 1.76a.58.58 0 0 0 .88.68l1.95-1.4a.58.57-63.4 0 0-.34-1.04m-6.66 3.6q-1.81 1.96-1.29 4.58.14.68.81.5c1.79-.49 1.98-3.78 1.09-5.04q-.28-.4-.61-.04m5.73 5.39l-3.95 2.4q-.25.16-.05.38c3.09 3.36 6.65-.47 9.55-1.99q.76-.39-.01-.77-.31-.15-.64-.15-.38 0-.71-.18-2.22-1.24-2.79-3.71-.14-.62-.77-.58-1.18.06-1.77.88-.32.45.2.62 1.47.49 1.48 2.14 0 .63-.54.96" vector-effect="non-scaling-stroke"/><path stroke="#c48a16" d="M160.39 124.77l-.74.45q-.59.36 0 .71l.48.28a.47.46-70.6 0 0 .7-.34l.1-.75a.36.36 0 0 0-.54-.35" vector-effect="non-scaling-stroke"/><path stroke="#d19623" d="M131.17 115.01l-.22 1.6q-.13.98.73.49c.93-.53 2.21-2.6.06-2.59q-.5 0-.57.5m-23.93 10.62q-1.24.98-.8 2.15.25.65.74.16.88-.9.75-2.02-.09-.76-.69-.29" vector-effect="non-scaling-stroke"/><path stroke="#b07c18" d="M81.44 129.06l-.4-.86q-.16-.35-.54-.44-1.57-.34-2.88.73-.56.45.11.73c4.49 1.85 11 3.74 8.76 9.05q-.2.47-.08.97l.66 2.74a1.02 1.01 56.6 0 0 1.8.37q1.8-2.42-.71-3.93a.81.81 0 0 1-.05-1.35c1.81-1.27-2.86-7.68-5.84-7.51q-.58.03-.83-.5m-5.8 3.67c-.45 1.17-.77 5.13 1.32 4.7q.46-.1.48-.57l.18-4.33q.02-.45-.38-.67l-1.45-.79q-.52-.28-.55.31-.01.26.16.4.45.39.24.95" vector-effect="non-scaling-stroke"/><path stroke="#b07c18" d="M80.79 134.31q.91 1.41 2.48 2.01 1.28.49.58-.69-.88-1.5-2.72-1.83-.76-.14-.34.51" vector-effect="non-scaling-stroke"/><path stroke="#a6730e" d="M82 142.66q-2.65-.54-4.62-2.35a.45.45 0 0 0-.72.5q.48 1.15 1.61 1.51.54.17.29.68c-.93 1.9 4.48 4.26 5.42 4.6q.56.2 1-.22l1.48-1.43q.33-.31-.07-.52c-3.97-2.13-1.28-6.73-5.17-7.48q-1.55-.31-.34.7 1.59 1.33 1.83 3.36.1.82-.71.65" vector-effect="non-scaling-stroke"/></g><path fill="#e6b24d" d="M114.04 24.32L79.15 37.69q-.54.21-.55.79l-.03 1.62q-6.22-3.19-13.03-4.35-.68-3.38 2.45-4.28c4.45-1.28 8.36-3.14 12.42-4.7q9.85-3.76 19.68-7.57.45-.17.92-.07 2.61.53 4.86 1.69c2.71 1.4 5.54 1.9 8.17 3.5z"/><path fill="#efce8f" d="M114.04 24.32l6.91 2.41-35.55 13.5q-.46.17-.48.66l-.06 1.42.22 5.91a.64.64 0 0 1-.93.6l-4.98-2.53q-.34-.17-.36-.55l-.24-5.64.03-1.62q.01-.58.55-.79l34.89-13.37z"/><path fill="#e6b24d" d="M120.95 26.73c7.5 3.03 14.83 6.84 22.51 9.05q1.31.37 2.54 1.16c2.33 1.48 4.8 1.51 7.14 2.69 5.82 2.92 12.29 4.56 18.28 7.33q.48.22.49.75l.06 3.12q-5.66-.6-9.43 1.7-2.32 1.42-3.29 1.43l-.39-1.34q-.14-.46-.6-.62-8.36-2.79-16.48-6.2c-5.6-2.35-12.81-4.36-18.94-7.47q-.5-.25-1.01-.06l-5.78 2.18a.51.51 0 0 0 .1.98q2.56.41 5.09 1.37 15.61 5.92 31.23 11.95.51.2.5.75l-.01 1.5q-7.68 1.93-14.8 5.52-.45.23-.45.73l.33 42.99q-.17-.09-.69.37-.64.56.2.38c4.62-.97 9.56-3.51 13.04-4.8q4.83-1.79 9.41-4.15l10.49-3.81q.47-.17.47-.67.01-1.04 1-1.56l.25 4.25c-.21-.8-1.43-2.44-2.22-1.03q-.25.44-.72.63l-30.56 11.99q-.8.31-.79 1.17l.1 41.3q-.31.5-2.49 1.25c0-13.61-.44-27.08-.05-40.64q.02-.68-.66-.67c-2.79.05-6.96 2.58-10.9 4.12q-.59.23-.63.86l-.36 5.83q-.04.58-.61.67-2.6.39-4.71 1.97-.81.61-.78-.41l.2-5.19a.86.86 0 0 0-1.18-.83l-13.34 5.46a1.56 1.56 0 0 0-.97 1.46l.36 38.04q.01.31-.31.36-.65.11-1.05-.34l-.04-16.79-.02-24.56-.02-9.4q.48-17.5-.27-35.32a.48.47 8.9 0 0-.31-.41c-3.73-1.32-7.29-2.6-10.86-4.34q-1.76-.86-3.77-.97l.05-1.75q.01-.5.48-.68c11.11-4.17 17.96-7.52 26.68-10.31 2.66-.85 5.25-2.47 8.3-3.04q1.01-.19.08-.63l-5.03-2.39q-.58-.28-1.17-.02-8.66 3.79-21.21 8.29-6.94 2.48-15.13 6.91l-12.76-4.09v-2.5l31.72-12.4a.42.42 0 0 0 0-.78l-12.4-4.76.06-1.42q.02-.49.48-.66l35.55-13.5zM102 120.96q2.89.75 5.2-1.41.37-.34.86-.46 3-.74 5.76-2.11c2.44-1.21 5.51-1.63 7.88-3.59l13.17-5.62q.36-.15.36-.55l.05-44.27q0-.55-.51-.35l-32.42 12.72q-.51.2-.51.75l.16 44.89z"/><path fill="#ce9320" d="M65.54 35.75q6.81 1.16 13.03 4.35l.24 5.64q.02.38.36.55l4.98 2.53a.64.64 0 0 0 .93-.6l-.22-5.91 12.4 4.76a.42.42 0 0 1 0 .78l-31.72 12.4v-24.5z"/><path fill="#efce8f" d="M159.25 53.96q-.99 2.51-.25 5.22a1.84 1.83-17.9 0 1-1.12 2.19l-4.16 1.56q-.67.25-.68-.46l-.08-5.47.01-1.5q.01-.55-.5-.75-15.62-6.03-31.23-11.95-2.53-.96-5.09-1.37a.51.51 0 0 1-.1-.98l5.78-2.18q.51-.19 1.01.06c6.13 3.11 13.34 5.12 18.94 7.47q8.12 3.41 16.48 6.2.46.16.6.62l.39 1.34z"/><path fill="#e7ac39" d="M171.97 50.83L171.96 92q-.99.52-1 1.56 0 .5-.47.67L160 98.04l-.96-.79-.13-6.9q-.02-.7-.66-.42l-4.67 1.99q-.47.21-.47.73l.01 7.26q-7.18 4.01-15.08 6.33l-.33-42.99q0-.5.45-.73 7.12-3.59 14.8-5.52l.08 5.47q.01.71.68.46l4.16-1.56a1.84 1.83-17.9 0 0 1.12-2.19q-.74-2.71.25-5.22.97-.01 3.29-1.43 3.77-2.3 9.43-1.7zm-4.22 7.14v.5q0 1.91.35.03l.66-3.47q.07-.36-.2-.62-.26-.25-.75-.14-.46.11-.66.53-.6 1.25.34 2.44.26.32.26.73zM143.5 69.46q.01-2.21.56-2.96.29-.4.14-.88-.26-.79-1.09-1.06-.88-.29-.78.63l.47 4.3a.35.35 0 0 0 .7-.03z"/><path fill="#efce8f" d="M85.25 70.46l.02 6.14q.01.76-.59.3-2.39-1.86-5.41-2.27-.57-.08-.46-.65.75-3.86-.51-7.14 8.19-4.43 15.13-6.91 12.55-4.5 21.21-8.29.59-.26 1.17.02l5.03 2.39q.93.44-.08.63c-3.05.57-5.64 2.19-8.3 3.04-8.72 2.79-15.57 6.14-26.68 10.31q-.47.18-.48.68l-.05 1.75zm-4.51-.57q-1.66 3.66 2.19 4.77.8.23.8-.6l.03-2.7q0-.48-.3-.85-.87-1.08-2.13-1.02-.42.02-.59.4z"/><path fill="#ba800c" d="M167.49 57.24q-.94-1.19-.34-2.44.2-.42.66-.53.49-.11.75.14.27.26.2.62l-.66 3.47q-.35 1.88-.35-.03v-.5q0-.41-.26-.73z"/><path fill="#e7ac39" d="M121.7 113.39l-19.7 7.57-.16-44.89q0-.55.51-.75l32.42-12.72q.51-.2.51.35l-.05 44.27q0 .4-.36.55l-13.17 5.62zm-9.23-10.88c.74.54.93.94 1.38 1.67q.27.44.78.46c2.39.09 4.43.4 6.44-1.18 6.76-5.33 12.68-17.29 3.7-23.66q-.37-.26-.81-.28c-6.5-.39-10.67 4.78-12.54 9.4-1.37 3.37-2.44 11.05 1.05 13.59z"/><path fill="#ce9320" d="M65.54 62.75l12.76 4.09q1.26 3.28.51 7.14-.11.57.46.65 3.02.41 5.41 2.27.6.46.59-.3l-.02-6.14q2.01.11 3.77.97c3.57 1.74 7.13 3.02 10.86 4.34a.48.47 8.9 0 1 .31.41q.75 17.82.27 35.32-.59-1.44-1.98-1.55-.4-.04-.58-.4l-.28-.59q-.27-.56-.86-.74l-9.24-2.8q-.51-.15-.88-.56-.88-.98-2.4-.56-.69.2-.82-.51-.38-2.06-2.33-1.79-.58.08-1.09-.22-6.47-3.86-14.01-4.59l-.53-3.44q.63-2.01.13-4.79 1.12-5.08-.09-10.75l.04-15.46zm5.51 6.96l-.18-1.88q-.07-.67-.64-.32c-1.35.84-.87 2.67.19 2.81q.7.08.63-.61z"/><path fill="#ba800c" d="M143.5 69.46a.35.35 0 0 1-.7.03l-.47-4.3q-.1-.92.78-.63.83.27 1.09 1.06.15.48-.14.88-.55.75-.56 2.96zm-72.45.25q.07.69-.63.61c-1.06-.14-1.54-1.97-.19-2.81q.57-.35.64.32l.18 1.88z"/><path fill="#e6b24d" d="M81.33 69.49q1.26-.06 2.13 1.02.3.37.3.85l-.03 2.7q0 .83-.8.6-3.85-1.11-2.19-4.77.17-.38.59-.4zM65.5 78.21q1.21 5.67.09 10.75-10.89 3.16-21.33 7.77c-1.23.54-1.42 1.29-1.55 2.52q-6.22-2.95-12.89-4.64-.28-1.04-.02-2.23.11-.51.6-.7l35.1-13.47z"/><path fill="#ba800c" d="M112.47 102.51c-3.49-2.54-2.42-10.22-1.05-13.59 1.87-4.62 6.04-9.79 12.54-9.4q.44.02.81.28c8.98 6.37 3.06 18.33-3.7 23.66-2.01 1.58-4.05 1.27-6.44 1.18q-.51-.02-.78-.46c-.45-.73-.64-1.13-1.38-1.67zm12.4-16.25l.95-.66q.44-.3.16-.75-1.31-2.12-3.75-2.66-.65-.15-1.12.32l-.88.89q-.34.33-.81.29-3.14-.3-4.2 2.78-.28.83.54.51l6.29-2.5a1.5 1.5 0 0 1 1.98.93q.63 1.91-.47 3.68-.32.51-.02 1.04l.8 1.4q.42.74.97.08 1.08-1.31 1.21-2.99.04-.57-.47-.84l-1.12-.57q-.83-.43-.06-.95zm-3.5851 2.3486a1.72.75-23.7 0 0-1.8764.0047 1.72.75-23.7 0 0-1.2734 1.3781 1.72.75-23.7 0 0 1.8764-.0047 1.72.75-23.7 0 0 1.2734-1.3781zM114.75 91.75q-.05-1.89-.95-.23-1.23 2.26-1.16 4.78.02.68.7.7c1.95.09 1.44-3.76 1.41-5.25zm6.98 3.98l-.72-3.04q-.12-.5-.63-.44-1.52.16-2.31 1.5-.39.66.38.72l.56.04q.4.03.6.38c1.56 2.8-3.3 3.59-4.98 4.31q-3.46 1.49.12.6 1.68-.43 1.51 1.08-.1.78.69.71 3.18-.31 5.38-2.59c1.15-1.19.63-2.26 2.39-3.35q1.55-.96-.24-.66-.96.16-1.55.98-.86 1.19-1.2-.24z"/><path fill="#e7ac39" d="M124.93 87.21l1.12.57q.51.27.47.84-.13 1.68-1.21 2.99-.55.66-.97-.08l-.8-1.4q-.3-.53.02-1.04 1.1-1.77.47-3.68a1.5 1.5 0 0 0-1.98-.93l-6.29 2.5q-.82.32-.54-.51 1.06-3.08 4.2-2.78.47.04.81-.29l.88-.89q.47-.47 1.12-.32 2.44.54 3.75 2.66.28.45-.16.75l-.95.66q-.77.52.06.95z"/><ellipse fill="#e7ac39" rx="1.72" ry=".75" transform="rotate(-23.7 272.655 -240.616)"/><path fill="#efce8f" d="M65.59 88.96q.5 2.78-.13 4.79c-3.85.59-7.25 2.77-10.43 3.75q-2.69.83-5.35 1.8-.46.16-.47.64l-.17 5.31.16 1.94q.05.64-.56.46l-4.05-1.19a2.32 2.31-83.2 0 1-1.67-2.13l-.21-5.08c.13-1.23.32-1.98 1.55-2.52q10.44-4.61 21.33-7.77zM44.71 99.97a.55.55 0 0 0-.61.59l.26 3.64a.55.55 0 0 0 .36.48l2.33.89a.55.55 0 0 0 .74-.53l-.13-4.27a.55.55 0 0 0-.49-.53l-2.46-.27zm114.33-2.72q-2.62 2.17-5.92 2.66l-.01-7.26q0-.52.47-.73l4.67-1.99q.64-.28.66.42l.13 6.9z"/><path fill="#e7ac39" d="M114.75 91.75c.03 1.49.54 5.34-1.41 5.25q-.68-.02-.7-.7-.07-2.52 1.16-4.78.9-1.66.95.23zm8.18 4.22q.59-.82 1.55-.98 1.79-.3.24.66c-1.76 1.09-1.24 2.16-2.39 3.35q-2.2 2.28-5.38 2.59-.79.07-.69-.71.17-1.51-1.51-1.08-3.58.89-.12-.6c1.68-.72 6.54-1.51 4.98-4.31q-.2-.35-.6-.38l-.56-.04q-.77-.06-.38-.72.79-1.34 2.31-1.5.51-.06.63.44l.72 3.04q.34 1.43 1.2.24z"/><path fill="#e6b24d" d="M65.46 93.75l.53 3.44-.37 8.45q-.72.63-.36 2.79.16 1.01-.53.26l-1.48-1.59q-.37-.39-.87-.59l-11.85-4.57a.99.98-84.8 0 0-1.32 1.1q.22 1.16-.17 2.21l.17-5.31q.01-.48.47-.64 2.66-.97 5.35-1.8c3.18-.98 6.58-3.16 10.43-3.75z"/><path fill="#ce9320" d="M42.71 99.25l.21 5.08a2.32 2.31-83.2 0 0 1.67 2.13l4.05 1.19q.61.18.56-.46l-.16-1.94q.39-1.05.17-2.21a.99.98-84.8 0 1 1.32-1.1l11.85 4.57q.5.2.87.59l1.48 1.59q.69.75.53-.26-.36-2.16.36-2.79 5.58 5.26 13.36 6.5c-.1.44 4.77 2.24 5.47 2.72q.38.25.56-.16.09-.21.03-.45l.24.48q.19.37.58.52c3.3 1.3 6.53 3.03 9.79 4.09q2.38.77 4.83 1.56l.02 24.56q-.84-1.34-2.55-.85-.58.17-1.09-.13l-4.35-2.53q-.12-.08-.18.06-.05.12-.06.25-.07.62-.25.01l-.73-2.52c-.33-2.31-3.67-11.87-6.44-12.02q-.48-.02-.73-.44-.9-1.53-2.64-1.68-.49-.04-.47-.53.02-.61-.54-.75-.45-.11-.46.35-.01.19-.01.39-.01.56-.55.41-.26-.07-.45-.27c-2.72-2.76-5.46 4.12-7.43-1.06q-.18-.47-.68-.54l-3.78-.52q-.33-.05-.33.29l-.09 26.29q0 .65-.65.57c-3.11-.42-2.1-21.01-2-24.04q.02-.59-.56-.71-3.17-.71-5.82-2.52-.46-.32-1.02-.33-8.39-.18-15.84-3.76c-2.62-1.26-4.83-1.87-7.44-2.71q-.11-.04-.11.08 0 .16.01.32.02.33-.22.1l-.48-.48a.84.84 0 0 0-1.43.52c-.19 2.22-.43 12.83-.78 13.12q-.35.29-.37-.17l-.19-4.16.03-30.89q6.67 1.69 12.89 4.64z"/><path fill="#e7ac39" d="M172.21 96.25l.04 36.72c0 .73-.3 1.37-.54 2.03l-33.69 15.31-.1-41.3q-.01-.86.79-1.17l30.56-11.99q.47-.19.72-.63c.79-1.41 2.01.23 2.22 1.03zm-22.1719 38.1926a13.38 8.76 112.6 0 0 13.2292-8.9862 13.38 8.76 112.6 0 0-2.9454-15.719 13.38 8.76 112.6 0 0-13.2292 8.9862 13.38 8.76 112.6 0 0 2.9454 15.719z"/><path fill="#ba800c" d="M100.46 111.5l.02 9.4q-2.45-.79-4.83-1.56c-3.26-1.06-6.49-2.79-9.79-4.09q-.39-.15-.58-.52l-.24-.48.09-6.62q.01-.5-.44-.7l-5.18-2.41q-.52-.24-.52.33l-.01 7.29q-7.78-1.24-13.36-6.5l.37-8.45q7.54.73 14.01 4.59.51.3 1.09.22 1.95-.27 2.33 1.79.13.71.82.51 1.52-.42 2.4.56.37.41.88.56l9.24 2.8q.59.18.86.74l.28.59q.18.36.58.4 1.39.11 1.98 1.55z"/><path fill="#caa277" d="M159.04 97.25l.96.79q-4.58 2.36-9.41 4.15c-3.48 1.29-8.42 3.83-13.04 4.8q-.84.18-.2-.38.52-.46.69-.37 7.9-2.32 15.08-6.33 3.3-.49 5.92-2.66z"/><path fill="#e6b24d" d="M44.71 99.97l2.46.27a.55.55 0 0 1 .49.53l.13 4.27a.55.55 0 0 1-.74.53l-2.33-.89a.55.55 0 0 1-.36-.48l-.26-3.64a.55.55 0 0 1 .61-.59z"/><path fill="#efce8f" d="M85.04 114.25q.06.24-.03.45-.18.41-.56.16c-.7-.48-5.57-2.28-5.47-2.72l.01-7.29q0-.57.52-.33l5.18 2.41q.45.2.44.7l-.09 6.62zm-1.15-3.06q1.15-4.38-3.1-4.62-.54-.03-.54.51c0 1.11-.4 6.7 2.37 5.56q1-.41 1.27-1.45z"/><path fill="#ce9320" d="M83.89 111.19q-.27 1.04-1.27 1.45c-2.77 1.14-2.37-4.45-2.37-5.56q0-.54.54-.51 4.25.24 3.1 4.62z"/><path fill="#ba800c" d="M150.0381 134.4426a13.38 8.76 112.6 0 1-2.9454-15.719 13.38 8.76 112.6 0 1 13.2292-8.9862 13.38 8.76 112.6 0 1 2.9454 15.719 13.38 8.76 112.6 0 1-13.2292 8.9862zM160.18 115.71a1.59 1.59 0 0 1-.08 1.98q-1.97 2.29.52 4.13.56.41.75-.26l.78-2.68q.18-.62-.31-1.05-1.01-.91-.2-1.81.38-.43.14-.95c-2.62-5.54-8.72-1.73-11.27 1.31a.38.38 0 0 0 .45.59c2.28-1.05 7.26-3.94 9.22-1.26zm-4.31 2.4q-1.81.05-2.49 1.76a.58.58 0 0 0 .88.68l1.95-1.4a.58.57-63.4 0 0-.34-1.04zm-6.66 3.6q-1.81 1.96-1.29 4.58.14.68.81.5c1.79-.49 1.98-3.78 1.09-5.04q-.28-.4-.61-.04zm5.73 5.39l-3.95 2.4q-.25.16-.05.38c3.09 3.36 6.65-.47 9.55-1.99q.76-.39-.01-.77-.31-.15-.64-.15-.38 0-.71-.18-2.22-1.24-2.79-3.71-.14-.62-.77-.58-1.18.06-1.77.88-.32.45.2.62 1.47.49 1.48 2.14 0 .63-.54.96zm5.45-2.33l-.74.45q-.59.36 0 .71l.48.28a.47.46-70.6 0 0 .7-.34l.1-.75a.36.36 0 0 0-.54-.35z"/><path fill="#e7ac39" d="M135.53 151.56l-12.24 5.69q-.51-3.12.11-6.32a.79.79 0 0 0-1.13-.85l-4.76 2.42q-.49.25-.51.8l-.25 7.41-15.34 7.14q-.58.27-.95-.25l-.25-.35.33-5q.4.45 1.05.34.32-.05.31-.36l-.36-38.04a1.56 1.56 0 0 1 .97-1.46l13.34-5.46a.86.86 0 0 1 1.18.83l-.2 5.19q-.03 1.02.78.41 2.11-1.58 4.71-1.97.57-.09.61-.67l.36-5.83q.04-.63.63-.86c3.94-1.54 8.11-4.07 10.9-4.12q.68-.01.66.67c-.39 13.56.05 27.03.05 40.64zm-4.36-36.55l-.22 1.6q-.13.98.73.49c.93-.53 2.21-2.6.06-2.59q-.5 0-.57.5zm-23.93 10.62q-1.24.98-.8 2.15.25.65.74.16.88-.9.75-2.02-.09-.76-.69-.29zm52.94-9.92c-1.96-2.68-6.94.21-9.22 1.26a.38.38 0 0 1-.45-.59c2.55-3.04 8.65-6.85 11.27-1.31q.24.52-.14.95-.81.9.2 1.81.49.43.31 1.05l-.78 2.68q-.19.67-.75.26-2.49-1.84-.52-4.13a1.59 1.59 0 0 0 .08-1.98z"/><path fill="#caa277" d="M121.7 113.39c-2.37 1.96-5.44 2.38-7.88 3.59q-2.76 1.37-5.76 2.11-.49.12-.86.46-2.31 2.16-5.2 1.41l19.7-7.57z"/><path fill="#ba800c" d="M131.74 114.51c2.15-.01.87 2.06-.06 2.59q-.86.49-.73-.49l.22-1.6q.07-.5.57-.5zM79 125.21q-2.38-.07-4.4 1.68-.37.32-.49.8-3.17 12.62 5.94 20.79c3.26 2.92 8.04 4.19 10.58-.24 1.35-2.37.95-5.75.66-8.49l.73 2.52q.18.61.25-.01.01-.13.06-.25.06-.14.18-.06l4.35 2.53q.51.3 1.09.13 1.71-.49 2.55.85l.04 16.79-.33 5-51.03-23.39.03-7.24q0-.51-.46-.71l-5.29-2.31q-.48-.22-.49.31l-.08 6.71L30.04 135l-.26-5.61.01-3.89.19 4.16q.02.46.37.17c.35-.29.59-10.9.78-13.12a.84.84 0 0 1 1.43-.52l.48.48q.24.23.22-.1-.01-.16-.01-.32 0-.12.11-.08c2.61.84 4.82 1.45 7.44 2.71q7.45 3.58 15.84 3.76.56.01 1.02.33 2.65 1.81 5.82 2.52.58.12.56.71c-.1 3.03-1.11 23.62 2 24.04q.65.08.65-.57l.09-26.29q0-.34.33-.29l3.78.52q.5.07.68.54c1.97 5.18 4.71-1.7 7.43 1.06z"/><path fill="#e7ac39" d="M155.87 118.11a.58.57-63.4 0 1 .34 1.04l-1.95 1.4a.58.58 0 0 1-.88-.68q.68-1.71 2.49-1.76zm-6.05 3.64c.89 1.26.7 4.55-1.09 5.04q-.67.18-.81-.5-.52-2.62 1.29-4.58.33-.36.61.04zm5.66 4.39q-.01-1.65-1.48-2.14-.52-.17-.2-.62.59-.82 1.77-.88.63-.04.77.58.57 2.47 2.79 3.71.33.18.71.18.33 0 .64.15.77.38.01.77c-2.9 1.52-6.46 5.35-9.55 1.99q-.2-.22.05-.38l3.95-2.4q.54-.33.54-.96z"/><path fill="#91650f" d="M91.29 139.75c.29 2.74.69 6.12-.66 8.49-2.54 4.43-7.32 3.16-10.58.24q-9.11-8.17-5.94-20.79.12-.48.49-.8 2.02-1.75 4.4-1.68.19.2.45.27.54.15.55-.41 0-.2.01-.39.01-.46.46-.35.56.14.54.75-.02.49.47.53 1.74.15 2.64 1.68.25.42.73.44c2.77.15 6.11 9.71 6.44 12.02zm-9.85-10.69l-.4-.86q-.16-.35-.54-.44-1.57-.34-2.88.73-.56.45.11.73c4.49 1.85 11 3.74 8.76 9.05q-.2.47-.08.97l.66 2.74a1.02 1.01 56.6 0 0 1.8.37q1.8-2.42-.71-3.93a.81.81 0 0 1-.05-1.35c1.81-1.27-2.86-7.68-5.84-7.51q-.58.03-.83-.5zm-5.8 3.67c-.45 1.17-.77 5.13 1.32 4.7q.46-.1.48-.57l.18-4.33q.02-.45-.38-.67l-1.45-.79q-.52-.28-.55.31-.01.26.16.4.45.39.24.95zm5.15 1.58q.91 1.41 2.48 2.01 1.28.49.58-.69-.88-1.5-2.72-1.83-.76-.14-.34.51zm1.21 8.35q-2.65-.54-4.62-2.35a.45.45 0 0 0-.72.5q.48 1.15 1.61 1.51.54.17.29.68c-.93 1.9 4.48 4.26 5.42 4.6q.56.2 1-.22l1.48-1.43q.33-.31-.07-.52c-3.97-2.13-1.28-6.73-5.17-7.48q-1.55-.31-.34.7 1.59 1.33 1.83 3.36.1.82-.71.65z"/><path fill="#ce9320" d="M160.39 124.77a.36.36 0 0 1 .54.35l-.1.75a.47.46-70.6 0 1-.7.34l-.48-.28q-.59-.35 0-.71l.74-.45z"/><path fill="#ba800c" d="M107.93 125.92q.13 1.12-.75 2.02-.49.49-.74-.16-.44-1.17.8-2.15.6-.47.69.29z"/><path fill="#ce9320" d="M82.27 129.56c2.98-.17 7.65 6.24 5.84 7.51a.81.81 0 0 0 .05 1.35q2.51 1.51.71 3.93a1.02 1.01 56.6 0 1-1.8-.37l-.66-2.74q-.12-.5.08-.97c2.24-5.31-4.27-7.2-8.76-9.05q-.67-.28-.11-.73 1.31-1.07 2.88-.73.38.09.54.44l.4.86q.25.53.83.5z"/><path fill="#010001" fill-opacity=".094" d="M29.78 129.39l.26 5.61c-.48 1.79-3.15.43-2.5 2.5l.46 1.04.09 6.74q.21 2.01 2.16 2.18-.05.27.26.55.53.49-.19.49h-.64q-.43 0-.17.34c2.16 2.85 4.48 3.45 7.51 5.01q.47.24.77.67 1.48 2.11 4.13 1.94.47-.03.61.42.67 2.11 2.68 2.68 2.83.81.02.2-.76-.17-1.15.35-.34.46.23.41l3.27-.32q.81-.07.39.63l-.15.25q-.23.39.18.57 1.14.47 1.65 1.55.19.4.54.67l1.73 1.36q.44.35.65.86.36.9 1.38 1.21.55.17-.09.32-.24.05-.38.18-.47.41.16.46 1.44.11 2.58.95-4.71-1.6-9.51-2.86c-1.8-.47-4.14-2.11-6.32-2.49-4.68-.81-9.43-2.69-13.9-4.29q-.23-.08-.24-.32v-.27q0-.26-.25-.29c-1.79-.24-9.54-2.24-8.15-4.79q.23-.44.18-.93-.29-2.69.73-5.18.06-.15-.06-.04-.2.17-.41.04-.19-.12.01-.22.14-.08.3-.08.39-.01.39-.4.05-5.61-.09-11.21-.01-.07-.07-.1-.12-.05-.29-.05-.1 0-.07-.1.29-1.08.65-2.11.19-.55.72-.81l6.74-3.34q.53-.27 1.05.01 1.18.62 2.15.01z"/><path fill="#ce9320" d="M75.4 131.78q-.17-.14-.16-.4.03-.59.55-.31l1.45.79q.4.22.38.67l-.18 4.33q-.02.47-.48.57c-2.09.43-1.77-3.53-1.32-4.7q.21-.56-.24-.95zm-26.22 12.08q-3.45-1.13-6.29-3.24l.08-6.71q.01-.53.49-.31l5.29 2.31q.46.2.46.71l-.03 7.24zm31.95-10.06q1.84.33 2.72 1.83.7 1.18-.58.69-1.57-.6-2.48-2.01-.42-.65.34-.51z"/><path fill="#826341" d="M30.04 135l12.85 5.62q2.84 2.11 6.29 3.24l51.03 23.39.25.35q.37.52.95.25l15.34-7.14 6.54-3.46 12.24-5.69q2.18-.75 2.49-1.25L171.71 135l.29.71c-3.45 2.2-8.01 3.81-10.86 5.23-12.44 6.16-26.76 12.43-37.7 17.63q-10.31 4.9-20.66 9.78-.45.21-.94.15l-6.89-.84q-23.26-10.08-38.18-17.45-4.61-2.28-7.99-3.76c-7.26-3.18-13.02-6.03-19.57-8.96q-.43-.2-.89-.12l-.78.13c-.65-2.07 2.02-.71 2.5-2.5z"/><path fill="#caa277" d="M172 135.71q1.7-.18 2.25 1.25-15.49 6.6-30.67 13.9c-14.07 6.76-28.39 12.87-42.33 19.93q-3.33-1.05-6.3-3.13l6.89.84q.49.06.94-.15 10.35-4.88 20.66-9.78c10.94-5.2 25.26-11.47 37.7-17.63 2.85-1.42 7.41-3.03 10.86-5.23z"/><path fill="#826341" d="M174.25 136.96l-.04 1.29-8.52 4.25q-3.74.91-6.94 3.29-8.19 3.07-15.9 7.26l-8.23 4.01q-3.39 1.3-6.66 2.97c-6.08 3.09-12.37 5.17-18.31 8.56l-8.36 3.41-.04-1.21c13.94-7.06 28.26-13.17 42.33-19.93q15.18-7.3 30.67-13.9z"/><path fill="#584530" d="M94.95 167.66q2.97 2.08 6.3 3.13l.04 1.21q-.04.13-.08.25l-11.42-4.75-9.28-4.64q-.46-.23-.95-.1c-3.78.96-8.24 5.11-11.81 3.78q-5.68-2.42-10.08-6.49 6.27 1.81 11.52 5.12.46.28.92.02l6.05-3.4q.59-.33 0-.66-8.79-4.96-18.2-8.38-1.85-2-4.57-2.44-.47-.08-.87-.33l-3.29-2.09q-.47-.3-.98-.04L39.98 152q-.4.2-.79 0l-8.94-4.54q-1.95-.17-2.16-2.18 6.07 2.02 11.59 5.2.46.27.9-.03l5.15-3.5q.43-.29-.04-.51c-5.54-2.48-11.87-6.71-17.69-7.9l-.46-1.04.78-.13q.46-.08.89.12c6.55 2.93 12.31 5.78 19.57 8.96q3.38 1.48 7.99 3.76 14.92 7.37 38.18 17.45z"/><path fill="#ba800c" d="M82.71 142.01q-.24-2.03-1.83-3.36-1.21-1.01.34-.7c3.89.75 1.2 5.35 5.17 7.48q.4.21.07.52l-1.48 1.43q-.44.42-1 .22c-.94-.34-6.35-2.7-5.42-4.6q.25-.51-.29-.68-1.13-.36-1.61-1.51a.45.45 0 0 1 .72-.5q1.97 1.81 4.62 2.35.81.17.71-.65z"/><path fill="#caa277" d="M174.21 138.25l.15 6.88-8.53 3.77-.14-6.4 8.52-4.25z"/><path fill="#826341" d="M28 138.54c5.82 1.19 12.15 5.42 17.69 7.9q.47.22.04.51l-5.15 3.5q-.44.3-.9.03-5.52-3.18-11.59-5.2l-.09-6.74z"/><path fill="#584530" d="M165.69 142.5l.14 6.4q-.32.8-1.14.53l-5.94-3.64q3.2-2.38 6.94-3.29z"/><path fill="#826341" d="M174.36 145.13q.27.56.13 1.44-.08.47-.51.69-24.2 12.17-33.72 16.57-2.53 1.17-3.62 1.97-.39.29-.86.41c-2.5.67-4.73 2.39-6.61 3.21-2.95 1.29-5.21 2.25-8.4 4.11-1.58.91-3.35 1.24-4.9 2.21-3.35 2.09-6.82 3.18-10.47 5.31q-2.17 1.26-4.69 1.7.61-1.07.29-2.21l8.79-4.54q12.15-5.17 23.79-11.37c.47-.25.79-.72 1.13-1.13l.2.19q.38.37.84.11c1.33-.77 7.08-3.21 7.29-4.3l.86.15q.47.09.9-.14c6.54-3.54 13.55-6.12 19.89-10.08q.82.27 1.14-.53l8.53-3.77z"/><path fill="#78532a" d="M158.75 145.79l5.94 3.64c-6.34 3.96-13.35 6.54-19.89 10.08q-.43.23-.9.14l-.86-.15q.5-2.91-.19-6.45 7.71-4.19 15.9-7.26z"/><path fill-opacity=".294" d="M30.25 147.46l8.94 4.54q.39.2.79 0l8.27-4.15q.51-.26.98.04l3.29 2.09q.4.25.87.33 2.72.44 4.57 2.44l-.29 7.3q4.4 4.07 10.08 6.49.82 1.53 2.52 1.19.46-.1.7.31l.61 1.05q.25.42.74.44 1.3.07 1.89 1.13.25.46.72.69c1.05.51 5 3.18 6.02 3.15q.49-.01.9.27l3.12 2.12q.4.27.28.73-.06.22-.25.42c-4.38-.97-8.13-2.58-12.83-3.89-2.68-.75-5.15-2.19-7.77-2.78q-4.1-.93-8.18-2.16-1.14-.84-2.58-.95-.63-.05-.16-.46.14-.13.38-.18.64-.15.09-.32-1.02-.31-1.38-1.21-.21-.51-.65-.86l-1.73-1.36q-.35-.27-.54-.67-.51-1.08-1.65-1.55-.41-.18-.18-.57l.15-.25q.42-.7-.39-.63l-3.27.32q-.57.05-.23-.41.39-.52 1.15-.35 2.81.61-.02-.2-2.01-.57-2.68-2.68-.14-.45-.61-.42-2.65.17-4.13-1.94-.3-.43-.77-.67c-3.03-1.56-5.35-2.16-7.51-5.01q-.26-.34.17-.34h.64q.72 0 .19-.49-.31-.28-.26-.55z"/><path fill="#efce8f" d="M123.29 157.25l-6.54 3.46.25-7.41q.02-.55.51-.8l4.76-2.42a.79.79 0 0 1 1.13.85q-.62 3.2-.11 6.32z"/><path fill="#826341" d="M57.67 160.05l.29-7.3q9.41 3.42 18.2 8.38.59.33 0 .66l-6.05 3.4q-.46.26-.92-.02-5.25-3.31-11.52-5.12z"/><path fill="#caa277" d="M142.85 153.05q.69 3.54.19 6.45c-.21 1.09-5.96 3.53-7.29 4.3q-.46.26-.84-.11l-.2-.19-.09-6.44 8.23-4.01z"/><path fill="#78532a" d="M134.62 157.06l.09 6.44c-.34.41-.66.88-1.13 1.13q-11.64 6.2-23.79 11.37l-.14-7.41c5.94-3.39 12.23-5.47 18.31-8.56q3.27-1.67 6.66-2.97z"/><path fill-opacity=".416" d="M89.79 167.5v7.5q-.49 1.89.96 2.96l-.62.06q-.36.04-.38.4v.34q0 .07-.07.08-2.45.13-4.68-.8.19-.2.25-.42.12-.46-.28-.73l-3.12-2.12q-.41-.28-.9-.27c-1.02.03-4.97-2.64-6.02-3.15q-.47-.23-.72-.69-.59-1.06-1.89-1.13-.49-.02-.74-.44l-.61-1.05q-.24-.41-.7-.31-1.7.34-2.52-1.19c3.57 1.33 8.03-2.82 11.81-3.78q.49-.13.95.1l9.28 4.64z"/><path fill="#826341" d="M89.79 167.5l11.42 4.75-.5 7.75-10.92-5v-7.5z"/><path fill="#caa277" d="M109.65 168.59l.14 7.41-8.79 4.54-.29-.54.5-7.75q.04-.12.08-.25l8.36-3.41z"/><path fill="#584530" d="M89.79 175l10.92 5 .29.54q.32 1.14-.29 2.21c-2.38-.39-3.78-2.05-5.7-2.83q-2.17-.89-4.26-1.96-1.45-1.07-.96-2.96z"/></svg>