<?xml version="1.0" encoding="utf-8"?>
<!-- Generator: Adobe Illustrator 21.1.0, SVG Export Plug-In . SVG Version: 6.00 Build 0)  -->
<svg version="1.1" id="Layer_1" xmlns="http://www.w3.org/2000/svg" xmlns:xlink="http://www.w3.org/1999/xlink" x="0px" y="0px"
	 viewBox="0 0 925.8 523.8" style="enable-background:new 0 0 925.8 523.8;" xml:space="preserve">
<style type="text/css">
	.st0{fill:#6A6A6A;}
	.st1{fill:#3992CF;}
	.st2{fill:#FEFEFE;}
	.st3{fill:#25569B;}
	.st4{fill:#154991;}
	.st5{fill:#24559B;}
	.st6{fill:#3B5DA4;}
	.st7{fill:#44619F;}
	.st8{fill:#3F5FA1;}
	.st9{fill:#3160A2;}
	.st10{fill:#1F5198;}
	.st11{fill:#3563A2;}
	.st12{fill:#205298;}
	.st13{fill:#295A9F;}
	.st14{fill:#3260A1;}
	.st15{fill:#2D5D9F;}
	.st16{fill:#2F5EA1;}
	.st17{fill:#315FA0;}
	.st18{fill:#29599D;}
	.st19{fill:#6587B7;}
	.st20{fill:#255599;}
	.st21{fill:#3A67A5;}
	.st22{fill:#2C58A0;}
	.st23{fill:#3E69A5;}
	.st24{fill:#416BA6;}
	.st25{fill:#6C8CBA;}
	.st26{fill:#406AA6;}
	.st27{fill:#6789B8;}
	.st28{fill:#7D9AC2;}
	.st29{fill:#416BA7;}
	.st30{fill:#4770A9;}
	.st31{fill:#4972AA;}
	.st32{fill:#4A72AB;}
	.st33{fill:#325F9F;}
	.st34{fill:#9FB4D2;}
	.st35{fill:#5976AF;}
	.st36{fill:#7594BE;}
	.st37{fill:#6F8FBB;}
	.st38{fill:#235498;}
	.st39{fill:#6D8DBA;}
	.st40{fill:#4A73AB;}
	.st41{fill:#8DA6C9;}
	.st42{fill:#FBFCFC;}
	.st43{fill:#FBFBFC;}
	.st44{fill:#FCFCFD;}
	.st45{fill:#FDFDFD;}
	.st46{fill:#3D5CA1;}
	.st47{fill:#4561A2;}
	.st48{fill:#4162A4;}
	.st49{fill:#3E5DA3;}
	.st50{fill:#F7F9FB;}
	.st51{fill:#34569F;}
	.st52{fill:#EAEEF5;}
	.st53{fill:#FDFDFE;}
	.st54{fill:#164391;}
	.st55{fill:#889FC7;}
	.st56{fill:#183690;}
</style>
<g>
	<g>
		<g>
			<path class="st56" d="M57.8,441.8c0.3,2.1,0.5,4.2,0.5,6.5c0,0.4,0,1,0,1.8c-0.4,0.1-0.7,0.1-0.9,0.1c-0.2,0-0.4,0-0.7-0.1
				c-1.1-3.2-3-5.6-5.6-7.4c-2.6-1.7-5.8-2.6-9.6-2.6c-2,0-3.7,0.2-5.1,0.7c-2.5,0.8-4.6,2-6.5,3.5c-1.9,1.5-3.4,3.3-4.7,5.3
				c-1.3,2.1-2.3,4.5-3,7.5c-0.7,2.9-1.1,5.9-1.1,9c0,5.8,0.9,10.6,2.7,14.4c1.8,3.8,4.2,6.5,7.3,8.1c3.1,1.6,6.2,2.4,9.3,2.4l1.9,0
				c2.2-0.3,3.7-0.5,4.5-0.8c2-0.6,3.6-1.2,4.9-2c1.3-0.8,2.6-1.9,3.8-3.3c1.2-1.4,2.3-3.1,3.2-4.9l0.5-0.2c0.1,0,0.3,0.1,0.6,0.2
				c0,0.7-0.1,1.1-0.1,1.3c-1.1,4.6-2,7.8-2.5,9.4c-0.4,0.1-1,0.3-1.6,0.5c-3.2,1.1-7.4,1.6-12.8,1.6c-4.3,0-7.5-0.3-9.7-0.9
				c-2.1-0.6-4.5-1.5-7-2.7c-2.5-1.2-4.7-2.9-6.6-4.9c-1.9-2-3.4-4.6-4.6-7.7c-1.2-3.1-1.8-6.5-1.8-10.2c0-3.5,0.5-6.5,1.4-9.1
				c0.9-2.6,2.4-5.2,4.3-7.9c1.9-2.7,4.2-4.9,6.8-6.7c2.6-1.8,5.5-3,8.8-3.8c2.3-0.5,5.5-0.7,9.6-0.7c3,0,5.9,0.4,8.5,1.2
				C55.1,440.2,56.9,441,57.8,441.8z"/>
			<path class="st56" d="M69.8,490.5c4-0.5,6.2-0.8,6.7-1c0.4-0.1,0.7-0.5,1-1.2v-0.4c0-0.7,0.1-3.1,0.3-7.4
				c0.1-1.2,0.1-2.4,0.1-3.5l-0.1-4.9l0.1-5.5l0-10.2l0-7.3c0-3.1-0.2-5-0.7-5.7c-0.5-0.7-1.8-1.2-3.9-1.4c-2.1-0.3-3.3-0.5-3.5-0.6
				c-0.2-0.1-0.3-0.4-0.3-0.7c0-0.2,0-0.4,0.1-0.7c0.3-0.2,0.9-0.4,1.9-0.4c0.1,0,0.5,0,1.1-0.1c0.6-0.1,1.2-0.1,1.7-0.1h3.4
				l10.7-0.1c6.1,0,10.3,0.4,12.8,1.3c2.4,0.9,4.4,2.4,5.8,4.6c1.4,2.1,2.2,4.5,2.2,7.2c0,5-2.6,8.8-7.9,11.5
				c-0.9,0.5-1.6,0.9-2.1,1.2c0.9,2,2.2,4.3,3.9,7.1l5.2,8.9c2.1,3.3,3.5,5.3,4.3,6.2c0.8,0.8,1.7,1.5,2.9,2.1
				c1.1,0.5,3,1.1,5.7,1.6c0,0.3,0,0.5,0,0.7s0,0.4,0,0.6c-3.7,0.1-8.1,0.1-13.1,0.1c-0.4,0-0.8,0-1.5-0.1
				c-1.9-3.7-4.2-7.8-6.8-12.2l-6-11c-0.8-1.1-1.5-1.9-2-2.1c-0.5-0.3-1.2-0.4-2.1-0.4l-3.5,0l-1.1,0c-0.1,0.9-0.1,2.7-0.1,5.4v14
				c0,0.5,0.1,1.2,0.3,2.2c0.2,0.5,0.6,0.9,1.1,1.2c0.5,0.3,2.1,0.8,4.6,1.4l1.7,0.4c0.2,0.3,0.3,0.6,0.3,1.1
				c-0.7,0.1-1.3,0.2-1.6,0.2c-2.4,0-4.2,0-5.2-0.1c-0.5,0-0.9,0-1.3,0l-5.5,0.1l-5.4,0c-0.2,0-1.5,0-3.7,0.1l-0.8-0.2l-0.1-0.4
				C69.2,491.1,69.4,490.8,69.8,490.5z M84.9,463.8c0.7,0,1.3,0,1.6,0c2,0,4.2-0.2,6.8-0.7c1.8-0.4,3.3-0.9,4.4-1.7
				c1.1-0.8,2-2,2.8-3.6c0.7-1.6,1.1-3.2,1.1-4.9c0-1.8-0.6-3.8-1.8-5.9c-0.9-1.6-2.4-2.9-4.6-4c-2.1-1.1-4.7-1.6-7.7-1.6
				c-0.7,0-1.7,0-2.9,0.1c-0.1,1.4-0.2,2.5-0.2,3.3l0.2,7.6l0,3.1C84.8,457.8,84.8,460.5,84.9,463.8z"/>
			<path class="st56" d="M126,491.1c0.3-0.2,0.5-0.4,0.7-0.4c0.5-0.1,1.3-0.2,2.4-0.3c2.6-0.2,4.3-0.4,4.9-0.7
				c0.4-0.5,0.6-1.3,0.6-2.3l0-2.9l0-10.4l-0.1-4.9l0-10.3l-0.2-11.7c0-2.8-0.2-4.4-0.5-4.7c-0.5-0.5-1.9-0.8-4.4-0.9
				c-1,0-1.9-0.1-2.7-0.2c-0.4-0.2-0.5-0.4-0.5-0.7c0-0.2,0.1-0.5,0.2-0.8c0.2-0.1,0.5-0.2,0.7-0.2c0.4,0,0.8,0,1.4,0
				c1.6,0.2,3.3,0.2,5,0.2l3-0.1l7.2,0.2c3.6,0,6.4,0,8.4-0.1c2-0.1,3.4-0.1,4.1-0.1c0.6,0,2.2,0.1,4.7,0.2l5.8,0l0.7,0.1l3.4-0.1
				l0.4,0.2c0.1,0.2,0.2,0.4,0.3,0.7c0,0.4-0.1,1-0.2,1.8c-0.1,0.8-0.2,1.3-0.2,1.5c0,2.8,0.1,5.2,0.3,7.2c0,0.2-0.1,0.3-0.2,0.3
				c-0.3,0-0.6,0-0.8-0.1c-0.3-0.5-0.7-1.4-1.2-2.7c-0.5-1.3-1.3-2.8-2.3-4.5c-0.7-1.1-1.2-1.8-1.6-2c-0.4-0.2-1.2-0.3-2.4-0.3
				c-0.2,0-1.5,0-3.7-0.1c-0.6,0-1.2,0-1.8,0l-11.7,0.2h-1c-1.5,0-2.4,0.2-2.7,0.6c-0.5,0.7-0.7,2.6-0.7,5.8c0,0.3,0.1,3.6,0.2,9.8
				v5.7c0.3,0.1,0.6,0.1,1,0.1h0.7c0.5,0,1.1,0,2,0c1.4,0.1,2.4,0.1,2.9,0.1c0.3,0,0.6,0,0.9,0c2.9-0.1,6.7-0.2,11.4-0.2
				c1.4-0.2,2.3-0.5,2.5-0.9c0.4-0.5,0.7-1.8,0.9-3.8c0.2-2.1,0.7-3.2,1.4-3.5c0.4,0,0.7,0.1,1,0.2c0.1,0.2,0.1,0.4,0.1,0.6
				c0,0.2,0,0.5-0.1,0.9c-0.1,1-0.2,4.2-0.2,9.5c0,1.4,0.1,3,0.2,4.7c0.1,1.7,0.2,2.7,0.2,2.8c0,0.2,0,0.6-0.1,1
				c-0.2,0.1-0.4,0.2-0.5,0.2h-0.3c-0.4-0.8-0.9-1.9-1.3-3.6c-0.7-2.8-1.5-4.5-2.2-5.2c-0.8-0.7-2-1-3.8-1c-0.4,0-1.1,0-2.1,0.1
				c-1,0-2.5,0.1-4.5,0.1h-2.7c-3.8,0-6.3,0.1-7.4,0.2l0,1.3l0,7.5l0,4.7l0,4.6c0,2.8,0.2,4.4,0.5,4.8c0.5,0.6,1.5,0.9,3,0.9l2.5,0
				c0.2,0,1.1,0,2.6,0.1c1.5,0,3.3,0.1,5.5,0.1c5.3,0,8.8-0.2,10.5-0.7c1.7-0.5,3.2-1.2,4.3-2.4c1.1-1.1,2.6-3.6,4.3-7.4
				c0.5-1.1,1-1.7,1.6-1.7c0.2,0,0.5,0.1,0.8,0.3c-0.8,2.7-1.2,4.5-1.3,5.3c-0.3,1.9-0.5,3.9-0.5,5.8c0,0.9-0.2,1.6-0.7,2.2h-0.9
				l-11.5,0.1l-5.1,0l-12.3,0.2h-5c-0.6,0-1.2,0-1.8,0c-4.9,0.2-8.5,0.3-10.8,0.3c-0.4,0-0.7-0.1-0.8-0.2c-0.2-0.1-0.2-0.3-0.2-0.6
				L126,491.1z"/>
			<path class="st56" d="M184,490.5c0.4-0.2,0.7-0.3,1-0.3h0.9c0.2,0,0.5,0,1,0c2.1-0.2,3.3-0.4,3.7-0.6c1-0.5,1.8-1.4,2.5-2.7
				c1.4-2.8,3-6.7,4.8-11.8c0.8-2.4,1.4-3.9,1.6-4.4c0.7-1.6,1.3-3.4,2-5.1l3.8-10.7c0.6-1.7,2-5.6,4.3-11.6
				c0.6-1.5,1.3-3.6,2.1-6.1l1.2-0.1l1.4,0c1.2,2.3,2.2,4.8,3.1,7.5c0.5,1.4,1.3,3.5,2.4,6.3l6.2,16.8l3.3,9.1
				c1.7,5.2,2.9,8.4,3.4,9.5c0.5,1.2,1,2,1.5,2.4c0.1,0.1,0.6,0.3,1.5,0.5c0.9,0.2,1.5,0.4,1.9,0.5c1.3,0.4,2.1,0.7,2.6,0.9
				c0.1,0.3,0.2,0.5,0.2,0.7c0,0.1,0,0.3-0.1,0.6c-0.9,0-1.5,0-1.8,0c-1.4,0-3.8,0-7.4-0.1l-4.1-0.1l-4.9,0.1c-0.3,0-0.7,0-1,0
				c-0.3,0-0.6,0-0.9,0h-0.9c-0.3,0-0.6-0.1-0.8-0.2c0-0.4,0.1-0.7,0.2-1.1c0.3-0.2,0.6-0.3,0.9-0.3l4.3-0.3c1.1-0.1,2-0.2,2.5-0.5
				c0.2-0.5,0.2-0.9,0.2-1.1c0-0.5-0.4-1.8-1.1-3.8c-0.5-1.4-0.9-2.7-1.3-3.9c-0.4-1.2-1.8-5.3-4.3-12.1c-1.1-0.2-2.1-0.3-2.9-0.3
				l-8.7,0.1l-2.6,0c-0.9,0-1.9,0.1-3.1,0.2c-0.4,0.8-0.6,1.4-0.7,1.8l-3.6,11.2c-1.5,4.3-2.3,6.6-2.3,7.1c0,0.2,0.1,0.7,0.4,1.2
				c0.6,0.2,1.3,0.3,2.3,0.4l5.6,0.5c0.3,0.2,0.4,0.5,0.4,0.7c0,0.1,0,0.3-0.1,0.6c-1.2,0-2.2,0-2.8,0c-2.2,0-4.7-0.1-7.6-0.2
				c-1.3-0.1-2.3-0.1-2.9-0.1c-0.6,0-1.6,0-3,0.1c-0.9,0.1-1.6,0.1-2,0.1c-0.7,0-1.5,0-2.5-0.1v-0.2
				C183.9,491,183.9,490.8,184,490.5z M203.5,465.9c2.9,0.2,6.2,0.2,10,0.2c2.1,0,4-0.1,5.6-0.2c-0.3-1.1-0.6-2.1-0.9-3
				c-1.8-4.7-2.7-7.4-2.9-7.8l-3.7-9.4l-0.4-0.7c-0.2,0.3-0.8,1.7-1.8,4.2c-1.7,4.2-3,7.6-3.8,9.9c-0.4,1.1-0.7,2.1-1.1,3.2
				c-0.4,1-0.6,1.8-0.7,2.2c-0.1,0.4-0.2,0.9-0.4,1.3L203.5,465.9z"/>
			<path class="st56" d="M246.8,445.6l1.7-6.2c0.1-0.8,0.3-1.3,0.5-1.6c0.2-0.2,0.4-0.3,0.7-0.3c0.5,0,1,0.6,1.7,1.8
				c0.5,0.8,0.8,1.4,1.1,1.6c0.3,0.2,0.7,0.4,1.3,0.5l0.4,0l1.8,0.2l9.6,0.1l11.4,0h3.4l6.3-0.1c0.3,0,0.6,0,1,0.1
				c1.9,0.2,3,0.2,3.4,0.2c0.4,0,0.7-0.1,1-0.4c0.1-0.1,0.5-1,1.3-2.7c0.4-0.8,0.8-1.2,1.3-1.2c0.2,0,0.5,0.1,0.8,0.2
				c0.1,0.5,0.2,1,0.2,1.5l0,1.6l0,3.4c0,0.8-0.1,3.5-0.2,8.1c0,0.3-0.1,0.6-0.2,0.8c-0.3,0.2-0.6,0.3-0.8,0.3
				c-0.2,0-0.4-0.1-0.6-0.3c-0.2-0.2-0.4-0.8-0.6-1.9c-0.5-2.4-1.2-4.2-2-5.2c-0.5-0.7-1.3-1.2-2.3-1.5c-1-0.3-3.5-0.4-7.3-0.4
				c-3.1,0-5.4,0-6.9,0c-0.1,1.1-0.1,2.1-0.1,3l0.3,25.4c0,1-0.1,2.9-0.2,5.7l0,5.4l0,3c0,1,0.2,1.6,0.5,2c0.3,0.4,1.2,0.8,2.7,1.2
				c2.5,0.6,4.2,1,5,1.1c0.5,0.1,0.9,0.2,1.3,0.3v1.2l-5.8-0.1c-3.2,0-5.6-0.1-7.2-0.2l-6,0.3l-4.4,0.2c-1.2,0-2,0-2.2-0.1l-0.6-0.2
				c0.1-0.6,0.2-1,0.4-1.2c0.2-0.2,0.7-0.3,1.5-0.4c1.1-0.2,2.5-0.5,4-0.9c1.6-0.4,2.6-0.9,3.1-1.3c0.3-0.2,0.5-0.7,0.6-1.2
				c0.2-1.2,0.4-3.6,0.4-7.1v-6.9l-0.2-15.2l-0.2-3.3l0-10.9c-1.7,0-3.9,0-6.6,0c-3.9,0-6.3,0.2-7.1,0.7c-1.3,0.7-3.3,2.9-6,6.5
				c-0.9,1.3-1.6,2-2.3,2l-0.4-0.1c-0.1-0.2-0.2-0.3-0.2-0.4c0-0.3,0.2-1.3,0.7-2.9C246.4,447.7,246.7,446.3,246.8,445.6z"/>
			<path class="st56" d="M303.5,490.5c0.6-0.2,1.2-0.4,1.8-0.4c4.2-0.3,6.6-0.8,7.1-1.5c0.6-0.7,0.9-4.2,0.9-10.5l0-4.3v-4.5
				l-0.2-4.9l0.1-2.9l0-3.2v-3.8l-0.1-1.7l0.1-2.1c0-0.5,0-1.1,0-1.7c0-1.7-0.1-3.5-0.2-5.4c-0.1-0.4-0.3-0.7-0.4-1.1
				c-1-0.5-2.6-0.9-4.9-1c-2.2-0.2-3.5-0.4-3.8-0.6c-0.2-0.2-0.3-0.6-0.4-1.3h3.4l10.8,0.2c2.8,0,6.5-0.1,11.1-0.2
				c0,0.4,0,0.8-0.1,1.2c-0.5,0.1-1.5,0.3-2.7,0.4c-2.6,0.3-4.2,0.6-4.7,0.9c-0.4,0.1-0.6,0.4-0.8,0.7c-0.3,0.5-0.4,1.4-0.5,2.7
				l-0.2,5.3l0.2,18.2v7.2c-0.1,2.3-0.1,3.8-0.1,4.6c0,3.1,0.1,5,0.2,5.8c0.2,0.8,0.4,1.5,0.8,1.8c0.4,0.4,1,0.7,1.8,0.9
				c1.3,0.3,2.2,0.5,2.9,0.5c1.5,0.1,2.5,0.3,2.9,0.7c0.1,0.4,0.1,0.7,0.1,0.9v0.3c-2.5,0.1-4.3,0.1-5.5,0.1c-0.7,0-1.9,0-3.6-0.1
				l-5.6,0.1l-9.6,0h-0.8L303.5,490.5z"/>
			<path class="st56" d="M339.4,465.7c0-2.8,0.3-5.2,1-7.4c0.7-2.2,1.8-4.5,3.4-7c1.6-2.5,3.5-4.7,5.7-6.4c2.2-1.7,5.3-3.2,9.3-4.5
				c2.8-0.9,6.3-1.3,10.5-1.3c2.9,0,5.7,0.4,8.4,1.1c2.7,0.8,5.2,1.8,7.5,3.2c2.2,1.4,4.5,3.5,6.7,6.3c1.6,2,2.7,4.1,3.5,6.3
				c1,3,1.6,6,1.6,9.2c0,3.6-0.3,6.6-1,8.9c-0.7,2.4-1.9,4.7-3.5,7c-1.3,1.8-3.5,3.9-6.6,6.2c-2.1,1.6-4.6,2.9-7.7,3.8
				c-3.1,1-6.4,1.5-10,1.5c-3.6,0-6.9-0.4-9.7-1.3c-2.8-0.8-5.2-1.9-7.1-3.1c-1.9-1.2-3.8-3-5.8-5.4c-2-2.4-3.5-5-4.6-7.8
				C339.9,472.1,339.4,469,339.4,465.7z M367.8,491.1c2.3,0,4.7-0.3,7.1-1c2.5-0.6,4.7-1.7,6.6-3.2c1.9-1.5,3.4-3.2,4.5-5.1
				c1.1-1.9,1.9-4.3,2.6-7.3c0.7-3,1-5.9,1-8.9c0-3.7-0.5-7.4-1.6-11c-0.8-2.8-2.2-5.2-4.1-7.4c-1.9-2.2-4.2-3.8-6.9-5
				c-2.7-1.2-5.6-1.8-8.6-1.8c-2.5,0-4.9,0.4-7.3,1.2c-2.4,0.8-4.3,1.9-5.8,3.1c-1.5,1.3-2.9,3.1-4.2,5.4c-1.3,2.3-2.3,4.9-3,7.7
				c-0.7,2.8-1,5.3-1,7.4c0,2.3,0.3,4.8,1,7.7c0.7,2.9,1.6,5.3,2.8,7.4c1.2,2.1,2.6,4,4.4,5.6c1.7,1.6,3.7,2.9,5.8,3.7
				C363,490.6,365.3,491.1,367.8,491.1z"/>
			<path class="st56" d="M407,441.8l0-2c4.2,0,7.3-0.1,9.3-0.3c0.8-0.1,1.3-0.1,1.6-0.1c0.2,0,0.6,0,1.1,0c1.1,1,2.2,2,3.2,3.3
				c0.2,0.2,0.5,0.5,0.7,0.8l8.6,9.5l1.2,1.5c1.7,2,3.3,3.8,4.8,5.2c1.4,1.4,4.2,4.5,8.4,9l9.8,10.8c1,1.1,2.2,2.4,3.7,4l0-0.7
				c-0.2-3.8-0.2-5.8-0.2-6l0.2-2.5l-0.1-3.8v-1.8c0-1.1-0.1-4.6-0.3-10.3c0-0.8-0.1-2.3-0.3-4.5c-0.2-2.2-0.3-4.1-0.3-5.8
				c0-3-0.2-4.7-0.5-5.2c-0.2-0.4-1.4-0.7-3.5-1.1c-0.5,0-1.3-0.1-2.3-0.2c-1.2-0.1-1.9-0.1-2.2-0.2c-0.2-0.1-0.4-0.3-0.7-0.7
				c0.1-0.4,0.2-0.8,0.4-1.2c0.7-0.2,1.5-0.3,2.2-0.3c0.8,0,1.7,0.1,2.8,0.3c1.1,0.2,2.1,0.3,3,0.3c1.3,0,3.2-0.1,5.8-0.2
				c1.5-0.1,2.5-0.2,3.1-0.2h0.7l-0.1,1.3c-0.4,0.2-1,0.3-1.8,0.3c-0.8,0-1.5,0.2-2.1,0.3c-1,0.3-1.6,0.6-1.8,0.8
				c-0.7,0.7-1,1.4-1,2.2l0.5,12.9l0.3,5.9l0,1.7l0.2,8.2c0.2,5.6,0.2,10.5,0.2,14.6c0,0.9-0.1,2.8-0.2,5.8l-1.9,0.2
				c-1-1.1-4.2-4.5-9.9-10.3c-1.3-1.3-2.2-2.3-2.7-2.8l-3.5-4c-1.4-1.5-2.2-2.5-2.7-2.9c-0.4-0.4-0.7-0.7-0.9-0.9
				c-3-3.4-6.8-7.6-11.6-12.7c-1.3-1.4-3.2-3.5-5.6-6.4c-1.6-1.8-2.5-2.9-2.9-3.4c-0.4-0.4-1-0.9-1.7-1.4l-0.1,1.4
				c0,5.3,0.1,12.6,0.4,22l0.3,13.5c0,1.1,0.1,2.2,0.2,3.3l1.4,0.3c2.6,0.2,5.1,0.6,7.6,1.1c0.2,0.2,0.4,0.3,0.5,0.4l0,1.6
				c-0.4,0.1-0.8,0.2-1.1,0.2c-0.3,0-0.7,0-1.1-0.1c-2.7-0.2-6-0.3-9.8-0.3c-2.7,0-5.1,0.1-7.2,0.2l-0.6,0c-0.2,0-0.6,0-1.1-0.1
				l0-1.2l1.1-0.5l1.9-0.3c1.7-0.2,3-0.5,3.8-0.8c0.5-0.2,0.9-0.5,1.3-0.9c0.3-1.9,0.4-4.6,0.4-8.3c0-1.7,0-4.8-0.1-9.3v-5.6
				l-0.1-11.6c-0.1-5.2-0.2-8.2-0.5-9.2c-0.2-0.5-0.5-0.9-1-1.3c-1-0.7-2.4-1.2-4.1-1.4C408.5,442.1,407.4,441.9,407,441.8z"/>
			<path class="st56" d="M475.7,492c0-0.4,0.1-0.8,0.3-1.1c2.1-0.6,4.2-1,6.2-1.1c1.3-0.1,2.2-0.4,2.6-0.9c0.3-0.4,0.4-1.7,0.5-3.9
				l0.3-10.8l0-7.3l0-9.6v-2.5c0-5.8,0-9.3-0.1-10.8c0-0.3-0.1-0.7-0.3-1.1c-0.7-0.3-1.3-0.5-1.8-0.7c-0.5-0.1-2.6-0.5-6.4-1.2
				c0-0.3,0-0.5,0-0.7c0-0.2,0-0.4,0-0.7c0.5,0,1.4,0,2.5,0.1l6.2,0.2l3.6,0.1l1.1,0c0.1,0,0.5,0,1.2,0.1c1.6,0,2.5,0,2.8,0l3.3-0.2
				c2.2,0,3.8,0,4.7,0.1c0,0.5-0.1,1-0.3,1.6c-0.3,0.1-1.7,0.1-4.2,0.2c-2.5,0.1-4,0.3-4.4,0.5c-0.6,0.4-0.9,1.4-0.9,3.3
				c0,0.4,0,1.3-0.1,2.7v2.5l0,7.6v2.6l0.1,13.5l-0.1,11.5l0,2.5c0,0.8,0.1,1.3,0.4,1.5c0.7,0,2.7,0.1,6,0.1h2.8l7.1-0.2
				c1.9-0.1,3.2-0.2,4-0.6c0.8-0.3,2.1-1.2,4-2.8c1.1-1,2-2,2.6-3c0.1-0.2,0.4-0.5,0.7-1c0.5-0.7,1.2-2.1,2.1-4.2h1.3
				c-0.2,1-0.3,1.9-0.5,2.8c-0.8,3.8-1.3,7-1.6,9.6c-0.1,0.5-0.1,1-0.2,1.5l-15.3-0.4c-13.1,0-20.9,0.1-23.4,0.4
				c-0.8,0.1-1.6,0.1-2.4,0.1H475.7z"/>
			<path class="st56" d="M529.9,490.5c0.6-0.2,1.2-0.4,1.8-0.4c4.2-0.3,6.5-0.8,7.1-1.5c0.6-0.7,0.9-4.2,0.9-10.5l0-4.3v-4.5
				l-0.2-4.9l0.1-2.9l0-3.2v-3.8l-0.1-1.7l0.1-2.1c0-0.5,0-1.1,0-1.7c0-1.7-0.1-3.5-0.2-5.4c-0.1-0.4-0.3-0.7-0.4-1.1
				c-1-0.5-2.6-0.9-4.9-1c-2.2-0.2-3.5-0.4-3.8-0.6c-0.2-0.2-0.3-0.6-0.4-1.3h3.4l10.8,0.2c2.8,0,6.5-0.1,11.1-0.2
				c0,0.4,0,0.8-0.1,1.2c-0.5,0.1-1.5,0.3-2.7,0.4c-2.6,0.3-4.2,0.6-4.7,0.9c-0.4,0.1-0.6,0.4-0.8,0.7c-0.3,0.5-0.4,1.4-0.5,2.7
				l-0.2,5.3l0.2,18.2v7.2c-0.1,2.3-0.1,3.8-0.1,4.6c0,3.1,0.1,5,0.2,5.8c0.2,0.8,0.4,1.5,0.8,1.8c0.4,0.4,1,0.7,1.8,0.9
				c1.3,0.3,2.2,0.5,2.9,0.5c1.5,0.1,2.5,0.3,2.9,0.7c0.1,0.4,0.1,0.7,0.1,0.9v0.3c-2.5,0.1-4.3,0.1-5.5,0.1c-0.7,0-1.9,0-3.6-0.1
				l-5.6,0.1l-9.6,0H530L529.9,490.5z"/>
			<path class="st56" d="M563.1,441.8l0-2c4.2,0,7.3-0.1,9.3-0.3c0.8-0.1,1.3-0.1,1.6-0.1c0.2,0,0.6,0,1.1,0c1.1,1,2.2,2,3.2,3.3
				c0.2,0.2,0.5,0.5,0.7,0.8l8.6,9.5l1.2,1.5c1.7,2,3.3,3.8,4.8,5.2c1.4,1.4,4.2,4.5,8.4,9l9.8,10.8c1,1.1,2.2,2.4,3.7,4l0-0.7
				c-0.2-3.8-0.2-5.8-0.2-6l0.2-2.5l-0.1-3.8v-1.8c0-1.1-0.1-4.6-0.3-10.3c0-0.8-0.1-2.3-0.3-4.5s-0.3-4.1-0.3-5.8
				c0-3-0.2-4.7-0.5-5.2c-0.2-0.4-1.4-0.7-3.5-1.1c-0.5,0-1.3-0.1-2.3-0.2c-1.2-0.1-2-0.1-2.2-0.2c-0.2-0.1-0.4-0.3-0.7-0.7
				c0.1-0.4,0.2-0.8,0.4-1.2c0.7-0.2,1.5-0.3,2.2-0.3c0.8,0,1.7,0.1,2.8,0.3c1.1,0.2,2.1,0.3,3,0.3c1.3,0,3.2-0.1,5.8-0.2
				c1.5-0.1,2.5-0.2,3.1-0.2h0.7l-0.1,1.3c-0.4,0.2-1,0.3-1.8,0.3c-0.8,0-1.5,0.2-2.1,0.3c-1,0.3-1.6,0.6-1.8,0.8
				c-0.7,0.7-1,1.4-1,2.2l0.4,12.9l0.3,5.9l0,1.7l0.2,8.2c0.2,5.6,0.2,10.5,0.2,14.6c0,0.9-0.1,2.8-0.2,5.8l-1.9,0.2
				c-1-1.1-4.2-4.5-9.8-10.3c-1.3-1.3-2.2-2.3-2.7-2.8l-3.5-4c-1.4-1.5-2.2-2.5-2.7-2.9c-0.4-0.4-0.7-0.7-0.9-0.9
				c-3-3.4-6.8-7.6-11.6-12.7c-1.3-1.4-3.2-3.5-5.6-6.4c-1.6-1.8-2.5-2.9-2.9-3.4c-0.4-0.4-1-0.9-1.7-1.4l-0.1,1.4
				c0,5.3,0.1,12.6,0.4,22l0.3,13.5c0,1.1,0.1,2.2,0.2,3.3l1.4,0.3c2.6,0.2,5.1,0.6,7.6,1.1c0.2,0.2,0.4,0.3,0.5,0.4l0,1.6
				c-0.4,0.1-0.8,0.2-1.1,0.2c-0.3,0-0.7,0-1.1-0.1c-2.7-0.2-6-0.3-9.8-0.3c-2.7,0-5.1,0.1-7.2,0.2l-0.6,0c-0.2,0-0.6,0-1.1-0.1
				l0-1.2l1.1-0.5l1.9-0.3c1.7-0.2,3-0.5,3.8-0.8c0.5-0.2,0.9-0.5,1.3-0.9c0.3-1.9,0.4-4.6,0.4-8.3c0-1.7,0-4.8-0.1-9.3v-5.6
				l-0.1-11.6c-0.1-5.2-0.2-8.2-0.5-9.2c-0.2-0.5-0.5-0.9-1-1.3c-1-0.7-2.4-1.2-4.1-1.4C564.6,442.1,563.6,441.9,563.1,441.8z"/>
			<path class="st56" d="M634.1,491.1c0.3-0.2,0.5-0.4,0.7-0.4c0.5-0.1,1.3-0.2,2.4-0.3c2.6-0.2,4.3-0.4,4.9-0.7
				c0.4-0.5,0.6-1.3,0.6-2.3l0-2.9l0-10.4l-0.1-4.9l0-10.3l-0.2-11.7c0-2.8-0.2-4.4-0.5-4.7c-0.5-0.5-1.9-0.8-4.4-0.9
				c-1,0-2-0.1-2.7-0.2c-0.4-0.2-0.5-0.4-0.5-0.7c0-0.2,0.1-0.5,0.2-0.8c0.2-0.1,0.5-0.2,0.7-0.2c0.4,0,0.8,0,1.4,0
				c1.6,0.2,3.3,0.2,5,0.2l3-0.1l7.2,0.2c3.6,0,6.4,0,8.4-0.1s3.4-0.1,4.1-0.1c0.6,0,2.2,0.1,4.7,0.2l5.8,0l0.7,0.1l3.4-0.1l0.4,0.2
				c0.1,0.2,0.2,0.4,0.3,0.7c0,0.4-0.1,1-0.2,1.8c-0.1,0.8-0.2,1.3-0.2,1.5c0,2.8,0.1,5.2,0.3,7.2c0,0.2-0.1,0.3-0.2,0.3
				c-0.3,0-0.6,0-0.8-0.1c-0.3-0.5-0.7-1.4-1.2-2.7c-0.5-1.3-1.3-2.8-2.3-4.5c-0.7-1.1-1.2-1.8-1.6-2c-0.4-0.2-1.2-0.3-2.4-0.3
				c-0.2,0-1.5,0-3.7-0.1c-0.6,0-1.2,0-1.8,0l-11.7,0.2h-1c-1.5,0-2.4,0.2-2.7,0.6c-0.5,0.7-0.7,2.6-0.7,5.8c0,0.3,0.1,3.6,0.2,9.8
				v5.7c0.3,0.1,0.6,0.1,1,0.1h0.7c0.5,0,1.1,0,2,0c1.4,0.1,2.4,0.1,2.9,0.1c0.3,0,0.6,0,0.9,0c2.9-0.1,6.7-0.2,11.4-0.2
				c1.4-0.2,2.3-0.5,2.5-0.9c0.4-0.5,0.7-1.8,0.9-3.8c0.2-2.1,0.7-3.2,1.4-3.5c0.4,0,0.7,0.1,1,0.2c0.1,0.2,0.1,0.4,0.1,0.6
				c0,0.2,0,0.5-0.1,0.9c-0.1,1-0.2,4.2-0.2,9.5c0,1.4,0.1,3,0.2,4.7c0.1,1.7,0.2,2.7,0.2,2.8c0,0.2,0,0.6-0.1,1
				c-0.2,0.1-0.4,0.2-0.5,0.2h-0.3c-0.4-0.8-0.9-1.9-1.3-3.6c-0.7-2.8-1.5-4.5-2.2-5.2c-0.8-0.7-2-1-3.8-1c-0.4,0-1.1,0-2.1,0.1
				c-1,0-2.5,0.1-4.5,0.1h-2.7c-3.8,0-6.3,0.1-7.4,0.2l0,1.3l0,7.5l0,4.7l0,4.6c0,2.8,0.2,4.4,0.5,4.8c0.5,0.6,1.5,0.9,3,0.9l2.5,0
				c0.2,0,1.1,0,2.6,0.1c1.5,0,3.3,0.1,5.5,0.1c5.3,0,8.8-0.2,10.5-0.7c1.7-0.5,3.2-1.2,4.3-2.4c1.1-1.1,2.6-3.6,4.3-7.4
				c0.5-1.1,1-1.7,1.6-1.7c0.2,0,0.5,0.1,0.8,0.3c-0.8,2.7-1.2,4.5-1.3,5.3c-0.3,1.9-0.5,3.9-0.5,5.8c0,0.9-0.2,1.6-0.7,2.2h-0.9
				l-11.5,0.1l-5.1,0l-12.3,0.2h-5c-0.6,0-1.2,0-1.8,0c-4.9,0.2-8.5,0.3-10.8,0.3c-0.4,0-0.7-0.1-0.8-0.2c-0.2-0.1-0.2-0.3-0.2-0.6
				L634.1,491.1z"/>
			<path class="st56" d="M694.7,506.3l0-1.3c0.3-0.2,0.7-0.3,1-0.4c2.9-1.4,4.8-2.8,5.7-4.2c1-1.5,1.5-2.8,1.5-3.9
				c0-0.8-0.3-1.4-0.8-2c-0.5-0.6-1.5-1-2.8-1.3c-1.3-0.3-2.2-0.5-2.6-0.7c-0.3-0.1-0.6-0.4-1-0.8c-0.3-0.6-0.4-1.1-0.4-1.6
				c0-1.3,0.3-2.2,0.8-2.6c1.1-1,2.2-1.4,3.4-1.4c2.1,0,3.9,0.8,5.4,2.4c1.5,1.6,2.3,3.6,2.3,6c0,1.7-0.5,3.5-1.6,5.4
				c-1.1,1.9-2.7,3.5-4.9,4.7C698.3,505.7,696.3,506.3,694.7,506.3z"/>
			<path class="st56" d="M741.2,490.5c0.6-0.2,1.2-0.4,1.8-0.4c4.2-0.3,6.5-0.8,7.1-1.5c0.6-0.7,0.9-4.2,0.9-10.5l0-4.3v-4.5
				l-0.2-4.9l0.1-2.9l0-3.2v-3.8l-0.1-1.7l0.1-2.1c0-0.5,0-1.1,0-1.7c0-1.7-0.1-3.5-0.2-5.4c-0.1-0.4-0.3-0.7-0.4-1.1
				c-1-0.5-2.6-0.9-4.9-1c-2.2-0.2-3.5-0.4-3.8-0.6c-0.2-0.2-0.3-0.6-0.4-1.3h3.4l10.8,0.2c2.8,0,6.5-0.1,11.1-0.2
				c0,0.4,0,0.8-0.1,1.2c-0.5,0.1-1.5,0.3-2.7,0.4c-2.6,0.3-4.2,0.6-4.7,0.9c-0.4,0.1-0.6,0.4-0.8,0.7c-0.3,0.5-0.4,1.4-0.5,2.7
				l-0.2,5.3l0.2,18.2v7.2c-0.1,2.3-0.1,3.8-0.1,4.6c0,3.1,0.1,5,0.2,5.8c0.2,0.8,0.4,1.5,0.8,1.8c0.4,0.4,1,0.7,1.8,0.9
				c1.2,0.3,2.2,0.5,2.9,0.5c1.5,0.1,2.5,0.3,2.9,0.7c0.1,0.4,0.1,0.7,0.1,0.9v0.3c-2.5,0.1-4.3,0.1-5.5,0.1c-0.7,0-1.9,0-3.6-0.1
				l-5.6,0.1l-9.6,0h-0.8L741.2,490.5z"/>
			<path class="st56" d="M775.1,441.8l0-2c4.2,0,7.3-0.1,9.3-0.3c0.8-0.1,1.3-0.1,1.6-0.1c0.2,0,0.6,0,1.1,0c1.1,1,2.2,2,3.2,3.3
				c0.2,0.2,0.5,0.5,0.7,0.8l8.6,9.5l1.2,1.5c1.7,2,3.3,3.8,4.8,5.2c1.4,1.4,4.2,4.5,8.4,9l9.8,10.8c1,1.1,2.2,2.4,3.7,4l0-0.7
				c-0.2-3.8-0.2-5.8-0.2-6l0.2-2.5l-0.1-3.8v-1.8c0-1.1-0.1-4.6-0.3-10.3c0-0.8-0.1-2.3-0.3-4.5c-0.2-2.2-0.3-4.1-0.3-5.8
				c0-3-0.2-4.7-0.5-5.2c-0.2-0.4-1.4-0.7-3.5-1.1c-0.5,0-1.3-0.1-2.3-0.2c-1.2-0.1-1.9-0.1-2.2-0.2c-0.2-0.1-0.4-0.3-0.7-0.7
				c0.1-0.4,0.2-0.8,0.4-1.2c0.7-0.2,1.5-0.3,2.2-0.3c0.8,0,1.7,0.1,2.8,0.3c1.1,0.2,2.1,0.3,3,0.3c1.3,0,3.2-0.1,5.8-0.2
				c1.5-0.1,2.5-0.2,3.1-0.2h0.7l-0.1,1.3c-0.4,0.2-1,0.3-1.8,0.3c-0.8,0-1.5,0.2-2.1,0.3c-1,0.3-1.6,0.6-1.8,0.8
				c-0.7,0.7-1,1.4-1,2.2l0.4,12.9l0.3,5.9l0,1.7l0.2,8.2c0.2,5.6,0.2,10.5,0.2,14.6c0,0.9-0.1,2.8-0.2,5.8l-1.9,0.2
				c-1-1.1-4.2-4.5-9.9-10.3c-1.3-1.3-2.2-2.3-2.7-2.8l-3.5-4c-1.4-1.5-2.2-2.5-2.7-2.9c-0.4-0.4-0.7-0.7-0.9-0.9
				c-3-3.4-6.8-7.6-11.6-12.7c-1.3-1.4-3.2-3.5-5.6-6.4c-1.6-1.8-2.5-2.9-2.9-3.4c-0.4-0.4-1-0.9-1.7-1.4l-0.1,1.4
				c0,5.3,0.1,12.6,0.4,22l0.3,13.5c0,1.1,0.1,2.2,0.2,3.3l1.4,0.3c2.6,0.2,5.1,0.6,7.6,1.1c0.2,0.2,0.4,0.3,0.5,0.4l0,1.6
				c-0.4,0.1-0.8,0.2-1.1,0.2c-0.3,0-0.7,0-1.1-0.1c-2.7-0.2-6-0.3-9.8-0.3c-2.7,0-5.1,0.1-7.2,0.2l-0.6,0c-0.2,0-0.6,0-1.1-0.1
				l0-1.2l1.1-0.5l1.9-0.3c1.7-0.2,3-0.5,3.8-0.8c0.5-0.2,0.9-0.5,1.3-0.9c0.3-1.9,0.4-4.6,0.4-8.3c0-1.7,0-4.8-0.1-9.3v-5.6
				l-0.1-11.6c-0.1-5.2-0.2-8.2-0.5-9.2c-0.2-0.5-0.5-0.9-1-1.3c-1-0.7-2.4-1.2-4.1-1.4C776.7,442.1,775.6,441.9,775.1,441.8z"/>
			<path class="st56" d="M890.8,441.8c0.3,2.1,0.5,4.2,0.5,6.5c0,0.4,0,1,0,1.8c-0.4,0.1-0.7,0.1-0.9,0.1c-0.2,0-0.4,0-0.7-0.1
				c-1.1-3.2-3-5.6-5.6-7.4c-2.6-1.7-5.8-2.6-9.6-2.6c-2,0-3.7,0.2-5.1,0.7c-2.4,0.8-4.6,2-6.5,3.5c-1.9,1.5-3.4,3.3-4.7,5.3
				c-1.3,2.1-2.3,4.5-3,7.5c-0.7,2.9-1.1,5.9-1.1,9c0,5.8,0.9,10.6,2.7,14.4c1.8,3.8,4.2,6.5,7.3,8.1c3.1,1.6,6.2,2.4,9.3,2.4l1.9,0
				c2.2-0.3,3.7-0.5,4.5-0.8c2-0.6,3.6-1.2,4.9-2c1.3-0.8,2.6-1.9,3.8-3.3c1.2-1.4,2.3-3.1,3.2-4.9l0.5-0.2c0.1,0,0.3,0.1,0.6,0.2
				c0,0.7-0.1,1.1-0.1,1.3c-1.1,4.6-2,7.8-2.5,9.4c-0.4,0.1-1,0.3-1.6,0.5c-3.2,1.1-7.5,1.6-12.8,1.6c-4.3,0-7.5-0.3-9.7-0.9
				c-2.1-0.6-4.5-1.5-7-2.7c-2.5-1.2-4.7-2.9-6.6-4.9c-1.9-2-3.4-4.6-4.6-7.7c-1.2-3.1-1.8-6.5-1.8-10.2c0-3.5,0.5-6.5,1.4-9.1
				c0.9-2.6,2.4-5.2,4.3-7.9c1.9-2.7,4.2-4.9,6.8-6.7c2.6-1.8,5.6-3,8.8-3.8c2.3-0.5,5.5-0.7,9.6-0.7c3,0,5.9,0.4,8.5,1.2
				C888.1,440.2,889.9,441,890.8,441.8z"/>
			<path class="st56" d="M906.5,488.5c0-1.2,0.4-2.2,1.3-3.1c0.9-0.9,1.9-1.3,3.1-1.3c1.2,0,2.1,0.4,2.9,1.3
				c0.8,0.8,1.2,1.9,1.2,3.2c0,1.3-0.4,2.4-1.3,3.2c-0.8,0.9-1.8,1.3-3,1.3c-1.2,0-2.2-0.4-3-1.3
				C906.9,490.7,906.5,489.7,906.5,488.5z"/>
		</g>
	</g>
	<g>
		<path class="st56" d="M462.8,13.5L316.6,97.9v168.8l146.2,84.4L609,266.8V97.9L462.8,13.5z M412.4,211.5v52.4L367,237.6v-52.4
			L412.4,211.5z M367,181.4V129l45.4,26.2v52.4L367,181.4z M415.7,265.8v-52.4l45.4,26.2V292L415.7,265.8z M461.1,235.7l-45.4-26.2
			v-52.4l45.4,26.2V235.7z M417.4,97.9l45.4-26.2l45.4,26.2l-45.4,26.2L417.4,97.9z M509.8,320.1l-45.4,26.2v-50.4l45.4-26.2V320.1z
			 M509.8,265.8L464.5,292v-52.4l45.4-26.2V265.8z M509.8,209.5l-45.4,26.2v-52.4l45.4-26.2V209.5z M466.2,126.1l45.4-26.2
			l45.4,26.2l-45.4,26.2L466.2,126.1z M558.6,292l-45.4,26.2v-50.4l45.4-26.2V292z M558.6,237.6l-45.4,26.2v-52.4l45.4-26.2V237.6z
			 M558.6,181.4l-45.4,26.2v-52.4l45.4-26.2V181.4z M605.6,264.8L562,290v-50.4l43.7-25.2V264.8z M605.6,210.5L562,235.7v-52.4
			l43.7-25.2V210.5z M605.6,154.2L562,179.4V127l43.7-25.2V154.2z"/>
	</g>
</g>
</svg>
