<svg xmlns="http://www.w3.org/2000/svg" role="img" viewBox="-1.13 -3.38 227.50 54.25"><title>Ctrlstack (member) logo</title><path fill="#837A7A" d="M67.6216 19.8705c0 1.12-.27 2.17-.81 3.15-.52.98-1.35 1.77-2.49 2.37-1.12.6-2.54.9-4.26.9h-3.51v8.04h-4.2v-20.94h7.71c1.62 0 3 .28 4.14.84 1.14.56 1.99 1.33 2.55 2.31.58.98.87 2.09.87 3.33zm-7.74 3.03c1.16 0 2.02-.26 2.58-.78.56-.54.84-1.29.84-2.25 0-2.04-1.14-3.06-3.42-3.06h-3.33v6.09h3.33zm14.9219-2.61c.54-.88 1.24-1.57 2.1-2.07.88-.5 1.88-.75 3-.75v4.41h-1.11c-1.32 0-2.32.31-3 .93-.66.62-.99 1.7-.99 3.24v8.28h-4.2v-16.62h4.2v2.58zm15.3089 14.31c-1.6 0-3.04-.35-4.32-1.05-1.28-.72-2.29-1.73-3.03-3.03-.72-1.3-1.08-2.8-1.08-4.5 0-1.7.37-3.2 1.11-4.5.76-1.3 1.79-2.3 3.09-3 1.3-.72 2.75-1.08 4.35-1.08 1.6 0 3.05.36 4.35 1.08 1.3.7 2.32 1.7 3.06 3 .76 1.3 1.14 2.8 1.14 4.5 0 1.7-.39 3.2-1.17 4.5-.76 1.3-1.8 2.31-3.12 3.03-1.3.7-2.76 1.05-4.38 1.05zm0-3.66c.76 0 1.47-.18 2.13-.54.68-.38 1.22-.94 1.62-1.68.4-.74.6-1.64.6-2.7 0-1.58-.42-2.79-1.26-3.63-.82-.86-1.83-1.29-3.03-1.29-1.2 0-2.21.43-3.03 1.29-.8.84-1.2 2.05-1.2 3.63s.39 2.8 1.17 3.66c.8.84 1.8 1.26 3 1.26zm32.3906-13.47c2.04 0 3.68.63 4.92 1.89 1.26 1.24 1.89 2.98 1.89 5.22v9.75h-4.2v-9.18c0-1.3-.33-2.29-.99-2.97-.66-.7-1.56-1.05-2.7-1.05-1.14 0-2.05.35-2.73 1.05-.66.68-.99 1.67-.99 2.97v9.18h-4.2v-9.18c0-1.3-.33-2.29-.99-2.97-.66-.7-1.56-1.05-2.7-1.05-1.16 0-2.08.35-2.76 1.05-.66.68-.99 1.67-.99 2.97v9.18h-4.2v-16.62h4.2v2.01c.54-.7 1.23-1.25 2.07-1.65.86-.4 1.8-.6 2.82-.6 1.3 0 2.46.28 3.48.84 1.02.54 1.81 1.32 2.37 2.34.54-.96 1.32-1.73 2.34-2.31 1.04-.58 2.16-.87 3.36-.87zm14.996 2.64c.54-.76 1.28-1.39 2.22-1.89.96-.52 2.05-.78 3.27-.78 1.42 0 2.7.35 3.84 1.05 1.16.7 2.07 1.7 2.73 3 .68 1.28 1.02 2.77 1.02 4.47 0 1.7-.34 3.21-1.02 4.53-.66 1.3-1.57 2.31-2.73 3.03-1.14.72-2.42 1.08-3.84 1.08-1.22 0-2.3-.25-3.24-.75-.92-.5-1.67-1.13-2.25-1.89v10.29h-4.2v-24.54h4.2v2.4zm8.79 5.85c0-1-.21-1.86-.63-2.58-.4-.74-.94-1.3-1.62-1.68-.66-.38-1.38-.57-2.16-.57-.76 0-1.48.2-2.16.6-.66.38-1.2.94-1.62 1.68-.4.74-.6 1.61-.6 2.61 0 1 .2 1.87.6 2.61.42.74.96 1.31 1.62 1.71.68.38 1.4.57 2.16.57.78 0 1.5-.2 2.16-.6.68-.4 1.22-.97 1.62-1.71.42-.74.63-1.62.63-2.64zm12.232-4.8v8.04c0 .56.13.97.39 1.23.28.24.74.36 1.38.36h1.95v3.54h-2.64c-3.54 0-5.31-1.72-5.31-5.16v-8.01h-1.98v-3.45h1.98v-4.11h4.23v4.11h3.72v3.45h-3.72zm16.461 13.38c-1.96 0-3.76-.46-5.4-1.38-1.64-.92-2.94-2.19-3.9-3.81-.96-1.64-1.44-3.49-1.44-5.55 0-2.04.48-3.87 1.44-5.49.96-1.64 2.26-2.92 3.9-3.84 1.64-.92 3.44-1.38 5.4-1.38 1.98 0 3.78.46 5.4 1.38 1.64.92 2.93 2.2 3.87 3.84.96 1.62 1.44 3.45 1.44 5.49 0 2.06-.48 3.91-1.44 5.55-.94 1.62-2.23 2.89-3.87 3.81-1.64.92-3.44 1.38-5.4 1.38zm0-3.75c1.26 0 2.37-.28 3.33-.84.96-.58 1.71-1.4 2.25-2.46s.81-2.29.81-3.69-.27-2.62-.81-3.66c-.54-1.06-1.29-1.87-2.25-2.43s-2.07-.84-3.33-.84c-1.26 0-2.38.28-3.36.84-.96.56-1.71 1.37-2.25 2.43-.54 1.04-.81 2.26-.81 3.66 0 1.4.27 2.63.81 3.69s1.29 1.88 2.25 2.46c.98.56 2.1.84 3.36.84zm18.034-10.68c.54-.76 1.28-1.39 2.22-1.89.96-.52 2.05-.78 3.27-.78 1.42 0 2.7.35 3.84 1.05 1.16.7 2.07 1.7 2.73 3 .68 1.28 1.02 2.77 1.02 4.47 0 1.7-.34 3.21-1.02 4.53-.66 1.3-1.57 2.31-2.73 3.03-1.14.72-2.42 1.08-3.84 1.08-1.22 0-2.3-.25-3.24-.75-.92-.5-1.67-1.13-2.25-1.89v10.29h-4.2v-24.54h4.2v2.4zm8.79 5.85c0-1-.21-1.86-.63-2.58-.4-.74-.94-1.3-1.62-1.68-.66-.38-1.38-.57-2.16-.57-.76 0-1.48.2-2.16.6-.66.38-1.2.94-1.62 1.68-.4.74-.6 1.61-.6 2.61 0 1 .2 1.87.6 2.61.42.74.96 1.31 1.62 1.71.68.38 1.4.57 2.16.57.78 0 1.5-.2 2.16-.6.68-.4 1.22-.97 1.62-1.71.42-.74.63-1.62.63-2.64zm13.702 8.64c-1.36 0-2.58-.24-3.66-.72-1.08-.5-1.94-1.17-2.58-2.01-.62-.84-.96-1.77-1.02-2.79h4.23c.08.64.39 1.17.93 1.59.56.42 1.25.63 2.07.63.8 0 1.42-.16 1.86-.48.46-.32.69-.73.69-1.23 0-.54-.28-.94-.84-1.2-.54-.28-1.41-.58-2.61-.9-1.24-.3-2.26-.61-3.06-.93-.78-.32-1.46-.81-2.04-1.47-.56-.66-.84-1.55-.84-2.67 0-.92.26-1.76.78-2.52.54-.76 1.3-1.36 2.28-1.8 1-.44 2.17-.66 3.51-.66 1.98 0 3.56.5 4.74 1.5 1.18.98 1.83 2.31 1.95 3.99h-4.02c-.06-.66-.34-1.18-.84-1.56-.48-.4-1.13-.6-1.95-.6-.76 0-1.35.14-1.77.42-.4.28-.6.67-.6 1.17 0 .56.28.99.84 1.29.56.28 1.43.57 2.61.87 1.2.3 2.19.61 2.97.93.78.32 1.45.82 2.01 1.5.58.66.88 1.54.9 2.64 0 .96-.27 1.82-.81 2.58-.52.76-1.28 1.36-2.28 1.8-.98.42-2.13.63-3.45.63z"/><mask id="a" style="mask-type:alpha" width="42" height="47" x="3" y="0" maskUnits="userSpaceOnUse"><path d="M21.3272 1.65909c1.5559-.8983 3.4729-.89831 5.0288 0l15.4291 8.90801c1.5559.8983 2.5144 2.5585 2.5144 4.3551v17.816c0 1.7967-.9585 3.4568-2.5144 4.3551l-15.4291 8.908c-1.5559.8983-3.4729.8984-5.0288 0l-15.42918-8.908c-1.55592-.8983-2.51441-2.5584-2.51441-4.3551v-17.816c0-1.7966.95848-3.4568 2.5144-4.3551L21.3272 1.65909z"/></mask><g mask="url(#a)"><rect width="13.072" height="32.035" x="31.227" y="9.597" fill="#F60" rx="6.536"/><rect width="17.513" height="32.035" x="6.992" y="13.794" fill="#F0E81C" rx="8.756" transform="rotate(-90 6.992 13.794)"/><rect width="13.072" height="28.997" x="2.563" y="9.597" fill="#5DF415" rx="6.536"/><path fill="#00A3FF" d="M11.3735 7.2324c4.0524-2.33961 9.2341-.95118 11.5737 3.1012 1.4343 2.4842 1.5141 5.5255.2121 8.0816l-3.7885 7.438C13.4421 37.4927-4.21764 30.8365-.98852 18.1794c.7289-2.857 2.57961-5.2991 5.13312-6.7734l7.2289-4.1736z"/><rect width="13.389" height="37.944" x="46.734" y="13.245" fill="#00A3FF" rx="6.695" transform="rotate(120 46.734 13.245)"/><rect width="11.647" height="27.235" x="40.484" y="25.127" fill="#F60" rx="5.824" transform="rotate(60 40.484 25.127)"/><rect width="13.523" height="30.967" x="33.852" y="39.097" fill="#F60" rx="6.762" transform="rotate(120 33.852 39.097)"/></g><path fill="#D9D9D9" stroke="#fff" stroke-width="2.85" d="M36.6746 15.4037L24.7198 8.50157c-.5446-.3144-1.2155-.31441-1.7601 0L11.0049 15.4037c-.5445.3144-.88.8954-.88 1.5243v13.8042c0 .6288.3355 1.2099.88 1.5243l11.9548 6.9021c.5446.3144 1.2155.3144 1.7601 0l11.9548-6.9021c.5446-.3144.8801-.8955.8801-1.5243V16.928c0-.6289-.3355-1.2099-.8801-1.5243z"/><path d="M23.8398 9.63873l12.29 7.09567v14.1913l-12.29 7.0957-12.2901-7.0957V16.7344l12.2901-7.09567z"/><ellipse cx="32.498" cy="23.227" fill="#fff" rx="1.379" ry="2.824" transform="rotate(1.39 32.498 23.227)"/><ellipse cx="27.74" cy="25.462" fill="#fff" rx="1.379" ry="2.824" transform="rotate(1.39 27.74 25.462)"/></svg>