<svg xmlns="http://www.w3.org/2000/svg" role="img" viewBox="-10.46 -2.46 1011.92 180.92"><title>Ctrlstack (member) logo</title><style>svg {enable-background:new 0 0 982.9 241.2}</style><style id="style2" type="text/css">.st1{fill:#f50}</style><path id="path4" fill="#ff4e00" d="M945 83.1c.2 7.5-.1 15 .1 22.5.1 3.8-1.3 6.1-4.5 8.1-24.5 15-48.9 30.2-73.5 45.2-2 .9-4.2.9-6.2-.1-24.3-14.8-48.4-29.9-72.6-44.7-3.8-2.3-5.2-5-5-9.3.3-7 0-14 .1-21 0-1.8.2-3.5.4-6 1.4.4 2.8 1 4.1 1.6 23.3 14.5 46.6 28.9 69.8 43.6 4.2 2.7 7.5 3.5 12.1.4 8.8-6 18-11.2 27.1-16.9 1.1-.8 2.1-1.7 3-2.6-2.2-1.5-4-2.9-5.9-4.1-22.7-14.1-45.5-28.1-68.3-42.1-3.2-2-4.6-4.3-4.5-8.1.2-7.5 0-15 .1-22.5 0-1.6.3-3.2.6-5.6 3.2 1.7 5.6 3 8 4.4 22.5 13.9 45 27.7 67.3 41.8 3.9 2.4 6.6 2.2 10.3-.1C930.7 53 954 38.7 977.3 24.2c1.4-.8 2.8-1.5 5.4-2.9 0 11.5.2 21.6-.2 31.7-.1 1.8-2.8 3.9-4.8 5.1-9.5 6.1-19.1 12-28.8 17.8-2.6 1.3-4.2 4.2-3.9 7.2z"/><path id="path6" d="M982.9 21.2c0 11.5.2 21.6-.2 31.7-.1 1.8-2.8 3.9-4.8 5.1-9.5 6.1-19.1 12-28.8 17.8-2.7 1.4-4.3 4.3-4 7.3.2 7.5-.1 15 .1 22.5.1 3.8-1.3 6.1-4.5 8.1-24.5 15-48.9 30.2-73.5 45.2-2 .9-4.2.9-6.2-.1-24.3-14.8-48.4-29.9-72.6-44.7-3.8-2.3-5.2-5-5-9.3.3-7 0-14 .1-21 0-1.8.2-3.5.4-6 1.4.4 2.8 1 4.1 1.6 23.3 14.5 46.7 28.9 69.8 43.6 4.2 2.7 7.5 3.5 12.1.4 8.8-6 18-11.2 27.1-16.9 1.1-.8 2.1-1.7 3-2.6-2.2-1.5-4-2.9-5.9-4.1-22.7-14.1-45.5-28.1-68.3-42.1-3.2-2-4.6-4.3-4.5-8.1.2-7.5 0-15 .1-22.5 0-1.6.3-3.2.6-5.6 3.2 1.7 5.6 3 8 4.4 22.5 13.9 45 27.7 67.3 41.8 3.9 2.4 6.6 2.2 10.3-.1 23.2-14.6 46.5-28.9 69.8-43.4 1.4-.9 2.8-1.6 5.5-3z" class="st1"/><g id="text8" fill="#f50" class="st1" transform="translate(0 153.72)"><path id="path15" d="M87.80273-94.6582v15.11718q-6.85546-3.7793-13.79882-5.625-6.85547-1.93359-13.88672-1.93359-15.73242 0-24.4336 10.01953-8.70117 9.93164-8.70117 27.94922 0 18.01758 8.70117 28.03711 8.70118 9.93164 24.4336 9.93164 7.03125 0 13.88672-1.8457 6.94336-1.9336 13.79882-5.7129V-3.7793Q81.03516-.61523 73.74023.9668 66.5332 2.54883 58.35938 2.54883q-22.23633 0-35.33204-13.97461Q9.93164-25.4004 9.93164-49.13086q0-24.08203 13.1836-37.88086 13.27148-13.79883 36.29882-13.79883 7.4707 0 14.58985 1.58203 7.11914 1.49414 13.79882 4.57032z"/><path id="path17" d="M131.92383-126.38672v27.94922h33.31054v12.56836h-33.31054v53.4375q0 12.04102 3.25195 15.46875 3.33984 3.42773 13.44727 3.42773h16.61132V0h-16.61132q-18.72071 0-25.83985-6.94336-7.11914-7.03125-7.11914-25.48828v-53.4375h-11.86523V-98.4375h11.86523v-27.94922z"/><path id="path19" d="M243.54492-83.32031q-2.72461-1.58203-5.97656-2.28516-3.16406-.79101-7.03125-.79101-13.71094 0-21.09375 8.96484-7.29492 8.87695-7.29492 25.57617V0h-16.25977v-98.4375h16.25977v15.29297q5.09765-8.96484 13.27148-13.27149 8.17383-4.39453 19.86328-4.39453 1.66992 0 3.69141.26367 2.02148.17579 4.48242.61524z"/><path id="path21" d="M260.50781-136.75781h16.17188V0h-16.17188z"/><path id="path23" d="M373.27148-95.5371v15.29296q-6.85546-3.51563-14.23828-5.27344-7.38281-1.75781-15.29297-1.75781-12.04101 0-18.10546 3.6914-5.97657 3.69141-5.97657 11.07422 0 5.625 4.30664 8.87696 4.30664 3.16406 17.31446 6.06445l5.53711 1.23047q17.22656 3.6914 24.43359 10.45898 7.29492 6.6797 7.29492 18.7207 0 13.71094-10.89844 21.709-10.81054 7.99804-29.79492 7.99804-7.91015 0-16.52344-1.58203-8.52539-1.49414-18.01757-4.57032v-16.69921q8.96484 4.6582 17.66601 7.03125 8.70117 2.28515 17.22656 2.28515 11.42579 0 17.57813-3.86719 6.15234-3.95507 6.15234-11.07421 0-6.5918-4.48242-10.10743-4.39453-3.51562-19.42383-6.76757l-5.625-1.31836q-15.02929-3.16407-21.70898-9.66797-6.67969-6.5918-6.67969-18.01758 0-13.88672 9.84375-21.44531 9.84375-7.5586 27.94922-7.5586 8.96484 0 16.875 1.31836 7.91016 1.31836 14.58984 3.95508z"/><path id="path25" d="M420.29297-126.38672v27.94922h33.31055v12.56836h-33.31055v53.4375q0 12.04102 3.25195 15.46875 3.33985 3.42773 13.44727 3.42773h16.61133V0h-16.61133q-18.72071 0-25.83985-6.94336-7.11914-7.03125-7.11914-25.48828v-53.4375h-11.86523V-98.4375h11.86523v-27.94922z"/><path id="path27" d="M519.60937-49.48242q-19.5996 0-27.1582 4.48242-7.55859 4.48242-7.55859 15.29297 0 8.61328 5.625 13.71094 5.71289 5.00976 15.46875 5.00976 13.44726 0 21.5332-9.49219 8.17383-9.58007 8.17383-25.40039v-3.60351zm32.25586-6.67969V0h-16.17187v-14.9414q-5.53711 8.96484-13.79883 13.27148-8.26172 4.21875-20.21484 4.21875-15.11719 0-24.08203-8.4375-8.87696-8.5254-8.87696-22.76367 0-16.61133 11.07422-25.04883 11.16211-8.4375 33.22266-8.4375h22.67578v-1.58203q0-11.16211-7.38281-17.22657-7.29493-6.15234-20.56641-6.15234-8.4375 0-16.43555 2.02148-7.99804 2.02149-15.38086 6.06446v-14.9414q8.87696-3.42774 17.22657-5.09766 8.34961-1.75782 16.25976-1.75782 21.35742 0 31.9043 11.07422 10.54687 11.07422 10.54687 33.57422z"/><path id="path29" d="M656.01562-94.6582v15.11718q-6.85546-3.7793-13.79882-5.625-6.85547-1.93359-13.88672-1.93359-15.73242 0-24.4336 10.01953-8.70117 9.93164-8.70117 27.94922 0 18.01758 8.70117 28.03711 8.70118 9.93164 24.4336 9.93164 7.03125 0 13.88672-1.8457 6.94336-1.9336 13.79882-5.7129V-3.7793q-6.76757 3.16407-14.0625 4.7461-7.20703 1.58203-15.38085 1.58203-22.23633 0-35.33204-13.97461-13.0957-13.97461-13.0957-37.70508 0-24.08203 13.18359-37.88086 13.27149-13.79883 36.29883-13.79883 7.47071 0 14.58985 1.58203 7.11914 1.49414 13.79882 4.57032z"/><path id="path31" d="M683.52539-136.75781h16.25977v80.77148l48.25195-42.45117h20.6543l-52.20704 46.05469L770.88867 0h-21.09375l-50.00976-48.07617V0h-16.25977z"/></g></svg>