<svg xmlns="http://www.w3.org/2000/svg" role="img" viewBox="726.61 253.86 370.53 436.28"><title>CubeFS logo</title><path fill="url(#paint0_linear_2356_7978)" d="M761.692 415C761.692 499.316 830.043 567.667 914.357 567.667C985.555 567.667 1045.37 518.93 1062.26 453H985.519C971.933 478.39 945.167 495.667 914.357 495.667C869.807 495.667 833.692 459.551 833.692 415C833.692 370.45 869.807 334.334 914.357 334.334C947.796 334.334 976.481 354.68 988.711 383.667H1063.8C1049.35 314.383 987.933 262.334 914.357 262.334C830.043 262.334 761.692 330.684 761.692 415Z"/><path fill="url(#paint1_linear_2356_7978)" d="M833.692 416.334C833.692 493.354 900.045 550.215 982.535 551.634C1021.64 532.082 1051.18 496.24 1062.26 453H985.519C971.933 478.39 945.167 495.667 914.357 495.667C869.969 495.667 833.965 459.811 833.704 415.484C833.701 415.767 833.692 416.05 833.692 416.334Z"/><g opacity=".59"><g opacity=".59"><g opacity=".59"><g opacity=".59"><g opacity=".59"><path fill="url(#paint2_linear_2356_7978)" d="M833.751 412.649C833.745 412.849 833.74 413.048 833.736 413.248C833.74 413.048 833.745 412.849 833.751 412.649Z" opacity=".59"/></g></g></g></g></g><path fill="url(#paint3_linear_2356_7978)" d="M866.72 480.086C866.556 479.966 866.385 479.855 866.224 479.734C866.385 479.855 866.556 479.966 866.72 480.086Z"/><path fill="url(#paint4_linear_2356_7978)" d="M870.013 482.375C869.803 482.236 869.585 482.108 869.375 481.967C869.585 482.108 869.803 482.236 870.013 482.375Z"/><path fill="url(#paint5_linear_2356_7978)" d="M876.941 486.46C876.629 486.297 876.312 486.147 876.005 485.98C876.312 486.147 876.629 486.297 876.941 486.46Z"/><path fill="url(#paint6_linear_2356_7978)" d="M873.413 484.498C873.157 484.346 872.892 484.206 872.637 484.051C872.892 484.206 873.157 484.346 873.413 484.498Z"/><path fill="url(#paint7_linear_2356_7978)" d="M880.588 488.255C880.216 488.084 879.837 487.928 879.471 487.751C879.837 487.928 880.216 488.084 880.588 488.255Z"/><path fill="url(#paint8_linear_2356_7978)" d="M857.588 472.298C857.552 472.262 857.513 472.229 857.477 472.193C857.513 472.229 857.552 472.262 857.588 472.298Z"/><path fill="url(#paint9_linear_2356_7978)" d="M863.54 477.635C863.424 477.54 863.303 477.452 863.187 477.357C863.303 477.452 863.424 477.54 863.54 477.635Z"/><path fill="url(#paint10_linear_2356_7978)" d="M854.837 469.438C854.829 469.43 854.821 469.421 854.813 469.412C854.821 469.421 854.829 469.43 854.837 469.438Z"/><path fill="url(#paint11_linear_2356_7978)" d="M860.497 475.039C860.423 474.971 860.345 474.91 860.269 474.842C860.345 474.91 860.423 474.971 860.497 475.039Z"/><path fill="url(#paint12_linear_2356_7978)" d="M987.317 549.122C987.757 548.882 988.197 548.639 988.637 548.395C988.197 548.639 987.757 548.882 987.317 549.122Z"/><path fill="url(#paint13_linear_2356_7978)" d="M908.776 495.454C907.891 495.393 907.001 495.341 906.125 495.251C907.001 495.341 907.891 495.393 908.776 495.454Z"/><path fill="url(#paint14_linear_2356_7978)" d="M914.357 495.667C912.968 495.667 911.587 495.632 910.215 495.563C911.587 495.632 912.968 495.667 914.357 495.667Z"/><path fill="url(#paint15_linear_2356_7978)" d="M788.357 477C788.357 488.071 790.199 498.543 793.585 508.384C821.509 544.446 865.219 567.667 914.357 567.667C938.863 567.667 962.019 561.892 982.541 551.631C982.537 551.632 982.536 551.634 982.535 551.634C900.045 550.215 833.692 493.354 833.692 416.334C833.692 416.05 833.701 415.767 833.704 415.484C833.703 415.322 833.692 415.162 833.692 415C833.692 374.759 863.159 341.41 901.691 335.331V334.759C835.371 346.079 788.357 402.723 788.357 477"/><path fill="url(#paint16_linear_2356_7978)" d="M884.323 489.865C883.893 489.693 883.457 489.536 883.032 489.357C883.457 489.536 883.893 489.693 884.323 489.865Z"/><path fill="url(#paint17_linear_2356_7978)" d="M904.407 495.035C903.636 494.939 902.861 494.856 902.096 494.74C902.861 494.856 903.636 494.939 904.407 495.035Z"/><path fill="url(#paint18_linear_2356_7978)" d="M900.124 494.39C899.46 494.271 898.792 494.168 898.133 494.035C898.792 494.168 899.46 494.271 900.124 494.39Z"/><path fill="url(#paint19_linear_2356_7978)" d="M888.167 491.295C887.673 491.126 887.173 490.971 886.685 490.794C887.173 490.971 887.673 491.126 888.167 491.295Z"/><path fill="url(#paint20_linear_2356_7978)" d="M896.063 493.558C895.456 493.416 894.841 493.292 894.24 493.138C894.841 493.292 895.456 493.416 896.063 493.558Z"/><path fill="url(#paint21_linear_2356_7978)" d="M892.105 492.532C891.545 492.372 890.977 492.227 890.421 492.055C890.977 492.227 891.545 492.372 892.105 492.532Z"/><path fill="url(#paint22_linear_2356_7978)" d="M1045.08 493.889C1045.3 493.523 1045.51 493.155 1045.73 492.79C1045.51 493.155 1045.3 493.523 1045.08 493.889Z"/><path fill="url(#paint23_linear_2356_7978)" d="M1041.61 499.346C1041.81 499.05 1042.01 498.756 1042.21 498.46C1042.01 498.756 1041.81 499.05 1041.61 499.346Z"/><path fill="url(#paint24_linear_2356_7978)" d="M1048.11 488.637C1048.25 488.374 1048.4 488.114 1048.55 487.851C1048.4 488.114 1048.25 488.374 1048.11 488.637Z"/><path fill="url(#paint25_linear_2356_7978)" d="M1051.06 483.017C1051.26 482.625 1051.45 482.229 1051.64 481.834C1051.45 482.229 1051.26 482.625 1051.06 483.017Z"/><path fill="url(#paint26_linear_2356_7978)" d="M1053.75 477.328C1053.84 477.12 1053.94 476.916 1054.03 476.709C1053.94 476.916 1053.84 477.12 1053.75 477.328Z"/><path fill="url(#paint27_linear_2356_7978)" d="M1026.24 518.854C1026.53 518.534 1026.83 518.219 1027.13 517.895C1026.83 518.216 1026.53 518.534 1026.24 518.854Z"/><path fill="url(#paint28_linear_2356_7978)" d="M1030.65 513.897C1030.91 513.6 1031.15 513.299 1031.41 512.999C1031.15 513.299 1030.91 513.6 1030.65 513.897Z"/><path fill="url(#paint29_linear_2356_7978)" d="M1034.31 509.427C1034.55 509.115 1034.8 508.805 1035.05 508.491C1034.8 508.805 1034.55 509.115 1034.31 509.427Z"/><path fill="url(#paint30_linear_2356_7978)" d="M1038.26 504.197C1038.5 503.864 1038.73 503.527 1038.97 503.192C1038.73 503.527 1038.5 503.864 1038.26 504.197Z"/><path fill="url(#paint31_linear_2356_7978)" d="M1060.34 459.756C1060.48 459.323 1060.61 458.889 1060.73 458.455C1060.61 458.889 1060.48 459.323 1060.34 459.756Z"/><path fill="url(#paint32_linear_2356_7978)" d="M1056.17 471.623C1056.33 471.208 1056.49 470.792 1056.66 470.375C1056.49 470.792 1056.33 471.208 1056.17 471.623Z"/><path fill="url(#paint33_linear_2356_7978)" d="M1008.02 535.551C1008.4 535.256 1008.78 534.96 1009.15 534.661C1008.78 534.96 1008.4 535.256 1008.02 535.551Z"/><path fill="url(#paint34_linear_2356_7978)" d="M1003.58 538.887C1003.79 538.737 1003.99 538.581 1004.2 538.429C1003.99 538.581 1003.79 538.737 1003.58 538.887Z"/><path fill="url(#paint35_linear_2356_7978)" d="M997.953 542.748C998.368 542.476 998.781 542.205 999.195 541.929C998.781 542.205 998.368 542.476 997.953 542.748Z"/><path fill="url(#paint36_linear_2356_7978)" d="M1013.27 531.287C1013.51 531.082 1013.75 530.868 1013.99 530.66C1013.75 530.868 1013.51 531.082 1013.27 531.287Z"/><path fill="url(#paint37_linear_2356_7978)" d="M993.293 545.7C993.439 545.612 993.581 545.519 993.725 545.43C993.581 545.519 993.439 545.612 993.293 545.7Z"/><path fill="url(#paint38_linear_2356_7978)" d="M1017.46 527.571C1017.8 527.261 1018.14 526.951 1018.48 526.638C1018.14 526.951 1017.8 527.259 1017.46 527.571Z"/><path fill="url(#paint39_linear_2356_7978)" d="M1058.48 465.454C1058.53 465.326 1058.57 465.203 1058.62 465.075C1058.57 465.203 1058.53 465.326 1058.48 465.454Z"/><path fill="url(#paint40_linear_2356_7978)" d="M1022.31 522.941C1022.56 522.688 1022.81 522.428 1023.06 522.172C1022.81 522.428 1022.56 522.688 1022.31 522.941Z"/><path fill="url(#paint41_linear_2356_7978)" d="M923.417 379.267C919.551 381.223 916.653 383.91 914.728 387.326C912.8 390.744 911.837 394.375 911.837 398.219C911.837 404.067 913.72 408.879 917.484 412.655C921.219 416.428 927.468 419.456 936.232 421.734C941.584 423.094 944.995 424.539 946.465 426.07C947.935 427.6 948.671 429.335 948.671 431.274C948.671 433.314 947.897 435.107 946.353 436.655C944.812 438.203 942.612 438.975 939.761 438.975C935.937 438.975 932.996 437.463 930.937 434.435C929.673 432.566 928.836 429.844 928.423 426.275L909.412 427.652C909.971 435.202 912.367 441.424 916.601 446.322C920.837 451.219 928.453 453.667 939.451 453.667C945.715 453.667 950.905 452.622 955.023 450.53C959.14 448.438 962.345 445.368 964.639 441.323C966.932 437.275 968.08 432.854 968.08 428.059C968.08 423.979 967.219 420.288 965.499 416.99C963.779 413.691 961.028 410.927 957.249 408.7C953.471 406.474 947.215 404.271 938.48 402.094C934.952 401.244 932.719 400.326 931.776 399.339C930.807 398.387 930.32 397.316 930.32 396.126C930.32 394.494 930.908 393.107 932.084 391.968C933.261 390.83 935.011 390.26 937.333 390.26C940.157 390.26 942.369 391.026 943.973 392.555C945.576 394.086 946.625 396.535 947.127 399.9L965.96 398.626C965.139 390.872 962.557 385.219 958.22 381.664C953.883 378.11 947.583 376.334 939.319 376.334C932.585 376.334 927.284 377.312 923.417 379.267"/><path fill="url(#paint42_linear_2356_7978)" d="M865.412 377.667V452.334H885.453V421.825H913.172V413.111C911.705 411.342 910.463 409.174 909.571 406.75H885.453V393.711H908.54C909.861 387.094 913.899 381.467 919.177 377.667H865.412Z"/><path fill="#212121" d="M769.211 670.483C777.396 670.483 782.691 666.554 785.098 658.696L796.743 664.095C795.118 669.673 791.929 674.052 787.175 677.231 782.42 680.41 776.523 682 769.482 682 762.742 682 756.754 680.38 751.519 677.141 746.283 673.962 742.221 669.463 739.333 663.645 736.444 657.826 735 651.108 735 643.49 735 635.932 736.444 629.243 739.333 623.425 742.221 617.606 746.283 613.077 751.519 609.838 756.754 606.599 762.742 604.98 769.482 604.98 776.523 604.98 782.42 606.569 787.175 609.748 791.929 612.868 795.118 617.216 796.743 622.795L785.098 628.284C782.691 620.426 777.396 616.497 769.211 616.497 765.3 616.497 761.809 617.636 758.74 619.916 755.731 622.135 753.384 625.284 751.699 629.363 750.014 633.442 749.172 638.151 749.172 643.49 749.172 648.828 750.014 653.537 751.699 657.616 753.384 661.695 755.731 664.874 758.74 667.154 761.809 669.373 765.3 670.483 769.211 670.483zM842.279 680.74C841.918 678.641 841.708 675.912 841.647 672.552 837.495 678.851 831.086 682 822.42 682 816.523 682 811.889 680.23 808.519 676.691 805.149 673.152 803.464 668.203 803.464 661.845V625.404H816.553V659.686C816.553 667.244 820.134 671.023 827.295 671.023 831.327 671.023 834.516 669.703 836.863 667.064 839.21 664.364 840.384 660.705 840.384 656.087V625.404H853.472V668.054C853.472 673.212 853.623 677.441 853.924 680.74H842.279zM917.588 653.117C917.588 658.756 916.535 663.765 914.429 668.144 912.323 672.522 909.464 675.912 905.854 678.311 902.243 680.77 898.271 682 893.938 682 890.027 682 886.536 681.19 883.467 679.571 880.398 678.011 877.841 675.732 875.795 672.732 875.734 675.972 875.524 678.641 875.163 680.74H863.518C863.819 677.441 863.97 673.212 863.97 668.054V603H877.058V631.793C879.044 629.333 881.482 627.444 884.37 626.124 887.259 624.804 890.448 624.145 893.938 624.145 898.271 624.145 902.243 625.374 905.854 627.834 909.464 630.233 912.323 633.652 914.429 638.091 916.535 642.47 917.588 647.479 917.588 653.117zM904.409 653.117C904.409 647.479 903.146 642.98 900.618 639.621 898.091 636.202 894.781 634.492 890.689 634.492 886.597 634.492 883.287 636.202 880.759 639.621 878.292 643.04 877.058 647.539 877.058 653.117 877.058 658.696 878.292 663.195 880.759 666.614 883.287 669.973 886.597 671.653 890.689 671.653 894.781 671.653 898.091 669.973 900.618 666.614 903.146 663.195 904.409 658.696 904.409 653.117zM974.445 656.626H936.623C937.044 661.545 938.488 665.294 940.956 667.874 943.483 670.393 946.763 671.653 950.795 671.653 953.924 671.653 956.391 670.993 958.197 669.673 960.062 668.293 961.507 666.344 962.53 663.825L973.362 668.953C969.691 677.651 962.229 682 950.975 682 945.379 682 940.504 680.77 936.352 678.311 932.2 675.912 929.01 672.522 926.784 668.144 924.557 663.765 923.444 658.756 923.444 653.117 923.444 647.479 924.557 642.47 926.784 638.091 929.071 633.712 932.17 630.293 936.081 627.834 939.993 625.374 944.386 624.145 949.26 624.145 954.436 624.145 958.919 625.344 962.71 627.744 966.562 630.143 969.51 633.532 971.556 637.911 973.602 642.23 974.626 647.299 974.626 653.117 974.626 654.377 974.565 655.547 974.445 656.626zM936.894 647.269H961.266C960.785 643.07 959.521 639.891 957.475 637.731 955.429 635.572 952.66 634.492 949.17 634.492 945.92 634.492 943.212 635.602 941.046 637.821 938.88 640.041 937.496 643.19 936.894 647.269zM997.381 618.026V636.741H1026.18V648.618H997.381V680.74H983.209V606.149H1028.25V618.026H997.381zM1036.28 626.574C1036.28 622.375 1037.31 618.656 1039.35 615.417 1041.46 612.118 1044.47 609.568 1048.38 607.769 1052.29 605.909 1056.89 604.98 1062.19 604.98 1068.93 604.98 1074.47 606.329 1078.8 609.028 1083.13 611.668 1086.11 615.537 1087.74 620.636L1076.45 625.854C1075.31 622.915 1073.62 620.696 1071.4 619.196 1069.23 617.696 1066.28 616.946 1062.55 616.946 1058.52 616.946 1055.48 617.726 1053.43 619.286 1051.45 620.785 1050.46 623.005 1050.46 625.944 1050.46 628.763 1051.51 630.923 1053.62 632.423 1055.72 633.922 1059.42 635.152 1064.72 636.112 1073.2 637.611 1079.37 640.221 1083.22 643.94 1087.07 647.659 1089 652.817 1089 659.416 1089 663.735 1087.83 667.634 1085.48 671.113 1083.19 674.532 1079.94 677.201 1075.73 679.121 1071.58 681.04 1066.85 682 1061.56 682 1054.22 682 1048.11 680.5 1043.23 677.501 1038.36 674.502 1035.11 670.243 1033.49 664.724L1044.86 659.416C1045.94 662.895 1047.9 665.534 1050.73 667.334 1053.55 669.133 1057.14 670.033 1061.47 670.033 1065.8 670.033 1069.08 669.163 1071.31 667.424 1073.59 665.624 1074.74 663.075 1074.74 659.776 1074.74 656.656 1073.53 654.197 1071.13 652.397 1068.78 650.598 1064.69 649.158 1058.85 648.079 1051.15 646.699 1045.46 644.24 1041.79 640.7 1038.12 637.161 1036.28 632.453 1036.28 626.574z"/><defs><linearGradient id="paint0_linear_2356_7978" x1="763.985" x2="1064.65" y1="441.515" y2="388.499" gradientUnits="userSpaceOnUse"><stop stop-color="#3F8DBB"/><stop offset="1" stop-color="#0F578B"/></linearGradient><linearGradient id="paint1_linear_2356_7978" x1="1048.11" x2="860.843" y1="421.23" y2="504.607" gradientUnits="userSpaceOnUse"><stop stop-color="#3282B4"/><stop offset="1" stop-color="#0F578B"/></linearGradient><linearGradient id="paint2_linear_2356_7978" x1="833.896" x2="833.589" y1="412.795" y2="413.102" gradientUnits="userSpaceOnUse"><stop stop-color="#3F8DBB"/><stop offset="1" stop-color="#0F578B"/></linearGradient><linearGradient id="paint3_linear_2356_7978" x1="866.734" x2="866.209" y1="480.062" y2="479.759" gradientUnits="userSpaceOnUse"><stop stop-color="#4798C7"/><stop offset="1" stop-color="#0A5183"/></linearGradient><linearGradient id="paint4_linear_2356_7978" x1="870.022" x2="869.367" y1="482.36" y2="481.982" gradientUnits="userSpaceOnUse"><stop stop-color="#4798C7"/><stop offset="1" stop-color="#0A5183"/></linearGradient><linearGradient id="paint5_linear_2356_7978" x1="876.928" x2="876.017" y1="486.483" y2="485.957" gradientUnits="userSpaceOnUse"><stop stop-color="#4798C7"/><stop offset="1" stop-color="#0A5183"/></linearGradient><linearGradient id="paint6_linear_2356_7978" x1="873.413" x2="872.638" y1="484.499" y2="484.051" gradientUnits="userSpaceOnUse"><stop stop-color="#4798C7"/><stop offset="1" stop-color="#0A5183"/></linearGradient><linearGradient id="paint7_linear_2356_7978" x1="880.557" x2="879.501" y1="488.308" y2="487.698" gradientUnits="userSpaceOnUse"><stop stop-color="#4798C7"/><stop offset="1" stop-color="#0A5183"/></linearGradient><linearGradient id="paint8_linear_2356_7978" x1="857.598" x2="857.468" y1="472.283" y2="472.208" gradientUnits="userSpaceOnUse"><stop stop-color="#4798C7"/><stop offset="1" stop-color="#0A5183"/></linearGradient><linearGradient id="paint9_linear_2356_7978" x1="863.557" x2="863.171" y1="477.607" y2="477.385" gradientUnits="userSpaceOnUse"><stop stop-color="#4798C7"/><stop offset="1" stop-color="#0A5183"/></linearGradient><linearGradient id="paint10_linear_2356_7978" x1="854.84" x2="854.81" y1="469.434" y2="469.417" gradientUnits="userSpaceOnUse"><stop stop-color="#4798C7"/><stop offset="1" stop-color="#0A5183"/></linearGradient><linearGradient id="paint11_linear_2356_7978" x1="860.512" x2="860.255" y1="475.014" y2="474.866" gradientUnits="userSpaceOnUse"><stop stop-color="#4798C7"/><stop offset="1" stop-color="#0A5183"/></linearGradient><linearGradient id="paint12_linear_2356_7978" x1="988.314" x2="987.639" y1="548.953" y2="548.564" gradientUnits="userSpaceOnUse"><stop stop-color="#4798C7"/><stop offset="1" stop-color="#0A5183"/></linearGradient><linearGradient id="paint13_linear_2356_7978" x1="908.489" x2="906.413" y1="495.952" y2="494.754" gradientUnits="userSpaceOnUse"><stop stop-color="#4798C7"/><stop offset="1" stop-color="#0A5183"/></linearGradient><linearGradient id="paint14_linear_2356_7978" x1="913.863" x2="910.71" y1="496.525" y2="494.705" gradientUnits="userSpaceOnUse"><stop stop-color="#4798C7"/><stop offset="1" stop-color="#0A5183"/></linearGradient><linearGradient id="paint15_linear_2356_7978" x1="1002.27" x2="805.743" y1="517.449" y2="403.981" gradientUnits="userSpaceOnUse"><stop stop-color="#4798C7"/><stop offset="1" stop-color="#0A5183"/></linearGradient><linearGradient id="paint16_linear_2356_7978" x1="884.271" x2="883.084" y1="489.953" y2="489.268" gradientUnits="userSpaceOnUse"><stop stop-color="#4798C7"/><stop offset="1" stop-color="#0A5183"/></linearGradient><linearGradient id="paint17_linear_2356_7978" x1="904.182" x2="902.322" y1="495.424" y2="494.351" gradientUnits="userSpaceOnUse"><stop stop-color="#4798C7"/><stop offset="1" stop-color="#0A5183"/></linearGradient><linearGradient id="paint18_linear_2356_7978" x1="899.952" x2="898.306" y1="494.687" y2="493.737" gradientUnits="userSpaceOnUse"><stop stop-color="#4798C7"/><stop offset="1" stop-color="#0A5183"/></linearGradient><linearGradient id="paint19_linear_2356_7978" x1="888.09" x2="886.761" y1="491.428" y2="490.66" gradientUnits="userSpaceOnUse"><stop stop-color="#4798C7"/><stop offset="1" stop-color="#0A5183"/></linearGradient><linearGradient id="paint20_linear_2356_7978" x1="895.926" x2="894.377" y1="493.795" y2="492.9" gradientUnits="userSpaceOnUse"><stop stop-color="#4798C7"/><stop offset="1" stop-color="#0A5183"/></linearGradient><linearGradient id="paint21_linear_2356_7978" x1="891.999" x2="890.528" y1="492.718" y2="491.87" gradientUnits="userSpaceOnUse"><stop stop-color="#4798C7"/><stop offset="1" stop-color="#0A5183"/></linearGradient><linearGradient id="paint22_linear_2356_7978" x1="1045.41" x2="1045.4" y1="493.343" y2="493.335" gradientUnits="userSpaceOnUse"><stop stop-color="#4798C7"/><stop offset="1" stop-color="#0A5183"/></linearGradient><linearGradient id="paint23_linear_2356_7978" x1="1041.94" x2="1041.88" y1="498.92" y2="498.885" gradientUnits="userSpaceOnUse"><stop stop-color="#4798C7"/><stop offset="1" stop-color="#0A5183"/></linearGradient><linearGradient id="paint24_linear_2356_7978" x1="1048.33" x2="1048.32" y1="488.247" y2="488.24" gradientUnits="userSpaceOnUse"><stop stop-color="#4798C7"/><stop offset="1" stop-color="#0A5183"/></linearGradient><linearGradient id="paint25_linear_2356_7978" x1="1051.39" x2="1051.31" y1="482.447" y2="482.403" gradientUnits="userSpaceOnUse"><stop stop-color="#4798C7"/><stop offset="1" stop-color="#0A5183"/></linearGradient><linearGradient id="paint26_linear_2356_7978" x1="1053.92" x2="1053.86" y1="477.034" y2="477.002" gradientUnits="userSpaceOnUse"><stop stop-color="#4798C7"/><stop offset="1" stop-color="#0A5183"/></linearGradient><linearGradient id="paint27_linear_2356_7978" x1="1026.81" x2="1026.56" y1="518.447" y2="518.301" gradientUnits="userSpaceOnUse"><stop stop-color="#4798C7"/><stop offset="1" stop-color="#0A5183"/></linearGradient><linearGradient id="paint28_linear_2356_7978" x1="1031.12" x2="1030.94" y1="513.498" y2="513.398" gradientUnits="userSpaceOnUse"><stop stop-color="#4798C7"/><stop offset="1" stop-color="#0A5183"/></linearGradient><linearGradient id="paint29_linear_2356_7978" x1="1034.75" x2="1034.6" y1="509.002" y2="508.916" gradientUnits="userSpaceOnUse"><stop stop-color="#4798C7"/><stop offset="1" stop-color="#0A5183"/></linearGradient><linearGradient id="paint30_linear_2356_7978" x1="1038.66" x2="1038.57" y1="503.722" y2="503.666" gradientUnits="userSpaceOnUse"><stop stop-color="#4798C7"/><stop offset="1" stop-color="#0A5183"/></linearGradient><linearGradient id="paint31_linear_2356_7978" x1="1060.68" x2="1060.4" y1="459.183" y2="459.027" gradientUnits="userSpaceOnUse"><stop stop-color="#4798C7"/><stop offset="1" stop-color="#0A5183"/></linearGradient><linearGradient id="paint32_linear_2356_7978" x1="1056.5" x2="1056.32" y1="471.049" y2="470.949" gradientUnits="userSpaceOnUse"><stop stop-color="#4798C7"/><stop offset="1" stop-color="#0A5183"/></linearGradient><linearGradient id="paint33_linear_2356_7978" x1="1008.82" x2="1008.35" y1="535.242" y2="534.972" gradientUnits="userSpaceOnUse"><stop stop-color="#4798C7"/><stop offset="1" stop-color="#0A5183"/></linearGradient><linearGradient id="paint34_linear_2356_7978" x1="1004.03" x2="1003.76" y1="538.735" y2="538.582" gradientUnits="userSpaceOnUse"><stop stop-color="#4798C7"/><stop offset="1" stop-color="#0A5183"/></linearGradient><linearGradient id="paint35_linear_2356_7978" x1="998.861" x2="998.285" y1="542.505" y2="542.173" gradientUnits="userSpaceOnUse"><stop stop-color="#4798C7"/><stop offset="1" stop-color="#0A5183"/></linearGradient><linearGradient id="paint36_linear_2356_7978" x1="1013.76" x2="1013.5" y1="531.052" y2="530.897" gradientUnits="userSpaceOnUse"><stop stop-color="#4798C7"/><stop offset="1" stop-color="#0A5183"/></linearGradient><linearGradient id="paint37_linear_2356_7978" x1="993.613" x2="993.405" y1="545.625" y2="545.505" gradientUnits="userSpaceOnUse"><stop stop-color="#4798C7"/><stop offset="1" stop-color="#0A5183"/></linearGradient><linearGradient id="paint38_linear_2356_7978" x1="1018.15" x2="1017.79" y1="527.208" y2="527.001" gradientUnits="userSpaceOnUse"><stop stop-color="#4798C7"/><stop offset="1" stop-color="#0A5183"/></linearGradient><linearGradient id="paint39_linear_2356_7978" x1="1058.58" x2="1058.52" y1="465.282" y2="465.247" gradientUnits="userSpaceOnUse"><stop stop-color="#4798C7"/><stop offset="1" stop-color="#0A5183"/></linearGradient><linearGradient id="paint40_linear_2356_7978" x1="1022.8" x2="1022.57" y1="522.623" y2="522.489" gradientUnits="userSpaceOnUse"><stop stop-color="#4798C7"/><stop offset="1" stop-color="#0A5183"/></linearGradient><linearGradient id="paint41_linear_2356_7978" x1="912.176" x2="965.401" y1="441.951" y2="388.726" gradientUnits="userSpaceOnUse"><stop stop-color="#51A2D1"/><stop offset="1" stop-color="#0E5688"/></linearGradient><linearGradient id="paint42_linear_2356_7978" x1="851.756" x2="915.972" y1="438.678" y2="374.462" gradientUnits="userSpaceOnUse"><stop stop-color="#51A2D1"/><stop offset="1" stop-color="#0E5688"/></linearGradient></defs></svg>