<svg xmlns="http://www.w3.org/2000/svg" role="img" viewBox="-1.30 47.45 119.47 27.97"><title>Cuegee (member) logo</title><path fill="#be1622" d="M16.91 55.309c-.188-2.041-2.949-4.3-6.81-4.3-5.085 0-7.627 3.609-7.627 7.438 0 2.605 1.821 7.124 7.627 7.124 3.233 0 6.309-1.538 7.03-4.865h1.444c-.848 4.206-4.426 6.121-8.474 6.121-5.273 0-9.07-3.39-9.07-8.38 0-5.649 4.142-8.694 9.07-8.694 4.927 0 8.066 2.824 8.254 5.555H16.91zm19.897 11.017h-1.443v-3.201H35.3c-1.004 1.914-3.106 3.703-6.779 3.703-7.375 0-7.375-4.708-7.375-6.654v-9.918h1.444v9.855c0 3.264 1.224 5.46 5.963 5.46s6.811-2.95 6.811-5.932v-9.384h1.443zm4.016-7.722c.092 4.018 2.824 6.967 7.657 6.967 4.99 0 6.276-3.139 6.843-4.582h1.443c-1.35 4.048-4.174 5.838-8.443 5.838-5.492 0-8.944-3.327-8.944-8.663 0-3.358 2.134-8.411 8.977-8.411 5.587 0 8.788 3.703 8.851 8.851zm14.75-1.255c-.596-4.394-3.671-6.34-7.375-6.34-4.143 0-6.748 2.51-7.375 6.34z"/><path fill="#605958" d="M74.874 50.255h1.443V65.54c0 3.671-1.318 7.689-8.787 7.689-4.991 0-7.784-1.475-8.317-5.398h1.443c.346 2.542 2.165 4.143 6.874 4.143 6.245 0 7.344-3.39 7.344-6.371v-3.327h-.063c-1.412 2.667-4.144 3.86-7.533 3.86-6.246 0-8.725-3.985-8.725-8.286 0-4.205 2.636-8.097 8.756-8.097 2.889 0 5.964.785 7.502 3.735l.063.031zm-14.876 7.532c0 4.582 2.698 7.094 7.469 7.094 4.174 0 7.407-2.26 7.407-7.125 0-4.237-2.856-6.748-7.564-6.748-3.797 0-7.312 2.134-7.312 6.779zm20.335.817c.094 4.018 2.825 6.967 7.659 6.967 4.989 0 6.276-3.139 6.842-4.582h1.443c-1.35 4.048-4.175 5.838-8.442 5.838-5.493 0-8.946-3.327-8.946-8.663 0-3.358 2.134-8.411 8.977-8.411 5.588 0 8.789 3.703 8.852 8.851zm14.752-1.255c-.597-4.394-3.672-6.34-7.375-6.34-4.144 0-6.749 2.51-7.377 6.34zm4.422 1.255c.094 4.018 2.826 6.967 7.659 6.967 4.989 0 6.276-3.139 6.842-4.582h1.443c-1.35 4.048-4.174 5.838-8.442 5.838-5.492 0-8.944-3.327-8.944-8.663 0-3.358 2.134-8.411 8.977-8.411 5.586 0 8.787 3.703 8.851 8.851zm14.752-1.255c-.597-4.394-3.672-6.34-7.375-6.34-4.144 0-6.749 2.51-7.377 6.34z"/></svg>