<svg xmlns="http://www.w3.org/2000/svg" role="img" xmlns:xlink="http://www.w3.org/1999/xlink" viewBox="16.02 14.02 297.70 151.70"><title>Cyber Armor logo</title><defs><linearGradient id="a" x1="1.52" x2="285.66" y1="64.92" y2="-38.97" gradientUnits="userSpaceOnUse"><stop offset=".17" stop-color="#e5231a"/><stop offset=".81" stop-color="#29ace2"/></linearGradient><linearGradient id="b" x1="7.41" x2="291.55" y1="81.01" y2="-22.88" xlink:href="#a"/><linearGradient id="c" x1="23.05" x2="307.19" y1="123.8" y2="19.9" xlink:href="#a"/><linearGradient id="d" x1="41.86" x2="326" y1="175.23" y2="71.34" xlink:href="#a"/><linearGradient id="e" x1="49.41" x2="333.55" y1="195.88" y2="91.98" xlink:href="#a"/><linearGradient id="f" x1="28.63" x2="312.77" y1="139.06" y2="35.16" xlink:href="#a"/><linearGradient id="g" x1="14.81" x2="298.95" y1="101.25" y2="-2.64" xlink:href="#a"/><linearGradient id="h" x1="30.56" x2="314.7" y1="144.34" y2="40.45" xlink:href="#a"/><linearGradient id="i" x1="56.76" x2="340.9" y1="215.98" y2="112.09" xlink:href="#a"/><linearGradient id="j" x1="34.62" x2="318.76" y1="155.43" y2="51.54" xlink:href="#a"/></defs><path fill="url(#a)" d="M34.42 76.78A20.7 20.7 0 0 0 44 78.94a20.52 20.52 0 0 0 9.53-2.16A15.76 15.76 0 0 0 60 70.66a17.93 17.93 0 0 0 2.29-9.1 1 1 0 0 0-1.15-1.11l-.85-.08a1.09 1.09 0 0 0-1.19 1.19v.16A13.52 13.52 0 0 1 55 72a15.36 15.36 0 0 1-11 3.91c-4.55 0-8.25-1.32-11-3.92a13.52 13.52 0 0 1-4.15-10.27V37A13.4 13.4 0 0 1 33 26.75c2.77-2.58 6.47-3.88 11-3.88s8.23 1.3 11 3.88A13.47 13.47 0 0 1 59.12 37v.24a1.06 1.06 0 0 0 1.19 1.11h.82a1.12 1.12 0 0 0 1.19-1.27 17.54 17.54 0 0 0-2.29-9A15.79 15.79 0 0 0 53.57 22 20.4 20.4 0 0 0 44 19.84 20.57 20.57 0 0 0 34.42 22 15.79 15.79 0 0 0 28 28.08a17.63 17.63 0 0 0-2.28 9v24.39A18.2 18.2 0 0 0 28 70.61a15.62 15.62 0 0 0 6.42 6.17z"/><path fill="url(#b)" d="M120.44 20.49h-.73a1.55 1.55 0 0 0-1.3.75l-15.71 26.4L87 21.22a1.52 1.52 0 0 0-1.28-.73H85c-1 0-1.11.66-1.11.86a1.42 1.42 0 0 0 .22.68l17 28.66a1.23 1.23 0 0 1 0 .2V77a1.1 1.1 0 0 0 1.19 1.19h.82a1.09 1.09 0 0 0 1.17-1.19V50.68l17-28.65a1 1 0 0 0 .09-1.07 1 1 0 0 0-.94-.47z"/><path fill="url(#c)" d="M243.55 78.21a1.1 1.1 0 0 0 1.19-1.21v-.65a1.09 1.09 0 0 0-1.19-1.19h-31.78V50.78h22.9a1.09 1.09 0 0 0 1.18-1.19v-.65a1.09 1.09 0 0 0-1.18-1.19h-22.9V23.52h31.77a1.1 1.1 0 0 0 1.19-1.19v-.65a1.09 1.09 0 0 0-1.19-1.19h-33.77a1.09 1.09 0 0 0-1.19 1.19V77a1.09 1.09 0 0 0 1.19 1.19z"/><path fill="url(#d)" d="M182.69 101.87h-1a1.55 1.55 0 0 0-1.29.75l-16.78 26.17-16.93-26.19a1.55 1.55 0 0 0-1.28-.73h-1a1.09 1.09 0 0 0-1.18 1.19v55.34a1.08 1.08 0 0 0 1.18 1.19h.82a1.09 1.09 0 0 0 1.19-1.19l-.05-50.46 15.73 24.15a1.54 1.54 0 0 0 1.28.73h.49a1.57 1.57 0 0 0 1.29-.75l15.5-24.21v50.54a1.09 1.09 0 0 0 1.19 1.19h.82a1.09 1.09 0 0 0 1.19-1.19v-55.34a1.1 1.1 0 0 0-1.17-1.19zm-19.07 26.95z"/><path fill="url(#e)" d="M237.42 103.51a20.33 20.33 0 0 0-9.78-2.29 20 20 0 0 0-9.67 2.29 16.19 16.19 0 0 0-6.53 6.49 19.44 19.44 0 0 0-2.33 9.58V142a19.12 19.12 0 0 0 2.33 9.51 16.44 16.44 0 0 0 6.53 6.41 20.05 20.05 0 0 0 9.67 2.28 20.44 20.44 0 0 0 9.78-2.28 16.44 16.44 0 0 0 6.58-6.41 19.11 19.11 0 0 0 2.32-9.51v-22.42A19.57 19.57 0 0 0 244 110a16.19 16.19 0 0 0-6.58-6.49zm5.71 16v22.55a14.81 14.81 0 0 1-4.24 11c-2.82 2.76-6.6 4.17-11.25 4.17s-8.35-1.41-11.13-4.17a14.85 14.85 0 0 1-4.21-11V119.5a14.45 14.45 0 0 1 15.34-15.25c4.64 0 8.43 1.42 11.25 4.21a14.93 14.93 0 0 1 4.24 11.04z"/><path fill="url(#f)" d="M44 102.78a1.34 1.34 0 0 0-1.33-.9h-1.16a1.33 1.33 0 0 0-1.33.91L22 158.22a1.13 1.13 0 0 0 .1 1 1.09 1.09 0 0 0 .91.36h.81a1.31 1.31 0 0 0 1.33-.91l3.75-11.49.81-2.83 12.42-37.83 12.43 37.83 4.72 14.34a1.33 1.33 0 0 0 1.33.89h.73c1 0 1.11-.72 1.1-1l-.09-.35z"/><path fill="url(#g)" d="M145.71 78.21h18.75c4.79 0 8.71-1.43 11.65-4.26s4.43-6.64 4.43-11.34a15.76 15.76 0 0 0-2.55-9 14.12 14.12 0 0 0-6.66-5.24 13.48 13.48 0 0 0 8.64-13 14.12 14.12 0 0 0-4.39-10.82c-2.91-2.68-6.82-4-11.61-4h-18.23a1.09 1.09 0 0 0-1.19 1.19v43.58a1.08 1.08 0 0 0 1.19 1.19h.81a1.09 1.09 0 0 0 1.19-1.19v-41.8H164a13.16 13.16 0 0 1 9.3 3.27 11.3 11.3 0 0 1 3.51 8.64 10.65 10.65 0 0 1-3.5 8.27 13.43 13.43 0 0 1-9.15 3.15h-9.19A1 1 0 0 0 153.8 48v.76a1 1 0 0 0 1.14 1.14h9.11a13.56 13.56 0 0 1 9.67 3.43 12.13 12.13 0 0 1 3.63 9.21 12.21 12.21 0 0 1-3.51 9.13 12.9 12.9 0 0 1-9.38 3.44h-18.75a1.06 1.06 0 0 0-1.16 1.16V77a1.07 1.07 0 0 0 1.16 1.21z"/><path fill="url(#h)" d="M272.75 78.37h.81a1.09 1.09 0 0 0 1.19-1.19v-53.5h17.69A11.49 11.49 0 0 1 301 27a12.13 12.13 0 0 1 3.27 8.81 12 12 0 0 1-3.27 8.76 11.49 11.49 0 0 1-8.57 3.35h-10.51a1 1 0 0 0-1.11 1.1v.73a1 1 0 0 0 1.11 1.11h10.12l13 26.67a1.31 1.31 0 0 0 1.32.8h.73a.9.9 0 0 0 1-.94 1.34 1.34 0 0 0-.12-.58L295.19 50.6a13.73 13.73 0 0 0 8.94-4.71 15.19 15.19 0 0 0 3.34-10 15 15 0 0 0-4.14-11 14.64 14.64 0 0 0-10.89-4.22h-19.69a1.09 1.09 0 0 0-1.19 1.19v55.32a1.08 1.08 0 0 0 1.19 1.19zm22.34-27.73z"/><path fill="url(#i)" d="M295.2 131.82a13.73 13.73 0 0 0 8.93-4.71 15.19 15.19 0 0 0 3.34-10 15 15 0 0 0-4.14-11 14.61 14.61 0 0 0-10.89-4.23h-19.69a1.09 1.09 0 0 0-1.19 1.19v55.33a1.08 1.08 0 0 0 1.19 1.19h.81a1.09 1.09 0 0 0 1.19-1.19v-53.5h17.69a11.49 11.49 0 0 1 8.57 3.35 13.4 13.4 0 0 1 0 17.54 11.49 11.49 0 0 1-8.57 3.35h-10.52a1 1 0 0 0-1.11 1.1v.76a1 1 0 0 0 1.11 1.1h10.12l13 26.68a1.31 1.31 0 0 0 1.32.79h.73a.9.9 0 0 0 1-.94 1.26 1.26 0 0 0-.12-.57zm-.09 0z"/><path fill="url(#j)" d="M107.45 131.82a13.69 13.69 0 0 0 8.92-4.71 16.66 16.66 0 0 0-.79-21 14.61 14.61 0 0 0-10.89-4.23H85a1.09 1.09 0 0 0-1.19 1.19v55.33a1.08 1.08 0 0 0 1.19 1.19h.81A1.09 1.09 0 0 0 87 158.4v-53.5h17.69a11.46 11.46 0 0 1 8.56 3.35 13.36 13.36 0 0 1 0 17.54 11.46 11.46 0 0 1-8.56 3.35H94.17a1 1 0 0 0-1.11 1.1v.76a1 1 0 0 0 1.11 1.1h10.12l13 26.68a1.3 1.3 0 0 0 1.32.79h.73a.91.91 0 0 0 1-.94 1.26 1.26 0 0 0-.12-.57zm-.09 0z"/></svg>