<svg xmlns="http://www.w3.org/2000/svg" role="img" viewBox="12.83 -5.92 373.10 256.85"><title>CyberArk (member) logo</title><defs><style>.cls-3{fill:#231f20}.cls-4{fill:#005dac}.cls-5{fill:#3d7db7}</style><clipPath id="clip-path"><path fill="none" d="M20.06 1.419H379V243.94H20.06z"/></clipPath></defs><g clip-path="url(#clip-path)"><path d="M56.274 238.007a21.043 21.043 0 0 1-15.082 5.964c-14.567 0-21.104-10.035-21.162-20.588-.058-10.552 6.824-21.047 21.162-21.047a20.517 20.517 0 0 1 14.68 6.078l-4.301 4.13a14.746 14.746 0 0 0-10.38-4.13c-10.207 0-14.853 7.514-14.796 14.912.057 7.34 4.416 14.622 14.797 14.622a15.566 15.566 0 0 0 10.667-4.357l4.415 4.416" class="cls-3"/></g><path d="M79.843 220.744l11.411-17.719h7.742v.286L83.054 226.71v16.458H76.63V226.71l-15.483-23.399v-.286h7.627l11.069 17.719m46.047-17.719c7.63 0 13.65 3.498 13.65 11.469a8.345 8.345 0 0 1-5.564 7.97 9.927 9.927 0 0 1 6.825 9.234c0 8.775-6.997 11.47-14.91 11.47h-18.408v-40.143h18.408m-12.043 16.63h12.1c4.818 0 7.227-1.892 7.227-5.046 0-2.81-2.466-5.792-7.284-5.792h-12.043zm0 17.549h12.043c3.556 0 8.487-1.148 8.487-5.563 0-4.301-4.76-6.25-8.43-6.25h-12.1zm67.208 5.964h-29.647v-40.143h29.476v6.25h-23.054v10.838h22.137v5.964H157.83v10.782h23.225v6.31m45.765-.001h-7.513l-12.215-13.879h-8.486v13.88h-6.424v-40.203c6.25 0 12.444.059 18.696.059 9.288 0 14.164 6.365 14.164 13.133 0 5.734-2.982 11.354-10.896 12.501l11.984 13.362.69 1.147m-28.214-34.294v14.566h12.215c5.333 0 7.683-3.383 7.683-7.168 0-3.613-2.35-7.398-7.626-7.398z" class="cls-3"/><path d="M263.12 236.573h-17.948l-2.64 6.595h-12.041l18.006-40.143h11.47l17.95 40.143h-12.158l-2.639-6.595m-8.945-22.308l-5.16 12.789h10.264zm66.98 28.903h-12.502l-9.345-13.018h-3.957v13.018h-11.356v-40.143h19.612c10.265 0 15.599 6.594 15.599 13.82 0 4.933-1.722 9.118-8.488 12.101l10.437 13.533v.69m-25.804-31.083v9.634h8.37c2.984 0 4.3-2.236 4.3-4.645 0-2.523-1.432-4.99-4.414-4.99zm69.272-8.373l-16.286 18.982c5.62 6.193 12.1 13.42 17.662 19.784v.69h-14.05l-11.47-13.364v13.363h-11.356v-40.143h11.357v13.19c3.441-4.244 7.17-8.947 10.553-13.19h13.59v.688" class="cls-4"/><path d="M374.311 204.756a4.689 4.689 0 1 1 4.689-4.69 4.65 4.65 0 0 1-4.689 4.69m0-8.703a4.016 4.016 0 1 0 3.862 4.014 3.891 3.891 0 0 0-3.862-4.014zm1.71 6.607h-.469a.219.219 0 0 1-.207-.097c-.123-.22-.22-.4-.372-.662a8.38 8.38 0 0 0-.91-1.31.386.386 0 0 0-.304-.152h-.165v1.945a.26.26 0 0 1-.248.262h-.318a.271.271 0 0 1-.261-.262v-4.703a.26.26 0 0 1 .261-.248h1.325c1.171 0 1.737.675 1.737 1.448a1.328 1.328 0 0 1-1.351 1.434 7.278 7.278 0 0 1 1.461 2.055.185.185 0 0 1-.179.29zm-1.917-4.566h-.51v1.67h.496c.897 0 1.145-.263 1.145-.87 0-.592-.414-.8-1.13-.8z" class="cls-3"/><path d="M157.324 64.949l35.256-20.418V1.419l-72.676 42.005 37.42 21.525" class="cls-5"/><path d="M192.651 126.013l35.306-20.384v-.005l37.335-21.576v43.137l-72.584 41.931-.057-43.103m-.071-81.482l35.3 20.381 37.318-21.566L192.58 1.419v43.112" class="cls-4"/><path d="M192.657 126.004l-35.333-20.335-37.306 21.607 72.698 41.84-.059-43.112" class="cls-5"/><path d="M157.324 105.669v-40.72l-37.42-21.525.114 83.852 37.306-21.607" class="cls-4"/><path fill="#999b9e" d="M192.58 44.525l35.304 20.384v40.765L192.58 85.292V44.525"/><path fill="#5c5d60" d="M192.58 44.525l-35.256 20.424v40.72l35.256-20.377V44.531"/></svg>