<svg xmlns="http://www.w3.org/2000/svg" role="img" viewBox="-1.63 -1.00 84.50 80.00"><path fill="#a6a4a5" d="M7.48 57.48c.926 0 1.662.241 2.02.388l.243.1.693-2.374-.17-.08c-.611-.283-1.749-.489-2.708-.489-4.45 0-7.558 3.322-7.558 8.083 0 4.925 2.626 7.867 7.019 7.867 1.223 0 2.41-.221 3.174-.587l.152-.075-.468-2.247-.252.09c-.76.274-1.378.392-2.067.392-2.597 0-4.147-2.034-4.147-5.44 0-2.8 1.259-5.628 4.07-5.628zm12.027 6.504a79.686 79.686 0 0 0-.646 2.35l-.037-.157a35.15 35.15 0 0 0-.575-2.222l-2.593-8.93h-3.729l4.957 14.389c.066.154.066.319.066.492 0 .18-.028.31-.183.678-.287.654-.905 1.695-1.706 2.49-.824.83-1.761 1.496-2.636 1.873l-.216.094 1.316 2.459.207-.078c.309-.115 1.934-.77 3.548-2.39 2.357-2.388 3.678-6.214 4.83-9.922l3.235-10.085h-3.53l-2.308 8.959zm14.883-9.185c-1.653 0-2.91.548-3.826 1.667V48.5h-3.465v18.361c0 .734-.059 1.83-.105 2.71-.02.354-.038.681-.049.934l-.01.223h3.026l.162-1.666c.65.97 1.677 1.92 3.682 1.92 2.968 0 5.962-2.551 5.962-8.25 0-4.818-2.11-7.933-5.378-7.933zm1.914 8.062c0 2.12-.396 5.676-3.046 5.676-.823 0-1.939-.438-2.596-2.55-.098-.207-.098-.541-.098-.859v-4.253c0-.345 0-.702.076-1.037.222-1.22 1.31-2.53 2.582-2.53 2.78 0 3.082 3.883 3.082 5.553zm12.231-8.063c-4.833 0-6.547 4.375-6.547 8.126 0 5.941 3.282 8.058 6.353 8.058 3.003 0 6.508-2.119 6.508-8.091 0-5.965-3.26-8.093-6.314-8.093zm-.037 13.831c-2.65 0-3.046-3.596-3.046-5.738 0-1.717.29-5.71 2.966-5.71 2.644 0 2.928 3.993 2.928 5.71 0 1.725-.276 5.738-2.848 5.738zm8.147-11.118h6.565c-.19.302-.402.615-.618.937-.242.361-.492.734-.726 1.107l-5.922 9.586-.035.049v1.785h11.182v-2.489h-7.22c.185-.297.397-.61.614-.93.244-.364.495-.738.727-1.116l5.848-9.452.03-.052v-1.911H56.646v2.486zM81.36 70.505a53.972 53.972 0 0 0-.055-1.192c-.048-.853-.1-1.82-.1-2.957V55.053H77.74v10.264c0 .545-.05.982-.154 1.343-.14.637-.84 1.845-2.461 1.845-1.638 0-2.304-1.143-2.304-3.945v-9.507h-3.466v9.856c0 4.144 1.535 6.073 4.834 6.073 1.775 0 3.171-.813 3.955-1.618l.168 1.365h3.055l-.007-.224z"/><path fill="#92d0e1" d="M64.818 29.074c0 6.384-5.128 11.559-11.454 11.559-6.327 0-11.455-5.175-11.455-11.56 0-6.384 5.128-11.56 11.455-11.56 6.326 0 11.454 5.176 11.454 11.56zm-11.465-4.666c-2.554 0-4.623 2.09-4.623 4.666 0 2.577 2.07 4.662 4.623 4.662 2.55 0 4.62-2.085 4.62-4.662s-2.07-4.666-4.62-4.666z"/><path fill="#b1deea" d="M75 8.888c0 3.952-3.174 7.158-7.093 7.158-3.915 0-7.089-3.206-7.089-7.158 0-3.95 3.174-7.154 7.089-7.154C71.826 1.734 75 4.938 75 8.888zm-7.103-2.884c-1.577 0-2.857 1.291-2.857 2.884 0 1.597 1.28 2.888 2.857 2.888a2.874 2.874 0 0 0 2.865-2.888 2.874 2.874 0 0 0-2.865-2.884z"/><path fill="#64bdd4" d="M29.18 11.642c-4.015 0-7.27 3.284-7.27 7.336 0 4.055 3.255 7.343 7.27 7.343 4.019 0 7.275-3.288 7.275-7.343 0-4.052-3.256-7.336-7.275-7.336zm18.184 7.34c0 10.136-8.141 18.348-18.181 18.348C19.14 37.33 11 29.118 11 18.982 11 8.848 19.14.633 29.183.633c10.04 0 18.18 8.215 18.18 18.349z"/></svg>