<svg xmlns="http://www.w3.org/2000/svg" role="img" viewBox="54.04 52.04 1089.92 293.92"><title>Cycode (member) logo</title><path d="M426.57 250.641c-8.839-4.508-16.258-11.358-21.438-19.798-5.181-8.439-7.922-18.139-7.922-28.031 0-9.893 2.741-19.593 7.922-28.032 5.18-8.439 12.599-15.29 21.438-19.797 9.519-4.779 20.059-7.189 30.717-7.023 10.249-.214 20.38 2.205 29.419 7.023 8.261 4.46 14.791 11.541 18.552 20.119L481.14 187.96c-5.565-9.769-13.578-14.654-24.038-14.654-3.714-.117-7.413.526-10.868 1.888-3.456 1.362-6.594 3.416-9.221 6.033-2.725 2.876-4.834 6.274-6.201 9.986-1.366 3.713-1.962 7.663-1.75 11.612-.218 3.945.375 7.893 1.743 11.602 1.367 3.709 3.479 7.101 6.208 9.969 2.627 2.618 5.765 4.671 9.221 6.034 3.455 1.362 7.154 2.004 10.868 1.887 4.996.114 9.92-1.207 14.182-3.805 4.263-2.599 7.685-6.365 9.856-10.849l24.065 13.202c-3.876 8.372-10.365 15.272-18.499 19.67-9.046 4.908-19.227 7.366-29.525 7.129-10.622.148-21.123-2.261-30.611-7.023z"/><path d="M627.167 149.543L578.932 262.6c-4.912 12.322-10.973 20.973-18.181 25.954-7.72 5.162-16.865 7.793-26.159 7.525-5.598-.039-11.157-.93-16.485-2.64-4.868-1.441-9.382-3.878-13.251-7.155l11.343-21.967c2.4 2.129 5.165 3.81 8.163 4.963 2.952 1.135 6.085 1.735 9.249 1.769 3.693.163 7.333-.916 10.337-3.062 3.166-2.781 5.619-6.276 7.156-10.192l.397-1.003-46.248-107.249h32.016l29.922 72.212 30.213-72.291 29.763.079zm30.386 101.1c-8.839-4.507-16.258-11.358-21.438-19.797-5.181-8.44-7.922-18.14-7.922-28.032s2.741-19.593 7.922-28.032c5.18-8.439 12.599-15.29 21.438-19.797 9.519-4.779 20.059-7.189 30.717-7.023 10.285-.232 20.455 2.187 29.525 7.023 8.201 4.481 14.665 11.562 18.366 20.119l-24.038 12.858c-5.566-9.769-13.587-14.653-24.065-14.653-3.709-.114-7.403.53-10.854 1.892-3.45 1.363-6.584 3.414-9.209 6.029-2.724 2.876-4.833 6.273-6.2 9.985-1.366 3.713-1.962 7.663-1.751 11.612-.217 3.945.376 7.893 1.743 11.602 1.367 3.709 3.48 7.102 6.208 9.969 2.634 2.625 5.781 4.682 9.246 6.044 3.465 1.363 7.174 2.002 10.897 1.877 5 .12 9.93-1.199 14.197-3.798 4.268-2.598 7.694-6.367 9.868-10.855l24.038 13.201c-3.806 8.409-10.252 15.359-18.367 19.802-9.046 4.908-19.226 7.366-29.524 7.129-10.696.138-21.265-2.318-30.797-7.155zm115.382-.001c-8.666-4.445-15.924-11.2-20.964-19.512-5.101-8.556-7.716-18.355-7.553-28.304-.164-9.958 2.451-19.766 7.553-28.331 5.04-8.312 12.298-15.067 20.964-19.511 9.378-4.778 19.789-7.19 30.32-7.023 10.499-.18 20.879 2.233 30.214 7.023 8.626 4.462 15.844 11.215 20.857 19.511 5.103 8.565 7.718 18.373 7.554 28.331.163 9.949-2.452 19.748-7.554 28.304-5.013 8.296-12.231 15.049-20.857 19.512-9.335 4.789-19.715 7.202-30.214 7.023-10.531.166-20.942-2.246-30.32-7.023zm49.906-26.403c5.29-5.87 8.034-13.587 7.633-21.466.4-7.886-2.344-15.611-7.633-21.492-2.519-2.622-5.566-4.684-8.942-6.049-3.376-1.365-7.003-2.003-10.644-1.872-3.656-.126-7.298.514-10.69 1.878-3.392 1.364-6.459 3.423-9.002 6.043-2.652 2.895-4.701 6.285-6.029 9.974-1.329 3.689-1.91 7.604-1.71 11.518-.224 3.934.343 7.874 1.667 11.587s3.38 7.126 6.046 10.037c2.543 2.62 5.609 4.679 9.001 6.043 3.393 1.365 7.034 2.004 10.69 1.878 3.628.12 7.24-.523 10.602-1.888 3.361-1.365 6.395-3.421 8.905-6.033l.106-.158zm168.135-115.094v146.933h-29.604V243.8c-7.686 9.241-18.817 13.862-33.394 13.862-9.538.134-18.949-2.185-27.324-6.733-8.061-4.455-14.674-11.116-19.056-19.195-4.804-8.918-7.205-18.924-6.971-29.043-.189-10.029 2.212-19.939 6.971-28.779 4.409-8.111 11.071-14.784 19.188-19.221 8.376-4.548 17.787-6.867 27.325-6.733 13.64 0 24.303 4.295 31.989 12.884v-51.697h30.876zm-38.164 115.249c2.655-2.888 4.709-6.272 6.042-9.957 1.333-3.685 1.919-7.596 1.723-11.508.195-3.916-.391-7.831-1.724-11.52-1.333-3.689-3.386-7.079-6.041-9.972-5.207-5.142-12.242-8.027-19.573-8.027-7.331 0-14.366 2.885-19.572 8.027a29.63901 29.63901 0 0 0-6.042 9.972c-1.333 3.689-1.919 7.604-1.724 11.52-.196 3.912.39 7.823 1.723 11.508 1.333 3.685 3.387 7.069 6.043 9.957 5.206 5.142 12.241 8.027 19.572 8.027 7.331 0 14.366-2.885 19.573-8.027zm170.558-12.858h-80.89c1.29 6.343 5 11.944 10.34 15.63 5.98 3.986 13.08 5.991 20.27 5.73 5.05.087 10.07-.745 14.82-2.456 4.49-1.81 8.57-4.504 12-7.921l16.51 17.822c-10.07 11.565-24.73 17.338-43.99 17.321-11.08.215-22.05-2.192-32.02-7.024-8.87-4.332-16.32-11.102-21.46-19.511-5.11-8.556-7.72-18.355-7.56-28.304-.14-9.912 2.45-19.673 7.48-28.225 4.87-8.297 11.95-15.087 20.46-19.617 8.96-4.753 18.99-7.169 29.15-7.024 9.88-.138 19.65 2.176 28.41 6.733 8.38 4.398 15.31 11.096 19.98 19.301 4.94 8.958 7.39 19.065 7.11 29.281 0 .343-.21 3.115-.61 8.264zm-72.54-34.324c-4.86 4.124-7.99 9.922-8.75 16.238h52.66c-.8-6.272-3.92-12.021-8.74-16.133-4.89-4.079-11.12-6.23-17.49-6.046-6.43-.19-12.71 1.938-17.68 5.994v-.053z"/><path fill-rule="evenodd" d="M290.958 130.057l-95.085-54.7601C193.256 73.7922 190.289 73 187.268 73c-3.021 0-5.989.7922-8.605 2.2969l-19.458 11.0894 112.228 64.7627v96.833l-28.051 16.146-84.177-48.417v-15.525c3.101-2.875 5.254-6.618 6.175-10.737.922-4.119.568-8.419-1.013-12.334-1.582-3.914-4.318-7.259-7.847-9.593-3.528-2.334-7.685-3.548-11.92-3.481-4.235.067-8.351 1.411-11.803 3.856-3.453 2.444-6.081 5.874-7.537 9.837a20.79771 20.79771 0 0 0-.62 12.359c1.052 4.088 3.323 7.761 6.514 10.537v31.228l112.25 64.562 47.554-27.346c2.617-1.503 4.791-3.665 6.303-6.269 1.512-2.605 2.31-5.56 2.313-8.569V144.894c-.003-3.009-.801-5.964-2.313-8.568-1.512-2.605-3.686-4.767-6.303-6.269z" clip-rule="evenodd"/><path fill-rule="evenodd" d="M243.398 198.103v-30.828l-112.273-64.563-47.5315 27.324c-2.6144 1.509-4.7845 3.677-6.2929 6.285-1.5083 2.608-2.3017 5.565-2.3006 8.575v109.342c-.0017 3.007.7917 5.962 2.3002 8.567 1.5086 2.604 3.6792 4.767 6.2933 6.271l95.0635 54.626c2.616 1.505 5.584 2.297 8.604 2.297 3.021 0 5.989-.792 8.605-2.297l19.391-11.089-112.183-64.629v-96.833l28.051-16.146 84.132 48.416v14.971c-3.109 2.856-5.277 6.584-6.217 10.692-.941 4.109-.609 8.404.95 12.321s4.274 7.271 7.785 9.621c3.511 2.349 7.655 3.583 11.884 3.54 4.23-.043 8.347-1.363 11.808-3.784 3.462-2.421 6.106-5.83 7.584-9.778 1.478-3.948 1.721-8.25.695-12.338-1.025-4.088-3.269-7.771-6.437-10.563h.089z" clip-rule="evenodd"/></svg>