<svg xmlns="http://www.w3.org/2000/svg" role="img" viewBox="-2.86 -2.86 148.59 36.59"><path fill="#0C10FA" fill-rule="evenodd" d="M53.292 20.403c1.772 0 3.077-.465 3.916-1.394.838-.93 1.258-2.397 1.258-4.401s-.42-3.47-1.258-4.4c-.839-.93-2.144-1.395-3.916-1.395H50.61v11.59h2.68zM48 6.6h5.553c5.063 0 7.595 2.67 7.595 8.007 0 5.354-2.532 8.031-7.595 8.031H48V6.601zm22.877 14.21c.412-.143.618-.432.618-.865v-2.332c-.807-.353-1.694-.53-2.659-.53-.9 0-1.586.16-2.052.482-.467.32-.7.801-.7 1.442 0 .673.264 1.179.795 1.515.53.337 1.159.505 1.887.505.996 0 1.7-.072 2.111-.216zm1.745-9.557c.91.633 1.356 1.655 1.34 3.066v5.77c0 1.09-.474 1.848-1.423 2.273-.95.424-2.302.637-4.058.637-1.409 0-2.572-.297-3.489-.89-.918-.593-1.377-1.587-1.377-2.981 0-1.315.376-2.3 1.128-2.958.751-.657 1.815-.986 3.192-.986 1.424 0 2.61.288 3.56.866v-1.154c0-1.635-.974-2.453-2.92-2.453-.695 0-1.392.108-2.088.325-.696.216-1.274.517-1.732.9v-2.355c.442-.289 1.087-.53 1.934-.722a11.81 11.81 0 0 1 2.622-.288c1.298 0 2.4.317 3.311.95zm4.877.42c.443-.272 1.195-.568 2.254-.89a10.85 10.85 0 0 1 3.156-.48c.633 0 1.171.104 1.615.313v2.02a11.32 11.32 0 0 0-1.59-.097c-1.045 0-2.026.08-2.943.24v9.86h-2.492V11.674zm9.54-1.034h2.492l.024 12h-2.516v-12zm-.071-1.995V6.361h2.658v2.284h-2.658zm6.17 13.995V6h2.468v16.64h-2.468zm5.98 0V6h2.469v16.64h-2.468zm6.052-12h2.492l.024 12h-2.516v-12zm-.07-1.995V6.361h2.657v2.284H105.1zm7.558 13.116c-.926-.825-1.389-2.031-1.389-3.618V10.57h2.492v7.213c0 1.026.226 1.784.677 2.272.45.49 1.15.734 2.1.734.95 0 1.65-.244 2.1-.734.451-.488.677-1.246.677-2.272V10.57h2.397v7.574c0 1.587-.451 2.793-1.353 3.618-.902.827-2.175 1.239-3.821 1.239-1.661 0-2.955-.412-3.88-1.239zm29.19-10.4c.768.707 1.152 1.804 1.152 3.295v7.983h-2.492v-7.646c0-1.683-.942-2.525-2.824-2.525-.84 0-1.606.216-2.303.65.111.432.167.945.167 1.538v7.983h-2.492v-7.646c0-1.683-.942-2.525-2.825-2.525-.853 0-1.693.152-2.515.457v9.714h-2.492V11.554c.712-.368 1.579-.669 2.599-.902a13.237 13.237 0 0 1 2.93-.348c1.551 0 2.706.305 3.466.913a9.186 9.186 0 0 1 3.987-.913c1.66 0 2.875.353 3.643 1.058zM8.98 6.091a9.41 9.41 0 0 1 2.082-3.334c3.556-3.676 9.32-3.676 12.876 0A9.41 9.41 0 0 1 26.02 6.09c2.288.032 4.566.949 6.312 2.754 3.556 3.675 3.556 9.635 0 13.31-1.746 1.805-4.024 2.722-6.312 2.754a9.41 9.41 0 0 1-2.083 3.334c-3.556 3.676-9.32 3.676-12.876 0a9.41 9.41 0 0 1-2.083-3.334c-2.288-.032-4.566-.949-6.312-2.754-3.556-3.675-3.556-9.635 0-13.31C4.413 7.04 6.69 6.123 8.979 6.09zM8.661 7.15a9.1 9.1 0 0 0-2.236 1.696c-3.556 3.675-3.556 9.635 0 13.31a9.1 9.1 0 0 0 2.236 1.696 9.78 9.78 0 0 1-.069-4.206 9.465 9.465 0 0 0 2.469 4.712c3.556 3.676 9.32 3.676 12.876 0a9.465 9.465 0 0 0 2.469-4.712 9.78 9.78 0 0 1-.07 4.206 9.106 9.106 0 0 0 2.237-1.696c3.556-3.675 3.556-9.635 0-13.31a9.106 9.106 0 0 0-2.236-1.696 9.78 9.78 0 0 1 .069 4.206 9.465 9.465 0 0 0-2.47-4.712c-3.555-3.676-9.32-3.676-12.875 0a9.465 9.465 0 0 0-2.469 4.712 9.78 9.78 0 0 1 .07-4.206zm4.427 3.662a6.094 6.094 0 0 1 8.822 0c2.436 2.518 2.436 6.6 0 9.119a6.094 6.094 0 0 1-8.822 0c-2.436-2.518-2.436-6.6 0-9.119z"/></svg>