<svg xmlns="http://www.w3.org/2000/svg" role="img" viewBox="38.45 109.45 522.60 431.60"><title>Darumatic (KCSP) logo</title><path d="M300.75 119.445c75.525 0 136.75 64.695 136.75 144.5s-61.225 144.5-136.75 144.5S164 343.75 164 263.945s61.225-144.5 136.75-144.5zm0 8.5c-70.723 0-128.25 60.788-128.25 136s57.527 136 128.25 136c70.722 0 128.25-60.788 128.25-136s-57.528-136-128.25-136z"/><path d="M250.667 202.421c12.822-.119 23.315 10.428 23.437 23.558.122 13.131-10.173 23.871-22.996 23.99-12.822.119-23.315-10.428-23.437-23.559-.121-13.13 10.174-23.87 22.996-23.989zm.065 6.999c-8.918.083-16.147 7.624-16.061 16.925.086 9.301 7.454 16.707 16.372 16.624 8.919-.082 16.148-7.624 16.061-16.925-.086-9.301-7.453-16.707-16.372-16.624zm99.83-6.999c12.822-.119 23.315 10.428 23.437 23.558.122 13.131-10.174 23.871-22.996 23.99-12.822.119-23.315-10.428-23.437-23.559-.122-13.13 10.174-23.87 22.996-23.989zm.065 6.999c-8.919.083-16.148 7.624-16.061 16.925.086 9.301 7.454 16.707 16.372 16.624 8.919-.082 16.148-7.624 16.061-16.925-.086-9.301-7.454-16.707-16.372-16.624z"/><path fill="#010101" d="M250.888 236.195c-5.385 0-9.75-4.477-9.75-10s4.365-10 9.75-10 9.75 4.477 9.75 10-4.365 10-9.75 10z"/><path d="M250.888 216.195c5.385 0 9.75 4.477 9.75 10s-4.365 10-9.75 10-9.75-4.477-9.75-10 4.365-10 9.75-10zm0 7c-1.479 0-2.75 1.304-2.75 3s1.271 3 2.75 3c1.478 0 2.75-1.304 2.75-3s-1.272-3-2.75-3z"/><path fill="#010101" d="M350.783 236.195c-5.385 0-9.75-4.477-9.75-10s4.365-10 9.75-10c5.384 0 9.75 4.477 9.75 10s-4.366 10-9.75 10z"/><path d="M350.783 216.195c5.384 0 9.75 4.477 9.75 10s-4.366 10-9.75 10c-5.385 0-9.75-4.477-9.75-10s4.365-10 9.75-10zm0 7c-1.479 0-2.75 1.304-2.75 3s1.271 3 2.75 3c1.478 0 2.75-1.304 2.75-3s-1.272-3-2.75-3zm-65.382 47.289l.501.286 1.09.585 1.126.55 1.131.501 1.136.451 1.14.403 1.144.356 1.146.309 1.148.264 1.15.22 1.15.177 1.149.135 1.693.126 2.264.039 2.284-.099 2.271-.228 2.258-.345 2.242-.45 2.227-.543 2.212-.627 2.198-.698 2.183-.76 1.105-.407a3.5 3.5 0 0 0-2.422-6.568l-.989.365-2.002.7-1.986.635-1.967.561-1.947.481-1.925.394-1.903.299-1.878.199-1.856.092-1.863-.022-1.394-.098-.904-.102-.9-.134-.896-.167-.893-.201-.891-.236-.889-.271-.888-.309-.887-.348-.888-.388-.888-.429-.917-.489-.501-.287a3.5 3.5 0 0 0-3.474 6.078m34.165-67.098l-.062.181-.111.458-.068.487-.03.484-.008.708.004.915-.026.625-.046.362-.074.325-.105.271-.133.215-.162.164-.203.128-.176.072-.14.043-.073.018.022-.006-.174.042-.31.064-.42.062-.476.023-.372-.036-.277-.08-.191-.107-.124-.123-.084-.14-.064-.172-.047-.221-.024-.278.007-.332.042-.379.077-.418.112-.451.144-.475.273-.753.448-1.031.515-1.026.557-.989.57-.915.416-.612.264-.364.252-.328.234-.283.208-.232.177-.173.06-.051-.023.019.477-.386.956-.708.981-.648 1.015-.598 1.046-.551 1.075-.508 1.102-.468 1.128-.431 1.152-.398 1.173-.367 1.799-.502 2.452-.592 2.495-.529 2.526-.494 2.539-.486 2.535-.506 2.514-.554 1.866-.465 1.231-.341 1.213-.369 1.196-.4 1.178-.436 1.157-.475 1.133-.519 1.108-.566.551-.305.015-.009.224-.131.443-.279.609-.431.711-.594.61-.618.513-.63.427-.634.355-.63.295-.618.361-.881.415-1.084.315-.706.226-.397.259-.358.297-.31.148-.122-.033.027.159-.122.279-.188.256-.142.244-.107.231-.074.219-.046.208-.02.198.004.304.046.377.137.343.208.33.282.311.352.283.415.247.469.202.509.152.536.096.549.036.547-.026.533-.034.232.007-.041-.06.312-.148.558-.194.523-.241.507-.287.494-.334.48-.379.469-.424.457-.469.445-.513.434-.554.423-.595.412-.635.4-.672.39-.708.378-.741.367-.775.357-.804.347-1.265.503-1.774.638-1.861.604-1.938.575-2.001.55-2.05.529-2.086.514-3.169.75-4.222.986-3.109.749-2.022.514-1.965.53-1.895.552-1.813.579-1.718.61-1.222.483-.782.336-.747.347-.714.358-.682.372-.646.386-.61.401-.572.418-.532.436-.491.455-.446.476-.401.498-.191.271a.75.75 0 0 0 1.229.86l.135-.196.324-.41.373-.402.42-.393.466-.385.511-.376.554-.366.596-.357.635-.347.674-.339.709-.329.74-.319 1.173-.465 1.671-.594 1.776-.568 1.867-.543 1.943-.525 2.005-.509 3.098-.748 4.227-.987 3.181-.753 2.103-.517 2.073-.536 2.03-.558 1.974-.586 1.906-.619 1.821-.656 1.303-.52.84-.362.812-.375.783-.389.753-.403.721-.419.687-.435.652-.453.615-.472.576-.492.535-.513.492-.534.446-.559.398-.582.346-.606.292-.63.234-.654.172-.659.059-.313.007-.041.046-.371.023-.703-.056-.706-.132-.699-.203-.682-.271-.655-.338-.617-.406-.568-.473-.505-.542-.425-.61-.325-.648-.198-.508-.059-.362.007-.366.047-.367.087-.367.128-.366.168-.363.208-.349.239-.159.122-.032.027-.266.235-.423.465-.344.493-.287.52-.345.778-.404 1.054-.327.804-.25.53-.292.528-.347.525-.418.523-.504.52-.614.519-.539.385-.402.254-.224.131.015-.009-.506.282-1.05.537-1.079.496-1.107.456-1.133.42-1.156.387-1.178.358-1.193.331-1.826.456-2.485.548-2.523.504-2.545.487-2.549.498-2.536.539-2.503.605-1.845.515-1.214.381-1.198.415-1.179.451-1.157.493-1.134.538-1.108.586-1.079.638-1.048.695-1.006.746-.477.386-.023.02-.127.113-.236.237-.25.28-.265.322-.278.362-.291.402-.448.662-.604.972-.59 1.053-.551 1.102-.481 1.116-.299.83-.165.551-.132.543-.093.533-.049.523.003.511.067.499.144.48.235.446.33.387.411.303.474.209.523.119.571.038.616-.037.503-.076.355-.075.174-.041.022-.006.169-.048.307-.112.413-.215.442-.35.336-.41.238-.444.158-.46.098-.466.055-.477.028-.695-.004-.894.005-.633.021-.38.04-.337.07-.315.062-.181a.75.75 0 0 0-1.419-.486"/><path d="M320.596 201.528a1.75 1.75 0 1 0 0-3.5 1.75 1.75 0 0 0 0 3.5"/><path d="M318.507 199.876l-.145.158-.413.571-.331.612-.248.546-.204.462-.178.351-.141.195-.02-.017.079-.094.108-.077a1.75 1.75 0 0 0 1.709 3.054l.274-.17.387-.323.394-.46.34-.541.249-.502.198-.448.161-.367.113-.247.098-.175.145-.157a1.75 1.75 0 0 0-2.575-2.371"/><path d="M317.553 200.671l-.238.537-.497 1.077-.504 1.167-.348.963-.2.699-.087.383a1.643 1.643 0 0 0-.031.184l-.005.049-.017.319-.006.316-.007.33-.01.321-.017.266-.021.142.016-.127.23-.509.869-.65.699-.081-.044-.004.418.087.518.316.286.36.121.268.041.099.027-.067.051-.173.074-.207.086-.189.077-.124h.022l-.166.209-.776.35-1.082-.257-.369-.361-.091-.145-.02-.022.008.079.016.166.015.243.008.315.001.171a1.75 1.75 0 1 0 3.5-.025l-.002-.254-.016-.45-.03-.412-.05-.387-.075-.375-.12-.385-.205-.421-.495-.556-1.291-.411-1.079.377-.485.456-.295.427-.226.434-.186.456-.152.481-.114.512-.06.571.045.645.194.589.371.521.634.43.568.146.044.004c.236.02.474-.007.699-.081l.899-.66.285-.586.081-.366.04-.357.022-.365.011-.366.007-.333.004-.247-.002-.064.006-.05-.031.184.041-.199.124-.459.267-.757.468-1.088.517-1.12.238-.536a1.75 1.75 0 0 0-3.198-1.423"/><path d="M317.643 206.486l-.13-.24-.097-.296-.028-.252.004-.29.04-.331.083-.367.129-.395.173-.412.216-.418.253-.413.286-.399.31-.375.326-.341.335-.3.332-.251.317-.194.107-.052-.069.035.023-.01.026-.012.121-.051.25-.105.303-.128.32-.136.305-.135.267-.127.208-.111.27-.185.492-.62c.17-.353.216-.752.133-1.134l-.006-.026-.696-1.052-.926-.352-.48.005-.425.079-.487.143-.46.166-.417.167-.352.154-.22.106-.149.079-.143.088c-.036.023-.07.048-.104.074l-.34.262-.724.61-.715.692-.669.765-.601.846-.405.716-.237.521-.19.52-.151.543-.107.565-.06.584-.011.338v-.015l-.001.033-.003.018-.018.175-.038.379-.038.474-.022.522.013.541.059.467.114.416.245.482.609.581.745.266c.119.017.239.021.359.013l.057-.003.491-.102.641-.353.456-.538.247-.66.047-.674-.052-.513-.062-.385-.04-.28-.001-.136.007.107-.016.136.044-.277.101-.51.131-.51.16-.516.189-.503.214-.472.235-.425.246-.36.094-.11-.047.057.285-.334.502-.541.451-.427.417-.342.389-.271.372-.217.365-.178.376-.152.633-.208.962-.263.847-.226.649-.186.703-.223.76-.269.417-.161.043-.018.171-.072.415-.19.599-.292.729-.323.409-.119.145-.006-.017.014a1.751 1.751 0 0 0-.159-3.497l-.397.031-.63.122-.774.257-.842.376-.532.26-.3.14-.171.072.043-.018-.323.127-.646.231-.61.194-.584.169-.875.233-1.15.32-.861.294-.597.254-.602.307-.6.367-.598.433-.596.502-.599.578-.595.645-.285.333-.047.058-.26.34-.408.631-.349.66-.299.68-.253.692-.21.692-.169.684-.125.645-.044.277a2.05 2.05 0 0 0-.016.137l-.012.359.032.44.051.35.043.252.024.087.049-.155.173-.353.362-.382.502-.245.304-.044-.057.004.359.013.652.253.453.481.125.294.026.153-.02-.042-.014-.286.014-.382.032-.407.038-.38.025-.254.012-.177.001-.033v-.015l-.002-.103.019-.28.043-.277.068-.276.093-.276.104-.252.208-.399.38-.561.463-.547.533-.525.601-.511.339-.262-.103.074-.103.061-.012.004.107-.054.254-.112.304-.124.288-.108.203-.069.002-.013-.258-.016-.769-.332-.611-.989.006.025.133-1.134.483-.601.201-.131-.006.008-.179.085-.263.117-.301.129-.303.127-.272.115-.174.074-.109.05-.023.011-.069.035-.341.189-.578.378-.55.435-.521.484-.492.53-.459.572-.422.61-.381.645-.332.678-.278.708-.213.737-.137.765-.046.789.062.803.188.804.288.71.13.24a1.75 1.75 0 1 0 3.078-1.666"/><path d="M322.306 201.842l1.039-.491 2.095-1.048 2.057-1.017 1.511-.674.99-.385.48-.166a1.75 1.75 0 1 0-1.152-3.305l-.601.211-1.145.45-1.634.731-2.072 1.025-2.024 1.014-1.038.49a1.75 1.75 0 0 0 1.494 3.165"/><path d="M330.56 196.907l.57-.231 1.057-.35 1.072-.278 1.122-.242 1.766-.341 1.823-.382 1.263-.33.659-.204a1.75 1.75 0 0 0-1.046-3.34l-.502.159-1.093.289-1.768.372-1.844.357-1.271.277-1.292.344-1.263.426-.569.231a1.75 1.75 0 0 0 1.316 3.243"/><path d="M331.441 197.306l.607-.148 1.189-.264 1.813-.363 2.468-.495 1.889-.442 1.282-.359.656-.208a1.749 1.749 0 1 0-1.064-3.334l-.539.173-1.133.32-1.78.418-2.468.495-1.884.379-1.259.28-.608.148a1.75 1.75 0 0 0 .831 3.4"/><path d="M333.07 198.466l.233-.113.39-.159.617-.196.899-.211.971-.182 1.045-.19 1.098-.238.865-.245.601-.213.582-.253.577-.307.32-.197a1.75 1.75 0 0 0-1.872-2.957l-.117.078-.324.182-.359.164-.373.139-.644.189-.981.214-1.07.195-1.14.218-1.164.287-.875.291-.568.24-.233.112a1.751 1.751 0 0 0 1.522 3.152"/><path d="M336.14 195.752l.455.005 1.014-.049 1.028-.126 1-.19 1.433-.368 1.85-.594 1.788-.628 1.717-.572 1.228-.339.782-.168.78-.118.763-.058.339-.005a1.749 1.749 0 1 0-.075-3.499l-.553.016-1.013.088-.985.156-.976.216-1.396.391-1.772.59-1.701.599-1.656.537-1.217.319-.78.155-.765.103-.793.044-.455-.005a1.75 1.75 0 0 0-.04 3.5"/><path d="M342.087 196.008l.871-.244 1.777-.552 2.619-.904 2.575-.916 1.688-.571 1.679-.513 1.674-.433.813-.174a1.75 1.75 0 1 0-.739-3.421l-.953.208-1.82.474-1.775.544-1.74.588-2.545.906-2.517.87-1.679.524-.871.243a1.75 1.75 0 0 0 .943 3.371"/><path d="M352.543 191.772l.507-.206.978-.348 1.017-.322 1.068-.326 1.103-.349 1.121-.396 1.124-.469.852-.425.57-.331.293-.187a1.751 1.751 0 0 0-1.897-2.941l-.167.109-.378.226-.628.322-.937.396-1.01.359-1.067.338-1.109.338-1.134.363-1.116.401-.508.206a1.75 1.75 0 1 0 1.318 3.242"/><path d="M356.186 190.438l.305-.15.605-.279.995-.431 1.445-.615 1.516-.687 1.153-.59.766-.444.73-.479.699-.53.657-.589.604-.661.533-.741.442-.828.203-.508a1.75 1.75 0 0 0-3.275-1.234l-.045.15-.194.416-.271.41-.352.407-.43.399-.5.389-.564.376-.603.354-.999.516-1.44.653-1.468.625-1.072.465-.681.316-.304.149a1.75 1.75 0 0 0 1.545 3.141"/><path d="M363.57 178.279l-.141.096-.409.342-.39.433-.308.459-.309.648-.263.84-.17.764-.139.621-.105.328-.059.123-.063.094-.051.044.025-.043a1.75 1.75 0 1 0 2.572 2.373l.229-.265.301-.438.224-.433.172-.442.17-.575.145-.647.107-.517.1-.398.077-.215.025-.07.016-.051.083-.088.14-.097a1.75 1.75 0 0 0-1.979-2.886"/><path d="M362.023 181.524l-.074.152-.106.17-.196.242-.345.341-.425.367-.507.418-.557.479-.576.564-.44.528-.288.429-.145.26a1.75 1.75 0 1 0 3.085 1.652l.007-.024.063-.117.181-.242.394-.395.508-.438.591-.489.636-.57.615-.66.417-.572.236-.413.074-.152a1.75 1.75 0 0 0-3.148-1.53"/><path d="M362.252 185.927l.105-.081.412-.39.382-.449.352-.471.348-.498.349-.521.525-.797.517-.78.327-.475.307-.424.275-.35.224-.248.137-.112-.053.063-.218.124-.344.095-.532-.023-.435-.177-.235-.172.075.065-.079-.054-.044-.027.018.076.04.154.046.212.063.41.044.597-.007.568-.036.344-.031.157-.034.113-.018.014.046-.116.071-.123-.072.113-.079.096-.139.133-.262.222-.367.314-.252.237a1.75 1.75 0 1 0 2.405 2.542l.125-.122.408-.35.494-.446.383-.423.235-.32.072-.113c.025-.04.049-.081.071-.122l.136-.288.14-.403.092-.395.064-.423.048-.636-.005-.863-.078-.871-.11-.645-.108-.443-.144-.443-.197-.453-.289-.469-.355-.397-.074-.065a1.784 1.784 0 0 0-.235-.171l-.514-.226-.708-.069-.54.116-.434.206-.41.294-.396.375-.361.413-.355.456-.354.492-.358.521-.525.791-.508.772-.315.471-.286.412-.239.326-.156.202-.063.085-.106.08a1.75 1.75 0 0 0 2.124 2.783"/><path d="M364.274 182.638l-.179.362-.367.615-.43.595-.5.591-.552.566-.588.52-.604.455-.599.372-.25.129a1.75 1.75 0 1 0 1.65 3.086l.476-.26.848-.546.814-.628.772-.698.723-.756.663-.805.594-.846.489-.842.179-.362a1.75 1.75 0 0 0-3.139-1.548"/><path d="M361.488 184.977l-.58.503-.866.716-.566.431-.576.401-.578.356-.58.304-.58.248-.255.087a1.75 1.75 0 0 0 1.185 3.293l.469-.172.827-.367.78-.42.737-.46.697-.49.67-.514.927-.767.581-.503a1.75 1.75 0 0 0-2.292-2.646m-43.066 18.884l.285-.495.578-1.083.413-.729.262-.394.273-.344.28-.276.1-.076-.117.092.054-.039-.008.016.151-.063.404-.161.528-.206.584-.241.589-.28.458-.269.342-.256.332-.338.333-.549.157-.59c.014-.118.016-.238.006-.356l-.003-.036-.168-.616-.685-.783-.81-.282-.676.042-.578.197-.471.243-.435.267-.433.292-.437.313-.645.489-.624.496-.387.319-.345.293-.299.261-.244.225-.159.154-.112.12-.089.105c-.036.044-.069.09-.1.138l-.064.097-.227.432-.225.563-.157.39-.023.014.196-.297.912-.465.919.142.325.212.221.233-.038-.048.237.391.096.42-.002.191.033-.025.136-.224.208-.31.246-.333.173-.218.1-.12.086-.099.055-.059-.005.006-.045.044.22-.211.402-.34.424-.311.469-.302.506-.289.54-.273.567-.256.589-.235.929-.317 1.255-.332.905-.172.58-.081.579-.055.553-.026.241-.002a1.75 1.75 0 1 0-.046-3.5l-.375.006-.716.039-.729.073-.758.111-1.14.227-1.486.402-1.098.38-.729.295-.715.327-.694.357-.672.391-.644.424-.612.46-.549.475-.22.211-.045.044-.07.075-.117.129-.132.154-.153.186-.252.321-.354.491-.359.565-.319.628-.188.554-.072.533.096.715.32.629.037.048c.067.084.141.162.221.233l.4.278 1.064.215 1.114-.488.443-.534.207-.401.171-.426.107-.293.012-.054.064-.097-.101.138-.055.062-.012.01.069-.069.185-.171.254-.223.307-.261.34-.281.559-.445.574-.437.357-.258.319-.217.25-.16.124-.079-.096.001-.403-.009-.676-.265-.593-.723-.121-.509.003.036.007-.357.141-.46.214-.292.108-.083.027-.003-.153.104-.41.2-.52.215-.566.221-.565.231-.424.204-.293.179-.054.039a1.67 1.67 0 0 0-.117.091l-.343.305-.524.56-.437.574-.378.585-.455.806-.52.98-.286.495a1.75 1.75 0 1 0 3.032 1.748m10.186 73.495l.088-.194.145-.295.116-.207.087-.131.046-.05-.019.038-.132.129-.335.191-.606.103-.672-.176-.419-.32-.18-.246-.064-.11-.017.054-.014.171-.033.24-.056.243-.071.19-.058.075.032-.114.28-.285.427-.191.391-.041.33.056.197.088.12.079-.138-.099-.118-.113-.055-.082-.038-.08-.023-.075-.007-.065.005-.051.015-.031.021-.008.019.017.011.037v.05l-.007.049-.002.036.024.018.069.003-.004.011-.6.003.048.008-.721-.292-.176-.148.029.082.078.194.084.249.072.266.045.248.013.191-.019.08-.014-.112.114-.339.255-.326.292-.21.307-.117.238-.034.133.002.032-.006-.054-.036-.122-.077-.179-.125-.091-.069a1.751 1.751 0 0 0-2.067 2.825l.203.147.368.243.369.209.385.176.419.134.473.075.532-.023.557-.163.501-.309.425-.474.302-.641.12-.641.001-.559-.064-.522-.107-.501-.141-.483-.168-.463-.197-.444-.25-.444-.439-.528-.951-.486-.049-.008a1.728 1.728 0 0 0-.6.003l-.369.076-.591.197-.544.289-.478.375-.394.446-.299.497-.201.525-.109.535-.023.532.053.521.124.505.19.483.252.459.312.428.37.393.379.318.138.098c.038.028.078.054.119.078l.341.173.602.162.648-.018.668-.241.61-.484.412-.575.251-.559.166-.56.105-.568.051-.578-.01-.598-.095-.61-.177-.506-.283-.449-.544-.466-.818-.257-.774.093-.526.259-.347.282-.256.283-.215.293-.198.319-.193.355-.188.387-.088.194a1.75 1.75 0 0 0 3.188 1.445"/><path d="M327.928 275.552l.778-.28 1.478-.444 1.459-.331 1.472-.234 1.485-.144 1.5-.06 1.516.02 1.532.092 1.546.161 1.562.223 1.576.28 1.59.33 1.603.375 1.614.412 2.447.679 3.29.976 3.317 1.009 3.348.99 3.373.918 2.555.609 1.717.356 1.714.303 1.719.246 1.724.181 1.729.109 1.734.028 1.736-.06.894-.067a1.75 1.75 0 1 0-.268-3.49l-.751.059-1.558.058-1.571-.022-1.582-.096-1.594-.165-1.604-.227-1.614-.285-1.614-.332-2.447-.582-3.299-.897-3.322-.983-3.341-1.016-3.35-.993-2.516-.697-1.685-.43-1.688-.393-1.69-.35-1.694-.298-1.695-.239-1.698-.173-1.7-.099-1.7-.017-1.701.074-1.699.172-1.694.278-1.689.392-1.651.501-.779.28a1.75 1.75 0 0 0 1.186 3.293"/><path d="M326.451 272.341l-.191.142-.363.29-.318.288-.281.305-.267.387-.23.599.013.9.435.816.634.476.546.206.194.066-.302-.128-.553-.6-.182-.679a1.75 1.75 0 0 0 3.498-.119l-.184-.764-.624-.741-.535-.285-.256-.086.071.056.353.323.317.678-.027.723-.175.374-.096.107.022-.04.137-.132.262-.212.191-.142a1.749 1.749 0 1 0-2.089-2.808"/><path d="M330.586 277.18l.26-.081.458-.115.472-.087.516-.066.558-.046.598-.023.635-.002.67.021.703.041.733.063.763.082.79.101 1.24.187 1.727.307 1.8.364 1.869.414 1.927.454 1.974.487 3.029.769 4.105 1.051 3.09.768 2.052.487 2.029.454 2 .413 1.962.364 1.917.303 1.41.184.926.1.903.077.887.057.869.033.852.008.834-.018.815-.046.796-.075.775-.107.755-.141.734-.177.711-.217.687-.259.662-.305.634-.354.601-.405.565-.458.523-.514.476-.567.244-.339a1.75 1.75 0 1 0-2.864-2.012l-.087.132-.247.314-.278.29-.312.268-.349.248-.389.227-.43.206-.471.184-.511.161-.551.138-.589.114-.625.089-.66.065-.693.041-.724.017-.753-.006-.781-.029-.807-.05-.831-.071-.846-.09-1.314-.17-1.827-.288-1.891-.349-1.943-.401-1.986-.445-2.015-.478-3.067-.762-4.111-1.053-3.054-.775-2.008-.494-1.974-.465-1.932-.427-1.882-.38-1.817-.321-1.316-.198-.861-.11-.843-.09-.825-.069-.805-.046-.786-.022-.766.005-.747.033-.727.064-.706.097-.687.134-.634.166-.26.081a1.75 1.75 0 1 0 1.046 3.34"/><path d="M381.774 279.942l.085-.243.151-.29.172-.238.209-.236.233-.216.239-.181.222-.131.175-.071.082-.003-.086.048-.32.006-.36-.115-.289-.19-.232-.261-.134-.255-.055-.188-.017-.095-.013-.006-.028.071-.055.137-.088.193-.124.244-.068.124a1.749 1.749 0 1 0 3.077 1.668l.122-.228.202-.411.17-.399.138-.395.102-.402.06-.422.001-.455-.088-.494-.215-.511-.356-.464-.455-.345-.562-.224-.684-.072-.666.094-.583.199-.543.277-.522.348-.503.415-.479.484-.443.556-.392.63-.296.642-.086.243a1.75 1.75 0 0 0 3.302 1.162"/><path d="M375.048 281.606l.358-.157.685-.296.651-.278.617-.259.585-.242.553-.224.522-.208.49-.191.458-.175.428-.16.397-.144.367-.129.336-.115.306-.101.275-.087.245-.073.213-.06.18-.046.218-.049.16-.023-.087.02-.757-.158-.861-2.109.382-.608.003-.025-.185.091-.306.14-.406.17-.493.19-.574.207-.649.216-.72.224-.787.226-.851.226-.911.222-.967.215-1.022.204-1.072.191-1.119.173-1.164.153-1.204.13-.607.054a1.75 1.75 0 1 0 .313 3.486l.669-.06 1.287-.14 1.243-.164 1.196-.186 1.146-.205 1.093-.219 1.039-.232.98-.24.92-.245.857-.247.792-.247.724-.243.656-.236.585-.228.517-.22.454-.212.409-.219.421-.284.622-.812-.808-2.249-.895-.229-.422.025-.379.065-.324.074-.246.065-.269.076-.292.088-.317.1-.343.113-.369.126-.397.14-.425.155-.454.169-.482.185-.513.2-.542.216-.573.233-.604.249-.636.267-.667.285-.697.302-.359.156a1.75 1.75 0 0 0 1.403 3.207M231.615 180.217l.042.211.074.377.062.328.052.283.043.239.035.199.027.159.021.124.015.094.013.073.038.17 3.444-.488-.005-.228-.003-.222.005-.272.018-.316.036-.342.058-.353.083-.343.109-.315.131-.269.043-.06a1.75 1.75 0 0 0-3.044-1.727l-.196.361-.265.62-.189.606-.129.584-.084.549-.048.504-.023.446-.005.374.004.279.004.1 3.444-.366.022.109-.008-.046-.016-.095-.022-.136-.03-.175-.038-.216-.046-.258-.056-.301-.066-.346-.076-.391-.043-.211a1.749 1.749 0 1 0-3.431.687"/><path d="M231.846 180.262l.062.404.172.866.227.864.276.835.325.807.372.776.416.747.459.716.499.686.537.655.573.626.606.597.637.568.667.542.694.515.719.491.745.468.767.445.788.424.809.404 1.238.567 1.716.701 1.786.645 1.836.592 1.878.547 1.91.508 2.899.702 3.9.864 3.867.825 2.824.62 1.823.423 1.77.439 1.705.46 1.627.486 1.539.516 1.439.55.997.432.621.297.601.312.568.321.534.33.499.341.219.161a1.75 1.75 0 1 0 2.065-2.826l-.32-.232-.626-.423-.654-.401-.679-.381-.703-.362-.737-.35-1.138-.49-1.576-.598-1.649-.551-1.716-.511-1.773-.478-1.822-.451-1.864-.433-2.844-.624-3.84-.819-3.833-.849-2.824-.683-1.832-.486-1.783-.518-1.722-.553-1.652-.593-1.581-.643-1.131-.516-.716-.356-.69-.369-.663-.383-.634-.396-.606-.409-.574-.424-.544-.437-.512-.452-.48-.467-.448-.482-.414-.498-.382-.515-.349-.534-.315-.553-.282-.575-.247-.598-.213-.624-.177-.651-.144-.708-.063-.404a1.75 1.75 0 1 0-3.459.531"/><path d="M233.637 181.401l.238.323.522.668.555.655.575.626.595.6.614.573.632.547.649.522.991.728 1.377.898 1.44.822 1.486.745 1.526.675 1.56.615 1.589.561 1.613.515 1.634.477 1.648.446 2.485.625 3.333.792 3.316.793 2.443.624 1.597.44 1.574.471 1.541.504 1.504.545 1.462.59 1.416.641 1.364.697 1.309.759 1.25.827.886.659.567.459.561.487.545.508.255.251a1.751 1.751 0 0 0 2.452-2.497l-.324-.317-.638-.592-.654-.565-.682-.548-1.043-.769-1.424-.933-1.471-.847-1.512-.769-1.549-.698-1.58-.635-1.607-.579-1.627-.532-1.644-.49-1.662-.459-2.496-.636-3.32-.794-3.288-.781-2.426-.609-1.581-.428-1.55-.451-1.514-.482-1.472-.518-1.426-.558-1.376-.606-1.321-.657-1.263-.713-1.213-.785-.871-.637-.552-.441-.535-.46-.518-.48-.501-.501-.483-.523-.466-.545-.458-.583-.237-.323a1.75 1.75 0 0 0-2.82 2.073"/><path d="M237.986 188.708l.42.343.907.686.945.643.962.588.978.535.991.486 1.003.439 1.012.396 1.021.357 1.027.32 1.539.416 2.071.461 2.088.379 3.112.463 3.091.413 2.021.286 1.982.321 1.935.38 1.405.333.911.249.905.277.889.305.422.159a1.751 1.751 0 0 0 1.225-3.279l-.513-.191-1.001-.342-1.009-.307-1.025-.278-1.537-.361-2.047-.4-2.052-.332-2.048-.29-3.041-.406-3.002-.444-1.952-.351-1.919-.425-1.412-.379-.915-.283-.9-.312-.883-.343-.868-.377-.851-.413-.834-.453-.818-.494-.8-.54-.801-.602-.42-.343a1.749 1.749 0 0 0-2.462.248 1.749 1.749 0 0 0 .248 2.462m-2.79-8.26l-.016-.174-.004-.221.014-.141.024-.096.025-.053.019-.013.006.019-.012.043-.004.042-.048.089-.116.094-.093.053-.059.033-.035.031-.029.032-.032.033-.046-.017-.026-.026-.007.032-.01.046-.016.067-.027.09-.043.116-.065.143-.027.048a1.75 1.75 0 0 0 3.163 1.5l.117-.257.171-.45.124-.454.075-.453.026-.45-.024-.442-.073-.429-.139-.455-.296-.602-.491-.63-.602-.489-.689-.338-.757-.175-.802.016-.804.237-.679.421-.42.422-.253.36-.203.389-.153.41-.104.427-.06.439-.019.451.017.431.017.174a1.75 1.75 0 1 0 3.485-.323"/><path d="M231.638 179.798l-.06.228-.111.529-.072.551-.022.547.031.54.087.531.145.516.2.491.248.462.289.427.47.551.72.662.812.603.449.297a1.75 1.75 0 0 0 1.917-2.928l-.302-.196-.543-.385-.421-.36-.236-.253-.105-.136-.083-.126-.066-.125-.052-.135-.039-.155-.023-.186-.001-.224.026-.268.068-.343.059-.228a1.75 1.75 0 1 0-3.385-.887"/><path d="M232.633 185.203l.151.17.287.323.266.3.247.276.228.255.209.232.191.212.174.192.229.25.251.271.195.206.149.152.126.121.309.231 2.472-2.292-.211-.335-.13-.165-.137-.166-.235-.277-.37-.421-.408-.448-.413-.434-.304-.301-.203-.189-.196-.168-.219-.165-.333-.192-.954-.175-1.591 1.391.038.966.167.434.184.358.113.2c.035.061.074.121.116.178l.199.266.476.573.523.548.545.498.56.453.571.413.851.549.593.35a1.75 1.75 0 0 0 1.772-3.018l-.475-.277-.699-.446-.424-.302-.4-.317-.377-.336-.355-.361-.356-.42-.198-.267.116.178-.057-.098-.073-.128.013.084-.021.741-1.565 1.281-.85-.182-.162-.107.01.001.083.068.117.107.232.228.36.376.366.402.333.378.201.236.095.114.044.054-.105-.19 2.502-2.231.254.198-.023-.019-.104-.105-.169-.179-.235-.254-.221-.242-.168-.185-.186-.206-.205-.228-.224-.249-.243-.273-.263-.296-.285-.32-.15-.171a1.752 1.752 0 0 0-2.471-.15 1.752 1.752 0 0 0-.15 2.471m46.604 19.235l.1.138.096.17.118.282.148.464.163.56.106.339a1.75 1.75 0 1 0 3.339-1.049l-.087-.276-.208-.704-.282-.799-.302-.628-.252-.406-.1-.138a1.75 1.75 0 0 0-2.839 2.047"/><path d="M280.069 207.097l.126.185.266.37.267.34.264.303.27.273.288.246.326.223.399.195.509.134.627-.002.647-.214.516-.381.333-.427.198-.403.144-.5.082-.643.004-.65-.05-.644-.094-.646-.13-.645-.164-.636-.197-.616-.231-.588-.145-.315a1.75 1.75 0 1 0-3.166 1.491l.061.121.151.371.141.425.122.454.097.456.068.431.037.373.013.273.003.15.024-.012.087-.138.197-.215.352-.225.457-.119.408.025.261.091.12.077.017.027-.053-.035-.104-.097-.143-.158-.175-.219-.212-.292-.126-.185a1.75 1.75 0 0 0-2.892 1.971m-.883-4.875a1.75 1.75 0 0 0 0-3.5 1.75 1.75 0 1 0 0 3.5"/><path d="M279.795 204.894l.066.079-.038-.03-.063-.058-.045.015-.032.156-.047.326-.058.453-.036.566.052.694.128.518c.017.056.037.11.06.164l.061.144.181.364.235.375.286.353.351.321.425.271.663.227.967-.003.905-.347.673-.531.505-.614.39-.671.301-.723.218-.771.133-.813.038-.85-.07-.877-.193-.892-.335-.89-.258-.5a1.7 1.7 0 0 0-.054-.092l-.137-.219-.356-.504-.409-.497-.437-.46-.46-.425-.479-.391-.729-.517-1.015-.605-1.053-.523-1.049-.444-1.026-.38-.511-.175a1.75 1.75 0 1 0-1.129 3.313l.428.145.881.324.862.358.821.399.779.451.541.376.321.255.296.265.272.277.247.288.241.331.137.219-.054-.093.08.122.178.393.116.421.055.44-.001.442-.052.425-.092.387-.113.325-.11.239-.062.132.061.022.266-.017.321.079.186.108.115.099.05.071-.003.02-.04-.041-.077-.141-.061-.144.06.164.01.142-.037-.122.013-.308.058-.45.07-.577.019-.72-.13-.801-.257-.617-.245-.369-.065-.079a1.75 1.75 0 1 0-2.704 2.223m-6.617-5.737a1.75 1.75 0 0 0 0-3.5 1.75 1.75 0 1 0 0 3.5"/><path d="M274.001 198.664l.322-.016.507.014.447.059.433.098.426.137.426.176.429.216.435.258.197.129a1.75 1.75 0 0 0 1.899-2.94l-.339-.216-.65-.373-.676-.326-.703-.273-.729-.214-.753-.15-.774-.08-.75-.011-.322.016a1.75 1.75 0 0 0 .175 3.496m2.108 73.998l-.016-.07-.185-.481-.535-.638-.728-.351-.635-.056-.247.015.387.016a1.75 1.75 0 0 0-.718 3.426l.551.051.12-.009-.364-.063-.568-.308-.4-.53-.088-.285.016.07a1.749 1.749 0 1 0 3.41-.787"/><path d="M274.963 271.029l-.734-.248-1.584-.433-1.632-.317-1.642-.196-1.65-.085-1.653.018-1.655.11-1.656.193-1.655.268-1.653.333-1.651.391-1.649.438-2.457.73-3.267 1.07-3.25 1.126-3.213 1.117-2.376.795-1.561.494-1.55.459-1.532.417-1.513.366-1.491.309-1.468.245-1.441.175-1.415.098-1.385.016-1.354-.072-1.324-.166-.617-.113a1.75 1.75 0 1 0-.619 3.444l.813.144 1.57.186 1.579.077 1.586-.025 1.591-.115 1.596-.197 1.6-.27 1.604-.335 1.607-.39 1.608-.438 1.611-.479 1.615-.511 2.416-.808 3.209-1.116 3.194-1.107 3.174-1.041 2.362-.703 1.553-.415 1.539-.365 1.522-.31 1.503-.246 1.483-.177 1.461-.103 1.438-.021 1.415.065 1.392.158 1.37.256 1.383.373.734.248a1.751 1.751 0 0 0 1.119-3.317"/><path d="M223.085 283.173l.807.272 1.706.473 1.738.348 1.734.22 1.728.102 1.719-.005 1.71-.104 1.698-.191 1.688-.268 1.676-.336 1.666-.393 1.654-.442 2.455-.731 3.25-1.061 3.221-1.095 3.184-1.057 2.356-.724 1.551-.434 1.547-.39 1.536-.334 1.523-.272 1.511-.202 1.499-.124 1.485-.04 1.474.051 1.462.149 1.453.254 1.446.366.689.218a1.75 1.75 0 1 0 1.042-3.341l-.883-.273-1.702-.42-1.7-.287-1.694-.164-1.688-.052-1.679.051-1.671.144-1.661.225-1.653.297-1.644.36-1.637.413-1.635.459-2.43.748-3.208 1.065-3.181 1.082-3.162 1.034-2.36.703-1.558.418-1.548.368-1.54.311-1.529.247-1.52.175-1.511.097-1.502.011-1.494-.081-1.489-.181-1.487-.289-1.517-.414-.806-.272a1.75 1.75 0 0 0-1.119 3.316"/><path d="M272.05 272.565l-.307-.061-.306-.061a1.75 1.75 0 1 0-.687 3.432l.307.061.306.061a1.75 1.75 0 0 0 .687-3.432m2.306 1.912l.096.128.472.463.494.334.3.177.023.021a1.75 1.75 0 1 0 1.984-2.883l-.233-.155-.232-.136-.026.012.012.059-.097-.128a1.75 1.75 0 1 0-2.793 2.108"/><path d="M274.712 274.548l.187.078.204.115.142.11.143.131.257.275.368.456.197.255a1.75 1.75 0 0 0 2.764-2.147l-.259-.333-.57-.681-.512-.51-.422-.342-.481-.313-.485-.247-.187-.078a1.75 1.75 0 1 0-1.346 3.231"/><path d="M275.37 274.761l-.029.197-.056.334-.089.433-.121.459-.109.323-.089.206-.055.094.002-.022.144-.193 2.259-.228.591 2.138-.081.158.029-.013.116-.087.204-.134.299-.168.404-.191.217-.088a1.75 1.75 0 0 0-1.357-3.227l-.39.167-.643.318-.542.325-.45.324-.367.321-.298.324-.273.408.519 2.283 2.289-.207.259-.313.185-.301.178-.362.177-.444.172-.54.161-.634.11-.55.067-.402.029-.196a1.749 1.749 0 1 0-3.462-.512m-51.048 2.018l-.159-.143-.313-.274-.295-.247-.274-.218-.257-.191-.247-.169-.245-.15-.261-.134-.308-.121-.412-.092-.606.015-.771.328-.568.659-.2.628-.005.578.124.572.182.501.212.473.238.474.393.72.571.974.294.483a1.75 1.75 0 1 0 2.988-1.821l-.263-.433-.52-.884-.339-.617-.178-.35-.129-.274-.067-.148-.018.043-.029.274-.175.472-.507.545-.671.258-.466-.007-.23-.066-.082-.042.012-.001.075.042.124.082.166.122.203.16.239.199.279.243.159.143a1.75 1.75 0 1 0 2.336-2.606"/><path d="M223.227 280.115l.762.246 1.626.471 1.701.413 1.746.339 1.778.256 1.797.16 1.805.055 1.366-.036.913-.065.464-.047a.495.495 0 0 0 .054-.006l.774-.102 1.628-.28 1.571-.276 1.098-.14.677-.042.307-.003a1.75 1.75 0 0 0-.064-3.5l-.477.011-.89.063-1.256.164-1.563.274-1.49.259-.775.103.053-.007-.365.038-.759.057-1.166.036-1.598-.042-1.611-.139-1.607-.227-1.588-.305-1.552-.373-1.518-.438-.761-.247a1.752 1.752 0 0 0-1.08 3.33"/><path d="M224.453 275.928l-.093-.102-.299-.296-.36-.304-.396-.282-.437-.256-.485-.219-.549-.163-.636-.073-.471.029a1.576 1.576 0 0 0-.203.038l-.135.033-.484.178-.509.294-.433.367-.347.412-.268.435-.201.441-.145.441-.127.616-.055.816.062.811.13.614.141.418.103.235c.018.039.037.078.058.116l.13.232.434.612.56.582.62.481.658.392.682.317.695.253.702.201 1.03.218 1.363.182.999.077.628.028.579.015.532.006h.251a1.75 1.75 0 1 0 .008-3.5h-.223l-.482-.005-.512-.012-.522-.022-.805-.057-1.106-.14-.796-.16-.474-.129-.43-.147-.375-.159-.315-.167-.253-.168-.198-.164-.192-.235-.129-.233.059.116.008.03-.024-.031-.051-.142-.049-.299v-.339l.032-.234.021-.099.014-.067-.001-.032-.026-.001-.055.014-.076.012.01-.024.135-.033-.202.038-.185-.008-.039-.036.067-.001.132.044.164.085.168.109.15.116.137.128.093.103a1.75 1.75 0 0 0 2.598-2.346m52.262.071l.1.164.108.214.052.149.022.114.001.08-.012.048-.016.024-.017.005-.014-.004-.012-.008-.052.035-.081.025-.062-.012-.066-.019-.041-.035.015-.045.117-.005.12.04.07.031.067.044.054.046.037.033.02.005.011-.035.012-.085.025-.138.013-.05a1.75 1.75 0 1 0-3.446-.611l-.048.295-.044.507.013.501.075.491.142.475.21.446.274.404.329.348.369.284.449.239.659.203.795.06.768-.114.73-.272.676-.431.558-.552.338-.494.193-.404.143-.435.087-.458.028-.471-.032-.476-.09-.475-.143-.468-.196-.46-.224-.419-.1-.163a1.75 1.75 0 1 0-2.984 1.829"/><path d="M275.936 276.74a1.75 1.75 0 1 0 0-3.5 1.75 1.75 0 1 0 0 3.5"/><path d="M279.532 274.206l-.284-.662a1.75 1.75 0 0 0-3.217 1.378l.284.663a1.75 1.75 0 0 0 3.217-1.379"/><path fill="red" d="M365.824 164.163c1.792.079 2.942 1.008 3.53 2.666.459 1.878-.367 3.283-2.245 3.742l-2.25.597-3.57.896-4.56 1.246-4.025.758-4.029.682-4.032.609-4.035.537-4.038.468-4.04.402-4.042.338-4.043.276-4.044.218-4.044.162-4.044.107-4.043.056-4.042.006-4.041-.04-4.039-.084-4.036-.126-4.042-.166-6.051-.316-8.045-.537-8.026-.65-8.005-.744-7.981-.819-7.948-.874-3.959-.452a3.5 3.5 0 0 1 .793-6.954l3.959.451 7.921.871 7.929.814 7.938.737 7.944.643 7.945.529 5.951.311 3.963.162 3.968.124 3.967.082 3.964.039 3.961-.007 3.959-.056 3.954-.105 3.951-.158 3.946-.213 3.942-.271 3.936-.33 3.93-.392 3.925-.456 3.918-.522 3.911-.591 3.905-.662 3.897-.736 3.974-1.083 3.691-1.119 2.025.032.702-.098zm-57.663 129.13l4.256.018 4.256.06 4.254.1 4.252.142 4.25.183 4.247.222 4.244.262 4.24.302 4.235.339 4.23.378 4.225.416 4.218.453 4.21.491 4.204.526 4.195.562 2.102.296a3.5 3.5 0 1 1-.976 6.932l-2.056-.29-4.135-.554-4.143-.519-4.15-.484-4.155-.446-4.162-.41-4.167-.373-4.171-.335-4.175-.297-4.179-.258-4.181-.22-4.184-.18-4.185-.139-4.186-.1-4.186-.059-4.186-.018-4.185.024-4.184.066-4.182.109-4.179.151-4.176.195-4.172.239-4.168.282-4.162.328-4.157.373-4.151.418-3.713.113-4.125.275-4.179.384-4.29.33-3.63.22-3.787.44-3.224.165c-1.902.343-3.913-.391-4.255-2.293-.343-1.903.549-3.579 2.452-3.921l.858-.605 4.169-.495 5.657-.385 4.95-.11 4.069-.385 4.046-.216 4.222-.474 4.229-.426 4.233-.38 4.239-.334 4.243-.288 4.246-.244 4.249-.198 4.252-.155 4.254-.11 4.255-.068 4.255-.025z"/><path fill="red" d="M236.372 165.947l-.531-.015-1.17.003-1.199.056-1.188.109-1.175.162-1.163.213-1.148.263-1.134.313-1.118.361-1.101.407-1.085.454-1.067.497-1.05.541-1.033.582-1.014.622-.996.661-.978.699-.96.736-.942.772-.925.806-.907.839-.889.872-.872.904-.856.934-.838.964-.821.993-.805 1.021-.789 1.049-.773 1.075-.756 1.101-.74 1.126-.725 1.15-1.049 1.756-1.348 2.426-1.295 2.525-1.233 2.604-1.171 2.678-1.109 2.746-1.048 2.809-.986 2.867-.924 2.919-.863 2.965-.799 3.007-.738 3.042-.673 3.073-.611 3.097-.546 3.116-.481 3.13-.416 3.138-.351 3.141-.284 3.137-.217 3.13-.149 3.115-.081 3.096-.012 3.072.058 3.041.129 3.006.201 2.964.272 2.919.347 2.866.421 2.81.497 2.748.425 2.031.311 1.338.327 1.305.347 1.286.367 1.267.387 1.246.409 1.225.429 1.204.451 1.181.473 1.159.494 1.134.517 1.111.539 1.086.563 1.06.586 1.033.611 1.006.634.978.66.949.685.919.711.888.737.856.764.823.791.789.818.752.847.715.874.677.902.636.929.595.957.551.985.506 1.01.46 1.037.411 1.061.363 1.085.311 1.108.26 1.13.208.614.09a3.5 3.5 0 0 0 .989-6.93l-.364-.05-.795-.138-.775-.175-.755-.209-.739-.245-.721-.279-.706-.313-.691-.348-.678-.383-.664-.417-.651-.452-.639-.487-.626-.523-.613-.557-.601-.592-.588-.627-.576-.662-.562-.696-.548-.73-.535-.764-.521-.797-.506-.83-.491-.861-.477-.892-.461-.924-.446-.952-.43-.983-.413-1.01-.398-1.038-.382-1.064-.365-1.091-.348-1.116-.332-1.14-.315-1.164-.298-1.186-.279-1.194-.388-1.839-.462-2.539-.394-2.612-.326-2.679-.259-2.738-.19-2.792-.124-2.84-.057-2.88.01-2.916.075-2.944.141-2.966.205-2.982.269-2.993.333-2.996.396-2.995.458-2.985.519-2.972.58-2.95.639-2.924.699-2.891.757-2.852.814-2.807.87-2.755.926-2.698.98-2.634 1.032-2.564 1.085-2.488 1.135-2.405 1.184-2.317 1.239-2.237.963-1.615.651-1.036.661-1.008.672-.98.682-.952.692-.923.701-.893.711-.862.72-.831.729-.8.737-.767.745-.734.752-.7.76-.667.767-.632.774-.597.78-.562.786-.527.793-.491.798-.456.804-.419.811-.383.817-.347.823-.311.83-.273.837-.237.846-.2.854-.163.863-.125.874-.086.884-.048.936-.006.53.015a3.5 3.5 0 1 0 .203-6.997"/><path fill="red" d="M219.009 305.994l.66.04 1.385.055 2.07.021 2.73-.069 2.703-.153 3.963-.314 3.904-.328 2.551-.177 1.247-.065a3.5 3.5 0 1 0-.367-6.99l-1.365.072-2.653.185-3.872.325-3.806.304-2.488.143-2.482.067-1.859-.016-1.245-.048-.66-.039a3.499 3.499 0 1 0-.416 6.987M365.35 171.359l.576.002 1.021.039.967.084.953.126.94.169.929.21.917.251.906.292.896.332.887.373.878.412.869.452.86.491.851.531.842.569.834.608.825.647.815.684.806.722.796.759.786.795.776.831.764.866.753.9.742.935.73.967.717 1 .705 1.031.692 1.061.679 1.092.665 1.12.652 1.149.638 1.176.623 1.202.609 1.228.595 1.252.579 1.277.565 1.299.823 2.002 1.04 2.736.971 2.799.907 2.867.842 2.929.775 2.982.707 3.03.639 3.07.569 3.102.499 3.128.429 3.147.356 3.158.285 3.163.211 3.16.138 3.151.064 3.133-.01 3.11-.086 3.079-.161 3.04-.238 2.995-.313 2.943-.39 2.883-.466 2.815-.398 2.05-.287 1.336-.309 1.329-.328 1.307-.347 1.284-.366 1.261-.385 1.236-.404 1.21-.422 1.184-.441 1.157-.459 1.128-.477 1.1-.495 1.069-.514 1.038-.531 1.007-.548.974-.565.94-.582.907-.599.872-.615.836-.631.8-.647.764-.662.727-.677.689-.693.652-.707.613-.722.576-.737.537-.752.498-.768.461-.783.421-.8.384-.818.344-.835.306-.854.267-.874.228-.896.188-.918.147-.942.105-.966.063-.992.019-1.019-.025-1.047-.072-1.074-.12-.513-.073a3.5 3.5 0 0 0-.968 6.933l.728.1 1.37.145 1.352.085 1.333.025 1.312-.034 1.292-.093 1.27-.151 1.247-.209 1.224-.267 1.2-.322 1.173-.377 1.147-.43 1.12-.483 1.092-.533 1.063-.582 1.033-.63 1.005-.675.975-.72.945-.762.916-.803.886-.842.857-.881.829-.917.8-.952.773-.987.744-1.019.718-1.052.691-1.083.665-1.112.64-1.141.613-1.17.589-1.197.565-1.223.54-1.249.516-1.274.493-1.297.469-1.321.447-1.343.423-1.365.401-1.386.379-1.406.357-1.426.334-1.444.316-1.476.431-2.238.498-3.021.413-3.079.331-3.131.249-3.177.168-3.216.089-3.249.009-3.277-.07-3.297-.146-3.311-.225-3.32-.3-3.322-.377-3.316-.452-3.306-.526-3.289-.602-3.265-.675-3.235-.749-3.198-.822-3.156-.896-3.107-.968-3.052-1.041-2.99-1.109-2.91-.877-2.13-.611-1.404-.629-1.383-.648-1.362-.666-1.34-.684-1.317-.703-1.293-.722-1.269-.74-1.244-.759-1.217-.778-1.19-.797-1.163-.817-1.134-.836-1.104-.855-1.074-.875-1.042-.896-1.01-.915-.976-.936-.942-.956-.907-.978-.869-.998-.832-1.019-.793-1.04-.753-1.062-.711-1.083-.668-1.103-.623-1.125-.577-1.145-.531-1.165-.481-1.185-.431-1.204-.379-1.222-.326-1.239-.272-1.256-.217-1.271-.16-1.286-.102-1.259-.044-.576-.002a3.5 3.5 0 1 0-.018 7"/><path fill="#FFBC00" d="M376.126 326.948l.2 1.071.358 2.114.307 2.126.254 2.15.198 2.167.135 2.177.067 2.179-.004 2.174-.081 2.161-.163 2.141-.248 2.114-.338 2.079-.432 2.038-.382 1.475-.282.959-.314.966-.339.952-.365.936-.392.921-.195.428a3.5 3.5 0 0 0 6.379 2.883l.261-.579.472-1.119.438-1.13.403-1.142.371-1.152.343-1.183.453-1.777.492-2.364.38-2.384.275-2.399.178-2.407.086-2.409.001-2.404-.078-2.395-.15-2.377-.218-2.356-.277-2.327-.333-2.292-.379-2.232-.2-1.071a3.5 3.5 0 0 0-6.881 1.288m-19.471-1.372l.222.768.396 1.483.351 1.48.314 1.496.275 1.511.237 1.523.197 1.535.158 1.543.117 1.549.076 1.554.034 1.557-.007 1.558-.049 1.556-.093 1.552-.135 1.547-.178 1.54-.223 1.53-.266 1.518-.311 1.506-.356 1.49-.401 1.473-.446 1.454-.492 1.433-.537 1.41-.583 1.386-.63 1.36-.676 1.332-.723 1.303-.77 1.271-.818 1.239-.865 1.205-.914 1.169-.452.543a3.5 3.5 0 0 0 5.39 4.467l.587-.711 1.082-1.395 1.021-1.433.962-1.467.902-1.501.844-1.53.786-1.559.729-1.586.673-1.609.617-1.631.562-1.651.508-1.669.454-1.685.402-1.699.35-1.711.299-1.722.249-1.73.198-1.737.149-1.741.101-1.745.053-1.746.005-1.745-.041-1.743-.088-1.739-.133-1.733-.178-1.725-.224-1.716-.267-1.706-.311-1.692-.355-1.677-.397-1.661-.434-1.62-.221-.769a3.5 3.5 0 0 0-6.726 1.943m-25.028-1.769l.457.989.81 1.897.717 1.875.636 1.881.559 1.886.48 1.891.403 1.892.326 1.893.25 1.892.175 1.89.1 1.887.025 1.881-.048 1.875-.121 1.867-.194 1.858-.265 1.846-.338 1.834-.409 1.821-.479 1.804-.55 1.788-.62 1.77-.689 1.749-.759 1.728-.827 1.704-.895 1.68-.963 1.654-1.031 1.626-1.098 1.596-1.164 1.565-1.231 1.533-1.297 1.498-1.363 1.462-.683.695a3.499 3.499 0 1 0 4.994 4.904l.816-.832 1.534-1.654 1.462-1.696 1.389-1.738 1.316-1.778 1.242-1.815 1.167-1.851 1.092-1.885 1.015-1.917.939-1.947.861-1.975.782-2.001.704-2.026.624-2.048.544-2.069.463-2.087.381-2.104.3-2.118.216-2.131.133-2.141.05-2.149-.036-2.156-.12-2.161-.206-2.163-.292-2.163-.378-2.162-.465-2.158-.553-2.152-.64-2.145-.728-2.135-.817-2.123-.892-2.079-.458-.99a3.5 3.5 0 1 0-6.353 2.938m-62.724-6.379l-.331.556-.666 1.162-.637 1.178-.598 1.174-.559 1.171-.521 1.169-.483 1.165-.445 1.163-.409 1.159-.371 1.156-.335 1.153-.3 1.15-.377 1.692-.387 2.25-.257 2.256-.128 2.238-.002 2.217.118 2.194.232 2.17.34 2.144.443 2.119.54 2.093.629 2.066.715 2.04.793 2.014.865 1.989.933 1.965.995 1.942 1.051 1.919 1.103 1.898 1.148 1.878 1.19 1.858 1.226 1.84 1.258 1.822 1.928 2.693 2.641 3.545 1.349 1.765a3.5 3.5 0 1 0 5.562-4.25l-1.299-1.698-2.562-3.437-1.859-2.595-1.194-1.728-1.156-1.733-1.114-1.737-1.067-1.742-1.016-1.745-.961-1.749-.902-1.753-.838-1.758-.771-1.761-.7-1.765-.625-1.769-.547-1.773-.466-1.779-.381-1.785-.293-1.793-.201-1.801-.107-1.813-.008-1.826.095-1.842.202-1.861.319-1.907.319-1.451.248-.959.278-.965.31-.973.342-.98.376-.987.409-.994.445-1.003.48-1.01.516-1.019.553-1.026.602-1.053.332-.556a3.5 3.5 0 0 0-6.012-3.587m-26.924 6.007l-.29.819-.56 1.746-.496 1.787-.419 1.792-.346 1.797-.274 1.799-.203 1.799-.135 1.799-.068 1.797-.003 1.793.058 1.789.12 1.782.178 1.776.234 1.767.289 1.757.342 1.748.392 1.736.441 1.724.488 1.711.533 1.696.576 1.682.617 1.665.656 1.65.695 1.631.73 1.613.764 1.594.797 1.573.827 1.553.857 1.531.883 1.508.91 1.484.933 1.46.484.735a3.5 3.5 0 0 0 5.843-3.856l-.43-.651-.863-1.347-.839-1.367-.814-1.387-.788-1.405-.759-1.422-.731-1.439-.699-1.454-.666-1.467-.632-1.481-.596-1.491-.558-1.502-.52-1.512-.48-1.519-.438-1.526-.394-1.533-.35-1.536-.305-1.541-.257-1.543-.208-1.545-.158-1.546-.108-1.545-.054-1.544-.001-1.543.054-1.54.11-1.536.168-1.533.228-1.529.288-1.523.35-1.519.414-1.513.491-1.54.29-.819a3.5 3.5 0 1 0-6.598-2.339m-21.838 2.336l-.202.61-.398 1.27-.371 1.283-.339 1.28-.305 1.275-.271 1.271-.341 1.879-.34 2.499-.207 2.508-.071 2.496.068 2.485.206 2.473.344 2.461.482 2.45.619 2.438.755 2.426.89 2.416 1.023 2.407 1.154 2.398.644 1.231a3.5 3.5 0 1 0 6.198-3.252l-.539-1.023-1.02-2.103-.896-2.089-.774-2.078-.654-2.07-.535-2.067-.417-2.068-.3-2.073-.183-2.082-.067-2.097.05-2.116.168-2.138.29-2.188.299-1.665.234-1.106.265-1.114.295-1.123.326-1.133.363-1.16.202-.611a3.5 3.5 0 1 0-6.645-2.2"/><path d="M130.275 419.6l5.33-.463 10.67-.9 10.686-.864 10.704-.826 10.721-.786 10.736-.743 10.751-.698 10.762-.65 10.774-.6 10.784-.548 10.792-.493 10.799-.435 10.804-.376 10.808-.313 10.811-.249 10.813-.182 10.812-.112 10.81-.04 10.808.033 10.803.111 10.797.19 10.79.271 10.781.355 10.771.442 10.76.53 10.747.621 10.733.716 10.716.811 10.7.909 10.681 1.011 10.661 1.113 10.64 1.22 5.303.649a3.5 3.5 0 0 0 .85-6.948l-5.356-.656-10.71-1.227-10.729-1.12-10.747-1.017-10.764-.914-10.78-.816-10.794-.719-10.806-.625-10.818-.533-10.827-.443-10.836-.357-10.843-.272-10.849-.191-10.852-.111-10.856-.033-10.857.04-10.857.113-10.856.183-10.852.25-10.849.315-10.843.377-10.836.437-10.828.494-10.818.549-10.807.602-10.794.653-10.78.699-10.765.746-10.748.787-10.73.829-10.71.866-10.686.901-5.331.463a3.5 3.5 0 1 0 .606 6.974m322.898-95.614l1.385-.519 2.726-.946 2.738-.852 2.772-.765 2.8-.673 2.823-.578 2.84-.48 2.853-.378 2.86-.272 2.863-.163 2.859-.051 2.852.064 2.839.183 2.822.305 2.083.308 1.373.243 1.386.278 1.378.311.666.163a3.5 3.5 0 0 0 1.657-6.801l-.788-.192-1.541-.345-1.546-.308-1.57-.275-2.353-.342-3.123-.331-3.132-.195-3.134-.065-3.133.062-3.127.183-3.115.302-3.1.415-3.079.524-3.054.63-3.025.732-2.99.828-2.951.923-2.883 1.002-1.385.519a3.5 3.5 0 0 0 2.454 6.556m-21.837 34.767l1.072-.414 2.153-.817 2.187-.804 2.224-.793 2.258-.777 2.29-.758 2.319-.737 2.345-.712 2.368-.684 2.389-.654 2.407-.619 2.421-.581 2.433-.542 2.442-.497 2.448-.452 2.451-.402 2.452-.349 2.449-.294 2.443-.235 2.435-.174 2.423-.109 2.409-.043 2.392.027 2.372.1 2.349.175 2.324.253 2.295.333 2.264.417 2.231.502 2.196.59 2.158.68 2.117.774 1.006.407a3.5 3.5 0 0 0 2.617-6.492l-1.231-.494-2.414-.874-2.446-.764-2.475-.659-2.5-.556-2.524-.459-2.543-.364-2.56-.275-2.574-.188-2.586-.105-2.595-.027-2.601.049-2.606.12-2.607.189-2.605.252-2.603.314-2.596.372-2.588.426-2.577.476-2.564.524-2.548.568-2.529.608-2.509.647-2.485.68-2.46.711-2.431.739-2.4.763-2.366.784-2.331.803-2.291.817-2.25.828-2.199.834-1.071.414a3.5 3.5 0 0 0 2.526 6.528m-20.185 36.465l1.358-.653 2.701-1.26 2.714-1.214 2.739-1.174 2.763-1.133 2.784-1.089 2.805-1.045 2.825-.999 2.843-.953 2.861-.905 2.876-.855 2.89-.805 2.904-.753 2.916-.701 2.926-.646 2.936-.591 2.945-.534 2.951-.477 2.957-.418 2.962-.357 2.965-.296 2.967-.234 2.968-.17 2.967-.106 2.966-.039 2.963.028 2.96.096 2.954.166 2.948.237 2.94.308 2.932.381 2.922.455 1.435.252a3.5 3.5 0 1 0 1.208-6.895l-1.568-.274-3.097-.48-3.105-.401-3.11-.324-3.115-.248-3.119-.173-3.121-.1-3.121-.027-3.122.043-3.12.112-3.117.181-3.113.246-3.108.312-3.102.376-3.094.439-3.085.499-3.075.56-3.065.618-3.052.675-3.038.731-3.024.786-3.008.839-2.992.891-2.973.941-2.954.991-2.933 1.039-2.912 1.086-2.889 1.131-2.865 1.175-2.841 1.219-2.814 1.26-2.774 1.295-1.358.653a3.499 3.499 0 1 0 3.033 6.308m-307.334-74.596l1.54-.021 3.059-.019 3.057.015 3.059.051 3.059.09 3.056.132 3.052.177 3.046.225 3.036.276 3.024.33 3.01.386 2.994.446 2.975.509 2.955.573 2.931.642 2.906.713 1.42.378a3.5 3.5 0 0 0 1.797-6.766l-1.553-.411-3.075-.753-3.094-.675-3.109-.602-3.123-.532-3.134-.465-3.143-.402-3.149-.342-3.153-.286-3.156-.232-3.155-.183-3.153-.135-3.149-.092-3.141-.052-3.132-.015-3.113.019-1.539.021a3.5 3.5 0 0 0 .095 7m-4.074 28.269l1.157-.213 2.3-.383 2.339-.335 2.392-.289 2.441-.244 2.484-.196 2.522-.147 2.555-.098 2.583-.047 2.606.005 2.623.057 2.636.111 2.644.167 2.647.221 2.644.279 2.637.336 2.625.394 2.607.453 2.584.514 2.557.574 2.525.635 2.487.698 2.444.76 2.397.824 2.345.887 2.287.952 2.224 1.016 2.158 1.081 2.086 1.146 1.499.894.97.611.964.638.943.653.921.67.899.687.425.336a3.499 3.499 0 1 0 4.34-5.492l-.522-.412-1.03-.783-1.05-.761-1.07-.74-1.09-.718-1.123-.707-1.711-1.014-2.321-1.27-2.385-1.189-2.443-1.111-2.498-1.035-2.547-.961-2.592-.887-2.633-.816-2.668-.746-2.7-.677-2.727-.61-2.748-.544-2.767-.479-2.779-.416-2.789-.353-2.792-.292-2.793-.233-2.787-.173-2.778-.116-2.765-.059-2.746-.004-2.723.051-2.696.105-2.664.157-2.628.209-2.588.26-2.543.309-2.493.359-2.42.404-1.158.213a3.5 3.5 0 0 0 1.27 6.884m4.588 27.982l1.552-.252 3.049-.424 3.051-.331 3.077-.246 3.101-.161 3.121-.077 3.138.005 3.153.085 3.164.164 3.172.243 3.178.319 3.18.393 3.179.467 3.175.539 3.168.61 3.158.678 3.145.746 3.129.812 3.11.876 3.087.939 3.062 1 3.034 1.059 3.002 1.117 2.968 1.174 2.931 1.228 2.89 1.282 2.846 1.333 2.8 1.382 2.75 1.431 2.697 1.476 2.642 1.522 2.582 1.564 1.252.787a3.5 3.5 0 1 0 3.725-5.927l-1.352-.849-2.716-1.642-2.773-1.595-2.829-1.547-2.881-1.497-2.93-1.446-2.978-1.392-3.021-1.338-3.062-1.282-3.101-1.225-3.136-1.165-3.169-1.105-3.198-1.043-3.226-.979-3.25-.914-3.271-.847-3.29-.779-3.306-.708-3.319-.637-3.33-.564-3.336-.488-3.342-.412-3.343-.333-3.342-.253-3.338-.172-3.332-.087-3.323-.003-3.31.085-3.295.174-3.277.264-3.256.357-3.206.447-1.553.252a3.5 3.5 0 1 0 1.123 6.91m2.164 84c8.795 0 15.924 6.19 15.924 13.827v42.478c0 7.637-7.129 13.828-15.924 13.828H68.211c-8.795 0-16.551.748-16.551-6.888v-55.731c0-7.636 7.756-7.514 16.551-7.514h38.284zm1.336 8.346l-47.852-.308c-5.131 0-.692 2.255-.693 5.789v42.478c.001 3.534-4.438 5.033.693 5.032l46.62.925c5.131 0 7.394-3.245 7.394-6.778l1.232-38.421c0-3.533-2.263-8.717-7.394-8.717zm66.547 10.773c8.285 0 8.007 6.695 8.007 14.98v21.034c0 8.284 1.818 15-6.466 15h-31.447c-8.284 0-15-6.716-15-15v-21.035c0-8.284 6.716-14.999 15-14.999l29.906.02zm0 8.637l-29.884-.308c-4.419 0-5.238 3.284-5.238 7.702l-.924 18.793c0 4.419 4.824 7.395 9.243 7.395l23.718.308c4.419 0 4.092-2.095 4.092-6.513v-21.035c0-4.418 3.412-6.342-1.007-6.342zm40.778-9.666c4.434.264 5.831 1.143 9.375 3.365l-.675 1.12c-.899 1.532-1.84 3.045-2.632 4.636-1.771-.395-.933-.288-2.507-.38l-13.53.616c-4.476.001-7.341 2.11-7.341 6.163v21.874c-.006 1.473-6.456 5.493-5.61 6.778.144.218 2.88.156 3.092.308.023.915-3.112-.503-3.092.308-.258 2.216 2.942 2.67 2.784 4.313-.169 2.426.305-6.617.308-4.929-6.525-1.726-6.67.847-7.482-5.548l-.001-24.178c.001-7.977 6.716-14.445 15.001-14.445l12.31-.001z"/><path d="M59.979 460.873v70.133H48.678v-70.133h11.301zm111.314 19.119h11.092v51.014h-11.092zm16.553 21.577h10v29.437h-10zm25.921-22.606h13.903v9.043h-13.903zm28.918 1.489c-.333 2.514-.193 1.263-.422 3.751-.171 3.987-.266 3.451.292 8.423.065.57.256 1.118.383 1.678-.118.714-.009.044-.176 2.027l-.001 16.02c.001 4.47 3.325 9.86 8.639 9.859h19.193c5.315.001 7.48-9.136 7.479-13.605v-6.327c.474-3.478 1.153-6.857 1.257-10.361l.049-1.739c.081-2.712.195-5.427.56-8.118 4.08 2.802 6.772 7.996 7.775 12.615v19.833c.001 8.452-8.431 16.518-17.504 16.518l-20.705-.001c-9.073.001-16.428-6.85-16.428-15.301l-.001-21.459c.379-6.166 4.071-11.245 9.61-13.812v-.001z"/><path d="M233.167 478.981l9.595-.018.046 24.954-9.594.018zm44.905 0l9.595-.018.046 24.954-9.594.018zm154.891.002c8.284.001 8.006 6.696 8.006 14.98v21.035c0 8.284 1.818 15-6.466 15h-31.447c-8.284 0-15-6.716-15-15v-21.035c0-8.284 6.716-15 15-15l29.907.02zm0 8.638l-29.885-.308c-4.418 0-5.238 3.284-5.238 7.702l-.924 18.793c0 4.419 4.825 7.394 9.243 7.394l23.719.308c4.418 0 4.091-2.094 4.091-6.512v-21.035c0-4.418 3.412-6.342-1.006-6.342z"/><path d="M429.878 478.983h11.091v51.015h-11.091zm-106.892-.02c8.285 0 15 5.04 15 11.257v29.549c-.38 4.886-.709 6.379-4.724 8.711.002-2.219-.213-.309.207-5.033.123-1.168.424-.934-.31-1.864v-1.863l.31-28.057c.001-1.843-5.147-4.555-9.931-4.555h-14.605c-4.784 0-6.833 3.23-6.833 5.073l-.207 28.16c.248 1.125-.757 1.237.103 2.484-.503 4.807-1.054.877-1.294 6.604-4.284-1.535-6.684-5.375-7.343-9.66v-29.55c0-6.216 6.716-11.256 15-11.256h14.627z"/><path d="M366.628 478.963c8.285 0 14.024 6.958 14.024 13.425v29.402c-.66 5.619-2.017 6.903-6.738 9.561l-.153-1.679a689.65 689.65 0 0 1-.161-1.874c-.211-2.448-.093-1.102-.358-4.038 1.188-1.59-.954-.507-.328-2.073v-28.264c.001-2.168-2.06-6.419-6.805-6.419l-14.725-.103c-4.744 0-10.269 3.733-10.269 5.901v26.089c-1.701 4.41-1.087 5.883-1.55 10.538-2.716-1.85-3.374-3.919-3.905-7.018v-34.405c0-6.466 9.042-9.043 17.326-9.043h13.642zm-73.269 37.445h8.43v14.943h-8.43z"/><path d="M333.203 516.063h7.912v15.288h-7.912zm39.847 1.173h7.602v14.115h-7.602zm80.624-42.523c-.022 1.597.007 3.193.035 4.79l.032 1.383c.028 1.397.072 2.795.078 4.193-.463 1.749 1.887 1.414 1.681 2.927v28.057c.001 4.419 3.417 6.725 7.835 6.725h10.923l1.367.922-.154.602 1.537-1.37c-.166 2.289-.589 5.983-.63 8.277l-1.443.132-13.631-.001c-8.283.001-14.999-6.715-14.999-14.999l-.001-28.829c.138-5.461 3.028-9.74 7.37-12.809z"/><path d="M446.304 468.188h9.186v19.818h-9.186zm21.64 63.163h11.214v-8.592h-11.214z"/><path d="M452.119 478.5h27.712v8.385h-27.712zm34.719.483h9.68v52.023h-9.68zm0-18.11h9.68v8.463h-9.68zm49.965 18.111c2.827-.052 4.386 1.21 6.894 2.27.216 1.082.565 2.14.738 3.231l-.835.176-.877.186c-2.191.472-3.016 1.308-5.138 2.038h-16.818c-4.989.004-8.51 4.225-8.506 9.242v19.936c.004 5.018 4.201 6.699 9.191 6.696h14.667c2.438 1.358 4.459 3.519 7.153 4.108l1.097.23.648.15-.018 1.67c-2.438 1.767-5.447 2.294-8.38 2.445l-17.588.011c-8.859.007-16.046-7.187-16.052-16.067l-.014-19.661c-.006-8.879 7.867-16.655 16.727-16.661h17.111z"/><path d="M528.785 479.134h22.489v7.751h-22.489zm0 43.625h22.489v8.614h-22.489z"/></svg>