<?xml version="1.0" encoding="utf-8"?>
<!-- Generator: Adobe Illustrator 16.0.4, SVG Export Plug-In . SVG Version: 6.00 Build 0)  -->
<!DOCTYPE svg PUBLIC "-//W3C//DTD SVG 1.1//EN" "http://www.w3.org/Graphics/SVG/1.1/DTD/svg11.dtd">
<svg version="1.1" id="Layer_1" xmlns="http://www.w3.org/2000/svg" xmlns:xlink="http://www.w3.org/1999/xlink" x="0px" y="0px"
	 width="436px" height="170px" viewBox="0 0 436 170" enable-background="new 0 0 436 170" xml:space="preserve">
<path fill-rule="evenodd" clip-rule="evenodd" fill="#4F4DC3" d="M54.009,95.908c-0.434-0.504-0.839-1.037-1.305-1.509
	c-7.716-7.797-15.439-15.586-23.338-23.557c0-16.016,0-32.324,0-48.637c0.645-0.139,0.849,0.383,1.143,0.676
	C46.066,38.425,61.61,53.982,77.175,69.517c0.406,0.405,0.578,1.144,1.348,1.129c0.147,0.206,0.269,0.437,0.445,0.613
	c7.723,7.733,15.45,15.462,23.178,23.189c0.287,0.286,0.542,0.631,1,0.664c0.241,0.702-0.308,1.028-0.693,1.414
	c-7.521,7.536-15.046,15.069-22.574,22.598c-0.395,0.395-0.834,0.746-1.253,1.116c-0.485-0.457-0.982-0.901-1.454-1.372
	c-7.261-7.251-14.518-14.506-21.782-21.754C54.958,96.685,54.471,96.31,54.009,95.908z"/>
<path fill-rule="evenodd" clip-rule="evenodd" fill="#4F4DC3" d="M286.136,74.186c3.067,2.99,5.898,5.749,8.727,8.512
	c0.544,0.532,0.438,1.231,0.438,1.894c0.005,4.788-0.003,9.575,0.01,14.362c0.001,0.551-0.143,1.131,0.178,1.63
	c0.396,0.228,0.6-0.052,0.791-0.278c4.136-4.883,9.481-5.722,15.28-4.203c7.167,1.876,11.771,8.007,12.251,15.837
	c0.32,5.212-0.479,10.152-3.625,14.511c-5.175,7.169-16.896,8.573-22.819,2.714c-0.563-0.557-1.092-1.15-1.763-1.862
	c-0.633,1.507,0.041,2.96-0.573,4.312c-2.913,0-5.824,0-8.894,0C286.136,112.566,286.136,93.571,286.136,74.186z M314.134,114.183
	c0.03-5.833-3.713-9.792-9.322-9.858c-5.539-0.065-9.437,3.884-9.555,9.681c-0.117,5.712,3.994,10.059,9.455,9.996
	C310.309,123.937,314.103,119.983,314.134,114.183z"/>
<path fill-rule="evenodd" clip-rule="evenodd" fill="#4F4DC3" d="M406.703,131.645c-3.055,0-5.926,0-8.869,0
	c-0.663-1.335,0.013-2.841-0.424-4.117c-0.459-0.106-0.62,0.118-0.764,0.315c-4.894,6.733-16.334,6.24-22.093,0.706
	c-4.11-3.95-5.576-8.914-5.589-14.393c-0.013-5.544,1.467-10.589,5.665-14.517c5.295-4.953,14.391-5.592,19.82-1.426
	c1.064,0.817,1.894,1.86,3.064,3.233c0-9.233,0-18.064,0-27.274c3.111,3.307,5.912,6.286,9.188,9.769
	C406.703,99.185,406.703,115.34,406.703,131.645z M397.521,114.176c0.026-5.805-3.766-9.801-9.349-9.851
	c-5.615-0.051-9.55,4.017-9.525,9.85c0.024,5.741,3.881,9.753,9.451,9.833C393.524,124.085,397.494,119.942,397.521,114.176z"/>
<path fill-rule="evenodd" clip-rule="evenodd" fill="#4F4DC3" d="M154.664,100.814c0-8.712,0-17.425,0-26.417
	c2.996,3.24,5.759,6.229,9.158,9.905c0,14.896,0,31.047,0,47.299c-3,0-5.912,0-8.856,0c-0.637-1.307-0.01-2.757-0.409-3.979
	c-0.344-0.201-0.511-0.087-0.646,0.077c-4.325,5.276-9.948,6.107-16.06,4.289c-7.361-2.188-10.743-7.812-11.598-15.033
	c-0.666-5.617,0.298-10.989,3.921-15.61c5.248-6.692,16.28-7.905,22.218-2.429c0.668,0.617,1.247,1.331,1.867,2
	C154.394,100.882,154.529,100.849,154.664,100.814z M145.252,104.324c-5.566-0.014-9.42,3.954-9.481,9.761
	c-0.059,5.664,3.936,9.89,9.387,9.928c5.544,0.038,9.55-4.11,9.566-9.908C154.74,108.39,150.817,104.339,145.252,104.324z"/>
<path fill-rule="evenodd" clip-rule="evenodd" fill="#4F4DC3" d="M278.814,131.622c-3.077,0-5.993,0-8.85,0
	c-0.507-0.559-0.331-1.153-0.333-1.698c-0.013-5.715-0.002-11.43-0.015-17.145c-0.003-0.924,0.018-1.869-0.16-2.768
	c-0.826-4.153-3.186-5.99-7.38-5.833c-4.156,0.154-6.803,2.648-7.451,7.027c-0.234,1.581-0.315,3.17-0.309,4.771
	c0.021,4.633,0.011,9.267,0.003,13.9c-0.001,0.552,0.112,1.132-0.281,1.726c-2.894,0-5.807,0-8.886,0c0-19.082,0-38.165,0-57.248
	c0.148-0.111,0.297-0.223,0.444-0.334c2.728,2.865,5.441,5.743,8.193,8.584c0.543,0.56,0.534,1.184,0.534,1.852
	c-0.001,4.942-0.003,9.885,0.004,14.827c0.001,0.542-0.102,1.111,0.297,1.845c0.56-0.623,1.008-1.142,1.478-1.641
	c5.431-5.762,15.913-5.321,20.322,0.868c1.934,2.714,2.489,5.86,2.525,9.082c0.079,7.052,0.041,14.105,0.041,21.159
	C278.992,130.891,278.894,131.185,278.814,131.622z"/>
<path fill-rule="evenodd" clip-rule="evenodd" fill="#4F4DC3" d="M197.805,100.806c0-1.309,0-2.616,0-4.064
	c3.153-0.189,6.104-0.116,9.178-0.049c0,11.674,0,23.22,0,34.903c-3.007,0.193-5.914,0.109-8.838,0.056
	c-0.67-1.382,0-2.833-0.465-4.113c-0.539-0.167-0.678,0.255-0.886,0.496c-4.277,4.948-9.737,5.702-15.612,4.018
	c-7.087-2.031-10.674-7.301-11.638-14.306c-0.789-5.736-0.103-11.322,3.589-16.151c4.952-6.479,15.298-8.157,21.475-3.494
	C195.678,98.909,196.517,99.943,197.805,100.806z M178.979,114.07c-0.016,5.851,3.937,9.995,9.471,9.931
	c5.552-0.065,9.357-4.079,9.361-9.874c0.004-5.812-3.794-9.781-9.38-9.803C182.868,104.302,178.995,108.295,178.979,114.07z"/>
<path fill-rule="evenodd" clip-rule="evenodd" fill="#4F4DC3" d="M214.749,121.361c1.42,0.201,2.422,1.084,3.597,1.554
	c2.211,0.884,4.444,1.612,6.83,1.782c0.718,0.051,1.446,0.114,2.157,0.047c1.44-0.136,3.073-0.205,3.452-1.983
	c0.363-1.702-0.995-2.486-2.263-3.089c-2.738-1.301-5.561-2.427-8.274-3.774c-3.729-1.853-6.204-4.706-6.542-9.047
	c-0.433-5.546,2.991-9.736,8.74-10.895c5.868-1.183,11.434-0.011,17.123,1.92c-0.784,2.662-1.937,5.094-2.964,7.71
	c-1.985-0.594-3.859-1.267-5.787-1.699c-1.945-0.438-3.934-0.857-5.949-0.313c-1.756,0.475-2.211,2.066-0.964,3.412
	c0.756,0.816,1.781,1.204,2.759,1.657c2.935,1.359,6.008,2.419,8.811,4.062c4.101,2.404,5.463,6.13,4.912,10.639
	c-0.512,4.188-2.936,6.95-6.914,8.237c-7.461,2.413-14.607,1.153-21.545-2.066c-0.264-0.123-0.472-0.368-0.789-0.624
	C212.35,126.363,213.541,123.88,214.749,121.361z"/>
<path fill-rule="evenodd" clip-rule="evenodd" fill="#8D94E0" d="M54.009,95.908c0.461,0.401,0.948,0.776,1.38,1.207
	c7.264,7.248,14.521,14.503,21.782,21.754c0.472,0.471,0.969,0.915,1.454,1.372c-0.253,0.319-0.479,0.666-0.765,0.952
	c-7.596,7.605-15.196,15.206-22.802,22.802c-0.279,0.278-0.497,0.666-0.982,0.7c-0.413-0.367-0.219-0.861-0.219-1.29
	c-0.011-15.326-0.011-30.652-0.002-45.979C53.854,96.921,53.955,96.414,54.009,95.908z"/>
<path fill-rule="evenodd" clip-rule="evenodd" fill="#8D94E0" d="M103.146,95.113c-0.458-0.033-0.713-0.378-1-0.664
	c-7.729-7.728-15.456-15.456-23.178-23.189c-0.176-0.177-0.298-0.408-0.445-0.613c2.646-2.917,5.447-5.68,8.325-8.366
	c0.499,0.54,1.152,0.312,1.738,0.316c4.903,0.033,9.807,0.041,14.71,0.057c-0.012,10.208-0.022,20.417-0.041,30.625
	C103.255,93.891,103.184,94.502,103.146,95.113z"/>
<path fill-rule="evenodd" clip-rule="evenodd" fill="#4F4DC3" d="M367.066,95.536c0,3.39,0,6.604,0,9.917
	c-1.032,0.105-1.99,0.216-2.952,0.299c-5.439,0.466-8.569,3.575-8.777,9.059c-0.188,4.935-0.121,9.878-0.178,14.817
	c-0.007,0.609,0.12,1.236-0.213,1.949c-2.894,0-5.839,0-8.918,0c0-11.631,0-23.169,0-34.825c2.963,0,5.869,0,9.049,0
	c0,2.009,0,4.015,0,6.021c0.143,0.078,0.285,0.155,0.427,0.233C357.774,98.095,361.522,95.563,367.066,95.536z"/>
<path fill-rule="evenodd" clip-rule="evenodd" fill="#4F4DC3" d="M338.357,96.751c0,11.668,0,23.183,0,34.847
	c-3.026,0.193-5.976,0.109-9.061,0.055c0-11.703,0-23.243,0-34.901C332.305,96.751,335.257,96.751,338.357,96.751z"/>
<path fill-rule="evenodd" clip-rule="evenodd" fill="#4F4DC3" d="M103.297,62.654c-4.904-0.016-9.808-0.024-14.71-0.057
	c-0.586-0.004-1.24,0.224-1.738-0.316c5.495-5.389,10.989-10.778,16.343-16.028c5.34,5.296,10.798,10.709,16.536,16.401
	C114.105,62.654,108.701,62.654,103.297,62.654z"/>
<path fill-rule="evenodd" clip-rule="evenodd" fill="#4F4DC3" d="M333.731,89.519c-2.829-0.017-5.261-2.431-5.241-5.202
	c0.021-2.911,2.424-5.275,5.347-5.259c2.88,0.015,5.158,2.315,5.165,5.213C339.008,87.263,336.725,89.536,333.731,89.519z"/>
</svg>
