<svg xmlns="http://www.w3.org/2000/svg" role="img" viewBox="-9.59 -9.09 498.68 110.68"><title>Dash0 (member) logo</title><path d="M139.395 46.054c0 25.1588-20.395 45.554-45.5538 45.554-25.1587 0-45.554-20.3952-45.554-45.554C48.2872 20.8952 68.6825.5 93.8412.5 119 .5 139.395 20.8952 139.395 46.054zM0 91.608c12.0817 0 23.6685-4.7994 32.2115-13.3424C40.7546 69.7225 45.554 58.1357 45.554 46.054c0-12.0817-4.7994-23.6685-13.3424-32.2115C23.6685 5.29943 12.0817.5.00001.5L0 91.608zm206.801.5503c-18.985 0-30.175-13.3273-30.175-32.6896 0-19.3622 11.19-32.6895 29.923-32.6895 8.298 0 14.962 3.5204 18.608 8.6753V.62755h15.339V91.1525h-15.339v-7.921c-3.646 5.5321-10.687 8.9268-18.356 8.9268zm2.263-13.3273c10.31 0 17.099-7.6694 17.099-19.3623 0-11.6928-6.789-19.3622-17.099-19.3622s-17.099 7.6694-17.099 19.3622c0 11.6929 6.789 19.3623 17.099 19.3623zm61.815-52.0518c16.094 0 27.409 9.3039 27.409 23.6371v40.7362h-15.213v-9.4297c-2.64 6.2864-9.933 10.4355-18.985 10.4355-12.573 0-21.123-8.0467-21.123-18.9851 0-12.3214 9.556-19.9909 23.763-19.9909h11.693c3.143 0 4.652-1.7602 4.652-4.2748 0-6.1607-4.778-10.5612-12.95-10.5612-8.173 0-13.076 5.1549-13.327 10.8127h-13.831c.755-12.5729 11.442-22.3798 27.912-22.3798zm-3.143 53.9378c9.681 0 15.339-6.7894 15.339-16.3448v-1.0059h-14.207c-6.538 0-10.939 3.6462-10.939 9.1783 0 4.9034 4.023 8.1724 9.807 8.1724z"/><path d="M323.986 92.1583c-15.339 0-25.523-8.5496-26.277-22.1283h14.081c.629 6.035 5.281 9.8069 12.196 9.8069 6.035 0 10.058-3.0175 10.058-6.7894 0-14.0817-34.701-.6287-34.701-27.4089 0-11.0642 9.681-18.8594 22.757-18.8594 14.836 0 25.02 8.1724 25.649 20.4938h-14.082c-.88-5.9092-6.286-8.9267-11.19-8.9267-5.532 0-9.178 2.5145-9.178 6.7893 0 13.7045 35.204-1.383 35.204 27.2832 0 11.9443-9.681 19.7395-24.517 19.7395zm26.138-1.0058V.62755h15.339V37.5919c3.52-6.9151 10.813-10.8127 19.865-10.8127 14.207 0 23.511 10.3098 23.511 25.1458v39.2275H393.5V55.194c0-8.6753-5.406-14.7103-13.327-14.7103-8.549 0-14.71 6.7893-14.71 16.0933v34.5755h-15.339zm92.912 1.0058c-21.877 0-31.81-15.0875-31.81-41.9935v-6.035c0-26.906 9.933-41.9935 31.81-41.9935h5.029c21.877 0 31.935 15.0875 31.935 41.9935v6.035c0 26.906-10.058 41.9935-31.935 41.9935h-5.029zm.754-14.4588h3.52c9.933 0 16.094-7.6695 16.094-23.1342v-14.836c0-15.5904-6.161-23.2599-16.094-23.2599h-3.52c-9.933 0-15.968 7.6695-15.968 23.2599v14.836c0 15.4647 6.035 23.1342 15.968 23.1342z"/></svg>