<svg xmlns="http://www.w3.org/2000/svg" role="img" viewBox="-2.20 -2.20 114.40 78.90"><title>Databend logo</title><path fill="#001f5c" d="M9.417 59.924a6.765 6.765 0 0 1 2.883 2.689 8 8 0 0 1 1.015 4.087 7.822 7.822 0 0 1-1.015 4.054 6.686 6.686 0 0 1-2.882 2.634 9.77 9.77 0 0 1-4.346.914H.642A.641.641 0 0 1 0 73.66V59.63a.641.641 0 0 1 .642-.642h4.429a9.572 9.572 0 0 1 4.346.936zM9.249 70.8a5.549 5.549 0 0 0 1.451-4.1 5.738 5.738 0 0 0-1.452-4.165 5.556 5.556 0 0 0-4.178-1.5H3.189a.642.642 0 0 0-.642.642v9.932a.641.641 0 0 0 .642.642h1.882A5.653 5.653 0 0 0 9.249 70.8zm6.787-5.863a5.6 5.6 0 0 1 2.1-2.192 5.683 5.683 0 0 1 2.938-.783 5.446 5.446 0 0 1 2.536.562 5.131 5.131 0 0 1 1.731 1.4V62.8a.642.642 0 0 1 .643-.642h1.284a.641.641 0 0 1 .642.642v10.86a.641.641 0 0 1-.642.642h-1.284a.642.642 0 0 1-.643-.642V72.5a5.048 5.048 0 0 1-1.764 1.433 5.52 5.52 0 0 1-2.548.573 5.463 5.463 0 0 1-2.9-.805 5.732 5.732 0 0 1-2.089-2.247 6.835 6.835 0 0 1-.77-3.273 6.642 6.642 0 0 1 .766-3.244zm8.78 1.1a3.694 3.694 0 0 0-5.037-1.421 3.588 3.588 0 0 0-1.374 1.388 4.277 4.277 0 0 0-.526 2.17 4.461 4.461 0 0 0 .526 2.2 3.658 3.658 0 0 0 1.385 1.443 3.583 3.583 0 0 0 1.82.5 3.607 3.607 0 0 0 3.206-1.906 4.408 4.408 0 0 0 .525-2.192 4.348 4.348 0 0 0-.525-2.18zM34.2 64.21v6.721a1.278 1.278 0 0 0 .324.98 1.619 1.619 0 0 0 1.1.3h.922a.642.642 0 0 1 .643.642v.809a.642.642 0 0 1-.643.642h-1.361a3.913 3.913 0 0 1-2.637-.793 3.246 3.246 0 0 1-.915-2.578V64.21h-.811a.642.642 0 0 1-.642-.642V62.8a.642.642 0 0 1 .642-.642h.811v-2.374a.641.641 0 0 1 .642-.642h1.285a.642.642 0 0 1 .642.642v2.377h2.351a.642.642 0 0 1 .643.642v.765a.642.642 0 0 1-.643.642zm5.022.727a5.59 5.59 0 0 1 2.1-2.192 5.676 5.676 0 0 1 2.937-.783 5.44 5.44 0 0 1 2.536.562 5.145 5.145 0 0 1 1.732 1.4V62.8a.641.641 0 0 1 .642-.642h1.285a.642.642 0 0 1 .642.642v10.86a.642.642 0 0 1-.642.642h-1.285a.641.641 0 0 1-.642-.642V72.5a5.061 5.061 0 0 1-1.765 1.433 5.78 5.78 0 0 1-5.452-.233 5.723 5.723 0 0 1-2.088-2.247 6.836 6.836 0 0 1-.771-3.273 6.643 6.643 0 0 1 .771-3.243zM48 66.039a3.625 3.625 0 0 0-3.2-1.895 3.7 3.7 0 0 0-1.832.474 3.594 3.594 0 0 0-1.374 1.388 4.277 4.277 0 0 0-.525 2.17 4.46 4.46 0 0 0 .525 2.2 3.665 3.665 0 0 0 1.385 1.443 3.584 3.584 0 0 0 1.821.5 3.607 3.607 0 0 0 3.2-1.906 4.409 4.409 0 0 0 .526-2.192A4.349 4.349 0 0 0 48 66.039zm10.756-3.515a5.568 5.568 0 0 1 2.514-.562 5.734 5.734 0 0 1 2.949.772 5.46 5.46 0 0 1 2.081 2.192 6.794 6.794 0 0 1 .759 3.25 6.924 6.924 0 0 1-.759 3.273 5.633 5.633 0 0 1-2.092 2.251 5.913 5.913 0 0 1-5.474.253 4.85 4.85 0 0 1-1.754-1.41v1.117a.641.641 0 0 1-.642.642h-1.263a.642.642 0 0 1-.642-.642V58.638a.643.643 0 0 1 .642-.638h1.263a.642.642 0 0 1 .642.642v5.33a4.819 4.819 0 0 1 1.776-1.448zm5.184 3.482a3.589 3.589 0 0 0-1.386-1.388 3.759 3.759 0 0 0-1.843-.474 3.658 3.658 0 0 0-3.206 1.895 4.348 4.348 0 0 0-.525 2.182 4.408 4.408 0 0 0 .525 2.192 3.61 3.61 0 0 0 1.385 1.421 3.654 3.654 0 0 0 5.05-1.454 4.482 4.482 0 0 0 .525-2.2 4.3 4.3 0 0 0-.525-2.174zM75.238 72.4a3.585 3.585 0 0 1-3.162-2.2.214.214 0 0 1 .134-.3l8.465-2.462a.641.641 0 0 0 .45-.756c-.045-.2-.1-.4-.166-.615a6.248 6.248 0 0 0-1.665-2.77 5.522 5.522 0 0 0-2.707-1.408 7.247 7.247 0 0 0-6.206 1.828 5.331 5.331 0 0 0-1.489 2.721 6.633 6.633 0 0 0 .21 3.377 7.224 7.224 0 0 0 .847 1.823h.006a5.592 5.592 0 0 0 2.121 2.1 6.363 6.363 0 0 0 3.162.782 5.988 5.988 0 0 0 3.63-1.069 5.558 5.558 0 0 0 1.591-1.768.647.647 0 0 0-.552-.975h-1.393a.665.665 0 0 0-.556.325 2.994 2.994 0 0 1-2.72 1.367zm-3.394-6.844a3.375 3.375 0 0 1 1.978-1.437 3.821 3.821 0 0 1 2.643.1 2.8 2.8 0 0 1 1.282 1.07.649.649 0 0 1-.354.982l-5.227 1.521a.639.639 0 0 1-.824-.614 3.157 3.157 0 0 1 .502-1.627zm20.636-2.999a4.275 4.275 0 0 1 1.8 1.763 5.747 5.747 0 0 1 .647 2.821v6.519a.641.641 0 0 1-.642.642h-1.24a.641.641 0 0 1-.642-.642v-6.144a3.5 3.5 0 0 0-.827-2.5 2.963 2.963 0 0 0-2.256-.87 3 3 0 0 0-2.268.87 3.469 3.469 0 0 0-.837 2.5v6.144a.642.642 0 0 1-.643.642h-1.264a.642.642 0 0 1-.642-.642V62.8a.642.642 0 0 1 .642-.642h1.263a.642.642 0 0 1 .643.642v.746a4.206 4.206 0 0 1 1.6-1.168 5.17 5.17 0 0 1 2.066-.419 5.592 5.592 0 0 1 2.6.598zm5.679 2.38a5.6 5.6 0 0 1 2.1-2.192 5.723 5.723 0 0 1 2.96-.783 5.841 5.841 0 0 1 2.379.518 4.875 4.875 0 0 1 1.866 1.378v-5.22a.642.642 0 0 1 .642-.642h1.285a.642.642 0 0 1 .642.642V73.66a.641.641 0 0 1-.642.642h-1.285a.641.641 0 0 1-.642-.642v-1.187a4.745 4.745 0 0 1-1.732 1.455 5.442 5.442 0 0 1-2.535.573 5.558 5.558 0 0 1-2.938-.805 5.708 5.708 0 0 1-2.1-2.247 6.836 6.836 0 0 1-.771-3.273 6.643 6.643 0 0 1 .771-3.239zm8.78 1.1a3.625 3.625 0 0 0-3.206-1.895 3.7 3.7 0 0 0-1.832.474 3.6 3.6 0 0 0-1.374 1.388 4.287 4.287 0 0 0-.525 2.17 4.471 4.471 0 0 0 .525 2.2 3.671 3.671 0 0 0 1.385 1.443 3.584 3.584 0 0 0 1.821.5 3.607 3.607 0 0 0 3.206-1.906 4.408 4.408 0 0 0 .525-2.192 4.348 4.348 0 0 0-.525-2.18z"/><path fill="#bae6ff" d="M91.936 39.892v.01a.494.494 0 0 1-.493.495.5.5 0 0 1-.186-.039.042.042 0 0 1-.02-.01 8.2 8.2 0 0 1-2.98-2.559 8.207 8.207 0 0 1-.682 3.824c0 .005 0 .01-.005.01a.5.5 0 0 1-.677.176.443.443 0 0 1-.142-.127c-.005-.01-.01-.015-.01-.02a8.227 8.227 0 0 1-1.141-6.006c-8.017-4.6-16.166-.579-16.166-.579l.034.01a8.291 8.291 0 0 1 3.035.911l.029.015a.493.493 0 0 1 .167.667.587.587 0 0 1-.1.114.725.725 0 0 1-.064.049c-.211.157-.427.3-.652.441 0 .005-.005.015-.005.02-.108.063-.216.122-.334.181a8.111 8.111 0 0 1-2.044.794v.005c-.015.005-.035.005-.049.01a8.149 8.149 0 0 1-1.594.206 41.574 41.574 0 0 1-7.737.025c-3.006 2.539-15.136 7.992-25.874 6.2-7.791-1.824-11.964-5.433-14.141-9.179 1.991 1.4 10.336 6.105 26.723.912 18.906-5.992 24.948-9.282 40.611-5.2.006.014.01.024.015.039a13.077 13.077 0 0 1 .863 2.726v.005a8.212 8.212 0 0 1 3.619 5.874z"/><path fill="#52adff" d="M84 25.418a25.64 25.64 0 0 1 3.432 5.835c-15.665-4.085-21.706-.8-40.611 5.2-16.387 5.193-24.732.484-26.723-.911l-.019-.035c-.01-.009-.01-.014-.01-.014a18.05 18.05 0 0 1-1.86-12.332c.343-.358.75-.746 1.206-1.148 1.795 1.624 10.572 8.409 27.659 4.13.003-.004 26.789-6.79 36.926-.725z"/><path fill="#015bce" d="M70.443 15.9c1.288.594 3.532 1.053 4.749 1.782-9.7-3.506-20.1-3.125-28.08-1.992a23.447 23.447 0 0 1-13.2-1.795 52.021 52.021 0 0 1 30.2-.368 46.448 46.448 0 0 1 6.331 2.373z"/><path fill="#0175f5" d="M75.059 17.6A31.874 31.874 0 0 1 84 25.418c-10.139-6.066-36.926.721-36.926.721-17.088 4.28-25.864-2.506-27.659-4.13a44.121 44.121 0 0 1 15.352-8.4 23.441 23.441 0 0 0 13.2 1.794c7.984-1.135 17.389-1.311 27.092 2.197z"/><path fill="#015bce" d="M71.3 15.612a39.406 39.406 0 0 1 3.756 1.988c-9.7-3.506-19.107-3.33-27.09-2.2a23.459 23.459 0 0 1-13.2-1.794 52.02 52.02 0 0 1 30.2-.369 46.272 46.272 0 0 1 6.334 2.375zM47.16 1.927a1.943 1.943 0 0 1-1.182 1.78v.005a8.245 8.245 0 0 0-3.736 3.731A8.242 8.242 0 0 1 43.587.917c.068-.1.142-.2.22-.294A1.9 1.9 0 0 1 45.223 0a1.929 1.929 0 0 1 1.937 1.922zM40.492 9.4c0 .3-.02.6-.049.9a8.119 8.119 0 0 0-3.393-2.074.3.3 0 0 0-.094-.024 2.051 2.051 0 1 1 2.418-2.934A8.149 8.149 0 0 1 40.492 9.4z"/><circle cx="48.558" cy="36.08" r="1.761" fill="#0175f5"/></svg>