<svg xmlns="http://www.w3.org/2000/svg" role="img" viewBox="-3.81 -3.81 198.38 47.38"><title>Datastax (member) logo</title><path fill="#265598" d="M176.2156 23.16819c.05066 2.02968 1.74395 3.63378 3.7879 3.58591 2.03995-.04786 3.65324-1.73436 3.60391-3.7639-.04933-2.02755-1.74129-3.63325-3.78524-3.58485-2.04128.04947-3.6559 1.7369-3.60658 3.76284M161.10797 5.51037c.04933 2.02808 1.74396 3.63484 3.78524 3.58537 2.03995-.048 3.6559-1.73275 3.60658-3.76537-.048-2.02662-1.7453-3.63058-3.78524-3.58258-2.04262.048-3.65724 1.73463-3.60658 3.76257m-8.94244-2.59726c.04 1.57062 1.3533 2.81326 2.93326 2.77593 1.57996-.03867 2.8306-1.3453 2.79193-2.9146-.04-1.57062-1.35063-2.8106-2.92926-2.77326-1.58263.03733-2.83326 1.34263-2.79593 2.91193m23.99407 29.61432c.036 1.43743 1.23596 2.577 2.68393 2.54154 1.44796-.0348 2.59327-1.2301 2.5586-2.66807-.036-1.4385-1.23863-2.5766-2.6866-2.54167-1.4453.03547-2.58927 1.2281-2.55593 2.6682m-5.7812 3.65711c.01867.84798.72932 1.51823 1.58263 1.49796.85465-.01986 1.52797-.72451 1.50663-1.57342-.02133-.84732-.72931-1.51823-1.58262-1.49997-.85332.0224-1.53063.72652-1.50663 1.57543m-23.19942-28.983c.02266.93424.80131 1.67275 1.74129 1.64942.93864-.02187 1.68129-.79798 1.65996-1.72916-.024-.93544-.80265-1.67409-1.7413-1.65142-.93864.024-1.68395.7973-1.65995 1.73115m-.196 6.65597c.016.73291.62799 1.30837 1.35997 1.29117.73598-.0192 1.3133-.62599 1.29997-1.35357-.01867-.72918-.62799-1.3089-1.36397-1.28903-.73332.01773-1.31463.62345-1.29597 1.35143m22.47677-.75931c.064 2.53647 2.18262 4.54415 4.73455 4.48268 2.5506-.06093 4.57055-2.1686 4.50922-4.70295-.06133-2.53847-2.18261-4.54522-4.73455-4.48268-2.55193.06146-4.56788 2.16808-4.50922 4.70295"/><path fill="#265598" d="M178.7782 35.0695c-1.41863 0-2.58394-1.12598-2.6186-2.54208 0-.01986-.00134-.03906-.00134-.05893-.00133-1.41343 1.13197-2.57433 2.55727-2.60927.02133-.00053.044-.00053.06533-.00053 1.41863 0 2.58527 1.12557 2.62127 2.5422v.06707c-.00133 1.40783-1.1333 2.5666-2.5586 2.601-.02133.00053-.044.00053-.06533.00053m-6.85583 2.61354c-.83598-.00054-1.5253-.66359-1.54396-1.4985v-.04426c0-.82905.66798-1.5093 1.50663-1.53117h.03333c.83864 0 1.52796.66412 1.5493 1.49997.00133.0136.00133.02653.00133.04013 0 .83064-.66665 1.51396-1.50797 1.5333-.01333 0-.02666.00053-.03866.00053M148.8776 8.85148c-.9213 0-1.67729-.72971-1.69862-1.64996v-.04386c0-.91398.73598-1.66463 1.65996-1.6873h.04266c.91998 0 1.67596.73065 1.69863 1.65143v.038c.00133.91411-.73465 1.6693-1.65996 1.69116-.01467.00053-.02934.00053-.04267.00053m-.56665 6.29771c-.71732 0-1.31197-.56932-1.32797-1.2917v-.03427c0-.71251.57465-1.29943 1.29597-1.31716.012-.00054.024-.00054.036-.00054.71865 0 1.3093.57239 1.32797 1.28957v.02493c0 .71665-.57332 1.30944-1.29997 1.32864-.01067.00053-.02133.00053-.032.00053"/><path fill="#1f2232" d="M166.39317 31.88517l-5.40386-4.93574 5.37186-5.37067c.37466-.41052.47066-.98077.248-1.49276-.22533-.50625-.72532-.83331-1.27197-.83331-.36532 0-.71332.14586-.98264.41145l-5.32254 5.34-5.42253-5.42013c-.26266-.26466-.61065-.41039-.97864-.41039-.54932 0-1.06264.34373-1.27863.85932-.21467.52345-.096 1.0989.30666 1.49836l5.41453 5.43213-5.32787 5.3296c-.40666.40266-.52665.97917-.30933 1.50783.21467.51038.72799.85411 1.2773.85411.36533 0 .71332-.14586.97865-.40986l5.3532-5.35466 5.3932 4.9588c.26399.26507.61198.41146.97997.41146.54799 0 1.04664-.32706 1.2733-.83491.224-.50879.12-1.0885-.29866-1.54063m-154.72628-.0208c-1.70047 0-3.36346.0052-5.02643.0104l-.44425.0016c-1.13592.00267-2.2739.0052-3.42544.0068v-9.91535h8.87738c.50519 0 1.06039.56145 1.06039 1.07277v7.80874c0 .49319-.5354 1.01504-1.04165 1.01504zm-.01874-12.65075H1.63903C.71977 19.21362 0 19.9392 0 20.86358v12.12476c0 .92438.71977 1.64836 1.63903 1.64836h10.02786c2.00517 0 3.83059-1.80462 3.83059-3.78737V23.0214c0-1.95728-1.87129-3.80777-3.84933-3.80777m23.9447 3.82697v3.0062H25.54002v-3.0062c0-.66238.67865-1.07277 1.30663-1.07277h7.43995c.62812 0 1.30623.41039 1.30623 1.07277zm-1.28637-3.82697h-7.47795c-2.23701 0-4.05723 1.7161-4.05723 3.82697v10.30455c0 .76718.60412 1.36716 1.37503 1.36716.76865 0 1.3937-.61305 1.3937-1.36716v-4.59989h10.05281v4.59989c0 .75411.62559 1.36716 1.39424 1.36716.75931 0 1.3765-.61305 1.3765-1.36716V23.04059c0-2.36287-2.10609-3.82697-4.0571-3.82697m22.1405 0H45.6822c-.77865 0-1.3885.60465-1.3885 1.37663 0 .77332.60985 1.37757 1.3885 1.37757h4.00617c-.00107 1.1109-.0036 2.47127-.00627 3.88937l-.0052 2.737c-.00307 1.85155-.00627 3.58324-.00627 4.75095 0 .76718.61252 1.36716 1.3953 1.36716.78065 0 1.3937-.59998 1.3937-1.36716V21.96782H56.447c.77865 0 1.38903-.60425 1.38903-1.37757 0-.77198-.61038-1.37663-1.38903-1.37663m20.57708 3.82697v3.0062H66.97286v-3.0062c0-.66238.67705-1.07277 1.30463-1.07277h7.43995c.62852 0 1.30663.41039 1.30663 1.07277zm-1.28636-3.82697h-7.47848c-2.23688 0-4.0567 1.7161-4.0567 3.82697v10.30455c0 .76718.60372 1.36716 1.37503 1.36716.76971 0 1.3953-.61305 1.3953-1.36716v-4.59989h10.05121v4.59989c0 .75411.62559 1.36716 1.3937 1.36716.75945 0 1.3761-.61305 1.3761-1.36716V23.04059c0-2.36287-2.10515-3.82697-4.05616-3.82697m23.28581 6.36504H90.8284c-.76039 0-1.03638-1.09797-1.03638-1.83488 0-.71359.26613-1.77596.99838-1.77596h9.02644c.77958 0 1.38996-.60425 1.38996-1.37757 0-.77198-.61038-1.37663-1.38996-1.37663H90.7904c-2.47487 0-3.76964 2.28701-3.76964 4.54576 0 2.20207 1.1973 4.57121 3.82644 4.57121h8.07486c.78278.0068 1.06344 1.09798 1.06037 1.8297-.00213.69264-.26826 1.72288-.99584 1.72288H88.60045c-.77145 0-1.37556.60519-1.37556 1.37757 0 .77185.60411 1.37596 1.37556 1.37596h10.3664c2.60928 0 3.79725-2.35567 3.79725-4.54255 0-2.24368-1.28437-4.51549-3.74058-4.51549m21.80213-6.36504h-11.70811c-.78012 0-1.39103.60465-1.39103 1.37663 0 .77332.61091 1.37757 1.39103 1.37757h4.9504l-.0088 5.11694c-.00626 2.387-.00986 4.77855-.00986 6.26038 0 .76718.61239 1.36716 1.39477 1.36716.78171 0 1.39316-.59998 1.39316-1.36716V21.96782h3.98844c.77918 0 1.3901-.60425 1.3901-1.37757 0-.77198-.61092-1.37663-1.3901-1.37663m20.57615 3.82697v3.0062h-10.05095v-3.0062c0-.66238.67758-1.07277 1.30463-1.07277h7.44235c.62665 0 1.30397.41039 1.30397 1.07277zm-1.28664-3.82697h-7.47728c-2.23754 0-4.05776 1.7161-4.05776 3.82697v10.30455c0 .76718.60465 1.36716 1.37596 1.36716.76932 0 1.39477-.61305 1.39477-1.36716v-4.59989h10.05095v4.59989c0 .75411.62532 1.36716 1.39463 1.36716.75865 0 1.37597-.61305 1.37597-1.36716V23.04059c0-2.36287-2.10662-3.82697-4.05724-3.82697M187.258 36.22786c.14266 0 .27599-.00426.40265-.01466.12667-.0072.24-.03387.33733-.07653l.23732-.20053c.05867-.08853.08667-.21346.08667-.37386 0-.13653-.02533-.2444-.07867-.3256l-.20266-.18492-.288-.08693-.31865-.02347h-.83465v1.2865zm.27732-1.79688c.48132 0 .83865.0964 1.0693.28745.232.19173.348.4824.348.87145 0 .36452-.10266.63012-.30533.80038-.204.16986-.45732.26986-.75998.30106l1.1573 1.78755h-.67464l-1.10264-1.74222h-.66799v1.74222h-.62931v-4.0479zm-2.85726 3.19165c.14533.36039.34532.67385.60265.93958.256.26612.55865.47385.90665.62545.34932.15213.72798.2276 1.13463.2276.40266 0 .77598-.07547 1.1213-.2276.34533-.1516.64666-.35933.90399-.62545.25466-.26573.45598-.57919.60131-.93958.14533-.36093.21733-.75518.21733-1.1813 0-.4124-.072-.79945-.21733-1.15718-.14533-.35839-.34665-.66985-.60131-.9313-.25733-.262-.55866-.46866-.90398-.61972-.34533-.15267-.71865-.2276-1.1213-.2276-.40666 0-.78532.07493-1.13464.2276-.348.15106-.65066.35772-.90665.61971-.25733.26146-.45732.57292-.60265.93131-.14533.35773-.21733.74479-.21733 1.15718 0 .42612.072.82037.21733 1.1813zm-.56932-2.54327c.18533-.41919.43599-.78371.75465-1.09264.31866-.30826.68931-.55052 1.11197-.72598.42266-.17613.87198-.26466 1.34663-.26466.476 0 .92398.08853 1.34397.26466.41999.17546.78798.41772 1.1013.72598.316.30893.56532.67345.75065 1.09264.18533.42092.27733.87504.27733 1.36197 0 .49998-.092.96197-.27733 1.38383-.18533.42505-.43465.79224-.75064 1.10317-.31333.31146-.68132.55465-1.10131.72651-.41999.17347-.86798.2588-1.34397.2588-.47465 0-.92397-.08533-1.34663-.2588-.42266-.17186-.79331-.41505-1.11197-.72651-.31866-.31093-.56932-.67812-.75465-1.10317-.18533-.42186-.27733-.88385-.27733-1.38383 0-.48693.092-.94105.27733-1.36197"/></svg>