<svg xmlns="http://www.w3.org/2000/svg" role="img" viewBox="-12.35 -12.35 642.20 158.20"><title>Decipher Technology Studios (member) logo</title><style>svg {enable-background:new 0 0 618 134.046}</style><path fill="#010101" d="M8.796 80.81h17.469c6.514 0 12.195-1.017 17.042-3.052 4.844-2.033 8.857-4.699 12.033-7.996 3.177-3.296 5.559-7.059 7.147-11.291a36.865 36.865 0 0 0 2.383-13.062c0-4.475-.793-8.829-2.383-13.062-1.588-4.23-3.97-7.995-7.147-11.292-3.176-3.296-7.189-5.96-12.033-7.995-4.847-2.032-10.527-3.05-17.041-3.05H8.797l-.001 70.8zM0 2.197h28.708c5.375 0 10.769.896 16.187 2.685A44.72 44.72 0 0 1 59.556 13c4.355 3.622 7.879 8.139 10.567 13.55 2.688 5.413 4.032 11.7 4.032 18.86 0 7.244-1.344 13.55-4.032 18.921-2.688 5.371-6.212 9.868-10.567 13.488a44.652 44.652 0 0 1-14.66 8.118c-5.418 1.791-10.812 2.686-16.187 2.686L0 88.622V2.197zM108.285 80.81h46.301v7.813H99.489V2.197h53.63v7.813h-44.834v29.784l41.903.001v7.69h-41.903V80.81zm141.712-6.103c-1.467 2.197-3.238 4.272-5.316 6.225-2.076 1.953-4.479 3.662-7.207 5.127-2.729 1.465-5.741 2.624-9.039 3.479-3.299.854-6.904 1.282-10.812 1.282-6.517 0-12.543-1.141-18.081-3.419-5.539-2.277-10.304-5.432-14.293-9.461-3.991-4.028-7.107-8.808-9.345-14.343-2.241-5.534-3.361-11.597-3.36-18.189 0-6.592 1.14-12.653 3.421-18.189 2.279-5.533 5.436-10.315 9.468-14.343 4.032-4.028 8.796-7.181 14.293-9.46C205.223 1.141 211.189 0 217.623 0c3.176 0 6.292.326 9.345.976 3.055.653 5.925 1.568 8.614 2.747 2.687 1.18 5.13 2.605 7.329 4.272 2.199 1.669 4.032 3.561 5.497 5.677l-7.329 5.371c-.897-1.383-2.099-2.766-3.605-4.15-1.508-1.383-3.279-2.604-5.314-3.662-2.037-1.057-4.258-1.911-6.659-2.563-2.402-.65-4.99-.977-7.757-.977-5.62 0-10.651 1.019-15.089 3.051-4.439 2.035-8.206 4.782-11.3 8.24-3.096 3.46-5.456 7.467-7.085 12.024-1.63 4.559-2.444 9.36-2.444 14.405 0 5.046.834 9.847 2.506 14.404 1.668 4.558 4.05 8.566 7.146 12.024 3.095 3.46 6.861 6.207 11.301 8.24 4.438 2.035 9.427 3.051 14.966 3.052 4.967 0 9.69-1.017 14.17-3.051 4.478-2.033 8.226-5.289 11.239-9.766l6.843 4.393zm30.38 13.916h-8.795V2.198h8.795v86.425zm39.129-47.607h14.905c6.92 0 12.174-1.343 15.758-4.028 3.583-2.686 5.375-6.592 5.375-11.719 0-5.371-1.852-9.296-5.559-11.779-3.707-2.482-8.898-3.723-15.575-3.723h-14.905l.001 31.249zm-8.795-38.818h24.432c4.399 0 8.388.469 11.972 1.404 3.584.937 6.659 2.361 9.224 4.272a19.252 19.252 0 0 1 5.925 7.202c1.384 2.89 2.077 6.287 2.077 10.193 0 3.907-.714 7.305-2.138 10.193a19.747 19.747 0 0 1-5.986 7.202c-2.566 1.913-5.662 3.357-9.284 4.333-3.624.977-7.636 1.465-12.035 1.465h-15.392v40.161h-8.795V2.198zm76.155 0h8.797l-.001 37.475h47.156V2.198h8.795v86.425h-8.795V47.73h-47.156v40.893h-8.796V2.198zm103.851 78.613h46.301v7.813l-55.096-.001V2.198h53.63v7.813h-44.835v29.784h41.903v7.691h-41.903v33.325zm77.928-40.161h15.271c7.086 0 12.54-1.281 16.369-3.845 3.828-2.563 5.741-6.409 5.741-11.536 0-2.848-.529-5.249-1.588-7.202a12.987 12.987 0 0 0-4.397-4.761c-1.874-1.221-4.153-2.115-6.84-2.685-2.689-.569-5.662-.855-8.919-.855h-15.637V40.65zm0 47.974h-8.796V2.199h25.411c4.234 0 8.165.408 11.789 1.22 3.624.814 6.759 2.136 9.407 3.967 2.646 1.831 4.702 4.211 6.17 7.141 1.466 2.929 2.199 6.512 2.199 10.742 0 3.174-.57 6.064-1.711 8.668-1.141 2.605-2.687 4.863-4.641 6.775-1.955 1.913-4.277 3.439-6.964 4.577-2.687 1.14-5.619 1.873-8.796 2.198L618 88.624h-10.749l-23.945-40.405h-14.66l-.001 40.405z"/><path fill="#00b428" d="M66.76 119.328h-5.188V116.7h13.389v2.628h-5.188v14.287H66.76v-14.287zm23.026-2.628h11.213v2.628h-8.201v4.301h7.771v2.532h-7.771v4.778h8.631v2.676H89.785l.001-16.915zm39.361 3.967a3.862 3.862 0 0 0-1.746-1.326 5.797 5.797 0 0 0-2.103-.418c-.877 0-1.674.16-2.391.478a5.62 5.62 0 0 0-1.853 1.314 5.85 5.85 0 0 0-1.195 1.959 6.926 6.926 0 0 0-.419 2.437c0 .924.135 1.767.406 2.532a5.704 5.704 0 0 0 1.16 1.971 5.2 5.2 0 0 0 1.805 1.278c.702.302 1.491.454 2.368.454.908 0 1.712-.179 2.414-.537.701-.359 1.268-.832 1.698-1.423l2.415 1.697a7.747 7.747 0 0 1-2.75 2.187c-1.084.517-2.351.776-3.802.776-1.323 0-2.538-.219-3.646-.657a8.418 8.418 0 0 1-2.857-1.839 8.39 8.39 0 0 1-1.865-2.819c-.446-1.092-.669-2.298-.669-3.62 0-1.354.235-2.576.705-3.667s1.115-2.019 1.937-2.784a8.603 8.603 0 0 1 2.905-1.767c1.115-.414 2.327-.622 3.635-.622.541 0 1.107.052 1.697.156.59.103 1.156.262 1.698.477a8.28 8.28 0 0 1 1.531.8c.478.319.884.702 1.219 1.147l-2.297 1.816zm17.349-3.967h3.013v6.833h7.914V116.7h3.012v16.915h-3.012v-7.502h-7.914v7.502h-3.013V116.7zm30.585 0h3.993l7.866 12.663h.048V116.7H192v16.915h-3.825l-8.033-13.068h-.049v13.068h-3.012V116.7zm34.003 8.41c0 .907.139 1.74.418 2.496a5.792 5.792 0 0 0 1.196 1.971 5.477 5.477 0 0 0 1.841 1.302c.709.31 1.495.466 2.355.466.861 0 1.649-.156 2.367-.466a5.447 5.447 0 0 0 1.853-1.302 5.823 5.823 0 0 0 1.196-1.971c.278-.756.418-1.589.418-2.496 0-.876-.14-1.689-.418-2.437a5.955 5.955 0 0 0-1.184-1.959 5.49 5.49 0 0 0-1.841-1.314c-.717-.319-1.514-.478-2.391-.478s-1.67.16-2.379.478a5.512 5.512 0 0 0-1.829 1.314 5.955 5.955 0 0 0-1.184 1.959 6.926 6.926 0 0 0-.418 2.437zm-3.276 0c0-1.354.227-2.576.681-3.667a8.055 8.055 0 0 1 1.889-2.784 8.37 8.37 0 0 1 2.87-1.767c1.107-.414 2.315-.622 3.622-.622 1.323 0 2.542.207 3.658.622a8.482 8.482 0 0 1 2.893 1.767 7.989 7.989 0 0 1 1.901 2.784c.455 1.091.681 2.314.681 3.667 0 1.322-.227 2.528-.681 3.62a8.347 8.347 0 0 1-1.901 2.819 8.628 8.628 0 0 1-2.893 1.839c-1.116.438-2.336.657-3.658.657-1.307 0-2.515-.219-3.622-.657a8.553 8.553 0 0 1-2.87-1.839 8.435 8.435 0 0 1-1.889-2.819c-.454-1.091-.681-2.298-.681-3.62zm33.967-8.409h3.014v14.239h7.196v2.675h-10.21v-16.914zm27.092 8.41c0 .907.14 1.74.418 2.496a5.792 5.792 0 0 0 1.196 1.971 5.477 5.477 0 0 0 1.841 1.302c.709.31 1.495.466 2.355.466s1.65-.156 2.367-.466a5.447 5.447 0 0 0 1.853-1.302 5.841 5.841 0 0 0 1.197-1.971c.278-.756.418-1.589.418-2.496 0-.876-.14-1.689-.418-2.437a5.987 5.987 0 0 0-1.183-1.959 5.484 5.484 0 0 0-1.842-1.314c-.717-.319-1.514-.478-2.391-.478s-1.67.16-2.379.478a5.526 5.526 0 0 0-1.83 1.314 5.953 5.953 0 0 0-1.183 1.959 6.918 6.918 0 0 0-.419 2.437zm-3.275 0c0-1.354.228-2.576.681-3.667.454-1.091 1.083-2.019 1.889-2.784a8.347 8.347 0 0 1 2.869-1.767c1.107-.414 2.315-.622 3.622-.622 1.323 0 2.542.207 3.657.622a8.472 8.472 0 0 1 2.893 1.767 7.989 7.989 0 0 1 1.901 2.784c.455 1.091.681 2.314.681 3.667 0 1.322-.227 2.528-.681 3.62a8.362 8.362 0 0 1-1.901 2.819 8.638 8.638 0 0 1-2.893 1.839c-1.115.438-2.335.657-3.657.657-1.307 0-2.515-.219-3.622-.657a8.528 8.528 0 0 1-2.869-1.839 8.42 8.42 0 0 1-1.889-2.819c-.453-1.092-.681-2.299-.681-3.62zm48.737 7.62c-.86.415-1.804.738-2.833.968-1.028.231-2.211.346-3.55.346-1.371 0-2.622-.219-3.754-.657-1.132-.438-2.104-1.052-2.917-1.839a8.362 8.362 0 0 1-1.901-2.819c-.454-1.092-.681-2.298-.681-3.62 0-1.354.235-2.576.705-3.667a8.173 8.173 0 0 1 1.938-2.784 8.603 8.603 0 0 1 2.905-1.767c1.115-.414 2.327-.622 3.634-.622 1.355 0 2.594.195 3.717.586 1.124.391 2.029.904 2.715 1.54l-2.08 2.246c-.431-.478-1.033-.884-1.806-1.219a6.288 6.288 0 0 0-2.522-.502c-.893 0-1.701.16-2.426.478a5.44 5.44 0 0 0-1.853 1.314 5.938 5.938 0 0 0-1.184 1.959 6.949 6.949 0 0 0-.418 2.437c0 .907.14 1.74.418 2.496a5.792 5.792 0 0 0 1.196 1.971 5.362 5.362 0 0 0 1.888 1.302c.741.31 1.582.466 2.522.466 1.291 0 2.415-.199 3.371-.598v-4.3h-3.562v-2.484h6.479l-.001 8.769zm20.476-6.45l-6.361-9.58h3.682l4.257 7.119 4.304-7.119h3.491l-6.36 9.58v7.335h-3.013v-7.335zm51.214-6.045c-.319-.414-.768-.76-1.35-1.039a4.052 4.052 0 0 0-1.758-.418c-.351 0-.701.044-1.052.132a3.253 3.253 0 0 0-.956.405 2.239 2.239 0 0 0-.706.717c-.183.296-.274.649-.274 1.064 0 .382.079.709.239.979.158.271.378.502.657.693.279.191.617.359 1.016.502.399.143.837.287 1.315.429.541.176 1.104.375 1.685.598a6.572 6.572 0 0 1 1.602.884 4.4 4.4 0 0 1 1.196 1.386c.311.559.466 1.251.466 2.079 0 .907-.168 1.701-.502 2.377a4.898 4.898 0 0 1-1.339 1.685 5.715 5.715 0 0 1-1.961 1.003 8.245 8.245 0 0 1-2.366.334 8.916 8.916 0 0 1-3.229-.608c-1.052-.406-1.912-1.007-2.582-1.804l2.153-2.007c.414.574.968 1.028 1.66 1.362.695.335 1.376.502 2.045.502.35 0 .709-.043 1.076-.131.366-.088.697-.236.993-.442.294-.207.533-.466.717-.776.182-.311.274-.697.274-1.159 0-.446-.103-.816-.31-1.111a2.791 2.791 0 0 0-.837-.764 6.006 6.006 0 0 0-1.243-.562l-1.506-.502c-.51-.158-1.02-.35-1.53-.573a5.069 5.069 0 0 1-1.376-.884 4.285 4.285 0 0 1-.992-1.35c-.255-.534-.383-1.198-.383-1.995 0-.86.179-1.601.539-2.222a4.733 4.733 0 0 1 1.41-1.541 6.295 6.295 0 0 1 1.984-.908 8.717 8.717 0 0 1 2.26-.298c.861 0 1.734.152 2.617.454a6.424 6.424 0 0 1 2.309 1.362l-1.961 2.147zm21.68-.907h-5.189v-2.628h13.389v2.628h-5.189v14.287h-3.012l.001-14.287zm36.583 8.075c0 1.02-.175 1.939-.526 2.76a6.182 6.182 0 0 1-1.436 2.09 6.29 6.29 0 0 1-2.151 1.326 7.634 7.634 0 0 1-2.702.466 7.634 7.634 0 0 1-2.702-.466 6.425 6.425 0 0 1-2.164-1.326 5.947 5.947 0 0 1-1.435-2.09c-.342-.821-.513-1.74-.513-2.76v-10.703h3.012v10.583c0 .494.063.984.192 1.47.128.486.338.92.634 1.301.294.382.685.693 1.17.932.486.239 1.088.359 1.806.359.717 0 1.319-.12 1.805-.359.487-.239.876-.55 1.172-.932.295-.382.505-.816.634-1.301.127-.486.191-.976.191-1.47v-10.583h3.013v10.703zm22.057 3.584c.78 0 1.561-.091 2.342-.274a6.124 6.124 0 0 0 2.117-.932c.628-.438 1.143-1.031 1.541-1.78.4-.749.599-1.696.599-2.843 0-1.21-.2-2.198-.599-2.962-.397-.765-.912-1.362-1.54-1.792a5.755 5.755 0 0 0-2.117-.884 11.722 11.722 0 0 0-2.342-.238h-2.511v11.706h2.51v-.001zm-5.524-14.287h6.001c1.101 0 2.208.143 3.323.431a8.62 8.62 0 0 1 3.014 1.421c.891.661 1.617 1.529 2.175 2.604.557 1.075.836 2.409.836 4.001 0 1.481-.279 2.756-.836 3.823-.559 1.067-1.284 1.943-2.175 2.628a9.104 9.104 0 0 1-3.014 1.517c-1.115.327-2.223.49-3.323.49h-6.001v-16.915zm31.144 0h3.013v16.915h-3.013v-16.915zm22.096 8.41c0 .907.139 1.74.418 2.496a5.774 5.774 0 0 0 1.195 1.971 5.467 5.467 0 0 0 1.841 1.302c.709.31 1.495.466 2.355.466a5.91 5.91 0 0 0 2.367-.466 5.443 5.443 0 0 0 1.852-1.302 5.823 5.823 0 0 0 1.196-1.971c.279-.756.419-1.589.419-2.496a6.9 6.9 0 0 0-.419-2.437 5.953 5.953 0 0 0-1.183-1.959 5.486 5.486 0 0 0-1.84-1.314c-.718-.319-1.515-.478-2.391-.478-.878 0-1.67.16-2.38.478a5.532 5.532 0 0 0-1.829 1.314 5.936 5.936 0 0 0-1.183 1.959 6.922 6.922 0 0 0-.418 2.437zm-3.277 0c0-1.354.228-2.576.681-3.667.455-1.091 1.083-2.019 1.889-2.784.804-.764 1.761-1.353 2.869-1.767 1.108-.414 2.316-.622 3.622-.622 1.323 0 2.542.207 3.658.622a8.482 8.482 0 0 1 2.893 1.767c.813.765 1.446 1.693 1.902 2.784.453 1.091.681 2.314.681 3.667 0 1.322-.229 2.528-.681 3.62a8.35 8.35 0 0 1-1.902 2.819 8.648 8.648 0 0 1-2.893 1.839c-1.116.438-2.335.657-3.658.657-1.306 0-2.514-.219-3.622-.657a8.538 8.538 0 0 1-2.869-1.839 8.435 8.435 0 0 1-1.889-2.819c-.453-1.092-.681-2.298-.681-3.62zm42.323-4.874c-.319-.414-.769-.76-1.351-1.039a4.048 4.048 0 0 0-1.757-.418c-.351 0-.703.044-1.052.132a3.26 3.26 0 0 0-.957.405 2.26 2.26 0 0 0-.706.717c-.182.296-.274.649-.274 1.064 0 .382.079.709.239.979.159.271.378.502.658.693s.617.359 1.016.502c.4.143.838.287 1.316.429.541.176 1.103.375 1.685.598a6.536 6.536 0 0 1 1.602.884c.487.367.885.829 1.196 1.386.311.559.467 1.251.467 2.079 0 .907-.168 1.701-.503 2.377a4.907 4.907 0 0 1-1.338 1.685 5.724 5.724 0 0 1-1.961 1.003 8.247 8.247 0 0 1-2.367.334 8.91 8.91 0 0 1-3.227-.608c-1.052-.406-1.912-1.007-2.582-1.804l2.152-2.007c.414.574.968 1.028 1.661 1.362.694.335 1.376.502 2.045.502.35 0 .708-.043 1.076-.131.366-.088.697-.236.992-.442.295-.207.534-.466.717-.776.183-.311.274-.697.274-1.159 0-.446-.103-.816-.31-1.111a2.787 2.787 0 0 0-.836-.764 6.04 6.04 0 0 0-1.244-.562l-1.506-.502c-.51-.158-1.021-.35-1.53-.573a5.063 5.063 0 0 1-1.375-.884 4.255 4.255 0 0 1-.992-1.35c-.255-.534-.383-1.198-.383-1.995 0-.86.179-1.601.538-2.222a4.747 4.747 0 0 1 1.411-1.541 6.285 6.285 0 0 1 1.984-.908 8.715 8.715 0 0 1 2.259-.298c.86 0 1.734.152 2.617.454a6.399 6.399 0 0 1 2.307 1.362l-1.961 2.147z"/></svg>