<?xml version="1.0" encoding="UTF-8" standalone="yes"?>
<svg version="1.1" id="Layer_1" xmlns="http://www.w3.org/2000/svg" xmlns:xlink="http://www.w3.org/1999/xlink" x="0px" y="0px" viewBox="11.24 4.92 552.52 98.16" style="enable-background:new 0 0 576 108;" xml:space="preserve">
  <style type="text/css">&#xD;
	.st0{fill:#808080;}&#xD;
	.st1{fill:#0083C4;}&#xD;
</style>
  <g>
    <path class="st0" d="M526.6,96.9c16.7,0,29.8-8.3,32.2-26.2l-1.2-1.2h-4.8l-1.2,1.2c-2.4,13.2-10.7,20.3-25,20.3&#xD;&#xA;&#x9;&#x9;c-17.9,0-31-13.1-31-37s13.1-36.9,31-36.9c14.3,0,22.6,7.2,25,19.1l1.2,1.2h4.8l1.2-1.2c-2.4-16.7-15.5-25-32.2-25&#xD;&#xA;&#x9;&#x9;c-20.3,0-38.1,14.3-38.1,42.9S506.3,96.9,526.6,96.9 M474.1,94.5v-81l-1.1-1.2h-8.3l-1.2,1.2l-31,72.7h-1.2l-31-72.7l-1.2-1.2h-8.3&#xD;&#xA;&#x9;&#x9;l-1.2,1.2v81l1.2,1.2h4.8l1.2-1.2V25.4h1.2l29.8,69.1l1.2,1.2h6l1.2-1.2l29.8-69.1h1.2v69.1l1.2,1.2h4.8L474.1,94.5z M374,94.5V91&#xD;&#xA;&#x9;&#x9;l-1.2-1.2h-44.1l-1.2-1.2v-31l1.2-1.2h41.7l1.2-1.2v-3.6l-1.2-1.2h-41.7l-1.2-1.2V19.4l1.2-1.2h44.1L374,17v-3.5l-1.2-1.2h-51.2&#xD;&#xA;&#x9;&#x9;l-1.2,1.2v81l1.2,1.2h51.2L374,94.5z"/>
    <path class="st1" d="M301.4,79.1v16.6h-53.8V12.3h19v66.9L301.4,79.1z M247.6,12.3h19 M52.6,95.7c19,0,35.6-12.8,40.4-31.2&#xD;&#xA;&#x9;&#x9;l47.2,36.8l47.2-36.8v31.2h53.8V79.1h-34.9V12.3h-19v31.2l-45.2,35.4L132,70.9L153.6,54l23.6-18.4L163.7,25l-45.3,35.4l-10.1-7.9&#xD;&#xA;&#x9;&#x9;l45.2-35.4L140.2,6.6L93,43.5c-4.8-18.4-21.4-31.2-40.4-31.2H18.8v83.4L52.6,95.7z M37.7,79.1V28.9h14.9&#xD;&#xA;&#x9;&#x9;c12.6,0,22.8,11.3,22.8,25.1S65.1,79.1,52.6,79.1H37.7z"/>
  </g>
</svg>