<svg xmlns="http://www.w3.org/2000/svg" role="img" viewBox="-1.60 -1.48 115.70 86.83"><title>Depot logo</title><path fill="currentColor" d="M4.96 74.997v-5.52h7c1.707 0 3.2-.333 4.48-1a7.137 7.137 0 0 0 2.96-3c.693-1.307 1.04-2.853 1.04-4.64 0-1.787-.36-3.32-1.08-4.6a7.195 7.195 0 0 0-2.96-2.96c-1.253-.693-2.733-1.04-4.44-1.04h-7.2v-5.48h7.28c2.133 0 4.093.347 5.88 1.04 1.813.667 3.387 1.64 4.72 2.92a12.576 12.576 0 0 1 3.12 4.48c.747 1.707 1.12 3.6 1.12 5.68 0 2.053-.373 3.947-1.12 5.68a12.819 12.819 0 0 1-3.08 4.48c-1.333 1.253-2.907 2.227-4.72 2.92-1.787.693-3.733 1.04-5.84 1.04H4.96zm-4.24 0v-28.24H7v28.24H.72zm39.196.44c-2.106 0-3.986-.427-5.64-1.28-1.626-.88-2.906-2.093-3.84-3.64-.933-1.547-1.4-3.293-1.4-5.24s.454-3.68 1.36-5.2a10.051 10.051 0 0 1 3.76-3.64c1.574-.88 3.347-1.32 5.32-1.32 1.92 0 3.614.413 5.08 1.24a8.887 8.887 0 0 1 3.44 3.44c.854 1.467 1.28 3.147 1.28 5.04 0 .347-.026.72-.08 1.12a10.01 10.01 0 0 1-.2 1.32l-16.76.04v-4.2l14.16-.04-2.64 1.76c-.026-1.12-.2-2.04-.52-2.76-.32-.747-.8-1.307-1.44-1.68-.613-.4-1.373-.6-2.28-.6-.96 0-1.8.227-2.52.68-.693.427-1.24 1.04-1.64 1.84-.373.8-.56 1.773-.56 2.92s.2 2.133.6 2.96a4.786 4.786 0 0 0 1.76 1.88c.774.427 1.68.64 2.72.64.96 0 1.827-.16 2.6-.48a5.927 5.927 0 0 0 2.04-1.52l3.36 3.36a9.071 9.071 0 0 1-3.48 2.52c-1.36.56-2.853.84-4.48.84zm23.514-.04c-1.306 0-2.506-.253-3.6-.76-1.093-.507-1.986-1.2-2.68-2.08a5.866 5.866 0 0 1-1.2-3.08v-8.2a6.086 6.086 0 0 1 1.2-3.12 7.223 7.223 0 0 1 2.68-2.2c1.094-.533 2.294-.8 3.6-.8 1.84 0 3.467.44 4.88 1.32 1.44.88 2.56 2.08 3.36 3.6.827 1.52 1.24 3.253 1.24 5.2s-.413 3.68-1.24 5.2a9.105 9.105 0 0 1-3.36 3.6c-1.413.88-3.04 1.32-4.88 1.32zm-1.12-5.52c.88 0 1.64-.2 2.28-.6a4.195 4.195 0 0 0 1.56-1.64c.374-.693.56-1.48.56-2.36 0-.907-.186-1.707-.56-2.4a3.921 3.921 0 0 0-1.56-1.6c-.64-.4-1.386-.6-2.24-.6-.853 0-1.613.2-2.28.6a4 4 0 0 0-1.52 1.6c-.373.693-.56 1.493-.56 2.4 0 .88.174 1.667.52 2.36.374.693.894 1.24 1.56 1.64.667.4 1.414.6 2.24.6zm-10.08 13.32v-27.64h6.12v5l-1 4.72.92 4.72v13.2h-6.04zm33.15-7.76c-2 0-3.814-.44-5.44-1.32a10.272 10.272 0 0 1-3.8-3.68c-.934-1.547-1.4-3.28-1.4-5.2 0-1.92.466-3.64 1.4-5.16.933-1.52 2.2-2.72 3.8-3.6 1.6-.907 3.413-1.36 5.44-1.36 2.026 0 3.84.44 5.44 1.32a9.969 9.969 0 0 1 3.8 3.64c.933 1.52 1.4 3.24 1.4 5.16s-.467 3.653-1.4 5.2a10.272 10.272 0 0 1-3.8 3.68c-1.6.88-3.414 1.32-5.44 1.32zm0-5.56c.88 0 1.653-.187 2.32-.56a3.922 3.922 0 0 0 1.52-1.64c.373-.72.56-1.533.56-2.44s-.187-1.693-.56-2.36a3.922 3.922 0 0 0-1.56-1.6c-.64-.4-1.4-.6-2.28-.6-.854 0-1.614.2-2.28.6a3.921 3.921 0 0 0-1.56 1.6c-.374.693-.56 1.493-.56 2.4 0 .88.186 1.68.56 2.4.373.693.893 1.24 1.56 1.64.666.373 1.426.56 2.28.56zm16.056 5.12v-27.48h6.12v27.48h-6.12zm-4.4-14.24v-5.2h14.92v5.2h-14.92z"/><path fill="#00000000" stroke="currentColor" stroke-linecap="round" stroke-linejoin="round" stroke-width="2.333" d="M63 12.997l-13-7m-7.095 3.44L56 17.012l13.095-7.575M56 30.997v-14m13.5 6v-12A3 3 0 0 0 68 8.402l-10.5-6a3 3 0 0 0-3 0l-10.5 6a3 3 0 0 0-1.5 2.595v12a3 3 0 0 0 1.5 2.595l10.5 6a3 3 0 0 0 3 0l10.5-6a3 3 0 0 0 1.5-2.595z"/></svg>