<svg xmlns="http://www.w3.org/2000/svg" role="img" viewBox="-0.92 -3.42 177.84 135.09"><title>Depot (member) logo</title><path fill="#191719" d="M17.152 115.192c-2.688 0-5.1413-.747-7.36-2.24-2.21867-1.536-3.98933-3.563-5.312-6.08-1.28-2.56-1.92-5.376-1.92-8.448 0-3.1147.68267-5.9093 2.048-8.384 1.36533-2.5173 3.2-4.5227 5.504-6.016 2.3467-1.4933 4.9493-2.24 7.808-2.24 1.7493 0 3.3707.3413 4.864 1.024 1.536.6827 2.8587 1.664 3.968 2.944v-16.32l10.368-1.6V115H26.88v-4.288c-1.0667 1.365-2.4747 2.453-4.224 3.264-1.7067.811-3.5413 1.216-5.504 1.216zm3.456-8.576c1.2373 0 2.368-.213 3.392-.64 1.024-.469 1.9413-1.131 2.752-1.984V92.856c-.8107-.8533-1.7493-1.4933-2.816-1.92-1.024-.4267-2.1333-.64-3.328-.64-1.4933 0-2.8373.3627-4.032 1.088-1.1947.6827-2.1333 1.6427-2.816 2.88-.6827 1.2373-1.024 2.6453-1.024 4.224 0 1.536.3413 2.923 1.024 4.16.6827 1.237 1.6213 2.219 2.816 2.944 1.1947.683 2.5387 1.024 4.032 1.024zm37.285 9.024c-3.2427 0-6.1867-.747-8.832-2.24-2.6027-1.536-4.6933-3.584-6.272-6.144-1.536-2.603-2.304-5.504-2.304-8.704 0-3.2427.7253-6.144 2.176-8.704 1.4507-2.56 3.4347-4.5867 5.952-6.08 2.5173-1.536 5.3547-2.304 8.512-2.304 3.2 0 6.016.7467 8.448 2.24 2.432 1.4933 4.3307 3.5627 5.696 6.208 1.408 2.6027 2.112 5.6107 2.112 9.024v2.24h-22.72c.3413 1.237.8747 2.325 1.6 3.264.7253.939 1.6213 1.664 2.688 2.176 1.0667.512 2.2187.768 3.456.768 1.3653 0 2.6027-.235 3.712-.704 1.152-.469 2.0907-1.152 2.816-2.048l6.848 5.696c-2.1333 1.877-4.288 3.243-6.464 4.096-2.176.811-4.6507 1.216-7.424 1.216zm-7.232-20.352h13.12c-.2987-1.1947-.768-2.2187-1.408-3.072-.64-.8533-1.408-1.5147-2.304-1.984-.896-.4693-1.8987-.704-3.008-.704-1.0667 0-2.048.2347-2.944.704-.8533.4267-1.5787 1.0667-2.176 1.92-.5547.8533-.9813 1.8987-1.28 3.136zm25.971 33.088v-46.4h10.24v4.608c1.1093-1.4933 2.5173-2.6667 4.224-3.52 1.7493-.8533 3.6053-1.28 5.568-1.28 2.7307 0 5.184.768 7.36 2.304 2.219 1.4933 3.968 3.4987 5.248 6.016 1.323 2.5173 1.984 5.3333 1.984 8.448 0 3.072-.683 5.867-2.048 8.384-1.365 2.517-3.221 4.523-5.568 6.016-2.304 1.493-4.8853 2.24-7.744 2.24-1.792 0-3.456-.32-4.992-.96-1.4933-.683-2.7947-1.643-3.904-2.88v17.024H76.632zm16.576-21.696c1.536 0 2.88-.341 4.032-1.024 1.1947-.725 2.1333-1.707 2.816-2.944.683-1.237 1.024-2.645 1.024-4.224 0-1.5787-.341-2.9653-1.024-4.16-.6827-1.2373-1.6213-2.1973-2.816-2.88-1.1947-.7253-2.5387-1.088-4.032-1.088-1.28 0-2.432.2347-3.456.704-.9813.4267-1.8987 1.088-2.752 1.984v11.008c.8107.811 1.7493 1.451 2.816 1.92 1.0667.469 2.1973.704 3.392.704zm37.22 8.96c-3.286 0-6.23-.747-8.832-2.24-2.603-1.493-4.672-3.52-6.208-6.08-1.494-2.603-2.24-5.525-2.24-8.768 0-3.2427.746-6.144 2.24-8.704 1.536-2.6027 3.605-4.6507 6.208-6.144 2.602-1.4933 5.525-2.24 8.768-2.24 3.285 0 6.208.7467 8.768 2.24 2.602 1.4933 4.65 3.5413 6.144 6.144 1.536 2.56 2.304 5.4613 2.304 8.704 0 3.243-.768 6.165-2.304 8.768-1.494 2.56-3.542 4.587-6.144 6.08-2.56 1.493-5.462 2.24-8.704 2.24zm-.064-8.64c1.408 0 2.645-.363 3.712-1.088 1.066-.725 1.898-1.728 2.496-3.008.597-1.28.896-2.731.896-4.352 0-1.664-.299-3.1147-.896-4.352-.598-1.28-1.43-2.2827-2.496-3.008-1.067-.7253-2.304-1.088-3.712-1.088-1.366 0-2.603.3627-3.712 1.088-1.067.7253-1.899 1.728-2.496 3.008-.598 1.2373-.896 2.688-.896 4.352 0 1.621.298 3.072.896 4.352.597 1.28 1.429 2.283 2.496 3.008 1.109.725 2.346 1.088 3.712 1.088zm35.81 8.64c-3.883 0-6.827-.896-8.832-2.688-2.005-1.792-3.008-4.437-3.008-7.936v-15.04h-6.4v-8h6.4v-9.152l10.368-2.112v11.264h8.832v8h-8.832v12.992c0 1.451.32 2.475.96 3.072.683.597 1.813.896 3.392.896.597 0 1.195-.043 1.792-.128s1.408-.277 2.432-.576v8.384c-.939.299-2.091.533-3.456.704-1.365.213-2.581.32-3.648.32zM56 10c0-5.52285 4.4772-10 10-10h6c1.1046 0 2 .89543 2 2v8c0 1.1046-.8954 2-2 2H58c-1.1046 0-2-.8954-2-2z"/><rect width="18" height="12" x="56" y="32" fill="#191719" rx="2"/><path fill="#191719" d="M56 50c0-1.1046.8954-2 2-2h14c1.1046 0 2 .8954 2 2v8c0 1.1046-.8954 2-2 2h-6c-5.5228 0-10-4.4772-10-10z"/><rect width="20" height="12" x="78" y="48" fill="#191719" rx="2"/><path fill="#191719" d="M102 50c0-1.1046.895-2 2-2h14c1.105 0 2 .8954 2 2 0 5.5228-4.477 10-10 10h-6c-1.105 0-2-.8954-2-2v-8z"/><rect width="18" height="12" x="102" y="32" fill="#191719" rx="2"/><rect width="18" height="12" x="102" y="16" fill="#191719" rx="2"/><path fill="#46A759" d="M78 2c0-1.10457.8954-2 2-2h30c5.523 0 10 4.47715 10 10 0 1.1046-.895 2-2 2H80c-1.1046 0-2-.8954-2-2V2z"/><rect width="42" height="12" x="56" y="16" fill="#46A759" rx="2"/><rect width="20" height="12" x="78" y="32" fill="#46A759" rx="2"/></svg>