<svg xmlns="http://www.w3.org/2000/svg" role="img" viewBox="-5.59 -3.59 693.68 706.68"><title>Desktop Kubernetes logo</title><defs id="defs1193"><clipPath id="clipPath1765" clipPathUnits="userSpaceOnUse"><path id="rect1767" fill="#00f" fill-rule="evenodd" stroke-width=".94" d="M127.463 109.236h748.683v716.787H127.463z" opacity=".5"/></clipPath><clipPath id="clipPath1769" clipPathUnits="userSpaceOnUse"><path id="rect1771" fill="#00f" fill-rule="evenodd" stroke-width=".94" d="M127.463 109.236h748.683v716.787H127.463z" opacity=".5"/></clipPath><clipPath id="clipPath1773" clipPathUnits="userSpaceOnUse"><path id="rect1775" fill="#00f" fill-rule="evenodd" stroke-width=".94" d="M127.463 109.236h748.683v716.787H127.463z" opacity=".5"/></clipPath><clipPath id="clipPath1777" clipPathUnits="userSpaceOnUse"><path id="rect1779" fill="#00f" fill-rule="evenodd" stroke-width=".94" d="M127.463 109.236h748.683v716.787H127.463z" opacity=".5"/></clipPath><clipPath id="clipPath1781" clipPathUnits="userSpaceOnUse"><path id="rect1783" fill="#00f" fill-rule="evenodd" stroke-width=".94" d="M127.463 109.236h748.683v716.787H127.463z" opacity=".5"/></clipPath><clipPath id="clipPath1785" clipPathUnits="userSpaceOnUse"><path id="rect1787" fill="#00f" fill-rule="evenodd" stroke-width=".94" d="M127.463 109.236h748.683v716.787H127.463z" opacity=".5"/></clipPath></defs><style id="style625" type="text/css">.st0{fill:#262626}</style><g id="g643" clip-path="url(#clipPath1785)" transform="translate(-160.5 -120.886)"><g id="g641"><path id="path627" d="M263.66 718.51h-20.28l-1.42-12.1c-6.76 10.5-17.61 14.05-28.28 14.05-25.79 0-45.18-17.08-45.18-45.89 0-30.24 19.03-45.89 44.65-45.89 9.25 0 23.66 4.98 28.82 14.05v-48.56h21.7v124.34zm-73.47-43.94c0 15.3 11.03 25.79 24.9 25.79 13.7 0 25.44-9.96 25.44-25.79 0-15.3-11.74-25.61-25.44-25.61-13.87-.01-24.9 9.78-24.9 25.61z" class="st0"/><path id="path629" d="M329.11 701.07c8 0 18.5-3.02 23.48-8.18l13.87 13.7c-9.25 9.61-24.37 14.23-37.71 14.23-30.24 0-48.2-18.68-48.2-46.78 0-26.68 18.14-45.89 46.6-45.89 29.35 0 47.67 18.14 44.29 54.25h-68.48c1.42 10.85 10.85 18.67 26.15 18.67zm-1.25-53.72c-11.74 0-21.35 5.69-24.55 17.08h47.32c-1.42-11.38-10.31-17.08-22.77-17.08z" class="st0"/><path id="path631" d="M423.74 646.29c-10.32 0-16.01 3.2-16.01 8.72 0 5.69 5.16 8.89 16.36 9.6 16.54 1.07 37.53 4.8 37.53 28.11 0 15.48-12.63 28.82-37.71 28.82-13.87 0-27.75-2.31-40.56-15.65l10.67-15.48c6.23 6.94 20.46 12.1 30.24 12.27 8.18.18 15.83-4.09 15.83-10.5 0-6.05-4.98-8.54-17.43-9.25-16.54-1.25-36.29-7.29-36.29-27.22 0-20.28 20.99-27.39 37-27.39 13.7 0 24.01 2.67 34.15 11.56l-12.1 14.23c-6.21-5.87-13.32-7.82-21.68-7.82z" class="st0"/><path id="path633" d="M496.66 666.03l29.53-35.22h25.97v1.24l-35.75 40.02 40.73 44.83v1.6H531l-34.33-39.67v39.67h-21.7V594.17h21.7v71.86z" class="st0"/><path id="path635" d="M597.7 630.99h24.19v18.68h-24.37v37.89c0 8.36 4.63 12.45 11.38 12.45 3.38 0 7.29-1.07 10.5-2.67l6.05 18.5c-6.23 2.49-11.38 3.56-17.97 3.74-19.03.71-31.48-10.14-31.48-32.02v-37.89h-16.36v-18.68H576V608.4l21.7-2.31z" class="st0"/><path id="path637" d="M725.23 674.75c0 25.26-17.25 45.72-45.71 45.72s-45.54-20.46-45.54-45.72c0-25.08 17.43-45.72 45.36-45.72s45.89 20.64 45.89 45.72zm-69.55 0c0 13.34 8 25.79 23.84 25.79 15.83 0 23.84-12.45 23.84-25.79 0-13.16-9.25-25.97-23.84-25.97-15.66 0-23.84 12.8-23.84 25.97z" class="st0"/><path id="path639" d="M740.17 630.81h20.28l1.42 12.1c6.76-9.78 18.5-14.05 28.46-14.05 27.04 0 45 20.1 45 45.89 0 25.61-16.19 45.89-44.29 45.89-9.25 0-22.95-2.85-29.17-12.45v46.96h-21.7zm73.46 43.94c0-13.7-9.25-24.9-24.9-24.9-15.65 0-24.9 11.21-24.9 24.9 0 13.69 10.14 24.9 24.9 24.9 14.76 0 24.9-11.21 24.9-24.9z" class="st0"/></g></g><g id="g665" clip-path="url(#clipPath1781)" transform="translate(-160.5 -120.886)"><path id="path645" d="M187.59 782.18l15.21-18.14h13.38v.64l-18.41 20.61 20.98 23.09v.82h-13.47l-17.68-20.43v20.43h-11.18v-64.04h11.18v37.02z" class="st0"/><path id="path647" d="M235.32 787.68c0 6.87 3.76 12.09 10.9 12.09 6.87 0 11.54-5.77 11.54-12.64v-23.09h11.09v45.26h-9.99l-.73-6.14c-4.67 4.58-8.98 6.78-15.3 6.78-10.81 0-18.69-8.15-18.69-22.17v-23.73h11.18z" class="st0"/><path id="path649" d="M289.92 770.18c2.66-4.67 10.08-7.24 14.84-7.24 13.19 0 23 8.06 23 23.64 0 14.84-9.99 23.64-23.27 23.64-5.5 0-11.09-1.83-14.57-7.24l-.73 6.23h-10.44v-64.04h11.18v25.01zm.73 16.4c0 8.15 6.05 13.28 13.1 13.28 7.15 0 12.83-5.41 12.83-13.28 0-8.15-5.68-13.19-12.83-13.19-7.05 0-13.1 5.31-13.1 13.19z" class="st0"/><path id="path651" d="M359 800.23c4.12 0 9.53-1.56 12.09-4.21l7.15 7.05c-4.76 4.95-12.55 7.33-19.42 7.33-15.58 0-24.83-9.62-24.83-24.1 0-13.74 9.35-23.64 24-23.64 15.12 0 24.55 9.35 22.81 27.94h-35.27c.73 5.6 5.59 9.63 13.47 9.63zm-.64-27.67c-6.05 0-10.99 2.93-12.64 8.79h24.37c-.74-5.85-5.32-8.79-11.73-8.79z" class="st0"/><path id="path653" d="M400.59 769.27c3.48-5.59 8.15-6.41 12.73-6.41 4.67 0 9.16 1.83 11.64 4.31l-5.04 9.71c-2.29-1.92-4.4-2.93-8.06-2.93-5.86 0-11.27 3.12-11.27 11.45v23.82h-11.18v-45.17h10.35z" class="st0"/><path id="path655" d="M462.43 785.57c0-6.87-3.76-12.09-10.9-12.09-6.87 0-11.54 5.77-11.54 12.64v23.09H428.9v-45.26h9.99l.73 6.14c4.58-4.49 9.16-6.78 14.84-6.78 10.63 0 19.15 7.97 19.15 22.17v23.73h-11.18z" class="st0"/><path id="path657" d="M506.22 800.23c4.12 0 9.53-1.56 12.09-4.21l7.15 7.05c-4.76 4.95-12.55 7.33-19.42 7.33-15.58 0-24.83-9.62-24.83-24.1 0-13.74 9.35-23.64 24-23.64 15.12 0 24.55 9.35 22.81 27.94h-35.27c.73 5.6 5.59 9.63 13.47 9.63zm-.64-27.67c-6.05 0-10.99 2.93-12.64 8.79h24.37c-.74-5.85-5.32-8.79-11.73-8.79z" class="st0"/><path id="path659" d="M550.47 764.13h12.46v9.62h-12.55v19.52c0 4.31 2.38 6.41 5.86 6.41 1.74 0 3.76-.55 5.41-1.37l3.12 9.53c-3.21 1.28-5.86 1.83-9.25 1.92-9.8.37-16.22-5.22-16.22-16.49v-19.52h-8.43v-9.62h8.43V752.5l11.18-1.19v12.82z" class="st0"/><path id="path661" d="M594.26 800.23c4.12 0 9.53-1.56 12.09-4.21l7.15 7.05c-4.76 4.95-12.55 7.33-19.42 7.33-15.58 0-24.83-9.62-24.83-24.1 0-13.74 9.34-23.64 24-23.64 15.12 0 24.55 9.35 22.81 27.94h-35.27c.73 5.6 5.59 9.63 13.47 9.63zm-.64-27.67c-6.05 0-10.99 2.93-12.64 8.79h24.37c-.74-5.85-5.32-8.79-11.73-8.79z" class="st0"/><path id="path663" d="M643 772.01c-5.31 0-8.25 1.65-8.25 4.49 0 2.93 2.66 4.58 8.43 4.95 8.52.55 19.33 2.47 19.33 14.48 0 7.97-6.5 14.84-19.42 14.84-7.15 0-14.29-1.19-20.89-8.06l5.5-7.97c3.21 3.57 10.54 6.23 15.57 6.32 4.21.09 8.15-2.11 8.15-5.41 0-3.12-2.56-4.4-8.98-4.76-8.52-.64-18.69-3.76-18.69-14.02 0-10.44 10.81-14.11 19.06-14.11 7.05 0 12.37 1.37 17.59 5.96l-6.23 7.33c-3.2-3.03-6.87-4.04-11.17-4.04z" class="st0"/></g><path id="path667" d="M715.04 349.19c0-3.59 0-3.59-3.58-3.59H312.12c-1.56 0-3.11-.06-4.67-.01-.92.03-1.48.37-1.47 1.56.07 6.67.05 13.34.01 20-.01 1.14.4 1.49 1.48 1.46 2.41-.05 4.82-.01 7.24-.01 3.5 0 3.5 0 3.5 3.45v203.5c0 .71.02 1.42 0 2.13-.03 1.16.43 1.52 1.65 1.5 5.18-.07 10.36-.09 15.53.05 2.03.05 2.76-.57 2.73-2.65-.12-6.67-.1-13.34-.1-20.01.02-61.94.05-123.89.02-185.83 0-1.83.56-2.18 2.27-2.18 19.57.01 39.15-.11 58.72-.1 29.52.01 59.03.09 88.55.14 3.33.01 6.66.06 9.99-.04 1.52-.05 2.08.3 2.07 1.97-.05 7.23.1 14.47.1 21.7-.01 11.99-.11 23.98-.13 35.97-.02 14.47.08 28.94-.02 43.41-.1 14.61.29 29.22.07 43.83-.18 12.48.07 24.97.08 37.46 0 7.79-.1 15.59-.13 23.38-.02 3.58-.12 2.91 2.98 2.91 59.96.01 119.92.01 179.87.01 2.99 0 2.99 0 2.99-2.97 0-68.33.01-136.66-.05-204.99 0-2.23.63-2.72 2.74-2.69 8.29.12 16.59.02 24.89.07 1.5.01 2.1-.27 2.06-1.98-.13-5.82-.05-11.64-.05-17.45zm-69.63 197.36c-17.59.02-35.18.01-52.77.01H540.3c-6.58 0-8.9-2.36-8.91-8.99-.02-10.5-.06-20.99-.06-31.49 0-5.65.04-11.3.07-16.95.02-4.8 2.6-7.71 7.34-7.81 6.73-.15 13.48-.08 20.21-.01 2.31.02 4.2 1.09 5.65 2.94 3.33 4.23 6.77 8.38 10.01 12.68 2.3 3.04 5.17 4.24 8.97 4.15 7.44-.19 14.89-.12 22.34-.03 3.18.04 5.53-1.13 7.46-3.65 3.36-4.39 6.91-8.63 10.31-12.99 1.71-2.19 3.88-3.16 6.62-3.14 5.11.04 10.21-.01 15.32.02 5.48.03 8.09 2.64 8.09 8.08.01 16.31 0 32.62 0 48.94 0 5.78-2.44 8.24-8.31 8.24zm8.31-102.02c0 5.1-2.66 7.73-7.72 7.73H539.16c-5 0-7.76-2.74-7.77-7.75-.03-14.03-.05-28.07-.07-42.1 0-2.73-.01-5.46.08-8.19.13-4.35 2.95-7.13 7.3-7.16 6.6-.05 13.2.02 19.79-.03 2.63-.02 4.6 1.05 6.2 3.09 3.45 4.41 7 8.74 10.44 13.16 1.83 2.36 4.08 3.49 7.12 3.45 7.94-.1 15.89-.09 23.84 0 3.11.04 5.43-1.14 7.3-3.57 3.29-4.26 6.69-8.44 10-12.7 1.77-2.28 3.99-3.47 6.93-3.44 5.11.06 10.22-.01 15.32.02 5.52.04 8.07 2.58 8.08 8.1.01 16.47.01 32.93 0 49.39z" class="st0" clip-path="url(#clipPath1777)" transform="translate(-160.5 -120.886)"/><path id="path669" d="M606.39 425.4c-4.6.1-9.21.03-13.81.03-4.74 0-9.49.04-14.23-.02-1.66-.02-2.29.67-2.22 2.3.08 1.83.07 3.68-.01 5.51-.07 1.56.45 2.44 2.13 2.44 9.56-.01 19.11-.02 28.67.01 1.58.01 2.15-.72 2.12-2.2-.04-1.84-.08-3.69.01-5.52.1-1.97-.75-2.59-2.66-2.55z" class="st0" clip-path="url(#clipPath1773)" transform="translate(-160.5 -120.886)"/><path id="path671" d="M604.76 522.86c-.35.02-.71.01-1.06.01-8.43-.02-16.87-.02-25.3-.09-1.75-.01-2.41.66-2.29 2.4.12 1.69.12 3.4.01 5.08-.11 1.75.36 2.62 2.34 2.57 4.68-.1 9.36-.03 14.03-.03h13.4c3.11 0 3.1 0 3.01-3.21-.02-.78.02-1.56.08-2.33.33-4.43.13-4.64-4.22-4.4z" class="st0" clip-path="url(#clipPath1769)" transform="translate(-160.5 -120.886)"/><g id="g1188" clip-path="url(#clipPath1765)" transform="translate(-160.5 -120.886)"><g id="g1184"><linearGradient id="SVGID_1_" x1="655.002" x2="655.018" y1="244.415" y2="244.415" gradientUnits="userSpaceOnUse"><stop id="stop673" offset="0" stop-color="#29abe2"/><stop id="stop675" offset="1" stop-color="#0071bc"/></linearGradient><path id="path678" fill="url(#SVGID_1_)" d="M655 244.42l.02-.02c-.01.01-.01.02-.02.02z"/><linearGradient id="SVGID_2_" x1="654.955" x2="654.997" y1="244.452" y2="244.452" gradientUnits="userSpaceOnUse"><stop id="stop680" offset="0" stop-color="#29abe2"/><stop id="stop682" offset="1" stop-color="#0071bc"/></linearGradient><path id="path685" fill="url(#SVGID_2_)" d="M654.95 244.47l.04-.04c-.01.02-.03.04-.04.04z"/><linearGradient id="SVGID_3_" x1="418.691" x2="419.518" y1="340.269" y2="340.269" gradientUnits="userSpaceOnUse"><stop id="stop687" offset="0" stop-color="#29abe2"/><stop id="stop689" offset="1" stop-color="#0071bc"/></linearGradient><path id="path692" fill="url(#SVGID_3_)" d="M419.52 340.33c-.27-.12-.55-.12-.83-.11.09 0 .18.01.27.01.19.01.37.06.56.1z"/><linearGradient id="SVGID_4_" x1="647.213" x2="647.213" y1="314.356" y2="314.356" gradientUnits="userSpaceOnUse"><stop id="stop694" offset="0" stop-color="#29abe2"/><stop id="stop696" offset="1" stop-color="#0071bc"/></linearGradient><path id="path699" fill="url(#SVGID_4_)" d="M647.21 314.36s0-.01 0 0z"/><linearGradient id="SVGID_5_" x1="471.217" x2="471.218" y1="330.914" y2="330.914" gradientUnits="userSpaceOnUse"><stop id="stop701" offset="0" stop-color="#29abe2"/><stop id="stop703" offset="1" stop-color="#0071bc"/></linearGradient><path id="path706" fill="url(#SVGID_5_)" d="M471.22 330.92v-.01.01z"/><linearGradient id="SVGID_6_" x1="419.518" x2="419.518" y1="340.325" y2="340.325" gradientUnits="userSpaceOnUse"><stop id="stop708" offset="0" stop-color="#29abe2"/><stop id="stop710" offset="1" stop-color="#0071bc"/></linearGradient><linearGradient id="SVGID_7_" x1="417.733" x2="419.518" y1="340.637" y2="340.637" gradientUnits="userSpaceOnUse"><stop id="stop715" offset="0" stop-color="#29abe2"/><stop id="stop717" offset="1" stop-color="#0071bc"/></linearGradient><path id="path720" fill="url(#SVGID_7_)" d="M418.43 340.35c.36-.02.73-.02 1.09-.02-.18-.03-.37-.09-.55-.09-.09 0-.18-.01-.27-.01-.13.01-.25.02-.37.02-.76.04-.71.38-.24.81-.19-.66-.19-.69.34-.71z"/><linearGradient id="SVGID_8_" x1="368.413" x2="368.733" y1="274.47" y2="274.47" gradientUnits="userSpaceOnUse"><stop id="stop722" offset="0" stop-color="#29abe2"/><stop id="stop724" offset="1" stop-color="#0071bc"/></linearGradient><path id="path727" fill="url(#SVGID_8_)" d="M368.41 274.2c.09.18.18.37.26.55.18-.31-.08-.41-.26-.55z"/><linearGradient id="SVGID_9_" x1="654.433" x2="655.026" y1="244.26" y2="244.26" gradientUnits="userSpaceOnUse"><stop id="stop729" offset="0" stop-color="#29abe2"/><stop id="stop731" offset="1" stop-color="#0071bc"/></linearGradient><path id="path734" fill="url(#SVGID_9_)" d="M654.52 244.2c.14.11.23.28.43.28l.01-.01.04-.04.01-.01.02-.02.01-.01c-.03-.21-.24-.24-.37-.35-.04-.03-.13-.01-.19.02-.08.04-.04.08.04.14z"/><linearGradient id="SVGID_10_" x1="655.018" x2="655.023" y1="244.404" y2="244.404" gradientUnits="userSpaceOnUse"><stop id="stop736" offset="0" stop-color="#29abe2"/><stop id="stop738" offset="1" stop-color="#0071bc"/></linearGradient><path id="path741" fill="url(#SVGID_10_)" d="M655.02 244.4z"/><linearGradient id="SVGID_11_" x1="654.997" x2="655.002" y1="244.427" y2="244.427" gradientUnits="userSpaceOnUse"><stop id="stop743" offset="0" stop-color="#29abe2"/><stop id="stop745" offset="1" stop-color="#0071bc"/></linearGradient><path id="path748" fill="url(#SVGID_11_)" d="M655 244.43z"/><linearGradient id="SVGID_12_" x1="654.949" x2="654.955" y1="244.478" y2="244.478" gradientUnits="userSpaceOnUse"><stop id="stop750" offset="0" stop-color="#29abe2"/><stop id="stop752" offset="1" stop-color="#0071bc"/></linearGradient><path id="path755" fill="url(#SVGID_12_)" d="M654.95 244.48z"/><linearGradient id="SVGID_13_" x1="439.761" x2="444.062" y1="344.863" y2="344.863" gradientUnits="userSpaceOnUse"><stop id="stop757" offset="0" stop-color="#29abe2"/><stop id="stop759" offset="1" stop-color="#0071bc"/></linearGradient><path id="path762" fill="url(#SVGID_13_)" d="M440.84 346.4c.22.05.45.07.64.09.89-.07 1.68-.27 2.24-.98.71-.9.26-2.05-.85-2.23-.45-.07-.91-.07-1.35.04-.61.14-1.13.43-1.48.96-.59.86-.2 1.88.8 2.12z"/><linearGradient id="SVGID_14_" x1="648.71" x2="653.409" y1="322.892" y2="322.892" gradientUnits="userSpaceOnUse"><stop id="stop764" offset="0" stop-color="#29abe2"/><stop id="stop766" offset="1" stop-color="#0071bc"/></linearGradient><path id="path769" fill="url(#SVGID_14_)" d="M651.78 320.32c-.39-.02-.77.03-1.11.22-1.22.68-1.9 1.71-1.96 3 .03 1.42 1.15 2.24 2.35 1.85 1.3-.42 2.45-2.12 2.34-3.47-.07-.96-.68-1.55-1.62-1.6zm-.88 4.13c-.78.29-1.51-.3-1.33-1.11.21-.93.73-1.65 1.63-2.04.72-.31 1.28.07 1.29.87 0 .93-.71 1.96-1.59 2.28z"/><linearGradient id="SVGID_15_" x1="639.109" x2="644.069" y1="316.39" y2="316.39" gradientUnits="userSpaceOnUse"><stop id="stop771" offset="0" stop-color="#29abe2"/><stop id="stop773" offset="1" stop-color="#0071bc"/></linearGradient><path id="path776" fill="url(#SVGID_15_)" d="M641.19 318.73c1.15-.22 2.01-.84 2.59-1.85.2-.34.28-.7.28-1.09.02-1.1-.64-1.77-1.76-1.76-1.24 0-2.66 1.01-3.07 2.19-.16.48-.17.97-.05 1.46.12.47.41.8.88.96.38.1.75.16 1.13.09zm-1.14-1.67c-.01-1.21 1.37-2.36 2.55-2.12.45.09.73.57.63 1.04-.22.98-1.51 1.98-2.52 1.96-.42 0-.66-.32-.66-.88z"/><linearGradient id="SVGID_16_" x1="650.329" x2="654.452" y1="306.242" y2="306.242" gradientUnits="userSpaceOnUse"><stop id="stop778" offset="0" stop-color="#29abe2"/><stop id="stop780" offset="1" stop-color="#0071bc"/></linearGradient><path id="path783" fill="url(#SVGID_16_)" d="M652.21 308.44c1.78-.25 2.68-2.13 2.03-3.73-.19-.46-.58-.69-1.08-.69-.74.07-1.41.29-1.97.8-.63.57-.93 1.27-.85 2.13.11 1.05.83 1.64 1.87 1.49zm-.94-1.89c0-.97.57-1.59 1.52-1.65.48-.03.81.23.87.7.12.96-.52 1.83-1.46 2-.56.1-.86-.13-.92-.71-.02-.11-.01-.23-.01-.34z"/><linearGradient id="SVGID_17_" x1="658.464" x2="662.752" y1="312.37" y2="312.37" gradientUnits="userSpaceOnUse"><stop id="stop785" offset="0" stop-color="#29abe2"/><stop id="stop787" offset="1" stop-color="#0071bc"/></linearGradient><path id="path790" fill="url(#SVGID_17_)" d="M660.78 310.2c-1.14.23-1.91.92-2.23 2.05-.21.72-.05 1.38.5 1.88.56.52 1.25.54 1.93.3.96-.34 1.77-1.56 1.77-2.6-.01-1.12-.85-1.85-1.97-1.63zm-.58 3.42c-.39.01-.65-.16-.76-.54-.05-.18-.09-.38-.05-.55.19-.74.65-1.27 1.39-1.5.6-.18 1.05.17 1.06.8.02 1-.7 1.77-1.64 1.79z"/><linearGradient id="SVGID_18_" x1="367.655" x2="371.585" y1="294.237" y2="294.237" gradientUnits="userSpaceOnUse"><stop id="stop792" offset="0" stop-color="#29abe2"/><stop id="stop794" offset="1" stop-color="#0071bc"/></linearGradient><path id="path797" fill="url(#SVGID_18_)" d="M371.58 295.12c-.11-1.33-.77-2.36-1.95-3.02-.29-.16-.63-.25-.99-.16-.68.17-.99.6-.99 1.45 0 1.22.91 2.6 2.03 3.06 1.04.42 1.99-.21 1.9-1.33zm-1.5.42c-.39-.08-.69-.29-.93-.59-.35-.42-.52-.91-.63-1.43-.08-.39.32-.74.7-.64.33.09.62.27.84.54.4.48.57 1.05.61 1.51 0 .51-.23.68-.59.61z"/><linearGradient id="SVGID_19_" x1="453.797" x2="457.89" y1="340.517" y2="340.517" gradientUnits="userSpaceOnUse"><stop id="stop799" offset="0" stop-color="#29abe2"/><stop id="stop801" offset="1" stop-color="#0071bc"/></linearGradient><path id="path804" fill="url(#SVGID_19_)" d="M456.91 338.74c-1.24-.36-2.92.74-3.1 2.02-.11.82.37 1.52 1.09 1.6 1.04.11 2.38-.65 2.82-1.61.11-.25.18-.5.16-.75-.01-.66-.35-1.08-.97-1.26zm.08 1.45c-.16.71-.8 1.22-1.56 1.25-.49.02-.77-.35-.61-.82.24-.74 1.01-1.18 1.8-1.03.25.06.43.33.37.6z"/><linearGradient id="SVGID_20_" x1="375.029" x2="378.947" y1="304.281" y2="304.281" gradientUnits="userSpaceOnUse"><stop id="stop806" offset="0" stop-color="#29abe2"/><stop id="stop808" offset="1" stop-color="#0071bc"/></linearGradient><path id="path811" fill="url(#SVGID_20_)" d="M378.94 305.12c-.08-1.3-.72-2.33-1.87-2.95-1.02-.56-2.08.06-2.04 1.24-.02 1.18.87 2.58 1.92 3.03 1.12.48 2.07-.12 1.99-1.32zm-1.37.64c-.98-.26-1.64-1.17-1.61-2.27.01-.07.02-.18.04-.29.05-.23.28-.36.52-.29.49.15.89.44 1.15.89.29.5.48 1.04.4 1.63-.04.25-.26.4-.5.33z"/><linearGradient id="SVGID_21_" x1="393.23" x2="397.789" y1="308.711" y2="308.711" gradientUnits="userSpaceOnUse"><stop id="stop813" offset="0" stop-color="#29abe2"/><stop id="stop815" offset="1" stop-color="#0071bc"/></linearGradient><path id="path818" fill="url(#SVGID_21_)" d="M393.23 308.04c.01.31.08.61.25.86.67 1.06 1.63 1.65 2.42 1.7 1.87.06 2.12-.81 1.75-1.85-.37-1.04-1.86-2.18-3.43-1.9-.65.12-1 .54-.99 1.19zm1.34-.45c.92-.03 2.08.77 2.38 1.64.1.3-.11.62-.44.64-.94.06-2.08-.73-2.35-1.63-.11-.33.08-.64.41-.65z"/><linearGradient id="SVGID_22_" x1="369.683" x2="373.122" y1="279.705" y2="279.705" gradientUnits="userSpaceOnUse"><stop id="stop820" offset="0" stop-color="#29abe2"/><stop id="stop822" offset="1" stop-color="#0071bc"/></linearGradient><path id="path825" fill="url(#SVGID_22_)" d="M371.03 277.19c-.33-.02-.63.14-.86.41-.25.3-.41.64-.46 1.02-.15 1.2.2 2.25.97 3.16.41.48.98.55 1.55.26.4-.2.63-.54.75-.96.37-1.33-.03-2.46-.9-3.46-.26-.29-.62-.42-1.05-.43zm1.08 3.77c-.06.2-.24.28-.46.24-.5-.1-.81-.43-.91-.91-.08-.37-.09-.75-.11-.99v-.38c.01-.26-.02-.54.26-.71.22-.13.67.01.88.34.47.76.6 1.57.34 2.41z"/><linearGradient id="SVGID_23_" x1="375.25" x2="379.081" y1="290.125" y2="290.125" gradientUnits="userSpaceOnUse"><stop id="stop827" offset="0" stop-color="#29abe2"/><stop id="stop829" offset="1" stop-color="#0071bc"/></linearGradient><path id="path832" fill="url(#SVGID_23_)" d="M375.26 289.25c.01 1.11.87 2.5 1.81 3 .75.4 1.89.18 2-1.07.11-1.22-.74-2.74-1.95-3.22-.96-.38-1.96-.08-1.86 1.29zm1.39-.52c.86.3 1.5 1.19 1.5 2.15-.02.09-.03.25-.09.39-.08.2-.22.3-.45.23-.33-.1-.64-.24-.88-.5-.46-.49-.68-1.09-.74-1.75-.03-.41.29-.65.66-.52z"/><linearGradient id="SVGID_24_" x1="465.719" x2="469.427" y1="332.905" y2="332.905" gradientUnits="userSpaceOnUse"><stop id="stop834" offset="0" stop-color="#29abe2"/><stop id="stop836" offset="1" stop-color="#0071bc"/></linearGradient><path id="path839" fill="url(#SVGID_24_)" d="M468.17 330.9c-.11 0-.23 0-.34.02-1.16.16-2.29 1.71-2.09 2.86.13.73.59 1.1 1.34 1.12.62.02 1.11-.24 1.51-.67.51-.54.78-1.2.82-1.92.11-.95-.48-1.39-1.24-1.41zm.48 1.44c-.05.77-.68 1.54-1.41 1.73-.25.07-.55-.12-.6-.37-.16-.86.68-1.89 1.53-1.88.27.01.5.26.48.52z"/><linearGradient id="SVGID_25_" x1="658.96" x2="662.751" y1="293.919" y2="293.919" gradientUnits="userSpaceOnUse"><stop id="stop841" offset="0" stop-color="#29abe2"/><stop id="stop843" offset="1" stop-color="#0071bc"/></linearGradient><path id="path846" fill="url(#SVGID_25_)" d="M660.47 296.16c.05-.01.2-.03.34-.08 1.05-.36 2.05-1.98 1.93-3.1-.11-.98-1.09-1.57-2.01-1.2-1.17.46-2.03 2.19-1.69 3.39.19.68.64 1.02 1.43.99zm.67-3.56c.3-.09.61.12.67.43.12.72-.32 1.69-.94 2.04-.26.15-.54.3-.84.1-.25-.17-.26-.44-.28-.71 0-.83.61-1.64 1.39-1.86z"/><linearGradient id="SVGID_26_" x1="667.051" x2="670.763" y1="299.938" y2="299.938" gradientUnits="userSpaceOnUse"><stop id="stop848" offset="0" stop-color="#29abe2"/><stop id="stop850" offset="1" stop-color="#0071bc"/></linearGradient><path id="path853" fill="url(#SVGID_26_)" d="M669.23 297.8c-.28-.01-.57.1-.84.24-1.05.55-1.61 2.03-1.22 3.15.26.75.99 1.08 1.75.78.82-.32 1.36-.94 1.69-1.75.2-.48.19-.96.01-1.44-.22-.65-.69-.99-1.39-.98zm-.67 3.35c-.29.06-.63-.15-.71-.44-.2-.71.27-1.68.97-1.99.61-.28 1.05.01 1.07.69.03.87-.53 1.59-1.33 1.74z"/><linearGradient id="SVGID_27_" x1="362.263" x2="365.575" y1="283.072" y2="283.072" gradientUnits="userSpaceOnUse"><stop id="stop855" offset="0" stop-color="#29abe2"/><stop id="stop857" offset="1" stop-color="#0071bc"/></linearGradient><path id="path860" fill="url(#SVGID_27_)" d="M365.44 284.41c.38-1.33-.06-2.39-.97-3.31-.59-.6-1.52-.43-1.92.31-.22.41-.3.86-.28 1.32 0 .11-.01.23 0 .34.1.78.4 1.46 1.01 1.98.64.55 1.83.54 2.16-.64zm-1.75-.1c-.13-.13-.25-.29-.32-.45-.23-.57-.25-1.18-.15-1.78.05-.28.32-.41.61-.33.35.11.59.34.7.68.12.36.2.73.19 1.11-.01.15 0 .31-.03.45-.05.22-.11.45-.37.51-.25.06-.47-.03-.63-.19z"/><linearGradient id="SVGID_28_" x1="384.456" x2="388.753" y1="312.626" y2="312.626" gradientUnits="userSpaceOnUse"><stop id="stop862" offset="0" stop-color="#29abe2"/><stop id="stop864" offset="1" stop-color="#0071bc"/></linearGradient><path id="path867" fill="url(#SVGID_28_)" d="M388.32 312.14c-.51-.65-1.18-1.06-1.98-1.25-.34-.08-.68-.07-1.01.02-.65.17-1 .73-.83 1.39.05.22.14.44.26.62.61.91 1.49 1.37 2.54 1.49 1.21.03 1.78-.83 1.26-1.88-.07-.13-.14-.27-.24-.39zm-.52 1.28c-.12.16-.31.19-.42.18-.97-.09-1.7-.66-1.96-1.45-.07-.21.12-.49.34-.48.88.06 1.6.42 2.05 1.21.1.17.11.38-.01.54z"/><linearGradient id="SVGID_29_" x1="399.039" x2="402.979" y1="343.866" y2="343.866" gradientUnits="userSpaceOnUse"><stop id="stop869" offset="0" stop-color="#29abe2"/><stop id="stop871" offset="1" stop-color="#0071bc"/></linearGradient><path id="path874" fill="url(#SVGID_29_)" d="M401.99 342.47c-.75-.22-1.5-.14-2.2.21-.56.28-.81.84-.74 1.53.06.62.49.92 1.01 1.08.25.08.52.07.59.08.74.01 1.25-.11 1.7-.41.53-.36.69-.89.6-1.49-.07-.55-.46-.85-.96-1zm-.38 1.87c-.35.2-.73.17-1.1.12-.24-.03-.41-.18-.46-.43-.05-.24.12-.56.37-.63.25-.07.51-.1.64-.12.22.01.29.01.37.02.35.03.6.2.6.4-.02.29-.18.5-.42.64z"/><linearGradient id="SVGID_30_" x1="413.049" x2="416.97" y1="344.991" y2="344.991" gradientUnits="userSpaceOnUse"><stop id="stop876" offset="0" stop-color="#29abe2"/><stop id="stop878" offset="1" stop-color="#0071bc"/></linearGradient><path id="path881" fill="url(#SVGID_30_)" d="M415.89 343.61c-.26-.06-.53-.05-.79-.07-.43 0-.84.07-1.22.26-.6.3-.92.93-.82 1.61.08.54.39.81 1.11.97.11.02.22.06.33.07.62.05 1.22-.06 1.76-.36.56-.31.78-.88.67-1.57-.09-.59-.53-.8-1.04-.91z"/><linearGradient id="SVGID_31_" x1="426.768" x2="430.695" y1="345.941" y2="345.941" gradientUnits="userSpaceOnUse"><stop id="stop883" offset="0" stop-color="#29abe2"/><stop id="stop885" offset="1" stop-color="#0071bc"/></linearGradient><path id="path888" fill="url(#SVGID_31_)" d="M430.13 344.73c-.94-.41-1.87-.34-2.74.17-.55.33-.68.9-.6 1.5.08.59.52.81 1.03.93.22.05.45.06.68.08.39.01.76-.07 1.13-.19.77-.26 1.14-.87 1.06-1.68-.04-.37-.23-.66-.56-.81z"/><linearGradient id="SVGID_32_" x1="367.509" x2="370.376" y1="269.193" y2="269.193" gradientUnits="userSpaceOnUse"><stop id="stop890" offset="0" stop-color="#29abe2"/><stop id="stop892" offset="1" stop-color="#0071bc"/></linearGradient><path id="path895" fill="url(#SVGID_32_)" d="M368.28 271.03c.8.56 1.71.24 1.96-.68.22-.83.17-1.65-.14-2.45-.23-.6-.6-.83-1.23-.82-.55.01-.92.26-1.12.8-.29.77-.33 1.55-.06 2.34.11.34.3.61.59.81zm.17-2.23c.01-.14.06-.3.13-.43.1-.18.28-.27.47-.26.22.01.33.18.34.39.02.26 0 .53 0 .8h.02c-.01.19-.01.38-.04.57-.03.21-.16.35-.37.36-.21.01-.35-.12-.44-.3-.17-.37-.12-.75-.11-1.13z"/><linearGradient id="SVGID_33_" x1="361.072" x2="363.945" y1="273.044" y2="273.044" gradientUnits="userSpaceOnUse"><stop id="stop897" offset="0" stop-color="#29abe2"/><stop id="stop899" offset="1" stop-color="#0071bc"/></linearGradient><path id="path902" fill="url(#SVGID_33_)" d="M361.53 274.69c.51.69 1.57.65 2.04-.06.31-.46.33-1 .38-1.54-.07-.51-.07-1.05-.34-1.53-.27-.49-.7-.68-1.23-.66-.55.02-.92.3-1.1.83-.24.74-.26 1.49-.09 2.25.06.25.18.5.34.71zm.57-2.51c.07-.13.17-.25.35-.26.16-.01.33.04.4.18.34.6.36 1.23.17 1.88-.09.31-.51.39-.75.15-.1-.1-.21-.24-.24-.37-.05-.22-.05-.45-.06-.58.02-.41-.03-.73.13-1z"/><linearGradient id="SVGID_34_" x1="366.84" x2="369.622" y1="258.966" y2="258.966" gradientUnits="userSpaceOnUse"><stop id="stop904" offset="0" stop-color="#29abe2"/><stop id="stop906" offset="1" stop-color="#0071bc"/></linearGradient><path id="path909" fill="url(#SVGID_34_)" d="M368.06 256.86c-.55.03-.89.36-1.06.88-.14.41-.16.82-.14 1.34-.04.36.01.81.18 1.24.21.53.66.71 1.17.75.5.03.89-.19 1.1-.65.44-.96.43-1.91-.04-2.85-.25-.49-.68-.74-1.21-.71zm.25 3.37c-.85-.85-.95-1.39-.45-2.22.07-.12.17-.26.35-.23.16.03.25.15.33.28.41.74.31 1.43-.23 2.17z"/><linearGradient id="SVGID_35_" x1="360.342" x2="363.142" y1="262.883" y2="262.883" gradientUnits="userSpaceOnUse"><stop id="stop911" offset="0" stop-color="#29abe2"/><stop id="stop913" offset="1" stop-color="#0071bc"/></linearGradient><path id="path916" fill="url(#SVGID_35_)" d="M361.76 265.01c.55.01.93-.26 1.16-.76.18-.39.25-.79.21-1.22 0-.23.03-.46-.01-.68-.05-.3-.13-.6-.26-.87-.25-.51-.88-.8-1.44-.71-.56.09-.86.47-.96.99-.17.83-.2 1.66.15 2.46.22.51.61.77 1.15.79zm-.49-2.92c.09-.19.25-.27.46-.26.21.01.37.14.42.32.07.25.08.52.11.73-.03.28-.04.51-.09.73-.03.15-.15.27-.3.31-.2.04-.42-.01-.5-.18-.23-.53-.35-1.09-.1-1.65z"/><linearGradient id="SVGID_36_" x1="670.212" x2="673.713" y1="287.682" y2="287.682" gradientUnits="userSpaceOnUse"><stop id="stop918" offset="0" stop-color="#29abe2"/><stop id="stop920" offset="1" stop-color="#0071bc"/></linearGradient><path id="path923" fill="url(#SVGID_36_)" d="M672.52 285.4c-.72-.17-1.28.07-1.74.77-.53.8-.66 1.68-.49 2.62.11.58.44.97.99 1.14.59.18 1.12.06 1.57-.4.62-.64.84-1.43.87-2.3-.02-.14-.02-.29-.05-.44-.13-.67-.41-1.22-1.15-1.39zm.01 3.14c-.05.13-.17.25-.28.36-.23.22-.63.3-.84.17-.25-.14-.36-.38-.39-.66-.01-.11 0-.23 0-.47.06-.25.13-.63.24-.99.1-.3.33-.5.64-.61.37-.13.68.03.79.41.2.62.06 1.21-.16 1.79z"/><linearGradient id="SVGID_37_" x1="665.243" x2="668.687" y1="269.354" y2="269.354" gradientUnits="userSpaceOnUse"><stop id="stop925" offset="0" stop-color="#29abe2"/><stop id="stop927" offset="1" stop-color="#0071bc"/></linearGradient><path id="path930" fill="url(#SVGID_37_)" d="M665.46 270.57c.29.8.74 1.12 1.53 1.1.77-.02 1.28-.4 1.53-1.14.28-.83.18-1.66-.06-2.48-.21-.72-.69-1.03-1.46-1.03-.8 0-1.22.27-1.51.97-.16.39-.22.81-.24 1.33.01.13.01.36.05.58.03.23.08.46.16.67zm.82-2.11c.08-.32.35-.49.69-.48.36 0 .61.15.7.48.17.67.19 1.36-.08 2.02-.11.28-.45.45-.75.41-.29-.04-.51-.21-.57-.49-.07-.33-.08-.68-.12-1.04.04-.3.05-.6.13-.9z"/><linearGradient id="SVGID_38_" x1="671.236" x2="674.884" y1="277.106" y2="277.106" gradientUnits="userSpaceOnUse"><stop id="stop932" offset="0" stop-color="#29abe2"/><stop id="stop934" offset="1" stop-color="#0071bc"/></linearGradient><path id="path937" fill="url(#SVGID_38_)" d="M672.99 274.72c-.64.07-1.17.36-1.42 1-.25.65-.39 1.32-.32 2.01.04.43.2.81.47 1.15.59.73 1.51.83 2.22.22.64-.56.93-1.28.95-2.12.01-.55-.13-1.07-.44-1.51-.36-.5-.83-.82-1.46-.75zm.73 3.46c-.19.48-.91.55-1.23.15-.38-.48-.47-1.53-.17-2.06.16-.28.41-.45.74-.44.34 0 .58.17.71.48.1.24.15.5.19.62.01.53-.1.9-.24 1.25z"/><linearGradient id="SVGID_39_" x1="664.029" x2="667.492" y1="281.026" y2="281.026" gradientUnits="userSpaceOnUse"><stop id="stop939" offset="0" stop-color="#29abe2"/><stop id="stop941" offset="1" stop-color="#0071bc"/></linearGradient><path id="path944" fill="url(#SVGID_39_)" d="M666.82 282.95c.81-.87.91-2.79.2-3.74-.53-.7-1.31-.81-1.99-.26-.66.54-.95 1.26-1 2.15.07.44.05.94.25 1.4.47 1.05 1.76 1.28 2.54.45zm-1.8-2.49c.05-.18.11-.37.21-.52.18-.27.47-.37.79-.33.3.04.45.26.53.52.06.22.08.44.13.69-.08.36-.14.73-.25 1.09-.13.42-.44.6-.88.53-.31-.05-.49-.24-.54-.63-.05-.45-.11-.9.01-1.35z"/><linearGradient id="SVGID_40_" x1="665.675" x2="668.101" y1="258.712" y2="258.712" gradientUnits="userSpaceOnUse"><stop id="stop946" offset="0" stop-color="#29abe2"/><stop id="stop948" offset="1" stop-color="#0071bc"/></linearGradient><path id="path951" fill="url(#SVGID_40_)" d="M667.37 260.3c.34.02.58-.15.66-.49.04-.18.05-.37.07-.47.01-.56-.07-1-.31-1.41-.26-.46-.67-.71-1.18-.8-.45-.08-.85.18-.91.64-.1.75.06 1.43.57 2.01.29.34.67.5 1.1.52z"/><linearGradient id="SVGID_41_" x1="386.188" x2="389.495" y1="344.672" y2="344.672" gradientUnits="userSpaceOnUse"><stop id="stop953" offset="0" stop-color="#29abe2"/><stop id="stop955" offset="1" stop-color="#0071bc"/></linearGradient><path id="path958" fill="url(#SVGID_41_)" d="M388.52 343.54c-.41-.03-.83 0-1.24.04-.3.03-.57.19-.78.43-.33.38-.38.82-.23 1.27.14.42.51.53.91.54h.46c.07-.01.37-.03.67-.1.22-.05.44-.14.63-.25.44-.27.65-.77.54-1.27-.09-.36-.43-.63-.96-.66zm.01.99c-.24.46-.74.67-1.25.53-.09-.03-.21-.13-.23-.22-.02-.08.03-.22.09-.3.23-.31.57-.34 1.02-.31.03 0 .14.02.25.04.14.04.16.18.12.26z"/><linearGradient id="SVGID_42_" x1="649.538" x2="652.484" y1="322.862" y2="322.862" gradientUnits="userSpaceOnUse"><stop id="stop960" offset="0" stop-color="#29abe2"/><stop id="stop962" offset="1" stop-color="#0071bc"/></linearGradient><path id="path965" fill="url(#SVGID_42_)" d="M651.19 321.3c-.9.39-1.42 1.11-1.63 2.04-.18.81.55 1.4 1.33 1.11.88-.33 1.6-1.36 1.59-2.28-.01-.79-.56-1.18-1.29-.87z"/><linearGradient id="SVGID_43_" x1="640.046" x2="643.25" y1="316.43" y2="316.43" gradientUnits="userSpaceOnUse"><stop id="stop967" offset="0" stop-color="#29abe2"/><stop id="stop969" offset="1" stop-color="#0071bc"/></linearGradient><path id="path972" fill="url(#SVGID_43_)" d="M643.23 315.99c.11-.48-.18-.95-.63-1.04-1.19-.24-2.57.91-2.55 2.12.01.55.25.87.66.88 1.01.02 2.3-.99 2.52-1.96z"/><linearGradient id="SVGID_44_" x1="651.267" x2="653.67" y1="306.262" y2="306.262" gradientUnits="userSpaceOnUse"><stop id="stop974" offset="0" stop-color="#29abe2"/><stop id="stop976" offset="1" stop-color="#0071bc"/></linearGradient><path id="path979" fill="url(#SVGID_44_)" d="M652.19 307.61c.94-.17 1.58-1.05 1.46-2-.06-.47-.39-.74-.87-.7-.94.07-1.51.68-1.52 1.65 0 .11-.01.23 0 .34.07.57.37.81.93.71z"/><linearGradient id="SVGID_45_" x1="659.372" x2="661.842" y1="312.303" y2="312.303" gradientUnits="userSpaceOnUse"><stop id="stop981" offset="0" stop-color="#29abe2"/><stop id="stop983" offset="1" stop-color="#0071bc"/></linearGradient><path id="path986" fill="url(#SVGID_45_)" d="M660.78 311.03c-.74.23-1.2.76-1.39 1.5-.04.17 0 .38.05.55.11.38.37.55.76.54.95-.02 1.66-.8 1.65-1.79-.02-.63-.46-.98-1.07-.8z"/><linearGradient id="SVGID_46_" x1="368.508" x2="370.675" y1="294.21" y2="294.21" gradientUnits="userSpaceOnUse"><stop id="stop988" offset="0" stop-color="#29abe2"/><stop id="stop990" offset="1" stop-color="#0071bc"/></linearGradient><path id="path993" fill="url(#SVGID_46_)" d="M370.67 294.93c-.04-.47-.21-1.03-.61-1.51-.22-.27-.51-.45-.84-.54-.38-.1-.78.26-.7.64.1.52.28 1.02.63 1.43.25.3.54.51.93.59.36.07.59-.1.59-.61z"/><linearGradient id="SVGID_47_" x1="454.767" x2="456.998" y1="340.505" y2="340.505" gradientUnits="userSpaceOnUse"><stop id="stop995" offset="0" stop-color="#29abe2"/><stop id="stop997" offset="1" stop-color="#0071bc"/></linearGradient><path id="path1000" fill="url(#SVGID_47_)" d="M456.61 339.59c-.79-.15-1.55.29-1.8 1.03-.15.47.12.84.61.82.76-.03 1.4-.54 1.56-1.25.07-.27-.11-.54-.37-.6z"/><linearGradient id="SVGID_48_" x1="375.954" x2="378.075" y1="304.338" y2="304.338" gradientUnits="userSpaceOnUse"><stop id="stop1002" offset="0" stop-color="#29abe2"/><stop id="stop1004" offset="1" stop-color="#0071bc"/></linearGradient><path id="path1007" fill="url(#SVGID_48_)" d="M378.06 305.43c.07-.59-.11-1.13-.4-1.63-.26-.45-.65-.73-1.15-.89-.23-.07-.47.05-.52.29-.02.11-.03.23-.04.29-.03 1.09.64 2.01 1.61 2.27.25.07.47-.08.5-.33z"/><linearGradient id="SVGID_49_" x1="394.124" x2="396.971" y1="308.734" y2="308.734" gradientUnits="userSpaceOnUse"><stop id="stop1009" offset="0" stop-color="#29abe2"/><stop id="stop1011" offset="1" stop-color="#0071bc"/></linearGradient><path id="path1014" fill="url(#SVGID_49_)" d="M394.15 308.24c.27.9 1.41 1.69 2.35 1.63.33-.02.54-.33.44-.64-.3-.87-1.46-1.67-2.38-1.64-.32.01-.51.32-.41.65z"/><linearGradient id="SVGID_50_" x1="370.629" x2="372.244" y1="279.691" y2="279.691" gradientUnits="userSpaceOnUse"><stop id="stop1016" offset="0" stop-color="#29abe2"/><stop id="stop1018" offset="1" stop-color="#0071bc"/></linearGradient><path id="path1021" fill="url(#SVGID_50_)" d="M370.89 278.22c-.28.16-.25.44-.26.71v.38c.02.23.03.62.11.99.1.48.4.81.91.91.22.04.4-.04.46-.24.27-.85.14-1.66-.33-2.4-.21-.34-.66-.48-.89-.35z"/><linearGradient id="SVGID_51_" x1="375.996" x2="378.153" y1="290.104" y2="290.104" gradientUnits="userSpaceOnUse"><stop id="stop1023" offset="0" stop-color="#29abe2"/><stop id="stop1025" offset="1" stop-color="#0071bc"/></linearGradient><path id="path1028" fill="url(#SVGID_51_)" d="M376 289.25c.06.66.27 1.26.74 1.75.24.26.55.4.88.5.22.07.37-.04.45-.23.05-.14.07-.3.09-.39 0-.95-.64-1.85-1.5-2.15-.38-.13-.7.11-.66.52z"/><linearGradient id="SVGID_52_" x1="466.621" x2="468.656" y1="332.956" y2="332.956" gradientUnits="userSpaceOnUse"><stop id="stop1030" offset="0" stop-color="#29abe2"/><stop id="stop1032" offset="1" stop-color="#0071bc"/></linearGradient><path id="path1035" fill="url(#SVGID_52_)" d="M468.17 331.83c-.85-.01-1.7 1.02-1.53 1.88.05.25.34.43.6.37.73-.19 1.36-.96 1.41-1.73.02-.27-.21-.52-.48-.52z"/><linearGradient id="SVGID_53_" x1="659.749" x2="661.828" y1="293.922" y2="293.922" gradientUnits="userSpaceOnUse"><stop id="stop1037" offset="0" stop-color="#29abe2"/><stop id="stop1039" offset="1" stop-color="#0071bc"/></linearGradient><path id="path1042" fill="url(#SVGID_53_)" d="M660.03 295.17c.3.2.58.05.84-.1.62-.35 1.06-1.31.94-2.04-.05-.32-.36-.52-.67-.43-.79.23-1.39 1.03-1.39 1.86.02.26.03.54.28.71z"/><linearGradient id="SVGID_54_" x1="667.81" x2="669.896" y1="299.892" y2="299.892" gradientUnits="userSpaceOnUse"><stop id="stop1044" offset="0" stop-color="#29abe2"/><stop id="stop1046" offset="1" stop-color="#0071bc"/></linearGradient><path id="path1049" fill="url(#SVGID_54_)" d="M668.83 298.72c-.7.32-1.17 1.28-.97 1.99.08.29.41.49.71.44.8-.15 1.36-.88 1.33-1.74-.02-.68-.46-.96-1.07-.69z"/><linearGradient id="SVGID_55_" x1="363.157" x2="364.718" y1="283.12" y2="283.12" gradientUnits="userSpaceOnUse"><stop id="stop1051" offset="0" stop-color="#29abe2"/><stop id="stop1053" offset="1" stop-color="#0071bc"/></linearGradient><path id="path1056" fill="url(#SVGID_55_)" d="M364.68 283.99c.03-.14.02-.3.03-.45.01-.38-.07-.75-.19-1.11-.12-.34-.35-.57-.7-.68-.28-.09-.56.04-.61.33-.11.61-.09 1.21.15 1.78.07.17.19.33.32.45.17.16.38.25.62.19.27-.06.33-.29.38-.51z"/><linearGradient id="SVGID_56_" x1="385.41" x2="387.888" y1="312.638" y2="312.638" gradientUnits="userSpaceOnUse"><stop id="stop1058" offset="0" stop-color="#29abe2"/><stop id="stop1060" offset="1" stop-color="#0071bc"/></linearGradient><path id="path1063" fill="url(#SVGID_56_)" d="M385.77 311.67c-.22-.01-.41.27-.34.48.25.79.98 1.36 1.96 1.45.1.01.3-.02.42-.18s.12-.37.02-.54c-.46-.79-1.18-1.15-2.06-1.21z"/><linearGradient id="SVGID_57_" x1="400.031" x2="402.01" y1="343.886" y2="343.886" gradientUnits="userSpaceOnUse"><stop id="stop1065" offset="0" stop-color="#29abe2"/><stop id="stop1067" offset="1" stop-color="#0071bc"/></linearGradient><path id="path1070" fill="url(#SVGID_57_)" d="M401.41 343.3c-.08-.01-.15-.01-.37-.02-.12.02-.39.05-.64.12-.25.07-.42.39-.37.63.05.25.22.39.46.43.37.05.76.08 1.1-.12.24-.14.4-.34.4-.64.02-.21-.23-.37-.58-.4z"/><linearGradient id="SVGID_58_" x1="368.434" x2="369.42" y1="269.165" y2="269.165" gradientUnits="userSpaceOnUse"><stop id="stop1072" offset="0" stop-color="#29abe2"/><stop id="stop1074" offset="1" stop-color="#0071bc"/></linearGradient><path id="path1077" fill="url(#SVGID_58_)" d="M369 270.22c.21-.01.34-.15.37-.36.03-.19.03-.38.04-.57h-.02c0-.27.01-.53 0-.8-.01-.2-.12-.37-.34-.39-.2-.01-.38.09-.47.26-.07.13-.13.28-.13.43-.01.38-.06.76.11 1.12.09.19.23.32.44.31z"/><linearGradient id="SVGID_59_" x1="361.974" x2="363.143" y1="273.094" y2="273.094" gradientUnits="userSpaceOnUse"><stop id="stop1079" offset="0" stop-color="#29abe2"/><stop id="stop1081" offset="1" stop-color="#0071bc"/></linearGradient><path id="path1084" fill="url(#SVGID_59_)" d="M362.04 273.75c.03.14.14.27.24.37.24.24.66.16.75-.15.19-.64.17-1.28-.17-1.88-.07-.13-.23-.18-.4-.18-.18.01-.28.13-.35.26-.16.28-.12.59-.13.99.01.14 0 .37.06.59z"/><linearGradient id="SVGID_60_" x1="367.559" x2="368.791" y1="259.001" y2="259.001" gradientUnits="userSpaceOnUse"><stop id="stop1086" offset="0" stop-color="#29abe2"/><stop id="stop1088" offset="1" stop-color="#0071bc"/></linearGradient><path id="path1091" fill="url(#SVGID_60_)" d="M368.21 257.78c-.18-.03-.28.11-.35.23-.5.84-.4 1.37.45 2.22.53-.74.64-1.43.23-2.17-.07-.13-.16-.26-.33-.28z"/><linearGradient id="SVGID_61_" x1="361.132" x2="362.264" y1="262.877" y2="262.877" gradientUnits="userSpaceOnUse"><stop id="stop1093" offset="0" stop-color="#29abe2"/><stop id="stop1095" offset="1" stop-color="#0071bc"/></linearGradient><path id="path1098" fill="url(#SVGID_61_)" d="M361.88 263.92c.15-.03.27-.15.3-.31.04-.22.06-.45.09-.73-.03-.21-.04-.48-.11-.73-.05-.19-.21-.31-.42-.32-.21-.01-.37.07-.46.26-.25.56-.13 1.12.11 1.64.07.18.29.23.49.19z"/><linearGradient id="SVGID_62_" x1="671.018" x2="672.787" y1="287.717" y2="287.717" gradientUnits="userSpaceOnUse"><stop id="stop1100" offset="0" stop-color="#29abe2"/><stop id="stop1102" offset="1" stop-color="#0071bc"/></linearGradient><path id="path1105" fill="url(#SVGID_62_)" d="M671.91 286.35c-.31.11-.54.3-.64.61-.12.36-.18.74-.24.99 0 .24-.01.35 0 .47.03.28.14.52.39.66.22.13.61.04.84-.17.11-.1.23-.22.28-.36.22-.58.35-1.17.17-1.78-.12-.39-.43-.55-.8-.42z"/><linearGradient id="SVGID_63_" x1="666.146" x2="667.787" y1="269.432" y2="269.432" gradientUnits="userSpaceOnUse"><stop id="stop1107" offset="0" stop-color="#29abe2"/><stop id="stop1109" offset="1" stop-color="#0071bc"/></linearGradient><path id="path1112" fill="url(#SVGID_63_)" d="M666.83 270.88c.3.05.64-.13.75-.41.27-.66.25-1.34.08-2.02-.08-.33-.34-.47-.7-.48-.34 0-.61.16-.69.48-.07.29-.09.6-.13.88.04.36.04.71.12 1.04.06.29.28.46.57.51z"/><linearGradient id="SVGID_64_" x1="672.136" x2="673.954" y1="277.205" y2="277.205" gradientUnits="userSpaceOnUse"><stop id="stop1114" offset="0" stop-color="#29abe2"/><stop id="stop1116" offset="1" stop-color="#0071bc"/></linearGradient><path id="path1119" fill="url(#SVGID_64_)" d="M673.77 276.3c-.12-.31-.37-.47-.71-.48-.33 0-.58.16-.74.44-.3.53-.22 1.58.17 2.06.32.4 1.04.33 1.23-.15.14-.35.25-.72.23-1.25-.03-.11-.08-.37-.18-.62z"/><linearGradient id="SVGID_65_" x1="664.952" x2="666.682" y1="281.032" y2="281.032" gradientUnits="userSpaceOnUse"><stop id="stop1121" offset="0" stop-color="#29abe2"/><stop id="stop1123" offset="1" stop-color="#0071bc"/></linearGradient><path id="path1126" fill="url(#SVGID_65_)" d="M665.55 282.45c.43.07.75-.11.88-.53.11-.36.17-.74.25-1.09-.04-.24-.07-.47-.13-.69-.08-.26-.23-.48-.53-.52-.33-.04-.61.06-.79.33-.1.15-.16.34-.21.52-.12.45-.06.9 0 1.35.04.39.22.58.53.63z"/><linearGradient id="SVGID_66_" x1="387.034" x2="388.547" y1="344.667" y2="344.667" gradientUnits="userSpaceOnUse"><stop id="stop1128" offset="0" stop-color="#29abe2"/><stop id="stop1130" offset="1" stop-color="#0071bc"/></linearGradient><path id="path1133" fill="url(#SVGID_66_)" d="M388.4 344.28c-.11-.02-.22-.04-.25-.04-.44-.03-.78 0-1.02.31-.06.08-.12.21-.09.3s.14.2.23.22c.52.14 1.01-.07 1.25-.53.05-.09.03-.23-.12-.26z"/><linearGradient id="SVGID_67_" x1="357.852" x2="676.487" y1="280.7" y2="280.7" gradientUnits="userSpaceOnUse"><stop id="stop1135" offset="0" stop-color="#29abe2"/><stop id="stop1137" offset="1" stop-color="#0071bc"/></linearGradient><path id="path1140" fill="url(#SVGID_67_)" d="M676.24 274.55c-.18-.34-.34-.68-.53-1.01-.48-.86-1.12-1.55-2.1-1.83-.39-.11-.57-.35-.65-.71-.02-.11-.05-.22-.08-.33-.66-2.95-1.55-5.82-2.8-8.56-.28-.6-.43-1.22-.4-1.88.01-.23-.01-.46-.02-.69-.12-1.98-1.01-3.51-2.73-4.48-.82-.46-1.48-1.05-2.03-1.8-3.53-4.77-7.82-8.74-12.72-12.07-.41-.28-.82-.58-1.27-.76-1.11-.44-2.07-1.13-3.09-1.72-.59-.35-1.19-.68-1.8-1-1.49-.78-3.06-1.37-4.73-1.65-1.01-.17-2.02-.37-3.06-.14-1.91.42-2.97 2.3-2.27 4.12.18.46.42.9.68 1.32.78 1.27 1.72 2.42 2.79 3.47 1.04 1.01 2.15 1.94 3.29 2.84 1.77 1.41 3.34 3.02 4.6 4.91 1.51 2.26 2.42 4.73 2.73 7.44.21 1.88.06 3.73-.3 5.57-1.27 6.63-4.75 11.71-10.61 15.13-3.68 2.15-7.69 3.28-11.9 3.77-2.74.32-5.47.32-8.22.06-3.51-.34-6.92-1.12-10.21-2.37-.31-.12-.67-.17-.98-.56 1.12-.41 2.19-.79 3.26-1.21 1.33-.51 2.55-1.21 3.58-2.21.16-.16.35-.3.54-.41 1.48-.86 2.63-2.07 3.62-3.44 1.82-2.52 3.2-5.27 4.17-8.23 1.15-3.54 1.69-7.19 2-10.88.38-4.57.3-9.15.17-13.72-.06-2.21-.16-4.42-.09-6.63.12-4.02 1.57-7.5 4.37-10.39.5-.52 1.03-1.02 1.54-1.54.56-.58 1.11-1.15 1.64-1.76.48-.55.85-1.18 1.09-1.86.58-1.62.12-3.03-1.3-4-.6-.41-1.28-.68-1.98-.86-2.22-.57-4.45-.62-6.68-.11-3.97.91-7.34 2.91-10.27 5.7-2.01 1.91-3.57 4.17-4.88 6.59-1.91 3.53-3.34 7.26-4.39 11.14-.65 2.39-1.26 4.79-2.04 7.14-.63 1.9-1.54 3.65-2.85 5.18-2.48 2.88-5.62 4.23-9.43 3.9-.46-.04-.89-.07-1.34.1-.42.16-1.08-.47-.87-.86.35-.65.28-1.34.38-2 .46-3.07 1.34-6.02 2.5-8.89 1.36-3.36 2.53-6.78 3.54-10.26 1.12-3.89 1.92-7.85 2.52-11.84.4-2.64.71-5.29.72-7.97 0-.99-.05-1.98.14-2.97.04-.22.05-.46.01-.68-.2-1.14-.1-2.28-.13-3.42-.06-1.87-.24-3.73-.44-5.59-.42-3.76-1.11-7.46-2.22-11.08-1.48-4.82-3.45-9.44-5.76-13.92-6.49-12.59-15.63-22.76-27.62-30.34-5.59-3.54-11.55-6.35-17.77-8.58-2.84-1.02-5.71-1.92-8.69-2.38-1.09-.17-2.12-.62-3.23-.62-.83-.38-1.69-.4-2.58-.26-.31.05-.6.03-.83-.24-.24-.28-.59-.32-.94-.35-1.82-.17-3.65-.34-5.47-.52-.6-.06-1.23-.09-1.8-.27-.33-.1-.65-.18-.99-.18H504.5c-.26 0-.55-.07-.78.1-.27.2-.57.18-.87.21-2.05.19-4.1.36-6.15.58-4.86.52-9.64 1.45-14.37 2.68-11.06 2.88-21.31 7.53-30.83 13.85-5.71 3.79-11 8.08-15.74 13.04-5.55 5.8-10.1 12.3-13.63 19.52-4.41 9.03-7.19 18.52-8.06 28.55-.34 3.92-.38 7.84-.12 11.77.33 5.15 1.1 10.23 2.35 15.23 2.57 10.28 7.11 19.6 13.79 27.84 1.23 1.51 2.49 2.99 3.86 4.37.71.72.89 1.47.4 2.37-.38.7-.72 1.43-1.1 2.13-3.44 6.26-8.27 11.09-14.75 14.2-2.88 1.39-5.91 2.25-9.11 2.39-5.25.23-10.03-1.21-14.35-4.16-4.03-2.75-7.26-6.29-9.81-10.42-2.07-3.34-3.83-6.84-4.8-10.69-.29-1.14-.73-2.24-.98-3.4-.11-.52-.31-1.01-.27-1.56.02-.22-.05-.46-.14-.66-.21-.47-.23-.96-.27-1.45-.24-2.54-.45-5.09-.91-7.61-.33-1.81-.83-3.56-1.8-5.15-.44-.72-.96-1.38-1.64-1.89-1.08-.8-2.26-1.04-3.57-.67-.75.21-1.41.57-2.03 1.02-1.13.81-2.09 1.79-2.86 2.93-1.41 2.09-2.69 4.26-3.47 6.67-.5 1.52-.96 3.05-1.42 4.59-.16.54-.44.89-.91 1.23-1.38.99-2.36 2.26-2.24 4.1.02.27.02.54 0 .8-.05.67.11 1.24.48 1.82 1 1.57 1.37 3.3.9 5.14-.1.4-.24.8-.39 1.19-.45 1.21-.42 2.41.13 3.56.35.74.56 1.5.65 2.29.17 1.44.3 2.86-.07 4.31-.34 1.33-.15 2.66.52 3.88.25.47.54.92.88 1.33.61.75 1.02 1.58 1.33 2.5 1.58 4.72 3.72 9.18 6.53 13.3 3.76 5.5 8.29 10.24 13.79 14.04.28.19.57.39.82.62 1.08 1 1.04.86-.15 1.61-.23.14-.45.29-.68.42-4.28 2.51-8.02 5.68-11.45 9.24-3.31 3.43-6.06 7.25-8.12 11.55-1.99 4.13-3.2 8.48-3.73 13.02-.18 1.51-.33 3.03-.28 4.56.04 1.23.24 2.43.68 3.58.78 2.05 2.21 2.59 4.19 1.61.72-.36 1.36-.85 1.95-1.39 1.33-1.21 2.51-2.55 3.62-3.97 1.38-1.78 2.66-3.63 3.87-5.53 1.1-1.72 2.51-3.16 3.91-4.61.39-.41.87-.74 1.33-1.08.21-.16.45-.29.7-.38 1.16-.38 2.32-.75 3.49-1.1.5-.15.77-.08 1.02.43.48.96 1.32 1.44 2.33 1.66 1.35.3 2.65.13 3.9-.44.97-.44 1.74-1.09 2.04-2.18.03-.11.08-.21.13-.32.17-.39.45-.59.89-.59.61 0 1.22-.01 1.83-.05.64-.04 1.11.2 1.42.76.09.17.19.33.3.48 2.11 2.96 6.15 3.22 8.62.54.23-.25.44-.53.67-.78.3-.33.67-.5 1.12-.46.83.08 1.67.16 2.5.25.34.04.55.23.65.55.04.11.07.22.1.33.38 1.36 1.31 2.21 2.58 2.71 2.04.8 4.8.37 6.09-1.31.59-.77 1.47-1.06 2.42-1.1.3-.02.61.03.91.01.93-.06 1.64.22 1.95 1.17 1.81 2.95 5.91 3.51 8.49.98.27-.27.5-.58.75-.86.92-1.06 2.53-1.17 3.57-.24.23.2.43.43.67.62 1.7 1.33 3.59 1.8 5.69 1.18 1.28-.38 2.33-1.14 3.14-2.19.49-.63 1.1-1.05 1.8-1.37.42-.19.85-.35 1.28-.48 1.11-.31 2.23-.45 3.38-.09.47.15.97.2 1.47.22 2.19.1 3.94-.8 5.25-2.5.69-.9 1.53-1.58 2.49-2.15 1.12-.66 2.29-1.21 3.46-1.76 1.62-.76 3.25-1.5 4.72-2.54.06-.04.13-.08.2-.1.12-.02.24.01.26.14.03.26.05.53.03.79-.08 1.1-.16 2.2-.26 3.31-.23 2.79-.09 5.57.15 8.34.37 4.15 1.25 8.21 2.48 12.19 1.79 5.81 4.41 11.19 8.22 15.96.14.18.28.37.4.56.59.9 1.3 1.69 2.09 2.42.87.8 1.76 1.58 2.63 2.38 2.38 2.15 4.69 4.36 6.79 6.8 1.64 1.9 2.85 4.05 3.79 6.35 1.26 3.08 1.54 6.28.75 9.53-.39 1.6-1.02 3.11-1.8 4.56-.63 1.17-1.31 2.32-1.96 3.49-1.18 2.1-2.22 4.25-2.95 6.55-.53 1.68-.87 3.4-.98 5.16-.16 2.62.78 4.7 3.08 6.07.07.04.13.08.19.12.45.3.93.49 1.5.44.49-.04.99-.03 1.49 0 .62.03 1.19-.12 1.77-.35 3.2-1.27 6-3.14 8.51-5.48 2.8-2.61 6.07-6.89 8.37-10.67.78-1.27 1.47-2.58 2.13-3.91 2.9-5.91 3.91-12.15 3.27-18.67-.34-3.46-1.14-6.84-2.13-10.17-1.17-3.91-2.62-7.72-4.11-11.51-1.34-3.41-2.46-6.89-2.97-10.54-.33-2.39-.44-4.78-.18-7.18.19-1.75.55-3.46.88-5.18.17-.86.25-1.73.57-2.56 1.3-3.39 2.87-6.65 4.81-9.72.2-.32.39-.66.64-.95 1.97-2.31 4.21-4.3 6.9-5.75 2.24-1.21 4.64-1.73 7.18-1.42 2.14.26 4.16.94 6.06 1.95 3.24 1.71 6.31 3.7 9.32 5.79 3.35 2.33 6.72 4.63 10.21 6.75 4.58 2.77 9.34 5.15 14.42 6.87 3.99 1.35 8.08 2.24 12.28 2.55 4.05.3 8.08-.04 12.07-.73 4.1-.71 8.13-1.71 12.15-2.76 4.02-1.05 8.03-2.12 12.15-2.72 2.57-.38 5.14-.64 7.75-.41 4.48.39 8.31 2.1 11.43 5.36.61.63 1.25 1.23 1.87 1.85.65.65 1.32 1.27 1.93 1.95 1.11 1.25 2.49 2.13 3.99 2.82 2.52 1.15 5.22.24 6.6-2.17.27-.47.46-.96.62-1.47.79-2.53.9-5.09.36-7.68-.46-2.22-1.29-4.3-2.35-6.3-.18-.33-.43-.65-.45-1.04-.03-.44-.25-.79-.45-1.16-1.35-2.45-2.91-4.74-4.76-6.84-.12-.14-.24-.29-.32-.46-.04-.08-.01-.24.05-.3.06-.07.22-.13.3-.1.5.18.96.44 1.5.52 2.03.3 3.77-.32 5.29-1.62 1.72-1.47 2.75-3.33 3.05-5.59.29-2.13 1.5-3.53 3.51-4.24.43-.15.87-.29 1.28-.5 2.01-.99 3.18-2.56 3.24-4.86.02-.65.12-1.29.3-1.92.43-1.51 1.17-2.89 1.91-4.27.3-.56.82-.88 1.42-1.09 2.26-.79 3.52-2.45 4.05-4.71.31-1.31.18-2.57-.5-3.76-.08-.13-.16-.26-.22-.4-.56-1.22-.32-2.63.63-3.59.24-.24.51-.46.76-.69 2-1.88 2.77-5.29.87-8.17-.15-.22-.32-.43-.46-.66-.26-.42-.25-.63.15-.86.84-.48 1.25-1.29 1.79-2.04.59-.82.54-1.71.54-2.62 0-.5-.02-.99 0-1.49-.03-.34-.12-.7-.29-1.04zm-275.77 32.46c1.25.46 2.5.93 3.74 1.43 1.85.75 3.77 1.2 5.74 1.47 2.53.35 5.07.64 7.63.69.15 0 .3.03.45.05-1.57.29-3.13.44-4.69.4-2.44-.06-4.88 0-7.31.25-1.71.18-3.4.41-5.07.82-.32.08-.44-.03-.37-.32.06-.3.12-.6.2-.89.29-1.14.08-2.19-.55-3.17-.18-.28-.36-.57-.54-.86.3-.14.54.04.77.13zm-4.92-1.83c1.69.46 2.99 1.47 3.93 2.95.35.56.56 1.17.65 1.82.17 1.24-.59 2.33-1.78 2.69-2.45.74-4.41-.13-6.12-1.79-.82-.79-1.25-1.97-1.25-2.99 0-1.16.58-2.05 1.65-2.5.95-.41 1.94-.45 2.92-.18zm-11.12-8.17c.45.06.89.18 1.34.28.38.09.71.22.87.65.11.3.39.5.71.5.41-.01.63.22.83.51.33.47.69.92.98 1.41.46.76.62 1.45.61 2.4-.01.08-.01.27-.04.46-.2 1.45-1.26 2.42-2.72 2.4-1.39-.01-2.59-.57-3.65-1.43-1.28-1.05-1.9-2.45-2.1-4.06-.22-1.68 1.18-3.4 3.17-3.12zm-5.39-9.75c.38.34.64.7.67 1.25.04.65.29 1.28.8 1.73.43.37.51.82.51 1.34-.06.41-.12.83-.19 1.24-.26 1.54-2.03 2.53-3.51 2.1-.18-.05-.37-.1-.55-.17-2.28-.88-4.05-3.83-3.77-6.25.22-1.86 2.09-3.35 4.12-2.44.7.3 1.34.69 1.92 1.2zm-4.47-8.34c.12.55.22 1.12.19 1.62.04.89-.13 1.66-.45 2.4-.82 1.88-2.76 2.41-4.44 1.21-1-.71-1.61-1.7-1.98-2.85-.37-1.15-.47-2.3-.17-3.48.18-.71.5-1.36 1-1.9.89-.97 2.2-1.19 3.32-.51 1.32.81 2.19 1.98 2.53 3.51zm-1.51-7.65c.27.95.56 1.89.65 2.89.03.37.1.75-.17 1.08-.18.1-.27-.05-.38-.14-1.2-1.01-2.52-1.13-3.95-.56-.18.07-.35.14-.53.21-1.03.77-1.52 1.87-1.81 3.07-.12.52-.23 1.04-.35 1.64-.87-.57-1.67-1.17-2.52-1.73-.01-.13.08-.24.2-.33.8-.65 1.24-1.52 1.5-2.5.14-.55.29-1.1.46-1.64.09-.27.3-.32.51-.1.49.5 1.12.78 1.75 1.04 1.71.07 2.77-.85 3.46-2.3.21-.44.35-.92.53-1.39.38.09.54.38.65.76zm-6.73-.71c-.3-.19-.34-.48-.36-.79-.08-1.09.15-2.11.68-3.07.94-1.69 3.22-1.7 4.21-.04.49.83.79 1.73.79 2.71.03 1.3-.46 2.38-1.39 3.27-.87.84-1.83.88-2.77.13-.3-.24-.54-.54-.81-.8-.2-.2-.33-.39-.18-.7.13-.26.1-.54-.17-.71zm4.58-8.45c.16-.29.27-.61.41-.91.34.12.27.38.27.59 0 .61-.08 1.22-.02 1.82.08.87.25 1.73.39 2.6.05.33.16.66.07 1-.26-.08-.27-.34-.38-.52-.2-.32-.37-.67-.59-.98-1.13-1.6-3.43-1.52-4.57-.19-.37.44-.68.92-.87 1.46-.16.47-.3.94-.42 1.42-.09.36-.12.74-.3 1.08-.29-.03-.48-.25-.7-.39-.95-.62-1.95-.83-3.04-.48-.11.03-.22.07-.33.08-.2.02-.38-.04-.43-.27-.05-.24-.05-.49.2-.59.28-.11.59-.15.88-.21.44-.1.9-.18 1.33-.32.98-.31 1.59-.99 1.91-1.96.22-.66.25-1.35.36-2.02.03-.19.06-.37.08-.53.26-.16.37.05.51.15.16.11.3.23.46.34 1.75 1.16 3.79.67 4.78-1.17zm-.22-3c.02.79-.14 1.49-.44 2.16-.12.28-.26.55-.44.79-.95 1.27-2.25 1.57-3.43.17-1.24-1.48-1.58-3.17-.91-5.02.2-.54.52-1.02.95-1.41.97-.89 2.24-.85 3.17.08.42.42.68.92.84 1.47.17.6.3 1.2.26 1.76zm-8.88-1.46c.68-2.62 1.49-5.19 2.89-7.53.26-.44.58-.68 1.08-.69.11 0 .22-.04.34-.06 1.34-.21 1.96.09 2.59 1.31.54 1.05 1.01 2.13 1.28 3.28.09.4.33.77.25 1.35-.37-.25-.64-.45-.93-.63-.8-.52-1.64-.55-2.5-.15-1.26.59-2.02 1.59-2.29 2.94-.12.63-.16 1.28-.24 1.92-.27.18-.42-.08-.57-.2-.52-.38-1-.82-1.65-1-.27-.07-.31-.3-.25-.54zm-3.02 5.24c-.04-.73.17-1.5.51-2.23.2-.41.47-.78.81-1.09.82-.73 1.75-.79 2.58-.08 2.16 1.85 2.06 4.85.62 6.57-1.06 1.27-2.72 1.18-3.7-.16-.52-.72-.82-1.78-.82-3.01zm.68 10.34c0-1.07.29-2.05.88-2.92.63-.95 1.69-1.29 2.7-.93.45.16.8.45 1.07.83 1.45 2.04 1.37 4.4-.33 6.29-.76.84-1.59.89-2.55.25-1.27-.85-1.73-2.09-1.77-3.52zm2.99 13.98c-1.24-.96-1.93-2.22-2.06-3.78-.03-.38.01-.76-.01-1.14-.03-.56.08-1.01.57-1.39.4-.3.55-.81.61-1.31.04-.36.25-.52.59-.58 1.56-.28 2.86.18 3.88 1.38.8.94 1.12 2.05 1.12 3.41-.02.94-.23 1.97-.88 2.87-.9 1.23-2.33 1.49-3.62.67-.07-.04-.14-.08-.2-.13zm2.27 4.96c-.06.14-.1.29-.35.34-.45-1.09-.92-2.2-1.37-3.32-.15-.38 0-.56.43-.56.27 0 .53.02.8.02.8.01 1.49-.29 2.07-.82.8-.74 1.39-1.61 1.52-2.73.04-.4.1-.8.16-1.2.36 0 .5.27.71.41.47.32.91.69 1.41.96 1.17.65 2.33.58 3.45-.17 1.06-.71 1.73-1.69 1.98-2.95.06-.3.11-.6.18-.89.03-.15.26-.2.36-.07.88 1.21 1.6 2.48 1.79 4 0 .03-.03.06-.1.2-.53-.14-1.01-.4-1.54-.47-1.32-.17-2.3.31-2.99 1.43-.51.82-.76 1.73-.92 2.68-.07.45-.15.89-.22 1.37-.46.02-.73-.25-1.02-.48-1.86-1.46-4.65-.93-5.81 1.12-.23.35-.38.75-.54 1.13zm.98 2.48c-.14-.51-.22-1.05-.24-1.57-.04-2.14 1.77-3.54 3.84-2.97.98.27 1.78.83 2.47 1.57 1.04 1.13 1.67 2.69 1.67 4.2.03.44-.07.92-.24 1.39-.52 1.46-1.89 2.2-3.37 1.74-2.17-.68-3.52-2.2-4.13-4.36zm2.16 4.59c.16-.12.28 0 .41.06.42.17.84.36 1.27.51 2.48.87 4.69-1.28 4.8-3.35.03-.61.04-1.22-.11-1.82-.04-.18-.11-.36-.03-.56.3 0 .46.25.67.39.45.29.89.59 1.35.85.79.44 1.65.59 2.54.45.32-.05.59-.07.78.28.17.31.49.46.8.62.27.13.57.23.81.56-.22.62-.6 1.24-.76 1.94-.16.72-.08 1.44-.05 2.15-.25.13-.35-.08-.47-.19-.59-.55-1.22-1.04-1.94-1.4-1.22-.62-2.46-.69-3.75-.18-1.32.52-1.99 1.49-2.07 2.87-.03.61.02 1.22.05 1.83.01.3.05.61.08 1.04-1.36-1.05-3.7-4.32-4.38-6.05zm7.07 8.56c-1.25-1.17-1.94-2.61-2.09-4.31-.05-.58.06-1.14.27-1.67.59-1.49 2.06-2.15 3.65-1.64.97.31 1.76.89 2.42 1.65 1 1.16 1.61 2.48 1.62 4.04.01.66-.13 1.28-.44 1.87-.62 1.15-1.69 1.67-2.95 1.39-.94-.21-1.77-.66-2.48-1.33zm1.29 2.22c.23-.23.46-.1.66-.11.53-.01 1.07.03 1.6-.02 1.64-.18 2.71-1.21 2.98-2.84.1-.6.14-1.21.07-1.82-.06-.53-.1-1.06-.15-1.59.25-.12.33.11.45.22.57.57 1.14 1.12 1.81 1.57 1.01.66 2.1 1.02 3.32 1.09 2.23.14 4.56-2.62 3.43-4.93-.05-.1-.1-.21-.13-.32-.07-.21-.23-.47-.01-.63.18-.13.45 0 .63.12.45.29.89.58 1.31.91.87.68 1.67 1.46 2.59 2.08.08.05.16.19.15.28-.01.17-.18.22-.31.28-.22.09-.45.03-.68 0-1.46-.18-2.52.43-3.23 1.67-.81 1.41-.78 2.85.06 4.23.89 1.47 2.04 2.66 3.76 3.16.06.02.1.07.23.18-1.05.42-2.07.7-3 1.07-.3-.2-.21-.45-.21-.66-.05-1.33-.58-2.43-1.5-3.36-.67-.69-1.45-1.23-2.32-1.65-1.27-.62-2.58-.64-3.88-.14-1.29.5-2.31 1.72-2.02 3.57.26 1.68 1.1 2.98 2.57 3.86.46.27.91.55 1.36.81-.05.34-.28.47-.56.63-3.11-2.4-6.33-4.69-8.98-7.66zm14.25 4.9c-.12.38-.3.68-.71.82-.36.12-.73.25-1.05.45-.72.43-1.43.37-2.2.14-1.49-.45-2.65-1.3-3.46-2.63-.32-.53-.51-1.1-.51-1.73.01-1.12.58-1.96 1.64-2.37.18-.07.36-.13.55-.16.3-.05.6-.08.83-.11.69.02 1.29.11 1.85.38 1.05.5 1.93 1.22 2.61 2.17.67.92.79 1.95.45 3.04zm.25 30.18c-.65.69-1.49 1.04-2.41 1.18-.3.05-.61.04-.91.06-.75.05-1.43-.17-2.07-.54-1.07-.63-1.23-1.85-.32-2.68 1.55-1.4 3.62-1.53 5.21-.77 1.15.55 1.37 1.83.5 2.75zm5.79-3.12c-.24.43-.56.67-1.1.66-.68-.02-1.37.04-2.05.07-.75.03-1.44-.09-1.97-.7-.26-.3-.61-.44-1-.51-.26-.05-.53-.07-.74-.3.31-.33.74-.4 1.14-.5 2.04-.51 4.12-.75 6.22-.8.31-.01.61 0 .93.3-.32.29-.63.51-.87.8-.22.28-.37.64-.56.98zm8.14 2.58c-.88 1.18-2.1 1.7-3.51 1.74-1.02-.04-1.93-.29-2.76-.78-1.55-.91-1.78-2.82-.49-4.07 1.17-1.15 2.65-1.43 4.23-1.25.68.08 1.34.3 1.91.69 1.32.92 1.58 2.38.62 3.67zm13.84 1.42c-.61.68-1.41 1.03-2.28 1.21-.45.09-.91.11-1.15.13-1.07 0-1.88-.19-2.61-.63-1.69-1-1.87-3.05-.37-4.3 1.85-1.55 4.06-1.48 5.85-.42 1.5.88 1.73 2.71.56 4.01zm13.68.98c-1.12 1.11-2.52 1.51-4.07 1.33-.6-.07-1.18-.26-1.74-.52-1.8-.84-2.13-3.25-.47-4.49.98-.73 1.7-.98 3.24-.95.55 0 1.16-.01 1.74.23.43.17.82.39 1.17.69 1.17 1.05 1.25 2.6.13 3.71zm27.63-6.68c-.91 1.91-2.44 2.96-4.51 3.26-.23.03-.46.03-.68.05-.78.04-1.52-.1-2.17-.57-1.14-.81-1.59-2.36-.97-3.68.95-2.04 2.52-3.31 4.83-3.52.42-.04.83.03 1.25.08 2 .28 3.11 2.55 2.25 4.38zm7.61-4.01c-.48.14-.97.2-1.46.17-1.66-.1-2.74-1.19-2.82-2.85-.04-.81.1-1.59.48-2.32.83-1.59 2.03-2.73 3.82-3.16.45-.11.91-.11 1.36-.04 1.45.22 2.3 1.14 2.42 2.6.01.13 0 .26 0 .26.13 2.2-1.52 4.66-3.8 5.34zm11.01-23.85c-1.17 2.05-2.29 4.13-3.23 6.3-1.28 2.94-2.35 5.95-3.16 9.05-.09.33-.14.67-.21 1.01-.33-.01-.5-.29-.73-.47-1.67-1.24-3.42-1.35-5.27-.43-.97.49-1.78 1.18-2.44 2.04-.93 1.21-1.23 2.61-1.1 4.1.09.99.59 1.8 1.35 2.44.34.29.7.55 1.11.88-1.17.76-2.34 1.38-3.57 2.06-.1-.41-.19-.76-.28-1.11-.52-2.2-2.38-3.58-4.65-3.35-2.4.25-4.2 1.51-5.45 3.54-.61 1-.67 2.09-.28 3.19.1.29.23.57.32.86.11.35-.02.61-.38.7-.44.12-.89.19-1.34.3-.18.04-.36.13-.54.18-.7.19-1 .04-1.22-.63-.07-.22-.12-.44-.19-.66-.3-1.01-.94-1.73-1.88-2.19-1.94-.96-5.07-1.03-7.38 1.05-.23.2-.44.43-.3.79.08.21.28.32.43.21.24-.18.48-.38.71-.57.6-.48 1.27-.84 2-1.08 1.51-.48 2.95-.24 4.3.51 1.43.79 1.87 2.21 1.23 3.72-.33.76-.85 1.35-1.54 1.8-1.33.86-2.8 1.19-4.37.99-1.11-.14-2-.7-2.64-1.63-.4-.59-.54-1.25-.5-1.96.02-.34.08-.68-.11-1-.07-.12-.27-.13-.38-.04-.16.14-.21.31-.21.51.01.3.06.61.05.91-.02.37-.27.65-.63.72-.45.09-.91.1-1.36.01-.36-.07-.62-.3-.78-.61-.12-.23-.2-.49-.3-.74-.36-.89-.97-1.54-1.88-1.89-1.43-.55-2.9-.64-4.38-.31-1.21.27-2.13.99-2.79 2.04-.04.06-.08.13-.12.2-.62 1.01-.62 1.02-1.72.81-.57-.1-1.13-.17-1.7-.16-.39 0-.64-.2-.77-.56-.13-.36-.25-.72-.41-1.06-.36-.79-1.04-1.29-1.69-1.82-.39-.14-.78-.32-1.18-.41-2.33-.51-4.45-.11-6 1.79-.97 1.18-3.01 1.25-4.15.45-.25-.18-.5-.38-.62-.66-.35-.79-.93-1.38-1.56-1.94-.05-.05-.08-.13-.11-.19.09-.24.3-.18.48-.19 2.21-.12 4.42-.04 6.62.03 2.38.07 4.76.18 7.14.29.28-.02.56-.01.83.11.95-.01 1.9-.03 2.85-.02 4.77.08 9.53-.11 14.28-.57 1.4-.14 2.82-.18 4.2-.5.33-.08.67-.15.99-.26.51-.17 1-.34 1.54-.1.28.12.6.07.9-.02.25-.08.52-.14.76-.25.99-.48 1.95-1.03 3.08-1.14.18-.02.37-.11.53-.21.63-.4 1.31-.58 2.05-.58.48 0 .9-.22 1.19-.59.26-.32.56-.5.94-.6.15-.04.28-.11.42-.17.72-.33 1.44-.67 2.18-.96.99-.39 1.93-.92 2.37-2.02.13-.32.45-.51.73-.7 2.04-1.39 3.67-3.2 5.19-5.12.22-.27.38-.54.75-.64.3-.08.48-.31.56-.65.23-.96.88-1.67 1.52-2.38.08-.08.16-.2.26-.22.64-.16.9-.58 1-1.22.05-.31.36-.56.71-.69.49-.18.71-.56.68-1.07-.02-.31.13-.49.35-.66.63-.51 1.16-1.11 1.58-1.79.19-.3.39-.55.76-.64.55-.14.91-.54 1.16-1.03.14-.28.3-.5.66-.55.44-.05.73-.39 1.04-.67 1.12-.99 2.37-1.79 3.66-2.53.06-.03.14-.03.22-.04.21.27-.06.46-.18.66zm17.17-61.83c-2.99 2.74-6.51 4.23-10.56 4.28-2.83.04-5.5-.72-8.01-2.03-3.46-1.81-6.17-4.44-8.3-7.69-1.03-1.56-1.91-3.21-2.72-4.89-.12-.24-.27-.5-.27-.75 0-.8-.39-1.46-.69-2.15-.94-2.16-1.4-4.43-1.6-6.76-.1-1.14-.12-2.28-.17-3.43-.02-3.58.48-7.07 1.77-10.42 1.2-3.1 2.89-5.88 5.31-8.18 2.53-2.41 5.51-3.94 8.99-4.4 3.51-.46 6.82.25 9.94 1.92 2.49 1.33 4.55 3.19 6.39 5.3 3.08 3.56 5.05 7.69 6.19 12.23.31 1.22.57 2.45.73 3.7.01.11.03.23.06.34.63 2.25.42 4.54.23 6.82-.24 2.83-.89 5.57-1.97 8.19-1.24 3.01-2.91 5.72-5.32 7.92zm34.72 28.31s-.33 8.27-7.94 7.94c0 0-2.93.35-6.02-2.03-.85-.56-1.59-1.24-2.27-2.02-.68-.78-1.28-1.61-1.85-2.47-.4-.6-.78-1.22-1.18-1.82-.3-.45-.57-.89-.55-1.46.01-.44-.22-.79-.5-1.12-.78-.88-1.44-1.85-2.04-2.85-1.83-2.17-4.35-4.8-7.58-7.41 0 0 9.5 2.41 19.6 1.69.66-.08 1.33-.17 1.99-.28 2.18-.35 4.34-.84 6.47-1.43.25-.07.51-.16.77-.19.13-.02.25.01.35.06 1.54-.53 3.02-1.19 4.41-2-.02.01-2.83 4.47-3.66 15.39zm29-42.68c-1.11 2.41-2.59 4.57-4.48 6.45-2.94 2.93-6.5 4.44-10.66 4.57-2.69.08-5.22-.52-7.61-1.73-4.84-2.45-8.36-6.19-10.71-11.04-1.85-3.84-3.07-7.87-3.59-12.11-.13-1.06-.14-2.13-.21-3.19.01-5.29 1.47-10.15 4.27-14.62.96-1.53 2.08-2.93 3.45-4.1 4.97-4.28 10.52-5.22 16.62-2.8 2.26.9 4.22 2.28 6 3.91 4.17 3.82 6.83 8.54 8.23 13.99.66 2.59 1.18 5.22 1.21 7.89.08 4.42-.65 8.72-2.52 12.78zm107.37 19.67c1.34.96 2.06 2.29 2.24 3.92.05.47-.03.91-.28 1.31-.44.72-1.29 1.15-2.15.79-.39-.16-.77-.33-1.08-.62-1.09-1.04-1.67-2.32-1.74-3.52-.01-1.06.14-1.75.87-2.15.78-.42 1.49-.2 2.14.27zm-12.23-11.82c.06-.02.15-.05.19-.02.13.1.34.13.37.35.34 0 .54.27.76.46 1.13 1.02 2.27 2.03 3.37 3.08 1.8 1.71 3.36 3.63 4.88 5.59.09.12.19.24.27.37.21.34.17.62-.11.93-.05.06-.11.1-.17.16-.95.96-1.07 1.18-1.33 2.68-.15-.28-.28-.47-.35-.69-.6-1.82-1.47-3.5-2.5-5.1-1.11-1.73-2.16-3.49-3.23-5.25-.4-.65-.81-1.29-1.4-1.79-.11-.09-.17-.24-.26-.36-.2 0-.3-.17-.43-.28-.08-.06-.12-.1-.06-.13zm6.73 45.21c1.38-.27 2.51.41 2.9 1.75.11.36.14.75.18.99-.12 2.58-1.49 4.86-3.81 5.94-1.74.81-3.81-.3-3.78-2.53.01-1.26.33-2.48 1.03-3.57.63-.99 1.48-1.73 2.52-2.25.29-.15.63-.27.96-.33zm-9.59 12.24c2.23-.8 4.43.63 4.73 2.91.36 2.76-1.93 5.75-4.7 6.09-1.58.2-3.24-.56-3.71-2.63-.08-.33-.08-.68-.12-1.02-.07-2.06 1.45-4.5 3.8-5.35zm-14.83 14.99c.37-1.48 1.26-2.68 2.4-3.67 1.14-.99 2.42-1.71 3.96-1.87.38-.04.76-.04 1.14.01 1.68.21 2.82 1.43 2.95 3.12.01.14 0 .28 0 .25.03 1.07-.18 1.88-.57 2.62-1.25 2.37-3.14 3.87-5.86 4.21-.04 0-.08.01-.11.01-2.91.24-4.6-1.94-3.91-4.68zm14.01 11.35c-1.98.45-3.92-.55-4.36-2.75-.18-.93-.12-1.83.17-2.7.65-1.99 1.87-3.55 3.67-4.64.83-.5 1.74-.76 2.71-.75 1.45.02 2.54.79 3.03 2.17.19.54.28 1.1.3 1.62-.07 3.8-2.88 6.45-5.52 7.05zm9.7-11.38c-3.14.74-4.9-1.8-4.49-4.25.35-2.11 1.56-3.6 3.55-4.43.67-.28 1.38-.43 2.12-.32 1.77.27 2.95 1.74 2.95 3.65-.02 2.31-1.91 4.82-4.13 5.35zm6.06-10.88c-.5.94-1.02 1.87-1.54 2.8-.39-.05-.57-.37-.83-.58-2.07-1.66-3.92-1.76-6.17-.18-1.9 1.34-2.94 3.17-2.89 5.53.03 1.75.82 3.06 2.41 3.85.17.08.36.15.51.25.13.09.19.24.12.4-.22.46-.57.81-1.01 1.05-.15.08-.29.02-.39-.12-.19-.28-.35-.6-.58-.84-1.42-1.52-3.16-2.01-5.1-1.29-2.4.89-4.1 2.59-5.01 5.01-.49 1.33-.4 2.7-.14 4.06.08.45.24.88.34 1.33.04.17.13.35-.11.56-.78-1.03-1.65-1.99-2.66-2.79-1.01-.8-2.05-1.55-3.08-2.32.24-.32.57-.28.86-.32 1.93-.31 3.48-1.3 4.81-2.67 1.36-1.41 2.01-3.11 2.03-5.07.01-1.41-.58-2.49-1.71-3.3-.53-.38-1.12-.65-1.7-.9-.06-.32.19-.41.35-.54.56-.45 1.14-.88 1.69-1.3.34.14.39.42.54.63.24.35.46.71.71 1.04.78 1 1.79 1.43 3.07 1.46 3.42.08 6.51-3.41 6.16-6.97-.12-1.16-.65-2.1-1.57-2.82-.33-.26-.69-.47-1.05-.69-.5-.32-.52-.33-.21-.76.59-.84 1.19-1.66 1.81-2.51.28.24.5.45.74.64 1.14.93 2.38 1.13 3.74.55 1.61-.68 2.83-1.78 3.58-3.37.58-1.23.85-2.52.81-3.88-.03-1-.46-1.76-1.32-2.26-.42-.25-.88-.44-1.34-.64-.24-.11-.51-.16-.76-.25-.38-.15-.53-.41-.4-.81.38-1.2.78-2.39 1.17-3.58.08-.23.27-.26.42-.07.14.18.25.38.4.56.22.26.44.53.69.76 1.06.92 2.37.9 3.42-.02.56-.49.94-1.1 1.25-1.76.76-1.61.89-3.29.5-5.02-.05-.22-.12-.44-.21-.65-.69-1.73-1.91-2.28-3.64-1.94-.37.07-.72.21-1.07.32-.22-.39-.15-.79-.08-1.15.1-.52.23-1.03.27-1.57.02-.18.18-.24.34-.17.21.09.39.23.6.33.38.17.76.36 1.16.47 1.02.28 1.88-.03 2.56-.83.02-.03.05-.06.07-.09 1.16-1.63 2.08-4.91.47-7.46-.44-.69-.97-1.27-1.75-1.59-.84-.34-1.64-.27-2.39.24-.13.09-.24.2-.37.27-.28.16-.43.69-.78.5-.27-.14-.12-.62-.18-.95-.21-1.2-.41-2.4-.62-3.61.28-.04.32.23.46.37.29.3.55.64.87.91 1.01.84 2.14 1.13 3.41.7.18-.06.36-.13.54-.19.25-.08.45 0 .58.22.08.13.15.27.2.41.97 2.49 1.82 5.01 2.44 7.61.16.66.02 1.11-.48 1.51-2.2 1.76-2.43 5.1-1.52 7.23.48 1.12 1.15 2.06 2.3 2.58.06.03.11.1.18.17-.32.13-.63.25-.92.39-.84.4-1.58.95-2.09 1.74-1.04 1.61-1.41 3.36-1 5.24.26 1.18.99 2.04 1.98 2.7.9.6.97.81.66 1.76-.13.41-.4.63-.82.68-.45.05-.91.08-1.36.16-3.95.72-5.43 4.56-4.87 7.13.24 1.07.76 1.89 1.72 2.44.17.09.34.17.49.28.43.28.51.56.29.99zm-2.61-27.59c.2-.36.48-.69.78-.97.99-.92 2.03-.82 2.83.25.39.52.69 1.09.77 1.76.06.49.1.98.15 1.47 0 1.14-.28 2.19-.92 3.13-.21.31-.46.61-.75.85-.85.73-1.87.66-2.64-.17-.42-.45-.7-1-.85-1.59-.42-1.65-.22-3.25.63-4.73zm.33-9.13c.01-1.1.29-2.11.95-3 .2-.27.44-.53.71-.74.63-.49 1.35-.48 2.01-.01.57.41.98.97 1.22 1.62.71 1.89.56 3.73-.41 5.51-.77 1.43-2.7 1.45-3.58.11-.5-.74-.91-2.29-.9-3.49zm7.95 29.89c-.13 2.08-1.07 3.68-2.89 4.75-.5.29-1.04.44-1.63.48-1.39.1-2.53-.85-2.85-2.15-.65-2.67 1.48-5.92 4.19-6.44 1.16-.22 2.11.22 2.68 1.26.37.65.51 1.35.5 2.1zm2.42-13.1c.03.3.01.61.01.91.03.84-.1 1.66-.39 2.45-.32.88-.87 1.6-1.62 2.15-.93.69-1.88.55-2.59-.37-.56-.72-.76-1.57-.79-2.45-.05-1.36.27-2.63 1.03-3.78.34-.52.77-.94 1.32-1.23.75-.38 1.36-.31 2 .22.64.56.94 1.28 1.03 2.1zm-.21-5.23c-.96 1.07-1.81 1.08-2.8.03-.97-1.03-1.29-2.32-1.3-3.68-.01-.8.21-1.58.5-2.34.23-.62.62-1.14 1.15-1.54.66-.5 1.44-.5 2.12 0 .44.32.76.74 1.02 1.21.45.82.63 1.71.68 2.6-.09 1.41-.44 2.67-1.37 3.72z"/><linearGradient id="SVGID_68_" x1="519.977" x2="529.554" y1="266.403" y2="266.403" gradientUnits="userSpaceOnUse"><stop id="stop1142" offset="0" stop-color="#29abe2"/><stop id="stop1144" offset="1" stop-color="#0071bc"/></linearGradient><path id="path1147" fill="url(#SVGID_68_)" d="M529.2 265.45c-.26.03-.52.12-.77.19-2.13.6-4.28 1.09-6.47 1.43-.66.11-1.33.2-1.99.28 3.23-.23 6.52-.78 9.58-1.84-.1-.05-.22-.07-.35-.06z"/><linearGradient id="SVGID_69_" x1="507.961" x2="516.359" y1="278.945" y2="278.945" gradientUnits="userSpaceOnUse"><stop id="stop1149" offset="0" stop-color="#29abe2"/><stop id="stop1151" offset="1" stop-color="#0071bc"/></linearGradient><path id="path1154" fill="url(#SVGID_69_)" d="M511.63 278.08s-1.2-2.07-3.67-5c.6 1 1.26 1.97 2.04 2.85.29.32.52.68.5 1.12-.02.57.25 1.02.55 1.46.4.6.79 1.22 1.18 1.82.57.86 1.17 1.7 1.85 2.47.68.77 1.42 1.46 2.27 2.02-1.66-1.29-3.39-3.38-4.72-6.74z"/><linearGradient id="SVGID_70_" x1="470.336" x2="498.557" y1="229.898" y2="229.898" gradientUnits="userSpaceOnUse"><stop id="stop1156" offset="0" stop-color="#29abe2"/><stop id="stop1158" offset="1" stop-color="#0071bc"/></linearGradient><path id="path1161" fill="url(#SVGID_70_)" d="M498.23 227.53c-.67-4.14-2.35-7.78-5.19-10.87-1.24-1.36-2.62-2.55-4.27-3.4-2.42-1.25-4.97-1.74-7.64-1.17-3.28.7-5.86 2.51-7.68 5.32-2.75 4.25-3.58 8.94-2.89 13.9.61 4.4 2.39 8.33 5.23 11.75 1.51 1.82 3.38 3.18 5.59 4.05 4.42 1.73 9.32.82 12.62-2.91.15-.17.3-.34.46-.51 1.64-1.69 2.56-3.79 3.25-5.97.63-2 .9-4.09.82-6.21-.06-1.32-.09-2.65-.3-3.98z"/><linearGradient id="SVGID_71_" x1="529.274" x2="557.482" y1="222.246" y2="222.246" gradientUnits="userSpaceOnUse"><stop id="stop1163" offset="0" stop-color="#29abe2"/><stop id="stop1165" offset="1" stop-color="#0071bc"/></linearGradient><path id="path1168" fill="url(#SVGID_71_)" d="M548.24 205.94c-4.32-2.65-9.56-2.25-13.41 1.01-1.2 1.02-2.19 2.23-2.96 3.61-2.16 3.89-2.93 8.07-2.47 12.47.45 4.22 2.04 8.02 4.55 11.44.96 1.3 2.1 2.41 3.39 3.38 2.01 1.5 4.26 2.37 6.77 2.45 3.25.1 6.03-1.05 8.41-3.24 1.96-1.81 3.03-4.17 4.04-6.56.04-.1.05-.22.07-.33.51-2.2.82-4.42.84-6.76.01-4.47-1.18-8.65-3.91-12.34-1.47-2.02-3.18-3.81-5.32-5.13z"/><linearGradient id="SVGID_72_" x1="383.465" x2="387.748" y1="300.997" y2="300.997" gradientUnits="userSpaceOnUse"><stop id="stop1170" offset="0" stop-color="#29abe2"/><stop id="stop1172" offset="1" stop-color="#0071bc"/></linearGradient><path id="path1175" fill="url(#SVGID_72_)" d="M386.3 303.12c.88.09 1.47-.45 1.45-1.33-.01-1.26-1.82-3.09-3.15-2.92-.04 0-.08.01-.11.01-.56.06-.92.38-.99.93-.04.3-.03.61.04.9.25 1.11 1.63 2.3 2.76 2.41zm-1.47-3.36c.15.01.31.01.44.08.67.32 1.17.83 1.45 1.52.04.1.04.22.04.27.01.36-.21.56-.51.53-.96-.1-1.84-1.03-1.87-1.99 0-.22.21-.42.45-.41z"/><linearGradient id="SVGID_73_" x1="384.39" x2="386.773" y1="300.964" y2="300.964" gradientUnits="userSpaceOnUse"><stop id="stop1177" offset="0" stop-color="#29abe2"/><stop id="stop1179" offset="1" stop-color="#0071bc"/></linearGradient><path id="path1182" fill="url(#SVGID_73_)" d="M386.26 302.16c.29.03.52-.17.51-.53-.01-.04 0-.16-.04-.27-.28-.7-.78-1.2-1.45-1.52-.13-.06-.29-.07-.44-.08-.24-.01-.45.19-.44.41.02.96.9 1.9 1.86 1.99z"/></g><path id="path1186" fill="none" stroke="#29abe2" stroke-miterlimit="10" stroke-width="2" d="M436.62 344.43s1.12-3.13 2.41-3.38"/></g></svg>