<svg xmlns="http://www.w3.org/2000/svg" role="img" viewBox="-2.01 -2.01 104.39 42.64"><title>Devsu (member) logo</title><g fill="none" fill-rule="evenodd"><path fill="#0C3248" d="M3.797 25.512c.081.013.12.013.174.013 3.089 0 6.164.014 9.253-.013 1.083 0 2.139-.2 3.115-.682 1.645-.815 2.62-2.193 3.196-3.89.454-1.311.601-2.688.682-4.066.093-1.671.013-3.33-.428-4.934-.562-2.045-1.671-3.676-3.677-4.586-1.217-.548-2.5-.722-3.81-.722h-8.21c-.094 0-.188.013-.295.013v18.867zM0 28.787V3.37c.08-.014.16-.027.241-.027 4.346 0 8.69 0 13.036.013 1.752 0 3.45.308 5.055 1.057 2.34 1.11 3.81 2.982 4.733 5.348.909 2.34 1.083 4.787.95 7.274-.108 1.925-.442 3.81-1.204 5.602-1.137 2.674-2.982 4.626-5.776 5.589-1.217.414-2.46.589-3.744.589H.36C.227 28.8.121 28.8 0 28.787zM41.69 17.73c0-.107 0-.174-.013-.254-.321-1.605-1.083-2.915-2.46-3.838-1.765-1.176-3.718-1.376-5.736-.962-1.699.36-3.103 1.217-4.105 2.66-.495.71-.79 1.511-.923 2.394H41.69zm3.316 5.429c-.093.2-.16.4-.254.601-1.551 3.182-4.105 5.014-7.568 5.55-2.727.414-5.374.08-7.835-1.258-2.688-1.47-4.198-3.784-4.666-6.792-.308-2.006-.148-3.97.615-5.857 1.137-2.781 3.249-4.518 6.07-5.375 2.554-.775 5.148-.815 7.688.014 3.383 1.11 5.375 3.503 6.137 6.94.228 1.056.228 2.179.335 3.262.013.08-.014.173-.027.28H28.333c.067.83.254 1.591.628 2.3 1.123 2.086 2.915 3.182 5.202 3.53 1.51.227 2.982.027 4.385-.615 1.123-.508 1.992-1.297 2.567-2.393.054-.107.2-.214.308-.214 1.15-.013 2.3-.013 3.45 0 .04 0 .066.013.133.027zm17.141-.228h3.53c.054.281.08.549.148.803.307 1.082 1.056 1.764 2.045 2.232.789.375 1.618.576 2.474.63 1.631.119 3.262.119 4.827-.429.481-.173.95-.442 1.35-.762 1.07-.856 1.19-3.035-.642-3.623-.895-.295-1.844-.456-2.794-.602-2.005-.308-4.025-.521-6.017-.87-1.257-.214-2.34-.855-3.195-1.818-1.457-1.644-1.431-4.48.026-6.298.963-1.19 2.233-1.885 3.69-2.246 2.889-.722 5.777-.709 8.598.281 2.406.856 3.85 2.58 4.252 5.134.013.12.013.241.027.374h-3.557c-.027-.146-.04-.307-.08-.468-.214-1.016-.87-1.697-1.738-2.205-.776-.455-1.632-.656-2.514-.736-1.417-.134-2.821-.107-4.185.361-.588.2-1.11.482-1.511.976-.976 1.204-.535 2.915.936 3.356.895.268 1.845.388 2.768.535 2.072.335 4.198.428 6.23.99.776.213 1.551.52 2.247.922 1.444.842 2.06 2.166 2.006 3.824-.094 2.674-1.525 4.333-3.932 5.282-1.952.762-4.011.909-6.084.855-1.805-.053-3.57-.28-5.227-1.042-2.247-1.03-3.437-2.795-3.691-5.228.013-.054.013-.12.013-.228m38.308 5.857h-3.557v-2.809c-.08.094-.12.12-.133.148-1.097 1.645-2.675 2.567-4.56 3.008-2.326.535-4.64.468-6.872-.44-2.38-.964-3.57-2.81-3.624-5.336-.054-3.075-.027-6.15-.027-9.226v-3.717c0-.08.014-.173.014-.294.12-.014.227-.026.347-.026.95 0 1.913.012 2.862-.014.28 0 .36.08.36.361-.013 3.89 0 7.782-.013 11.659 0 1.297.361 2.447 1.431 3.276.602.468 1.31.722 2.046.855 1.39.255 2.794.309 4.158-.106 2.206-.669 4.025-2.26 3.997-5.335-.026-3.41 0-6.82 0-10.228 0-.081-.026-.188.014-.255.04-.08.134-.213.201-.213 1.11-.014 2.206-.014 3.342-.014.014 6.258.014 12.462.014 18.706M43.067 10.109h.401c1.097 0 2.194.013 3.29-.014.307 0 .454.08.575.375 2.018 4.68 4.051 9.346 6.083 14.013.04.093.094.2.16.347.08-.16.148-.295.201-.414 1.992-4.64 3.971-9.28 5.95-13.933.12-.28.254-.388.562-.388 1.07.027 2.126.014 3.196.014.12 0 .227.013.387.013-.04.12-.066.214-.107.294-2.714 6.044-5.441 12.074-8.156 18.118-.08.187-.174.28-.401.28-1.123-.013-2.26-.013-3.383 0-.2 0-.307-.066-.387-.254-2.755-6.083-5.522-12.154-8.277-18.237-.04-.04-.053-.094-.094-.214"/><path fill="#B4C751" d="M47.56 4.105c-.107-1.417 1.244-2.74 2.728-2.688 1.457.054 2.648 1.218 2.648 2.688 0 1.498-1.204 2.675-2.715 2.7-1.431.04-2.768-1.256-2.661-2.7M75.451 34.59c-.12-1.337 1.15-2.714 2.688-2.7 1.35.013 2.688 1.11 2.688 2.687 0 1.485-1.217 2.714-2.688 2.714-1.524 0-2.688-1.162-2.688-2.7M57.04 3.878c-1.123 0-1.926-.83-1.912-1.966C55.128.856 56.01 0 57.067 0c1.07.014 1.938.896 1.938 1.966-.013 1.19-1.055 2.005-1.965 1.912m15.657 34.791c-1.11 0-1.938-.83-1.938-1.925 0-1.084.855-1.953 1.938-1.953 1.07 0 1.939.87 1.939 1.953 0 1.083-.842 1.925-1.94 1.925M61.72.388c.936 0 1.578.655 1.578 1.605 0 .882-.71 1.564-1.605 1.564-.936 0-1.604-.855-1.565-1.605.04-.922.67-1.564 1.592-1.564m4.746 36.342c0-.936.656-1.55 1.618-1.55.882 0 1.552.68 1.537 1.577 0 .895-.708 1.604-1.616 1.591-.924-.014-1.632-.842-1.539-1.618m-2.634-.401c-.735 0-1.216-.482-1.216-1.217 0-.682.534-1.23 1.203-1.23.682 0 1.243.562 1.243 1.244 0 .695-.52 1.203-1.23 1.203m2.086-31.542c-.709 0-1.217-.508-1.217-1.23 0-.682.535-1.216 1.203-1.216.696 0 1.231.534 1.231 1.23.013.722-.495 1.216-1.217 1.216m3.704.695c0 .401-.294.682-.709.682-.387-.013-.708-.32-.695-.709.013-.387.348-.708.722-.695.388.014.682.334.682.722m-8.798 28.44c-.414 0-.682-.267-.682-.682 0-.428.254-.668.696-.668.427 0 .654.24.654.668 0 .428-.24.682-.668.682"/></g></svg>