<svg xmlns="http://www.w3.org/2000/svg" role="img" viewBox="-8.20 -8.45 452.66 117.91"><title>Devtron (member) logo</title><path d="M34.4.6C31 1.4 28.1 5.3 14 27.9 4.3 43.5.6 50.3.6 52.5c0 2.3 3.1 8 11.4 21 6.3 9.8 12.2 18.2 13.1 18.8 2.5 1.6 6.8 0 8-3 1.1-2.9.1-4.9-10.3-20.7-3.4-5.2-5.8-9.9-5.8-11.5 0-1.6 2.4-6.5 5.6-11.7 8.3-13.2 8.6-13.4 16-13.4 3.4 0 6.9.3 7.8.6 2.3.9 2 4-.9 8.2-3.9 5.7-3 10.4 2 10.4 1.4 0 3-.3 3.5-.8 3-3.3 29-43.9 29-45.3 0-1-.6-2.3-1.2-2.9-1.3-1-40.6-2.4-44.4-1.6zm50 8.7c-5.1 2.8-4.6 4.7 5.1 19.8 4.7 7.3 8.5 14.1 8.5 15.2 0 2.5-11.8 21.4-15 23.9-2.1 1.6-3.4 1.8-8.5 1.3-8.8-1-9.5-2.2-5.5-8.4 2.3-3.7 3-5.8 2.6-7.5-.7-2.7-3.5-4.1-6.3-3.2-2.2.7-29.4 41.9-30.1 45.4-.9 4.8 1.2 5.2 24.5 5.2H81l3-2.7c4.7-4.3 30-46.2 30-49.7 0-2.1-3.2-8-10.6-19.5-5.9-9.1-11.3-17.3-12.1-18.3-1.9-2.2-4.6-2.8-6.9-1.5zM174 30.2c0 5.7-.4 9.8-.8 9.2-1.5-2.4-7.9-5.4-11.3-5.4-11.7 0-18.8 8.8-18.9 23.3 0 11.9 3.3 18.1 11.8 21.8 8 3.5 17.4 1.9 23.5-3.9 5.6-5.3 6.1-7.7 6.5-32.5l.4-22.7H174v10.2zm-5.6 14.9c7 3.2 7.5 21.2.8 24.8-6.3 3.4-13.6-.3-15.3-7.7-2.8-12.4 4.9-21.4 14.5-17.1zm119.8 5.1c.3 23.2.6 24.5 6.1 27.8 2.4 1.5 5 2 10.5 2h7.2V70h-4.5c-7.4 0-8.5-1.9-8.5-14.5V45h10V35h-5c-4.9 0-5-.1-5-3 0-3 0-3-5.6-3h-5.6l.4 21.2zM204 35.7c-10 4.3-14.7 15.6-12 28.7 2.1 10 10.2 16.6 20.5 16.6 8.4 0 16.8-5.3 19.4-12.3L233 66h-5.7c-4.7 0-5.9.4-7.9 2.5-3.1 3.4-10.1 3.5-13.2.2-2-2.1-4.2-6.7-4.2-8.8 0-.5 6.7-.9 16-.9 18.1 0 17 .7 15-8.8-2.7-12.5-17-19.7-29-14.5zm14.1 9.6c1.5 1.1 3.9 4.9 3.9 6.1 0 .3-4.3.6-9.5.6s-9.5-.4-9.5-.9 1.2-2.3 2.6-4c2.1-2.6 3.3-3.1 6.7-3.1 2.3 0 4.9.6 5.8 1.3zm141.4-9.4c-7.7 3.4-11.7 10.6-11.9 21.1-.1 8.1 1.1 12.6 4.7 16.6 9.4 10.8 28.3 9.3 34.5-2.7 4.8-9.3 3.8-22.9-2.2-29.7-6-6.9-16.7-9.1-25.1-5.3zm15.7 11c2.7 2.4 3.2 3.6 3.6 8.8.7 9.8-3.1 15.3-10.6 15.3-5.7 0-10.2-6-10.2-13.5 0-11.4 9.6-17.4 17.2-10.6zm32.3-11C398 40.3 396 45.3 396 65v15h10V67.5c0-17.4 2-21.5 10.2-21.5 7.3.1 8.8 3.5 8.8 20.4V80h11V66.7c0-19.5-2.6-26.4-11.5-30.6-5.5-2.6-11.7-2.7-17-.2zm-168.1.6c.3.9 3.6 11 7.3 22.6l6.7 21 7.5-.3 7.4-.3 6.9-20.5c3.7-11.3 7.1-21.3 7.4-22.3.5-1.5-.2-1.7-4.9-1.7h-5.5l-5.3 16.5C264 60.6 261.4 68 261 68c-.3 0-3-7.4-6-16.5L249.6 35h-5.4c-4.4 0-5.3.3-4.8 1.5zm84.6.3c-6.2 3.3-7 6.4-7 25.9V80h11V64.7c0-10.8.4-15.8 1.3-17.1.8-1.1 3.2-1.9 7-2.3l5.7-.6V35h-7.3c-5.1 0-8.3.5-10.7 1.8z"/></svg>