<svg viewBox="-9.22 -9.22 414.44 479.44" xmlns="http://www.w3.org/2000/svg"><title>Digital Rebar</title><path fill="#fff" d="M131.686 50.473S98.255 62.06 66.48 93.835c-31.776 31.776-32.77 75.137-33.1 116.182-.331 41.043 25.487 112.208 25.487 112.208l57.263.663-10.26-15.557s-.663-57.595 32.107-58.256c32.768-.662 41.707 63.552 41.707 63.552l-4.635 10.924 56.27-.663L247.87 273.9s18.867-2.317 31.114 14.233c12.246 16.55 13.24 34.092 13.24 34.092l54.946.332-6.952-12.246s13.242-48.658-7.281-100.626c-20.521-51.966-61.897-97.314-69.841-102.61-7.944-5.296-10.262-7.944-10.262-7.944s2.092-6.791 7.056-23.342c4.966-16.549-1.286-29.065-7.906-29.396-6.62-.33-10.072.44-10.072.44s-3.642-7.614-24.826-10.593-61.897-.661-61.897-.661l-13.24-6.62s-8.172 11.038-10.262 21.514"/><path fill="#8f9295" d="M72.946 107.692C44.082 143.933 40.1 174.071 42.665 219.613c2.565 45.543 18.28 99.423 18.28 99.423h51.957l-7.376-12.828s-.321-56.127 34.958-56.127c35.28 0 40.09 69.916 40.09 69.916h49.071s23.966-83.305 16.998-138.229c-5.452-42.976-21.488-61.257-21.488-61.257l2.244-13.471s-6.414 15.395-33.354 20.205c-26.941 4.811-41.373-7.697-51.316-23.092-9.942-15.394-4.169-42.656-4.169-42.656s-36.75 9.954-65.614 46.195"/><path fill="#515257" d="M154.977 194.832s-29.752-18.761-49.396-40.243c-21.634-23.656-25.25-47.345-25.25-47.345s-.79 26.197 23.356 52.71c24.146 26.514 46.714 39.613 46.714 39.613l4.576-4.735"/><path fill="#8f9295" d="M314.956 195.559c21.488 45.221 21.168 111.61 21.168 111.61l.963 11.547-42.336 2.565s-2.887-25.657-19.884-37.844c-16.999-12.188-28.224-8.018-28.224-8.018s15.394-49.392 7.697-100.066c-7.697-50.673-22.13-70.558-22.13-70.558s49.2 20.166 82.746 90.764"/><path fill="#515257" d="M241.328 122.375s27.93 9.584 52.027 49.836c24.097 40.253 29.848 65.445 32.585 90.909 2.739 25.467 2.464 39.98 2.464 39.98s-9.035 2.19-17.524 5.475c-8.49 3.286-12.948 8.97-12.499 7.361.45-1.61-.37-22.421-16.526-38.03-16.155-15.607-32.86-11.5-32.86-11.5s9.037-57.229 7.668-83.79c-1.37-26.561-15.335-60.241-15.335-60.241M185.7 307.7c-.535.287-3.864-27.38-11.759-41.825-7.894-14.447-18.645-21.838-30.74-23.686-12.094-1.848-22.004 2.688-27.211 8.903-5.208 6.216-7.391 11.255-7.391 11.255s10.079-28.22 32.084-43.17c22.004-14.95 41.825-18.981 60.47-37.122 18.646-18.142 22.176-32.207 22.176-32.207s8.062 24.14 4.535 66.637c-3.528 42.499-19.097 89.034-19.097 89.034s-11.478-4.034-23.067 2.181"/><path fill="#fff" d="M108.281 70.167s-3.889 18.146 8.21 43.352c12.097 25.204 30.677 38.742 30.677 38.742s-21.316-10.658-37.159-40.04c-15.842-29.381-9.794-46.232-9.794-46.232l9.794-4.321-1.728 8.499m17.045-5.947s-6.086 26.645 5.816 41.388c17.243 21.359 59.106 33.679 59.106 33.679s-42.605-22.452-51.577-39.231c-10.053-18.797-.864-38.455-.864-38.455l-6.338-4.321-6.143 6.94"/><path fill="#100f0d" d="M156.563 188.201a2.628 2.628 0 1 1-5.257 0 2.628 2.628 0 0 1 5.257 0m-77.249-63.585a2.628 2.628 0 1 1-5.257.002 2.628 2.628 0 0 1 5.257-.002M64.971 246.4a2.629 2.629 0 1 1-5.257-.001 2.629 2.629 0 0 1 5.257.001m2.615 14.716a2.63 2.63 0 1 1-5.257 0 2.626 2.626 0 0 1 2.628-2.627 2.627 2.627 0 0 1 2.63 2.627m10.865 38.923a2.626 2.626 0 0 1-2.629 2.626 2.628 2.628 0 1 1 2.628-2.627m137.753 1.497a2.63 2.63 0 1 1-5.259 0 2.63 2.63 0 0 1 5.259 0m11.415-40.754a2.628 2.628 0 1 1-5.257.002 2.628 2.628 0 0 1 5.257-.002m2.457-12.857a2.63 2.63 0 1 1-5.259 0 2.63 2.63 0 0 1 5.259 0m-3.889-103.837a2.629 2.629 0 1 1-5.258-.002 2.629 2.629 0 0 1 5.258.002m-45.539 17.763a2.628 2.628 0 1 1-5.257-.001 2.628 2.628 0 0 1 5.257 0m-44.549-33.21a2.545 2.545 0 1 1-5.09 0 2.545 2.545 0 0 1 5.09 0m-17.207-62.851a2.628 2.628 0 1 1-5.256 0 2.628 2.628 0 0 1 5.256 0m-11.621 80.091a2.629 2.629 0 1 1-5.258-.002 2.629 2.629 0 0 1 5.258.002M90.879 84.008a2.63 2.63 0 1 1-5.259 0 2.63 2.63 0 0 1 5.259 0M300.632 276.83a2.628 2.628 0 1 1-5.257 0 2.628 2.628 0 0 1 5.257 0m-6.819-10.585a2.63 2.63 0 1 1-5.258-.002 2.63 2.63 0 0 1 5.258.002m15.519 35.271a2.628 2.628 0 1 1-5.257.002 2.628 2.628 0 0 1 5.257-.002"/><path fill="#515257" d="M201.321 127.967s-6.216 26.876-21.669 44.345c-15.453 17.47-30.572 26.876-30.572 26.876s22.341-1.848 39.979-15.285c17.637-13.439 29.228-38.635 32.252-50.226 3.022-11.589 5.71-22.34 5.71-22.34l-25.7 16.63"/><path fill="#515257" d="M181.176 169.267s-26.041-14.204-40.403-27.935c-14.36-13.73-24.145-28.564-24.145-28.564s8.522 20.359 26.513 35.981c17.991 15.624 35.194 24.936 35.194 24.936l2.841-4.418"/><path fill="#a5a6a9" d="M372.58 454.45c0 4.118-79.916 7.457-178.496 7.457-98.58 0-178.497-3.339-178.497-7.457s79.916-7.454 178.497-7.454c98.58 0 178.496 3.336 178.496 7.454"/><path fill="#100f0d" d="M108.688 325.17H55.62l-.996-2.343c-.399-.939-9.853-23.359-17.1-56.01-6.704-30.21-12.597-75.066-2.599-117.194 10.107-42.583 36.513-68.755 56.886-83.211 22.031-15.636 41.473-21.17 42.29-21.399l2.068 7.414-1.034-3.707 1.038 3.707c-.189.053-19.172 5.489-40.138 20.425-27.932 19.9-45.974 46.328-53.62 78.55-16.847 70.983 12.599 151.426 18.349 166.07h40.185c.241-11.965 2.3-47.792 18.023-63.775 5.265-5.352 11.566-8.064 18.73-8.064 18.477 0 32.29 13.351 39.945 38.606 4.092 13.497 5.382 26.82 5.784 33.142h43.365v7.696h-50.807l-.078-3.77c-.014-.679-1.83-67.976-38.21-67.976-5.094 0-9.425 1.886-13.241 5.765-16.388 16.657-15.844 61.71-15.837 62.163l.065 3.91"/><path fill="#100f0d" d="M149.624 201.415l-.852-.54c-.468-.298-47.054-30.162-64.613-67.942-8.87-19.085-8.834-50.674 3.852-60.334l2.04 2.678c-11.324 8.624-11.02 38.632-2.838 56.236 15.833 34.068 56.098 61.711 62.502 65.955 4.005-2.456 20.972-13.539 32.65-31.685 14.23-22.108 19.311-39.626 19.36-39.8l3.24.921c-.208.73-5.248 18.14-19.768 40.701-13.72 21.319-33.845 32.835-34.694 33.314l-.879.496"/><path fill="#100f0d" d="M139.152 251.013v-3.366c3.243 0 7.844-8.372 9.261-20.383 1.494-12.65-.389-27.447-.408-27.596l-.212-1.632 1.628-.248c28.476-4.341 50.032-20.84 64.071-49.039 10.537-21.165 12.635-41.337 12.656-41.538l3.35.332c-.082.842-2.16 20.902-12.943 42.612-9.859 19.846-29.116 44.597-65.023 50.704.459 4.262 1.49 16.094.225 26.8-1.369 11.606-6.14 23.354-12.605 23.354m107.636 13.69c-41.51-23.003-82.683-2.742-83.095-2.536l-1.518-3.003c.426-.217 43.141-21.295 86.246 2.595l-1.633 2.944m29.099 19.361l-2.252-2.504c.314-.283 31.881-28.088 72.46-11.55l-1.271 3.118c-38.592-15.723-68.639 10.667-68.937 10.936M39.676 264.677l-1.721-2.894c40.262-23.946 80.163-2.814 80.562-2.598l-1.607 2.96c-.38-.204-38.652-20.412-77.234 2.532"/><path fill="#100f0d" d="M71.95 311.135c-.206-.41-5.104-10.219-10.3-28.644-4.781-16.955-10.69-44.678-11.689-80.47-1.927-69.054 28.279-91.576 29.566-92.5l1.965 2.735-.983-1.368.986 1.367c-.3.217-30.04 22.576-28.167 89.672.987 35.386 6.815 62.782 11.53 79.532 5.11 18.152 10.05 28.062 10.1 28.16l-3.007 1.516M233.71 325.17h-49.158v-7.698h44.01c5.75-14.653 35.185-95.144 18.353-166.07-3.796-15.989-10.299-30.782-19.33-43.969l6.35-4.349c9.568 13.97 16.454 29.628 20.468 46.539 9.998 42.128 4.105 86.984-2.6 117.194-7.246 32.651-16.7 55.071-17.098 56.01l-.996 2.342"/><path fill="#100f0d" d="M217.379 311.135l-3.008-1.516c.049-.098 4.989-10.008 10.098-28.16 4.715-16.75 10.544-44.146 11.531-79.532.552-19.826-1.433-48.331-14.037-71.542l2.96-1.606c12.96 23.868 15.008 53.004 14.444 73.242-.999 35.792-6.908 63.515-11.688 80.47-5.196 18.425-10.095 28.234-10.3 28.644M340.1 324.844h-52.836l.004-3.855c0-.206-.177-21.214-13.068-33.544-6.767-6.47-15.999-9.505-27.425-9.009l-.332-7.69c13.621-.6 24.773 3.171 33.117 11.178 11.764 11.281 14.547 27.787 15.204 35.223h39.63c2.843-10.736 11.98-52.44-3.1-98.227-25.96-78.823-82.486-116.816-83.054-117.19l4.23-6.43c.609.399 15.082 10.01 33.014 29.8 16.496 18.21 39.104 48.852 53.12 91.413 18.25 55.415 3.016 103.644 2.359 105.67l-.863 2.661"/><path fill="#100f0d" d="M178.104 175.63l-.799-.433c-1.428-.773-35.197-19.21-52.937-44.53-7.853-11.208-13.485-23.66-16.286-36.01-2.475-10.91-2.61-21.154-.378-28.846 1.683-5.8 4.597-9.71 8.425-11.304l1.294 3.108c-2.812 1.173-5.115 4.417-6.484 9.134-3.843 13.243-.417 38.287 16.186 61.984 15.807 22.562 45.711 40.078 50.98 43.055 5.286-2.995 35.184-20.696 43.279-41.855l3.147 1.203c-3.92 10.241-12.804 20.779-26.41 31.316-10.06 7.793-18.848 12.548-19.217 12.747l-.8.43"/><path fill="#515257" d="M198.399 304.852c-17.159-.556-23.815 17.668-23.815 17.668h53.441s-12.469-17.112-29.626-17.668"/><path fill="#8f9295" d="M198.399 312.912c12.284.267 22.161 6.237 26.784 9.608h2.842s-12.469-17.112-29.626-17.668c-17.159-.556-23.815 17.668-23.815 17.668h1.596c2.867-3.521 9.783-9.879 22.219-9.608"/><path fill="#100f0d" d="M178.873 319.835h43.246c-4.695-4.795-13.408-11.963-23.807-12.299-10.57-.359-16.675 7.501-19.439 12.299zm54.431 5.369h-62.56l1.317-3.605c.075-.206 1.876-5.062 5.95-9.859 5.532-6.516 12.616-9.839 20.474-9.572 18.259.592 31.171 18.03 31.711 18.77l3.108 4.266m67.484-12.184c-5.417-50.333-47.441-69.64-47.865-69.83l1.372-3.075c.441.197 44.22 20.308 49.842 72.545l-3.349.36"/><path fill="#515257" d="M91.05 304.852c17.157-.556 23.815 17.668 23.815 17.668H61.422s12.47-17.112 29.628-17.668"/><path fill="#8f9295" d="M113.269 322.52h1.596s-6.658-18.224-23.815-17.668c-17.158.556-29.628 17.668-29.628 17.668h2.844c4.622-3.37 14.5-9.341 26.784-9.608 12.436-.27 19.352 6.087 22.219 9.608"/><path fill="#100f0d" d="M67.329 319.835h43.246a31.097 31.097 0 0 0-3.335-4.742c-4.48-5.216-9.917-7.765-16.104-7.557-10.396.336-19.11 7.503-23.807 12.299zm51.375 5.369h-62.56l3.109-4.265c.54-.742 13.451-18.179 31.71-18.771 7.87-.255 14.944 3.055 20.475 9.572 4.072 4.797 5.873 9.653 5.948 9.859l1.318 3.605"/><path fill="#515257" d="M323.13 304.819c17.157-.603 23.813 19.197 23.813 19.197H293.5s12.471-18.593 29.628-19.197"/><path fill="#8f9295" d="M345.348 324.016h1.595s-6.656-19.8-23.814-19.197c-17.157.604-29.628 19.197-29.628 19.197h2.843c4.623-3.663 14.501-10.15 26.785-10.44 12.436-.295 19.352 6.615 22.219 10.44"/><path fill="#100f0d" d="M299.408 321.1h43.247a34.09 34.09 0 0 0-3.335-5.155c-4.48-5.666-9.917-8.437-16.104-8.21-10.397.365-19.112 8.152-23.808 13.365zm51.375 5.833h-62.56l3.108-4.636c.542-.804 13.452-19.752 31.712-20.394 7.87-.278 14.944 3.318 20.474 10.401 4.072 5.21 5.874 10.488 5.948 10.71l1.318 3.92"/><path fill="#100f0d" d="M35.41 415.317C15.885 415.317 0 401.85 0 385.297c0-16.552 15.885-30.018 35.41-30.018.258 0 .515.002.771.008.65-19.31 19.582-34.863 42.723-34.863 3.74 0 7.443.404 11.02 1.2 7.993-9.519 21.011-15.187 34.955-15.187 11.932 0 23.348 4.2 31.437 11.542 5.892-2.971 12.65-4.538 19.592-4.538 7.697 0 15.044 1.888 21.312 5.466 10.33-14.666 29.444-23.743 50.128-23.743 21.732 0 41.315 9.767 51.328 25.536 6.532-2.512 13.543-3.785 20.85-3.785 26.127 0 48.233 17.518 49.687 39.201 15.748 3.22 27.1 15.392 27.1 29.181 0 16.553-15.885 30.02-35.41 30.02H35.41"/><path fill="#fff" d="M360.903 406.945c14.932 0 27.038-9.691 27.038-21.648 0-11.955-12.106-21.648-27.038-21.648-.17 0-.332.018-.5.02.338-1.707.52-3.456.52-5.241 0-18.304-18.535-33.144-41.396-33.144-9.216 0-17.727 2.415-24.606 6.492-6.188-16.341-25.142-28.239-47.573-28.239-22.323 0-41.208 11.78-47.49 28-5.418-5.889-14.114-9.725-23.95-9.725-8.239 0-15.695 2.681-21.083 7.013-5.897-8.366-17.094-14.017-29.947-14.017-14.107 0-26.222 6.805-31.52 16.537-4.394-1.632-9.289-2.55-14.453-2.55-18.984 0-34.373 12.32-34.373 27.52 0 3.252.71 6.37 2.004 9.268a32.658 32.658 0 0 0-11.126-1.934c-14.933 0-27.039 9.693-27.039 21.648 0 11.957 12.106 21.648 27.04 21.648h325.492"/><path fill="#a5a6a9" d="M35.41 406.945h325.493c14.932 0 27.038-9.691 27.038-21.648 0-.31-.025-.616-.042-.924-4.06 7.92-13.839 13.514-25.291 13.514H33.704c-11.452 0-21.23-5.595-25.29-13.514-.017.308-.043.614-.043.924 0 11.957 12.106 21.648 27.04 21.648"/><path fill="#515257" d="M35.41 406.945h325.493c13.413 0 24.516-7.828 26.642-18.084-4.146 7.763-13.808 13.22-25.106 13.22H33.873c-11.298 0-20.96-5.457-25.105-13.22 2.126 10.256 13.228 18.084 26.642 18.084m87.627-36.288c.12-.484.084-.894-.108-1.233-.194-.337-.532-.508-1.014-.508h-5.51l-4.169 15.515h5.147c.7 0 1.238-.134 1.613-.399.374-.265.646-.713.815-1.341zm6.017 12.468c-.434 1.595-1.165 2.852-2.192 3.77-1.028.92-2.4 1.378-4.115 1.378h-20.951l6.199-23.2h20.95c1.692 0 2.81.479 3.353 1.432.544.955.611 2.195.2 3.716l-3.444 12.904m6.453-13.557l1.196-4.495h8.409l-1.197 4.495zm-5.076 18.705L135 371.236h8.553l-4.567 17.037h-8.554"/><path fill="#515257" d="M159.248 375.948c.121-.483.128-.833.019-1.052-.11-.216-.406-.325-.888-.325h-3.335c-.484 0-.84.11-1.07.325-.23.219-.405.57-.526 1.052l-2.03 7.612c-.12.485-.126.833-.017 1.05.108.22.404.328.887.328h3.336c.483 0 .839-.109 1.068-.327.23-.218.405-.566.525-1.051zm5.256 12.325c-.339 1.208-.725 2.223-1.16 3.046-.436.82-.948 1.485-1.54 1.993a5.309 5.309 0 0 1-2.065 1.085c-.787.219-1.687.327-2.702.327h-16.612l.906-3.335h11.61c.459 0 .84-.034 1.142-.108.301-.072.556-.198.762-.381.204-.18.379-.441.526-.779.144-.338.289-.761.434-1.267l.144-.58h-8.989c-.99 0-1.788-.127-2.392-.383-.605-.253-1.057-.616-1.359-1.087-.302-.472-.466-1.032-.49-1.685-.024-.652.073-1.365.29-2.138l1.74-6.452c.41-1.57 1.154-2.846 2.23-3.825 1.074-.979 2.592-1.468 4.548-1.468h17.544c-.072.29-.144.556-.218.797a72.718 72.718 0 0 0-.544 1.959l-.47 1.776-3.335 12.505m8.083-18.705l1.196-4.495h8.41l-1.197 4.495zm-5.075 18.705l4.568-17.037h8.553l-4.566 17.037h-8.555m16.492 0a6.95 6.95 0 0 1-1.867-.236 2.869 2.869 0 0 1-1.396-.833c-.361-.4-.592-.943-.688-1.632-.096-.688 0-1.564.29-2.628l4.132-15.406h8.554l-.978 3.698h5.365l-.907 3.335h-5.364l-2.392 8.989c-.145.556-.152.925-.018 1.105.133.182.585.273 1.358.273h4.132l-.905 3.335h-9.316m27.875-8.083h-3.807c-.652 0-1.141.085-1.468.253-.327.169-.573.568-.743 1.197l-.472 1.85c-.193.626-.169 1.026.074 1.194.241.17.689.254 1.341.254h1.993c.412 0 .738-.006.978-.018.241-.012.441-.078.598-.2.158-.12.291-.32.399-.597.108-.278.236-.695.381-1.251zm-11.419 8.083c-.967 0-1.74-.104-2.32-.309-.58-.204-.996-.519-1.25-.941-.254-.423-.374-.955-.363-1.597.013-.64.14-1.406.381-2.3l.327-1.125c.241-.893.525-1.661.85-2.301a5.282 5.282 0 0 1 1.215-1.595c.483-.422 1.07-.737 1.757-.943.69-.205 1.518-.307 2.484-.307h9.243c.025-.122.041-.218.053-.291.014-.07.032-.139.056-.199s.047-.145.072-.254c.024-.108.06-.259.108-.451.122-.387.11-.665-.034-.835-.146-.169-.522-.254-1.124-.254h-11.872l.905-3.335h16.15c1.014 0 1.854.11 2.518.327.665.217 1.16.58 1.487 1.087.328.509.49 1.167.49 1.975 0 .81-.158 1.795-.472 2.955l-1.993 7.503c-.121.434-.219.785-.29 1.05-.071.267-.134.509-.18.726a13.29 13.29 0 0 1-.165.634c-.06.206-.14.466-.234.78H200.46m20.479 0c.097-.338.176-.623.236-.852.06-.23.128-.472.2-.725.072-.254.157-.563.253-.924.096-.363.217-.834.363-1.413l4.132-15.37c.145-.58.272-1.069.381-1.468.108-.398.2-.744.27-1.033.074-.29.14-.544.202-.762.059-.217.113-.434.163-.653h8.553l-5.145 19.286c-.147.58-.268 1.05-.364 1.413-.096.361-.182.67-.254.924-.073.253-.14.495-.2.725-.061.23-.138.514-.236.852h-8.554m47.664-17.363c.22-.82.2-1.365-.054-1.631-.253-.266-.694-.398-1.322-.398h-4.314l-2.102 7.938h4.349c1.257 0 2.067-.69 2.43-2.065zm-5.182 17.363l-1.813-7.576h-1.848l-2.03 7.576h-9.243l6.198-23.2h18.632c.555 0 1.159.087 1.811.256.653.168 1.233.47 1.74.906.508.433.87 1.014 1.088 1.738.217.727.181 1.644-.11 2.757l-1.122 4.095a9.623 9.623 0 0 1-.617 1.576 7.448 7.448 0 0 1-1.014 1.54 7.613 7.613 0 0 1-1.45 1.306 7.515 7.515 0 0 1-1.922.942l2.103 8.084h-10.403m29.831-12.325c.12-.483.127-.833.017-1.052-.108-.216-.404-.325-.888-.325h-3.514c-.486 0-.84.11-1.07.325-.23.219-.406.57-.528 1.052l-.722 2.683h5.981zm-7.576 6.017l-.327 1.232c-.193.63-.169 1.078.074 1.343.24.265.712.398 1.412.398h12.045l-.905 3.335h-17.627c-.968 0-1.741-.104-2.32-.309-.581-.204-.996-.519-1.252-.941-.252-.423-.373-.955-.361-1.597.012-.64.138-1.406.381-2.3l1.81-6.742c.242-.895.527-1.661.854-2.303a5.24 5.24 0 0 1 1.213-1.593c.484-.424 1.07-.738 1.76-.943.687-.207 1.515-.31 2.482-.31h13.013c.965 0 1.739.103 2.32.31.579.205.996.519 1.25.943.254.421.374.954.362 1.593-.012.642-.139 1.408-.38 2.303l-1.487 5.581h-14.317m32.514-6.089c.12-.484.109-.822-.035-1.015-.146-.194-.424-.29-.834-.29h-3.408c-.412 0-.738.096-.978.29-.242.193-.424.531-.544 1.015l-2.103 7.756c-.121.484-.11.822.036 1.016.145.194.423.29.833.29h3.408c.411 0 .738-.096.98-.29.24-.194.422-.532.543-1.016zm6.634 7.105c-.412 1.571-1.156 2.845-2.23 3.823-1.075.979-2.593 1.47-4.549 1.47H300.5c.073-.242.135-.466.183-.671a26.403 26.403 0 0 1 .381-1.434c.084-.288.187-.652.308-1.086.943-3.552 1.799-6.754 2.572-9.606.315-1.208.628-2.404.943-3.59.314-1.182.6-2.258.852-3.223.253-.968.465-1.77.634-2.412.17-.64.279-1.032.327-1.179h8.555l-1.632 6.163h8.989c.967 0 1.759.128 2.376.38.615.255 1.073.616 1.376 1.088.301.47.464 1.033.49 1.685.023.654-.073 1.367-.291 2.14l-1.739 6.452m17.361-2.791h-3.805c-.653 0-1.141.085-1.468.253-.327.169-.575.568-.744 1.197l-.47 1.85c-.194.626-.17 1.026.071 1.194.242.17.69.254 1.342.254h1.993c.412 0 .737-.006.98-.018.24-.012.44-.078.597-.2.158-.12.291-.32.399-.597.11-.278.236-.695.381-1.251zm-11.417 8.083c-.967 0-1.74-.104-2.32-.309-.58-.204-.996-.519-1.25-.941-.254-.423-.374-.955-.363-1.597.012-.64.14-1.406.381-2.3l.327-1.125c.24-.893.524-1.661.85-2.301a5.24 5.24 0 0 1 1.215-1.595c.483-.422 1.07-.737 1.759-.943.686-.205 1.514-.307 2.481-.307h9.244a9.83 9.83 0 0 0 .055-.291.832.832 0 0 1 .054-.199c.023-.06.047-.145.072-.254.024-.108.06-.259.108-.451.122-.387.11-.665-.036-.835-.144-.169-.52-.254-1.124-.254h-11.816l.907-3.335h16.093c1.015 0 1.855.11 2.52.327.664.217 1.16.58 1.486 1.087.326.509.489 1.167.489 1.975 0 .81-.157 1.795-.47 2.955l-1.994 7.503c-.121.434-.219.785-.29 1.05a15.4 15.4 0 0 0-.182.726c-.05.217-.103.429-.163.634-.06.206-.14.466-.236.78h-17.797m34.616-13.703c-.532 0-.925.103-1.177.31-.255.205-.454.574-.6 1.105l-2.247 8.374a77.43 77.43 0 0 1-.344 1.34c-.084.314-.163.592-.236.834-.072.242-.139.483-.199.724-.06.242-.15.58-.272 1.016h-9.206c.12-.436.212-.768.272-.998.061-.228.125-.464.198-.707.074-.24.151-.524.236-.85l.346-1.36 1.846-6.923c.508-1.91 1.355-3.419 2.539-4.532 1.183-1.11 2.79-1.667 4.82-1.667h9.39c-.05.218-.117.472-.2.761-.086.29-.17.587-.255.89-.084.3-.163.604-.236.905a9.05 9.05 0 0 1-.216.779h-4.459"/><path fill="#8f9295" d="M49.483 435.25c0 1.08-.206 1.804-.617 2.18-.414.373-1.164.56-2.257.56h-6.915c-1.093 0-1.846-.187-2.257-.56-.411-.376-.618-1.1-.618-2.18v-6.105c0-1.078.207-1.807.618-2.178.41-.375 1.164-.563 2.257-.563h6.915c1.376 0 2.229.322 2.558.967.21.374.316 1.332.316 2.873l-2.695.425v-2.198h-7.273v7.34h7.273v-2.49l2.695.56v1.37m15.826 2.739H53.926v-11.586h2.695v9.408h8.688v2.179m13.741-2.179v-7.341h-8.89v7.34zm2.694-.562c0 1.08-.205 1.804-.618 2.18-.41.373-1.164.56-2.256.56h-8.53c-1.094 0-1.846-.187-2.258-.56-.41-.376-.617-1.1-.617-2.18v-6.105c0-1.078.206-1.807.617-2.178.412-.375 1.164-.563 2.257-.563h8.53c1.093 0 1.846.188 2.257.563.413.371.618 1.1.618 2.178v6.105m17.624 0c0 1.08-.205 1.804-.618 2.18-.41.373-1.164.56-2.255.56h-7.319c-1.092 0-1.845-.187-2.256-.56-.413-.376-.617-1.1-.617-2.18v-8.846h2.692v9.408h7.68v-9.408h2.693v8.846m16.098-3.166c0-2.41-1.273-3.613-3.817-3.613h-4.783v7.34h3.48c1.647 0 2.843-.208 3.593-.628 1.017-.568 1.527-1.6 1.527-3.1zm2.782.045c0 2.247-.852 3.9-2.557 4.962-.974.598-2.56.9-4.761.9h-6.757v-11.587h7.452c2.006 0 3.578.45 4.716 1.348 1.272.986 1.907 2.447 1.907 4.377m24.989 5.861h-1.841l-8.51-7.162c-.359-.3-.68-.613-.964-.943.075.748.112 1.338.112 1.774v6.332h-2.425v-11.587h1.842l8.149 6.826c.585.493 1.025.914 1.324 1.258-.075-1.079-.11-1.744-.11-2v-6.084h2.423v11.587m12.819-4.626l-2.492-4.716-2.581 4.716zm5.545 4.626h-3.03l-1.392-2.54h-7.342l-1.346 2.54h-2.695l6.555-11.587h2.605l6.645 11.587m11.787-9.521h-5.343v9.52h-2.694v-9.52h-5.32v-2.066h13.357v2.067m4.873 9.519h-2.696v-11.586h2.696v11.587m16.949-11.587l-6.377 11.587h-1.862l-6.69-11.587h3.075l4.692 8.375 4.47-8.375h2.693m13.988 11.586h-11.967v-11.586h11.853v1.977h-9.158v2.581h5.341v1.976h-5.341v2.874h9.272v2.179m21.529-3.121v-.875c0-.436-.1-.716-.301-.843-.204-.128-.538-.192-1-.192h-6.154v2.941h6.154c.462 0 .796-.064 1-.19.201-.128.301-.407.301-.842zm-.067-4.65v-1.1c0-.553-.41-.83-1.234-.83h-6.154v2.764h6.154c.824 0 1.234-.278 1.234-.834zm2.582 5.501c0 1.512-1.139 2.27-3.414 2.27h-9.204v-11.587h9.924c1.736 0 2.604.75 2.604 2.245v1.414c0 1.14-.666 1.789-1.998 1.953 1.392.181 2.088.922 2.088 2.224v1.481m12.122-2.356l-2.492-4.716-2.581 4.716zm5.548 4.626h-3.032l-1.392-2.54h-7.341l-1.348 2.54h-2.693l6.554-11.587h2.606l6.646 11.587m12.526-7.275v-1.392c0-.39-.112-.644-.336-.764-.166-.104-.456-.157-.875-.157h-6.063v3.232h6.063c.419 0 .71-.051.875-.156.224-.12.336-.374.336-.763zm3.817 7.275h-3.863l-4.668-4.38h-2.56v4.38h-2.649v-11.587h9.923c1.736 0 2.604.75 2.604 2.245v2.718c0 1.12-.447 1.817-1.347 2.088-.344.104-1.27.156-2.784.156l5.344 4.38m15.111-.001h-11.968v-11.586h11.854v1.977h-9.16v2.581h5.342v1.976h-5.342v2.874h9.274v2.179m26.536-.001h-2.492v-7.207c0-.255.028-.652.088-1.19-.132.284-.358.687-.672 1.212l-4.355 5.792h-.539l-4.356-5.814a5.326 5.326 0 0 1-.697-1.19c.047.463.068.845.068 1.144v7.254h-2.179v-11.587h2.179l5.456 7.005 5.343-7.005h2.156v11.587m16.524-.001h-11.968v-11.586h11.854v1.977h-9.158v2.581h5.341v1.976h-5.341v2.874h9.272v2.179m14.592-9.521h-5.344v9.52h-2.692v-9.52h-5.322v-2.066h13.358v2.067m8.666 4.894l-2.492-4.716-2.582 4.716zm5.547 4.626h-3.03l-1.393-2.54h-7.341l-1.35 2.54h-2.691l6.554-11.587h2.604l6.647 11.587m13.985-.001h-11.382v-11.586h2.694v9.408h8.688v2.179"/><path fill="#fff" d="M159.13 17.375S149.643-.36 138.302 4.589C126.96 9.54 122.219 18.2 127.786 24.385c5.567 6.187 10.105 15.672 10.105 15.672s-13.816 50.316 1.649 64.544c15.465 14.23 58.563 33.406 58.563 33.406s47.429-17.94 56.501-32.168c9.073-14.23 3.25-48.756.181-56.342-3.068-7.584-4.717-12.738-4.717-12.738s16.085-10.104 12.785-17.734c-3.3-7.63-8.866-17.528-16.29-14.022-7.424 3.505-13.198 12.165-13.198 12.165s-38.973-13.197-74.236.207"/><path fill="#8f9295" d="M238.035 67.87h-34.752L182.56 47.688s-7.592 3.729-13.176 12.465c-5.159 8.07-6.667 13.42-6.667 13.42s-8.284-4.684-15.309-18.284c-5.677-10.99-5.368-20.884-5.368-20.884s-11.026 30.7-7.759 53.572c3.267 22.87 31.396 33.7 41.495 38.75 10.1 5.049 21.907 12.271 21.907 12.271s39.086-17.622 47.7-24.453c8.613-6.832 13.892-13.952 14.19-17.813.298-3.862.856-24.362-1.224-33.272-2.08-8.912-6.284-22.042-6.284-22.042s2.492 16.308-3.152 25.22c-5.644 8.91-9.726 8.556-9.726 8.556l-1.152-7.322"/><path fill="#515257" d="M238.39 104.407l-55.769.109-.24-54.992s-7.877 21.037-10.392 41.761c-2.326 19.158-1.018 24.924 6.828 31.867 2.563 2.267 19.159 9.004 19.159 9.004l34.03-17.03 7.266-2.35.401-2.443s9.951-4.825 11.932-9.561c1.983-4.735 1.874-10.021 1.874-10.021s-2.534 6.938-6.718 9.801c-4.185 2.864-8.37 3.855-8.37 3.855"/><path fill="#8f9295" d="M241.705 21.728s9.724-11.6 13.99-10.407c4.264 1.195 6.312 11.43 5.288 14.331-1.024 2.9-10.919 9.724-10.919 9.212 0-.512-8.359-13.136-8.359-13.136M141.053 36.057c.342-.51 8.531-8.87 9.895-9.893a20.173 20.173 0 0 1 2.73-1.707s-10.407-12.112-14.16-13.306c-3.753-1.194-6.824-.683-8.7 1.536-1.877 2.217-4.265 6.824-1.364 11.77 2.9 4.948 11.6 11.6 11.6 11.6"/><path fill="#100f0d" d="M254.003 38.333l-4.512-6.068c4.809-3.578 9.589-8.276 10.028-9.854.482-2.531-4.12-13.635-10.086-14.79-2.112-.408-6.097 1.134-13.076 10.796-.652.904-.98 1.359-1.356 1.734l-5.344-5.35 2.671 2.675-2.797-2.539c.15-.181.382-.512.696-.945 3.082-4.27 11.269-15.613 20.644-13.793 4.337.84 8.524 4.126 11.789 9.253 2.73 4.287 5.207 10.743 4.193 14.796-1.29 5.164-10.161 12.085-12.85 14.085"/><path fill="#100f0d" d="M142.17 7.685c-1.233 0-5.36 2.051-9.122 6.124-2.658 2.88-3.474 5.071-3.373 5.84.416 3.192 6.62 9.83 10.681 13.311l1.684 1.444-.437 2.175c-.082.4-7.999 40.316-2.462 59.941 4.242 15.041 42.522 32.681 58.751 38.961 13.825-6.286 46.804-22.325 54.812-30.934.921-.992 3.876-5.427 3.144-20.834-1.025-21.578-8.648-48.64-15.39-54.633-10.597-9.417-24.809-13.13-49.051-12.877-21.918.248-29.495 4.258-29.57 4.298l-2.566 1.403-2.052-2.105c-5.882-6.26-12.89-11.92-14.999-12.114h-.05zm54.625 135.958l-1.459-.547c-5.983-2.248-57.28-22.57-63.473-44.524-5.316-18.847.28-52.468 1.918-61.345-3.596-3.306-10.825-10.623-11.604-16.602-.585-4.478 2.568-8.969 5.315-11.944 4.085-4.426 10.317-8.834 15.115-8.546 5.372.269 13.6 7.81 18.28 12.569 4.185-1.521 13.358-3.87 30.434-4.061 26.308-.274 42.011 3.989 54.162 14.788 9.273 8.244 16.886 38.196 17.917 59.922.624 13.128-1.113 21.992-5.16 26.344-11.035 11.86-58.085 32.436-60.027 33.308l-1.418.638"/><path fill="#100f0d" d="M234.593 41.661h-65.405c-4.837 0-6.732 5.66-6.732 5.66h78.868s-1.893-5.66-6.73-5.66"/><path fill="#100f0d" d="M241.312 116.223h-59.713s2.19-5.843 7.6-5.843H237.1c.366-13.228.658-40.743.006-43.384-.567-2.303-9.65-11.38-17.724-21.863l3.34-3.014c3.997 5.192 18.65 19.321 19.72 23.664 1.058 4.297.246 42.26.072 48.042l-1.203 2.398"/><path fill="#100f0d" d="M215.105 87.712h14.462l6.362-17.765h-28.948l8.124 17.765m-71.15-55.065l6.312-5.802s-9.043-11.429-11.602-10.917c-2.558.512-5.288 3.241-4.434 5.117.852 1.878 9.724 11.602 9.724 11.602m101.675-8.36s6.653-8.53 8.529-7.507c1.877 1.024 2.729 3.584 1.877 5.46-.853 1.876-6.995 8.359-6.995 8.359l-3.412-6.312"/></svg>