<svg xmlns="http://www.w3.org/2000/svg" role="img" viewBox="-57.25 -57.25 2977.00 562.00"><title>Doppler (member) logo</title><g clip-path="url(#clip0_3683_2)"><path fill="#111" d="M750.058 323.318c3.293.299 7.036.599 11.227.898h15.719c35.029 0 60.926-8.83 77.692-26.491 17.066-17.661 25.598-42.056 25.598-73.187 0-32.627-8.083-57.322-24.251-74.085-16.167-16.763-41.765-25.144-76.794-25.144-4.79 0-9.73.15-14.82.449-3.852 0-7.533.171-11.042.514-1.909.187-3.329 1.817-3.329 3.735v193.311zm202.54-98.78c0 26.94-4.192 50.438-12.575 70.493-8.383 20.055-20.358 36.668-35.927 49.839-15.269 13.171-33.981 23.049-56.136 29.634-22.155 6.585-47.005 9.878-74.549 9.878-12.575 0-27.245-.599-44.011-1.796-16.766-.898-33.233-2.993-49.4-6.286V76.4092c0-1.8453 1.316-3.4301 3.133-3.7499 15.198-2.6741 30.919-4.4312 47.165-5.2713 17.664-1.1973 32.784-1.796 45.358-1.796 26.646 0 50.748 2.9933 72.304 8.98 21.856 5.9867 40.568 15.4157 56.136 28.287 15.569 12.871 27.544 29.335 35.927 49.39s12.575 44.152 12.575 72.289zm140.922 0c0 15.266 1.8 29.035 5.39 41.308 3.9 12.273 9.28 22.899 16.17 31.879 7.19 8.681 15.87 15.416 26.05 20.205 10.18 4.789 21.85 7.184 35.03 7.184 12.87 0 24.4-2.395 34.58-7.184 10.48-4.789 19.16-11.524 26.04-20.205 7.19-8.98 12.58-19.606 16.17-31.879 3.89-12.273 5.84-26.042 5.84-41.308 0-15.266-1.95-29.035-5.84-41.308-3.59-12.572-8.98-23.198-16.17-31.879-6.88-8.98-15.56-15.865-26.04-20.654-10.18-4.789-21.71-7.184-34.58-7.184-13.18 0-24.85 2.544-35.03 7.633-10.18 4.789-18.86 11.674-26.05 20.654-6.89 8.681-12.27 19.307-16.17 31.879-3.59 12.273-5.39 25.892-5.39 40.859zm237.57 0c0 26.641-4.04 50.138-12.12 70.493-7.79 20.055-18.56 36.968-32.34 50.737-13.77 13.47-30.24 23.647-49.4 30.532-18.86 6.885-39.22 10.327-61.07 10.327-21.26 0-41.32-3.442-60.18-10.327s-35.33-17.062-49.4-30.532c-14.07-13.769-25.15-30.682-33.23-50.737-8.09-20.355-12.13-43.852-12.13-70.493s4.19-49.989 12.58-70.044c8.38-20.355 19.61-37.417 33.68-51.186 14.37-13.7693 30.83-24.0963 49.4-30.981C1135.74 65.4423 1155.5 62 1176.16 62c21.25 0 41.31 3.4423 60.18 10.327 18.86 6.8847 35.32 17.2117 49.4 30.981 14.07 13.769 25.14 30.831 33.23 51.186 8.08 20.055 12.12 43.403 12.12 70.044zm175.39-158.946c46.41 0 82.03 8.2317 106.88 24.695 24.85 16.164 37.28 42.805 37.28 79.922 0 37.417-12.58 64.506-37.72 81.269-25.15 16.463-61.08 24.695-107.79 24.695h-18.17c-2.12 0-3.83 1.714-3.83 3.828v96.509c0 2.116-1.72 3.831-3.83 3.831h-66.23V76.8271c0-1.8318 1.3-3.4095 3.1-3.7455 14.35-2.679 29.49-4.5769 45.4-5.6936 17.07-1.1973 32.04-1.796 44.91-1.796zm4.49 59.717c-5.09 0-10.18.15-15.27.449-3.3.207-6.32.413-9.06.62-1.99.15-3.51 1.809-3.51 3.8v86.278h22c24.25 0 42.52-3.293 54.79-9.878 12.28-6.585 18.42-18.858 18.42-36.818 0-8.681-1.65-15.865-4.94-21.552-3-5.687-7.49-10.177-13.48-13.47-5.69-3.592-12.72-5.987-21.1-7.184-8.39-1.497-17.67-2.245-27.85-2.245zm308.1-59.717c46.41 0 82.04 8.2317 106.89 24.695 24.85 16.164 37.27 42.805 37.27 79.922 0 37.417-12.57 64.506-37.72 81.269-25.15 16.463-61.08 24.695-107.78 24.695h-18.18c-2.12 0-3.83 1.714-3.83 3.828v96.509c0 2.116-1.72 3.831-3.83 3.831h-66.23V76.8243c0-1.8301 1.3-3.4064 3.1-3.7422 14.35-2.6793 29.49-4.5773 45.4-5.6941 17.07-1.1973 32.04-1.796 44.91-1.796zm4.49 59.717c-5.09 0-10.18.15-15.27.449-3.3.207-6.32.413-9.06.62-1.98.15-3.51 1.809-3.51 3.8v86.278h22.01c24.25 0 42.51-3.293 54.78-9.878 12.28-6.585 18.42-18.858 18.42-36.818 0-8.681-1.65-15.865-4.94-21.552-3-5.687-7.49-10.177-13.48-13.47-5.68-3.592-12.72-5.987-21.1-7.184-8.39-1.497-17.67-2.245-27.85-2.245zm412.94 194.866c.7 0 1.28.571 1.28 1.276v57.614c0 .705-.58 1.276-1.28 1.276h-198.25V91.4122c0-1.7223 1.15-3.2325 2.81-3.6902l67.25-18.538v250.991h128.19zm78.38 60.166V73.0119c0-2.1141 1.72-3.8279 3.83-3.8279h214.97c.85 0 1.47.817 1.23 1.6337l-16.44 56.2673c-.16.544-.65.918-1.22.918h-128.48c-2.12 0-3.83 1.714-3.83 3.828v57.236h114.16c.85 0 1.47.816 1.23 1.633l-16 54.92c-.16.545-.66.919-1.22.919h-94.34c-2.12 0-3.83 1.714-3.83 3.828v71.155h154.72c.85 0 1.47.816 1.23 1.632l-16.34 56.267c-.16.545-.66.92-1.22.92h-208.45zm387.09-314.749c46.71 0 82.49 8.3813 107.34 25.144 24.85 16.463 37.27 42.206 37.27 77.228 0 21.851-5.09 39.662-15.27 53.431-9.88 13.47-24.25 24.096-43.11 31.879 6.29 7.783 12.87 16.763 19.76 26.94 6.88 9.878 13.62 20.355 20.21 31.43 6.88 10.776 13.47 22.151 19.76 34.124 5.95 11.051 11.5 21.968 16.65 32.751.4.846-.22 1.822-1.16 1.822h-75.82c-.46 0-.89-.25-1.11-.654-5.58-9.966-11.29-20.075-17.15-30.327-5.69-10.477-11.68-20.654-17.97-30.532-5.98-9.878-11.97-19.157-17.96-27.838-5.99-8.98-11.98-17.062-17.96-24.246h-30.76c-2.11 0-3.82 1.714-3.82 3.828V376.51c0 2.116-1.72 3.831-3.83 3.831h-66.23V76.8243c0-1.8301 1.29-3.4063 3.09-3.7434 14.3-2.6786 28.99-4.5763 44.06-5.6929 16.47-1.1973 31.14-1.796 44.01-1.796zm4.05 59.717c-5.09 0-9.73.15-13.93.449-2.64.203-5.21.406-7.71.609-1.99.161-3.51 1.82-3.51 3.811v80.89h19.76c26.34 0 45.2-3.293 56.58-9.878 11.38-6.585 17.07-17.81 17.07-33.675 0-15.266-5.84-26.042-17.52-32.328-11.37-6.585-28.29-9.878-50.74-9.878z"/><path fill="url(#paint0_linear_3683_2)" fill-rule="evenodd" d="M3.26032 0C1.84923 0 .99666 1.55915 1.75648 2.74821L91.4603 143.126c2.6193 4.099 7.1112 6.58 11.9757 6.58h120.945c39.915 0 64.867 35.285 64.721 74.794-.146 39.509-26.737 74.443-64.721 74.443H100.766c-2.6245 0-4.7035 2.127-4.7035 4.751v140.559c0 2.622 2.0946 4.747 4.7165 4.747h155.837c128.509 0 192.397-121.899 192.475-224.5C449.169 121.899 386.029 0 256.616 0H3.26032zM63.0371 299.293H32.1565C14.397 299.293 0 316.043 0 336.705v110.959c0 .705.57126 1.276 1.27595 1.276H32.1565c17.7596 0 32.1566-16.75 32.1566-37.412V300.569c0-.705-.5713-1.276-1.276-1.276z" clip-rule="evenodd"/></g><defs><linearGradient id="paint0_linear_3683_2" x1="358.45" x2="41.17" y1="-14.932" y2="410.709" gradientUnits="userSpaceOnUse"><stop stop-color="#33A9FF"/><stop offset="0" stop-color="#33A9FF"/><stop offset="1" stop-color="#1673FF"/></linearGradient><clipPath id="clip0_3683_2"><path fill="#fff" d="M0 0h2865v449H0z"/></clipPath></defs></svg>