<svg xmlns="http://www.w3.org/2000/svg" role="img" viewBox="-0.27 55.48 403.78 120.53"><style>svg {enable-background:new 0 0 1400 980}</style><defs><clipPath id="a"><path d="M0 0h400v245H0V0z"/></clipPath></defs><path fill="none" d="M0 0h400v245H0z" pointer-events="none"/><g clip-path="url(#a)" transform="translate(-24.682 -14.656) scale(1.13014)"><path fill="#41B43C" d="M47.209 152.722v-32.548h-9.3v32.548H33.26l9.299 9.3 9.299-9.3h-4.649"/><path fill="#231F20" d="M33.26 110.875v-2.327l-4.65 4.652 4.65 4.648v-2.324h27.898v-4.649H33.26"/><path fill="#41B43C" d="M75.107 69.027L56.508 87.626h9.3v41.848h18.599V87.626h9.299L75.107 69.027z"/><path fill="#231F20" d="M103.006 141.098l-13.95-13.95v6.975H51.858v13.95h37.198v6.973l13.95-13.948m37.868-25.702c-2.155-1.855-6.114-4.311-15.235-4.311h-8.418v37.085h6.869l-.004-30.67h1.303c4.31 0 7.918.501 10.775 3.108 2.405 2.105 3.958 5.512 3.958 9.121 0 3.958-1.904 8.218-5.563 10.223-2.345 1.254-4.366 1.658-7.008 1.768v6.418c3.694-.135 7.632-.733 10.567-2.373 5.412-2.957 8.87-9.371 8.87-16.036 0-5.814-2.605-11.327-6.114-14.333m29.03 4.961h6.665v27.813h-6.665v-27.813zm9.522 0h7.216l6.716 18.442h.15l6.314-18.442h7.316l-11.275 27.813h-5.212l-11.225-27.813z"/><path fill="#41B43C" d="M294.491 139.1c-2.256 6.214-7.418 9.972-13.933 9.972-7.116 0-14.783-5.713-14.783-14.934 0-8.519 7.066-14.733 14.734-14.733 3.507 0 11.124 1.603 13.982 10.173h-7.518c-.802-1.403-2.355-4.059-6.464-4.059-4.059 0-8.069 3.006-8.069 8.72 0 4.76 3.357 8.72 8.369 8.72 2.205 0 4.41-1.053 6.164-3.859h7.518m37.8-28.015h6.664v37.085h-6.664v-37.085m-5.577 9.272H320.6v3.508h-.102c-.199-.401-3.557-4.46-9.22-4.46-7.717 0-13.931 6.164-13.931 14.683 0 9.271 6.364 14.984 13.53 14.984 2.057 0 4.319-.641 6.264-1.674v-6.011a8.174 8.174 0 0 1-4.86 1.572c-4.762 0-8.269-3.86-8.269-8.57 0-4.16 2.806-8.87 8.269-8.87 3.958 0 8.32 2.894 8.32 8.657l-.001.007h.003v13.987h6.111v-27.813m-76.023-10.023c-6.264 0-10.874 4.661-10.874 10.574 0 7.818 5.963 9.572 8.82 10.675 4.61 1.754 7.066 2.455 7.066 6.264 0 2.806-2.406 4.661-5.112 4.661-1.709 0-3.65-.827-4.507-3.124h-7.405c1.267 6.814 7.476 9.538 11.861 9.538 5.814 0 12.029-3.809 12.029-11.827 0-8.068-6.666-10.424-9.723-11.426-3.758-1.253-6.164-1.954-6.164-5.162 0-2.205 1.654-3.759 3.809-3.759 1.653 0 3.422.682 4.001 3.173h7.088c-.831-6.841-6.773-9.587-10.889-9.587"/><path fill="#231F20" d="M217.588 137.246h18.37c.2-.902.4-2.055.4-3.358 0-7.016-5.561-14.633-14.382-14.633-8.57 0-14.633 7.216-14.633 15.084 0 8.118 6.415 14.733 14.683 14.733 6.515 0 11.827-4.661 13.43-9.672h-7.016c-1.252 2.306-3.456 3.559-6.414 3.559-4.439 0-6.991-3.388-7.562-5.31a4.754 4.754 0 0 1-.148-.45c-.214-.641-.371-1.516-.388-2.799-.009-.811.057-1.717.233-2.517h-.003l.013-.045c.059-.258.128-.506.209-.734l.004.001c1.466-4.516 5.316-5.736 7.642-5.736 3.307 0 6.766 2.054 7.517 6.514h-11.955v5.363"/><path fill="#41B43C" d="M353.409 137.246h18.371c.2-.902.4-2.055.4-3.358 0-7.016-5.562-14.633-14.382-14.633-8.57 0-14.633 7.216-14.633 15.084 0 8.118 6.414 14.733 14.682 14.733 6.516 0 11.827-4.661 13.431-9.672h-7.016c-1.253 2.306-3.458 3.559-6.415 3.559-4.439 0-6.991-3.388-7.561-5.31a5.653 5.653 0 0 1-.149-.45c-.212-.641-.37-1.516-.387-2.799-.01-.811.058-1.717.232-2.517h-.002l.013-.045c.058-.258.126-.506.209-.734l.003.001c1.466-4.516 5.317-5.736 7.642-5.736 3.308 0 6.766 2.054 7.518 6.514h-11.956v5.363"/><path fill="#231F20" d="M163.984 120.345v.004h-.549c-3.054 0-4.388 1.252-5.521 2.789v.011c-.148.201-.293.404-.434.608h-.099l-.006-3.406-6.109.006v27.813h6.656v-15.634.943c0-1.653 0-6.414 6.065-6.665v-.003h2.096v-6.466h-2.099"/></g></svg>