<?xml version="1.0" standalone="no"?>
<!DOCTYPE svg PUBLIC "-//W3C//DTD SVG 20010904//EN"
 "http://www.w3.org/TR/2001/REC-SVG-20010904/DTD/svg10.dtd">
<svg version="1.0" xmlns="http://www.w3.org/2000/svg"
 width="402.000000pt" height="169.000000pt" viewBox="-5.939999999999998 -0.28000000000000114 412.88 170.56"
 preserveAspectRatio="xMidYMid meet">

<g transform="translate(0.000000,169.000000) scale(0.100000,-0.100000)"
fill="#000000" stroke="none">
<path d="M1825 1648 c-17 -49 -355 -1602 -351 -1614 6 -15 42 -19 50 -6 11 18
357 1593 354 1610 -4 21 -46 29 -53 10z"/>
<path d="M3712 1558 c-9 -9 -12 -65 -12 -200 l0 -188 -105 0 c-104 0 -105 0
-105 -24 0 -31 15 -36 120 -36 l88 0 4 -233 c3 -226 4 -234 28 -282 31 -59 97
-109 161 -119 76 -12 98 45 22 59 -53 9 -98 39 -125 83 -22 35 -23 48 -26 265
l-4 227 99 0 c105 0 142 12 130 44 -5 13 -24 16 -116 16 l-111 0 -2 197 c-3
168 -5 198 -18 201 -9 1 -21 -3 -28 -10z"/>
<path d="M361 1543 c-55 -19 -119 -82 -149 -145 -24 -53 -21 -78 12 -78 15 0
29 15 52 58 37 70 93 112 158 119 43 5 49 3 79 -29 39 -42 67 -124 74 -222 l6
-71 -91 -13 c-234 -31 -410 -149 -457 -306 -65 -212 7 -365 180 -383 122 -13
244 49 315 158 79 122 105 245 105 499 0 160 -3 206 -18 255 -47 154 -133 205
-266 158z m225 -527 c-11 -162 -57 -305 -125 -386 -41 -50 -117 -89 -187 -96
-80 -8 -139 22 -172 86 -20 38 -23 55 -18 110 7 94 31 153 87 214 81 88 250
160 388 165 l34 1 -7 -94z"/>
<path d="M1334 1153 c-38 -170 -83 -314 -139 -449 -24 -59 -48 -111 -53 -116
-5 -5 -72 113 -163 287 -143 274 -156 295 -179 293 -14 -2 -26 -10 -28 -18 -1
-8 72 -157 163 -330 91 -173 163 -320 161 -327 -12 -31 -104 -160 -150 -210
-103 -114 -217 -178 -341 -191 -56 -7 -60 -9 -63 -34 -3 -27 -2 -28 45 -28
129 0 252 60 374 180 129 129 230 297 318 532 45 118 109 346 113 398 3 31 0
35 -24 38 -23 3 -28 -1 -34 -25z"/>
<path d="M3013 1160 c-75 -30 -146 -98 -185 -178 -29 -58 -33 -76 -33 -147 0
-110 23 -171 91 -244 73 -79 151 -114 254 -115 89 0 156 20 222 69 54 40 103
107 94 130 -10 27 -49 17 -73 -19 -52 -81 -189 -137 -284 -117 -67 15 -117 42
-161 88 -45 47 -83 124 -65 135 415 243 503 298 505 312 5 24 -14 44 -72 74
-71 36 -216 42 -293 12z m251 -62 l29 -15 -119 -70 c-276 -163 -316 -185 -321
-179 -10 9 17 99 43 143 30 52 95 108 148 127 51 19 179 16 220 -6z"/>
<path d="M2115 1158 c-3 -7 -4 -159 -3 -338 l3 -325 25 0 25 0 3 232 2 232 60
46 c80 62 174 105 228 105 54 0 77 -12 99 -53 16 -27 19 -69 23 -297 l5 -265
25 0 25 0 0 275 c0 267 -1 276 -23 318 -35 66 -72 84 -162 79 -82 -4 -166 -38
-242 -99 l-37 -29 -3 63 c-3 57 -5 63 -26 66 -12 2 -24 -3 -27 -10z"/>
</g>
</svg>
