<?xml version="1.0" encoding="UTF-8" standalone="yes"?>
<svg version="1.1" id="Layer_1" xmlns="http://www.w3.org/2000/svg" xmlns:xlink="http://www.w3.org/1999/xlink" x="0px" y="0px" viewBox="-0.3200000000000003 0.79 431.64 313.42" style="enable-background:new 0 0 432 321;" xml:space="preserve">
  <style type="text/css">
	.st0{fill:none;}
	.st1{fill:url(#SVGID_1_);}
	.st2{fill:url(#SVGID_2_);}
</style>
  <g>
    <path class="st0" d="M314.2,56.3c0.9-2.1,1.6-5.4,1.6-5.4c0.2-1.2-0.2-3.2-1.8-2.5c-1.7,0.7-0.9,2.6-1.5,5.3&#xA;&#x9;&#x9;C311.9,56.5,313.3,58.5,314.2,56.3z"/>
    <path class="st0" d="M125.6,226.7c-1.5,0-3,0.6-4.5,1.9c-1.5,1.3-2.8,3.2-3.8,5.8c-1,2.6-1.5,4.9-1.5,6.8c0,1,0.2,1.6,0.5,1.8&#xA;&#x9;&#x9;c0.3,0.2,0.7,0.3,1,0.3c1.2,0,2.8-1.1,4.8-3.4c2.1-2.3,4.1-4.9,6.1-8l0.9-4.5c-0.6-0.3-1.1-0.5-1.7-0.6&#xA;&#x9;&#x9;C126.8,226.8,126.2,226.7,125.6,226.7z"/>
    <path class="st0" d="M316.7,232.4c0-1.8-0.4-3.2-1.1-4.1c-0.7-0.9-1.7-1.4-3.1-1.4c-1.5,0-2.9,0.6-4.1,1.7&#xA;&#x9;&#x9;c-1.2,1.2-2.3,2.8-3.1,4.9c-0.8,2.1-1.2,4.3-1.2,6.5c0,1.8,0.4,3.1,1.1,4.1c0.7,0.9,1.7,1.4,2.9,1.4c1.6,0,3.1-0.6,4.3-1.7&#xA;&#x9;&#x9;c1.2-1.2,2.2-2.8,3-4.9C316.3,236.7,316.7,234.6,316.7,232.4z"/>
    <path class="st0" d="M22.3,229.4c0-0.6-0.2-1.2-0.6-1.7c-0.4-0.5-1-0.7-1.8-0.7c-1.2,0-2.6,0.7-4,2.1c-1.4,1.4-2.5,3.6-3.2,6.4&#xA;&#x9;&#x9;c3.2,0,5.7-0.7,7.2-2C21.5,232.2,22.3,230.8,22.3,229.4z"/>
    <path class="st0" d="M202.7,229.4c0-0.6-0.2-1.2-0.6-1.7c-0.4-0.5-1-0.7-1.8-0.7c-1.2,0-2.6,0.7-4,2.1c-1.4,1.4-2.5,3.6-3.2,6.4&#xA;&#x9;&#x9;c3.2,0,5.6-0.7,7.2-2C201.9,232.2,202.7,230.8,202.7,229.4z"/>
    <path class="st0" d="M239,40.5c0,0-27.8-15.6-8.7-24.6C210,9.3,206.1,29.1,239,40.5z"/>
    <path class="st0" d="M337.1,293.5c0.2,1,0.4,1.9,0.6,2.8c0.3,0.9,0.6,1.7,1,2.5s0.8,1.4,1.1,1.9c2.1-1.4,3.9-3,5.4-4.6&#xA;&#x9;&#x9;c1.5-1.6,2.9-3.5,4.3-5.6h-12.6C336.8,291.5,336.9,292.5,337.1,293.5z"/>
    <path class="st0" d="M355,226.9c-1.5,0-2.9,0.6-4.2,1.7c-1.2,1.2-2.3,2.8-3.1,4.9c-0.8,2.1-1.2,4.3-1.2,6.5c0,1.8,0.4,3.1,1.1,4.1&#xA;&#x9;&#x9;c0.7,0.9,1.7,1.4,2.9,1.4c1.6,0,3.1-0.6,4.3-1.7c1.2-1.2,2.2-2.8,3-4.9c0.8-2.1,1.2-4.3,1.2-6.4c0-1.8-0.4-3.2-1.1-4.1&#xA;&#x9;&#x9;C357.3,227.3,356.3,226.9,355,226.9z"/>
    <path class="st0" d="M384.9,226.7c-1.5,0-3,0.6-4.5,1.9c-1.5,1.3-2.8,3.2-3.8,5.8c-1,2.6-1.5,4.9-1.5,6.8c0,1,0.2,1.6,0.5,1.8&#xA;&#x9;&#x9;c0.3,0.2,0.7,0.3,1,0.3c1.2,0,2.8-1.1,4.8-3.4c2.1-2.3,4.1-4.9,6.1-8l0.9-4.5c-0.6-0.3-1.1-0.5-1.7-0.6&#xA;&#x9;&#x9;C386.1,226.8,385.5,226.7,384.9,226.7z"/>
    <path class="st1" d="M223.5,171.6c100-27.3,102.6-120.9,102.6-126.4c0-4.7-4.9,30.8-6.6,29.1c2.2-12.2,3.3-37,3.4-40.9&#xA;&#x9;&#x9;c0.1-6,0-16.5-0.5-16.8c-1.1-0.5-1.3,7.8-2,16c-0.9,9.5-1.7,15.6-3,15.8c-0.4,0-0.5-1-0.2-4.1c0,0,1-8.5,1.4-20.6&#xA;&#x9;&#x9;c0.4-12.1,0.8-19,0.4-19c-0.4,0-0.8,2.1-0.8,2.1c-0.1,6.2-0.9,9.1-1.3,19.6c-0.3,8.2-1.7,15.1-2.3,17.6c-0.4,2.2-1.9,3.3-1.7,2.2&#xA;&#x9;&#x9;l0.3-6c0.1-2.7,0.9-19.7,0.1-16.6c-0.9,3.1-2.9,16.9-2.9,16.9c-0.2,2.5-0.8,1.4-1.1,3l-1.3,6.5l-1.2-0.2c0.2-2.2,0.6-4.8,0.6-6.8&#xA;&#x9;&#x9;c-1.5-1.8-0.9,2-1.4,2.6c0,0-0.7,1.5-1.1-0.7c0.3-2.9,0.6-5.2-0.1-6.8c0-0.1,0-0.1,0-0.2c0,0,0.4-4.4,0.3-7.3c0-1.9,0.1-5.2,0-6.7&#xA;&#x9;&#x9;c0-1.4,0.1-6.3-1.3-5.5c-0.6,1.7-0.3,9.6-1.1,23.3c-0.3,4.6-0.4-21.2-1.8-15.6c-2.6,40.1-10.5,55.2-13.6,60&#xA;&#x9;&#x9;c3-7.7,10.8-30.9,7.3-42.4c-1.2,6.1-14.3,64.6-61.3,79c-44,13.4-80.2-8.5-81.8-37.7c-2.8-50.3,66.5-60.1,87.5-39.1&#xA;&#x9;&#x9;c-9.2-3.5-20.5-4.8-30.8-3.4c-15.3,2.1-29.3,13.8-29.3,28.9c0,38.7,85.8,23.3,91.3-21.5c4.5-36.2-78.8-67.7-136.2-10.3&#xA;&#x9;&#x9;C66.8,107.3,133.1,196.3,223.5,171.6z M312.5,53.8c0.5-2.7-0.2-4.6,1.5-5.3c1.6-0.7,2,1.3,1.8,2.5c0,0-0.7,3.2-1.6,5.4&#xA;&#x9;&#x9;C313.3,58.5,311.9,56.5,312.5,53.8z M230.3,15.9c-19,9,8.7,24.6,8.7,24.6C206.1,29.1,210,9.3,230.3,15.9z"/>
    <path class="st2" d="M308.8,37.8c0.5-2.7,1.4-19.6,1-22.4l-0.3-0.6l-0.2,0.1l-0.2,1.5c0.1,1.4-0.2,0.9-0.3,3.2l-0.1,3.5l-0.1,2.4&#xA;&#x9;&#x9;l-0.9,14C307.7,39.5,308.5,40,308.8,37.8z"/>
    <path d="M90.3,275.2c-0.9,0-1.9,0-3.1,0c-1.2,0-2.7,0-4.5,0c-2,0-3.5,0-4.8,0c-1.2,0-2.3,0-3.1,0c-0.8,0-1.5,0-2.1-0.1&#xA;&#x9;&#x9;c-0.6,0-1.2,0-1.7-0.1c0,0.2-0.1,0.6-0.2,1.2c-0.1,0.6-0.3,1.1-0.4,1.6l-2.8,8.3c-0.2,0.5-0.4,1.1-0.6,1.6&#xA;&#x9;&#x9;c-0.2,0.5-0.4,0.9-0.6,1.1c0.7-0.1,1.4-0.1,2.1-0.1c0.7,0,1.6,0,2.7-0.1c-0.8,0.9-1.7,1.8-2.8,2.7c-1.1,0.9-2.2,1.8-3.5,2.7&#xA;&#x9;&#x9;c-1.2,0.9-2.5,1.6-3.9,2.4c-1.4,0.7-2.7,1.4-4,1.9c0.6,0.1,1,0.4,1.4,0.7c0.3,0.3,0.6,0.7,0.6,1.1c1.7-0.9,3.2-1.9,4.5-2.8&#xA;&#x9;&#x9;c1.4-0.9,2.7-1.9,4-2.9h6.4c-1.5,1.9-3.7,3.8-6.5,5.8c-2.8,2-6.1,3.8-9.9,5.3c0.6,0.2,1.1,0.4,1.3,0.7c0.3,0.3,0.5,0.7,0.5,1.2&#xA;&#x9;&#x9;c2-1.1,3.8-2.2,5.4-3.3c1.6-1,3.1-2.1,4.5-3.2c1.4-1.1,2.7-2.1,3.8-3.2c1.2-1.1,2.3-2.2,3.3-3.4h5.6c-1.1,1.6-2.3,3.1-3.7,4.5&#xA;&#x9;&#x9;c-1.4,1.4-2.9,2.7-4.5,3.9c-1.6,1.2-3.2,2.3-5,3.3c-1.7,1-3.4,1.9-5.2,2.6c0.7,0.2,1.2,0.4,1.5,0.7c0.3,0.2,0.6,0.6,0.9,1.1&#xA;&#x9;&#x9;c4.5-2.6,8.2-5.3,11.1-8c3-2.7,5.4-5.4,7.4-8.1H89l-4.1,9.4c-0.4,0.8-0.7,1.5-1.1,1.9c-0.3,0.5-0.8,0.8-1.3,1.1&#xA;&#x9;&#x9;c-0.5,0.2-1.2,0.4-2,0.4c-0.8,0-1.9,0-3.2,0c0.2,0.5,0.4,1,0.5,1.5c0.1,0.5,0.1,1,0,1.5c1.6-0.2,2.9-0.4,3.9-0.7&#xA;&#x9;&#x9;c1-0.2,1.8-0.6,2.5-1c0.6-0.4,1.2-1,1.7-1.7c0.5-0.7,1-1.7,1.5-2.9l5.1-11.7c-0.3,0.1-0.8,0.1-1.4,0.1c-0.6,0-1.2,0.1-2,0.1&#xA;&#x9;&#x9;c-0.7,0-1.5,0-2.4,0.1c-0.9,0-1.8,0-2.7,0H69.7c0.7-0.6,1.4-1.2,2-1.9c0.7-0.6,1.4-1.3,2.1-2.1c2.6,0,4.8,0,6.5,0&#xA;&#x9;&#x9;c1.7,0,3.2,0,4.3,0c1.2,0,2.1,0.1,2.9,0.1c0.8,0,1.6,0.1,2.3,0.1c-0.1-0.2,0-0.6,0.1-1.1c0.1-0.5,0.3-1.1,0.4-1.6l2.8-8.3&#xA;&#x9;&#x9;c0.2-0.5,0.4-1.1,0.6-1.6c0.3-0.5,0.5-0.9,0.7-1.2c-0.7,0.1-1.3,0.1-2,0.1C91.9,275.1,91.1,275.1,90.3,275.2z M87.6,287H69.7&#xA;&#x9;&#x9;l1.3-3.9h17.9L87.6,287z M89.6,281.2H71.7l1.3-4h17.9L89.6,281.2z"/>
    <path d="M180.3,282c0.4-1.2,0.8-2.2,1.1-3c0.3-0.8,0.6-1.5,0.9-2.1c-0.4,0.1-0.9,0.1-1.5,0.1c-0.6,0-1.4,0.1-2.2,0.1&#xA;&#x9;&#x9;c-0.8,0-1.6,0-2.5,0.1c-0.9,0-1.8,0-2.6,0l0.8-2.4c0.1-0.2,0.2-0.4,0.3-0.6c0.1-0.2,0.3-0.3,0.5-0.5c0.3-0.3,0.5-0.5,0.5-0.6&#xA;&#x9;&#x9;c0-0.1-0.1-0.2-0.4-0.2c-0.5,0-1,0-1.5-0.1c-0.5,0-1-0.1-1.5-0.2c-0.1,0.5-0.2,1.1-0.4,1.9c-0.2,0.8-0.5,1.7-0.8,2.7&#xA;&#x9;&#x9;c-1.8,0-3.4-0.1-4.8-0.1c-1.3-0.1-2.3-0.1-3-0.2l-0.9,2.6c0.7-0.1,1.8-0.1,3.1-0.2c1.3,0,2.9-0.1,4.9-0.1l-1,2.9h-4.9&#xA;&#x9;&#x9;c-1,0-2,0-2.9-0.1c-0.9,0-1.7-0.1-2.6-0.2l-0.8,2.4c0.9-0.1,1.8-0.2,2.7-0.2c0.9,0,1.9-0.1,2.9-0.1h4.9l-1,3.1&#xA;&#x9;&#x9;c-1.7,0-3.3,0-4.7-0.1c-1.4-0.1-2.5-0.2-3.3-0.3l-0.9,2.7c0.8-0.1,1.9-0.2,3.2-0.2c1.3-0.1,3-0.1,5-0.1l-1.2,3.7&#xA;&#x9;&#x9;c-1.9,0-3.6,0-5.2-0.1c-1.6-0.1-2.9-0.1-3.8-0.2l-0.8,2.5c1-0.1,2.4-0.2,4-0.2c1.7-0.1,3.4-0.1,5.2-0.1l-1.2,3.6c-1,0-2,0-3,0&#xA;&#x9;&#x9;c-1,0-2,0-2.9-0.1c-0.9,0-1.8-0.1-2.6-0.1c-0.8,0-1.4-0.1-1.9-0.1l-0.9,2.6c0.5,0,1.2-0.1,2-0.1c0.8,0,1.7-0.1,2.6-0.1&#xA;&#x9;&#x9;c0.9,0,1.9,0,3-0.1c1,0,2,0,3,0c-0.4,1.1-0.8,2.1-1.1,3c-0.3,0.9-0.7,1.8-1,2.7h3c0.3-1,0.5-1.9,0.8-2.8c0.3-0.9,0.5-1.9,0.9-2.9&#xA;&#x9;&#x9;c1,0,2.1,0,3.1,0s2.1,0,3.1,0.1c1,0,1.8,0.1,2.6,0.1c0.8,0,1.4,0.1,1.9,0.1l0.9-2.6c-0.5,0.1-1.2,0.1-2,0.1c-0.8,0-1.7,0.1-2.7,0.1&#xA;&#x9;&#x9;c-1,0-2,0-3.1,0.1c-1.1,0-2.1,0-3.1,0l1.2-3.6c2,0,3.8,0,5.6,0.1c1.7,0,3.1,0.1,4.1,0.2l0.8-2.5c-1.1,0.1-2.5,0.2-4.3,0.2&#xA;&#x9;&#x9;c-1.8,0-3.6,0.1-5.6,0.1l1.2-3.7c0.9,0,1.8,0,2.7,0c0.9,0,1.7,0,2.4,0.1c0.7,0,1.4,0.1,2,0.1c0.6,0,1.1,0.1,1.5,0.1&#xA;&#x9;&#x9;c0.1-0.5,0.2-0.9,0.3-1.3c0.1-0.4,0.2-0.8,0.3-1.2c0.1-0.4,0.2-0.8,0.4-1.3c0.2-0.5,0.3-1,0.5-1.6c0.9,0,1.6,0,2.2,0&#xA;&#x9;&#x9;c0.6,0,1.1,0.1,1.6,0.2l0.8-2.4c-0.6,0.1-1.1,0.1-1.7,0.2C181.9,282,181.2,282,180.3,282z M176.2,287h-6l1-3.1h6L176.2,287z&#xA;&#x9;&#x9; M177.9,282h-6l1-2.9h6L177.9,282z"/>
    <path d="M156.9,306.7c-2.2-0.3-3.9-0.9-5.2-1.6c-1.3-0.7-2.2-1.6-2.8-2.7c0.6-0.8,1.2-1.7,1.8-2.7c0.6-0.9,1.2-2,1.8-3.2&#xA;&#x9;&#x9;c0.6-1.2,1.2-2.4,1.9-3.8c0.7-1.4,1.3-2.9,2.1-4.6c-0.3,0.1-0.6,0.1-1,0.2c-0.3,0-0.7,0.1-1.2,0.1h-3.8l9.6-10.8&#xA;&#x9;&#x9;c-0.3,0-0.7,0-1,0.1c-0.3,0-0.7,0-1,0c-0.4,0-0.9,0-1.4,0s-1.2,0-2,0c-0.6,0-1.2,0-1.6,0c-0.5,0-0.9,0-1.3,0c-0.4,0-0.8,0-1.1,0&#xA;&#x9;&#x9;c-0.4,0-0.8,0-1.2-0.1l-0.8,2.4c0.9-0.1,1.7-0.1,2.5-0.1c0.8,0,1.4-0.1,1.9-0.1h2.5l-5.2,5.9c-0.8,0.9-1.5,1.5-2.1,2&#xA;&#x9;&#x9;c-0.6,0.5-1.4,0.9-2.3,1.2c0.1,0.3,0.2,0.6,0.2,0.9c0,0.3,0,0.7-0.1,1.2c0.6-0.2,1.3-0.3,2-0.4c0.7-0.1,1.4-0.1,2.1-0.1h3&#xA;&#x9;&#x9;c-0.8,2.1-1.6,3.9-2.5,5.5c-0.8,1.6-1.7,3-2.5,4.3c-0.4-1.1-0.7-2.1-1-3.2c-0.3-1.1-0.4-2-0.4-2.9l-2.5,1.4c0.4,1.6,0.7,3,1.1,4.1&#xA;&#x9;&#x9;c0.4,1.1,0.7,2.1,1.1,2.8c-1.2,1.3-2.4,2.4-3.8,3.3c-1.4,0.9-2.9,1.6-4.6,2.3c0.6,0.3,1,0.6,1.3,0.8c0.3,0.3,0.5,0.6,0.6,1.1&#xA;&#x9;&#x9;c1.6-0.9,2.9-1.8,4.1-2.7c1.2-0.9,2.3-1.9,3.3-3c0.5,0.8,1.1,1.4,1.7,2c0.6,0.6,1.4,1,2.2,1.4c0.9,0.4,2,0.7,3.2,0.9&#xA;&#x9;&#x9;c1.3,0.2,2.8,0.4,4.7,0.5c1.9,0.1,4.1,0.2,6.6,0.2c2.5,0,5.5,0,8.9,0c0.2-0.5,0.5-1,0.8-1.5c0.3-0.5,0.8-1,1.3-1.5&#xA;&#x9;&#x9;c-4.5,0.4-8.4,0.6-11.7,0.7C161.8,307.2,159.1,307.1,156.9,306.7z"/>
    <path d="M260.6,284c-0.2-0.5-0.5-1.1-0.9-1.8c-0.3-0.7-0.7-1.3-1.1-2c-0.4-0.7-0.8-1.3-1.2-2c-0.4-0.6-0.9-1.2-1.3-1.7l-2.2,1.8&#xA;&#x9;&#x9;c1,1.1,1.8,2.2,2.5,3.4c0.6,1.2,1.2,2.5,1.7,3.9L260.6,284z"/>
    <path d="M254.6,289.5c-0.5-0.6-1-1.2-1.5-1.8c-0.5-0.6-1-1.1-1.4-1.5l-2.1,1.8c0.5,0.5,1,0.9,1.4,1.4c0.4,0.5,0.8,1,1.2,1.5&#xA;&#x9;&#x9;c0.4,0.5,0.7,1.1,1.1,1.8c0.3,0.6,0.7,1.3,1,2.1l2.6-1.8c-0.2-0.5-0.6-1-1-1.6C255.5,290.7,255.1,290.1,254.6,289.5z"/>
    <path d="M268.5,273.4c-0.5,0-0.9,0-1.4-0.1c-0.4-0.1-1-0.2-1.5-0.4c-0.1,0.6-0.3,1.5-0.6,2.7c-0.3,1.2-0.7,2.5-1.2,3.9l-5.6,16.8&#xA;&#x9;&#x9;l-6.9,0.7c-0.9,0.1-1.7,0.2-2.4,0.2c-0.7,0.1-1.4,0.1-2,0.1c-0.6,0-1.2,0-1.8,0.1c-0.6,0-1.2,0-1.8,0l-0.6,2.8&#xA;&#x9;&#x9;c0.6-0.1,1.3-0.2,1.8-0.3c0.6-0.1,1.2-0.2,1.8-0.3c0.6-0.1,1.3-0.2,2-0.3c0.7-0.1,1.6-0.2,2.5-0.3l6.7-0.7l-1.4,4.3&#xA;&#x9;&#x9;c-0.2,0.5-0.4,1.1-0.6,1.8c-0.3,0.7-0.5,1.4-0.8,2.1c-0.3,0.7-0.6,1.4-0.9,2.1c-0.3,0.7-0.6,1.3-0.8,1.8h3.3&#xA;&#x9;&#x9;c0.1-0.6,0.3-1.2,0.5-1.9c0.2-0.7,0.4-1.4,0.6-2.1c0.2-0.7,0.4-1.4,0.6-2c0.2-0.6,0.4-1.2,0.5-1.7l1.5-4.5c1.4-0.1,2.6-0.2,3.5-0.2&#xA;&#x9;&#x9;c1-0.1,2-0.1,3,0l0.7-2.8c-0.6,0.1-1.1,0.2-1.6,0.3c-0.5,0.1-1,0.2-1.5,0.2c-0.5,0.1-1,0.2-1.6,0.2c-0.5,0.1-1.1,0.1-1.8,0.2&#xA;&#x9;&#x9;l6.2-18.6c0.3-1,0.6-1.8,0.9-2.3c0.2-0.5,0.5-0.8,0.8-0.9c0.5-0.2,0.7-0.5,0.7-0.6C269.2,273.5,269,273.4,268.5,273.4z"/>
    <path d="M244.2,296.6l2.7-2c-0.6-0.8-1.3-1.7-2.2-2.7c-0.9-1-1.7-2-2.7-2.9l0.5-1.6c1.4,0,2.6,0,3.6,0.1c1,0,1.9,0.1,2.7,0.2&#xA;&#x9;&#x9;l0.9-2.6c-0.8,0.1-1.8,0.2-2.9,0.2c-1.1,0.1-2.3,0.1-3.7,0.1l2.5-7.4c0.9-0.1,1.7-0.2,2.3-0.3c0.6-0.1,1.1-0.1,1.4-0.2&#xA;&#x9;&#x9;c0.4,0,0.7-0.1,0.8,0c0.2,0,0.3,0,0.5,0.1c0.5,0.1,0.9,0.1,1.1-0.1c0.2-0.2,0.1-0.5-0.2-0.8c-0.2-0.2-0.4-0.4-0.5-0.8&#xA;&#x9;&#x9;c-0.2-0.3-0.3-0.7-0.4-1.2c-2.3,0.8-4.6,1.3-6.8,1.6c-2.2,0.2-4.5,0.3-6.8,0.2c0.3,0.7,0.4,1.5,0.3,2.5c0.8,0,1.8-0.1,2.8-0.2&#xA;&#x9;&#x9;c1.1-0.1,2.1-0.2,3.2-0.4l-2.4,7.1c-1.6,0-3,0-4.3-0.1c-1.3-0.1-2.3-0.1-3.2-0.2l-0.9,2.6c0.9-0.1,2-0.2,3.3-0.2&#xA;&#x9;&#x9;c1.3,0,2.8-0.1,4.3-0.1l-0.1,0.2c-2,2.7-4.2,5.3-6.6,7.9c-2.3,2.5-4.8,4.8-7.5,6.9c0.8,0.3,1.3,0.9,1.7,1.9&#xA;&#x9;&#x9;c1.7-1.5,3.5-3.3,5.3-5.3c1.8-2,3.7-4.2,5.5-6.7l-3.8,11.3c-0.3,1-0.7,2-1.2,3.2c-0.5,1.2-0.9,2.4-1.4,3.6h2.8&#xA;&#x9;&#x9;c0.3-1.2,0.6-2.4,1-3.6c0.3-1.2,0.7-2.3,1-3.2l4.1-12.3c0.8,1,1.4,2.1,1.9,3.1C243.7,295.3,244,296.1,244.2,296.6z"/>
    <path d="M347.6,279.8l1-2.9c0.2-0.6,0.4-1.2,0.7-1.7c0.3-0.5,0.5-0.8,0.8-1c0.3-0.2,0.4-0.4,0.5-0.6c0-0.2-0.1-0.3-0.5-0.3&#xA;&#x9;&#x9;c-0.7,0-1.3,0-1.7,0c-0.4,0-0.9-0.1-1.4-0.2c-0.1,0.7-0.3,1.6-0.6,2.6c-0.3,1-0.7,2.4-1.3,4c-2,0-3.7,0-5.3-0.1&#xA;&#x9;&#x9;c-1.5-0.1-2.9-0.1-4-0.2L335,282c1.2-0.1,2.6-0.2,4.2-0.2c1.6-0.1,3.4-0.1,5.3-0.1l-2.3,6.8c-2,0-3.7,0-5.1-0.1&#xA;&#x9;&#x9;c-1.4,0-2.8-0.1-4.1-0.2l-0.8,2.5c0.4-0.1,0.8-0.1,1.2-0.1c0.4,0,0.8,0,1.2-0.1c0,1.1,0.1,2.2,0.3,3.3c0.1,1.1,0.3,2.2,0.6,3.2&#xA;&#x9;&#x9;c0.3,1,0.6,2,0.9,2.8c0.4,0.9,0.8,1.6,1.2,2.3c-2,1.2-4.2,2.3-6.4,3.2c-2.3,0.9-4.9,1.5-8,2c0.4,0.3,0.9,0.7,1.2,1.1&#xA;&#x9;&#x9;c0.4,0.4,0.6,0.9,0.6,1.5c2.8-0.7,5.4-1.6,7.8-2.7c2.4-1.1,4.4-2.2,6.1-3.4c1,1,2.1,2,3.4,3c1.3,1,2.9,1.9,4.8,2.7&#xA;&#x9;&#x9;c0.5-0.6,1-1.2,1.4-1.6c0.5-0.4,1-0.8,1.6-1.2c-1.8-0.4-3.3-0.9-4.8-1.6c-1.4-0.7-2.8-1.7-4.3-3.1c1.3-1,2.4-2,3.5-3&#xA;&#x9;&#x9;c1.1-1,2.1-2.1,3.1-3.2c1-1.1,1.9-2.3,2.8-3.6c0.9-1.3,1.8-2.7,2.7-4.1c-1.3,0.1-2.6,0.1-3.9,0.1c-1.4,0-3,0.1-4.8,0.1l2.3-6.8&#xA;&#x9;&#x9;c2.1,0,4,0,5.7,0.1c1.8,0,3.2,0.1,4.3,0.3l0.9-2.6c-1.2,0.1-2.7,0.2-4.5,0.3C351.6,279.8,349.7,279.8,347.6,279.8z M349.4,290.4&#xA;&#x9;&#x9;c-1.3,2.1-2.7,4-4.3,5.6c-1.5,1.6-3.3,3.2-5.4,4.6c-0.4-0.5-0.8-1.2-1.1-1.9s-0.7-1.6-1-2.5c-0.3-0.9-0.5-1.8-0.6-2.8&#xA;&#x9;&#x9;c-0.2-1-0.2-2-0.2-3H349.4z"/>
    <path d="M328.3,291.7c0.8-0.4,1.6-0.7,2.3-1c0.1-0.9,0.3-1.7,0.7-2.6c-0.8,0.5-1.5,0.9-2.3,1.3c-0.8,0.4-1.6,0.8-2.5,1.2l2.6-7.8&#xA;&#x9;&#x9;c1,0,1.8,0.1,2.5,0.1c0.7,0.1,1.3,0.1,1.9,0.2l0.9-2.6c-0.7,0.1-1.4,0.2-2.1,0.2c-0.7,0.1-1.6,0.1-2.5,0.1l1.8-5.3&#xA;&#x9;&#x9;c0.2-0.7,0.6-1.3,1.2-1.6c0.6-0.4,0.8-0.6,0.8-0.8c0-0.2-0.4-0.3-1.1-0.2c-0.4,0-0.8,0-1.3,0c-0.5,0-1-0.1-1.6-0.2&#xA;&#x9;&#x9;c-0.1,0.6-0.3,1.6-0.6,2.9c-0.4,1.3-0.9,3.1-1.6,5.2c-0.5,0-1,0-1.6,0c-0.6,0-1.1,0-1.7-0.1c-0.5,0-1.1-0.1-1.6-0.1&#xA;&#x9;&#x9;c-0.5,0-0.9-0.1-1.3-0.1l-0.9,2.6c0.8-0.1,1.7-0.2,2.8-0.2c1.1-0.1,2.3-0.1,3.5-0.1l-3,9c-2.7,1.1-5.5,2.1-8.4,2.8&#xA;&#x9;&#x9;c0.6,1,0.8,2,0.8,3.1c0.9-0.5,1.9-1,3.1-1.6c1.2-0.6,2.4-1.2,3.7-1.9l-3.4,10.3c-0.4,1.3-1.1,2-2,2.3c-0.9,0.3-2.3,0.1-4.1-0.4&#xA;&#x9;&#x9;c0.3,0.6,0.5,1.1,0.5,1.6c0,0.5-0.1,1-0.3,1.7c1.3-0.1,2.4-0.3,3.4-0.4c0.9-0.2,1.7-0.4,2.3-0.7c0.6-0.3,1.1-0.7,1.5-1.2&#xA;&#x9;&#x9;c0.4-0.5,0.7-1.1,0.9-1.9l4.2-12.7C326.6,292.5,327.4,292.1,328.3,291.7z"/>
    <path d="M17.3,245.3c-1.3,0-2.4-0.4-3.4-1.1c-1-0.7-1.6-2.1-1.7-4.2c3.5-0.2,6.5-0.9,9.1-2.1c2.6-1.2,4.6-2.7,5.9-4.5&#xA;&#x9;&#x9;c1.3-1.8,2-3.6,2-5.6c0-1.7-0.6-3-1.8-4.1c-1.2-1.1-2.9-1.6-5-1.6c-2.9,0-5.7,0.8-8.3,2.5c-2.6,1.7-4.8,4.1-6.4,7.1&#xA;&#x9;&#x9;c-1.7,3-2.5,6.1-2.5,9.3c0,1.5,0.3,3,1,4.5c0.7,1.4,1.8,2.5,3.5,3.3c1.6,0.8,3.4,1.2,5.5,1.2c1.6,0,3.5-0.2,5.8-0.7&#xA;&#x9;&#x9;c2.3-0.5,4.7-1.3,7.2-2.5l1.1-5.6c-2.3,1.3-4.6,2.3-6.7,3C20.2,245,18.5,245.3,17.3,245.3z M15.9,229.2c1.4-1.4,2.8-2.1,4-2.1&#xA;&#x9;&#x9;c0.8,0,1.4,0.2,1.8,0.7c0.4,0.5,0.6,1,0.6,1.7c0,1.4-0.8,2.8-2.4,4.2c-1.6,1.3-4,2-7.2,2C13.4,232.7,14.4,230.6,15.9,229.2z"/>
    <path d="M106.3,227.5c0-1.8-0.5-3.1-1.4-4c-0.9-0.9-2-1.3-3.4-1.3c-2.3,0-4.6,1.1-6.8,3.2c-2.3,2.1-4.3,4.9-6.2,8.5l2.2-11.1h-7.2&#xA;&#x9;&#x9;l-5.3,26.7h7.2l1.8-8.9c1.6-2.6,3.5-5.2,5.6-7.8c2.2-2.7,3.8-4,4.9-4c0.7,0,1,0.5,1,1.4c0,0.3,0,0.7-0.1,1L95,249.5h7.2l3.8-18.8&#xA;&#x9;&#x9;C106.2,229.6,106.3,228.5,106.3,227.5z"/>
    <path d="M128.3,222.4c-0.7-0.1-1.4-0.1-2-0.1c-2.8,0-5.6,0.9-8.2,2.8c-2.7,1.9-4.9,4.6-6.8,8.1c-1.8,3.5-2.8,6.7-2.8,9.7&#xA;&#x9;&#x9;c0,1.9,0.5,3.5,1.5,4.8c1,1.3,2.4,1.9,4.1,1.9c1.1,0,2.3-0.3,3.4-0.8c1.1-0.5,2.2-1.2,3.2-2.1c0.8-0.7,1.5-1.3,2-1.9&#xA;&#x9;&#x9;c0.5-0.6,1.7-2.3,3.6-5.3c0.1-0.2,0.4-0.6,0.7-1.1l-2.1,10.7c-0.3,1.6-0.9,2.9-1.9,4.1c-1,1.2-2.6,1.7-5,1.7c-1,0-2-0.1-3.1-0.2&#xA;&#x9;&#x9;c-1-0.2-2.1-0.4-3.2-0.8c-1.1-0.3-2.5-0.9-4.3-1.6l0.3,6.1c3,0.9,6,1.4,9.1,1.4c2.7,0,5.2-0.5,7.6-1.4c2.4-0.9,4.2-2.3,5.4-4&#xA;&#x9;&#x9;c1.2-1.7,2.3-5,3.3-9.8l4.3-21.7h-6.6C129.8,222.6,129,222.5,128.3,222.4z M128.3,232c-2,3.1-4.1,5.7-6.1,8&#xA;&#x9;&#x9;c-2.1,2.2-3.7,3.4-4.8,3.4c-0.3,0-0.7-0.1-1-0.3c-0.3-0.2-0.5-0.8-0.5-1.8c0-2,0.5-4.3,1.5-6.8c1-2.6,2.3-4.5,3.8-5.8&#xA;&#x9;&#x9;c1.5-1.3,3-1.9,4.5-1.9c0.6,0,1.2,0.1,1.8,0.2c0.6,0.1,1.2,0.3,1.7,0.6L128.3,232z"/>
    <path d="M208.4,247l1.1-5.6c-2.3,1.3-4.6,2.3-6.7,3c-2.2,0.6-3.9,1-5.1,1c-1.3,0-2.4-0.4-3.4-1.1c-1-0.7-1.6-2.1-1.7-4.2&#xA;&#x9;&#x9;c3.5-0.2,6.5-0.9,9.1-2.1c2.6-1.2,4.5-2.7,5.9-4.5c1.3-1.8,2-3.6,2-5.6c0-1.7-0.6-3-1.8-4.1c-1.2-1.1-2.9-1.6-5-1.6&#xA;&#x9;&#x9;c-2.9,0-5.7,0.8-8.3,2.5c-2.6,1.7-4.7,4.1-6.4,7.1c-1.7,3-2.5,6.1-2.5,9.3c0,1.5,0.4,3,1,4.5c0.7,1.4,1.9,2.5,3.5,3.3&#xA;&#x9;&#x9;c1.6,0.8,3.4,1.2,5.5,1.2c1.6,0,3.5-0.2,5.8-0.7C203.4,249,205.8,248.2,208.4,247z M196.3,229.2c1.4-1.4,2.8-2.1,4-2.1&#xA;&#x9;&#x9;c0.8,0,1.4,0.2,1.8,0.7c0.4,0.5,0.6,1,0.6,1.7c0,1.4-0.8,2.8-2.4,4.2c-1.6,1.3-4,2-7.2,2C193.8,232.7,194.9,230.6,196.3,229.2z"/>
    <path d="M232.9,242.1c-1.2,0.7-2.3,1.2-3.4,1.6c-1.1,0.4-2.1,0.7-3.1,0.9c-1,0.2-1.8,0.3-2.4,0.3c-1.3,0-2.4-0.4-3.3-1.2&#xA;&#x9;&#x9;c-0.9-0.8-1.3-2-1.3-3.8c0-2.2,0.5-4.3,1.4-6.6c0.9-2.2,2.1-3.9,3.6-5c1.4-1.1,3-1.6,4.6-1.6c1.5,0,3.5,0.6,6,1.8l1-5.1&#xA;&#x9;&#x9;c-2.4-0.8-4.6-1.2-6.5-1.2c-2.9,0-5.8,0.9-8.6,2.6c-2.8,1.8-5,4.1-6.7,7.1c-1.6,3-2.5,6-2.5,9.1c0,2.8,0.9,5,2.7,6.6&#xA;&#x9;&#x9;c1.8,1.6,4,2.4,6.8,2.4c3.3,0,6.9-0.8,10.6-2.4L232.9,242.1z"/>
    <path d="M264.2,227.5c0-1.8-0.4-3.1-1.4-4c-0.9-0.9-2-1.3-3.4-1.3c-2.3,0-4.6,1.1-6.8,3.2c-2.3,2.1-4.3,4.9-6.3,8.5l4.5-22.8h-7.2&#xA;&#x9;&#x9;l-7.7,38.4h7.2l1.8-8.9c1.6-2.6,3.5-5.2,5.6-7.8c2.2-2.7,3.8-4,4.9-4c0.7,0,1,0.5,1,1.4c0,0.3,0,0.7-0.1,1l-3.6,18.3h7.2l3.8-18.8&#xA;&#x9;&#x9;C264.1,229.6,264.2,228.5,264.2,227.5z"/>
    <path d="M283.3,249.5h7.2l3.8-18.8c0.2-1.1,0.3-2.2,0.3-3.2c0-1.8-0.5-3.1-1.4-4c-0.9-0.9-2-1.3-3.4-1.3c-2.3,0-4.6,1.1-6.8,3.2&#xA;&#x9;&#x9;c-2.3,2.1-4.3,4.9-6.3,8.5l2.2-11.1h-7.2l-5.3,26.7h7.2l1.8-8.9c1.6-2.6,3.5-5.2,5.6-7.8c2.1-2.7,3.8-4,4.9-4c0.7,0,1,0.5,1,1.4&#xA;&#x9;&#x9;c0,0.3,0,0.7-0.1,1L283.3,249.5z"/>
    <path d="M321.8,240.5c1.7-3.1,2.5-6.2,2.5-9.4c0-2.6-0.9-4.8-2.7-6.5c-1.8-1.7-4.3-2.5-7.5-2.5c-3.1,0-6,0.8-8.5,2.5&#xA;&#x9;&#x9;c-2.6,1.6-4.7,4-6.4,7.2c-1.7,3.1-2.5,6.3-2.5,9.4c0,2.7,0.9,4.8,2.7,6.5c1.8,1.6,4.3,2.5,7.3,2.5c3.3,0,6.2-0.8,8.8-2.5&#xA;&#x9;&#x9;C318,246,320.1,243.6,321.8,240.5z M308.2,245.5c-1.2,0-2.2-0.5-2.9-1.4c-0.7-0.9-1.1-2.3-1.1-4.1c0-2.2,0.4-4.4,1.2-6.5&#xA;&#x9;&#x9;c0.8-2.1,1.8-3.7,3.1-4.9c1.2-1.1,2.6-1.7,4.1-1.7c1.3,0,2.3,0.5,3.1,1.4c0.7,0.9,1.1,2.3,1.1,4.1c0,2.2-0.4,4.3-1.2,6.4&#xA;&#x9;&#x9;c-0.8,2.1-1.8,3.7-3,4.9C311.3,244.9,309.9,245.5,308.2,245.5z"/>
    <path d="M364,224.7c-1.8-1.7-4.3-2.5-7.5-2.5c-3.1,0-6,0.8-8.5,2.5c-2.6,1.6-4.7,4-6.4,7.2c-1.7,3.1-2.5,6.3-2.5,9.4&#xA;&#x9;&#x9;c0,2.7,0.9,4.8,2.7,6.5c1.8,1.6,4.3,2.5,7.3,2.5c3.3,0,6.3-0.8,8.8-2.5c2.5-1.7,4.6-4,6.3-7.2c1.7-3.1,2.5-6.2,2.5-9.4&#xA;&#x9;&#x9;C366.7,228.5,365.8,226.3,364,224.7z M357.9,238.8c-0.8,2.1-1.8,3.7-3,4.9c-1.2,1.2-2.7,1.7-4.3,1.7c-1.2,0-2.2-0.5-2.9-1.4&#xA;&#x9;&#x9;c-0.7-0.9-1.1-2.3-1.1-4.1c0-2.2,0.4-4.4,1.2-6.5c0.8-2.1,1.8-3.7,3.1-4.9c1.2-1.1,2.6-1.7,4.2-1.7c1.3,0,2.3,0.5,3,1.4&#xA;&#x9;&#x9;c0.7,0.9,1.1,2.3,1.1,4.1C359.1,234.6,358.7,236.7,357.9,238.8z"/>
    <path d="M387.5,222.4c-0.7-0.1-1.4-0.1-2-0.1c-2.8,0-5.6,0.9-8.2,2.8c-2.7,1.9-4.9,4.6-6.8,8.1c-1.8,3.5-2.8,6.7-2.8,9.7&#xA;&#x9;&#x9;c0,1.9,0.5,3.5,1.5,4.8c1,1.3,2.4,1.9,4.1,1.9c1.1,0,2.3-0.3,3.4-0.8c1.2-0.5,2.2-1.2,3.2-2.1c0.8-0.7,1.5-1.3,2-1.9&#xA;&#x9;&#x9;c0.5-0.6,1.7-2.3,3.5-5.3c0.1-0.2,0.4-0.6,0.7-1.1l-2.1,10.7c-0.3,1.6-0.9,2.9-1.9,4.1c-1,1.2-2.6,1.7-5.1,1.7c-1,0-2-0.1-3.1-0.2&#xA;&#x9;&#x9;c-1-0.2-2.1-0.4-3.2-0.8c-1.1-0.3-2.5-0.9-4.3-1.6l0.3,6.1c3,0.9,6,1.4,9.1,1.4c2.7,0,5.2-0.5,7.6-1.4c2.4-0.9,4.2-2.3,5.4-4&#xA;&#x9;&#x9;c1.2-1.7,2.3-5,3.3-9.8l4.3-21.7h-6.6C389.1,222.6,388.3,222.5,387.5,222.4z M387.5,232c-2,3.1-4.1,5.7-6.1,8&#xA;&#x9;&#x9;c-2.1,2.2-3.7,3.4-4.8,3.4c-0.3,0-0.7-0.1-1-0.3c-0.3-0.2-0.5-0.8-0.5-1.8c0-2,0.5-4.3,1.5-6.8c1-2.6,2.3-4.5,3.8-5.8&#xA;&#x9;&#x9;c1.5-1.3,3-1.9,4.5-1.9c0.6,0,1.2,0.1,1.8,0.2c0.6,0.1,1.2,0.3,1.7,0.6L387.5,232z"/>
    <polygon class="st0" points="171.8,282 177.9,282 178.8,279.1 172.8,279.1 &#x9;"/>
    <polygon class="st0" points="71.7,281.2 89.6,281.2 90.9,277.1 73,277.1 &#x9;"/>
    <polygon class="st0" points="170.2,287 176.2,287 177.2,283.9 171.2,283.9 &#x9;"/>
    <polygon class="st0" points="69.7,287 87.6,287 88.9,283.1 71,283.1 &#x9;"/>
    <polygon points="104.7,310.4 107.5,310.4 118.3,272.3 115.4,272.3 &#x9;"/>
    <polygon points="197.1,310.4 200,310.4 210.8,272.3 207.9,272.3 &#x9;"/>
    <polygon points="288.7,310.4 291.5,310.4 302.3,272.3 299.4,272.3 &#x9;"/>
    <polygon points="49.9,230.1 64.3,213.5 57.8,213.5 42.8,230.7 46.3,213.5 38.8,213.5 31.6,249.5 39.1,249.5 42.6,231.8 53.1,249.5 &#xA;&#x9;&#x9;61.8,249.5 &#x9;"/>
    <polygon points="76.9,222.8 69.7,222.8 64.4,249.5 71.6,249.5 &#x9;"/>
    <polygon points="79.1,212 71.9,212 70.6,218.3 77.8,218.3 &#x9;"/>
    <polygon points="169.7,249.5 175.9,218.5 189,218.5 189.9,213.5 156.4,213.5 155.4,218.5 168.4,218.5 162.2,249.5 &#x9;"/>
    <polygon points="332.7,249.5 340.3,211.1 333.1,211.1 325.5,249.5 &#x9;"/>
    <polygon points="422.1,222.8 410.4,240.9 407.1,222.8 399.8,222.8 404.6,249.5 397,259.1 404.2,259.1 428,222.8 &#x9;"/>
    <radialGradient id="SVGID_1_" cx="202.7767" cy="25.7047" r="189.7686" gradientUnits="userSpaceOnUse">
      <stop offset="0" style="stop-color:#FFD773"/>
      <stop offset="0.3956" style="stop-color:#ECA434"/>
      <stop offset="0.8407" style="stop-color:#C6282C"/>
      <stop offset="0.989" style="stop-color:#DA2728"/>
    </radialGradient>
    <radialGradient id="SVGID_2_" cx="202.7767" cy="25.7047" r="189.7686" gradientUnits="userSpaceOnUse">
      <stop offset="0" style="stop-color:#FFD773"/>
      <stop offset="0.3956" style="stop-color:#ECA434"/>
      <stop offset="0.8407" style="stop-color:#C6282C"/>
      <stop offset="0.989" style="stop-color:#DA2728"/>
    </radialGradient>
  </g>
</svg>