<svg xmlns="http://www.w3.org/2000/svg" role="img" viewBox="90.55 -0.58 114.40 101.28"><title>Easy-Ngo logo</title><style>svg {enable-background:new 0 0 300 100}</style><style>.st0{fill:#9eebff;stroke:#11603a;stroke-linecap:round;stroke-linejoin:round;stroke-miterlimit:10}.st0,.st1{stroke-width:1.8853}.st1,.st2,.st3,.st5{stroke:#11603a;stroke-linecap:round;stroke-linejoin:round;stroke-miterlimit:10}.st1{fill:#11603a}.st2,.st3{fill:#fff;stroke-width:.9427}.st3{fill:#11603a}.st5{fill:#fff;stroke-width:1.8853}</style><g><circle cx="111.52" cy="23.02" r="9.31" class="st0"/><circle cx="111.52" cy="23.02" r="4.36" class="st1"/><circle cx="183.62" cy="23.02" r="9.31" class="st0"/><circle cx="183.62" cy="23.02" r="4.36" class="st1"/></g><ellipse cx="147.57" cy="84.78" class="st1" rx="53.87" ry="12.87"/><path d="M147.86,97.64c15.02,0,28.6-1.47,38.36-3.84c0.15-1.38,0.24-2.78,0.24-4.2V41.26c0-21.23-17.37-38.6-38.6-38.6	l0,0c-21.23,0-38.6,17.37-38.6,38.6V89.6c0,1.42,0.08,2.82,0.24,4.2C119.26,96.18,132.84,97.64,147.86,97.64z" class="st0"/><circle cx="130.61" cy="29.88" r="10.25" class="st2"/><circle cx="134.79" cy="26.39" r="2.59" class="st3"/><circle cx="164.53" cy="29.88" r="10.25" class="st2"/><circle cx="168.71" cy="26.39" r="2.59" class="st3"/><path d="M152.81,45.56c0,0-0.63,6.98-5.24,6.98s-5.24-6.98-5.24-6.98H152.81z" class="st2"/><path fill="none" stroke="#11603a" stroke-linecap="round" stroke-linejoin="round" stroke-miterlimit="10" stroke-width=".943" d="M147.57 45.56L147.57 52.54"/><path d="M147.57,58.61c-16.23,0-30.44-2.66-38.31-6.65V89.6c0,1.42,0.08,2.82,0.24,4.2c9.77,2.37,23.35,3.84,38.36,3.84	c15.02,0,28.6-1.47,38.36-3.84c0.15-1.38,0.24-2.78,0.24-4.2V51.67C178.71,55.82,164.2,58.61,147.57,58.61z" class="st5"/><path fill="#fff5ca" stroke="#11603a" stroke-linecap="round" stroke-linejoin="round" stroke-miterlimit="10" stroke-width=".943" d="M147.57,46.14c2.18,0,3.88,1.7,6.32,1.7c2.29,0,4.26-1.4,4.26-3.67c0-4.03-5.45-7.43-10.58-7.43	s-10.58,3.4-10.58,7.43c0,2.27,1.97,3.67,4.26,3.67C143.69,47.84,145.39,46.14,147.57,46.14z"/><path d="M147.57,41.41c7.23-1.61,6.73-5.37,0-5.37S140.34,39.8,147.57,41.41z" class="st3"/><path d="M113.65 68.93c0 0-14.37 7.83-16.37 3.46-2.92-6.38 15.35-17.4 15.35-17.4M185.17 54.64c0 0 14.37-7.83 16.37-3.46 2.92 6.38-17.52 18.78-17.52 18.78" class="st5"/><g><path fill="#11603a" d="M125.28 90.9V64.28h3.66l5.76 16.04h.07V64.28h3.81V90.9H135l-5.83-16h-.07v16H125.28zM141.8 70.56c0-1.07.19-2.02.56-2.84s.87-1.51 1.5-2.06c.6-.52 1.28-.92 2.04-1.2.76-.27 1.53-.41 2.3-.41s1.54.14 2.3.41c.76.27 1.45.67 2.08 1.2.6.55 1.08 1.23 1.46 2.06.37.82.56 1.77.56 2.84v1.35h-3.81v-1.35c0-.92-.26-1.6-.77-2.04-.51-.44-1.12-.65-1.81-.65-.7 0-1.3.22-1.81.65-.51.44-.77 1.12-.77 2.04v14.06c0 .92.25 1.6.77 2.04.51.44 1.12.65 1.81.65.7 0 1.3-.22 1.81-.65.51-.44.77-1.12.77-2.04v-5.01h-3.03v-3.37h6.84v8.37c0 1.12-.19 2.08-.56 2.88-.37.8-.86 1.46-1.46 1.98-.62.55-1.32.96-2.08 1.23-.76.27-1.53.41-2.3.41s-1.54-.14-2.3-.41c-.76-.27-1.44-.69-2.04-1.23-.62-.52-1.12-1.18-1.5-1.98-.37-.8-.56-1.76-.56-2.88V70.56zM157.73 70.56c0-1.07.19-2.02.56-2.84s.87-1.51 1.5-2.06c.6-.52 1.28-.92 2.04-1.2.76-.27 1.53-.41 2.3-.41s1.54.14 2.3.41c.76.27 1.45.67 2.08 1.2.6.55 1.08 1.23 1.46 2.06.37.82.56 1.77.56 2.84v14.06c0 1.12-.19 2.08-.56 2.88-.37.8-.86 1.46-1.46 1.98-.62.55-1.31.96-2.08 1.23-.76.27-1.53.41-2.3.41s-1.54-.14-2.3-.41c-.76-.27-1.44-.69-2.04-1.23-.62-.52-1.12-1.18-1.5-1.98-.37-.8-.56-1.76-.56-2.88V70.56zM161.54 84.62c0 .92.25 1.6.77 2.04.51.44 1.12.65 1.81.65.7 0 1.3-.22 1.81-.65.51-.44.77-1.12.77-2.04V70.56c0-.92-.26-1.6-.77-2.04-.51-.44-1.12-.65-1.81-.65-.7 0-1.3.22-1.81.65-.51.44-.77 1.12-.77 2.04V84.62z"/></g><path d="M101.35 63.58L101.35 63.58c-3.05 3.01-5.22 6.27-4.07 8.8.99 2.17 5.04 1.33 8.85-.06C106.14 66.64 101.35 63.58 101.35 63.58zM201.54 51.19c-.97-2.13-4.87-1.37-8.61-.03 0 .01-.69 5.63 5.09 8.03C200.77 56.31 202.55 53.39 201.54 51.19z" class="st0"/></svg>