<svg xmlns="http://www.w3.org/2000/svg" role="img" viewBox="135.98 250.98 1093.04 266.04"><title>Effectual (member) logo</title><style>svg {enable-background:new 0 0 1366 768}</style><path fill="#483190" d="M389.49 341.63c4.53-6.57 11.66-7.94 16.9-7.95 2.27-.04 4.52.21 6.68.77l5.66 1.53 4.95-23.84-5.33-1.15c-3.85-.85-7.8-1.3-11.75-1.33-14.52 0-27.13 5.47-35.5 15.43-7.19 8.7-10.4 20.08-10.4 36.93v11.07h-28.38v24.05h28.36v96.64h24.73v-96.64h37.25v-24.01h-37.25v-11.79c0-11.4 1.49-15.87 4.08-19.71zm108.87 0c4.53-6.57 11.66-7.94 16.9-7.95 2.25-.04 4.51.21 6.67.77l5.66 1.53 4.95-23.84-5.33-1.15c-3.85-.85-7.8-1.3-11.75-1.33-14.52 0-27.13 5.47-35.5 15.43-7.19 8.7-10.4 20.08-10.4 36.93v11.07H441.2v24.05h28.36v96.64h24.73v-96.64h37.25v-24.01h-37.25v-11.79c0-11.48 1.43-15.79 4.07-19.71zm99.4 29.1c-33.02 0-57.92 26.97-57.92 62.73 0 36.35 25.48 62.73 60.58 62.73 19.67 0 38-8.33 49.04-22.28l3.13-3.95-17.57-16.7-3.76 4.62c-7.42 9.2-18.91 14.53-30.77 14.3-14.2 0-31.59-8.45-35.26-32h88.27l.56-4.91c.2-1.8.29-3.63.27-5.42-.09-33.71-24.41-59.12-56.57-59.12zm-30.61 45.91c5.27-13.6 16.74-21.91 30.61-21.91 13.72 0 25.34 8.68 29.8 21.91h-60.41zm199.6 42.11c-8.36 8.78-18.62 13.43-29.65 13.43-22.12 0-39.45-17.01-39.45-38.72 0-21.35 16.83-38.72 37.51-38.72 10.95.01 21.63 4.51 29.33 12.38l4.16 4.04 15.9-18.12-3.63-3.54c-11.99-12.21-28.66-19.05-45.75-18.71-34.88 0-62.2 27.55-62.2 62.69-.24 17.4 6.97 34.12 19.82 45.89 12.15 10.89 27.78 16.87 44.05 16.87h.53c17.94 0 35.2-7.57 47.28-20.88l3.63-4.04-17.85-16.55-3.68 3.98zm112.9 12.2c-3.33.87-6.79 1.28-10.24 1.23-6.2 0-11.02-1.95-13.96-5.63-1.87-2.33-3.6-5.74-3.6-14.83v-54.58h37.25v-24.01h-37.25v-29.8h-24.76v29.82h-30.74v23.99h30.74v54.1c0 13.5 2.66 22.86 8.61 30.36 10.09 12.68 25.41 14.58 33.64 14.58h.01c5.34 0 10.66-.73 15.8-2.17l4.69-1.57-4.47-23.22-5.72 1.73zm115.93-17.43c-6.53 11.4-18.64 18.74-31.08 18.74-.18 0-.36.01-.54.01-9.04 0-17.42-4.45-22.47-11.98-3.2-4.79-5.32-10.93-5.32-25.32v-61.84h-24.72v63.94c0 14.44 2.15 24.52 7.22 33.73 9.05 15.89 26.21 25.38 45.9 25.38 11.32-.04 22.33-3.58 31.5-10.07v7.67h24.25V373.13h-24.75v80.39zm139.23-71.94c-10.01-7.02-22-10.84-34.29-10.84h-.32c-13.89.01-27.51 4.79-38.43 13.51-14.38 12.32-22.53 30.24-22.38 49.15 0 21.24 9.35 39.97 25.63 51.37 10.39 7.44 22.6 11.36 35.31 11.36h1.34c12 0 23.56-3.83 33.13-10.89v8.53h24.25V373.13h-24.25v8.45zm-70.7 51.87v-.02c0-12.43 4.87-23.58 13.34-30.56 6.5-5.21 14.66-8.1 22.98-8.15 17.24 0 29.46 11.57 33.91 18.18v39.2c-7.81 12.57-20.34 20.05-33.64 20.05-7.8-.09-15.28-2.55-21.62-7.12-9.37-6.62-14.97-18.43-14.97-31.58zm119.66-121.37h24.73v181.7h-24.73zM157.5 272.25h53v221h-53zm149 56.53v-56.53h-56.54zm0 164.47v-56.54l-56.54 56.54zm-48-150.48l-39.98 39.98 39.98 39.97z"/></svg>