<svg viewBox="50.26 -4.74 298.48 251.48" xmlns="http://www.w3.org/2000/svg"><title>Elastisys (KCSP)</title><defs><clipPath id="a"><path d="M0 164.41h195.59V0H0v164.41z"/></clipPath></defs><path fill="none" d="M0 0h400v245H0z" pointer-events="none"/><g clip-path="url(#a)" transform="matrix(1.49018 0 0 -1.49018 54.268 245)"><path fill="#001b69" d="M9.443 31.926c.348 2.55 2.203 3.652 5.045 3.652 1.855 0 3.422-.695 3.422-2.26 0-1.507-.523-2.378-2.437-3.015L8.921 28.04l.522 3.885zm-1.45-11.133v.695l8.003 2.725c5.392 1.856 8.35 4.06 8.35 9.627 0 4.524-3.538 7.592-9.278 7.592-6.959 0-11.599-3.822-12.353-9.041l-1.39-9.975a19.28 19.28 0 0 1-.175-2.38c0-4.694 3.073-7.594 9.742-7.594h9.174l.858 5.925s-5.508-.011-9.162-.011c-2.55 0-3.77.812-3.77 2.437M39.513 52.24h-11.03l-.87-5.914h4.189l-3.868-27.97h-4.825l-.87-5.915h16.47l.87 5.914h-4.803l4.737 33.885zm84.089.793h-6.843l-1.043-7.422h6.842l1.044 7.422zm-1.624-11.598h-11.077l-.87-5.914h4.234l-2.378-17.166h-4.814l-.868-5.914h16.526l.87 5.914h-4.87l3.248 23.08zm17.27 0h-.012c-6.552 0-11.83-2.957-11.83-8.697 0-8.41 11.539-7.365 11.539-11.656 0-2.435-2.432-2.724-4.519-2.726-4.52.002-8.717.014-8.717.014l-.84-5.928s4-.01 8.986-.01c7.656 0 12.177 3.838 12.177 9.52 0 8.64-11.597 7.886-11.597 11.599 0 1.273 1.334 2.027 4.231 2.027 3.248 0 7.761.025 7.761.025l.851 5.832h-8.03zm-60.163.012h-.012c-6.552 0-11.83-2.97-11.83-8.713 0-8.408 11.539-7.365 11.539-11.656 0-2.434-2.432-2.72-4.519-2.723-4.52.002-8.717.01-8.717.01l-.854-5.926s4.014-.008 9-.008c7.656 0 12.178 3.834 12.178 9.518 0 8.641-11.598 7.887-11.598 11.598 0 1.275 1.334 2.031 4.231 2.031 3.248 0 7.761.021 7.761.021l.852 5.834s-3.571.012-8.03.014h-.001zm107.111-.012h-.012c-6.552 0-11.83-2.957-11.83-8.697 0-8.41 11.54-7.365 11.54-11.656 0-2.435-2.432-2.724-4.52-2.726-4.52.002-8.717.014-8.717.014l-.867-5.928s4.027-.008 9.013-.008c7.657 0 12.178 3.836 12.178 9.518 0 8.64-11.598 7.886-11.598 11.599 0 1.273 1.334 2.027 4.231 2.027 3.248 0 7.762.025 7.762.025l.851 5.832h-8.031zm-17.866 0l-8.757-18.324-3.596 18.324h-7.248l6.147-27.313-6.088-12.119h6.9l19.891 39.433h-7.25zM57.69 31.346l-1.39-9.742c-.29-1.971-2.436-3.248-4.756-3.248-2.145 0-3.653 1.045-3.653 2.842 0 .697.115 1.507.232 2.32l1.334 8.756c.348 2.203 2.378 3.304 4.697 3.304 2.088 0 3.653-1.101 3.653-2.84 0-.464-.058-.871-.117-1.392m2.09 10.09l-.58-2.26s-1.973 2.272-5.858 2.272c-5.625 0-9.916-3.956-10.67-9.405l-1.45-10.207c-.058-.521-.116-1.101-.116-1.566 0-4.813 3.306-7.828 8.234-7.828 4.176 0 6.438 2.377 6.438 2.377l-.116-2.377h6.147l4.117 28.994H59.78zm38.31-21.514c0 .406.116 1.334.174 1.74l1.97 13.916h5.425l.87 5.858h-5.423l.869 6.322H95.19l-.87-6.322h-5.277l-.87-5.858h5.278l-2.03-14.554c-.116-.87-.231-1.856-.231-2.436 0-4.176 2.434-6.156 8.349-6.156 4.408 0 4.653.01 4.653.01l.798 5.914h-3.537c-2.724 0-3.363.464-3.363 1.566"/><path fill="#1082ce" d="M69.748 58.6c1.689 11.17 9.569 50.72 36.729 50.72 1.571 0 3.221-.13 4.891-.4 8.569-1.86 13.98-7.84 13.779-15.23-.319-11.911-15.089-28.051-55.399-35.09"/><path fill="#6e87cd" d="M109.928 67.32c13.71 8.03 19.44 17.75 19.67 26.25.26 9.65-6.55 17.39-17.36 19.72l-.12.02c-1.91.3-3.81.46-5.64.46-14.51 0-24.06-9.24-30.3-20.32 7.97 18.98 21.53 37.33 44.14 37.33 2.35 0 4.8-.2 7.27-.59 12.95-2.81 21.11-11.87 20.8-23.1-.34-12.47-11.25-28.06-38.46-39.77"/><path fill="#001b69" d="M182.668 128.42c-.51-18.7-17.23-42.2-59.2-59.35a90.985 90.985 0 0 1 8.099 5.17c13.401 9.61 20.96 21.23 21.271 32.73.37 13.489-9.2 24.319-24.37 27.59l-.12.02c-2.73.43-5.43.65-8.031.65-21.069 0-38.019-14.43-49-41.73 1.401 4.4 3 8.92 4.811 13.42 15.08 37.48 37.04 56.49 65.28 56.49 3.44 0 7.01-.291 10.619-.86 19.071-4.13 31.101-17.521 30.641-34.13"/></g></svg>