<?xml version="1.0" encoding="utf-8"?>
<!-- Generator: Adobe Illustrator 18.1.1, SVG Export Plug-In . SVG Version: 6.00 Build 0)  -->
<svg version="1.1" id="left" xmlns="http://www.w3.org/2000/svg" xmlns:xlink="http://www.w3.org/1999/xlink" x="0px" y="0px"
	 viewBox="0 0 792 153" enable-background="new 0 0 792 153" xml:space="preserve">
<path fill="#464D51" d="M258.8,43.8c-5-1.3-9.9-2-15-2c-21.4,0-33.8,12.9-33.8,34.6v52.8c0,2,0.4,2.8,2.4,2.8h10.5
	c2,0,3.5-0.8,3.5-2.8V75.8c0-16.2,13-17.9,18.7-17.9c2.9,0,6.6,0.5,10.3,1.5c2.1,0.3,3.5-0.6,3.7-2.4l2.2-9.1
	C261.9,45.2,259.6,44.2,258.8,43.8z"/>
<path fill="#464D51" d="M316,41c-28.1,0-46.2,18.5-46.2,47.1c0,28.6,18.1,47.1,46.2,47.1c14.7,0,26.6-5.1,35.5-15.1
	c0.5-0.7,0.7-1.5,0.6-2.2c-0.1-0.8-0.7-1.6-1.5-2.1l-9-4.6c-1.8-0.8-3.5-0.5-4.8,0.8c-4.9,4.5-12.7,7.2-20.8,7.2
	c-17,0-27.5-10.1-29.2-27.8h72.1c1.6,0,2.9-0.5,3.2-2c0-0.2,0-1.9,0-1.9c0-14.4-4.6-26.3-13.4-34.6C340.5,44.9,329.2,41,316,41z
	 M288,76.9c0-0.1,0-0.2,0.1-0.2c3.6-12.7,13.5-19.6,27.9-19.6c14.1,0,23.9,5.5,27.7,19.8H288z"/>
<path fill="#464D51" d="M561.8,44.3h-11.9c-1.8,0-3.2,1.4-3.2,3.2v81.3c0,1.8,1.4,3.2,3.2,3.2h11.9c1.8,0,3.2-1.4,3.2-3.2V47.5
	C565.1,45.7,563.6,44.3,561.8,44.3z"/>
<path fill="#464D51" d="M785.1,3.4h-10.5c-2,0-3.4,2.1-3.4,4.1v42.4c-6.6-7.8-17.8-10.7-29.8-11c-0.5,0-0.9,0-1.4,0
	c-26.8,0-44.1,18.5-44.1,47.1c0,27.3,19,47.1,45.8,47.1c27.6,0,45.8-18.9,45.8-47.1V7.5C787.5,5.5,787.1,3.4,785.1,3.4z M742.1,117
	c-18.3,0-29.3-11.6-29.3-31c0-19.7,10.7-31,29.3-31c18.2,0,28.6,11,29.3,31C771.4,105.4,760.4,117,742.1,117z"/>
<path fill="#464D51" d="M480.8,41c-13.5,0-24.5,5.2-30.8,14.6C443.2,46,432.3,41,418.9,41c-24.5,0-39.6,15.2-39.6,40.7v47.5
	c0,2,1.9,2.8,3.9,2.8h10.5c2,0,4-0.8,4-2.8V81.7c0-20.4,12.3-24.7,22.4-24.7c7.7,0,20.4,8,20.4,17.4v54.8c0,1.8,1.4,2.8,3.2,2.8h0.9
	h10.5h0.5c1.8,0,3.2-1,3.2-2.8V74.3c0-9.7,10-17.3,20.4-17.3c10.2,0,22.4,4.3,22.4,24.7v47.5c0,2,2.4,2.8,4.4,2.8h10.5
	c2,0,3.5-0.8,3.5-2.8V81.7C520.2,56.2,505.4,41,480.8,41z"/>
<path fill="#464D51" d="M633.4,41c-26.6,0-43.9,17-43.9,44.4v43.8c0,2,2.4,2.8,4.4,2.8h10.5c2,0,3.5-0.8,3.5-2.8V85.4
	c0-25,18.4-26.1,25.5-26.3c7.1,0.2,25.5,1.3,25.5,26.3v43.8c0,2,1.5,2.8,3.5,2.8h10.5c2,0,4.4-0.8,4.4-2.8V85.4
	C677.3,58,660,41,633.4,41z"/>
<path fill="#4A89DC" d="M143.5,35.6c-10.2-13-29.6-21.8-51.9-21.8c-27.3,0-50.3,13.2-57.3,31.3C17,51.3,4.5,67.9,4.5,87.4
	c0,24.8,20.1,44.9,44.9,44.9c8.8,0,17-2.5,23.9-6.9l2.1,19.6c0.5,4.5,6.2,6.1,9,2.5l19.5-25.9c1.5,0.2,3,0.4,4.5,0.4
	c12.3,0,22.7-7.7,26.9-18.5c21.1-1.2,37.8-16.2,37.8-34.6C173.2,53.1,160.6,39.7,143.5,35.6z"/>
</svg>
