<svg xmlns="http://www.w3.org/2000/svg" role="img" viewBox="-4.63 79.62 409.76 87.26"><path fill="none" d="M0 0h400v245H0z" pointer-events="none"/><path fill="#195ba9" d="M45.93 101.855V88.818h20.148v13.037H45.93zm-8 56.147c-19.11 0-34.518-15.555-34.518-34.518 0-19.11 15.555-34.518 34.518-34.518h1.482v13.037H37.93c-11.852 0-21.481 9.63-21.481 21.63 0 11.851 9.63 21.48 21.481 21.48h28.148v13.037H37.93v-.148z" class="st0"/><path fill="#195ba9" d="M37.93 130.003c-3.555 0-6.518-2.963-6.518-6.519 0-3.555 2.963-6.518 6.518-6.518h28.148v13.037H37.93zm77.036 27.999l-28-45.184v45.184H72.894V88.818H87.56l28 45.185V88.818h14.074v69.184h-14.667zm54.222 1.185c-9.778 0-18.074-3.703-24.148-10.666-5.63-6.519-8.74-15.407-8.74-25.185 0-9.63 3.11-18.518 8.74-25.037 6.074-6.963 14.37-10.666 24.148-10.666 16.296 0 27.704 9.333 29.185 23.703l.148 1.63h-14.37l-.296-1.185c-1.926-7.852-6.963-11.852-14.815-11.852-13.481 0-18.37 12.592-18.37 23.259 0 10.815 4.74 23.259 18.37 23.259 8.444 0 14.074-5.926 15.111-15.704l.148-1.333h14.222l-.148 1.63c-.889 17.036-12.74 28.147-29.185 28.147z" class="st0"/><path fill="#5f5f5f" d="M218.67 130.743h1.777v9.185h11.11v-9.185h1.779v21.185h-1.778V141.41h-11.26v10.518h-1.777v-21.185zm19.258 13.482c0-5.037 3.26-8.148 6.815-8.148 3.704 0 6.074 2.666 6.074 7.259 0 .444 0 .889-.148 1.185h-11.111c.148 3.852 2.37 6.37 5.778 6.37 1.63 0 2.963-.592 4.148-1.333l.592 1.185c-1.185.74-2.666 1.482-5.037 1.482-3.852.148-7.11-2.963-7.11-8zm11.26-1.186c0-3.703-1.778-5.63-4.445-5.63-2.519 0-4.889 2.075-5.185 5.63h9.63zm5.777 6.667v-20.889h1.63v21.037c0 .741.296 1.037.74 1.037h.593l.296 1.334c-.296.148-.592.148-1.185.148-1.333 0-2.074-.89-2.074-2.667zm7.259-18.222c0-.889.593-1.333 1.482-1.333.74 0 1.481.592 1.481 1.333 0 .74-.74 1.333-1.481 1.333-.89 0-1.482-.592-1.482-1.333zm.593 4.889h1.63v15.555h-1.63v-15.555zm7.259 9.926v-9.926h1.63v9.778c0 3.11 1.037 4.592 3.407 4.592 1.778 0 3.111-.889 4.889-2.963v-11.407h1.63v15.555h-1.482l-.148-2.518h-.148c-1.482 1.778-3.111 2.963-5.334 2.963-2.962 0-4.444-2.074-4.444-6.074zm17.481-9.926h1.334l.148 2.37c1.333-1.481 3.111-2.815 4.889-2.815 2.518 0 3.703 1.186 4.296 3.112 1.778-1.926 3.407-3.112 5.333-3.112 3.111 0 4.741 2.074 4.741 6.074v9.926h-1.63v-9.63c0-3.258-1.037-4.74-3.407-4.74-1.333 0-2.815.889-4.444 2.815v11.555h-1.63v-9.63c0-3.258-1.037-4.74-3.407-4.74-1.334 0-2.815.889-4.445 2.815v11.555h-1.63v-15.555zm31.852 4.889c0-6.815 3.704-10.963 9.185-10.963a7.484 7.484 0 0 1 5.63 2.518l-1.037 1.186c-1.186-1.334-2.667-2.075-4.593-2.075-4.444 0-7.407 3.556-7.407 9.334 0 5.777 2.815 9.481 7.259 9.481 2.222 0 3.704-.889 5.333-2.518l1.037 1.037c-1.63 1.926-3.703 2.963-6.37 2.963-5.333.148-9.037-4.149-9.037-10.963zm19.555 8.444v-20.889h1.63v21.037c0 .741.296 1.037.74 1.037h.593l.297 1.334c-.297.148-.593.148-1.186.148-1.481 0-2.074-.89-2.074-2.667zm6.519-5.481c0-5.185 3.259-8.148 7.11-8.148 3.705 0 7.112 2.963 7.112 8.148s-3.26 8.148-7.111 8.148c-3.852 0-7.111-2.963-7.111-8.148zm12.296 0c0-4-2.222-6.667-5.333-6.667s-5.334 2.667-5.334 6.667 2.223 6.666 5.334 6.666 5.333-2.815 5.333-6.666zm6.074 2.074v-9.926h1.63v9.778c0 3.11 1.037 4.592 3.407 4.592 1.778 0 3.111-.889 4.889-2.963v-11.407h1.63v15.555h-1.482l-.148-2.518h-.148c-1.482 1.778-3.111 2.963-5.334 2.963-2.963 0-4.444-2.074-4.444-6.074zm16.297-2.074c0-5.037 3.258-8.148 6.962-8.148 1.926 0 3.111.74 4.593 1.925l-.149-2.814v-6.37h1.63v23.11h-1.333l-.148-1.926c-1.186 1.186-2.963 2.37-5.037 2.37-4 0-6.519-2.962-6.519-8.147zm11.406 4.148v-9.037c-1.63-1.334-2.962-1.926-4.296-1.926-2.963 0-5.333 2.815-5.333 6.667 0 4 1.778 6.666 4.889 6.666 1.778.148 3.259-.74 4.74-2.37zm-170.813-37.778c-.592 1.926-1.63 3.852-2.666 5.037-.297-.148-.741-.592-1.037-.74 1.185-1.186 2.074-2.963 2.666-4.593l1.037.296zm3.111-1.333v7.26c0 .74-.148 1.036-.592 1.184-.445.149-1.334.149-2.519.149-.148-.297-.296-.741-.444-1.186h2.074c.296 0 .296-.148.296-.296v-7.26h-5.481v-1.184h5.481v-3.111h-5.63v-1.037h7.408c.592-1.334 1.185-3.26 1.63-4.593l1.185.296c-.445 1.334-1.037 3.111-1.63 4.297h3.704v1.185h-5.482v3.11h5.185v1.186h-5.185zm5.037-10.37h-11.407v-1.185h5.63c-.297-.741-.89-1.778-1.334-2.519l1.185-.296c.593.889 1.186 2.074 1.63 2.815h4.444v1.185zm-8.296 4.592c-.148-1.037-.593-2.814-1.185-4.148l1.037-.296c.593 1.185 1.037 2.963 1.185 4l-1.037.444zm5.63 6.815c.889 1.333 1.777 3.111 2.222 4.296l-1.037.445c-.445-1.185-1.334-2.963-2.222-4.445l1.037-.296zm14.37-5.333h-3.111v13.481h-1.185v-13.481h-4.89v1.185c0 3.704-.296 8.592-2.814 12.148-.148-.296-.593-.593-.889-.74 2.37-3.26 2.667-7.853 2.667-11.26v-8.74c2.963-.445 6.518-1.186 8.296-1.926l1.037.888c-2.222.741-5.333 1.482-8.148 1.778v5.482h9.185v1.185zm13.333 2.222c-.74-.74-3.111-2.37-4.444-3.111-.89 1.63-2.37 3.111-5.334 4.444-.148-.296-.592-.74-.74-.889 3.703-1.481 5.037-3.407 5.63-5.185h-5.482v-1.037h5.63v-2.963h-2.815c-.593 1.037-1.186 1.778-1.778 2.519-.148-.148-.74-.445-1.037-.593 1.333-1.333 2.37-3.259 2.963-5.333l1.185.296c-.296.741-.593 1.482-.74 2.074h7.555v1.037h-4.148v2.963h4.888v1.037h-5.037c-.148.297-.148.593-.296.741 1.037.593 4.148 2.519 4.889 3.111l-.889.889zm-6.518.889h15.555v10.518h-1.333v-.889h-13.037v1.037h-1.185v-10.666zm1.185 1.037v3.111h13.037v-3.111h-13.037zm13.037 7.26v-3.112h-13.037v3.111h13.037zm3.407-19.112v8.593h-8.74v-8.593h8.74zm-1.185 1.037h-6.222v6.222h6.222V98.3zm15.407 13.481c.148.297.296.741.445 1.038-5.037 3.407-5.63 3.851-5.926 4.296a4.502 4.502 0 0 0-.741-1.037c.444-.297 1.333-1.037 1.333-2.222v-9.482h-4.74v-1.185h5.926v11.111l3.703-2.518zm-3.259-11.703c-.889-1.037-2.519-2.667-3.852-3.852l.889-.74c1.333 1.185 2.963 2.666 3.852 3.555l-.889 1.037zm9.926-5.185c0 2.815 0 5.63-.297 8.296.445 2.37 1.778 10.963 7.556 14.37-.296.148-.74.593-.889.89-4.148-2.668-6.074-8-6.963-11.704-.74 4.888-2.37 9.185-6.222 11.851-.296-.296-.593-.592-1.037-.74 6.667-4.445 6.667-13.926 6.667-22.963h1.185zm16.74 9.629v1.037h5.334v1.186h-5.334c-.148.74-.148 1.481-.296 2.222 1.185 1.185 4.593 4.889 5.333 5.777l-.889 1.037c-.888-1.185-3.407-4-4.74-5.63-.74 2.964-2.37 5.927-5.63 8.297-.148-.296-.592-.74-.889-.889 4.297-2.963 5.482-7.11 5.926-10.814h-5.63v-1.186h5.778v-5.777h-2.814c-.593 1.777-1.482 3.259-2.223 4.444-.296-.148-.74-.593-1.037-.74 1.63-2.075 2.815-5.334 3.408-8.593l1.185.296c-.296 1.185-.593 2.222-.889 3.407h7.852v1.186h-4.445v4.74zm15.26-7.259v20.444h-1.186v-2.074h-6.518v2.223h-1.185V97.262h8.888zm-1.186 17.185v-16h-6.518v16h6.518zm8.889-3.852c-.592 1.926-1.63 3.852-2.667 5.037-.296-.148-.74-.592-1.037-.74 1.186-1.186 2.075-2.963 2.667-4.593l1.037.296zm3.111-1.333v7.26c0 .74-.148 1.036-.592 1.184-.445.149-1.334.149-2.519.149-.148-.297-.296-.741-.444-1.186h2.074c.296 0 .296-.148.296-.296v-7.26h-5.481v-1.184h5.481v-3.111h-5.63v-1.037h7.408c.592-1.334 1.185-3.26 1.63-4.593l1.185.296c-.445 1.334-1.037 3.111-1.63 4.297h3.704v1.185h-5.482v3.11h5.185v1.186h-5.185zm5.037-10.37h-11.407v-1.185h5.63c-.297-.741-.89-1.778-1.334-2.519l1.185-.296c.593.889 1.186 2.074 1.63 2.815h4.444v1.185zm-8.444 4.592c-.148-1.037-.593-2.814-1.185-4.148l1.037-.296c.592 1.185 1.037 2.963 1.185 4l-1.037.444zm5.63 6.815c.888 1.333 1.777 3.111 2.222 4.296l-1.037.445c-.445-1.185-1.334-2.963-2.223-4.445l1.037-.296zm14.518-5.333h-3.111v13.481h-1.185v-13.481h-4.89v1.185c0 3.704-.296 8.592-2.814 12.148-.148-.296-.593-.593-.889-.74 2.37-3.26 2.667-7.853 2.667-11.26v-8.74c2.963-.445 6.518-1.186 8.296-1.926l1.037.888c-2.222.741-5.333 1.482-8.148 1.778v5.482h9.185v1.185zm7.852-6.666c-1.186 1.925-2.667 3.703-4.297 5.036-.296-.148-.74-.592-1.037-.74 2.37-1.926 4.445-4.741 5.63-7.704l1.185.296c-.296.74-.593 1.333-1.037 2.074h17.185V98.3h-17.63zm-4.149 8.147h8c-.296-.74-.592-1.481-.888-2.074l1.185-.444c.296.74.74 1.778 1.037 2.518h6.666v1.037h-8c-1.333 1.037-2.814 2.074-4.148 2.667l5.778-.296c.593-.445 1.037-.89 1.333-1.334l1.037.445c-2.37 2.666-6.666 4.74-11.11 5.777-.149-.296-.445-.74-.593-.888 2.815-.593 5.63-1.778 7.852-3.112-5.334.297-5.926.297-6.37.445 0-.296-.297-.889-.297-1.185.444 0 .889-.297 1.481-.593.445-.296 1.926-1.185 3.408-2.222h-6.37v-.74zm14.667 4.593c-1.037 1.185-2.222 2.222-3.704 3.259 1.926.889 4.148 2.222 5.334 3.111l-.741.889c-1.185-1.037-3.704-2.37-5.63-3.407-2.666 1.63-5.926 2.814-9.333 3.555a4.502 4.502 0 0 0-.74-1.037c5.777-1.185 10.962-3.704 13.629-6.963l1.185.593zm3.26-8.445c.147 7.556.74 14.963 3.11 14.963.593 0 .741-1.63.741-4 .296.297.593.593.889.593-.148 3.407-.445 4.592-1.778 4.592-3.26 0-4-6.37-4.148-15.11H350.52v-1.038h16.592zm-13.482-1.777V99.78h15.407v1.037h-15.407zm31.407 5.037c-1.926 3.555-4.148 7.259-6.37 10.074l14.666-1.334a166.294 166.294 0 0 0-3.703-5.333l1.037-.593c2.222 2.963 5.037 6.815 6.222 9.186l-1.185.74a173.18 173.18 0 0 1-1.63-2.815c-15.111 1.334-16.444 1.482-17.333 1.778-.148-.296-.297-1.037-.445-1.481.445-.148 1.185-.89 1.926-2.074.741-1.037 3.26-4.593 5.037-8.296h-8.74v-1.186h22.962v1.186h-12.444zm9.778-7.408h-17.482v-1.333h17.482v1.333z" class="st4"/></svg>