<svg xmlns="http://www.w3.org/2000/svg" role="img" viewBox="-3.72 -3.72 193.18 65.18"><title>EngineerBetter (KCSP) logo</title><g fill="none" fill-rule="evenodd"><path fill="#000" d="M0 0v25H18v-3.571H3.462v-7.143h10.903v-3.571H3.462V3.571H18V0zm36.539 0v17.536L25.15.75 24.631 0H22v25h3.461V7.464L36.85 24.25l.519.75H40V0zm20.096 0H48.534l-.519.679-3.635 4.714-.38.5V19.108l.38.5 3.635 4.714.519.678H57.466l.519-.678 3.634-4.714.381-.5v-8.394h-9v3.572h5.538v3.607l-2.734 3.536h-5.608l-2.735-3.536V7.107l2.735-3.536h5.608l3.115 4.037 2.7-2.215L57.985.679 57.466 0zM66 0v3.571h3.185v17.858H66V25h10v-3.571H72.889V3.571H76V0zm28.539 0v17.536L83.15.75 82.631 0H80v25h3.461V7.464L94.85 24.25l.519.75H98V0zM104 0v25H122v-3.571h-14.539v-7.143h10.904v-3.571h-10.904V3.571H122V0zm22 0v25h18v-3.571h-14.539v-7.143h10.904v-3.571h-10.904V3.571H144V0zm22 0v25h3.5783V14.286h8.54183l2.90826 4.14243V25h3.5779v-7.71443l-.32187-.46428-3.03111-4.32149 3.0311-4.3207L167 7.1428l-.71558-1.03551-3.7569-5.3574L161.99093 0H148zm3.57751 3.5716h8.55205l2.50512 3.5712-2.50512 3.5712h-8.55205V3.5716z"/><path fill="#1D71B8" d="M48.36903 33H36V58H49.26729l.51773-.78593 3.5248-5.35692.65607-1.00023-.65607-.99984-2.88086-4.37863 2.88086-4.33553L54 40.1427l-.69018-1.00063-3.5248-5.35692L49.26729 33h-.89826zm-8.91396 3.57154h8.01495l2.31462 3.57115-2.34874 3.57115h-7.98083v-7.1423zm-.00038 10.71384h8.01533l2.34949 3.57115-2.3495 3.57154H39.4547v-7.1427zM75.269 33H59v25H77v-3.571H62.461v-7.143h10.904v-3.572H62.461v-7.143H77V33zm22 0H81v3.571h7.269V58h3.462V36.571H99V33zm23 0H104v3.571h7.269V58h3.461V36.571H122V33zm22 0H126v25h18v-3.571h-14.539v-7.143h10.904v-3.572h-10.904v-7.143H144V33zm18.79163 0H148V58h3.5783V47.28577h8.54183l2.90826 4.14277V58h3.5779V50.28569l-.32187-.46466L163.2533 45.5l3.0311-4.32142.71559-1.0359-.71558-1.03588-3.7569-5.35692L161.99093 33h-.9303zm-9.48312 3.57154h8.55205l2.50473 3.57115-2.50473 3.57115h-8.55205v-7.1423z"/><path fill="#0071BC" d="M177 34.954l4.487 5.696-4.423 5.664L180.273 48 186 40.647 180.044 33z"/></g></svg>