<svg xmlns="http://www.w3.org/2000/svg" role="img" viewBox="-3.56 -3.56 185.25 52.88"><title>Entando (member) logo</title><defs><style>.cls-1{fill:#002f87}</style></defs><g id="Livello_2" data-name="Livello 2"><g id="Entando_Dark_Blue"><g id="Entando_Logo_Dark_Blue"><path d="M66.37 14.9h5v-4.7h-5V2.55l-5.09 2.38v5.27h-1.19l-2.54 1.19v3.51h3.73v13.93c0 5.15 3.86 6.78 7.11 6.81a9 9 0 0 0 5-1.4v-3.32h-4c-2.91 0-3-.93-3-4.38z" class="cls-1"/><path fill="#00a0df" d="M15.28 40.71H5.09V30.54L0 32.93V45.8h15.27l.01-5.09zM162.96 5.1h10.18v10.17l5.09-2.39V.01h-15.27V5.1z"/><path d="M22.8 25.83c6 0 8.23-2.77 8.23-6V17c0-3.25-2.45-6.77-8-6.77h-4.4A8.17 8.17 0 0 0 10.21 18v7.82c0 4.83 4.52 9.81 11 9.81A13.77 13.77 0 0 0 30.66 32l-3-4.12c-2.67 1.83-3.42 2.63-6.32 2.63s-6.08-1.63-6.08-4.7zm0-10.56c2.52 0 3.1.75 3.1 2.38v1.1c0 2.16-1 2-3.17 2h-7.44V18a2.74 2.74 0 0 1 3-2.74zm122.32 19.99l-.47-1.6V0l-5.14 2.39v8.38a7.07 7.07 0 0 0-2.9-.57h-4.41a7.79 7.79 0 0 0-8 7.81v7.82c0 4.83 4.14 9.81 10.62 9.81a9.14 9.14 0 0 0 4.77-1.64l.39 1.31zm-15.9-9.79v-7.08a3 3 0 0 1 3-3.1h4.23c2.48 0 3.07 1.35 3.09 2.95V29a6.61 6.61 0 0 1-4.62 1.56c-2.92 0-5.7-2.01-5.7-5.09zM44.63 10.2a12.36 12.36 0 0 0-5.41 1.48l-.33-1.1H33.8l.46 1.55v23.13h5.09V16.79a9.93 9.93 0 0 1 5.13-1.5c2.81 0 5.21 1.24 5.21 4.76v15.21h5.09V19.68c0-6.14-3.84-9.48-10.15-9.48zm66.58 0a12.36 12.36 0 0 0-5.41 1.48l-.32-1.1h-5.1l.46 1.55v23.13h5.1V16.79a9.87 9.87 0 0 1 5.12-1.5c2.82 0 5.21 1.24 5.21 4.76v15.21h5.09V19.68c0-6.14-3.84-9.48-10.15-9.48zm49.13 0h-4.41a7.79 7.79 0 0 0-8 7.81v9.81a7.79 7.79 0 0 0 8 7.81h4.41c4.67 0 7.62-3.52 7.62-6.78V17c.04-3.28-2.96-6.8-7.62-6.8zm2.53 17.34c0 1.62-.58 3-3.09 3h-3.84a3 3 0 0 1-3-3.1v-9.05a3 3 0 0 1 3-3.1h3.83c2.52 0 3.1 1.38 3.1 3zm-65.26 7.72l-.59-2V17c0-3.25-3-6.77-7.62-6.77h-4.78A7.6 7.6 0 0 0 76.87 16l4.41 2.07V18a2.72 2.72 0 0 1 3-2.72h4.58c2.52 0 3.1 1.38 3.1 3V20h-7.54c-6 0-8.23 2.77-8.23 6.05v2.81c0 3.26 2.45 6.78 8 6.78h2.39a7.51 7.51 0 0 0 5.46-2l.49 1.65zm-5.68-7.44a2.74 2.74 0 0 1-3 2.74h-4.56c-2.51 0-3.09-.75-3.09-2.37v-1.3c0-2 1-1.79 3.17-1.79h7.48z" class="cls-1"/></g></g></g></svg>