<svg xmlns="http://www.w3.org/2000/svg" role="img" viewBox="-6.95 56.55 413.66 155.91"><title>EPAM Systems (member) logo</title><style>svg {enable-background:new 0 0 400 245}</style><path fill="#454547" d="M76.17 127.13l.05 25.69c0 6.52 3.26 9.77 9.77 9.77h2.85c6.52 0 9.77-3.26 9.77-9.77v-12.63h15.07v12.01c0 16.49-8.35 24.84-24.84 24.84h-3.26c-16.49 0-24.84-8.35-24.84-22.91V91.42c0-18.43 8.35-26.78 24.84-26.78h3.26c16.49 0 24.84 8.35 24.84 24.84l-.05 37.64H76.17zm.05-14.9h21.99V88.87c0-6.52-3.26-9.77-9.77-9.77H86c-6.52 0-9.77 3.26-9.77 9.77v23.36zm47.53-46.37h15.48v7.13c3.67-3.87 9.98-8.35 18.94-8.35 13.24 0 19.75 8.76 19.75 21.79v68.83c0 13.03-6.52 21.79-19.75 21.79-8.96 0-15.27-4.28-18.94-7.94v35.48h-15.48V65.86zm15.47 90.83c4.28 3.66 9.16 5.7 14.25 5.7 5.7 0 8.96-2.65 8.96-8.96V88.26c0-6.31-3.26-8.96-8.96-8.96-5.09 0-9.98 2.04-14.25 5.7v71.69zm48.04-19.15c0-13.64 4.48-19.14 16.29-23.21l20.77-7.13V88.87c0-6.52-3.26-9.98-9.77-9.98h-2.52c-6.52 0-9.77 3.46-9.77 9.98v15.58h-15.07V89.48c0-16.49 8.35-24.84 24.84-24.84h2.93c16.49 0 24.84 8.35 24.84 24.84v86.34h-15.48v-6.92c-4.28 4.07-9.98 8.15-18.94 8.15-12.42 0-18.12-7.13-18.12-19.35v-20.16zm37.06 19.76v-36.27l-14.05 5.32c-5.7 2.24-7.53 5.09-7.53 11.4v16.7c0 5.29 2.65 7.94 7.53 7.94 4.68 0 8.96-1.63 14.05-5.09zm78.07 18.53h-15.48V87.24c0-5.5-2.65-7.94-7.33-7.94-4.28 0-8.76 1.63-14.25 5.5v91.03h-15.48V65.86h15.48v7.13c4.48-4.28 10.39-8.35 18.94-8.35 7.94 0 13.24 3.26 16.09 8.96 5.5-4.68 12.01-8.96 20.98-8.96 12.01 0 18.12 7.33 18.12 19.35v91.84h-15.48V87.24c0-5.5-2.65-7.94-7.33-7.94-4.28 0-8.76 1.63-14.25 5.5v91.03z"/><path fill="#00b4d0" d="M40.91 75.99v20.22l-26.05 24.82 26.05 24.37v20.66L1.15 128.69v-14.88l39.76-37.82zm357.94 37.82v14.88l-39.76 37.38v-20.66l26.05-24.37-26.05-24.82V75.99l39.76 37.82z"/></svg>