<svg xmlns="http://www.w3.org/2000/svg" role="img" viewBox="-2.63 -2.63 302.02 345.02"><title>etcd logo</title><defs><style>.cls-1{fill:#419eda}</style></defs><path d="M139.052 100.373a14.612 14.612 0 1 1-14.612-14.612 14.612 14.612 0 0 1 14.612 14.612zm18.9 0a14.612 14.612 0 1 0 14.612-14.612 14.612 14.612 0 0 0-14.612 14.612z" class="cls-1"/><path d="M257.442 116.232h-3.216a42.19 42.19 0 0 1-18.552-4.314 172.3 172.3 0 0 0 2.494-32.814 169.83 169.83 0 0 0-21.245-25.184 42.19 42.19 0 0 1 14.961-16.034l2.743-1.695-2.144-2.494a111.858 111.858 0 0 0-39.048-28.3L190.467 4.1l-.748 3.142a42.09 42.09 0 0 1-10.597 19.224 169.88 169.88 0 0 0-30.595-12.617 169.283 169.283 0 0 0-30.57 12.468A41.99 41.99 0 0 1 107.41 7.142L106.637 4l-2.968 1.297a112.93 112.93 0 0 0-39.073 28.575l-2.144 2.493 2.743 1.696a42.14 42.14 0 0 1 14.96 15.958 171.103 171.103 0 0 0-21.244 25.01 172.05 172.05 0 0 0 2.494 33.039 42.065 42.065 0 0 1-18.452 4.288h-3.242l-3.241-.399.3 3.217a111.184 111.184 0 0 0 14.96 45.98l1.696 2.693 2.493-2.095a42.04 42.04 0 0 1 19.948-9.325 170.803 170.803 0 0 0 16.956 27.877 172.525 172.525 0 0 0 32.29 7.93 41.965 41.965 0 0 1-2.693 22.017l-1.172 2.992 3.142.698a112.531 112.531 0 0 0 24.187 2.668l24.187-2.668 3.142-.698-1.222-2.992a41.915 41.915 0 0 1-2.668-22.068 172.549 172.549 0 0 0 32.166-7.904 170.055 170.055 0 0 0 17.055-27.777 42.14 42.14 0 0 1 19.948 9.325l2.493 2.07 1.646-2.768a110.91 110.91 0 0 0 14.961-45.98l.3-3.216zm-74.305 39.297a130.584 130.584 0 0 1-69.27 0 132.504 132.504 0 0 1-21.07-65.479 131.856 131.856 0 0 1 25.11-23.887 133.85 133.85 0 0 1 30.62-16.657 134.274 134.274 0 0 1 30.545 16.607 132.853 132.853 0 0 1 25.21 24.037 133.567 133.567 0 0 1-21.145 65.38z" class="cls-1"/><path d="M43.9 243.163c22.57 0 35.24 16.196 35.24 41.477a52.77 52.77 0 0 1-.55 8.182H18.832c1.088 19.107 12.564 31.12 29.48 31.12a39.96 39.96 0 0 0 22.018-6.91l5.408 9.775a52.647 52.647 0 0 1-29.112 9.101c-23.642.092-42.38-17.237-42.38-46.166s19.458-46.579 39.653-46.579zm22.202 39.838c0-18.02-8.014-28.024-21.834-28.024-12.38 0-23.658 10.189-25.466 28.024h47.3zm30.016-25.466h-13.1v-11.277l13.79-.904 1.823-24.745h12.548v24.745h23.811v12.258h-23.765v49.061c0 10.925 3.463 17.1 13.652 17.1a32.054 32.054 0 0 0 10.006-2.375l2.91 11.277A54.593 54.593 0 0 1 121.416 336c-18.923 0-25.297-12.013-25.297-29.48zm87.704-14.372a36.451 36.451 0 0 1 25.833 10.557l-7.462 9.638c-5.271-4.597-10.726-7.814-17.835-7.814-16.012 0-27.58 13.79-27.58 34.199s11.032 33.846 27.243 33.846c8.366 0 15.475-4.183 20.746-8.917l6.726 9.821A43.79 43.79 0 0 1 182.733 336c-23.473 0-41.476-16.854-41.476-46.212-.016-29.71 19.78-46.625 42.565-46.625zm69.869 0c10.189 0 16.854 3.815 24.745 10.19l-.736-15.108V204.23h15.108v129.548h-12.365l-1.272-10.373h-.551C271.71 330.132 262.24 336 251.867 336c-22.186 0-36.558-16.854-36.558-46.258 0-28.82 18.187-46.579 38.382-46.579zm1.455 80.242c8.182 0 15.322-3.999 22.57-12.258v-46.15c-7.462-6.726-14.189-9.285-21.451-9.285-14.189 0-25.466 13.637-25.466 33.847-.03 21.114 8.887 33.846 24.347 33.846z"/></svg>