<svg xmlns="http://www.w3.org/2000/svg" role="img" viewBox="-11.62 -11.62 604.24 168.24"><title>ExponTech logo</title><defs><style>.cls-1{fill:#ff6405}.cls-2{fill:#333}</style></defs><g id="图层_2" data-name="图层 2"><g id="图层_1-2" data-name="图层 1"><path d="M61 0v13.55H40q-8.2 0-12 1.13a12.17 12.17 0 0 0-6.26 4.44 13.72 13.72 0 0 0-2.33 4.56 47.54 47.54 0 0 0-1.08 7.74H61V45H18.33q.9 9.78 5.8 13.6t16.62 3.81h6.72A13.55 13.55 0 0 1 61 75.93H40a96.47 96.47 0 0 1-15-1 25.78 25.78 0 0 1-16.28-9Q0 55.44 0 37.57 0 17.76 12.18 6.72a24.38 24.38 0 0 1 8.94-5.24A43.67 43.67 0 0 1 33.81 0zm74.75 20.49h26.64a53 53 0 0 1 11.73 1 20.1 20.1 0 0 1 7.62 3.81q9.9 7.74 9.91 23.79 0 12.18-7.29 19.7a22 22 0 0 1-8.36 5.43 34.14 34.14 0 0 1-11.55 1.71H151v5.58a15.26 15.26 0 0 1-15.26 15.25zM151 32.33v31.76h9.33q7.4 0 10.82-3.19 4.77-4.2 4.78-13 0-7.5-3.76-11.55t-10.81-4zm77.87-12.64q15.36 0 22.65 8.88 6.72 8.09 6.72 20.38 0 13-8.42 20.72-7.75 7-21.18 7.06-13.89 0-21.74-8-7.29-7.17-7.29-21 0-11.61 6.95-19.35 7.74-8.57 22.31-8.69zM229 31.3q-13.77 0-13.77 17.08 0 6.94 2.28 10.59 3.75 6.15 11.61 6.14 13.54 0 13.54-17-.02-16.58-13.66-16.81zm37.21-10.81h29.37a39.52 39.52 0 0 1 10.07 1 16 16 0 0 1 6.35 3.44q5.8 5.36 5.8 16.85v18.89a15.25 15.25 0 0 1-15.25 15.26V40.07q0-4.09-1.82-5.92t-6-1.82h-13.27v43.6h-15.25z" class="cls-1"/><path d="M422.91 42.23v11.84h-23.45c.3 3.64 1.48 6.23 3.53 7.74s5.38 2.28 10 2.28h6.72a11.84 11.84 0 0 1 11.84 11.84H411.3a39.73 39.73 0 0 1-10.76-1.2 23.87 23.87 0 0 1-7.8-3.92q-10.12-7.86-10.13-23.34A29.41 29.41 0 0 1 388 29.94a20.57 20.57 0 0 1 8.77-7.29q5.11-2.16 13.43-2.16h21.4v11.84h-20.3q-6.27 0-8.77 2.11t-3.07 7.79zm66.59-21.74v11.84h-18.21q-9.23 0-12.75 4.1-3.42 3.87-3.42 11.84 0 8.88 5.58 13a14 14 0 0 0 4.95 2.22 34.29 34.29 0 0 0 7.46.63h4.55a11.84 11.84 0 0 1 11.84 11.81h-20.83q-8.43 0-13.32-1.71a20.59 20.59 0 0 1-8.65-5.92q-7.17-8-7.17-20.26 0-14.8 8.54-22.09a20.08 20.08 0 0 1 8.19-4.21 50.62 50.62 0 0 1 12.41-1.25zM512.72 0v20.49h15.6a42.88 42.88 0 0 1 10.87 1.08 14.69 14.69 0 0 1 6.66 3.82q5.24 4.77 5.24 16v19.28a15.26 15.26 0 0 1-15.26 15.26V44.4a34.07 34.07 0 0 0-.4-6.32 6.72 6.72 0 0 0-1.65-3.25q-2.28-2.38-8.65-2.5h-12.41v43.6h-15.25V0zm-120.5 0v13.55h-25.16v46.21a16.17 16.17 0 0 1-16.16 16.17V13.55h-8.22V0z" class="cls-2"/><path d="M325.74 0h13.55v13.55h-13.55zM127.77 20.49h-16.96L98.38 36.98 85.94 20.49H68.98L89.9 48.21 68.98 75.93h16.96l12.44-16.49 12.43 16.49h16.96l-20.92-27.72 20.92-27.72z" class="cls-1"/><path d="M562.71 66.41H560a.92.92 0 1 1 0-1.84h7.49a.92.92 0 0 1 0 1.84h-2.75V75a1 1 0 0 1-2 0zm7.67-.9a1 1 0 0 1 1-1h.2a1 1 0 0 1 .92.53l3.41 5.35 3.43-5.39a1 1 0 0 1 .91-.52h.21a1 1 0 0 1 1 1v9.43a1 1 0 0 1-1 1 1 1 0 0 1-1-1v-6.73l-2.75 4.14a.92.92 0 0 1-1.66 0l-2.74-4.11V75a1 1 0 0 1-1 1 .94.94 0 0 1-1-1zM6.58 114.56l16.86-4.1v5.31l-4.54 1.08v12.47h-6.77V118.5l-5.55 1.32zm18.07 25.09h-18v-4.83h18v-4.43h6.78v4.43h17.88v4.83H31.43v5.79h-6.78zm10.53-10.33a5.25 5.25 0 0 1-2.1-.42 5.09 5.09 0 0 1-1.7-1.14 5.3 5.3 0 0 1-1.56-3.8v-2.15l-6.82 1v-5.36l6.82-1v-6.09h6.77v5.11l12.81-1.85V119l-12.81 1.85V123a1.49 1.49 0 0 0 .44 1.08 1.46 1.46 0 0 0 1.07.43h11.3v4.83zm109.33 14.96l-12.28 1.12v-4.34l2.73-.29v-10.43h-2.73V126H135v-11.3h-2.73v-4.38h12.52v4.38h-3V126h3v4.38h-3v9.79l2.78-.24zM157.64 128h-12v-3.8h29.49v3.8h-10.75l-.73 2h6.89a4.14 4.14 0 0 1 3.06 1.27 4.19 4.19 0 0 1 1.26 3.07V141a3.89 3.89 0 0 1-.39 1.76 3 3 0 0 1-1 1.41 4.9 4.9 0 0 1-1.51 1 4.27 4.27 0 0 1-1.75.34h-2.51l1.1-3.6a.41.41 0 0 0 .41-.44v-6.92c0-.65-.3-1-.9-1h-1.15v11.93h-5.5v-11.92h-1.95v11.93h-5.65v-11.93h-2.25v11.93h-5.65V129.9h10.65zm12.59-5.21h-24.07V111h6.63v8h4.43v-8.67h6.63V119h2.79a1.83 1.83 0 0 0 1.11-.39 1.71 1.71 0 0 0 .43-1.11V111h6.68v7.16a4.29 4.29 0 0 1-.39 1.85 3.91 3.91 0 0 1-1 1.42 4.31 4.31 0 0 1-1.51 1 3.28 3.28 0 0 1-.85.29 4.07 4.07 0 0 1-.88.02zm92.13 7.7v-12h-4.19v-4.72h4.19v-3.46H269v3.46h3.31v4.72H269v5.26h3.31L269 130.1v10.72a4.35 4.35 0 0 1-1.34 3.21 4.47 4.47 0 0 1-3.24 1.32h-5.75l1.22-3.36h1a1.46 1.46 0 0 0 1.07-.44 1.45 1.45 0 0 0 .44-1.08v-1.94h-4.19zm11-3h27.34v12.71a5.1 5.1 0 0 1-.44 2.1 5.28 5.28 0 0 1-1.17 1.68 5.69 5.69 0 0 1-1.71 1.12 5.09 5.09 0 0 1-2 .41h-22zm7.36-7.26a1.5 1.5 0 0 0 1.51 1.51h18.42l-2.1 4.67h-19.28a5.24 5.24 0 0 1-2.1-.41 5.31 5.31 0 0 1-3.26-4.94v-10.3h6.77v3.55l18.81-3v4.92l-18.81 3zm-.58 12v2.1h13.78v-2.1zm12.27 8.58a1.49 1.49 0 0 0 1.08-.44 1.46 1.46 0 0 0 .43-1.07v-.93H280.1v2.44zm89.37-25.62h2l-1-4H389l1 4h1.12v-4.87h6.67v4.87h1.13l1-4h6.19l-1 4h2.05v4.43h-9.36v7.6h-6.67v-7.6h-9.35zm0 12l1.65-6.38H389l-1.65 6.38zm0 14c1.29-.16 2.69-.35 4.19-.58-.43-.16-.85-.33-1.27-.51l-1.32-.56v-5.22h-1.6V130h1.6v-1.51h5.9V130h10.38v-1.51h5.89V130h1.61v4.43h-1.61v5.22l-1.31.56-1.27.51c1.49.23 2.89.42 4.19.58v4.19c-2.47-.19-4.69-.43-6.65-.7a50.75 50.75 0 0 1-6-1.24 53.06 53.06 0 0 1-6.06 1.24c-2 .27-4.19.51-6.65.7zm7.5-4.14a27.53 27.53 0 0 0 2.63.93l2.58.78 2.56-.78q1.29-.39 2.61-.93v-2.73h-10.38zm10.62-16.27h5.6l1.66 6.38h-5.6zm24.65-1.61a26.36 26.36 0 0 1-1.19 8.21 24.86 24.86 0 0 1-3.29 6.6c.68.65 1.4 1.29 2.14 1.93l2.34 2v7.31c-1.49-1-2.95-2.11-4.36-3.22a44.51 44.51 0 0 1-4-3.5 44.24 44.24 0 0 1-4 3.5c-1.39 1.11-2.84 2.18-4.33 3.22v-7.31l2.36-2c.75-.64 1.47-1.28 2.16-1.93a26.64 26.64 0 0 1-3-5.94 25.56 25.56 0 0 1-1.42-7.26h5.6a20.68 20.68 0 0 0 .88 5 19 19 0 0 0 1.8 3.93 17 17 0 0 0 2.12-4.56 21 21 0 0 0 .75-6H408l2.92-8.91h6.82l-1.32 4.09h8.09zm91.01 8h-10v-5h42.64v5h-25.43L517 139.45h21.24l-3.24-6.53h7.12l6.09 12.48h-7.07l-.49-.93h-33.27zm-7.11-16.76h36.88v5h-36.88z" class="cls-2"/></g></g></svg>