<svg xmlns="http://www.w3.org/2000/svg" role="img" viewBox="332.38 184.38 2008.24 1911.24"><title>FabEdge logo</title><style>svg {enable-background:new 0 0 2674.33 2296.66}</style><linearGradient id="SVGID_1_" x1="787.365" x2="1868.635" y1="931.219" y2="931.219" gradientUnits="userSpaceOnUse"><stop offset="0" stop-color="#48abf9"/><stop offset="1" stop-color="#0084fe"/></linearGradient><path fill="url(#SVGID_1_)" d="M1715.58 809.52h-.02c-15.53 0-28.17 12.59-28.17 28.13-.02 15.57 12.59 28.18 28.13 28.2 53.39.04 96.79 43.51 96.79 96.89 0 53.43-43.46 96.86-96.89 96.86h-741.7c-71.72 0-130.05-58.31-130.05-130.05 0-61.38 43.49-114.93 103.47-127.33 15.21-3.14 25.03-18.05 21.88-33.28-3.15-15.21-18.03-24.97-33.3-21.87-85.98 17.8-148.36 94.52-148.36 182.48 0 102.77 83.6 186.39 186.35 186.39h741.7c84.49 0 153.21-68.75 153.21-153.21.01-84.39-68.65-153.11-153.04-153.21z"/><linearGradient id="SVGID_2_" x1="1333.29" x2="1697.154" y1="598.653" y2="598.653" gradientUnits="userSpaceOnUse"><stop offset="0" stop-color="#48abf9"/><stop offset="1" stop-color="#0084fe"/></linearGradient><path fill="url(#SVGID_2_)" d="M1352.25 612.72c14.66 5.04 30.71-2.68 35.8-17.4 18.11-52.42 67.44-87.58 122.73-87.58 71.72 0 130.04 58.35 130.04 130.05 0 22.89-6.23 45.6-18.04 65.65-7.89 13.44-3.42 30.69 9.98 38.55 4.51 2.66 9.42 3.93 14.25 3.93 9.66 0 19.06-4.95 24.31-13.87 16.9-28.71 25.82-61.32 25.82-94.24 0-102.75-83.57-186.37-186.37-186.37-79.28 0-150 50.46-175.95 125.48-5.05 14.7 2.74 30.72 17.43 35.8z"/><linearGradient id="SVGID_3_" x1="976.489" x2="1253.513" y1="628.401" y2="628.401" gradientUnits="userSpaceOnUse"><stop offset="0" stop-color="#48abf9"/><stop offset="1" stop-color="#0084fe"/></linearGradient><path fill="url(#SVGID_3_)" d="M1004.26 718.23h.4c15.38 0 27.93-12.35 28.14-27.79.72-52.66 44.19-95.54 96.9-95.54 28.59 0 55.59 12.6 74.14 34.62 10.01 11.89 27.75 13.4 39.66 3.41 11.87-10 13.42-27.78 3.41-39.69-29.25-34.71-71.96-54.66-117.21-54.66-83.35 0-152.08 67.8-153.21 151.13-.2 15.53 12.21 28.31 27.77 28.52z"/><path d="M800.13 658.19c2.04-1.31 4.11-2.6 6.18-3.87-2.17 1.12-4.24 2.41-6.18 3.87z"/><linearGradient id="SVGID_4_" x1="651.45" x2="1272.576" y1="950.737" y2="950.737" gradientUnits="userSpaceOnUse"><stop offset="0" stop-color="#0054d4"/><stop offset="1" stop-color="#0069e7"/></linearGradient><path fill="url(#SVGID_4_)" d="M973.72 1167.35c-131.35 0-237.82-106.49-237.82-237.81 0-84.42 44.01-158.51 110.32-200.68 1.17-.66 2.31-1.36 3.41-2.13 11.02-7.63 18.24-20.36 18.24-34.78 0-2.89-.29-5.72-.85-8.45-.99-4.88-2.82-9.45-5.33-13.57-7.43-12.16-20.82-20.27-36.11-20.27-5.24 0-10.26.96-14.89 2.71-2.32.87-4.52 2.02-6.63 3.33-1.32.82-2.63 1.64-3.93 2.48-90.19 58.03-148.68 159.46-148.68 271.36 0 177.67 144.56 322.25 322.27 322.25h256.63c23.32 0 42.22-18.9 42.22-42.22s-18.9-42.22-42.22-42.22H973.72z"/><path d="M1271.27 462.76l-2.78-7.06c.72 2.45 1.66 4.81 2.78 7.06zm69.55 8.99c-.79.82-1.58 1.64-2.36 2.47.81-.79 1.6-1.61 2.36-2.47z"/><linearGradient id="SVGID_5_" x1="1266.796" x2="2004.517" y1="780.401" y2="780.401" gradientUnits="userSpaceOnUse"><stop offset="0" stop-color="#0054d4"/><stop offset="1" stop-color="#0069e7"/></linearGradient><path fill="url(#SVGID_5_)" d="M1827.64 696.31c3.59-19.3 5.4-38.89 5.4-58.53 0-177.71-144.56-322.27-322.25-322.27-89.48 0-172.64 37.12-232.12 98.95-.22.23-.43.46-.65.69-6.96 7.54-11.22 17.6-11.22 28.67 0 4.12.6 8.1 1.7 11.87l2.78 7.06c6.95 13.85 21.26 23.35 37.81 23.35 7.5 0 14.53-1.96 20.64-5.38 1.13-.72 2.26-1.43 3.41-2.13 1.9-1.31 3.67-2.79 5.33-4.39.78-.83 1.57-1.65 2.36-2.47 42.57-43.71 101.78-71.07 167.46-71.75 131.39-1.36 239.63 105.17 240.29 236.56.23 44.43-11.96 85.88-32.91 121.52 112.9.11 204.39 91.67 204.39 204.64 0 96.93-67.45 178.15-157.97 199.26-19.07 4.45-32.52 21.5-32.52 41.08 0 27.31 25.51 47.31 52.09 41.06 127.59-30.02 222.86-144.79 222.86-281.4 0-119.56-73.05-222.51-176.88-266.39z"/><linearGradient id="SVGID_6_" x1="1351.228" x2="1413.006" y1="1209.726" y2="1209.726" gradientUnits="userSpaceOnUse"><stop offset="0" stop-color="#48abf9"/><stop offset="1" stop-color="#0084fe"/></linearGradient><path fill="url(#SVGID_6_)" d="M1382.12 1240.87c-17.06 0-30.89-13.83-30.89-30.89v-.51c0-17.06 13.83-30.89 30.89-30.89s30.89 13.83 30.89 30.89v.51c0 17.06-13.83 30.89-30.89 30.89z"/><linearGradient id="SVGID_7_" x1="1351.228" x2="1413.006" y1="1361.815" y2="1361.815" gradientUnits="userSpaceOnUse"><stop offset="0" stop-color="#48abf9"/><stop offset="1" stop-color="#0084fe"/></linearGradient><path fill="url(#SVGID_7_)" d="M1382.12 1443.98c-17.06 0-30.89-13.83-30.89-30.89v-1.01c0-17.06 13.83-30.89 30.89-30.89s30.89 13.83 30.89 30.89v1.01c0 17.07-13.83 30.89-30.89 30.89zm0-101.55c-17.06 0-30.89-13.83-30.89-30.89v-1.01c0-17.06 13.83-30.89 30.89-30.89s30.89 13.83 30.89 30.89v1.01c0 17.06-13.83 30.89-30.89 30.89z"/><linearGradient id="SVGID_8_" x1="1351.228" x2="1413.521" y1="1513.903" y2="1513.903" gradientUnits="userSpaceOnUse"><stop offset="0" stop-color="#48abf9"/><stop offset="1" stop-color="#0084fe"/></linearGradient><path fill="url(#SVGID_8_)" d="M1381.95 1545.05c-16.97 0-30.72-13.76-30.72-30.72 0-16.99 13.44-31.32 30.43-31.56 8.85-.13 16.85 3.46 22.56 9.3 5.84 5.71 9.43 13.72 9.3 22.56-.25 16.99-14.57 30.42-31.57 30.42z"/><linearGradient id="SVGID_9_" x1="1459.182" x2="1739.06" y1="1514.161" y2="1514.161" gradientUnits="userSpaceOnUse"><stop offset="0" stop-color="#48abf9"/><stop offset="1" stop-color="#0084fe"/></linearGradient><path fill="url(#SVGID_9_)" d="M1708.17 1545.05h-1.07c-17.06 0-30.89-13.83-30.89-30.89s13.83-30.89 30.89-30.89h1.07c17.06 0 30.89 13.83 30.89 30.89s-13.83 30.89-30.89 30.89zm-108.51 0h-1.07c-17.06 0-30.89-13.83-30.89-30.89s13.83-30.89 30.89-30.89h1.07c17.06 0 30.89 13.83 30.89 30.89s-13.83 30.89-30.89 30.89zm-108.51 0h-1.07c-17.06 0-30.89-13.83-30.89-30.89s13.83-30.89 30.89-30.89h1.07c17.06 0 30.89 13.83 30.89 30.89s-13.84 30.89-30.89 30.89z"/><linearGradient id="SVGID_10_" x1="1784.719" x2="1847.012" y1="1514.161" y2="1514.161" gradientUnits="userSpaceOnUse"><stop offset="0" stop-color="#48abf9"/><stop offset="1" stop-color="#0084fe"/></linearGradient><path fill="url(#SVGID_10_)" d="M1816.12 1545.05h-.51c-17.06 0-30.89-13.83-30.89-30.89s13.83-30.89 30.89-30.89h.51c17.06 0 30.89 13.83 30.89 30.89s-13.83 30.89-30.89 30.89z"/><linearGradient id="SVGID_11_" x1="1584.056" x2="1645.834" y1="1199.137" y2="1199.137" gradientUnits="userSpaceOnUse"><stop offset="0" stop-color="#48abf9"/><stop offset="1" stop-color="#0084fe"/></linearGradient><path fill="url(#SVGID_11_)" d="M1614.94 1230.28c-17.06 0-30.89-13.83-30.89-30.89v-.51c0-17.06 13.83-30.89 30.89-30.89s30.89 13.83 30.89 30.89v.51c0 17.06-13.83 30.89-30.89 30.89z"/><linearGradient id="SVGID_12_" x1="1584.056" x2="1646.349" y1="1335.483" y2="1335.483" gradientUnits="userSpaceOnUse"><stop offset="0" stop-color="#48abf9"/><stop offset="1" stop-color="#0084fe"/></linearGradient><path fill="url(#SVGID_12_)" d="M1614.83 1366.63c-16.99 0-30.77-13.78-30.77-30.77 0-16.97 13.42-31.25 30.38-31.52 8.86-.14 16.89 3.45 22.61 9.3 5.85 5.72 9.44 13.74 9.3 22.61-.28 16.97-14.56 30.38-31.52 30.38z"/><linearGradient id="SVGID_13_" x1="1988.412" x2="2051.192" y1="1335.741" y2="1335.741" gradientUnits="userSpaceOnUse"><stop offset="0" stop-color="#48abf9"/><stop offset="1" stop-color="#0084fe"/></linearGradient><path fill="url(#SVGID_13_)" d="M2020.3 1366.63h-1c-17.06 0-30.89-13.83-30.89-30.89s13.83-30.89 30.89-30.89h1c17.06 0 30.89 13.83 30.89 30.89s-13.83 30.89-30.89 30.89z"/><linearGradient id="SVGID_14_" x1="2082.672" x2="2145.453" y1="1335.483" y2="1335.483" gradientUnits="userSpaceOnUse"><stop offset="0" stop-color="#48abf9"/><stop offset="1" stop-color="#0084fe"/></linearGradient><path fill="url(#SVGID_14_)" d="M2114.56 1366.37h-1c-17.06 0-30.89-13.83-30.89-30.89 0-17.06 13.83-30.89 30.89-30.89h1c17.06 0 30.89 13.83 30.89 30.89 0 17.06-13.83 30.89-30.89 30.89z"/><linearGradient id="SVGID_15_" x1="1887.201" x2="1949.981" y1="1335.741" y2="1335.741" gradientUnits="userSpaceOnUse"><stop offset="0" stop-color="#48abf9"/><stop offset="1" stop-color="#0084fe"/></linearGradient><path fill="url(#SVGID_15_)" d="M1919.09 1366.63h-1c-17.06 0-30.89-13.83-30.89-30.89s13.83-30.89 30.89-30.89h1c17.06 0 30.89 13.83 30.89 30.89s-13.83 30.89-30.89 30.89z"/><linearGradient id="SVGID_16_" x1="1785.99" x2="1848.771" y1="1335.741" y2="1335.741" gradientUnits="userSpaceOnUse"><stop offset="0" stop-color="#48abf9"/><stop offset="1" stop-color="#0084fe"/></linearGradient><path fill="url(#SVGID_16_)" d="M1817.88 1366.63h-1c-17.06 0-30.89-13.83-30.89-30.89s13.83-30.89 30.89-30.89h1c17.06 0 30.89 13.83 30.89 30.89s-13.83 30.89-30.89 30.89z"/><linearGradient id="SVGID_17_" x1="1684.78" x2="1747.56" y1="1335.741" y2="1335.741" gradientUnits="userSpaceOnUse"><stop offset="0" stop-color="#48abf9"/><stop offset="1" stop-color="#0084fe"/></linearGradient><path fill="url(#SVGID_17_)" d="M1716.67 1366.63h-1c-17.06 0-30.89-13.83-30.89-30.89s13.83-30.89 30.89-30.89h1c17.06 0 30.89 13.83 30.89 30.89s-13.83 30.89-30.89 30.89z"/><linearGradient id="SVGID_18_" x1="1874.534" x2="2000.706" y1="1514.161" y2="1514.161" gradientUnits="userSpaceOnUse"><stop offset="0" stop-color="#48abf9"/><stop offset="1" stop-color="#0084fe"/></linearGradient><path fill="url(#SVGID_18_)" d="M1937.62 1577.25c-34.79 0-63.09-28.3-63.09-63.09s28.3-63.09 63.09-63.09 63.09 28.3 63.09 63.09-28.3 63.09-63.09 63.09zm0-91.17c-15.48 0-28.08 12.6-28.08 28.08s12.6 28.08 28.08 28.08 28.08-12.6 28.08-28.08-12.6-28.08-28.08-28.08z"/><linearGradient id="SVGID_19_" x1="2176.663" x2="2302.835" y1="1335.74" y2="1335.74" gradientUnits="userSpaceOnUse"><stop offset="0" stop-color="#48abf9"/><stop offset="1" stop-color="#0084fe"/></linearGradient><path fill="url(#SVGID_19_)" d="M2239.75 1398.83c-34.79 0-63.09-28.3-63.09-63.09s28.3-63.09 63.09-63.09c34.79 0 63.09 28.3 63.09 63.09s-28.31 63.09-63.09 63.09zm0-91.17c-15.48 0-28.08 12.6-28.08 28.08s12.6 28.08 28.08 28.08c15.48 0 28.08-12.6 28.08-28.08s-12.6-28.08-28.08-28.08z"/><linearGradient id="SVGID_20_" x1="1152.896" x2="1214.674" y1="477.345" y2="477.345" gradientUnits="userSpaceOnUse"><stop offset="0" stop-color="#48abf9"/><stop offset="1" stop-color="#0084fe"/></linearGradient><path fill="url(#SVGID_20_)" d="M1183.79 508.49c-17.06 0-30.89-13.83-30.89-30.89v-.51c0-17.06 13.83-30.89 30.89-30.89s30.89 13.83 30.89 30.89v.51c-.01 17.06-13.84 30.89-30.89 30.89z"/><linearGradient id="SVGID_21_" x1="1152.896" x2="1214.674" y1="381.887" y2="381.887" gradientUnits="userSpaceOnUse"><stop offset="0" stop-color="#48abf9"/><stop offset="1" stop-color="#0084fe"/></linearGradient><path fill="url(#SVGID_21_)" d="M1183.79 413.25c-17.06 0-30.89-13.83-30.89-30.89v-.95c0-17.06 13.83-30.89 30.89-30.89s30.89 13.83 30.89 30.89v.95c-.01 17.06-13.84 30.89-30.89 30.89z"/><linearGradient id="SVGID_22_" x1="1152.381" x2="1214.674" y1="286.428" y2="286.428" gradientUnits="userSpaceOnUse"><stop offset="0" stop-color="#48abf9"/><stop offset="1" stop-color="#0084fe"/></linearGradient><path fill="url(#SVGID_22_)" d="M1184.29 317.57c-8.86.14-16.89-3.45-22.61-9.3-5.85-5.72-9.44-13.74-9.3-22.61.27-16.96 14.55-30.38 31.52-30.38 16.99 0 30.77 13.78 30.77 30.77 0 16.97-13.41 31.25-30.38 31.52z"/><linearGradient id="SVGID_23_" x1="826.842" x2="1106.72" y1="286.17" y2="286.17" gradientUnits="userSpaceOnUse"><stop offset="0" stop-color="#48abf9"/><stop offset="1" stop-color="#0084fe"/></linearGradient><path fill="url(#SVGID_23_)" d="M1075.83 317.06h-1.07c-17.06 0-30.89-13.83-30.89-30.89s13.83-30.89 30.89-30.89h1.07c17.06 0 30.89 13.83 30.89 30.89s-13.83 30.89-30.89 30.89zm-108.51 0h-1.07c-17.06 0-30.89-13.83-30.89-30.89s13.83-30.89 30.89-30.89h1.07c17.06 0 30.89 13.83 30.89 30.89s-13.83 30.89-30.89 30.89zm-108.51 0h-1.07c-17.06 0-30.89-13.83-30.89-30.89s13.83-30.89 30.89-30.89h1.07c17.06 0 30.89 13.83 30.89 30.89s-13.83 30.89-30.89 30.89z"/><linearGradient id="SVGID_24_" x1="909.771" x2="971.549" y1="579.573" y2="579.573" gradientUnits="userSpaceOnUse"><stop offset="0" stop-color="#48abf9"/><stop offset="1" stop-color="#0084fe"/></linearGradient><path fill="url(#SVGID_24_)" d="M940.66 610.72c-17.06 0-30.89-13.83-30.89-30.89v-.51c0-17.06 13.83-30.89 30.89-30.89s30.89 13.83 30.89 30.89v.51c0 17.06-13.83 30.89-30.89 30.89z"/><linearGradient id="SVGID_25_" x1="909.256" x2="971.549" y1="485.441" y2="485.441" gradientUnits="userSpaceOnUse"><stop offset="0" stop-color="#48abf9"/><stop offset="1" stop-color="#0084fe"/></linearGradient><path fill="url(#SVGID_25_)" d="M941.17 516.58c-8.86.14-16.89-3.45-22.61-9.3-5.85-5.72-9.44-13.74-9.3-22.61.27-16.96 14.55-30.38 31.52-30.38 16.99 0 30.77 13.78 30.77 30.77 0 16.97-13.42 31.25-30.38 31.52z"/><linearGradient id="SVGID_26_" x1="529.175" x2="876.956" y1="485.183" y2="485.183" gradientUnits="userSpaceOnUse"><stop offset="0" stop-color="#48abf9"/><stop offset="1" stop-color="#0084fe"/></linearGradient><path fill="url(#SVGID_26_)" d="M846.07 516.07h-.94c-17.06 0-30.89-13.83-30.89-30.89s13.83-30.89 30.89-30.89h.94c17.06 0 30.89 13.83 30.89 30.89s-13.83 30.89-30.89 30.89zm-95.02 0h-.94c-17.06 0-30.89-13.83-30.89-30.89s13.83-30.89 30.89-30.89h.94c17.06 0 30.89 13.83 30.89 30.89s-13.83 30.89-30.89 30.89zm-95.03 0h-.94c-17.06 0-30.89-13.83-30.89-30.89s13.83-30.89 30.89-30.89h.94c17.06 0 30.89 13.83 30.89 30.89s-13.83 30.89-30.89 30.89zm-95.01 0h-.94c-17.06 0-30.89-13.83-30.89-30.89s13.83-30.89 30.89-30.89h.94c17.06 0 30.89 13.83 30.89 30.89s-13.84 30.89-30.89 30.89z"/><linearGradient id="SVGID_27_" x1="666.1" x2="792.272" y1="286.171" y2="286.171" gradientUnits="userSpaceOnUse"><stop offset="0" stop-color="#48abf9"/><stop offset="1" stop-color="#0084fe"/></linearGradient><path fill="url(#SVGID_27_)" d="M729.19 349.26c-34.79 0-63.09-28.3-63.09-63.09s28.3-63.09 63.09-63.09c34.79 0 63.09 28.3 63.09 63.09s-28.31 63.09-63.09 63.09zm0-91.17c-15.48 0-28.08 12.6-28.08 28.08s12.6 28.08 28.08 28.08c15.48 0 28.08-12.6 28.08-28.08s-12.6-28.08-28.08-28.08z"/><linearGradient id="SVGID_28_" x1="371.493" x2="497.666" y1="485.183" y2="485.183" gradientUnits="userSpaceOnUse"><stop offset="0" stop-color="#48abf9"/><stop offset="1" stop-color="#0084fe"/></linearGradient><path fill="url(#SVGID_28_)" d="M434.58 548.27c-34.79 0-63.09-28.3-63.09-63.09s28.3-63.09 63.09-63.09 63.09 28.3 63.09 63.09-28.3 63.09-63.09 63.09zm0-91.17c-15.48 0-28.08 12.6-28.08 28.08s12.6 28.08 28.08 28.08 28.08-12.6 28.08-28.08-12.6-28.08-28.08-28.08z"/><g><linearGradient id="SVGID_29_" x1="1395.979" x2="1476.506" y1="831.127" y2="831.127" gradientUnits="userSpaceOnUse"><stop offset="0" stop-color="#48abf9"/><stop offset="1" stop-color="#0084fe"/></linearGradient><path fill="url(#SVGID_29_)" d="M1395.98 795.99h80.53v70.28h-80.53z"/><linearGradient id="SVGID_30_" x1="1395.979" x2="1476.506" y1="921.613" y2="921.613" gradientUnits="userSpaceOnUse"><stop offset="0" stop-color="#48abf9"/><stop offset="1" stop-color="#0084fe"/></linearGradient><path fill="url(#SVGID_30_)" d="M1395.98 886.47h80.53v70.28h-80.53z"/><linearGradient id="SVGID_31_" x1="1497.278" x2="1577.805" y1="921.613" y2="921.613" gradientUnits="userSpaceOnUse"><stop offset="0" stop-color="#48abf9"/><stop offset="1" stop-color="#0084fe"/></linearGradient><path fill="url(#SVGID_31_)" d="M1497.28 886.47h80.53v70.28h-80.53z"/><linearGradient id="SVGID_32_" x1="1295.629" x2="1376.156" y1="831.127" y2="831.127" gradientUnits="userSpaceOnUse"><stop offset="0" stop-color="#48abf9"/><stop offset="1" stop-color="#0084fe"/></linearGradient><path fill="url(#SVGID_32_)" d="M1295.63 795.99h80.53v70.28h-80.53z"/><linearGradient id="SVGID_33_" x1="1295.629" x2="1376.156" y1="921.613" y2="921.613" gradientUnits="userSpaceOnUse"><stop offset="0" stop-color="#48abf9"/><stop offset="1" stop-color="#0084fe"/></linearGradient><path fill="url(#SVGID_33_)" d="M1295.63 886.47h80.53v70.28h-80.53z"/><linearGradient id="SVGID_34_" x1="1195.468" x2="1275.995" y1="831.127" y2="831.127" gradientUnits="userSpaceOnUse"><stop offset="0" stop-color="#48abf9"/><stop offset="1" stop-color="#0084fe"/></linearGradient><path fill="url(#SVGID_34_)" d="M1195.47 795.99H1276v70.28h-80.53z"/><linearGradient id="SVGID_35_" x1="1195.468" x2="1275.995" y1="921.613" y2="921.613" gradientUnits="userSpaceOnUse"><stop offset="0" stop-color="#48abf9"/><stop offset="1" stop-color="#0084fe"/></linearGradient><path fill="url(#SVGID_35_)" d="M1195.47 886.47H1276v70.28h-80.53z"/><linearGradient id="SVGID_36_" x1="1099.101" x2="1179.628" y1="921.613" y2="921.613" gradientUnits="userSpaceOnUse"><stop offset="0" stop-color="#48abf9"/><stop offset="1" stop-color="#0084fe"/></linearGradient><path fill="url(#SVGID_36_)" d="M1099.1 886.47h80.53v70.28h-80.53z"/><linearGradient id="SVGID_37_" x1="1395.979" x2="1476.506" y1="740.641" y2="740.641" gradientUnits="userSpaceOnUse"><stop offset="0" stop-color="#48abf9"/><stop offset="1" stop-color="#0084fe"/></linearGradient><path fill="url(#SVGID_37_)" d="M1395.98 705.5h80.53v70.28h-80.53z"/></g><g><path fill="#0054d4" d="M588.01 1678.62h151.54c12.76 0 23.11 10.35 23.11 23.11s-10.35 23.11-23.11 23.11H638.73c-12.76 0-23.11 10.35-23.11 23.11v31.7c0 12.76 10.35 23.11 23.11 23.11h79.96c12.76 0 23.11 10.35 23.11 23.11v.2c0 12.76-10.35 23.11-23.11 23.11h-79.96c-12.76 0-23.11 10.35-23.11 23.11v76.69c0 12.76-10.35 23.11-23.11 23.11h-4.5c-12.76 0-23.11-10.35-23.11-23.11v-247.26c0-12.75 10.35-23.1 23.11-23.1zm324.54 88.55c8.04 2.59 15.75 6.14 23.11 10.63v-6.75c0-4.63 3.75-8.38 8.38-8.38h18.21c12.76 0 23.1 10.34 23.1 23.1v161.39c0 12.75-10.34 23.09-23.09 23.09h-18.22c-4.63 0-8.38-3.75-8.38-8.38v-5.73c-7.36 4.5-15.07 8.05-23.11 10.63-10.36 3.27-21 4.91-31.9 4.91-14.18 0-27.75-2.73-40.7-8.18-12.55-5.32-23.66-12.81-33.34-22.5-9.68-9.68-17.18-20.79-22.5-33.34-5.45-12.95-8.18-26.52-8.18-40.7 0-14.18 2.73-27.74 8.18-40.7 5.32-12.54 12.81-23.65 22.5-33.34 9.68-9.68 20.79-17.18 33.34-22.5 12.95-5.45 26.52-8.18 40.7-8.18 10.9.03 21.54 1.66 31.9 4.93zm-31.9 44.79c-15.13 0-28.09 5.39-38.86 16.16-10.63 10.77-15.95 23.72-15.95 38.86 0 15.13 5.32 28.09 15.95 38.86 10.77 10.63 23.72 15.95 38.86 15.95 15.13 0 28.09-5.32 38.86-15.95 10.77-10.77 16.16-23.72 16.16-38.86 0-15.13-5.39-28.09-16.16-38.86-10.78-10.77-23.73-16.16-38.86-16.16zm237.03-29.86c26.31 0 48.74 9.27 67.28 27.81s27.81 40.97 27.81 67.29c0 26.18-9.27 48.54-27.81 67.08s-40.97 27.81-67.28 27.81c-9.82 0-19.43-1.5-28.84-4.5-7.36-2.32-14.32-5.52-20.86-9.61v4.29c0 4.63-3.75 8.38-8.38 8.38h-13.71c-12.76 0-23.1-10.34-23.1-23.1v-246.11c0-12.84 10.41-23.24 23.24-23.24 12.13 0 21.95 9.83 21.95 21.95v96.05c6.54-4.09 13.5-7.29 20.86-9.61 9.41-2.98 19.02-4.49 28.84-4.49zm-35.18 59.72c-9.68 9.82-14.52 21.61-14.52 35.38 0 13.64 4.84 25.36 14.52 35.18 9.82 9.68 21.54 14.52 35.18 14.52 13.77 0 25.56-4.84 35.38-14.52 9.68-9.82 14.52-21.54 14.52-35.18 0-13.77-4.84-25.56-14.52-35.38-9.82-9.68-21.61-14.52-35.38-14.52-13.64 0-25.36 4.84-35.18 14.52zm198.64-162.59h150.75c12.76 0 23.11 10.35 23.11 23.11s-10.35 23.11-23.11 23.11h-123.32v77.92h99.19c12.76 0 23.11 10.35 23.11 23.11s-10.35 23.11-23.11 23.11h-99.19v76.28h123.32c12.76 0 23.11 10.35 23.11 23.11s-10.35 23.11-23.11 23.11h-144.54c-16.18 0-29.3-13.12-29.3-29.3v-240.48c0-12.74 10.34-23.08 23.09-23.08zm312.08 107.78c7.36 2.45 14.32 5.66 20.86 9.61v-95.1c0-12.42 10.07-22.5 22.5-22.5 12.42 0 22.5 10.07 22.5 22.5v246.04c0 12.76-10.34 23.1-23.1 23.1h-13.5c-4.63 0-8.38-3.75-8.38-8.38v-4.29c-6.54 4.09-13.5 7.3-20.86 9.61-9.27 3-18.89 4.5-28.84 4.5-26.18 0-48.47-9.27-66.88-27.81-18.54-18.41-27.81-40.7-27.81-66.88 0-26.18 9.27-48.54 27.81-67.08 18.41-18.41 40.7-27.61 66.88-27.61 9.94 0 19.55 1.43 28.82 4.29zm-28.83 40.7c-13.64 0-25.36 4.84-35.18 14.52-9.68 9.68-14.52 21.41-14.52 35.18 0 13.64 4.84 25.36 14.52 35.18 9.82 9.68 21.54 14.52 35.18 14.52 13.77 0 25.49-4.84 35.18-14.52 9.68-9.82 14.52-21.54 14.52-35.18 0-13.77-4.84-25.49-14.52-35.18-9.69-9.68-21.42-14.52-35.18-14.52zm131.5 156.25c-.41-3.14-.61-6.34-.61-9.61 0-1.92 1.56-3.48 3.48-3.48h39.06c1.92 0 3.48 1.56 3.48 3.48 0 1.36.07 2.79.2 4.29.13 1.36.41 2.73.82 4.09 1.09 5.04 3.2 9.61 6.34 13.7 3 4.09 6.75 7.36 11.25 9.82 3.95 2.18 8.18 3.61 12.68 4.29 4.36.54 8.72.34 13.09-.61 8.18-2.05 14.86-6.34 20.04-12.88 5.32-6.68 7.98-14.25 7.98-22.7v-25.97c-4.77 2.32-9.75 4.16-14.93 5.52-6.95 1.91-14.11 2.86-21.47 2.86-22.63 0-42-8.04-58.08-24.13-16.09-16.09-24.13-35.45-24.13-58.08v-29.65c0-22.63 8.04-42.06 24.13-58.29 16.09-16.09 35.45-24.13 58.08-24.13 7.36 0 14.52.96 21.47 2.86 5.18 1.36 10.15 3.27 14.93 5.73 0-4.63 3.75-8.38 8.38-8.38h14.53c12.76 0 23.1 10.34 23.1 23.1v192.86h-.2c-.82 17.72-6.82 33.54-18 47.45-11.73 14.86-26.79 24.47-45.2 28.84-10.5 2.45-21 2.86-31.5 1.23-10.64-1.64-20.59-5.32-29.86-11.04-9.41-5.73-17.38-13.09-23.93-22.09-6.55-9-11.04-18.89-13.5-29.65-.81-3.16-1.36-6.3-1.63-9.43zm56.24-164.43c-6.95 6.95-10.43 15.34-10.43 25.15v29.86c0 9.82 3.48 18.2 10.43 25.16 6.95 7.09 15.34 10.63 25.15 10.63s18.27-3.54 25.36-10.63c6.95-6.95 10.43-15.34 10.43-25.16v-29.86c0-9.82-3.48-18.2-10.43-25.15-7.09-6.95-15.54-10.43-25.36-10.43s-18.2 3.48-25.15 10.43zm211.87 92.23c7.91 7.36 17.25 12.2 28.02 14.52 10.36 2.18 20.66 1.71 30.88-1.43 10.09-3.14 18.61-8.52 25.56-16.16l.1-.1c.72-.72 1.7-1.13 2.72-1.13h44.22c2.84 0 4.7 2.96 3.47 5.52-9 18.41-21.95 32.93-38.86 43.56-16.64 10.36-35.11 15.54-55.42 15.54-14.04 0-27.54-2.73-40.49-8.18-12.41-5.18-23.45-12.48-33.13-21.88-9.82-9.41-17.38-20.18-22.7-32.31-5.59-12.68-8.38-25.77-8.38-39.27v-2.04c.41-32.99 11.52-59.31 33.34-78.94 9.54-8.72 20.59-15.41 33.13-20.04 12.13-4.5 24.81-6.75 38.04-6.75h1.43c4.09.14 8.25.48 12.48 1.02 24.95 3.41 46.01 14.25 63.19 32.52 18.95 20.04 28.22 44.45 27.81 73.22 0 5.05-.41 10.23-1.23 15.54v.02c-.23 1.86-1.81 3.25-3.68 3.25h-156.04c3.54 9.28 8.72 17.12 15.54 23.52zm98.37-62.37c-1.5-4.77-3.75-9.47-6.75-14.11-3.82-6-8.38-11.18-13.7-15.54-10.36-8.18-22.77-12.41-37.22-12.68-13.91-.13-26.18 4.09-36.81 12.68-10.5 8.32-17.45 18.2-20.86 29.65h115.34z"/></g></svg>