<svg xmlns="http://www.w3.org/2000/svg" role="img" viewBox="67.22 -8.27 279.30 430.30"><title>Fabric8 Kubernetes Client logo</title><path fill="#17569e" d="M169.05 190.451s-3.508 7.012-17.187 3.856-38.229-17.886-44.892-24.55c-6.664-6.664-26.654-21.042-16.131-31.565 0 0-5.963-1.752-10.523-6.312-4.563-4.563-6.315-14.027-2.459-17.887l10.878 4.56s-3.859 8.764.352 10.167c4.208 1.4 8.063-2.456 9.819-4.211 1.752-1.752 7.715-8.412 3.504-12.62-4.208-4.208-5.96.352-5.96.352l-5.26-5.26s9.116-5.611 17.535 2.804c8.416 8.416 5.959 16.479 5.959 16.479z"/><path fill="#fff" d="M145.43 186.401c-11.447-2.639-31.999-14.971-37.577-20.548-5.578-5.578-22.307-17.617-13.502-26.421 0 0 8.374-.188 11.605-3.414 0 0-4.725 14.993 10.246 28.203 14.973 13.211 29.228 22.18 29.228 22.18z"/><path fill="#17569e" d="M258.95 202.751s2.984 5.963 14.611 3.279c11.627-2.685 32.497-15.21 38.161-20.874 5.668-5.664 22.659-17.887 13.716-26.83 0 0 5.069-1.494 8.943-5.368 3.879-3.878 5.369-11.927 2.093-15.206l-9.246 3.875s3.282 7.457-.3 8.651c-3.574 1.19-6.854-2.089-8.348-3.583-1.49-1.49-6.555-7.153-2.98-10.729 3.579-3.583 5.069.292 5.069.292l4.474-4.474s-7.757-4.769-14.91 2.389c-7.154 7.157-5.065 14.016-5.065 14.016z"/><g fill="#d5d5d5" transform="translate(-172.16 -82.499)"><ellipse cx="391.38" cy="392.91" rx="61.5" ry="13.889"/><path d="M351.04 391.49c0-3.707-10.654-6.713-23.805-6.713-13.147 0-23.805 3.006-23.805 6.713 0 3.709 10.657 6.711 23.805 6.711 13.151 0 23.805-3.002 23.805-6.711z"/><ellipse cx="440.32" cy="384.22" rx="21.823" ry="6.713"/></g><path fill="#17569e" d="M230.29 269.181s1.936 13.416-.045 35.242c0 0 9.426 4.461 16.861 9.422 0 0 21.33-1.984 26.784-.992v-7.441l-12.896-7.439v-27.275zm18.85-99.89c0 17.119-17.102 30.997-38.188 30.997-21.091 0-38.191-13.877-38.191-30.997 0-17.123 17.1-31 38.191-31 21.086 0 38.188 13.877 38.188 31z"/><path fill="#fff" d="M231.02 159.551c-.73 4.249-6.848 6.746-13.668 5.574-6.812-1.172-11.75-5.57-11.017-9.819.726-4.249 6.847-6.75 13.663-5.578 6.817 1.171 11.751 5.566 11.022 9.823z"/><path fill="#17569e" d="M278.23 181.441s.662 50.925-9.92 87.294c0 0-42.32 15.209-99.851-1.98 0 0-10.583-6.615-14.551-6.615 0 0-4.631-86.627-12.563-99.194 0-.001 68.113-23.809 136.88 20.495z"/><path fill="#fff" d="M264.96 241.261c-.427 5.422-4.758 10.531-9.812 11.221-19.294 2.475-38.828 2.477-58.129.037-6.428-.865-11.979-6.922-12.316-13.154-.786-13.59-1.568-27.006-2.354-40.231-.4-7.146 5.185-13.885 12.383-14.349 21.439-1.101 43.189 1.292 64.598 5.735 5.559 1.224 9.534 7.315 9.029 13.398-1.13 12.203-2.265 24.661-3.399 37.343z"/><path fill="#ec7929" d="M238.81 229.151v.094c.408.812.637 1.736.64 2.732 0 3.133-2.291 5.758-5.121 5.822-2.826.062-5.121-2.494-5.121-5.672 0-1.4.449-2.688 1.198-3.688 0-.068 12.507-19.425-5.005-32.538.004.003 5.076 15.408-7.037 21.896 0-.008-3.344 2.65.348-6.144-.004.007-10.287 6.562-10.283 21.881 0 6.939 3.264 13.252 8.194 17.006-.153-.641-.247-1.373-.247-2.23 0-6.23 5.013-13.484 6.562-13.484-.004 0 .385 7.449 2.164 10.969 1.407 2.965.55 6.258-1.307 7.898.83.143 1.677.236 2.541.232 4.74-.02 9.041-2.258 12.242-5.746.004 0-.004-.023-.004-.027 5.963-9.004 2.508-15.833.236-19.001z"/><path fill="#d5d5d5" d="M193.74 191.181c.172-.019.348-.03.524-.037 21.439-.603 43.189 1.729 64.602 5.555 1.098.195 1.864.955 2.317 1.554.947 1.254 1.415 2.938 1.288 4.653-1.139 12.604-2.272 25.429-3.41 38.444v.039c-.004.01-.004.025-.004.037-.18 2.32-1.958 4.492-3.897 4.701-19.294 2.006-38.827 2-58.133.012-3.32-.355-6.255-3.369-6.42-6.51-.79-13.982-1.576-27.811-2.362-41.478-.093-1.786.431-3.474 1.49-4.77 1.002-1.226 2.425-2.02 4.005-2.2m-.004-6.3c-6.712 1.015-11.773 7.427-11.392 14.252.786 13.226 1.568 26.642 2.354 40.231.337 6.232 5.889 12.289 12.316 13.154 19.301 2.439 38.835 2.438 58.129-.037.008 0 .012-.004.019-.004 5.042-.697 9.366-5.799 9.793-11.217 1.134-12.682 2.269-25.14 3.399-37.344.505-6.083-3.471-12.174-9.029-13.398-21.409-4.443-43.159-6.835-64.598-5.735-.336.019-.665.049-.991.098z"/><g fill="#fff"><path d="M150.44 162.601s22.319-1.486 22.319 78.86c0 0 19.342-80.346-22.319-78.86z"/><path d="M165.82 171.021s78.362-1.98 99.689 13.889c0 0-46.622-12.896-97.706-6.454zm15.37-18.1h6.697s3.025-8.075 13.084-11.526c0 0-10.232 1.98-19.781 11.526z"/></g><path fill="#17569e" d="M169.29 261.291s0 23.311-2.976 43.15c0 0 15.869 4.961 19.343 10.912 0 0 28.267-2.977 32.733-1.984v-9.422L205 297.996l.992-28.271z"/><path fill="#fff" d="M184 282.621l1.322 23.805s15.543-1.65 21.821-1.65c0 0-12.563-2.98-18.512-2.98 0-.001-2.317-15.54-4.631-19.175zm64.46 8.33l.329 15.211s13.889-.992 18.849-.33c0 0-6.117-2.148-16.041-2.152z"/><g fill="#17569e"><path d="M93.62 37.891v57.5h63.116v-57.5zm57.77 52.154H98.97V43.244h52.42zm-36.08-2.704v-41.39"/><path d="M115.31 88.531c-.659 0-1.19-.532-1.19-1.19V45.953c0-.659.532-1.19 1.19-1.19.655 0 1.19.532 1.19 1.19v41.388c.001.659-.535 1.19-1.19 1.19zm-9.74-1.19v-41.39m0 42.58c-.659 0-1.19-.532-1.19-1.19V45.953c0-.659.532-1.19 1.19-1.19.659 0 1.19.532 1.19 1.19v41.388c0 .659-.531 1.19-1.19 1.19zm19.48-1.19v-41.39m0 42.58c-.651 0-1.19-.532-1.19-1.19V45.953c0-.659.539-1.19 1.19-1.19.663 0 1.194.532 1.194 1.19v41.388c0 .659-.531 1.19-1.194 1.19zm9.74-1.19v-41.39m0 42.58c-.659 0-1.19-.532-1.19-1.19V45.953c0-.659.532-1.19 1.19-1.19.655 0 1.19.532 1.19 1.19v41.388c.001.659-.535 1.19-1.19 1.19zm9.74-1.19v-41.39m0 42.58c-.659 0-1.19-.532-1.19-1.19V45.953c0-.659.532-1.19 1.19-1.19s1.19.532 1.19 1.19v41.388c0 .659-.531 1.19-1.19 1.19z"/></g><g fill="#17569e"><path d="M177.7.001v57.493h63.115V.001zm57.77 52.151h-52.42V5.347h52.42zm-36.08-2.711V8.046"/><path d="M199.39 50.631c-.659 0-1.19-.531-1.19-1.187V8.049c0-.655.532-1.19 1.19-1.19.655 0 1.19.535 1.19 1.19v41.396c0 .655-.535 1.186-1.19 1.186zm-9.74-1.19V8.046m0 42.585c-.659 0-1.19-.531-1.19-1.187V8.049c0-.655.531-1.19 1.19-1.19.655 0 1.19.535 1.19 1.19v41.396c0 .655-.536 1.186-1.19 1.186zm19.48-1.19V8.046m0 42.585c-.655 0-1.19-.531-1.19-1.187V8.049c0-.655.535-1.19 1.19-1.19.659 0 1.191.535 1.191 1.19v41.396c0 .655-.532 1.186-1.191 1.186zm9.74-1.19V8.046m0 42.585c-.655 0-1.187-.531-1.187-1.187V8.049c0-.655.531-1.19 1.187-1.19.659 0 1.19.535 1.19 1.19v41.396c.001.655-.531 1.186-1.19 1.186zm9.74-1.19V8.046m0 42.585c-.659 0-1.19-.531-1.19-1.187V8.049c0-.655.531-1.19 1.19-1.19s1.19.535 1.19 1.19v41.396c.001.655-.53 1.186-1.19 1.186z"/></g><g fill="#17569e"><path d="M261.78 60.011v57.5h63.115v-57.5zm57.77 52.155h-52.42V65.357h52.42zm-36.08-2.715v-41.39"/><path d="M283.47 110.641c-.655 0-1.187-.532-1.187-1.19V68.059c0-.659.531-1.19 1.187-1.19.659 0 1.19.532 1.19 1.19v41.392c0 .658-.531 1.19-1.19 1.19zm-9.74-1.19v-41.39m0 42.58c-.658 0-1.189-.532-1.189-1.19V68.059c0-.659.531-1.19 1.189-1.19.655 0 1.191.532 1.191 1.19v41.392c0 .658-.536 1.19-1.191 1.19zm19.49-1.19v-41.39m0 42.58c-.659 0-1.19-.532-1.19-1.19V68.059c0-.659.531-1.19 1.19-1.19s1.19.532 1.19 1.19v41.392c0 .658-.531 1.19-1.19 1.19zm9.73-1.19v-41.39m0 42.58c-.655 0-1.191-.532-1.191-1.19V68.059c0-.659.536-1.19 1.191-1.19.658 0 1.189.532 1.189 1.19v41.392c.001.658-.53 1.19-1.189 1.19zm9.75-1.19v-41.39m0 42.58c-.659 0-1.19-.532-1.19-1.19V68.059c0-.659.531-1.19 1.19-1.19.654 0 1.19.532 1.19 1.19v41.392c.001.658-.535 1.19-1.19 1.19z"/></g><path d="M88.08 372.861l6.581-1.344v-7.832c0-7.188 2.89-12.338 12.383-12.338 3.878 0 7.154.494 10.598 1.898v6.572c-.079 0-7.554-.078-7.554-.078-4.455-.078-4.35 2.152-4.35 6.555v5.223h9.531v8.465h-9.531v33.537H94.661v-33.537H88.08zm31.48 26c0-6.109 3.302-11.521 12.309-11.521 0 0 12.339.082 12.339 0 0 0 .079-2.609 0-2.688 0-4.482-2.097-5.186-5.615-5.186-3.65 0-14.188.658-17.64.906v-6.836c5.529-2.148 11.306-2.773 19.137-2.807 9.044-.039 15.191 3.088 15.191 13.482v29.309h-8.745l-2.328-4.627c-.464.914-6.36 5.232-12.776 5.102-8.083-.217-11.871-5.719-11.871-11.182v-3.952zm15.004 6.237c4.635 0 9.644-3.252 9.644-3.252v-7.701l-10.164.787c-2.924.273-3.407 2.439-3.407 4.275v2.039c0 3.492 1.891 3.852 3.927 3.852zm27.276-53.667h11.002v22.188c3.848-1.752 9.198-2.729 12.758-2.729 11.639 0 13.712 8.771 13.712 21.832 0 12.738-3.376 21.277-13.712 21.277-4.986 0-10.055-2.594-12.679-4.705l-1.969 4.23h-9.112zm20.89 53.101c3.575 0 5.51-2.879 5.51-12.244 0-10.723-2.018-12.717-5.51-12.717-3.83 0-6.915.457-9.808 1.58v20.791c2.361 1.524 5.648 2.59 9.808 2.59zm23.09-33.011h9.336l1.74 5.301c2.909-2.811 6.825-5.73 12.047-5.73 1.816 0 3.561.07 4.68.5v10.691c-1.119-.107-3.688-.217-6.072-.217-4.582 0-7.917.75-10.654 4.676v26.781h-11.076v-42.002zm32.37-13.25c0-1.188.633-1.977 1.895-1.977h8.307c1.188 0 1.775.869 1.775 1.977v7.012c0 1.186-.667 1.818-1.775 1.818h-8.307c-1.104 0-1.895-.711-1.895-1.818zm.397 13.249h11.077v42.002h-11.077zm31.403-.389c4.114 0 12.413.242 19.343 2.488v6.881s-7.559-.471-14.6-.471c-5.095 0-7.51.303-7.51 12.686 0 10.752 1.816 12.309 7.51 12.309 7.277 0 15.15-.74 15.15-.74v6.951c-6.144 3.125-13.327 2.609-19.894 2.688-7.827 0-13.843-4.096-13.843-21.439.002-17.306 5.777-21.353 13.844-21.353zm26.73 23.33c0-4.811 2.385-8.045 6.244-8.898-5.503-2.395-6.244-6.969-6.244-11.51v-5.141c0-10.859 6.645-13.682 14.787-13.682h11.986c8.943 0 13.683 3.777 13.683 13.727v4.227c.037 1.957-.539 8.25-5.93 9.176 4.923.92 5.967 7.438 5.93 10.836v6.799c0 11.721-7.266 13.529-13.762 13.529h-11.907c-14.387 0-14.787-9.025-14.787-13.268zm16.355-15.107h7.921c4.512 0 5.106-2.322 5.106-4.904v-3.729c0-4.721-2.032-5.729-5.177-5.729h-7.457c-3.583 0-5.676.525-5.676 5.729v3.729c.001 4.079 2.595 4.904 5.283 4.904zm.394 24.402h7.423c3.444 0 5.211-1.635 5.211-4.742v-5.477c0-3.16-1.756-4.93-5.021-4.93h-8.007c-3.463 0-5.282 1.545-5.282 4.93v5.477c0 3.263 1.554 4.742 5.676 4.742z" fill="#17569e"/></svg>