<svg xmlns="http://www.w3.org/2000/svg" role="img" viewBox="-1.72 -2.47 349.18 86.18"><title>Fidelity Investments (member) logo</title><path fill="#fff" d="M39.947 73.64c18.672 0 33.8-15.134 33.8-33.805 0-18.666-15.128-33.798-33.8-33.798-18.668 0-33.8 15.132-33.8 33.798 0 18.671 15.132 33.805 33.8 33.805"/><path fill="#231f20" d="M34.752 45.47H47.19l3.635 2.356H34.203l-7.46 23.061C18.5 67.692 10.871 60.286 7.672 51.963c-3.41-8.065-3.41-18.198.074-26.296 3.27-8.327 11.118-15.845 19.472-18.933 6.573-2.723 15.368-3.012 22.34-.87 8 2.291 15.552 8.026 19.945 15.51 4.911 8.209 6.289 18.638 3.304 28.006-1.884 6.217-5.772 12.171-11.118 16.43l-9.182-15.3 12.78 7.129c.072 0 .11-.081.072-.155L48.62 43.029l21.652 3.305c.073 0 .104-.035.104-.072l-.14-.11-20.419-7.158 21.218-5.123c.072 0 .072-.067.035-.106L49.305 35.18l17.041-12.9c.037-.072-.112-.106-.147-.033l-19.144 9.706 10.569-18.645c0-.029 0-.107-.067-.069L43.748 29.445 46.4 8.155c0-.039-.074-.076-.146-.039L39.9 28.787l-5.56-21.29c-.036-.035-.112-.073-.15 0l1.532 22.086-13.114-17.067c-.041-.04-.075 0-.112.034l9.92 18.888-18.752-10.247c-.034 0-.107.042-.107.074l16.675 13.694-21.285-2.247c-.077.04-.077.104 0 .139l20.637 6.036-20.528 6.03c-.039.033-.039.108 0 .142l21.176-2.469-16.64 14.133c-.035 0-.071.073 0 .113l.223-.074 13.327-6.976 3.128-4.975h3.557l-2.466-1.744 8.242-13.23-4.862 15.626.01.008m61.396 17.413h-16.61l13.3-47.481h34.05l-3.245 11.265h-17.375l-2.228 8.084h17.375l-2.928 10.372H101.11l-4.963 17.76m49.068-37.997h-16.42l2.674-9.484h16.419zm-10.628 37.997h-16.42l9.737-34.688h16.42l-9.737 34.688m30.25-24.38c-1.465 0-2.928.45-3.754 2.484-1.211 2.926-2.292 5.791-2.292 8.654 0 1.339.954 2.483 2.545 2.483 1.273 0 2.1-.381 2.8-.825l3.31-11.395c-.573-.826-1.591-1.4-2.609-1.4zm12.347 24.38h-16.101L162.227 59c-3.247 2.737-6.555 4.708-11.838 4.708-5.346 0-8.718-2.547-8.718-7.956 0-5.981 2.356-14.893 5.856-21.129 2.545-4.646 7.126-7.063 12.537-7.063 4.644 0 8.081 2.034 9.419 4.58l4.582-16.738h16.42l-13.301 47.48m29.943-26.792c-2.036 0-3.436 1.399-4.328 4.898h6.746c.192-.7.446-1.782.446-2.42 0-1.907-1.146-2.479-2.864-2.479zm16.42 11.645H200.89c-.447 1.844-.891 3.118-.891 4.58 0 .701.127 2.484 2.417 2.484 2.291 0 3.31-.892 4.264-4.264h16.102c-2.036 9.865-13.747 13.237-20.938 13.237-9.738 0-17.312-1.4-17.312-10.756 0-5.155 2.608-13.683 6.047-18.2 4.136-5.412 11.328-7.445 17.948-7.445 10.183 0 16.801 2.098 16.801 10.753 0 2.102-.89 6.747-1.782 9.611m16.504 15.149h-16.422l13.301-47.481h16.422l-13.302 47.48m32.321-37.996h-16.42l2.674-9.484h16.42zm-10.626 37.997h-16.423l9.739-34.688h16.42l-9.736 34.688m40.146-34.688l1.43 7.828h-12.568l-3.69 13.175c-.318 1.018-.574 2.29-.574 3.117 0 1.527.637 2.039 2.864 2.039h3.501l-2.42 8.529h-14.637c-4.837 0-6.683-2.356-6.683-5.922 0-1.461.192-3.055.702-4.837l8.909-31.631h16.42l-2.165 7.702h8.912M79.2 68.217l4.092-.004-2.606 8.539-4.081.002 2.596-8.537m14.285.006l5.987-.004 1.535 5.694h.041l1.733-5.695 3.553-.005-2.626 8.52-5.73.021-1.659-6.086h-.027l-1.818 6.073-3.553.003 2.564-8.52m20.609.003l4.507-.002.789 5.366 4.121-5.372 4.17-.004-6.875 8.524-5.004.005-1.708-8.517m21.435.003l9.311-.008-.525 1.728-5.353.005-.519 1.75 5.019-.004-.502 1.645-5.018.004-.518 1.69 5.408-.004-.545 1.726-9.36.008 2.601-8.54m39.988 2.08l-3.188.002.631-2.07 10.465-.011-.629 2.071-3.19.004-1.953 6.425-4.088.004 1.952-6.426m16.375-2.09l6.201-.005.299 5.698h.027l3.698-5.7 6.227-.007-2.585 8.54-3.792.004 1.944-6.432h-.03l-4.606 6.435-3.954.002-.561-6.43h-.039l-1.942 6.412-3.472.003 2.585-8.52m42.508.004l5.981-.004 1.542 5.694h.04l1.732-5.698 3.55-.002-2.598 8.541-5.803-.016-1.61-6.07h-.027l-1.859 6.072-3.555.004 2.607-8.52m22.659 2.072l-3.191.003.63-2.073 10.467-.008-.629 2.072-3.19.003-1.951 6.446-4.094.005 1.958-6.448m71.1-6.253a3.672 3.672 0 1 1 0-7.344 3.672 3.672 0 0 1 0 7.344zm0-8.136a4.47 4.47 0 0 0-4.464 4.464 4.471 4.471 0 0 0 4.464 4.464 4.471 4.471 0 0 0 4.464-4.464 4.47 4.47 0 0 0-4.464-4.464"/><path fill="#231f20" d="M327.393 60.064v-1.289h.616c.52-.01 1.095.022 1.095.638 0 .618-.575.65-1.095.65zm2.555-.617c0-.888-.519-1.386-1.623-1.386h-1.736v4.602h.804v-1.885h.616l1.15 1.885h.888l-1.203-1.95c.628-.076 1.104-.466 1.104-1.266M157.385 70.81c-.09-.096-.094-.259-.057-.387.133-.435.675-.72 1.539-.72.509-.002 1.293.055 1.518.235a.595.595 0 0 1 .231.691h3.625c.427-1.523-.533-2.506-4.626-2.502-3.888.003-6.094.837-6.66 2.698-.146.484-.166 1.083.237 1.484 1.001.997 5.523 1.395 5.905 1.932a.433.433 0 0 1 .06.391c-.208.685-1.178.86-2.026.86-.539 0-1.24-.115-1.442-.338-.189-.224-.189-.566-.08-.786l-3.794.005c-.38 1.324-.544 2.7 4.73 2.696 4.426-.005 6.452-1.087 6.962-2.772.252-.824.002-1.28-.286-1.574-.982-1.01-5.361-1.384-5.836-1.912m59.291-2.578l9.31-.008-.523 1.727-5.355.005-.519 1.75 5.019-.003-.501 1.644-5.019.004-.516 1.691 5.407-.005-.546 1.727-9.36.008 2.603-8.54m107.381-40.037l-8.91 19.221.254-19.221h-16.61l3.181 34.688c-.407 2.03-1.079 3.174-2.352 3.74-1.395.62-4.547.51-5.655.448l-.202.01-2.619 9.426 11.21.011c6.618 0 9.865-3.327 14.574-10.708l23.93-37.615h-16.8M275.583 70.79c-.09-.097-.094-.26-.058-.388.135-.435.676-.72 1.539-.72.51-.002 1.293.056 1.519.235a.596.596 0 0 1 .232.692h3.624c.428-1.524-.534-2.507-4.626-2.503-3.888.004-6.093.837-6.66 2.698-.146.484-.165 1.083.236 1.484 1.002.998 5.523 1.395 5.906 1.933a.429.429 0 0 1 .06.39c-.207.685-1.179.86-2.026.861-.54 0-1.24-.116-1.441-.338-.19-.224-.19-.567-.081-.787l-3.795.005c-.38 1.324-.544 2.7 4.73 2.697 4.426-.006 6.453-1.087 6.963-2.772.251-.825.003-1.281-.286-1.575-.982-1.01-5.362-1.384-5.836-1.912"/></svg>