<svg xmlns="http://www.w3.org/2000/svg" role="img" viewBox="106.62 27.62 1007.76 792.76"><defs id="defs4"><style id="style2">.cls-1{fill:#e5e6e7}.cls-2{fill:#f3f3f4}.cls-3{fill:#f1f1f2}.cls-5{fill:#ececed}.cls-6{fill:#e8e9ea}.cls-7{fill:#f4f4f5}.cls-10{fill:#eaebec}.cls-13{fill:#5b5348}.cls-15{fill:#edeeef}.cls-19{fill:#fcfcfc}.cls-21{fill:#fb5c2d}.cls-23{fill:#fb572d}.cls-25{fill:#fb492a}.cls-28{fill:#fc9174}.cls-29{fill:#fb6f45}.cls-31{fill:#fb6349}.cls-45{fill:#fc925e}.cls-51{fill:#fc6b52}</style></defs><g id="g5599" transform="translate(42.664 29.647) scale(.9302)"><g id="g5327" transform="translate(351.575 -2.5)"><path id="path8" fill="#e5e6e7" d="M488.338 362.11a15.467 15.467 0 0 0-1.961 7.999c-.796 2.638-.957 5.434-1.994 8.012v.001c-1.244 1.476.212 3.516-1.044 4.989a92.985 92.985 0 0 0-4.968 19.986c-1.28 3.598-1.73 7.423-3.023 11.017-1.56 1.306-.681 3.587-1.995 4.992-3.588.226-4.628-2.819-6.09-5.029-10.737-16.231-21.155-32.672-31.658-49.055q-24.237-37.807-48.507-75.591c-8.84-13.684-17.488-27.492-26.424-41.125-.617 3.277 1.21 7.203-3.196 9.01a2.545 2.545 0 0 1-.961-1.913 6.689 6.689 0 0 1 .11-1.438 12.536 12.536 0 0 0-.093-7.473c-.843-2.175-2.657-3.934-2.774-6.422.04-3.25-2.08-5.564-3.66-8.041-24.909-39.043-50.102-77.903-74.955-116.981a116.072 116.072 0 0 0-9.406-12.595c14.785 38.224 30.994 75.797 46.674 113.59 5.948 13.025 11.44 26.246 17.004 39.435 6.67 15.807 13.472 31.558 20.046 47.405.76 1.833 1.715 3.63 1.794 5.69a9.107 9.107 0 0 1-1.043 3.628c-.416.92-.857 1.828-1.28 2.747-3.464 7.84-4.448 16.307-6.2 24.572a95.504 95.504 0 0 1-5.743 19.043 21.511 21.511 0 0 1-5.446 7.649c-5.86 5.146-13.809 4.747-19.237-.895-2.967-3.085-4.368-7.021-6.139-10.763a10.303 10.303 0 0 1-.59-1.377 13.888 13.888 0 0 0-2.668-5.178c-1.932-9.83-4.457-19.53-6.337-29.37a9.687 9.687 0 0 1-.343-1.569 22.29 22.29 0 0 0-.929-5.552c-2.708-12.658-3.828-25.558-5.907-38.31-1.22-10.425-3.113-20.75-4.801-31.1a12.695 12.695 0 0 1-.28-1.54 26.008 26.008 0 0 0-.7-5.175 10.39 10.39 0 0 1-.31-1.426 22.848 22.848 0 0 0-.761-4.918c-1.229-6.533-2.595-13.043-5.289-19.155-1.123-2.55-2.384-5.576-5.723-5.537-3.45.041-4.927 2.978-6.213 5.74a51.927 51.927 0 0 0-2.075 6.13c-.53 1.41-.68 2.913-1.075 4.356-3.449 13.07-4.633 26.502-6.503 39.829-1.801 12.835-3.002 25.806-7.408 38.14a24.191 24.191 0 0 1-3.674 7.066 9.997 9.997 0 0 1-14.968.98 30.007 30.007 0 0 1-6.517-10.56c-1.98-4.952-3.87-9.96-6.676-14.514-2.995-4.86-6.871-4.933-10.268-.31a28.59 28.59 0 0 0-3.82 8.106c-3.82 11.303-5.738 23.04-7.968 34.706-3.203 17.293-6.647 34.526-13.039 51.005a48.539 48.539 0 0 1-5.951 9.185c-3.678 4.576-8.47 7.08-14.451 5.943-5.48-1.043-8.282-5.078-10.119-10.019-2.28-6.132-2.476-12.72-4.299-18.938a13.812 13.812 0 0 0-2.832-5.771c-.424-.87-1.008-1.743-.047-2.637 3.326.225 4.712-1.616 6.049-4.53 8.385-18.282 15.758-36.995 23.815-55.416 3.217-7.698 6.828-15.23 9.645-23.094 4.3-12.013 9.66-23.577 14.915-35.184 8.585-20.652 17.879-41.003 26.232-61.753 9.812-23.557 20.135-46.898 29.757-70.533a10.45 10.45 0 0 1 1.414-3.305 30.57 30.57 0 0 0 2.328-4.216c2.424-4.993 7.425-7.384 11.196-11.016a40.291 40.291 0 0 0 3.616-3.358c11.345-9.355 23.047-18.277 34.016-28.09q11.027-9.601 22.63-18.495c1.42-1.091 2.769-3.18 5.132-1.638l.995.971a17.373 17.373 0 0 1 5.006 5.014l14.975 24.99c1.258 1.52 1.765 3.493 3.023 5.014q9.924 17.645 19.862 35.284c1.29 2.28 2.743 4.469 4.12 6.7 1.247 1.528 1.766 3.493 3.016 5.02a5.538 5.538 0 0 0 1.986 3.98c1.243 1.529 1.765 3.492 3.014 5.02a5.537 5.537 0 0 0 1.986 3.98c1.243 1.53 1.767 3.492 3.013 5.02a11.331 11.331 0 0 0 2.989 5.978c1.24 1.533 1.766 3.494 3.01 5.023a11.34 11.34 0 0 0 2.988 5.978c1.652 2.16 2.349 4.868 4.013 7.022a19.827 19.827 0 0 0 3.987 7.978c1.652 2.161 2.35 4.868 4.012 7.023a57.956 57.956 0 0 0 6.991 13.976c2.386 3.466 3.602 7.57 6.009 11.024 5.998 13.657 12.717 26.953 19.972 39.981 2.037 5.146 4.98 9.867 7.036 15.003a29.815 29.815 0 0 0 4.965 9.997c1.207 3.063 2.812 5.947 4.035 9.003a19.916 19.916 0 0 0 3.964 7.997q1.514 3.503 3.036 7.003a11.41 11.41 0 0 0 2.963 5.998c.912 1.572 1.124 3.429 2.038 5a11.404 11.404 0 0 0 2.962 6c.911 1.573 1.126 3.43 2.037 5.003a5.567 5.567 0 0 0 1.964 3.996c.909 1.574 1.126 3.43 2.036 5.004a5.577 5.577 0 0 0 1.963 3.997c.91 1.574 1.129 3.43 2.035 5.005a2.041 2.041 0 0 0 .967 1.993c1.986 5.223 1.958 10.577 1.031 15.988l.004-.006c-.926 2.944-1.096 6.058-2.034 8.999-1.423 1.067-.832 2.62-.965 3.997-1.233 1.483.218 3.524-1.039 5.002z" class="cls-1"/><path id="path10" fill="#e5e6e7" d="M255.369 653.13c-6.065-.101-11.04-3.482-16.269-5.793a882.79 882.79 0 0 1-112.628-59.561c-9.551-5.997-18.98-12.187-28.458-18.3a24.738 24.738 0 0 1-10.08-13.152c-9.433-26.938-18.669-53.938-26.699-81.336-.37-1.26-.577-2.567-.86-3.853-2.559-5.296-1.01-9.172 2.902-13.595 15.688-17.74 31.48-35.386 47.204-53.094 1.456-1.64 3.171-4.479 5.854-1.17.794 3.43.492 6.914.384 10.357a110.313 110.313 0 0 0 1.494 18.672 10.025 10.025 0 0 1 .343 1.63c-.476 4.313 2.192 8.286 1.407 12.635-1.368-.04-1.6.579-1.877 1.97-2.464 12.409-4.715 24.863-7.415 37.218-.893 4.084-.008 6.5 3.443 8.764q69.325 45.505 138.306 91.53c2.503 1.673 5.855 1.438 7.824 4.002.805 2.576.642 5.215.578 7.854-.197 15.455.155 30.903.173 46.35.002 1.662.018 3.324-.13 4.981-.31 3.45-1.682 5.394-5.496 3.89z" class="cls-1"/><path id="path12" fill="#e5e6e7" d="M350.357 613.11l-3.977 2.02c-2.189 1.595-4.869 2.325-7.026 3.978l-35.97 18.006c-2.359.945-4.678 1.982-7.003 3.007l-18.993 8.003c-4.542.673-3.614-2.282-2.721-4.555 1.21-3.085 2.81-6.028 4.236-9.033 12.351-26.024 23.815-52.461 36.54-78.31a105.932 105.932 0 0 0 4.37-10.246 85.035 85.035 0 0 1-13.657 5.374c-1.904.552-3.829 1.36-5.744.002-.526-2.23 1.458-2.207 2.616-2.931 2.01-.673 4.07-1.214 6.024-2.064a50.438 50.438 0 0 0 5.02-2.17c2.18-1.258 4.78-1.447 6.947-2.741 2.028-.932 4.042-1.895 6-2.966a47.999 47.999 0 0 0 5-3.154c2.493-1.811 5.663-2.591 7.699-5.098 14.808-9.798 26.854-22.38 37.086-36.791 6.032-8.68 11.441-17.682 14.544-27.89 3.593-6.538 4.888-13.863 7.134-20.865.754-2.912.7-5.953 1.461-8.857.401-1.53.148-3.477 2.397-3.871a3.503 3.503 0 0 1 1.214 2.183c-2.704 18.471 4.671 35.445 8.213 52.928 4.661 23.009 10.197 45.847 15.481 68.73.56 2.425 1.08 4.865.138 7.325-4.393 6.279-10.842 10.082-17.14 13.993-13.569 8.423-27.238 16.684-40.865 25.011-1.553 1.199-3.498 1.737-5.024 2.982l-8.977 5.02c-1.555 1.195-3.497 1.737-5.023 2.98z" class="cls-1"/><path id="path14" fill="#f3f3f4" d="M255.378 102.12q-9.021 21.555-18.053 43.105c-3.93 9.32-7.96 18.599-11.945 27.896-13.499 13.314-25.358 28.086-37.887 42.268-13.083 14.81-26.348 29.467-39.466 44.252q-21.01 23.683-41.845 47.515c-9.866 11.23-20.024 22.22-29.984 33.378-9.297 10.413-18.579 20.843-27.38 31.686a18.254 18.254 0 0 1-2.528 3.079 26.676 26.676 0 0 0-8.91 12.827 15.188 15.188 0 0 1-2-8c-.879-1.228-.037-3.31-1.99-4.005-.205-5.807-2.967-11.16-3.01-16.996-1.479-3.914-.03-6.875 2.603-9.872q20.902-23.798 41.89-47.52c14.338-16.174 28.548-32.464 43.084-48.465 14.42-15.873 28.434-32.111 42.62-48.195 9.783-11.094 19.544-22.22 29.57-33.114 10.239-11.126 19.884-22.809 29.93-34.125 9.936-11.19 20.19-22.095 29.95-33.445 1.276-1.486 2.65-3.71 5.351-2.268z" class="cls-2"/><path id="path16" fill="#f1f1f2" d="M37.38 388.126c-.833-4.53 1.711-7.759 4.587-10.518 7.553-7.247 13.569-15.82 20.682-23.447 7.228-7.75 14.027-15.9 21.046-23.845 14.478-16.391 29.33-32.45 43.394-49.212 6.39-7.617 13.376-14.733 19.966-22.188 8.652-9.788 16.795-20.056 25.867-29.432 9.194-9.501 17.47-19.758 26.21-29.627 6.588-7.44 13.162-14.896 19.61-22.459 1.84-2.158 4.355-2.967 6.638-4.277q-9.303 22.104-18.602 44.209c-2.487 5.921-4.934 11.86-7.4 17.79-10.473 10.898-20.222 22.449-30.23 33.762-9.246 10.453-18.594 20.815-27.74 31.358-11.867 13.68-23.986 27.14-35.998 40.69-11.683 13.178-23.292 26.424-35.074 39.517q-13.658 15.178-26.958 30.683a102.594 102.594 0 0 1-5.998-23.004z" class="cls-3"/><path id="path18" fill="#eff0f0" d="M427.386 563.124q-11.024-49.122-22.061-98.242a214.317 214.317 0 0 0-2.922-11.56c-1.828-6.426-.768-12.813.023-19.217.392-14.138 1.674-28.307-1.524-42.306a14.49 14.49 0 0 1-.358-1.533c-.084-3.798 1.534-4.03 4.136-1.894a22.271 22.271 0 0 1 4.286 5.48c16.283 25.31 32.034 50.963 48.937 75.872a3.437 3.437 0 0 1 .487 1.402c-3.44 15.024-8.749 29.476-13.575 44.07-4.678 14.147-9.592 28.216-14.41 42.316-.694 2.035-1.378 4.083-3.019 5.612z"/><path id="path20" fill="#ececed" d="M458.39 471.126c-4.659-3.024-6.77-8.094-9.601-12.471-14.003-21.656-27.73-43.491-41.606-65.23a18.736 18.736 0 0 0-4.084-4.93c-2.698-2.053-1.221 1.061-1.785 1.706a1.113 1.113 0 0 1-1.355-.284c-1.99-3.487-1.705-7.735-3.748-11.206-2.123-6.547-3.122-13.476-6.651-19.542-4.244-6.612-5.47-14.578-9.622-21.257-6.124-9.854-11.537-20.25-21.696-26.817-2.31-1.855-5.307-.52-7.77-1.66-5.476-13.336-10.893-26.697-16.445-40.002-6.87-16.462-13.86-32.874-20.775-49.318-.572-1.359-1.971-2.326-1.87-3.994-.891-1.423.019-3.23-1.142-4.685-.886-1.11-.998-2.68.442-3.48 1.483-.824 2.485.424 3.297 1.48 4.774 6.21 8.706 12.988 13.023 19.504 1.835 2.77 3.418 5.722 5.4 8.39a11.038 11.038 0 0 1 2.298 8.882 15.245 15.245 0 0 0 5.559 14.779c.823.861 1.783 1.815 2.959 1.677 5.56-.654 7.638 3.111 10.172 7.068q18.461 28.825 36.984 57.612 33.34 51.934 66.613 103.912a91.96 91.96 0 0 0 9.408 12.866 181.634 181.634 0 0 1-8.005 27z" class="cls-5"/><path id="path22" fill="#e8e9ea" d="M466.395 444.126c-5.907-1.936-7.474-7.78-10.355-12.165-14.12-21.484-27.799-43.256-41.693-64.889-20.795-32.38-41.71-64.683-62.365-97.151-2.265-3.56-3.82-6.852-8.873-5.927a3.47 3.47 0 0 1-3.638-2.143c2.96-1.489 6.087.877 9.048-.41a13.46 13.46 0 0 0 4.169-1.925c1.446-.866 2.363-2.676 4.401-2.495 3.968-2.505 1.378-6.761 2.67-10.108 2.254.463 3.031 2.36 4.074 3.986q32.75 51.069 65.513 102.13c13.175 20.499 26.446 40.936 39.63 61.43a12.884 12.884 0 0 0 4.377 4.647l.022 3c-.887 2.275-1.146 4.73-2.02 7.009l-4.96 15.011z" class="cls-6"/><path id="path24" fill="#f4f4f5" d="M255.378 102.12c-3.011.336-4.405 2.869-6.125 4.774-7.322 8.117-14.408 16.447-21.74 24.556-9 9.953-17.889 19.993-26.55 30.249-6.936 8.214-14.533 15.867-21.587 23.986-12.815 14.751-26.245 28.962-38.514 44.196-4.154 5.158-8.979 9.772-13.424 14.699q-22.139 24.538-43.827 49.476c-8.367 9.622-16.985 19.045-25.377 28.663-8.499 9.74-17.21 19.294-25.836 28.924-1.937 2.162-2.185 4.761-2.017 7.482-2.266-8.978-6.389-17.69-3.942-27.34a7.316 7.316 0 0 1 .937-1.669c7.102-5.27 12.845-11.965 18.862-18.335 2.956-3.129 5.69-6.496 8.816-9.474 14.082-13.414 26.796-28.16 40.685-41.76q7.746-7.437 14.976-15.38c7.691-8.96 16.848-16.522 24.403-25.61a12.918 12.918 0 0 1 2.546-2.373c8.533-7.783 15.666-16.934 24.174-24.742 5.984-5.978 12.09-11.832 17.833-18.058 4.409-3.227 4.365-7.593 4.619-12.692.671-13.489.16-26.962.522-40.43.663-24.617 1.418-49.228 1.17-73.86-.041-4.059-.463-8.45 3.372-11.47 3.748 1.086 7.661 1.986 8.112 6.943a14.476 14.476 0 0 0-1.614 7.227c.68 30.302-1.657 60.571-.994 90.873.101 4.615-.359 9.252.363 14.813 4.684-3.11 7.704-7.05 11.232-10.38 4.379-5.934 10.972-9.744 15.215-15.818 9.96-9.773 19.715-19.755 29.668-29.536 1.438-1.414 2.584-3.665 5.284-2.955a1.8 1.8 0 0 1-.234 2.03z" class="cls-7"/><path id="path26" fill="#efeff0" d="M162.383 193.121l-24.006 24.996c-2.78-1.45-2.363-4.143-2.503-6.576-.431-7.503.716-14.947.9-22.42.26-10.48.328-20.98.001-31.456-.39-12.503 1.372-24.92 1.05-37.403-.066-2.61.384-5.45-2.44-7.14 6.032-12.168 13.096-23.759 20.04-35.406 1.921-3.22 2.595-7.263 5.945-9.6 2.978-2.55 4.143-2.374 5.154.805a9.962 9.962 0 0 1 .389 2.964c.094 13.662.76 27.37-.175 40.975-1.041 15.167-.682 30.303-.667 45.447.009 9.513-1.02 18.951-1.141 28.438-.032 2.497-1.212 4.446-2.547 6.376z"/><path id="path28" fill="#e5e6e7" d="M96.382 261.121q-18.32 19.07-36.643 38.138c-9.695 10.067-19.397 20.129-29.23 30.06-.478.483-1.259 4.193-3.133.798 1.185-5.922 4.42-11.032 6.872-16.396 10.238-22.38 20.449-44.774 31.154-66.944 6.95-14.392 14.177-28.642 21.176-43.007.79-1.62 1.865-3.102 2.808-4.648 1.564-2.17 2.5-4.683 3.818-6.985.459-.8.667-2.078 1.911-1.967 1.304.117 1.894 1.194 2.272 2.348a14.061 14.061 0 0 1 .496 3.94c.731 20.76-1.609 41.473-.994 62.232a7.27 7.27 0 0 1-.507 2.431z" class="cls-1"/><path id="path30" fill="#eeeeef" d="M43.378 411.13c-.328-2.3 1.222-3.593 2.561-5.105 14.815-16.736 29.548-33.543 44.377-50.265 9.013-10.163 18.222-20.152 27.222-30.326 11.625-13.142 23.083-26.432 34.702-39.578 8.886-10.054 17.923-19.974 26.871-29.972 5.301-5.923 10.53-11.91 15.859-17.807 1.19-1.318 2.286-2.953 4.409-2.957a352.488 352.488 0 0 0-15 35.001c-15.386 16.572-29.857 33.954-44.94 50.79-12.094 13.498-24.059 27.111-36.157 40.605-13.65 15.224-27.07 30.657-40.52 46.06-3.5 4.006-7.1 7.926-10.622 11.914-1.29 1.46-2.61 3.1-4.875 3.164-2.062-.407-.81-2.595-1.897-3.528a15.268 15.268 0 0 1-1.99-7.996z"/><path id="path32" fill="#eaebec" d="M135.384 113.121c3.327-2.62 3.9-.215 3.952 2.344.123 5.974.71 12.047-.112 17.908-1.441 10.272-.882 20.53-.735 30.77.23 15.92-.961 31.785-1.105 47.684-.02 2.15-.23 4.334.993 6.29-7.68 9.018-17.011 16.468-24.437 25.732a19.585 19.585 0 0 1-2.56 2.267c-1.015-1.11-.84-2.421-.71-3.767 2.398-25.186 2.266-50.442 2.113-75.7-.017-2.794-1.448-5.077-2.42-7.535 4.078-9.758 9.882-18.612 14.7-27.984 3.161-6.147 6.862-12.016 10.321-18.009z" class="cls-10"/><path id="path34" fill="#ebecec" d="M174.382 293.121c-5.866 14.062-11.698 28.138-17.616 42.178-1.996 4.736-4.504 9.276-6.228 14.102-1.393 3.9-2.715 6.667-7.321 3.796-10.814 1.707-15.23 10.34-20.05 18.535-5.699 3.178-9.184 8.664-13.277 13.37-17.006 19.556-34.42 38.746-51.603 58.142-1.931 2.18-1.505 5.876-4.884 6.87-.5-3.035-2.413-5.751-2.026-8.986-.43-2.161-1.546-4.164-1.485-6.436-.747-2.81.802-4.782 2.477-6.686 13.179-14.979 26.456-29.872 39.625-44.856 16.131-18.354 32.405-36.585 48.51-54.964 9.417-10.747 18.73-21.612 28.622-31.942 1.402-1.464 2.584-3.649 5.256-3.123z"/><path id="path36" fill="#e9eaeb" d="M300.28 551.075c7.424-.205 13.644-4.535 21.51-6.711-1.386 3.55-2.29 6.326-3.522 8.949-10.866 23.15-21.821 46.26-32.68 69.415-3.305 7.048-6.018 14.366-9.916 21.151-.915 1.594-1.794 4.031 1.716 4.245a43.282 43.282 0 0 1-16.436 5.843c-1.845.267-3.938.826-5.583-.838 3.45.483 4.086-1.322 4.066-4.37-.11-17.212-.052-34.425-.052-51.638 3.163.666 2.18 3.297 2.225 5.178.177 7.282.035 14.57.099 22.94a125.21 125.21 0 0 0 8.656-17.295c6.398-15.178 13.82-29.878 20.58-44.884 1.27-2.82 3.355-5.434 2.7-8.853a4.842 4.842 0 0 1-.606-1.264 1.72 1.72 0 0 1 .51-1.267 10.431 10.431 0 0 1 3.308-1.384 3.476 3.476 0 0 1 3.425.783z"/><path id="path40" fill="#f2f2f3" d="M162.383 193.121c1.876-7.295.897-14.828 1.847-22.23.756-5.899.232-11.973.139-17.967-.428-27.28 1.781-54.525 1.015-81.808-.076-2.706.439-6.165-4.014-3 3.678-8.73 9.464-16.255 14.027-24.48.873-1.574 1.982-3.017 2.982-4.52 3.442.516 3.676 3.312 3.436 5.718-2.274 22.762.233 45.616-1.563 68.41-1.098 13.936-.225 27.983-.276 41.98-.025 6.972-.69 13.923-.594 20.897a166.927 166.927 0 0 1-17 17z"/><path id="path42" fill="#edeeef" d="M174.382 293.121c-9.4 7.551-16.098 17.627-24.414 26.205-7.03 7.25-13.385 15.156-20.054 22.76q-17.548 20.008-35.126 39.992c-8.793 9.944-17.704 19.784-26.544 29.689q-7.953 8.91-15.837 17.883a7.654 7.654 0 0 0-2.025 4.472c-.335.495-.674.474-1.018.01a15.342 15.342 0 0 1-1.987-8.003 3.89 3.89 0 0 1 .004-4.008c8.065-6.723 14.032-15.393 21.218-22.94 6.722-7.06 12.834-14.7 19.27-22.034q18.158-20.694 36.39-41.321c9.117-10.284 18.382-20.437 27.504-30.717 9.444-10.642 18.777-21.383 28.21-32.035 1.175-1.327 2.284-2.952 4.407-2.953a232.298 232.298 0 0 1-9.998 23z" class="cls-15"/><path id="path44" fill="#f1f2f2" d="M273.376 81.116c-2.934 3.328-6.521 5.89-9.945 8.661a52.108 52.108 0 0 0-5.043 5.348c-.192-.145-.384-.29-.58-.43-2.647-4.543-7.26-6.978-11.022-10.33-1.879-1.673-4.516-3.053-3.398-6.38 1.576-3.27 1.37-6.852 1.408-10.27.137-12.076.01-24.154.069-36.231.024-4.979-1.137-5.73-6.4-5.964-2.737-.122-5.686.738-8.088-1.402 3.506-2.119 7.353-.476 11.004-.999 8.752-1.067 17.54-.412 26.306-.388 4.507.012 5.175 3.896 5 7.227-.295 5.656.25 11.279.125 16.91-.245 10.936-.43 21.866.248 32.793a6.47 6.47 0 0 0 .316 1.455z"/><path id="path46" fill="#f6f6f7" d="M273.376 81.116c-3.704-3.923-2.415-9.018-2.451-13.458-.037-4.4-.322-8.896-.02-13.19.473-6.714-.102-13.37.216-20.04a42.746 42.746 0 0 0 .168-6.434c-.332-3.157-1.885-5.011-5.537-4.928-8.12.184-16.247.055-24.371.053 1.471-1.626 3.419-.945 5.164-.97 19.014-.272 37.994.172 56.857 2.91a29.985 29.985 0 0 0 3.978.063c-1.833 6.35-1.66 12.86-1.613 19.37a20.707 20.707 0 0 0 1.59 8.618c-10.846 9.918-22.51 18.845-33.981 28.006z"/><path id="path48" fill="#e8e9ea" d="M110.363 159.114c3.472.56 3.967 3.265 3.98 5.98.075 14.992.666 30.022-.21 44.963-.505 8.64-.615 17.252-.66 25.873-.019 3.628-2.145 6.649-2.092 10.186-4.85 5.152-9.404 10.599-14.999 15.005-1.232-1.96-.951-4.155-1.008-6.31-.512-19.459 1.77-38.87.984-58.33-.077-1.899.737-4.03-1.153-5.724-2.891 2.162-2.554 6.547-5.82 8.365 4.076-10.193 10.036-19.431 14.855-29.25 1.815-3.697 4.07-7.178 6.123-10.758z" class="cls-6"/><path id="path50" fill="#e9eaea" d="M53.403 450.114c1.244-6.022 5.961-9.786 9.673-14.009 15.167-17.256 30.514-34.354 45.724-51.575 4.164-4.714 7.196-10.943 13.705-13.377 1.548 2.11.426 4.174-.285 6.116a81.06 81.06 0 0 0-3.876 15.84c-1.459 2.844.759 6.877-2.894 9.015-2.115.75-3.376 2.37-4.83 4.032-9.05 10.343-18.34 20.474-27.486 30.733-7.489 8.4-14.788 16.97-22.379 25.276-2.85 3.119.415 6.027-.38 8.97-3.172-6.726-4.322-14.122-6.972-21.02z"/><path id="path52" fill="#f3f3f4" d="M179.382 176.121c-2.9-4.486-1.236-9.254-1.09-14.01.3-9.823-.21-19.672.148-29.49.959-26.283.995-52.57.954-78.86-.005-3.317 1.284-6.478 1.078-9.875a6.237 6.237 0 0 0-2.093-4.77c.957-4.379 5.324-5.342 8.006-7.992 1.417 1.596 3.967 2.289 3.988 4.998-2.987 2.548-2.93 6.126-2.95 9.52-.091 15.975.742 32-.27 47.91-.936 14.722-.559 29.417-.91 44.117-.196 8.236.205 16.482-.855 24.69a1.848 1.848 0 0 0 .015.988c3.57 6.897-2.24 9.356-6.02 12.774z" class="cls-2"/><path id="path54" fill="#edeeef" d="M230.377 24.118a102.892 102.892 0 0 0 10.444-.069c4.138-.422 5.407 1.94 5.478 5.205.172 7.9.099 15.806.05 23.71-.044 6.858-.203 13.715-.282 20.573-.027 2.301.141 4.654-2.689 5.587-1.117 1.02-2.203.483-3.116-.228q-7.57-5.897-14.94-12.051c-1.268-2.268-5.35-2.975-3.81-6.816a11.12 11.12 0 0 0 1.412-6.201c.007-7.116-.112-14.235.049-21.347.083-3.673-.8-5.677-5.03-5.052-2.212.326-4.669.542-6.569-1.312 6.218-1.772 12.595-2.038 19.003-1.999z" class="cls-15"/><path id="path56" fill="#eaebec" d="M211.374 26.117c2.494-.003 5.183.598 7.444-.128 5.794-1.861 5.726 1.28 5.624 5.438-.202 8.308-.068 16.625-.055 24.938.003 2.24.082 4.488-3.006 4.757-5.577-.658-8.437-5.52-12.71-8.2-2.259-2.671-5.228-4.526-7.852-6.777-1.363-1.17-3.066-2.018-3.437-4.024-1.52-2.953-5.799-2.684-7.01-5.999-1.345-1.652-4.026-2.24-3.987-4.998 7.866-3.987 16.424-4.512 24.99-5.007z" class="cls-10"/><path id="path58" fill="#fcfcfc" d="M307.358 53.11c-2.803-.586-2.923-2.834-2.951-4.993-.069-5.288.076-10.58-.062-15.864-.077-2.926 1.648-4.917 3.035-7.13 7.3.925 14.665 1.473 21.726 3.782 2.025.662 4.21 1.034 5.267 3.251-6.551 2.882-11.158 8.408-16.858 12.456-3.588 2.547-6.785 5.646-10.157 8.498z" class="cls-19"/><path id="path94" fill="#fcfcfc" d="M456.376 252.135c-2.966-4.71-5.939-9.416-7.035-15.003 3.054 4.668 6.036 9.37 7.035 15.003z" class="cls-19"/><path id="path104" fill="#fcfcfc" d="M492.372 344.119c.1-5.358.141-10.712-1.03-15.988 3.109 5.15 2.592 10.536 1.03 15.988z" class="cls-19"/><path id="path106" fill="#fcfcfc" d="M429.368 197.151c-3.278-2.98-4.538-7.059-6.009-11.024 3.362 2.934 4.632 7.008 6.009 11.024z" class="cls-19"/><path id="path112" fill="#fcfcfc" d="M475.348 414.114c.352-3.852.917-7.645 3.023-11.016-.276 3.872-.815 7.673-3.023 11.016z" class="cls-19"/><path id="path116" fill="#fcfcfc" d="M465.376 271.135c-2.082-2.67-3.743-5.53-4.034-9.003 2.177 2.627 3.825 5.493 4.034 9.003z" class="cls-19"/><path id="path156" fill="#fcfcfc" d="M416.368 172.15c-2.473-1.691-3.246-4.354-4.012-7.022 2.547 1.65 3.338 4.303 4.012 7.023z" class="cls-19"/><path id="path158" fill="#fcfcfc" d="M408.369 157.15c-2.473-1.692-3.248-4.354-4.013-7.022 2.547 1.65 3.337 4.303 4.013 7.022z" class="cls-19"/><path id="path160" fill="#fcfcfc" d="M490.341 353.112c.012-3.15.339-6.23 2.035-8.999.053 3.165-.205 6.26-2.035 8.999z" class="cls-19"/><path id="path162" fill="#fcfcfc" d="M339.354 619.108c1.7-2.46 4.33-3.278 7.026-3.979-1.671 2.51-4.318 3.3-7.026 3.979z" class="cls-19"/><path id="path164" fill="#fcfcfc" d="M296.381 640.121a10.287 10.287 0 0 1 7.003-3.007 10.077 10.077 0 0 1-7.003 3.007z" class="cls-19"/><path id="path166" fill="#fcfcfc" d="M340.374 38.141a16.512 16.512 0 0 1-5.006-5.014 5.777 5.777 0 0 1 5.006 5.014z" class="cls-19"/><path id="path168" fill="#fcfcfc" d="M484.384 378.121a15.411 15.411 0 0 1 1.993-8.012c.096 2.86-.052 5.66-1.993 8.012z" class="cls-19"/><path id="path170" fill="#fcfcfc" d="M472.376 286.135a10.675 10.675 0 0 1-3.035-7.003 9.766 9.766 0 0 1 3.035 7.003z" class="cls-19"/><path id="path192" fill="#f1f1f2" d="M49.364 434.133l1.018-.01.995 7.005a10.35 10.35 0 0 1-2.013-6.995z" class="cls-3"/><path id="path198" fill="#f1f1f2" d="M47.381 422.121l-.004 4.008a10.313 10.313 0 0 1-2.009-7.003l2.013 2.995z" class="cls-3"/><path id="path206" fill="#fcfcfc" d="M471.355 429.115a10.525 10.525 0 0 1 2.02-7.008c.062 2.548-.254 4.987-2.02 7.008z" class="cls-19"/><path id="path216" fill="#fcfcfc" d="M385.37 115.148c-1.974-1.091-2.622-2.979-3.016-5.02 2.06 1.04 2.692 2.938 3.016 5.02z" class="cls-19"/><path id="path220" fill="#fcfcfc" d="M358.372 68.145c-1.977-1.087-2.622-2.977-3.023-5.015 2.067 1.033 2.692 2.935 3.023 5.015z" class="cls-19"/><path id="path226" fill="#fcfcfc" d="M401.369 144.15c-1.971-1.094-2.621-2.98-3.011-5.023 2.054 1.045 2.69 2.939 3.01 5.023z" class="cls-19"/><path id="path228" fill="#fcfcfc" d="M390.37 124.148c-1.974-1.092-2.62-2.98-3.014-5.02 2.057 1.042 2.69 2.938 3.014 5.02z" class="cls-19"/><path id="path230" fill="#fcfcfc" d="M395.369 133.15c-1.971-1.094-2.622-2.98-3.013-5.022 2.057 1.042 2.692 2.938 3.013 5.022z" class="cls-19"/><path id="path232" fill="#fcfcfc" d="M364.357 605.11c1.099-1.964 2.956-2.65 5.024-2.982-1.071 2.01-2.947 2.666-5.024 2.982z" class="cls-19"/><path id="path234" fill="#fcfcfc" d="M350.357 613.11c1.099-1.964 2.956-2.649 5.023-2.98-1.072 2.009-2.947 2.665-5.023 2.98z" class="cls-19"/><path id="path256" fill="#fcfcfc" d="M482.376 308.136a6.094 6.094 0 0 1-2.037-5.003 5.573 5.573 0 0 1 2.037 5.003z" class="cls-19"/><path id="path258" fill="#fcfcfc" d="M486.376 317.136a6.096 6.096 0 0 1-2.035-5.004 5.58 5.58 0 0 1 2.035 5.004z" class="cls-19"/><path id="path278" fill="#fcfcfc" d="M477.377 297.133a6.09 6.09 0 0 1-2.038-5 5.577 5.577 0 0 1 2.038 5z" class="cls-19"/><path id="path284" fill="#fcfcfc" d="M490.374 326.138a6.105 6.105 0 0 1-2.035-5.005 5.569 5.569 0 0 1 2.035 5.005z" class="cls-19"/><path id="path298" fill="#f4f4f5" d="M33.39 376.121c2.675.336 1.802 2.434 1.99 4.005l-1.99-4.005z" class="cls-7"/><path id="path306" fill="#fcfcfc" d="M483.339 383.11c.292-1.674-.602-3.596 1.044-4.988-.257 1.682.702 3.619-1.044 4.989z" class="cls-19"/><path id="path334" fill="#fcfcfc" d="M488.338 362.11c.285-1.68-.593-3.6 1.039-5.001-.249 1.687.71 3.626-1.039 5.001z" class="cls-19"/><path id="path340" fill="#fb612e" d="M147.408 360.116c1.842 3.975 1.845 8.364 2.838 12.529a66.178 66.178 0 0 0 2.247 8.103c3.58 9.46 13.61 11.555 20.578 4.126 2.79-2.975 4.815-6.67 7.188-10.037 1.724 1.92.65 3.758-.254 5.522-1.078 2.104-.565 3.124 1.826 3.162 1.167.019 2.333.02 3.5.02q92.747 0 185.493-.015c3.14-.001 6.362.418 9.296-1.2 1.148-.613 2.39-.682 2.97.592 3.513 7.733 8.192 15.03 9.081 23.772a12.951 12.951 0 0 1-3.575 5.655 5.507 5.507 0 0 1-2.533 1.04 46.322 46.322 0 0 1-7.967.35q-93.536.01-187.072.023a64.868 64.868 0 0 1-13.864-1.247c-7.07-2.484-12.879-7.34-19.615-10.52-5.854-2.762-10.931-6.884-16.2-10.646-7.142-5.1-7.244-5.13-4.091-13.398 2.105-4.784 4.314-9.526 6.119-14.443.977-1.564.746-4.585 4.035-3.388z"/><path id="path342" fill="#fb5c2d" d="M381.397 382.085c-.005 1.626-.258 3.048-2.379 3.017-1-.014-1.999.018-2.999.018q-97.73.002-195.46-.007c-1.44 0-2.88-.126-4.432-.198.286-4.044 4.91-5.957 4.132-10.077 6.012-16.56 9.554-33.75 13.015-50.96 2.014 1.911 1.435 4.292 1.103 6.57-.842 5.77-2.005 11.485-3.287 17.173-1.521 6.75-1.408 6.933 5.73 6.945q19.989.032 39.977.006l60.465-.001c3.162 0 6.34.094 9.222-1.562 1.29 2.488 2.515 5.013 3.884 7.458 2.642 4.72 6.108 8.371 12.048 8.211 5.988-.16 9.867-3.687 12.426-8.648 3.365-6.524 5.217-13.58 6.737-20.758 1.806-8.538 2.474-17.404 6.745-25.293 1.79 2.009.628 4.102.055 6.088-2.669 9.24-3.867 18.805-6.323 28.087-.88 3.325.419 4.606 3.692 4.576q7.694-.073 15.39-.002a5.968 5.968 0 0 0 5.652-3.296c2.52-1.345 2.659 1.081 3.312 2.274 1.97 3.6 3.229 7.538 5.05 11.216 1.758 4.762 4.03 9.32 5.733 14.102.575 1.612 1.87 3.224.512 5.06z" class="cls-21"/><path id="path344" fill="#fb522c" d="M290.538 272.8l5.9 39.163c1.074 1.582-.309 3.636.995 5.173a.45.45 0 0 1 .055.666c.702 5.903-.226 7.131-5.907 7.74a56.19 56.19 0 0 1-5.995.155q-40.996.006-81.993 0c-1.666 0-3.337.064-4.997-.097-4.465-.432-5.155-1.466-4.298-5.747 2.072-10.354 4.278-20.675 7.03-30.873a20.988 20.988 0 0 1 4.222-9.461c3.69-4.98 8.44-4.931 11.643.317a84.46 84.46 0 0 1 5.342 11.248c1.683 3.986 3.198 8.033 5.545 11.706 2.178 3.41 4.813 5.915 9.264 5.589 4.24-.31 6.5-3.067 8.129-6.502 4.196-8.851 5.346-18.486 6.965-27.986 2.848-16.716 3.79-33.723 7.634-50.288.296-1.277.772-2.513 1.164-3.767a2.779 2.779 0 0 1 1.04 1.352c.466 6.926-2.566 13.376-2.747 20.216-1.746 10.856-2.523 21.85-4.544 32.665-.622 3.33.617 4.583 3.894 4.575 8.499-.018 17.012-.29 25.492.105 4.748.222 4.117-4 6.167-5.949z"/><path id="path346" fill="#fb572d" d="M201.329 288.98c-.907 8.916-4.156 17.34-5.477 26.176-1.446 9.676-3.974 8.955 7.296 8.96q43.431.022 86.862-.007c6.526-.006 7.156-.606 7.477-6.305 2.317 9.289 4.826 18.537 6.082 28.06a11.19 11.19 0 0 0 .813 2.27c.891 1.573.974 3.491 2.117 4.957l-.015-.082c.094 3.723-2.606 3.106-4.87 3.107q-22.953.014-45.906.005c-21.124 0-42.249-.124-63.37.101-4.42.047-4.831-1.372-3.853-5.092 2.35-8.938 4.647-17.913 4.79-27.25 1.873-11.822 3.83-23.622 8.054-34.9z" class="cls-23"/><path id="path348" fill="#e9e9ea" d="M333.391 246.144a9.48 9.48 0 0 0-1.785-7.804c-5.995-8.711-11.61-17.684-17.4-26.537-.78-1.194-1.738-2.273-2.99-3.89-1.225 3.225 2.246 5.69.166 8.208-3.98-8.899-7.513-17.997-11.355-26.935-6.209-14.44-12.205-28.97-18.315-43.451-5.865-13.899-11.549-27.874-17.202-41.86-.501-1.24-1.697-2.635-.25-4.647 4.513 2.321 6.367 7.035 8.91 10.788 8.554 12.627 16.592 25.604 24.834 38.443l29.84 46.48c8.754 13.703 17.421 27.462 26.157 41.177.906 1.423 2.284 2.713.054 4.121a3.663 3.663 0 0 1-2.923-.725c-.342-.223-.672-.466-1-.705a6.137 6.137 0 0 0-3.603-.424c-2.133.405-4.29.719-6.162 1.937-.354.255-.726.482-1.097.708-2.343 1.06-3.054 3.57-4.677 5.27a.998.998 0 0 1-1.202-.154z"/><path id="path350" fill="#fb492a" d="M290.538 272.8c-.386 7.32-.386 7.32-7.748 7.321-8.145 0-16.291-.086-24.434.038-3.844.059-5.808-.795-5.034-5.351 1.901-11.194 3.403-22.455 5.066-33.689a5.579 5.579 0 0 1 3.624-1.459 264.195 264.195 0 0 1 19.908-.007 6.818 6.818 0 0 1 3.676 1.396 225.122 225.122 0 0 1 4.942 31.75z" class="cls-25"/><path id="path352" fill="#fb4529" d="M285.596 241.049l-27.208.07c-.23-6.874 2.605-13.276 3.086-20.041.97-1.645-.073-3.598.805-5.256a20.498 20.498 0 0 1 3.891-9.576c3.424-5.088 7.966-5.037 10.812.355a58.912 58.912 0 0 1 6.478 22.295c1.024 1.617-.32 3.674.975 5.24a.434.434 0 0 1 .05.664c.971 1.665-.363 3.752.982 5.347a.792.792 0 0 1 .129.902z"/><path id="path354" fill="#fb572c" d="M367.373 349.148c.409 3.586-1.023 5.148-4.786 5.027-6.3-.201-12.612-.108-18.917-.034-3.31.039-4.29-.99-3.434-4.5 2.889-11.84 5.42-23.767 8.088-35.662l.878-1.994c2.37-2.49 3.666-1.038 4.73 1.286 3.317 7.246 6.235 14.66 9.264 22.026.758 1.842 1.496 3.69 2.387 5.467a10.667 10.667 0 0 1 .561 1.297c.564 1.962 1.285 3.883 1.713 5.89a1.435 1.435 0 0 1-.484 1.197z"/><path id="path356" fill="#fc9174" d="M365.331 342.182c-5.18-8.909-7.945-18.882-12.364-28.132-.873-1.828-1.369-3.424-3.765-2.065l1.27-2.551c2.757-.752 5.526-1.653 8.047.627-1.684 2.177-.552 4.055.666 5.886 9.352 14.068 20.174 27.102 29.14 41.443.473.757 1.083 1.231 2.04.848 3.91 6.12 5.163 13.17 7.004 20.014.95 1.633.243 2.267-1.336 1.823-1.672-.47-2.583-2.004-3.664-3.275-6.704-7.89-11.98-16.79-17.827-25.281-2.913-4.23-6.759-7.8-9.064-13.605.061.376-.389 1.476.19 1.145.156-.09.168.072.272.41a2.335 2.335 0 0 1-.609 2.713z" class="cls-28"/><path id="path358" fill="#fb6f45" d="M147.408 360.116c-2.581.145-1.93 2.737-3.03 4.004-7.157 8.87-14.307 17.746-21.57 26.529-1.142 1.38-2.533 2.828-4.674 1.51.586-5.757 1.534-11.11 5.714-15.867 5.025-5.717 9.088-12.29 14.3-17.907 1.72-1.854 3.062-4.67 6.474-3.372a6.41 6.41 0 0 1 2.786 5.103z" class="cls-29"/><path id="path360" fill="#fb7750" d="M144.622 355.013c-6.272 2.69-9.159 8.785-13.303 13.546-3.1 3.56-5.438 7.742-8.872 11.138-3.357 3.32-3.057 8.16-4.035 12.438a.78.78 0 0 1 .251.75q-.098.388-.209.388a1.187 1.187 0 0 1-1.21-.193c.2-7.682 3.665-14.58 5.261-21.927a64.733 64.733 0 0 1 7.288-11.844c3.497-4.211 7.685-6.854 13.425-6.112l1.404 1.816z"/><path id="path362" fill="#fb6349" d="M357.09 257.021l-3.584 3.154c-1.962 1.06-3.123-.205-4.193-1.517-4.102-5.03-6.512-11.188-10.75-16.14-.865-1.01.089-1.817.738-2.56l-.051.055c1.501-.76 2.954-1.691 4.766-1.353 4.023 3.733 6.057 9.013 9.988 12.837 1.171 1.139 1.897 2.72 3.344 3.628l-.259 1.896z" class="cls-31"/><path id="path364" fill="#fb5d43" d="M357.348 255.125c-.744.241-1.709.926-2.22.064-3.286-5.548-8.875-9.554-10.735-16.047a6.308 6.308 0 0 1 6.999-.026c1.128-.197 1.876.512 2.664 1.121 1.124 1.906 3.095 3.307 3.395 5.703a19.829 19.829 0 0 1 .056 8.539.489.489 0 0 1-.16.646z"/><path id="path366" fill="#fb6349" d="M357.507 254.478l-.056-8.537a8.223 8.223 0 0 1 .056 8.537z" class="cls-31"/><path id="path368" fill="#fb5c2d" d="M306.5 353.09c-1.777-1.195-2.143-2.993-2.118-4.957 1.658 1.246 1.89 3.101 2.117 4.958z" class="cls-21"/><path id="path370" fill="#fb492a" d="M284.435 234.137c-1.761-1.48-.843-3.457-.975-5.24a8.41 8.41 0 0 1 .975 5.24z" class="cls-25"/><path id="path372" fill="#fb492a" d="M262.279 215.821c-.087 1.781.753 3.704-.806 5.257l-.237-1.242a5.749 5.749 0 0 1 1.043-4.015z" class="cls-25"/><path id="path374" fill="#fb492a" d="M285.467 240.147c-1.82-1.507-.872-3.522-.981-5.345a8.474 8.474 0 0 1 .981 5.345z" class="cls-25"/><path id="path376" fill="#fb572d" d="M297.433 317.136c-1.751-1.45-.841-3.413-.995-5.172a8.4 8.4 0 0 1 .995 5.172z" class="cls-23"/><path id="path378" fill="#f3f3f4" d="M256.386 99.13l-.005-2.01q-.429-2.416 1.99-2.004l.017.01a5.571 5.571 0 0 1-2.002 4.003z" class="cls-2"/><path id="path382" fill="#e8e9ea" d="M259.381 589.121c-3.225 1.82-5.366-.664-7.578-2.125-16.479-10.88-32.847-21.929-49.325-32.81q-44.44-29.35-89.013-58.498c-4.038-2.631-5.397-5.116-4.175-10.093 3.072-12.506 5.493-25.177 7.914-37.831.507-2.649 1.169-1.448 2.191-.644 2.256.903 2.227 3.14 2.84 4.966 1.535 4.572 2.88 9.209 4.822 13.633 2.022 5.118 3.852 10.325 6.9 14.971 1.747 4.018 3.385 8.093 5.9 11.726a16.171 16.171 0 0 0 2.579 3.75 8.98 8.98 0 0 1 .764 1.033 18.588 18.588 0 0 0 2.276 3.031 8.972 8.972 0 0 1 .76 1.026 20.654 20.654 0 0 0 3.704 4.372 12.292 12.292 0 0 1 1.273 1.561 111.952 111.952 0 0 0 15.034 15.058 12.848 12.848 0 0 1 1.54 1.254 15.732 15.732 0 0 0 3.429 2.776 8.647 8.647 0 0 1 1.04.74 19.012 19.012 0 0 0 3.087 2.293 9.678 9.678 0 0 1 1.088.776c4.307 3.293 8.54 6.702 13.922 8.158a4.901 4.901 0 0 1 1.698 1.08c1.417 1.813 3.46 2.54 5.559 3.173.88.333 1.733.715 2.584 1.115 10.588 5.373 21.962 8.211 33.525 10.45a10.658 10.658 0 0 1 1.532.354c2.95.676 5.924.297 8.893.226 5.014-.06 10.023-.027 15.032.013 5.543-.386 11.12.679 16.641-.427a14.672 14.672 0 0 1 2.552-.453c3.278-.267 6.471-1.088 9.724-1.529 1.798-.244 3.596-.624 5.156.738l.167.186c-.723 3.055-3.495 2.714-5.57 3.055-12.075 1.985-24.15 4.21-36.49 2.365a10.292 10.292 0 0 0-5.319.376 200.883 200.883 0 0 0 11.988 16.282c3.411 4.327 3.682 8.977 1.356 13.873z" class="cls-6"/><path id="path384" fill="#edeeee" d="M259.381 589.121c2.636-11.083-6.415-16.9-11.227-24.574-1.443-2.301-2.78-4.88-6.366-6.423a21.307 21.307 0 0 1 11.674-.824c10.19 1.793 20.045-.433 29.976-1.763 3.368-.451 6.952-.335 9.978-2.367 2.962-.263 2.898 1.033 1.866 3.24-6.17 13.202-12.205 26.467-18.395 39.66-4.494 9.576-7.983 19.62-13.383 28.774-.574.972-1.172 1.93-1.744 2.869-2.01-.796-1.333-2.341-1.343-3.513-.066-7.47-.006-14.94-.058-22.411-.011-1.592.55-3.367-.976-4.668z"/><path id="path386" fill="#fb6533" d="M138.381 378.121c-.444 1.243-.801 2.525-1.35 3.72-1.233 2.68-.718 4.603 1.838 6.33 8.908 6.02 17.47 12.542 27.384 16.993 3.274 1.47 6.099 3.943 9.13 5.957 7.681 4.694 14.452 10.64 21.73 15.888 1.358.98 3.187 2.12 2.14 4.44-1.977 1.146-3.848.018-5.76-.254-3.979-1.263-7.283-3.703-10.614-6.094-7.944-3.81-15.02-9.06-22.247-13.977-7.67-5.217-16.449-8.587-23.574-14.651-2.134-1.817-3.947-1.127-5.171 1.33a33.692 33.692 0 0 0-1.506 3.673c-.876 2.265-2.14 4.353-2.963 6.642-.975 3.718-1.002 7.616-2.167 11.296-1.348 4.587-2.074 9.305-3.061 13.966-.487 2.299-.91 4.75-3.362 5.994-1.793-1.66-.053-3.88-1.56-5.243a.63.63 0 0 1-.013-.707c-1.042-10.65-2.373-21.292-.72-31.994 1.798-4.03 5.705-6.304 8.256-9.812 2.874-3.952 6.407-7.507 9.423-11.443.943-1.23 2.154-2.653 4.167-2.054z"/><path id="path388" fill="#fc8757" d="M117.269 434.131c1.642.873.817 2.669 1.593 4.53 3.413-6.436 2.454-13.596 5.509-19.561 2.64 3.757-.316 7.417-.168 11.125.66 3.34 2.934 5.524 5.518 7.362 10.991 7.813 20.429 17.48 30.745 26.095a186.422 186.422 0 0 1 16.797 16.196c1.132 1.218 3.097 2.279 1.942 4.556-2.145.868-3.946-.354-5.677-1.167-10.672-5.01-21.402-9.92-31.377-16.274-6.558-4.062-12.486-9.003-18.27-12.96.678 3.707 4.718 7.298 2.401 12.31-3.428-6.001-4.478-12.856-6.887-19.223-.244-4.406-2.552-8.474-2.126-12.989z"/><path id="path390" fill="#fb6f45" d="M117.403 400.134c-1.877 7.624-1.181 15.38-.638 23.03a99.601 99.601 0 0 1 .49 10.258c-2.171-8.52-1.79-17.218-1.79-25.89 0-1.803-.01-3.605-.015-5.408l1.795-9.044 1.139.047a7.276 7.276 0 0 1-.981 7.007z" class="cls-29"/><path id="path392" fill="#fb6a30" d="M388.385 411.121l2.989-3.999c3.642 3.095 3.256 7.84 4.557 11.813 2.775 8.475 5.181 17.142 3.587 26.275-1.778 7.167-3.501 14.351-7.07 20.912-6.51 2.694-13.162 1.778-19.746.54-2.666-.5-3.554-2.608-2.9-5.319.348-1.436.85-2.828 1.124-4.271a15.41 15.41 0 0 1 1.44-5.233c6.071-12.663 9.16-26.557 16.08-38.864a1.74 1.74 0 0 0-.061-1.854z"/><path id="path394" fill="#fc6e31" d="M372.382 456.121a14.973 14.973 0 0 1-.288 2.44c-2.01 7.056-1.665 7.514 6.017 7.555 4.779.026 9.558.005 14.337.006-3.012 10.399-8.393 19.534-14.95 28.043-5.253 2.506-10.792 1.545-16.19 1.014-3.445-.338-4.745-3.173-3.895-7.302.841-4.08 2.701-7.854 3.797-11.859 2.507-5.16 4.283-10.655 6.98-15.736.952-1.794 1.459-4.125 4.192-4.16z"/><path id="path396" fill="#fc7332" d="M362.384 475.121c.19 3.92-1.79 7.279-3 10.787-2.282 6.621-1.333 8.199 5.762 8.214q6.176.013 12.352.042c-9.937 14.82-22.011 27.482-37.264 36.938-1.904 1.102-2.399-.265-2.575-1.643a9.97 9.97 0 0 1 1.019-5.326c5.543-12.244 9.7-25.03 14.695-37.485a20.32 20.32 0 0 1 2.397-4.34c1.433-1.396 1.029-3.871 2.895-5.029 1.278-.648 1.808-2.6 3.718-2.158z"/><path id="path398" fill="#fca081" d="M399.518 445.21c-.16-13.242-5.217-25.438-8.144-38.088-1.875-8.924-6.218-16.864-9.977-25.037l-7.07-18.859c-.745-3.433 1.044-3.036 2.81-1.63a25.36 25.36 0 0 1 5.056 6.063c4.461 6.744 9.408 13.156 13.603 20.09.884 1.459 1.581 4.675 4.637 2.26q.437.114.881.192l-.007-.066c2.829 13.914 3.58 27.88 1.042 41.926-2.06 4.143-.939 8.97-2.831 13.149z"/><path id="path400" fill="#fc7d42" d="M332.669 536.228a11.937 11.937 0 0 1-5.236 2.916c-4.877.04-3.116-3.336-2.312-5.327 2.425-6.003 4.057-12.349 6.86-18.132 4.135-8.536 7.327-17.402 10.846-26.168 4.498-11.202 9.757-22.097 13.445-33.626.503-1.572 1.326-3.057 1.221-4.783.5-3.558 2.906-5.847 5.39-8.089 1.288-.699 2.626-1.898 4.056-.535 1.486 1.416.697 3.131.072 4.65-4.115 10.007-8.322 19.976-11.604 30.3-6.275 13.922-11.873 28.125-17.373 42.363-2.075 5.37-5.023 10.485-5.365 16.43z"/><path id="path402" fill="#fc8249" d="M358.365 451.11c1.943 2.18-.524 3.635-1.02 5.323-3.487 11.89-9.6 22.793-13.58 34.432-4.236 12.388-10.903 23.724-14.567 36.295-.78 2.673-2.19 5.157-3.209 7.767-.678 1.739-1.44 3.638 1.444 4.216a13.148 13.148 0 0 1-5.977 3.011c-3.644.889-3.157-1.757-2.484-3.456 1.776-4.488 2.553-9.36 4.632-13.65 8.195-16.914 13.572-34.99 21.71-51.918.988-2.055 2.018-4.272.798-6.668 2.337-6.508 5.997-11.967 12.253-15.353z"/><path id="path404" fill="#fc8750" d="M346.375 466.117c2.908.604 2.059 2.53 1.386 4.23-2.12 5.365-4.013 10.848-6.558 16.008-6.503 13.187-10.186 27.523-16.952 40.636-1.936 3.75-2.574 8.396-4.452 12.42-.75 1.606-.064 2.534 1.657 2.743-1.751 2.226-4.848 1.478-6.87 3.108-3.366-.743-1.986-3.204-1.52-4.933 1.785-6.605 5.06-12.643 7.643-18.943 5.239-12.778 9.923-25.773 15.273-38.505.45-1.074.843-2.2.133-3.343-.064-4.338 3.823-6.379 5.605-9.649 1.483-1.338 2.06-3.806 4.655-3.772z"/><path id="path406" fill="#fc8d57" d="M336.376 479.118c2.772.466 1.814 2.056 1.17 3.667-6.524 16.32-12.9 32.703-19.624 48.941-1.442 3.484-3.328 6.76-4.137 10.508-.271 1.258-.408 2.261.801 3.028l-4.943 1.976c-4.006.826-3.409-1.956-2.565-3.856 2.825-6.365 4.918-13.006 7.715-19.385 4.58-10.439 9.14-20.9 12.842-31.7a5.654 5.654 0 0 0 .097-1.971c1.57-4.744 3.838-8.956 8.644-11.208z"/><path id="path408" fill="#fc925e" d="M328.345 490.103c1.53 4.298-.9 8.105-2.544 11.393-2.571 5.143-4.285 10.604-6.777 15.766-4.063 8.415-7.152 17.298-10.707 25.961-.744 1.813-1.706 3.523 1.325 4.014a11.32 11.32 0 0 1-6.018 1.997c-3.866.695-3.343-1.868-2.536-3.878 2.716-6.762 4.718-13.867 8.248-20.229 2.86-5.155 4.13-10.817 6.478-16.1.44-.992.085-1.517-.718-1.985a2.958 2.958 0 0 1 .619-3.21c3.27-4.103 6.24-8.444 9.74-12.364.757-.848 1.51-1.797 2.89-1.365z" class="cls-45"/><path id="path410" fill="#fc793b" d="M332.669 536.228c-2.805-.292-1.466-2.2-1.047-3.287 4.63-12.01 8.867-24.177 14.277-35.88 3.032-6.557 4.268-13.881 8.484-19.939 3.462.19 2.024 3.317 2.997 4.999-4.681 6.766-6.3 14.786-9.141 22.306-2.956 7.821-6.839 15.275-9.237 23.322-.456 1.527-1.105 2.938 1.233 3.354-1.694 2.93-5.1 3.334-7.566 5.125z"/><path id="path412" fill="#fd9965" d="M315.342 507.104l3.538-1.947c-3.845 7.873-5.443 15.472-9.233 22.379-3.212 5.853-5.192 12.38-7.76 18.59-.767 1.856-.218 2.838 1.736 3.107q-1.67.922-3.342 1.842l-3.715.178c-3.076-.433-1.705-2.574-1.275-3.942a69.886 69.886 0 0 1 4.558-10.938c2.778-5.419 4.095-11.35 5.929-17.095a4.433 4.433 0 0 1 .06-2.088c1.961-3.377 4.71-6.161 7.015-9.286.705-.652 1.427-1.263 2.49-.8z"/><path id="path414" fill="#ececed" d="M402.35 432.061c1.773-14.028.768-27.987-1.042-41.926 2.577 4.081 2.051 8.839 2.553 13.276a88.12 88.12 0 0 1-1.436 30.694l-.076-2.044z" class="cls-5"/><path id="path416" fill="#fc987a" d="M400.433 390.01c-.338 1.197.64 3.021-.973 3.527-1.697.531-1.973-1.424-2.668-2.426-5.38-7.766-10.684-15.584-16.072-23.344-1.32-1.9-2.816-3.685-4.318-5.45-1.553-1.825-1.747-.236-2.075.909-3.288-4.214-3.898-9.75-6.954-14.078l.002-1.011c-.706-1.991-.828-4.183-2.05-5.998l.006.042c.41-2.261-1.146-4.026-1.036-6.497 3.66 4.842 7.55 9.53 10.931 14.561 6.321 9.408 12.382 18.992 19.626 27.738.433.523 1.388 3.334 2.517.268 1.984 3.67 2.61 7.691 3.063 11.758z"/><path id="path418" fill="#fc896d" d="M390.364 358.238c-1.288 2.523-2.336.605-3.01-.343q-12.221-17.189-24.303-34.477c-2.272-3.24-4.439-6.555-6.683-9.815-1.94-2.819-.37-3.455 2.15-3.541 3.766 1.558 6.563 4.333 9.064 7.408 9.02 11.094 16.348 23.156 20.897 36.8a34.832 34.832 0 0 0 1.885 3.968z"/><path id="path420" fill="#fc745c" d="M333.391 246.144q.422-.16.853-.299a33.154 33.154 0 0 1 5.322 6.99c2.447 4.192 5.271 7.761 10.026 9.387-3.45 1.996-6.767.307-10.12-.37-5.232-3.996-7.299-9.216-6.081-15.708z"/><path id="path422" fill="#fc6b52" d="M349.592 262.222c-4.429.524-7.35-1.513-8.898-5.513-1.548-3.999-6.236-6.099-6.45-10.863.749-2.768 2.147-4.977 5.057-5.887-1.214 2.443 1.487 2.963 2.292 4.352 2.729 4.71 5.863 9.182 8.755 13.8a3.793 3.793 0 0 0 3.158 2.064 5.05 5.05 0 0 1-3.914 2.047z" class="cls-51"/><path id="path424" fill="#f5f6f6" d="M197.382 42.121c4.032 3.294 8.642 5.895 11.995 10.003-.592 1.613-.28 3.299-.316 4.94-.63 28.544-1.627 57.085-1.064 85.644a5.11 5.11 0 0 0 .385 2.413q-5.69 5.923-11.386 11.84a2.477 2.477 0 0 1-3.127.768c-.997-.527-1.157-1.358-1.064-2.5 1.296-15.928-.134-31.906.67-47.825 1.008-19.921.844-39.839.925-59.763.009-2.312-.098-4.81 2.982-5.52z"/><path id="path426" fill="#fafafa" d="M258.37 95.116l-1.989 2.003q-14.417 14.17-28.844 28.33c-1.656 1.62-3.433 3.119-5.155 4.674-2.2-.999-2.482-3.053-2.472-5.033.098-18.04-.992-36.106 1.024-54.105.345-3.082.952-6.246 5.443-4.862 5.716 4.27 10.65 9.562 17.001 13.001 2.544 3.988 6.763 6.099 10.197 9.089 2.184 1.901 5.057 3.309 4.795 6.903z"/><path id="path428" fill="#f7f8f8" d="M226.377 66.123c-2.69.313-3.823 1.582-4.078 4.522-1.568 18.048-.662 36.123-.926 54.183a9.533 9.533 0 0 0 1.01 5.295c-3.29 6.285-10.085 9.298-14 14.998-2.463-.351-1.986-2.272-1.987-3.852-.02-18.25-.637-36.53.24-54.737.477-9.927.417-19.835.731-29.747.059-1.856-.08-3.718 2.01-4.66l12.005 8.997c.81 2.52 3.962 2.703 4.995 5.001z"/><path id="path430" fill="#fd9d6c" d="M306.322 519.094c3.105.69.757 2.296.382 3.235-3.335 8.349-6.86 16.622-10.169 24.98-.45 1.135-1.895 2.664.03 3.943a3.588 3.588 0 0 1-3.083.91c-3.476 1.231-4.038-.41-3.422-3.385.877-4.236 3.987-7.522 4.906-11.74.34-1.565 1.424-2.996.77-4.722a5.118 5.118 0 0 1-.107-2.116c.855-2.234 2.92-3.57 4.123-5.55 2.377-1.627 2.775-5.607 6.57-5.555z"/><path id="path432" fill="#fda373" d="M296.344 532.102c1.996.254 1.77 1.052 1.027 2.645-2.176 4.665-4.019 9.485-6.085 14.203-1.048 2.395-.31 3.352 2.196 3.212q-.132.407-.232.823-7.433 1.035-14.865 2.073c-.728-1.75.468-3.027 1.084-4.45a6.01 6.01 0 0 1 .832-1.074 50.414 50.414 0 0 0 6.45-7.627c1.452-1.706 2.786-3.5 4.061-5.343 1.781-1.563 2.25-4.763 5.532-4.462z"/><path id="path434" fill="#fb662f" d="M199.383 431.121c-5.011-5.991-12.028-9.495-17.96-14.35-2.163-1.77-4.5-3.25-6.04-5.65 70.656 2.279 141.333.371 211.998 1 .527 2.88-1.653 4.44-3.162 6.258a86.531 86.531 0 0 0-7.214 9.3c-2.72 4.19-6.274 7.727-9.163 11.787a7.597 7.597 0 0 1-5.042 2.956 32.521 32.521 0 0 1-5.494.258c-42.141.012-84.282-.102-126.423.075-12.103.05-22.23-4.43-31.5-11.634z"/><path id="path436" fill="#fb6e37" d="M376.381 427.12c2.451-5.891 8.071-9.458 11-14.999l1.004-1c3.329.68 1.182 2.478.589 3.629-6.842 13.269-10.855 27.665-16.592 41.371-3.498 4.062-4.999 9.116-7.018 13.928-.751 1.788-1.362 3.753-2.98 5.072l-3.002 2.999c-1.12-5.191 1.474-9.649 3.283-14.059 4.017-9.791 8.101-19.557 11.903-29.434.918-2.384 2.563-4.684 1.813-7.507z"/><path id="path438" fill="#fb6a3c" d="M117.403 400.134c.046-2.375-.384-4.817.981-7.007q.006-.496.027-.992a3.454 3.454 0 0 0 2.98-1.576c4.455-7.224 11.476-12.4 15.58-19.993 1.458-2.696 4.881-4.328 7.407-6.446l-5.997 14.001c-5.623 4.09-8.647 10.424-13.272 15.377-2.327 2.494-4.035 5.704-7.706 6.636z"/><path id="path440" fill="#fc6b52" d="M351.392 239.116l-7 .026-5.141.872c1.624-2.576 4.77-1.418 6.88-2.805 1.532 1.183 3.84-.632 5.169 1.339a3.872 3.872 0 0 0 .092.568z" class="cls-51"/><path id="path442" fill="#e5e6e7" d="M351.3 238.548l-5.167-1.34c1.777.233 3.953-1.072 5.167 1.34z" class="cls-1"/><path id="path444" fill="#fc9174" d="M365.326 342.14c2.054 1.53 2.131 3.736 2.05 5.997a10.74 10.74 0 0 1-2.05-5.998z" class="cls-28"/><path id="path446" fill="#fc844f" d="M126.282 466.344c.034-4.735-2.912-8.71-3.574-13.916 7.4 3.896 13.367 9.048 19.675 13.694 11.931 9.822 24.545 18.821 35.716 29.558 1.544 1.484 3.276 2.87 3.925 5.069.263 3.344 4.042 7-.854 9.905-2.17.46-3.886-.699-5.567-1.716-6.25-3.784-12.684-7.31-18.07-12.358a12.794 12.794 0 0 0-4.304-2.442c-4.854-3.748-9.998-7.085-15.107-10.474-1.523-1.011-2.97-2.145-4.88-2.329-3.402-4.494-5.388-9.647-6.96-14.991z"/><path id="path448" fill="#fc8246" d="M133.242 481.335c1.209-1.75 2.452-1.17 3.745-.088 5.185 4.344 11.585 7.012 16.396 11.875 5.367 4.695 10.22 9.92 15.542 14.69 10.257 9.19 20.21 18.756 29.728 28.742.46.482.946.94 1.387 1.438 1.12 1.268 2.47 2.757 1.642 4.405-1.06 2.113-2.907.336-4.415.257-2.285-.136-4.087-1.353-5.864-2.623l-.986-.923c-5.593-2.055-10.31-5.55-14.99-9.107l.061.044a27.013 27.013 0 0 1-4.065-3.036l.059.043c-1.531-.764-2.677-2.062-4.107-2.966l-1.04-.965a166.434 166.434 0 0 1-15.952-15.978l-.958-1.012c-1.102-1.877-3.027-3.117-3.96-5.125l.048.065a25.47 25.47 0 0 1-3.06-4.051l.044.059c-1.069-1.305-2.168-2.587-3.115-3.987a37.808 37.808 0 0 1-6.14-11.757z"/><path id="path450" fill="#fc8548" d="M197.27 542.167l3.809.25c-.469-3.705-3.496-5.555-5.675-7.61-11.874-11.195-23.02-23.169-35.849-33.365-2.611-2.076-4.143-5.511-6.172-8.32 2.455.252 4.08 1.859 5.897 3.327 6.78 5.484 13.85 10.548 22.102 13.672a154.939 154.939 0 0 1 23.637 18.909c6.003 5.96 13.097 10.748 19.985 15.695 2.44 1.752 5.034 3.331 6.722 5.887 1.51 2.286.721 3.405-1.98 3.255a124.386 124.386 0 0 1-30.39-9.822l-2.017-.923q-.465-.287-.34-.616.127-.34.271-.34z"/><path id="path452" fill="#fc9761" d="M280.381 551.121l-1.996 3.938-1.835.127c-3.795 1.132-7.042.215-10.186-2.18-14.929-11.375-31.246-20.638-47.016-30.735a8.208 8.208 0 0 0-5.118-1.608c-4.891-3.478-8.686-7.79-10.364-13.705 2.615-3.573 5.206-.897 7.323.398q12.142 7.423 24.012 15.293c12.061 8.028 25.159 14.367 37.103 22.596 2.743 1.89 5.526 3.723 8.077 5.876z"/><path id="path454" fill="#fd9b66" d="M214.382 520.121c2.362-2.183 3.942.072 5.59 1.114 16.829 10.636 34.102 20.602 49.877 32.834 2.107 1.634 4.47.74 6.7 1.116-5.627 1.841-11.424.838-17.15 1.015-9.916-5.98-18.966-13.257-28.852-19.283-1.692-1.031-3.33-2.197-5.434-2.234-4.714-2.543-6.89-7.402-10.23-11.208-.533-1.062-1.215-2.106-.501-3.354z"/><path id="path456" fill="#fd9f6c" d="M225.374 534.137a1.422 1.422 0 0 1 2.132-.436c10.722 6.274 20.723 13.616 30.776 20.876a5.995 5.995 0 0 1 1.117 1.622l-15.929-.115c-2.91-1.344-6.182.454-9.075-1.042l.071.022a.824.824 0 0 1-.299-.79c.062-.28.133-.421.209-.423 1.585-.837 2.879-1.555 1.147-3.662-2.96-3.6-5.688-7.393-8.425-11.17-1.038-1.432-2.549-2.764-1.724-4.882z"/><path id="path458" fill="#e5e6e7" d="M234.227 554.22a6.168 6.168 0 0 1 .239.845c-12.34-1.644-24.321-4.432-35.11-11.02 8.934 3.001 17.64 6.707 26.893 8.714a38.166 38.166 0 0 0 3.913.45c1.188 1.009 3.01-.53 4.065 1.012z" class="cls-1"/><path id="path460" fill="#e5e6e7" d="M150.383 507.143l15.952 15.978a51.326 51.326 0 0 1-15.952-15.978z" class="cls-1"/><path id="path462" fill="#e5e6e7" d="M175.427 530l14.99 9.108c-6.21-1.04-10.84-4.677-14.99-9.107z" class="cls-1"/><path id="path464" fill="#e5e6e7" d="M234.395 555.042c3.025.347 6.178-.425 9.074 1.043-3.019-.394-6.255 1.102-9.074-1.043z" class="cls-1"/><path id="path466" fill="#e5e6e7" d="M197.27 542.167a1.301 1.301 0 0 1 .07.955c-2.481-.067-4.693-.65-5.937-3.091l5.867 2.136z" class="cls-1"/><path id="path468" fill="#e5e6e7" d="M145.465 501.006c1.777 1.356 3.51 2.745 3.96 5.125-1.888-1.27-3.907-2.437-3.96-5.125z" class="cls-1"/><path id="path470" fill="#e5e6e7" d="M171.423 527.009a6.553 6.553 0 0 1 4.065 3.037c-2.149.05-3.266-1.28-4.065-3.037z" class="cls-1"/><path id="path472" fill="#e5e6e7" d="M167.375 524.086c1.979.144 3.083 1.499 4.106 2.966-2.132.068-3.209-1.325-4.106-2.966z" class="cls-1"/><path id="path474" fill="#e5e6e7" d="M142.453 497.02a6.554 6.554 0 0 1 3.059 4.05c-1.781-.774-3.093-1.904-3.059-4.05z" class="cls-1"/><path id="path476" fill="#e5e6e7" d="M139.382 493.092a5.549 5.549 0 0 1 3.114 3.987c-1.758-.766-3.012-1.927-3.114-3.987z" class="cls-1"/><path id="path478" fill="#fb6b30" d="M199.383 431.121c3.794 1.639 8.043 2.66 11.281 5.051 5.769 4.26 12.209 4.893 18.821 4.905q67.451.127 134.902.047c.612 1.319-.545 2.04-1.012 2.993-2.09 2.03-4.184 4.057-5.01 6.993-4.587 4.53-8.297 9.762-11.99 15.007-1.449 1.212-2.026 3.284-3.964 4.013-1.201 1.92-3.132 1.55-4.927 1.54-22.75-.124-45.508-.39-68.245.129-9.354.213-17.22-2.584-24.782-7.354a58.156 58.156 0 0 0-8.168-4.72c-3.255-.995-5.705-3.334-8.488-5.132-10.183-6.577-19.754-14.088-30.464-19.875-1.754-.948-3.95-1.947-3.954-4.597l6 1z"/><path id="path480" fill="#fc8a60" d="M122.39 431.119c.801-3.983 2.155-7.875 1.981-12.019.655-3.976.563-8.08 2.047-11.914 3.407-1.331 3.71 2.217 5.477 3.467 3.902 5.524 8.485 10.538 12.223 16.19 5.119 7.14 10.998 13.702 15.92 20.993 1.492 2.915 4.67 4.886 4.81 8.562-2.408 3.144-4.903 1.048-6.872-.287-10.635-7.208-22.058-13.298-31.626-22.032a37.16 37.16 0 0 0-3.96-2.96z"/><path id="path482" fill="#fb6e36" d="M193.383 430.121l42 28c8.893 6.123 18.484 11.22 26.827 18.144 1.918 1.591 4.752 2.72 4.09 6.104-5.194-.092-8.984-3.655-13.424-5.576-4.374-1.891-8.355-4.658-12.757-6.563-13.789-6.421-25.862-15.636-38.602-23.764-1.82-1.161-3.544-2.477-5.43-3.546-4.402-3.361-9.737-5.232-14.037-8.762.085-2.757 1.192-5.49-.062-8.296-.34-.761-.245-2.1 1.393-1.74z"/><path id="path484" fill="#fb7140" d="M182.382 434.12a40.519 40.519 0 0 1 14 8.002c-.306 2.562 4.299 5.895-1.202 7.65a11.719 11.719 0 0 1-6.788-2.888c-11.587-9.087-25.158-14.947-37.362-23.041-6.5-4.311-12.614-9.242-19.659-12.715-2.239-.577-2.38-3.787-4.953-3.943l2.967-6.061c2.05-1.69 3.744-.1 5.519.614 8.755 3.52 15.732 9.935 23.705 14.743 6.527 3.935 12.927 8.182 19.213 12.547 1.941 1.348 3.814 2.7 4.56 5.092z"/><path id="path486" fill="#fb6b3a" d="M182.382 434.12c-8.988-6.961-18.752-12.754-28.285-18.902-7.06-4.553-13.621-9.883-21.398-13.301a7.96 7.96 0 0 0-3.314-.793 17.727 17.727 0 0 1 .711-2.362c2.872-6.31 3.454-6.09 9.207-2.35 14.547 9.46 29.367 18.5 44.078 27.71-.229 3.343 2.215 6.953-.999 9.998z"/><path id="path488" fill="#fc8b59" d="M122.39 431.119c2.995.309 5.326 2.156 7.317 4.004 8.706 8.084 19.48 13.124 28.985 20.018 1.453 1.054 3.378 3.235 5.693.978 2.49-.557 3.676 1.365 4.775 2.87a32.5 32.5 0 0 0 9.05 8.457c7.664 6.89 16.264 12.566 24.51 18.686 13.301 9.875 27.343 18.722 40.506 28.8 1.458 1.117 3.775 1.753 3.12 4.416-2.638 1.109-4.295-.936-6.286-1.94-12.219-6.165-23.46-14.063-35.717-20.148a35.677 35.677 0 0 1-7.225-3.897c-1.539-1.063-3.097-1.757-4.93-.708-5.534-.945-9.527-4.204-12.806-8.534-3.344-4.118-7.723-7.256-11.229-11.086-7.173-7.839-15.703-14.025-23.416-21.17a123.643 123.643 0 0 0-13.573-11.518 32.403 32.403 0 0 1-8.774-9.228z"/><path id="path490" fill="#fc8953" d="M179.382 484.121c4.567 2.286 7.824 6.703 13 8a42.687 42.687 0 0 1 11.998 15.002c2.571 4.92 6.247 8.99 10.002 12.998l1.01 2.998c-2 .813-3.625-.332-5.085-1.278q-13.567-8.796-26.89-17.964a5.572 5.572 0 0 1-2.035-2.756c-8.788-10.488-20.057-18.152-30.552-26.682a49.5 49.5 0 0 1-8.447-8.317c8.951 4.645 17.86 9.372 26.875 13.89 3.245 1.628 6.742 2.754 10.124 4.11z"/><path id="path492" fill="#fb743e" d="M363.375 444.117l1.012-2.993 11.994-14.004c1.486-.643 3.104-1.707 1.825 1.437-4.73 11.634-9.435 23.281-13.974 34.991-1.848 4.768-3.247 9.71-4.85 14.572-2.232.55-1.035 2.817-2.002 4-1.586-1.314-1.09-3.876-2.997-4.998 2.859-10.401 7.212-20.233 11.423-30.122.543-1.277 1.831-2.839.51-4.06-1.11-1.025-1.815 1.053-2.941 1.177z"/><path id="path494" fill="#fc7031" d="M266.382 482.121c-5.478-6.541-12.836-10.66-19.731-15.39-3.896-2.674-8.235-4.798-11.268-8.61 5.554 1.147 9.501 5.287 14.324 7.813a36.5 36.5 0 0 0 18.044 4.298c22.268-.29 44.541-.061 66.811-.177 2.62-.014 5.232 1 7.85.075-1.015 3.666-4.585 5.616-6.036 8.988-2.86 3.528-5.898 6.925-8.03 10.985-4.75 5.35-9.393 10.78-13.003 17l-1.912 1.032c-1.262 2.018-3.014 1.94-4.724.85-13.693-8.724-28.241-16.03-41.678-25.176a1.406 1.406 0 0 1-.647-1.688z"/><path id="path496" fill="#fc7b3f" d="M306.322 519.094c-2.808 1.197-3.089 4.87-5.92 6.046-3.549-.7-5.878-3.458-8.643-5.377-8.845-6.141-17.996-11.816-26.927-17.824-6.152-4.14-13.08-7.13-19.213-11.377-6.66-4.61-13.77-8.579-19.94-13.896-2.532-4.863-7.213-7.472-11.227-10.8-1.88-1.56-4.7-2.658-3.96-6.01 1.444-.703 2.516.162 3.672.82 21.026 11.994 41.176 25.463 62.322 37.237 8.106 4.513 15.14 10.784 23.877 14.193 2.371 1.254 4.783 2.465 6.056 5.04z"/><path id="path498" fill="#fc7536" d="M306.419 517.146l-6.039-4.026c-3.274-1.358-5.733-3.94-8.688-5.79-14.93-9.351-29.734-18.92-43.529-29.89-2.87-2.282-7.228-3.679-7.78-8.318l26 13q20.812 12.55 41.611 25.122c1.749 1.061 3.344 2.275 5.436.891a26.137 26.137 0 0 1-7.011 9.011z"/><path id="path500" fill="#fc8046" d="M226.382 476.121c10.464 6.884 20.59 14.37 31.478 20.499 13.393 7.538 25.613 16.77 38.589 24.878a26.12 26.12 0 0 1 3.953 3.642c-.72 2.159-2.325 3.605-4.013 4.984-2.205 1.47-3.859-.122-5.403-1.191-14.38-9.957-29.739-18.406-43.975-28.577-1.91-1.365-4.155-2.124-6.035-3.523-11.073-9.253-22.321-18.305-34.006-26.762-3.573-2.587-7.683-4.508-11.028-7.496-1.125-1.005-3.21-1.454-2.496-3.724a3.926 3.926 0 0 1 4.632.417c7.134 5.111 15.675 7.64 22.892 12.606a32.816 32.816 0 0 1 5.412 4.247z"/><path id="path502" fill="#fc864d" d="M241.382 496.12c7.389 2.743 13.021 8.316 19.666 12.283 10.622 6.34 20.84 13.357 31.271 20.022a24.857 24.857 0 0 0 4.07 1.699l-.045 1.979c-2.467.87-2.686 3.956-4.953 5.023-1.503 1.152-2.926.42-4.154-.392-15.396-10.185-31.559-19.183-46.532-30.026a31.068 31.068 0 0 0-10.563-8.78c-7.649-4.222-12.748-11.406-19.567-16.583-.985-.748-1.92-1.914-1.17-3.447 4.937-.135 8.95 2.833 12.486 5.266 6.429 4.425 13.628 7.709 19.49 12.956z"/><path id="path504" fill="#fc8b54" d="M241.382 506.12c11.312 7.184 22.498 14.579 33.992 21.458 5.33 3.19 9.941 7.616 16.016 9.548-.946 1.973-1.844 3.984-3.987 5.003-1.466 2.379-3.331 1.645-5.175.613a56.332 56.332 0 0 1-6.308-4.028c-7.353-5.52-15.954-8.884-23.592-13.89-2.314-1.516-5.122-2.6-5.946-5.703-4.143-3.226-8.171-6.613-12.45-9.648-11.012-7.811-22.327-15.21-33.151-23.27-7.898-5.883-16.36-11.076-23.398-18.08 2.09-1.716 3.784-.239 5.378.82 14.222 9.448 29.125 17.792 43.544 26.922 5.142 3.256 11.007 5.427 15.077 10.255z"/><path id="path506" fill="#fc915a" d="M246.382 519.121a115.943 115.943 0 0 0 19.03 11.364c5.943 2.664 11.106 7.075 16.592 10.75 1.689 1.131 3.313 2.31 5.399.894-1.564 3.345-3.39 6.458-7.01 8-3.576.505-5.058-2.75-7.448-4.286-9.746-6.264-19.003-13.208-28.979-19.213-10.174-6.124-19.3-14.027-29.08-20.887-2.582-1.812-5.248-3.505-7.773-5.392-1.392-1.04-3.291-1.876-2.73-4.229a75.718 75.718 0 0 1 13.9 7.366c8.793 6.224 18.72 10.442 28.099 15.633z"/><path id="path508" fill="#fc925e" d="M204.383 496.122c2.69 4.02 7.29 5.57 10.938 8.343 8.797 6.684 17.444 13.802 26.817 19.432 13.327 8.006 25.469 17.548 38.254 26.231l-.011.993a5.25 5.25 0 0 1-3.673-1.155c-9.642-7.62-20.487-13.393-31.043-19.534-11.56-6.724-22.358-14.601-33.891-21.322-2.195-1.28-4.203-4.088-7.394-1.987a154.813 154.813 0 0 1-11.998-15.002c.51-2.707 1.895-2.011 3.53-.998 2.787 1.726 5.644 3.339 8.47 5z" class="cls-45"/><path id="path510" fill="#fc884d" d="M181.382 501.121c11.42 7.204 22 15.705 34.01 21.998 4.143 2.933 5.84 8.082 9.982 11.018 3.091 5.674 7.66 10.29 11.199 15.644.778 1.177 2.944 1.926 2.19 3.5-.828 1.729-3.03.41-4.535.94-1.426-.055-2.892.056-4.065-1.013.682-.216 2.078-.157 1.29-1.303a13.049 13.049 0 0 0-3.828-3.885 107.134 107.134 0 0 1-19.744-14.984c-8.455-8.144-18.371-14.483-26.499-22.915 3.386-3-.922-6 0-9z"/><path id="path512" fill="#fb7744" d="M226.382 476.121c-9.055-4.91-18.142-9.764-27.14-14.778-1.883-1.05-3.56-2.375-5.86-2.22a130.706 130.706 0 0 1-15.239-9.243c-9.365-6.595-19.594-11.762-29.268-17.843a15.794 15.794 0 0 1-5.497-4.914c-4.19-5.19-8.81-10.058-12.007-15.995 3.038-.188 5.657 1.329 7.753 2.994 15.594 12.39 34.308 19.84 50.12 31.867 1.799 1.369 4.08 2.103 6.138 3.132 5.773 2.613 11.098 5.837 15 11 3.14 5.027 9.004 6.97 12.774 11.28 1.26 1.443 3.194 2.435 3.226 4.72z"/><path id="path514" fill="#fb7e4b" d="M143.378 427.123c8.43 5.042 17.054 9.789 25.233 15.207 8.312 5.506 17.367 9.946 24.772 16.792 14.866 10.042 28.943 21.145 43.16 32.06a18.136 18.136 0 0 1 4.839 4.938c-6.258-3.578-12.738-6.715-18.654-10.956-4.05-2.903-8.87-4.732-13.346-7.042-3.412.418-5.276-2.362-7.775-3.802-11.342-6.533-21.954-14.256-33.44-20.559-3.057-1.677-5.908-3.68-8.784-5.64-5.602-6.795-11.38-13.458-16.005-20.998z"/><path id="path516" fill="#fc8451" d="M159.383 448.121c6.242 1.318 11.48 5.003 16.412 8.489 10.886 7.696 23.038 13.35 33.587 21.512 7.084 6.58 13.432 13.973 21.885 19.026 3.881 2.32 7.926 4.654 10.115 8.972-11.88-7.102-23.8-14.138-35.626-21.33-7.739-4.708-15.322-9.671-23.015-14.453-1.64-1.02-3.096-2.639-5.358-2.215-5.988-2.209-7.898-8.834-12.998-12.003-1.306-2.892-4.309-4.723-5.002-7.998z"/><path id="path518" fill="#fc753c" d="M210.383 460.121l-15-11c1.778-.893 2.543-2.164.775-3.636-1.674-1.394-.87-2.314.224-3.363 4.4 1.244 7.495 4.643 11.247 6.948 10.906 6.703 21.082 14.592 32.754 20.052 4.03 4.367 8.962 7.632 13.674 11.163 7 5.245 13.518 11.428 21.174 15.423 8.474 4.422 15.863 10.125 23.497 15.617a11.844 11.844 0 0 1 1.652 1.795c-4.854-.513-8.588-3.75-12.116-6.334-9.77-7.159-20.893-11.906-30.92-18.566-9.6-6.378-19.6-12.159-29.491-18.09-5.755-3.45-11.642-6.68-17.47-10.009z"/></g><g id="g5181" transform="translate(-258.762 561.2) scale(.53724)"><path id="path38" fill="#5b5348" d="M882.246 218.537l1.68 2.701c5.878 7.361 5.54 18.898-.814 27.755l.08-.104c-8.718 13.27-27.748 15.17-39.67 3.96l.135.13a24.325 24.325 0 0 1-3.275-3.796l-1.867-3.033a21.056 21.056 0 0 1-2.005-5.49l.149-.281-.21-.24a26.956 26.956 0 0 1 0-12.034c.607-3.856 2.632-7.015 4.933-10.039a23.5 23.5 0 0 1 4.835-4.946l8.158-3.967c1.985-1.237 4.348.115 6.36-.93l2.218.007c1.947 1.2 4.578-.744 6.325 1.375l7.766 3.636a9.283 9.283 0 0 1 5.202 5.296z" class="cls-13"/><path id="path60" fill="#fcfcfc" d="M1106.246 435.576c-5.096-7.259-7.42-15.513-8.913-24.127-.654-3.773.837-4.495 4.246-4.473 19.166.125 38.333.06 57.5.06 26.999 0 54-.09 80.998.093 4.206.029 5.382-1.336 5.449-5.37a116.225 116.225 0 0 0-11.277-52.79c-.425-.89-.716-1.842-1.07-2.766 4.156 2.719 4.61 7.519 6.145 11.56a116.25 116.25 0 0 1 7.201 44.919c-.12 4.45-1.311 5.553-5.664 5.538-45.157-.155-90.315-.096-135.473-.095-7.907 0-7.734-.034-6.081 7.816 1.447 6.881 5.202 12.89 6.939 19.635z" class="cls-19"/><path id="path62" fill="#fcfcfc" d="M1892.233 427.302c-9.71-18.07-9.5-50.565 9.572-72.019 19.36-21.78 55.44-26.418 79.2-9.594a28.793 28.793 0 0 1 2.558 2.299c-6.318-2.404-11.744-6.534-18.353-8.558-34.529-10.579-69.773 10.29-76.713 45.81-2.415 12.356-2.085 24.771 2.677 36.758.655 1.647 1.551 3.372 1.06 5.304z" class="cls-19"/><path id="path64" fill="#fcfcfc" d="M983.111 359.984c14.393-17.358 32.255-26.758 55.354-24.058 6.235.73 6.193.788 6.937-5.599.904-7.76 1.936-15.504 2.78-23.27.28-2.588 1.23-5.242-.107-7.83 1.745-.067 2.446.877 2.2 2.486-1.662 10.906-3.157 21.829-4.02 32.837-.212 2.724-1.682 3.779-4.824 3.207a55.008 55.008 0 0 0-21.488.011c-12.953 2.756-23.265 9.955-32.617 18.885-1.292 1.234-2.248 2.935-4.215 3.331z" class="cls-19"/><path id="path66" fill="#fcfcfc" d="M1323.152 358.015c8.063-11.783 19.83-17.99 33.262-20.976 17.123-3.806 33.332-1.124 48.01 8.941a19.112 19.112 0 0 1 2.144 2.002c-6.06-2.146-11.081-6.307-17.402-8.173-23.357-6.895-43.754-2.223-61.456 14.461-1.428 1.346-2.479 3.182-4.558 3.745z" class="cls-19"/><path id="path68" fill="#fcfcfc" d="M1315.238 427.298c-11.152-19.632-7.202-53.93 7.99-69.38-1.62 5.972-6.34 10.231-8.473 16.072-5.545 15.18-6.17 30.277-1.387 45.672.775 2.497 2.258 4.846 1.87 7.636z" class="cls-19"/><path id="path70" fill="#fcfcfc" d="M843.523 252.848c7.974 6.11 16.706 8.446 26.562 5.437 5.444-1.662 9.415-5.321 13.108-9.395-.671 4.541-4.49 6.36-7.713 8.465-9.845 6.43-26.46 3.978-31.957-4.507z" class="cls-19"/><path id="path72" fill="#fcfcfc" d="M2017.142 350.926c2.172-2.94 5.135-5.07 8.024-7.135 3.49-2.497 4.02-4.704.8-7.716a31.812 31.812 0 0 1-3.043-3.835c1.458.112 2.27 1.21 3.191 2.12 4.904 4.85 4.997 7.142-.724 10.933-2.773 1.837-4.268 5.621-8.248 5.633z" class="cls-19"/><path id="path74" fill="#fcfcfc" d="M1420.508 360.946c2.239 3.322 4.285 2.67 7.02.244 4.079-3.618 7.982-7.508 12.718-10.338-3.62 5.994-9.664 9.406-14.97 13.481-2.788 2.142-4.33-.566-4.768-3.387z" class="cls-19"/><path id="path76" fill="#fcfcfc" d="M1997.382 361.098c2.501 3.066 4.592 2.512 7.377-.073 3.923-3.64 7.819-7.408 12.485-10.176-3.749 6.057-9.838 9.61-15.315 13.678-2.35 1.746-4-.92-4.547-3.429z" class="cls-19"/><path id="path78" fill="#fcfcfc" d="M883.112 248.993c5.281-9.104 6.111-18.34.815-27.754.316.089.728.08.934.28 5.866 5.753 4.816 22.08-1.749 27.474z" class="cls-19"/><path id="path80" fill="#fcfcfc" d="M1531.487 320.104c-.144 1.419-.752 2.427-2.87 2.768 0-5.373.022-10.602-.012-15.83-.012-1.765.469-3.746-1.64-4.82 2.833-.026 2.396 2.071 2.411 3.803.035 4.077.045 8.155-.01 12.232-.019 1.555.144 2.68 2.117 1.847z" class="cls-19"/><path id="path82" fill="#fcfcfc" d="M1270.416 386.113l.054 26.03c-2.057-2.092-1.13-4.737-1.01-7.058.332-6.323-1.304-12.754.956-18.972z" class="cls-19"/><path id="path84" fill="#fcfcfc" d="M1847.408 386.115c-.397 8.676-.357 17.351.053 26.026-2.14-2.445-1.106-5.404-.989-8.048.266-5.992-1.337-12.098.936-17.978z" class="cls-19"/><path id="path86" fill="#fcfcfc" d="M1440.145 350.93c2.561-3.267 6.092-5.455 9.145-8.174 1.409-1.255 2.808-2.352 1.82-4.503 1.458.4 2.846 1.382 1.615 2.75-3.602 4.003-7.32 7.977-12.58 9.926z" class="cls-19"/><path id="path88" fill="#fcfcfc" d="M1222.275 330.275l-12.23-12.033a24.115 24.115 0 0 1 12.23 12.033z" class="cls-19"/><path id="path90" fill="#fcfcfc" d="M1769.843 302.24c-2.632 2.818-.985 6.264-1.317 9.408a69.826 69.826 0 0 0-.05 7.24c-2.466-.105-3.412-1.483-4.507-2.63 2.17.317 3.804.24 3.468-2.818a75.188 75.188 0 0 1-.058-7.888c-.01-1.73.012-3.42 2.464-3.312z" class="cls-19"/><path id="path92" fill="#fcfcfc" d="M978.306 321.099c-.018.727-.315 1.442-1.033 1.476-1.274.06-.987-1.06-.993-1.783-.038-4.491-.008-8.983-.03-13.475-.009-1.795.372-3.713-1.33-5.074 3.277.026 2.27 2.523 2.459 4.304.514 4.837-1.036 9.806.927 14.552z" class="cls-19"/><path id="path96" fill="#fcfcfc" d="M1059.41 388.114v21.014a44.617 44.617 0 0 1 0-21.014z" class="cls-19"/><path id="path98" fill="#fcfcfc" d="M1646.198 321.12a64.56 64.56 0 0 1-9.816 9.9 22.002 22.002 0 0 1 9.816-9.9z" class="cls-19"/><path id="path100" fill="#fcfcfc" d="M1215.264 439.58c-4.3 1.229-5.496 6.498-9.891 7.603 1.941-3.114 4.915-5.265 7.388-7.883.825-.874 1.88-1.665 2.503.28z" class="cls-19"/><path id="path102" fill="#fcfcfc" d="M1411.498 351.879a26.337 26.337 0 0 1 9.08 9.158 30.045 30.045 0 0 1-9.08-9.158z" class="cls-19"/><path id="path108" fill="#fcfcfc" d="M1988.493 351.885c3.34 2.104 6.372 4.508 8.018 8.257a26.891 26.891 0 0 1-8.018-8.257z" class="cls-19"/><path id="path110" fill="#fcfcfc" d="M1092.24 320.12a39.792 39.792 0 0 1-7.86 7.836 14.066 14.066 0 0 1 7.86-7.836z" class="cls-19"/><path id="path114" fill="#fcfcfc" d="M1723.36 299.208c-4.485-.019-8.988.213-13.39-.984 4.46.347 9.066-1.242 13.39.984z" class="cls-19"/><path id="path118" fill="#fcfcfc" d="M1706.798 298.225c-4.077 1.191-8.26.988-12.431.959 3.993-2.269 8.29-.592 12.43-.96z" class="cls-19"/><path id="path120" fill="#fcfcfc" d="M1600.361 299.206c-4.155-.033-8.333.228-12.398-.981 4.126.386 8.423-1.344 12.398.981z" class="cls-19"/><path id="path122" fill="#fcfcfc" d="M1945.749 298.22c-4.067 1.064-8.23.841-12.37.914 3.986-2.164 8.25-.564 12.37-.914z" class="cls-19"/><path id="path124" fill="#fcfcfc" d="M836.449 228.105v12.034a14.744 14.744 0 0 1 0-12.034z" class="cls-19"/><path id="path126" fill="#fcfcfc" d="M1368.749 298.22c-4.067 1.064-8.23.841-12.37.916 3.985-2.17 8.25-.565 12.37-.916z" class="cls-19"/><path id="path128" fill="#fcfcfc" d="M1047.384 299.127c-4.147.096-8.295.206-12.355-.908 4.114.348 8.371-1.238 12.355.908z" class="cls-19"/><path id="path130" fill="#fcfcfc" d="M1032.737 298.22c-3.724 1.082-7.556.876-11.365.94 3.64-2.1 7.574-.664 11.365-.94z" class="cls-19"/><path id="path132" fill="#fcfcfc" d="M1150.823 298.224c-3.753 1.092-7.617.86-11.454.95 3.668-2.128 7.633-.674 11.454-.95z" class="cls-19"/><path id="path134" fill="#fcfcfc" d="M1166.396 299.177c-3.828-.09-7.681.13-11.429-.953 3.811.278 7.77-1.182 11.43.953z" class="cls-19"/><path id="path136" fill="#fcfcfc" d="M1273.38 427.321a22.224 22.224 0 0 1 2.988 8.797 12.8 12.8 0 0 1-2.987-8.797z" class="cls-19"/><path id="path138" fill="#fcfcfc" d="M1383.382 299.123c-3.837.08-7.68.228-11.425-.898 3.81.262 7.752-1.135 11.425.898z" class="cls-19"/><path id="path140" fill="#fcfcfc" d="M1904.53 307.174c-2.603 1.492-5.117 3.175-8.126 3.797a10.479 10.479 0 0 1 8.126-3.797z" class="cls-19"/><path id="path142" fill="#fcfcfc" d="M1282.304 348.134a20.166 20.166 0 0 1-3.925 7.766 10.528 10.528 0 0 1 3.925-7.766z" class="cls-19"/><path id="path144" fill="#fcfcfc" d="M1859.297 348.135a20.466 20.466 0 0 1-3.918 7.755 10.555 10.555 0 0 1 3.918-7.755z" class="cls-19"/><path id="path146" fill="#fcfcfc" d="M1327.534 307.176c-2.605 1.491-5.117 3.182-8.13 3.798a10.461 10.461 0 0 1 8.13-3.798z" class="cls-19"/><path id="path148" fill="#fcfcfc" d="M1960.383 299.126c-3.837.074-7.68.228-11.426-.9 3.81.262 7.753-1.138 11.426.9z" class="cls-19"/><path id="path150" fill="#fcfcfc" d="M1584.792 298.224c-3.744 1.108-7.602.884-11.432.986 3.648-2.204 7.618-.692 11.432-.986z" class="cls-19"/><path id="path152" fill="#fcfcfc" d="M1451.191 338.355l-5.262-6.115c2.66 1.258 5.055 2.746 5.262 6.115z" class="cls-19"/><path id="path154" fill="#fcfcfc" d="M2015.263 324.567l-6.061-5.313c3.279.335 4.83 2.642 6.061 5.313z" class="cls-19"/><path id="path172" fill="#fcfcfc" d="M1230.269 341.28a16.814 16.814 0 0 1-4.13-6.046c2.795 1.046 3.887 3.256 4.13 6.046z" class="cls-19"/><path id="path174" fill="#fcfcfc" d="M1878.208 324.12a12.131 12.131 0 0 1-4.827 4.87 6.042 6.042 0 0 1 4.827-4.87z" class="cls-19"/><path id="path176" fill="#fcfcfc" d="M882.246 218.537l-5.202-5.296c3.212.314 4.964 2.061 5.202 5.296z" class="cls-19"/><path id="path178" fill="#fcfcfc" d="M846.217 213.12a18.315 18.315 0 0 1-4.835 4.946 5.985 5.985 0 0 1 4.835-4.946z" class="cls-19"/><path id="path180" fill="#fcfcfc" d="M1898.227 437.323a11.927 11.927 0 0 1-4.048-6.119 7.569 7.569 0 0 1 4.048 6.12z" class="cls-19"/><path id="path182" fill="#fcfcfc" d="M1321.236 437.315a11.917 11.917 0 0 1-4.05-6.114 7.648 7.648 0 0 1 4.05 6.114z" class="cls-19"/><path id="path184" fill="#fcfcfc" d="M1612.457 383.102a23.105 23.105 0 0 1-.973 8.395c.272-2.803-1.152-5.805.973-8.395z" class="cls-19"/><path id="path186" fill="#fcfcfc" d="M1417.232 444.12a6.94 6.94 0 0 1-4.844 3.96c1.231-1.789 2.413-3.638 4.844-3.96z" class="cls-19"/><path id="path188" fill="#fcfcfc" d="M1983.472 347.915a10.744 10.744 0 0 1 5.119 4.046c-2.809.047-4.043-1.9-5.12-4.046z" class="cls-19"/><path id="path190" fill="#fcfcfc" d="M1406.476 347.908a10.756 10.756 0 0 1 5.12 4.047c-2.817.056-4.05-1.891-5.12-4.047z" class="cls-19"/><path id="path194" fill="#fcfcfc" d="M1426.4 434.118a7.473 7.473 0 0 1-4.02 4.836c.352-2.434 2.182-3.638 4.02-4.836z" class="cls-19"/><path id="path196" fill="#fcfcfc" d="M2003.392 434.12a7.488 7.488 0 0 1-4.011 4.827c.352-2.427 2.182-3.627 4.011-4.828z" class="cls-19"/><path id="path200" fill="#fcfcfc" d="M1325.27 442.428c-1.696-1.478-3.346-2.992-4.107-5.209 2.227 1.06 4.11 2.39 4.108 5.21z" class="cls-19"/><path id="path202" fill="#fcfcfc" d="M1902.268 442.437c-1.7-1.478-3.349-2.996-4.117-5.21 2.248 1.044 4.122 2.384 4.117 5.21z" class="cls-19"/><path id="path204" fill="#fcfcfc" d="M1611.487 406.698a22.135 22.135 0 0 1 1.003 8.398c-2.21-2.575-.709-5.593-1.003-8.398z" class="cls-19"/><path id="path208" fill="#fcfcfc" d="M1437.257 323.641a18.564 18.564 0 0 1-5.05-4.391c2.848.123 4.233 1.93 5.05 4.391z" class="cls-19"/><path id="path210" fill="#fcfcfc" d="M1226.216 335.334a12.74 12.74 0 0 1-4.005-5.143c2.09 1.125 4.08 2.33 4.005 5.143z" class="cls-19"/><path id="path212" fill="#fcfcfc" d="M2000.326 313.27a12.648 12.648 0 0 1-5.317-3.022c2.303.074 4.293.698 5.317 3.022z" class="cls-19"/><path id="path214" fill="#fcfcfc" d="M1301.215 324.12a7.378 7.378 0 0 1-3.834 3.83 4.2 4.2 0 0 1 3.834-3.83z" class="cls-19"/><path id="path218" fill="#fcfcfc" d="M2005.245 316.402a10.894 10.894 0 0 1-4.997-3.188c2.185.248 4.231.714 4.997 3.188z" class="cls-19"/><path id="path222" fill="#fcfcfc" d="M1233.25 346.297a10.83 10.83 0 0 1-3.047-5.105c2.3.934 2.923 2.87 3.048 5.105z" class="cls-19"/><path id="path224" fill="#fcfcfc" d="M1428.248 316.398a13.079 13.079 0 0 1-5.151-3.174c2.252.19 4.334.655 5.152 3.174z" class="cls-19"/><path id="path236" fill="#fcfcfc" d="M2018.272 441.494l-4.293-3.237c2.367-.163 3.669 1.088 4.293 3.237z" class="cls-19"/><path id="path238" fill="#fcfcfc" d="M840.382 249.183c1.748.7 2.528 2.233 3.274 3.797a4.072 4.072 0 0 1-3.274-3.797z" class="cls-19"/><path id="path240" fill="#fcfcfc" d="M2029.274 449.487l-4.28-3.233c2.358-.156 3.652 1.097 4.28 3.233z" class="cls-19"/><path id="path242" fill="#fcfcfc" d="M1452.276 449.48l-4.276-3.228c2.353-.154 3.643 1.102 4.276 3.227z" class="cls-19"/><path id="path244" fill="#fcfcfc" d="M1993.18 445.119a4.603 4.603 0 0 1-3.792 2.959c.86-1.505 1.88-2.803 3.793-2.96z" class="cls-19"/><path id="path246" fill="#fcfcfc" d="M1191.266 306.616l-5.125-2.41c2.122-.077 4.167.011 5.125 2.41z" class="cls-19"/><path id="path248" fill="#fcfcfc" d="M1059.487 410.751a13.005 13.005 0 0 1 .965 6.388c-1.949-1.884-.78-4.238-.965-6.388z" class="cls-19"/><path id="path250" fill="#fcfcfc" d="M1060.407 380.115a13.099 13.099 0 0 1-.923 6.356c.176-2.137-.95-4.464.923-6.356z" class="cls-19"/><path id="path252" fill="#fcfcfc" d="M836.51 240.66a10.481 10.481 0 0 1 2.004 5.49c-1.886-1.385-2.263-3.322-2.004-5.49z" class="cls-19"/><path id="path254" fill="#fcfcfc" d="M1932.611 299.196a12.188 12.188 0 0 1-6.25 1.01c1.822-1.958 4.148-.791 6.25-1.01z" class="cls-19"/><path id="path260" fill="#fcfcfc" d="M988.714 312.239c-1.275 1.21-2.364 2.7-4.33 2.87.959-1.689 2.102-3.097 4.33-2.87z" class="cls-19"/><path id="path262" fill="#fcfcfc" d="M1634.48 333.105a5.09 5.09 0 0 1-3.098 3.961c.12-2.035 1.439-3.131 3.098-3.961z" class="cls-19"/><path id="path264" fill="#fcfcfc" d="M1870.482 332.105a5.24 5.24 0 0 1-3.1 3.946c.126-2.028 1.444-3.12 3.1-3.946z" class="cls-19"/><path id="path266" fill="#fcfcfc" d="M1355.614 299.197a12.22 12.22 0 0 1-6.253 1.01c1.822-1.96 4.15-.792 6.253-1.01z" class="cls-19"/><path id="path268" fill="#fcfcfc" d="M1293.493 332.103a5.28 5.28 0 0 1-3.111 3.958c.124-2.037 1.444-3.134 3.111-3.958z" class="cls-19"/><path id="path270" fill="#fcfcfc" d="M1619.379 439.343a6.03 6.03 0 0 1 2.108 4.8 5.394 5.394 0 0 1-2.108-4.8z" class="cls-19"/><path id="path272" fill="#fcfcfc" d="M1082.413 330.116a5.268 5.268 0 0 1-3.031 3.938c.11-2.006 1.425-3.084 3.031-3.938z" class="cls-19"/><path id="path274" fill="#fcfcfc" d="M860.735 208.224a13.987 13.987 0 0 1-6.36.93c1.89-1.886 4.22-.754 6.36-.93z" class="cls-19"/><path id="path276" fill="#fcfcfc" d="M869.278 209.605l-6.323-1.375c2.135.327 4.697-1.303 6.323 1.375z" class="cls-19"/><path id="path280" fill="#fcfcfc" d="M1538.213 314.12a5.17 5.17 0 0 1-3.843 3.077c.817-1.605 1.874-2.91 3.843-3.077z" class="cls-19"/><path id="path282" fill="#fcfcfc" d="M1111.263 442.457l-3.36-4.215c2.205.539 3.46 1.837 3.36 4.215z" class="cls-19"/><path id="path286" fill="#fcfcfc" d="M1441.274 441.49q-2.144-1.618-4.289-3.234c2.363-.16 3.661 1.092 4.289 3.233z" class="cls-19"/><path id="path288" fill="#fcfcfc" d="M1885.697 318.234c-1.277 1.218-2.311 2.794-4.321 2.932.931-1.727 2.079-3.136 4.32-2.932z" class="cls-19"/><path id="path290" fill="#fcfcfc" d="M1432.297 319.32a8.144 8.144 0 0 1-4.149-3.003c2.296-.262 3.405 1.118 4.149 3.003z" class="cls-19"/><path id="path292" fill="#fcfcfc" d="M2009.294 319.326a8.106 8.106 0 0 1-4.15-3.005c2.302-.267 3.412 1.112 4.15 3.005z" class="cls-19"/><path id="path294" fill="#fcfcfc" d="M982.212 317.12a4.23 4.23 0 0 1-2.831 2.84 2.753 2.753 0 0 1 2.831-2.84z" class="cls-19"/><path id="path296" fill="#fcfcfc" d="M1613.47 377.1a8.44 8.44 0 0 1-.977 5.403c.112-1.839-.857-3.874.978-5.403z" class="cls-19"/><path id="path300" fill="#fcfcfc" d="M1444.272 330.424l-3.17-3.2q3.331-.13 3.17 3.2z" class="cls-19"/><path id="path302" fill="#fcfcfc" d="M2021.27 330.43l-3.175-3.203c2.228-.091 3.282.98 3.175 3.204z" class="cls-19"/><path id="path304" fill="#fcfcfc" d="M1390.278 300.525c-1.777-.454-3.74-.136-5.35-1.288 1.83.229 4.044-1.13 5.35 1.288z" class="cls-19"/><path id="path308" fill="#fcfcfc" d="M1061.437 374.108a8.448 8.448 0 0 1-.962 5.302c.12-1.803-.81-3.797.962-5.302z" class="cls-19"/><path id="path310" fill="#fcfcfc" d="M1693.73 299.227a8.858 8.858 0 0 1-5.364.96c1.524-1.796 3.538-.85 5.364-.96z" class="cls-19"/><path id="path312" fill="#fcfcfc" d="M1271.464 379.1a9.265 9.265 0 0 1-.969 5.47c.12-1.857-.87-3.914.969-5.47z" class="cls-19"/><path id="path314" fill="#fcfcfc" d="M1848.454 379.103a9.308 9.308 0 0 1-.959 5.452c.115-1.852-.862-3.898.96-5.452z" class="cls-19"/><path id="path316" fill="#fcfcfc" d="M1894.25 431.296a5.55 5.55 0 0 1-2.095-4.097c1.658.874 2.118 2.362 2.096 4.097z" class="cls-19"/><path id="path318" fill="#fcfcfc" d="M1728.278 300.524c-1.67-.414-3.504-.22-4.982-1.346 1.713.256 3.832-.994 4.982 1.346z" class="cls-19"/><path id="path320" fill="#fcfcfc" d="M1317.256 431.291a5.586 5.586 0 0 1-2.095-4.095 4.126 4.126 0 0 1 2.095 4.095z" class="cls-19"/><path id="path322" fill="#fcfcfc" d="M1967.278 300.525c-1.778-.45-3.74-.134-5.35-1.288 1.83.229 4.044-1.13 5.35 1.288z" class="cls-19"/><path id="path324" fill="#fcfcfc" d="M1172.4 300.193a8.997 8.997 0 0 1-5.362-.967c1.824.111 3.842-.838 5.363.967z" class="cls-19"/><path id="path326" fill="#fcfcfc" d="M1138.72 299.225a8.92 8.92 0 0 1-5.35.948c1.525-1.774 3.53-.839 5.35-.948z" class="cls-19"/><path id="path328" fill="#fcfcfc" d="M1612.45 415.021a8.54 8.54 0 0 1 .998 5.117c-1.768-1.426-.857-3.374-.997-5.117z" class="cls-19"/><path id="path330" fill="#fcfcfc" d="M1847.489 412.76a9.463 9.463 0 0 1 .933 5.37c-1.762-1.538-.827-3.545-.933-5.37z" class="cls-19"/><path id="path332" fill="#fcfcfc" d="M1270.491 412.74a9.426 9.426 0 0 1 .937 5.392c-1.774-1.543-.83-3.558-.937-5.391z" class="cls-19"/><path id="path336" fill="#fcfcfc" d="M1667.497 307.163c-1.24.886-2.443 1.859-4.095 1.821.856-1.752 2.389-1.982 4.095-1.821z" class="cls-19"/><path id="path338" fill="#fcfcfc" d="M1020.696 299.22a8.2 8.2 0 0 1-5.319.923c1.527-1.726 3.511-.815 5.319-.923z" class="cls-19"/><path id="path380" fill="#fefefe" d="M1152.339 374.257c-15.807 0-31.614-.066-47.42.053-3.37.025-4.846-.27-3.485-4.31 7.301-21.667 28.26-36.84 52.2-37.48 20.884-.558 41.779 14.45 49.524 35.57 2.244 6.12 2.214 6.165-4.399 6.166q-23.21.004-46.42 0z"/><path id="path520" fill="#5b5348" d="M1806.24 400.033c-.001 29.818-.095 59.637.095 89.453.03 4.7-1.148 6.503-6.097 6.287-8.48-.37-16.991-.265-25.48-.036-3.997.108-5.404-1.426-5.125-5.255.192-2.65-.015-5.327-.014-7.992 0-3.536-1.413-3.684-3.787-1.613-.125.11-.259.21-.392.31-28.437 21.165-59.788 24.322-91.778 11.39-38.1-15.402-57.82-45.946-60.376-86.286-2.477-39.093 13.44-70.406 46.39-92.184 30.321-20.041 74.621-18.145 104.487 3.844 1.414 1.041 2.765 3.322 4.54 2.483 1.787-.845.911-3.324.933-5.082.136-10.999.107-11 11.232-11 6.33 0 12.68.306 18.984-.096 4.966-.317 7.285 1.148 6.391 6.324a2.986 2.986 0 0 0 0 .5v88.953zm-37.835.427c0-7.994-.859-16.105.206-23.955 1.514-11.152-3.744-18.064-11.63-24.565-30.2-24.89-74.391-19.609-95.371 11.627-18.637 27.748-12.27 68.043 13.774 87.176 28.453 20.901 67.116 16.262 89.996-10.702a12.154 12.154 0 0 0 3.08-8.604c-.152-10.324-.055-20.651-.054-30.977z" class="cls-13"/><path id="path522" fill="#5b5348" d="M2253.47 494.088c-3.304 2.024-5.173 1.554-6.946 1.56-12.498.046-25-.146-37.491.117-4.383.093-7.437-1.366-10.496-4.406q-42.195-41.935-84.62-83.638a32.628 32.628 0 0 0-2.505-2.44c-1.094-.868-1.823-2.881-3.568-2.05-1.38.659-.69 2.4-.746 3.663-.095 2.163-.029 4.332-.029 6.498 0 25.662-.087 51.325.085 76.986.028 4.194-1.298 5.484-5.406 5.37-8.991-.251-18-.28-26.99.01-4.407.14-5.683-1.328-5.651-5.706.184-25.827.09-51.657.09-77.485V213.1c0-7.012.01-7.018 7.106-7.023 8.332-.006 16.673.232 24.992-.093 4.585-.179 5.885 1.294 5.87 5.893q-.231 78.486-.05 156.972c0 2.554-1.364 6.344.922 7.396 2.394 1.101 4.222-2.501 6.092-4.21q35.246-32.202 70.322-64.588a10.772 10.772 0 0 1 7.999-3.152c14.33.135 28.66.041 42.991.084 1.419.004 2.96-.486 4.352.587-.414 2.03-2.233 2.821-3.517 3.983q-42.637 38.562-85.337 77.055c-5.114 4.616-5.102 4.63.023 9.618q48.713 47.428 97.45 94.83a45.674 45.674 0 0 0 5.056 3.635z" class="cls-13"/><path id="path524" fill="#5b5348" d="M649.23 352.724q0-67.999.002-135.997c0-6.509.016-6.525 6.577-6.526 49.999-.005 99.998.076 149.996-.12 5.15-.02 6.532 1.466 6.303 6.46-.406 8.815-.33 17.669-.02 26.49.148 4.202-1.183 5.287-5.314 5.27-36.998-.154-73.998-.091-110.997-.087-6.637 0-6.653.012-6.656 6.483-.008 20.667.142 41.335-.107 61.998-.06 4.931 1.601 6.146 6.302 6.113 27.331-.193 54.665-.006 81.997-.183 4.43-.028 6.204.99 6.004 5.771a315.776 315.776 0 0 0 0 26.49c.203 4.814-1.658 5.822-6.041 5.797-27.166-.158-54.332-.085-81.498-.073-6.637.003-6.655.029-6.656 6.595q-.01 60.749-.005 121.497c-.001 6.956-.011 6.963-7.164 6.969-8.834.007-17.68-.3-26.494.115-5.233.246-6.352-1.647-6.333-6.566.176-45.498.104-90.998.104-136.496z" class="cls-13"/><path id="path526" fill="#5b5348" d="M1171.205 407.7q-34 .006-67.999.014c-6.28.007-6.292.077-5.383 6.162 5.08 34.023 35.812 56.359 71.686 52.294 16.51-1.87 30.152-9.391 41.459-21.086 3.735-3.863 5.638-3.365 8.918.084a221.22 221.22 0 0 0 16.298 15.496c3.518 3.016 2.913 5.054.085 8.046-14.85 15.709-33.075 25.173-54.167 28.934-27.89 4.974-54.783 2.114-78.514-14.424-35.98-25.073-47.844-60.662-41.383-102.826 4.587-29.927 19.428-53.915 46.418-68.749 47.413-26.059 114.984-8.58 133.244 58.537a120.368 120.368 0 0 1 3.941 32.147c-.012 4.086-1.504 5.466-5.606 5.44-22.998-.15-45.998-.073-68.997-.069zm-17.807-31.766l45.428-.002c7.818-.003 8.003-.295 5.061-7.787-8.22-20.934-28.517-35.182-49.61-34.827-23.564.397-44.77 15.515-52.337 37.311-1.677 4.831-1.405 5.27 4.032 5.285 15.808.042 31.617.015 47.426.02z" class="cls-13"/><path id="path528" fill="#5b5348" d="M2363.766 407.7q-34 .004-67.999.013c-5.874.007-6.096.297-5.144 5.942 8.18 48.53 60.57 65.896 98.242 43.401a71.46 71.46 0 0 0 16.64-13.509c1.879-2.09 3.174-2.244 5.234-.216 6.295 6.196 12.67 12.316 19.206 18.255 2.572 2.337 1.98 3.95-.021 6.17-9.432 10.466-20.585 18.709-33.71 23.574-36.807 13.645-72.713 12.753-104.786-11.841-33.024-25.325-42.877-60.39-36.145-100.332 5.401-32.041 22.065-56.897 52.241-70.502 49.28-22.218 110.476-.81 127.265 61.778a121.352 121.352 0 0 1 3.84 31.661c0 4.206-1.444 5.738-5.864 5.698-22.998-.204-45.999-.095-68.999-.092zm-17.729-31.766q23.463 0 46.926-.006c6.159-.007 6.402-.378 4.384-6.14-7.543-21.536-28.277-36.674-49.961-36.474-23.617.217-45.285 15.76-52.738 37.523-1.514 4.421.071 5.155 3.965 5.13 15.807-.101 31.616-.042 47.424-.034z" class="cls-13"/><path id="path530" fill="#5b5348" d="M1373.849 499.804c-34.527-.674-63.34-12.278-83.402-40.21-23.558-32.8-25.902-68.762-8.944-104.692 16.312-34.561 45.514-52.222 83.617-54.28 33.878-1.83 61.741 10.856 83.894 36.477 2.833 3.277 2.782 5.132-.742 7.847-6.857 5.285-13.483 10.905-19.875 16.746-3.211 2.936-4.709 2.188-7.343-.827-17.084-19.552-38.254-28.855-64.238-23.007-31.27 7.037-51.336 36.893-47.417 69.224 3.102 25.591 15.793 44.32 40.502 52.743 25.253 8.61 48.68 4.267 68.841-14.016a36.184 36.184 0 0 0 6.184-6.507c2.946-4.482 5.526-4.834 9.78-1.29a219.083 219.083 0 0 0 19.79 14.418c3.677 2.423 3.407 4.304 1.033 7.46-16.175 21.493-38.094 33.248-64.062 38.356-6.095 1.198-12.277.955-17.618 1.558z" class="cls-13"/><path id="path532" fill="#5b5348" d="M1950.006 499.79c-33.743-.673-62.545-12.292-82.599-40.233-23.55-32.815-25.864-68.78-8.896-104.698 16.325-34.557 45.542-52.18 83.645-54.243 33.277-1.801 60.88 10.441 82.843 35.433 4.526 5.15 4.447 5.227-.602 9.488-6.241 5.267-12.621 10.379-18.678 15.85-3.09 2.79-4.672 3.026-7.75-.525-17.004-19.621-38.232-28.863-64.213-22.988-31.45 7.112-51.47 37.232-47.301 69.755 3.254 25.392 15.985 43.891 40.482 52.215 25.262 8.583 48.68 4.224 68.835-14.067 1.97-1.788 3.804-3.74 5.59-5.717 5.115-5.667 5.09-5.685 11.091-1.324 6.066 4.41 11.913 9.176 18.279 13.1 4.685 2.888 3.99 5.193 1.183 8.91-9.356 12.384-21.292 21.496-35.033 28.38-13.534 6.782-31.85 10.866-46.876 10.664z" class="cls-13"/><path id="path534" fill="#5b5348" d="M2480.425 399.795c0-29.813.107-59.627-.108-89.44-.035-4.87 1.407-6.305 6.194-6.104 8.646.363 17.32.22 25.978.048 3.376-.067 4.86.906 4.653 4.5-.248 4.317-.075 8.659-.028 12.988.01.937-.36 2.164.753 2.674 1.198.55 1.717-.652 2.358-1.334 18.052-19.226 40.766-24.557 66.081-22.28 2.826.253 3.623 1.285 3.231 4.133q-1.972 14.347-3.471 28.756c-.295 2.786-1.248 3.736-4.106 3.292-25.27-3.925-44.187 7.015-59.757 25.71a17.549 17.549 0 0 0-4.012 11.95c.136 38.141.08 76.283.072 114.424 0 6.53-.023 6.545-6.627 6.556-8.494.016-16.998-.239-25.479.099-4.726.188-5.85-1.552-5.823-6.032.175-29.98.091-59.96.091-89.94z" class="cls-13"/><path id="path536" fill="#5b5348" d="M1529.54 325.674c12.556-14.08 27.269-21.862 44.719-24.467 7.962-1.189 15.948-.828 23.942-.346 2.652.16 3.375 1.293 3.05 3.845q-1.858 14.625-3.444 29.284c-.323 2.954-1.83 3.373-4.442 2.981-25.098-3.766-43.87 7.167-59.346 25.689a17.484 17.484 0 0 0-4.026 11.94c.146 38.333 0 76.666.187 114.998.024 4.818-1.315 6.367-6.152 6.175-8.986-.356-17.999-.234-26.994-.044-3.702.079-4.889-1.2-4.883-4.913q.137-90.998.023-181.997c0-3.064.725-4.573 4.159-4.514q14.245.246 28.497-.002c3.404-.06 4.2 1.347 4.176 4.46-.04 5.237-.508 10.519.534 16.91z" class="cls-13"/><path id="path538" fill="#5b5348" d="M939.776 399.703c0-29.655.103-59.31-.1-88.963-.035-4.928 1.145-6.779 6.381-6.507 8.64.448 17.322.225 25.983.078 3.259-.055 4.48 1.164 4.363 4.38-.159 4.325-.046 8.66-.003 12.992.01.958-.288 2.187.75 2.722 1.159.597 1.728-.57 2.37-1.256 17.902-19.088 40.439-24.503 65.595-22.357 2.886.246 4.214 1.08 3.779 4.256-1.29 9.402-2.496 18.82-3.49 28.258-.338 3.21-1.371 4.134-4.694 3.66-26.169-3.737-45.297 8.033-60.686 27.885-2.085 2.69-2.316 5.725-2.313 8.963.045 38.484-.061 76.968.14 115.452.025 4.982-1.186 6.787-6.364 6.516-7.975-.417-15.988-.105-23.985-.11-7.714-.006-7.724-.01-7.725-7.506q-.006-44.232 0-88.463z" class="cls-13"/><path id="path540" fill="#5b5348" d="M843.541 399.813c0-29.814.105-59.628-.106-89.44-.034-4.866 1.414-6.317 6.207-6.122 8.813.359 17.657.287 26.476.025 4.175-.125 5.461 1.329 5.422 5.434-.171 17.654-.07 35.31-.07 52.965q0 63.208-.006 126.416c-.002 6.548-.035 6.564-6.688 6.577-8.661.016-17.328-.186-25.98.083-4.245.133-5.346-1.455-5.328-5.498.136-30.146.074-60.293.074-90.44z" class="cls-13"/><path id="path542" fill="#5b5348" d="M862.308 260.316c-14.206-.009-24.938-10.783-24.874-24.971a24.685 24.685 0 0 1 24.99-25.012 25.102 25.102 0 0 1 25.3 25.376c-.051 13.859-11.163 24.616-25.416 24.607z" class="cls-13"/></g></g></svg>