<svg xmlns="http://www.w3.org/2000/svg" role="img" xmlns:xlink="http://www.w3.org/1999/xlink" viewBox="28.56 121.56 438.62 222.37"><title>Flink logo</title><defs><linearGradient id="a" x1="44097.34" x2="44125.809" y1="69.669" y2="-63.179" gradientTransform="matrix(-1 0 0 1 44076.355 0)" gradientUnits="userSpaceOnUse"><stop offset=".384" stop-color="#faa100"/><stop offset=".658" stop-color="#bf73f2"/><stop offset=".665" stop-color="#c370e6"/><stop offset=".685" stop-color="#cc68c7"/><stop offset=".708" stop-color="#d461ab"/><stop offset=".734" stop-color="#db5b95"/><stop offset=".764" stop-color="#e05784"/><stop offset=".802" stop-color="#e35479"/><stop offset=".854" stop-color="#e55272"/><stop offset="1" stop-color="#e65270"/></linearGradient><linearGradient id="b" x1="44081.27" x2="44111.594" y1="71.442" y2="-70.067" gradientTransform="matrix(-1 0 0 1 44076.355 0)" gradientUnits="userSpaceOnUse"><stop offset=".384" stop-color="#faa100"/><stop offset=".658" stop-color="#bf73f2"/><stop offset=".665" stop-color="#c370e6"/><stop offset=".685" stop-color="#cc68c7"/><stop offset=".708" stop-color="#d461ab"/><stop offset=".734" stop-color="#db5b95"/><stop offset=".764" stop-color="#e05784"/><stop offset=".802" stop-color="#e35479"/><stop offset=".854" stop-color="#e55272"/><stop offset="1" stop-color="#e65270"/></linearGradient><linearGradient id="c" x1="44076.297" x2="44078.102" y1="62.464" y2="-21.484" gradientTransform="matrix(-1 0 0 1 44076.355 0)" gradientUnits="userSpaceOnUse"><stop offset="0" stop-color="#faa7b5"/><stop offset=".384" stop-color="#faa100"/><stop offset=".732" stop-color="#bf73f2"/></linearGradient><linearGradient id="d" x1="44098.688" x2="44078.422" y1="53.836" y2="18.924" gradientTransform="matrix(-1 0 0 1 44076.355 0)" gradientUnits="userSpaceOnUse"><stop offset="0" stop-color="#f6e8a0"/><stop offset="1" stop-color="#e65271"/></linearGradient><linearGradient id="e" x1="44095.125" x2="44077.648" y1="32.857" y2="2.752" gradientTransform="matrix(-1 0 0 1 44076.355 0)" gradientUnits="userSpaceOnUse"><stop offset="0" stop-color="#f6e8a0"/><stop offset="1" stop-color="#e65271"/></linearGradient><linearGradient id="f" x1="44056.074" x2="44058.09" y1="55.106" y2="19.935" gradientTransform="matrix(-1 0 0 1 44076.355 0)" gradientUnits="userSpaceOnUse"><stop offset="0" stop-color="#f6e8a0"/><stop offset="1" stop-color="#e65271"/></linearGradient><linearGradient id="g" x1="44057.961" x2="44069.578" y1="19.979" y2="71.449" gradientTransform="matrix(-1 0 0 1 44076.355 0)" gradientUnits="userSpaceOnUse"><stop offset="0" stop-color="#e65271"/><stop offset=".384" stop-color="#faa100"/></linearGradient><linearGradient id="h" x1="44098.273" x2="44055.266" y1="45.738" y2="9.103" gradientTransform="matrix(-1 0 0 1 44076.355 0)" gradientUnits="userSpaceOnUse"><stop offset="0" stop-color="#f6e8a0"/><stop offset="1" stop-color="#e65271"/></linearGradient><linearGradient id="i" x1="44059.477" x2="44101.273" y1="20.133" y2="8.766" gradientTransform="matrix(-1 0 0 1 44076.355 0)" gradientUnits="userSpaceOnUse"><stop offset="0" stop-color="#faa7b5"/><stop offset=".384" stop-color="#faa100"/><stop offset=".732" stop-color="#bf73f2"/></linearGradient><linearGradient id="j" x1="43948.223" x2="44144.539" y1="68.986" y2="-36.272" gradientTransform="matrix(-1 0 0 1 44076.355 0)" gradientUnits="userSpaceOnUse"><stop offset="0" stop-color="#faa7b5"/><stop offset=".384" stop-color="#faa100"/><stop offset=".732" stop-color="#bf73f2"/></linearGradient><linearGradient id="n" x1="44028.922" x2="44039.934" y1="-21.689" y2="-46.512" gradientTransform="matrix(-1 0 0 1 44076.355 0)" gradientUnits="userSpaceOnUse"><stop offset=".004" stop-color="#faa7b5"/><stop offset=".384" stop-color="#faa100"/></linearGradient><linearGradient id="o" x1="44102.258" x2="44111.285" y1="49.986" y2="-18.618" gradientTransform="matrix(-1 0 0 1 44076.355 0)" gradientUnits="userSpaceOnUse"><stop offset="0" stop-color="#faa7b5"/><stop offset=".384" stop-color="#faa100"/><stop offset=".732" stop-color="#bf73f2"/></linearGradient><linearGradient id="p" x1="44109.793" x2="44118.82" y1="50.977" y2="-17.628" gradientTransform="matrix(-1 0 0 1 44076.355 0)" gradientUnits="userSpaceOnUse"><stop offset="0" stop-color="#faa7b5"/><stop offset=".384" stop-color="#faa100"/><stop offset=".732" stop-color="#bf73f2"/></linearGradient><linearGradient id="q" x1="44123.051" x2="44118.996" y1="21.721" y2="-26.018" gradientTransform="matrix(-1 0 0 1 44076.355 0)" gradientUnits="userSpaceOnUse"><stop offset="0" stop-color="#faa7b5"/><stop offset=".384" stop-color="#faa100"/><stop offset=".732" stop-color="#bf73f2"/></linearGradient><linearGradient id="r" x1="44050.848" x2="44052.652" y1="61.92" y2="-22.035" gradientTransform="matrix(-1 0 0 1 44076.355 0)" gradientUnits="userSpaceOnUse"><stop offset="0" stop-color="#faa7b5"/><stop offset=".384" stop-color="#faa100"/><stop offset=".732" stop-color="#bf73f2"/></linearGradient><linearGradient id="s" x1="44033.848" x2="44038.316" y1="-2.303" y2="-9.677" gradientTransform="matrix(-1 0 0 1 44076.355 0)" gradientUnits="userSpaceOnUse"><stop offset="0" stop-color="#faa7b5"/><stop offset=".384" stop-color="#faa100"/><stop offset=".732" stop-color="#bf73f2"/></linearGradient><radialGradient id="k" cx="87651.25" cy="11560.299" r="14.877" gradientTransform="matrix(-.4579 .1387 .2675 .883 37062.188 -22360.328)" gradientUnits="userSpaceOnUse"><stop offset=".009" stop-color="#fff"/><stop offset="1" stop-color="#fff" stop-opacity="0"/></radialGradient><radialGradient id="l" cx="78312.109" cy="34685.199" r="23.256" gradientTransform="matrix(-.4785 0 0 .4785 37453.621 -16583.95)" gradientUnits="userSpaceOnUse"><stop offset=".009" stop-color="#fff"/><stop offset="1" stop-color="#fff" stop-opacity="0"/></radialGradient><radialGradient id="m" cx="78312.125" cy="34685.195" r="23.246" gradientTransform="matrix(-.4785 0 0 .4785 37453.621 -16583.95)" gradientUnits="userSpaceOnUse"><stop offset=".009" stop-color="#fff"/><stop offset="1" stop-color="#fff" stop-opacity="0"/></radialGradient></defs><symbol id="u" viewBox="-50.452 -50.955 100.904 101.91"><path fill="#E65270" d="M14.113-50.012c-1.353.017-2.704.021-4.056.021l-3.489-.003s-9.98.004-14.75.004c-.749 0-1.5-.003-2.25-.005-.751-.002-1.501-.005-2.252-.005-.47 0-.938.001-1.407.004-2.838.017-5.551.358-8.063 1.016-10.002 2.617-17.576 8.551-22.512 17.634-2.366 4.354-3.711 9.225-3.995 14.473a34.9 34.9 0 0 0 .355 7.108c.043.284.095.568.147.854l.115.65.195-.192a.617.617 0 0 0 .159-.288c.097-.318.188-.639.28-.958.19-.665.388-1.353.62-2.013 1.701-4.852 4.284-9.397 7.896-13.902a1.82 1.82 0 0 0 .313-.566c1.225-3.771 3.354-7.028 6.326-9.69 2.891-2.588 6.357-4.526 10.316-5.771a30.973 30.973 0 0 0-7.003 4.143c-3.448 2.719-5.933 6.046-7.383 9.89-.145.386-.267.852-.071 1.368.065.176.111.358.158.541.032.126.063.252.102.377.781 2.553 1.967 4.555 3.626 6.117 1.545 1.456 3.513 2.521 6.017 3.257 2.338.688 4.778.998 7.137 1.298l1.011.13c1.321.173 2.66.377 3.954.577l.779.12c.29.044.578.107.876.172l.727.152-.191-.325c-.015-.028-.027-.051-.048-.075a20 20 0 0 1-3.055-4.538.65.65 0 0 0-.354-.312c-.174-.057-.347-.113-.52-.171-.551-.185-1.119-.371-1.697-.486a32.759 32.759 0 0 0-1.876-.3c-.494-.07-.988-.139-1.479-.229-1.653-.294-2.932-.825-3.899-1.636.212.051.431.083.646.114.3.043.608.089.889.186 1.524.53 3.196.776 5.263.776l.279-.001a30.14 30.14 0 0 0 1.117-.039l.726-.03-.054-.179c-1.483-4.845-1.441-9.599.119-14.157-.653 3.091-.772 5.962-.368 8.737.618 4.241 2.486 7.896 5.556 10.863 2.07 2.001 4.667 3.681 7.938 5.133 2.841 1.263 5.801 2.021 8.589 2.691l.527.127c1.988.478 4.044.972 6.036 1.557 2.987.875 5.583 2.314 7.716 4.284.319.295.682.63.968 1 2.037 2.64 4.412 4.513 7.258 5.727a.572.572 0 0 1 .235.221c.931 1.52 2.048 2.639 3.415 3.424.305.175.609.263.904.263.374 0 .748-.144 1.113-.421.138-.106.264-.217.375-.33.479-.481.863-1.073 1.211-1.859.043-.094.082-.124.187-.137.347-.046.705-.093 1.06-.163 5.812-1.15 9.859-5.622 10.562-11.673.019-.161.032-.324.045-.486.031-.384.062-.78.177-1.137.144-.451.361-.895.573-1.321.093-.189.188-.382.276-.575.075-.166.154-.33.232-.494.185-.389.374-.786.531-1.193a2.93 2.93 0 0 0 .084-1.908c-.08-.277-.248-.318-.341-.318a.425.425 0 0 0-.224.071c-.16.103-.309.217-.458.335-.07.058-.142.111-.214.165-.08.062-.159.123-.237.188-.187.146-.362.288-.557.395a.444.444 0 0 1-.214.061.382.382 0 0 1-.211-.065l.274-.245c.489-.434.977-.869 1.457-1.31a.539.539 0 0 0 .159-.4c-.057-.908-.374-1.661-.945-2.241-.68-.688-1.393-1.022-2.178-1.022-.168 0-.339.016-.513.047-.032-.305-.097-.419-.351-.555-1.606-.871-3.172-1.295-4.785-1.295l-.252.002c-1.099 0-2.169-.312-3.369-.981a4.934 4.934 0 0 0-1.119-.476c-1.031-.274-2.072-.377-3.013-.421a9.277 9.277 0 0 1 1.279-.083c.289 0 .587.012.909.033l.184.019c.136.013.274.025.406.025.177 0 .323-.022.446-.073.841-.344 1.663-.76 2.433-1.154.151-.078.26-.11.361-.11.056 0 .11.011.167.032l.225.084c.421.159.856.323 1.271.507.987.439 1.838.646 2.678.646.225 0 .45-.017.673-.047.576-.078 1.248-.21 1.854-.583.299-.184.698-.491.735-1.064a.254.254 0 0 1 .069-.088c.073-.067.149-.131.227-.195a4.37 4.37 0 0 0 .233-.202c.47-.431.677-.977.619-1.624-.018-.181-.058-.605-.421-.605-.11 0-.239.04-.418.131a1.15 1.15 0 0 1-.207.088c.177-.108.349-.217.518-.332.401-.273.597-.691.578-1.242-.038-1.2-1.302-2.336-2.601-2.336-.154 0-.306.019-.451.05-.383.084-.859.244-1.146.742a.155.155 0 0 1-.049.038l-.22-.01a4.258 4.258 0 0 1-.778-.078l-.073-.017c-.423-.098-.859-.195-1.305-.195-.178 0-.345.016-.507.047-.199.037-.396.086-.598.136l-.146.035a6.459 6.459 0 0 0-1.109-2.094c-1.131-1.438-2.639-2.452-4.607-3.097-1.427-.47-2.961-.705-4.562-.705-.841 0-1.724.063-2.623.191-3.546.507-6.021 2.435-7.359 5.729-.225.552-.376 1.138-.524 1.706-.071.274-.144.554-.224.827-.42 1.429-.949 2.689-1.619 3.859-1.216 2.123-2.72 3.636-4.599 4.625a10.373 10.373 0 0 1-4.884 1.192c-.728 0-1.489-.069-2.264-.208-.157-.028-.313-.062-.472-.096a30.967 30.967 0 0 0 1.592-.106c2.431-.246 4.645-.993 6.58-2.219 2.633-1.671 4.249-3.747 4.937-6.345a22.68 22.68 0 0 1 1.634-4.299c.404-.812.918-1.752 1.658-2.546 1.046-1.119 2.394-1.884 4.241-2.403a45.862 45.862 0 0 0 1.506-.458c.276-.089.468-.28.587-.587a4.06 4.06 0 0 0 .213-2.27c-.217-1.109-.744-2.136-1.613-3.139-.686-.791-1.538-1.366-2.362-1.923a12.328 12.328 0 0 1-1.157-.875c-.303-.26-.46-.6-.443-.958.026-.59.07-.612.18-.612.092 0 .237.035.471.111.115.038.229.084.342.134l.686.296c.392.169.783.339 1.178.503.856.357 1.703.54 2.515.54.434 0 .868-.052 1.291-.153 1.52-.364 2.518-1.267 2.966-2.686.12-.384.103-.712-.055-.979a.723.723 0 0 0-.54-.331c-.184 0-.356.163-.488.308a.506.506 0 0 0-.106.279c-.006.03-.011.062-.018.09-.135.505-.322.835-.604 1.056.504-.685.73-1.417.689-2.23-.042-.807-.646-1.369-1.471-1.369l-.103.003c-.313.019-.512.188-.545.466-.022.192-.022.39-.023.58 0 .079 0 .159-.002.237-.002.104-.001.205 0 .309 0 .222.001.431-.027.637-.062.444-.326.744-.785.891a.368.368 0 0 1-.098.023.861.861 0 0 0 .344-.346c.17-.315.315-.602.394-.911.204-.821.003-1.461-.581-1.853-.303-.201-.691-.276-1.033-.324a2.868 2.868 0 0 0-.412-.026c-.511 0-1.011.12-1.493.234l-.245.059a5.609 5.609 0 0 1-1.251.159c-.332 0-.677-.064-1.011-.126l-.155-.028c-2.533-.456-4.81-.677-6.959-.677l-.376-.016z"/><path fill="#430A1D" d="M34.73-20.451s-3.735-4.456-10.078-1.903c-5.81 2.341-3.692 8.784-3.692 8.784s1.03-3.996 4.036-5.51c4.352-2.193 9.734-1.371 9.734-1.371zm-18.403-1.908c.809-.822.824-1.663 1.078-2.688.479-1.928 1.068-3.602 2.296-5.188 1.181-1.524 2.594-2.602 4.419-3.303 1.581-.606 3.614-.427 3.311-2.781l-.53-1.982c-4.04 0-7.825 1.844-9.367 5.854-1.352 3.518.241 7.769-3.857 13.717.328-.402 2.231-3.201 2.65-3.629z" opacity=".2"/><path fill="#2B2B2B" d="M14.727-20.611c.062-.25.118-.504.175-.757-.151.185-.229.421-.175.757z" opacity=".2"/><path fill="url(#a)" d="M-32.349-35.983c-15.241 1.506-17.035 16.677-17.035 16.677s-.828 7.032 1.104 13.93c1.241-12.55 11.309-21.239 11.309-21.239s2.212-7.151 4.622-9.368z"/><path fill="#2B2B2B" d="M-36.15-30.205s-3.196-.304-7.461 4.873c4.112-7.461 9.441-7.613 9.441-7.613l-1.98 2.74z" opacity=".2"/><path fill="url(#b)" d="M-27.912-38.917c-.799 14.03 7.438 7.52 11.69 14.96 1.195 6.51 4.782 10.628 4.782 10.628s-25.506 4.782-25.907-13.817c.888-4.027 4.792-7.921 7.236-10.028-.478 1.078-6.567 17.833 13.711 16.467-6.999.596-17.105-6.716-12.288-17.67.483-.352.776-.54.776-.54z"/><path fill="#FFF" d="M-21.017-18.684c-5.272-1.982-14.225-1.973-11.677-15.426-.408-.306-2.446 2.854-1.937 2.547-2.344 12.028 8.184 11.333 13.614 12.879z" opacity=".2"/><path fill="#8B4FBA" d="M-14.341-13.865c5.127 2.028.964-3.722.236-4.642-1.683-2.128-5.941-1.436-8.21-2.146-1.305-.408-6.536-1.175-8.269-6.128-.77-2.194-1.06-5.781.581-10.146-.407-.308-3.104 2.646-2.594 2.342-4.328 19.33 16.086 12.392 18.256 20.72z" opacity=".6"/><path fill="#F9E0E7" d="M36.631-5.972c.139.384.378.875.679 1.165.07-.033.145-.037.202-.073.5.324 1.29.281 1.918.281.376 0 .924.104 1.287-.037.528-.205.468-.761.689-1.182.414-.786 1.69-.796 1.695-1.907.004-.523.135-1.232.001-1.744-.1-.38-.525-.264-.891-.264-1.109 0-2.215-.031-3.326-.031l-1.536 1.145c-.41-.131-.731.729-.787 1.021-.092.482-.104 1.149.069 1.626z"/><path fill="#FFF" d="M41.756-7.494c.188.077.465.378.581.555.084.127.06.208.24.203.469-.013.473-.646.449-.973-.028-.418-.197-.802-.258-1.213-.152.038-.236.229-.407.277-.136.04-.331.021-.473.015-.208-.009-.496-.149-.684-.069l.552 1.205z"/><path fill="url(#c)" d="M-18.99 13.068c.07.081.088.105.11.128 2.035 1.9 3.114 4.298 3.694 6.979.381 1.755-.105 3.303-.895 4.816-.014.025-.039.05-.066.084-.158-.494-.302-.979-.47-1.456-.413-1.176-.913-2.314-1.707-3.288-.317-.388-13.613-7.753-12.244-24.064.009-.101.026-.197.04-.31.246.229.461.466.708.661.885.692 1.907 1.133 2.973 1.431a190.04 190.04 0 0 0 5.881 1.525c2.237.548 4.487 1.056 6.645 1.882a16.52 16.52 0 0 1 3.437 1.82 18.827 18.827 0 0 1 4.207 3.956c.699.891 1.025 1.571 1.34 2.618.199-.539.095-2.041-.205-2.999-.31-.99-.837-1.854-1.524-2.647.165.053.345.08.492.164 1.902 1.084 3.587 2.419 4.831 4.249.834 1.226 1.342 2.568 1.413 4.062.001.021.01.042.017.075.396-1.832.339-4.952-1.727-7.17.73.258 1.39.517 2.066.718.559.166.928.493 1.237.984 1.356 2.146 2.48 4.396 3.088 6.877.47 1.916.587 3.84.06 5.765-.598 2.176-1.912 3.851-3.7 5.182-1.242.925-2.612 1.611-4.05 2.173-.087.034-.174.065-.259.103-.014.005-.021.021-.076.081.498-.137.945-.253 1.386-.384 2.06-.612 4.034-1.41 5.782-2.688 1.56-1.14 2.754-2.562 3.351-4.432.533-1.674.487-3.366.104-5.058-.56-2.467-1.709-4.665-3.109-6.746a15.698 15.698 0 0 1-.126-.193c-.006-.01-.005-.026-.013-.062.058.021.104.036.146.059 2.931 1.499 5.537 3.416 7.613 5.992 2.016 2.5 3.483 5.284 4.18 8.438.877 3.98-.085 7.514-2.663 10.631-1.629 1.973-3.643 3.465-5.873 4.681a27.266 27.266 0 0 1-9.177 3.061c-1.842.269-3.686.32-5.527-.034-1.012-.192-1.668-.458-2.79-1.106.142.121.277.249.426.358 1.007.765 2.168 1.16 3.387 1.407 2.016.408 4.049.403 6.082.166a27.26 27.26 0 0 0 8.991-2.646c.278-.14.553-.283.86-.441 0 .258-.015.483.004.706.026.344.199.541.47.573.258.032.41-.065.46-.319.041-.215.052-.436.083-.652.07-.492.298-.909.636-1.271a.629.629 0 0 1 .115-.097c.019-.015.046-.014.118-.028v.502c-.005.329-.018.659-.011.988.003.081.06.211.116.227.077.021.217-.018.265-.079.129-.17.268-.354.327-.556.129-.428.187-.876.321-1.301.088-.275.228-.547.403-.775.192-.25.386-.195.459.111.068.286.093.583.136.875.015.101.018.205.049.299.025.081.084.148.128.223.066-.061.163-.106.192-.182.067-.17.133-.353.141-.532.021-.396-.016-.795.013-1.189.015-.21.085-.434.188-.616.114-.203.297-.179.36.048.091.324.136.659.202.99l.147.721c.265-.226.329-.477.355-.72.068-.647.101-1.297.158-1.945.044-.486.211-.913.498-1.328.521-.755.982-1.554 1.448-2.346.24-.406.462-.443.686-.025.254.475.443.982.658 1.479.094.217.173.438.272.652.046.104.124.192.195.3a.623.623 0 0 0 .267-.667c-.073-.361-.206-.712-.3-1.069-.101-.39-.209-.779-.27-1.177-.023-.16.049-.352.122-.507.103-.225.267-.252.443-.076.179.178.318.395.492.576.099.104.235.167.354.249.067-.146.203-.298.191-.438a3.163 3.163 0 0 0-.205-.878c-.222-.565-.521-1.103-.712-1.676-.138-.416-.164-.871-.209-1.312-.012-.108.078-.299.163-.33.089-.031.265.057.344.144.363.398.704.819 1.06 1.228.087.102.203.174.305.262.035-.018.068-.032.103-.051-.034-.231-.025-.481-.109-.696a6.506 6.506 0 0 0-.524-1.033c-.323-.517-.692-1.002-1.023-1.512-.612-.943-1.017-1.973-1.271-3.069-.183-.788-.443-1.559-.671-2.334-.027-.096-.061-.189-.065-.296.199.317.393.641.599.957.431.664.928 1.274 1.596 1.714.336.22.697.418 1.073.556 1.933.711 3.887 1.372 5.73 2.299.524.267 1.025.588 1.502.936.603.438.826 1.049.646 1.789l-.383 1.562c-.312-.498-.587-.978-.902-1.428s-.704-.832-1.283-1.089c.052.099.067.142.093.177.812 1.119 1.28 2.391 1.642 3.708.037.136-.005.3-.029.447-.166.96-.086 1.922-.043 2.885.01.191.01.39-.017.58-.011.088-.083.198-.158.231-.051.023-.184-.047-.229-.108-.186-.262-.394-.519-.519-.808a202.928 202.928 0 0 1-1.465-3.524c-.598-1.469-1.272-2.895-2.299-4.121-.464-.555-.993-1.038-1.642-1.375a2.603 2.603 0 0 0-.395-.158c1.005 1.039 1.231 2.354 1.276 3.699.059 1.722.025 3.448.042 5.172.018 1.864.172 3.712.728 5.508.021.071-.014.175-.053.246-.157.306-.356.592-.486.908-.273.663-.501 1.343-.768 2.01-.156.392-.209.421-.629.391-.452-.032-.722.227-.962.548-.183.243-.258.237-.384-.048-.137-.31-.245-.629-.393-.934-.051-.104-.181-.172-.275-.256-.072.106-.192.21-.204.323-.039.369-.029.741-.055 1.111a1.98 1.98 0 0 1-.099.542c-.03.081-.154.169-.243.176-.064.005-.175-.104-.202-.186-.091-.263-.145-.537-.228-.802-.067-.213-.162-.236-.289-.062-.925 1.26-2.159 2.153-3.478 2.947-.389.234-.772.479-1.159.715-.027-.009-.054-.019-.079-.026l.149-1.285c-.035-.019-.07-.035-.104-.053-.122.104-.262.19-.364.312-.257.303-.489.625-.749.927-.514.604-1.162 1.036-1.785 1.179.197-.675.385-1.314.571-1.955-.029-.015-.061-.027-.09-.04-.065.08-.14.154-.193.241-.151.245-.3.489-.438.741-.594 1.075-1.51 1.695-2.712 1.868-.818.118-1.645.196-2.469.252-.605.042-1.184.131-1.738.396-.388.175-.804.295-1.212.431-.069.024-.159-.005-.239-.01.006-.087-.012-.188.023-.26.192-.376.401-.743.594-1.119.071-.135.117-.284.173-.427l-.055-.061c-.123.041-.251.069-.366.125-.532.258-1.072.501-1.586.791-.524.296-1.1.32-1.668.368-1.775.149-3.528.03-5.243-.489-1.043-.314-2.007-.788-2.855-1.521.107.011.217.011.321.03 1.036.213 2.072.413 3.138.378.725-.023 1.432-.139 2.07-.507.101-.058.166-.18.248-.271-.143-.05-.293-.146-.43-.128-.331.039-.655.162-.988.189-1.062.095-2.084-.15-3.095-.429-2.448-.672-4.665-1.815-6.724-3.286-.502-.357-1.023-.688-1.544-1.02a8.097 8.097 0 0 1-2.489-2.492 1.993 1.993 0 0 1-.195-.382c-.133-.37-.035-.679.315-.863.249-.132.527-.226.803-.293 3.659-.892 6.384-3.908 6.806-7.639.159-1.399.354-2.802.284-4.221-.161-3.257-1.328-6.095-3.502-8.519-1.293-1.442-2.822-2.589-4.495-3.554-.033-.023-.069-.038-.167-.089z"/><path fill="#8B4FBA" d="M27.897 34.689c-1.554-12.138-6.941-9.391-10.465-16.167-.193.256-.637-1.816.251 2.031.889 3.851 3.436 2.112 5.847 6.516 3.053 5.567 2.443 6.066 4.367 7.62z" opacity=".2"/><path fill="#FFF" d="M11.804 34.461c-.578-3.474-5.49-3.317-9.693-1.843-4.568 1.602-14.057 2.116-14.821.205-.381-.438-1.146 1.363-1.146 1.363s7.207 7.863 19.272-.436c-.491.764 4.336 3 4.336 3s1.452.441 2.052-2.289z" opacity=".3"/><path fill="#8B4FBA" d="M-13.195 1.104c.262-.65 2.396-.212 2.596.803-3.148 3.566 5.14 10.119-2.504 18.672C-8.1 7.384-18.75 6.847-13.195 1.104z" opacity=".2"/><path fill="#8B4FBA" d="M-13.195 1.104c.262-.65.215-.464.415.551-3.148 3.567 5.237 8.768-.323 18.924C-8.1 7.384-18.75 6.847-13.195 1.104z" opacity=".6"/><path fill="url(#d)" d="M-1.723 3.708c15.128 15.919-3.997 13.253-10.23 24.058.011.186.024.366.024.557a9.212 9.212 0 0 1-.998 4.17C-7.093 23.84 7.697 31.47 4.824 13.781c-.259-.91-2.317-9.874-6.547-10.073z"/><path fill="url(#e)" d="M-1.723 3.708C-7.952.651-13.397.562-13.139 1.469c12.375 8.397 2.385 17.05.056 25.201.159.658 1.154.903 1.154 1.65 0 .08-.009.156-.011.235.18-.809.606-1.09 1.014-1.5 5.752-5.802 24.036-7.741 9.203-23.347z"/><path fill="#E65271" d="M-3.674 3.945c9.58 14.308-8.304 17.026-8.174 21.562-1.425-9.33 15.717-13.324-.389-24.491-.258-.906 2.334-.128 8.563 2.929z"/><path fill="url(#f)" d="M23.094 28.8c.761-1.271-.084-2.771-.97-4.176-.818-1.298-2.793-.873-4.133-4.002l.115 2.438c1.485 2.587-1.027 6.148-1.726 8.555-1.19 4.1-2.484 7.883-.907 12.043.107.279.198.585.306.872.786-.581 1.38-1.16 2.057-2.043.447-.586.291 1.512.879 1.071.432-.319-.021-1.803.391-2.146.462-.39.74 1.868 1.075 1.368.781-1.174 1.229-.429 1.562-.781.301-.319 1.005-2.778 1.289-3.111.278-.323.543-.656.805-.991-.158-1.79-.506-3.802-1.082-5.417-.543-1.526-.569-2.162.339-3.68z"/><path fill="#E65271" d="M1.8 47.49a.314.314 0 0 1 .11-.023c.419.007-1.129 1.954-.684 1.954.751 0 1.812-.776 2.547-.833 1.552-.119 3.161-.084 4.536-.713 1.318-.604 1.904-2.479 2.199-2.558.297-.082-.717 2.167-.426 2.067.493-.166.887-.41 1.212-.68 1.3-1.861 1.722-11.084-.185-10.846-2.004.25 3.161-.708 3.182-.631 1.727 6.521-2.121 10.531-1.947 10.305.227-.3.411-.533.606-.608.411-.158-.255 1.572.12 1.343 1.193-.729 2.039-1.243 2.734-1.761.021-.03.027-.102.061-.088.512.213 3.672.956 1.267-10.396 3.652 7.391.793 10.291 1.073 9.988 1.297-1.4 1.562-4.818 1.729-6.845.158-1.901-1.038-6.235-2.588-7.668-1.091-1.008-1.069.24-1.479 1.204-.673 1.583-1.907 2.859-3.027 4.163-.834.97-1.846 1.679-2.763 2.547-.999.946-1.525 2.268-2.418 3.306-.798.928-1.78 1.667-2.539 2.635-.851 1.084-1.421 2.324-2.361 3.322-.299.32-.633.56-.959.816z"/><path fill="url(#g)" d="M8.803 48.526c2.232.007 3.633-1.062 5.48-2.084 1.531-.851 3.412-.859 4.705-2.031 1.717-1.559 2.46-3.104 2.783-5.386.369-2.598.413-5.91-.078-8.499-.252-1.328-1.196-4.05-2.191-5.021l-1.194.76c-2.355 6.081-9.453 8.576-12.139 14.553-.792 1.759-1.09 4.045-1.109 5.967-.021 2.012 2.117 1.736 3.743 1.741z"/><path fill="#F6E8A0" d="M-13.406 33.33a9.274 9.274 0 0 1-5.767 4.039c-.614.137-1.714.519-.625 1.83 1.165 1.818 2.839 2.516 3.74 3.184 3.623 2.69 2.125 2.965 4.239 3.209.826.096.608.168 1.027 0s-.322.118-.587.293c-2.358 1.561-2.188-1.553-1.174-.88 3.018 2.334 9.97 3.972 11.919 3.638.284-.048 2.243-1.18 2.543-1.175.419.007-1.129 1.954-.684 1.954.751 0 1.812-.776 2.547-.833 1.521-.117 6.146-2.238 6.113-7.822-.01-1.706.095-2.902-.135-4.015-1.686-8.168-18.759 3.295-23.156-3.422z"/><path fill="#FFF" d="M7.03 38.365c-.791.988-5.933 2.769-5.933 2.769s-8.54 2.943-16.415-5.438c4.025 3.195 11.098 1.855 16.213 1.265.676-.079-1.461.603-.901.81 1.9.703 3.659-1.267 5.553-.887.883.177 1.414.656 1.483 1.481z"/><path fill="#F6E8A0" d="M.48 39.748c-3.136.826-6.271-.383-6.875-.42.284.427.747 1.412 3.07 1.752.534.079 1.604-.007 2.165-.006 1.004.002 1.627-.24 2.513-.667.565-.272 1.931-.562 2.365-.494 0 0 4.806-.362 3.214-1.992-1.59-1.629-3.912 2.101-9.006.908.001.166 1.165.997 2.554.919z"/><path fill="#F8D285" d="M-4.274 46.507c-1.982 1.312-5.447.187-5.897.193-.01.046.017.097.098.148 3.019 2.334 7.492 2.126 9.441 1.792a.557.557 0 0 0 .093-.03c.422-.162 1.801-.939 2.303-1.11 2.938-1.665 7.58-5.181 7.989-10.751-1.669.742-2.869 1.465-3.791 2.169-.31.237-7.332 7.576-25.917-1.242 0 0-.517.284-.222.948 4.197 6.744 11.86 8.681 24.063 2.294-1.73 2.062-2.569 3.931-8.16 5.589z"/><path fill="url(#h)" d="M7.606 8.604c6.884 7.039 9.689 12.298 6.357 17.961-5.396 9.178-22.014-.395-29.241 8.865.766-.875 2.394-2.608 3.969-3.46 5.357-3.5 15.44-2.374 18.653-5.08 4.133-3.48 5.189-10.497.262-18.286z"/><path fill="url(#i)" d="M-14.819 23.316c-.008-.472 1.072-3.195.903-3.822-1.45-5.353-7.734-7.979-7.734-7.979s-7.037-2.832-8.155-15.776c-1.284-.924-1.106 1.043-1.066 1.917.799 16.976 14.922 15.078 16.052 25.66z"/><path fill="url(#j)" d="M9.123-4.735c-.116.053-.227.123-.348.158-.617.172-1.238.33-1.856.506-.195.055-.381.144-.572.217l.004.124c.222.04.441.11.663.113.887.01 1.775-.002 2.663-.004 1.253-.003 2.512.003 3.721.369a8.9 8.9 0 0 1 1.706.751c5.713 3.18 9.75 7.834 12.179 13.895.497 1.239.878 2.52 1.172 3.82.018.072.026.147.048.272-.095-.058-.156-.086-.213-.123-3.496-2.395-7.314-4.019-11.481-4.808a28.773 28.773 0 0 0-4.509-.466.517.517 0 0 1-.333-.124c-2.266-2.311-4.942-4.019-7.83-5.439C1.834 3.393-.599 2.707-3.1 2.221c-3.207-.623-6.422-1.215-9.63-1.832-3.939-.757-7.858-1.598-11.666-2.886-2.415-.816-4.756-1.797-6.896-3.202-1.611-1.06-3.045-2.312-4.059-3.979-.356-.588-.609-1.239-.915-1.858a1.179 1.179 0 0 0-.202-.312c-2.124-2.077-2.96-4.604-2.634-7.536.242-2.169 1.018-4.153 2.127-6.02.131-.219.242-.447.344-.64.053.473.095 1.003.169 1.528.469 3.341 2.19 5.829 5.117 7.491 1.703.97 3.537 1.611 5.438 2.031 2.084.46 4.186.847 6.287 1.228 2.551.461 5.116.846 7.596 1.628.482.151.959.326 1.432.506.61.229 1.18.524 1.711.918 1.758 1.295 3.684 2.287 5.715 3.081.055.021.109.045.163.066.003.008.004.019.012.042-.033.003-.062.007-.092.007-2.272-.002-4.547-.014-6.819-.002-2.032.013-4.058-.05-6.074-.315-2.791-.37-5.492-1.093-8.122-2.094-3.103-1.184-6.04-2.699-8.887-4.399a.728.728 0 0 0-.257-.108c.053.043.103.091.155.131 3.117 2.363 6.436 4.381 10.097 5.796a30.92 30.92 0 0 0 7.901 1.917c2.396.253 4.793.229 7.191.055 2.074-.151 4.147-.302 6.222-.444.18-.015.373.011.547.062 2.051.624 4.15.991 6.269 1.292 1.251.179 2.486.479 3.726.726.085.017.165.061.245.094a5.4 5.4 0 0 1 .012.072z"/><path fill="#FFF" d="M-29.061-11.728C-20.937-2.023.141-7.11 9.123-4.736 3.436-8.003-1.19-7.438-1.19-7.438s-19.409 2.143-27.871-4.29z" opacity=".2"/><path fill="#E65271" d="M33.056 25.101c-.275-.047-.478-.06-.664-.12-.732-.229-1.495-.399-2.181-.729-.653-.315-1.258-.762-1.824-1.222-1.097-.892-2.144-1.841-3.226-2.744-.886-.739-1.827-1.4-2.947-1.743a8.57 8.57 0 0 0-1.114-.235c1.46.735 2.277 2.045 3.124 3.389-.072-.013-.098-.01-.117-.019-2.226-1.089-4.407-2.252-6.388-3.759-.529-.403-.946-.861-1.244-1.486-.476-.994-1.079-1.929-1.627-2.887l-.117-.2c.48.101.9.168 1.312.273 1.744.446 3.366 1.201 4.958 2.021 2.487 1.287 4.853 2.775 7.151 4.372a.81.81 0 0 0 .232.122c-.021-.029-.038-.061-.063-.085-2.725-2.717-5.781-4.955-9.353-6.438a17.025 17.025 0 0 0-4.813-1.246c-.062-.009-.143-.028-.178-.071-.371-.449-.733-.903-1.143-1.41 1.016.218 1.973.409 2.924.63 2.66.618 5.268 1.403 7.759 2.535 1.84.836 3.593 1.819 5.07 3.217 1.948 1.846 3.382 4.03 4.218 6.588.123.375.161.783.251 1.247z"/><path fill="#8B4FBA" d="M-12.963.399c.789.265 1.688.593 2.647.961C.99 4.886 4.726 7.825 4.726 7.825l11.357 8.408s1.856-1.421 4.258.437c-1.637-1.965-6.66-3.494-6.66-3.494s-.232-1.546-1.87-2.747c4.47 1.519 11.979 1.084 17.189 5.775-3.94-11.144-13.725-2.649-23.182-9.58C4.726 5.969-9.698 2.282-2.53 2.535c7.167.252 11.89-4.639 17.877-3.036C9.727-2.539 4.761.727-3.067 1.276-1.849 1.032-.18.361.531-.556-2.307 1.47-7.861 1.563-9.18 1.1a34.449 34.449 0 0 1-3.783-.701z" opacity=".6"/><path fill="#2B2B2B" d="M14.155-3.038c-8.237-3.272-37.35 6.206-50.421-8.498 0 0-.979.438 4.226 6.273 20.468 9.784 35.701.532 46.195 2.225z" opacity=".2"/><path fill="url(#k)" d="M26.891 9.996c2.437 1.371.457-1.98-1.979-3.959-9.594-6.7-13.933.924-23.448-2.745 14.559 8.025 15.985-1.976 25.427 6.704z" opacity=".7"/><path fill="#8B4FBA" d="M26.146 8.094c2.438 1.371 1.202-.078-1.234-2.058-9.594-6.7-13.933.924-23.448-2.745 9.367 5.212 15.241-3.876 24.682 4.803z" opacity=".2"/><path fill="url(#l)" d="M-21.22 11.687c-4.438-4.062-.958-12.957-.958-12.957l-3.159-.677s-3.188 8.599 4.117 13.634z" opacity=".7"/><path fill="url(#m)" d="M-13.56 18.501c3.345-5.953-5.526-14.142-.762-17.041-.076-.391-2.724-1.719-2.6-1.335-5.879 9.021 3.817 11.172 2.544 16.812-6.799-9.275-6.872-11.111-3.569-16.983-.041-.032-.404-.506-.765-.236-5.165 3.873-6.619 8.224 5.152 18.783z" opacity=".7"/><path fill="#8B4FBA" d="M-2.629 6.403C-2.417 3.615-.47 8.144-.175 11.27c.254 11.698-11.607 8.869-12.149 18.333-1.154-10.766 11.681-10.53 9.695-23.2z" opacity=".2"/><path fill="#FFF" d="M8.871 11.043c.21-2.788 5.808 4.388 6.104 7.513-1.878 20.071-22.536 7.864-27.937 15.258 4.461-8.099 33.336 3.17 21.833-22.771z" opacity=".3"/><path fill="url(#n)" d="M46.669-28.038c-.303-.266-.552-.508-.826-.718a4.45 4.45 0 0 0-.709-.438c-.604-.292-1.212-.33-1.823-.006-.951.504-1.971.542-3.012.428-.303-.032-.501-.176-.64-.459-1.043-2.146-2.781-3.524-4.958-4.396-.249-.1-.366-.216-.41-.487-.111-.683-.157-1.355.005-2.036.263-1.089.941-1.87 1.853-2.471.956-.63 2.021-1.001 3.122-1.277 1.323-.327 2.662-.548 4.029-.544a7.078 7.078 0 0 1 2.05.284c1.493.451 2.414 1.448 2.753 2.955.219.979.426 1.968.526 2.963.229 2.281-.382 4.328-1.889 6.084-.027.034-.045.075-.071.118z"/><path fill="#F6E8A0" d="M42.355-28.207c.113-.685 1.399-.871 1.996-.851 1.051.035 1.731.648 2.414 1.444.11.13.196.258.271.389 1.19-.949 1.855-2.234 1.672-3.545-.324-2.31-3.169-3.817-6.352-3.37-2.201.31-3.988 1.475-4.772 2.928.582.744.81 1.689 1.577 2.333.747.624 2.223.714 3.194.672z" opacity=".3"/><path fill="url(#o)" d="M-35.045-6.486c.689-.34 1.169-.414 1.596-.26-.491 2.5-.748 5.021-.661 7.558.098 2.808.584 5.542 1.816 8.102.156.325.337.64.549.94-.013-.05-.021-.101-.04-.147-.663-1.665-.969-3.403-1.07-5.187-.157-2.78.17-5.516.771-8.225.014-.066.034-.13.061-.226.393.264.776.516 1.149.781.045.033.046.154.036.231a22.12 22.12 0 0 0 0 4.934c.254 2.35.834 4.615 1.661 6.821 1.153 3.08 2.714 5.94 4.622 8.613.044.062.089.124.131.187.009.014.008.031.021.082-.278-.098-.538-.187-.798-.281-1.756-.636-3.476-1.354-5.132-2.222a3.642 3.642 0 0 1-.728-.496c-2.331-2.064-3.705-4.674-4.326-7.701-.093-.45-.159-.908-.284-1.36.028.502.041 1.006.085 1.508.208 2.389.655 4.734 1.46 6.997.205.575.062 1.094-.025 1.634-.027.168-.146.322-.224.483-.129-.125-.288-.23-.381-.378-.662-1.053-1.088-2.209-1.438-3.395-.535-1.814-.854-3.68-1.117-5.554-.244-1.75-.4-3.51-.392-5.279.009-1.789.146-3.562.741-5.27.283-.812.664-1.573 1.213-2.238.196-.238.437-.441.656-.661l.048.009z"/><path fill="#2B2B2B" d="M-26.935 17.654s-4.446-.625-6.321-3.683c-1.876-3.056-2.415-8.312-2.415-8.312s-.96-7.839 2.222-12.404c-2.016 16.74 6.514 24.399 6.514 24.399z" opacity=".2"/><path fill="url(#p)" d="M-35.045-6.486a.761.761 0 0 0-.047-.007c-.917.358-1.634.975-2.219 1.75-.853 1.13-1.302 2.437-1.578 3.804-.411 2.038-.446 4.098-.271 6.159.1 1.177.273 2.35.415 3.521.005.042.006.083.01.168-.072-.062-.123-.097-.164-.14-3.401-3.525-5.957-7.584-7.631-12.191a.693.693 0 0 1 .008-.408c.999-3.194 2.445-6.183 4.216-9.013.748-1.194 1.573-2.34 2.364-3.507.062-.092.134-.175.248-.323.028.587.341 1.062.1 1.637-.309.733-.508 1.504-.467 2.316.016.3.088.58.296.858.207-.588.367-1.167.828-1.61.135.241.162.451.077.709-.321.958-.544 1.937-.483 2.956.019.312.09.619.175.933.279-.765.74-1.391 1.273-1.992.031.046.059.076.076.112a17.463 17.463 0 0 0 2.707 4.023c.049.058.046.163.067.245z"/><path fill="#2B2B2B" d="M-38.485-10.406s-5 9.785-2.66 18.188c.291.23-.469-.363-1.374-1.404-.138-.158-1.815-11.254 1.588-16.146-4.574 5.426-2.408 15.121-2.601 14.838-.409-.604-.776-1.271-1.018-1.968-2.339-10.956 5.745-17.55 5.745-17.55l.32 4.042z" opacity=".2"/><path fill="#E65270" d="M38.031-45.635c-.207-.314-.446-.63-.636-.978a1.275 1.275 0 0 1-.094-1.032c.143-.44.438-.609.895-.545a9.37 9.37 0 0 0 1.104.124c.392.013.42-.04.464-.421.011-.101.024-.205.061-.297.148-.377.367-.702.805-.76.425-.056.724.182.954.509.685.97.117 2.281-1.073 2.439-.369.049-.754-.011-1.132-.021-.073-.003-.145-.016-.218-.022-.018.021-.036.045-.055.066.102.119.181.277.309.352.272.153.562.216.896.178 2.037-.233 3.98.008 5.708 1.229.959.679 1.667 1.57 2.209 2.604.003.007.01.014.013.021.068.188.207.417.022.56-.108.084-.354.047-.517-.006-.761-.25-1.5-.567-2.27-.777-1.126-.308-2.292-.318-3.45-.255-1.565.084-3.103.333-4.581.888-1.657.622-3.152 1.5-4.449 2.709-.149.14-.3.277-.467.39-.283.188-.476.095-.487-.247a2.846 2.846 0 0 1 .071-.729c.554-2.417 2.021-4.117 4.188-5.24.567-.297 1.177-.506 1.73-.739z"/><path fill="url(#q)" d="M-48.025-.646c-.087-8.721 2.718-16.289 8.558-22.715-.082.592-.191 1.184-.241 1.775a90.01 90.01 0 0 0-.185 3.035.952.952 0 0 1-.178.534c-2.187 3.155-4.193 6.419-5.793 9.918-.812 1.775-1.506 3.598-1.878 5.522-.121.622-.186 1.253-.283 1.931z"/><path fill="url(#r)" d="M23.298 28.031c1.046 1.809 2.125 3.55 2.508 5.601.064.343.044.708.023 1.062-.114 1.978.091 3.909.732 5.793.057.167.126.343.122.513a.72.72 0 0 1-.17.415c-.12.141-.283.091-.437.003-.493-.279-.851-.689-1.138-1.166-.584-.959-.895-2.021-1.112-3.106-.595-2.975-.685-5.983-.568-9.007.001-.016.011-.03.04-.108z"/><path fill="#8B4FBA" d="M23.914 39.555c.19.404.972 1.288 1.286 1.543l.707.451c-.71-1.812-.965-3.656-.965-5.586 0-1.626.501-3.136.58-4.754.064-1.333-.517-2.003-1.209-3.088-.312-.488-.738-1.545-1.416-1.549-.314.771-.263 1.737-.271 2.562-.009.987-.167 1.95-.128 2.947.074 1.882 1.09 6.78 1.416 7.474z" opacity=".4"/><path fill="#E65270" d="M48.256-38.39c-.03-.024-.04-.028-.043-.034-.769-1.581-2.136-2.271-3.788-2.41-2.729-.232-5.347.279-7.831 1.421-1.047.482-1.943 1.182-2.447 2.258-.218.465-.324.983-.487 1.494-.542.003-1.187-.533-1.23-1.111-.014-.188.065-.398.15-.574.343-.709.894-1.246 1.495-1.732 1.545-1.247 3.314-2.034 5.232-2.498 2.519-.61 5.038-.628 7.53.127.59.179 1.149.479 1.697.771.424.227.64.615.577 1.12-.068.544-.35.934-.855 1.168z"/><path fill="#2B2B2B" d="M48.256-38.39c-.03-.024-.04-.028-.043-.034-.769-1.581-2.136-2.271-3.788-2.41-2.729-.232-5.347.279-7.831 1.421-1.047.482-1.943 1.182-2.447 2.258-.218.465-.324.983-.487 1.494-.542.003-1.187-.533-1.23-1.111-.014-.188.065-.398.15-.574.343-.709.894-1.246 1.495-1.732 1.545-1.247 3.314-2.034 5.232-2.498 2.519-.61 5.038-.628 7.53.127.59.179 1.149.479 1.697.771.424.227.64.615.577 1.12-.068.544-.35.934-.855 1.168z" opacity=".4"/><path fill="#0D0D0D" d="M20.855-13.299a6.002 6.002 0 0 1 .606-2.768c.852-1.751 2.257-2.896 4.017-3.647 1.535-.656 3.146-.879 4.806-.793.021.001.042.01.113.032a14.88 14.88 0 0 0-3.286.885c-1.81.723-3.406 1.751-4.645 3.284a8.84 8.84 0 0 0-1.508 2.735c-.03.092-.068.182-.103.272zM34.411.682c1.787 1.091 2.173 3.654 1.028 5.119.269-1.83-.101-3.53-1.028-5.119zm2.947-10.058c.874-.716 1.925-.914 3.022-.895.438.011.874.083 1.312.104.237.011.485-.004.718-.055.442-.101.639-.033.79.391.342.967.503 1.969.388 2.99-.056.49-.158.992-.352 1.441-.763 1.783-3.073 2.516-4.784 1.542a4.437 4.437 0 0 1-.625-.433c-.208-.169-.396-.365-.612-.567.096-.111.176-.218.266-.311a.775.775 0 0 0 .222-.745c-.196-.886.187-1.515.926-1.918.528-.288 1.106-.495 1.681-.687.296-.101.601-.173.911-.235a.289.289 0 0 1 .209.078c.461.298.791.689.995 1.201.11-.302.088-.804-.009-1.177-.06-.23-.021-.794.096-.958a.286.286 0 0 1-.024-.03 1.899 1.899 0 0 0-.161.085c-.592.363-1.254.478-1.929.562-.835.106-1.647.297-2.358.778-.856.579-1.315 1.384-1.364 2.419-.002.032-.007.062-.018.147-.774-1.513-.537-2.712.7-3.727z"/><path fill="url(#s)" d="M38.491-6.119a1.704 1.704 0 1 1 3.407 0 1.704 1.704 0 0 1-3.407 0z"/><use width="6" height="7" x="-3" y="-3.5" overflow="visible" transform="matrix(-.2012 0 0 .2012 39.05 -5.13)" xlink:href="#t"/><path fill="#FFF" d="M46.108-34.83c.302-.188.773-.108.948.224.726 1.382.66 2.992-.051 4.366-.408.788-1.63.152-1.223-.633.485-.939.584-2.093.101-3.014-.173-.33-.111-.736.225-.943z"/><path fill="#430A1D" d="M-27.877-38.809c-.43 12.319 7.165 8.312 10.544 13.513.276.324.437.688.563.97-3.793-2.088-14.424-.693-11.107-14.483z" opacity=".2"/><path fill="#2B2B2B" d="M-33.661-14.793c10.431 8.98 31.025 8 32.532 7.873-8.638-6.161-34.552-.369-35.502-19.122-1.683 5.326.484 9.108 2.97 11.249z" opacity=".2"/><path fill="#430A1D" d="M-16.988-24.815v-4.645c.001-1.922-2.416-.874-3.348 1.765 2.329.913 3.348 2.88 3.348 2.88z" opacity=".2"/><path fill="#430A1D" d="M-18.28-25.728c1.747 3.083-.048 5.75-.327 5.864.993.052 2.9 1.914 3.354 2.534.71.971.753 2.381.813 3.534 1.409.063 2.4.926 3.682 1.232-1.09-1.021-2.569-2.229-3.231-3.605-.589-1.222-1.087-2.629-1.483-3.929-.323-1.065-.624-2.123-.824-3.222-.148-.818-.631-1.919-.543-2.716 0 0-.18-7.171 1.258-10.712-2.722.927-4.151 3.149-4.647 4.009-.561.973-1.618 3.392-.309 4.933.846.309 1.772 1.223 2.257 2.078z" opacity=".2"/><path fill="#0D0D0D" d="M-43.785-35.043c5.482-7.553 12.814-12.407 21.927-14.516 3.036-.703 6.123-.896 9.237-.884 7.618.033 15.235.014 22.852.015 5.124.002 10.248 0 15.371.013 1.219.002 2.435.083 3.601.489 1.144.396 2.027 1.097 2.518 2.232.705 1.639.103 3.701-1.417 4.812-1.116.814-2.396 1.051-3.745.991-.362-.018-.724-.074-1.085-.111-.083-.009-.172-.028-.251-.01-.116.025-.226.083-.338.125.064.094.11.208.194.277 1.393 1.185 2.352 2.645 2.811 4.417.167.645.216 1.3.156 1.961-.004.052-.008.103-.01.152-.013.342.103.448.441.464.996.046 1.992.085 2.985.163.475.038.944.154 1.479.188-.063-.082-.109-.203-.192-.241-.794-.367-1.313-.979-1.573-1.795-.305-.961-.519-1.943-.475-2.962.068-1.646.708-3.062 1.75-4.311.937-1.12 2.091-1.963 3.396-2.603.168-.082.212-.154.154-.344a2.52 2.52 0 0 1 .043-1.62c.115-.328.326-.566.627-.735a2.499 2.499 0 0 1 2.224-.123c.021-.107.039-.228.066-.332.216-.82.745-1.146 1.544-1.626h.558c.023 0 .044.059.067.063 1.407.237 1.998 1.523 1.835 2.741-.042.314-.133.623-.194.906.637.168 1.294.298 1.921.517 2.895 1.008 4.806 2.962 5.616 5.938.323 1.191.123 2.258-.801 3.142-.058.058-.063.198-.049.293.179 1.125.457 2.242.53 3.374.173 2.686-.671 5.041-2.538 7.004-.11.115-.117.213-.088.354.123.602.264 1.203.338 1.812.153 1.229-.316 2.247-1.135 3.134-.072.079-.153.164-.187.262-.229.683-.702 1.148-1.327 1.462-1.26.635-2.596.764-3.973.535-.902-.151-1.725-.531-2.54-.917-.36-.17-.689-.255-1.022.036-.056.049-.145.061-.198.107-.092.087-.247.208-.229.281.024.112.156.239.272.285.634.25 1.289.385 1.976.385.515 0 1.033.014 1.543.075 1.627.197 3.119.784 4.52 1.62a.875.875 0 0 0 .302.121 4.317 4.317 0 0 1 3.582 3.502c.032.182.028.391.122.536.767 1.186.83 2.446.386 3.741-.281.819-.671 1.604-.98 2.413-.164.435-.333.883-.375 1.335-.112 1.283-.282 2.554-.626 3.793-.735 2.646-2.045 4.939-4.148 6.738-2.123 1.815-4.612 2.771-7.369 3.064-.243.025-.371.103-.478.343-.602 1.365-1.592 2.324-3.017 2.822-.37.129-.739.158-1.087.001-.496-.229-1.001-.457-1.446-.771-1.164-.812-2.085-1.867-2.85-3.06-.059-.09-.126-.208-.215-.238-.12-.039-.297-.053-.389.011-.071.048-.087.242-.059.355.032.133.134.251.214.368 2.026 2.93 3.315 6.153 3.908 9.666a.65.65 0 0 0 .181.312c.497.507 1.012.996 1.505 1.507.79.815 1.274 1.801 1.532 2.897.067.287.099.582.119.875.006.089-.081.183-.125.275-.095-.055-.219-.088-.277-.167-.135-.184-.23-.395-.354-.585-.082-.126-.189-.233-.286-.354-.03.071-.023.111-.008.148.531 1.35.899 2.741 1.077 4.183.05.401.084.808.094 1.212.008.294-.187.48-.384.401a.914.914 0 0 1-.277-.212c-.788-.78-1.717-1.359-2.669-1.907-.021.029-.037.042-.038.057-.026.142-.052.282-.073.424-.255 1.665-.694 3.284-1.201 4.89-.388 1.226-.607 2.479-.393 3.771.128.769.401 1.467 1.054 1.957.05.037.083.096.14.162-.076.039-.123.077-.176.088-.944.208-1.919.086-2.448-.997-.06-.121-.14-.23-.25-.412-.119.238-.237.394-.275.564a8.441 8.441 0 0 0-.154 2.596c.101 1.078.482 2.065.951 3.027.121.25.236.507.314.771.139.479-.128.833-.629.825a2.261 2.261 0 0 1-.741-.131c-1.234-.464-2.172-1.279-2.796-2.446-.051-.095-.097-.189-.153-.303-.495.481-.946.95-1.181 1.592a9.622 9.622 0 0 1-.554 1.192c-.148.276-.258.27-.438.019-.049-.068-.092-.142-.145-.207-.138-.167-.245-.168-.354.021-.097.166-.17.349-.236.528a4.902 4.902 0 0 1-1.572 2.169c-.049.037-.105.066-.22.137.042-.275.077-.488.105-.702.03-.219.055-.438.083-.669-.066.008-.085.006-.098.014a4.84 4.84 0 0 0-.211.141A28.094 28.094 0 0 1 9.737 49.1c-1.053.25-2.157.338-3.108.936-.021.014-.048.021-.071.032-.188.074-.326.033-.472-.113-.093-.092-.259-.133-.391-.131-.423.01-.844.103-1.265.138-.386.032-.784.12-1.156.213-.636.161-1.255.78-1.881.78H.936c-.146 0-.319-.42-.437-.567-.207-.259-.461-.562-.786-.583a35.357 35.357 0 0 1-6.379-.969c-3.192-.792-6.191-2.021-8.877-3.953-1.963-1.413-3.647-3.091-4.841-5.218-.244-.432-.437-.896-.63-1.353a1.532 1.532 0 0 1-.06-1.093c.102-.303.331-.471.639-.423 1.755.276 3.24-.365 4.61-1.36 1.362-.991 2.4-2.261 2.992-3.849.872-2.346.4-4.446-1.244-6.305-.166-.188-.354-.358-.556-.562-.076.285-.139.544-.214.803-.372 1.27-.903 2.455-1.807 3.445-.525.577-.733-.106-.601-1.151.284-2.222-.398-4.133-1.945-5.739-.094-.099-.236-.16-.369-.207-1.63-.578-3.271-1.126-4.892-1.729-2.894-1.076-5.688-2.371-8.336-3.965-.036-.021-.074-.041-.113-.062a.728.728 0 0 0-.343.674c.014.36.073.72.115 1.079.004.043.018.083.022.125.086.635-.162.842-.747.558a2.474 2.474 0 0 1-.773-.631c-.674-.807-1.092-1.763-1.493-2.721-.212-.506-.38-1.03-.594-1.535a1.364 1.364 0 0 0-.353-.5c-2.293-1.95-4.429-4.048-6.24-6.464a35.882 35.882 0 0 1-3.95-6.625c-.027-.062-.058-.122-.088-.182-.008-.014-.024-.021-.058-.052a22.992 22.992 0 0 0-.215 6.192c-.165-.616-.348-1.229-.492-1.85-.588-2.504-.771-5.039-.596-7.604.009-.13-.024-.27-.064-.396-.763-2.398-1.291-4.849-1.515-7.354-.783-8.752 1.344-16.754 6.509-23.872zm-2.079 26.944c1.6-3.499 3.606-6.763 5.793-9.918a.964.964 0 0 0 .178-.534 90.17 90.17 0 0 1 .185-3.035c.05-.594.159-1.186.241-1.775-5.84 6.426-8.645 13.994-8.558 22.715.098-.677.162-1.309.283-1.929.372-1.926 1.066-3.747 1.878-5.524zm21.461 25.819c-.013-.051-.012-.068-.021-.082-.042-.062-.087-.124-.131-.187-1.908-2.673-3.469-5.534-4.622-8.613-.827-2.206-1.407-4.473-1.661-6.821a22.12 22.12 0 0 1 0-4.934c.01-.077.009-.198-.036-.231-.373-.267-.757-.519-1.149-.781-.026.095-.047.158-.061.226-.602 2.709-.929 5.443-.771 8.225.102 1.782.407 3.521 1.07 5.187.019.048.027.099.04.147a6.655 6.655 0 0 1-.549-.94c-1.232-2.561-1.719-5.294-1.816-8.102-.087-2.536.17-5.058.661-7.558-.427-.153-.906-.08-1.596.26-.021-.083-.019-.188-.067-.244a17.55 17.55 0 0 1-2.707-4.023c-.018-.037-.045-.066-.076-.112-.533.604-.994 1.229-1.273 1.992a4.63 4.63 0 0 1-.175-.933c-.061-1.021.162-1.998.483-2.956.085-.258.058-.468-.077-.709-.461.442-.621 1.022-.828 1.61a1.494 1.494 0 0 1-.296-.858c-.041-.812.158-1.583.467-2.316.241-.573-.071-1.05-.1-1.637-.114.148-.187.23-.248.323-.791 1.167-1.616 2.312-2.364 3.507-1.771 2.831-3.217 5.817-4.216 9.013a.693.693 0 0 0-.008.408c1.674 4.605 4.229 8.666 7.631 12.191.041.043.092.078.164.14-.004-.084-.005-.126-.01-.168-.142-1.173-.315-2.346-.415-3.521-.175-2.062-.14-4.121.271-6.159.276-1.367.726-2.673 1.578-3.804.585-.774 1.302-1.392 2.22-1.75-.221.22-.461.422-.657.661-.549.665-.93 1.427-1.213 2.238-.596 1.707-.732 3.479-.741 5.27-.009 1.771.147 3.528.392 5.279.263 1.874.582 3.737 1.117 5.554.35 1.186.775 2.342 1.438 3.395.093.146.252.253.381.378.077-.161.196-.315.224-.483.088-.541.23-1.06.025-1.634-.805-2.264-1.252-4.607-1.46-6.997-.044-.502-.057-1.006-.085-1.508.125.452.191.91.284 1.36.621 3.027 1.995 5.637 4.326 7.701.219.193.469.362.728.496 1.656.866 3.376 1.586 5.132 2.222l.797.278zm51.087 23.279c.004-.17-.065-.346-.122-.513-.642-1.884-.847-3.816-.732-5.793.021-.354.041-.72-.023-1.062-.383-2.05-1.462-3.792-2.508-5.601-.029.078-.039.092-.039.104-.116 3.021-.026 6.032.568 9.007.218 1.087.528 2.147 1.112 3.106.287.476.645.886 1.138 1.166.153.087.316.138.437-.003a.709.709 0 0 0 .169-.411zm1.249-16.018a11.26 11.26 0 0 0-1.502-.934c-1.844-.927-3.798-1.587-5.73-2.299a5.355 5.355 0 0 1-1.073-.556c-.668-.438-1.165-1.052-1.596-1.716-.206-.314-.399-.638-.599-.957.005.107.038.201.065.298.228.776.488 1.546.671 2.334.255 1.099.659 2.126 1.271 3.068.331.509.7.996 1.023 1.513.204.324.382.676.524 1.032.084.214.075.464.109.697-.034.017-.067.034-.103.05-.102-.086-.218-.161-.305-.261-.355-.407-.696-.828-1.06-1.228-.079-.089-.255-.176-.344-.144-.085.031-.175.22-.163.33.045.441.071.896.209 1.312.19.573.49 1.11.712 1.677.109.276.18.582.205.878.012.14-.124.292-.191.437-.119-.081-.256-.146-.354-.249-.174-.183-.313-.397-.492-.577-.177-.175-.341-.146-.443.077-.073.156-.146.348-.122.506.061.397.169.787.27 1.179.094.356.227.708.3 1.067a.619.619 0 0 1-.267.667c-.071-.104-.149-.193-.195-.298-.1-.214-.179-.438-.272-.652-.215-.494-.404-1.005-.658-1.479-.224-.417-.445-.38-.686.025-.466.792-.927 1.59-1.448 2.346a2.703 2.703 0 0 0-.498 1.328c-.058.646-.09 1.298-.158 1.945-.026.241-.091.492-.355.72-.056-.273-.103-.497-.147-.722-.066-.33-.111-.666-.202-.989-.063-.228-.246-.251-.36-.048a1.515 1.515 0 0 0-.188.614c-.028.396.008.794-.013 1.191-.008.18-.073.361-.141.532-.029.073-.126.122-.192.182-.044-.074-.103-.142-.128-.223-.031-.095-.034-.198-.049-.299-.043-.292-.067-.591-.136-.875-.073-.309-.267-.361-.459-.111-.176.229-.315.5-.403.774-.135.426-.192.872-.321 1.302-.06.201-.198.385-.327.556-.048.062-.188.102-.265.079-.057-.015-.113-.146-.116-.228-.007-.328.006-.658.011-.987v-.502c-.072.016-.1.015-.118.026a.64.64 0 0 0-.115.099c-.338.359-.565.776-.636 1.271-.031.219-.042.438-.083.653-.05.254-.202.351-.46.319-.271-.032-.443-.229-.47-.573-.019-.224-.004-.448-.004-.706-.308.158-.582.303-.86.44a27.237 27.237 0 0 1-8.991 2.647c-2.033.237-4.066.243-6.082-.166-1.219-.247-2.38-.644-3.387-1.407-.148-.11-.284-.238-.426-.358 1.122.649 1.778.914 2.79 1.106 1.842.354 3.686.301 5.527.034a27.18 27.18 0 0 0 9.177-3.062c2.23-1.216 4.244-2.707 5.873-4.68.123-.146.239-.299.354-.449-3.335 1.593-7.102-1.404-10.87-.074 5.164-2.662 8.222.767 11.134-1.452.741-.564.873-2.019-.821-1.775-1.616.231 2.434-.569 3.16-4.778a13.533 13.533 0 0 0-.294-2.101c-.696-3.153-2.164-5.938-4.18-8.438-2.076-2.572-4.683-4.489-7.613-5.988a.959.959 0 0 1-.146-.049c.008.035.007.053.013.062.041.065.083.129.125.192 1.4 2.081 2.55 4.278 3.109 6.746.384 1.69.43 3.384-.104 5.058-.597 1.869-1.791 3.292-3.351 4.432C1.745 25.67-.23 26.468-2.289 27.08c-.44.131-.888.247-1.386.384.056-.06.062-.076.076-.081.085-.036.172-.069.259-.103 1.438-.562 2.808-1.248 4.05-2.175 1.788-1.329 3.103-3.003 3.7-5.18.527-1.925.41-3.85-.06-5.765-.607-2.48-1.731-4.727-3.088-6.875-.31-.491-.679-.818-1.237-.984-.675-.199-1.335-.458-2.065-.716C.026 7.803.083 10.923-.313 12.754c-.007-.032-.016-.053-.017-.075-.071-1.492-.579-2.836-1.413-4.062-1.244-1.83-2.929-3.164-4.831-4.249-.147-.084-.327-.111-.492-.164.688.793 1.215 1.657 1.524 2.647.3.958.404 2.46.205 2.999-.314-1.047-.641-1.729-1.34-2.62a18.743 18.743 0 0 0-4.208-3.951 16.473 16.473 0 0 0-3.437-1.82C-16.479.632-18.729.125-20.967-.423a187.24 187.24 0 0 1-5.881-1.525c-1.065-.298-2.088-.737-2.973-1.431-.158.352-.455 1.596-.466 2.584-.129 11.646 9.138 17.871 11.962 21.129.822.949 1.294 2.112 1.707 3.288.168.477.312.961.47 1.456.027-.035.053-.059.066-.084.789-1.515 1.275-3.062.895-4.816-.58-2.683-1.659-5.079-3.694-6.979-.022-.021-.04-.048-.11-.128.099.051.134.064.167.086 1.673.964 3.202 2.11 4.495 3.554 2.174 2.424 3.341 5.261 3.502 8.519.07 1.419-.125 2.82-.284 4.221-.422 3.729-3.146 6.748-6.806 7.639a3.54 3.54 0 0 0-.803.293c-.351.187-.448.493-.315.863.048.133.119.262.195.382a8.13 8.13 0 0 0 2.489 2.492c.521.331 1.042.661 1.544 1.02 2.059 1.472 4.275 2.614 6.724 3.286 1.011.277 2.033.522 3.095.429.333-.027.657-.15.988-.189.137-.018.287.079.432.123-.082.089-.147.211-.248.268-.639.368-1.346.482-2.07.506-1.065.036-2.102-.166-3.138-.377-.104-.021-.214-.021-.321-.03.849.734 1.812 1.208 2.855 1.521 1.715.521 3.468.638 5.243.489.568-.048 1.144-.071 1.668-.368.514-.29 1.054-.533 1.586-.791.115-.056.243-.084.366-.125l.055.06c-.056.144-.102.292-.173.428-.192.376-.401.743-.594 1.119-.035.071-.018.173-.023.26.08.004.17.034.239.01.408-.136.824-.256 1.212-.438.555-.264 1.133-.354 1.738-.395.824-.057 1.65-.135 2.469-.252 1.202-.173 2.118-.793 2.712-1.868.139-.251.287-.497.438-.742.054-.087.128-.161.193-.24.029.013.061.024.09.04l-.571 1.954c.623-.142 1.271-.573 1.785-1.178.26-.302.492-.625.749-.927.103-.12.242-.208.364-.312.034.019.069.034.104.054-.05.428-.101.855-.149 1.285.025.009.052.019.079.026.387-.236.771-.479 1.159-.715 1.318-.794 2.553-1.688 3.478-2.948.127-.174.222-.149.289.062.083.265.137.539.228.802.027.08.138.189.202.185.089-.007.213-.095.243-.176a1.96 1.96 0 0 0 .099-.542c.025-.37.016-.742.055-1.11.012-.113.132-.218.204-.323.095.084.225.15.275.256.147.303.256.624.393.933.126.286.201.291.384.048.24-.321.51-.58.962-.548.42.032.473.001.629-.39.267-.667.494-1.347.768-2.01.13-.316.329-.604.486-.908.039-.072.073-.175.053-.246-.556-1.795-.71-3.644-.728-5.508-.017-1.725.017-3.45-.042-5.172-.045-1.347-.271-2.661-1.276-3.699.139.044.271.094.395.158.648.336 1.178.819 1.642 1.375 1.026 1.228 1.701 2.65 2.299 4.121.479 1.178.962 2.355 1.465 3.523.125.29.333.546.519.809.045.062.178.133.229.107.075-.033.147-.145.158-.23.026-.19.026-.39.017-.58-.043-.963-.123-1.925.043-2.885.024-.147.066-.312.029-.447-.361-1.317-.83-2.589-1.642-3.708-.025-.035-.041-.078-.093-.177.579.258.968.64 1.283 1.089.315.451.591.93.902 1.428l.383-1.562c.179-.747-.045-1.358-.647-1.797zm.654-7.717c-1.478-1.396-3.23-2.381-5.07-3.217-2.491-1.132-5.099-1.917-7.759-2.535-.951-.221-1.908-.412-2.924-.63.409.507.771.961 1.143 1.41.035.043.115.062.178.071 1.667.173 3.269.604 4.813 1.246 3.571 1.482 6.628 3.722 9.353 6.438.025.025.043.057.063.085a.798.798 0 0 1-.232-.122c-2.299-1.596-4.664-3.084-7.151-4.372-1.592-.82-3.214-1.575-4.958-2.021-.411-.105-.831-.175-1.312-.273.067.114.093.156.117.2.548.958 1.151 1.893 1.627 2.887.298.625.715 1.083 1.244 1.486 1.98 1.507 4.162 2.67 6.388 3.759.02.009.045.006.117.019-.847-1.344-1.664-2.652-3.124-3.389a8.57 8.57 0 0 1 1.114.235c1.12.343 2.062 1.003 2.947 1.743 1.082.903 2.129 1.854 3.226 2.744.566.46 1.171.904 1.824 1.222.686.331 1.448.502 2.181.729.187.062.389.072.664.12-.09-.464-.128-.871-.251-1.249-.836-2.556-2.27-4.742-4.218-6.586zM15.104-2.501a8.9 8.9 0 0 0-1.706-.751c-1.209-.366-2.468-.372-3.721-.369-.888.002-1.776.014-2.663.004-.222-.003-.442-.073-.663-.113l-.004-.124c.191-.073.377-.162.572-.218.618-.176 1.239-.334 1.856-.506.12-.035.231-.104.348-.158l-.012-.072c-.08-.032-.16-.077-.245-.096-1.24-.245-2.475-.545-3.726-.723C3.022-5.929.922-6.296-1.129-6.92a1.586 1.586 0 0 0-.547-.065c-2.074.143-4.147.293-6.222.444-2.398.175-4.796.198-7.191-.055a30.816 30.816 0 0 1-7.901-1.917c-3.661-1.415-6.979-3.433-10.097-5.796-.053-.04-.103-.088-.155-.131.102.02.181.062.257.108 2.847 1.7 5.784 3.217 8.887 4.399 2.63 1.001 5.331 1.724 8.122 2.094 2.017.267 4.042.328 6.074.315 2.272-.012 4.547 0 6.819.001.03 0 .059-.004.092-.007-.008-.018-.009-.029-.013-.032-.054-.022-.108-.046-.163-.067-2.031-.794-3.957-1.786-5.715-3.081a6.911 6.911 0 0 0-1.711-.918 26.713 26.713 0 0 0-1.432-.506c-2.479-.783-5.045-1.167-7.596-1.628-2.102-.379-4.203-.768-6.287-1.228-1.9-.419-3.734-1.062-5.438-2.031-2.927-1.662-4.648-4.15-5.117-7.491-.074-.525-.116-1.057-.169-1.528-.102.19-.213.42-.344.64-1.109 1.865-1.885 3.851-2.127 6.02-.326 2.931.51 5.459 2.634 7.536.086.085.146.199.202.312.306.62.559 1.271.915 1.858 1.014 1.665 2.447 2.919 4.059 3.979 2.141 1.405 4.481 2.386 6.896 3.202C-20.589-1.205-16.67-.364-12.731.393c3.208.617 6.423 1.209 9.63 1.832 2.502.484 4.935 1.17 7.238 2.305 2.889 1.422 5.564 3.13 7.829 5.439.075.078.219.12.333.124 1.515.043 3.02.185 4.509.466 4.167.79 7.985 2.413 11.481 4.808.057.037.118.065.213.123-.021-.125-.03-.2-.048-.272a25.044 25.044 0 0 0-1.172-3.82C24.854 5.333 20.816.679 15.104-2.501zm33.525-31.737c-.101-.996-.308-1.983-.526-2.963-.339-1.507-1.26-2.504-2.753-2.955a7.108 7.108 0 0 0-2.05-.284c-1.367-.003-2.706.217-4.029.544-1.102.276-2.166.647-3.122 1.277-.911.601-1.59 1.382-1.853 2.471-.162.681-.116 1.354-.005 2.036.044.271.161.39.41.487 2.177.869 3.915 2.248 4.958 4.396.139.284.337.428.64.459 1.041.115 2.061.077 3.012-.428.611-.324 1.22-.287 1.823.006.248.121.489.271.709.438.274.209.523.452.826.718.026-.044.044-.084.071-.116 1.507-1.758 2.117-3.805 1.889-6.086zm-16.1-4.448c.167-.109.317-.25.467-.388 1.297-1.209 2.792-2.087 4.449-2.709 1.479-.555 3.016-.804 4.581-.888 1.158-.062 2.324-.052 3.45.255.77.21 1.509.527 2.27.777.162.053.408.09.517.006.185-.143.046-.37-.022-.56-.003-.008-.01-.015-.013-.021-.542-1.033-1.25-1.926-2.209-2.604-1.728-1.221-3.671-1.462-5.708-1.229a1.42 1.42 0 0 1-.896-.178c-.128-.073-.207-.231-.309-.352.019-.021.037-.045.055-.066.073.008.145.021.218.022.378.012.763.07 1.132.021a1.542 1.542 0 0 0 1.073-2.439c-.23-.327-.529-.562-.954-.509-.438.058-.656.383-.805.76a1.17 1.17 0 0 0-.061.297c-.044.381-.072.434-.464.421-.369-.011-.737-.068-1.104-.124-.456-.064-.752.104-.895.545-.116.356-.081.716.094 1.032.189.346.429.661.636.978-.554.231-1.163.44-1.729.734-2.167 1.123-3.635 2.823-4.188 5.24a2.79 2.79 0 0 0-.071.729c.011.346.203.439.486.25zm1.13 3.025c.163-.511.27-1.029.487-1.494.504-1.076 1.4-1.774 2.447-2.258 2.484-1.142 5.103-1.653 7.831-1.421 1.652.14 3.02.83 3.788 2.41.003.006.013.01.043.034.505-.234.787-.624.855-1.172.062-.504-.153-.894-.577-1.119-.548-.292-1.107-.593-1.697-.771-2.492-.755-5.012-.737-7.53-.127-1.918.464-3.688 1.251-5.232 2.498-.602.486-1.152 1.022-1.495 1.732-.085.176-.164.388-.15.574.044.581.688 1.117 1.23 1.114zm-79.147 12.688c-2.023 3.519-3.076 7.254-3.077 7.827a34.967 34.967 0 0 0 .401 5.354c.062.412.144.821.215 1.232a.478.478 0 0 0 .124-.229c.299-.993.559-2 .901-2.978 1.798-5.125 4.533-9.722 7.92-13.945a1.71 1.71 0 0 0 .29-.523 22.034 22.034 0 0 1 3.146-6.188c-1.518.647-3.248.88-5.308 3.251 2.531-4.881 8.527-6.815 8.527-6.815 3.337-2.985 7.219-4.958 11.52-6.139.347-.095.698-.171 1.049-.255-.077.074-.163.104-.249.138-3.2 1.145-6.15 2.741-8.82 4.846-3.323 2.62-5.835 5.848-7.337 9.828-.161.428-.237.827-.072 1.269.112.3.17.619.263.926.706 2.307 1.811 4.381 3.588 6.055 1.7 1.604 3.743 2.573 5.959 3.227 2.654.778 5.396 1.065 8.125 1.423 1.583.206 3.158.456 4.736.697.424.063.843.168 1.294.261-.034-.056-.044-.081-.061-.101a20.15 20.15 0 0 1-3.075-4.568.494.494 0 0 0-.27-.239c-.729-.23-1.453-.503-2.201-.653-1.109-.221-2.243-.306-3.352-.524-5.947-1.181-7.78-4.367-7.753-4.338 1.806 1.918 4.696 2.459 5.459 2.725 1.78.619 3.624.787 5.493.769.546-.008 1.091-.04 1.653-.062-1.676-5.474-1.456-10.81.816-16.037.002.098-.02.193-.044.287-.889 3.376-1.249 6.791-.741 10.267.613 4.221 2.448 7.817 5.513 10.78 2.297 2.22 4.998 3.818 7.896 5.106 2.753 1.224 5.647 1.981 8.565 2.685 2.196.529 4.401 1.048 6.569 1.687 2.904.851 5.533 2.249 7.773 4.315.347.32.697.647.983 1.021 1.887 2.442 4.188 4.354 7.019 5.6.179.599.492 1.231.979 1.891.692.926 1.548 1.689 2.47 2.374.261.193.608.304.933.368.354.073.567-.098.688-.441.032-.097.054-.194.073-.293.189-.065.377-.167.562-.311.127-.098.249-.204.361-.315.521-.524.886-1.148 1.182-1.817.064-.145.15-.202.299-.221.351-.046.703-.095 1.05-.162C42.178 4.968 46.279.688 46.994-5.466c.064-.555.06-1.13.226-1.65.212-.661.564-1.277.856-1.913.257-.559.539-1.107.761-1.681a2.783 2.783 0 0 0 .079-1.816c-.061-.212-.185-.268-.35-.165-.232.146-.441.329-.662.494-.269.201-.52.431-.811.59-.237.131-.506.104-.718-.139.049-.037.09-.066.126-.1.58-.517 1.162-1.029 1.733-1.556a.397.397 0 0 0 .111-.285c-.051-.817-.322-1.558-.903-2.146-.747-.757-1.626-1.161-2.718-.905-.028-.407-.056-.477-.29-.603-1.519-.823-3.129-1.308-4.87-1.275-1.281.022-2.436-.384-3.538-1a4.786 4.786 0 0 0-1.086-.463c-1.19-.316-2.412-.407-3.64-.439-.101-.002-.2-.008-.3-.013a.331.331 0 0 1 .189-.108c.98-.231 1.973-.261 2.974-.188.324.023.689.093.971-.021.826-.336 1.627-.738 2.422-1.147.223-.115.419-.17.645-.086.505.189 1.012.376 1.504.595 1.046.465 2.117.745 3.272.586.632-.086 1.248-.225 1.799-.562.357-.22.639-.5.667-.956.005-.064.063-.135.115-.183.148-.137.312-.26.461-.396.44-.406.626-.91.572-1.505-.047-.5-.195-.583-.63-.362-.21.106-.429.193-.649.025.279-.178.552-.338.813-.518.391-.268.53-.654.516-1.119-.041-1.294-1.567-2.439-2.877-2.15-.432.095-.818.266-1.054.675-.031.054-.12.111-.18.107-.342-.019-.691-.017-1.021-.091-.605-.137-1.204-.282-1.827-.164-.287.055-.57.134-.867.202a6.331 6.331 0 0 0-1.124-2.177c-1.185-1.506-2.743-2.46-4.54-3.049-2.33-.765-4.724-.849-7.121-.505-3.465.495-5.921 2.376-7.246 5.639-.328.807-.497 1.678-.744 2.521a17.992 17.992 0 0 1-1.631 3.892c-1.133 1.978-2.62 3.606-4.657 4.68-2.288 1.206-4.72 1.447-7.239.999-.478-.085-.948-.208-1.477-.327.921-.055 1.768-.074 2.607-.159 2.337-.235 4.527-.937 6.517-2.197 2.367-1.501 4.137-3.469 4.877-6.261.395-1.491.95-2.938 1.643-4.324.461-.928.971-1.817 1.683-2.58 1.183-1.268 2.669-1.983 4.307-2.444a40.598 40.598 0 0 0 1.501-.457c.246-.08.4-.254.497-.503a3.88 3.88 0 0 0 .205-2.188c-.229-1.178-.805-2.178-1.58-3.072-.666-.771-1.5-1.334-2.334-1.897-.406-.271-.8-.566-1.17-.885-.32-.272-.515-.646-.495-1.073.035-.763.08-.884.84-.631.119.04.237.087.353.138.621.267 1.239.539 1.863.8 1.198.501 2.441.686 3.717.379 1.415-.338 2.413-1.169 2.862-2.589.092-.291.114-.6-.042-.861-.075-.129-.268-.256-.411-.26-.129-.004-.281.143-.387.258-.065.072-.063.206-.092.312-.146.548-.385 1.032-.923 1.298-.102.051-.218.064-.328.097.717-.744 1.105-1.586 1.053-2.601-.039-.771-.643-1.273-1.42-1.229-.226.013-.385.119-.41.339-.031.267-.019.537-.024.806-.009.32.015.646-.03.96-.071.515-.388.85-.883 1.009-.239.076-.469.035-.691-.078.312-.064.61-.158.767-.45.151-.28.305-.572.381-.877.163-.658.084-1.293-.521-1.697-.272-.181-.64-.256-.974-.302-.717-.1-1.405.103-2.098.263a5.704 5.704 0 0 1-1.271.162c-.401.001-.806-.084-1.203-.155-2.418-.436-4.848-.251-7.31-.222-2.663.033-5.326.017-7.989.019l-14.305.002c-1.969 0-3.939-.02-5.908-.007-2.715.017-5.401.323-8.027 1.012-10.003 2.616-17.489 8.031-22.423 17.108-2.175 4.004-3.417 8.287-3.854 12.784-.053.52 2.935-5.042 2.906-4.496z"/><path fill="#E65270" d="M32.721.608c-.839 1.789-.849 2.545.079 4.238.7 1.278 2.56.141 2.308 1.568-.106 1.24-1.405 2.602-1.646 2.898-.296.351-.461.696-.898.607a2.84 2.84 0 0 1-1.101-.514c-1.137-.845-2.191-1.787-3.045-2.928-1.543-2.059-.907-3.308.9-4.95.765-.692 3.493-1.11 3.403-.919z"/><path fill="#2B2B2B" d="M31.048 7.399c.445.486 1.138.956 1.861 1.438.384.254-.759-2.867-1.092-3.7-1.092-2.729.339-4.42-.055-4.211-.866.46-2.103 2.067-2.189 3.06-.096 1.075.739 2.608 1.475 3.413z" opacity=".2"/><path fill="#0D0D0D" d="M32.375.775c-.84 1.788-.849 2.544.08 4.237.699 1.277 1.023 2.564.771 3.993a3.24 3.24 0 0 1-.111.475c-.149.429-.412.639-.849.549-.4-.082-.83-.217-1.15-.455-1.137-.845-2.191-1.787-3.045-2.928-1.184-1.579-1.054-2.657-.157-3.854.257-.342.415-.332.746-.394.428-.081.515.515.379.756-.313.554-.519 1.111-.558 1.549-.095 1.076.507 2.244 1.243 3.049.682.746 2.061 1.904 3.002 2.185.227-.871-.257-2.609-.564-3.453-.374-1.031-1.506-2.912-1.222-4.138 0 0 .399-1.134.822-1.422.423-.286.613-.149.613-.149z"/><path fill="#8B4FBA" d="M-18.607-19.863a.581.581 0 0 0-.308.053.708.708 0 0 0 .308-.053z" opacity=".2"/><path fill="#430A1D" d="M33.088-34.854c.981 1.49 2.084 1.994 3.33 3.167 1.185 1.113 2.095 2.456 3.275 3.549.924-.193 1.963-.037 2.911-.085.678-1.674 3.97-.081 4.271.999l.437-.655c.949-1.869-2.455-1.994-4.393-1.8-1.36.135-7.23-1.408-7.037-8.979-.661-1.015-2.218-.024-2.22-1.347-.001-1.354.021-3.742 1.191-4.604-.335-1.181-1.498.068-1.819.541-.718 1.059-1.744 2.934-1.977 4.189-.394 2.144.958 3.396 2.031 5.025z" opacity=".2"/></symbol><symbol id="t" viewBox="-3 -3.5 6 7"><path fill="#FFF" d="M0-3.5c-.184 0-.368.051-.53.152l-2 1.25A1 1 0 0 0-3-1.25v2.5a1 1 0 0 0 .47.848l2 1.25a1.002 1.002 0 0 0 1.06 0l2-1.25A1 1 0 0 0 3 1.25v-2.5a1 1 0 0 0-.47-.848l-2-1.25A1.002 1.002 0 0 0 0-3.5z"/></symbol><g transform="matrix(.60976 0 0 .57353 -690.609 73.554)"><use width="100.904" height="101.91" x="-50.452" y="-50.955" overflow="visible" transform="matrix(3.5035 0 0 -3.5035 1370.342 277.2)" xlink:href="#u"/><path d="M1566.941 352.545h67.404v16.225h-48.82v28.613h46.019v15.635h-46.019v43.954h-18.584V352.545zm83.924-7.08h17.699v111.507h-17.699V345.465zm37.02 16.667c0-2.851 1.057-5.333 3.172-7.448 2.113-2.112 4.793-3.172 8.039-3.172 3.244 0 5.975 1.012 8.188 3.024 2.213 2.017 3.318 4.549 3.318 7.596 0 3.05-1.105 5.582-3.318 7.597-2.213 2.017-4.94 3.023-8.188 3.023s-5.926-1.056-8.039-3.172c-2.116-2.113-3.172-4.595-3.172-7.448zm2.508 24.042h17.699v70.798h-17.699v-70.798zm39.232 0h16.814v11.356h.295c1.57-3.539 4.301-6.659 8.186-9.365 3.885-2.704 8.48-4.057 13.791-4.057 4.621 0 8.578.812 11.873 2.434 3.294 1.623 5.997 3.762 8.113 6.416 2.113 2.655 3.662 5.704 4.646 9.145a38.609 38.609 0 0 1 1.477 10.62v44.249h-17.7V417.74c0-2.065-.146-4.229-.44-6.49-.295-2.261-.938-4.301-1.918-6.121a12.728 12.728 0 0 0-4.058-4.499c-1.722-1.18-4.007-1.77-6.856-1.77-2.854 0-5.312.566-7.375 1.695-2.064 1.131-3.763 2.581-5.088 4.353-1.328 1.77-2.339 3.812-3.023 6.12a24.439 24.439 0 0 0-1.033 7.006v38.938h-17.697v-70.798h-.007zm86.135-40.709h17.699v70.503h.443l26.844-29.794h22.714l-30.679 32.007 32.597 38.791h-23.452l-28.021-36.284h-.443v36.284h-17.697V345.465h-.005z"/></g></svg>