<svg xmlns="http://www.w3.org/2000/svg" role="img" viewBox="12.70 2.70 2069.60 837.10"><title>FUGA Cloud (member) logo</title><style>svg {enable-background:new 0 0 2086.6 841.9}</style><style>.st0{fill:#252f4b}</style><g id="Vignet"><path d="M53.5 425.5v-79.4l102 56.9 32.3-18.2-.2 79.2-32.1 19.4z" class="st0"/><path d="M699.8 453.2v158.2L377.2 798.3 53.5 610.2l-.2-158.1 102.3 59.3 32-18.4-.1 38 190.9 111.6 187.1-110.1v-41.1l34.8 19.7z" class="st0"/><path d="M566.1 463.3l-.4-79.5 34.8 19.9 99.3-57.8v79.2l-99.7 58.1zM187.9 353.4l.1-45.1L376.5 198l189 110.1v42.1l34.6 19.7 99.7-57.3v-80.8L376.7 43.7l-323.2 187v81.7l102 59.1z" class="st0"/><path fill="#fff" d="M155.5 511.3v40.2l221.4 129.4v117.6L53.1 609.9l.2-157.8zm0-108.3v80.4L53.3 425.7l.1-79.6zM53.4 312.9l.1-82.2 102 59.2v81.8zm546.7 198.4v39.4l-34.6-18.2v-41.3zm0-107.6V483l-34.6-19.7v-79.7zm-34.6-53.5v-42L376.5 198s-.6-40.4 0-39.8l223.6 131.7v80l-34.6-19.7z" opacity=".25"/></g><path fill="#50586e" d="M1425.3 675c-12.4 0-22 4.4-28.8 13.3-6.8 8.9-10.2 21.2-10.2 37 0 32.9 13 49.4 39 49.4 10.9 0 24.1-2.6 39.6-7.8v26.2c-12.7 5-27 7.6-42.7 7.6-22.6 0-39.9-6.5-51.8-19.5-12-13-17.9-31.7-17.9-56.1 0-15.3 2.9-28.8 8.8-40.3 5.9-11.5 14.3-20.4 25.3-26.6 11-6.2 23.9-9.2 38.7-9.2 15.1 0 30.2 3.5 45.4 10.4l-10.6 25.4c-5.8-2.6-11.6-4.9-17.5-6.9-5.8-1.9-11.6-2.9-17.3-2.9zm65.8 123.7V651.1h32.9v121.8h63v25.8h-95.9zm253.9-74c0 24.4-6.4 43.2-19.1 56.3s-31 19.7-54.8 19.7-42-6.6-54.8-19.7-19.1-32-19.1-56.5c0-24.6 6.4-43.3 19.2-56.3 12.8-13 31.1-19.4 55-19.4s42.1 6.5 54.7 19.6c12.5 13 18.9 31.8 18.9 56.3zm-113.3 0c0 16.5 3.3 28.9 9.9 37.3 6.6 8.3 16.4 12.5 29.5 12.5 26.3 0 39.4-16.6 39.4-49.8 0-33.2-13.1-49.9-39.2-49.9-13.1 0-23 4.2-29.6 12.6-6.7 8.4-10 20.8-10 37.3zm256.9-73.6v95.5c0 10.9-2.6 20.5-7.7 28.7s-12.5 14.5-22.2 18.9c-9.7 4.4-21.2 6.6-34.4 6.6-20 0-35.5-4.9-46.5-14.6s-16.6-23-16.6-39.9v-95.1h32.8v90.4c0 11.4 2.4 19.7 7.2 25 4.8 5.3 12.8 8 23.9 8 10.8 0 18.6-2.7 23.4-8 4.8-5.4 7.3-13.7 7.3-25.2v-90.2h32.8zm155 72.4c0 24.3-7.3 42.9-21.8 55.8-14.5 12.9-35.6 19.4-63 19.4h-44V651.1h48.7c25.3 0 45 6.4 59 19.1 14.1 12.7 21.1 30.5 21.1 53.3zm-34.2.8c0-31.7-14.7-47.6-44.2-47.6h-17.5v96.1h14.1c31.7 0 47.6-16.1 47.6-48.5z" id="Cloud"/><path d="M856.8 612.7h-78.9V234.2h216.9V300h-138v97.6h128.4v65.5H856.8v149.6zm472.6-378.5v244.9c0 28-6.3 52.5-18.8 73.5-12.5 21.1-30.6 37.2-54.2 48.4-23.6 11.2-51.6 16.8-83.9 16.8-48.7 0-86.5-12.5-113.4-37.4-26.9-24.9-40.4-59.1-40.4-102.4V234.2h80v231.7c0 29.2 5.9 50.6 17.6 64.2 11.7 13.6 31.1 20.4 58.2 20.4 26.2 0 45.3-6.9 57.1-20.6 11.8-13.7 17.7-35.2 17.7-64.6V234.2h80.1zm181.9 166h150.1v196.2c-24.3 7.9-47.2 13.5-68.7 16.7-21.5 3.2-43.4 4.8-65.9 4.8-57.1 0-100.7-16.8-130.8-50.3-30.1-33.6-45.2-81.7-45.2-144.6 0-61.1 17.5-108.7 52.4-142.9s83.4-51.2 145.3-51.2c38.8 0 76.3 7.8 112.3 23.3l-26.7 64.2c-27.6-13.8-56.3-20.7-86.2-20.7-34.7 0-62.5 11.6-83.3 34.9-20.9 23.3-31.3 54.6-31.3 94 0 41.1 8.4 72.4 25.2 94.1 16.8 21.7 41.3 32.5 73.4 32.5 16.7 0 33.7-1.7 51-5.2v-78.9h-71.7v-66.9zm446.5 212.5l-27.4-90.1h-138l-27.4 90.1h-86.5l133.6-380h98.1l134.1 380h-86.5zm-46.6-157.4c-25.4-81.6-39.6-127.8-42.8-138.5-3.2-10.7-5.5-19.2-6.9-25.4-5.7 22.1-22 76.7-48.9 163.8h98.6z" class="st0" id="Fuga"/></svg>