<?xml version="1.0" encoding="UTF-8" standalone="yes"?>
<svg version="1.1" id="Layer_1" xmlns="http://www.w3.org/2000/svg" xmlns:xlink="http://www.w3.org/1999/xlink" x="0px" y="0px" viewBox="-3.660000000000025 -3.0400000000000205 294.32 272.48" style="enable-background:new 0 0 288 266.8;" xml:space="preserve">
  <style type="text/css">
	.st0{fill:#030303;}
</style>
  <g>
    <g>
      <g>
        <path class="st0" d="M28.3,262.9V118.6H2V84.9h26.5V65.1c0-20,5.7-35.3,17.2-46.1C57.3,8.1,73.4,2.8,94.3,2.8&#xA;&#x9;&#x9;&#x9;&#x9;c4.1,0,8.3,0.3,12.4,0.9c4.1,0.7,8.8,1.4,13.9,2.6l-4.1,35.6c-2.6-0.5-5.2-0.9-7.6-1.2c-2.4-0.3-5.3-0.5-8.6-0.5&#xA;&#x9;&#x9;&#x9;&#x9;c-7.7,0-13.6,2.1-17.7,6.4c-4,4.3-6,10.5-6,18.4v19.8h34.3v33.7H76.5v144.4H28.3z"/>
        <path class="st0" d="M200.1,141.5h1l27.4-56.6h54.2l-53.5,88l55.4,89.9h-54.1l-29.1-59l-29.3,59.2H118l55.4-89.9l-53.7-88h53.9&#xA;&#x9;&#x9;&#x9;&#x9;L200.1,141.5z"/>
      </g>
    </g>
  </g>
</svg>