<?xml version="1.0" encoding="UTF-8" standalone="yes"?>
<svg version="1.1" id="Layer_1" xmlns="http://www.w3.org/2000/svg" xmlns:xlink="http://www.w3.org/1999/xlink" x="0px" y="0px" viewBox="0.1200000000000001 1.23 286.76 275.54" style="enable-background:new 0 0 288 277;" xml:space="preserve">
  <style type="text/css">
	.st0{fill:#0B3349;}
	.st1{fill:#0C344A;}
	.st2{fill:#0C3349;}
	.st3{fill:#0D354A;}
</style>
  <g id="Layer_2">
    <g id="Layer_1-2">
      <path class="st0" d="M224.3,171.1l-17.6,10.2c-17.9,10.3-35.9,20.7-53.8,31c-0.6,0.3-0.7,0.6-0.5,1.3c1.3,5.3-2.6,10.7-7.9,11.2&#xA;&#x9;&#x9;&#x9;c-5.5,0.5-10.1-3.4-10.3-8.9c0-1.2,0.4-2.4,0.6-3.5c0.1-0.2,0.1-0.4,0.2-0.6l-7.3-4.2c-20.9-12.1-41.8-24.2-62.7-36.2&#xA;&#x9;&#x9;&#x9;c-0.5-0.3-0.8-0.3-1.2,0.1c-3.1,2.7-6.6,3.4-10.3,1.7c-3.5-1.6-5.3-4.6-5.3-8.5c-0.1-4.1,2.8-7.6,7-8.9c0.1,0,0.2-0.1,0.3-0.1V73&#xA;&#x9;&#x9;&#x9;c-4.6-1.6-7.1-4.8-6.9-9.7c0.2-3.7,2.3-6.4,5.7-7.9c3.1-1.3,7.3-0.9,10.4,2.3c0.2-0.1,0.4-0.2,0.6-0.3&#xA;&#x9;&#x9;&#x9;C88.5,44,111.7,30.6,135,17.2c0.4-0.3,0.5-0.5,0.4-1c-1.2-4.9,1.8-9.9,6.7-11.2c0.5-0.1,1-0.2,1.5-0.2c6.7-0.5,11.3,5.8,9.7,11.5&#xA;&#x9;&#x9;&#x9;c0,0.1-0.1,0.3-0.1,0.5l4.6,2.6c22,12.7,44,25.4,66,38.1c0.6,0.3,0.9,0.3,1.4-0.2c2.8-2.4,5.9-3.1,9.4-1.9c3.4,1.2,5.4,3.7,6,7.2&#xA;&#x9;&#x9;&#x9;c0.8,4.4-2,8.9-6.5,10.3c-0.6,0.2-0.8,0.4-0.8,1c0,27,0,53.9,0,80.9c0,0.6,0.2,0.8,0.7,1c4.9,1.5,7.6,6.7,6.1,11.5&#xA;&#x9;&#x9;&#x9;c-1.5,4.9-6.7,7.6-11.5,6.1c-0.5-0.1-0.9-0.3-1.3-0.5C226.3,172.6,225.4,171.8,224.3,171.1z M114.2,73.9c0.2,0.1,0.3,0.3,0.5,0.4&#xA;&#x9;&#x9;&#x9;c7,4.5,13.9,9,20.9,13.5c0.5,0.3,0.8,0.3,1.2,0c14.9-8.6,29.8-17.2,44.7-25.8c0.8-0.5,1-1.5,0.5-2.3c0-0.1-0.1-0.1-0.1-0.2&#xA;&#x9;&#x9;&#x9;c-11.1-12.2-22.2-24.4-33.3-36.7c-0.3-0.3-0.6-0.4-1-0.2c-2.3,0.9-4.9,0.9-7.2-0.2c-0.5-0.2-0.7-0.1-1,0.3&#xA;&#x9;&#x9;&#x9;c-8.7,10.9-17.4,21.9-26.1,32.8l-1.9,2.3C115.7,62.7,116.6,68,114.2,73.9z M114.6,183.4c0,0.1,0.1,0.1,0.1,0.2&#xA;&#x9;&#x9;&#x9;c7.8,8,15.6,16,23.5,23.9c0.3,0.3,0.4,0.2,0.8,0.1c2.9-1.5,5.8-1.6,8.7-0.2c0.6,0.3,0.8,0.2,1.2-0.2c3.8-4.1,7.7-8.2,11.5-12.3&#xA;&#x9;&#x9;&#x9;c8.3-8.9,16.7-17.7,25-26.6c0.3-0.3,0.3-0.5,0.2-0.9c-0.2-0.9-0.3-1.7-0.4-2.6c0-0.5-0.1-0.7-0.5-1c-8-5-15.9-10.1-23.8-15.1&#xA;&#x9;&#x9;&#x9;c-0.4-0.3-0.8-0.3-1.2,0c-14.1,8.2-28.3,16.3-42.4,24.5c-0.5,0.3-0.9,0.5-1.4,0.8C117,177.2,116.5,180.4,114.6,183.4z M59.3,155.6&#xA;&#x9;&#x9;&#x9;l2.4,0.8c0.1-0.1,0.2-0.2,0.3-0.3c12.2-14.8,24.4-29.6,36.6-44.3c0.4-0.4,0.5-0.8,0.3-1.4c-0.1-0.4-0.1-0.9,0-1.4&#xA;&#x9;&#x9;&#x9;c0.1-0.5-0.1-0.8-0.4-1.2C86.7,96.1,74.9,84.3,63.1,72.6c-0.1-0.1-0.2-0.2-0.4-0.3c-0.1-0.1-0.3-0.1-0.4-0.1&#xA;&#x9;&#x9;&#x9;c-1,0.4-1.9,0.7-2.9,1.1V155.6z M175.5,118.1c-0.1-0.1-0.3-0.2-0.4-0.3c-12.8-8.3-25.7-16.6-38.5-24.9c-0.3-0.2-0.7-0.2-1,0&#xA;&#x9;&#x9;&#x9;c-9.3,5.4-18.7,10.8-28,16.2c-0.8,0.4-0.8,0.6,0,1.1c17.4,11,34.7,22,52.1,33.1c0.4,0.3,0.9,0.3,1.2,0c4.7-2.8,9.5-5.5,14.2-8.2&#xA;&#x9;&#x9;&#x9;c0.2-0.1,0.4-0.2,0.6-0.4C172.9,129.2,172.9,123.7,175.5,118.1z M156.5,145.8l-51.5-32.7c0,0.3,0,0.5,0,0.8&#xA;&#x9;&#x9;&#x9;c0.4,8.3,0.7,16.5,1.1,24.8c0.4,9.2,0.8,18.4,1.2,27.6c0,0.4,0.1,0.6,0.5,0.7c2.1,0.4,4.1,1.4,5.6,3c0.4,0.4,0.6,0.4,1,0.2&#xA;&#x9;&#x9;&#x9;c12.5-7.2,25-14.5,37.5-21.7L156.5,145.8z M229.6,155.6V155c0-27,0-54,0-81c0-0.8-0.5-0.8-0.9-1c-0.5-0.3-0.7,0.1-0.9,0.5&#xA;&#x9;&#x9;&#x9;l-20.9,32.4l-4,6.3c3.7,3.2,6,7.1,6.6,12s-0.7,9.3-3.7,13.2l20.4,19.7L229.6,155.6z M188.2,108.4c0-0.4,0-0.7-0.1-1&#xA;&#x9;&#x9;&#x9;c-0.4-4.5-0.7-9-1.1-13.5c-0.4-4.4-0.7-8.7-1.1-13.1c-0.4-5-0.8-10-1.2-14.9c-0.1-1-0.4-1.1-1.2-0.7l-43,24.8&#xA;&#x9;&#x9;&#x9;c-0.2,0.1-0.4,0.2-0.6,0.4l37.7,24.3C181.6,110.7,182.6,110.2,188.2,108.4z M64.7,158.9c1.3,1.7,2,3.7,2,5.9&#xA;&#x9;&#x9;&#x9;c0,0.2,0.3,0.4,0.5,0.4c9.5,2.5,19.1,5,28.6,7.4c0.4,0.1,0.6,0,0.8-0.4c1.4-2.6,3.5-4.3,6.3-5.2c0.2-0.1,0.4-0.1,0.6-0.2&#xA;&#x9;&#x9;&#x9;l-2.2-52.1l-0.1,0L64.7,158.9z M222.3,65.6c-3.2-0.2-6.4-0.4-9.6-0.6c-7.2-0.4-14.4-0.9-21.6-1.3c-0.8-0.1-1.5-0.1-1.9,0.7&#xA;&#x9;&#x9;&#x9;c-0.1,0.1-0.3,0.2-0.3,0.3c-0.2,0.2-0.3,0.4-0.3,0.7c0.1,1.1,0.2,2.2,0.3,3.2c0.4,5.5,0.9,11,1.3,16.4c0.5,6.1,1,12.3,1.5,18.4&#xA;&#x9;&#x9;&#x9;c0.1,1.6,0.3,3.1,0.4,4.8c2.7,0,5.2,0.8,7.6,1.9c0.2-0.2,0.3-0.4,0.4-0.6l18.1-28.2c2.1-3.3,4.3-6.7,6.4-10&#xA;&#x9;&#x9;&#x9;c0.1-0.2,0.2-0.6,0.1-0.7C223.4,69.2,222.7,67.5,222.3,65.6z M135.6,21.4l-0.1-0.1l-69,39.8c0.1,0.5,0.2,1,0.3,1.5&#xA;&#x9;&#x9;&#x9;c0,0.4,0.2,0.5,0.6,0.5c0.8,0,1.6,0.1,2.5,0.2c5.4,0.4,10.9,0.9,16.3,1.4c0.7,0.1,0.9-0.1,1.1-0.8c2.6-8.9,12.4-13,20.6-8.7&#xA;&#x9;&#x9;&#x9;c0.5,0.3,0.7,0.2,1-0.2c6.8-8.6,13.6-17.1,20.4-25.6L135.6,21.4z M222.5,61.7l0.2-0.2c-0.2-0.2-0.3-0.4-0.5-0.5&#xA;&#x9;&#x9;&#x9;c-23.2-13.4-46.5-26.9-69.7-40.3c-0.2-0.1-0.4-0.2-0.5-0.3c0.1,0.2,0.2,0.3,0.3,0.5c10.9,12,21.9,24,32.8,36.1&#xA;&#x9;&#x9;&#x9;c0.2,0.3,0.6,0.4,0.9,0.3c1.6-0.2,3.1,0.5,3.9,1.9c0.1,0.3,0.4,0.5,0.8,0.5c4.6,0.3,9.1,0.6,13.7,0.8l11.3,0.7&#xA;&#x9;&#x9;&#x9;C217.9,61.5,220.2,61.6,222.5,61.7L222.5,61.7z M222.3,166.8c-0.2,0-0.3,0-0.4,0c-8.5,0.1-16.9,0.2-25.4,0.3&#xA;&#x9;&#x9;&#x9;c-0.3,0-0.6,0.2-0.7,0.5c-1.3,2.7-4.1,3.9-6.9,3c-0.3-0.1-0.7,0-0.9,0.2c-11.2,12-22.5,23.9-33.7,35.9c-0.1,0.1-0.2,0.2-0.3,0.4&#xA;&#x9;&#x9;&#x9;l0.1,0.1l68.4-39.5L222.3,166.8z M86.6,68.5c-1.8-0.1-3.7-0.3-5.7-0.5c-4.4-0.4-8.9-0.7-13.3-1.1c-1-0.1-1-0.1-1.5,0.8&#xA;&#x9;&#x9;&#x9;c-0.1,0.4-0.3,0.7-0.5,1c-0.4,0.4-0.2,0.7,0.1,1c11.5,11.4,23,22.9,34.5,34.3c0.1,0.1,0.3,0.3,0.5,0.5c0-0.3,0-0.6,0-0.8&#xA;&#x9;&#x9;&#x9;c-0.3-7-0.6-14.1-0.9-21.1c0-0.6-0.3-0.7-0.8-0.8c-5.4-0.9-9.2-3.8-11.3-8.9C87.3,71.7,87,70.1,86.6,68.5z M203.2,140l-0.6,0.5&#xA;&#x9;&#x9;&#x9;c-2.6,2-5.6,3.2-8.8,3.6c-0.5,0.1-0.6,0.2-0.6,0.7c-0.1,4.9-0.2,9.8-0.3,14.7c0,0.3,0.2,0.7,0.5,0.8c1.1,0.5,2,1.4,2.5,2.5&#xA;&#x9;&#x9;&#x9;c0.2,0.5,0.5,0.6,1,0.6c5.2-0.1,10.3-0.1,15.5-0.2c3.2,0,6.4-0.1,9.6-0.1c0.2,0,0.5-0.1,0.6-0.3c0.4-1,0.8-2,1.2-3L203.2,140z&#xA;&#x9;&#x9;&#x9; M112.1,77.1c-0.2,0.2-0.3,0.3-0.4,0.5c-2,2.1-4.5,3.6-7.4,4.2c-0.5,0.1-0.6,0.3-0.5,0.7c0.3,7.5,0.6,15.1,1,22.6&#xA;&#x9;&#x9;&#x9;c0,1,0.2,1.1,1,0.6l25.2-14.5c0.5-0.3,1-0.6,1.6-0.9L112.1,77.1z M164,146c0.3,0.2,0.4,0.3,0.6,0.4c7.2,4.6,14.4,9.1,21.6,13.7&#xA;&#x9;&#x9;&#x9;c0.7,0.5,1.3,0.8,2,0.1c0.1-0.1,0.1-0.1,0.2-0.1c0.4-0.1,0.5-0.3,0.5-0.7c0.1-4.9,0.2-9.9,0.3-14.8c0-0.4-0.1-0.6-0.5-0.6&#xA;&#x9;&#x9;&#x9;c-4.1-0.6-7.8-2.6-10.5-5.7c-0.1-0.1-0.2-0.3-0.3-0.4L164,146z M71,170.2l0,0.1l58.1,33.5l0.1-0.1l-17.4-17.7&#xA;&#x9;&#x9;&#x9;c-0.1,0.1-0.2,0.1-0.3,0.2c-1.9,1.2-4.2,1.8-6.5,1.6c-5.5-0.4-9.7-5-9.7-10.5c0-0.6-0.2-0.9-0.8-1c-5.2-1.3-10.4-2.7-15.6-4&#xA;&#x9;&#x9;&#x9;L71,170.2z"/>
    </g>
  </g>
  <g>
    <path class="st0" d="M245.3,249c-7.3,0-12.5,5.1-12.5,12.4c0,7.3,5.1,12.5,12.4,12.5c7.4,0,12.4-5.1,12.3-12.5&#xA;&#x9;&#x9;C257.6,254.1,252.6,249,245.3,249z M245.3,268.9c-4.3,0-7.3-3.1-7.3-7.5c0-4.4,3.1-7.5,7.3-7.4c4.2,0.1,7.1,3.2,7.1,7.5&#xA;&#x9;&#x9;C252.5,265.7,249.5,268.8,245.3,268.9z"/>
    <path class="st0" d="M22.6,267.7c0-0.2,0-0.4,0-0.7c0,0,0,0,0,0c0-1.3,0-2.7,0-4c0-1.2-0.3-1.8-1.6-1.7c-0.7,0.1-1.3,0.1-2,0&#xA;&#x9;&#x9;c-1.2-0.1-1.6,0.4-1.5,1.5c0.1,1.6,0,3.1,0,4.7c0,1.1-0.5,1.4-1.5,1.3c-3.2-0.1-6-2.3-6.7-5.5c-1.3-6.2,3.4-10.4,10.1-9&#xA;&#x9;&#x9;c0.8,0.2,2.1,1.2,2.1-0.6c0-1.4,1.6-3.2-1-4c-4.8-1.5-10.9,0.3-13.9,4.1c-5.4,6.9-2.2,18.8,8.5,19.9c2.4,0.2,4.9-0.1,6.9-1.4&#xA;&#x9;&#x9;C23.5,271.3,22.2,269.2,22.6,267.7z"/>
    <path class="st0" d="M284.8,267.6c0-0.2,0-0.4,0-0.7c0-1-0.1-2.1,0-3.1c0.3-2.1-0.6-2.4-2.5-2.5c-2.3-0.1-2.9,0.7-2.6,2.7&#xA;&#x9;&#x9;c0.1,1-0.1,2.1,0,3.1c0.2,1.6-0.6,1.9-2,1.7c-4.1-0.5-6.6-3.6-6.3-8c0.2-3.8,3-6.6,6.9-6.7c1.4,0,2.8-0.1,4.2,0.4&#xA;&#x9;&#x9;c0.6,0.2,1.1,0.3,1.3-0.6c1-3.4,0.1-4.6-3.4-4.8c-0.6,0-1.2,0-1.8,0c-7.1,0.1-12.3,5-12.5,11.8c-0.2,7,4.7,12.3,11.9,12.6&#xA;&#x9;&#x9;c2.1,0.1,4.5-0.2,6.2-1.5C285.6,271.1,284.5,269.1,284.8,267.6z"/>
    <path class="st0" d="M122.5,268.2c-4.1,1.1-7.7,0-9.3-2.8c-1.6-2.8-1.4-6.5,0.4-8.8c2.1-2.6,5-2.9,8.1-2.3c0.5,0.1,1.3,0.8,1.6,0.3&#xA;&#x9;&#x9;c0.7-1.2,0.5-2.6,0.6-3.9c0-1-1-1.1-1.6-1.2c-3.6-0.8-7.1-0.4-10.2,1.7c-4.3,2.9-6.2,8.9-4.6,14.1c1.6,5.1,6.4,8.9,11.8,8.3&#xA;&#x9;&#x9;c5.5-0.6,6,0.3,4.3-5.8C123.3,267.9,122.9,268.1,122.5,268.2z"/>
    <path class="st0" d="M188.2,268.1c-0.5-0.8-1.8,0.4-2.9,0.4c-0.5,0-1,0.1-1.6,0.1c-2.8,0.1-4.9-0.9-6.3-3.4&#xA;&#x9;&#x9;c-1.6-2.9-1.4-6.4,0.6-8.8c2.1-2.5,4.9-2.8,7.9-2.2c0.6,0.1,1.5,0.9,1.8,0.2c0.4-1.2,0.6-2.6,0.5-3.9c0-1-1.2-1-1.9-1.2&#xA;&#x9;&#x9;c-5.1-1.2-10.5,0.9-13.1,5c-2.9,4.6-2.5,11,0.8,15c3.1,3.7,9.2,5.2,13.8,3.5c0.6-0.2,1.1-0.4,1-1.2&#xA;&#x9;&#x9;C188.7,270.5,188.8,269,188.2,268.1z"/>
    <path class="st0" d="M45.2,257.7c-1.2-3-2.5-6-4-9.6c-0.4,0.7-0.5,1-0.6,1.3c-3.1,7.7-6.3,15.3-9.4,23c-0.1,0.3-0.3,0.7,0,1&#xA;&#x9;&#x9;c1,1,5.2-0.1,5.7-1.4c1.4-3.7,2.8-7.5,4.3-11.5c1.3,3.6,2.5,6.7,3.7,9.9c1.3,3.4,1.4,3.4,5.1,3.2c1.4-0.1,1.5-0.4,1-1.7&#xA;&#x9;&#x9;C48.9,267.2,47.1,262.4,45.2,257.7z"/>
    <path class="st0" d="M90.8,249.7c-0.2-0.4-0.3-0.9-0.9-0.8c-0.5,0.1-0.5,0.6-0.7,1c-1.3,3.1-2.6,6.3-3.9,9.4&#xA;&#x9;&#x9;c-1.9,4.6-3.7,9.3-5.6,14.1c0.7,0.1,1.3,0.2,1.8,0.2c4.4,0,3.5,0.4,5-3.4c1.2-3.1,2.3-6.2,3.6-9.7c1.3,3.3,2.4,6.2,3.4,9.1&#xA;&#x9;&#x9;c1.7,4.5,1.7,4.5,6.5,4c0.1,0,0.1-0.1,0.2-0.1c0-0.1,0.1-0.3,0-0.4C97,265.1,93.9,257.4,90.8,249.7z"/>
    <path class="st1" d="M146.7,249.4c-4.4,0.1-8.9,0.1-13.3,0c-1.6,0-2,0.6-1.9,2c0.1,2.9,0,2.9,2.8,2.9c0.6,0,1.2,0.1,1.8,0&#xA;&#x9;&#x9;c1.1-0.1,1.6,0.3,1.5,1.5c-0.1,2.7,0,5.3,0,8c0,2.7,0.1,5.3,0,8c-0.1,2.4,1.5,1.7,2.7,1.7c1.3,0.1,2.4,0.2,2.4-1.8&#xA;&#x9;&#x9;c-0.1-4.9,0.1-9.8-0.1-14.7c-0.1-2.3,0.6-2.9,2.8-2.8c3.4,0.2,3.3,0.1,3.3-3.2C148.5,249.6,148,249.3,146.7,249.4z"/>
    <path class="st2" d="M224.6,251.1c0.2-1.4-0.3-1.8-1.7-1.7c-3,0.1-5.9,0.1-8.9,0c-1.2,0-1.6,0.4-1.5,1.5c0.1,3.5,0,7,0,10.5&#xA;&#x9;&#x9;c0,3.5,0,7,0,10.5c0,0.6-0.3,1.3,0.6,1.7c2.6,0.9,4.3-0.2,4.3-2.9c0-1,0-1.9,0-2.9c0-3.8,0-3.9,3.8-3.7c2,0.1,2.4-0.6,2.4-2.5&#xA;&#x9;&#x9;c0-1.9-0.6-2.5-2.4-2.3c-0.9,0.1-1.8,0-2.7,0c-0.4,0-1.1,0.1-1.1-0.4c-0.1-1.3-0.3-2.7,0.1-4c0.3-0.9,1.6-0.4,2.4-0.4&#xA;&#x9;&#x9;c1-0.1,1.9-0.1,2.9,0c1.3,0.1,2-0.2,1.8-1.7C224.6,252.2,224.6,251.6,224.6,251.1z"/>
    <path class="st2" d="M69.6,268.6c-1,0-1.9-0.1-2.9,0c-1.4,0.1-1.9-0.3-1.9-1.8c0.1-5.1-0.1-10.2,0.1-15.4c0.1-2.3-1.2-2-2.6-2&#xA;&#x9;&#x9;c-1.4,0-2.6-0.2-2.5,2c0.2,3.4,0.1,6.8,0.1,10.2c0,3.5,0,7,0,10.5c0,1,0.2,1.5,1.3,1.5c3.3,0,6.7,0,10,0c0.6,0,1.1,0,1.3-0.8&#xA;&#x9;&#x9;C73.3,269.8,72.5,268.6,69.6,268.6z"/>
    <path class="st3" d="M162.1,261.4c0-2.9,0-5.8,0-8.7c-0.1-3.7,0.7-3.2-3.3-3.3c-1.3,0-1.8,0.3-1.8,1.7c0.1,6.9,0.1,13.8,0,20.7&#xA;&#x9;&#x9;c0,2.3,1.5,1.7,2.7,1.7c1.2,0,2.6,0.5,2.5-1.7C162,268.3,162.1,264.8,162.1,261.4z"/>
  </g>
</svg>