<svg xmlns="http://www.w3.org/2000/svg" role="img" viewBox="-3.18 -3.18 398.86 555.36"><title>German Edge Cloud (KCSP) logo</title><defs><clipPath id="a" clipPathUnits="userSpaceOnUse"><path d="M0 412.08h294.72V0H0z"/></clipPath></defs><g transform="matrix(1.33333 0 0 -1.33333 0 549.44)"><path fill="#fff" fill-opacity="1" fill-rule="nonzero" stroke="none" d="M0 0h294.72v412.08H0z"/><path fill="#1d1d1b" fill-opacity="1" fill-rule="nonzero" stroke="none" d="M5.628 73.053h283.465v11.339H5.628z"/><path fill="#e50043" fill-opacity="1" fill-rule="nonzero" stroke="none" d="M5.669 188.975H289.13v217.436H5.669z"/><g clip-path="url(#a)"><path fill="#1d1d1b" fill-opacity="1" fill-rule="nonzero" stroke="none" d="M159.632 157.346c.338.43.593.697.782 1.004 1.977 3.218 3.955 6.436 5.905 9.669.455.753 1.011 1.166 1.932 1.117 1.034-.054 2.074-.036 3.11-.007.871.025 1.244-.37 1.208-1.221-.021-.477 0-.955 0-1.433.006-8.041-.001-16.082.033-24.123.003-.82-.226-1.187-1.063-1.166-.956.025-1.914.013-2.871-.005-.865-.016-1.2.392-1.196 1.245.02 4.976.017 9.951.009 14.927-.001.492-.086.985-.132 1.478-.086.024-.171.049-.257.074-.261-.325-.546-.635-.78-.979-1.949-2.859-3.885-5.727-5.833-8.587-.593-.87-.949-.853-1.569.056-1.996 2.925-3.986 5.854-5.986 8.777-.232.34-.507.651-.763.976-.099-.03-.197-.061-.296-.091v-1.973c.001-4.856.004-9.713.003-14.57 0-1.222-.075-1.301-1.265-1.319-.837-.012-1.675.001-2.513-.013-.804-.014-1.131.347-1.127 1.163.034 8.399.047 16.798.069 25.197.004 1.45.136 1.574 1.563 1.579.877.003 1.755-.014 2.632.013.847.026 1.383-.318 1.826-1.066 1.88-3.18 3.82-6.326 5.743-9.481.222-.365.477-.71.836-1.241"/><path fill="#1d1d1b" fill-opacity="1" fill-rule="nonzero" stroke="none" d="M89.618 152.59c-.614.051-1.038.115-1.461.116-2.874.008-5.747.004-8.621.004-1.325 0-1.432.107-1.433 1.415-.001.637-.006 1.275-.002 1.912.007 1.337.207 1.551 1.503 1.552 4.191.006 8.381.013 12.572.002 2.848-.007 2.971.409 2.858-2.959-.213-6.386-4.274-11.699-10.462-13.473-6.649-1.904-12.986.664-16.493 6.097-3.223 4.994-2.992 11.838.543 16.537 3.315 4.405 7.917 6.35 13.404 5.847 2.985-.274 5.702-1.436 7.981-3.478.55-.492.696-.92.121-1.49-.706-.701-1.376-1.438-2.058-2.164-.46-.491-.891-.534-1.445-.078-1.473 1.212-3.156 2.042-5.061 2.252-3.183.351-5.887-.748-8.087-3.019-2.091-2.159-2.949-4.799-2.575-7.769.38-3.024 1.968-5.378 4.532-6.966 4.864-3.013 11.257-1.068 13.699 4.095.21.443.297.945.485 1.567"/><path fill="#1d1d1b" fill-opacity="1" fill-rule="nonzero" stroke="none" d="M223.086 150.896c.032.369.093.738.094 1.106.008 5.134.006 10.269.011 15.403.003 1.666.053 1.709 1.773 1.717.598.003 1.196.016 1.794-.001 1.055-.03 1.267-.227 1.301-1.261.026-.795.01-1.592.01-2.388-.003-7.602-.006-15.204-.008-22.806 0-1.326-.121-1.464-1.401-1.479-1.036-.011-2.073.006-3.11.007-.654.001-1.078.278-1.44.86-3.375 5.438-6.781 10.856-10.187 16.274-.213.339-.501.631-.755.944-.094-.035-.188-.07-.283-.105-.025-.536-.072-1.072-.072-1.608-.004-4.936 0-9.871.001-14.807.001-1.487-.064-1.553-1.535-1.562-.718-.004-1.438.024-2.154-.009-.869-.04-1.212.322-1.191 1.201.044 1.909.02 3.82.021 5.73.003 6.289.004 12.577.007 18.866 0 .398.009.796.014 1.194.007.635.319.938.966.934 1.156-.01 2.313-.003 3.469.011.748.009 1.146-.465 1.495-1.024 1.744-2.8 3.487-5.6 5.233-8.398 1.684-2.698 3.368-5.395 5.059-8.088.175-.279.399-.527.6-.79.096.027.192.053.288.079"/><path fill="#1d1d1b" fill-opacity="1" fill-rule="nonzero" stroke="none" d="M126.833 159.067h-.006c0-1.312-.014-2.624.005-3.936.016-1.081.162-1.23 1.26-1.252 1.275-.025 2.551-.042 3.824.003 1.307.047 2.642.031 3.909.3 2.077.441 3.815 2.938 3.596 5.043-.283 2.725-2.213 4.752-4.985 4.879-2.147.098-4.302.008-6.453.032-.807.009-1.168-.326-1.155-1.133.019-1.312.005-2.624.005-3.936m17.399-17.786c-.614-.087-.985-.177-1.359-.187-1.076-.029-2.154-.012-3.231-.041-.793-.022-1.352.281-1.779.967-1.24 1.992-2.53 3.953-3.778 5.941-.374.596-.846.889-1.567.875-1.515-.03-3.032-.034-4.547-.001-.831.018-1.151-.357-1.141-1.146.021-1.551.003-3.103.032-4.653.034-1.789-.065-1.911-1.823-1.926-.638-.005-1.277.011-1.915-.009-.86-.025-1.174.334-1.166 1.225.035 3.781-.002 7.562-.008 11.343-.007 4.658-.011 9.317-.015 13.975-.001 1.309.133 1.459 1.421 1.463 3.671.011 7.344.09 11.012-.011 4.192-.116 7.354-2.077 9.087-5.914 1.7-3.763 1.189-7.388-1.389-10.639-.582-.734-1.37-1.329-2.133-1.895-1.075-.799-1.099-.76-.401-1.845 1.333-2.074 2.666-4.149 3.991-6.229.21-.329.377-.685.709-1.293"/><path fill="#1d1d1b" fill-opacity="1" fill-rule="nonzero" stroke="none" d="M97.495 155.142c-.001 4.101-.005 8.202.001 12.304.002 1.562.155 1.687 1.72 1.684 6.264-.011 12.528-.014 18.793-.017 1.411-.001 1.445-.031 1.465-1.481.011-.756.039-1.513.023-2.269-.023-1.063-.187-1.225-1.286-1.227-4.708-.008-9.417-.006-14.125-.006-1.558.001-1.708-.141-1.717-1.699-.007-1.155-.011-2.31.001-3.464.014-1.22.147-1.366 1.398-1.37 3.95-.011 7.9-.005 11.851-.003 1.431.001 1.488-.045 1.511-1.444.011-.717.008-1.434.004-2.15-.006-1.303-.079-1.39-1.456-1.392-3.79-.005-7.581.005-11.372.016-1.884.005-1.949-.053-1.95-1.951 0-1.115-.014-2.23.009-3.344.021-1.125.205-1.305 1.35-1.306 4.827-.008 9.655-.007 14.483-.004 1.168.001 1.212-.014 1.262-1.177.036-.835.034-1.672.02-2.507-.018-1.118-.118-1.226-1.252-1.229-4.03-.011-8.061-.003-12.09-.008-2.434-.003-4.868-.006-7.301-.028-1.101-.01-1.336.178-1.338 1.291-.007 4.26-.003 8.521-.004 12.781"/><path fill="#1d1d1b" fill-opacity="1" fill-rule="nonzero" stroke="none" d="M189.197 162.553c-.235-.373-.356-.524-.435-.695-1.471-3.219-2.936-6.44-4.405-9.66-.486-1.067-.309-1.383.846-1.388 2.674-.014 5.348-.013 8.022 0 1.159.006 1.314.276.818 1.391-1.23 2.762-2.46 5.524-3.714 8.276-.302.662-.696 1.282-1.132 2.076m-.019 6.57c3.439-.046 2.539.405 3.967-2.639 2.583-5.505 5.028-11.074 7.526-16.619 1.143-2.536 2.284-5.075 3.41-7.619.401-.907.176-1.205-.832-1.195-.997.01-1.995.046-2.99.016-.827-.024-1.341.288-1.649 1.076-.375.961-.856 1.88-1.27 2.826-.27.616-.7.916-1.388.915-4.431-.01-8.862-.013-13.292.005-.902.003-1.384-.468-1.712-1.227-.395-.912-.74-1.859-1.25-2.704-.248-.409-.805-.833-1.257-.877-1.142-.11-2.304-.021-3.457.011-.76.021-.996.392-.673 1.101 1.201 2.641 2.4 5.284 3.594 7.929 1.488 3.296 2.967 6.595 4.456 9.89 1.227 2.717 2.467 5.429 3.694 8.147.308.682.745 1.085 1.568.977.51-.068 1.036-.013 1.555-.013"/><path fill="#1d1d1b" fill-opacity="1" fill-rule="nonzero" stroke="none" d="M97.137 113.963c-.693.033-1.242.083-1.79.083-2.753 0-5.506-.022-8.259-.019-1.324.001-1.423.109-1.444 1.431-.012.797.016 1.593-.008 2.389-.026.863.354 1.189 1.225 1.181 3.471-.032 6.942-.015 10.413-.017 1.276-.001 2.554.014 3.83-.006 1.14-.018 1.361-.206 1.449-1.276.477-5.758-2.539-11.372-7.714-14.137-3.273-1.748-6.69-2.003-10.092-1.305-4.568.938-7.996 3.71-9.975 7.988-3.465 7.493-.256 16.569 7.727 19.721 5.076 2.003 9.847 1.33 14.278-1.793 1.687-1.188 1.686-1.541.188-3-.595-.579-1.177-1.466-1.864-1.571-.636-.098-1.427.624-2.112 1.045-6.727 4.133-14.611-1.153-14.625-8.13-.013-6.844 7.026-11.713 13.607-8.806 2.438 1.077 3.961 2.999 5.036 5.343.091.199.07.449.13.879"/><path fill="#1d1d1b" fill-opacity="1" fill-rule="nonzero" stroke="none" d="M104.917 116.408c0 3.821-.001 7.642.002 11.463 0 .478.005.957.044 1.432.086 1.054.278 1.241 1.324 1.246 1.476.008 2.951-.016 4.427-.017 4.985-.003 9.971-.003 14.956-.003 1.291 0 1.444-.145 1.461-1.432.009-.676-.001-1.353-.008-2.029-.013-1.422-.091-1.518-1.47-1.518-4.587-.002-9.174.005-13.76.016-1.741.004-1.837-.079-1.841-1.796-.003-1.114-.008-2.229 0-3.343.009-1.314.086-1.413 1.444-1.417 3.829-.014 7.658-.003 11.487.002 1.573.002 1.708-.126 1.712-1.684.001-.557.012-1.115.011-1.672-.001-1.518-.147-1.654-1.616-1.65-3.749.012-7.498.015-11.248.014-1.773-.001-1.802-.039-1.803-1.809 0-1.154-.01-2.308.005-3.462.015-1.153.142-1.299 1.327-1.303 4.706-.018 9.413-.018 14.12-.017 1.497.001 1.629-.117 1.636-1.624.003-.716-.021-1.433.004-2.149.031-.851-.29-1.187-1.202-1.177-4.425.05-8.851.036-13.277.043-2.112.003-4.225.008-6.338.001-1.193-.004-1.388.156-1.395 1.349-.013 2.109-.002 4.218-.002 6.327v6.209"/><path fill="#1d1d1b" fill-opacity="1" fill-rule="nonzero" stroke="none" d="M21.532 116.48c-.001 4.142-.006 8.283.002 12.425.002 1.539.085 1.63 1.619 1.632 6.384.009 12.769.005 19.153-.001 1.276-.002 1.413-.147 1.431-1.464.01-.757 0-1.513-.016-2.27-.024-1.091-.144-1.234-1.248-1.239-3.273-.017-6.545-.007-9.817-.009-1.517-.002-3.033-.007-4.549-.014-1.218-.005-1.406-.177-1.435-1.353-.031-1.234-.056-2.468-.065-3.702-.009-1.232.219-1.473 1.457-1.475 3.87-.007 7.741.001 11.612.005 1.514.002 1.66-.137 1.659-1.609-.001-.677-.004-1.354-.006-2.031-.002-1.193-.185-1.374-1.391-1.372-3.83.004-7.661.011-11.492.009-1.796-.002-1.882-.127-1.807-1.911.044-1.032.007-2.069-.023-3.103-.039-1.337.119-1.548 1.458-1.553 4.669-.015 9.338-.008 14.007-.012 1.548-.002 1.685-.145 1.676-1.716-.004-.677-.064-1.355-.028-2.029.048-.878-.3-1.183-1.192-1.179-5.546.027-11.093.007-16.64.003-1.115-.001-2.233.042-3.346-.017-.75-.039-1.018.28-1.017.964.003 1.154-.001 2.309-.001 3.464-.001 3.185 0 6.371-.001 9.557"/><path fill="#1d1d1b" fill-opacity="1" fill-rule="nonzero" stroke="none" d="M51.188 112.637c0-1.313-.01-2.626.002-3.939.01-1.103.132-1.235 1.24-1.249 1.754-.022 3.509.012 5.263-.022 1.676-.033 3.217.375 4.679 1.183 3.202 1.77 5.114 5.508 4.568 9.02-.581 3.73-3.266 7.08-7.206 7.579-2.396.303-4.839.262-7.261.322-1.175.03-1.278-.114-1.283-1.316-.01-2.546-.002-10.265-.002-11.578m-4.831 3.875c0 4.138-.004 8.275.002 12.413.002 1.53.104 1.621 1.629 1.62 3.11-.002 6.22.008 9.329-.013 3.528-.024 6.792-.895 9.555-3.182 2.296-1.9 3.818-4.297 4.621-7.191 2.141-7.718-2.482-15.272-10.027-17.305-.761-.205-1.574-.298-2.365-.304-3.826-.035-7.653-.034-11.479-.019-1.173.004-1.282.137-1.285 1.33-.008 4.217-.003 8.434-.003 12.651z"/><path fill="#1d1d1b" fill-opacity="1" fill-rule="nonzero" stroke="none" d="M252.269 116.5h.006c0-2.623.012-5.247-.007-7.871-.007-.827.265-1.256 1.174-1.233 1.712.043 3.43-.058 5.138.041 3.972.231 7.386 2.504 8.525 6.814 1.466 5.549-2.739 11.02-8.304 11.236-1.71.067-3.426.027-5.139.012-1.247-.01-1.382-.14-1.389-1.366-.014-2.544-.004-5.089-.004-7.633m1.834 14.01c1.397-.001 2.794-.012 4.191.001 5.956.058 11.455-3.932 13.308-9.44 2.001-5.95-.043-12.74-5.572-16.381-2.279-1.501-4.834-2.213-7.574-2.219-3.273-.007-6.546-.015-9.819-.014-1.271 0-1.419.155-1.419 1.461.001 8.364.004 16.728.012 25.092.001 1.41.101 1.5 1.485 1.5h5.388"/><path fill="#1d1d1b" fill-opacity="1" fill-rule="nonzero" stroke="none" d="M198.277 125.019c-.609-.528-1.008-.902-1.435-1.24-4.206-3.327-4.61-9.795-.92-13.696 2.047-2.162 4.544-3.293 7.453-3.161 4.288.196 7.698 2.994 8.964 7.19 1.769 5.863-3.542 12.83-10.422 11.909-.777-.104-1.125.237-1.128.989-.003.955.009 1.911-.007 2.866-.014.808.41 1.096 1.172 1.179 5.453.591 11.323-2.578 13.89-7.534 1.171-2.26 1.905-4.637 1.82-7.209-.201-6.101-3.851-11.553-9.905-13.572-7.006-2.337-14.337.517-17.698 7.077-2.713 5.294-2.269 10.521 1.224 15.4.548.766 1.227 1.452 1.92 2.096.246.228.83.42 1.06.285 1.321-.77 2.583-1.644 4.012-2.579"/><path fill="#1d1d1b" fill-opacity="1" fill-rule="nonzero" stroke="none" d="M219.74 120.72c-.001 2.827-.008 5.655.002 8.482.005 1.187.111 1.282 1.307 1.301.718.012 1.437.016 2.155.007 1.22-.015 1.378-.163 1.38-1.386.007-3.783 0-7.566.001-11.35 0-1.274-.042-2.551.017-3.822.256-5.589 4.996-8.071 9.64-6.719 3.896 1.134 5.367 3.27 5.347 7.277-.023 4.818-.008 9.637.003 14.456.003 1.443.111 1.531 1.594 1.539.798.005 1.596-.003 2.394.005.73.008 1.095-.293 1.093-1.069-.016-5.336.136-10.678-.057-16.008-.17-4.735-2.404-8.523-6.844-10.376-5.662-2.362-13.61-1.636-17.142 5.851-.629 1.333-.922 2.779-.899 4.285.037 2.508.01 5.018.009 7.527"/><path fill="#1d1d1b" fill-opacity="1" fill-rule="nonzero" stroke="none" d="M166.594 126.626c-1.037-1.01-1.994-1.957-2.968-2.885-.434-.413-.797-.254-1.242.102-2.946 2.359-6.175 2.907-9.748 1.547-3.151-1.199-5.885-4.88-6.032-8.587-.211-5.287 4.472-10.155 10.137-9.881 1.937.093 3.733.777 5.302 1.962 1.068.807 1.092.808 2.086-.126.58-.545 1.186-1.065 1.743-1.631.717-.728.754-.987-.08-1.623-1.069-.817-2.18-1.632-3.387-2.208-5.742-2.74-13.001-1.27-17.162 3.557-3.406 3.952-4.469 8.565-3.065 13.606 1.46 5.245 4.9 8.67 10.164 10.094 4.942 1.335 9.462.365 13.409-2.962.29-.245.507-.575.843-.965"/><path fill="#1d1d1b" fill-opacity="1" fill-rule="nonzero" stroke="none" d="M168.319 116.55c0 4.178-.004 8.356.001 12.534.002 1.416.011 1.418 1.377 1.421.798.001 1.595.007 2.392-.005 1.109-.019 1.214-.102 1.224-1.25.025-2.824.024-5.65.026-8.475.003-3.899-.007-7.799.003-11.699.004-1.555.095-1.648 1.61-1.652 4.227-.012 8.453-.006 12.68-.011 1.649-.002 1.659-.012 1.678-1.655.01-.795-.018-1.591-.006-2.387.01-.593-.28-.902-.851-.919-.635-.019-1.271.019-1.907.016-5.661-.022-11.322-.045-16.983-.076-1.05-.006-1.237.162-1.24 1.385-.009 4.257-.003 8.515-.004 12.773"/><path fill="#fff" fill-opacity="1" fill-rule="nonzero" stroke="none" d="M173.396 276.939l.796.457zm-26.002-15.01l26.792 15.467 27.328 15.779 28.124 16.235v30.021l-41.119-23.744-41.119-23.743v-30.015zm0 129.561l41.119-23.737 19.109-11.031-25.996-15.011-6.108 3.528-28.124 16.236-28.124-16.236-28.124-16.235v-64.941l28.124-16.236 28.124-16.235 28.124 16.235 54.12 31.246v-30.021l-41.119-23.743-41.119-23.738-41.119 23.738-41.119 23.743V344.014l41.119 23.744z"/><path fill="#fff" fill-opacity="1" fill-rule="nonzero" stroke="none" d="M173.396 276.939l.796.457zm-26.002-15.01l26.792 15.467 27.328 15.779 28.124 16.235v30.021l-41.119-23.744-41.119-23.743v-30.015z"/><path fill="#009354" fill-opacity="1" fill-rule="nonzero" stroke="none" d="M5.669 5.879h124.816v50.437H5.669z"/><path fill="#008bd2" fill-opacity="1" fill-rule="nonzero" stroke="none" d="M134.485 5.879h35.662v50.437h-35.662z"/><path fill="#005ca9" fill-opacity="1" fill-rule="nonzero" stroke="none" d="M174.147 5.879h35.662v50.437h-35.662z"/><path fill="#951b81" fill-opacity="1" fill-rule="nonzero" stroke="none" d="M213.809 5.879h35.662v50.437h-35.662z"/><path fill="#e50043" fill-opacity="1" fill-rule="nonzero" stroke="none" d="M253.471 5.879h35.662v50.437h-35.662z"/></g></g></svg>