<?xml version="1.0" encoding="UTF-8" standalone="yes"?>
<svg version="1.1" id="Layer_1" xmlns="http://www.w3.org/2000/svg" xmlns:xlink="http://www.w3.org/1999/xlink" x="0px" y="0px" viewBox="-5.360000000000014 0.9399999999999977 398.32 107.12" style="enable-background:new 0 0 388.7 110;" xml:space="preserve">
  <style type="text/css">
	.st0{fill:#0B5565;}
	.st1{fill:#27AAE0;}
	.st2{fill:#375C92;}
	.st3{fill:#8DC53E;}
	.st4{fill:#34A474;}
	.st5{enable-background:new    ;}
	.st6{fill:#003399;}
	.st7{fill:#0088D1;}
	.st8{fill:#4299D0;}
	.st9{fill:none;}
	.st10{fill:#E95028;}
	.st11{fill:#FB6D26;}
	.st12{fill:#FBA226;}
	.st13{fill:#E14329;}
	.st14{fill:#BC5A34;}
	.st15{fill:#FFFFFF;}
	.st16{fill:#195C8B;}
	.st17{fill:#0E89C8;}
	.st18{fill:#54AEDE;}
	.st19{fill:#1F608E;}
	.st20{fill:#246391;}
	.st21{fill:none;stroke:#246391;stroke-width:0;stroke-linecap:round;stroke-linejoin:round;}
	.st22{fill:#83C6EB;}
	.st23{fill:none;stroke:#83C6EB;stroke-width:0;stroke-linecap:round;stroke-linejoin:round;}
	.st24{fill:#369BD1;}
	.st25{fill:none;stroke:#369BD1;stroke-width:0;stroke-linecap:round;stroke-linejoin:round;}
	.st26{fill:#0D538A;}
	.st27{fill:#0B528A;}
	.st28{fill:none;stroke:#0B528A;stroke-width:0;stroke-linecap:round;stroke-linejoin:round;}
	.st29{fill:#0B487D;}
	.st30{fill:none;stroke:#0B487D;stroke-width:0;stroke-linecap:round;stroke-linejoin:round;}
	.st31{fill:#010101;}
	.st32{fill:#818181;}
	.st33{fill:#FEFEFE;}
	.st34{fill:#2296F3;}
	.st35{clip-path:url(#SVGID_2_);fill:#32324B;}
	.st36{clip-path:url(#SVGID_2_);}
	.st37{clip-path:url(#SVGID_4_);fill:#32324B;}
	.st38{clip-path:url(#SVGID_4_);fill:#00D2FF;}
	.st39{clip-path:url(#SVGID_4_);fill:#FF4B19;}
	.st40{fill:#6DBECA;}
	.st41{fill:#2194D2;}
	.st42{fill:#2295D2;}
	.st43{fill:#6BB045;}
	.st44{fill:#2797D3;}
	.st45{fill:#84BF68;}
	.st46{fill:#7ABC6D;}
	.st47{fill:#87C06D;}
	.st48{fill:#62B68B;}
	.st49{fill:#68B776;}
	.st50{fill:#52B3B2;}
	.st51{fill:#48AC94;}
	.st52{fill:#58AF66;}
	.st53{fill:#49AC8A;}
	.st54{fill:#56B4B3;}
	.st55{fill:#53B1A2;}
	.st56{fill:#5BB170;}
	.st57{fill:#78BF8E;}
	.st58{fill:#61B794;}
	.st59{fill:#A6A6A6;}
	.st60{fill:#939393;}
	.st61{fill:#9CCDEC;}
	.st62{fill:#9ED1EE;}
	.st63{fill:#9ACFF2;}
	.st64{fill:#9ED5F6;}
	.st65{fill:#9DD2F4;}
	.st66{fill:#A0D6F6;}
	.st67{fill:#B0B0B0;}
	.st68{fill:#A7A7A7;}
	.st69{fill:#949494;}
	.st70{fill:#D6EEFD;}
	.st71{fill:#9AC9E9;}
	.st72{fill:#91B5DC;}
	.st73{fill:#D4EBFB;}
	.st74{fill:#D1E8F8;}
	.st75{fill:#A8A8A8;}
	.st76{fill:#93B9DF;}
	.st77{fill:#8FB1D9;}
	.st78{fill:#93C2EB;}
	.st79{fill:#96C6ED;}
	.st80{fill:#959595;}
	.st81{fill:#8EB6E5;}
	.st82{fill:#8EADD7;}
	.st83{fill:#96BFE3;}
	.st84{fill:#98C5E6;}
	.st85{fill:#92BEE9;}
	.st86{fill:#90BAE7;}
	.st87{fill:#88ABDE;}
	.st88{fill:#86A7DC;}
	.st89{fill:#8AAFE0;}
	.st90{fill:#C7DDEF;}
	.st91{fill:#97C1E4;}
	.st92{fill:#99CCF1;}
	.st93{fill:#CCE2F3;}
	.st94{fill:#829ED7;}
	.st95{fill:#CAE0F2;}
	.st96{fill:#C4D9EC;}
	.st97{fill:#83A2D9;}
	.st98{fill:#7F9AD5;}
	.st99{fill:#8CB2E3;}
	.st100{fill:#A3A3A3;}
	.st101{fill:#7B90CF;}
	.st102{fill:#7E96D3;}
	.st103{fill:#7584C9;}
	.st104{fill:#798CCD;}
	.st105{fill:#C1D6EA;}
	.st106{fill:#7889CB;}
	.st107{fill:#6F73BF;}
	.st108{fill:#97C3E5;}
	.st109{fill:#7D93D1;}
	.st110{fill:#7380C6;}
	.st111{fill:#BBCEE4;}
	.st112{fill:#707BC3;}
	.st113{fill:#A2A2A2;}
	.st114{fill:#BFD2E7;}
	.st115{fill:#C0D4E8;}
	.st116{fill:#B9CCE1;}
	.st117{fill:#6F77C1;}
	.st118{fill:#A1A1A1;}
	.st119{fill:#E9EBF4;}
	.st120{fill:#D7EEFD;}
	.st121{fill:#D2E9F9;}
	.st122{fill:#CFE6F7;}
	.st123{fill:#96C1E8;}
	.st124{fill:#95BDE5;}
	.st125{fill:#8EABD8;}
	.st126{fill:#8A9FD0;}
	.st127{fill:#CDE3F4;}
	.st128{fill:#98C6EB;}
	.st129{fill:#90AFDB;}
	.st130{fill:#9BCDF0;}
	.st131{fill:#8CA4D4;}
	.st132{fill:#93B7E1;}
	.st133{fill:#889ACD;}
	.st134{fill:#94BCE1;}
	.st135{fill:#9ACAEE;}
	.st136{fill:#8CA9D4;}
	.st137{fill:#C6DBEE;}
	.st138{fill:#9DD1F3;}
	.st139{fill:#C9DEF0;}
	.st140{fill:#8DA7D6;}
	.st141{fill:#89A3D0;}
	.st142{fill:#838CC3;}
	.st143{fill:#889FCD;}
	.st144{fill:#8BA6D2;}
	.st145{fill:#8695CA;}
	.st146{fill:#C3D8EB;}
	.st147{fill:#8591C7;}
	.st148{fill:#8394C6;}
	.st149{fill:#8598C9;}
	.st150{fill:#869CCB;}
	.st151{fill:#C1D5E9;}
	.st152{fill:#8190C3;}
	.st153{fill:#BDD0E5;}
	.st154{fill:#8185BF;}
	.st155{fill:#BACDE3;}
	.st156{fill:#BFD3E7;}
	.st157{fill:#808CC0;}
	.st158{fill:#B6C8DE;}
	.st159{fill:#B3C4DB;}
	.st160{fill:#7F89BF;}
	.st161{fill:#7D85BC;}
	.st162{fill:#B9CBE1;}
	.st163{fill:#94BAE3;}
	.st164{fill:#8CA7D2;}
	.st165{fill:#DDE0ED;}
	.st166{fill:#D5ECFC;}
	.st167{fill:#CFE6F6;}
	.st168{fill:#CBE0F2;}
	.st169{fill:#C8DEF0;}
	.st170{fill:#C5DAED;}
	.st171{fill:#BFD3E8;}
	.st172{fill:#8CB3E3;}
	.st173{fill:#BACCE2;}
	.st174{fill:#B6C9DF;}
	.st175{fill:#B2C3DB;}
	.st176{fill:#B0C1DA;}
	.st177{fill:#84A2DA;}
	.st178{fill:#C2D7EA;}
	.st179{fill:#97C9EF;}
	.st180{fill:#F6F6F6;}
	.st181{fill:#F5F5F5;}
	.st182{fill:#F7F7F7;}
	.st183{fill:#A4A4A4;}
	.st184{fill:#CEE5F6;}
	.st185{fill:#B5C7DE;}
	.st186{fill:#91B2DE;}
	.st187{fill:#8183BD;}
	.st188{fill:#CACFE3;}
	.st189{fill:#DC7B17;}
	.st190{fill:#CE451E;}
	.st191{fill:#D76B19;}
	.st192{fill:#D6671A;}
	.st193{fill:#F1B934;}
	.st194{fill:#D2591B;}
	.st195{fill:#D1541C;}
	.st196{fill:#F5C446;}
	.st197{fill:#F0B228;}
	.st198{fill:#FBD460;}
	.st199{fill:#E39119;}
	.st200{fill:#EDAB1F;}
	.st201{fill:#F1B833;}
	.st202{fill:#F9D05D;}
	.st203{fill:#E89C3A;}
	.st204{fill:#FDF8E8;}
	.st205{fill:#0C0C0C;}
	.st206{fill:#090909;}
	.st207{fill:#0B0B0B;}
	.st208{fill:#0D0D0D;}
	.st209{fill:#121212;}
	.st210{fill:#0E0E0E;}
	.st211{fill:#4A4747;}
	.st212{fill:#101010;}
	.st213{fill:#484545;}
	.st214{fill:#474545;}
	.st215{fill:#4D4B4B;}
	.st216{fill:#343434;}
	.st217{fill:#838181;}
	.st218{fill:#111111;}
	.st219{fill:#757373;}
	.st220{fill:#181818;}
	.st221{fill:#525050;}
	.st222{fill:#515151;}
	.st223{fill:#494949;}
	.st224{fill:#7B7979;}
	.st225{fill:#545454;}
	.st226{fill:#363636;}
	.st227{fill:#3E3E3E;}
	.st228{fill:#393939;}
	.st229{fill:#7D7B7B;}
	.st230{fill:#D4D3D3;}
	.st231{fill:#525252;}
	.st232{fill:#EAEAEA;}
	.st233{fill:#ABABAB;}
	.st234{fill:#5B5959;}
	.st235{fill:#2C2C2C;}
	.st236{fill:#3C3C3C;}
	.st237{fill:#373737;}
	.st238{fill:#454545;}
	.st239{fill:#D1D1D1;}
	.st240{fill:#E1E1E1;}
	.st241{fill:#BEBDBD;}
	.st242{fill:#2A2A2A;}
	.st243{fill:#5E5E5E;}
	.st244{fill:#565656;}
	.st245{fill:#5D5A5A;}
	.st246{fill:#5F5F5F;}
	.st247{fill:#807E7E;}
	.st248{fill:#615F5F;}
	.st249{fill:#ECECEC;}
	.st250{fill:#3F3F3F;}
	.st251{fill:#CECECE;}
	.st252{fill:#6A6868;}
	.st253{fill:#ADADAD;}
	.st254{fill:#5A5A5A;}
	.st255{fill:#606060;}
	.st256{fill:#C9C9C9;}
	.st257{fill:#D8D8D8;}
	.st258{fill:#646161;}
	.st259{fill:#C8C8C8;}
	.st260{fill:#C3C3C3;}
	.st261{fill:#EEEEEE;}
	.st262{fill:#D7D7D7;}
	.st263{fill:#D9D9D9;}
	.st264{fill:#B3B3B3;}
	.st265{fill:#CBCBCB;}
	.st266{fill:#707070;}
	.st267{fill:#FDFDFD;}
	.st268{fill:#10679D;}
	.st269{fill:#BFBFBF;}
	.st270{fill:#005D96;}
	.st271{fill:#C4C4C5;}
	.st272{fill:#767575;}
	.st273{fill:#BEBFBF;}
	.st274{fill:#787777;}
	.st275{fill:#B9BABA;}
	.st276{fill:#B0B1B1;}
	.st277{fill:#7A7979;}
	.st278{fill:#CDCDCE;}
	.st279{fill:#7B7A7A;}
	.st280{fill:#B4B5B5;}
	.st281{fill:#FBFBFB;}
	.st282{fill:#797878;}
	.st283{fill:#DFDFE0;}
	.st284{fill:#7C7B7B;}
	.st285{fill:#ACADAD;}
	.st286{fill:#D8D9D9;}
	.st287{fill:#858484;}
	.st288{fill:#7D7C7C;}
	.st289{fill:#727171;}
	.st290{fill:#7F7E7E;}
	.st291{fill:#E6E7E7;}
	.st292{fill:#EDEEEE;}
	.st293{fill:#F3F3F3;}
	.st294{fill:#D1D1D2;}
	.st295{fill:#D5D6D6;}
	.st296{fill:#7E7D7D;}
	.st297{fill:#F1F1F1;}
	.st298{fill:#F6F7F7;}
	.st299{fill:#F3F4F5;}
	.st300{fill:#EAEBEB;}
	.st301{fill:#F9FAFA;}
	.st302{fill:#F5F6F7;}
	.st303{fill:#888787;}
	.st304{fill:#878686;}
	.st305{fill:#F1F3F4;}
	.st306{fill:#357EAC;}
	.st307{fill:#E0E0E0;}
	.st308{fill:#156A9F;}
	.st309{fill:#2574A5;}
	.st310{fill:#2776A6;}
	.st311{fill:#2272A4;}
	.st312{fill:#2D79A9;}
	.st313{fill:#E1EBF2;}
	.st314{fill:#2071A3;}
	.st315{fill:#1D6FA2;}
	.st316{fill:#689EC1;}
	.st317{fill:#1B6EA2;}
	.st318{fill:#1E70A3;}
	.st319{fill:#B3CEDF;}
	.st320{fill:#D8D8D9;}
	.st321{fill:#EBECEC;}
	.st322{fill:#F3F4F4;}
	.st323{fill:#E7E8E8;}
	.st324{fill:#EFF0F0;}
	.st325{fill:#F4F5F5;}
	.st326{fill:#F7F8F8;}
	.st327{fill:#F8F8F8;}
	.st328{fill:#E3E3E4;}
	.st329{fill:#F8F9F9;}
	.st330{fill:#76A7C6;}
	.st331{fill:#E3E9EC;}
	.st332{fill:#D6E4EE;}
	.st333{fill:#D8E6EF;}
	.st334{fill:#D9E7EF;}
	.st335{fill:#C0D6E5;}
	.st336{fill:#DEE9F1;}
	.st337{fill:#DEEAF1;}
	.st338{fill:#E1ECF2;}
	.st339{fill:#FAFBFB;}
	.st340{fill:#F5F7F8;}
	.st341{fill:#F2F6F9;}
	.st342{fill:#FCFCFC;}
	.st343{fill:#D5D5D6;}
	.st344{fill:#DFE0E0;}
	.st345{fill:#DBDCDC;}
	.st346{fill:#AAABAB;}
	.st347{fill:#A5A6A6;}
	.st348{fill:#B5B6B6;}
	.st349{fill:#D6D6D7;}
	.st350{fill:#C6C6C7;}
	.st351{fill:#CBCCCC;}
	.st352{fill:#AFB0B0;}
	.st353{fill:#B2B3B3;}
	.st354{fill:#A6A7A7;}
	.st355{fill:#D0DAE4;}
	.st356{fill:#1F3961;}
	.st357{fill:#275598;}
	.st358{fill:#68CFEB;}
	.st359{fill:#FE5859;}
	.st360{fill:#49B64F;}
</style>
  <g id="EbqYfI.tif">
    <g>
      <path d="M68.3,3.4c0.8,0.7,1.4,1.6,1.8,2.6c0.3,0.8,0.6,1.5,0.6,2.4c0,1,0,2,0,3c0,1.1-0.4,2.2-0.8,3.2c-0.2,0.5-0.6,0.8-0.8,1.3&#xA;&#x9;&#x9;&#x9;c-0.4,1-0.4,2-0.1,3.1c0.2,0.6,0.2,1.3,0.5,1.9c0.6,1.4,1.2,2.8,2,4.1c0.6,1,1.5,1.7,2.3,2.5c0.6,0.6,1.5,1.1,2.3,1.5&#xA;&#x9;&#x9;&#x9;c0.1,0.1,0.2,0.1,0.4,0.1c1.3-0.1,2.5,0.6,3.7,1c0.8,0.2,1.5,0.4,2.3,0.7c1,0.4,1.9,1,2.9,1.5c0.7,0.3,1.4,0.6,2,1&#xA;&#x9;&#x9;&#x9;c0.6,0.3,1.1,0.7,1.7,0.9c0.3,0.1,0.7,0.2,1,0.2c1.3,0,2.7,0,4,0c0.9,0,1.6-0.4,2.4-0.6c1.1-0.2,2.1-0.8,3-1.3&#xA;&#x9;&#x9;&#x9;c1.1-0.7,2.3-1.3,2.8-2.7c0-0.1,0.1-0.2,0.1-0.3c0-1.1,0.7-2,1.1-2.9c0.1-0.3,0.3-0.5,0.5-0.7c0.3-0.3,0.6-0.6,0.8-1.1&#xA;&#x9;&#x9;&#x9;c0.1-0.3,0.4-0.6,0.7-0.7c1.3-0.8,2.4-1.9,3.9-2.4c1.1-0.4,2.3-0.3,3.3,0.3c0.3,0.2,0.5,0.6,0.6,1c0.2,0.6,0.2,1.3,0,1.9&#xA;&#x9;&#x9;&#x9;c-0.3,0.9-0.7,1.7-1.3,2.5c-0.6,1-1.4,1.8-2.3,2.6c-0.9,0.9-2,1.6-3.3,1.9c-1.3,0.3-2.4,0.9-3.3,1.9c-0.5,0.6-0.8,1.3-1.1,2&#xA;&#x9;&#x9;&#x9;c-0.6,1.1-0.9,2.3-1.3,3.5c-0.2,0.9-0.2,1.8-0.6,2.6c-0.2,0.5-0.2,1.1,0.1,1.7c0.2,0.4,0.2,0.8,0.2,1.2c-0.1,0.8,0.3,1.5,0.8,2.1&#xA;&#x9;&#x9;&#x9;c0.6,0.8,1,1.8,1.4,2.7c0.2,0.4,0.4,0.9,0.6,1.3c0.7,1.4,1.3,2.9,1.7,4.4c0.4,1.3,0.7,2.6,1.2,3.9c0.2,0.6,0.7,1.2,1.1,1.7&#xA;&#x9;&#x9;&#x9;c0.9,1,1.8,1.9,3,2.6c1.2,0.6,2.4,1.2,3.6,1.7c0.9,0.3,1.8,0.2,2.7,0.6c0.5,0.2,1.2,0.1,1.8-0.1c0.5-0.2,1.1-0.5,1.6-0.8&#xA;&#x9;&#x9;&#x9;c0.9-0.5,1.9-0.9,3.1-0.9c1,0,2,0,3,0c1.9,0,3.5,0.7,4.8,2c0.7,0.7,0.7,2.2,0,2.9c-0.9,0.9-2,1.4-3.3,1.7&#xA;&#x9;&#x9;&#x9;c-1.6,0.5-3.2,0.2-4.7,0.3c-0.7,0-1.3-0.4-2-0.5c-0.8-0.1-1.4-0.7-2.1-1c-1-0.5-2-0.4-3.1-0.1c-0.1,0-0.2,0.1-0.2,0.1&#xA;&#x9;&#x9;&#x9;c-1.2-0.2-2.1,0.7-3.2,0.8c-0.4,0.1-0.7,0.3-1,0.5c-0.7,0.5-1.5,0.9-2.1,1.4c-0.9,0.8-1.8,1.6-2.5,2.6c-0.8,1.3-1.1,2.7-1.5,4.1&#xA;&#x9;&#x9;&#x9;c-0.3,1.1-0.6,2.2-1.1,3.2c-0.2,0.4-0.3,0.8-0.3,1.2c0,0.7,0,1.3,0,2c-0.1,1,0.3,1.9,0.5,2.8c0.3,1.3,1,2.4,1.6,3.6&#xA;&#x9;&#x9;&#x9;c0.2,0.4,0.4,0.7,0.7,1c0.2,0.1,0.3,0.3,0.4,0.5c0.3,0.9,1.1,1.3,1.8,1.9c0.7,0.5,1.3,0.5,2.1,0.6c1.3,0.2,2.5,0.6,3.7,1.2&#xA;&#x9;&#x9;&#x9;c1.5,0.8,2.8,2,3.9,3.2c0.7,0.8,1.1,1.7,1.4,2.7c0.2,0.9-0.3,2-1.2,2.5c-0.1,0.1-0.2,0.2-0.3,0.3c-0.8,0-1.7,0-2.5,0&#xA;&#x9;&#x9;&#x9;c-0.1-0.2-0.3-0.3-0.5-0.3c-0.3,0-0.5,0-0.8-0.1c-1.6-0.6-2.9-1.6-4.2-2.7c-0.9-0.8-1.4-1.8-2-2.8c-0.3-0.6-0.6-1.4-1.2-1.7&#xA;&#x9;&#x9;&#x9;c-0.9-0.5-1.8-1-2.8-1.3c-0.6-0.2-1.2-0.2-1.8-0.4c-0.5-0.2-1-0.3-1.6-0.3c-0.5,0-1,0-1.4-0.3c-0.2-0.1-0.4-0.1-0.6,0&#xA;&#x9;&#x9;&#x9;c-0.9,0.6-2,0.2-3,0.6c-1,0.4-2.1,0.5-3.1,1.1c-1,0.6-2.2,0.9-3.4,1.1c-1.3,0.3-2.7-0.1-4-0.4c-1.3-0.3-2.2-1.4-3.3-2.1&#xA;&#x9;&#x9;&#x9;c-0.2-0.1-0.2-0.3-0.3-0.4c-0.3-0.6-0.5-0.7-1-0.2c-0.1,0.1-0.2,0.2-0.2,0.3c-0.4,0.8-1.2,1.2-1.9,1.7c-0.9,0.6-2.1,0.9-3.2,1.1&#xA;&#x9;&#x9;&#x9;c-1.5,0.3-3.1,0.1-4.5-0.4C70.2,97.7,69,97,68,96c-0.1-0.1-0.3-0.3-0.5-0.4c-0.3-0.2-0.5-0.2-0.8,0c-0.5,0.6-1.2,1-1.8,1.5&#xA;&#x9;&#x9;&#x9;c-1.2,0.9-2.6,1.3-4,1.5c-0.9,0.2-2,0.3-2.9-0.3c-0.1-0.1-0.4-0.1-0.5-0.1c-1.1,0-1.9-0.5-2.7-1.1c-0.7-0.5-1.5-1-2-1.9&#xA;&#x9;&#x9;&#x9;c-0.1-0.1-0.2-0.2-0.3-0.2c-0.2,0.2-0.4,0.4-0.6,0.6c-0.6,1-1.6,1.6-2.6,2.1c-0.4,0.2-0.8,0.2-1.2,0.3c-0.8,0.2-1.6,0.5-2.4,0.6&#xA;&#x9;&#x9;&#x9;c-0.9,0.1-1.7-0.2-2.6-0.4c-0.3-0.1-0.6-0.1-0.8-0.2c-0.7-0.3-1.4-0.7-2.1-0.9c-0.9-0.3-1.9-0.6-2.8-0.8c-1.5-0.4-3-0.1-4.6-0.2&#xA;&#x9;&#x9;&#x9;c-0.9,0.5-2,0.3-3,0.7c-1.1,0.4-2.2,0.9-3.1,1.7c-0.3,0.2-0.6,0.4-0.7,0.8c-0.5,1.2-1.2,2.3-2.2,3.2c-0.7,0.6-1.3,1.2-2.1,1.7&#xA;&#x9;&#x9;&#x9;c-0.8,0.5-1.6,1-2.5,1.2c-0.2,0.1-0.3,0.1-0.4,0.3c-1.2,0-2.4,0-3.6,0c-0.1-0.3-0.4-0.5-0.5-0.7c-0.4-0.7-1-1.4-0.3-2.2&#xA;&#x9;&#x9;&#x9;c0,0,0-0.1,0.1-0.2c0.1-1.4,1.3-2.1,1.9-3.2c0.1-0.2,0.3-0.2,0.4-0.3c0.3-0.1,0.4-0.2,0.6-0.4c0.7-0.8,1.6-1.4,2.6-1.8&#xA;&#x9;&#x9;&#x9;c0.9-0.4,1.8-0.9,2.9-0.9c1.1,0,2-0.5,2.8-1.2c1.5-1.2,2.4-2.8,3.3-4.4c0.2-0.4,0.2-0.9,0.4-1.3c0.7-1.2,1-2.5,0.9-3.9&#xA;&#x9;&#x9;&#x9;c-0.1-1.4,0-2.7-0.6-4.1c-0.6-1.4-1.1-3-1.3-4.6c0-0.1-0.1-0.2-0.1-0.3c-0.4-1-1-1.9-1.9-2.6c-0.3-0.3-0.6-0.6-0.9-0.9&#xA;&#x9;&#x9;&#x9;c-0.5-0.6-1-1.1-1.7-1.3c-0.5-0.2-0.8-0.7-1.4-0.8c-1.3-0.2-2.4-1.2-3.8-1.3c-1.5-0.2-3-0.5-4.3,0.6c-0.5,0.4-1.1,0.7-1.8,0.7&#xA;&#x9;&#x9;&#x9;c-0.2,0-0.4,0-0.5,0.1c-0.3,0.3-0.7,0.3-1.1,0.2c-1.5-0.1-3,0.2-4.6-0.3c-0.5-0.2-1.1-0.3-1.7-0.6c-0.3-0.1-0.4-0.5-0.7-0.5&#xA;&#x9;&#x9;&#x9;c-0.5-0.1-0.8-0.4-1-0.9c-0.1-0.1-0.2-0.2-0.3-0.3c0-0.7,0-1.4,0-2.2c0.3,0,0.5-0.3,0.7-0.4c1.3-1.1,2.9-1.8,4.6-1.8&#xA;&#x9;&#x9;&#x9;c0.8,0,1.5,0,2.3,0c1.5-0.1,2.8,0.3,4.1,1c0.8,0.4,1.6,1,2.6,0.9c0.9-0.1,1.7-0.5,2.5-0.5c0,0,0.1,0,0.1,0c0.8-0.3,1.6-0.6,2.4-1&#xA;&#x9;&#x9;&#x9;c1.4-0.7,2.8-1.4,3.8-2.6c0.6-0.7,1.3-1.2,1.7-2c0.4-0.7,0.9-1.3,0.8-2.1c0-0.3,0.1-0.6,0.2-0.9c0.3-0.9,0.6-1.9,0.9-2.8&#xA;&#x9;&#x9;&#x9;c0.2-0.7,0.4-1.4,0.7-2c0.6-1.2,1.2-2.3,1.8-3.5c0.1-0.2,0.2-0.5,0.4-0.7c0.8-1.1,1.2-2.2,1.3-3.6c0.1-1.1,0.2-2.1,0-3.1&#xA;&#x9;&#x9;&#x9;c-0.2-0.7,0-1.4-0.3-2.1c-0.5-1.2-0.7-2.5-1.4-3.7c-0.5-0.9-1.2-1.7-1.9-2.4c-0.4-0.4-0.8-0.6-1.3-0.7c-1.4-0.3-2.7-0.8-3.7-1.7&#xA;&#x9;&#x9;&#x9;c-1.4-1.2-2.8-2.4-3.6-4.2c-0.5-1-0.7-1.9-0.6-2.9c0-0.7,1-1.8,1.6-1.9c0.9-0.1,1.9-0.2,2.7,0.3c0.7,0.4,1.6,0.6,2.2,1.2&#xA;&#x9;&#x9;&#x9;c0.9,0.9,1.7,1.7,2.6,2.6c0.2,0.2,0.4,0.4,0.6,0.7c0.5,1,1,2,1.3,3.1c0.2,0.8,0.7,1.5,1.4,2c0.8,0.5,1.6,1.1,2.6,1.5&#xA;&#x9;&#x9;&#x9;c1.8,0.8,3.6,1.3,5.5,1.3c1.1,0,2.1,0,3.2,0c0.7,0,1.3-0.3,1.8-0.7c0.2-0.1,0.3-0.3,0.5-0.4c1.8-0.7,3.4-1.9,5.2-2.5&#xA;&#x9;&#x9;&#x9;c1.8-0.6,3.6-1.4,5.5-1.8c0.5-0.1,1-0.2,1.4-0.5c0.7-0.5,1.5-0.9,2-1.6c0.5-0.7,1.1-1.3,1.6-1.9c1-1.3,1.5-2.7,2.1-4.2&#xA;&#x9;&#x9;&#x9;c0.2-0.6,0.2-1.2,0.4-1.7c0.4-1.2,0.4-2.3-0.1-3.4c-0.3-0.6-0.5-1.1-0.8-1.7c-0.4-0.9-0.8-1.9-0.7-2.9c0-0.9,0-1.7,0-2.6&#xA;&#x9;&#x9;&#x9;c0-0.9,0.3-1.6,0.6-2.4c0.4-0.9,0.8-1.8,1.5-2.4c0.1-0.1,0.1-0.2,0.1-0.2C66.7,3.4,67.5,3.4,68.3,3.4z M84.4,92.2&#xA;&#x9;&#x9;&#x9;c0.4-0.2,0.6-0.6,0.9-0.7c0.7-0.2,1.1-0.8,1.6-1.2c0.7-0.7,1.7-1.2,2.1-2.2c0,0,0,0,0.1-0.1c0.7-0.7,1.5-1.4,2.1-2.3&#xA;&#x9;&#x9;&#x9;c0.7-1,1.4-1.9,1.9-3c0.2-0.4,0.6-0.6,0.7-1.1c0.1-0.8,0.6-1.5,1-2.2c0.3-0.5,0.5-1,0.7-1.5c0.2-0.6,0.2-1.2,0.4-1.7&#xA;&#x9;&#x9;&#x9;c0.3-0.8,0.7-1.7,0.6-2.6c0-0.2,0-0.4,0.1-0.5c0.2-0.3,0.2-0.7,0.2-1c0-0.2,0-0.5,0.1-0.7c0.4-0.6,0.3-1.3,0.3-1.9&#xA;&#x9;&#x9;&#x9;c0-1.2,0-2.5,0-3.7c0-1-0.5-1.9-0.4-2.9c0-0.1,0-0.1-0.1-0.2c-0.3-0.3-0.2-0.7-0.2-1c0-0.2,0-0.4-0.1-0.6&#xA;&#x9;&#x9;&#x9;c-0.4-0.8-0.4-1.7-0.7-2.5c-0.3-0.8-0.5-1.7-0.9-2.5c-0.7-1.2-1.1-2.6-2-3.7c-0.3-0.4-0.6-0.8-0.8-1.2c-0.5-1-1.1-1.9-1.9-2.6&#xA;&#x9;&#x9;&#x9;c-0.2-0.2-0.3-0.4-0.5-0.6c-0.5-0.8-1.2-1.6-2-2.1c-1.1-0.7-1.9-1.7-3-2.4c-1.1-0.7-2.2-1.5-3.4-2.2c-0.8-0.5-1.6-0.9-2.5-1.2&#xA;&#x9;&#x9;&#x9;c-0.8-0.3-1.7-0.5-2.5-0.9c-0.7-0.3-1.5-0.5-2.3-0.6c-1.1-0.2-2.2-0.6-3.4-0.4c-0.1,0-0.3-0.1-0.4-0.1c-0.7-0.4-1.4-0.2-2.2-0.2&#xA;&#x9;&#x9;&#x9;c0.2,1,0.1,1.9,0.1,2.8c0,0.5,0,1,0,1.5c0,0.4,0.2,0.8,0.5,0.9c0.5,0.1,0.9,0.4,1.4,0.4c1.6,0.2,2.9,1,4.4,1.5&#xA;&#x9;&#x9;&#x9;c0.9,0.3,1.4,0.9,1.2,2c-0.1,0.6,0.1,1.3-0.2,1.9c-0.2,0.4-0.2,0.8-0.2,1.2c0,0.4,0,0.9-0.1,1.3c0.7,0.1,1.3,0.4,1.8,0.6&#xA;&#x9;&#x9;&#x9;c1.4,0.4,2.7,0.9,4,1.4c0.5,0.2,1.2,0.4,1.4,1.1c0.2,0.9,0.2,1.8,0,2.6c-0.2,0.7-0.3,1.3-0.3,1.9c0,0.3,0.1,0.7-0.1,1&#xA;&#x9;&#x9;&#x9;c-0.4,0.7-0.3,1.5-0.3,2.3c0,0.3,0,0.6-0.1,0.8c-0.3,0.6-0.3,1.2-0.3,1.8c0,0.4,0,0.7-0.2,1.1c-0.5,0.7-0.2,1.5-0.3,2.2&#xA;&#x9;&#x9;&#x9;c0,0.2,0.2,0.3,0.4,0.4c0.9,0.4,1.8,0.9,2.8,1.2c1.3,0.5,2.5,1,3.7,1.4c1,0.3,1,0.6,0.7,1.7c-0.2,0.7-0.6,1.4-0.5,2.3&#xA;&#x9;&#x9;&#x9;c0,0.2,0,0.4-0.1,0.6c-0.2,0.3-0.2,0.6-0.2,0.9c0,0.2,0,0.5-0.1,0.7c-0.5,1.2-0.5,2.5-1,3.7c-0.6,1.4-0.7,3-1.5,4.3&#xA;&#x9;&#x9;&#x9;c0,0.1-0.1,0.2-0.1,0.3c-0.2,0.9-0.4,1.7-0.8,2.4c-0.3,0.5-0.3,1.1-0.6,1.6c-0.1,0.2,0,0.5,0.1,0.8C84,90.8,84.1,91.5,84.4,92.2z&#xA;&#x9;&#x9;&#x9; M59.3,51.2c-0.3-1,0-2-0.4-3c-0.3-0.7-0.1-1.5-0.1-2.3c0-0.3,0.1-0.5,0.4-0.6c0.7-0.4,1.3-0.6,2-1c1.3-0.6,2.7-0.9,4.1-1.3&#xA;&#x9;&#x9;&#x9;c0.9-0.3,1-0.4,1-1.3c0-1,0-2.1,0-3.1c0-1-0.1-1-1-1c-0.6,0-1,0.3-1.6,0.4c-0.9,0.1-1.7,0.2-2.6,0.3c-0.8,0.1-1.7,0.6-2.5,0.5&#xA;&#x9;&#x9;&#x9;c-0.1,0-0.3,0.1-0.4,0.2c-0.3,0.2-0.6,0.4-1,0.5c-1.1,0.3-2.1,0.7-3.2,1.2c-0.6,0.3-1.3,0.5-1.8,0.9c-0.7,0.5-1.4,0.9-2.1,1.4&#xA;&#x9;&#x9;&#x9;c-0.8,0.6-1.7,0.9-2.3,1.7c-0.2,0.3-0.5,0.6-0.9,0.8c-0.4,0.1-0.6,0.4-0.9,0.6c-1,1-1.7,2.2-2.7,3.1c-0.4,0.4-0.7,0.9-1,1.4&#xA;&#x9;&#x9;&#x9;c-0.5,0.8-0.8,1.7-1.4,2.4c-1.3,1.6-1.9,3.6-2.4,5.5c-0.1,0.4-0.4,0.7-0.4,1.2c0,0.8-0.5,1.6-0.4,2.5c-0.6,1-0.3,2.2-0.7,3.2&#xA;&#x9;&#x9;&#x9;c0.1,1.8-0.2,3.5,0.3,5.3c0.3,0.9,0.2,2,0.4,3c0.1,0.8,0.3,1.6,0.5,2.4c0.4,1.4,0.8,2.8,1.6,4c0.2,0.4,0.1,0.8,0.4,1.2&#xA;&#x9;&#x9;&#x9;c0.8,1,1.3,2.1,2,3.1c0.7,1.1,1.4,2.1,2.3,3c0.8,0.8,1.6,1.6,2.4,2.4c0.9,0.9,1.9,1.7,2.9,2.4c0.5-0.9,1.1-1.7,0.8-2.6&#xA;&#x9;&#x9;&#x9;c-0.2-0.7-0.5-1.4-0.8-2.1c-0.3-0.6-0.5-1.2-0.7-1.7c-0.3-0.9-0.7-1.8-1-2.8c-0.3-1.1-0.5-2.3-1-3.3c-0.3-0.7-0.4-1.6-0.6-2.3&#xA;&#x9;&#x9;&#x9;c-0.2-0.7-0.5-1.4-0.5-2.1c0-1-0.3-1.9-0.6-2.7c-0.3-0.6-0.1-1,0.5-1.3c0.8-0.4,1.5-0.7,2.3-1c0.7-0.2,1.3-0.6,1.9-0.7&#xA;&#x9;&#x9;&#x9;c1-0.2,1.7-0.8,2.6-1.2c0.2-0.1,0.4-0.2,0.4-0.5c0-0.6,0.2-1.2-0.1-1.8c-0.3-0.6-0.3-1.2-0.3-1.9c0-0.4,0.1-0.9-0.1-1.2&#xA;&#x9;&#x9;&#x9;c-0.3-0.5-0.3-1-0.3-1.5c0-0.3,0.1-0.7-0.1-1c-0.4-0.7-0.3-1.5-0.3-2.3c0-0.2,0-0.5-0.1-0.7c-0.4-0.8-0.3-1.6-0.3-2.5&#xA;&#x9;&#x9;&#x9;c-0.1-0.8,0.2-1.3,1-1.5c1.2-0.4,2.4-1,3.6-1.4C57.4,51.8,58.4,51.5,59.3,51.2z M64.7,65.7c-0.7,0.7-1.4,1.2-2.2,1.7&#xA;&#x9;&#x9;&#x9;c-0.8,0.5-1.5,1-2.3,1.5c-1.7,1-3.5,1.8-5.3,2.7c-0.8,0.4-1.8,0.7-2.6,1.1c-0.7,0.4-1.4,0.8-2.2,1c-0.4,0.1-0.8,0.3-0.5,0.9&#xA;&#x9;&#x9;&#x9;c0.1,0.1,0.1,0.3,0,0.4c-0.1,0.9,0.3,1.8,0.5,2.6c0.1,0.8,0.5,1.6,0.7,2.5c0.1,0.6,0.2,1.2,0.4,1.7c0.2,0.7,0.4,1.4,0.7,2&#xA;&#x9;&#x9;&#x9;c0.3,0.6,0.2,1.2,0.6,1.8c0.7,1.1,1,2.3,1.5,3.4c0.5,1.2,1,2.4,1.6,3.5c0.6,1.2,1.6,2.1,3,2.2c1.4,0.1,2.9,0.2,4.2-0.7&#xA;&#x9;&#x9;&#x9;c1.1-0.8,1.9-1.7,1.9-3.1c0-8.1,0-16.1,0-24.2C64.8,66.4,64.9,66.1,64.7,65.7z M57.2,66.1c0.4-0.1,0.7-0.2,1-0.4&#xA;&#x9;&#x9;&#x9;c0.2-0.2,0.6-0.3,0.8-0.5c1.1-0.6,2.2-1.3,3.2-1.9c0.6-0.4,1-0.9,1.6-1.3c1.1-0.6,1.7-1.5,2.2-2.5c0.3-0.6,0.3-1-0.2-1.5&#xA;&#x9;&#x9;&#x9;c-0.3-0.3-0.4-1.5-0.2-1.9c0.4-0.6,1.8-0.8,2.4-0.4c0.9,0.7,1,1.5,0.3,2.5c-0.2,0.3-0.4,0.6-0.2,0.9c0.5,1.1,1,2.2,2.2,2.8&#xA;&#x9;&#x9;&#x9;c0.6,0.3,1.1,0.7,1.5,1.1c0.5,0.5,1.1,0.9,1.7,1.1c0.2,0.1,0.3,0.1,0.5,0.3c0.7,0.7,1.7,0.9,2.4,1.5c0.7,0.5,1.1,0.3,1.1-0.6&#xA;&#x9;&#x9;&#x9;c0-0.5,0-1,0-1.5c0-0.2,0-0.5,0.1-0.7c0.4-0.7,0.3-1.4,0.3-2.1c0-0.4-0.1-0.8,0.1-1.1c0.3-0.5,0.3-1,0.3-1.6c0-0.5-0.1-0.9,0-1.3&#xA;&#x9;&#x9;&#x9;c0.1-0.5,0-0.7-0.4-0.9c-1.2-0.4-2.4-1-3.6-1.2c-0.6-0.1-1.2-0.2-1.8-0.4c-1-0.4-2.2-0.1-3.2-0.6c0,0-0.1,0-0.2,0&#xA;&#x9;&#x9;&#x9;c-1.4,0-2.9,0-4.3,0c-0.3,0-0.6,0-0.9,0.1c-0.3,0.2-0.6,0.2-0.9,0.2c-0.8-0.1-1.6,0.3-2.3,0.5c-0.8,0.2-1.6,0.3-2.3,0.7&#xA;&#x9;&#x9;&#x9;c-0.6,0.3-1.3,0.4-1.9,0.7c-0.5,0.2-0.6,0.5-0.5,1c0.1,0.4,0,0.9,0,1.3c0,0.5,0,1,0.3,1.5c0.1,0.1,0.1,0.3,0.1,0.5&#xA;&#x9;&#x9;&#x9;c0,1.1,0,2.1,0.3,3.2C56.9,64.4,56.9,65.3,57.2,66.1z M71.8,50.5c-0.3-0.6-0.3-1.1,0-1.6c0.2-0.3,0.1-0.6,0.1-1&#xA;&#x9;&#x9;&#x9;c0-0.3-0.1-0.5-0.5-0.6c-0.9-0.3-1.7-0.5-2.5-0.8c-0.7-0.3-1.3-0.3-2-0.3c-0.5,0-0.9,0.3-1.4,0.4c-0.9,0.1-1.7,0.5-2.5,0.8&#xA;&#x9;&#x9;&#x9;c-0.4,0.2-0.6,0.5-0.6,0.9c0,0.5,0.1,1,0.3,1.5c0.3,0.7,0.6,0.9,1.3,0.6c0.3-0.2,0.7-0.2,1-0.2c1.4,0,2.9,0,4.3,0&#xA;&#x9;&#x9;&#x9;c0.3,0,0.6-0.1,0.8,0.1C70.6,50.7,71.1,50.6,71.8,50.5z"/>
      <path d="M167.3,55c0-0.9,0.2-1.6,0.4-2.4c0.2-0.8,0.2-0.9,1-0.9c2.2,0,4.5,0,6.7,0c0.8,0,1.1,0.3,1.1,1.1c0,0.2,0,0.3,0,0.5&#xA;&#x9;&#x9;&#x9;c0,9.3,0,18.7,0,28c0,2.2-0.5,4.4-1.6,6.3c-1.3,2.5-3.3,4.2-5.9,5.3c-1.6,0.7-3.3,1.1-5,1.2c-0.8,0-1.6,0.4-2.5,0.3&#xA;&#x9;&#x9;&#x9;c-0.4,0-0.8,0-1.2-0.2c-0.2-0.1-0.4-0.1-0.6-0.1c-2.6-0.1-5.1-0.9-7.4-1.9c-0.6-0.2-0.7-0.6-0.5-1.1c0.5-1.3,0.6-2.7,1-4&#xA;&#x9;&#x9;&#x9;c0.1-0.4,0.2-0.8,0.4-1.2c0.2-0.5,0.5-0.6,1-0.4c0.6,0.2,1.3,0.5,1.9,0.7c1.2,0.4,2.4,0.7,3.7,0.7c0.7,0,1.4,0,2.1,0&#xA;&#x9;&#x9;&#x9;c2.5,0.1,4.2-1.7,4.6-3.7c0.1-0.5,0.3-0.9,0.3-1.4c0-0.4,0-0.8,0-1.4c-0.7,0.3-1,0.7-1.5,1.1c-1.5,1-3.1,1.5-4.9,1.4&#xA;&#x9;&#x9;&#x9;c-1.4,0-2.8-0.1-4.2-0.6c-2.7-1-4.6-2.8-5.8-5.4c-0.9-1.9-1.4-3.8-1.6-5.9c-0.2-1.9-0.3-3.8-0.2-5.7c0.2-3.1,0.9-6.2,2.5-8.9&#xA;&#x9;&#x9;&#x9;c1.3-2.2,3.3-3.8,5.7-4.6c1.7-0.5,3.4-0.7,5.1-0.4c1.8,0.3,3.5,1.1,4.7,2.6c0.2,0.3,0.4,0.5,0.6,0.7C167,54.9,167.1,54.9,167.3,55&#xA;&#x9;&#x9;&#x9;z M166.6,67.3c0-1.8,0-3.6,0-5.4c0-0.6-0.2-1.1-0.6-1.5c-1-0.9-2-1.4-3.4-1.4c-1.5,0-2.5,0.7-3.2,1.9c-0.4,0.6-0.6,1.3-0.8,2&#xA;&#x9;&#x9;&#x9;c-0.6,2-0.5,4-0.4,6c0,1.3,0.3,2.5,0.7,3.7c0.3,1,0.9,1.8,2,2.1c1.6,0.4,3.1,0.4,4.5-0.4c0.8-0.4,1.2-1,1.2-1.9&#xA;&#x9;&#x9;&#x9;C166.5,70.8,166.6,69,166.6,67.3z"/>
      <path d="M296.9,54.2c0.2-0.4,0.1-0.8,0.1-1.1c0-4.3,0-8.6,0-12.8c0-0.2,0-0.4,0-0.5c0-1.1,0.2-1.2,1.3-1.2c2.4,0,4.8,0,7.2,0&#xA;&#x9;&#x9;&#x9;c1.2,0,1.4,0.2,1.4,1.4c0,5.3,0,10.7,0,16c0,8.2,0,16.5,0,24.7c0,1.5-0.1,1.6-1.6,1.7c-2,0-4,0-6,0c-0.9,0-0.9,0-1.2-1&#xA;&#x9;&#x9;&#x9;c-0.2-0.7-0.3-1.3-0.4-2c-0.4,0-0.6,0.4-0.8,0.6c-0.9,1.1-2,1.8-3.2,2.4c-0.6,0.3-1.3,0.5-2,0.5c-1.4,0-2.8,0.1-4.2-0.3&#xA;&#x9;&#x9;&#x9;c-1.5-0.4-2.8-1-4-1.9c-1.6-1.2-2.7-2.8-3.4-4.7c-0.6-1.5-1-2.9-1.2-4.5c-0.3-2-0.3-3.9-0.3-5.9c0.1-3.4,0.9-6.7,2.8-9.6&#xA;&#x9;&#x9;&#x9;c1.3-2.1,3.2-3.5,5.5-4.3c1.6-0.5,3.3-0.6,4.9-0.4c1.5,0.2,2.8,0.8,4,1.8C296.1,53.5,296.4,53.9,296.9,54.2z M297,67.3&#xA;&#x9;&#x9;&#x9;c0-1.7,0-3.4,0-5.1c0-0.8-0.3-1.4-0.9-2c-0.6-0.6-1.4-1-2.2-1.2c-0.8-0.2-1.7-0.2-2.5,0.2c-0.8,0.4-1.4,1-1.8,1.7&#xA;&#x9;&#x9;&#x9;c-0.7,1.4-1.1,2.8-1.1,4.4c0,1.4,0,2.7,0,4.1c0,1.4,0.4,2.8,1.1,4c0.3,0.6,0.8,1,1.4,1.3c1.5,0.6,3,0.5,4.4-0.3&#xA;&#x9;&#x9;&#x9;c1-0.5,1.7-1.3,1.5-2.6C296.9,70.4,297,68.8,297,67.3z"/>
      <path d="M329.4,79.2c-0.2,0.2-0.3,0.2-0.4,0.3c-0.7,1.3-1.9,1.9-3.1,2.6c-1,0.6-2.1,0.8-3.2,0.8c-0.4,0-0.8,0-1.2,0&#xA;&#x9;&#x9;&#x9;c-2.9,0-5.3-1.1-7.4-3c-1.4-1.3-2.2-3.1-2.8-4.9c-0.5-1.4-0.8-2.9-0.9-4.4c-0.1-1.5-0.2-3-0.1-4.5c0.1-3.2,0.6-6.2,2.2-9&#xA;&#x9;&#x9;&#x9;c1.4-2.5,3.4-4.4,6.2-5.2c1.6-0.5,3.3-0.6,5-0.4c1.6,0.2,3,0.9,4.1,2.1c0.2,0.2,0.4,0.4,0.6,0.6c0,0,0.1,0,0.2,0&#xA;&#x9;&#x9;&#x9;c0.2-0.3,0.1-0.6,0.1-1c0-4.3,0-8.6,0-12.8c0-1.7,0.1-1.8,1.8-1.8c2.2,0,4.4,0,6.6,0c0.3,0,0.5,0,0.8,0c0.4,0.1,0.7,0.3,0.7,0.8&#xA;&#x9;&#x9;&#x9;c0,0.2,0,0.5,0,0.7c0,13.6,0,27.2,0,40.8c0,1.5,0,1.5-1.5,1.5c-1.9,0-3.8,0-5.7,0c-0.2,0-0.5,0-0.7,0c-0.6-0.1-0.8-0.3-0.9-0.8&#xA;&#x9;&#x9;&#x9;C329.9,80.7,329.5,80,329.4,79.2z M328.7,67.4c0-1.7-0.1-3.4,0-5.2c0-1-0.3-1.6-1.1-2.2c-0.2-0.2-0.5-0.4-0.8-0.5&#xA;&#x9;&#x9;&#x9;c-1.2-0.6-2.5-0.8-3.8-0.2c-1,0.4-1.6,1.2-1.9,2.2c-0.6,1.5-1,3-1,4.6c0,1.6-0.1,3.3,0.3,4.9c0.2,0.6,0.3,1.3,0.6,1.9&#xA;&#x9;&#x9;&#x9;c0.5,1.1,1.4,1.8,2.5,2c1.4,0.2,2.8,0.1,4.1-0.7c0.7-0.5,1.1-1,1-1.8C328.6,70.8,328.7,69.1,328.7,67.4z"/>
      <path d="M213.4,61.9c0-6.1,0-12.2,0-18.3c0-0.3,0-0.5,0-0.8c0-1.1,0.2-1.2,1.3-1.2c5.7,0,11.4,0,17.1,0c0.6,0,1.1,0,1.7,0.3&#xA;&#x9;&#x9;&#x9;c0.1,0.1,0.2,0.1,0.4,0.1c1.3,0,2.4,0.4,3.6,0.8c2.1,0.7,3.9,1.8,5.3,3.4c1.4,1.5,2.3,3.3,2.8,5.3c0.4,1.7,0.6,3.5,0.4,5.2&#xA;&#x9;&#x9;&#x9;c-0.3,1.9-0.7,3.8-1.8,5.5c-1.5,2.4-3.6,4-6.2,5c-1.1,0.4-2.3,0.7-3.4,1c-3.2,0.7-6.5,0.3-9.7,0.4c-1.4,0-1.4,0-1.4,1.4&#xA;&#x9;&#x9;&#x9;c0,3.6,0,7.3,0,10.9c0,1.4-0.1,1.4-1.4,1.4c-2.3,0-4.6,0-7,0c-0.2,0-0.3,0-0.5,0c-0.8,0-1.1-0.3-1.1-1.1c0-0.3,0-0.5,0-0.8&#xA;&#x9;&#x9;&#x9;C213.4,74.2,213.4,68.1,213.4,61.9z M223.4,54.9c0,1.6,0,3.2,0,4.8c0,1,0.1,1,1,1c2,0,3.9,0,5.9,0c0.8,0,1.5-0.1,2.3-0.3&#xA;&#x9;&#x9;&#x9;c1.2-0.4,2.1-1.1,2.7-2.2c1.1-1.8,1.1-3.8,0.3-5.7c-0.8-2.1-2.5-3.2-4.6-3.3c-2.2-0.1-4.5,0-6.7,0c-0.8,0-0.9,0.1-0.9,0.9&#xA;&#x9;&#x9;&#x9;C223.4,51.7,223.4,53.3,223.4,54.9z"/>
      <path d="M275.3,69.8c0,2,0,3.9,0,5.9c0,1.8,0.6,3.6,1.1,5.3c0,0.1,0.1,0.3,0.2,0.4c0.2,0.7,0.1,0.9-0.6,0.9c-2.7,0-5.4,0-8.1,0&#xA;&#x9;&#x9;&#x9;c-0.5,0-0.8-0.2-1-0.6c-0.3-0.5-0.5-1.1-0.7-1.7c-0.2-0.6-0.3-0.7-0.8-0.2c-0.9,1-2,1.8-3.3,2.4c-0.8,0.4-1.7,0.6-2.6,0.6&#xA;&#x9;&#x9;&#x9;c-0.9,0-1.8,0-2.7,0c-0.8,0-1.6-0.2-2.3-0.5c-2.6-1-4.7-2.6-5.5-5.4c-0.6-1.9-0.7-3.8-0.2-5.8c0.7-3,2.6-4.9,5.4-5.9&#xA;&#x9;&#x9;&#x9;c0.9-0.3,1.8-0.5,2.8-0.8c2.4-0.6,4.8-0.2,7.2-0.3c1.2,0,1.2,0,1.2-1.3c0-1-0.2-2-0.6-3c-0.4-0.8-1-1.2-1.8-1.2&#xA;&#x9;&#x9;&#x9;c-0.6-0.1-1.3,0-1.9,0c-1,0.1-1.6,0.6-1.8,1.6c-0.3,1.4-0.1,1.5-1.9,1.5c-2.2,0-4.4,0-6.6,0c-0.2,0-0.4,0-0.6,0&#xA;&#x9;&#x9;&#x9;c-0.7,0-0.8-0.2-0.9-0.9c0-1.4,0.4-2.7,1-3.9c1.2-2.2,3.1-3.5,5.4-4.5c1-0.4,2.1-0.6,3.2-0.9c1.7-0.4,3.4-0.3,5.1-0.3&#xA;&#x9;&#x9;&#x9;c2.8,0.1,5.3,0.9,7.6,2.6c1.6,1.2,2.5,2.8,3.1,4.6c0.3,0.8,0.3,1.6,0.3,2.4c0,0.4,0,0.7,0.2,1.1c0.2,0.4,0.1,0.8,0.1,1.2&#xA;&#x9;&#x9;&#x9;C275.3,65.4,275.3,67.6,275.3,69.8C275.3,69.8,275.3,69.8,275.3,69.8z M265.3,71.9c0-0.5,0-0.9,0-1.4c0-0.7-0.1-0.8-0.8-0.9&#xA;&#x9;&#x9;&#x9;c-0.9,0-1.9,0-2.8,0c-1.6,0-3.1,0.9-3.3,2.9c-0.2,2.3,1.2,3.1,2.9,3.1c1.2,0,2.4-0.5,3.3-1.2c0.5-0.4,0.8-0.8,0.7-1.5&#xA;&#x9;&#x9;&#x9;C265.3,72.6,265.3,72.2,265.3,71.9z"/>
      <path d="M209.4,67.1c0,0.6,0,1.1,0,1.7c0,1.3-0.3,2.4-0.6,3.6c-0.3,1.5-0.9,2.8-1.7,4.1c-1.4,2.3-3.3,4-5.7,5&#xA;&#x9;&#x9;&#x9;c-2,0.9-4.1,1.3-6.2,1.2c-0.6,0-1.2,0-1.8,0c-2.7-0.1-5.2-0.9-7.5-2.5c-2-1.3-3.3-3.1-4.3-5.1c-0.5-1-0.8-2.1-1-3.2&#xA;&#x9;&#x9;&#x9;c-0.7-2.8-0.6-5.7-0.3-8.5c0.5-3.5,1.9-6.7,4.7-9.1c1.2-1.1,2.6-1.8,4.2-2.3c2.6-0.8,5.2-1,7.8-0.7c3,0.3,5.8,1.4,8.1,3.6&#xA;&#x9;&#x9;&#x9;c1.7,1.7,2.9,3.7,3.6,6C209.3,63,209.6,65,209.4,67.1z M194.6,75.1c0.4,0,0.6,0,0.8,0c1.5,0,2.5-0.8,3.2-2.1&#xA;&#x9;&#x9;&#x9;c0.6-1.1,1-2.4,0.9-3.7c0-0.6-0.1-1.3,0.3-1.9c0.1-0.2,0.1-0.4,0-0.6c-0.3-0.6-0.3-1.3-0.3-1.9c0.1-1.2-0.3-2.4-0.8-3.5&#xA;&#x9;&#x9;&#x9;c-0.5-1-1.2-1.7-2.2-2.1c-0.7-0.2-1.3-0.3-1.9-0.3c-1.4,0.1-2.6,0.6-3.3,1.9c-0.2,0.4-0.4,0.8-0.6,1.2c-0.7,2.2-0.8,4.4-0.6,6.6&#xA;&#x9;&#x9;&#x9;c0.1,1.2,0.3,2.3,0.7,3.4c0.4,1.2,1,2.1,2.3,2.6C193.5,75,194.1,75,194.6,75.1z"/>
      <path d="M376.6,70.4c-2.4,0-4.8,0-7.2,0c-0.2,0-0.5,0-0.7,0c-0.5,0.1-0.6,0.2-0.4,0.6c0.5,1.3,1.1,2.6,2.5,3.3&#xA;&#x9;&#x9;&#x9;c0.7,0.4,1.5,0.7,2.3,0.7c1.1,0,2.3,0.1,3.4,0c1.2-0.1,2.3-0.5,3.5-0.9c0.6-0.2,1.2-0.4,1.8-0.6c0.5-0.2,0.9,0,0.9,0.5&#xA;&#x9;&#x9;&#x9;c0.1,1.3,0.6,2.4,0.8,3.7c0.1,0.5,0.3,1,0.4,1.6c0.1,0.6-0.1,0.8-0.5,1.1c-1.3,0.7-2.6,1.2-4,1.7c-1.2,0.4-2.4,0.4-3.5,0.8&#xA;&#x9;&#x9;&#x9;c-0.5,0.1-1.1,0.1-1.6,0.1c-0.9,0-1.7,0-2.6,0c-2.5-0.1-4.9-0.7-7.1-2.1c-2.9-1.7-4.8-4.3-5.8-7.5c-0.4-1.4-0.8-2.9-0.7-4.4&#xA;&#x9;&#x9;&#x9;c0-1,0-2,0-3.1c0-3.6,1-6.8,3.1-9.7c1.5-1.9,3.4-3.4,5.8-4.1c2.4-0.7,4.7-0.9,7.1-0.6c2.7,0.3,5.1,1.1,7.2,3&#xA;&#x9;&#x9;&#x9;c1.3,1.2,2.2,2.7,2.9,4.4c0.8,1.9,1,3.9,1,6c0,1.4,0,2.8,0,4.2c0,1.4,0,1.4-1.4,1.4C381.5,70.4,379.1,70.4,376.6,70.4z M372,63.8&#xA;&#x9;&#x9;&#x9;C372,63.8,372,63.8,372,63.8c1.1,0,2.1,0,3.2,0c0.6,0,0.7-0.2,0.7-0.7c-0.1-0.8-0.2-1.5-0.6-2.2c-0.6-1.4-1.8-1.9-3.3-1.9&#xA;&#x9;&#x9;&#x9;c-1.1,0-2.6,0.8-3.1,2.1c-0.2,0.6-0.4,1.1-0.6,1.7c-0.3,0.8-0.1,1,0.8,1C370,63.9,371,63.8,372,63.8z"/>
      <path d="M343.8,60.5c0-6.8,0-13.6,0-20.4c0-1.5,0-1.6,1.6-1.6c2.2,0,4.5,0,6.7,0c0.3,0,0.5,0,0.8,0c0.6,0.1,0.8,0.3,0.9,0.9&#xA;&#x9;&#x9;&#x9;c0,0.3,0,0.5,0,0.8c0,13.5,0,27,0,40.5c0,1.5-0.1,1.6-1.6,1.6c-2.3,0-4.6,0-7,0c-0.3,0-0.5,0-0.8,0c-0.4,0-0.6-0.2-0.6-0.6&#xA;&#x9;&#x9;&#x9;c0-0.3,0-0.6,0-0.9C343.8,74,343.8,67.3,343.8,60.5z"/>
    </g>
  </g>
</svg>