<svg id="Layer_1" data-name="Layer 1" xmlns="http://www.w3.org/2000/svg" viewBox="40.660000000000025 1.6400000000000148 211.12 230.88"><defs><style>.cls-1{fill:#4285f4;}.cls-2{opacity:0.07;}.cls-2,.cls-6{isolation:isolate;}.cls-3{fill:#dde7f5;}.cls-4{fill:#bcd0eb;}.cls-5{fill:#fff;}.cls-7{fill:#4285f6;}</style></defs><title>google-stackdriver</title><path class="cls-1" d="M237.5943,82.23331l-38.6-67.1a17.12064,17.12064,0,0,0-14.5-8.6h-77.2a17.12064,17.12064,0,0,0-14.5,8.6l-38.6,67a16.805,16.805,0,0,0,0,16.8l38.6,67.5a17.15508,17.15508,0,0,0,14.5,8.9h77.2a17.15509,17.15509,0,0,0,14.5-8.9l38.6-67.1A17.37,17.37,0,0,0,237.5943,82.23331Z"/><path class="cls-2" d="M169.5943,55.53331l-.7,3.3-6.1-6.1-36.7,5.5-24.2,29.7,8.8,9-7.7-2.1,19.1,34.2,50.2,46.2h12.2a17.15509,17.15509,0,0,0,14.5-8.9l29.7-51.6Z"/><polygon class="cls-3" points="189.894 90.933 169.594 55.533 149.294 90.933 169.594 126.333 189.894 90.933"/><polygon class="cls-4" points="101.894 93.833 122.094 129.133 162.694 129.133 142.494 93.833 101.894 93.833"/><polygon class="cls-5" points="142.194 88.033 162.794 52.733 122.194 52.733 101.894 88.033 142.194 88.033"/><g id="svg_12" data-name="svg 12" class="cls-6"><path class="cls-7" d="M56.83033,211.60742a3.1118,3.1118,0,0,0-1.8418-2.27344,4.53612,4.53612,0,0,0-1.82031-.35547,3.95481,3.95481,0,0,0-3.15088,1.44727,6.5547,6.5547,0,0,0-1.2334,4.34766q0,2.92383,1.33545,4.13867a4.38892,4.38892,0,0,0,3.03809,1.21484,3.937,3.937,0,0,0,2.73535-.957,4.1361,4.1361,0,0,0,1.31445-2.50977H53.53443v-2.65039h6.61328v8.51953H57.95045l-.334-1.98242a7.55645,7.55645,0,0,1-1.72363,1.58789,6.07366,6.07366,0,0,1-3.23145.80469,6.71554,6.71554,0,0,1-5.16992-2.18555,8.33186,8.33186,0,0,1-2.10059-6.00586,8.81055,8.81055,0,0,1,2.12207-6.17969,7.23035,7.23035,0,0,1,5.61182-2.32422,7.34613,7.34613,0,0,1,4.86377,1.5332,5.71294,5.71294,0,0,1,2.10547,3.83008Z"/><path class="cls-7" d="M72.85816,221.09375a5.46513,5.46513,0,0,1-4.51318,1.834,5.46615,5.46615,0,0,1-4.51367-1.834,7.28594,7.28594,0,0,1,0-8.82031,5.42991,5.42991,0,0,1,4.51367-1.86133,5.4289,5.4289,0,0,1,4.51318,1.86133,7.284,7.284,0,0,1,0,8.82031Zm-2.45557-1.69727a5.48195,5.48195,0,0,0,0-5.4375,2.72976,2.72976,0,0,0-4.1416,0,5.44363,5.44363,0,0,0,0,5.4375,2.71889,2.71889,0,0,0,4.1416,0Z"/><path class="cls-7" d="M86.33326,221.09375a5.46513,5.46513,0,0,1-4.51318,1.834,5.46513,5.46513,0,0,1-4.51318-1.834,7.28594,7.28594,0,0,1,0-8.82031,6.40225,6.40225,0,0,1,9.02637,0,7.28594,7.28594,0,0,1,0,8.82031Zm-2.45605-1.69727a5.48195,5.48195,0,0,0,0-5.4375,2.72976,2.72976,0,0,0-4.1416,0,5.4468,5.4468,0,0,0,0,5.4375,2.71889,2.71889,0,0,0,4.1416,0Z"/><path class="cls-7" d="M95.82545,210.77734a3.6973,3.6973,0,0,1,1.80713,1.70313v-1.69141h2.99463v11.13672a6.23741,6.23741,0,0,1-.76465,3.42578q-1.3147,1.9834-5.0415,1.98242a6.87744,6.87744,0,0,1-3.67285-.88281,3.261,3.261,0,0,1-1.57275-2.63867h3.33887a1.39035,1.39035,0,0,0,.42041.77539,2.59832,2.59832,0,0,0,1.66943.41992,2.24438,2.24438,0,0,0,2.21875-1.10937,5.62588,5.62588,0,0,0,.36621-2.39258V220.752a3.71187,3.71187,0,0,1-.94727,1.13086,3.81386,3.81386,0,0,1-2.38086.70117,4.50123,4.50123,0,0,1-3.61377-1.58984,6.41857,6.41857,0,0,1-1.35205-4.30273,7.26548,7.26548,0,0,1,1.30176-4.40039,4.3002,4.3002,0,0,1,3.68994-1.78125A4.07019,4.07019,0,0,1,95.82545,210.77734Zm1.04541,8.418a3.76969,3.76969,0,0,0,.74023-2.58984,3.98,3.98,0,0,0-.70264-2.543,2.29642,2.29642,0,0,0-1.88281-.87109,2.21785,2.21785,0,0,0-2.21973,1.51758,5.405,5.405,0,0,0-.32227,1.99414,4.56194,4.56194,0,0,0,.34326,1.82031,2.238,2.238,0,0,0,2.231,1.48633A2.35631,2.35631,0,0,0,96.87086,219.19531Z"/><path class="cls-7" d="M106.62672,222.5293h-3.06982v-15.877h3.06982Z"/><path class="cls-7" d="M117.27222,211.02734a4.77551,4.77551,0,0,1,2.02881,1.73633,5.76137,5.76137,0,0,1,.93555,2.42773,15.02117,15.02117,0,0,1,.10107,2.33008h-8.55127a2.81484,2.81484,0,0,0,1.22754,2.47656,3.11579,3.11579,0,0,0,1.69287.44141,2.37975,2.37975,0,0,0,2.33643-1.3457h3.13428a3.82685,3.82685,0,0,1-1.13818,2.12109,5.70323,5.70323,0,0,1-4.417,1.71289,6.40006,6.40006,0,0,1-4.13574-1.44336q-1.7915-1.44434-1.7915-4.70117a6.35242,6.35242,0,0,1,1.61768-4.67773,5.65757,5.65757,0,0,1,4.19824-1.62891A6.67845,6.67845,0,0,1,117.27222,211.02734Zm-4.59229,2.65039a3.19075,3.19075,0,0,0-.81836,1.81836h5.28906a2.56068,2.56068,0,0,0-.81787-1.85547,2.6909,2.6909,0,0,0-1.8208-.63281A2.4399,2.4399,0,0,0,112.67994,213.67773Z"/><path class="cls-7" d="M130.65748,217.62891a3.22766,3.22766,0,0,0,.60547,1.627,3.52447,3.52447,0,0,0,2.82617.98047,6.0933,6.0933,0,0,0,1.94678-.25977,1.84682,1.84682,0,0,0,1.41846-1.8418,1.35732,1.35732,0,0,0-.69434-1.2168,7.60834,7.60834,0,0,0-2.20508-.74414l-1.71875-.377a10.70964,10.70964,0,0,1-3.48145-1.2168,3.86959,3.86959,0,0,1-1.60547-3.43555,4.56645,4.56645,0,0,1,1.57031-3.54492,6.69864,6.69864,0,0,1,4.6123-1.41016,7.07539,7.07539,0,0,1,4.335,1.33008,4.73129,4.73129,0,0,1,1.88086,3.86133h-3.18848a2.27285,2.27285,0,0,0-1.28125-2.03516,4.38772,4.38772,0,0,0-1.97656-.39844,3.75462,3.75462,0,0,0-2.09814.51758,1.63225,1.63225,0,0,0-.78369,1.44336,1.36031,1.36031,0,0,0,.77246,1.26953,9.59351,9.59351,0,0,0,2.10938.6582l2.78662.65625a7.0984,7.0984,0,0,1,2.74609,1.15234,3.887,3.887,0,0,1,1.41943,3.24219,4.55755,4.55755,0,0,1-1.68213,3.61523,7.10772,7.10772,0,0,1-4.75244,1.4375,7.77192,7.77192,0,0,1-4.93164-1.416,4.68807,4.68807,0,0,1-1.79639-3.89453Z"/><path class="cls-7" d="M141.52662,213.084v-2.1875h1.63672v-3.27539h3.03809v3.27539h1.90625v2.1875h-1.90625v6.20313a1.40048,1.40048,0,0,0,.18262.90039,2.03,2.03,0,0,0,1.12012.17773q.14063,0,.2959-.00586c.10449-.00391.207-.00977.30762-.01562v2.293l-1.4541.05469a3.9,3.9,0,0,1-2.97266-.75391,2.24564,2.24564,0,0,1-.51758-1.627V213.084Z"/><path class="cls-7" d="M154.72877,215.38867a4.8962,4.8962,0,0,0,1.22656-.26953.92545.92545,0,0,0,.66211-.873,1.03327,1.03327,0,0,0-.50781-.99609,3.20166,3.20166,0,0,0-1.49023-.27539,1.9558,1.9558,0,0,0-1.56152.53906,2.22368,2.22368,0,0,0-.4375,1.07813h-2.96191a4.48954,4.48954,0,0,1,.86621-2.53125q1.22168-1.55273,4.19727-1.55078a7.48019,7.48019,0,0,1,3.43945.76367,2.93294,2.93294,0,0,1,1.50391,2.88672v5.38672q0,.55957.02148,1.35547a1.71452,1.71452,0,0,0,.18359.82031,1.11114,1.11114,0,0,0,.45215.35547v.45117h-3.33887a3.38489,3.38489,0,0,1-.19434-.668c-.03613-.207-.06445-.44531-.08594-.71094a6.28247,6.28247,0,0,1-1.47363,1.17383,4.45065,4.45065,0,0,1-2.25391.57227,3.89515,3.89515,0,0,1-2.64844-.91016,3.23767,3.23767,0,0,1-1.0459-2.58008,3.34251,3.34251,0,0,1,1.68262-3.13477,7.5,7.5,0,0,1,2.71289-.75391Zm1.87793,1.43164a3.42007,3.42007,0,0,1-.5957.29688,5.11546,5.11546,0,0,1-.82422.21094l-.69922.12891a4.57573,4.57573,0,0,0-1.41016.41992,1.4,1.4,0,0,0-.72559,1.30273,1.36321,1.36321,0,0,0,.44238,1.13672,1.69058,1.69058,0,0,0,1.07813.34961,3.20389,3.20389,0,0,0,1.85352-.582,2.46079,2.46079,0,0,0,.88086-2.12109Z"/><path class="cls-7" d="M169.37037,215a2.71934,2.71934,0,0,0-.44238-1.18359,1.85623,1.85623,0,0,0-1.6084-.71094,2.11952,2.11952,0,0,0-2.12793,1.53906,6.40592,6.40592,0,0,0-.30176,2.16992,5.88134,5.88134,0,0,0,.30176,2.07422,2.05351,2.05351,0,0,0,2.07324,1.46484,1.82568,1.82568,0,0,0,1.5332-.582,2.87543,2.87543,0,0,0,.55078-1.50781h3.13477a5.13744,5.13744,0,0,1-1.01367,2.65039,4.92493,4.92493,0,0,1-4.28027,2.01367,5.00746,5.00746,0,0,1-4.17285-1.67969,6.78575,6.78575,0,0,1-1.33691-4.35742,6.88572,6.88572,0,0,1,1.47656-4.70117,5.14268,5.14268,0,0,1,4.07617-1.67969,6.14478,6.14478,0,0,1,3.61719.99023,4.607,4.607,0,0,1,1.666,3.5Z"/><path class="cls-7" d="M174.58424,206.707h3.01563v8.56445l3.87207-4.42969h3.81738l-4.208,4.375,4.37109,7.3125h-3.73633l-2.84473-5.01562-1.27148,1.32227v3.69336h-3.01562Z"/><path class="cls-7" d="M193.1106,210.97656a3.73653,3.73653,0,0,1,1.34668,1.29883v-5.60156h3.11328V222.5293h-2.9834v-1.627a4.3323,4.3323,0,0,1-1.498,1.51953,4.19526,4.19526,0,0,1-2.08984.47461,4.36416,4.36416,0,0,1-3.46289-1.66406,6.39412,6.39412,0,0,1-1.40527-4.27148,7.34755,7.34755,0,0,1,1.38379-4.72852,4.50438,4.50438,0,0,1,3.7002-1.72266A3.783,3.783,0,0,1,193.1106,210.97656Zm.75391,8.36523a4.27712,4.27712,0,0,0,.67871-2.50977,3.84721,3.84721,0,0,0-1.08789-3.08008,2.33291,2.33291,0,0,0-1.55078-.56055A2.15378,2.15378,0,0,0,189.928,214.209a5.48946,5.48946,0,0,0,.01074,5.127,2.16738,2.16738,0,0,0,1.94434.97461A2.26521,2.26521,0,0,0,193.86451,219.3418Z"/><path class="cls-7" d="M206.88209,210.51367q.05859.00586.26367.01758v3.14453c-.19336-.02148-.36621-.03516-.5166-.043-.15137-.00781-.27246-.01172-.36621-.01172a2.54576,2.54576,0,0,0-2.48828,1.207,4.68935,4.68935,0,0,0-.35547,2.08984v5.61133h-3.0918V210.78906h2.92969v2.04688a6.506,6.506,0,0,1,1.23926-1.60547,3.37448,3.37448,0,0,1,2.24023-.7207C206.7942,210.50977,206.843,210.50977,206.88209,210.51367Z"/><path class="cls-7" d="M212.10084,209.38867h-3.11328v-2.832h3.11328Zm-3.11328,1.40039h3.11328V222.5293h-3.11328Z"/><path class="cls-7" d="M222.30689,210.78906h3.2959l-4.23926,11.74023h-3.2373l-4.21-11.74023h3.44629l2.44531,8.66016Z"/><path class="cls-7" d="M234.99341,211.02734a4.7739,4.7739,0,0,1,2.0293,1.73633,5.76781,5.76781,0,0,1,.93555,2.42773,15.03333,15.03333,0,0,1,.10059,2.33008h-8.55078a2.81484,2.81484,0,0,0,1.22754,2.47656,3.11407,3.11407,0,0,0,1.69238.44141,2.37984,2.37984,0,0,0,2.33691-1.3457h3.13379a3.82886,3.82886,0,0,1-1.1377,2.12109,5.704,5.704,0,0,1-4.418,1.71289,6.39743,6.39743,0,0,1-4.13477-1.44336q-1.7915-1.44434-1.792-4.70117a6.3506,6.3506,0,0,1,1.61816-4.67773,5.65757,5.65757,0,0,1,4.19824-1.62891A6.67451,6.67451,0,0,1,234.99341,211.02734Zm-4.5918,2.65039a3.19075,3.19075,0,0,0-.81836,1.81836h5.28906a2.56287,2.56287,0,0,0-.81836-1.85547,2.68875,2.68875,0,0,0-1.82031-.63281A2.4399,2.4399,0,0,0,230.40162,213.67773Z"/><path class="cls-7" d="M246.134,210.51367q.05859.00586.26367.01758v3.14453c-.19434-.02148-.36719-.03516-.51758-.043s-.27246-.01172-.36621-.01172a2.54576,2.54576,0,0,0-2.48828,1.207,4.68935,4.68935,0,0,0-.35547,2.08984v5.61133h-3.09082V210.78906H242.509v2.04688a6.48406,6.48406,0,0,1,1.23828-1.60547,3.37448,3.37448,0,0,1,2.24023-.7207C246.04517,210.50977,246.094,210.50977,246.134,210.51367Z"/></g></svg>