<?xml version="1.0" encoding="utf-8"?>
<!-- Generator: Adobe Illustrator 21.1.0, SVG Export Plug-In . SVG Version: 6.00 Build 0)  -->
<svg version="1.1" id="Layer_1" xmlns="http://www.w3.org/2000/svg" xmlns:xlink="http://www.w3.org/1999/xlink" x="0px" y="0px"
	 viewBox="0 0 288 234" style="enable-background:new 0 0 288 234;" xml:space="preserve">
<style type="text/css">
	.st0{fill:#478EF6;}
	.st1{fill:#4285F4;}
	.st2{opacity:7.000000e-02;enable-background:new    ;}
	.st3{fill:#FFFFFF;}
	.st4{fill:#DDE7F5;}
	.st5{fill:#BCD0EB;}
</style>
<g>
	<path class="st0" d="M45.4,220c-0.7,0.9-1.7,1.6-2.9,2.1s-2.6,0.7-4.2,0.7c-1.6,0-3.1-0.4-4.3-1.1c-1.2-0.7-2.2-1.8-2.9-3.1
		c-0.7-1.4-1-3-1.1-4.8v-1.5c0-2.9,0.7-5.2,2.1-6.8c1.4-1.6,3.3-2.5,5.8-2.5c2.1,0,3.9,0.5,5.1,1.6c1.3,1.1,2,2.6,2.3,4.6h-3.3
		c-0.4-2.3-1.7-3.5-4-3.5c-1.5,0-2.6,0.5-3.4,1.6c-0.8,1.1-1.2,2.7-1.2,4.8v1.5c0,2.1,0.4,3.7,1.3,4.8c0.9,1.2,2.1,1.7,3.7,1.7
		c1.7,0,2.9-0.4,3.7-1.2v-3.8h-4v-2.5h7.3V220z"/>
	<path class="st0" d="M48.2,215.2c0-1.4,0.3-2.7,0.8-3.8c0.6-1.1,1.3-2,2.3-2.6s2.2-0.9,3.5-0.9c1.9,0,3.5,0.6,4.7,1.9
		c1.2,1.2,1.9,2.9,2,5l0,0.8c0,1.4-0.3,2.7-0.8,3.8c-0.5,1.1-1.3,2-2.3,2.6c-1,0.6-2.2,0.9-3.5,0.9c-2,0-3.6-0.7-4.9-2
		c-1.2-1.3-1.8-3.1-1.8-5.4V215.2z M51.4,215.5c0,1.5,0.3,2.6,0.9,3.5c0.6,0.8,1.5,1.3,2.5,1.3s1.9-0.4,2.5-1.3
		c0.6-0.8,0.9-2.1,0.9-3.7c0-1.4-0.3-2.6-0.9-3.4c-0.6-0.8-1.5-1.3-2.5-1.3c-1.1,0-1.9,0.4-2.5,1.3
		C51.7,212.6,51.4,213.8,51.4,215.5z"/>
	<path class="st0" d="M63.6,215.2c0-1.4,0.3-2.7,0.8-3.8c0.6-1.1,1.3-2,2.3-2.6s2.2-0.9,3.5-0.9c1.9,0,3.5,0.6,4.7,1.9
		c1.2,1.2,1.9,2.9,2,5l0,0.8c0,1.4-0.3,2.7-0.8,3.8c-0.5,1.1-1.3,2-2.3,2.6c-1,0.6-2.2,0.9-3.5,0.9c-2,0-3.6-0.7-4.9-2
		c-1.2-1.3-1.8-3.1-1.8-5.4V215.2z M66.9,215.5c0,1.5,0.3,2.6,0.9,3.5c0.6,0.8,1.5,1.3,2.5,1.3s1.9-0.4,2.5-1.3
		c0.6-0.8,0.9-2.1,0.9-3.7c0-1.4-0.3-2.6-0.9-3.4c-0.6-0.8-1.5-1.3-2.5-1.3c-1.1,0-1.9,0.4-2.5,1.3
		C67.2,212.6,66.9,213.8,66.9,215.5z"/>
	<path class="st0" d="M79.1,215.2c0-2.2,0.5-4,1.6-5.3c1-1.3,2.4-2,4.2-2c1.6,0,2.9,0.6,3.9,1.7l0.1-1.4h2.9v13.9
		c0,1.9-0.6,3.4-1.8,4.5c-1.2,1.1-2.8,1.6-4.7,1.6c-1.1,0-2.1-0.2-3.1-0.7c-1-0.4-1.8-1-2.3-1.7l1.5-1.9c1,1.2,2.2,1.8,3.7,1.8
		c1.1,0,1.9-0.3,2.5-0.9c0.6-0.6,0.9-1.4,0.9-2.6v-1c-0.9,1-2.2,1.6-3.7,1.6c-1.7,0-3.1-0.7-4.1-2S79.1,217.6,79.1,215.2z
		 M82.3,215.5c0,1.4,0.3,2.6,0.9,3.4c0.6,0.8,1.4,1.2,2.4,1.2c1.3,0,2.3-0.6,2.9-1.7v-6.3c-0.6-1.1-1.6-1.6-2.9-1.6
		c-1.1,0-1.9,0.4-2.5,1.3C82.6,212.6,82.3,213.9,82.3,215.5z"/>
	<path class="st0" d="M98.5,222.5h-3.2v-20.4h3.2V222.5z"/>
	<path class="st0" d="M108.4,222.8c-2,0-3.7-0.6-5-1.9c-1.3-1.3-1.9-3-1.9-5.1v-0.4c0-1.4,0.3-2.7,0.8-3.8c0.6-1.1,1.3-2,2.3-2.6
		s2.1-0.9,3.3-0.9c2,0,3.5,0.6,4.5,1.9c1.1,1.2,1.6,3,1.6,5.3v1.3h-9.4c0.1,1.2,0.5,2.1,1.2,2.8s1.6,1,2.6,1c1.5,0,2.7-0.6,3.6-1.8
		l1.7,1.7c-0.6,0.9-1.3,1.5-2.3,2C110.6,222.5,109.5,222.8,108.4,222.8z M108,210.5c-0.9,0-1.6,0.3-2.1,0.9c-0.5,0.6-0.9,1.5-1,2.6
		h6.1v-0.2c-0.1-1.1-0.4-1.9-0.9-2.4S108.9,210.5,108,210.5z"/>
	<path class="st0" d="M133.8,217.5c0-0.8-0.3-1.5-0.9-2s-1.7-0.9-3.2-1.4c-1.6-0.5-2.8-1-3.7-1.6c-1.8-1.1-2.6-2.5-2.6-4.3
		c0-1.6,0.6-2.8,1.9-3.8s2.9-1.5,4.9-1.5c1.3,0,2.5,0.2,3.6,0.7c1.1,0.5,1.9,1.2,2.5,2.1c0.6,0.9,0.9,1.9,0.9,3h-3.3
		c0-1-0.3-1.8-0.9-2.3c-0.6-0.6-1.5-0.8-2.7-0.8c-1.1,0-1.9,0.2-2.6,0.7c-0.6,0.5-0.9,1.1-0.9,2c0,0.7,0.3,1.3,1,1.8
		c0.7,0.5,1.7,0.9,3.2,1.4c1.5,0.4,2.7,1,3.6,1.5s1.6,1.2,2,2s0.6,1.6,0.6,2.6c0,1.6-0.6,2.9-1.9,3.8s-2.9,1.4-5,1.4
		c-1.4,0-2.7-0.3-3.9-0.8c-1.2-0.5-2.1-1.2-2.7-2.1c-0.6-0.9-1-2-1-3.2h3.4c0,1.1,0.4,1.9,1.1,2.5c0.7,0.6,1.8,0.9,3.1,0.9
		c1.2,0,2-0.2,2.6-0.7C133.5,218.9,133.8,218.3,133.8,217.5z"/>
	<path class="st0" d="M143.8,204.7v3.5h2.5v2.4h-2.5v8c0,0.5,0.1,0.9,0.3,1.2c0.2,0.2,0.6,0.4,1.2,0.4c0.4,0,0.7,0,1.1-0.1v2.5
		c-0.7,0.2-1.4,0.3-2.1,0.3c-2.5,0-3.7-1.4-3.7-4.1v-8.1h-2.4v-2.4h2.4v-3.5H143.8z"/>
	<path class="st0" d="M157.4,222.5c-0.1-0.3-0.3-0.7-0.4-1.3c-1,1.1-2.3,1.6-3.8,1.6c-1.4,0-2.6-0.4-3.5-1.2s-1.4-1.8-1.4-3.1
		c0-1.5,0.6-2.7,1.7-3.5c1.1-0.8,2.8-1.2,4.9-1.2h2v-0.9c0-0.7-0.2-1.3-0.6-1.8s-1-0.7-1.9-0.7c-0.7,0-1.3,0.2-1.8,0.6
		s-0.7,0.8-0.7,1.4h-3.2c0-0.8,0.3-1.5,0.8-2.2c0.5-0.7,1.2-1.2,2.1-1.6c0.9-0.4,1.9-0.6,3-0.6c1.7,0,3,0.4,4,1.3
		c1,0.8,1.5,2,1.5,3.6v6.5c0,1.3,0.2,2.3,0.5,3.1v0.2H157.4z M153.8,220.2c0.6,0,1.2-0.2,1.8-0.5c0.6-0.3,1-0.7,1.3-1.2v-2.7h-1.7
		c-1.2,0-2.1,0.2-2.7,0.6c-0.6,0.4-0.9,1-0.9,1.8c0,0.6,0.2,1.1,0.6,1.5S153.1,220.2,153.8,220.2z"/>
	<path class="st0" d="M169.4,220.2c0.8,0,1.5-0.2,2-0.7c0.5-0.5,0.8-1,0.8-1.7h3c0,0.9-0.3,1.7-0.8,2.5c-0.5,0.8-1.2,1.4-2.1,1.8
		s-1.9,0.7-2.9,0.7c-2,0-3.6-0.7-4.8-2c-1.2-1.3-1.8-3.1-1.8-5.4v-0.3c0-2.2,0.6-3.9,1.8-5.2c1.2-1.3,2.8-2,4.8-2
		c1.7,0,3.1,0.5,4.2,1.5c1.1,1,1.6,2.3,1.7,3.9h-3c0-0.8-0.3-1.5-0.8-2c-0.5-0.5-1.2-0.8-2-0.8c-1,0-1.8,0.4-2.4,1.1
		c-0.6,0.8-0.9,1.9-0.9,3.4v0.5c0,1.6,0.3,2.7,0.8,3.5C167.5,219.8,168.3,220.2,169.4,220.2z"/>
	<path class="st0" d="M182.4,216.3l-1.4,1.5v4.7h-3.2v-20.4h3.2v11.8l1-1.3l4-4.5h3.9l-5.3,6l5.9,8.4h-3.7L182.4,216.3z"/>
	<path class="st0" d="M191,215.2c0-2.2,0.5-4,1.5-5.3c1-1.3,2.4-2,4.1-2c1.5,0,2.7,0.5,3.7,1.6v-7.3h3.2v20.4h-2.9l-0.2-1.5
		c-1,1.2-2.2,1.8-3.9,1.8c-1.7,0-3-0.7-4.1-2C191.5,219.4,191,217.5,191,215.2z M194.2,215.5c0,1.5,0.3,2.6,0.8,3.4
		c0.6,0.8,1.4,1.2,2.4,1.2c1.3,0,2.3-0.6,2.9-1.8v-6.1c-0.6-1.1-1.5-1.7-2.9-1.7c-1,0-1.8,0.4-2.4,1.2
		C194.5,212.6,194.2,213.8,194.2,215.5z"/>
	<path class="st0" d="M214.5,211.1c-0.4-0.1-0.9-0.1-1.3-0.1c-1.5,0-2.5,0.6-3,1.7v9.8h-3.2v-14.3h3.1l0.1,1.6
		c0.8-1.2,1.9-1.9,3.2-1.9c0.5,0,0.8,0.1,1.1,0.2L214.5,211.1z"/>
	<path class="st0" d="M216.5,204.4c0-0.5,0.2-0.9,0.5-1.2c0.3-0.3,0.8-0.5,1.3-0.5s1,0.2,1.4,0.5c0.3,0.3,0.5,0.7,0.5,1.2
		c0,0.5-0.2,0.9-0.5,1.2s-0.8,0.5-1.4,0.5s-1-0.2-1.3-0.5S216.5,204.9,216.5,204.4z M219.9,222.5h-3.2v-14.3h3.2V222.5z"/>
	<path class="st0" d="M228.5,218.4l3-10.3h3.3l-5,14.3h-2.8l-5-14.3h3.3L228.5,218.4z"/>
	<path class="st0" d="M243,222.8c-2,0-3.7-0.6-5-1.9c-1.3-1.3-1.9-3-1.9-5.1v-0.4c0-1.4,0.3-2.7,0.8-3.8c0.6-1.1,1.3-2,2.3-2.6
		s2.1-0.9,3.3-0.9c2,0,3.5,0.6,4.5,1.9c1.1,1.2,1.6,3,1.6,5.3v1.3h-9.4c0.1,1.2,0.5,2.1,1.2,2.8s1.6,1,2.6,1c1.5,0,2.7-0.6,3.6-1.8
		l1.7,1.7c-0.6,0.9-1.3,1.5-2.3,2C245.3,222.5,244.2,222.8,243,222.8z M242.6,210.5c-0.9,0-1.6,0.3-2.1,0.9c-0.5,0.6-0.9,1.5-1,2.6
		h6.1v-0.2c-0.1-1.1-0.4-1.9-0.9-2.4S243.5,210.5,242.6,210.5z"/>
	<path class="st0" d="M258.8,211.1c-0.4-0.1-0.9-0.1-1.3-0.1c-1.5,0-2.5,0.6-3,1.7v9.8h-3.2v-14.3h3.1l0.1,1.6
		c0.8-1.2,1.9-1.9,3.2-1.9c0.5,0,0.8,0.1,1.1,0.2L258.8,211.1z"/>
</g>
<g>
	<path class="st1" d="M235.6,85.5L197,18.4c-3-5.2-8.5-8.5-14.5-8.6h-77.2c-6,0.1-11.5,3.4-14.5,8.6l-38.6,67c-3,5.2-3,11.6,0,16.8
		l38.6,67.5c2.9,5.3,8.4,8.7,14.5,8.9h77.2c6.1-0.2,11.6-3.6,14.5-8.9l38.6-67.1C238.6,97.3,238.6,90.8,235.6,85.5z"/>
	<path class="st2" d="M167.6,58.8l-0.7,3.3l-6.1-6.1l-36.7,5.5L99.9,91.2l8.8,9l-7.7-2.1l19.1,34.2l50.2,46.2h12.2
		c6.1-0.2,11.6-3.6,14.5-8.9l29.7-51.6L167.6,58.8z"/>
	<polygon class="st4" points="187.9,94.2 167.6,58.8 147.3,94.2 167.6,129.6 	"/>
	<polygon class="st5" points="99.9,97.1 120.1,132.4 160.7,132.4 140.5,97.1 	"/>
	<polygon class="st3" points="140.2,91.3 160.8,56 120.2,56 99.9,91.3 	"/>
</g>
</svg>
