<?xml version="1.0" encoding="utf-8"?>
<!-- Generator: Adobe Illustrator 16.0.4, SVG Export Plug-In . SVG Version: 6.00 Build 0)  -->
<!DOCTYPE svg PUBLIC "-//W3C//DTD SVG 1.1//EN" "http://www.w3.org/Graphics/SVG/1.1/DTD/svg11.dtd">
<svg version="1.1" xmlns="http://www.w3.org/2000/svg" xmlns:xlink="http://www.w3.org/1999/xlink" x="0px" y="0px" width="500px"
	 height="319px" viewBox="0 87.5 500 319" enable-background="new 0 87.5 500 319" xml:space="preserve">
<g id="Layer_3">
	<path fill="#EA4335" d="M272.705,138.868h5.111l14.57-14.569l0.715-6.186c-27.115-23.933-68.497-21.353-92.432,5.762
		c-6.647,7.533-11.474,16.493-14.104,26.188c1.623-0.665,3.419-0.772,5.111-0.306l29.14-4.806c0,0,1.482-2.454,2.25-2.3
		c12.961-14.235,34.777-15.895,49.74-3.784H272.705z"/>
	<path fill="#4285F4" d="M313.143,150.063c-3.35-12.333-10.225-23.419-19.783-31.899l-20.449,20.448
		c8.635,7.055,13.553,17.685,13.342,28.832v3.63c10.053,0,18.199,8.148,18.199,18.2s-8.146,18.199-18.199,18.199h-36.397
		l-3.631,3.681v21.83l3.631,3.629h36.397c26.145,0.202,47.502-20.825,47.705-46.97C334.082,173.797,326.268,158.941,313.143,150.063
		z"/>
	<path fill="#34A853" d="M213.404,236.408h36.399v-29.139h-36.399c-2.592,0-5.154-0.559-7.515-1.636l-5.11,1.585l-14.673,14.568
		l-1.278,5.114C193.055,233.111,203.095,236.453,213.404,236.408z"/>
	<path fill="#FBBC05" d="M213.404,141.884c-26.143,0.156-47.21,21.477-47.054,47.621c0.087,14.599,6.905,28.341,18.478,37.239
		l21.112-21.112c-9.159-4.139-13.229-14.918-9.09-24.08c4.139-9.159,14.917-13.229,24.078-9.091
		c4.036,1.822,7.269,5.057,9.092,9.091l21.111-21.112C242.15,148.697,228.19,141.832,213.404,141.884z"/>
</g>
<g id="Layer_2">
	<path fill="#5F6368" d="M50.058,375.557c-8.555,0.11-16.786-3.27-22.796-9.36c-6.203-5.833-9.674-14.002-9.567-22.518
		c-0.103-8.515,3.368-16.684,9.567-22.52c5.981-6.152,14.215-9.598,22.796-9.534c8.172-0.107,16.048,3.065,21.863,8.809
		l-6.147,6.252c-4.21-4.068-9.861-6.305-15.715-6.218c-6.141-0.075-12.03,2.431-16.233,6.908
		c-4.366,4.331-6.773,10.257-6.666,16.405c-0.051,6.078,2.352,11.919,6.666,16.199c8.894,8.863,23.229,9.032,32.329,0.38
		c2.709-2.967,4.371-6.74,4.732-10.742H50.162v-8.842h29.324c0.288,1.782,0.403,3.587,0.345,5.389
		c0.368,7.541-2.365,14.903-7.564,20.379C66.481,372.566,58.405,375.845,50.058,375.557z M118.237,369.687
		c-8.176,7.838-21.078,7.838-29.254,0c-3.96-3.84-6.128-9.165-5.976-14.679c-0.148-5.515,2.019-10.838,5.976-14.679
		c8.184-7.821,21.071-7.821,29.254,0c3.957,3.841,6.124,9.164,5.976,14.679c0.144,5.519-2.037,10.845-6.01,14.679H118.237z
		 M95.442,363.918c4.225,4.511,11.306,4.744,15.817,0.52c0.179-0.167,0.352-0.341,0.52-0.52c2.306-2.383,3.551-5.597,3.454-8.91
		c0.103-3.326-1.143-6.552-3.454-8.946c-4.343-4.53-11.536-4.683-16.066-0.34c-0.116,0.111-0.229,0.224-0.339,0.34
		c-2.311,2.395-3.557,5.62-3.454,8.946c-0.089,3.318,1.169,6.532,3.488,8.91H95.442z M163.208,369.687
		c-8.177,7.838-21.078,7.838-29.255,0c-3.96-3.84-6.128-9.165-5.975-14.679c-0.149-5.515,2.018-10.838,5.975-14.679
		c8.177-7.839,21.078-7.839,29.255,0c3.957,3.841,6.123,9.164,5.975,14.679C169.335,360.521,167.167,365.847,163.208,369.687z
		 M140.411,363.918c4.225,4.511,11.307,4.744,15.817,0.52c0.179-0.167,0.353-0.341,0.52-0.52c2.306-2.383,3.551-5.597,3.455-8.91
		c0.103-3.326-1.143-6.552-3.455-8.946c-4.343-4.53-11.536-4.683-16.066-0.34c-0.115,0.111-0.229,0.224-0.339,0.34
		c-2.311,2.395-3.557,5.62-3.454,8.946c-0.088,3.318,1.17,6.532,3.488,8.91H140.411z M192.772,394.001
		c-4.14,0.132-8.2-1.159-11.502-3.66c-2.931-2.205-5.24-5.133-6.7-8.497l7.875-3.28c0.857,2.01,2.198,3.777,3.902,5.145
		c1.825,1.472,4.116,2.243,6.459,2.176c3.006,0.184,5.944-0.951,8.048-3.108c2.081-2.509,3.107-5.728,2.867-8.979v-2.971h-0.311
		c-2.669,3.17-6.674,4.897-10.811,4.663c-5.243,0.017-10.252-2.163-13.815-6.01c-3.864-3.814-5.998-9.042-5.907-14.471
		c-0.096-5.461,2.037-10.723,5.907-14.576c3.554-3.862,8.567-6.056,13.815-6.044c2.198-0.004,4.369,0.479,6.355,1.416
		c1.72,0.751,3.252,1.87,4.49,3.281h0.311v-3.281h8.565v36.784c0.457,5.88-1.53,11.689-5.492,16.061
		C203.058,392.255,197.989,394.187,192.772,394.001z M193.394,367.476c2.985,0.065,5.846-1.2,7.806-3.455
		c2.131-2.441,3.255-5.602,3.143-8.841c0.128-3.294-0.995-6.514-3.143-9.015c-1.956-2.258-4.819-3.523-7.806-3.454
		c-3.066-0.062-6.008,1.195-8.082,3.454c-2.286,2.41-3.526,5.625-3.455,8.945c-0.071,3.289,1.172,6.471,3.455,8.842
		C187.376,366.233,190.318,367.516,193.394,367.476z M227.553,313.94v60.374h-9.015V313.94H227.553z M252.283,375.557
		c-5.458,0.142-10.727-2-14.541-5.904c-3.869-3.878-5.979-9.17-5.838-14.645c-0.206-5.487,1.826-10.823,5.63-14.784
		c3.587-3.781,8.604-5.875,13.815-5.768c2.37-0.024,4.721,0.435,6.907,1.348c1.971,0.795,3.766,1.968,5.285,3.453
		c1.305,1.26,2.463,2.661,3.454,4.181c0.802,1.28,1.483,2.634,2.038,4.04l0.933,2.348l-27.631,11.364
		c1.71,3.931,5.665,6.401,9.947,6.216c4.14,0.013,7.982-2.151,10.119-5.698l6.907,4.663c-1.762,2.522-4.019,4.66-6.631,6.286
		C259.571,374.619,255.957,375.628,252.283,375.557z M240.747,354.385l18.375-7.633c-0.567-1.347-1.579-2.455-2.867-3.144
		c-1.443-0.813-3.076-1.23-4.732-1.209c-2.812,0.073-5.479,1.253-7.427,3.282C241.738,347.938,240.51,351.13,240.747,354.385z"/>
	<path fill="#5F6368" d="M317.182,375.557c-15.717,0.271-28.677-12.249-28.947-27.963c-0.007-0.385-0.007-0.77,0.003-1.152
		c-0.365-15.715,12.078-28.748,27.791-29.112c0.385-0.009,0.769-0.012,1.153-0.004c7.86-0.245,15.402,3.112,20.48,9.118
		l-4.973,4.835c-3.732-4.693-9.482-7.324-15.474-7.079c-5.747-0.131-11.298,2.091-15.37,6.146
		c-4.235,4.26-6.502,10.094-6.252,16.096c-0.25,6.002,2.017,11.836,6.252,16.095c4.072,4.058,9.623,6.278,15.37,6.149
		c6.686,0.073,13.042-2.901,17.269-8.083l4.975,4.974c-2.604,3.114-5.873,5.604-9.568,7.287
		C325.909,374.702,321.566,375.623,317.182,375.557z"/>
	<path fill="#5F6368" d="M352.825,374.314h-7.149v-55.78h7.149V374.314z"/>
	<path fill="#5F6368" d="M364.499,340.742c7.798-7.744,20.386-7.744,28.185,0c3.699,3.906,5.688,9.127,5.525,14.507
		c0.163,5.378-1.826,10.599-5.525,14.506c-7.799,7.745-20.387,7.745-28.185,0c-3.7-3.907-5.688-9.128-5.526-14.506
		C358.811,349.869,360.799,344.648,364.499,340.742z M369.817,365.266c4.576,4.835,12.205,5.046,17.042,0.47
		c0.161-0.151,0.317-0.309,0.47-0.47c2.523-2.71,3.855-6.318,3.696-10.017c0.159-3.699-1.173-7.309-3.696-10.017
		c-4.575-4.835-12.205-5.045-17.04-0.472c-0.161,0.154-0.319,0.311-0.472,0.472c-2.523,2.708-3.855,6.317-3.694,10.017
		c-0.142,3.692,1.201,7.287,3.729,9.98L369.817,365.266z"/>
	<path fill="#5F6368" d="M437.824,374.314h-6.906v-5.285h-0.208c-1.229,2.008-2.97,3.652-5.043,4.767
		c-2.151,1.247-4.595,1.902-7.08,1.9c-4.09,0.279-8.083-1.323-10.846-4.352c-2.616-3.311-3.931-7.463-3.695-11.676v-23.485h7.15
		v22.175c0,7.113,3.143,10.671,9.428,10.671c2.834,0.088,5.536-1.197,7.253-3.453c1.854-2.349,2.842-5.265,2.799-8.255v-21.138
		h7.148V374.314z"/>
	<path fill="#5F6368" d="M462.105,375.557c-4.908,0.018-9.577-2.115-12.779-5.836c-3.581-3.955-5.498-9.138-5.354-14.472
		c-0.145-5.333,1.772-10.518,5.354-14.473c3.202-3.72,7.871-5.852,12.779-5.837c2.717-0.042,5.401,0.6,7.806,1.865
		c2.112,1.063,3.901,2.674,5.181,4.663h0.312l-0.312-5.284v-17.649h7.15v55.78h-6.908v-5.285h-0.312
		c-1.278,1.99-3.067,3.6-5.181,4.663C467.458,374.947,464.799,375.589,462.105,375.557z M463.28,369.029
		c3.269,0.048,6.4-1.312,8.6-3.729c2.429-2.766,3.67-6.378,3.454-10.051c0.216-3.675-1.025-7.285-3.454-10.051
		c-4.339-4.77-11.722-5.117-16.491-0.779c-0.271,0.248-0.531,0.508-0.777,0.779c-2.438,2.747-3.681,6.352-3.454,10.016
		c-0.227,3.665,1.017,7.269,3.454,10.016C456.812,367.693,459.976,369.079,463.28,369.029z"/>
</g>
</svg>
