<svg xmlns="http://www.w3.org/2000/svg" viewBox="0.34 -3.66 450.32 273.32"><title>Google Container Registry logo</title><defs><style>.cls-1{fill:#fff}.cls-2{fill:#4285f4}.cls-3{opacity:.07;isolation:isolate}</style></defs><path d="M189.488 152.026l9.348-9.347-13.905-14.021V85.192l13.905-14.021-9.348-9.347-18.578 18.695v52.812l18.578 18.695z" class="cls-1"/><circle cx="203.977" cy="106.925" r="6.66" class="cls-1"/><circle cx="223.723" cy="106.925" r="6.66" class="cls-1"/><circle cx="243.586" cy="106.925" r="6.66" class="cls-1"/><path d="M257.841 61.824l-9.23 9.347 13.903 14.021v43.466l-13.903 14.021 9.23 9.347 18.695-18.695V80.519l-18.695-18.695z" class="cls-1"/><path d="M333.693 97.128l-46.467-80.726A20.76 20.76 0 0 0 269.8 5.971h-92.817a20.255 20.255 0 0 0-17.425 10.431L113.09 96.891a20.366 20.366 0 0 0 0 20.152l46.468 81.2a20.955 20.955 0 0 0 17.425 10.787h92.936a20.737 20.737 0 0 0 17.425-10.669l46.468-80.726a20.451 20.451 0 0 0-.119-20.507zm-46.467 101.115A20.737 20.737 0 0 1 269.8 208.91h-24.3l-50.973-50.972 11.499-6.638-21.456-21.337.118-.119v-11.736h6.283l-5.927-5.927v-.118a6.617 6.617 0 0 1-1.778-4.386 6.483 6.483 0 0 1 5.571-6.283l-4.267-4.267.118-.119V85.392l24.064-13.75-14.225-14.225 9.365-5.453h.237l19.203 11.143 19.204-11.143h.237l9.365 5.453 73.613 73.613z" class="cls-2"/><path d="M232.934 68.678l29.28 16.714v11.854h-10.076v-6.282l-23.945-13.988v10.313h-9.602V76.976l-23.945 13.988v6.282h-9.958v-.118l-.118.118 4.267 4.268c.237 0 .474-.119.711-.119a6.283 6.283 0 1 1 0 12.566 6.477 6.477 0 0 1-4.504-1.897v.118l5.927 5.927h3.675v6.283l23.945 13.988v-10.195h9.601v10.195l23.946-13.988v-6.282h10.076v11.853l-29.28 16.833 19.44 11.262-9.364 5.452h-.237l-19.203-11.142-19.204 11.142h-.237l-9.365-5.452 50.973 50.972h24.3a20.737 20.737 0 0 0 17.426-10.669l38.644-67.212-73.614-73.614zm-9.483 54.884a6.283 6.283 0 1 1 6.283-6.282 6.324 6.324 0 0 1-6.283 6.282zm0-18.966a6.283 6.283 0 1 1 6.283-6.283 6.324 6.324 0 0 1-6.283 6.283zm33.784 9.483a6.283 6.283 0 1 1 6.282-6.283 6.324 6.324 0 0 1-6.282 6.283z" class="cls-2"/><g class="cls-3"><path d="M232.934 68.678l29.28 16.714v11.854h-10.076v-6.282l-23.945-13.988v10.313h-9.602V76.976l-23.945 13.988v6.282h-9.958v-.118l-.118.118 4.267 4.268c.237 0 .474-.119.711-.119a6.283 6.283 0 1 1 0 12.566 6.477 6.477 0 0 1-4.504-1.897v.118l5.927 5.927h3.675v6.283l23.945 13.988v-10.195h9.601v10.195l23.946-13.988v-6.282h10.076v11.853l-29.28 16.833 19.44 11.262-9.364 5.452h-.237l-19.203-11.142-19.204 11.142h-.237l-9.365-5.452 50.973 50.972h24.3a20.737 20.737 0 0 0 17.426-10.669l38.644-67.212-73.614-73.614zm-9.483 54.884a6.283 6.283 0 1 1 6.283-6.282 6.324 6.324 0 0 1-6.283 6.282zm0-18.966a6.283 6.283 0 1 1 6.283-6.283 6.324 6.324 0 0 1-6.283 6.283zm33.784 9.483a6.283 6.283 0 1 1 6.282-6.283 6.324 6.324 0 0 1-6.282 6.283z"/></g><path d="M184.688 129.964v-.119l-.118.119 21.456 21.337 7.942-4.505-29.28-16.832z" class="cls-2"/><g class="cls-3"><path d="M184.688 129.964v-.119l-.118.119 21.456 21.337 7.942-4.505-29.28-16.832z"/></g><path d="M194.527 57.417l14.225 14.225 5.097-2.964-19.322-11.261z" class="cls-2"/><path d="M194.527 57.417l14.225 14.225 5.097-2.964-19.322-11.261z" class="cls-3"/><circle cx="257.235" cy="107.796" r="6.283" class="cls-1"/><path d="M189.548 114.08a6.283 6.283 0 1 0 0-12.566 1.504 1.504 0 0 0-.71.118 6.292 6.292 0 0 0-5.572 6.283 6.087 6.087 0 0 0 1.778 4.386 7.91 7.91 0 0 0 4.504 1.778z" class="cls-1"/><circle cx="223.451" cy="98.313" r="6.283" class="cls-1"/><circle cx="223.451" cy="117.161" r="6.283" class="cls-1"/><path d="M194.646 97.246v-6.401l23.945-13.987v10.313h9.602V76.858l23.945 13.987v6.401h10.076V85.392l-29.28-16.714 19.441-11.261-9.484-5.453h-.237l-19.203 11.143-19.322-11.143h-.237l-9.365 5.453 19.322 11.261-5.097 2.964-24.064 13.75v11.854h9.958zm9.483 66.146l19.322-11.143 19.203 11.143h.237l9.484-5.453-19.441-11.143 29.28-16.832v-11.855h-10.076v6.402l-23.945 13.987v-10.194h-9.602v10.194l-23.945-13.987v-6.402h-9.958v11.855l29.28 16.832-7.942 4.505-11.499 6.638 9.365 5.453h.237z" class="cls-1"/><path d="M333.812 96.298l-46.468-80.844a20.504 20.504 0 0 0-17.425-10.432h-92.936a20.504 20.504 0 0 0-17.425 10.432L112.97 96.06a20.59 20.59 0 0 0 0 20.27l46.468 81.319a20.955 20.955 0 0 0 17.426 10.787h93.054a20.737 20.737 0 0 0 17.425-10.669l46.468-80.844a20.673 20.673 0 0 0 0-20.626z" class="cls-2"/><g class="cls-3"><path d="M279.995 74.013l-21.693-5.335-3.32 3.438 16.715 16.714.118 22.997-34.376-34.495h-28.094l-17.663-17.663-18.61 15.766-6.402 64.012 68.99 68.99h34.259a20.737 20.737 0 0 0 17.425-10.669l42.437-73.85z"/></g><g id="art"><path d="M209.226 93.69l14.225 8.179 14.106-8.179V77.332l-14.106-8.18-14.225 8.18V93.69zM228.667 127l14.224 8.179L256.998 127v-16.359l-14.107-8.06-14.224 8.06V127zm-38.882.474l14.225 8.179 14.107-8.179v-16.358l-14.107-8.18-14.225 8.18v16.358z" class="cls-1"/><path d="M191.564 72.116l-14.107 8.179v52.869l14.107 8.179v12.447l-24.657-14.225V73.894l24.657-14.225v12.447zm63.656 0l14.106 8.179v52.869l-14.106 8.179v12.447l24.775-14.225V73.894L255.22 59.669v12.447z" class="cls-1"/></g><g style="isolation:isolate"><path d="M26.709 236.938a4.91 4.91 0 0 0-2.922-3.537 8.98 8.98 0 0 0-2.768-.615 6.05 6.05 0 0 0-4.92 2.306c-1.23 1.538-1.845 3.69-1.845 6.766s.769 5.228 2.152 6.458a6.875 6.875 0 0 0 4.767 1.845 6.092 6.092 0 0 0 6.305-5.381h-5.69v-4.152H32.09v13.224h-3.382l-.462-3.076a9.371 9.371 0 0 1-2.614 2.46 10.318 10.318 0 0 1-5.074 1.23 10.135 10.135 0 0 1-7.996-3.382c-2.152-2.307-3.229-5.382-3.229-9.38a14.178 14.178 0 0 1 3.23-9.687 11.05 11.05 0 0 1 8.764-3.69 10.861 10.861 0 0 1 7.534 2.46 8.387 8.387 0 0 1 3.23 5.997h-5.382zm24.909 14.761c-1.537 1.845-3.844 2.921-7.073 2.921-3.075 0-5.535-.922-7.073-2.921a10.732 10.732 0 0 1-2.306-6.92 11.035 11.035 0 0 1 2.306-6.919c1.538-1.999 3.844-2.921 7.073-2.921 3.076 0 5.536.922 7.073 2.921a10.732 10.732 0 0 1 2.307 6.92 10.443 10.443 0 0 1-2.307 6.919zm-3.69-2.614a6.86 6.86 0 0 0 1.077-4.305 7.156 7.156 0 0 0-1.077-4.306 4.087 4.087 0 0 0-3.229-1.537 3.68 3.68 0 0 0-3.229 1.537 9.149 9.149 0 0 0 0 8.61 3.68 3.68 0 0 0 3.23 1.539 4.087 4.087 0 0 0 3.228-1.538zm24.756 2.614c-1.537 1.845-3.844 2.921-7.073 2.921-3.075 0-5.535-.922-7.073-2.921a10.732 10.732 0 0 1-2.307-6.92 11.035 11.035 0 0 1 2.307-6.919c1.538-1.999 3.844-2.921 7.073-2.921 3.075 0 5.536.922 7.073 2.921a10.732 10.732 0 0 1 2.307 6.92 10.443 10.443 0 0 1-2.307 6.919zm-3.844-2.614a6.86 6.86 0 0 0 1.076-4.305 7.156 7.156 0 0 0-1.076-4.306 4.16 4.16 0 0 0-6.458 0 6.86 6.86 0 0 0-1.076 4.306 7.156 7.156 0 0 0 1.076 4.305 4.087 4.087 0 0 0 3.229 1.538 4.619 4.619 0 0 0 3.23-1.538zm18.606-13.531a5.106 5.106 0 0 1 2.767 2.614v-2.614h4.613v17.375a10.313 10.313 0 0 1-1.23 5.382c-1.384 1.999-3.998 3.075-7.842 3.075a10.388 10.388 0 0 1-5.69-1.384 5.362 5.362 0 0 1-2.46-4.151h5.382a2.316 2.316 0 0 0 .615 1.23 3.846 3.846 0 0 0 2.614.615c1.692 0 2.922-.615 3.383-1.692a10.04 10.04 0 0 0 .615-3.69v-1.23a4.163 4.163 0 0 1-1.537 1.691 5.555 5.555 0 0 1-3.69 1.077 7.242 7.242 0 0 1-5.69-2.46 10.19 10.19 0 0 1-2.153-6.766 11.174 11.174 0 0 1 2-6.92 6.661 6.661 0 0 1 5.689-2.767c1.076.307 1.998.46 2.614.615zm1.69 13.223a5.637 5.637 0 0 0 1.231-3.997 6.185 6.185 0 0 0-1.076-3.998 3.571 3.571 0 0 0-2.922-1.384 3.33 3.33 0 0 0-3.383 2.306 8.638 8.638 0 0 0-.46 3.076 7.449 7.449 0 0 0 .46 2.767 3.52 3.52 0 0 0 3.537 2.307 3.085 3.085 0 0 0 2.614-1.077zm15.224 5.228h-4.767V229.25h4.767zm16.452-17.99a9.155 9.155 0 0 1 3.23 2.768 7.696 7.696 0 0 1 1.383 3.844 22.9 22.9 0 0 1 .154 3.69h-13.377a4.46 4.46 0 0 0 1.845 3.844 4.712 4.712 0 0 0 2.614.615 4.398 4.398 0 0 0 2.614-.769 3.7 3.7 0 0 0 .922-1.23h4.92a5.86 5.86 0 0 1-1.844 3.23c-1.692 1.845-3.998 2.613-6.92 2.613a9.782 9.782 0 0 1-6.458-2.306q-2.768-2.307-2.768-7.38c0-3.23.77-5.536 2.46-7.228a8.814 8.814 0 0 1 6.612-2.46 8.324 8.324 0 0 1 4.613.769zm-7.073 4.152a5.696 5.696 0 0 0-1.23 2.767h8.303a3.69 3.69 0 0 0-3.997-3.844c-1.538 0-2.46.308-3.076 1.077zm26.601-8.457a10.198 10.198 0 0 1 7.535-3.076c4.152 0 7.073 1.384 9.072 4.152a8.128 8.128 0 0 1 1.691 4.613h-5.228a5.896 5.896 0 0 0-1.23-2.614 5.132 5.132 0 0 0-4.151-1.538 4.95 4.95 0 0 0-4.306 2.307c-1.076 1.537-1.537 3.69-1.537 6.458a10.277 10.277 0 0 0 1.691 6.304 5.244 5.244 0 0 0 4.305 2 4.569 4.569 0 0 0 3.998-1.846 7.518 7.518 0 0 0 1.23-2.922h5.075a10.988 10.988 0 0 1-3.383 6.612 9.928 9.928 0 0 1-7.073 2.46c-3.537 0-6.305-1.076-8.304-3.382s-3.075-5.382-3.075-9.38c.308-4.46 1.384-7.688 3.69-10.148zm37.365 19.989c-1.538 1.845-3.844 2.921-7.073 2.921-3.075 0-5.536-.922-7.073-2.921a10.732 10.732 0 0 1-2.307-6.92 11.035 11.035 0 0 1 2.307-6.919c1.537-1.999 3.844-2.921 7.073-2.921 3.075 0 5.535.922 7.073 2.921a10.732 10.732 0 0 1 2.307 6.92 10.443 10.443 0 0 1-2.307 6.919zm-3.844-2.614a6.86 6.86 0 0 0 1.076-4.305 7.156 7.156 0 0 0-1.076-4.306 4.16 4.16 0 0 0-6.458 0 6.86 6.86 0 0 0-1.076 4.306 7.156 7.156 0 0 0 1.076 4.305 4.087 4.087 0 0 0 3.229 1.538 4.619 4.619 0 0 0 3.229-1.538zm24.295-12.455c1.23.923 1.845 2.614 1.845 4.92v12.302h-4.92V242.78a7.128 7.128 0 0 0-.308-2.153 2.694 2.694 0 0 0-2.614-1.384 3.41 3.41 0 0 0-3.383 1.999 7.449 7.449 0 0 0-.461 2.768v9.84h-4.767v-18.297h4.613v2.614a8.004 8.004 0 0 1 1.691-2 5.555 5.555 0 0 1 3.69-1.076 8.681 8.681 0 0 1 4.614 1.538zm4.305 2.614v-3.383h2.614v-5.074h4.767v5.074h2.921v3.383h-2.921v9.687a2.214 2.214 0 0 0 .307 1.384 3.132 3.132 0 0 0 1.692.308h.922v3.536l-2.306.154c-2.307.154-3.844-.308-4.613-1.23a3.912 3.912 0 0 1-.769-2.46v-11.225h-2.614zm20.605 3.536a7.667 7.667 0 0 0 1.845-.46 1.642 1.642 0 0 0 1.076-1.385 1.697 1.697 0 0 0-.769-1.537 4.321 4.321 0 0 0-2.306-.461 3.61 3.61 0 0 0-2.46.768 2.798 2.798 0 0 0-.615 1.692h-4.613a8.273 8.273 0 0 1 1.383-3.998c1.23-1.538 3.383-2.46 6.612-2.46a12.063 12.063 0 0 1 5.382 1.23c1.538.769 2.307 2.306 2.307 4.459v10.61a1.987 1.987 0 0 0 .307 1.23 3.354 3.354 0 0 0 .769.615v.769h-5.228a2.85 2.85 0 0 1-.308-1.077c0-.307-.153-.769-.153-1.076a6.808 6.808 0 0 1-2.307 1.845 6.74 6.74 0 0 1-3.536.923 6.154 6.154 0 0 1-4.152-1.384 5.097 5.097 0 0 1-1.691-3.998 5.379 5.379 0 0 1 2.614-4.92 11.116 11.116 0 0 1 4.151-1.23zm2.921 2.307l-.922.461c-.308.154-.77.154-1.23.308l-1.077.154a9.535 9.535 0 0 0-2.153.615 2.086 2.086 0 0 0-1.076 1.999 2.451 2.451 0 0 0 .615 1.845 3.224 3.224 0 0 0 1.691.615 5.062 5.062 0 0 0 2.922-.923c.923-.615 1.384-1.691 1.384-3.383v-1.691zm13.839-11.686h-4.92v-4.46h4.92zm-4.767 2.306h4.92v18.298h-4.92zm24.141.923c1.23.923 1.845 2.614 1.845 4.92v12.302h-4.92V242.78a7.128 7.128 0 0 0-.308-2.153 2.694 2.694 0 0 0-2.614-1.384 3.41 3.41 0 0 0-3.382 1.999 7.449 7.449 0 0 0-.462 2.768v9.84h-4.766v-18.297h4.612v2.614a8.003 8.003 0 0 1 1.692-2 5.555 5.555 0 0 1 3.69-1.076 7.84 7.84 0 0 1 4.613 1.538zm18.144-.615a9.155 9.155 0 0 1 3.23 2.768 7.696 7.696 0 0 1 1.383 3.844 22.899 22.899 0 0 1 .154 3.69h-13.377a4.46 4.46 0 0 0 1.845 3.844 4.712 4.712 0 0 0 2.614.615 4.398 4.398 0 0 0 2.614-.769 3.7 3.7 0 0 0 .922-1.23h4.92a5.86 5.86 0 0 1-1.844 3.23c-1.692 1.845-3.998 2.613-6.92 2.613a9.782 9.782 0 0 1-6.458-2.306q-2.768-2.307-2.768-7.38c0-3.23.77-5.536 2.46-7.228a8.814 8.814 0 0 1 6.612-2.46 8.324 8.324 0 0 1 4.613.769zm-7.073 4.152a5.696 5.696 0 0 0-1.23 2.767h8.303a3.69 3.69 0 0 0-3.998-3.844c-1.537 0-2.46.308-3.075 1.077zm24.449-4.921h.461v4.92h-1.384c-1.999 0-3.229.616-3.844 1.846a8.58 8.58 0 0 0-.615 3.229v8.764h-4.767v-18.298h4.613v3.23a8.99 8.99 0 0 1 2-2.46 5.127 5.127 0 0 1 3.536-1.077c-.154-.154 0-.154 0-.154zm29.061-5.382a6.422 6.422 0 0 1 2.307 1.692 9.803 9.803 0 0 1 1.23 2.153 7.183 7.183 0 0 1 .461 2.614 7.586 7.586 0 0 1-.923 3.536 5.21 5.21 0 0 1-2.921 2.46 4.622 4.622 0 0 1 2.46 2 8.018 8.018 0 0 1 .769 3.843v1.692a8.853 8.853 0 0 0 .154 2.306 2.24 2.24 0 0 0 .922 1.384v.615h-5.689a5.706 5.706 0 0 1-.307-1.384 10.15 10.15 0 0 1-.154-2.152v-2.307a5.5 5.5 0 0 0-.769-3.229 4.44 4.44 0 0 0-2.922-.769h-5.074v9.687h-5.074V229.25h11.84a8.838 8.838 0 0 1 3.69.615zm-10.763 3.69v6.613h5.535a4.972 4.972 0 0 0 2.46-.462 2.883 2.883 0 0 0 1.538-2.767 3.308 3.308 0 0 0-1.384-3.076 4.972 4.972 0 0 0-2.46-.461h-5.69zm31.214 2.461a9.155 9.155 0 0 1 3.229 2.768 7.696 7.696 0 0 1 1.384 3.844 22.899 22.899 0 0 1 .153 3.69h-13.377a4.46 4.46 0 0 0 1.845 3.844 4.712 4.712 0 0 0 2.614.615 4.398 4.398 0 0 0 2.614-.769 3.7 3.7 0 0 0 .923-1.23h4.92a5.86 5.86 0 0 1-1.845 3.23c-1.691 1.845-3.998 2.613-6.92 2.613a9.782 9.782 0 0 1-6.457-2.306q-2.768-2.307-2.768-7.38c0-3.23.769-5.536 2.46-7.228a8.814 8.814 0 0 1 6.612-2.46 8.324 8.324 0 0 1 4.613.769zm-7.073 4.152a5.696 5.696 0 0 0-1.23 2.767h8.303a3.69 3.69 0 0 0-3.998-3.844c-1.538 0-2.46.308-3.075 1.077zm23.371-4.613a5.106 5.106 0 0 1 2.769 2.614v-2.614h4.612v17.375a10.313 10.313 0 0 1-1.23 5.382c-1.384 1.999-3.998 3.075-7.842 3.075a10.388 10.388 0 0 1-5.689-1.384 4.985 4.985 0 0 1-2.46-4.151h5.228a2.316 2.316 0 0 0 .615 1.23 3.846 3.846 0 0 0 2.614.615c1.691 0 2.921-.615 3.383-1.692a10.04 10.04 0 0 0 .615-3.69v-1.23a4.163 4.163 0 0 1-1.538 1.691 5.555 5.555 0 0 1-3.69 1.077 7.242 7.242 0 0 1-5.69-2.46c-1.537-1.692-2.152-3.845-2.152-6.766a11.174 11.174 0 0 1 1.999-6.92 6.661 6.661 0 0 1 5.689-2.767c1.23.307 1.999.46 2.768.615zm1.538 13.223a5.637 5.637 0 0 0 1.23-3.997 6.185 6.185 0 0 0-1.076-3.998 3.571 3.571 0 0 0-2.921-1.384 3.33 3.33 0 0 0-3.383 2.306 8.639 8.639 0 0 0-.461 3.076 7.449 7.449 0 0 0 .46 2.767 3.52 3.52 0 0 0 3.537 2.307 3.085 3.085 0 0 0 2.614-1.077zm15.223-15.376h-4.92v-4.46h4.92zm-4.767 2.306h4.92v18.298h-4.92zm13.224 12.455a4.282 4.282 0 0 0 .615 1.846 4.502 4.502 0 0 0 3.23.922 5.135 5.135 0 0 0 2.306-.461 1.266 1.266 0 0 0 .768-1.23 1.399 1.399 0 0 0-.615-1.23 23.16 23.16 0 0 0-5.074-1.384 10.072 10.072 0 0 1-4.459-2 3.875 3.875 0 0 1-1.23-3.228 5.45 5.45 0 0 1 1.999-4.306 8.025 8.025 0 0 1 5.535-1.845 9.838 9.838 0 0 1 5.536 1.384 5.832 5.832 0 0 1 2.46 4.767h-4.767a2.919 2.919 0 0 0-.46-1.384 3.316 3.316 0 0 0-2.769-.923 3.403 3.403 0 0 0-2.152.462 1.332 1.332 0 0 0-.615 1.076 1.37 1.37 0 0 0 .769 1.23 23.564 23.564 0 0 0 4.92 1.384 9.367 9.367 0 0 1 4.305 1.999 4.521 4.521 0 0 1 1.384 3.383 5.54 5.54 0 0 1-1.999 4.459c-1.384 1.076-3.383 1.691-6.304 1.691s-5.074-.615-6.304-1.845a5.847 5.847 0 0 1-2-4.613h4.921zm13.532-8.918v-3.383h2.613v-5.074h4.767v5.074h2.922v3.383h-2.922v9.687a2.213 2.213 0 0 0 .308 1.384 3.132 3.132 0 0 0 1.691.308h.923v3.536l-2.307.154c-2.306.154-3.844-.308-4.613-1.23a3.913 3.913 0 0 1-.769-2.46v-11.225h-2.614zm23.371-3.998h.462v4.92h-1.384c-1.999 0-3.23.616-3.844 1.846a8.58 8.58 0 0 0-.615 3.229v8.764h-4.767v-18.298h4.613v3.23a8.99 8.99 0 0 1 1.999-2.46 5.127 5.127 0 0 1 3.536-1.077c-.153-.154 0-.154 0-.154zm3.999 22.142h1.998a1.396 1.396 0 0 0 1.077-.461 1.897 1.897 0 0 0 .768-1.23c.154-.615.308-.923.308-1.077l-6.766-19.066h5.382l3.998 13.531 3.844-13.531h5.074l-6.304 17.99c-1.23 3.537-2.153 5.69-2.922 6.458s-2.152 1.23-4.305 1.23h-2.306v-3.844z"/></g></svg>