<svg xmlns="http://www.w3.org/2000/svg" role="img" viewBox="20.34 21.09 190.06 39.31"><title>Google Cloud (member) logo</title><defs><clipPath id="a" clipPathUnits="userSpaceOnUse"><path d="M0 61.238h173.36V0H0z"/></clipPath></defs><g clip-path="url(#a)" transform="matrix(1.33333 0 0 -1.33333 0 81.65)"><path fill="#5f6368" fill-opacity="1" fill-rule="nonzero" stroke="none" d="M106.632 23.996c-2.438 0-4.477.82-6.117 2.461-1.626 1.641-2.439 3.687-2.439 6.142 0 2.453.813 4.492 2.439 6.117 1.625 1.656 3.664 2.484 6.117 2.484 2.484 0 4.5-.896 6.049-2.691l-1.518-1.472c-1.18 1.426-2.691 2.139-4.531 2.139-1.824 0-3.35-.614-4.576-1.84-1.212-1.211-1.818-2.791-1.818-4.737 0-1.949.606-3.528 1.818-4.739 1.226-1.226 2.752-1.84 4.576-1.84 1.917 0 3.58.805 4.991 2.415l1.541-1.495c-.782-.935-1.74-1.66-2.875-2.173-1.135-.514-2.354-.771-3.657-.771"/><path fill="#5f6368" fill-opacity="1" fill-rule="nonzero" stroke="none" d="M116.997 24.364h-2.115v16.468h2.115z"/><path fill="#5f6368" fill-opacity="1" fill-rule="nonzero" stroke="none" d="M120.937 29.998c0-1.211.353-2.192 1.058-2.943.705-.752 1.58-1.127 2.623-1.127 1.042 0 1.916.375 2.621 1.127.705.751 1.058 1.732 1.058 2.943 0 1.196-.353 2.17-1.058 2.921-.721.767-1.594 1.15-2.621 1.15-1.028 0-1.903-.383-2.623-1.15-.705-.751-1.058-1.725-1.058-2.921m-2.116 0c0 1.732.545 3.166 1.633 4.301 1.104 1.135 2.492 1.702 4.164 1.702 1.671 0 3.05-.567 4.139-1.702 1.105-1.135 1.656-2.569 1.656-4.301 0-1.748-.551-3.182-1.656-4.301-1.089-1.135-2.468-1.702-4.139-1.702-1.672 0-3.06.567-4.164 1.702-1.088 1.135-1.633 2.569-1.633 4.301"/><path fill="#5f6368" fill-opacity="1" fill-rule="nonzero" stroke="none" d="M142.109 24.364h-2.024v1.564h-.092c-.322-.552-.817-1.012-1.484-1.38-.667-.368-1.36-.552-2.081-.552-1.381 0-2.442.394-3.185 1.184-.744.79-1.116 1.913-1.116 3.37v7.084h2.116v-6.946c.046-1.84.973-2.76 2.783-2.76.843 0 1.549.341 2.115 1.024.569.682.852 1.498.852 2.449v6.233h2.116z"/><path fill="#5f6368" fill-opacity="1" fill-rule="nonzero" stroke="none" d="M149.618 25.928c1.043 0 1.895.375 2.553 1.127.69.751 1.035 1.732 1.035 2.943 0 1.181-.345 2.155-1.035 2.921-.674.767-1.526 1.151-2.553 1.151-1.012 0-1.863-.384-2.553-1.151-.689-.766-1.035-1.74-1.035-2.921 0-1.195.346-2.17 1.035-2.921.69-.766 1.541-1.149 2.553-1.149m-.345-1.933c-1.471 0-2.737.583-3.795 1.748-1.043 1.181-1.563 2.599-1.563 4.255 0 1.657.52 3.075 1.563 4.255 1.058 1.165 2.324 1.748 3.795 1.748.828 0 1.583-.176 2.266-.528.683-.354 1.208-.821 1.575-1.403h.092l-.092 1.563v5.198h2.116V24.364h-2.024v1.564h-.092c-.367-.583-.892-1.051-1.575-1.403-.683-.353-1.438-.53-2.266-.53"/><path fill="#4285f4" fill-opacity="1" fill-rule="nonzero" stroke="none" d="M27.568 24c-5.128 0-9.438 4.178-9.438 9.309 0 5.131 4.31 9.309 9.438 9.309 2.837 0 4.856-1.112 6.376-2.565l-1.792-1.794c-1.089 1.021-2.564 1.816-4.584 1.816-3.743 0-6.671-3.019-6.671-6.766s2.928-6.766 6.671-6.766c2.428 0 3.813.976 4.697 1.861.726.727 1.202 1.772 1.384 3.201h-6.147v2.544h8.621c.091-.454.135-.999.135-1.589 0-1.908-.521-4.269-2.201-5.95-1.633-1.702-3.72-2.61-6.489-2.61"/><path fill="#ea4335" fill-opacity="1" fill-rule="nonzero" stroke="none" d="M46.54 29.995c0 2.157-1.563 3.633-3.377 3.633-1.813 0-3.377-1.476-3.377-3.633 0-2.135 1.564-3.633 3.377-3.633 1.814 0 3.377 1.498 3.377 3.633m2.629 0c0-3.451-2.697-5.994-6.006-5.994s-6.006 2.543-6.006 5.994c0 3.474 2.697 5.994 6.006 5.994s6.006-2.52 6.006-5.994"/><path fill="#fbbc04" fill-opacity="1" fill-rule="nonzero" stroke="none" d="M59.613 29.995c0 2.157-1.564 3.633-3.377 3.633-1.813 0-3.377-1.476-3.377-3.633 0-2.135 1.564-3.633 3.377-3.633 1.813 0 3.377 1.498 3.377 3.633m2.629 0c0-3.451-2.697-5.994-6.006-5.994s-6.006 2.543-6.006 5.994c0 3.474 2.697 5.994 6.006 5.994s6.006-2.52 6.006-5.994"/><path fill="#4285f4" fill-opacity="1" fill-rule="nonzero" stroke="none" d="M72.432 29.971c0 2.112-1.407 3.656-3.199 3.656-1.816 0-3.336-1.544-3.336-3.656 0-2.089 1.52-3.609 3.336-3.609 1.792 0 3.199 1.52 3.199 3.609m2.314 5.654V24.863c0-4.428-2.609-6.245-5.695-6.245-2.904 0-4.651 1.954-5.309 3.542l2.292.955c.408-.977 1.406-2.135 3.017-2.135 1.974 0 3.199 1.226 3.199 3.519v.864h-.09C71.57 24.636 70.435 24 69.005 24c-2.995 0-5.74 2.611-5.74 5.971 0 3.384 2.745 6.018 5.74 6.018 1.43 0 2.565-.636 3.155-1.34h.09v.976z"/><path fill="#34a853" fill-opacity="1" fill-rule="nonzero" stroke="none" d="M79.272 24.363H76.64v17.62h2.632z"/><path fill="#ea4335" fill-opacity="1" fill-rule="nonzero" stroke="none" d="M83.188 30.176l5.355 2.225c-.294.75-1.179 1.271-2.223 1.271-1.339 0-3.199-1.181-3.132-3.496m6.286-2.157l2.042-1.363C90.858 25.68 89.269 24 86.524 24c-3.403 0-5.945 2.634-5.945 5.994 0 3.565 2.564 5.994 5.65 5.994 3.108 0 4.629-2.474 5.128-3.814l.272-.682-8.009-3.314c.612-1.204 1.565-1.816 2.904-1.816s2.269.658 2.95 1.657"/></g></svg>