<svg xmlns="http://www.w3.org/2000/svg" role="img" viewBox="-8.85 -8.85 390.20 460.20"><title>Grafana Mimir logo</title><path d="M64.1619 324.302c-.0814 3.532-1.5372 6.893-4.0579 9.367-2.5208 2.475-5.9076 3.869-9.4401 3.885-7.686 0-13.4032-6.181-13.4032-13.772.0075-3.653 1.4619-7.154 4.0449-9.737 2.5829-2.583 6.0841-4.037 9.737-4.045 3.5944.115 7.0111 1.59 9.5602 4.127l-2.1581 2.717c-2.0135-1.903-4.6362-3.03-7.4021-3.181-2.6838.003-5.257 1.069-7.1556 2.966-1.8986 1.897-2.9675 4.469-2.9726 7.153-.1278 2.494.7101 4.942 2.3399 6.834 1.6297 1.893 3.9259 3.085 6.4115 3.328 2.4856.244 4.9695-.479 6.9357-2.019 1.9663-1.54 3.2636-3.778 3.6226-6.25H49.0738v-3.266h15.0881v1.893zm12.7402-1.836h-2.0635c-1.0906.01-2.1336.448-2.9039 1.22-.7703.773-1.2062 1.817-1.2136 2.907v10.687h-3.6537v-18.373h3.0005v1.505c.5814-.525 1.2619-.929 2.0015-1.187a5.865 5.865 0 0 1 2.3054-.318h3.9377l-1.4104 3.559zm20.057 14.814h-3.1804v-2.348c-1.2947 1.279-2.9478 2.135-4.7398 2.452-1.792.318-3.6381.084-5.2937-.672-1.9623-.888-3.5631-2.419-4.5381-4.339-.975-1.921-1.2659-4.116-.8247-6.224.4413-2.108 1.5884-4.003 3.2517-5.371 1.6634-1.368 3.7437-2.129 5.8973-2.155 2.3606.012 4.6205.958 6.2852 2.632v-2.348h3.1804l-.0379 18.373zm-3.7862-7.781c.293-1.205.1893-2.472-.2958-3.613-.4852-1.14-1.3259-2.094-2.3968-2.719a5.7627 5.7627 0 0 0-3.547-.747c-1.2319.14-2.3857.673-3.2899 1.521-.9042.849-1.5104 1.966-1.7281 3.187-.2178 1.22-.0356 2.478.5195 3.587.555 1.109 1.4532 2.008 2.5608 2.565 1.1077.557 2.3656.742 3.5865.526 1.0981-.211 2.1146-.727 2.9332-1.488a5.95752 5.95752 0 0 0 1.6955-2.819h-.0379zm11.0941-11.529v1.032h5.812v3.19h-5.812v15.088h-3.559v-19.215c0-4.033 2.906-6.371 6.56-6.371h4.411l-1.505 3.465h-2.906c-.384-.022-.768.034-1.13.165-.361.132-.692.335-.973.598-.28.262-.505.58-.659.932-.154.352-.236.732-.239 1.116zm25.311 19.31h-3.095v-2.348c-1.293 1.28-2.944 2.135-4.735 2.453-1.79.318-3.635.083-5.289-.673a9.52617 9.52617 0 0 1-3.625-2.78 9.52929 9.52929 0 0 1-1.913-4.149c-.247-1.362-.193-2.762.158-4.1.352-1.339.994-2.584 1.879-3.649a9.45275 9.45275 0 0 1 3.246-2.51c1.252-.589 2.619-.897 4.003-.901 2.358.012 4.615.958 6.276 2.632v-2.348h3.19v18.373h-.095zm-3.786-7.781c.293-1.205.189-2.472-.296-3.613-.485-1.14-1.326-2.094-2.397-2.719a5.7627 5.7627 0 0 0-3.547-.747c-1.232.14-2.385.673-3.29 1.521-.904.849-1.51 1.966-1.728 3.187-.217 1.22-.035 2.478.52 3.587s1.453 2.008 2.561 2.565c1.107.557 2.365.742 3.586.526 1.106-.192 2.132-.702 2.954-1.466.822-.765 1.403-1.752 1.675-2.841h-.038zm23.371-3v10.781h-3.692v-10.876c-.009-1.091-.448-2.134-1.22-2.904s-1.816-1.206-2.907-1.214c-.541-.002-1.078.103-1.578.309-.501.206-.956.509-1.339.892-.382.383-.686.837-.892 1.338-.206.501-.311 1.037-.308 1.579v10.876h-3.654v-18.373h2.991v1.609a7.25476 7.25476 0 0 1 4.875-1.893c2.066.028 4.038.871 5.485 2.346 1.447 1.476 2.252 3.463 2.239 5.53zm21.552 10.781h-3.086v-2.348c-1.294 1.279-2.947 2.135-4.739 2.452-1.792.318-3.639.084-5.294-.672-1.963-.888-3.563-2.419-4.538-4.339-.975-1.921-1.266-4.116-.825-6.224.441-2.108 1.588-4.003 3.252-5.371 1.663-1.368 3.743-2.129 5.897-2.155 2.361.012 4.62.958 6.285 2.632v-2.348h3.181v18.373h-.133zm-3.786-7.781c.293-1.205.189-2.472-.296-3.613-.485-1.14-1.326-2.094-2.397-2.719a5.7627 5.7627 0 0 0-3.547-.747c-1.232.14-2.386.673-3.29 1.521-.904.849-1.51 1.966-1.728 3.187-.218 1.22-.035 2.478.52 3.587s1.453 2.008 2.561 2.565c1.107.557 2.365.742 3.586.526 1.106-.192 2.132-.702 2.954-1.466a5.807 5.807 0 0 0 1.675-2.841h-.038zM118.01 356.11l-29 60.74-28.8501-60.39-.1699-.35H47.58L37 442.87h13.9099l7.38-60.53 25 51.09H94.99l24.69-51.07 7.38 60.51h13.91l-10.6-86.76h-12.36zm38.55-1.37c-1.143-.056-2.285.121-3.358.52-1.072.399-2.052 1.012-2.881 1.801-.829.79-1.488 1.739-1.939 2.791-.451 1.051-.683 2.184-.683 3.328 0 1.144.232 2.277.683 3.328.451 1.052 1.11 2.001 1.939 2.791.829.789 1.809 1.401 2.881 1.801 1.073.399 2.215.576 3.358.52 1.143.056 2.285-.121 3.358-.52 1.072-.4 2.052-1.012 2.881-1.801.828-.79 1.488-1.739 1.939-2.791.451-1.051.683-2.184.683-3.328 0-1.144-.232-2.277-.683-3.328-.451-1.052-1.111-2.001-1.939-2.791-.829-.789-1.809-1.402-2.881-1.801-1.073-.399-2.215-.576-3.358-.52zm-6.71 88.13h13.41v-59.25h-13.41v59.25zm93.56-60.7c-5.08 0-14.28 1.49-19.94 11.19-3.59-7-10.57-11.19-18.91-11.19-7.49 0-14.19 3.41-17.5 8.71v-7.22h-13.4v59.21h13.4v-31.82c0-11.82 7.89-16 14.65-16 7 0 11.54 5.75 11.54 14.65v33.14h13.53v-33.6c.74-8.65 6.09-14.2 13.67-14.2h.23c7.5 0 12.16 5.61 12.16 14.65v33.14h13.53v-33.72c0-17.16-8.37-27-22.96-27v.06zm32.64 60.7h13.4v-59.25h-13.4v59.25zm6.7-88.13c-1.143-.056-2.285.121-3.358.52-1.072.399-2.052 1.012-2.881 1.801-.829.79-1.488 1.739-1.939 2.791-.451 1.051-.683 2.184-.683 3.328 0 1.144.232 2.277.683 3.328.451 1.052 1.11 2.001 1.939 2.791.829.789 1.809 1.401 2.881 1.801 1.073.399 2.215.576 3.358.52 5 0 8.94-3.7 8.94-8.44-.017-1.148-.262-2.281-.723-3.333-.461-1.051-1.128-2-1.961-2.79-.833-.79-1.815-1.406-2.89-1.811-1.074-.404-2.219-.59-3.366-.546v.04zm56.52 29.63c-2.13-1.27-6.43-2.2-10.25-2.2-7.25 0-12.5 3.86-15.64 11.49v-10h-13.53v59.21h13.53v-21.52c0-16.72 5.43-26.31 14.89-26.31 2.876.038 5.711.696 8.31 1.93l.72.33 2.33-12.75-.36-.18z"/><path fill="url(#paint0_linear_632_152)" d="M45.7019 266h53.8345l37.7186-72.433-26.106-50.107L45.7019 266zM338.505 141.415l-29.436 56.498 34.474 67.256L373 208.437l-34.495-67.022zm-8.944-17.299L266.718 2.17304 235.724 56.8387l64.358 123.8393 29.479-56.562zm-97.893 74.564l35.05 67.277h59.769L261.51 141.266l-29.842 57.414zm-129.442-72.433L72.918 69.7062 35.4984 141.671l28.753 55.645 37.9746-71.069zm-75.4794 32.552L0 211.611l29.4362 53.452 26.0848-50.469-28.7744-55.795zM225.777 73.0936l-31.165 55.0274 28.133 53.452 29.885-57.414-26.853-51.0654zM108.224 0L81.3282 52.3223 185.924 252.344l27.899-53.536L160.97 97.38 108.224 0z"/><defs><linearGradient id="paint0_linear_632_152" x1="186.564" x2="186.564" y1="4.218" y2="357.053" gradientUnits="userSpaceOnUse"><stop stop-color="#F2C144"/><stop offset=".24" stop-color="#F1A03B"/><stop offset=".57" stop-color="#F17A31"/><stop offset=".84" stop-color="#F0632A"/><stop offset="1" stop-color="#F05A28"/></linearGradient></defs></svg>