<svg xmlns="http://www.w3.org/2000/svg" role="img" xmlns:xlink="http://www.w3.org/1999/xlink" viewBox="-8.98 -8.98 359.46 466.96"><title>Grafana Phlare logo</title><defs><linearGradient id="a" x1="666.53" x2="871.98" y1="195.68" y2="438.85" gradientTransform="matrix(1 0 .14054 -1 -685.87 489.14)" gradientUnits="userSpaceOnUse"><stop offset="0" stop-color="#ffef00"/><stop offset="1" stop-color="#ed5a27"/></linearGradient><linearGradient id="b" x1="611.15" x2="816.6" y1="242.48" y2="485.65" xlink:href="#a"/><linearGradient id="c" x1="648.69" x2="854.14" y1="210.76" y2="453.92" xlink:href="#a"/><linearGradient id="d" x1="676.43" x2="881.87" y1="187.33" y2="430.5" xlink:href="#a"/><linearGradient id="e" x1="630.54" x2="839.73" y1="278.09" y2="283.18" xlink:href="#a"/><linearGradient id="f" x1="631.52" x2="840.69" y1="238.09" y2="243.18" xlink:href="#a"/><linearGradient id="g" x1="765.65" x2="598.97" y1="430.14" y2="498.38" xlink:href="#a"/><linearGradient id="h" x1="765.65" x2="598.97" y1="430.14" y2="498.38" xlink:href="#a"/></defs><path fill="url(#a)" d="M268.64 143.15c11.03-13.32 18.98-29.18 22.37-46.3h-69.12c-3.8 9.97-13.81 17.41-24.5 17.41H72.36l-4.05 28.91h200.34v-.02z"/><path fill="url(#b)" d="M123.19 24.32l11.57 4.7h141.11C261.69 11.3 239.62.2 213.41.2H100.17c3.88 11.03 12.06 19.68 23.01 24.13z"/><path fill="url(#c)" d="M133.08 39.78l-12.73 4.64c-12.28 4.47-22.99 13.26-29.97 24.42h113.38c10.63 0 18.53 7.36 19.59 17.25h69.14c1.39-17.12-2.13-32.98-9.46-46.3H133.06l.02-.02z"/><path fill="url(#d)" d="M66.78 153.9l-3.66 26.11-.41 2.88h125.03c26.26 0 51.53-11.16 70.72-28.97H66.78v-.02z"/><path fill="url(#e)" d="M125.81 223.15l4.15-29.53H61.2l-4.15 29.53h68.76z"/><path fill="url(#f)" d="M55.54 233.91l-4.08 29h68.77l4.07-29H55.54z"/><g><path fill="url(#g)" d="M117.92 34.37C103.04 28.34 92.2 15.72 88.39 0c-8.25 15.73-22.62 28.34-39.21 34.37C64.06 40.4 74.9 53.02 78.71 68.74c8.25-15.73 22.62-28.34 39.21-34.37z"/><path fill="url(#h)" d="M88.38 0c3.82 15.73 14.65 28.34 29.53 34.37-16.59 6.03-30.94 18.65-39.21 34.37-3.82-15.73-14.65-28.34-29.53-34.37C65.76 28.34 80.12 15.73 88.38 0"/></g><g><path d="M.06 447.91v-90.24h36.29c4.69 0 8.84.81 12.46 2.42 3.62 1.62 6.5 3.79 8.62 6.53s3.73 5.77 4.79 9.08c1.06 3.31 1.6 6.83 1.6 10.56s-.53 7.25-1.6 10.58-2.67 6.35-4.8 9.07c-2.13 2.71-5.02 4.87-8.65 6.47-3.63 1.6-7.79 2.4-12.49 2.4H13.94v33.13H.06zm13.88-45.86h21.53c3.2 0 5.94-.79 8.2-2.38 2.26-1.58 3.88-3.53 4.84-5.84s1.44-4.84 1.44-7.58c0-4.28-1.19-7.99-3.56-11.14-2.37-3.15-5.82-4.72-10.35-4.72h-22.1v31.66zm57.88 45.86v-94.46h13.49v42.65c1.58-3.47 4.29-6.12 8.12-7.94 3.84-1.82 7.61-2.73 11.32-2.73 7.8 0 13.88 2.43 18.23 7.29 4.35 4.86 6.52 11.64 6.52 20.34v34.86H116v-33.98c0-4.68-1.29-8.39-3.87-11.11-2.58-2.73-5.83-4.09-9.75-4.09-2.05 0-4.03.3-5.95.89-1.92.6-3.73 1.51-5.44 2.75-1.71 1.23-3.08 2.95-4.13 5.14-1.04 2.19-1.57 4.72-1.57 7.57v32.83H71.8zm70.42 0v-94.46h13.5v94.46h-13.5zm23.16-30.67c0-6.3 1.44-11.9 4.32-16.8 2.88-4.9 6.66-8.63 11.35-11.18s9.81-3.83 15.35-3.83c4.05 0 8 .84 11.86 2.51 3.86 1.68 6.77 4.15 8.73 7.42v-8.59h13.5v61.14h-13.5v-8.76c-1.92 3.16-4.82 5.62-8.7 7.39s-7.84 2.65-11.9 2.65-8.08-.76-11.83-2.27-7.05-3.63-9.88-6.34c-2.84-2.71-5.1-6.09-6.78-10.15-1.68-4.05-2.53-8.45-2.53-13.19zm13.88-.13c0 5.55 1.82 10.11 5.47 13.68 3.65 3.57 8.07 5.35 13.27 5.35s9.7-1.72 13.37-5.16c3.67-3.44 5.5-8.06 5.5-13.87s-1.91-10.21-5.72-13.58c-3.82-3.37-8.2-5.06-13.14-5.06-5.24 0-9.68 1.73-13.3 5.19-3.62 3.46-5.44 7.94-5.44 13.45zm62.04 30.8v-61.14h13.5v14.01c2.94-10.23 8.55-15.35 16.82-15.35 2.13 0 4.22.23 6.27.7s3.58 1.02 4.6 1.66l-2.24 12.47c-2.77-1.41-5.8-2.11-9.08-2.11-5.54 0-9.66 2.49-12.34 7.48-2.69 4.99-4.03 11.75-4.03 20.27v22h-13.5zm38.53-30.76c0-9.47 3.02-17.12 9.05-22.96 6.03-5.84 13.5-8.76 22.42-8.76 4.31 0 8.35.76 12.12 2.27 3.77 1.51 7.02 3.62 9.75 6.33 2.73 2.71 4.87 6.05 6.43 10.04 1.56 3.99 2.33 8.35 2.33 13.08 0 2.47-.04 4.14-.13 4.99h-48.48c.64 4.65 2.67 8.36 6.11 11.13 3.43 2.77 7.64 4.16 12.63 4.16 3.5 0 6.76-.78 9.79-2.33 3.03-1.56 5.31-3.7 6.84-6.43 1.24.6 3.13 1.45 5.69 2.56 2.56 1.11 4.33 1.88 5.31 2.3-2.56 5.16-6.4 9.06-11.51 11.7-5.12 2.64-10.7 3.97-16.76 3.97s-11.08-1.3-15.85-3.9c-4.77-2.6-8.59-6.36-11.45-11.29-2.86-4.92-4.29-10.54-4.29-16.85zm13.5-4.86h35.5c-.64-4.73-2.54-8.43-5.69-11.1-3.16-2.66-7.06-4-11.7-4s-8.83 1.35-12.15 4.06c-3.33 2.71-5.31 6.38-5.95 11.03z"/><path d="M28.42 328.98c-.08 3.73-1.62 7.28-4.29 9.9-2.66 2.61-6.24 4.09-9.97 4.1-8.12 0-14.16-6.53-14.16-14.55 0-3.86 1.54-7.56 4.27-10.29 2.73-2.73 6.43-4.27 10.29-4.27 3.8.12 7.41 1.68 10.1 4.36l-2.28 2.87c-2.13-2.01-4.9-3.2-7.82-3.36-2.83 0-5.55 1.13-7.56 3.13s-3.14 4.72-3.14 7.56c-.14 2.64.75 5.22 2.47 7.22 1.72 2 4.15 3.26 6.77 3.52 2.63.26 5.25-.51 7.33-2.13 2.08-1.63 3.45-3.99 3.83-6.6H12.48v-3.45h15.94v2zm13.46-1.94H39.7c-1.15.01-2.25.47-3.07 1.29s-1.27 1.92-1.28 3.07v11.29h-3.86v-19.41h3.17v1.59c.61-.55 1.33-.98 2.11-1.25.78-.27 1.61-.39 2.44-.34h4.16l-1.49 3.76zm21.19 15.65h-3.36v-2.48c-1.37 1.35-3.12 2.25-5.01 2.59-1.89.34-3.84.09-5.59-.71-2.07-.94-3.77-2.55-4.8-4.58s-1.34-4.35-.87-6.58c.47-2.23 1.68-4.23 3.44-5.67 1.76-1.45 3.96-2.25 6.23-2.28 2.49.01 4.88 1.01 6.64 2.78v-2.48h3.36l-.04 19.41zm-4-8.22c.31-1.27.2-2.61-.31-3.82s-1.4-2.21-2.53-2.87c-1.13-.66-2.45-.94-3.75-.79-1.3.15-2.52.71-3.48 1.61-.96.9-1.6 2.08-1.83 3.37-.23 1.29-.04 2.62.55 3.79.59 1.17 1.54 2.12 2.71 2.71 1.17.59 2.5.78 3.79.56 1.16-.22 2.23-.77 3.1-1.57.86-.8 1.49-1.84 1.79-2.98h-.04zm11.72-12.18v1.09h6.14v3.37h-6.14v15.94h-3.76v-20.3c0-4.26 3.07-6.73 6.93-6.73h4.66l-1.59 3.66h-3.07c-.41-.02-.81.04-1.19.18-.38.14-.73.35-1.03.63-.3.28-.53.61-.7.98-.16.37-.25.77-.25 1.18zm26.74 20.4h-3.27v-2.48c-1.37 1.35-3.11 2.26-5 2.59-1.89.34-3.84.09-5.59-.71-1.5-.65-2.81-1.66-3.83-2.94s-1.71-2.78-2.02-4.38c-.26-1.44-.21-2.92.17-4.33s1.05-2.73 1.99-3.85c.93-1.12 2.11-2.03 3.43-2.65 1.32-.62 2.77-.95 4.23-.95 2.49.01 4.88 1.01 6.63 2.78v-2.48h3.37v19.41h-.1zm-4-8.22c.31-1.27.2-2.61-.31-3.82s-1.4-2.21-2.53-2.87c-1.13-.66-2.45-.94-3.75-.79-1.3.15-2.52.71-3.47 1.61-.96.9-1.6 2.08-1.83 3.37-.23 1.29-.04 2.62.55 3.79.59 1.17 1.54 2.12 2.7 2.71 1.17.59 2.5.78 3.79.56 1.17-.2 2.25-.74 3.12-1.55.87-.81 1.48-1.85 1.77-3h-.04zm24.69-3.17v11.39h-3.9V331.2c-.01-1.15-.47-2.25-1.29-3.07-.82-.81-1.92-1.27-3.07-1.28-.57 0-1.14.11-1.67.33-.53.22-1.01.54-1.41.94-.4.4-.73.88-.94 1.41-.22.53-.33 1.1-.33 1.67v11.49h-3.86v-19.41h3.16v1.7c1.41-1.28 3.25-2 5.15-2 2.18.03 4.27.92 5.8 2.48 1.53 1.56 2.38 3.66 2.37 5.84zm22.77 11.39h-3.26v-2.48c-1.37 1.35-3.11 2.25-5.01 2.59-1.89.34-3.84.09-5.59-.71-2.07-.94-3.76-2.55-4.79-4.58-1.03-2.03-1.34-4.35-.87-6.58.47-2.23 1.68-4.23 3.44-5.67 1.76-1.45 3.96-2.25 6.23-2.28 2.49.01 4.88 1.01 6.64 2.78v-2.48h3.36v19.41H141zm-4-8.22c.31-1.27.2-2.61-.31-3.82s-1.4-2.21-2.53-2.87c-1.13-.66-2.44-.94-3.75-.79-1.3.15-2.52.71-3.48 1.61-.96.9-1.6 2.08-1.83 3.37-.23 1.29-.04 2.62.55 3.79.59 1.17 1.54 2.12 2.71 2.71 1.17.59 2.5.78 3.79.56 1.17-.2 2.25-.74 3.12-1.55.87-.81 1.48-1.85 1.77-3h-.04z"/></g></svg>