<svg xmlns="http://www.w3.org/2000/svg" role="img" viewBox="-1.03 -1.53 124.93 27.30"><path d="M11.7 5.8c-.7-.6-1.6-.9-2.7-.9s-2 .3-2.7.9c-.6.6-.9 1.3-.9 2.3s.3 1.7.9 2.3c.7.5 1.6.9 2.7.9s2-.3 2.7-.9c.6-.5.9-1.3.9-2.3s-.4-1.7-.9-2.3m7.4-4.5v13.6H23V8.1c0-.9.4-1.7.9-2.3.6-.6 1.6-.9 2.7-.9.5 0 .9.1 1.3.2.4-1.1 1.1-2.1 2-3l.4-.4c-.9-.4-2-.7-3.1-.7-1.8 0-3.2.5-4.2 1.5V1.3h-3.9zm19.8 4.5c-.6-.6-1.6-.9-2.7-.9s-2 .3-2.7.9c-.6.5-.9 1.3-.9 2.3s.4 1.7.9 2.3c.6.6 1.6.9 2.7.9s2-.3 2.7-.9c.6-.5.9-1.3.9-2.3s-.3-1.7-.9-2.3zM36 1c1.7 0 3.1.5 4.2 1.4V1.3H44v13.6h-3.9v-1.1c-1 .9-2.4 1.4-4.2 1.4-4 0-7.2-3.1-7.2-7.1C28.8 4.1 32 1 36 1zm15.2 4.8c.6-.6 1.6-.9 2.7-.9s2 .3 2.7.9c.6.5.9 1.3.9 2.3s-.4 1.7-.9 2.3c-.6.6-1.6.9-2.7.9s-2-.3-2.7-.9c-.6-.5-.9-1.3-.9-2.3s.3-1.7.9-2.3zM54.1 1c-1.7 0-3.1.5-4.1 1.4V1.3h-3.9v18.5H50v-6c1 .9 2.4 1.4 4.2 1.4 4 0 7.2-3.1 7.2-7.1-.1-4-3.3-7.1-7.3-7.1zm19.5 6c-.4-1.5-1.7-2.6-3.5-2.6-1.7 0-3 1.1-3.5 2.6h7zm-3.5 4.8c1.4 0 2-.4 2.7-1.1h4.4c-.4 1-1 1.8-1.7 2.5-1.3 1.2-3.2 2-5.3 2-2.1 0-4-.7-5.3-2-1.4-1.3-2.2-3.1-2.2-5.1 0-2 .8-3.8 2.2-5.1 1.3-1.2 3.2-2 5.3-2 2.1 0 4 .7 5.3 2 1.4 1.3 2.2 3.1 2.2 5.1 0 .4 0 .8-.1 1.1H66.7c.4 1.5 2 2.6 3.4 2.6zm36-6c.6-.6 1.6-.9 2.7-.9s2 .3 2.7.9c.6.5.9 1.3.9 2.3s-.3 1.7-.9 2.3c-.6.6-1.6.9-2.7.9s-2-.3-2.7-.9c-.6-.5-.9-1.3-.9-2.3s.3-1.7.9-2.3zm3-4.8c-1.7 0-3.1.5-4.2 1.4V1.3H101v18.5h3.9v-6c1 .9 2.4 1.4 4.2 1.4 4 0 7.2-3.1 7.2-7.1 0-4-3.3-7.1-7.2-7.1zM99 1.3v13.6h-3.9v-1.1c-1 1-2.3 1.4-3.9 1.4-4 0-7-3.1-7-7.1V1.3h3.9v6.8c0 .9.3 1.7.9 2.3.6.6 1.4.9 2.5.9s2-.3 2.7-.9c.6-.5.9-1.3.9-2.3V1.3H99zm20-.4c1.4 0 2.6 1.2 2.6 2.6 0 1.4-1.2 2.6-2.6 2.6-1.4 0-2.6-1.2-2.6-2.6 0-1.4 1.1-2.6 2.6-2.6zm1.1 3.9l-.6-1c.3-.1.5-.4.5-.7 0-.5-.4-.9-1-.9h-.9v2.5h.5v-.8h.4l.5.9h.6zm-1.5-2.1h.5c.3 0 .4.2.4.4s-.1.4-.4.4h-.5v-.8zm.4-1.2c-1.1 0-2 .9-2 2s.9 2 2 2 2-.9 2-2-.9-2-2-2zm-103.5 3c.6 1 .9 2.2.9 3.5 0 2-.8 3.7-2.1 5 1.3 1.1 2.1 2.6 2.1 4.3 0 1.8-.9 3.4-2.4 4.5-1.3 1-3.1 1.6-5.1 1.6-2 0-3.8-.6-5.1-1.6-1.5-1.1-2.4-2.7-2.4-4.5V17h3.9v.4c0 .6.3 1.1.8 1.4.7.5 1.6.8 2.8.8 1.2 0 2.2-.3 2.8-.8.5-.4.8-.9.8-1.4 0-.6-.3-1.1-.8-1.4-.7-.5-1.6-.8-2.8-.8-2.1 0-3.9-.7-5.3-2s-2.2-3.1-2.2-5.1c0-2 .8-3.8 2.2-5.1C5 1.7 6.9 1 9 1c1.5 0 2.7.3 4.3.3h3.9v3.3h-1.7z"/></svg>