<svg xmlns="http://www.w3.org/2000/svg" role="img" viewBox="90.22 125.97 196.30 94.55"><title>GreptimeDB logo</title><g transform="translate(88 106)" fill="none" fill-rule="evenodd" stroke="none" stroke-width="1"><path d="M0 0h200v135H0z"/><path fill="#8322FF" stroke="#8322FF" stroke-width=".2" d="M103.18915 54.60008c-1.61152 1.48953-3.77034 2.3997-6.14273 2.3997-4.98992 0-9.03512-4.02893-9.03512-8.99948 0-4.97054 4.0452-9.00007 9.03512-9.00007 4.4772 0 8.19355 3.24334 8.91012 7.49966H109C108.25916 40.58047 103.18976 36 97.04642 36 90.3934 36 85 41.37271 85 48.0003 85 54.6273 90.3934 60 97.04642 60c4.20599 0 7.90777-2.1463 10.06295-5.39992h-3.92022zm10.6224.00005C111.1743 61.27616 104.65564 66 97.03087 66 87.07278 66 79 57.94147 79 48.0003 79 38.05913 87.07279 30 97.03088 30c9.45256 0 17.20567 7.26084 17.96912 16.49987h-3.01746c-.75375-7.58015-7.1598-13.50022-14.95166-13.50022-8.298 0-15.02553 6.71594-15.02553 15.00065 0 8.2841 6.72752 15.00005 15.02553 15.00005 5.92654 0 11.0515-3.4248 13.49682-8.40022h3.28384zM121 49.19985H99.76679c-.46325 1.05954-1.52098 1.79977-2.75228 1.79977-1.65765 0-3.00143-1.34318-3.00143-2.99962 0-1.65705 1.34378-3.00023 3.00143-3.00023 1.11156 0 2.0816.60356 2.60048 1.49981h3.21432c-.66645-2.58777-3.01716-4.50003-5.8148-4.50003-3.3153 0-6.00347 2.68635-6.00347 6.00045 0 3.3135 2.68817 5.99985 6.00347 5.99985 1.82639 0 3.46166-.81462 4.56294-2.10034h16.0885c-1.82941 9.73486-10.37954 17.10026-20.65144 17.10026-11.60478 0-21.01247-9.40224-21.01247-20.99977 0-11.59814 9.40769-21.00038 21.01247-21.00038 11.10042 0 20.1906 8.60214 20.96047 19.49996h3.00809C120.20897 33.94351 109.77379 24 97.0145 24 83.75147 24 73 34.74482 73 48c0 13.25458 10.75147 24 24.01451 24C109.8748 72 120.37468 61.89684 121 49.19985z"/><path fill="#1A0C30" d="M137.5 92c.58605-2.58228 2.17674-4 4.5628-4 1.88371 0 3.76743 1.0633 4.4372 4h-9zm.30962 4.27273h12.97115C150.92692 95.55303 151 94.79545 151 94c0-5.7197-3.94615-10-9.28077-10C135.94615 84 132 88.35606 132 94s3.87308 10 10.12115 10c3.47116 0 6.175-1.32576 7.96539-3.90152l-4.38462-2.61363c-.73077.83333-2.00961 1.4394-3.50769 1.4394-2.00961 0-3.69038-.68183-4.38461-2.65152zM124.16 84c-2.556 0-4.212.96109-5.22 2.43969C117.932 84.88716 116.348 84 114.224 84c-2.412 0-3.996.96109-4.824 2.2179V84.5175H104V103h5.4V92.57588c0-2.18094 1.008-3.47471 2.808-3.47471 1.728 0 2.592 1.18288 2.592 3.03113V103h5.4V92.57588c0-2.18094 1.008-3.47471 2.808-3.47471 1.728 0 2.592 1.18288 2.592 3.03113V103h5.4V91.65175C131 87.03113 128.3 84 124.16 84zM96 104h5V85h-5v19zm2.5-20c1.90556 0 3.5-1.59444 3.5-3.5s-1.59444-3.5-3.5-3.5-3.5 1.59444-3.5 3.5 1.59444 3.5 3.5 3.5zM94 91.58725v-5.36818h-3.87497V81l-5.64317 1.67756v3.5415H82v5.36819h2.48186v6.59839c0 5.21906 2.1444 7.41853 9.51814 6.67294v-5.06994c-2.483.14911-3.87497 0-3.87497-1.603v-6.5984H94zM69 94.5c0-2.7664 1.89076-4.5 4.5-4.5s4.5 1.7336 4.5 4.5-1.89076 4.5-4.5 4.5-4.5-1.7336-4.5-4.5zm5.11524-9.5c-2.4907 0-4.31227.83754-5.53903 2.22129V85.5098H63V111h5.5762v-8.9944c1.22677 1.38376 3.04834 2.2213 5.53904 2.2213 4.86989 0 8.88476-4.18768 8.88476-9.61345S78.98513 85 74.11524 85zM48.5 92c.58605-2.58228 2.17674-4 4.5628-4 1.88371 0 3.76743 1.0633 4.4372 4h-9zm.30962 4.27273h12.97115C61.92692 95.55303 62 94.79545 62 94c0-5.7197-3.94615-10-9.28077-10C46.94615 84 43 88.35606 43 94s3.87308 10 10.12115 10c3.47116 0 6.175-1.32576 7.96539-3.90152l-4.38462-2.61363c-.73077.83333-2.00961 1.4394-3.50769 1.4394-2.00961 0-3.69038-.68183-4.38461-2.65152zM38.5 87.68823v-3.31568H33V103h5.5v-8.4196c0-3.68824 3.22667-4.61962 5.5-4.24707V84c-2.31 0-4.76667 1.19216-5.5 3.68824zM32 89.01649H19.3776v5.19231h6.72475c-.89903 2.4849-3.09267 4.0055-6.43707 4.0055-4.89073 0-7.91148-3.22665-7.91148-7.64011 0-4.56182 3.1646-7.78847 7.40803-7.78847 2.84094 0 5.1065 1.33517 6.14937 3.04121l4.89074-2.89285C28.08022 79.4478 24.0166 77 19.19779 77 11.78976 77 6 83.00824 6 90.53709 6 97.99176 11.68188 104 19.59336 104 26.64177 104 32 99.17857 32 91.24176v-2.22528z"/><path fill="#1A0C30" d="M186.86 99.5h-5.36v-5h5.36c1.6 0 2.64 1.04478 2.64 2.5s-1.04 2.5-2.64 2.5zm-.14857-16c1.69143 0 2.78857 1.04839 2.78857 2.5s-1.14286 2.5-2.78857 2.5H181.5v-5h5.21143zm5.14626 7.53571c1.38846-1.17857 2.22885-2.82142 2.22885-4.89285 0-4.32143-3.6173-7.14286-8.075-7.14286H176v25h10.7423c4.56732 0 8.2577-2.89286 8.2577-7.32143 0-2.53571-1.2423-4.46428-3.1423-5.64286zM162.42157 98.5H158.5v-14h3.92157c3.59477 0 6.07843 2.71429 6.07843 7s-2.48366 7-6.07843 7zm.0623-19.5H153v25h9.48387C169.02097 104 174 98.57143 174 91.5S169.02097 79 162.48387 79z"/></g></svg>