<svg xmlns="http://www.w3.org/2000/svg" role="img" viewBox="7.58 -0.67 438.10 322.85"><title>Gronau IT Cloud Computing GmbH (member) logo</title><defs><linearGradient id="a" x1="274.936" x2="197.431" y1="252.254" y2="161.831" gradientTransform="matrix(1 0 0 -1 0 281)" gradientUnits="userSpaceOnUse"><stop offset="0" stop-color="#16daec"/><stop offset="1" stop-color="#046ac7"/></linearGradient></defs><path fill="url(#a)" d="M303.92 80.417v4.614a77.224 77.224 0 1 1-22.619-54.61l-6.525 6.523a68.001 68.001 0 1 0 19.763 52.7h-40.293a27.758 27.758 0 0 0-.003-9.227zm-36.782-35.832a57.197 57.197 0 1 0 0 80.891l-6.525-6.525a47.97 47.97 0 1 1-.002-67.84zm-77.61 40.446a37.165 37.165 0 0 0 63.444 26.28l-6.524-6.525a27.938 27.938 0 1 1 0-39.511l6.526-6.526a37.166 37.166 0 0 0-63.446 26.282z" data-name="Logo Landscape"/><path fill="#052f65" d="M83.609 229.052c-.095 18.804-14.033 33.315-32.837 33.315-19.761 0-34.653-14.892-34.653-34.174 0-19.284 15.275-34.556 35.033-34.556 16.898 0 25.012 10.024 25.012 10.024l-7.637 7.73a23.192 23.192 0 0 0-17.564-7.636c-13.65 0-23.865 10.404-23.865 24.342 0 13.842 10.214 24.341 23.865 24.341 10.882 0 19.568-6.967 21.287-17.754H50.58v-8.114h32.934c0-.001.095 1.24.095 2.482zm42.19-34.461c13.842 0 23.195 8.685 23.195 21 0 9.64-6.014 17.278-15.369 19.855l18.233 25.965H138.97l-16.895-24.532H107.95v24.532H96.97v-66.82zm-17.85 33.697h16.513c8.4 0 13.555-5.155 13.555-12.218 0-6.968-5.155-12.123-13.555-12.123h-16.513zm121.229-.478c0 19.283-15.275 34.555-35.034 34.555-19.664 0-34.652-14.891-34.652-34.173 0-19.284 15.37-34.556 35.033-34.556 19.761 0 34.653 14.892 34.653 34.174zm-10.979.19c0-13.745-10.214-24.246-23.864-24.246-13.555 0-23.865 10.5-23.865 24.247s10.31 24.245 23.865 24.245c13.65 0 23.864-10.498 23.864-24.245zm34.605 33.41h-10.786v-66.82h11.454l36.084 49.639V194.59h10.692v66.82h-10.692l-36.75-50.497v50.497zm111.82 0l-6.777-16.704H328.16l-6.777 16.705h-11.551l27.969-66.82h10.978l27.874 66.82zm-10.023-25.39l-11.647-28.83-11.74 28.83zm82.665-2.006c0 16.897-11.55 28.351-27.873 28.351-16.228 0-27.492-11.073-27.492-27.969v-39.805h11.17v39.518c0 10.98 6.967 18.136 16.704 18.136 9.832 0 16.704-7.158 16.704-18.136V194.59h10.787v39.423zM22.01 313.55h-2.935v-25.741h2.934zm13.793 0v-23.24h-8.476v-2.501h19.814v2.502h-8.476v23.24h-2.862zm37.788-26.108a12.908 12.908 0 0 1 9.467 3.898l-2.017 1.802a10.532 10.532 0 0 0-7.485-3.052 10.61 10.61 0 0 0 0 21.216 10.584 10.584 0 0 0 7.815-3.42l1.908 1.765a13.287 13.287 0 0 1-23.042-8.899 13.215 13.215 0 0 1 13.354-13.31zm18.049.367v23.203h14.2v2.537H88.777v-25.74zm42.815 12.834a13.185 13.185 0 0 1-13.355 13.274 13.002 13.002 0 0 1-13.245-13.165 13.217 13.217 0 0 1 13.356-13.311 13.033 13.033 0 0 1 13.244 13.202zm-2.825.036a10.458 10.458 0 1 0-10.456 10.627 10.35 10.35 0 0 0 10.456-10.627zm18.93 13.238c-5.98 0-10.237-4.338-10.237-10.701v-15.407h2.897v15.407c0 4.817 3.12 8.09 7.45 8.09 4.292 0 7.41-3.273 7.41-8.09v-15.407h2.789v15.297c0 6.362-4.367 10.81-10.31 10.81zm40.026-13.274c0 7.317-5.872 12.907-14.09 12.907h-8.109v-25.74h8.22c8.218 0 13.979 5.517 13.979 12.834zm-2.825.036c0-5.883-4.624-10.368-11.006-10.368h-5.505v20.775h5.505c6.382 0 11.006-4.522 11.006-10.407zm30.376-13.237a12.907 12.907 0 0 1 9.465 3.898l-2.017 1.802a10.532 10.532 0 0 0-7.485-3.052 10.61 10.61 0 0 0 0 21.216 10.584 10.584 0 0 0 7.816-3.42l1.908 1.765a13.288 13.288 0 0 1-23.043-8.899 13.216 13.216 0 0 1 13.356-13.31zm39.768 13.2a13.186 13.186 0 0 1-13.356 13.275 13 13 0 0 1-13.244-13.165 13.217 13.217 0 0 1 13.355-13.311 13.033 13.033 0 0 1 13.245 13.202zm-2.823.037a10.459 10.459 0 1 0-10.458 10.627 10.351 10.351 0 0 0 10.458-10.627zm9.058 12.87v-25.74h2.934l9.796 17.871 9.795-17.871h2.789v25.74h-2.789v-20.665l-9.098 16.438h-1.542l-9.099-16.438v20.665zm52.463-17.65c0 4.67-3.668 8.2-8.988 8.2h-7.413v9.45h-2.86v-25.74h10.383c5.32 0 8.878 3.457 8.878 8.09zm-9.171 5.81c3.815 0 6.347-2.465 6.347-5.737 0-3.235-2.532-5.737-6.347-5.737h-7.23v11.472h7.23zm24.91 12.208c-5.982 0-10.238-4.338-10.238-10.701v-15.407h2.899v15.407c0 4.817 3.119 8.09 7.448 8.09 4.293 0 7.412-3.273 7.412-8.09v-15.407h2.788v15.297c.002 6.362-4.365 10.81-10.31 10.81zm23.552-.368v-23.238h-8.476v-2.502h19.813v2.502h-8.476v23.24h-2.86zm19.59 0h-2.935v-25.74h2.935zm8.07 0v-25.74h3.046l15.814 21.29v-21.29h2.787v25.74h-2.787l-16.072-21.584v21.584zm53.712-12.391a12.559 12.559 0 0 1-12.585 12.759 13.032 13.032 0 0 1-13.246-13.2 13.186 13.186 0 0 1 13.356-13.275 12.743 12.743 0 0 1 9.393 3.75l-1.946 1.987a10.231 10.231 0 0 0-7.485-3.126 10.628 10.628 0 0 0 0 21.253 9.473 9.473 0 0 0 9.54-8.42h-9.613v-2.208h12.547a1.979 1.979 0 0 1 .039.48z"/></svg>