<svg xmlns="http://www.w3.org/2000/svg" role="img" viewBox="88.19 -2.55 223.11 249.86"><title>Hasura Technologies (member) logo</title><path fill="none" d="M0 0h400v245H0z" pointer-events="none"/><path d="M262.72 52.92c4.247-10.453 4.41-32.013-1.307-48.673-1.47-2.94-6.043-2.124-6.206 1.306v1.144c-.98 15.68-6.86 24.336-15.19 28.42-1.47.653-3.594.49-4.9-.327-10.127-6.37-22.05-10.127-34.954-10.127-12.903 0-24.826 3.757-34.953 10.127-1.307.817-2.94.98-4.41.49-8.657-3.267-14.7-12.74-15.843-28.583V5.553c-.164-3.266-4.737-4.246-6.207-1.306-5.717 16.66-5.717 38.22-1.307 48.673 2.124 5.227 2.287 11.107.49 16.497-2.286 6.86-3.43 14.21-3.43 21.886.327 34.627 29.89 64.19 64.68 64.68 36.587.49 66.477-29.073 66.477-65.66 0-7.35-1.143-14.373-3.43-20.906-1.797-5.39-1.633-11.27.49-16.497zm-63.7 87.22c-26.623-.49-48.51-22.213-49-49-.49-28.257 22.54-51.45 50.797-50.797 26.623.49 48.51 22.214 49 49 .653 28.257-22.377 51.45-50.797 50.797z"/><path d="M207.677 84.933l-11.76-18.13c-1.96-2.94-5.88-3.756-8.82-1.96-1.797 1.144-2.94 3.104-2.94 5.39 0 1.144.49 2.45 1.143 3.43l8.003 12.414c.654.98.49 2.123-.163 2.94l-12.413 13.556c-2.287 2.614-2.124 6.534.49 8.984 1.143 1.143 2.776 1.633 4.41 1.633 1.796 0 3.43-.817 4.573-2.123l9.147-10.78c.653-.817 1.96-.817 2.613.163l6.533 9.31c.49.653.98 1.307 1.797 1.96 2.287 1.633 5.063 1.47 7.023.163 1.797-1.143 2.94-3.103 2.94-5.39 0-1.143-.49-2.45-.98-3.43l-11.596-18.13z"/><path d="M110.33 211.68h-6.37c-.98 0-1.797-.817-1.797-1.797v-20.09c0-.98-.816-1.796-1.796-1.796h-5.554c-.98 0-1.796.816-1.796 1.796v51.124c0 .98.816 1.796 1.796 1.796h5.554c.98 0 1.796-.816 1.796-1.796V220.99c0-.98.817-1.797 1.797-1.797h6.37c.98 0 1.797.817 1.797 1.797v19.927c0 .98.816 1.796 1.796 1.796h5.554c.98 0 1.796-.816 1.796-1.796v-51.124c0-.98-.816-1.796-1.796-1.796h-5.554c-.98 0-1.796.816-1.796 1.796v20.09c-.164.98-.817 1.797-1.797 1.797zm28.257-22.213l-8.984 51.123c-.163.98.654 1.96 1.634 1.96h5.553c.817 0 1.633-.653 1.633-1.47l1.47-9.31c.164-.817.817-1.47 1.634-1.47h7.023c.817 0 1.633.653 1.633 1.47l1.634 9.473c.163.817.816 1.47 1.633 1.47h5.717c1.143 0 1.96-.98 1.633-2.123l-9.31-51.123c-.163-.817-.817-1.47-1.633-1.47h-9.474c-.816 0-1.633.653-1.796 1.47zm8.33 33.156h-3.43c-1.144 0-1.797-.98-1.634-1.96l1.634-18.783c.326-1.96 3.103-1.96 3.43 0l1.796 18.783c.164.98-.653 1.96-1.796 1.96zm38.71-11.76h-6.207c-1.143 0-1.797-.49-1.797-1.796v-11.76c0-1.144.654-1.797 1.797-1.797h3.593c1.144 0 1.797.49 1.797 1.797v5.553c0 .98.817 1.797 1.797 1.797h5.716c.98 0 1.797-.817 1.797-1.797V196c0-5.39-2.94-8.167-8.657-8.167h-8.33c-5.716 0-8.656 2.777-8.656 8.167v14.047c0 5.39 2.94 8.33 8.493 8.33h6.207c1.143 0 1.796.49 1.796 1.796v13.067c0 1.143-.49 1.797-1.796 1.797h-3.594c-1.143 0-1.796-.49-1.796-1.797v-5.553c0-.98-.817-1.797-1.797-1.797h-5.717c-.98 0-1.796.817-1.796 1.797v6.86c0 5.39 2.94 8.166 8.656 8.166h8.167c5.717 0 8.657-2.776 8.657-8.166v-15.354c.163-5.39-2.777-8.33-8.33-8.33zm34.463 22.377c0 1.143-.49 1.797-1.797 1.797h-4.9c-1.143 0-1.796-.49-1.796-1.797v-43.447c0-.98-.817-1.796-1.797-1.796h-5.717c-.98 0-1.796.816-1.796 1.796v44.59c0 5.39 2.94 8.167 8.656 8.167h9.474c5.716 0 8.656-2.777 8.656-8.167v-44.59c0-.98-.816-1.796-1.796-1.796h-5.717c-.98 0-1.797.816-1.797 1.796v43.447zm45.243-20.417v-16.66c0-5.39-2.94-8.166-8.656-8.166h-16.334c-.98 0-1.796.816-1.796 1.796v51.124c0 .98.816 1.796 1.796 1.796h5.554c.98 0 1.796-.816 1.796-1.796V222.95c0-.98.817-1.797 1.797-1.797.653 0 1.307.49 1.633 1.144l7.187 19.273c.327.653.98 1.143 1.633 1.143h6.044c1.143 0 2.123-1.143 1.633-2.286l-6.86-17.804c-.327-.816.163-1.796.98-2.286 2.287-1.47 3.593-3.92 3.593-7.514zm-8.983-15.353v14.373c0 1.144-.653 1.797-1.797 1.797h-5.063c-.98 0-1.797-.817-1.797-1.797V197.47c0-.98.817-1.797 1.797-1.797h5.063c1.144 0 1.797.49 1.797 1.797zm39.037-9.473h-9.474c-.816 0-1.633.653-1.633 1.47l-8.983 51.123c-.164.98.653 1.96 1.633 1.96h5.553c.817 0 1.634-.653 1.634-1.47l1.47-9.31c.163-.817.816-1.47 1.633-1.47h7.023c.817 0 1.634.653 1.634 1.47l1.633 9.473c.163.817.817 1.47 1.633 1.47h5.717c1.143 0 1.96-.98 1.633-2.123l-9.31-51.123c-.163-.817-.98-1.47-1.796-1.47zm-2.777 34.626h-3.43c-1.143 0-1.797-.98-1.633-1.96l1.633-17.15c.327-1.96 3.103-1.96 3.43 0l1.797 17.15c0 .98-.817 1.96-1.797 1.96z"/></svg>