<?xml version="1.0" encoding="utf-8"?>
<!-- Generator: Adobe Illustrator 17.1.0, SVG Export Plug-In . SVG Version: 6.00 Build 0)  -->
<!DOCTYPE svg PUBLIC "-//W3C//DTD SVG 1.1//EN" "http://www.w3.org/Graphics/SVG/1.1/DTD/svg11.dtd">
<svg version="1.1" id="Layer_1" xmlns="http://www.w3.org/2000/svg" xmlns:xlink="http://www.w3.org/1999/xlink" x="0px" y="0px"
	 viewBox="-5.335999999999984 -1.198999999999998 241.28 52" enable-background="new 0 0 231.696 50.199" xml:space="preserve">
<g>
	<g>
		<g>
			<g>
				<g>
					<g>
						<path fill="#0B2A35" d="M161.787,38.153h-2.086l-0.934-1.517c-1.616,1.008-3.39,1.517-5.274,1.517
							c-4.097,0-6.175-1.771-6.175-5.265c0-3.555,2.346-5.358,6.975-5.358c1.328,0,2.674,0.091,4.008,0.27v-1.218
							c0-1.716-1.357-2.549-4.149-2.549c-1.656,0-3.381,0.26-5.126,0.773l-0.373,0.109v-2.961l0.21-0.062
							c1.798-0.528,3.578-0.796,5.29-0.796c5.066,0,7.635,1.819,7.635,5.407L161.787,38.153L161.787,38.153z M154.293,30.465
							c-2.347,0-3.489,0.777-3.489,2.376c0,1.621,0.855,2.376,2.689,2.376c1.877,0,3.495-0.49,4.809-1.455V30.74
							C156.97,30.557,155.623,30.465,154.293,30.465z"/>
					</g>
				</g>
			</g>
			<g>
				<g>
					<g>
						<path fill="#0B2A35" d="M73.088,38.153h-3.485V27.474c0-1.806-1.427-3.321-3.179-3.377l-0.187-0.003
							c-1.544,0-3.039,0.646-4.445,1.923v12.136h-3.485v-23.48h1.795c0.932,0,1.691,0.758,1.691,1.691v6.214
							c1.358-0.984,2.983-1.481,4.839-1.481c4.285,0,6.458,2.162,6.458,6.427L73.088,38.153L73.088,38.153z"/>
					</g>
				</g>
			</g>
			<g>
				<g>
					<g>
						<path fill="#0B2A35" d="M89.932,38.153h-2.086l-0.934-1.517c-1.616,1.008-3.389,1.517-5.274,1.517
							c-4.097,0-6.175-1.771-6.175-5.265c0-3.555,2.347-5.358,6.975-5.358c1.327,0,2.674,0.091,4.008,0.27v-1.218
							c0-1.716-1.357-2.549-4.149-2.549c-1.658,0-3.382,0.26-5.127,0.773l-0.373,0.109v-2.961l0.21-0.062
							c1.798-0.528,3.578-0.796,5.291-0.796c5.066,0,7.634,1.819,7.634,5.407L89.932,38.153L89.932,38.153z M82.439,30.465
							c-2.348,0-3.489,0.777-3.489,2.376c0,1.621,0.855,2.376,2.689,2.376c1.878,0,3.494-0.49,4.808-1.455V30.74
							C85.115,30.557,83.768,30.465,82.439,30.465z"/>
					</g>
				</g>
			</g>
			<g>
				<g>
					<g>
						<path fill="#0B2A35" d="M105.885,38.153H92.436V35.56l0.068-0.081l9.564-11.447H92.75v-2.936h13.449v2.749l-0.067,0.081
							l-9.444,11.448h9.196V38.153L105.885,38.153z"/>
					</g>
				</g>
			</g>
			<g>
				<g>
					<g>
						<path fill="#0B2A35" d="M116.433,38.153c-5.825,0-8.78-2.933-8.78-8.717c0-5.534,2.648-8.34,7.87-8.34
							c4.858,0,7.321,2.437,7.321,7.242c0,0.671-0.048,1.396-0.144,2.155l-0.032,0.255h-11.523c0.109,3.007,1.945,4.47,5.603,4.47
							c1.836,0,3.487-0.207,4.908-0.617l0.372-0.107v2.961l-0.211,0.061C120.343,37.938,118.532,38.153,116.433,38.153z
							 M111.166,27.749h8.291c-0.146-2.521-1.434-3.748-3.933-3.748C112.858,24.001,111.431,25.228,111.166,27.749z"/>
					</g>
				</g>
			</g>
			<g>
				<g>
					<g>
						<path fill="#0B2A35" d="M129.217,38.153h-3.486v-23.48h1.795c0.932,0,1.691,0.758,1.691,1.691L129.217,38.153L129.217,38.153z
							"/>
					</g>
				</g>
			</g>
			<g>
				<g>
					<g>
						<path fill="#0B2A35" d="M140.812,38.153c-6.023,0-9.078-2.975-9.078-8.842c0-5.451,3.054-8.215,9.078-8.215
							c1.581,0,3.082,0.16,4.458,0.478l0.227,0.052v2.953l-0.358-0.083c-1.332-0.307-2.842-0.463-4.485-0.463
							c-3.657,0-5.435,1.727-5.435,5.279c0,3.974,1.779,5.906,5.435,5.906c1.643,0,3.152-0.156,4.485-0.463l0.358-0.083v2.953
							l-0.227,0.052C143.893,37.993,142.393,38.153,140.812,38.153z"/>
					</g>
				</g>
			</g>
			<g>
				<g>
					<g>
						<path fill="#0B2A35" d="M171.258,38.153c-1.992,0-3.992-0.268-5.945-0.795l-0.215-0.058v-3.134l0.381,0.123
							c1.899,0.616,3.842,0.928,5.779,0.928c3.646,0,3.646-1.553,3.646-2.063c0-0.818-0.255-1.905-2.454-1.905h-2.353
							c-3.733,0-5.626-1.734-5.626-5.155c0-3.317,2.406-4.999,7.148-4.999c1.982,0,3.977,0.268,5.929,0.795l0.215,0.058v3.134
							l-0.381-0.123c-1.898-0.616-3.838-0.928-5.763-0.928c-3.82,0-3.82,1.553-3.82,2.063c0,1.299,0.73,1.904,2.297,1.904h2.353
							c3.941,0,5.94,1.734,5.94,5.155C178.391,36.472,175.991,38.153,171.258,38.153z"/>
					</g>
				</g>
			</g>
			<g>
				<g>
					<g>
						<path fill="#0B2A35" d="M188.492,38.153h-3.052c-2.943,0-4.434-1.591-4.434-4.731V18.429h2.343l0.627,2.667h4.516v2.936h-4
							v9.17c0,1.375,0.541,2.015,1.701,2.015h2.3V38.153L188.492,38.153z"/>
					</g>
				</g>
			</g>
		</g>
	</g>
	<g>
		<path fill="#FF5F00" d="M202.705,20.997v12.128c0,3.272-2.244,4.909-6.731,4.909v-2.74c2.383,0,3.574-0.723,3.574-2.169V20.997
			H202.705z"/>
		<path fill="#FF5F00" d="M217.541,20.997v2.716h-8.531v4.289h8.125v2.824h-8.161v4.468h8.733v2.74h-11.831V20.997H217.541z"/>
		<path fill="#FF5F00" d="M231.696,20.997v2.74h-4.885v14.297h-3.157V23.738h-4.885v-2.74H231.696z"/>
	</g>
	<g>
		<g>
			<path fill="#0B2A35" d="M22.724,18.49c0.196-0.068,0.395-0.127,0.598-0.177c-0.027-0.406-0.053-0.812-0.064-1.221
				c-0.079-2.874,0.229-5.719,0.891-8.225l0.196-0.744c-1.32-1.589-2.955-2.848-4.775-3.714c-0.914,0.245-1.804,0.547-2.666,0.906
				L17.686,7.2L22.724,18.49z"/>
			<path fill="#0B2A35" d="M11.108,11.098l9.255,8.783c0.157-0.14,0.32-0.273,0.489-0.399c-0.177-0.359-0.353-0.718-0.517-1.085
				c-1.173-2.629-1.977-5.377-2.326-7.947l-0.101-0.746c-1.823-0.961-3.81-1.498-5.817-1.604c-0.749,0.575-1.463,1.194-2.13,1.861
				l1.16,1.16L11.108,11.098z"/>
			<path fill="#0B2A35" d="M6.828,17.504l11.881,4.573c0.093-0.193,0.194-0.381,0.304-0.564c-0.294-0.259-0.589-0.519-0.875-0.79
				c-2.089-1.982-3.882-4.216-5.188-6.46l-0.369-0.634c-2.058-0.193-4.107,0.071-6.008,0.744c-0.472,0.812-0.894,1.656-1.258,2.531
				l1.59,0.659L6.828,17.504z"/>
			<path fill="#0B2A35" d="M5.331,25.068l12.699-0.317c0.011-0.218,0.031-0.433,0.061-0.645c-0.365-0.125-0.731-0.25-1.093-0.39
				c-2.686-1.034-5.196-2.413-7.261-3.99l-0.575-0.439c-1.986,0.609-3.786,1.641-5.291,2.998c-0.122,0.922-0.191,1.86-0.191,2.814
				h1.77L5.331,25.068z"/>
			<path fill="#FF5F00" d="M39.06,11.149l-8.824,9.3c0.133,0.149,0.259,0.303,0.378,0.463c0.389-0.192,0.779-0.382,1.178-0.559
				c2.624-1.166,5.371-1.963,7.942-2.306l0.74-0.098c0.974-1.834,1.519-3.835,1.625-5.858c-0.575-0.749-1.194-1.463-1.861-2.13
				l-1.201,1.201L39.06,11.149z"/>
			<path fill="#0B2A35" d="M25.433,18.119c0.207,0.012,0.411,0.033,0.612,0.063c0.133-0.394,0.268-0.787,0.417-1.178
				c1.027-2.683,2.401-5.19,3.972-7.25l0.47-0.616c-0.611-1.976-1.639-3.768-2.99-5.266C26.992,3.75,26.054,3.681,25.1,3.681V6.01
				L25.433,18.119z"/>
			<path fill="#FF5F00" d="M28.07,18.809c0.183,0.089,0.361,0.185,0.534,0.289c0.28-0.32,0.562-0.638,0.856-0.948
				c1.975-2.083,4.205-3.871,6.448-5.172l0.662-0.384c0.196-2.063-0.068-4.117-0.743-6.022c-0.812-0.472-1.656-0.894-2.53-1.258
				l-0.799,1.93L28.07,18.809z"/>
			<path fill="#0B2A35" d="M43.353,17.566L31.614,22.78c0.065,0.185,0.122,0.373,0.172,0.565c0.439-0.029,0.878-0.055,1.32-0.066
				c2.928-0.072,5.696,0.238,8.228,0.912l0.704,0.188c1.607-1.326,2.88-2.973,3.752-4.808c-0.245-0.914-0.547-1.805-0.906-2.667
				l-1.628,0.675L43.353,17.566z"/>
			<path fill="#0B2A35" d="M27.451,31.656c-0.189,0.07-0.381,0.133-0.577,0.187c0.028,0.42,0.055,0.841,0.066,1.264
				c0.079,2.875-0.229,5.719-0.891,8.225l-0.196,0.744c1.32,1.589,2.955,2.848,4.775,3.714c0.914-0.245,1.805-0.547,2.667-0.906
				L32.515,43L27.451,31.656z"/>
			<path fill="#0B2A35" d="M39.092,39.102l-9.338-8.862c-0.145,0.134-0.295,0.262-0.451,0.384c0.193,0.389,0.383,0.779,0.561,1.178
				c1.173,2.627,1.977,5.375,2.326,7.947l0.101,0.746c1.823,0.961,3.81,1.498,5.817,1.604c0.749-0.575,1.463-1.194,2.13-1.861
				l-1.159-1.159L39.092,39.102z"/>
			<path fill="#0B2A35" d="M43.372,32.695l-12.024-4.628c-0.083,0.177-0.173,0.351-0.27,0.52c0.332,0.29,0.662,0.583,0.984,0.889
				c2.088,1.981,3.882,4.215,5.188,6.46l0.369,0.634c2.058,0.193,4.107-0.071,6.008-0.744c0.472-0.812,0.894-1.656,1.258-2.531
				l-1.59-0.659L43.372,32.695z"/>
			<path fill="#0B2A35" d="M44.746,25.1l0.12,0.032L32,25.452c-0.01,0.197-0.026,0.391-0.052,0.583
				c0.419,0.142,0.838,0.287,1.254,0.447c2.686,1.034,5.196,2.413,7.26,3.99l0.575,0.439c1.986-0.609,3.786-1.642,5.291-2.998
				c0.122-0.922,0.191-1.86,0.191-2.814v0H44.746z"/>
			<path fill="#0B2A35" d="M22.104,31.46c-0.194-0.089-0.383-0.186-0.567-0.292c-0.261,0.297-0.522,0.593-0.796,0.881
				c-1.976,2.083-4.206,3.871-6.448,5.172l-0.662,0.384c-0.196,2.063,0.068,4.116,0.743,6.022c0.812,0.472,1.656,0.894,2.531,1.258
				l0.797-1.923L22.104,31.46z"/>
			<path fill="#0B2A35" d="M11.14,39.05l8.738-9.209c-0.146-0.159-0.285-0.323-0.417-0.495c-0.348,0.17-0.697,0.341-1.053,0.5
				c-2.624,1.166-5.371,1.963-7.943,2.306L9.725,32.25c-0.974,1.834-1.518,3.835-1.625,5.858c0.575,0.749,1.194,1.463,1.861,2.13
				l1.201-1.201L11.14,39.05z"/>
			<path fill="#0B2A35" d="M6.847,32.633l11.593-5.15c-0.074-0.203-0.138-0.41-0.193-0.621c-0.384,0.024-0.767,0.048-1.153,0.058
				c-0.272,0.007-0.542,0.01-0.811,0.01c-2.624,0-5.119-0.31-7.417-0.922l-0.705-0.188c-1.607,1.326-2.879,2.973-3.752,4.807
				c0.245,0.914,0.547,1.805,0.906,2.667l1.628-0.674L6.847,32.633z"/>
			<path fill="#0B2A35" d="M24.767,32.089c-0.209-0.007-0.417-0.022-0.621-0.047c-0.131,0.385-0.262,0.771-0.408,1.153
				c-1.027,2.682-2.4,5.189-3.972,7.25l-0.47,0.616c0.61,1.976,1.639,3.767,2.99,5.266c0.922,0.122,1.86,0.191,2.814,0.191h0V44.19
				L24.767,32.089z"/>
		</g>
		<circle fill="#0B2A35" cx="25.015" cy="25.1" r="5.209"/>
		<g>
			<path fill="#0B2A35" d="M25.1,50.199C11.26,50.199,0,38.94,0,25.1S11.26,0,25.1,0s25.1,11.259,25.1,25.1
				S38.94,50.199,25.1,50.199z M25.1,1.631c-12.94,0-23.468,10.528-23.468,23.468S12.159,48.568,25.1,48.568
				c12.94,0,23.468-10.528,23.468-23.468S38.04,1.631,25.1,1.631z"/>
		</g>
	</g>
</g>
</svg>
