<svg xmlns="http://www.w3.org/2000/svg" role="img" viewBox="-7.35 -4.35 512.20 149.70"><title>Heptio Quickstart for Kubernetes logo</title><style>svg {enable-background:new 0 0 500 141.3}</style><path fill="none" d="M241.1 77.6c4.3 0 8.5-.1 12.8 0h-25.3 12.5z"/><path fill="#010101" d="M50.3 134c3.2-8.2 7.5-15.9 12-23.4.4-.7 1.4-1.4.9-2.6H29.9c-1.7 0-2.5-.2-2.5-2.2.1-6.8.1-13.7 0-20.5 0-1.5.3-2.1 2-2.1 22.4.1 44.8.1 67.1 0 1.5 0 1.9.3 1.9 1.9-.1 4.9-.1 9.9 0 14.8 0 1.2-.3 2.1-1.2 3-3.4 3.3-6.3 7-9 11-4.6 6.8-8.5 14-12.1 21.9h3.1c13.7 0 27.3-.1 41 .1 2.4 0 3.1-.4 3.1-3-.1-41.3-.1-82.7-.1-124 0-.9-.1-1.9-.2-2.8H76.4c.1 2 1.3 3.5 2.2 5.1 5.3 9.8 10.9 19.6 19 27.6.7.7 1 1.5 1 2.5 0 5-.1 10 0 15.1 0 1.6-.6 1.8-2 1.8H29.5c-1.7 0-2-.6-1.9-2.1.1-6.7.1-13.5 0-20.2 0-1.9.4-2.5 2.5-2.5 11.1.1 22.2.1 33.2.1.1-.3.3-.5.2-.6-5.3-8.7-10-17.7-14.1-27H2.7v129.8c15.1 0 30.1 0 45.2.1 1.4 0 2-.6 2.4-1.8z"/><path fill="#818181" d="M462.6 52.5c-9.3.1-17.6 2.7-24 9.8-7.7 8.6-8.8 18.8-6.5 29.6 2 9.4 7.8 16 16.6 19.5 9.6 3.9 19.4 3.8 29.1.1 7.1-2.7 12.3-7.7 15.3-14.8 1-2.3 1.6-4.8 2.4-7.2V77c-1.4-3.6-2.1-7.6-4.4-10.9-6.7-10.3-16.7-13.8-28.5-13.6zm16 40.1c-2.5 7.5-7.9 10.9-16.1 10.6-7.2-.2-12.6-4.6-14.6-11.7-.8-2.7-.9-5.4-.8-8.2 0-2.6.1-5.1.8-7.6 1.8-7.4 7.3-12.2 14.3-12.5 8.6-.3 14.6 3.7 16.9 11.4 1.6 6.1 1.4 12.1-.5 18zM310.1 53.1c-4.2.9-7.9 3-11.4 5.9-.2-1.2-.6-1.9-.5-2.6.2-2.5-.9-3-3.2-2.9-3 .2-6.1.2-9.1 0-2-.1-2.6.5-2.6 2.5.1 5.4 0 10.8 0 16.2v60.6c0 2.2.4 3 2.8 2.9 3.7-.2 7.4-.1 11.1 0 1.5 0 2-.5 2-2-.1-2.8 0-5.7 0-8.5V108c4.1 3.2 8.2 4.9 12.7 5.7 13.9 2.5 26.1-4.3 30.5-17.3 1.9-5.7 2.1-11.5 1.8-17.4-1.4-19.1-15.4-29.7-34.1-25.9zm17 40.1c-3.6 10.5-17.6 13.9-25.7 6.1-1.5-1.4-2.4-3-2.3-5.2 0-.9.1-1.8.1-2.7V74.7c0-6 2.7-9.3 8.6-10.7 11.2-2.6 19.7 3.6 20.5 15.1.3 4.7.3 9.5-1.2 14.1zm-127-22c-.3-10-6.1-16.4-15.9-18.2-9.2-1.6-17.7-.2-25.5 6.7v-3.5c0-8.4-.1-16.9 0-25.3 0-1.9-.5-2.4-2.4-2.4-3.6.1-7.2.2-10.8 0-2.2-.1-2.7.7-2.6 2.7.1 13 0 26 0 39v40.1c0 1.9.4 2.7 2.5 2.6 3.6-.2 7.2-.2 10.8 0 2 .1 2.5-.6 2.5-2.6-.1-12 .1-24.1-.1-36.1-.1-4 1.7-6.4 4.7-8.3 3.2-2.1 6.9-2.8 10.6-2.5 7.6.7 9.8 3 10.7 10.5.1 1 .2 2.1.2 3.1 0 11.1.1 22.2 0 33.3 0 2 .6 2.6 2.6 2.5 3.7-.1 7.4-.1 11.1 0 1.5 0 2-.5 2-2-.3-13.1-.1-26.3-.4-39.6zm71.1 5.4c-.9-7.6-3.7-14.5-10.3-18.8-10.6-7-22-7.2-33.4-2.3-10.9 4.7-16.1 13.8-17 25.3-.8 9.9 1.4 18.9 9.5 25.6 8.8 7.4 19.2 8.5 30 7.3 6.3-.7 12.1-3 17-7.2 3.9-3.3 3.8-3.4-.1-6.5-1.2-.9-2.4-1.9-3.5-2.9-1-.9-1.8-1-2.9.1-5.1 5-11.4 6.5-18.3 6-7.9-.6-14.1-6-15.7-13.4-.4-2 .2-2.2 1.9-2.2h20.3c5 0 10-.1 14.9 0 1.7 0 3.3 0 5 .1 2.4.1 3.2-.8 3-3.1-.1-2.7 0-5.3-.4-8zm-42.5 1.1c-1.2 0-2.1-.2-1.7-1.7 1.4-5.5 4-10.2 9.8-11.9 5.7-1.6 11.3-1.4 15.7 3.3 2.1 2.2 2.9 5 3.4 7.9.3 1.7-.2 2.4-2 2.3-4.2-.1-8.5 0-12.8 0-4.1 0-8.3 0-12.4.1zm155.7 25.1c-6.2 0-7.7-1.5-7.7-7.7V68.4c0-4.9 0-4.9 4.9-4.9 7.8 0 7.8 0 7.5-7.8-.1-1.7-.6-2.1-2.2-2.1-2.6.1-5.1-.1-7.7.1-1.9.1-2.7-.4-2.6-2.5.2-3.3 0-6.6.1-9.9 0-1.6-.5-2.2-2.1-2.1-3.8.1-7.6.1-11.4 0-1.6 0-2.2.5-2.1 2.1.1 3.3-.1 6.6.1 9.9.1 2.1-.7 2.6-2.6 2.5-2.3-.1-4.5-.1-6.8 0-.7 0-1.8-.3-1.9.7-.1 2.8-.6 5.9.2 8.4.5 1.6 3.4.4 5.2.6 1 .1 2.1.1 3.1 0 2.1-.3 2.8.4 2.8 2.6-.2 5.5-.1 11-.1 16.5 0 5.7-.1 11.4 0 17.1.2 7 4 11.8 10.4 13.6 3.9 1.1 7.9 1 11.9.7 5.7-.5 5.7-.5 5.7-6.3.1-4.8.1-4.8-4.7-4.8zm30.8-49.2c-3.7.1-7.4.1-11.1 0-2-.1-2.5.6-2.5 2.6.1 6.7.1 13.5.1 20.3v34.4c0 1.6.3 2.4 2.2 2.3 3.9-.1 7.8-.1 11.7 0 1.5 0 2-.5 2-2V55.8c-.2-2-.9-2.3-2.4-2.2zm.4-21c-2.9-2.1-6.2-2.1-9.5-1.3-3.6.9-5.8 3.9-5.5 7.3.3 3.4 3 6.1 6.7 6.5.7.1 1.5 0 2.3 0 4.5.1 7.5-1.6 8.5-4.7 1-2.9 0-6-2.5-7.8z"/></svg>