<svg xmlns="http://www.w3.org/2000/svg" role="img" viewBox="-22.30 -9.80 2289.60 3369.60"><title>Heptio Contour logo</title><defs><style>.cls-4{fill:#3663fe}</style><clipPath id="clip-path"><path fill="none" d="M42.88 56.642h2159.996v2159.996H42.88z"/></clipPath></defs><path fill="#fff" d="M42.88 56.642h2159.996v2159.996H42.88z"/><g clip-path="url(#clip-path)"><path d="M20.816 1731.368c-8.408-11.87-4.099-26.048-4.105-39.17q-.396-807.7-.942-1615.396c-.066-34.579 5.547-47.165 44.556-46.965q525.929 2.69 1051.88.511c33.533-.083 42.688 2.009 35.2 42.527C1043.149 637.022 769.622 1104.523 346.9 1488.018Q204.56 1617.15 43.624 1722.343c-6.515 4.288-11.8 12.531-22.809 9.025zM665.3 2223.5c659.289-316.608 1192.406-755.715 1544.896-1408.733v59.456q0 653.541.566 1307.082c.058 30.478-4.357 43.209-40.038 43.111q-735.23-2.012-1470.47-.916z" class="cls-4"/><path d="M16.485 2010.667c-12.242-35.029 12.634-50.836 45.436-68.37 629.796-336.635 1089.363-824.104 1328.913-1505.406 43.244-122.987 73.368-249.491 95.009-377.854 4.066-24.117 12.917-28.861 34.41-28.53 66.768 1.032 133.614 1.932 200.319-.355 28.778-.986 30.508 8.962 26.67 33.154a2276.02 2276.02 0 0 1-170.93 575.403c-181.007 404.502-456.634 734.185-802.052 1007.73-213.389 168.987-445.632 306.548-697.868 409.704-59.898 24.496-59.914 24.456-59.907-45.476z" class="cls-4"/><path d="M20.91 2209.131c-10.763-68.03-10.132-66.534 49.791-91.813 695.843-293.543 1229.147-761.573 1553.145-1452.399 90.509-192.983 145.865-397.293 179.603-607.38 3.451-21.496 9.996-27.408 30.516-27.034 59.786 1.089 119.689 2.276 179.377-.372 32.68-1.45 36.886 11.542 32.39 38.895-35.902 218.393-97.992 428.656-193.285 628.75-174.578 366.574-427.31 671.376-739.208 928.13-311.611 256.516-656.017 454.34-1044.695 570.352-15.696 4.686-31.632 8.568-47.634 12.871z" class="cls-4"/><path d="M16.484 1827.461c-21.303-56.617 25.173-81.78 70.113-113.028C605.298 1353.766 958.26 874.001 1123.999 261.297c16.827-62.205 28.338-126.01 39.128-189.613 4.882-28.778 12.654-42.901 45.812-41.63 70.857 2.715 141.897 1.415 212.847.504 23.435-.3 32.58.206 27.238 31.064-88.01 508.396-321.1 941.253-677.903 1310.22-205.62 212.629-442.057 384.306-701.556 525.007-52.835 28.648-53.06 28.232-53.08-30.154-.003-9.74 0-19.48 0-39.234zm237.844 388.124c186.401-73.362 364.75-161.463 533.991-267.24 448.81-280.512 818.738-638.167 1072.939-1107.11 129.14-238.236 215.328-491.395 254.284-760.169 3.614-24.935.154-53.822 44.75-52.01 37.535 1.527 45.588 11.51 45.142 47.341-1.992 159.98-1.088 319.998-.616 480 .067 22.757-4.417 43.43-13.298 64.443-124.299 294.123-302.623 552.123-524.156 780.63q-519.598 535.954-1217.022 803.56c-64.837 24.725-130.353 7.327-196.014 10.555z" class="cls-4"/><path fill="#0b0d0d" d="M986.784 2800.235c0 66.164-1.544 125.869.677 185.433 1.048 28.12-8.317 34.508-34.947 34.054-66.04-1.125-66.06.21-66.06-64.634q-.001-225.156.021-450.312c.007-22.39-8.093-49.506 32.456-43.918 27.526 3.793 66.034-11.808 57.277 41.237-.618 3.743 1.364 7.916 2.921 15.923 39.417-44.041 85.566-65.6 143.726-61.062 50.32 3.927 89.985 25.33 122.106 62.737 71.463 83.223 65.78 225.16-11.835 300.435-68.743 66.669-161.498 60.793-246.342-19.893zm-.004-148.705c-.011 75.66 39.815 125.642 100.56 126.205 57.254.532 100.408-50.255 100.348-118.095-.06-66.737-43.472-115.304-103.597-115.9-60.007-.593-97.302 40.717-97.311 107.79zm-868.098-121.12c44.903-57.976 96.648-80.105 160.738-72.264 54.641 6.685 87.68 33.216 97.42 86.422 18.144 99.126 4.679 199.541 8.39 299.314.468 12.577-5.975 17.388-17.822 16.585a25.76 25.76 0 0 0-4.167.042c-79.098 7.524-77.839 7.5-79.502-71.974-1.302-62.245 7.875-124.958-6.166-186.715-11.654-51.254-51.62-71.233-96.714-45.495-37.159 21.209-64.432 50.406-62.672 99.106 2.107 58.292-.497 116.743.99 175.073.586 23.017-5.428 30.561-29.646 30.667-72.24.315-72.235 1.507-72.235-71.142 0-145.919 1.02-291.85-.783-437.747-.404-32.721 4.62-46.212 41.619-44.062 60.394 3.51 60.55.83 60.55 61.634v160.556zm701.058 232.107c-49.037 84.683-141.281 121.453-241.058 97.81-85.424-20.243-149.117-100.693-151.346-191.165-2.4-97.435 50.711-174.356 140.287-203.176 141.738-45.602 278.504 52.32 277.091 196.777-.26 26.68-8.7 32.442-33.45 32.021-81.965-1.39-164.005.857-245.942-1.221-31.355-.796-30.6 9.994-21.008 32.817 25.755 61.279 110.529 89.044 158.489 41.31 34.349-34.187 61.173-21.226 93.9-13.792 6.652 1.511 12.907 4.764 23.036 8.619zm-186.03-135.162c24.908 0 49.976-1.773 74.686.444 31.687 2.844 30.49-10.575 21.117-33.348-15.78-38.338-51.422-63.641-93.257-63.934-41.55-.29-76.14 24.2-93.488 63.435-10.163 22.986-11.057 36.128 20.393 33.752 23.392-1.767 47.024-.348 70.549-.349zm1572.294 34.659c-.62 116.748-88.252 203.986-205.382 204.46-119.052.482-209.773-87.5-210.514-204.16-.756-119.161 92.354-210.066 212.166-207.14 118.922 2.905 204.353 89.64 203.73 206.84zm-106.885 2.797c1.34-69.55-38.996-119.644-97.464-121.043-58.717-1.404-104.112 48.627-104.8 115.5-.69 67.286 42.693 118.075 101.196 118.47 57.815.39 99.787-46.507 101.068-112.927zm-744.198.443c0-25.045-.081-50.09.022-75.134.104-25.39 7.215-49.854-36.739-49.347-27.964.321-9.543-33.435-13.391-51.342-2.6-12.097-5.248-31.45 17.883-27.705 35.164 5.695 34.067-15.706 32.36-39.361-.798-11.073-.136-22.252-.135-33.383.002-53.891.12-51.695 55.27-54.65 36.315-1.947 54.82 6.401 47.319 46.17-1.52 8.061 1.002 16.87-.425 24.966-7.676 43.556 6.013 65.605 53.74 55.973 35.378-7.141 29.98 18.456 28.934 38.367-1.008 19.19 11.484 50.051-28.226 43.017-46.646-8.263-59.998 10.405-55.142 55.554 4.291 39.888.202 80.618 1.087 120.948 1 45.64 19.272 59.435 63.84 47.258 16.625-4.543 34.176-15.455 34.067 13.43-.086 22.4 37.894 49.643-9.339 67.67a263.767 263.767 0 0 1-84.637 17.053c-68.052 2.594-105.608-35.098-106.422-103.48-.38-31.998-.065-64.003-.066-96.004zm378.548-3.844c.002 55.563-1.106 111.159.508 166.675.718 24.722-5.379 33.363-32.038 33.18-71.902-.496-71.912.963-71.912-71.578 0-97.236 1.056-194.49-.658-291.695-.498-28.255 5.672-38.248 36.001-37.44 68.05 1.816 68.096.054 68.096 67.506q0 66.676.003 133.352zM616.724 3323.446c-88.415-.947-132.196-39.628-159.36-99.35a170.832 170.832 0 0 1 32.612-189.113c43.993-45.405 108.41-59.447 167.345-36.261 21.079 8.293 38.526 21.678 53.194 38.917 11.1 13.045 18.798 27.417-2.111 36.17-13.305 5.57-22.025 34.25-45.479 4.92-42.163-52.724-112.701-40.226-141.83 20.953-37.76 79.31 10.164 168.01 88.041 163.89 20.868-1.104 40.758-7.324 50.828-23.806 22.522-36.86 44.746-11.703 59.938 1.678 21.52 18.954-4.988 31.368-15.752 41.846-29.03 28.263-65.102 41.322-87.426 40.156zm862.69-122.488c-.751-72.279 55.327-129.45 127.595-130.08 70.74-.618 130.721 58.485 130.668 128.754-.053 69.095-56.007 125.204-127.18 127.533-71.945 2.354-130.33-53.86-131.083-126.207zm66.706-.571c.192 41.79 27.159 71.24 64.143 70.05 33.939-1.094 60.551-31.442 61.147-69.731.638-40.967-26.31-71.989-62.72-72.199-36.723-.212-62.764 29.703-62.57 71.88zm-541.812-1.71c.28 73.91-55.236 129.605-128.276 128.69-73.086-.918-129.478-57.877-128.276-129.567 1.203-71.695 60.038-128.58 131.228-126.879 71.673 1.714 125.052 56.128 125.324 127.756zm-66.285.524c-.067-41.362-24.347-70.15-59.623-70.691-35.519-.546-65.748 32.1-65.818 71.077-.07 39.39 30.27 71.986 65.962 70.87 35.498-1.109 59.546-29.92 59.479-71.256zm1006.884 86.03c-19.89 17.418-37.438 30.508-59.75 36.05-70.279 17.452-111.048-12.58-112.966-85.131-1.175-44.46 1.621-89.08-.908-133.427-1.527-26.769 12.88-26.142 30.503-24.738 15.999 1.275 37.854-8.428 36.208 23.466-1.931 37.439-.7 75.057-.353 112.593.251 27.174.275 55.185 38.6 56.356 32.104.98 61.12-25.64 62.21-58.987 1.18-36.11 2.216-72.428-.368-108.39-1.873-26.08 11.756-26.01 29.955-25.292 17.654.697 37.14-4.748 34.87 25.44-2.184 29.032-1.314 58.39-.222 87.546 1.059 28.257-5.127 56.65 11.802 84.435 6.216 10.204 15.36 38.909-8.738 45.604-26.245 7.29-53.948 4.374-60.843-35.525zm-840.928-176.482c14.875-9.28 25.835-17.561 37.959-23.444 73.78-35.802 127.543-3.242 128.596 77.887.577 44.42-1.735 88.96.821 133.24 1.543 26.726-12.736 25.508-30.395 24.86-17.382-.638-37.02 5.288-35.123-25.121 2.156-34.574 1.336-69.415.206-104.087-.88-26.993 3.326-59.254-36.667-62.906-29.014-2.65-60.856 30.856-62.397 65.26-1.366 30.482-1.496 61.136.067 91.6 1.262 24.58-2.399 36.638-32.693 36.515-29.261-.119-30.094-12.562-29.697-34.603 1.05-58.292-.36-116.631.906-174.915.284-13.045-12.28-36.466 18.514-35.195 20.503.847 47.045-8.066 39.903 30.909zm232.574 102.645c-.003-18.05-.109-36.1.03-54.15.116-15.123 3.393-29.637-21.183-30.695-13.16-.567-16.593-46.462-5.198-46.622 40.177-.561 25.376-29.114 25.617-47.257.316-23.808 1.563-37.68 32.713-37.14 29.201.506 31.138 13.497 29.845 35.468-1.518 25.787-6.704 54.07 36.748 47.606 20.239-3.01 13.456 16.027 14.644 27.042 1.607 14.908-3.49 25.113-20.584 22.144-31.657-5.5-32.668 13.495-31.225 36.49a480.549 480.549 0 0 1 .062 54.127c-1.533 30.48 2.45 53.443 42.8 44.496 24.814-5.502 17.76 17.08 23.802 29.294 10.107 20.432-6.352 20.494-16.366 24.366-72.831 28.162-111.662 1.553-111.7-76.011q-.008-14.58-.005-29.158zm784.432-96.068c19.21-15.286 29.89-26.887 43.087-33.35 11.511-5.637 26.783-16.665 38.377-6.721 12.346 10.59 4.896 28.825 4.97 43.59.091 18.136-15.533 15.728-27.358 17.967-38.274 7.245-57.093 28.719-54.26 69.4 2.116 30.399-1.05 61.155.836 91.585 1.702 27.456-15.738 23.584-32.248 23.422-16.021-.158-32.936 5.066-32.061-23.001 1.901-61.035-.112-122.184 1.096-183.254.285-14.397-12.458-38.14 20.984-37.668 23.89.336 45.252-1.61 36.577 38.03zM1679.8 2408.02c-52.633 17.754-46.738-16.487-51.27-52.37-6.587-52.155 23.471-43.685 55.808-47.61 46.364-5.627 48.779 15.503 50.73 53.336 2.353 45.629-14.064 57.217-55.268 46.644z"/><path fill="#fefefe" d="M986.78 2651.53c.01-67.073 37.304-108.383 97.31-107.79 60.126.596 103.538 49.163 103.598 115.9.06 67.84-43.094 118.627-100.348 118.095-60.745-.563-100.571-50.545-100.56-126.205zm-353.07-24.174c-23.525 0-47.157-1.42-70.549.348-31.45 2.376-30.556-10.766-20.393-33.752 17.347-39.236 51.938-63.725 93.488-63.435 41.835.293 77.476 25.596 93.257 63.934 9.374 22.773 10.57 36.192-21.117 33.348-24.71-2.217-49.778-.444-74.686-.443zm1465.409 37.455c-1.28 66.42-43.253 113.317-101.068 112.927-58.503-.395-101.886-51.184-101.195-118.47.687-66.873 46.082-116.904 104.8-115.5 58.467 1.399 98.803 51.494 97.463 121.043zm-552.999 535.576c-.194-42.177 25.847-72.092 62.57-71.88 36.41.21 63.358 31.232 62.72 72.199-.596 38.289-27.208 68.637-61.147 69.73-36.984 1.191-63.951-28.259-64.143-70.05zm-608.097-1.186c.067 41.336-23.981 70.147-59.479 71.256-35.692 1.116-66.031-31.48-65.962-70.87.07-38.978 30.3-71.623 65.818-71.077 35.276.542 59.556 29.329 59.623 70.691z"/></g><path d="M460.098 3128.24c0-99.603 75.31-167.624 170.054-167.624 73.853 0 115.152 38.869 137.988 79.196l-59.277 29.152c-13.604-26.236-42.756-47.129-78.71-47.129-56.362 0-99.118 45.186-99.118 106.406s42.756 106.405 99.117 106.405c35.955 0 65.107-20.406 78.711-47.129l59.277 28.666c-23.322 40.327-64.135 79.683-137.988 79.683-94.744 0-170.054-68.022-170.054-167.625zm327.958 44.214c0-66.563 46.644-122.924 123.897-122.924 77.74 0 124.383 56.361 124.383 122.924 0 67.051-46.644 123.412-124.383 123.412-77.253 0-123.897-56.36-123.897-123.412zm184.145 0c0-36.439-21.864-68.021-60.248-68.021s-59.762 31.582-59.762 68.021c0 36.927 21.378 68.508 59.762 68.508s60.248-31.58 60.248-68.508zm263.335-24.293c0-32.553-17.006-43.728-43.243-43.728-24.293 0-43.242 13.604-53.445 27.694v157.909h-61.706V3055.36h61.706v30.61c15.061-17.977 43.728-36.44 82.112-36.44 51.502 0 76.281 29.152 76.281 74.824v165.682h-61.705zm130.209 83.569v-122.439h-38.87v-53.931h38.87v-64.135h62.192v64.135h47.615v53.931h-47.615v105.92c0 14.576 7.773 25.751 21.377 25.751 9.232 0 17.978-3.4 21.38-6.801l13.118 46.643c-9.232 8.26-25.751 15.062-51.502 15.062-43.244 0-66.565-22.35-66.565-64.135zm132.153-59.276c0-66.563 46.644-122.924 123.897-122.924 77.74 0 124.383 56.361 124.383 122.924 0 67.051-46.644 123.412-124.383 123.412-77.253 0-123.897-56.36-123.897-123.412zm184.145 0c0-36.439-21.864-68.021-60.248-68.021-38.383 0-59.762 31.582-59.762 68.021 0 36.927 21.38 68.508 59.762 68.508 38.384 0 60.248-31.58 60.248-68.508zm263.336 87.944c-16.034 17.976-44.215 35.468-82.599 35.468-51.502 0-75.796-28.18-75.796-73.852V3055.36h61.706v142.36c0 32.554 17.006 43.242 43.243 43.242 23.807 0 42.756-13.118 53.446-26.722v-158.88h61.705v234.676h-61.705zm118.061-205.038h61.706v32.067c16.519-20.891 45.671-37.411 74.824-37.411v60.247a78.113 78.113 0 0 0-17.006-1.943c-20.406 0-47.615 11.66-57.818 26.723v154.993h-61.707zM408.335 2832.981h-99.533v-217.185a110.769 110.769 0 0 0-16.71-67.52 56.506 56.506 0 0 0-48.034-21.573 69.84 69.84 0 0 0-27.842 6.257 113.808 113.808 0 0 0-27.842 16.71 123.606 123.606 0 0 0-24.362 25.757 95.584 95.584 0 0 0-16.007 32.717v226.232H47.768v-539.47h98.842v224.133a148.673 148.673 0 0 1 57.784-57.77 167.392 167.392 0 0 1 80.737-20.191 122.917 122.917 0 0 1 61.263 13.23 97.084 97.084 0 0 1 36.889 34.112 142.156 142.156 0 0 1 18.796 48.724 298.201 298.201 0 0 1 4.875 56.375v239.449zm247.817 7.651a216.26 216.26 0 0 1-84.23-16.006 188.952 188.952 0 0 1-64.04-43.158 199.68 199.68 0 0 1-55.685-139.212 221.33 221.33 0 0 1 13.921-77.973 185.498 185.498 0 0 1 40.369-64.04 177.782 177.782 0 0 1 64.73-43.85 208.78 208.78 0 0 1 85.626-16.006 219.819 219.819 0 0 1 84.922 16.007 188.378 188.378 0 0 1 103.026 107.198 214.632 214.632 0 0 1 13.921 75.171 169.612 169.612 0 0 1-.703 18.796 40.669 40.669 0 0 1-2.086 14.625H556.606a104.903 104.903 0 0 0 11.131 40.369 90.994 90.994 0 0 0 22.98 30.632 106.754 106.754 0 0 0 32.014 19.487 108.319 108.319 0 0 0 92.586-7.652 79.943 79.943 0 0 0 36.197-38.283l84.922 23.658a180.011 180.011 0 0 1-68.224 73.086 226.271 226.271 0 0 1-112.06 27.151zM757.08 2606.75a100.637 100.637 0 0 0-138.52-89.106 99.977 99.977 0 0 0-30.632 19.5 97.367 97.367 0 0 0-21.572 30.632 103.78 103.78 0 0 0-9.75 38.974zm377.279 233.882a157.122 157.122 0 0 1-80.047-20.19 138.584 138.584 0 0 1-52.908-54.981v225.527h-98.843v-545.035h86.317v66.829a157.8 157.8 0 0 1 55.684-53.599 153.406 153.406 0 0 1 78.665-19.5 167.146 167.146 0 0 1 72.382 16.02 174.51 174.51 0 0 1 57.092 43.145 198.582 198.582 0 0 1 37.58 63.349 220.329 220.329 0 0 1 13.92 77.27 249.288 249.288 0 0 1-12.526 79.355 209.888 209.888 0 0 1-34.803 64.04 168.684 168.684 0 0 1-53.599 43.145 177.18 177.18 0 0 1-68.914 14.625zm-33.408-84.23a91.504 91.504 0 0 0 41.059-9.737 104.565 104.565 0 0 0 32.026-25.757 124.118 124.118 0 0 0 20.882-37.592 139.359 139.359 0 0 0 7.652-44.553 121.573 121.573 0 0 0-8.343-45.23 130.398 130.398 0 0 0-22.29-36.902 98.936 98.936 0 0 0-34.098-24.375 96.953 96.953 0 0 0-42.467-9.033 84.86 84.86 0 0 0-28.546 4.875 100.262 100.262 0 0 0-27.139 13.921 105.83 105.83 0 0 0-22.276 20.882 81.495 81.495 0 0 0-15.316 25.756v91.179a133.384 133.384 0 0 0 40.382 54.993 91.973 91.973 0 0 0 58.474 21.573zm474.035 56.388a321.354 321.354 0 0 1-48.737 17.402 219.817 219.817 0 0 1-60.56 9.046 142.494 142.494 0 0 1-38.974-4.862 88.051 88.051 0 0 1-32.026-16.71 76.422 76.422 0 0 1-21.572-29.238 102.676 102.676 0 0 1-8.356-43.849v-222.764h-50.81v-75.862h50.81v-125.994h98.843v125.994h81.44v75.862h-81.44v189.343a35.507 35.507 0 0 0 10.44 29.237 41.451 41.451 0 0 0 26.461 8.356 93.9 93.9 0 0 0 30.632-4.875c9.737-3.48 17.388-6.257 23.658-9.046l20.178 77.96zm61.25-421.127v-98.152h98.843v98.152zm0 441.318v-387.719h98.843v387.719zm360.568 7.651a219.82 219.82 0 0 1-84.922-16.006 201.203 201.203 0 0 1-64.04-43.85 203.996 203.996 0 0 1-40.368-64.039 215.609 215.609 0 0 1 0-152.454 192.236 192.236 0 0 1 40.368-64.04 181.055 181.055 0 0 1 64.04-43.85 207.654 207.654 0 0 1 84.922-16.006 219.82 219.82 0 0 1 84.922 16.007 198.048 198.048 0 0 1 63.348 43.849 203.998 203.998 0 0 1 40.369 64.04 219.373 219.373 0 0 1 13.92 76.579 212.685 212.685 0 0 1-13.92 75.862 202.117 202.117 0 0 1-39.678 64.053 178.319 178.319 0 0 1-63.349 43.849 223.402 223.402 0 0 1-85.612 16.007zm-100.928-200.474a139.365 139.365 0 0 0 7.651 46.638 114.524 114.524 0 0 0 21.586 36.889 100.37 100.37 0 0 0 32.013 24.375 96.612 96.612 0 0 0 39.678 8.342 91.947 91.947 0 0 0 71.691-32.717 128.722 128.722 0 0 0 21.586-36.889 147.983 147.983 0 0 0 0-93.967 107.564 107.564 0 0 0-21.573-36.889 108.647 108.647 0 0 0-32.026-24.375 96.613 96.613 0 0 0-39.678-8.342 83.28 83.28 0 0 0-39.678 9.046 100.37 100.37 0 0 0-32.013 24.375 128.723 128.723 0 0 0-21.586 36.888 142.423 142.423 0 0 0-7.651 46.626z"/></svg>