<svg xmlns="http://www.w3.org/2000/svg" role="img" viewBox="-5.47 -5.47 284.18 58.68"><title>HertzBeat logo</title><g fill="#B421CC" clip-path="url(#clip0_501_120)"><path d="M64.3262 41h-6.4463V8.79102h6.4463V21.6836h12.8701V8.79102h6.4463V41h-6.4463V28.1299H64.3262V41zm33.8711-5.8848c.2395.0749.4791.1273.7187.1573.2396.0149.4792.0224.7188.0224.5992 0 1.1752-.0823 1.7292-.247.554-.1648 1.071-.3969 1.55-.6963.494-.3145.928-.6888 1.303-1.1231.389-.4492.704-.9433.943-1.4824l4.492 4.5146c-.569.8086-1.228 1.5349-1.976 2.1788-.734.6438-1.535 1.1904-2.404 1.6396-.853.4492-1.759.7861-2.717 1.0107-.944.2396-1.917.3594-2.9202.3594-1.6921 0-3.2868-.3144-4.7842-.9433-1.4824-.6289-2.7852-1.5049-3.9082-2.628-1.1081-1.123-1.9841-2.4557-2.6279-3.998-.6439-1.5573-.9659-3.2643-.9659-5.1211 0-1.9017.322-3.6387.9659-5.2109.6438-1.5723 1.5198-2.9125 2.6279-4.0206 1.123-1.108 2.4258-1.969 3.9082-2.583 1.4974-.6139 3.0921-.9209 4.7842-.9209 1.0032 0 1.9842.1198 2.9422.3594.958.2396 1.864.584 2.718 1.0332.868.4492 1.677 1.0033 2.426 1.6621.748.6439 1.407 1.3701 1.976 2.1787L98.1973 35.1152zm3.1447-12.6455c-.285-.1048-.569-.1722-.854-.2021-.269-.03-.5538-.0449-.8532-.0449-.8386 0-1.6322.1572-2.3809.4716-.7337.2995-1.3776.7338-1.9316 1.3028-.5391.569-.9659 1.2578-1.2803 2.0664-.3145.7936-.4717 1.692-.4717 2.6953 0 .2246.0075.4792.0225.7637.0299.2845.0674.5765.1123.8759.0599.2845.1273.5616.2021.8311.0749.2695.1722.5091.292.7187l7.1428-9.4785zM118.929 41h-6.132V16.9443h1.482l2.022 2.8526c.988-.8985 2.111-1.5873 3.369-2.0664 1.258-.4942 2.56-.7412 3.908-.7412h5.413v6.1093h-5.413c-.644 0-1.25.1198-1.819.3594-.569.2396-1.063.569-1.483.9883-.419.4193-.748.9134-.988 1.4824-.239.569-.359 1.1755-.359 1.8193V41zm24.976 0c-1.482 0-2.875-.277-4.177-.8311-1.303-.569-2.449-1.3401-3.437-2.3134-.973-.9883-1.744-2.1338-2.313-3.4366-.554-1.3027-.832-2.6953-.832-4.1777v-7.1426h-2.987v-6.1093h2.987V7.37598h6.11v9.61332h9.299v6.1093h-9.299v7.1426c0 .6439.12 1.2503.359 1.8193.24.5541.569 1.0407.989 1.46.419.4193.913.7562 1.482 1.0107.569.2396 1.175.3594 1.819.3594h4.65V41h-4.65zm26.886 0h-20.058l10.13-17.9014h-10.13v-6.1093h20.058l-10.13 17.9013h10.13V41zm29.828-9.6582c0 1.3327-.254 2.583-.764 3.751-.509 1.1679-1.205 2.1937-2.088 3.0771-.869.8685-1.887 1.5573-3.055 2.0664-1.168.5091-2.418.7637-3.751.7637h-16.105V8.79102h16.105c1.333 0 2.583.25455 3.751.76367 1.168.50911 2.186 1.20541 3.055 2.08891.883.8684 1.579 1.8867 2.088 3.0546.51 1.168.764 2.4183.764 3.751 0 .599-.082 1.2129-.247 1.8418-.165.6289-.397 1.2354-.696 1.8194-.3.5839-.659 1.1155-1.078 1.5947-.42.4791-.884.876-1.393 1.1904.524.2845.996.6738 1.415 1.168.419.4791.779 1.0107 1.078 1.5947.3.584.524 1.1979.674 1.8418.165.6289.247 1.2428.247 1.8418zm-19.316 3.2119h9.658c.449 0 .868-.0823 1.258-.2471.389-.1647.726-.3893 1.01-.6738.3-.2995.532-.6439.697-1.0332.164-.3893.247-.8086.247-1.2578 0-.4492-.083-.8685-.247-1.2578-.165-.3893-.397-.7263-.697-1.0108-.284-.2994-.621-.5315-1.01-.6962-.39-.1648-.809-.2471-1.258-.2471h-9.658v6.4238zm0-12.8701h9.658c.449 0 .868-.0824 1.258-.2471.389-.1647.726-.3893 1.01-.6738.3-.2995.532-.6439.697-1.0332.164-.4043.247-.8311.247-1.2803 0-.4492-.083-.8685-.247-1.2578-.165-.3893-.397-.7262-.697-1.0107-.284-.2995-.621-.5316-1.01-.6963-.39-.1647-.809-.2471-1.258-.2471h-9.658v6.4463zm33.107 13.4316c.24.0749.479.1273.719.1573.239.0149.479.0224.719.0224.599 0 1.175-.0823 1.729-.247.554-.1648 1.071-.3969 1.55-.6963.494-.3145.928-.6888 1.303-1.1231.389-.4492.703-.9433.943-1.4824l4.492 4.5146c-.569.8086-1.228 1.5349-1.976 2.1788-.734.6438-1.535 1.1904-2.404 1.6396-.853.4492-1.759.7861-2.717 1.0107-.944.2396-1.917.3594-2.92.3594-1.692 0-3.287-.3144-4.785-.9433-1.482-.6289-2.785-1.5049-3.908-2.628-1.108-1.123-1.984-2.4557-2.628-3.998-.644-1.5573-.965-3.2643-.965-5.1211 0-1.9017.321-3.6387.965-5.2109.644-1.5723 1.52-2.9125 2.628-4.0206 1.123-1.108 2.426-1.969 3.908-2.583 1.498-.6139 3.093-.9209 4.785-.9209 1.003 0 1.984.1198 2.942.3594.958.2396 1.864.584 2.718 1.0332.868.4492 1.677 1.0033 2.426 1.6621.748.6439 1.407 1.3701 1.976 2.1787l-11.5 13.8584zm3.145-12.6455c-.285-.1048-.569-.1722-.854-.2021-.269-.03-.554-.0449-.853-.0449-.839 0-1.633.1572-2.381.4716-.734.2995-1.378.7338-1.932 1.3028-.539.569-.966 1.2578-1.28 2.0664-.315.7936-.472 1.692-.472 2.6953 0 .2246.008.4792.023.7637.03.2845.067.5765.112.8759.06.2845.127.5616.202.8311.075.2695.172.5091.292.7187l7.143-9.4785zM252.122 41h-1.482l-2.381-3.3018c-.584.5241-1.206 1.0183-1.864 1.4825-.644.4492-1.326.846-2.044 1.1904-.719.3294-1.46.5915-2.224.7861-.749.1947-1.512.292-2.291.292-1.692 0-3.287-.2845-4.784-.8535-1.483-.569-2.785-1.3926-3.908-2.4707-1.109-1.0931-1.984-2.4258-2.628-3.998-.644-1.5723-.966-3.3617-.966-5.3682 0-1.8718.322-3.5863.966-5.1436.644-1.5722 1.519-2.9199 2.628-4.0429 1.123-1.1231 2.425-1.9916 3.908-2.6055 1.497-.6289 3.092-.9434 4.784-.9434.779 0 1.55.0974 2.313.292.764.1947 1.505.4642 2.224.8086.719.3444 1.4.7487 2.044 1.2129.659.4642 1.273.9658 1.842 1.5049l2.381-2.8525h1.482V41zm-6.177-12.2412c0-.8386-.164-1.6471-.494-2.4258-.314-.7936-.749-1.4899-1.303-2.0889-.554-.6139-1.205-1.1005-1.954-1.4599-.733-.3744-1.52-.5615-2.358-.5615-.839 0-1.632.1422-2.381.4267-.734.2845-1.378.7038-1.932 1.2578-.539.5541-.965 1.2429-1.28 2.0664-.314.8086-.472 1.737-.472 2.7852s.158 1.984.472 2.8076c.315.8086.741 1.4899 1.28 2.044.554.554 1.198.9733 1.932 1.2578.749.2845 1.542.4267 2.381.4267.838 0 1.625-.1797 2.358-.539.749-.3744 1.4-.861 1.954-1.46.554-.6139.989-1.3102 1.303-2.0889.33-.7936.494-1.6097.494-2.4482zM268.878 41c-1.482 0-2.875-.277-4.178-.8311-1.303-.569-2.448-1.3401-3.436-2.3134-.974-.9883-1.745-2.1338-2.314-3.4366-.554-1.3027-.831-2.6953-.831-4.1777v-7.1426h-2.987v-6.1093h2.987V7.37598h6.11v9.61332h9.298v6.1093h-9.298v7.1426c0 .6439.119 1.2503.359 1.8193.239.5541.569 1.0407.988 1.46.419.4193.914.7562 1.483 1.0107.569.2396 1.175.3594 1.819.3594h4.649V41h-4.649z"/><path fill-rule="evenodd" d="M24.501 0C10.9719 0 0 10.745 0 24.001c0 9.825 6.03311 18.27 14.6683 21.981-.0694-1.674-.0122-3.689.4237-5.512.4716-1.948 2.3704-12.97 2.3704-12.97v-3.905c0-3.556 2.3765-1.776 4.9959-1.776L26.0313 23h17.3541s-9.7561-7.5-16.3333-7.5h-8.1667c0 2.094-5.1041 2.5-5.1041 2.5l-2.0417-2.5-2.5521-1c0-6.816 4.6142-6.431 16.2537-6.431C34.7961 8.069 49 14.5 43.3854 23H26.0313c-2.642 0 2.895 8.09 2.0416 6.5 0 0 .5104 3.5-5.6146 7.5-.5185 1.85-3.97 8.575-4.9 10.015 2.204.638 4.5325.985 6.9427.985C38.0312 48 49 37.255 49 24.001 49 10.745 38.0312 0 24.501 0z" clip-rule="evenodd"/></g><defs><clipPath id="clip0_501_120"><path fill="#fff" d="M0 0h274v53H0z"/></clipPath></defs></svg>