<svg xmlns="http://www.w3.org/2000/svg" role="img" viewBox="-34.75 -29.75 2067.00 2062.00"><title>Hexa logo</title><g data-name="Layer 1"><path fill="#2b353c" d="M5 1390h128.44v243.87H366.9V1390h128.44v604H366.9v-249.08H133.44V1994H5zm890.43 440h119.76v87.66l-75.5 76.34H693.21l-75.5-76.37v-318.51l75.5-76.37h246.48l75.5 76.37v182.25h-276v112h156.24zm-156.22-206.58v95.47h156.22v-95.47zM1096.77 1994v-106.75l133.65-130.18-129.31-127.57v-106.75h124.1v78.11l82.45 79.84 81.58-79.84v-78.11h124.1v106.75L1384 1757.07l133.65 130.18V1994h-124.1v-78.11l-85.92-84.18-86.79 84.18V1994zm898.23 0h-104.14v-54.68l-53.81 54.68h-163.16l-76.37-76.37v-114.56l76.37-76.37h201.34v-97.2h-154.48v46h-117.16v-76.37l76.38-76.37h238.66l76.37 76.37zm-277.72-200.48v102.41H1844l31.24-26.9v-75.51z"/><path fill="#ffca4b" d="M1000 1179.2L549.53 919.13l144.91-83.62L1000 1011.93v-94.16L549.53 657.7l144.84-83.65L1000 750.5v-94.13L549.53 396.29l.21-.12-107.36-62.04V981L1000 1302.94V1179.2z"/><path fill="#fd9800" d="M1000 12.18L442.38 334.13l107.36 62.04L1000 135.92l450.46 260.37 107.17-62.16L1000 12.18z"/><path fill="#eb6300" d="M1450.46 396.29L1000 656.37v94.13l305.66-176.47 144.8 83.67L1000 917.77v94.16l305.54-176.4 144.92 83.6L1000 1179.2v123.74L1557.63 981V334.13l-107.17 62.16z"/></g></svg>