<svg xmlns="http://www.w3.org/2000/svg" role="img" viewBox="-5.06 -15.06 991.12 323.12"><style>svg {enable-background:new 0 0 985 295.2}</style><path fill="#424343" stroke="#424343" stroke-miterlimit="10" d="M391.3 179.1h-17.8c-11.3 0-20.5 9.2-20.5 20.5v43.5h6.2v-39.9c0-9.8 8-17.7 17.7-17.7h10.6c9.8 0 17.7 8 17.7 17.7V243h6.6v-43.5c0-11.2-9.2-20.4-20.5-20.4zm-71-1h-14.2c-12.1 0-22 9.9-22 22V222c0 12.1 9.9 22 22 22h14.2c12.1 0 22-9.9 22-22v-21.9c0-12.1-9.9-22-22-22zm15.4 45c0 8-6.6 14.6-14.6 14.6h-15.8c-8 0-14.6-6.6-14.6-14.6v-23.7c0-8 6.6-14.6 14.6-14.6h15.8c8 0 14.6 6.6 14.6 14.6v23.7zm-81.2-44h-17.8c-5.6 0-10.8 2.3-14.5 6v-29.4H216V243h6.4v-39.9c0-9.8 8-17.7 17.7-17.7h10.6c9.8 0 17.7 8 17.7 17.7V243h6.6v-43.5c0-11.2-9.2-20.4-20.5-20.4zm389-.8h-14.2c-12.1 0-22 9.9-22 22v21.9c0 12.1 9.9 22 22 22h14.2c12.1 0 22-9.9 22-22v-21.9c0-12-9.9-22-22-22zm15.4 45.1c0 8-6.6 14.6-14.6 14.6h-15.8c-8 0-14.6-6.6-14.6-14.6v-23.7c0-8 6.6-14.6 14.6-14.6h15.8c8 0 14.6 6.6 14.6 14.6v23.7zm102.8-43.7h-17.6c-7 0-13.1 3.6-16.8 9-3.6-5.4-9.6-9-16.4-9h-17.2c-10.9 0-19.8 9.2-19.8 20.5v43.5h6v-39.9c0-9.8 7.7-17.7 17.1-17.7h10.2c8 0 14.8 5.8 16.6 13.5v44.2h6.9v-43.6c0-.5 0-1.1-.1-1.6 2.2-7.3 8.9-12.6 16.8-12.6h10.5c9.6 0 17.5 8 17.5 17.7v39.9h6.6v-43.4c0-11.3-9.1-20.5-20.3-20.5zm65.2-1.9h-14.2c-6 0-11.4 2.4-15.4 6.3v-28.7h-6.7v66.2c0 12.1 9.9 22 22 22h14.2c12.1 0 22-9.9 22-22v-21.9c.2-12-9.7-21.9-21.9-21.9zm15.4 45c0 8-6.6 14.6-14.6 14.6h-15.8c-8 0-14.6-6.6-14.6-14.6v-23.7c0-8 6.6-14.6 14.6-14.6h15.8c8 0 14.6 6.6 14.6 14.6v23.7zm-248.4 9.8c-2.5 2.9-6.1 4.8-10 4.8h-14.7c-7.5 0-13.6-6.6-13.6-14.6v-23.7c0-8 6.1-14.6 13.6-14.6h14.7c3.5 0 6.6 1.4 9 3.7h7.7c-3.6-6.3-10.1-10.5-17.5-10.5h-13.3c-11.3 0-20.5 9.9-20.5 22v21.9c0 12.1 9.2 22 20.5 22h13.3c7.6 0 14.2-4.5 17.8-11.1h-7zm-52.6-54.3l-26.7 52c-.3-.1-.7-.2-1.1-.3-2.1-.5-4-1.7-5.6-3.1-3.9-3.6-6.9-9.3-8.4-14.3l-9.6-32.5c-.2-.6-.3-1.2-.5-1.8H483c.3 1.6.7 3.2 1.2 4.9l8.9 30c3.4 11.6 10.8 20.1 18.6 22.9L496.9 265h6.4l44.4-86.6h-6.4zm319.3 52.8c0-3 .7-5.3 2.1-6.9s3.4-2.3 5.9-2.3c2.6 0 4.7.8 6.1 2.3 1.5 1.6 2.2 3.9 2.2 6.9 0 2.9-.7 5.2-2.2 6.8-1.5 1.6-3.5 2.4-6.1 2.4-2.3 0-4.2-.7-5.7-2.1-1.5-1.5-2.3-3.8-2.3-7.1zm29.3-49.3h6v61.9h-6zm2.1-20.4h1.2c1.9 0 3.4 1.5 3.4 3.4v3c0 1.9-1.5 3.4-3.4 3.4H892c-1.9 0-3.4-1.5-3.4-3.4v-3c0-1.9 1.5-3.4 3.4-3.4zm53.2 16.3H931c-12.1 0-22 9.9-22 22v21.9c0 12.1 9.9 22 22 22h14.2c12.1 0 22-9.9 22-22v-21.9c.1-12.1-9.8-22-22-22zm15.4 45c0 8-6.6 14.6-14.6 14.6h-15.8c-8 0-14.6-6.6-14.6-14.6V199c0-8 6.6-14.6 14.6-14.6H946c8 0 14.6 6.6 14.6 14.6v23.7zM429 213.2h30.8c9.5 0 17.4-7.4 17.4-16.4v-2.1c0-9-7.8-16.4-17.4-16.4h-19.5c-9.1 0-16.6 6.6-17.3 15v28.1c0 3.2.5 6.4 1.8 9.3 1.1 2.8 2.8 5.3 4.9 7.4 2.1 2 4.5 3.6 7.3 4.6 2 .7 4.1 1.1 6.2 1.1h13c4.2 0 8.1-1.4 11.3-3.8 1.1-.8 2.2-1.7 3.1-2.7.8-1 1.5-2 2.2-3.1.2-.3 1.6-3.5 1.6-3.5l-5.9-.9c-.8 1.7-1.9 3.3-3.3 4.5-2.3 2-5.1 3.2-8.3 3.2h-14.5c-1.3 0-2.6-.2-3.8-.6-2.8-.9-5.2-2.8-6.8-5.2-.9-1.3-1.5-2.6-2-4.1-.2-.8-.4-1.5-.5-2.3-.1-.9-.3-1.7-.3-2.6v-9.5zm0-19.8c.3-2 1-3.8 2.2-5.2 1.9-2.4 5-3.9 8.3-3.9h21.6c3.2 0 6.2 1.4 8.2 3.8 2.5 3 2.9 9.4 1.6 12.9-1.4 3.9-5.4 6.6-9.8 6.6H429v-14.2z"/><path fill="#f7941e" d="M77.7 151l21.2 36.6-21.2 36.7H35.4l-21.2-36.7L35.4 151z"/><path fill="#8dc63f" d="M167.9 85.1l25.8 44.6-25.8 44.6h-51.4l-25.8-44.6 25.8-44.6z"/><path fill="#fdb913" d="M167 200.6l25.7 44.6-25.7 44.6h-51.5l-25.8-44.6 25.8-44.6z"/><path fill="#25bdbe" d="M282.9 4.2l33.9 58.7-33.9 58.8H215l-33.9-58.8L215 4.2z"/></svg>