<svg xmlns="http://www.w3.org/2000/svg" xmlns:xlink="http://www.w3.org/1999/xlink" viewBox="17.78 -8.22 384.44 479.44"><title>Huawei FunctionStage logo</title><defs><style>.cls-1{fill:#231f20}</style><radialGradient id="radial-gradient" cx="-279.171" cy="384.232" r="1.261" gradientTransform="matrix(207.99835 0 0 -207.99835 58323.319 79954.255)" gradientUnits="userSpaceOnUse"><stop offset="0" stop-color="#f9ab95"/><stop offset=".42" stop-color="#ed1c24"/><stop offset=".427" stop-color="#ed1c24"/><stop offset=".873" stop-color="#ed1c24"/><stop offset="1" stop-color="#981015"/></radialGradient><radialGradient id="radial-gradient-2" cx="-279.171" cy="384.232" r="1.261" gradientTransform="matrix(208.0201 0 0 -208.0201 58329.465 79962.565)" xlink:href="#radial-gradient"/><radialGradient id="radial-gradient-3" cx="-279.17" cy="384.232" r="1.261" gradientTransform="matrix(207.96468 0 0 -207.96468 58313.873 79941.364)" xlink:href="#radial-gradient"/><radialGradient id="radial-gradient-4" cx="-279.17" cy="384.232" r="1.261" gradientTransform="matrix(207.96634 0 0 -207.96624 58314.322 79941.967)" xlink:href="#radial-gradient"/><radialGradient id="radial-gradient-5" cx="-279.172" cy="384.231" r="1.261" gradientTransform="matrix(208.20439 0 0 -208.20439 58381.237 80033.274)" xlink:href="#radial-gradient"/><radialGradient id="radial-gradient-6" cx="-279.172" cy="384.231" r="1.261" gradientTransform="matrix(208.16637 0 0 -208.16637 58370.562 80018.719)" xlink:href="#radial-gradient"/><radialGradient id="radial-gradient-7" cx="-279.172" cy="384.231" r="1.261" gradientTransform="matrix(208.19434 0 0 -208.19434 58378.431 80029.409)" xlink:href="#radial-gradient"/><radialGradient id="radial-gradient-8" cx="-279.172" cy="384.231" r="1.261" gradientTransform="matrix(208.2076 0 0 -208.2076 58382.149 80034.499)" xlink:href="#radial-gradient"/></defs><path d="M29.305 413.216h27.148v6.69H37.209v8.758h16.867v6.612H37.21v15.963h-7.904zm39.055 9.868v16.97a8.924 8.924 0 0 0 .565 3.616q1.003 2.145 3.933 2.144a5.138 5.138 0 0 0 5.14-3.048 11.085 11.085 0 0 0 .72-4.365v-15.317h7.465v28.155h-7.155v-3.978q-.103.13-.515.775a5.179 5.179 0 0 1-.979 1.136 10.223 10.223 0 0 1-3.335 2.119 11.342 11.342 0 0 1-3.774.568q-6.233 0-8.397-4.495a17.235 17.235 0 0 1-1.21-7.31v-16.97zm47.682 1.614q2.765 2.286 2.765 7.582v18.959h-7.542v-17.125a7.867 7.867 0 0 0-.59-3.41q-1.078-2.17-4.103-2.17a5.085 5.085 0 0 0-5.102 3.177 10.976 10.976 0 0 0-.719 4.288v15.24h-7.36v-28.104h7.128v4.108a12.492 12.492 0 0 1 2.675-3.126 9.271 9.271 0 0 1 5.736-1.704 10.796 10.796 0 0 1 7.112 2.285zm26.451 8.485a6.511 6.511 0 0 0-1.062-2.84 4.454 4.454 0 0 0-3.857-1.706 5.08 5.08 0 0 0-5.102 3.694 15.339 15.339 0 0 0-.724 5.205 14.098 14.098 0 0 0 .724 4.972 4.924 4.924 0 0 0 4.972 3.513 4.388 4.388 0 0 0 3.677-1.394 6.936 6.936 0 0 0 1.32-3.617h7.517a12.306 12.306 0 0 1-2.43 6.354q-3.466 4.83-10.265 4.83-6.801 0-10.007-4.03-3.206-4.028-3.206-10.448 0-7.245 3.542-11.274 3.542-4.03 9.774-4.03a14.73 14.73 0 0 1 8.675 2.377q3.373 2.377 3.995 8.394zm9.687-4.597v-5.244h3.926v-7.852h7.284v7.852h4.571v5.244h-4.57v14.878a3.35 3.35 0 0 0 .438 2.157q.44.426 2.686.426.336 0 .711-.013c.25-.008.494-.022.735-.038v5.502l-3.486.129q-5.218.18-7.13-1.809a5.384 5.384 0 0 1-1.239-3.9v-17.332zm28.077-8.86h-7.465v-6.794h7.465zm-7.465 3.358h7.465v28.155h-7.465zm38.074 24.711q-3.564 4.4-10.824 4.4-7.258 0-10.822-4.4a17.468 17.468 0 0 1 0-21.15q3.564-4.465 10.822-4.465t10.824 4.465a17.468 17.468 0 0 1 0 21.15zm-5.89-4.069a13.138 13.138 0 0 0 0-13.038 6.542 6.542 0 0 0-9.932 0 13.061 13.061 0 0 0 0 13.038 6.52 6.52 0 0 0 9.932 0zm37.427-19.028q2.765 2.286 2.765 7.582v18.959h-7.543v-17.125a7.86 7.86 0 0 0-.59-3.41q-1.076-2.17-4.102-2.17a5.086 5.086 0 0 0-5.102 3.177 10.986 10.986 0 0 0-.718 4.288v15.24h-7.362v-28.104h7.13v4.108a12.492 12.492 0 0 1 2.674-3.126 9.274 9.274 0 0 1 5.736-1.704 10.795 10.795 0 0 1 7.112 2.285zm15.938 14.788a7.72 7.72 0 0 0 1.45 3.9q1.98 2.351 6.779 2.35a14.561 14.561 0 0 0 4.668-.62q3.403-1.187 3.402-4.416a3.256 3.256 0 0 0-1.666-2.92 18.108 18.108 0 0 0-5.286-1.781l-4.122-.904q-6.078-1.343-8.35-2.919-3.85-2.635-3.848-8.24a10.944 10.944 0 0 1 3.764-8.498q3.767-3.384 11.062-3.384a16.96 16.96 0 0 1 10.393 3.19q4.301 3.191 4.511 9.26h-7.646a5.45 5.45 0 0 0-3.072-4.881 10.527 10.527 0 0 0-4.74-.956 9.026 9.026 0 0 0-5.031 1.24 3.921 3.921 0 0 0-1.88 3.46 3.265 3.265 0 0 0 1.854 3.049 22.99 22.99 0 0 0 5.058 1.576l6.682 1.575a17.019 17.019 0 0 1 6.585 2.764 9.317 9.317 0 0 1 3.404 7.775 10.924 10.924 0 0 1-4.034 8.666q-4.034 3.448-11.396 3.448-7.519 0-11.827-3.396a11.239 11.239 0 0 1-4.307-9.338zm26.063-10.9v-5.244h3.927v-7.852h7.284v7.852h4.571v5.244h-4.571v14.878a3.35 3.35 0 0 0 .438 2.157q.44.426 2.687.426.335 0 .71-.013c.25-.008.495-.022.736-.038v5.502l-3.486.129q-5.218.18-7.13-1.809a5.384 5.384 0 0 1-1.24-3.9v-17.332zm31.661 5.528a11.663 11.663 0 0 0 2.94-.647 2.214 2.214 0 0 0 1.587-2.091 2.475 2.475 0 0 0-1.217-2.39 7.702 7.702 0 0 0-3.574-.658 4.692 4.692 0 0 0-3.744 1.29 5.326 5.326 0 0 0-1.048 2.584h-7.103a10.778 10.778 0 0 1 2.075-6.07q2.933-3.72 10.066-3.72a17.946 17.946 0 0 1 8.25 1.835q3.606 1.834 3.605 6.922v12.915q0 1.343.052 3.254a4.086 4.086 0 0 0 .439 1.963 2.634 2.634 0 0 0 1.085.853v1.085h-8.008a8.194 8.194 0 0 1-.465-1.602q-.129-.748-.206-1.705a15.183 15.183 0 0 1-3.534 2.816 10.67 10.67 0 0 1-5.403 1.369 9.323 9.323 0 0 1-6.353-2.183 7.76 7.76 0 0 1-2.507-6.186q0-5.192 4.034-7.517a18.022 18.022 0 0 1 6.505-1.808zm4.5 3.434a8.127 8.127 0 0 1-1.426.711 12.114 12.114 0 0 1-1.976.504l-1.676.31a10.991 10.991 0 0 0-3.384 1.008 3.36 3.36 0 0 0-1.74 3.125 3.261 3.261 0 0 0 1.063 2.724 4.03 4.03 0 0 0 2.583.84 7.693 7.693 0 0 0 4.446-1.394q2.033-1.395 2.11-5.09zm27.696-14.49a8.834 8.834 0 0 1 4.334 4.081v-4.055h7.18v26.709q0 5.449-1.833 8.213-3.151 4.752-12.088 4.753a16.473 16.473 0 0 1-8.809-2.118 7.816 7.816 0 0 1-3.771-6.328h8.008a3.314 3.314 0 0 0 1.008 1.86 6.215 6.215 0 0 0 4.002 1.007q3.979 0 5.322-2.66a13.485 13.485 0 0 0 .878-5.735v-1.808a8.988 8.988 0 0 1-2.273 2.712 9.143 9.143 0 0 1-5.709 1.679 10.802 10.802 0 0 1-8.666-3.81q-3.241-3.81-3.241-10.32a17.41 17.41 0 0 1 3.121-10.55 10.309 10.309 0 0 1 8.849-4.275 9.668 9.668 0 0 1 3.688.645zm2.508 20.187q1.774-1.951 1.774-6.213a9.535 9.535 0 0 0-1.684-6.096 5.498 5.498 0 0 0-4.514-2.092 5.32 5.32 0 0 0-5.325 3.642 12.963 12.963 0 0 0-.771 4.778 10.945 10.945 0 0 0 .823 4.366 5.364 5.364 0 0 0 5.35 3.565 5.655 5.655 0 0 0 4.347-1.95zm34.226-19.591a11.456 11.456 0 0 1 4.865 4.165 13.83 13.83 0 0 1 2.243 5.821 35.88 35.88 0 0 1 .242 5.588H371.84q.172 4.236 2.945 5.94a7.482 7.482 0 0 0 4.06 1.06 5.72 5.72 0 0 0 5.602-3.23h7.515a9.188 9.188 0 0 1-2.73 5.09q-3.781 4.107-10.59 4.107a15.346 15.346 0 0 1-9.918-3.465q-4.298-3.463-4.297-11.271 0-7.316 3.88-11.22a13.572 13.572 0 0 1 10.068-3.904 16.037 16.037 0 0 1 6.62 1.319zm-11.013 6.36a7.653 7.653 0 0 0-1.962 4.358h12.684a6.148 6.148 0 0 0-1.962-4.45 6.45 6.45 0 0 0-4.367-1.517 5.836 5.836 0 0 0-4.393 1.608z"/><g id="layer1"><g id="g3348"><path id="path3350" d="M40.464 329.725h29.69v-23.72h13.315v58.522H70.153v-24.44h-29.69v24.44h-13.35v-58.522h13.35z" class="cls-1"/></g><g id="g3352"><g id="g3354"><g id="g3360"><path id="path3362" d="M107.654 341.074c0 10.344 3.263 14.677 14.301 14.677 11.004 0 14.198-4.333 14.198-14.677v-35.068h13.35v35.376c0 7.467-.907 12.614-3.75 15.748-5.181 5.686-12.794 8.033-23.798 8.033-11.038 0-18.702-2.347-23.935-8.033-2.894-3.177-3.613-8.324-3.613-15.748v-35.376h13.247z" class="cls-1"/></g><g id="g3364"><path id="path3366" d="M176.178 340.196h18.9l-9.617-22.522zm16.861-34.185l27.01 58.522h-14.816l-5.84-13.924h-27.565l-5.6 13.924H152.08l26.804-58.522z" class="cls-1"/></g><g id="g3368"><path id="path3370" d="M226.087 306.009L240.74 351l12.357-44.992h15.74L283 351l13.684-44.992h13.701l-19.584 58.522h-16.33l-13.514-43.656-11.809 43.656h-16.27l-21.109-58.522z" class="cls-1"/></g><g id="g3372"><path id="path3374" d="M328.33 329.8h36.848v10.174h-36.934c.085 10.559 4.564 14.395 15.105 14.395h21.829v10.165h-22.462c-7.647 0-13.599-.557-19.773-5.13-6.56-4.786-9.703-12.485-9.703-23.06 0-20.69 9.42-30.332 29.861-30.332h22.077v10.224h-21.829c-9.668 0-14.497 4.393-15.02 13.565" class="cls-1"/></g><path id="path3376" d="M376.97 306.005h13.915v58.522h-13.916z" class="cls-1"/></g></g><g id="g3378"><g id="g3380"><g id="g3386"><g id="g3388"><path id="path3402" fill="url(#radial-gradient)" d="M53.178 109.766c1.199 22.872 18.42 36.437 18.42 36.437 27.745 27.035 94.917 61.151 110.502 68.927.206.017 1.02.308 1.49-.3a1.157 1.157 0 0 0 .317-1.327C141.167 120.127 82.722 49.325 82.722 49.325s-31.813 30.203-29.544 60.44"/></g></g></g></g><g id="g3404"><g id="g3406"><g id="g3412"><g id="g3414"><path id="path3428" fill="url(#radial-gradient-2)" d="M59.986 240.811c12.117 21.606 32.55 38.416 53.821 33.252 14.703-3.674 47.92-26.863 58.873-34.716l-.034-.009c.857-.745.608-1.378.608-1.378a1.59 1.59 0 0 0-1.473-1.002v-.043L59.986 240.81z"/></g></g></g></g><g id="g3430"><g id="g3432"><g id="g3438"><g id="g3440"><path id="path3454" fill="url(#radial-gradient-3)" d="M33.234 190.621c12.126 25.639 35.29 33.415 35.29 33.415a67.852 67.852 0 0 0 21.374 4.675c1.67.3 66.495.034 83.853-.034a1.457 1.457 0 0 0 1.156-.754c.54-.873-.403-1.695-.403-1.695v-.009C125.402 193.113 30.22 142.255 30.22 142.255c-8.657 26.778 3.015 48.366 3.015 48.366"/></g></g></g></g><g id="g3456"><g id="g3458"><g id="g3464"><g id="g3466"><path id="path3480" fill="url(#radial-gradient-4)" d="M164.323 4.478c-29.604 7.656-36.6 34.51-36.6 34.51-5.395 16.905.154 35.453.154 35.453 9.848 43.854 58.488 115.872 68.952 131.004.754.745 1.31.462 1.31.462a1.396 1.396 0 0 0 1.071-1.379C215.266 43.69 182.306 1.053 182.306 1.053c-4.856.454-17.983 3.425-17.983 3.425"/></g></g></g></g><g id="g3482"><g id="g3484"><g id="g3490"><g id="g3492"><path id="path3506" fill="url(#radial-gradient-5)" d="M218.443 204.63h.052a1.33 1.33 0 0 0 .856 1.251 1.292 1.292 0 0 0 1.601-.625v.026c10.756-15.492 59.062-87.185 68.953-130.84s5.275-21.152.129-35.454-7.28-27.274-36.934-34.467-8.547-2.2-17.598-3.468-33.132 42.663-17.059 203.578"/></g></g></g></g><g id="g3508"><g id="g3510"><g id="g3516"><g id="g3518"><path id="path3532" fill="url(#radial-gradient-6)" d="M245.812 237.018s-.993.137-1.259.873a1.452 1.452 0 0 0 .446 1.473v.017c10.661 7.69 43.09 30.366 58.745 34.776s28.901 9.848 53.983-33.26l-111.915-3.913v.034z"/></g></g></g></g><g id="g3534"><g id="g3536"><g id="g3542"><g id="g3544"><path id="path3558" fill="url(#radial-gradient-7)" d="M243.329 226.168v.009a1.513 1.513 0 0 0-.548 1.627s.47.83 1.13.83v.043c17.58 0 84.187.068 85.891-.223a66.677 66.677 0 0 0 19.234-4.418s23.686-7.553 35.966-34.451 10.978-21.948 2.5-47.57-95.054 50.978-144.173 84.153"/></g></g></g></g><g id="g3560"><g id="g3562"><g id="g3568"><g id="g3570"><path id="path3584" fill="url(#radial-gradient-8)" d="M234.029 213.04h.051a1.526 1.526 0 0 0 .283 1.79 1.426 1.426 0 0 0 1.507.129c16.03-7.964 82.654-41.85 110.254-68.756s17.478-14.035 18.411-36.566c2.013-31.324-29.466-60.312-29.466-60.312s-58.343 70.597-101.04 163.716"/></g></g></g></g></g></svg>