<svg xmlns="http://www.w3.org/2000/svg" role="img" xmlns:xlink="http://www.w3.org/1999/xlink" viewBox="-19.40 -6.40 1944.80 572.80"><title>Huifu Payment Limited (supporter) logo</title><defs><radialGradient id="未命名的渐变_8" cx="517.083" cy="1611.778" r="8.044" gradientTransform="matrix(-65.4707 -.00004 -.00004 65.57562 35444.213 -105477.001)" gradientUnits="userSpaceOnUse"><stop offset="0" stop-color="#fdb913"/><stop offset="1" stop-color="#ed1c24"/></radialGradient><radialGradient id="未命名的渐变_8-2" cx="517.083" cy="1611.779" r="8.044" gradientTransform="matrix(-65.47097 .00004 .00004 65.57589 35502.857 -105395.14)" xlink:href="#未命名的渐变_8"/><radialGradient id="未命名的渐变_8-3" cx="517.084" cy="1611.779" r="8.044" gradientTransform="matrix(-65.47138 0 0 65.5763 35516.357 -105348.083)" xlink:href="#未命名的渐变_8"/><radialGradient id="未命名的渐变_8-4" cx="517.084" cy="1611.779" r="8.044" gradientTransform="matrix(-65.47258 .00004 .00004 65.5775 35428.924 -105442.783)" xlink:href="#未命名的渐变_8"/><radialGradient id="未命名的渐变_8-5" cx="517.083" cy="1611.778" r="8.044" gradientTransform="matrix(-65.47044 -.00008 -.00008 65.57535 35482.636 -105369.842)" xlink:href="#未命名的渐变_8"/><radialGradient id="未命名的渐变_8-6" cx="517.084" cy="1611.779" r="8.044" gradientTransform="matrix(-65.47117 .00003 .00004 65.57609 35455.581 -105407.908)" xlink:href="#未命名的渐变_8"/><radialGradient id="未命名的渐变_8-7" cx="517.083" cy="1611.778" r="8.044" gradientTransform="matrix(-65.46991 0 .00001 65.57483 35482.101 -105505.565)" xlink:href="#未命名的渐变_8"/><radialGradient id="未命名的渐变_8-8" cx="516.187" cy="1611.076" r="8.044" gradientTransform="matrix(-61.98642 -.00005 -.00005 62.08576 33626.628 -99789.439)" xlink:href="#未命名的渐变_8"/><radialGradient id="未命名的渐变_16" cx="539.146" cy="1634.245" r="8.044" gradientTransform="matrix(65.4708 .00004 .00004 -65.57572 -33859.878 107486.99)" gradientUnits="userSpaceOnUse"><stop offset="0" stop-color="#0097dc"/><stop offset="1" stop-color="#17479e"/></radialGradient><radialGradient id="未命名的渐变_16-2" cx="539.146" cy="1634.245" r="8.044" gradientTransform="matrix(65.47093 .00006 .00006 -65.57585 -33917.367 107405.097)" xlink:href="#未命名的渐变_16"/><radialGradient id="未命名的渐变_16-3" cx="539.146" cy="1634.245" r="8.044" gradientTransform="matrix(65.47157 -.00014 -.00014 -65.57649 -33930.166 107358.618)" xlink:href="#未命名的渐变_16"/><radialGradient id="未命名的渐变_16-4" cx="539.145" cy="1634.245" r="8.044" gradientTransform="matrix(65.47298 .00004 .00004 -65.5779 -33843.1 107453.566)" xlink:href="#未命名的渐变_16"/><radialGradient id="未命名的渐变_16-5" cx="539.146" cy="1634.245" r="8.044" gradientTransform="matrix(65.47044 .00005 .00004 -65.57535 -33896.753 107379.966)" xlink:href="#未命名的渐变_16"/><radialGradient id="未命名的渐变_16-6" cx="539.146" cy="1634.245" r="8.044" gradientTransform="matrix(65.47159 .00004 .00004 -65.57652 -33869.644 107418.748)" xlink:href="#未命名的渐变_16"/><radialGradient id="未命名的渐变_16-7" cx="539.146" cy="1634.245" r="8.044" gradientTransform="matrix(65.46973 0 -.00001 -65.57465 -33895.381 107515.53)" xlink:href="#未命名的渐变_16"/><radialGradient id="未命名的渐变_16-8" cx="539.753" cy="1634.544" r="8.044" gradientTransform="matrix(61.98646 -.00006 -.00006 -62.0858 -32056.253 101783.616)" xlink:href="#未命名的渐变_16"/><clipPath id="clip-path"><path d="M1496.516 65.5658c-31.16346 1.44792-55.5783 21.65549-54.50009 45.13672a34.05475 34.05475 0 0 0 6.23409 17.83438 155.16283 155.16283 0 0 1 104.56854-9.967 33.29256 33.29256 0 0 0 2.07541-13.04775c-1.03746-22.60457-25.29126-40.02873-54.90271-40.02873q-1.72557 0-3.47521.07242" class="cls-1"/></clipPath><clipPath id="clip-path-2"><path d="M1307.00764 253.0793c-28.52489 15.59793-43.31884 43.54395-33.02185 62.4401 10.2965 18.89614 41.758 21.58307 70.29123 5.98513a84.41836 84.41836 0 0 0 20.19137-15.29229 154.6568 154.6568 0 0 1-3.08094-60.30848 49.01335 49.01335 0 0 0-17.3353-2.9361c-11.56815 0-24.58374 3.31416-37.04451 10.11164" class="cls-1"/></clipPath><clipPath id="clip-path-3"><path d="M1181.91828 313.29129c-30.4476 14.39919-48.32249 40.51113-39.94035 58.30525 8.39834 17.81008 39.89224 20.56133 70.33984 6.154 30.43975-14.40754 48.32249-40.51137 39.94036-58.3136-4.77829-10.11974-17.02205-15.37257-32.29814-15.37257-11.58387 0-24.90534 3.01663-38.04171 9.22688" class="cls-1"/></clipPath><clipPath id="clip-path-4"><path d="M1382.98647 34.73179c-31.22827 8.89718-51.90179 32.38651-46.19848 52.4733 5.70331 20.06248 35.63636 29.12046 66.84843 20.22352 31.21207-8.89718 51.89394-32.38651 46.19848-52.46519-4.223-14.83372-21.6712-23.65038-43.09347-23.65038a87.24168 87.24168 0 0 0-23.755 3.41875" class="cls-1"/></clipPath><clipPath id="clip-path-5"><path d="M1223.2825 218.13474c-28.95156 17.255-44.50948 44.53354-34.77565 60.9038 9.74953 16.37 41.09024 15.67035 70.01775-1.56871 28.93536-17.25526 44.50113-44.52544 34.74325-60.90379-4.69777-7.9076-14.44731-11.833-26.52216-11.833-12.91886 0-28.517 4.48861-43.46319 13.40175" class="cls-1"/></clipPath><clipPath id="clip-path-6"><path d="M1304.68282 122.81739c-29.27316 14.86587-44.94352 42.76377-35.04079 62.2874 9.886 19.53148 41.6372 23.30423 70.88631 8.44646 29.24124-14.874 44.91994-42.77164 35.01722-62.29526-5.81624-11.48739-19.18583-17.52874-35.16992-17.52064-11.18961 0-23.65037 2.96041-35.69282 9.082" class="cls-1"/></clipPath><clipPath id="clip-path-7"><path d="M1558.00729 136.02618c-13.68333 11.8895-8.46266 40.38249 11.67224 63.63884 20.127 23.27231 47.54182 32.507 61.2335 20.62565 13.69167-11.88165 8.44645-40.36654-11.66439-63.63075-14.18217-16.38621-31.96819-25.8144-46.03744-25.8063-5.90461 0-11.15769 1.66519-15.20391 5.17256" class="cls-1"/></clipPath><clipPath id="clip-path-8"><path d="M1411.914 167.57605c-26.01546 17.42416-35.34668 49.191-20.82671 70.95112 14.52 21.75982 47.36507 25.28339 73.39624 7.85113 26.03952-17.40771 35.36288-49.17484 20.84291-70.943-8.30947-12.45242-22.62863-18.9283-38.22632-18.9283a63.69355 63.69355 0 0 0-35.18612 11.06907" class="cls-1"/></clipPath><clipPath id="clip-path-9"><path d="M1514.29419 422.79082a154.50036 154.50036 0 0 1-38.54055-4.85071 33.07813 33.07813 0 0 0-2.07541 13.04774c1.07821 23.49768 27.20611 41.39614 58.37006 39.96442 31.17181-1.432 55.58616-21.65549 54.5001-45.12887a33.98 33.98 0 0 0-6.22622-17.84223 153.87868 153.87868 0 0 1-66.028 14.80965" class="cls-1"/></clipPath><clipPath id="clip-path-10"><path d="M1684.28729 215.01353a84.42828 84.42828 0 0 0-20.19137 15.2923 154.557 154.557 0 0 1 4.714 37.96118 156.24743 156.24743 0 0 1-1.62517 22.34729c14.52047 5.51036 35.1056 3.35443 54.37981-7.17553 28.52538-15.59008 43.311-43.5442 33.02234-62.43224-5.79218-10.63455-18.29321-16.12894-33.19124-16.12894-11.58387 0-24.62351 3.32251-37.10834 10.13594" class="cls-1"/></clipPath><clipPath id="clip-path-11"><path d="M1816.2544 158.77559c-30.44761 14.40729-48.33035 40.50327-39.94821 58.31335 8.39834 17.786 39.88389 20.53726 70.33984 6.154 30.43975-14.40753 48.33035-40.51947 39.94035-58.32145-4.77829-10.12784-17.022-15.38091-32.29813-15.38091-11.576 0-24.90534 3.02472-38.03385 9.235" class="cls-1"/></clipPath><clipPath id="clip-path-12"><path d="M1624.92789 429.08945c-31.21207 8.88908-51.89393 32.39461-46.19848 52.4652 5.71951 20.07058 35.65256 29.12046 66.84843 20.23138 31.22827-8.89694 51.90228-32.37841 46.19848-52.4571-4.21513-14.83371-21.6712-23.65822-43.09348-23.65037a87.22505 87.22505 0 0 0-23.755 3.41089" class="cls-1"/></clipPath><clipPath id="clip-path-13"><path d="M1770.03972 259.06443c-28.92751 17.23882-44.49328 44.51734-34.74326 60.8876 9.73334 16.37811 41.05834 15.68631 69.98584-1.5687 28.95157-17.24717 44.509-44.52544 34.77566-60.8876-4.70612-7.9238-14.45565-11.84925-26.53836-11.84925-12.92721 0-28.52539 4.49671-43.47988 13.418" class="cls-1"/></clipPath><clipPath id="clip-path-14"><path d="M1688.04383 342.96682c-29.24124 14.874-44.92731 42.76378-35.02508 62.30336 9.88653 19.52362 41.6215 23.30447 70.8706 8.4305 29.26531-14.86587 44.944-42.75568 35.04128-62.2793-5.82409-11.49525-19.202-17.5366-35.194-17.5285-11.18961 0-23.65823 2.95206-35.69283 9.07394" class="cls-1"/></clipPath><clipPath id="clip-path-15"><path d="M1397.65963 316.2274c-13.69167 11.8814-8.4548 40.37463 11.656 63.63884 20.14276 23.27207 47.56637 32.507 61.24136 20.61755 13.69167-11.88141 8.471-40.36653-11.6639-63.63075-14.17432-16.37811-31.95248-25.80629-46.01387-25.80629-5.91247 0-11.1734 1.66518-15.21963 5.18065" class="cls-1"/></clipPath><clipPath id="clip-path-16"><path d="M1564.0808 290.13952c-26.03166 17.41606-35.36288 49.18319-20.835 70.943 14.52 21.76007 47.38912 25.27529 73.41293 7.86733 26.00711-17.42391 35.33833-49.191 20.81836-70.95087-8.30947-12.45267-22.62028-18.9364-38.22632-18.9364a63.62838 63.62838 0 0 0-35.16992 11.07692" class="cls-1"/></clipPath><style>.cls-1{fill:none}.cls-2{fill:#17479e}</style></defs><path d="M960.11275 209.27708l-13.70788 15.936v-54.7095h94.59364v-24.1814H808.33209v24.18138h91.89051V361.7817h46.18227V234.287c46.69733 17.762 71.52214 51.81366 71.52214 51.81366l26.42593-37.76013s-37.17315-35.4272-84.24019-39.06345m-254.79964 34.95119h99.57274v-23.67443H704.53269c.177-19.89359.64343-40.45491.55506-48.813h78.90683v-24.18922H582.61265v24.18923h83.25085c-.26538 18.34108-.925 34.7597-2.95231 48.813H561.71353v23.67443H657.417c-20.63375 61.38644-95.73567 80.61252-95.73567 80.61252s14.65671 6.79748 27.91386 34.37329c0 0 63.2927-22.09762 92.3972-79.32515.57912-1.18254 1.17445-2.381 1.81-3.59575 31.19587 64.25823 100.3129 79.51812 103.19279 80.37906 15.86331-24.14921 30.17437-33.94711 30.17437-33.94711s-80.64469-12.77451-111.85651-78.49686M357.08175 362.3159V195.72583c19.57984-31.78309 21.30125-57.21943 21.30125-57.21943h-39.01509c-10.10354 49.51289-64.1534 99.87052-64.1534 99.87052s3.98191 7.49738 8.9372 28.29193a190.29845 190.29845 0 0 0 30.1098-23.17584V362.3159zm22.5378-170.5649v24.2538h82.51068v113.739c0 10.67481-8.63156 10.3208-8.63156 10.3208h-36.1271a221.02436 221.02436 0 0 0 8.51078 22.00925h47.37316c32.35436 0 32.3222-27.46338 32.3222-27.46338V216.00484h37.48664V191.751h-37.48664v-52.16737h-43.44748V191.751z" class="cls-2"/><path d="M401.95383 235.23289l-17.48848 14.56833c29.9571 21.11639 31.70281 56.80921 31.70281 56.80921l31.14751-20.15921s-11.95383-35.62826-45.36184-51.21833M92.604 199.31593l12.09057-20.45675C97.57526 137.60789 51.787 126.08835 51.787 126.08835L31.45079 159.6736s44.0266 7.8914 61.15322 39.64233M85.0158 258.8786l9.53252-17.99518c-14.56023-46.15822-57.50911-49.014-57.50911-49.014l-18.69508 33.63332S55.493 221.9151 85.0158 258.8786m25.97103 22.1774l-18.30107-15.35661S76.63735 311.3109 21.252 337.9698l35.86982 24.8972c49.50479-33.585 53.865-81.811 53.865-81.811m11.88141-140.06889s.00786 181.00571.00786 184.0545c0 35.46745 36.77888 34.40569 36.77888 34.40569h109.9257v-23.385h-92.29262c-11.13339 0-10.176-9.39578-10.176-9.39578V166.76935h102.46862v-25.78224zM269.579 468.267l-236.785-8.47 236.785-8.471v16.941zm153.287 59.178h-26.772v-59.246H340.66v59.246h-26.771V404.383h26.771v46.939h55.434v-46.939h26.772v123.062zm115.5703.00028H513.378v-11.78493q-13.6713 13.88856-32.46678 13.88464-22.98669 0-30.00547-16.3462-2.84762-6.67253-2.83963-23.73875V439.545h25.058v50.27711q0 11.439 3.03283 16.51485 4.57319 7.38469 15.38068 7.3847 14.23839 0 19.37068-10.89992c1.64112-3.38683 2.46966-8.72828 2.46966-15.9922V439.545h25.05833zm50.92792-114.96741a12.55871 12.55871 0 0 1-4.17487 9.40389 14.15921 14.15921 0 0 1-10.05542 3.95785 14.82051 14.82051 0 0 1-10.1681-3.78895 11.68041 11.68041 0 0 1-4.27159-9.04988 13.06982 13.06982 0 0 1 3.99-9.93464q3.98215-3.777 10.63454-3.773a14.06329 14.06329 0 0 1 10.06352 3.773 12.43878 12.43878 0 0 1 3.98191 9.41173M587.659 527.44749h-25.06611V439.547H587.659zm80.0128-125.177l-4.40047 11.43927a33.55622 33.55622 0 0 0-9.93464-1.59276q-9.74991 0-12.24351 7.74655-.94122 2.4617-.94932 9.30741v10.377h22.97477v11.946h-22.97477v75.95453h-24.68v-75.95455h-15.38065V439.548h15.38067v-8.44645q0-15.10744 7.602-22.854 9.66522-9.83424 25.6212-9.83816a49.26878 49.26878 0 0 1 18.98476 3.86112m96.356 125.17477h-25.05828v-11.78493q-13.6713 13.88856-32.46679 13.88464-22.98668 0-29.99737-16.3462-2.848-6.67253-2.84772-23.73875V439.545h25.058v50.27711q0 11.439 3.04069 16.51485 4.56139 7.38469 15.37281 7.3847 14.25054 0 19.37068-10.89992c1.64113-3.38683 2.46967-8.72828 2.46967-15.9922V439.545h25.05828zM808.334 468.267l236.801-8.47-236.801-8.471v16.941z" class="cls-2"/><g clip-path="url(#clip-path)"><path fill="url(#未命名的渐变_8)" d="M1433.306 46.513h129.421v101.006h-129.421z" transform="rotate(-21.853 1498.016 97.015)"/></g><g clip-path="url(#clip-path-2)"><path fill="url(#未命名的渐变_8-2)" d="M1249.79 227.594h128.577v124.883H1249.79z" transform="rotate(-21.853 1314.078 290.035)"/></g><g clip-path="url(#clip-path-3)"><path fill="url(#未命名的渐变_8-3)" d="M1121.764 283.585h150.706v129.052h-150.706z" transform="rotate(-21.853 1197.118 348.111)"/></g><g clip-path="url(#clip-path-4)"><path fill="url(#未命名的渐变_8-4)" d="M1319.733 11.207h147.148v125.225h-147.148z" transform="rotate(-21.853 1393.307 73.82)"/></g><g clip-path="url(#clip-path-5)"><path fill="url(#未命名的渐变_8-5)" d="M1166.362 184.866h149.076v130.409h-149.076z" transform="rotate(-21.853 1240.9 250.07)"/></g><g clip-path="url(#clip-path-6)"><path fill="url(#未命名的渐变_8-6)" d="M1246.634 93.733h151.919v134.67h-151.919z" transform="rotate(-21.853 1322.593 161.068)"/></g><g clip-path="url(#clip-path-7)"><path fill="url(#未命名的渐变_8-7)" d="M1529.069 115.823h130.791v131.372h-130.791z" transform="rotate(-21.853 1594.464 181.509)"/></g><g clip-path="url(#clip-path-8)"><path fill="url(#未命名的渐变_8-8)" d="M1360.731 137.008h154.951V283.31h-154.951z" transform="rotate(-22.492 1438.207 210.159)"/></g><g clip-path="url(#clip-path-9)"><path fill="url(#未命名的渐变_16)" d="M1465.584 389.048h129.934v102.27h-129.934z" transform="rotate(-21.853 1530.551 440.183)"/></g><g clip-path="url(#clip-path-10)"><path fill="url(#未命名的渐变_16-2)" d="M1650.734 189.4h127.502v122.203h-127.502z" transform="rotate(-21.853 1714.485 250.501)"/></g><g clip-path="url(#clip-path-11)"><path fill="url(#未命名的渐变_16-3)" d="M1756.095 129.06h150.71v129.048h-150.71z" transform="rotate(-21.853 1831.45 193.584)"/></g><g clip-path="url(#clip-path-12)"><path fill="url(#未命名的渐变_16-4)" d="M1561.684 405.564h147.145v125.218h-147.145z" transform="rotate(-21.853 1635.256 468.173)"/></g><g clip-path="url(#clip-path-13)"><path fill="url(#未命名的渐变_16-5)" d="M1713.133 225.781h149.072v130.414h-149.072z" transform="rotate(-21.853 1787.668 290.988)"/></g><g clip-path="url(#clip-path-14)"><path fill="url(#未命名的渐变_16-6)" d="M1630.01 313.89h151.929v134.68H1630.01z" transform="rotate(-21.853 1705.975 381.23)"/></g><g clip-path="url(#clip-path-15)"><path fill="url(#未命名的渐变_16-7)" d="M1368.713 296.024h130.791v131.372h-130.791z" transform="rotate(-21.853 1434.108 361.71)"/></g><g clip-path="url(#clip-path-16)"><path fill="url(#未命名的渐变_16-8)" d="M1512.884 259.563h154.947v146.294h-154.947z" transform="rotate(-22.492 1590.358 332.71)"/></g></svg>