<svg xmlns="http://www.w3.org/2000/svg" role="img" viewBox="108.06 178.06 620.88 161.38"><title>Huoxian Security (member) logo</title><defs><linearGradient id="b" x1="0" x2="1" y1="0" y2="0" gradientTransform="rotate(-90.496 186.78 53.654) scale(97.12363)" gradientUnits="userSpaceOnUse" spreadMethod="pad"><stop offset="0" stop-color="#e74a49" stop-opacity="1"/><stop offset="1" stop-color="#d73533" stop-opacity="1"/></linearGradient><linearGradient id="c" x1="0" x2="1" y1="0" y2="0" gradientTransform="rotate(67.19 -65.026 184.936) scale(70.54)" gradientUnits="userSpaceOnUse" spreadMethod="pad"><stop offset="0" stop-color="#e74a49" stop-opacity="1"/><stop offset="1" stop-color="#d73533" stop-opacity="1"/></linearGradient><linearGradient id="e" x1="0" x2="1" y1="0" y2="0" gradientTransform="rotate(80.23 -47.668 199.935) scale(7.95538)" gradientUnits="userSpaceOnUse" spreadMethod="pad"><stop offset="0" stop-color="#e74a49" stop-opacity="1"/><stop offset="1" stop-color="#d73533" stop-opacity="1"/></linearGradient><linearGradient id="f" x1="0" x2="1" y1="0" y2="0" gradientTransform="rotate(-132.673 116.932 89.782) scale(64.78198)" gradientUnits="userSpaceOnUse" spreadMethod="pad"><stop offset="0" stop-color="#e74a49" stop-opacity="1"/><stop offset="1" stop-color="#d73533" stop-opacity="1"/></linearGradient><linearGradient id="g" x1="0" x2="1" y1="0" y2="0" gradientTransform="rotate(57.3 -128.29 176.783) scale(71.63)" gradientUnits="userSpaceOnUse" spreadMethod="pad"><stop offset="0" stop-color="#e74a49" stop-opacity="1"/><stop offset="1" stop-color="#d73533" stop-opacity="1"/></linearGradient><clipPath id="a" clipPathUnits="userSpaceOnUse"><path d="M0 388.464h638.51V0H0z"/></clipPath><clipPath id="d" clipPathUnits="userSpaceOnUse"><path d="M0 388.464h638.51V0H0z"/></clipPath></defs><g transform="matrix(1.33333 0 0 -1.33333 0 517.952)"><g clip-path="url(#a)"><path fill="#d73533" fill-opacity="1" fill-rule="nonzero" stroke="none" d="M221.757 159.678h-18.234v69.775h18.234v-21.099h21.249c1.306 0 2.411-.465 3.315-1.393.904-.931 1.356-2.048 1.356-3.354v-43.929h-17.481v41.518c0 1.055-.527 1.583-1.583 1.583h-6.856z"/><path fill="#d73533" fill-opacity="1" fill-rule="nonzero" stroke="none" d="M254.61 206.773h17.857v-41.669h7.159v41.669h17.858v-41.669h5.651v-5.425h-5.651l-7.987 2.411-7.988-2.411H254.61z"/><path fill="#d73533" fill-opacity="1" fill-rule="nonzero" stroke="none" d="M328.225 201.573v-36.395h7.836v34.813c0 1.055-.527 1.582-1.582 1.582zm25.317-41.895h-43.476v47.471h38.805c1.305 0 2.411-.465 3.315-1.394.904-.93 1.356-2.047 1.356-3.353z"/><path fill="#d73533" fill-opacity="1" fill-rule="nonzero" stroke="none" d="M392.723 183.715l14.316-24.037h-17.857l-5.426 9.042-5.425-9.042h-17.857l14.392 24.037-14.392 23.962h17.857l5.425-9.042 5.426 9.042h17.857z"/><path fill="#d73533" fill-opacity="1" fill-rule="nonzero" stroke="none" d="M414.048 207.526h17.405v-47.848h-17.405zm-.076 5.576v16.577h12.885c1.306 0 2.411-.465 3.316-1.394.903-.93 1.355-2.048 1.355-3.353v-11.83z"/><path fill="#d73533" fill-opacity="1" fill-rule="nonzero" stroke="none" d="M455.941 201.95v-36.696h7.912v35.113c0 1.056-.527 1.583-1.582 1.583zm31.045-42.272h-5.651l-7.988 3.165-7.987-3.165h-26.899v47.848h38.202c1.305 0 2.411-.466 3.315-1.394.904-.93 1.357-2.047 1.357-3.353v-37.525h5.651z"/><path fill="#d73533" fill-opacity="1" fill-rule="nonzero" stroke="none" d="M520.365 159.678v39.257c0 1.056-.527 1.583-1.582 1.583h-6.631v-40.84h-18.234v50.033h18.234v-3.466h21.023c1.305 0 2.411-.465 3.315-1.395.904-.929 1.356-2.047 1.356-3.352v-41.82z"/></g><path fill="url(#b)" stroke="none" d="M113.256 213.822c-12.32-9.111-17.27-20.97-17.27-32.81.001-21.119 17.121-38.239 38.239-38.239 21.119-.001 38.24 17.119 38.24 38.239.021 11.349-2.519 17.479-9.229 24.18 1.611-21.381-19.19-35.57-25.74-27.381-8.75 10.88 13.789 15.741 12.68 39.441-.78 16.689-18.11 28.44-18.11 28.44s2.16-16.38-18.81-31.87"/><path fill="url(#c)" stroke="none" d="M136.687 207.362c-7.432-11.581-22.161-28.001-1-39.901 18.389-10.28 36.717 18.824 27.765 37.514-.039.039-.078.078-.116.117-.019-.173-.039-.345-.06-.517 1.171-21.035-19.293-34.874-25.78-26.764-8.75 10.88 13.789 15.741 12.68 39.441-.735 15.744-16.2 27.093-17.949 28.328 1.291-1.619 15.82-20.527 4.46-38.218"/><g clip-path="url(#d)"><path fill="#dc3c3a" fill-opacity="1" fill-rule="nonzero" stroke="none" d="M159.156 220.912c2.198 0 3.98-1.782 3.98-3.98s-1.782-3.98-3.98-3.98-3.98 1.782-3.98 3.98 1.782 3.98 3.98 3.98"/></g><path fill="url(#e)" stroke="none" d="M155.159 216.949c.001-2.207 1.79-3.996 3.997-3.997.472.003.94.092 1.38.26-1.555.58-2.589 2.061-2.6 3.72-.006 1.673 1.032 3.174 2.6 3.76-.44.168-.908.256-1.38.26-2.209-.002-3.999-1.794-3.997-4.003"/><path fill="url(#f)" stroke="none" d="M114.706 228.692c-7.42-5.361-15.791-8.43-21.8-19.89-5.84-11.111-1.08-24.47.16-26.96 1.42 6.119 4.201 17.51 7 22.07 6 9.84 16.75 12.699 24 23.78 6.08 9.28 4.6 17.93 4.6 17.93-3.282-6.648-8.061-12.442-13.96-16.93"/><path fill="url(#g)" stroke="none" d="M122.746 229.211c-5.95-7.899-10.93-9.29-19.35-16.519-7.41-6.3-12.2-21.141-10.33-30.88 1.42 6.13 4.201 17.52 7 22.07 6 9.809 16.741 12.71 24 23.81 6.07 9.249 4.59 17.9 4.59 17.9s-1.39-10.361-5.91-16.381"/></g></svg>