<svg xmlns="http://www.w3.org/2000/svg" role="img" viewBox="-7.16 -7.16 372.32 116.07"><title>iCubed (KCSP) logo</title><g fill-opacity="1" fill-rule="nonzero" stroke="none" transform="matrix(1.33333 0 0 -1.33333 0 101.907) scale(.1)"><path fill="#4a9cda" d="M1319.74 515.969v-99.906h-46.41c-2.36 19.109-10.14 33.757-23.34 43.953-13.19 10.183-28.52 15.281-45.99 15.281-23.3 0-42.22-8.238-56.77-24.699-14.56-16.473-21.84-38.082-21.84-64.832 0-24.938 6.91-46.911 20.74-65.914 13.83-19.024 33.85-28.536 60.06-28.536 36.39 0 62.77 17.286 79.15 51.875l42.86-20.214c-23.66-52.579-65.06-78.875-124.2-78.875-41.86 0-74.79 14.289-98.81 42.851-24.02 28.567-36.03 61.516-36.03 98.813 0 39.847 13.1 72.746 39.31 98.675 26.2 25.934 56.4 38.899 90.62 38.899 29.29 0 54.04-8.649 74.24-25.934v18.563h46.41"/><path fill="#4a9cda" d="M1650.02 297.871V251.75h-97.45v30.293c-30.39-23.109-59.5-34.668-87.35-34.668-17.65 0-32.26 3.863-43.81 11.602-11.55 7.734-19.24 17.742-23.06 30.015-3.82 12.285-5.73 32.082-5.73 59.375v129.348h-37.4v46.133h89.26V354.922c0-19.484.54-32.578 1.64-39.309 1.09-6.734 4.26-12.285 9.55-16.648 5.27-4.363 11.91-6.555 19.93-6.555 24.02 0 49.68 11.469 76.97 34.399v150.906h-46.68v46.133h98.54V297.871h45.59"/><path fill="#4a9cda" d="M1769.57 383.309c0-27.481 8.42-49.266 25.26-65.371 16.82-16.114 36.25-24.161 58.27-24.161 23.11 0 43.04 8.559 59.78 25.664 16.74 17.09 25.11 40.024 25.11 68.782 0 27.84-8.33 49.449-24.97 64.828-16.66 15.371-36.17 23.066-58.55 23.066-22.02 0-41.67-7.965-58.97-23.887-17.28-15.921-25.93-38.894-25.93-68.921zm-99.35-131.559v46.121h46.95v287.434h-46.95v46.125h97.72V478.574c26.02 29.844 57.95 44.766 95.81 44.766 36.39 0 66.92-12.516 91.58-37.531 24.65-25.028 36.98-58.004 36.98-98.95 0-39.308-12.05-72.386-36.16-99.222-24.11-26.844-55-40.262-92.68-40.262-21.1 0-40.39 4.551-57.86 13.648-17.47 9.106-30.03 19.204-37.67 30.293V251.75h-97.72"/><path fill="#4a9cda" d="M2262.82 408.422c-3.65 18.558-13.28 35.348-28.94 50.363-15.64 15.016-34.84 22.52-57.59 22.52-20.75 0-38.48-6.785-53.23-20.336-14.74-13.563-23.74-31.074-27.02-52.547zm53.5-37.668h-222.2c3.29-24.399 12.92-44.121 28.94-59.231 16.02-15.105 36.48-22.656 61.43-22.656 36.2 0 64.86 14.551 85.97 43.672l45.86-20.203c-14.93-23.109-34.3-40.258-58.14-51.445-23.84-11.196-48.77-16.789-74.79-16.789-40.4 0-74.93 12.586-103.59 37.8-28.66 25.2-42.99 59.192-42.99 101.953 0 40.579 13.97 73.977 41.9 100.176 27.93 26.203 60 39.309 96.22 39.309 35.48 0 67.64-12.789 96.49-38.356 28.84-25.566 43.81-63.644 44.9-114.23"/><path fill="#4a9cda" d="M2417.04 384.125c0-29.113 8.23-51.496 24.7-67.145 16.47-15.652 36.16-23.472 59.09-23.472 22.2 0 41.91 8.23 59.11 24.707 17.19 16.465 25.79 39.258 25.79 68.371 0 29.293-8.78 51.406-26.34 66.324-17.57 14.922-37.26 22.387-59.1 22.387-23.47 0-43.23-8.781-59.23-26.344-16.02-17.562-24.02-39.164-24.02-64.828zm268.05-86.254V251.75h-99.36v38.75c-25.84-28.75-57.33-43.125-94.45-43.125-34.39 0-64.6 11.734-90.62 35.215-26.03 23.473-39.04 56.863-39.04 100.176 0 43.496 13.38 77.793 40.13 102.902 26.76 25.113 56.96 37.672 90.63 37.672 35.66 0 66.77-14.195 93.35-42.582v104.547h-50.77v46.125h102.63V297.871h47.5"/><path fill="#4a9cda" d="M838.363 702.41c0 16.637 5.875 31.121 17.637 43.422 11.754 12.297 26.68 18.453 44.777 18.453 17.004 0 31.661-5.969 43.965-17.906 12.301-11.945 18.449-26.598 18.449-43.969 0-17.367-6.148-32.113-18.449-44.23-12.304-12.129-26.961-18.184-43.965-18.184-17.371 0-32.117 6.149-44.234 18.457-12.125 12.289-18.18 26.945-18.18 43.957zm14.805-610.9569V432.387h-81.176v91.461h183.992V91.4531h81.176V0H771.992v91.4531h81.176"/><path fill="#4a9cda" d="M654.809 445.27c0-43.395-35.18-78.582-78.579-78.582H78.5742C35.1797 366.688 0 401.875 0 445.27c0 43.398 35.1797 78.578 78.5742 78.578H576.23c43.399 0 78.579-35.18 78.579-78.578"/><path fill="#3564b1" d="M654.809 261.926c0-43.403-35.18-78.574-78.579-78.574H78.5742C35.1797 183.352 0 218.523 0 261.926 0 305.32 35.1797 340.5 78.5742 340.5H576.23c43.399 0 78.579-35.18 78.579-78.574"/><path fill="#284a76" d="M654.809 78.5742C654.809 35.1758 619.629 0 576.23 0H78.5742C35.1797 0 0 35.1758 0 78.5742c0 43.3988 35.1797 78.5818 78.5742 78.5818H576.23c43.399 0 78.579-35.183 78.579-78.5818"/></g></svg>