<svg xmlns="http://www.w3.org/2000/svg" role="img" xmlns:xlink="http://www.w3.org/1999/xlink" viewBox="-7.05 -6.80 353.86 99.61"><title>iSSCloud logo</title><defs><linearGradient id="d" x1="939.07" x2="958.04" y1="392.69" y2="372.85" gradientTransform="translate(-904.31 -373.23)" gradientUnits="userSpaceOnUse"><stop offset="0" stop-color="#ef9589"/><stop offset=".5" stop-color="#df232b"/><stop offset="1" stop-color="#b12028"/></linearGradient><linearGradient id="e" x1="946.63" x2="977.13" y1="384.38" y2="384.38" gradientTransform="translate(-904.31 -373.23)" gradientUnits="userSpaceOnUse"><stop offset="0" stop-color="#75100d"/><stop offset=".53" stop-color="#c51b27"/><stop offset="1" stop-color="#e65253"/></linearGradient><linearGradient id="b" x1="978.97" x2="964.62" y1="436.91" y2="455.96" gradientTransform="translate(-904.31 -373.23)" gradientUnits="userSpaceOnUse"><stop offset="0" stop-color="#8d2026"/><stop offset="1" stop-color="#d62027"/></linearGradient><linearGradient id="a" x1="959.52" x2="1017.23" y1="373.69" y2="423.1" gradientTransform="translate(-904.31 -373.23)" gradientUnits="userSpaceOnUse"><stop offset="0" stop-color="#75100d"/><stop offset=".53" stop-color="#c21929"/><stop offset="1" stop-color="#eb8885"/></linearGradient><linearGradient id="f" x1="1043" x2="978.18" y1="394.33" y2="424.28" xlink:href="#a"/><linearGradient id="g" x1="943.29" x2="973.42" y1="443.83" y2="443.83" gradientTransform="translate(-904.31 -373.23)" gradientUnits="userSpaceOnUse"><stop offset="0" stop-color="#75100d"/><stop offset="1" stop-color="#e65253"/></linearGradient><linearGradient id="h" x1="922.14" x2="929.9" y1="404.41" y2="429.82" xlink:href="#b"/><linearGradient id="c" x1="905.7" x2="1008.27" y1="393.52" y2="431.64" gradientTransform="translate(-904.31 -373.23)" gradientUnits="userSpaceOnUse"><stop offset="0" stop-color="#ee9091"/><stop offset=".47" stop-color="#c31b26"/><stop offset="1" stop-color="#621d21"/></linearGradient><linearGradient id="i" x1="895.29" x2="957.54" y1="426.18" y2="408.02" xlink:href="#c"/><linearGradient id="j" x1="131.12" x2="144" y1="23.65" y2="23.65" gradientUnits="userSpaceOnUse"><stop offset="0" stop-color="#d51222"/><stop offset="1" stop-color="#e8605d"/></linearGradient><linearGradient id="k" x1="131.12" x2="144" y1="27.09" y2="27.09" gradientUnits="userSpaceOnUse"><stop offset="0" stop-color="#df3539"/><stop offset="1" stop-color="#bf1a24"/></linearGradient></defs><g data-name="图层 2"><g data-name="图层 1"><path fill="url(#d)" d="M56.55 0c-18.5 1.4-21.63 15-21.63 15l7.5 3.7a16.2 16.2 0 0 1-.1-2.2A16.49 16.49 0 0 1 56.55 0z"/><path fill="url(#e)" d="M57 10.4c10.7.9 12.7 6.9 15.8 11.9v-.9C72.8 11.9 66.4 0 58.2 0h-1.6a16.47 16.47 0 0 0-14.3 16.6c0 .7.1 1.5.1 2.2l.2.1A14 14 0 0 1 57 10.4z"/><path fill="url(#b)" d="M56 82.1c15.4.3 20.3-14.5 20.3-14.5l-7.2-4.3c-.29 10.2-4.89 18.6-13.1 18.8z"/><path fill="url(#a)" d="M103.64 46.1c11.1-8.4 3.3-21.5 2.8-22.5C101 17 92.24 11.9 81 10.9 75.34 2.8 62 0 58.14 0c8.2 0 14.6 12 14.6 21.4v.9c8.9.4 14.7 0 20.2 4.9 3.8 3.4 6.5 15.9-2.3 20.2-1.3.6-3.7.47-5.6 0 6.1 2.27 13.5 2.5 18.6-1.3z"/><path fill="url(#f)" d="M106.44 23.6c.6 1.1 8 14.18-2.62 22.3-5 3.8-11.7 3.6-18.3 1.6a36.13 36.13 0 0 1-8.9-3.6 114.84 114.84 0 0 1-13.5-8.1s27.1 30.2 42.7 20.6a14.17 14.17 0 0 0 3.6-3.3c12.1-15-2.98-29.5-2.98-29.5z"/><path fill="url(#g)" d="M53.87 71c-10-.82-14.18-10.34-14.79-11.86 0 .51-.1 1.11-.1 1.62C39 71.05 46.25 81.09 54.58 82c.51 0 1.43.1 1.43.1 8.43-.1 12.89-8.47 13.1-18.8A15.82 15.82 0 0 1 53.87 71z"/><path fill="url(#h)" d="M10.48 34.8C.38 40.3 4.68 57.2 4.78 58a33.69 33.69 0 0 0 5.5 5.8c7.2 5.9 19.5 7.1 21.3 6.8a33.59 33.59 0 0 0 23 11.4c-8.1-.9-15.5-10.9-15.5-21.1v-1.8s-22.5 1.9-22.7-12c-.1-9.4 5.6-12.5 8.6-13.2-3.3-1.6-10.4-1.3-14.5.9z"/><path fill="url(#c)" d="M63.12 35.8s-.6-.6-1.7-1.6a104.45 104.45 0 0 0-18.7-13.7 36.5 36.5 0 0 0-6.4-2.8c-17.1-5.9-30.5 5.4-33.6 13.2a26.38 26.38 0 0 0-1 2.79 16.28 16.28 0 0 1 1.47-2.5c2.1-3 11-8 20.69-4.69 6.5 2.2 16.3 10.9 24.6 18.8-.6.3 5.8 7.1 10.3 9.8a106.54 106.54 0 0 0 10.5 5.7c6.1 2.9 12.1 5 16.2 4.6 6.8-.5 14.7-3 20.4-9.1C90.22 66 63.12 35.8 63.12 35.8z"/><path fill="url(#i)" d="M58.72 55S35 28.6 23 25.2 4.5 29 2.5 32.2-2.92 46.7 4.78 58c-2.14-15.51 1-20.57 5.64-23.1 15.2-7.9 34.5 10.5 48.3 20.1z"/><path d="M299.8 77.29a1.37 1.37 0 0 1 1.4-1.4h37.62a1.37 1.37 0 0 1 1.4 1.4 1.37 1.37 0 0 1-1.4 1.4H301.2a1.43 1.43 0 0 1-1.4-1.4zm-168.68 0a1.37 1.37 0 0 1 1.4-1.4h37.62a1.37 1.37 0 0 1 1.4 1.4 1.37 1.37 0 0 1-1.4 1.4h-37.62a1.43 1.43 0 0 1-1.4-1.4zm3.6-42.49a3.59 3.59 0 0 1 3.6 3.6v18.1a3.59 3.59 0 0 1-3.6 3.6 3.59 3.59 0 0 1-3.6-3.6V38.4a3.59 3.59 0 0 1 3.6-3.6zm114.6-10.9a2.9 2.9 0 0 1 2.9 2.9v30.3a2.9 2.9 0 0 1-2.9 2.9 2.9 2.9 0 0 1-2.9-2.9V26.8a2.9 2.9 0 0 1 2.9-2.9zm87.68 0h.1a2.9 2.9 0 0 1 2.9 2.9v20a2.9 2.9 0 0 1-2.9 2.9h-.1a2.9 2.9 0 0 1-2.9-2.9v-20a2.9 2.9 0 0 1 2.9-2.9zm-32.08 13.2v9.8a6.91 6.91 0 0 1-6.9 6.9 6.91 6.91 0 0 1-6.9-6.9v-9.8a2.9 2.9 0 0 0-2.9-2.9 2.9 2.9 0 0 0-2.9 2.9v10.1A12.72 12.72 0 0 0 298 59.9a12.72 12.72 0 0 0 12.7-12.7V37.1a2.9 2.9 0 0 0-2.9-2.9 2.9 2.9 0 0 0-2.88 2.9zm-127.2-9.8a3.22 3.22 0 0 0-3.2-3.2h-15.8A10.69 10.69 0 0 0 148 34.7a10.61 10.61 0 0 0 10.6 10.6h8.8a4.23 4.23 0 0 1 4.2 4.2 4.23 4.23 0 0 1-4.2 4.2h-16.1a3.16 3.16 0 0 0-3.2 3.2 3.16 3.16 0 0 0 3.2 3.2h15.8a10.69 10.69 0 0 0 10.7-10.6 10.63 10.63 0 0 0-10.7-10.6h-8.9a4.23 4.23 0 0 1-4.2-4.2 4.23 4.23 0 0 1 4.2-4.2h16.3a3.16 3.16 0 0 0 3.2-3.2zm31.5 0a3.22 3.22 0 0 0-3.2-3.2h-15.8a10.69 10.69 0 0 0-10.7 10.6 10.61 10.61 0 0 0 10.6 10.6h8.8a4.23 4.23 0 0 1 4.2 4.2 4.23 4.23 0 0 1-4.2 4.2h-16.2a3.16 3.16 0 0 0-3.2 3.2 3.16 3.16 0 0 0 3.2 3.2h15.8a10.69 10.69 0 0 0 10.7-10.6 10.63 10.63 0 0 0-10.7-10.6h-8.9a4.23 4.23 0 0 1-4.2-4.2 4.23 4.23 0 0 1 4.2-4.2H206a3.16 3.16 0 0 0 3.22-3.2zm20.1 32.5a17.8 17.8 0 1 1 12.48-30.46 3 3 0 0 1-4.16 4.32 12 12 0 0 0-8.32-3.46 11.8 11.8 0 1 0 8.12 20.34 3 3 0 0 1 4.16 4.32 17.86 17.86 0 0 1-12.28 4.94zm39.5-19.6A6.8 6.8 0 1 1 262 47a6.94 6.94 0 0 1 6.8-6.8m0-6A12.76 12.76 0 0 0 256 47a12.76 12.76 0 0 0 12.8 12.8A12.76 12.76 0 0 0 281.62 47a12.82 12.82 0 0 0-12.8-12.8z"/><path d="M327.22 40.2a6.8 6.8 0 1 1-6.8 6.8 6.87 6.87 0 0 1 6.8-6.8m0-6a12.76 12.76 0 0 0-12.8 12.8 12.76 12.76 0 0 0 12.8 12.8A12.76 12.76 0 0 0 340 47a12.82 12.82 0 0 0-12.8-12.8z"/><path fill="url(#j)" d="M131.12 30.65v-4.26a9.74 9.74 0 0 1 9.73-9.74H144v9.59h-3.74a11.05 11.05 0 0 0-7.34 2.8z"/><path fill="url(#k)" d="M131.12 30.53c0-2.82 4.37-6.88 8.17-6.88H144v2.47h-3.58a11.37 11.37 0 0 0-7.61 2.88z"/><path d="M195 77.44c-2.65 5.61-9.17 7.83-15.89 8.63a4.85 4.85 0 0 0-.57-1.37 28.59 28.59 0 0 0 9.11-2.22 26.69 26.69 0 0 0-2.24-1.91l1.17-.67c.76.56 1.68 1.3 2.37 1.93a11.12 11.12 0 0 0 3.93-3.61h-5.16a22.15 22.15 0 0 1-5.94 3.38 4 4 0 0 0-.89-1 17.35 17.35 0 0 0 8-5.38l1.57.34a14.83 14.83 0 0 1-1.26 1.41h4.6l.29-.07zm-2.82-6.69c-2.41 4.22-8 6.78-12.92 7.82a4.23 4.23 0 0 0-.67-1.28 25.52 25.52 0 0 0 6.4-2.05 14 14 0 0 0-2.23-1.62l1-.73a15.53 15.53 0 0 1 2.44 1.72 13.44 13.44 0 0 0 3.8-3.09h-5.39a20.12 20.12 0 0 1-4.43 2.73 4.56 4.56 0 0 0-1-1 16.74 16.74 0 0 0 6.54-4.7l1.54.33a15.28 15.28 0 0 1-1.24 1.36h5l.25-.06zm13.37 6.15a41.2 41.2 0 0 1-4.33 6.56l9.57-.73c-.76-1.2-1.62-2.43-2.39-3.48l1.26-.67a57.61 57.61 0 0 1 4.45 6.69l-1.31.8c-.31-.57-.69-1.28-1.17-2-10.45.92-11.56 1-12.32 1.3a16.42 16.42 0 0 0-.54-1.57c.42-.11.86-.63 1.45-1.41a33.16 33.16 0 0 0 3.37-5.45h-5.91v-1.47h16.87v1.43zm7-5.35h-12.78v-1.43h12.82zm7.15-.34a10.07 10.07 0 0 1-1.55 2.29 13.47 13.47 0 0 0-1.21-.65 10.39 10.39 0 0 0 2.34-4.31l1.37.23a11.73 11.73 0 0 1-.48 1.37h5.1v1.07h-2.9a9.58 9.58 0 0 1 .84 1.66l-1.2.44a11.49 11.49 0 0 0-1-2.1zm6 1.24a9.4 9.4 0 0 1 .77 1.47h6.95V77H232v-2h-12.59v2H218v-3.08h7c-.18-.4-.37-.84-.58-1.2zm-4.18 8.89h10.58V86h-1.39v-.61h-9.19V86h-1.42v-9.78h11V80h-9.59zm0-4v1.63h8.19V77.3zm0 5.14v1.84h9.19v-1.88zM233.9 70.2v1h-3.4a10.1 10.1 0 0 1 1.05 1.62l-1.15.54a11.3 11.3 0 0 0-1.35-2.16h-1.34a8.88 8.88 0 0 1-1.13 1.64 6.78 6.78 0 0 0-1.16-.67 8.19 8.19 0 0 0 1.85-3.63l1.37.23c-.13.48-.28.92-.45 1.38zm8.63 11.88c-2.05.69-4.22 1.43-5.92 2l-.33-1.44c.71-.21 1.59-.47 2.56-.8v-5.15h-2.18v-1.33h2.18v-4.15h-2.37v-1.34h5.92v1.34h-2.19v4.15h1.93v1.33h-1.93v4.72l2.08-.69zm11.4 2v1.32h-12.3v-1.29h5.81v-2.62h-4.34v-1.3h4.34V78h-4.11v-8.5H253V78h-4.17v2.24h4.45v1.3h-4.45v2.62zm-9.3-11h2.9v-2.39h-2.9zm0 3.61h2.9v-2.42h-2.9zm7.05-6h-2.92v2.41h2.92zm0 3.58h-2.92v2.44h2.92zm10.26 6.49a20.5 20.5 0 0 1-4.26 4.13 6.52 6.52 0 0 0-1.24-.94 14.79 14.79 0 0 0 4.09-3.68zm3.54-1.76v5.1c0 .81-.18 1.19-.81 1.42a9 9 0 0 1-3 .25 4.29 4.29 0 0 0-.53-1.4h2.48c.3 0 .38-.1.38-.33v-5c-5.21.38-6 .49-6.49.7a8.76 8.76 0 0 0-.44-1.31 9.27 9.27 0 0 0 2.65-1c.65-.3 2.05-1.07 3.69-2.06-3.88.23-4.49.31-4.85.46-.08-.27-.27-.92-.42-1.28a3 3 0 0 0 1.39-.76 21.32 21.32 0 0 0 3.14-2.74c-1.78.16-3.56.27-5.22.35a4.67 4.67 0 0 0-.36-1.24 85.56 85.56 0 0 0 13.18-1.51l1 1.16a51.23 51.23 0 0 1-6.65 1 29.6 29.6 0 0 1-4 3.52l4.62-.23a35.52 35.52 0 0 0 3-2.24l1.09.92a49.44 49.44 0 0 1-8.56 5.25l8.35-.53c-.5-.55-1-1.07-1.53-1.55l1.07-.55a26.1 26.1 0 0 1 3.9 4.2l-1.13.69a21 21 0 0 0-1.33-1.72zm2.8 1.13a39.33 39.33 0 0 1 4.55 3.9l-1.2.86a37.94 37.94 0 0 0-4.47-4zm13.29-1.79a5.57 5.57 0 0 0 0 1.24c-4.71 1-5.34 1.22-5.75 1.47a14.31 14.31 0 0 0-.45-1.36c.38-.09.84-.55 1.43-1.26a24.42 24.42 0 0 0 1.89-2.5 11.79 11.79 0 0 0-3 .57 12.83 12.83 0 0 0-.5-1.47c.35-.08.71-.51 1.11-1.15a27.7 27.7 0 0 0 2.7-5.36l1.45.67a36.21 36.21 0 0 1-3.21 5.69l2.31-.25c.44-.67.84-1.39 1.2-2.08l1.26.74A36.82 36.82 0 0 1 278 79zm.21 4.62c-2.12.69-4.36 1.39-6.06 2l-.32-1.42c1.52-.4 3.85-1.08 6.15-1.77zm3.89-5.1c-.15 4.28-.74 6.7-4.2 8.1a3.15 3.15 0 0 0-.86-1.13c3.1-1.16 3.53-3.21 3.67-7zm5.72.48c-.2-.4-.46-.88-.77-1.4-6.9.65-7.7.75-8.21 1a10.64 10.64 0 0 0-.48-1.38 2.53 2.53 0 0 0 1.18-.59 33.18 33.18 0 0 0 2.64-3.33h-3.44v-1.3h4.61a20.68 20.68 0 0 0-1-2.44l1.3-.36a22.25 22.25 0 0 1 1.11 2.46l-1.2.38h5.42v1.28h-5.14c-.8 1.13-1.89 2.6-2.73 3.63l5.23-.44c-.4-.61-.84-1.24-1.26-1.79l1.11-.56a36.48 36.48 0 0 1 2.81 4.19zm-.39 6.07c.4 0 .48-.36.54-2.64a3.35 3.35 0 0 0 1.22.58c-.11 2.6-.44 3.28-1.6 3.28h-1.67c-1.33 0-1.66-.42-1.66-1.79v-6h1.4v6c0 .49 0 .57.47.57z"/></g></g></svg>