<svg xmlns="http://www.w3.org/2000/svg" role="img" viewBox="6.77 6.77 167.70 26.07"><title>IBM Cloud Functions logo</title><g fill="none" fill-rule="evenodd"><path fill="#50E3C2" d="M25.8 12.532c-.314.07-.709.325-.92.853-.244.604-.368 1.513-.434 2.45l.518.103c.298.057 1.782.438 1.79 2.33.007 1.893-1.473 2.287-1.756 2.344l-.654.136c-.135 3.812-1.293 6.69-3.452 8.567-.088.077-.178.147-.267.218a9.781 9.781 0 0 0 6.209-2.836c3.848-3.848 3.848-10.088 0-13.937-.057-.057-.453-.357-1.033-.228zm-10.437 8.295l-.616-.126c-.298-.058-1.78-.446-1.78-2.338 0-1.893 1.483-2.28 1.766-2.336l1.002-.204c.51-2.379 1.547-4.26 3.094-5.605.088-.077.178-.147.267-.218a9.788 9.788 0 0 0-6.21 2.836 9.855 9.855 0 0 0-.264 13.662c.496.47 2 .235 2.35-.737.317-1.14.379-3.013.39-4.934z"/><path fill="#236B5B" d="M14.08 29.659c.038.006.345.05.819.05 1.083 0 3.043-.232 4.713-1.683 1.92-1.67 2.868-4.43 2.818-8.2v-.478l2.134-.445c.253-.051.265-.252.264-.502 0-.25-.016-.448-.269-.497l-2.106-.418c.095-3.99.593-6.351 3.023-6.383.275-.004.31-.219.33-.492.019-.275.015-.518-.256-.56a5.624 5.624 0 0 0-.82-.051c-1.082 0-3.043.233-4.713 1.683-1.478 1.285-2.373 3.225-2.688 5.77l-2.262.46c-.253.05-.267.25-.267.5s.014.449.267.499l2.143.436c-.002.18-.013.352-.01.537v.206c-.005 5.274-.211 8.478-3.048 8.517-.275.003-.38.218-.4.49-.019.276.055.519.327.56"/><path fill="#171717" fill-rule="nonzero" d="M38.84 25v-.98h1.372v-7.812H38.84v-.98h3.92v.98h-1.372v7.812h1.372V25h-3.92zm6.062-9.772h4.018c.812 0 1.449.229 1.911.686.462.457.693 1.069.693 1.834 0 .364-.051.672-.154.924-.103.252-.233.46-.392.623a1.59 1.59 0 0 1-.518.364c-.187.08-.36.133-.518.161v.084a1.997 1.997 0 0 1 1.218.539c.196.182.362.415.497.7s.203.628.203 1.029c0 .401-.063.775-.189 1.12a2.752 2.752 0 0 1-.525.896 2.45 2.45 0 0 1-.798.595A2.341 2.341 0 0 1 49.34 25h-4.438v-9.772zm1.176 8.736h2.898c.504 0 .9-.128 1.19-.385.29-.257.434-.632.434-1.127v-.476c0-.495-.145-.87-.434-1.127-.29-.257-.686-.385-1.19-.385h-2.898v3.5zm0-4.508h2.702c.467 0 .83-.117 1.092-.35.261-.233.392-.57.392-1.008v-.476c0-.439-.13-.775-.392-1.008-.261-.233-.625-.35-1.092-.35h-2.702v3.192zm15.568-2.688h-.07l-.826 1.638-2.338 4.256-2.324-4.256-.826-1.624h-.07V25h-1.148v-9.772h1.54l2.8 5.264h.056l2.814-5.264h1.54V25h-1.148v-8.232zm10.696 8.4c-.644 0-1.225-.105-1.743-.315a3.492 3.492 0 0 1-1.33-.945c-.369-.42-.651-.94-.847-1.561-.196-.62-.294-1.342-.294-2.163 0-.821.098-1.552.294-2.191.196-.64.478-1.176.847-1.61a3.597 3.597 0 0 1 1.33-.987c.518-.224 1.099-.336 1.743-.336.877 0 1.605.187 2.184.56.579.373 1.04.938 1.386 1.694l-1.582.84a2.224 2.224 0 0 0-.686-1.057c-.317-.266-.751-.399-1.302-.399-.69 0-1.239.233-1.645.7-.406.467-.609 1.12-.609 1.96v1.54c0 .85.203 1.5.609 1.953.406.453.954.679 1.645.679.55 0 1.001-.15 1.351-.448.35-.299.604-.667.763-1.106l1.498.882c-.355.728-.826 1.295-1.414 1.701-.588.406-1.32.609-2.198.609zM79.216 25c-.616 0-1.069-.154-1.358-.462-.29-.308-.434-.742-.434-1.302V14.64h1.792v8.932h.966V25h-.966zm5.222.168c-.523 0-.992-.089-1.407-.266a2.917 2.917 0 0 1-1.064-.77 3.52 3.52 0 0 1-.679-1.211 4.964 4.964 0 0 1-.238-1.589 4.9 4.9 0 0 1 .238-1.582c.159-.467.385-.866.679-1.197a2.954 2.954 0 0 1 1.064-.763 3.551 3.551 0 0 1 1.407-.266c.523 0 .994.089 1.414.266.42.177.777.432 1.071.763.294.331.52.73.679 1.197a4.9 4.9 0 0 1 .238 1.582 4.98 4.98 0 0 1-.238 1.589 3.52 3.52 0 0 1-.679 1.211 2.904 2.904 0 0 1-1.071.77c-.42.177-.891.266-1.414.266zm0-1.442c.476 0 .85-.145 1.12-.434.27-.29.406-.714.406-1.274V20.66c0-.55-.135-.97-.406-1.26-.27-.29-.644-.434-1.12-.434-.467 0-.835.145-1.106.434-.27.29-.406.71-.406 1.26v1.358c0 .56.135.985.406 1.274.27.29.64.434 1.106.434zm9.352.056h-.07a2.39 2.39 0 0 1-.259.525 1.85 1.85 0 0 1-.994.749 2.548 2.548 0 0 1-.791.112c-.756 0-1.335-.247-1.736-.742s-.602-1.2-.602-2.114v-4.62h1.792v4.438c0 .504.098.889.294 1.155.196.266.509.399.938.399.177 0 .352-.023.525-.07.173-.047.324-.119.455-.217.13-.098.238-.22.322-.364a1 1 0 0 0 .126-.511v-4.83h1.792V25H93.79v-1.218zm8.4 0h-.07a1.87 1.87 0 0 1-.742 1.008 2.182 2.182 0 0 1-1.274.378c-.924 0-1.631-.331-2.121-.994s-.735-1.61-.735-2.842c0-1.223.245-2.163.735-2.821.49-.658 1.197-.987 2.121-.987.485 0 .91.124 1.274.371s.611.581.742 1.001h.07V14.64h1.792V25h-1.792v-1.218zm-1.512-.098c.43 0 .789-.103 1.078-.308.29-.205.434-.5.434-.882V20.17c0-.355-.145-.64-.434-.854-.29-.215-.649-.322-1.078-.322-.467 0-.842.156-1.127.469-.285.313-.427.73-.427 1.253v1.26c0 .523.142.938.427 1.246.285.308.66.462 1.127.462zM109.47 25v-9.772h6.286v1.638h-4.438v2.366h3.864v1.638h-3.864V25h-1.848zm11.984-1.218h-.07a2.39 2.39 0 0 1-.259.525 1.85 1.85 0 0 1-.994.749 2.548 2.548 0 0 1-.791.112c-.756 0-1.335-.247-1.736-.742s-.602-1.2-.602-2.114v-4.62h1.792v4.438c0 .504.098.889.294 1.155.196.266.509.399.938.399.177 0 .352-.023.525-.07.173-.047.324-.119.455-.217.13-.098.238-.22.322-.364a1 1 0 0 0 .126-.511v-4.83h1.792V25h-1.792v-1.218zM125.318 25v-7.308h1.792v1.218h.07c.15-.392.385-.721.707-.987.322-.266.768-.399 1.337-.399.756 0 1.335.247 1.736.742s.602 1.2.602 2.114V25h-1.792v-4.438c0-.523-.093-.915-.28-1.176-.187-.261-.495-.392-.924-.392-.187 0-.366.026-.539.077a1.518 1.518 0 0 0-.462.224 1.17 1.17 0 0 0-.329.364 1 1 0 0 0-.126.511V25h-1.792zm11.116.168c-.541 0-1.022-.089-1.442-.266a2.78 2.78 0 0 1-1.057-.77 3.47 3.47 0 0 1-.651-1.211 5.25 5.25 0 0 1-.224-1.589c0-.588.075-1.115.224-1.582.15-.467.366-.866.651-1.197a2.814 2.814 0 0 1 1.057-.763c.42-.177.9-.266 1.442-.266.737 0 1.346.163 1.827.49.48.327.828.78 1.043 1.358l-1.47.658a1.523 1.523 0 0 0-.469-.763c-.229-.2-.539-.301-.931-.301-.504 0-.88.159-1.127.476-.247.317-.371.733-.371 1.246v1.33c0 .513.124.926.371 1.239.247.313.623.469 1.127.469.43 0 .76-.11.994-.329.233-.22.415-.492.546-.819l1.372.658c-.243.644-.611 1.127-1.106 1.449-.495.322-1.097.483-1.806.483zm6.58-.168c-.616 0-1.085-.161-1.407-.483-.322-.322-.483-.782-.483-1.379v-4.032h-1.078v-1.414h.56c.27 0 .455-.063.553-.189.098-.126.147-.315.147-.567V15.69h1.61v2.002h1.498v1.414h-1.498v4.466h1.386V25h-1.288zm3.85-8.372c-.373 0-.642-.084-.805-.252a.886.886 0 0 1-.245-.644v-.28c0-.261.082-.476.245-.644.163-.168.432-.252.805-.252.364 0 .63.084.798.252a.872.872 0 0 1 .252.644v.28a.872.872 0 0 1-.252.644c-.168.168-.434.252-.798.252zm-.896 1.064h1.792V25h-1.792v-7.308zm6.762 7.476c-.523 0-.992-.089-1.407-.266a2.917 2.917 0 0 1-1.064-.77 3.52 3.52 0 0 1-.679-1.211 4.964 4.964 0 0 1-.238-1.589 4.9 4.9 0 0 1 .238-1.582c.159-.467.385-.866.679-1.197a2.954 2.954 0 0 1 1.064-.763 3.551 3.551 0 0 1 1.407-.266c.523 0 .994.089 1.414.266.42.177.777.432 1.071.763.294.331.52.73.679 1.197a4.9 4.9 0 0 1 .238 1.582 4.98 4.98 0 0 1-.238 1.589 3.52 3.52 0 0 1-.679 1.211 2.904 2.904 0 0 1-1.071.77c-.42.177-.891.266-1.414.266zm0-1.442c.476 0 .85-.145 1.12-.434.27-.29.406-.714.406-1.274V20.66c0-.55-.135-.97-.406-1.26-.27-.29-.644-.434-1.12-.434-.467 0-.835.145-1.106.434-.27.29-.406.71-.406 1.26v1.358c0 .56.135.985.406 1.274.27.29.64.434 1.106.434zM157.714 25v-7.308h1.792v1.218h.07c.15-.392.385-.721.707-.987.322-.266.768-.399 1.337-.399.756 0 1.335.247 1.736.742s.602 1.2.602 2.114V25h-1.792v-4.438c0-.523-.093-.915-.28-1.176-.187-.261-.495-.392-.924-.392-.187 0-.366.026-.539.077a1.518 1.518 0 0 0-.462.224 1.17 1.17 0 0 0-.329.364 1 1 0 0 0-.126.511V25h-1.792zm10.626.168c-.7 0-1.288-.119-1.764-.357a4.06 4.06 0 0 1-1.26-.987l1.092-1.064c.27.308.567.55.889.728a2.27 2.27 0 0 0 1.113.266c.43 0 .74-.075.931-.224a.738.738 0 0 0 .287-.616.664.664 0 0 0-.203-.511c-.135-.126-.366-.212-.693-.259l-.728-.098c-.793-.103-1.398-.329-1.813-.679-.415-.35-.623-.861-.623-1.533 0-.355.065-.674.196-.959.13-.285.317-.527.56-.728.243-.2.534-.355.875-.462.34-.107.721-.161 1.141-.161.355 0 .67.026.945.077.275.051.525.126.749.224.224.098.43.22.616.364.187.145.369.306.546.483l-1.05 1.05a2.772 2.772 0 0 0-.77-.56 2.16 2.16 0 0 0-.98-.224c-.392 0-.674.07-.847.21a.67.67 0 0 0-.259.546c0 .243.072.427.217.553.145.126.39.217.735.273l.742.098c1.577.224 2.366.943 2.366 2.156 0 .355-.072.679-.217.973a2.215 2.215 0 0 1-.609.756c-.261.21-.576.373-.945.49a4.097 4.097 0 0 1-1.239.175z"/></g></svg>