<?xml version="1.0" encoding="UTF-8" standalone="yes"?>
<svg version="1.1" xmlns="http://www.w3.org/2000/svg" xmlns:xlink="http://www.w3.org/1999/xlink" x="0px" y="0px" width="500px" height="500px" viewBox="10 38 476 401" enable-background="new 0 0 500 500" xml:space="preserve">
  <g id="Layer_1">
    <g>
      <path d="M484.723,360.243c0-1.216-0.348-1.736-1.562-1.562c-3.82,0-7.466,0.173-11.285,0c-1.562,0-2.083,0.347-2.083,2.083&#xD;&#xA;&#x9;&#x9;&#x9;c0.173,9.375,0,18.75,0,28.473c-3.473-5.902-4.167-6.771-6.944-8.334c-8.854-5.034-20.834-0.693-25,9.375&#xD;&#xA;&#x9;&#x9;&#x9;c-3.82,9.202-3.473,18.75-1.216,28.125c1.389,6.25,4.688,11.459,10.938,13.89c8.854,3.472,18.576,0.694,21.875-8.334&#xD;&#xA;&#x9;&#x9;&#x9;c0,0,0.174,0,0.521-0.173c0,2.43,0,4.688,0,7.117c0,1.216,0.174,1.736,1.562,1.736c3.993-0.174,7.986,0,11.979,0&#xD;&#xA;&#x9;&#x9;&#x9;c1.216,0,1.389-0.347,1.389-1.562C484.549,407.465,484.549,383.854,484.723,360.243z M469.792,412.152&#xD;&#xA;&#x9;&#x9;&#x9;c0,6.424-3.299,9.723-9.723,9.549c-4.688,0-8.507-3.125-9.201-7.812c-0.694-4.861-0.868-9.896,0-14.757&#xD;&#xA;&#x9;&#x9;&#x9;c1.562-9.548,11.458-9.722,16.319-6.25c1.736,1.216,2.777,3.125,2.777,5.208c0,2.778,0,5.383,0,8.16l0,0&#xD;&#xA;&#x9;&#x9;&#x9;C469.792,408.333,469.792,410.243,469.792,412.152z"/>
      <path d="M280.209,416.146c-2.952-1.562-5.903-3.298-8.682-5.034c-1.562-0.868-2.083-1.042-3.125,0.868&#xD;&#xA;&#x9;&#x9;&#x9;c-2.951,6.076-8.506,9.027-14.93,8.159c-6.945-1.041-11.111-5.034-12.5-12.326c-0.694-3.473-0.173-6.944-0.347-10.417&#xD;&#xA;&#x9;&#x9;&#x9;c0.174-3.472-0.174-7.118,0.521-10.59c1.389-6.597,5.555-10.938,11.979-11.632c6.771-0.695,12.152,1.215,14.757,8.16&#xD;&#xA;&#x9;&#x9;&#x9;c0.347,1.041,0.694,1.215,1.736,0.693c3.472-1.909,6.771-3.646,10.417-5.381c1.389-0.695,1.389-1.216,0.693-2.432&#xD;&#xA;&#x9;&#x9;&#x9;c-5.034-9.896-13.367-14.409-24.479-14.756c-13.368-0.348-24.132,6.597-28.819,19.097c-3.472,9.375-3.472,18.924-1.736,28.646&#xD;&#xA;&#x9;&#x9;&#x9;c1.389,7.118,4.514,13.542,10.243,18.229c5.382,4.34,11.632,5.902,18.229,6.25c11.98,0.347,21.008-4.514,26.736-15.104&#xD;&#xA;&#x9;&#x9;&#x9;C281.771,417.361,281.598,416.84,280.209,416.146z"/>
      <path d="M190.799,404.861c0-13.368,0-26.736,0-40.104c0-1.389-0.174-1.909-1.736-1.909c-2.431,0.174-5.035,0.174-7.465,0&#xD;&#xA;&#x9;&#x9;&#x9;c-1.389,0-2.083,0.521-2.604,1.562c-6.077,11.458-12.153,22.916-18.403,34.201c-0.347,0.521-0.347,1.215-1.215,1.562&#xD;&#xA;&#x9;&#x9;&#x9;c-0.347-0.694-0.694-1.389-1.215-2.084c-6.076-11.284-11.979-22.396-17.882-33.68c-0.694-1.216-1.215-1.736-2.604-1.736&#xD;&#xA;&#x9;&#x9;&#x9;c-2.431,0.174-4.688,0.174-7.118,0c-1.91-0.174-2.257,0.521-2.257,2.257c0,20.485,0,40.972,0,61.458&#xD;&#xA;&#x9;&#x9;&#x9;c0,1.91-0.695,4.514,0.347,5.556c1.042,1.216,3.819,0.174,5.729,0.521c1.736,0.174,2.257-0.347,2.257-2.257&#xD;&#xA;&#x9;&#x9;&#x9;c0-18.056,0-35.937,0-53.993c0-0.693,0-1.562,0-2.256c7.465,14.062,15.278,27.604,22.917,41.84&#xD;&#xA;&#x9;&#x9;&#x9;c7.639-14.062,15.625-27.777,22.569-42.014c0.173,0,0.347,0,0.521,0.174c0,0.693,0,1.562,0,2.256c0,16.667,0,33.16,0,49.827&#xD;&#xA;&#x9;&#x9;&#x9;c0,2.083-0.868,4.86,0.348,6.076c1.215,1.042,3.993,0.174,5.902,0.347c1.562,0.174,1.91-0.521,1.91-1.909&#xD;&#xA;&#x9;&#x9;&#x9;C190.799,422.049,190.799,413.368,190.799,404.861z"/>
      <path d="M104.34,397.569c-1.562-0.868-3.299-1.042-5.556-1.735c2.778-0.869,4.688-1.562,6.597-2.952&#xD;&#xA;&#x9;&#x9;&#x9;c7.118-5.208,5.903-17.708,2.083-22.917c-3.819-5.208-9.202-7.117-15.278-7.117c-9.028-0.174-17.882,0-26.91,0&#xD;&#xA;&#x9;&#x9;&#x9;c-1.736,0-1.91,0.521-1.91,2.083c0,21.875,0,43.75,0,65.625c0,1.562,0.347,1.909,1.91,1.909c9.722,0,19.618,0,29.34,0&#xD;&#xA;&#x9;&#x9;&#x9;c1.91,0,3.819-0.173,5.729-0.867c8.333-2.604,13.889-12.153,12.674-21.354C111.979,404.688,109.549,400.348,104.34,397.569z&#xD;&#xA;&#x9;&#x9;&#x9; M71.528,381.598c0-3.299,0-6.424,0-9.723c0-1.215,0.347-1.562,1.389-1.562c6.424,0,12.847,0,19.445,0&#xD;&#xA;&#x9;&#x9;&#x9;c5.208,0.174,8.68,3.646,9.027,9.027c0,1.042,0,2.084,0,3.125c0,6.771-3.125,10.244-9.896,10.417&#xD;&#xA;&#x9;&#x9;&#x9;c-6.25,0.174-12.327,0-18.577,0.174c-1.215,0-1.389-0.521-1.389-1.562C71.701,388.194,71.528,384.896,71.528,381.598z&#xD;&#xA;&#x9;&#x9;&#x9; M103.819,415.104c-0.347,6.076-3.819,9.722-9.896,9.896c-6.945,0.174-13.889,0-21.007,0.174c-1.389,0-1.389-0.694-1.389-1.562&#xD;&#xA;&#x9;&#x9;&#x9;c0-3.646,0-7.118,0-10.764c0-3.646,0-7.118,0-10.765c0-1.215,0.347-1.735,1.736-1.735c6.598,0,13.021,0,19.618,0&#xD;&#xA;&#x9;&#x9;&#x9;c6.944,0.173,10.59,3.646,10.938,10.59C103.993,412.152,103.819,413.715,103.819,415.104z"/>
      <path d="M422.396,380.035c-3.819,0-7.465,0.174-11.284,0c-1.736,0-1.91,0.521-1.91,2.083c0,10.417,0,20.659,0,31.076&#xD;&#xA;&#x9;&#x9;&#x9;c0,3.299-1.215,5.903-4.166,7.292c-5.035,2.431-12.153,1.909-12.5-6.944c0-1.39-0.174-2.778-0.174-4.167&#xD;&#xA;&#x9;&#x9;&#x9;c0-9.201,0-18.402,0-27.604c0-1.39-0.174-1.91-1.736-1.91c-3.819,0.174-7.639,0.174-11.458,0c-1.39,0-1.736,0.521-1.736,1.736&#xD;&#xA;&#x9;&#x9;&#x9;c0,7.986,0,15.798,0,23.784c0,4.341-0.174,8.681,0.347,13.021c1.562,12.848,13.368,19.271,24.479,13.021&#xD;&#xA;&#x9;&#x9;&#x9;c3.125-1.736,4.861-4.688,6.771-7.639c0,2.257,0,4.688,0,6.944c0,1.215,0.174,1.735,1.562,1.562c3.82-0.174,7.812,0,11.633,0&#xD;&#xA;&#x9;&#x9;&#x9;c1.215,0,1.562-0.348,1.562-1.562c0-16.493,0-32.986,0-49.306C423.958,380.382,423.611,380.035,422.396,380.035z"/>
      <path d="M367.361,401.736c-1.042-13.542-10.069-22.223-23.611-22.743c-12.152-0.347-20.833,5.903-24.132,17.708&#xD;&#xA;&#x9;&#x9;&#x9;c-1.216,4.688-1.389,9.375-0.868,14.236c1.215,13.715,9.201,21.875,22.917,22.743c7.985,0.521,15.104-1.736,20.312-8.333&#xD;&#xA;&#x9;&#x9;&#x9;c4.688-5.903,5.729-12.848,5.729-20.14C367.535,403.993,367.535,402.951,367.361,401.736z M351.91,414.583&#xD;&#xA;&#x9;&#x9;&#x9;c-0.521,4.688-3.993,7.466-8.508,7.466c-5.208,0-8.159-2.431-9.201-7.292c-0.521-2.951-0.174-5.902-0.347-8.854&#xD;&#xA;&#x9;&#x9;&#x9;c0.173-2.777-0.348-5.729,0.347-8.507c1.042-4.687,4.341-7.118,9.375-6.944c4.514,0.174,7.812,2.777,8.334,7.466&#xD;&#xA;&#x9;&#x9;&#x9;C352.604,403.473,352.604,409.027,351.91,414.583z"/>
      <path d="M313.021,425.348c0-4.167,0-4.341-4.34-4.167c-1.91,0-2.431-0.521-2.431-2.431c0-19.271,0-38.368,0.174-57.639&#xD;&#xA;&#x9;&#x9;&#x9;c0-1.91-0.348-2.777-2.431-2.604c-3.299,0.174-6.771,0.174-10.069,0c-1.736,0-2.431,0.347-2.258,2.257&#xD;&#xA;&#x9;&#x9;&#x9;c0.174,9.549,0,19.271,0,28.82l0,0c0,9.722-0.173,19.443,0,29.166c0.174,8.507,4.515,13.021,13.021,13.542&#xD;&#xA;&#x9;&#x9;&#x9;c2.257,0.174,4.688,0,7.118,0.174c1.042,0,1.389-0.348,1.389-1.39C312.848,429.34,313.021,427.257,313.021,425.348z"/>
      <path d="M46.528,425.521c-2.083,0-4.167-0.173-6.25,0c-1.736,0.174-2.257-0.347-2.083-2.083c0-16.319,0-32.465,0-48.785&#xD;&#xA;&#x9;&#x9;&#x9;c0-4.861,0-4.861,4.861-4.861c5.035,0,4.861,0,5.035-5.034c0-1.562-0.347-1.909-1.91-1.909c-6.944,0.174-13.889,0-21.007,0&#xD;&#xA;&#x9;&#x9;&#x9;c-5.556,0-5.556,0-5.208,5.729c0,1.042,0.347,1.389,1.389,1.389c2.083,0,4.34,0.174,6.424,0c1.562-0.174,2.083,0.348,2.083,2.084&#xD;&#xA;&#x9;&#x9;&#x9;c-0.174,8.507,0,17.188,0,25.868c0,7.639,0,15.451,0,23.09c0,4.688,0,4.688-4.861,4.688c-5.035,0-5.035,0-5.035,5.208&#xD;&#xA;&#x9;&#x9;&#x9;c0,1.562,0.347,1.91,1.91,1.91c6.944,0,13.889,0,20.66,0c5.729,0,5.556,0,5.382-5.729&#xD;&#xA;&#x9;&#x9;&#x9;C47.917,425.694,47.569,425.521,46.528,425.521z"/>
    </g>
  </g>
  <g id="Layer_2">
    <defs>
      <filter id="Adobe_OpacityMaskFilter" filterUnits="userSpaceOnUse" x="107.574" y="43.373" width="291.387" height="257.804">
        <feColorMatrix type="matrix" values="1 0 0 0 0  0 1 0 0 0  0 0 1 0 0  0 0 0 1 0"/>
      </filter>
    </defs>
    <mask maskUnits="userSpaceOnUse" x="107.574" y="43.373" width="291.387" height="257.804" id="SVGID_1_">
      <g filter="url(#Adobe_OpacityMaskFilter)">
        <g>
          <rect x="75.151" y="25.779" width="352.747" height="294.408"/>
          <path fill="#FFFFFF" d="M146.238,146.424c-0.967,0-1.916-0.254-2.753-0.74l-26.042-15.035c-2.417-1.32-3.554-4.171-2.708-6.789&#xD;&#xA;&#x9;&#x9;&#x9;&#x9;&#x9;c1.028-2.87,4.189-4.361,7.06-3.331c0.308,0.109,0.607,0.249,0.89,0.411l26.043,15.041c2.663,1.462,3.715,4.753,2.397,7.491&#xD;&#xA;&#x9;&#x9;&#x9;&#x9;&#x9;C150.173,145.29,148.289,146.427,146.238,146.424z"/>
          <path fill="#FFFFFF" d="M191.246,101.427c-1.971,0-3.794-1.049-4.78-2.759L171.43,72.626c-1.434-2.351-0.994-5.388,1.049-7.237&#xD;&#xA;&#x9;&#x9;&#x9;&#x9;&#x9;c2.326-1.969,5.806-1.68,7.774,0.646c0.212,0.249,0.403,0.519,0.567,0.806l15.025,26.021c1.537,2.522,0.906,5.797-1.455,7.573&#xD;&#xA;&#x9;&#x9;&#x9;&#x9;&#x9;C193.469,101.08,192.372,101.427,191.246,101.427z"/>
          <path fill="#FFFFFF" d="M247.194,79.081V49.416c-0.068-3.042,2.237-5.61,5.266-5.867c3.041-0.138,5.62,2.216,5.758,5.257&#xD;&#xA;&#x9;&#x9;&#x9;&#x9;&#x9;c0.002,0.082,0.006,0.165,0.006,0.25v30.385c0,3.044-2.47,5.515-5.516,5.515c-0.082,0-0.166-0.003-0.248-0.006&#xD;&#xA;&#x9;&#x9;&#x9;&#x9;&#x9;C249.431,84.69,247.126,82.12,247.194,79.081z"/>
          <path fill="#FFFFFF" d="M314.172,101.427c-1.124,0-2.221-0.344-3.14-0.985c-2.361-1.778-2.992-5.057-1.455-7.584l15.019-26.016&#xD;&#xA;&#x9;&#x9;&#x9;&#x9;&#x9;c1.526-2.64,4.9-3.543,7.537-2.02c0.286,0.164,0.556,0.355,0.805,0.567c2.046,1.847,2.486,4.886,1.05,7.237l-15.036,26.042&#xD;&#xA;&#x9;&#x9;&#x9;&#x9;&#x9;C317.967,100.377,316.143,101.427,314.172,101.427z"/>
          <path fill="#FFFFFF" d="M359.182,146.424c-2.051,0.003-3.932-1.134-4.887-2.95c-1.319-2.74-0.265-6.031,2.396-7.493&#xD;&#xA;&#x9;&#x9;&#x9;&#x9;&#x9;l25.812-14.903c2.329-1.415,5.335-0.98,7.168,1.039c1.987,2.311,1.722,5.792-0.588,7.78c-0.26,0.222-0.538,0.424-0.835,0.593&#xD;&#xA;&#x9;&#x9;&#x9;&#x9;&#x9;l-26.315,15.194C361.095,146.169,360.146,146.424,359.182,146.424z"/>
          <path fill="url(#SVGID_2_)" d="M182.729,272.357c-38.64-38.659-38.624-101.319,0.032-139.959&#xD;&#xA;&#x9;&#x9;&#x9;&#x9;&#x9;c38.645-38.629,101.282-38.629,139.927,0c2.797,2.795,5.425,5.755,7.87,8.861c1.702,2.16,3.319,4.399,4.811,6.662l-9.203,6.074&#xD;&#xA;&#x9;&#x9;&#x9;&#x9;&#x9;c-1.325-2.009-2.761-3.997-4.269-5.915c-2.176-2.766-4.516-5.397-7.004-7.886c-34.347-34.336-90.025-34.331-124.368,0.016&#xD;&#xA;&#x9;&#x9;&#x9;&#x9;&#x9;c-34.331,34.342-34.331,90.013,0.003,124.352L182.729,272.357z"/>
          <path fill="#FFFFFF" d="M323.261,301.347c-0.193,0-0.384,0-0.577-0.002H170.948c-35.301-0.242-63.723-29.054-63.485-64.357&#xD;&#xA;&#x9;&#x9;&#x9;&#x9;&#x9;c0-0.011,0-0.026,0-0.04l11.029,0.083c-0.22,29.212,23.284,53.071,52.493,53.289c0.002,0,0.005,0,0.005,0h151.732&#xD;&#xA;&#x9;&#x9;&#x9;&#x9;&#x9;c0.162,0,0.329,0,0.491,0c35.665,0.019,64.592-28.881,64.607-64.545c0.005-15.896-5.849-31.237-16.445-43.087l8.218-7.35&#xD;&#xA;&#x9;&#x9;&#x9;&#x9;&#x9;c27.837,31.125,25.177,78.917-5.946,106.756C359.791,294.489,341.853,301.341,323.261,301.347L323.261,301.347z"/>
          <path fill="url(#SVGID_3_)" d="M118.492,237.03l-11.029-0.083c0.199-31.024,22.669-57.417,53.267-62.56l1.839,10.873&#xD;&#xA;&#x9;&#x9;&#x9;&#x9;&#x9;C137.25,189.516,118.653,211.358,118.492,237.03z"/>
          <path fill="url(#SVGID_4_)" d="M258.67,225.259l-11.025-0.079c0.313-41.756,34.411-75.351,76.168-75.038&#xD;&#xA;&#x9;&#x9;&#x9;&#x9;&#x9;c21.314,0.159,41.57,9.309,55.781,25.195l-8.218,7.35c-23.779-26.58-64.603-28.852-91.186-5.077&#xD;&#xA;&#x9;&#x9;&#x9;&#x9;&#x9;C266.624,189.751,258.807,207.055,258.67,225.259z"/>
          <linearGradient id="SVGID_2_" gradientUnits="userSpaceOnUse" x1="3438.8174" y1="-8898.1367" x2="3638.9368" y2="-8862.8525" gradientTransform="matrix(-0.4042 -0.4042 0.4042 -0.4042 5248.6855 -1989.9905)">
            <stop offset="0.1949" style="stop-color:#FFFFFF;stop-opacity:0"/>
            <stop offset="0.2866" style="stop-color:#FFFFFF;stop-opacity:0.03"/>
            <stop offset="0.5006" style="stop-color:#FFFFFF;stop-opacity:0.2"/>
            <stop offset="0.7931" style="stop-color:#FFFFFF;stop-opacity:0.74"/>
            <stop offset="1" style="stop-color:#FFFFFF"/>
          </linearGradient>
          <linearGradient id="SVGID_3_" gradientUnits="userSpaceOnUse" x1="280.0371" y1="2145.9863" x2="397.3277" y2="2078.2686" gradientTransform="matrix(0.5716 0 0 0.5716 -59.0958 -1000.885)">
            <stop offset="0.08" style="stop-color:#FFFFFF"/>
            <stop offset="0.7528" style="stop-color:#FFFFFF;stop-opacity:0.07"/>
            <stop offset="0.8746" style="stop-color:#FFFFFF;stop-opacity:0"/>
          </linearGradient>
          <linearGradient id="SVGID_4_" gradientUnits="userSpaceOnUse" x1="548.1357" y1="2158.7627" x2="726.5472" y2="2009.058" gradientTransform="matrix(0.5716 0 0 0.5716 -59.0958 -1000.885)">
            <stop offset="0.1381" style="stop-color:#FFFFFF;stop-opacity:0"/>
            <stop offset="0.3197" style="stop-color:#FFFFFF;stop-opacity:0.07"/>
            <stop offset="0.8473" style="stop-color:#FFFFFF;stop-opacity:0.7638"/>
            <stop offset="0.9469" style="stop-color:#FFFFFF"/>
          </linearGradient>
        </g>
      </g>
    </mask>
    <linearGradient id="SVGID_5_" gradientUnits="userSpaceOnUse" x1="327.7168" y1="62.0376" x2="180.8241" y2="316.4632">
      <stop offset="0" style="stop-color:#50FFD2"/>
      <stop offset="1" style="stop-color:#0064FF"/>
    </linearGradient>
    <path mask="url(#SVGID_1_)" fill="url(#SVGID_5_)" d="M146.351,146.254c-0.965,0-1.916-0.254-2.752-0.739l-26.042-15.035&#xD;&#xA;&#x9;&#x9;c-2.418-1.319-3.555-4.171-2.709-6.789c1.029-2.87,4.189-4.361,7.058-3.331c0.309,0.109,0.608,0.249,0.892,0.411l26.044,15.041&#xD;&#xA;&#x9;&#x9;c2.662,1.463,3.713,4.754,2.397,7.491C150.284,145.12,148.401,146.257,146.351,146.254z M191.358,101.257&#xD;&#xA;&#x9;&#x9;c-1.971,0-3.793-1.05-4.779-2.759l-15.037-26.042c-1.434-2.35-0.994-5.387,1.049-7.236c2.325-1.969,5.806-1.68,7.776,0.646&#xD;&#xA;&#x9;&#x9;c0.212,0.25,0.402,0.52,0.567,0.806l15.024,26.021c1.535,2.522,0.905,5.798-1.456,7.573&#xD;&#xA;&#x9;&#x9;C193.582,100.91,192.484,101.257,191.358,101.257z M247.309,78.911V49.247c-0.07-3.042,2.235-5.61,5.264-5.868&#xD;&#xA;&#x9;&#x9;c3.042-0.137,5.618,2.215,5.757,5.258c0.005,0.082,0.007,0.165,0.007,0.249v30.386c-0.001,3.044-2.47,5.515-5.515,5.515&#xD;&#xA;&#x9;&#x9;c-0.081,0-0.166-0.003-0.249-0.006C249.543,84.521,247.238,81.95,247.309,78.911z M314.285,101.257c-1.123,0-2.22-0.344-3.14-0.986&#xD;&#xA;&#x9;&#x9;c-2.364-1.778-2.994-5.056-1.458-7.584l15.023-26.016c1.523-2.64,4.899-3.543,7.535-2.019c0.284,0.164,0.555,0.355,0.807,0.567&#xD;&#xA;&#x9;&#x9;c2.042,1.847,2.482,4.886,1.049,7.236l-15.037,26.042C318.08,100.208,316.258,101.257,314.285,101.257z M359.294,146.254&#xD;&#xA;&#x9;&#x9;c-2.052,0.003-3.933-1.134-4.887-2.949c-1.317-2.74-0.265-6.031,2.396-7.494l25.814-14.903c2.33-1.415,5.334-0.98,7.165,1.039&#xD;&#xA;&#x9;&#x9;c1.988,2.311,1.726,5.792-0.586,7.78c-0.26,0.222-0.538,0.424-0.834,0.593l-26.318,15.194&#xD;&#xA;&#x9;&#x9;C361.21,146,360.261,146.254,359.294,146.254z M182.841,272.188c-38.639-38.658-38.625-101.319,0.031-139.959&#xD;&#xA;&#x9;&#x9;c38.645-38.629,101.282-38.629,139.927,0c2.798,2.796,5.427,5.756,7.873,8.861c1.697,2.16,3.317,4.399,4.809,6.662l-9.205,6.074&#xD;&#xA;&#x9;&#x9;c-1.322-2.009-2.759-3.997-4.267-5.915c-2.178-2.766-4.515-5.397-7.003-7.886c-34.348-34.337-90.029-34.332-124.368,0.016&#xD;&#xA;&#x9;&#x9;c-34.333,34.342-34.333,90.013,0.001,124.353L182.841,272.188z M323.372,301.177c-0.191,0-0.382,0-0.577-0.002H171.061&#xD;&#xA;&#x9;&#x9;c-35.303-0.241-63.725-29.054-63.485-64.357c0.001-0.011,0.001-0.026,0.001-0.04l11.025,0.083&#xD;&#xA;&#x9;&#x9;c-0.218,29.212,23.286,53.071,52.496,53.288c0.002,0,0.003,0,0.003,0h151.735c0.159,0,0.328,0,0.487,0&#xD;&#xA;&#x9;&#x9;c35.667,0.019,64.593-28.881,64.608-64.545c0.008-15.896-5.845-31.236-16.445-43.086l8.221-7.35&#xD;&#xA;&#x9;&#x9;c27.836,31.125,25.174,78.917-5.946,106.757C359.902,294.319,341.963,301.172,323.372,301.177L323.372,301.177z M118.603,236.86&#xD;&#xA;&#x9;&#x9;l-11.025-0.083c0.197-31.024,22.668-57.417,53.265-62.56l1.84,10.873C137.362,189.346,118.766,211.188,118.603,236.86z&#xD;&#xA;&#x9;&#x9; M258.784,225.089l-11.028-0.079c0.313-41.757,34.414-75.351,76.167-75.039c21.315,0.159,41.571,9.309,55.785,25.195l-8.221,7.35&#xD;&#xA;&#x9;&#x9;c-23.776-26.58-64.603-28.852-91.184-5.077C266.734,189.582,258.919,206.885,258.784,225.089z"/>
  </g>
</svg>