<svg xmlns="http://www.w3.org/2000/svg" role="img" xmlns:xlink="http://www.w3.org/1999/xlink" viewBox="6.48 13.85 111.54 111.17"><title>IBM Cloud Code Engine logo</title><defs><linearGradient id="a" x1="56" x2="72" y1="50" y2="50" gradientUnits="userSpaceOnUse"><stop offset=".15"/><stop offset="1" stop-opacity="0"/></linearGradient><linearGradient id="b" x1="3231" x2="3249" y1="-3591" y2="-3591" gradientTransform="translate(-3142 3642)" gradientUnits="userSpaceOnUse"><stop offset=".1"/><stop offset=".8" stop-opacity="0"/></linearGradient><linearGradient id="c" x1="56" x2="78" y1="26" y2="26" xlink:href="#a"/><linearGradient id="e" x1="56" x2="120" y1="72" y2="8" gradientUnits="userSpaceOnUse"><stop offset=".1" stop-color="#08bdba"/><stop offset=".9" stop-color="#0f62fe"/></linearGradient><mask id="d" width="64" height="64" x="56" y="8" maskUnits="userSpaceOnUse"><path fill="#fff" d="M96 44v16H76V40h8v-4h-9.846A2.1535 2.1535 0 0 0 72 38.154V48H58v4h14v9.846A2.1535 2.1535 0 0 0 74.154 64h23.692A2.1535 2.1535 0 0 0 100 61.846V44zM58 24h26v4H58z"/><path fill="url(#a)" d="M56 46h16v8H56z"/><path fill="url(#b)" d="M89 47h18v8H89z" transform="rotate(90 98 51)"/><path fill="url(#c)" d="M56 22h22v8H56z"/></mask></defs><g mask="url(#d)"><path fill="url(#e)" d="M56 8h64v64H56z" data-name="Color"/></g><path fill="#001d6c" d="M114 44H90a1.9982 1.9982 0 0 1-2-2V18a1.9994 1.9994 0 0 1 2-2h24a1.9994 1.9994 0 0 1 2 2v24a1.9982 1.9982 0 0 1-2 2m-22-4h20V20H92z"/><g><path d="M8.7422 102v-1.4844H10.03v-6.8037H8.7422v-1.4844h4.4385v1.4844h-1.3028v6.8037h1.3028V102zm6.3278-9.7725h4.5215a3.0606 3.0606 0 0 1 1.085.1827 2.3657 2.3657 0 0 1 .8193.5039 2.0894 2.0894 0 0 1 .5107.791 2.9084 2.9084 0 0 1 .1748 1.0293 2.6656 2.6656 0 0 1-.1464.9443 1.8441 1.8441 0 0 1-.3916.6377 1.6149 1.6149 0 0 1-.5606.3779 1.946 1.946 0 0 1-.6514.14v.084a2.1648 2.1648 0 0 1 .6934.1259 2.0407 2.0407 0 0 1 .6865.4 2.18 2.18 0 0 1 .5244.6992 2.3779 2.3779 0 0 1 .21 1.0576 3.1429 3.1429 0 0 1-.1885 1.0986 2.7868 2.7868 0 0 1-.5254.89 2.4468 2.4468 0 0 1-.7978.5947 2.3437 2.3437 0 0 1-1.0075.2157H15.07zm1.8477 4.0743H19.2a1.0793 1.0793 0 0 0 .7842-.2725 1.0186 1.0186 0 0 0 .2793-.7637v-.4336a1.0166 1.0166 0 0 0-.2793-.7627 1.0755 1.0755 0 0 0-.7842-.2734h-2.282zm0 4.13h2.5761a1.1711 1.1711 0 0 0 .8262-.2724 1.0258 1.0258 0 0 0 .294-.791v-.4766a1.05 1.05 0 0 0-.294-.7978 1.1512 1.1512 0 0 0-.8262-.2793H16.918zM31.73 94.9863h-.0557L30.918 96.54l-2.002 3.6963-2.0019-3.6963-.7559-1.5537h-.0566V102h-1.75v-9.7725h2.0859l2.5068 4.7745H29l2.4775-4.7745H33.48V102h-1.75zm11.145 7.1817a4.5852 4.5852 0 0 1-1.7441-.3155 3.4967 3.4967 0 0 1-1.33-.9443 4.2677 4.2677 0 0 1-.8467-1.5615 7.18 7.18 0 0 1-.2939-2.1631 7.4693 7.4693 0 0 1 .2939-2.19 4.4642 4.4642 0 0 1 .8467-1.61 3.6027 3.6027 0 0 1 1.33-.9863 4.3407 4.3407 0 0 1 1.7441-.3373 3.9594 3.9594 0 0 1 2.1836.56 3.8322 3.8322 0 0 1 1.3848 1.6944l-1.5821.84a2.2116 2.2116 0 0 0-.6855-1.0576 1.9649 1.9649 0 0 0-1.3008-.3985 2.0714 2.0714 0 0 0-1.6465.7 2.8881 2.8881 0 0 0-.6074 1.96v1.54a2.8273 2.8273 0 0 0 .6074 1.9522 2.1009 2.1009 0 0 0 1.6465.68 2.0062 2.0062 0 0 0 1.35-.4483 2.5823 2.5823 0 0 0 .7637-1.1064l1.498.8828a4.3038 4.3038 0 0 1-1.414 1.7 3.7748 3.7748 0 0 1-2.1977.6094zm6.873-.168a1.7856 1.7856 0 0 1-1.3584-.4619 1.8292 1.8292 0 0 1-.4335-1.3018V91.64h1.7919v8.918h.9659V102zm5.222.168a3.5563 3.5563 0 0 1-1.4062-.2657 2.9188 2.9188 0 0 1-1.0645-.77 3.5082 3.5082 0 0 1-.6787-1.2109 4.9457 4.9457 0 0 1-.2383-1.5889A4.8856 4.8856 0 0 1 51.82 96.75a3.4546 3.4546 0 0 1 .6787-1.1973 2.9591 2.9591 0 0 1 1.0645-.7627 3.558 3.558 0 0 1 1.4062-.2656 3.611 3.611 0 0 1 1.4141.2656 2.951 2.951 0 0 1 1.0713.7627 3.4546 3.4546 0 0 1 .6787 1.1973 4.8856 4.8856 0 0 1 .2383 1.582 4.9457 4.9457 0 0 1-.2383 1.5889 3.5082 3.5082 0 0 1-.6787 1.2109 2.911 2.911 0 0 1-1.0713.77 3.6092 3.6092 0 0 1-1.4135.2662zm0-1.4424a1.4585 1.4585 0 0 0 1.12-.4336 1.8007 1.8007 0 0 0 .4063-1.2744V97.66a1.7778 1.7778 0 0 0-.4063-1.26 1.4559 1.4559 0 0 0-1.12-.4346 1.4373 1.4373 0 0 0-1.1054.4346 1.7783 1.7783 0 0 0-.4063 1.26v1.3574a1.8011 1.8011 0 0 0 .4063 1.2744 1.44 1.44 0 0 0 1.1054.4338zm9.3523.0566h-.07a2.3829 2.3829 0 0 1-.2588.5244 1.9019 1.9019 0 0 1-.4063.4414 1.8366 1.8366 0 0 1-.5879.3077 2.531 2.531 0 0 1-.791.1123 2.1054 2.1054 0 0 1-1.7363-.7422 3.2766 3.2766 0 0 1-.6016-2.1143v-4.6191h1.792V99.13a1.9273 1.9273 0 0 0 .294 1.1553 1.0881 1.0881 0 0 0 .9375.3984 1.9983 1.9983 0 0 0 .5253-.0693 1.3373 1.3373 0 0 0 .4551-.2168 1.2168 1.2168 0 0 0 .3223-.3643 1 1 0 0 0 .126-.5107v-4.83h1.792V102h-1.792zm8.3994 0h-.07a1.87 1.87 0 0 1-.7422 1.0078 2.1814 2.1814 0 0 1-1.2735.378 2.4752 2.4752 0 0 1-2.1211-.9942 4.7142 4.7142 0 0 1-.7353-2.8418 4.6586 4.6586 0 0 1 .7353-2.8213 2.4817 2.4817 0 0 1 2.1211-.9863 2.2128 2.2128 0 0 1 1.2735.37 1.84 1.84 0 0 1 .7422 1.002h.07V91.64h1.792V102h-1.792zm-1.5127-.0986a1.8163 1.8163 0 0 0 1.0781-.3076 1.0164 1.0164 0 0 0 .4346-.8819V97.17a1.0127 1.0127 0 0 0-.4346-.8535 1.7575 1.7575 0 0 0-1.0781-.3223 1.4523 1.4523 0 0 0-1.127.4688 1.792 1.792 0 0 0-.4267 1.2529v1.26a1.7644 1.7644 0 0 0 .4267 1.2461 1.46 1.46 0 0 0 1.127.4616zm7.6172-2.8555a2.7852 2.7852 0 0 1-1.9951-.8193 2.7365 2.7365 0 0 1-.6026-.917 3.1476 3.1476 0 0 1 0-2.2959 2.7465 2.7465 0 0 1 .6026-.917 2.8525 2.8525 0 0 1 3.0937-.6016 2.717 2.717 0 0 1 .8887.6016 2.9765 2.9765 0 0 1 0 4.13 2.7179 2.7179 0 0 1-.8887.6025 2.7832 2.7832 0 0 1-1.0986.2167zm0-.63a2.2618 2.2618 0 0 0 .8183-.1474 1.9066 1.9066 0 0 0 .6651-.42 2.1047 2.1047 0 0 0 .4482-.6436 1.9931 1.9931 0 0 0 .168-.833v-.42a1.99 1.99 0 0 0-.168-.833 2.1214 2.1214 0 0 0-.4482-.6446 1.9211 1.9211 0 0 0-.6651-.42 2.3617 2.3617 0 0 0-1.6377 0 1.9207 1.9207 0 0 0-.665.42 2.1214 2.1214 0 0 0-.4482.6446 2.0036 2.0036 0 0 0-.168.833v.42a2.0072 2.0072 0 0 0 .168.833 2.1047 2.1047 0 0 0 .4482.6436 1.9062 1.9062 0 0 0 .665.42 2.2638 2.2638 0 0 0 .8194.1475zm-.378-.7841h-.7988v-2.9257h1.3867a1.0376 1.0376 0 0 1 .791.2754.96.96 0 0 1 .2588.6836 1.0349 1.0349 0 0 1-.1474.5781.927.927 0 0 1-.3848.3389l.63 1.05h-.8682l-.4892-.91h-.378zm.4473-1.5118q.378 0 .3779-.3085v-.168q0-.3077-.3779-.3076h-.4473v.7841zM12.9424 120.168a4.5808 4.5808 0 0 1-1.7432-.3155 3.4975 3.4975 0 0 1-1.33-.9443 4.269 4.269 0 0 1-.8466-1.5615 7.18 7.18 0 0 1-.294-2.1631 7.4692 7.4692 0 0 1 .294-2.19 4.4656 4.4656 0 0 1 .8466-1.61 3.6035 3.6035 0 0 1 1.33-.9863 4.3366 4.3366 0 0 1 1.7432-.3369 3.955 3.955 0 0 1 2.1836.56 3.8415 3.8415 0 0 1 1.3867 1.6944l-1.582.84a2.2353 2.2353 0 0 0-.6866-1.0576 1.9654 1.9654 0 0 0-1.3017-.3985 2.0692 2.0692 0 0 0-1.6455.7 2.8929 2.8929 0 0 0-.6084 1.96v1.54a2.832 2.832 0 0 0 .6084 1.9522 2.0986 2.0986 0 0 0 1.6455.68 2.0053 2.0053 0 0 0 1.3506-.4483 2.5812 2.5812 0 0 0 .7636-1.1064l1.4981.8828a4.3048 4.3048 0 0 1-1.4141 1.7 3.78 3.78 0 0 1-2.1982.609zm7.9795 0a3.5652 3.5652 0 0 1-1.4073-.2657 2.9224 2.9224 0 0 1-1.0634-.77 3.5065 3.5065 0 0 1-.6787-1.2109 4.9457 4.9457 0 0 1-.2383-1.5889 4.8856 4.8856 0 0 1 .2383-1.582 3.453 3.453 0 0 1 .6787-1.1973 2.9629 2.9629 0 0 1 1.0634-.7627 3.567 3.567 0 0 1 1.4073-.2656 3.6144 3.6144 0 0 1 1.414.2656 2.9493 2.9493 0 0 1 1.0713.7627 3.4674 3.4674 0 0 1 .6787 1.1973 4.8856 4.8856 0 0 1 .2383 1.582 4.9457 4.9457 0 0 1-.2383 1.5889 3.5212 3.5212 0 0 1-.6787 1.2109 2.9093 2.9093 0 0 1-1.0713.77 3.6126 3.6126 0 0 1-1.414.2657zm0-1.4424a1.4587 1.4587 0 0 0 1.12-.4336 1.8011 1.8011 0 0 0 .4062-1.2744V115.66a1.7783 1.7783 0 0 0-.4062-1.26 1.4561 1.4561 0 0 0-1.12-.4346 1.4375 1.4375 0 0 0-1.1055.4346 1.7737 1.7737 0 0 0-.4062 1.26v1.3574a1.7965 1.7965 0 0 0 .4062 1.2744 1.44 1.44 0 0 0 1.1055.4338zm9.5195.0566h-.0693a1.87 1.87 0 0 1-.7421 1.0078 2.1845 2.1845 0 0 1-1.2744.378 2.4731 2.4731 0 0 1-2.12-.9942 4.7134 4.7134 0 0 1-.7356-2.8418 4.6579 4.6579 0 0 1 .7354-2.8213 2.48 2.48 0 0 1 2.12-.9863 2.2159 2.2159 0 0 1 1.2744.37 1.84 1.84 0 0 1 .7422 1.002h.0693V109.64h1.792V120h-1.792zm-1.5117-.0986a1.8161 1.8161 0 0 0 1.0781-.3076 1.0156 1.0156 0 0 0 .4336-.8819V115.17a1.0118 1.0118 0 0 0-.4336-.8535 1.7573 1.7573 0 0 0-1.0781-.3223 1.4523 1.4523 0 0 0-1.127.4688 1.7874 1.7874 0 0 0-.4267 1.2529v1.26a1.76 1.76 0 0 0 .4267 1.2461 1.46 1.46 0 0 0 1.1273.4616zm8.3303 1.4844a3.64 3.64 0 0 1-1.4493-.2735 2.9952 2.9952 0 0 1-1.0781-.7695 3.433 3.433 0 0 1-.6787-1.2041 5.4221 5.4221 0 0 1-.0068-3.1572 3.44 3.44 0 0 1 .665-1.1963 2.9327 2.9327 0 0 1 1.0635-.7705 3.5662 3.5662 0 0 1 1.4287-.2725 3.4719 3.4719 0 0 1 1.4834.294 2.8632 2.8632 0 0 1 1.0371.7978 3.49 3.49 0 0 1 .6094 1.169 4.86 4.86 0 0 1 .2012 1.4209v.5878h-4.8577v.1807a1.7855 1.7855 0 0 0 .4483 1.2715 1.732 1.732 0 0 0 1.33.48 1.98 1.98 0 0 0 1.0986-.2774 3.1288 3.1288 0 0 0 .7627-.7089l.9658 1.081a3.0023 3.0023 0 0 1-1.2246.99 4.26 4.26 0 0 1-1.7985.3572zm-.0284-6.3a1.4357 1.4357 0 0 0-1.1337.4756 1.793 1.793 0 0 0-.42 1.2324v.1123h2.9961v-.127a1.9164 1.9164 0 0 0-.3711-1.2246 1.285 1.285 0 0 0-1.0715-.4685zM45.5342 120v-9.7725h6.4394v1.6387h-4.5918v2.3662h4.06v1.6376h-4.06v2.4922h4.5918V120zm8.2881 0v-7.3076h1.792v1.2176h.07a2.3292 2.3292 0 0 1 .707-.9873 2.04 2.04 0 0 1 1.3369-.3985 2.1059 2.1059 0 0 1 1.7354.7412 3.2809 3.2809 0 0 1 .6025 2.1143V120h-1.792v-4.4385a2.0256 2.0256 0 0 0-.28-1.1758 1.0586 1.0586 0 0 0-.9238-.3916 1.868 1.868 0 0 0-.5391.0772 1.5063 1.5063 0 0 0-.4619.2236 1.164 1.164 0 0 0-.3291.3643.9974.9974 0 0 0-.1259.5107V120zm14.8252.6162a2.3942 2.3942 0 0 1-.2032 1.0147 1.72 1.72 0 0 1-.665.7353 3.6323 3.6323 0 0 1-1.19.4483 10.3842 10.3842 0 0 1-3.3466.0341 3.761 3.761 0 0 1-1.0567-.3359 1.4026 1.4026 0 0 1-.5947-.5391 1.4448 1.4448 0 0 1-.1826-.7275 1.2925 1.2925 0 0 1 .3437-.959 1.6893 1.6893 0 0 1 .959-.4414v-.1533a1.1923 1.1923 0 0 1-.6933-.4424 1.2677 1.2677 0 0 1-.2452-.7773 1.0635 1.0635 0 0 1 .1123-.4981 1.17 1.17 0 0 1 .3008-.3721 1.8851 1.8851 0 0 1 .4268-.2587 2.523 2.523 0 0 1 .5039-.1612v-.0566a2.1935 2.1935 0 0 1-1.001-.8535A2.419 2.419 0 0 1 61.7871 115a2.28 2.28 0 0 1 .77-1.7979 3.3127 3.3127 0 0 1 2.2539-.6777 5.2016 5.2016 0 0 1 .6651.042 2.9593 2.9593 0 0 1 .6093.14v-.2383a.9276.9276 0 0 1 1.0352-1.0635h1.1348v1.3721h-1.5542v.1953a2.12 2.12 0 0 1 .8545.84 2.4672 2.4672 0 0 1 .28 1.1905 2.2546 2.2546 0 0 1-.7636 1.7783 3.333 3.333 0 0 1-2.2608.6718 4.4083 4.4083 0 0 1-1.12-.1259 1.2043 1.2043 0 0 0-.3643.2588.5552.5552 0 0 0-.1533.3994q0 .545.9522.5459h1.96a2.86 2.86 0 0 1 1.9532.5527 1.9694 1.9694 0 0 1 .6084 1.5327zm-1.68.21a.6287.6287 0 0 0-.28-.5459 1.7551 1.7551 0 0 0-.9658-.1963H63.23a.8916.8916 0 0 0-.3779.7558.7533.7533 0 0 0 .35.6582 2.2141 2.2141 0 0 0 1.19.2383h.8955a2.74 2.74 0 0 0 1.2813-.2246.7349.7349 0 0 0 .3989-.6855zm-2.156-4.6062q1.3155 0 1.3164-1.1133v-.2367q0-1.1146-1.3164-1.1142t-1.3164 1.1142v.2363q0 1.1137 1.3164 1.1137zm5.7676-4.5921a1.0874 1.0874 0 0 1-.8047-.2519.8865.8865 0 0 1-.2451-.6436v-.28a.8872.8872 0 0 1 .2451-.6445 1.4018 1.4018 0 0 1 1.6035 0 .8727.8727 0 0 1 .252.6445v.28a.872.872 0 0 1-.252.6436 1.0947 1.0947 0 0 1-.7988.2519zm-.8955 1.0645h1.792V120h-1.792zM73.5479 120v-7.3076H75.34v1.2176h.07a2.3292 2.3292 0 0 1 .707-.9873 2.04 2.04 0 0 1 1.3369-.3985 2.1059 2.1059 0 0 1 1.7354.7412 3.2809 3.2809 0 0 1 .6025 2.1143V120H78v-4.4385a2.0264 2.0264 0 0 0-.28-1.1758 1.0586 1.0586 0 0 0-.9238-.3916 1.868 1.868 0 0 0-.5391.0772 1.5063 1.5063 0 0 0-.4619.2236 1.164 1.164 0 0 0-.3291.3643.9974.9974 0 0 0-.126.5107V120zm11.1855.168a3.6356 3.6356 0 0 1-1.4492-.2735 2.9943 2.9943 0 0 1-1.0781-.7695 3.4316 3.4316 0 0 1-.6788-1.2041 5.4243 5.4243 0 0 1-.0068-3.1572 3.4079 3.4079 0 0 1 .665-1.1963 2.9327 2.9327 0 0 1 1.0635-.7705 3.5649 3.5649 0 0 1 1.4278-.2725 3.4761 3.4761 0 0 1 1.4843.294 2.8506 2.8506 0 0 1 1.0362.7978 3.4536 3.4536 0 0 1 .6093 1.169 4.86 4.86 0 0 1 .2022 1.4209v.5878h-4.8574v.1807a1.7858 1.7858 0 0 0 .4482 1.2715 1.7283 1.7283 0 0 0 1.3291.48 1.98 1.98 0 0 0 1.1-.2774 3.1451 3.1451 0 0 0 .7627-.7089l.9658 1.081a3.0149 3.0149 0 0 1-1.2246.99 4.2634 4.2634 0 0 1-1.7992.3572zm-.0283-6.3a1.4359 1.4359 0 0 0-1.1338.4756 1.7929 1.7929 0 0 0-.42 1.2324v.1123h2.9961v-.127a1.917 1.917 0 0 0-.3711-1.2246 1.2864 1.2864 0 0 0-1.0712-.4685z"/></g></svg>