<?xml version="1.0" encoding="UTF-8" standalone="yes"?>
<svg xmlns:dc="http://purl.org/dc/elements/1.1/" xmlns:cc="http://creativecommons.org/ns#" xmlns:rdf="http://www.w3.org/1999/02/22-rdf-syntax-ns#" xmlns:svg="http://www.w3.org/2000/svg" xmlns="http://www.w3.org/2000/svg" viewBox="0 0 303 105" height="105.025" width="303.42499" xml:space="preserve" version="1.1" id="svg2">
  <metadata id="metadata8">
    <rdf:RDF>
      <cc:Work rdf:about="">
        <dc:format>image/svg+xml</dc:format>
        <dc:type rdf:resource="http://purl.org/dc/dcmitype/StillImage"/>
      </cc:Work>
    </rdf:RDF>
  </metadata>
  <defs id="defs6">
    <clipPath id="clipPath40" clipPathUnits="userSpaceOnUse">
      <path id="path42" d="M 0.253906,155.105 C -3.41797,203.699 33.0352,246.074 81.6836,249.719 130.289,253.406 172.66,216.941 176.293,168.328 179.945,119.719 143.516,77.3359 94.8945,73.6836 46.2656,70.0273 3.89453,106.473 0.253906,155.105 Z"/>
    </clipPath>
    <clipPath id="clipPath58" clipPathUnits="userSpaceOnUse">
      <path id="path60" d="m 388.926,248.43 c 1.734,15.054 15.355,25.855 30.433,24.129 15.075,-1.75 25.86,-15.391 24.125,-30.442 -1.765,-15.074 -15.375,-25.855 -30.437,-24.14 -15.074,1.75 -25.875,15.371 -24.121,30.453 z"/>
    </clipPath>
    <clipPath id="clipPath76" clipPathUnits="userSpaceOnUse">
      <path id="path78" d="m 56.3711,607.051 c -9.4844,19.379 -1.4414,42.812 17.9609,52.324 19.4024,9.496 42.832,1.453 52.332,-17.941 9.473,-19.414 1.457,-42.844 -17.949,-52.336 -19.4181,-9.508 -42.8361,-1.457 -52.3439,17.953 z"/>
    </clipPath>
    <clipPath id="clipPath94" clipPathUnits="userSpaceOnUse">
      <path id="path96" d="m 634.594,547.992 c -2.215,29.492 19.898,55.235 49.426,57.461 29.496,2.215 55.222,-19.91 57.449,-49.445 2.219,-29.492 -19.906,-55.231 -49.422,-57.434 -29.508,-2.222 -55.234,19.906 -57.453,49.418 z"/>
    </clipPath>
    <clipPath id="clipPath112" clipPathUnits="userSpaceOnUse">
      <path id="path114" d="m 392.324,824.84 c 29.184,23.777 72.164,19.398 95.977,-9.793 23.769,-29.184 19.394,-72.152 -9.778,-95.965 -29.214,-23.75 -72.183,-19.394 -95.96,9.805 -23.833,29.187 -19.422,72.156 9.761,95.953 z"/>
    </clipPath>
    <clipPath id="clipPath130" clipPathUnits="userSpaceOnUse">
      <path id="path132" d="m 207.934,559.543 c 56.054,45.68 138.605,37.266 184.339,-18.801 45.653,-56.047 37.247,-138.586 -18.777,-184.316 -56.117,-45.617 -138.641,-37.254 -184.308,18.84 -45.774,56.05 -37.301,138.582 18.746,184.277 z"/>
    </clipPath>
    <radialGradient id="radialGradient44" spreadMethod="pad" gradientTransform="matrix(88.2739,0,0,-88.2739,88.2715,161.699)" gradientUnits="userSpaceOnUse" r="1" cy="0" cx="0" fy="0" fx="0">
      <stop id="stop46" offset="0" style="stop-opacity:1;stop-color:#3b3d3e"/>
      <stop id="stop48" offset="0.148352" style="stop-opacity:1;stop-color:#3b3d3e"/>
      <stop id="stop50" offset="1" style="stop-opacity:1;stop-color:#2a1f1f"/>
    </radialGradient>
    <radialGradient id="radialGradient62" spreadMethod="pad" gradientTransform="matrix(26.9714,-5.19104,-5.19104,-26.9714,416.206,245.264)" gradientUnits="userSpaceOnUse" r="1" cy="0" cx="0" fy="0" fx="0">
      <stop id="stop64" offset="0" style="stop-opacity:1;stop-color:#3b3d3e"/>
      <stop id="stop66" offset="0.148352" style="stop-opacity:1;stop-color:#3b3d3e"/>
      <stop id="stop68" offset="1" style="stop-opacity:1;stop-color:#2a1f1f"/>
    </radialGradient>
    <radialGradient id="radialGradient80" spreadMethod="pad" gradientTransform="matrix(38.7757,5.28333,5.28333,-38.7757,91.5137,624.238)" gradientUnits="userSpaceOnUse" r="1" cy="0" cx="0" fy="0" fx="0">
      <stop id="stop82" offset="0" style="stop-opacity:1;stop-color:#3b3d3e"/>
      <stop id="stop84" offset="0.148352" style="stop-opacity:1;stop-color:#3b3d3e"/>
      <stop id="stop86" offset="1" style="stop-opacity:1;stop-color:#2a1f1f"/>
    </radialGradient>
    <radialGradient id="radialGradient98" spreadMethod="pad" gradientTransform="matrix(53.5889,0,0,-53.5889,688.032,552.012)" gradientUnits="userSpaceOnUse" r="1" cy="0" cx="0" fy="0" fx="0">
      <stop id="stop100" offset="0" style="stop-opacity:1;stop-color:#3b3d3e"/>
      <stop id="stop102" offset="0.148352" style="stop-opacity:1;stop-color:#3b3d3e"/>
      <stop id="stop104" offset="1" style="stop-opacity:1;stop-color:#2a1f1f"/>
    </radialGradient>
    <radialGradient id="radialGradient116" spreadMethod="pad" gradientTransform="matrix(68.2007,0,0,-68.2007,435.41,771.968)" gradientUnits="userSpaceOnUse" r="1" cy="0" cx="0" fy="0" fx="0">
      <stop id="stop118" offset="0" style="stop-opacity:1;stop-color:#3b3d3e"/>
      <stop id="stop120" offset="0.148352" style="stop-opacity:1;stop-color:#3b3d3e"/>
      <stop id="stop122" offset="1" style="stop-opacity:1;stop-color:#2a1f1f"/>
    </radialGradient>
    <radialGradient id="radialGradient134" spreadMethod="pad" gradientTransform="matrix(130.989,0,0,-130.989,290.693,457.998)" gradientUnits="userSpaceOnUse" r="1" cy="0" cx="0" fy="0" fx="0">
      <stop id="stop136" offset="0" style="stop-opacity:1;stop-color:#3b3d3e"/>
      <stop id="stop138" offset="0.148352" style="stop-opacity:1;stop-color:#3b3d3e"/>
      <stop id="stop140" offset="1" style="stop-opacity:1;stop-color:#2a1f1f"/>
    </radialGradient>
  </defs>
  <g transform="matrix(1.25,0,0,-1.25,0,105.025)" id="g10">
    <g transform="scale(0.1,0.1)" id="g12">
      <path id="path14" style="fill:#2f2529;fill-opacity:1;fill-rule:nonzero;stroke:none" d="m 651.77,407.473 c 0,9.976 3.468,18.441 10.414,25.382 6.937,6.942 15.398,10.415 25.382,10.415 9.543,0 17.903,-3.473 25.067,-10.415 7.156,-6.941 10.734,-15.406 10.734,-25.382 l 0,-358.0003 c 0,-9.9922 -3.472,-18.4493 -10.414,-25.3907 -6.941,-6.9414 -15.402,-10.4101 -25.387,-10.4101 -9.546,0 -17.898,3.4687 -25.054,10.4101 -7.16,6.9414 -10.742,15.3985 -10.742,25.3907 l 0,358.0003"/>
      <path id="path16" style="fill:#2f2529;fill-opacity:1;fill-rule:nonzero;stroke:none" d="m 789.762,299.426 c 0,21.687 4.121,42.195 12.367,61.508 8.238,19.3 19.527,36.125 33.848,50.445 14.32,14.32 31.132,25.598 50.445,33.844 19.305,8.238 40.031,12.371 62.164,12.371 16.047,0 31.457,-2.278 46.215,-6.836 14.749,-4.559 28.419,-11.067 41.009,-19.528 12.58,-8.46 23.76,-18.449 33.52,-29.941 9.76,-11.504 17.68,-24.195 23.76,-38.074 1.72,-3.043 2.93,-6.301 3.58,-9.77 0.65,-3.472 0.97,-6.504 0.97,-9.109 0,-8.684 -3.04,-16.707 -9.11,-24.094 -6.08,-7.383 -14.76,-11.054 -26.03,-11.054 -14.77,0 -25.62,7.16 -32.55,21.476 -6.51,16.047 -17.03,29.293 -31.571,39.707 -14.547,10.414 -31.145,15.621 -49.793,15.621 -12.156,0 -23.547,-2.277 -34.176,-6.832 -10.637,-4.562 -19.961,-10.742 -27.988,-18.555 -8.031,-7.808 -14.317,-17.031 -18.879,-27.667 -4.555,-10.633 -6.828,-21.797 -6.828,-33.512 l 0,-141.25 c 0,-11.723 2.375,-22.895 7.156,-33.52 4.77,-10.64 11.168,-19.859 19.203,-27.6755 8.024,-7.8008 17.352,-13.9844 27.989,-18.543 10.625,-4.5586 21.808,-6.8359 33.523,-6.8359 18.648,0 35.246,5.3125 49.793,15.9492 14.541,10.625 25.271,23.9722 32.221,40.0392 3.03,6.062 7.7,11.051 13.99,14.961 6.29,3.902 12.26,5.855 17.91,5.855 10.83,0 19.41,-3.687 25.7,-11.062 6.29,-7.383 9.44,-15.403 9.44,-24.082 0,-5.203 -0.87,-9.766 -2.6,-13.6722 -5.65,-14.7539 -13.35,-28.2109 -23.11,-40.3632 C 1062.17,47.0781 1050.99,36.5547 1038.41,27.668 1025.82,18.7695 1011.94,11.9414 996.754,7.15625 981.559,2.39063 965.508,0 948.586,0 c -21.707,0 -42.207,4.23828 -61.512,12.6953 -19.316,8.4649 -36.129,19.8555 -50.449,34.168 -14.316,14.3203 -25.707,31.0273 -34.168,50.1172 -8.465,19.1055 -12.695,39.4925 -12.695,61.1955 l 0,141.25"/>
      <path id="path18" style="fill:#2f2529;fill-opacity:1;fill-rule:nonzero;stroke:none" d="m 1166.63,407.473 c 0,9.976 3.47,18.441 10.42,25.382 6.93,6.942 15.4,10.415 25.38,10.415 9.54,0 17.9,-3.473 25.07,-10.415 7.15,-6.941 10.73,-15.406 10.73,-25.382 l 0,-358.0003 c 0,-9.9922 -3.47,-18.4493 -10.41,-25.3907 -6.95,-6.9414 -15.41,-10.4101 -25.39,-10.4101 -9.55,0 -17.9,3.4687 -25.06,10.4101 -7.16,6.9414 -10.74,15.3985 -10.74,25.3907 l 0,358.0003"/>
      <path id="path20" style="fill:#2f2529;fill-opacity:1;fill-rule:nonzero;stroke:none" d="m 1304.62,298.77 c 0,21.691 4.12,42.078 12.37,61.187 8.23,19.09 19.53,35.801 33.84,50.121 14.33,14.317 31.14,25.707 50.46,34.168 19.3,8.465 39.8,12.695 61.5,12.695 21.7,0 42.2,-4.23 61.51,-12.695 19.31,-8.461 36.13,-19.851 50.45,-34.168 14.31,-14.32 25.71,-31.031 34.18,-50.121 8.45,-19.109 12.69,-39.496 12.69,-61.187 l 0,-249.2973 c 0,-9.9922 -3.38,-18.4493 -10.1,-25.3907 -6.73,-6.9414 -15.07,-10.4101 -25.06,-10.4101 -9.55,0 -17.9,3.4687 -25.05,10.4101 -7.16,6.9414 -10.75,15.3985 -10.75,25.3907 l 0,249.2973 c 0,11.718 -2.27,22.878 -6.83,33.527 -4.55,10.625 -10.85,19.848 -18.87,27.66 -8.05,7.813 -17.36,13.992 -27.99,18.551 -10.64,4.555 -22.03,6.836 -34.18,6.836 -12.15,0 -23.54,-2.281 -34.18,-6.836 -10.62,-4.559 -19.84,-10.738 -27.65,-18.551 -7.82,-7.812 -14,-17.035 -18.56,-27.66 -4.55,-10.649 -6.83,-21.809 -6.83,-33.527 l 0,-249.2973 c 0,-9.9922 -3.37,-18.4493 -10.09,-25.3907 -6.73,-6.9414 -15.08,-10.4101 -25.06,-10.4101 -9.99,0 -18.45,3.4687 -25.39,10.4101 -6.94,6.9414 -10.41,15.3985 -10.41,25.3907 l 0,249.2973"/>
      <path id="path22" style="fill:#2f2529;fill-opacity:1;fill-rule:nonzero;stroke:none" d="m 1692.56,298.77 c 0,21.691 4.24,42.199 12.69,61.511 8.46,19.305 19.86,36.125 34.18,50.446 14.32,14.324 31.13,25.601 50.44,33.847 19.31,8.239 39.81,12.367 61.52,12.367 16.48,0 32.32,-2.39 47.52,-7.16 15.17,-4.781 29.18,-11.5 41.97,-20.176 12.79,-8.687 24.08,-19.101 33.85,-31.246 9.76,-12.152 17.67,-25.609 23.77,-40.355 0.86,-2.18 1.39,-4.453 1.62,-6.844 0.21,-2.383 0.33,-4.871 0.33,-7.476 0,-8.684 -3.05,-16.711 -9.12,-24.086 -6.08,-7.379 -14.76,-11.063 -26.04,-11.063 -6.08,0 -12.15,1.731 -18.22,5.203 -6.08,3.481 -10.64,8.672 -13.67,15.625 -6.95,16.485 -17.69,29.946 -32.23,40.36 -14.53,10.414 -31.13,15.621 -49.78,15.621 -12.16,0 -23.56,-2.281 -34.18,-6.836 -10.64,-4.559 -19.85,-10.738 -27.66,-18.551 -7.81,-7.812 -14,-17.035 -18.55,-27.66 -4.55,-10.649 -6.84,-21.809 -6.84,-33.527 l 0,-140.594 c 0,-11.723 2.29,-22.895 6.84,-33.52 4.55,-10.64 10.84,-19.859 18.87,-27.6755 8.02,-7.8008 17.36,-13.9844 27.99,-18.543 10.64,-4.5586 21.81,-6.8359 33.53,-6.8359 12.14,0 23.53,2.2773 34.17,6.8359 10.63,4.5586 19.85,10.7422 27.66,18.543 7.82,7.8165 14,17.0355 18.56,27.6755 4.55,10.625 6.82,21.797 6.82,33.52 l 0,17.578 -35.14,0 c -9.99,0 -18.34,3.465 -25.06,10.406 -6.74,6.938 -10.1,15.403 -10.1,25.395 0,9.531 3.36,17.781 10.1,24.722 6.72,6.938 15.07,10.422 25.06,10.422 l 70.94,0 c 9.98,0 18.45,-3.371 25.39,-10.09 6.94,-6.738 10.42,-15.078 10.42,-25.054 l 0,-53.379 c 0,-21.703 -4.23,-42.09 -12.69,-61.1955 -8.47,-19.0899 -19.86,-35.7969 -34.18,-50.1172 C 1949.02,32.5508 1932.2,21.1602 1912.89,12.6953 1893.57,4.23828 1873.08,0 1851.39,0 c -21.71,0 -42.21,4.23828 -61.52,12.6953 -19.31,8.4649 -36.12,19.8555 -50.44,34.168 -14.32,14.3203 -25.72,31.0273 -34.18,50.1172 -8.45,19.1055 -12.69,39.4925 -12.69,61.1955 l 0,140.594"/>
      <path id="path24" style="fill:#2f2529;fill-opacity:1;fill-rule:nonzero;stroke:none" d="m 2236.73,320.906 c -4.78,-10.418 -9.23,-20.508 -13.35,-30.269 -4.12,-9.77 -8.36,-19.426 -12.69,-28.965 -4.34,-9.555 -8.68,-19.32 -13.01,-29.301 -4.35,-9.98 -8.91,-20.605 -13.68,-31.894 l 104.81,0 -52.08,120.429 z m -32.55,103.489 c 6.93,14.32 17.79,21.484 32.55,21.484 2.17,0 4.44,-0.227 6.83,-0.656 2.38,-0.434 4.66,-1.297 6.84,-2.602 9.11,-4.34 15.4,-10.414 18.88,-18.226 L 2424.19,61.8477 c 2.17,-5.2149 3.25,-9.7696 3.25,-13.6719 0,-8.2539 -3.14,-16.1719 -9.43,-23.7617 -6.29,-7.5977 -14.87,-11.3985 -25.72,-11.3985 -16.06,0 -26.9,7.168 -32.54,21.4883 l -40.36,94.3751 -164.68,0 c -6.94,-16.059 -13.77,-31.7892 -20.5,-47.1915 -6.73,-15.4102 -13.34,-31.1289 -19.85,-47.1836 -3.48,-7.3867 -8.03,-12.8047 -13.68,-16.2734 -5.64,-3.4844 -11.93,-5.2149 -18.86,-5.2149 -10.86,0 -19.44,3.8008 -25.72,11.3985 -6.3,7.5898 -9.44,15.5078 -9.44,23.7617 0,2.168 0.22,4.5469 0.65,7.1562 0.42,2.6055 1.09,4.7735 1.96,6.5157 l 154.91,362.5473"/>
      <path id="path26" style="fill:none;stroke:#3b3a3c;stroke-width:10;stroke-linecap:butt;stroke-linejoin:miter;stroke-miterlimit:4;stroke-dasharray:none;stroke-opacity:1" d="M 296.637,446.008 103.246,168.691"/>
      <path id="path28" style="fill:none;stroke:#3b3a3c;stroke-width:10;stroke-linecap:butt;stroke-linejoin:miter;stroke-miterlimit:4;stroke-dasharray:none;stroke-opacity:1" d="m 296.637,446.008 400.84,98.867"/>
      <path id="path30" style="fill:none;stroke:#3b3a3c;stroke-width:10;stroke-linecap:butt;stroke-linejoin:miter;stroke-miterlimit:4;stroke-dasharray:none;stroke-opacity:1" d="M 304.23,437.891 416.465,250.398"/>
      <path id="path32" style="fill:none;stroke:#3b3a3c;stroke-width:10;stroke-linecap:butt;stroke-linejoin:miter;stroke-miterlimit:4;stroke-dasharray:none;stroke-opacity:1" d="M 256.617,492.438 91.918,627.281"/>
      <path id="path34" style="fill:none;stroke:#3b3a3c;stroke-width:10;stroke-linecap:butt;stroke-linejoin:miter;stroke-miterlimit:4;stroke-dasharray:none;stroke-opacity:1" d="m 320.449,522.258 96.934,201.437"/>
      <g id="g36">
        <g clip-path="url(#clipPath40)" id="g38">
          <path id="path52" style="fill:url(#radialGradient44);fill-opacity:1;fill-rule:nonzero;stroke:none" d="M 0.253906,155.105 C -3.41797,203.699 33.0352,246.074 81.6836,249.719 130.289,253.406 172.66,216.941 176.293,168.328 179.945,119.719 143.516,77.3359 94.8945,73.6836 46.2656,70.0273 3.89453,106.473 0.253906,155.105"/>
        </g>
      </g>
      <g id="g54">
        <g clip-path="url(#clipPath58)" id="g56">
          <path id="path70" style="fill:url(#radialGradient62);fill-opacity:1;fill-rule:nonzero;stroke:none" d="m 388.926,248.43 c 1.734,15.054 15.355,25.855 30.433,24.129 15.075,-1.75 25.86,-15.391 24.125,-30.442 -1.765,-15.074 -15.375,-25.855 -30.437,-24.14 -15.074,1.75 -25.875,15.371 -24.121,30.453"/>
        </g>
      </g>
      <g id="g72">
        <g clip-path="url(#clipPath76)" id="g74">
          <path id="path88" style="fill:url(#radialGradient80);fill-opacity:1;fill-rule:nonzero;stroke:none" d="m 56.3711,607.051 c -9.4844,19.379 -1.4414,42.812 17.9609,52.324 19.4024,9.496 42.832,1.453 52.332,-17.941 9.473,-19.414 1.457,-42.844 -17.949,-52.336 -19.4181,-9.508 -42.8361,-1.457 -52.3439,17.953"/>
        </g>
      </g>
      <g id="g90">
        <g clip-path="url(#clipPath94)" id="g92">
          <path id="path106" style="fill:url(#radialGradient98);fill-opacity:1;fill-rule:nonzero;stroke:none" d="m 634.594,547.992 c -2.215,29.492 19.898,55.235 49.426,57.461 29.496,2.215 55.222,-19.91 57.449,-49.445 2.219,-29.492 -19.906,-55.231 -49.422,-57.434 -29.508,-2.222 -55.234,19.906 -57.453,49.418"/>
        </g>
      </g>
      <g id="g108">
        <g clip-path="url(#clipPath112)" id="g110">
          <path id="path124" style="fill:url(#radialGradient116);fill-opacity:1;fill-rule:nonzero;stroke:none" d="m 392.324,824.84 c 29.184,23.777 72.164,19.398 95.977,-9.793 23.769,-29.184 19.394,-72.152 -9.778,-95.965 -29.214,-23.75 -72.183,-19.394 -95.96,9.805 -23.833,29.187 -19.422,72.156 9.761,95.953"/>
        </g>
      </g>
      <g id="g126">
        <g clip-path="url(#clipPath130)" id="g128">
          <path id="path142" style="fill:url(#radialGradient134);fill-opacity:1;fill-rule:nonzero;stroke:none" d="m 207.934,559.543 c 56.054,45.68 138.605,37.266 184.339,-18.801 45.653,-56.047 37.247,-138.586 -18.777,-184.316 -56.117,-45.617 -138.641,-37.254 -184.308,18.84 -45.774,56.05 -37.301,138.582 18.746,184.277"/>
        </g>
      </g>
    </g>
  </g>
</svg>