<svg xmlns="http://www.w3.org/2000/svg" role="img" viewBox="-25.34 -25.34 1317.68 1317.68"><title>IITS Consulting (KCSP) logo</title><defs><style>.a0c146b6-c6cb-4ac2-a7a9-ee7f3bc05c03{fill:#fff}</style></defs><g id="f6cff088-193c-4fb4-90cf-1a06b25f8b47" data-name="Ebene 2"><g id="b6e3ff2b-4378-4711-9e5c-169918a3a865" data-name="Camada 1"><path fill="#a4201a" d="M0 0h1267.3v1267.3H0z"/><rect width="59.77" height="51.11" x="597.99" y="766.96" class="a0c146b6-c6cb-4ac2-a7a9-ee7f3bc05c03" rx="25.55"/><path d="M597.99 853.05h59.77v230.01h-59.77z" class="a0c146b6-c6cb-4ac2-a7a9-ee7f3bc05c03"/><rect width="59.77" height="51.11" x="694.7" y="766.96" class="a0c146b6-c6cb-4ac2-a7a9-ee7f3bc05c03" rx="25.55"/><path d="M694.7 853.05h59.77v230.01H694.7zm96.71-80.71h59.77V850h34.65v40.71h-34.65v126c0 18.19 3.9 25.55 21.22 25.55a124.36 124.36 0 0 0 13.43-.86v41.58c-13 1.3-25.12 2.6-39 2.6-46.78 0-55.44-14.3-55.44-61.51zM963 1006.83v7.8c0 20.35 10.83 33.78 31.19 33.78 18.19 0 30.32-9.1 30.32-27.72 0-15.16-10-22.09-21.66-26.42l-42-15.16c-32.92-11.69-49.81-32.05-49.81-65 0-38.55 24.25-70.16 85.76-70.16 54.14 0 79.69 24.25 79.69 66.26v9.53h-53.71c0-23.39-6.93-35.08-26.42-35.08-15.16 0-28.15 8.66-28.15 25.12 0 11.26 6.06 20.79 26 27.29l36 12.12c37.68 12.56 51.54 31.62 51.54 66.7 0 48.95-36.38 73.2-86.63 73.2-67.13 0-85.75-29.45-85.75-74.06v-8.23z" class="a0c146b6-c6cb-4ac2-a7a9-ee7f3bc05c03"/></g></g></svg>