<svg xmlns="http://www.w3.org/2000/svg" role="img" viewBox="55.59 55.59 255.06 255.06"><title>ILKI (KCSP) logo</title><defs><clipPath id="a" clipPathUnits="userSpaceOnUse"><path d="M0 274.961h274.961V0H0z"/></clipPath></defs><g clip-path="url(#a)" transform="matrix(1.33333 0 0 -1.33333 0 366.615)"><path fill="#000" fill-opacity="1" fill-rule="nonzero" stroke="none" d="M229.463 137.48c0 50.801-41.182 91.983-91.982 91.983-50.801 0-91.983-41.182-91.983-91.983s41.182-91.982 91.983-91.982c50.8 0 91.982 41.181 91.982 91.982"/><path fill="#fff" fill-opacity="1" fill-rule="nonzero" stroke="none" d="M197.195 154.328h-9.236c-1.073 0-1.609-.536-1.609-1.604v-53.01c0-1.071.536-1.607 1.609-1.607h9.236c1.072 0 1.607.536 1.607 1.607v53.01c0 1.068-.535 1.604-1.607 1.604"/><path fill="#fff" fill-opacity="1" fill-rule="nonzero" stroke="none" d="M77.767 120.633h9.236c1.072 0 1.608.536 1.608 1.607v53.01c0 1.069-.536 1.604-1.608 1.604h-9.236c-1.072 0-1.608-.535-1.608-1.604v-53.01c0-1.071.536-1.607 1.608-1.607"/><path fill="#fff" fill-opacity="1" fill-rule="nonzero" stroke="none" d="M180.324 100.597l-16.708 25.86 16.146 25.462c.267.428.398.804.398 1.125 0 .372-.156.683-.477.925-.327.238-.778.359-1.366.359h-9.236c-.595 0-1.06-.095-1.405-.281-.354-.186-.687-.523-1.007-1.003l-13.414-21.364h-8.916v21.043c0 1.069-.536 1.605-1.608 1.605h-9.236c-1.072 0-1.609-.536-1.609-1.605V99.714c0-1.071.537-1.607 1.609-1.607h9.236c1.072 0 1.608.536 1.608 1.607v21.122h8.596l13.734-21.363c.32-.536.653-.899 1.007-1.085.345-.189.81-.281 1.405-.281h9.955c1.124 0 1.686.427 1.686 1.284 0 .483-.13.886-.398 1.206"/><path fill="#fff" fill-opacity="1" fill-rule="nonzero" stroke="none" d="M120.204 120.633c.968 0 1.452.484 1.452 1.452v8.341c0 .969-.484 1.452-1.452 1.452h-8.865v43.372c0 1.069-.536 1.605-1.608 1.605h-9.236c-1.073 0-1.608-.536-1.608-1.605v-53.01c0-1.071.535-1.607 1.608-1.607z"/><path fill="#009fe3" fill-opacity="1" fill-rule="nonzero" stroke="none" d="M197.195 176.855h-63.704c-1.068 0-1.605-.536-1.605-1.608v-9.235c0-1.073.537-1.608 1.605-1.608h63.704c1.072 0 1.607.535 1.607 1.608v9.235c0 1.072-.535 1.608-1.607 1.608"/><path fill="#009fe3" fill-opacity="1" fill-rule="nonzero" stroke="none" d="M120.048 110.557H77.763c-1.069 0-1.605-.535-1.605-1.607v-9.236c0-1.072.536-1.608 1.605-1.608h42.285c1.072 0 1.608.536 1.608 1.608v9.236c0 1.072-.536 1.607-1.608 1.607"/></g></svg>