<?xml version="1.0" encoding="UTF-8" standalone="yes"?>
<svg version="1.1" id="Layer_1" xmlns="http://www.w3.org/2000/svg" xmlns:xlink="http://www.w3.org/1999/xlink" x="0px" y="0px" width="500px" height="500px" viewBox="37 42 427 431" enable-background="new 0 0 500 500" xml:space="preserve">
  <g>
    <path fill="#1073C1" d="M145.486,415.625v50.694h-11.111v-50.694H145.486L145.486,415.625z"/>
    <path fill="#1073C1" d="M163.715,429.514v5.035h0.173c1.215-2.084,2.952-3.646,5.035-4.688c2.083-1.042,4.167-1.389,6.25-1.389&#xD;&#xA;&#x9;&#x9;c2.777,0,4.861,0.347,6.597,1.041c1.736,0.694,3.125,1.736,3.993,3.125c1.042,1.389,1.736,2.951,2.083,4.688&#xD;&#xA;&#x9;&#x9;c0.347,1.91,0.521,3.993,0.521,6.25v22.569h-10.069v-20.659c0-2.951-0.521-5.209-1.389-6.771s-2.604-2.257-5.035-2.257&#xD;&#xA;&#x9;&#x9;c-2.778,0-4.688,0.868-5.903,2.431s-1.91,4.341-1.91,7.986v19.271h-10.069v-36.632H163.715z"/>
    <path fill="#1073C1" d="M192.361,436.285v-6.771h6.076v-2.777c0-3.299,1.042-5.903,3.125-7.986s5.035-3.125,9.201-3.125&#xD;&#xA;&#x9;&#x9;c0.868,0,1.736,0,2.778,0.174c1.042,0.174,1.736,0.174,2.604,0.174v7.465c-1.215-0.174-2.431-0.174-3.646-0.174&#xD;&#xA;&#x9;&#x9;c-1.389,0-2.431,0.348-2.951,1.042c-0.521,0.694-0.868,1.736-0.868,3.299v2.257h6.944v6.771h-6.944v29.861h-10.069v-29.861h-6.25&#xD;&#xA;&#x9;&#x9;V436.285z"/>
    <path fill="#1073C1" d="M229.514,429.514v6.771h0.174c0.521-1.216,1.042-2.258,1.91-3.125c0.868-1.042,1.736-1.736,2.778-2.431&#xD;&#xA;&#x9;&#x9;s2.083-1.216,3.299-1.562c1.215-0.348,2.43-0.521,3.646-0.521c0.694,0,1.389,0.174,2.257,0.348v9.375&#xD;&#xA;&#x9;&#x9;c-0.521-0.174-1.042-0.174-1.736-0.174s-1.389-0.174-1.91-0.174c-1.91,0-3.472,0.348-4.688,0.868&#xD;&#xA;&#x9;&#x9;c-1.215,0.694-2.257,1.389-3.125,2.604c-0.694,1.042-1.389,2.257-1.736,3.646s-0.521,2.951-0.521,4.688v16.493h-10.07v-36.632&#xD;&#xA;&#x9;&#x9;h9.722V429.514z"/>
    <path fill="#1073C1" d="M248.785,434.896c1.042-1.562,2.43-2.777,3.993-3.819c1.562-0.868,3.473-1.562,5.383-2.083&#xD;&#xA;&#x9;&#x9;c2.083-0.348,3.992-0.521,6.076-0.521c1.91,0,3.646,0.173,5.555,0.347c1.91,0.174,3.646,0.694,5.209,1.562&#xD;&#xA;&#x9;&#x9;c1.562,0.694,2.777,1.736,3.819,3.125s1.562,3.125,1.562,5.382v19.098c0,1.736,0.174,3.299,0.347,4.688&#xD;&#xA;&#x9;&#x9;c0.174,1.562,0.521,2.604,1.043,3.472h-10.244c-0.174-0.521-0.347-1.215-0.521-1.735c-0.173-0.521-0.173-1.216-0.173-1.736&#xD;&#xA;&#x9;&#x9;c-1.562,1.736-3.473,2.777-5.73,3.472c-2.256,0.694-4.34,1.042-6.597,1.042c-1.735,0-3.298-0.174-4.86-0.694&#xD;&#xA;&#x9;&#x9;s-2.778-1.042-3.994-1.91s-2.083-2.083-2.604-3.472c-0.695-1.389-1.042-2.951-1.042-4.861c0-2.083,0.347-3.819,1.042-5.208&#xD;&#xA;&#x9;&#x9;c0.694-1.39,1.736-2.431,2.777-3.299c1.215-0.868,2.431-1.389,3.993-1.736c1.562-0.347,2.952-0.694,4.515-1.042&#xD;&#xA;&#x9;&#x9;c1.562-0.173,2.951-0.347,4.514-0.521c1.389-0.174,2.777-0.347,3.818-0.694c1.216-0.347,2.084-0.694,2.778-1.215&#xD;&#xA;&#x9;&#x9;c0.694-0.521,1.042-1.39,0.868-2.431c0-1.042-0.174-1.91-0.521-2.604c-0.347-0.694-0.867-1.215-1.389-1.562&#xD;&#xA;&#x9;&#x9;c-0.521-0.347-1.215-0.521-2.083-0.694s-1.562-0.174-2.604-0.174c-1.909,0-3.472,0.348-4.688,1.216&#xD;&#xA;&#x9;&#x9;c-1.215,0.868-1.736,2.257-1.909,4.34h-10.069C247.222,438.542,247.743,436.458,248.785,434.896z M268.75,449.132&#xD;&#xA;&#x9;&#x9;c-0.694,0.174-1.389,0.348-2.084,0.521c-0.693,0.174-1.562,0.174-2.256,0.348c-0.869,0.174-1.562,0.174-2.432,0.348&#xD;&#xA;&#x9;&#x9;c-0.693,0.173-1.562,0.347-2.256,0.521c-0.695,0.174-1.389,0.521-1.91,1.042c-0.521,0.347-1.041,0.867-1.389,1.562&#xD;&#xA;&#x9;&#x9;c-0.348,0.694-0.521,1.389-0.521,2.257s0.174,1.735,0.521,2.257c0.348,0.694,0.694,1.041,1.389,1.389&#xD;&#xA;&#x9;&#x9;c0.521,0.348,1.215,0.521,1.91,0.694c0.693,0.174,1.562,0.174,2.256,0.174c1.91,0,3.473-0.348,4.688-1.042&#xD;&#xA;&#x9;&#x9;c1.043-0.694,1.91-1.389,2.432-2.431c0.521-0.868,0.867-1.909,1.041-2.777s0.174-1.736,0.174-2.257v-3.819&#xD;&#xA;&#x9;&#x9;C269.965,448.611,269.444,448.958,268.75,449.132z"/>
    <path fill="#1073C1" d="M299.132,415.625v27.083l12.674-13.194h11.979l-13.89,13.542l15.452,23.264h-12.153L303.125,450&#xD;&#xA;&#x9;&#x9;l-3.819,3.819v12.674h-10.069v-50.694h9.896V415.625z"/>
    <path fill="#1073C1" d="M329.167,423.958v-8.333h10.069v8.333H329.167z M339.236,429.514v36.632h-10.069v-36.632H339.236z"/>
    <path fill="#1073C1" d="M367.361,429.514v6.771h-7.466v18.229c0,1.736,0.348,2.778,0.868,3.473&#xD;&#xA;&#x9;&#x9;c0.521,0.521,1.736,0.868,3.473,0.868c0.521,0,1.041,0,1.562,0c0.521,0,1.041-0.174,1.562-0.174v7.812&#xD;&#xA;&#x9;&#x9;c-0.868,0.174-1.736,0.174-2.778,0.347c-1.041,0-2.083,0-3.125,0c-1.562,0-3.125-0.173-4.514-0.347s-2.604-0.694-3.646-1.216&#xD;&#xA;&#x9;&#x9;c-1.042-0.694-1.91-1.562-2.604-2.604c-0.694-1.216-0.868-2.604-0.868-4.514v-21.702h-6.076v-6.771h6.076V418.75h10.069v10.938&#xD;&#xA;&#x9;&#x9;h7.466V429.514z"/>
  </g>
  <g id="Shape_21">
    <g>
      <path fill="#15ABC4" d="M453.577,173.988c-6.383-9.241-16.121-2.826-29.817-6.615c-12.008-3.322-16.221-15.291-42.547-15.756&#xD;&#xA;&#x9;&#x9;&#x9;c-16.962-0.3-259.277,2.327-274.567,3.656c-15.292,1.33-19.28,7.978-27.59,10.305c-8.31,2.328-24.997,0.798-30.315,7.113&#xD;&#xA;&#x9;&#x9;&#x9;c-5.319,6.316-7.779,11.435-7.58,24.798C43.155,238.375,57.116,373,248.583,373c191.466,0,204.562-154.037,206.89-168.663&#xD;&#xA;&#x9;&#x9;&#x9;C457.799,189.711,459.057,181.92,453.577,173.988z"/>
    </g>
  </g>
  <g id="Shape_22">
    <g>
      <path fill="#90D4E1" d="M396.505,183.195c-18.3,2.891-30.583,19.779-52.438,24.599c-16.77,3.698-41.551-10.221-62.161-7.562&#xD;&#xA;&#x9;&#x9;&#x9;c-20.608,2.658-33.868,13.421-48.946,11.551c-21.44-2.66-37.212-22.963-60.166-23.02c-23.689-0.059-37.063,17.763-58.836,17.701&#xD;&#xA;&#x9;&#x9;&#x9;c-16.307-0.046-29.418-11.801-43.379-13.129c-13.961-1.33-29.086,9.141-29.086,9.141v0.717C44.662,249.572,65.248,373,248.583,373&#xD;&#xA;&#x9;&#x9;&#x9;c191.466,0,204.562-154.037,206.89-168.663c0.783-4.925,1.442-9.072,1.769-12.714C433.143,192.64,421.066,179.317,396.505,183.195&#xD;&#xA;&#x9;&#x9;&#x9;z"/>
    </g>
  </g>
  <g id="Shape_21_copy">
    <g>
      <path fill="#066C89" d="M423.76,167.373c-12.008-3.322-16.221-15.291-42.547-15.756c-16.962-0.3-259.277,2.327-274.567,3.656&#xD;&#xA;&#x9;&#x9;&#x9;c-15.292,1.33-19.28,7.978-27.59,10.305c-8.31,2.328-24.997,0.798-30.315,7.113c-0.449,0.531-0.874,1.056-1.281,1.576&#xD;&#xA;&#x9;&#x9;&#x9;c7.425-3.804,21.993-3.72,31.596-5.697c8.453-1.741,12.299-7.978,27.59-9.308c15.29-1.329,257.605-4.33,274.567-4.03&#xD;&#xA;&#x9;&#x9;&#x9;c26.326,0.465,29.792,12.059,41.8,15.381c9.701,2.685,19.295-1.501,27.929,0.531C444.619,166.235,435.691,170.674,423.76,167.373z&#xD;&#xA;&#x9;&#x9;&#x9;"/>
    </g>
  </g>
  <g id="Shape_17">
    <g>
      <path d="M274.071,195.099c11.999-17.547,2.501-32.298-5.474-39.397c-8.444,7.05-16.132,16.667-10.796,39.358&#xD;&#xA;&#x9;&#x9;&#x9;c2.167,9.582-8.777,18.687-14.219,19.934c-5.442,1.245-96.929,14.613-117.088,17.49c-20.16,2.875-40.89,10.757-42.124,16.984&#xD;&#xA;&#x9;&#x9;&#x9;c-1.234,6.227,2.273,35.109,20.881,49.781c18.609,14.673,63.397,25.574,97.544,12.518c34.148-13.057,58.235-37.001,63.835-92.386&#xD;&#xA;&#x9;&#x9;&#x9;c1.393-13.775,37.223,1.78,44.248-17.643C296.522,185.745,279.598,192.283,274.071,195.099z"/>
    </g>
  </g>
  <g id="Shape_17_copy">
    <g>
      <path fill="#C1DAE6" d="M271.256,197.449c11.999-17.547,4.354-33.446-2.811-38.921c-8.444,7.05-12.213,15.959-9.155,36.623&#xD;&#xA;&#x9;&#x9;&#x9;c2.557,13.386-10.266,18.596-15.707,19.843c-5.442,1.245-96.699,15.887-116.859,18.764c-20.159,2.876-39.367,10.22-40.601,16.446&#xD;&#xA;&#x9;&#x9;&#x9;c-1.234,6.228,2.443,31.968,21.052,46.642c18.608,14.673,60.14,25.062,94.288,12.005s58.354-39.199,63.731-90.502&#xD;&#xA;&#x9;&#x9;&#x9;c1.442-13.769,37.445-2.302,43.586-16.423C296.055,188.867,276.783,194.632,271.256,197.449z"/>
    </g>
  </g>
  <g id="Shape_17_copy_2">
    <g>
      <path fill="#4D9BD6" d="M271.256,197.449c11.999-17.547,4.354-33.446-2.811-38.921c-8.444,7.05-12.213,15.959-9.155,36.623&#xD;&#xA;&#x9;&#x9;&#x9;c2.557,13.386-10.266,18.596-15.707,19.843c-5.442,1.245-96.699,15.887-116.859,18.764c-20.159,2.876-39.367,10.22-40.601,16.446&#xD;&#xA;&#x9;&#x9;&#x9;c-1.234,6.228,0.176,13.242,2.318,17.783c35.821,32.114,59.229,17.216,74.966,18.473c-2.618,16.925,19.673,30.701,37.25,24.487&#xD;&#xA;&#x9;&#x9;&#x9;c28.918-10.223,59.16-41.296,64.537-92.599c1.442-13.769,37.445-2.302,43.586-16.423&#xD;&#xA;&#x9;&#x9;&#x9;C296.055,188.867,276.783,194.632,271.256,197.449z"/>
    </g>
  </g>
  <g id="Shape_20">
    <g>
      <path fill="#2B75BE" d="M170.55,241.118c0,0-34.902-1.246-26.925,4.238c7.978,5.485,33.407,15.457,43.13,29.667&#xD;&#xA;&#x9;&#x9;&#x9;c9.723,14.21,25.429-2.742,25.429-2.742l3.989-16.454L170.55,241.118z"/>
    </g>
  </g>
  <g id="Shape_18">
    <g>
      <path d="M88.494,268.115c25.833,28.973,57.248,24.445,77.706,17.177C144.34,288.696,114.679,293.896,88.494,268.115z"/>
    </g>
  </g>
  <g id="Shape_19">
    <g>
      <path d="M178.367,276.638c-8.688-0.233-11.552,5.095-11.298,9.589c0.254,4.493,3.792,7.51,9.291,7.57&#xD;&#xA;&#x9;&#x9;&#x9;c5.498,0.059,10.731-1.943,10.864-8.718C187.356,278.305,182.583,276.752,178.367,276.638z"/>
    </g>
  </g>
  <g id="Shape_19_copy">
    <g>
      <path fill="#FFFFFF" d="M180.762,278.562c0.305,0.654,0.478,1.471,0.458,2.492c-0.077,3.975-3.147,5.149-6.373,5.114&#xD;&#xA;&#x9;&#x9;&#x9;c-3.067-0.033-5.09-1.636-5.411-4.06c-0.717,1.293-0.989,2.746-0.912,4.111c0.213,3.766,3.178,6.294,7.786,6.345&#xD;&#xA;&#x9;&#x9;&#x9;c4.608,0.049,8.993-1.63,9.104-7.306C185.497,281.059,183.327,279.256,180.762,278.562z"/>
    </g>
  </g>
  <g id="Shape_17_1_">
    <g>
      <path d="M283.152,111.895c12.3-19.279,0.831-34.238-8.477-41.218c-8.975,7.978-16.952,18.614-9.639,42.215&#xD;&#xA;&#x9;&#x9;&#x9;c2.991,9.973-8.643,20.277-14.625,21.939c-5.984,1.662-107.036,21.607-129.307,25.928c-22.272,4.321-44.875,13.96-45.872,20.61&#xD;&#xA;&#x9;&#x9;&#x9;c-0.998,6.647,4.653,36.897,26.26,51.189c21.607,14.294,72.132,22.936,109.362,6.98c37.229-15.956,62.6-42.755,65.484-101.549&#xD;&#xA;&#x9;&#x9;&#x9;c0.718-14.624,41.55-0.499,48.198-21.44C307.584,100.593,289.136,108.571,283.152,111.895z"/>
    </g>
  </g>
  <g id="Shape_17_copy_1_">
    <g>
      <path fill="#C1DAE6" d="M280.16,114.554c12.3-19.28,2.827-35.568-5.484-40.886c-8.975,7.978-12.631,17.618-7.979,39.224&#xD;&#xA;&#x9;&#x9;&#x9;c3.659,13.961-10.303,20.277-16.286,21.939c-5.984,1.662-106.703,22.936-128.975,27.258&#xD;&#xA;&#x9;&#x9;&#x9;c-22.271,4.322-43.213,13.297-44.209,19.944c-0.998,6.647,4.652,33.573,26.259,47.867c21.607,14.294,68.476,22.603,105.706,6.647&#xD;&#xA;&#x9;&#x9;&#x9;c37.23-15.955,62.6-45.083,65.483-99.555c0.775-14.621,41.553-4.82,47.535-20.111C307.253,103.917,286.144,111.23,280.16,114.554z&#xD;&#xA;&#x9;&#x9;&#x9;"/>
    </g>
  </g>
  <g id="Shape_17_copy_2_1_">
    <g>
      <path fill="#4D9BD6" d="M280.16,114.554c12.3-19.28,2.827-35.568-5.484-40.886c-8.975,7.978-12.631,17.618-7.979,39.224&#xD;&#xA;&#x9;&#x9;&#x9;c3.659,13.961-10.303,20.277-16.286,21.939c-5.984,1.662-106.703,22.936-128.975,27.258&#xD;&#xA;&#x9;&#x9;&#x9;c-22.271,4.322-43.213,13.297-44.209,19.944c-0.998,6.647,0.997,13.961,3.656,18.614c41.825,31.598,69.763,14.226,87.361,14.547&#xD;&#xA;&#x9;&#x9;&#x9;c-1.892,18.022,27.405,26.704,46.599,19.027c31.579-12.633,56.949-42.757,59.833-97.229c0.775-14.621,41.553-4.82,47.535-20.111&#xD;&#xA;&#x9;&#x9;&#x9;C307.253,103.917,286.144,111.23,280.16,114.554z"/>
    </g>
  </g>
  <g id="Shape_17_copy_4">
    <g>
      <path fill="#8CBEE3" d="M280.16,114.554c12.3-19.28,2.827-35.568-5.484-40.886c-8.975,7.978-12.631,17.618-7.979,39.224&#xD;&#xA;&#x9;&#x9;&#x9;c3.659,13.961-10.303,20.277-16.286,21.939c-5.984,1.662-106.703,22.936-128.975,27.258&#xD;&#xA;&#x9;&#x9;&#x9;c-22.271,4.322-43.213,13.297-44.209,19.944c-0.657,4.378-0.013,9.039,1.261,13.044c11.16,3.641,22.268,11.351,35.47,11.388&#xD;&#xA;&#x9;&#x9;&#x9;c21.773,0.062,35.147-17.759,58.836-17.701c22.954,0.057,38.725,20.359,60.166,23.02c5.459,0.676,10.681-0.305,16.1-1.957&#xD;&#xA;&#x9;&#x9;&#x9;c14.217-16.616,23.9-40.412,25.617-72.834c0.775-14.621,41.553-4.82,47.535-20.111C307.253,103.917,286.144,111.23,280.16,114.554&#xD;&#xA;&#x9;&#x9;&#x9;z"/>
    </g>
  </g>
  <g id="Shape_23">
    <g>
      <path fill="#4E8ECB" d="M102.49,182.78c9.473,5.235,26.925,14.958,31.661,21.69c4.737,6.731,12.216-7.23,12.216-7.23l2.742-16.704&#xD;&#xA;&#x9;&#x9;&#x9;C149.11,180.537,93.016,177.545,102.49,182.78z"/>
    </g>
  </g>
  <g id="Shape_18_1_">
    <g>
      <path d="M80.95,200.78c30.515,28.919,65.218,22.138,87.556,13.163C144.373,218.93,111.665,226.31,80.95,200.78z"/>
    </g>
  </g>
  <g id="Shape_19_1_">
    <g>
      <path d="M183.55,200.41c-9.687,0.293-12.537,6.411-11.967,11.397c0.57,4.986,4.701,8.12,10.828,7.836&#xD;&#xA;&#x9;&#x9;&#x9;c6.125-0.286,11.824-2.85,11.539-10.401C193.665,201.692,188.251,200.267,183.55,200.41z"/>
    </g>
  </g>
  <g id="Shape_19_copy_1_">
    <g>
      <path fill="#FFFFFF" d="M186.339,202.4c0.382,0.708,0.626,1.607,0.669,2.744c0.167,4.43-3.176,5.934-6.77,6.102&#xD;&#xA;&#x9;&#x9;&#x9;c-3.417,0.159-5.771-1.497-6.283-4.175c-0.716,1.486-0.926,3.122-0.753,4.635c0.478,4.18,3.939,6.805,9.074,6.567&#xD;&#xA;&#x9;&#x9;&#x9;c5.134-0.24,9.909-2.388,9.67-8.715C191.77,204.875,189.239,203.008,186.339,202.4z"/>
    </g>
  </g>
  <g id="Shape_17_2_">
    <g>
      <path d="M340.492,126.853c12.3-19.279,0.832-34.238-8.477-41.218c-8.975,7.978-16.952,18.614-9.639,42.215&#xD;&#xA;&#x9;&#x9;&#x9;c2.992,9.972-8.643,20.277-14.625,21.939c-5.984,1.662-107.036,21.607-129.308,25.927c-22.271,4.322-44.875,13.961-45.872,20.611&#xD;&#xA;&#x9;&#x9;&#x9;c-0.997,6.647,4.654,36.897,26.26,51.189c21.606,14.295,72.132,22.936,109.36,6.98c37.23-15.955,62.601-42.755,65.486-101.549&#xD;&#xA;&#x9;&#x9;&#x9;c0.717-14.623,41.55-0.498,48.197-21.439C364.924,115.551,346.476,123.529,340.492,126.853z"/>
    </g>
  </g>
  <g id="Shape_17_copy_2_">
    <g>
      <path fill="#C1DAE6" d="M337.501,129.513c12.3-19.28,2.826-35.568-5.485-40.886c-8.975,7.978-12.631,17.618-7.978,39.224&#xD;&#xA;&#x9;&#x9;&#x9;c3.658,13.961-10.304,20.277-16.286,21.939c-5.984,1.662-106.703,22.936-128.975,27.257c-22.271,4.322-43.212,13.297-44.21,19.944&#xD;&#xA;&#x9;&#x9;&#x9;c-0.997,6.647,4.654,33.572,26.26,47.866c21.606,14.294,68.476,22.603,105.706,6.648c37.229-15.956,62.6-45.083,65.482-99.555&#xD;&#xA;&#x9;&#x9;&#x9;c0.775-14.621,41.553-4.82,47.536-20.111C364.593,118.875,343.483,126.188,337.501,129.513z"/>
    </g>
  </g>
  <g id="Shape_17_copy_2_2_">
    <g>
      <path fill="#4D9BD6" d="M337.501,129.513c12.3-19.28,2.826-35.568-5.485-40.886c-8.975,7.978-12.631,17.618-7.978,39.224&#xD;&#xA;&#x9;&#x9;&#x9;c3.658,13.961-10.304,20.277-16.286,21.939c-5.984,1.662-106.703,22.936-128.975,27.257c-22.271,4.322-43.212,13.297-44.21,19.944&#xD;&#xA;&#x9;&#x9;&#x9;c-0.997,6.647,0.998,13.961,3.657,18.614c41.825,31.598,69.762,14.226,87.36,14.547c-1.891,18.022,27.406,26.704,46.599,19.027&#xD;&#xA;&#x9;&#x9;&#x9;c31.58-12.633,56.95-42.758,59.833-97.229c0.775-14.621,41.553-4.82,47.536-20.111&#xD;&#xA;&#x9;&#x9;&#x9;C364.593,118.875,343.483,126.188,337.501,129.513z"/>
    </g>
  </g>
  <g id="Shape_17_copy_5">
    <g>
      <path fill="#8CBEE3" d="M337.501,129.513c12.3-19.28,2.826-35.568-5.485-40.886c-8.975,7.978-12.631,17.618-7.978,39.224&#xD;&#xA;&#x9;&#x9;&#x9;c3.658,13.961-10.304,20.277-16.286,21.939c-5.984,1.662-106.703,22.936-128.975,27.257c-22.271,4.322-43.212,13.297-44.21,19.944&#xD;&#xA;&#x9;&#x9;&#x9;c-0.226,1.509-0.292,3.052-0.237,4.591c11.899-5.253,22.978-12.856,38.464-12.818c22.954,0.057,38.725,20.359,60.166,23.02&#xD;&#xA;&#x9;&#x9;&#x9;c15.078,1.87,28.337-8.893,48.946-11.551c11.783-1.521,24.929,2.376,37.162,5.303c7.157-14.343,11.81-32.063,12.948-53.585&#xD;&#xA;&#x9;&#x9;&#x9;c0.775-14.621,41.553-4.82,47.536-20.111C364.593,118.875,343.483,126.188,337.501,129.513z"/>
    </g>
  </g>
  <g id="Shape_17_copy_6">
    <g>
      <path fill="#4E8ECB" d="M184.561,180.537l-16.332-1.076c-14.861,3.92-27.622,9.547-32.038,14.537&#xD;&#xA;&#x9;&#x9;&#x9;c4.3-0.721,11.182-1.501,18.747-1.871c5.419-1.997,11.233-3.378,17.855-3.363c16.151,0.039,28.749,10.1,42.265,16.988&#xD;&#xA;&#x9;&#x9;&#x9;l22.355-12.849L184.561,180.537z"/>
    </g>
  </g>
  <g id="Shape_24">
    <g>
      <path fill="#2B75BE" d="M215.076,208.06c0,0-23.335-13.562-30.316-14.559c-6.98-0.998-15.08-1.743-19.545,0.2&#xD;&#xA;&#x9;&#x9;&#x9;c10.185,2.585,29.917,7.778,39.49,23.933C216.272,215.639,215.076,208.06,215.076,208.06z"/>
    </g>
  </g>
  <g id="Shape_18_2_">
    <g>
      <path d="M138.29,215.738c30.516,28.919,65.218,22.139,87.557,13.164C201.713,233.888,169.004,241.268,138.29,215.738z"/>
    </g>
  </g>
  <g id="Shape_19_2_">
    <g>
      <path d="M240.889,215.368c-9.686,0.293-12.536,6.411-11.966,11.397c0.57,4.986,4.701,8.12,10.828,7.836&#xD;&#xA;&#x9;&#x9;&#x9;c6.125-0.286,11.824-2.85,11.539-10.401C251.005,216.651,245.59,215.225,240.889,215.368z"/>
    </g>
  </g>
  <g id="Shape_19_copy_2_">
    <g>
      <path fill="#FFFFFF" d="M243.679,217.357c0.382,0.709,0.625,1.607,0.668,2.745c0.168,4.429-3.175,5.934-6.769,6.101&#xD;&#xA;&#x9;&#x9;&#x9;c-3.417,0.159-5.771-1.497-6.283-4.175c-0.716,1.486-0.926,3.122-0.753,4.636c0.478,4.18,3.94,6.805,9.074,6.567&#xD;&#xA;&#x9;&#x9;&#x9;c5.133-0.24,9.91-2.388,9.669-8.716C249.109,219.833,246.579,217.967,243.679,217.357z"/>
    </g>
  </g>
  <g id="Shape_17_3_">
    <g>
      <path d="M403.185,230.173c19.279-12.298,12.943-29.699,7.446-39.953c-11.502,3.45-23.471,6.991-26.787,31.476&#xD;&#xA;&#x9;&#x9;&#x9;c-1.492,10.303-16.386,14.743-22.512,13.728c-6.127-1.015-109.697,15.262-132.041,19.193&#xD;&#xA;&#x9;&#x9;&#x9;c-22.344,3.931-45.112,13.174-46.226,19.803c-1.113,6.63,4.008,36.974,25.361,51.644c21.353,14.668,71.72,24.193,109.224,8.892&#xD;&#xA;&#x9;&#x9;&#x9;c37.503-15.303,42.699-29.151,70.1-81.25c6.815-12.958,36.892,13.075,51.748-3.111&#xD;&#xA;&#x9;&#x9;&#x9;C430.852,228.978,410.011,229.681,403.185,230.173z"/>
    </g>
  </g>
  <g id="Shape_17_copy_3_">
    <g>
      <path fill="#C1DAE6" d="M387.706,236.297c19.718-11.583,25.165-31.644,20.18-40.158c-11.62,3.027-18.261,3.968-23.937,25.329&#xD;&#xA;&#x9;&#x9;&#x9;c-3.089,14.097-18.395,13.378-24.48,12.139c-6.085-1.24-107.524,18.413-129.869,22.345c-22.343,3.931-43.439,12.538-44.552,19.168&#xD;&#xA;&#x9;&#x9;&#x9;c-1.113,6.629,4.066,33.649,25.419,48.319c21.354,14.669,68.07,23.798,105.572,8.494c37.503-15.301,38.729-40.157,66.057-87.368&#xD;&#xA;&#x9;&#x9;&#x9;c7.334-12.67,37.207,16.586,49.486,5.688C424.15,231.905,394.546,236.056,387.706,236.297z"/>
    </g>
  </g>
  <g id="Shape_17_copy_2_3_">
    <g>
      <path fill="#4D9BD6" d="M398.009,233.261c19.248-12.348,17.227-32.852,11.911-41.165c-11.493,3.481-19.602,8.955-24.434,30.522&#xD;&#xA;&#x9;&#x9;&#x9;c-2.533,14.208-17.857,14.088-23.985,13.088c-6.129-0.999-109.557,16.312-131.901,20.244&#xD;&#xA;&#x9;&#x9;&#x9;c-22.343,3.931-43.439,12.538-44.552,19.168c-1.113,6.629,0.753,13.977,3.331,18.676c41.267,32.323,69.503,15.443,87.093,16.073&#xD;&#xA;&#x9;&#x9;&#x9;c-2.206,17.986,26.934,27.179,46.26,19.838c31.794-12.076,38.681-30.377,64.135-78.623c6.831-12.949,39.744,10.3,51.586-1.073&#xD;&#xA;&#x9;&#x9;&#x9;C429.308,231.97,404.834,232.751,398.009,233.261z"/>
    </g>
  </g>
  <g id="Shape_17_copy_3">
    <g>
      <path fill="#2B75BE" d="M240.759,254.026c-4.667,0.796-8.494,1.455-11.159,1.925c-13.181,2.319-25.924,6.266-34.391,10.474&#xD;&#xA;&#x9;&#x9;&#x9;c15.565-0.83,41.734,1.825,48.885,4.858c8.227,3.491,19.944-3.739,19.944-3.739L240.759,254.026z"/>
    </g>
  </g>
  <g id="Shape_18_3_">
    <g>
      <path d="M188.442,293.93c30.005,29.449,64.822,23.275,87.312,14.692C251.539,313.186,218.706,319.991,188.442,293.93z"/>
    </g>
  </g>
  <g id="Shape_19_3_">
    <g>
      <path d="M291.032,295.354c-9.689,0.125-12.646,6.19-12.163,11.186c0.483,4.996,4.559,8.201,10.688,8.023&#xD;&#xA;&#x9;&#x9;&#x9;s11.872-2.643,11.72-10.196C301.124,296.812,295.735,295.293,291.032,295.354z"/>
    </g>
  </g>
  <g id="Shape_19_copy_3_">
    <g>
      <path fill="#FFFFFF" d="M293.787,297.392c0.369,0.716,0.597,1.618,0.621,2.755c0.09,4.432-3.279,5.878-6.876,5.982&#xD;&#xA;&#x9;&#x9;&#x9;c-3.418,0.099-5.743-1.598-6.209-4.283c-0.741,1.472-0.98,3.105-0.834,4.622c0.406,4.186,3.821,6.873,8.958,6.724&#xD;&#xA;&#x9;&#x9;&#x9;s9.949-2.215,9.82-8.546C299.174,299.961,296.676,298.052,293.787,297.392z"/>
    </g>
  </g>
  <g id="Shape_17_4_">
    <g>
      <path d="M411.295,141.312c12.3-19.279,0.832-34.238-8.477-41.218c-8.975,7.978-16.953,18.615-9.64,42.215&#xD;&#xA;&#x9;&#x9;&#x9;c2.991,9.973-8.642,20.277-14.625,21.938c-5.983,1.664-107.035,21.608-129.307,25.928c-22.271,4.322-44.874,13.961-45.872,20.611&#xD;&#xA;&#x9;&#x9;&#x9;c-0.997,6.647,4.654,36.897,26.26,51.188c21.606,14.295,72.132,22.937,109.361,6.981c37.23-15.955,62.601-42.755,65.486-101.549&#xD;&#xA;&#x9;&#x9;&#x9;c0.716-14.624,41.55-0.499,48.197-21.44C435.727,130.011,417.277,137.989,411.295,141.312z"/>
    </g>
  </g>
  <g id="Shape_17_copy_4_">
    <g>
      <path fill="#C1DAE6" d="M408.304,143.972c12.3-19.28,2.825-35.567-5.485-40.886c-8.975,7.978-12.631,17.618-7.978,39.224&#xD;&#xA;&#x9;&#x9;&#x9;c3.657,13.961-10.304,20.277-16.287,21.938c-5.983,1.664-106.702,22.936-128.974,27.258c-22.271,4.322-43.213,13.297-44.21,19.944&#xD;&#xA;&#x9;&#x9;&#x9;c-0.997,6.648,4.654,33.573,26.261,47.866c21.605,14.295,68.476,22.604,105.705,6.648c37.23-15.956,62.6-45.083,65.483-99.555&#xD;&#xA;&#x9;&#x9;&#x9;c0.775-14.621,41.552-4.821,47.536-20.111C435.396,133.335,414.286,140.648,408.304,143.972z"/>
    </g>
  </g>
  <g id="Shape_17_copy_2_4_">
    <g>
      <path fill="#4D9BD6" d="M408.304,143.972c12.3-19.28,2.825-35.567-5.485-40.886c-8.975,7.978-12.631,17.618-7.978,39.224&#xD;&#xA;&#x9;&#x9;&#x9;c3.657,13.961-10.304,20.277-16.287,21.938c-5.983,1.664-106.702,22.936-128.974,27.258c-22.271,4.322-43.213,13.297-44.21,19.944&#xD;&#xA;&#x9;&#x9;&#x9;c-0.997,6.648,0.998,13.961,3.657,18.614c41.824,31.598,69.763,14.226,87.36,14.547c-1.891,18.022,27.406,26.704,46.599,19.027&#xD;&#xA;&#x9;&#x9;&#x9;c31.58-12.633,56.949-42.757,59.833-97.229c0.775-14.621,41.552-4.821,47.536-20.111&#xD;&#xA;&#x9;&#x9;&#x9;C435.396,133.335,414.286,140.648,408.304,143.972z"/>
    </g>
  </g>
  <g id="Shape_17_copy_7">
    <g>
      <path fill="#8CBEE3" d="M408.304,143.972c12.3-19.28,2.825-35.567-5.485-40.886c-8.975,7.978-12.631,17.618-7.978,39.224&#xD;&#xA;&#x9;&#x9;&#x9;c3.657,13.961-10.304,20.277-16.287,21.938c-5.983,1.664-106.702,22.936-128.974,27.258c-14.868,2.884-29.133,7.843-37.278,12.799&#xD;&#xA;&#x9;&#x9;&#x9;c6.563,3.554,13.274,6.562,20.658,7.478c15.078,1.87,28.337-8.893,48.946-11.551c20.61-2.659,45.392,11.261,62.161,7.562&#xD;&#xA;&#x9;&#x9;&#x9;c21.855-4.82,34.139-21.708,52.438-24.599c1.616-0.255,3.178-0.431,4.694-0.548c0.771-5.154,1.319-10.562,1.619-16.237&#xD;&#xA;&#x9;&#x9;&#x9;c0.775-14.621,41.552-4.821,47.536-20.111C435.396,133.335,414.286,140.648,408.304,143.972z"/>
    </g>
  </g>
  <g id="Shape_17_copy_8">
    <g>
      <path fill="#5195D6" d="M238.442,194.079c-10.582,2.834-20.048,6.522-26.122,10.214c7.561-1.71,24.604-4.843,31.94-5.143&#xD;&#xA;&#x9;&#x9;&#x9;C242.996,196.975,240.834,195.324,238.442,194.079z"/>
    </g>
  </g>
  <g id="Shape_18_4_">
    <g>
      <path d="M209.092,230.198c30.515,28.919,65.219,22.139,87.557,13.163C272.516,248.348,239.807,255.727,209.092,230.198z"/>
    </g>
  </g>
  <g id="Shape_19_4_">
    <g>
      <path d="M311.692,229.828c-9.687,0.293-12.536,6.411-11.968,11.396c0.571,4.986,4.701,8.121,10.827,7.836&#xD;&#xA;&#x9;&#x9;&#x9;c6.126-0.285,11.825-2.85,11.54-10.401C321.808,231.11,316.394,229.685,311.692,229.828z"/>
    </g>
  </g>
  <g id="Shape_19_copy_4_">
    <g>
      <path fill="#FFFFFF" d="M314.482,231.817c0.381,0.709,0.626,1.607,0.669,2.744c0.166,4.43-3.178,5.934-6.771,6.102&#xD;&#xA;&#x9;&#x9;&#x9;c-3.415,0.159-5.77-1.497-6.282-4.175c-0.715,1.486-0.926,3.122-0.753,4.635c0.479,4.18,3.939,6.805,9.073,6.567&#xD;&#xA;&#x9;&#x9;&#x9;c5.134-0.239,9.909-2.387,9.67-8.715C319.912,234.293,317.381,232.426,314.482,231.817z"/>
    </g>
  </g>
  <g id="Shape_22_copy">
    <g>
      <path fill="#087390" d="M70.579,193.335c-13.961-1.33-29.086,9.141-29.086,9.141v0.339c5.536-2.697,18.441-8.25,29.086-7.236&#xD;&#xA;&#x9;&#x9;&#x9;c2.396,0.228,4.766,0.835,7.131,1.688l-0.672-2.642C74.895,194,72.747,193.542,70.579,193.335z M113.958,206.464&#xD;&#xA;&#x9;&#x9;&#x9;c-13.146-0.038-24.217-7.684-35.329-11.343l1.064,2.914c10.758,4.444,21.539,13.13,34.265,13.167&#xD;&#xA;&#x9;&#x9;&#x9;c7.26,0.021,13.585-1.92,19.672-4.513c-0.265-1.257-0.656-3.169-0.856-4.437C126.95,204.696,120.878,206.484,113.958,206.464z&#xD;&#xA;&#x9;&#x9;&#x9; M344.066,207.794c-16.77,3.698-41.551-10.221-62.161-7.562c-20.608,2.658-33.868,13.421-48.946,11.551&#xD;&#xA;&#x9;&#x9;&#x9;c-7.357-0.913-14.047-3.902-20.589-7.44l-3.988,2.767c7.828,4.449,15.719,8.56,24.577,9.659&#xD;&#xA;&#x9;&#x9;&#x9;c15.078,1.87,28.337-8.893,48.946-11.552c20.61-2.658,45.392,11.26,62.161,7.563c21.855-4.82,34.139-21.709,52.438-24.6&#xD;&#xA;&#x9;&#x9;&#x9;c1.54-0.243,3.034-0.42,4.489-0.544l0.751-5.03c-1.687,0.111-3.43,0.303-5.24,0.588&#xD;&#xA;&#x9;&#x9;&#x9;C378.205,186.086,365.922,202.974,344.066,207.794z M172.794,188.764c-15.495-0.038-26.577,7.573-38.482,12.826&#xD;&#xA;&#x9;&#x9;&#x9;c0.072,0.979,0.244,3.214,0.411,4.626c11.751-5.171,22.755-12.502,38.072-12.465c12.89,0.031,23.514,6.448,34.15,12.54&#xD;&#xA;&#x9;&#x9;&#x9;l3.985-2.735C198.924,196.912,187.292,188.799,172.794,188.764z M403.033,182.537l-0.781,5.004&#xD;&#xA;&#x9;&#x9;&#x9;c18.59-1.208,30.839,6.422,49.397,4.057C433.193,190.698,421.602,181.743,403.033,182.537z"/>
    </g>
  </g>
  <g id="Shape_22_copy_2">
    <g>
      <path fill="#3489B6" d="M113.958,206.464c-13.146-0.038-24.217-7.684-35.329-11.343l1.064,2.914&#xD;&#xA;&#x9;&#x9;&#x9;c10.758,4.444,21.539,13.13,34.265,13.167c7.26,0.021,13.585-1.92,19.672-4.513c-0.265-1.257-0.656-3.169-0.856-4.437&#xD;&#xA;&#x9;&#x9;&#x9;C126.95,204.696,120.878,206.484,113.958,206.464z M396.505,183.195c-18.3,2.891-30.583,19.779-52.438,24.599&#xD;&#xA;&#x9;&#x9;&#x9;c-16.77,3.698-41.551-10.221-62.161-7.562c-20.608,2.658-33.868,13.421-48.946,11.551c-7.357-0.913-14.047-3.902-20.589-7.44&#xD;&#xA;&#x9;&#x9;&#x9;l-3.988,2.767c7.828,4.449,15.719,8.56,24.577,9.659c15.078,1.87,28.337-8.893,48.946-11.552&#xD;&#xA;&#x9;&#x9;&#x9;c20.61-2.658,45.392,11.26,62.161,7.563c21.855-4.82,34.139-21.709,52.438-24.6c1.54-0.243,3.034-0.42,4.489-0.544l0.751-5.03&#xD;&#xA;&#x9;&#x9;&#x9;C400.059,182.718,398.315,182.91,396.505,183.195z M172.794,188.764c-15.495-0.038-26.577,7.573-38.482,12.826&#xD;&#xA;&#x9;&#x9;&#x9;c0.072,0.979,0.244,3.214,0.411,4.626c11.751-5.171,22.755-12.502,38.072-12.465c12.89,0.031,23.514,6.448,34.15,12.54&#xD;&#xA;&#x9;&#x9;&#x9;l3.985-2.735C198.924,196.912,187.292,188.799,172.794,188.764z"/>
    </g>
  </g>
  <g id="Shape_2">
    <g>
      <path d="M358.774,130.177l0.998-9.474c0,0,1.496-34.903,3.988-67.811c-37.895-5.983-174.513-5.983-174.513-5.983l0.497,40.886&#xD;&#xA;&#x9;&#x9;&#x9;l-56.841,1.995c0,0-0.998,28.42,0,39.39c-7.479-0.499-25.926,1.994-34.901,3.49c0,2.992,2.493,42.382,3.49,50.858&#xD;&#xA;&#x9;&#x9;&#x9;c17.95,0.499,126.148,13.961,143.6,15.956c14.459-2.493,125.65-17.452,137.617-18.947c0-6.482,1.993-50.359,1.993-50.359H358.774z&#xD;&#xA;&#x9;&#x9;&#x9;"/>
    </g>
  </g>
  <g id="Shape_3">
    <g>
      <path fill="#2AB6FF" d="M330.853,51.896c-6.481-0.499-139.61-2.493-139.61-2.493l0.998,37.396c0,0,127.145,2.992,136.121,3.49&#xD;&#xA;&#x9;&#x9;&#x9;C327.861,87.297,330.354,62.865,330.853,51.896z"/>
    </g>
  </g>
  <g id="Shape_3_copy">
    <g>
      <path fill="#2AB6FF" d="M275.258,96.022c-6.505-0.684-140.358-4.737-140.358-4.737l1,37.424c0,0,127.6,6.624,136.608,7.379&#xD;&#xA;&#x9;&#x9;&#x9;C272.007,133.083,274.758,106.978,275.258,96.022z"/>
    </g>
  </g>
  <g id="Shape_4">
    <g>
      <path fill="#2AB6FF" d="M100.329,134.332c0,0,2.991,41.551,2.991,47.202c12.3,0.997,130.969,13.296,138.947,14.958&#xD;&#xA;&#x9;&#x9;&#x9;c0-21.939,0.665-46.869,0.997-51.191C225.646,144.305,100.329,134.332,100.329,134.332z"/>
    </g>
  </g>
  <g id="Shape_5">
    <g>
      <polygon fill="#79D7FF" points="134.567,130.343 108.972,132.67 244.261,142.642 271.519,139.318 &#x9;&#x9;"/>
    </g>
  </g>
  <g id="Shape_6">
    <g>
      <polygon fill="#79D7FF" points="192.406,89.79 165.149,90.122 275.507,93.114 292.46,92.117 &#x9;&#x9;"/>
    </g>
  </g>
  <g id="Shape_7">
    <g>
      <polygon fill="#136B9C" points="245.59,144.969 245.59,197.156 272.516,192.836 273.513,140.98 &#x9;&#x9;"/>
    </g>
  </g>
  <g id="Shape_8">
    <g>
      <polygon fill="#136B9C" points="276.305,141.246 276.505,192.903 300.238,189.312 300.238,138.854 &#x9;&#x9;"/>
    </g>
  </g>
  <g id="Shape_9">
    <g>
      <polygon fill="#136B9C" points="303.629,138.055 302.831,188.914 324.172,185.523 325.967,136.26 &#x9;&#x9;"/>
    </g>
  </g>
  <g id="Shape_10">
    <g>
      <polygon fill="#136B9C" points="329.157,136.061 327.562,185.523 352.493,181.933 355.085,133.867 &#x9;&#x9;"/>
    </g>
  </g>
  <g id="Shape_11">
    <g>
      <polygon fill="#136B9C" points="358.676,133.667 355.284,181.733 380.016,177.944 382.808,132.87 &#x9;&#x9;"/>
    </g>
  </g>
  <g id="Shape_12">
    <g>
      <polygon fill="#136B9C" points="330.554,93.18 328.958,133.269 355.685,131.274 358.076,92.582 &#x9;&#x9;"/>
    </g>
  </g>
  <g id="Shape_13">
    <g>
      <polygon fill="#136B9C" points="304.826,93.579 303.03,135.662 325.768,133.468 327.96,93.18 &#x9;&#x9;"/>
    </g>
  </g>
  <g id="Shape_14">
    <g>
      <polygon fill="#136B9C" points="278.499,95.374 276.904,138.854 300.238,136.26 302.632,93.579 &#x9;&#x9;"/>
    </g>
  </g>
  <g id="Shape_15">
    <g>
      <polygon fill="#136B9C" points="333.546,51.896 331.152,90.587 358.477,89.989 361.866,54.289 &#x9;&#x9;"/>
    </g>
  </g>
  <g id="Shape_16" opacity="0.5412">
    <g>
      <path d="M359.474,55.685l-23.536-1.995c0,0-0.996,12.167-1.194,17.95c-0.201,5.784-0.6,17.551-0.6,17.551&#xD;&#xA;&#x9;&#x9;&#x9;s19.546-0.399,22.537-0.998C356.282,84.604,359.474,55.685,359.474,55.685z M335.724,87.738&#xD;&#xA;&#x9;&#x9;&#x9;c0.377-22.728,1.338-32.874,1.338-32.874l3.303,0.154c0,0-1.602,20.104-1.714,32.588C337.23,87.635,336.584,87.721,335.724,87.738&#xD;&#xA;&#x9;&#x9;&#x9;z M339.856,87.654c0.565-22.472,1.664-32.342,1.664-32.342l3.533,0.309c0,0-1.845,19.295-2.06,32.076&#xD;&#xA;&#x9;&#x9;&#x9;C341.472,87.642,340.779,87.688,339.856,87.654z M344.247,87.565c0.731-22.208,1.88-31.948,1.88-31.948l3.447,0.302&#xD;&#xA;&#x9;&#x9;&#x9;c0,0-1.952,19.058-2.264,31.689C345.824,87.553,345.148,87.599,344.247,87.565z M348.316,87.482&#xD;&#xA;&#x9;&#x9;&#x9;c0.88-21.962,2.076-31.583,2.076-31.583l3.367,0.296c0,0-2.049,18.838-2.446,31.331C349.86,87.471,349.198,87.516,348.316,87.482z&#xD;&#xA;&#x9;&#x9;&#x9; M352.693,87.395c1.036-21.701,2.278-31.122,2.278-31.122l3.285,0.219c0,0-2.149,18.602-2.639,30.946&#xD;&#xA;&#x9;&#x9;&#x9;C354.2,87.382,353.554,87.427,352.693,87.395z"/>
    </g>
  </g>
  <g id="Shape_16_copy" opacity="0.5412">
    <g>
      <path d="M355.462,95.008l-23.323,0.296c0,0-0.615,12.252-0.646,18.048c-0.032,5.793-0.092,17.573-0.092,17.573&#xD;&#xA;&#x9;&#x9;&#x9;s19.404-1.347,22.448-2.114C353.305,125.128,355.462,95.008,355.462,95.008z M335.737,129.121&#xD;&#xA;&#x9;&#x9;&#x9;c-1.385,0.098-2.011,0.216-2.847,0.275c-0.277-22.778,0.356-33.023,0.356-33.023l3.188-0.163&#xD;&#xA;&#x9;&#x9;&#x9;C336.435,96.209,335.48,116.563,335.737,129.121z M340.015,128.995c-1.505,0.021-2.186,0.102-3.094,0.114&#xD;&#xA;&#x9;&#x9;&#x9;c-0.124-22.67,0.645-32.714,0.645-32.714l3.459-0.029C341.024,96.366,339.826,116.053,340.015,128.995z M341.254,128.799&#xD;&#xA;&#x9;&#x9;&#x9;c0.01-22.559,0.826-32.541,0.826-32.541l3.418-0.028c0,0-1.298,19.581-1.186,32.458&#xD;&#xA;&#x9;&#x9;&#x9;C342.824,128.707,342.151,128.788,341.254,128.799z M348.344,128.399c-1.474,0.018-2.139,0.099-3.027,0.109&#xD;&#xA;&#x9;&#x9;&#x9;c0.134-22.453,0.995-32.379,0.995-32.379l3.379-0.028C349.69,96.102,348.303,115.584,348.344,128.399z M349.74,128.193&#xD;&#xA;&#x9;&#x9;&#x9;c0.266-22.341,1.174-32.131,1.174-32.131l3.338-0.099c0,0-1.485,19.373-1.522,32.122&#xD;&#xA;&#x9;&#x9;&#x9;C351.274,128.103,350.616,128.182,349.74,128.193z"/>
    </g>
  </g>
  <g id="Shape_16_copy_4" opacity="0.5412">
    <g>
      <path d="M379.644,134.814l-19.182,0.784c0,0-0.983,14.376-1.246,21.339c-0.269,7.071-0.823,21.803-0.823,21.803&#xD;&#xA;&#x9;&#x9;&#x9;s16.673-1.211,19.356-2.126C377.318,171.69,379.644,134.814,379.644,134.814z M359.71,176.839&#xD;&#xA;&#x9;&#x9;&#x9;c0.708-28.555,1.603-40.025,1.603-40.025l2.582-0.244c0,0-1.504,23.78-1.772,39.99&#xD;&#xA;&#x9;&#x9;&#x9;C360.947,176.651,360.415,176.784,359.71,176.839z M363.124,176.573c0.727-28.513,1.681-39.808,1.681-39.808l2.824-0.093&#xD;&#xA;&#x9;&#x9;&#x9;c0,0-1.594,23.104-1.868,39.833C364.477,176.493,363.896,176.581,363.124,176.573z M366.824,176.285&#xD;&#xA;&#x9;&#x9;&#x9;c0.722-28.481,1.672-39.757,1.672-39.757l2.814-0.093c0,0-1.584,23.076-1.855,39.784&#xD;&#xA;&#x9;&#x9;&#x9;C368.174,176.206,367.595,176.292,366.824,176.285z M370.325,176.014c0.715-28.452,1.66-39.71,1.66-39.71l2.808-0.092&#xD;&#xA;&#x9;&#x9;&#x9;c0,0-1.577,23.05-1.847,39.735C371.669,175.934,371.093,176.021,370.325,176.014z M374.165,175.714&#xD;&#xA;&#x9;&#x9;&#x9;c0.71-28.419,1.648-39.572,1.648-39.572l2.8-0.177c0,0-1.569,23.021-1.835,39.683C375.506,175.636,374.93,175.722,374.165,175.714&#xD;&#xA;&#x9;&#x9;&#x9;z"/>
    </g>
  </g>
  <g id="Shape_16_copy_5" opacity="0.5412">
    <g>
      <path d="M352.434,136.522l-20.717,1.955c0,0-0.923,14.669-1.14,21.761c-0.221,7.203-0.677,22.208-0.677,22.208&#xD;&#xA;&#x9;&#x9;&#x9;s18.002-2.238,20.893-3.33C350.281,174.138,352.434,136.522,352.434,136.522z M331.305,180.432&#xD;&#xA;&#x9;&#x9;&#x9;c0.488-29.061,1.342-40.771,1.342-40.771l2.789-0.403c0,0-1.395,24.256-1.526,40.745&#xD;&#xA;&#x9;&#x9;&#x9;C332.641,180.167,332.067,180.334,331.305,180.432z M334.992,179.957c0.508-29.02,1.429-40.556,1.429-40.556l3.05-0.264&#xD;&#xA;&#x9;&#x9;&#x9;c0,0-1.497,23.574-1.631,40.592C336.452,179.793,335.825,179.917,334.992,179.957z M338.989,179.44&#xD;&#xA;&#x9;&#x9;&#x9;c0.5-28.987,1.417-40.504,1.417-40.504l3.041-0.263c0,0-1.488,23.546-1.62,40.54C340.444,179.278,339.818,179.401,338.989,179.44z&#xD;&#xA;&#x9;&#x9;&#x9; M342.768,178.953c0.496-28.957,1.407-40.455,1.407-40.455l3.031-0.263c0,0-1.479,23.519-1.607,40.491&#xD;&#xA;&#x9;&#x9;&#x9;C344.219,178.792,343.595,178.914,342.768,178.953z M346.912,178.418c0.491-28.924,1.396-40.314,1.396-40.314l3.024-0.349&#xD;&#xA;&#x9;&#x9;&#x9;c0,0-1.47,23.488-1.597,40.437C348.361,178.256,347.74,178.379,346.912,178.418z"/>
    </g>
  </g>
  <g id="Shape_16_copy_6" opacity="0.5412">
    <g>
      <path d="M323.514,138.803l-17.951,1.862c0,0-0.419,15.573-0.427,22.886c-0.008,7.287-0.022,22.028-0.022,22.028&#xD;&#xA;&#x9;&#x9;&#x9;s14.626-1.18,17.03-2.1C321.72,178.679,323.514,138.803,323.514,138.803z M308.283,183.431c-1.021,0.089-1.479,0.222-2.09,0.276&#xD;&#xA;&#x9;&#x9;&#x9;c-0.254-28.564,0.188-41.747,0.188-41.747l2.365-0.394C308.746,141.567,308.073,167.715,308.283,183.431z M311.466,183.375&#xD;&#xA;&#x9;&#x9;&#x9;c-1.127-0.011-1.634,0.076-2.309,0.069c-0.124-28.657,0.435-41.705,0.435-41.705l2.613-0.241&#xD;&#xA;&#x9;&#x9;&#x9;C312.205,141.498,311.314,167.038,311.466,183.375z M312.397,183.157c-0.005-28.766,0.61-41.862,0.61-41.862l2.63-0.243&#xD;&#xA;&#x9;&#x9;&#x9;c0,0-1.003,25.641-0.92,42.034C313.585,183.076,313.075,183.162,312.397,183.157z M315.488,182.88&#xD;&#xA;&#x9;&#x9;&#x9;c0.108-28.867,0.78-42.009,0.78-42.009l2.645-0.245c0,0-1.109,25.737-1.092,42.184C316.683,182.8,316.17,182.888,315.488,182.88z&#xD;&#xA;&#x9;&#x9;&#x9; M318.908,182.576c0.237-28.984,0.969-42.079,0.969-42.079l2.663-0.342c0,0-1.229,25.844-1.283,42.351&#xD;&#xA;&#x9;&#x9;&#x9;C320.111,182.495,319.596,182.583,318.908,182.576z"/>
    </g>
  </g>
  <g id="Shape_16_copy_7" opacity="0.5412">
    <g>
      <path d="M297.658,141.296l-18.491,1.896c0,0-0.289,15.857-0.231,23.304c0.058,7.419,0.179,22.431,0.179,22.431&#xD;&#xA;&#x9;&#x9;&#x9;s15.069-1.201,17.537-2.138C296.172,181.9,297.658,141.296,297.658,141.296z M282.363,186.738&#xD;&#xA;&#x9;&#x9;&#x9;c-1.052,0.093-1.523,0.228-2.151,0.282c-0.523-29.085-0.189-42.509-0.189-42.509l2.437-0.4&#xD;&#xA;&#x9;&#x9;&#x9;C282.459,144.111,282.002,170.736,282.363,186.738z M285.644,186.683c-1.162-0.012-1.683,0.077-2.379,0.069&#xD;&#xA;&#x9;&#x9;&#x9;c-0.392-29.18,0.066-42.467,0.066-42.467l2.692-0.245C286.023,144.041,285.338,170.046,285.644,186.683z M288.994,186.389&#xD;&#xA;&#x9;&#x9;&#x9;c-1.167-0.011-1.693,0.077-2.393,0.071c-0.269-29.291,0.248-42.626,0.248-42.626l2.708-0.247&#xD;&#xA;&#x9;&#x9;&#x9;C289.558,143.586,288.758,169.696,288.994,186.389z M292.191,186.108c-1.175-0.01-1.704,0.078-2.405,0.071&#xD;&#xA;&#x9;&#x9;&#x9;c-0.152-29.396,0.421-42.777,0.421-42.777l2.723-0.249C292.93,143.153,292.021,169.361,292.191,186.108z M293.309,185.869&#xD;&#xA;&#x9;&#x9;&#x9;c-0.019-29.514,0.616-42.848,0.616-42.848l2.74-0.349c0,0-1.03,26.316-0.935,43.125&#xD;&#xA;&#x9;&#x9;&#x9;C294.548,185.786,294.017,185.875,293.309,185.869z"/>
    </g>
  </g>
  <g id="Shape_16_copy_8" opacity="0.5412">
    <g>
      <path d="M271.148,143.987l-22.823,3.228c0,0-0.216,16.305-0.075,23.947c0.138,7.615,0.42,23.022,0.42,23.022&#xD;&#xA;&#x9;&#x9;&#x9;s18.602-2.278,21.643-3.411C269.676,185.788,271.148,143.987,271.148,143.987z M250.008,192.153&#xD;&#xA;&#x9;&#x9;&#x9;c-0.907-29.833-0.614-43.641-0.614-43.641l3.003-0.58c0,0-0.324,27.374,0.265,43.782&#xD;&#xA;&#x9;&#x9;&#x9;C251.364,191.881,250.783,192.052,250.008,192.153z M256.714,191.428c-1.436,0.069-2.078,0.195-2.938,0.237&#xD;&#xA;&#x9;&#x9;&#x9;c-0.744-29.939-0.297-43.615-0.297-43.615l3.321-0.438C256.801,147.612,256.188,174.365,256.714,191.428z M260.851,190.895&#xD;&#xA;&#x9;&#x9;&#x9;c-1.442,0.07-2.09,0.197-2.954,0.237c-0.594-30.06-0.076-43.79-0.076-43.79l3.342-0.442&#xD;&#xA;&#x9;&#x9;&#x9;C261.162,146.9,260.411,173.768,260.851,190.895z M264.797,190.385c-1.451,0.069-2.102,0.198-2.971,0.24&#xD;&#xA;&#x9;&#x9;&#x9;c-0.451-30.177,0.136-43.958,0.136-43.958l3.363-0.444C265.325,146.222,264.438,173.198,264.797,190.385z M269.165,189.822&#xD;&#xA;&#x9;&#x9;&#x9;c-1.458,0.07-2.114,0.198-2.988,0.241c-0.29-30.308,0.375-44.044,0.375-44.044l3.383-0.548&#xD;&#xA;&#x9;&#x9;&#x9;C269.935,145.471,268.898,172.567,269.165,189.822z"/>
    </g>
  </g>
  <g id="Shape_16_copy_2" opacity="0.5412">
    <g>
      <path d="M325.147,95.382l-18.654,0.43c0,0-0.486,12.775-0.512,18.815c-0.024,6.039-0.073,18.317-0.073,18.317&#xD;&#xA;&#x9;&#x9;&#x9;s15.485-1.219,17.937-1.997C323.406,127.069,325.147,95.382,325.147,95.382z M309.35,131.103c-1.101,0.09-1.598,0.208-2.261,0.262&#xD;&#xA;&#x9;&#x9;&#x9;c-0.22-23.756,0.283-34.444,0.283-34.444l2.532-0.185C309.904,96.736,309.145,117.991,309.35,131.103z M312.754,131.012&#xD;&#xA;&#x9;&#x9;&#x9;c-1.201,0.007-1.742,0.086-2.465,0.089c-0.098-23.682,0.513-34.178,0.513-34.178l2.757-0.045&#xD;&#xA;&#x9;&#x9;&#x9;C313.559,96.878,312.604,117.474,312.754,131.012z M313.742,130.818c0.006-23.607,0.658-34.058,0.658-34.058l2.734-0.045&#xD;&#xA;&#x9;&#x9;&#x9;c0,0-1.038,20.521-0.949,34.015C314.995,130.736,314.458,130.814,313.742,130.818z M319.416,130.463&#xD;&#xA;&#x9;&#x9;&#x9;c-1.182,0.006-1.715,0.084-2.427,0.087c0.107-23.536,0.796-33.945,0.796-33.945l2.714-0.044&#xD;&#xA;&#x9;&#x9;&#x9;C320.499,96.561,319.384,117.013,319.416,130.463z M320.538,130.259c0.213-23.46,0.944-33.746,0.944-33.746l2.69-0.12&#xD;&#xA;&#x9;&#x9;&#x9;c0,0-1.199,20.376-1.229,33.78C321.772,130.178,321.243,130.256,320.538,130.259z"/>
    </g>
  </g>
  <g id="Shape_16_copy_3" opacity="0.5412">
    <g>
      <path d="M300.216,96.878l-19.137,0.441c0,0-0.499,13.113-0.524,19.314c-0.024,6.199-0.075,18.803-0.075,18.803&#xD;&#xA;&#x9;&#x9;&#x9;s15.887-1.252,18.402-2.05C298.431,129.407,300.216,96.878,300.216,96.878z M284.009,133.547&#xD;&#xA;&#x9;&#x9;&#x9;c-1.129,0.092-1.638,0.212-2.317,0.268c-0.227-24.387,0.289-35.358,0.289-35.358l2.598-0.189&#xD;&#xA;&#x9;&#x9;&#x9;C284.578,98.268,283.799,120.086,284.009,133.547z M287.501,133.453c-1.23,0.007-1.785,0.088-2.526,0.092&#xD;&#xA;&#x9;&#x9;&#x9;c-0.102-24.311,0.524-35.085,0.524-35.085l2.828-0.047C288.327,98.413,287.348,119.557,287.501,133.453z M288.516,133.254&#xD;&#xA;&#x9;&#x9;&#x9;c0.008-24.234,0.677-34.962,0.677-34.962l2.805-0.046c0,0-1.065,21.067-0.974,34.918&#xD;&#xA;&#x9;&#x9;&#x9;C289.802,133.17,289.251,133.251,288.516,133.254z M294.337,132.891c-1.212,0.006-1.76,0.086-2.488,0.09&#xD;&#xA;&#x9;&#x9;&#x9;c0.108-24.162,0.816-34.847,0.816-34.847l2.782-0.045C295.447,98.088,294.305,119.083,294.337,132.891z M295.487,132.682&#xD;&#xA;&#x9;&#x9;&#x9;c0.219-24.084,0.97-34.642,0.97-34.642l2.76-0.124c0,0-1.229,20.917-1.261,34.677&#xD;&#xA;&#x9;&#x9;&#x9;C296.755,132.598,296.212,132.678,295.487,132.682z"/>
    </g>
  </g>
  <g id="Shape_1">
    <g>
      <path fill="#1076C3" d="M281.89,74.433l-4.985-0.398l0.598-1.995c0,0,6.581,0.399,6.581-4.188&#xD;&#xA;&#x9;&#x9;&#x9;c-4.188-0.998-5.983,0.598-5.983,0.598s0.399-5.186-2.792-6.781c-2.593,2.992-1.197,8.776-1.197,8.776l-5.982-0.2l-0.998-4.787&#xD;&#xA;&#x9;&#x9;&#x9;h-3.59V57.48h-5.583v3.191h-8.178v3.391h-4.189v4.188h-4.387l-0.398,2.991l-3.192-1.196l-2.194,1.595l5.585,0.997&#xD;&#xA;&#x9;&#x9;&#x9;c0,0,0.598,10.771,15.356,11.369c14.759,0.598,19.944-8.178,19.944-8.178l4.589,0.399h3.389L281.89,74.433z"/>
    </g>
  </g>
  <g id="Shape_1_copy">
    <g>
      <path fill="#1076C3" d="M222.89,117.164l-5.236-0.419l0.628-2.095c0,0,6.912,0.419,6.912-4.398&#xD;&#xA;&#x9;&#x9;&#x9;c-4.398-1.047-6.283,0.628-6.283,0.628s0.418-5.445-2.932-7.121c-2.724,3.141-1.257,9.215-1.257,9.215l-6.283-0.21l-1.047-5.026&#xD;&#xA;&#x9;&#x9;&#x9;h-3.77v-8.377h-5.864v3.351h-8.587v3.561h-4.398v4.398h-4.608l-0.419,3.141l-3.351-1.257l-2.304,1.676l5.864,1.047&#xD;&#xA;&#x9;&#x9;&#x9;c0,0,0.629,11.31,16.127,11.938c15.499,0.628,20.944-8.587,20.944-8.587l4.817,0.419h3.56L222.89,117.164z"/>
    </g>
  </g>
  <g id="Shape_1_copy_2">
    <g>
      <path fill="#1076C3" d="M194.635,168.228l-5.738-0.46l0.688-2.294c0,0,7.575,0.459,7.575-4.821&#xD;&#xA;&#x9;&#x9;&#x9;c-4.82-1.148-6.886,0.688-6.886,0.688s0.459-5.968-3.213-7.804c-2.985,3.443-1.378,10.1-1.378,10.1l-6.886-0.229l-1.148-5.509&#xD;&#xA;&#x9;&#x9;&#x9;h-4.132v-9.182h-6.427v3.673h-9.412v3.902h-4.82v4.82h-5.05l-0.459,3.442l-3.672-1.377l-2.524,1.837l6.426,1.147&#xD;&#xA;&#x9;&#x9;&#x9;c0,0,0.688,12.396,17.675,13.085c16.986,0.688,22.954-9.411,22.954-9.411l5.279,0.459h3.902L194.635,168.228z"/>
    </g>
  </g>
</svg>