<?xml version="1.0" encoding="utf-8"?>
<!-- Generator: Adobe Illustrator 21.1.0, SVG Export Plug-In . SVG Version: 6.00 Build 0)  -->
<svg version="1.1" id="Layer_1" xmlns="http://www.w3.org/2000/svg" xmlns:xlink="http://www.w3.org/1999/xlink" x="0px" y="0px"
	 viewBox="0 0 402 68.4" style="enable-background:new 0 0 402 68.4;" xml:space="preserve">
<style type="text/css">
	.st0{fill:#8CAFC4;}
	.st1{fill:#1777BB;}
	.st2{fill:#EB9B23;}
	.st3{fill:url(#symbol_1_);}
	.st4{fill:url(#SVGID_1_);}
	.st5{fill:url(#SVGID_2_);}
	.st6{fill:url(#SVGID_3_);}
	.st7{fill:url(#SVGID_4_);}
	.st8{fill:url(#SVGID_5_);}
	.st9{fill:url(#SVGID_6_);}
	.st10{fill:url(#SVGID_7_);}
	.st11{fill:#061F27;}
	.st12{clip-path:url(#SVGID_9_);fill:#061F27;}
</style>
<g>
	<path class="st11" d="M250.7,14.9c0,0,0-0.1-0.1-0.1c-2-5.1-6.9-8.4-12.4-8.4c-5.5,0-10.3,3.3-12.4,8.4c0,0,0,0.1-0.1,0.2L212,53.2
		c-0.3,0.9-0.4,1.9-0.2,2.9c0.5,2.4,2.7,4.2,5.1,4.2H236c2.8,0,3.7-3.6,1.2-5l-12.5-6.9l10.9-29.9c0.5-1.1,1.6-1.8,2.8-1.8
		c1.2,0,2.3,0.7,2.8,1.8l13.8,38.2c0.7,2,2.7,3.4,4.8,3.4c0.6,0,1.2-0.1,1.7-0.3c2.7-1,4.1-3.9,3.1-6.6L250.7,14.9L250.7,14.9z"/>
	<path class="st11" d="M205.5,8.2H167c-2.8,0-5.2,2.2-5.2,5.1s2.3,5.1,5.2,5.1h14.2v36.2c0,2.9,2.3,5.2,5.1,5.2
		c2.8,0,5.1-2.3,5.1-5.2V18.4h14.1c2.8,0,5.2-2.2,5.2-5.1S208.4,8.2,205.5,8.2L205.5,8.2z"/>
	<g>
		<defs>
			<rect id="SVGID_8_" x="7" y="6.3" width="387.3" height="54.2"/>
		</defs>
		<clipPath id="SVGID_1_">
			<use xlink:href="#SVGID_8_"  style="overflow:visible;"/>
		</clipPath>
		<path style="clip-path:url(#SVGID_1_);fill:#061F27;" d="M324.3,6.4c-2.8,0-5.2,2.3-5.2,5.2v38H317c-0.4,0-0.8-0.1-1-0.5
			l-17.3-35.6c-1.9-3.9-5.9-6.2-10.2-6.2H282c-2.8,0-5.3,2-5.3,4.9v43c0,2.8,2.3,5.2,5.2,5.2c2.8,0,5.2-2.3,5.2-5.2V17.6h1.6
			c0.4,0,0.8,0.1,1,0.5L306.8,54c1.9,3.9,5.9,6.5,10.2,6.5h7.2c2.8,0,5.3-2.8,5.3-5.6V11.5C329.5,8.7,327.2,6.4,324.3,6.4L324.3,6.4
			z"/>
		<path style="clip-path:url(#SVGID_1_);fill:#061F27;" d="M31.5,54c-2.6-1.5-5.7-3.2-5.7-3.2V17.6c0,0,2.3-1.3,4.5-2.5
			c2.2-1.3,2.5-4.8,0.3-6.6c-0.6-0.5-1.3-0.6-2-0.6H12.6c-0.7,0-1.4,0.1-2,0.6c-2.2,1.8-1.9,5.4,0.3,6.6c2.2,1.3,4.5,2.5,4.5,2.5
			v32.9h-3.6c-2.6,0-4.8,2.4-4.8,5.1c0,2.7,2.1,5,4.8,5c0,0,18.7,0,19,0C33.7,60.5,34.6,55.7,31.5,54L31.5,54z"/>
		<path style="clip-path:url(#SVGID_1_);fill:#061F27;" d="M380.3,14.9c0,0,0-0.1-0.1-0.1c-2-5.1-6.9-8.4-12.4-8.4
			c-5.5,0-10.3,3.3-12.4,8.4c0,0,0,0.1-0.1,0.2l-13.9,38.3c-0.3,0.9-0.4,1.9-0.2,2.9c0.5,2.4,2.7,4.2,5.1,4.2h19.2
			c2.8,0,3.7-3.6,1.2-5l-12.5-6.9l10.9-29.9c0.5-1.1,1.6-1.8,2.8-1.8c1.2,0,2.3,0.7,2.8,1.8l13.8,38.2c0.7,2,2.7,3.4,4.8,3.4
			c0.6,0,1.2-0.1,1.7-0.3c2.7-1,4.1-3.9,3.1-6.6L380.3,14.9L380.3,14.9z"/>
	</g>
	<path class="st11" d="M93.5,7.4c-2.8,0-5.1,2.3-5.1,5.2v37h-2.1c-0.4,0-0.8-0.1-1-0.5L68.1,13.5c-1.9-3.9-5.9-6.2-10.2-6.2h-6.6
		c-2.8,0-5.4,2-5.4,4.9v43c0,2.8,2.3,5.2,5.2,5.2c2.8,0,5.2-2.3,5.2-5.2V17.6h1.6c0.4,0,0.8,0.1,1,0.5L76.1,54
		c1.9,3.9,5.9,6.5,10.2,6.5h7.2c2.8,0,5.2-2.8,5.2-5.6V12.6C98.6,9.7,96.3,7.4,93.5,7.4L93.5,7.4z"/>
	<path class="st11" d="M145.6,33.8l-18.4-8.5c-2.3-1-5.1-2.6-5.1-5c0-1.8,1.4-3.2,3.2-3.2h16.2c1.2,0,2.3,0.5,2.9,1.9
		c0.9,2.2,2.5,3.4,4.6,3.4c0.5,0,1-0.1,1.5-0.2c1.2-0.4,2.2-1.3,2.8-2.4c0.6-1.2,0.7-2.5,0.3-3.7c-1.9-5.8-6.1-8.7-12.1-8.7h-16.2
		c-7.1,0-12.9,5.8-12.9,12.9c0,6,3.9,10.9,10.9,13.9l18.5,8.5c1.2,0.5,5,2.2,5,5c0,1.7-1.4,3.2-3.2,3.2l-20,0
		c-1.4,0-2.9-0.9-3.3-2.2c-0.7-2-2.5-3.4-4.6-3.4c-0.5,0-1,0.1-1.5,0.2c-1.2,0.4-2.2,1.3-2.8,2.4c-0.6,1.2-0.6,2.5-0.3,3.7
		c1.6,5.7,6,8.9,12.5,8.9l20,0c7.1,0,12.9-5.8,12.9-12.9C156.6,41.7,152.6,36.6,145.6,33.8L145.6,33.8z"/>
</g>
</svg>
