<svg xmlns="http://www.w3.org/2000/svg" role="img" viewBox="75.74 -0.26 247.52 244.77"><title>Instana (member) logo</title><defs><style>.cls-1{fill:#00b3b3}</style></defs><path d="M228.96422 123.44756c3.8253 0 6.92626-3.71 6.92626-8.28641s-3.101-8.28651-6.92626-8.28651c-3.82479 0-6.92586 3.71-6.92586 8.28651s3.10107 8.28641 6.92586 8.28641z" class="cls-1"/><path d="M271.46249 42.2177l-59.214-34.18719a25.2716 25.2716 0 0 0-25.27166 0l-59.214 34.18719A25.27183 25.27183 0 0 0 115.127 64.10362V132.478a25.27183 25.27183 0 0 0 12.63579 21.886l40.49493 23.37968c-2.3575-4.74337-3.82366-9.20514-3.21223-13.79134.39364-2.95242 2.43257-7.96938 8.19725-12.07165a2.26955 2.26955 0 0 1 3.50375 1.2024 3.821 3.821 0 0 0 2.9424 2.80445 107.40531 107.40531 0 0 0 19.92375 1.51078 107.51916 107.51916 0 0 0 19.89691-1.50564 3.76776 3.76776 0 0 0 2.9389-2.78569 2.27348 2.27348 0 0 1 3.50879-1.24224c5.783 4.10515 7.8285 9.13121 8.22265 12.08759.61143 4.5862-.85473 9.048-3.21222 13.79134l40.49482-23.37968a25.27183 25.27183 0 0 0 12.63583-21.886V64.10362a25.27183 25.27183 0 0 0-12.63583-21.88592zM149.87581 85.00446c0-1.99686.0182-12.048.051-22.74259a10.57037 10.57037 0 0 1 3.54077-7.92614c9.08242-7.969 23.924-16.34966 46.14506-16.34966 22.225 0 37.06789 8.38383 46.15 16.35413a10.555 10.555 0 0 1 3.53553 7.91406c.03249 10.69768.0508 20.7539.0508 22.7502V110.977c0 15.54913-8.21741 23.43367-24.42363 23.43367h-50.62529c-16.20632 0-24.42424-7.88454-24.42424-23.43367zm86.65726 62.64162c-6.00028 1.01895-20.64912 1.27927-36.92043 1.27927-16.27151 0-30.92015-.26032-36.92032-1.27927-18.832-3.19793-25.43969-26.78276-25.43969-45.091 0-17.58872 2.04489-29.58228 5.01813-34.699a42.16761 42.16761 0 0 1 2.352-3.5564c-.01851 9.37641-.02828 19.23885-.02828 20.70486v25.97209c0 18.51687 10.5497 28.71449 29.70521 28.71449H224.925c19.15427 0 29.70387-10.19762 29.70387-28.71449V85.00452c0-1.46539-.00967-11.32763-.02735-20.70609a42.301 42.301 0 0 1 2.353 3.55763c2.97324 5.11675 5.01834 17.11031 5.01834 34.699 0 18.30826-6.60786 41.89309-25.43979 45.09102z" class="cls-1"/><ellipse cx="170.261" cy="115.161" class="cls-1" rx="6.926" ry="8.286"/><path fill="#1b2733" d="M230.32123 211.87414c-.01127-.03015-.02255-.0605-.033-.08653a8.16987 8.16987 0 0 0-15.18386-.01734c-.01193.02992-.02342.06028-.03643.09519l-8.53 23.53113a3.2245 3.2245 0 0 0 2.97515 4.33577h11.77049a1.60158 1.60158 0 0 0 .75064-3.04344l-7.70394-4.26585 6.66634-18.36738a1.8435 1.8435 0 0 1 3.3937.02182l8.45305 23.4667a3.16389 3.16389 0 1 0 5.95406-2.14241zm-27.73993-4.08175h-23.67069a3.135 3.135 0 1 0 0 6.2697h8.73777v22.22745a3.135 3.135 0 1 0 6.2697 0v-22.22745h8.66322a3.135 3.135 0 1 0 0-6.2697zm72.96216-1.13307a3.18276 3.18276 0 0 0-3.18164 3.16428v23.35833h-1.30571a.60754.60754 0 0 1-.59526-.28888l-10.594-21.84332a6.85582 6.85582 0 0 0-6.28345-3.78879h-4.048a3.12824 3.12824 0 0 0-3.28177 2.99159v26.42886a3.18169 3.18169 0 0 0 6.36328 0v-23.15075h.96644a.61223.61223 0 0 1 .59525.29612l10.594 22.07364a7.067 7.067 0 0 0 6.28346 4.01912h4.40553a3.50534 3.50534 0 0 0 3.26346-3.445V209.8236a3.18276 3.18276 0 0 0-3.18159-3.16428zM95.69029 235.908c-1.61279-.89668-3.50557-1.93692-3.50557-1.93692v-20.4277s1.41787-.79666 2.78133-1.5657a2.53113 2.53113 0 0 0 .16973-4.05793 1.865 1.865 0 0 0-1.24371-.37806h-9.778a1.865 1.865 0 0 0-1.24371.37806 2.53114 2.53114 0 0 0 .16973 4.05793c1.36347.769 2.78134 1.5657 2.78134 1.5657v20.2H83.5816a3.07979 3.07979 0 0 0-2.92972 3.11674 3.028 3.028 0 0 0 2.92972 3.05938h11.65126c1.85453.00001 2.3526-2.95786.45743-4.0115zm214.21949-24.03386c-.01127-.03015-.02255-.0605-.033-.08653a8.16987 8.16987 0 0 0-15.18386-.01734c-.01193.02992-.02342.06028-.03643.09519l-8.53 23.53113a3.2245 3.2245 0 0 0 2.97515 4.33577h11.77049a1.60158 1.60158 0 0 0 .75064-3.04344l-7.70394-4.26585 6.66634-18.36738a1.8435 1.8435 0 0 1 3.3937.02182l8.453 23.4667a3.16389 3.16389 0 1 0 5.95406-2.14241zM133.79052 207.293a3.14286 3.14286 0 0 0-3.13485 3.16428v22.7247h-1.29921a.60754.60754 0 0 1-.59525-.28888l-10.594-21.84332a6.85584 6.85584 0 0 0-6.28346-3.78879h-4.04795a3.13409 3.13409 0 0 0-3.28828 2.99159v26.42886a3.18169 3.18169 0 0 0 6.36328 0v-23.1508h.97294a.61224.61224 0 0 1 .59526.29612l10.594 22.07364a7.067 7.067 0 0 0 6.28345 4.01912h4.40555a3.41941 3.41941 0 0 0 3.16337-3.445v-26.01729a3.14286 3.14286 0 0 0-3.13485-3.16423zm32.02348 16.18194l-11.329-5.22029c-1.41682-.59725-3.10516-1.61591-3.10516-3.07788a1.954 1.954 0 0 1 1.947-1.95681h9.94527a1.8473 1.8473 0 0 1 1.78933 1.19382 2.97706 2.97706 0 0 0 3.75125 1.91673 2.98043 2.98043 0 0 0 1.91807-3.75227 7.22665 7.22665 0 0 0-7.45865-5.3173h-9.94531a7.91986 7.91986 0 0 0-7.90606 7.91583c0 3.67715 2.37552 6.71123 6.686 8.54172l11.37553 5.24084c.7202.29273 3.0708 1.37775 3.0708 3.05328a1.94965 1.94965 0 0 1-1.94772 1.947l-12.25759.00169a2.16351 2.16351 0 0 1-2.02334-1.34609 2.97916 2.97916 0 0 0-5.48742-.43724 3.10951 3.10951 0 0 0-.1819 2.27278c.9753 3.52533 3.70659 5.46923 7.69266 5.46923l12.25827-.001a7.91491 7.91491 0 0 0 7.90539-7.9064c-.00004-3.67543-2.44227-6.788-6.69742-8.53764z"/></svg>