<svg xmlns="http://www.w3.org/2000/svg" role="img" viewBox="-7.99 48.26 415.74 148.24"><title>Intellect Design Arena (member) logo</title><path fill="none" d="M0 0h400v245H0z" pointer-events="none"/><path fill="none" d="M-96.204-93.074h583.361v412.479H-96.204V-93.074z"/><path d="M0 79.049h15.653v58.032H0V79.05zm0-22.695h15.436v14.751H0V56.354zm72.348 27.403c-1.388-1.766-3.154-3.23-5.361-4.217-2.19-1.054-4.808-1.568-7.845-1.568-3.01 0-5.862.514-8.57 1.662-2.762 1.131-5.258 2.501-7.605 4.204v-4.79H28.372v58.033h15.666V96.18c1.492-1.55 3.19-2.83 5.07-3.758a14.352 14.352 0 0 1 6.154-1.392c2.081 0 3.487.635 4.307 1.928.351.802.635 1.77.883 2.997.279 1.23.4 2.748.4 4.51v36.617h15.64V97.987c0-2.767-.338-5.389-1.046-7.867-.692-2.452-1.701-4.606-3.098-6.363m33.369-23.141H90.07v18.428h-7.7v13.071h7.7v32.22c0 4.714 1.352 8.2 3.97 10.448 2.64 2.258 6.218 3.366 10.705 3.366 1.284 0 2.451 0 3.528-.045 1.082-.049 2-.122 2.802-.158.766-.059 1.6-.171 2.456-.297.852-.087 1.865-.315 3.095-.568v-13.368l-3.834.933c-1.126.275-2.307.45-3.55.45-1.073 0-1.924-.176-2.569-.45-.644-.234-.955-.986-.955-2.239V92.116h10.908V79.045h-10.908v-18.43zm46.633 62.494c-1.815 1.343-4.09 1.987-6.802 1.987-.379 0-.73-.014-1.069-.014-1.653-.127-3.01-.509-4.069-1.186-1.28-.788-2.306-1.793-3.054-3.08-.748-1.282-1.288-2.754-1.613-4.39a65.459 65.459 0 0 1-.79-5.046h33.605v-7.492c0-3.821-.618-7.219-1.97-10.287-1.343-3.037-3.036-5.83-5.2-8.236-4.442-4.934-10.01-7.394-16.797-7.394h-.113c-4.405.018-8.173.82-11.281 2.46-3.163 1.645-5.818 3.861-7.89 6.596-2.09 2.726-3.587 5.93-4.555 9.57-.968 3.64-1.442 7.449-1.442 11.472 0 3.897.474 7.723 1.442 11.314.968 3.572 2.465 6.77 4.447 9.574 1.982 2.77 4.55 5.024 7.695 6.672 3.172 1.681 6.93 2.525 11.246 2.525h.337c5.43-.027 9.962-.968 13.71-2.802 1.975-.898 3.844-2.163 5.606-3.776 1.776-1.635 3.496-3.704 5.21-6.268l-11.571-7.294c-1.54 2.09-3.247 3.765-5.081 5.095m-16.392-26.93c.388-1.226.969-2.249 1.65-3.16a6.7 6.7 0 0 1 2.753-2.072c1.116-.513 2.465-.761 4.117-.761 2.825 0 5.069.887 6.737 2.77 1.568 1.776 2.469 4.124 2.694 7.084h-18.856c.207-1.338.545-2.641.905-3.861m42.574-38.754h15.64v79.655h-15.64V57.426zm29.761 0h15.635v79.655h-15.635V57.426zm57.131 65.684c-1.838 1.343-4.078 1.987-6.78 1.987-.39 0-.732-.014-1.086-.014-1.663-.127-3-.509-4.073-1.186-1.266-.788-2.302-1.793-3.037-3.08-.766-1.282-1.298-2.735-1.613-4.39a65.128 65.128 0 0 1-.801-5.046h33.602v-7.492c0-3.821-.639-7.219-1.96-10.287-1.352-3.037-3.058-5.83-5.22-8.236-4.434-4.934-9.995-7.394-16.799-7.394h-.099c-4.379.018-8.173.82-11.287 2.46-3.186 1.645-5.799 3.861-7.876 6.596-2.113 2.726-3.581 5.93-4.573 9.57-.938 3.64-1.43 7.449-1.43 11.472 0 3.897.492 7.723 1.43 11.314.992 3.572 2.46 6.77 4.464 9.574 1.987 2.77 4.548 5.024 7.714 6.672 3.15 1.681 6.898 2.525 11.224 2.525h.332c5.42-.027 9.968-.968 13.717-2.802 1.963-.898 3.828-2.163 5.604-3.776 1.758-1.635 3.48-3.704 5.2-6.268l-11.57-7.294c-1.55 2.09-3.257 3.765-5.083 5.095m-16.382-26.93c.369-1.226.96-2.249 1.663-3.16a6.585 6.585 0 0 1 2.726-2.072c1.135-.513 2.459-.761 4.126-.761 2.83 0 5.083.887 6.75 2.77 1.548 1.776 2.477 4.124 2.676 7.084h-18.875c.226-1.338.564-2.641.934-3.861m71.919 23.077a14.579 14.579 0 0 1-2.424 2.942 11.134 11.134 0 0 1-2.988 2.082c-1.15.54-2.42.816-3.93.816-3.576 0-6.108-1.343-7.591-4.084-1.65-2.931-2.461-7.227-2.461-12.943 0-5.777.81-10.125 2.46-12.959 1.438-2.739 3.92-4.082 7.384-4.082 1.505 0 2.795.217 3.809.708a10.324 10.324 0 0 1 2.739 1.865c.793.81 1.433 1.703 2.031 2.812a28.26 28.26 0 0 1 1.586 3.406l13.18-5.14c-1.212-3.263-2.617-6.02-4.19-8.084-1.527-2.1-3.479-3.753-5.67-4.974-4.216-2.42-8.704-3.65-13.579-3.65-7.754 0-13.977 2.74-18.537 8.147-4.551 5.406-6.857 12.787-6.857 22.055 0 4.07.482 7.93 1.51 11.517 1 3.591 2.5 6.802 4.608 9.533 2.068 2.722 4.687 4.925 7.966 6.53 3.263 1.585 7.074 2.401 11.508 2.401 5.398 0 9.925-1.112 13.382-3.32 1.776-1.136 3.487-2.682 5.151-4.609 1.658-1.928 3.384-4.443 5.157-7.592l-12.101-6.839c-.719 1.21-1.477 2.33-2.143 3.462m51.474-27.142V79.044h-10.905V60.616h-15.616v18.428h-7.719v13.071h7.719v32.22c0 4.714 1.334 8.2 3.938 10.448 2.637 2.258 6.22 3.366 10.705 3.366 1.288 0 2.478 0 3.546-.045 1.073-.049 1.97-.122 2.789-.158a34.936 34.936 0 0 0 2.469-.297c.843-.087 1.847-.315 3.074-.568v-13.368l-3.83.933a13.47 13.47 0 0 1-3.533.45c-1.063 0-1.936-.149-2.586-.45-.64-.234-.955-.986-.955-2.239V92.116h10.904z"/><path fill="#DA4732" d="M7.052 152.355h14.103c3.88 0 7.137 3.168 7.137 7.054v14.198c0 3.883-3.258 7.05-7.137 7.05H7.052c-3.884 0-7.051-3.167-7.051-7.05v-14.198c-.001-3.886 3.167-7.054 7.05-7.054z"/><path fill="#FFDE00" d="M43.215 152.355h14.197c3.88 0 7.05 3.168 7.05 7.054v14.198c0 3.883-3.171 7.05-7.05 7.05H43.215c-3.884 0-7.052-3.167-7.052-7.05v-14.198c0-3.886 3.168-7.054 7.052-7.054z"/><path fill="#008FD4" d="M79.377 152.355H93.58c3.88 0 7.052 3.168 7.052 7.054v14.198c0 3.883-3.173 7.05-7.052 7.05H79.377c-3.874 0-7.047-3.167-7.047-7.05v-14.198c0-3.886 3.172-7.054 7.047-7.054z"/><g fill="#6D6F71"><path d="M120.856 152.405h7.714c8.958 0 10.084 6.456 10.084 14.405 0 7.263-1.81 14.41-9.723 14.41h-8.074v-28.815zm3.555 25.91h3.709c6.136 0 6.822-6.296 6.822-11.463 0-5.569-.36-11.54-6.822-11.54h-3.71v23.003zm21.236-7.507c0 3.31 0 8.314 4.154 8.314 3.225 0 3.672-3.39 3.672-5.003h3.392c0 2.297-1.378 7.665-7.262 7.665-5.29 0-7.512-3.672-7.512-11.099 0-5.407 1.05-11.66 7.71-11.66 6.614 0 7.222 5.766 7.222 10.408v1.375h-11.376zm7.826-2.664v-1.171c0-2.419-.771-5.285-3.754-5.285-3.55 0-3.956 4.357-3.956 5.65v.806h7.71zm16.549-2.221c0-2.745-.73-4.235-3.19-4.235-1.09 0-3.51.279-3.51 3.306 0 2.542 2.663 3.028 5.33 3.915 2.622.887 5.28 1.816 5.28 6.092 0 4.564-2.946 6.78-6.978 6.78-7.345 0-7.425-5.446-7.425-7.664h3.392c0 2.623.726 5.002 4.033 5.002 1.09 0 3.591-.523 3.591-3.592 0-2.905-2.663-3.51-5.285-4.398-2.626-.892-5.329-1.654-5.329-6.136 0-4.033 3.154-5.97 6.902-5.97 6.3 0 6.534 4.357 6.578 6.898l-3.389.002zm7.344-13.518h3.398v3.875h-3.398v-3.875zm0 7.182h3.398v21.633h-3.398v-21.633zm22.285 20.26c0 6.454-2.99 8.8-7.344 8.8-1.338 0-6.542 0-7.11-5.409h3.389c.162 1.975 1.699 2.743 3.478 2.743 4.352 0 4.195-3.352 4.195-4.842v-2.824h-.081c-.725 1.814-2.743 2.905-4.884 2.905-6.294 0-6.7-7.954-6.7-10.818 0-5.848 1.577-11.377 7.065-11.377 2.338 0 4.235 1.613 4.677 3.306h.08v-2.744h3.235v20.26zm-11.507-9.445c0 3.51.523 7.913 3.92 7.913 3.668 0 4.397-3.47 4.397-7.913 0-4.196-.73-8.472-4.361-8.472-3.145 0-3.956 3.309-3.956 8.472zm15.949-10.815h3.226v2.541h.081c.887-1.977 3.146-3.103 5.244-3.103 5.691 0 5.691 4.316 5.691 6.857v15.338h-3.392v-14.934c0-1.653-.117-4.356-3.18-4.356-1.821 0-4.283 1.207-4.283 4.356v14.934h-3.388v-21.633h.001zm29.383 2.663h-3.145v-2.663h3.145v-2.546c0-3.267 1.41-4.961 4.682-4.961h2.46v2.906h-1.569c-1.458 0-2.18.564-2.18 2.055v2.546h3.712v2.663h-3.711v18.97h-3.393v-18.97zm16.189-3.225c6.252 0 7.784 5.285 7.784 11.377 0 6.097-1.575 11.382-7.784 11.382-6.258 0-7.795-5.285-7.795-11.382 0-6.092 1.576-11.377 7.795-11.377zm4.234 11.377c0-4.682-.684-8.714-4.325-8.714-3.424 0-4.149 4.032-4.149 8.714 0 4.687.685 8.72 4.15 8.72 3.595 0 4.324-4.035 4.324-8.72zm6.941-10.815h3.387v3.23h.086c.968-2.06 2.257-3.794 4.68-3.794.687 0 1.173.076 1.492.239v3.311c-.32-.04-.725-.162-1.815-.162-1.694 0-4.443 1.538-4.443 5.125v13.684h-3.389v-21.633h.002zm22.122-7.182h7.704c8.963 0 10.092 6.456 10.092 14.405 0 7.263-1.82 14.41-9.728 14.41h-8.069v-28.815zm3.551 25.91h3.71c6.134 0 6.823-6.296 6.823-11.463 0-5.569-.364-11.54-6.822-11.54h-3.711v23.003zm18.607-25.91h3.389v3.875h-3.39v-3.875zm0 7.182h3.389v21.633h-3.39v-21.633zm22.28 20.26c0 6.454-2.988 8.8-7.348 8.8-1.334 0-6.533 0-7.1-5.409h3.388c.162 1.975 1.694 2.743 3.47 2.743 4.362 0 4.203-3.352 4.203-4.842v-2.824h-.085c-.726 1.814-2.745 2.905-4.885 2.905-6.294 0-6.695-7.954-6.695-10.818 0-5.848 1.575-11.377 7.056-11.377 2.343 0 4.244 1.613 4.687 3.306h.08v-2.744h3.231v20.26h-.002zm-11.502-9.445c0 3.51.523 7.913 3.912 7.913 3.677 0 4.403-3.47 4.403-7.913 0-4.196-.726-8.472-4.357-8.472-3.157 0-3.958 3.309-3.958 8.472zm16.149-17.997h3.389v3.875h-3.39v-3.875zm0 7.182h3.389v21.633h-3.39v-21.633zm9.038-6.295h3.392v6.295h3.753v2.663h-3.753v13.882c0 1.735.443 2.423 2.217 2.423.725 0 1.131-.079 1.49-.12v2.785c-.44.08-1.328.244-2.742.244-3.51 0-4.358-1.456-4.358-4.281V162.25h-3.145v-2.663h3.145v-6.295h.001zm8.922 12.834c0-4.922 2.098-7.101 7.261-7.101 6.579 0 6.579 3.956 6.579 6.214v12.066c0 .887 0 1.735 1.05 1.735.446 0 .645-.08.807-.203v2.424c-.245.041-1.127.203-1.975.203-1.298 0-2.91 0-3.074-2.789h-.075c-1.085 1.943-3.19 3.109-5.21 3.109-4.031 0-5.888-2.42-5.888-6.295 0-3.027 1.288-5.127 4.078-5.975l4.555-1.37c2.465-.77 2.465-1.456 2.465-3.268 0-2.021-1.213-3.19-3.465-3.19-3.717 0-3.717 3.47-3.717 4.236v.203h-3.391zm10.452 3.305c-1.254 1.335-4.236 1.613-5.772 2.547-1.086.685-1.654 1.533-1.654 3.428 0 2.181.765 3.713 3.07 3.713 2.22 0 4.356-1.897 4.356-4.118v-5.57zm8.191-17.026h3.393v28.815h-3.392v-28.815z"/></g><g><path d="M388.626 60.588c1.911 0 3.776.49 5.595 1.471 1.82.98 3.237 2.383 4.257 4.21 1.013 1.824 1.522 3.727 1.522 5.707 0 1.963-.502 3.849-1.5 5.658a10.552 10.552 0 0 1-4.212 4.216c-1.803 1.002-3.69 1.501-5.662 1.501-1.974 0-3.858-.5-5.664-1.501a10.634 10.634 0 0 1-4.218-4.216c-1.003-1.81-1.508-3.695-1.508-5.658 0-1.98.509-3.883 1.532-5.707 1.018-1.826 2.44-3.23 4.259-4.21 1.82-.982 3.687-1.471 5.6-1.471zm0 1.885c-1.6 0-3.156.412-4.667 1.23-1.516.82-2.698 1.992-3.554 3.515-.857 1.524-1.28 3.11-1.28 4.757 0 1.641.417 3.213 1.256 4.716a8.963 8.963 0 0 0 3.524 3.514c1.508.84 3.08 1.26 4.721 1.26 1.638 0 3.213-.42 4.721-1.26a8.9 8.9 0 0 0 3.512-3.514c.835-1.503 1.255-3.075 1.255-4.716 0-1.647-.425-3.233-1.274-4.757a8.765 8.765 0 0 0-3.555-3.515c-1.516-.818-3.071-1.23-4.659-1.23zm-4.992 15.794v-12.25h4.207c1.437 0 2.475.114 3.124.34a3.05 3.05 0 0 1 1.539 1.184c.379.565.572 1.162.572 1.797 0 .893-.323 1.674-.96 2.337-.638.664-1.484 1.036-2.541 1.117.433.18.777.397 1.04.649.495.484 1.097 1.29 1.813 2.427l1.49 2.4h-2.412l-1.085-1.933c-.852-1.517-1.545-2.468-2.068-2.85-.362-.282-.887-.422-1.582-.422h-1.162v5.204h-1.975zm1.974-6.893h2.397c1.147 0 1.93-.172 2.344-.514.42-.341.628-.794.628-1.357 0-.362-.1-.685-.301-.972a1.787 1.787 0 0 0-.838-.642c-.359-.14-1.019-.21-1.984-.21h-2.246v3.695z"/></g></svg>