<svg xmlns="http://www.w3.org/2000/svg" role="img" xmlns:xlink="http://www.w3.org/1999/xlink" viewBox="-3.25 16.25 767.00 237.00"><title>Intuitive Technology Partners (member) logo</title><defs><linearGradient id="b" x1="122.819" x2="192.058" y1="136.533" y2="136.533" gradientUnits="userSpaceOnUse"><stop offset="0" stop-color="#e53524"/><stop offset="1" stop-color="#cd1719"/></linearGradient><linearGradient id="c" x1="122.819" x2="192.058" y1="136.533" y2="136.533" gradientUnits="userSpaceOnUse"><stop offset="0" stop-color="#db3425"/><stop offset="0" stop-color="#ef783d"/><stop offset="1" stop-color="#9f191c"/></linearGradient><linearGradient id="a" x1="47.462" x2="116.463" y1="169.842" y2="169.842" gradientUnits="userSpaceOnUse"><stop offset="0" stop-color="#1d2b53"/><stop offset="1" stop-color="#171c31"/></linearGradient><linearGradient id="d" x1="47.462" x2="116.463" y1="169.842" y2="169.842" gradientUnits="userSpaceOnUse"><stop offset="0" stop-color="#171c31"/><stop offset="1" stop-color="#4c6e99"/></linearGradient><linearGradient id="e" x1="53.112" x2="123.032" y1="106.248" y2="106.248" gradientUnits="userSpaceOnUse"><stop offset="0" stop-color="#eb3c27"/><stop offset="1" stop-color="#881613"/></linearGradient><linearGradient id="f" x1="13.017" x2="47.693" y1="159.342" y2="219.403" xlink:href="#a"/><linearGradient id="g" x1="12.863" x2="82.061" y1="199.125" y2="199.125" gradientUnits="userSpaceOnUse"><stop offset="0" stop-color="#4c6e99"/><stop offset="1" stop-color="#171c31"/></linearGradient><linearGradient id="h" x1="29.939" x2="29.939" y1="171.251" y2="91.914" gradientUnits="userSpaceOnUse"><stop offset="0" stop-color="#19567e"/><stop offset="1" stop-color="#1e222e"/></linearGradient><linearGradient id="i" x1="13.414" x2="192.085" y1="223.428" y2="223.428" gradientUnits="userSpaceOnUse"><stop offset="0" stop-color="#6f6f6f"/><stop offset="1" stop-color="#d1d0d1"/></linearGradient><linearGradient id="j" x1="11.928" x2="82.365" y1="71.699" y2="71.699" gradientUnits="userSpaceOnUse"><stop offset="0" stop-color="#d4eefb"/><stop offset=".4" stop-color="#1384ca"/></linearGradient><linearGradient id="k" x1="212.076" x2="236" y1="74.417" y2="238.342" xlink:href="#a"/><linearGradient id="l" x1="691.56" x2="715.484" y1="4.438" y2="168.363" xlink:href="#a"/><linearGradient id="m" x1="409.676" x2="433.601" y1="45.578" y2="209.503" xlink:href="#a"/><linearGradient id="n" x1="273.351" x2="297.276" y1="65.474" y2="229.399" xlink:href="#a"/><linearGradient id="o" x1="516.914" x2="540.838" y1="29.927" y2="193.852" xlink:href="#a"/><linearGradient id="p" x1="345.224" x2="369.149" y1="54.984" y2="218.91" xlink:href="#a"/><linearGradient id="q" x1="617.613" x2="641.537" y1="15.23" y2="179.156" xlink:href="#a"/><linearGradient id="r" x1="469.784" x2="493.709" y1="36.805" y2="200.731" xlink:href="#a"/><linearGradient id="s" x1="556.385" x2="580.31" y1="24.166" y2="188.092" xlink:href="#a"/><linearGradient id="t" x1="478.114" x2="502.038" y1="35.59" y2="199.515" xlink:href="#a"/><linearGradient id="u" x1="564.728" x2="588.652" y1="22.949" y2="186.874" xlink:href="#a"/></defs><path fill="#413e3f" d="M331.11029 214.99791c0 5.3071.00227 10.1937-.00268 15.0803a5.3942 5.3942 0 0 1-.20521 1.97388 2.44243 2.44243 0 0 1-2.51392 1.71538 2.32 2.32 0 0 1-2.45078-1.77225 5.61547 5.61547 0 0 1-.21975-1.54323c-.01372-6.80927-.02681-13.61867.00024-20.42787.01159-2.91024 2.017-4.56146 4.46762-3.78507a4.37264 4.37264 0 0 1 2.18851 1.95283q5.4309 7.78584 10.8685 15.567c.22838.326.34343.78715.96759.93951 0-.78429-.00011-1.523 0-2.26166.00077-4.42843-.01466-8.857.00974-13.28526.011-1.9977.95293-3.08229 2.578-3.09577 1.64514-.01366 2.639 1.06874 2.64449 3.03231q.0299 10.71384.00136 21.42782c-.00132 1.25227-.28415 2.4333-1.56371 2.95876a3.78818 3.78818 0 0 1-3.91862-.45791 11.7269 11.7269 0 0 1-2.36453-2.843c-3.41158-4.92925-6.81661-9.86307-10.48685-15.17577zm317.00671 9.70695c.46423-.524.2798-1.02072.2814-1.46871.01676-4.66448.01229-9.329.0118-13.99353-.00014-1.19467.20056-2.30825 1.39541-2.90841a2.57262 2.57262 0 0 1 3.82043 2.37235c.05871 7.37695.0356 14.75467.00921 22.132a2.60181 2.60181 0 0 1-1.58368 2.65267 3.83988 3.83988 0 0 1-3.8-.40994 10.684 10.684 0 0 1-2.39123-2.81451q-4.7523-6.862-9.48946-13.73433c-.25731-.37217-.54-.72677-1.04294-1.40022 0 .81464.00007 1.26534 0 1.716q-.00032 6.7112.0037 13.42239a4.77772 4.77772 0 0 1-.29292 1.961 2.44248 2.44248 0 0 1-2.4965 1.538 2.31562 2.31562 0 0 1-2.32911-1.54823 4.42127 4.42127 0 0 1-.27846-1.52845c-.01662-6.99672-.03009-13.9936.00293-20.99023a3.33143 3.33143 0 0 1 3.501-3.64261 3.88365 3.88365 0 0 1 3.07885 2.03528q5.32362 7.68156 10.688 15.3349c.29057.41619.59035.82594.91157 1.27458zm58.96029-3.43486a21.00747 21.00747 0 0 1 6.97174 8.77444c.546 1.17009.79156 2.2645-.42367 3.18266a3.33046 3.33046 0 0 1-3.857-.14355 7.90035 7.90035 0 0 1-1.50459-1.89239c-1.46194-2.22655-2.90845-4.4633-4.37583-6.68627-1.56951-2.37788-3.93219-2.769-6.534-2.61313-.86646.0519-.66835.6367-.67316 1.11549-.02674 2.66631.03762 5.33583-.07316 7.99827a2.59479 2.59479 0 0 1-3.06908 2.75555 2.40772 2.40772 0 0 1-2.4424-1.99335 8.174 8.174 0 0 1-.192-1.83812q-.0198-9.7155-.00636-19.43108c.00321-3.11741.85593-4.00337 4.01-3.946 4.33024.0788 8.68492-.39654 12.98682.29044a7.13482 7.13482 0 0 1 5.80956 9.37559 6.35793 6.35793 0 0 1-3.783 4.02288c-.88705.39442-1.82878.66627-2.84387 1.02857zm-6.52419-10.67923c-.99792 0-1.99751.03567-2.99312-.01223-.6909-.03324-.91771.23012-.908.89989.02757 1.89921.01535 3.79911.006 5.69867-.0023.47887.05773.829.6768.80925 2.60715-.08342 5.23091.21337 7.8181-.31311 2.03381-.41387 3.12994-1.69079 3.06342-3.51085a3.5298 3.5298 0 0 0-3.25463-3.37126 28.54451 28.54451 0 0 0-4.40857-.20034zM590.07289 221.255a20.93065 20.93065 0 0 1 7.04148 8.86424c.52091 1.12874.72433 2.17526-.408 3.06929a3.32539 3.32539 0 0 1-3.74183.01935 5.83323 5.83323 0 0 1-1.3924-1.61148c-1.36714-2.11832-2.76367-4.21829-4.09694-6.35772a6.6743 6.6743 0 0 0-6.74193-3.36515c-.786.06847-1.0648.254-1.05467 1.06465.03344 2.6661.05361 5.33491-.03281 7.99909a2.6054 2.6054 0 0 1-3.00562 2.8266 2.41715 2.41715 0 0 1-2.52275-2.0703 9.14511 9.14511 0 0 1-.182-1.83812q-.019-9.64374-.00643-19.28758c.00231-3.20843.83289-4.07389 4.08466-4.01539 4.32989.07791 8.68533-.39956 12.98555.301a7.13521 7.13521 0 0 1 5.75784 9.29629 6.62726 6.62726 0 0 1-4.25632 4.29841c-.74118.3049-1.52352.50998-2.42783.80682zm-6.32356-10.6643c-1.046 0-2.09308.02822-3.1377-.01036-.64908-.024-.952.15211-.93858.86732.03567 1.9.01648 3.80122.00943 5.7019-.00175.462.0127.85338.65082.83456 2.65609-.07833 5.33123.23014 7.96261-.335a3.32138 3.32138 0 0 0 2.95466-3.4602 3.52579 3.52579 0 0 0-3.23306-3.39425 26.80539 26.80539 0 0 0-4.26818-.204zM356.74 219.84969c0-8.99069 6.11672-14.55789 15.10007-13.7436 11.17262 1.01273 16.73551 13.111 10.2999 22.405a12.15871 12.15871 0 0 1-9.00355 5.13286 18.35035 18.35035 0 0 1-6.809-.33664c-6.15104-1.5747-9.58742-6.40297-9.58742-13.45762zm21.922.193a11.77879 11.77879 0 0 0-.92008-5.142 7.32226 7.32226 0 0 0-7.28829-4.489 7.06749 7.06749 0 0 0-7.00713 4.65218 12.82711 12.82711 0 0 0-.34562 8.65433 7.41155 7.41155 0 0 0 7.678 5.73272 7.58384 7.58384 0 0 0 7.46075-5.884 13.15543 13.15543 0 0 0 .42237-3.5242zm90.06344-.86569c1.47268.06666 2.95155.07158 4.41642.21689a2.32161 2.32161 0 0 1 2.35807 2.52255c.06021 2.092.017 4.187.01319 6.28068a2.84569 2.84569 0 0 1-1.55391 2.56009c-5.71873 3.27824-11.735 4.16082-17.937 1.68231-5.12453-2.04789-7.90774-7.33815-7.556-13.359.57568-9.85315 7.96449-13.43535 16.06842-12.97007a13.34118 13.34118 0 0 1 6.85966 2.14363 7.48534 7.48534 0 0 1 3.08394 3.811 2.41413 2.41413 0 0 1-.90053 3.02019 2.77585 2.77585 0 0 1-3.43271-.20414 4.19663 4.19663 0 0 1-.71805-.88087c-2.33619-3.75086-5.45658-4.29872-9.27575-3.37408-3.22513.78082-5.40805 3.70764-5.76641 7.53578a14.28578 14.28578 0 0 0 .57114 6.06424c1.20741 3.49926 4.20874 5.4477 8.21133 5.36154a16.75436 16.75436 0 0 0 6.07822-1.3882 1.55227 1.55227 0 0 0 1.07935-1.71474c-.03711-3.12132.00014-3.11783-3.10772-3.12449a13.75387 13.75387 0 0 1-2.84551-.1591c-1.03729-.21894-1.78662-.6658-1.76564-1.86111a1.84653 1.84653 0 0 1 1.8411-1.975c1.41747-.1088 2.8496-.02637 4.27541-.02637zm-26.31556.74776c.00758 6.95628-3.31776 11.75394-9.33975 13.319a17.52275 17.52275 0 0 1-9.72113-.19922c-5.20313-1.6106-8.29866-5.91928-8.69528-11.982a16.9409 16.9409 0 0 1 .66067-6.06363c1.85241-6.11123 7.30462-9.48226 14.36366-8.89967 8.25088.68096 12.72283 5.53704 12.73183 13.82552zm-21.92318-.20668a12.35713 12.35713 0 0 0 .94919 5.18033 7.81293 7.81293 0 0 0 14.06938.271 12.47771 12.47771 0 0 0 .62-8.8958 7.49856 7.49856 0 0 0-7.72679-5.88692c-3.81013.02832-6.54182 2.26486-7.53255 6.12752a15.8344 15.8344 0 0 0-.37923 3.20387zm-127.15593.14548c-.00024-3.61623-.04373-7.2332.0156-10.84845a2.7603 2.7603 0 0 1 3.88947-2.75028 2.83627 2.83627 0 0 1 1.81479 2.94676c.03452 2.18826.05193 4.37848-.00583 6.56569-.02454.92868.13864 1.34043 1.21362 1.317 3.33114-.07252 6.66542-.06043 9.99726-.005.94859.01578 1.21641-.26753 1.18957-1.20318-.06408-2.23445-.07644-4.47419.00206-6.70787.08266-2.35078 1.74194-3.58937 3.79631-2.95577a2.66255 2.66255 0 0 1 1.91653 2.83992c.02489 2.474.01763 4.9484.01822 7.42262.00119 4.66306.01644 9.32625-.0111 13.98915-.01194 2.02-.86695 3.10255-2.44757 3.26933-2.02641.2138-3.22488-.88626-3.27825-3.16023q-.09042-3.85209.00492-7.70743c.028-1.06151-.1829-1.48418-1.3759-1.45109-3.28262.09094-6.57006.06863-9.85407.00837-.96479-.01771-1.19269.29152-1.17317 1.2071.05679 2.66336.04764 5.32922.00638 7.99321-.02694 1.7406-.84748 2.81684-2.20578 3.07845a2.714 2.714 0 0 1-3.49725-2.85723c-.05633-3.66287-.01558-7.32727-.01581-10.99107zm-60.3892.09944c-.00018-3.2379-.0163-6.4759.00467-9.71366.0184-2.83616.86256-3.69537 3.64943-3.70467 4.955-.01653 9.91-.00176 14.865-.00741a2.95492 2.95492 0 0 1 2.37343.74692 2.0072 2.0072 0 0 1-.90943 3.23179 7.18064 7.18064 0 0 1-1.97664.21771c-3.71617.01952-7.43283.03689-11.1485-.01018-.88138-.01118-1.16065.23639-1.11618 1.12008.0717 1.42488.06712 2.85819.00192 4.28372-.04153.9075.20953 1.22985 1.17708 1.21253 3.334-.05972 6.66978-.02592 10.0049-.01933a12.11646 12.11646 0 0 1 1.56791.078 1.96 1.96 0 0 1 .23173 3.86115 6.75562 6.75562 0 0 1-1.55374.1436c-3.38266.012-6.766.0413-10.14779-.01586-.958-.01618-1.34742.16656-1.28847 1.22367a44.58958 44.58958 0 0 1-.00108 5.13953c-.06747 1.12619.35261 1.32656 1.375 1.31071 3.763-.05844 7.52745-.02847 11.29133-.01766a7.92 7.92 0 0 1 1.8462.13384 1.91042 1.91042 0 0 1 1.58714 1.93172 1.86055 1.86055 0 0 1-1.44368 2.02572 6.32994 6.32994 0 0 1-1.68689.22276q-7.43239.02464-14.865.005c-2.97878-.00949-3.821-.85717-3.83484-3.82887-.01488-3.19019-.00336-6.38051-.0035-9.57081zm429.29298-.08186c.00028-3.28534-.01571-6.57081.00552-9.856.01612-2.508.95624-3.465 3.46175-3.47657q7.64637-.03537 15.293-.00114c1.667.00564 2.596.72976 2.659 1.96879.06625 1.3048-.85425 2.17815-2.587 2.20294-3.90588.05585-7.81391.0698-11.71909-.0052-1.16741-.02241-1.46543.3526-1.39157 1.44513a30.51737 30.51737 0 0 1 .00035 3.99678c-.06353.991.3332 1.19024 1.23087 1.17846 3.33435-.0437 6.66967-.02045 10.00458-.01372a11.18426 11.18426 0 0 1 1.56749.08058 1.95834 1.95834 0 0 1 .22667 3.85984 6.3227 6.3227 0 0 1-1.5545.1425c-3.4302.01166-6.861.03972-10.29031-.01568-.94-.01519-1.22417.25092-1.185 1.18867.0733 1.75865.07316 3.52466.00042 5.28337-.03944.95491.28 1.20985 1.2109 1.198 3.76312-.04784 7.52714-.02168 11.29088-.01732.52343.00061 1.04888.00834 1.56979.054a1.99265 1.99265 0 0 1 2.06516 1.95407 2.01662 2.01662 0 0 1-1.936 2.22911 9.30659 9.30659 0 0 1-1.5649.08629q-7.21768.00876-14.43542-.00038c-3.04367-.00878-3.9167-.89221-3.92151-3.91216q-.00775-4.78518-.00108-9.57036zm69.78732 13.8827a14.061 14.061 0 0 1-6.26276-1.15334 8.54651 8.54651 0 0 1-4.814-5.351c-.53118-1.71555.05675-3.07133 1.41565-3.57246 1.43234-.52817 2.59033.03907 3.42985 1.70509a8.87786 8.87786 0 0 0 2.076 3.20164c2.16317 1.75354 6.6139 1.591 8.65183-.32219a3.11341 3.11341 0 0 0-.44392-5.10478 12.96987 12.96987 0 0 0-4.30134-1.45334 31.45212 31.45212 0 0 1-6.00195-1.79356c-2.7178-1.231-4.495-3.166-4.45694-6.35a6.57294 6.57294 0 0 1 4.604-6.40443 15.49213 15.49213 0 0 1 11.70093-.03108 7.06327 7.06327 0 0 1 4.077 3.79065c.73732 1.72288.29292 3.27529-1.07562 3.96053-1.39478.69848-2.52847.20821-3.59683-1.55573-1.907-3.1484-4.151-4.07712-7.53928-3.1201-1.71464.48431-2.87 1.56263-2.85713 2.7994.01675 1.60891 1.1776 2.352 2.48344 2.76881 1.94376.62047 3.938 1.08379 5.91274 1.60663a28.94863 28.94863 0 0 1 4.03488 1.39635c5.83581 2.50851 5.15008 9.96076 1.08309 12.77045a13.43607 13.43607 0 0 1-8.11964 2.21246zm-167.45265.00262a2.29581 2.29581 0 0 1-2.26265-1.46988c-.657-1.4222-1.29767-2.85531-1.85943-4.31674a1.39581 1.39581 0 0 0-1.53914-1.08647c-3.14391.059-6.29.04467-9.43452.00711a1.2089 1.2089 0 0 0-1.35674.90969c-.56363 1.51139-1.16895 3.01372-1.86843 4.46624a2.64469 2.64469 0 0 1-4.877-2.02987c.45585-1.34749 1.05264-2.64794 1.60085-3.96354 2.37532-5.70043 4.73611-11.40708 7.14256-17.0944 1.12658-2.66244 2.94782-3.61035 5.3979-2.944 1.65873.45113 2.39032 1.75832 3.00255 3.1957q3.68559 8.65364 7.38242 17.30244a37.26242 37.26242 0 0 1 1.40413 3.57664c.58228 1.89114-.63077 3.44026-2.7325 3.44708zM554.19346 211.833c-1.40036 3.66191-2.69881 7.0521-3.99167 10.44441-.17257.45274.06053.576.4798.57478 2.54313-.00727 5.08627-.00359 7.77335-.00359-1.42594-3.68619-2.78474-7.19834-4.26148-11.0156zm-280.2478 21.93168c-10.899.21888-14.16459-9.04062-13.3109-15.99581 1.45049-11.81756 14.30393-14.14162 21.19773-9.46461a8.86148 8.86148 0 0 1 3.6473 4.4438c.56378 1.64043.13 2.96-1.12514 3.56483-1.30686.62976-2.51427.18344-3.49016-1.30352-.28688-.43706-.53861-.897-.81939-1.33823a7.22493 7.22493 0 0 0-12.57843.86732 13.63927 13.63927 0 0 0-.13557 10.83331c1.11265 2.7677 3.36392 3.99868 6.30116 4.08172a6.65967 6.65967 0 0 0 6.73344-3.87652c.27163-.55371.46217-1.14879.753-1.69113a2.3645 2.3645 0 0 1 3.00255-1.26145 2.45133 2.45133 0 0 1 1.65925 2.81143c-.42419 3.58028-3.752 6.943-7.86351 7.95088a15.20455 15.20455 0 0 1-3.97133.37798zm244.03378-13.62426c0-3.331-.02185-6.66222.00684-9.993.02317-2.69338.92664-3.61876 3.62761-3.59258 3.66224.03548 7.34075-.29937 10.98386.2084 4.4982.62693 6.925 3.32888 6.99233 7.57136.07239 4.5631-2.28219 7.38186-6.82332 8.23466a42.3903 42.3903 0 0 1-7.83471.28472c-.93167.0015-1.22934.2474-1.1989 1.19661.06855 2.13913.05375 4.28274.00789 6.42314-.03979 1.85292-.84623 2.97013-2.21148 3.23923-2.03827.40175-3.47313-.74593-3.51962-3.00912-.07246-3.51978-.0192-7.04216-.0192-10.56343zm5.77619-5.49616c0 1.09219-.01173 2.18456.00684 3.27644.00586.34433-.14835.87812.43812.86978 2.59416-.03677 5.25158.39841 7.715-.79061a3.39734 3.39734 0 0 0 1.85412-3.69 3.34947 3.34947 0 0 0-2.50648-3.26033 15.43648 15.43648 0 0 0-4.23063-.46142c-3.27766.00171-3.27766-.00351-3.27766 3.20134q-.00001.42741.00069.8548zm-31.14224 2.68633c1.9648-2.98 3.81446-5.7903 5.67064-8.59628a16.06405 16.06405 0 0 1 1.147-1.62972 2.69319 2.69319 0 0 1 3.70381-.54271c1.11191.8 1.35338 1.98317.43365 3.40575a99.32692 99.32692 0 0 1-5.64031 8.22478 10.79285 10.79285 0 0 0-2.57451 8.3885 23.949 23.949 0 0 1-.03365 4.41633 2.63022 2.63022 0 0 1-2.80031 2.76866 2.56293 2.56293 0 0 1-2.84164-2.7088c-.13518-2.37053-.13731-4.75583-.04848-7.12924a5.618 5.618 0 0 0-1.15949-3.67714c-2.01849-2.82031-3.93111-5.71643-5.87665-8.58863a18.46069 18.46069 0 0 1-1.04336-1.69867c-.82943-1.56621-.61069-2.71883.6206-3.47232a2.68054 2.68054 0 0 1 3.76374.78449c1.91388 2.77693 3.739 5.615 5.60059 8.42785.31398.47435.62845.94833 1.07837 1.62715zm-277.30613-10.78992q4.28592-.002 8.57186.00053a7.7766 7.7766 0 0 1 1.28271.04906 2.14789 2.14789 0 0 1 2.08267 2.14389 2.06473 2.06473 0 0 1-2.015 2.17944 36.32749 36.32749 0 0 1-5.847.09813c-1.05377-.01928-1.36585.2506-1.3552 1.33647.05648 5.75824.03127 11.51733.01993 17.27609a10.64925 10.64925 0 0 1-.15459 1.98615 2.50389 2.50389 0 0 1-2.74677 2.15856 2.55728 2.55728 0 0 1-2.71155-2.22083 11.52316 11.52316 0 0 1-.13232-1.98911c-.00967-5.75878-.03009-11.51775.01707-17.27617.00827-1.01023-.28552-1.32063-1.28044-1.26244-1.37631.08051-2.76086.0214-4.14188.01906-.38078-.00064-.7636.0109-1.142-.02239-1.71846-.15119-2.62735-.92894-2.62945-2.2302-.0022-1.35939 1.00729-2.22049 2.753-2.23668 3.14275-.02913 6.28596-.00823 9.42896-.00956zm396.84595-.00129c2.90538.00005 5.81068-.00549 8.71605.0052a6.48637 6.48637 0 0 1 1.55779.124 2.05067 2.05067 0 0 1 1.7404 2.13186 1.9995 1.9995 0 0 1-1.8019 2.066 32.42571 32.42571 0 0 1-6.12887.14608c-.98947-.00627-1.28141.24793-1.273 1.26.04851 5.85446.03 11.70957.01452 17.56441a8.37273 8.37273 0 0 1-.21076 1.9757 2.49287 2.49287 0 0 1-2.7624 1.95581 2.57407 2.57407 0 0 1-2.64227-2.14366 13.33927 13.33927 0 0 1-.11316-2.27692c-.00823-5.66448-.03581-11.32926.02255-16.99314.01124-1.09439-.31812-1.34988-1.36218-1.34244a31.39018 31.39018 0 0 1-6.12823-.153 1.93283 1.93283 0 0 1-1.699-1.98886 2.03114 2.03114 0 0 1 1.51911-2.148 4.90126 4.90126 0 0 1 1.69244-.18061q4.42945-.00807 8.85891-.00243zm-220.5401 13.01274c0-3.47176-.058-6.94482.02028-10.4148.05243-2.32206 1.62815-3.50626 3.66-2.94454a2.40923 2.40923 0 0 1 1.879 1.92677 10.28622 10.28622 0 0 1 .19316 1.97807c.01445 5.80225.0436 11.60491-.02115 17.40648-.01288 1.15692.33913 1.40547 1.42553 1.38248 3.28206-.06946 6.56657-.01936 9.8501-.02955a4.48471 4.48471 0 0 1 1.955.31666 2.04 2.04 0 0 1 1.28476 2.0383 1.90588 1.90588 0 0 1-1.45314 1.8955 6.79224 6.79224 0 0 1-1.82417.24908q-6.567.03019-13.13415.0063c-2.97284-.01085-3.83065-.86688-3.84535-3.82325-.01654-3.32909-.00384-6.65833-.00384-9.9875z"/><path fill="#fefefe" d="M28.89822 101.965q-3.34515 1.97522-6.6905 3.95072-3.55105 1.988-7.1044 3.97255c-.44609.24782-.91858.44814-1.37886.67033m-.27997.24269c.05658-.13672.067-.32543.29875-.2647zm687.10868 99.78849a28.6713 28.6713 0 0 1 4.4085.20137 3.5298 3.5298 0 0 1 3.25463 3.37126c.06652 1.82006-1.02961 3.097-3.06342 3.51085-2.58719.52648-5.211.22969-7.8181.31311-.61907.0198-.6791-.33038-.6768-.80925.00935-1.89956.02157-3.79946-.006-5.69867-.00971-.66977.2171-.93313.908-.89989.99561.0479 1.9952.01223 2.99319.01122zm-116.80384.00037a26.86691 26.86691 0 0 1 4.26818.20448 3.52579 3.52579 0 0 1 3.23306 3.39425 3.32138 3.32138 0 0 1-2.95466 3.4602c-2.63138.56515-5.30652.25668-7.96261.335-.63812.01882-.65257-.37256-.65082-.83456.007-1.90068.02624-3.80185-.00943-5.7019-.0134-.71521.2895-.8913.93858-.86732 1.04462.03859 2.09168.01037 3.1377.00985zM378.662 220.0421a13.157 13.157 0 0 1-.42241 3.52478 7.58384 7.58384 0 0 1-7.46075 5.884 7.41155 7.41155 0 0 1-7.678-5.73272 12.82711 12.82711 0 0 1 .34562-8.65433 7.06749 7.06749 0 0 1 7.00713-4.65218 7.32226 7.32226 0 0 1 7.28829 4.489 11.77767 11.77767 0 0 1 .92012 5.14145zm41.8247-.32402a15.8344 15.8344 0 0 1 .37927-3.20387c.99073-3.86266 3.72242-6.0992 7.53255-6.12752a7.49856 7.49856 0 0 1 7.72679 5.88692 12.47771 12.47771 0 0 1-.62 8.8958 7.81293 7.81293 0 0 1-14.06938-.271 12.35713 12.35713 0 0 1-.94923-5.18033zm133.70676-7.88508c1.47674 3.81729 2.8355 7.32944 4.26148 11.0156-2.68708 0-5.23022-.00368-7.77335.00359-.41927.00121-.65237-.122-.4798-.57478 1.29286-3.39234 2.59131-6.78253 3.99167-10.44441zm-30.43818 2.81126q-.00053-.42738-.00035-.85476c0-3.20485 0-3.19963 3.27766-3.20134a15.43648 15.43648 0 0 1 4.23063.46142 3.34947 3.34947 0 0 1 2.50648 3.26033 3.39734 3.39734 0 0 1-1.85412 3.69c-2.46341 1.189-5.12083.75384-7.715.79061-.58647.00834-.43226-.52545-.43812-.86978-.01856-1.09192-.00683-2.18429-.00718-3.27648z"/><path fill="url(#b)" d="M190.68866 135.9823q-32.20478-18.58044-64.41431-37.15271a15.65935 15.65935 0 0 0-3.24389-1.73132l.002 32.33038a2.20364 2.20364 0 0 0 .44324.482 2.20681 2.20681 0 0 1-.44391-.48254q-.05192 3.31924-.10254 6.63965-.0185 19.19448-.01874 38.38892c.00043.49609-.34527 1.12359.30536 1.51116 4.29144-2.42065 8.595-4.82006 12.87146-7.267 6.56232-3.75489 13.074-7.59937 19.66809-11.29737 4.904-2.75006 9.80768-5.49835 14.65235-8.35131.41827-.21546.84625-.414 1.25329-.64887q6.80814-3.92789 13.61066-7.86554c2.20807-1.21844 4.41608-2.43689 6.78638-3.74493-.63604-.37682-1.00042-.59763-1.36944-.81052z"/><path fill="url(#c)" d="M126.03078 102.15182q27.49071 15.84458 54.97033 31.70472l4.97123 2.86816-2.15 1.18643-.02623.0145-.02595.015-2.81849 1.6297q-5.3939 3.119-10.78982 6.2345c-.22526.13-.45927.24457-.69243.36081-.1455.07257-.29094.14517-.43537.21957l-.07545.03885-.07315.04309c-4.76171 2.80411-9.676 5.55994-14.42844 8.225l-.169.09479c-4.10793 2.30374-8.24318 4.69836-12.24229 7.01413q-3.72048 2.15436-7.44827 4.296c-2.88389 1.65009-5.83237 3.30787-8.6892 4.91358q-.00694-14.60146.01525-29.20249l.0054-5.69427.00949-.61877.093-6.02-2.17337-.034.01011-.01242 2.16429-.00012-.00132-21.55356-.00037-5.72312m-3.00032-5.05355l.002 32.33038a2.20389 2.20389 0 0 0 .44324.482 2.20681 2.20681 0 0 1-.44391-.48254q-.05193 3.31924-.10254 6.63965-.0185 19.19448-.01873 38.38892c.00042.49609-.34529 1.12359.30535 1.51116 4.29145-2.42065 8.595-4.82006 12.87147-7.267 6.56231-3.75489 13.074-7.59937 19.66809-11.29737 4.904-2.75006 9.80767-5.49835 14.65233-8.35131.41829-.21546.84625-.414 1.25331-.64887q6.80811-3.92789 13.61065-7.86554c2.20807-1.21844 4.41608-2.43689 6.78638-3.74493-.63605-.37683-1.00043-.59766-1.36945-.81055q-32.20479-18.58044-64.41431-37.15271a15.6591 15.6591 0 0 0-3.24389-1.73132z"/><path fill="url(#a)" d="M116.38623 141.81152c-.00061-.5039-.00012-1.00775-.00012-1.50506-.22925-.01483-.3407-.05841-.40582-.02112q-8.15471 4.66773-16.30249 9.34759c-4.76673 2.52015-9.42334 5.23316-14.04578 8.00586-2.30768 1.28095-4.62531 2.54438-6.92023 3.84754-2.53241 1.43786-5.04407 2.91223-7.5647 4.37073-.41766.21569-.84332.41735-1.25183.6491q-11.2185 6.36458-22.43326 12.73554c1.803 1.37707 3.8952 2.27081 5.80822 3.46789 2.15845 1.35071 4.37354 2.61127 6.54657 3.93976 2.23944 1.369 4.65375 2.475 6.91315 3.83905a8.1869 8.1869 0 0 1 .77252.59729c4.76447 2.79608 9.68945 5.31629 14.33124 8.32483l.114-.0144.11286.01666c3.38018-1.74969 6.6687-3.661 9.92633-5.62671q4.89852-2.78521 9.79706-5.57055c.46014-.239.92987-.46137 1.37884-.71979q4.754-2.73671 9.50079-5.48566c.79572-.41626 1.56726-.89038 2.393-1.23474a2.19655 2.19655 0 0 0 1.40582-2.42816c-.06762-12.17829-.06158-24.35706-.07617-36.53565zm-12.90381 41.108a2.26729 2.26729 0 0 1 .02313.48914h-.00006a2.26759 2.26759 0 0 0-.02307-.48917z"/><path fill="url(#d)" d="M114.38783 143.50192l.006 6.30347c.00774 9.35767.01574 19.03387.0686 28.55289a2.38251 2.38251 0 0 1-.03585.50351 1.18646 1.18646 0 0 1-.13979.06762 18.85016 18.85016 0 0 0-1.85635.93259c-.2306.127-.46113.25412-.69392.37588l-.03716.01947-.03634.021-2.28129 1.31842q-3.60719 2.08492-7.21663 4.16562c-.27543.15851-.56.301-.8442.44443-.1533.07736-.30658.15478-.45887.23388l-.03368.01749-.033.01877-9.797 5.57052-.02254.01282-.0222.0134c-3.49816 2.11084-6.29324 3.70862-8.91531 5.09381-2.74962-1.73532-5.59484-3.3262-8.35536-4.86972-1.66178-.92917-3.37858-1.8891-5.04229-2.86316-.0321-.02649-.064-.05328-.096-.08a6.15713 6.15713 0 0 0-.781-.57833c-1.15227-.69568-2.33723-1.32386-3.48319-1.93137-1.19726-.63471-2.32814-1.23419-3.42045-1.90192-.93925-.57422-1.88628-1.13589-2.83329-1.69751-1.22056-.72381-2.48268-1.47229-3.69555-2.23126-.78719-.49261-1.58948-.9299-2.36536-1.35284q-.30681-.16722-.60745-.33222l1.14422-.64972q9.1891-5.21805 18.3796-10.43368c.24942-.14148.50635-.26972.76291-.39868.14021-.0705.28043-.141.4198-.213l.04251-.02194.0414-.024q1.14618-.66315 2.29072-1.32931c1.74992-1.017 3.49984-2.034 5.25989-3.03333 1.5868-.90106 3.18451-1.78295 4.7822-2.66494q1.061-.58572 2.1211-1.17307l.02936-.01629.02879-.01728c3.77376-2.26364 8.77-5.21329 13.95178-7.95288l.03059-.01617.03-.01725 1.06448-.6108q6.32419-3.629 12.65014-7.25489m1.66136-3.23129a.13539.13539 0 0 0-.06891.01471q-8.15467 4.66773-16.30248 9.34759c-4.76673 2.52015-9.42335 5.23316-14.04578 8.00586-2.30767 1.28095-4.6253 2.54438-6.92023 3.84754-2.5324 1.43786-5.04407 2.91223-7.5647 4.37073-.41766.21569-.84332.41735-1.25182.6491q-11.2185 6.36458-22.4333 12.73554c1.803 1.37707 3.8952 2.27081 5.80823 3.46789 2.15845 1.35071 4.37353 2.61127 6.54657 3.93976 2.23944 1.369 4.65375 2.475 6.91315 3.83905a8.18561 8.18561 0 0 1 .77252.59729c4.76447 2.79608 9.68945 5.31629 14.33124 8.32483l.114-.0144.11286.01666c3.38018-1.74969 6.6687-3.661 9.92633-5.62671q4.89852-2.78521 9.797-5.57055c.46015-.239.92988-.46137 1.37885-.71979q4.754-2.73671 9.50079-5.48566c.79572-.41626 1.56727-.89038 2.393-1.23474a2.19655 2.19655 0 0 0 1.40581-2.42816c-.06763-12.17829-.06159-24.35706-.07617-36.53565-.00061-.5039-.00013-1.00775-.00013-1.50506-.16367-.01059-.26731-.03583-.33691-.03583zm-12.5437 43.138a2.26824 2.26824 0 0 0-.02306-.48914 2.26857 2.26857 0 0 1 .02313.48914z"/><path fill="url(#e)" d="M123.03046 97.09827a3.43622 3.43622 0 0 0-.43378-.34632c-6.19055-3.51544-12.45538-6.90722-18.55377-10.57538-4.89386-2.94366-9.90277-5.67944-14.81623-8.58343-1.57-1.47247-2.97552-1.51691-4.95764-.30908-9.78332 5.9613-19.69232 11.71649-29.556 17.5462-.50384.29779-.99768.61249-1.60077.98364.907.52509 1.6449.95539 2.38569 1.38074q10.56811 6.06849 21.137 12.13556c.36059.22852.7135.47009 1.0827.68365q12.22413 7.07007 24.45276 14.13215 10.37027 5.97674 20.75885 11.92175.051-3.32016.10254-6.63965.00008-16.16436-.00135-32.32983z"/><path fill="url(#f)" d="M81.94769 199.39612l-.11316.01446c-.47216.02143-.93231.011-1.3872-.01287.45465.02386.91449.03424 1.38635.01281-4.64179-3.00854-9.56677-5.52875-14.33142-8.32458a8.12313 8.12313 0 0 0-.77234-.59754c-2.2594-1.36407-4.67371-2.47009-6.91315-3.83905-2.173-1.32849-4.38812-2.589-6.54657-3.93976-1.913-1.19708-4.00525-2.09082-5.80822-3.46789a2.56187 2.56187 0 0 1-1.26417-.57044q-4.49184-2.53839-8.97521-5.09191c-2.73957-1.66187-5.48023-3.32215-8.33893-4.77643-5.2685-3.0849-10.537-6.1698-16.01331-9.37641 0 .63471.00006.91382 0 1.19287q-.00292 38.53492-.00537 77.06983c0 .28509-.00922.57178.017.85486.032.34546.306.27423.53192.27112 3.90173-2.25727 7.79755-4.52491 11.70642-6.76972q12.58932-7.22964 25.18939-14.441l.00006-.00024q1.45076-.76731 2.90137-1.53461 7.13323-4.04479 14.26636-8.08966 2.41048-1.43234 4.82117-2.86432c3.24133-1.92254 6.62909-3.59472 9.76184-5.70288zm-3.05841-.15955c-.019-.00305-.03869-.00445-.05774-.00763.01905.00318.0387.00458.05774.00763z"/><path fill="url(#g)" d="M14.87019 162.9151l13.0029 7.61371.051.02988.05271.02682c2.81517 1.43213 5.557 3.09537 8.20848 4.7038l.02465.01495.02507.01425 2.10483 1.19559q3.43556 1.95186 6.87408 3.89841c.06109.03451.11943.075.17875.11422a4.12512 4.12512 0 0 0 1.27037.61112 32.06076 32.06076 0 0 0 3.38839 2.03567c.75729.41278 1.47258.80268 2.15783 1.23148 1.25324.78424 2.53617 1.54507 3.77686 2.28082.93166.55252 1.8634 1.105 2.78752 1.67 1.19685.73163 2.4354 1.38822 3.63317 2.02317 1.14809.60864 2.23251 1.1835 3.28943 1.82159a3.45494 3.45494 0 0 1 .28436.22431c.0953.07971.19083.15914.2882.23544l.10558.0827.11568.06787c1.73778 1.01972 3.51688 2.01444 5.23738 2.97641 2.13265 1.19239 4.31667 2.41349 6.44665 3.6973-1.05811.62134-2.14311 1.22436-3.26092 1.84564-1.19382.66351-2.42827 1.34964-3.63479 2.06528l-3.40395 2.022-1.38343.82275-14.24079 8.07512-.09379.04959-2.782 1.47171-.0299.01584-.02933.01681-7.59194 4.35056q-8.80113 5.04278-17.59887 10.09122-4.03541 2.31747-8.05847 4.65655l-1.20074.69556.00469-68.03735.00037-4.71079m-1.99983-3.48859c0 .63471.00006.91382 0 1.19287q-.00292 38.53492-.00537 77.06983c0 .28509-.00922.57178.017.85486.02236.24106.16252.27923.32194.27923.069 0 .14171-.00717.21-.00811 3.90173-2.25727 7.79754-4.52491 11.70642-6.76972q12.58932-7.22964 25.1894-14.441l.00006-.00024q1.45074-.76731 2.90136-1.53461 7.13323-4.04479 14.26637-8.08966 2.41047-1.43234 4.82115-2.86432c3.24134-1.92254 6.62909-3.59472 9.76184-5.70288l-.11284-.01666-.11317.01446c-.17839.00809-.35508.01166-.5304.01166-.28873 0-.57377-.00964-.8568-.02453.28277.01486.56762.02447.85605.02447.17532 0 .35192-.00357.5303-.01166-4.64178-3.00854-9.56677-5.52875-14.33143-8.32458a8.1206 8.1206 0 0 0-.77234-.59754c-2.2594-1.36407-4.6737-2.47009-6.91313-3.83905-2.173-1.32849-4.38813-2.589-6.54657-3.93976-1.913-1.19708-4.00525-2.09082-5.80823-3.46789h-.00969a2.59309 2.59309 0 0 1-1.25447-.57047q-4.49186-2.53839-8.97523-5.09191c-2.73955-1.66187-5.48022-3.32215-8.33892-4.77643-5.26849-3.0849-10.537-6.1698-16.01331-9.37641zm66.01892 39.81006c-.019-.00305-.03869-.00445-.05774-.00763.019.00318.0387.00458.05774.00763z"/><path fill="url(#h)" d="M46.89227 120.25153c.11267-4.85749.12879-9.715-.00049-14.57239l.09229-13.73248c-.70526-.17151-1.1485.36822-1.65912.65734q-8.22611 4.65766-16.42657 9.36084-3.34534 1.97544-6.69062 3.95087-3.55123 1.98816-7.10443 3.97253c-.4461.24781-.91858.44819-1.37884.67035l.0188-.022-.29877.26465q-.15.12844-.29968.25629-.21342 5.16842-.02784 10.33892c-.15777 3.9961-.18627 7.99274-.0523 11.99018h.00006a3.1022 3.1022 0 0 0-.10217.55566c-.01911 5.61914-.007 11.23853-.07007 16.85712-.01038.92169.504 1.21081 1.13739 1.57806q15.86178 9.19638 31.71631 18.40515c.34753.20142.6571.55982 1.21753.44648 0-.468-.00025-.94092 0-1.41388q.00924-17.92887.01519-35.85779c.00006-.47333-.04907-.94666-.07525-1.42.09277-4.09535.13018-8.19069-.01142-12.2859z"/><path fill="url(#i)" d="M190.93512 238.34406q-18.02215-4.467-36.04669-8.92457-18.86637-4.66762-37.734-9.33-13.54926-3.33893-27.108-6.63922v-.00013c-7.51923-1.83874-14.99408-3.86053-22.56885-5.47015q-7.13315 4.04488-14.26636 8.08966-1.45065.76731-2.90143 1.53485-12.59527 7.21976-25.18939 14.441c-3.90887 2.24481-7.80469 4.51245-11.70636 6.76972a2.8392 2.8392 0 0 0 .42127.06134q19.952-.02757 39.90405-.0611 18.29992.00384 36.59991.00781c6.00159.01282 12.00318.036 18.00476.03681q41.87046.00594 83.74091.00177a3.1918 3.1918 0 0 0-1.14982-.51779zM89.889 214.40466a11.40391 11.40391 0 0 0-.10114 1.42371 11.40391 11.40391 0 0 1 .10114-1.42371z"/><path fill="#0474c1" stroke="url(#j)" stroke-miterlimit="10" stroke-width="2" d="M80.58429 71.07117C75.74957 68.288 70.94751 65.4483 66.1297 62.6358Q55.91461 56.67252 45.692 50.72229q-7.38717-4.29061-14.798-8.54029-8.2197-4.84-16.44086-9.67774c-1.4555-.85492-1.472-.83923-1.47344.88617q-.01218 14.49638-.01545 28.99274c0 .51886.06848 1.03772.10511 1.55664a1.01 1.01 0 0 1 .23462.029 1.01013 1.01013 0 0 0-.23469-.029 11.08121 11.08121 0 0 0-.111 1.12378q-.00823 22.38354.00269 44.76709c.00018.41015-.14875.85949.1839 1.22693q.14959-.12763.29968-.25629c.05517-.13336.06976-.3125.2854-.265l15.16829-8.57132q8.21008-4.68658 16.4267-9.361c.51062-.28912.95386-.82885 1.65912-.65734a.61309.61309 0 0 0 .40894-.50434q4.67376-2.65255 9.3482-5.30792 11.93911-6.81619 23.88092-13.62756c1.07111-.6073.91773-.88562-.03784-1.43567z"/><path fill="url(#k)" d="M221.6 79.4c.504.42557 1.15.26675 1.72295.41133 4.31614 1.08913 6.67775 3.96548 7.5706 8.20653a21.08032 21.08032 0 0 1 .35147 4.29058c.04233 12.475.14266 24.95053.06109 37.42484q-.05842 8.93362-.04544 17.86673c.0095 8.27014.10848 16.54013.152 24.81029a42.68751 42.68751 0 0 1-.52256 6.80723c-.78054 4.999-4.585 8.15051-9.72136 8.42544-6.191.33141-10.32792-4.53926-10.84109-9.77546A4.74523 4.74523 0 0 0 210.08 175.88v-48a29.03153 29.03153 0 0 0 .14425-5.09951A17.42944 17.42944 0 0 0 210.08 118.52V92.36c.53507-1.32145.239-2.7456.5367-4.11272.911-4.18407 3.06517-7.19978 7.35466-8.4041.56758-.15936 1.21735-.00232 1.70864-.44318z"/><path fill="url(#l)" d="M715.82146 152.72253q-9.47742 0-18.95487.00152c-1.75913.00108-1.95217.19571-1.81763 1.94259.48454 6.29048 2.55919 11.86782 7.54678 16.00488 5.81959 4.82724 14.76252 5.37331 22.0169 1.50955 3.71871-1.98063 6.73224-4.84845 9.81832-7.632.68273-.6158 1.34736-1.25176 2.03613-1.86054a7.27164 7.27164 0 0 1 7.38686-1.49911c3.37242 1.04072 4.90857 4.13116 3.94054 7.86741a18.63614 18.63614 0 0 1-5.93654 9.24367 35.96261 35.96261 0 0 1-20.30983 8.87239 50.82821 50.82821 0 0 1-21.12553-1.478c-12.08977-3.68-19.834-11.69581-23.4051-23.74027a50.03274 50.03274 0 0 1-1.52183-19.81713 40.96662 40.96662 0 0 1 6.41836-18.71781c5.29846-7.9155 12.88383-12.32946 22.08545-14.16743a46.23324 46.23324 0 0 1 14.77307-.733c12.23666 1.50714 26.41014 9.06729 29.83324 26.76268a22.62146 22.62146 0 0 1 .00861 9.98134 8.1281 8.1281 0 0 1-6.03791 6.328 31.03352 31.03352 0 0 1-8.04076 1.14987c-6.23783.04154-12.47613.01314-18.7142.01314zm-3.63093-10.90962v-.03014c2.039 0 4.078.00949 6.117-.00214 3.3968-.01938 6.79535.0048 10.18951-.10383 1.67063-.05348 1.87881-.31147 1.6759-2.00474-.46916-3.91426-1.38422-7.71627-3.6791-11.01674-3.50514-5.04107-8.489-7.02793-14.48268-6.847a15.30775 15.30775 0 0 0-12.87618 6.88763 24.32768 24.32768 0 0 0-3.83953 10.58351c-.35361 2.53166-.31043 2.535 2.26257 2.534q7.31623-.00294 14.63251-.00055z"/><path fill="url(#m)" d="M440.02742 174.59056c-2.32724 2.24856-4.36564 4.603-6.8239 6.55163-6.566 5.20476-14.05416 6.96874-22.27932 6.09433a26.20069 26.20069 0 0 1-11.44282-3.5873c-5.68-3.5731-8.69336-8.88309-9.82295-15.36086a56.44927 56.44927 0 0 1-.74442-9.90727q.05211-15.89866.01254-31.7976c-.00691-3.67454-.251-7.3731.54475-10.986a8.8511 8.8511 0 0 1 9.19178-7.20175c5.44949.24442 9.10564 3.85528 9.37035 8.74408.25307 4.67351.12286 9.34735.15063 14.02193.05127 8.63394-.11994 17.27506.35926 25.90058a26.06451 26.06451 0 0 0 1.47074 7.38143c2.348 6.51749 8.10531 9.35271 15.16286 7.51773 8.0578-2.09505 12.50015-7.584 13.2288-15.90643.38824-4.43436.42583-8.85979.43878-13.296q.034-11.63758.07377-23.27515a15.00938 15.00938 0 0 1 .7771-4.70568c1.47631-4.44017 5.083-6.6783 10.09522-6.27653a8.907 8.907 0 0 1 8.17141 7.93886 22.75082 22.75082 0 0 1 .262 3.46184q.00517 28.67814.03061 57.35628a11.53534 11.53534 0 0 1-1.92471 6.81132 8.18221 8.18221 0 0 1-8.04911 3.49589 8.559 8.559 0 0 1-7.30033-5.46388 12.75582 12.75582 0 0 1-.951-5.02963c-.01169-.8271-.00204-1.65453-.00204-2.48182z"/><path fill="url(#n)" d="M301.72955 159.23468c0-5.798.06268-11.59695-.02227-17.39372a34.46139 34.46139 0 0 0-1.72852-11.195c-1.5646-4.39075-4.7272-6.67706-9.36191-7.15866-11.92762-1.23943-18.65037 8.548-19.17525 17.12349-.37182 6.0748-.02682 12.15305-.28064 18.22372-.21726 5.19626.29 10.38577.07258 15.57939a32.30855 32.30855 0 0 1-.67022 5.94421c-1.08593 4.70248-4.675 7.39089-9.63175 7.23893a9.1823 9.1823 0 0 1-8.80889-7.87625c-.68685-4.48433-.47841-9.01187-.46018-13.52618.03954-9.79344.03321-19.5877.17256-29.37983.07228-5.07866-.314-10.14754-.15118-15.22347a38.50506 38.50506 0 0 1 .69735-6.65126c1.07468-5.15308 5.46058-6.93657 9.64119-6.29865 4.70646.71816 7.63647 4.28839 7.74855 9.06873.01874.7995.01873 1.59943.03646 2.399.007.31451-.05826.71941.28478.8552.43441.172.60886-.25916.816-.53148a29.26926 29.26926 0 0 1 8.34934-7.65406c9.63428-5.693 19.57253-5.89971 29.51943-1.04416 6.92843 3.3821 10.37239 9.44158 11.677 16.86128a72.68721 72.68721 0 0 1 .62417 11.83566c.08815 7.79522-.08805 15.59322-.02548 23.389.03882 4.83651.20254 9.67431-.1088 14.50272-.23879 3.70337-1.79 6.748-5.259 8.41488a9.43709 9.43709 0 0 1-9.98492-1.00377c-3.011-2.10134-3.75127-5.35133-3.90149-8.75405-.26106-5.91317.01415-11.83021-.06891-17.74567z"/><path fill="url(#o)" d="M517.74541 99.83044c.127-2.83718-.03478-6.07279.31228-9.3036a9.173 9.173 0 0 1 9.22461-8.4602 9.27148 9.27148 0 0 1 9.38877 8.43787 83.17923 83.17923 0 0 1 .388 11.363c-.07362 2.38973.131 4.7897.01729 7.1877-.04163.87786.46441 1.136 1.2977 1.14338a67.21141 67.21141 0 0 1 8.26512.18353 6.7535 6.7535 0 0 1 5.85879 8.60554 5.51507 5.51507 0 0 1-3.88031 4.05218 27.40632 27.40632 0 0 1-9.59048 1.08926c-1.55608-.06128-1.93849.22364-1.93591 1.799q.02161 13.30852.06662 26.617c.00982 3.83734-.0179 7.67521.042 11.51174a21.9262 21.9262 0 0 0 .41737 3.80573c.57583 2.97218 2.36455 4.47161 5.38836 4.66079a29.21358 29.21358 0 0 0 6.52544-.79484 18.89554 18.89554 0 0 1 2.4881-.33527c2.70967-.07383 4.99374.79163 6.27346 3.34516a6.75184 6.75184 0 0 1-.6864 7.45455 11.00219 11.00219 0 0 1-6.30038 3.91882 42.78713 42.78713 0 0 1-20.52785.62056c-7.03213-1.55752-11.14521-6.23614-12.29341-13.3345a91.5325 91.5325 0 0 1-.83077-13.14121q-.17166-10.1942.01491-20.39332c.08388-4.59377-.16192-9.18709.08871-13.77949.0915-1.67724-.3377-2.02483-2.0175-1.99411a13.8994 13.8994 0 0 1-3.68868-.30743c-3.70649-.93388-5.65948-3.45989-5.51479-7.18056.11775-3.02821 2.64109-5.60062 6.05294-6.15939a17.23294 17.23294 0 0 1 3.21909-.2483c1.61756.03976 1.97179-.31031 1.98536-1.9333.01134-1.35868-.03718-2.71775-.0465-4.07674-.00903-1.31964-.00194-2.63932-.00194-4.35355z"/><path fill="url(#p)" d="M342.37848 145.79586q0-9.83939.00069-19.67878c.00049-1.80348-.43953-2.15611-2.21592-2.02728a8.99645 8.99645 0 0 1-6.54051-1.77528 6.56958 6.56958 0 0 1 .963-10.90247 11.913 11.913 0 0 1 6.034-1.21555c1.62139.01668 1.76288-.13986 1.76716-1.78758.01132-4.35976-.073-8.72238.06412-13.07809a25.45942 25.45942 0 0 1 .61429-6.41542 9.01713 9.01713 0 0 1 9.72175-6.81819 9.26647 9.26647 0 0 1 8.47444 7.80809 50.76076 50.76076 0 0 1 .45571 8.72387c.00528 3.19933-.02361 6.39886.00447 9.59794.01633 1.862.1424 1.92655 1.98538 1.96241a67.73572 67.73572 0 0 1 7.429.17246c4.37611.56627 6.98007 4.0545 6.1437 8.34437a5.55791 5.55791 0 0 1-3.91938 4.306 25.752 25.752 0 0 1-8.62482 1.15057c-2.80626.02069-2.96508.16716-2.96659 2.99084-.00533 10.03868-.04048 20.07746-.00341 30.116a81.37232 81.37232 0 0 0 .30768 9.34313c.554 4.65559 3.005 6.3907 7.95146 5.816 1.90144-.22092 3.77719-.65494 5.671-.951 3.45376-.54 6.229.82588 7.46513 3.63777a7.07064 7.07064 0 0 1-2.13316 8.42087 17.91137 17.91137 0 0 1-8.93647 3.46429 46.37552 46.37552 0 0 1-16.3413-.15441c-7.23727-1.47455-11.69251-6.612-12.70337-14.21471-.81551-6.13354-.68756-12.28318-.69485-18.43665q-.005-4.19957-.00056-8.39915z"/><path fill="url(#q)" d="M632.37523 164.33052a4.77425 4.77425 0 0 0 .84044-1.78731q8.42055-22.73391 16.8208-45.47533a26.81522 26.81522 0 0 1 2.131-4.54766 8.55975 8.55975 0 0 1 15.661 6.32515 45.82188 45.82188 0 0 1-2.30127 6.79874c-3.35473 8.28569-6.66572 16.58956-10.08651 24.84792-3.68089 8.88644-7.16979 17.84871-10.74908 26.77526a22.15079 22.15079 0 0 1-4.26266 7.16325c-4.75172 5.042-14.64578 4.33185-18.233-2.87036-2.17412-4.36506-4.0113-8.87336-5.78763-13.40794-3.44962-8.80621-7.19045-17.49681-10.6089-26.3121-2.82486-7.28458-5.98072-14.43351-8.48619-21.857-2.077-6.15406 3.45575-12.49906 10.53147-11.3736a7.09942 7.09942 0 0 1 5.65737 4.243 145.01642 145.01642 0 0 1 5.32468 13.96915q5.693 15.75663 11.29292 31.54683c.70409 1.97575 1.33016 3.97918 2.25556 5.962z"/><path fill="url(#r)" d="M495.744 143.001c0 8.07829-.06275 16.15727.027 24.23457a93.44589 93.44589 0 0 1-.321 11.732 9.38323 9.38323 0 0 1-9.70315 8.68337 9.282 9.282 0 0 1-9.26435-9.01045c-.33073-4.51226-.17423-9.02915-.1519-13.54579q.0783-15.838.094-31.67627c.00378-2.19758-.11543-4.39583-.09114-6.59281.03577-3.23581.1038-6.4727.24029-9.70566a9.19753 9.19753 0 0 1 10.714-8.52588c5.03.75213 8.305 4.543 8.32905 9.93151.03641 8.15831.00949 16.3169.00949 24.47538z"/><path fill="url(#s)" d="M564.759 148.95643c0-6.03762.118-12.07829-.038-18.11188a119.479 119.479 0 0 1 .42465-14.00007c.58808-6.42143 5.72461-8.94271 10.64737-8.20583 5.29242.79221 7.985 4.21157 8.20837 9.56585.29015 6.956.23856 13.91113.11168 20.86446-.15249 8.35724-.05376 16.71317-.03121 25.06913.01307 4.835.299 9.67615-.11217 14.5-.34981 4.10327-2.44415 7.11828-6.40559 8.45366a9.14957 9.14957 0 0 1-10.19777-2.52025c-1.92073-2.03618-2.32779-4.65844-2.54476-7.32174-.50124-6.15212.14013-12.30285.01471-18.45534-.06683-3.27807-.01187-6.55861-.01187-9.838z"/><path fill="url(#t)" d="M495.74023 89.78987c.0308 5.59655-3.92642 9.52447-9.6043 9.53322-5.77313.00889-9.74429-3.77125-9.81384-9.34181a9.60984 9.60984 0 0 1 9.85219-9.5819c5.65201-.03266 9.53508 3.77919 9.56595 9.39049z"/><path fill="url(#u)" d="M574.68 80.39941c5.60118-.0216 9.45724 3.76891 9.48431 9.323.02768 5.67848-3.824 9.56705-9.50933 9.60044-5.74488.03373-9.68156-3.76072-9.85-9.156a9.65057 9.65057 0 0 1 9.87502-9.76744z"/></svg>