<svg xmlns="http://www.w3.org/2000/svg" role="img" viewBox="106.63 107.63 591.24 141.74"><title>IOMesh logo</title><path fill="#7E41FF" fill-rule="evenodd" d="M274.047 178.581c0 32.906-26.675 59.581-59.581 59.581-32.905 0-59.581-26.675-59.581-59.581 0-32.906 26.676-59.581 59.581-59.581 32.906 0 59.581 26.675 59.581 59.581zm-20.67 0c0 21.49-17.421 38.911-38.911 38.911-21.49 0-38.91-17.421-38.91-38.911 0-21.49 17.42-38.911 38.91-38.911 21.49 0 38.911 17.421 38.911 38.911z" clip-rule="evenodd"/><path fill="#7E41FF" d="M138.226 121.96H118v113.242h20.226V121.96z"/><path d="M293.067 235.299h20.307v-78.775l10.678 16.63 28.184 40.263 27.834-39.913c4.902-7.002 8.403-12.779 10.854-16.98v78.775h20.307V121.862H393.55l-15.755 22.233-25.559 36.236-25.733-36.411-15.755-22.058h-17.681v113.437zm153.759-50.766c1.225-6.127 4.026-11.029 8.578-14.88 4.376-3.851 9.453-5.777 15.055-5.777 5.952 0 11.203 1.926 15.755 5.777 4.376 3.851 7.002 8.753 8.052 14.88h-47.44zm-19.957 7.527c0 13.83 4.552 24.858 13.655 32.911s20.131 12.079 33.086 12.079c11.729 0 22.757-3.326 32.91-10.328l-7.702-14.355c-7.177 5.077-15.405 7.527-24.858 7.527-6.827 0-12.604-1.75-17.506-5.426-4.902-3.677-8.053-8.928-9.453-15.58h65.646l.526-7.528c0-12.254-4.202-22.582-12.254-31.335-8.053-8.753-17.856-13.129-29.41-13.129-12.604 0-23.108 4.551-31.685 13.304-8.753 8.753-12.955 19.431-12.955 31.86zm95.995 32.386c3.151 3.151 7.877 6.127 13.829 8.753 5.952 2.626 12.954 3.851 21.007 3.851 9.453 0 17.856-2.276 25.558-6.827 7.528-4.552 11.379-11.554 11.379-20.832 0-8.053-3.151-14.18-9.103-18.381-6.127-4.201-14.004-7.352-23.808-9.453-3.501-.7-5.952-1.226-7.527-1.751-1.751-.35-3.326-1.225-4.902-2.45-1.75-1.226-2.451-2.801-2.451-4.727 0-2.101 1.226-4.026 3.852-5.427 2.626-1.4 5.602-2.1 9.103-2.1 8.052 0 15.93 2.275 23.632 6.477l7.178-15.756c-10.154-5.951-20.482-8.927-30.985-8.927-8.403 0-15.931 2.45-22.583 7.177-6.652 4.726-9.978 11.029-9.978 18.906 0 4.201.7 7.703 2.276 10.679 1.4 2.976 3.851 5.426 7.002 7.352 3.151 2.101 6.127 3.676 9.278 4.727 2.976 1.05 7.002 2.275 11.904 3.676.7.35 1.575.525 2.801.875 1.225.35 2.101.525 2.801.7.7.35 1.575.525 2.626.876 1.05.35 1.75.525 2.45.875.701.35 1.401.525 2.276.875.7.35 1.401.875 1.751 1.225.35.351.875.876 1.4 1.401.35.525.7 1.05.876 1.575.175.701.35 1.226.35 1.926 0 2.801-1.751 5.077-5.252 6.652-3.501 1.751-7.528 2.451-11.904 2.451-9.803 0-19.081-3.326-27.484-10.328l-7.352 15.93zm85.668 10.853h19.432v-45.514c0-7.003 1.925-12.78 5.776-17.331 3.852-4.552 8.928-6.827 15.581-6.827 6.827 0 11.553 1.925 14.179 5.602 2.626 3.676 4.026 9.278 4.026 16.805v47.265h19.432v-49.716c0-25.733-10.504-38.687-31.16-38.687-12.429 0-21.707 4.726-27.834 14.179v-40.963h-19.432v115.187z"/></svg>