<svg xmlns="http://www.w3.org/2000/svg" viewBox="0.42 0.42 290.16 179.16"><title>JFrog Artifactory logo</title><defs><clipPath id="a" clipPathUnits="userSpaceOnUse"><path d="M0 136.32h219.23V0H0z"/></clipPath></defs><g><g><g clip-path="url(#a)" transform="matrix(1.33333 0 0 -1.33333 0 181.76)"><g><path fill="#61a63a" d="M8.14 35.367h4.692V16.863c0-2.973-.099-3.569-.331-4.493-.66-2.808-3.27-4.593-5.352-5.387L5.002 9.364c1.188.726 2.247 1.85 2.676 2.775.363.825.462 1.751.462 4.23z"/></g><g><path fill="#61a63a" d="M15.246 35.301h12.457l-.528-3.734h-7.303v-5.253h5.848v-3.767h-5.848V12.403h-4.626z"/></g><g><path fill="#61a63a" d="M26.648 28.66l3.965 1.057c.396-.694.628-1.455.694-2.412.627.858 1.685 1.75 2.51 2.147.364.166.96.265 1.455.265.66 0 .957-.066 1.652-.364l-1.223-3.9c-.429.232-.792.33-1.289.33-.99 0-1.882-.461-2.709-1.418V12.403h-4.428v11.3c0 2.28-.264 3.998-.627 4.957"/></g><g><path fill="#61a63a" d="M43.899 26.38c-1.057 0-1.917-.662-2.28-1.718-.297-.893-.462-2.082-.462-3.768 0-1.949.198-3.403.56-4.262.398-.924 1.39-1.388 2.248-1.388 1.917 0 2.742 1.718 2.742 5.717 0 2.28-.297 3.767-.891 4.526-.43.561-1.125.893-1.917.893m-.066 3.27c2.412 0 4.295-.825 5.75-2.544 1.353-1.586 1.949-3.436 1.949-6.178 0-2.908-.662-4.89-2.114-6.543-1.29-1.454-2.975-2.345-5.585-2.345-4.593 0-7.6 3.435-7.6 8.755s3.04 8.855 7.6 8.855"/></g><g><path fill="#61a63a" d="M59.596 26.38c-1.685 0-2.643-.926-2.643-2.512 0-1.717 1.057-2.412 2.61-2.412 1.75 0 2.709.86 2.709 2.412 0 1.586-.991 2.512-2.676 2.512m8.657 3.898l1.85-2.808c-.957-.892-1.883-1.255-3.105-1.255-.431 0-.596.033-1.157.1.66-.795.99-1.653.99-2.778 0-2.907-2.642-5.02-6.244-5.02-.2 0-.331 0-.661.032-1.122-.529-1.751-.926-1.751-1.389 0-.23.264-.396.728-.396l2.378-.033c2.577-.033 3.933-.429 5.12-1.52.993-.925 1.456-2.082 1.456-3.6 0-1.422-.43-2.513-1.356-3.503-1.486-1.587-4.031-2.18-6.674-2.18-2.412 0-4.89.395-6.41 1.816-.924.86-1.388 1.851-1.388 3.006 0 .926.232 1.39.398 1.72h4.097c-.132-.364-.2-.496-.2-1.09 0-1.356 1.124-2.082 3.173-2.082 1.256 0 2.214.165 2.808.561.629.396 1.058 1.057 1.058 1.718s-.33 1.255-.794 1.52c-.462.23-1.09.43-2.313.496-.231 0-.858.033-1.883.033-1.981.033-3.27.231-4.063.528a2.11 2.11 0 0 0-.96.826 3.09 3.09 0 0 0-.33 1.388c0 .627.166 1.156.529 1.553.495.562 1.587 1.057 2.577 1.288-2.445.63-3.633 2.181-3.633 4.692 0 3.47 2.808 5.716 7.136 5.716.958 0 1.818-.099 3.039-.429 1.223-.297 1.52-.363 2.082-.363 1.223 0 2.479.528 3.503 1.453"/></g><g><path fill="#61a63a" d="M81.11 21.687h4.493s-.76 2.413-1.254 4.627a580.627 580.627 0 0 1-.926 4.064s-.661-2.71-1.09-4.429c-.43-1.65-.726-2.742-1.223-4.262m-.033 13.746h4.99l7.236-23.03h-4.956l-1.62 5.452h-6.74l-1.62-5.452h-4.823z"/></g><g><path fill="#61a63a" d="M93.142 28.66l3.965 1.057c.396-.694.628-1.455.694-2.412.627.858 1.685 1.75 2.51 2.147.364.166.959.265 1.455.265.66 0 .957-.066 1.652-.364l-1.223-3.9c-.429.232-.792.33-1.289.33-.991 0-1.882-.461-2.709-1.418V12.403h-4.428v11.3c0 2.28-.264 3.998-.627 4.957"/></g><g><path fill="#61a63a" d="M113.993 29.353l-1.124-2.94h-2.841V17.79c0-2.147.396-2.71 1.916-2.71.397 0 .793.1 1.587.33l.56-2.643c-1.288-.528-2.444-.759-3.601-.759-2.247 0-4.064.99-4.56 2.477-.264.727-.297 1.057-.297 2.61v9.32h-1.685v2.873h1.685c0 1.652 0 2.775.166 4.031l4.493 1.123a49.91 49.91 0 0 1-.264-5.088z"/></g><g><path fill="#61a63a" d="M115.35 29.023l4.427.693V12.403h-4.427zm2.28 7.698c1.487 0 2.676-1.222 2.676-2.742a2.734 2.734 0 0 0-2.742-2.742c-1.488 0-2.71 1.221-2.71 2.742 0 1.52 1.255 2.742 2.776 2.742"/></g><g><path fill="#61a63a" d="M131.278 33.087c-.96.462-1.29.561-1.817.561-1.125 0-1.851-.693-1.851-1.916v-2.379h4.295l-1.122-3.105h-3.14V12.403h-4.328v13.845h-1.521v3.105h1.62a16.83 16.83 0 0 0-.165 2.28c0 3.338 1.982 5.254 5.452 5.254 1.453 0 2.643-.299 3.998-1.058z"/></g><g><path fill="#61a63a" d="M140.565 19.804h-.198c-3.074 0-4.13-.561-4.13-2.577 0-1.321.825-2.214 1.949-2.214.826 0 1.65.43 2.313 1.158zm-8.69 7.5c1.09.694 1.552.926 2.742 1.389 1.653.694 3.072.99 4.626.99 2.842 0 4.79-1.056 5.452-2.94.23-.694.297-1.222.297-3.04l-.1-5.682v-.297c0-1.818.299-2.513 1.588-3.47l-2.348-2.71c-1.023.43-1.948 1.19-2.378 2.05-.628-.596-.694-.662-1.024-.893-.827-.595-2.016-.925-3.404-.925-3.767 0-5.815 1.917-5.815 5.286 0 3.965 2.743 5.816 8.128 5.816.33 0 .53 0 .992-.033v.693c0 1.884-.363 2.51-1.983 2.51-1.421 0-3.073-.692-4.89-1.914z"/></g><g><path fill="#61a63a" d="M159.402 27.866l-2.15-2.907c-.891.825-1.848 1.322-2.675 1.322-1.983 0-2.874-1.718-2.874-5.683 0-2.214.264-3.536.858-4.263a2.56 2.56 0 0 1 1.983-.959c1.025 0 1.949.431 3.04 1.388l.265.232 2.015-2.676c-.662-.661-.96-.893-1.553-1.257-1.19-.693-2.511-1.056-4.13-1.056-4.66 0-7.368 3.237-7.368 8.723 0 3.899 1.486 6.476 3.469 7.831 1.124.759 2.776 1.255 4.196 1.255a7.808 7.808 0 0 0 3.272-.76c.627-.33.924-.561 1.652-1.19"/></g><g><path fill="#61a63a" d="M170.407 29.353l-1.124-2.94h-2.84V17.79c0-2.147.395-2.71 1.915-2.71.397 0 .793.1 1.587.33l.561-2.643c-1.289-.528-2.445-.759-3.602-.759-2.247 0-4.064.99-4.559 2.477-.265.727-.298 1.057-.298 2.61v9.32h-1.685v2.873h1.685c0 1.652 0 2.775.166 4.031l4.493 1.123a49.91 49.91 0 0 1-.264-5.088z"/></g><g><path fill="#61a63a" d="M178.438 26.38c-1.057 0-1.917-.662-2.28-1.718-.297-.893-.462-2.082-.462-3.768 0-1.949.198-3.403.561-4.262.397-.924 1.39-1.388 2.247-1.388 1.917 0 2.742 1.718 2.742 5.717 0 2.28-.297 3.767-.89 4.526-.43.561-1.126.893-1.918.893m-.066 3.27c2.412 0 4.295-.825 5.75-2.544 1.353-1.586 1.95-3.436 1.95-6.178 0-2.908-.663-4.89-2.115-6.543-1.29-1.454-2.975-2.345-5.585-2.345-4.593 0-7.6 3.435-7.6 8.755s3.04 8.855 7.6 8.855"/></g><g><path fill="#61a63a" d="M187.296 28.66l3.965 1.057c.396-.694.628-1.455.694-2.412.627.858 1.685 1.75 2.51 2.147.364.166.959.265 1.455.265.66 0 .957-.066 1.652-.364l-1.223-3.9c-.43.232-.792.33-1.29.33-.99 0-1.881-.461-2.708-1.418V12.403h-4.428v11.3c0 2.28-.264 3.998-.627 4.957"/></g><g><path fill="#61a63a" d="M197.476 29.023l4.526.528 2.942-9.847c.297-1.023.892-3.5.892-3.5s.33 1.883.528 2.708c.264 1.058.33 1.223.662 2.346l2.544 8.03h4.658l-6.146-17.149c-1.155-3.272-2.015-4.692-3.237-5.585-1.124-.825-2.578-1.354-4.097-1.552l-1.521 2.907c.958.265 2.082.661 2.742 1.123.496.365.893.827 1.257 1.388.429.694.561.992.957 1.983h-1.122c-.265.792-.398 1.124-.695 1.983-.331 1.023-.859 2.708-.892 2.775z"/></g><g><path fill="#61a63a" d="M109.583 125.939c-13.76 0-24.953-11.193-24.953-24.953s11.193-24.952 24.953-24.952 24.953 11.193 24.953 24.952c0 13.76-11.193 24.953-24.953 24.953m0-55.284c-16.725 0-30.332 13.606-30.332 30.33 0 16.726 13.607 30.333 30.332 30.333s30.332-13.607 30.332-30.332-13.607-30.331-30.332-30.331"/></g><path fill="#61a63a" d="M139.979 53.05H79.662v5.379h60.317z"/></g></g></g></svg>