<svg xmlns="http://www.w3.org/2000/svg" role="img" viewBox="-2.26 -2.26 117.39 49.39"><title>Jeli (member) logo</title><g clip-path="url(#clip0)"><path fill="#253646" d="M64.3139 4.19569c0 .58402-.1153 1.12961-.3459 1.63678-.2306.50718-.5406.94903-.9303 1.3256-.3896.3765-.8508.67617-1.3835.89902-.5328.22284-1.0933.3343-1.6817.3343-.6203 0-1.1967-.11146-1.7294-.3343-.5328-.22285-.998-.52252-1.3955-.89902-.3976-.37657-.7117-.81842-.9423-1.3256-.2305-.50717-.3458-1.05276-.3458-1.63678 0-.56865.1153-1.11039.3458-1.62525.2306-.51486.5447-.96056.9423-1.33709.3975-.37654.8627-.67623 1.3955-.89908C58.7758.11142 59.3522 0 59.9725 0c.5884 0 1.1489.11142 1.6817.33427.5327.22285.9939.52254 1.3835.89908.3897.37653.6997.82223.9303 1.33709.2306.51486.3459 1.0566.3459 1.62525zM46.8289 44.9999v-6.3396l3.6019.0461c.8747 0 1.6857-.1729 2.4332-.5187.7474-.3458 1.3954-.8068 1.944-1.3832.5487-.5763.9821-1.241 1.3001-1.9941.318-.7531.4771-1.5446.4771-2.3745V10.9042h6.6553v21.5317h-.0477c-.0159 1.1527-.179 2.2669-.489 3.3428-.3101 1.0758-.7514 2.0786-1.3239 3.0084-.5725.9298-1.2563 1.7751-2.0515 2.5358-.7951.7608-1.6737 1.414-2.6358 1.9596-.9622.5455-1.9958.9682-3.1011 1.2679-1.1052.2997-2.2542.4495-3.4469.4495h-3.3157zm31.4875-15.4457c.2545.0769.5085.1268.763.1499.2546.023.5092.0346.7638.0346.6361 0 1.2483-.0845 1.8366-.2536.5882-.169 1.1406-.4111 1.6578-.7262.5164-.3151.9777-.6992 1.3832-1.1526.4055-.4534.7358-.9567.9904-1.51l4.7706 4.6337c-.6042.8299-1.3002 1.5753-2.0872 2.2362-.787.6608-1.6378 1.2217-2.5524 1.6828-.9147.4611-1.8765.8107-2.8862 1.049-1.0097.2382-2.0473.3573-3.1128.3573-1.7974 0-3.4871-.3228-5.0691-.9683-1.5826-.6454-2.9659-1.5445-4.151-2.6972-1.1845-1.1526-2.1191-2.5243-2.8024-4.115-.684-1.5906-1.0257-3.3389-1.0257-5.2446 0-1.9519.3417-3.7347 1.0257-5.3483.6833-1.6138 1.6179-2.9893 2.8024-4.1266 1.1851-1.1373 2.5684-2.021 4.151-2.6511 1.582-.6301 3.2717-.94518 5.0691-.94518 1.0655 0 2.1071.12298 3.1248.36878 1.0176.246 1.9835.5994 2.8981 1.0605.9146.461 1.7694 1.0259 2.5644 1.6944.795.6686 1.495 1.4178 2.0992 2.2477L78.3164 29.5542zm3.3394-12.9789c-.3024-.1076-.6002-.1768-.8946-.2075-.2938-.0307-.6003-.0461-.918-.0461-.8907 0-1.7296.1575-2.5166.4726-.7877.315-1.471.7646-2.0519 1.3486-.5803.584-1.0376 1.2871-1.3713 2.1094-.3344.8222-.5012 1.7482-.5012 2.7779 0 .2305.012.4918.0359.7838.0239.292.0638.5879.119.8875.0558.2997.1236.5879.2027.8646.0798.2766.1835.5225.3104.7376l7.5856-9.7284zm18.7012 19.0189h-6.5596V1.0835h6.5596v34.5107zM113 4.19569c0 .58402-.115 1.12961-.346 1.63678-.23.50718-.545.94903-.942 1.3256-.398.3765-.863.67617-1.395.89902-.533.22284-1.102.3343-1.706.3343-.604 0-1.173-.11146-1.706-.3343-.533-.22285-.993-.52252-1.383-.89902-.39-.37657-.7-.81842-.93-1.3256-.231-.50717-.346-1.05276-.346-1.63678 0-.56865.115-1.11039.346-1.62525.23-.51486.54-.96056.93-1.33709.39-.37654.85-.67623 1.383-.89908S108.007 0 108.611 0c.604 0 1.173.11142 1.706.33427.532.22285.997.52254 1.395.89908.397.37653.712.82223.942 1.33709.231.51486.346 1.0566.346 1.62525zm-1.121 31.39851h-6.56v-24.69h6.56v24.69z"/><path fill="#FF6968" fill-rule="evenodd" d="M37.437.64873c.7559.30841 1.2477 1.02722 1.2477 1.82373V25.6435c0 .5034-.1976.9879-.5525 1.3548l-8.1441 8.4174c-.7702.796-2.0588.8347-2.8781.0865-.8193-.7481-.8592-2-.089-2.796l7.5916-7.8464V7.18244L21.3784 19.7903v23.2316c0 .8059-.5034 1.5313-1.2724 1.8336-.7692.3022-1.6501.1209-2.2269-.4583L.57274 27.0189C.20538 26.65 0 26.1569 0 25.6435V2.47246C0 1.67952.48742.96321 1.23838.65256c.75095-.31066 1.62029-.1556 2.20869.39393L13.4665 10.4041c.8107.7571.836 2.0092.0567 2.7967-.7792.7876-2.0681.8123-2.8787.0552L4.07207 7.11781V24.8433L17.3063 38.1326v-19.173c0-.5313.22-1.0404.6105-1.4124L35.2231 1.06016c.5854-.55768 1.458-.71984 2.2139-.41143z" clip-rule="evenodd"/></g><defs><clipPath id="clip0"><path fill="#fff" d="M0 0h113v45H0z"/></clipPath></defs></svg>