<svg id="svg2" xmlns="http://www.w3.org/2000/svg" viewBox="-0.7800199999999222 -0.7400099999999838 1053.52 325.52000000000004"><defs><style>.cls-1{fill:#d33833;}.cls-2{fill:#ef3d3a;}.cls-3{fill:#231f20;}.cls-4{fill:#f0d6b7;}.cls-5{fill:#335061;}.cls-6{fill:#6d6b6d;}.cls-7{fill:#dcd9d8;}.cls-8{fill:#f7e4cd;}.cls-9{fill:#49728b;}.cls-10{fill:#fff;}.cls-11{fill:#81b0c4;}.cls-12{fill:#1d1919;}.cls-13{isolation:isolate;}</style></defs><title>jenkins</title><g id="g10"><g id="g3393"><g id="path22"><path class="cls-1" d="M242.5879,156.37052c0,61.786-48.96875,111.874-109.375,111.874-60.40525,0-109.37407-50.088-109.37407-111.874,0-61.78749,48.96881-111.87626,109.37407-111.87626,60.40625,0,109.375,50.08875,109.375,111.87626"/></g><g id="path24"><path class="cls-2" d="M28.29588,184.078s-7.918-116.66625,99.58253-120l-7.4995-12.5L62.0459,71.16178,45.3789,90.328l-14.583,27.9175-8.334,32.5,2.5,21.66625"/></g><g id="path26"><path class="cls-3" d="M58.30077,80.05178a109.42113,109.42113,0,0,0-31.065,76.73626h0a109.41044,109.41044,0,0,0,31.065,76.72987h0A104.40809,104.40809,0,0,0,133.2114,265.263h0a104.4058,104.4058,0,0,0,74.9115-31.74512h0A109.417,109.417,0,0,0,239.18914,156.788h0A109.42765,109.42765,0,0,0,208.1229,80.05178h0A104.43017,104.43017,0,0,0,133.2114,48.308h0A104.43248,104.43248,0,0,0,58.30077,80.05178ZM53.44327,238.2669A116.22191,116.22191,0,0,1,20.4404,156.788h0A116.2242,116.2242,0,0,1,53.44327,75.30553h0a111.2165,111.2165,0,0,1,79.76812-33.79h0a111.20918,111.20918,0,0,1,79.76776,33.79h0A116.211,116.211,0,0,1,245.98291,156.788h0a116.20429,116.20429,0,0,1-33.00375,81.47887h0a111.22972,111.22972,0,0,1-79.76776,33.791h0a111.237,111.237,0,0,1-79.76812-33.791h0"/></g><g id="path28"><path class="cls-4" d="M179.25415,156.99052l-16.6675,2.5-22.50025,2.5-14.584.41625-14.166-.41625-10.834-3.33375-9.5835-10.41625-7.5-21.25-1.6665-4.58376-10-3.3325-5.8335-9.58374-4.1665-13.75,4.584-12.08374,10.8325-3.75,8.75,4.1675,4.1675,9.16624,5-.83376,1.666-2.0825-1.666-9.58374-.4175-12.08374,2.5-16.66626-.09762-9.52,7.59762-12.14624,13.3335-9.58376,23.334-10,25.83275,3.75,22.5,16.25,10.4175,16.66626,6.66624,12.08374,1.66624,30-5,25.83374-9.16624,22.91626-8.75,12.08374"/></g><g id="path30"><path class="cls-5" d="M165.08665,229.073l-59.58425,2.5v10l5,35-2.5,2.9175-41.666-14.1675-2.9175-5-4.1665-47.0825-9.582-28.33375-2.084-6.66625,33.3325-22.91625,10.4175-4.1675,9.166,11.25,7.9165,7.08375,9.1675,2.91625,4.166,1.25,5,21.66625,3.75,4.5835,9.584-3.3335-6.6675,12.9175,36.25025,17.0825-4.5825,2.5"/></g><g id="path32"><path class="cls-6" d="M66.3364,83.65678l10.8325-3.75,8.75,4.1675,4.1675,9.16624,5-.83376,1.25-5-2.5-9.5825,2.5-22.9175-2.084-12.5,7.5-8.75,16.25-12.91624-4.5835-6.25-22.9165,11.25-9.5835,7.5-5.4165,11.66626-8.3335,11.25-2.5,13.33374,1.6675,14.16626"/></g><g id="path34"><path class="cls-7" d="M83.4189,44.49052s6.25-15.41626,31.25-22.91626,1.25-5.4175,1.25-5.4175L88.8364,26.57426,78.4189,36.99052l-4.5825,8.33374,9.5825-.83376"/></g><g id="path36"><path class="cls-7" d="M70.9189,80.74052s-8.75-29.1675,24.5835-33.33374l-1.25-5-22.916,5.4175L64.6689,69.49052l1.6675,14.16626,4.5825-2.91624"/></g><g id="path38"><path class="cls-8" d="M84.2524,119.49052l5.45563-5.28625a3.51334,3.51334,0,0,1,2.87838,3.2025c.416,2.9175,1.666,29.1675,19.5825,43.335,1.63425,1.2925-13.3325-2.085-13.3325-2.085l-13.334-20.8325"/></g><g id="path40"><path class="cls-8" d="M160.92165,111.57428s.97125-12.63,4.3725-11.65874a4.682,4.682,0,0,1,3.40125,4.3725s-8.26,5.34374-7.77375,7.28624"/></g><g id="path42"><path class="cls-8" d="M195.5029,65.32428s-6.8675,1.45-7.5,7.5c-.6325,6.05125,7.5,1.25,8.75.83376"/></g><g id="path44"><path class="cls-8" d="M145.0864,65.74178s-9.1675,1.25-9.1675,7.0825c0,5.83376,10.41775,5.4175,13.334,2.9175"/></g><g id="path46"><path class="cls-8" d="M88.4189,92.82428s-15.834-9.58376-17.5-.41624c-1.6665,9.16626-5.4175,15.83374,2.5,25.41626l-5.4165-1.66624-5-12.91624-1.666-12.5,9.5825-10.00126,10.8335.83376,6.25,5,.4165,6.25"/></g><g id="path48"><path class="cls-8" d="M95.9189,66.57428s7.0835-36.66624,42.91749-43.75c29.5015-5.83124,44.999,1.25,50.83275,7.91624,0,0-26.25-31.24874-51.25025-21.66626-25,9.58374-43.3325,27.08374-42.9165,38.3325.7095,19.16.4165,19.1675.4165,19.1675"/></g><g id="path50"><path class="cls-8" d="M192.58664,34.90678s-12.0825-.41624-12.5,10.4175a8.28262,8.28262,0,0,0,.8325,3.3325s9.585-10.83374,15.4175-5"/></g><g id="path52"><path class="cls-8" d="M139.67628,49.78553s-2.08013-16.62874-16.25737-6.96125c-9.1665,6.25-8.3325,15-6.6665,16.66624,1.6665,1.6675,1.21338,5.02375,2.482,2.72,1.268-2.30375.8505-9.80375,5.4345-11.88625,4.5835-2.08376,12.09713-4.41126,15.00737-.53875"/></g><g id="path54"><path class="cls-9" d="M100.5024,162.40678l-39.166,17.5s16.25,64.58375,7.916,84.58375l-5.8335-2.0825-.4165-24.584-10.832-46.666-4.584-12.9175,40.8325-27.49875,12.0835,11.665"/></g><g id="path56"><path class="cls-9" d="M104.52977,198.12827l5.55662,6.77975v25h-6.6675s-.8325-17.5-.8325-19.584c0-2.0835.8325-9.5835.8325-9.5835"/></g><g id="path58"><path class="cls-9" d="M104.6689,233.658l-18.75.8325,5.4175,3.75,13.3325,2.0835"/></g><g id="path60"><path class="cls-5" d="M168.83665,229.49053l15.41625-.4165,3.75,38.334-15.83375,2.0825-3.3325-40"/></g><g id="path62"><path class="cls-5" d="M173.0029,229.49053l23.33376-1.25s9.5825-24.1665,9.5825-25.4165,8.33376-34.99975,8.33376-34.99975l-18.75-19.5825-3.75-3.33376-10,10v38.75l-8.75,35.8325"/></g><g id="path64"><path class="cls-9" d="M183.41914,226.574l-14.5825,2.9165,2.0825,11.6675c5.41625,2.5,14.58374-4.1675,14.58374-4.1675"/></g><g id="path66"><path class="cls-9" d="M183.83664,153.658l29.16624,21.66625.83376-10L191.75288,144.908l-7.91626,8.75"/></g><g id="path68"><path class="cls-10" d="M119.1289,311.578,110.5024,276.573l-4.29049-25.8285-.70951-19.1715,39.0435-2.0785,24.29075-.004-2.20875,43.754,3.75,33.75-.41625,6.25-31.66574,2.5-19.167-4.16651"/></g><g id="path70"><path class="cls-7" d="M163.41915,229.074s-2.0825,43.334,4.1675,74.1665a79.5995,79.5995,0,0,1-30.83425,10l35.0005-1.25,4.16625-2.5-5-68.33254-1.25-14.585"/></g><g id="path72"><path class="cls-10" d="M188.7129,264.078l16.25-4.5835,30.8325-1.6665,4.58376-14.16613L232.0454,219.078l-9.5825-1.25-13.33376,4.1665-12.79249,6.246-6.79125-1.246-5.29249,2.0795"/></g><g id="path74"><path class="cls-7" d="M188.41914,255.74052s10.8325-4.999,12.5-4.5825l-4.5825-22.9175,5.41624-2.0825s3.75,21.666,3.75,24.166c0,0,23.3325,1.25,25.41626,1.25,0,0,5-9.5835,3.75-19.5835l4.58376,13.3335.41624,7.5-6.66626,10-7.5,1.6665-12.5-.4165-4.16624-5.416-14.58376,2.0825-4.58376,1.6675"/></g><g id="path76"><path class="cls-10" d="M172.0454,226.1619,162.87915,202.828l-9.58375-13.75s2.0825-5.83375,5-5.83375h9.58375l9.16625,3.33375-.8325,15.4165-4.1675,24.16738"/></g><g id="path78"><path class="cls-7" d="M173.83665,218.24053s-11.6675-22.499-11.6675-25.8325c0,0,2.0825-5,5-3.75s9.1675,4.5825,9.1675,4.5825v-7.91625l-14.1675-2.9175-9.5825,1.25,16.25,38.33375,3.3325.4175"/></g><g id="path80"><path class="cls-10" d="M122.8794,163.24553l-11.543-1.255-10.834-3.33375v3.75l5.2935,5.8375,16.6665,7.5"/></g><g id="path82"><path class="cls-7" d="M104.2539,164.49428s12.9175,5.4175,17.084,4.1675l.4145,4.995-11.66451-2.495-7.084-5,1.25-1.6675"/></g><g id="path84"><path class="cls-1" d="M188.6679,184.663a79.17085,79.17085,0,0,1-19.05-2.625c.38-2.2925-.33125-4.5425.24-6.19375,1.55875-1.1225,4.17125-1.105,6.5275-1.36875a11.35682,11.35682,0,0,0-7.25125-.81875c-.055-1.59125-.76875-2.5775-1.20125-3.8225,3.975-1.41875,13.35875-10.72,18.6375-7.64,2.515,1.465,3.58376,9.8325,3.77874,13.90125.16251,3.375-.30624,6.78-1.68125,8.5675"/></g><g id="path86"><path class="cls-1" d="M189.14893,185.67773l-.51025-.01465a80.5243,80.5243,0,0,1-19.29248-2.66211l-.86133-.24316.14648-.88379a13.22274,13.22274,0,0,0,.04834-2.90723,8.95577,8.95577,0,0,1,.2334-3.44922l.10352-.29883.25684-.18555a5.28517,5.28517,0,0,1,1.03711-.57422,8.0006,8.0006,0,0,0-.937.16895l-1.1958.29492-.043-1.23145a6.06736,6.06736,0,0,0-.67725-2.38086c-.166-.374-.33057-.749-.46924-1.14844l-.3252-.93652.93408-.333a27.605,27.605,0,0,0,4.64844-2.80762c4.72949-3.21289,10.61572-7.21289,14.82861-4.75439,3.56836,2.07861,4.21191,13.43018,4.27393,14.71729.09229,1.916.09326,6.65039-1.8877,9.22461ZM170.708,181.2998a79.40408,79.40408,0,0,0,17.44141,2.34668c.91064-1.53613,1.356-4.28027,1.20068-7.50293-.26465-5.52734-1.59521-12.10156-3.2832-13.085-3.12646-1.82422-8.65723,1.93555-12.69678,4.68066a42.60939,42.60939,0,0,1-4.14795,2.61719c.02148.04883.043.09668.06445.14551a10.03859,10.03859,0,0,1,.70459,1.98145,12.512,12.512,0,0,1,6.835,1.09473l3.07373,1.51074-3.40332.38086c-.47412.05273-.958.09473-1.44238.13672a11.82688,11.82688,0,0,0-4.33691.875,9.56735,9.56735,0,0,0-.041,2.37207A19.29016,19.29016,0,0,1,170.708,181.2998Z"/></g><g id="path88"><path class="cls-1" d="M154.85915,173.10553c-.01875.535-.04125,1.07375-.0625,1.61375-2.2075,1.45-5.77125,1.4325-8.19375,2.65125a21.2905,21.2905,0,0,1,8.815,2.22875q-.08062,2.02126-.1575,4.04125c-4.04625,2.77-7.7425,6.895-12.5065,9.49263-2.2525,1.2285-10.15775,4.38963-12.55425,3.831-1.35588-.31487-1.478-1.9975-2.02-3.5835-1.15475-3.39638-3.8135-8.80262-4.04537-13.91513-.29537-6.4575-.94725-17.28,6.01175-15.95a62.16766,62.16766,0,0,1,16.49062,6.0325c2.65625,1.4525,4.1925,3.2475,8.2225,3.5575"/></g><g id="path90"><path class="cls-1" d="M130.83887,198.02344a3.85024,3.85024,0,0,1-.86621-.08594c-1.63818-.37988-2.06738-1.9082-2.4458-3.25781-.08984-.32031-.18213-.64941-.29346-.97559-.27051-.79492-.624-1.7002-1.00928-2.68652-1.29395-3.31641-2.9043-7.44238-3.08887-11.50684l-.01953-.41992c-.24756-5.35449-.58643-12.68652,2.69482-15.53027a5.11437,5.11437,0,0,1,4.52295-1.02734,63.20873,63.20873,0,0,1,16.78271,6.13672c.71436.3916,1.34131.79883,1.94727,1.19336a11.11151,11.11151,0,0,0,5.87256,2.24512l.957.07324-.11719,3.0918-.43018.28223a12.30133,12.30133,0,0,1-4.01367,1.47656,21.828,21.828,0,0,1,4.53223,1.67285l.57861.28809-.20312,5.18848-.41455.28418a59.29778,59.29778,0,0,0-4.74707,3.77051,47.25492,47.25492,0,0,1-7.8457,5.77441C141.542,194.93262,134.30469,198.02344,130.83887,198.02344Zm-1.80566-33.62012a2.80247,2.80247,0,0,0-1.9126.66895c-2.54883,2.209-2.22266,9.25977-2.00684,13.92578l.01953.42188c.16943,3.73438,1.71338,7.69141,2.9541,10.87012.397,1.0166.76074,1.9502,1.03906,2.76855.123.36035.22607.72559.32568,1.08105.33154,1.18066.53564,1.749.97363,1.84961,1.84473.43164,9.17188-2.27441,11.84912-3.73437a45.72851,45.72851,0,0,0,7.5083-5.543c1.5249-1.2959,2.97266-2.52539,4.49707-3.60742l.11279-2.8877a20.23045,20.23045,0,0,0-7.834-1.84766l-3.8335-.168,3.42822-1.72461a17.43052,17.43052,0,0,1,4.0332-1.2373,15.36384,15.36384,0,0,0,3.63232-1.10547l.00488-.13672a13.39572,13.39572,0,0,1-5.85107-2.457c-.57471-.374-1.16943-.76074-1.81641-1.11523A61.06555,61.06555,0,0,0,129.9585,164.498,4.96777,4.96777,0,0,0,129.0332,164.40332Z"/></g><g id="path92"><path class="cls-1" d="M158.8779,180.81053c-.6175-3.5175-1.33125-4.52125-1.055-7.59,9.38125-6.255,11.1425,10.74375,1.055,7.59"/></g><g id="path94"><path class="cls-1" d="M161.24951,182.21191a8.94365,8.94365,0,0,1-2.66992-.44727l-.58105-.18164-.10547-.59961c-.19238-1.09375-.395-1.94336-.57373-2.69141a13.87751,13.87751,0,0,1-.49268-5.16113l.043-.47656.39844-.26562c4.21094-2.80762,6.752-1.14258,7.64893-.2959a6.43,6.43,0,0,1,.95459,7.57324A5.14431,5.14431,0,0,1,161.24951,182.21191Zm-1.50146-2.19727c2.043.48633,3.59229.0166,4.39746-1.35937a4.45752,4.45752,0,0,0-.60059-5.10742c-1.10352-1.04-2.78271-.94922-4.76221.24707a12.17668,12.17668,0,0,0,.48193,4.03223C159.415,178.457,159.582,179.15625,159.748,180.01465Z"/></g><g id="path96"><path class="cls-2" d="M172.46165,183.66178s-2.9175-4.1675-.83375-5.4175,4.1675.00125,5.4175-2.0825,0-3.33375.41625-5.83375,2.50125-2.9175,4.58375-3.33375,7.9175-1.25,8.75.83375l-2.5-7.5-5-1.66625L167.46165,167.828l-.83375,4.58375V181.578"/></g><g id="path98"><path class="cls-2" d="M128.7119,197.4119q-.75075-9.75394-1.61963-19.49263c-.88187-9.7,2.33-8.0075,10.73825-8.0075,1.28425,0,7.90737,1.53125,8.38113,2.5,2.2725,4.64125-3.8,3.61,2.6175,7.11,5.4175,2.95375,14.9875-1.79375,12.79875-8.36-1.225-1.46-6.3825-.455-8.23125-1.41375q-4.88251-2.53125-9.76538-5.0625c-4.1415-2.14875-13.71338-5.28125-18.12887-2.27875-11.188,7.60875.70613,26.62,4.69725,34.55738"/></g><g id="path100"><path class="cls-3" d="M139.67628,49.78553c-11.3565-2.645-16.9995,4.7525-20.44188,12.425-3.07375-.745-1.85062-4.925-1.07425-7.055,2.03275-5.59,10.22463-13.03125,16.918-12.0225,2.88037.43375,6.77825,3.06749,4.59812,6.65251"/></g><g id="path102"><path class="cls-3" d="M195.00915,62.718c.17876.0075.36.01375.53875.02125,2.56624,5.33125,4.7875,10.97876,8.025,15.685-2.16875,5.05125-16.4225,9.52126-16.20251.45124,3.0825-1.3475,8.40376-.275,11.13625-1.99625-1.58-4.33624-3.86-8.0275-3.49751-14.16124"/></g><g id="path104"><path class="cls-3" d="M145.4904,62.85678c2.435,4.46375,3.2275,9.15375,6.68875,12.5275,1.55875,1.51875,4.59,3.37,3.0875,7.59375-.35125.99625-2.9175,3.21751-4.39875,3.65376-5.41125,1.5975-18.02025.33-13.75025-6.41624,4.47513.20876,10.49026,2.90625,13.83525-.3425-2.56875-4.10625-7.14825-12.23-5.4625-17.01626"/></g><g id="path106"><path class="cls-3" d="M192.9779,108.22427c-8.14751,5.23375-17.2325,10.925-30.5825,9.605a9.05361,9.05361,0,0,1-1.16875-11.64375c1.4425,2.48.53625,7.04124,4.55625,7.72751,7.575,1.29625,16.39125-4.63375,21.84-6.70626,3.37875-5.69626-.29125-7.79125-3.335-11.4575-6.23125-7.51125-14.59-16.82125-14.28625-28.06625,2.51875-1.82625,2.73625,2.78749,3.0975,3.62749,3.25375,7.615,11.44251,17.35374,17.41875,23.87125,1.4675,1.605,3.88374,3.145,4.15251,4.20626.775,3.08624-2.01626,6.78375-1.6925,8.83625"/></g><g id="path108"><path class="cls-3" d="M85.5674,102.71428c-2.55375-1.4575-3.16163-7.8775-6.15975-8.06-4.28463-.26-3.50338,8.32874-3.48625,13.35125-2.94925-2.6775-3.46787-10.92125-1.30125-15.155-2.46925-1.2125-3.57188,1.33751-4.9415,2.23625C71.4389,82.2993,88.38477,89.15555,85.5674,102.7143"/></g><g id="path110"><path class="cls-3" d="M198.16539,113.54928c-3.7925,7.21874-9.15751,15.16874-20.28625,15.4-.22625-2.33126-.4-5.87875.0125-7.2825,8.50751-.81751,13.76-5.1475,20.27375-8.1175"/></g><g id="path112"><path class="cls-3" d="M144.84865,118.22928c7.098,3.73251,20.143,4.13376,29.7905,3.85124a33.78039,33.78039,0,0,1,.525,7.30249c-12.40125.61874-27.06375-2.45-30.3155-11.15376"/></g><g id="path114"><path class="cls-3" d="M143.49953,125.18928c4.90837,12.32374,21.77837,10.905,36.00463,10.565a7.6091,7.6091,0,0,1-3.67125,4.17376c-4.55875,1.855-17.1325,3.2625-23.46125-.09874-4.01375-2.13375-6.5925-6.955-8.79163-9.78125-1.062-1.365-6.35013-4.85125-.0805-4.85874"/></g><g id="path116"><path class="cls-11" d="M192.3854,193.16777c-5.76,9.86525-11.27125,19.99763-18.105,28.69925,2.865-8.42387,4.09125-22.523,4.52375-33.2715,5.99376-2.805,11.12624.63125,13.58125,4.57225"/></g><g id="path118"><path class="cls-3" d="M223.38041,228.6244c-6.44875,1.291-10.98,7.5585-17.27125,7.15625,3.45751-4.87412,9.51626-6.92875,17.27125-7.15625"/></g><g id="path120"><path class="cls-3" d="M226.22541,238.71665c-5.25625.55512-11.43,1.40625-16.76125.96775,2.52375-3.855,12.24751-2.52487,16.76125-.96775"/></g><g id="path122"><path class="cls-3" d="M228.04666,247.41777c-5.9075.128-13.25.01025-18.865-.46087,3.32125-3.56738,15.03376-1.32375,18.865.46087"/></g><g id="path124"><path class="cls-7" d="M181.2704,271.22928c.84749,7.419,3.78876,14.93613,3.42,23.06113-3.26626,1.1015-5.1425,2.06487-9.51875,2.059-.30875-6.90525-1.2325-17.46138-.95625-24.04387,2.1525.1425,5.32625-1.53762,7.055-1.07625"/></g><g id="path126"><path class="cls-4" d="M171.74665,161.88928c-2.96625,1.93625-5.4925,4.35375-8.34125,6.42125-6.3175.3125-9.765-.4375-14.40625-4.065.07625-.29125.5425-.16125.56-.51875,6.7625,3.01375,15.35875-1.2275,22.1875-1.8375"/></g><g id="path128"><path class="cls-11" d="M136.246,207.98665c1.858-8.05125,9.13825-12.22113,15.74938-16.65487,6.82375,8.66025,10.97375,19.7975,15.54375,30.545-10.7975-3.25487-21.83-8.53613-31.29313-13.89012"/></g><g id="path130"><path class="cls-3" d="M174.2154,272.30553c-.27625,6.5825.6475,17.13862.95625,24.04387,4.37625.00587,6.25251-.9575,9.51875-2.059.36875-8.125-2.5725-15.64213-3.42-23.06113C179.54165,270.7679,176.36791,272.448,174.2154,272.30553Zm-68.14262-37.436c2.88575,26.52875,7.06538,48.8295,14.73138,72.32123,17.01412,5.166,37.525,5.61621,52.56375.95459-2.76125-13.25883-1.555-29.40082-3.16875-43.54982-1.21625-10.63475-.59625-21.335-2.26375-32.185C149.7129,228.61953,123.956,231.52428,106.07277,234.86953Zm66.17137-2.2925c-.15375,11.3935.51,22.63225,1.38,34.04,4.375-.65675,7.34376-1.09525,11.40876-1.98637-1.32-10.98238-1.15749-23.34025-3.84624-33.05512C178.07915,231.60529,175.3429,231.53941,172.24414,232.577Zm22.19376-1.8365c-2.07624-.476-4.49375-.0185-6.47751.02.9325,9.28762,3.195,19.53625,3.99124,29.28525,3.12124.09713,4.78874-1.375,7.35624-1.87013.1375-8.55762-.74751-20.34762-4.87-27.43512Zm33.605,30.70363c6.50625-1.58,10.5975-9.54875,8.7775-17.73238-1.22126-5.5-3.39624-15.8565-5.72374-19.375-1.72-2.6025-6.38374-6.00975-10.1075-3.625-6.05749,3.87888-16.72874,5.00487-21.14626,9.70013,2.215,7.375,2.90251,17.50487,3.81624,26.84962,7.5675.47175,16.87876-2.0825,23.17249.628-4.39375,1.42325-10.095,1.4345-13.89126,3.50875,3.10249,1.4985,10.36625,1.19575,15.1025.04588Zm-60.50375-39.56738c-4.57-10.7475-8.72-21.88475-15.54375-30.545-6.61113,4.43375-13.89138,8.60362-15.74938,16.65487C145.70915,213.34065,156.74165,218.6219,167.53915,221.87677Zm11.265-33.28125c-.4325,10.7485-1.65875,24.84762-4.52375,33.2715,6.83375-8.70162,12.345-18.834,18.105-28.69925C189.93039,189.22677,184.79789,185.79052,178.80415,188.59552Zm-12.77-4.5375c-2.58875-.27875-4.78625,2.97625-8.1525,1.56875-.77125.8525-1.4725,1.77625-2.25875,2.60875,7.435,8.96012,10.81375,21.6725,16.55625,32.20225,3.08125-10.11475,2.72625-21.19625,3.405-32.236C171.35041,188.47053,169.00166,184.373,166.03416,184.058Zm-8.21125-10.8375c-.27625,3.06875.4375,4.0725,1.055,7.59C168.96541,183.96428,167.20416,166.96553,157.82291,173.22053Zm-11.18625-3.6725a62.1679,62.1679,0,0,0-16.49062-6.0325c-6.959-1.33125-6.30713,9.4925-6.01175,15.95.23188,5.1125,2.89063,10.51875,4.04537,13.91513.542,1.586.66413,3.26862,2.02,3.5835,2.3965.55862,10.30175-2.6025,12.55425-3.831,4.764-2.59763,8.46025-6.72262,12.5065-9.49263q.07875-2.02126.1575-4.04125a21.29036,21.29036,0,0,0-8.815-2.22875c2.4225-1.21875,5.98625-1.20125,8.19375-2.65125.02125-.54.04375-1.07875.0625-1.61375C150.82916,172.79553,149.2929,171.00053,146.63666,169.548Zm-41.517-7.54125c-3.6075,3.6625,10.11812,8.655,14.48825,8.92375-.02438-2.3175,1.32075-4.5025,1.04975-6.165C115.46728,163.85428,108.646,164.45553,105.11966,162.00678Zm44.43951,1.72c-.0175.3575-.48375.2275-.56.51875,4.64125,3.6275,8.08875,4.3775,14.40625,4.065,2.84875-2.0675,5.375-4.485,8.34125-6.42125C164.91792,162.49928,156.32167,166.74052,149.55917,163.72678Zm40.79,12.36876c-.195-4.06875-1.26375-12.43625-3.77874-13.90125-5.27876-3.08125-14.66249,6.22125-18.6375,7.64.4325,1.245,1.14625,2.23125,1.20125,3.8225a11.35683,11.35683,0,0,1,7.25125.81875c-2.35625.26375-4.96875.24625-6.5275,1.36875-.57125,1.65125.14,3.90125-.24,6.19375a79.171,79.171,0,0,0,19.05,2.625C190.04293,182.87553,190.51168,179.47053,190.34917,176.09553ZM99.04642,165.54929c-1.13287-.8075-8.79638-10.77875-9.84625-10.365C75.333,160.653,62.36665,170.10927,50.77977,179.053c11.04738,23.70512,15.50687,52.74762,16.29488,80.73975,12.65525,5.919,23.771,14.45175,40.94388,15.34275-1.98725-14.06-3.80125-26.604-4.92925-39.84125-4.31488-1.81888-10.50538.0825-14.54338-.564-.03425-4.86612,6.167-2.13087,6.6835-5.40325.38925-2.47513-3.412-2.66262-2.17425-6.56013,3.15675,1.1475,4.8145,3.68213,8.18113,4.63387,3.07625-6.73-.043-18.63775.40037-24.26275.084-1.05613.52737-5.85113,2.89312-5.00975,2.09375.74463-.11963,12.75237.10987,18.07612.209,4.90487-.59237,9.65088,1.394,12.73a474.18982,474.18982,0,0,1,51.41174-4.21138c-3.95-1.69488-8.6425-3.29887-13.78725-6.19875-2.789-1.57225-11.5805-4.84375-12.38525-7.49275-1.28412-4.22112,3.36912-6.46962,4.165-10.08838-8.37638,4.56838-10.01062-4.37887-11.99213-10.71762a83.30719,83.30719,0,0,1-3.25788-13.34126c-7.21575-3.44-14.93062-6.92375-21.1415-11.335Zm83.974-9.15874c11.55375-5.60249,13.63625,20.93875,9.10749,29.48875.7,2.55,3.10751,3.52625,4.09,5.81875-6.44751,11.54987-13.60874,22.33112-20.1875,33.74513,4.89375-3.04638,11.88375-.54487,17.64251-2.82513,2.105-.8325,3.62875-5.65138,5.22249-9.50638,4.38375-10.606,8.98624-23.97737,11.03374-34.09863.46249-2.30625,1.72251-7.33125,1.44-9.38375-.50375-3.675-5.49-6.4-8.02626-8.6725-4.67251-4.1975-7.615-7.89125-12.48875-11.81625-1.97624,2.9175-6.2175,4.87749-7.83375,7.25ZM72.62306,53.93054c-5.50538,6.05749-4.353,17.40749-3.6865,25.4825,9.95112-6.26,23.15913.495,23.03463,11.1425,4.751-.12625,1.77487-5.93374.9155-9.675-2.8085-12.22,4.7315-25.49625.34187-36.67126a30.19809,30.19809,0,0,0-20.6055,9.72124Zm39.39213-35.15749c-12.46337,3.53251-28.43662,12.58875-33.55813,23.785,3.96575-.57625,6.71875-2.57626,10.63087-2.82375,1.4785-.09624,3.4155.62,5.11475.19751,3.38625-.84,6.24413-8.4325,8.79875-11.2575,2.49025-2.75875,5.48338-3.93749,7.53175-6.4525,1.316-.635,3.26175-.59126,3.3365-2.5675C113.29931,19.04429,112.69868,18.5793,112.01518,18.77305Zm64.879,3.32251c-12.93625-7.29876-34.83263-12.78875-48.59337-5.92875-11.1035,5.53625-26.11238,14.69625-31.2295,26.30375,4.78025,11.20125-1.416,21.465-1.8115,32.83751-.21,6.05125,2.84913,11.33375,3.0835,17.92126-1.63575,2.69875-6.63338,3.03125-10.09287,2.84624-1.1645-5.8275-3.20312-12.37751-9.204-13.035-8.49125-.92875-14.69975,6.09875-15.0855,13.4425-.4565,8.63625,6.63325,22.95,16.68212,21.95625,3.88187-.38376,4.8355-4.275,9.065-4.235,2.29238,4.57375-3.53612,6.01-4.13575,9.28125a26.27684,26.27684,0,0,0,.85537,5.69626c1.82525,7.54126,5.89413,17.30125,9.899,23.04251,5.083,7.28251,15.06938,8.38,25.813,9.09375,1.91888-4.13375,8.98775-3.79375,13.59375-2.7125-5.52-2.18625-10.65187-7.48626-14.90487-12.1775-4.88525-5.3825-9.83387-11.15625-10.08388-18.19124,9.23187,12.8075,16.85887,23.9925,33.646,29.62626,12.70226,4.26,27.53725-1.9525,37.29725-8.80625,4.05-2.84876,6.4675-7.36876,9.34626-11.50625,10.77126-15.49376,15.7975-37.60876,14.6925-59.04375-.455-8.84-.435-17.65-3.40124-23.59751-3.1-6.21876-13.585-11.78249-19.7225-6.15749-1.1375-6.0475,5.10376-9.7875,12.435-7.61126-5.22751-6.74625-10.71375-14.8525-18.14375-19.045Zm24.10122,199.459c10.10876-5.02538,28.99626-13.52637,35.33375.0185a114.84724,114.84724,0,0,1,6.29375,18.5865c1.71125,7.271-1.855,22.55375-9.32875,24.99362-6.60126,2.15475-14.30374,2.0235-22.255.42625a12.12441,12.12441,0,0,1-2.7075-3.55125c-5.67751-.22025-10.99375.30475-15.47874,2.63863.425,4.19875-2.415,4.87262-5.0775,5.73738-1.97374,7.82613,3.94875,18.04637,2.53124,25.18262-1.01126,5.084-7.26625,5.87013-11.86375,6.82125a39.05734,39.05734,0,0,0,.515,7.57375c-1.05125,3.87354-5.76625,6.07861-10.23375,6.61865-14.69875,1.76758-37.01662,2.56153-51.15488-2.52246-3.94525-9.67719-7.05325-21.44731-10.33937-32.49756-13.789,1.47263-24.94138-5.94975-35.455-10.8125-3.64013-1.6875-8.67575-2.61713-10.03562-5.51463-1.31838-2.80525-.77888-8.18162-1.106-13.26025-.8325-12.97125-1.54537-25.4825-4.97075-38.76375-1.538-5.95987-4.21875-11.21875-6.08887-16.96137-1.7285-5.32237-4.7485-11.89987-5.53612-17.20737-1.16787-7.86625,6.23925-8.30375,10.97563-11.7125,7.32175-5.27125,13.06887-8.18624,20.9985-12.94374,2.34862-1.40875,9.43125-4.975,10.23687-6.61751,1.6015-3.25624-2.749-7.8475-3.91212-10.4a31.28144,31.28144,0,0,1-3.063-11.44751,22.08461,22.08461,0,0,1-14.74025-9.47374c-5.0385-7.3875-8.53275-21.055-4.17337-31.45124.34187-.81875,2.04688-2.42874,2.29837-3.68626.49613-2.47625-.93362-5.76876-1.0225-8.4025-.458-13.5125,2.28625-25.155,11.38288-29.23C76.71141,28.98429,89.92866,24.093,102.38128,16.78178c4.65487-2.73251,9.78613-4.47874,15.0855-6.42876,19.01025-6.99625,48.17738-5.67875,63.95488,6.25376,6.69,5.06,17.38375,15.74375,21.20874,23.47876,10.1025,20.42126,9.385,54.55,2.31874,79.39125a79.91331,79.91331,0,0,1-4.25125,12.24375c-1.34125,2.79751-5.51,8.395-5.00376,10.865.52126,2.55375,9.505,9.375,11.43126,11.23249,3.46874,3.34625,10.05875,7.7875,10.5925,12.01.57375,4.49375-1.98,10.64125-3.27375,14.9775-4.325,14.47112-8.545,27.84762-13.44875,40.749"/></g><g id="path132"><path class="cls-8" d="M133.55415,121.38177c.54837-.73,3.5635-1.83874,7.78225.19251,0,0-5,.83376-4.584,9.17l-2.0835-.4175s-2.15325-7.55875-1.11475-8.945"/></g><g id="path134"><path class="cls-12" d="M170.08665,193.033a2.29187,2.29187,0,1,1-2.2925-2.2925,2.29177,2.29177,0,0,1,2.2925,2.2925"/></g><g id="path136"><path class="cls-12" d="M172.3779,203.658a2.29187,2.29187,0,1,1-2.2925-2.2925,2.29177,2.29177,0,0,1,2.2925,2.2925"/></g></g><g id="text5675"><g class="cls-13"><path d="M412.55273,110.44678q-3.51636.44092-5.97656.88037-2.46167.44092-5.53711,1.23047-3.605.96826-4.61426,3.43018a14.71875,14.71875,0,0,0-1.01074,5.62939v68.78027a39.51483,39.51483,0,0,1-3.82324,17.416,37.97414,37.97414,0,0,1-10.50293,13.2793,48.502,48.502,0,0,1-15.11719,7.96094,58.03573,58.03573,0,0,1-17.8418,2.68262q-16.43628,0-26.499-7.91016-10.06494-7.91016-10.06348-21.709,0-8.17383,4.61426-13.53516,4.61426-5.35986,12.7002-5.36133,7.64648,0,12.17285,4.48242a14.97119,14.97119,0,0,1,4.52637,11.07422,16.13645,16.13645,0,0,1-3.91113,10.415,60.5221,60.5221,0,0,1-8.9209,8.833V219.168a6.54718,6.54718,0,0,0,3.4375,2.98828,12.60324,12.60324,0,0,0,5.37646,1.23047q10.57544,0,16.6123-7.56445,6.03809-7.56445,6.03857-22.86914V122.49756a12.62021,12.62021,0,0,0-.97217-5.27783q-.97266-2.10937-4.68018-3.69385a33.97649,33.97649,0,0,0-6.40234-1.93506q-3.75293-.791-6.22656-1.144v-6.85547h66.62109Z"/><path d="M516.791,207.30273a53.46317,53.46317,0,0,1-7.42676,9.44824,45.08418,45.08418,0,0,1-9.8877,7.60254,54.20481,54.20481,0,0,1-11.90918,5.05371,50.69188,50.69188,0,0,1-13.84277,1.71387q-13.00854,0-22.45605-3.69141A44.02471,44.02471,0,0,1,435.668,217.498a39.73327,39.73327,0,0,1-9.18457-14.72168,54.31291,54.31291,0,0,1-3.03223-18.41309,46.21234,46.21234,0,0,1,12.65625-31.81689A44.83165,44.83165,0,0,1,451.18066,142.439a51.52323,51.52323,0,0,1,20.34668-3.86719q12.304,0,20.21484,2.98828a35.79434,35.79434,0,0,1,13.0957,8.26172,29.97655,29.97655,0,0,1,7.29492,11.82129,44.62529,44.62529,0,0,1,2.28516,14.28271v5.71289H455.00391q0,18.01758,6.94336,27.42188,6.94189,9.40576,22.06055,9.4043a25.625,25.625,0,0,0,14.85352-4.52637,42.392,42.392,0,0,0,11.25-11.46973ZM483.2168,173.9043q0-5.27344-.52734-10.81055a36.00467,36.00467,0,0,0-1.8457-9.05322,13.92981,13.92981,0,0,0-4.08691-6.24023,10.03918,10.03918,0,0,0-6.54785-2.10937q-6.769,0-10.81055,6.85547-4.0437,6.85547-4.39453,21.70947Z"/><path d="M641.24414,228.30859H588.42188v-6.416q1.66846-.17578,4.043-.43945a11.10578,11.10578,0,0,0,3.60352-.87891,5.59283,5.59283,0,0,0,2.63672-2.8125,14.455,14.455,0,0,0,.791-5.44922V171.17969q0-8.96484-3.30566-13.4917-3.30322-4.52563-9.73828-4.52637a19.9,19.9,0,0,0-6.56543,1.05469,24.51356,24.51356,0,0,0-5.94922,3.07617,20.25644,20.25644,0,0,0-4.09766,3.60352q-1.54248,1.8457-2.59961,3.25244V211.3457a13.14329,13.14329,0,0,0,.87891,5.1416,6.13233,6.13233,0,0,0,2.90039,3.12012,16.77031,16.77031,0,0,0,3.51563,1.40625,27.3979,27.3979,0,0,0,4.13086.87891v6.416h-53.4375v-6.416q2.1958-.17578,4.43848-.4834a21.47013,21.47013,0,0,0,3.82324-.835,6.459,6.459,0,0,0,3.86719-2.98828,11.40137,11.40137,0,0,0,1.05469-5.27344V161.15967a11.291,11.291,0,0,0-1.40625-5.36133,12.593,12.593,0,0,0-3.69141-4.30664,14.55551,14.55551,0,0,0-3.999-1.75781,28.22928,28.22928,0,0,0-5.31738-.9668v-6.416l41.92383-2.28516,1.31836,1.31836v12.74414h.35156q2.45947-2.1958,5.97656-5.27344a57.51262,57.51262,0,0,1,6.50391-5.00977,31.5878,31.5878,0,0,1,8.52539-3.60352,41.11162,41.11162,0,0,1,11.25-1.49414q14.32471,0,21.48926,8.12988Q628.5,155.00806,628.5,168.45508v43.06641a11.67541,11.67541,0,0,0,.9668,5.18555,6.82466,6.82466,0,0,0,3.60352,3.07617,30.35456,30.35456,0,0,0,3.47168,1.23047,25.36719,25.36719,0,0,0,4.70215.87891Z"/><path d="M762.18164,228.30859H720.75488q-7.64062-13.41211-13.96191-22.749-6.32373-9.33545-11.94336-17.31445l-5.17773,4.37988v19.16016a12.54637,12.54637,0,0,0,.92285,5.18555,5.86673,5.86673,0,0,0,3.55957,2.98828,22.57229,22.57229,0,0,0,3.69141,1.23047,26.41663,26.41663,0,0,0,4.21875.70313v6.416H647.48438v-6.416q2.21191-.17578,4.42383-.4834a24.237,24.237,0,0,0,3.89258-.835,6.31071,6.31071,0,0,0,3.84961-2.98828,11.75151,11.75151,0,0,0,1.01758-5.27344V114.314a15.90987,15.90987,0,0,0-1.27441-6.02051,9.7941,9.7941,0,0,0-3.73535-4.70215,15.76994,15.76994,0,0,0-5.00977-1.75781,43.47343,43.47343,0,0,0-6.06445-.87891v-6.416l43.7666-2.28516,1.32129,1.40625v90.69971q6.49512-5.80078,14.61426-13.44629,8.12109-7.645,13.03711-12.65527,2.90039-2.98682,3.208-4.5249a14.73992,14.73992,0,0,0,.30762-1.88965q0-1.582-2.77539-2.63672a41.54268,41.54268,0,0,0-8.35254-1.8457v-6.24023h44.64844v6.06445a92.112,92.112,0,0,0-13.38281,4.61426,79.48735,79.48735,0,0,0-10.04687,5.75684q-3.59912,2.373-6.97266,4.97412-3.37354,2.6001-7.75488,6.47949,8.59863,12.47461,15.87988,23.10254,7.28174,10.62891,15.2666,22.48828a13.31179,13.31179,0,0,0,6.75684,5.53418,33.22132,33.22132,0,0,0,8.07617,1.75781Z"/><path d="M818.69531,228.30859H763.14844v-6.416q2.28516-.17578,4.48242-.43945a15.62659,15.62659,0,0,0,3.7793-.87891,7.28209,7.28209,0,0,0,3.95508-3.03223,10.4163,10.4163,0,0,0,1.14258-5.22949V161.15967a10.26347,10.26347,0,0,0-1.40625-5.40527,11.64935,11.64935,0,0,0-3.51562-3.73535,18.703,18.703,0,0,0-4.79-2.02148,31.29292,31.29292,0,0,0-5.84473-1.23047v-6.416l43.06641-2.28516,1.31836,1.31836v69.78564a9.82913,9.82913,0,0,0,1.31836,5.22949,7.98148,7.98148,0,0,0,3.7793,3.208,29.53256,29.53256,0,0,0,3.86719,1.40625,26.50573,26.50573,0,0,0,4.39453.87891Zm-12.832-119.8833a14.864,14.864,0,0,1-5.1416,11.38184,18.22134,18.22134,0,0,1-24.43359,0,15.2173,15.2173,0,0,1,0-22.80762,18.15309,18.15309,0,0,1,24.47754,0A15.06223,15.06223,0,0,1,805.86328,108.42529Z"/><path d="M942.79688,228.30859H889.97461v-6.416q1.66846-.17578,4.043-.43945a11.10578,11.10578,0,0,0,3.60352-.87891,5.59283,5.59283,0,0,0,2.63672-2.8125,14.455,14.455,0,0,0,.791-5.44922V171.17969q0-8.96484-3.30566-13.4917-3.30322-4.52563-9.73828-4.52637a19.9,19.9,0,0,0-6.56543,1.05469,24.53124,24.53124,0,0,0-5.94922,3.07617,20.25644,20.25644,0,0,0-4.09766,3.60352q-1.54248,1.8457-2.59961,3.25244V211.3457a13.16117,13.16117,0,0,0,.87891,5.1416,6.13232,6.13232,0,0,0,2.90039,3.12012,16.77031,16.77031,0,0,0,3.51563,1.40625,27.3979,27.3979,0,0,0,4.13086.87891v6.416h-53.4375v-6.416q2.1958-.17578,4.43848-.4834a21.47013,21.47013,0,0,0,3.82324-.835,6.45606,6.45606,0,0,0,3.86719-2.98828,11.40137,11.40137,0,0,0,1.05469-5.27344V161.15967a11.291,11.291,0,0,0-1.40625-5.36133,12.572,12.572,0,0,0-3.69141-4.30664,14.54228,14.54228,0,0,0-3.999-1.75781,28.22928,28.22928,0,0,0-5.31738-.9668v-6.416l41.92383-2.28516,1.31836,1.31836v12.74414h.35156q2.45947-2.1958,5.97656-5.27344a57.6,57.6,0,0,1,6.50391-5.00977,31.5878,31.5878,0,0,1,8.52539-3.60352,41.11162,41.11162,0,0,1,11.25-1.49414q14.32471,0,21.48926,8.12988,7.16309,8.13062,7.16309,21.57764v43.06641a11.67541,11.67541,0,0,0,.9668,5.18555,6.82466,6.82466,0,0,0,3.60352,3.07617,30.35455,30.35455,0,0,0,3.47168,1.23047,25.36719,25.36719,0,0,0,4.70215.87891Z"/><path d="M991.66406,231.29688a56.2447,56.2447,0,0,1-16.65527-2.50488,54.49045,54.49045,0,0,1-12.6123-5.31738l-2.63672,5.97656H952.9043l-1.14258-32.7832h6.416a43.5052,43.5052,0,0,0,4.39453,8.9209,49.181,49.181,0,0,0,7.03125,8.9209,39.77769,39.77769,0,0,0,9.44824,6.67969,24.60645,24.60645,0,0,0,11.38184,2.72461q7.99658,0,11.90918-3.12012,3.90967-3.11865,3.91113-9.624a9.24147,9.24147,0,0,0-1.75781-5.80078,15.01527,15.01527,0,0,0-4.834-3.95508,44.71931,44.71931,0,0,0-7.51465-2.98828q-4.08691-1.23047-10.06348-2.98828a96.7,96.7,0,0,1-10.23926-3.55957,34.995,34.995,0,0,1-8.833-5.66895,24.816,24.816,0,0,1-8.70117-19.77539q0-12.39331,10.415-20.03955,10.415-7.64648,27.29-7.64648a62.629,62.629,0,0,1,14.72168,1.626,74.36134,74.36134,0,0,1,11.29395,3.55957l1.8457-5.18555h6.67969l1.40625,29.97119h-6.15234a36.34015,36.34015,0,0,0-10.54687-15.77686q-7.4707-6.635-16.084-6.63574-6.769,0-10.63477,2.8125a9.126,9.126,0,0,0-3.86719,7.82227q0,6.68042,5.65918,9.66846a75.66927,75.66927,0,0,0,15.83691,5.625q15.70459,4.043,22.98926,11.03027,7.28174,6.9873,7.28223,17.79785,0,14.41553-11.29395,22.32422Q1009.85742,231.29687,991.66406,231.29688Z"/></g></g></g></svg>