<svg xmlns="http://www.w3.org/2000/svg" role="img" viewBox="-10.83 -10.83 563.16 57.16"><title>JPMorgan Chase (member) logo</title><path fill="#7b7979" d="M9.939.758h15.593v1.13h-.841c-1.654 0-2.734.135-3.244.407-.513.28-.853.785-1.013 1.527-.168.749-.253 2.52-.253 5.316v11.497c0 2.857-.108 5.015-.33 6.508-.229 1.49-.845 2.943-1.872 4.36-1.023 1.406-2.39 2.503-4.096 3.266-1.71.76-3.693 1.138-5.957 1.138-2.54 0-4.5-.474-5.869-1.407C.685 33.56 0 32.437 0 31.146c0-.781.245-1.438.735-1.975a2.369 2.369 0 0 1 1.813-.791c.733 0 1.347.232 1.836.709a2.35 2.35 0 0 1 .741 1.76c0 .414-.103.838-.302 1.29-.184.393-.274.686-.274.883 0 .528.31.94.936 1.238.63.29 1.404.445 2.33.445 1.881 0 3.463-.6 4.753-1.798 1.285-1.198 2.06-2.612 2.324-4.245.263-1.626.398-4.315.398-8.065V9.124c0-2.676-.082-4.4-.237-5.178-.16-.777-.492-1.315-.997-1.612-.505-.297-1.613-.446-3.319-.446h-.798V.758M39.321 17.32h2.413c1.941 0 3.51-.188 4.706-.584 1.19-.381 2.19-1.204 2.982-2.45.797-1.247 1.195-2.78 1.195-4.603 0-2.79-.685-4.832-2.053-6.14-1.366-1.304-3.584-1.958-6.655-1.958-1.128 0-1.992.035-2.588.106zm0 1.212v7.104c0 2.665.064 4.403.192 5.224.123.82.459 1.435 1.008 1.83.547.404 1.58.602 3.098.602h1.123v1.13H29.23v-1.13h.9c1.447 0 2.45-.187 3.007-.542.557-.37.914-.94 1.064-1.713.149-.763.223-2.552.223-5.373V9.141c0-2.686-.074-4.41-.223-5.191-.15-.781-.483-1.315-1.002-1.616-.516-.297-1.633-.446-3.342-.446h-.627V.758l4.234-.173c3.388-.138 6.03-.202 7.925-.202 3.488 0 6.175.273 8.057.817 1.886.548 3.43 1.513 4.638 2.909 1.205 1.385 1.807 3.141 1.807 5.259 0 1.84-.415 3.46-1.235 4.867-.82 1.406-1.995 2.476-3.53 3.202-1.536.728-4.235 1.095-8.098 1.095H39.32m44.675 10.08L96.24.758h10.39v1.13h-1.244c-1.66 0-2.749.135-3.261.407-.517.28-.856.785-1.029 1.527-.177.749-.262 2.524-.262 5.32v16.522c0 2.652.064 4.383.198 5.206.131.817.467 1.425 1.004 1.82.54.404 1.576.602 3.103.602h1.492v1.13H90.44v-1.13h1.196c1.435 0 2.43-.187 2.991-.542.552-.37.912-.94 1.07-1.706.16-.77.238-2.56.238-5.38V4.236L82.674 34.422h-1.21L68.075 4.236v19.725c0 2.7.08 4.534.247 5.513.166.975.676 1.831 1.539 2.567.86.734 2.076 1.152 3.633 1.251v1.13H61.367v-1.13c1.448-.078 2.628-.474 3.534-1.177.912-.703 1.466-1.573 1.66-2.591.205-1.032.306-2.933.306-5.719V9.141c0-2.678-.08-4.41-.237-5.191-.16-.781-.494-1.315-1.002-1.616-.506-.297-1.618-.446-3.337-.446h-.924V.758H71.64l12.355 27.854m28.958-7.224c0 4.163.823 7.288 2.48 9.38 1.652 2.081 4.129 3.125 7.434 3.125 2.901 0 5.195-1.044 6.874-3.124 1.682-2.093 2.53-5.203 2.53-9.343 0-4.025-.83-7.115-2.488-9.256-1.66-2.14-4.064-3.216-7.217-3.216-3.107 0-5.481 1.046-7.132 3.145-1.658 2.089-2.481 5.182-2.481 9.29zm-4.407-.135c0-3.993 1.332-7.203 4.003-9.623 2.67-2.415 5.995-3.623 9.985-3.623 4.026 0 7.39 1.194 10.094 3.587 2.697 2.393 4.047 5.66 4.047 9.794 0 4.008-1.294 7.251-3.873 9.733-2.591 2.489-5.992 3.726-10.208 3.726-4.107 0-7.475-1.237-10.1-3.726-2.634-2.482-3.948-5.774-3.948-9.868m401.814.135c0 4.163.827 7.288 2.48 9.38 1.65 2.081 4.132 3.125 7.433 3.125 2.902 0 5.196-1.044 6.878-3.124 1.682-2.093 2.528-5.203 2.528-9.343 0-4.025-.828-7.115-2.496-9.256-1.648-2.14-4.062-3.216-7.211-3.216-3.107 0-5.481 1.046-7.132 3.145-1.653 2.089-2.48 5.182-2.48 9.29zm-4.408-.135c0-3.993 1.336-7.203 4.001-9.623 2.672-2.415 6.008-3.623 9.995-3.623 4.019 0 7.39 1.194 10.087 3.587 2.704 2.393 4.048 5.66 4.048 9.794 0 4.008-1.295 7.251-3.886 9.733-2.58 2.489-5.977 3.726-10.193 3.726-4.107 0-7.472-1.237-10.1-3.726-2.637-2.482-3.952-5.774-3.952-9.868m-358.044-.233c.94-.027 1.908-.064 2.919-.113 1.004-.05 1.873-.19 2.616-.424.741-.233 1.342-.566 1.798-1 .459-.442.82-1.025 1.078-1.733.265-.717.4-1.593.4-2.64 0-1.823-.45-3.283-1.347-4.375-.895-1.095-2.852-1.643-5.864-1.643-.463 0-1.004.025-1.6.074zm19.45 13.353h-6.929c-1.222-.873-3.102-3.117-5.629-6.76a54.419 54.419 0 0 0-2.528-3.342c-.876-1.066-1.477-1.72-1.801-1.954-.336-.236-.842-.349-1.539-.349h-1.024v5.696c0 2.027.05 3.355.141 3.973.095.626.354 1.096.767 1.4.417.305 1.212.453 2.381.453h1.252v.883h-12.405v-.883h.841c1.11 0 1.876-.138 2.308-.418.427-.283.699-.717.808-1.314.122-.59.182-1.966.182-4.128V14.934c0-2.064-.06-3.393-.182-3.993-.112-.598-.373-1.008-.773-1.237-.399-.227-1.27-.34-2.601-.34h-.45v-.887l3.698-.177c2.466-.103 4.421-.159 5.864-.159 2.466 0 4.47.227 6.012.682 1.537.466 2.788 1.216 3.746 2.262.947 1.043 1.42 2.295 1.42 3.746 0 1.696-.618 3.142-1.852 4.344-1.237 1.195-3.05 1.944-5.45 2.237 1.085.51 2.821 2.39 5.217 5.627 1.955 2.623 3.477 4.334 4.588 5.157 1.113.81 2.424 1.245 3.937 1.294v.883m17.923-11.055h11.19v.88c-1.234 0-2.075.134-2.51.382-.445.247-.739.66-.876 1.243-.139.584-.21 1.99-.21 4.224v2.763a5.13 5.13 0 0 0-.82-.077c-.978 0-2.26.304-3.847.898-2.164.81-4.168 1.216-6.01 1.216-3.7 0-6.778-1.223-9.23-3.662-2.454-2.435-3.684-5.52-3.684-9.264 0-3.7 1.181-6.952 3.524-9.733 2.35-2.79 5.534-4.18 9.564-4.18 3.466 0 6.333 1.265 8.606 3.805.435-.901.696-1.88.81-2.923h.886v8.67h-.886c-.364-2.647-1.375-4.743-3.023-6.291-1.647-1.537-3.647-2.315-6.008-2.315-2.428 0-4.545.905-6.35 2.71-1.807 1.8-2.709 5.006-2.709 9.611 0 4.587.867 7.832 2.599 9.751 1.739 1.912 3.887 2.867 6.46 2.867 1.323 0 2.52-.269 3.599-.813 1.077-.538 1.816-1.195 2.201-1.973.396-.781.593-1.763.593-2.95 0-1.386-.098-2.315-.282-2.775-.183-.468-.47-.777-.855-.94-.381-.156-1.09-.245-2.113-.245h-.619v-.879m29.576.544l-4.515-10.95-4.516 10.95zm.392.954h-9.819l-.678 1.64c-.994 2.386-1.488 3.938-1.488 4.662 0 .78.261 1.368.792 1.77.529.404 1.212.602 2.053.602v.883h-7.793v-.883c1.148-.185 2.004-.583 2.573-1.216.561-.633 1.24-1.958 2.03-3.987.086-.192.398-.93.942-2.22l7.556-17.926h.756l8.621 20.542 1.178 2.706c.272.609.632 1.089 1.081 1.436.452.36 1.13.576 2.032.665v.883h-10.165v-.883c1.244 0 2.085-.096 2.524-.276.437-.188.657-.555.657-1.099 0-.28-.295-1.113-.88-2.503l-1.972-4.796m36.362 10.161l-18.365-24.288v17.965c0 1.492.074 2.474.215 2.948.148.464.559.901 1.244 1.294.685.396 1.713.594 3.085.594v.883h-9.626v-.883c1.222-.089 2.158-.311 2.805-.68.643-.36 1.021-.752 1.145-1.173.124-.42.18-1.413.18-2.975V14.934c0-1.983-.092-3.315-.278-3.993-.184-.665-.478-1.103-.88-1.295-.407-.19-1.308-.282-2.7-.282v-.887h7.722l15.32 20.261V13.252c0-1.142-.116-1.944-.352-2.404-.234-.46-.717-.816-1.438-1.088-.728-.268-1.599-.396-2.616-.396v-.887h9.356v.887c-1.086.084-1.938.297-2.556.626-.622.328-1.024.724-1.187 1.19-.173.468-.26 1.255-.26 2.365v21.432h-.815m48.932-13.094h1.128V33.71h-1.128c-.296-1.347-.837-2.532-1.618-3.563-2.944 3.336-6.708 4.99-11.284 4.99-4.839 0-8.794-1.534-11.863-4.612-3.068-3.072-4.604-7.136-4.604-12.197 0-3.322.705-6.454 2.12-9.388 1.417-2.936 3.397-5.113 5.935-6.533C281.76.984 284.537.27 287.564.27c2.499 0 4.77.516 6.803 1.548 2.033 1.025 3.552 2.163 4.556 3.414.724-1.403 1.169-2.855 1.312-4.354h1.133l.301 12.724h-1.128c-.741-4.513-2.25-7.673-4.537-9.45-2.276-1.783-4.853-2.673-7.723-2.673-3.502 0-6.29 1.428-8.362 4.297-2.067 2.86-3.092 6.956-3.092 12.285 0 5.048 1.113 8.919 3.374 11.62 2.267 2.681 5.076 4.028 8.427 4.028 1.795 0 3.636-.435 5.513-1.315 1.878-.877 3.366-2.361 4.456-4.45 1.099-2.09 1.747-4.106 1.944-6.06m28.403-.594h-13.483v6.259c0 2.043.056 3.381.151 4.011.099.629.37 1.1.779 1.407.42.307 1.218.455 2.392.455h.676v.88H307.73v-.88h.676c1.113 0 1.88-.138 2.31-.42.435-.276.714-.714.831-1.301.117-.594.18-1.971.18-4.138V14.87c0-2.063-.063-3.393-.18-3.993-.117-.594-.381-1.004-.775-1.237-.384-.227-1.244-.346-2.561-.346h-.481v-.877h11.728v.877h-.482c-1.28 0-2.116.105-2.512.317-.4.212-.672.602-.804 1.17-.14.576-.2 1.937-.2 4.09v5.132h13.483V14.87c0-2.063-.053-3.393-.167-3.993-.116-.594-.366-1.004-.752-1.237-.382-.227-1.226-.346-2.53-.346h-.683v-.877h11.724v.877h-.37c-1.285 0-2.115.105-2.497.317-.396.212-.66.602-.792 1.17-.137.576-.201 1.937-.201 4.09v12.692c0 2.031.05 3.367.148 4 .09.633.347 1.096.76 1.404.428.307 1.21.455 2.37.455h.582v.88h-11.724v-.88h.89c1.09 0 1.846-.138 2.267-.42.42-.283.692-.718.808-1.308.114-.594.167-1.972.167-4.145v-6.26m26.702 2.512l-4.508-10.952-4.521 10.952zm.386.952h-9.804l-.686 1.646c-.989 2.376-1.484 3.927-1.484 4.652 0 .778.258 1.371.792 1.767.53.403 1.212.604 2.054.604v.88H339.1v-.88c1.156-.18 2.012-.583 2.582-1.212.558-.629 1.236-1.965 2.038-3.993.079-.188.386-.93.93-2.214l7.556-17.932h.761l8.619 20.541 1.177 2.711c.265.604.63 1.091 1.083 1.446.448.346 1.125.565 2.03.653v.88H355.71v-.88c1.242 0 2.09-.095 2.524-.272.435-.191.662-.558.662-1.095 0-.284-.295-1.117-.884-2.51l-1.98-4.792m13.151 9.284v-8.344h.948c1.08 5.425 3.65 8.136 7.693 8.136 1.813 0 3.23-.524 4.227-1.555 1.001-1.04 1.496-2.195 1.496-3.478 0-1.294-.435-2.386-1.311-3.262-.875-.867-2.475-1.792-4.804-2.782-2.077-.891-3.64-1.672-4.69-2.34a7.162 7.162 0 0 1-2.474-2.604 7.007 7.007 0 0 1-.88-3.419c0-1.844.636-3.378 1.925-4.607 1.284-1.23 2.906-1.845 4.879-1.845 1.103 0 2.135.175 3.11.536.967.35 1.96 1.092 2.983 2.21.59-.697.922-1.453 1-2.266h.806v6.77h-.806c-.488-1.95-1.354-3.494-2.59-4.614-1.234-1.125-2.672-1.683-4.302-1.683-1.548 0-2.686.41-3.414 1.238-.722.823-1.086 1.732-1.086 2.714 0 1.187.46 2.19 1.368 3.003.891.835 2.51 1.782 4.842 2.829 2.226.996 3.853 1.802 4.868 2.406 1.013.605 1.828 1.446 2.445 2.513.605 1.074.916 2.305.916 3.704 0 2.213-.74 4.016-2.224 5.401-1.476 1.388-3.45 2.081-5.923 2.081-2.845 0-5.22-1.091-7.118-3.266-.426.594-.735 1.435-.936 2.524h-.948m42.592-7.8h.884l-.566 8.065h-21.326v-.88h.534c1.272 0 2.099-.169 2.47-.515.374-.344.605-.782.706-1.305.1-.526.15-1.872.15-4.04V14.87c0-1.979-.05-3.276-.159-3.898-.11-.625-.361-1.06-.747-1.303-.396-.252-1.222-.375-2.48-.375v-.877h18.431l.616 6.428h-.88c-.41-1.795-.905-3.074-1.492-3.824-.587-.759-1.279-1.237-2.093-1.43-.808-.198-2.106-.297-3.902-.297h-3.56v10.843h2.726c1.256 0 2.128-.106 2.622-.319.503-.219.827-.544.987-.982.163-.438.236-1.294.236-2.56h.88v8.81h-.88c0-1.436-.116-2.398-.36-2.893-.236-.483-.583-.805-1.05-.953-.462-.142-1.24-.22-2.34-.22h-2.82v6.123c0 3.06.187 4.865.591 5.4.396.543 1.452.812 3.182.812h1.914c1.362 0 2.479-.16 3.358-.473.865-.32 1.704-1.014 2.496-2.107.792-1.084 1.42-2.598 1.872-4.538m25.542-13.742c3.458-2.014 5.179-4.191 5.179-6.535 0-1.395-.379-2.523-1.152-3.385-.77-.862-1.8-1.287-3.061-1.287-1.248 0-2.252.413-3.011 1.237-.756.82-1.132 1.848-1.132 3.074 0 1.687 1.064 3.987 3.177 6.896zm-2.586 3.136c-1.823 1.105-3.231 2.4-4.216 3.877-1 1.485-1.495 2.92-1.495 4.297 0 2.128.859 4.146 2.583 6.037 1.717 1.902 3.661 2.849 5.832 2.849 2.421 0 4.65-1.194 6.701-3.584-3.64-5.553-6.779-10.037-9.405-13.476zm11.161-2.45h11.144v1.208a8.624 8.624 0 0 0-3.67 2.015c-1.049.965-2.126 2.785-3.235 5.46-.931 2.21-1.79 3.821-2.57 4.86 1.856 2.656 3.311 4.334 4.364 5.047 1.06.715 2.184 1.068 3.38 1.068 1.628 0 2.887-.781 3.767-2.336h1.201c-.36 1.424-1.141 2.569-2.325 3.44-1.188.868-2.563 1.306-4.113 1.306-3.387 0-6.356-1.689-8.924-5.078-3.048 3.39-6.274 5.078-9.675 5.078-1.664 0-3.248-.402-4.764-1.204a9.895 9.895 0 0 1-3.712-3.383c-.956-1.445-1.43-3.128-1.43-5.026 0-2.177.593-4 1.785-5.478 1.184-1.478 3.464-3.343 6.832-5.585-2.03-2.82-3.043-5.368-3.043-7.644 0-1.802.692-3.404 2.073-4.814 1.39-1.406 3.126-2.113 5.22-2.113 1.867 0 3.55.53 5.066 1.583 1.498 1.056 2.252 2.439 2.252 4.146 0 2.664-2.492 5.245-7.466 7.747a596.208 596.208 0 0 1 8.738 12.08 19.62 19.62 0 0 0 2.34-4.283c.558-1.47.854-2.62.854-3.45 0-1.98-1.364-3.128-4.089-3.436v-1.207m52.588 8.588h1.13v11.822h-1.13a9.126 9.126 0 0 0-1.619-3.56c-2.944 3.33-6.716 4.992-11.277 4.992-4.843 0-8.797-1.534-11.87-4.61-3.075-3.078-4.609-7.145-4.609-12.204 0-3.325.711-6.457 2.128-9.387 1.411-2.933 3.398-5.11 5.931-6.535C479.692.87 482.472.157 485.501.157c2.507 0 4.776.509 6.804 1.544 2.032 1.022 3.554 2.167 4.556 3.414a12.076 12.076 0 0 0 1.323-4.357h1.123l.304 12.727h-1.131c-.741-4.517-2.25-7.665-4.539-9.447-2.278-1.789-4.852-2.68-7.718-2.68-3.51 0-6.291 1.431-8.366 4.301-2.064 2.857-3.093 6.956-3.093 12.29 0 5.05 1.128 8.921 3.379 11.614 2.256 2.682 5.065 4.029 8.426 4.029 1.795 0 3.634-.438 5.515-1.318 1.872-.87 3.368-2.35 4.452-4.439 1.103-2.092 1.75-4.114 1.944-6.065m37.775 10.454c0-.777.276-1.445.837-2a2.708 2.708 0 0 1 2.001-.83c.792 0 1.467.272 2.026.83.554.555.834 1.223.834 2 0 .798-.282 1.467-.845 2.029-.57.555-1.241.833-2.015.833a2.685 2.685 0 0 1-2.013-.862c-.55-.58-.825-1.243-.825-2"/></svg>