<svg xmlns="http://www.w3.org/2000/svg" role="img" viewBox="-3.27 -3.40 125.17 170.30"><title>k8gb logo</title><style>svg {enable-background:new 0 0 118.7 163.7}</style><path fill="#fff" d="M58.1.3l-39.5 19c-.8.4-1.4 1.1-1.5 2L7.4 63.9c-.2.9 0 1.7.6 2.4l27.3 34.2c.5.7 1.4 1.1 2.2 1.1h43.7c.9 0 1.7-.4 2.2-1.1l27.3-34.2c.5-.7.8-1.6.6-2.4l-9.7-42.7c-.2-.9-.8-1.6-1.6-2L60.6.2c-.8-.3-1.7-.3-2.5.1z"/><linearGradient id="a" x1="7.375" x2="111.341" y1="50.75" y2="50.75" gradientUnits="userSpaceOnUse"><stop offset="0" stop-color="#f52d28"/><stop offset=".25" stop-color="#dc0032"/><stop offset=".5" stop-color="#be0028"/><stop offset=".75" stop-color="#aa052d"/><stop offset="1" stop-color="#960528"/></linearGradient><path fill="url(#a)" d="M61 39.9c-.1-.1-.1-.2-.1-.3V24.3c0-.1.1-.2.1-.3.1-.1.2-.1.3-.1h.1c4.9 1.1 9.3 6.3 11.9 13.9v.4c-.1.1-.2.2-.3.2-3.8 1-7.8 1.5-11.8 1.6 0 0-.1 0-.2-.1zm-3.5 3c-4.2-.1-8.5-.7-12.6-1.8h-.1c-.1 0-.2 0-.2.1-.1.1-.2.2-.2.3-.7 3.1-1.2 6.2-1.3 9.3 0 .1 0 .2.1.3s.2.1.3.1h13.9c.3 0 .5-.2.5-.5v-7.5c0-.1-.2-.3-.4-.3zm0-19c-5 1.1-9.5 6.3-12.1 13.9-.1.1-.1.3 0 .4.1.1.2.2.3.2 3.8 1 7.8 1.5 11.7 1.6.1 0 .2 0 .3-.1s.1-.2.1-.3V24.3c0-.1-.1-.3-.3-.4.2 0 .1 0 0 0zm0 30.3h-14c-.3 0-.5.2-.5.5.1 3.1.5 6.2 1.3 9.3 0 .1.1.2.2.3.1 0 .2.1.2.1h.1c4.1-1.1 8.3-1.6 12.6-1.8.2 0 .4-.2.4-.5v-7.5c.1-.2-.1-.4-.3-.4zM42.6 68.5c0-.1-.1-.2-.2-.3h-.2-.2c-1.7.6-3.4 1.4-5 2.3-.1.1-.2.2-.2.3 0 .1 0 .3.1.4 2.8 3.4 6.4 6.1 10.4 8h.2c.1 0 .3-.1.4-.2.1-.2.1-.4 0-.6-2.4-2.9-4.2-6.3-5.3-9.9zm-2.4-17.6c.1-3.5.6-6.9 1.4-10.3 0-.2-.1-.5-.3-.5-2.1-.7-4.1-1.6-6-2.8-.1 0-.2-.1-.2-.1-.2 0-.3.1-.4.2-2.5 4-4 8.6-4.3 13.4 0 .1 0 .2.1.3s.2.2.3.2h8.9c.3 0 .5-.2.5-.4zm17.3 14.6c-4 .1-7.9.7-11.7 1.6-.2.1-.4.3-.3.5v.1c2.6 7.6 7.1 12.8 12 13.9h.1c.1 0 .2 0 .3-.1s.2-.2.2-.4V66c0-.1-.1-.2-.1-.3-.3-.2-.4-.2-.5-.2zM73 67.1c-3.8-1-7.8-1.5-11.7-1.6-.1 0-.2 0-.3.1s-.1.2-.1.3v15.2c0 .1.1.3.2.4.1.1.2.1.3.1h.1c4.9-1.1 9.3-6.3 11.9-13.9v-.4c-.1-.1-.3-.2-.4-.2zm4.2-26.5c.8 3.4 1.3 6.8 1.4 10.3 0 .3.2.5.5.5h9c.1 0 .2-.1.3-.2.1-.1.1-.2.1-.3-.3-4.7-1.8-9.3-4.3-13.4-.1-.1-.2-.2-.4-.2-.1 0-.2 0-.2.1-1.9 1.1-3.9 2-6 2.8-.3-.1-.4.2-.4.4zm25.4 21.3c.1.6 0 1.2-.4 1.6l-23 28.8c-.4.5-.9.7-1.5.7H41c-.6 0-1.1-.3-1.5-.7l-23-28.8c-.4-.5-.5-1-.4-1.6L24.3 26c.1-.6.5-1 1-1.3l33.2-16c.5-.3 1.1-.3 1.7 0l33.2 16c.5.3.9.7 1 1.3l8.2 35.9zm-11.2-9.1c0-17.7-14.3-32-32-32s-32 14.3-32 32 14.3 32 32 32 32-14.4 32-32zm19.4 13.5l-27.3 34.2c-.5.7-1.4 1.1-2.2 1.1H37.5c-.9 0-1.7-.4-2.2-1.1L8 66.3c-.5-.7-.7-1.6-.6-2.4l9.7-42.7c.2-.8.8-1.6 1.5-2L58 .2c.8-.4 1.7-.4 2.5 0l39.4 19c.8.4 1.4 1.1 1.6 2l9.7 42.7c.3.8.1 1.7-.4 2.4zm-4.8-5.1l-8.2-35.9c-.4-1.6-1.4-2.9-2.9-3.6l-33.2-16c-1.5-.7-3.2-.7-4.6 0l-33.2 16c-1.5.7-2.5 2.1-2.9 3.7l-8.2 35.9c-.4 1.6 0 3.3 1 4.5l23 28.8c1 1.3 2.6 2 4.2 2h36.8c1.6 0 3.2-.7 4.2-2l23-28.8c1-1.4 1.4-3.1 1-4.6zm-30.8-7H61.3c-.3 0-.5.2-.5.5v7.5c0 .2.2.5.4.5 4.2.1 8.5.7 12.6 1.7h.2c.1 0 .2 0 .2-.1.1-.1.1-.2.2-.3.7-3.1 1.2-6.2 1.3-9.3 0-.1 0-.3-.1-.3-.1-.1-.3-.2-.4-.2zM82 34.7c0-.1 0-.3-.1-.4-2.8-3.4-6.4-6.2-10.4-8h-.2c-.1 0-.3.1-.4.2-.1.2-.1.4 0 .6 2.3 3 4.1 6.4 5.3 10 0 .1.1.2.2.3h.4c1.7-.6 3.4-1.4 5-2.3.1-.2.2-.3.2-.4zm6 19.5h-9c-.3 0-.5.2-.5.5-.1 3.5-.6 6.9-1.4 10.3-.1.2.1.5.3.6 2.1.7 4.1 1.6 6 2.8.1 0 .2.1.2.1.2 0 .3-.1.4-.2 2.5-4 4-8.6 4.3-13.4.1-.4-.1-.7-.3-.7z"/><path fill="#36364d" d="M19.6 154.5L6 136.6v17.9H0V114h6v14.5L16.3 114h7.4l-3.7 4.7-9.6 13.9 17.6 22-8.4-.1zm99.1-11.4c0 3.1-1.2 6.1-3.4 8.3-1.1 1.1-2.3 1.9-3.7 2.5-1.4.6-3 .9-4.6.9h-7.6c-4 0-7.3-3.3-7.3-7.3v-26.2c0-4 3.3-7.3 7.3-7.3h6.8c3.1 0 6.1 1.2 8.3 3.4 1.1 1.1 1.9 2.3 2.5 3.7.6 1.4.9 3 .9 4.6.1 3.1-1.1 6.2-3.4 8.3 1.2 1 2.2 2.2 2.9 3.6.9 1.7 1.4 3.6 1.3 5.5zm-6 0c0-.7-.1-1.5-.4-2.2s-.7-1.3-1.2-1.8-1.1-.9-1.8-1.2c-.8-.3-1.7-.5-2.6-.4h-4.9v-6.1h4.4c.7 0 1.5-.1 2.2-.4 1.3-.6 2.4-1.7 3-3 .3-.7.4-1.4.4-2.2 0-.8-.1-1.5-.4-2.2s-.7-1.3-1.2-1.8-1.1-.9-1.8-1.2c-.7-.3-1.4-.4-2.2-.4h-4.6c-1.9 0-3.4 1.5-3.4 3.4v21.7c0 1.9 1.5 3.4 3.4 3.4h5.4c.8 0 1.5-.1 2.2-.4.7-.3 1.3-.7 1.8-1.2s.9-1.2 1.2-1.8c.3-.7.5-1.5.5-2.2zm-56.3 0c0 1.6-.3 3.1-.9 4.6-1.2 2.8-3.4 5.1-6.2 6.3-1.4.6-3 .9-4.6.9h-7c-1.6 0-3.1-.3-4.6-.9-2.8-1.2-5-3.4-6.2-6.2-.6-1.4-.9-3-.9-4.6 0-1.9.5-3.8 1.4-5.5.7-1.4 1.7-2.6 2.9-3.6-2.3-2.1-3.6-5.2-3.4-8.3 0-1.6.3-3.1.9-4.6.6-1.4 1.4-2.6 2.5-3.7 2.2-2.2 5.2-3.5 8.3-3.4H44c3.1 0 6.1 1.2 8.3 3.4 1.1 1.1 1.9 2.3 2.5 3.7.6 1.4.9 3 .9 4.6.1 3.1-1.2 6.2-3.4 8.3 1.2 1 2.1 2.2 2.9 3.6.7 1.6 1.2 3.5 1.2 5.4zm-6.1 0c0-.7-.1-1.5-.4-2.2-.3-.7-.7-1.3-1.2-1.8s-1.1-.9-1.8-1.2c-.8-.3-1.7-.5-2.6-.4h-1.2v-6.1h.8c.7 0 1.5-.1 2.2-.4 1.3-.6 2.4-1.7 3-3 .6-1.4.6-3 0-4.4-.3-.7-.7-1.3-1.2-1.8s-1.1-.9-1.8-1.2c-.7-.3-1.4-.4-2.2-.4h-5.4c-.7 0-1.5.1-2.2.4s-1.3.7-1.8 1.2c-1.6 1.6-2.1 4.1-1.2 6.2.6 1.3 1.7 2.4 3 3 .7.3 1.4.4 2.2.4h1v6.1h-1.4c-.9 0-1.7.1-2.6.4-.7.3-1.3.7-1.8 1.2s-.9 1.1-1.2 1.8c-.6 1.4-.6 3 0 4.4.3.7.7 1.3 1.2 1.8s1.1.9 1.8 1.2 1.4.4 2.2.4h7c.8 0 1.5-.1 2.2-.4.7-.3 1.3-.7 1.8-1.2s.9-1.2 1.2-1.8c.2-.7.4-1.5.4-2.2zm23.9-2.9h8.5c0 1.1-.3 2.2-.7 3.2-.4 1.1-1.1 2-1.9 2.8s-1.8 1.4-2.8 1.9c-2.2.9-4.7.9-6.9 0-1.1-.4-2-1.1-2.8-1.9-1.7-1.6-2.6-3.9-2.6-6.2v-11.7c0-1.2.2-2.4.7-3.4.9-2.1 2.6-3.8 4.8-4.7 1.1-.5 2.3-.7 3.4-.7h.7c1.4.1 2.8.6 3.9 1.4 1.4 1 2.6 2.2 3.4 3.7l.1.2c.4 1.1.7 2.3.7 3.4h6.1c0-2-.4-4-1.2-5.8l-.1-.1c-1.6-3.5-4.4-6.3-7.9-7.8-1.5-.7-3.2-1-4.8-1.1h-1c-2 0-4 .4-5.9 1.2-3.6 1.5-6.5 4.4-8 8-.8 1.8-1.2 3.8-1.2 5.8V140c0 2 .4 4 1.2 5.9.8 1.8 1.9 3.4 3.2 4.7 1.4 1.4 3 2.5 4.8 3.2 3.8 1.6 8 1.6 11.8 0 3.6-1.5 6.5-4.4 8-8 .8-1.8 1.2-3.8 1.2-5.8v-6H74.2v6.2zm44.5 19.7H0v3.8h118.7v-3.8z"/></svg>