<?xml version="1.0" encoding="utf-8"?>
<!-- Generator: Adobe Illustrator 21.1.0, SVG Export Plug-In . SVG Version: 6.00 Build 0)  -->
<svg version="1.1" id="Layer_1" xmlns="http://www.w3.org/2000/svg" xmlns:xlink="http://www.w3.org/1999/xlink" x="0px" y="0px"
	 viewBox="-6.319999999999993 -0.22000000000002728 484.64000000000004 375.44" style="enable-background:new 0 0 472 375;" xml:space="preserve">
<style type="text/css">
	.st0{fill:#EA4335;}
	.st1{fill:#4285F4;}
	.st2{fill:#34A853;}
	.st3{fill:#FBBC05;}
	.st4{fill:#5F6368;}
</style>
<g>
	<g id="Layer_3">
		<path class="st0" d="M258.5,44.4h5.1l14.6-14.6l0.7-6.2c-27.1-23.9-68.5-21.3-92.4,5.8c-6.6,7.5-11.5,16.5-14.1,26.2
			c1.6-0.7,3.4-0.8,5.1-0.3l29.1-4.8c0,0,1.5-2.5,2.2-2.3C221.8,34,243.6,32.3,258.5,44.4L258.5,44.4L258.5,44.4z"/>
		<path class="st1" d="M298.9,55.6c-3.4-12.3-10.2-23.4-19.8-31.9l-20.4,20.4c8.6,7.1,13.6,17.7,13.3,28.8v3.6
			c10.1,0,18.2,8.1,18.2,18.2s-8.1,18.2-18.2,18.2h-36.4l-3.6,3.7v21.8l3.6,3.6H272c26.1,0.2,47.5-20.8,47.7-47
			C319.9,79.3,312.1,64.4,298.9,55.6z"/>
		<path class="st2" d="M199.2,141.9h36.4v-29.1h-36.4c-2.6,0-5.2-0.6-7.5-1.6l-5.1,1.6l-14.7,14.6l-1.3,5.1
			C178.9,138.6,188.9,142,199.2,141.9z"/>
		<path class="st3" d="M199.2,47.4C173.1,47.6,152,68.9,152.1,95c0.1,14.6,6.9,28.3,18.5,37.2l21.1-21.1
			c-9.2-4.1-13.2-14.9-9.1-24.1c4.1-9.2,14.9-13.2,24.1-9.1c4,1.8,7.3,5.1,9.1,9.1l21.1-21.1C228,54.2,214,47.3,199.2,47.4z"/>
	</g>
	<g id="Layer_2">
		<path class="st4" d="M36,281.1c-8.6,0.1-16.8-3.3-22.8-9.4c-6.2-5.8-9.7-14-9.6-22.5c-0.1-8.5,3.4-16.7,9.6-22.5
			c6-6.2,14.2-9.6,22.8-9.5c8.2-0.1,16,3.1,21.9,8.8l-6.1,6.3c-4.2-4.1-9.9-6.3-15.7-6.2c-6.1-0.1-12,2.4-16.2,6.9
			c-4.4,4.3-6.8,10.3-6.7,16.4c-0.1,6.1,2.4,11.9,6.7,16.2c8.9,8.9,23.2,9,32.3,0.4c2.7-3,4.4-6.7,4.7-10.7H36.2v-8.8h29.3
			c0.3,1.8,0.4,3.6,0.3,5.4c0.4,7.5-2.4,14.9-7.6,20.4C52.5,278.1,44.4,281.3,36,281.1z M104.2,275.2c-8.2,7.8-21.1,7.8-29.3,0
			c-4-3.8-6.1-9.2-6-14.7c-0.1-5.5,2-10.8,6-14.7c8.2-7.8,21.1-7.8,29.3,0c4,3.8,6.1,9.2,6,14.7C110.3,266,108.2,271.4,104.2,275.2
			L104.2,275.2z M81.4,269.4c4.2,4.5,11.3,4.7,15.8,0.5c0.2-0.2,0.4-0.3,0.5-0.5c2.3-2.4,3.6-5.6,3.5-8.9c0.1-3.3-1.1-6.6-3.5-8.9
			c-4.3-4.5-11.5-4.7-16.1-0.3c-0.1,0.1-0.2,0.2-0.3,0.3c-2.3,2.4-3.6,5.6-3.5,8.9C77.8,263.8,79.1,267,81.4,269.4L81.4,269.4z
			 M149.2,275.2c-8.2,7.8-21.1,7.8-29.3,0c-4-3.8-6.1-9.2-6-14.7c-0.1-5.5,2-10.8,6-14.7c8.2-7.8,21.1-7.8,29.3,0
			c4,3.8,6.1,9.2,6,14.7C155.3,266,153.2,271.3,149.2,275.2z M126.4,269.4c4.2,4.5,11.3,4.7,15.8,0.5c0.2-0.2,0.4-0.3,0.5-0.5
			c2.3-2.4,3.6-5.6,3.5-8.9c0.1-3.3-1.1-6.6-3.5-8.9c-4.3-4.5-11.5-4.7-16.1-0.3c-0.1,0.1-0.2,0.2-0.3,0.3c-2.3,2.4-3.6,5.6-3.5,8.9
			C122.8,263.8,124,267,126.4,269.4L126.4,269.4z M178.8,299.5c-4.1,0.1-8.2-1.2-11.5-3.7c-2.9-2.2-5.2-5.1-6.7-8.5l7.9-3.3
			c0.9,2,2.2,3.8,3.9,5.1c1.8,1.5,4.1,2.2,6.5,2.2c3,0.2,5.9-1,8-3.1c2.1-2.5,3.1-5.7,2.9-9v-3h-0.3c-2.7,3.2-6.7,4.9-10.8,4.7
			c-5.2,0-10.3-2.2-13.8-6c-3.9-3.8-6-9-5.9-14.5c-0.1-5.5,2-10.7,5.9-14.6c3.6-3.9,8.6-6.1,13.8-6c2.2,0,4.4,0.5,6.4,1.4
			c1.7,0.8,3.3,1.9,4.5,3.3h0.3v-3.3h8.6V278c0.5,5.9-1.5,11.7-5.5,16.1C189,297.8,184,299.7,178.8,299.5z M179.4,273
			c3,0.1,5.8-1.2,7.8-3.5c2.1-2.4,3.3-5.6,3.1-8.8c0.1-3.3-1-6.5-3.1-9c-2-2.3-4.8-3.5-7.8-3.5c-3.1-0.1-6,1.2-8.1,3.5
			c-2.3,2.4-3.5,5.6-3.5,8.9c-0.1,3.3,1.2,6.5,3.5,8.8C173.4,271.7,176.3,273,179.4,273z M213.5,219.4v60.4h-9v-60.4H213.5z
			 M238.3,281.1c-5.5,0.1-10.7-2-14.5-5.9c-3.9-3.9-6-9.2-5.8-14.6c-0.2-5.5,1.8-10.8,5.6-14.8c3.6-3.8,8.6-5.9,13.8-5.8
			c2.4,0,4.7,0.4,6.9,1.3c2,0.8,3.8,2,5.3,3.5c1.3,1.3,2.5,2.7,3.5,4.2c0.8,1.3,1.5,2.6,2,4l0.9,2.3l-27.6,11.4
			c1.7,3.9,5.7,6.4,9.9,6.2c4.1,0,8-2.2,10.1-5.7l6.9,4.7c-1.8,2.5-4,4.7-6.6,6.3C245.6,280.1,241.9,281.1,238.3,281.1z
			 M226.7,259.9l18.4-7.6c-0.6-1.3-1.6-2.5-2.9-3.1c-1.4-0.8-3.1-1.2-4.7-1.2c-2.8,0.1-5.5,1.3-7.4,3.3
			C227.7,253.4,226.5,256.6,226.7,259.9z"/>
		<path class="st4" d="M303.2,281.1c-15.7,0.3-28.7-12.2-28.9-28c0-0.4,0-0.8,0-1.2c-0.4-15.7,12.1-28.7,27.8-29.1
			c0.4,0,0.8,0,1.2,0c7.9-0.2,15.4,3.1,20.5,9.1l-5,4.8c-3.7-4.7-9.5-7.3-15.5-7.1c-5.7-0.1-11.3,2.1-15.4,6.1
			c-4.2,4.3-6.5,10.1-6.3,16.1c-0.2,6,2,11.8,6.3,16.1c4.1,4.1,9.6,6.3,15.4,6.1c6.7,0.1,13-2.9,17.3-8.1l5,5
			c-2.6,3.1-5.9,5.6-9.6,7.3C311.9,280.2,307.6,281.1,303.2,281.1z"/>
		<path class="st4" d="M338.8,279.8h-7.1V224h7.1V279.8z"/>
		<path class="st4" d="M350.5,246.2c7.8-7.7,20.4-7.7,28.2,0c3.7,3.9,5.7,9.1,5.5,14.5c0.2,5.4-1.8,10.6-5.5,14.5
			c-7.8,7.7-20.4,7.7-28.2,0c-3.7-3.9-5.7-9.1-5.5-14.5C344.8,255.4,346.8,250.1,350.5,246.2z M355.8,270.8c4.6,4.8,12.2,5,17,0.5
			c0.2-0.2,0.3-0.3,0.5-0.5c2.5-2.7,3.9-6.3,3.7-10c0.2-3.7-1.2-7.3-3.7-10c-4.6-4.8-12.2-5-17-0.5c-0.2,0.2-0.3,0.3-0.5,0.5
			c-2.5,2.7-3.9,6.3-3.7,10C352,264.4,353.3,268,355.8,270.8L355.8,270.8z"/>
		<path class="st4" d="M423.8,279.8h-6.9v-5.3h-0.2c-1.2,2-3,3.7-5,4.8c-2.2,1.2-4.6,1.9-7.1,1.9c-4.1,0.3-8.1-1.3-10.8-4.4
			c-2.6-3.3-3.9-7.5-3.7-11.7v-23.5h7.1v22.2c0,7.1,3.1,10.7,9.4,10.7c2.8,0.1,5.5-1.2,7.3-3.5c1.9-2.3,2.8-5.3,2.8-8.3v-21.1h7.1
			L423.8,279.8L423.8,279.8z"/>
		<path class="st4" d="M448.1,281.1c-4.9,0-9.6-2.1-12.8-5.8c-3.6-4-5.5-9.1-5.4-14.5c-0.1-5.3,1.8-10.5,5.4-14.5
			c3.2-3.7,7.9-5.9,12.8-5.8c2.7,0,5.4,0.6,7.8,1.9c2.1,1.1,3.9,2.7,5.2,4.7h0.3l-0.3-5.3V224h7.1v55.8h-6.9v-5.3H461
			c-1.3,2-3.1,3.6-5.2,4.7C453.4,280.4,450.8,281.1,448.1,281.1z M449.3,274.5c3.3,0,6.4-1.3,8.6-3.7c2.4-2.8,3.7-6.4,3.5-10.1
			c0.2-3.7-1-7.3-3.5-10.1c-4.3-4.8-11.7-5.1-16.5-0.8c-0.3,0.2-0.5,0.5-0.8,0.8c-2.4,2.7-3.7,6.4-3.5,10c-0.2,3.7,1,7.3,3.5,10
			C442.8,273.2,446,274.6,449.3,274.5z"/>
	</g>
</g>
<g>
	<path class="st4" d="M104.7,305.2h10.7v27.7l27.1-27.7h13.1l-24.3,24.3l26,36.6H144L124,337l-8.7,8.6v20.5h-10.7V305.2z"/>
	<path class="st4" d="M198.7,356.3c0,1.2,0.2,2,0.5,2.6c0.3,0.5,0.9,0.8,1.8,0.8c0.3,0,0.6,0,1,0c0.4,0,0.9-0.1,1.4-0.2v6.7
		c-0.3,0.1-0.8,0.2-1.3,0.4c-0.5,0.1-1.1,0.3-1.7,0.4c-0.6,0.1-1.1,0.2-1.7,0.3c-0.6,0.1-1.1,0.1-1.5,0.1c-2,0-3.6-0.4-4.9-1.2
		c-1.3-0.8-2.2-2.2-2.6-4.2c-1.9,1.9-4.3,3.2-7.1,4.1c-2.8,0.9-5.5,1.3-8.1,1.3c-2,0-3.9-0.3-5.7-0.8c-1.8-0.5-3.4-1.3-4.8-2.4
		c-1.4-1.1-2.5-2.4-3.3-4c-0.8-1.6-1.2-3.5-1.2-5.7c0-2.7,0.5-4.9,1.5-6.7c1-1.7,2.3-3,3.9-4c1.6-1,3.4-1.7,5.5-2.1
		c2-0.4,4.1-0.8,6.1-1c1.8-0.3,3.4-0.6,5-0.7c1.6-0.1,3-0.4,4.2-0.7c1.2-0.3,2.2-0.9,2.9-1.6c0.7-0.7,1.1-1.8,1.1-3.2
		c0-1.2-0.3-2.3-0.9-3.1c-0.6-0.8-1.3-1.4-2.2-1.8c-0.9-0.4-1.9-0.7-2.9-0.9c-1.1-0.1-2.1-0.2-3.1-0.2c-2.7,0-5,0.6-6.7,1.7
		c-1.8,1.1-2.8,2.9-3,5.3H161c0.2-2.8,0.9-5.2,2-7.1c1.2-1.9,2.7-3.4,4.6-4.5c1.8-1.1,3.9-1.9,6.3-2.4c2.3-0.5,4.7-0.7,7.2-0.7
		c2.2,0,4.3,0.2,6.4,0.7c2.1,0.5,4,1.2,5.7,2.2c1.7,1,3,2.3,4.1,4c1,1.6,1.5,3.6,1.5,5.9V356.3z M189,344c-1.5,1-3.3,1.6-5.5,1.7
		c-2.2,0.2-4.3,0.5-6.5,0.9c-1,0.2-2,0.4-3,0.7c-1,0.3-1.8,0.7-2.6,1.3c-0.7,0.5-1.3,1.3-1.7,2.1c-0.4,0.9-0.6,1.9-0.6,3.2
		c0,1.1,0.3,2,0.9,2.7c0.6,0.7,1.4,1.3,2.3,1.8c0.9,0.4,1.8,0.7,2.9,0.9c1.1,0.2,2,0.3,2.9,0.3c1.1,0,2.2-0.1,3.5-0.4
		c1.3-0.3,2.4-0.8,3.5-1.5s2-1.5,2.8-2.6c0.7-1.1,1.1-2.3,1.1-3.9V344z"/>
	<path class="st4" d="M209.2,322h9.2v6.5l0.2,0.2c1.5-2.4,3.4-4.4,5.8-5.8c2.4-1.4,5-2.1,7.9-2.1c4.8,0,8.6,1.3,11.4,3.8
		c2.8,2.5,4.2,6.3,4.2,11.3v30.3h-9.7v-27.7c-0.1-3.5-0.9-6-2.2-7.6c-1.4-1.6-3.5-2.3-6.4-2.3c-1.7,0-3.1,0.3-4.4,0.9
		c-1.3,0.6-2.4,1.4-3.3,2.5c-0.9,1.1-1.6,2.3-2.1,3.7c-0.5,1.4-0.8,2.9-0.8,4.5v26h-9.7V322z"/>
	<path class="st4" d="M258.4,305.2h9.7v9.2h-9.7V305.2z M258.4,322h9.7v44.1h-9.7V322z"/>
	<path class="st4" d="M279,305.2h9.7v34.6l17.6-17.8h11.9l-16.9,16.2l18.5,27.9H308l-13.5-21.4l-5.8,5.6v15.8H279V305.2z"/>
	<path class="st4" d="M344.8,367.3c-3.5,0-6.7-0.6-9.4-1.7c-2.8-1.2-5.1-2.8-7-4.8c-1.9-2-3.4-4.5-4.4-7.3c-1-2.8-1.5-6-1.5-9.4
		c0-3.4,0.5-6.5,1.5-9.3c1-2.8,2.4-5.3,4.4-7.3c1.9-2,4.2-3.7,7-4.8c2.8-1.2,5.9-1.8,9.4-1.8c3.5,0,6.7,0.6,9.4,1.8
		c2.8,1.2,5.1,2.8,7,4.8c1.9,2,3.4,4.5,4.4,7.3c1,2.8,1.5,5.9,1.5,9.3c0,3.4-0.5,6.5-1.5,9.4c-1,2.8-2.4,5.3-4.4,7.3
		c-1.9,2-4.2,3.7-7,4.8C351.5,366.7,348.3,367.3,344.8,367.3z M344.8,359.6c2.2,0,4-0.5,5.6-1.4c1.6-0.9,2.9-2.1,3.9-3.6
		c1-1.5,1.8-3.1,2.3-5c0.5-1.8,0.7-3.7,0.7-5.7c0-1.9-0.2-3.8-0.7-5.6c-0.5-1.9-1.2-3.5-2.3-5c-1-1.5-2.3-2.6-3.9-3.5
		s-3.5-1.4-5.6-1.4c-2.2,0-4,0.5-5.6,1.4s-2.9,2.1-3.9,3.5c-1,1.5-1.8,3.1-2.3,5c-0.5,1.9-0.7,3.8-0.7,5.6c0,1.9,0.2,3.8,0.7,5.7
		c0.5,1.8,1.2,3.5,2.3,5c1,1.5,2.3,2.7,3.9,3.6C340.8,359.2,342.6,359.6,344.8,359.6z"/>
</g>
</svg>
