<svg xmlns="http://www.w3.org/2000/svg" role="img" viewBox="78.54 -0.21 243.17 244.92"><title>Kasten (member) logo</title><path fill="none" d="M0 0h400v245H0z" pointer-events="none"/><path fill="#446ca9" d="M117.529 178.132H85.063a1.734 1.734 0 0 1-1.718-1.719V6.431c0-.938.78-1.72 1.718-1.72h32.466c.937 0 1.719.782 1.719 1.72v170.021c0 .899-.782 1.68-1.72 1.68z" class="st65"/><path fill="none" d="M191.444 41.474l.82 1.406-2.109 1.172-.508-.937-28.285 48.99 28.402 49.265.43-.704 2.07 1.172-.507.899h57.273l28.636-49.655h-2.11V90.7h1.915L249.03 41.474z" class="st0"/><path fill="#46a8c6" d="M249.03 41.474l28.44 49.225h39.576c-.195-2.422-.898-4.805-2.149-6.954L274.58 13.931a16.736 16.736 0 0 0-14.455-8.36H179.49c-2.579 0-5.08.625-7.306 1.719l19.26 34.145h57.586zm0 101.263h-57.273l-19.534 34.184a16.606 16.606 0 0 0 7.306 1.719h80.596a16.688 16.688 0 0 0 14.455-8.36l40.278-69.814c1.329-2.266 2.032-4.805 2.188-7.345h-39.38l-28.636 49.616z" class="st66"/><path fill="#446ca9" d="M161.362 92.106l28.285-48.991L170.152 8.54c-2.031 1.407-3.828 3.204-5.078 5.43l-40.357 69.775c-2.97 5.157-2.97 11.525 0 16.72l40.279 69.815a16.243 16.243 0 0 0 5.117 5.43l19.651-34.34-28.402-49.264z" class="st65"/><path fill="#4e73a5" d="M123.623 238.413c.664.743.234.977-.312.977h-3.985c-.704 0-1.016-.234-1.602-.977l-15.236-14.572v14.572c0 .743-.235.977-.977.977h-2.696c-.742 0-.976-.234-.976-.977v-43.912c0-.742.234-1.015.976-1.015h2.696c.82 0 .977.234.977 1.015v27.191l14.415-12.931c.626-.742.938-.977 1.602-.977h3.907c.625 0 .82.508.313.977l-15.55 13.869 16.448 15.783zM135.93 211.3l-.509-1.875c-.195-.664 0-.977.743-1.25.742-.195 5.899-1.133 10.704-1.133 10.47 0 13.322 4.65 13.322 14.924v16.408c0 .742-.234.977-.937.977h-1.797c-.508 0-.743-.235-.938-.977l-.235-4.22c-1.68 2.306-5.781 5.9-12.501 5.9-5.977 0-11.056-3.672-11.056-10.314 0-6.797 5.118-10.08 12.736-10.08 3.281 0 6.915.86 10.08 2.189 0-7.853-2.306-10.705-8.83-10.705-3.985 0-7.228.547-9.572.977-.86.234-1.015-.078-1.21-.82zm1.445 18.48c0 3.867 2.813 6.64 7.852 6.64 4.298 0 8.322-2.93 10.314-5.86v-5.156c-3.164-1.29-5.586-2.227-9.142-2.227-5.938 0-9.024 2.344-9.024 6.602zm54.733.742c0-2.735-3.125-4.18-8.79-4.962-6.172-.82-12.072-2.227-12.072-8.79 0-5.9 4.61-9.689 11.955-9.689 3.243 0 7.54.82 11.877 3.477.742.43.625.82.312 1.367l-.82 1.485c-.313.625-.625.938-1.368.43-3.36-2.07-5.743-2.97-9.767-2.97-5.235 0-7.774 2.228-7.774 5.665 0 3.438 3.125 4.063 8.79 4.845 6.173.86 12.15 2.852 12.15 8.907 0 5.743-4.727 9.845-12.736 9.845-3.282 0-8.204-.937-12.814-3.985-.547-.39-.547-.664-.195-1.367l.86-1.563c.312-.625.624-.937 1.367-.39 2.734 1.914 6.407 3.477 10.509 3.477 6.016 0 8.516-2.618 8.516-5.782zm28.481 9.571c-8.205 0-11.252-5.157-11.252-13.79v-14.69h-3.047c-.742 0-.977-.234-.977-1.016v-1.875c0-.82.235-.977.977-.977h3.047v-6.407c0-.742.195-1.016.938-1.016h2.734c.743 0 .938.235.938 1.016v6.407H225.2c.664 0 .937.196.937.977v1.875c0 .742-.195 1.016-.937 1.016h-11.291v14.299c0 7.266 2.188 9.962 7.15 9.962 1.757 0 2.734-.117 4.297-.938.82-.43 1.016-.39 1.25.508l.39 1.993c.196.625.118.859-.43 1.172-2.5 1.484-5.195 1.484-5.976 1.484zm44.341-5.743c.43.547.43.938 0 1.368-2.93 2.852-7.97 4.336-12.58 4.336-9.376 0-16.603-7.384-16.603-16.486 0-9.064 7.227-16.565 16.29-16.565 9.69 0 15.354 7.853 15.354 17.19 0 .742-.117 1.015-.937 1.015h-25.941c.43 5.782 5.743 10.744 11.994 10.744 3.047 0 6.797-.938 9.767-3.125.664-.391.937-.508 1.445.078l1.211 1.445zm-2.305-12.384c-.234-5.587-4.297-11.017-10.626-11.017-6.407 0-11.134 5.43-11.33 11.017h21.956zm20.785-7.618c1.288-2.5 4.53-7.267 10.625-7.267 6.642 0 12.307 4.063 12.307 13.986v17.346c0 .743-.235.977-.938.977h-2.813c-.664 0-.937-.234-.937-.977v-16.096c0-7.383-3.712-11.017-8.79-11.017-5.431 0-8.908 5.235-8.908 11.447v15.666c0 .743-.234.977-.938.977h-2.812c-.665 0-.938-.234-.938-.977v-29.691c0-.742.234-.977.938-.977h1.562c.508 0 .743.235 1.055.977l.586 5.626z" class="st67"/></svg>