<svg xmlns="http://www.w3.org/2000/svg" role="img" xmlns:xlink="http://www.w3.org/1999/xlink" viewBox="-4.17 -3.67 199.85 243.10"><title>Keploy logo</title><style>svg {background:#FFFFFF}</style><defs><linearGradient id="linearGradient-1" x1="86.372%" x2="13.706%" y1="25.939%" y2="67.248%"><stop offset="0%" stop-color="#4285F4"/><stop offset="100%" stop-color="#3F51B5"/></linearGradient><linearGradient id="linearGradient-2" x1="24.613%" x2="73.035%" y1="46.586%" y2="50.233%"><stop offset="0%" stop-color="#4285F4"/><stop offset="100%" stop-color="#3F51B5"/></linearGradient><linearGradient id="linearGradient-3" x1="24.676%" x2="74.482%" y1="47.212%" y2="52.888%"><stop offset="0%" stop-color="#4285F4"/><stop offset="100%" stop-color="#3F51B5"/></linearGradient><path id="path-4" d="M7.95166 220v-15.75l7.229-6.92139L30.9922 220h7.96728l-19.31836-26.97803 18.79541-18.21094h-8.45947l-22.02539 22.0254v-22.0254H1.98389V220h5.96777zm48.17285 1.16895c1.68164 0 3.18897-.16407 4.52197-.4922 2.48145-.57421 4.563-1.68163 6.24463-3.32226 1.00489-.94336 1.91236-2.15845 2.72242-3.64526.81005-1.48682 1.28686-2.8352 1.43042-4.04517h-5.44483c-.41016 1.45606-1.10742 2.7378-2.0918 3.84522-1.72265 1.90722-4.02978 2.86084-6.92138 2.86084-3.09668 0-5.3833-1.01001-6.85987-3.03003-1.47656-2.02002-2.2661-4.70142-2.36865-8.0442h24.14795c0-3.32226-.16406-5.74218-.49219-7.25976-.36914-2.21484-1.10742-4.15283-2.21484-5.81396-1.14844-1.74317-2.81982-3.16333-5.01416-4.2605-2.19434-1.09717-4.46045-1.64575-6.79834-1.64575-4.63477 0-8.3877 1.65088-11.25879 4.95263-2.8711 3.30176-4.30664 7.59815-4.30664 12.88916 0 5.37305 1.4253 9.55152 4.27588 12.5354 2.85059 2.9839 6.32666 4.47584 10.42822 4.47584zm9.68994-20.27198H47.51123c.10254-2.83008 1.01514-5.16284 2.7378-6.99829 1.72265-1.83545 3.85546-2.75317 6.39843-2.75317 3.54785 0 6.08057 1.333 7.59815 3.99902.8203 1.43555 1.34326 3.35303 1.56884 5.75244zm17.5957 32.23828V216.3086c1.20997 1.49707 2.30714 2.55323 3.29151 3.16846 1.68164 1.08692 3.76318 1.63037 6.24463 1.63037 3.1582 0 5.92676-.97412 8.30566-2.92236 3.75293-3.07617 5.6294-8.20313 5.6294-15.38086 0-5.31152-1.30225-9.3977-3.90674-12.25855-2.6045-2.86084-5.77295-4.29126-9.50537-4.29126-2.52246 0-4.7168.61524-6.58301 1.8457-1.3125.82032-2.52246 1.97901-3.62988 3.47608v-4.36816h-5.3833v45.92724h5.5371zm8.79786-16.85742c-3.81446 0-6.43946-1.70215-7.875-5.10644-.7588-1.78418-1.13819-3.94776-1.13819-6.49073 0-3.1582.3794-5.7627 1.13819-7.81347 1.41504-3.83496 4.04004-5.75244 7.875-5.75244 3.81445 0 6.43945 1.81494 7.875 5.44482.75879 1.88672 1.13818 4.14258 1.13818 6.76758 0 4.30664-.8562 7.54175-2.5686 9.70532-1.7124 2.16358-3.8606 3.24536-6.44458 3.24536zM119.03223 220v-45.18896h-5.53711V220h5.5371zm20.85644 1.1997c5.43457 0 9.44385-1.7329 12.02783-5.19872 2.58399-3.46582 3.87598-7.8545 3.87598-13.16602 0-5.4961-1.4663-9.65918-4.39893-12.48926-2.93261-2.83007-6.52148-4.24511-10.7666-4.24511-4.7373 0-8.51074 1.64062-11.3203 4.92187-2.80958 3.28125-4.21436 7.69043-4.21436 13.22754 0 5.16797 1.333 9.28491 3.99902 12.35083 2.66601 3.06592 6.26514 4.59888 10.79736 4.59888zm.52295-4.76806c-3.34277 0-5.7832-1.16894-7.32129-3.50683-1.53808-2.3379-2.30713-5.26026-2.30713-8.7671 0-3.65039.76905-6.76757 2.30713-9.35156 1.53809-2.58398 3.99903-3.87597 7.38281-3.87597 3.81446 0 6.50098 1.51757 8.05957 4.55273.98438 1.92773 1.47657 4.42969 1.47657 7.50586 0 3.4043-.68189 6.49585-2.04566 9.27466-1.36377 2.7788-3.8811 4.16821-7.552 4.16821zm24.88623 17.07276c3.19922 0 5.45508-.92286 6.76758-2.76856s3.56836-6.97266 6.76758-15.38086c1.35351-3.56836 3.03515-8.18262 5.04492-13.84277 2.68652-7.52637 4.41943-12.3457 5.19873-14.45801h-6.12158l-8.89014 26.82422-8.82861-26.82422h-6.2754l12.18165 33.89941c-.28711.73828-.74854 1.86621-1.38428 3.3838-.63574 1.51757-1.00488 2.3584-1.10742 2.52245-.32813.4922-.73316.90747-1.21509 1.24585-.48193.33838-1.2356.50757-2.26099.50757-.32812 0-.70752-.03076-1.13818-.09228-.43066-.06153-1.12793-.22559-2.0918-.4922v5.04493c.61524.16406 1.13306.27686 1.55347.33838.42041.06152 1.02026.09228 1.79956.09228z"/></defs><g id="Page-1" fill="none" fill-rule="nonzero" stroke="none" stroke-width="1"><path id="Combined-Shape" fill="url(#linearGradient-1)" d="M95.07207 1l8.2595 4.83007c3.325 1.94717 10.63711 6.2233 18.17387 10.62956l1.65654.96846c10.3115 6.02823 20.52849 11.99907 21.06392 12.30967l.48382.27732.79484-.4622c1.75097-1.02841 3.81297-1.66395 5.9556-1.84883 6.99235-.61243 13.36265 3.92876 15.17121 10.81566.3456 1.28262.36863 1.47906.36863 3.50122 0 2.28793-.1728 3.33945-.80637 5.06117-1.33626 3.5359-4.15855 6.62113-7.38401 8.06553l-.61054.27732-.00004 29.8571-.00005.65454-.00098 4.3097-.00023.5776-.00053 1.12728-.0003.54983-.00066 1.07235-.00037.52265-.00082 1.0186c-.01165 13.51237-.05027 17.40778-.13425 17.5201-.08064.104-11.48497 6.72512-25.34296 14.73287l-25.20473 14.54799v1.51372c0 2.50748-.48382 4.5412-1.57817 6.66735-2.75317 5.3385-8.62813 8.49307-14.52612 7.81131-4.8958-.5662-9.16955-3.57055-11.3813-7.98464-.97916-1.94127-1.40538-3.67455-1.52057-6.10114l-.08064-1.55995-18.8805-11.04676-18.88051-11.04676-.99068.4391c-7.7872 3.44344-16.96826-.55466-19.87118-8.65484-1.07132-3.01591-1.07132-6.85223 0-9.86814 1.25563-3.48967 3.70928-6.37846 6.9002-8.1233l.97915-.5431.00012-30.45365.00006-.62401.00094-4.10113.0002-.54854.00074-1.5911.00028-.51242.00063-.99831.00035-.48603.00076-.94613c.01012-11.61238.04174-15.22974.12404-15.57094l.00669-.0204a.01993.01993 0 0 1 .00343-.00513c.08063-.08088 14.24965-8.28507 31.48286-18.24564C76.53716 9.3544 90.68314 1.16178 90.74074 1.104c.06504-.05438.94643-.09852 2.01989-.10353L95.07207 1zm-2.61515 138.94754c-1.28011.107-1.92016.41019-2.80913 1.31974-1.9735 2.05094-1.38678 5.47513 1.17343 6.7592 1.17344.5707 2.68467.60637 3.78699.07134 1.51123-.7312 2.41798-2.21146 2.41798-3.94138 0-2.51464-2.04462-4.40508-4.56927-4.2089zM59.74169 98.4331c-.07094-.02176-2.72659 1.30203-5.53664 2.731l-.62601.31878c-2.92402 1.491-5.8205 2.99629-5.97893 3.13252-.1728.13866-.18432.38132-.13824 1.8026.06912 1.83728-.10367 3.16613-.61053 4.73764-.16128.49687-.25343.99374-.21888 1.1093.0009.00266.00697.00831.01816.0169l.04879.0345c.78836.53267 8.44215 5.0071 18.38734 10.72959 7.17768 4.13646 13.4466 7.73295 16.50076 9.4806l.31483.18011c1.0581.60523 1.65254.94388 1.66173.94695.03456 0 .49534-.3351 1.01372-.75108 1.0598-.83198 1.93528-1.37507 2.8914-1.7795.34558-.15022.66813-.3351.7142-.40444.04378-.06586.08756-3.19772.09182-7.07731l-.00004-2.31251c-.00006-.1037-.00012-.20562-.0002-.30578l-.00096-.8548c-.00669-4.3151-.0409-4.80523-.2058-5.10688-.0507-.10169-.1995-.24215-.6238-.52813l-.1894-.12538c-1.14257-.74467-3.83302-2.31617-10.1534-5.96761a7043.07056 7043.07056 0 0 0-1.09068-.63204l-1.09248-.63284c-5.21314-3.01926-10.25628-5.93283-11.81306-6.83531-1.774-1.02841-3.28307-1.8835-3.3637-1.90688zm73.6904 3.5246c-.31102-.11555-.38013-.09244-1.00219.46221-2.58037 2.2417-5.44874 3.3279-8.847 3.3279-2.2463 0-3.96271-.39288-5.87495-1.3404-.40319-.19644-.80637-.3351-.89853-.30044-.42622.16177-19.38736 11.09298-19.44496 11.20853-.00472.00853-.0075.11728-.00861.30987l-.00023.43368c.0087 3.0454.18919 14.40645.23923 14.56708.01152.02311.34559.18489.76029.36977 1.12891.50843 2.2463 1.19018 3.11027 1.9066.42622.34666.8294.63554.87549.63554.0576 0 9.52665-5.41938 21.04617-12.0405 11.508-6.62113 21.09225-12.06363 21.27657-12.08674.7718-.11555.87548-.68175.20735-1.09774-.08168-.05042-.2403-.14315-.46141-.27017l-.46242-.26394c-.98923-.56198-2.60117-1.46479-4.26943-2.3935l-.88535-.49235c-1.37572-.76427-2.72184-1.5084-3.72205-2.0565l-.40656-.22238c-.70316-.38381-1.16486-.6311-1.23167-.65652zm-104.01334 4.91124c-.06156 1.76825.94114 3.19323 2.70774 3.83421.55807.19997.9105.27292 1.25747.2968.35307.02428.70058-.00347 1.26268-.14234 2.97162-.7232 4.15753-4.05701 2.23653-6.30835-2.47547-2.94914-7.33382-1.43165-7.46442 2.31968zm58.3269-23.71153c-.01382 0-.10577.04247-.26546.12183l-.22348.11259c-1.2733.6479-4.83557 2.5435-8.44262 4.4814l-.72134.38778c-4.32365 2.3258-8.49634 4.59675-8.6401 4.72987-.0687.06432-.1291.1195-.15995.17981l-.01377.03349c-.12341.39864 1.1068 1.1097 9.17047 5.80695 3.6996 2.14626 6.94504 4.00778 8.42458 4.83068l.22424.12422c.38197.21061.60159.32582.6244.32582.10367.01156.27647-.104.36862-.24266l.0145-.02419c.1223-.23612.1584-1.20552.16728-6.39879l.0009-.61816c.00014-.10622.00026-.21405.00037-.32352l.00058-.67663c.00009-.11612.00016-.23391.00022-.35342v-3.84814c-.00006-.1195-.00013-.2373-.00022-.35342l-.00058-.67663c-.00011-.10947-.00023-.2173-.00037-.32352l-.0009-.61817c-.00922-5.393-.0478-6.23098-.18178-6.42298-.09215-.13866-.25343-.25421-.34558-.25421zm10.72469 1.61773c-.03006 0-.0514 3.1105-.05645 7.22695l-.00086.94229c-.00007.10639-.00012.2133-.00016.32072l.00005 1.78391.00014.35633.00074 1.00639c.0059 5.76209.03916 6.62553.17173 6.57439.09216-.03467 2.63797-1.4444 5.6676-3.13146 3.02964-1.69861 5.51786-3.0968 5.52938-3.10835.02304-.0231-.06912-.42754-.19583-.91286-.1152-.48531-.27647-1.50217-.33407-2.25326-.1152-1.22485-.10367-1.81416.04608-3.00435l.04608-.38132-5.41418-2.70391c-.99068-.49688-1.92376-.96422-2.72885-1.36651l-.82411-.41135c-1.14986-.5732-1.88844-.93761-1.9073-.93761zm46.29214-31.8411l-.05276.00654c-.1404.04875-3.32323 1.74784-6.6879 3.5584l-.67452.36315c-3.6013 1.93982-7.1925 3.88976-7.30194 3.9822-.12229.09813-.1638.61873-.16945 4.03549l.00006 2.05846c.0013 1.07583.00422 2.34188.00812 3.83196l.03455 9.7757.99068.70486c1.96984 1.37507 3.02964 2.49592 4.13551 4.3332 1.19803 1.9875 1.73945 3.92876 1.78553 6.3438.03456 1.19018.08064 1.69861.19583 1.8026.08064.0809 2.45366 1.43285 5.27594 2.9928 2.4802 1.37087 4.58674 2.52757 5.08444 2.78784l.10143.05123c.044.00351.1592-.06582.26287-.13515.13824-.104.17927-.92947.19115-10.12018l.0009-.75325c.0004-.3857.00078-.7851.00111-1.1987l.00088-1.28389.00025-.4474.00077-1.88973.00014-.498.00007-9.24439a6728.0785 6728.0785 0 0 0-.0002-.48836l-.0008-1.42965c-.0001-.15589-.00021-.31079-.00033-.4647l-.00076-.91152c-.00946-10.34522-.04469-15.9457-.11254-16.02349-.0576-.06933-.54142-.34665-1.07132-.61242-.51838-.25422-1.15195-.63554-1.40538-.83198-.27647-.21955-.51838-.32354-.6451-.28888zm-106.21672-1.3223c-.13824 0-.288.06933-.3571.15021-.07742.0943-.13625 9.7676-.15867 19.81895l-.00484 2.51539a3919.80397 3919.80397 0 0 0-.00427 3.73273l-.00021 4.16495c.00409 6.68283.0309 11.83408.08734 11.88666.06912.05777.32255.17332.57598.25421 1.08284.34666 3.09875 1.5484 3.76689 2.2417.43774.46221.7718.50844 1.29018.19645.19584-.11556 3.0066-1.68706 6.23207-3.47812 3.23698-1.79105 5.94407-3.31634 6.02471-3.39722.0934-.0937.12622-2.04854.1353-8.85799l.00082-.69723c.00013-.11895.00025-.23926.00036-.36097l.0006-.74703c.0001-.12732.00018-.25606.00026-.38623l.00078-2.06169c.00002-.14483.00005-.29117.00006-.43902l.00003-1.29766a2668.1757 2668.1757 0 0 0-.00009-.38983l-.0009-1.53197c-.00601-6.78714-.03815-12.0421-.07962-12.0837-.2392-.21906-14.16682-7.56723-17.00832-8.99397l-.23008-.1145c-.1643-.08077-.25848-.12412-.27128-.12412zm84.63763 36.50773c-.85499 0-2.41629.68985-2.99248 1.32376-.53668.58584-1.00633 1.65575-1.13574 2.52459-.02298.15423-.03523.30213-.03523.43986 0 1.65935 1.39401 3.6543 2.88096 4.08312.89217.26102 2.28618.22374 3.02966-.09322 1.57988-.65255 2.63933-2.23733 2.63933-3.9899 0-2.40512-1.93303-4.2882-4.3865-4.2882zM65.75488 65.82462c-.14975 0-.33407.09244-.39166.208-.06912.13866-.1152 3.43189-.12672 8.88594l.00048 2.13493.0002.3182.00055.6057c.00011.0976.00023.19353.00036.28784l.00089.54654c.0083 4.30754.04303 4.84194.18183 4.98117.10368.104.29951.17333.43774.15022.14325-.0221 1.86158-.85945 4.13864-1.99666l.6341-.3172c1.0774-.53976 2.25113-1.1318 3.42577-1.7277l.70413-.35764c3.8649-1.96524 7.53172-3.86728 7.57029-3.96676.04608-.104.01152-.28888-.06912-.40443-.21887-.31199-16.17341-9.34815-16.50748-9.34815zm54.25697 0c-.14975 0-3.70929 1.95283-7.91391 4.34475-4.19311 2.39193-7.83328 4.44875-8.06367 4.5643-.50686.25422-.72573.60087-.57598.8782.0576.104 2.61493 1.60617 5.67913 3.33945l.26144.14778c2.94882 1.66555 5.39728 3.00679 5.4868 3.00679.10368.01155.48382-.21955.86396-.50843.86397-.6471 2.62646-1.55995 3.68625-1.9066.44927-.13867.87549-.312.95613-.38133.1843-.13866.19583-12.9187.01151-13.26536-.0576-.1271-.23039-.21955-.39166-.21955zM93.26351 74.2137l-.42622.27733-.43775.26576-.49533-.24265-.48383-.2311.09216.47375c.08064.4391.0576.51999-.25343.83198-.42622.45065-.4147.51998.04608.51998s.57598.08089.81789.55465c.10367.19644.21887.36977.2419.36977.02305 0 .13824-.17333.24192-.36977.2419-.47376.3571-.55465.8294-.55465.46078 0 .46078-.09244.02304-.51998l-.08206-.08103c-.22332-.22796-.2451-.33611-.18289-.7625l.06912-.53154zm17.694-20.92645c-6.38183-3.77855-6.56614-3.87099-6.64678-3.1199-.0576.53154-1.23258 2.19548-2.26934 3.23545-1.01372 1.01686-2.48822 2.05683-3.67473 2.59992-.4147.19644-.76029.41599-.76029.49687l.00062 6.9672c.00393 3.57284.03093 3.94316.19521 4.05645.288.21955.44926.18489.69117-.1271.12672-.16177 3.99728-2.25326 9.34234-5.04962 5.37962-2.80791 9.1465-4.85318 9.18106-4.96873.03456-.104.03456-.26577 0-.35821-.00747-.01687-.08522-.07506-.2243-.16905l-.15921-.10573c-.8651-.56673-3.09352-1.92696-5.67576-3.45755zm-30.42308-3.29323c-.10738 0-2.99818 1.70745-5.82957 3.4133l-.58402.35235c-2.42213 1.46336-4.65441 2.83794-4.87554 3.0288-.36863.312-.19584.94753.25343.94753.09215 0 4.1355 2.18393 8.98523 4.84162 3.9404 2.16877 7.36367 4.01715 8.58302 4.63404l.16998.08507c.17748.08763.28119.13407.30134.13407.03391.00131.06586.00284.09598.00357l.05785.00007c.44384-.01286.44128-.40698.5143-5.38836.04609-3.30478.03457-5.19983-.03455-5.32694-.06912-.1271-.36863-.31199-.66813-.42754-2.40759-.88975-5.32203-3.47811-6.4279-5.68515-.21887-.4391-.36863-.61243-.54142-.61243zm18.20085-35.08156c-.48382-.31199-.80636-.34666-1.0022-.11555-.08627.10817-.12206 2.12025-.12628 7.2782l-.00043 1.09931c-.0008.31602-.00138.62822-.00175.9356l.00015 1.77863c.00455 3.22063.03187 5.56896.0592 5.6055.02304.05779.43774.28889.91004.50844 1.24411.58931 2.16567 1.25951 3.37522 2.42659 1.4745 1.43284 2.76469 3.40878 3.26003 4.99184.08064.25421.18431.5431.23039.63554.02848.05714 1.85305 1.1785 4.60288 2.83175l.4947.29717c1.5958.95782 3.46457 2.07196 5.4543 3.24954 4.29365 2.5411 8.05597 4.74186 9.73608 5.70239l.23083.1316c.14373.0817.26693.15118.36815.2076l.13516.07472c.11831.06472.18556.09912.19687.10038.1152 0 .44926-.15021.74877-.3351.31102-.18488 3.15635-1.76794 6.34726-3.53588 3.17938-1.76795 5.8404-3.29323 5.88647-3.39723.06912-.11555.04608-.42754-.06911-.82042-.26495-.91286-.26495-4.13676 0-4.84162.10367-.312.14975-.58932.09215-.68176-.0576-.104-1.62425-1.07463-3.4789-2.16082-1.86616-1.08619-10.95506-6.41313-20.20524-11.83252-9.25018-5.41938-17.01435-9.98368-17.24474-10.1339zm-10.72468-.50843c-.27646 0-46.37761 26.49605-46.81535 26.90049-.33407.31199-.33407.42754 0 .73953.13823.1271 4.34286 2.46125 9.34233 5.17672 5.62153 3.06213 9.15803 4.92252 9.27322 4.8763.10368-.03467.36863-.17333.5875-.312.21887-.13866 4.60781-2.63458 9.734-5.54649 4.73475-2.68352 8.7651-5.00394 9.46736-5.44186l.07137-.04556c.01763-.0117.02903-.01987.034-.0244.17279-.15022.2419-.34666.2419-.6471-.01151-.57775.7603-2.29948 1.60122-3.57055 1.2441-1.87194 3.34066-3.69766 5.34506-4.64518.4147-.19644.86397-.35822 1.0022-.35822.03673 0 .07125.00113.1037.00153l.04713-.00018c.3953-.01027.4513-.29989.4588-4.93927l.00088-.84719c.00005-.09913.0001-.19996.00013-.3025v-2.417c0-.12849-.00002-.25552-.00006-.38109l-.0009-1.0908c-.00606-4.43932-.04138-6.76972-.11434-6.90563-.06912-.11555-.24191-.21955-.38014-.21955zm3.5032 25.72345c-.92925.3155-1.94427 1.21893-2.41604 2.13672-1.4868 2.95411.85777 6.4675 4.14587 6.19503.47177-.04302 1.1151-.18642 1.4582-.34417.7577-.32982 1.67264-1.23327 2.08723-2.05067.42888-.84608.52896-2.29446.21444-3.24092-.28592-.87476-1.15798-1.90727-2.04434-2.42352-.85777-.50191-2.38745-.61664-3.44536-.27247zm60.28068-2.4078c-1.9437.57564-3.0914 2.09827-3.0914 4.10369 0 3.21238 3.2765 5.25493 6.12726 3.788 1.33282-.66847 2.38797-2.35822 2.38797-3.788 0-.8913-.40725-1.93115-1.07366-2.69246-1.16622-1.37408-2.73969-1.87544-4.35017-1.41122z" transform="matrix(1 0 0 -1 0 159)"/><g id="Keploy"><use fill="#3F51B5" xlink:href="#path-4"/><use fill="url(#linearGradient-2)" stroke="url(#linearGradient-3)" stroke-width="3" xlink:href="#path-4"/></g></g></svg>