<svg xmlns="http://www.w3.org/2000/svg" role="img" viewBox="125.00 34.00 949.00 1144.00"><title>Keptn logo</title><style>svg {enable-background:new 0 0 1200 1200}</style><style>.st0{fill:#006bb8}.st1{fill:#002c66}</style><path d="M868.8 179.5l-40.2-19.6-431.5 536.7 27.7 35.1c1.5 1.7 3 3.4 4.5 4.9l445.6-553.7c-2-1.3-3.9-2.5-6.1-3.4zM484.5 749.6h64.7l363.7-452.4L899 234zm250.5-635l-201.1 250-201.3 250.3 31.9 40.6 416.9-518.3zm-.4 635c14.3 0 27.9-6.6 36.8-17.7l171.9-214.1c8.9-11.3 12.6-26 9.4-39.8l-25.5-116.8-312.4 388.4h119.8zM487.7 274.4c-17.9-14.3-44-11.5-58.3 6.4-14.3 17.9-11.5 44 6.4 58.3 17.9 14.3 44 11.5 58.3-6.4 14.3-17.9 11.5-44-6.4-58.3z" class="st0"/><path d="M403.7 378.9c-39.8-32.1-46.2-90.2-14-130.2s90.2-46.2 130.2-14c11.7 9.4 20.4 20.9 26.2 33.6L688 91.8l-64-31.1c-12.8-6.2-27.9-6.2-40.9 0L336 179.5c-7.2 3.4-13.2 8.5-17.9 14.9-3.6 5.1-6.4 10.9-7.9 17l-62.8 266.8c-3.4 14 0 28.7 8.7 39.8l44 55.8L442 397.2c-13.4-3-26.6-8.9-38.3-18.3z" class="st0"/><g><path d="M326.4 999.7c0-16.2 2.4-30.5 7.3-42.7 4.9-12.3 11.2-22.4 19.2-30.5 8-8.1 17.2-14.2 27.5-18.4 10.4-4.2 20.9-6.1 31.8-6.1 25.4 0 45.2 7.9 59.4 23.7 14.2 15.7 21.4 39.3 21.4 70.7 0 2.3-.1 5-.2 8-.1 2.9-.3 5.6-.6 8H370.6c1.2 14.8 6.4 26.3 15.7 34.5 9.3 8.1 22.8 12.1 40.5 12.1 10.4 0 19.8-.9 28.4-2.8 8.6-1.9 15.4-3.9 20.4-6l5.7 34.9c-2.3 1.2-5.6 2.4-9.7 3.7-4.2 1.3-8.8 2.4-14.1 3.6-5.3 1-11 2-17.1 2.7-6.1.7-12.4 1-18.7 1-16.2 0-30.4-2.4-42.3-7.3-12-4.9-21.9-11.6-29.6-20.1-7.7-8.6-13.5-18.7-17.3-30.4-4.3-12-6.1-24.7-6.1-38.6zm124-19.1c0-5.9-.8-11.4-2.4-16.8-1.6-5.3-4-9.8-7.3-13.8-3.1-3.9-7.1-6.9-11.7-9.1-4.6-2.2-10.1-3.4-16.4-3.4-6.6 0-12.4 1.3-17.3 3.7-5 2.4-9.1 5.7-12.5 9.7-3.5 4-6 8.6-8 13.8-1.9 5.2-3.1 10.5-3.9 15.8l79.5.1zM702.1 999c0 14.1-1.9 27.1-5.4 38.9-3.7 11.8-8.9 21.9-15.7 30.4-6.8 8.4-15.4 15-25.6 19.8-10.3 4.7-21.9 7.1-34.8 7.1-8.7 0-16.8-1-24.1-3.1-7.3-2.1-13.3-4.5-18-7.1v71.7h-42.7V912.5c8.7-2.3 19.4-4.6 32.1-6.7 12.7-2.1 26.1-3.1 40.2-3.1 14.6 0 27.6 2.2 39.2 6.7 11.6 4.5 21.4 10.9 29.5 19.2 8.1 8.3 14.3 18.5 18.7 30.4 4.4 11.8 6.6 25.1 6.6 40zm-43.7.7c0-19.1-4.3-33.9-12.8-44.5-8.6-10.6-22.4-15.8-41.5-15.8-4 0-8.2.2-12.5.6-4.4.3-8.7 1.2-12.8 2.3v105.6c3.8 2.5 8.8 5 15 7.3 6.2 2.2 12.8 3.4 19.9 3.4 15.5 0 26.8-5.3 34.1-15.8 7-11.1 10.6-25.3 10.6-43.1zm83.4-142l42.7-7.1v55.7h65.7V942h-65.6v75.2c0 14.8 2.3 25.4 7.1 31.8 4.7 6.4 12.7 9.5 24.1 9.5 7.7 0 14.7-.8 20.7-2.4 6-1.6 10.8-3.1 14.3-4.6l7.1 33.9c-5 2.1-11.4 4.3-19.4 6.5s-17.5 3.4-28.2 3.4c-13.2 0-24.2-1.7-33-5.3-8.8-3.6-15.8-8.7-21-15.4s-8.8-14.8-11-24.4c-2.1-9.5-3.1-20.5-3.1-32.6V857.7h-.4zm156.8 54.8c8.2-2.3 19-4.6 32.1-6.7s27.8-3.1 43.8-3.1c15 0 27.6 2.1 37.8 6.1 10.1 4.2 18.2 9.8 24.2 17.3 6 7.4 10.3 16.3 12.7 26.8 2.4 10.5 3.7 22 3.7 34.5v103.8h-42.7v-97.1c0-9.8-.7-18.3-2-25.2-1.3-6.9-3.5-12.6-6.4-17-2.9-4.4-6.9-7.5-12-9.5s-11.2-3-18.5-3c-5.4 0-11.1.3-17 1s-10.3 1.3-13.1 1.7v149h-42.7V912.5h.1z" class="st1"/><path d="M312.2 1090.8h-50l-72-85.6v85.7H147V821l43.1-7.2v163.1c5.4-5.7 11.3-11.8 17.5-18.4 6.1-6.6 12.3-13.1 18.2-19.7 5.9-6.6 11.6-12.8 17-19 5.4-6.1 9.9-11.3 13.8-15.8h51c-11.9 13.3-24.4 27.2-37.6 41.4s-28.8 33-42.1 46.5l84.3 98.9z" class="st1"/></g></svg>