<svg viewBox="-0.22 -5.22 531.44 248.44" xmlns="http://www.w3.org/2000/svg" xmlns:xlink="http://www.w3.org/1999/xlink"><title>kops</title><defs><style>.cls-1{fill:#414042}</style><linearGradient id="linear-gradient" x1="126.222" x2="78.66" y1="174.149" y2="45.052" gradientUnits="userSpaceOnUse"><stop offset="0" stop-color="#fff"/><stop offset=".023" stop-color="#fff" stop-opacity=".929"/><stop offset=".094" stop-color="#fff" stop-opacity=".736"/><stop offset=".17" stop-color="#fff" stop-opacity=".561"/><stop offset=".251" stop-color="#fff" stop-opacity=".41"/><stop offset=".335" stop-color="#fff" stop-opacity=".282"/><stop offset=".427" stop-color="#fff" stop-opacity=".179"/><stop offset=".526" stop-color="#fff" stop-opacity=".099"/><stop offset=".639" stop-color="#fff" stop-opacity=".043"/><stop offset=".775" stop-color="#fff" stop-opacity=".01"/><stop offset="1" stop-color="#fff" stop-opacity="0"/></linearGradient><linearGradient id="linear-gradient-2" x1="143.344" x2="95.783" y1="167.829" y2="38.736" xlink:href="#linear-gradient"/><linearGradient id="linear-gradient-3" x1="152.119" x2="104.582" y1="164.576" y2="35.548" xlink:href="#linear-gradient"/></defs><path d="M209.419 164.922a11.576 11.576 0 0 0-15.33-4.416L178.27 142.67a71.607 71.607 0 0 0 .128-46.097l13.398-15.86a11.44 11.44 0 0 0 10.276-.659 11.589 11.589 0 1 0-17.326-11.36L164.66 72.54a71.654 71.654 0 0 0-40.873-23.526l-7.623-22.146A11.577 11.577 0 1 0 99.73 23.11a11.006 11.006 0 0 0 3.238 3.524l-7.644 22.762A71.511 71.511 0 0 0 55.8 73.134l-22.485-4.205a11.58 11.58 0 1 0-7.135 11.423l15.777 18.07a71.824 71.824 0 0 0 .764 44.312l-16.2 18.961a11.598 11.598 0 1 0 6.603 11.275l24.789-4.863a71.693 71.693 0 0 0 37.444 21.382l8.09 22.995a11.575 11.575 0 1 0 17.092 3.249 11.878 11.878 0 0 0-3.185-3.503l7.719-22.635a71.592 71.592 0 0 0 38.187-21.7l24.747 4.778a10.999 10.999 0 0 0 1.39 3.948 11.595 11.595 0 1 0 20.023-11.699zm-98.945 7.198a52.7 52.7 0 1 1 52.7-52.699 52.693 52.693 0 0 1-52.7 52.7z" class="cls-1"/><path d="M100.622 123.498a14.5 14.5 0 0 1-.7-5.107 12.442 12.442 0 0 1 1.539-4.957 14.602 14.602 0 0 1 3.153-4.056l29.47-25.267a42.476 42.476 0 0 0-65.332 43.356 32.84 32.84 0 0 0 1.337 5.14c.064.19.127.382.202.573.116.34.244.7.371 1.062.468 1.19.935 2.356 1.465 3.504l.043-.023a42.004 42.004 0 0 0 18.398 19.237 4.762 4.762 0 0 1 .478.234c.489.255.977.488 1.465.721.34.149.68.298.998.447a4.229 4.229 0 0 1 .446.211v-.02a42.316 42.316 0 0 0 24.577 2.59 43.325 43.325 0 0 0 11.476-3.971l-25.692-27.666a14.653 14.653 0 0 1-3.694-6.008z" class="cls-1"/><path fill="#27aae1" d="M144.606 94.112l-25.002 20.575c-.923.742-1.784 1.464-2.59 2.25a3.592 3.592 0 0 0-1.062 2.484 5.102 5.102 0 0 0 .977 3.588 48.577 48.577 0 0 0 2.739 3.207l21.742 22.336a42.505 42.505 0 0 0 10.786-37.157 42.046 42.046 0 0 0-7.59-17.283z"/><path d="M258.679 119.697l20.34-22.443h21.647l-23.6 26.094L302.1 159.72h-20.861l-16.306-23.206H254.9v23.206h-18.123V67.146H254.9v52.551zm105.654-15.925c6.39 6.136 9.65 14.226 9.65 24.27 0 10.17-3.26 18.365-9.65 24.629s-14.863 9.385-25.426 9.385c-10.564 0-19.036-3.121-25.554-9.385s-9.778-14.46-9.778-24.629c0-10.044 3.26-18.134 9.64-24.27 6.529-6.114 15.128-9.257 25.692-9.257 10.563 0 19.034 3.143 25.426 9.257zm-25.426 6.922c-10.299 0-17.348 6.9-17.348 17.348 0 10.552 7.05 17.855 17.348 17.855 10.297 0 17.209-7.303 17.209-17.855 0-10.447-6.912-17.348-17.21-17.348zm115.56 17.475c0 9.64-2.867 17.474-8.473 23.462-5.605 5.86-12.909 8.874-21.647 8.874-7.431 0-13.557-.275-18.642-.785v30.109h-18.122V98.316c15.51-1.975 27.38-3.016 35.586-3.016 19.694 0 30.778 12.655 31.298 32.869zm-17.603.51c0-12.252-5.478-18.388-16.561-18.388-4.173 0-8.993.276-14.598.785v33.25a110.604 110.604 0 0 0 15.776 1.04c8.992 0 15.383-7.302 15.383-16.688zm31.743 13.036c9.512 3.652 17.985 5.478 25.289 5.478 7.166 0 10.69-1.55 10.69-4.819 0-2.868-2.738-4.31-6.911-5.224a54.26 54.26 0 0 0-6.391-1.295l-3.386-.657c-14.725-2.74-21.52-8.217-21.52-18.771 0-13.037 10.563-20.85 27.379-20.85a72.725 72.725 0 0 1 26.212 4.692l-4.044 13.674c-10.033-2.867-17.603-4.29-22.815-4.29-5.733 0-8.992 2.081-8.992 5.352 0 2.866 2.08 3.907 5.733 5.075 2.218.53 3.259.657 6.401 1.295l3.641.657c15.246 3.121 21.638 7.56 21.638 18.643 0 13.95-10.946 21-28.294 21a76.33 76.33 0 0 1-28.293-5.479z" class="cls-1"/><path fill="url(#linear-gradient)" d="M104.231 129.527a14.717 14.717 0 0 1-3.694-6.03 14.377 14.377 0 0 1-.7-5.095 12.354 12.354 0 0 1 1.538-4.947 14.016 14.016 0 0 1 3.154-4.056l29.47-25.267a42.477 42.477 0 0 0-65.333 43.358 32.91 32.91 0 0 0 1.338 5.139c.064.168.128.38.202.572.117.34.244.702.371 1.04a59.024 59.024 0 0 0 1.465 3.526l.043-.044c.403.85.977 1.762 1.486 2.655a230.765 230.765 0 0 0 34.801-6.391z"/><path fill="url(#linear-gradient-2)" d="M178.44 97.063c-.063-.149-.074-.319-.127-.489l13.398-15.84c.117.044.255.065.371.107a71.433 71.433 0 0 0 9.375-20.83 11.395 11.395 0 0 0-11.18.043 11.618 11.618 0 0 0-5.615 8.663l-20.087 3.843a71.568 71.568 0 0 0-40.873-23.547l-7.623-22.125a11.585 11.585 0 1 0-16.434-3.78 11.315 11.315 0 0 0 3.238 3.547l-7.644 22.74a71.421 71.421 0 0 0-39.524 23.76L33.229 68.95a11.572 11.572 0 1 0-7.134 11.423L41.87 98.421a71.396 71.396 0 0 0 .53 43.423c1.253.02 2.474.126 3.737.126 5.574 0 11.063-.192 16.498-.552a52.158 52.158 0 0 1-4.947-21.976 52.644 52.644 0 0 1 104.466-9.342 123.808 123.808 0 0 0 16.285-13.037z"/><path fill="url(#linear-gradient-3)" d="M144.52 94.133l-25 20.575a35.734 35.734 0 0 0-2.591 2.229 3.644 3.644 0 0 0-1.062 2.505 5.032 5.032 0 0 0 .977 3.567 39.266 39.266 0 0 0 2.739 3.207l3.227 3.31a175.24 175.24 0 0 0 29.896-13.544 43.724 43.724 0 0 0-.595-4.587 41.963 41.963 0 0 0-7.59-17.262z"/></svg>