<svg xmlns="http://www.w3.org/2000/svg" role="img" viewBox="-3.67 -5.92 308.10 91.10"><title>Koyeb logo</title><g fill="#121212" clip-path="url(#clip0)"><path d="M127.021 44.281l15.412-20.2314h-9.461l-14.281 18.3868V24.0496h-8.212v41.6529h8.212V46.1851l14.876 19.5174h9.461L127.021 44.281zm48.336 17.7322c3.035-3.0347 4.582-6.7834 4.582-11.1868 0-4.4033-1.547-8.0925-4.582-11.1272-3.034-3.0347-6.783-4.5818-11.186-4.5818-4.404 0-8.152 1.5471-11.187 4.5818-3.035 3.0347-4.522 6.7239-4.522 11.1272 0 4.4034 1.487 8.1521 4.522 11.1868 3.035 3.0347 6.783 4.5223 11.187 4.5223 4.403 0 8.152-1.4876 11.186-4.5223zm-16.958-5.2958c-1.488-1.5472-2.261-3.5108-2.261-5.891 0-2.3801.773-4.3438 2.261-5.8909 1.547-1.5471 3.451-2.3206 5.772-2.3206 2.32 0 4.224.7735 5.772 2.3206 1.547 1.5471 2.32 3.5108 2.32 5.8909 0 2.3802-.773 4.3438-2.32 5.891-1.548 1.5471-3.452 2.3206-5.772 2.3206-2.321 0-4.225-.7735-5.772-2.3206zm44.522-.7736l-7.736-19.9934h-8.39l12.198 28.8c-1.428 4.0463-3.689 5.7719-7.795 5.7124v7.1405c7.617.4165 12.615-3.3322 15.71-11.9008l10.829-29.7521h-8.211l-6.605 19.9934zm52.176-1.9636c.178-1.1306.297-2.1422.297-3.1538 0-4.4628-1.428-8.152-4.284-11.1867-2.797-3.0347-6.426-4.5223-10.769-4.5223-4.582 0-8.39 1.4876-11.306 4.5223-2.916 2.9752-4.403 6.7239-4.403 11.1867 0 4.5224 1.487 8.2711 4.462 11.2463 2.976 2.9752 6.903 4.4628 11.842 4.4628 5.712 0 10.055-2.1421 12.971-6.3669l-6.188-3.5703c-1.487 1.9637-3.749 2.9753-6.664 2.9753-4.582 0-7.379-1.8447-8.39-5.5934h22.432zm-22.551-5.9504c.892-3.8083 3.689-6.01 7.795-6.01 3.51 0 6.486 1.9637 7.378 6.01h-15.173zm51.475-12.9124c-4.166 0-7.379 1.4281-9.64 4.3438V24.0496h-7.676v41.6529h7.676v-3.5108c2.261 2.9157 5.474 4.3438 9.64 4.3438 3.986 0 7.438-1.4876 10.234-4.5223 2.857-3.0347 4.285-6.7834 4.285-11.1868 0-4.4033-1.428-8.0925-4.285-11.1272-2.796-3.0347-6.248-4.5818-10.234-4.5818zm-7.319 21.7785c-1.547-1.6066-2.321-3.6298-2.321-6.0695 0-2.4396.774-4.4628 2.321-6.0099 1.547-1.6066 3.51-2.3801 5.891-2.3801 2.38 0 4.343.7735 5.89 2.3801 1.607 1.5471 2.381 3.5703 2.381 6.0099 0 2.4397-.774 4.4629-2.381 6.0695-1.547 1.5471-3.51 2.3206-5.89 2.3206-2.381 0-4.344-.7735-5.891-2.3206zM42.5075 19.2836L82.5873 42.361V23.1031L42.482 0 2.47934 23.1288v19.2835L42.5075 19.2836z"/><path d="M76.1764 65.5686l6.4109-3.7703V49.9765L42.482 26.8478 2.47934 49.9765v11.8731l6.41075 3.719L42.482 46.1313l33.6944 19.4373z"/><path d="M42.5078 73.4665l10.1791 5.8723 16.7202-9.6171L42.4822 54.183 15.6599 69.7217l16.718 9.6171 10.1299-5.8723z"/></g><defs><clipPath id="clip0"><path fill="#fff" d="M0 0h300v79.339H0z"/></clipPath></defs></svg>