<svg xmlns="http://www.w3.org/2000/svg" role="img" viewBox="-4.35 -3.60 368.20 447.20"><title>Kraken logo</title><circle cx="179.76" cy="180.5" r="175.5"/><path fill="#fff" d="M94.935 211.213c10.969 0 20.475-8.775 20.475-21.938v-51.187h12.431v81.9h-12.43v-8.044q-8.776 8.775-21.938 8.775c-17.55 1.462-30.713-10.969-30.713-30.713V138.82h12.432v51.187a19.613 19.613 0 0 0 19.743 21.207m41.682-72.394h11.7v29.98c5.118-5.85 13.162-8.775 21.206-8.775a31.444 31.444 0 1 1 0 62.888c-8.044 0-16.088-2.925-21.206-8.775v7.312h-11.7v-82.631zm32.175 73.125c10.968 0 20.475-9.506 20.475-21.206s-9.507-21.207-20.475-21.207-20.475 9.506-20.475 21.206 9.506 21.207 20.475 21.207m68.006-51.919c17.55 0 29.981 13.162 29.981 31.444v3.656h-48.994a19.767 19.767 0 0 0 19.744 16.819 21.808 21.808 0 0 0 17.55-8.775l8.775 6.581a30.847 30.847 0 0 1-25.594 13.162c-17.55 0-32.175-13.162-32.175-31.443 0-17.55 13.163-31.444 30.713-31.444m-18.281 25.594h36.562c-2.194-9.506-9.506-15.356-18.281-15.356s-16.088 5.85-18.281 15.356m80.437-13.894c-8.044 0-13.162 5.85-13.162 15.356v33.638h-11.7v-59.963h11.7v7.313c2.925-5.119 8.043-8.044 14.625-8.044h3.656v10.969h-5.119z"/><path d="M49.57 375.843h11.914v23.88l22.393-23.88h15.65L75.741 399.68l25.004 34.12H85.174l-17.857-25.299-5.833 5.915v19.385H49.57zm80.863 14.095c.143.014.465.034.963.06v11.481q-1.062-.118-1.887-.157-.826-.04-1.337-.039-6.764 0-9.083 4.404-1.298 2.477-1.298 7.627v20.487h-11.285v-42.86h10.695v7.471a23.716 23.716 0 0 1 4.522-5.858 12.31 12.31 0 0 1 8.179-2.635c.21 0 .386.007.53.02zm24.505 17.793a17.692 17.692 0 0 0 4.476-.983 3.371 3.371 0 0 0 2.416-3.185 3.765 3.765 0 0 0-1.853-3.636 11.708 11.708 0 0 0-5.44-1.003q-4.026 0-5.7 1.966a8.102 8.102 0 0 0-1.595 3.931H136.43a16.395 16.395 0 0 1 3.16-9.24q4.461-5.662 15.322-5.662a27.32 27.32 0 0 1 12.558 2.792q5.489 2.792 5.489 10.538v19.66q0 2.045.078 4.954a6.221 6.221 0 0 0 .669 2.989 4.016 4.016 0 0 0 1.651 1.297v1.652h-12.189a12.441 12.441 0 0 1-.708-2.438q-.197-1.14-.314-2.595a23.147 23.147 0 0 1-5.38 4.286 16.26 16.26 0 0 1-8.226 2.084 14.196 14.196 0 0 1-9.67-3.323q-3.816-3.322-3.816-9.418 0-7.902 6.14-11.441 3.367-1.926 9.903-2.753zm6.852 5.23a12.395 12.395 0 0 1-2.172 1.081 18.303 18.303 0 0 1-3.01.767l-2.55.472a16.776 16.776 0 0 0-5.152 1.533 5.119 5.119 0 0 0-2.647 4.758 4.97 4.97 0 0 0 1.617 4.149 6.147 6.147 0 0 0 3.933 1.277 11.708 11.708 0 0 0 6.767-2.123q3.095-2.123 3.214-7.746zm20.84-36.921h11.01v31.265l14.135-16.167h13.936l-15.363 15.966 15.957 26.697h-13.639l-10.384-18.312-4.641 4.824v13.488h-11.01zm72.833 15.77a17.439 17.439 0 0 1 7.406 6.34 21.049 21.049 0 0 1 3.414 8.86 54.566 54.566 0 0 1 .37 8.507h-31.216q.261 6.45 4.483 9.044a11.378 11.378 0 0 0 6.179 1.612 8.703 8.703 0 0 0 8.528-4.915h11.441q-.452 3.814-4.154 7.746-5.76 6.252-16.125 6.252a23.36 23.36 0 0 1-15.096-5.274q-6.542-5.273-6.54-17.159 0-11.135 5.904-17.079 5.903-5.943 15.326-5.942a24.403 24.403 0 0 1 10.08 2.008zm-16.765 9.68a11.642 11.642 0 0 0-2.985 6.635h19.307a9.35 9.35 0 0 0-2.986-6.772 9.818 9.818 0 0 0-6.646-2.311 8.89 8.89 0 0 0-6.69 2.448zm68.182-8.09q4.21 3.478 4.21 11.54v28.86h-11.48v-26.069a11.972 11.972 0 0 0-.9-5.19q-1.64-3.303-6.244-3.303-5.66 0-7.768 4.836a16.729 16.729 0 0 0-1.093 6.528V433.8h-11.207v-42.78h10.854v6.252a18.966 18.966 0 0 1 4.072-4.758 14.103 14.103 0 0 1 8.73-2.596 16.426 16.426 0 0 1 10.827 3.48z"/></svg>