<svg xmlns="http://www.w3.org/2000/svg" role="img" viewBox="47.64 68.64 1994.72 1145.72"><title>Kuasar logo</title><path fill="#316de5" d="M286.87 937.16l-122.95 93.33h-2.7v-93.33H86.69v239.28h74.53v-92.91h2.7l122.57 92.91h96.19l-147.3-119.49 147.99-119.79h-96.5zm346.76 186.23H524.26c-11.53 0-20.31-2.61-26.4-7.74s-9.15-12.66-9.15-22.69995V937.16h-74.53v160.99994q0 18.83 7.11 33.58a69.72018 69.72018 0 0 0 19.84 24.59q12.69 9.89008 30.62 15.07a145.69813 145.69813 0 0 0 39.31 5h197.1V937.16h-74.53zm203.15-186.23l-95.49 239.28h74.16l71.46-181.32 50.79 128.27h-71.07l-16.98 53.05h183.54l-95.81-239.28h-100.6zm289.89 4.61a93.53018 93.53018 0 0 0-29.44995 13.07 70.32967 70.32967 0 0 0-20.49 21.24 75.5794 75.5794 0 0 0-10.37 29.19v10.15a67.76048 67.76048 0 0 0 9.67 29.18995 71.26138 71.26138 0 0 0 21 21.45 96.29732 96.29732 0 0 0 30 13.07995 146.6721 146.6721 0 0 0 36.89 4.39h94.18994a48.70982 48.70982 0 0 1 18.57995 6 14.72012 14.72012 0 0 1 7.81006 13.6 15.59043 15.59043 0 0 1-2.68994 9.1 21.51945 21.51945 0 0 1-7.49 6.28 44.74014 44.74014 0 0 1-11 3.66 65.40517 65.40517 0 0 1-13 1.25H1066.36v53h196.46a143.07245 143.07245 0 0 0 37.22-4.5 94.12936 94.12936 0 0 0 29.45-13.18994 70.32933 70.32933 0 0 0 20.5-21.23 74.52 74.52 0 0 0 10.36-29.18994v-10.15a73.73966 73.73966 0 0 0-9.85-29.18994 67.83085 67.83085 0 0 0-20.63-21.24 96.75037 96.75037 0 0 0-29.83-13 148.22819 148.22819 0 0 0-37.22-4.29h-94.51a41.52927 41.52927 0 0 1-18.45-6 15.73 15.73 0 0 1-7.62-14 15.53 15.53 0 0 1 2.69995-9.1 21.40009 21.40009 0 0 1 7.48-6.28 44.62019 44.62019 0 0 1 11-3.66 75.89587 75.89587 0 0 1 13.06006-1.15h183.91V937.16h-196.5a142.99928 142.99928 0 0 0-37.22 4.61m353.55999-4.61l-95.49 239.28h74.16l71.46-181.32 50.79 128.27h-71l-17.05 53.05h183.54l-95.81-239.28h-100.6zm418.93 146.37q46.68989 0 73.78-17.15t30.86-51v-10.15a75.57941 75.57941 0 0 0-10.37-29.19 70.32978 70.32978 0 0 0-20.49-21.24c-8.31006-5.75-18.16-10-29.46-13.07a142.80963 142.80963 0 0 0-37.21-4.61h-196.45994v53.15h183.91a74.87272 74.87272 0 0 1 13 1.15 44.31856 44.31856 0 0 1 11 3.66 21.40009 21.40009 0 0 1 7.48 6.28 15.53 15.53 0 0 1 2.69995 9.1c0 7-3.39 12-10.18 15.17s-14.77 4.81995-24 4.81995h-183.90995v146h74.53v-92.91h20.31006l109 92.91h91.43994zM814.79 528.34l38.09-169.86-121.53-96.15-67.5 301.07 150.94-35.06zm249.19-419.82v148.7l157.49 75.1 116.11-93.33-273.6-130.47zM937.59 697.94L829.3 563.22 671.42 599.9l187.84 233.71 78.33-135.67zm-61.33-368.46l150.46-73.17v-149.4l-267.4 130.04 116.94 92.53zm362.33 36.88l28.58 123.05 160.82 76.69-68.89-296.6-120.51 96.86zm39.36 169.47l.9 3.87-123.7 156.35 78.42 135.84 182.23-230.32-137.85-65.74zm-161.92 167l-138.54.53-86.09 149.11 310.34-1.19-85.71-148.45zm-70.11-378.7l40.36 130.44 130.44 40.36-130.44 40.36-40.36 130.45-40.36-130.45-130.44-40.36 130.44-40.36 40.36-130.44z"/></svg>