<svg xmlns="http://www.w3.org/2000/svg" role="img" viewBox="-6.28 43.72 950.56 406.56"><title>Kube-OVN logo</title><defs><style>.cls-1{fill:#3baee4}.cls-2{fill:#fff}.cls-2,.cls-3{fill-rule:evenodd}</style></defs><path d="M487.54 351.7c-55.48-26.55-136.2 16.57-139.3 18.25-14 7.19-25.1 9.41-29.71 5.89-4.4-3.36-8.09-12.08-8.12-22.16h-.06l.06-.88c0-1.21.11-2.44.25-3.68l3.4-51.57v-61.32a17.06 17.06 0 0 0-.53-4.07 150.8 150.8 0 0 0-300.63.1 17 17 0 0 0-.53 4.05v98.07a17.5 17.5 0 0 0 35 0v-28.59a15 15 0 0 1 15-15H63a15 15 0 0 1 15 15V385a17.5 17.5 0 0 0 35 0v-78.2a16 16 0 0 1 16-16h.73a16 16 0 0 1 16 16V415a17.54 17.54 0 0 0 17.5 17.5 17.55 17.55 0 0 0 17.5-17.5v-72.66s-.38-4.76-.47-5.6a14.36 14.36 0 0 1-.08-1.48v-28.45a16 16 0 0 1 16-16h.72a16 16 0 0 1 16 16v28.45a14.2 14.2 0 0 1-.1 1.61c-.08.72-.39 6.56-.39 6.56V385a17.5 17.5 0 0 0 35 0v-39.08s-.59-9.24-.59-10.66v-28.45a16 16 0 0 1 16-16h.72a16 16 0 0 1 16 16v28l-.09 1.41c0 .26-.06.53-.08.79a.29.29 0 0 0 0 .09c-1.28 21.36 1.1 49.79 19.83 64.09a40.33 40.33 0 0 0 25.17 8.19q16.88 0 38.75-11.22c19.26-10.44 76.69-34 110.67-17.69a15.93 15.93 0 1 0 13.76-28.73z" class="cls-1"/><path d="M115.21 197.51c-2.89 22.31 21.41 37.64 41.71 33.08 23.37-5.24 27.4-40 10.47-54.21-12.79-10.71-30.87-10.28-42.41 2.06-6 6.35-9 12.87-9.77 19.07z" class="cls-2"/><path d="M145 212.91c5.48 1 9.41-6.19 5.36-10.24-3.24-3.24-8.93-2.91-10 1.64-.91 3.79.41 7.86 4.67 8.6z" class="cls-3"/><path d="M189.5 202.54c-2.3 17.79 17.08 30 33.28 26.39 18.65-4.18 21.86-31.93 8.36-43.25-10.21-8.55-24.63-8.21-33.84 1.64-4.75 5.06-7.16 10.27-7.8 15.22z" class="cls-2"/><path d="M210.13 212.25c4.37.77 7.51-4.94 4.28-8.17-2.59-2.59-7.13-2.32-8 1.31-.73 3 .32 6.27 3.72 6.86z" class="cls-3"/><rect width="14.67" height="35.63" x="149.42" y="75.67" class="cls-1" rx="7.34" ry="7.34"/><circle cx="156.75" cy="74.76" r="12.64" class="cls-1"/><path fill="#333" d="M673.49 286.24v-.66a.5.5 0 0 1 0-.12 8.41 8.41 0 0 0-6.47-7.4 3.58 3.58 0 0 0-.45-.09 7.71 7.71 0 0 0-1.87-.12l-36.72 2a8.38 8.38 0 1 0 .89 16.74l36.73-2a8.4 8.4 0 0 0 7.92-8.07 2.61 2.61 0 0 0-.03-.28zm-125.91-8.69a34.52 34.52 0 0 0-4.33-12.44 18.87 18.87 0 0 0-5.79-6.06 21.89 21.89 0 0 0-7.58-3.19 27.2 27.2 0 0 0-8.32-.47 24.34 24.34 0 0 0-8 2.13c-.89.45-1.75.87-2.59 1.26s-1.67.83-2.47 1.27c.18-3.9.29-7.19.34-9.85s0-5 0-7c0-.8-.05-1.56-.1-2.28v-7.28a8.6 8.6 0 0 0-17.2 0v7.59c-.12 15.22-.39 51.36-.06 54a1.29 1.29 0 0 0 .08.28c.56 8.66 4.68 25 28.31 21.78h.18c1-.12 2-.28 3-.47a24.28 24.28 0 0 0 6.65-1.88c1.1-.4 2.19-.85 3.26-1.35a21.7 21.7 0 0 0 9.92-8.92 37.07 37.07 0 0 0 4.66-13 44.52 44.52 0 0 0 .04-14.12zM522 300.74c-6.81 0-12.33-6.7-12.33-15s5.52-15 12.33-15 12.32 6.7 12.32 15-5.48 15-12.32 15zm92.17-2.57a7.79 7.79 0 0 0-9.51-2.81 7.93 7.93 0 0 0-1.25.67l-.66.45a88.22 88.22 0 0 1-8.38 4.35 30.56 30.56 0 0 1-6.53 1.66 20.07 20.07 0 0 1-7.52-.33 12.18 12.18 0 0 1-6.39-4.06q4.13-1.32 8.58-2.39a82.64 82.64 0 0 0 8.72-2.6 68.78 68.78 0 0 0 8.25-3.59 29.56 29.56 0 0 0 7.32-5.39 15.09 15.09 0 0 0 4.33-7.65 18.27 18.27 0 0 0-.2-8.32 20.2 20.2 0 0 0-3.93-7.66 19.43 19.43 0 0 0-6.85-5.39 22.84 22.84 0 0 0-11-1.93c-1.24.07-2.47.2-3.7.38-18.55 1.92-25.66 12.48-28.4 20.43a32.41 32.41 0 0 0-1.32 5.22c-1.28 6.64-2.08 18.26 5.1 26.78a32.08 32.08 0 0 0 8.18 8.06 25.63 25.63 0 0 0 9.58 3.86 32.6 32.6 0 0 0 11 0 66.8 66.8 0 0 0 12.38-3.32 44.42 44.42 0 0 0 5.72-2.53l.84-.48c4.24-2.42 5.08-3.94 5.08-3.94a7.78 7.78 0 0 0 .56-9.47zm-31.63-29.87c5-2.14 10.17-1.16 11.61 2.18s-1.44 7.79-6.41 9.92-10.18 1.17-11.62-2.17 1.44-7.79 6.42-9.93zm-119.48 43.54s6.64 9.26 17.36-.18l2.84-2.84a7 7 0 0 0-9.08-10.54c-.2-.53-.39-1.07-.55-1.63a42.12 42.12 0 0 1-1.53-8 63.19 63.19 0 0 1-.27-8.25q.14-4.12.4-7.85c.09-1.33.24-2.77.46-4.33a32.66 32.66 0 0 0 .34-4.59 13.48 13.48 0 0 0-.67-4.26c0-.05-.05-.11-.07-.17a8.21 8.21 0 0 0-16.29 1.66v22.99c.06 3.62.06 7.42-.14 9.68a10.72 10.72 0 0 1-20.92-3.33v-11.29c0-1.37.11-2.74.23-4.12a110.51 110.51 0 0 0 .34-13.71c0-.17-.05-.33-.07-.49a8 8 0 0 0-16 .41v.91a23.3 23.3 0 0 0-.2 3.1c0 1.11-.05 2.24-.13 3.39-.09 1.51-.18 2.95-.27 4.33s-.13 2.77-.13 4.19q-.14 6.12.2 12.91a29.3 29.3 0 0 0 3.26 12.38 28.46 28.46 0 0 0 7.85 9.51 22.91 22.91 0 0 0 10 4.46 23.27 23.27 0 0 0 10.85-.73 31 31 0 0 0 10.6-5.83zm300.25-52.56a34.66 34.66 0 0 0-2.94-9.77 33.51 33.51 0 0 0-5.73-8.58 31.45 31.45 0 0 0-5.68-5 49.46 49.46 0 0 0-6.6-3.71 33.61 33.61 0 0 0-9.09-2.74 42.31 42.31 0 0 0-9.46-.37 37.88 37.88 0 0 0-16.71 5.56 47.94 47.94 0 0 0-12.89 11.73 55.55 55.55 0 0 0-8.32 15.72 56.58 56.58 0 0 0-3.13 17.35 57.88 57.88 0 0 0 .82 10.3 40.72 40.72 0 0 0 3.1 10.26 32.4 32.4 0 0 0 5.78 8.77 23.87 23.87 0 0 0 8.85 6 30.34 30.34 0 0 0 6.08 2.79 54.2 54.2 0 0 0 8.72 1.83 33.09 33.09 0 0 0 15.63-2 41.27 41.27 0 0 0 12.59-7.89 55.34 55.34 0 0 0 9.75-11.83 94.7 94.7 0 0 0 5.52-10.24l2.35-6.78q1-4.49 1.51-9a50 50 0 0 0-.15-12.4zm-21.43 20.38c-4 12.27-15.51 19.52-25.79 16.2s-15.4-16-11.44-28.24 15.52-19.52 25.8-16.2 15.4 15.97 11.43 28.24zm98.38-50.43A7.72 7.72 0 0 0 830 233l-23.18 50-19.3-47.84a7.69 7.69 0 0 0-14.27 5.75l18.65 46.23 7.78 20.62a6.89 6.89 0 0 0 .4 1.07 7.33 7.33 0 0 0 6.58 4.2h.53a6.85 6.85 0 0 0 2.19-.45 5.94 5.94 0 0 0 1.69-1 7.43 7.43 0 0 0 2.55-3.56c.19-.4.37-.82.54-1.25l20.36-47 9.48-20.32a7.72 7.72 0 0 0-3.74-10.22zm77.4-5.89h-.37a8.62 8.62 0 0 0-8.81 8.37l-1.28 50.58q-2.85-4.12-5.83-8.26l-.72-1-2.1-2.63-29.3-40.21a8.77 8.77 0 0 0-15.58 5.54v78.79a8.79 8.79 0 0 0 17.57 0v-51l10.95 15.28 25.53 37.85a8.56 8.56 0 0 0 7.11 4.16h.37a8.62 8.62 0 0 0 8.81-8.38l.43-17.29q.46-10.94.75-21.84.21-9.12.26-18.25l.58-22.89a8.61 8.61 0 0 0-8.37-8.82zM409.4 302.67c-6.7-8.31-19.15-20.13-20-20.95s-1.74-1.85-2.59-2.77l-6.53-7.05c3.11-2.88 5.19-4.93 5.19-4.93 1.87-1.68 3.68-3.44 5.46-5.26s3.46-3.68 5.06-5.59c.34-.41.68-.82 1-1.23 7.38-8.16 8.41-12 8.41-12a8 8 0 0 0-11.7-10.3L363.24 262c0-3.74 0-7.44.12-11.08V236.2a8.13 8.13 0 0 0-16.26 0v12.64q-.06 4.22 0 7.74c0 2.39.07 3.72.07 4v27.82c0 .53 0 2-.07 4.32s0 4.91.07 7.66c0 .83.06 1.63.1 2.44l.27 10.41v.19a1.28 1.28 0 0 0 0 .19v.33a8 8 0 0 0 15.89.57v-9.1q-.19-5.3-.3-10.56c-.06-2.86-.09-5.73-.11-8.61a93.05 93.05 0 0 0 5.05-3.81l10.23 10.89q6.12 6.53 12.38 13.31c.44.45 1 1 1.6 1.8l1.92 2.33c.67.8 1.38 1.57 2.13 2.33a21.37 21.37 0 0 0 2.2 1.92 7.46 7.46 0 0 0 4.86 1.6 7.8 7.8 0 0 0 2.42-.51 7.94 7.94 0 0 0 3.46-2 8.09 8.09 0 0 0 .13-11.43z"/></svg>