<svg xmlns="http://www.w3.org/2000/svg" role="img" xmlns:xlink="http://www.w3.org/1999/xlink" viewBox="-7.76 -7.76 403.52 291.52"><title>Kubescape logo</title><defs><linearGradient id="linear-gradient" x1="186.67" x2="261.04" y1="116.84" y2="116.84" gradientUnits="userSpaceOnUse"><stop offset="0" stop-color="#ff7879"/><stop offset=".21" stop-color="#fb767a"/><stop offset=".36" stop-color="#f27280"/><stop offset=".5" stop-color="#e26a8a"/><stop offset=".63" stop-color="#cb6098"/><stop offset=".75" stop-color="#ad52aa"/><stop offset=".86" stop-color="#8941c0"/><stop offset=".98" stop-color="#5f2dd9"/><stop offset="1" stop-color="#5529e0"/></linearGradient><linearGradient id="linear-gradient-2" x1="226.37" x2="261.06" y1="124.77" y2="124.77" xlink:href="#linear-gradient"/><style>.cls-4{isolation:isolate}.cls-5{fill:#2916fc}</style></defs><path fill="url(#linear-gradient)" d="M261.04 95.05l-33.13 57.36c-.44.76-.95 1.45-1.54 2.08H208.4l-16.77-29.05-4.96-8.61 8.5-14.72 6.96-12.07 6.27-10.85h43.48l9.16 15.86z"/><path d="M266.82 85.03l-5.78 10.02-9.16-15.86H208.4l-6.27 10.85-6.96 12.07-8.5 14.72 4.96 8.61 16.77 29.05h17.97c-2.19 2.39-5.31 3.8-8.64 3.8h-77.81c-4.2 0-8.08-2.24-10.18-5.88l-38.9-67.38c-2.1-3.64-2.1-8.13 0-11.77l38.9-67.38c2.1-3.63 5.98-5.88 10.18-5.88h77.81c4.2 0 8.08 2.25 10.18 5.88l38.91 67.38c2.1 3.64 2.1 8.13 0 11.77z" class="cls-5"/><path fill="#fff" d="M169.48 39.33h-13.8c-2.05 0-3.7 1.65-3.7 3.7v72.24c0 2.04 1.65 3.69 3.7 3.69h13.8c.21 0 .42-.02.62-.05 1.74-.29 3.08-1.81 3.08-3.64V43.03c0-2.05-1.66-3.7-3.7-3.7zm23.31 33.58l1.24-1.83 2.09-3.11 15.42-22.88c1.66-2.45-.1-5.76-3.06-5.76h-13.13c-1.27 0-2.45.65-3.12 1.72l-19.05 30.03-2.3 3.63c-.72 1.15-.76 2.59-.11 3.78l2.41 4.35 6.88 12.42 9.34 16.85 5.77-10 6.13-10.61-8.63-14.64c-.49-.82-.63-1.78-.43-2.69.1-.44.29-.87.55-1.26z"/><path fill="#000d33" d="M289.62 112.26c-.32-1.02-.75-2.01-1.3-2.96l-22.56-39.08c-.67-1.15-1.48-2.21-2.42-3.14-2.79-2.77-6.61-4.39-10.64-4.39h-45.13c-4.43 0-8.62 1.97-11.45 5.28-.6.7-1.13 1.44-1.6 2.25l-.49.86-1.79 3.09-6.7 11.61-5.48 9.48-6.88 11.93-1.22 2.11c-.04.08-.08.15-.12.23-1.61 2.88-2.19 6.19-1.74 9.38.25 1.9.88 3.76 1.86 5.47l22.56 39.07c2.69 4.65 7.69 7.54 13.05 7.54h45.13c.5 0 .99-.02 1.47-.07l16.03 25.61c1.89 3.02 5.92 3.93 8.93 2.05l.97-.61c3.03-1.89 3.95-5.91 2.07-8.92l-16.23-25.92 22.38-38.75c2.13-3.71 2.57-8.13 1.3-12.12zm-20.92 13.09l-16.82 29.14H208.4l-16.76-29.05-4.97-8.61 2.73-4.72 5.77-10 6.13-10.61.84-1.46 6.26-10.85h43.48l9.18 15.89 12.55 21.75-4.91 8.52z"/><path fill="#fff" d="M211.02 118.96h-15.64c-1.35 0-2.58-.73-3.24-1.9l-2.74-4.95 5.77-10 6.13-10.61 12.9 21.89c1.46 2.46-.32 5.57-3.18 5.57z" opacity=".76"/><path fill="url(#linear-gradient-2)" d="M261.06 95.09l-34.31 59.4h-.38c.59-.63 1.1-1.32 1.54-2.08l33.13-57.36.02.04z"/><g class="cls-4"><path d="M.54 261.22c-.36-.36-.54-.79-.54-1.3v-49.74c0-.56.17-1.02.5-1.38.33-.36.78-.54 1.34-.54h6.72c.56 0 1.02.18 1.38.54.36.36.53.82.53 1.38v17.88l17.27-18.42c.66-.92 1.65-1.38 2.98-1.38h7.56c.41 0 .78.15 1.11.46.33.31.5.69.5 1.15 0 .36-.1.66-.31.92l-21.01 23.08 22.46 25.29c.25.31.38.64.38.99 0 .46-.17.84-.5 1.15-.33.31-.7.46-1.11.46h-7.87c-1.27 0-2.27-.46-2.98-1.38l-18.49-20.25v19.79c0 .56-.18 1.01-.53 1.34-.36.33-.82.5-1.38.5H1.83c-.51 0-.94-.18-1.3-.53z" class="cls-5"/></g><g class="cls-4"><path d="M48.61 257.9c-2.7-3.08-4.05-7.27-4.05-12.57v-21.47c0-.51.18-.94.54-1.3.36-.36.79-.54 1.3-.54h6.72c.56 0 1.01.17 1.34.5.33.33.5.78.5 1.34v21.01c0 6.32 2.78 9.48 8.33 9.48 2.65 0 4.75-.84 6.3-2.52 1.55-1.68 2.33-4 2.33-6.95v-21.01c0-.51.18-.94.54-1.3.36-.36.79-.54 1.3-.54h6.72c.56 0 1 .17 1.34.5.33.33.5.78.5 1.34v36.07c0 .51-.17.94-.5 1.3-.33.36-.78.53-1.34.53h-6.19c-.51 0-.94-.18-1.3-.53-.36-.36-.54-.79-.54-1.3v-3.13c-2.85 3.82-7.11 5.73-12.76 5.73-4.69 0-8.38-1.54-11.08-4.62z" class="cls-5"/></g><g class="cls-4"><path d="M101.27 257.1v2.83c0 .51-.17.94-.5 1.3-.33.36-.78.53-1.34.53h-6.04c-.51 0-.94-.18-1.3-.53-.36-.36-.54-.79-.54-1.3v-50.58c0-.56.18-1 .54-1.34.36-.33.79-.5 1.3-.5h6.5c.56 0 1 .17 1.34.5.33.33.5.78.5 1.34v16.96c2.9-3.36 6.83-5.04 11.77-5.04s9.09 1.68 11.84 5.04c2.75 3.36 4.23 7.72 4.43 13.07.05.61.08 1.43.08 2.45 0 1.07-.03 1.91-.08 2.52-.2 5.5-1.68 9.91-4.43 13.22-2.75 3.31-6.7 4.97-11.84 4.97s-9.32-1.81-12.23-5.43zm18.19-12.91c.05-.51.08-1.27.08-2.29s-.03-1.78-.08-2.29c-.36-6.77-3.29-10.16-8.79-10.16-2.85 0-5.03.9-6.53 2.71s-2.3 3.99-2.41 6.53l-.08 2.9.08 2.98c.15 2.75.94 5.07 2.37 6.95 1.43 1.88 3.62 2.83 6.57 2.83 5.5 0 8.43-3.39 8.79-10.16zm21.73 13.4c-3.34-3.29-5.11-7.91-5.31-13.87l-.08-1.91.08-1.91c.25-5.81 2.05-10.37 5.39-13.68 3.34-3.31 7.81-4.97 13.41-4.97 6.01 0 10.66 1.83 13.94 5.5 3.29 3.67 4.93 8.56 4.93 14.67v1.6c0 .51-.18.94-.54 1.3-.36.36-.82.53-1.38.53h-25.37v.61c.1 2.8.88 5.16 2.33 7.07 1.45 1.91 3.45 2.87 6 2.87 3 0 5.42-1.17 7.26-3.52.46-.56.83-.92 1.11-1.07.28-.15.7-.23 1.26-.23h6.57c.46 0 .85.14 1.18.42.33.28.5.62.5 1.03 0 1.22-.73 2.66-2.18 4.32-1.45 1.66-3.53 3.09-6.23 4.32-2.7 1.22-5.83 1.83-9.4 1.83-5.65 0-10.15-1.64-13.49-4.93zm21.97-19.14v-.23c0-3.01-.75-5.43-2.25-7.26s-3.58-2.75-6.23-2.75-4.71.92-6.19 2.75c-1.48 1.83-2.22 4.25-2.22 7.26v.23h16.89zm23.15 22.35c-2.6-1.15-4.52-2.5-5.77-4.05-1.25-1.55-1.87-2.89-1.87-4.01 0-.51.18-.92.54-1.22.36-.31.76-.46 1.22-.46h6.04c.46 0 .84.18 1.15.53.2.15.74.61 1.6 1.38.87.82 1.88 1.45 3.06 1.91s2.47.69 3.9.69c2.04 0 3.72-.41 5.04-1.22 1.32-.81 1.99-1.94 1.99-3.36 0-1.07-.29-1.94-.88-2.6-.59-.66-1.64-1.26-3.17-1.8-1.53-.53-3.79-1.11-6.8-1.72-4.33-.92-7.53-2.32-9.59-4.2-2.06-1.88-3.09-4.38-3.09-7.49 0-2.04.61-3.96 1.83-5.77 1.22-1.81 3.04-3.29 5.46-4.43 2.42-1.15 5.31-1.72 8.67-1.72s6.37.55 8.86 1.64c2.5 1.1 4.39 2.4 5.69 3.9 1.3 1.5 1.95 2.84 1.95 4.01 0 .46-.17.85-.5 1.18-.33.33-.73.5-1.18.5h-5.66c-.41 0-.84-.18-1.3-.53-.36-.25-.92-.74-1.68-1.45-.76-.71-1.66-1.27-2.67-1.68-1.02-.41-2.22-.61-3.59-.61-1.88 0-3.35.41-4.39 1.22-1.04.82-1.57 1.88-1.57 3.21 0 .97.25 1.76.76 2.37.51.61 1.5 1.2 2.98 1.76s3.69 1.12 6.65 1.68c4.89.97 8.39 2.47 10.51 4.51 2.11 2.04 3.17 4.53 3.17 7.49 0 3.57-1.55 6.47-4.66 8.71-3.11 2.24-7.46 3.36-13.07 3.36-3.82 0-7.03-.57-9.63-1.72zm38.25-2.94c-3.34-3.11-5.11-7.41-5.31-12.91l-.08-3.06.08-3.06c.2-5.5 1.97-9.81 5.31-12.91 3.34-3.11 7.81-4.66 13.41-4.66 3.97 0 7.35.71 10.12 2.14 2.78 1.43 4.84 3.17 6.19 5.23 1.35 2.06 2.08 4.01 2.18 5.85.05.51-.11.94-.5 1.3-.38.36-.83.54-1.34.54h-6.72c-.51 0-.91-.11-1.18-.34-.28-.23-.55-.62-.8-1.18-.76-1.99-1.77-3.41-3.02-4.28-1.25-.87-2.84-1.3-4.78-1.3-2.6 0-4.64.83-6.11 2.48-1.48 1.66-2.27 4.16-2.37 7.53l-.08 2.83.08 2.52c.2 6.67 3.03 10.01 8.48 10.01 1.99 0 3.59-.43 4.81-1.3 1.22-.87 2.22-2.29 2.98-4.28.25-.56.52-.96.8-1.18.28-.23.67-.34 1.18-.34h6.72c.51 0 .96.18 1.34.53.38.36.55.79.5 1.3-.1 1.78-.82 3.69-2.14 5.73-1.33 2.04-3.36 3.8-6.11 5.27-2.75 1.48-6.16 2.22-10.24 2.22-5.6 0-10.07-1.55-13.41-4.66zm43.47 3.1c-2.17-1.04-3.87-2.46-5.12-4.24-1.25-1.78-1.87-3.74-1.87-5.88 0-3.46 1.4-6.27 4.2-8.4 2.8-2.14 6.65-3.59 11.54-4.36l10.47-1.53v-1.6c0-2.24-.56-3.92-1.68-5.04-1.12-1.12-2.93-1.68-5.42-1.68-1.68 0-3.04.32-4.09.96-1.04.64-1.87 1.26-2.48 1.87-.61.66-1.02 1.1-1.22 1.3-.2.61-.59.92-1.15.92h-5.88c-.46 0-.85-.15-1.18-.46-.33-.31-.5-.71-.5-1.22.05-1.27.67-2.72 1.87-4.36 1.2-1.63 3.04-3.03 5.54-4.2 2.5-1.17 5.55-1.76 9.17-1.76 6.01 0 10.39 1.35 13.14 4.05 2.75 2.7 4.13 6.24 4.13 10.62v23.99c0 .51-.17.94-.5 1.3-.33.36-.78.53-1.34.53h-6.19c-.51 0-.94-.18-1.3-.53-.36-.36-.53-.79-.53-1.3v-2.98c-1.12 1.63-2.71 2.97-4.78 4.01-2.06 1.04-4.62 1.57-7.68 1.57-2.6 0-4.98-.52-7.14-1.57zm16.62-8.44c1.78-1.83 2.67-4.51 2.67-8.02v-1.6l-7.64 1.22c-2.96.46-5.18 1.2-6.69 2.22-1.5 1.02-2.25 2.27-2.25 3.74 0 1.63.69 2.9 2.06 3.82 1.38.92 3.03 1.38 4.97 1.38 2.8 0 5.09-.92 6.88-2.75z" class="cls-5"/></g><g class="cls-4"><path d="M306.77 275.78c-.36-.33-.54-.78-.54-1.34v-50.58c0-.56.18-1.01.54-1.34.36-.33.79-.5 1.3-.5h6.04c.56 0 1.01.17 1.34.5.33.33.5.78.5 1.34v3.06c2.85-3.77 6.93-5.65 12.23-5.65s9.09 1.62 11.84 4.85c2.75 3.24 4.23 7.6 4.43 13.1.05.61.08 1.5.08 2.67s-.03 2.14-.08 2.75c-.2 5.35-1.68 9.67-4.43 12.95s-6.7 4.93-11.84 4.93-9.07-1.81-11.77-5.43v17.35c0 .56-.17 1.01-.5 1.34-.33.33-.78.5-1.34.5h-6.5c-.51 0-.94-.17-1.3-.5zm27.35-31.6c.05-.51.08-1.27.08-2.29s-.03-1.78-.08-2.29c-.36-6.77-3.29-10.16-8.79-10.16-2.96 0-5.15.94-6.57 2.83-1.43 1.89-2.22 4.2-2.37 6.95l-.08 2.9.08 2.98c.1 2.55.9 4.73 2.41 6.53 1.5 1.81 3.68 2.71 6.53 2.71 5.5 0 8.43-3.39 8.79-10.16z" class="cls-5"/></g><g class="cls-4"><path d="M355.79 257.59c-3.34-3.29-5.11-7.91-5.31-13.87l-.08-1.91.08-1.91c.25-5.81 2.05-10.37 5.39-13.68 3.34-3.31 7.81-4.97 13.41-4.97 6.01 0 10.66 1.83 13.94 5.5 3.29 3.67 4.93 8.56 4.93 14.67v1.6c0 .51-.18.94-.54 1.3-.36.36-.82.53-1.38.53h-25.37v.61c.1 2.8.88 5.16 2.33 7.07 1.45 1.91 3.45 2.87 6 2.87 3 0 5.42-1.17 7.26-3.52.46-.56.83-.92 1.11-1.07.28-.15.7-.23 1.26-.23h6.57c.46 0 .85.14 1.18.42.33.28.5.62.5 1.03 0 1.22-.73 2.66-2.18 4.32-1.45 1.66-3.53 3.09-6.23 4.32-2.7 1.22-5.83 1.83-9.4 1.83-5.65 0-10.15-1.64-13.49-4.93zm21.97-19.14v-.23c0-3.01-.75-5.43-2.25-7.26s-3.58-2.75-6.23-2.75-4.71.92-6.19 2.75c-1.48 1.83-2.22 4.25-2.22 7.26v.23h16.89z" class="cls-5"/></g></svg>