<svg xmlns="http://www.w3.org/2000/svg" role="img" xmlns:xlink="http://www.w3.org/1999/xlink" viewBox="49.18 35.18 1446.64 454.64"><title>Kubermatic Kubernetes Platform logo</title><style>svg {enable-background:new 0 0 1522.4 520.5}</style><style>.st0{fill:#174671}.st15{fill:#fff}</style><path d="M1421.9 237.8c-3.2-4.3-4.7-10.8-4.7-19.5v-2.9c.1-8.6 1.7-15.1 4.8-19.3 3.2-4.2 7.7-6.4 13.6-6.4 4.6 0 8.3 1.5 11.3 4.5s4.5 6.8 4.7 11.4h17.1c-.3-9.1-3.5-16.4-9.5-22-6-5.6-13.8-8.4-23.4-8.4-11.3 0-20.3 3.7-26.8 11.1-6.5 7.4-9.8 17.2-9.8 29.4v1.9c0 12.9 3.3 22.9 9.9 30.2 6.6 7.3 15.5 10.9 26.8 10.9 5.8 0 11.2-1.3 16.2-3.8s9-6 11.9-10.3c2.9-4.3 4.5-9 4.7-14h-17.1c-.2 3.9-1.8 7.1-4.8 9.8-3 2.6-6.7 3.9-11.2 3.9-6-.1-10.6-2.3-13.7-6.5m-57.2-75.3c1.8 1.8 4.3 2.7 7.6 2.7s5.8-.9 7.6-2.7c1.8-1.8 2.7-4.1 2.7-6.8 0-2.8-.9-5.1-2.7-6.9-1.8-1.8-4.3-2.8-7.6-2.8s-5.8.9-7.6 2.8c-1.8 1.8-2.6 4.1-2.6 6.9-.1 2.7.8 5 2.6 6.8m16.5 14.1h-18.1v80.6h18.1v-80.6zm-66.9-19.6v19.6H1301V190h13.3v45.6c0 15.3 7 23 20.9 23 3.8 0 7.8-.6 11.9-1.7v-14c-2.1.5-4.2.7-6.3.7-3.1 0-5.3-.7-6.5-2-1.2-1.4-1.8-3.6-1.8-6.7v-45h14.2v-13.4h-14.2V157h-18.2zm-69.6 84c-2.3-2.1-3.5-4.8-3.5-8.3 0-4.3 1.7-7.6 5.1-9.9 3.4-2.3 8.4-3.5 15.1-3.5h9.8v15.2c-1.6 2.9-4 5.3-7.1 7-3.2 1.7-6.5 2.6-10.1 2.6-3.9 0-7-1-9.3-3.1m47.6 16.2v-1.3c-2-4.3-3.1-10.1-3.1-17.3v-36.3c-.2-8.6-3-15.3-8.6-20-5.6-4.7-13.1-7.1-22.6-7.1-6.2 0-11.8 1.1-16.9 3.3-5 2.2-9 5.2-11.9 9-2.9 3.8-4.4 8-4.4 12.4h18.1c0-3.2 1.3-5.8 3.9-7.9 2.6-2.1 6-3.1 10.1-3.1 4.8 0 8.3 1.3 10.7 3.8 2.3 2.5 3.5 5.8 3.5 10v5.3H1260c-11.9 0-21 2.3-27.4 6.9-6.4 4.6-9.6 11.2-9.6 19.8 0 6.8 2.6 12.5 7.7 17.1 5.1 4.6 11.7 6.9 19.8 6.9 8.3 0 15.4-3 21.1-9 .6 3.5 1.3 6 2.1 7.5h18.6zm-200.8-80.6v80.6h18.1v-58.4c3-5.9 8.2-8.9 15.4-8.9 9.4 0 14.3 4.7 14.5 14.2v53h18.1l-.1-55.3c1-3.6 2.9-6.5 5.5-8.7 2.6-2.2 6-3.3 10.1-3.3 5.2 0 8.9 1.2 11.1 3.6 2.2 2.4 3.3 6.1 3.3 11.2V257h18.1v-52.9c-.1-9.6-2.3-16.8-6.7-21.7-4.3-4.9-11-7.4-19.8-7.4-10.6 0-18.9 4.1-24.7 12.4-4-8.2-11.3-12.4-22.1-12.4-9.8 0-17.6 3.3-23.2 9.9l-.5-8.4h-17.1zm-12.9-.5c-1.7-.7-3.8-1-6.4-1-7.7 0-13.8 3.5-18.2 10.5l-.4-9h-17.3v80.6h18.1V202c2.9-6.4 8.5-9.5 16.8-9.5 2.5 0 5 .2 7.4.6v-17zm-80.5 18.2c2.8 3.1 4.4 7.7 4.8 13.7v1.3h-34.5c.8-6.2 2.8-11 5.8-14.5 3.1-3.5 7.1-5.2 12-5.2 5.2 0 9.1 1.6 11.9 4.7m8.5 60.4c5.4-2.7 9.7-6.4 12.9-11.2l-9.8-9.3c-5.2 6.7-12 10.1-20.3 10.1-5.9 0-10.8-1.9-14.7-5.8-3.9-3.9-6.1-9.1-6.7-15.8h52.6v-7.3c0-12.8-3-22.7-9-29.7s-14.5-10.5-25.4-10.5c-6.9 0-13.2 1.8-18.8 5.3-5.6 3.5-10 8.5-13.1 14.8-3.1 6.3-4.7 13.5-4.7 21.6v2.2c0 12 3.6 21.6 10.7 28.9 7.1 7.2 16.4 10.8 27.9 10.8 7-.2 13-1.5 18.4-4.1m-88.3-36.3c-.1 8.5-1.7 14.9-4.8 19.1-3.1 4.2-7.4 6.3-13.1 6.3-7.9 0-13.4-3.5-16.7-10.5v-33.2c3.2-6.8 8.7-10.3 16.5-10.3 5.9 0 10.3 2.2 13.4 6.6 3.1 4.4 4.6 10.9 4.6 19.7v2.3zm18-1.8c0-13.1-2.8-23.3-8.4-30.6-5.6-7.3-13.3-10.9-23.2-10.9-8.8 0-15.9 3.1-21.1 9.2v-41.5h-18.1v114.4H882l.9-8.7c5.3 6.8 12.6 10.2 22 10.2 9.8 0 17.5-3.7 23-11.1 5.6-7.4 8.4-17.3 8.4-29.9v-1.1zm-107.7 40.6h17.1v-80.6h-18.1v57.9c-3.1 6.3-9 9.5-17.8 9.5-8.5 0-12.7-5.1-12.7-15.3v-52H779v52.2c0 9.7 2.2 17.1 6.7 22.2 4.5 5.1 11.1 7.7 19.8 7.7 9.8 0 17.3-3.1 22.6-9.4l.5 7.8zm-79.7 0h22.3l-42.6-60.4 40.3-48h-22.8l-31.7 38-10.4 12.8v-50.9h-18.8v108.4H704v-33.8l12.3-13 32.6 46.9z" class="st0"/><path d="M699.8 348.8l-8.8 8.7v22.4h-5.3v-62.6h5.3V351l8.5-8.9 23.5-24.8h6.7l-26.2 27.8 28.2 34.7h-6.4l-25.5-31zm69.1 25.2c-1.5 2.1-3.4 3.8-5.8 5s-5.4 1.8-9 1.8c-2.3 0-4.4-.3-6.2-1-1.9-.6-3.5-1.7-4.8-3.1-1.3-1.4-2.4-3.2-3.1-5.4-.7-2.2-1.1-4.9-1.1-8.1v-29.8h5.1v29.9c0 2.5.3 4.6.9 6.2.6 1.7 1.3 3 2.3 4 1 1 2.1 1.7 3.4 2.1 1.3.4 2.7.6 4.1.6 2.1 0 3.9-.2 5.5-.7 1.6-.5 2.9-1.1 4.1-1.9 1.1-.8 2.1-1.8 2.8-2.9s1.3-2.3 1.8-3.7v-33.6h5.2v46.5h-5l-.2-5.9zm55.9-16.9c0 3.5-.4 6.7-1.2 9.6-.8 2.9-1.9 5.4-3.5 7.5-1.5 2.1-3.4 3.7-5.6 4.9-2.2 1.2-4.7 1.7-7.5 1.7-3.4 0-6.3-.6-8.7-1.9-2.4-1.3-4.4-3.1-6-5.3l-.2 6.4h-4.8v-66h5.1v26.3c1.5-2.4 3.5-4.3 5.9-5.6 2.4-1.3 5.3-2 8.6-2 2.8 0 5.4.6 7.6 1.7 2.2 1.1 4.1 2.7 5.6 4.8 1.5 2.1 2.7 4.5 3.5 7.5.8 2.9 1.2 6.2 1.2 9.8v.6zm-5.2-.9c0-2.7-.3-5.2-.8-7.6-.5-2.3-1.3-4.4-2.4-6.1-1.1-1.7-2.5-3.1-4.2-4.1s-3.8-1.5-6.2-1.5c-1.9 0-3.7.3-5.2.8s-2.8 1.2-3.9 2.1c-1.1.9-2 1.9-2.8 3.1-.7 1.1-1.3 2.3-1.8 3.6v21c.5 1.2 1.2 2.4 2 3.5s1.8 2 2.9 2.8c1.1.8 2.4 1.4 3.8 1.8 1.4.4 3.1.7 4.9.7 2.3 0 4.3-.5 6-1.5 1.7-1 3.1-2.3 4.2-4s1.9-3.7 2.5-6.1c.5-2.3.8-4.9.8-7.6v-.9zm34.5 24.6c-3 0-5.8-.6-8.4-1.7-2.5-1.1-4.7-2.7-6.6-4.7s-3.3-4.4-4.3-7.2-1.5-5.8-1.5-9.2v-1.8c0-3.6.5-6.8 1.6-9.7 1.1-2.9 2.5-5.4 4.4-7.4 1.8-2 3.9-3.6 6.3-4.7s4.9-1.7 7.6-1.7c3 0 5.6.5 7.9 1.6 2.3 1.1 4.2 2.5 5.8 4.4 1.6 1.9 2.7 4.1 3.5 6.7.8 2.6 1.2 5.5 1.2 8.6v3.1h-33.2v1c0 2.5.4 4.9 1.2 7.2.8 2.2 1.9 4.2 3.3 5.9 1.4 1.7 3.1 3 5 3.9 1.9 1 4.1 1.4 6.5 1.4 2.8 0 5.2-.5 7.3-1.5 2.1-1 4-2.6 5.7-4.8l3.2 2.4c-.8 1.1-1.7 2.2-2.7 3.2-1 1-2.2 1.9-3.5 2.6-1.3.7-2.9 1.3-4.6 1.8-1.7.3-3.6.6-5.7.6zm-.9-43.9c-1.9 0-3.8.4-5.4 1.1-1.7.7-3.1 1.8-4.4 3.2-1.3 1.4-2.3 3-3.1 5s-1.4 4.1-1.7 6.4h27.9v-.6c-.1-1.9-.4-3.8-.9-5.7-.6-1.8-1.4-3.4-2.5-4.8s-2.5-2.5-4.1-3.4c-1.8-.7-3.7-1.2-5.8-1.2zm49.9.9c-1.1-.2-2.2-.3-3.5-.3-1.7 0-3.3.3-4.7.8-1.4.5-2.6 1.2-3.7 2.2-1.1.9-2 2-2.7 3.3-.7 1.3-1.3 2.7-1.7 4.2v31.9h-5.1v-46.5h5l.1 7.4c1.3-2.5 3-4.6 5.1-6 2.2-1.5 4.8-2.2 8-2.2.6 0 1.3.1 1.9.2.7.1 1.1.2 1.5.4l-.2 4.6zm13-4.4l.2 7.9c.8-1.3 1.7-2.5 2.8-3.6 1-1.1 2.2-2 3.5-2.8s2.7-1.4 4.2-1.8c1.5-.4 3.1-.6 4.7-.6 2.3 0 4.4.3 6.2.9 1.8.6 3.4 1.6 4.7 3 1.3 1.4 2.2 3.1 2.9 5.3.7 2.2 1 4.8 1 7.8v30.3h-5.1v-30.3c0-2.4-.3-4.4-.8-6-.5-1.6-1.2-2.9-2.2-3.9-.9-1-2.1-1.7-3.5-2.1-1.4-.4-2.9-.6-4.5-.6-1.8 0-3.5.3-5 .9-1.5.6-2.8 1.4-4 2.5-1.1 1-2.1 2.2-3 3.5-.8 1.3-1.5 2.7-2 4.1v31.8h-5.1v-46.5h5zm61.4 47.4c-3 0-5.8-.6-8.4-1.7-2.5-1.1-4.7-2.7-6.6-4.7s-3.3-4.4-4.3-7.2-1.5-5.8-1.5-9.2v-1.8c0-3.6.5-6.8 1.6-9.7 1.1-2.9 2.5-5.4 4.4-7.4 1.8-2 3.9-3.6 6.3-4.7s4.9-1.7 7.6-1.7c3 0 5.6.5 7.9 1.6 2.3 1.1 4.2 2.5 5.8 4.4 1.6 1.9 2.7 4.1 3.5 6.7.8 2.6 1.2 5.5 1.2 8.6v3.1h-33.2v1c0 2.5.4 4.9 1.2 7.2.8 2.2 1.9 4.2 3.3 5.9 1.4 1.7 3.1 3 5 3.9 1.9 1 4.1 1.4 6.5 1.4 2.8 0 5.2-.5 7.3-1.5 2.1-1 4-2.6 5.7-4.8l3.2 2.4c-.8 1.1-1.7 2.2-2.7 3.2-1 1-2.2 1.9-3.5 2.6-1.3.7-2.9 1.3-4.6 1.8-1.7.3-3.6.6-5.7.6zm-.9-43.9c-1.9 0-3.8.4-5.4 1.1-1.7.7-3.1 1.8-4.4 3.2-1.3 1.4-2.3 3-3.1 5s-1.4 4.1-1.7 6.4h27.9v-.6c-.1-1.9-.4-3.8-.9-5.7-.6-1.8-1.4-3.4-2.5-4.8s-2.5-2.5-4.1-3.4c-1.7-.7-3.7-1.2-5.8-1.2zm36.4-15.4v11.9h9.6v4.2h-9.6v31c0 1.6.2 2.9.5 3.9s.8 1.8 1.3 2.3 1.2.9 1.9 1.1c.7.2 1.5.3 2.3.3.8 0 1.5 0 2.2-.2.7-.1 1.4-.2 1.9-.3l.2 4.2c-.6.2-1.5.4-2.5.5-1 .1-2 .2-3 .2-1.5 0-2.8-.2-4.1-.6s-2.3-1.1-3.2-2c-.9-.9-1.6-2.2-2.1-3.8-.5-1.6-.8-3.5-.8-5.8v-31H999v-4.2h8.6v-11.9h5.4zm38.3 59.3c-3 0-5.8-.6-8.4-1.7-2.5-1.1-4.7-2.7-6.6-4.7s-3.3-4.4-4.3-7.2-1.5-5.8-1.5-9.2v-1.8c0-3.6.5-6.8 1.6-9.7 1.1-2.9 2.5-5.4 4.4-7.4 1.8-2 3.9-3.6 6.3-4.7s4.9-1.7 7.6-1.7c3 0 5.6.5 7.9 1.6 2.3 1.1 4.2 2.5 5.8 4.4 1.6 1.9 2.7 4.1 3.5 6.7.8 2.6 1.2 5.5 1.2 8.6v3.1h-33.2v1c0 2.5.4 4.9 1.2 7.2.8 2.2 1.9 4.2 3.3 5.9 1.4 1.7 3.1 3 5 3.9 1.9 1 4.1 1.4 6.5 1.4 2.8 0 5.2-.5 7.3-1.5 2.1-1 4-2.6 5.7-4.8l3.2 2.4c-.8 1.1-1.7 2.2-2.7 3.2-1 1-2.2 1.9-3.5 2.6-1.3.7-2.9 1.3-4.6 1.8-1.8.3-3.7.6-5.7.6zm-1-43.9c-1.9 0-3.8.4-5.4 1.1-1.7.7-3.1 1.8-4.4 3.2-1.3 1.4-2.3 3-3.1 5s-1.4 4.1-1.7 6.4h27.9v-.6c-.1-1.9-.4-3.8-.9-5.7-.6-1.8-1.4-3.4-2.5-4.8s-2.5-2.5-4.1-3.4c-1.7-.7-3.6-1.2-5.8-1.2zm56.3 31.2c0-.9-.2-1.9-.5-2.8-.3-.9-.9-1.8-1.8-2.7-.9-.8-2.2-1.6-3.8-2.4-1.6-.7-3.7-1.4-6.3-1.9-2.6-.5-4.9-1.2-6.9-1.9s-3.7-1.6-5.1-2.6c-1.4-1-2.4-2.2-3.2-3.6-.7-1.4-1.1-3.1-1.1-4.9 0-1.7.4-3.4 1.1-4.9.8-1.5 1.8-2.9 3.3-4 1.4-1.1 3.1-2.1 5.2-2.7 2-.7 4.3-1 6.8-1 2.7 0 5.1.4 7.2 1.1 2.1.7 3.9 1.7 5.4 2.9 1.5 1.2 2.6 2.7 3.4 4.4.8 1.7 1.2 3.5 1.2 5.5h-5.2c0-1.2-.3-2.4-.8-3.5s-1.3-2.2-2.3-3c-1-.9-2.3-1.6-3.8-2.1s-3.2-.8-5.1-.8c-2 0-3.7.2-5.1.7-1.4.5-2.6 1.1-3.5 1.9s-1.6 1.6-2 2.6c-.4 1-.6 1.9-.6 2.9s.2 2 .5 2.8c.3.8.9 1.6 1.8 2.4s2.2 1.4 3.8 2c1.6.6 3.7 1.2 6.3 1.8 2.8.7 5.2 1.4 7.3 2.2 2 .8 3.7 1.8 5 2.9 1.3 1.1 2.3 2.4 3 3.8s1 3.1 1 4.9c0 1.9-.4 3.7-1.2 5.3-.8 1.6-1.9 3-3.4 4.1-1.5 1.1-3.3 2-5.4 2.6-2.1.6-4.5.9-7.1.9-3 0-5.6-.4-7.8-1.1-2.3-.8-4.2-1.8-5.7-3.1s-2.7-2.8-3.5-4.4c-.8-1.7-1.2-3.4-1.2-5.2h5.2c.1 1.8.6 3.4 1.4 4.6.8 1.2 1.9 2.2 3.1 2.9 1.2.7 2.6 1.3 4.1 1.6 1.5.3 3 .5 4.4.5 1.9 0 3.7-.2 5.2-.7 1.5-.5 2.7-1.1 3.8-1.8 1-.8 1.8-1.7 2.3-2.7.3-1.4.6-2.4.6-3.5zm44.6-13.7v25.5h-5.3v-62.6h21.3c3.4 0 6.5.5 9.1 1.4 2.6.9 4.8 2.2 6.6 3.8 1.8 1.6 3.1 3.6 4 5.9.9 2.3 1.4 4.8 1.4 7.6 0 2.9-.5 5.5-1.4 7.8s-2.2 4.2-4 5.8c-1.8 1.6-4 2.8-6.6 3.6-2.6.8-5.7 1.2-9.1 1.2h-16zm0-4.4h16c2.8 0 5.2-.4 7.2-1.1 2-.7 3.6-1.7 4.9-2.9 1.3-1.2 2.2-2.7 2.8-4.4.6-1.7.9-3.5.9-5.5 0-1.9-.3-3.7-.9-5.5-.6-1.7-1.5-3.3-2.8-4.6-1.3-1.3-2.9-2.3-4.9-3.1-2-.8-4.4-1.1-7.2-1.1h-16V350zm53.4 29.9h-5.2v-66h5.2v66zm43.3 0c-.3-.8-.5-1.8-.7-2.9-.2-1.2-.3-2.3-.3-3.5-.8 1-1.7 1.9-2.8 2.8-1.1.9-2.2 1.7-3.6 2.3-1.3.7-2.8 1.2-4.3 1.6-1.6.4-3.3.6-5.1.6-2.3 0-4.3-.3-6.2-1s-3.4-1.6-4.7-2.8c-1.3-1.2-2.3-2.6-3-4.2-.7-1.6-1.1-3.4-1.1-5.2 0-2.3.5-4.3 1.5-6.1 1-1.8 2.4-3.4 4.2-4.6 1.8-1.3 4.1-2.2 6.7-2.9 2.6-.7 5.6-1 8.8-1h9.5v-5.3c0-3.3-1-5.9-3.1-7.8-2-1.9-5-2.9-9-2.9-1.8 0-3.5.2-5 .7-1.5.5-2.8 1.2-3.9 2-1.1.9-2 1.9-2.6 3-.6 1.1-.9 2.3-.9 3.6h-5.2c0-1.7.4-3.4 1.3-5.1s2.1-3.1 3.6-4.4c1.6-1.3 3.4-2.3 5.6-3.1s4.6-1.2 7.3-1.2c2.5 0 4.7.3 6.8.9 2.1.6 3.9 1.6 5.3 2.8 1.5 1.3 2.6 2.8 3.5 4.7.8 1.9 1.2 4.1 1.2 6.6V370c0 .8 0 1.6.1 2.5.1.9.2 1.7.3 2.5.1.8.3 1.6.5 2.3s.4 1.4.6 1.9v.5h-5.3zm-16.1-3.7c1.9 0 3.6-.2 5.2-.7s3-1.1 4.3-2c1.3-.8 2.4-1.8 3.4-2.9.9-1.1 1.7-2.3 2.3-3.6v-10.2h-8.8c-2.6 0-5 .2-7.1.7-2.1.5-3.8 1.2-5.3 2-1.4.9-2.5 2-3.3 3.2-.8 1.3-1.1 2.7-1.1 4.3 0 1.3.2 2.4.7 3.5.5 1.1 1.2 2.1 2.1 2.9s2 1.5 3.3 1.9 2.7.9 4.3.9zm41.9-54.7v11.9h9.6v4.2h-9.6v31c0 1.6.2 2.9.5 3.9s.8 1.8 1.3 2.3 1.2.9 1.9 1.1c.7.2 1.5.3 2.3.3.8 0 1.5 0 2.2-.2.7-.1 1.4-.2 1.9-.3l.2 4.2c-.6.2-1.5.4-2.5.5-1 .1-2 .2-3 .2-1.5 0-2.8-.2-4.1-.6s-2.3-1.1-3.2-2c-.9-.9-1.6-2.2-2.1-3.8-.5-1.6-.8-3.5-.8-5.8v-31h-8.6v-4.2h8.6v-11.9h5.4zm24 58.4v-42.3h-7.7v-4.2h7.7v-5.8c0-2.3.3-4.4.9-6.3.6-1.8 1.5-3.4 2.7-4.6 1.2-1.2 2.6-2.2 4.3-2.8 1.7-.6 3.6-1 5.8-1 .9 0 1.8.1 2.7.2.9.1 1.8.3 2.7.6l-.4 4.3c-.7-.2-1.4-.3-2.2-.4s-1.6-.1-2.5-.1c-2.8 0-5 .9-6.6 2.6-1.6 1.8-2.4 4.3-2.4 7.5v5.8h11.1v4.2h-11.1v42.3h-5zm22.6-23.9c0-3.4.5-6.5 1.5-9.4 1-2.9 2.4-5.3 4.2-7.4 1.8-2.1 4-3.7 6.5-4.9 2.5-1.2 5.4-1.8 8.5-1.8 3.2 0 6.1.6 8.6 1.8 2.6 1.2 4.7 2.8 6.6 4.9 1.8 2.1 3.2 4.5 4.2 7.4 1 2.9 1.5 6 1.5 9.4v1.4c0 3.4-.5 6.5-1.5 9.4-1 2.9-2.4 5.3-4.2 7.4-1.8 2.1-4 3.7-6.5 4.9-2.5 1.2-5.4 1.7-8.6 1.7-3.2 0-6-.6-8.6-1.7-2.5-1.2-4.7-2.8-6.6-4.9-1.8-2.1-3.2-4.5-4.2-7.4-1-2.9-1.5-6-1.5-9.4V356zm5.1 1.4c0 2.5.3 5 1 7.3s1.7 4.3 3 6.1c1.3 1.7 3 3.1 4.9 4.1 1.9 1 4.2 1.5 6.7 1.5s4.7-.5 6.7-1.5 3.6-2.4 4.9-4.1c1.3-1.7 2.3-3.8 3-6.1.7-2.3 1-4.7 1-7.3V356c0-2.5-.3-4.9-1-7.2s-1.7-4.3-3-6.1c-1.3-1.7-3-3.1-4.9-4.2-2-1-4.2-1.6-6.7-1.6s-4.7.5-6.6 1.6c-1.9 1-3.6 2.4-4.9 4.2-1.3 1.7-2.3 3.8-3 6.1-.7 2.3-1 4.7-1 7.2v1.4zm68.5-19.6c-1.1-.2-2.2-.3-3.5-.3-1.7 0-3.3.3-4.7.8-1.4.5-2.6 1.2-3.7 2.2-1.1.9-2 2-2.7 3.3-.7 1.3-1.3 2.7-1.7 4.2v31.9h-5.1v-46.5h5l.1 7.4c1.3-2.5 3-4.6 5.1-6 2.2-1.5 4.8-2.2 8-2.2.6 0 1.3.1 1.9.2.7.1 1.1.2 1.5.4l-.2 4.6zm12.8-4.4l.2 7.6c.8-1.3 1.7-2.4 2.7-3.5 1-1 2.2-1.9 3.4-2.7 1.3-.7 2.6-1.3 4.1-1.7 1.5-.4 3.1-.6 4.8-.6 3.4 0 6.3.7 8.8 2.1 2.4 1.4 4.2 3.7 5.2 6.9.7-1.3 1.6-2.5 2.7-3.6 1-1.1 2.2-2.1 3.6-2.9 1.3-.8 2.8-1.4 4.4-1.9 1.6-.5 3.3-.7 5.2-.7 2.4 0 4.6.3 6.4 1s3.5 1.7 4.8 3.1c1.3 1.4 2.3 3.2 3 5.3s1 4.7 1 7.7v30.3h-5.2v-30.3c0-2.5-.3-4.5-.8-6.1-.5-1.6-1.3-2.9-2.3-3.9-1-1-2.2-1.6-3.6-2-1.4-.4-2.9-.6-4.6-.6-2.2 0-4.1.4-5.7 1.2-1.6.8-3 1.7-4.1 2.9-1.1 1.2-2 2.5-2.6 3.9-.6 1.4-1 2.8-1.1 4.2v30.8h-5.2v-30.7c0-2.3-.3-4.3-.8-5.8s-1.3-2.8-2.3-3.7c-1-.9-2.2-1.6-3.6-2-1.4-.4-2.9-.6-4.6-.6-1.9 0-3.7.3-5.2.9-1.5.6-2.8 1.4-3.9 2.5-1.1 1-2 2.2-2.7 3.5-.7 1.3-1.3 2.7-1.7 4.1V380h-5.2v-46.5h4.9z" class="st0"/><defs><path id="SVGID_1_" d="M552.7 302.1c.1 0 .2-.1.2-.1 2.6-11.1 3.9-22.6 3.9-34.4 0-87.1-27.9-157.7-156.6-157.7-4.6 0-5.1-.3-9.7-.1-16.6-8.2-82.4-62.3-169.1-42.5 57.3 15.9 59.9 59.1 56.2 70.5-41.5 17-69.7 38.4-95 84.2-13 22.4-28.1 38.6-52.2 38.6-23.2 0-34-17.4-47.1-44.3-16.1 16.1 5.8 41.9 5.8 55 0 14.4-20.5 44.6-5.8 59.5 12.9-28.9 22.6-41.9 47-41.9 22.5 0 36.5-.2 49.7 19.9 25.1 47.7 59.1 74 101 91.6 1.5 10.7 4.8 41.7-49.9 57.5 64.4 18.6 133-23.8 151.7-32.9 4.9.2 9.7.5 14.7.5 82.7 0 129.2-29.2 132.3-70.6-3.8.5-7.8.7-11.7.9.7-4.6 1.3-10.4 2.1-18.4-2.6 6-5.5 12-9.4 18.5-6.9 0-13.6-.5-20.2-1.4 1.1-5.8 1.9-12.9 3-22.8-3 6.9-6.4 13.7-11.2 21.4-5.5-1-10.9-2.4-16.3-4 1.5-6.4 2.4-14.2 3.7-26-3.1 7.4-6.9 14.6-12.2 23.1-5.5-2.1-10.9-4.4-16.1-7 1.2-5.9 2-13.1 3.1-23.3-2.7 6.4-5.8 12.6-10.1 19.6-38-21.7-66-58.8-75.8-102.9 21.5 38.4 58.5 66.9 102.5 76.7-2 8.6-4.3 15.8-7 22.6 7.4-9.2 12.2-15.3 15.7-20.9 4.8.8 9.7 1.4 14.5 1.7-2.2 10.1-4.7 18.2-7.8 25.9 9.4-11.7 14.7-18.5 18.2-25.6h.5c5.6 0 11-.3 16.5-.9-2.4 12.1-5.1 21.2-8.6 29.8 12-14.9 17.3-21.8 20.8-31.6 5.1-1 10.1-2.2 15-3.6-2.6 15-5.7 25.6-9.6 35.5 15.3-18.9 19.7-24.9 23.3-40.1z"/></defs><clipPath id="SVGID_2_"><use overflow="visible" xlink:href="#SVGID_1_"/></clipPath><g clip-path="url(#SVGID_2_)"><linearGradient id="SVGID_3_" x1="936.124" x2="1267.885" y1="-335.539" y2="-454.025" gradientTransform="matrix(1.1693 0 0 -1.1771 -871.394 -178.22)" gradientUnits="userSpaceOnUse"><stop offset=".002" stop-color="#3eb2c6"/><stop offset=".5" stop-color="#0f5f93"/><stop offset="1" stop-color="#1c4772"/></linearGradient><path fill="url(#SVGID_3_)" d="M372.4 179c-12.9 2-26.2 3-39.7 3-35.1 0-69.4-7.4-99.9-20.1-13.2 9.7-24.6 21.7-35.4 36.2 54.8 25.3 99.7 69.4 125.9 124 66.4 4.7 127.1 35.4 170.5 83.3 22.1-12.5 34.4-30 36-50.7-3.8.5-7.8.7-11.7.9.7-4.6 1.3-10.4 2.1-18.4-2.6 6-5.5 12-9.4 18.5-6.9 0-13.6-.5-20.2-1.4 1.1-5.8 1.9-12.9 3-22.8-3 6.9-6.4 13.7-11.2 21.4-5.5-1-10.9-2.4-16.3-4 1.5-6.4 2.4-14.2 3.7-26-3.1 7.4-6.9 14.6-12.2 23.1-5.5-2.1-10.9-4.4-16.1-7 1.2-5.9 2-13.1 3.1-23.3-2.7 6.4-5.8 12.6-10.1 19.6-38-21.7-66-58.8-75.8-102.9 21.5 38.4 58.5 66.9 102.5 76.7-2 8.6-4.3 15.8-7 22.6 7.4-9.2 12.2-15.3 15.7-20.9 4.8.8 9.7 1.4 14.5 1.7-2.2 10.1-4.7 18.2-7.8 25.9 9.4-11.7 14.7-18.5 18.2-25.5h.5c5.6 0 11-.3 16.5-.9-2.4 12.1-5.1 21.2-8.6 29.8 12-14.9 17.3-21.8 20.8-31.6 5.1-1 10.1-2.2 15-3.6-2.6 15-5.7 25.6-9.6 35.5 15.3-18.9 19.6-24.9 23.3-40.2.1 0 .2-.1.2-.1 1.1-4.9 2-9.9 2.6-15-2.9-.2-5.8-.4-8.7-.7-74.2-7.1-136.9-48.5-174.4-107.1z"/><radialGradient id="SVGID_4_" cx="1142.926" cy="-503.08" r="314.079" gradientTransform="matrix(1.1693 0 0 -1.1771 -871.394 -178.22)" gradientUnits="userSpaceOnUse"><stop offset="0" stop-color="#0f5f93" stop-opacity="0"/><stop offset=".859" stop-color="#0f5f93" stop-opacity=".859"/><stop offset="1" stop-color="#0f5f93"/></radialGradient><path fill="url(#SVGID_4_)" d="M372.4 179c-12.9 2-26.2 3-39.7 3-35.1 0-69.4-7.4-99.9-20.1-13.2 9.7-24.6 21.7-35.4 36.2 54.8 25.3 99.7 69.4 125.9 124 66.4 4.7 127.1 35.4 170.5 83.3 22.1-12.5 34.4-30 36-50.7-3.8.5-7.8.7-11.7.9.7-4.6 1.3-10.4 2.1-18.4-2.6 6-5.5 12-9.4 18.5-6.9 0-13.6-.5-20.2-1.4 1.1-5.8 1.9-12.9 3-22.8-3 6.9-6.4 13.7-11.2 21.4-5.5-1-10.9-2.4-16.3-4 1.5-6.4 2.4-14.2 3.7-26-3.1 7.4-6.9 14.6-12.2 23.1-5.5-2.1-10.9-4.4-16.1-7 1.2-5.9 2-13.1 3.1-23.3-2.7 6.4-5.8 12.6-10.1 19.6-38-21.7-66-58.8-75.8-102.9 21.5 38.4 58.5 66.9 102.5 76.7-2 8.6-4.3 15.8-7 22.6 7.4-9.2 12.2-15.3 15.7-20.9 4.8.8 9.7 1.4 14.5 1.7-2.2 10.1-4.7 18.2-7.8 25.9 9.4-11.7 14.7-18.5 18.2-25.5h.5c5.6 0 11-.3 16.5-.9-2.4 12.1-5.1 21.2-8.6 29.8 12-14.9 17.3-21.8 20.8-31.6 5.1-1 10.1-2.2 15-3.6-2.6 15-5.7 25.6-9.6 35.5 15.3-18.9 19.6-24.9 23.3-40.2.1 0 .2-.1.2-.1 1.1-4.9 2-9.9 2.6-15-2.9-.2-5.8-.4-8.7-.7-74.2-7.1-136.9-48.5-174.4-107.1z"/></g><defs><path id="SVGID_5_" d="M552.7 302.1c.1 0 .2-.1.2-.1 2.6-11.1 3.9-22.6 3.9-34.4 0-87.1-27.9-157.7-156.6-157.7-4.6 0-5.1-.3-9.7-.1-16.6-8.2-82.4-62.3-169.1-42.5 57.3 15.9 59.9 59.1 56.2 70.5-41.5 17-69.7 38.4-95 84.2-13 22.4-28.1 38.6-52.2 38.6-23.2 0-34-17.4-47.1-44.3-16.1 16.1 5.8 41.9 5.8 55 0 14.4-20.5 44.6-5.8 59.5 12.9-28.9 22.6-41.9 47-41.9 22.5 0 36.5-.2 49.7 19.9 25.1 47.7 59.1 74 101 91.6 1.5 10.7 4.8 41.7-49.9 57.5 64.4 18.6 133-23.8 151.7-32.9 4.9.2 9.7.5 14.7.5 82.7 0 129.2-29.2 132.3-70.6-3.8.5-7.8.7-11.7.9.7-4.6 1.3-10.4 2.1-18.4-2.6 6-5.5 12-9.4 18.5-6.9 0-13.6-.5-20.2-1.4 1.1-5.8 1.9-12.9 3-22.8-3 6.9-6.4 13.7-11.2 21.4-5.5-1-10.9-2.4-16.3-4 1.5-6.4 2.4-14.2 3.7-26-3.1 7.4-6.9 14.6-12.2 23.1-5.5-2.1-10.9-4.4-16.1-7 1.2-5.9 2-13.1 3.1-23.3-2.7 6.4-5.8 12.6-10.1 19.6-38-21.7-66-58.8-75.8-102.9 21.5 38.4 58.5 66.9 102.5 76.7-2 8.6-4.3 15.8-7 22.6 7.4-9.2 12.2-15.3 15.7-20.9 4.8.8 9.7 1.4 14.5 1.7-2.2 10.1-4.7 18.2-7.8 25.9 9.4-11.7 14.7-18.5 18.2-25.6h.5c5.6 0 11-.3 16.5-.9-2.4 12.1-5.1 21.2-8.6 29.8 12-14.9 17.3-21.8 20.8-31.6 5.1-1 10.1-2.2 15-3.6-2.6 15-5.7 25.6-9.6 35.5 15.3-18.9 19.7-24.9 23.3-40.1z"/></defs><clipPath id="SVGID_6_"><use overflow="visible" xlink:href="#SVGID_5_"/></clipPath><linearGradient id="SVGID_7_" x1="464.595" x2="464.595" y1="-157.203" y2="-360.183" gradientTransform="matrix(1 0 0 -1 0 -38.877)" gradientUnits="userSpaceOnUse"><stop offset=".002" stop-color="#3eb2c6"/><stop offset=".5" stop-color="#0f5f93"/><stop offset="1" stop-color="#1c4772"/></linearGradient><path fill="url(#SVGID_7_)" d="M491.1 127.6c-33.9 26.4-74.4 44.5-118.7 51.3 37.5 58.6 100.2 100 174.4 107.3 2.9.3 5.8.5 8.7.7.8-6.4 1.3-12.9 1.3-19.4.1-60.7-13.6-113.6-65.7-139.9z" clip-path="url(#SVGID_6_)"/><g><defs><path id="SVGID_8_" d="M552.7 302.1c.1 0 .2-.1.2-.1 2.6-11.1 3.9-22.6 3.9-34.4 0-87.1-27.9-157.7-156.6-157.7-4.6 0-5.1-.3-9.7-.1-16.6-8.2-82.4-62.3-169.1-42.5 57.3 15.9 59.9 59.1 56.2 70.5-41.5 17-69.7 38.4-95 84.2-13 22.4-28.1 38.6-52.2 38.6-23.2 0-34-17.4-47.1-44.3-16.1 16.1 5.8 41.9 5.8 55 0 14.4-20.5 44.6-5.8 59.5 12.9-28.9 22.6-41.9 47-41.9 22.5 0 36.5-.2 49.7 19.9 25.1 47.7 59.1 74 101 91.6 1.5 10.7 4.8 41.7-49.9 57.5 64.4 18.6 133-23.8 151.7-32.9 4.9.2 9.7.5 14.7.5 82.7 0 129.2-29.2 132.3-70.6-3.8.5-7.8.7-11.7.9.7-4.6 1.3-10.4 2.1-18.4-2.6 6-5.5 12-9.4 18.5-6.9 0-13.6-.5-20.2-1.4 1.1-5.8 1.9-12.9 3-22.8-3 6.9-6.4 13.7-11.2 21.4-5.5-1-10.9-2.4-16.3-4 1.5-6.4 2.4-14.2 3.7-26-3.1 7.4-6.9 14.6-12.2 23.1-5.5-2.1-10.9-4.4-16.1-7 1.2-5.9 2-13.1 3.1-23.3-2.7 6.4-5.8 12.6-10.1 19.6-38-21.7-66-58.8-75.8-102.9 21.5 38.4 58.5 66.9 102.5 76.7-2 8.6-4.3 15.8-7 22.6 7.4-9.2 12.2-15.3 15.7-20.9 4.8.8 9.7 1.4 14.5 1.7-2.2 10.1-4.7 18.2-7.8 25.9 9.4-11.7 14.7-18.5 18.2-25.6h.5c5.6 0 11-.3 16.5-.9-2.4 12.1-5.1 21.2-8.6 29.8 12-14.9 17.3-21.8 20.8-31.6 5.1-1 10.1-2.2 15-3.6-2.6 15-5.7 25.6-9.6 35.5 15.3-18.9 19.7-24.9 23.3-40.1z"/></defs><clipPath id="SVGID_9_"><use overflow="visible" xlink:href="#SVGID_8_"/></clipPath><linearGradient id="SVGID_10_" x1="77.31" x2="323.424" y1="-309.56" y2="-309.56" gradientTransform="matrix(1 0 0 -1 0 -38.877)" gradientUnits="userSpaceOnUse"><stop offset="0" stop-color="#c3e1ce"/><stop offset=".5" stop-color="#3eb2c6"/><stop offset=".996" stop-color="#0f5f93"/></linearGradient><path fill="url(#SVGID_10_)" d="M130.3 260.3c-23.2 0-34-17.4-47.1-44.3-16.1 16.1 5.8 41.9 5.8 55 0 14.4-20.5 44.6-5.8 59.5 12.9-28.9 22.6-41.9 47-41.9 22.5 0 36.5-.2 49.7 19.9 6.9 13 14.5 24.6 22.7 34.8 21.1-9.4 43.9-15.9 67.8-19.3 17.9-2.5 35.6-3 53-1.8-26.2-54.6-70.9-98.8-125.7-124.1-5.4 7.2-10.4 15-15.2 23.7-13 22.4-28.2 38.5-52.2 38.5z" clip-path="url(#SVGID_9_)"/></g><g><defs><path id="SVGID_11_" d="M552.7 302.1c.1 0 .2-.1.2-.1 2.6-11.1 3.9-22.6 3.9-34.4 0-87.1-27.9-157.7-156.6-157.7-4.6 0-5.1-.3-9.7-.1-16.6-8.2-82.4-62.3-169.1-42.5 57.3 15.9 59.9 59.1 56.2 70.5-41.5 17-69.7 38.4-95 84.2-13 22.4-28.1 38.6-52.2 38.6-23.2 0-34-17.4-47.1-44.3-16.1 16.1 5.8 41.9 5.8 55 0 14.4-20.5 44.6-5.8 59.5 12.9-28.9 22.6-41.9 47-41.9 22.5 0 36.5-.2 49.7 19.9 25.1 47.7 59.1 74 101 91.6 1.5 10.7 4.8 41.7-49.9 57.5 64.4 18.6 133-23.8 151.7-32.9 4.9.2 9.7.5 14.7.5 82.7 0 129.2-29.2 132.3-70.6-3.8.5-7.8.7-11.7.9.7-4.6 1.3-10.4 2.1-18.4-2.6 6-5.5 12-9.4 18.5-6.9 0-13.6-.5-20.2-1.4 1.1-5.8 1.9-12.9 3-22.8-3 6.9-6.4 13.7-11.2 21.4-5.5-1-10.9-2.4-16.3-4 1.5-6.4 2.4-14.2 3.7-26-3.1 7.4-6.9 14.6-12.2 23.1-5.5-2.1-10.9-4.4-16.1-7 1.2-5.9 2-13.1 3.1-23.3-2.7 6.4-5.8 12.6-10.1 19.6-38-21.7-66-58.8-75.8-102.9 21.5 38.4 58.5 66.9 102.5 76.7-2 8.6-4.3 15.8-7 22.6 7.4-9.2 12.2-15.3 15.7-20.9 4.8.8 9.7 1.4 14.5 1.7-2.2 10.1-4.7 18.2-7.8 25.9 9.4-11.7 14.7-18.5 18.2-25.6h.5c5.6 0 11-.3 16.5-.9-2.4 12.1-5.1 21.2-8.6 29.8 12-14.9 17.3-21.8 20.8-31.6 5.1-1 10.1-2.2 15-3.6-2.6 15-5.7 25.6-9.6 35.5 15.3-18.9 19.7-24.9 23.3-40.1z"/></defs><clipPath id="SVGID_12_"><use overflow="visible" xlink:href="#SVGID_11_"/></clipPath><g clip-path="url(#SVGID_12_)"><linearGradient id="SVGID_13_" x1="1021.755" x2="1167.535" y1="-475.936" y2="-475.936" gradientTransform="matrix(1.1693 0 0 -1.1771 -871.394 -178.22)" gradientUnits="userSpaceOnUse"><stop offset=".004" stop-color="#0f5f93"/><stop offset=".5" stop-color="#3eb2c6"/><stop offset="1" stop-color="#c3e1ce"/></linearGradient><path fill="url(#SVGID_13_)" d="M323.3 322.1c16.5 34.3 25.7 72.8 25.7 113.5v6.2c15.5-5.8 27.6-13.9 33.7-16.9 4.9.2 9.7.5 14.7.5 41.6 0 73.9-7.4 96.3-20-43.2-47.8-103.9-78.5-170.4-83.3z"/><radialGradient id="SVGID_14_" cx="1099.207" cy="-435.704" r="96.69" gradientTransform="matrix(1.1693 0 0 -1.1771 -871.394 -178.22)" gradientUnits="userSpaceOnUse"><stop offset="0" stop-color="#0f5f93" stop-opacity="0"/><stop offset=".859" stop-color="#0f5f93" stop-opacity=".859"/><stop offset="1" stop-color="#0f5f93"/></radialGradient><path fill="url(#SVGID_14_)" d="M323.3 322.1c16.5 34.3 25.7 72.8 25.7 113.5v6.2c15.5-5.8 27.6-13.9 33.7-16.9 4.9.2 9.7.5 14.7.5 41.6 0 73.9-7.4 96.3-20-43.2-47.8-103.9-78.5-170.4-83.3z"/></g></g><g><defs><path id="SVGID_15_" d="M552.7 302.1c.1 0 .2-.1.2-.1 2.6-11.1 3.9-22.6 3.9-34.4 0-87.1-27.9-157.7-156.6-157.7-4.6 0-5.1-.3-9.7-.1-16.6-8.2-82.4-62.3-169.1-42.5 57.3 15.9 59.9 59.1 56.2 70.5-41.5 17-69.7 38.4-95 84.2-13 22.4-28.1 38.6-52.2 38.6-23.2 0-34-17.4-47.1-44.3-16.1 16.1 5.8 41.9 5.8 55 0 14.4-20.5 44.6-5.8 59.5 12.9-28.9 22.6-41.9 47-41.9 22.5 0 36.5-.2 49.7 19.9 25.1 47.7 59.1 74 101 91.6 1.5 10.7 4.8 41.7-49.9 57.5 64.4 18.6 133-23.8 151.7-32.9 4.9.2 9.7.5 14.7.5 82.7 0 129.2-29.2 132.3-70.6-3.8.5-7.8.7-11.7.9.7-4.6 1.3-10.4 2.1-18.4-2.6 6-5.5 12-9.4 18.5-6.9 0-13.6-.5-20.2-1.4 1.1-5.8 1.9-12.9 3-22.8-3 6.9-6.4 13.7-11.2 21.4-5.5-1-10.9-2.4-16.3-4 1.5-6.4 2.4-14.2 3.7-26-3.1 7.4-6.9 14.6-12.2 23.1-5.5-2.1-10.9-4.4-16.1-7 1.2-5.9 2-13.1 3.1-23.3-2.7 6.4-5.8 12.6-10.1 19.6-38-21.7-66-58.8-75.8-102.9 21.5 38.4 58.5 66.9 102.5 76.7-2 8.6-4.3 15.8-7 22.6 7.4-9.2 12.2-15.3 15.7-20.9 4.8.8 9.7 1.4 14.5 1.7-2.2 10.1-4.7 18.2-7.8 25.9 9.4-11.7 14.7-18.5 18.2-25.6h.5c5.6 0 11-.3 16.5-.9-2.4 12.1-5.1 21.2-8.6 29.8 12-14.9 17.3-21.8 20.8-31.6 5.1-1 10.1-2.2 15-3.6-2.6 15-5.7 25.6-9.6 35.5 15.3-18.9 19.7-24.9 23.3-40.1z"/></defs><clipPath id="SVGID_16_"><use overflow="visible" xlink:href="#SVGID_15_"/></clipPath><linearGradient id="SVGID_17_" x1="191.979" x2="369.897" y1="-431.128" y2="-431.128" gradientTransform="matrix(1 0 0 -1 0 -38.877)" gradientUnits="userSpaceOnUse"><stop offset=".004" stop-color="#0f5f93"/><stop offset=".5" stop-color="#3eb2c6"/><stop offset="1" stop-color="#c3e1ce"/></linearGradient><path fill="url(#SVGID_17_)" d="M270.4 324c-24 3.4-46.7 9.9-67.8 19.3 21.7 26.9 48 44.4 78.5 57.1.6 8.5 4.2 40.9-49.9 57.5 42.4 13.2 86.7-1.7 118-15.9 0-1.2-.1-5-.1-6.2 0-40.7-9.3-79.2-25.7-113.5-17.4-1.4-35.1-.9-53 1.7z" clip-path="url(#SVGID_16_)"/></g><g><defs><path id="SVGID_18_" d="M552.7 302.1c.1 0 .2-.1.2-.1 2.6-11.1 3.9-22.6 3.9-34.4 0-87.1-27.9-157.7-156.6-157.7-4.6 0-5.1-.3-9.7-.1-16.6-8.2-82.4-62.3-169.1-42.5 57.3 15.9 59.9 59.1 56.2 70.5-41.5 17-69.7 38.4-95 84.2-13 22.4-28.1 38.6-52.2 38.6-23.2 0-34-17.4-47.1-44.3-16.1 16.1 5.8 41.9 5.8 55 0 14.4-20.5 44.6-5.8 59.5 12.9-28.9 22.6-41.9 47-41.9 22.5 0 36.5-.2 49.7 19.9 25.1 47.7 59.1 74 101 91.6 1.5 10.7 4.8 41.7-49.9 57.5 64.4 18.6 133-23.8 151.7-32.9 4.9.2 9.7.5 14.7.5 82.7 0 129.2-29.2 132.3-70.6-3.8.5-7.8.7-11.7.9.7-4.6 1.3-10.4 2.1-18.4-2.6 6-5.5 12-9.4 18.5-6.9 0-13.6-.5-20.2-1.4 1.1-5.8 1.9-12.9 3-22.8-3 6.9-6.4 13.7-11.2 21.4-5.5-1-10.9-2.4-16.3-4 1.5-6.4 2.4-14.2 3.7-26-3.1 7.4-6.9 14.6-12.2 23.1-5.5-2.1-10.9-4.4-16.1-7 1.2-5.9 2-13.1 3.1-23.3-2.7 6.4-5.8 12.6-10.1 19.6-38-21.7-66-58.8-75.8-102.9 21.5 38.4 58.5 66.9 102.5 76.7-2 8.6-4.3 15.8-7 22.6 7.4-9.2 12.2-15.3 15.7-20.9 4.8.8 9.7 1.4 14.5 1.7-2.2 10.1-4.7 18.2-7.8 25.9 9.4-11.7 14.7-18.5 18.2-25.6h.5c5.6 0 11-.3 16.5-.9-2.4 12.1-5.1 21.2-8.6 29.8 12-14.9 17.3-21.8 20.8-31.6 5.1-1 10.1-2.2 15-3.6-2.6 15-5.7 25.6-9.6 35.5 15.3-18.9 19.7-24.9 23.3-40.1z"/></defs><clipPath id="SVGID_19_"><use overflow="visible" xlink:href="#SVGID_18_"/></clipPath><linearGradient id="SVGID_20_" x1="220.972" x2="426.39" y1="-161.258" y2="-161.258" gradientTransform="matrix(1 0 0 -1 0 -38.877)" gradientUnits="userSpaceOnUse"><stop offset=".002" stop-color="#3eb2c6"/><stop offset=".5" stop-color="#0f5f93"/><stop offset="1" stop-color="#1c4772"/></linearGradient><path fill="url(#SVGID_20_)" d="M372.5 179c-16.9-26.5-30.7-67.4-36-99.3-36.8-17-76.6-21.4-115.5-12.5 57.3 15.9 60.3 59 56.6 70.5-18 7.4-29.7 13.1-44.8 24.3 30.5 12.7 64.8 20.1 99.9 20.1 13.5 0 26.8-1.1 39.8-3.1z" clip-path="url(#SVGID_19_)"/></g><g><defs><path id="SVGID_21_" d="M552.7 302.1c.1 0 .2-.1.2-.1 2.6-11.1 3.9-22.6 3.9-34.4 0-87.1-27.9-157.7-156.6-157.7-4.6 0-5.1-.3-9.7-.1-16.6-8.2-82.4-62.3-169.1-42.5 57.3 15.9 59.9 59.1 56.2 70.5-41.5 17-69.7 38.4-95 84.2-13 22.4-28.1 38.6-52.2 38.6-23.2 0-34-17.4-47.1-44.3-16.1 16.1 5.8 41.9 5.8 55 0 14.4-20.5 44.6-5.8 59.5 12.9-28.9 22.6-41.9 47-41.9 22.5 0 36.5-.2 49.7 19.9 25.1 47.7 59.1 74 101 91.6 1.5 10.7 4.8 41.7-49.9 57.5 64.4 18.6 133-23.8 151.7-32.9 4.9.2 9.7.5 14.7.5 82.7 0 129.2-29.2 132.3-70.6-3.8.5-7.8.7-11.7.9.7-4.6 1.3-10.4 2.1-18.4-2.6 6-5.5 12-9.4 18.5-6.9 0-13.6-.5-20.2-1.4 1.1-5.8 1.9-12.9 3-22.8-3 6.9-6.4 13.7-11.2 21.4-5.5-1-10.9-2.4-16.3-4 1.5-6.4 2.4-14.2 3.7-26-3.1 7.4-6.9 14.6-12.2 23.1-5.5-2.1-10.9-4.4-16.1-7 1.2-5.9 2-13.1 3.1-23.3-2.7 6.4-5.8 12.6-10.1 19.6-38-21.7-66-58.8-75.8-102.9 21.5 38.4 58.5 66.9 102.5 76.7-2 8.6-4.3 15.8-7 22.6 7.4-9.2 12.2-15.3 15.7-20.9 4.8.8 9.7 1.4 14.5 1.7-2.2 10.1-4.7 18.2-7.8 25.9 9.4-11.7 14.7-18.5 18.2-25.6h.5c5.6 0 11-.3 16.5-.9-2.4 12.1-5.1 21.2-8.6 29.8 12-14.9 17.3-21.8 20.8-31.6 5.1-1 10.1-2.2 15-3.6-2.6 15-5.7 25.6-9.6 35.5 15.3-18.9 19.7-24.9 23.3-40.1z"/></defs><clipPath id="SVGID_22_"><use overflow="visible" xlink:href="#SVGID_21_"/></clipPath><linearGradient id="SVGID_23_" x1="304.828" x2="552.601" y1="-168.189" y2="-168.189" gradientTransform="matrix(1 0 0 -1 0 -38.877)" gradientUnits="userSpaceOnUse"><stop offset=".002" stop-color="#3eb2c6"/><stop offset=".5" stop-color="#0f5f93"/><stop offset="1" stop-color="#1c4772"/></linearGradient><path fill="url(#SVGID_23_)" d="M390.5 109.7c-7.2-3.5-31-22.3-54-30 5.4 31.9 18.9 72.8 35.9 99.3 44.2-6.9 84.8-25 118.7-51.3-22.5-11.3-52.1-17.8-90.9-17.8-4.8-.1-5.3-.5-9.7-.2z" clip-path="url(#SVGID_22_)"/></g><g><ellipse cx="448.9" cy="230.2" class="st15" rx="40.3" ry="40.6"/><ellipse cx="448.9" cy="230.2" fill="#1c4772" rx="23.3" ry="23.5"/><circle cx="455.9" cy="223.1" r="13.7" class="st15"/><ellipse cx="438.7" cy="240.3" class="st15" rx="3.2" ry="3.3"/></g></svg>