<svg xmlns="http://www.w3.org/2000/svg" role="img" viewBox="-4.35 -3.10 369.20 367.45"><title>KubeEdge (Wasm) logo</title><defs><style>.cls-2{fill:#1c77c8}.cls-3{fill:#fff}</style></defs><path fill="none" d="M250.739 308.177c-3.887 0-6.803 1.271-8.672 3.962-1.644 2.243-2.467 5.532-2.467 9.793s.748 7.55 2.318 9.942c1.794 2.766 4.71 4.187 8.597 4.187a9.339 9.339 0 0 0 7.998-4.112 16.737 16.737 0 0 0 2.467-9.494v-.672a16.2 16.2 0 0 0-2.99-10.092 8.88 8.88 0 0 0-7.251-3.514zm44.18 0c-3.364 0-5.98 1.122-7.775 3.514-1.943 2.242-2.84 5.457-2.84 9.568 0 3.738.747 6.728 2.242 8.896 1.72 2.542 4.486 3.887 8.373 3.887a9.91 9.91 0 0 0 7.924-3.364 15.02 15.02 0 0 0 2.766-9.419c0-4.036-.972-7.25-2.766-9.568a9.577 9.577 0 0 0-7.924-3.514zm-178.813 0a8.459 8.459 0 0 0-7.176 3.514c-2.094 2.541-3.065 5.905-3.065 10.092v.672a16.737 16.737 0 0 0 2.466 9.494 9.248 9.248 0 0 0 8 4.112c3.886 0 6.727-1.42 8.596-4.187 1.495-2.392 2.317-5.68 2.317-9.942s-.822-7.55-2.467-9.793c-1.868-2.69-4.784-3.962-8.671-3.962zm43.358.075a9.477 9.477 0 0 0-7.102 2.616 13.066 13.066 0 0 0-3.215 7.476h20.857q-1.121-10.092-10.54-10.092zm179.56 0a9.477 9.477 0 0 0-7.102 2.616 13.066 13.066 0 0 0-3.214 7.476h20.856q-1.12-10.092-10.54-10.092z"/><path d="M125.948 170.875a3.135 3.135 0 1 0 3.235 3.134 3.189 3.189 0 0 0-3.235-3.134zm103.022 6.266a3.135 3.135 0 1 0-3.234-3.132 3.188 3.188 0 0 0 3.234 3.132zm-11.022-25.986c14.178 0 25.739-11.065 25.739-24.657a24.78 24.78 0 0 0-15.846-22.78c0-.732.066-1.48.066-2.227 0-20.555-17.383-37.263-38.903-37.263a38.97 38.97 0 0 0-35.06 21.24 18.647 18.647 0 0 0-10.989-3.61c-9.975 0-17.955 7.71-17.955 17.201a16.828 16.828 0 0 0 .769 5.087 25.04 25.04 0 0 0-12.902 21.732c0 13.783 11.626 24.402 25.935 25.213h77.74c.458 0 .9.064 1.406.064zm-100.154-25.277a20.109 20.109 0 0 1 10.413-17.45l3.45-1.963-1.185-3.789a11.9 11.9 0 0 1-.544-3.617c0-6.746 5.754-12.273 13.027-12.273a13.717 13.717 0 0 1 8.076 2.655l4.712 3.454 2.61-5.227a34.045 34.045 0 0 1 30.651-18.512c18.823 0 33.975 14.53 33.975 32.335 0 .216-.007.42-.028.903-.028.633-.037.922-.037 1.323v3.33l3.09 1.242a19.852 19.852 0 0 1 12.755 18.209c0 10.818-9.304 19.729-20.81 19.729a6.1 6.1 0 0 1-.384-.02 19.863 19.863 0 0 0-.53-.032c-.228-.01-.228-.01-.493-.012h-77.74c-11.789-.676-21.008-9.47-21.008-20.285zm60.482 56.327a3.135 3.135 0 1 0 3.235 3.133 3.189 3.189 0 0 0-3.235-3.133z" class="cls-2"/><path d="M241.058 231.732l56.174-70.44a18.71 18.71 0 0 0 3.613-15.829l-20.048-87.836a18.71 18.71 0 0 0-10.123-12.694L189.5 5.843a18.71 18.71 0 0 0-16.237 0l-81.172 39.09a18.71 18.71 0 0 0-10.124 12.694L61.92 145.463a18.71 18.71 0 0 0 3.613 15.83l56.174 70.439a18.71 18.71 0 0 0 14.628 7.044h90.095a18.71 18.71 0 0 0 14.628-7.044zm-21.315-60.994a9.711 9.711 0 1 1 0 6.54h-18.447v-1.651h-.126v-19.604l-19.623-.006v20.177a9.811 9.811 0 1 1-6.54 0v-20.178l-19.624-.003v19.614h-.126v1.652h-20.082a9.711 9.711 0 1 1 0-6.541h13.667v-14.726l-10.32-.001c-17.075-.968-30.583-13.854-30.583-30.133a29.78 29.78 0 0 1 12.308-24.012 22.32 22.32 0 0 1-.175-2.807c0-12.28 10.254-22.128 22.883-22.128a23.482 23.482 0 0 1 9.162 1.869 44.103 44.103 0 0 1 36.887-19.5c23.873 0 43.338 18.379 43.821 41.318a29.523 29.523 0 0 1 15.79 25.88c0 16.359-13.81 29.584-30.667 29.584-.358 0-.614-.012-1.06-.043-.076-.005-3.141-.009-9.177-.012v14.71z" class="cls-2"/><path d="M217.036 146.175c.166.007.306.016.529.032.23.016.317.02.383.02 11.507 0 20.811-8.911 20.811-19.73a19.852 19.852 0 0 0-12.755-18.208l-3.09-1.242v-3.33c0-.401.01-.69.037-1.323.021-.483.028-.687.028-.903 0-17.806-15.152-32.335-33.975-32.335a34.045 34.045 0 0 0-30.651 18.512l-2.61 5.227-4.712-3.454a13.717 13.717 0 0 0-8.076-2.655c-7.273 0-13.027 5.527-13.027 12.273a11.9 11.9 0 0 0 .544 3.617l1.184 3.789-3.45 1.964a20.109 20.109 0 0 0-10.412 17.449c0 10.815 9.219 19.61 21.008 20.285h77.74c.265.003.265.003.494.012z" class="cls-3"/><path d="M207.711 151.35v4.677c6.036.003 9.1.007 9.177.012.446.03.702.043 1.06.043 16.857 0 30.667-13.225 30.667-29.584a29.523 29.523 0 0 0-15.79-25.88c-.483-22.939-19.948-41.317-43.821-41.317A44.103 44.103 0 0 0 152.117 78.8a23.482 23.482 0 0 0-9.162-1.87c-12.63 0-22.883 9.85-22.883 22.13a22.32 22.32 0 0 0 .175 2.806 29.78 29.78 0 0 0-12.308 24.012c0 16.279 13.508 29.165 30.584 30.133h10.32v-4.661h6.54v4.663q10.752 0 19.623.003v-3.048h6.541v3.05l19.623.005v-4.673zm-68.91-.26c-14.308-.81-25.934-11.43-25.934-25.212a25.04 25.04 0 0 1 12.902-21.732A16.828 16.828 0 0 1 125 99.06c0-9.49 7.98-17.2 17.955-17.2a18.647 18.647 0 0 1 10.99 3.608 38.97 38.97 0 0 1 35.059-21.239c21.52 0 38.903 16.708 38.903 37.264 0 .747-.066 1.494-.066 2.225a24.78 24.78 0 0 1 15.846 22.78c0 13.593-11.561 24.658-25.739 24.658-.507 0-.948-.064-1.406-.064z" class="cls-3"/><path d="M207.711 151.35h-6.54v24.277h.125v1.652h18.447a9.436 9.436 0 0 1 0-6.541h-12.032V151.35zm-32.705 1.618v23.226a9.722 9.722 0 0 1 6.541 0v-23.226zm-26.164-1.618v19.388h-13.667a9.438 9.438 0 0 1 0 6.54h20.082v-1.651h.126V151.35z" class="cls-3"/><path d="M135.175 170.738a9.711 9.711 0 1 0 0 6.54 9.438 9.438 0 0 0 0-6.54zm-9.227 6.403a3.135 3.135 0 1 1 3.235-3.132 3.188 3.188 0 0 1-3.235 3.132zm49.058-.947a9.812 9.812 0 1 0 6.541 0 9.722 9.722 0 0 0-6.54 0zm3.27 12.277a3.135 3.135 0 1 1 3.235-3.133 3.188 3.188 0 0 1-3.235 3.133zm41.467-11.192a9.711 9.711 0 1 0 0-6.541 9.436 9.436 0 0 0 0 6.54zm9.227-6.404a3.135 3.135 0 1 1-3.234 3.134 3.19 3.19 0 0 1 3.234-3.134z" class="cls-3"/><path fill="#646b76" d="M173.667 308.177c-3.29-4.335-8.148-6.429-14.428-6.429-5.681 0-10.241 1.944-13.53 5.906-3.439 3.887-5.084 8.672-5.084 14.428 0 6.354 1.795 11.362 5.383 15.1 3.289 3.514 7.849 5.308 13.53 5.308a18.84 18.84 0 0 0 12.783-4.41 17.433 17.433 0 0 0 5.308-9.046h-7.924a13.44 13.44 0 0 1-3.513 5.008 11.05 11.05 0 0 1-6.728 1.944 9.621 9.621 0 0 1-7.401-2.99c-1.794-2.019-2.766-4.934-3.065-8.672h29.304c-.075-6.877-1.645-12.26-4.635-16.147zm-24.52 10.167a13.066 13.066 0 0 1 3.215-7.476 9.477 9.477 0 0 1 7.102-2.616q9.419 0 10.54 10.092zm196.605 15.698a11.05 11.05 0 0 1-6.728 1.944 9.621 9.621 0 0 1-7.4-2.99c-1.795-2.019-2.767-4.934-3.066-8.672h29.304c-.075-6.877-1.644-12.26-4.635-16.147-3.289-4.335-8.148-6.429-14.427-6.429-5.682 0-10.242 1.944-13.53 5.906-3.44 3.887-5.084 8.672-5.084 14.428 0 6.354 1.794 11.362 5.382 15.1 3.29 3.514 7.85 5.308 13.53 5.308a18.84 18.84 0 0 0 12.784-4.41 17.433 17.433 0 0 0 5.307-9.046h-7.924a13.44 13.44 0 0 1-3.513 5.008zm-13.83-23.174a9.477 9.477 0 0 1 7.102-2.616q9.419 0 10.54 10.092h-20.856a13.066 13.066 0 0 1 3.214-7.476zm-214.022-9.12c-4.784 0-8.672 2.243-11.811 6.803v-21.53h-7.924v54.422h7.4v-4.635c2.692 3.738 6.654 5.682 11.961 5.682 5.682 0 10.092-2.019 13.381-6.055 2.99-3.738 4.486-8.597 4.486-14.503 0-5.681-1.496-10.39-4.411-14.128a15.802 15.802 0 0 0-13.082-6.056zm7.027 30.126c-1.869 2.766-4.71 4.187-8.597 4.187a9.248 9.248 0 0 1-7.999-4.112 16.737 16.737 0 0 1-2.466-9.494v-.672c0-4.187.971-7.55 3.065-10.092a8.459 8.459 0 0 1 7.176-3.514c3.887 0 6.803 1.271 8.671 3.962 1.645 2.243 2.467 5.532 2.467 9.793s-.822 7.55-2.317 9.942zm68.998-14.352h28.407v-6.952h-28.407v-15.549h30.201v-6.953h-38.349v53.375h39.62v-6.952h-31.472v-16.969zm-112.729 8.895a13.692 13.692 0 0 1-3.738 6.878 8.409 8.409 0 0 1-5.756 2.542c-3.065 0-5.308-.823-6.653-2.318-1.42-1.495-2.094-3.887-2.094-7.176v-23.548h-7.924v24.071c0 10.39 4.635 15.624 13.98 15.624 4.859 0 8.895-2.093 12.185-6.28v5.233h7.924v-38.648h-7.924zm224.338-18.464a13.384 13.384 0 0 0-11.811-6.205 16.093 16.093 0 0 0-12.709 5.457c-3.289 3.589-4.859 8.223-4.859 14.054s1.57 10.466 4.86 13.98a16.47 16.47 0 0 0 12.708 5.307 13.422 13.422 0 0 0 11.81-6.429v5.98c0 7.252-3.363 10.915-10.09 10.915-3.14 0-5.458-.524-6.878-1.42a7.09 7.09 0 0 1-2.841-4.86H277.8c.748 4.261 2.467 7.4 5.308 9.494 2.84 2.018 6.952 3.065 12.334 3.065 11.96 0 18.016-6.13 18.016-18.39v-36.106h-7.924zm-2.691 22.725a9.91 9.91 0 0 1-7.924 3.364c-3.887 0-6.653-1.345-8.373-3.887-1.495-2.168-2.242-5.158-2.242-8.896 0-4.111.897-7.326 2.84-9.568 1.794-2.392 4.41-3.514 7.775-3.514a9.577 9.577 0 0 1 7.924 3.514c1.794 2.317 2.766 5.532 2.766 9.568a15.02 15.02 0 0 1-2.766 9.42zm-255.736-42.61H36.791l-25.79 25.791v-25.791H2.853v53.375h8.148v-18.464l6.952-6.653 21.679 25.117h10.914l-27.061-30.425 23.622-22.95zm213.649 20.483c-3.14-4.56-7.102-6.803-11.811-6.803-5.532 0-9.943 2.019-13.082 6.056-2.99 3.737-4.41 8.447-4.41 14.128 0 5.906 1.494 10.765 4.485 14.503 3.214 4.036 7.7 6.055 13.38 6.055 5.233 0 9.27-1.944 11.961-5.682v4.635h7.401v-54.421h-7.924zm.224 13.904a16.737 16.737 0 0 1-2.467 9.494 9.339 9.339 0 0 1-7.998 4.112c-3.888 0-6.803-1.42-8.597-4.186-1.57-2.393-2.318-5.682-2.318-9.943s.823-7.55 2.467-9.793c1.87-2.69 4.785-3.962 8.672-3.962a8.88 8.88 0 0 1 7.251 3.514 16.2 16.2 0 0 1 2.99 10.092z"/></svg>