<svg xmlns="http://www.w3.org/2000/svg" role="img" viewBox="54.02 44.52 700.96 366.46"><title>Kubernative (KCSP) logo</title><style>svg {shape-rendering:geometricPrecision;text-rendering:geometricPrecision;image-rendering:optimizeQuality;fill-rule:evenodd;clip-rule:evenodd}</style><defs><style>.fil2,.fil3{fill:#b0cb1f;fill-rule:nonzero}.fil3{fill:#275080}</style></defs><g id="Layer_x0020_1"><g id="_3002953630880"><path fill="none" d="M0 0h810v456H0z"/><g id="Logo"><path fill="#fefefe" fill-rule="nonzero" d="M282.149 183.361c0-67.847 55.002-122.85 122.851-122.85 67.846 0 122.85 55.003 122.85 122.85 0 67.849-55.004 122.853-122.85 122.853-67.849 0-122.851-55.004-122.851-122.853z"/><path d="M405 62.661c-66.555 0-120.701 54.146-120.701 120.7 0 66.555 54.146 120.703 120.701 120.703 66.554 0 120.7-54.148 120.7-120.703 0-66.554-54.146-120.7-120.7-120.7zm0 245.702c-33.389 0-64.779-13.002-88.389-36.612C293.002 248.141 280 216.75 280 183.361s13.002-64.778 36.611-88.388c23.61-23.609 55-36.611 88.389-36.611 33.388 0 64.778 13.002 88.387 36.611 23.61 23.61 36.613 55 36.613 88.388 0 33.388-13.003 64.779-36.613 88.39-23.609 23.61-54.999 36.612-88.387 36.612z" class="fil2"/><path d="M470.403 181.306l-29.977-51.929 7.721-13.355 37.694 65.284h-15.438zm-21.786 69.735l-7.91-13.036 29.696-51.439h15.438l-37.224 64.475zm-80.477 3.468l8.187-13.368h60.127l8.112 13.368H368.14zm-4.548-2.649l-38.159-66.093 15.619.316 30.484 52.804-7.944 12.973zm.068-135.966l7.694 13.406-29.752 51.533-15.256-.31 37.314-64.629zm84.735 65.412l-18.986-32.885 7.978-13.785 26.941 46.67h-15.933zm-18.574 38.755l18.603-33.495h15.904l-26.736 46.309-7.771-12.814zm-41.835 2.045l37.296.62 7.982 13.155h-53.715l8.437-13.775zm-24.665-35.569l19.547 33.851-8.203 13.393-27.466-47.572 16.122.328zm19.005-38.12l-18.969 32.857-15.749-.319 26.776-46.379 7.942 13.841zm42.528-2.626h-37.967l-7.921-13.801h53.869l-7.981 13.801zm-20.54 35.515h-34.898l17.466-30.254h34.928l-17.496 30.254zm22.01 32.969l-17.882-29.596 17.928-31 17.47 30.257-17.516 30.339zm17.285-100.913l-7.729 13.366h-59.932l-7.674-13.366h75.335zm58.303 67.944h-9.995l-40.726-70.541 6.277-10.855c.726-1.258.298-2.868-.962-3.596-1.255-.726-2.867-.297-3.593.961l-6.26 10.824h-81.397l-7.935-13.824c-.724-1.259-2.33-1.695-3.592-.972-1.26.723-1.695 2.331-.972 3.592l7.874 13.721-40.29 69.785-12.201-.248c-1.464-.031-2.656 1.125-2.685 2.579-.03 1.452 1.125 2.653 2.578 2.682l11.253.229 41.178 71.322-6.28 10.257c-.76 1.239-.37 2.86.869 3.615.428.264.903.39 1.371.39.886 0 1.75-.449 2.247-1.26l6.246-10.197h82.844l7.725 12.734c.495.814 1.36 1.268 2.251 1.268.466 0 .935-.127 1.365-.382 1.241-.756 1.637-2.372.88-3.615l-8.253-13.603 40.188-69.606h9.995c1.454 0 2.633-1.177 2.633-2.63 0-1.452-1.179-2.63-2.633-2.63z" class="fil3"/><path d="M404.278 186.566l18.288 30.27h-34.741l-17.935-30.27z" class="fil2"/><path fill="#00aae0" fill-rule="nonzero" d="M426.38 153.679l-17.939 31 17.883 29.596 17.516-30.339z"/><path fill="#14693c" fill-rule="nonzero" d="M386.882 151.052h34.928l-17.496 30.254h-34.898z"/></g><path d="M684.602 365.668c0-17.855 13.513-31.97 32.213-31.97 9.892 0 17.372 4.101 20.75 7.238 1.929 1.688 3.016 4.102 3.016 6.515 0 2.051-.602 3.86-2.292 5.912l-15.564 18.578c-1.688 1.93-3.498 2.774-5.789 2.774-4.585 0-8.084-3.256-8.084-7.721 0-1.809.484-3.619 1.81-5.066l10.375-11.944c-.845-.362-2.895-.603-4.222-.603-8.566 0-15.201 7.238-15.201 16.287 0 9.047 6.514 16.286 15.201 16.286 4.464 0 7.48-1.81 9.53-3.499 2.413-2.05 4.101-3.861 7.36-3.861 4.705 0 8.324 3.379 8.324 8.083 0 1.69-.845 3.741-2.413 5.551-4.102 4.946-12.427 9.409-22.801 9.409-18.579 0-32.213-13.994-32.213-31.969zm-58.274-23.526c0-4.704 3.741-8.444 8.445-8.444 4.705 0 8.445 3.74 8.445 8.444v25.698l26.301-31.368c1.688-1.931 3.498-2.774 5.79-2.774 4.585 0 8.083 3.257 8.083 7.72 0 1.69-.602 3.5-1.81 5.067l-40.655 48.378c-1.69 1.929-3.498 2.774-6.154 2.774-4.704 0-8.445-3.741-8.445-8.444v-47.051zm-31.367 0c0-4.704 3.741-8.444 8.444-8.444 4.705 0 8.445 3.74 8.445 8.444v47.051c0 4.703-3.74 8.444-8.445 8.444-4.703 0-8.444-3.741-8.444-8.444v-47.051zm-1.206-24.127c0-5.309 4.343-9.653 9.65-9.653 5.309 0 9.652 4.344 9.652 9.653 0 5.307-4.343 9.651-9.652 9.651-5.307 0-9.65-4.344-9.65-9.651zm-56.946 24.73c0-4.342 3.497-7.841 7.842-7.841h2.291v-7.239c0-4.705 3.74-8.444 8.446-8.444 4.705 0 8.444 3.739 8.444 8.444v7.239h12.428c4.342 0 7.841 3.499 7.841 7.841 0 4.344-3.499 7.842-7.841 7.842h-12.428v16.527c0 10.015 5.55 14.84 12.428 14.84 4.342 0 7.841 3.499 7.841 7.842 0 4.342-3.499 7.841-7.841 7.841-16.289 0-29.318-11.823-29.318-30.523v-16.527h-2.291c-4.345 0-7.842-3.498-7.842-7.842zm-25.339 22.923c0-9.289-6.634-16.287-15.079-16.287-8.566 0-15.201 6.998-15.201 16.287 0 9.409 6.635 16.286 15.201 16.286 8.445 0 15.079-6.877 15.079-16.286zm-47.291 0c0-17.855 12.788-31.97 29.798-31.97 6.636 0 12.788 2.291 17.736 6.031 1.086-3.499 4.342-6.031 8.203-6.031 4.705 0 8.445 3.74 8.445 8.444v47.051c0 4.705-3.74 8.444-8.445 8.444-3.861 0-7.117-2.533-8.203-6.032-4.948 3.862-11.1 6.032-17.736 6.032-17.01 0-29.798-14.114-29.798-31.969zm-67.562-3.62c0-17.01 12.184-28.35 27.748-28.35 15.562 0 27.746 11.34 27.746 28.35v27.145c0 4.703-3.739 8.444-8.444 8.444-4.705 0-8.445-3.741-8.445-8.444v-27.748c0-7.841-4.825-12.063-10.857-12.063-6.033 0-10.859 4.222-10.859 12.063v27.748c0 4.703-3.74 8.444-8.445 8.444s-8.444-3.741-8.444-8.444v-27.145zm-41.985 2.172c0-18.7 13.029-30.522 29.316-30.522 4.344 0 7.842 3.499 7.842 7.841 0 4.343-3.498 7.842-7.842 7.842-6.876 0-12.427 4.826-12.427 14.839v24.973c0 4.705-3.74 8.444-8.445 8.444-4.703 0-8.444-3.739-8.444-8.444V364.22zm-68.89 1.448c0-17.855 13.512-31.97 32.21-31.97 9.894 0 17.373 4.101 20.751 7.238 1.931 1.688 3.016 4.102 3.016 6.515 0 2.051-.602 3.86-2.292 5.912l-15.564 18.578c-1.688 1.93-3.497 2.774-5.79 2.774-4.585 0-8.082-3.256-8.082-7.721 0-1.809.483-3.619 1.809-5.066l10.375-11.944c-.845-.362-2.895-.603-4.223-.603-8.565 0-15.199 7.238-15.199 16.287 0 9.047 6.513 16.286 15.199 16.286 4.466 0 7.481-1.81 9.532-3.499 2.413-2.05 4.101-3.861 7.359-3.861 4.705 0 8.324 3.379 8.324 8.083 0 1.69-.844 3.741-2.413 5.551-4.102 4.946-12.426 9.409-22.802 9.409-18.577 0-32.21-13.994-32.21-31.969zm-26.666 0c0-9.289-6.636-16.287-15.201-16.287-8.324 0-14.84 6.756-15.08 15.683v1.327c.24 9.05 6.756 15.563 15.08 15.563 8.565 0 15.201-6.877 15.201-16.286zm-30.643 25.937c-.965 3.499-4.223 6.032-8.083 6.032-4.705 0-8.445-3.739-8.445-8.444v-69.972c0-4.706 3.74-8.445 8.445-8.445s8.445 3.739 8.445 8.445v20.267c4.826-3.619 10.857-5.79 17.493-5.79 17.01 0 29.798 14.115 29.798 31.97 0 17.855-12.788 31.969-29.798 31.969-6.756 0-12.909-2.17-17.855-6.032zm-86.503-49.463c0-4.704 3.74-8.444 8.445-8.444 4.704 0 8.444 3.74 8.444 8.444v27.748c0 7.841 4.826 12.064 10.858 12.064 6.034 0 10.858-4.223 10.858-12.064v-27.748c0-4.704 3.74-8.444 8.446-8.444 4.703 0 8.445 3.74 8.445 8.444v27.145c0 17.01-12.186 28.35-27.749 28.35-15.562 0-27.747-11.34-27.747-28.35v-27.145zm-51.398 17.614c-.967-1.207-2.052-3.016-2.052-5.549 0-2.292.845-4.102 1.931-5.429l29.315-34.986c1.569-1.931 4.102-3.016 6.516-3.016 4.704 0 8.444 3.739 8.444 8.445 0 2.292-.723 3.981-2.051 5.549l-23.887 28.471 24.733 29.557c1.567 1.931 2.049 3.861 2.049 5.913 0 5.065-3.981 8.926-8.927 8.926-2.654 0-5.187-1.085-6.997-3.257l-29.074-34.624zm-22.56-39.932c0-4.946 4.101-9.048 9.047-9.048 4.947 0 9.049 4.102 9.049 9.048v68.765c0 4.947-4.102 9.048-9.049 9.048-4.946 0-9.047-4.101-9.047-9.048v-68.765z" class="fil3" id="Schrift"/></g></g></svg>