<svg xmlns="http://www.w3.org/2000/svg" role="img" viewBox="382.59 65.59 515.32 505.82"><title>KubeDB by AppsCode logo</title><defs><style>.cls-1{fill:#7272e9}.cls-2{fill:#4949a3}.cls-3{fill:#fff}</style></defs><path d="M781.52 148.78v184.6l-144.9 61.54v-81.39L718 279.79v-105.2l63.52-25.81zm-144.9-63.52l144.9 63.52L718 174.59l-81.38-35.73-81.38 35.73-61.54-25.81 142.92-63.52z" class="cls-1"/><path d="M636.62 313.53v81.39L493.7 333.38v-184.6l61.54 25.81v105.2l81.38 33.74z" class="cls-1"/><path d="M791.45 148.78v-4l-2-2-148.86-65.46a6 6 0 0 0-7.94 0l-144.9 61.54-2 2v188.6a10.93 10.93 0 0 0 6 9.93l142.91 61.53h11.91l142.92-61.53a10.93 10.93 0 0 0 6-9.93l-4-180.63zM636.62 97.17l117.11 51.61L718 164.66l-77.41-33.74a6 6 0 0 0-7.94 0l-77.42 31.76h-2l-33.74-13.9zM626.69 379l-123.06-53.6V162.68l41.68 17.86v97.26a10.92 10.92 0 0 0 6 9.93l75.43 31.76zm9.93-75.43l-71.46-29.78v-91.3l71.46-31.76 71.46 31.76v91.3zm133 21.83L646.54 379v-57.53L722 289.71a10.91 10.91 0 0 0 6-9.92v-99.25l41.68-17.86z" class="cls-2"/><path d="M718 279.79v-105.2l-81.38-35.73v105.2L718 279.79z" class="cls-3"/><path d="M718 279.79l-81.38-35.73-81.38 35.73 81.38 33.74L718 279.79z" class="cls-3"/><path d="M636.62 244.06v-105.2l-81.38 35.73v105.2l81.38-35.73z" class="cls-3"/><path d="M722 164.66l-81.38-33.74h-11.94l-77.42 33.74c-4 2-7.94 6-7.94 9.93v105.2c0 4 2 7.94 7.94 9.92l81.39 35.73a6 6 0 0 0 7.94 0L722 289.71c4-2 7.94-5.95 7.94-9.92v-105.2c-.03-3.97-4-7.94-7.94-9.93zm-156.84 17.87l61.53-25.81v83.37l-61.53 25.8zm71.46 121.08L581 279.79 636.62 256l55.58 23.82zm71.46-39.7l-61.54-25.8v-83.37l61.54 25.8z" class="cls-2"/><path d="M888.28 446.68v99.87c0 .34-.09.68-.13 1a12.34 12.34 0 0 1-4.23 7.95 12.53 12.53 0 0 1-8.51 3.14H814.6a12.13 12.13 0 0 1-7.39-2.6 12.31 12.31 0 0 1-5-10.15v-98.6a12.2 12.2 0 0 1 1.92-6.76 12.48 12.48 0 0 1 11.05-6h60a16 16 0 0 1 2.59.22A12.67 12.67 0 0 1 888 445.12c.15.54.21 1.05.28 1.56zm-77.4 49.9v49a4.63 4.63 0 0 0 0 .91 4 4 0 0 0 4 3.3h60.52a4.1 4.1 0 0 0 2.15-.55 4 4 0 0 0 2-3.68v-97.85a5.32 5.32 0 0 0-.16-1.38 3.93 3.93 0 0 0-3.95-2.92h-60.68a4 4 0 0 0-1.53.34 3.85 3.85 0 0 0-2.36 3.76q.02 24.55.01 49.07z" class="cls-1"/><path d="M873.39 492h-56v-25.13a16.14 16.14 0 0 1 2.56-9 12 12 0 0 1 8.4-5.39 16.49 16.49 0 0 1 8.21.76 11.12 11.12 0 0 1 7.18 7.8c.07.22.11.44.18.66a1.31 1.31 0 0 0 .2.28c.06-.09.16-.18.17-.29a15.81 15.81 0 0 1 1.16-4 12.44 12.44 0 0 1 9.3-7.43 15.89 15.89 0 0 1 9.15.73 13.53 13.53 0 0 1 7.55 7.57 20.78 20.78 0 0 1 1.69 6.61c.15 1.72.23 3.45.24 5.17v21.22zm-8.93-13.35v-6.36a11.5 11.5 0 0 0-.25-2.35 6.71 6.71 0 0 0-4.28-5.19 8.85 8.85 0 0 0-4.62-.34 5.5 5.5 0 0 0-4.62 3.76 11.46 11.46 0 0 0-.6 3.81v6.35a2.83 2.83 0 0 0 0 .29zm-38.42 0h13.53v-5.21a13 13 0 0 0-.26-2.32 5.89 5.89 0 0 0-3.54-4.52 8.22 8.22 0 0 0-3.95-.58 5.69 5.69 0 0 0-5 3.32 9 9 0 0 0-.82 3.81v5.46zm47.35 62.92h-56v-22.35a21.47 21.47 0 0 1 2.11-9.58 17.8 17.8 0 0 1 8.14-8.06 29.48 29.48 0 0 1 8.26-2.67 54.2 54.2 0 0 1 12-.7 42.11 42.11 0 0 1 11.52 1.87 22.45 22.45 0 0 1 7 3.61 17.34 17.34 0 0 1 6.25 9.87 25.83 25.83 0 0 1 .69 6.19v21.41zm-47.27-13.45h38.14c.17 0 .23-.07.22-.23 0-2.15 0-4.31-.13-6.45a8.5 8.5 0 0 0-3-5.93 13.79 13.79 0 0 0-5.35-2.81 34.51 34.51 0 0 0-8-1.22 48.3 48.3 0 0 0-10.61.51 18.68 18.68 0 0 0-6.05 2 9.49 9.49 0 0 0-5.13 8.32c-.09 1.82 0 3.65-.06 5.48-.05.1-.04.21-.03.33z" class="cls-1"/><path d="M554.55 532a5.14 5.14 0 0 1-1.4 3.58 4.53 4.53 0 0 1-3.46 1.54h-14.06a4.52 4.52 0 0 1-3.45-1.54 5.1 5.1 0 0 1-1.4-3.58v-97.71h-13.24q-10.48 15-21 29.88v63.7c0 .41.07.74.08 1.14q7.14 10.17 14.26 20.35 3.95 5.61 7.86 11.22a45 45 0 0 0 9.51 1h5.37q16.11 0 24-9v6.4h31.19V434.29h-34.26zm235.57-23.18v-40.4q0-33.75-31.7-33.75h-28.89q-31.71 0-31.71 33.75v59.45q0 33.75 31.71 33.75h28.89q31.7 0 31.7-33.75v-9.71h-34.26V532a5.11 5.11 0 0 1-1.41 3.58 4.52 4.52 0 0 1-3.45 1.54h-14.06a4.49 4.49 0 0 1-3.45-1.54 5.11 5.11 0 0 1-1.41-3.58v-23.18zm-58-45.52a5.1 5.1 0 0 1 1.41-3.57 4.46 4.46 0 0 1 3.45-1.54H751a4.49 4.49 0 0 1 3.45 1.54 5.1 5.1 0 0 1 1.41 3.57v23h-23.78z" class="cls-2"/><path d="M487.14 473.77l.01.11-.08-.04.07-.07z" class="cls-3"/><path d="M481.41 473.84c1.27-1.5 2.66-2.92 3.79-4.52q10.74-15.15 21.39-30.38c1-1.4 1.9-2.85 3.05-4.6h-2.28c-11.48 0-23 .26-34.45-.11-5.14-.16-8.25 1.15-11.3 5.72-10.56 15.84-21.84 31.22-32.79 46.81-5.11 7.28-5 12.67.17 19.94 1.16 1.63 2.29 3.28 3.46 4.91 7 9.82 14.06 19.61 21 29.46 3.68 5.22 7.22 10.53 10.76 15.84a4 4 0 0 0 3.76 2c13.11-.09 26.21 0 39.32 0h2.22c-.46-.84-.7-1.4-1-1.89-2.87-4.13-5.77-8.25-8.66-12.38-9.19-13.08-18.41-26.14-27.54-39.27-2.86-4.13-4.12-8.77-1.92-13.52a94.63 94.63 0 0 1 6-10c1.68-2.71 3.42-5.38 5.14-8.07zM393 496.64v59.4c0 2.15.45 2.92 2.76 2.89q15-.2 30 0c2.15 0 2.54-.71 2.53-2.65-.08-11 0-22-.11-33.06a8 8 0 0 0-1.33-4c-1.93-3-4.15-5.92-6.15-8.94-5.46-8.21-6.3-16.72-1.19-25.39 2.07-3.5 4.48-6.8 6.88-10.09a9.47 9.47 0 0 0 1.9-6q-.15-15.94 0-31.89c0-2-.48-2.68-2.56-2.66q-15 .15-30 0c-2.09 0-2.75.52-2.74 2.71.01 19.92.01 39.8.01 59.68z" class="cls-1"/><path d="M658.53 461.28h-5.37q-12.79 0-21 6.13v-32.48h-34.23v124.13h28.89v-9.2q7.92 11.76 26.34 11.76h5.37q31.69 0 31.7-33.75V495q0-33.72-31.7-33.72zM653 532a5.11 5.11 0 0 1-1.41 3.58 4.49 4.49 0 0 1-3.45 1.54h-14.05a4.49 4.49 0 0 1-3.45-1.54 5.11 5.11 0 0 1-1.41-3.58v-41a5.11 5.11 0 0 1 1.41-3.58 4.49 4.49 0 0 1 3.45-1.54h14.06a4.49 4.49 0 0 1 3.45 1.54 5.11 5.11 0 0 1 1.41 3.58z" class="cls-2"/></svg>