<svg xmlns="http://www.w3.org/2000/svg" role="img" viewBox="-0.44 2.81 360.62 352.62"><title>KubeVirt logo</title><defs><style>.cls-1{fill:none}.cls-3{fill:#fff}</style></defs><g id="Layer_2" data-name="Layer 2"><path id="svg10488" d="M52.35 285.844c-1.87 1.995-3.928 4.24-6.235 6.734s-4.739 4.989-7.295 7.607c-2.494 2.557-4.989 5.113-7.483 7.608s-4.863 4.8-7.046 6.983a74.97 74.97 0 0 1 8.106 6.61 132.007 132.007 0 0 1 8.356 8.355c2.743 2.993 5.3 5.986 7.732 9.104a71.113 71.113 0 0 1 5.986 8.854H44.307a80.943 80.943 0 0 0-6.173-8.418 113.452 113.452 0 0 0-7.358-8.106 104.696 104.696 0 0 0-7.857-7.17 62.706 62.706 0 0 0-7.731-5.612v29.306H6.52v-61.855h8.668v27.311c2.057-1.933 4.364-4.178 6.859-6.672s4.988-4.926 7.42-7.42 4.739-4.863 6.92-7.17 3.992-4.303 5.488-6.049zm45.02 60.483c-1.933.5-4.427.998-7.545 1.497a70.032 70.032 0 0 1-10.85.81 23.31 23.31 0 0 1-8.978-1.558 13.728 13.728 0 0 1-5.862-4.427 17.188 17.188 0 0 1-3.18-6.735 36.458 36.458 0 0 1-.997-8.605v-26.001h8.293v24.256c0 5.674.873 9.664 2.681 12.159 1.808 2.431 4.801 3.678 8.979 3.678.873 0 1.808 0 2.744-.062s1.87-.125 2.68-.25c.811-.062 1.622-.186 2.246-.249a6.401 6.401 0 0 0 1.496-.311v-39.221h8.293zm22.011-42.961a20.44 20.44 0 0 1 4.614-2.058 21.147 21.147 0 0 1 7.109-1.06 20.487 20.487 0 0 1 8.854 1.808 17.817 17.817 0 0 1 6.547 4.988 21.138 21.138 0 0 1 4.053 7.67 32.59 32.59 0 0 1 1.372 9.79 29.313 29.313 0 0 1-1.621 10.1 21.294 21.294 0 0 1-4.677 7.608 20.375 20.375 0 0 1-7.295 4.801 25.367 25.367 0 0 1-9.603 1.684 57.229 57.229 0 0 1-10.288-.81c-2.993-.562-5.425-1.06-7.296-1.622V279.92l8.293-1.434zm0 37.1a34.516 34.516 0 0 0 3.492.686 42.684 42.684 0 0 0 5.674.312 13.825 13.825 0 0 0 10.725-4.427c2.681-2.93 3.99-7.109 3.99-12.533a34.117 34.117 0 0 0-.685-6.672 16.03 16.03 0 0 0-2.307-5.425 11.292 11.292 0 0 0-4.116-3.554 13.02 13.02 0 0 0-6.11-1.31 16.536 16.536 0 0 0-6.236 1.185 15.04 15.04 0 0 0-4.365 2.432zm41.154-15.9a29.786 29.786 0 0 1 1.746-10.725 22.98 22.98 0 0 1 4.739-7.607 19.188 19.188 0 0 1 6.796-4.552 21.196 21.196 0 0 1 7.857-1.497c6.235 0 11.036 1.933 14.341 5.862 3.305 3.866 4.988 9.852 4.988 17.77v2.931h-31.8c.374 4.802 1.746 8.48 4.178 10.975s6.235 3.74 11.41 3.74a29.213 29.213 0 0 0 7.358-.747 27.093 27.093 0 0 0 4.49-1.497l1.184 6.921a26.216 26.216 0 0 1-5.3 1.684 36.336 36.336 0 0 1-8.605.873 28.737 28.737 0 0 1-10.475-1.808 19.489 19.489 0 0 1-7.233-5.051 20.794 20.794 0 0 1-4.24-7.607 28.409 28.409 0 0 1-1.434-9.665zm31.8-4.552a13.937 13.937 0 0 0-2.806-9.228 9.639 9.639 0 0 0-7.98-3.617 10.882 10.882 0 0 0-5.052 1.123 10.507 10.507 0 0 0-3.678 2.93 14.18 14.18 0 0 0-2.37 4.116 20.2 20.2 0 0 0-1.122 4.738zm70.523-34.17c-2.245 6.547-4.427 12.596-6.423 18.145-2.057 5.55-4.053 10.85-6.048 15.838-1.933 4.988-3.928 9.79-5.861 14.341s-3.929 9.104-5.924 13.531h-8.106c-1.995-4.49-3.99-8.979-5.924-13.53s-3.866-9.354-5.861-14.342-4.053-10.288-6.11-15.838-4.24-11.598-6.423-18.145h9.54c3.18 9.416 6.36 18.457 9.478 27.124s6.298 16.836 9.54 24.443c3.242-7.545 6.422-15.651 9.54-24.38s6.236-17.771 9.353-27.125zm11.598 7.046a5.427 5.427 0 0 1-3.804-1.496 5.887 5.887 0 0 1 0-7.982 5.582 5.582 0 0 1 7.607 0 5.887 5.887 0 0 1 0 7.982 5.073 5.073 0 0 1-3.803 1.496zm4.177 54.747h-8.293v-46.33h8.293zm30.865-47.327c.686 0 1.56.063 2.432.125a20.706 20.706 0 0 1 2.744.374c.873.125 1.683.312 2.432.437l1.683.374-1.434 7.233a26.41 26.41 0 0 0-9.104-1.31 23.221 23.221 0 0 0-4.614.5c-1.496.31-2.494.56-2.993.685v38.971h-8.293v-44.458a60.177 60.177 0 0 1 7.296-1.995 52.704 52.704 0 0 1 9.851-.936zm24.568.998h17.584v6.984h-17.584v21.387a22.131 22.131 0 0 0 .561 5.737 8.399 8.399 0 0 0 1.621 3.554 5.295 5.295 0 0 0 2.682 1.808 12.65 12.65 0 0 0 3.74.561 16.75 16.75 0 0 0 6.05-.873c1.496-.561 2.556-.935 3.18-1.185l1.62 6.86a36.359 36.359 0 0 1-4.364 1.558 22.987 22.987 0 0 1-7.109.936 21.923 21.923 0 0 1-7.794-1.185 11.427 11.427 0 0 1-4.926-3.617 14.078 14.078 0 0 1-2.619-5.923 35.908 35.908 0 0 1-.748-8.169v-41.403l8.293-1.434z"/></g><path d="M58.975 163.37a19.582 19.582 0 0 0 3.153 8.087l38.93 48.116-38.93-48.253a18.329 18.329 0 0 1-3.153-7.95zm0 0a8.432 8.432 0 0 1-.137-1.783 8.432 8.432 0 0 0 .137 1.783zm72.516 85.95a14.342 14.342 0 0 1-2.33-.549c.822.138 1.508.412 2.33.549zm50.72-233.725c.549.138 1.234.138 1.782.275-.548-.137-1.233-.137-1.782-.275zm88.692 41.673a15.026 15.026 0 0 1 2.879 1.92 15.026 15.026 0 0 0-2.879-1.92zm29.61 107.472c0 .275-.137.549-.137.823a1.739 1.739 0 0 1 .137-.823zM183.856 15.87a8.867 8.867 0 0 1 1.782.548c-.548-.137-1.096-.411-1.782-.548zm87.047 41.398L186.461 16.83l-.823-.411.823.411zm-88.692-41.673a16.59 16.59 0 0 0-2.604-.137 33.18 33.18 0 0 0-5.21.275 32.322 32.322 0 0 1 5.21-.275 16.59 16.59 0 0 1 2.604.137zm-9.595.412L88.173 56.72a12.573 12.573 0 0 0-2.878 1.782 32.792 32.792 0 0 1 2.878-1.782z" class="cls-1"/><path d="M179.88 249.457h-46.607a7.816 7.816 0 0 1-1.782-.137 7.816 7.816 0 0 0 1.782.137h93.079a28.861 28.861 0 0 0 3.427-.274 28.857 28.857 0 0 1-3.427.274zm121.044-91.434l-21.11-90.474c-.138-.548-.412-1.096-.549-1.645a7.728 7.728 0 0 1 .549 1.645zm-18.232 31.667l14.805-18.37a21.819 21.819 0 0 0 1.782-3.016 21.816 21.816 0 0 1-1.782 3.016zM79.948 67.001l-20.836 91.022 20.836-91.022a15.06 15.06 0 0 1 5.21-8.362l.137-.137a14.066 14.066 0 0 0-5.347 8.5z" class="cls-1"/><path fill="#00aab2" d="M128.887 146.783l-32.9-67.17h55.518l22.207 40.987-7.676 14.12-.275.137-22.48-41.673h-24.539l38.658 81.975 5.483-10.419a6.898 6.898 0 1 1 12.2 6.443l-10.007 18.78-7.677 14.257 22.482 45.1 21.248-41.947a6.953 6.953 0 0 1-9.596 1.508 6.668 6.668 0 0 1-2.056-8.5l4.935-9.87a6.764 6.764 0 0 1 9.321-2.467 6.993 6.993 0 0 1 3.016 8.362l10.007-19.74a6.861 6.861 0 0 1-11.652-7.128l9.87-19.602a6.836 6.836 0 0 1 12.2 6.168l-2.467 4.798 12.611-24.949a6.839 6.839 0 0 1-11.789-6.854l9.733-19.603a6.836 6.836 0 0 1 12.2 6.17l-5.483 11.103 15.627-30.844a6.807 6.807 0 0 1-9.321 2.605 6.969 6.969 0 0 1-3.29-4.524h-8.225a6.854 6.854 0 1 1 0-13.708h28.65l-6.854 13.571 16.86-33.31a14.517 14.517 0 0 0-1.644-1.372c-.96-.685-1.92-1.37-2.879-1.919L186.461 16.83l-.823-.411a6.787 6.787 0 0 0-1.782-.548 6.88 6.88 0 0 0-1.645-.275 16.59 16.59 0 0 0-2.604-.137 33.18 33.18 0 0 0-5.21.275c-.548.137-1.096.137-1.781.274L88.173 56.72a12.573 12.573 0 0 0-2.878 1.782l-.138.137zm68.678-44.552l12.063-23.03h4.386a6.368 6.368 0 0 1 3.153.823 6.95 6.95 0 0 1 2.879 9.321l-10.418 19.329a6.839 6.839 0 1 1-12.063-6.443zm-21.111 40.028l10.281-19.329a6.95 6.95 0 0 1 9.322-2.878 6.832 6.832 0 0 1 2.878 9.321l-10.28 19.329a6.95 6.95 0 0 1-9.322 2.879 6.868 6.868 0 0 1-2.88-9.322z"/><path d="M74.465 65.767l-20.7 91.023v.274a23.099 23.099 0 0 0 3.976 17.41l.137.136.137.137 58.26 72.38.137.274.274.137A25.37 25.37 0 0 0 133 254.94h93.353c7.265 0 13.297-2.879 17.135-7.95l58.397-72.243.137-.137.137-.137a23.824 23.824 0 0 0 4.25-17.135l-.138-.548-21.11-90.611v-.412a23.227 23.227 0 0 0-11.515-13.434h-.274l-84.443-40.439a19.992 19.992 0 0 0-9.321-1.919 33.37 33.37 0 0 0-8.225.685l-.548.138-.549.274-84.442 40.713a20.572 20.572 0 0 0-11.378 13.982zM88.31 56.72l84.306-40.713a6.88 6.88 0 0 1 1.645-.274 34.94 34.94 0 0 1 5.346-.275 16.59 16.59 0 0 1 2.604.137c.549.138 1.234.138 1.782.275a8.867 8.867 0 0 1 1.782.548l.823.411 84.442 40.44a15.026 15.026 0 0 1 2.879 1.918 14.52 14.52 0 0 1 1.645 1.371 17.228 17.228 0 0 1 3.701 5.21 7.727 7.727 0 0 1 .549 1.644l21.11 90.611a18.541 18.541 0 0 1-.411 6.717c0 .275-.137.549-.137.823a19.25 19.25 0 0 1-2.742 5.894l-14.805 18.37-43.592 53.873a14.026 14.026 0 0 1-9.321 5.483 28.857 28.857 0 0 1-3.427.274h-93.216c-.548 0-1.234-.137-1.782-.137a14.342 14.342 0 0 1-2.33-.548 21.716 21.716 0 0 1-8.774-5.072l-19.465-24.127-38.794-48.253a18.219 18.219 0 0 1-3.153-8.088 6.674 6.674 0 0 1-.137-1.645 15.632 15.632 0 0 1 .274-3.564l20.836-91.022a15.374 15.374 0 0 1 5.484-8.499 10.19 10.19 0 0 1 2.878-1.782z" class="cls-3"/><path fill="#00797f" d="M179.88 249.457l-22.48-45.1-.275.411-28.238-57.985L85.02 58.639a14.61 14.61 0 0 0-5.209 8.362l-20.7 91.022a15.632 15.632 0 0 0-.273 3.564 8.432 8.432 0 0 0 .137 1.783 19.582 19.582 0 0 0 3.153 8.087l38.93 48.253 19.467 23.852a20.603 20.603 0 0 0 8.636 5.072 11.608 11.608 0 0 0 2.33.549 7.816 7.816 0 0 0 1.782.137h46.608z"/><path fill="#3accc5" d="M257.743 95.651l-15.627 30.844-4.25 8.499a2.997 2.997 0 0 1-.41.685l-12.612 24.812-7.403 14.805c-.137.274-.41.685-.548.96l-10.007 19.876c0 .137 0 .137-.137.274l-4.935 9.87c-.137.274-.411.686-.548.96l-21.248 41.947h46.47a28.861 28.861 0 0 0 3.428-.274 14.345 14.345 0 0 0 9.321-5.484l43.592-53.873 14.805-18.369a17.87 17.87 0 0 0 2.742-5.894 1.739 1.739 0 0 0 .137-.823 18.356 18.356 0 0 0 .411-6.717l-20.973-90.474c-.137-.548-.412-1.096-.549-1.645a17.229 17.229 0 0 0-3.7-5.209L258.84 93.595z"/><path d="M179.196 151.443a6.868 6.868 0 0 0 9.321-2.878l10.281-19.329a6.899 6.899 0 0 0-12.2-6.443l-10.281 19.329a7.075 7.075 0 0 0 2.879 9.321zm27.553 45.1c0-.137 0-.137.137-.274a6.69 6.69 0 0 0-3.975-8.773 6.835 6.835 0 0 0-8.362 3.016l-4.935 9.87a6.855 6.855 0 0 0 3.153 9.184 6.964 6.964 0 0 0 9.184-3.016zm-49.349 7.814l7.676-14.256 10.007-18.78a6.898 6.898 0 1 0-12.2-6.444l-5.483 10.419-38.657-82.112h24.537l22.482 41.673.274-.138 7.54-14.119-22.208-41.124H95.85l32.9 67.17 28.512 57.985zM258.703 93.87l6.854-13.572h-28.65a6.854 6.854 0 1 0 0 13.708h8.225a6.898 6.898 0 0 0 8.225 5.21 6.969 6.969 0 0 0 4.523-3.29l.138-.138zm-16.587 32.762l5.483-11.104a6.69 6.69 0 0 0-3.015-9.184 6.803 6.803 0 0 0-9.185 3.015v.137l-9.733 19.603a6.855 6.855 0 0 0 3.153 9.185 6.964 6.964 0 0 0 9.185-3.016zm-17.272 34.133l2.467-4.798a6.836 6.836 0 0 0-12.2-6.169l-9.733 19.603a6.855 6.855 0 0 0 3.153 9.185 6.964 6.964 0 0 0 9.184-3.016zm-24.401-49.212a6.712 6.712 0 0 0 9.185-2.88l10.28-19.328a6.868 6.868 0 0 0-2.878-9.321 6.368 6.368 0 0 0-3.153-.823h-4.25l-12.063 23.03a7.116 7.116 0 0 0 2.88 9.322z" class="cls-3"/></svg>