<svg xmlns="http://www.w3.org/2000/svg" role="img" viewBox="10.74 4.74 1105.52 190.52"><title>Kuberhealthy logo</title><path d="M257 26.7c-.6 16.2.3 104 1.1 105.4.7 1.5 2.1 1.9 5.9 1.9 8.4 0 8 .9 8-17.8V99.5l17.3 17.3 17.2 17.2h5.2c5.9 0 8.3-.7 8.3-2.4 0-.6-7.2-8.3-16-17.1l-16-15.9 2.2-2.5c1.2-1.4 7.4-7.8 13.7-14.3 13.4-13.7 13.7-14.8 3.4-14.8h-6.8l-14.2 14.7-14.2 14.8V63.2c-.1-21-.5-34-1.1-35.3-.9-1.6-2.2-1.9-7.5-1.9-3.6 0-6.5.3-6.5.7zm156.9 0c-.1.5 0 1.2.2 1.8.2.5.6 24.4.9 53l.5 52 4.8-.1c3.4 0 5.4-.6 6.8-2.1l2.1-2 5.9 2.4c20.1 8.1 39.3-3.5 42.9-25.9 4.1-26.3-19-46.1-43-36.9-3 1.2-5.6 2.1-5.7 2.1-.2 0-.3-9.3-.3-20.6 0-12.2-.4-21.3-1-22.5-.9-1.6-2.2-1.9-7.5-1.9-3.6 0-6.6.3-6.6.7zm39.4 54.7c4.4 1.8 9.5 7.8 10.3 12.1 2.2 11.7-2 22-10.3 25.7-5.5 2.4-14.6 2.1-20.5-.8l-3.8-1.8V85.1l3.2-1.7c7-3.6 15.4-4.4 21.1-2zm177.5-2.7c.1 29.1.5 53.4.7 54.1.3.9 2.3 1.2 6.7 1l6.3-.3.3-22.7.2-22.7 3.7-3c7.3-6 16.6-7.6 23.9-4.1 6.8 3.4 7.4 5.5 7.4 28.9 0 18.9.1 20.2 2.1 22.2 1.6 1.6 3 1.9 7.2 1.7l5.2-.3-.3-24c-.3-23.7-.4-24.1-3-29.5-3.3-6.7-9.6-11.3-17.8-13-7.5-1.6-14.4-.5-22 3.5l-6.4 3.4V51.1c0-16.3-.3-23-1.2-23.9-.7-.7-3.9-1.2-7.2-1.2h-6.1l.3 52.7zm231.2-.2V131l2.4 1.5c1.5 1 4 1.5 6.8 1.3l4.3-.3.3-53.8.2-53.7h-14v52.5zm87.8.2c.1 29.1.5 53.4.7 54.1.3.9 2.3 1.2 6.7 1l6.3-.3.3-22.8.2-22.7 4.8-3.4c4.8-3.5 10.8-5.6 15.9-5.6 4 .1 10.9 3.4 12.5 6.2.9 1.6 1.4 8.6 1.8 24.1.5 20.2.7 22 2.4 23.3 2.5 1.8 12.6 1.9 12.6.1.4-12.7-.3-43.2-1.1-46.9-3.8-17.4-26.5-25.2-43.2-14.8-2.6 1.6-5 3-5.3 3-.2 0-.4-10.3-.4-22.8 0-16.4-.3-23.1-1.2-24-.7-.7-3.9-1.2-7.2-1.2h-6.1l.3 52.7zM90.5 29.1C72.1 31 55.8 45 50.5 63.5c-1.4 4.6-1.6 8.2-1.2 15.7l.5 9.8H32v8h22l1.9 3.7c1.1 2.1 3.9 5.8 6.3 8.2 8.1 8.1 63.9 60.6 64.8 60.9.5.2 11.6-9.7 24.7-21.9 33.4-31.2 42.9-40.6 46.3-45.7 16.3-24.7 5.9-59.2-20.8-69.2-14.4-5.4-34.5-1.9-46.3 8l-3.2 2.7-6.2-4.7c-11.4-8.6-19.3-11.1-31-9.9zm16.7 9.2c2.9 1.3 8.7 5.1 12.8 8.4l7.5 6.1 4.5-3.7c7-5.8 10.9-7.8 19.5-10.2 8.9-2.4 15.4-2.2 24 .7 7.3 2.5 17.5 12.9 20.5 20.9 2.9 7.5 3.6 16.2 2.1 23.2l-1.3 5.4-13.1-.3-13.1-.3-7.6-12.6-7.5-12.7-7.4 22c-4.1 12-7.7 22.1-8 22.3-.4.2-2.7-4.5-5.2-10.3l-4.5-10.7-8.2-.3-8.1-.3-3.7 5.6c-2 3-4 5.3-4.3 4.9-.3-.3-3.1-7.9-6.1-17l-5.5-16.5L88 76l-6.4 13H69.8c-7.9 0-11.9-.4-12.4-1.2-1.4-2.3-1.7-16.7-.4-21.6 3.8-13.8 14-24.5 27.5-28.8 6.8-2.1 16.7-1.7 22.7.9zm73 58.7c12.6 0 12.8 0 11.8 2-.6 1.1-15.3 15.5-32.7 32l-31.6 29.9-6.6-5.9c-12.3-11-56.4-53.5-57.9-55.8L61.8 97H85l3.9-7.7 3.9-7.8 1.4 3.5c.8 1.9 3.2 8.7 5.3 15 2 6.3 4.1 11.9 4.5 12.3.4.4 3.5-3.5 7-8.8l6.3-9.5h4.2c4.8 0 3.6-1.8 12.7 19.5 3.3 7.7 6.2 14.1 6.3 14.3.2.2 3.8-10.2 8-23 4.3-12.8 8-23.7 8.3-24.2.2-.5 2.7 3 5.5 7.8l5 8.6h12.9zm728.6-42.8c-2.8 5.5-6.4 10.4-10.5 14.6-4.9 4.9-6.3 6.9-6.3 9.2 0 2.9.1 3 4.9 3h5l.3 20.2c.3 22.4 1.2 25.9 7.1 30.2 3.8 2.8 16.6 3.5 22 1.3 3.4-1.5 3.6-1.8 3-4.9-1.4-7.6-1.7-7.9-7.5-7.2-4.4.5-5.7.3-7.8-1.4-2.5-2-2.5-2.2-2.8-20.1l-.3-18 8.3-.3 8.3-.3.3-4.4c.6-8.7.2-9.1-8.8-9.1h-8V56.5c0-13.3-1.3-13.7-7.2-2.3zM513.1 68.1c-8.5 2.7-16.7 10.7-19.9 19.2-4.8 12.7-2.1 27.6 6.6 36.5 6.7 6.8 12.8 9.4 23.2 10 10.7.5 18.2-2 24.9-8.4 4.4-4.1 4.5-4.3 3.1-6.9-2.1-3.9-3.5-4.1-8.9-1.2-10.7 5.9-22.7 5.6-29.7-.5-3.3-3-6.4-7.6-6.4-9.7 0-.6 8.5-1.1 22.9-1.3 26.7-.4 27.1-.5 27.1-8.9 0-12.7-9.2-25-21.5-28.8-8.3-2.6-13.1-2.6-21.4 0zm20 14.1c3.6 2 7.9 8.1 7.9 11.2 0 1.4-2.1 1.6-17.5 1.6-16.4 0-17.5-.1-17.5-1.9 0-2.4 3.8-7.9 7.1-10.4 5.5-4 13.3-4.2 20-.5zm197-14.1c-8.6 2.8-16.9 10.8-20.1 19.4-4.7 12.9-2 27.7 6.9 36.5 6.7 6.7 12.8 9.2 23.1 9.8 10.7.5 18.2-2 24.9-8.4 4.4-4.1 4.5-4.3 3.1-6.9-.8-1.5-2-3-2.7-3.2-.7-.3-4.2 1-7.9 2.8-5.8 2.9-7.8 3.3-13.8 3.3-3.9 0-8.2-.7-9.6-1.4-5-2.6-11-9.6-11-12.9 0-.6 8.6-1.1 23.1-1.3 22.9-.3 23.1-.3 25-2.7 2.6-3.1 2.5-9.5-.3-16.8-5.8-15.6-23.9-23.7-40.7-18.2zM749 81.5c4.3 2.2 9 8.4 9 11.9 0 1.4-2.3 1.6-17.5 1.6-16.4 0-17.5-.1-17.5-1.9 0-2.4 3.8-7.9 7.1-10.4 5-3.6 13-4.2 18.9-1.2zM808.8 67c-6 1-16.9 4.6-19.4 6.4-1.8 1.3-1.8 1.5.1 5.7 1 2.4 2.2 4.8 2.6 5.3.4.5 4-.3 8.1-1.8 13.7-5.1 24.2-4.5 27.3 1.5 2.6 5 2.2 5.5-7.7 7.4-11.6 2.2-22.2 5.8-26.8 9-12.7 8.8-9.8 28.4 4.8 32.5 8.8 2.4 22.9.4 28.7-4.1 2.2-1.8 2.9-2 3.6-.8.5.8.9 1.9.9 2.6 0 2 3.8 3.4 8.3 3.1l4.2-.3-.2-4c-.1-2.2-.4-13.6-.7-25.3-.4-19.3-.7-21.7-2.7-25.8-4.7-9.9-15.9-13.9-31.1-11.4zm19.2 42.5v7.5l-5.2 2.6c-6.2 3.2-15.9 4.2-19.8 2.2-6-3.2-4.6-9.9 3-13.8 3.4-1.8 16.9-5.6 20.8-5.9.8-.1 1.2 2 1.2 7.4zM333.8 89.7c.1 12.6.7 24.7 1.3 27 4.1 15.6 25 22.3 42.1 13.4l5.8-3 .6 2.5c.8 3.1 3.2 4.4 8.3 4.4 3 0 4.3-.5 5.1-1.9 1.2-2.4 1.4-62 .1-63.9-.5-.9-2.7-1.2-7.2-1l-6.4.3-.3 22.2-.2 22.2-4.2 3.6c-10.7 9.1-25.8 7.7-29.7-2.8-.7-1.7-1.1-11.1-1.1-22.7 0-23.2.1-23-8.8-23h-5.7l.3 22.7zm236.7-21.4c-.3.7-.4 15.6-.3 33.2l.3 32h13l.5-22c.6-24.8.9-25.9 8.3-29.6 4-2.1 8-2.2 16.3-.4 2.9.6 3.4.3 6.3-3.8 1.7-2.5 3.1-5.1 3.1-5.7 0-2.2-8.3-5-15.1-5-5.4 0-7.7.6-12.5 3-6.9 3.5-6.4 3.4-6.4 1.7 0-.8-.8-2.1-1.8-3-2.2-2.1-11-2.3-11.7-.4zm455.5-.1c0 .7 6.3 13.4 14 28.3 7.7 14.8 14 27.2 14 27.5 0 1.7-13.6 24.2-18.7 30.7-3.2 4.2-6.4 8.4-7.2 9.5-1.3 1.7-1 2.3 3 6.4 2.4 2.4 4.8 4.4 5.5 4.4 2.3 0 14.9-17.7 23.2-32.6 5.8-10.5 36.2-72.9 36.2-74.4 0-.6-3.2-1-7.4-1h-7.3l-9.8 21c-5.4 11.5-10 20.9-10.1 20.7-.1-.1-4.9-9.4-10.6-20.7l-10.3-20.5-7.2-.3c-5.5-.2-7.3 0-7.3 1z"/></svg>