<svg xmlns="http://www.w3.org/2000/svg" role="img" viewBox="-13.49 -13.49 701.48 148.48"><path fill="none" d="M-1-1h682v132H-1z"/><path fill="#518db5" d="M117.072 4.237l5.248 2.869c.572.313 1.501.313 2.073 0l5.248-2.87c.572-.309.572-.82 0-1.133L124.393.234c-.572-.312-1.501-.312-2.073 0l-5.248 2.87c-.575.313-.575.823 0 1.133"/><path fill="#3d647f" d="M123.888 9.77v5.643c0 .655.464.93 1.036.615l5.248-2.87c.574-.311 1.036-1.095 1.036-1.749V5.768c0-.653-.462-.93-1.036-.617-1.393.762-3.854 2.109-5.248 2.869-.572.313-1.036 1.097-1.036 1.75"/><path fill="#518db5" d="M125.78 17.994c1.392.763 3.854 2.107 5.247 2.87.572.313 1.503.313 2.073 0l5.25-2.87c.57-.312.57-.82 0-1.133l-5.25-2.87c-.57-.311-1.5-.311-2.073 0l-5.248 2.87c-.573.313-.573.821 0 1.133"/><path fill="#3d647f" d="M132.595 23.528v5.643c0 .652.464.928 1.038.615l5.248-2.87c.572-.314 1.036-1.096 1.036-1.75v-5.643c0-.65-.464-.927-1.036-.615-1.394.763-3.855 2.107-5.248 2.87-.574.313-1.038 1.097-1.038 1.75"/><path fill="#518db5" d="M134.112 32.036c1.394.763 3.855 2.11 5.248 2.87.572.313 1.503.313 2.074 0l5.25-2.87c.57-.31.57-.82 0-1.133l-5.25-2.87c-.57-.312-1.502-.312-2.074 0l-5.248 2.87c-.573.313-.573.824 0 1.133"/><path fill="#3d647f" d="M140.929 37.57v5.643c-.002.654.464.93 1.037.614l5.248-2.869c.572-.312 1.036-1.096 1.036-1.75v-5.64c0-.654-.464-.93-1.036-.618-1.393.763-3.855 2.11-5.248 2.87-.573.313-1.037 1.097-1.037 1.75"/><path fill="#518db5" d="M119.214 32.036c1.393.763 3.856 2.11 5.248 2.87.572.313 1.502.313 2.074 0l5.248-2.87c.572-.31.572-.82 0-1.133l-5.248-2.87c-.572-.312-1.502-.312-2.074 0l-5.248 2.87c-.574.313-.574.824 0 1.133"/><path fill="#3d647f" d="M126.032 37.57v5.643c-.002.654.464.93 1.036.614l5.248-2.869c.573-.312 1.036-1.096 1.036-1.75v-5.64c0-.654-.463-.93-1.036-.618-1.394.763-3.855 2.11-5.248 2.87-.572.313-1.036 1.097-1.036 1.75"/><path fill="#518db5" d="M110.78 17.994c1.392.763 3.855 2.107 5.247 2.87.572.313 1.503.313 2.075 0l5.248-2.87c.572-.312.572-.82 0-1.133l-5.248-2.87c-.572-.311-1.503-.311-2.075 0l-5.248 2.87c-.573.313-.573.821 0 1.133"/><path fill="#3d647f" d="M117.597 23.528v5.643c-.002.652.464.928 1.036.615l5.248-2.87c.573-.314 1.036-1.096 1.036-1.75v-5.643c0-.65-.463-.927-1.036-.615-1.394.763-3.855 2.107-5.248 2.87-.572.313-1.036 1.097-1.036 1.75"/><path fill="#518db5" d="M104.01 32.036c1.394.763 3.855 2.11 5.249 2.87.572.313 1.502.313 2.073 0l5.25-2.87c.57-.31.57-.82 0-1.133l-5.25-2.87c-.57-.312-1.501-.312-2.073 0l-5.248 2.87c-.574.313-.574.824 0 1.133"/><path fill="#3d647f" d="M110.827 37.57v5.643c-.001.654.464.93 1.038.614l5.248-2.869c.572-.312 1.036-1.096 1.036-1.75v-5.64c0-.654-.464-.93-1.036-.618-1.394.763-3.855 2.11-5.248 2.87-.574.313-1.038 1.097-1.038 1.75"/><path fill="#518db5" d="M48.219 40.609c2.82-1.63 7.39-1.63 10.215 0l16.59 9.579c.575.33 1.119.778 1.635 1.278L95.58 41.125c3.879-2.12 3.879-5.555 0-7.675L60.062 14.03c-3.876-2.118-10.163-2.118-14.039 0L10.502 33.45c-3.876 2.12-3.876 5.555.001 7.675 5.083 2.776 12.264 6.703 19.284 10.539.572-.588 1.19-1.099 1.843-1.476l16.589-9.579z"/><path fill="#3d647f" d="M99.177 47.31c-5.049 2.76-12.174 6.655-19.15 10.471.068.424.104.843.104 1.252v19.16c0 3.256-2.284 7.212-5.107 8.84l-16.59 9.58c-.538.308-1.153.54-1.791.732l-.002 19.423c0 4.419 3.143 6.281 7.018 4.161l35.52-19.425c3.876-2.119 7.02-7.421 7.02-11.837V51.47c0-4.416-3.144-6.282-7.022-4.162"/><path fill="#273945" d="M31.63 87.033c-2.82-1.628-5.103-5.584-5.103-8.84v-19.16c0-.344.038-.7.088-1.057-7.118-3.89-14.438-7.893-19.594-10.713C3.144 45.143 0 47.007 0 51.424V89.61c0 4.42 3.144 9.72 7.02 11.84l35.52 19.426c3.875 2.12 7.017.254 7.017-4.162l-.002-19.505a8.143 8.143 0 0 1-1.336-.596l-16.59-9.579z"/><path fill="#518db5" d="M69.54 80.724c-3.118-1.703-8.271-4.522-11.977-6.544-.62-.342-1.21-.662-1.732-.948-1.497-.818-3.922-.818-5.42 0l-1.754.958-11.954 6.534c-1.497.817-1.497 2.142 0 2.964l12.852 7.025.856.47c1.498.817 3.923.817 5.42 0l.811-.443 12.899-7.052c1.496-.822 1.496-2.147-.002-2.964"/><path fill="#3d647f" d="M47.69 68.174c1.495-.817 2.709-2.864 2.709-4.568V48.862c0-1.707-1.212-2.425-2.708-1.607l-12.98 7.1-.728.398c-1.498.817-2.71 2.864-2.71 4.57v14.741c0 1.705 1.214 2.424 2.71 1.606 3.038-1.664 8.01-4.38 11.69-6.393.726-.399 1.419-.776 2.018-1.104"/><path fill="#273945" d="M72.219 54.776l-.805-.44-12.906-7.058c-1.494-.817-2.708-.101-2.708 1.607l.002 13.003v1.737c0 1.705 1.214 3.752 2.709 4.57l2.03 1.109c3.68 2.013 8.642 4.724 11.678 6.386 1.495.815 2.708.099 2.708-1.609V59.344c0-1.707-1.213-3.751-2.708-4.568"/><path fill="#3d647f" d="M178.034 40.64h5.591c2 0 3.63 1.623 3.63 3.63v17.573c0 2.005 1.137 2.472 2.54 1.04l19.278-19.652c1.399-1.432 4.165-2.59 6.172-2.59h8.688c2.005 0 2.481 1.15 1.07 2.573l-19.685 19.773c-1.412 1.421-1.624 3.901-.469 5.539l22.216 31.453c1.157 1.637.47 2.964-1.537 2.964h-7.8c-2.006 0-4.563-1.333-5.716-2.972L195.8 76.815c-1.148-1.641-3.233-1.825-4.652-.412l-1.325 1.321c-1.419 1.414-2.568 4.184-2.568 6.192V99.31a3.634 3.634 0 0 1-3.631 3.633h-5.59a3.633 3.633 0 0 1-3.631-3.633V44.27a3.63 3.63 0 0 1 3.63-3.63m60.96 57.907c-4.194-3.634-6.292-8.852-6.292-15.646v-38.63a3.63 3.63 0 0 1 3.63-3.631h5.588a3.63 3.63 0 0 1 3.63 3.63v38.631c0 3.255.898 5.9 2.698 7.93 1.806 2.033 4.862 3.049 9.174 3.049 4.077 0 7.088-1.044 9.038-3.136 1.95-2.09 2.92-4.765 2.92-8.02V44.27a3.628 3.628 0 0 1 3.632-3.631h5.588a3.628 3.628 0 0 1 3.63 3.63V82.9c0 6.679-2.052 11.864-6.158 15.552-4.104 3.695-10.234 5.539-18.384 5.539-8.27 0-14.501-1.815-18.694-5.445m68.927-6.056h11.165c3.128 0 5.567-.774 7.308-2.313 1.74-1.54 2.612-3.59 2.612-6.141 0-2.964-.973-5.197-2.924-6.708-1.947-1.513-4.4-2.268-7.35-2.268H307.92a3.628 3.628 0 0 0-3.631 3.63v10.169a3.63 3.63 0 0 0 3.63 3.63m17.1-28.672c1.714-1.276 2.569-3.134 2.569-5.573 0-1.119-.19-2.119-.567-3-.67-1.56-3.145-3.432-5.043-3.919-1.045-.268-2.216-.404-3.513-.404H307.92a3.63 3.63 0 0 0-3.631 3.634v7.552a3.63 3.63 0 0 0 3.63 3.63h10.28c2.834 0 5.106-.638 6.82-1.92M295.07 40.64h24.724c3.422 0 6.422.393 8.992 1.177 2.567.784 4.676 1.904 6.332 3.355 3.37 2.963 5.052 6.856 5.052 11.675 0 3.2-.9 5.825-2.701 7.888a14.62 14.62 0 0 1-3.893 3.126c-1.751.986-3.33 1.506-3.33 1.582 0 .07 1.596.52 3.38 1.437a15.626 15.626 0 0 1 5.17 4.265c2.154 2.735 3.238 6.01 3.238 9.85 0 2.964-.461 5.473-1.377 7.536-.91 2.065-2.321 3.88-4.21 5.445-1.83 1.568-4.105 2.79-6.82 3.661-2.717.874-5.76 1.306-9.127 1.306h-25.43a3.629 3.629 0 0 1-3.63-3.634V44.271a3.627 3.627 0 0 1 3.63-3.631m58.12 0h39.345a3.628 3.628 0 0 1 3.629 3.63v3.37a3.63 3.63 0 0 1-3.63 3.63H366.04a3.628 3.628 0 0 0-3.63 3.63v6.683a3.631 3.631 0 0 0 3.63 3.633h22.33a3.625 3.625 0 0 1 3.63 3.63v3.106a3.628 3.628 0 0 1-3.63 3.63h-22.33a3.63 3.63 0 0 0-3.63 3.634v9.55a3.628 3.628 0 0 0 3.63 3.629h26.757a3.629 3.629 0 0 1 3.628 3.633v3.282a3.629 3.629 0 0 1-3.628 3.633h-39.606a3.631 3.631 0 0 1-3.631-3.633V44.27a3.629 3.629 0 0 1 3.63-3.63m55.334 58.336c-3.803-2.89-6.143-6.787-7.021-11.685-.354-1.97 1.248-3.602 3.256-3.602h5.317c2.008 0 3.763 1.647 4.44 3.532.708 1.976 1.803 3.482 3.265 4.523 2.246 1.601 5.642 2.396 10.188 2.396 1.654 0 3.222-.14 4.698-.432 1.477-.29 2.776-.759 3.898-1.396 1.123-.639 2.024-1.47 2.702-2.481.678-1.014 1.017-2.248 1.017-3.704 0-1.51-.367-2.758-1.107-3.75-.736-.985-1.786-1.816-3.145-2.482-1.357-.667-2.997-1.247-4.915-1.744-1.918-.49-4.09-.998-6.51-1.524a123.13 123.13 0 0 1-8.198-2.132c-2.628-.784-4.932-1.844-6.912-3.183a15.451 15.451 0 0 1-4.78-5.141c-1.214-2.09-1.818-4.763-1.818-8.015 0-3.079.604-5.779 1.818-8.107 1.208-2.32 2.892-4.268 5.05-5.836 2.156-1.57 4.705-2.745 7.664-3.532 2.95-.784 6.202-1.172 9.744-1.172 7.149 0 12.89 1.655 17.232 4.967 3.478 2.65 5.713 6.276 6.705 10.867.428 1.961-1.112 3.597-3.115 3.597h-5.052c-2.006 0-3.724-1.672-4.56-3.492a8.68 8.68 0 0 0-2.973-3.568c-2.243-1.568-5.021-2.352-8.325-2.352-3.487 0-6.26.667-8.331 2.003-2.068 1.338-3.099 3.11-3.099 5.314 0 1.282.282 2.342.84 3.183.56.844 1.418 1.584 2.57 2.221 1.157.64 2.582 1.194 4.298 1.656 1.714.464 3.747.96 6.115 1.483a127.94 127.94 0 0 1 9.167 2.307c2.866.846 5.374 1.964 7.53 3.357 2.156 1.393 3.855 3.164 5.098 5.312 1.238 2.156 1.858 4.915 1.858 8.281 0 3.136-.62 5.938-1.858 8.412-1.243 2.466-2.954 4.531-5.14 6.182-2.187 1.654-4.786 2.922-7.796 3.794-3.015.864-6.291 1.304-9.836 1.304-8.622 0-15.284-1.785-19.98-5.36m69.237-28.884h9.662c3.365 0 5.92-.841 7.659-2.528 1.742-1.682 2.614-3.948 2.614-6.797 0-2.961-.888-5.227-2.656-6.797-1.773-1.568-4.252-2.351-7.44-2.351h-9.838a3.628 3.628 0 0 0-3.628 3.632v11.21a3.628 3.628 0 0 0 3.628 3.631M464.469 40.64h24.193c3.721 0 6.937.51 9.65 1.524 2.72 1.017 5.025 2.457 6.915 4.315a19.98 19.98 0 0 1 4.167 6.273c1.003 2.383 1.507 5.027 1.507 7.93 0 2.96-.49 5.651-1.468 8.06-.975 2.411-2.36 4.477-4.162 6.187-1.805 1.714-4.016 3.052-6.644 4.008-2.629.959-5.598 1.44-8.905 1.44h-11.961a3.628 3.628 0 0 0-3.628 3.631v15.301a3.63 3.63 0 0 1-3.632 3.634h-6.032a3.632 3.632 0 0 1-3.63-3.634V44.271a3.63 3.63 0 0 1 3.63-3.631m69.284 27.537h10.013c3.544 0 6.17-.8 7.886-2.399 1.713-1.596 2.568-3.645 2.568-6.14 0-2.557-.827-4.664-2.48-6.319-1.654-1.656-4.192-2.481-7.618-2.481h-10.37a3.626 3.626 0 0 0-3.627 3.63v10.075a3.629 3.629 0 0 0 3.628 3.634M520.906 40.64h25.428c3.072 0 5.864.421 8.375 1.265 2.51.841 4.65 2.019 6.421 3.528a15.709 15.709 0 0 1 4.12 5.445c.976 2.12 1.464 4.491 1.464 7.103 0 3.659-.917 6.81-2.748 9.452-1.273 1.841-3.088 3.305-5.448 4.396-1.814.844-3.41 1.284-3.41 1.355 0 .07 1.6.516 3.358 1.478 1.328.727 2.44 1.631 3.33 2.707 1.566 1.888 2.55 4.716 2.97 8.497.232 2.206.396 4.252.484 6.14.088 1.886.188 3.643.27 5.102.04.71.022 1.289.022 2.25 0 2.187-1.604 3.583-3.541 3.583h-4.167c-2.005 0-3.521-.063-4.016-3.625-.057-.422-.122-.867-.172-1.34a128.576 128.576 0 0 1-.404-4.446l-.35-4.964c-.295-3.432-1.434-6.054-3.412-7.885-1.98-1.83-4.976-2.745-8.99-2.745h-6.737a3.628 3.628 0 0 0-3.628 3.63V99.31a3.63 3.63 0 0 1-3.632 3.632h-5.587a3.63 3.63 0 0 1-3.632-3.632V44.27a3.627 3.627 0 0 1 3.632-3.63m73.712 39.39h9.484c2.005 0 3.144-1.554 2.537-3.463l-4.576-14.49a26.447 26.447 0 0 1-.844-2.877 58.335 58.335 0 0 0-.839-3.136c-.153-.585-.301-1.181-.45-1.784-.244-.99-.776-1.022-1.086-.028a32 32 0 0 0-.502 1.812 60.882 60.882 0 0 0-.842 3.136 26.447 26.447 0 0 1-.844 2.878l-4.574 14.489c-.604 1.91.53 3.464 2.536 3.464m1.861-39.39h6.032c2 0 4.177 1.53 4.852 3.417l19.875 55.465c.682 1.888-.396 3.42-2.404 3.42h-6.118c-2 0-4.126-1.548-4.738-3.453l-2.032-6.334c-.615-1.91-2.735-3.461-4.743-3.461h-15.596c-2.003 0-4.115 1.552-4.719 3.47l-1.989 6.317c-.596 1.913-2.71 3.46-4.719 3.46h-5.76c-2.005 0-3.089-1.531-2.42-3.42l19.636-55.46c.672-1.891 2.842-3.422 4.843-3.422m44.139 35.073L623.039 43.82c-.963-1.757-.127-3.18 1.881-3.18h6.736c2.006 0 4.378 1.443 5.3 3.221l7.902 15.25c.47.99.953 1.996 1.46 3.009.5 1.017.958 1.96 1.37 2.833.235.512.458 1.015.675 1.515.37.847 1.077.89 1.51.045.263-.513.502-1.032.745-1.56.409-.873.864-1.816 1.369-2.833.503-1.013.99-2.019 1.464-3.008l7.745-15.235c.911-1.786 3.271-3.237 5.274-3.237h6.208c2.008 0 2.844 1.423 1.88 3.18l-17.586 31.893c-.964 1.755-1.75 4.807-1.75 6.812V99.31a3.633 3.633 0 0 1-3.632 3.634h-5.584a3.631 3.631 0 0 1-3.631-3.634V82.525c0-2.005-.784-5.057-1.757-6.812"/></svg>