<svg xmlns="http://www.w3.org/2000/svg" role="img" viewBox="-4.77 -10.27 820.04 234.04"><defs><style>.cls-2{fill:#0d78fe}.cls-4{fill:#636363}</style></defs><g opacity=".59"><path d="M208.31 116.86l-.688-.792-1.043-1.126-2.087-2.232-4.172-4.444-.521-.563-.209-.25a3.609 3.609 0 0 1-.313-.46 3.067 3.067 0 0 1 .188-3.191 21.472 21.472 0 0 1 1.564-1.773l2.087-2.19 3.963-4.36a17.19 17.19 0 0 0 2.295-3.276 13.082 13.082 0 0 0-3.505-16.668 13.477 13.477 0 0 0-1.919-1.231 17.648 17.648 0 0 0-1.773-.772l-5.278-2.086-5.236-2.086a3.526 3.526 0 0 1-1.773-1.481 3.421 3.421 0 0 1-.46-2.253 1.147 1.147 0 0 1 0-.292 3.63 3.63 0 0 1 0-.418l.376-1.293 1.022-2.524 1.502-5.132.376-1.273c.125-.438.23-.771.417-1.522a12.541 12.541 0 0 0-9.617-15.187 14.228 14.228 0 0 0-1.94-.25h-1.815l-2.524.208-4.986.417-2.462.209-2.086.146a4.172 4.172 0 0 1-3.776-2.545 3.775 3.775 0 0 1-.187-.564v-.897l-.397-2.294-1.669-9.075a11.807 11.807 0 0 0-13.867-9.302q-.191.037-.38.081a11.014 11.014 0 0 0-2.713 1.085c-.5.25-.75.417-1.043.584l-1.043.5-6.926 4.173-1.669 1.001a5.465 5.465 0 0 1-1.085.522 4.882 4.882 0 0 1-2.273.23 4.986 4.986 0 0 1-2.087-.793 4.715 4.715 0 0 1-.876-.73 4.506 4.506 0 0 1-.375-.438c-.125-.146-.334-.46-.5-.668l-4.027-5.55c-1.46-2.085-3.65-2.795-4.84-1.751a3.984 3.984 0 0 0 .23 5.006l3.755 5.779c.187.271.292.459.521.793a10.432 10.432 0 0 0 .751.96 10.743 10.743 0 0 0 1.815 1.689 11.307 11.307 0 0 0 9.846 1.752 12.016 12.016 0 0 0 2.441-1.022l1.71-.939 7.073-3.859.918-.5a6.99 6.99 0 0 1 .792-.48 4.005 4.005 0 0 1 1.064-.397 4.569 4.569 0 0 1 2.337.188 4.423 4.423 0 0 1 2.941 3.505l1.252 8.907.375 2.4v.583l.146.835a11.746 11.746 0 0 0 .48 1.69 12.266 12.266 0 0 0 11.015 7.99 20.91 20.91 0 0 0 2.858-.105l2.462-.146 5.09-.417 2.524-.146a4.172 4.172 0 0 1 1.293.104 3.672 3.672 0 0 1 2.752 4.404q-.027.115-.06.227a7.483 7.483 0 0 1-.313 1.023l-.397 1.272-1.606 5.111-.751 2.608-.417 1.293a7.972 7.972 0 0 1-.25.897 8.093 8.093 0 0 0-.21 1.043 12.725 12.725 0 0 0 1.44 8.345 12.955 12.955 0 0 0 6.425 5.674l5.195 2.086 5.257 2.086a8.995 8.995 0 0 1 .834.376 3.777 3.777 0 0 1 .48.313 3.246 3.246 0 0 1 .73 4.151 7.885 7.885 0 0 1-1.126 1.335l-3.985 4.318-2.086 2.087a32.981 32.981 0 0 0-2.357 2.67 13.289 13.289 0 0 0-1.085 13.852 13.831 13.831 0 0 0 1.314 2.086l.751.897.5.73 4.173 4.506 2.086 2.253 1.023 1.126a2.525 2.525 0 0 1 .312.376.803.803 0 0 1 .167.23 2.941 2.941 0 0 1-.688 3.9 2.482 2.482 0 0 1-.48.272l-.334.062-.73.292-2.92 1.148-5.862 2.294-1.502.584a14.602 14.602 0 0 0-2.316 1.21 13.602 13.602 0 0 0-5.987 13.706 18.482 18.482 0 0 0 .542 2.086l.46 1.523.917 3.067 1.836 6.154a2.608 2.608 0 0 1-.23 2.086 2.65 2.65 0 0 1-1.585 1.273 2.356 2.356 0 0 1-.5 0h-.773l-3.233-.167-6.509-.48-1.627-.125a15.375 15.375 0 0 0-2.712 0 13.81 13.81 0 0 0-11.724 10.43l-.25 1.294-.125.813-.25 1.628-.522 3.254-.522 3.254-.25 1.627-.125.814a3.585 3.585 0 0 1 0 .375 2.503 2.503 0 0 1-3.042 1.812l-.067-.017a2.357 2.357 0 0 1-.48-.21 6.259 6.259 0 0 1-.584-.312l-.73-.417-2.879-1.67-5.882-3.295-.376-.209-.626-.334a11.077 11.077 0 0 0-1.293-.563 13.79 13.79 0 0 0-8.345-.5 13.956 13.956 0 0 0-5.069 2.461 14.185 14.185 0 0 0-2.086 1.961c-.313.355-.584.751-.876 1.127l-.48.709-3.797 5.507-1.898 2.754-.48.688c-.167.23-.146.167-.23.292a1.773 1.773 0 0 1-.354.355 2.44 2.44 0 0 1-3.431-.375q-.05-.061-.095-.126l-3.734-5.403-1.898-2.753-.96-1.419A15.875 15.875 0 0 0 101 184.18a13.977 13.977 0 0 0-10.306-4.172 13.727 13.727 0 0 0-5.486 1.356c-1.001.5-1.314.709-1.836 1.001l-1.46.834-5.8 3.317-1.439.835-.647.376-.23.125a2.712 2.712 0 0 1-.959.187 2.545 2.545 0 0 1-1.815-.792 2.086 2.086 0 0 1-.5-.835 3.17 3.17 0 0 1-.146-.584l-.272-1.648-1.022-6.571-.521-3.275a13.852 13.852 0 0 0-10.786-11.474 14.603 14.603 0 0 0-2.774-.209h-2.086l-3.275.25-6.55.48h-1.17a1.961 1.961 0 0 1-.5 0 2.086 2.086 0 0 1-.918-.396 2.545 2.545 0 0 1-1.084-1.69 2.086 2.086 0 0 1 0-1.001v-.125l.104-.355.25-.667.46-1.565 1.856-6.258.459-1.544.23-.772.312-1.23a13.56 13.56 0 0 0 0-5.362 13.727 13.727 0 0 0-5.716-8.762 13.33 13.33 0 0 0-2.336-1.272l-.897-.355-.751-.292-2.963-1.168-5.82-2.316-.73-.292-.334-.104a2.316 2.316 0 0 1-.459-.271 2.503 2.503 0 0 1-.688-.772 2.879 2.879 0 0 1-.355-2.086 3.505 3.505 0 0 1 .417-.96s1.023-1.168 1.648-1.857l4.173-4.59 2.086-2.294.25-.292.397-.48a9.824 9.824 0 0 0 .771-1.001 12.516 12.516 0 0 0 1.231-2.211 13.393 13.393 0 0 0-2.086-14.123c-.313-.355-.48-.543-.647-.71l-.521-.563-1.043-1.106-4.172-4.422-2.087-2.19a3.755 3.755 0 0 1-.646-.96 3.13 3.13 0 0 1 1.293-3.88l.271-.126h.146l.334-.146 1.356-.542 2.691-1.085 5.361-2.086 1.419-.584a14.123 14.123 0 0 0 2.086-1.064 13.038 13.038 0 0 0 5.716-13.956l-.271-1.043-.209-.668-.834-2.67-1.669-5.299-.814-2.607a3.755 3.755 0 0 1-.166-1.148 3.442 3.442 0 0 1 .792-2.086 3.505 3.505 0 0 1 1.94-1.23h1.231l2.629.166 5.215.313 2.587.146h1.418a13.353 13.353 0 0 0 1.961 0 12.517 12.517 0 0 0 10.66-9.763l.167-.876v-.605l.167-1.23.334-2.42.668-4.799.333-2.378a5.445 5.445 0 0 1 .313-1.252 4.297 4.297 0 0 1 1.46-1.815 4.172 4.172 0 0 1 4.59-.167l7.698 4.173a35.861 35.861 0 0 0 4.36 2.19 11.703 11.703 0 0 0 11.16-1.898 11.286 11.286 0 0 0 1.982-2.086l.418-.564.27-.417.543-.834 4.172-6.426 1.023-1.564.48-.73.333-.46a5.11 5.11 0 0 1 1.753-1.334 5.257 5.257 0 0 1 4.172 0 7.447 7.447 0 0 0 2.336.563 3.025 3.025 0 0 0 2.295-.522 2.086 2.086 0 0 0 .438-2.357 5.09 5.09 0 0 0-2.336-2.941 11.12 11.12 0 0 0-9.075-.334 11.265 11.265 0 0 0-4.026 2.733l-.793.98-.605.793-1.085 1.502-4.485 6.258-.584.793-.292.396-.188.23a4.443 4.443 0 0 1-.834.793 4.631 4.631 0 0 1-2.086.855 4.548 4.548 0 0 1-2.358-.396c-.48-.167-1.982-1.127-3.15-1.815l-7.572-4.444a11.974 11.974 0 0 0-6.259-1.731 12.162 12.162 0 0 0-11.014 7.092 17.484 17.484 0 0 0-.626 1.67c-.125.52-.292 1.23-.355 1.627l-.396 2.357-1.607 9.367a3.88 3.88 0 0 1-3.358 2.9 4.716 4.716 0 0 1-.584 0h-1.148l-2.587-.335-5.194-.438-2.629-.208h-1.835a14.33 14.33 0 0 0-2.086.25A12.809 12.809 0 0 0 29.07 49.667a13.122 13.122 0 0 0 .501 4.172l.772 2.65 1.565 5.32.792 2.69.188.668v.313a3.254 3.254 0 0 1 0 .563 3.338 3.338 0 0 1-.71 2.086 3.233 3.233 0 0 1-.834.751l-.521.25-1.252.501-5.382 2.086-2.712 1.043-1.356.522-.188.334-.521.229-1.064.5a13.247 13.247 0 0 0-5.883 16.544 13.977 13.977 0 0 0 2.566 4.005l2.086 2.211 4.068 4.465 1.022 1.126.5.563.376.418a2.9 2.9 0 0 1 .522.96 2.941 2.941 0 0 1-.125 2.085 2.086 2.086 0 0 1-.272.46 1.085 1.085 0 0 1-.167.208v.125l-.27.292-2.087 2.253-4.172 4.548a37.048 37.048 0 0 0-2.733 2.816 14.081 14.081 0 0 0-2.086 4.694 13.643 13.643 0 0 0 1.46 10.055 13.33 13.33 0 0 0 3.359 4.026 13.06 13.06 0 0 0 2.232 1.377l1.127.522.73.292 5.903 2.378 2.963 1.189.75.292.585.25a2.378 2.378 0 0 1 .459.25 2.712 2.712 0 0 1 1.085 1.732 2.504 2.504 0 0 1 0 1.022v.334l-.292.793-.48 1.544-1.899 6.258-.48 1.544-.229.772-.125.417-.167.647a13.163 13.163 0 0 0-.25 5.444 13.727 13.727 0 0 0 5.632 9.075 13.351 13.351 0 0 0 5.028 2.232 13.059 13.059 0 0 0 2.733.292h2.086l6.55-.459 3.296-.23h1.753a2.587 2.587 0 0 1 1.606 1.169 2.42 2.42 0 0 1 .355 1.001l.5 3.275 1.002 6.572.25 1.648a15.166 15.166 0 0 0 .667 2.628 13.476 13.476 0 0 0 2.921 4.84 13.956 13.956 0 0 0 10.055 4.423 14.123 14.123 0 0 0 5.55-1.106l1.25-.626.794-.459 1.46-.834 5.8-3.317 1.46-.835 1.105-.605a2.274 2.274 0 0 1 .96-.229 2.503 2.503 0 0 1 1.815.71 4.381 4.381 0 0 1 .375.479l.939 1.377 1.898 2.754 3.818 5.549a13.914 13.914 0 0 0 19.378 3.424q.386-.27.753-.566a13.06 13.06 0 0 0 2.086-2.086c.271-.334.647-.814.793-1.044l.48-.688 1.71-2.837 3.776-5.528.46-.668.166-.208a2.776 2.776 0 0 1 .355-.334 2.545 2.545 0 0 1 .897-.438 2.378 2.378 0 0 1 1.48 0h.356l.354.208 5.8 3.296 2.9 1.648.73.418c.27.146.375.229.876.48a13.831 13.831 0 0 0 19.964-9.034 10.133 10.133 0 0 1 .25-1.251l.125-.814.25-1.627.501-3.275.897-5.82a2.608 2.608 0 0 1 2.086-1.94h.564l1.627.104 6.509.438 3.254.23h1.126a10.199 10.199 0 0 0 1.356 0 13.435 13.435 0 0 0 2.692-.501 13.706 13.706 0 0 0 9.29-17.012l-.028-.095-3.567-11.62a2.775 2.775 0 0 1 1.168-2.795l.48-.25 1.418-.584 5.841-2.357 2.9-1.169.73-.292 1.106-.5a13.06 13.06 0 0 0 2.086-1.356 13.476 13.476 0 0 0 2.92-18.254 11.12 11.12 0 0 0-.667-1.022z" class="cls-2"/><path d="M65.974 137.263a61.624 61.624 0 0 1-8.094-15.228 63.146 63.146 0 0 1-2.086-7.406c-.23-1.21-.501-2.358-.689-3.505l-.354-3.359a2.879 2.879 0 0 0-3.171-2.086 2.503 2.503 0 0 0-2.545 2.337v3.734a38.232 38.232 0 0 0 .396 3.943 63.25 63.25 0 0 0 1.565 8.47 65.066 65.066 0 0 0 8.177 17.815 63.741 63.741 0 0 0 91.497 15.416 66.757 66.757 0 0 0 10.723-10.097c1.523-1.96 3.088-3.921 4.464-5.987a62.898 62.898 0 0 0 3.755-6.508 64.378 64.378 0 0 0 0-58.412 63.955 63.955 0 0 0-110.439-7.072A64.94 64.94 0 0 0 51.1 87.196a62.583 62.583 0 0 0-1.565 8.449c-.125 1.356-.334 2.67-.375 3.943v3.734a2.503 2.503 0 0 0 2.695 2.295q.092-.007.184-.021a2.712 2.712 0 0 0 2.69-2.086l.355-3.38c.167-1.147.46-2.315.689-3.525a62.374 62.374 0 0 1 2.086-7.427 61.645 61.645 0 0 1 8.094-15.25 54.882 54.882 0 0 1 77.958-11.306 54.24 54.24 0 0 1-21.445 95.961 55.45 55.45 0 0 1-56.492-21.32z" class="cls-2"/><path d="M92.343 85.59a18.045 18.045 0 0 0-1.336 5.883 16.689 16.689 0 0 0 4.006 12.245 20.528 20.528 0 0 0 4.798 4.006 34.275 34.275 0 0 0 10.264 3.984 25.222 25.222 0 0 1 6.925 2.545 7.197 7.197 0 0 1 3.443 3.63 7.99 7.99 0 0 1 0 4.986 7.823 7.823 0 0 1-2.858 3.984 11.661 11.661 0 0 1-4.986 2.087 11.995 11.995 0 0 1-5.049-.167 12.934 12.934 0 0 1-7.03-4.903c-.209-.27-1.606 0-3.087.647s-2.233 1.377-2.086 1.836a17.21 17.21 0 0 0 9.241 10.138c.396.188.855.334 1.273.501-.564 3.463.333 7.447 2.712 9.22a27.247 27.247 0 0 0 3.066 0 22.548 22.548 0 0 0 2.67 0 9.68 9.68 0 0 0 2.796-8.552 18.775 18.775 0 0 0 5.924-2.295 17.774 17.774 0 0 0 7.49-8.678 18.108 18.108 0 0 0 1.314-5.904 16.689 16.689 0 0 0-4.047-12.246 20.486 20.486 0 0 0-4.82-3.984 34.358 34.358 0 0 0-10.263-3.964 25.158 25.158 0 0 1-6.926-2.545 7.197 7.197 0 0 1-3.442-3.63 8.01 8.01 0 0 1 0-4.986 7.865 7.865 0 0 1 2.941-4.026 11.745 11.745 0 0 1 5.007-2.086 12.079 12.079 0 0 1 5.09.167 12.997 12.997 0 0 1 7.072 4.923c.209.271 1.565 0 3.025-.626s2.086-1.335 2.086-1.773a17.127 17.127 0 0 0-9.179-10.118c-.396-.187-.855-.333-1.293-.5.542-3.484-.376-7.49-2.795-9.283a26.721 26.721 0 0 0-3.004 0 21.861 21.861 0 0 0-2.587 0 9.742 9.742 0 0 0-2.88 8.594 18.775 18.775 0 0 0-5.882 2.253 17.732 17.732 0 0 0-7.594 8.637z" class="cls-2"/></g><g style="isolation:isolate" opacity=".87"><path d="M262.544 120.387l8.356-11.971 20.985-25.674h17.027l-27.959 34.256 29.718 45.505h-17.34l-22.305-34.977-8.105 7.645v27.332h-14.64V50.29h14.64v54.736l-.754 15.361z" class="cls-4"/><path d="M311.595 163.003h-18.538l-22.128-34.699-7.508 7.082v27.617h-15.64V49.79h15.64v55.236l-.698 14.232 7.767-11.128 21.158-25.888h18.318l-28.394 34.79zm-17.99-1h16.142l-29.413-45.038 27.524-33.723h-15.736l-20.835 25.49-8.482 12.155h-1.163l.78-15.885-.001-54.212h-13.64v111.213h13.64v-27.048l8.702-8.207zm75.335.5l-2.073-10.457h-.754a22.125 22.125 0 0 1-8.765 8.726 26.184 26.184 0 0 1-12.974 3.173q-12.629 0-18.849-7.212-6.22-7.21-6.22-21.85v-52.14h14.89v49.182q0 9.16 3.268 13.739 3.266 4.58 10.24 4.579 9.299 0 13.666-6.382 4.366-6.382 4.367-21.383V82.742h14.828v79.76z" class="cls-4"/><path d="M344.374 164.445c-8.532 0-15.001-2.484-19.227-7.386-4.208-4.877-6.341-12.338-6.341-22.176v-52.64h15.89v49.683c0 5.971 1.068 10.496 3.174 13.448 2.067 2.9 5.376 4.369 9.834 4.369 5.995 0 10.454-2.074 13.253-6.164 2.84-4.151 4.28-11.25 4.28-21.1V82.241h15.827v80.76H368.53l-2.124-10.456a22.723 22.723 0 0 1-8.814 8.663 26.796 26.796 0 0 1-13.218 3.236zm-24.568-81.203v51.64c0 9.592 2.051 16.834 6.098 21.525 4.028 4.67 10.242 7.038 18.47 7.038a25.809 25.809 0 0 0 12.73-3.11 21.737 21.737 0 0 0 8.572-8.531l.143-.258h1.459l2.073 10.457h10.713v-78.76h-13.828v39.235c0 10.056-1.498 17.345-4.454 21.665-2.996 4.38-7.733 6.6-14.078 6.6-4.8 0-8.382-1.611-10.648-4.79-2.23-3.123-3.36-7.844-3.36-14.027V83.242zM439.1 81.3q14.05 0 21.889 10.817 7.839 10.818 7.839 30.361 0 19.617-7.942 30.541-7.94 10.926-22.057 10.926-14.253 0-22.127-10.89h-1.086l-2.918 9.448h-11.946V50.29h15.95v26.683q0 2.958-.27 8.798-.273 5.842-.408 7.428h.678q7.6-11.9 22.398-11.9zm-4.14 13.846q-9.638 0-13.88 6.022-4.242 6.022-4.378 20.157v1.153q0 14.568 4.344 21.094 4.343 6.527 14.185 6.526a14.17 14.17 0 0 0 12.862-7.138q4.377-7.14 4.378-20.626 0-27.187-17.51-27.188z" class="cls-4"/><path d="M438.829 164.445c-9.537 0-17.065-3.663-22.38-10.89h-.464l-2.918 9.448h-12.815V49.79h16.95v27.183c0 1.962-.089 4.847-.271 8.821a378.79 378.79 0 0 1-.351 6.677c5.138-7.745 12.712-11.67 22.52-11.67 9.492 0 16.993 3.708 22.294 11.023 5.265 7.266 7.934 17.58 7.934 30.654 0 13.125-2.704 23.5-8.037 30.835-5.368 7.387-12.926 11.132-22.462 11.132zm-23.582-11.89h1.711l.15.207c5.124 7.09 12.433 10.683 21.721 10.683 9.198 0 16.483-3.606 21.653-10.72 5.206-7.16 7.846-17.338 7.846-30.247 0-12.86-2.605-22.976-7.744-30.067-5.103-7.041-12.331-10.61-21.484-10.61-9.637 0-17.03 3.925-21.977 11.668l-.147.23h-1.496l.046-.542c.09-1.045.226-3.538.407-7.41.181-3.957.27-6.827.27-8.774V50.79h-14.951v111.213h11.077zm19.984-1.957c-6.709 0-11.622-2.27-14.601-6.749-2.939-4.415-4.428-11.604-4.428-21.37v-1.154c.09-9.486 1.594-16.363 4.469-20.445 2.915-4.136 7.722-6.234 14.289-6.234 11.952 0 18.012 9.316 18.012 27.688 0 9.04-1.498 16.07-4.452 20.887a14.703 14.703 0 0 1-13.289 7.377zm-.271-54.952c-6.223 0-10.755 1.955-13.47 5.81-2.758 3.912-4.2 10.599-4.288 19.874v1.148c0 9.566 1.434 16.57 4.26 20.817 2.783 4.182 7.416 6.303 13.77 6.303a13.594 13.594 0 0 0 12.436-6.9c2.855-4.658 4.304-11.51 4.304-20.364 0-17.958-5.565-26.688-17.012-26.688zm78.61 68.299q-16.21 0-25.353-10.854-9.14-10.853-9.141-29.891 0-19.543 8.482-30.722 8.482-11.177 23.31-11.178 13.759 0 21.739 9.591 7.977 9.593 7.978 26.395v9.159h-46.304q.313 11.612 5.466 17.849 5.151 6.238 14.513 6.237a46.903 46.903 0 0 0 11.467-1.334 54.925 54.925 0 0 0 11.403-4.435v13.774a41.388 41.388 0 0 1-10.932 4.183 58.71 58.71 0 0 1-12.628 1.226zm-2.702-69.808a13.91 13.91 0 0 0-11.279 5.12q-4.24 5.121-5.057 14.928h31.54q-.127-9.88-4.147-14.964a13.325 13.325 0 0 0-11.057-5.084z" class="cls-4"/><path d="M513.57 164.445c-10.91 0-19.57-3.712-25.735-11.031-6.144-7.295-9.259-17.461-9.259-30.214 0-13.078 2.888-23.516 8.584-31.024 5.728-7.548 13.704-11.376 23.708-11.376 9.284 0 16.728 3.288 22.124 9.772 5.37 6.458 8.094 15.446 8.094 26.714v9.66h-46.288c.27 7.343 2.064 13.07 5.335 17.03 3.318 4.018 8.071 6.055 14.128 6.055a46.581 46.581 0 0 0 11.344-1.32 54.72 54.72 0 0 0 11.3-4.394l.726-.37v14.885l-.26.142a42.105 42.105 0 0 1-11.064 4.234 59.476 59.476 0 0 1-12.737 1.237zM510.868 81.8c-9.674 0-17.383 3.694-22.911 10.98-5.562 7.33-8.38 17.565-8.38 30.42 0 12.51 3.035 22.46 9.024 29.57 5.965 7.083 14.367 10.675 24.97 10.675a58.468 58.468 0 0 0 12.519-1.214 40.952 40.952 0 0 0 10.54-3.992v-12.666a54.675 54.675 0 0 1-10.78 4.11 47.658 47.658 0 0 1-11.59 1.348c-6.368 0-11.381-2.16-14.899-6.419-3.491-4.227-5.369-10.335-5.58-18.153l-.013-.514h46.318v-8.66c0-11.027-2.646-19.8-7.863-26.074-5.197-6.244-12.381-9.41-21.355-9.41zm15.712 32.885h-32.59l.044-.54c.55-6.612 2.29-11.728 5.171-15.207a14.448 14.448 0 0 1 11.663-5.301 13.859 13.859 0 0 1 11.45 5.274c2.738 3.461 4.17 8.599 4.255 15.268zm-31.502-1h30.486c-.146-6.196-1.502-10.956-4.03-14.154a12.9 12.9 0 0 0-10.666-4.894 13.49 13.49 0 0 0-10.893 4.939c-2.67 3.225-4.317 7.97-4.897 14.11zm89.902 50.26q-16.28 0-24.743-10.566-8.463-10.563-8.464-30.324 0-20.12 8.853-30.938Q569.48 81.3 586.212 81.3a43.888 43.888 0 0 1 20.43 4.687l-4.604 13.63q-9.666-4.181-15.955-4.182-18.616 0-18.614 27.476 0 13.413 4.637 20.156 4.636 6.744 13.588 6.743a35.983 35.983 0 0 0 19.262-5.625v14.784a28.396 28.396 0 0 1-8.723 3.822 47.302 47.302 0 0 1-11.253 1.154z" class="cls-4"/><path d="M584.98 164.445c-10.962 0-19.418-3.618-25.133-10.753-5.689-7.1-8.574-17.407-8.574-30.637 0-13.468 3.017-23.984 8.966-31.254 5.975-7.3 14.713-11 25.973-11a44.586 44.586 0 0 1 20.66 4.742l.382.198-4.916 14.55-.498-.215c-6.354-2.748-11.655-4.141-15.757-4.141-12.19 0-18.114 8.824-18.114 26.976 0 8.799 1.53 15.484 4.55 19.873 2.975 4.331 7.409 6.526 13.174 6.526a35.652 35.652 0 0 0 19-5.55l.763-.472v15.952l-.227.148a29.033 29.033 0 0 1-8.875 3.888 48.043 48.043 0 0 1-11.374 1.17zm1.232-82.645c-10.945 0-19.424 3.578-25.2 10.634-5.798 7.087-8.739 17.39-8.739 30.621 0 12.997 2.81 23.094 8.355 30.012 5.515 6.887 13.709 10.378 24.352 10.378a47.057 47.057 0 0 0 11.133-1.14 27.969 27.969 0 0 0 8.343-3.608v-13.625a36.489 36.489 0 0 1-18.763 5.238c-6.115 0-10.825-2.341-13.999-6.96-3.135-4.557-4.725-11.434-4.725-20.44 0-18.563 6.43-27.975 19.114-27.975 4.13 0 9.395 1.348 15.654 4.01l4.293-12.708a43.733 43.733 0 0 0-19.818-4.437zm96.013 40.678q0 19.544-8.732 30.505-8.735 10.963-24.316 10.962a30.031 30.031 0 0 1-17.215-5.048 32.08 32.08 0 0 1-11.498-14.496 55.596 55.596 0 0 1-4.021-21.923q0-19.398 8.67-30.288 8.671-10.889 24.441-10.89 15.08 0 23.875 11.142 8.797 11.142 8.796 30.036zm-50.577 0q0 27.621 17.78 27.62 17.592 0 17.593-27.62 0-27.33-17.718-27.332-9.3 0-13.477 7.067-4.18 7.07-4.178 20.265z" class="cls-4"/><path d="M649.178 164.445a30.66 30.66 0 0 1-17.495-5.134 32.712 32.712 0 0 1-11.678-14.715 56.336 56.336 0 0 1-4.062-22.118c0-12.987 2.954-23.282 8.78-30.6 5.854-7.35 14.209-11.078 24.832-11.078 10.166 0 18.33 3.813 24.267 11.332 5.908 7.483 8.903 17.693 8.903 30.346 0 13.084-2.974 23.452-8.841 30.817-5.895 7.398-14.207 11.15-24.706 11.15zm.377-82.645c-10.304 0-18.395 3.6-24.05 10.701-5.68 7.136-8.562 17.222-8.562 29.977a55.361 55.361 0 0 0 3.982 21.727 31.737 31.737 0 0 0 11.317 14.278 29.684 29.684 0 0 0 16.936 4.962c10.178 0 18.228-3.625 23.925-10.773 5.721-7.184 8.623-17.342 8.623-30.194 0-12.423-2.923-22.424-8.689-29.726C667.3 85.485 659.4 81.8 649.555 81.8zm-.126 68.798c-12.13 0-18.28-9.46-18.28-28.12 0-8.85 1.428-15.753 4.246-20.519 2.87-4.852 7.55-7.313 13.909-7.313 12.089 0 18.217 9.365 18.217 27.832 0 18.66-6.086 28.12-18.092 28.12zm-.125-54.952c-5.982 0-10.371 2.296-13.047 6.822-2.727 4.61-4.109 11.342-4.109 20.01 0 18.25 5.653 27.12 17.28 27.12 11.503 0 17.093-8.87 17.093-27.12 0-18.055-5.631-26.832-17.217-26.832zm97.048 44.14q0 11.683-7.589 17.92-7.588 6.24-21.736 6.239-14.212 0-22.83-4.832v-14.64q12.541 6.49 23.345 6.491 13.954 0 13.955-9.447a8.069 8.069 0 0 0-1.544-5.049 18.628 18.628 0 0 0-5.08-4.182 83.202 83.202 0 0 0-9.84-4.904q-12.283-5.336-16.623-10.673-4.34-5.337-4.341-13.846 0-10.24 7.364-15.902 7.361-5.66 20.032-5.661a51.599 51.599 0 0 1 23.73 5.697l-4.888 12.765q-11.512-5.337-19.357-5.337-11.962 0-11.962 7.644a7.965 7.965 0 0 0 3.12 6.347q3.119 2.596 13.601 7.14 8.81 3.823 12.797 6.994a20.297 20.297 0 0 1 5.917 7.32 23.348 23.348 0 0 1 1.93 9.916z" class="cls-4"/><path d="M717.027 164.445c-9.518 0-17.281-1.647-23.073-4.895l-.256-.144v-15.755l.73.378c8.25 4.27 16.027 6.436 23.114 6.436 9.054 0 13.455-2.927 13.455-8.948a7.623 7.623 0 0 0-1.441-4.745 18.219 18.219 0 0 0-4.944-4.06 83.102 83.102 0 0 0-9.777-4.87c-8.226-3.574-13.882-7.213-16.813-10.818-2.955-3.633-4.453-8.397-4.453-14.16 0-6.96 2.543-12.443 7.559-16.3 4.975-3.824 11.817-5.764 20.337-5.764a52.324 52.324 0 0 1 23.956 5.752l.401.204-5.24 13.685-.485-.225c-7.574-3.511-14.016-5.29-19.147-5.29-7.713 0-11.462 2.336-11.462 7.144a7.428 7.428 0 0 0 2.94 5.961c2.035 1.693 6.57 4.07 13.48 7.065 5.886 2.555 10.23 4.931 12.91 7.063a20.891 20.891 0 0 1 6.058 7.5 23.954 23.954 0 0 1 1.977 10.127c0 7.91-2.615 14.068-7.772 18.308-5.126 4.214-12.546 6.351-22.054 6.351zm-22.329-5.627c5.614 3.07 13.125 4.627 22.33 4.627 9.269 0 16.475-2.06 21.418-6.124 4.914-4.04 7.406-9.94 7.406-17.535a22.978 22.978 0 0 0-1.882-9.705 19.9 19.9 0 0 0-5.775-7.139c-2.612-2.078-6.88-4.409-12.685-6.928-7.096-3.076-11.584-5.435-13.722-7.213a8.482 8.482 0 0 1-3.3-6.731c0-5.405 4.193-8.145 12.462-8.145 5.166 0 11.584 1.736 19.08 5.16l4.535-11.844a51.312 51.312 0 0 0-23.1-5.44c-8.294 0-14.93 1.869-19.728 5.557-4.756 3.656-7.168 8.873-7.168 15.505 0 5.528 1.423 10.08 4.229 13.53 2.829 3.479 8.358 7.022 16.435 10.53a84.168 84.168 0 0 1 9.9 4.936 19.18 19.18 0 0 1 5.217 4.306 8.593 8.593 0 0 1 1.647 5.352c0 6.6-4.863 9.948-14.455 9.948-7.038 0-14.72-2.078-22.844-6.174zm93.979-8.575a31.707 31.707 0 0 0 10.807-1.947v12.764a26.942 26.942 0 0 1-6.315 2.056 38.148 38.148 0 0 1-8.01.829q-20.986 0-20.986-25.385V95.58h-9.487v-7.501l10.179-6.202 5.026-16.875h9.11v17.74h19.791V95.58h-19.79v42.693q0 6.13 2.67 9.05a9.044 9.044 0 0 0 7.005 2.92z" class="cls-4"/><path d="M785.158 164.445c-14.257 0-21.485-8.709-21.485-25.885V96.08h-9.488v-8.282l10.255-6.248 5.078-17.048h9.983v17.74h19.79V96.08h-19.79v42.193c0 3.94.854 6.871 2.539 8.712a8.492 8.492 0 0 0 6.637 2.759 31.362 31.362 0 0 0 10.637-1.918l.67-.241v13.785l-.277.139a27.578 27.578 0 0 1-6.433 2.097 38.83 38.83 0 0 1-8.116.84zM755.185 95.08h9.488v43.481c0 16.745 6.701 24.885 20.485 24.885a37.815 37.815 0 0 0 7.906-.818 27.474 27.474 0 0 0 5.92-1.88V149a32.16 32.16 0 0 1-10.307 1.743 9.562 9.562 0 0 1-7.375-3.084c-1.859-2.031-2.801-5.19-2.801-9.387V95.08h19.79V83.242h-19.79v-17.74h-8.237l-4.976 16.702-10.103 6.156z" class="cls-4"/></g></svg>