<svg xmlns="http://www.w3.org/2000/svg" role="img" viewBox="22.34 9.59 333.58 307.83"><title>Kubiya (member) logo</title><defs><linearGradient id="b" x1="0" x2="1" y1="0" y2="0" gradientTransform="matrix(17.03482 0 0 -17.03482 118.513 124.529)" gradientUnits="userSpaceOnUse" spreadMethod="pad"><stop offset="0" stop-color="#fff" stop-opacity="1"/><stop offset="1" stop-color="#bbb" stop-opacity="1"/></linearGradient><linearGradient id="c" x1="0" x2="1" y1="0" y2="0" gradientTransform="matrix(8.34196 0 0 -8.34196 127.277 127.315)" gradientUnits="userSpaceOnUse" spreadMethod="pad"><stop offset="0" stop-color="#fff" stop-opacity="1"/><stop offset="1" stop-color="#bbb" stop-opacity="1"/></linearGradient><linearGradient id="d" x1="0" x2="1" y1="0" y2="0" gradientTransform="matrix(16.50307 0 0 -16.50307 127.154 129.878)" gradientUnits="userSpaceOnUse" spreadMethod="pad"><stop offset="0" stop-color="#fff" stop-opacity="1"/><stop offset="1" stop-color="#bbb" stop-opacity="1"/></linearGradient><linearGradient id="e" x1="0" x2="1" y1="0" y2="0" gradientTransform="matrix(8.33249 0 0 -8.33249 135.39 132.486)" gradientUnits="userSpaceOnUse" spreadMethod="pad"><stop offset="0" stop-color="#fff" stop-opacity="1"/><stop offset="1" stop-color="#bbb" stop-opacity="1"/></linearGradient><linearGradient id="f" x1="0" x2="1" y1="0" y2="0" gradientTransform="matrix(16.13388 0 0 -16.13388 135.255 134.932)" gradientUnits="userSpaceOnUse" spreadMethod="pad"><stop offset="0" stop-color="#fff" stop-opacity="1"/><stop offset="1" stop-color="#bbb" stop-opacity="1"/></linearGradient><linearGradient id="g" x1="0" x2="1" y1="0" y2="0" gradientTransform="matrix(16.52601 0 0 -16.52601 143.184 130.139)" gradientUnits="userSpaceOnUse" spreadMethod="pad"><stop offset="0" stop-color="#fff" stop-opacity="1"/><stop offset="1" stop-color="#bbb" stop-opacity="1"/></linearGradient><linearGradient id="h" x1="0" x2="1" y1="0" y2="0" gradientTransform="matrix(8.76571 0 0 -8.76571 143.119 127.656)" gradientUnits="userSpaceOnUse" spreadMethod="pad"><stop offset="0" stop-color="#fff" stop-opacity="1"/><stop offset="1" stop-color="#bbb" stop-opacity="1"/></linearGradient><linearGradient id="i" x1="0" x2="1" y1="0" y2="0" gradientTransform="matrix(16.91964 0 0 -16.91964 135.089 124.807)" gradientUnits="userSpaceOnUse" spreadMethod="pad"><stop offset="0" stop-color="#fff" stop-opacity="1"/><stop offset="1" stop-color="#bbb" stop-opacity="1"/></linearGradient><linearGradient id="j" x1="0" x2="1" y1="0" y2="0" gradientTransform="matrix(7.78341 0 0 -7.78341 151.74 127.748)" gradientUnits="userSpaceOnUse" spreadMethod="pad"><stop offset="0" stop-color="#fff" stop-opacity="1"/><stop offset="1" stop-color="#bbb" stop-opacity="1"/></linearGradient><linearGradient id="k" x1="0" x2="1" y1="0" y2="0" gradientTransform="matrix(8.16692 0 0 -8.16692 143.66 122.278)" gradientUnits="userSpaceOnUse" spreadMethod="pad"><stop offset="0" stop-color="#fff" stop-opacity="1"/><stop offset="1" stop-color="#bbb" stop-opacity="1"/></linearGradient><linearGradient id="l" x1="0" x2="1" y1="0" y2="0" gradientTransform="matrix(16.9416 0 0 -16.9416 151.558 125.078)" gradientUnits="userSpaceOnUse" spreadMethod="pad"><stop offset="0" stop-color="#fff" stop-opacity="1"/><stop offset="1" stop-color="#bbb" stop-opacity="1"/></linearGradient><linearGradient id="m" x1="0" x2="1" y1="0" y2="0" gradientTransform="matrix(9.23436 0 0 -9.23436 151.492 122.455)" gradientUnits="userSpaceOnUse" spreadMethod="pad"><stop offset="0" stop-color="#fff" stop-opacity="1"/><stop offset="1" stop-color="#bbb" stop-opacity="1"/></linearGradient><linearGradient id="n" x1="0" x2="1" y1="0" y2="0" gradientTransform="matrix(17.3596 0 0 -17.3596 143.483 119.445)" gradientUnits="userSpaceOnUse" spreadMethod="pad"><stop offset="0" stop-color="#fff" stop-opacity="1"/><stop offset="1" stop-color="#bbb" stop-opacity="1"/></linearGradient><linearGradient id="o" x1="0" x2="1" y1="0" y2="0" gradientTransform="matrix(9.27057 0 0 -9.27057 143.41 116.691)" gradientUnits="userSpaceOnUse" spreadMethod="pad"><stop offset="0" stop-color="#fff" stop-opacity="1"/><stop offset="1" stop-color="#bbb" stop-opacity="1"/></linearGradient><linearGradient id="p" x1="0" x2="1" y1="0" y2="0" gradientTransform="matrix(17.95018 0 0 -17.95018 134.837 113.462)" gradientUnits="userSpaceOnUse" spreadMethod="pad"><stop offset="0" stop-color="#fff" stop-opacity="1"/><stop offset="1" stop-color="#bbb" stop-opacity="1"/></linearGradient><linearGradient id="q" x1="0" x2="1" y1="0" y2="0" gradientTransform="matrix(9.32033 0 0 -9.32033 134.933 106.503)" gradientUnits="userSpaceOnUse" spreadMethod="pad"><stop offset="0" stop-color="#fff" stop-opacity="1"/><stop offset="1" stop-color="#bbb" stop-opacity="1"/></linearGradient><linearGradient id="r" x1="0" x2="1" y1="0" y2="0" gradientTransform="matrix(8.78903 0 0 -8.78903 135.018 122.203)" gradientUnits="userSpaceOnUse" spreadMethod="pad"><stop offset="0" stop-color="#fff" stop-opacity="1"/><stop offset="1" stop-color="#bbb" stop-opacity="1"/></linearGradient><linearGradient id="s" x1="0" x2="1" y1="0" y2="0" gradientTransform="matrix(17.47787 0 0 -17.47787 126.44 119.157)" gradientUnits="userSpaceOnUse" spreadMethod="pad"><stop offset="0" stop-color="#fff" stop-opacity="1"/><stop offset="1" stop-color="#bbb" stop-opacity="1"/></linearGradient><linearGradient id="t" x1="0" x2="1" y1="0" y2="0" gradientTransform="matrix(9.1011 0 0 -9.1011 126.531 112.381)" gradientUnits="userSpaceOnUse" spreadMethod="pad"><stop offset="0" stop-color="#fff" stop-opacity="1"/><stop offset="1" stop-color="#bbb" stop-opacity="1"/></linearGradient><linearGradient id="u" x1="0" x2="1" y1="0" y2="0" gradientTransform="matrix(8.80869 0 0 -8.80869 134.931 112.575)" gradientUnits="userSpaceOnUse" spreadMethod="pad"><stop offset="0" stop-color="#fff" stop-opacity="1"/><stop offset="1" stop-color="#bbb" stop-opacity="1"/></linearGradient><linearGradient id="v" x1="0" x2="1" y1="0" y2="0" gradientTransform="matrix(8.89671 0 0 -8.89671 118.6 117.929)" gradientUnits="userSpaceOnUse" spreadMethod="pad"><stop offset="0" stop-color="#fff" stop-opacity="1"/><stop offset="1" stop-color="#bbb" stop-opacity="1"/></linearGradient><linearGradient id="w" x1="0" x2="1" y1="0" y2="0" gradientTransform="matrix(8.9282 0 0 -8.9282 135.327 102.47)" gradientUnits="userSpaceOnUse" spreadMethod="pad"><stop offset="0" stop-color="#fff" stop-opacity="1"/><stop offset="1" stop-color="#bbb" stop-opacity="1"/></linearGradient><linearGradient id="x" x1="0" x2="1" y1="0" y2="0" gradientTransform="matrix(9.03836 0 0 -9.03836 135.336 98.698)" gradientUnits="userSpaceOnUse" spreadMethod="pad"><stop offset="0" stop-color="#fff" stop-opacity="1"/><stop offset="1" stop-color="#bbb" stop-opacity="1"/></linearGradient><linearGradient id="y" x1="0" x2="1" y1="0" y2="0" gradientTransform="matrix(.66417 0 0 -.66417 135.339 101.754)" gradientUnits="userSpaceOnUse" spreadMethod="pad"><stop offset="0" stop-color="#fff" stop-opacity="1"/><stop offset="1" stop-color="#bbb" stop-opacity="1"/></linearGradient><linearGradient id="z" x1="0" x2="1" y1="0" y2="0" gradientTransform="matrix(8.39074 0 0 -8.39074 127.166 108.527)" gradientUnits="userSpaceOnUse" spreadMethod="pad"><stop offset="0" stop-color="#fff" stop-opacity="1"/><stop offset="1" stop-color="#bbb" stop-opacity="1"/></linearGradient><linearGradient id="A" x1="0" x2="1" y1="0" y2="0" gradientTransform="matrix(8.83563 0 0 -8.83563 127.172 104.614)" gradientUnits="userSpaceOnUse" spreadMethod="pad"><stop offset="0" stop-color="#fff" stop-opacity="1"/><stop offset="1" stop-color="#bbb" stop-opacity="1"/></linearGradient><linearGradient id="B" x1="0" x2="1" y1="0" y2="0" gradientTransform="matrix(7.9737 0 0 -7.9737 119.439 114.108)" gradientUnits="userSpaceOnUse" spreadMethod="pad"><stop offset="0" stop-color="#fff" stop-opacity="1"/><stop offset="1" stop-color="#bbb" stop-opacity="1"/></linearGradient><linearGradient id="C" x1="0" x2="1" y1="0" y2="0" gradientTransform="matrix(8.63982 0 0 -8.63982 119.456 110.208)" gradientUnits="userSpaceOnUse" spreadMethod="pad"><stop offset="0" stop-color="#fff" stop-opacity="1"/><stop offset="1" stop-color="#bbb" stop-opacity="1"/></linearGradient><linearGradient id="D" x1="0" x2="1" y1="0" y2="0" gradientTransform="matrix(8.61462 0 0 -8.61462 135.696 95.104)" gradientUnits="userSpaceOnUse" spreadMethod="pad"><stop offset="0" stop-color="#fff" stop-opacity="1"/><stop offset="1" stop-color="#bbb" stop-opacity="1"/></linearGradient><linearGradient id="E" x1="0" x2="1" y1="0" y2="0" gradientTransform="matrix(8.78453 0 0 -8.78453 135.708 91.38)" gradientUnits="userSpaceOnUse" spreadMethod="pad"><stop offset="0" stop-color="#fff" stop-opacity="1"/><stop offset="1" stop-color="#bbb" stop-opacity="1"/></linearGradient><linearGradient id="F" x1="0" x2="1" y1="0" y2="0" gradientTransform="matrix(.6483 0 0 -.6483 135.71 94.443)" gradientUnits="userSpaceOnUse" spreadMethod="pad"><stop offset="0" stop-color="#fff" stop-opacity="1"/><stop offset="1" stop-color="#bbb" stop-opacity="1"/></linearGradient><linearGradient id="G" x1="0" x2="1" y1="0" y2="0" gradientTransform="matrix(8.16961 0 0 -8.16961 127.765 101.037)" gradientUnits="userSpaceOnUse" spreadMethod="pad"><stop offset="0" stop-color="#fff" stop-opacity="1"/><stop offset="1" stop-color="#bbb" stop-opacity="1"/></linearGradient><linearGradient id="H" x1="0" x2="1" y1="0" y2="0" gradientTransform="matrix(8.59787 0 0 -8.59787 127.766 97.322)" gradientUnits="userSpaceOnUse" spreadMethod="pad"><stop offset="0" stop-color="#fff" stop-opacity="1"/><stop offset="1" stop-color="#bbb" stop-opacity="1"/></linearGradient><linearGradient id="I" x1="0" x2="1" y1="0" y2="0" gradientTransform="matrix(7.7653 0 0 -7.7653 120.247 106.654)" gradientUnits="userSpaceOnUse" spreadMethod="pad"><stop offset="0" stop-color="#fff" stop-opacity="1"/><stop offset="1" stop-color="#bbb" stop-opacity="1"/></linearGradient><linearGradient id="J" x1="0" x2="1" y1="0" y2="0" gradientTransform="matrix(8.4205 0 0 -8.4205 120.249 102.947)" gradientUnits="userSpaceOnUse" spreadMethod="pad"><stop offset="0" stop-color="#fff" stop-opacity="1"/><stop offset="1" stop-color="#bbb" stop-opacity="1"/></linearGradient><linearGradient id="K" x1="0" x2="1" y1="0" y2="0" gradientTransform="matrix(.35252 0 0 -.35252 152.325 109.845)" gradientUnits="userSpaceOnUse" spreadMethod="pad"><stop offset="0" stop-color="#fff" stop-opacity="1"/><stop offset="1" stop-color="#bbb" stop-opacity="1"/></linearGradient><linearGradient id="L" x1="0" x2="1" y1="0" y2="0" gradientTransform="matrix(.34458 0 0 -.34458 152.195 102.055)" gradientUnits="userSpaceOnUse" spreadMethod="pad"><stop offset="0" stop-color="#fff" stop-opacity="1"/><stop offset="1" stop-color="#bbb" stop-opacity="1"/></linearGradient><linearGradient id="M" x1="0" x2="1" y1="0" y2="0" gradientTransform="matrix(8.52827 0 0 -8.52827 143.96 102.52)" gradientUnits="userSpaceOnUse" spreadMethod="pad"><stop offset="0" stop-color="#fff" stop-opacity="1"/><stop offset="1" stop-color="#bbb" stop-opacity="1"/></linearGradient><linearGradient id="N" x1="0" x2="1" y1="0" y2="0" gradientTransform="matrix(.34057 0 0 -.34057 152.074 94.745)" gradientUnits="userSpaceOnUse" spreadMethod="pad"><stop offset="0" stop-color="#fff" stop-opacity="1"/><stop offset="1" stop-color="#bbb" stop-opacity="1"/></linearGradient><linearGradient id="O" x1="0" x2="1" y1="0" y2="0" gradientTransform="matrix(8.22451 0 0 -8.22451 144.139 95.113)" gradientUnits="userSpaceOnUse" spreadMethod="pad"><stop offset="0" stop-color="#fff" stop-opacity="1"/><stop offset="1" stop-color="#bbb" stop-opacity="1"/></linearGradient><linearGradient id="P" x1="0" x2="1" y1="0" y2="0" gradientTransform="matrix(8.8506 0 0 -8.8506 143.831 106.645)" gradientUnits="userSpaceOnUse" spreadMethod="pad"><stop offset="0" stop-color="#fff" stop-opacity="1"/><stop offset="1" stop-color="#bbb" stop-opacity="1"/></linearGradient><linearGradient id="Q" x1="0" x2="1" y1="0" y2="0" gradientTransform="matrix(8.33593 0 0 -8.33593 144.084 91.525)" gradientUnits="userSpaceOnUse" spreadMethod="pad"><stop offset="0" stop-color="#fff" stop-opacity="1"/><stop offset="1" stop-color="#bbb" stop-opacity="1"/></linearGradient><linearGradient id="R" x1="0" x2="1" y1="0" y2="0" gradientTransform="matrix(8.58227 0 0 -8.58227 143.963 98.842)" gradientUnits="userSpaceOnUse" spreadMethod="pad"><stop offset="0" stop-color="#fff" stop-opacity="1"/><stop offset="1" stop-color="#bbb" stop-opacity="1"/></linearGradient><linearGradient id="S" x1="0" x2="1" y1="0" y2="0" gradientTransform="matrix(.5869 0 0 -.5869 160.141 115.802)" gradientUnits="userSpaceOnUse" spreadMethod="pad"><stop offset="0" stop-color="#fff" stop-opacity="1"/><stop offset="1" stop-color="#bbb" stop-opacity="1"/></linearGradient><linearGradient id="T" x1="0" x2="1" y1="0" y2="0" gradientTransform="matrix(.56503 0 0 -.56503 159.791 108.057)" gradientUnits="userSpaceOnUse" spreadMethod="pad"><stop offset="0" stop-color="#fff" stop-opacity="1"/><stop offset="1" stop-color="#bbb" stop-opacity="1"/></linearGradient><linearGradient id="U" x1="0" x2="1" y1="0" y2="0" gradientTransform="matrix(7.5639 0 0 -7.5639 160.188 114.641)" gradientUnits="userSpaceOnUse" spreadMethod="pad"><stop offset="0" stop-color="#fff" stop-opacity="1"/><stop offset="1" stop-color="#bbb" stop-opacity="1"/></linearGradient><linearGradient id="V" x1="0" x2="1" y1="0" y2="0" gradientTransform="matrix(.55503 0 0 -.55503 159.457 100.777)" gradientUnits="userSpaceOnUse" spreadMethod="pad"><stop offset="0" stop-color="#fff" stop-opacity="1"/><stop offset="1" stop-color="#bbb" stop-opacity="1"/></linearGradient><linearGradient id="W" x1="0" x2="1" y1="0" y2="0" gradientTransform="matrix(7.36812 0 0 -7.36812 159.84 107.218)" gradientUnits="userSpaceOnUse" spreadMethod="pad"><stop offset="0" stop-color="#fff" stop-opacity="1"/><stop offset="1" stop-color="#bbb" stop-opacity="1"/></linearGradient><linearGradient id="X" x1="0" x2="1" y1="0" y2="0" gradientTransform="matrix(8.2769 0 0 -8.2769 160.127 118.62)" gradientUnits="userSpaceOnUse" spreadMethod="pad"><stop offset="0" stop-color="#fff" stop-opacity="1"/><stop offset="1" stop-color="#bbb" stop-opacity="1"/></linearGradient><linearGradient id="Y" x1="0" x2="1" y1="0" y2="0" gradientTransform="matrix(7.83553 0 0 -7.83553 159.442 103.648)" gradientUnits="userSpaceOnUse" spreadMethod="pad"><stop offset="0" stop-color="#fff" stop-opacity="1"/><stop offset="1" stop-color="#bbb" stop-opacity="1"/></linearGradient><linearGradient id="Z" x1="0" x2="1" y1="0" y2="0" gradientTransform="matrix(8.04346 0 0 -8.04346 159.777 110.906)" gradientUnits="userSpaceOnUse" spreadMethod="pad"><stop offset="0" stop-color="#fff" stop-opacity="1"/><stop offset="1" stop-color="#bbb" stop-opacity="1"/></linearGradient><linearGradient id="aa" x1="0" x2="1" y1="0" y2="0" gradientTransform="matrix(8.42223 0 0 -8.42223 152.32 112.811)" gradientUnits="userSpaceOnUse" spreadMethod="pad"><stop offset="0" stop-color="#fff" stop-opacity="1"/><stop offset="1" stop-color="#bbb" stop-opacity="1"/></linearGradient><linearGradient id="ab" x1="0" x2="1" y1="0" y2="0" gradientTransform="matrix(7.9296 0 0 -7.9296 152.378 108.801)" gradientUnits="userSpaceOnUse" spreadMethod="pad"><stop offset="0" stop-color="#fff" stop-opacity="1"/><stop offset="1" stop-color="#bbb" stop-opacity="1"/></linearGradient><linearGradient id="ac" x1="0" x2="1" y1="0" y2="0" gradientTransform="matrix(7.71402 0 0 -7.71402 152.249 101.338)" gradientUnits="userSpaceOnUse" spreadMethod="pad"><stop offset="0" stop-color="#fff" stop-opacity="1"/><stop offset="1" stop-color="#bbb" stop-opacity="1"/></linearGradient><linearGradient id="ad" x1="0" x2="1" y1="0" y2="0" gradientTransform="matrix(7.95801 0 0 -7.95801 152.069 97.757)" gradientUnits="userSpaceOnUse" spreadMethod="pad"><stop offset="0" stop-color="#fff" stop-opacity="1"/><stop offset="1" stop-color="#bbb" stop-opacity="1"/></linearGradient><linearGradient id="ae" x1="0" x2="1" y1="0" y2="0" gradientTransform="matrix(8.18021 0 0 -8.18021 152.19 105.047)" gradientUnits="userSpaceOnUse" spreadMethod="pad"><stop offset="0" stop-color="#fff" stop-opacity="1"/><stop offset="1" stop-color="#bbb" stop-opacity="1"/></linearGradient><clipPath id="a" clipPathUnits="userSpaceOnUse"><path d="M0 244.746h283.465V0H0z"/></clipPath><clipPath id="af" clipPathUnits="userSpaceOnUse"><path d="M0 244.746h283.465V0H0z"/></clipPath></defs><g transform="matrix(1.33333 0 0 -1.33333 0 326.328)"><path fill="#2c358c" fill-opacity="1" fill-rule="nonzero" stroke="none" d="M210.463 23.297h2.68l1.339 2.32-1.34 2.321h-2.679l-1.339-2.321zm3.134-.787h-3.588l-1.794 3.107 1.794 3.108h3.588l1.794-3.108z"/><g clip-path="url(#a)"><path fill="#2c358c" fill-opacity="1" fill-rule="nonzero" stroke="none" d="M211.803 26.66c-.575 0-1.043-.468-1.043-1.043s.468-1.043 1.043-1.043 1.043.468 1.043 1.043-.468 1.043-1.043 1.043m0-2.873c-1.009 0-1.83.821-1.83 1.83 0 1.009.821 1.83 1.83 1.83 1.009 0 1.83-.821 1.83-1.83 0-1.009-.821-1.83-1.83-1.83"/><path fill="#2c358c" fill-opacity="1" fill-rule="nonzero" stroke="none" d="M126.846 50.045h3.455V23.191h-3.455z"/><path fill="#2c358c" fill-opacity="1" fill-rule="nonzero" stroke="none" d="M246.215 35.628c-.111-1.699-.556-3.247-1.338-4.643-.913-1.627-2.215-2.917-3.908-3.871-1.693-.953-3.484-1.429-5.374-1.429-1.874 0-3.629.48-5.264 1.442-1.635.961-2.938 2.305-3.907 4.031-.97 1.725-1.455 3.533-1.455 5.424 0 1.906.481 3.714 1.442 5.423.962 1.709 2.256 3.036 3.884 3.981 1.627.946 3.402 1.419 5.325 1.419 2.991 0 5.51-1.045 7.555-3.132 1.961-2 2.971-4.472 3.054-7.406zm-.192 14.417v-4.936c-1.349 1.876-2.917 3.283-4.702 4.22-1.786.939-3.78 1.407-5.985 1.407-3.818 0-7.084-1.374-9.799-4.121-2.715-2.749-4.072-6.056-4.072-9.923 0-3.949 1.345-7.301 4.035-10.057 2.69-2.757 5.936-4.135 9.737-4.135 2.139 0 4.109.445 5.911 1.333 1.802.889 3.427 2.213 4.875 3.974v-4.615h3.406v26.853z"/><path fill="#2c358c" fill-opacity="1" fill-rule="nonzero" stroke="none" d="M193.858 35.628c-.111-1.699-.556-3.247-1.338-4.643-.913-1.627-2.215-2.917-3.908-3.871-1.693-.953-3.484-1.429-5.374-1.429-1.874 0-3.629.48-5.264 1.442-1.635.961-2.938 2.305-3.907 4.031-.97 1.725-1.455 3.533-1.455 5.424 0 1.906.481 3.714 1.442 5.423.962 1.709 2.256 3.036 3.884 3.981 1.627.946 3.402 1.419 5.325 1.419 2.991 0 5.51-1.045 7.555-3.132 1.961-2 2.971-4.472 3.054-7.406zm-.192 14.417v-4.936c-1.349 1.876-2.917 3.283-4.702 4.22-1.786.939-3.78 1.407-5.985 1.407-3.818 0-7.084-1.374-9.799-4.121-2.715-2.749-4.072-6.056-4.072-9.923 0-3.949 1.345-7.301 4.035-10.057 2.69-2.757 5.936-4.135 9.737-4.135 2.139 0 4.109.445 5.911 1.333 1.802.889 3.427 2.213 4.875 3.974v-4.615h3.406v26.853z"/><path fill="#2c358c" fill-opacity="1" fill-rule="nonzero" stroke="none" d="M127.305 52.329h2.68l1.339 2.32-1.34 2.321h-2.679l-1.339-2.321zm3.134-.787h-3.588l-1.794 3.107 1.794 3.108h3.588l1.794-3.108z"/><path fill="#2c358c" fill-opacity="1" fill-rule="nonzero" stroke="none" d="M128.645 55.692c-.575 0-1.043-.468-1.043-1.043s.468-1.043 1.043-1.043 1.043.468 1.043 1.043-.468 1.043-1.043 1.043m0-2.873c-1.009 0-1.83.821-1.83 1.83 0 1.009.821 1.83 1.83 1.83 1.009 0 1.83-.821 1.83-1.83 0-1.009-.821-1.83-1.83-1.83"/><path fill="#2c358c" fill-opacity="1" fill-rule="nonzero" stroke="none" d="M256.829 50.045h3.455V23.191h-3.455z"/><path fill="#2c358c" fill-opacity="1" fill-rule="nonzero" stroke="none" d="M257.268 52.329h2.68l1.339 2.32-1.34 2.321h-2.679l-1.339-2.321zm3.134-.787h-3.588l-1.794 3.107 1.794 3.108h3.588l1.794-3.108z"/><path fill="#2c358c" fill-opacity="1" fill-rule="nonzero" stroke="none" d="M258.608 55.692c-.575 0-1.043-.468-1.043-1.043s.468-1.043 1.043-1.043 1.043.468 1.043 1.043-.468 1.043-1.043 1.043m0-2.873c-1.009 0-1.83.821-1.83 1.83 0 1.009.821 1.83 1.83 1.83 1.009 0 1.83-.821 1.83-1.83 0-1.009-.821-1.83-1.83-1.83"/><path fill="#2c358c" fill-opacity="1" fill-rule="nonzero" stroke="none" d="M160.589 48.05l-8.507-19.63-.362.877-9.229 20.679h-3.653l11.023-24.82.367-.9-.46-1.026-5.17-11.857h3.65l16.018 36.677z"/><path fill="#2c358c" fill-opacity="1" fill-rule="nonzero" stroke="none" d="M111.07 31.237c-.96-1.711-2.253-3.04-3.878-3.986-1.625-.946-3.398-1.42-5.319-1.42-2.988 0-5.503 1.045-7.547 3.135-2.045 2.09-3.066 4.69-3.066 7.8 0 2.04.455 3.874 1.367 5.504.911 1.628 2.216 2.924 3.915 3.887 1.699.963 3.492 1.444 5.38 1.444 1.855 0 3.599-.481 5.233-1.444 1.633-.963 2.934-2.307 3.903-4.036.917-1.635 1.394-3.353 1.443-5.151 0 0 .016-.494.012-.663-.005-.172-.046-.577-.046-.577-.133-1.566-.595-3.065-1.397-4.493m.914 15.364c-2.687 2.756-5.93 4.135-9.727 4.135-2.137 0-4.101-.441-5.893-1.321-1.792-.88-3.411-2.209-4.857-3.986v14.982h-3.456v-37.22h3.456v4.936c1.364-1.876 2.934-3.283 4.709-4.22 1.776-.939 3.756-1.407 5.943-1.407 3.813 0 7.076 1.373 9.788 4.121 2.515 2.548 3.862 5.585 4.045 9.109l.015 1.24c-.089 3.758-1.428 6.97-4.023 9.631"/><path fill="#2c358c" fill-opacity="1" fill-rule="nonzero" stroke="none" d="M29.053 37.235l14.76 12.81h-5.074L26.304 39.221v-.039h-1.255v21.229h-3.455v-37.22h3.455v12.097h1.255v-.02l13.509-12.077h4.863z"/><path fill="#2c358c" fill-opacity="1" fill-rule="nonzero" stroke="none" d="M74.874 50.045V37.507c0-3.357-.173-5.554-.519-6.59-.511-1.514-1.438-2.736-2.781-3.665-1.343-.93-2.979-1.395-4.907-1.395-.169 0-.334.008-.499.016l-.984-.001v.001c-.005-.001-.01-.001-.014-.001h-.01c-.157-.007-.314-.015-.475-.015-1.928 0-3.563.465-4.907 1.395-1.342.929-2.269 2.151-2.781 3.665-.345 1.036-.519 3.233-.519 6.59v12.538h-3.529v-13.18c0-3.702.432-6.492 1.296-8.367.863-1.876 2.164-3.345 3.899-4.406 1.627-.994 3.639-1.522 6.038-1.585v-.001h.056c.144-.003.288-.006.435-.006.094 0 .186.003.278.006h1.45c.092-.003.184-.006.279-.006.146 0 .29.003.434.006h.145v.004c2.359.074 4.343.6 5.949 1.582 1.736 1.061 3.036 2.53 3.9 4.406.864 1.875 1.295 4.665 1.295 8.367v13.18z"/><path fill="#a9a9aa" fill-opacity="1" fill-rule="nonzero" stroke="none" d="M240.052 126.435l-6.05 7.334-8.453-6.973 6.051-7.334z"/><path fill="#a9a9aa" fill-opacity="1" fill-rule="nonzero" stroke="none" d="M221.67 117.746l1.231 9.36-13.715 1.803-1.231-9.359z"/><path fill="#979697" fill-opacity="1" fill-rule="nonzero" stroke="none" d="M130.87 73.551h-18.909v16.032h18.909z"/><path fill="#979697" fill-opacity="1" fill-rule="nonzero" stroke="none" d="M123.882 62.658h-10.174v10.957h10.174z"/><path fill="#979697" fill-opacity="1" fill-rule="nonzero" stroke="none" d="M155.779 73.551h18.909v16.032h-18.909z"/><path fill="#979697" fill-opacity="1" fill-rule="nonzero" stroke="none" d="M162.767 62.658h10.174v10.957h-10.174z"/><path fill="#bbb" fill-opacity="1" fill-rule="nonzero" stroke="none" d="M167.827 82.613h-54.7v59.336h54.7z"/><path fill="#979697" fill-opacity="1" fill-rule="nonzero" stroke="none" d="M96.662 67.095h-4.13c0 6.054-4.925 10.979-10.979 10.979-6.054 0-10.979-4.925-10.979-10.979h-4.13c0 8.331 6.778 15.109 15.109 15.109s15.109-6.778 15.109-15.109"/><path fill="#979697" fill-opacity="1" fill-rule="nonzero" stroke="none" d="M95.324 124.74H76.415v16.032h18.909z"/><path fill="#979697" fill-opacity="1" fill-rule="nonzero" stroke="none" d="M88.336 113.846H78.162v10.957h10.174z"/><path fill="#979697" fill-opacity="1" fill-rule="nonzero" stroke="none" d="M88.336 92.265H78.162v10.957h10.174z"/><path fill="#a9a9aa" fill-opacity="1" fill-rule="nonzero" stroke="none" d="M86.589 103.056H76.415v10.957h10.174z"/><path fill="#a9a9aa" fill-opacity="1" fill-rule="nonzero" stroke="none" d="M86.589 81.372H76.415v10.957h10.174z"/><path fill="#979697" fill-opacity="1" fill-rule="nonzero" stroke="none" d="M196.04 118.04l8.765 16.755-14.205 7.432-8.765-16.756z"/><path fill="#979697" fill-opacity="1" fill-rule="nonzero" stroke="none" d="M208.931 119.183l4.716 9.015-9.709 5.079-4.716-9.015z"/><path fill="#979697" fill-opacity="1" fill-rule="nonzero" stroke="none" d="M231.974 119.475l-1.699 10.032-10.803-1.83 1.699-10.031z"/><path fill="#a9a9aa" fill-opacity="1" fill-rule="nonzero" stroke="none" d="M114.352 133.689c0-6.985-5.663-12.648-12.648-12.648-6.986 0-12.649 5.663-12.649 12.648 0 6.985 5.663 12.648 12.649 12.648 6.985 0 12.648-5.663 12.648-12.648"/><path fill="#a9a9aa" fill-opacity="1" fill-rule="nonzero" stroke="none" d="M195.23 133.689c0-6.985-5.663-12.648-12.648-12.648-6.986 0-12.649 5.663-12.649 12.648 0 6.985 5.663 12.648 12.649 12.648 6.985 0 12.648-5.663 12.648-12.648"/><path fill="#979697" fill-opacity="1" fill-rule="nonzero" stroke="none" d="M162.74 148.685h-42.238v8.941h42.238z"/><path fill="#d8d8d9" fill-opacity="1" fill-rule="nonzero" stroke="none" d="M93.484 171.072h6.861v25.835h-6.861z"/><path fill="#979697" fill-opacity="1" fill-rule="nonzero" stroke="none" d="M100.379 193.666h-6.877v.413h6.877z"/><path fill="#979697" fill-opacity="1" fill-rule="nonzero" stroke="none" d="M100.379 196.442h-6.877v.413h6.877z"/><path fill="#979697" fill-opacity="1" fill-rule="nonzero" stroke="none" d="M100.379 188.073h-6.877v.413h6.877z"/><path fill="#979697" fill-opacity="1" fill-rule="nonzero" stroke="none" d="M100.379 190.849h-6.877v.413h6.877z"/><path fill="#979697" fill-opacity="1" fill-rule="nonzero" stroke="none" d="M100.379 182.48h-6.877v.413h6.877z"/><path fill="#979697" fill-opacity="1" fill-rule="nonzero" stroke="none" d="M100.379 185.256h-6.877v.413h6.877z"/><path fill="#979697" fill-opacity="1" fill-rule="nonzero" stroke="none" d="M100.379 176.887h-6.877v.413h6.877z"/><path fill="#979697" fill-opacity="1" fill-rule="nonzero" stroke="none" d="M100.379 179.663h-6.877v.413h6.877z"/><path fill="#979697" fill-opacity="1" fill-rule="nonzero" stroke="none" d="M100.379 173.825h-6.877v.413h6.877z"/><path fill="#979697" fill-opacity="1" fill-rule="nonzero" stroke="none" d="M100.379 171.008h-6.877v.413h6.877z"/><path fill="#979697" fill-opacity="1" fill-rule="nonzero" stroke="none" d="M93.411 175.493h-2.022v17.073h2.022z"/><path fill="#d8d8d9" fill-opacity="1" fill-rule="nonzero" stroke="none" d="M190.439 171.072h-6.861v25.835h6.861z"/><path fill="#979697" fill-opacity="1" fill-rule="nonzero" stroke="none" d="M190.421 193.666h-6.877v.413h6.877z"/><path fill="#979697" fill-opacity="1" fill-rule="nonzero" stroke="none" d="M190.421 196.442h-6.877v.413h6.877z"/><path fill="#979697" fill-opacity="1" fill-rule="nonzero" stroke="none" d="M190.421 188.073h-6.877v.413h6.877z"/><path fill="#979697" fill-opacity="1" fill-rule="nonzero" stroke="none" d="M190.421 190.849h-6.877v.413h6.877z"/><path fill="#979697" fill-opacity="1" fill-rule="nonzero" stroke="none" d="M190.421 182.48h-6.877v.413h6.877z"/><path fill="#979697" fill-opacity="1" fill-rule="nonzero" stroke="none" d="M190.421 185.256h-6.877v.413h6.877z"/><path fill="#979697" fill-opacity="1" fill-rule="nonzero" stroke="none" d="M190.421 176.887h-6.877v.413h6.877z"/><path fill="#979697" fill-opacity="1" fill-rule="nonzero" stroke="none" d="M190.421 179.663h-6.877v.413h6.877z"/><path fill="#979697" fill-opacity="1" fill-rule="nonzero" stroke="none" d="M190.421 173.825h-6.877v.413h6.877z"/><path fill="#979697" fill-opacity="1" fill-rule="nonzero" stroke="none" d="M190.421 171.008h-6.877v.413h6.877z"/><path fill="#979697" fill-opacity="1" fill-rule="nonzero" stroke="none" d="M190.512 175.493h2.022v17.073h-2.022z"/><path fill="#d8d8d9" fill-opacity="1" fill-rule="nonzero" stroke="none" d="M183.589 157.31h-77.21v53.554h77.21z"/><path fill="#402564" fill-opacity="1" fill-rule="nonzero" stroke="none" d="M174.69 196.359c-.245-.874-.267-1.781-.384-2.674-.053-.407-.121-.71-.592-.903-.904-.37-1.257-1.22-1.434-2.105-.367-1.838-.635-3.697-1.027-5.529-.513-2.396-1.465-4.575-3.459-6.148-1.715-1.353-3.719-1.982-5.856-2.11-3.416-.204-6.725.361-9.861 1.762-2.48 1.107-3.985 3.183-5.224 5.48-.903 1.674-1.314 3.547-2.047 5.292-.081.194-.154.392-.247.58-.673 1.358-1.969 1.93-3.428 1.501-.54-.159-.776-.63-.992-1.086-.522-1.105-.889-2.272-1.299-3.421-.805-2.258-1.829-4.401-3.448-6.198-1.734-1.926-4.003-2.899-6.475-3.447-2.704-.601-5.447-.837-8.15-.129-4.162 1.089-6.798 3.736-7.613 8.029-.314 1.655-.524 3.33-.77 4.997-.186 1.269-.73 2.285-1.97 2.799-.288.119-.28.332-.3.559-.081.925-.138 1.852-.251 2.773-.047.386.079.508.433.577 2.653.516 5.33.843 8.023 1.036 3.015.215 6.032.205 9.046.002 3.467-.234 6.825-1.014 10.126-2.075 1.221-.392 2.438-.816 3.726-.946 1.435-.144 2.807.186 4.173.563 2.799.772 5.564 1.672 8.443 2.138 2.262.366 4.539.374 6.815.378 4.713.009 9.393-.42 14.042-1.188z"/><path fill="#6d4d9a" fill-opacity="1" fill-rule="nonzero" stroke="none" d="M136.931 189.53c-.263-2.026-.769-3.98-1.689-5.818-1.285-2.565-3.401-4.098-6.075-4.944-.976-.309-1.977-.52-2.997-.635-1.006.085-2.013.087-3.02-.001-1.706.306-3.354.769-4.718 1.907-.708.59-1.407 1.2-1.867 2.023.068.235.247.388.409.551 4.387 4.393 8.785 8.774 13.165 13.173.06.06.131.106.19.167 1.284-.209 2.616-.364 3.736-1.033 1.635-.975 2.83-2.334 2.868-4.398-.085-.33-.082-.661-.002-.992"/><path fill="#6d4d9a" fill-opacity="1" fill-rule="nonzero" stroke="none" d="M158.364 178.137c-1.709.205-3.363.615-4.899 1.409-.758.392-1.521.792-2.086 1.466.028.231.203.364.35.511 4.666 4.674 9.344 9.336 14.006 14.015.059.059.131.106.189.167.983-.224 1.773-.795 2.466-1.48 1.125-1.115 1.704-2.487 1.728-4.081-.084-.247-.082-.495-.001-.743.055-.356-.017-.697-.128-1.033-.08-.204-.08-.408 0-.612-.198-1.37-.529-2.708-1.076-3.98-1.308-3.045-3.612-4.871-6.854-5.524-.225-.045-.451-.08-.677-.12-1.006.093-2.012.079-3.018.005"/><path fill="#6d4d9a" fill-opacity="1" fill-rule="nonzero" stroke="none" d="M148.33 186.22c-.452 1.057-.543 2.194-.729 3.31.08.373.08.745 0 1.118.026 1.63.924 2.791 2.089 3.78.887.753 1.982 1.022 3.102 1.253 1.134.234 2.279.364 3.42.533.33-.073.66-.079.99.004 1.696.283 3.392.199 5.088-.003.194-.108.414-.002.612-.075.112-.402-.241-.551-.444-.755-3.835-3.848-7.677-7.689-11.522-11.527-.357-.355-.675-.751-1.08-1.056-.275.416-.549.832-.727 1.301 1.603 1.649 3.246 3.26 4.87 4.888 2.339 2.345 4.683 4.686 7.089 7.09-.95-.005-1.827-.002-2.705-.004-.32 0-.559-.147-.777-.364-2.925-2.926-5.848-5.852-8.779-8.772-.216-.215-.275-.52-.497-.721"/><path fill="#f1f1f1" fill-opacity="1" fill-rule="nonzero" stroke="none" d="M149.855 182.803c.037.282.278.412.452.585 4.059 4.066 8.122 8.128 12.184 12.192.162.163.311.339.466.51.145.134.307.077.468.04.845-.069 1.67-.259 2.499-.424.01-.252-.204-.355-.346-.497-4.731-4.734-9.465-9.465-14.199-14.196-.627.495-1.06 1.156-1.524 1.79"/><path fill="#f1f1f1" fill-opacity="1" fill-rule="nonzero" stroke="none" d="M130.329 195.954c.08-.244-.134-.333-.257-.456-4.401-4.407-8.805-8.811-13.211-13.213-.086-.086-.197-.148-.296-.222-.434.717-.832 1.453-1.127 2.239.041.272.242.437.419.614 3.607 3.609 7.215 7.215 10.821 10.825.196.196.4.372.657.482.998-.09 1.996-.179 2.994-.269"/><path fill="#f1f1f1" fill-opacity="1" fill-rule="nonzero" stroke="none" d="M148.33 186.22c-.08.287.081.465.268.651 3.03 3.024 6.056 6.052 9.084 9.078.132.132.248.287.467.292 1.044.021 2.089.08 3.153-.023-.069-.257-.262-.364-.403-.506-3.739-3.747-7.481-7.491-11.227-11.23-.155-.154-.259-.402-.543-.379-.267.706-.533 1.411-.799 2.117"/><path fill="#f1f1f1" fill-opacity="1" fill-rule="nonzero" stroke="none" d="M114.931 185.875c-.144.917-.389 1.82-.394 2.757.037.252.236.39.397.551 2.183 2.188 4.37 4.371 6.553 6.559.195.196.399.372.656.48.162.011.325.022.487.032.882.089 1.766.015 2.648.04.347.01.345-.15.193-.385-.057-.089-.13-.166-.204-.24-3.215-3.22-6.43-6.44-9.659-9.646-.161-.16-.352-.569-.677-.148"/><path fill="#6d4d9a" fill-opacity="1" fill-rule="nonzero" stroke="none" d="M122.143 196.222c-2.535-2.53-5.071-5.06-7.606-7.59-.222.229-.104.51-.118.772.077.246.077.492 0 .739.091 3.091 2.215 5.436 5.221 5.774.245.028.485.114.727.172.204-.077.407-.078.611.001.377.142.766.184 1.165.132"/><path fill="#6d4d9a" fill-opacity="1" fill-rule="nonzero" stroke="none" d="M114.931 185.875c.345-.304.432.113.56.241 2.946 2.923 5.878 5.862 8.814 8.796.412.411.83.816 1.327 1.304-1.09.138-2.048-.019-3.002.038.527.212 1.08.118 1.62.12 1.03.003 2.066.073 3.085-.151-3.326-3.336-6.651-6.672-9.978-10.007-.638-.64-1.28-1.276-1.919-1.914-.221.508-.424 1.021-.507 1.573"/><path fill="#d8d8d9" fill-opacity="1" fill-rule="nonzero" stroke="none" d="M112.481 194.578c-.355.054-1.042-.131-1.086.393-.035.413.663.434 1.082.521.602.126 1.205.158 1.807-.01.165-.046.351-.089.356-.291.005-.172-.177-.218-.306-.275-.565-.251-1.163-.34-1.853-.338"/><path fill="#d8d8d9" fill-opacity="1" fill-rule="nonzero" stroke="none" d="M171.853 194.585c-.57.001-1.13.066-1.658.295-.148.064-.33.146-.304.352.021.173.197.202.333.237.904.231 1.786.125 2.649-.197.155-.058.336-.139.311-.343-.021-.171-.201-.182-.337-.229-.323-.111-.657-.121-.994-.115"/><path fill="#556d7a" fill-opacity="1" fill-rule="nonzero" stroke="none" d="M123.15 178.132c1.007.19 2.014.188 3.021.002-1.007-.001-2.014-.001-3.021-.002"/><path fill="#556d7a" fill-opacity="1" fill-rule="nonzero" stroke="none" d="M158.364 178.137c1.006.179 2.012.186 3.018-.005-1.006.002-2.012.003-3.018.005"/><path fill="#556d7a" fill-opacity="1" fill-rule="nonzero" stroke="none" d="M163.425 196.13c-.156-.013-.312-.027-.468-.04-.22.053-.474-.069-.667.126.379-.017.771.125 1.135-.086"/><path fill="#536c79" fill-opacity="1" fill-rule="nonzero" stroke="none" d="M147.6 190.649c.175-.373.177-.746 0-1.118v1.118"/><path fill="#546c7b" fill-opacity="1" fill-rule="nonzero" stroke="none" d="M157.201 196.218c-.33-.181-.66-.176-.99-.003l.99.003"/><path fill="#536b79" fill-opacity="1" fill-rule="nonzero" stroke="none" d="M136.931 189.53c-.176.331-.178.662.002.992-.001-.331-.001-.661-.002-.992"/><path fill="#516976" fill-opacity="1" fill-rule="nonzero" stroke="none" d="M114.418 190.142c.172-.246.172-.493 0-.739v.739"/><path fill="#516976" fill-opacity="1" fill-rule="nonzero" stroke="none" d="M170.117 189.402c-.175.248-.178.496.002.743-.001-.248-.001-.495-.002-.743"/><path fill="#556d7a" fill-opacity="1" fill-rule="nonzero" stroke="none" d="M120.978 196.09c-.203-.166-.407-.166-.611-.001.204 0 .407.001.611.001"/><path fill="#556e7b" fill-opacity="1" fill-rule="nonzero" stroke="none" d="M169.989 187.757c-.167.204-.167.408 0 .612v-.612"/><path fill="#a9a9aa" fill-opacity="1" fill-rule="nonzero" stroke="none" d="M120.41 174.387c-2.929-.001-5.326-2.399-5.326-5.346s2.397-5.345 5.345-5.345c.178-.017 15.81-1.593 21.006-1.599h.031c5.39 0 21.456 1.582 21.618 1.598l.02.001c2.947 0 5.345 2.398 5.345 5.345 0 2.947-2.398 5.345-5.345 5.345-.147-.013-16.469-1.424-21.882-1.424h-.021c-5.178.003-20.636 1.411-20.791 1.425m21.056-12.703h-.032c-5.216.006-20.869 1.584-21.026 1.6h-.002c-3.153 0-5.735 2.583-5.735 5.757 0 3.175 2.583 5.758 5.758 5.758.174-.015 15.613-1.421 20.773-1.424h.02c5.394 0 21.7 1.409 21.864 1.423h.002c3.192 0 5.774-2.582 5.774-5.757 0-3.172-2.577-5.752-5.748-5.758-.481-.047-16.292-1.599-21.648-1.599"/><path fill="#a9a9aa" fill-opacity="1" fill-rule="nonzero" stroke="none" d="M120.39 174.182c-2.796-.002-5.101-2.307-5.101-5.14 0-2.834 2.305-5.139 5.139-5.139l.041-.002c.157-.016 15.779-1.591 20.965-1.597h.031c5.38 0 21.435 1.581 21.597 1.597l.041.002c2.833 0 5.139 2.305 5.139 5.139 0 2.833-2.306 5.138-5.139 5.138-.129-.013-16.46-1.424-21.883-1.424h-.02c-5.187.003-20.655 1.412-20.81 1.426m21.074-12.704h-.031c-5.14.006-20.374 1.533-21.027 1.599-3.279.011-5.943 2.683-5.943 5.965 0 3.288 2.676 5.964 5.965 5.964.192-.016 15.622-1.421 20.772-1.424h.021c5.385 0 21.682 1.408 21.846 1.422h.003c3.324 0 5.998-2.674 5.998-5.962 0-3.283-2.665-5.954-5.945-5.965-.655-.064-16.324-1.599-21.659-1.599"/><path fill="#a9a9aa" fill-opacity="1" fill-rule="nonzero" stroke="none" d="M120.472 163.305h-.826v11.218h.826z"/><path fill="#a9a9aa" fill-opacity="1" fill-rule="nonzero" stroke="none" d="M124.647 163.178h-.826v11.176h.826z"/><path fill="#a9a9aa" fill-opacity="1" fill-rule="nonzero" stroke="none" d="M128.864 162.824h-.826v11.318h.826z"/><path fill="#a9a9aa" fill-opacity="1" fill-rule="nonzero" stroke="none" d="M132.196 162.669h-.826v11.432h.826z"/><path fill="#a9a9aa" fill-opacity="1" fill-rule="nonzero" stroke="none" d="M136.455 162.28h-.826v11.525h.826z"/><path fill="#a9a9aa" fill-opacity="1" fill-rule="nonzero" stroke="none" d="M140.63 161.891h-.826v11.746h.826z"/><path fill="#a9a9aa" fill-opacity="1" fill-rule="nonzero" stroke="none" d="M144.552 162.046h-.826v11.633h.826z"/><path fill="#a9a9aa" fill-opacity="1" fill-rule="nonzero" stroke="none" d="M148.263 162.124h-.826v11.2h.826z"/><path fill="#a9a9aa" fill-opacity="1" fill-rule="nonzero" stroke="none" d="M152.269 162.28h-.826v11.356h.826z"/><path fill="#a9a9aa" fill-opacity="1" fill-rule="nonzero" stroke="none" d="M156.739 162.824h-.826v11.318h.826z"/><path fill="#a9a9aa" fill-opacity="1" fill-rule="nonzero" stroke="none" d="M159.625 163.502l-.338 10.796.826.026.337-10.796z"/><path fill="#a9a9aa" fill-opacity="1" fill-rule="nonzero" stroke="none" d="M164.246 163.6h-.826v11.049h.826z"/><path fill="#979697" fill-opacity="1" fill-rule="nonzero" stroke="none" d="M100.355 158.625l6.023-1.314v53.554l-6.023-1.314z"/><path fill="#d8d8d9" fill-opacity="1" fill-rule="nonzero" stroke="none" d="M183.589 80.036h-77.21v68.654h77.21z"/><path fill="#979697" fill-opacity="1" fill-rule="nonzero" stroke="none" d="M100.355 81.72l6.023-1.685v68.654l-6.023-1.684z"/><path fill="#c5c4c5" fill-opacity="1" fill-rule="nonzero" stroke="none" d="M96.457 196.883h-.826v28.672h.826z"/><path fill="#c5c4c5" fill-opacity="1" fill-rule="nonzero" stroke="none" d="M187.715 196.883h-.826v28.672h.826z"/><path fill="#979697" fill-opacity="1" fill-rule="nonzero" stroke="none" d="M99.949 228.896c0-2.128-1.725-3.854-3.854-3.854-2.128 0-3.854 1.726-3.854 3.854s1.726 3.854 3.854 3.854c2.129 0 3.854-1.726 3.854-3.854"/><path fill="#d8d8d9" fill-opacity="1" fill-rule="nonzero" stroke="none" d="M98.687 228.79c0-1.387-1.124-2.511-2.511-2.511s-2.511 1.124-2.511 2.511 1.124 2.511 2.511 2.511 2.511-1.124 2.511-2.511"/><path fill="#979697" fill-opacity="1" fill-rule="nonzero" stroke="none" d="M191.31 228.896c0-2.128-1.725-3.854-3.854-3.854-2.128 0-3.854 1.726-3.854 3.854s1.726 3.854 3.854 3.854c2.129 0 3.854-1.726 3.854-3.854"/><path fill="#a9a9aa" fill-opacity="1" fill-rule="nonzero" stroke="none" d="M111.489 166.222c-.024 0-.048.002-.072.006-.068.012-1.664.326-1.664 3.129 0 2.519 1.533 3.089 1.598 3.112.215.076.451-.037.527-.252.075-.214-.035-.447-.247-.525-.054-.021-1.052-.442-1.052-2.335 0-2.084.972-2.314.981-2.315.225-.04.375-.254.335-.479-.035-.2-.209-.341-.406-.341"/><path fill="#a9a9aa" fill-opacity="1" fill-rule="nonzero" stroke="none" d="M171.768 166.222c-.197 0-.371.141-.406.341-.04.225.11.439.335.479.03.007.981.249.981 2.315 0 1.904-1.01 2.318-1.053 2.335-.21.082-.319.319-.241.53.079.211.309.322.522.247.065-.023 1.598-.593 1.598-3.112 0-2.803-1.596-3.117-1.664-3.129a.43725.43725 0 0 0-.072-.006"/><path fill="#f2f2f2" fill-opacity="1" fill-rule="nonzero" stroke="none" d="M159.442 130.396l-7.62-5.296z"/><path fill="#f2f2f2" fill-opacity="1" fill-rule="nonzero" stroke="none" d="M151.745 125.06l-8.003-5.563z"/><path fill="#f2f2f2" fill-opacity="1" fill-rule="nonzero" stroke="none" d="M143.658 119.455l-8.568-5.956.396-7.916-.407 7.926z"/><path fill="#f2f2f2" fill-opacity="1" fill-rule="nonzero" stroke="none" d="M135.482 105.434l.378-7.361z"/><path fill="#f2f2f2" fill-opacity="1" fill-rule="nonzero" stroke="none" d="M135.854 97.976l.362-7.065z"/><path fill="#f2f2f2" fill-opacity="1" fill-rule="nonzero" stroke="none" d="M152.534 113.783l-.066-7.876z"/><path fill="#f2f2f2" fill-opacity="1" fill-rule="nonzero" stroke="none" d="M152.397 105.713l-.058-7.315z"/><path fill="#f2f2f2" fill-opacity="1" fill-rule="nonzero" stroke="none" d="M152.4 105.854l-8.293-6.491-.002.143z"/><path fill="#f2f2f2" fill-opacity="1" fill-rule="nonzero" stroke="none" d="M152.271 98.256l-.054-7.021z"/><path fill="#f2f2f2" fill-opacity="1" fill-rule="nonzero" stroke="none" d="M152.273 98.346l-8.045-6.465z"/><path fill="#f2f2f2" fill-opacity="1" fill-rule="nonzero" stroke="none" d="M160.584 119.716l-.3-7.828z"/><path fill="#f2f2f2" fill-opacity="1" fill-rule="nonzero" stroke="none" d="M160.213 111.697l-.278-7.28z"/><path fill="#f2f2f2" fill-opacity="1" fill-rule="nonzero" stroke="none" d="M160.276 111.746l7.387 5.789z"/><path fill="#f2f2f2" fill-opacity="1" fill-rule="nonzero" stroke="none" d="M159.869 104.278l-.268-7.001z"/><path fill="#f2f2f2" fill-opacity="1" fill-rule="nonzero" stroke="none" d="M159.93 104.328l7.188 5.781z"/><path fill="#f2f2f2" fill-opacity="1" fill-rule="nonzero" stroke="none" d="M160.219 111.838l-7.753-6.073z"/><path fill="#f2f2f2" fill-opacity="1" fill-rule="nonzero" stroke="none" d="M159.873 104.367l-7.534-6.059z"/><path fill="#6d4d9a" fill-opacity="1" fill-rule="nonzero" stroke="none" d="M127.354 129.873l7.93-5.066-8.586-5.62-7.921 5.366z"/><path fill="#adadad" fill-opacity="1" fill-rule="nonzero" stroke="none" d="M135.283 124.807l-7.93 5.066 8-5.02z"/><path fill="#a98dc1" fill-opacity="1" fill-rule="nonzero" stroke="none" d="M135.353 124.853l-7.93 5.064 8.041 4.988 7.924-4.791z"/><path fill="#adadad" fill-opacity="1" fill-rule="nonzero" stroke="none" d="M143.388 130.113l-7.924 4.792 7.99-4.748z"/><path fill="#6d4d9a" fill-opacity="1" fill-rule="nonzero" stroke="none" d="M143.453 130.157l-7.924 4.79 7.678 4.761 7.907-4.535z"/><path fill="#402564" fill-opacity="1" fill-rule="nonzero" stroke="none" d="M151.115 135.173l8.327-4.778-7.631-5.288-8.357 5.05z"/><path fill="#adadad" fill-opacity="1" fill-rule="nonzero" stroke="none" d="M143.453 130.157l8.357-5.05-8.423 5.006z"/><path fill="#2c358c" fill-opacity="1" fill-rule="nonzero" stroke="none" d="M143.388 130.113l8.357-5.054-8.015-5.556-8.377 5.349z"/><path fill="#2c358c" fill-opacity="1" fill-rule="nonzero" stroke="none" d="M159.454 130.39l8.784-5.038-7.586-5.588-8.829 5.336 7.619 5.28z"/><path fill="#499aba" fill-opacity="1" fill-rule="nonzero" stroke="none" d="M151.822 125.1l8.83-5.336-8.896 5.29z"/><path fill="#402564" fill-opacity="1" fill-rule="nonzero" stroke="none" d="M151.757 125.054l8.828-5.338-7.981-5.881-8.862 5.662 8.003 5.547z"/><path fill="#0c6699" fill-opacity="1" fill-rule="nonzero" stroke="none" d="M143.742 119.497l8.862-5.662-8.934 5.612z"/><path fill="#2c358c" fill-opacity="1" fill-rule="nonzero" stroke="none" d="M143.67 119.447l8.864-5.664-8.558-6.302-8.885 6.018 8.567 5.94z"/><path fill="#6d4d9a" fill-opacity="1" fill-rule="nonzero" stroke="none" d="M135.09 113.5l8.885-6.018.13-7.975-8.619 6.061z"/><path fill="#56a9c5" fill-opacity="1" fill-rule="nonzero" stroke="none" d="M135.353 124.853l8.377-5.35-8.447 5.304z"/><path fill="#402564" fill-opacity="1" fill-rule="nonzero" stroke="none" d="M135.283 124.807l8.375-5.352-8.58-5.946-8.38 5.678z"/><path fill="#2c358c" fill-opacity="1" fill-rule="nonzero" stroke="none" d="M126.698 119.187l8.381-5.678.395-7.933-8.144 5.729z"/><path fill="#a98dc1" fill-opacity="1" fill-rule="nonzero" stroke="none" d="M118.776 124.553l7.922-5.366.632-7.882-7.713 5.424z"/><path fill="#3180a4" fill-opacity="1" fill-rule="nonzero" stroke="none" d="M135.486 105.568l8.619-6.061.002-.144-8.613 6.062z"/><path fill="#2c358c" fill-opacity="1" fill-rule="nonzero" stroke="none" d="M135.494 105.425l8.613-6.061.119-7.393-8.366 6.087z"/><path fill="#183256" fill-opacity="1" fill-rule="nonzero" stroke="none" d="M127.33 111.305l8.144-5.73-8.134 5.587z"/><path fill="#402564" fill-opacity="1" fill-rule="nonzero" stroke="none" d="M127.34 111.162l8.142-5.728.368-7.369-7.922 5.764z"/><path fill="#117896" fill-opacity="1" fill-rule="nonzero" stroke="none" d="M119.617 116.729l7.713-5.424-7.697 5.283z"/><path fill="#6d4d9a" fill-opacity="1" fill-rule="nonzero" stroke="none" d="M119.633 116.588l7.707-5.426.588-7.333-7.51 5.465z"/><path fill="#1379a9" fill-opacity="1" fill-rule="nonzero" stroke="none" d="M135.86 98.058l8.367-6.087-8.361 5.998z"/><path fill="#a98dc1" fill-opacity="1" fill-rule="nonzero" stroke="none" d="M135.866 97.968l8.363-6.087.115-7.089-8.126 6.103z"/><path fill="#19365c" fill-opacity="1" fill-rule="nonzero" stroke="none" d="M127.928 103.829l7.922-5.763-7.916 5.674z"/><path fill="#6d4d9a" fill-opacity="1" fill-rule="nonzero" stroke="none" d="M127.934 103.74l7.92-5.763.351-7.073-7.705 5.785z"/><path fill="#1f8aa8" fill-opacity="1" fill-rule="nonzero" stroke="none" d="M120.418 109.294l7.51-5.465-7.502 5.376z"/><path fill="#402564" fill-opacity="1" fill-rule="nonzero" stroke="none" d="M120.426 109.204l7.508-5.465.567-7.051-7.318 5.493z"/><path fill="#a98dc1" fill-opacity="1" fill-rule="nonzero" stroke="none" d="M152.534 113.783l-.133-7.93-8.295-6.347-.13 7.975z"/><path fill="#402564" fill-opacity="1" fill-rule="nonzero" stroke="none" d="M152.271 98.256l-.117-7.073-7.811-6.391-.115 7.089z"/><path fill="#6d4d9a" fill-opacity="1" fill-rule="nonzero" stroke="none" d="M144.107 99.363l8.289 6.35-.123-7.368-8.047-6.375z"/><path fill="#a98dc1" fill-opacity="1" fill-rule="nonzero" stroke="none" d="M160.284 111.888l.368 7.876 7.585 5.588-.574-7.816z"/><path fill="#402564" fill-opacity="1" fill-rule="nonzero" stroke="none" d="M159.423 97.276l.33 7.051 7.18 5.692-.515-7.019z"/><path fill="#6d4d9a" fill-opacity="1" fill-rule="nonzero" stroke="none" d="M160.276 111.746l7.377 5.648-.535-7.286-7.184-5.691z"/><path fill="#6d4d9a" fill-opacity="1" fill-rule="nonzero" stroke="none" d="M160.584 119.716l-.366-7.878-7.75-5.93.135 7.927z"/><path fill="#2c358c" fill-opacity="1" fill-rule="nonzero" stroke="none" d="M159.869 104.278l-.328-7.051-7.323-5.992.121 7.073z"/><path fill="#a98dc1" fill-opacity="1" fill-rule="nonzero" stroke="none" d="M152.466 105.764l7.747 5.932-.34-7.329-7.534-5.97z"/></g><path fill="url(#b)" stroke="none" d="M118.513 124.558l8.104-5.49.08-.053 8.85 5.793-8.192 5.235zm.527-.011l8.313 5.156 7.666-4.897-8.32-5.446z"/><path fill="url(#c)" stroke="none" d="M127.277 129.752l8.007-5.115.334.219-8.188 5.138z"/><path fill="url(#d)" stroke="none" d="M127.154 129.919l8.2-5.237 8.303 5.436-8.193 4.955zm.539-.004l7.772 4.822 7.654-4.629-7.767-5.085z"/><path fill="url(#e)" stroke="none" d="M135.39 134.782l8.002-4.838.331.22-8.186 4.864z"/><path fill="url(#f)" stroke="none" d="M135.256 134.945l8.2-4.957 7.933 5.194-8.185 4.693zm.549.004l7.405 4.592 7.631-4.375-7.391-4.84z"/><path fill="url(#g)" stroke="none" d="M143.184 130.153l8.632-5.217 7.894 5.471-8.6 4.934zm.539.009l7.397 4.843 8.053-4.621-7.368-5.106z"/><path fill="url(#h)" stroke="none" d="M143.119 130.107l8.618-5.123.148.246-8.358 5.05-.077.047z"/><path fill="url(#i)" stroke="none" d="M135.089 124.852l8.644-5.521 8.275 5.737-8.546 5.168-.077.047zm.528.002l7.774 5.09 8.09-4.893-7.755-5.375z"/><path fill="url(#j)" stroke="none" d="M151.74 125.217l.164-.236 7.62 5.297-.165.235z"/><path fill="url(#k)" stroke="none" d="M143.66 119.615l.164-.235 8.002 5.562-.163.235z"/><path fill="url(#l)" stroke="none" d="M159.361 130.5l-7.803-5.409 9.102-5.5 7.84 5.776-9.062 5.197zm-7.275-5.393l7.376 5.112 8.513-4.882-7.33-5.401z"/><path fill="url(#m)" stroke="none" d="M151.492 125.044l9.087-5.404.148.246-8.911 5.384z"/><path fill="url(#n)" stroke="none" d="M151.664 125.164l-8.182-5.672 9.127-5.831 8.234 6.066-9.1 5.503zm-7.663-5.662l7.762 5.38 8.564-5.178-7.729-5.695z"/><path fill="url(#o)" stroke="none" d="M143.41 119.442l9.117-5.729.153.243-8.942 5.713z"/><path fill="url(#p)" stroke="none" d="M134.837 113.498l9.142-6.192 8.808 6.486-9.118 5.827zm.508.003l8.328 5.774 8.607-5.5-8.307-6.118z"/><path fill="url(#q)" stroke="none" d="M135.346 105.491l8.907-6.264-.135 8.331-9.185 6.221zm.279.154l-.377 7.574 8.585-5.815.124-7.618z"/><path fill="url(#r)" stroke="none" d="M135.018 124.805l8.636-5.424.153.243-8.455 5.399z"/><path fill="url(#s)" stroke="none" d="M126.439 119.189l8.641-5.854 8.837 6.126-8.634 5.518zm.518-.004l8.327 5.452 8.116-5.186-8.322-5.767z"/><path fill="url(#t)" stroke="none" d="M127.193 111.227l8.439-5.938-.413 8.299-8.688 5.885zm.275.157l-.603 7.517 8.074-5.47.377-7.568z"/><path fill="url(#u)" stroke="none" d="M134.932 113.582l.411-8.006.286.015-.391 7.836 8.502 5.91-.164.236z"/><path fill="url(#v)" stroke="none" d="M119.481 116.649l8.017-5.637-.663 8.255-8.234 5.578zm.272.159l-.801 7.452 7.609-5.153.602-7.509z"/><path fill="url(#w)" stroke="none" d="M135.355 105.348l8.9-6.264-.008.497-8.92 6.274z"/><path fill="url(#x)" stroke="none" d="M135.72 97.982l8.654-6.297-.125 7.753-8.912 6.273zm.28.151l-.348 7.005 8.313-5.85.113-7.033z"/><path fill="url(#y)" stroke="none" d="M135.339 105.427l.377-7.361.287.015-.378 7.361z"/><path fill="url(#z)" stroke="none" d="M127.202 111.083l8.191-5.625.164.235-8.391 5.903z"/><path fill="url(#A)" stroke="none" d="M127.79 103.751l8.218-5.978-.386 7.739-8.449 5.943zm.276.155l-.558 6.963 7.834-5.511.349-7z"/><path fill="url(#B)" stroke="none" d="M119.497 116.507l7.752-5.32.164.236-7.974 5.607z"/><path fill="url(#C)" stroke="none" d="M120.282 109.215l7.814-5.686-.618 7.712-8.022 5.646zm.272.157l-.744 6.916 7.392-5.205.558-6.955z"/><path fill="url(#D)" stroke="none" d="M135.727 97.891l8.416-6.037.168.232-8.614 6.268z"/><path fill="url(#E)" stroke="none" d="M136.077 90.821l8.415-6.32-.12 7.382-.001.072-8.664 6.306zm.28.148l-.333 6.706 8.062-5.868.109-6.725z"/><path fill="url(#F)" stroke="none" d="M135.71 97.969l.362-7.065.287.014-.362 7.065z"/><path fill="url(#G)" stroke="none" d="M127.796 103.662l7.97-5.713.168.233-8.169 5.944z"/><path fill="url(#H)" stroke="none" d="M128.363 96.612l8.001-6.007-.37 7.446-8.228 5.988zm.276.152l-.537 6.676 7.612-5.54.333-6.698z"/><path fill="url(#I)" stroke="none" d="M120.289 109.126l7.556-5.414.167.233-7.765 5.651z"/><path fill="url(#J)" stroke="none" d="M121.047 102.104l7.622-5.722-.597 7.435-7.823 5.694zm.272.155l-.715 6.639 7.192-5.236.536-6.668z"/><path fill="url(#K)" stroke="none" d="M152.325 105.908l.286-.001.066 7.876-.287.001z"/><path fill="url(#L)" stroke="none" d="M152.195 98.398l.287-.002.058 7.315-.287.003z"/><path fill="url(#M)" stroke="none" d="M143.96 99.576l.008-.504 8.521 6.669-.176.227z"/><path fill="url(#N)" stroke="none" d="M152.074 91.236l.287-.002.054 7.021-.287.003z"/><path fill="url(#O)" stroke="none" d="M144.139 91.993l.18-.224 8.044 6.465-.179.223z"/><path fill="url(#P)" stroke="none" d="M143.832 107.553l.135-8.333 8.521 6.52.055.042.139 8.288zm.289-.143l8.264 6.086-.127-7.57-8.014-6.133z"/><path fill="url(#Q)" stroke="none" d="M144.084 91.949l.121-7.456 8.091 6.621.123 7.443zm.289-.136l7.749 6.142-.11-6.703-7.53-6.162z"/><path fill="url(#R)" stroke="none" d="M143.963 99.433l.124-7.756 8.329 6.598.129 7.732zm.289-.14l7.996 6.125-.117-7.002-7.766-6.152z"/><path fill="url(#S)" stroke="none" d="M160.141 111.893l.287-.011.3 7.828-.287.012z"/><path fill="url(#T)" stroke="none" d="M159.791 104.423l.287-.011.279 7.279-.287.012z"/><path fill="url(#U)" stroke="none" d="M160.188 111.859l.177-.226 7.387 5.79-.177.226z"/><path fill="url(#V)" stroke="none" d="M159.457 97.282l.287-.011.269 7.001-.287.011z"/><path fill="url(#W)" stroke="none" d="M159.841 104.44l.18-.225 7.188 5.782-.18.223z"/><path fill="url(#X)" stroke="none" d="M160.512 119.839l-.385-8.252 7.624 5.834.05.04.603 8.192zm.28-.151l7.279 5.363-.546-7.441-7.083-5.421z"/><path fill="url(#Y)" stroke="none" d="M159.79 104.399l-.348-7.437 7.293 5.966.543 7.407zm.281-.143l6.873 5.448-.486-6.632-6.699-5.48z"/><path fill="url(#Z)" stroke="none" d="M160.189 111.86l-.053-.04-.36-7.712 7.482 5.928.562 7.667zm.228-.187l7.07 5.413-.506-6.904-6.888-5.457z"/><path fill="url(#aa)" stroke="none" d="M152.461 113.909l-.141-8.296 8.039 6.152.383 8.245zm.284-.147l7.682 5.66-.349-7.511-7.461-5.709z"/><path fill="url(#ab)" stroke="none" d="M152.378 105.878l.176-.226 7.753 6.073-.176.226z"/><path fill="url(#ac)" stroke="none" d="M152.249 98.42l.179-.224 7.535 6.059-.18.224z"/><path fill="url(#ad)" stroke="none" d="M152.249 98.42l-.053-.042-.127-7.45 7.613 6.228.345 7.43zm.233-.182l7.229 5.732-.31-6.673-7.035-5.755z"/><path fill="url(#ae)" stroke="none" d="M152.379 105.879l-.055-.043-.134-7.74 7.824 6.2.356 7.702zm.229-.187l7.447 5.704-.322-6.956-7.245-5.741z"/><g clip-path="url(#af)"><path fill="#d8d8d9" fill-opacity="1" fill-rule="nonzero" stroke="none" d="M189.921 228.79c0-1.387-1.124-2.511-2.511-2.511s-2.511 1.124-2.511 2.511 1.124 2.511 2.511 2.511 2.511-1.124 2.511-2.511"/><path fill="#979697" fill-opacity="1" fill-rule="nonzero" stroke="none" d="M231.889 149.748l3.371-2.386c-3.498-4.941-2.323-11.807 2.619-15.304 4.941-3.498 11.807-2.323 15.304 2.619l3.371-2.386c-4.813-6.8-14.261-8.417-21.061-3.604-6.8 4.813-8.417 14.261-3.604 21.061"/></g></g></svg>