<svg xmlns="http://www.w3.org/2000/svg" role="img" viewBox="3.33 12.83 814.84 245.34"><title>Kubiya (member) logo</title><g><path fill="#f9d0db" d="M177.5 65.2L148 85.7l29.5-20.5zM147.7 85.8l-31 21.5 31-21.5zM116.4 107.5l-33.2 23.1 1.6 30.6-1.6-30.6 33.2-23.1zM84.8 161.8l1.5 28.5-1.5-28.5zM86.2 190.7l1.4 27.3-1.4-27.3zM150.8 129.5l-.3 30.5.3-30.5zM150.2 160.7L150 189l.2-28.3zM150.2 160.2l-32.1 25.1v-.5l32.1-24.6zM149.7 189.6l-.2 27.2.2-27.2zM149.8 189.3l-31.1 25 31.1-25zM181.9 106.5l-1.2 30.3 1.2-30.3zM180.5 137.6l-1.1 28.2 1.1-28.2zM180.7 137.4l28.6-22.4-28.6 22.4zM179.2 166.3l-1 27.1 1-27.1zM179.4 166.1l27.8-22.4-27.8 22.4zM180.5 137l-30 23.5 30-23.5zM179.2 165.9L150 189.4l29.2-23.5z"/><path fill="#6980bf" d="M53.3 67.2 84 86.8l-33.3 21.8-30.6-20.8 33.2-20.6z"/><path fill="#eae9e9" d="M84 86.8 53.3 67.2l31 19.4-.3.2z"/><path fill="#4761aa" d="M84.3 86.6 53.6 67l31.1-19.3 30.7 18.6-31.1 20.3z"/><path fill="#eae9e9" d="M115.4 66.3 84.7 47.7l30.9 18.4-.2.2z"/><path fill="#6b75b7" d="M115.6 66.1 84.9 47.6l29.8-18.5 30.6 17.6-29.7 19.4z"/><path fill="#47509e" d="m145.3 46.7 32.2 18.5L148 85.7l-32.4-19.6 29.7-19.4z"/><path fill="#eae9e9" d="M115.6 66.1 148 85.7l-32.6-19.4.2-.2z"/><path fill="#4460aa" d="m115.4 66.3 32.3 19.5-31 21.5-32.4-20.7 31.1-20.3z"/><path fill="#467abd" d="m177.5 65.2 34.1 19.5-29.4 21.6L148 85.7l29.5-20.5z"/><path fill="#81c499" d="m148 85.7 34.2 20.6-34.4-20.4.2-.2z"/><path fill="#b1abd5" d="m147.8 85.9 34.1 20.6-30.9 22.8-34.3-21.9 31-21.5h.1z"/><path fill="#5fb77d" d="m116.7 107.4 34.3 21.9-34.6-21.7.3-.2z"/><path fill="#4960a9" d="m116.4 107.6 34.4 21.9-33.2 24.4-34.4-23.3 33.2-23z"/><path fill="#47509e" d="m83.2 130.6 34.4 23.3.5 30.9-33.3-23.5-1.6-30.7z"/><path fill="#8bc8a2" d="m84.3 86.6 32.4 20.7L84 86.8l.3-.2z"/><path fill="#485ca7" d="m84 86.8 32.4 20.7-33.2 23.1-32.5-22L84 86.8z"/><path fill="#b4abd5" d="m50.7 108.6 32.5 22 1.5 30.7-31.5-22.2-2.5-30.5z"/><path fill="#4c60a9" d="m20.1 87.8 30.6 20.8 2.5 30.5-29.9-21-3.2-30.3z"/><path fill="#6cbc8b" d="m84.8 161.3 33.3 23.5v.5l-33.3-23.5v-.5z"/><path fill="#4960a9" d="m84.8 161.8 33.3 23.5.5 28.6-32.4-23.5-1.4-28.6z"/><path fill="#1dad7d" d="m53.2 139.1 31.5 22.2-31.5-21.7v-.5z"/><path fill="#535ba5" d="m53.2 139.6 31.6 22.2 1.4 28.5L55.5 168l-2.3-28.4z"/><path fill="#58b362" d="m23.3 118.1 29.9 21-29.8-20.5-.1-.5z"/><path fill="#565ba5" d="m23.4 118.6 29.8 21 2.3 28.4-29.1-21.1-3-28.3z"/><path fill="#60b66f" d="m86.2 190.4 32.4 23.5-32.4-23.2v-.3z"/><path fill="#756fb1" d="m86.2 190.7 32.4 23.6.5 27.4-31.5-23.6-1.4-27.4z"/><path fill="#2caf82" d="m55.5 168 30.7 22.3-30.7-21.9v-.4z"/><path fill="#4857a3" d="m55.5 168.4 30.7 22.3 1.4 27.4-29.9-22.4-2.2-27.3z"/><path fill="#63b76c" d="M26.4 146.9 55.5 168l-29-20.8-.1-.3z"/><path fill="#43509e" d="m26.5 147.2 29 21.2 2.2 27.3-28.3-21.3-2.9-27.2z"/><path fill="#7284c1" d="m150.8 129.5-.6 30.7-32.1 24.6-.5-30.9 33.2-24.4z"/><path fill="#6169af" d="m149.7 189.6-.4 27.4-30.2 24.7-.5-27.4 31.1-24.7z"/><path fill="#b7a8d2" d="m118.1 185.3 32.1-24.6-.4 28.6-31.2 24.6-.5-28.6z"/><path fill="#47509e" d="m180.8 136.8 1.4-30.5 29.4-21.6-2.3 30.3-28.5 21.8z"/><path fill="#5362aa" d="m177.4 193.4 1.3-27.3 27.8-22-2 27.1-27.1 22.2z"/><path fill="#404f9d" d="m180.7 137.4 28.6-21.9-2.1 28.2-27.8 22 1.3-28.3z"/><path fill="#7c86c1" d="m181.9 106.5-1.4 30.5-30 23 .5-30.7 30.9-22.8z"/><path fill="#5e58a3" d="m179.2 166.3-1.3 27.3-28.4 23.2.5-27.4 29.2-23.1z"/><path fill="#46509e" d="m150.5 160.5 30-22.9-1.3 28.3-29.2 23.2.5-28.6z"/><path fill="#4460aa" d="m50.7 109.2-.3-.2-31.3-21.2 34.2-21.2L85 86.8l-34.3 22.4zM21.1 87.8l29.7 20.1L83 86.8l-29.7-19-32.2 20z"/><path fill="#4460aa" d="M84 87.5 53 67.7l.6-1 31.7 19.9-1.3.9z"/><path fill="#4460aa" d="M84.3 87.3 52.5 67l32.2-20 31.7 19.2-32.1 21.1zM54.6 67l29.6 19 30.1-19.7-29.6-17.9L54.6 67z"/><path fill="#4460aa" d="m115.4 66.9-31-18.7.6-1 31.7 18.9-1.3.8z"/><path fill="#4460aa" d="M115.6 66.8 83.9 47.6l30.8-19.1 31.7 18.2-30.8 20.1zM86 47.6l29.6 17.9 28.6-18.7-29.5-16.9L86 47.6z"/><path fill="#4460aa" d="m148 86.3-33.4-20.2L145.2 46l33.3 19.1L148 86.3zm-31.3-20.2L147.9 85l28.5-19.8-31.2-17.9-28.5 18.8z"/><path fill="#4460aa" d="m147.7 86.1-33.4-19.8 1.3-.9.3.2 32.3 19.6-.5.9z"/><path fill="#4460aa" d="M116.7 108 83.2 86.6l32.1-21 .3.2 33.1 20-32 22.2zM85.3 86.6l31.4 20 30-20.8-31.3-18.9-30.1 19.7z"/><path fill="#4460aa" d="M177.19 64.746l.628.904-29.475 20.493-.628-.903 29.475-20.494zM147.429 85.404l.628.903-30.952 21.524-.628-.903 30.952-21.524z"/><path fill="#4460aa" d="M182.2 107 147 85.7l30.2-20.9.3-.3 35.1 20.1-30.4 22.4zM149 85.7l33.1 20 28.4-20.9-33-18.9L149 85.7z"/><path fill="#4460aa" d="m181.9 106.8-35.2-20.9 1.3-.9 34.5 20.9-.6.9z"/><path fill="#4460aa" d="m151.1 130-35.3-22.6 31.7-22 .3-.3 35.2 21.3-31.9 23.6zm-33.4-22.6 33.3 21.3 29.9-22-33.2-20-30 20.7z"/><path fill="#4460aa" d="m150.7 129.8-35.3-22.2 1.3-.9 34.6 22.1-.6 1z"/><path fill="#4460aa" d="m117.6 154.6-35.4-24 34.2-23.7 35.3 22.6-34.1 25.1zm-33.4-24 33.4 22.6 32.2-23.7-33.3-21.3-32.3 22.4z"/><path fill="#4460aa" d="M118.7 185.8l-34.5-24.2-1.6-32.1 35.6 24.1.5 32.2zM85.3 161l32.3 22.7-.5-29.5-33.2-22.5 1.4 29.3zM116.4 107.8L83 86.8l1.2-.8 32.8 20.9-.6.9z"/><path fill="#4460aa" d="m83.2 131.2-33.4-22.7L84 86.2l33.4 21.4-34.2 23.6zm-31.5-22.6 31.4 21.3 32.2-22.3L84 87.5l-32.3 21.1z"/><path fill="#4460aa" d="m85.3 162.4-32.7-23-2.6-31.9 33.6 22.8 1.7 32.1zm-31.6-23.6 30.4 21.4-1.5-29.3-31.3-21.2 2.4 29.1z"/><path fill="#4460aa" d="M84.2 161.3l-1.6-31 33.5-23.2.6.9-32.9 22.9 1.5 30.3-1.1.1zM53.8 140.2l-31-21.8-3.4-31.7 31.9 21.6 2.5 31.9zm-29.9-22.4L52.6 138l-2.3-29.1-29.5-20 3.1 28.9z"/><path fill="#4460aa" d="m118.7 186.4-34.4-24.3-.1-1.9 34.5 24.3v1.9z"/><path fill="#4460aa" d="m119.2 215-33.5-24.4-1.5-29.9 34.5 24.3.5 30zm-32.4-24.9 31.3 22.8-.4-27.2L85.4 163l1.4 27.1z"/><path fill="#4460aa" d="M85.27 161.794l1.46 28.463-1.098.056-1.46-28.463 1.098-.056zM84.4 161.7l-31.7-21.8-.1-1.9L85 160.8l-.6.9z"/><path fill="#4460aa" d="M86.8 191.5 55 168.3l-2.4-29.8 32.7 23 1.5 30zM56 167.7l29.5 21.5-1.4-27.1-30.3-21.3 2.2 26.9z"/><path fill="#4460aa" d="m52.9 139.5-30-20.5-.3-2.1 30.9 21.7-.6.9z"/><path fill="#4460aa" d="M56.2 169.2l-30.2-22-3.2-29.7 31.1 21.9 2.3 29.8zM27 146.6l27.9 20.3-2.2-26.9-28.6-20.1 2.9 26.7zM118.3 214.4L85.7 191l-.1-1.8 33.3 24.3-.6.9z"/><path fill="#4460aa" d="M119.6 242.8 87 218.3l-1.4-28.8 33.5 24.4v.3l.5 28.6zm-31.5-25 30.3 22.8-.4-26-31.2-22.7 1.3 25.9z"/><path fill="#4460aa" d="m86.701 190.693 1.402 27.365-1.098.056-1.402-27.364 1.098-.057z"/><path fill="#4460aa" d="M85.9 190.8 55 168.7l-.1-1.8 31.6 23-.6.9z"/><path fill="#4460aa" d="m88.2 219.2-31-23.3-2.3-28.8 31.8 23.2 1.5 28.9zm-29.9-23.8L87 216.9 85.6 191l-29.5-21.4 2.2 25.8z"/><path fill="#4460aa" d="m55.2 168.5-29.3-21-.1-1.8 30 21.9-.6.9z"/><path fill="#4460aa" d="M58.4 196.9l-29.5-22.1-3.1-28.8 30.3 22 2.3 28.9zm-28.5-22.8L57 194.5l-2-25.8-27.8-20.3 2.7 25.7zM150.234 129.46l1.1.01-.259 30.5-1.1-.01.259-30.5zM149.641 160.702l1.1.009-.22 28.3-1.1-.009.22-28.3z"/><path fill="#4460aa" d="M117.6 186.4v-1.9l32.3-24.8.7.9-33 25.8zM149.165 189.522l1.1.009-.212 27.2-1.1-.009.212-27.2z"/><path fill="#4460aa" d="M149.438 188.773l.689.858-31.178 25.058-.69-.857 31.179-25.059zM117.6 185.9l-.5-32.3 34.3-25.2-.5 32.1-.2.2-33.1 25.2zm.6-31.7l.5 29.5 31-23.7.5-29.3-32 23.5z"/><path fill="#4460aa" d="M118.5 242.9 118 214l32.3-25.6-.5 28.8-31.3 25.7zm.7-28.4.4 26 29.1-23.9.4-25.9-29.9 23.8z"/><path fill="#4460aa" d="M118.1 215.1l-.5-30 33.2-25.4-.5 29.9-32.2 25.5zm.6-29.5l.4 27.2 30.1-23.8.5-27.1-31 23.7zM181.349 106.503l1.099.042-1.164 30.278-1.099-.042 1.164-30.278zM179.93 137.585l1.1.042-1.084 28.18-1.099-.043 1.083-28.179z"/><path fill="#4460aa" d="M208.989 114.53l.678.866-28.58 22.382-.677-.866 28.579-22.382zM178.62 166.256l1.099.042-1.041 27.08-1.1-.042 1.041-27.08z"/><path fill="#4460aa" d="M206.936 143.309l.69.857-27.818 22.376-.69-.857 27.818-22.376zM180.2 138l1.5-31.9 30.5-22.5-2.3 31.7-.2.2-29.5 22.5zm2.5-31.4l-1.4 29 27.4-21 2.1-28.8-28.1 20.8z"/><path fill="#4460aa" d="m177.5 194.6 1.3-28.8 29-23-2.1 28.7-28.2 23.1zm2.4-28.2-1.2 25.8 25.9-21.2 1.9-25.7-26.6 21.1z"/><path fill="#4460aa" d="m178.8 166.9 1.4-29.9.2-.2 29.5-22.6-2.2 29.7-28.9 23zm2.5-29.2-1.3 26.9 26.7-21.1 2-26.7-27.4 20.9z"/><path fill="#4460aa" d="m149.9 161.1.5-32.1 32.1-23.6-1.5 31.9-31.1 23.8zm1.7-31.5-.5 29.3 28.9-22.1 1.3-29.1-29.7 21.9z"/><path fill="#4460aa" d="M180.107 136.622l.678.866-29.996 23.491-.678-.866 29.996-23.491zM178.814 165.507l.69.857-29.143 23.442-.69-.857 29.143-23.442z"/><path fill="#4460aa" d="m149 218 .5-28.8.2-.2 30.1-23.9-1.3 28.8L149 218zm1.6-28.3-.4 25.9 27.2-22.3 1.2-25.8-28 22.2z"/><path fill="#4460aa" d="m149.4 190.2.5-30 .2-.2 30.9-23.7-1.4 29.8-30.2 24.1zm1.7-29.4-.5 27.1 28-22.2 1.2-26.9-28.7 22z"/><path fill="#253d91" d="M674.3 176.8h-8.2l-4.1-7.1 4.1-7.1h8.2l4.1 7.1-4.1 7.1zm-7.1-1.7h6.1l3-5.3-3-5.3h-6.1l-3 5.3 3 5.3z"/><path fill="#253d91" d="M670.2 173.9c-2.3 0-4.2-1.9-4.2-4.2 0-2.3 1.9-4.2 4.2-4.2 2.3 0 4.2 1.9 4.2 4.2 0 2.4-1.9 4.2-4.2 4.2zm0-6.5c-1.3 0-2.4 1.1-2.4 2.4 0 1.3 1.1 2.4 2.4 2.4 1.3 0 2.4-1.1 2.4-2.4 0-1.3-1.1-2.4-2.4-2.4zM245 147.8v27.5h-7.9V90.6h7.9v48.3M476.8 114.2h7.9v61.1h-7.9v-61.1zM706.3 114.2h7.9v61.1h-7.9v-61.1zM254.1 143.3l33.6-29.1h-11.5l-28.3 24.6v9l30.7 27.5h11.1l-35.6-32zM358.5 114.2v28.5c0 7.6-.4 12.6-1.2 15-1.2 3.4-3.3 6.2-6.3 8.3-3.1 2.1-6.8 3.2-11.2 3.2h-1.1v7.6h1.2c6 0 10.9-1.2 14.9-3.6 4-2.4 6.9-5.8 8.9-10 2-4.3 3-10.6 3-19.1v-30h-8.2zM316.6 114.2v28.5c0 7.6.4 12.6 1.2 15 1.2 3.4 3.3 6.2 6.3 8.3 3.1 2.1 6.8 3.2 11.2 3.2h1.1v7.6h-1.2c-6 0-10.9-1.2-14.9-3.6-4-2.4-6.9-5.8-8.9-10-2-4.3-3-10.6-3-19.1v-30h8.2zM444.1 146.7c-.3 3.6-1.4 7-3.2 10.2-2.2 3.9-5.1 6.9-8.8 9.1-3.7 2.2-7.7 3.2-12.1 3.2-6.8 0-12.5-2.4-17.2-7.1-4.7-4.8-7-10.7-7-17.8 0-4.6 1-8.8 3.1-12.5 2.1-3.7 5-6.7 8.9-8.9 3.9-2.2 8-3.3 12.3-3.3 4.2 0 8.2 1.1 11.9 3.3 3.7 2.2 6.7 5.3 8.9 9.2 2.1 3.7 3.2 7.6 3.3 11.7h8c-.2-8.6-3.3-15.9-9.2-21.9-6.1-6.3-13.5-9.4-22.1-9.4-4.9 0-9.3 1-13.4 3s-7.8 5-11.1 9.1v-34h-7.9v84.7h7.9v-11.2c3.1 4.3 6.7 7.5 10.7 9.6 4 2.1 8.6 3.2 13.5 3.2 8.7 0 16.1-3.1 22.3-9.4 5.7-5.8 8.8-12.7 9.2-20.7h-8zM627.6 147c-.3 3.9-1.3 7.4-3 10.6-2.1 3.7-5 6.6-8.9 8.8-3.9 2.2-7.9 3.3-12.2 3.3-4.3 0-8.3-1.1-12-3.3-3.7-2.2-6.7-5.2-8.9-9.2-2.2-3.9-3.3-8-3.3-12.3 0-4.3 1.1-8.5 3.3-12.3 2.2-3.9 5.1-6.9 8.8-9.1 3.7-2.2 7.7-3.2 12.1-3.2 6.8 0 12.5 2.4 17.2 7.1 4.5 4.6 6.8 10.2 7 16.9h7.3v-30h-7.8v11.2c-3.1-4.3-6.6-7.5-10.7-9.6-4.1-2.1-8.6-3.2-13.6-3.2-8.7 0-16.1 3.1-22.3 9.4-6.2 6.3-9.3 13.8-9.3 22.6 0 9 3.1 16.6 9.2 22.9 6.1 6.3 13.5 9.4 22.2 9.4 4.9 0 9.4-1 13.5-3s7.8-5 11.1-9v10.5h7.8V147h-7.5zM769.8 169.4c-3.9-.2-7.5-1.2-10.8-3.1-3.6-2.1-6.5-5-8.7-8.9s-3.2-7.9-3.2-12.4c0-6.9 2.3-12.7 7-17.5 4.4-4.5 9.6-6.9 15.7-7.2v-7.7c-8.9.3-16.3 3.7-22.2 10.3-5.6 6.2-8.4 13.6-8.4 22 0 8.5 3 16 8.9 22.4 5.7 6.1 12.9 9.3 21.8 9.6v-7.5zM794.4 122.8c-6-6.6-13.4-9.9-22.3-10.2v7.7c6 .3 11.3 2.6 15.7 7.2 4.7 4.8 7.1 10.7 7.1 17.5 0 4.4-1.1 8.5-3.2 12.4-2.1 3.8-5 6.8-8.7 8.9-3.3 1.9-7 2.9-10.9 3.1v7.5c8.9-.2 16.1-3.4 21.9-9.6 5.9-6.4 8.9-13.9 8.9-22.4 0-8.5-2.8-15.9-8.5-22.1z"/><path fill="#253d91" d="M251.9 142.1v3.7h-10.8v-3.7h10.8z"/><path fill="#9d9d9c" d="M247.7 146.1h-2.6l-1.3-2.3 1.3-2.3h2.6l1.3 2.3-1.3 2.3zm-2.3-.5h2l1-1.7-1-1.7h-2l-1 1.7 1 1.7z"/><path fill="#9d9d9c" d="M246.4 145.2c-.7 0-1.3-.6-1.3-1.3 0-.7.6-1.3 1.3-1.3.7 0 1.3.6 1.3 1.3.1.7-.5 1.3-1.3 1.3zm0-2.1c-.4 0-.8.3-.8.8s.3.8.8.8c.4 0 .8-.3.8-.8s-.4-.8-.8-.8z"/><path fill="#253d91" d="M343.1 171.4v3.7h-10.8v-3.7h10.8z"/><path fill="#9d9d9c" d="M338.9 175.5h-2.6l-1.3-2.3 1.3-2.3h2.6l1.3 2.3-1.3 2.3zm-2.3-.6h2l1-1.7-1-1.7h-2l-1 1.7 1 1.7z"/><path fill="#9d9d9c" d="M337.6 174.6c-.7 0-1.3-.6-1.3-1.3 0-.7.6-1.3 1.3-1.3.7 0 1.3.6 1.3 1.3 0 .7-.6 1.3-1.3 1.3zm0-2.1c-.4 0-.8.3-.8.8 0 .4.3.8.8.8.4 0 .8-.3.8-.8-.1-.5-.4-.8-.8-.8z"/><path fill="#253d91" d="M450.011 150.739h-3.7v-10.8h3.7v10.8z"/><path fill="#9d9d9c" d="M445.9 146.6V144l2.3-1.3 2.3 1.3v2.6l-2.3 1.3-2.3-1.3zm.6-2.3v2l1.7 1 1.7-1v-2l-1.7-1-1.7 1z"/><path fill="#9d9d9c" d="M446.8 145.3c0-.7.6-1.3 1.3-1.3.7 0 1.3.6 1.3 1.3 0 .7-.6 1.3-1.3 1.3-.7 0-1.3-.6-1.3-1.3zm2.1 0c0-.4-.3-.8-.8-.8s-.8.3-.8.8c0 .4.3.8.8.8s.8-.4.8-.8z"/><path fill="#253d91" d="M633.292 150.758h-3.7v-10.8h3.7v10.8z"/><path fill="#9d9d9c" d="M629.2 146.6V144l2.3-1.3 2.3 1.3v2.6l-2.3 1.3-2.3-1.3zm.6-2.3v2l1.7 1 1.7-1v-2l-1.7-1-1.7 1z"/><path fill="#9d9d9c" d="M630.1 145.3c0-.7.6-1.3 1.3-1.3.7 0 1.3.6 1.3 1.3 0 .7-.6 1.3-1.3 1.3-.7 0-1.3-.6-1.3-1.3zm2.1 0c0-.4-.3-.8-.8-.8s-.8.3-.8.8c0 .4.3.8.8.8s.8-.4.8-.8z"/><path fill="#253d91" d="M765.484 118.584v-3.7h10.8v3.7h-10.8z"/><path fill="#9d9d9c" d="M769.6 114.5h2.6l1.3 2.3-1.3 2.3h-2.6l-1.3-2.3 1.3-2.3zm2.3.5h-2l-1 1.7 1 1.7h2l1-1.7-1-1.7z"/><path fill="#9d9d9c" d="M770.9 115.4c.7 0 1.3.6 1.3 1.3 0 .7-.6 1.3-1.3 1.3-.7 0-1.3-.6-1.3-1.3 0-.7.6-1.3 1.3-1.3zm0 2.1c.4 0 .8-.3.8-.8 0-.4-.3-.8-.8-.8-.4 0-.8.3-.8.8.1.4.4.8.8.8z"/><path fill="#253d91" d="M765.484 175.086v-3.7h10.8v3.7h-10.8z"/><path fill="#9d9d9c" d="M769.6 171h2.6l1.3 2.3-1.3 2.3h-2.6l-1.3-2.3 1.3-2.3zm2.3.5h-2l-1 1.7 1 1.7h2l1-1.7-1-1.7z"/><path fill="#9d9d9c" d="M770.9 171.9c.7 0 1.3.6 1.3 1.3 0 .7-.6 1.3-1.3 1.3-.7 0-1.3-.6-1.3-1.3 0-.7.6-1.3 1.3-1.3zm0 2.1c.4 0 .8-.3.8-.8s-.3-.8-.8-.8c-.4 0-.8.3-.8.8s.4.8.8.8z"/><path fill="#253d91" d="M485 110.7h-8.2l-4.1-7.1 4.1-7.1h8.2l4.1 7.1-4.1 7.1zm-7.2-1.7h6.1l3-5.3-3-5.3h-6.1l-3 5.3 3 5.3z"/><path fill="#253d91" d="M480.9 107.8c-2.3 0-4.2-1.9-4.2-4.2 0-2.3 1.9-4.2 4.2-4.2 2.3 0 4.2 1.9 4.2 4.2 0 2.4-1.9 4.2-4.2 4.2zm0-6.5c-1.3 0-2.4 1.1-2.4 2.4 0 1.3 1.1 2.4 2.4 2.4 1.3 0 2.4-1.1 2.4-2.4 0-1.3-1.1-2.4-2.4-2.4zM714.5 110.7h-8.2l-4.1-7.1 4.1-7.1h8.2l4.1 7.1-4.1 7.1zm-7.2-1.7h6.1l3-5.3-3-5.3h-6.1l-3 5.3 3 5.3z"/><path fill="#253d91" d="M710.4 107.8c-2.3 0-4.2-1.9-4.2-4.2 0-2.3 1.9-4.2 4.2-4.2 2.3 0 4.2 1.9 4.2 4.2 0 2.4-1.9 4.2-4.2 4.2zm0-6.5c-1.3 0-2.4 1.1-2.4 2.4 0 1.3 1.1 2.4 2.4 2.4 1.3 0 2.4-1.1 2.4-2.4 0-1.3-1.1-2.4-2.4-2.4zM529.2 170.8l-25.1-56.5h8.3l21 47.1M533.2 165.8l20.4-47.1h8.4l-36.5 83.5h-8.3l11.8-27"/><path fill="#253d91" d="m535.3 171.5-6.3-4-.6-5.2 9 6-2.1 3.2z"/><path fill="#9d9d9c" d="m529.4 165.6 2.2-1.4 2.3 1.2.1 2.6-2.2 1.4-2.3-1.2-.1-2.6zm2.3-.7-1.6 1.1.1 2 1.7.9 1.6-1.1-.1-2-1.7-.9z"/><path fill="#9d9d9c" d="M531 165.7c.6-.4 1.5-.2 1.9.4.4.6.2 1.5-.4 1.9-.6.4-1.5.2-1.9-.4-.4-.7-.2-1.5.4-1.9zm1.2 1.8c.4-.2.5-.7.2-1.1-.2-.4-.7-.5-1.1-.2-.4.2-.5.7-.2 1.1s.7.4 1.1.2z"/></g></svg>