<?xml version="1.0" encoding="utf-8"?>
<!-- Generator: Adobe Illustrator 21.1.0, SVG Export Plug-In . SVG Version: 6.00 Build 0)  -->
<svg version="1.1" id="Layer_1" xmlns="http://www.w3.org/2000/svg" xmlns:xlink="http://www.w3.org/1999/xlink" x="0px" y="0px"
	 viewBox="0 0 720 394" style="enable-background:new 0 0 720 394;" xml:space="preserve">
<style type="text/css">
	.st0{fill:url(#SVGID_1_);}
	.st1{fill:#231F20;}
</style>
<radialGradient id="SVGID_1_" cx="312.7071" cy="86.8752" r="109.0905" fx="316.1928" fy="86.6124" gradientUnits="userSpaceOnUse">
	<stop  offset="0" style="stop-color:#FFFFFF"/>
	<stop  offset="0.4509" style="stop-color:#A8C3E2"/>
	<stop  offset="0.825" style="stop-color:#6695CC"/>
	<stop  offset="1" style="stop-color:#4C83C3"/>
</radialGradient>
<path class="st0" d="M424.2,52.7c0,0,6.3,4.5,9,10.1c0,0-3.9-8.4-5.5-11.1c0,0,21.6,25.2,26,50.2c0,0,5.2,35.4-10.1,67.7
	c0,0-24.5,46.7-84,50.9c0,0-65.4,1.4-87.2-63.1c0,0-11.3-32.6,1.7-59.9c0,0,15.1-28.2,43.7-43.3c0,0-31.1,8.9-46.8,47.3
	c0,0-9.4,21.3-4.7,43.4c0,0,5.6,30.1,18.5,44.6c0,0,15.3,21.1,44.6,31.9c0,0,29.1,10.9,56.8,1.4c0,0,33-6.7,54.3-33.2
	c0,0,24.1-24,25.2-65.9c0,0,2.1-38.8-17.5-66.9c0,0-12.1-23.4-42.6-39.8c0,0,27.5,10.2,46.6,43.2c0,0,17.7,26.8,15,67.7
	c0,0-1.5,62.5-62,89.9c0,0-25.4,13.8-61.2,8.8c0,0-21.7-2.2-44.7-21.1c0,0-21.4-15.2-29.6-42c0,0-10.2-28.5-2.7-55.4
	c0,0,6.6-27.9,34.6-47.9c0,0,31.8-24.5,75.5-9.1c0,0,33.4,9,45.3,52.2c0,0,12.9,35.4-20.9,67.1c0,0-12.1,12.9-34.3,17.1
	c0,0,11,1.2,26.7-6.9c0,0,17.5-8.8,28.9-32.8c0,0,11.9-21.7,5.2-47.6c0,0-11.8-56.3-78.6-60.9c0,0-41.7-6.7-76.8,38.2
	c0,0-14.1,14.3-18.8,49.3c0,0-1.8,44.7,26.2,73.4c0,0,24.6,33.2,71.8,37.1c0,0,36,4.7,65.8-14.8c0,0,29.5-16.5,40.8-37.6
	c0,0-10.1,22.8-47.3,42.7c0,0-31,20.6-84.3,5.7c0,0-45.4-11.3-67.5-64.8c0,0-12-28.6-2.8-60.3c0,0,6.5-31.5,39.9-56
	c0,0,24.6-19.6,62.2-15.3c0,0,42.4,2.9,64.9,42.7c0,0,16.1,33.8,7,61.5c0,0-8,27.9-27.9,40.8c0,0-25.9,19.9-61.9,11.5
	c0,0,28.4,15.9,65.1-6.2c0,0,33.1-19.3,39.2-63.7c0,0,3-18.9-7.8-47.2C437,76.6,429.5,59.2,424.2,52.7z"/>
<g>
	<path class="st1" d="M12.2,375.7V205.3h17.5v170.4H12.2z M73.9,375.7l-43.7-57.5l43.7-48.4h22.9l-45.1,48.6L97,375.7H73.9z"/>
	<path class="st1" d="M188.6,375.7v-22c-12.4,17.1-26.2,25.2-42.1,25.2c-18.5,0-28.3-10.3-28.3-29.7v-79.5h17.5v75
		c0,13.1,3.7,18.5,12.6,18.5c11.2,0,28-11.9,40.2-28.7v-64.7h17.8v105.9H188.6z"/>
	<path class="st1" d="M386.8,375.7v-75c0-7.7-0.2-9.1-1.6-12.4c-1.9-3.5-5.8-5.6-10.8-5.6c-9.8,0-20.3,6.5-35.8,23.1l-4.9,5.1v64.7
		h-17.5v-75c0-7.7-0.2-9.1-1.6-12.4c-1.9-3.5-5.8-5.6-10.8-5.6c-10.7,0-22.2,7.9-40.7,28.3v64.7h-17.5V269.8h17.5v22.2
		c7.2-8.2,9.3-10.3,14.5-14.5c7.9-6.8,18.5-10.5,28.3-10.5c17.5,0,26.4,8.2,27.6,25.2c7.5-8.4,9.6-10.5,14.7-14.7
		c7.9-6.8,18.5-10.5,28.3-10.5c18.7,0,27.8,9.6,27.8,29.4v79.2H386.8z"/>
	<path class="st1" d="M452.5,244.4c-6.3,0-11.5-5.1-11.5-11.5c0-6.3,5.1-11.5,11.5-11.5c6.3,0,11.5,5.1,11.5,11.5
		C464,239.2,458.8,244.4,452.5,244.4z M443.6,375.7V269.8h17.5v105.9H443.6z"/>
	<path class="st1" d="M571.9,375.7v-75c0-7-0.5-9.3-1.6-12.4c-1.6-3.5-5.8-5.6-10.8-5.6c-10.8,0-22.2,7.9-40.7,28.3v64.7h-17.5
		V269.8h17.5v22.2c7.2-8.2,9.3-10.3,14.5-14.5c7.9-6.8,18.5-10.5,28.3-10.5c18.7,0,27.8,9.6,27.8,29.4v79.2H571.9z"/>
	<path class="st1" d="M703.8,378.8c-14.5-0.9-19.6-4.7-20.6-14.7c-5.4,4.7-7.7,6.5-11.2,8.4c-6.5,3.7-15,6.1-22.4,6.1
		c-17.1,0-28.3-11-28.3-27.8c0-15.4,8.2-25.7,23.6-29.4l36.7-8.6v-19.2c0-8.6-6.5-13.1-20.1-13.1c-11,0-16.1,3-16.1,9.1
		c0,1.2,0.2,2.1,0.9,4l-17.8,3.7c-1.6-2.8-1.9-4-1.9-6.5c0-14,15.4-23.6,38.1-23.6c21.3,0,34.6,10.1,34.6,26.4v57.3v7.7
		c0.5,2.8,3.3,4.7,8.6,5.6L703.8,378.8z M681.6,327.3l-39.7,10.3c-2.6,4.9-3,7.2-3,11.5c0,8.4,5.6,13.8,14.3,13.8
		c7.9,0,13.3-2.6,28.5-13.6V327.3z"/>
</g>
</svg>
