<svg xmlns="http://www.w3.org/2000/svg" role="img" viewBox="-6.36 -8.36 512.72 406.22"><title>Kyverno logo</title><defs><style>.cls-1,.cls-2{fill:#3784c5;fill-rule:evenodd}.cls-2{fill:#e87e5b}</style></defs><g id="Layer_1" data-name="Layer 1"><path d="M444.93437 341.39605a22.04008 22.04008 0 0 0 30.69721 0 22.72936 22.72936 0 0 0 0-31.25083 22.04216 22.04216 0 0 0-30.69721 0 22.73111 22.73111 0 0 0 0 31.25083m15.349 20.74124a35.4356 35.4356 0 0 1-25.85742-10.5091 36.7209 36.7209 0 0 1 0-51.715 37.15 37.15 0 0 1 51.78393 0 36.36832 36.36832 0 0 1-25.92651 62.22413zm-75.2224-72.73339q11.89152 0 19.221 7.60611 7.32807 7.60417 7.329 20.87923v42.45063h-14.93504v-40.9292q0-7.74438-4.14812-11.89263-4.14774-4.1475-11.33828-4.148-7.88238 0-12.72181 4.90879-4.83942 4.909-4.839 15.00286v37.05821H348.695v-69.13777h14.93376v8.849q6.77538-10.64686 21.43217-10.64723zm-68.72262 13.41357q5.66825-12.86067 21.29419-12.86021v16.17865a22.14047 22.14047 0 0 0-14.93425 4.0783q-6.36066 4.63368-6.35994 15.28032v34.84534h-14.93373v-69.13774h14.93369zm-83.795 17.14574h40.65312q-1.52172-8.43471-6.98375-12.72123a20.11286 20.11286 0 0 0-12.79023-4.28644A21.00948 21.00948 0 0 0 239.595 307.518a20.58183 20.58183 0 0 0-7.05171 12.44521zm.1379 12.16862a18.98408 18.98408 0 0 0 7.605 12.09961 24.45393 24.45393 0 0 0 14.51849 4.21711q11.89213 0 17.83808-8.57385l12.30661 7.19082q-10.23293 15.07271-30.28268 15.07177-16.86993 0-27.24045-10.301-10.37055-10.30191-10.37055-26.06573 0-15.48656 10.232-25.92634 10.23352-10.44027 26.27305-10.44035 15.2107 0 24.95876 10.64726 9.74886 10.64775 9.74859 25.85759a46.24356 46.24356 0 0 1-.5532 6.22308zm-34.70725-40.9297h16.31672l-26.9644 69.13774h-17.28446l-26.96357-69.13774h16.31713l19.35828 52.706zm-72.18029 0h15.90153l-26.54911 71.35045q-9.95569 26.82612-33.7396 25.44214v-13.9648q7.05256.41409 11.33894-2.9733 4.28634-3.38793 7.05167-10.57867l.69178-1.383-29.31436-67.89282h16.31673l20.62592 50.19392zm-49.08784 69.13774H57.76181l-38.16412-46.11512v46.11512H3.69617v-96.7934h15.90152v43.44179l36.78108-43.44179h18.94382l-39.13178 47.15235z" class="cls-1"/><path d="M163.07047 73.19286l-12.30014 53.88844h12.65642l10.319-45.20729c-1.95153-1.98034-3.95209-3.88056-6.0183-5.64688a5.64573 5.64573 0 0 1-1.36461-1.72768c-1.06466-.40866-2.1708-.84662-3.29234-1.30659m77.18516-48.70858l-63.31647 30.49163c.80749 1.13038 1.58 2.25093 2.30732 3.3272a5.64676 5.64676 0 0 1 1.99033.94164c2.03657 1.50531 4.17259 2.92853 6.37023 4.29266L240.3396 38.144c.29571-2.5459.50843-5.07944.59707-7.58622a5.6592 5.6592 0 0 1 .5022-2.14354c-.39564-1.2554-.79709-2.57624-1.18324-3.92996zm85.5841 30.10434l-62.52084-30.10827c-.38664 1.355-.78768 2.67743-1.18366 3.93385a5.66227 5.66227 0 0 1 .50229 2.14354c.08848 2.50572.30136 5.03836.59731 7.58352l52.01892 25.04929c2.20468-1.39343 4.34643-2.84652 6.38456-4.38171a5.67171 5.67171 0 0 1 1.983-.95923c.69892-1.05561 1.44282-2.15321 2.21839-3.26099zm26.97084 72.49268l-12.47374-54.65517c-1.25805.53437-2.50023 1.03862-3.69109 1.50776a5.67438 5.67438 0 0 1-1.34914 1.73882c-1.93787 1.68627-3.81624 3.49138-5.64925 5.37081l10.50852 46.03778z" class="cls-2"/><path d="M282.38231 93.81215l1.50147 1.85422c.697-5.92794 5.61455-11.61583 14.94793-16.71516 9.72895-5.31483 18.81492-10.03071 26.22124-15.60663l.982 1.21124q8.68295-13.5618 13.48837-17.07364c4.30486-2.61981 8.28306-1.85725 11.376 1.59387 2.73341 3.74314 2.65246 7.7928-.80553 11.45933q-4.43466 3.97-19.50553 9.64309L331.569 71.39c-6.993 6.08745-13.49566 13.993-20.71832 22.40459-6.92613 8.0696-13.51318 11.69628-19.45716 11.14652l1.50261 1.85447-5.84126 4.72971-5.16187-12.46272-3.96622-1.64257zm-71.98425 13.16508l1.485-1.86641c-5.93751.60206-12.5559-2.96675-19.55341-10.97579-7.29452-8.3487-13.86535-16.19748-20.91311-22.22241l.97118-1.22081q-15.11973-5.54166-19.58958-9.47236c-3.4886-3.63593-3.60515-7.68517-.90514-11.4518 3.06268-3.47813 7.03352-4.27539 11.36235-1.69381q4.83478 3.47142 13.63555 16.95616l.97151-1.22073c7.45568 5.51069 16.58174 10.148 26.35669 15.378 9.37807 5.01626 14.34481 10.66224 15.09329 16.58363l1.48567-1.86756 4.49007 3.57184-3.833 1.58732-5.20548 12.57006zm33.036-23.88248h2.38639c-4.168-4.27228-5.495-11.674-3.58371-22.13573 1.99262-10.90614 4.04466-20.93456 4.37319-30.2h1.56048q-5.076-15.2835-4.78194-21.2274c.67376-4.99383 3.77008-7.60676 8.39822-7.83831 4.62888.23155 7.72536 2.84448 8.39936 7.83831q.29219 5.94386-4.78234 21.2274h1.56047c.3287 9.26546 2.381 19.29388 4.3732 30.2 1.91134 10.46171.58429 17.86345-3.58363 22.13573H260.14v6.95919l-8.46647-3.50628-8.23953 3.41208z" class="cls-1"/><path d="M251.674 91.641l13.307 5.513 13.31 5.51 5.51 13.311 4.602 11.106h-24.107l-1.071-2.584-1.981-4.786-4.786-1.981-4.784-1.982-4.785 1.982-4.786 1.981-1.981 4.786-1.07 2.584h-24.107l4.602-11.106 5.51-13.311 13.31-5.51 13.307-5.513z" class="cls-2"/><path d="M153.64329 174.28432a4.73074 4.73074 0 1 1-9.46147 0V140.833a4.73149 4.73149 0 0 1 4.73094-4.73053h203.89677a4.7311 4.7311 0 0 1 4.73078 4.73053v33.45134a4.73066 4.73066 0 1 1-9.46131 0v-28.7204h-92.48781v28.7204a4.73066 4.73066 0 1 1-9.46131 0v-28.7204h-92.48659z" class="cls-1"/><path d="M245.82312 223.94755a.62693.62693 0 0 0 .50761.25962h4.53009l4.52993-.00066a.62315.62315 0 0 0 .49-.23743l2.82483-3.54033 2.82426-3.54271a.63044.63044 0 0 0 .12031-.52725l-2.014-8.8261a.618.618 0 0 0-.3404-.43289l-8.16241-3.93065a.62567.62567 0 0 0-.54485 0l-8.16242 3.93065a.62992.62992 0 0 0-.33851.42634l-2.01129 8.81006a.62848.62848 0 0 0 .11573.5505zm-6.40212 13.08078a1.42523 1.42523 0 0 0 1.1537.58774h10.28722l10.28722-.00188a1.41647 1.41647 0 0 0 1.113-.53748l6.41443-8.0417 6.41329-8.04455a1.43711 1.43711 0 0 0 .27459-1.19831l-4.57486-20.04342a1.40672 1.40672 0 0 0-.773-.98273l-18.537-8.92751a1.422 1.422 0 0 0-1.23572 0l-18.53713 8.92751a1.42085 1.42085 0 0 0-.76862.96783l-4.56758 20.00692a1.42285 1.42285 0 0 0 .26216 1.25036zm-96.16437-13.08078a.62524.62524 0 0 0 .50761.25962h4.53009l4.52993-.00066a.6247.6247 0 0 0 .49-.23743l2.825-3.54033 2.823-3.54271a.63007.63007 0 0 0 .12121-.52725l-2.01488-8.8261a.61924.61924 0 0 0-.33975-.43289l-8.16307-3.93065a.62423.62423 0 0 0-.54419 0l-8.162 3.93065a.6272.6272 0 0 0-.33876.42634l-2.011 8.81006a.62417.62417 0 0 0 .11582.5505zm-6.402 13.08078a1.42487 1.42487 0 0 0 1.15321.58774h10.28648l10.288-.00188a1.42029 1.42029 0 0 0 1.11343-.53748l6.41394-8.0417 6.41255-8.04455a1.429 1.429 0 0 0 .27459-1.19831l-4.57412-20.04342a1.40508 1.40508 0 0 0-.77263-.98273l-18.537-8.92751a1.42375 1.42375 0 0 0-1.23653 0l-18.53737 8.92751a1.42546 1.42546 0 0 0-.76878.96783l-4.56626 20.00692a1.41757 1.41757 0 0 0 .26223 1.25036zm210.29886-13.08078a.62513.62513 0 0 0 .5076.25962h4.52991l4.53-.00066a.62465.62465 0 0 0 .48993-.23743l2.825-3.54033 2.82311-3.54271a.62691.62691 0 0 0 .12105-.52725l-2.014-8.8261a.61813.61813 0 0 0-.34048-.43289l-8.16242-3.93065a.62548.62548 0 0 0-.54476 0l-8.16242 3.93065a.63139.63139 0 0 0-.3386.42634l-2.01127 8.81006a.62847.62847 0 0 0 .1158.5505zm-6.40224 13.08078a1.42529 1.42529 0 0 0 1.15338.58774H352.191l10.28795-.00188a1.41924 1.41924 0 0 0 1.11351-.53748l6.414-8.0417 6.41247-8.04455a1.42855 1.42855 0 0 0 .27419-1.19831l-4.57364-20.04342a1.40712 1.40712 0 0 0-.77262-.98273l-18.53738-8.92751a1.42375 1.42375 0 0 0-1.23653 0l-18.53707 8.92751a1.42423 1.42423 0 0 0-.7687.96783l-4.56643 20.00692a1.41815 1.41815 0 0 0 .26231 1.25036z" class="cls-2"/></g></svg>