<svg xmlns="http://www.w3.org/2000/svg" role="img" viewBox="-1.02 83.22 404.30 77.05"><path fill="none" d="M0 0h400v245H0z" pointer-events="none"/><defs><clipPath id="a"><path d="M297 782.84l2574-.043.01 398.159-2574 .044z"/></clipPath><clipPath id="b"><path d="M0 0h400v245H0V0z"/></clipPath></defs><g clip-path="url(#a)" transform="matrix(1.09093 0 0 -1.09093 0 190.533)"><path fill="#ee243f" d="M156.417 40.86c-10.066 0-13.636 8.43-13.636 15.65 0 11.594 7.042 15.723 13.636 15.723 6.592 0 13.636-4.129 13.636-15.723 0-11.54-7.044-15.65-13.636-15.65m0 23.725c-3.063 0-4.75-2.86-4.75-8.075 0-5.162 1.687-8.003 4.75-8.003 3.108 0 4.748 2.77 4.748 8.003 0 5.288-1.64 8.075-4.748 8.075m29.515-23.725c-6.507 0-9.809 2.288-11.219 3.263l-.169.117v38.922l8.705 1.191V69.308c1.276 1.306 3.566 2.925 7.12 2.925 6.711 0 10.563-5.188 10.563-14.246 0-11.363-5.049-17.128-15-17.128m-2.683 8.186c.633-.37 1.525-.713 3.152-.713 2.422 0 5.642.887 5.642 8.591 0 5.164-1.574 7.662-4.81 7.662-1.506 0-2.84-.63-3.984-1.883zm31.296-7.473h-8.709v29.952h8.709zm-4.355 32.684c-2.779 0-4.443 1.62-4.443 4.333v.271c0 2.721 1.619 4.279 4.443 4.279 2.82 0 4.443-1.558 4.443-4.279v-.271c0-2.713-1.664-4.333-4.443-4.333m10.676-32.684h8.766v42.781l-8.766-1.217zm23.802 0h-8.707v29.952h8.707zm-4.355 32.684c-2.779 0-4.443 1.62-4.443 4.333v.271c0 2.721 1.621 4.279 4.443 4.279 2.82 0 4.443-1.558 4.443-4.279v-.271c0-2.713-1.66-4.333-4.443-4.333m-112.964 8.898L117.2 55.88l-10.094 27.273h-9.342l-2.705-41.57h8.768l1.33 22.55 8.698-22.55h6.629l8.637 22.55 1.33-22.55h8.829l-2.704 41.57zM312.647 64.9c2.883 0 4.678-1.508 4.96-5.138l-10.412-.002c.464 3.78 2.563 5.14 5.452 5.14m7.629-14.973c-1.658-1.131-3.963-1.704-6.141-1.704-4.037 0-6.535 1.518-6.898 5.846h17.738s.039 2.378.055 3.17c.176 9.972-5.004 15.02-12.586 15.02-8.955 0-14.016-7.36-14.016-15.255 0-9.375 5.156-16.127 14.846-16.127 5.89 0 9.342 2.166 11.156 3.914l-3.871 5.379zm-30.649-8.359h-8.707V71.52h7.066l1.229-2.93c1.123 1.956 3.094 3.524 7.65 3.524h1.44l-1.1-7.41s-1.057.093-1.793.093c-2.59 0-4.525-1.437-5.785-3.658zM269.37 74.44h-5.972l-10.06 6.424v1.966h9.244zm-5.755-9.54c2.885 0 4.682-1.508 4.963-5.138l-10.414-.002c.467 3.78 2.562 5.14 5.451 5.14m7.631-14.973c-1.658-1.131-3.96-1.704-6.14-1.704-4.04 0-6.536 1.518-6.899 5.846h17.738l.055 3.17c.174 9.972-5.004 15.02-12.586 15.02-8.953 0-14.017-7.36-14.017-15.255 0-9.375 5.158-16.127 14.847-16.127 5.891 0 9.344 2.166 11.156 3.914l-3.873 5.379zM47.272 46.475l4.477 37.837-.14.034c-.5.125-1.92.252-2.575.252-2.686 0-4.817-.782-6.172-1.47-.6-.601-1.162-2.611-1.162-3.267v-.18l4.427.493-4.556-34.545c0-1.134 1.029-3.322 2.203-4.681l.049-.057h.074c1.844 0 5.447.697 7.414 1.434l.053.019.027.047c.512.83 1.014 2.588 1.014 3.549v.178l-4.885-.502c-.115.279-.246.752-.248.859M66.65 45.42c-3.293 0-5.033 2.553-5.033 7.383 0 3.496.814 8.383 2.637 11.417 1.74 2.854 4.507 4.559 7.404 4.559 1.41 0 2.904-.332 3.846-.852L73 49.847c-1.434-2.69-3.928-4.427-6.35-4.427m11.732.195c-.117.356-.255.989-.257 1.106l2.982 22.79-.08.055c-1.486 1.05-4.674 2.814-9.307 2.814-5.886 0-9.576-3.365-11.632-6.191-2.614-3.644-4.112-8.773-4.112-14.068 0-9.77 5.1-11.23 8.14-11.23 2.69 0 6.407 1.205 8.8 4.576h.091c.264-1.461.928-3.326 1.602-4.494l.05-.082h.091c1.687 0 5.52.675 7.42 1.435l.048.018.03.047c.5.816 1.011 2.576 1.011 3.486v.176z"/></g><g clip-path="url(#b)" transform="translate(-10.524 -7.34) scale(1.0586)"><clipPath id="c"><path fill="#FFF" d="M-37.5 39.5h475v166h-475v-166z"/></clipPath><g clip-path="url(#c)"><path fill="#EE243F" d="M165.135 151.119c-13.04 0-17.665-11.221-17.665-20.83 0-15.431 9.123-20.926 17.665-20.926 8.54 0 17.665 5.495 17.665 20.926 0 15.359-9.125 20.83-17.665 20.83zm0-31.578c-3.968 0-6.154 3.808-6.154 10.748 0 6.87 2.186 10.651 6.154 10.651 4.026 0 6.151-3.685 6.151-10.651 0-7.038-2.125-10.748-6.151-10.748zm38.235 31.578c-8.429 0-12.707-3.046-14.534-4.344l-.219-.156V94.817l11.278-1.585v20.024c1.653-1.739 4.619-3.893 9.222-3.893 8.695 0 13.685 6.904 13.685 18.96 0 15.123-6.54 22.796-19.432 22.796zm-3.475-10.895c.82.494 1.975.949 4.083.949 3.138 0 7.309-1.18 7.309-11.434 0-6.873-2.039-10.198-6.231-10.198-1.951 0-3.681.84-5.161 2.507v18.176zm40.543 9.947h-11.283v-39.864h11.283v39.864zm-5.642-43.5c-3.6 0-5.756-2.156-5.756-5.767v-.361c0-3.621 2.097-5.695 5.756-5.695 3.653 0 5.756 2.074 5.756 5.695v.361c0 3.611-2.156 5.767-5.756 5.767zm13.83 43.499h11.356V93.232l-11.356 1.62v55.318zm30.835.001h-11.28v-39.864h11.28v39.864zm-5.642-43.5c-3.6 0-5.755-2.156-5.755-5.767v-.361c0-3.621 2.1-5.695 5.755-5.695 3.654 0 5.756 2.074 5.756 5.695v.361c0 3.611-2.15 5.767-5.756 5.767zM127.477 94.828l-13.147 36.299-13.076-36.299H89.152l-3.505 55.327h11.359l1.723-30.012 11.268 30.012h8.588l11.189-30.012 1.723 30.012h11.437l-3.502-55.327h-11.955zm240.049 24.294c3.734 0 6.06 2.008 6.426 6.839l-13.488.003c.6-5.031 3.319-6.842 7.062-6.842zm9.883 19.929c-2.148 1.505-5.134 2.268-7.956 2.268-5.23 0-8.466-2.021-8.936-7.781h22.979s.051-3.165.071-4.22c.228-13.271-6.482-19.991-16.304-19.991-11.601 0-18.158 9.797-18.158 20.305 0 12.477 6.68 21.464 19.233 21.464 7.631 0 12.102-2.883 14.452-5.209l-5.015-7.16-.366.324zm-39.705 11.124h-11.279v-39.864h9.154l1.592 3.901c1.454-2.604 4.008-4.691 9.91-4.691h1.866l-1.425 9.862s-1.37-.124-2.323-.124c-3.356 0-5.862 1.913-7.495 4.869v26.047zm-26.243-43.749h-7.735l-13.033-8.551v-2.616h11.975l8.793 11.167zm-7.454 12.696c3.737 0 6.065 2.008 6.429 6.839l-13.491.003c.605-5.031 3.319-6.842 7.062-6.842zm9.886 19.929c-2.148 1.505-5.132 2.268-7.956 2.268-5.232 0-8.466-2.021-8.936-7.781h22.979l.071-4.22c.226-13.271-6.482-19.991-16.305-19.991-11.598 0-18.158 9.797-18.158 20.305 0 12.477 6.682 21.464 19.234 21.464 7.631 0 12.105-2.883 14.452-5.209l-5.017-7.16-.364.324zm-290.154 4.595l5.8-50.359-.18-.045c-.648-.166-2.488-.335-3.337-.335-3.48 0-6.241 1.04-7.996 1.955-.777.801-1.505 3.476-1.505 4.349v.239l5.735-.655-5.902 45.977c0 1.509 1.333 4.421 2.853 6.23l.064.076h.096c2.389 0 7.056-.928 9.604-1.909l.069-.025.035-.063c.663-1.105 1.314-3.444 1.314-4.723v-.237l-6.329.668c-.149-.371-.318-1.001-.321-1.143zm25.105 1.403c-4.266 0-6.52-3.397-6.52-9.826 0-4.653 1.054-11.157 3.416-15.195 2.254-3.799 5.839-6.068 9.592-6.068 1.826 0 3.762.442 4.982 1.134l-3.244 24.062c-1.858 3.58-5.088 5.893-8.226 5.893zm15.198-.259c-.151-.474-.33-1.316-.333-1.472l3.864-30.332-.104-.073c-1.925-1.399-6.055-3.745-12.057-3.745-7.625 0-12.406 4.478-15.069 8.239-3.386 4.85-5.327 11.677-5.327 18.724 0 13.002 6.607 14.946 10.544 14.946 3.486 0 8.301-1.604 11.401-6.09h.118c.342 1.944 1.202 4.426 2.076 5.981l.063.109h.119c2.186 0 7.15-.898 9.613-1.91l.062-.024.039-.062c.647-1.086 1.309-3.429 1.309-4.64v-.234l-6.318.583z"/></g></g></svg>