<svg xmlns="http://www.w3.org/2000/svg" role="img" viewBox="-42.65 -42.65 2217.80 795.30"><title>Lenovo (KCSP) logo</title><g fill-opacity="1" fill-rule="nonzero" stroke="none" transform="matrix(1.33333 0 0 -1.33333 0 711.107) scale(.1)"><path fill="#e22224" d="M0 0h16000v5333.33H0V0"/><path fill="#fff" d="M6970.45 3535.87c-236.28 0-505.06-109.53-669.3-328.85l.13.39-.13-.15.13 294.23h-563.74V1448.77h563.61v1167.97c0 210.24 162.95 433.67 464.71 433.67 233.26 0 474.56-162.18 474.56-433.67V1448.77h563.66v1272.47c0 472.03-337.72 814.63-833.63 814.63"/><path fill="#fff" d="M11810.2 3501.33l-509.6-1398.26-509.6 1398.26h-643.8l844.6-2051.94h617.6l844.6 2051.94h-643.8"/><path fill="#fff" d="M4054.83 2882.96c95.98 128.87 248.91 204.5 433.56 204.5 203.15 0 357.25-116 436.87-287.15l-984.71-408.53c-26.95 209.59 26.7 373.59 114.28 491.18zm1082.89-803.1c-237.26-175.53-372.8-217.48-589.13-217.48-194.69 0-347.07 60.45-454.56 166.46l1441 597.82c-31.42 222.8-115.94 421.73-246.09 573.04-189.31 219.96-469.58 336.27-810.71 336.27-619.81 0-1087.19-457.26-1087.19-1061.14 0-619.5 468.42-1060.97 1149.23-1060.97 381.44 0 771.45 180.8 953.85 391.98l-356.4 274.02"/><path fill="#fff" d="M3337.33 1966.3H2056.19v2148.96h-571.25V1448.77h1852.39v517.53"/><path fill="#fff" d="M13466.1 3052.95c-314.8 0-543.3-238.52-543.3-577.94 0-323.99 242.1-577.85 550.9-577.85 314.8 0 543.3 245.11 543.3 577.85 0 324.08-242 577.94-550.9 577.94m0-1638.78c-616.5 0-1099.4 459.22-1099.4 1060.84 0 594.91 486.3 1060.96 1107 1060.96 616.4 0 1099.3-459.23 1099.3-1060.96 0-594.75-486.2-1060.84-1106.9-1060.84"/><path fill="#fff" d="M9126.44 3052.95c-314.81 0-543.26-238.52-543.26-577.94 0-323.99 242.05-577.85 550.88-577.85 314.81 0 543.32 245.11 543.32 577.85 0 324.08-242.05 577.94-550.94 577.94m0-1638.78c-616.44 0-1099.37 459.22-1099.37 1060.84 0 594.91 486.26 1060.96 1106.99 1060.96 616.39 0 1099.34-459.23 1099.34-1060.96 0-594.75-486.26-1060.84-1106.96-1060.84"/></g></svg>