<svg xmlns="http://www.w3.org/2000/svg" role="img" viewBox="-12.53 -12.03 625.56 190.06"><title>Lenses (member) logo</title><style>svg {enable-background:new 0 0 601.08 166.25}</style><style>.st0{fill:#c54543}</style><path d="M64.1 0C28.7 0 0 28.7 0 64.1c0 31.48 22.72 57.67 52.65 63.06v39.1l23.08-7.75V127.1c29.83-5.42 52.47-31.61 52.47-63C128.2 28.7 99.5 0 64.1 0zm-.13 104.43c-22.22 0-40.19-18.02-40.19-40.19S41.8 24.05 63.97 24.05s40.19 18.02 40.19 40.19-17.98 40.19-40.19 40.19z" class="st0"/><g id="Group-13_1_" transform="translate(387 73)"><path id="Fill-1_1_" d="M-217.66-29.89v86.37h52.74V42.82h-37.17v-72.71z" class="st0"/><path id="Fill-2_1_" d="M-155.38-29.89h57.54v13.41h-42.08V5.51h39.87v12.9h-39.87v24.41h44.29v13.66h-59.75z" class="st0"/><path id="Fill-3_1_" d="M-81.06-29.89h20.43l40.22 64.68h.25v-64.68h15.42v86.37h-19.58L-65.4-10.26h-.25v66.74h-15.41z" class="st0"/><g id="Group-12_1_" transform="translate(449)"><g id="Group-6_1_"><path id="Fill-4_1_" d="M-390.36-11.82c-3.31-4.27-9.8-7.43-15.86-7.43-7.08 0-15.27 3.41-15.27 11.8 0 7.88 6.73 10.2 16.52 13.26 11.15 3.41 25.31 8.29 25.31 25.16 0 18.48-14.56 27.46-31.53 27.46-11.25 0-22.85-4.27-29.73-12.31l11-10.2c4.27 5.82 12.1 9.49 18.93 9.49 7.23 0 15.67-3.52 15.67-12.76 0-8.99-9.04-11.55-19.93-14.96-10.55-3.27-21.89-8.33-21.89-24.4 0-17.52 16.02-25.31 31.64-25.31 8.69 0 18.58 3.06 25.21 9.24l-10.07 10.96z" class="st0"/></g><path id="Fill-7_1_" d="M-364.3-29.79h57.34v13.36h-41.93V5.46h39.72v12.9h-39.72v24.31h44.09v13.61h-59.5z" class="st0"/><g id="Group-11_1_" transform="translate(288.265)"><path id="Fill-9_1_" d="M-533.88-11.82c-3.31-4.27-9.8-7.43-15.86-7.43-7.08 0-15.27 3.41-15.27 11.8 0 7.88 6.73 10.2 16.52 13.26 11.15 3.41 25.31 8.29 25.31 25.16 0 18.48-14.56 27.46-31.53 27.46-11.25 0-22.85-4.27-29.73-12.31l11-10.2c4.27 5.82 12.1 9.49 18.93 9.49 7.23 0 15.67-3.52 15.67-12.76 0-8.99-9.04-11.55-19.93-14.96-10.55-3.27-21.89-8.33-21.89-24.4 0-17.52 16.02-25.31 31.64-25.31 8.69 0 18.58 3.06 25.21 9.24l-10.07 10.96z" class="st0"/></g></g></g></svg>