<svg xmlns="http://www.w3.org/2000/svg" role="img" viewBox="-5.77 -5.77 300.04 111.29"><title>Lima logo</title><path d="M23.67969 6.96875v71.04297h28.39453V98.0664H0V6.96875zm38.53906 29.1211h21.8711V98.0664h-21.8711zm36.84766 0h21.87109v7.60937c5.95703-5.71875 12.64453-8.57813 20.05469-8.57813 9.17969 0 16.1875 3.8672 21.02344 11.59766C166.92577 38.91015 173.93358 35 183.03516 35c2.90234 0 5.63672.42188 8.21484 1.26953 2.57813.84375 4.79297 2.17188 6.64844 3.98438 1.85156 1.8125 3.32031 4.17187 4.40625 7.0703 1.08984 2.89845 1.63281 6.40235 1.63281 10.51173V98.0664h-21.86719V67.5c0-3.14063-.22265-5.71875-.66406-7.73438-.44531-2.01171-1.08984-3.58203-1.9336-4.71093-.84765-1.125-1.83202-1.89063-2.96093-2.29297-1.1289-.40234-2.33594-.60547-3.625-.60547-7.00781 0-10.51172 5.11328-10.51172 15.34375v30.5664h-21.86719V67.5c0-3.14063-.20312-5.73828-.60547-7.79297-.40234-2.05469-.98437-3.6836-1.75-4.89453-.76562-1.20703-1.7539-2.03125-2.96093-2.47656-1.20703-.4414-2.6172-.66407-4.22657-.66407-1.37109 0-2.66015.20313-3.86718.60547-1.20704.40235-2.27735 1.1875-3.20313 2.35547-.92578 1.16797-1.65234 2.78125-2.17187 4.83203-.52735 2.0547-.78516 4.73438-.78516 8.03516v30.5664H99.0664zm167.6953 0H288.75V98.0664h-21.98828v-6.88672C262.08984 97.05859 255.76562 100 247.79297 100c-4.51172 0-8.66016-.82813-12.44531-2.47656-3.78516-1.65235-7.08594-3.96485-9.90625-6.94922-2.82032-2.97656-5.01563-6.48047-6.58594-10.50781-1.5664-4.02735-2.35547-8.41797-2.35547-13.17188 0-4.42578.76563-8.63672 2.29688-12.625 1.52734-3.98437 3.66406-7.46875 6.40234-10.44922 2.73828-2.98047 6-5.33593 9.78906-7.07031 3.78125-1.73047 7.97266-2.59375 12.5625-2.59375 7.73438 0 14.13672 2.69531 19.21094 8.09375zm-27.54687 30.80468c0 2.01563.36328 3.88672 1.08594 5.6211.72656 1.73046 1.71094 3.24218 2.96094 4.52734 1.25 1.28906 2.73828 2.29687 4.46875 3.02344 1.73047.72265 3.60547 1.08593 5.6211 1.08593 1.93359 0 3.76171-.36328 5.49609-1.08593 1.73046-.72657 3.21875-1.73438 4.46875-3.02344 1.25-1.28516 2.2539-2.77734 3.01953-4.46875.76562-1.6914 1.15234-3.5039 1.15234-5.4375 0-1.9336-.38672-3.76172-1.15234-5.4961-.76563-1.73046-1.76953-3.24218-3.01953-4.53124-1.25-1.28516-2.73829-2.29688-4.46875-3.01954-1.73438-.72656-3.5625-1.08984-5.4961-1.08984-2.01562 0-3.89062.36328-5.6211 1.08984-1.73046.72266-3.21874 1.73438-4.46874 3.01953-1.25 1.28907-2.23438 2.75782-2.96094 4.41016-.72266 1.65234-1.08594 3.44531-1.08594 5.375zm0 0"/><path fill="#a9cf38" d="M85.41797 12.30469v-.01953h-.0039C85.39452 5.49609 79.88671 0 73.09374 0S60.79297 5.4961 60.77344 12.28516h-.0039v.03906h.0039c.01953 6.78906 5.52734 12.28515 12.32031 12.28515 6.79297 0 12.30078-5.49609 12.32031-12.28515h.0039v-.01953zm0 0"/></svg>