<svg xmlns="http://www.w3.org/2000/svg" role="img" viewBox="-0.24 2.51 441.48 107.48"><title>Linbit (member) logo</title><style>svg {isolation:isolate}</style><defs><clipPath id="a"><path d="M0 0h441.22v146.97H0z"/></clipPath></defs><g clip-path="url(#a)"><path fill="#F68118" d="M8.439 11.32h23.177v65.628c0 6.502 4.611 6.385 8.749 6.385h32.638v18.447H30.787c-11.942 0-22.467-4.376-22.467-18.329l.119-72.13m75.441-.001h23.177v90.46H83.88V11.32zm113.399 65.982V64.768c0-2.838 1.301-5.794 3.311-7.922-2.01-2.128-3.311-5.085-3.311-7.923V36.389c0-3.666 2.246-7.804 5.44-9.697v-15.49h-23.177v53.093l-35.946-53.093h-23.533v90.458h23.295V49.514l36.064 52.146h23.414V87.117c-3.192-2.009-5.557-6.031-5.557-9.815"/><path fill="#1E2635" d="M295.541 54.836c10.17-1.183 14.544-11.116 14.544-19.156 0-14.072-8.396-24.36-30.033-24.36H236.3v15.491c3.074 2.011 5.32 5.913 5.32 9.579v12.533c0 2.839-1.3 5.795-3.31 7.923 2.01 2.129 3.31 5.086 3.31 7.922v12.534c0 3.666-2.246 7.687-5.32 9.578v14.782h44.224c21.758 0 31.572-8.751 31.572-27.079.118-10.406-7.095-18.328-16.555-19.747zm-35.947-26.014h18.921c4.138 0 8.867 1.774 8.867 8.867 0 5.085-3.075 8.515-8.867 8.515h-18.921V28.822zm19.984 55.457h-19.984v-21.52h19.984c7.096 0 9.46 5.321 9.46 10.997 0 7.804-3.784 10.523-9.46 10.523m42.687-72.959h23.177v90.46h-23.177V11.32zm32.399 0v18.448h27.081v72.012h23.174V29.767h27.906V11.32h-78.161z"/><path fill="#F68118" d="M205.201 53.772l8.632-4.966c2.011-1.182 4.256-1.42 5.677-1.42 1.419 0 3.664.237 5.675 1.42l8.631 4.966c1.419-1.064 2.484-3.075 2.484-4.729V36.506c0-1.891-1.302-4.256-2.956-5.202l-10.878-6.268c-1.656-.945-4.377-.945-5.912 0l-10.881 6.268c-1.536.828-2.718 2.956-2.955 4.729V49.28c.237 1.655 1.182 3.429 2.483 4.493"/><path fill="#F68118" d="M202.718 36.507v12.535c0 .118 0 .237.118.354V36.153c0 .118-.118.237-.118.354z"/><path fill="#1E2635" d="M233.816 60.039l-.472-.473-4.848-2.72-6.031-3.429c-.828-.473-1.892-.709-2.956-.709s-2.128.236-2.957.709l-6.03 3.429-4.848 2.72c-.211.092-.381.261-.473.473-1.301 1.064-2.247 2.719-2.365 4.374 0 .119-.118.237-.118.355v12.534c0 .119 0 .237.118.355.118 1.774 1.419 3.904 2.957 4.729l10.877 6.268c.829.472 1.894.709 2.958.709 1.064 0 2.128-.237 2.955-.709l10.878-6.268c1.657-.945 2.956-3.309 2.956-5.202V64.65c-.117-1.537-1.182-3.429-2.601-4.611M15.252 199.315h-2.301l-6.132-8.157-1.76 1.565v6.592H3.104v-16.819h1.955v8.341l7.627-8.341H15l-6.766 7.306 7.018 9.513m7.351.23c-1.864 0-3.335-.567-4.412-1.703-1.078-1.136-1.617-2.711-1.617-4.729 0-2.031.501-3.646 1.503-4.841 1.001-1.198 2.344-1.796 4.031-1.796 1.58 0 2.83.52 3.751 1.559.919 1.04 1.381 2.41 1.381 4.113v1.208h-8.687c.038 1.48.413 2.604 1.121 3.37.712.769 1.709 1.151 3 1.151 1.355 0 2.697-.284 4.026-.852v1.702c-.617.273-1.259.483-1.917.628-.602.126-1.329.19-2.18.19m-.516-11.469c-1.014 0-1.821.328-2.423.989-.602.659-.957 1.572-1.064 2.736h6.59c0-1.202-.267-2.126-.804-2.767-.536-.639-1.305-.958-2.299-.958zm13.735 11.469c-1.864 0-3.335-.567-4.412-1.703-1.079-1.136-1.618-2.711-1.618-4.729 0-2.031.501-3.646 1.503-4.841 1-1.198 2.344-1.796 4.031-1.796 1.581 0 2.832.52 3.751 1.559.92 1.04 1.381 2.41 1.381 4.113v1.208h-8.686c.038 1.48.412 2.604 1.121 3.37.711.769 1.71 1.151 2.998 1.151 1.356 0 2.699-.284 4.026-.852v1.702c-.616.273-1.258.483-1.915.628-.603.126-1.329.19-2.181.19m-.516-11.469c-1.013 0-1.821.328-2.423.989-.601.659-.956 1.572-1.064 2.736h6.59c0-1.202-.266-2.126-.803-2.767-.538-.639-1.304-.958-2.3-.958zm14.275 11.469c-.773.01-1.539-.145-2.248-.453-.684-.307-1.274-.79-1.71-1.401h-.137c.092.738.137 1.435.137 2.094v5.191h-1.909v-18.271h1.554l.265 1.726h.091c.491-.689 1.063-1.187 1.715-1.494.652-.307 1.398-.461 2.242-.461 1.672 0 2.962.573 3.873 1.712.907 1.145 1.362 2.748 1.362 4.812 0 2.07-.462 3.679-1.385 4.825-.926 1.147-2.208 1.72-3.85 1.72m-.275-11.447c-1.288 0-2.22.356-2.796 1.07-.575.713-.871 1.85-.887 3.404V193c0 1.771.296 3.037.887 3.802.589.762 1.537 1.143 2.843 1.143 1.088 0 1.94-.44 2.56-1.322.615-.882.924-2.099.924-3.646 0-1.574-.309-2.779-.924-3.619-.62-.84-1.488-1.26-2.607-1.26m8.686-4.809c0-.438.107-.757.321-.96.216-.204.484-.304.807-.304.306 0 .571.102.792.309.222.207.334.526.334.955 0 .429-.112.75-.334.96-.222.212-.486.316-.792.316-.323 0-.591-.104-.807-.316-.214-.21-.321-.53-.321-.96zm2.07 16.026h-1.909v-12.61h1.909v12.61zm12.678 0v-8.157c0-1.027-.235-1.796-.703-2.3-.466-.507-1.198-.76-2.196-.76-1.318 0-2.286.356-2.9 1.07-.612.713-.92 1.89-.92 3.532v6.615h-1.908v-12.61h1.554l.309 1.726h.092c.391-.622.939-1.101 1.645-1.442.706-.341 1.493-.513 2.359-.513 1.519 0 2.661.367 3.429 1.099.767.733 1.15 1.904 1.15 3.514v8.226h-1.91m16.151-12.61v1.209l-2.335.275c.214.27.406.622.575 1.054.168.432.253.921.253 1.467 0 1.233-.422 2.22-1.264 2.956-.845.736-2.004 1.105-3.475 1.105-.376 0-.729-.031-1.058-.092-.815.43-1.221.97-1.221 1.623 0 .345.142.6.426.763.284.166.771.248 1.461.248h2.232c1.365 0 2.415.288 3.146.864.732.574 1.099 1.411 1.099 2.508 0 1.393-.56 2.459-1.679 3.192-1.119.731-2.754 1.099-4.901 1.099-1.649 0-2.92-.307-3.814-.922-.893-.612-1.339-1.479-1.339-2.599 0-.767.245-1.431.734-1.989.491-.561 1.182-.94 2.072-1.141-.327-.149-.607-.384-.811-.679-.218-.306-.33-.663-.33-1.071 0-.458.125-.86.369-1.204.246-.347.634-.682 1.162-1.003-.652-.268-1.182-.724-1.593-1.368-.41-.645-.614-1.382-.614-2.209 0-1.381.413-2.446 1.241-3.194.83-.747 2.002-1.121 3.52-1.121.661 0 1.255.077 1.784.229h4.36zm-10.055 14.728c0 .682.287 1.2.863 1.552.576.352 1.4.528 2.474.528 1.604 0 2.789-.238 3.56-.718.771-.479 1.157-1.129 1.157-1.951 0-.682-.211-1.156-.633-1.42-.422-.264-1.216-.396-2.381-.396h-2.289c-.867 0-1.543.206-2.026.621-.483.414-.725 1.006-.725 1.784m1.035-10.689c0 .884.251 1.55.749 2.001.499.454 1.193.68 2.082.68 1.865 0 2.795-.905 2.795-2.715 0-1.893-.942-2.842-2.83-2.842-.897 0-1.587.242-2.07.724-.484.483-.726 1.203-.726 2.152m21.799 7.225c.34 0 .666-.026.979-.075.317-.051.565-.102.749-.156v1.462c-.207.1-.513.181-.914.249-.359.061-.723.093-1.087.096-2.441 0-3.659-1.284-3.659-3.853v-7.503h-1.806v-.919l1.806-.795.805-2.692h1.104v2.922h3.659v1.484h-3.659v7.42c0 .761.18 1.345.54 1.749.362.408.857.611 1.484.611m12.876 1.346v-8.157c0-1.027-.235-1.796-.703-2.3-.468-.507-1.2-.76-2.198-.76-1.327 0-2.295.361-2.904 1.081-.611.722-.917 1.903-.917 3.544v6.592h-1.906v-17.9h1.906v5.418c0 .652-.028 1.192-.091 1.621h.116c.375-.605.91-1.082 1.604-1.432.694-.348 1.488-.523 2.377-.523 1.541 0 2.697.365 3.469 1.098.771.733 1.154 1.896 1.154 3.492v8.226h-1.907m11.159.23c-1.866 0-3.333-.567-4.412-1.703-1.079-1.136-1.618-2.711-1.618-4.729 0-2.031.501-3.646 1.501-4.841 1.003-1.198 2.344-1.796 4.032-1.796 1.582 0 2.833.52 3.751 1.559.92 1.04 1.38 2.41 1.38 4.113v1.208h-8.686c.039 1.48.412 2.604 1.121 3.37.712.769 1.711 1.151 3 1.151 1.355 0 2.699-.284 4.026-.852v1.702c-.616.273-1.258.484-1.916.628-.603.126-1.328.19-2.179.19m-.518-11.469c-1.012 0-1.82.328-2.421.989-.604.659-.958 1.572-1.066 2.736h6.593c0-1.202-.27-2.126-.805-2.767-.536-.639-1.304-.958-2.301-.958zm28.243 2.668c0 2.776-.754 4.898-2.261 6.368-1.509 1.468-3.677 2.203-6.507 2.203h-4.658v-16.819h5.152c2.617 0 4.65.724 6.098 2.175 1.451 1.447 2.176 3.472 2.176 6.074m-2.073.069c0-2.194-.548-3.847-1.649-4.958-1.101-1.114-2.737-1.669-4.907-1.669h-2.841v13.436h2.38c2.332 0 4.084-.572 5.259-1.719 1.172-1.147 1.758-2.844 1.758-5.09zm5.374-7.525c0-.438.108-.757.322-.96.217-.205.507-.314.806-.304.306 0 .571.102.794.309.221.207.332.526.332.955 0 .429-.111.75-.332.96-.212.207-.498.321-.794.316-.322 0-.591-.104-.805-.316-.215-.21-.323-.53-.323-.96zm2.071 16.026h-1.909v-12.61h1.909v12.61zm14.37-12.61v1.209l-2.337.275c.216.27.407.622.575 1.054.169.432.255.921.255 1.467 0 1.233-.423 2.22-1.269 2.956-.842.736-1.998 1.105-3.471 1.105-.378 0-.729-.031-1.06-.092-.814.43-1.218.97-1.218 1.623 0 .345.142.6.424.763.285.166.771.248 1.462.248h2.231c1.366 0 2.414.288 3.148.864.733.574 1.097 1.411 1.097 2.508 0 1.393-.559 2.459-1.68 3.192-1.118.731-2.752 1.099-4.9 1.099-1.649 0-2.92-.307-3.815-.922-.893-.612-1.339-1.479-1.339-2.599 0-.767.245-1.431.737-1.989.49-.561 1.182-.94 2.069-1.141-.326-.149-.606-.384-.809-.679-.22-.306-.328-.663-.328-1.071 0-.458.122-.86.367-1.204.246-.347.632-.682 1.164-1.003-.653-.268-1.185-.724-1.594-1.368-.412-.645-.616-1.382-.616-2.209 0-1.381.414-2.446 1.241-3.194.828-.747 2.004-1.121 3.522-1.121.657 0 1.253.077 1.783.229h4.361zm-10.055 14.728c0 .682.285 1.2.862 1.552.575.352 1.399.528 2.473.528 1.604 0 2.789-.238 3.561-.718.77-.479 1.157-1.129 1.157-1.951 0-.682-.211-1.156-.635-1.42-.421-.264-1.215-.396-2.379-.396h-2.291c-.867 0-1.54.206-2.025.621-.482.414-.724 1.006-.724 1.784m1.034-10.689c0 .884.251 1.55.75 2.001.499.454 1.192.68 2.083.68 1.863 0 2.794-.905 2.794-2.715 0-1.893-.943-2.842-2.832-2.842-.895 0-1.585.242-2.07.724-.482.483-.723 1.203-.723 2.152m11.446-7.455c0-.438.108-.757.32-.96.217-.204.486-.304.808-.304.306 0 .571.102.793.309.223.207.334.526.334.955 0 .429-.111.75-.334.96-.222.212-.487.316-.793.316-.322 0-.591-.104-.808-.316-.212-.21-.32-.53-.32-.96zm2.071 16.026h-1.91v-12.61h1.91v12.61zm8.124-1.346c.582-.001 1.163-.079 1.725-.231v1.462c-.208.1-.515.181-.916.249-.402.065-.765.096-1.087.096-2.438 0-3.657-1.284-3.657-3.853v-7.503h-1.808v-.919l1.808-.795.805-2.692h1.104v2.922h3.659v1.484h-3.659v7.42c0 .761.179 1.345.541 1.749.36.408.856.611 1.485.611m11.996 1.346l-.377-1.795h-.093c-.629.791-1.257 1.325-1.881 1.604-.626.282-1.405.421-2.342.421-1.248 0-2.23-.323-2.94-.966-.708-.645-1.063-1.56-1.063-2.752 0-2.545 2.037-3.878 6.109-4.002l2.14-.067v-.783c0-.99-.214-1.721-.64-2.193-.424-.471-1.105-.706-2.041-.706-1.052 0-2.239.32-3.567.965l-.587-1.46c.646-.347 1.332-.613 2.043-.793.727-.191 1.475-.288 2.226-.289 1.504 0 2.616.334 3.342.999.727.669 1.088 1.739 1.088 3.211v8.606h-1.417zm-4.311-1.346c1.187 0 2.12-.326 2.8-.977.678-.653 1.018-1.566 1.018-2.739v-1.139l-1.911.082c-1.516.052-2.613.288-3.283.706-.673.418-1.008 1.068-1.008 1.95 0 .69.211 1.216.627 1.577.418.36 1.003.54 1.757.54m11.571 1.346h-1.909v-17.9h1.909v17.9m25.138 0h-1.934l-3.394-11.262c-.197-.624-.377-1.254-.539-1.888-.201-.759-.305-1.215-.313-1.369-.194 1.125-.463 2.236-.804 3.326l-3.292 11.193h-1.93l-4.475-16.819h2.069l2.658 10.388c.368 1.457.637 2.776.805 3.957.207-1.403.515-2.776.921-4.118l3.012-10.227h2.072l3.165 10.319c.368 1.189.677 2.531.932 4.026.145-1.088.422-2.415.828-3.979l2.645-10.366h2.074l-4.5 16.819M247.915 193c0 2.055-.516 3.659-1.551 4.813-1.036 1.157-2.466 1.73-4.292 1.73-1.128 0-2.128-.264-3.002-.792-.875-.53-1.549-1.289-2.026-2.279-.477-.989-.712-2.146-.712-3.472 0-2.057.513-3.658 1.541-4.805 1.027-1.146 2.454-1.719 4.28-1.719 1.762 0 3.165.587 4.204 1.759 1.039 1.175 1.559 2.761 1.559 4.765m-9.606 0c0 1.608.321 2.835.965 3.679.644.845 1.591 1.266 2.844 1.266 1.246 0 2.196-.418 2.846-1.258.65-.841.971-2.07.971-3.687 0-1.604-.321-2.821-.971-3.654-.65-.832-1.606-1.248-2.87-1.248-1.25 0-2.195.411-2.829 1.23-.638.821-.956 2.046-.956 3.672m18.705-6.524c.56 0 1.063.046 1.508.137l-.265 1.771c-.452-.105-.915-.163-1.379-.171-1.02 0-1.895.414-2.619 1.242-.723.828-1.088 1.86-1.088 3.095v6.765h-1.908v-12.61h1.576l.219 2.336h.09c.467-.82 1.032-1.453 1.693-1.897.639-.439 1.397-.672 2.173-.668zm5.777 12.839h-1.909v-17.9h1.909v17.9m12.632-1.692h-.105c-.882 1.282-2.201 1.922-3.959 1.922-1.647 0-2.93-.564-3.847-1.69-.918-1.129-1.375-2.732-1.375-4.81 0-2.078.46-3.694 1.381-4.843.919-1.152 2.201-1.726 3.841-1.726 1.711 0 3.022.622 3.934 1.863h.151l-.08-.907-.046-.887v-5.13h1.909v17.9h-1.552l-.252-1.692zm-3.82.322c1.304 0 2.248-.353 2.835-1.064.586-.708.88-1.853.88-3.433v-.403c0-1.788-.298-3.062-.892-3.826-.595-.762-1.543-1.142-2.847-1.142-1.12 0-1.977.434-2.572 1.304-.592.87-.892 2.099-.892 3.686 0 1.611.297 2.828.887 3.647.591.823 1.457 1.231 2.601 1.231zm18.037-5.624v6.994h-1.954v-16.819h4.612c2.063 0 3.587.395 4.571 1.185.986.789 1.479 1.978 1.479 3.564 0 2.224-1.126 3.731-3.381 4.513l4.566 7.557h-2.311l-4.072-6.994h-3.51zm0-1.682h2.68c1.381 0 2.394-.272 3.038-.821.645-.548.965-1.37.965-2.468 0-1.111-.326-1.914-.984-2.405-.653-.489-1.705-.736-3.156-.736h-2.543v6.432m14.118-3.936v8.18c0 1.028.232 1.796.698 2.302.469.505 1.202.758 2.201.758 1.317 0 2.282-.361 2.891-1.08.612-.722.916-1.898.916-3.533v-6.627h1.91v12.61h-1.576l-.277-1.692h-.104c-.393.623-.959 1.119-1.628 1.427-.693.329-1.485.495-2.375.495-1.534 0-2.681-.364-3.445-1.093-.763-.728-1.144-1.894-1.144-3.497v-8.25h1.933m21.293 12.61v-8.157c0-1.027-.235-1.796-.701-2.3-.468-.507-1.201-.76-2.198-.76-1.319 0-2.285.356-2.899 1.07-.613.713-.921 1.89-.921 3.532v6.615h-1.91v-12.61h1.555l.308 1.726h.093c.392-.622.94-1.101 1.644-1.442.708-.341 1.492-.513 2.36-.513 1.519 0 2.662.367 3.429 1.099.765.733 1.15 1.904 1.15 3.514v8.226h-1.91m14.46 0v-8.157c0-1.027-.232-1.796-.7-2.3-.469-.507-1.2-.76-2.197-.76-1.32 0-2.287.356-2.899 1.07-.616.713-.922 1.89-.922 3.532v6.615h-1.908v-12.61h1.551l.31 1.726h.092c.392-.622.941-1.101 1.647-1.442.707-.341 1.492-.513 2.357-.513 1.519 0 2.662.367 3.43 1.099.766.733 1.148 1.904 1.148 3.514v8.226h-1.909m5.672-16.026c0-.438.109-.757.321-.96.217-.204.483-.304.807-.304.307 0 .571.102.793.309.223.207.335.526.335.955 0 .429-.112.75-.335.96-.222.212-.486.316-.793.316-.324 0-.59-.104-.807-.316-.212-.21-.321-.53-.321-.96zm2.072 16.026h-1.91v-12.61h1.91v12.61zm12.677 0v-8.157c0-1.027-.234-1.796-.701-2.3-.469-.507-1.201-.76-2.197-.76-1.319 0-2.285.356-2.899 1.07-.614.713-.921 1.89-.921 3.532v6.615h-1.91v-12.61h1.555l.308 1.726h.092c.393-.622.941-1.101 1.644-1.442.708-.341 1.493-.513 2.361-.513 1.519 0 2.661.367 3.429 1.099.765.733 1.149 1.904 1.149 3.514v8.226h-1.91m16.152-12.61v1.209l-2.335.275c.216.27.406.622.575 1.054.169.432.253.921.253 1.467 0 1.233-.422 2.22-1.264 2.956-.846.736-2.002 1.105-3.476 1.105-.376 0-.728-.031-1.058-.092-.813.43-1.218.97-1.218 1.623 0 .345.14.6.424.763.282.166.772.248 1.461.248h2.232c1.364 0 2.415.288 3.148.864.731.574 1.097 1.411 1.097 2.508 0 1.393-.561 2.459-1.679 3.192-1.119.731-2.754 1.099-4.902 1.099-1.647 0-2.918-.307-3.812-.922-.895-.612-1.341-1.479-1.341-2.599 0-.767.245-1.431.735-1.989.493-.561 1.185-.94 2.071-1.141-.327-.148-.607-.383-.811-.679-.217-.306-.327-.663-.327-1.071 0-.458.122-.86.368-1.204.245-.347.632-.682 1.164-1.003-.654-.268-1.182-.724-1.594-1.368-.412-.645-.618-1.382-.618-2.209 0-1.381.416-2.446 1.244-3.194.827-.747 2.003-1.121 3.52-1.121.661 0 1.256.077 1.783.229h4.36zm-10.053 14.728c0 .682.287 1.2.863 1.552.574.352 1.398.528 2.472.528 1.603 0 2.79-.238 3.56-.718.772-.479 1.157-1.129 1.157-1.951 0-.682-.211-1.156-.634-1.42-.421-.264-1.215-.396-2.382-.396h-2.288c-.867 0-1.54.206-2.025.621-.481.414-.724 1.006-.724 1.784m1.035-10.689c0 .884.248 1.55.748 2.001.498.454 1.191.68 2.083.68 1.863 0 2.795-.905 2.795-2.715 0-1.893-.943-2.842-2.83-2.842-.897 0-1.589.242-2.069.724-.487.483-.727 1.203-.727 2.152"/></g></svg>