<svg xmlns="http://www.w3.org/2000/svg" role="img" viewBox="-5.91 -5.91 307.58 86.58"><title>LinkedIn (supporter) logo</title><style>svg {isolation:isolate}</style><defs><clipPath id="a"><path d="M0 0h295.99v75.001H0z"/></clipPath></defs><g fill="#0A66C2" clip-path="url(#a)"><path d="M0 11.09v52.82h32.99V53.23H11.57V11.09H0zm43.67-.78a6.45 6.45 0 1 1-6.45 6.48 6.45 6.45 0 0 1 6.45-6.44M38.1 28.1h11.12v35.79H38.1V28.1zm57.6-17.01h11.12v31.57l12.59-14.57h13.63l-14.58 16.57 14.28 19.25h-13.98l-11.79-17.69h-.15v17.69H95.7V11.09z"/><path d="M55.38 28.1h10.67V33h.15a11.663 11.663 0 0 1 10.52-5.78c11.27 0 13.35 7.41 13.35 17v19.67H78.95v-17.4c0-4.15-.08-9.49-5.79-9.49s-6.66 4.52-6.66 9.19v17.7H55.38V28.1zm110.49 29.59a19.557 19.557 0 0 1-15.2 7.1c-11.12 0-20-7.41-20-18.9 0-11.49 8.89-18.9 20-18.9 10.38 0 16.9 7.41 16.9 18.9v3.5h-25.79a8.289 8.289 0 0 0 8.37 7c3.63 0 6.08-1.85 7.93-4.37l7.79 5.67zm-9.42-15.9a6.649 6.649 0 0 0-6.82-6.82c-4.89 0-7.56 3.34-7.85 6.82h14.67zm53.42 22.1h-10.24v-4.75h-.14a13.997 13.997 0 0 1-11.05 5.65c-10.68 0-17.72-7.7-17.72-18.6 0-10 6.23-19.2 16.45-19.2 4.6 0 8.9 1.26 11.42 4.74h.15V11.09h11.13v52.8zm-19.14-27.1c-5.56 0-8.89 3.71-8.89 9.12 0 5.41 3.33 9.12 8.89 9.12 5.56 0 8.9-3.7 8.9-9.12 0-5.42-3.33-9.12-8.9-9.12zm94.14 27.12h-11.09V46.5c0-4.15-.08-9.49-5.78-9.49s-6.68 4.52-6.68 9.19v17.71H250.2v-35.8h10.67v4.9h.14a11.703 11.703 0 0 1 10.53-5.79c11.26 0 13.34 7.42 13.34 17.05l-.01 19.64zm-47.2-40.69a6.449 6.449 0 0 1-4.554-11.017 6.45 6.45 0 0 1 11.004 4.587 6.45 6.45 0 0 1-6.45 6.45m5.56 40.69H232.1V28.11h11.13v35.82zM290.43.02h-63.91a5.47 5.47 0 0 0-5.53 5.4v64.17a5.48 5.48 0 0 0 5.53 5.41h63.91a5.5 5.5 0 0 0 5.56-5.41V5.4a5.49 5.49 0 0 0-5.56-5.4"/></g></svg>