<svg xmlns="http://www.w3.org/2000/svg" role="img" viewBox="-1.50 38.25 403.00 168.25"><defs><clipPath id="a"><path d="M297 782.84l2574-.043.01 398.159-2574 .044z"/></clipPath></defs><path fill="none" d="M0 0h400v245H0z" pointer-events="none"/><g clip-path="url(#a)" transform="matrix(.71324 0 0 -.71324 113.917 245)"><path fill="#0b8bb3" d="M117.019 326.912s12.063-64.528-2.124-189.263c35.67 2.118 73.247 1.657 83.996-8.248 0 0-13.67 132.177-84.25 214.102 0 0 1.489-5.977 2.378-16.594z"/><path fill="#0b8bb3" d="M197.031 124.963s-23.604 20.516-155.565.088c0 0 69.058 5.878 105.677 4.053 30.608-1.527 47.111-7.298 49.548-15.364 0 0 7.23 6.19.34 11.223"/><path fill="#9acce8" d="M116.602 285.643l.005.89-.436-.852c-4.645-40.114-22.57-97.685-74.79-156.325 0 0 32.008 5.479 66.874 7.867 1.91 13.168 10.35 76.272 8.347 148.42"/><path fill="#0b8bb3" d="M30.2 56.928l-8.065 21.817L14.8 56.928zM1.692 35.294l20.17 58.117h.731l22-58.117h-6.6L31.67 51.98H13.52L8.017 35.294zm48.172 57.107h5.042l14.118-27.956 14.39 28.05h4.855v-57.2H82.22v43.082L69.847 55.371h-2.475l-11.55 22.731V35.294h-5.958zm49.042-57.107V92.4h7.424c0-.426-.136-.914-.412-1.464a3.66 3.66 0 0 1-.412-1.65V35.294zm17.233 57.107h7.06c.06-.062.09-.15.09-.274 0-.184-.075-.428-.23-.73-.15-.31-.257-.705-.318-1.196V67.926h22.366v24.475h7.054c.064-.062.092-.15.092-.274 0-.245-.092-.504-.27-.778a2.368 2.368 0 0 1-.367-.962V35.205h-6.603v27.407H122.74V35.294h-6.602zm68.979-35.473l-8.068 21.817-7.33-21.817zM156.61 35.294l20.167 58.117h.736l21.996-58.117h-6.6l-6.323 16.686h-18.153l-5.497-16.686zm47.162 0V92.4h6.235l24.013-42.347v42.44h6.786c0-.367-.11-.764-.322-1.192a2.797 2.797 0 0 1-.32-1.282V35.294h-5.04l-25.21 44.915V35.294z"/></g><g clip-path="url(#a)" transform="matrix(.71324 0 0 -.71324 113.917 245)"><path fill="#0b8bb3" d="M117.019 326.912s12.063-64.528-2.124-189.263c35.67 2.118 73.247 1.657 83.996-8.248 0 0-13.67 132.177-84.25 214.102 0 0 1.489-5.977 2.378-16.594z"/><path fill="#0b8bb3" d="M197.031 124.963s-23.604 20.516-155.565.088c0 0 69.058 5.878 105.677 4.053 30.608-1.527 47.111-7.298 49.548-15.364 0 0 7.23 6.19.34 11.223"/><path fill="#9acce8" d="M116.602 285.643l.005.89-.436-.852c-4.645-40.114-22.57-97.685-74.79-156.325 0 0 32.008 5.479 66.874 7.867 1.91 13.168 10.35 76.272 8.347 148.42"/><path fill="#0b8bb3" d="M30.2 56.928l-8.065 21.817L14.8 56.928zM1.692 35.294l20.17 58.117h.731l22-58.117h-6.6L31.67 51.98H13.52L8.017 35.294zm48.172 57.107h5.042l14.118-27.956 14.39 28.05h4.855v-57.2H82.22v43.082L69.847 55.371h-2.475l-11.55 22.731V35.294h-5.958zm49.042-57.107V92.4h7.424c0-.426-.136-.914-.412-1.464a3.66 3.66 0 0 1-.412-1.65V35.294zm17.233 57.107h7.06c.06-.062.09-.15.09-.274 0-.184-.075-.428-.23-.73-.15-.31-.257-.705-.318-1.196V67.926h22.366v24.475h7.054c.064-.062.092-.15.092-.274 0-.245-.092-.504-.27-.778a2.368 2.368 0 0 1-.367-.962V35.205h-6.603v27.407H122.74V35.294h-6.602zm68.979-35.473l-8.068 21.817-7.33-21.817zM156.61 35.294l20.167 58.117h.736l21.996-58.117h-6.6l-6.323 16.686h-18.153l-5.497-16.686zm47.162 0V92.4h6.235l24.013-42.347v42.44h6.786c0-.367-.11-.764-.322-1.192a2.797 2.797 0 0 1-.32-1.282V35.294h-5.04l-25.21 44.915V35.294z"/></g><g clip-path="url(#a)" transform="matrix(.41157 0 0 -.41157 26.751 245)"><path fill="#808184" fill-rule="evenodd" d="M300.764 305.537c0 12.702-6.938 21.309-18.91 21.309H269.45v-42.41h13.373c11.435 0 17.94 8.506 17.94 21.1m20.168.21c0-21.937-14.92-36.844-39.401-36.844h-31.82v73.586h32.573c23.946 0 38.648-14.907 38.648-36.742m61.406 36.741l-.108-15.326h-36.672v-16.374h33.866v-15.326h-33.866v-26.558h-19.738v73.584zm22.613-36.845c0-11.967 9.598-21.204 20.815-21.204 11.327 0 20.386 9.237 20.386 21.204s-9.059 20.994-20.386 20.994c-11.323 0-20.815-9.027-20.815-20.994m61.477.104c0-21.518-17.47-37.683-40.876-37.683-23.405 0-40.877 16.165-40.877 37.683 0 21.416 17.472 37.266 40.877 37.266 23.406 0 40.876-15.956 40.876-37.266m24.622 36.741v-57.209h32.034v-16.375h-51.771v73.584zm86.718-73.584l-19.631 28.447-9.707-10.497v-17.95h-19.74v73.583h19.74v-30.86l28.366 30.86h22.866l-28.042-30.44 29.768-43.143z"/><path fill="#808184" fill-rule="evenodd" d="M633.85 327.686c-4.746 0-7.874-1.678-7.874-5.038 0-12.177 39.799-5.248 39.799-31.7 0-15.012-13.59-22.675-30.417-22.675-9.101 0-19.132 2.683-27.054 6.708-3.061 1.558-5.257 3.03-7.784 5.049l7.659 15.01c7.766-6.508 19.522-11.126 27.397-11.126 5.824 0 9.49 2.099 9.49 5.983 0 12.49-39.798 4.934-39.798 30.966 0 13.752 11.97 22.465 30.198 22.465 11.109 0 22.326-3.36 30.199-8.294l-7.442-15.221c-7.98 4.41-18.12 7.873-24.373 7.873m53.709-50.49c0-5.354-3.881-9.133-9.274-9.133-5.393 0-9.167 3.779-9.167 9.133 0 5.354 3.774 9.027 9.167 9.027s9.274-3.673 9.274-9.027"/><path fill="#119981" fill-rule="evenodd" d="M222.448 288.783v11.536h-17.926c-6.965 0-10.445-2.44-10.445-7.59 0-5.013 3.759-8.27 10.166-8.27 8.743 0 12.502-1.227 18.205 4.324m-41.673 49.372c9.574 3.588 19.62 5.26 29.872 5.26 20.748 0 32.865-9.758 33.003-26.564v-47.705h-21.202s-16.671-.243-26.837-.243c-9.693 0-23.205 8.648-23.205 22.064 0 13.96 8.583 21.954 27.242 22.227h22.8v.81c0 9.624-8.04 10.98-17.51 10.98-6.264 0-16.065-2.034-24.14-5.828z"/><path fill="#808184" d="M155.316 339.323h6.321v-1.181h-2.482v-6.628h-1.367v6.628h-2.472zm8.301 0h1.925l2.155-6.113h.022l2.1 6.113h1.902v-7.809h-1.3v6.026h-.023l-2.166-6.026h-1.126l-2.165 6.026h-.022v-6.026h-1.302z"/></g><path d="M163.13 92.587l10.087-2.435v48.696c0 5.391 1.566 8.522 4.696 9.565-1.565 2.957-4.174 4.522-8 4.522-4.522 0-6.956-3.13-6.956-9.565V92.587zm25.392 59.478v-35.13h-5.565v-8.348h15.826v43.478h-10.261zm5.217-60.174c1.565 0 2.957.522 4.174 1.74s1.74 2.608 1.74 4.173c0 1.566-.523 2.957-1.74 4.174s-2.609 1.74-4.174 1.74c-1.565 0-2.956-.522-4.174-1.74s-1.739-2.608-1.739-4.174c0-1.565.522-2.956 1.74-4.174s2.608-1.739 4.173-1.739zm44.696 60.174v-25.043c0-3.652-.696-6.435-2.087-8-1.391-1.74-3.652-2.609-6.957-2.609a9.47 9.47 0 0 0-4.695 1.217 12.342 12.342 0 0 0-4 3.13v31.305h-10.087v-43.304h7.304l1.913 4c2.783-3.304 6.783-4.87 12.174-4.87 5.217 0 9.217 1.566 12.174 4.696 2.956 3.13 4.522 7.478 4.522 12.87v26.608h-10.261zm18.087-21.739c0-6.609 1.913-12 5.739-16.174 3.826-4.174 8.87-6.26 15.13-6.26 6.609 0 11.653 1.912 15.305 5.912 3.652 4 5.391 9.392 5.391 16.348s-1.913 12.348-5.565 16.522c-3.652 4-8.696 6.087-15.305 6.087-6.608 0-11.652-2.087-15.304-6.087-3.478-4.174-5.391-9.565-5.391-16.348zm10.608 0c0 9.565 3.479 14.261 10.261 14.261 3.13 0 5.566-1.217 7.479-3.652 1.913-2.435 2.782-6.087 2.782-10.609 0-9.391-3.478-14.087-10.26-14.087-3.131 0-5.74 1.218-7.479 3.652-1.913 2.435-2.783 5.913-2.783 10.435zm66.957 21.74v-2.61c-.87.87-2.26 1.74-4.174 2.435-1.913.696-4 1.044-6.26 1.044-6.088 0-10.783-1.913-14.262-5.74-3.478-3.825-5.217-9.217-5.217-16 0-6.782 1.913-12.347 5.913-16.695s8.87-6.435 14.957-6.435c3.304 0 6.26.696 9.043 2.087V92.761l10.087-2.435v61.74h-10.087zm0-33.044c-2.087-1.74-4.348-2.609-6.783-2.609-4 0-7.13 1.217-9.39 3.652-2.262 2.435-3.305 6.087-3.305 10.609 0 9.043 4.348 13.565 13.043 13.565 1.044 0 2.087-.348 3.652-.87 1.392-.521 2.261-1.217 2.783-1.739v-22.608zm58.957 14.435h-30.957c.174 3.478 1.391 6.086 3.478 8 2.261 1.913 5.044 2.956 8.87 2.956 4.522 0 8.174-1.217 10.435-3.652l4 7.652c-3.479 2.957-8.87 4.348-16 4.348-6.61 0-11.826-1.913-15.653-5.74-3.826-3.825-5.739-9.217-5.739-16.173 0-6.783 2.087-12.348 6.261-16.522 4.174-4.174 9.218-6.26 15.13-6.26 6.261 0 11.305 1.912 15.131 5.564 3.826 3.827 5.74 8.522 5.74 14.261.173 1.218-.175 2.957-.696 5.566zm-30.61-7.653h21.218c-.695-6.26-4.174-9.565-10.435-9.565-5.739.174-9.39 3.304-10.782 9.565z"/><path fill="#004712" d="M114.609 126.674l-1.74 20-5.739-4 .696-10.087v-.348l-.174-.174-.174-.174-12.348-8.174.174-8.87 19.305 11.827zm-30.261 21.739l-8.87-6.783v1.566c0 .347-.174.695-.348.87l-6.608 4.521 7.304 5.913.174.174v.348l.348 6.956 8.174 6.783-.174-20.348zm-55.826 8.696l4.174 20 17.217 18.26-2.956-20.173-18.435-18.087zm16.174 2.956l-4.174-28-20.87-17.391 5.565 27.13 19.479 18.261zm-6.609-45.217l-5.74-39.652-24-14.957 7.827 37.391 21.913 17.218z"/><path fill="#00B259" d="M131.652 115.891l-2.609 18.957-14.26 11.478 1.739-19.478 15.13-10.957zm-45.391 32.522l.174 20.522 18.26-14.609 1.218-20-19.652 14.087zm-11.826 8.348l-25.74 18.435 3.131 21.217 23.304-18.609-.695-21.043zm-.696-13.913l-1.217-27.826-30.087 17.217 4.174 28.87 27.13-18.261zm-1.913-44l-1.565-37.565-36.174 13.913L40 115.543l31.826-16.695z"/><path d="M133.74 113.804c0-.174 0-.174 0 0v-.347s0-.174-.175-.174c0 0-.174 0-.174-.174l-20.87-11.652c-.347-.174-.695-.174-.869 0l-17.739 10.782h-.174v1.044l-.174 9.39-7.13-4.695a1.109 1.109 0 0 0-1.044 0l-10.608 5.913-.522-10.434v-.87h-.174l-10.783-7.13 10.087-5.218a.956.956 0 0 0 .522-.87L72 59.892v-.174s0-.174-.174-.174c0 0 0-.173-.174-.173L44.348 46.152c-.174-.174-.348-.174-.522-.174L6.783 57.457s-.174 0-.174.173c0 0-.174 0-.174.174v1.044l8.174 39.826c0 .174.174.348.348.522l11.13 8.695-8.174 3.826s-.174 0-.174.174c0 0 0 .174-.174.174v.348l6.261 29.913c0 .174.174.348.348.522L32 150.152l-5.217 3.13-.174.175s0 .173-.174.173v.522l4.87 23.13c0 .175.173.348.173.522l18.957 20.87h.174s.174 0 .174.174h.87l25.043-20c.174-.174.347-.522.347-.696l-.521-13.739 8.348 6.957s.173 0 .173.173h.87l20.174-16c.174-.173.348-.347.348-.695l.695-10.087 6.087 4.174h.696s.174 0 .174-.174l16.348-13.044c.174-.174.348-.347.348-.521l2.956-21.392c0 .174 0 .174 0 0zm-18.957 32.522l1.739-19.478 15.304-10.957-2.609 18.957-14.434 11.478zm-7.653-3.652l.696-10.087v-.348l-.174-.174-.174-.174-12.348-8.174.174-8.87 19.305 12-1.74 20-5.739-4.173zm-2.608 11.652L86.26 168.935l-.174-20.522 19.652-14.087-1.217 20zm-29.218 23.478l-23.478 18.609-3.13-21.217 25.565-18.261 1.043 20.87zm-42.782-.695l-4.174-20 18.609 18.087 2.956 20.174-17.391-18.261zm-.348-101.913l5.739 39.652-21.74-17.218-7.825-37.39 23.826 14.956zM70.26 61.283l1.565 37.565L40 115.543l-5.913-40.347 36.174-13.913zm3.478 81.565l-27.13 18.087-4.174-28.87 30.087-17.217 1.217 28zm-33.217-10.609l4.174 28-19.479-18.435-5.565-27.13 20.87 17.565zm35.652 22.783v-.348L76 154.5l-7.304-5.913 6.608-4.522c.348-.174.348-.522.348-.87v-1.565l8.87 6.783.174 20.522-8.174-6.783-.348-7.13z"/></svg>