<svg xmlns="http://www.w3.org/2000/svg" role="img" viewBox="-10.13 -10.13 526.76 151.26"><title>Linode (member) logo</title><path fill="#231f20" d="M109.65 58.21L91.44 48.14l-15.37 9.38-.19 9.59-7.47-4.92-10.16 6.19-.44-10.48-10.48-7 10-5.17c-.08 0 0 1-1.48-34.34L32.2 0 0 10l7.19 34.63L18 53l-8.22 3.9L15.15 83l7.55 7.09-5.4 3.29 4.19 20.18 16.94 17.94c.08-.1 1.78-1.41 21.79-17.32l-.58-13.71 8.58 7.28c.12-.12 1.84-1.39 17.56-13.89l.61-10.14 6.48 4.5c.13-.12 1.58-1.22 14.26-11.33z"/><path d="M94.54 69l15.11-10.79-18.21-10.07-15.37 9.38z"/><path fill="#004b16" d="M92.87 88.2L94.54 69 76.07 57.52l-.38 18.75zm-24.65 19.53V87.84L49.56 73.69l1.47 19.54z"/><path d="M68.22 87.84l18.74-13.43-18.55-12.22-18.85 11.5z"/><path fill="#004b16" d="M38.43 131.48l-2.98-20.32-18.15-17.8 4.19 20.18z"/><path d="M35.45 111.16L59.36 94.1 40.83 79.01 17.3 93.36z"/><path fill="#004b16" d="M33.9 100.6l-3.94-26.88L9.74 56.91l5.41 26.07z"/><path d="M29.96 73.72L57.81 57.9l-20.8-13.94L9.74 56.91z"/><path fill="#004b16" d="M28.07 60.88l-5.4-36.81L0 10.01l7.19 34.62z"/><path d="M22.67 24.07l33.14-12.7L32.2 0 0 10.01z"/><path d="M107.13 76.87C93.11 88 92.8 88.2 92.87 88.2 94.61 68.1 94.46 69 94.54 69c16-11.45 15-10.79 15.11-10.79zM85.78 93.84c-17.35 13.8-17.63 13.89-17.56 13.89-.17-20.82-.07-19.89 0-19.89 20-14.3 18.67-13.43 18.74-13.43zm-25.56 20.32c-21.66 17.22-21.86 17.32-21.79 17.32-3.07-20.94-3-20.32-3-20.32C60.9 93 59.29 94.1 59.36 94.1zM55.81 11.37c1.52 35.37 1.4 34.34 1.48 34.34C28.63 60.6 28 60.88 28.07 60.88c-5.52-37.63-5.47-36.81-5.4-36.81zm2 46.53c1.15 26.81 1 25.88 1.11 25.88-24.81 16.67-25.09 16.82-25 16.82-4-27.58-4-26.88-3.94-26.88z" fill="#1cb35c"/><path d="M151.61 14.24l16.58-4v79.88q0 13.13 7.83 15.65-3.84 7.31-13.13 7.3-11.28 0-11.28-15.66zm35.05 97.48V54.3h-9.08V40.7h25.86v71zm8.56-98.54a9.62 9.62 0 1 1-9.62 9.62 9.63 9.63 0 0 1 9.62-9.62zm67.72 98.56V70.68c0-6.05-1.16-10.48-3.48-13.26s-6.11-4.18-11.37-4.18a17.74 17.74 0 0 0-7.8 2.06 18 18 0 0 0-6.46 5.1v51.34h-16.59v-71h11.94l3 6.64q6.76-8 20-8 12.66 0 20 7.59t7.33 21.19v43.58zm25.48-35.68q0-16.26 9.38-26.47t24.77-10.21q16.19 0 25.14 9.82t9 26.86q0 17-9.12 27t-25 10q-16.18 0-25.17-10.12t-9-26.88zm17.24 0q0 23.47 16.91 23.48a14.54 14.54 0 0 0 12.31-6.11q4.55-6.09 4.54-17.37 0-23.14-16.85-23.15A14.61 14.61 0 0 0 310.24 59q-4.58 6.11-4.58 17.06zm106.71 35.68v-4.31c-1.37 1.5-3.71 2.82-7 3.95a31.33 31.33 0 0 1-10.15 1.69q-14.87 0-23.38-9.42t-8.52-26.27q0-16.84 9.78-27.42a32 32 0 0 1 24.51-10.58 32.37 32.37 0 0 1 14.72 3.32V14.24l16.58-4v101.5zm0-54.06a17.6 17.6 0 0 0-11.07-4.24q-10 0-15.33 6.07t-5.37 17.41q0 22.15 21.36 22.15a16.11 16.11 0 0 0 5.87-1.42c2.32-1 3.83-1.92 4.54-2.89zm93.18 23.62h-50.74q.46 8.49 5.83 13.2t14.46 4.7q11.34 0 17.25-5.9l6.43 12.7q-8.75 7.09-26.13 7.1-16.25 0-25.7-9.52T437.5 77q0-16.78 10.38-27.2a33.91 33.91 0 0 1 24.9-10.41q15.45 0 24.81 9.22t9.35 23.48a46.28 46.28 0 0 1-1.39 9.21zM455.4 68.83h34.89q-1.73-15.58-17.24-15.59-14.2 0-17.65 15.59z"/></svg>