<svg xmlns="http://www.w3.org/2000/svg" role="img" viewBox="-1.92 -1.92 99.71 26.71"><title>LinuxKit logo</title><path fill="#000" d="M37 16h-6v3h9V4h-3v12zM57 0h39v23H57V0zm4 4v14.996h3.381v-4.025l1.748-2.3 3.657 6.325h3.703L68.13 9.98 72.661 4h-3.726l-4.462 6.141h-.092V4H61zm14.122 0v14.996h3.381V4h-3.381zm9.844 2.852v12.144h3.404V6.852h4.117V4H80.849v2.852h4.117zM0 4h3v15H0V4zm9 0h3v3H9V4zm0 5h3v10H9V9zm-6 7h4v3H3v-3zM14 4h12v3H14V4zm9 3h3v12h-3V7zm-9 0h3v12h-3V7zm14-3h3v15h-3V4zm14 0h3v6h-3V4zm3 6h6v3h-6v-3zm6-6h3v6h-3V4zm0 9h3v6h-3v-6zm-9 0h3v6h-3v-6z" fill-rule="evenodd"/></svg>