<svg xmlns="http://www.w3.org/2000/svg" role="img" viewBox="30.92 26.29 88.04 101.79"><g data-name="Layer 2"><path fill="#00bfb3" d="M80 68.28h22v24H80z"/><path fill="#fec514" d="M50 28.28h-2v40h26v-16a24 24 0 0 0-24-24z"/><path fill="#343741" d="M48 68.28a24 24 0 0 0 24 24h2v-24zM35.43 121h-2.49v-16.5h2.49zm13.99-5.87a6.37 6.37 0 0 1-1.48 4.49 5.27 5.27 0 0 1-4.11 1.62 5.63 5.63 0 0 1-2.91-.75 4.84 4.84 0 0 1-1.92-2.13 7.31 7.31 0 0 1-.68-3.23 6.36 6.36 0 0 1 1.47-4.46 5.29 5.29 0 0 1 4.13-1.6 5.14 5.14 0 0 1 4 1.64 6.34 6.34 0 0 1 1.5 4.42zm-8.55 0q0 4.07 3 4.07t3-4.07q0-4-3-4a2.53 2.53 0 0 0-2.27 1 5.29 5.29 0 0 0-.73 3zm21.34-5.85v1.37l-2 .37a3.37 3.37 0 0 1 .46.91 3.69 3.69 0 0 1 .18 1.15 3.52 3.52 0 0 1-1.26 2.86 5.24 5.24 0 0 1-3.45 1 5.38 5.38 0 0 1-1-.09 1.41 1.41 0 0 0-.8 1.17.66.66 0 0 0 .37.61 3.37 3.37 0 0 0 1.39.2h2a4.57 4.57 0 0 1 3 .83 2.92 2.92 0 0 1 1 2.39 3.47 3.47 0 0 1-1.65 3.08 8.65 8.65 0 0 1-4.75 1.08 6.55 6.55 0 0 1-3.7-.81 2.74 2.74 0 0 1-1.25-2.4 2.6 2.6 0 0 1 .68-1.82 3.71 3.71 0 0 1 1.92-1 1.86 1.86 0 0 1-.82-.68 1.73 1.73 0 0 1-.33-1 1.76 1.76 0 0 1 .37-1.12 4.49 4.49 0 0 1 1.11-.9 3.26 3.26 0 0 1-1.48-1.28 3.77 3.77 0 0 1-.57-2.08 3.73 3.73 0 0 1 1.2-3 5.09 5.09 0 0 1 3.44-1.05 7.82 7.82 0 0 1 1 .07 5.61 5.61 0 0 1 .82.14zM53 122.85a1.39 1.39 0 0 0 .73 1.25 4 4 0 0 0 2 .43 6.2 6.2 0 0 0 3-.58 1.77 1.77 0 0 0 1-1.55 1.17 1.17 0 0 0-.55-1.09 4.34 4.34 0 0 0-2-.33h-1.87a2.63 2.63 0 0 0-1.7.51 1.64 1.64 0 0 0-.61 1.36zm1.07-9.77a2.36 2.36 0 0 0 .57 1.7 2.14 2.14 0 0 0 1.63.6c1.44 0 2.17-.78 2.17-2.32a2.64 2.64 0 0 0-.54-1.77 2.05 2.05 0 0 0-1.63-.62 2.1 2.1 0 0 0-1.64.62 2.59 2.59 0 0 0-.58 1.79zm18.21 4.6a3.06 3.06 0 0 1-1.28 2.64 6 6 0 0 1-3.59.92 8.56 8.56 0 0 1-3.77-.71v-2.16a9.24 9.24 0 0 0 3.86 1c1.53 0 2.3-.47 2.3-1.39a1.11 1.11 0 0 0-.25-.75 2.94 2.94 0 0 0-.84-.61 12.92 12.92 0 0 0-1.63-.73 7.38 7.38 0 0 1-2.74-1.57 2.89 2.89 0 0 1-.72-2 2.69 2.69 0 0 1 1.22-2.34 5.73 5.73 0 0 1 3.31-.83 9.32 9.32 0 0 1 3.91.84l-.8 1.88a8.66 8.66 0 0 0-3.2-.79c-1.32 0-2 .38-2 1.13a1.13 1.13 0 0 0 .51.93 10.54 10.54 0 0 0 2.25 1 10.59 10.59 0 0 1 2.11 1 2.87 2.87 0 0 1 1.3 2.54zm7.07 1.54a6.13 6.13 0 0 0 1.83-.29v1.88a5.83 5.83 0 0 1-1.07.31 7.56 7.56 0 0 1-1.36.12q-3.54 0-3.54-3.74v-6.33H73.6v-1.1l1.72-.92.85-2.48h1.54v2.61h3.35v1.89h-3.35v6.29a1.77 1.77 0 0 0 .45 1.33 1.66 1.66 0 0 0 1.19.43zM90.87 121l-.5-1.64h-.08a4.84 4.84 0 0 1-1.71 1.46 5.37 5.37 0 0 1-2.21.39 3.7 3.7 0 0 1-2.7-.94 3.48 3.48 0 0 1-1-2.64 3.1 3.1 0 0 1 1.33-2.71 7.77 7.77 0 0 1 4.11-1l2-.06v-.63a2.37 2.37 0 0 0-.52-1.68A2.12 2.12 0 0 0 88 111a5.79 5.79 0 0 0-1.73.26 13.31 13.31 0 0 0-1.6.63l-.81-1.78a8.32 8.32 0 0 1 2.1-.76 9.18 9.18 0 0 1 2.14-.26 5.12 5.12 0 0 1 3.39 1 3.85 3.85 0 0 1 1.14 3.07V121zm-3.71-1.7a3.13 3.13 0 0 0 2.18-.76 2.76 2.76 0 0 0 .82-2.13v-1l-1.51.06a5.12 5.12 0 0 0-2.56.59 1.78 1.78 0 0 0-.8 1.61 1.59 1.59 0 0 0 .46 1.22 2.07 2.07 0 0 0 1.41.44zm16.84-1.62a3.08 3.08 0 0 1-1.25 2.64 6 6 0 0 1-3.59.92 8.53 8.53 0 0 1-3.77-.71v-2.16a9.2 9.2 0 0 0 3.85 1c1.54 0 2.31-.47 2.31-1.39a1.12 1.12 0 0 0-.26-.75 2.94 2.94 0 0 0-.84-.61 12.68 12.68 0 0 0-1.62-.73 7.44 7.44 0 0 1-2.75-1.57 2.93 2.93 0 0 1-.71-2 2.68 2.68 0 0 1 1.21-2.34 5.75 5.75 0 0 1 3.31-.83 9.36 9.36 0 0 1 3.92.84l-.81 1.88a8.57 8.57 0 0 0-3.19-.79c-1.32 0-2 .38-2 1.13a1.12 1.12 0 0 0 .52.93 10.64 10.64 0 0 0 2.24 1 10.73 10.73 0 0 1 2.12 1 3 3 0 0 1 1 1.08 3 3 0 0 1 .31 1.46zm13.06 3.32h-2.5v-7.2a3.16 3.16 0 0 0-.55-2 2.1 2.1 0 0 0-1.74-.67 2.77 2.77 0 0 0-2.31.94 5.18 5.18 0 0 0-.73 3.15V121h-2.5v-16.5h2.5v4.2a20.77 20.77 0 0 1-.13 2.15h.16a3.48 3.48 0 0 1 1.42-1.32 4.56 4.56 0 0 1 2.11-.46q4.27 0 4.27 4.3z"/></g></svg>