<svg xmlns="http://www.w3.org/2000/svg" role="img" viewBox="-7.47 -7.47 388.18 198.68"><defs><style>.cls-2{fill:#5f224a}</style></defs><path fill="#384745" d="M0 132.426h12.496v41.23h21.027v9.28H0zm35.546 24.544c0-18.184 9.653-25.442 23.198-25.442 13.319 0 22.972 7.258 22.972 25.442 0 20.204-9.952 26.864-22.972 26.864-13.545 0-23.198-7.259-23.198-26.864zm33.374 0c0-12.571-4.938-16.613-10.326-16.613S48.342 144.4 48.342 156.97c0 13.993 4.864 18.034 10.252 18.034s10.326-4.041 10.326-18.034zm19.606-24.544h13.394l13.246 25.068c1.122 2.17 2.618 5.985 3.816 8.98h.3c-.15-2.844-.524-6.885-.524-9.803v-24.245h10.251v50.51h-13.095l-13.768-24.994a69.661 69.661 0 0 1-3.667-8.23h-.3c.225 2.843.599 6.211.599 8.978v24.245H88.526zm69.967 24.993h20.803v25.516h-8.456v-8.53c-1.796 5.612-5.837 9.43-14.517 9.43-11.674 0-20.429-8.083-20.429-26.416s8.83-25.89 22.599-25.89c15.49 0 21.55 8.754 19.83 17.659l-11.748 1.271c.898-6.958-2.544-10.102-7.483-10.102-5.463 0-10.252 3.966-10.252 17.286s4.116 17.061 10.176 17.061c5.613 0 8.756-3.442 8.906-6.884v-1.42h-9.43zm28.287-24.993h12.496v19.08h15.34v-19.08h12.497v50.51h-12.496v-21.4h-15.34v21.4H186.78zm47.144 24.544c0-18.184 9.652-25.442 23.196-25.442 13.32 0 22.974 7.258 22.974 25.442 0 20.204-9.952 26.864-22.974 26.864-13.544 0-23.196-7.259-23.196-26.864zm33.374 0c0-12.571-4.94-16.613-10.326-16.613-5.389 0-10.252 4.042-10.252 16.613 0 13.993 4.863 18.034 10.252 18.034 5.387 0 10.326-4.041 10.326-18.034zm19.605-24.544h20.803c9.878 0 16.538 4.79 16.538 14.068a14.135 14.135 0 0 1-10.178 13.694 14.976 14.976 0 0 1 3.518 4.79c2.095 4.265 3.516 8.978 7.931 8.978a5.823 5.823 0 0 0 2.021-.374l-.973 8.905a24.468 24.468 0 0 1-5.013.674c-5.987 0-9.429-2.32-12.946-10.328-1.496-3.59-3.592-9.877-6.36-9.877H299.4v19.98h-12.497zm12.497 9.054v12.421h4.49c3.592 0 7.782-1.121 7.782-6.509 0-4.415-2.843-5.912-6.286-5.912zm33.375-9.054h13.395l13.244 25.068c1.123 2.17 2.619 5.985 3.816 8.98h.3c-.15-2.844-.524-6.885-.524-9.803v-24.245h10.251v50.51h-13.094l-13.77-24.994a69.76 69.76 0 0 1-3.665-8.23h-.3c.224 2.843.598 6.211.598 8.978v24.245h-10.251z"/><path d="M186.629 56.439a7.006 7.006 0 0 1-1.37-.136l-3.7-.738 3.184 19.588a6.947 6.947 0 0 1 .091 1.123h3.588a7 7 0 0 1 .115-1.258l3.568-19.534-4.106.82a7.006 7.006 0 0 1-1.37.135z" class="cls-2"/><path d="M240.226 0H133.032a14.435 14.435 0 0 0-14.393 14.392V96.97a14.435 14.435 0 0 0 14.393 14.392h107.194a14.435 14.435 0 0 0 14.392-14.392V14.392A14.435 14.435 0 0 0 240.226 0zm2.418 29.107l-1.751 11.9a7 7 0 0 1-5.555 5.845l-28.467 5.684c-.005.028-.006.056-.011.085l-4.457 24.395a14.019 14.019 0 0 1-13.98 13.26h-3.589a14.018 14.018 0 0 1-13.985-13.34L166.9 52.638l-28.98-5.786a7 7 0 0 1-5.556-5.845l-1.75-11.9a7 7 0 0 1 13.85-2.039l1.033 7.02 41.132 8.213 41.131-8.212 1.033-7.02a7 7 0 0 1 13.851 2.038z" class="cls-2"/></svg>