<?xml version="1.0" encoding="UTF-8" standalone="yes"?>
<svg version="1.1" id="Layer_1" xmlns="http://www.w3.org/2000/svg" xmlns:xlink="http://www.w3.org/1999/xlink" x="0px" y="0px" viewBox="14.360000000000014 -1.9599999999999795 293.28000000000003 465.92" style="enable-background:new 0 0 324 465;" xml:space="preserve">
  <style type="text/css">
	.st0{fill:none;}
	.st1{fill:#ED262A;}
	.st2{fill:#868689;}
	.st3{fill:#0071C4;}
	.st4{fill:#0171C4;}
	.st5{fill:#008E74;}
	.st6{fill:#003C17;}
	.st7{fill:#78A372;}
	.st8{fill:#BAB96E;}
	.st9{fill:#309B85;}
	.st10{fill:#0171C3;}
	.st11{fill:#84AA7B;}
	.st12{fill:#13512B;}
	.st13{fill:#0E4F29;}
	.st14{fill:#106643;}
	.st15{fill:#165F38;}
	.st16{fill:#0A5834;}
	.st17{fill:#0B5530;}
	.st18{fill:#009245;}
	.st19{fill:#007F3A;}
	.st20{fill:none;stroke:#007F3A;stroke-width:0;stroke-linecap:round;stroke-linejoin:round;}
	.st21{fill:#007E3A;}
	.st22{fill:#459D57;}
	.st23{fill:#449D56;}
	.st24{fill:#EC4036;}
	.st25{fill:#FBFCFB;}
	.st26{fill:#FCFCFC;}
	.st27{fill:#FBFBFB;}
	.st28{fill:#003F18;}
	.st29{fill:#2E944D;}
	.st30{fill:#318F4B;}
	.st31{fill:#318D4A;}
	.st32{fill:#9BA662;}
	.st33{fill:#287842;}
	.st34{fill:#468251;}
	.st35{fill:#2B8A48;}
	.st36{fill:#003E18;}
	.st37{fill:#014019;}
	.st38{fill:#003F19;}
	.st39{fill:#005325;}
	.st40{fill:#005426;}
	.st41{fill:#005122;}
	.st42{fill:#005222;}
	.st43{fill:#003D17;}
	.st44{fill:#005323;}
	.st45{fill:#005B26;}
	.st46{fill:#1E93D3;}
	.st47{fill:#1E94D3;}
	.st48{fill:#2094D4;}
	.st49{fill:#2095D4;}
	.st50{fill:#2E9BD6;}
	.st51{fill:#2295D4;}
	.st52{fill:#2195D4;}
	.st53{fill:#2496D4;}
	.st54{fill:#39ACE2;}
	.st55{fill:#8C8D91;}
	.st56{fill:#C5222B;}
	.st57{fill:#C62129;}
	.st58{fill:#A0191D;}
	.st59{fill:#9B1B1C;}
	.st60{fill:#88888A;}
	.st61{fill:#303030;}
</style>
  <g>
    <path class="st0" d="M162.3,331.6c-8.7-0.1-14.8,3.7-18.6,11.3c-2.5,5-3.3,10.4-3.1,16c-0.2,5.7,0.7,11.3,3.5,16.4&#xA;&#x9;&#x9;c4,7.3,10.1,10.7,18.5,10.5c8.1-0.2,13.9-3.9,17.2-10.9c5-10.4,5-21.2,0.3-31.7C176.8,335.8,170.9,331.8,162.3,331.6z"/>
    <path class="st0" d="M69.1,340.4c-6.7,11.8-6.8,24.2-0.3,36.2c6.8,12.6,26.4,12,33.4,1c3.6-5.8,5-12,4.8-18.8&#xA;&#x9;&#x9;c0.2-6.6-1.1-12.8-4.7-18.6C95.3,328.8,76,328.4,69.1,340.4z"/>
    <path class="st61" d="M66.1,330c-7.7,6.8-10.8,15.6-11.5,25.7c-1.2,18,6.4,36.3,24.7,38.5c4.3,0.5,8.6,0.7,12.9,0&#xA;&#x9;&#x9;c6.4-1,12.2-4.4,16.2-9.8c10.6-14.1,11.3-29.4,4.1-44.9C103.5,320.1,78.8,318.8,66.1,330z M107,358.8c0.2,6.8-1.2,13-4.8,18.8&#xA;&#x9;&#x9;c-7,11.1-26.6,11.6-33.4-1c-6.5-12-6.4-24.4,0.3-36.2c6.8-12,26.2-11.6,33.2-0.2C105.9,345.9,107.2,352.2,107,358.8z"/>
    <path class="st61" d="M139.4,332.7c-13.3,14.8-14.5,57.7,16,61.4c4.3,0.5,8.6,0.6,12.9,0c6.7-0.9,12.4-4.8,16.7-10.2&#xA;&#x9;&#x9;c10.3-12.7,10.9-34.7,1.7-48.3C175.8,319.5,151.3,319.4,139.4,332.7z M179.8,375c-3.3,7-9.2,10.7-17.2,10.9&#xA;&#x9;&#x9;c-8.4,0.2-14.5-3.2-18.5-10.5c-2.8-5.1-3.7-10.7-3.5-16.4c-0.2-5.6,0.6-11,3.1-16c3.9-7.6,9.9-11.4,18.6-11.3&#xA;&#x9;&#x9;c8.5,0.1,14.4,4.1,17.8,11.6C184.8,353.7,184.8,364.6,179.8,375z"/>
    <path class="st61" d="M300.4,344.4c-1.1-12.8-7.9-20-20.1-21.1c-8.6-0.8-16.7,0.8-24,5.5c-1.7,1.1-2.8,1.4-4.4-0.2&#xA;&#x9;&#x9;c-2.7-2.7-6.2-4.1-10-4.8c-9-1.5-18-0.5-26.8,1.6c-5.2,1.2-6.2,2.4-6.2,7.7c0,8.7,0,17.4,0,26.1c0,8.6,0,17.2,0,25.8&#xA;&#x9;&#x9;c0,1.4,0.1,2.8,0.3,4.2c0.5,2.4,2.1,3.8,4.5,3.7c2.5,0,4-1.5,4.5-3.9c0.3-1.5,0.3-3,0.3-4.5c0-15.9,0.1-31.8,0-47.6&#xA;&#x9;&#x9;c0-2.9,1.1-4,3.8-4.3c4.3-0.6,8.5-0.8,12.8-0.7c8.2,0.2,12.7,3.9,14.2,12c0.9,5.1,1.1,10.2,1.2,15.4c0,9.6,0,19.1,0,28.7&#xA;&#x9;&#x9;c0,3.1,1.7,4.9,4.3,5c2.5,0.1,4.5-1.7,4.9-4.6c0.1-1.1,0.1-2.1,0.1-3.2c0-9,0-18,0-27c0-6.2-0.2-12.4-1.9-18.5&#xA;&#x9;&#x9;c-0.5-1.7,0.2-2.6,1.5-3.4c6.3-3.9,13.1-5.1,20.4-4c5.9,0.9,9.3,4.6,10.5,10.3c1,4.8,1.3,9.8,1.3,14.7c0,10.2,0,20.4,0,30.6&#xA;&#x9;&#x9;c0,3.3,1.8,5.1,4.5,5.2c2.6,0,4.7-2,4.7-5.1C300.8,373.4,301.7,358.9,300.4,344.4z"/>
    <path class="st61" d="M39.2,385.9c-5.8-1.3-6.7-5.5-6.7-10.5c0.1-12.8,0-25.5,0-38.3c0-10.2,0-20.4,0-30.6c0-3.6,0.1-7.3-0.1-10.9&#xA;&#x9;&#x9;c-0.1-2.5-1.5-3.9-4.1-4c-2.7-0.1-4.6,1-5.1,3.8c-0.1,0.6-0.1,1.3-0.1,1.9c0,26.6,0,53.2,0,79.8c0,2,0.3,4.1,0.7,6&#xA;&#x9;&#x9;c1.4,6.3,7.4,10.8,13.6,10.5c2.2-0.1,3.7-1.1,4.2-3.3C42.2,388.3,41.3,386.3,39.2,385.9z"/>
  </g>
  <g>
    <path class="st61" d="M133.7,417.5c-1.4-1-3.2-1.5-5.4-1.5c-0.9,0-1.8,0.1-2.6,0.3c-0.9,0.2-1.6,0.5-2.3,0.9&#xA;&#x9;&#x9;c-0.7,0.4-1.2,1-1.6,1.7c-0.4,0.7-0.6,1.6-0.6,2.6c0,1,0.3,1.8,0.9,2.4c0.6,0.6,1.4,1.1,2.3,1.5c1,0.4,2.1,0.7,3.3,1&#xA;&#x9;&#x9;c1.2,0.3,2.5,0.5,3.7,0.8c1.3,0.3,2.5,0.6,3.7,1c1.2,0.4,2.3,0.9,3.3,1.6c1,0.7,1.7,1.5,2.3,2.6c0.6,1,0.9,2.4,0.9,3.9&#xA;&#x9;&#x9;c0,1.7-0.4,3.2-1.1,4.4c-0.8,1.2-1.7,2.2-2.9,2.9c-1.2,0.8-2.5,1.3-4,1.7c-1.5,0.3-2.9,0.5-4.4,0.5c-1.8,0-3.5-0.2-5.1-0.7&#xA;&#x9;&#x9;c-1.6-0.4-3-1.1-4.2-2c-1.2-0.9-2.2-2.1-2.9-3.5c-0.7-1.4-1.1-3.1-1.1-5h4c0,1.3,0.3,2.5,0.8,3.5c0.5,1,1.2,1.8,2.1,2.4&#xA;&#x9;&#x9;c0.8,0.6,1.8,1.1,3,1.4c1.1,0.3,2.3,0.4,3.5,0.4c1,0,1.9-0.1,2.9-0.3c1-0.2,1.8-0.5,2.6-0.9c0.8-0.4,1.4-1,1.9-1.8&#xA;&#x9;&#x9;c0.5-0.7,0.7-1.7,0.7-2.9c0-1.1-0.3-2-0.9-2.7c-0.6-0.7-1.4-1.2-2.3-1.7c-1-0.4-2.1-0.8-3.3-1.1c-1.2-0.3-2.5-0.5-3.7-0.8&#xA;&#x9;&#x9;c-1.3-0.3-2.5-0.6-3.7-1c-1.2-0.4-2.3-0.9-3.3-1.5c-1-0.6-1.7-1.4-2.3-2.4c-0.6-1-0.9-2.2-0.9-3.6c0-1.6,0.3-3,1-4.2&#xA;&#x9;&#x9;c0.7-1.2,1.5-2.1,2.6-2.9c1.1-0.8,2.3-1.3,3.7-1.7c1.4-0.4,2.8-0.6,4.3-0.6c1.6,0,3.2,0.2,4.6,0.6c1.4,0.4,2.6,1,3.7,1.8&#xA;&#x9;&#x9;c1.1,0.8,1.9,1.9,2.5,3.2c0.6,1.3,0.9,2.8,1,4.5h-4C135.9,420.2,135.1,418.5,133.7,417.5z"/>
    <path class="st61" d="M156,450.9c-0.4,0.8-0.9,1.4-1.4,1.9c-0.5,0.5-1.1,0.8-1.7,1.1c-0.6,0.2-1.4,0.3-2.2,0.3&#xA;&#x9;&#x9;c-0.4,0-0.9,0-1.3-0.1c-0.4-0.1-0.9-0.2-1.3-0.3v-3.5c0.4,0.1,0.7,0.2,1.1,0.4c0.4,0.1,0.8,0.2,1.1,0.2c0.8,0,1.4-0.2,1.9-0.5&#xA;&#x9;&#x9;c0.5-0.4,0.9-0.9,1.3-1.6l1.6-3.9l-9.2-23h4.3l6.7,18.9h0.1l6.5-18.9h4l-10.1,26.1C156.9,449.2,156.5,450.2,156,450.9z"/>
    <path class="st61" d="M175.8,439.9c0.4,0.6,0.8,1,1.4,1.4c0.6,0.3,1.2,0.6,2,0.7c0.7,0.1,1.5,0.2,2.3,0.2c0.6,0,1.2,0,1.9-0.1&#xA;&#x9;&#x9;c0.7-0.1,1.3-0.3,1.8-0.5c0.6-0.2,1-0.6,1.4-1.1c0.4-0.5,0.5-1.1,0.5-1.8c0-1-0.4-1.7-1.1-2.2c-0.7-0.5-1.7-0.9-2.8-1.2&#xA;&#x9;&#x9;c-1.1-0.3-2.3-0.6-3.6-0.8c-1.3-0.3-2.5-0.6-3.6-1.1c-1.1-0.5-2-1.1-2.8-1.9c-0.7-0.8-1.1-2-1.1-3.5c0-1.2,0.3-2.2,0.8-3&#xA;&#x9;&#x9;c0.5-0.8,1.2-1.5,2-2c0.8-0.5,1.7-0.9,2.8-1.2c1-0.3,2-0.4,3.1-0.4c1.3,0,2.5,0.1,3.6,0.3c1.1,0.2,2.1,0.6,2.9,1.2&#xA;&#x9;&#x9;c0.8,0.6,1.5,1.3,2,2.2c0.5,0.9,0.8,2.1,0.9,3.5h-3.8c-0.1-0.7-0.3-1.4-0.6-1.9c-0.3-0.5-0.7-0.9-1.3-1.2c-0.5-0.3-1.1-0.5-1.7-0.6&#xA;&#x9;&#x9;c-0.6-0.1-1.2-0.2-1.9-0.2c-0.6,0-1.1,0-1.7,0.1c-0.6,0.1-1.1,0.2-1.6,0.5c-0.5,0.2-0.9,0.5-1.2,0.9c-0.3,0.4-0.4,0.9-0.4,1.5&#xA;&#x9;&#x9;c0,0.7,0.2,1.2,0.7,1.6c0.5,0.4,1.1,0.8,1.8,1.1c0.7,0.3,1.5,0.5,2.4,0.7c0.9,0.2,1.8,0.4,2.7,0.6c1,0.2,1.9,0.5,2.8,0.8&#xA;&#x9;&#x9;c0.9,0.3,1.7,0.7,2.4,1.2c0.7,0.5,1.3,1.1,1.7,1.9c0.4,0.7,0.6,1.7,0.6,2.8c0,1.4-0.3,2.6-0.9,3.5c-0.6,0.9-1.3,1.7-2.3,2.2&#xA;&#x9;&#x9;c-0.9,0.6-2,1-3.2,1.2c-1.2,0.2-2.3,0.3-3.5,0.3c-1.3,0-2.5-0.1-3.7-0.4c-1.2-0.3-2.2-0.7-3.1-1.3c-0.9-0.6-1.6-1.4-2.1-2.4&#xA;&#x9;&#x9;c-0.5-1-0.8-2.2-0.9-3.6h3.8C175.2,438.6,175.4,439.3,175.8,439.9z"/>
    <path class="st61" d="M207.3,421.9v3.4h-4.6v14.3c0,0.4,0,0.8,0.1,1.1c0.1,0.3,0.2,0.5,0.4,0.6c0.2,0.1,0.5,0.2,0.9,0.3&#xA;&#x9;&#x9;c0.4,0,0.9,0.1,1.5,0.1h1.7v3.4h-2.9c-1,0-1.8-0.1-2.5-0.2c-0.7-0.1-1.3-0.4-1.7-0.7c-0.4-0.4-0.8-0.9-1-1.5&#xA;&#x9;&#x9;c-0.2-0.7-0.3-1.5-0.3-2.6v-14.7H195v-3.4h3.9V415h3.8v6.9H207.3z"/>
    <path class="st61" d="M230.1,443.6c-1.7,1.3-3.9,2-6.5,2c-1.8,0-3.4-0.3-4.8-0.9c-1.4-0.6-2.5-1.4-3.4-2.5&#xA;&#x9;&#x9;c-0.9-1.1-1.6-2.4-2.1-3.8c-0.5-1.5-0.7-3.1-0.8-4.9c0-1.8,0.3-3.4,0.8-4.8c0.5-1.5,1.3-2.7,2.3-3.8c1-1.1,2.1-1.9,3.4-2.5&#xA;&#x9;&#x9;c1.3-0.6,2.8-0.9,4.4-0.9c2.1,0,3.8,0.4,5.1,1.3c1.4,0.8,2.4,1.9,3.3,3.2c0.8,1.3,1.4,2.7,1.7,4.3c0.3,1.5,0.4,3,0.4,4.4h-17.3&#xA;&#x9;&#x9;c0,1,0.1,2,0.4,2.9c0.3,0.9,0.7,1.7,1.3,2.4c0.6,0.7,1.4,1.3,2.3,1.7c0.9,0.4,2,0.6,3.3,0.6c1.6,0,2.9-0.4,4-1.1&#xA;&#x9;&#x9;c1-0.7,1.7-1.9,2-3.4h3.8C233,440.3,231.9,442.3,230.1,443.6z M229.2,428.7c-0.3-0.8-0.8-1.5-1.4-2.1c-0.6-0.6-1.3-1-2.1-1.4&#xA;&#x9;&#x9;c-0.8-0.3-1.7-0.5-2.6-0.5c-1,0-1.9,0.2-2.7,0.5c-0.8,0.3-1.5,0.8-2,1.4c-0.6,0.6-1,1.3-1.3,2.1c-0.3,0.8-0.5,1.6-0.6,2.5h13.3&#xA;&#x9;&#x9;C229.8,430.4,229.6,429.5,229.2,428.7z"/>
    <path class="st61" d="M243.6,421.9v3.4h0.1c1.7-2.6,4.2-3.9,7.5-3.9c1.4,0,2.7,0.3,3.9,0.9c1.2,0.6,2,1.6,2.5,3&#xA;&#x9;&#x9;c0.8-1.3,1.8-2.2,3.1-2.9c1.3-0.7,2.7-1,4.2-1c1.2,0,2.2,0.1,3.2,0.4c0.9,0.3,1.7,0.6,2.4,1.2c0.7,0.5,1.2,1.2,1.6,2.1&#xA;&#x9;&#x9;c0.4,0.8,0.6,1.9,0.6,3.1V445h-3.8v-15.2c0-0.7-0.1-1.4-0.2-2c-0.1-0.6-0.3-1.2-0.7-1.6c-0.3-0.5-0.8-0.8-1.4-1.1&#xA;&#x9;&#x9;c-0.6-0.3-1.3-0.4-2.3-0.4c-1.9,0-3.4,0.5-4.4,1.6c-1.1,1.1-1.6,2.5-1.6,4.3V445h-3.8v-15.2c0-0.7-0.1-1.4-0.2-2.1&#xA;&#x9;&#x9;c-0.1-0.6-0.4-1.2-0.7-1.6c-0.3-0.5-0.8-0.8-1.3-1.1s-1.3-0.4-2.1-0.4c-1.1,0-2,0.2-2.8,0.7c-0.8,0.4-1.4,1-1.9,1.6&#xA;&#x9;&#x9;c-0.5,0.6-0.8,1.3-1.1,1.9c-0.2,0.7-0.3,1.2-0.3,1.7V445H240v-23.1H243.6z"/>
    <path class="st61" d="M283.3,439.9c0.4,0.6,0.8,1,1.4,1.4c0.6,0.3,1.2,0.6,2,0.7c0.7,0.1,1.5,0.2,2.3,0.2c0.6,0,1.2,0,1.9-0.1&#xA;&#x9;&#x9;c0.7-0.1,1.3-0.3,1.8-0.5c0.6-0.2,1-0.6,1.4-1.1c0.4-0.5,0.5-1.1,0.5-1.8c0-1-0.4-1.7-1.1-2.2c-0.7-0.5-1.7-0.9-2.8-1.2&#xA;&#x9;&#x9;c-1.1-0.3-2.3-0.6-3.6-0.8c-1.3-0.3-2.5-0.6-3.6-1.1c-1.1-0.5-2-1.1-2.8-1.9c-0.7-0.8-1.1-2-1.1-3.5c0-1.2,0.3-2.2,0.8-3&#xA;&#x9;&#x9;c0.5-0.8,1.2-1.5,2-2c0.8-0.5,1.7-0.9,2.8-1.2c1-0.3,2-0.4,3.1-0.4c1.3,0,2.5,0.1,3.6,0.3c1.1,0.2,2.1,0.6,2.9,1.2&#xA;&#x9;&#x9;c0.8,0.6,1.5,1.3,2,2.2c0.5,0.9,0.8,2.1,0.9,3.5h-3.8c-0.1-0.7-0.3-1.4-0.6-1.9c-0.3-0.5-0.7-0.9-1.3-1.2c-0.5-0.3-1.1-0.5-1.7-0.6&#xA;&#x9;&#x9;c-0.6-0.1-1.2-0.2-1.9-0.2c-0.6,0-1.1,0-1.7,0.1c-0.6,0.1-1.1,0.2-1.6,0.5c-0.5,0.2-0.9,0.5-1.2,0.9c-0.3,0.4-0.4,0.9-0.4,1.5&#xA;&#x9;&#x9;c0,0.7,0.2,1.2,0.7,1.6c0.5,0.4,1.1,0.8,1.8,1.1c0.7,0.3,1.5,0.5,2.4,0.7c0.9,0.2,1.8,0.4,2.7,0.6c1,0.2,1.9,0.5,2.8,0.8&#xA;&#x9;&#x9;c0.9,0.3,1.7,0.7,2.4,1.2c0.7,0.5,1.3,1.1,1.7,1.9c0.4,0.7,0.6,1.7,0.6,2.8c0,1.4-0.3,2.6-0.9,3.5c-0.6,0.9-1.3,1.7-2.3,2.2&#xA;&#x9;&#x9;c-0.9,0.6-2,1-3.2,1.2c-1.2,0.2-2.3,0.3-3.5,0.3c-1.3,0-2.5-0.1-3.7-0.4c-1.2-0.3-2.2-0.7-3.1-1.3c-0.9-0.6-1.6-1.4-2.1-2.4&#xA;&#x9;&#x9;c-0.5-1-0.8-2.2-0.9-3.6h3.8C282.7,438.6,282.9,439.3,283.3,439.9z"/>
  </g>
  <path class="st61" d="M160.6,7C83.1,7,20,70,20,147.5S83.1,288,160.6,288S301.1,225,301.1,147.5S238,7,160.6,7z M69.5,61.4&#xA;&#x9;c3.7,12.7,7.6,25.3,11.9,37.7c-0.8,0.1-1.6,0.1-2.4,0.2c-12.4,0.9-24.5,3.1-36.5,6.2C48.3,88.9,57.6,74,69.5,61.4z M35.1,147.5&#xA;&#x9;c0-7.6,0.8-15.2,2.1-22.5c14.2-5.1,28.6-9.2,43.3-11.2c1.9-0.3,3.8-0.5,5.7-0.8c2.7,7.6,5.6,15.2,8.6,22.6c1.3,3.2,2.7,6.3,4.1,9.5&#xA;&#x9;c-20.4,9.6-40.5,20.3-60.3,31.3C36.3,167.2,35.1,157.5,35.1,147.5z M72.9,237.1c-12.5-12.3-22.6-27.2-29.1-43.9&#xA;&#x9;c20-12.8,40.1-25.1,60.8-36.3c1,2,2,3.9,3.1,5.9c3.2,5.9,6.5,11.5,10.6,16.9c-3.3,3.5-6.5,7-9.6,10.6c-10.8,12.1-20.6,25.2-30,38.3&#xA;&#x9;C76.7,231.4,74.8,234.3,72.9,237.1z M266.2,147.6c2-2,3.9-3.9,5.9-5.7c0.9-0.7,1.7-1.4,2.6-2c3.5,1.4,6.7,3.4,9.6,5.8&#xA;&#x9;c-0.2,0.2-0.4,0.5-0.7,0.8c-2.7,3.3-5.8,6.2-9.2,8.5c-0.3-0.2-0.5-0.4-0.9-0.7C271,152.2,268.6,149.9,266.2,147.6z M273,155.8&#xA;&#x9;c-2.6,1.6-5.5,2.6-8.1,2.2c-2.5-0.3-4.8-1-7.1-1.7c1.4-1.4,2.7-2.8,4-4.3c0.9-1,1.9-2,2.7-2.9c2.4,2.1,4.9,4.1,7.6,6.2&#xA;&#x9;C272.6,155.5,272.8,155.6,273,155.8z M271.1,140.2c-2.4,1.6-4.7,3.6-6.8,5.7c-1.5-1.5-3.2-3.1-4.8-4.6c-0.5-0.5-1.1-1.1-1.6-1.6&#xA;&#x9;c2.2-1.2,4.7-2,7.2-2c2.6,0.2,5.1,0.7,7.6,1.5C272.1,139.4,271.6,139.8,271.1,140.2z M262.7,147.3c-0.9,0.8-1.6,1.6-2.4,2.4&#xA;&#x9;c-1.9,1.7-3.7,3.5-5.6,5.1c-1.6-0.9-3.3-1.7-4.8-2.8c-1.5-1-2.8-2.1-4.3-3.3c1.2-1,2.3-1.9,3.5-2.8c2.1-1.7,4.3-3.6,6.4-5&#xA;&#x9;c0.7,0.5,1.3,1.2,1.9,1.7C259.2,144.3,260.9,145.8,262.7,147.3z M252,157.1c-0.8,0.7-1.5,1.2-2.4,1.7c-1.7,1-3.3,2-5,2.7&#xA;&#x9;c-1.5,0.5-3.3,0.8-4.8,0.8c-2.9-0.2-5.9-1.3-8.4-2.8c3.8-2.6,7.6-5.5,11.2-8.3c1.7,1.4,3.6,2.7,5.5,3.8&#xA;&#x9;C249.4,155.8,250.7,156.5,252,157.1z M247.2,143.5c-1.3,1-2.7,2-4,2.9c-1.5-1.5-3.1-3.1-4.5-4.7c-3.1-3.3-6-6.4-9.4-9.4&#xA;&#x9;c2-0.4,3.9-0.7,5.8-0.7c3.8,0,7.9,0.8,11.3,2.5c1.5,0.8,3.1,1.7,4.8,3.1c0.9,0.7,1.6,1.3,2.4,2C251.4,140.5,249.3,142.1,247.2,143.5&#xA;&#x9;z M235.6,144.9c1.3,1.3,2.7,2.5,4.3,3.8c-4,2.8-8.1,5.3-12.2,7.9c-2.2-1.9-4.3-3.9-6.4-6.1c-3.1-3.1-6.1-5.8-9.8-8.2&#xA;&#x9;c1-0.9,2.1-1.6,3.1-2.4c2.9-2.3,5.9-4.1,9.1-5.6l0,0C227.8,137.4,231.6,141.2,235.6,144.9z M204.6,148.7c0.5-0.5,1-1.1,1.5-1.6&#xA;&#x9;c0.2,0.1,0.5,0.2,0.8,0.3c3.5,1.7,6.8,4.6,10,7.3c1.7,1.6,3.6,3.2,5.6,4.8c-2.3,1.2-4.5,2.4-6.9,3.5c-1.5,0.8-3.1,1-4.3,1&#xA;&#x9;c-1.2,0-2.7-0.5-4-1c-1.5-0.8-3.1-1.7-4.3-3.1c-1.6-1.4-3.1-2.8-4.7-4.5C200.4,153.2,202.5,150.9,204.6,148.7z M194.8,151.7&#xA;&#x9;c-2.1-2.4-4.1-4.8-6.2-7.2c1.7-0.2,3.6-0.3,5.5-0.2c2.5,0,4.9,0.4,7.2,1.1C199,147.4,196.9,149.5,194.8,151.7z M212.2,136.4&#xA;&#x9;c-1.6,1.2-3.2,2.4-4.7,3.7c-4-2-8.3-3.1-12.9-3.5c-4-0.2-8.2,0-12.1,0.8c-2.9-3.2-6.1-6.3-9.4-9.4c4.5-1.1,9.1-2,13.6-2.5&#xA;&#x9;c7.3-0.8,14.8-0.8,21.9,1.3c3.9,1.1,7.7,2.8,11.3,5.1C217.2,133.2,214.7,134.8,212.2,136.4z M174.8,148.5c1.6-0.8,3.2-1.4,4.8-2&#xA;&#x9;c0.1,0.1,0.3,0.3,0.4,0.4c3.3,3.3,6.3,6.7,9.6,9.9c-2.9,3.1-5.8,6.2-8.6,9.2c-6,6.5-12.1,12.9-18.9,17.7c-2.7,2-5.8,3.5-8.5,4.6&#xA;&#x9;c-2.5,0.8-5.2,1.3-7.9,0.8c-2.7-0.5-5.6-1.7-7.9-3.5c-1.7-1.2-3.3-2.7-4.7-4.3c6.8-7.5,13.9-14.5,21.8-20.6&#xA;&#x9;C161.3,155.8,167.9,151.5,174.8,148.5z M171.9,140.4c-8.1,3.1-15.6,7.3-22.4,12.1c-8.3,5.8-15.9,12.3-23.1,19.2&#xA;&#x9;c-2.7-4.3-5-8.9-7.3-13.6c-1.1-2.3-2.1-4.6-3.2-7c12.3-6.3,24.9-12.2,37.6-16.9c2.8-1.1,5.8-2.1,8.7-3.1c0.8,0.5,1.4,1,2.2,1.5&#xA;&#x9;c2.9,2.3,5.9,4.8,8.6,7.4C172.6,140.1,172.2,140.3,171.9,140.4z M150.2,124.8c-13.4,4-26.4,9.1-39.1,14.7c-1-2.7-2.1-5.5-3.1-8.2&#xA;&#x9;c-2.5-6.4-4.8-12.8-6.9-19.3c5.1,0,10.1,0.2,15.2,0.9c9.3,1.3,18.7,3.5,27.2,7.3c2.7,1.2,5.3,2.6,8,4.1&#xA;&#x9;C151.2,124.5,150.6,124.6,150.2,124.8z M160.6,272.9c-27.9,0-53.8-9.2-74.7-24.8c2.1-3.5,4.1-7,6.2-10.5&#xA;&#x9;c8.3-13.3,17.1-26.4,26.7-38.7c2.6-3.3,5.2-6.5,7.9-9.7c1.6,1.4,3.4,2.8,5.2,3.9c3.5,2.5,7.9,4,12.3,4.8c4.3,0.5,8.3-0.2,11.8-1.7&#xA;&#x9;c4-1.5,7.5-3.8,10.6-6c7.5-5.8,13.3-12.9,19.1-19.6c2.7-3.2,5.5-6.3,8.1-9.6c1.5,1.5,3.3,2.9,5,4.3c1.7,1.3,3.8,2.5,6,3.5&#xA;&#x9;c2,0.8,4.3,1.3,6.5,1.3c2.5-0.2,4.8-1,6.8-2c2.8-1.6,5.7-3.4,8.4-5.1l0.1,0.1c3.8,2.5,8.1,4,12.5,4c2.3,0,4.6-0.5,6.3-1.3&#xA;&#x9;c2-1,4-2,5.8-3.5c1.5-1.1,2.8-2.3,4.1-3.6c2.9,1.1,6.1,1.7,9.2,2.1c3.8,0.2,7.4-1.3,10.1-3.4c1.4,1,2.9,1.9,4.7,2.7s3.6,1.5,5.5,1.7&#xA;&#x9;C278.2,224.1,224.9,272.9,160.6,272.9z M285.9,147.5c0,4.5-0.2,8.9-0.7,13.3c-1.6-0.2-3.4-0.9-4.8-1.6c-1.6-0.8-2.9-1.7-4.4-2.8&#xA;&#x9;c3.3-2.6,6-5.7,8.4-8.7c0.2-0.3,0.5-0.8,0.8-1.1c0.2,0.2,0.5,0.4,0.8,0.7C285.9,147.2,285.9,147.3,285.9,147.5z M285.9,146&#xA;&#x9;c-0.1-0.1-0.2-0.2-0.2-0.2c0.1-0.1,0.1-0.2,0.2-0.3C285.9,145.7,285.9,145.9,285.9,146z M285.8,143.9c-0.3,0.4-0.7,0.8-1,1.2&#xA;&#x9;c-2.6-2.4-5.5-4.5-8.6-6c2-1.1,4.1-2,6.4-2.1c1.1-0.2,2,0.3,2.8,1C285.7,139.9,285.8,141.9,285.8,143.9z M282.6,135.6&#xA;&#x9;c-2.9,0-5.8,1.1-8.3,2.5c-2.8-1.2-5.9-2.1-9.1-2.5c-3.1-0.2-6,0.2-8.8,1.7c-0.2,0.1-0.3,0.2-0.5,0.3c-0.9-0.8-1.7-1.6-2.7-2.3&#xA;&#x9;c-1.5-1.3-3.1-2.7-5-3.8c-3.8-2-8.3-3.3-12.5-3.3c-3.2-0.2-6.4,0.2-9.6,1.2c-4.6-3.7-9.8-6.8-15.6-8.7c-7.9-2.7-16.4-3.3-24.4-3.1&#xA;&#x9;c-7.2,0.4-14.3,1.6-21.3,3.2c-5-3.8-10.5-7.3-16.3-10.3c-9.3-4.8-19.6-8.1-30-10c-7.1-1.2-14.3-1.9-21.5-2&#xA;&#x9;c-5-16.6-9.3-33.4-13.2-50.2C105,32,131.6,22.1,160.6,22.1c65.5,0,119.2,50.4,124.9,114.3C284.6,136,283.6,135.6,282.6,135.6z"/>
</svg>