<svg xmlns="http://www.w3.org/2000/svg" role="img" xmlns:xlink="http://www.w3.org/1999/xlink" viewBox="-3.34 46.41 316.42 79.17"><title>Lumigo (member) logo</title><defs><linearGradient id="linear-gradient" x1="2.938" x2="85.675" y1="79.227" y2="79.227" gradientUnits="userSpaceOnUse"><stop offset="0" stop-color="#f7cb63"/><stop offset="1" stop-color="#cd3b32"/></linearGradient><linearGradient id="linear-gradient-2" x1="2.938" x2="85.675" y1="79.369" y2="79.369" xlink:href="#linear-gradient"/><clipPath id="clippath"><path d="M54.89592 93.62889c-1.97667-.84714-3.95333-2.25905-5.36524-3.95333L39.36496 79.50984l10.16572-10.4481c1.41191-1.69429 3.38857-3.10619 5.36524-3.95333 3.95333-1.69429 8.18905-1.69429 11.86001 0 3.95333 1.69429 6.77714 4.5181 8.47143 8.47143.84714 1.97667 1.12952 3.95333 1.12952 5.93s-.56476 3.95333-1.12952 5.93c-2.54143 5.93-8.47143 9.60095-14.40143 9.60095-1.97667 0-3.95333-.56476-5.93-1.41191m5.64762-38.6862l-57.32335.28238 8.47143 8.47143h30.49715l-2.25905 2.25905-25.97905.28238 8.47143 8.75381h9.03619l-4.23572 4.5181 4.5181 4.5181h-9.31857l-8.47143 8.75381h26.26144l2.25905 2.25905H11.40925l-8.47143 8.75381h58.45287c3.38857 0 6.49476-.56476 9.31857-1.97667 9.03619-3.95333 14.9662-12.70715 14.9662-22.59048 0-9.88334-5.64762-18.63715-14.96619-22.59048-2.82381-1.12952-6.21238-1.97667-9.31857-1.97667h-.28238q-.28239.28238-.56477.28238" class="cls-1"/></clipPath><style>.cls-1{fill:url(#linear-gradient)}.cls-4{fill:#0f1137}</style></defs><path d="M95.841 54.66h10.73v49.134h-10.73zm15.53113 34.73317c0 10.73048 8.18905 15.53096 17.50763 15.53096s17.50763-5.08286 17.50763-15.53096V67.93221h-11.01286v20.61382c0 4.80048-3.10619 6.77715-6.49476 6.77715-3.67095 0-6.49476-1.69429-6.49476-6.77714V67.93222h-10.73048v21.46096h-.28239zm39.53334 14.68381h10.73048V83.74555c0-4.23572 2.54143-7.05953 5.93-7.05953s5.36524 2.54143 5.36524 6.77715v20.61381h10.4481V83.74555c0-4.23572 2.54143-7.05953 5.93-7.05953s5.36524 2.54143 5.36524 6.77715v20.61381h10.73049V82.05126c0-9.31857-4.51809-14.96619-12.70715-14.96619-5.08287 0-9.60096 1.12952-12.14238 5.64762-1.69428-3.67095-4.80048-5.64762-9.88334-5.64762-4.51809 0-7.90667 2.25905-9.31857 5.36524v-4.51809H150.6231v36.14477h.28237z" class="cls-4"/><path fill="#cd3b32" d="M215.57073 64.82602c3.38856 0 6.21237-2.54143 6.21237-5.93s-2.82381-6.21238-6.21237-6.21238-6.21237 2.54143-6.21237 6.21238c-.00002 3.10619 2.82379 5.93 6.21237 5.93"/><path d="M210.205 67.932h10.73v36.145h-10.73zm43.48717 18.0726c0 5.08286-4.23572 8.75381-9.31858 8.75381s-9.03618-3.95333-9.03618-8.75381c0-5.08286 3.95334-9.03619 9.03618-9.03619s9.31858 3.95334 9.31858 9.03619m9.88334 11.86001V67.93222h-10.73049v4.80048c-1.12953-3.10619-5.36524-5.36524-10.73049-5.36524-10.16571 0-17.79001 8.18905-17.79001 18.63715 0 10.16572 7.62428 18.35477 17.79001 18.35477 5.36524 0 9.60096-1.97667 11.01286-4.23572v.84714c0 2.82381-.28238 5.93-3.10619 7.90667-1.69428 1.12952-4.51809 1.97667-7.3419 1.97667-4.23572 0-7.90668-1.41191-11.01286-3.38857l-5.08285 7.05953c5.08287 3.38857 10.73049 5.08286 17.79001 5.08286 5.08287 0 9.88334-1.69429 12.98952-4.23572 5.36522-3.95333 6.21237-9.88334 6.21237-17.50762M296.3317 86.0046c0 5.36524-4.23572 9.60095-9.31858 9.60095-5.36524 0-9.31858-4.23572-9.31858-9.60095s3.95334-9.31857 9.31858-9.31857c5.08287-.28238 9.31858 3.95334 9.31858 9.31857m10.73049 0c0-10.73048-9.03618-19.20191-20.04905-19.20191-11.29524 0-20.04905 8.47143-20.04905 19.20191s8.75381 19.20191 20.04905 19.20191c11.01284-.28238 20.04905-8.75381 20.04905-19.20191" class="cls-4"/><path d="M54.89592 93.62889c-1.97667-.84714-3.95333-2.25905-5.36524-3.95333L39.36496 79.50984l10.16572-10.4481c1.41191-1.69429 3.38857-3.10619 5.36524-3.95333 3.95333-1.69429 8.18905-1.69429 11.86001 0 3.95333 1.69429 6.77714 4.5181 8.47143 8.47143.84714 1.97667 1.12952 3.95333 1.12952 5.93s-.56476 3.95333-1.12952 5.93c-2.54143 5.93-8.47143 9.60095-14.40143 9.60095-1.97667 0-3.95333-.56476-5.93-1.41191m5.64762-38.6862l-57.32335.28238 8.47143 8.47143h30.49715l-2.25905 2.25905-25.97905.28238 8.47143 8.75381h9.03619l-4.23572 4.5181 4.5181 4.5181h-9.31857l-8.47143 8.75381h26.26144l2.25905 2.25905H11.40925l-8.47143 8.75381h58.45287c3.38857 0 6.49476-.56476 9.31857-1.97667 9.03619-3.95333 14.9662-12.70715 14.9662-22.59048 0-9.88334-5.64762-18.63715-14.96619-22.59048-2.82381-1.12952-6.21238-1.97667-9.31857-1.97667h-.28238q-.28239.28238-.56477.28238" class="cls-1"/><g clip-path="url(#clippath)"><path fill="url(#linear-gradient-2)" d="M2.938 54.943h82.738v48.852H2.938z"/></g></svg>