<svg xmlns="http://www.w3.org/2000/svg" role="img" viewBox="15.92 153.92 368.16 91.91"><title>Lumigo logo</title><defs transform="translate(18.281 182.022) scale(1.51862)"><path d="M342.7 193.2h800v450h-800z"/></defs><defs transform="translate(18.281 182.022) scale(1.51862)"><path d="M342.7 193.2h800v450h-800z"/></defs><defs transform="translate(18.281 182.022) scale(1.51862)"><path d="M342.7 193.2h800v450h-800z"/></defs><path d="M131.35847 163.4768h12.45268v57.25197h-12.45268zm17.91971 40.39528c0 12.30083 9.56731 18.07158 20.19765 18.07158 10.7822 0 20.19765-5.77075 20.19765-18.07158V178.663h-12.60455v23.9942c0 5.6189-3.49283 7.74496-7.74496 7.74496-4.10028 0-7.74496-2.12607-7.74496-7.74496v-23.9942h-12.60455v25.2091zm45.86233 16.85669h12.45268v-23.53861c0-4.85959 2.88538-8.35241 6.98565-8.35241 4.10028 0 6.22635 3.03724 6.22635 7.89682v23.9942h12.45268v-23.53861c0-4.85959 2.88538-8.35241 6.98565-8.35241s6.22634 3.03724 6.22634 7.89682v23.9942h12.45269v-25.51282c0-10.7822-5.31517-17.46413-14.88248-17.46413-5.92262 0-11.23779 1.36676-13.9713 6.68193-1.9742-4.404-5.6189-6.68193-11.38965-6.68193-5.16331 0-9.41545 2.4298-10.93407 6.22634V178.663h-12.45268v42.06578z" class="st0"/><path fill="#e02317" d="M270.46406 175.17017c3.94841 0 7.13751-3.03724 7.13751-6.98566 0-3.9484-3.1891-7.13751-7.13751-7.13751-3.79655 0-7.13751 3.03724-7.13751 7.13751.15186 3.79655 3.34096 6.98566 7.13751 6.98566" class="st6"/><path d="M264.38958 178.663h12.45268v42.06577h-12.45268zm50.57005 21.10881c0 5.77076-4.85959 10.32662-10.93407 10.32662s-10.63034-4.55586-10.63034-10.32662c0-5.92262 4.70772-10.47848 10.63034-10.47848s10.93407 4.55586 10.93407 10.47848m11.69337 13.9713V178.663h-12.45268v5.46703c-1.2149-3.64468-6.07448-6.22634-12.45269-6.22634-11.9971 0-20.8051 9.71917-20.8051 21.71627 0 11.9971 8.95987 21.26068 20.8051 21.26068 6.22634 0 11.08593-2.12607 12.90827-5.01145v.91117c0 3.1891-.45558 6.98566-3.64469 9.11172-2.12606 1.36676-5.1633 2.12607-8.65613 2.12607-4.85958 0-9.11172-1.51862-12.90827-3.94841l-5.92262 8.95986c5.77076 4.10027 12.45269 5.92262 20.65323 5.92262 5.92262 0 11.38965-1.82235 15.33807-4.85959 5.92261-4.70772 7.13751-11.69337 7.13751-20.3495m37.9655-13.97131c0 6.22634-4.85958 10.93406-10.93406 10.93406-6.22635 0-10.93407-4.85958-10.93407-10.93406s4.70772-10.93406 10.93407-10.93406c6.07448-.15187 10.93406 4.85958 10.93406 10.93406m12.45268 0c0-12.45268-10.47847-22.32371-23.38674-22.32371-13.06014 0-23.38675 9.87103-23.38675 22.32371s10.32661 22.32371 23.38675 22.32371c12.90827 0 23.38674-9.87103 23.38674-22.32371" class="st0"/><g transform="translate(22.929 161.047) scale(1.51862)"><defs><path d="M40.3 31.6c-1.6-.7-3-1.7-4.2-3l-7.8-8 7.8-8.1c1.2-1.3 2.6-2.3 4.2-3 3-1.3 6.3-1.3 9.3-.1 3 1.2 5.3 3.5 6.6 6.5.6 1.5.9 3 1 4.6 0 1.6-.3 3.1-1 4.6-2 4.6-6.5 7.4-11.2 7.4-1.6 0-3.2-.3-4.7-.9m4.3-30.1L.2 1.6l6.7 6.8h23.6l-1.7 1.8H8.6l6.6 6.7h7l-3.5 3.6 3.5 3.6L15 24l-6.6 6.7h20.4l1.8 1.8h-24L0 39.4H45.3c2.5 0 5-.5 7.3-1.5 7-3 11.5-9.8 11.5-17.5C64.1 12.8 59.6 6 52.6 3c-2.3-1-4.7-1.5-7.2-1.5h-.8"/></defs><clipPath id="b"><path d="M40.3 31.6c-1.6-.7-3-1.7-4.2-3l-7.8-8 7.8-8.1c1.2-1.3 2.6-2.3 4.2-3 3-1.3 6.3-1.3 9.3-.1 3 1.2 5.3 3.5 6.6 6.5.6 1.5.9 3 1 4.6 0 1.6-.3 3.1-1 4.6-2 4.6-6.5 7.4-11.2 7.4-1.6 0-3.2-.3-4.7-.9m4.3-30.1L.2 1.6l6.7 6.8h23.6l-1.7 1.8H8.6l6.6 6.7h7l-3.5 3.6 3.5 3.6L15 24l-6.6 6.7h20.4l1.8 1.8h-24L0 39.4H45.3c2.5 0 5-.5 7.3-1.5 7-3 11.5-9.8 11.5-17.5C64.1 12.8 59.6 6 52.6 3c-2.3-1-4.7-1.5-7.2-1.5h-.8" overflow="visible"/></clipPath><linearGradient id="a" x1="332.901" x2="333.901" y1="648.092" y2="648.092" gradientTransform="matrix(64.0574 0 0 -64.0574 -21324.738 41535.602)" gradientUnits="userSpaceOnUse"><stop offset="0" stop-color="#ffc94f"/><stop offset=".203" stop-color="#ffc94f"/><stop offset=".596" stop-color="#e02317"/><stop offset="1" stop-color="#e02317"/></linearGradient><path fill="url(#a)" d="M0 1.5h64.1v37.9H0z" clip-path="url(#b)"/></g></svg>