<svg xmlns="http://www.w3.org/2000/svg" role="img" viewBox="-1.06 16.94 289.38 252.38"><title>Lyft Confidant logo</title><style>svg {enable-background:new 0 0 288 288}</style><style>.st0{fill:#fe00be}</style><g id="yYPDru.tif"><g><g><path d="M283 176.9c-19.9-1.1-36-9.1-47.2-26-6.5-9.9-9.3-20.8-9.4-32.5-.1-13.5 0-26.9-.1-40.4-.1-6.2-3.9-11.2-9.6-12.8-5.6-1.7-11.9.4-15.1 5.4-3.7 5.6-2.2 12-1.8 18.1.1 1.9 2.2 1.8 3.8 1.8 4 0 8 .1 12.1 0 3.1-.1 4.5 1.1 4.5 4.4-.1 11.4-.1 22.9 0 34.3 0 2.9-1.2 4.2-4.1 4.2-3.9-.1-7.7.2-11.6 0-3.5-.2-5 1.2-5.2 4.7-.6 9.4-2.8 18.4-8.9 25.9-7.6 9.3-17.5 13.4-29.4 13.1-3.2-.1-4.3-1.6-4.3-4.6.1-32.5-.4-65 .2-97.4.5-25.7 21.9-48.2 47.9-52 26.3-3.9 52.4 11.5 60.8 36.7 1.8 5.5 4.3 7.2 9.8 6.8 6.7-.5 6.8-.1 6.8 6.5 0 10.4-.1 20.7.1 31.1.1 3.8-1.4 5.4-5.2 5.1-1.2-.1-2.5.1-3.7 0-2.9-.1-4.3 1.1-4.2 4.1.1 1.7 0 3.4 0 5.1.1 9.7 4.2 14.4 13.8 15.9v42.5z" class="st0"/></g><g><path d="M81.6 219.6c-3.6-.8-7.2-1.7-10.8-2.5-3-.6-4.4-2.2-4.3-5.5.1-10 .1-20.1 0-30.2 0-3.5 1-4.3 4.4-3.3 7.9 2.3 15.9 4.2 24.2 2.1 6-1.5 11.5-3.8 14.3-11.2-9.3 6-18.7 7.3-28.5 5.2-16.7-3.6-26.7-14.7-27-31.9-.5-24-.1-47.9-.2-71.9 0-3.2 1.2-4.4 4.4-4.4 11.1.1 22.3.2 33.4 0 4.3-.1 5.2 1.9 5.1 5.6-.1 17 0 34 0 51v3.7c0 3.8 1.1 6.8 5.5 7.2 3.6.3 6.4-2.8 6.4-7.5.1-18.1 0-36.2.1-54.3 0-6.1.3-6.4 6.2-6.5 10.4 0 20.7.1 31.1-.1 4.2-.1 5.7 1.5 5.7 5.7-.1 31.2.3 62.5-.2 93.7-.4 20-8 36.7-25.8 47.6-6.3 3.8-13.3 6.2-20.5 7.1-8 1.4-12.1 1.8-23.5.4z" class="st0"/></g><g><path d="M4.5 25.6c12.4 0 24.7.1 37.1-.1 4.5-.1 5.8 1.5 5.8 5.9-.1 36-.1 72-.1 108 0 12.2 3.1 23.2 12.6 31.7 2.8 2.5.4 3.3-1.3 4.3-16.3 9.6-39.4 3.4-48.6-13-2.5-4.5-4-9.3-5.5-14.2V25.6z" class="st0"/></g></g></g><g><path fill="#667280" d="M4.7 249.8c0-7.9 5.9-14.3 14.2-14.3 5.1 0 8.1 1.8 10.8 4.3l-3.1 3.6c-2.2-2-4.6-3.4-7.7-3.4-5.3 0-9.1 4.3-9.1 9.7v.1c0 5.4 3.8 9.8 9.1 9.8 3.4 0 5.5-1.4 7.9-3.6l3.1 3.1c-2.9 3-6 4.9-11.2 4.9-8 0-14-6.3-14-14.2zm32.2 0c0-7.8 6-14.3 14.4-14.3s14.3 6.4 14.3 14.2v.1c0 7.7-6 14.2-14.4 14.2s-14.3-6.4-14.3-14.2zm23.7 0c0-5.4-3.9-9.9-9.4-9.9s-9.3 4.4-9.3 9.7v.1c0 5.3 3.9 9.8 9.4 9.8 5.5.1 9.3-4.3 9.3-9.7zM75.4 236h4.5l14.7 19v-19h4.8v27.5h-4L80.2 244v19.6h-4.8V236zm35 0h20.5v4.4h-15.6v7.5h13.9v4.4h-13.9v11.2h-4.8V236zm30 0h4.8v27.5h-4.8V236zm16.1 0h10.3c8.6 0 14.6 5.9 14.6 13.7v.1c0 7.7-6 13.8-14.6 13.8h-10.3V236zm10.3 23.1c5.8 0 9.6-3.9 9.6-9.3v-.1c0-5.4-3.8-9.4-9.6-9.4h-5.4V259h5.4zm32.2-23.3h4.5l12.1 27.7h-5.1l-2.8-6.6h-13l-2.8 6.6h-5l12.1-27.7zm7 16.8l-4.8-11-4.7 11h9.5zm18.3-16.6h4.5l14.7 19v-19h4.8v27.5h-4L229 244v19.6h-4.8V236zm41.7 4.5h-8.7V236h22.3v4.5h-8.7v23H266v-23z"/></g></svg>