<svg xmlns="http://www.w3.org/2000/svg" role="img" viewBox="-4.91 23.84 411.06 181.31"><title>MSys Technologies (member) logo</title><path fill="none" d="M0 0h400v245H0z" pointer-events="none"/><defs><clipPath id="g"><path d="M297 782.84l2574-.043.01 398.159-2574 .044z"/></clipPath><clipPath id="h"><path d="M99.177 160.729c-23.497-4.523-38.855-27.253-34.331-50.74 0 0 .303-2.076 1.363-5.238.066-.172.131-.389.206-.584a39.5 39.5 0 0 1 .379-1.06c.477-1.235.953-2.425 1.494-3.594l.044.044c.411-.867.995-1.796 1.514-2.706 12.36 1.342 24.266 3.507 35.479 6.515l-4.221 4.547c-1.927 2.033-3.193 4.09-3.767 6.147-.595 1.991-.822 3.723-.714 5.195.119 1.623.649 3.355 1.569 5.043.942 1.732 2.013 3.118 3.215 4.135l30.045 25.759c-6.989 4.659-15.315 7.326-24.054 7.327-2.71 0-5.459-.257-8.221-.79"/></clipPath><clipPath id="a"><path d="M-32768 32767h65535v-65535h-65535z"/></clipPath><clipPath id="k"><path d="M100.67 232.574c-5.627-3.291-7.542-10.542-4.242-16.17a11.529 11.529 0 0 1 3.301-3.615l-7.793-23.183c-16.028-3.443-30.077-12.144-40.294-24.223l-22.924 4.286a11.888 11.888 0 0 1-1.536 5.217c-3.291 5.628-10.543 7.512-16.17 4.221-5.628-3.29-7.533-10.542-4.243-16.149 3.009-5.151 9.329-7.164 14.676-4.934l16.083-18.4c-2.078-6.775-3.181-13.961-3.181-21.431 0-7.987 1.342-15.649 3.723-22.837 1.276-.021 2.522-.129 3.809-.129 5.682 0 11.278.196 16.82.563-3.161 6.84-5.044 14.373-5.044 22.403 0 29.679 24.049 53.748 53.726 53.748 26.408 0 48.26-19.113 52.774-44.223 6.093 4.135 11.667 8.551 16.602 13.291-.064.151-.074.325-.129.498l13.659 16.149c.119-.044.26-.066.379-.108 4.416 6.731 7.587 13.852 9.556 21.234-3.495 1.84-7.738 2.1-11.396-.043-3.313-1.948-5.293-5.282-5.726-8.832l-20.477-3.917c-10.585 12.23-25.132 20.888-41.669 24.005l-7.772 22.555c5.142 3.442 6.83 10.348 3.659 15.781a11.859 11.859 0 0 1-10.234 5.856c-2.023 0-4.07-.52-5.937-1.613"/></clipPath><clipPath id="c"><path d="M-32768 32767h65535v-65535h-65535z"/></clipPath><clipPath id="n"><path d="M116.689 123.021a36.474 36.474 0 0 1-2.641-2.272c-.649-.629-1.006-1.45-1.082-2.556-.087-1.45.216-2.639.996-3.636a39.808 39.808 0 0 1 2.792-3.269l3.29-3.375c11.062 3.83 21.235 8.506 30.478 13.809-.129 1.538-.302 3.095-.605 4.676-1.267 6.602-3.973 12.555-7.74 17.598z"/></clipPath><clipPath id="e"><path d="M-32768 32767h65535v-65535h-65535z"/></clipPath><linearGradient id="b" x2="1" gradientTransform="scale(-140.25966 140.25966) rotate(69.775 -.76 -.409)" gradientUnits="userSpaceOnUse"><stop offset="0" stop-color="#fff"/><stop offset=".323" stop-color="#fff" stop-opacity="0"/><stop offset="1" stop-color="#fff" stop-opacity="0"/></linearGradient><linearGradient id="j" x2="1" gradientTransform="scale(-140.25966 140.25966) rotate(69.775 -.76 -.409)" gradientUnits="userSpaceOnUse"><stop offset="0" stop-color="#fff"/><stop offset=".323" stop-color="#fff"/><stop offset="1" stop-color="#fff"/></linearGradient><linearGradient id="d" x2="1" gradientTransform="scale(-140.2557 140.2557) rotate(69.775 -.855 -.475)" gradientUnits="userSpaceOnUse"><stop offset="0" stop-color="#fff"/><stop offset=".323" stop-color="#fff" stop-opacity="0"/><stop offset="1" stop-color="#fff" stop-opacity="0"/></linearGradient><linearGradient id="m" x2="1" gradientTransform="scale(-140.2557 140.2557) rotate(69.775 -.855 -.475)" gradientUnits="userSpaceOnUse"><stop offset="0" stop-color="#fff"/><stop offset=".323" stop-color="#fff"/><stop offset="1" stop-color="#fff"/></linearGradient><linearGradient id="f" x2="1" gradientTransform="scale(-140.18479 140.18479) rotate(69.775 -.904 -.51)" gradientUnits="userSpaceOnUse"><stop offset="0" stop-color="#fff"/><stop offset=".323" stop-color="#fff" stop-opacity="0"/><stop offset="1" stop-color="#fff" stop-opacity="0"/></linearGradient><linearGradient id="p" x2="1" gradientTransform="scale(-140.18479 140.18479) rotate(69.775 -.904 -.51)" gradientUnits="userSpaceOnUse"><stop offset="0" stop-color="#fff"/><stop offset=".323" stop-color="#fff"/><stop offset="1" stop-color="#fff"/></linearGradient><mask id="i" width="1" height="1" x="0" y="0" maskUnits="userSpaceOnUse"><g clip-path="url(#a)"><path fill="url(#b)" d="M-32768 32767h65535v-65535h-65535z"/></g></mask><mask id="l" width="1" height="1" x="0" y="0" maskUnits="userSpaceOnUse"><g clip-path="url(#c)"><path fill="url(#d)" d="M-32768 32767h65535v-65535h-65535z"/></g></mask><mask id="o" width="1" height="1" x="0" y="0" maskUnits="userSpaceOnUse"><g clip-path="url(#e)"><path fill="url(#f)" d="M-32768 32767h65535v-65535h-65535z"/></g></mask></defs><g clip-path="url(#g)" transform="matrix(.48544 0 0 -.48544 0 240.7)"><path fill="#0090d1" d="M466.344 152.2c-17.25-12.143-38.285-19.276-60.986-19.276-21.902 0-42.252 6.64-59.148 18.009 20.305 8.454 41.246 18.939 61.57 30.856 19.326-11.332 39.2-21.361 58.564-29.588M156.1 231.023c0 53.285 43.2 96.484 96.493 96.484 13.879 0 27.075-2.931 38.999-8.205a96.784 96.784 0 0 0-5.28 31.616c0 53.477 43.357 96.825 96.84 96.825 9.33 0 18.354-1.32 26.893-3.782l-1.96.134h-.607c-26.35-1.271-47.321-23.06-47.321-49.716 0-26.662 20.972-48.45 47.32-49.716h.608c26.346 1.267 47.32 23.054 47.32 49.716 0 12.27-4.445 23.512-11.812 32.193 13.35-10.678 23.81-24.812 30.027-41.05 18.694 10.145 40.108 15.906 62.873 15.906 72.89 0 131.98-59.083 131.98-131.967 0-49.802-27.585-93.158-68.312-115.623.282 18.095-15.896 44.3-47.838 73.727-3.291-8.171-9.722-13.716-17.085-16.557 23.77-29.122 20.43-50.184-11.84-50.184-25.268 0-62.254 12.91-97.584 32.482 19.179 12.357 29.654 18.968 45.607 33.415 7.47 6.767-6.017 22.882-22.492 8.078-11.611-10.431-26.996-21.37-41.15-30.371-14.147 9.002-37.531 26.605-49.145 37.033-16.474 14.805-29.965-1.312-22.494-8.076 15.958-14.446 34.428-27.722 53.606-40.08-21.035-11.647-42.656-20.947-62.046-26.555 0 0-2.713-.801-4.204-1.167-11.55-3.074-22.205-4.76-31.327-4.76-32.273 0-35.616 21.063-11.842 50.185-7.36 2.84-13.801 8.386-17.082 16.557-41.22-37.966-56.186-70.57-43.427-87.317-37.16 13.413-63.718 48.995-63.718 90.775m367.153-6.566c8.215 0 15.688 5.197 15.688 15.686 0 52.254-30.084 97.482-73.881 119.314a69.28 69.28 0 0 0-23.547-23.918c38.594-14.5 66.055-51.743 66.055-95.396 0-10.49 7.47-15.686 15.685-15.686m-230.947 0c8.22 0 15.692 5.197 15.692 15.686 0 43.653 27.46 80.896 66.053 95.396a69.312 69.312 0 0 0-23.55 23.918c-43.791-21.832-73.88-67.06-73.88-119.314 0-10.49 7.472-15.686 15.685-15.686"/><path fill="#005bab" fill-rule="evenodd" d="M409.97 343.298v-138.02l-2.782-1.78c-14.149 8.993-31.742 19.608-43.355 30.036-16.475 14.798-26.306-4.824-18.832-11.59 15.956-14.442 24.976-17.218 44.153-29.565-10.486-5.81-21.115-11.033-31.543-15.503l-67.458 46.054 1.223-.036c5.816 0 11.252 2.599 13.934 7.838 1.327 2.276 2.097 5.105 2.097 8.474 0 17.469 4.395 33.908 12.147 48.275 11.644 21.234 30.636 37.869 53.556 46.48l-.506.314.854.324a69.29 69.29 0 0 0-23.546 23.916 133.307 133.307 0 0 1-31.154-21.542c10.308 17.51 24.47 33.027 41.513 45.592 4.558-21.802 23.381-38.38 46.263-39.483h.61zm-119.309-25.573l-.313.926.661-.29a96.283 96.283 0 0 0-3.338 12.203 122.066 122.066 0 0 0 6.304-5.27l8.044-7.2c-16.54-22.195-26.329-49.714-26.329-79.521 0-2.486.424-4.676 1.167-6.567l-94.53 64.538c17.54 18.12 42.123 29.386 69.34 29.386 13.88 0 27.067-2.931 38.994-8.205m119.31-139.318v-37.275l-33.258 22.706a531.305 531.305 0 0 1 30.13 16.39z"/><path fill="#005bab" fill-rule="evenodd" d="M542.783 390.3l-21.955-85.024a133.815 133.815 0 0 1-24.053 30.606zm-36.639-141.882l-21.154-81.93c-9.459 2.85-19.418 6.556-29.549 10.956l-8.865 4.004a362.187 362.187 0 0 0-21.357 10.93c19.18 12.348 25.755 15.53 41.712 29.973 7.467 6.762-2.12 26.315-18.595 11.51-11.614-10.428-26.996-21.37-41.148-30.362-4.122 2.612-9.019 5.963-14.182 9.645l83.02 98.2c16.681-16.337 27.761-38.356 30.118-62.926m-99.3-68.19c19.201-11.265 38.955-21.243 58.21-29.44-17.123-11.848-37.892-18.792-60.292-18.792-21.709 0-41.894 6.523-58.699 17.715 20.062 8.395 40.716 18.752 60.78 30.517m-26.972 17.377l8.571-5.618a355.095 355.095 0 0 0-23.26-11.754z"/><path fill="#32449b" fill-rule="evenodd" d="M540.928 399.735l81.084-231.21a132.462 132.462 0 0 0-22.451-15.618c.279 18.096-15.901 44.302-47.84 73.725l-.36-.63-.204-.48-.604-1.362-12.211 15.046c0 52.254-30.086 97.477-73.881 119.31a68.875 68.875 0 0 0-10.892-13.995l-11.981 14.872a49.746 49.746 0 0 1 6.955 9.842c3.992 7.165 6.266 15.415 6.266 24.198 0 7.992-1.881 15.548-5.233 22.242l2.938.234a96.922 96.922 0 0 0 20.162-31.97c18.688 10.14 40.102 15.904 62.867 15.904zm-295.232-73.99l-81.088-136.583c-5.832 12.427-9.083 26.296-9.083 40.927 0 16.329 4.049 31.709 11.208 45.184 15.42 28.519 44.794 48.39 78.963 50.472"/><path fill="#005bab" fill-rule="evenodd" d="M667.512 267.89c0-23.395-6.096-45.37-16.771-64.42a132.43 132.43 0 0 0-20.415-27.132c4.647 54.976 10.276 118.576 14.485 165.57 14.326-21.106 22.7-46.588 22.7-74.018"/><path fill="#fff" d="M411.95 312.595h-5.635v18.697h5.635z"/><path fill="#fff" fill-rule="evenodd" d="M475.16 302.776l-13.22-13.224-3.985 3.985 13.221 13.224z"/><path fill="#fff" d="M499.41 237.185l-18.699.002v5.63h18.7zm-182.058 7.517l18.7-.005v-5.632h-18.7zm29.171 62.938l13.226-13.221-3.99-3.986-13.22 13.224z"/><path fill="#32449b" fill-rule="evenodd" d="M196.8 69.559c-.512-6.112-2.804-10.9-6.88-14.365-4.176-3.361-9.677-5.042-16.502-5.042-7.947 0-14.01 2.395-18.186 7.183-4.176 4.584-6.265 11.358-6.265 20.323 0 9.169 2.139 16.046 6.419 20.63 4.38 4.787 10.696 7.18 18.949 7.18 6.723 0 12.072-1.68 16.045-5.042 3.77-3.26 5.908-7.844 6.42-13.752h-6.572c-2.446 0-4.178 1.07-5.197 3.209a14.898 14.898 0 0 1-2.598 3.514c-2.036 1.528-4.737 2.293-8.098 2.293-4.687 0-8.303-1.527-10.851-4.585-2.444-3.056-3.667-7.537-3.667-13.447 0-5.704 1.223-10.085 3.667-13.142 2.344-3.158 5.859-4.737 10.545-4.737 3.26 0 5.96.815 8.099 2.445 1.937 1.529 3.312 3.973 4.126 7.335zm5.275 34.382h5.501c1.427 0 2.65-.484 3.668-1.452 1.02-.968 1.528-2.164 1.528-3.59V51.374h-10.697zm27.315-22.005c-2.14-2.345-3.107-5.833-2.903-10.468.204-4.634 1.07-7.868 2.597-9.702.612-.814 1.682-1.504 3.209-2.062 1.529-.561 3.082-.612 4.662-.154 1.58.458 2.98 1.605 4.202 3.439 1.223 1.834 1.885 4.788 1.987 8.86 0 3.669-.585 6.419-1.758 8.253-1.171 1.833-2.521 3.005-4.05 3.515a7.423 7.423 0 0 1-4.585.077c-1.526-.46-2.647-1.045-3.36-1.759m-7.335-26.892c-2.141 1.834-3.668 4.303-4.584 7.41-.917 3.109-1.376 6.343-1.376 9.704 0 2.75.38 5.5 1.145 8.252.765 2.75 1.962 5.042 3.59 6.876 2.65 3.056 6.064 4.864 10.24 5.424 4.178.56 7.947.23 11.309-.994 3.87-1.526 6.724-4.175 8.558-7.946 1.732-3.36 2.599-7.283 2.599-11.766 0-3.26-.358-6.06-1.071-8.403-.713-2.345-1.63-4.33-2.751-5.96-2.445-3.362-5.553-5.45-9.321-6.265a20.819 20.819 0 0 0-10.162-.231c-3.414.766-6.14 2.065-8.176 3.899m71.175 36.979V68.183c0-7.231-1.885-11.971-5.653-14.21-3.77-2.242-7.897-3.363-12.379-3.363-4.38.204-8.38 1.426-11.995 3.668-3.618 2.242-5.426 6.877-5.426 13.906v23.838h10.697V66.043c0-2.444.713-4.227 2.14-5.348 1.426-1.122 3.054-1.68 4.89-1.68 1.834 0 3.49.558 4.966 1.68 1.478 1.12 2.216 2.903 2.216 5.348v20.783c0 1.424.483 2.647 1.451 3.667.97 1.018 2.216 1.528 3.745 1.528zm13.642-20.018c0-4.074.765-7.182 2.292-9.322 1.529-2.14 3.719-3.208 6.572-3.208 2.75 0 4.889 1.069 6.418 3.208 1.427 2.14 2.139 5.248 2.139 9.322 0 3.668-.764 6.57-2.292 8.71-1.63 2.038-3.82 3.055-6.571 3.055-2.648 0-4.737-1.07-6.266-3.208-1.527-2.037-2.292-4.89-2.292-8.557m17.421 32.09h5.196c1.427 0 2.65-.534 3.668-1.605 1.018-1.07 1.528-2.266 1.528-3.59V69.1c0-7.235-2.087-12.123-6.265-14.67-4.177-2.546-8.711-3.822-13.6-3.822-2.65 0-5.248.434-7.796 1.3-2.546.866-4.584 2.268-6.112 4.202-2.954 3.769-4.432 8.914-4.432 15.435 0 6.419 1.478 11.562 4.432 15.433 3.057 3.973 6.979 5.96 11.767 5.96 2.547 0 4.788-.51 6.725-1.53 2.037-1.22 3.667-2.801 4.889-4.735zm44.641-52.719h-10.849v19.56l-19.103 33.006h13.295l11.156-22.616 9.017 19.56c1.018 2.037 2.7 3.056 5.043 3.056h8.71l-17.269-33.006zm50.337 40.647V68.183c0-7.231-1.885-11.971-5.654-14.21-3.769-2.242-7.895-3.363-12.379-3.363-4.38.204-8.377 1.426-11.995 3.668-3.617 2.242-5.425 6.877-5.425 13.906v23.838h10.697V66.043c0-2.444.714-4.227 2.14-5.348 1.425-1.122 3.056-1.68 4.89-1.68 1.834 0 3.49.558 4.966 1.68 1.477 1.12 2.215 2.903 2.215 5.348v20.783c0 1.424.484 2.647 1.453 3.667.97 1.018 2.215 1.528 3.743 1.528zm15.512-20.63c0-7.03 2.038-10.926 6.114-11.688 4.074-.766 7.08.176 9.015 2.826.917 1.12 1.58 2.877 1.986 5.27.407 2.397.434 4.765.076 7.108-.354 2.342-1.196 4.43-2.52 6.265-1.325 1.833-3.26 2.749-5.807 2.749-3.464 0-5.807-1.272-7.03-3.82-1.223-2.545-1.834-5.45-1.834-8.71m17.422-17.572v2.597c-1.834-2.852-4.305-4.635-7.41-5.348-3.11-.713-6.193-.46-9.247.764-3.057 1.222-5.68 3.488-7.869 6.799-2.192 3.312-3.288 7.667-3.288 13.067 0 6.316 1.453 11.435 4.356 15.357 2.904 3.922 7.563 5.883 13.983 5.883 4.89 0 9.424-1.324 13.601-3.974 4.177-2.647 6.265-7.54 6.265-14.668V52.75c0-7.132-2.088-11.995-6.265-14.593-4.177-2.598-8.71-3.897-13.6-3.897-9.374 0-15.18 4.38-17.423 13.14h11.156c.815-1.425 2.063-2.52 3.745-3.283 1.68-.766 3.361-.968 5.043-.611 1.68.356 3.21 1.349 4.584 2.979 1.376 1.63 2.165 4.074 2.37 7.335m42.453-.765a18.841 18.841 0 0 0-6.8-2.063c-2.395-.253-4.51-.382-6.343-.382-3.668 0-6.876.994-9.628 2.98-2.75 1.987-4.125 5.272-4.125 9.857 0 4.279 1.248 7.335 3.744 9.169 2.496 1.834 5.678 3.056 9.55 3.668.51 0 1.121.074 1.834.228.714.153 1.527.279 2.445.383 4.482.609 6.724 1.934 6.724 3.972 0 1.528-.79 2.52-2.369 2.979-1.579.46-3.03.688-4.355.688-1.426 0-2.7-.204-3.82-.612-1.12-.406-1.936-1.17-2.445-2.292h-10.239c.408 3.158 1.833 5.757 4.28 7.794 2.75 2.344 6.671 3.515 11.766 3.515 5.706 0 9.984-.968 12.837-2.904 2.955-2.037 4.431-4.89 4.431-8.558V67.573c0-4.077-.738-7.26-2.217-9.552-1.476-2.292-3.234-3.946-5.27-4.966m-2.446 18.795c-1.427-.711-3.412-1.373-5.96-1.985l-3.515-.764c-1.833-.51-3.158-1.171-3.973-1.986-.713-1.122-1.07-2.243-1.07-3.362 0-1.53.458-2.751 1.376-3.668.916-.815 2.241-1.223 3.973-1.223 2.853 0 5.093.816 6.723 2.446 1.631 1.63 2.446 3.87 2.446 6.723z"/><path fill="#0090d1" fill-rule="evenodd" d="M511.19 59.778h5.194v-8.403h-8.404v5.194c0 2.14 1.069 3.21 3.21 3.21m48.66-2.139c-1.834-2.647-4.023-4.585-6.571-5.807-2.65-1.12-5.552-1.681-8.71-1.681-7.54 0-13.5 2.496-17.88 7.488-4.484 4.89-6.724 11.614-6.724 20.17 0 8.456 2.19 15.129 6.57 20.019 4.586 5.093 10.647 7.64 18.187 7.64 6.52 0 11.919-1.58 16.197-4.736 4.177-3.362 6.673-7.743 7.489-13.143h-7.336c-2.14 0-3.718.969-4.737 2.904-.714 1.222-1.732 2.343-3.056 3.362-2.036 1.426-4.737 2.139-8.1 2.139-4.38 0-7.845-1.58-10.391-4.737-2.546-3.361-3.822-7.844-3.822-13.448 0-5.703 1.326-10.187 3.976-13.447 2.546-3.16 6.163-4.736 10.85-4.736 3.463 0 6.315.967 8.557 2.903 2.242 2.037 3.667 4.839 4.278 8.405h-6.417c-1.53 0-2.83.534-3.898 1.604-1.07 1.069-1.604 2.369-1.604 3.895v3.516h21.852V51.375h-2.903c-2.853 0-4.635 1.426-5.35 4.279zm49.037 34.382V68.183c0-7.231-1.885-11.971-5.653-14.21-3.77-2.242-7.897-3.363-12.38-3.363-4.38.204-8.38 1.426-11.995 3.668-3.617 2.242-5.425 6.877-5.425 13.906v23.838h10.698V66.043c0-2.444.713-4.227 2.139-5.348 1.426-1.122 3.054-1.68 4.888-1.68s3.492.558 4.968 1.68c1.478 1.12 2.216 2.903 2.216 5.348v20.783c0 1.424.484 2.647 1.45 3.667.969 1.018 2.217 1.528 3.746 1.528zm4.167-40.647v19.712c0 3.974.586 7.309 1.758 10.009 1.172 2.7 2.776 4.864 4.814 6.494 1.935 1.528 4.2 2.649 6.8 3.362a30.134 30.134 0 0 0 8.023 1.069h1.528V81.173h-3.516c-2.954 0-5.143-.714-6.57-2.14-1.427-1.426-2.14-3.668-2.14-6.725V51.375zm61.979 40.647V68.183c0-7.231-1.885-11.971-5.654-14.21-3.769-2.242-7.896-3.363-12.379-3.363-4.38.204-8.378 1.426-11.995 3.668-3.617 2.242-5.425 6.877-5.425 13.906v23.838h10.697V66.043c0-2.444.712-4.227 2.14-5.348 1.425-1.122 3.056-1.68 4.89-1.68 1.834 0 3.49.558 4.966 1.68 1.477 1.12 2.215 2.903 2.215 5.348v20.783c0 1.424.484 2.647 1.453 3.667.967 1.018 2.215 1.528 3.743 1.528z"/><path fill="#32449b" fill-rule="evenodd" d="M153.006 38.837H420.13a24.041 24.041 0 0 1 3.075-4.5h-270.2zm314.466 0h207.07v-4.5H464.18a19.737 19.737 0 0 1 3.29 4.5"/></g><g clip-path="url(#g)" transform="matrix(.35166 0 0 -.35166 0 185.286)"><path fill="#df2127" d="M457.193 214.129h-63.677v-34.936h63.677c4.909 0 8.269.739 10.079 2.199 1.793 1.477 2.698 4.054 2.698 7.783v15.099c0 3.639-.905 6.198-2.698 7.657-1.81 1.459-5.17 2.198-10.08 2.198m-91.53-103.852v125.599h104.082c9.679 0 16.677-1.928 21.012-5.766 4.334-3.837 6.51-10.035 6.51-18.593V182.04c0-8.47-2.176-14.648-6.51-18.522-4.335-3.892-11.333-5.82-21.012-5.82H453.85l56.192-47.422h-40.647l-49.055 47.422h-26.825v-47.422zm200.7 23.645h93.375v79.492h-93.375zm-28.322 72.249c0 11.405 2.071 19.206 6.214 23.404 4.143 4.198 12.116 6.306 23.954 6.306h89.562c11.82 0 19.81-2.108 23.954-6.306 4.142-4.198 6.213-11.999 6.213-23.404v-66.178c0-11.495-2.071-19.314-6.213-23.476-4.144-4.163-12.134-6.234-23.954-6.234h-89.562c-11.838 0-19.811 2.071-23.954 6.234-4.143 4.162-6.214 11.981-6.214 23.476zm287.849-41.351h-64.6v-31.964h64.6c5.379 0 9 .83 10.88 2.505 1.88 1.657 2.82 4.576 2.82 8.792v9.495c0 4.198-.94 7.117-2.82 8.738-1.88 1.622-5.501 2.433-10.88 2.433m0 50.61h-64.6v-29.944h64.6c4.909 0 8.304.685 10.184 2.036 1.879 1.333 2.82 3.675 2.82 7.008v11.874c0 3.243-.941 5.567-2.82 6.955-1.88 1.387-5.275 2.071-10.184 2.071m-92.452-105.148V235.88h104.306c9.592 0 16.539-1.946 20.838-5.837 4.299-3.874 6.458-10.054 6.458-18.522v-15.333c0-6.017-1.81-10.828-5.414-14.432-3.603-3.603-8.791-5.855-15.545-6.72 6.98-.955 12.377-3.53 16.172-7.71 3.813-4.218 5.71-9.677 5.71-16.415v-16.035c0-8.307-2.96-14.487-8.878-18.54-5.901-4.037-14.883-6.054-26.93-6.054zm173.055 125.6h28.322V110.3h-28.322zm76.125-125.598v125.58h19.341l85.663-74.015a134.671 134.671 0 0 0 7.712-6.955 77.106 77.106 0 0 0 6.11-6.702c-.47 7.045-.766 12.035-.923 14.973-.157 2.918-.226 5.171-.226 6.756v65.943h25.432v-125.58h-19.339l-89.337 77.582a210.38 210.38 0 0 0-5.64 5.351 64.087 64.087 0 0 0-4.49 4.865c.382-3.874.66-7.53.851-10.99.192-3.442.296-6.433.296-8.973v-67.835z"/><path d="M239.068 309.34H69.63c-22.09 0-39.997-17.907-39.997-39.997V99.905c0-22.09 17.907-39.997 39.997-39.997h169.438c22.09 0 39.997 17.908 39.997 39.997v169.438c0 22.09-17.907 39.997-39.997 39.997"/><path fill="#de2428" d="M239.592 309.34l-48.278-.032L39.538 73.642c1.498-1.713 3.119-3.314 4.886-4.75l234.64 118.303v82.175c0 21.913-17.627 39.687-39.472 39.97"/><path d="M228.493 297.927c-7.252 0-13.145-5.893-13.145-13.145 0-7.245 5.893-13.145 13.145-13.145s13.145 5.9 13.145 13.145c0 7.252-5.893 13.145-13.145 13.145"/></g><g clip-path="url(#g)" transform="matrix(.35166 0 0 -.35166 0 185.286)"><path fill="#df2127" d="M457.193 214.129h-63.677v-34.936h63.677c4.909 0 8.269.739 10.079 2.199 1.793 1.477 2.698 4.054 2.698 7.783v15.099c0 3.639-.905 6.198-2.698 7.657-1.81 1.459-5.17 2.198-10.08 2.198m-91.53-103.852v125.599h104.082c9.679 0 16.677-1.928 21.012-5.766 4.334-3.837 6.51-10.035 6.51-18.593V182.04c0-8.47-2.176-14.648-6.51-18.522-4.335-3.892-11.333-5.82-21.012-5.82H453.85l56.192-47.422h-40.647l-49.055 47.422h-26.825v-47.422zm200.7 23.645h93.375v79.492h-93.375zm-28.322 72.249c0 11.405 2.071 19.206 6.214 23.404 4.143 4.198 12.116 6.306 23.954 6.306h89.562c11.82 0 19.81-2.108 23.954-6.306 4.142-4.198 6.213-11.999 6.213-23.404v-66.178c0-11.495-2.071-19.314-6.213-23.476-4.144-4.163-12.134-6.234-23.954-6.234h-89.562c-11.838 0-19.811 2.071-23.954 6.234-4.143 4.162-6.214 11.981-6.214 23.476zm287.849-41.351h-64.6v-31.964h64.6c5.379 0 9 .83 10.88 2.505 1.88 1.657 2.82 4.576 2.82 8.792v9.495c0 4.198-.94 7.117-2.82 8.738-1.88 1.622-5.501 2.433-10.88 2.433m0 50.61h-64.6v-29.944h64.6c4.909 0 8.304.685 10.184 2.036 1.879 1.333 2.82 3.675 2.82 7.008v11.874c0 3.243-.941 5.567-2.82 6.955-1.88 1.387-5.275 2.071-10.184 2.071m-92.452-105.148V235.88h104.306c9.592 0 16.539-1.946 20.838-5.837 4.299-3.874 6.458-10.054 6.458-18.522v-15.333c0-6.017-1.81-10.828-5.414-14.432-3.603-3.603-8.791-5.855-15.545-6.72 6.98-.955 12.377-3.53 16.172-7.71 3.813-4.218 5.71-9.677 5.71-16.415v-16.035c0-8.307-2.96-14.487-8.878-18.54-5.901-4.037-14.883-6.054-26.93-6.054zm173.055 125.6h28.322V110.3h-28.322zm76.125-125.598v125.58h19.341l85.663-74.015a134.671 134.671 0 0 0 7.712-6.955 77.106 77.106 0 0 0 6.11-6.702c-.47 7.045-.766 12.035-.923 14.973-.157 2.918-.226 5.171-.226 6.756v65.943h25.432v-125.58h-19.339l-89.337 77.582a210.38 210.38 0 0 0-5.64 5.351 64.087 64.087 0 0 0-4.49 4.865c.382-3.874.66-7.53.851-10.99.192-3.442.296-6.433.296-8.973v-67.835z"/><path d="M239.068 309.34H69.63c-22.09 0-39.997-17.907-39.997-39.997V99.905c0-22.09 17.907-39.997 39.997-39.997h169.438c22.09 0 39.997 17.908 39.997 39.997v169.438c0 22.09-17.907 39.997-39.997 39.997"/><path fill="#de2428" d="M239.592 309.34l-48.278-.032L39.538 73.642c1.498-1.713 3.119-3.314 4.886-4.75l234.64 118.303v82.175c0 21.913-17.627 39.687-39.472 39.97"/><path d="M228.493 297.927c-7.252 0-13.145-5.893-13.145-13.145 0-7.245 5.893-13.145 13.145-13.145s13.145 5.9 13.145 13.145c0 7.252-5.893 13.145-13.145 13.145"/></g><g clip-path="url(#g)" transform="matrix(.75254 0 0 -.75254 0 211.459)"><path fill="#414142" d="M107.468 64.49c-29.677 0-53.726 24.05-53.726 53.725 0 29.678 24.049 53.727 53.726 53.727 29.667 0 53.727-24.049 53.727-53.727 0-29.676-24.06-53.725-53.727-53.725m100.872 7.338c-3.192 5.455-10.065 7.382-15.63 4.503l-16.125 18.181a72.713 72.713 0 0 1 3.95 23.703 72.76 72.76 0 0 1-3.82 23.292l13.659 16.17c3.312-1.386 7.164-1.277 10.477.671 5.628 3.268 7.533 10.52 4.242 16.148-3.301 5.628-10.541 7.555-16.181 4.243-3.311-1.927-5.292-5.26-5.725-8.81l-20.477-3.918c-10.585 12.208-25.132 20.867-41.67 23.984l-7.771 22.577c5.14 3.442 6.83 10.347 3.658 15.78-3.3 5.607-10.541 7.533-16.17 4.221-5.627-3.268-7.543-10.54-4.242-16.169a11.22 11.22 0 0 1 3.3-3.594l-7.791-23.205c-16.03-3.442-30.078-12.143-40.295-24.2l-22.924 4.286c-.108 1.775-.584 3.55-1.537 5.195-3.29 5.628-10.541 7.533-16.17 4.242-5.628-3.29-7.532-10.542-4.242-16.17 3.009-5.15 9.33-7.142 14.676-4.913l16.083-18.42a72.886 72.886 0 0 1-3.192-21.41c0-8.333 1.396-16.322 3.972-23.767l-16.516-19.33a11.782 11.782 0 0 1-11.018-.454c-5.65-3.313-7.534-10.542-4.243-16.192 3.29-5.606 10.54-7.533 16.17-4.243 3.495 2.057 5.54 5.628 5.823 9.395l25.272 4.957C63.893 57.78 77.12 50.01 92.056 46.783l8.247-23.443c-4.61-3.593-6.018-10.087-2.987-15.26 3.29-5.629 10.542-7.533 16.18-4.243 5.618 3.29 7.523 10.542 4.233 16.191a12.104 12.104 0 0 1-3.247 3.571l7.868 23.076c15.25 3.16 28.768 11.061 38.93 22.123l25.23-4.87c.228-1.386.649-2.75 1.418-4.027 3.279-5.629 10.519-7.533 16.17-4.243 5.628 3.29 7.52 10.563 4.242 16.17"/><path fill="#414142" d="M97.424 114.06c-.596 2.013-.823 3.744-.714 5.206.118 1.633.65 3.343 1.57 5.053.94 1.71 2.012 3.096 3.213 4.135l30.045 25.76c-9.156 6.104-20.607 8.767-32.274 6.537-23.497-4.545-38.856-27.252-34.33-50.738 0 0 .302-2.078 1.363-5.24.064-.193.13-.39.205-.584.12-.346.25-.713.38-1.082.475-1.213.951-2.402 1.492-3.572l.044.023c3.052-6.364 8.658-14.287 18.756-19.612.163-.065.325-.152.487-.24.498-.258.996-.496 1.494-.734a48.24 48.24 0 0 0 1.017-.455c.152-.064.303-.13.455-.216v.022c7.652-3.247 16.3-4.32 25.055-2.642 4.167.802 8.085 2.208 11.7 4.049l-26.192 28.205c-1.926 2.012-3.193 4.09-3.766 6.125"/><path fill="#28aae1" d="M142.264 144.018l-25.489-20.976c-.94-.756-1.818-1.493-2.64-2.294-.65-.606-1.007-1.45-1.083-2.533-.086-1.45.216-2.652.996-3.657a49.386 49.386 0 0 1 2.792-3.27l22.166-22.77c9.178 9.784 13.724 23.702 10.996 37.88-1.266 6.602-3.97 12.577-7.738 17.62"/><path fill="#414142" d="M258.56 117.934l20.736 22.881h22.068l-24.059-26.603 25.52-37.08h-21.267l-16.624 23.658h-10.228V77.132h-18.475v94.377h18.475v-53.575zm81.79 9.179c-10.5 0-17.686-7.035-17.686-17.686 0-10.758 7.187-18.203 17.686-18.203 10.498 0 17.544 7.445 17.544 18.203 0 10.65-7.046 17.686-17.544 17.686m25.92 7.057c6.517-6.256 9.84-14.503 9.84-24.743 0-10.367-3.323-18.723-9.84-25.108-6.515-6.386-15.151-9.57-25.92-9.57-10.77 0-19.406 3.184-26.052 9.57-6.645 6.385-9.968 14.74-9.968 25.108 0 10.24 3.323 18.487 9.828 24.743 6.656 6.233 15.422 9.437 26.192 9.437 10.769 0 19.405-3.204 25.92-9.437m73.945-25.392c0 12.49-5.585 18.746-16.884 18.746-4.254 0-9.168-.282-14.882-.8v-33.9c4.654-.67 9.968-1.06 16.083-1.06 9.167 0 15.683 7.445 15.683 17.013m17.945.52c0-9.829-2.923-17.815-8.637-23.919-5.714-5.975-13.16-9.048-22.069-9.048-7.576 0-13.82.281-19.005.801V46.436h-18.475v93.296c15.812 2.013 27.913 3.074 36.28 3.074 20.076 0 31.376-12.902 31.906-33.508m14.416-13.811c9.697-3.723 18.335-5.584 25.781-5.584 7.306 0 10.9 1.58 10.9 4.912 0 2.924-2.793 4.395-7.047 5.326-2.262.65-3.452.78-6.516 1.321l-3.452.67c-15.012 2.793-21.938 8.376-21.938 19.136 0 13.291 10.768 21.257 27.912 21.257 9.438 0 18.345-1.58 26.722-4.785l-4.123-13.94c-10.228 2.923-17.945 4.373-23.26 4.373-5.843 0-9.166-2.12-9.166-5.455 0-2.922 2.121-3.983 5.844-5.174 2.262-.54 3.322-.67 6.527-1.32l3.712-.67c15.543-3.182 22.058-7.708 22.058-19.006 0-14.222-11.159-21.409-28.845-21.409-9.838 0-19.405 1.863-28.843 5.585z"/></g><g clip-path="url(#h)" transform="matrix(.75254 0 0 -.75254 0 211.459)"><g mask="url(#i)"><path fill="url(#j)" d="M99.177 160.729c-23.497-4.523-38.855-27.253-34.331-50.74 0 0 .303-2.076 1.363-5.238.066-.172.131-.389.206-.584a39.5 39.5 0 0 1 .379-1.06c.477-1.235.953-2.425 1.494-3.594l.044.044c.411-.867.995-1.796 1.514-2.706 12.36 1.342 24.266 3.507 35.479 6.515l-4.221 4.547c-1.927 2.033-3.193 4.09-3.767 6.147-.595 1.991-.822 3.723-.714 5.195.119 1.623.649 3.355 1.569 5.043.942 1.732 2.013 3.118 3.215 4.135l30.045 25.759c-6.989 4.659-15.315 7.326-24.054 7.327-2.71 0-5.459-.257-8.221-.79"/></g></g><g clip-path="url(#k)" transform="matrix(.75254 0 0 -.75254 0 211.459)"><g mask="url(#l)"><path fill="url(#m)" d="M100.67 232.574c-5.627-3.291-7.542-10.542-4.242-16.17a11.529 11.529 0 0 1 3.301-3.615l-7.793-23.183c-16.028-3.443-30.077-12.144-40.294-24.223l-22.924 4.286a11.888 11.888 0 0 1-1.536 5.217c-3.291 5.628-10.543 7.512-16.17 4.221-5.628-3.29-7.533-10.542-4.243-16.149 3.009-5.151 9.329-7.164 14.676-4.934l16.083-18.4c-2.078-6.775-3.181-13.961-3.181-21.431 0-7.987 1.342-15.649 3.723-22.837 1.276-.021 2.522-.129 3.809-.129 5.682 0 11.278.196 16.82.563-3.161 6.84-5.044 14.373-5.044 22.403 0 29.679 24.049 53.748 53.726 53.748 26.408 0 48.26-19.113 52.774-44.223 6.093 4.135 11.667 8.551 16.602 13.291-.064.151-.074.325-.129.498l13.659 16.149c.119-.044.26-.066.379-.108 4.416 6.731 7.587 13.852 9.556 21.234-3.495 1.84-7.738 2.1-11.396-.043-3.313-1.948-5.293-5.282-5.726-8.832l-20.477-3.917c-10.585 12.23-25.132 20.888-41.669 24.005l-7.772 22.555c5.142 3.442 6.83 10.348 3.659 15.781a11.859 11.859 0 0 1-10.234 5.856c-2.023 0-4.07-.52-5.937-1.613"/></g></g><g clip-path="url(#n)" transform="matrix(.75254 0 0 -.75254 0 211.459)"><g mask="url(#o)"><path fill="url(#p)" d="M116.689 123.021a36.474 36.474 0 0 1-2.641-2.272c-.649-.629-1.006-1.45-1.082-2.556-.087-1.45.216-2.639.996-3.636a39.808 39.808 0 0 1 2.792-3.269l3.29-3.375c11.062 3.83 21.235 8.506 30.478 13.809-.129 1.538-.302 3.095-.605 4.676-1.267 6.602-3.973 12.555-7.74 17.598z"/></g></g><path fill="#2b87c8" d="M138.237 90.674V65.942l-10.518 21.32h-3.696l-10.518-21.32v24.732h-5.117V57.556h6.68l10.945 22.031 10.945-22.031h6.538v33.118h-5.259zm35.109-29.991l-2.274 4.975c-3.554-2.132-7.25-3.127-9.666-3.127-3.27 0-5.401 1.279-5.401 3.411 0 7.25 17.91 3.411 17.767 15.209 0 5.97-5.259 9.523-12.508 9.523-5.26 0-10.092-2.132-13.503-5.259l2.416-4.833c3.411 3.127 7.676 4.833 11.229 4.833 3.838 0 6.254-1.421 6.254-3.98 0-7.391-17.91-3.269-17.91-15.067 0-5.685 4.833-9.239 12.082-9.239 4.265.142 8.529 1.564 11.514 3.554zm15.351 33.403c-1.564 3.98-4.406 5.97-8.244 5.97-2.274 0-4.122-.711-5.828-2.133l2.274-4.264c1.137.853 2.132 1.28 3.27 1.28 1.705 0 2.984-.853 3.837-2.843l.853-1.848-10.376-24.732h5.685l7.534 19.046 6.965-19.046h5.401l-11.371 28.57zM218.83 67.79l-1.99 3.98c-2.274-1.422-4.974-2.275-7.249-2.275-2.132 0-3.695.711-3.695 2.559 0 4.69 13.36 2.132 13.36 11.229 0 5.117-4.548 7.533-9.665 7.533-3.695 0-7.675-1.279-10.092-3.553l1.99-3.838c2.133 1.99 5.686 3.127 8.387 3.127 2.274 0 4.122-.853 4.122-2.7 0-5.117-13.22-2.275-13.22-11.372 0-5.117 4.407-7.249 9.24-7.249 3.127 0 6.538.995 8.813 2.559z" class="st0"/><path fill="#666" d="M120.47 110.432v28.143h-5.544v-28.143h-10.518v-4.975h26.58v4.975H120.47zm32.55 17.625h-19.047c.853 3.838 3.838 6.254 7.818 6.254 2.7 0 5.259-.995 7.107-2.985l2.843 3.127c-2.417 2.701-6.112 4.265-10.377 4.265-7.817 0-12.934-5.117-12.934-12.793 0-7.676 5.259-12.793 12.792-12.793 8.813 0 12.508 5.828 11.798 14.925zm-4.69-3.98c-.143-4.122-2.844-6.538-6.966-6.538-3.98 0-6.822 2.558-7.39 6.538h14.355zm29.849-6.823l-2.985 3.554c-1.706-1.848-4.122-2.843-7.25-2.843-4.406 0-7.533 3.27-7.533 8.102 0 4.833 3.127 8.102 7.533 8.102 3.128 0 5.686-.995 7.392-2.985l2.985 2.985c-2.275 2.985-5.97 4.69-10.66 4.69-7.534 0-12.651-5.116-12.651-12.792 0-7.675 5.259-12.792 12.65-12.792 4.69-.143 8.244 1.42 10.519 3.98zm29.138 5.544v15.635h-5.401V124.22c0-3.837-2.274-6.112-6.112-6.112-4.549 0-7.25 3.412-7.25 7.818v12.366h-5.4v-34.824h5.4v14.782c1.849-3.553 4.976-5.117 9.382-5.117 5.97 0 9.381 3.696 9.381 9.666zm30.276 0v15.635h-5.401V124.22c0-3.837-2.275-6.112-6.112-6.112-4.122 0-6.823 2.985-7.107 6.823v13.361h-5.402v-24.874h5.402v4.832c1.847-3.553 4.975-4.974 9.239-4.974 5.827-.143 9.381 3.553 9.381 9.523zm29.991 3.127c0 7.533-5.4 12.793-13.076 12.793-7.818 0-13.22-5.26-13.22-12.793 0-7.676 5.402-12.793 13.22-12.793 7.675 0 13.076 5.26 13.076 12.793zm-20.894 0c0 4.833 3.127 8.244 7.675 8.244 4.549 0 7.676-3.27 7.676-8.244 0-4.833-3.127-8.102-7.676-8.102-4.406 0-7.675 3.27-7.675 8.102zm25.585 12.65v-35.108h5.401v35.108h-5.4zm36.388-12.65c0 7.533-5.401 12.793-13.077 12.793-7.818 0-13.219-5.26-13.219-12.793 0-7.676 5.401-12.793 13.219-12.793s13.077 5.26 13.077 12.793zm-20.753 0c0 4.833 3.128 8.244 7.676 8.244s7.676-3.27 7.676-8.244c0-4.833-3.128-8.102-7.676-8.102s-7.676 3.27-7.676 8.102zm48.044 10.092c0 7.249-5.117 11.797-13.077 11.797-3.98 0-7.391-1.279-10.519-3.269l2.275-3.98c2.416 1.706 4.832 2.701 7.96 2.701 4.832 0 7.96-2.843 7.96-7.107v-3.127c-1.706 2.7-4.55 4.264-8.387 4.264-6.823 0-11.371-4.975-11.371-12.224 0-7.107 4.548-11.94 11.229-11.94 3.838 0 6.823 1.564 8.528 4.265v-4.122h5.402v22.742zm-5.402-10.803c0-4.548-2.985-7.675-7.249-7.675-4.264 0-7.249 3.269-7.391 7.675 0 4.549 2.985 7.818 7.391 7.818 4.264 0 7.25-3.27 7.25-7.818zm17.626-19.046c0 1.847-1.422 3.269-3.127 3.269s-3.127-1.422-3.127-3.27c0-1.99 1.42-3.269 3.127-3.269s3.127 1.28 3.127 3.27zm-5.828 32.407v-25.158h5.401v25.158h-5.401zm34.398-10.518H357.7c.853 3.838 3.838 6.254 7.818 6.254 2.7 0 5.259-.995 7.107-2.985l2.843 3.127c-2.417 2.701-6.112 4.265-10.377 4.265-7.817 0-12.934-5.117-12.934-12.793 0-7.676 5.259-12.793 12.792-12.793 8.813 0 12.366 5.828 11.798 14.925zm-4.833-3.98c-.142-4.122-2.843-6.538-6.965-6.538-3.98 0-6.823 2.558-7.391 6.538h14.356zm25.585-8.387l-1.99 3.98c-2.274-1.42-4.975-2.273-7.249-2.273-2.132 0-3.696.71-3.696 2.558 0 4.69 13.362 2.132 13.362 11.23 0 5.116-4.549 7.533-9.666 7.533-3.696 0-7.675-1.28-10.092-3.554l1.99-3.838c2.132 1.99 5.686 3.127 8.386 3.127 2.275 0 4.122-.852 4.122-2.7 0-5.117-13.219-2.275-13.219-11.371 0-5.118 4.407-7.25 9.24-7.25 3.127 0 6.538.995 8.812 2.559z" class="st1"/><path fill="#727274" d="M16.566 190.599H4.057v-20.184h12.509v2.132H6.758v6.538h9.24v2.132h-9.24v7.392h9.808v1.99zm14.924-7.676l-5.827-7.391h2.842l4.407 5.827 4.406-5.827h2.843l-5.828 7.391 6.112 7.676h-2.843l-4.69-6.112-4.69 6.112h-2.844l6.112-7.676zm26.438 7.96c-1.137 0-2.132-.142-2.985-.569-.852-.426-1.705-.853-2.274-1.705h-.142c.142.852.142 1.705.142 2.558v6.254h-2.558v-21.89h2.132l.284 2.133h.142c.71-.853 1.422-1.422 2.274-1.848.853-.426 1.848-.569 2.985-.569 2.275 0 3.98.711 5.117 1.99 1.28 1.422 1.848 3.27 1.848 5.686s-.568 4.406-1.848 5.828c-1.279 1.421-2.985 2.132-5.117 2.132zm-.426-13.646c-1.706 0-2.985.427-3.696 1.28-.71.853-1.137 2.274-1.137 4.122v.568c0 2.132.427 3.696 1.137 4.549.853.853 1.99 1.421 3.838 1.421 1.421 0 2.559-.568 3.411-1.563.853-.995 1.28-2.559 1.28-4.407 0-1.848-.427-3.269-1.28-4.264-.852-1.28-1.99-1.706-3.553-1.706zm28.428 13.362l-.569-2.133h-.142a7.837 7.837 0 0 1-2.558 1.99c-.853.285-1.848.569-3.127.569-1.706 0-2.985-.426-3.98-1.137-.995-.71-1.422-1.848-1.422-3.27 0-2.984 2.7-4.69 8.102-4.832l2.843-.142v-.995c0-1.137-.284-1.99-.853-2.559-.568-.568-1.421-.853-2.7-.853-1.422 0-2.985.427-4.691 1.138l-.71-1.706c.852-.427 1.705-.71 2.7-.995.995-.284 1.99-.284 2.985-.284 1.99 0 3.411.426 4.406 1.137.995.853 1.422 2.132 1.422 3.837V190.6H85.93zm-5.686-1.564c1.564 0 2.843-.426 3.696-1.137.853-.71 1.421-1.848 1.421-3.27v-1.42l-2.558.141c-1.99 0-3.412.285-4.407.853-.852.569-1.279 1.28-1.279 2.274 0 .853.284 1.422.853 1.848s1.137.711 2.274.711zm30.56 1.564v-9.808c0-1.28-.284-2.132-.995-2.7-.568-.57-1.563-.854-2.985-.854-1.705 0-2.985.427-3.837 1.28-.853.853-1.28 2.274-1.28 4.264v7.96H99.15v-15.067h2.132l.426 2.132h.142a6.293 6.293 0 0 1 2.133-1.706c.995-.426 1.99-.568 3.127-.568 1.99 0 3.553.426 4.548 1.279.995.853 1.564 2.274 1.564 4.264v9.808h-2.417zm25.443-1.99c-1.279 1.563-3.127 2.274-5.401 2.274-2.132 0-3.838-.71-5.117-1.99s-1.848-3.27-1.848-5.686.569-4.406 1.848-5.827c1.28-1.422 2.985-2.133 5.117-2.133 2.274 0 3.98.711 5.26 2.275h.141l-.142-1.137v-7.107h2.559v21.463h-2.132l-.285-2.132zm-5.117.426c1.706 0 2.985-.426 3.838-1.28s1.137-2.273 1.137-4.121v-.427c0-2.132-.426-3.695-1.137-4.548s-1.99-1.422-3.838-1.422c-1.421 0-2.558.569-3.411 1.564-.853.995-1.137 2.558-1.137 4.406 0 1.99.426 3.412 1.137 4.407.71.852 1.848 1.421 3.411 1.421zm18.905-17.625c0-.569.142-.853.426-1.137.285-.285.711-.427 1.137-.427.427 0 .711.142.995.427.285.284.427.568.427 1.137 0 .568-.142.853-.427 1.137-.284.284-.71.426-.995.426-.426 0-.852-.142-1.137-.426-.284-.142-.426-.569-.426-1.137zm2.7 19.189h-2.558v-15.067h2.559v15.067zm23.169 0v-9.808c0-1.28-.284-2.132-.995-2.7-.568-.57-1.563-.854-2.985-.854-1.705 0-2.985.427-3.837 1.28-.853.853-1.28 2.274-1.28 4.264v7.96h-2.558v-15.067h2.132l.426 2.132h.142a6.293 6.293 0 0 1 2.133-1.706c.995-.426 1.99-.568 3.127-.568 1.99 0 3.553.426 4.548 1.279.995.853 1.564 2.274 1.564 4.264v9.808h-2.417zm27.718-15.067v1.421l-3.128.284c.285.285.569.711.711 1.28.284.568.284 1.137.284 1.705 0 1.422-.568 2.701-1.705 3.554-1.137.853-2.7 1.28-4.69 1.28-.57 0-.996 0-1.422-.143-1.137.569-1.564 1.137-1.564 1.99 0 .426.142.71.569.853s.995.284 1.99.284h2.985c1.847 0 3.269.284 4.122.995.995.71 1.421 1.706 1.421 2.985 0 1.706-.71 2.985-2.274 3.838-1.422.853-3.696 1.279-6.539 1.279-2.132 0-3.837-.426-5.117-1.137s-1.847-1.706-1.847-3.127c0-.853.284-1.706.995-2.417.71-.71 1.563-1.137 2.7-1.421a2.21 2.21 0 0 1-1.137-.853c-.284-.426-.426-.853-.426-1.28 0-.568.142-.994.426-1.42.284-.427.853-.853 1.564-1.138-.853-.284-1.564-.852-2.132-1.705s-.853-1.706-.853-2.7c0-1.707.568-2.986 1.705-3.839 1.138-.853 2.701-1.279 4.691-1.279.853 0 1.706.142 2.416.284h6.255zm-13.362 17.625c0 .853.427 1.421 1.138 1.848.71.426 1.847.568 3.269.568 2.132 0 3.695-.284 4.69-.852.995-.569 1.564-1.422 1.564-2.275 0-.852-.284-1.421-.853-1.705s-1.563-.427-3.127-.427h-2.985c-1.137 0-1.99.285-2.7.711-.57.426-.996 1.137-.996 2.132zm1.422-12.793c0 .995.284 1.848.995 2.417.71.568 1.563.853 2.7.853 2.417 0 3.696-1.137 3.696-3.27 0-2.274-1.28-3.41-3.696-3.41-1.137 0-2.132.283-2.7.852-.71.569-.995 1.421-.995 2.558zm53.444 10.235h-2.558v-9.524H230.77v9.524h-2.558v-20.184h2.558v8.528h11.798v-8.528h2.558v20.184zm26.58-7.534c0 2.417-.71 4.406-2.132 5.828-1.421 1.421-3.269 2.132-5.685 2.132-1.564 0-2.843-.284-3.98-.995a6.198 6.198 0 0 1-2.7-2.7c-.57-1.138-.996-2.56-.996-4.123 0-2.416.711-4.406 1.99-5.685 1.422-1.422 3.27-1.99 5.686-1.99s4.264.71 5.543 2.132 2.274 2.985 2.274 5.401zm-12.792 0c0 1.99.426 3.411 1.28 4.406.852.995 2.131 1.564 3.837 1.564 1.706 0 2.985-.569 3.838-1.564.853-.995 1.279-2.416 1.279-4.406 0-1.848-.426-3.411-1.28-4.406-.852-.995-2.131-1.564-3.837-1.564-1.706 0-2.985.427-3.696 1.422-.995 1.137-1.421 2.558-1.421 4.548zm31.129-7.818c.71 0 1.42 0 1.99.143l-.285 2.132c-.71-.142-1.28-.142-1.848-.142-1.421 0-2.558.426-3.411 1.42-.995.996-1.421 2.275-1.421 3.697v8.102h-2.559v-15.067h2.132l.284 2.843h.143c.568-.995 1.421-1.706 2.274-2.275.71-.568 1.563-.853 2.7-.853zm11.229-3.837c0-.569.142-.853.426-1.137.284-.285.71-.427 1.137-.427.427 0 .71.142.995.427.284.284.426.568.426 1.137 0 .568-.142.853-.426 1.137s-.71.426-.995.426c-.426 0-.853-.142-1.137-.426s-.426-.569-.426-1.137zm2.7 19.189h-2.558v-15.067h2.558v15.067zm22.316 0h-12.224v-1.564l9.097-11.798h-8.528v-1.847h11.37v1.847l-9.096 11.514h9.239v1.848zm24.732-7.534c0 2.417-.71 4.406-2.132 5.828-1.421 1.421-3.269 2.132-5.685 2.132-1.564 0-2.843-.284-3.98-.995a6.198 6.198 0 0 1-2.7-2.7c-.57-1.138-.996-2.56-.996-4.123 0-2.416.71-4.406 1.99-5.685 1.422-1.422 3.27-1.99 5.686-1.99s4.264.71 5.543 2.132 2.274 2.985 2.274 5.401zm-12.792 0c0 1.99.426 3.411 1.28 4.406.852.995 2.131 1.564 3.837 1.564 1.706 0 2.985-.569 3.838-1.564.853-.995 1.279-2.416 1.279-4.406 0-1.848-.426-3.411-1.28-4.406-.852-.995-2.131-1.564-3.837-1.564-1.706 0-2.985.427-3.696 1.422-.995 1.137-1.421 2.558-1.421 4.548zm34.966 7.534v-9.808c0-1.28-.284-2.132-.995-2.7-.568-.57-1.563-.854-2.985-.854-1.705 0-2.985.427-3.837 1.28s-1.28 2.274-1.28 4.264v7.96h-2.558v-15.067h2.132l.426 2.132h.142c.569-.71 1.28-1.28 2.133-1.706s1.99-.568 3.127-.568c1.99 0 3.553.426 4.548 1.279.995.853 1.564 2.274 1.564 4.264v9.808h-2.417zm24.875-4.123c0 1.422-.569 2.559-1.706 3.27s-2.843 1.137-4.833 1.137c-2.274 0-3.98-.284-5.259-.995v-2.132c.853.426 1.706.71 2.559.853s1.847.284 2.7.284c1.28 0 2.417-.142 3.127-.569.711-.426 1.138-.995 1.138-1.705 0-.569-.285-1.137-.853-1.564s-1.706-.853-3.27-1.421c-1.563-.569-2.7-.995-3.269-1.422s-1.137-.853-1.421-1.279c-.284-.426-.427-1.137-.427-1.848 0-1.279.569-2.132 1.706-2.843 1.137-.71 2.7-1.137 4.549-1.137 1.847 0 3.553.285 5.259.995l-.853 1.848c-1.706-.568-3.27-.995-4.549-.995-1.137 0-2.132.142-2.7.569-.569.284-.853.853-.853 1.421 0 .427.142.71.284.995.284.284.569.569 1.137.853.569.284 1.422.568 2.985 1.137 1.99.71 3.27 1.28 3.98 1.99.142.71.569 1.564.569 2.558z" class="st2"/><path fill="#2b87c8" d="M3.204 154.069h395.149v1.279H3.204v-1.28z" class="st0"/><path fill="#2b87c8" fill-rule="evenodd" d="M3.204 31.828H87.92v108.027H3.204V31.828z" class="st3" clip-rule="evenodd"/><path fill="#fff" fill-rule="evenodd" d="M3.347 32.681s-.143-.142 0 0l-.143-.853h30.703C58.639 61.536 76.69 96.502 88.204 136.585 66.172 96.36 37.887 61.82 3.347 32.681z" class="st4" clip-rule="evenodd"/><path fill="#ece2e1" fill-rule="evenodd" d="M87.92 37.514v24.164l-.142.142c-13.504 15.067-26.296 33.687-38.662 56.003 9.523-28.712 22.458-55.435 38.662-80.167.142 0 .142-.142.142-.142z" class="st5" clip-rule="evenodd"/></svg>