<svg xmlns="http://www.w3.org/2000/svg" role="img" viewBox="96.81 148.81 477.88 223.88"><title>Magalix (member) logo</title><g fill="none" fill-rule="evenodd"><path fill="#201751" d="M173.084 327.5854h-.132c-.606 0-1.178.143-1.689.389-.018.006-.03.009-.03.009l-29.111 14.705c-.385.194-1.081.169-1.465-.024l-28.484-14.51c-.614-.403-1.348-.64-2.139-.64h-.132c-2.155 0-3.902 1.747-3.902 3.903v28.464c0 2.155 1.747 3.902 3.902 3.902h.132c2.156 0 3.904-1.747 3.904-3.902v-22.017l24.188 12.516c1.924.995 4.197 1.077 6.126.091l24.798-12.653v22.134c0 2.155 1.746 3.903 3.902 3.903h.132c2.155 0 3.903-1.748 3.903-3.903v-28.464c0-2.155-1.748-3.903-3.903-3.903"/><path fill="#5FB4E5" d="M563.3906 334.8555c1.406-.678 2.227-2.084 2.227-3.554 0-.575-.125-1.156-.393-1.708-.951-1.959-3.31-2.78-5.269-1.834l-27.919 13.51 9.01 4.396 22.344-10.81z"/><path fill="#201751" d="M563.4629 356.5293l-59.18-28.667c-1.916-.928-4.221-.127-5.15 1.789-.928 1.916-.127 4.222 1.789 5.15l22.224 10.765-22.225 10.754c-1.407.678-2.227 2.084-2.227 3.554 0 .575.125 1.155.393 1.708.945 1.959 3.304 2.78 5.263 1.834l27.842-13.468 27.91 13.52c1.916.929 4.221.127 5.15-1.789.928-1.916.127-4.222-1.789-5.15m-314.3037.4189l-20.469-27.374c-.955-1.291-2.189-2.302-3.705-3.033-1.516-.729-3.117-1.094-4.802-1.094-1.797 0-3.481.408-5.053 1.221-1.573.815-2.836 1.867-3.79 3.158l-20.468 27.543c-.563.619-.842 1.432-.842 2.443 0 1.124.393 2.078 1.179 2.864.786.787 1.74 1.179 2.864 1.179 1.234 0 2.273-.506 3.116-1.516l19.794-26.28c.337-.448.8-.939 1.39-1.474.589-.533 1.192-.8 1.81-.8.619 0 1.222.267 1.812.8.59.535 1.08 1.026 1.474 1.474l19.625 26.196c.786 1.067 1.853 1.6 3.201 1.6 1.122 0 2.077-.392 2.864-1.179.785-.786 1.179-1.74 1.179-2.864 0-.561-.114-1.08-.337-1.558-.225-.476-.506-.912-.842-1.306m19.7012-18.1089c.701-1.011 1.656-1.866 2.863-2.569 1.207-.702 2.793-1.053 4.76-1.053h43.072c1.123 0 2.076-.392 2.864-1.179.785-.786 1.179-1.74 1.179-2.864 0-1.123-.394-2.076-1.179-2.863-.788-.786-1.741-1.18-2.864-1.18h-44.925c-2.416 0-4.578.562-6.486 1.685-1.909 1.124-3.538 2.568-4.886 4.337-1.347 1.769-2.373 3.735-3.074 5.896-.703 2.163-1.053 4.311-1.053 6.444 0 2.078.337 4.211 1.011 6.401.674 2.19 1.642 4.17 2.906 5.938 1.263 1.769 2.792 3.216 4.59 4.338 1.797 1.124 3.847 1.685 6.15 1.685h39.703c1.402 0 2.723-.266 3.959-.8 1.234-.533 2.316-1.264 3.242-2.191.927-.926 1.643-2.021 2.148-3.284.505-1.263.758-2.596.758-4.001v-1.853c0-1.403-.253-2.738-.758-4.001-.505-1.263-1.221-2.358-2.148-3.284-.926-.927-2.008-1.657-3.242-2.191-1.236-.533-2.557-.8-3.959-.8h-18.054c-1.124 0-2.077.394-2.864 1.179-.787.787-1.179 1.741-1.179 2.864 0 1.123.392 2.078 1.179 2.864.787.787 1.74 1.179 2.864 1.179h17.717c.786 0 1.417.309 1.895.927.476.618.715 1.348.715 2.189 0 .843-.266 1.573-.8 2.19-.534.619-1.137.927-1.81.927h-36.671c-1.967 0-3.553-.35-4.76-1.053-1.207-.701-2.162-1.559-2.863-2.569-.703-1.011-1.18-2.119-1.432-3.328-.253-1.206-.38-2.315-.38-3.326 0-1.011.127-2.119.38-3.327.252-1.207.729-2.316 1.432-3.327m122.6943 18.1089l-20.468-27.374c-.955-1.291-2.189-2.302-3.705-3.033-1.516-.729-3.117-1.094-4.802-1.094-1.797 0-3.482.408-5.053 1.221-1.573.815-2.836 1.867-3.791 3.158l-20.467 27.543c-.563.619-.842 1.432-.842 2.443 0 1.124.392 2.078 1.179 2.864.786.787 1.739 1.179 2.864 1.179 1.234 0 2.273-.506 3.116-1.516l19.794-26.28c.336-.448.8-.939 1.39-1.474.589-.533 1.192-.8 1.81-.8.619 0 1.222.267 1.812.8.589.535 1.08 1.026 1.474 1.474l19.625 26.196c.786 1.067 1.853 1.6 3.2 1.6 1.123 0 2.078-.392 2.864-1.179.786-.786 1.18-1.74 1.18-2.864 0-.561-.114-1.08-.337-1.558-.225-.476-.506-.912-.843-1.306m70.1973-1.1792H412.89c-.842 0-1.587-.308-2.233-.927-.645-.616-.968-1.346-.968-2.189v-21.479c0-1.123-.408-2.076-1.221-2.863-.815-.786-1.756-1.18-2.822-1.18-1.123 0-2.078.394-2.864 1.18-.787.787-1.178 1.74-1.178 2.863v21.479c0 1.573.307 3.032.926 4.38.618 1.347 1.446 2.526 2.485 3.537 1.038 1.011 2.259 1.811 3.664 2.401 1.402.589 2.89.884 4.464.884h48.609c1.122 0 2.076-.392 2.864-1.179.785-.786 1.178-1.74 1.178-2.864 0-1.123-.393-2.077-1.178-2.864-.788-.785-1.742-1.179-2.864-1.179m20.1806-28.6377c-1.124 0-2.078.394-2.864 1.18-.787.787-1.179 1.74-1.179 2.863v28.638c0 1.124.392 2.078 1.179 2.864.786.787 1.74 1.179 2.864 1.179 1.122 0 2.076-.392 2.863-1.179.786-.786 1.18-1.74 1.18-2.864v-28.638c0-1.123-.394-2.076-1.18-2.863-.787-.786-1.741-1.18-2.863-1.18"/><g><path fill="#5FB4E5" d="M431.84131 294.16374c24.401 0 21.551-67.879-7.114-107.527-3.534-3.538-5.248-5.344-9.787-5.344-18.538 0-29.916 25.436-41.521 52.174 3.482-4.241 7.252-6.891 11.631-6.891 32.58 0 19.56 67.588 46.791 67.588m-109.501-74.7725c-2.542 4.144-4.86 6.727-7.11 6.727-3.897 0-7.598-5.756-12.901-11.894-11.596-5.009-26.386 18.306-38.68 41.227 3.278-3.86 7.144-6.387 11.985-6.387 5.08 0 11.184 3.167 14.211 8.473-.24-.386-.482-.772-.719-1.152 12.92 7.252 22.26-13.01 33.214-36.994"/><path fill="#201751" d="M376.18801 158c-25.83-.22486-40.956 33.16214-53.848 61.39114-10.954 23.984-20.294 44.246-33.214 36.994.238.38.479.766.719 1.153 9.901 15.87 22.965 37.193 34.11 36.777.564 0 1.117-.031 1.67-.066.431-.032.857-.08 1.281-.136 21.632-2.503 34.206-32.291 46.513-60.647 11.605-26.737 22.983-52.173 41.521-52.173 4.539 0 6.253 1.806 9.787 5.343.05.05.096.095.146.146-12.919-18.204-30.538-28.78214-48.685-28.78214m-100.3076 39.86634c-21.246 0-38.908 24.21-47.266 48.402-8.529 23.998-7.617 48.294 8.5 48.294 4.412 0 7.784-3.952 10.871-9.525 4.295-6.848 8.788-16.602 14.084-26.623.522-.985 1.049-1.974 1.58-2.963 12.293-22.921 27.084-46.236 38.68-41.227.059.026.117.04.176.067-5.871-6.399-14.873-16.425-26.625-16.425"/></g></g></svg>