<svg xmlns="http://www.w3.org/2000/svg" role="img" xmlns:xlink="http://www.w3.org/1999/xlink" viewBox="4.87 -5.63 500.76 250.76"><title>Magalix (member) logo</title><defs><radialGradient id="a" cx="301.713" cy="39.841" r="137.402" gradientUnits="userSpaceOnUse"><stop offset="0" stop-color="#0098d6"/><stop offset="1" stop-color="#3e2777"/></radialGradient><radialGradient id="d" cx="179.144" cy="75.577" r="88.668" xlink:href="#a"/><linearGradient id="b" x1="310.365" x2="399.481" y1="57.609" y2="180.266" gradientUnits="userSpaceOnUse"><stop offset="0" stop-color="#000001"/><stop offset=".089" stop-color="#212122"/><stop offset=".281" stop-color="#646464"/><stop offset=".464" stop-color="#9b9b9b"/><stop offset=".633" stop-color="#c6c6c7"/><stop offset=".784" stop-color="#e5e5e5"/><stop offset=".911" stop-color="#f8f8f8"/><stop offset="1" stop-color="#fff"/></linearGradient><linearGradient id="c" x1="184.089" x2="232.308" y1="81.219" y2="117.554" gradientUnits="userSpaceOnUse"><stop offset="0" stop-color="#000001"/><stop offset="1" stop-color="#fff"/></linearGradient></defs><path fill="none" d="M-6.029-222.506h507.266V284.76H-6.029z"/><g data-name="Layer 1"><path fill="url(#b)" fill-rule="evenodd" d="M292.225 109.25a22.583 22.583 0 0 1 17.019-6.048c5.856.25 11.459 3.368 16.472 9.109 8.023 9.187 12.973 20.513 17.093 31.849 2.78 7.651 6.054 17.593 12.37 23.657 4.093 3.93 10.394 6.586 16.142 6.116 19.433-1.592 21.179-32.973 19.959-47.42a153.816 153.816 0 0 0-15.473-55.342 43.841 43.841 0 0 0-7.415-8.43 36.891 36.891 0 0 0-23.533-8.073c-16.601 0-26.932 10.419-35.42 22.993a226.47 226.47 0 0 0-17.214 31.588z"/><path fill="url(#a)" fill-rule="evenodd" d="M240.566 80.483c-2.588 11.526-8.73 32.81-15.997 41.574a21.929 21.929 0 0 1-14.374 7.828 22.313 22.313 0 0 1-15.857-4.129c3.64 4.67 5.832 12.266 8.837 18.846 7.505 16.437 23.78 30.082 39.892 28.456 12.324-1.243 21.333-11.011 29.113-22.497 8.96-13.228 14.55-28.745 19.346-39.73q.53-1.214 1.1-2.472l.015-.034.013-.028c.836-1.856 1.743-3.78 2.702-5.741l.1-.204a251.55 251.55 0 0 1 6.176-11.843l.013-.024c2.683-4.863 5.411-9.546 8.13-13.573 8.488-12.574 18.818-22.993 35.42-22.993 11.328 0 21.405 4.492 28.102 12.405a158.67 158.67 0 0 0-37.503-45.678c-13.876-11.558-29.11-18.79-44.638-15.423-18.975 4.115-32.715 22.787-40.567 41.119-4.771 11.14-7.375 22.35-10.023 34.14z"/><path fill="url(#c)" fill-rule="evenodd" d="M225.492 79.832a45.272 45.272 0 0 0-12.631-1.682 41.982 41.982 0 0 0-19.727 5.564 61.53 61.53 0 0 0-17.187 14.813 88.333 88.333 0 0 0-13.688 23.217 14.291 14.291 0 0 1 12.908-8.279c3.446.018 6.49 1.209 9.92 3.48a39.329 39.329 0 0 1 9.21 8.748l.057.074a22.311 22.311 0 0 0 15.84 4.118 21.929 21.929 0 0 0 14.375-7.828c7.267-8.765 13.409-30.048 15.997-41.574.884-3.936 1.763-7.807 2.72-11.633-2.184 8.484-8.246 11.521-13.685 11.628a11.797 11.797 0 0 1-4.11-.646z"/><path fill="url(#d)" fill-rule="evenodd" d="M147.006 64.185c-20.322 21.22-31.467 50.72-25.81 82.959a103.225 103.225 0 0 0 3.69 14.596c2.277 6.582 6.48 12.158 14.473 12.158a14.075 14.075 0 0 0 12.609-7.813c3.053-6.135 3.27-16.421 4.404-23.182a101.864 101.864 0 0 1 5.729-20.763 88.561 88.561 0 0 1 14.16-24.41 61.53 61.53 0 0 1 17.186-14.813 41.122 41.122 0 0 1 28.722-4.764c-5.672-3.791-10.045-11.502-15.19-17.839-6.472-7.973-16.23-11.89-25.59-12.418-12.927-.728-24.888 6.375-34.383 16.29z"/><path d="M213.401 205.691c-8.333 0-16.666-.02-24.999.01a8.17 8.17 0 0 0-7.808 4.965 13.011 13.011 0 0 0-.944 6.605 11.839 11.839 0 0 0 .83 4.424 8.402 8.402 0 0 0 7.939 5.2c14.796.063 29.593.036 44.39.057a2.463 2.463 0 0 0 2.682-1.627 4.074 4.074 0 0 0-.486-3.993 1.47 1.47 0 0 0-1.223-.573c-8.796.264-17.596.054-26.393.116-2.492.017-4.988.08-7.476-.023a5.26 5.26 0 0 1-4.763-2.653 4.222 4.222 0 0 1 2.086-5.85 7.163 7.163 0 0 1 2.82-.605c11.059.03 22.119-.076 33.176.055a11.145 11.145 0 0 1 11.195 11.1c-.046 2.803-.105 5.506-1.859 7.899a10.793 10.793 0 0 1-9.01 4.812q-23.538.064-47.078.006c-5.089-.012-8.753-2.706-11.553-6.679a21.142 21.142 0 0 1-3.877-15.895c.983-6.275 5.486-13.687 12.955-15.727a17.653 17.653 0 0 1 4.623-.524q25.116-.04 50.233-.017a6.285 6.285 0 0 1 3.362.79 4.096 4.096 0 0 1 2.147 4.31 4.238 4.238 0 0 1-2.864 3.396 7.704 7.704 0 0 1-2.988.415q-12.558-.007-25.117-.003zM14.859 216.204c0-5.139.181-10.286-.074-15.412-.136-2.745 3.317-4.568 5.578-3.406 5.262 2.703 10.573 5.309 15.864 7.952 4.906 2.451 9.819 4.89 14.715 7.36a3.333 3.333 0 0 0 3.225.01q14.969-7.51 29.954-14.989c2.628-1.315 4.837-.7 6.166 1.708a3.565 3.565 0 0 1 .396 1.796q-.007 15.007-.005 30.013a4.202 4.202 0 0 1-8.302.937 8.553 8.553 0 0 1-.177-1.968q-.018-10.16-.009-20.32c0-1.673-.202-1.76-1.73-.992-8.133 4.09-16.283 8.146-24.407 12.254a7.391 7.391 0 0 1-7.11-.065c-8.086-4.095-16.194-8.147-24.29-12.225-1.31-.66-1.543-.544-1.545.924-.006 6.89.009 13.78-.01 20.67-.008 2.917-2.005 5.041-4.603 4.975a3.59 3.59 0 0 1-3.636-3.69q-.004-7.767 0-15.532zm413.609-19.18a3.615 3.615 0 0 1 1.921.479q12.698 6.053 25.402 12.094c7.558 3.584 15.133 7.134 22.694 10.714q7.647 3.62 15.272 7.286a4.137 4.137 0 0 1 2.208 5.544 4.267 4.267 0 0 1-5.837 1.983l-28.485-13.493a3.007 3.007 0 0 0-2.782-.042q-14.281 6.798-28.584 13.551a4.23 4.23 0 0 1-5.77-1.928 4.01 4.01 0 0 1 2.012-5.5c2.916-1.474 5.88-2.854 8.833-4.253q6.963-3.299 13.938-6.571c.275-.13.704-.218.671-.56-.042-.439-.542-.508-.88-.669q-11.072-5.255-22.149-10.502c-2.432-1.157-3.412-3.275-2.564-5.398a4.54 4.54 0 0 1 4.1-2.735zm-62.476 29.924q13.486.001 26.972.005a4.593 4.593 0 0 1 4.412 3.501 4.498 4.498 0 0 1-2.483 4.723 4.914 4.914 0 0 1-2.27.448q-26.796.004-53.593-.01a12.74 12.74 0 0 1-11.793-8.754 9.774 9.774 0 0 1-.446-2.969c.044-5.601-.011-11.203-.019-16.805-.002-1.783.17-3.577.024-5.346a4.703 4.703 0 0 1 4.472-4.864c2.255-.038 4.355 2.186 4.468 4.704.033.738.01 1.479.01 2.218l.003 19.383c.003 2.717 1.011 3.755 3.737 3.76q13.253.022 26.506.006zm-206.449 8.671a3.847 3.847 0 0 1-3.138-1.694q-6.789-8.844-13.532-17.723-3.755-4.919-7.535-9.818a9.181 9.181 0 0 0-1.057-1.088c-1.672-1.547-3.233-1.56-4.809.076a71.592 71.592 0 0 0-4.871 6.117c-5.472 7.084-10.9 14.203-16.354 21.302a13.145 13.145 0 0 1-1.386 1.577 4.28 4.28 0 0 1-6.346-5.71c7.236-9.56 14.45-19.14 21.735-28.663a11.696 11.696 0 0 1 11.503-4.751c3.431.485 5.997 2.497 8.083 5.278 6.375 8.499 12.84 16.93 19.272 25.387.754.991 1.534 1.963 2.263 2.971a3.645 3.645 0 0 1 .402 4.26 4.447 4.447 0 0 1-4.23 2.479zm124.792-40.528c5.078.074 8.199 1.557 10.523 4.596q10.032 13.123 20.026 26.275c.825 1.082 1.71 2.128 2.44 3.27a3.727 3.727 0 0 1-.767 5.148 4.164 4.164 0 0 1-5.337.555 12.11 12.11 0 0 1-2.654-3.08c-5.074-6.603-10.075-13.262-15.175-19.845a71.446 71.446 0 0 0-5.076-6.393c-1.974-2.022-3.594-2.045-5.442.119-2.02 2.364-3.86 4.882-5.758 7.348q-7.977 10.356-15.947 20.719a4.302 4.302 0 0 1-5.09 1.548 4.51 4.51 0 0 1-2.672-5.054 3.308 3.308 0 0 1 .702-1.453l15.174-19.989c2.114-2.79 4.23-5.579 6.305-8.398 2.25-3.057 6.024-5.505 8.748-5.366zm121.762 21.235l-.001-14.478c-.003-2.483 2.435-5.598 5.554-4.828a4.543 4.543 0 0 1 3.102 2.607 6.744 6.744 0 0 1 .673 2.921c-.028 9.146-.004 18.291-.025 27.437a5.68 5.68 0 0 1-1.992 4.663 3.93 3.93 0 0 1-4.381.6 4.813 4.813 0 0 1-2.911-4.446c-.058-4.825-.019-9.65-.019-14.476z"/><path fill="#4890be" d="M491.97 197.01a4.324 4.324 0 0 1 4.409 3.125 4.054 4.054 0 0 1-2.067 4.653c-1.684.961-3.477 1.733-5.232 2.569-5.301 2.525-10.61 5.033-15.907 7.57a2.533 2.533 0 0 1-2.438-.03c-2.393-1.212-4.819-2.36-7.234-3.529-.313-.151-.72-.234-.773-.633-.062-.47.41-.518.699-.655q9-4.29 18.012-8.557c2.775-1.319 5.554-2.63 8.307-3.991a4.122 4.122 0 0 1 2.224-.522z"/></g></svg>