<svg xmlns="http://www.w3.org/2000/svg" role="img" viewBox="-9.27 -9.27 482.04 419.54"><title>Magellano logo</title><path fill="#202526" d="M37.2798 359.125h-.7957l-18.6548-45.488H.19128v67.679H14.0719V337.11h.5746l17.5055 43.852h9.46l17.5054-43.719h.5305v44.073h13.8806v-67.679H55.8904l-18.6106 45.488zm84.3002-25.153c-2.033-1.37-4.332-2.431-6.896-3.095-2.608-.663-5.305-.972-8.134-.972-4.023 0-7.6033.619-10.6977 1.812-3.0502 1.238-5.5699 2.962-7.5149 5.217-1.9451 2.254-3.227 4.951-3.8901 8.001l12.9964 1.061c.4863-1.68 1.4588-3.05 2.9623-4.2 1.503-1.105 3.536-1.68 6.056-1.68 2.387 0 4.243.575 5.57 1.724 1.326 1.15 1.945 2.741 1.945 4.863v.177c0 1.105-.398 1.901-1.238 2.431-.796.531-2.122.973-3.934 1.238-1.813.309-4.2.575-7.118.884-2.5192.265-4.9063.663-7.205 1.238s-4.3322 1.459-6.1004 2.652c-1.7682 1.15-3.1828 2.697-4.2438 4.598-1.0167 1.945-1.5472 4.288-1.5472 7.117 0 3.359.7515 6.144 2.2103 8.399 1.4588 2.21 3.4481 3.89 6.012 5.039 2.5197 1.15 5.4373 1.724 8.6643 1.724 2.5198 0 4.7298-.353 6.6308-1.016 1.901-.664 3.581-1.592 4.951-2.83 1.37-1.193 2.476-2.608 3.271-4.199h.398v7.029h13.35v-34.216c0-3.006-.574-5.614-1.768-7.78-1.149-2.166-2.741-3.934-4.774-5.349l.044.133zm-7.471 29.176c0 1.812-.442 3.403-1.37 4.774-.884 1.414-2.166 2.564-3.713 3.359-1.592.796-3.404 1.238-5.482 1.238-2.078 0-3.9342-.53-5.3488-1.503-1.4145-1.017-2.1218-2.431-2.1218-4.376 0-1.326.3536-2.431 1.0167-3.36.6631-.884 1.6356-1.591 2.8734-2.122 1.2375-.53 2.6965-.928 4.3325-1.149.751-.133 1.635-.265 2.564-.398.972-.132 1.9-.309 2.873-.486.928-.177 1.812-.398 2.564-.619.751-.265 1.37-.486 1.812-.796v5.438zm58.617-24.048h-.53c-.619-1.371-1.548-2.741-2.741-4.2-1.15-1.414-2.741-2.608-4.642-3.58-1.901-.973-4.288-1.415-7.161-1.415-3.713 0-7.161.972-10.256 2.873-3.138 1.945-5.614 4.819-7.471 8.665-1.856 3.846-2.785 8.664-2.785 14.411 0 5.746.929 10.255 2.741 13.924 1.857 3.67 4.332 6.366 7.427 8.134 3.138 1.769 6.586 2.653 10.388 2.653 2.697 0 4.995-.398 6.94-1.194 1.945-.796 3.537-1.812 4.775-3.094 1.237-1.238 2.166-2.608 2.785-3.979h.618v9.283c0 3.493-1.016 5.968-3.006 7.471-1.989 1.503-4.509 2.21-7.559 2.21-2.077 0-3.801-.265-5.216-.795-1.415-.531-2.564-1.238-3.448-2.122-.84-.884-1.459-1.857-1.857-2.829l-13.04 1.768c.574 2.652 1.812 5.084 3.757 7.205 1.945 2.122 4.509 3.802 7.736 5.084 3.227 1.238 7.161 1.857 11.715 1.857 4.818 0 9.15-.708 12.863-2.166 3.714-1.459 6.676-3.669 8.753-6.543 2.122-2.917 3.183-6.498 3.183-10.83v-51.235h-13.969v8.532-.088zm-1.149 24.313c-.84 2.122-2.078 3.757-3.625 4.907-1.547 1.149-3.492 1.724-5.747 1.724-2.254 0-4.244-.575-5.835-1.769-1.547-1.149-2.785-2.784-3.581-4.906-.84-2.122-1.238-4.642-1.238-7.56 0-2.917.398-5.437 1.238-7.647s1.99-3.934 3.581-5.172c1.591-1.238 3.536-1.857 5.835-1.857s4.2.575 5.791 1.813c1.591 1.193 2.785 2.917 3.625 5.127.84 2.167 1.238 4.775 1.238 7.736 0 2.962-.398 5.526-1.282 7.648v-.044zm65.91-27.098c-2.166-2.122-4.686-3.758-7.603-4.819-2.918-1.061-6.012-1.591-9.372-1.591-4.995 0-9.283 1.105-12.996 3.315-3.713 2.211-6.543 5.261-8.576 9.239-2.034 3.935-3.05 8.532-3.05 13.748 0 5.217 1.016 9.991 3.05 13.881 2.033 3.89 4.907 6.94 8.664 9.062 3.758 2.122 8.267 3.183 13.483 3.183 4.2 0 7.869-.663 11.096-1.945 3.182-1.282 5.835-3.095 7.868-5.437 2.034-2.299 3.404-5.04 4.067-8.179l-13.041-.884c-.486 1.282-1.193 2.343-2.121 3.227-.929.884-2.034 1.548-3.36 1.99-1.282.442-2.741.663-4.288.663-2.343 0-4.376-.487-6.1-1.459-1.724-1.017-3.051-2.387-3.979-4.244-.928-1.812-1.414-3.978-1.414-6.498l34.568-.044v-3.846c0-4.332-.618-8.09-1.812-11.317-1.194-3.227-2.918-5.923-5.084-8.045zm-27.584 14.499c.088-1.812.53-3.492 1.37-4.995.929-1.636 2.211-2.962 3.846-3.934 1.636-.973 3.537-1.459 5.659-1.459 2.121 0 3.845.442 5.393 1.326 1.547.884 2.785 2.122 3.669 3.669.884 1.547 1.326 3.36 1.326 5.393h-21.263zm57.688-37.177h-14.057v67.679h14.057v-67.679zm25.33 0h-14.057v67.679h14.057v-67.679zm47.787 20.335c-2.034-1.37-4.333-2.431-6.897-3.095-2.608-.663-5.304-.972-8.133-.972-4.023 0-7.604.619-10.698 1.812-3.05 1.238-5.57 2.962-7.515 5.217-1.945 2.254-3.227 4.951-3.89 8.001l12.996 1.061c.487-1.68 1.459-3.05 2.962-4.2 1.503-1.105 3.536-1.68 6.056-1.68 2.387 0 4.244.575 5.57 1.724 1.326 1.15 1.945 2.741 1.945 4.863v.177c0 1.105-.398 1.901-1.238 2.431-.84.531-2.121.973-3.934 1.238-1.812.309-4.199.575-7.117.884-2.52.265-4.907.663-7.206 1.238-2.298.575-4.332 1.459-6.1 2.652-1.768 1.15-3.183 2.697-4.244 4.598-1.016 1.945-1.547 4.288-1.547 7.117 0 3.359.752 6.144 2.21 8.399 1.459 2.21 3.448 3.89 6.012 5.039 2.52 1.15 5.438 1.724 8.665 1.724 2.519 0 4.73-.353 6.631-1.016 1.9-.664 3.58-1.592 4.951-2.83 1.37-1.193 2.431-2.608 3.271-4.199h.398v7.029h13.35v-34.216c0-3.006-.575-5.614-1.768-7.78-1.15-2.166-2.741-3.934-4.775-5.349l.045.133zm-7.471 29.176c0 1.812-.442 3.403-1.371 4.774-.884 1.414-2.166 2.564-3.713 3.359-1.591.796-3.404 1.238-5.481 1.238-2.078 0-3.935-.53-5.349-1.503-1.415-1.017-2.122-2.431-2.122-4.376 0-1.326.354-2.431 1.017-3.36.663-.884 1.635-1.591 2.873-2.122 1.238-.53 2.697-.928 4.332-1.149.752-.133 1.636-.265 2.564-.398.973-.132 1.901-.309 2.829-.486.929-.177 1.813-.398 2.564-.619.752-.265 1.371-.486 1.813-.796v5.393l.044.045zm63.391-30.944c-2.608-1.548-5.703-2.299-9.239-2.299-3.758 0-6.985.884-9.637 2.608-2.653 1.724-4.509 4.067-5.659 7.029h-.574v-8.93h-13.394v50.748h14.057v-29.352c0-2.166.442-4.023 1.238-5.57.795-1.547 1.945-2.741 3.359-3.581 1.459-.795 3.095-1.193 4.996-1.193 2.829 0 5.039.884 6.63 2.608 1.592 1.768 2.387 4.199 2.387 7.294v29.794h14.058v-32.314c0-3.934-.707-7.338-2.166-10.167-1.459-2.874-3.492-5.084-6.101-6.587l.045-.088zm64.231 10.167c-2.034-3.934-4.907-6.985-8.665-9.195-3.713-2.166-8.178-3.271-13.306-3.271-5.128 0-9.548 1.105-13.306 3.271-3.757 2.21-6.63 5.261-8.664 9.195-2.033 3.934-3.05 8.532-3.05 13.748 0 5.216 1.017 9.725 3.05 13.704 2.034 3.934 4.907 6.984 8.664 9.194 3.714 2.167 8.178 3.316 13.306 3.316 5.128 0 9.593-1.105 13.306-3.316 3.758-2.21 6.631-5.26 8.665-9.194 2.033-3.935 3.05-8.532 3.05-13.704 0-5.172-1.017-9.858-3.05-13.748zm-12.466 21.572c-.796 2.299-1.99 4.156-3.537 5.482-1.547 1.326-3.492 1.989-5.835 1.989s-4.332-.663-5.924-1.989c-1.591-1.326-2.785-3.139-3.58-5.482-.796-2.343-1.194-4.951-1.194-7.913 0-2.961.398-5.569 1.194-7.868.795-2.299 1.989-4.155 3.58-5.482 1.592-1.326 3.581-2.033 5.924-2.033 2.343 0 4.288.663 5.835 2.033 1.547 1.327 2.741 3.183 3.537 5.482.795 2.299 1.193 4.907 1.193 7.868 0 2.962-.398 5.57-1.193 7.913z"/><path fill="url(#paint0_linear_559_505)" d="M372.624 167.847L348.311 61.6651c-1.238-5.3489-4.863-9.9021-9.814-12.245L239.83 2.12004c-4.907-2.3871-10.698-2.3871-15.604 0L125.603 49.4201c-4.951 2.3871-8.532 6.8961-9.814 12.245L91.476 167.847c-1.2378 5.349.0884 11.007 3.5365 15.339l68.2095 85.185c3.448 4.288 8.62 6.763 14.101 6.763h109.498c5.481 0 10.653-2.475 14.101-6.763l68.21-85.185c3.448-4.288 4.73-9.946 3.536-15.339h-.044zm-26.833 10.035l-55.301 69.049c-3.448 4.288-8.62 6.763-14.102 6.763h-88.765c-5.481 0-10.653-2.475-14.101-6.763l-55.302-69.049c-3.448-4.288-4.73-9.947-3.536-15.34L134.4 76.474c1.237-5.3489 4.862-9.9021 9.813-12.245l79.924-38.3263c4.907-2.3871 10.698-2.3871 15.605 0l79.924 38.3263c4.951 2.3871 8.576 6.8961 9.813 12.245l19.716 86.068c1.238 5.349-.088 11.052-3.536 15.34h.132z"/><path fill="#fff" d="M349.328 162.587l-19.716-86.0688c-1.238-5.3489-4.863-9.9021-9.814-12.245l-79.924-38.3263c-4.906-2.3871-10.697-2.3871-15.604 0l-79.924 38.3263c-4.951 2.3871-8.532 6.8961-9.814 12.245l-19.715 86.0688c-1.238 5.348.088 11.051 3.536 15.339l55.301 69.049c3.448 4.288 8.62 6.764 14.102 6.764h88.765c5.481 0 10.653-2.476 14.102-6.764l55.301-69.049c3.448-4.288 4.73-9.946 3.536-15.339h-.132zm-17.594 12.156l-34.525 43.145-12.952 16.135c-3.448 4.288-8.62 6.763-14.102 6.763h-76.21c-1.238 0-2.432-.176-3.625-.397h-.044c-.354-.089-.663-.177-.973-.266-.884-.265-1.724-.53-2.52-.884-.353-.132-.663-.265-.972-.442-1.061-.53-2.122-1.149-3.05-1.901-.177-.132-.31-.309-.442-.442-.884-.751-1.724-1.547-2.476-2.431l-21.351-26.656-4.951-6.189-21.131-26.435c-3.448-4.288-4.73-9.946-3.536-15.295l3.315-14.411 13.616-59.4567c1.282-5.3931 4.862-9.902 9.813-12.2892l68.608-32.9332h.044c4.907-2.3429 10.698-2.3429 15.604 0l68.652 32.9332c4.951 2.3872 8.576 6.8961 9.813 12.2892l16.887 73.8677c1.238 5.349-.088 11.007-3.492 15.295z"/><path fill="#261658" d="M193.945 240.786c-4.111 0-8.046-1.414-11.229-3.89 3.183 2.52 7.118 3.89 11.229 3.89zm-65.071-73.293c-.309-1.326-.442-2.652-.442-4.022 0 1.37.177 2.696.442 4.022zm206.352-8.045l-16.931-73.8677c-1.237-5.3489-4.862-9.902-9.813-12.2449l-68.608-32.9333c-4.906-2.3871-10.697-2.3871-15.604 0l-68.607 32.9333c-4.951 2.3871-8.532 6.896-9.814 12.2449l-13.615 59.5007 5.835-25.507c8.31-7.028 17.815-12.952 28.424-17.417 53.843-22.456 115.2 1.769 137.038 54.108 6.056 14.455 8.399 29.574 7.559 44.338l-15.958 19.937 36.646-45.753c3.448-4.288 4.73-9.946 3.536-15.339h-.088zM270.73 90.5314c-1.945 1.9008-5.084 1.8566-6.94-.1327-1.901-1.945-1.857-5.0836.132-6.9403 1.99-1.8566 5.084-1.8566 6.941.1327 1.9 1.945 1.856 5.0836-.133 6.9403zm20.909 32.0486c-.972.929-2.519.929-3.492-.044-.928-.972-.928-2.519.044-3.492.973-.928 2.52-.928 3.492.044.929.973.929 2.52-.044 3.492zm11.582-20.378h.928l-5.039 8.266-5.039-8.266-8.267-4.5977 8.267-5.0395 4.597-7.7802 4.597 7.7802 8.267 5.0395-8.267 4.5977h-.044z"/><path fill="#323232" d="M209.859 123.951c.53 2.078.884 4.465 1.149 6.984-.221-2.519-.619-4.906-1.149-6.984zm-20.688 116.084c.353.088.751.221 1.105.309-.398-.088-.752-.221-1.105-.309zm-2.211-.752c-.574-.221-1.105-.486-1.635-.795.53.309 1.105.574 1.635.795z"/><path fill="#D2C4F4" d="M303.486 156.221c-21.837-52.34-83.195-76.5642-137.037-54.108-10.61 4.421-20.114 10.344-28.424 17.417l-9.151 39.874c-1.238 5.349.088 11.007 3.536 15.339l26.082 32.58c-1.017-2.918-1.768-5.924-2.255-9.018-1.016-6.322-.795-12.908.531-19.539l.265-1.415-13.35 1.813-1.724-7.825-1.945-8.885 19.495 3.404.486.442c-.265 3.359.088 6.719 1.149 9.99 3.448 10.919 14.323 18.39 25.86 17.727h.398c5.968-.442 11.184-2.785 15.561-6.985 1.149-1.105 2.298-2.343 3.359-3.713.531-.663.973-1.415 1.371-2.166.177-.354.398-.707.574-1.061 2.299-4.288 5.57-7.869 9.549-10.521 3.492-2.343 7.515-3.978 11.891-4.73l48.759-12.378-4.111 30.944-11.847.31.398 1.282c.53 1.635.928 3.006 1.149 4.465.133.795.221 1.635.309 2.475.221 3.095-.751 7.692-1.503 10.742-.442 1.989-.84 3.36-.84 3.316-4.685 15.604-15.958 28.38-30.722 34.745H270.2c5.481 0 10.653-2.475 14.101-6.763l26.745-33.42c.839-14.764-1.503-29.883-7.56-44.338zm-76.785 4.244c-1.105.265-1.989.619-3.05.972-8.09 2.697-15.074 7.736-19.362 15.03l-21.749 5.703-9.151-42.57-2.254-10.566 15.869 2.697-4.509-20.467-1.414-6.322 13.306 2.343-.575-8.3104 6.675-.4862.707 9.9906 13.13 2.299 1.37 19.494-12.864 1.768.177 2.476 25.065 4.288.132 21.263-1.503.398z"/><path fill="#323232" d="M194.829 133.101l1.37.266v-.442l-1.37.176z"/><path fill="#DFD7F8" d="M159.509 165.902l.486.442c-.265 3.36.088 6.719 1.149 9.991 3.448 10.918 14.323 18.389 25.86 17.726h.398c5.968-.442 11.184-2.785 15.561-6.984 1.149-1.106 2.298-2.343 3.359-3.714.531-.663.973-1.414 1.371-2.166.177-.353.398-.707.574-1.061 2.299-4.288 5.57-7.868 9.549-10.521 3.492-2.343 7.515-3.978 11.891-4.73l29.087-7.382c-13.084-17.063-34.17-26.347-55.92-24.888l.133 1.857 25.065 4.288.132 21.263-1.503.398c-1.105.265-1.989.618-3.05.972-8.09 2.697-15.074 7.736-19.362 15.03l-21.749 5.702-8.797-40.846c-9.991 5.703-18.036 13.616-23.783 22.855l9.46 1.635.089.133zm-3.272 32.403c-1.016-6.322-.795-12.908.531-19.539l.265-1.415-13.35 1.813-.221-.973c-.84 2.564-1.547 5.172-2.078 7.825l17.064 21.307c-1.017-2.918-1.769-5.924-2.255-9.018h.044z"/><path fill="#595959" d="M190.276 240.344c-.398-.088-.752-.221-1.105-.309.353.088.751.221 1.105.309z"/><path fill="#DFD7F8" d="M262.464 183.805l.397 1.282c.531 1.636.929 3.006 1.15 4.465.132.796.221 1.636.309 2.476.221 3.094-.751 7.691-1.503 10.742-.442 1.989-.84 3.359-.84 3.315-4.686 15.605-15.958 28.38-30.723 34.746h21.926c14.632-15.119 21.396-36.47 17.329-57.203l-8.045.221v-.044z"/><path fill="#595959" d="M185.325 238.488c.53.309 1.105.574 1.635.795-.574-.221-1.105-.486-1.635-.795z"/><path fill="#EFEBFC" d="M186.96 194.061h.398c5.968-.442 11.184-2.785 15.561-6.984 1.149-1.106 2.298-2.343 3.359-3.714.531-.663.973-1.414 1.371-2.166.176-.353.397-.707.574-1.061 2.299-4.288 5.57-7.868 9.549-10.521 1.282-.84 2.652-1.591 4.067-2.21-1.857-1.017-3.802-1.812-5.836-2.431-4.774 2.829-8.885 6.675-11.714 11.537l-21.749 5.703-1.636-7.515c-4.023 4.553-6.763 10.079-7.913 16.047 4.156 2.342 8.974 3.624 13.925 3.359l.044-.044z"/><path fill="#BFAFF1" d="M303.221 102.157l8.267-4.597-8.267-5.0394-4.597-7.7802-4.598 7.7802-8.266 5.0394 8.266 4.597 5.04 8.267 5.039-8.267h-.928.044z"/><path fill="#EFEBFC" d="M303.221 102.157l5.968-3.6686-6.41-3.6691-3.227-5.9678-3.227 5.9678-6.41 3.6691 5.968 3.6686 3.669 6.41 3.669-6.41zm-35.895-10.2995c2.71 0 4.907-2.1968 4.907-4.9068 0-2.71-2.197-4.9068-4.907-4.9068s-4.907 2.1968-4.907 4.9068c0 2.71 2.197 4.9068 4.907 4.9068z"/><path fill="#BFAFF1" d="M289.959 123.244c1.368 0 2.476-1.109 2.476-2.476s-1.108-2.475-2.476-2.475c-1.367 0-2.475 1.108-2.475 2.475s1.108 2.476 2.475 2.476z"/><path fill="#43269B" d="M202.83 132.04l-6.631.885v.442l6.808 1.149-.177-2.476zm-1.68-23.561l-.707-9.9906-6.675.4862.575 8.3104 6.807 1.194zm8.93 36.867l-36.691-5.702 9.151 42.57 21.749-5.703c4.288-7.294 11.272-12.333 19.362-15.03l-.088-1.503c-.531-7.426-6.101-13.482-13.483-14.632z"/><path fill="#39383F" d="M182.274 236.454c-.884-.751-1.724-1.547-2.431-2.431.752.928 1.592 1.68 2.431 2.431z"/><path fill="#43269B" d="M278.422 152.552l-1.238 9.416-43.322 10.3c-10.211 1.635-18.787 7.249-23.517 15.383-.663 1.105-1.326 2.21-2.166 3.227-5.526 6.587-12.466 10.168-20.732 10.786h-.398c-12.599.752-24.446-6.63-28.115-17.549-1.105-3.271-1.503-6.631-1.194-9.991l-.53-.442-15.251-2.343 1.724 7.825 13.35-1.813-.265 1.415c-1.371 6.631-1.547 13.217-.531 19.539.487 3.094 1.282 6.1 2.255 9.018l21.351 26.656-14.499-18.08c10.697 12.289 26.169 20.069 43.056 20.29 25.728.309 47.079-16.002 55.39-38.547-.266 1.812-.663 3.58-1.017 5.039.751-3.006 1.724-7.647 1.503-10.742-.044-.84-.177-1.635-.309-2.475-.222-1.459-.619-2.83-1.15-4.465l-.398-1.282 11.847-.31 4.112-30.943.044.088zm-119.798 54.992c-.265-.796-.574-1.592-.795-2.432 1.237 2.299 2.608 4.465 4.111 6.587l-3.316-4.155z"/><path fill="#39383F" d="M190.276 240.344c1.193.266 2.431.398 3.669.398-1.238 0-2.476-.177-3.669-.398z"/><path fill="#43269B" d="M211.008 130.891c-.486-4.995-1.459-9.637-3.36-11.847-3.757-4.376-17.372-6.719-25.197-7.78l4.509 20.467 7.825 1.326 20.82-2.829-4.641.619.044.044z"/><path fill="#6F4AE0" d="M181.081 104.987l1.414 6.321c7.825 1.017 21.44 3.404 25.198 7.78 1.901 2.211 2.873 6.808 3.359 11.847l4.642-.619-1.37-19.494-33.199-5.791-.044-.044zm-9.946 24.092l2.254 10.565 36.691 5.702c7.338 1.15 12.952 7.206 13.483 14.632l.088 1.503c1.061-.353 1.945-.751 3.05-.972l1.503-.398-.132-21.263-56.937-9.725v-.044z"/><path fill="#6F4AE0" d="M157.21 173.682l.53.442c-.309 3.36.089 6.719 1.194 9.991 3.713 10.919 15.516 18.301 28.115 17.549h.398c8.222-.619 15.206-4.243 20.732-10.786.84-1.017 1.503-2.122 2.166-3.227 4.73-8.134 13.306-13.748 23.518-15.383l43.321-10.3 1.238-9.416-48.759 12.377c-9.327 1.592-17.152 7.118-21.44 15.251-.574 1.106-1.193 2.211-1.945 3.227-4.995 6.543-11.361 10.124-18.92 10.654h-.398c-11.537.663-22.412-6.763-25.86-17.682-1.061-3.271-1.415-6.631-1.149-9.991l-.487-.442-19.494-3.404 1.945 8.886 15.251 2.343.044-.089z"/><path fill="#261658" d="M208.4 236.189c-16.887-.221-32.359-8.001-43.056-20.29l14.499 18.08c3.448 4.288 8.62 6.763 14.102 6.763h37.309c14.765-6.365 26.037-19.141 30.723-34.745 0 .088 1.194-4.112 1.857-8.355-8.311 22.545-29.706 38.856-55.39 38.547h-.044z"/><path d="M157.873 205.157c.221.84.53 1.591.796 2.431l3.315 4.155c-1.503-2.077-2.873-4.288-4.111-6.586z"/><defs><linearGradient id="paint0_linear_559_505" x1="98.308" x2="395.347" y1="65.673" y2="248.053" gradientUnits="userSpaceOnUse"><stop offset=".31" stop-color="#5F36DD"/><stop offset="1" stop-color="#261658"/></linearGradient></defs></svg>