<svg xmlns="http://www.w3.org/2000/svg" role="img" viewBox="192.63 50.88 214.50 197.75"><style>svg {enable-background:new 0 0 600 300}</style><path d="M358.11 223.63c2.68-2.03 4.21-5 4.21-8.22 0-6.41-4.33-10.72-10.77-10.72H341.5c-1.65 0-2.98 1.33-2.98 2.98v36.01c0 .43.35.78.78.78h12.59c7.01 0 11.55-4.49 11.55-11.45-.01-3.82-1.94-7.21-5.33-9.38zm-15.29-1.83v-13.2h8.83c4.21 0 6.53 2.35 6.53 6.63 0 3.68-3.31 6.57-7.53 6.57h-7.83zm16.51 11.27c0 4.6-2.6 7.14-7.33 7.14l-9.19-.02v-14.21l8.25.02c4.64-.01 8.27 3.1 8.27 7.07zm-129.02-28.38c-1.33 0-2.22.77-3.06 2.67l-11.45 26.76c-.11.26-.24.62-.35.98-.12-.35-.25-.72-.35-.98l-11.45-26.76c-.84-1.89-1.73-2.67-3.06-2.67h-1.63c-.08 0-.14.06-.15.14l-1.83 39.48c0 .09.07.16.16.16h4.2c.08 0 .15-.07.16-.15l1.22-27.13c.01-.21.02-.47.02-.76.12.34.24.65.35.89l11.65 26.6c.15.33.37.54.73.54.35 0 .58-.21.73-.54l11.65-26.6c.1-.24.22-.55.35-.89 0 .28.01.54.02.76l1.22 27.13c0 .08.07.15.16.15h4.18c.09 0 .16-.07.16-.16l-1.82-39.48c0-.08-.07-.14-.15-.14h-1.66zm90.37 0c-1.33 0-2.22.77-3.06 2.67l-11.45 26.76c-.11.26-.24.62-.35.98-.12-.35-.25-.72-.35-.98L294 207.35c-.84-1.89-1.73-2.67-3.06-2.67h-1.63c-.08 0-.14.06-.15.14l-1.83 39.48c0 .09.07.16.16.16h4.2c.08 0 .15-.07.16-.15l1.22-27.13c.01-.21.02-.47.02-.76.12.34.24.65.35.89l11.65 26.6c.15.33.37.54.73.54.35 0 .58-.21.73-.54l11.65-26.6c.1-.24.22-.55.35-.89 0 .28.01.54.02.76l1.22 27.13c0 .08.07.15.16.15h4.18c.09 0 .16-.07.16-.16l-1.82-39.48c0-.08-.07-.14-.15-.14h-1.64zm-52.54 6.57c-.91-4.03-3.6-6.48-7.22-6.57h-.19c-3.72 0-6.5 2.46-7.42 6.57l-7.77 32.98c-.03.12.06.23.18.23h4.16c.08 0 .15-.06.17-.14l3.29-13.96h14.75l3.35 13.96c.02.08.09.13.17.13h4.11c.12 0 .21-.11.18-.23l-7.76-32.97zm-1.11 14.56h-12.62l3.26-13.97c.45-1.79 1.51-2.74 3.05-2.74h.13c1.47.05 2.48 1 2.91 2.73l3.27 13.98zm136.04-20.24v-.77c0-.09-.07-.16-.16-.16h-.65c-.63 0-1.72.12-2.55.88-.73.67-1.1 1.66-1.1 2.95v22.48c0 4.29-2.4 9.3-9.15 9.3-6.76 0-9.15-5.01-9.15-9.3V208.5c0-1.29-.37-2.29-1.1-2.95-.86-.78-1.97-.89-2.59-.88H376c-.09 0-.16.07-.16.16v.42l-.03 25.68c0 8.42 5.23 13.66 13.65 13.66 8.29 0 13.65-5.36 13.65-13.66l-.04-25.35z"/><linearGradient id="a" x1="262.103" x2="333.896" y1="95.968" y2="54.518" gradientUnits="userSpaceOnUse"><stop offset="0" stop-color="#048089"/><stop offset=".022" stop-color="#0b8287"/><stop offset=".242" stop-color="#2a937b"/><stop offset=".455" stop-color="#3ca16e"/><stop offset=".657" stop-color="#49ac61"/><stop offset=".844" stop-color="#50b559"/><stop offset="1" stop-color="#52b957"/></linearGradient><path fill="url(#a)" d="M254.92 83.53c8.28-13.52 21.88-23.73 38.62-27.29 16.48-3.5 33.73.59 46.7 9.28-2.94 1.28-13.23-4.47-20.36 16.54-4.31 12.71-15.14 15.29-30.48 4.18-21.51-15.6-29.47-.3-34.48-2.71"/><linearGradient id="b" x1="258.607" x2="362.358" y1="152.538" y2="92.637" gradientUnits="userSpaceOnUse"><stop offset="0" stop-color="#048089"/><stop offset=".022" stop-color="#0b8287"/><stop offset=".242" stop-color="#2a937b"/><stop offset=".455" stop-color="#3ca16e"/><stop offset=".657" stop-color="#49ac61"/><stop offset=".844" stop-color="#50b559"/><stop offset="1" stop-color="#52b957"/></linearGradient><path fill="url(#b)" d="M278.17 113.71c11.61 19.98 37.74 28.91 49.85 9.15 7.01-11.44 5.58-30 9.21-40.49 2.05-5.92 7.98-10.33 15.76-3.54 4.82 4.2 8.82 12.56 11.06 21.58 7.95 32.06-11.52 64.5-43.6 72.49-32.08 7.98-64.68-11.73-72.68-43.77-2.79-11.18-2.49-25.42 4.99-31.79 3.95-3.36 10.81-3.53 15.29.66 4.73 4.4 6.42 9.35 10.12 15.71"/></svg>