<svg xmlns="http://www.w3.org/2000/svg" role="img" viewBox="1.51 9.51 285.74 205.24"><title>MariaDB logo</title><style>svg {enable-background:new 0 0 288 237}</style><style>.st66{fill:#686868}</style><g><path fill="none" d="M238.4 20.9c-2.6 1.5-5.1 1.8-7.8 1.9-2.4.1-5 0-8.2.3-26.4 2.7-29.7 31.7-46.6 48.2-1.2 1.2-2.6 2.3-4 3.4-5.9 4.4-13.2 7.6-19.8 10.1-10.8 4.1-21.1 4.4-31.2 8-7.4 2.6-15 6.4-21.1 10.6-1.5 1-3 2.1-4.3 3.2-3.6 2.9-5.9 6.2-8.2 9.5-2.3 3.5-4.6 7-8.1 10.4-5.6 5.5-26.5 1.6-33.9 6.7-.8.6-1.5 1.2-1.9 2.1 4 1.8 6.7.7 11.3 1.2.6 4.4-9.5 7-8 9 11.8 1.7 19 0 28.5-4.1 8.1-3.5 15.9-10.7 25.4-13.8 14-4.5 29.4 0 44.3.9 3.6.2 7.3.2 10.8-.2 5.6-3.4 5.5-16.2 10.9-17.4-.2 18-7.5 28.8-15.2 39.2 16.2-2.9 26-12.3 32.5-24.8 2-3.8 3.7-7.9 5.2-12.2 2.3 1.8 1 7.2 2.2 10.2 11.2-6.2 17.6-20.5 21.8-34.9 4.9-16.7 6.9-33.5 10.1-38.4 3.1-4.8 7.9-7.8 12.3-10.9 5-3.5 9.4-7.1 10.2-13.8-5.2-.5-6.5-1.7-7.2-4.4zM213.6 34c1-4.3 4.4-6.3 10.2-5.8 1.4 6.5-6.4 9.1-10.2 5.8zm14.2 1.7c1.6-4.9 6.2-10.2 8.5-12.5 1-.9 1.2-.3.6.4-1.6 1.7-6.8 7.2-8.4 12.3-.2.7-1.1 1.1-.7-.2zm2.6.4c.9-5.1 4.7-9.1 6.6-11.7.9-1.1 1.2-.5.7.3-1.3 1.9-5.7 6.2-6.6 11.4-.1.9-.9 1.4-.7 0zm3.8.5c-.1.9-.8 1.5-.7.1.5-5.2 2.8-8.4 4.5-11.2.8-1.1 1.1-.6.7.2-1.2 2-4 5.6-4.5 10.9zm5.5-10.1c-1 2.1-2.9 4.8-2.9 10.1 0 .9-.7 1.5-.7.1.1-5.2 1.4-7.4 2.9-10.4.6-1.2 1-.7.7.2zM88.8 175.2c-4 0-7.4 1.5-10.2 4.5-2.8 2.9-4.2 6.4-4.2 10.4s1.4 7.5 4.2 10.5c2.8 2.9 6.2 4.4 10.1 4.4 4 0 7.4-1.4 10.2-4.2 2.8-2.8 4.2-6.4 4.2-10.7 0-4.2-1.4-7.6-4.2-10.5-2.6-2.9-6-4.4-10.1-4.4zm82.8 0c-4 0-7.4 1.5-10.2 4.5-2.8 2.9-4.2 6.4-4.2 10.4s1.4 7.5 4.2 10.5c2.8 2.9 6.2 4.4 10.1 4.4 4 0 7.4-1.4 10.2-4.2 2.8-2.8 4.2-6.4 4.2-10.7 0-4.2-1.4-7.6-4.2-10.5-2.6-2.9-6-4.4-10.1-4.4zm58.7-7c-2.2-1.8-4.9-3-7.9-3.6-3-.6-7.5-1-13.4-1h-3.5v39.7h5.7c5.9 0 10.2-.3 12.9-.9 2.7-.6 5-1.8 7.1-3.5 2-1.8 3.5-3.9 4.6-6.4 1-2.5 1.6-5.4 1.6-8.6s-.6-6.2-1.8-9c-1.3-2.7-3-5-5.3-6.7zm39.4 9.1c2.1-1.4 3.1-3.5 3.1-6.4 0-4.8-3.3-7.3-9.9-7.3h-5.7v15.7h2.8c4.4.1 7.6-.6 9.7-2zM196.1 127c2.2 3.6 10.9 5.6 16 4.4-2.6-2.4-5.5-12.4-5.8-17.4-3.1 3.1-9.1 7.8-10.2 13zm77.2 60.1c-1.1-.9-2.5-1.6-4.2-2.1-1.6-.5-4.6-.7-9-.7h-2.7v18.9h6.1c3.5 0 6.1-.3 7.7-1 1.7-.7 3.1-1.8 4.1-3.3 1-1.5 1.6-3 1.6-4.6s-.3-2.9-.9-4.1c-.6-1.2-1.5-2.2-2.7-3.1z"/><path d="M185.8 178.3c-3.7-5.1-8.5-7.6-14.4-7.6-5.2 0-9.6 1.9-13.3 5.7-3.7 3.7-5.5 8.3-5.5 13.6 0 5.2 1.8 9.8 5.5 13.6 3.7 3.8 8.2 5.7 13.6 5.7 5.3 0 10.1-2.5 14.2-7.5v6.2h4.6v-36.4h-4.6v6.7zm-4 22.4c-2.8 2.8-6.2 4.2-10.2 4.2-3.9 0-7.3-1.5-10.1-4.4-2.8-3-4.2-6.5-4.2-10.5s1.4-7.5 4.2-10.4c2.8-3 6.2-4.5 10.2-4.5 4.1 0 7.5 1.4 10.3 4.3 2.8 2.8 4.2 6.3 4.2 10.5-.2 4.4-1.6 8-4.4 10.8zm53-35.4c-2.4-2.2-5.2-3.9-8.5-4.9-3.2-1-8.4-1.6-15.3-1.6h-10.2V208h15.7c6.4 0 11.3-1 14.7-2.9 3.4-1.9 6.1-4.7 8.1-8.5s3-7.8 3-12c0-4.3-.6-8-1.9-11.2-1.4-3.2-3.2-5.9-5.6-8.1zm.9 27.2c-1 2.5-2.6 4.7-4.6 6.4-2 1.7-4.4 2.9-7.1 3.5-2.6.6-6.9.9-12.9.9h-5.7v-39.7h3.5c5.9 0 10.3.3 13.4 1 3.1.6 5.7 1.8 7.9 3.6s3.9 4 5.1 6.8c1.2 2.7 1.8 5.7 1.8 9s-.3 6-1.4 8.5zm-94.4-34.9c-1 0-2 .4-2.7 1.2-.7.8-1.1 1.7-1.1 2.7 0 1 .4 1.9 1.1 2.7.8.8 1.7 1.2 2.7 1.2 1.1 0 2-.4 2.7-1.1.8-.8 1.2-1.7 1.2-2.7 0-1.1-.4-2-1.2-2.7-.7-.9-1.6-1.3-2.7-1.3zm-2.4 14.1h4.7v36.4h-4.7zm-84.1-12.8l-19.9 40.3L15 158.9h-.8l-7 49.1h4.7l4.8-35.5L34.3 208h1.3L53 172.8l4.7 35.2h4.9l-7-49.1zm48.2 19.4c-3.7-5.1-8.5-7.6-14.4-7.6-5.2 0-9.6 1.9-13.3 5.7-3.7 3.7-5.5 8.3-5.5 13.6 0 5.2 1.8 9.8 5.5 13.6 3.7 3.8 8.2 5.7 13.6 5.7s10.1-2.5 14.2-7.5v6.2h4.6v-36.4H103v6.7zm-4 22.4c-2.8 2.8-6.2 4.2-10.2 4.2-3.9 0-7.3-1.5-10.1-4.4-2.8-3-4.2-6.5-4.2-10.5s1.4-7.5 4.2-10.4c2.8-3 6.2-4.5 10.2-4.5 4.1 0 7.5 1.4 10.3 4.3 2.8 2.8 4.2 6.3 4.2 10.5-.2 4.4-1.6 8-4.4 10.8zm25-28.5c-1.2 1-2.4 2.6-3.7 4.7v-5.3h-4.8V208h4.8v-12.3c0-6.1.3-10.2.9-12.5.6-2.3 1.5-4.2 2.7-5.7 1.3-1.5 2.6-2.2 4-2.2.7 0 1.4.2 2.1.6l2.5-4c-1.5-.8-3-1.2-4.5-1.2-1.4 0-2.8.5-4 1.5zm155.3 13.9c-1.7-2.2-4.3-3.8-7.7-4.9 2.1-1.1 3.6-2.5 4.7-4.3 1.1-1.8 1.6-3.8 1.6-6 0-3.9-1.3-6.8-4-8.9-2.6-2.1-6.5-3.1-11.7-3.1h-9.7V208H266c4.7 0 8.5-1.3 11.5-4s4.5-6.1 4.5-10.1c0-3-.9-5.6-2.7-7.8zm-21.9-22.5h5.7c6.6 0 9.9 2.4 9.9 7.3 0 2.9-1 5.1-3.1 6.4-2.1 1.4-5.3 2.1-9.6 2.1h-2.8v-15.8zm17.9 35.3c-1 1.5-2.4 2.6-4.1 3.3-1.6.7-4.2 1-7.7 1h-6.1v-18.9h2.7c4.4 0 7.4.2 9 .7 1.6.5 3 1.1 4.2 2.1 1.2.9 2.1 2 2.7 3.1.6 1.2.9 2.6.9 4.1s-.6 3.1-1.6 4.6zM244.7 15.2c-3.2.1-2.2 1-9.2 2.8-7.1 1.7-15.7 1.2-23.3 4.4-22.7 9.5-27.3 42.1-47.9 53.7-15.4 8.7-31 9.4-45 13.8-9.2 2.9-19.3 8.8-27.6 16-6.5 5.6-6.6 10.5-13.4 17.5-7.2 7.5-28.7.1-38.5 11.6 3.1 3.2 4.5 4.1 10.7 3.2-1.3 2.4-8.8 4.5-7.4 8 1.6 3.8 19.8 6.3 36.4-3.7 7.7-4.7 13.9-11.4 25.9-13 15.6-2.1 33.5 1.3 51.5 3.9-2.7 8-8 13.3-12.3 19.6-1.3 1.4 2.7 1.6 7.2.7 8.2-2 14.1-3.7 20.3-7.3 7.6-4.4 8.8-15.8 18.1-18.3 5.2 8 19.4 9.9 28.2 3.5-7.7-2.2-9.8-18.6-7.2-25.8 2.5-6.8 4.9-17.8 7.4-26.9 2.7-9.7 3.7-22 6.9-26.9 4.9-7.5 10.2-10 14.9-14.2 4.7-4.2 8.9-8.3 8.8-17.9.1-3-1.5-4.8-4.5-4.7zm-32.6 116.1c-5.1 1.2-13.8-.8-16-4.4 1.1-5.1 7.1-9.8 10.2-13.1.3 5.1 3.2 15.1 5.8 17.5zm23.3-92.2c-4.4 3.1-9.2 6-12.3 10.9-3.2 4.9-5.2 21.8-10.1 38.4-4.2 14.4-10.7 28.6-21.8 34.9-1.2-2.9.1-8.4-2.2-10.2-1.5 4.3-3.2 8.4-5.2 12.2-6.6 12.6-16.3 21.9-32.5 24.8 7.7-10.4 15.1-21.2 15.2-39.2-5.4 1.2-5.3 14-10.9 17.4-3.6.4-7.2.4-10.8.2-15-.9-30.3-5.4-44.3-.9-9.5 3.1-17.3 10.3-25.4 13.8-9.5 4.1-16.7 5.8-28.5 4.1-1.5-2 8.6-4.6 8-9-4.6-.5-7.3.6-11.3-1.2.4-.8 1.1-1.5 1.9-2.1 7.4-5.1 28.3-1.2 33.9-6.7 3.5-3.4 5.7-6.9 8.1-10.4 2.3-3.3 4.6-6.6 8.2-9.5 1.3-1.1 2.8-2.2 4.3-3.2 6.1-4.2 13.7-8 21.1-10.6 10.1-3.6 20.4-3.9 31.2-8 6.7-2.6 13.9-5.7 19.8-10.1 1.4-1 2.7-2.2 4-3.4 16.9-16.5 20.2-45.5 46.6-48.2 3.2-.3 5.8-.2 8.2-.3 2.7-.1 5.2-.4 7.8-1.9.8 2.7 2 3.9 7.3 4.4-.8 6.7-5.3 10.3-10.3 13.8z" class="st66"/><path d="M213.6 34c3.7 3.2 11.6.6 10.2-5.8-5.8-.5-9.1 1.5-10.2 5.8zm25.3-7.7c-1.5 2.9-2.8 5.2-2.9 10.4 0 1.4.7.8.7-.1 0-5.3 1.9-8 2.9-10.1.4-.9 0-1.4-.7-.2z" class="st66"/><path d="M238 25.5c-1.7 2.8-4 6-4.5 11.2-.1 1.4.6.8.7-.1.5-5.3 3.3-8.9 4.5-10.9.4-.8 0-1.4-.7-.2zm-.9-1.1c-1.9 2.6-5.7 6.6-6.6 11.7-.2 1.4.6.9.7 0 .9-5.2 5.2-9.6 6.6-11.4.5-.8.1-1.4-.7-.3zm-.8-1.3c-2.3 2.3-6.8 7.6-8.5 12.5-.4 1.3.4 1 .7.1 1.6-5 6.8-10.6 8.4-12.3.6-.6.4-1.2-.6-.3z" class="st66"/></g></svg>