<svg xmlns="http://www.w3.org/2000/svg" role="img" viewBox="80.34 111.34 1230.32 259.32"><title>Mavenir (member) logo</title><defs><clipPath id="a" clipPathUnits="userSpaceOnUse"><path d="M0 362.483h1044.1V0H0z"/></clipPath></defs><g clip-path="url(#a)" transform="matrix(1.33333 0 0 -1.33333 0 483.31)"><path fill="#ed1834" fill-opacity="1" fill-rule="nonzero" stroke="none" d="M218.266 101.614H80.679c-1.404 0-2.543 1.138-2.543 2.542v11.567c0 1.405 1.139 2.543 2.543 2.543h137.587c1.403 0 2.542-1.138 2.542-2.543v-11.567c0-1.404-1.139-2.542-2.542-2.542"/><path fill="#1e549e" fill-opacity="1" fill-rule="nonzero" stroke="none" d="M872.236 198.78v43.107h32.382c11.824 0 22.193-9.58 22.193-21.11 0-12.24-10.369-21.997-22.193-21.997zm46.57-13.659c15.827 6.209 26.924 19.69 26.924 36.011 0 21.11-17.827 37.962-39.657 37.962h-49.482c-2.001 0-3.456-1.596-3.456-3.37V138.288c0-1.774 1.455-3.37 3.456-3.37h11.826c1.818 0 3.456 1.596 3.456 3.37v45.236h27.468l24.196-47.01c.364-.71 1.455-1.596 2.91-1.596h14.19c3.092 0 4.366 2.838 3.092 5.143z"/><path fill="#1e549e" fill-opacity="1" fill-rule="nonzero" stroke="none" d="M306.41 258.918c-.547 1.064-2.184 1.951-3.093 1.951h-1.819c-.909 0-2.548-.887-3.093-1.951L242.556 139.53c-1.09-2.306.365-4.612 3.093-4.612h11.461c2.183 0 3.639 1.419 4.184 2.661l40.386 88.165h.91l40.566-88.165c.728-1.598 2.001-2.661 4.184-2.661h11.462c2.728 0 4.183 2.306 3.091 4.612z"/><path fill="#1e549e" fill-opacity="1" fill-rule="nonzero" stroke="none" d="M197.102 258.208c-.363 1.419-1.819 2.661-3.273 2.661h-2.912c-1.273 0-2.728-.887-3.092-1.951l-37.838-90.65h-.728l-38.02 90.65c-.365 1.064-2.001 1.951-3.093 1.951h-2.911c-1.455 0-2.91-1.242-3.274-2.661L79.404 138.997c-.365-2.482.909-4.079 3.456-4.079h11.824c1.456 0 3.093 1.241 3.274 2.483l13.098 79.296h.728l32.926-81.602c.365-1.065 1.638-1.951 3.093-1.951h3.275c1.637 0 2.728.886 3.092 1.951l32.745 81.602h.545l13.463-79.296c.364-1.242 1.819-2.483 3.456-2.483h11.825c2.546 0 3.82 1.597 3.274 4.079z"/><path fill="#1e549e" fill-opacity="1" fill-rule="nonzero" stroke="none" d="M475.549 259.095h-12.916c-1.638 0-2.729-1.064-3.093-1.951l-40.021-87.812h-1.092l-40.021 87.812c-.364.887-1.637 1.951-3.092 1.951h-12.916c-2.729 0-4.185-2.306-3.093-4.612l55.484-119.388c.546-1.064 1.82-1.951 3.093-1.951h1.819c1.454 0 2.546.887 3.093 1.951l55.848 119.388c1.092 2.306-.364 4.612-3.093 4.612"/><path fill="#1e549e" fill-opacity="1" fill-rule="nonzero" stroke="none" d="M588.155 259.095h-72.767c-2.001 0-3.456-1.597-3.456-3.37V138.288c0-1.773 1.455-3.37 3.456-3.37h72.767c2.001 0 3.457 1.597 3.457 3.37v9.757c0 1.774-1.456 3.37-3.457 3.37H530.67v38.141h48.571c1.819 0 3.457 1.419 3.457 3.371v9.934c0 1.774-1.638 3.371-3.457 3.371H530.67v36.188h57.485c2.001 0 3.457 1.597 3.457 3.37v9.935c0 1.773-1.456 3.37-3.457 3.37"/><path fill="#1e549e" fill-opacity="1" fill-rule="nonzero" stroke="none" d="M734.726 259.095h-11.643c-2.002 0-3.457-1.597-3.457-3.37v-83.908h-.181l-78.951 89.052h-4.548c-1.82 0-3.456-1.419-3.456-3.193V138.288c0-1.773 1.636-3.37 3.456-3.37h11.46c2.002 0 3.457 1.597 3.457 3.37v86.392h.181l78.952-91.536h4.73c1.819 0 3.456 1.419 3.456 3.193v119.388c0 1.773-1.637 3.37-3.456 3.37"/><path fill="#1e549e" fill-opacity="1" fill-rule="nonzero" stroke="none" d="M800.743 259.095h-12.007c-1.819 0-3.456-1.597-3.456-3.37V138.288c0-1.773 1.637-3.37 3.456-3.37h12.007c1.819 0 3.456 1.597 3.456 3.37v117.437c0 1.773-1.637 3.37-3.456 3.37"/><path fill="#1e549e" fill-opacity="1" fill-rule="nonzero" stroke="none" d="M956.577 249.555v9.551h2.344l2.414-7.629 2.332 7.629h2.297v-9.551h-1.453v8.016l-2.461-8.016h-1.442l-2.566 8.133v-8.133zm-5.777 0v8.133h-3.094v1.418h7.805v-1.418h-3.118v-8.133z"/></g></svg>