<svg xmlns="http://www.w3.org/2000/svg" role="img" viewBox="-10.63 -11.13 578.76 561.76"><title>Metal³ logo</title><defs><style>.cls-1{fill:#fff}</style></defs><path d="M181.6 539.6h-.7a11.2409 11.2409 0 0 1-2-.2h-.1l-1.6-.2a69.44674 69.44674 0 0 1-40.3-19.5l-1.1-1.1-49.5-61.3L13 366.7l-.5-.7a66.8796 66.8796 0 0 1-7.2-13.1 64.84 64.84 0 0 1-2.6-7.8v-.1c-.2-.9-.4-1.7-.6-2.6v-.1a58.11 58.11 0 0 1-1.4-10.9v-.9a63.17363 63.17363 0 0 1 1-12.3l.1-.6L16.3 254 45 128a58.319 58.319 0 0 1 32-39.7L255.2 2.4l3.3-.7A91.4032 91.4032 0 0 1 275.8 0h3.4a59.01443 59.01443 0 0 1 24.5 5.3l.5.2L480 89.7l.5.2a65.8854 65.8854 0 0 1 18.8 14.8 60.91334 60.91334 0 0 1 7.4 10.1l.2.3a58.07378 58.07378 0 0 1 5.2 12l.3 1 44.2 190.2.2 1.4a66.27541 66.27541 0 0 1-11.8 46.5l-.5.7-121.3 150.2a55.74319 55.74319 0 0 1-29.1 19.9c-.9.3-1.9.5-2.8.8l-.3.1a66.17393 66.17393 0 0 1-15.4 1.8l-194-.1z" class="cls-1"/><path fill="#00e0c1" d="M491.7 131.6a40.28543 40.28543 0 0 0-3-6.7 36.20773 36.20773 0 0 0-4.4-5.9 41.02929 41.02929 0 0 0-11.6-9.1l-179.8-86A31.84335 31.84335 0 0 0 279 21h-.8a60.44235 60.44235 0 0 0-14.7 1.2L83.8 108.8a31.69332 31.69332 0 0 0-17.7 21.8l-3.7 16.2 216.3 117.7.3-.2 217.2-112.7z"/><path fill="#00fbdb" d="M279.1 264.4v-.3l-.4.2.4.1z"/><path fill="#00eec4" d="M278.7 264.3L62.4 146.6 36.6 259.7l-14.7 64.6a47.4 47.4 0 0 0-.6 7.5v.3a35.00972 35.00972 0 0 0 .8 6.4c.1.6.3 1.1.4 1.6a35.32611 35.32611 0 0 0 1.5 4.6 40.34974 40.34974 0 0 0 4.3 7.9L52 381.9l51 63 49.7 61.5a43.52155 43.52155 0 0 0 25.1 12.2c.7 0 1.3.2 2 .2H279V264.5z"/><path fill="#00d1bd" d="M536.5 324.3l-40.2-173-217.2 112.8v254.7h98.8a39.55621 39.55621 0 0 0 9.7-1.1c.6-.2 1.2-.3 1.8-.5a30.00466 30.00466 0 0 0 15.6-10.8l66.1-81.8 31.3-38.7 26.9-33.3a40.18027 40.18027 0 0 0 7.2-28.3z"/><path d="M120.7 368.9l137 75.9a4.43132 4.43132 0 0 0 6-1.7 4.28224 4.28224 0 0 0 .6-2.2v-161a15.4714 15.4714 0 0 0-8.2-13.7l-1.6-.9-134.7-72a2.54034 2.54034 0 0 0-3.5 1.1 2.66281 2.66281 0 0 0-.3 1.2l-.9 163.2c-.1 3.7 2.6 8.5 5.6 10.1zm161.6-265.1a27.98064 27.98064 0 0 0-11.7 2.5l-134.2 60.5a2.561 2.561 0 0 0-1.3 3.4 2.03052 2.03052 0 0 0 1.2 1.2L272 243.9a.7638.7638 0 0 0 .5.2l.6.3.3.1.8.3h.1a18.36505 18.36505 0 0 0 15.2-1l139.1-73.9a3.28362 3.28362 0 0 0 1.4-4.4 2.94162 2.94162 0 0 0-1.6-1.5l-135.1-58a29.56788 29.56788 0 0 0-11-2.2zm160.3 88.8c-1.1-.5-2.4-.3-4 .6l-24.5 13.5a17.0174 17.0174 0 0 0-7.8 9.1l-37.5 87.6-37.3-46.2c-1.6-2.3-4.2-2.4-7.8-.5l-24.5 13.5a11.479 11.479 0 0 0-4 3.9 8.68121 8.68121 0 0 0-1.6 4.9v166.8c0 1.6.5 2.6 1.6 3a4.75312 4.75312 0 0 0 4-.7l27.3-15.1a11.83076 11.83076 0 0 0 4-3.7 8.37273 8.37273 0 0 0 1.6-4.8v-105l23.2 30.1c2.2 2.1 4.7 2.4 7.6.8l11.7-6.4c3.2-1.7 5.7-4.8 7.6-9.2l23.4-55.9.2 97.1.2 8.3a2.97178 2.97178 0 0 0 1.7 2.9 4.59383 4.59383 0 0 0 3.8-.5l27.3-15.8a10.91366 10.91366 0 0 0 3.9-3.8 8.27074 8.27074 0 0 0 1.5-4.8V195.7c0-1.6-.6-2.7-1.6-3.1zm-287.2-75.3l-5.3-11a4.99788 4.99788 0 0 0-2.3-2.6 3.713 3.713 0 0 0-3.2.3 4.85916 4.85916 0 0 0-2.9 3.1 7.52894 7.52894 0 0 0 .9 4.8l4.5 9.4-2.6 1.2-5.3-11a4.99776 4.99776 0 0 0-2.3-2.6 3.71308 3.71308 0 0 0-3.2.3 4.6862 4.6862 0 0 0-2.8 3.1c-.3 1.3.1 3.1 1.2 5.3l4.3 8.9-2.6 1.2-8.1-16.9 2.1-1 1.5 2.1.1-.1a6.05652 6.05652 0 0 1 1.1-2.9 6.7234 6.7234 0 0 1 2.6-2.1c2.6-1.3 4.8-1.1 6.6.4l.1-.1a6.65477 6.65477 0 0 1 4.1-5.5 6.54591 6.54591 0 0 1 5-.6c1.4.5 2.7 1.9 3.7 4l5.3 11zm15.1-6.9a8.714 8.714 0 0 1-7 .6c-2.2-.8-3.9-2.6-5.2-5.3a10.81134 10.81134 0 0 1-1.1-7.5 7.71368 7.71368 0 0 1 4.2-5 7.05635 7.05635 0 0 1 6-.3 8.792 8.792 0 0 1 4.5 4.6l.8 1.6-11.6 5.6a7.21859 7.21859 0 0 0 3.7 3.8 5.90018 5.90018 0 0 0 4.8-.4 17.12584 17.12584 0 0 0 4.9-3.7l1.1 2.3a14.4629 14.4629 0 0 1-2.2 2.1c-.8.5-1.8 1-2.9 1.6zm-8.1-15.1a4.62345 4.62345 0 0 0-2.6 2.9 6.82261 6.82261 0 0 0 .3 4.4l8.8-4.2a6.14944 6.14944 0 0 0-2.9-3.2 3.83451 3.83451 0 0 0-3.6.1zm23.1 5.2c.5-.2.9-.5 1.3-.7a9.68649 9.68649 0 0 0 .9-.7l.9 2a3.52807 3.52807 0 0 1-1.1.9c-.5.3-1 .6-1.4.8-3.3 1.6-5.7.6-7.4-2.8L174 90l-2.4 1.2-.6-1.2 1.9-2.2-.7-4.1 1.5-.7 1.9 3.9 4.9-2.4 1 2-4.9 2.4 4.8 10a2.63064 2.63064 0 0 0 4.1 1.6zm17-5.9l-1.7-2.2-.1.1a7.156 7.156 0 0 1-1.5 3.4 8.36359 8.36359 0 0 1-2.9 2.1 6.41631 6.41631 0 0 1-4.6.6 5.20946 5.20946 0 0 1-3.2-3c-1.6-3.4.2-6.5 5.6-9.3l2.8-1.5-.5-1a4.39794 4.39794 0 0 0-2.3-2.5 3.80527 3.80527 0 0 0-3.2.4 13.47415 13.47415 0 0 0-4.2 3.6l-1.7-1.6a16.47082 16.47082 0 0 1 2.2-2.4 16.65467 16.65467 0 0 1 2.8-1.8 7.03894 7.03894 0 0 1 5.1-.8c1.4.4 2.6 1.6 3.5 3.6l5.5 11.5zm-6.7 1a5.8472 5.8472 0 0 0 3.1-3.1 5.09813 5.09813 0 0 0-.4-4.3l-.7-1.5-2.5 1.3a10.27543 10.27543 0 0 0-3.9 3.1 3.23642 3.23642 0 0 0-.1 3.3 2.89 2.89 0 0 0 1.9 1.7 3.68958 3.68958 0 0 0 2.6-.5zm16.4-5.7l-2.6 1.2-11.5-24 2.6-1.2zm10-26a5.46025 5.46025 0 0 1 .5 4.1 6.95569 6.95569 0 0 1-2.5 3.5l.1.1a7.58531 7.58531 0 0 1 4.9-.2 5.999 5.999 0 0 1 3.1 3 6.38234 6.38234 0 0 1 .1 6c-.9 1.9-2.8 3.5-5.5 4.8a18.08 18.08 0 0 1-3.4 1.3 12.42275 12.42275 0 0 1-3.3.4l-1.2-2.4a16.09985 16.09985 0 0 0 3.7-.4A25.5108 25.5108 0 0 0 222 83c3.9-1.9 5.1-4.3 3.6-7.4-1.3-2.7-4.1-3.1-8.4-1l-2.2 1.1-1.1-2.2 2.3-1.1a6.77617 6.77617 0 0 0 3.6-3.2 4.07086 4.07086 0 0 0 0-4 3.22456 3.22456 0 0 0-2.4-2 5.57672 5.57672 0 0 0-3.5.5 12.99532 12.99532 0 0 0-2.6 1.7 15.38294 15.38294 0 0 0-2.3 2.9l-2.1-1.1a12.6622 12.6622 0 0 1 2.4-3.3 14.81178 14.81178 0 0 1 3.5-2.5 8.47831 8.47831 0 0 1 5.8-1 7.60393 7.60393 0 0 1 3.6 3.5zm12.4 13.3a3.10259 3.10259 0 0 1-.3-1.8 1.83588 1.83588 0 0 1 1.1-1.2 2.0299 2.0299 0 0 1 1.7-.1c.6.2.9.6 1.3 1.3a2.368 2.368 0 0 1 .2 1.8 2.12873 2.12873 0 0 1-1.1 1.2 1.60319 1.60319 0 0 1-1.5.1 2.00134 2.00134 0 0 1-1.4-1.3zm-1-24a2.10218 2.10218 0 0 1-.2-1.5 1.96225 1.96225 0 0 1 .9-.9 1.90128 1.90128 0 0 1 1.3-.1 1.94844 1.94844 0 0 1 1.1 1.1 2.10218 2.10218 0 0 1 .2 1.5 1.59119 1.59119 0 0 1-.9.9 1.95027 1.95027 0 0 1-1.3.1 1.97267 1.97267 0 0 1-1.1-1.1zm13.1 20.2l-2.6 1.2-8.1-16.9 2.6-1.2zm15.9-18.1c1.3 2.8 1.7 5.2 1 7.5a8.23126 8.23126 0 0 1-4.6 5.1 9.09017 9.09017 0 0 1-4.5.9 7.15366 7.15366 0 0 1-4.2-1.8 11.6883 11.6883 0 0 1-3.2-4.2c-1.3-2.8-1.7-5.2-1-7.4a9.01578 9.01578 0 0 1 11.4-5.5 10.03945 10.03945 0 0 1 5.1 5.4zm-12.8 6.1a8.50435 8.50435 0 0 0 3.7 4.3 4.99363 4.99363 0 0 0 4.6-.1 4.9336 4.9336 0 0 0 3-3.5 8.86475 8.86475 0 0 0-1.1-5.6 8.50422 8.50422 0 0 0-3.7-4.3 5.22819 5.22819 0 0 0-4.7.2 4.93363 4.93363 0 0 0-3 3.5 9.3455 9.3455 0 0 0 1.2 5.5z" class="cls-1"/></svg>