<svg xmlns="http://www.w3.org/2000/svg" role="img" viewBox="-6.41 61.59 411.58 109.58"><title>Mia-Platform (member) logo</title><defs><style>.cls-1{fill:#f68a48}</style></defs><path d="M16.839 76.705l9.012 5.203v10.407L16.84 97.52l-9.013-5.204V81.908l9.013-5.203m0-7.013l-15.086 8.71v17.42l15.086 8.71 15.086-8.71v-17.42l-15.086-8.71z" class="cls-1"/><path fill="#f15b61" d="M33.53 105.648l9.013 5.204v10.407l-9.013 5.203-9.013-5.203v-10.407l9.013-5.204m0-7.012l-15.086 8.71v17.419l15.086 8.71 15.086-8.71v-17.42l-15.086-8.71z"/><path fill="#09b9df" d="M50.292 134.59l9.012 5.203V150.2l-9.012 5.204-9.013-5.204v-10.407l9.013-5.204m0-7.012l-15.086 8.71v17.42l15.086 8.709 15.085-8.71v-17.42l-15.085-8.71z"/><path fill="#27ac79" d="M16.768 134.59l9.013 5.203V150.2l-9.013 5.204-9.013-5.204v-10.407l9.013-5.204m0-7.012l-15.086 8.71v17.42l15.086 8.709 15.086-8.71v-17.42l-15.086-8.71z"/><path fill="#664c91" d="M66.912 105.648l9.013 5.204v10.407l-9.013 5.203-9.013-5.203v-10.407l9.013-5.204m0-7.012l-15.086 8.71v17.419l15.086 8.71 15.086-8.71v-17.42l-15.086-8.71z"/><path fill="#5d6162" d="M100.184 77.387h3.53v2.517a13.375 13.375 0 0 1-.074 1.39h.075a7.427 7.427 0 0 1 6.536-4.358c3.194 0 5.072 1.465 5.71 4.32h.076a7.653 7.653 0 0 1 6.762-4.32c4.283 0 6.274 2.442 6.274 7.289v12.171h-3.644V85.014c0-2.668-.526-4.772-3.381-4.772-2.668 0-4.659 2.254-5.335 4.846a11.329 11.329 0 0 0-.263 2.63v8.678h-3.644V85.014c0-2.48-.376-4.772-3.306-4.772-2.78 0-4.733 2.292-5.447 4.997a10.49 10.49 0 0 0-.226 2.479v8.678h-3.643zm33.548-7.514h3.681v3.72h-3.681zm.037 7.514h3.644v19.01h-3.644zm18.521 7.138h.826v-.338c0-3.119-1.765-4.17-4.17-4.17a9.64 9.64 0 0 0-5.296 1.84l-1.503-2.667a11.927 11.927 0 0 1 7.1-2.254c4.809 0 7.514 2.63 7.514 7.439v12.021h-3.382v-1.803a14.233 14.233 0 0 1 .076-1.503h-.076a6.575 6.575 0 0 1-6.085 3.757c-3.269 0-6.462-1.99-6.462-5.785 0-6.274 8.265-6.537 11.458-6.537zm-4.207 9.392c3.08 0 5.071-3.231 5.071-6.048v-.602h-.939c-2.743 0-7.701.188-7.701 3.607 0 1.54 1.202 3.043 3.569 3.043zm-47.791 11.816h20.714c10.357 0 17.824 6.985 17.824 17.744 0 10.758-7.467 17.984-17.824 17.984h-12.765v20.954h-7.949zm19.43 28.823c6.824 0 10.999-4.255 10.999-11.079s-4.175-10.839-10.92-10.839h-11.56v21.918zm25.609-28.823h7.788v44.238c0 4.898 1.927 5.781 4.336 5.781a12.317 12.317 0 0 0 1.365-.08v6.904a21.943 21.943 0 0 1-2.57.16c-4.415 0-10.919-1.204-10.919-11.4zm41.348 31.312h1.766v-.722c0-6.664-3.773-8.913-8.912-8.913a20.602 20.602 0 0 0-11.32 3.935l-3.212-5.7a25.485 25.485 0 0 1 15.175-4.818c10.276 0 16.057 5.62 16.057 15.897v25.691h-7.226v-3.854a30.495 30.495 0 0 1 .16-3.21h-.16a14.053 14.053 0 0 1-13.006 8.028c-6.985 0-13.81-4.256-13.81-12.364 0-13.408 17.663-13.97 24.488-13.97zm-8.992 20.071c6.583 0 10.838-6.904 10.838-12.926v-1.284h-2.007c-5.86 0-16.458.401-16.458 7.708 0 3.291 2.569 6.502 7.627 6.502zm30.027-28.501h-5.3v-6.262h5.54v-11.722h7.547v11.722h9.795v6.262h-9.795v18.064c0 8.109 5.7 9.153 8.671 9.153a9.355 9.355 0 0 0 1.847-.16v6.904a21.408 21.408 0 0 1-2.73.16c-5.218 0-15.575-1.605-15.575-15.173zm27.616 0h-5.057v-6.262h5.058v-1.927c0-13.408 10.116-15.094 15.254-15.094a16.706 16.706 0 0 1 2.97.241v6.664a11.318 11.318 0 0 0-2.006-.16c-2.97 0-8.51.963-8.51 8.51v1.766h9.633v6.262h-9.634v33.8h-7.707zm42.15-7.788c12.123 0 21.918 8.912 21.918 21.196 0 12.364-9.795 21.356-21.918 21.356s-21.918-8.992-21.918-21.356c0-12.284 9.795-21.196 21.918-21.196zm0 35.808c7.708 0 13.97-6.102 13.97-14.612 0-8.43-6.262-14.452-13.97-14.452-7.627 0-13.97 6.022-13.97 14.452 0 8.51 6.343 14.612 13.97 14.612zm29.544-34.844h7.547v7.065a29.22 29.22 0 0 1-.16 3.05h.16c1.847-5.94 6.583-10.597 12.846-10.597a13.786 13.786 0 0 1 2.007.161v7.707a11.216 11.216 0 0 0-2.248-.24c-4.978 0-9.554 3.532-11.4 9.553a24.7 24.7 0 0 0-.964 7.306v16.62h-7.788zm28.501 0h7.548v5.38a28.441 28.441 0 0 1-.161 2.97h.16a15.872 15.872 0 0 1 13.97-9.314c6.824 0 10.838 3.131 12.203 9.233h.161a16.358 16.358 0 0 1 14.451-9.233c9.154 0 13.408 5.22 13.408 15.576v26.012h-7.788V138.09c0-5.7-1.124-10.197-7.225-10.197-5.7 0-9.956 4.818-11.4 10.357a24.207 24.207 0 0 0-.563 5.62v18.546h-7.787V138.09c0-5.3-.803-10.197-7.066-10.197-5.94 0-10.116 4.898-11.641 10.678a22.467 22.467 0 0 0-.482 5.3v18.545h-7.788z"/><path d="M16.839 76.705l9.012 5.203v10.407L16.84 97.52l-9.013-5.204V81.908l9.013-5.203m0-7.013l-15.086 8.71v17.42l15.086 8.71 15.086-8.71v-17.42l-15.086-8.71z" class="cls-1"/></svg>