<svg xmlns="http://www.w3.org/2000/svg" role="img" viewBox="101.31 81.31 295.62 89.12"><title>Modsurfer logo</title><path fill="#b8c137" d="M262.12 87.67c.45 7.9.37 19.68 10.65 21.46q7.06 1.21 15.26.82 1.34-.06 1.42 1.28l1.93 30.26a.24.24 0 0 1-.24.26H246a.5.5 0 0 1-.5-.5V87.77q0-.48.48-.48l15.61-.12a.53.53 0 0 1 .53.5zm12.7924 37.9555a2.02 2.02 0 0 0-1.9988-2.0411l-10.3594-.1085a2.02 2.02 0 0 0-2.041 1.9988l-.0256 2.4398a2.02 2.02 0 0 0 1.9988 2.0411l10.3594.1085a2.02 2.02 0 0 0 2.041-1.9988l.0256-2.4398zM123.24 109.49c12.31-.87 12.9-12.51 13.56-21.79q.03-.45.48-.45h14.47q.5 0 .5.5v53.76a.6.59 90 0 1-.59.6q-19.81.08-39.66-.15-2.17-.02-2.33-1.72-1.34-14.71-2.66-29.48a.55.54 87.6 0 1 .54-.6q7.83-.11 15.69-.67zm14.7169 16.1621a2.21 2.21 0 0 0-2.2369-2.1828l-9.9792.1219a2.21 2.21 0 0 0-2.1828 2.2368l.0251 2.0599a2.21 2.21 0 0 0 2.2369 2.1828l9.9792-.1219a2.21 2.21 0 0 0 2.1828-2.2368l-.0251-2.0599z"/><rect width="19.06" height="54.5" x="-9.53" y="-27.25" fill="#b8c137" rx=".27" transform="rotate(-.1 65708.786 -120418.555)"/><path fill="#b8c137" d="M236.69 101.59q-.8 2.09-.15 4.2.2.63-.46.67c-1.52.11-2.57-2.41-3.08-3.44a1.54 1.53 59.2 0 0-2.27-.58l-3.3 2.36a.57.57 0 0 1-.87-.66l1.57-4.29q.25-.69-.4-1.02c-1.37-.71-4.41-.13-4.83-1.59q-.18-.62.43-.84l3.82-1.31a1.25 1.25 0 0 0 .7-1.75l-2.05-3.94a.56.56 0 0 1 .81-.72l4.01 2.8a1.5 1.5 0 0 0 2.19-.53l1.69-3.24a.63.63 0 0 1 1.19.22l.55 4.68q.1.83.92.66l4.68-.99q.33-.07.39.27c.25 1.35-2.15 3.06-3.01 3.83a1.05 1.04 42.2 0 0 .09 1.63l3.33 2.38q.39.28.37.76 0 .13-.06.26-.1.23-.34.2l-4.96-.6q-.71-.09-.96.58zm114.82 40.75a6.69 6.69 0 0 1-6.7-6.68l-.03-14.01a11.62 7.46 89.9 0 1 7.44-11.63l31.72-.06a11.62 7.46 89.9 0 1 7.48 11.61l.03 14.01a6.69 6.69 0 0 1-6.68 6.7l-33.26.06zm10.14-12.44l11.86.12a1.43 1.43 0 0 0 1.44-1.41l.01-1.23a3.82 3.27-89.4 0 0-3.23-3.86l-8.18-.08a3.82 3.27-89.4 0 0-3.31 3.78l-.01 1.23a1.43 1.43 0 0 0 1.42 1.45zm-187.62-4.46q2.97 1.72 5.27-.1.45-.35.45-.92v-13.49q0-.57.57-.57l16.03.13q.61 0 .61.61l.1 53.53q0 .37-.37.37h-16.41a.6.59-1.5 0 1-.6-.56q-.37-6.91-1.28-13.92-.86-6.62-7.49-7.46-6.74-.85-13.72-1.12-1.19-.04-1.19-1.23V111.4a1.16 1.15 0 0 1 1.16-1.15h15.31q.54 0 .54.54l.17 13.2a1.72 1.69 15 0 0 .85 1.45z"/><rect width="17.98" height="31.62" x="-8.99" y="-15.81" fill="#b8c137" rx=".84" transform="rotate(.1 -72110.671 133413.193)"/><path fill="#b8c137" d="M307.27 130.87c-1.38-8.88-5.99-14.28-11.7-20.2a.24.24 0 0 1 .18-.41q19.13-.04 38.21.01 3.75.01 5.63 1.32c2.64 1.85 6.27 9.14-.02 9.31q-5.16.14-10.31.1-.52-.01-.44.51c1.26 8.31 6.57 14.35 12.27 19.68a.42.42 0 0 1-.28.73q-21.18.48-42.31.15c-4.45-.07-7.77-7.22-3.07-9.61 2.47-1.25 8.08-.83 11.39-1.03q.54-.03.45-.56z"/></svg>