<svg xmlns="http://www.w3.org/2000/svg" role="img" xmlns:xlink="http://www.w3.org/1999/xlink" viewBox="-21.58 -21.58 1122.16 236.16"><title>Mondoo (member) logo</title><defs><linearGradient id="a" x1="338.68" x2="338.68" y1="193.53" y2="0" gradientUnits="userSpaceOnUse"><stop offset="0" stop-color="#522061"/><stop offset="1" stop-color="#946297"/></linearGradient><linearGradient id="b" x1="193.53" x2="193.53" xlink:href="#a"/><linearGradient id="c" x1="48.38" x2="48.38" xlink:href="#a"/></defs><path fill="#1a081c" d="M474.82 57.3v10.14c5.23-7.45 13.47-11.89 23.77-11.89 12.84 0 21.56 5.23 26.15 14.42 5.39-8.88 15.06-14.42 26.79-14.42 21.71 0 32.65 13.31 32.65 34.71v52.62h-22.51V93.43c0-11.57-4.75-18.7-15.85-18.7-9.83 0-16.32 6.66-16.32 20.13v48.02h-22.35V92.8c0-11.41-4.75-18.07-15.37-18.07s-16.8 6.82-16.8 20.6v47.55h-22.03V79.17c0-12.08 9.79-21.87 21.87-21.87zm120.77 42.79c0-24.73 19.5-44.54 45.17-44.54s45.33 19.81 45.33 44.54-19.5 44.54-45.33 44.54-45.17-19.97-45.17-44.54zm68.79-.16c0-13.31-10.46-23.93-23.46-23.93s-23.46 10.62-23.46 23.93 10.3 23.93 23.46 23.93 23.46-10.62 23.46-23.93zm54.6-42.63v10.78c5.55-7.77 14.42-12.52 25.04-12.52 20.29 0 33.13 13.31 33.13 35.66v51.67H754.8V94.55c0-12.2-5.87-19.81-17.44-19.81-10.3 0-18.23 7.61-18.23 20.92v47.23H697.1V79.18c0-12.08 9.79-21.87 21.87-21.87zm68.86 42.79c0-27.26 19.65-44.54 41.53-44.54 11.25 0 20.6 4.75 26.47 12.68V17.84h21.56v103.49c0 11.9-9.65 21.56-21.56 21.56v-11.73c-6.02 8.4-15.69 13.47-26.79 13.47-21.08 0-41.21-17.28-41.21-44.54zm69.26-.16c0-13.31-10.3-24.09-23.77-24.09s-23.78 10.62-23.78 24.09 10.62 24.09 23.78 24.09 23.77-10.78 23.77-24.09zm31.15.16c0-24.73 19.5-44.54 45.17-44.54s45.33 19.81 45.33 44.54-19.5 44.54-45.33 44.54-45.17-19.97-45.17-44.54zm68.79-.16c0-13.31-10.46-23.93-23.46-23.93s-23.46 10.62-23.46 23.93 10.3 23.93 23.46 23.93 23.46-10.62 23.46-23.93zm32.46.16c0-24.73 19.5-44.54 45.17-44.54S1080 75.36 1080 100.09s-19.5 44.54-45.33 44.54-45.17-19.97-45.17-44.54zm68.79-.16c0-13.31-10.46-23.93-23.46-23.93s-23.46 10.62-23.46 23.93 10.3 23.93 23.46 23.93 23.46-10.62 23.46-23.93z"/><path fill="url(#a)" d="M290.3 0v193.53c53.44 0 96.77-43.32 96.77-96.77S343.74 0 290.3 0z"/><circle cx="193.53" cy="96.77" r="96.77" fill="url(#b)"/><path fill="url(#c)" d="M0 96.77c0 53.44 43.32 96.77 96.77 96.77V0C43.32 0 0 43.32 0 96.77z"/></svg>