<svg xmlns="http://www.w3.org/2000/svg" role="img" viewBox="411.70 411.70 2381.60 359.10"><path fill="#004fff" fill-rule="evenodd" d="M458.349 720.625H519.6V581.04c12.917-13.334 25-20 35-20 17.5 0 25.417 9.166 25.417 39.167v120.418h61.251V581.04c13.334-13.334 25-20 35.417-20 17.5 0 25.417 9.166 25.417 39.167v120.418h61.251V592.29c0-51.667-20-83.334-64.584-83.334-27.5 0-46.667 15.833-65 34.584-10.417-22.084-27.917-34.584-57.084-34.584-27.084 0-45.417 14.583-62.5 31.667h-1.666l-4.167-26.667h-50v206.669zm445.832 5c52.084 0 100.419-39.584 100.419-108.335s-48.335-108.334-100.419-108.334c-52.5 0-100.834 39.584-100.834 108.334s48.334 108.335 100.834 108.335zm0-49.584c-25.417 0-37.917-22.917-37.917-58.751s12.5-58.75 37.917-58.75c25 0 37.918 22.917 37.918 58.75s-12.917 58.751-37.918 58.751zm142.5 44.584h61.25V581.04c13.33-12.917 22.91-20 38.33-20 17.5 0 25.42 9.166 25.42 39.167v120.418h61.25V592.29c0-51.667-19.17-83.334-64.17-83.334-27.91 0-48.75 14.583-66.25 31.25h-1.67l-4.16-26.25h-50v206.669zm327.08 5c52.08 0 100.42-39.584 100.42-108.335s-48.34-108.334-100.42-108.334c-52.5 0-100.84 39.584-100.84 108.334s48.339 108.335 100.839 108.335zm0-49.584c-25.42 0-37.92-22.917-37.92-58.751s12.5-58.75 37.92-58.75c25 0 37.92 22.917 37.92 58.75s-12.921 58.751-37.921 58.751zm201.25 49.584c55.42 0 85-29.167 85-66.667 0-37.918-29.58-52.5-55.83-62.085-21.25-7.916-40.42-12.916-40.42-26.25 0-10.417 7.5-16.25 23.33-16.25 14.59 0 28.75 6.667 43.75 17.5l27.5-36.667c-17.91-13.333-41.25-26.25-72.91-26.25-47.92 0-79.17 26.25-79.17 64.584 0 34.167 29.58 51.25 54.58 60.834 21.25 8.333 42.09 14.583 42.09 28.334 0 10.833-7.92 17.5-26.25 17.5-17.5 0-34.59-7.5-53.34-21.667l-27.5 38.334c20.829 17.083 52.089 28.75 79.169 28.75zm195 0c20 0 35-4.167 45.83-7.5l-9.58-44.584c-5.42 2.083-12.92 4.167-19.58 4.167-16.25 0-26.67-9.584-26.67-32.917v-82.918h49.58v-47.917h-49.58v-55h-50.83l-7.09 55-31.66 2.5v45.417h28.33v83.751c-.001 47.917 19.999 80.001 71.249 80.001zm80-5h61.25v-120c10.83-27.917 30-37.918 45.42-37.918a77.177 77.177 0 0 1 22.5 3.334l10-52.918c-5.84-2.5-12.92-4.166-24.59-4.166-21.25 0-43.75 13.333-58.75 41.25h-1.66l-4.17-36.25h-50v206.668zm254.17 5c24.58 0 52.08-8.75 73.33-23.334l-20.42-37.083c-15 9.166-29.16 13.75-44.58 13.75-27.5 0-48.33-13.75-53.75-43.751h123.75c1.25-5 2.5-16.25 2.5-27.083 0-56.251-29.17-99.168-87.92-99.168-49.58 0-97.5 41.25-97.5 108.334-.001 68.335 45.419 108.335 104.589 108.335zM2058.34 594.79c4.17-26.25 20.84-39.167 40-39.167 24.59 0 34.59 16.25 34.59 39.167h-74.59zm216.67 130.835c23.33 0 42.5-10.833 60-26.25h1.67l4.16 21.25h50.01V602.29c0-63.334-29.17-93.334-82.09-93.334-32.5 0-62.08 11.25-88.33 27.083l22.08 40.418c20-11.667 37.08-18.751 54.58-18.751 22.5 0 31.25 11.667 32.5 30-81.66 8.333-116.25 32.083-116.25 75.417 0 35.002 23.75 62.502 61.67 62.502zm20.83-47.5c-14.58 0-23.75-6.25-23.75-19.583 0-15.834 14.17-28.334 57.5-34.167v36.25c-10.83 10.833-20 17.499-33.75 17.499zm146.67 42.5h61.25V581.04c12.91-13.334 25-20 35-20 17.5 0 25.41 9.166 25.41 39.167v120.418h61.26V581.04c13.33-13.334 25-20 35.41-20 17.5 0 25.42 9.166 25.42 39.167v120.418h61.25V592.29c0-51.667-20-83.334-64.58-83.334-27.5 0-46.67 15.833-65 34.584-10.42-22.084-27.92-34.584-57.09-34.584-27.08 0-45.42 14.583-62.5 31.667h-1.67l-4.16-26.667h-50v206.669z" data-name="bit (digital)"/></svg>