<svg xmlns="http://www.w3.org/2000/svg" role="img" viewBox="-7.92 -7.92 411.84 46.84"><title>Morning Consult (supporter) logo</title><style>svg {enable-background:new 0 0 396.2 31.1}</style><path fill="#2b2b2b" d="M142.1 18.2l-9.6-13.1h-4.6v20.8h4.4V12.4l9.9 13.5h4.3V5.1h-4.4v13.1zM121 11.8c0-3.9-2.6-6.7-7-6.7h-9.7v20.8h4.4v-7.4h3.2l4.1 7.4h5.1l-4.6-7.9c2.8-.6 4.7-3.3 4.5-6.2zm-7.6 2.9h-4.6V9H113.7c1.6 0 2.8 1.3 2.8 2.8v.3c-.2 1.6-1.6 2.7-3.1 2.6zm40.8 11.2h4.4V5.1h-4.4v20.8zM0 0v11.7l15.5 15.5L31 11.7V0L15.5 15.5 0 0zm31.1 31.1V19.4L19.4 31.1h11.7zm26.8-13.4L52.8 5.1h-6.2v20.8H51V11.4l5.9 14.5h1.9l5.9-14.5v14.5h4.4V5.1h-6.2l-5 12.6zm28.9-13c-6 0-10.9 4.9-10.9 10.9s4.9 10.9 10.9 10.9 10.9-4.9 10.9-10.9c-.1-6.1-4.9-10.9-10.9-10.9zM93 15.5c0 3.9-2.5 6.8-6.3 6.8s-6.3-2.9-6.3-6.8 2.5-6.8 6.3-6.8 6.3 2.9 6.3 6.8zM0 31.1h11.7L0 19.4v11.7zm309.6-20.3c0-1.3 1.1-2.1 3-2.1 2.2 0 4.3.8 6 2.3l2.5-3.2c-2.2-1.9-5.1-3-8-2.9-4.9 0-7.9 2.9-7.9 6.3 0 7.8 12 5.3 12 9 0 1.2-1.2 2.3-3.6 2.3-2.5 0-4.9-1-6.6-2.8l-2.4 3.3c2.4 2.3 5.5 3.4 8.8 3.3 5.6 0 8.3-2.9 8.3-6.7-.2-7.8-12.1-5.5-12.1-8.8zm32.8 6.7c0 2.9-1.7 4.9-4.9 4.9h-.8c-2.5-.2-4.3-2.4-4.1-4.9V5.1h-4.5v12.5c0 5.1 3 8.6 9.4 8.6s9.4-3.5 9.4-8.7V5.1h-4.5v12.4zM359 5.1h-4.4v20.8h13.2V22H359V5.1zM180.5 18.2l-9.6-13.1h-4.5v20.8h4.4V12.4l9.9 13.5h4.2V5.1h-4.4v13.1zM370.1 9h6.1v16.9h4.4V9h6V5.1H370V9zm-168.5 9.3h5.5v2.5c-1.2 1-2.8 1.6-4.4 1.6h-.4c-3.6-.2-6.3-3.2-6.1-6.8v-.4c0-3.6 2.9-6.4 6.5-6.4 2 0 3.8 1 4.9 2.7l3.7-2c-1.8-3-5.1-4.8-8.6-4.6-6.1 0-11.1 4.2-11.1 10.8 0 6.6 5 10.8 11.1 10.8 3.4.1 6.6-1.4 8.8-3.9v-8h-9.9v3.7zm92.1-.1l-9.6-13.1h-4.5v20.8h4.4V12.4l9.9 13.5h4.3V5.1h-4.4l-.1 13.1zm-63-3.1c0-3.6 3-6.4 6.5-6.4 2.1 0 3.9 1.2 4.9 3l3.8-1.9c-1.7-3.2-5.1-5.2-8.7-5.1-6.2 0-11.1 4.4-11.1 10.8s4.9 10.8 11.1 10.8c3.6.1 7-1.9 8.7-5.1l-3.8-1.8c-.9 1.8-2.8 3-4.9 3h-.4c-3.6-.2-6.3-3.2-6.1-6.8v-.5zM262 4.7c-6.1 0-10.9 4.9-10.9 10.9S256 26.5 262 26.5s10.9-4.9 10.9-10.9S268.1 4.7 262 4.7zm0 17.7c-3.8 0-6.3-2.9-6.3-6.8s2.5-6.8 6.3-6.8 6.3 2.9 6.3 6.8-2.5 6.8-6.3 6.8zM393.6 0c-1.4 0-2.6 1.2-2.6 2.6 0 1.4 1.2 2.6 2.6 2.6 1.4 0 2.6-1.2 2.6-2.6 0-1.5-1.1-2.6-2.6-2.6zm1.3 4.1l-.8-1.2c.3-.1.7-.4.7-.9s-.4-1-1-1h-1.3v3h.6V3h.4l.7 1.1h.7c-.4.3-.8.5-1.3.5-1.1 0-2-.9-2-2s.9-2 2-2 2 .9 2 2c0 .6-.2 1.1-.7 1.5zm-1.1-1.7h-.7v-.8h.7c.2 0 .4.2.4.4s-.2.4-.4.4z"/></svg>