<svg xmlns="http://www.w3.org/2000/svg" role="img" viewBox="38.55 160.55 855.40 236.90"><title>Multus logo</title><path d="M276.403 195.894c-.703-22.534-32.165-21.07-38.757-13.52-6.592 7.55-4.74 19.28 9.317 20.428 14.058 1.147 17.305-9.97 11.156-14.762-6.15-4.792-16.83-.57-12.876 6.695 2.74 3.356 9.046 2.708 10.118-.144 1.454-4.64-4.063-6.928-7.286-4.233 8.268-2.773 7.76 7.348 1.143 5.282-6.616-2.066-3.325-9.106 3.824-8.377 13.202 3.065 3.6 16.738-8.24 12.929-11.84-3.809-10.266-24.927 15.023-20.122 6.774 1.266 13.691 9.435 12.565 16.161-26.203 6.15-33.782 17.213-43.11 27.815-6.245 8.525-17.34 39.8 32.503 37.694-6.687 14.018-32.287 30.295-54.446 46.16-19.487 12.518-72.932 43.944-59.636 67.011.897 2.606 27.694 17.438 28.134-9.014-.612-11.61 3.075-20.515 15.66-37.147 19.373-20.797 48.685-36.22 83.308-49.347 10.902-5.517 36.554-17.158 23.945-31.958-16.98-15.8-39.516 11.871-58.725-10.561-17.756-23.833 29.214-25.344 55.994-26.13-14.666-4.815-7.927-12.09-19.614-14.86zm91.805 122.065H354.56v-73.651c-.276-2.73 8.298-7.892 12.232-2.189l32.963 56.397 32.576-56.268c2.646-4.947 11.384-4.137 12.876 2.575v73.264h-13.649V272.12l-25.365 43.006c-3.105 4.888-8.316 5.088-12.49.129l-25.366-44.165zm-196.101-61.033c-8.627-9.8-19.478-18.858-30.645-27.812-3.067-3.09 3.327-9.531 9.786-2.704 11.46 13.081 15.993 20.889 20.859 30.516zm.2 3.497c-9.786-6.195-35.573-20.017-49.058-27.426-3.067-3.09 4.615-8.244 13.907-1.802 13.52 10.376 28.998 22.305 35.151 29.228zm4.081 4.986c-15.882-6.642-49.501-17.962-66.695-23.644-9.264-4.45-.524-10.521 12.476-4.552 20.793 9.252 43.827 21.652 54.219 28.196zm3.091 4.311c-15.973-5.64-63.792-13.992-83.175-19.546-9.264-4.45-2.708-11.068 13.478-6.01 21.3 6.014 61.073 21.168 69.697 25.557zm4.72 3.854c-57.337-7.733-81.512-6.183-95.53-9.492-14.017-3.308-8.8-9.716 10.876-8.872 16.466-.053 58.99 10.675 84.654 18.364zm2.637 1.792c-16.883-1.38-66.41 1.9-102.92.957-18.496-1.083-15.486-10.008 11.241-8.668 22.306.484 84.18 6.785 91.68 7.711z"/><path d="M189.734 278c-16.94.043-75.286 6.572-111.747 8.702-18.521.475-25.543-7.77 7.255-7.908 22.267-1.393 96.94-1.087 104.492-.795zm-3.552 3.79c-16.94.044-68.977 10.693-109.945 19.003-28.178 5.626-27.474-5.066-.857-9.324 32.054-7.187 103.25-9.971 110.802-9.679zm-2.497 3.16c-15.368 3.611-58.387 15.384-98.142 28.307-27.354 8.798-27.872-1.904-1.913-9.166 31.026-10.792 91.609-18.572 100.055-19.142zm1.043 4.917c-14.89 5.635-55.781 20.404-94.713 35.27-26.696 10.63-31.285-2.46-2.401-9.787 35.903-9.648 90.077-24.343 97.114-25.483zm1.76 6.345c-14.275 7.05-72.601 37.039-90.211 45.432-26.443 10.073-26.355-5.085 2.328-14.145 34.8-13.078 80.989-29.471 87.883-31.287zm5.041 6.265c-13.511 8.408-68.657 43.877-86.006 52.963-23.555 9.46-18.967-7.067 8.967-18.026 33.558-16 70.325-32.54 77.039-34.937zm9.761 2.463c-12.622 9.69-56.175 45.626-72.55 56.368-31.53 19.06-22.272-4.532 4.454-18.174 31.83-19.209 61.65-35.15 68.096-38.194zm9.966 8.54c-8.381 13.031-16.69 25.546-18.603 49.98-2.502 25.846-19.47 9.91-9.807-10.973 6.892-15.883 20.945-31.22 28.41-39.007z"/><path d="M213.513 313.1c-1.782 12.934-2.095 34.988-1.211 50.111.749 8.523-13.664 21.013-13.54-5.459 2.413-17.222 10.642-34.678 14.75-44.652zm5.272-.656c1.182 13.003 4.505 32.91 8.237 46.729 2.746 14.958-10.04 14.29-10.588-1.498-1.534-17.323.598-34.587 2.351-45.23zm15.919-99.979c-13.007 1.129-39.036 6.336-52.352 8.726-17.636.937-9.306-6.858.022-8.006 17.329-1.464 41.37-1.165 52.33-.72zm-1.782 2.455c-18.631 2.882-45.22 12.837-50.59 18.13-16.45 15.021-17.76-4.102-4.677-7.326 26.024-8.805 50.942-10.17 55.267-10.804z"/><path d="M232.059 217.016c-16.226 7.272-34.98 19.962-38.8 26.461-12.016 18.76-21.759.75-8.6-6.578 22.869-15.223 43.386-18.153 47.4-19.883z"/><path d="M226.35 223.192c-7.119 6.029-20.834 13.534-23.414 28.602-1.57 12.153-19.111 9.135-7.836-5.134 10.613-12.54 22.536-19.1 31.25-23.468z"/><path d="M224.907 228.16c-4.786 7.212-11.914 17.725-12.612 25.715-.066 8.894-14.205 14.159-6.134-2.214 5.377-11.881 11.962-16.502 18.746-23.501z"/><path d="M221.562 238.24c-3.63 8.765-.746 16.347.737 17.397 6.77 6.452-2.18 11.1-5.534-.268-1.381-6.235 1.55-12.688 4.797-17.128zm37.369 25.865c-15.177 12.82-26.03 17.611-35.755 22.532-25.252 11.318-15.975 17.023 2.01 5.375 25-14.602 30.25-24.908 33.745-27.907zm-7.875 3.372c-15.392 7.395-27.967 11.417-39.39 15.966-23.801 7.623-16.554 15.373 2.22 4.363 23.12-11.286 33.186-18.017 37.17-20.33zm-1.446-1.209c-16.197 5.409-28.468 8.726-40.372 11.807-24.568 4.582-20.152 9.767.562 3.577 24.352-8.3 35.568-13.589 39.81-15.384zm-3.367-.836c-16.708 3.525-31.431 6.727-35.759 6.646-23.193.948-21.344 6.457-.058 2.672 25.14-5.468 31.398-8.018 35.817-9.318zm-4.564-.082c-9.724.923-27.684 2.025-33.17 1.728-12.573-.921-20.71 4.417-3.399 3.156 27.63-2.71 34.14-3.935 36.569-4.884zm233.154-26.008l-13.935.182-.055 42.016c1.406 16.345 12.752 35.85 38.027 37.013h33.05c5.59.128 7.478-3.053 7.374-8.012v-70.288h-14.75v63.368h-22.761c-17.766.583-27.565-11.708-26.95-21.305zm246.416-.025l-13.935.183-.055 42.015c1.406 16.346 12.752 35.85 38.026 37.013h33.05c5.59.129 7.478-3.052 7.375-8.012v-70.288h-14.75v63.369H748.2c-17.767.582-27.565-11.709-26.95-21.305zm-164.838.389h13.84v64.624h57.177v13.581h-63.005c-2.64.091-8.375-1.511-8.194-6.46zm64.811-.033h77.127v14.163h-31.546v63.994h-14.164v-63.736h-31.417zm249.279.128v13.906h-50.474c-8.032 1.04-10.195 17.11.322 18.606h38.757c19.212.316 31.047 40.378-1.996 45.903h-56.654v-14.292h56.397c10.45-1.843 8.967-17.085 0-18.027h-35.796c-31.78-3.807-24.571-46.147 0-46.096z"/><path fill="#fff" d="M178.11 335.124c-18.692 15.444-24.223 26.55-21.577 34.962.555 2.007 3.562 5.957 3.641 3.642-.934-13.01 7.047-25.837 17.937-38.604z"/><ellipse cx="140.988" cy="314.811" fill="#fff" rx=".956" ry="1.548" transform="rotate(-29.483)"/></svg>