<?xml version="1.0" encoding="UTF-8" standalone="yes"?>
<svg version="1.1" id="Layer_1" xmlns="http://www.w3.org/2000/svg" xmlns:xlink="http://www.w3.org/1999/xlink" x="0px" y="0px" viewBox="-4.95 0.5800000000000001 502.9 141.84" style="enable-background:new 0 0 495.8 142.5;" xml:space="preserve">
  <style type="text/css">
	.st0{fill:#463F3A;}
	.st1{fill:#B0BA25;}
	.st2{fill:#815475;}
	.st3{fill:#00718B;}
</style>
  <g>
    <path id="XMLID_13_" class="st0" d="M15.9,14.3h0.3C22,6.5,34.9,2.1,45,2.1c22.7,0,33.3,16.4,33.3,35.5v48.6H64.4V40.1&#xA;&#x9;&#x9;c0-13.2-6.4-25.1-22.6-25.1c-19.2,0-25.8,17.8-25.8,32.4v38.9H2V4.4h13.9C15.9,4.4,15.9,14.3,15.9,14.3z"/>
    <path id="XMLID_10_" class="st0" d="M167.5,86.3h-13.9V75h-0.4C146,84,136.5,88.6,125,88.6c-24,0-39.2-20.4-39.2-43&#xA;&#x9;&#x9;c0-23.3,14.8-43.4,39.4-43.4c11.2,0,21.3,5.2,28.1,13.9h0.4V4.4h13.9L167.5,86.3L167.5,86.3z M100,44.5c0,16,9.4,31.2,26.8,31.2&#xA;&#x9;&#x9;c17.9,0,27.4-14.5,27.4-31c0-16.4-10.3-29.6-27.5-29.6C110.5,15,100,29.2,100,44.5z"/>
    <path id="XMLID_9_" class="st1" d="M316.8,7.8l-5.3,12c8.1,5.4,13.1,14.9,13.1,25.6c0,8.3-2.9,15.9-8,21.4l7.9,10.7&#xA;&#x9;&#x9;c8.7-7.8,14.1-19.1,14.1-31.9C338.5,29.3,329.8,15.2,316.8,7.8z"/>
    <path id="XMLID_8_" class="st2" d="M266.5,43.2c1-15.6,12.5-28.2,29-28.2c2.1,0,4.1,0.2,6.1,0.6l5.3-12c-3.6-1-7.4-1.5-11.3-1.5&#xA;&#x9;&#x9;c-23.8,0-42.6,18.9-43,42.6L266.5,43.2z"/>
    <path id="XMLID_7_" class="st3" d="M307.8,73c-3.7,1.7-7.8,2.6-12.3,2.6c-14.2,0-24.7-9.2-28-21.7l-13.9,1.5&#xA;&#x9;&#x9;c4.4,19.1,21.4,33.1,41.9,33.1c7.3,0,14.1-1.8,20.1-4.9L307.8,73z"/>
    <path id="XMLID_4_" class="st0" d="M363.2,16.1h0.4c6.8-9.1,16.9-13.9,28.2-13.9c24,0,39.2,20.7,39.2,43.4c0,23.3-14.8,43-39.4,43&#xA;&#x9;&#x9;c-11.2,0-21.4-4.9-28.1-13.8h-0.4v57.5h-13.9V4.4h13.9L363.2,16.1L363.2,16.1z M362.5,44.5c0,16,9.4,31.2,26.8,31.2&#xA;&#x9;&#x9;c17.9,0,27.4-14.5,27.4-31c0-16.4-10.3-29.6-27.5-29.6C372.9,15,362.5,29.2,362.5,44.5z"/>
    <path id="XMLID_2_" class="st0" d="M215.5,59.5l24.4-55.1h15.7l-40.1,87.3L175.2,4.4h15.9L215.5,59.5z"/>
    <path id="XMLID_1_" class="st0" d="M480.7,44.8c-7.2-4.7-29.7-8.9-29.1-19.3c0.4-6.9,5.7-11.5,13.2-11.5c9.2,0,13.2,5,16.7,12&#xA;&#x9;&#x9;l12.4-4.8c-4.4-11.8-15.2-19-28.9-19c-15.2,0-27.7,10.2-27.7,24.5c0,10.1,6.2,15.7,12.8,19.4c6.3,3.5,28.3,8.9,29.6,19.3&#xA;&#x9;&#x9;c0.8,6.8-5.8,11.5-13.2,11.5c-9.2,0-13.2-5-16.7-12l-12.4,4.8c4.4,11.8,15.2,19,28.9,19c15.2,0,27.7-10.2,27.7-24.5&#xA;&#x9;&#x9;C494,54,487.6,49.3,480.7,44.8z"/>
    <g>
      <path class="st0" d="M379.5,106h2.7v14.5h0.1c1.1-1.7,2.8-2.8,4.9-2.8c4.1,0,6.7,3.5,6.7,7.4c0,4.1-2.4,7.7-6.8,7.7&#xA;&#x9;&#x9;&#x9;c-2,0-3.7-1.1-4.8-2.7h-0.1v2.2h-2.7L379.5,106L379.5,106z M391.2,125.2c0-2.8-1.7-5.1-4.6-5.1c-2.8,0-4.5,2.5-4.5,5.1&#xA;&#x9;&#x9;&#x9;c0,2.7,1.6,5.1,4.5,5.1C389.5,130.3,391.2,128,391.2,125.2z"/>
      <path class="st0" d="M394.3,118.1h3.2l4.8,9l4.4-9h3.1l-11.5,22.3h-3.1l5.6-10.5L394.3,118.1z"/>
      <path class="st0" d="M422.7,109.5v13.5c0,3.7,1.1,7.2,5.5,7.2c4.4,0,5.5-3.4,5.5-7.2v-13.5h2.8v14.4c0,5-3.1,8.9-8.3,8.9&#xA;&#x9;&#x9;&#x9;c-5.2,0-8.3-3.8-8.3-8.9v-14.4H422.7z"/>
      <path class="st0" d="M442.9,120L442.9,120c0.9-1.5,2.6-2.3,4.3-2.3c4,0,5,2.7,5,6.1v8.4h-2.7v-8.1c0-2.4-0.3-4.1-3.1-4.1&#xA;&#x9;&#x9;&#x9;c-3.5,0-3.5,3.1-3.5,5.7v6.5h-2.7v-14.2h2.7L442.9,120L442.9,120z"/>
      <path class="st0" d="M459.8,111.7c0,1-0.8,1.8-1.9,1.8s-1.9-0.8-1.9-1.8c0-1.1,0.8-1.9,1.9-1.9S459.8,110.6,459.8,111.7z&#xA;&#x9;&#x9;&#x9; M459.3,132.3h-2.7v-14.2h2.7V132.3z"/>
      <path class="st0" d="M468.5,127l4.1-8.8h3.1l-7.1,14.6l-7.1-14.6h3.1L468.5,127z"/>
      <path class="st0" d="M490.4,132.3h-2.7v-2.2h-0.1c-1.1,1.6-2.8,2.7-4.8,2.7c-4.3,0-6.8-3.6-6.8-7.7c0-3.9,2.6-7.4,6.7-7.4&#xA;&#x9;&#x9;&#x9;c2.1,0,3.8,1.1,4.9,2.8h0.1v-2.4h2.7V132.3z M487.8,125.2c0-2.8-1.7-5.1-4.6-5.1c-2.8,0-4.5,2.5-4.5,5.1c0,2.7,1.6,5.1,4.5,5.1&#xA;&#x9;&#x9;&#x9;C486.2,130.3,487.8,128,487.8,125.2z"/>
    </g>
  </g>
</svg>