<svg xmlns="http://www.w3.org/2000/svg" role="img" viewBox="-9.59 -9.59 498.68 103.18"><title>NetApp (KCSP) logo</title><path fill="#231f20" d="M445.35687 42.6023v-.19172c0-8.65339-5.83986-14.39231-12.74502-14.39231-6.8945 0-12.64102 5.73892-12.64102 14.3923v.19173c0 8.66072 5.74653 14.40431 12.64102 14.40431 6.90516 0 12.74502-5.6488 12.74502-14.4043zm-39.975-26.164h14.78763v7.4874c3.5959-4.8608 8.56111-8.45458 16.23826-8.45458 12.16103 0 23.7274 9.5295 23.7274 26.93946v.19172c0 17.41464-11.37438 26.94506-23.7274 26.94506-7.88114 0-12.74635-3.5983-16.23826-7.77993V84.133h-14.78763V16.4383M111.8592.00696h13.82312l31.8964 42.4036V.00698h14.78364v68.57375H159.624l-32.96984-43.29518v43.29518H111.8592V.00697m104.45273 38.41624c-.87065-6.6217-4.76255-11.09346-10.97973-11.09346-6.13718 0-10.12775 4.39523-11.29038 11.09346zm-36.76175 4.37909v-.2c0-14.87989 10.60373-27.13118 25.78202-27.13118 17.40223 0 25.37403 13.519 25.37403 28.30409 0 1.1629-.08666 2.5322-.196 3.88937h-36.27775c1.4693 6.70983 6.12918 10.21748 12.74768 10.21748 4.96254 0 8.55445-1.55716 12.64235-5.3556l8.45312 7.49048c-4.85454 6.03265-11.86104 9.72522-21.28747 9.72522-15.6636 0-27.23798-10.98773-27.23798-26.93986m60.38915 10.98093V29.08024h-6.2225V16.4383h6.2225V3.12196h14.7743v13.31633H266.98v12.64195h-12.26636v22.27758c0 3.40405 1.46797 5.06187 4.76922 5.06187 2.72126 0 5.15187-.68025 7.29981-1.85888v11.87157c-3.11459 1.85315-6.72383 3.01819-11.68637 3.01819-9.03577 0-15.15696-3.60205-15.15696-15.66734M384.5744 42.6023v-.19172c0-8.65339-5.8372-14.39231-12.73435-14.39231-6.90116 0-12.63835 5.73892-12.63835 14.3923v.19173c0 8.66072 5.73719 14.40431 12.63835 14.40431 6.89716 0 12.73435-5.6488 12.73435-14.4043zm-39.96034-26.164h14.78096v7.4874c3.59592-4.8608 8.5518-8.45458 16.24093-8.45458 12.16103 0 23.7274 9.5295 23.7274 26.93946v.19172c0 17.41464-11.37437 26.94506-23.7274 26.94506-7.87713 0-12.74635-3.5983-16.24093-7.77993V84.133h-14.78096V16.4383m-30.01792 23.6494l-9.0411-22.09838-9.05044 22.09838zM299.01253.0007h13.45832l28.44863 68.58002h-15.60495l-6.26917-15.28082h-26.99133l-6.2265 15.28082h-15.2623L299.01254.0007"/><path fill="#1575c5" d="M0 .01004v68.57068h31.99867v-41.1427H50.2842v41.1427h31.9992V.01004H0"/><path fill="#231f20" d="M469.63493 23.50012h1.62795c.33466 0 .65865-.0104.97598-.03334.32133-.026.60799-.08853.84398-.19533.24933-.10773.44132-.27079.58798-.49105.14267-.2204.216-.53025.216-.92704 0-.33386-.064-.60265-.19866-.79798-.12267-.19786-.296-.35253-.49866-.4604-.20666-.10572-.44265-.17865-.71065-.21452-.25999-.03547-.53198-.05893-.78798-.05893h-2.05594zm-1.55063-4.43523h3.85857c1.18663 0 2.06661.238 2.64127.70825.56531.4724.8573 1.18957.8573 2.14888 0 .89998-.25332 1.55836-.7613 1.97609-.49733.42132-1.12265.66758-1.87063.74318l2.85726 4.40922h-1.66662l-2.72127-4.2963h-1.64395v4.2963h-1.55063zm-3.72658 4.96081c0 1.04944.18267 2.02129.53732 2.91393.35866.88904.85332 1.66196 1.49197 2.31608.62531.65678 1.3773 1.17077 2.23194 1.54476.85998.37079 1.79329.55678 2.79993.55678.98931 0 1.91329-.186 2.76393-.55678.85731-.374 1.5973-.88798 2.22661-1.54476.62932-.65412 1.12797-1.42704 1.48663-2.31608.35866-.89264.53732-1.86449.53732-2.91393 0-1.0229-.17866-1.97341-.53732-2.8578-.35866-.88224-.85731-1.64835-1.48663-2.29367-.62931-.64998-1.3693-1.1589-2.2266-1.5317-.85065-.37292-1.77463-.55891-2.76394-.55891-1.00664 0-1.93995.186-2.79993.55892-.85464.37279-1.60663.8817-2.23194 1.5317-.63865.6453-1.1333 1.41142-1.49197 2.29367-.35465.88438-.53732 1.83488-.53732 2.8578zm-1.55462 0c0-1.2037.22932-2.3214.68398-3.35885.46132-1.03797 1.07864-1.93581 1.86795-2.69833.78265-.76091 1.69996-1.36037 2.7426-1.79115 1.03997-.43693 2.14661-.65252 3.32125-.65252 1.15864 0 2.25594.2156 3.30125.65252 1.04264.43078 1.95062 1.03024 2.72793 1.79115.77865.76252 1.39464 1.66036 1.85196 2.69833.45599 1.03744.68798 2.15515.68798 3.35885 0 1.23277-.232 2.37274-.68798 3.41232-.45732 1.0469-1.0733 1.95368-1.85196 2.72086-.77731.76972-1.68529 1.36864-2.72793 1.8025-1.0453.43798-2.14261.6521-3.30125.6521-1.17464 0-2.28128-.21412-3.32125-.6521-1.04264-.43386-1.95995-1.03278-2.7426-1.8025-.78931-.76718-1.40663-1.67396-1.86795-2.72086-.45466-1.03958-.68398-2.17955-.68398-3.41232"/></svg>