<svg xmlns="http://www.w3.org/2000/svg" role="img" viewBox="-0.10 97.90 499.20 342.20"><title>Netease Qingzhou Microservice logo</title><path fill="#0360F9" d="M245.547 107.548c-49.581 0-89.772 40.192-89.772 89.772 0 41.373 23.919 79.385 74.291 79.124-34.099-19.036-46.62-49.1-46.62-75.43 0-35.66 28.904-64.574 64.564-64.574 35.667 0 64.572 28.914 64.572 64.574 0 57.976-62.531 73.109-62.531 128.633 10.409-33.267 85.27-61.89 85.27-132.327-.002-49.58-40.195-89.772-89.774-89.772z"/><path fill="#0360F9" d="M100.068 258.711c0-24.581 19.937-44.507 44.506-44.507 39.961 0 32.456 15.643 73.098 15.643-24.35-7.627-25.609-35.048-77.162-35.048-36.29 0-65.704 29.423-65.704 65.713 0 36.27 29.414 65.693 65.704 65.693 20.126 0 45.486-8.286 49.609-36.85-12.089 12.35-30.773 13.851-45.546 13.851-24.568 0-44.505-19.916-44.505-44.495z"/><path fill="#0360F9" d="M348.771 194.699c-51.562 0-116.174 69.576-191.575 82.106 84.318 0 155.044-64.222 190.114-64.222 26.121 0 47.277 19.926 47.277 46.047 0 26.102-21.156 47.278-47.277 47.278-16.213 0-32.086-1.801-47.259-19.996 4.744 26.422 22.738 40.253 49.96 40.253 36.311 0 65.734-29.424 65.734-65.734 0-36.308-30.664-65.732-66.974-65.732z"/><path fill="#3B3B3C" fill-rule="evenodd" d="M17.311 429.245l-7.811-.004v-60.344l7.546-.035 25.537 44.468.007-4.359-.099-40.259 7.759-.026v60.651h-7.853l-25.121-44.032.035 4.242zm146.276-34.886l.011 8.254h-25.113l.134 17.916 27.439.528v8.899l-35.801-.046v-61.575l36.419-.055v8.282l-28.275.11-.029 17.687zm34.978 8.9v-5.562c0-10.753-15.697-5.798-19.747-4.058-1.018-1.987-1.76-4.582-2.253-6.438 8.774-5.19 30.695-7.786 30.695 10.26v33.074c-2.885.038-12.979.545-19.077.408-11.564-.27-15.216-7.998-14.213-17.18.741-6.797 4.572-8.528 7.539-9.887 4.673-2.14 17.056-.617 17.056-.617zm.179 8.685s-10.438-2.631-15.043 1.027c-2.563 2.151-2.316 6.725 1.167 9.169 3.067 2.253 14.068.275 14.068.275l-.192-10.471zm283.273-26.774v-16.52l7.623.029v60.657c-8.221.371-6.612.619-14.956.619-13.226 0-17.551-6.975-17.551-13.843 0-5.491-.124-11.619-.124-16.934 0-10.383 6.864-13.967 16.934-13.967 3.236.002 3.465-.041 8.074-.041zm-17.224 14.628c0 7.046.125 5.314.125 15.078 0 8.404 7.23 8.528 17.018 7.417 0-9.861-.241-19.253-.241-28.959-5.308 0-16.902-1.817-16.902 6.464zM91.528 411.1c-8.603 0-17.442.161-24.472.161 0 5.099.054 8.853 3.152 10.567 5.469 2.596 12.514.557 16.871-.647.834 1.76 1.761 4.448 2.781 7.138-.766.335-2.753 1.018-4.171 1.297-5.177 1.021-9.685 1.645-14.368.927-7.879-1.205-12.169-4.637-12.744-12.489-.504-6.913-.486-13.916-.044-20.843.413-6.454 4.77-10.928 11.119-11.715 14.663-1.815 21.846 2.128 21.846 18.741-.001 2.111.163 4.189.03 6.863zm-16.315-17.452c-7.23 0-8.568 1.761-8.343 10.588 5.152 0 12.156-.021 16.964-.021-.093-8.899-2.595-10.567-8.621-10.567zm273.465 27.8c.738 1.4 1.827 3.933 2.654 6.405-8.899 3.462-19.9 4.079-28.663 0-6.021-2.803-8.571-8.71-8.577-15.452 0-8.785-.333-17.548-.333-26.353 0-9.859 6.354-16.874 16.066-18.14 7.18-.94 15.942-.247 21.011 2.225-.568 2.171-1.518 5.219-2.161 6.735-7.046-1.482-10.816-2.162-16.501-1.421-6.882.897-10.15 4.056-10.15 11.13 0 8.646-.32 16.841-.024 25.246.236 6.711 3.623 9.851 10.175 10.963 5.376.914 10.816.262 16.503-1.338zm-59.649-9.415h-24.09c0 4.203-.989 10.26 8.033 10.26h14.337v8.251c-4.507 0-9.911-.041-14.831-.041-10.753 0-16.398-4.749-16.398-13.651 0-6.301-.164-10.812-.164-16.807 0-11.001 5.736-14.885 16.739-14.859 10.599.031 16.331 4.848 16.331 14.117 0 3.956.043 7.249.043 12.73zm-24.338-8.158l16.809.002c0-6.674-.863-11.125-8.775-11.125-8.652 0-8.034 4.821-8.034 11.123zm-20.148-18.785c0 2.842-.056 5.26-.056 8.227-5.932 0-10.08.054-15.395.054-7.042 0-6.424 10.505-.248 10.505h5.563c9.526 0 14.287 4.166 14.339 13.301.051 9.463-4.897 13.308-15.449 13.308-5.084 0-10.791.024-15.081.024l-.001-7.721c6.673 0 9.94-.124 16.563-.124 7.293 0 6.922-10.753-.124-10.753-3.336 0-2.621-.025-5.807-.025-10.383 0-13.721-5.908-13.721-13.941 0-9.27 7.272-12.809 14.506-12.809 4.298-.001 5.224-.046 14.911-.046zm171.552 34.113c0-14.214.095-32.508.095-32.508l8.061.057v30.843c0 2.842 3.463 5.346 8.404 5.346 4.329 0 8.529-1.884 8.529-4.728v-31.439l7.926-.107s.066 21.165.066 32.907c0 6.674-7.992 11.124-15.902 11.124-8.651-.001-17.179-3.832-17.179-11.495zm-7.414-22.125c0 9.147-.104 13.154-.051 22.618 0 5.81-6.257 10.753-16.144 10.753-9.64 0-17.055-3.708-17.055-11.865 0-7.973-.122-12.607-.122-21.383 0-7.91 8.281-11.865 17.056-11.865 8.033 0 16.316 3.337 16.316 11.742zm-7.665.618c0-2.966-5.438-4.596-9.393-4.596-4.448 0-8.776 1.876-8.776 4.843 0 7.786.124 11.741.124 19.899 0 5.191 6.549 5.438 9.765 5.438 3.248 0 8.403-1.235 8.403-5.19 0-7.169-.123-12.113-.123-20.394zm-296.603-.525c-2.142 0-4.145-.028-6.025-.028 0-2.289-.093-5.998-.093-7.573h6.21v-9.641h8.343l-.033 9.641h7.449l.074 7.602-7.571.186V418.4c0 4.202 3.45 5.439 7.807 4.142 1.141 2.315 1.576 3.305 2.596 5.438-5.654 5.19-16.185 1.486-17.898-4.497-.881-3.069-.658-6.466-.756-9.724-.119-3.996-.039-5.083-.081-9.078-.003-.717-.022-5.749-.022-7.51zm255.88-29.138l7.338.016.139 61.536-7.477-.058z" clip-rule="evenodd"/></svg>