<svg xmlns="http://www.w3.org/2000/svg" role="img" viewBox="-6.18 -6.18 321.36 61.36"><title>Nightingale logo</title><defs><linearGradient id="a" x1="50%" x2="50%" y1="0%" y2="100%"><stop offset="0%" stop-color="#32C5FF"/><stop offset="100%" stop-color="#3370FF"/></linearGradient></defs><g fill-rule="nonzero" fill="none"><path fill="url(#a)" d="M.0009 12.28437L21.27693 0 42.5524 12.2834l-.0004 6.9646h-5.32l.00086-3.89382-15.95698-9.21276-15.9563 9.2137L5.318 23.568l4.39583.00083 5.05622-5.05458 1.4108 3.2748 4.45822-10.63635 2.9003 12.6438 2.92444-6.24195 3.71917 6.72705.72718-.7117 6.32084-.0009.001-.066h5.32l-.00017 13.34817L21.2758 49.13554.00034 36.85214 0 32.014h5.319l.00035 1.76706 15.95514 9.2117 15.95866-9.21356-.00115-5.9552-4.58413.00015-3.48235 3.41393-2.38892-4.32137-4.62195 9.86997-2.70465-11.787-3.21331 7.66919-2.89307-6.71174-1.8666 1.86808H.00034L.0009 12.28437z"/><path fill="#515151" d="M63.1 39.08V21.04l8.84 18.04h9.04V12.24h-7.12v18.28l-8.48-18.28h-9.4v26.84h7.12zm30.72-21.32v-5.52h-7.4v5.52h7.4zm0 21.32V19.44h-7.4v19.64h7.4zm27.92 7.84V19.4H98.62v17.08h15.76v6.72H98.42v3.72h23.32zm-7.36-14.12h-8.4v-9.68h8.4v9.68zm19.08 6.28V23.2h8.8v15.88h7.36V19.44h-16.16v-7.16h-7.4v26.8h7.4zm40.92 0v-3.76h-7.52V23.16h8.68V19.4h-8.68V15h-7.4v4.4h-6.68v3.76h6.68v15.92h14.92zm12.64-21.32v-5.52h-7.4v5.52h7.4zm0 21.32V19.44h-7.4v19.64h7.4zm11.28-.04V23.2h9.24v15.84h7.4v-19.6h-24v19.6h7.36zm43.84 7.88V19.4h-23.12v17.08h15.76v6.72h-15.96v3.72h23.32zm-7.36-14.12h-8.4v-9.68h8.4v9.68zm35.72 6.28v-3.76h-1.28V19.44h-22.84v3.76h15.48v3.56h-15.48v12.32h24.12zm-8.64-3.76h-8.08v-4.84h8.08v4.84zm18.8 3.76V12.24h-7.4v26.84h7.4zm28.56 0v-3.76h-16.6V31.4h16.6V19.44h-24v19.64h24zm-7.36-11.36h-9.24V23.2h9.24v4.52z"/></g></svg>