<svg xmlns="http://www.w3.org/2000/svg" role="img" viewBox="36.89 29.14 291.46 97.96"><title>Nimbella logo</title><style>svg {enable-background:new 0 0 365.4 162.2}</style><path fill="#52bfd2" d="M130.9 79.5c6.9-2 18.2-13.7 15.7-19.1 11.7-3.8 22.7-21 21.8-23.5-3-8.6-25.8 11.4-34 21.3-1.7 3-7.5 12.5-7.5 12.5l5.9-13.5s-23.7-30.4-33.9-19c-7.7 8.6 7.4 19.3 10.3 20.5-2.5 2.1-10 19.4 7.8 20.8 4 .3 8.2-2.7 8.2-2.7s-1.1 4.7 5.7 2.7z"/><path fill="#43728a" d="M102.7 75.7c-1.2 2.4-1.8 5-1.8 7.9v32.2c0 3.1 2.5 5.6 5.6 5.6h1.1c3.1 0 5.6-2.5 5.6-5.6v-32c-6.3-1.6-9.2-5.2-10.5-8.1zm28.7 45.6c3.3 0 6-2.7 6-6V82.8c-1.4.7-2.7 1.3-4 1.7-1.6.4-3 .7-4.3.7-1.6 0-2.8-.3-3.8-.8v31c0 3.3 2.7 5.9 6.1 5.9zm-41.2-60c3.3 0 6-2.7 6.1-6 0-3.3-2.7-6-6.1-6-3.3 0-6 2.7-6.1 6 0 3.3 2.7 6 6.1 6zM228 121.4c4.9 0 9.1-1.8 12.7-5.3 3.5-3.5 5.3-7.6 5.3-12.4l-.2-.2h-9.6c-1.1 0-2.1.7-2.5 1.8-.3.9-.8 1.7-1.5 2.4-1.2 1.1-2.6 1.7-4.3 1.7-1.7 0-3.1-.6-4.2-1.7s-1.7-2.5-1.7-4.2v-1.9c0-.1.1-.2.2-.2h5.7c4.9 0 9.1-1.8 12.7-5.3 3.6-3.5 5.3-7.7 5.3-12.7 0-4.9-1.8-9.2-5.3-12.7-3.6-3.5-7.8-5.3-12.7-5.3-4.9 0-9.1 1.8-12.6 5.3s-5.3 7.7-5.3 12.7v20c0 4.9 1.8 9.1 5.3 12.7 3.6 3.5 7.8 5.3 12.7 5.3zm-5.9-37.9c0-1.7.6-3.1 1.7-4.3 1-1.1 2.3-1.6 3.8-1.7 1.7-.1 3.5.5 4.8 1.8 1.1 1.1 1.7 2.5 1.7 4.1 0 1.7-.7 3.4-2 4.6-1.1 1.1-2.5 1.6-4.1 1.6h-5.7c-.1 0-.2-.1-.2-.2v-5.9zm-132-18.1c-3.3 0-6 2.7-6 6v43.9c0 3.3 2.7 6 6 6h.1c3.3 0 6-2.7 6-6V71.4c0-3.3-2.7-6-6.1-6zm227.3 5.3c-3.5-3.5-7.7-5.3-12.6-5.3s-9.1 1.8-12.7 5.3c-3.5 3.4-5.3 7.6-5.3 12.4l.3.3h9.4c1.1 0 2.2-.9 2.6-1.9.3-.8.8-1.6 1.5-2.3 1.2-1.1 2.6-1.7 4.3-1.7 1.7 0 3.1.6 4.2 1.7s1.7 2.5 1.7 4.2v1.9c0 .1-.1.3-.3.3h-8.1c-4.9 0-9.1 1.8-12.7 5.3-3.6 3.5-5.3 7.7-5.3 12.7 0 4.9 1.8 9.2 5.3 12.7 3.6 3.5 7.8 5.3 12.7 5.3 2.9 0 7.7-.4 9.5-2.3h.1c.6 1 2.4 2.2 4.8 2.2 3.3 0 6-3 6-6.3V83.4c-.1-5-1.9-9.2-5.4-12.7zm-6.7 32.7c0 1.7-.6 3.1-1.7 4.3-1 1.1-2.3 1.6-3.8 1.7h-2.4c-1.7.1-3.5-.5-4.8-1.8-1.1-1.1-1.7-2.5-1.7-4.1 0-1.7.7-3.4 2-4.6 1.1-1.1 2.5-1.6 4.1-1.6h8.1c.1 0 .3.1.3.3v5.8zM61 65.4c-3.1 0-5.8.7-8.4 2-1.1-.9-2.4-1.5-3.9-1.5h-.1c-3.3 0-6 2.7-6 6v43.9c0 3.1 2.5 5.6 5.6 5.6h1.1c3.1 0 5.6-2.5 5.6-5.6V83.6c0-1.7.6-3.1 1.8-4.3 1.2-1.2 2.7-1.7 4.4-1.7 1.7 0 3.1.6 4.3 1.7 1.2 1.2 1.7 2.6 1.7 4.3v32.2c0 3.1 2.5 5.6 5.6 5.6h1.1c3.1 0 5.5-2.5 5.5-5.6V83.6c0-5-1.8-9.3-5.4-12.9-3.6-3.6-7.9-5.3-12.9-5.3zm196-14.2h-.4c-3.2 0-5.7 2.6-5.7 5.7v58.7c0 3.2 2.6 5.7 5.7 5.7h.4c3.2 0 5.7-2.6 5.7-5.7V56.9c0-3.1-2.5-5.7-5.7-5.7zm-51.8 51.2v-18c0-4-1.1-7.5-3.3-10.7-3.7-5.2-10-8.1-16.4-8.1H181c-.7 0-1.2-.5-1.2-1.2v-9.3c0-3.2-2.6-5.7-5.7-5.7h-.4c-3.2 0-5.7 2-5.7 5.7v60.7c0 3.3 2.6 5.6 5.7 5.6h.4c1.8 0 3.5-.9 4.5-2.2 2.4 1.2 5.1 2.3 8 2.3 5.2 0 9.6-2.3 13.3-6 3.5-3.7 5.3-8 5.3-13.1zm-12.4 0c0 1.7-.6 3.2-1.8 4.4-1.2 1.2-2.7 1.8-4.4 1.8-1.7 0-3.2-.6-4.4-1.8-1.2-1.2-1.8-2.6-1.8-4.4V78.1h6.2c1.7 0 3.2.6 4.4 1.8s1.8 2.7 1.8 4.4v18.1zm-31.1-18.8c0-5-1.8-9.3-5.4-12.9-1.4-1.4-2.8-2.4-4.4-3.3-.1.2-.1.3-.2.5-1.5 3.3-4.2 6.8-7.4 9.7 4.2.5 5.1 4.4 5.1 6v32.2c0 3.1 2.5 5.6 5.6 5.6h1.1c3.1 0 5.6-2.5 5.6-5.6V83.6zm112-32.4h-.4c-3.2 0-5.7 2.6-5.7 5.7v58.7c0 3.2 2.6 5.7 5.7 5.7h.4c3.2 0 5.7-2.6 5.7-5.7V56.9c.1-3.1-2.5-5.7-5.7-5.7z"/></svg>