<svg xmlns="http://www.w3.org/2000/svg" role="img" viewBox="271.23 451.73 57.41 72.41"><title>Non-Public Organization Parrot (supporter) logo</title><path d="M321.956 453.225c-.008.009-.27.038-.578.063a8.18 8.18 0 0 0-.811.108 9.77 9.77 0 0 1-.562.125c-.84.162-1.164.241-1.414.337a1.987 1.987 0 0 1-.29.079c-.217.041-.541.15-.566.191-.013.02-.075.037-.138.037-.062 0-.129.013-.145.03a.146.146 0 0 1-.08.037c-.09.012-.582.191-.93.333a2.509 2.509 0 0 1-.396.141.17.17 0 0 0-.104.046c-.03.029-.158.083-.291.129-.22.075-.42.162-.99.432a1.51 1.51 0 0 1-.245.1.225.225 0 0 0-.104.054 1.114 1.114 0 0 1-.275.133 1.035 1.035 0 0 0-.229.104c-.012.013-.178.1-.374.187a41.18 41.18 0 0 0-.52.254c-.091.05-.333.179-.54.287l-.458.241c-.046.03-.25.142-.458.254-.203.112-.465.266-.582.337-.37.233-.495.308-.715.416-.117.058-.225.12-.237.141-.025.038-.508.333-.857.528-.087.05-.212.138-.275.2-.066.058-.145.108-.178.108-.034 0-.088.03-.125.063a11.77 11.77 0 0 1-.861.582c-.075.046-.308.204-.524.35-.574.399-.637.436-.657.465a1.444 1.444 0 0 1-.154.1c-.075.046-.137.096-.137.112 0 .017-.075.071-.163.113a1.242 1.242 0 0 0-.216.137c-.033.029-.15.12-.258.2a25.19 25.19 0 0 0-.4.299c-.111.087-.224.158-.249.158-.025 0-.045.029-.045.062 0 .034-.025.063-.05.063-.03 0-.138.066-.237.145-.1.08-.196.146-.208.146-.013 0-.13.096-.254.208-.125.112-.241.208-.258.208-.017 0-.154.104-.303.228-.146.125-.283.23-.3.23-.017 0-.146.103-.283.228l-.25.229h-.498a5.62 5.62 0 0 0-.687.041c-.432.08-.64.13-.682.163a1.336 1.336 0 0 1-.241.083c-.208.05-.724.308-1.023.507a3.92 3.92 0 0 1-.345.204c-.088.046-.163.1-.163.12 0 .017-.05.059-.112.092-.112.054-.204.133-.549.458a2.35 2.35 0 0 1-.27.216c-.058.041-.108.1-.108.133 0 .03-.034.067-.075.079a.304.304 0 0 0-.133.129c-.03.058-.071.104-.088.104-.037 0-.91 1.06-.91 1.102a.725.725 0 0 1-.105.162.536.536 0 0 0-.103.183c0 .03-.017.05-.034.05-.02 0-.12.133-.229.295a1.571 1.571 0 0 1-.474.491 3.658 3.658 0 0 0-.34.27c-.03.038-.076.067-.1.067-.026 0-.096.046-.154.104-.158.154-.333.312-.354.312-.07 0-1.119 1.036-1.493 1.477-.428.511-.433.515-.64.823-.408.603-.65 1.032-.778 1.38a2.048 2.048 0 0 1-.133.292.322.322 0 0 0-.054.137c0 .03-.038.133-.084.225a.853.853 0 0 0-.083.287c0 .125-.087.224-.15.166a.303.303 0 0 0-.141-.054c-.087-.012-.108-.041-.129-.2-.033-.228-.179-.615-.266-.702-.033-.038-.162-.075-.283-.088-.35-.033-.337-.075.208-.848.254-.362.308-1.21.067-1.119-.075.03-.075.017.05-.44.083-.313.066-.554-.05-.783-.063-.12-.104-.154-.175-.145-.104.016-.108 0-.02-.17.049-.096.07-.25.074-.57 0-.392-.008-.458-.096-.604-.17-.283-.208-.295-.387-.116-.187.183-.19.166-.087-.345.058-.304.063-.396.017-.653-.03-.167-.063-.375-.075-.466a.575.575 0 0 0-.058-.208c-.021-.021-.038-.075-.038-.125-.004-.104-.104-.295-.137-.245-.012.02-.033.15-.05.287-.012.137-.05.316-.083.395-.03.079-.083.237-.117.353l-.058.204-.054-.162a3.17 3.17 0 0 0-.17-.387l-.117-.225.067-.357c.083-.483.062-1.585-.038-1.797-.033-.079-.091-.212-.12-.291a1.02 1.02 0 0 0-.15-.262.47.47 0 0 1-.096-.154c0-.087-.129-.075-.174.02-.075.167-.117.08-.117-.245 0-.17-.025-.399-.058-.507a7.479 7.479 0 0 1-.104-.412c-.058-.245-.358-.894-.416-.894-.02 0-.054.087-.067.195a5.08 5.08 0 0 1-.083.408 5.24 5.24 0 0 0-.129.624 3.596 3.596 0 0 1-.129.561 3.816 3.816 0 0 0-.12.437 3.1 3.1 0 0 1-.12.437 1.03 1.03 0 0 0-.08.27c-.037.196-.15.566-.191.624a.642.642 0 0 0-.058.208.87.87 0 0 1-.084.25 3.04 3.04 0 0 0-.166.445c-.066.203-.137.366-.158.366-.02 0-.03.016-.017.033.025.041-.104.474-.166.553a1.569 1.569 0 0 0-.125.32c-.054.188-.116.296-.195.354-.329.25-.637.728-.716 1.102l-.029.141-.112-.108c-.137-.129-.183-.133-.341-.02-.12.087-.287.353-.287.465a.157.157 0 0 1-.058.108c-.108.092-.146.42-.187 1.714-.017.562-.046 1.044-.059 1.065-.016.025-.008.2.017.39.025.192.058.546.079.787.042.499.112.91.166.977a.7.7 0 0 1 .067.22.545.545 0 0 0 .062.2c.021.013.038.117.038.229 0 .116.02.245.041.291.025.042.054.204.067.362.012.154.033.308.046.341.016.033.02.08.016.1-.012.054.075.432.142.607.037.104.062.566.083 1.58.029 1.473 0 2.126-.13 2.995-.037.241-.09.603-.12.811-.029.204-.07.429-.095.5a3.834 3.834 0 0 0-.092.299l-.046.179h-.324c-.283 0-.329-.009-.345-.075-.021-.08-.246-.133-.558-.133-.079 0-.141-.021-.141-.042 0-.025.03-.041.067-.041.054 0 .058-.013.02-.059-.025-.029-.174-.066-.337-.083-.29-.03-.357-.07-.216-.133.083-.037-.216-.091-.54-.096-.138-.004-.208-.025-.233-.075-.03-.05-.113-.074-.296-.087-.141-.008-.253-.033-.253-.054 0-.02.025-.037.054-.037.033 0 .029-.017-.013-.042-.033-.02-.179-.042-.324-.042-.154 0-.254-.016-.237-.037.037-.067-.117-.125-.412-.154-.17-.017-.275-.046-.275-.079 0-.066-.27-.146-.524-.154-.154-.004-.17-.008-.07-.02.283-.038.12-.092-.291-.105-.362-.012-.408-.02-.32-.062.09-.042.058-.05-.23-.05-.182 0-.399.013-.482.033-.154.034-.254.009-.25-.062 0-.02-.137-.033-.311-.025-.18.004-.304-.004-.292-.025.025-.041-.823-.112-.885-.075-.021.013-.225.034-.458.042-.333.016-.45.037-.561.104a.537.537 0 0 1-.192.087c-.029 0-.208.075-.399.166a3.562 3.562 0 0 1-.383.167.426.426 0 0 0-.15.087c-.058.046-.124.075-.145.063-.096-.063-.736.482-1.019.86-.125.171-.316.516-.316.579a.653.653 0 0 1-.092.191c-.15.245-.282.678-.282.923a.62.62 0 0 0 .124.416c.125.187.158.35.088.391-.021.017-.05.104-.067.204a2.184 2.184 0 0 1-.087.316c-.096.233-.15 1.098-.104 1.668.037.45.141.915.258 1.131.02.042.037.1.037.133 0 .03.025.08.058.104a.63.63 0 0 1 .125.183c.158.304.27.466.562.782.42.458.923.795 1.46.973.124.038.278.1.34.13a.45.45 0 0 0 .175.058c.083 0 .088-.1.004-.167-.033-.029-.062-.075-.062-.104 0-.029-.03-.075-.062-.104-.104-.087-.47-.898-.425-.94.013-.012.196 0 .404.03.657.087 1.747-.005 2.142-.188.35-.158.461-.22.54-.3.088-.095.416-.182.8-.211.22-.021.22-.021.44.203.116.121.245.238.283.262.037.021.145.096.245.167.212.15.603.374.749.437.058.02.133.058.166.083.033.02.22.116.412.212.266.137.353.2.387.295.02.063.058.117.079.117.02 0 .079.07.137.154.129.207 1.065 1.127 1.356 1.339l.362.262a.433.433 0 0 1 .158.204c.012.062.079.2.15.303.066.108.12.208.12.22 0 .013.096.163.208.333.117.167.208.316.208.333 0 .013.075.125.166.245.092.121.167.233.167.242 0 .025.324.466.511.69.063.08.18.22.25.308.075.087.424.457.778.823l.644.658.325.632c.179.35.34.653.357.674.021.024.067.137.108.253.042.113.1.237.125.27.03.034.067.117.08.188a.56.56 0 0 0 .087.187c.054.062.349.898.432 1.227l.125.466c.042.166.104.524.133.802.062.595.05.628-.22.529a1.09 1.09 0 0 0-.354-.071c-.141 0-.195.029-.337.162-.154.15-.179.158-.353.142-.4-.046-.587.1-1.173.902-.395.54-.582.923-.64 1.29-.1.623.058.835.669.902.162.017.208.004.27-.067.038-.05.083-.087.096-.087.012 0 .066.083.125.183.187.345.436.366.906.08.362-.221.491-.354.633-.675.066-.15.016-.154-.121-.008-.067.07-.137.129-.162.129-.021 0-.063.029-.092.062-.029.034-.066.063-.083.063-.054 0-.079-.262-.042-.437.021-.092.059-.27.088-.395.029-.125.07-.258.1-.291.025-.034.075-.13.108-.208.029-.08.1-.212.154-.296.083-.128.129-.158.287-.178a.627.627 0 0 1 .224 0c.058.033.046.49-.012.553-.038.033-.054.183-.054.432-.004.404-.08.674-.208.72-.034.012-.063.046-.063.066 0 .025-.045.08-.104.125-.224.175-.079.212.246.058.204-.1.345-.216.536-.449a.503.503 0 0 1 .187-.137c.088-.025.092-.017.092.233 0 .312.1.503.337.62.195.104.582.112.661.02.08-.095.104-.079.154.113.03.1.104.233.179.303.116.108.162.125.437.138.3.016.316.012.424-.104.066-.067.191-.175.283-.242.091-.066.216-.17.278-.237a.511.511 0 0 1 .23-.137.683.683 0 0 0 .178-.062c.033-.021.137-.075.229-.125.091-.046.228-.17.303-.27.075-.104.167-.188.2-.188.037 0 .137-.075.225-.162.22-.224.25-.432.128-.915-.095-.395-.108-.545-.045-.545.02 0 .087-.083.145-.183a2.39 2.39 0 0 1 .262-.353c.083-.092.225-.304.316-.47.088-.167.183-.333.213-.366.029-.033.083-.162.128-.283.042-.116.096-.216.125-.216.025 0 .137.116.25.258.112.145.233.29.266.332.091.1.233.283.35.45.174.249.552.798.727 1.06.092.137.208.304.254.374.254.375.457.687.457.703 0 .009.088.146.192.304.104.154.208.32.233.366.02.046.104.195.183.333.074.137.178.332.224.436.046.104.1.217.125.25.02.033.116.22.212.416.092.195.187.382.208.416.033.054.362.698.595 1.152.041.087.1.174.129.2a.59.59 0 0 1 .104.187c.066.166.22.445.832 1.518l.312.553c.103.187.203.35.357.578a1.2 1.2 0 0 1 .12.195c0 .013.088.159.2.32.109.163.225.35.258.408.038.063.142.225.23.358.09.129.199.3.244.37.042.07.088.137.104.15.017.012.075.096.13.187a.782.782 0 0 0 .153.2c.03.016.054.054.054.075 0 .024.075.153.167.287.091.133.166.266.166.286 0 .025.017.046.037.046.021 0 .055.042.067.092.017.054.075.154.129.229.054.07.1.145.1.166 0 .02.054.1.12.179a2.8 2.8 0 0 1 .217.328c.158.291.187.333.274.433.046.05.167.22.266.382.096.159.204.32.233.354.034.033.13.166.22.291.167.237.288.387.45.566.05.058.091.116.091.129 0 .033.366.47.487.578.054.05.096.1.096.112 0 .038.678.703 1.019.994.657.566.72.616.752.616.021 0 .071-.05.121-.108l.083-.104.187.174c.283.262.99.874 1.16 1.007a1.3 1.3 0 0 1 .192.166c.038.046.096.096.387.312.054.038.141.108.191.154.233.208.724.478 1.102.607.217.07.379.1.379.067 0-.117-.374-.628-.811-1.102-.507-.554-.811-.903-.89-1.02a2.22 2.22 0 0 0-.167-.199 3.546 3.546 0 0 1-.203-.245c-.063-.08-.196-.25-.3-.375a5.027 5.027 0 0 1-.274-.357 2.273 2.273 0 0 0-.217-.292 28.131 28.131 0 0 1-1.193-1.726 7.592 7.592 0 0 0-.208-.312c-.262-.395-.478-.802-.478-.91a.466.466 0 0 0-.059-.18 2.299 2.299 0 0 1-.174-.56c-.013-.084-.042-.167-.063-.18-.02-.012-.037-.062-.037-.112 0-.075.012-.066.104.054a.556.556 0 0 1 .104.196c0 .029.016.054.037.054.021 0 .07.054.117.12.066.113.349.537.524.795.041.058.158.233.266.395.191.283.412.582.969 1.33.15.2.341.467.424.596.087.124.233.32.325.428.091.108.166.212.166.233 0 .016.07.112.158.208.083.1.22.262.3.366.249.324.453.578.52.657.037.042.132.162.211.27.084.108.183.23.225.267.042.041.162.195.27.34.104.15.208.275.225.283.02.009.104.096.191.2.188.233.495.586.678.786.125.133.137.141.108.046a.85.85 0 0 0-.116-.229 2.505 2.505 0 0 1-.229-.374 2.69 2.69 0 0 0-.187-.291 1.189 1.189 0 0 1-.15-.242.868.868 0 0 0-.125-.216 2.023 2.023 0 0 1-.124-.2c0-.008-.1-.17-.217-.353-.378-.582-.54-.848-.52-.865.021-.02.404.366.537.545.054.066.191.22.304.332.116.117.34.35.503.52a24.68 24.68 0 0 0 1.622 1.527c.495.403.566.461.89.698.17.125.333.23.358.23.025 0 .07.028.1.062.029.033.145.108.266.17.116.058.316.162.44.229.23.12.658.266.687.237.012-.008-.229-.25-.528-.537-1.26-1.193-3.132-3.102-3.27-3.331-.037-.062-.09-.116-.12-.116s-.054-.025-.054-.059c0-.033-.042-.095-.092-.137-.1-.079-.544-.586-.76-.86a6.634 6.634 0 0 0-.342-.396c-.12-.129-.22-.245-.22-.262 0-.025-.075-.117-.416-.532a33.721 33.721 0 0 1-.674-.87c-.075-.1-.17-.216-.208-.258-.041-.045-.075-.095-.075-.116a.379.379 0 0 0-.095-.133 4.45 4.45 0 0 1-.304-.391c-.112-.162-.216-.3-.237-.304a.536.536 0 0 1-.1-.145 2.316 2.316 0 0 0-.212-.312 4.228 4.228 0 0 1-.254-.341c-.058-.088-.22-.325-.357-.524a35.11 35.11 0 0 1-.32-.47 1.852 1.852 0 0 0-.113-.158 1.353 1.353 0 0 1-.129-.212 1.14 1.14 0 0 0-.166-.237c-.046-.042-.083-.092-.083-.113 0-.02-.138-.245-.308-.503-.445-.678-.587-.907-.653-1.06-.03-.071-.07-.134-.087-.134-.017 0-.08-.087-.138-.2a9.015 9.015 0 0 0-.357-.61 1.241 1.241 0 0 1-.138-.263c-.016-.05-.045-.091-.062-.091-.02 0-.058-.063-.087-.138a1.138 1.138 0 0 0-.109-.195c-.05-.062-.25-.42-.395-.715a.764.764 0 0 0-.116-.18.474.474 0 0 1-.092-.178.743.743 0 0 0-.12-.237 3.64 3.64 0 0 1-.27-.478c-.109-.217-.25-.491-.317-.604a23.79 23.79 0 0 0-.158-.29c-.066-.155-.44-.903-.532-1.078a.768.768 0 0 1-.092-.237.22.22 0 0 0-.066-.12c-.033-.03-.063-.075-.063-.1a.543.543 0 0 0-.066-.17 3.945 3.945 0 0 1-.15-.334 11.562 11.562 0 0 0-.179-.42 1.79 1.79 0 0 1-.124-.362.427.427 0 0 0-.088-.2c-.033-.024-.058-.07-.058-.099a.557.557 0 0 0-.062-.175 7.052 7.052 0 0 1-.17-.366 5.979 5.979 0 0 0-.167-.362.467.467 0 0 1-.059-.166c0-.033-.054-.17-.12-.308a7.619 7.619 0 0 1-.212-.474 2.64 2.64 0 0 0-.12-.27 1.042 1.042 0 0 1-.088-.229 1.457 1.457 0 0 0-.133-.3.42.42 0 0 1-.075-.14c0-.017-.054-.142-.12-.284a2.054 2.054 0 0 1-.146-.386.418.418 0 0 0-.092-.183.149.149 0 0 1-.058-.104c0-.063-.12-.337-.187-.433a1.888 1.888 0 0 1-.125-.291 2.113 2.113 0 0 0-.154-.354.52.52 0 0 1-.075-.183.235.235 0 0 0-.054-.124 1.58 1.58 0 0 1-.154-.317 2.674 2.674 0 0 0-.124-.29 2.627 2.627 0 0 1-.109-.271 2.03 2.03 0 0 0-.108-.275c-.05-.07.017-.103.088-.045.091.079.657.237.84.237.191 0 .27-.092.308-.345.029-.188.103-.258.166-.154.05.083.624.328.919.395.162.037.416.062.562.054l.266-.013-.013-.76c-.012-.724-.012-.766.063-.745.041.012.12.037.178.05.059.016.163.054.23.083.257.104.436.15.702.175.154.012.287.041.3.058.012.02.054.037.095.037.075 0 .08-.045.054-.794l-.02-.799.12.03c.067.012.266.037.441.053.27.021.329.013.35-.041.012-.038.004-.416-.021-.844a26.615 26.615 0 0 1-.034-.79c.004-.005.125.012.266.033.142.025.325.029.412.016l.154-.029-.033-.237c-.046-.362-.063-1.235-.02-1.302.032-.05.057-.05.174.009.224.112.374.153.636.183.354.037.395-.005.341-.354-.037-.254-.046-.774-.025-1.622.009-.35-.016-.566-.087-.728-.063-.145-.167-.49-.167-.553 0-.037.071-.004.204.091.113.084.217.15.229.15.017 0 .125.07.245.158.233.17.82.466.928.466a.34.34 0 0 1 .133.038c.108.058.603.095.67.054.045-.034.037-.134-.054-.595a6.341 6.341 0 0 1-.113-1.027 5.26 5.26 0 0 0-.054-.674c-.02-.113-.029-.217-.016-.229.012-.013.112.025.22.083a.945.945 0 0 0 .262.104c.037 0 .096.03.133.063.154.137.92.349 1.281.353.179 0 .216-.012.216-.075 0-.075-.091-.511-.158-.757-.025-.079-.054-.374-.066-.657l-.021-.507h.383c.34-.005.732-.067.798-.13.013-.012-.016-.17-.066-.353-.084-.324-.138-.686-.2-1.327-.033-.345-.07-.486-.191-.715-.038-.075-.059-.154-.042-.179.013-.02.125-.041.241-.041.23 0 .59-.117.782-.25.088-.066.117-.125.137-.32.042-.366-.041-.903-.187-1.202a1.43 1.43 0 0 1-.12-.325c0-.037-.017-.066-.042-.066-.02 0-.07-.063-.108-.137a.746.746 0 0 0-.1-.154.484.484 0 0 1-.079-.117c-.166-.312-.936-1.098-1.618-1.647-.308-.25-.35-.32-.145-.245.112.041.166.058.72.204.448.116.794.183 1.101.208.163.016.316.05.35.075.079.062 1.551.062 1.63 0a.642.642 0 0 1 .237-.071c.237-.03.678-.254.87-.441.19-.187.432-.52.507-.699.05-.12.046-.15-.013-.241-.037-.058-.083-.104-.104-.104-.02 0-.045-.025-.058-.058-.016-.042.07-.104.291-.208.296-.142.716-.445.911-.657.175-.192.316-.445.291-.52-.029-.088-.203-.279-.536-.583a2.191 2.191 0 0 1-.237-.237c0-.008.062-.029.137-.045.553-.113 1.24-.391 1.56-.633.478-.361.948-1.002 1.023-1.401.029-.158.025-.167-.262-.445-.162-.158-.32-.287-.345-.287-.092 0 .224-.15.52-.246.153-.054.278-.108.278-.12 0-.017.058-.054.133-.088.07-.033.241-.137.379-.228.137-.096.283-.192.32-.212.096-.059.395-.362.595-.608.15-.187.403-.64.403-.723-.004-.108-.262-.291-.761-.55-.091-.05-.104-.074-.07-.12a.449.449 0 0 1 .137-.083c.133-.038.723-.337.985-.495a7.11 7.11 0 0 1 .354-.212c.208-.12.694-.516.956-.782.23-.233.603-.711.603-.774 0-.041-.2-.124-.287-.124a.632.632 0 0 1-.212-.067.639.639 0 0 0-.245-.067.332.332 0 0 1-.15-.033c-.02-.016-.183-.041-.353-.058a9.517 9.517 0 0 1-.645-.087 8.872 8.872 0 0 0-.832-.088c-.274-.02-.515-.037-.54-.041a14.665 14.665 0 0 0-.645-.017c-.466-.004-.582-.017-.508-.05.05-.025.092-.062.092-.083 0-.017.017-.033.042-.033.02 0 .174-.063.34-.142.167-.075.35-.154.408-.17a.843.843 0 0 0 .187-.08c.046-.028.167-.074.27-.103.105-.03.254-.088.333-.13.08-.04.23-.103.333-.145.104-.037.241-.095.304-.129a.562.562 0 0 1 .166-.058.98.98 0 0 0 .233-.087c.104-.046.229-.104.275-.12.282-.122.81-.346.915-.392.07-.033.2-.087.29-.125.092-.037.196-.087.23-.108.033-.02.128-.07.207-.108.08-.037.233-.112.337-.166.108-.054.22-.1.254-.1.033 0 .096-.038.133-.08a.43.43 0 0 1 .183-.107.72.72 0 0 0 .22-.108c.063-.042.192-.117.292-.163.274-.129.528-.27.611-.34.038-.034.22-.15.404-.259.449-.262.494-.29.52-.316.041-.041.357-.237.428-.262.037-.012.07-.041.07-.058 0-.02.075-.079.167-.137.091-.058.166-.13.166-.162 0-.05-.17-.054-1.131-.034-.624.017-1.256.05-1.406.075-.15.025-.54.07-.873.104-.915.088-1.294.137-1.348.18a1.766 1.766 0 0 1-.378.061l-.333.03.125-.08c.07-.041.191-.1.27-.133a7.87 7.87 0 0 0 .408-.174c.145-.063.278-.117.295-.117.058 0 1.069-.47 1.252-.582.033-.02.145-.075.25-.125a5.51 5.51 0 0 0 .424-.22c.357-.204.665-.379.782-.45a.615.615 0 0 0 .124-.083 5.44 5.44 0 0 1 .52-.386c.416-.267 1.277-1.219 1.373-1.523l.029-.095-.861.029c-.478.017-.91.05-.965.07-.104.038-.137-.02-.037-.074.091-.05.52-.425.71-.62.371-.383.637-.745.587-.799-.041-.041-2.117-.02-2.583.025-.208.021-.42.059-.465.088a.632.632 0 0 1-.237.045.817.817 0 0 0-.242.038 2.694 2.694 0 0 1-.345.062l-.25.025.117-.091a2.41 2.41 0 0 1 .337-.22c.254-.142.828-.516.857-.558.012-.017.091-.07.179-.125.083-.05.153-.108.153-.125 0-.016.054-.058.117-.095.25-.15 1.298-1.219 1.298-1.327 0-.054-.142-.087-.5-.125-1.252-.12-1.422-.154-1.227-.228.034-.017.063-.046.063-.067 0-.02.083-.125.187-.229.104-.1.187-.212.187-.241 0-.062-.037-.07-.649-.141-.361-.042-1.771-.067-1.809-.03zm-30.586 45.373c.07.024.2.074.29.116.092.042.221.087.284.104.108.025.32.283.32.383 0 .02.037.079.083.133a.661.661 0 0 1 .112.204.814.814 0 0 0 .121.24.52.52 0 0 1 .1.188c0 .029.033.12.075.2.125.232.328 1.193.27 1.251-.029.025-.229-.004-.782-.112-.1-.02-.175.008-.387.15-.228.154-.282.175-.416.15a.77.77 0 0 0-.603.174c-.066.063-.212.25-.324.416-.116.17-.241.341-.279.383a4.578 4.578 0 0 0-.212.27c-.133.179-.15.187-.2.12a.425.425 0 0 1-.053-.207c0-.075-.017-.15-.042-.162-.067-.042-.05-.17.054-.341a1.72 1.72 0 0 0 .141-.429c.109-.599.225-.84.254-.52.013.125.025.142.075.1a.157.157 0 0 0 .058-.104c0-.033.017-.091.042-.133.108-.191.4-.973.457-1.235a8.27 8.27 0 0 1 .108-.395c.038-.125.092-.408.121-.624.03-.216.054-.404.058-.412 0-.008.038 0 .08.017.037.016.128.05.195.075zm1.576 4.076a.814.814 0 0 1-.037.428 2.119 2.119 0 0 0-.084.424 1.57 1.57 0 0 1-.033.258c-.008.033-.008.05 0 .03.034-.055.096-.03.096.037 0 .079-.13.307-.175.307-.016 0-.02-.058-.004-.129.02-.12.017-.124-.054-.079-.042.03-.133.125-.196.217-.116.166-.386.32-.557.324-.17 0-.125-.395.112-1.019.017-.046.071-.17.121-.274.046-.104.087-.208.087-.23 0-.053.163-.357.242-.444.05-.054.116-.07.253-.063l.192.013.037.2z"/></svg>