<svg xmlns="http://www.w3.org/2000/svg" role="img" viewBox="57.20 57.95 431.60 289.35"><title>Non-Public Organization Bear (member) logo</title><defs><clipPath id="a"><path fill="none" d="M0 0h535.973v415.979H0z"/></clipPath></defs><g clip-path="url(#a)"><path fill-rule="evenodd" d="M472.533 110.068c-5.248-1.679-10.551-3.21-15.672-5.256-4.44-1.775-10.403-3.939-12.691-8.535-.903-1.81-1.23-3.838-2.057-5.68-.91-2.028-2.626-3.441-4.302-4.833a27.456 27.456 0 0 0-9.605-4.94 48.052 48.052 0 0 1-7.927-2.899c-1.442-.762-.626-2.1-.417-3.524.421-2.846 1.305-4.781-1.23-6.682-3.8-2.85-7.68-.523-11.051 1.868-1.291.916-2.418 2.017-3.692 2.952-2.091 1.532-5.163.978-7.628 1.06a47.231 47.231 0 0 0-15.086 3.12c-5.288 1.96-10.361 4.428-16.041 5.025-5.161.543-10.35-.05-15.492-.527a180.633 180.633 0 0 0-18.595-.557 169.576 169.576 0 0 1-17.15-.395c-5.963-.538-12.015-1.361-17.983-.448-11.147 1.703-21.176 7.83-31.66 11.67-2.6.953-5.212 1.868-7.828 2.776-2.156.749-4.017.446-6.264.425-6.195-.059-12.52.337-18.668-.5-11.887-1.621-23.71-2.841-35.687-3.565-5.396-.328-10.83-.287-16.216-.743-5.798-.492-10.53.381-16.177 1.707-10.785 2.533-21.193 6.042-30.825 11.669-4.334 2.532-8.202 6.312-12.183 9.365-4.616 3.539-9.303 6.99-13.59 10.93a128.699 128.699 0 0 0-20.358 24.345 210.519 210.519 0 0 0-16.89 30.007c-1.035 2.333-2.83 5.06-3.22 7.594-.345 2.232-.283 4.612-.48 6.87a67.42 67.42 0 0 0 .571 17.658c1.52 8.984 1.855 18.122 2.507 27.202a126.107 126.107 0 0 1 .77 12.756c-.138 4.522-.869 8.92-.633 13.465.216 4.153.496 8.304.755 12.455.284 4.52-.463 8.938-.603 13.445-.272 8.725 2.515 17.113 1.918 25.839-.442 6.46-1.511 16.304 5.897 19.522 2.548 1.106 3.437 2.866 6.499 2.974 3.252.114 6.549-.514 9.784-.027 3.657.55 6.624 1.24 10.4.903 1.969-.175 3.953-.298 5.9-.658 1.372-.253 3.104 1.094 4.694 1.044a52.809 52.809 0 0 0 10.666-1.702c1.492-.364 6.256 1.574 4.406-1.708 2.027.725 8.695 3.157 6-1.334.98.202 2.939 1.034 3.856.366.982-.714-3.402-4.812-3.92-5.392-1.832-2.058-2.84-4.678-4.928-6.5-2.072-1.808-4.554-3.06-6.674-4.807 2.682.141 5.368.356 8.056.27 2.068-.067 4.25-1.086 6.253-.975 1.147.062 2.07.792 3.268.809a21.619 21.619 0 0 0 3.424-.57c2.557-.386 4.552-1.573 6.94-2.155 1.127-.275 3.699 1.184 3.725-.846 1.012.184 3.93 1.382 4.186-.15.288-1.724 1.13-2.103-.758-3.518a78.62 78.62 0 0 0-7.402-4.87 105.469 105.469 0 0 0-14.052-6.434c-4.368-1.761-8.428-3.793-6.507-9.028 3.553-9.68 11.572-18.41 18.745-25.533 3.679-3.653 6.816-7.919 10.12-11.907 1.087-1.312 1.987-3.145 3.332-4.198 1.796-1.406 6.822-1.214 9.086-1.566 5.718-.89 11.434-1.814 17.133-2.832 5.985-1.07 12.097-.76 18.145-.754 11.714.01 23.708-.5 35.366-1.635 5.345-.52 10.632-1.012 15.793-2.539a40.072 40.072 0 0 1 7.387-1.222c1.965-.206 1.306.768 1.566 2.446.268 1.72.615 3.427 1.027 5.118 2.085 8.548 5.776 16.588 9.404 24.566 3.763 8.279 7.152 16.664 10.15 25.25 1.426 4.084 2.406 8.692 4.698 12.389 2.17 3.497 4.89 6.544 6.855 10.185 2.045 3.788 4.149 7.543 6.177 11.338 1.825 3.413 3.415 6.582 7.261 7.956a21.23 21.23 0 0 0 10.755.938c2.733-.601 5.896.507 8.861.644a77.754 77.754 0 0 0 12.73-.262c3.949-.471 7.73 1.448 11.448-.742 3.897-2.294 6.42.882 10.228-.073 3.76-.944-.55-4.703-2.36-5.652-1.64-.859-3.043-1.208-4.336-2.632-.724-.795-1.296-2.57-2.131-3.063-4.393-2.59-8.844-4.882-13.44-7.086 1.728-1.024 3.33-.674 5.2-.334q.072-.566.133-1.133c.734.152 6.104.857 4-.667 1.806-.066.73-1.884.119-2.666-1.125-1.44-2.76-2.108-4.295-3.012-4.65-2.744-8.917-6.111-13.676-8.728-1.31-.72-4.065-1.408-4.748-2.906-.953-2.088-.721-5.246-.682-7.481.11-6.29-.107-12.579-.496-18.855-.354-5.696-.975-11.405-.54-17.116.186-2.426-.004-5.293.697-7.63.765-2.551 2.424-4.968 3.487-7.416 2.28-5.252 4.452-10.554 6.764-15.794 2.142-4.857 1.45-10.442 3.489-15.25 1.863-4.39 5.232-8.291 7.483-12.532a46.137 46.137 0 0 1 10.102-12.52c8.179-7.355 19.408-10.955 29.598-14.718 5.33-1.97 10.768-3.797 15.92-6.208 5.218-2.44 10.08-5.56 15.229-8.134 5.03-2.515 10.25-4.696 15.373-7.014 1.503-.68 3.57-.11 5.135.032 2.807.254 5.605.624 8.413.864a19.524 19.524 0 0 0 12.824-3.09c1.792-1.242.132-1.918-.33-3.026-.72-1.73 1.476-3.53.134-5.133l-2.133 2.667a2.872 2.872 0 0 1-1.2-1.667c-1.712 3.36-14-4.43-15.467-5.2 5.883.08 11.83.704 17.667-.333-.225.298-.879 1.518-.032 1.684 1.272.249 2.48-1.584 3.165-2.351-1.302 3.159 3.402-1.333 3.834-1.333 1.114 0 3.046-1.102 4.062-1.628 2.156-1.12 1.42-3.071 2.203-4.888 1.476-3.424 4.67-8.06 4.272-11.902-.445-4.305-4.536-4.678-8.037-4.05-7.924-2.534 2.628-.471 0 0"/></g></svg>