<svg xmlns="http://www.w3.org/2000/svg" role="img" viewBox="59.58 48.58 1829.84 1945.84"><title>Non-Public Organization Moose (member) logo</title><path d="M401.19 300.07c6.9587-16.502 1.1309-34.392 5.8437-50.973 2.6783-9.423 3.8895-19.986 13.039-26.576 3.6019-2.594 4.0661-7.2811 5.6613-11.195 1.2339-3.0275.933-7.8192 6.4201-7.0945 5.6024.7399 4.5854 5.8254 3.4956 8.1104-3.7943 7.9557-.2896 15.413.2517 23.059 1.2418 17.538-.9089 34.961-1.5911 52.438-.3345 8.5695 7.0813 12.431 13.244 15.734 4.0013 2.1444 7.0392-2.7976 10.279-5.1871 11.641-8.5862 18.309-20.46 23.377-33.634 2.3626-6.1418 7.2159-9.8965 14.102-8.3949 6.6397 1.4479 7.9132 6.6343 8.4045 12.94.299 3.8383-.4295 9.2667 3.87 11.591 7.4719 4.0392 14.34.1884 20.882-3.2007.9216-.4774.8469-3.3126.8458-5.0562-.0036-5.6006 2.7366-9.4213 7.9629-10.633 5.2654-1.2211 9.9478.3272 12.482 5.7412 2.2437 4.7939 4.2105 9.6622 4.1523 15.104-.0475 4.4343 3.2358 6.4937 6.5752 7.8 3.536 1.3832 4.7212-2.0964 6.136-4.3481 7.8904-12.558 14.821-15.778 23.283-10.418 7.8196 4.9534 4.5891 13.63 5.9179 20.513.9791 5.0715 1.8828 9.5646 5.0934 13.635 1.286 1.6304 2.0001.7992 2.1445-.2639 1.6511-12.159 10.432-22.051 11.938-33.781 1.6163-12.582 13.667-19.128 15.174-31.312.3893-3.1484 3.9043-4.9337 7.5438-3.995 3.463.8932 2.4513 3.9019 2.5126 6.2426.508 19.411-2.3331 38.295-8.8639 56.621-1.1832 3.3202 1.5621 1.707 2.4239 1.3605 4.6436-1.8667 9.4769-1.2553 14.265-1.4746 6.5226-.2988 12.841.0933 14.804 7.7358 1.9598 7.6305-2.8735 13.03-8.7355 15.736-11.306 5.2173-21.281 11.706-29.176 21.408-3.6868 4.5306-1.5653 9.5515-1.5486 14.299.006 1.6819 1.9692-.2571 2.9968-.6604 7.5785-2.974 13.96-9.042 23.019-8.2424 4.2009.3707 7.4743 1.865 9.5515 5.3164 6.0376 10.032 9.9708 20.445 9.9926 32.68.0408 22.95-.4113 45.553-9.6989 67.188-1.4852 3.4599-4.3157 10.294-.3304 12.344 5.5607 2.8593 9.7273-2.4299 12.939-7.1599 2.3174-3.4125 4.8644-6.7096 7.6237-9.7748 17.137-19.036 20.6-43.053 20.179-66.583-.5511-30.773-1.7609-61.668 17.074-87.285 8.0933-11.008 16.875-22.436 26.977-32.235 1.9952-1.9353 4.9916-1.7913 6.8938-.1488 2.5578 2.2084 1.6192 5.2985.6418 8.2178-6.5154 19.46-13.816 38.721-19.001 58.533-2.095 8.0045-1.5654 17.092 1.5958 25.936 3.2064 8.9698-.1887 19.254 3.7801 28.738 1.5291 3.6537 2.1405 7.9804 4.2648 11.498 3.5962 5.956 12.397 3.4512 17.159-5.6477 14.346-27.411 29.342-54.812 31.33-86.517.7002-11.167-2.5024-22.521-2.9014-33.826-.867-24.573-.1917-49.23-1.8749-73.735-1.0701-15.578-2.855-31.054.5256-46.359 1.7178-7.7767 5.3126-15.203 8.5762-22.558 4.3191-9.7339 9.085-19.272 13.785-28.833 1.6575-3.3713 5.5519-4.2594 8.4321-4.6281 8.1935-1.0486 13.858-8.7345 22.561-8.0061 1.9634.1643 3.8675.3455 4.351 2.4792.425 1.8755.832 4.0331-1.0759 5.544-18.258 14.459-20.81 35.724-24.796 56.49-1.3944 7.2658-.8697 14.526-1.5127 21.752-2.8005 31.471 3.6762 61.423 13.218 91.158 4.0444 12.604 4.3036 26.231 8.7328 38.963 4.0068 11.518 15.092 11.675 23.536 15.058 5.0484 2.0225 9.7164-5.2557 11.694-9.6366 3.7057-8.2075 9.5416-13.776 16.491-18.686 12.328-8.7096 16.93-22.364 22.978-35.188 8.1787-17.341 14.037-35.503 19.42-53.811 6.8388-23.259 15.622-45.862 22.391-69.196 4.4958-15.498 3.2033-32.8 13.27-46.762 1.6783-2.3278 3.2123-3.1273 5.661-2.7791 2.3596.3355 3.1672 1.8767 3.2147 4.2362.1644 8.1492-.858 15.915 5.0558 23.647 4.8447 6.3338-2.0234 14.049-3.3074 21.221-3.3796 18.876-10.083 36.947-13.001 55.983-1.8146 11.838-7.1525 22.878-8.7707 35.017-2.3986 17.992-5.4584 35.876-5.0402 54.096.0906 3.9482 14.428 5.7612 19.03 3.5066 23.649-11.587 33.894-34.666 47.81-54.665 8.1664-11.736 17.653-22.407 21.786-36.788 2.8167-9.8004.8116-19.639 2.9127-29.453 2.0192-9.4308-.1304-19.394 5.8221-28.574 1.9961-3.0784-3.0546-9.0775-2.485-14.439.3861-3.634 1.0776-5.4793 5.1478-5.4818 3.9358-.0024 4.5469 1.6982 5.3765 5.2722 1.3717 5.9097.7828 12.379 6.6423 17.246 7.4877 6.2189 3.9039 16.266 5.4111 24.427 2.8019 15.172 4.9624 30.664 3.6041 46.32-.7494 8.6382-2.1603 16.938-8.1958 24.605 6.3334-2.4852 11.949-4.9367 17.732-6.8914 6.3986-2.1626 11.894-.5347 14.114 6.1927 2.0958 6.3495-.2251 11.368-6.807 14.01-4.8372 1.9417-9.5835 4.1091-13.747 7.9731 7.3838-2.4968 14.946-4.5716 22.102-7.6061 7.5247-3.1909 14.991-5.1112 20.692 2.0254 4.35 5.4449 3.0098 11.702-3.2404 15.298-7.8605 4.5222-16.283 8.0557-24.269 12.376-3.9813 2.1542-7.5284 5.111-11.196 8.7148 9.2311-6.2864 15.369 2.6192 22.911 3.9877 5.6097 1.018 7.6581 6.2732 6.7054 11.734-.915 5.2453-4.3065 8.4767-9.9653 8.6383-2.1649.0618-4.3456.1619-6.4974-.0159-8.9344-.738-17.125-.8885-20.034 10.592-.9843 3.8846-5.9789 5.4089-9.4567 7.6824-19.422 12.697-36.596 28.303-54.898 42.419-13.986 10.787-30.36 18.54-45.897 27.24-29.333 16.425-60.159 29.806-90.612 43.946-2.7668 1.2848-5.5468 3.1114-7.5527 5.3689-10.146 11.418-25.778 5.5937-37.533 12.368-17.342 9.9951-38.617 11.159-55.077 22.817-8.3154 5.8893-13.716 15.428-21.578 22.416-14.398 12.8-30.682 22.997-45.77 34.817-4.4827 3.5119-11.275 1.3649-15.632 5.6129-.8258.8052-3.7278 2.2673-1.5515 2.8226 8.4112 2.1459 13.63 11.128 24.206 9.3005 11.084-1.9153 20.675 1.8364 24.532 14.205 1.0384 3.3298.8807 6.9236-.8467 9.0945-6.3306 7.9559.244 9.532 5.2704 9.9379 8.4708.6839 14.942 11.087 23.71 6.0351 5.7369-3.3057 10.659-7.5065 17.679-7.3198 3.8422.1022 5.7548 1.0444 6.5765 5.855.5366 3.1408 6.7192 1.1563 8.9611.0167 4.9076-2.4944 7.5672-5.5059 13.848-.3151 3.0638 2.532 12.689-1.6408 18.124-5.9535 6.3939-5.0739 7.0616-5.0708 11.688 1.2521.2793.3817 1.5655.0026 2.3824.0185 8.7448.1699 18.047-4.9277 26.009 3.3524 1.3262 1.3792 5.1187.3812 7.7711.4924 2.9684.1245 5.6383 1.246 5.371 4.5253-.5536 6.791 3.8821 4.7084 6.6379 3.543 4.4561-1.8845 7.7902-5.9779 12.391.9507 2.0134 3.0322 7.8392-.8837 11.812-1.978 2.7432-.7556 5.884-.1301 5.5769 1.9506-.8594 5.8229 1.9001 7.1667 7.4756 6.603-2.3851 2.8782-7.3793.566-6.8264 3.8755.5183 3.1028 4.9913 1.8455 7.5422 2.8344 8.351 3.2374 16.464 5.6459 25.681 3.2389 2.9302-.7652 4.5035 3.2864 3.8492 6.2938-2.4282 11.16 6.2338 5.7814 9.2745 5.3735 5.3302-.7149 9.5864-2.7936 9.2794 5.6146-.0344.9398 5.5296 2.0123 8.4397 3.1685 1.0803.4292 3.1356.2043 2.6588 2.1526-.1721.7034-1.7581 1.4487-2.7272 1.4886-2.0571.0848-3.6083 1.397-3.3928 2.8605.2639 1.7921 2.2011 2.6028 4.3076 2.5938 6.2742-.0273 12.561-.0759 18.815.3278 1.3814.0892 4.2186-.2721 4.292 2.3807.0645 2.334-2.1257 3.1737-3.8917 4.0709-2.0989 1.0663-4.2492 2.0313-9.0244 4.2952 13.755-.8378 24.66 2.2728 35.534-1.1948 2.4846-.7923 4.6559.0892 5.5571 2.8123 1.1655 3.5215-1.674 4.8656-3.8955 5.876-2.3206 1.0554-5.0685 1.171-7.8419 1.7411 1.2473 2.1392 2.4138 3.8807 5.6656 2.0815 1.1595-.6415 4.1028-.3686 4.606.4666 5.707 9.4711 18.978 9.2512 24.048 20.884 4.3562 9.9953 16.654 12.874 26.238 18.015 23.212 12.452 49.327 12.268 73.98 18.234 37.255 9.0162 75.058 11.452 113.39 6.2303 12.426-1.6926 25.405.8019 38.137 1.1838 6.4247.1927 12.72.2188 19.041-2.3158 13.131-5.2655 27.006-5.6398 41.067-5.6428 32.061-.007 64.452-3.9672 95.943 3.6536 22.975 5.5598 47.262 5.5239 69.138 14.23 19.269 7.6686 39.26 13.216 58.274 21.643 14.903 6.6051 30.703 11.304 44.876 19.537 7.993 4.6433 16.975 7.882 24.306 12.954 16.085 11.129 27.095 26.952 31.595 46.351 1.3613 5.8688-2.1416 11.124-7.1658 14.394-5.5844 3.6351-11.591 3.3284-17.432.1176-.7825-.4301-1.9656-1.2542-2.4041-.985-1.5654.9609.0542 1.8602.3306 2.8572 5.3461 19.286 10.293 38.734 20.757 56.103 6.9684 11.567 13.893 22.913 17.736 36.233 4.4778 15.52 1.9634 30.694.5166 45.911-2.2118 23.266-8.6823 45.811-17.731 67.134-15.813 37.264-10.301 75.208-7.1584 113.4 1.8746 22.782 9.2577 43.748 19.823 63.462 6.0101 11.214 16.485 19.523 23.305 30.73 7.6313 12.539 11.268 26.662 18.747 39.261 9.4453 15.91 15.612 33.772 29.946 46.571 8.8613 7.9125 10.843 18.386 8.2078 29.209-2.9313 12.039-.1106 22.968 3.8353 33.936 3.3328 9.2644 1.2588 18.787 1.7119 28.181.1866 3.8685.7362 7.2706 2.6073 10.868 5.5603 10.69 7.6799 22.582 8.2457 34.352.8713 18.125.4611 36.326.1666 54.488-.3324 20.503 5.0764 39.824 11.419 58.969 2.6145 7.8917.639 16.087 2.749 24.151 5.749 21.972 12.225 44.097 10.773 67.07-1.3022 20.605.1572 40.971 2.1003 61.366.3738 3.9227 2.4625 7.7905 4.2382 11.452 6.5568 13.519 3.6339 28.026 5.2366 42.047.6858 6.0006 7.4572 11.568 12.076 16.79 5.7926 6.5504 6.828 13.587 1.9181 20.389-5.1257 7.1013-12.564 9.5122-21.016 5.5734-2.3478-1.0942-4.2151-.7188-5.0024 1.3019-2.8081 7.2064-6.3828 13.992-7.6058 21.977-1.2306 8.0328-7.1024 14.482-11.951 20.963-13.432 17.956-33.581 26.806-52.245 37.482-9.5396 5.4567-20.96-1.7107-22.587-13.285-.7493-5.328-3.5651-6.2427-8.0232-4.2488-8.3384 3.7289-15.639 1.9028-20.632-5.4058-4.7477-6.9496-3.8645-14.093 2.3225-20.303 13.043-13.092 28.089-23.4 44.342-32.021 1.2623-.6694 2.2354-.9449 2.3209-2.6396.923-18.26 9.7737-34.463 13.554-51.915 3.2361-14.938 5.1313-30.324 5.9094-45.599.9832-19.301 3.4512-38.793-3.3483-57.848-4.1747-11.699-3.0779-24.426-1.3779-36.149 2.6715-18.426-1.0774-35.948-3.2203-53.781-1.7919-14.914-1.1637-30.886-6.5817-44.395-6.2603-15.609-8.6191-33.001-20.306-46.768-7.5271-8.8673-10.971-21.32-19.447-29.563-10.453-10.165-15.629-23.29-18.674-36.076-4.2964-18.042-13.828-32.3-24.413-46.383-12.079-16.071-23.25-33.224-37.53-47.116-11.54-11.227-20.082-24.748-31.836-35.65-9.6412-8.9415-17.869-18.538-22.58-32.158-8.0476-23.267-21.085-44.432-37.059-63.586-5.0776-6.0883-11.399-10.414-16.93-15.506-6.0671-5.5852-13.21-4.1552-18.3-7.6442-6.1477-4.2139-11.765-9.611-17.878-14.204-3.5912-2.6982-5.5209-3.0933-8.2784 1.4541-8.1808 13.491-18.748 25.829-24.984 40.102-4.1046 9.3965-7.8572 20.375-6.0347 31.762.4448 2.7786-1.6073 5.8643-1.8951 8.8677-1.8375 19.162.8757 38.275 3.5367 56.992 4.5394 31.93 3.4198 63.194-2.2306 94.755-1.1943 6.6705 1.1101 14.53 2.0282 21.612 1.8179 14.022 7.7646 29.485-3.0737 43.216-10.947 13.869-14.916 31.542-24.434 46.229-2.8003 4.3207-5.6775 8.4955-6.8674 13.701-.5028 2.1995-1.1766 3.5598 1.6844 3.3839-.1385 2.5327-7.8312-1.2019-3.0372 4.7119.7499.9249-.0665 4.7253-1.1429 5.2775-11.036 5.6604-7.7936 17.878-12.432 26.418-2.3013 4.2372-4.4419 8.7892-5.4412 13.459-2.1453 10.024-6.6855 19.201-9.0562 29.223-4.2427 17.937-11.202 35.224-15.634 53.127-3.9512 15.964-6.4667 32.331-8.7534 48.64-1.394 9.9436-9.7556 15.976-12.251 25.199-1.4497 5.3575-4.2115 10.368-6.4702 15.496-1.3809 3.135 1.3971 4.5909 2.6163 6.6578-1.0914 1.7743-3.199-2.1034-3.8436.7811-.2356 1.0544-2.282 3.3242 1.2765 2.7661-.3508.8346-.623 2.3464-1.0648 2.3977-3.8213.4441-3.7485 3.3252-3.8711 5.9664-.9059 19.54-8.1771 37.407-15.092 55.253-2.2599 5.8326-2.7476 11.042-1.309 16.806 3.7839 15.162-.8181 24.307-15.314 28.029-7.8846 2.0244-13.42-2.0824-15.642-10.112-.3224-1.1649-.7656-2.2965-1.1531-3.4435-.9409.8608-1.9561 1.6542-2.8114 2.5931-10.232 11.232-15.916 26.588-32.466 32.044-13.526 4.4591-27.558 8.6099-38.655 18.422-5.8607 5.1825-10.7 12.062-20.332 9.3951-4.5238-1.2528-8.8931-3.6682-9.8171-7.6284-2.8938-12.402-13.028-8.9935-20.149-8.8873-11.188.167-20.018-8.9568-18.004-20.047 1.5566-8.5714 3.9722-14.274 14.383-13.468 4.5618.3534 9.1246-2.3342 12.805-5.7682 8.5223-7.9532 20.021-9.7804 30.113-14.521 5.5156-2.5909 10.32-6.778 15.264-10.486 11.5-8.6237 20.842-19.793 31.549-28.949 13.686-11.705 16.187-28.746 25.55-42.302 5.6566-8.1899 10.137-18.527 15.678-27.627 1.0427-1.7123-.2766-3.7784-.2643-5.5898.1227-18.193 11.886-31.943 17.809-47.788 11.738-31.402 14.426-64.249 19.235-96.853 3.2745-22.2 6.2163-44.542 15.242-65.448 4.2252-9.786-2.9913-18.063-3.9335-27.188-.3512-3.403-1.9519-6.7335-1.9764-10.104-.209-28.631.6462-57.299-.5853-85.88-.6107-14.173-5.567-28.102-7.4197-42.29-2.6219-20.08-3.9943-40.319-6.2665-60.449-2.3472-20.792-1.9141-41.774-4.8933-62.564-.8669-6.0499-2.0723-12.262-2.2927-18.49-.066-1.8651-1.712-1.6212-2.5676-1.0251-22.263 15.511-49.5 21.067-71.97 36.523-11.104 7.6379-25.26 9.3685-38.764 11.175-10.942 1.464-22.004 2.2147-32.43 6.4445-8.557 3.4716-17.798 4.1799-26.798 4.3883-27.898.6466-55.807.3658-83.587-2.8925-2.9341-.344-3.4291 1.2352-3.1942 3.5505 1.7939 17.686-2.3011 35.112-4.106 52.426-1.4744 14.143-.9521 28.216-2.14 42.27-.9008 10.657-.2926 21.275 2.9843 31.927 4.3644 14.187 6.6509 29.016 6.3538 43.974-.3157 15.888 6.3622 30.707 6.3652 46.556.004 21.148 5.6824 41.632 8.0281 62.464 1.8173 16.139 7.3154 31.747 7.4398 47.846.2219 28.741 9.4629 54.215 24.176 78.266 8.8715 14.502 10.854 31.426 16.236 47.158 6.5216 19.062 4.0193 40.592 14.358 58.292 8.563 14.661 7.5615 33.316 21.158 45.847 6.1616 5.679 1.3604 25.729-5.1738 27.943-4.9884 1.6904-8.1344-2.4287-11.394-4.0999-9.5763-4.9104-12.165 3.2292-16.17 7.6324-5.3826 5.9186-2.5537 16.312-10.574 21.213 5.1539 7.136-.4823 12.89-2.4861 19.095-.309.9564-1.4109 2.5918-1.486 2.5554-5.5427-2.6958-8.6727 3.0488-12.208 3.6383-10.246 1.7087-19.182 7.8907-29.718 7.848-4.7307-.0192-8.5566 1.8602-12.605 4.483-5.7311 3.713-12.187 2.9497-17.471-1.7257-4.7437-4.1975-9.1454-3.4843-14.096-.4509-6.6335 4.0646-13.344 3.9529-19.265-1.426-9.1973-8.3546-8.9055-15.906 1.111-25.734 7.204-7.0685 14.769-13.768 22.146-20.662 3.0187-2.821 5.7162-5.6123 6.479-10.176 1.0815-6.4707 5.4004-10.799 11.954-11.653 13.097-1.7058 17.423-11.717 22.732-21.708 6.9586-13.094 2.8842-26.056 1.7285-39.229-1.8993-21.65-7.8666-42.616-9.762-64.399-1.0441-11.998-4.3495-24.658-7.775-36.798-5.3953-19.12-8.9274-38.806-15.053-57.666-4.8981-15.08-8.5698-31.071-18.765-43.907-10.753-13.539-21.439-26.985-31.209-41.377-11.24-16.558-13.218-34.838-15.835-53.101-4.3273-30.202-10.927-59.841-17.825-89.514-5.366-23.084-8.6169-46.782-19.535-68.096-9.7228-18.981-19.585-37.902-31.526-55.739-7.3666-11.004-13.494-23.178-18.116-35.594-6.3001-16.924-5.3704-16.176-23.053-14.725-14.267 1.1711-12.881 11.268-13.344 19.714-.8461 15.454-.246 30.987-.2402 46.486.0058 15.39.0037 30.722-4.7188 45.689-4.6336 14.685-2.9917 29.956-3.2378 45.04-.3576 21.916-3.5289 42.833-13.02 63.373-5.0865 11.008-4.1334 25.348-3.9214 38.152.446 26.937-7.6138 51.964-16.009 76.835-2.3854 7.0665-8.9876 12.766-13.874 18.92-8.9583 11.283-12.974 24.414-12.822 38.434.2629 24.125-2.4291 47.646-7.2446 71.383-3.9116 19.281-2.3248 39.778-2.4045 59.431-.0507 12.499-.796 24.714-2.3989 36.967-2.9781 22.765-2.1662 45.622-2.1625 68.458.0008 5.0847 1.0062 10.174 1.624 15.253 1.3203 10.851-4.9473 17.581-13.557 21.508-5.2768 2.4066-10.942-2.287-13.577-6.3193-8.4724-12.967-15.783-5.4473-22.537.8466-3.6476 3.3989-5.7403 8.5992-8.0862 13.215-1.5059 2.9629 3.162 1.6892 3.2632 4.0632-1.7883-.1263-4.067-1.1049-5.0518 1.2313-.8649 2.0515.812 2.5819 2.348 3.3417.4866.2407.6625 2.4752.1423 3.1067-1.1416 1.3853-1.3993-.2794-1.8618-.9857-6.0726 5.4142-14.278.0745-21.202 4.4691-3.03 1.9227-9.1051 5.8359-14.081 1.1493-1.4793-1.3936-1.7755.2751-2.4116.7623-12.539 9.6067-27.036 9.9503-40.316 1.177-3.8906-2.5704-7.5535-.525-10.737 1.8922-6.6964 5.0841-13.804 5.658-19.924.0408-5.8321-5.3533-9.3364-11.454-4.3464-20.388 7.0033-12.54 19.515-17.153 30.2-24.729 13.383-9.4888 31.206-12.061 42.291-22.966 13.007-12.796 28.52-24.618 32.117-45.827 2.9642-17.478 10.909-34.164 17.181-51.001 2.3975-6.4364 1.2188-12.967 2.3318-19.327 3.0823-17.615 7.1002-35.074 9.8622-52.734 2.9287-18.725 8.5432-38.077 6.2373-56.302-2.762-21.829-3.1088-44.054-7.8506-65.612-4.9019-22.286-1.6805-43.918 5.4291-64.903 2.6133-7.7137 4.9759-15.323 4.7703-23.142-.5762-21.912 3.3264-44.109-4.4501-65.627-10.446-28.905-13.772-59.83-24.049-88.711-8.7856-24.689-8.3187-49.44-6.28-74.864.7621-9.5034-3.8288-19.358-3.6367-29.006.2164-10.863-6.8794-15.09-13.891-19.742-12.614-8.3694-22.892-18.888-31.248-31.434-1.1548-1.7336-2.7338-3.6305-4.5598-4.4017-15.826-6.6844-13.586-21.367-15.444-34.248-.9195-6.3767-2.969-11.509-9.0872-15.421-4.7551-3.0404-8.5281-8.2701-11.548-13.248-8.9653-14.779-20.791-26.675-33.646-38.121-12.693-11.3-19.369-25.541-18.872-43.936.3368-12.461-2.1363-25.585-6.2845-37.912-.7175-2.1318-1.2139-1.9858-2.9652-1.3997-10.014 3.3516-20.152-1.6108-23.541-11.731-.8314-2.4829-1.9992-3.9988-4.2861-4.9977-12.816-5.5979-19.206-16.02-22.101-29.203-.7373-3.3581-2.317-5.7819-6.3229-7.3517-9.6249-3.7719-13.112-12.061-12.651-21.97.2057-4.42 1.0628-7.7584-4.9476-9.8873-5.4706-1.9377-5.03-8.7231-5.7951-13.913-.2641-1.7915-.1962-4.4197-2.2171-4.3869-2.5022.0406-1.546 2.7819-1.7071 4.4415-2.3625 24.335 2.1149 49.239-5.7079 73.09-3.2252 9.8331-7.6815 19.327-17.853 23.925-3.4836 1.5749-1.4912 4.8044-3.7257 6.8381-5.8107 5.2885-11.918 1.137-17.563.8578-9.3949-.4647-15.75-7.4891-22.882-13.189-6.814-5.4457-6.2862-12.1-7.6671-19.008-2.2119-11.065-10.981-20.737-7.9951-32.87 2.9753-12.092 4.0875-24.252 3.7435-36.617-.1655-5.9503-.8554-10.543-8.448-12.718-16.449-4.712-31.421-12.996-45.25-23.109-8.0748-5.9053-9.8222-15.888-14.584-23.937-6.9025-11.668-8.2823-25.76-17.159-36.756-4.8629-6.024-6.0052-14.416-12.225-20.344-9.5407-9.0927-21.226-12.558-33.626-6.664-10.193 4.8453-19.338 11.815-27.17 19.791-12.402 12.629-24.801 11.634-34.983-2.9564-3.2376-4.6392-6.9013-9.1144-15.861-7.8563-14.673 2.0605-31.086 4.9852-42.084-11.089-2.7362-3.9987-7.3919.6589-10.647 1.9679-19.043 7.6585-35.181-3.3398-33.604-23.246.4223-5.33 2.884-9.8862 5.533-14.22 8.1114-13.27 4.7637-28.902 9.1219-42.819 9.7039-30.988 22.684-60.402 51.002-79.092 12.288-8.1106 26.529-13.224 39.67-20.104 4.4052-2.3062 8.1187-5.9158 12.208-8.846 8.0149-5.7426 17.679-4.012 26.511-5.0521 30.402-3.5801 61.013-5.4618 91.344-9.4938 5.1275-.6816 12.211-1.5732 16.901-6.5007 2.5643-2.6943 6.5005-3.3747 10.239-3.0557 13.527 1.1541 20.393-10.344 30.39-15.875.3986-.2205.4258-1.1124.6262-1.6915-.9345-.2062-1.8756-.3866-2.8026-.6224-19.198-4.8843-39.453-3.7285-58.361-10.101-5.7958-1.9534-10.85-4.3343-17.56-1.8892-10.504 3.8276-17.176-7.5402-26.626-8.4988-25.744-2.6115-49.852-13.597-76.239-13.584-23.645.0112-40.343-14.741-56.476-30.222-14.766-14.169-28.679-28.628-36.978-47.829-3.7443-8.6622-4.5612-17.664-4.8293-26.581-.6886-22.9-3.3432-46.335 8.8429-67.472 5.8165-10.089 2.2532-21.131 4.5837-31.61 1.9956-8.9724 10.114-14.495 11.188-23.252 1.1676-9.5125 6.464-7.2792 11.509-4.5024 3.5464 1.9518 3.2596 6.621.8652 8.6111-4.5274 3.7628-4.1791 7.4987-3.6998 12.749 1.1428 12.518.4994 25.132-1.9317 37.564-.3778 1.9321-.9034 3.8907-.8923 5.8344.0674 11.91.2024 23.778-3.1692 35.419-2.4828 8.5727 4.0152 15.355 5.3493 23.239 2.805 16.576 13.27 28.901 26.011 38.029 10.081 7.2223 22.843 10.71 34.453 15.767.5538.2413 2.1189-.3642 2.1218-.5897.0125-.9492-.1024-2.1579-.6851-2.8167-4.9843-5.6349-8.4436-12.762-16.13-15.76-3.6727-1.4324-5.3033-5.222-7.7571-8.1144-24.562-28.953-24.311-62.954-21.008-97.937 1.033-10.942 7.1042-19.967 8.9005-30.508.8656-5.0795 5.5495-6.9922 10.5-6.1329 5.507.9558 8.6509 5.2566 8.4119 10.295-1.3667 28.822 4.8997 56.385 12.615 83.812 1.4644 5.2058 5.4777 6.3669 9.2823 8.5475 6.151 3.5255 12.07 7.459 18.051 11.277 2.7961 1.7849 5.3454 1.9953 8.2714.0088 3.0527-2.0726 3.2363-5.0823 3.5303-8.1622.1212-1.27-.3137-2.6868.0984-3.821 5.3567-14.745 2.7219-27.256-9.6055-37.595-11.558-9.6931-16.285-23.404-20.137-37.259-5.1255-18.436-15.329-35.67-13.446-55.82.7055-7.5507 1.1464-15.127 1.6248-22.697.1734-2.7437 1.7783-4.3038 4.1685-3.6866 3.2398.8365 7.5366.2604 9.0574 4.4238 3.3519 9.1763 4.1564 20.598 10.242 27.182 12.017 13 14.231 29.854 22.053 44.315.3662.6769.9859 1.2167 1.4875 1.8204.5817-.7295 1.2866-1.3919 1.7257-2.199 3.5661-6.5538 2.9064-14.076 4.7522-21.036 1.8993-7.1621 3.8456-14.744 13.369-13.521 8.4742 1.0882 10.82 7.2414 11.282 15.477 1.0386 18.498-2.5311 36.62-3.2924 54.948-.097 2.3365-.1722 4.2567 2.8701 5.4534 9.1157 3.5857 19.228 5.4327 26.998.2214 4.8122-3.2273 10.915-8.7052 11.698-16.435 1.7138-16.924-5.2391-32.32-7.8684-48.436-2.278-13.962-8.3219-29.376 2.7221-43.118 1.8743-2.3321-1.07-8.3206 5.2589-7.4251 5.2315.7402 3.8271 6.0146 5.7346 8.9254 10.161 15.506 7.9279 33.841 12.698 50.477 1.7534 6.1147 5.8592 11.999 11.629 15.552 6.9243 4.2634 12.501 9.6102 16.45 16.662 3.2875 5.8697 6.1874.4312 9.0301-.4125 13.663-4.0554 15.244-8.5257 9.9844-21.492-7.4028-18.25-8.2118-37.605-7.0355-56.958.3599-5.9211 5.3194-8.627 11.263-8.1185 6.0101.5142 8.8308 4.1759 9.7328 10.063 1.5755 10.285-.1821 21.272 6.1482 30.602zm144.08 165.4c-1.9276-15.87 2.1465-30.582 11.711-42.264 9.259-11.309 12.513-23.818 14.493-37.527-1.8023.7409-3.6828 1.1448-5.1255 2.1667-9.4597 6.7001-19.58 11.956-30.961 14.495-9.4216 2.1017-11.566 7.3438-8.4456 16.349 3.2651 9.4238 5.2083 19.229 6.9949 29.127 1.0587 5.8643 2.3071 14.571 11.333 17.653zm-103.63 47.764c-9.8591-11.813-21.537-21.76-23.419-38.292-.6141-5.3949-3.6832-10.51-5.6294-15.754-4.3739 2.1908-6.363 6.5722-9.2832 10.099-.2112.2551-.5934.4272-.6912.7091-2.1966 6.3301-11.183 12.448-4.9002 18.999 6.3948 6.6687 15.7 10.529 14.821 21.914-.0151.1955.4281.5137.716.6326 9.361 3.8625 18.851 5.3166 28.386 1.6927z"/></svg>