<svg viewBox="-6.92 72.08 359.84 99.84" xmlns="http://www.w3.org/2000/svg"><title>NTT DATA (KCSP)</title><defs><clipPath id="a"><path d="M0 0h346.498v245H0z"/></clipPath></defs><g clip-path="url(#a)"><path fill="#5087C7" d="M52.539 80.209v10.396h15.854v39.01H79.62v-39.01h15.857V80.209H52.539zm168.485 38.845c-1.703 0-3.607-.869-3.607-5.101 0-4.249 1.887-4.982 3.607-4.982h21.164v10.083h-21.164zm16.298-38.845h-28.268v10.483h27.521c4.037 0 5.613 1.836 5.613 6.571.004.022.004 1.347.004 1.745h-22.811c-8.673 0-12.989 4.339-12.989 14.14v2.335c0 10.091 4.475 14.122 13.46 14.122h33.443V97.13c0-12.448-4.112-16.921-15.973-16.921m76.907 38.845c-1.699 0-3.608-.869-3.608-5.101 0-4.249 1.889-4.982 3.608-4.982h21.175v10.083h-21.175zm16.29-38.845h-28.258v10.483h27.53c4.029 0 5.613 1.836 5.613 6.571v1.745h-22.809c-8.675 0-12.992 4.339-12.992 14.14v2.335c0 10.091 4.478 14.122 13.458 14.122h33.436V97.13c0-12.448-4.089-16.921-15.978-16.921m-231.472 0v10.396h15.849v39.01h11.234v-39.01h15.852V80.209H99.047zm156.505 0v10.396h15.859v39.01h11.222v-39.01H298.5V80.209h-42.948zm-64.976 32.313c0 4.746-1.589 6.573-5.629 6.573h-18.085V90.732h18.085c4.04 0 5.629 1.837 5.629 6.576v15.214zm11.462-.216V97.525c0-12.957-5.025-17.316-16.344-17.316h-30.059v49.396h30.579c12.03 0 15.824-5.966 15.824-17.299m-165.327 5.541c-.24-.441-15.243-29.677-17.08-32.556-2.115-3.328-4.69-5.631-9.622-5.631C5.426 79.66 0 81.685 0 92.689v36.938h11.068V98.822c0-2.212-.14-5.487-.163-6.144-.023-.55 0-1.067.277-1.224.319-.186.633.122.852.53.207.41 14.122 27.914 17.073 32.562 2.119 3.312 4.693 5.645 9.622 5.645 4.582 0 10.015-2.049 10.015-13.049V80.194H37.668v30.814c0 2.213.14 5.5.166 6.152.029.548 0 1.046-.277 1.226-.311.175-.634-.132-.846-.539"/><path fill="#231F20" d="M176.582 146.479c1.831.978 2.939 2.69 3.355 5.177h-2.504a4.6 4.6 0 0 0-1.851-3.011 6.105 6.105 0 0 0-3.539-.951 5.468 5.468 0 0 0-4.275 1.957c-1.161 1.325-1.733 3.277-1.733 5.871 0 2.252.474 4.09 1.433 5.481.956 1.42 2.507 2.123 4.658 2.123a5.82 5.82 0 0 0 4.104-1.485c1.085-.987 1.629-2.582 1.664-4.81h-5.841v-2.117h8.193v10.56h-1.63l-.617-2.879a9.674 9.674 0 0 1-2.23 1.989 8.187 8.187 0 0 1-4.159.949 7.95 7.95 0 0 1-5.604-2.177c-1.707-1.816-2.57-4.305-2.57-7.485 0-3.158.839-5.684 2.508-7.54a7.969 7.969 0 0 1 6.154-2.688 9.14 9.14 0 0 1 4.484 1.036zm22.6 5.651q1.799 1.816 1.799 5.322c0 2.266-.526 4.122-1.582 5.598q-1.594 2.225-4.931 2.224a5.473 5.473 0 0 1-4.429-1.965c-1.095-1.294-1.638-3.061-1.638-5.254 0-2.352.571-4.239 1.731-5.622a5.688 5.688 0 0 1 4.637-2.107 6.033 6.033 0 0 1 4.413 1.804zm-1.419 9.331a9.202 9.202 0 0 0 .834-3.947 7.218 7.218 0 0 0-.604-3.182c-.636-1.304-1.732-1.944-3.292-1.944a3.193 3.193 0 0 0-3.012 1.652 7.913 7.913 0 0 0-.94 3.976 6.897 6.897 0 0 0 .94 3.726c.628.996 1.627 1.494 2.992 1.494 1.501 0 2.529-.596 3.082-1.775zm90.013-9.331q1.811 1.816 1.809 5.322c0 2.266-.53 4.122-1.59 5.598-1.06 1.483-2.699 2.224-4.932 2.224a5.474 5.474 0 0 1-4.425-1.965c-1.091-1.294-1.634-3.061-1.634-5.254 0-2.352.572-4.239 1.726-5.622a5.69 5.69 0 0 1 4.639-2.107 6.008 6.008 0 0 1 4.407 1.804zm-1.411 9.331a9.187 9.187 0 0 0 .834-3.947 7.163 7.163 0 0 0-.608-3.182c-.633-1.304-1.729-1.944-3.282-1.944a3.204 3.204 0 0 0-3.02 1.652 7.99 7.99 0 0 0-.938 3.976 6.962 6.962 0 0 0 .938 3.726c.63.996 1.624 1.494 2.991 1.494 1.501 0 2.523-.596 3.085-1.775zm-61.372-5.219c.45-.013.857-.273 1.059-.676.115-.293.167-.607.154-.921a1.959 1.959 0 0 0-.834-1.765 4.38 4.38 0 0 0-2.378-.555c-1.194 0-2.034.346-2.532 1.015a3.441 3.441 0 0 0-.546 1.661h-2.134c.042-1.746.584-2.967 1.629-3.65a6.486 6.486 0 0 1 3.631-1.028 7.17 7.17 0 0 1 3.9.954 3.277 3.277 0 0 1 1.481 2.968v8.135a1.04 1.04 0 0 0 .149.603.705.705 0 0 0 .61.217 3.477 3.477 0 0 0 .748-.08v1.762a8.446 8.446 0 0 1-.814.204 6.865 6.865 0 0 1-.759.038 1.885 1.885 0 0 1-1.715-.871 3.74 3.74 0 0 1-.391-1.31 5.805 5.805 0 0 1-2.011 1.647 5.921 5.921 0 0 1-2.875.709 4.194 4.194 0 0 1-3.094-1.209 4.02 4.02 0 0 1-1.203-2.985 3.912 3.912 0 0 1 1.185-3.039 5.504 5.504 0 0 1 3.102-1.335l3.638-.489zm-4.809 6.437a2.65 2.65 0 0 0 1.717.588 5.136 5.136 0 0 0 2.33-.572 3.294 3.294 0 0 0 1.909-3.157v-1.914a4.075 4.075 0 0 1-1.08.472 8.488 8.488 0 0 1-1.292.257l-1.378.18a5.174 5.174 0 0 0-1.867.549 2.101 2.101 0 0 0-1.065 1.968 2 2 0 0 0 .726 1.629zm91.728-6.437a1.227 1.227 0 0 0 1.055-.676c.116-.293.167-.607.151-.921a1.96 1.96 0 0 0-.832-1.765 4.351 4.351 0 0 0-2.375-.555c-1.191 0-2.035.346-2.536 1.015a3.527 3.527 0 0 0-.543 1.661h-2.127c.038-1.746.579-2.967 1.625-3.65a6.495 6.495 0 0 1 3.632-1.028 7.122 7.122 0 0 1 3.891.954c.994.639 1.488 1.615 1.488 2.968v8.135c-.012.211.038.42.144.603.159.169.39.25.62.217.097 0 .211-.006.34-.017.137-.012.273-.033.408-.063v1.762c-.269.082-.541.15-.816.204a7.174 7.174 0 0 1-.762.038 1.873 1.873 0 0 1-1.714-.871 3.634 3.634 0 0 1-.396-1.31 5.85 5.85 0 0 1-2.003 1.647 5.966 5.966 0 0 1-2.88.709 4.189 4.189 0 0 1-3.094-1.209 4.03 4.03 0 0 1-1.199-2.985 3.91 3.91 0 0 1 1.183-3.039 5.484 5.484 0 0 1 3.095-1.335l3.645-.489zm-4.813 6.437a2.649 2.649 0 0 0 1.718.588 5.116 5.116 0 0 0 2.332-.573 3.284 3.284 0 0 0 1.905-3.156v-1.914a4.036 4.036 0 0 1-1.076.472 8.488 8.488 0 0 1-1.292.257l-1.382.18a5.246 5.246 0 0 0-1.867.549 2.092 2.092 0 0 0-1.062 1.968c-.029.627.24 1.23.724 1.629zm-63.383-17.236h2.28v19.831h-2.28v-19.831zm5.74 4.883h2.172V153a6.02 6.02 0 0 1 2.042-1.73 5.457 5.457 0 0 1 2.4-.531c1.935 0 3.235.682 3.912 2.05a7.34 7.34 0 0 1 .558 3.21v9.275h-2.323v-9.133a4.695 4.695 0 0 0-.369-2.016 2.225 2.225 0 0 0-2.211-1.3c-.45-.013-.9.044-1.333.17a3.336 3.336 0 0 0-1.646 1.147c-.36.393-.615.87-.743 1.387a9.53 9.53 0 0 0-.174 2.078v7.667h-2.285v-14.948zm14.156 0h2.171V153a6.023 6.023 0 0 1 2.043-1.73 5.442 5.442 0 0 1 2.399-.531q2.896 0 3.912 2.05a7.415 7.415 0 0 1 .559 3.21v9.275h-2.324v-9.133a4.65 4.65 0 0 0-.371-2.016 2.218 2.218 0 0 0-2.21-1.3 4.29 4.29 0 0 0-1.328.17 3.33 3.33 0 0 0-1.653 1.147 3.215 3.215 0 0 0-.741 1.387 9.41 9.41 0 0 0-.177 2.078v7.667h-2.28v-14.948zm29.275.017l3.939 12.15 4.095-12.15h2.639l-5.544 14.931h-2.501l-5.434-14.931h2.806zm26.134-4.9h2.316v4.883h2.17v1.893h-2.17v9.94a.95.95 0 0 0 .479.955c.281.113.585.161.888.141.113 0 .227-.004.357-.006a3.53 3.53 0 0 0 .446-.046v1.843a4.725 4.725 0 0 1-.822.178 7.884 7.884 0 0 1-.921.05c-1.064 0-1.79-.288-2.173-.832a3.787 3.787 0 0 1-.57-2.161v-10.062h-1.838v-1.893h1.838v-4.883zm16.5 6.687q1.804 1.816 1.806 5.327c0 2.263-.53 4.122-1.582 5.597-1.061 1.484-2.714 2.223-4.936 2.223a5.48 5.48 0 0 1-4.426-1.963c-1.09-1.294-1.638-3.061-1.638-5.257 0-2.353.572-4.239 1.722-5.624a5.723 5.723 0 0 1 4.646-2.107 6.03 6.03 0 0 1 4.408 1.804zm-1.415 9.331a9.045 9.045 0 0 0 .832-3.946 7.061 7.061 0 0 0-.607-3.182c-.637-1.305-1.73-1.945-3.281-1.945a3.203 3.203 0 0 0-3.017 1.652 7.935 7.935 0 0 0-.942 3.976c-.047 1.307.28 2.6.942 3.728.629 1.001 1.628 1.495 2.993 1.495q2.236 0 3.08-1.778zm5.776-11.135h2.157v2.689a5.637 5.637 0 0 1 1.329-1.689 3.304 3.304 0 0 1 2.398-1c.065 0 .129.005.193.015.102.006.284.027.539.054v2.443a2.658 2.658 0 0 0-.397-.049 9.55 9.55 0 0 0-.344-.005 3.24 3.24 0 0 0-2.669 1.106 5.157 5.157 0 0 0-.92 3.007v8.377h-2.286v-14.948zm-126.053 1.823a5.261 5.261 0 0 0-4.141-1.812 5.006 5.006 0 0 0-2.271.541 5.196 5.196 0 0 0-1.79 1.553v-6.988h-2.225v19.831h2.225v-2.111c.346.502.764.95 1.242 1.328a4.384 4.384 0 0 0 2.633.783 5.006 5.006 0 0 0 4.34-2.224c1.048-1.476 1.568-3.32 1.568-5.552q0-3.538-1.581-5.349zm-1.691 9.492a3.037 3.037 0 0 1-2.779 1.533 3.358 3.358 0 0 1-3.381-2.339 8.897 8.897 0 0 1-.484-3.227c0-1.824.397-3.156 1.18-3.944a3.721 3.721 0 0 1 2.743-1.196 3.01 3.01 0 0 1 2.721 1.45 6.833 6.833 0 0 1 .932 3.69 7.722 7.722 0 0 1-.932 4.033zm22.617 1.473a.964.964 0 0 1-.509-.955v-16.716h-2.289v16.838a3.762 3.762 0 0 0 .571 2.161c.386.544 1.108.832 2.172.832.195 0 .377-.008.548-.022v-2.011a1.361 1.361 0 0 1-.493-.127zm-48.206 0a.96.96 0 0 1-.501-.955v-16.716h-2.295v16.838c-.03.761.168 1.513.568 2.161.386.544 1.114.832 2.178.832.19 0 .373-.008.546-.022v-2.011a1.377 1.377 0 0 1-.496-.127zM84.494 145.476v2.361h-6.586v17.437h-2.669v-17.437h-6.586v-2.361h15.841zm12.132 4.857v9.656a4.304 4.304 0 0 0 .335 1.817c.417.853 1.187 1.29 2.324 1.29a3.263 3.263 0 0 0 3.311-2.277 9.11 9.11 0 0 0 .478-3.316v-7.17h2.397v14.5h-2.265l.032-2.125a4.593 4.593 0 0 1-1.137 1.384 4.932 4.932 0 0 1-3.265 1.151c-1.997 0-3.347-.691-4.067-2.066a6.294 6.294 0 0 1-.594-2.962v-9.882h2.451zm13.461 10.005c.021.647.232 1.275.608 1.803.61.771 1.68 1.129 3.202 1.129a4.798 4.798 0 0 0 2.385-.566 1.87 1.87 0 0 0 1.038-1.766 1.537 1.537 0 0 0-.831-1.373 9.838 9.838 0 0 0-2.079-.658l-1.929-.469a9.845 9.845 0 0 1-2.735-.997 2.953 2.953 0 0 1-1.566-2.645 4.022 4.022 0 0 1 1.472-3.234c.986-.819 2.302-1.229 3.973-1.229q3.259 0 4.703 1.864c.582.719.89 1.62.871 2.545h-2.26a2.679 2.679 0 0 0-.578-1.447c-.568-.613-1.54-.926-2.928-.926a3.652 3.652 0 0 0-2.106.506 1.577 1.577 0 0 0-.717 1.354c.01.624.374 1.187.938 1.453a5.155 5.155 0 0 0 1.606.562l1.609.405c1.752.39 2.926.797 3.528 1.187.925.602 1.39 1.535 1.39 2.83a4.252 4.252 0 0 1-1.458 3.237c-.969.917-2.458 1.371-4.448 1.371q-3.223 0-4.563-1.424a5.277 5.277 0 0 1-1.433-3.512h2.308zm33.339-2.829q0 3.34 1.566 5.545a5.033 5.033 0 0 0 4.343 2.22 4.34 4.34 0 0 0 2.63-.782 5.852 5.852 0 0 0 1.245-1.326v2.108h2.226v-19.822h-2.226v6.987a4.951 4.951 0 0 0-4.067-2.093 5.24 5.24 0 0 0-4.128 1.808c-1.066 1.214-1.589 2.991-1.589 5.355zm2.352.111a6.942 6.942 0 0 1 .913-3.697 3.034 3.034 0 0 1 2.727-1.445 3.684 3.684 0 0 1 2.743 1.197c.787.782 1.175 2.119 1.175 3.945a8.938 8.938 0 0 1-.481 3.227 3.34 3.34 0 0 1-3.371 2.327 3.057 3.057 0 0 1-2.793-1.526 7.86 7.86 0 0 1-.913-4.028zm-23.098-12.168h2.303v4.881h2.167v1.894h-2.167v9.937a.941.941 0 0 0 .494.95c.278.115.579.163.879.141.111 0 .234-.005.361-.006.145-.006.289-.021.433-.045v1.849a4.766 4.766 0 0 1-.817.171c-.292.028-.586.05-.913.05-1.07 0-1.798-.28-2.186-.828a3.927 3.927 0 0 1-.554-2.157v-10.062h-1.853v-1.894h1.853v-4.881zm15.654 5.589a5.228 5.228 0 0 1 2.143 1.818c.492.755.818 1.606.956 2.496.168 1.029.239 2.07.213 3.112h-10.359a6.055 6.055 0 0 0 1.014 3.46c.632.854 1.614 1.295 2.941 1.295a3.793 3.793 0 0 0 2.963-1.225c.41-.48.712-1.044.883-1.652h2.362a5.458 5.458 0 0 1-.622 1.731 6.864 6.864 0 0 1-1.177 1.569 5.512 5.512 0 0 1-2.68 1.415 8.11 8.11 0 0 1-1.939.211 5.991 5.991 0 0 1-4.482-1.932c-1.22-1.263-1.836-3.06-1.836-5.356q0-3.41 1.851-5.527a6.14 6.14 0 0 1 4.837-2.13 6.475 6.475 0 0 1 2.932.715zm.852 5.553c-.05-.86-.277-1.7-.668-2.467-.655-1.157-1.747-1.733-3.264-1.733a3.61 3.61 0 0 0-2.742 1.192 4.44 4.44 0 0 0-1.175 3.008h7.849zm-54.077-6.261h2.151v2.69a6.193 6.193 0 0 1 1.304-1.696 3.487 3.487 0 0 1 2.404-.994c.045 0 .113.008.213.014.101.014.3.032.537.052v2.447a2.521 2.521 0 0 0-.377-.056 24.293 24.293 0 0 0-.384-.003 3.245 3.245 0 0 0-2.651 1.106 5.322 5.322 0 0 0-.935 3.013v8.368h-2.262v-14.941z"/></g></svg>