<svg xmlns="http://www.w3.org/2000/svg" role="img" viewBox="72.60 -4.90 254.54 254.54"><path fill="none" d="M0 0h400v245H0z" pointer-events="none"/><g data-name="Layer 2"><path fill="#333" d="M109.671 227.53a19.217 19.217 0 0 1-1.389 7.337 16.343 16.343 0 0 1-3.563 5.511 15.723 15.723 0 0 1-5.18 3.494 15.618 15.618 0 0 1-5.87 1.101 15.863 15.863 0 0 1-5.774-1.048 14.675 14.675 0 0 1-4.883-3.119 16.597 16.597 0 0 1-3.86-5.66 19.304 19.304 0 0 1-1.442-7.67 19.759 19.759 0 0 1 1.162-6.926 16.728 16.728 0 0 1 3.494-5.617 14.85 14.85 0 0 1 5.084-3.546 15.644 15.644 0 0 1 6.236-1.275 15.723 15.723 0 0 1 6.167 1.196 14.85 14.85 0 0 1 4.91 3.32 16.37 16.37 0 0 1 3.66 5.808 20.239 20.239 0 0 1 1.248 7.093zm-4.192.392a19.112 19.112 0 0 0-1.075-6.306 12.893 12.893 0 0 0-3.275-5.198 11.006 11.006 0 0 0-3.32-2.218 10.334 10.334 0 0 0-4.114-.786 10.604 10.604 0 0 0-4.14.803 10.788 10.788 0 0 0-3.494 2.359 13.565 13.565 0 0 0-3.075 4.882 17.95 17.95 0 0 0 0 12.44 13.251 13.251 0 0 0 3.17 4.76 10.989 10.989 0 0 0 3.338 2.183 10.351 10.351 0 0 0 4.122.83 10.534 10.534 0 0 0 4.115-.803 11.172 11.172 0 0 0 3.494-2.306 13.67 13.67 0 0 0 3.04-4.525 15.278 15.278 0 0 0 1.205-6.115zM138.654 241l-.14 1.249q-.113 1.022-.21 2.236h-.873a34.748 34.748 0 0 1-10.709-1.52 19.671 19.671 0 0 1-7.704-4.367 14.649 14.649 0 0 1-3.32-4.787 15.723 15.723 0 0 1-1.222-6.368 13.976 13.976 0 0 1 1.205-5.861 15.906 15.906 0 0 1 3.162-4.63 19.724 19.724 0 0 1 7.626-4.542 30.747 30.747 0 0 1 10.246-1.677h1.11q0 .445.095 1.415t.175 2.114h-.873a31.865 31.865 0 0 0-6.403.681 19.488 19.488 0 0 0-5.704 2.035 12.971 12.971 0 0 0-4.796 4.551 11.356 11.356 0 0 0-1.677 5.984 12.308 12.308 0 0 0 1.511 6.062 12.028 12.028 0 0 0 4.77 4.577 20.248 20.248 0 0 0 5.966 2.219 31.918 31.918 0 0 0 6.56.69h.532zm32.957-26.529h-12.124q-.052 5.067-.07 7.679t0 7.136v8.831q0 4.464.061 5.966h-4.027q.053-1.485.088-6.053t0-8.945v-6.866q0-2.533-.07-7.791h-12.115v-3.407h28.3zm29.01 17.47q-4.761-10.36-9.697-21.409h-3.205q-5.014 11.05-9.661 21.078t-5.294 11.311l3.302 1.747q.149-.367 1.564-3.494c.943-2.105 5.433-12.071 5.433-12.071q1.144-2.516 2.9-6.473t2.996-6.674h.096q1.599 3.582 3.049 6.866t2.76 6.298s4.315 9.609 5.302 11.923 1.511 3.494 1.581 3.678l3.843-1.983zm37 10.124l-3.092 2.516q-.541-.568-3.843-4.289t-10.185-11.6v-.218a12.535 12.535 0 0 0 2.49-1.075 12.867 12.867 0 0 0 2.62-1.79 8.062 8.062 0 0 0 1.59-2.08 6.883 6.883 0 0 0 .681-3.31 5.407 5.407 0 0 0-.996-3.276 5.756 5.756 0 0 0-2.751-2.009 10.482 10.482 0 0 0-3.014-.655q-1.58-.113-2.909-.113h-2.052q-.053 4.69-.061 8.272t0 5.066v9.19q0 5.808.06 7.284h-4.07q0-1.485.07-5.739t.053-10.595v-4.569q0-3.328-.123-12.141l2.464-.053q2.218-.052 4.087-.052a34.398 34.398 0 0 1 4.167.245 14.614 14.614 0 0 1 3.948 1.056 8.892 8.892 0 0 1 3.87 3.049 7.931 7.931 0 0 1 1.432 4.726 8.263 8.263 0 0 1-2.157 5.835 18.772 18.772 0 0 1-4.08 3.494v.122q3.381 3.957 7.417 8.15zm11.173 1.974h-4.07q0-1.485.07-5.24t.051-10.91v-7.382q0-4.568-.096-9.477h4.07q-.051 3.494-.086 8.202t0 7.634q0 7.504.052 11.61t.009 5.563zm40.486-33.044q-.052 3.878-.087 8.857t0 7.18q0 6.988.052 11.146t.053 4.368l-3.284 1.607q-7.451-10.063-13.933-18.169l-7.53-9.355h-.052q0 6.612.088 16.247t.113 11.12h-3.852q0-.62.07-4.368t.052-10.482V222q0-4.455-.096-9.443l3.748-1.747 7.564 9.609q7.12 9.023 13.417 16.771h.052q0-3.8-.096-12.788t-.096-13.33zm33.01 32.992h-20.964q.052-1.433.087-6.193t0-9.844v-7.382q0-4.594-.087-9.503h20.667v3.433h-16.631q0 2.786-.053 5.564t-.052 5.24h16.736v3.408h-16.736v7.407q0 2.743.052 4.594h16.946z" class="cls-1"/><path fill="#4d3d75" d="M271.872 110.707a.498.498 0 0 1 0 .131 89.91 89.91 0 0 1-8.133 17.374c4.621-21.89 1.677-54.358-23.759-77.654l-.079-.078c-.235-.245-.462-.48-.707-.7a131.364 131.364 0 0 1 3.669 3.294q.82.769 1.642 1.572c11.486 11.356 22.58 26.738 26.467 40.854l.244.934c.08.315.149.62.219.918s.13.62.2.917a29.402 29.402 0 0 1 0 13.338c-.008-.297.132-.585.237-.9z" class="cls-2"/><path fill="#604c87" d="M239.954 50.558c25.427 23.305 28.38 55.764 23.76 77.654a106.488 106.488 0 0 1-15.182 19.575c10.656-18.832 17.146-70.814-8.578-97.229z" class="cls-3"/><path fill="#795ca0" d="M239.954 50.558c25.724 26.424 19.217 78.397 8.578 97.23a102.427 102.427 0 0 1-26.79 19.924c22.894-23.523 41.211-93.465 15.408-119.617q1.398 1.188 2.725 2.376z" class="cls-4"/><path fill="#8e6eaf" d="M229.516 42.408a87.944 87.944 0 0 1 7.634 5.696c25.803 26.144 7.486 96.085-15.409 119.608-16.491 8.324-33.822 10.36-47.265 2.446-22.763-13.408-40.687-65.513-45.623-85.411a74.248 74.248 0 0 0 21.218 15.374l1.074.497a72.003 72.003 0 0 0 34.067 6.761c19.007-.454 37.613-9.302 47.273-18.998.359-.35.725-.708 1.057-1.083 10.395-10.648 14.308-31.569-4.07-44.95z" class="cls-5"/><path fill="#faba2f" d="M213.696 16.116a2.027 2.027 0 0 1 .219.114l-.594-.28a3.599 3.599 0 0 1 .375.166z" class="cls-6"/><path fill="#60b74b" d="M231.271 89.29c-43.386 36.607-95.211-12.23-106.715-31.09a87.874 87.874 0 0 1 1.301-19.26c11.251 19.854 62.604 87.035 106.104 49.79-.235.174-.454.366-.69.558z" class="cls-7"/><path fill="#83ce5b" d="M196.716 90.136c22.361 13.505 36.791-3.397 36.8-2.83l-.934.874-.63.55c-43.49 37.246-94.844-29.935-106.095-49.79 2.516-13.539 8.971-26.318 22.257-33.865 22.16-12.613 50.2 3.756 65.216 10.884a32.955 32.955 0 0 0-1.46-.655 104.078 104.078 0 0 0-23.147-7.591l-.734-.14c-5.747-1.057-11.355-1.354-16.15-.28l-.42.097c-4.21.943-7.425 2.83-9.381 5.66a4.603 4.603 0 0 0-.254.393 17.767 17.767 0 0 0-2.908 6.43l-.07.287q-.157.594-.28 1.188c-.873 3.093-.943 7.067-.236 11.548a66.91 66.91 0 0 0 6.5 19.802c.148.315.314.638.48.952a99.859 99.859 0 0 0 16.63 24.091c.35.385.708.76 1.083 1.127a5.809 5.809 0 0 0 .533.533 71.323 71.323 0 0 0 4.088 3.861c.253.245.524.48.795.699a56.69 56.69 0 0 0 8.316 6.175z" class="cls-8"/><path fill="#faba2f" d="M195.807 43.771c-9.608 6.988-19.05 30.188.874 46.365-31.394-23.654-16.081-68.438 1.04-80.126a128.745 128.745 0 0 1 14.115 5.241c.498.21.987.428 1.459.655l.594.28c24.458 12.229 51.02 32.791 58.603 56.288 5.94 18.344 1.633 31.376-.655 38.19a30.66 30.66 0 0 0-.271-12.439c-.061-.306-.131-.603-.201-.917s-.14-.603-.218-.917l-.245-.935c-3.494-13.102-13.4-28.205-26.467-40.854q-.821-.803-1.642-1.572c-1.398-1.336-2.778-2.62-4.167-3.79a46.068 46.068 0 0 0-3.773-3.25 29.944 29.944 0 0 0-5.451-3.669l-.07-.044c-7.171-4.201-19.793-8.21-33.525 1.494z" class="cls-6"/><path fill="#169c4d" d="M124.556 58.201c11.46 18.877 63.329 67.697 106.715 31.088-43.317 37.063-93.089 1.18-105.414-17.662a109.397 109.397 0 0 1-1.301-13.426z" class="cls-9"/><path fill="#f99932" d="M197.746 10.019c-17.12 11.687-32.424 56.472-1.04 80.126-.567-.42-1.143-.873-1.702-1.266-30.573-23.585-28.555-65.88-13.155-82.04a58.376 58.376 0 0 1 6.114.778l.734.14a84.887 84.887 0 0 1 9.05 2.262z" class="cls-10"/><path fill="#d87319" d="M195.012 88.87c.56.428 1.127.873 1.704 1.266a73.54 73.54 0 0 1-8.325-6.201c-.27-.219-.533-.455-.795-.7-.672-.628-1.354-1.266-2.035-1.947s-1.336-1.223-2.053-1.922a5.809 5.809 0 0 1-.533-.533l-1.074-1.092a107.196 107.196 0 0 1-16.64-24.073c-.166-.315-.323-.638-.48-.952a72.85 72.85 0 0 1-6.5-19.803 32.966 32.966 0 0 1 .236-11.547 2.62 2.62 0 0 1 .097-.323c.06-.289.113-.586.183-.874l.07-.288a22.204 22.204 0 0 1 2.909-6.43 15.95 15.95 0 0 1 8.787-5.834c-11.574 21.139-7.861 56.769 24.45 81.253z" class="cls-11"/><path fill="#0e784a" d="M231.961 88.695l.63-.55.934-.874c-.34.376-.699.734-1.057 1.084-5.669 5.52-20.588 16.378-42.251 18.623a81.48 81.48 0 0 1-5.032.375h-2.568a77.008 77.008 0 0 1-31.446-6.77l-1.074-.497a79.646 79.646 0 0 1-21.252-15.357 98.06 98.06 0 0 1-2.988-13.102c12.325 18.876 62.097 54.76 105.414 17.706.236-.236.455-.428.69-.638z" class="cls-12"/><path fill="#ea852a" d="M181.866 6.83c-15.4 16.17-17.374 58.42 13.155 82.04-32.32-24.458-36.023-60.114-24.458-81.236l.874-.235.419-.097a36.399 36.399 0 0 1 10.036-.497z" class="cls-13"/><path fill="none" stroke="#333" stroke-miterlimit="10" stroke-width=".874" d="M188.391 83.935a56.69 56.69 0 0 0 8.325 6.201c22.361 13.505 36.791-3.397 36.8-2.83m-49.999-7.931c.708.699 1.389 1.336 2.053 1.922s1.362 1.319 2.035 1.948m-22.353-29.603a107.196 107.196 0 0 0 16.65 24.1l1.082 1.126m-24.187-58.716q-.157.594-.28 1.188a32.966 32.966 0 0 0-.235 11.547 66.91 66.91 0 0 0 6.498 19.803m6.63-45.3c-4.21.943-7.424 2.83-9.381 5.66a4.603 4.603 0 0 0-.253.393 22.204 22.204 0 0 0-2.91 6.43m29.123-12.3a58.376 58.376 0 0 0-6.114-.777 36.399 36.399 0 0 0-10.037.498m40.033 8.01a104.078 104.078 0 0 0-23.148-7.591m25.192 8.517l-.594-.28" class="cls-14"/><path fill="none" stroke="#333" stroke-miterlimit="10" stroke-width=".874" d="M125.857 38.932c2.516-13.53 8.971-26.31 22.257-33.857 22.16-12.613 50.2 3.756 65.216 10.884m-63.268 84.17a79.646 79.646 0 0 1-21.217-15.4 98.06 98.06 0 0 1-2.988-13.102 109.397 109.397 0 0 1-1.301-13.382 87.874 87.874 0 0 1 1.301-19.26M232.46 88.397c-5.669 5.52-20.588 16.378-42.25 18.623a81.48 81.48 0 0 1-5.032.376 72.003 72.003 0 0 1-34.067-6.761" class="cls-14"/><path fill="none" stroke="#333" stroke-miterlimit="10" stroke-width=".437" d="M231.271 89.29c-43.317 37.062-93.089 1.178-105.414-17.663m106.725 16.527l-.63.55c-.235.21-.454.41-.69.594-43.386 36.608-95.21-12.23-106.715-31.088" class="cls-15"/><path fill="none" stroke="#333" stroke-miterlimit="10" stroke-width=".874" d="M125.857 38.94v-.008" class="cls-14"/><path fill="none" stroke="#333" stroke-miterlimit="10" stroke-width=".437" d="M233.516 87.35l-.934.874-.63.55c-43.49 37.202-94.844-29.979-106.095-49.833" class="cls-15"/><path fill="none" stroke="#333" stroke-miterlimit="10" stroke-width=".874" d="M271.182 96.426c.078.314.148.62.218.917s.13.62.2.917a29.402 29.402 0 0 1 0 13.338c.097-.288.202-.585.307-.873 2.28-6.805 6.586-19.837.655-38.19-7.574-23.497-34.163-44.015-58.603-56.288a2.027 2.027 0 0 0-.219-.113 3.599 3.599 0 0 0-.375-.166 32.955 32.955 0 0 0-1.46-.656 128.745 128.745 0 0 0-14.115-5.24 84.887 84.887 0 0 0-9.032-2.307l-.734-.14c-5.747-1.056-11.355-1.353-16.15-.279l-.42.096-.873.236a15.95 15.95 0 0 0-8.788 5.818 17.767 17.767 0 0 0-2.909 6.429l-.07.288c-.07.28-.13.568-.183.873a2.62 2.62 0 0 0-.096.323c-.874 3.093-.943 7.067-.236 11.548a72.85 72.85 0 0 0 6.499 19.802c.148.315.314.638.48.953a99.859 99.859 0 0 0 16.623 24.03c.35.384.708.76 1.083 1.126a5.809 5.809 0 0 0 .533.533 71.323 71.323 0 0 0 4.088 3.861c.253.245.524.48.795.699a73.54 73.54 0 0 0 8.324 6.202c-19.96-16.178-10.56-39.413-.873-46.366 13.731-9.73 26.353-5.695 33.568-1.458m15.05 12.298c13.103 12.649 22.956 27.725 26.468 40.854" class="cls-14"/><path fill="none" stroke="#333" stroke-miterlimit="10" stroke-width=".874" d="M233.647 45.256c.096.096.184.166.28.245 1.048.812 2.096 1.642 3.118 2.49.708.584 1.424 1.178 2.123 1.746a131.364 131.364 0 0 1 3.668 3.293m-12.264-10a35.578 35.578 0 0 1 2.726 1.948" class="cls-14"/><path fill="none" stroke="#333" stroke-miterlimit="10" stroke-width=".437" d="M195.012 88.87c-32.32-24.458-36.023-60.114-24.458-81.236m26.162 82.502c-.568-.419-1.145-.873-1.704-1.266-30.572-23.585-28.554-65.88-13.155-82.04m14.859 83.306c-31.394-23.654-16.081-68.438 1.04-80.126" class="cls-15"/><path fill="none" stroke="#333" stroke-miterlimit="10" stroke-width=".874" d="M236.687 47.632a94.32 94.32 0 0 0-3.049-2.376l-.384-.288c-1.223-.874-2.42-1.747-3.581-2.463m-.227-.14c18.343 13.382 14.465 34.302 4.07 44.95-.34.376-.699.734-1.057 1.083-9.66 9.696-28.275 18.545-47.274 18.999h-2.568a77.008 77.008 0 0 1-31.446-6.77l-1.074-.498a74.248 74.248 0 0 1-21.252-15.4c4.935 19.916 22.86 72.003 45.623 85.411 13.443 7.914 30.773 5.879 47.265-2.445a102.427 102.427 0 0 0 26.79-19.925 106.488 106.488 0 0 0 15.181-19.575 89.91 89.91 0 0 0 8.133-17.374.498.498 0 0 0 0-.131 30.66 30.66 0 0 0-.271-12.439c-.061-.305-.131-.602-.201-.917s-.14-.603-.218-.917l-.245-.935c-3.887-14.115-14.98-29.515-26.467-40.853q-.821-.804-1.642-1.573c-1.398-1.336-2.778-2.62-4.167-3.79a77.536 77.536 0 0 0-1.922-1.6" class="cls-14"/><path fill="none" stroke="#333" stroke-miterlimit="10" stroke-width=".437" d="M239.954 50.558c25.427 23.305 28.38 55.764 23.76 77.654m-34.198-85.804a87.944 87.944 0 0 1 7.634 5.696q1.398 1.188 2.725 2.376" class="cls-15"/><path fill="none" stroke="#333" stroke-miterlimit="10" stroke-width=".437" d="M230.572 43.029a44.33 44.33 0 0 1 4.368 3.004 46.068 46.068 0 0 1 3.774 3.25c.165.166.34.323.497.498s.48.454.708.699l.079.078c25.724 26.424 19.217 78.397 8.577 97.23" class="cls-15"/><path fill="none" stroke="#333" stroke-miterlimit="10" stroke-width=".874" d="M229.516 42.408a.742.742 0 0 1 .166.097c.288.165.585.34.873.524" class="cls-14"/><path fill="none" stroke="#333" stroke-miterlimit="10" stroke-width=".437" d="M229.446 42.365l.07.043m-.14-.096l.07.044a29.944 29.944 0 0 1 5.45 3.669c.62.498 1.223 1.048 1.808 1.607l.044.044.306.314a.445.445 0 0 1 .105.105c25.794 26.152 7.477 96.094-15.418 119.617" class="cls-15"/></g></svg>