<svg viewBox="8.86 10.86 475.28 112.28" xmlns="http://www.w3.org/2000/svg"><title>OpenTSDB</title><g fill-rule="evenodd" clip-rule="evenodd"><path fill="#8EC645" d="M466.539 83.065c-9.109-.136-18.223-.026-27.334-.007-.757.003-1.517-.058-2.175-.058 0-2.213.057-28.021.057-30.562.788 0 1.111-.006 1.744-.005 8.605.016 17.211.099 25.815.023 3.973-.035 6.47.729 8.541 3.669 2.266 3.217 1.938 9.5-1.062 11.312 1.859 1.438 3.404 2.812 3.404 7.625 0 6.188-5.495 8.055-8.99 8.003zm-21.664-17.877c7.308 0 11.739.018 18.438.018 2 0 3-1.143 3-2.562 0-2.393-1.442-3.061-3.049-3.107-6.016-.178-12.358-.06-18.357-.06-.001 2.023-.032 3.523-.032 5.711zm20.563 5.836h-20.422c-.049 1.887-.016 3.413-.016 5.28 6.543 0 13.549.011 20.095-.007 1.881-.005 3.483-.423 3.483-2.757 0-1.978-1.766-2.516-3.14-2.516zm-108.402-9.75c-.575 2.267.919 3.36 4.134 3.223l18.171.003c5.162 0 8.316 4.482 8.153 9.355-.154 4.623-4.299 8.997-9.021 9.1-7.079.152-14.168.174-21.246-.007-4.734-.12-9.017-4.449-9.142-9.657 1.083 0 2.201.05 3.289.014 1.131-.038 2.264-.009 3.078-.009.3 1.037 1.675 2.829 3.263 2.829 5.956 0 12.516.022 19.076-.016 1.752-.01 2.823-.921 2.969-2.814-.772-2.192-2.562-2.445-4.567-2.433-5.818.032-11.637-.019-17.455.027-2.372.019-4.473-.567-6.309-2.118-4.581-3.87-4.583-9.677.195-13.29 2.515-1.9 5.147-2.989 8.618-2.989 5.142 0 10.443-.05 15.629.006 5.384.057 10.39 4.294 10.39 9.836-2.176 0-4.426-.039-6.279-.039-.521-1.211-1.604-2.396-3.212-2.396-7.395 0-13.768.018-17.385.018-1.053-.001-2.09.624-2.349 1.357zm34.637-8.778h18.47c3.544 0 7.024.004 10.627.004 6.543 0 12.061 4.25 12.061 10.625 0 3.812.005 6.604-.038 10.272-.055 4.776-3.826 8.952-8.604 9.548-.874.109-1.769.064-2.654.064-9.852.004-19.703.003-29.86.003-.002-10.155-.002-20.061-.002-30.516zm7.951 23.574c7.466 0 14.52-.011 21.572.008 1.591.003 3.399-1.652 3.399-3.162v-9.708c0-2.103-2.859-3.675-4.932-3.635-5.052.098-10.107-.015-15.16.071-1.583.028-3.248.022-4.88.022l.001 16.404z"/><path fill="#1E7CA1" d="M165.464 83.023c-3.537 0-6.964.076-10.6.076-5.244 0-10.539-5.225-10.539-10.447 0-3.215.065-6.556.082-9.84.028-5.384 4.616-10.231 10.04-10.318a696.916 696.916 0 0 1 22.353.002c5.187.082 9.625 4.559 9.764 9.695.103 3.786.103 7.579.007 11.365-.138 5.433-4.223 9.374-9.739 9.457-3.79.057-7.58.011-11.368.01zm12.869-20.211c0-1.667-2.372-3.215-4.076-3.203-5.823.042-11.646-.017-17.469.043-2.303.024-4.01 1.204-4.171 3.562 0 3.035-.006 6.348-.006 9.485 0 1.55 1.264 3.371 2.707 3.371 6.099 0 12.55-.035 19.001.022 1.864.017 4.015-1.344 4.015-3.094l-.001-10.186zm82.284-5.529v5.948h-24.023v3.31h20.865c0 2-.036 3.86-.02 6.084-6.869 0-14.574-.047-20.768-.047 0 1.375.035 2.172.035 3.569h23.517c0 2.519.107 4.519.107 6.815h-31.25v-25.68l31.537.001zm32.32 16.72V57.124c2.442 0 4.906.031 7.496-.039v25.877h-6.992l-21.066-17.2v17.237c-2.58 0-5.026.052-7.728-.009V57.334l7.688-.001c6.82 5.522 13.151 10.637 20.602 16.67zm-95.249.872c0 2.651.063 5.625.063 8.125-2.376 0-4.614.026-7.308-.075V57.063c.745 0 17.018-.035 24.593-.008 1.381.004 2.764-.02 4.101.514 4.14 1.653 6.493 5.352 5.979 9.492-.467 3.78-3.716 7.087-7.838 7.601-4.644.581-9.328.189-13.995.194-1.604 0-3.658.019-5.595.019zm.25-6.327c5.687 0 11.458.014 16.961-.009 1.822-.007 2.706-1.067 2.906-2.758-.472-1.985-1.772-2.589-3.649-2.552-3.647.071-7.298-.04-10.942.07-1.689.051-3.715.014-5.338.014-.001 1.46.062 3.312.062 5.235z"/><path fill="#8EC645" d="M330.48 82.832c-3.102 0-5.602-.02-8.408-.02V59.857c-5.193 0-10.568-.026-15.36-.026l.001-7.06h38.957l.001 6.899c-5.167 0-9.973.142-15.19.04l-.001 23.122z"/></g><g fill-rule="evenodd" clip-rule="evenodd"><path fill="#7FC055" d="M33.969 70.303l9.33-9.172c0-3.979-.011-8.028.004-12.077.011-3.107.609-3.689 3.777-3.699 4.19-.012 8.382-.021 12.572.001 2.499.013 3.33.835 3.353 3.338.034 3.572.054 7.146-.006 10.717-.021 1.332.352 2.354 1.33 3.285 2.188 2.085 4.295 4.255 6.427 6.396.64.644 1.281 1.202 2.289 1.194 3.639-.028 7.276-.011 10.845-.011 2.92-2.898 5.738-5.706 8.571-8.498.666-.656.663-1.463.663-2.293-.001-3.641-.019-7.282.013-10.923.021-2.464.746-3.193 3.214-3.209 4.397-.03 8.795-.029 13.191-.005 2.398.012 3.285.839 3.307 3.176.043 4.466.044 8.931.001 13.397-.021 2.308-.946 3.17-3.318 3.188-3.64.028-7.282.044-10.923-.011-1.256-.02-2.222.321-3.104 1.247a181.542 181.542 0 0 1-6.268 6.266c-.982.933-1.334 1.965-1.314 3.293.058 3.639.045 7.281.003 10.922-.027 2.359-.893 3.2-3.271 3.216-4.396.027-8.793.026-13.19.001-2.474-.014-3.218-.747-3.241-3.188-.033-3.641-.054-7.282.001-10.923.02-1.266-.362-2.203-1.285-3.084-2.284-2.181-4.504-4.432-6.701-6.701-.728-.752-1.52-1.123-2.554-1.042-.478.037-.962-.013-1.442.004-3.081.112-6.639-1.054-9.128.403-3.214 1.881-5.58 5.208-8.329 7.894-.731.714-.695 1.596-.696 2.489-.002 3.572.017 7.145-.013 10.718-.022 2.624-.831 3.413-3.48 3.423-4.328.018-8.656.023-12.984-.005-2.452-.016-3.186-.759-3.199-3.225-.024-4.467-.027-8.932.003-13.398.015-2.274.825-3.077 3.138-3.095 4.189-.034 8.378-.009 12.414-.009z"/><path fill="#017799" d="M18.417 30.821c.001-2.193-.043-4.388.015-6.58.053-2.022 1.035-3.039 3.062-3.063 4.456-.054 8.911-.053 13.366-.003 2.094.024 3.161 1.073 3.191 3.194.064 4.387.063 8.775.001 13.161-.032 2.219-1.104 3.29-3.317 3.319-4.387.06-8.775.063-13.16-.007-2.101-.033-3.103-1.125-3.148-3.235-.049-2.261-.011-4.524-.01-6.786zm0 74.247c0-2.192-.039-4.387.011-6.579.047-2.103 1.056-3.173 3.173-3.203 4.385-.062 8.772-.062 13.158-.005 2.199.027 3.266 1.107 3.296 3.335.059 4.385.063 8.771-.003 13.157-.032 2.106-1.12 3.145-3.215 3.164-4.454.045-8.91.05-13.363-.004-2.019-.024-2.992-1.043-3.043-3.079-.057-2.261-.014-4.524-.014-6.786zm24.897-74.902c0-2.126-.036-4.252.009-6.377.049-2.317.983-3.311 3.228-3.334 4.388-.045 8.778-.044 13.167-.004 2.118.018 3.226 1.03 3.26 3.125a408.27 408.27 0 0 1-.001 13.372c-.035 2.065-1.163 3.145-3.254 3.171a469.79 469.79 0 0 1-13.166-.002c-2.214-.032-3.187-1.101-3.232-3.368-.046-2.192-.011-4.388-.011-6.583zm24.918-.055c-.002-2.194-.053-4.391.011-6.583.06-2.034 1.048-3.05 3.062-3.073a608.49 608.49 0 0 1 13.375-.005c2.093.021 3.185 1.062 3.216 3.174.068 4.457.07 8.916-.003 13.373-.034 1.973-1.143 3.085-3.098 3.117-4.525.07-9.053.07-13.578-.004-1.842-.03-2.926-1.12-2.97-3.003-.054-2.331-.012-4.664-.015-6.996zm-15.368 59.92c-2.126-.002-4.254.048-6.378-.017-2.114-.064-3.13-1.078-3.153-3.216a578.78 578.78 0 0 1 .004-13.373c.023-1.972 1.093-3.062 3.077-3.091 4.457-.067 8.916-.065 13.373-.008 1.992.025 3.139 1.081 3.177 3.031.087 4.524.086 9.053.008 13.577-.036 2.049-1.188 3.042-3.318 3.087-2.263.049-4.527.012-6.79.01zm.205 24.924c-2.193-.003-4.388.038-6.581-.014-2.131-.051-3.132-1.032-3.157-3.192-.05-4.387-.048-8.775-.001-13.163.023-2.224 1.056-3.278 3.29-3.309a465.86 465.86 0 0 1 13.164.004c2.072.031 3.165 1.126 3.197 3.227.068 4.387.069 8.776.004 13.163-.034 2.226-1.124 3.234-3.334 3.277-2.193.042-4.388.008-6.582.007zm24.819.006c-2.126 0-4.254.035-6.379-.009-2.254-.047-3.248-1.017-3.272-3.297-.044-4.389-.047-8.779.007-13.168.025-2.095 1.088-3.183 3.184-3.212 4.388-.064 8.78-.062 13.168-.005 2.196.031 3.281 1.121 3.312 3.338a444.63 444.63 0 0 1-.009 13.168c-.035 2.105-1.133 3.128-3.221 3.174-2.262.048-4.527.011-6.79.011zm-9.666-59.653c.003-2.195-.037-4.392.014-6.586.051-2.283 1.027-3.319 3.25-3.344 4.391-.05 8.782-.05 13.174.003 2.106.024 3.203 1.068 3.236 3.168.072 4.458.074 8.92-.001 13.378-.036 2.07-1.166 3.127-3.272 3.153-4.391.054-8.782.06-13.174-.003-2.196-.031-3.171-1.113-3.219-3.389-.045-2.126-.01-4.253-.008-6.38zm34.689 58.941c-2.195-.001-4.392.043-6.585-.014-2.159-.055-3.139-1.013-3.163-3.186a562.57 562.57 0 0 1 .003-13.375c.024-1.991 1.071-3.075 3.058-3.107 4.458-.069 8.917-.043 13.375-.016 1.965.011 3.153 1.074 3.185 3.023.076 4.595.084 9.192-.016 13.785-.041 1.823-1.149 2.882-3.066 2.889-2.264.009-4.529.003-6.791.001zm.057-43.951c2.196-.003 4.392-.052 6.585.012 2.093.06 3.208 1.085 3.244 3.185.078 4.458.078 8.919-.006 13.375-.04 2.111-1.144 3.134-3.242 3.157-4.392.047-8.783.049-13.172-.004-2.149-.024-3.184-1.037-3.209-3.157a552.319 552.319 0 0 1-.004-13.377c.024-2.073 1.102-3.111 3.219-3.174 2.194-.066 4.391-.016 6.585-.017zm.007-49.868c2.194-.001 4.39-.039 6.583.009 2.107.047 3.198 1.033 3.236 3.155.078 4.456.082 8.915-.002 13.37-.04 2.091-1.156 3.139-3.26 3.167-4.388.058-8.778.058-13.166-.005-2.126-.031-3.176-1.088-3.202-3.186a557.062 557.062 0 0 1 0-13.372c.025-2.121 1.056-3.078 3.227-3.126 2.193-.05 4.389-.012 6.584-.012zM28.374 45.369c2.127 0 4.256-.042 6.382.012 2.13.054 3.245 1.046 3.282 3.128.078 4.458.077 8.921.005 13.381-.033 2.061-1.162 3.133-3.271 3.162-4.392.06-8.785.065-13.176-.006-2.119-.034-3.133-1.102-3.158-3.237-.05-4.391-.052-8.784 0-13.176.027-2.219 1.075-3.201 3.348-3.253 2.195-.051 4.392-.012 6.588-.011z"/></g></svg>