<svg xmlns="http://www.w3.org/2000/svg" role="img" viewBox="83.50 84.00 832.00 831.50"><title>OpenIO logo</title><path fill="#ff1e1e" d="M900 775c0 48.9-37.77 83.89-84.82 83.89s-84.83-35-84.83-83.89 37.78-83.9 84.83-83.9S900 726.11 900 775zm-33.6 0c0-31.06-20.63-54.23-51.22-54.23S764 744 764 775s20.63 54.23 51.23 54.23S866.4 806.06 866.4 775zm-192.57-81.11h32.22v162.23h-32.22zm-68.08 53.31c22.94 0 39.4 14.6 39.4 39.4v69.52H615v-61.88c0-13.44-8.58-19-18.08-19-8.81 0-16.68 4.87-22.48 12v68.84h-30.1V750h29.43v4.17c0 3.71-.47 8.34-.47 8.34a41.78 41.78 0 0132.45-15.31zm-79.21 64.66h-79c1.62 11.82 10.89 21.32 24.33 21.32 7.73 0 15.1-2.85 19.61-8.4l31.35 4.38c-10 20.22-29.08 29.74-51.42 29.74-31.75 0-55.62-23.4-55.62-55.85s23.4-55.85 55.15-55.85c29.2 0 55.63 19 55.63 63.5zm-79.73-20.17h47.51c-1.62-10.66-10.66-19.47-23.41-19.47s-21.78 8.12-24.1 19.47zM318.47 900h-30.12V750.25h30.12v5.1c0 5.1-.46 7.42-.46 8.58 5.1-9 17.61-16.46 33.61-16.46 29.2 0 51.44 23.41 51.44 55.86s-22.47 55.85-51.68 55.85c-15.06 0-27.58-7.18-32.91-16.22zm-.69-97c0 16.22 11.12 29.2 27.11 29.2s27.12-13 27.12-29.2c0-16.45-11.12-29-27.12-29s-27.11 12.6-27.11 29.05zm-48.13-28c0 48.9-37.78 83.89-84.83 83.89S100 823.91 100 775s37.77-83.9 84.82-83.9 84.83 35.01 84.83 83.9zm-33.6 0c0-31.06-20.63-54.23-51.23-54.23S133.6 744 133.6 775s20.63 54.23 51.22 54.23 51.23-23.17 51.23-54.23zM444 544.75a156.09 156.09 0 01-17.89-6.52 159.36 159.36 0 01-54.45-38.88q-22.79-25-35.57-58.85t-12.77-73.84q0-40 12.77-73.84T371.7 234a159.34 159.34 0 0154.45-38.87 152.4 152.4 0 0117.85-6.55v-79.14a263.81 263.81 0 00-133.46 69q-36.12 35-56.68 83.28t-20.52 104.94q0 56.64 20.56 104.94t56.68 83.28a263.74 263.74 0 00133.46 69zm193.81-38a193.82 193.82 0 0037.82-62.5c8.93-23.72 13.48-49.82 13.48-77.6s-4.55-53.87-13.48-77.59a193.82 193.82 0 00-37.82-62.5 170.76 170.76 0 00-59.16-41.84 178.38 178.38 0 00-23.45-8.12v34.92c3.46 1.18 6.88 2.46 10.21 3.89a137.46 137.46 0 0147.68 33.64 160.19 160.19 0 0131.24 51.79c7.52 19.94 11.34 42.08 11.34 65.81s-3.82 45.88-11.34 65.82a160 160 0 01-31.24 51.78 137.36 137.36 0 01-47.68 33.65c-3.33 1.43-6.75 2.71-10.21 3.89v34.92a178.38 178.38 0 0023.45-8.12 171 171 0 0059.16-41.84m117.4-248.53a262 262 0 00-58.78-86.32 271.31 271.31 0 00-141.2-71.9v34a237.71 237.71 0 01118 61.9c21.67 21 38.91 46.35 51.29 75.41s18.62 61.13 18.62 95.36S736.85 433 724.49 462a228.87 228.87 0 01-51.29 75.42 237 237 0 01-76.13 49.35 234.3 234.3 0 01-41.84 12.54v34a271.25 271.25 0 00141.24-71.92 262.08 262.08 0 0058.78-86.33c14.14-33.2 21.3-69.69 21.3-108.42s-7.16-75.23-21.3-108.44"/></svg>