<svg xmlns="http://www.w3.org/2000/svg" role="img" viewBox="3.50 4.50 494.00 167.50"><title>Open Service Broker API logo</title><g fill-rule="evenodd" clip-rule="evenodd"><path fill="#63863D" d="M38.319 57.053c-5.827-.021-10.4-4.587-10.313-10.369.074-4.908 3.515-10.18 10.44-10.348 5.593-.136 10.377 4.857 10.331 10.475-.05 6.065-5.25 10.564-10.458 10.242zm17.705 80.226c-.028 5.763-4.768 10.454-10.46 10.354-5.567-.099-10.221-4.772-10.284-10.331-.065-5.653 4.729-10.445 10.41-10.495 6.159-.053 10.788 5.689 10.334 10.472zm72.508-87.487c-5.698-.015-10.431-4.811-10.366-10.504.063-5.533 4.779-10.254 10.301-10.314 5.675-.061 10.472 4.701 10.479 10.4.005 5.764-4.663 10.434-10.414 10.418z"/><path fill="#8EC642" d="M81.912 13.983c5.743-.182 10.315 4.717 10.431 10.341.115 5.564-4.798 10.469-10.359 10.484-5.593.015-10.371-4.766-10.426-10.43-.054-5.685 4.623-10.381 10.354-10.395zM23.228 83.196c5.667-.279 10.521 4.402 10.521 10.196 0 6.009-4.192 10.263-10.233 10.56-5.626.276-10.393-4.626-10.501-10.286-.122-6.316 5.466-10.812 10.213-10.47z"/><path fill="#63863D" d="M135.948 119.56c5.878.012 10.295 4.508 10.243 10.425-.049 5.629-4.648 10.454-10.18 10.303-5.95-.161-10.426-4.314-10.466-10.402-.045-6.866 5.774-10.718 10.403-10.326z"/><path fill="#8EC642" d="M102.601 152.152c.416 5.07-4.132 10.467-10.183 10.473-5.735.004-10.612-4.435-10.479-10.252.149-6.481 4.51-10.5 10.538-10.492 5.767.007 10.294 4.837 10.124 10.271zm58.54-69.105c.352 5.961-5.116 10.451-10.242 10.442-5.288-.01-10.195-4.707-10.293-10.182-.089-4.99 3.637-10.518 10.184-10.607 6.74-.092 10.777 5.621 10.351 10.347z"/><path fill="#4D4D4E" d="M185.848 99.335c3.682 0 7.148-.068 10.61.018 3.932.097 7.106 2.268 8.059 5.463 1.02 3.419-.079 7.2-3.23 9.12-.251.153-.475.354-.75.562 4.875 2.512 6.558 6.409 4.633 10.738-1.432 3.221-4.203 4.798-7.529 5.021-3.84.258-7.712.06-11.794.06l.001-30.982zm2.086 29.15c2.149 0 4.016-.004 5.883.002 1.683.005 3.361.046 5.006-.466 2.987-.928 4.758-3.363 4.631-6.457-.114-2.782-1.913-4.875-4.893-5.55-3.502-.794-7.029-.411-10.627-.396v12.867zm.135-27.166v12.333c2.663 0 5.138.002 7.614-.001.397-.001.799.008 1.193-.035 3.388-.373 5.451-2.561 5.556-5.877.111-3.526-1.591-5.596-5.083-6.17-3.05-.502-6.104-.295-9.28-.25zm83.417 13.642c-.032 8.818-7.068 15.855-15.896 15.897-8.862.042-16.125-7.262-16.024-16.113.1-8.788 7.235-15.917 15.941-15.929 8.882-.011 16.013 7.193 15.979 16.145zm-15.993 13.712c7.769.007 13.819-5.975 13.87-13.713.051-7.853-6.098-14.004-13.95-13.956-7.671.047-13.756 6.19-13.75 13.885.005 7.678 6.124 13.775 13.83 13.784z"/><path fill="#95C94D" d="M215.372 61.892c-.022 8.958-7.114 15.949-16.13 15.909-7.973-.036-15.841-6.316-15.833-15.984.008-9.294 7.145-16.021 16.048-16.076 8.59-.053 16.085 7.013 15.915 16.151zm-2.23.012c.469-7.787-6.839-14.076-13.541-14.024-7.601.06-14.055 6.09-14.038 13.921.017 7.737 6.281 13.755 13.785 13.806 7.451.049 14.023-6.114 13.794-13.703zm170.114 3.333l6.315 11.47c-.72.816-1.499.534-2.442.423l-6.443-11.668h-9.396c-.486 3.805.027 7.653-.279 11.274-.686.656-1.254.552-2.024.286V46.297c4.433 0 8.793-.247 13.111.074 3.866.286 7.33 3.79 8.057 7.384.78 3.865-.902 7.806-4.329 10.053-.733.479-1.531.856-2.57 1.429zm-11.979-1.771c2.434 0 4.701-.035 6.967.012 1.502.032 2.968-.088 4.409-.518 3.477-1.035 5.563-4.197 5.263-7.999-.241-3.052-3.02-6.136-6.137-6.33-3.439-.214-6.902-.049-10.502-.049v14.884z"/><path fill="#4D4D4E" d="M330.81 99.351c4.381 0 8.458-.129 12.523.036 4.034.165 7.653 3.318 8.598 7.135.942 3.812-.645 7.883-4.016 10.168-.817.554-1.723.979-2.806 1.585l6.367 11.547c-.756.812-1.453.441-2.289.553l-6.566-11.792h-9.641v11.089c-.789.857-1.394.838-2.171.257l.001-30.578zm2.276 17.197c2.413 0 4.486-.023 6.559.007 1.688.024 3.364.004 4.995-.501 3.372-1.042 5.402-4.06 5.199-7.726-.188-3.38-2.637-6.204-6.092-6.633-3.505-.436-7.039-.262-10.661-.084v14.937zM213.224 99.35c4.385 0 8.462-.128 12.527.037 4.027.162 7.659 3.325 8.6 7.132.94 3.808-.652 7.896-4.012 10.17-.817.553-1.724.976-2.81 1.581l6.368 11.547c-.761.816-1.457.447-2.272.553l-6.59-11.79h-9.633v11.104c-.793.84-1.399.828-2.178.238V99.35zm2.306 17.195c3.835-.161 7.493.458 11.091-.42 3.779-.921 5.912-4.015 5.631-7.95-.247-3.465-2.865-6.274-6.531-6.524-3.332-.227-6.692-.048-10.191-.048v14.942z"/><path fill="#8EC642" d="M276.854 50.717v26.024c-.546.644-1.006.508-1.641.248V45.946c1.719-.57 2 .897 2.572 1.632 4.882 6.26 9.686 12.582 14.514 18.883 1.62 2.115 3.247 4.225 5.316 6.917V46.904c.735-.797 1.189-.625 1.798-.446v31.243c-1.627-.027-2.163-1.259-2.829-2.123-4.61-5.969-9.146-11.994-13.713-17.998-1.786-2.349-3.588-4.688-5.383-7.03l-.634.167z"/><path fill="#4D4D4E" d="M399.923 130.063c-.932.33-1.41.384-2.064-.035V99.407c3.964 0 7.833-.257 11.651.068 4.361.371 7.994 4.557 8.256 8.878.308 5.086-2.646 9.45-7.243 10.638-1.545.399-3.129.502-4.729.466-1.87-.043-3.74-.01-5.871-.01v10.616zm.107-12.836c2.769 0 5.343.096 7.906-.021 4.392-.2 7.64-3.621 7.669-7.914.028-4.333-3.169-7.559-7.74-7.7-2.559-.08-5.123-.015-7.835-.015v15.65z"/><path fill="#95C94D" d="M471.635 48.559v11.426c4.877.509 9.714-.31 14.365.444.254 1.73-.55 1.911-1.558 1.908-3.082-.008-6.165-.002-9.246-.001h-3.495V75.37h15.891c.733.762.433 1.195.48 1.766h-18.729V46.709c2.003-.607 14.845-.76 18.554-.218.315.439.352.893-.121 1.673-5.172.668-10.613-.087-16.141.395z"/><path fill="#4D4D4E" d="M392.934 129.858c-.85.64-1.325.529-1.982.339-1.62-2.449-2.38-5.471-3.902-8.187h-16.755l-3.521 7.969c-.749.469-1.312.479-1.808.276-.425-.237-.37-.587-.267-.825 2.135-4.906 4.288-9.805 6.441-14.702 2.073-4.716 4.137-9.437 6.241-14.14.307-.686.38-1.597 1.73-1.957 2.655 4.923 4.617 10.269 6.953 15.43 2.366 5.222 4.58 10.512 6.87 15.797zm-6.646-9.889c-2.598-5.851-4.712-11.609-7.582-17.511-2.521 5.861-4.83 11.224-7.128 16.591-.111.259-.122.56-.196.92h14.906z"/><path fill="#95C94D" d="M344.949 48.412v11.322c1.005.712 2.129.37 3.174.387 2.982.051 5.965-.01 8.947.03 1.546.021 1.546.077 2.143 2.046-4.763.337-9.476-.019-14.274.215v12.874h15.657c.902.572.951 1.021.669 1.762h-18.626v-30.61h18.568c.577 1.219.015 1.827-1.021 1.93-1.28.127-2.582.043-3.875.044h-11.362z"/><path fill="#4D4D4E" d="M280.836 129.957c-.974.484-1.443.461-2.077.146V99.679c.621-.496 1.17-.39 2.027.044v13.745l14.907-13.883c.926-.407 1.678-.303 2.897.085l-15.702 14.708 15.915 15.392c-.908.881-1.694.565-2.649.501l-15.318-14.764v14.45z"/><path fill="#8EC642" d="M105.4 40.333c-.452 4.673-3.124 7.287-7.627 7.468-3.779.151-7.023-3.417-7.079-7.358-.055-3.907 3.46-7.364 7.437-7.317 3.838.046 7.266 3.445 7.269 7.207z"/><path fill="#63863D" d="M128.492 69.478c-4-.036-7.396-3.563-7.255-7.536.135-3.831 3.634-7.192 7.411-7.119 3.97.077 7.36 3.623 7.244 7.578-.114 3.865-3.509 7.112-7.4 7.077z"/><path fill="#95C94D" d="M460.968 71.848c.813.191 1.231.546 1.365 1.188-4.671 5.888-15.021 6.389-21.39.883-7.314-6.321-6.851-17.125-1.204-23.121 6.012-6.385 16.79-6.907 22.597-.572-.057.804-.54 1.211-1.287 1.367-8.121-5.262-14.755-4.748-20.153 1.431-3.941 4.512-4.177 13.009.444 18.055 5.059 5.523 11.898 5.923 19.628.769z"/><path fill="#63863D" d="M45.628 107.135c4.045-.024 7.383 3.316 7.361 7.367-.021 3.913-3.216 7.149-7.187 7.28-3.847.127-7.372-3.419-7.383-7.427-.012-3.873 3.308-7.196 7.209-7.22zm15.651-67.56c3.915.063 7.166 3.355 7.145 7.234-.021 3.958-3.476 7.256-7.526 7.185-3.884-.069-7.205-3.42-7.133-7.27.079-4.193 3.784-7.537 7.514-7.149zm52.063 97.464c-4.179.05-7.201-2.811-7.296-6.907-.1-4.289 2.865-7.466 7.022-7.521 4.104-.055 7.4 3.18 7.39 7.254-.01 4.025-3.086 7.126-7.116 7.174z"/><path fill="#8EC642" d="M69.096 136.018c.037-3.889 3.34-7.397 7.152-7.229 4.447.196 7.329 3.572 7.239 7.484-.09 3.912-3.313 7.216-7.201 7.189-4.555-.027-7.611-4.123-7.19-7.444zm65.777-43.939c4.256.009 7.114 2.819 7.141 7.023.028 4.291-2.99 7.395-7.187 7.391a7.182 7.182 0 0 1-7.195-7.14c-.047-4.256 2.964-7.282 7.241-7.274z"/><path fill="#4D4D4E" d="M304.595 99.413h18.177c.588.412.613.87.325 1.708h-16.274c-.339 4.142-.138 7.966-.139 11.999 4.785.631 9.524-.183 14.039.43.419.665.399 1.127-.031 1.839h-13.881v13.167h16.24c.449 1.157.164 1.711-.71 1.789-.985.086-1.984.037-2.977.037-4.857.003-9.714.002-14.52.002-.619-2.238-.806-26.231-.249-30.971z"/><path fill="#8EC642" d="M46.541 77.529c-.042 4.215-2.895 6.863-7.147 7.031-4.491.177-7.439-4.077-7.27-7.332.204-3.901 3.384-7.088 7.299-7.116 4.123-.03 7.16 3.135 7.118 7.417z"/><path fill="#95C94D" d="M224.948 66.404c-.494 3.71.184 7.191-.402 10.381-.668.516-1.147.501-1.854.294V46.225c4.006.061 8.081-.514 12.036.289 5.414 1.1 7.998 5.764 7.871 10.181-.151 5.292-4.535 9.442-9.866 9.689-2.552.118-5.113.02-7.785.02zm-.39-2.301c3.064 0 5.926.16 8.765-.04 3.65-.256 6.851-3.849 7.08-7.61.21-3.453-2.55-7.258-6.069-7.747-3.188-.442-6.45-.355-9.776.01v15.387zm109.423-15.904c.008.95-.351 1.362-1.138 1.674-2.397-1.044-4.895-2.251-7.794-1.949-1.961.205-3.657.801-4.976 2.319-1.928 2.217-1.915 4.789.062 6.963 1.312 1.443 3.02 2.2 4.823 2.807 2.254.758 4.467 1.623 6.535 2.815 2.772 1.598 4.577 3.844 4.388 7.191-.188 3.315-2.145 5.417-5.071 6.741-4.779 2.16-10.585.884-14.022-3.1-.063-.545.112-.958.475-1.098.608-.216.983-.054 1.293.191 2.502 1.983 5.286 3.021 8.534 2.851 2.016-.107 3.632-.878 4.971-2.325 2.013-2.174 2.037-4.71.082-6.938-1.568-1.788-3.71-2.619-5.849-3.402-1.955-.716-3.911-1.409-5.735-2.426-2.77-1.543-4.271-3.978-4.094-7.064.174-3.047 1.793-5.389 4.719-6.676 4.617-2.03 8.813-1.026 12.797 1.426zm73.095 29.645c-5.132-10.309-9.578-20.713-14.008-30.99.684-.769 1.239-.69 2.139-.299l11.882 27.288 11.998-27.259c.788-.462 1.426-.506 2.282.142-4.63 10.35-9.195 20.781-14.293 31.118z"/><path fill="#8EC642" d="M250.848 48.03v12.369l14.479.116c.014 1.979-1.105 1.801-2.074 1.804-3.081.009-6.163.003-9.244.003h-3.136v13.029h15.723c.898.568.765 1.053.585 1.722h-18.459c0-10.137-.002-20.306.002-30.662h18.25c.507.391.378.857.162 1.618l-16.288.001z"/><path fill="#95C94D" d="M428.222 77.02c-.697.261-1.18.299-1.887-.044v-30.36c.508-.533 1.082-.403 1.887-.165V77.02z"/><path fill="#4D4D4E" d="M423.847 99.762c.922-.512 1.405-.438 2.085-.248v30.449c-.482.584-1.055.379-2.062.229-.044-10.158-.01-20.314-.023-30.43z"/><path fill="#63863D" d="M97.49 133.981a4.144 4.144 0 0 1-4.149-4.171c.007-2.249 1.971-4.179 4.223-4.15 2.212.027 4.225 2.056 4.191 4.224-.034 2.221-1.999 4.109-4.265 4.097zm31.03-51.94a4.163 4.163 0 0 1-4.13-4.2c.025-2.266 1.979-4.166 4.245-4.126 2.216.039 4.222 2.077 4.173 4.241-.05 2.226-2.025 4.106-4.288 4.085zm-82.747 20.853c-2.351.018-4.101-1.727-4.137-4.124-.037-2.404 1.644-4.159 4.028-4.202 2.213-.04 4.224 1.897 4.26 4.104.035 2.184-1.95 4.205-4.151 4.222z"/><path fill="#8EC642" d="M69.213 125.073c-.014 2.442-1.604 4.068-4.021 4.112-2.155.039-4.191-1.886-4.275-4.043-.085-2.211 2.072-4.329 4.369-4.289 2.347.043 3.942 1.756 3.927 4.22z"/><path fill="#63863D" d="M80.974 46.817c-.073 2.242-2.05 4.166-4.247 4.13-2.335-.037-4.071-1.848-4.047-4.224.024-2.4 1.757-4.111 4.147-4.091 2.231.017 4.218 2.023 4.147 4.185z"/><path fill="#8EC642" d="M46.583 67.764c-.23-.974-.177-1.949-.055-2.854.453-1.122 1.227-1.849 2.089-2.375 3.2-1.043 5.31.644 5.901 2.477.648 2.012-.314 4.16-2.357 5.113-2.101.978-3.623.333-5.578-2.361zm66.688-16.193c.002 2.209-1.963 4.174-4.171 4.168-2.218-.006-4.151-1.963-4.141-4.193.011-2.401 1.737-4.125 4.134-4.133 2.23-.005 4.175 1.931 4.178 4.158zm10.404 54.459c2.458.452 3.916 1.706 4.314 4.103-.178 1.702-.868 3.149-2.623 4.027-.972.286-2.045.226-3.123.043-.934-.419-1.608-1.119-2.156-1.96-.687-4.011-.252-4.782 3.588-6.213z"/></g></svg>