<?xml version="1.0" encoding="utf-8"?>
<!-- Generator: Adobe Illustrator 21.1.0, SVG Export Plug-In . SVG Version: 6.00 Build 0)  -->
<svg version="1.1" id="Layer_1" xmlns="http://www.w3.org/2000/svg" xmlns:xlink="http://www.w3.org/1999/xlink" x="0px" y="0px"
	 viewBox="0 0 360 85" enable-background="new 0 0 360 85" xml:space="preserve">
<g>
	<g>
		<path d="M36.3,55.5c-3,3.1-7.4,4.7-13.2,4.7c-5.8,0-10.2-1.6-13.2-4.7c-4.1-3.8-6.1-9.4-6.1-16.6c0-7.4,2-12.9,6.1-16.6
			c3-3.1,7.4-4.7,13.2-4.7c5.8,0,10.2,1.6,13.2,4.7c4.1,3.7,6.1,9.2,6.1,16.6C42.4,46.2,40.4,51.7,36.3,55.5z M31,49.4
			c2-2.5,2.9-6,2.9-10.5c0-4.5-1-8-2.9-10.5c-2-2.5-4.6-3.7-7.9-3.7s-6,1.2-8,3.7c-2,2.5-3,6-3,10.5s1,8,3,10.5c2,2.5,4.6,3.7,8,3.7
			S29.1,51.9,31,49.4z"/>
		<path d="M73.2,32.5c2.4,2.6,3.6,6.3,3.6,11.3c0,5.2-1.2,9.2-3.6,12c-2.4,2.8-5.4,4.1-9.2,4.1c-2.4,0-4.4-0.6-5.9-1.8
			c-0.9-0.7-1.7-1.6-2.5-2.9v15.5H48V29.4h7.5v4.4c0.8-1.3,1.7-2.3,2.7-3.1c1.7-1.3,3.8-2,6.2-2C67.8,28.7,70.8,30,73.2,32.5z
			 M67.2,38.1c-1.1-1.8-2.8-2.6-5.1-2.6c-2.9,0-4.8,1.3-5.9,4c-0.6,1.4-0.8,3.2-0.8,5.4c0,3.5,0.9,5.9,2.8,7.3
			c1.1,0.8,2.4,1.2,3.9,1.2c2.2,0,3.9-0.8,5-2.5c1.1-1.7,1.7-3.9,1.7-6.7C68.8,41.9,68.3,39.9,67.2,38.1z"/>
		<path d="M101.8,30c2.1,0.9,3.8,2.4,5.1,4.4c1.2,1.8,2,3.8,2.4,6.2c0.2,1.4,0.3,3.3,0.3,5.9H87.8c0.1,3,1.2,5.1,3.1,6.3
			c1.2,0.7,2.6,1.1,4.3,1.1c1.8,0,3.2-0.5,4.3-1.4c0.6-0.5,1.1-1.2,1.6-2h7.9c-0.2,1.8-1.2,3.6-2.9,5.4c-2.7,2.9-6.4,4.3-11.2,4.3
			c-4,0-7.5-1.2-10.5-3.7S80,50.1,80,44.6c0-5.2,1.4-9.1,4.1-11.9c2.7-2.8,6.3-4.1,10.6-4.1C97.3,28.6,99.7,29,101.8,30z M90.1,36.7
			c-1.1,1.1-1.8,2.7-2.1,4.6h13.4c-0.1-2.1-0.8-3.6-2.1-4.7c-1.2-1.1-2.8-1.6-4.6-1.6C92.8,35,91.2,35.5,90.1,36.7z"/>
		<path d="M137.5,31.1c1.9,1.6,2.9,4.3,2.9,8v20.1h-8V41c0-1.6-0.2-2.8-0.6-3.6c-0.8-1.5-2.2-2.3-4.3-2.3c-2.6,0-4.4,1.1-5.4,3.4
			c-0.5,1.2-0.8,2.7-0.8,4.5v16.1h-7.8V29.4h7.5v4.3c1-1.5,1.9-2.6,2.8-3.3c1.6-1.2,3.6-1.8,6.1-1.8C133,28.6,135.5,29.4,137.5,31.1
			z"/>
		<path d="M148.3,18.9h8.4v33h20.1v7.2h-28.5V18.9z"/>
		<path d="M193.6,41c1.4-0.2,2.5-0.4,3.1-0.7c1.1-0.5,1.7-1.2,1.7-2.2c0-1.2-0.4-2.1-1.3-2.5c-0.9-0.5-2.1-0.7-3.8-0.7
			c-1.9,0-3.2,0.5-4,1.4c-0.6,0.7-0.9,1.6-1.1,2.7h-7.5c0.2-2.6,0.9-4.7,2.2-6.4c2.1-2.6,5.6-3.9,10.6-3.9c3.3,0,6.2,0.6,8.7,1.9
			c2.5,1.3,3.8,3.7,3.8,7.3v13.7c0,0.9,0,2.1,0.1,3.4c0.1,1,0.2,1.7,0.5,2.1c0.3,0.4,0.6,0.7,1.1,0.9v1.1h-8.5
			c-0.2-0.6-0.4-1.2-0.5-1.7c-0.1-0.5-0.2-1.1-0.2-1.8c-1.1,1.2-2.3,2.2-3.7,3c-1.7,1-3.6,1.4-5.7,1.4c-2.7,0-5-0.8-6.7-2.3
			c-1.8-1.5-2.7-3.7-2.7-6.5c0-3.7,1.4-6.3,4.3-7.9c1.6-0.9,3.9-1.5,6.9-1.9L193.6,41z M198.4,44.6c-0.5,0.3-1,0.6-1.5,0.8
			c-0.5,0.2-1.2,0.4-2.1,0.5l-1.8,0.3c-1.7,0.3-2.9,0.6-3.6,1.1c-1.2,0.7-1.8,1.8-1.8,3.3c0,1.3,0.4,2.3,1.1,2.9
			c0.7,0.6,1.7,0.9,2.7,0.9c1.7,0,3.3-0.5,4.7-1.5c1.4-1,2.2-2.8,2.2-5.4V44.6z"/>
		<path d="M250.1,29.5c1.3,0.5,2.4,1.4,3.5,2.7c0.8,1,1.4,2.3,1.7,3.8c0.2,1,0.3,2.5,0.3,4.4l-0.1,18.8h-8v-19
			c0-1.1-0.2-2.1-0.5-2.8c-0.7-1.4-2-2.1-3.8-2.1c-2.1,0-3.6,0.9-4.5,2.7c-0.4,0.9-0.6,2.1-0.6,3.4v17.7h-7.8V41.4
			c0-1.8-0.2-3-0.5-3.9c-0.7-1.4-1.9-2.2-3.9-2.2c-2.2,0-3.7,0.7-4.5,2.2c-0.4,0.8-0.6,2-0.6,3.7v17.9h-7.9V29.4h7.6v4.3
			c1-1.5,1.9-2.6,2.7-3.3c1.5-1.2,3.5-1.7,5.9-1.7c2.3,0,4.1,0.5,5.5,1.5c1.1,0.9,2,2.1,2.6,3.6c1-1.7,2.3-3,3.8-3.9
			c1.6-0.8,3.4-1.2,5.4-1.2C247.5,28.7,248.8,29,250.1,29.5z"/>
		<path d="M288.1,32.9c2.2,2.8,3.3,6.5,3.3,10.9c0,4.6-1.1,8.5-3.3,11.5s-5.3,4.6-9.2,4.6c-2.5,0-4.5-0.5-6-1.5
			c-0.9-0.6-1.9-1.6-2.9-3.1v3.7h-7.7V18.9h7.8v14.3c1-1.4,2.1-2.4,3.3-3.2c1.4-0.9,3.2-1.4,5.4-1.4
			C282.8,28.7,285.9,30.1,288.1,32.9z M281.6,51.1c1.1-1.6,1.7-3.8,1.7-6.4c0-2.1-0.3-3.9-0.8-5.2c-1-2.6-3-3.9-5.8-3.9
			c-2.8,0-4.8,1.3-5.9,3.9c-0.6,1.4-0.8,3.1-0.8,5.3c0,2.5,0.6,4.7,1.7,6.3c1.1,1.7,2.9,2.5,5.2,2.5
			C278.9,53.5,280.5,52.7,281.6,51.1z"/>
		<path d="M312.6,29.8c1.4,0.8,2.5,1.9,3.4,3.3V18.9h7.9v40.2h-7.6V55c-1.1,1.8-2.4,3.1-3.8,3.9c-1.4,0.8-3.2,1.2-5.3,1.2
			c-3.5,0-6.4-1.4-8.8-4.2c-2.4-2.8-3.6-6.4-3.6-10.8c0-5.1,1.2-9.1,3.5-12c2.3-2.9,5.5-4.4,9.4-4.4C309.6,28.6,311.2,29,312.6,29.8
			z M314.5,51c1.1-1.6,1.7-3.8,1.7-6.4c0-3.6-0.9-6.2-2.8-7.8c-1.1-0.9-2.4-1.4-3.9-1.4c-2.3,0-3.9,0.9-5,2.6
			c-1.1,1.7-1.6,3.9-1.6,6.4c0,2.8,0.5,4.9,1.6,6.6c1.1,1.6,2.7,2.5,4.9,2.5C311.7,53.5,313.4,52.7,314.5,51z"/>
		<path d="M342.8,41c1.4-0.2,2.5-0.4,3.1-0.7c1.1-0.5,1.7-1.2,1.7-2.2c0-1.2-0.4-2.1-1.3-2.5c-0.9-0.5-2.1-0.7-3.8-0.7
			c-1.9,0-3.2,0.5-4,1.4c-0.6,0.7-0.9,1.6-1.1,2.7H330c0.2-2.6,0.9-4.7,2.2-6.4c2.1-2.6,5.6-3.9,10.6-3.9c3.3,0,6.2,0.6,8.7,1.9
			c2.5,1.3,3.8,3.7,3.8,7.3v13.7c0,0.9,0,2.1,0.1,3.4c0.1,1,0.2,1.7,0.5,2.1c0.3,0.4,0.6,0.7,1.1,0.9v1.1h-8.5
			c-0.2-0.6-0.4-1.2-0.5-1.7c-0.1-0.5-0.2-1.1-0.2-1.8c-1.1,1.2-2.3,2.2-3.7,3c-1.7,1-3.6,1.4-5.7,1.4c-2.7,0-5-0.8-6.7-2.3
			c-1.8-1.5-2.7-3.7-2.7-6.5c0-3.7,1.4-6.3,4.3-7.9c1.6-0.9,3.9-1.5,6.9-1.9L342.8,41z M347.6,44.6c-0.5,0.3-1,0.6-1.5,0.8
			c-0.5,0.2-1.2,0.4-2.1,0.5l-1.8,0.3c-1.7,0.3-2.9,0.6-3.6,1.1c-1.2,0.7-1.8,1.8-1.8,3.3c0,1.3,0.4,2.3,1.1,2.9
			c0.7,0.6,1.7,0.9,2.7,0.9c1.7,0,3.3-0.5,4.7-1.5c1.4-1,2.2-2.8,2.2-5.4V44.6z"/>
	</g>
</g>
</svg>
