<?xml version="1.0" encoding="UTF-8" standalone="yes"?>
<svg version="1.1" id="Layer_1" xmlns="http://www.w3.org/2000/svg" xmlns:xlink="http://www.w3.org/1999/xlink" x="0px" y="0px" viewBox="8 10 374 79" style="enable-background:new 0 0 391 99.6;" xml:space="preserve">
  <style type="text/css">
	.st0{fill:#8CAFC4;}
	.st1{fill:#1777BB;}
	.st2{fill:#EB9B23;}
	.st3{fill:url(#symbol_1_);}
	.st4{fill:url(#SVGID_1_);}
	.st5{fill:url(#SVGID_2_);}
	.st6{fill:url(#SVGID_3_);}
	.st7{fill:url(#SVGID_4_);}
	.st8{fill:url(#SVGID_5_);}
	.st9{fill:url(#SVGID_6_);}
	.st10{fill:url(#SVGID_7_);}
	.st11{fill:none;}
	.st12{fill:#ED262A;}
	.st13{fill:#868689;}
	.st14{fill:#1E7CA2;}
	.st15{fill:#8FC647;}
	.st16{fill:#94C94F;}
	.st17{fill:#92C74B;}
	.st18{fill:#2781A5;}
</style>
  <g>
    <g>
      <path class="st11" d="M260.4,37.2c3.2,0,6.4,0,9.6,0C266.8,37.3,263.6,37.2,260.4,37.2c-4.1,0-8.2,0-12.3,0&#xA;&#x9;&#x9;&#x9;C252.2,37.3,256.3,37.2,260.4,37.2z"/>
      <path class="st11" d="M294.3,62.4c-2.4,0-4.8,0-7.2,0C289.5,62.4,291.9,62.4,294.3,62.4c2,0,4.1,0,6.1,0&#xA;&#x9;&#x9;&#x9;C298.4,62.4,296.4,62.4,294.3,62.4z"/>
      <path class="st11" d="M183.4,61.2c1.8,1.1,5.1,1.1,10.8,1.1c1.2,0,2.3,0,3.5,0c-1.2,0-2.3,0-3.5,0&#xA;&#x9;&#x9;&#x9;C188.5,62.4,185.2,62.4,183.4,61.2z"/>
      <path class="st16" d="M380.3,47.9c2.1-6.3-0.9-10.5-7.7-10.6c-6.1-0.1-12.3,0.1-18.4-0.1c-2.8-0.1-4.1,0.8-4,3.7&#xA;&#x9;&#x9;&#x9;c0.1,6,0.1,11.9,0,17.9c-0.1,3.1,1.4,3.8,4.1,3.7c3.4-0.1,6.8,0,10.2,0c3.6,0,7.2,0.2,10.7,0c6.6-0.4,9.4-5.9,5.8-11.5&#xA;&#x9;&#x9;&#x9;C380.3,49.9,379.7,49.4,380.3,47.9z M358.9,43.2c2.2,0,4.4,0,6.6,0c0,0,0,0,0,0c2.2,0,4.4-0.1,6.6,0c1.3,0.1,2.2,0.9,2.2,2.3&#xA;&#x9;&#x9;&#x9;c-0.1,1.2-1.1,1.8-2.1,1.8c-4.4,0.1-8.8,0.1-13.2,0.1c-1.6,0-1.9-1-1.9-2.4C357.2,43.9,357.7,43.2,358.9,43.2z M373.5,56.6&#xA;&#x9;&#x9;&#x9;c-2.5,0.1-5.1,0-7.6,0c0,0,0,0,0,0c-2.2,0-4.4,0-6.6,0c-1.4,0-2.1-0.7-2.1-2.2c0-1.5,0.6-2.2,2.1-2.2c4.7,0,9.5,0,14.2,0&#xA;&#x9;&#x9;&#x9;c1.3,0,2.3,0.7,2.4,2.1C375.8,56.1,374.7,56.6,373.5,56.6z"/>
      <path class="st17" d="M337.9,37.3c-4.4-0.2-8.8,0-13.3,0c-11.1,0-11.2,0-11.1,11.3c0,4.4,0.1,13.7,0.1,13.7s9.1,0.1,13.2,0.1&#xA;&#x9;&#x9;&#x9;c4.6,0,8.4,0.1,12.1,0c5.3-0.3,8.4-3.5,8.6-8.8c0.1-2.2,0.1-4.4,0-6.6C347.2,41,343.8,37.5,337.9,37.3z M340.7,51.3&#xA;&#x9;&#x9;&#x9;c0.4,3.1-0.4,5.4-4.3,5.2c-0.5,0-1.1,0-1.7-0.1c-1.7,0-3.3,0-5,0c-0.2,0-0.3,0-0.5,0c-9.4,0-9.3,0-9.2-9.5c0-2.8,0.7-4,3.7-3.8&#xA;&#x9;&#x9;&#x9;c4.2,0.2,8.5-0.1,12.7,0.1C342.5,43.5,340.3,48.2,340.7,51.3z"/>
      <path class="st17" d="M300.7,47.1c-4.3,0-8.5,0-12.8-0.1c-1.1,0-2.1-0.5-2.2-1.7c-0.1-1.2,0.8-2,1.9-2c5,0.2,10.2-1.4,15,0.9&#xA;&#x9;&#x9;&#x9;c2.2,1,4.9,2.1,6.2-0.1c1.2-2.1-1.2-4-3.1-5.2c-1.1-0.7-2.4-1.6-3.7-1.7c-5.3-0.2-10.6-0.4-15.8,0c-4.7,0.4-8.3,4.7-7.8,8.6&#xA;&#x9;&#x9;&#x9;c0.4,3.9,3.8,6.4,9,6.5c4.4,0.1,8.9,0,13.3,0c1.4,0,2.9,0.2,3.1,2c0.1,1.9-1.4,2.3-2.8,2.1c-5.7-0.7-11.8,1.8-17.3-1.8&#xA;&#x9;&#x9;&#x9;c-1.2-0.8-3.8-1-4.8,0.4c-1.1,1.5,0.4,3.2,1.6,4.4c1.9,1.9,4.1,3,6.9,2.9c2.4,0,4.8,0,7.2,0c2,0,4.1,0,6.1,0c6-0.1,10-3.3,9.9-7.9&#xA;&#x9;&#x9;&#x9;C310.4,49.9,306.8,47.2,300.7,47.1z"/>
      <path class="st18" d="M138,37.3c-5.6-0.2-11.2-0.2-16.8,0c-5.4,0.2-8.7,3.7-8.8,9.1c-0.4,12.7-0.2,16.7,15.6,15.9c0.5,0,1,0,1.5,0&#xA;&#x9;&#x9;&#x9;c19.3,1.1,17.4-4.5,17.2-16.3C146.6,41,143.1,37.5,138,37.3z M139.8,54.4c-0.6,1.8-2,2.2-3.6,2.2c-4.4,0-8.8,0-13.3,0&#xA;&#x9;&#x9;&#x9;c-2.5,0-3.6-1.1-3.9-3.6c-0.6-5-0.6-7.4,1.4-8.6c0.3-0.2,0.7-0.4,1.2-0.5c0.3-0.1,0.6-0.2,1-0.2c0.4-0.1,0.8-0.1,1.2-0.2&#xA;&#x9;&#x9;&#x9;c0.4,0,0.9-0.1,1.4-0.1c0.3,0,0.5,0,0.8,0c1.1,0,2.3,0,3.7,0c0.9,0,1.7,0,2.6,0C139.4,43.3,142.3,47.6,139.8,54.4z"/>
      <path class="st18" d="M203.3,56.7c-4.1,0-8.2,0.1-12.3,0c-1.2,0-3.3,0.6-3.4-1.2c-0.1-2.3,2.2-1.5,3.6-1.5c3.4-0.1,6.8-0.1,10.2,0&#xA;&#x9;&#x9;&#x9;c2,0,3.1-0.5,3.1-2.9c-0.1-2.3-1.4-2.3-3-2.3c-3.8,0-7.5,0-11.3-0.1c-0.9,0-2.3,0.1-2.3-1.3c0-1.5,1.4-1.2,2.3-1.2&#xA;&#x9;&#x9;&#x9;c4.6-0.1,9.2-0.1,13.8,0c2.1,0,3.1-0.6,3.1-2.9c-0.1-2.3-1.4-2.4-3-2.3c-4.9,0-9.9,0-14.8,0c-8.1,0-8.1,0-8.1,8.1&#xA;&#x9;&#x9;&#x9;c0,2.5,0,4.5,0.1,6.2c0,0.5,0.1,1.1,0.1,1.5c0.1,0.9,0.3,1.7,0.5,2.4c0.2,0.5,0.4,0.9,0.7,1.2c0.2,0.2,0.4,0.4,0.6,0.6&#xA;&#x9;&#x9;&#x9;c0.1,0.1,0.2,0.2,0.3,0.2c1.8,1.1,5.1,1.1,10.8,1.1c1.2,0,2.3,0,3.5,0c1.2,0,2.3,0,3.5,0c0.8,0,1.5,0,2.3,0&#xA;&#x9;&#x9;&#x9;c2.1,0.1,3.6-0.2,3.6-2.9C207,56.6,205.2,56.7,203.3,56.7z"/>
      <path class="st18" d="M239.4,56.8c0.2-4.2,0-8.5,0.1-12.8c0.1-2.2-0.6-3-2.9-3c-2.2,0-3.6,0.3-3.4,3c0.2,3.3,0,6.6,0,10.8&#xA;&#x9;&#x9;&#x9;c-5.4-4.4-9.9-7.9-14.3-11.7c-2.3-2-4.9-2.8-7.5-1.9c-2.8,0.9-1.2,3.8-1.4,5.8c-0.2,3.9,0,7.8-0.1,11.7c-0.1,2.6,0.8,3.7,3.5,3.6&#xA;&#x9;&#x9;&#x9;c2.6,0,3.1-1.2,3.1-3.5c-0.1-3.1,0-6.3,0-10.7c5.6,4.5,10.3,8.1,14.7,12c2.1,1.9,4.5,2.8,7,1.9C240.6,61.2,239.3,58.6,239.4,56.8z&#xA;&#x9;&#x9;&#x9;"/>
      <path class="st18" d="M170.9,41.2c-3-0.3-6.1-0.1-9.2-0.1c0,0,0,0,0-0.1c-3.1,0-6.1,0-9.2,0c-1.4,0-2.9-0.1-2.9,1.9&#xA;&#x9;&#x9;&#x9;c-0.1,5.8-0.1,11.6,0,17.4c0,1.9,1.4,2.1,2.8,2c1.4-0.1,3.8,0.4,3.5-1.8c-0.8-6.1,3.3-4.9,6.7-5c2.7,0,5.5,0.2,8.2-0.1&#xA;&#x9;&#x9;&#x9;c4.2-0.4,7.1-2.6,7.2-7.1C178,43.9,175.1,41.6,170.9,41.2z M168.9,50.4c-1.7,0-3.4,0-5.1,0c-1.7,0-3.4,0-5.1,0c-1.4,0-2.7,0-2.7-2&#xA;&#x9;&#x9;&#x9;c0-2,1.1-2.2,2.6-2.2c3.4,0,6.7,0,10.1,0c1.4,0,2.8,0.2,2.9,2C171.7,50.1,170.3,50.4,168.9,50.4z"/>
      <path class="st16" d="M273.1,37.2c-1.1,0-2.1,0-3.2,0c-3.2,0-6.4,0-9.6,0c-4.1,0-8.2,0-12.3,0c-2.1,0-3.6,0.2-3.6,2.9&#xA;&#x9;&#x9;&#x9;c0,2.5,1,3.3,3.4,3.1c1.4-0.1,2.7,0.1,4.1,0c3.6-0.5,5.4,0.6,5,4.7c-0.4,3.5,0,7.1-0.1,10.7c-0.1,2.4,0.3,3.8,3.3,3.8&#xA;&#x9;&#x9;&#x9;c3,0,4-1,3.7-3.9c-0.2-1.5-0.1-3.1,0-4.6c0.2-3.4-1.4-7.4,0.7-9.9c1.8-2.2,5.8-0.7,8.8-0.8c2.3-0.1,2.9-1,2.9-3.1&#xA;&#x9;&#x9;&#x9;C276.1,38.1,275.3,37.2,273.1,37.2z"/>
    </g>
    <g>
      <rect x="9.5" y="10" class="st14" width="15.9" height="15.9"/>
      <rect x="30.1" y="10" class="st14" width="15.9" height="15.9"/>
      <rect x="50.7" y="10" class="st14" width="15.9" height="15.9"/>
      <rect x="71.3" y="10" class="st14" width="15.9" height="15.9"/>
      <rect x="9.5" y="30.6" class="st14" width="15.9" height="15.9"/>
      <rect x="30.1" y="30.6" class="st15" width="15.9" height="15.9"/>
      <rect x="50.7" y="30.6" class="st14" width="15.9" height="15.9"/>
      <rect x="71.3" y="30.6" class="st15" width="15.9" height="15.9"/>
      <rect x="9.5" y="51.1" class="st15" width="15.9" height="15.9"/>
      <rect x="30.1" y="51.1" class="st14" width="15.9" height="15.9"/>
      <rect x="50.7" y="51.1" class="st15" width="15.9" height="15.9"/>
      <rect x="71.3" y="51.1" class="st14" width="15.9" height="15.9"/>
      <rect x="9.5" y="72.1" class="st14" width="15.9" height="15.9"/>
      <rect x="30.1" y="72.1" class="st14" width="15.9" height="15.9"/>
      <rect x="50.7" y="72.1" class="st14" width="15.9" height="15.9"/>
      <rect x="71.3" y="72.1" class="st14" width="15.9" height="15.9"/>
      <polygon class="st15" points="41.6,45 50.5,54.4 54.2,51.3 45.2,41.3 &#x9;&#x9;"/>
      <polygon class="st15" points="24.3,57 36.3,44 32.1,40.9 20.9,52.6 &#x9;&#x9;"/>
      <polyline class="st15" points="62.2,52.1 72.1,41.9 75.5,46.3 66,56.1 &#x9;&#x9;"/>
    </g>
  </g>
</svg>