<svg xmlns="http://www.w3.org/2000/svg" role="img" viewBox="-2.34 55.41 407.42 133.17"><title>OpsRamp (member) logo</title><path fill="none" d="M0 0h400v245H0z" pointer-events="none"/><path fill="#3e4d61" d="M13.473 127.51c0 8.62 1.834 15.158 5.507 19.613 3.67 4.457 9.003 6.682 16 6.682 7.052 0 12.377-2.218 15.978-6.66 3.597-4.44 5.397-10.986 5.397-19.634 0-8.562-1.792-15.055-5.376-19.482-3.585-4.427-8.889-6.64-15.913-6.64-7.053 0-12.415 2.228-16.086 6.682-3.673 4.457-5.507 10.936-5.507 19.44zm50.718 0c0 10.188-2.575 18.198-7.727 24.033-5.152 5.833-12.314 8.75-21.485 8.75-9.375 0-16.608-2.866-21.704-8.599-5.092-5.732-7.639-13.823-7.639-24.27 0-10.362 2.554-18.394 7.662-24.097 5.108-5.704 12.364-8.555 21.768-8.555 9.142 0 16.282 2.904 21.42 8.707 5.137 5.805 7.705 13.816 7.705 24.032m31.855-10.535c-4.875 0-8.402 1.348-10.578 4.048-2.178 2.7-3.295 6.995-3.353 12.887v1.61c0 6.704 1.117 11.502 3.353 14.39 2.233 2.888 5.817 4.33 10.752 4.33 4.122 0 7.351-1.668 9.687-5.007 2.336-3.336 3.505-7.937 3.505-13.8 0-5.948-1.169-10.514-3.505-13.691-2.336-3.179-5.624-4.767-9.861-4.767zm1.046 43.317c-3.108 0-5.942-.573-8.512-1.719-2.568-1.147-4.723-2.91-6.465-5.291h-.523c.35 2.787.523 5.429.523 7.925v19.633h-7.226v-69.134h5.877l1.001 6.53h.348c1.858-2.612 4.02-4.498 6.488-5.66 2.465-1.16 5.295-1.74 8.49-1.74 6.325 0 11.209 2.162 14.649 6.486 3.438 4.326 5.159 10.39 5.159 18.197 0 7.837-1.75 13.926-5.248 18.264-3.496 4.34-8.352 6.51-14.56 6.51m60.804-13.889c0 4.44-1.653 7.866-4.963 10.274-3.309 2.409-7.953 3.614-13.93 3.614-6.328 0-11.263-1.002-14.803-3.004v-6.705a35.756 35.756 0 0 0 7.379 2.743c2.628.669 5.159 1.003 7.596 1.003 3.774 0 6.677-.604 8.709-1.808 2.03-1.203 3.048-3.039 3.048-5.506 0-1.859-.807-3.447-2.418-4.768-1.61-1.322-4.751-2.88-9.425-4.68-4.44-1.654-7.597-3.098-9.47-4.332-1.872-1.233-3.264-2.635-4.179-4.202-.914-1.567-1.371-3.44-1.371-5.614 0-3.89 1.581-6.96 4.746-9.21 3.163-2.249 7.503-3.373 13.017-3.373 5.137 0 10.159 1.045 15.064 3.135l-2.57 5.877c-4.788-1.975-9.127-2.962-13.017-2.962-3.424 0-6.008.539-7.75 1.612-1.74 1.075-2.612 2.554-2.612 4.44 0 1.278.327 2.366.981 3.266.653.9 1.704 1.756 3.156 2.568 1.45.813 4.238 1.989 8.36 3.526 5.658 2.062 9.482 4.137 11.47 6.227 1.987 2.09 2.982 4.716 2.982 7.879"/><path fill="#095387" d="M178.39 125.377h7.226c4.849 0 8.36-.898 10.537-2.699 2.177-1.798 3.266-4.469 3.266-8.01 0-3.6-1.176-6.182-3.527-7.75-2.35-1.567-5.893-2.35-10.623-2.35h-6.878zm0 8.62v25.425h-10.404V95.773h17.98c8.214 0 14.293 1.539 18.243 4.615 3.944 3.077 5.918 7.72 5.918 13.931 0 7.925-4.12 13.57-12.364 16.935l17.982 28.168h-11.843l-15.237-25.425H178.39m57.977 18.46c3.715 0 6.696-1.038 8.946-3.113 2.249-2.074 3.375-4.985 3.375-8.728v-4.18l-6.183.26c-4.818.174-8.323.981-10.512 2.418-2.192 1.436-3.288 3.634-3.288 6.594 0 2.15.637 3.81 1.917 4.986 1.274 1.175 3.19 1.763 5.745 1.763zm15.237 6.965l-2.046-6.704h-.348c-2.322 2.932-4.66 4.926-7.01 5.985-2.351 1.06-5.37 1.59-9.056 1.59-4.729 0-8.423-1.277-11.08-3.831-2.654-2.554-3.98-6.167-3.98-10.84 0-4.964 1.84-8.707 5.527-11.233 3.687-2.524 9.301-3.902 16.849-4.135l8.314-.262v-2.568c0-3.076-.718-5.378-2.155-6.9-1.436-1.524-3.664-2.286-6.682-2.286-2.467 0-4.83.363-7.097 1.089a53.625 53.625 0 0 0-6.53 2.568l-3.308-7.314c2.612-1.365 5.472-2.403 8.578-3.112 3.103-.711 6.034-1.068 8.793-1.068 6.123 0 10.745 1.334 13.864 4.007 3.12 2.668 4.682 6.864 4.682 12.58v32.434h-7.315m59.763 0h-10.275v-29.69c0-3.686-.696-6.436-2.088-8.25-1.395-1.815-3.573-2.722-6.532-2.722-3.949 0-6.843 1.285-8.684 3.853-1.844 2.57-2.766 6.843-2.766 12.82v23.989h-10.231v-48.15h8.01l1.438 6.313h.522c1.334-2.293 3.27-4.063 5.812-5.311 2.54-1.248 5.332-1.873 8.38-1.873 7.4 0 12.306 2.526 14.717 7.575h.695c1.42-2.379 3.424-4.237 6.008-5.572 2.582-1.336 5.544-2.003 8.881-2.003 5.747 0 9.934 1.45 12.562 4.354 2.624 2.902 3.937 7.328 3.937 13.278v31.389h-10.23v-29.69c0-3.686-.704-6.436-2.112-8.25-1.407-1.815-3.592-2.722-6.552-2.722-3.976 0-6.885 1.24-8.73 3.722-1.842 2.482-2.762 6.29-2.762 11.429v25.51m64.201-40.661c-4.063 0-7.031 1.191-8.902 3.57-1.873 2.38-2.81 6.182-2.81 11.406v1.525c0 5.861.93 10.108 2.787 12.732 1.857 2.628 4.889 3.942 9.098 3.942 3.541 0 6.271-1.451 8.186-4.355 1.915-2.901 2.874-7.037 2.874-12.407 0-5.398-.952-9.484-2.85-12.255-1.905-2.77-4.697-4.158-8.383-4.158zm2.482 41.533c-6.096 0-10.826-2.192-14.194-6.574h-.609c.406 4.065.61 6.53.61 7.4v19.722h-10.23v-69.57h8.27c.231.9.711 3.048 1.438 6.444h.521c3.193-4.876 7.981-7.314 14.367-7.314 6.01 0 10.689 2.176 14.042 6.53 3.35 4.355 5.027 10.463 5.027 18.33 0 7.865-1.705 14.003-5.115 18.416-3.412 4.41-8.12 6.616-14.127 6.616M222.69 98.38H396.1v-35.1z"/></svg>