<svg xmlns="http://www.w3.org/2000/svg" role="img" viewBox="99.80 51.80 998.40 238.40"><title>OpsCruise (member) logo</title><g><path d="M2180 1944l-165-95 3-452c3-400 1-456-13-482-9-17-24-36-35-43-110-68-734-423-754-428l-26-6 0-204 0-204 23 0c12 0 269 143 571 318 467 269 553 322 570 352 20 34 21 50 24 652 2 584-1 679-23 684-6 1-84-41-175-92zM8790 1795l0-96 78 3 77 3 0 90 0 90-77 3-78 3 0-96zM6289 1810c-105-18-176-79-206-177-15-50-18-97-18-323 0-227 3-272 18-315 28-81 60-120 124-152l58-28 330 0 330 0 0 95 0 95-305 5c-331 5-331 5-366 64-17 28-19 54-19 236 0 224 4 244 58 284 27 20 42 21 333 24l305 3-3 97-3 97-295 1c-162 1-316-2-341-6zM1390 1496l-195-111-3-234-2-233 24 6c46 11 357 198 374 224 15 22 17 56 17 234 0 125-4 211-10 216-6 5-85-34-205-102zM7216 1589c-91-22-136-77-156-189-6-40-10-166-8-325l3-260 78-3 77-3 0 243c1 265 7 319 39 352 20 20 34 21 219 26l197 5 0 80 0 80-205 2c-113 0-223-3-244-8zM7770 1302c0-345 5-377 69-435 22-20 57-39 78-44 21-4 153-8 293-8 287 0 329 8 374 68 48 64 51 92 51 412l0 300-75 0-75 0-5-265c-5-290-9-309-66-330-14-6-115-10-224-10-196 0-199 0-227 24l-28 24-3 259c-1 142-4 268-7 281-5 20-11 22-80 22l-75 0 0-298zM8795 1588c-3-7-4-184-3-393l3-380 75 0 75 0 0 390 0 390-73 3c-52 2-74-1-77-10zM9195 1589c-76-22-105-81-105-217 0-82 4-105 23-142 38-76 54-80 328-80 218 0 239-1 260-19 20-16 24-28 23-72-1-90 4-89-340-89l-294 0 0-80 0-81 343 3c314 3 345 5 373 22 57 34 68 67 72 201 3 109 1 124-20 165-39 76-55 80-331 80l-238 0-26 26c-21 21-24 32-19 62 11 71 14 72 327 72l279 0 0 80 0 80-312-1c-172 0-327-5-343-10zM10147 1586c-63-17-96-43-127-97-24-42-25-52-28-254-4-240 4-298 49-350 58-65 87-70 429-70l305 0 0 80 0 80-288 5-289 5-24 28c-19 22-24 39-24 83l0 54 308 0c176 0 313 4 322 10 12 8 15 38 15 167 0 174-8 202-68 247-27 20-42 21-280 23-185 2-265-1-300-11zm477-165c13-14 16-33 14-82l-3-64-242-3-243-2 0 56c0 48 4 59 29 85l29 29 200 0c182 0 200-2 216-19z" transform="matrix(.1 0 0 -.1 0 275)"/></g></svg>