<svg xmlns="http://www.w3.org/2000/svg" role="img" viewBox="-4.99 -4.99 259.74 259.74"><title>Orange (member) logo</title><path d="M0 125v125h250V0H0v125zm226 56.5c0 .8-.9 1.5-2 1.5-1.7 0-2 .7-2 5 0 2.7-.4 5-1 5-.5 0-1-2.3-1-5 0-4.3-.3-5-2-5-1.1 0-2-.7-2-1.5 0-1.1 1.2-1.5 5-1.5s5 .4 5 1.5zm6.7 2.2l1.6 3.8 1.5-3.8c1-2.4 2.1-3.7 3.3-3.7 1.7 0 1.9.8 1.9 6.5 0 5.1-.3 6.5-1.5 6.5-1 0-1.5-1-1.5-3.3l-.1-3.2-1.4 3.2c-1.8 4.3-2.9 4.2-4.8-.5l-1.6-3.7v3.7c-.1 2.7-.5 3.8-1.6 3.8-1.2 0-1.5-1.4-1.5-6.5 0-5.9.2-6.5 2.1-6.5 1.4 0 2.5 1.2 3.6 3.7zM40 195c5.5 2.8 8 8 8 16.6 0 12.5-6.6 19-18.6 18.2-7.6-.5-10.9-2.5-14.2-8.8-3.6-7.2-2.5-17.6 2.6-23.4 4.3-4.8 15.3-6.1 22.2-2.6zm33.8 2.7c-.3 4.6-.4 4.8-3.8 5.3-6 1-6 1.1-6 14.1V229H54v-35h4.5c3.5 0 4.5.4 4.5 1.7 0 1.4.2 1.5 1.8.1 2.1-1.9 4-2.6 7-2.7 2.1-.1 2.3.3 2 4.6zm27.7-3.3c1.8.8 3.8 2.3 4.4 3.4.7 1.2 1.1 8.1 1.1 16.6V229h-4.4c-2.4 0-4.6-.4-4.8-1-.2-.5-2.3-.2-5 .7-9.6 3.1-16.8-.9-16.8-9.3 0-6.9 4.1-10.6 14.3-12.9 4.2-.9 7.7-2.1 7.7-2.5 0-1.6-3.2-4-5.3-4-1.2 0-3.7.9-5.5 2-3 1.9-3.5 1.9-6.3.4-9.5-4.9 9.8-12.5 20.6-8zm38.9-.4c4.6 1.7 5.6 5.5 5.6 21v14h-10v-12.1c0-6.6-.5-12.9-1-14-1.3-2.3-5.7-2.5-8.8-.3-2.1 1.4-2.2 2.2-2.2 14V229h-10v-35h4c2.5 0 4.3.5 4.6 1.4.4 1.1 1.2 1 4.2-.5 4-2.1 9.6-2.4 13.6-.9zm32.6.5c2.7 1.4 3 1.4 3 0 0-1.1 1.1-1.5 4.5-1.5h4.5v17.7c0 9.8-.4 19.5-.9 21.6-1.3 5.5-4.5 8.4-10.6 9.8-7.8 1.7-14.1.5-18.2-3.6-1.8-1.8-3.3-3.7-3.3-4.3 0-.5 2.1-1.3 4.6-1.7 3.5-.5 5-.3 6.3.9 2.1 1.9 7.1 2.1 9.4.3.9-.6 2-2.7 2.3-4.6l.7-3.4-2.4 1.6c-3.2 2.3-10.6 2.2-14.6-.3-4.8-2.9-6.7-7.3-6.8-15.5 0-8.3 2.3-13.8 6.9-16.6 3.8-2.3 10.6-2.5 14.6-.4zm42.1.8c4.3 2.8 6.9 8 6.9 13.4v4.3h-23l.6 2.7c1.4 6.1 7.8 8.1 12.8 4.2 2.7-2.1 2.8-2.1 6.2-.3 1.9 1 3.4 2.1 3.4 2.5 0 1.7-5.7 6-9.4 7-5.5 1.5-13.1.6-16.4-1.8-4.8-3.6-6.7-8.1-6.7-15.8 0-8.1 2.1-12.6 7.5-16.2 4.6-3.2 13.4-3.2 18.1 0z"/><path d="M28 202.3c-3.5 1.8-5.2 5.5-4.7 10.6.6 5.4 3.4 8.4 7.8 8.4 4.6 0 6.9-3.2 6.9-9.8 0-7.9-4.5-12-10-9.2zm62 11.5c-2.8 1.4-3.5 2.3-3.5 4.7 0 2.4.5 3.1 2.3 3.3 1.3.2 3.7-.2 5.3-.8 2.5-1.1 2.9-1.8 2.9-5.1 0-4.5-1.4-5-7-2.1zm75.3-12.6c-1.3.6-2.7 2.6-3.3 4.7-1.3 4.8-1.3 6.5.4 10.6 2.7 6.4 9.6 5.6 11.7-1.4 1.6-5.2.4-10.5-2.8-13.1-2.9-2.3-3-2.3-6-.8zm36.4.6c-3 3.3-2.1 4.2 4.3 4.2 6.5 0 7.6-1.2 4.2-4.3-2.4-2.2-6.5-2.1-8.5.1z"/></svg>