<svg xmlns="http://www.w3.org/2000/svg" role="img" viewBox="-2.88 -2.88 202.02 44.27"><title>ORCASIO (member) logo</title><defs id="defs64"><clipPath id="clip-path" transform="translate(-.03 .61)"><path id="rect4" d="M1.19 6.24H51.5v30.53H1.19z" class="cls-1"/></clipPath><clipPath id="clip-path-2" transform="translate(-.03 .61)"><path id="rect7" d="M-97.14-14.13h237.46v150.97H-97.14z" class="cls-1"/></clipPath><clipPath id="clip-path-3" transform="translate(-.03 .61)"><path id="rect10" d="M1.19 6.05h50.32v30.84H1.19z" class="cls-1"/></clipPath><clipPath id="clip-path-4" transform="translate(-.03 .61)"><path id="path13" d="M41.58 36.78a10.68 10.68 0 0 0 9.92-6.7h-6.85V24.5h-.83v-4.24h.83v-3.14h2.77c-.25-.16-.5-.31-.76-.45h-9.14V8.51A15.26 15.26 0 0 0 17.59 12 8.28 8.28 0 0 0 6 19.55a9.09 9.09 0 0 0 .11 1.39 8.28 8.28 0 0 0 3.35 15.84h32.12z" class="cls-2"/></clipPath><clipPath id="clip-path-6" transform="translate(-.03 .61)"><path id="rect16" d="M1.19.55h54.43v36.34H1.19z" class="cls-1"/></clipPath><clipPath id="clip-path-8" transform="translate(-.03 .61)"><path id="rect19" d="M38.99 6.74h16.7v25.04h-16.7z" class="cls-1"/></clipPath><clipPath id="clip-path-9" transform="translate(-.03 .61)"><path id="rect22" d="M47.01 6.93h5.27v5.28h-5.27z" class="cls-1"/></clipPath><clipPath id="clip-path-11" transform="translate(-.03 .61)"><path id="polygon25" d="M51.5 22.68h-3.45v1.82h-3.94v7.13l7.39-1.55v-7.4z" class="cls-2"/></clipPath><clipPath id="clip-path-13" transform="translate(-.03 .61)"><path id="rect28" d="M50.48 10.86h5.14V16h-5.14z" class="cls-1"/></clipPath><clipPath id="clip-path-15" transform="translate(-.03 .61)"><path id="rect31" d="M39.06 7.74h4.15v4.15h-4.15z" class="cls-1"/></clipPath><clipPath id="clip-path-17" transform="translate(-.03 .61)"><path id="rect34" d="M48.05 19.62h6.39v6.39h-6.39z" class="cls-1"/></clipPath><clipPath id="clip-path-19" transform="translate(-.03 .61)"><path id="rect37" d="M42.08 13.59h6.67v6.67h-6.67z" class="cls-1"/></clipPath><clipPath id="clip-path-21" transform="translate(-.03 .61)"><path id="path40" d="M21.75 26.79L18.07 26l-.88 1.13v4.15l1.77 1s3.14 4.35 6.83 4.35 7.48-4.43 8.23-5.34a2.22 2.22 0 0 1 1.26-1l-.4-1.5-.14-2.79h-7.26z" class="cls-2"/></clipPath><clipPath id="clip-path-23" transform="translate(-.03 .61)"><path id="path43" d="M19.62 24.45c-.12 1.82-.79.8-.79.8s-2.3-4.11-.69-4.5 1.48 3.7 1.48 3.7m13.76.8s-.67 1-.8-.8c0 0-.12-4.09 1.49-3.7s-.69 4.5-.69 4.5" class="cls-2"/></clipPath><clipPath id="clip-path-25" transform="translate(-.03 .61)"><path id="path46" d="M19.06 32.43a14.23 14.23 0 0 0-4.73 1.39c-1.06.46-2 .93-2.73 1.23s-1.54.69-2.33 1a13.38 13.38 0 0 1-4.1.89c-1.18 0-1.64-.12-1.79-.3a.17.17 0 0 1-.07-.14.34.34 0 0 1 0-.23 16.75 16.75 0 0 1 4.42-3.09 45.81 45.81 0 0 1 5-2.2c1-.36 1.75-.6 2.1-.69a6.43 6.43 0 0 0 2.48-1.36 6.87 6.87 0 0 0 1.71 3.51" class="cls-2"/></clipPath><clipPath id="clip-path-27" transform="translate(-.03 .61)"><path id="path49" d="M28.17 12.55a2.42 2.42 0 0 1-.4-.72c-.05-.22-.1-.44-.14-.67a18.05 18.05 0 0 1-.09-5.47 17.87 17.87 0 0 1 .86-3.78c.39-.89.15-1.1.15-1.1-.53-.56-.92 0-.92 0a11.87 11.87 0 0 0-2.53 4.85 20.65 20.65 0 0 0-.57 5.51v.19a1.88 1.88 0 0 1-.47 1.18c-10.48 3.67-6.84 16-6.71 16.38.33-4.85 3.14-.84 4.72 2.24s4 3.18 4 3.18 2.46-.1 4-3.18 4.38-7.08 4.71-2.24c.13-.42 3.77-12.69-6.68-16.37m-8.55 11.9c-.12 1.82-.79.8-.79.8s-2.3-4.11-.69-4.5 1.48 3.7 1.48 3.7m13.76.8s-.67 1-.8-.8c0 0-.12-4.09 1.49-3.7s-.69 4.5-.69 4.5" class="cls-2"/></clipPath><clipPath id="clip-path-29" transform="translate(-.03 .61)"><path id="rect52" d="M33.14 28.91H48.9v8.02H33.14z" class="cls-1"/></clipPath><clipPath id="clip-path-31" transform="translate(-.03 .61)"><path id="rect55" d="M32.96 28.77h16v8.35h-16z" class="cls-1"/></clipPath><clipPath id="clip-path-32" transform="translate(-.03 .61)"><path id="path58" d="M48.9 36.49a.4.4 0 0 1-.07.15c-.16.17-.62.34-1.79.29a13.32 13.32 0 0 1-4.1-.89c-.8-.3-1.57-.64-2.34-1s-1.67-.77-2.73-1.23a14.23 14.23 0 0 0-4.73-1.39 6.74 6.74 0 0 0 1.71-3.51 6.43 6.43 0 0 0 2.48 1.36c.36.09 1.12.33 2.11.69a44.9 44.9 0 0 1 5 2.2 16.43 16.43 0 0 1 4.42 3.09.32.32 0 0 1 .06.23" class="cls-2"/></clipPath><clipPath id="clip-path-34" transform="translate(-.03 .61)"><path id="rect61" d="M9.29-3h241.63v53.3H9.29z" class="cls-1"/></clipPath><style id="style2">.cls-1,.cls-2{fill:none}.cls-2{clip-rule:evenodd}.cls-4{clip-path:url(#clip-path-2)}.cls-5{isolation:isolate}.cls-6{clip-path:url(#clip-path-3)}.cls-8{fill:#06c}.cls-10{clip-path:url(#clip-path-8)}.cls-18{fill:#fff}.cls-23{clip-path:url(#clip-path-31)}</style></defs><g id="g80" clip-path="url(#clip-path)"><g id="g78" class="cls-4" clip-path="url(#clip-path-2)"><g id="g76" class="cls-5"><g id="g74" class="cls-6" clip-path="url(#clip-path-3)"><g id="g72" clip-path="url(#clip-path-4)"><g id="g70" class="cls-6" clip-path="url(#clip-path-3)"><path id="rect68" fill="#06c" d="M0 5.69h52.63v32.85H0z" class="cls-8"/></g></g></g></g></g></g><g id="g124" clip-path="url(#clip-path-6)"><g id="g122" class="cls-4" clip-path="url(#clip-path-2)"><g id="g120" class="cls-5"><g id="g118" class="cls-10" clip-path="url(#clip-path-8)"><g id="g86" clip-path="url(#clip-path-9)"><g id="g84" class="cls-10" clip-path="url(#clip-path-8)"><path id="rect82" fill="#06c" d="M45.82 6.37h7.59v7.6h-7.59z" class="cls-8"/></g></g><g id="g92" clip-path="url(#clip-path-11)"><g id="g90" class="cls-10" clip-path="url(#clip-path-8)"><path id="rect88" fill="#06c" d="M42.92 22.13h9.71V33.4h-9.71z" class="cls-8"/></g></g><g id="g98" clip-path="url(#clip-path-13)"><g id="g96" class="cls-10" clip-path="url(#clip-path-8)"><path id="rect94" fill="#06c" d="M49.29 10.31h7.46v7.46h-7.46z" class="cls-8"/></g></g><g id="g104" clip-path="url(#clip-path-15)"><g id="g102" class="cls-10" clip-path="url(#clip-path-8)"><path id="rect100" fill="#06c" d="M37.87 7.19h6.47v6.47h-6.47z" class="cls-8"/></g></g><g id="g110" clip-path="url(#clip-path-17)"><g id="g108" class="cls-10" clip-path="url(#clip-path-8)"><path id="rect106" fill="#06c" d="M46.87 19.07h8.71v8.71h-8.71z" class="cls-8"/></g></g><g id="g116" clip-path="url(#clip-path-19)"><g id="g114" class="cls-10" clip-path="url(#clip-path-8)"><path id="rect112" fill="#06c" d="M40.89 13.04h8.99v8.99h-8.99z" class="cls-8"/></g></g></g></g></g></g><g id="g130" clip-path="url(#clip-path-21)"><g id="g128" class="cls-4" clip-path="url(#clip-path-2)"><path id="rect126" fill="#fff" d="M16 25.44h20.41v12.99H16z" class="cls-18"/></g></g><g id="g136" clip-path="url(#clip-path-23)"><g id="g134" class="cls-4" clip-path="url(#clip-path-2)"><path id="rect132" fill="#fff" d="M16.38 20.17h19.39v7.13H16.38z" class="cls-18"/></g></g><g id="g142" clip-path="url(#clip-path-25)"><g id="g140" class="cls-4" clip-path="url(#clip-path-2)"><path id="rect138" d="M2.11 28.36h18.08V38.7H2.11z"/></g></g><g id="g148" clip-path="url(#clip-path-27)"><g id="g146" class="cls-4" clip-path="url(#clip-path-2)"><path id="rect144" d="M15.45 0H36.7v36.1H15.45z"/></g></g><g id="g162" clip-path="url(#clip-path-29)"><g id="g160" class="cls-4" clip-path="url(#clip-path-2)"><g id="g158" class="cls-5"><g id="g156" class="cls-23" clip-path="url(#clip-path-31)"><g id="g154" clip-path="url(#clip-path-32)"><g id="g152" class="cls-23" clip-path="url(#clip-path-31)"><path id="rect150" d="M31.96 28.36h18.08V38.7H31.96z"/></g></g></g></g></g></g><g id="g180" clip-path="url(#clip-path-34)"><g id="text172" transform="translate(62.71 31.96)"><path id="path197" d="M11.26301-19.29279q3.02005 0 5.3295 1.20802 2.34498 1.20802 3.62406 3.41088 1.27908 2.20286 1.27908 5.11632 0 2.87793-1.27908 5.11632-1.27908 2.20286-3.62406 3.44641Q14.28306.21318 11.263.21318q-3.05558 0-5.40056-1.20802Q3.553-2.23839 2.27392-4.44125.99484-6.67964.99484-9.55757q0-2.91346 1.27908-5.11632t3.58853-3.41088q2.34498-1.20802 5.40056-1.20802zm0 4.54784q-2.1318 0-3.48194 1.45673-1.31461 1.45673-1.31461 3.80171 0 2.34498 1.31461 3.80171 1.35014 1.45673 3.48194 1.45673 2.09627 0 3.41088-1.45673 1.35014-1.45673 1.35014-3.80171 0-2.34498-1.35014-3.80171-1.31461-1.45673-3.41088-1.45673z"/><path id="path199" d="M31.52084-15.66873q.99484-1.7765 2.59369-2.70028 1.59885-.92378 3.73065-.9593v5.15184q-.28424-.03553-.85272-.03553-2.52263 0-4.01489 1.38567-1.45673 1.35014-1.45673 3.62406V0h-5.47162v-19.11514h5.47162z"/><path id="path201" d="M53.86449-12.61315q-1.63438-2.0252-4.2636-2.0252-2.06074 0-3.37535 1.42119-1.27908 1.38567-1.27908 3.69512t1.27908 3.76618q1.27908 1.4212 3.26876 1.4212 2.98452 0 4.44125-2.23839l3.76618 2.55816Q56.4937-1.98968 54.29085-.88825 52.12352.21318 49.21005.21318q-2.87792 0-5.08078-1.20802t-3.44641-3.41088q-1.20802-2.20286-1.20802-5.08079 0-2.91346 1.20802-5.11632 1.24355-2.23839 3.4464-3.4464 2.2384-1.24356 5.15186-1.24356 2.7358 0 4.8676 1.0659 2.1318 1.03037 3.41089 2.949z"/><path id="path203" d="M72.05577 0v-2.23839q-.9593 1.20802-2.4871 1.84756-1.52779.63954-3.51747.63954-3.02005 0-4.79655-1.63438-1.7765-1.66991-1.7765-4.33466 0-2.70028 1.8831-4.19254 1.91861-1.52779 5.40055-1.56332h5.25844v-.3553q0-1.52779-1.03037-2.34498-.99484-.85272-2.94899-.85272-2.66475 0-5.6848 1.66991l-1.70544-3.76618q2.27392-1.13696 4.2636-1.6699 1.98968-.53296 4.3702-.53296 3.83723 0 5.9335 1.81203 2.1318 1.81203 2.16733 5.04526L77.4208 0zM67.579-3.65959q1.70544 0 2.949-.81719 1.24354-.81719 1.49225-2.06074v-1.70544h-4.29913q-1.59885 0-2.3805.53295-.74614.49742-.74614 1.63438 0 1.10143.78166 1.7765.8172.63954 2.20286.63954z"/><path id="path205" d="M96.3639-13.5014q-1.56333-.88825-3.09112-1.35014-1.52779-.49742-2.7358-.49742-.99485 0-1.59886.3553-.604.3553-.604 1.0659 0 .78166.81718 1.20802.8172.42636 2.66475.95931 2.02521.60401 3.33982 1.20802 1.31461.56848 2.27392 1.74097.95931 1.13696.95931 3.02005 0 2.8424-2.20286 4.44125Q94.01891.21318 90.60804.21318q-2.34499 0-4.51232-.67507-2.16733-.7106-3.76618-1.98968l1.7765-3.69512q1.45673 1.13696 3.23323 1.7765 1.81203.60401 3.41088.60401 1.10143 0 1.74097-.3553.67507-.39083.67507-1.13696 0-.81719-.85272-1.27908-.81719-.46189-2.66475-.99484-1.95415-.56848-3.26876-1.13696-1.27908-.56848-2.20286-1.70544-.92378-1.17249-.92378-3.02005 0-2.8424 2.1318-4.40572 2.1318-1.56332 5.40056-1.56332 1.95415 0 3.9083.56848 1.95415.53295 3.553 1.56332z"/></g><g id="text178" fill="#06c" transform="translate(163.25 31.96)"><path id="path208" d="M2.62922-19.11514h5.47162V0H2.62922zm2.73581-8.49167q1.31461 0 2.1318.85272.85272.85272.85272 2.20286 0 1.35014-.85272 2.20286-.81719.85272-2.1318.85272-1.27908 0-2.1318-.85272-.81719-.88825-.81719-2.20286 0-1.35014.81719-2.20286.85272-.85272 2.1318-.85272z"/><path id="path210" d="M22.03301-19.29279q3.02005 0 5.3295 1.20802 2.34498 1.20802 3.62406 3.41088 1.27908 2.20286 1.27908 5.11632 0 2.87793-1.27908 5.11632-1.27908 2.20286-3.62406 3.44641Q25.05306.21318 22.03301.21318q-3.05558 0-5.40056-1.20802-2.30945-1.24355-3.58853-3.44641-1.27908-2.23839-1.27908-5.11632 0-2.91346 1.27908-5.11632t3.58853-3.41088q2.34498-1.20802 5.40056-1.20802zm0 4.54784q-2.1318 0-3.48194 1.45673-1.31461 1.45673-1.31461 3.80171 0 2.34498 1.31461 3.80171 1.35014 1.45673 3.48194 1.45673 2.09627 0 3.41088-1.45673 1.35014-1.45673 1.35014-3.80171 0-2.34498-1.35014-3.80171-1.31461-1.45673-3.41088-1.45673z"/></g></g></svg>