<svg xmlns="http://www.w3.org/2000/svg" role="img" viewBox="-10.23 -10.23 531.96 337.96"><title>Orka logo</title><path fill="#f68213" d="M221.715 266.981c0-18.845-12.563-30.853-29.375-30.853-16.628 0-29.19 12.008-29.19 30.853 0 18.843 12.562 30.85 29.19 30.85 16.812 0 29.375-12.007 29.375-30.85zm-81.843 0c0-29.56 22.17-50.437 52.468-50.437 30.668 0 52.653 20.877 52.653 50.437S223.008 317.6 192.34 317.6c-30.299 0-52.468-21.059-52.468-50.619m172.48-50.437v21.985c-2.033-.37-3.696-.554-5.36-.554-17.552 0-28.636 10.346-28.636 30.484v47.849h-23.092v-98.655h21.984v14.41c6.65-10.346 18.66-15.52 35.104-15.52M362.977 274l-17.181 16.259v26.049h-23.093V179.225h23.093v82.767l47.85-44.339h27.711l-41.2 41.383 45.079 57.272h-28.081L362.977 274"/><path fill="#f68213" d="M488.612 285.455V274H464.78c-15.704 0-19.953 5.914-19.953 13.117 0 8.315 7.02 13.671 18.844 13.671 11.269 0 21.062-5.173 24.941-15.333zm23.093-26.972v57.825h-21.798V304.3c-5.544 8.498-16.258 13.3-31.038 13.3-22.542 0-36.766-12.378-36.766-29.557 0-16.443 11.085-29.376 41.014-29.376h25.495v-1.479c0-13.485-8.128-21.43-24.57-21.43-11.086 0-22.542 3.695-29.931 9.791l-9.052-16.812c10.53-8.13 25.865-12.193 41.753-12.193 28.452 0 44.893 13.487 44.893 41.939"/><path fill="#fff" d="M365.452 75.161c-.079-.392-1.108-2.553-1.055-2.692.003.038-.008.08-.006.119.192 3.835-3.526 9.277-8.064 11.808-10.302 5.743-28.906 10.48-50.972 22.204-5.418 2.879-10.423 6.24-15.443 9.583.763 6.374-.144 16.292-1.579 22.177 5.31-2.973 15.734-11.697 20.108-15.799 5.747-5.386 13.63-10.396 50.271-30.97 4.532-2.544 8.056-9.932 6.74-16.43M248.48 136.21c-.52-2.12-.579-6.837-3.953-7.545-2.075.347-7.662-.488-9.696-.358-19.058 1.208-17.954 5.385-38.422 7.9-.645.078-20.673-8.866-21.544-8.978-19.146-9.528-40.488-10.134-53.502-2.872-3.583 1.998-3.291 17.459 2.154 17.954 4.573.416 15.026 5.333 15.082 5.386 1.872 1.814-3.52 6.01-5.746 6.822-7.645 2.793-12.079 6.996-17.954 11.85-11.814 9.76-21.174 22.675-30.163 34.831-.08.107-.689 16.324.718 14.721 1.309-1.49 5.243-5.638 6.466-7.188 2.686-3.402 5.56-6.653 8.575-9.78a134.263 134.263 0 0 1 5.882-5.773c8.74-8.017 18.62-14.97 29.46-20.745 5.468-2.912 11.044-5.738 16.863-8.223 1.455-.62 2.925-1.22 4.41-1.795 4.462-1.724 9.077-3.221 13.903-4.384 15.714-3.788 34.814-2.03 51.464-4.189 8.342-1.081 21.298-2.888 29.234-4.707-1.326-3.38-1.831-7.206-3.231-12.926m70.733-58.355c5.148-3.416 7.579-8.075 4.67-12.748-5.926-9.515-32.155-5.89-38.782-6.463-12.09-1.045-25.177-3.496-34.83.539-1.126.47-12.327 4.34-3.052 16.337 16.518 21.366 50.63 16.519 71.994 2.335"/><path fill="#100f0d" d="M118.09 235.561l.005.02c.007.019.01.034.017.05.005-.024.008-.06.013-.086l-.036.016"/><path fill="#100f0d" d="M244.74 66.479c.57-2.498 3.023-3.724 5.51-4.555 9.95-3.319 22.235-2.65 34.357-1.601 6.644.574 31.656-1.768 37.538 5.932 3.351 4.385.042 8.189-5.366 11.206-14.215 7.934-47.915 21.042-68.81-2.606-2.317-2.624-3.793-5.911-3.229-8.376zm45.75 54.118c-.093-2.098 1.04-4.769 2.786-5.936 4.948-3.301 6.395-4.101 12.608-7.33 22.23-11.551 40.843-16.383 51.104-22.262 11.239-6.438 7.84-16.1 7.495-16.964-12.554-31.344-39.268-41.121-77.923-44.636-39.017-3.546-54.019-.901-77.283 5.562-.672.185-4.649 1.174-5.317 1.364-6.783 1.933-10.208 3.182-18 1.913-11.124-1.812-16.719-12.721-29.18-20.021C139.228 2.005 132.373 1.069 123.234.343 107.736-.89 95.814 1.424 91.621 2.968l-.14.056c-.534.224-3.716 1.612-5.961 3.647-3.039 2.753-1.552 6.358 3.621 9.521 2.326 1.424 9.562 4.621 12.457 6.797 9.137 6.868 20.507 17.191 24.47 27.268 3.408 8.664-.549 13.438-6.677 20.186-5.767 6.349-14.39 13.309-19.693 19.885-14.208 17.616-26.078 38.65-29.32 61.13-1.372 9.511-1.708 26.449-10.72 41.291-5.295 8.724-14.17 8.696-40.503 25.548-15.578 9.971-24.002 32.164-16.2 38.323 5.919 4.675 14.642-2.492 20.874-4.985 9.836-3.933 24.979-12.556 33.96-2.18 18.071 20.874 18.364 41.755 30.534 45.488 11.266 3.454 13.616-33.538 11.955-44.339-2.503-16.268-19.985-36.255-11.21-50.159 4.86-8.505 17.197-21.768 29.04-31.554 5.89-4.868 12.322-9.28 19.987-12.079 2.232-.816 9.01-1.939 10.593-4.856.499-1.217.88-1.995-1.505-4.417-.054-.055-1.207-1.052-1.882-1.404-4.361-2.71-10.592-3.214-16.996-5.058-7.252-2.088-7.527-10.706-2.89-13.928 12.209-8.476 39.01 1.235 58.502 10.654 10.523 5.085 17 3.9 48.391-3.616 1.244-.299 2.76-.678 4.047-.906 1.197-.21 6.434-.902 8.37 7.899.991 4.5.235 11.781 8.642 24.39 1.978 2.97 6.378 8.767 15.209 9.09 7.38.27 13.612-14.82 13.95-15.75 6.3-17.37 8.25-31.802 7.963-38.313"/></svg>