<svg xmlns="http://www.w3.org/2000/svg" viewBox="12.28 7.28 235.44 297.44"><title>PaaSTA logo</title><path fill="#F47721" d="M60.457 298.733v-12.94h4.517c3.136 0 5.53-.164 7.184-.491 1.217-.266 2.414-.808 3.592-1.627s2.149-1.946 2.914-3.382c.764-1.435 1.146-3.205 1.146-5.312 0-2.73-.663-4.957-1.989-6.681-1.326-1.725-2.972-2.844-4.938-3.358-1.279-.343-4.025-.515-8.237-.515H53.53v34.306h6.927zm3.347-28.503c2.496 0 4.157.079 4.984.234 1.123.203 2.051.71 2.785 1.521.733.811 1.1 1.841 1.1 3.089 0 1.014-.262 1.903-.784 2.668-.523.764-1.244 1.326-2.165 1.685s-2.746.538-5.476.538h-3.791v-9.735h3.347zm28.151 8.811c.655-.46 1.568-.689 2.738-.689 1.731 0 2.909.269 3.533.807s.937 1.439.937 2.703v.655c-1.186.499-3.315 1.038-6.389 1.614-2.278.438-4.021.948-5.23 1.533s-2.149 1.428-2.82 2.527-1.006 2.352-1.006 3.756c0 2.122.737 3.877 2.211 5.266 1.474 1.389 3.49 2.082 6.049 2.082 1.451 0 2.816-.272 4.095-.818s2.48-1.365 3.604-2.457c.047.125.125.382.234.771.25.858.46 1.506.632 1.942h6.506c-.578-1.186-.971-2.297-1.182-3.335-.21-1.037-.316-2.647-.316-4.832l.07-7.676c0-2.854-.292-4.816-.877-5.885s-1.595-1.95-3.031-2.645c-1.435-.694-3.619-1.041-6.552-1.041-3.229 0-5.663.577-7.301 1.731-1.638 1.154-2.792 2.933-3.463 5.335l5.967 1.077c.406-1.152.936-1.96 1.591-2.421zm7.208 9.068c0 1.576-.086 2.645-.258 3.206-.25.858-.772 1.584-1.568 2.177-1.076.78-2.208 1.17-3.393 1.17-1.061 0-1.935-.336-2.621-1.007-.687-.67-1.029-1.466-1.029-2.387 0-.936.429-1.708 1.287-2.316.562-.375 1.755-.757 3.58-1.146 1.825-.391 3.159-.726 4.002-1.007v1.31zm19.446-9.068c.655-.46 1.568-.689 2.738-.689 1.732 0 2.91.269 3.534.807.624.538.936 1.439.936 2.703v.655c-1.186.499-3.315 1.038-6.389 1.614-2.278.438-4.021.948-5.23 1.533-1.209.585-2.149 1.428-2.82 2.527-.671 1.1-1.006 2.352-1.006 3.756 0 2.122.737 3.877 2.211 5.266s3.49 2.082 6.049 2.082a10.32 10.32 0 0 0 4.095-.818c1.279-.546 2.48-1.365 3.604-2.457.047.125.125.382.234.771.249.858.46 1.506.632 1.942h6.505c-.577-1.186-.971-2.297-1.182-3.335-.211-1.037-.316-2.647-.316-4.832l.07-7.676c0-2.854-.293-4.816-.877-5.885-.585-1.068-1.596-1.95-3.031-2.645-1.436-.694-3.62-1.041-6.552-1.041-3.229 0-5.663.577-7.301 1.731s-2.793 2.933-3.463 5.335l5.967 1.077c.406-1.152.937-1.96 1.592-2.421zm7.208 9.068c0 1.576-.086 2.645-.257 3.206-.25.858-.772 1.584-1.568 2.177-1.077.78-2.208 1.17-3.393 1.17-1.062 0-1.935-.336-2.621-1.007-.687-.67-1.03-1.466-1.03-2.387 0-.936.429-1.708 1.287-2.316.562-.375 1.755-.757 3.581-1.146 1.825-.391 3.159-.726 4.001-1.007v1.31zm15.398 8.226c2.324 2.005 5.655 3.007 9.992 3.007 2.98 0 5.469-.417 7.465-1.252 1.997-.834 3.541-2.109 4.634-3.826 1.092-1.716 1.638-3.557 1.638-5.522 0-2.168-.456-3.99-1.369-5.464-.912-1.475-2.176-2.637-3.791-3.487-1.614-.85-4.106-1.673-7.477-2.469-3.369-.796-5.491-1.56-6.365-2.293-.686-.577-1.029-1.271-1.029-2.083 0-.889.367-1.599 1.1-2.129 1.139-.827 2.715-1.241 4.728-1.241 1.95 0 3.413.387 4.388 1.159.975.771 1.611 2.04 1.907 3.803l6.927-.305c-.109-3.151-1.252-5.671-3.428-7.559-2.177-1.888-5.418-2.831-9.724-2.831-2.637 0-4.888.397-6.751 1.193-1.865.795-3.293 1.954-4.283 3.475-.99 1.521-1.486 3.155-1.486 4.902 0 2.715 1.054 5.017 3.16 6.903 1.498 1.343 4.103 2.474 7.816 3.394 2.885.718 4.734 1.217 5.545 1.498 1.186.421 2.017.916 2.492 1.485.477.57.715 1.261.715 2.071 0 1.264-.566 2.367-1.697 3.312s-2.812 1.416-5.043 1.416c-2.105 0-3.779-.53-5.02-1.592-1.24-1.061-2.063-2.723-2.469-4.984l-6.74.655c.452 3.838 1.841 6.759 4.165 8.764zm36.412-22.453v-8.775l-6.6 3.837v4.938h-3.018v5.241h3.018v10.835c0 2.325.07 3.869.211 4.634.172 1.076.48 1.931.925 2.562s1.143 1.146 2.095 1.544c.951.398 2.02.597 3.205.597 1.935 0 3.666-.327 5.195-.982l-.562-5.102c-1.154.421-2.036.632-2.644.632-.438 0-.809-.109-1.112-.327a1.447 1.447 0 0 1-.585-.831c-.086-.335-.129-1.518-.129-3.546v-10.016h4.493v-5.241h-4.492zm15.562 5.159c.654-.46 1.567-.689 2.737-.689 1.731 0 2.909.269 3.534.807.623.538.936 1.439.936 2.703v.655c-1.186.499-3.314 1.038-6.389 1.614-2.277.438-4.021.948-5.23 1.533s-2.148 1.428-2.819 2.527-1.007 2.352-1.007 3.756c0 2.122.738 3.877 2.212 5.266 1.475 1.389 3.491 2.082 6.05 2.082 1.45 0 2.815-.272 4.095-.818s2.48-1.365 3.604-2.457c.046.125.124.382.233.771.249.858.46 1.506.632 1.942h6.506c-.578-1.186-.972-2.297-1.182-3.335-.211-1.037-.316-2.647-.316-4.832l.07-7.676c0-2.854-.293-4.816-.877-5.885-.586-1.068-1.596-1.95-3.031-2.645s-3.619-1.041-6.553-1.041c-3.229 0-5.662.577-7.301 1.731s-2.793 2.933-3.463 5.335l5.967 1.077c.407-1.152.936-1.96 1.592-2.421zm7.207 9.068c0 1.576-.086 2.645-.258 3.206-.249.858-.771 1.584-1.567 2.177-1.077.78-2.208 1.17-3.394 1.17-1.061 0-1.934-.336-2.621-1.007-.686-.67-1.029-1.466-1.029-2.387 0-.936.43-1.708 1.287-2.316.562-.375 1.756-.757 3.58-1.146 1.826-.391 3.16-.726 4.002-1.007v1.31z"/><radialGradient id="a" cx="130.5" cy="125" r="112" gradientUnits="userSpaceOnUse"><stop offset="0" stop-color="#ffa432"/><stop offset="1" stop-color="#f47721"/></radialGradient><circle cx="130.5" cy="125" r="112" fill="url(#a)" fill-rule="evenodd" clip-rule="evenodd"/><linearGradient id="b" x1="68.976" x2="180.483" y1="177.11" y2="65.603" gradientUnits="userSpaceOnUse"><stop offset="0" stop-color="#fdd207"/><stop offset=".5" stop-color="#f68a1f"/><stop offset="1" stop-color="#fdd207"/></linearGradient><path fill="url(#b)" fill-rule="evenodd" d="M184.332 74.862c-11.986 4.55-35.581 21.023-61.227 43.48-25.704 22.507-45.107 44.276-51.152 55.536-.759 2.26-5.467 2.983-5.092.119 1.034-7.896 22.708-33.074 53.121-59.709 29.907-26.191 54.493-43.012 63.455-44.548 2.67-.457 3.479 4.003.895 5.122z" clip-rule="evenodd"/><linearGradient id="c" x1="82.054" x2="193.239" y1="64.14" y2="175.325" gradientUnits="userSpaceOnUse"><stop offset="0" stop-color="#fdd207"/><stop offset=".5" stop-color="#f68a1f"/><stop offset="1" stop-color="#fdd207"/></linearGradient><path fill="url(#c)" fill-rule="evenodd" d="M76.784 74.963c12.15 4.091 36.354 19.655 62.833 41.122 26.54 21.515 46.757 42.531 53.225 53.554.844 2.229 5.576 2.773 5.093-.075-1.333-7.851-23.947-32.188-55.351-57.647-30.881-25.036-56.088-40.91-65.102-42.105-2.686-.358-3.323 4.13-.698 5.151z" clip-rule="evenodd"/><path fill="#BE3D26" fill-rule="evenodd" d="M133 160.75c-18.667 0-35.785-20.25-35.75-33.75.035-13.429 14.08-32.688 25.148-34.313 8.745-1.284 19.727-1.062 24.477.188s23.25 17.25 22.75 29.75c-.58 14.497-11.702 38.125-36.625 38.125z" clip-rule="evenodd"/><g fill="#DF4C26" fill-rule="evenodd" clip-rule="evenodd"><path d="M147.691 93.179c-1.863 2.298-4.833 4.571-7.941 4.571-4.25 0-11 .5-12.5.5s-4.25-1.25-5 1.5-5.5 5.75-6.75 7.5-3.75 5.5-7 6c-2.227.343-5.494 1.022-8.064 1.104 4.789-10.511 14.12-20.516 21.962-21.667 8.745-1.284 19.727-1.062 24.477.188.236.063.516.171.816.304z"/><ellipse cx="118.625" cy="103.375" rx="4.578" ry="5.169" transform="rotate(-131.967 118.622 103.379)"/><ellipse cx="125.29" cy="114.708" rx="2.782" ry="3.141" transform="rotate(-131.967 125.293 114.71)"/><ellipse cx="129.291" cy="98.874" rx="2.467" ry="2.785" transform="rotate(-131.972 129.285 98.871)"/></g><path fill="#F15D22" fill-rule="evenodd" d="M122.398 92.687a80.704 80.704 0 0 1 6.648-.675c-.717.751-1.512 1.45-2.296 1.863-2.375 1.25-9.25 6.125-11.75 8.25s-10.125 9.125-12.625 9.375a.436.436 0 0 1-.417-.167c5.067-9.337 13.355-17.606 20.44-18.646z" clip-rule="evenodd"/><linearGradient id="d" x1="142.226" x2="133.055" y1="155.793" y2="125.798" gradientUnits="userSpaceOnUse"><stop offset="0" stop-color="#a23422"/><stop offset="1" stop-color="#be3d26"/></linearGradient><path fill="url(#d)" fill-rule="evenodd" d="M163.75 121.25c-1.75 0-1.75 5-1.75 5s-4 1.5-5 3-3.25 5-5.75 4.25-8.25-1.75-8.25-1.75l-6.5 2-14.75 2.75s-4.75-1-6-1-7 1.25-8.75 1.25-5.5-3-4.75-.75 8.75 11.5 12.25 13.75 8.5 7.75 19.5 7.75 25.5-12.5 26.75-15.5 6.25-7.875 6.25-14.25c0-3.783-1.5-6.5-3.25-6.5z" clip-rule="evenodd"/><g fill="#A73423" fill-rule="evenodd" clip-rule="evenodd"><circle cx="103.25" cy="128.75" r="3.75"/><circle cx="112.75" cy="137.5" r="4.25"/><circle cx="141" cy="121.502" r="2.857"/><circle cx="152.715" cy="124.929" r="2.571"/><circle cx="155.857" cy="115.506" r="4"/><circle cx="151.857" cy="138.92" r="4"/></g><g fill="#EB6224" fill-rule="evenodd" clip-rule="evenodd"><path d="M126.643 104.128c1.71-1.554 4.101-1.685 5.339-.294 1.237 1.392.854 3.778-.855 5.331-1.71 1.554-4.101 1.685-5.338.294-1.24-1.392-.857-3.778.854-5.331zm-11.98 7.271c1.315-1.194 3.154-1.295 4.106-.226.952 1.07.658 2.905-.658 4.1s-3.153 1.296-4.105.226c-.953-1.069-.658-2.905.657-4.1z"/></g><g fill-rule="evenodd" clip-rule="evenodd"><path fill="#FED208" d="M185 114.875c-2.25-1.5.625-8.25 5.375-6s10.125 7 10 13.875-6 14.75-12 15.125-4.75-7.375-3.25-8.25 6.25-3 6.125-7.25-4-6-6.25-7.5z"/><ellipse cx="187.684" cy="112.076" fill="#F47721" rx="1.391" ry="2.44" transform="rotate(-138.816 187.68 112.076)"/><ellipse cx="187.354" cy="133.343" fill="#F47721" rx="1.494" ry="2.621" transform="rotate(-20.303 187.38 133.353)"/></g><g fill-rule="evenodd" clip-rule="evenodd"><path fill="#FED208" d="M80.342 115.46c2.361-1.319.024-8.273-4.887-6.403-4.912 1.87-10.644 6.184-11.059 13.047s4.824 15.176 10.776 16.021 5.314-6.979 3.888-7.97-5.995-3.481-5.537-7.708c.458-4.228 4.458-5.669 6.819-6.987z"/><ellipse cx="77.887" cy="112.459" fill="#F47721" rx="1.391" ry="2.44" transform="rotate(-36.682 77.88 112.451)"/><ellipse cx="76.545" cy="133.686" fill="#F47721" rx="1.494" ry="2.622" transform="rotate(-155.172 76.545 133.685)"/></g><g fill-rule="evenodd" clip-rule="evenodd"><path fill="#FED208" d="M124.375 63.5c-1.125-2.75-6.125-1.25-7.375 0s-2.375 4.125-1.25 6.375 6.5 10.562 16.5 10.562c11.125 0 17.5-7.688 18.625-11.688s-1.5-4.875-2.625-5.625-5.375-.875-6.5 1.375-5.125 5.5-8.625 5.5c-6 .001-7.625-3.749-8.75-6.499z"/><ellipse cx="119.938" cy="65.625" fill="#F47721" rx="1.75" ry="3.313" transform="rotate(-130.088 119.93 65.621)"/><ellipse cx="146.219" cy="65.917" fill="#F47721" rx="1.517" ry="2.871" transform="rotate(-58.574 146.213 65.92)"/></g><g fill-rule="evenodd" clip-rule="evenodd"><path fill="#FED208" d="M141.1 189.567c1.021 2.79 6.073 1.479 7.369.277 1.297-1.202 2.529-4.032 1.49-6.323-1.04-2.291-6.098-10.8-16.091-11.177-11.117-.419-17.777 7.023-19.052 10.979-1.275 3.954 1.315 4.928 2.411 5.72 1.096.792 5.338 1.076 6.547-1.13s5.329-5.303 8.827-5.171c5.996.227 7.477 4.034 8.499 6.825z"/><ellipse cx="145.614" cy="187.611" fill="#F47721" rx="1.75" ry="3.312" transform="rotate(52.071 145.61 187.607)"/><ellipse cx="119.362" cy="186.329" fill="#F47721" rx="1.516" ry="2.871" transform="rotate(123.594 119.358 186.332)"/></g><path fill="#FDD207" fill-rule="evenodd" d="M71.954 173.879c-.509 1.385 1.188 2.724 2.609 2.184 11.36-3.647 35.213-20.513 61.556-43.318 26.353-22.813 46.073-44.255 51.3-54.972 1.773-2.681-.502-4.029-3.086-2.91-2.424.676-3.1-4.737-.895-5.121 6.172-1.076 10.137 2.313 9.776 6.133-1 10.599-22.599 33.826-53.552 60.931-30.416 26.634-57.869 44.699-66.348 44.699-3.356 0-6.989-3.521-6.453-7.506.366-2.715 5.45-1.505 5.093-.12z" clip-rule="evenodd"/><path fill="#FDD207" fill-rule="evenodd" d="M192.842 169.639c.561 1.364-1.084 2.767-2.523 2.28-11.491-3.213-35.968-19.16-63.158-40.948-27.2-21.796-47.72-42.473-53.351-52.983-1.875-2.611.349-4.045 2.974-3.024 2.448.582 2.917-4.853.699-5.152-6.208-.84-10.042 2.697-9.536 6.5 1.402 10.553 23.867 32.943 55.828 58.853 31.406 25.459 59.525 42.469 67.998 42.146 3.354-.128 6.851-3.784 6.163-7.746-.469-2.7-5.503-1.296-5.094.074z" clip-rule="evenodd"/></svg>