<svg xmlns="http://www.w3.org/2000/svg" role="img" viewBox="29.98 25.98 1925.04 567.04"><title>Padok (member) logo</title><style>svg {isolation:isolate}</style><defs><clipPath id="a"><path d="M0 0h1985.9v619.4H0z"/></clipPath></defs><g clip-path="url(#a)"><path d="M822 1005.5c12.2.4 24.4-3.2 34.1-10.8 8.3-7.2 12.9-17.2 12.9-28v-.7c0-12.9-4.7-23-12.9-29.1-8.3-6.8-19.8-10.1-34.1-10.1h-44.9v78.3l44.9.4zm-82.2-112.8h85.5c11.5-.4 23 1.4 34.1 4.7 9.7 2.9 18.7 8.3 25.9 15.1 7.5 6.1 13.3 14 16.9 23 4 9.3 6.1 19.4 6.1 29.8v.7c.4 11.1-2.2 21.9-6.8 32-4.7 9-11.1 16.9-19 23.7-8.3 6.5-17.6 11.1-27.3 13.7-11.1 3.2-22.6 4.7-34.1 4.7h-43.5v70.1h-37.4l-.4-217.5zm311.9 44.2c-49.6 115-23.7 55.7-74 172.9h-38.8l95.2-218.9h35.9l95.2 218.9h-40.6c-24-57.9-47.8-115.1-72.9-172.9zm241.9 138.7c10.8.4 21.2-1.4 31.3-5.4 8.6-3.6 16.9-8.6 23.7-15.1 6.8-6.5 12.2-14.7 15.1-23.7 3.6-9.3 5.4-19.4 5.4-29.8v-.7c0-10.1-1.8-19.8-5.4-29.1-2.9-9-8.3-17.2-15.1-23.7-6.5-7.2-14.7-12.6-23.7-15.8-10.1-4-20.5-5.7-31.3-5.4h-42.8v148.8l42.8-.1zm-80.5-182.9h81.6c15.8-.4 31.6 2.5 46.4 8.3 13.7 5 26.2 12.6 36.7 23 10.8 9.3 18.7 21.2 23.7 34.1 5.8 13.3 8.6 28 8.3 42.8.4 15.1-2.5 29.8-8.3 43.5-5.4 12.9-13.3 24.8-23.7 34.1-10.4 10.1-23 18-36.7 23-14.7 5.8-30.5 8.6-46.4 8.3h-81.6V892.7zm369.7 185.8c10.1 0 20.5-2.2 29.8-6.1 9-3.6 16.9-9.3 23-16.9 6.8-6.8 11.9-15.1 15.1-24.4 3.6-9.3 5.4-19.4 5.4-29.8v-.7c0-10.1-1.8-20.1-5.4-29.8-3.6-9-8.6-17.2-15.1-24.4-6.8-7.2-14.7-12.6-23.7-16.9-9.3-4.3-19.4-6.1-29.8-6.1-10.1 0-19.8 2.2-29.1 6.1-9 3.6-16.9 9-23.7 15.8-6.1 7.2-11.1 15.5-14.4 24.4-7.2 19.8-7.2 41.3 0 61.1 3.2 9.3 8.3 17.6 15.1 24.4 6.5 7.2 14.4 12.6 23 16.9 9.8 4.2 19.8 6.4 29.8 6.4zm-.6 35.2c-15.8.4-31.6-2.9-46-9-13.7-5.4-25.9-13.3-35.9-23.7-10.1-10.4-18-22.6-23-35.9-5.8-13.7-8.6-28.4-8.3-43.5v-.7c-.4-14.7 2.5-29.1 8.3-42.8 5-13.7 12.9-25.9 23.7-35.9 10.1-10.4 22.3-18.7 35.9-24.4 14.4-6.1 30.2-9.3 46-9 15.8 0 31.6 2.9 46.4 8.3 13.3 6.1 25.5 14.4 35.9 24.4 10.1 10.4 18 22.6 23 35.9 5.4 13.7 8.3 28.4 8.3 43.5 0 14.7-2.9 29.8-8.3 43.5s-13.3 25.9-23.7 35.9c-10.1 10.4-22.3 18.7-35.9 24.4-14.8 6.1-30.7 9.4-46.4 9zm171-221h38.1v108.9l103.5-108.9h46.4l-90.6 93.1 94.5 124.3h-46l-74.7-97.4-33.4 34.1v63.2h-38.1l.3-217.3z"/><path fill="#3A302E" d="M795.4 1440.5c12.2.4 24.4-3.2 34.1-10.8 8.3-7.2 12.9-17.2 12.9-28v-.7c0-12.9-4.7-23-12.9-29.1-8.3-6.8-19.8-10.1-34.1-10.1h-44.9v78.3l44.9.4zm-82.3-112.8h85.5c11.5-.4 23 1.4 34.1 4.7 9.7 2.9 18.7 8.3 25.9 15.1 7.5 6.1 13.3 14 16.9 23 4 9.3 6.1 19.4 6.1 29.8v.7c.4 11.1-2.2 21.9-6.8 32-4.7 9-11.1 16.9-19 23.7-8.3 6.5-17.6 11.1-27.3 13.7-11.1 3.2-22.6 4.7-34.1 4.7h-43.5v70.1h-37.4l-.4-217.5zm311.9 44.2c-49.6 115-23.7 55.7-74 172.9h-38.8l95.2-218.9h35.9l95.2 218.9h-40.6c-24-57.9-47.7-115.1-72.9-172.9zm241.9 138.7c10.8.4 21.2-1.4 31.3-5.4 8.6-3.6 16.9-8.6 23.7-15.1 6.8-6.5 12.2-14.7 15.1-23.7 3.6-9.3 5.4-19.4 5.4-29.8v-.7c0-10.1-1.8-19.8-5.4-29.1-2.9-9-8.3-17.2-15.1-23.7-6.5-7.2-14.7-12.6-23.7-15.8-10.1-4-20.5-5.7-31.3-5.4h-42.8v148.8l42.8-.1zm-80.5-182.9h81.6c15.8-.4 31.6 2.5 46.4 8.3 13.7 5 26.2 12.6 36.7 23 10.8 9.3 18.7 21.2 23.7 34.1 5.8 13.3 8.6 28 8.3 42.8.4 15.1-2.5 29.8-8.3 43.5-5.4 12.9-13.3 24.8-23.7 34.1-10.4 10.1-23 18-36.7 23-14.7 5.8-30.5 8.6-46.4 8.3h-81.6v-217.1zm369.8 185.8c10.1 0 20.5-2.2 29.8-6.1 9-3.6 16.9-9.3 23-16.9 6.8-6.8 11.9-15.1 15.1-24.4 3.6-9.3 5.4-19.4 5.4-29.8v-.7c0-10.1-1.8-20.1-5.4-29.8-3.6-9-8.6-17.2-15.1-24.4-6.8-7.2-14.7-12.6-23.7-16.9-9.3-4.3-19.4-6.1-29.8-6.1-10.1 0-19.8 2.2-29.1 6.1-9 3.6-16.9 9-23.7 15.8-6.1 7.2-11.1 15.5-14.4 24.4-7.2 19.8-7.2 41.3 0 61.1 3.2 9.3 8.3 17.6 15.1 24.4 6.5 7.2 14.4 12.6 23 16.9 9.7 4.2 19.7 6.4 29.8 6.4zm-.7 35.2c-15.8.4-31.6-2.9-46-9-13.7-5.4-25.9-13.3-35.9-23.7-10.1-10.4-18-22.6-23-35.9-5.8-13.7-8.6-28.4-8.3-43.5v-.7c-.4-14.7 2.5-29.1 8.3-42.8 5-13.7 12.9-25.9 23.7-35.9 10.1-10.4 22.3-18.7 35.9-24.4 14.4-6.1 30.2-9.3 46-9 15.8 0 31.6 2.9 46.4 8.3 13.3 6.1 25.5 14.4 35.9 24.4 10.1 10.4 18 22.6 23 35.9 5.4 13.7 8.3 28.4 8.3 43.5 0 14.7-2.9 29.8-8.3 43.5s-13.3 25.9-23.7 35.9c-10.1 10.4-22.3 18.7-35.9 24.4-14.8 6.1-30.6 9.4-46.4 9zm171-221h38.1v108.9l103.5-108.9h46.4l-90.6 93.1 94.5 124.3h-46l-74.7-97.4-33.4 34.1v63.2h-38.1l.3-217.3z"/><path fill="#4F3E92" d="M313.5 1189.7c135.8 0 246.1 110.3 246.1 246.5 0 65.4-26.2 127.9-72.2 174.3-46 46.4-108.5 72.2-173.9 72.2-7.2 0-14.4-.7-21.2-1.4v-136.6c6.8 1.4 14 2.2 21.2 2.2 61.1-1.1 110-51.7 108.9-112.8-1.1-59.7-49.2-107.8-108.9-108.9v-42.4c84.8.4 153.5 69.4 153.1 154.2 0 40.6-16.2 79.4-44.9 108.2-23.4 23.4-53.9 38.8-87 43.5v50.2c46-5 89.1-25.9 121.8-58.6 79.4-79.4 79.4-208.1 0-287.1-79.4-79-208.1-79.4-287.1 0-79.4 79.4-79.4 208.1 0 287.1 22.3 22.3 49.2 39.2 79.4 49.6v44.6c-41.3-11.5-79.1-33.8-109.6-64-95.6-96.3-95.6-251.9 0-348.2 46-46.7 108.9-73 174.3-72.6z"/><g><path fill="#3A302E" d="M795.4 314c12.2.4 24.4-3.2 34.1-10.8 8.3-7.2 12.9-17.2 12.9-28v-.7c0-12.9-4.7-23-12.9-29.1-8.3-6.8-19.8-10.1-34.1-10.1h-44.9v78.3l44.9.4zm-82.3-112.8h85.5c11.5-.4 23 1.4 34.1 4.7 9.7 2.9 18.7 8.3 25.9 15.1 7.5 6.1 13.3 14 16.9 23 4 9.3 6.1 19.4 6.1 29.8v.7c.4 11.1-2.2 21.9-6.8 32-4.7 9-11.1 16.9-19 23.7-8.3 6.5-17.6 11.1-27.3 13.7-11.1 3.2-22.6 4.7-34.1 4.7h-43.5v70.1h-37.4l-.4-217.5zm311.9 44.2c-49.6 115-23.7 55.7-74 172.9h-38.8l95.2-218.9h35.9l95.2 218.9h-40.6c-24-57.9-47.7-115.1-72.9-172.9zm241.9 138.7c10.8.4 21.2-1.4 31.3-5.4 8.6-3.6 16.9-8.6 23.7-15.1 6.8-6.5 12.2-14.7 15.1-23.7 3.6-9.3 5.4-19.4 5.4-29.8v-.7c0-10.1-1.8-19.8-5.4-29.1-2.9-9-8.3-17.2-15.1-23.7-6.5-7.2-14.7-12.6-23.7-15.8-10.1-4-20.5-5.7-31.3-5.4h-42.8v148.8l42.8-.1zm-80.5-182.9h81.6c15.8-.4 31.6 2.5 46.4 8.3 13.7 5 26.2 12.6 36.7 23 10.8 9.3 18.7 21.2 23.7 34.1 5.8 13.3 8.6 28 8.3 42.8.4 15.1-2.5 29.8-8.3 43.5-5.4 12.9-13.3 24.8-23.7 34.1-10.4 10.1-23 18-36.7 23-14.7 5.8-30.5 8.6-46.4 8.3h-81.6V201.2zM1556.2 387c10.1 0 20.5-2.2 29.8-6.1 9-3.6 16.9-9.3 23-16.9 6.8-6.8 11.9-15.1 15.1-24.4 3.6-9.3 5.4-19.4 5.4-29.8v-.7c0-10.1-1.8-20.1-5.4-29.8-3.6-9-8.6-17.2-15.1-24.4-6.8-7.2-14.7-12.6-23.7-16.9-9.3-4.3-19.4-6.1-29.8-6.1-10.1 0-19.8 2.2-29.1 6.1-9 3.6-16.9 9-23.7 15.8-6.1 7.2-11.1 15.5-14.4 24.4-7.2 19.8-7.2 41.3 0 61.1 3.2 9.3 8.3 17.6 15.1 24.4 6.5 7.2 14.4 12.6 23 16.9 9.7 4.2 19.7 6.4 29.8 6.4zm-.7 35.2c-15.8.4-31.6-2.9-46-9-13.7-5.4-25.9-13.3-35.9-23.7-10.1-10.4-18-22.6-23-35.9-5.8-13.7-8.6-28.4-8.3-43.5v-.7c-.4-14.7 2.5-29.1 8.3-42.8 5-13.7 12.9-25.9 23.7-35.9 10.1-10.4 22.3-18.7 35.9-24.4 14.4-6.1 30.2-9.3 46-9 15.8 0 31.6 2.9 46.4 8.3 13.3 6.1 25.5 14.4 35.9 24.4 10.1 10.4 18 22.6 23 35.9 5.4 13.7 8.3 28.4 8.3 43.5 0 14.7-2.9 29.8-8.3 43.5s-13.3 25.9-23.7 35.9c-10.1 10.4-22.3 18.7-35.9 24.4-14.8 6.1-30.6 9.4-46.4 9zm171-221h38.1v108.9l103.5-108.9h46.4l-90.6 93.1 94.5 124.3h-46l-74.7-97.4-33.4 34.1v63.2h-38.1l.3-217.3z"/><path fill="#5B28BC" d="M313.5 63.2c135.8 0 246.1 110.3 246.1 246.5 0 65.4-26.2 127.9-72.2 174.3-46 46.4-108.5 72.2-173.9 72.2-7.2 0-14.4-.7-21.2-1.4V418.2c6.8 1.4 14 2.2 21.2 2.2 61.1-1.1 110-51.7 108.9-112.8-1.1-59.7-49.2-107.8-108.9-108.9v-42.4c84.8.4 153.5 69.4 153.1 154.2 0 40.6-16.2 79.4-44.9 108.2-23.4 23.4-53.9 38.8-87 43.5v50.2c46-5 89.1-25.9 121.8-58.6 79.4-79.4 79.4-208.1 0-287.1-79.4-79-208.1-79.4-287.1 0-79.4 79.4-79.4 208.1 0 287.1 22.3 22.3 49.2 39.2 79.4 49.6V548c-41.3-11.5-79.1-33.8-109.6-64-95.6-96.3-95.6-251.9 0-348.2 46-46.7 108.9-73 174.3-72.6z"/></g></g></svg>