<svg xmlns="http://www.w3.org/2000/svg" role="img" viewBox="-6.70 8.30 413.14 228.14"><title>Palo Alto Networks (member) logo</title><style>svg {enable-background:new 0 0 400 245}</style><style>.st1{fill:#fff}</style><g id="XMLID_139_"><path id="XMLID_184_" fill="#008cc1" d="M11.4 54.1h377.1v136.8H11.4z" transform="rotate(-12 200.012 122.507)"/><path id="XMLID_183_" d="M257.9 156.7l2-.4s-1.6-7.5-1.8-8.4c.7.6 8.4 7 8.4 7l2.1-.4-2.4-11.4-2 .4s1.6 7.5 1.8 8.4c-.7-.6-8.4-7-8.4-7l-2.1.5 2.4 11.3z" class="st1"/><path id="XMLID_182_" d="M271.2 153.9l9.1-1.9-.4-1.8s-6.8 1.4-7.2 1.5l-.7-3.2 6.8-1.4-.4-1.8-6.8 1.4c-.1-.3-.5-2.5-.6-2.8.4-.1 7-1.5 7-1.5l-.4-1.8-9 1.9 2.6 11.4z" class="st1"/><path id="XMLID_181_" d="M280.1 142s3.7-.8 4-.9c.1.4 2 9.5 2 9.5l2-.4s-1.9-9.2-2-9.5c.3-.1 4-.9 4-.9l-.4-1.8-10.1 2.1.5 1.9z" class="st1"/><path id="XMLID_180_" d="M297.4 148.3l2-.4s.9-8.3 1-9.3c.5.8 4.7 8.1 4.7 8.1l2-.4 1.3-12.1-2.1.4s-.7 8.1-.8 9.1c-.5-.9-4.6-7.9-4.6-7.9l-2.2.5s-.8 8.1-.9 9.1c-.5-.9-4.4-8-4.4-8l-2.1.5 6.1 10.4z" class="st1"/><path id="XMLID_177_" d="M315.2 132.4c-1.9.4-3.3 1.3-4.2 2.6-.8 1.3-1.1 2.9-.7 4.6.4 1.7 1.2 3.1 2.5 3.9 1.3.9 3 1.1 4.9.7 4.5-1 5.5-4.5 4.9-7.2-.6-2.7-2.9-5.5-7.4-4.6M314 142c-.9-.6-1.4-1.5-1.7-2.8-.3-1.3-.1-2.3.4-3.2.6-.9 1.6-1.5 2.8-1.8 2.6-.5 4.5.7 5 3.3.5 2.6-.7 4.5-3.3 5-1.2.3-2.3.1-3.2-.5" class="st1"/><path id="XMLID_174_" d="M326 142.3l2-.4s-.9-4.3-1-4.7l4-.8c1.1-.2 1.9 0 2.4 2l.1.4c.3 1.1.4 1.5.7 1.8l.1.1 2.2-.5-.3-.3c-.4-.3-.6-.8-1.1-2.8-.3-1.2-1-1.9-1.8-2.1.9-.7 1.2-1.8 1-3-.3-1.4-1.5-2.9-3.8-2.4l-6.8 1.4 2.3 11.3zm-.1-10c.4-.1 4.3-.9 4.3-.9 1.1-.2 1.8.2 2 1.2.1.6.1 1.6-1.4 1.9 0 0-3.9.8-4.2.9-.1-.3-.6-2.7-.7-3.1" class="st1"/><path id="XMLID_173_" d="M338.7 139.6l2-.4s-.7-3.5-.8-3.7c.1-.1 1.2-1.7 1.4-1.9.3.2 5.4 4.3 5.4 4.3l2.7-.6s-6.6-5.2-6.9-5.4c.2-.3 4.3-5.9 4.3-5.9l-2.8.6s-4.1 5.8-4.6 6.5l-1.1-5.3-2 .4 2.4 11.4z" class="st1"/><path id="XMLID_172_" d="M349.2 128.9c.5 2.5 3.1 2.4 4 2.4l2.5-.1c1.4 0 2 .3 2.1 1 .1.4 0 .7-.2 1-.4.6-1.1 1-2.2 1.2-1.2.3-3.3.4-3.7-1.6v-.2l-2 .4v.2c.2 1.1.8 2 1.6 2.5 1.3.9 3.1.8 4.4.5 1-.2 2.7-.8 3.6-2.1.5-.8.6-1.7.4-2.7-.5-2.4-3.1-2.3-4-2.3l-2.7.1c-1.5.1-1.8-.5-1.9-.9-.1-.4 0-.7.2-1 .3-.5 1-.9 1.8-1.1 2.4-.5 3.1.5 3.4 1.2l.1.2 2-.4-.1-.2c-.6-2.3-2.6-3.2-5.5-2.6-2.8.6-4.3 2.3-3.8 4.5" class="st1"/><path id="XMLID_169_" d="M153.5 117.9c-2.3-1.6-5.7-2.1-9.1-1.4-3.8.8-6.4 2.4-8.3 6.2l-.4-2.1c-1-.9-2.4-1.3-3.8-1-1.4.3-2.5 1.2-3 2.5l10.2 48.2 7-1.5-3.8-18c3.2 2.5 6.3 2.9 10 2.1 3.5-.7 6.2-2.6 7.7-4.9 2.7-4.3 1.8-10.5.7-15.9-1.3-5.4-3-11.4-7.2-14.2m-4.6 29c-6.3 1.3-8.4-4-9.8-10.3s-1.5-12 4.7-13.3c6.3-1.3 8.3 3.9 9.7 10.2 1.4 6.3 1.7 12.1-4.6 13.4" class="st1"/><path id="XMLID_166_" d="M189.9 144.4l-.7-3.2c-2 3.1-4.2 4.7-8.5 5.6s-7.4.5-10-1.2c-2.2-1.5-3.7-4-4.4-7.1-1.3-6 1.9-11.1 9.8-12.8l9.2-1.9-.5-2.5c-1-4.5-3.6-6.2-9-5-3.8.8-5.5 2.1-6.9 5l-5.5-3.4c2.4-4.6 5.6-6.5 11.4-7.8 9.5-2 15.2 1.1 16.9 9.2l5 23.7-6.8 1.4zm-3.5-15.6l-8.1 1.7c-4.1.9-5.8 3.2-5.1 6.4.7 3.2 3.1 4.6 7.4 3.7 2.7-.6 4.6-1.2 6.1-3.4.8-1.3.9-3.1.4-5.6l-.7-2.8z" class="st1"/><path id="XMLID_165_" d="M213 133.1c-2.8.6-4.1-.6-4.6-3.3L200 90.2c-1-.9-2.4-1.3-3.9-1-1.4.3-2.5 1.3-3.1 2.5l8.5 40.1c1.1 5.3 5 9.2 11.6 7.8l4.3-.9-1.3-6.1-3.1.5z" class="st1"/><path id="XMLID_162_" d="M243.8 129c-1.7 2.9-4.8 5.4-9.5 6.4s-8.5-.1-11.2-2c-4-2.8-5.8-7.1-7.1-13.1-1.3-6-1.4-10.6 1.1-14.8 1.7-2.9 4.7-5.4 9.4-6.4s8.5.1 11.3 2c4 2.8 5.8 7.1 7.1 13.1 1.4 5.9 1.5 10.6-1.1 14.8m-10.3-22.6c-1.6-1.1-3.5-1.4-5.6-.9-2 .4-3.6 1.5-4.6 3.1-1.7 2.6-1.1 6.4-.3 10.2.8 3.9 1.9 7.5 4.5 9.2 1.6 1.1 3.5 1.5 5.5 1 2.1-.4 3.7-1.6 4.7-3.2 1.7-2.6 1.1-6.4.3-10.2-.8-3.9-1.9-7.5-4.5-9.2" class="st1"/><path id="XMLID_161_" d="M298.4 115c-2.8.6-4.1-.6-4.6-3.3L285.3 72c-1-.9-2.4-1.3-3.9-1-1.4.3-2.5 1.3-3.1 2.5l8.5 40.1c1.1 5.3 5 9.2 11.6 7.8l4.3-.9-1.3-6.1-3 .6z" class="st1"/><path id="XMLID_158_" d="M274.3 126.5l-.7-3.2c-2 3.1-4.1 4.7-8.5 5.6-4.3.9-7.4.5-10-1.2-2.2-1.5-3.7-4-4.4-7.1-1.3-6 1.9-11.1 9.8-12.8l9.2-1.9-.5-2.5c-1-4.5-3.6-6.2-9-5-3.8.8-5.5 2.1-6.9 5l-5.5-3.4c2.4-4.6 5.6-6.5 11.4-7.8 9.5-2 15.2 1.1 16.9 9.2l5 23.7-6.8 1.4zm-3.5-15.7l-8.1 1.7c-4.1.9-5.8 3.2-5.1 6.4.7 3.2 3.1 4.6 7.4 3.7 2.7-.6 4.6-1.2 6.1-3.4.8-1.3.9-3.1.4-5.6l-.7-2.8z" class="st1"/><path id="XMLID_157_" d="M315.9 86.9l-1.2-5.5-6.7 1.4-2.3-10.8c-1-.9-2.4-1.3-3.9-1-1.4.3-2.5 1.3-3.1 2.5l2.3 10.8-4 .8 1.2 5.5 4-.8 4.2 19.5c1.1 5.1 5.1 9.2 11.6 7.9l4.2-.9-1.3-6.1-2.9.6c-2.6.6-4.2-.7-4.7-3.3l-4.1-19.2 6.7-1.4z" class="st1"/><path id="XMLID_154_" d="M350.3 106.4c-1.7 2.9-4.8 5.4-9.5 6.4s-8.5-.1-11.2-2c-4-2.8-5.8-7.1-7.1-13.1-1.3-6-1.4-10.6 1.1-14.8 1.8-2.9 4.7-5.4 9.4-6.4s8.5.1 11.3 2c4 2.8 5.8 7.1 7.1 13.1 1.3 5.9 1.4 10.6-1.1 14.8M340 83.7c-1.6-1.1-3.5-1.4-5.6-.9-2 .4-3.6 1.5-4.6 3.1-1.7 2.6-1.1 6.4-.3 10.2.8 3.9 1.9 7.5 4.5 9.2 1.6 1.1 3.5 1.5 5.5 1 2.1-.4 3.7-1.6 4.7-3.2 1.7-2.6 1.1-6.4.3-10.2-.9-3.8-1.9-7.4-4.5-9.2" class="st1"/><path id="XMLID_149_" d="M365.6 129.2c-1.9.4-3.7-.8-4.1-2.7-.4-1.9.8-3.8 2.6-4.1 1.9-.4 3.7.8 4.1 2.7.4 1.8-.7 3.7-2.6 4.1m-1.3-6.4c-1.6.3-2.5 1.9-2.2 3.5.3 1.6 1.9 2.7 3.4 2.3 1.6-.3 2.5-1.9 2.2-3.5-.3-1.6-1.9-2.6-3.4-2.3m1.8 4.7l-1.2-1.4-.6.1.3 1.5-.5.1-.8-3.8 1.3-.3c.6-.1 1.3.2 1.4.9.1.6-.1 1-.6 1.2l1.2 1.4-.5.3zm-1.4-3.2l-.7.1.3 1.3.7-.1c.4-.1.6-.4.6-.8-.2-.4-.5-.6-.9-.5" class="st1"/><g id="XMLID_140_"><path id="XMLID_141_" d="M112 143.5c-.1-1.6 1.1-3.2 2.7-3.6l-4.8-22.4c-1.2-5.8-6.9-9.5-12.6-8.3l-45.6 9.7c-5.7 1.2-9.4 6.9-8.1 12.7l9.8 46.1c1.2 5.8 6.9 9.5 12.6 8.3l45.6-9.7c5.7-1.2 9.3-6.9 8.1-12.7l-3.1-14.5c-.4.4-.9.6-1.4.7-1.6.3-2.9-.7-3-2.4l-.2-3.9m-52.8 17.3l.2 3.8c.1 1.7-1.2 3.3-2.8 3.6-1.6.3-2.9-.7-3-2.4l-.2-3.8c-.1-1.7 1.2-3.3 2.8-3.6 1.6-.3 3 .7 3 2.4m9.8-2.1l.5 13.4c.1 1.7-1.2 3.3-2.8 3.6-1.6.3-2.9-.7-3-2.4l-.4-13.3c-.1-1.7 1.2-3.3 2.8-3.6 1.5-.4 2.9.7 2.9 2.3m9.6-8.2l1 25.7c.1 1.7-1.2 3.3-2.8 3.6-1.6.3-2.9-.7-3-2.4l-1-25.7c-.1-1.7 1.2-3.3 2.8-3.6 1.6-.3 2.9.8 3 2.4m9.3-14.3l1.3 34.6c.1 1.7-1.2 3.3-2.8 3.6-1.6.3-2.9-.7-3-2.4l-1.3-34.6c-.1-1.7 1.2-3.3 2.8-3.6 1.6-.3 3 .8 3 2.4m9.7-5.3l1 25.7c.1 1.7-1.2 3.3-2.8 3.6-1.6.3-2.9-.7-3-2.4l-1-25.7c-.1-1.7 1.2-3.3 2.8-3.6 1.6-.4 2.9.7 3 2.4m10.1 4.1l.5 13.4c.1 1.7-1.2 3.3-2.8 3.6-1.6.3-2.9-.7-3-2.4l-.5-13.4c-.1-1.7 1.2-3.3 2.8-3.6 1.5-.4 2.9.7 3 2.4" class="st1"/></g></g></svg>