<svg xmlns="http://www.w3.org/2000/svg" role="img" xmlns:xlink="http://www.w3.org/1999/xlink" viewBox="1.32 119.82 997.36 720.36"><title>Pandora2.0 logo</title><defs><path id="a" d="M0 447.975h991.232V0H0z"/></defs><g fill="none" fill-rule="evenodd"><path fill="#2C6DD2" fill-rule="nonzero" d="M223.88 690.48c30.6 0 45.9 12.96 45.9 39.06 0 26.28-15.48 39.42-46.26 39.42h-33.3V819H170.6V690.48zm-1.62 16.74h-32.04v45h32.04c9.72 0 16.74-1.8 21.24-5.4 4.32-3.6 6.66-9.36 6.66-17.28 0-7.92-2.34-13.68-6.84-16.92-4.5-3.6-11.52-5.4-21.06-5.4zm105.84 16.2c13.68 0 23.76 3.42 30.24 10.26 5.58 5.94 8.46 14.58 8.46 25.92V819h-17.64v-13.14c-3.6 4.68-8.1 8.46-13.5 11.16-6.12 2.88-13.32 4.5-21.6 4.5-9.72 0-17.28-2.52-22.68-7.38-5.94-4.86-8.82-11.16-8.82-18.9 0-10.44 4.14-18.54 12.42-24.12 7.56-5.4 18.36-8.1 32.04-8.46l20.88-.54v-3.78c0-12.96-7.02-19.44-21.06-19.44-5.94 0-10.8 1.08-14.4 3.24-4.32 2.52-7.02 6.3-8.1 11.52l-18.9-1.62c1.98-10.08 7.02-17.64 14.94-22.32 6.84-4.32 16.2-6.3 27.72-6.3zm19.8 52.56l-19.62.54c-17.46.36-26.1 6.48-26.1 18 0 3.6 1.44 6.48 4.5 8.82 2.88 2.34 6.84 3.6 11.7 3.6 8.1 0 14.94-2.52 20.7-7.38 5.76-4.86 8.82-10.98 8.82-18.18v-5.4zM407.66 819v-55.98c.72-7.56 3.42-13.5 7.74-17.82 3.96-3.96 8.82-5.76 14.22-5.76 14.4 0 21.78 7.92 21.78 23.76V819h19.08v-57.42c0-25.56-11.7-38.16-34.74-38.16-5.76 0-10.98 1.08-15.66 3.6-4.68 2.34-8.82 5.76-12.42 10.44v-11.52h-19.08V819h19.08zM578.3 687.96V819h-17.82v-11.16c-6.48 9-16.2 13.68-28.8 13.68-13.68 0-24.48-4.86-32.22-14.58-7.2-9-10.8-20.7-10.8-34.92 0-13.68 3.42-25.02 10.62-34.02 7.56-9.72 18.18-14.58 31.5-14.58 11.34 0 20.88 5.4 28.44 16.38v-51.84h19.08zm-43.2 50.94c-9.36 0-16.38 3.06-20.88 9.54-3.96 5.4-5.94 13.32-5.94 23.58 0 10.26 1.8 18.18 5.58 23.94 4.32 6.66 11.34 10.08 20.7 10.08 8.28 0 14.58-3.42 19.26-9.9 3.96-5.94 5.94-13.5 5.94-22.86v-1.62c0-10.08-2.52-18.18-7.2-24.3-4.68-5.76-10.44-8.46-17.46-8.46zm107.64-15.48c14.04 0 25.38 4.68 33.84 14.04 8.28 9.18 12.6 20.88 12.6 35.1 0 14.04-4.14 25.74-12.42 34.74-8.64 9.36-19.98 14.22-34.02 14.22-14.04 0-25.38-4.86-34.02-14.22-8.28-9-12.42-20.7-12.42-34.74 0-14.22 4.14-25.92 12.6-35.1 8.46-9.36 19.8-14.04 33.84-14.04zm0 15.66c-8.82 0-15.66 3.42-20.52 10.44-4.32 5.94-6.3 13.68-6.3 23.04s1.98 16.92 6.3 22.86c4.86 6.84 11.7 10.44 20.52 10.44s15.66-3.6 20.7-10.44c4.32-6.12 6.48-13.68 6.48-22.86 0-9.36-2.16-17.1-6.48-23.04-5.04-7.02-11.88-10.44-20.7-10.44zm83.7 79.92v-49.32c0-8.1 2.34-14.76 7.2-19.8 4.5-4.68 9.72-7.02 15.48-7.02 4.32 0 8.82.54 13.5 1.98v-19.08c-3.24-1.62-7.38-2.34-12.06-2.34-5.76 0-10.8 1.62-15.12 5.22-3.6 2.52-6.66 6.3-9 11.34v-14.04h-19.08V819h19.08zm89.82-95.58c13.68 0 23.76 3.42 30.24 10.26 5.58 5.94 8.46 14.58 8.46 25.92V819h-17.64v-13.14c-3.6 4.68-8.1 8.46-13.5 11.16-6.12 2.88-13.32 4.5-21.6 4.5-9.72 0-17.28-2.52-22.68-7.38-5.94-4.86-8.82-11.16-8.82-18.9 0-10.44 4.14-18.54 12.42-24.12 7.56-5.4 18.36-8.1 32.04-8.46l20.88-.54v-3.78c0-12.96-7.02-19.44-21.06-19.44-5.94 0-10.8 1.08-14.4 3.24-4.32 2.52-7.02 6.3-8.1 11.52l-18.9-1.62c1.98-10.08 7.02-17.64 14.94-22.32 6.84-4.32 16.2-6.3 27.72-6.3zm19.8 52.56l-19.62.54c-17.46.36-26.1 6.48-26.1 18 0 3.6 1.44 6.48 4.5 8.82 2.88 2.34 6.84 3.6 11.7 3.6 8.1 0 14.94-2.52 20.7-7.38 5.76-4.86 8.82-10.98 8.82-18.18v-5.4z"/><g transform="translate(16 139)"><path fill="#2C6DD2" d="M496.25236 71.5501c85.47827 0 154.83741 67.6787 155.4395 151.30422h13.12996c-.6021-90.78485-75.85442-164.21927-168.56946-164.21927-92.78667 0-168.03899 73.43442-168.64109 164.21927h13.20159c.60403-83.62553 69.96317-151.30421 155.4395-151.30421m0 304.87547c-81.15325 0-147.76326-61.00917-154.81417-138.8112H328.1727c7.08383 84.97104 79.6122 151.72626 168.07965 151.72626 88.39776 0 160.9242-66.75522 168.00608-151.72626h-13.18996c-7.05479 77.80203-73.66093 138.8112-154.81612 138.8112"/><path fill="#2C6DD2" d="M316.8537 222.8549c.61758-97.63248 80.70022-176.509 179.36265-176.509 98.66244 0 178.74314 78.87652 179.36266 176.509h46.797C721.7584 99.68658 620.73793 0 496.21634 0c-124.52158 0-225.544 99.68658-226.16158 222.8549h46.79893zm358.17239 14.76006c-7.0393 91.7122-84.39799 164.01405-178.80896 164.01405-94.41291 0-171.7716-72.30186-178.8109-164.01405H270.4834c7.11867 117.3429 105.45392 210.35995 225.73373 210.35995 120.2798 0 218.61312-93.01705 225.72985-210.35995h-46.9209z"/><mask id="b" fill="#fff"><use xlink:href="#a"/></mask><path fill="#2C6DD2" d="M295.012 222.855h395v-22.142h-395z" mask="url(#b)"/><path fill="#2C6DD2" d="M700.56464 126.91216s29.81053 73.80225 126.70539 81.18229c23.49336 1.78692 67.0766 7.38003 163.96178 14.76006H678.20577l22.35887-95.94235zM290.66 134.29238s-29.81052 66.42223-126.69764 73.80226c-23.50304 1.78693-67.0766 7.38003-163.96178 14.76006h313.01829L290.66 134.29238z" mask="url(#b)"/></g></g></svg>