<svg xmlns="http://www.w3.org/2000/svg" role="img" viewBox="2.96 8.96 938.08 248.58"><title>Percona Server for MySQL logo</title><circle cx="127.1" cy="133.5" r="106.1" fill="#FFF"/><linearGradient id="a" x1="127.085" x2="127.085" y1="30.809" y2="235.04" gradientUnits="userSpaceOnUse"><stop offset=".005" stop-color="#ffb700"/><stop offset=".016" stop-color="#fbac00"/><stop offset=".057" stop-color="#ee8d00"/><stop offset=".102" stop-color="#e47200"/><stop offset=".154" stop-color="#db5c00"/><stop offset=".214" stop-color="#d44b00"/><stop offset=".289" stop-color="#cf3f00"/><stop offset=".393" stop-color="#cd3800"/><stop offset=".684" stop-color="#cc3600"/><stop offset="1" stop-color="#cc3600"/></linearGradient><path fill="url(#a)" d="M127.1 27.4C68.5 27.4 21 74.9 21 133.5c0 36.1 18.1 68 45.7 87.2v-87.2c0-33.4 27.1-60.4 60.4-60.4s60.4 27.1 60.4 60.4c0 33.4-27.1 60.4-60.4 60.4-13.5 0-25.9-4.5-36-11.9v51.3c11.2 4 23.3 6.3 36 6.3 58.6 0 106.1-47.5 106.1-106.1 0-58.6-47.5-106.1-106.1-106.1z"/><circle cx="127.1" cy="133.5" r="35.3" fill="#FFB700"/><path fill="#E0A000" d="M127.1 101.6c18.9 0 34.3 14.9 35.3 33.6 0-.6.1-1.2.1-1.7 0-19.5-15.8-35.3-35.3-35.3S91.7 114 91.7 133.5c0 .6.1 1.2.1 1.7.9-18.7 16.4-33.6 35.3-33.6z"/><path fill="#292C2E" d="M300.1 169V98h29.7c16.2 0 26.6 9.5 26.6 24.2 0 14.5-11 24.6-26.6 24.6h-13.9V169h-15.8zm28.8-35.6c7.4 0 11.7-4.1 11.7-11.2 0-7-4.2-10.8-11.7-10.8h-13v22.1h13zm61.8 35.6V98H441v13.5h-34.5v14.8H438v13.6h-31.5v15.7h34.6V169zm127.1 0l-12.6-22h-12.9v22h-15.8V98h32.2c15.8 0 25.9 9.6 25.9 24.5 0 9.7-4.9 17.7-13.2 21.7l14.7 24.8h-18.3zM507 133.8c7.4 0 11.8-4.3 11.8-11.4 0-7.1-4.3-11.1-11.8-11.1h-14.7v22.6H507zm189 36.6c-19.3 0-31.8-12.5-31.8-31.9v-10.1c0-19.4 12.5-31.9 31.8-31.9 19.6 0 31.8 12.2 31.8 31.9v10.1c0 19.7-12.2 31.9-31.8 31.9zm0-60.3c-10.1 0-16 6.5-16 17.7v11.4c0 11.3 5.8 17.7 16 17.7 10.1 0 16-6.5 16-17.7v-11.4c0-11.3-5.8-17.7-16-17.7zM807.7 169l-28.5-43.6V169h-15.5V98h14.6l28.6 43.6V98h15.5v71zm99.6 0l-4.6-14.5h-25.4l-4.6 14.5h-15.8l25.5-71h15.4l25.5 71h-16zm-8.8-27.4l-8.5-26.9-8.6 26.9h17.1z"/><g><path fill="#292C2E" d="M616.2 144c-1.2 8.2-6.7 13.1-15 13.1-13.5 0-15.5-11.2-15.5-17.9V128c0-6.7 2-17.9 15.5-17.9 8.2 0 13.8 4.9 15 13l14.7-2.2c-2-14.4-13.8-24.2-29.6-24.2-19.5 0-31.2 11.9-31.2 32v9.9c0 20 11.7 32 31.2 32 15.9 0 27.7-9.8 29.6-24.2l-14.7-2.4z"/></g></svg>