<svg xmlns="http://www.w3.org/2000/svg" role="img" viewBox="203.65 181.15 2150.20 567.70"><title>Percona (member) logo</title><defs><clipPath id="a" clipPathUnits="userSpaceOnUse"><path d="M3664.15 5324.57c-1008.06 0-1825.25-817.19-1825.25-1825.25 0-621.62 310.99-1170.33 785.61-1499.93v1499.93c0 574.18 465.46 1039.64 1039.64 1039.64 574.18 0 1039.64-465.46 1039.64-1039.64 0-574.18-465.46-1039.64-1039.64-1039.64-232.06 0-445.62 76.96-618.61 205.47v-883.37c193.2-69.6 401.43-107.72 618.61-107.72 1008.06 0 1825.25 817.2 1825.25 1825.26s-817.19 1825.25-1825.25 1825.25z"/></clipPath></defs><g transform="matrix(1.33333 0 0 -1.33333 0 933.333) scale(.1)"><path fill="#fff" fill-opacity="1" fill-rule="nonzero" stroke="none" d="M5489.43 3500.66c0-1008.07-817.21-1825.28-1825.28-1825.28-1008.07 0-1825.28 817.21-1825.28 1825.28 0 1008.07 817.21 1825.28 1825.28 1825.28 1008.07 0 1825.28-817.21 1825.28-1825.28"/><g fill-opacity="1" fill-rule="nonzero" stroke="none" clip-path="url(#a)"><path fill="#d7c718" d="M1838.9 5266.19h3650.5v58.3789H1838.9z"/><path fill="#d7c718" d="M1838.9 5252.46h3650.5v13.7266H1838.9z"/><path fill="#d5c218" d="M1838.9 5238.74h3650.5v13.7266H1838.9z"/><path fill="#d4bd18" d="M1838.9 5225.01h3650.5v13.7266H1838.9z"/><path fill="#d3b818" d="M1838.9 5211.29h3650.5v13.7266H1838.9z"/><path fill="#d2b319" d="M1838.9 5197.56h3650.5v13.7266H1838.9z"/><path fill="#d1af19" d="M1838.9 5183.83h3650.5v13.7266H1838.9z"/><path fill="#cfa919" d="M1838.9 5170.11h3650.5v13.7266H1838.9z"/><path fill="#cea518" d="M1838.9 5156.38h3650.5v13.7266H1838.9z"/><path fill="#cea218" d="M1838.9 5142.65h3650.5v13.7266H1838.9z"/><path fill="#cb9d18" d="M1838.9 5128.93h3650.5v13.7266H1838.9z"/><path fill="#c99819" d="M1838.9 5115.2h3650.5v13.7266H1838.9z"/><path fill="#c89419" d="M1838.9 5101.47h3650.5v13.7266H1838.9z"/><path fill="#c88f1a" d="M1838.9 5087.75h3650.5v13.7266H1838.9z"/><path fill="#c78b1a" d="M1838.9 5074.02h3650.5v13.7266H1838.9z"/><path fill="#c5881b" d="M1838.9 5060.3h3650.5v13.7227H1838.9z"/><path fill="#c5831b" d="M1838.9 5046.57h3650.5v13.7266H1838.9z"/><path fill="#c37f1b" d="M1838.9 5032.84h3650.5v13.7266H1838.9z"/><path fill="#c27b1c" d="M1838.9 5019.12h3650.5v13.7266H1838.9z"/><path fill="#c1771c" d="M1838.9 5005.39h3650.5v13.7266H1838.9z"/><path fill="#c0741c" d="M1838.9 4991.66h3650.5v13.7266H1838.9z"/><path fill="#bf711c" d="M1838.9 4977.94h3650.5v13.7266H1838.9z"/><path fill="#bf6d1d" d="M1838.9 4964.21h3650.5v13.7266H1838.9z"/><path fill="#be6a1d" d="M1838.9 4950.48h3650.5v13.7266H1838.9z"/><path fill="#bc661d" d="M1838.9 4936.76h3650.5v13.7266H1838.9z"/><path fill="#bb631d" d="M1838.9 4923.03h3650.5v13.7266H1838.9z"/><path fill="#ba601e" d="M1838.9 4909.3h3650.5v13.7266H1838.9z"/><path fill="#ba5d1e" d="M1838.9 4895.58h3650.5v13.7266H1838.9z"/><path fill="#ba5b1e" d="M1838.9 4881.85h3650.5v13.7266H1838.9z"/><path fill="#b9581e" d="M1838.9 4868.13h3650.5v13.7266H1838.9z"/><path fill="#b8551e" d="M1838.9 4854.4h3650.5v13.7266H1838.9z"/><path fill="#b7531e" d="M1838.9 4840.67h3650.5v13.7266H1838.9z"/><path fill="#b6511f" d="M1838.9 4826.95h3650.5v13.7227H1838.9z"/><path fill="#b54f1f" d="M1838.9 4813.22h3650.5v13.7266H1838.9z"/><path fill="#b54d1f" d="M1838.9 4799.5h3650.5v13.7266H1838.9z"/><path fill="#b44b20" d="M1838.9 4785.77h3650.5v13.7266H1838.9z"/><path fill="#b34720" d="M1838.9 4772.04h3650.5v13.7266H1838.9z"/><path fill="#b24520" d="M1838.9 4758.32h3650.5v13.7266H1838.9z"/><path fill="#b24420" d="M1838.9 4744.59h3650.5v13.7266H1838.9z"/><path fill="#b24120" d="M1838.9 4730.86h3650.5v13.7266H1838.9z"/><path fill="#b04020" d="M1838.9 4717.14h3650.5v13.7266H1838.9z"/><path fill="#b03e20" d="M1838.9 4703.41h3650.5v13.7266H1838.9z"/><path fill="#b03d20" d="M1838.9 4689.68h3650.5v13.7266H1838.9z"/><path fill="#ae3b20" d="M1838.9 4675.96h3650.5v13.7266H1838.9z"/><path fill="#ae3a21" d="M1838.9 4662.23h3650.5v13.7266H1838.9z"/><path fill="#ae3921" d="M1838.9 4648.5h3650.5v13.7266H1838.9z"/><path fill="#ac3722" d="M1838.9 4634.78h3650.5v13.7266H1838.9z"/><path fill="#ac3622" d="M1838.9 4621.05h3650.5v13.7266H1838.9z"/><path fill="#ab3522" d="M1838.9 4607.33h3650.5v13.7227H1838.9z"/><path fill="#ab3422" d="M1838.9 4593.6h3650.5v13.7266H1838.9z"/><path fill="#ab3322" d="M1838.9 4579.88h3650.5v13.7266H1838.9z"/><path fill="#aa3122" d="M1838.9 4566.15h3650.5v13.7266H1838.9z"/><path fill="#aa3122" d="M1838.9 4552.42h3650.5v13.7266H1838.9z"/><path fill="#a92f22" d="M1838.9 4538.7h3650.5v13.7266H1838.9z"/><path fill="#a82e22" d="M1838.9 4524.97h3650.5v13.7266H1838.9z"/><path fill="#a82e22" d="M1838.9 4511.24h3650.5v13.7266H1838.9z"/><path fill="#a82d22" d="M1838.9 4497.52h3650.5v13.7266H1838.9z"/><path fill="#a82c22" d="M1838.9 4483.79h3650.5v13.7266H1838.9z"/><path fill="#a72b22" d="M1838.9 4470.06h3650.5v13.7266H1838.9z"/><path fill="#a62a22" d="M1838.9 4456.34h3650.5v13.7266H1838.9z"/><path fill="#a62922" d="M1838.9 4442.61h3650.5v13.7266H1838.9z"/><path fill="#a62922" d="M1838.9 4428.88h3650.5v13.7266H1838.9z"/><path fill="#a62823" d="M1838.9 4415.16h3650.5v13.7266H1838.9z"/><path fill="#a62723" d="M1838.9 4401.43h3650.5v13.7266H1838.9z"/><path fill="#a62623" d="M1838.9 4387.7h3650.5v13.7266H1838.9z"/><path fill="#a52623" d="M1838.9 4373.98h3650.5v13.7227H1838.9z"/><path fill="#a52523" d="M1838.9 4360.25h3650.5v13.7266H1838.9z"/><path fill="#a52523" d="M1838.9 4346.53h3650.5v13.7266H1838.9z"/><path fill="#a42423" d="M1838.9 4332.8h3650.5v13.7266H1838.9z"/><path fill="#a42423" d="M1838.9 4319.07h3650.5v13.7266H1838.9z"/><path fill="#a42323" d="M1838.9 4305.35h3650.5v13.7266H1838.9z"/><path fill="#a42323" d="M1838.9 4291.62h3650.5v13.7266H1838.9z"/><path fill="#a42223" d="M1838.9 4277.89h3650.5v13.7266H1838.9z"/><path fill="#a32223" d="M1838.9 4264.17h3650.5v13.7266H1838.9z"/><path fill="#a32223" d="M1838.9 4250.44h3650.5v13.7266H1838.9z"/><path fill="#a32223" d="M1838.9 4236.71h3650.5v13.7266H1838.9z"/><path fill="#a32123" d="M1838.9 4222.99h3650.5v13.7266H1838.9z"/><path fill="#a32123" d="M1838.9 4209.26h3650.5v13.7266H1838.9z"/><path fill="#a32123" d="M1838.9 4195.54h3650.5v13.7266H1838.9z"/><path fill="#a22023" d="M1838.9 4181.81h3650.5v13.7266H1838.9z"/><path fill="#a22023" d="M1838.9 4168.08h3650.5v13.7266H1838.9z"/><path fill="#a22023" d="M1838.9 4154.36h3650.5v13.7266H1838.9z"/><path fill="#a22023" d="M1838.9 4140.63h3650.5v13.7227H1838.9z"/><path fill="#a22023" d="M1838.9 4126.91h3650.5v13.7266H1838.9z"/><path fill="#a11f23" d="M1838.9 4113.18h3650.5v13.7266H1838.9z"/><path fill="#a11f23" d="M1838.9 4099.45h3650.5v13.7266H1838.9z"/><path fill="#a11f23" d="M1838.9 4085.73h3650.5v13.7266H1838.9z"/><path fill="#a11e24" d="M1838.9 4072h3650.5v13.7266H1838.9z"/><path fill="#a11e24" d="M1838.9 4058.27h3650.5v13.7266H1838.9z"/><path fill="#a11e24" d="M1838.9 4044.55h3650.5v13.7266H1838.9z"/><path fill="#a11e24" d="M1838.9 4030.82h3650.5v13.7266H1838.9z"/><path fill="#a11e24" d="M1838.9 4017.09h3650.5v13.7266H1838.9z"/><path fill="#a11e24" d="M1838.9 4003.37h3650.5v13.7266H1838.9z"/><path fill="#a01e24" d="M1838.9 3989.64h3650.5v13.7266H1838.9z"/><path fill="#a01e24" d="M1838.9 3975.91h3650.5v13.7266H1838.9z"/><path fill="#a01d24" d="M1838.9 3962.19h3650.5v13.7266H1838.9z"/><path fill="#a01d24" d="M1838.9 3948.46h3650.5v13.7266H1838.9z"/><path fill="#a01d24" d="M1838.9 3934.73h3650.5v13.7266H1838.9z"/><path fill="#a01d24" d="M1838.9 3921.01h3650.5v13.7227H1838.9z"/><path fill="#a01d24" d="M1838.9 3907.29h3650.5v13.7266H1838.9z"/><path fill="#a01d24" d="M1838.9 3893.56h3650.5v13.7266H1838.9z"/><path fill="#a01d24" d="M1838.9 3879.83h3650.5v13.7266H1838.9z"/><path fill="#a01d24" d="M1838.9 3866.11h3650.5v13.7266H1838.9z"/><path fill="#a01d24" d="M1838.9 3852.38h3650.5v13.7266H1838.9z"/><path fill="#a01d24" d="M1838.9 3838.65h3650.5v13.7266H1838.9z"/><path fill="#a01d24" d="M1838.9 3824.93h3650.5v13.7266H1838.9z"/><path fill="#a01c24" d="M1838.9 3811.2h3650.5v13.7266H1838.9z"/><path fill="#a01c24" d="M1838.9 3797.47h3650.5v13.7266H1838.9z"/><path fill="#a01c24" d="M1838.9 3783.75h3650.5v13.7266H1838.9z"/><path fill="#a01c24" d="M1838.9 3770.02h3650.5v13.7266H1838.9z"/><path fill="#a01c24" d="M1838.9 3756.29h3650.5v13.7266H1838.9z"/><path fill="#a01c24" d="M1838.9 3742.57h3650.5v13.7266H1838.9z"/><path fill="#a01c24" d="M1838.9 3728.84h3650.5v13.7266H1838.9z"/><path fill="#a01c24" d="M1838.9 3715.11h3650.5v13.7266H1838.9z"/><path fill="#a01c24" d="M1838.9 3701.39h3650.5v13.7266H1838.9z"/><path fill="#a01c24" d="M1838.9 3687.66h3650.5v13.7227H1838.9z"/><path fill="#a01c24" d="M1838.9 3673.94h3650.5v13.7266H1838.9z"/><path fill="#a01c24" d="M1838.9 3660.21h3650.5v13.7266H1838.9z"/><path fill="#a01c24" d="M1838.9 3646.48h3650.5v13.7266H1838.9z"/><path fill="#a01c24" d="M1838.9 3632.76h3650.5v13.7266H1838.9z"/><path fill="#a01c24" d="M1838.9 3619.03h3650.5v13.7266H1838.9z"/><path fill="#a01c24" d="M1838.9 3605.3h3650.5v13.7266H1838.9z"/><path fill="#a01c24" d="M1838.9 3591.58h3650.5v13.7266H1838.9z"/><path fill="#a01c24" d="M1838.9 3577.85h3650.5v13.7266H1838.9z"/><path fill="#a01c24" d="M1838.9 3564.13h3650.5v13.7266H1838.9z"/><path fill="#a01c24" d="M1838.9 3550.4h3650.5v13.7266H1838.9z"/><path fill="#a01c24" d="M1838.9 3536.67h3650.5v13.7266H1838.9z"/><path fill="#a01c24" d="M1838.9 3522.95h3650.5v13.7266H1838.9z"/><path fill="#a01c24" d="M1838.9 3509.22h3650.5v13.7266H1838.9z"/><path fill="#a01c24" d="M1838.9 3495.49h3650.5v13.7266H1838.9z"/><path fill="#a01c24" d="M1838.9 3481.77h3650.5v13.7266H1838.9z"/><path fill="#a01b25" d="M1838.9 3468.04h3650.5v13.7266H1838.9z"/><path fill="#a01b25" d="M1838.9 3454.32h3650.5v13.7227H1838.9z"/><path fill="#a01b25" d="M1838.9 3440.59h3650.5v13.7266H1838.9z"/><path fill="#a01b25" d="M1838.9 3426.86h3650.5v13.7266H1838.9z"/><path fill="#a01b25" d="M1838.9 3413.14h3650.5v13.7266H1838.9z"/><path fill="#a01b25" d="M1838.9 3399.41h3650.5v13.7266H1838.9z"/><path fill="#a01b25" d="M1838.9 3385.68h3650.5v13.7266H1838.9z"/><path fill="#a01b25" d="M1838.9 3371.96h3650.5v13.7266H1838.9z"/><path fill="#a01b25" d="M1838.9 3358.23h3650.5v13.7266H1838.9z"/><path fill="#a01b25" d="M1838.9 3344.5h3650.5v13.7266H1838.9z"/><path fill="#a01b25" d="M1838.9 3330.78h3650.5v13.7266H1838.9z"/><path fill="#a01b25" d="M1838.9 3317.05h3650.5v13.7266H1838.9z"/><path fill="#a01b25" d="M1838.9 3303.32h3650.5v13.7266H1838.9z"/><path fill="#a01b25" d="M1838.9 3289.6h3650.5v13.7266H1838.9z"/><path fill="#a01b25" d="M1838.9 3275.87h3650.5v13.7266H1838.9z"/><path fill="#a01b25" d="M1838.9 3262.14h3650.5v13.7266H1838.9z"/><path fill="#a01b25" d="M1838.9 3248.42h3650.5v13.7266H1838.9z"/><path fill="#a01b25" d="M1838.9 3234.69h3650.5v13.7266H1838.9z"/><path fill="#a01b25" d="M1838.9 3220.97h3650.5v13.7227H1838.9z"/><path fill="#a01b25" d="M1838.9 3207.24h3650.5v13.7266H1838.9z"/><path fill="#a01b25" d="M1838.9 3193.52h3650.5v13.7266H1838.9z"/><path fill="#a01b25" d="M1838.9 3179.79h3650.5v13.7266H1838.9z"/><path fill="#a01b25" d="M1838.9 3166.06h3650.5v13.7266H1838.9z"/><path fill="#a01b25" d="M1838.9 3152.34h3650.5v13.7266H1838.9z"/><path fill="#a01b25" d="M1838.9 3138.61h3650.5v13.7266H1838.9z"/><path fill="#a01b25" d="M1838.9 3124.88h3650.5v13.7266H1838.9z"/><path fill="#a01b25" d="M1838.9 3111.16h3650.5v13.7266H1838.9z"/><path fill="#a01b25" d="M1838.9 3097.43h3650.5v13.7266H1838.9z"/><path fill="#a01b25" d="M1838.9 3083.7h3650.5v13.7266H1838.9z"/><path fill="#a01b25" d="M1838.9 3069.98h3650.5v13.7266H1838.9z"/><path fill="#a01b25" d="M1838.9 3056.25h3650.5v13.7266H1838.9z"/><path fill="#a01b25" d="M1838.9 3042.52h3650.5v13.7266H1838.9z"/><path fill="#a01b25" d="M1838.9 3028.8h3650.5v13.7266H1838.9z"/><path fill="#a01b25" d="M1838.9 3015.07h3650.5v13.7266H1838.9z"/><path fill="#a01b25" d="M1838.9 3001.35h3650.5v13.7227H1838.9z"/><path fill="#a01b25" d="M1838.9 2987.62h3650.5v13.7266H1838.9z"/><path fill="#a01b25" d="M1838.9 2973.89h3650.5v13.7266H1838.9z"/><path fill="#a01b25" d="M1838.9 2960.17h3650.5v13.7266H1838.9z"/><path fill="#a01b25" d="M1838.9 2946.44h3650.5v13.7266H1838.9z"/><path fill="#a01b25" d="M1838.9 2932.71h3650.5v13.7266H1838.9z"/><path fill="#a01b25" d="M1838.9 2918.99h3650.5v13.7266H1838.9z"/><path fill="#a01b25" d="M1838.9 2905.26h3650.5v13.7266H1838.9z"/><path fill="#a01b25" d="M1838.9 2891.54h3650.5v13.7266H1838.9z"/><path fill="#a01b25" d="M1838.9 2877.81h3650.5v13.7266H1838.9z"/><path fill="#a01b25" d="M1838.9 2864.08h3650.5v13.7266H1838.9z"/><path fill="#a01b25" d="M1838.9 2850.36h3650.5v13.7266H1838.9z"/><path fill="#a01b25" d="M1838.9 2836.63h3650.5v13.7266H1838.9z"/><path fill="#a01b25" d="M1838.9 2822.9h3650.5v13.7266H1838.9z"/><path fill="#a01b25" d="M1838.9 2809.18h3650.5v13.7266H1838.9z"/><path fill="#a01b25" d="M1838.9 2795.45h3650.5v13.7266H1838.9z"/><path fill="#a01b25" d="M1838.9 2781.72h3650.5v13.7266H1838.9z"/><path fill="#a01b25" d="M1838.9 2768h3650.5v13.7227H1838.9z"/><path fill="#a01b25" d="M1838.9 2754.27h3650.5v13.7266H1838.9z"/><path fill="#a01b25" d="M1838.9 2740.55h3650.5v13.7266H1838.9z"/><path fill="#a01b25" d="M1838.9 2726.82h3650.5v13.7266H1838.9z"/><path fill="#a01b25" d="M1838.9 2713.09h3650.5v13.7266H1838.9z"/><path fill="#a01b25" d="M1838.9 2699.37h3650.5v13.7266H1838.9z"/><path fill="#a01b25" d="M1838.9 2685.64h3650.5v13.7266H1838.9z"/><path fill="#a01b25" d="M1838.9 2671.91h3650.5v13.7266H1838.9z"/><path fill="#a01b25" d="M1838.9 2658.19h3650.5v13.7266H1838.9z"/><path fill="#a01b25" d="M1838.9 2644.46h3650.5v13.7266H1838.9z"/><path fill="#a01b25" d="M1838.9 2630.73h3650.5v13.7266H1838.9z"/><path fill="#a01b25" d="M1838.9 2617.01h3650.5v13.7266H1838.9z"/><path fill="#a01b25" d="M1838.9 2603.28h3650.5v13.7266H1838.9z"/><path fill="#a01b25" d="M1838.9 2589.55h3650.5v13.7266H1838.9z"/><path fill="#a01b25" d="M1838.9 2575.83h3650.5v13.7266H1838.9z"/><path fill="#a01b25" d="M1838.9 2562.1h3650.5v13.7266H1838.9z"/><path fill="#a01b25" d="M1838.9 2548.38h3650.5v13.7266H1838.9z"/><path fill="#a01b25" d="M1838.9 2534.65h3650.5v13.7227H1838.9z"/><path fill="#a01b25" d="M1838.9 2520.93h3650.5v13.7266H1838.9z"/><path fill="#a01b25" d="M1838.9 2507.2h3650.5v13.7266H1838.9z"/><path fill="#a01b25" d="M1838.9 2493.47h3650.5v13.7266H1838.9z"/><path fill="#a01b25" d="M1838.9 2479.75h3650.5v13.7266H1838.9z"/><path fill="#a01b25" d="M1838.9 2466.02h3650.5v13.7266H1838.9z"/><path fill="#a01b25" d="M1838.9 2452.29h3650.5v13.7266H1838.9z"/><path fill="#a01b25" d="M1838.9 2438.57h3650.5v13.7266H1838.9z"/><path fill="#a01b25" d="M1838.9 2424.84h3650.5v13.7266H1838.9z"/><path fill="#a01b25" d="M1838.9 2411.11h3650.5v13.7266H1838.9z"/><path fill="#a01b25" d="M1838.9 2397.39h3650.5v13.7266H1838.9z"/><path fill="#a01b25" d="M1838.9 2383.66h3650.5v13.7266H1838.9z"/><path fill="#a01b25" d="M1838.9 2369.93h3650.5v13.7266H1838.9z"/><path fill="#a01b25" d="M1838.9 2356.21h3650.5v13.7266H1838.9z"/><path fill="#a01b25" d="M1838.9 2342.48h3650.5v13.7266H1838.9z"/><path fill="#a01b25" d="M1838.9 2328.75h3650.5v13.7266H1838.9z"/><path fill="#a01b25" d="M1838.9 2315.03h3650.5v13.7227H1838.9z"/><path fill="#a01b25" d="M1838.9 2301.3h3650.5v13.7266H1838.9z"/><path fill="#a01b25" d="M1838.9 2287.58h3650.5v13.7266H1838.9z"/><path fill="#a01b25" d="M1838.9 2273.85h3650.5v13.7266H1838.9z"/><path fill="#a01b25" d="M1838.9 2260.13h3650.5v13.7266H1838.9z"/><path fill="#a01b25" d="M1838.9 2246.4h3650.5v13.7266H1838.9z"/><path fill="#a01b25" d="M1838.9 2232.67h3650.5v13.7266H1838.9z"/><path fill="#a01b25" d="M1838.9 2218.95h3650.5v13.7266H1838.9z"/><path fill="#a01b25" d="M1838.9 2205.22h3650.5v13.7266H1838.9z"/><path fill="#a01b25" d="M1838.9 2191.49h3650.5v13.7266H1838.9z"/><path fill="#a01b25" d="M1838.9 2177.77h3650.5v13.7266H1838.9z"/><path fill="#a01b25" d="M1838.9 2164.04h3650.5v13.7266H1838.9z"/><path fill="#a01b25" d="M1838.9 2150.31h3650.5v13.7266H1838.9z"/><path fill="#a01b25" d="M1838.9 2136.59h3650.5v13.7266H1838.9z"/><path fill="#a01b25" d="M1838.9 2122.86h3650.5v13.7266H1838.9z"/><path fill="#a01b25" d="M1838.9 2109.13h3650.5v13.7266H1838.9z"/><path fill="#a01b25" d="M1838.9 2095.41h3650.5v13.7266H1838.9z"/><path fill="#a01b25" d="M1838.9 2081.68h3650.5v13.7227H1838.9z"/><path fill="#a01b25" d="M1838.9 2067.96h3650.5v13.7266H1838.9z"/><path fill="#a01b25" d="M1838.9 2054.23h3650.5v13.7266H1838.9z"/><path fill="#a01b25" d="M1838.9 2040.5h3650.5v13.7266H1838.9z"/><path fill="#a01b25" d="M1838.9 2026.78h3650.5v13.7266H1838.9z"/><path fill="#a01b25" d="M1838.9 2013.05h3650.5v13.7266H1838.9z"/><path fill="#a01b25" d="M1838.9 1999.32h3650.5v13.7266H1838.9z"/><path fill="#a01b25" d="M1838.9 1985.6h3650.5v13.7266H1838.9z"/><path fill="#a01b25" d="M1838.9 1971.87h3650.5v13.7266H1838.9z"/><path fill="#a01b25" d="M1838.9 1958.14h3650.5v13.7266H1838.9z"/><path fill="#a01b25" d="M1838.9 1944.42h3650.5v13.7266H1838.9z"/><path fill="#a01b25" d="M1838.9 1930.69h3650.5v13.7266H1838.9z"/><path fill="#a01b25" d="M1838.9 1916.96h3650.5v13.7266H1838.9z"/><path fill="#a01b25" d="M1838.9 1903.24h3650.5v13.7266H1838.9z"/><path fill="#a01b25" d="M1838.9 1889.51h3650.5v13.7266H1838.9z"/><path fill="#a01b25" d="M1838.9 1875.79h3650.5v13.7266H1838.9z"/><path fill="#a01b25" d="M1838.9 1862.06h3650.5v13.7266H1838.9z"/><path fill="#a01b25" d="M1838.9 1848.34h3650.5v13.7227H1838.9z"/><path fill="#a01b25" d="M1838.9 1834.61h3650.5v13.7266H1838.9z"/><path fill="#a01b25" d="M1838.9 1820.88h3650.5v13.7266H1838.9z"/><path fill="#a01b25" d="M1838.9 1807.16h3650.5v13.7266H1838.9z"/><path fill="#a01b25" d="M1838.9 1793.43h3650.5v13.7266H1838.9z"/><path fill="#a01b25" d="M1838.9 1779.7h3650.5v13.7266H1838.9z"/><path fill="#a01b25" d="M1838.9 1765.98h3650.5v13.7266H1838.9z"/><path fill="#a01b25" d="M1838.9 1752.25h3650.5v13.7266H1838.9z"/><path fill="#a01b25" d="M1838.9 1674.06h3650.5v78.1914H1838.9z"/></g><path fill="#d6c618" fill-opacity="1" fill-rule="nonzero" stroke="none" d="M4272.31 3499.32c0-335.88-272.28-608.17-608.16-608.17s-608.16 272.29-608.16 608.17c0 335.88 272.28 608.16 608.16 608.16s608.16-272.28 608.16-608.16"/><path fill="#d3b913" fill-opacity="1" fill-rule="nonzero" stroke="none" d="M3664.15 4047.72c325.79 0 590.98-256.37 606.66-578.28.48 9.96 1.51 19.79 1.51 29.88 0 335.88-272.29 608.16-608.17 608.16-335.88 0-608.16-272.28-608.16-608.16 0-10.09 1.02-19.92 1.51-29.88 15.68 321.91 280.86 578.28 606.65 578.28"/><path fill="#2e2f2e" fill-opacity="1" fill-rule="nonzero" stroke="none" d="M7136.92 3500.66c128.13 0 201.65 70.41 201.65 193.16 0 120.19-71.6 186.38-201.65 186.38h-223.71v-379.54zm-495.57-612.83v1221.82h510.84c278.38 0 458.23-163.23 458.23-415.83 0-248.82-188.45-422.62-458.23-422.62h-238.98v-383.37h-271.86"/><path fill="#2e2f2e" fill-opacity="1" fill-rule="nonzero" stroke="none" d="M8199.38 2887.83v1221.82h865.58v-231.16h-593.73v-255.7h542.83v-232.85h-542.83v-270.95h595.44v-231.16h-867.29"/><path fill="#2e2f2e" fill-opacity="1" fill-rule="nonzero" stroke="none" d="M10200.2 3493.88c127.3 0 203.3 73.46 203.3 196.55 0 121.69-74.1 191.45-203.3 191.45h-252.59v-388zm186.8-606.05l-217.2 379.98h-222.19v-379.98h-271.85v1221.82H10229c271.2 0 446.4-165.23 446.4-420.93 0-166.65-84.4-305.07-226.8-374.05l253.3-426.84H10387"/><path fill="#2e2f2e" fill-opacity="1" fill-rule="nonzero" stroke="none" d="M13453.2 3902.26c-174.5 0-274.6-111.21-274.6-305.12v-196.79c0-193.91 100.1-305.12 274.6-305.12 174.5 0 274.6 111.21 274.6 305.12v196.79c0 193.91-100.1 305.12-274.6 305.12zm0-1038.17c-331.9 0-546.4 215.17-546.4 548.14v173.02c0 332.98 214.5 548.14 546.4 548.14 337.1 0 546.5-210.04 546.5-548.14v-173.02c0-338.1-209.4-548.14-546.5-548.14"/><path fill="#2e2f2e" fill-opacity="1" fill-rule="nonzero" stroke="none" d="M15374.9 2887.83l-490.9 750.08v-750.08h-266.8v1221.82h252.1l490.9-750.07v750.07h266.7V2887.83h-252"/><path fill="#2e2f2e" fill-opacity="1" fill-rule="nonzero" stroke="none" d="M16936.7 3359.86l-146.3 462.2-147.7-462.2zm151.7-472.03l-79.7 249.36h-436.4l-79.7-249.36h-272.7l438.1 1221.82h265l438.1-1221.82h-272.7"/><path fill="#2e2f2e" fill-opacity="1" fill-rule="nonzero" stroke="none" d="M12079.8 3318.57c-20.3-141.05-115.8-225.02-257.8-225.02-231.6 0-266.1 193.29-266.1 308.51v193.37c0 115.22 34.5 308.51 266.1 308.51 141.6 0 237-83.53 257.6-223.9l252.1 37.58c-33.9 247.07-237.2 415.77-509.7 415.77-335.8 0-536.3-205.56-536.3-549.84v-169.64c0-344.28 200.5-549.82 536.3-549.82 272.9 0 476.4 169.22 509.9 416.9l-252.1 37.58"/></g></svg>