<svg xmlns="http://www.w3.org/2000/svg" role="img" viewBox="-14.69 -14.69 763.88 610.88"><title>PerfectScale logo</title><defs><linearGradient id="linear-gradient" x1="368.25" x2="520.21" y1="846.66" y2="846.66" gradientTransform="matrix(1 0 0 -1 0 934.82)" gradientUnits="userSpaceOnUse"><stop offset="0" stop-color="#315e7a" stop-opacity="0"/><stop offset=".29" stop-color="#2f536c" stop-opacity=".2"/><stop offset=".79" stop-color="#2b3648" stop-opacity=".74"/><stop offset="1" stop-color="#292837"/></linearGradient><linearGradient id="linear-gradient-2" x1="276.6" x2="496.41" y1="716.23" y2="711.88" gradientTransform="matrix(1 0 0 -1 0 934.82)" gradientUnits="userSpaceOnUse"><stop offset="0" stop-color="#23a899"/><stop offset=".1" stop-color="#24a297"/><stop offset=".22" stop-color="#279291"/><stop offset=".36" stop-color="#2d7888"/><stop offset=".45" stop-color="#326582"/><stop offset=".51" stop-color="#2f5771"/><stop offset=".62" stop-color="#2c4257"/><stop offset=".74" stop-color="#2a3345"/><stop offset=".86" stop-color="#292a3a"/><stop offset="1" stop-color="#292837"/></linearGradient><linearGradient id="linear-gradient-3" x1="214.47" x2="368.25" y1="846.97" y2="846.97" gradientTransform="matrix(1 0 0 -1 0 934.82)" gradientUnits="userSpaceOnUse"><stop offset="0" stop-color="#326582"/><stop offset=".42" stop-color="#2c7f8b" stop-opacity=".6"/><stop offset="1" stop-color="#23a899" stop-opacity="0"/></linearGradient><linearGradient id="linear-gradient-4" x1="176.56" x2="269.95" y1="536.99" y2="730.78" gradientTransform="matrix(1 0 0 -1 0 934.82)" gradientUnits="userSpaceOnUse"><stop offset=".5" stop-color="#23a899" stop-opacity="0"/><stop offset=".57" stop-color="#23a497" stop-opacity=".05"/><stop offset=".67" stop-color="#269a94" stop-opacity=".2"/><stop offset=".79" stop-color="#298a8e" stop-opacity=".44"/><stop offset=".92" stop-color="#2e7387" stop-opacity=".78"/><stop offset="1" stop-color="#326582"/></linearGradient><style>.cls-2{fill:#7ce2df}.cls-3{fill:#23a899}</style></defs><path fill="#292837" d="M39.06 489.28L0 489.41v91.02l14.06-8.09v-27.86h24.22c16.54 0 27.47-11.72 27.47-27.34s-10.68-27.86-26.69-27.86zm-3.64 42.82H14.07v-30.47h21.35c8.99 0 16.15 5.21 16.15 15.36s-7.16 15.1-16.15 15.1zm66.53-17.43c-18.49 0-30.98 13.67-30.98 33.85s12.37 33.46 31.38 33.46c15.62 0 26.04-9.24 27.99-22h-13.02c-2.99 8.59-10.8 10.03-14.97 10.03-10.29 0-17.06-6.51-17.06-17.19v-.13h46.09c1.56-21.48-9.38-38.02-29.42-38.02zm-16.27 25.91c.52-8.2 7.16-13.93 15.88-13.93s14.85 5.73 15.23 13.93H85.68zm70.7-17.19v-7.94h-13.41v65.09h13.41V547.6c0-13.33 7.02-18.93 14.48-20.29 1.51-.27 3.04-.18 4.53-.15h2.22v-11.72h-2.99c-12.37 0-16.92 5.47-18.23 7.94zm61.57-21.74h8.85l-.13-12.24H214.3c-10.41 0-17.84 7.16-17.84 17.31v8.72h-10.15v11.72h10.15v53.38H210v-53.38h16.66v-11.72H210v-5.21c0-6.51 1.69-8.59 7.94-8.59zm45.04 13.02c-18.49 0-30.98 13.67-30.98 33.85s12.37 33.46 31.38 33.46c15.62 0 26.04-9.24 27.99-22h-13.02c-2.99 8.59-10.8 10.03-14.97 10.03-10.29 0-17.06-6.51-17.06-17.19v-.13h46.09c1.57-21.48-9.38-38.02-29.42-38.02zm-16.27 25.91c.52-8.2 7.16-13.93 15.88-13.93s14.85 5.73 15.23 13.93h-31.11zM334.21 526c8.2 0 13.15 5.6 14.58 11.45h14.58c-1.69-13.67-13.54-23.31-28.64-23.31-18.61 0-31.77 14.06-31.77 33.85s12.89 33.46 31.24 33.46c15.23 0 27.34-9.76 29.17-23.7h-14.58c-1.17 5.86-5.99 11.45-14.32 11.45-9.38 0-16.8-8.2-16.8-22.13s7.42-21.09 16.53-21.09zm120.68 1.56c-11.2-1.3-18.49-5.6-18.49-12.76 0-5.73 5.47-12.1 16.15-12.1 9.78 0 18.03 5.22 18.85 14.52l14-8.08c-3.9-12.91-15.6-20.49-32.72-20.49-18.88 0-32.55 11.98-32.55 26.69 0 12.24 8.99 23.31 35.68 26.17 12.37 1.3 16.66 5.86 16.66 12.76 0 6.51-6.12 13.67-17.45 13.67s-18.32-5.34-20.87-14.19l-14.23 8.22c5.57 13.1 20.25 19.51 35.11 19.51 19.53 0 33.72-10.41 33.72-27.08 0-13.15-7.68-23.82-33.85-26.82zm76.16-1.56c8.2 0 13.15 5.6 14.58 11.45h14.58c-1.69-13.67-13.54-23.31-28.64-23.31-18.61 0-31.77 14.06-31.77 33.85s12.89 33.46 31.24 33.46c15.23 0 27.34-9.76 29.17-23.7h-14.58c-1.17 5.86-5.99 11.45-14.32 11.45-9.38 0-16.8-8.2-16.8-22.13s7.42-21.09 16.54-21.09zm69.65-12.11c-15.89 0-26.43 10.29-27.6 23.31l14.58-.13c.65-4.82 4.56-10.54 13.67-10.54 6.64 0 10.68 3.64 10.68 7.81 0 6.77-9.24 7.29-17.58 8.07-7.42.65-13.67 2.48-17.96 5.86-4.03 3.25-5.73 8.34-5.73 13.93 0 12.5 10.41 19.66 22 19.66 6.9 0 14.58-2.99 19.27-8.99v7.68h14.45v-44c0-12.89-9.24-22.66-25.77-22.66zm11.33 41.79c-.26 10.29-9.76 14.58-16.92 14.19-5.99-.39-9.38-4.03-9.38-8.59 0-5.08 4.17-7.81 11.33-8.46 6.38-.52 12.24-1.43 15.1-2.99l-.13 5.86zm32.68-57.57v82.44h14.58v-90.86l-14.58 8.42zm89.96 54.58c1.56-21.48-9.38-38.02-29.42-38.02-18.49 0-30.98 13.67-30.98 33.85s12.37 33.46 31.38 33.46c15.62 0 26.04-9.24 27.99-22h-13.02c-2.99 8.59-10.8 10.03-14.97 10.03-10.29 0-17.06-6.51-17.06-17.19v-.13h46.09zm-29.82-26.04c8.72 0 14.85 5.73 15.23 13.93h-31.12c.52-8.2 7.16-13.93 15.88-13.93zM392.4 559.71v-32.52h16.65v-11.71H392.4v-20.62l-13.53 7.66v12.96h-10.15v11.71h10.15v36.03c0 9.62 6.67 16.55 16.24 17.24l11.53-9.94 2.55-2.22h-8.85c-6.24 0-7.94-2.08-7.94-8.59z"/><path d="M290.14 219.92v85.87l-76.25-46.65.58-83.65 75.67 44.43zm230.78 132.99l-154.47 87.71v-88.13l154.47-87.86v88.28zM368.25 0l-153.7 88.29 76.38 43.56 77.32-44.32V0z" class="cls-2"/><path d="M366.45 352.49l-51.14-31.43v90.04l51.14 29.52v-88.13zM368.25 0v87.53l76.67 44.8 75.29-44.3L368.25 0z" class="cls-3"/><path fill="url(#linear-gradient)" d="M368.25 0v87.53l151.96 88.79V88.03L368.25 0z"/><path fill="url(#linear-gradient-2)" d="M369.7 265.01l75.15-44.53-76.78-44.66-77.93 44.1 79.56 45.09z"/><path d="M520.21 176.32V88.03l-75.06 44.15-77.08 43.64 76.78 44.66 75.36-44.16z" class="cls-2"/><path d="M520.92 264.63l-76.07-44.15-75.15 44.53 151.22 87.92v-88.3z" class="cls-3"/><path fill="url(#linear-gradient-3)" d="M368.25.19l-153.7 88.1-.08 87.22 153.78-87.98V.19z"/><path fill="url(#linear-gradient-4)" d="M290.14 219.92v85.87l-76.25-46.65.58-83.65 75.67 44.43z"/><path d="M345.26 188.74l22.81-12.92-153.52-87.53-.08 87.22 75.67 44.41" class="cls-3"/></svg>