<svg xmlns="http://www.w3.org/2000/svg" role="img" viewBox="-1.26 2.36 104.65 35.15"><title>Ping An Technology (member) logo</title><path fill="#f15a22" d="M.74368 30.10975a.51161.51161 0 0 1 .51967-.51955h1.79411a1.96987 1.96987 0 0 1 2.2296 1.96129v.0165c0 1.31567-1.05666 2.00253-2.34635 2.00253H1.77449v1.417a.507.507 0 0 1-.51114.51129.50989.50989 0 0 1-.51967-.51129zm2.22989 2.53018c.77977 0 1.26524-.43581 1.26524-1.04581v-.01788c0-.68794-.49357-1.04825-1.26524-1.04825H1.77449v2.11194zM6.40286 30.059a.51543.51543 0 0 1 1.03083 0v4.92879a.51543.51543 0 0 1-1.03083 0zm2.5985.01729a.51641.51641 0 0 1 .51954-.51924h.10954a.647.647 0 0 1 .53574.30027l2.9342 3.7977v-3.60349a.50726.50726 0 0 1 1.01449 0v4.92741a.5018.5018 0 0 1-.5032.51221h-.04233a.64977.64977 0 0 1-.536-.31081l-3.01763-3.90605v3.72238a.50717.50717 0 0 1-1.01431 0zm6.36316 2.46401v-.01757a2.98866 2.98866 0 0 1 3.02619-3.03338 3.183 3.183 0 0 1 2.00253.595.5247.5247 0 0 1 .2095.4193.513.513 0 0 1-.51114.51129.53986.53986 0 0 1-.31815-.11766 2.23045 2.23045 0 0 0-1.42507-.46057 1.984 1.984 0 0 0-1.90245 2.06963v.01635a1.96037 1.96037 0 0 0 1.99431 2.09666 2.40322 2.40322 0 0 0 1.417-.44391v-1.09925h-1.1568a.45058.45058 0 0 1-.46178-.444.45836.45836 0 0 1 .46178-.45231h1.63382a.51261.51261 0 0 1 .52061.51969v1.5678a.71158.71158 0 0 1-.3617.65371 3.72825 3.72825 0 0 1-2.08611.6372 2.9116 2.9116 0 0 1-3.04254-3.01793m9.01148 2.24681l2.17933-4.86246a.65315.65315 0 0 1 .61948-.41838h.05057a.644.644 0 0 1 .61248.41838l2.17931 4.86246a.44954.44954 0 0 1 .0576.21791.482.482 0 0 1-.48531.49342.53149.53149 0 0 1-.50289-.36032l-.47844-1.09792h-2.84939l-.49448 1.132a.494.494 0 0 1-.47721.32625.47175.47175 0 0 1-.47814-.47814.51966.51966 0 0 1 .06709-.23319m3.839-1.65978l-1.03083-2.37232-1.03177 2.37231zm2.97618-3.0511a.51629.51629 0 0 1 .51939-.51924h.10956a.6476.6476 0 0 1 .53605.30027l2.9342 3.7977v-3.60349a.507.507 0 0 1 1.014 0v4.92741a.50173.50173 0 0 1-.50289.51221H35.759a.6508.6508 0 0 1-.53589-.31081l-3.01778-3.90605v3.72238a.50711.50711 0 0 1-1.01418 0zm10.27504.36658h-1.4454a.48417.48417 0 0 1 0-.96833h3.95326a.48422.48422 0 0 1 0 .96833h-1.45243v4.50429a.52776.52776 0 0 1-1.05543 0zm4.04342 4.45386v-4.89532a.519.519 0 0 1 .52779-.52794H49.497a.47131.47131 0 0 1 .46759.46789.4656.4656 0 0 1-.46759.46652h-2.94125v1.5487h2.55952a.47274.47274 0 0 1 .46652.476.46421.46421 0 0 1-.46652.45811h-2.55952v1.59851h2.9834a.47134.47134 0 0 1 .46792.46759.4649.4649 0 0 1-.46792.46652h-3.50172a.51925.51925 0 0 1-.52779-.52657m5.42836-2.43162v-.01651a3.01306 3.01306 0 0 1 3.06866-3.078 3.12519 3.12519 0 0 1 2.04135.67143.52564.52564 0 0 1 .20354.417.5247.5247 0 0 1-.8328.41 2.14254 2.14254 0 0 0-1.41912-.53712 2.0026 2.0026 0 0 0-1.96387 2.1014v.01528a2.00331 2.00331 0 0 0 1.96382 2.1074 2.1254 2.1254 0 0 0 1.48651-.56767.47436.47436 0 0 1 .3157-.12011.48846.48846 0 0 1 .32257.85862 3.03481 3.03481 0 0 1-2.16038.801 2.99508 2.99508 0 0 1-3.026-3.0627m6.53402-2.51706a.52294.52294 0 0 1 1.04581 0v1.999h2.84006v-1.999a.52309.52309 0 0 1 1.04612 0v4.99938a.52307.52307 0 0 1-1.04612 0v-2.03095h-2.84009v2.03095a.52291.52291 0 0 1-1.04581 0zm6.45667.01865a.52365.52365 0 0 1 .52764-.52658h.11078a.65219.65219 0 0 1 .54293.30623l2.97545 3.85062v-3.655a.51489.51489 0 0 1 1.02976 0v4.99892a.50843.50843 0 0 1-.51022.51725h-.04248a.65558.65558 0 0 1-.54412-.31462l-3.06028-3.96244v3.77525a.51474.51474 0 0 1-1.02946 0zM75.503 32.46512v-.01651a2.0381 2.0381 0 0 0-2.02362-2.11668 2.01095 2.01095 0 0 0-2.006 2.1014v.01528a2.03162 2.03162 0 0 0 2.02374 2.10739 2.00252 2.00252 0 0 0 2.0059-2.09085m-5.12621 0v-.01651a3.11173 3.11173 0 0 1 6.2229-.01528v.01528a3.11173 3.11173 0 0 1-6.2229.01651m7.48555-2.51707a.52309.52309 0 0 1 1.04611 0v4.52339h2.694a.47577.47577 0 1 1 0 .95153h-3.21354a.51841.51841 0 0 1-.52657-.52657zm9.78177 2.51704v-.01651a2.03822 2.03822 0 0 0-2.02377-2.11668 2.01086 2.01086 0 0 0-2.0059 2.1014v.01528A2.03149 2.03149 0 0 0 85.637 34.556a2.00286 2.00286 0 0 0 2.00709-2.09085m-5.12636 0v-.01651a3.11173 3.11173 0 0 1 6.2229-.01528v.01528a3.11173 3.11173 0 0 1-6.2229.01651m7.22108-.00003v-.01651a3.0328 3.0328 0 0 1 3.06866-3.078 3.23282 3.23282 0 0 1 2.03312.60542.52851.52851 0 0 1 .21192.423.52257.52257 0 0 1-.51817.5206.55145.55145 0 0 1-.3241-.1201 2.2593 2.2593 0 0 0-1.44525-.46759 2.01261 2.01261 0 0 0-1.92934 2.1014v.01528a1.98874 1.98874 0 0 0 2.02362 2.12631 2.43352 2.43352 0 0 0 1.43715-.45124v-1.1132h-1.17325a.457.457 0 0 1-.46759-.45108.465.465 0 0 1 .46759-.46056h1.65734a.52022.52022 0 0 1 .52767.52764v1.59133a.72623.72623 0 0 1-.36645.66334 3.78843 3.78843 0 0 1-2.11666.64667 2.95469 2.95469 0 0 1-3.08626-3.0627m8.42897.64636l-2.04837-2.81409a.63964.63964 0 0 1-.119-.36521.50744.50744 0 0 1 .52654-.50182.60059.60059 0 0 1 .51114.3157l1.6575 2.38776 1.68317-2.39723a.60314.60314 0 0 1 .50181-.31555.49607.49607 0 0 1 .51007.51114.6397.6397 0 0 1-.14486.37468l-2.03185 2.77987v1.86118a.52308.52308 0 0 1-1.04614 0zM78.474 21.21242a.43837.43837 0 0 0-.34152.14471.50441.50441 0 0 0-.13172.35435v1.527a.45158.45158 0 0 0 .47324.47324h2.974a2.2711 2.2711 0 0 0 .88154-.17084 2.1717 2.1717 0 0 0 1.18376-1.18378 2.20182 2.20182 0 0 0 .17069-.85541V15.5031c.22814-.193.41594-.34687.56584-.46025a2.07382 2.07382 0 0 1 .39516-.25015 1.31726 1.31726 0 0 1 .32838-.10559 2.33852 2.33852 0 0 1 .368-.02613h.57883a.45168.45168 0 0 0 .47447-.47324v-1.44723a.50778.50778 0 0 0-.13172-.35467.44358.44358 0 0 0-.34275-.14608h-1.1841a2.31875 2.31875 0 0 0-1.05207.23731v-2.28935h2.23617a.50973.50973 0 0 0 .35574-.1305.44333.44333 0 0 0 .14486-.34275V8.16272a.44387.44387 0 0 0-.14486-.3429.5114.5114 0 0 0-.35574-.13172H83.684V5.37262a.44248.44248 0 0 0-.14456-.34153.5113.5113 0 0 0-.35481-.13171h-2.052a.51161.51161 0 0 0-.35588.13171.44177.44177 0 0 0-.14486.34153V7.6881h-2.447a.45171.45171 0 0 0-.47355.47462v1.55175a.44986.44986 0 0 0 .47355.47325h2.447v4.65694l-.26344.23731c-.20981.193-.38569.34151-.5252.44726a2.01373 2.01373 0 0 1-.39516.23731 1.1709 1.1709 0 0 1-.39516.09107c-.14058.00917-.32456.01315-.5527.01315h-.55163a.48928.48928 0 0 0-.35574.1447.48371.48371 0 0 0-.14455.35574v1.44754a.49441.49441 0 0 0 .50029.49937h.92068a6.00983 6.00983 0 0 0 1.10569-.0784 1.74584 1.74584 0 0 0 .65692-.26343v3.23614zm17.20742-8.97266V9.68834h5.026a.49466.49466 0 0 0 .49938-.49937V7.66228a.44148.44148 0 0 0-.14471-.34183.5109.5109 0 0 0-.35467-.13173h-5.026v-1.8161a.44263.44263 0 0 0-.1447-.34153.511.511 0 0 0-.35467-.13171h-2.18387a.45157.45157 0 0 0-.47325.47324v1.8161h-4.63111a.45162.45162 0 0 0-.47325.47356V9.189a.504.504 0 0 0 .13172.35436.43762.43762 0 0 0 .34153.145h4.63111v2.55142h-4.68307v2.6324a3.77813 3.77813 0 0 0 .197 1.31536 3.1771 3.1771 0 0 0 .90737 1.15767l2.9999 2.65716-.84212.7107a1.77353 1.77353 0 0 1-.73668.434 4.37124 4.37124 0 0 1-.84227.0654h-2.18379a.43849.43849 0 0 0-.34168.14471.50375.50375 0 0 0-.13172.35435v1.527a.4516.4516 0 0 0 .4734.47324h3.18358a5.60275 5.60275 0 0 0 1.52549-.15785 3.2087 3.2087 0 0 0 1.13182-.68442l.99984-.8684.974.8684a3.19253 3.19253 0 0 0 1.13047.68442 5.6059 5.6059 0 0 0 1.52654.15785h3.07844a.508.508 0 0 0 .35436-.13172.43939.43939 0 0 0 .14486-.34152v-1.527a.49441.49441 0 0 0-.49922-.49906H98.366a1.07121 1.07121 0 0 1-.34289-.05226 2.72415 2.72415 0 0 1-.34168-.14455 2.07345 2.07345 0 0 1-.42114-.30256l-.84211-.7107 2.9999-2.65716a3.259 3.259 0 0 0 .605-.606 2.85868 2.85868 0 0 0 .32854-.56584 1.856 1.856 0 0 0 .1447-.59212c.01834-.20981.02613-.44712.02613-.709v-2.6324h-4.84099zm1.94786 2.57877a.80608.80608 0 0 1-.04037.3024.98975.98975 0 0 1-.24923.27658L94.182 18.108l-3.18361-2.71049a1.005 1.005 0 0 1-.2506-.27658.83561.83561 0 0 1-.039-.3024v-.1056h6.9205zM73.40773 5.37262a.45168.45168 0 0 0-.47462-.47324h-2.07817a.45134.45134 0 0 0-.47324.47324V17.318h-6.13061a.45131.45131 0 0 0-.47431.47462v1.81488a.5054.5054 0 0 0 .13141.35436.43985.43985 0 0 0 .3429.145h6.13061v3.36894a.5045.5045 0 0 0 .13156.35436.43818.43818 0 0 0 .34168.145h2.07817a.44254.44254 0 0 0 .3429-.145.51014.51014 0 0 0 .13172-.35436v-3.36893h1.49921a.49468.49468 0 0 0 .49935-.49938v-1.81488a.44333.44333 0 0 0-.14471-.34291.50944.50944 0 0 0-.35464-.13171h-1.49921zM60.93582 8.215a1.70839 1.70839 0 0 0 1.27637-.52688 1.745 1.745 0 0 0 .5122-1.26188V5.37262a.50319.50319 0 0 0-.13171-.35451.43826.43826 0 0 0-.34153-.14456h-1.84224a.44025.44025 0 0 0-.34152.14456.51078.51078 0 0 0-.13172.35451v.343h-7.70926a.49417.49417 0 0 0-.49937.49938v1.49923a.44226.44226 0 0 0 .49937.50075h3.605v2.78873H51.9905a.45167.45167 0 0 0-.47449.47324v1.47336a.51051.51051 0 0 0 .13172.35574.44046.44046 0 0 0 .34277.145h3.84093V23.4758a.50391.50391 0 0 0 .13172.35436.43763.43763 0 0 0 .34152.145h1.73665a.49493.49493 0 0 0 .50075-.49937V13.45106h3.81485a.49442.49442 0 0 0 .49919-.50075V11.477a.44027.44027 0 0 0-.14455-.34153.51111.51111 0 0 0-.35464-.13171h-3.81485V8.215zm-8.07694 6.60355a.81378.81378 0 0 0-.3429.05363c-.07059.03515-.12255.17466-.15785.41961l-1.20977 7.97285a1.03684 1.03684 0 0 0-.02613.17068v.06632c0 .12286.08725.184.26329.184H53.306a.71679.71679 0 0 0 .47325-.11858.82687.82687 0 0 0 .184-.48639l1.10538-7.919v-.15907c0-.13952-.08863-.20981-.26313-.20981h-1.97412zm13.90466-9.78746a1.582 1.582 0 0 0-.48623-.05195h-2.2374c-.19284 0-.28926.07029-.28926.20981a.80584.80584 0 0 0 .10559.34152l1.60508 3.23721a.92607.92607 0 0 0 .26313.3808.73957.73957 0 0 0 .42114.09244h2.36759c.21011 0 .31569-.06112.31569-.18367a.336.336 0 0 0-.02613-.11858c-.01833-.04446-.06142-.13569-.13171-.27658l-1.63122-3.28947c-.08863-.19162-.17985-.30622-.27627-.34153m-5.15632 9.867a.4254.4254 0 0 0-.32991-.10544h-1.841c-.17588 0-.26314.07029-.26314.20981v.13156l1.10434 7.94656a.81511.81511 0 0 0 .185.48639.71178.71178 0 0 0 .47327.11858h1.78857c.17619 0 .26344-.06112.26344-.184v-.07946a1.159 1.159 0 0 0-.02613-.18367l-1.2099-7.9727a.83814.83814 0 0 0-.14458-.36765m5.15632-3.7236a1.3001 1.3001 0 0 0-.48623-.06525h-2.2374c-.19284 0-.28926.0703-.28926.2098a.815.815 0 0 0 .10559.34291l1.60508 3.23614a.9253.9253 0 0 0 .26313.38064.7369.7369 0 0 0 .42114.0926h2.36759c.21011 0 .31569-.06127.31569-.18382a.33673.33673 0 0 0-.02613-.11859c-.01833-.04446-.06142-.13568-.13171-.27627l-1.63122-3.28962a.6826.6826 0 0 0-.27627-.32854m-36.83817 3.2492v.97384a6.5536 6.5536 0 0 0 .13172 1.4211 2.45907 2.45907 0 0 0 .51358 1.03909 4.18323 4.18323 0 0 0 1.03909.8684 14.12041 14.12041 0 0 0 1.73682.88139l1.15764.52658-.21117.07823q-.97369.36972-1.88136.618a7.03412 7.03412 0 0 1-1.88.25045h-3.71059a.43841.43841 0 0 0-.34153.14471.50493.50493 0 0 0-.13171.35574v1.65734a.45157.45157 0 0 0 .47324.47324h3.71061c.50854 0 .95045-.017 1.32865-.05226a6.9222 6.9222 0 0 0 1.11717-.198 11.2686 11.2686 0 0 0 1.171-.3808c.41166-.15784.90874-.369 1.48742-.63109l1.94661-.86839 1.94663.86839q.84276.36767 1.47318.61811a10.20754 10.20754 0 0 0 1.19816.39378 7.23917 7.23917 0 0 0 1.1433.198q.579.05295 1.28969.05226h3.71042a.45158.45158 0 0 0 .47324-.47324v-1.65739a.51169.51169 0 0 0-.13172-.35574.44034.44034 0 0 0-.34152-.14471h-3.71046a7.21815 7.21815 0 0 1-1.76293-.21011 16.088 16.088 0 0 1-1.97258-.65829l-.21118-.07823 1.15782-.52658a15.20807 15.20807 0 0 0 1.77576-.92066 4.2547 4.2547 0 0 0 1.03894-.86809 2.32092 2.32092 0 0 0 .48776-1.02625 7.13914 7.13914 0 0 0 .11857-1.395v-.97384h3.5254a.4496.4496 0 0 0 .47324-.47324v-1.68315a.45171.45171 0 0 0-.47324-.47492h-3.5254v-1.55129a.51017.51017 0 0 0-.13171-.35589.4471.4471 0 0 0-.3429-.14486H42.4234a.44171.44171 0 0 0-.49937.50075v1.55129h-8.6831v-1.57742a.44316.44316 0 0 0-.14486-.34291.51052.51052 0 0 0-.35451-.13171h-2.36881a.45167.45167 0 0 0-.47353.47462v1.57742h-3.657a.50642.50642 0 0 0-.35467.13172.44438.44438 0 0 0-.14468.3432v1.68317a.44374.44374 0 0 0 .14468.3429.50538.50538 0 0 0 .35467.13034h3.6831zm11.9987 0v.92158q0 .47332-.02751.76281a1.02036 1.02036 0 0 1-.17069.49938 1.39076 1.39076 0 0 1-.4601.39485c-.21008.12255-.50854.27261-.89437.44741l-2.78888 1.2633-2.78873-1.2633q-.55353-.2622-.8684-.43412a1.41411 1.41411 0 0 1-.47324-.38094.98154.98154 0 0 1-.185-.51359c-.017-.20063-.02615-.46025-.02615-.7758v-.92158zM28.216 5.84739a2.26061 2.26061 0 0 0-.88124.17083 2.17555 2.17555 0 0 0-.71055.47325 2.38722 2.38722 0 0 0-.4876.71055 2.119 2.119 0 0 0-.18383.88124v1.34165a.44308.44308 0 0 0 .14458.34289.51075.51075 0 0 0 .356.13035H28.216a.44918.44918 0 0 0 .47324-.47324v-1.1838H46.4494v1.1838a.44942.44942 0 0 0 .47339.47324h1.78876a.44767.44767 0 0 0 .47324-.47324V8.08326A2.24446 2.24446 0 0 0 49.014 7.202a2.20579 2.20579 0 0 0-2.03921-1.35463h-7.57743v-.948a.50432.50432 0 0 0-.13171-.35451.43853.43853 0 0 0-.34153-.14486h-2.71064a.4405.4405 0 0 0-.34152.14487.50978.50978 0 0 0-.13172.35451v.948zm-17.65955 17.9438a.44965.44965 0 0 0 .47325.47324h2.70941a.51028.51028 0 0 0 .35574-.13172.44039.44039 0 0 0 .14473-.34152V20.2123H23.606a.44177.44177 0 0 0 .49937-.49937v-1.71052a.49415.49415 0 0 0-.49937-.49941h-9.36642V8.05713h8.55028a.44277.44277 0 0 0 .3429-.14471.51155.51155 0 0 0 .13172-.35573V5.92548a.45169.45169 0 0 0-.47462-.47325H1.979a.45172.45172 0 0 0-.47462.47325v1.63121a.5102.5102 0 0 0 .13174.35573.44273.44273 0 0 0 .34288.14471h8.5775V17.503H1.2684a.49419.49419 0 0 0-.50075.49937v1.71052a.44207.44207 0 0 0 .50075.49937h9.28805zM6.17456 9.68834a1.4592 1.4592 0 0 0-.56462-.07946H2.95156a.31373.31373 0 0 0-.24907.07946.24532.24532 0 0 0-.06663.15755.80738.80738 0 0 0 .1059.34183l2.73646 5.31538a.72181.72181 0 0 0 .28942.36766 1.42623 1.42623 0 0 0 .579.07945h2.68327c.211 0 .3154-.07029.3154-.2098a1.03729 1.03729 0 0 0-.13172-.369l-2.73525-5.31419a.7013.7013 0 0 0-.30378-.36888m12.472 0a.69413.69413 0 0 0-.30274.36888l-2.73662 5.31416a1.10052 1.10052 0 0 0-.11845.2503.57676.57676 0 0 0-.01329.11873c0 .13951.10559.2098.3157.2098h2.68435a1.43493 1.43493 0 0 0 .579-.07945.72886.72886 0 0 0 .28939-.36766l2.73677-5.31538a1.01038 1.01038 0 0 0 .10422-.34183c0-.15755-.10422-.237-.31568-.237h-2.657a1.46107 1.46107 0 0 0-.56567.07946"/></svg>