<svg xmlns="http://www.w3.org/2000/svg" role="img" viewBox="-99.90 -99.90 5194.80 1509.80"><title>Pionative (member) logo</title><path fill="none" d="M3930.34668 1035.40973c-15.12622 0-27.07788 5.22882-35.85474 15.68652-8.40356 9.89746-12.60547 22.40942-12.60547 37.53571s4.2019 27.63824 12.60547 37.53571c8.77686 10.4577 20.72852 15.68658 35.85474 15.68658s27.07764-5.22888 35.85498-15.68658c8.40332-9.89746 12.60498-22.40936 12.60498-37.53571s-4.20166-27.63824-12.60498-37.53571c-8.77734-10.4577-20.72876-15.68652-35.85498-15.68652zM3666.75732 993.112h-61.06543v79.83344h61.06543c14.56592 0 25.58398-3.54816 33.05371-10.64447 7.46997-7.09631 11.20459-16.8537 11.20459-29.27228s-3.73462-22.1759-11.20459-29.27222c-7.46973-7.09631-18.48779-10.64447-33.05371-10.64447zM1079.71118 605.98376c-80.92694 0-150.40356 69.20001-151.12268 148.08026-.38721 39.05292 14.9353 76.39099 43.1463 105.09985 28.37701 28.93018 65.71515 45.02704 105.15533 45.41425l1.27222 27.6579v-27.6579c81.64612 0 148.57812-66.047 149.24194-147.30585.66382-81.97791-65.60449-149.85034-147.69312-151.28851zm-661.46576-72.46362C216.56421 534.62652 54.59973 697.97388 55.31878 897.6084c.77448 199.30267 163.07086 361.37781 361.93097 361.37781v27.6579l1.88074-27.6579c199.19202-1.05096 360.71399-164.50897 360.21619-364.4201-.55316-199.02612-162.5177-361.04596-361.10126-361.04596zm3099.99555-124.14795c-26.91528-32.06812-63.56543-48.10211-109.95093-48.10211-45.81274 0-83.03589 16.034-111.6687 48.10211-26.91528 30.35016-40.3728 68.71735-40.3728 115.10156s13.45752 84.7514 40.3728 115.10156c28.63281 32.06812 65.85596 48.10217 111.6687 48.10217 46.3855 0 83.03564-16.03406 109.95093-48.10217 25.76978-30.35016 38.65454-68.71735 38.65454-115.10156s-12.88477-84.7514-38.65454-115.10156zM325.09369 383.94635l4.09338 27.76849v-27.6579c54.26477 0 100.12152-43.7547 102.16821-97.57697 2.10199-56.80933-40.87836-103.21924-97.96417-105.48706h-.11066c-58.52411 0-104.54675 43.47815-106.7041 97.0238-2.21265 55.14978 42.86969 103.71698 98.51733 105.92963zm1595.69964 651.46338c-15.12622 0-27.07788 5.22882-35.85486 15.68652-8.40356 9.89746-12.60522 22.40942-12.60522 37.53571s4.20166 27.63824 12.60522 37.53571c8.77698 10.4577 20.72864 15.68658 35.85486 15.68658s27.07788-5.22888 35.85486-15.68658c8.40356-9.89746 12.60522-22.40936 12.60522-37.53571s-4.20166-27.63824-12.60522-37.53571c-8.77698-10.4577-20.72852-15.68652-35.85486-15.68652zm513.40101-674.13965c-46.3855 0-83.03564 16.034-109.95068 48.10211-25.77002 30.35016-38.65479 68.71735-38.65479 115.10156s12.88477 84.7514 38.65479 115.10156c26.91504 32.06812 63.56519 48.10217 109.95068 48.10217s83.03564-16.03406 109.95093-48.10217c25.76978-30.35016 38.65454-68.71735 38.65454-115.10156s-12.88477-84.7514-38.65454-115.10156c-26.91528-32.06812-63.56543-48.10211-109.95093-48.10211zm967.57324 686.18469c-8.7771-8.03003-19.60815-12.04504-32.49341-12.04504s-23.7168 4.01501-32.49365 12.04504c-8.2168 7.65649-13.25879 17.64734-15.12622 29.97253h95.2395c-1.86743-12.3252-6.90942-22.31604-15.12622-29.97253zm-1107.29932-12.04504c-14.93945 0-27.07788 5.22882-36.41504 15.68652-8.7771 9.89746-13.16553 22.40942-13.16553 37.53571s4.38843 27.63824 13.16553 37.53571c9.33716 10.4577 21.47559 15.68658 36.41504 15.68658 15.12622 0 27.07788-5.22888 35.85498-15.68658 8.40332-9.89746 12.60522-22.40936 12.60522-37.53571s-4.2019-27.63824-12.60522-37.53571c-8.7771-10.4577-20.72876-15.68652-35.85498-15.68652zM831.34338 462.71594v27.6579l.44257-27.6579c111.07397-.22125 202.45563-90.88373 203.83856-201.95776.6637-53.87756-20.30096-105.04456-59.02191-144.20813-39.10822-39.49536-90.66254-61.23462-145.1485-61.23462-111.79315.27661-203.2301 90.82861-204.33643 201.79199-.55316 54.0434 20.52216 105.37646 59.29846 144.53998 38.99762 39.38483 90.49652 61.06854 144.92725 61.06854zm1067.69959-198.50915c-22.90637-21.7605-56.69336-32.64062-101.36084-32.64062h-187.26001v244.80548h187.26001c44.66748-.00006 78.45447-10.88025 101.36084-32.64075 22.90649-21.7605 34.35962-51.68115 34.35962-89.76208s-11.45312-68.00153-34.35962-89.76202zm2620.38818 783.24798c-8.77734-8.03003-19.6084-12.04504-32.49365-12.04504s-23.71631 4.01501-32.49316 12.04504c-8.2168 7.65649-13.25928 17.64734-15.12646 29.97253h95.23926c-1.86719-12.3252-6.90918-22.31604-15.12598-29.97253zm-1711.79004-12.04504c-14.93945 0-27.07788 5.22882-36.41504 15.68652-8.7771 9.89746-13.16553 22.40942-13.16553 37.53571s4.38843 27.63824 13.16553 37.53571c9.33716 10.4577 21.47559 15.68658 36.41504 15.68658 15.12622 0 27.07788-5.22888 35.85498-15.68658 8.40332-9.89746 12.60498-22.40936 12.60498-37.53571s-4.20166-27.63824-12.60498-37.53571c-8.7771-10.4577-20.72876-15.68652-35.85498-15.68652zm1527.75342 12.04504c-8.77686-8.03003-19.60791-12.04504-32.49316-12.04504s-23.71631 4.01501-32.49365 12.04504c-8.2168 7.65649-13.25879 17.64734-15.12646 29.97253h95.23975c-1.86768-12.3252-6.90967-22.31604-15.12646-29.97253zm551.21875-649.24914c-26.91455-24.62372-60.12891-36.93555-99.64258-36.93555s-72.72803 12.31183-99.64307 36.93555c-25.19727 23.47845-40.65918 54.11493-46.38574 91.90948h292.05713c-5.72656-37.79456-21.18848-68.43103-46.38574-91.90948z"/><path fill="#0091e1" d="M415.97748 478.20435C185.698 479.47668-.88202 667.71613.00305 897.82965c.88507 229.6156 188.01825 416.47217 417.2467 416.47217h2.21259c229.61572-1.16162 415.86383-189.51178 415.20001-419.8465-.60846-229.50507-187.40973-416.25098-418.68488-416.25098zm3.15302 780.78186l-1.88074 27.6579v-27.6579c-198.86011 0-361.15649-162.07513-361.93097-361.37781-.71906-199.63452 161.24542-362.98187 362.92664-364.08826 198.58356 0 360.5481 162.01984 361.10126 361.04596.4978 199.91113-161.02417 363.36914-360.21619 364.4201zm412.21294-740.89917h.55304c141.16583-.33185 257.38428-115.44391 259.0437-256.66504.82983-68.70215-25.7771-133.97473-75.00812-183.75891C966.4245 27.60229 900.9306-.00024 830.84558-.00024 689.4585.38697 573.24017 115.44385 571.80194 256.60962c-.71912 68.86804 25.99841 134.25122 75.28473 184.0354 49.45227 49.95013 114.89087 77.44202 184.25677 77.44202zm.11066-462.77161c54.48596 0 106.04028 21.73926 145.1485 61.23462 38.72095 39.16357 59.68561 90.33057 59.02191 144.20813-1.38293 111.07404-92.76459 201.73651-203.83856 201.95776l-.44257 27.6579v-27.6579c-54.43073 0-105.92963-21.68372-144.92725-61.06854-38.77631-39.16351-59.85162-90.49658-59.29846-144.53998 1.10632-110.96338 92.54327-201.51538 204.33643-201.79199zm245.82312 495.29718c-109.52515 0-202.89813 92.93048-204.00446 202.89819-.55316 53.76691 20.4115 105.09985 58.96655 144.42938 38.72101 39.49548 89.94342 61.45581 144.0976 61.95367h1.82544c111.90381 0 203.67249-90.71777 204.61279-202.17908.82983-112.18036-89.77734-205.05548-205.49792-207.10217zm.88513 353.96552v27.6579l-1.27222-27.6579c-39.44019-.38721-76.77832-16.48407-105.15533-45.41425-28.211-28.70886-43.53351-66.04694-43.1463-105.09985.71912-78.88025 70.19574-148.08026 151.12268-148.08026 82.08862 1.43817 148.35693 69.31061 147.69312 151.28851-.66382 81.25885-67.59583 147.30585-149.24194 147.30585zM322.82581 439.26208c.38721 0 5.97406.11066 6.36127.11066 83.63739 0 154.27563-67.65118 157.42859-150.79071 3.20831-86.29248-64.49817-159.41992-150.95667-162.90491-.38721 0-5.97406-.1106-6.36133-.1106-83.74799 0-154.66278 67.37463-158.03705 150.23755-3.42957 85.13092 65.9917 159.97314 151.56519 163.45801zm-96.24945-161.24536c2.15735-53.54565 48.17999-97.0238 106.7041-97.0238h.11066c57.08582 2.26782 100.06616 48.67773 97.96417 105.48706-2.04669 53.82227-47.90344 97.57697-102.16821 97.57697v27.6579l-4.09338-27.76849c-55.64764-2.21265-100.72998-50.77985-98.51733-105.92963z"/><path fill="#270949" d="M2147.1272 1099.27643c0 12.5119-4.1084 22.78284-12.3252 30.81287-8.21655 7.84332-18.20752 11.76495-29.97241 11.76495-11.57812 0-21.00879-3.82825-28.29175-11.4848s-10.92456-17.92749-10.92456-30.81293v-80.95386h-21.00854v81.5141c0 18.6745 5.78906 33.70746 17.36719 45.09888 5.04199 5.22888 10.92456 9.15051 17.64722 11.76495 6.7229 2.61438 14.75293 3.92163 24.09009 3.92163s17.64722-2.33429 24.93042-7.00293c7.28296-4.66864 13.44556-10.36432 18.48755-17.08716v21.84912h21.00879v-140.05859h-21.00879v80.67377zm511.2118 29.97257l-114.567-156.025h-24.37v185.437h21.008v-156.585l114.568 156.585h24.37V973.224h-21.009v156.025zm-737.54567-112.88724c-20.91541 0-37.90906 7.00293-50.98108 21.00879-12.3252 13.44562-18.48779 30.53278-18.48779 51.26141s6.1626 37.81586 18.48779 51.26147c13.07202 14.00586 30.06567 21.00879 50.98108 21.00879s37.90906-7.00293 50.98108-21.00879c12.3252-13.44562 18.48779-30.53278 18.48779-51.26147s-6.1626-37.8158-18.48779-51.26141c-13.07202-14.00586-30.06567-21.00879-50.98108-21.00879zm35.85486 109.80591c-8.77698 10.4577-20.72852 15.68658-35.85486 15.68658s-27.07788-5.22888-35.85486-15.68658c-8.40356-9.89746-12.60522-22.40936-12.60522-37.53571s4.20166-27.63824 12.60522-37.53571c8.77698-10.4577 20.72864-15.68652 35.85486-15.68652s27.07788 5.22882 35.85486 15.68652c8.40356 9.89746 12.60522 22.40942 12.60522 37.53571s-4.20166 27.63824-12.60522 37.53571zm-349.30481-128.99396c8.77698-3.82825 19.7948-5.74237 33.05371-5.74237s24.88367 3.36139 34.87439 10.08417c9.99084 6.72284 17.41394 15.77997 22.26929 27.17139h22.12915c-6.1626-17.55402-16.34009-31.37311-30.53271-41.45734-15.12622-10.83118-32.96021-16.24677-53.5022-16.24683-27.07788.00006-49.02026 9.2439-65.82715 27.73163-15.87329 17.74072-23.80994 40.15015-23.80994 67.22815s7.93665 49.48737 23.80994 67.22809c16.80688 18.48773 38.74927 27.73163 65.82715 27.73163 20.54199 0 38.37598-5.41559 53.5022-16.24683 14.19263-10.08417 24.37012-23.90332 30.53271-41.45734h-22.12915c-4.85535 11.39142-12.27844 20.44855-22.26929 27.17139-9.99072 6.72278-21.6156 10.08423-34.87439 10.08423-24.08997 0-42.48425-7.1897-55.18298-21.56903-12.13831-13.63239-18.20752-31.27979-18.20752-52.94214s6.06921-39.30981 18.20752-52.9422c5.97583-6.72278 13.35229-11.99835 22.12927-15.8266zm734.46448 44.11847c-11.39136-16.6203-27.63794-24.93042-48.74023-24.93042s-38.0022 7.00293-50.70093 21.00879c-12.3252 13.81909-18.48755 30.90625-18.48779 51.26141.00024 20.35522 6.1626 37.44232 18.48779 51.26147 12.69873 14.00586 29.13208 21.00879 49.30054 21.00879 22.22241 0 38.93604-8.2168 50.14062-24.65033v22.40936h21.00879V962.57922h-21.00879v78.71295zm-11.48462 84.87549c-8.7771 10.4577-20.72876 15.68658-35.85498 15.68658-14.93945 0-27.07788-5.22888-36.41504-15.68658-8.7771-9.89746-13.16553-22.40936-13.16553-37.53571s4.38843-27.63824 13.16553-37.53571c9.33716-10.4577 21.47559-15.68652 36.41504-15.68652 15.12622 0 27.07788 5.22882 35.85498 15.68652 8.40332 9.89746 12.60522 22.40942 12.60522 37.53571s-4.2019 27.63824-12.60522 37.53571zm524.65747-84.87549c-11.39136-16.6203-27.63818-24.93042-48.74023-24.93042s-38.0022 7.00293-50.70093 21.00879c-12.3252 13.81909-18.48779 30.90625-18.48779 51.26141s6.1626 37.44232 18.48779 51.26147c12.69873 14.00586 29.13208 21.00879 49.30054 21.00879 22.22241 0 38.93604-8.2168 50.14062-24.65033v22.40936h21.00879v-140.05859h-21.00879v22.68951zm-11.48462 84.87549c-8.7771 10.4577-20.72876 15.68658-35.85498 15.68658-14.93945 0-27.07788-5.22888-36.41504-15.68658-8.7771-9.89746-13.16553-22.40936-13.16553-37.53571s4.38843-27.63824 13.16553-37.53571c9.33716-10.4577 21.47559-15.68652 36.41504-15.68652 15.12622 0 27.07788 5.22882 35.85498 15.68652 8.40332 9.89746 12.60498 22.40942 12.60498 37.53571s-4.20166 27.63824-12.60498 37.53571zM1774.573 962.579h21.009v196.082h-21.009zm1285.173 56.024h21.009v140.059h-21.009zm1243.15537-2.24124c-20.91553 0-37.90918 7.00293-50.98145 21.00879-12.3252 13.44562-18.48779 30.53278-18.4873 51.26141-.00049 20.54193 6.44238 37.62909 19.32764 51.26147 13.25928 14.00586 30.43945 21.00879 51.5415 21.00879 16.62012 0 30.20605-3.92163 40.75684-11.76495 10.55127-7.84326 18.25439-18.1142 23.10938-30.81287h-22.96924c-8.2168 15.68658-21.75537 23.52985-40.6167 23.52985-13.81934 0-25.21045-4.2951-34.17432-12.88538-8.77686-8.40356-13.9126-19.04797-15.40625-31.93341h117.36865v-8.4035c0-20.72864-6.1626-37.8158-18.48779-51.26141-13.07227-14.00586-30.06592-21.00879-50.98096-21.00879zm-47.62012 61.06555c1.86768-12.3252 6.90967-22.31604 15.12646-29.97253 8.77734-8.03003 19.60791-12.04504 32.49365-12.04504s23.71631 4.01501 32.49316 12.04504c8.2168 7.65649 13.25879 17.64734 15.12646 29.97253h-95.23975zm231.65625-61.06555c-20.91553 0-37.90869 7.00293-50.98145 21.00879-12.3252 13.44562-18.4873 30.53278-18.4873 51.26141 0 20.54193 6.44287 37.62909 19.32812 51.26147 13.25879 14.00586 30.43896 21.00879 51.54102 21.00879 16.62061 0 30.20605-3.92163 40.75732-11.76495 10.55078-7.84326 18.25391-18.1142 23.10938-30.81287h-22.96973c-8.2168 15.68658-21.75537 23.52985-40.6167 23.52985-13.81934 0-25.21045-4.2951-34.17383-12.88538-8.77734-8.40356-13.91309-19.04797-15.40674-31.93341h117.36865v-8.4035c.00049-20.72864-6.1626-37.8158-18.48779-51.26141-13.07178-14.00586-30.06543-21.00879-50.98096-21.00879zm-47.61963 61.06555c1.86719-12.3252 6.90967-22.31604 15.12646-29.97253 8.77686-8.03003 19.60791-12.04504 32.49316-12.04504s23.71631 4.01501 32.49365 12.04504c8.2168 7.65649 13.25879 17.64734 15.12598 29.97253h-95.23926zm-295.24267-57.14392c-6.72266-2.61444-14.75244-3.92163-24.08984-3.92163s-17.64746 2.33429-24.93042 7.00293c-7.28296 4.66858-13.44556 10.36432-18.48755 17.08716v-21.84918h-21.00879v140.05859h21.00879v-80.67377c0-12.51184 4.1084-22.78284 12.32495-30.81287 8.21704-7.84326 18.20776-11.76489 29.97241-11.76489 11.57812 0 21.00879 3.82825 28.29199 11.4848 7.28271 7.65649 10.92432 17.92749 10.92432 30.81287v80.95386h21.00879v-81.5141c0-18.6745-5.78906-33.7074-17.36719-45.09888-5.04199-5.22882-10.92432-9.15045-17.64746-11.76489zm-213.72852-3.92163c-20.91528 0-37.90894 7.00293-50.98096 21.00879-12.3252 13.44562-18.48779 30.53278-18.48779 51.26141s6.1626 37.81586 18.48779 51.26147c13.07202 14.00586 30.06567 21.00879 50.98096 21.00879s37.90918-7.00293 50.9812-21.00879c12.32495-13.44562 18.48755-30.53278 18.48755-51.26147s-6.1626-37.8158-18.48755-51.26141c-13.07202-14.00586-30.06616-21.00879-50.9812-21.00879zm35.85498 109.80591c-8.77734 10.4577-20.72876 15.68658-35.85498 15.68658s-27.07788-5.22888-35.85474-15.68658c-8.40356-9.89746-12.60547-22.40936-12.60547-37.53571s4.2019-27.63824 12.60547-37.53571c8.77686-10.4577 20.72852-15.68652 35.85474-15.68652s27.07764 5.22882 35.85498 15.68652c8.40332 9.89746 12.60498 22.40942 12.60498 37.53571s-4.20166 27.63824-12.60498 37.53571zm694.12793-105.32404c-14.93994 6.90955-24.65039 17.64734-29.13232 32.21344v-34.45441h-21.00879v140.05859h21.00879v-61.62579c0-16.06 4.48193-29.87915 13.4458-41.45734 9.52393-12.13837 21.84912-18.20758 36.9751-18.20758h2.521v-21.00879h-1.40039c-8.77686 0-16.24658 1.49396-22.40918 4.48187zM2976.551 968.462h-21.009v50.141h-28.571v18.487h28.571v121.571h21.009V1037.09h32.214v-18.487h-32.214v-50.141zm1842.324 117.78898c-6.90918-2.89453-14.42578-5.1355-22.54883-6.72284-8.12354-1.58728-15.64014-3.3147-22.5498-5.18213s-12.65186-4.24847-17.22705-7.14301-6.86279-7.14301-6.86279-12.7453c0-13.44568 10.78418-20.16846 32.35352-20.16846s33.28711 7.28302 35.1543 21.84912h21.28906c-1.30762-11.39142-6.06934-20.54193-14.28613-27.45148-9.89697-8.21674-23.43604-12.32513-40.6167-12.32513-18.11426 0-31.79346 3.50146-41.03711 10.50439s-13.86572 16.8537-13.86572 29.55237c0 8.59021 2.2876 15.31305 6.86279 20.1684 4.5752 4.85541 10.31738 8.68365 17.22705 11.4848 6.90967 2.80121 14.42627 4.99548 22.5498 6.58276 8.12305 1.58734 15.63965 3.36145 22.54932 5.32227 6.90918 1.96082 12.65137 4.48187 17.22705 7.56311 4.5752 3.0813 6.86279 7.51648 6.86279 13.3056 0 8.59027-4.48193 14.65948-13.4458 18.20764-3.92139 1.49396-7.93652 2.52106-12.04492 3.08124-4.1084.56024-8.54346.84039-13.30566.84039-4.76172 0-9.57031-.74701-14.42578-2.24097-13.25879-4.48187-20.54199-13.16553-21.84912-26.0509h-21.84912c.74707 13.25891 6.1626 23.9967 16.24707 32.2135 11.01758 9.33722 25.86426 14.00586 44.53809 14.00586 17.5542 0 31.46631-3.59485 41.7373-10.78455 10.271-7.18964 15.40625-17.60065 15.40625-31.23303 0-8.77704-2.28711-15.68658-6.8623-20.7287-4.57568-5.04211-10.31787-9.01044-17.22754-11.90497zM3195.602 1136.252l-44.258-117.649h-22.97l54.903 140.058h24.65l54.623-140.058h-22.97l-43.978 117.649zm587.684-168.631h22.689v27.451h-22.689zm-414.01183 48.74076c-20.91528 0-37.90894 7.00293-50.9812 21.00879-12.3252 13.44562-18.48779 30.53278-18.48779 51.26141 0 20.54193 6.44263 37.62909 19.32812 51.26147 13.25879 14.00586 30.43921 21.00879 51.54126 21.00879 16.62012 0 30.20581-3.92163 40.75708-11.76495 10.55103-7.84326 18.25415-18.1142 23.10938-30.81287h-22.96948c-8.2168 15.68658-21.75537 23.52985-40.6167 23.52985-13.81909 0-25.21045-4.2951-34.17432-12.88538-8.7771-8.40356-13.91235-19.04797-15.40649-31.93341h117.36865v-8.4035c0-20.72864-6.1626-37.8158-18.4873-51.26141-13.07227-14.00586-30.06616-21.00879-50.9812-21.00879zm-47.61987 61.06555c1.86743-12.3252 6.90942-22.31604 15.12622-29.97253 8.77686-8.03003 19.60815-12.04504 32.49365-12.04504s23.71631 4.01501 32.49341 12.04504c8.2168 7.65649 13.25879 17.64734 15.12622 29.97253h-95.2395zM3058.905 967.621h22.689v27.451h-22.689zm609.25296 5.60269h-83.47461v185.43756h21.00854v-66.10767h62.46606c19.60815 0 35.15454-5.3689 46.6394-16.10669 11.48462-10.73785 17.22705-25.25726 17.22705-43.55823 0-18.11426-5.6958-32.58698-17.08691-43.41821-11.57812-10.83118-27.17139-16.24677-46.77954-16.24677zm31.65308 89.07727c-7.46973 7.09631-18.48779 10.64447-33.05371 10.64447h-61.06543v-79.83344h61.06543c14.56592 0 25.58398 3.54816 33.05371 10.64447 7.46997 7.09631 11.20459 16.8537 11.20459 29.27222s-3.73462 22.17596-11.20459 29.27228zm84.31496-43.69796h21.009v140.059h-21.009zM2069.123 153.4h69.578v84.179h-69.578zm2.577 156.332h64.424v429.483H2071.7zm1867.446 0h-98.783V155.977h-64.425v153.755h-87.617v56.692h87.617v372.791h64.425V366.424h98.783v-56.692zm536.011 0l-134.862 360.766-135.72-360.766h-70.437L4302.5 739.215h75.591l167.503-429.483h-70.437zm-465.573 0h64.424v429.483h-64.424zm-2.577-156.332h69.578v84.179h-69.578zm992.99349 371.07375c0-63.56354-18.89795-115.96051-56.69336-157.19092-40.08643-42.94836-92.19873-64.42249-156.33643-64.42249s-116.25049 21.47412-156.33643 64.42249c-37.79541 41.23041-56.69336 93.62738-56.69336 157.19092 0 62.99091 19.75684 115.38788 59.27002 157.19092 40.65918 42.94836 93.34375 64.42255 158.05469 64.42255 50.9668 0 92.62744-12.02557 124.98291-36.0766 32.35547-24.05109 55.97754-55.54657 70.8667-94.48639h-70.43701c-25.19678 48.10217-66.71484 72.15326-124.55371 72.15326-42.37695 0-77.30908-13.17084-104.79688-39.51251-26.91504-25.76898-42.66309-58.40973-47.24463-97.92224h359.91748v-25.76898zm-359.05859-34.35864c5.72656-37.79456 21.18848-68.43103 46.38574-91.90948 26.91504-24.62372 60.12939-36.93555 99.64307-36.93555s72.72803 12.31183 99.64258 36.93555c25.19727 23.47845 40.65918 54.11493 46.38574 91.90948H4640.9419zM3003.70557 314.88586c-20.61597-8.01703-45.24023-12.02551-73.87354-12.02551s-54.11621 7.15802-76.44995 21.47412-41.23169 31.7818-56.6936 52.39703v-66.99945h-64.42432v429.4834h64.42432V491.833c0-38.36719 12.59863-69.86261 37.79565-94.48633 25.19702-24.05109 55.83423-36.0766 91.91187-36.0766 35.50513 0 64.42432 11.7392 86.7583 35.21765 22.33374 23.47839 33.50073 54.97382 33.50073 94.48633v248.24139h64.42432V489.25609c0-57.26447-17.75269-103.3623-53.25757-138.29364-15.46191-16.03406-33.50073-28.05957-54.11621-36.0766zm614.17822 424.32959v-429.4834h-64.42432v69.57629c-34.93213-50.96533-84.75366-76.448-149.46436-76.448s-116.53638 21.47412-155.47754 64.42249c-37.79541 42.37567-56.69336 94.77264-56.69336 157.19092s18.89795 114.81525 56.69336 157.19092c38.94116 42.94836 89.33496 64.42255 151.18262 64.42255 68.14673 0 119.39966-25.19635 153.75928-75.58911v68.71735h64.42432zm-99.64282-99.64014c-26.91528 32.06812-63.56543 48.10217-109.95093 48.10217-45.81274 0-83.03589-16.03406-111.6687-48.10217-26.91528-30.35016-40.3728-68.71735-40.3728-115.10156s13.45752-84.7514 40.3728-115.10156c28.63281-32.06812 65.85596-48.10211 111.6687-48.10211 46.3855 0 83.03564 16.034 109.95093 48.10211 25.76978 30.35016 38.65454 68.71735 38.65454 115.10156s-12.88477 84.7514-38.65454 115.10156zm-927.71021 42.08936c37.79541-41.23041 56.69336-93.62738 56.69336-157.19092s-18.89795-115.96051-56.69336-157.19092c-40.08618-42.94836-92.19824-64.42249-156.33643-64.42249s-116.25 21.47412-156.33643 64.42249c-37.79541 41.23041-56.69336 93.62738-56.69336 157.19092s18.89795 115.96051 56.69336 157.19092c40.08643 42.94836 92.19849 64.42255 156.33643 64.42255s116.25024-21.47418 156.33643-64.42255zm-46.3855-42.08936c-26.91528 32.06812-63.56543 48.10217-109.95093 48.10217s-83.03564-16.03406-109.95068-48.10217c-25.77002-30.35016-38.65479-68.71735-38.65479-115.10156s12.88477-84.7514 38.65479-115.10156c26.91504-32.06812 63.56519-48.10211 109.95068-48.10211s83.03564 16.034 109.95093 48.10211c25.76978 30.35016 38.65454 68.71735 38.65454 115.10156s-12.88477 84.7514-38.65454 115.10156zm-598.71679-419.17577c-35.50488-33.21338-83.32202-49.82019-143.45142-49.82007H1545.9978v568.63599h64.42432V536.49933h191.55493c60.12939 0 107.80334-16.46356 143.02197-49.39062 35.21875-32.92706 52.82788-77.4502 52.82788-133.56934 0-55.54651-17.46606-99.92645-52.39844-133.13983zm-46.3855 223.33136c-22.90637 21.7605-56.69336 32.64069-101.36084 32.64075h-187.26001V231.56617h187.26001c44.66748 0 78.45447 10.88013 101.36084 32.64062 22.90649 21.7605 34.35962 51.68121 34.35962 89.76202s-11.45312 68.00159-34.35962 89.76208z"/></svg>