<svg xmlns="http://www.w3.org/2000/svg" role="img" viewBox="-5.22 -5.22 261.18 271.18"><title>Pixie logo</title><path fill="url(#paint0_linear)" fill-rule="evenodd" d="M103.213 12.4912c.942 5.8961-1.755 12.0272-7.2342 15.1905-5.4956 3.1729-12.1775 2.4295-16.8142-1.3642C64.6245 39.1098 55.4493 57.8554 55.4493 78.744c0 38.552 31.2522 69.804 69.8037 69.804 6.612 0 13.01-.92 19.072-2.638-1.694-7.508 1.575-15.557 8.592-19.608 6.984-4.032 15.542-2.868 21.198 2.292 12.924-12.669 20.942-30.3229 20.942-49.85 0-38.5515-31.252-69.80368-69.804-69.80368-7.702 0-15.112 1.24728-22.04 3.55088zm22.04 142.5058c7.51 0 14.767-1.086 21.622-3.109 5.219 7.922 15.776 10.495 24.098 5.69 8.354-4.824 11.396-15.314 7.073-23.812 14.459-13.877 23.46-33.398 23.46-55.022 0-42.1133-34.14-76.25294-76.253-76.25294-8.544 0-16.76 1.40518-24.429 3.99704C96.498.11855 87.9203-1.92166 81.1455 1.98976 74.3859 5.89241 71.86 14.312 75.1793 21.2348 59.1378 35.214 49 55.7951 49 78.744c0 42.113 34.1396 76.253 76.253 76.253zM104.791 44.2654h47.512c.296 0 .566.1118.783.3224.211.2106.329.4935.329.7896V89.547c0 .2961-.118.5791-.322.7896-.204.2106-.487.329-.783.329h-14.364c-.145 0-.289-.0263-.421-.0855-.138-.0593-.257-.1382-.362-.2435-.105-.1053-.178-.2303-.237-.3619s-.085-.2763-.085-.4211V59.1158h-32.05c-.296 0-.579-.1184-.783-.329-.204-.2105-.323-.4934-.323-.7895V45.3774c0-.1448.027-.283.086-.4211.059-.1448.138-.2632.237-.3619.105-.1119.23-.1842.362-.2435.131-.0592.276-.0855.421-.0855zm14.968 29.6883h-15.574c-.276 0-.5.2237-.5.5066v43.5187c0 .283.224.506.5.506h15.568c.276 0 .5-.223.5-.506V74.4603c.006-.2829-.217-.5066-.494-.5066zm-9.681 146.6873c.181.182.464.182.646 0l9.324-9.4c.181-.181.181-.473 0-.654l-19.298-19.451c-.182-.181-.465-.181-.647 0l-9.3279 9.4c-.1816.182-.1816.473 0 .655l19.3029 19.45zm49.846-20.096l-9.324-9.396c-.181-.182-.464-.182-.646 0l-59.1703 59.652c-.1817.182-.1817.473 0 .655l9.3193 9.4c.182.181.465.181.647 0l59.174-59.661c.178-.177.178-.469 0-.65zm-19.932 30.806c.182-.182.465-.182.647 0l19.298 19.458c.181.182.181.474 0 .655l-9.328 9.4c-.182.182-.465.182-.647 0l-19.298-19.459c-.181-.181-.181-.473 0-.655l9.328-9.399zm109.803-25.606c.135 0 .261-.025.384-.076.122-.05.232-.127.325-.219.093-.093.169-.203.216-.326.05-.122.076-.257.076-.388v-11.479c0-.135-.021-.262-.076-.388-.051-.127-.123-.233-.216-.326s-.203-.169-.325-.219c-.123-.051-.249-.076-.384-.076h-43.214c-.136 0-.262.025-.385.076-.122.05-.232.126-.325.219s-.169.203-.216.326c-.05.122-.076.257-.076.388v65.482c0 .135.022.262.076.385.051.122.123.232.216.325s.203.169.325.224c.123.051.249.076.385.076h43.214c.135 0 .261-.03.384-.076.122-.051.232-.127.325-.224.093-.093.169-.203.216-.325.046-.123.076-.258.076-.385v-11.474c0-.135-.021-.262-.076-.389-.051-.126-.123-.232-.216-.325s-.203-.169-.325-.224c-.123-.055-.249-.076-.384-.076h-29.146v-13.502h29.146c.135 0 .261-.025.384-.076.122-.051.232-.127.325-.22.093-.092.169-.202.216-.325.046-.122.076-.258.076-.393v-11.474c0-.135-.021-.262-.076-.389-.051-.126-.123-.232-.216-.325s-.203-.169-.325-.22c-.123-.05-.249-.076-.384-.076h-29.146v-13.506h29.146zM1.00499 192.243H44.2231c.2661 0 .5111.097.7013.292.1901.194.2957.448.2957.718v40.168c0 .27-.1056.524-.2915.718-.1859.19-.4436.296-.7098.296H31.1563c-.1352 0-.262-.026-.3845-.076-.1225-.051-.2324-.127-.3253-.22-.0929-.093-.1648-.203-.2154-.325-.0507-.123-.0761-.25-.0761-.385v-27.688H1.00499c-.26615 0-.52387-.101-.70975-.296-.18589-.194-.2915-.452-.2915-.718v-11.478c0-.135.02536-.258.07605-.385.0507-.126.12673-.236.21545-.325.09294-.097.2028-.169.3253-.22.12252-.05.24926-.076.38445-.076zm13.61651 27H.45626c-.24926 0-.45626.203-.45626.46v39.585c0 .258.20278.461.45626.461H14.6173c.2492 0 .4562-.203.4562-.461v-39.585c.0042-.253-.1985-.46-.452-.46zm46.1414-27.003h14.161c.2535 0 .4563.211.4563.461v66.588c0 .258-.207.461-.4563.461h-14.161c-.2535 0-.4563-.203-.4563-.461v-66.588c0-.258.207-.461.4563-.461zm129.2741 0h-14.161c-.249 0-.456.203-.456.461v66.588c0 .258.202.461.456.461h14.161c.249 0 .456-.203.456-.461v-66.588c0-.25-.203-.461-.456-.461z" clip-rule="evenodd"/><defs><linearGradient id="paint0_linear" x1="236.808" x2="-34.64" y1="57.91" y2="87.989" gradientUnits="userSpaceOnUse"><stop stop-color="#00DBA6"/><stop offset="1" stop-color="#24B2FF"/></linearGradient></defs></svg>