<svg xmlns="http://www.w3.org/2000/svg" role="img" xmlns:xlink="http://www.w3.org/1999/xlink" viewBox="-7.74 19.01 415.48 206.73"><style>.st0{fill:#5c5d5f}.st1{fill:#818385}.st2{clip-path:url(#SVGID_2_)}.st3{fill:url(#path86_1_)}.st4{fill:#d92b27}.st5{clip-path:url(#SVGID_4_)}.st6{fill:url(#path126_1_)}.st7{clip-path:url(#SVGID_6_)}.st8{fill:url(#path150_1_)}.st9{clip-path:url(#SVGID_8_)}.st10{fill:url(#path174_1_)}.st11{clip-path:url(#SVGID_10_)}.st12{fill:url(#path198_1_)}</style><style>.st0{fill:#5c5d5f}.st1{fill:#818385}.st4{fill:#d92b27}</style><style>.st0{fill:#5c5d5f}.st1{fill:#818385}.st4{fill:#d92b27}</style><style>.st0{fill:#5c5d5f}.st1{fill:#818385}.st4{fill:#d92b27}</style><style>.st0{fill:#5c5d5f}.st1{fill:#818385}.st4{fill:#d92b27}</style><style>.st0{fill:#5c5d5f}.st1{fill:#818385}.st4{fill:#d92b27}</style><style>.st0{fill:#5c5d5f}.st1{fill:#818385}.st4{fill:#d92b27}</style><style>.st0{fill:#5c5d5f}.st1{fill:#818385}.st4{fill:#d92b27}</style><style>.st0{fill:#5c5d5f}.st1{fill:#818385}.st4{fill:#d92b27}</style><style>.st0{fill:#5c5d5f}.st1{fill:#818385}.st4{fill:#d92b27}</style><style>.st0{fill:#5c5d5f}.st1{fill:#818385}.st4{fill:#d92b27}</style><g id="g20" transform="translate(188.263 403.12)"><path id="path22" d="M-167.5-215.4c2.9 0 5.6-2.4 5.6-6.3s-2.6-6.2-5.6-6.2h-8.7v12.5h8.7zm-8.7 10.3v18.9H-188v-51.9h22.2c6.6 0 15.6 5.4 15.6 16.1 0 14.2-10.5 16.9-15.9 16.9h-10.1z" class="st0"/></g><g id="g24" transform="translate(230.45 383.272)"><path id="path26" d="M-174-178.7c0 1.1.2 3.3 3.5 3.3h3.7v9.4h-4.8c-9.4 0-13.6-2.4-13.6-11.6v-42.2h11.2v41.1z" class="st0"/></g><g id="g28" transform="translate(268.988 386.655)"><path id="path30" d="M-179.9-185c-.7-.2-2.2-.8-4.8-.8-3.8 0-5.4 2.5-5.4 4.6 0 1.4.8 3.5 4.6 3.5 1.7 0 4.4-1.1 5.6-2.1v-5.2zm-9.6 15.9c-6.3 0-11.6-4.1-11.6-11.3 0-8.4 7.5-12.4 13.7-12.4 3.6 0 6.1.5 7.5 1.1v-1.5c0-2.6-2-4.7-7.4-4.7-2.9 0-6.1.8-10.7 2.3v-8.7c4.5-1.8 8.4-2.8 14.3-2.8 7.5 0 15.2 3.9 15.2 16.3v9.9c0 3.5 1.7 3.2 4.9 2v7.7c-3.5 1.9-12.3 4.6-14.8-2.2-1.7 3.3-8.3 4.3-11.1 4.3" class="st0"/></g><g id="g32" transform="translate(336.898 392.173)"><path id="path34" d="M-190.3-195.2v20h-11.8v-19.6c0-7.5-2.2-8.9-6-8.9-2 0-4.9 1.4-5.7 1.9v26.6h-11.3v-36.5h10.5l.8 3.1c3.3-2.4 6.3-4 9.8-4 5.1 0 13.7 2.4 13.7 17.4" class="st0"/></g><g id="g36" transform="translate(373.566 394.22)"><path id="path38" d="M-195.9-199c0-2.7-1.1-6.9-6-6.9-4.8 0-6 4.7-6 6.9h12zm-23.6 3.3c0-12.1 8.4-18.9 17.6-18.9 11.1 0 17.5 7.5 17.5 19.4l-.2 3.3h-23.1c.2 2.7 2.3 6.8 9.6 6.8 3 0 8.7-1.2 11.4-1.8v8c-4.9 1.4-9.1 2.4-14.5 2.5-10.3 0-18.3-6-18.3-19.3" class="st0"/></g><g id="g40" transform="translate(392.612 401.874)"><path id="path42" d="M-198.9-213.1v-8.3h5.4v-8.1l11.2-3.2v11.3h7.2v8.3h-7.2v15.7c0 1.3.2 3.6 3.5 3.6h3.8v9.2h-4.9c-9.5 0-13.6-2.4-13.6-11.6v-16.9h-5.4z" class="st0"/></g><g id="g44" transform="translate(430.171 379.18)"><path id="path46" d="M-204.6-171.2c2.9 1.2 8.8 4 15.7 4 7.2 0 12.2-2 12.6-8.6.2-6-7.7-7.8-17.9-11.2-6-2-8.9-5.4-10.2-8.3-.8-1.7-1.1-3.4-1.1-5.3.3-8.8 6.7-14.3 19.9-14.3 4.7 0 11.3 1.9 13.5 2.9v6c-5-1.8-8.5-2.9-13.6-2.9-9.2 0-12.9 4-13.1 8.8 0 .9.2 1.8.7 2.6.8 1.4 2.4 3.2 6 4.3l3 1.1c11.5 3.6 20 6.8 19.4 17-1 10.9-8.6 13.9-19.2 13.9-6.3 0-11.8-2.1-15.7-3.5v-6.5z" class="st1"/></g><g id="g48" transform="translate(479.923 389.948)"><path id="path50" d="M-212.3-191.1c0-12.4 9-19.2 17.8-19.2 5.1 0 9.2.8 11 1.3v5c-2-.6-7-1.2-9.6-1.2-9.2 0-12.4 6.9-12.4 14.1 0 7.2 3.2 13.9 12.4 13.9 2.6 0 7.6-.6 9.6-1.2v5c-1.8.5-5.9 1.3-11 1.3-8.7 0-17.8-6.7-17.8-19.1v.1z" class="st1"/></g><g id="g52" transform="translate(549.613 388.525)"><path id="path54" d="M-223-188.4c-2-.3-4.4-.6-6.6-.6-6.7 0-10.8 2.1-10.8 7 0 3.5 2.3 6.6 7.5 6.6 3.1 0 8.5-2.3 9.9-4v-9zm6.5 10c0 4 5 2 5.8 1.4v4.7c-1 .5-3.2 1.5-5.6 1.5-1.3 0-4.9-.1-6.1-4.3-1.4 1.6-6.7 4.3-11.4 4.3-9.6 0-13-5-13-11.6 0-7.7 7.5-11.3 14.9-11.3 2.9 0 6.4.5 8.8.8v-1.7c0-6-3.5-9.2-8.6-9.2-6 0-11 2.6-12.4 3.2v-5c1.4-.4 6.1-3.2 13.6-3.2 7.2 0 13.9 3.6 13.9 15.7v14.7z" class="st1"/></g><g id="g56" transform="translate(579.695 381.137)"><path id="path58" d="M-227.6-174.8c0 3.1.2 5.7 7.5 5.7h.9v5.2h-2.3c-8.7 0-12.6-2.2-12.6-10.5v-43.3h6.4v42.9z" class="st1"/></g><g id="g60" transform="translate(628.47 392.797)"><path id="path62" d="M-235.1-196.3c0-6.9-4.9-11.7-10.9-11.7s-10.9 4.8-10.9 11.7h21.8zm-28.2 1.9c0-12.1 8.3-18.8 17.4-18.8 10.9 0 17.2 7.3 17.2 19.4l-.1 2h-28c0 7.5 6.6 11.7 12.7 11.7 4 0 10.7-1.5 12.7-2.1v5c-1.8.5-7.1 2.1-13.8 2.2-10.2 0-18.1-5.9-18.1-19.4" class="st1"/></g><defs><path id="SVGID_1_" d="M157.4 51.8h85.1V101h-85.1z"/></defs><clipPath id="SVGID_2_"><use overflow="visible" xlink:href="#SVGID_1_"/></clipPath><g id="g66" clip-path="url(#SVGID_2_)"><g id="g72"><g id="g74"><linearGradient id="path86_1_" x1="-1.311" x2="-.676" y1="247.069" y2="247.069" gradientTransform="matrix(134.0825 0 0 -134.0825 333.21 33203.96)" gradientUnits="userSpaceOnUse"><stop offset="0" stop-color="#f15a2d"/><stop offset=".225" stop-color="#f15a2d"/><stop offset=".855" stop-color="#d92b27"/><stop offset="1" stop-color="#d92b27"/></linearGradient><path id="path86" fill="url(#path86_1_)" d="M157.4 100.9h85.1V51.8h-85.1v49.1z"/></g></g></g><g id="g96" transform="translate(458.18 590.906)"><path id="path98" d="M-208.9-562.1c-.5 3.2-7.7 8.9-19.3 15.7l-5.7-3.3-6.4-3.7c3.3-1.2 6.5-2.2 9.6-3.2 8.3-2.6 15.8-4.5 21.8-5.5" class="st4"/></g><g id="g100" transform="translate(341.82 478.482)"><path id="path102" d="M-191.1-354.5c.5-3.2 7.7-8.9 19.3-15.7l5.7 3.3 6.4 3.7c-3.3 1.2-6.5 2.2-9.6 3.2-8.3 2.6-15.8 4.4-21.8 5.5" class="st4"/></g><defs><path id="SVGID_3_" d="M198.6 92c-.2.1-1.6.7-1.8.7-1.9.8-3.3 1.2-5.1 2.2-8.6 4.2-15.3 9.6-21.7 13.3l5.7 3.3 6.4 3.7 6.6 3.8 11.2 6.5 42.6-24.6c-.4-1-.9-1.9-1.5-2.7-1.6-2.4-4.1-6-6.8-7.5-4-2.2-9-3.3-14.5-3.3-6.5.1-13.8 1.6-21.1 4.6"/></defs><clipPath id="SVGID_4_"><use overflow="visible" xlink:href="#SVGID_3_"/></clipPath><g id="g106" clip-path="url(#SVGID_4_)"><g id="g112"><g id="g114"><linearGradient id="path126_1_" x1="6.805" x2="7.44" y1="251.42" y2="251.42" gradientTransform="matrix(0 -52.6403 -52.6403 0 13441.167 483.595)" gradientUnits="userSpaceOnUse"><stop offset="0" stop-color="#f15a2d"/><stop offset=".225" stop-color="#f15a2d"/><stop offset=".855" stop-color="#d92b27"/><stop offset="1" stop-color="#d92b27"/></linearGradient><path id="path126" fill="url(#path126_1_)" d="M198.6 92c-.2.1-1.6.7-1.8.7-1.9.8-3.3 1.2-5.1 2.2-8.6 4.2-15.3 9.6-21.7 13.3l5.7 3.3 6.4 3.7 6.6 3.8 11.2 6.5 42.6-24.6c-.4-1-.9-1.9-1.5-2.7-1.6-2.4-4.1-6-6.8-7.5-4-2.2-9-3.3-14.5-3.3-6.5.1-13.8 1.6-21.1 4.6"/></g></g></g><defs><path id="SVGID_5_" d="M199.6 79.2c-16.3 7.2-30.9 14.8-42.1 21.7-15.2 9.4-24.1 17.5-22.4 21.5 1.2 2.6 6.9 3 15.7 1.5.5-3.2 7.7-8.9 19.3-15.7 6.3-3.7 14-7.8 22.6-12 .1-.1.2-.1.3-.2 1.7-1 3.6-1.8 5.4-2.6.2-.1.3-.1.5-.2 13.4-5.5 26.9-5.5 35.6-.8 2.7 1.4 5 3.4 6.6 5.7.6.8 1.1 1.8 1.5 2.7V63.1c-12.4 3.8-27.3 9.2-43 16.1"/></defs><clipPath id="SVGID_6_"><use overflow="visible" xlink:href="#SVGID_5_"/></clipPath><g id="g130" clip-path="url(#SVGID_6_)"><g id="g136"><g id="g138"><linearGradient id="path150_1_" x1=".067" x2=".702" y1="248.199" y2="248.199" gradientTransform="scale(131.5845 -131.5845) rotate(30.548 456.76 125.964)" gradientUnits="userSpaceOnUse"><stop offset="0" stop-color="#f15a2d"/><stop offset=".225" stop-color="#f15a2d"/><stop offset=".855" stop-color="#d92b27"/><stop offset="1" stop-color="#d92b27"/></linearGradient><path id="path150" fill="url(#path150_1_)" d="M199.6 79.2c-16.3 7.2-30.9 14.8-42.1 21.7-15.2 9.4-24.1 17.5-22.4 21.5 1.2 2.6 6.9 3 15.7 1.5.5-3.2 7.7-8.9 19.3-15.7 6.3-3.7 14-7.8 22.6-12 .1-.1.2-.1.3-.2 1.7-1 3.6-1.8 5.4-2.6.2-.1.3-.1.5-.2 13.4-5.5 26.9-5.5 35.6-.8 2.7 1.4 5 3.4 6.6 5.7.6.8 1.1 1.8 1.5 2.7V63.1c-12.4 3.8-27.3 9.2-43 16.1"/></g></g></g><defs><path id="SVGID_7_" d="M157.4 51.8c.4 1 .9 1.9 1.5 2.7 1.6 2.4 4.1 6 6.8 7.5 8.7 4.8 22.3 4.3 35.7-1.3.2-.1 1.6-.7 1.8-.7 1.9-.8 3.3-1.2 5.1-2.2 8.6-4.2 15.3-9.6 21.7-13.3l-5.7-3.3-6.4-3.7-6.6-3.8-11.3-6.5-42.6 24.6z"/></defs><clipPath id="SVGID_8_"><use overflow="visible" xlink:href="#SVGID_7_"/></clipPath><g id="g154" clip-path="url(#SVGID_8_)"><g id="g160"><g id="g162"><linearGradient id="path174_1_" x1="-3.331" x2="-2.696" y1="239.249" y2="239.249" gradientTransform="matrix(0 57.5055 57.5055 0 -13564.493 218.65)" gradientUnits="userSpaceOnUse"><stop offset="0" stop-color="#f15a2d"/><stop offset=".225" stop-color="#f15a2d"/><stop offset=".855" stop-color="#d92b27"/><stop offset="1" stop-color="#d92b27"/></linearGradient><path id="path174" fill="url(#path174_1_)" d="M157.4 51.8c.4 1 .9 1.9 1.5 2.7 1.6 2.4 4.1 6 6.8 7.5 8.7 4.8 22.3 4.3 35.7-1.3.2-.1 1.6-.7 1.8-.7 1.9-.8 3.3-1.2 5.1-2.2 8.6-4.2 15.3-9.6 21.7-13.3l-5.7-3.3-6.4-3.7-6.6-3.8-11.3-6.5-42.6 24.6z"/></g></g></g><defs><path id="SVGID_9_" d="M249.3 28.8c-.5 3.2-7.7 8.9-19.3 15.7-6.3 3.7-14 7.8-22.6 12-.1.1-.2.1-.3.2-1.7 1-3.6 1.8-5.4 2.6-.2.1-.3.1-.5.2-13.4 5.5-26.9 5.5-35.6.8-2.7-1.4-5-3.4-6.6-5.7-.6-.8-1.1-1.8-1.5-2.7v37.7c12.3-3.6 27.2-9.1 43-16 16.3-7.2 30.9-14.8 42.1-21.7 15.2-9.4 24.1-17.5 22.4-21.5-.7-1.6-3.2-2.4-7-2.4-2.5-.1-5.4.2-8.7.8"/></defs><clipPath id="SVGID_10_"><use overflow="visible" xlink:href="#SVGID_9_"/></clipPath><g id="g178" clip-path="url(#SVGID_10_)"><g id="g184"><g id="g186"><linearGradient id="path198_1_" x1="2.301" x2="2.936" y1="241.986" y2="241.986" gradientTransform="scale(-131.584 131.584) rotate(30.548 442.853 113.782)" gradientUnits="userSpaceOnUse"><stop offset="0" stop-color="#f15a2d"/><stop offset=".225" stop-color="#f15a2d"/><stop offset=".855" stop-color="#d92b27"/><stop offset="1" stop-color="#d92b27"/></linearGradient><path id="path198" fill="url(#path198_1_)" d="M249.3 28.8c-.5 3.2-7.7 8.9-19.3 15.7-6.3 3.7-14 7.8-22.6 12-.1.1-.2.1-.3.2-1.7 1-3.6 1.8-5.4 2.6-.2.1-.3.1-.5.2-13.4 5.5-26.9 5.5-35.6.8-2.7-1.4-5-3.4-6.6-5.7-.6-.8-1.1-1.8-1.5-2.7v37.7c12.3-3.6 27.2-9.1 43-16 16.3-7.2 30.9-14.8 42.1-21.7 15.2-9.4 24.1-17.5 22.4-21.5-.7-1.6-3.2-2.4-7-2.4-2.5-.1-5.4.2-8.7.8"/></g></g></g></svg>