<svg viewBox="-3.24 -3.24 168.48 38.48" xmlns="http://www.w3.org/2000/svg"><title>Platform.sh</title><path fill="#00aeef" d="M135.39 0h26.71v10.62h-26.71zm0 23.11h26.71v3.61h-26.71zm0-9.06h26.71v5.45h-26.71z"/><path fill="#222" d="M0 13.72h3.29v2a4.922 4.922 0 0 1 1.73-1.63 4.784 4.784 0 0 1 2.42-.63 5.09 5.09 0 0 1 3.94 1.82A7.37 7.37 0 0 1 13 20.35a7.587 7.587 0 0 1-1.63 5.19 5.09 5.09 0 0 1-4 1.85 4.505 4.505 0 0 1-2-.44 6.741 6.741 0 0 1-1.89-1.51v6.72H0V13.72zm3.49 6.44a5.127 5.127 0 0 0 .89 3.32 2.73 2.73 0 0 0 2.17 1.07 2.552 2.552 0 0 0 2-1 5.077 5.077 0 0 0 .82-3.23 4.823 4.823 0 0 0-.84-3.11 2.598 2.598 0 0 0-2.08-1 2.708 2.708 0 0 0-2.15 1 4.44 4.44 0 0 0-.81 2.95zm11.61 6.89V8.64h3.53v18.41H15.1zm9.06-9.26l-3.23-.58a5.003 5.003 0 0 1 1.86-2.86 6.8 6.8 0 0 1 3.92-.93c1.2-.066 2.4.125 3.52.56.679.29 1.25.787 1.63 1.42a7.264 7.264 0 0 1 .47 3.16v4.12c-.022.867.035 1.734.17 2.59.134.621.346 1.222.63 1.79h-3.51a13.744 13.744 0 0 1-.34-1c-.06-.21-.1-.35-.13-.42a6.372 6.372 0 0 1-1.93 1.32 5.542 5.542 0 0 1-2.2.44 4.54 4.54 0 0 1-3.25-1.12 3.707 3.707 0 0 1-1.19-2.83 3.795 3.795 0 0 1 .54-2 3.522 3.522 0 0 1 1.51-1.36 11.813 11.813 0 0 1 2.81-.82 19.128 19.128 0 0 0 3.49-.92v-.36a1.83 1.83 0 0 0-.5-1.45 2.998 2.998 0 0 0-1.9-.43 2.527 2.527 0 0 0-1.47.37 2.57 2.57 0 0 0-.9 1.31zm4.77 2.86c-.453.153-1.17.333-2.15.54a6.454 6.454 0 0 0-1.92.62 1.472 1.472 0 0 0-.69 1.24 1.73 1.73 0 0 0 .55 1.28 1.93 1.93 0 0 0 1.41.54 3.048 3.048 0 0 0 1.8-.63c.403-.285.699-.697.84-1.17a7.002 7.002 0 0 0 .16-1.72v-.7zm12.26-6.93v2.81h-2.41v5.38c-.022.634.001 1.269.07 1.9a.77.77 0 0 0 .31.45.998.998 0 0 0 .6.18 4.544 4.544 0 0 0 1.42-.34l.3 2.74a7.006 7.006 0 0 1-2.79.53 4.43 4.43 0 0 1-1.76-.38 2.525 2.525 0 0 1-1.12-.83 3.294 3.294 0 0 1-.5-1.37 17.115 17.115 0 0 1-.11-2.49v-5.77h-1.58v-2.81h1.62v-2.65l3.54-2.08v4.71l2.41.02zm1.07 0h2v-1a6.69 6.69 0 0 1 .36-2.51 2.845 2.845 0 0 1 1.31-1.36 5.047 5.047 0 0 1 2.43-.52 9.847 9.847 0 0 1 3 .45l-.48 2.46a6.962 6.962 0 0 0-1.62-.2 1.451 1.451 0 0 0-1.1.36 2.083 2.083 0 0 0-.33 1.38v.94h2.64v2.77h-2.72v10.56h-3.53V16.49h-2l.04-2.77zm8.87 6.48a7.209 7.209 0 0 1 .87-3.4 5.938 5.938 0 0 1 2.46-2.51 7.277 7.277 0 0 1 3.55-.87 6.66 6.66 0 0 1 5 2 6.791 6.791 0 0 1 1.93 5 6.87 6.87 0 0 1-2 5 6.6 6.6 0 0 1-4.92 2 7.734 7.734 0 0 1-3.5-.83 5.678 5.678 0 0 1-2.53-2.43 8.089 8.089 0 0 1-.86-3.96zm3.62.19a4.422 4.422 0 0 0 .94 3 3.08 3.08 0 0 0 4.64 0 4.483 4.483 0 0 0 .94-3.06 4.399 4.399 0 0 0-.94-3 3.08 3.08 0 0 0-4.64 0 4.418 4.418 0 0 0-.94 3.06zm15.58 6.66H66.8V13.72h3.28v1.9c.376-.688.89-1.29 1.51-1.77a2.777 2.777 0 0 1 1.53-.43c.82.007 1.622.239 2.32.67l-1.09 3.08a3.084 3.084 0 0 0-1.66-.58 2.002 2.002 0 0 0-1.26.41 2.794 2.794 0 0 0-.81 1.48 20.916 20.916 0 0 0-.29 4.47v4.1zm5.96-13.33h3.25v1.82a5.229 5.229 0 0 1 4.16-2.12 4.475 4.475 0 0 1 2.23.57 4.006 4.006 0 0 1 1.54 1.59 6.17 6.17 0 0 1 1.9-1.59 4.631 4.631 0 0 1 2.17-.53 4.841 4.841 0 0 1 2.49.6 3.658 3.658 0 0 1 1.52 1.75c.289.89.411 1.826.36 2.76v8.53h-3.53v-7.67a5.686 5.686 0 0 0-.36-2.56 1.67 1.67 0 0 0-1.51-.75c-.499.003-.984.16-1.39.45a2.517 2.517 0 0 0-.94 1.33 9.496 9.496 0 0 0-.25 2.75v6.4h-3.58v-7.3a10.115 10.115 0 0 0-.19-2.51 1.595 1.595 0 0 0-.58-.84c-.32-.2-.693-.298-1.07-.28a2.574 2.574 0 0 0-1.47.44 2.413 2.413 0 0 0-.94 1.27 9.437 9.437 0 0 0-.28 2.75v6.48h-3.53V13.72zm22.38 13.33v-3.52h3.53v3.53l-3.53-.01zm5.35-3.8l3.54-.54c.11.613.436 1.167.92 1.56a3.099 3.099 0 0 0 1.93.53 3.49 3.49 0 0 0 2.06-.5c.299-.218.471-.57.46-.94a.922.922 0 0 0-.25-.67 2.818 2.818 0 0 0-1.18-.46 18.998 18.998 0 0 1-5.41-1.72 3.44 3.44 0 0 1-1.58-3 3.7 3.7 0 0 1 1.37-2.91 6.39 6.39 0 0 1 4.25-1.18 7.406 7.406 0 0 1 4.07.89 4.559 4.559 0 0 1 1.82 2.68l-3.33.62a2.06 2.06 0 0 0-.81-1.19 3.004 3.004 0 0 0-1.7-.41 3.83 3.83 0 0 0-2 .39.83.83 0 0 0-.4.72.782.782 0 0 0 .35.64 13.23 13.23 0 0 0 3.3 1 9.818 9.818 0 0 1 3.94 1.57 3.257 3.257 0 0 1 1.11 2.63 4.002 4.002 0 0 1-1.55 3.03 6.779 6.779 0 0 1-4.53 1.32 7.445 7.445 0 0 1-4.31-1.11 5.087 5.087 0 0 1-2.07-2.95zm18.1-14.61v6.77a5.29 5.29 0 0 1 6.28-1.54 3.605 3.605 0 0 1 1.48 1.12c.331.468.562.999.68 1.56.145.876.205 1.763.18 2.65v7.82h-3.53v-7.03a10.369 10.369 0 0 0-.2-2.66 1.752 1.752 0 0 0-.71-.9 2.278 2.278 0 0 0-1.27-.33 2.927 2.927 0 0 0-1.57.43 2.47 2.47 0 0 0-1 1.29 7.685 7.685 0 0 0-.32 2.54v6.68h-3.53V8.64h3.51z"/></svg>