<?xml version="1.0" encoding="UTF-8" standalone="yes"?>
<svg version="1.1" id="Layer_1" xmlns="http://www.w3.org/2000/svg" xmlns:xlink="http://www.w3.org/1999/xlink" x="0px" y="0px" viewBox="6 8 427 132" style="enable-background:new 0 0 440.5 148.4;" xml:space="preserve">
  <style type="text/css">
	.st0{fill:#4A8FE1;}
	.st1{fill:#FEFEFE;}
	.st2{fill:#716F73;}
	.st3{fill:#4D8951;}
	.st4{fill:#A6D3EA;}
	.st5{fill:#3A3868;}
	.st6{fill:#717073;}
	.st7{fill:#1B995A;}
	.st8{fill:#717B83;}
	.st9{fill:#2BA3A4;}
	.st10{fill:#717074;}
	.st11{fill:#717173;}
	.st12{fill:#707B83;}
	.st13{fill:#67A3D1;}
	.st14{fill:#2B5B68;}
	.st15{fill:#B9DCF3;}
	.st16{fill:#2A4B38;}
	.st17{fill:#83939F;}
	.st18{fill:#9DCCE8;}
	.st19{fill:#85939C;}
	.st20{fill:#82929C;}
	.st21{fill:#40A6D5;}
	.st22{fill:#2B4B39;}
	.st23{fill:#28493A;}
	.st24{fill:#2EA3A7;}
	.st25{fill:#F8FCFC;}
	.st26{fill:#568F52;}
	.st27{fill:#94C453;}
	.st28{fill:#206289;}
	.st29{fill:#F1FBFD;}
	.st30{fill:#F6FDFE;}
	.st31{fill:#F8FCFB;}
	.st32{fill:#FAFDFB;}
	.st33{fill:#F4FCFD;}
	.st34{fill:#65AC62;}
	.st35{fill:#F8FAF3;}
	.st36{fill:#5EAD5A;}
	.st37{fill:#F6FCFA;}
	.st38{fill:#85C5B8;}
	.st39{fill:#3CA0D5;}
	.st40{fill:#727A80;}
	.st41{fill:#F6FCFD;}
	.st42{fill:#FEFEFA;}
	.st43{fill:#459ED2;}
	.st44{fill:#5DAE5B;}
	.st45{fill:#5E7F47;}
	.st46{fill:#FCFCFC;}
	.st47{fill:#C1DBED;}
	.st48{fill:#FBFDF8;}
	.st49{fill:#EBF5F7;}
	.st50{fill:#294949;}
	.st51{fill:#8FC8E5;}
	.st52{fill:#F7FCFC;}
	.st53{fill:#FCFEFA;}
	.st54{fill:#4E8A56;}
	.st55{fill:#64BDE8;}
	.st56{fill:#FEFDFA;}
	.st57{fill:#FBFDFC;}
	.st58{fill:#449DD5;}
	.st59{fill:#F6FBF7;}
	.st60{fill:#279A5B;}
	.st61{fill:#30493D;}
	.st62{fill:#F5FBF9;}
	.st63{fill:#35583B;}
	.st64{fill:#323C62;}
	.st65{fill:#F8FBF9;}
	.st66{fill:#E7EFF2;}
	.st67{fill:#8DC1B6;}
	.st68{fill:#FAFCFA;}
	.st69{fill:#F1FBF9;}
	.st70{fill:#F7FEFE;}
	.st71{fill:#FDFEFA;}
	.st72{fill:#31A1A1;}
	.st73{fill:#F9FEFD;}
	.st74{fill:#FAFAFC;}
	.st75{fill:#FDFCF8;}
	.st76{fill:#2D5C60;}
	.st77{fill:#FDFCF9;}
	.st78{fill:#F9FDFB;}
	.st79{fill:#FBFBFB;}
	.st80{fill:#518B58;}
	.st81{fill:#5A82AF;}
	.st82{fill:#FDFEF8;}
	.st83{fill:#244C40;}
	.st84{fill:#266495;}
	.st85{fill:#42A0D3;}
	.st86{fill:#5B80A9;}
	.st87{fill:#2E5B63;}
	.st88{fill:#FDFBF9;}
	.st89{fill:#F8FDFB;}
	.st90{fill:#FDFDF7;}
	.st91{fill:#F3F9FB;}
	.st92{fill:#309F96;}
	.st93{fill:#93C367;}
	.st94{fill:#3B3C68;}
	.st95{fill:#E0F1F9;}
	.st96{fill:#E4F6F9;}
	.st97{fill:#FEFEF9;}
	.st98{fill:#224C38;}
	.st99{fill:#498AB2;}
	.st100{fill:#FDFDF9;}
	.st101{fill:#F9FEFE;}
	.st102{fill:#F6FCF2;}
	.st103{fill:#FEFCF9;}
	.st104{fill:#EEFCFE;}
	.st105{fill:#FDFDF8;}
	.st106{fill:#FBFDFA;}
	.st107{fill:#275962;}
	.st108{fill:#FDFEF9;}
	.st109{fill:#F2F8F2;}
	.st110{fill:#F8FBFB;}
	.st111{fill:#8A8A8A;}
	.st112{fill:#F7FEFD;}
	.st113{fill:#EFF8FB;}
	.st114{fill:#FAFCFB;}
	.st115{fill:#E5F3F8;}
	.st116{fill:#ECF7FA;}
	.st117{fill:#FDFDF6;}
	.st118{fill:#F5FDFD;}
	.st119{fill:#7799BF;}
	.st120{fill:#5C8055;}
	.st121{fill:#6EAECC;}
	.st122{fill:#FEFEF7;}
	.st123{fill:#3282B5;}
	.st124{fill:#F3FCF5;}
	.st125{fill:#F4FAFB;}
	.st126{fill:#FEF8FA;}
	.st127{fill:#F5FCF9;}
	.st128{fill:#3C9392;}
	.st129{fill:#EBF6F6;}
	.st130{fill:#98BFD6;}
	.st131{fill:#FEFDF7;}
	.st132{fill:#658796;}
	.st133{fill:#EEF7F6;}
	.st134{fill:#FAFBF5;}
	.st135{fill:#F8FCF9;}
	.st136{fill:#FDFDF4;}
	.st137{fill:#FDFBF8;}
	.st138{fill:#FDFDF5;}
	.st139{fill:#EFF9FD;}
	.st140{fill:#FDFEF6;}
	.st141{fill:#37586D;}
	.st142{fill:#FDFEF5;}
	.st143{fill:#FDFBF6;}
	.st144{fill:#324A49;}
	.st145{fill:#F8F8F9;}
	.st146{fill:#CDF5CD;}
	.st147{fill:#FEFDF3;}
	.st148{fill:#ECFBFE;}
	.st149{fill:#858585;}
	.st150{fill:#C5C5C5;}
	.st151{fill:#6C6C6C;}
	.st152{fill:#498B4F;}
	.st153{fill:#478A4D;}
	.st154{fill:#4A884D;}
	.st155{fill:#429169;}
	.st156{fill:#3CA29D;}
	.st157{fill:#518654;}
	.st158{fill:#51855F;}
	.st159{fill:#289FA0;}
	.st160{fill:#448E49;}
	.st161{fill:#458B55;}
	.st162{fill:#568356;}
	.st163{fill:#89C9ED;}
	.st164{fill:#246081;}
	.st165{fill:#206186;}
	.st166{fill:#8EC8E9;}
	.st167{fill:#2B5D7D;}
	.st168{fill:#215F80;}
	.st169{fill:#A0D4EF;}
	.st170{fill:#A4D3F2;}
	.st171{fill:#245E84;}
	.st172{fill:#69BADA;}
	.st173{fill:#9AC9D1;}
	.st174{fill:#9AC7DD;}
	.st175{fill:#3B396C;}
	.st176{fill:#3A376D;}
	.st177{fill:#3D366C;}
	.st178{fill:#6A9BC9;}
	.st179{fill:#57B156;}
	.st180{fill:#2A9762;}
	.st181{fill:#139C59;}
	.st182{fill:#169A5E;}
	.st183{fill:#139C5D;}
	.st184{fill:#129652;}
	.st185{fill:#61839B;}
	.st186{fill:#637F92;}
	.st187{fill:#289193;}
	.st188{fill:#288F8D;}
	.st189{fill:#34A3A8;}
	.st190{fill:#23A7A5;}
	.st191{fill:#36A2A8;}
	.st192{fill:#32A1A0;}
	.st193{fill:#23A7A2;}
	.st194{fill:#249A96;}
	.st195{fill:#FCFCFD;}
	.st196{fill:#FDFDFD;}
	.st197{fill:#6B7B8C;}
	.st198{fill:#4C84B0;}
	.st199{fill:#4F81BA;}
	.st200{fill:#5280B6;}
	.st201{fill:#6CA1CE;}
	.st202{fill:#6CA0CF;}
	.st203{fill:#7AA4CC;}
	.st204{fill:#71A3D5;}
	.st205{fill:#6AA3C9;}
	.st206{fill:#6EA5D6;}
	.st207{fill:#6C97B9;}
	.st208{fill:#4F6684;}
	.st209{fill:#2D5D62;}
	.st210{fill:#275C5E;}
	.st211{fill:#2B5859;}
	.st212{fill:#285C5E;}
	.st213{fill:#9FCCE5;}
	.st214{fill:#BCDBEF;}
	.st215{fill:#B5DDF9;}
	.st216{fill:#234D37;}
	.st217{fill:#2E483A;}
	.st218{fill:#8294A2;}
	.st219{fill:#256286;}
	.st220{fill:#8095A3;}
	.st221{fill:#3FA6DA;}
	.st222{fill:#62BEEC;}
	.st223{fill:#40A7D6;}
	.st224{fill:#43A3DF;}
	.st225{fill:#274C3B;}
	.st226{fill:#4C9FC8;}
	.st227{fill:#234D32;}
	.st228{fill:#2C473D;}
	.st229{fill:#27572D;}
	.st230{fill:#2D473F;}
	.st231{fill:#22A69E;}
	.st232{fill:#22A1A1;}
	.st233{fill:#378E8D;}
	.st234{fill:#268C8A;}
	.st235{fill:#40817E;}
	.st236{fill:#528E4D;}
	.st237{fill:#94C15C;}
	.st238{fill:#518D4F;}
	.st239{fill:#4B954A;}
	.st240{fill:#95C350;}
	.st241{fill:#93C451;}
	.st242{fill:#90C147;}
	.st243{fill:#90B254;}
	.st244{fill:#1A6292;}
	.st245{fill:#2F82B5;}
	.st246{fill:#3FA7DA;}
	.st247{fill:#43A5D7;}
	.st248{fill:#51ADD8;}
	.st249{fill:#57B0E2;}
	.st250{fill:#4C95B8;}
	.st251{fill:#7BC2EB;}
	.st252{fill:#7BC2E8;}
	.st253{fill:#439DCE;}
	.st254{fill:#1A66A0;}
	.st255{fill:#429FD0;}
	.st256{fill:#22669E;}
	.st257{fill:#42A1D2;}
	.st258{fill:#42A6D7;}
	.st259{fill:#4EA6CD;}
	.st260{fill:#90B15F;}
	.st261{fill:#5EAF59;}
	.st262{fill:#1568A3;}
	.st263{fill:#44A4D8;}
	.st264{fill:#2D5F86;}
	.st265{fill:#82C6B7;}
	.st266{fill:#93C6B3;}
	.st267{fill:#81C7BD;}
	.st268{fill:#8CC3BB;}
	.st269{fill:#3EA0D1;}
	.st270{fill:#429ED2;}
	.st271{fill:#449DD7;}
	.st272{fill:#3AA1DA;}
	.st273{fill:#3D9FD7;}
	.st274{fill:#439DD3;}
	.st275{fill:#69A46E;}
	.st276{fill:#74B273;}
	.st277{fill:#58AB52;}
	.st278{fill:#325946;}
	.st279{fill:#214A49;}
	.st280{fill:#244B3F;}
	.st281{fill:#3181B4;}
	.st282{fill:#1DA3A4;}
	.st283{fill:#346E9F;}
	.st284{fill:#869197;}
	.st285{fill:#53B0EA;}
	.st286{fill:#5181C0;}
	.st287{fill:#1767A6;}
	.st288{fill:#3F9FD5;}
	.st289{fill:#399291;}
	.st290{fill:#27A2A7;}
	.st291{fill:#81969C;}
	.st292{fill:#46A4D7;}
	.st293{fill:#C7DCB8;}
	.st294{fill:#B5B5B5;}
	.st295{fill:#4F9A83;}
	.st296{fill:#63BDE8;}
	.st297{fill:#95C3E7;}
	.st298{fill:#1D618B;}
	.st299{fill:#1D6286;}
	.st300{fill:#3181B5;}
	.st301{fill:#249190;}
	.st302{fill:#2C9096;}
	.st303{fill:#23918E;}
	.st304{fill:#2E939A;}
	.st305{fill:#469DD6;}
	.st306{fill:#40A0D2;}
	.st307{fill:#4B82C0;}
	.st308{fill:#809398;}
	.st309{fill:#69BCE2;}
	.st310{fill:#5BBFEB;}
	.st311{fill:#5DBEF5;}
	.st312{fill:#42A6D8;}
	.st313{fill:#39A4DC;}
	.st314{fill:#94C356;}
	.st315{fill:#95C446;}
	.st316{fill:#2B83B5;}
	.st317{fill:#2A83B8;}
	.st318{fill:#3EA7DE;}
	.st319{fill:#37A8DF;}
	.st320{fill:#7CC9F7;}
	.st321{fill:#1568A7;}
	.st322{fill:#3EA7DD;}
	.st323{fill:#3AA9DA;}
	.st324{fill:#55B0E2;}
	.st325{fill:#5FAF60;}
	.st326{fill:#16639A;}
	.st327{fill:#16689E;}
	.st328{fill:#419FCE;}
	.st329{fill:#216186;}
	.st330{fill:#21607D;}
	.st331{fill:#3BA7DD;}
	.st332{fill:#6E408A;}
	.st333{fill:#3A3A3C;}
</style>
  <g>
    <path class="st332" d="M75.1,139.9c-2.8-2.9-5.6-5.8-8.4-8.6c-1.9-1.9-3.8-3.8-5.5-5.8c-2.2-2.4-3.3-5.3-3.6-8.6&#xA;&#x9;&#x9;c-0.3-4.6,1.2-8.6,4.4-11.9c3.7-3.7,7.4-7.3,11.1-10.9c4.7-4.6,9.4-9.3,14.1-13.9c2.8-2.8,5.6-5.6,8.5-8.4&#xA;&#x9;&#x9;c3.5-3.5,7.1-6.9,10.6-10.4c2.3-2.2,2.3-5.4,0.1-7.6c-3.7-3.7-7.3-7.4-11-11.2c-2.5-2.5-5-5.1-7.5-7.6c-3.7-3.8-7.5-7.6-11.2-11.5&#xA;&#x9;&#x9;c-0.4-0.4-0.6-0.4-1,0c-1.4,1.4-2.9,2.8-4.3,4.3c-0.3,0.3-0.5,0.5-0.6-0.1c-0.7-3-2.3-5.4-4.5-7.5c-0.6-0.6-0.6-0.6,0-1.2&#xA;&#x9;&#x9;c3.2-3.1,6.4-6.3,9.5-9.4c0.4-0.3,0.6-0.3,0.9,0c4.4,4.5,8.8,8.9,13.2,13.4c2.3,2.3,4.6,4.6,6.8,7c2.9,3,5.8,5.9,8.7,8.9&#xA;&#x9;&#x9;c2.6,2.6,5.1,5.2,7.7,7.8c2.4,2.4,4,5.2,4.5,8.6c0.7,4.5-0.4,8.6-3.4,12.1c-1.8,2.2-4,4-6.1,6c-3.1,3.1-6.3,6.2-9.4,9.3&#xA;&#x9;&#x9;c-5,4.9-10,9.9-15,14.8c-2,1.9-4,3.9-5.9,5.8c-3,2.9-5.9,5.8-8.9,8.7c-2,2-2.1,5.2-0.1,7.3c2,2.1,4.1,4.2,6.1,6.3&#xA;&#x9;&#x9;c0.3,0.3,0.5,0.3,0.9,0c2.9-2.9,5.9-5.8,8.8-8.7c5-4.9,10-9.8,14.9-14.7c2.2-2.1,4.3-4.2,6.5-6.4c2.3-2.2,2.3-5.3,0.1-7.6&#xA;&#x9;&#x9;c-1-1-2-2-3-3c-0.4-0.4-0.4-0.6,0-1c2-1.9,4-3.9,6-5.9c0.4-0.4,0.7-0.5,1.1,0c1.6,1.9,3.7,3.5,5.1,5.7c3.5,5.4,3,12.8-1.2,17.6&#xA;&#x9;&#x9;c-2.2,2.5-4.7,4.7-7.1,7.1c-3.2,3.3-6.5,6.5-9.8,9.7c-5.1,5-10.1,10-15.2,15c-2,2-4,4-6.1,5.9c-0.2,0.2-0.4,0.4-0.6,0.7&#xA;&#x9;&#x9;C75.3,139.9,75.2,139.9,75.1,139.9z"/>
    <path class="st332" d="M50.7,8.7c1.8,1.9,3.6,3.7,5.4,5.6c2.7,2.8,5.5,5.6,8.2,8.4c3.9,4.1,5,10.6,2.8,15.9c-1.1,2.6-3,4.6-5,6.5&#xA;&#x9;&#x9;c-3.1,3-6.2,6.1-9.2,9.1c-5,5-10.1,9.9-15.1,14.9c-0.5,0.5-1,1-1.5,1.5c-0.3,0.3-0.5,0.3-0.8,0c-2-2.1-4.1-4.2-6.2-6.3&#xA;&#x9;&#x9;c-0.3-0.3-0.3-0.4,0-0.7c4.1-4,8.2-8.1,12.4-12.1c1.7-1.7,3.4-3.3,5.1-5c3.3-3.3,6.7-6.5,10-9.8c2.2-2.2,2.2-5.3,0.1-7.6&#xA;&#x9;&#x9;c-2-2-3.9-4-5.9-6c-0.3-0.4-0.5-0.3-0.9,0c-3.4,3.4-6.8,6.7-10.2,10c-5,4.9-10,9.9-15,14.8c-1.7,1.7-3.5,3.4-5.2,5.1&#xA;&#x9;&#x9;c-2.1,2-2.1,5.2,0,7.3c1.5,1.6,3.1,3.1,4.6,4.7c3.5,3.6,7.1,7.2,10.6,10.7c5,5,9.9,10.1,14.9,15.2c3.6,3.6,7.1,7.3,10.7,10.9&#xA;&#x9;&#x9;c0.3,0.3,0.4,0.5,0,0.9c-2.3,2.1-4,4.7-4.7,7.8c-0.1,0.4-0.3,0.4-0.5,0.1c-2.8-2.8-5.5-5.7-8.3-8.5c-2.1-2.1-4.1-4.2-6.2-6.3&#xA;&#x9;&#x9;c-3-3-6-6-9-9.1c-3.1-3.2-6.2-6.3-9.3-9.4c-3.4-3.5-6.8-6.9-10.2-10.4C7,61.4,6.7,52.6,11.7,46.9c1.9-2.2,4.2-4.1,6.2-6.2&#xA;&#x9;&#x9;c3.2-3.2,6.4-6.3,9.6-9.5c5.1-5,10.3-10.1,15.4-15.1c2.3-2.2,4.6-4.5,6.9-6.7c0.2-0.2,0.4-0.4,0.5-0.6C50.4,8.7,50.6,8.7,50.7,8.7z&#xA;&#x9;&#x9;"/>
    <path class="st333" d="M7.9,88.9c0.3-1.6,0.7-3.1,1.4-4.6c1-2.2,2.7-3.8,4.4-5.5c0.6-0.6,1.3-1.2,1.9-1.9c0.3-0.3,0.5-0.3,0.8,0&#xA;&#x9;&#x9;c2,2.1,4.1,4.2,6.1,6.2c0.3,0.3,0.3,0.5,0,0.8c-1.1,1.1-2.2,2.2-3.3,3.3c-2,2-2,5.2-0.1,7.2c2.6,2.6,5.2,5.3,7.8,7.9&#xA;&#x9;&#x9;c5.4,5.5,10.9,11,16.3,16.5c1.9,2,3.9,3.9,5.8,5.9c0.4,0.5,0.7,0.4,1.1,0c1.3-1.3,2.6-2.6,3.9-3.9c0.1-0.1,0.3-0.2,0.4-0.4&#xA;&#x9;&#x9;c0.4-0.4,0.6-0.3,0.7,0.2c0.4,1.8,1.2,3.4,2.3,4.9c0.7,0.9,1.5,1.8,2.3,2.6c0.3,0.3,0.4,0.5,0,0.9c-3.3,3.3-6.6,6.5-9.9,9.8&#xA;&#x9;&#x9;c-0.3,0.3-0.5,0.3-0.8,0c-3.1-3.2-6.2-6.3-9.3-9.5c-2.1-2.1-4.1-4.2-6.2-6.3c-5.6-5.7-11.3-11.4-16.9-17.2&#xA;&#x9;&#x9;c-1.8-1.8-3.6-3.6-5.3-5.5c-1.9-2.1-2.9-4.6-3.4-7.4c0-0.1-0.1-0.2-0.1-0.3C7.9,91.5,7.9,90.2,7.9,88.9z"/>
    <path class="st333" d="M433.5,95.4c-1.3,0-2.6,0-3.9,0c-0.4,0-0.6-0.2-0.5-0.6c0-1.1,0-2.2,0-3.3c-0.1,0-0.1,0-0.2,0&#xA;&#x9;&#x9;c-1.3,2.4-3.5,3.5-6.1,3.9c-2.8,0.5-5.6,0.5-8.4-0.2c-3-0.7-5-2.6-5.9-5.6c-0.5-1.8-0.8-3.6-0.9-5.4c-0.2-2.3-0.1-4.7-0.1-7&#xA;&#x9;&#x9;c0.1-2.2,0.3-4.5,0.9-6.6c0.9-3.3,3.1-5.3,6.4-5.9c3-0.6,6-0.6,9,0.1c1.7,0.4,3.2,1.2,4.3,2.6c0.1,0.1,0.1,0.2,0.3,0.2&#xA;&#x9;&#x9;c0.1-0.2,0.1-0.5,0.1-0.7c0-4.7,0-9.4,0-14.1c0-0.9,0-0.9,0.9-0.9c1.3,0,2.7,0,4,0C433.5,66.6,433.5,81,433.5,95.4z M412.7,80.1&#xA;&#x9;&#x9;c0,0.9,0,1.8,0,2.7c0,1.6,0.2,3.1,0.5,4.6c0.5,2.1,1.8,3.4,3.9,3.8c2.2,0.5,4.4,0.4,6.6,0c2.3-0.5,3.7-1.8,4.3-4.1&#xA;&#x9;&#x9;c0.3-1.3,0.5-2.6,0.5-4c0.1-3.1,0.2-6.1-0.3-9.2c-0.6-3.2-2.1-4.7-5.3-5.2c-1.4-0.2-2.8-0.2-4.1-0.1c-3.6,0.2-5.3,1.9-5.8,5.5&#xA;&#x9;&#x9;C412.6,76.3,412.7,78.2,412.7,80.1z"/>
    <path class="st332" d="M321.8,63.5c-0.5,1.4-0.9,2.9-1.4,4.3c-1.9,5.9-3.8,11.8-5.7,17.7c-1,3.1-2,6.2-3,9.3&#xA;&#x9;&#x9;c-0.2,0.5-0.4,0.7-1,0.7c-2.5,0-5,0-7.5,0c-1,0-1,0-1.3-1c-2.9-9.1-5.9-18.2-8.8-27.4c-0.4-1.1-0.7-2.3-1.2-3.4c0,0.2,0,0.5,0,0.7&#xA;&#x9;&#x9;c0,10,0,20,0,30c0,1,0,1-1,1c-3.4,0-6.7,0-10.1,0c-0.9,0-0.9,0-0.9-0.9c0-13.9,0-27.8,0-41.7c0-0.6,0.2-0.8,0.8-0.8&#xA;&#x9;&#x9;c5.7,0,11.5,0,17.2,0c0.6,0,0.8,0.2,1,0.7c2.5,7.9,5.1,15.8,7.6,23.7c0.1,0.2,0.1,0.5,0.4,0.8c0.2-0.7,0.4-1.3,0.6-1.9&#xA;&#x9;&#x9;c2.3-7.2,4.6-14.4,7-21.7c0.6-1.9,0.2-1.6,2.2-1.6c5.4,0,10.8,0,16.2,0c0.9,0,1,0,1,1c0,13.8,0,27.6,0,41.5c0,0.9,0,0.9-0.9,0.9&#xA;&#x9;&#x9;c-3.4,0-6.8,0-10.2,0c-0.9,0-0.9,0-0.9-0.9c0-10.1,0-20.3,0-30.4C321.9,63.9,321.9,63.7,321.8,63.5&#xA;&#x9;&#x9;C321.8,63.5,321.8,63.5,321.8,63.5z"/>
    <path class="st332" d="M157.4,73.8c0-6.9,0-13.8,0-20.6c0-1,0-1,1-1c6.8,0,13.6,0,20.4,0c2.5,0,4.9,0.3,7.4,0.8&#xA;&#x9;&#x9;c4.4,0.9,6.8,3.6,7.5,8c0.3,1.8,0.5,3.6,0.5,5.4c0,2.7,0.1,5.4-0.2,8.1c-0.3,2.1-0.8,4.2-2,6c-1,1.6-2.6,2.5-4.4,3.1&#xA;&#x9;&#x9;c-2.3,0.8-4.7,1.1-7.2,1.3c-3.4,0.2-6.8,0.1-10.3,0.1c-0.6,0-0.8,0.2-0.8,0.8c0,3,0,6,0,8.9c0,0.8,0,0.8-0.8,0.8&#xA;&#x9;&#x9;c-3.4,0-6.8,0-10.3,0c-0.9,0-0.9,0-0.9-0.9C157.4,87.7,157.4,80.7,157.4,73.8z M174.5,62.4c-1.7,0-3.1,0-4.5,0&#xA;&#x9;&#x9;c-0.4,0-0.6,0.1-0.6,0.6c0,3.7,0,7.5,0,11.2c0,0.4,0.1,0.6,0.5,0.5c3-0.1,6,0.2,9-0.2c2.2-0.2,2.9-0.9,3.1-3.1c0.2-2,0.2-4.1,0-6.1&#xA;&#x9;&#x9;c-0.2-1.8-0.9-2.6-2.8-2.8C177.6,62.2,175.9,62.4,174.5,62.4z"/>
    <path class="st332" d="M272.5,67.2c0,4.6,0,9.1,0,13.7c0,2.4-0.3,4.7-1.1,6.9c-1,3.3-3.2,5.5-6.5,6.6c-2,0.7-4.1,1-6.2,1.2&#xA;&#x9;&#x9;c-1.9,0.2-3.8,0.3-5.8,0.2c-3-0.1-6.1-0.3-9-1c-4.9-1.1-7.7-4.2-8.6-9.1c-0.4-2-0.6-4-0.6-6.1c0-8.9,0-17.7,0-26.6&#xA;&#x9;&#x9;c0-1.1,0-1.1,1.1-1.1c3.3,0,6.5,0,9.8,0c1.1,0,1.1,0,1.1,1.1c0,8.9,0,17.7,0,26.6c0,1,0.1,2,0.3,3c0.3,1.4,1.2,2.2,2.6,2.6&#xA;&#x9;&#x9;c2.1,0.5,4.2,0.4,6.4,0.3c0.8,0,1.5-0.2,2.3-0.4c1-0.3,1.7-1,2.1-2c0.3-1,0.4-2,0.4-3c0-8.9,0-17.7,0-26.6c0-1.5-0.2-1.4,1.4-1.4&#xA;&#x9;&#x9;c3.1,0,6.3,0,9.4,0c1,0,1,0,1,1C272.5,57.8,272.5,62.5,272.5,67.2C272.5,67.2,272.5,67.2,272.5,67.2z"/>
    <path class="st332" d="M200.2,73.8c0-6.9,0-13.7,0-20.6c0-1.1,0-1.1,1.1-1.1c3.4,0,6.7,0,10.1,0c0.8,0,0.8,0,0.8,0.9&#xA;&#x9;&#x9;c0,10.6,0,21.2,0,31.8c0,1,0,1,1,1c5.3,0,10.7,0,16,0c1,0,1,0,1,1c0,2.6,0,5.3,0,7.9c0,0.6-0.2,0.8-0.8,0.8c-9.4,0-18.9,0-28.3,0&#xA;&#x9;&#x9;c-0.8,0-0.8,0-0.8-0.9C200.2,87.7,200.2,80.7,200.2,73.8z"/>
    <path class="st333" d="M361.4,68.5c0-1,0-2,0-2.9c0-0.5,0.2-0.8,0.7-0.7c1,0,2.1,0,3.1,0c0.4,0,0.6,0.2,0.6,0.6c0,0.2,0,0.3,0,0.5&#xA;&#x9;&#x9;c0,10.4,0,20.8,0,31.3c0,1.9-0.2,3.8-0.8,5.7c-0.7,2-2,3.4-4,4.1c-1.5,0.5-3.1,0.8-4.7,0.9c-3,0.2-5.9,0.2-8.8-0.3&#xA;&#x9;&#x9;c-0.8-0.2-1.6-0.4-2.3-0.7c-2.4-1-3.5-3-4-5.4c-0.1-0.3,0.1-0.5,0.4-0.5c1.4,0,2.8,0,4.2,0c0.2,0,0.4,0.1,0.5,0.3&#xA;&#x9;&#x9;c0.7,1.6,2.1,2.1,3.6,2.3c2.4,0.3,4.9,0.3,7.3-0.2c2.2-0.4,3.4-1.7,3.8-3.9c0.4-2.5,0.1-5,0.2-7.6c-2.3,2.9-5.5,3.5-8.8,3.6&#xA;&#x9;&#x9;c-1.8,0.1-3.6,0-5.4-0.5c-3.3-0.8-5.4-2.8-6.3-6.1c-0.5-1.8-0.7-3.6-0.8-5.4c-0.1-2.5-0.1-4.9,0-7.4c0.1-2.1,0.4-4.3,1.2-6.3&#xA;&#x9;&#x9;c0.8-2.2,2.3-3.8,4.6-4.5c3.9-1.3,7.9-1.3,11.8,0C359,65.9,360.4,67,361.4,68.5z M344.7,79.9c0,2.3,0,4.6,0.5,6.9&#xA;&#x9;&#x9;c0.5,2.3,1.9,3.6,4.2,4c2.1,0.4,4.2,0.4,6.3,0c2.7-0.4,4.3-1.9,4.8-4.6c0.2-1.2,0.4-2.4,0.4-3.6c0.1-2.9,0.2-5.7-0.3-8.6&#xA;&#x9;&#x9;c-0.4-2.2-1.3-4-3.6-4.7c-2.7-0.8-5.4-0.9-8.1-0.3c-1.8,0.4-3,1.5-3.5,3.3c-0.1,0.4-0.2,0.8-0.3,1.2&#xA;&#x9;&#x9;C344.7,75.7,344.7,77.8,344.7,79.9z"/>
    <path class="st333" d="M96.9,64.9c0,0.2-0.1,0.3-0.3,0.4c-2.1,2.1-4.2,4.1-6.3,6.2c-0.4,0.4-0.6,0.1-0.8-0.2&#xA;&#x9;&#x9;c-1.9-1.9-3.8-3.9-5.7-5.8c-3.4-3.4-6.7-6.8-10.1-10.2c-2.7-2.7-5.4-5.5-8.1-8.2c-0.7-0.7-0.7-0.8,0-1.4c2.2-2,3.9-4.3,4.7-7.2&#xA;&#x9;&#x9;c0.2-0.6,0.4-0.3,0.7,0c2.8,2.8,5.6,5.6,8.3,8.5c3.8,3.9,7.6,7.7,11.4,11.6c1.9,2,3.9,3.9,5.8,5.9C96.7,64.6,96.8,64.7,96.9,64.9z"/>
    <path class="st333" d="M376.7,67.8c1.2-1.2,2.4-2.2,4-2.7c3-1,5.9-1,8.9,0.2c2.2,0.9,3.2,2.8,3.7,5c0.3,1.6,0.3,3.3,0.3,4.9&#xA;&#x9;&#x9;c0,0.3-0.2,0.5-0.5,0.5c-1.4,0-2.7,0-4.1,0c-0.4,0-0.5-0.3-0.5-0.6c0-1.1,0.1-2.3-0.1-3.4c-0.3-1.8-1-2.6-2.8-2.9&#xA;&#x9;&#x9;c-2.1-0.3-4.2-0.2-5.9,1.2c-1.1,0.9-1.7,2.1-2.1,3.4c-0.5,1.5-0.6,3.1-0.6,4.7c0,5.5,0,11.1,0,16.6c0,0.9,0,0.9-0.9,0.9&#xA;&#x9;&#x9;c-1.1,0-2.3,0-3.4,0c-0.6,0-0.8-0.2-0.8-0.8c0-1.5,0-2.9,0-4.4c0-8.1,0-16.3,0-24.4c0-1.1,0-1.1,1.1-1.1c1,0,2.1,0,3.1,0&#xA;&#x9;&#x9;c0.5,0,0.7,0.2,0.7,0.7C376.7,66.3,376.7,67,376.7,67.8z"/>
    <path class="st333" d="M402.7,80.1c0,4.8,0,9.5,0,14.3c0,1.1,0,1.1-1.1,1.1c-1,0-2.1,0-3.1,0c-0.9,0-0.9,0-0.9-0.9&#xA;&#x9;&#x9;c0-6.8,0-13.6,0-20.4c0-2.8,0-5.7,0-8.5c0-0.6,0.2-0.8,0.8-0.8c1.1,0,2.2,0,3.3,0c0.9,0,0.9,0,0.9,0.9&#xA;&#x9;&#x9;C402.7,70.5,402.7,75.3,402.7,80.1z"/>
    <path class="st333" d="M400.2,57.3c-0.7,0-1.3,0-2,0c-0.4,0-0.7-0.1-0.7-0.6c0-1.3,0-2.7,0-4c0-0.4,0.2-0.6,0.6-0.6&#xA;&#x9;&#x9;c1.3,0,2.7,0,4,0c0.4,0,0.6,0.2,0.6,0.6c0,1.3,0,2.7,0,4c0,0.4-0.2,0.6-0.6,0.6C401.5,57.3,400.8,57.3,400.2,57.3z"/>
  </g>
</svg>