<svg xmlns="http://www.w3.org/2000/svg" role="img" viewBox="2.16 19.16 394.94 121.94"><title>Plural (member) logo</title><g fill-rule="evenodd" stroke="none"><path fill="#041cbc" d="M12.165 48.211c-.909.45-1.998 1.514-1.998 1.951 0 .175-.075.364-.166.421-.109.067-.166 10.306-.166 29.845v29.743l5.124-.044 5.124-.044.04-25.666c.027-17.189.096-25.685.21-25.722.093-.031.129-.122.079-.202-.387-.627.357-.658 16.705-.7l15.8-.04-15.5-.086-15.5-.086 15.625-.041 15.625-.04v-4.732c0-4.187-.031-4.744-.267-4.835-.147-.056-9.203-.1-20.125-.098l-19.858.004-.752.372m50.504 25.048c0 26.914.034 25.764-.786 26.533l-.4.375H45.755c-8.65 0-15.846.045-15.991.101-.232.089-.264.687-.264 5.001v4.9l20.083-.004c11.735-.002 20.084-.066 20.084-.153 0-.082.3-.2.666-.262.367-.062.667-.181.667-.265 0-.083.117-.152.26-.152.143 0 .217-.069.164-.154-.052-.085.05-.201.228-.258.178-.056.479-.366.67-.688.19-.323.271-.54.18-.484-.095.058-.123-.008-.066-.157.055-.142.166-.259.247-.259.084 0 .148-12.677.149-29.75l.003-29.75H62.669v25.426m-23.502-5.957c0 .083-.169.143-.375.133-.496-.024-2.625.716-2.625.912 0 .084-.15.153-.334.153-.183 0-.483.15-.666.333-.184.184-.334.289-.334.234 0-.055-.266.166-.591.491-.325.325-.726.634-.89.686-.164.052-.398.281-.52.509-.122.227-.255.379-.297.338-.112-.112-.429.265-.658.784-.112.252-.272.458-.355.458-.084 0-.273.3-.419.667-.147.367-.33.667-.407.667-.077 0-.146.093-.153.208-.014.235-.351 1.232-.558 1.653-.553 1.121-.591 5.056-.062 6.498.146.398.305.874.352 1.057.104.403.377 1.075.575 1.417.08.137.252.475.382.75.131.275.452.725.715 1 .262.275.644.716.848.981.204.264.372.422.372.35 0-.072.225.105.5.393.275.288.504.43.51.316.006-.114.079-.038.162.168.082.207.242.375.353.375.112 0 .377.163.589.363.278.261.387.296.391.125.003-.172.052-.157.175.054.093.16.244.292.336.292.092 0 .476.149.855.332 1.525.737 6.263.845 8.005.183.233-.088.468-.116.523-.06.055.055.101.013.101-.094s.144-.195.321-.195c.177 0 .422-.093.546-.208.123-.115.335-.233.47-.263.135-.03.364-.162.509-.292.145-.13.332-.237.417-.237.084-.001.393-.226.686-.5.293-.275.571-.5.617-.5.152 0 .934-.844.934-1.007 0-.088.075-.159.166-.159.092 0 .167-.12.167-.266 0-.146.146-.304.324-.35.19-.05.368-.288.432-.579.06-.272.211-.534.335-.581.124-.048.315-.362.423-.697.108-.336.278-.761.377-.944.099-.183.193-.39.207-.458.015-.069.042-.144.061-.167.043-.054.148-.548.291-1.375.153-.89.125-4.658-.039-5.035-.071-.164-.113-.43-.093-.59.02-.16-.041-.292-.136-.292-.094 0-.128-.112-.076-.25.053-.137.025-.25-.062-.25s-.248-.3-.358-.666c-.109-.367-.269-.667-.354-.667-.085 0-.112-.113-.059-.25.053-.138.018-.25-.077-.25-.096 0-.222-.153-.281-.339-.059-.186-.262-.482-.45-.658-.188-.175-.426-.488-.53-.695-.103-.207-.501-.615-.884-.908-.384-.292-.652-.577-.596-.632.055-.056.008-.101-.106-.101-.113 0-.311-.094-.438-.209-.128-.114-.329-.283-.447-.375-.309-.24-1.869-.99-1.945-.935-.036.026-.111-.019-.167-.1-.149-.215-1.539-.612-1.977-.565-.206.023-.375-.028-.375-.112 0-.083-.975-.167-2.167-.186-1.203-.018-2.166.034-2.166.117"/><path fill="#040404" d="M154.833 65.669c0 21.36.065 38.966.144 39.125.078.159.273.694.431 1.188.159.494.376 1.005.482 1.137.471.581 1.414 1.548 1.511 1.548.058 0 .386.179.728.399.341.22 1.033.496 1.538.614.504.118.988.275 1.075.35.087.075 4.718.137 10.291.137h10.134v-10.5h-6.422c-6.784 0-6.966-.019-7.849-.793-.443-.388-.896-1.248-.896-1.699 0-.188-.075-.342-.167-.342-.11 0-.166-11.777-.166-35v-35h-10.834v38.836m208.67-.127c.004 40.034.015 40.714.643 40.923.103.035.187.156.187.269 0 .769 2.438 2.593 3.918 2.931.458.105.963.26 1.122.346.17.091 4.415.156 10.291.156h10.003V99.678l-6.554-.047-6.555-.048-.57-.397c-.314-.218-.759-.628-.988-.91l-.417-.513-.043-35.465-.043-35.465H363.5l.003 38.709M111.085 48.948c-.365.042-.702.132-.75.199-.047.067-.605.216-1.241.331-.635.114-1.46.344-1.833.511-.373.166-.959.393-1.303.503-.343.11-.625.258-.625.328 0 .069-.299.225-.664.346-.365.12-.789.357-.942.527-.153.169-.343.307-.422.307-.211 0-2.032 1.214-2.188 1.458-.074.115-.221.209-.328.209-.107 0-.347.139-.533.309-.877.8-3.221 3.167-3.631 3.667l-.458.558v-7.868H85.333v83.334h10.834v-31.304l.5.439c.275.241.5.495.5.563 0 .266 2.142 2.195 3.666 3.301.504.366 1.036.778 1.181.916.145.138.319.251.387.251.067 0 .436.215.819.478.383.262.865.529 1.072.594.206.065.375.175.375.246 0 .07.412.268.916.44.504.171.917.36.917.419s.506.236 1.125.393c.619.157 1.24.346 1.381.42 1.481.781 11.018.785 12.479.005.146-.078.828-.27 1.515-.427.688-.157 1.287-.339 1.333-.404.046-.066.515-.244 1.042-.396.527-.152.958-.338.958-.413 0-.074.297-.224.66-.333.362-.108.756-.29.875-.404.118-.114.534-.348.924-.521.389-.173.708-.364.708-.424 0-.061.262-.236.583-.389.321-.153.584-.354.584-.448 0-.093.082-.169.182-.169.796 0 6.86-6.023 7.259-7.208.053-.161.165-.292.247-.292.083 0 .276-.263.429-.583.153-.321.327-.584.388-.584s.246-.3.411-.666c.166-.367.357-.667.426-.667.068 0 .259-.375.424-.833.165-.459.355-.834.422-.834s.175-.168.239-.375c.065-.206.332-.832.595-1.391.263-.559.478-1.107.478-1.217 0-.111.141-.516.315-.901.173-.384.412-1.149.531-1.699.119-.55.272-1.038.339-1.085.154-.108.648-3.392.648-4.311 0-.378.075-.687.167-.687.105 0 .166-1.167.166-3.167 0-2-.061-3.167-.166-3.167-.092 0-.167-.309-.167-.687 0-.922-.494-4.204-.649-4.311-.068-.047-.259-.741-.425-1.543-.166-.802-.351-1.459-.41-1.459-.06 0-.242-.45-.406-1-.163-.55-.367-1-.453-1-.086 0-.157-.128-.157-.285 0-.355-1.303-3.048-1.474-3.048-.069 0-.22-.262-.336-.582-.116-.319-.299-.676-.408-.792-.109-.117-.497-.661-.861-1.21-.365-.55-.815-1.162-1-1.36-.186-.198-.675-.757-1.088-1.241-.412-.485-1.043-1.148-1.401-1.473-.359-.326-.89-.817-1.182-1.092-.291-.275-.772-.687-1.069-.917-.297-.229-.693-.545-.88-.703-.186-.157-.556-.381-.82-.499-.265-.117-.481-.264-.481-.326 0-.063-.206-.221-.458-.352-.252-.131-.946-.52-1.542-.864-.596-.344-1.377-.731-1.736-.86-.358-.128-.733-.298-.833-.376-.1-.078-.594-.269-1.098-.423-.504-.155-1.044-.35-1.199-.435-.156-.084-.943-.274-1.75-.421-.807-.147-1.617-.352-1.801-.456-.337-.19-7.633-.328-8.998-.17m205.251.001c-.411.041-.786.129-.833.196-.048.068-.836.253-1.753.413-.917.159-1.692.361-1.722.449-.031.088-.153.16-.273.16-.326 0-1.992.549-2.091.689-.048.067-.46.248-.917.402-.457.155-.868.329-.914.387-.046.058-.383.255-.75.438-.366.184-.741.393-.833.466-.092.072-.579.387-1.083.698-.914.563-1.061.667-2.167 1.524-1.602 1.242-4.435 4.104-5.093 5.146-.174.275-.367.537-.429.583-.229.169-1.269 1.769-1.383 2.129-.064.204-.176.371-.248.371-.071 0-.27.319-.442.708-.172.39-.364.746-.427.792-.063.047-.247.422-.41.834-.162.412-.345.787-.407.833-.061.045-.245.495-.408 1-.164.504-.355.991-.427 1.083-.071.092-.255.654-.409 1.25-.154.596-.345 1.162-.425 1.259-.08.097-.268.959-.417 1.917-.15.957-.359 1.921-.465 2.141-.269.556-.27 9.806-.002 10.366.106.22.318 1.149.472 2.065.153.916.334 1.703.401 1.75.068.047.219.535.337 1.085.117.55.307 1.15.421 1.334.115.183.343.764.507 1.291.165.527.358.959.43.959.072 0 .254.37.404.822.15.453.333.847.406.875.074.029.297.39.496.803.594 1.228.945 1.851 1.111 1.97.086.062.301.376.477.696.176.321.42.644.542.717.122.073.221.221.221.327 0 .107.148.347.329.534.181.186.611.676.956 1.089.775.925 2.614 2.745 3.453 3.417.343.275.795.668 1.004.875.209.206.446.375.527.375.082 0 .363.185.626.411.263.227.695.507.959.624.264.117.48.266.48.331s.318.27.708.455c.39.185.821.412.958.504.329.22 2.415 1.175 2.567 1.175.065 0 .433.141.817.315.385.173 1.15.41 1.7.527.55.117 1.075.266 1.166.332 1.013.725 11.857.74 12.417.017.046-.06.605-.241 1.243-.404.638-.163 1.2-.36 1.25-.438.05-.077.326-.192.614-.254.288-.063.859-.326 1.268-.586.409-.259.905-.523 1.101-.585.197-.062.357-.166.357-.231s.282-.265.625-.445c.344-.181.685-.423.759-.538.073-.116.223-.21.333-.211.11 0 .401-.168.646-.375.245-.206.791-.637 1.212-.958.884-.672 2.668-2.387 3.217-3.091l.375-.481v7.906h10.667V50.333H339.506l-.045 3.871c-.035 3.051-.087 3.819-.245 3.625-.111-.135-.411-.503-.667-.817-1.017-1.249-2.534-2.676-3.495-3.288-.259-.165-.508-.345-.554-.399-.046-.055-.346-.244-.667-.421-.321-.176-.621-.368-.666-.427-.132-.167-1.18-.78-2-1.169-.413-.195-.788-.411-.834-.479-.046-.068-.458-.247-.916-.399-.459-.152-1.059-.379-1.334-.503-.275-.125-.95-.315-1.5-.424-.55-.109-1.15-.284-1.333-.388-.336-.191-7.348-.321-8.914-.166m-37.669.74c-.596.082-1.234.217-1.417.3-.183.084-.877.278-1.542.433-.664.154-1.208.331-1.208.393s-.342.213-.759.336c-.418.124-.849.312-.959.418-.109.107-.48.326-.824.487-.343.161-.625.351-.625.421s-.262.253-.583.406c-.321.153-.583.354-.583.448 0 .093-.086.169-.19.169-.486 0-3.433 2.629-4.405 3.929-.956 1.279-.905 1.445-.905-3v-4.096h-11v59.834h10.981l.051-16.125c.037-11.827.102-16.214.244-16.459.106-.183.321-1.215.479-2.294.157-1.079.345-1.998.418-2.043.073-.045.265-.644.427-1.331.161-.686.349-1.248.417-1.248.067 0 .252-.394.411-.875.158-.482.341-.913.406-.959.066-.046.243-.325.394-.62.624-1.217 1.147-1.878 2.688-3.397 1.271-1.252 1.71-1.649 1.825-1.649.042 0 .507-.26 1.034-.578.527-.317 1.168-.623 1.425-.68.256-.056.466-.159.466-.228s.582-.267 1.292-.441c.71-.173 1.33-.367 1.376-.43.433-.591 8.955-.557 9.574.038.087.084.256.152.375.152.316 0 .318-10.59.002-10.905-.543-.543-6.412-.799-9.285-.406m-89.801 20.603c.037 14.508.102 20.049.24 20.291.104.184.308 1.223.452 2.309.145 1.087.326 2.062.404 2.167.078.105.28.754.451 1.441.17.688.358 1.287.417 1.333.059.046.241.515.404 1.042.163.527.35.958.415.958s.253.375.418.834c.165.458.356.833.424.833.069 0 .26.3.426.667.165.366.35.666.411.666s.235.263.388.584c.153.32.35.583.437.583.087 0 .204.144.26.32.129.41 3.142 3.4 3.728 3.702.243.125.486.286.539.359.135.183 1.096.73 1.987 1.131.412.186.937.437 1.166.558.23.121.829.315 1.334.43.504.116.991.267 1.083.336 1.001.755 11.493.755 12.5-.001.092-.068.579-.219 1.083-.335.505-.116 1.383-.425 1.952-.688.569-.263 1.113-.479 1.208-.479.096 0 .174-.069.174-.153 0-.085.254-.238.565-.341.311-.103.78-.371 1.042-.596.262-.225.567-.409.678-.409.112-.001.283-.151.381-.334.098-.183.284-.333.413-.333s.333-.137.453-.305c.12-.167.346-.375.502-.461.666-.366 2.925-2.471 3.841-3.578l.458-.554v7.898h10.667V50.333h-10.645l-.053 17.125c-.033 10.873-.112 17.217-.217 17.375-.09.138-.293 1.139-.451 2.224-.157 1.086-.356 2.061-.44 2.167-.085.106-.275.615-.423 1.131-.243.848-1.713 3.887-2.113 4.367-.089.107-.478.603-.866 1.101-.726.934-1.944 2.177-2.133 2.177-.059 0-.325.187-.592.416-.266.23-.574.417-.684.417-.11 0-.26.101-.333.224-.074.124-.509.364-.967.534-.458.17-.871.359-.917.421-.109.147-2.362.655-2.908.655-.234 0-.425.075-.425.166 0 .213-4.392.226-4.794.015-.159-.083-.908-.283-1.664-.444-.757-.16-1.375-.344-1.375-.409 0-.064-.348-.249-.773-.411-.89-.34-.962-.396-2.522-1.956-1.463-1.463-1.623-1.652-1.968-2.319-.154-.299-.383-.645-.509-.771s-.228-.296-.228-.378c0-.083-.18-.546-.4-1.03-.22-.484-.496-1.218-.613-1.63-.117-.413-.271-.829-.343-.926-.157-.211-.644-2.923-.644-3.586 0-.258-.075-.515-.167-.571-.109-.068-.167-6.28-.167-18.094v-17.99h-11.017l.05 19.959M117.941 59.59c1.077.141 2.038.323 2.135.404.098.082.547.241.998.354.882.223 3.624 1.575 4.264 2.104 1.226 1.013 1.686 1.431 2.526 2.298.533.55 1.012 1.131 1.064 1.292.052.16.152.291.222.291.145 0 1.049 1.355 1.361 2.042.115.252.257.458.316.458s.247.394.418.875c.171.482.357.913.413.959.135.111.675 1.876.675 2.209 0 .144.07.288.155.318.189.068.679 3.274.679 4.443 0 .464.075.89.166.946.092.057.167.699.167 1.427 0 .771-.07 1.323-.167 1.323-.091 0-.166.422-.166.937 0 1.084-.471 4.435-.641 4.561-.063.047-.251.61-.418 1.252-.167.641-.358 1.203-.423 1.25-.065.046-.258.459-.428.917-.17.458-.362.871-.425.917-.064.045-.256.383-.427.75-.171.366-.444.812-.608.989-.163.178-.297.397-.297.486 0 .09-.111.282-.248.427-.136.146-.705.808-1.264 1.473-.56.664-1.067 1.211-1.128 1.214-.06.003-.479.339-.931.748-.451.408-.957.785-1.125.839-.167.053-.304.149-.304.214s-.337.266-.748.447c-.412.181-.75.38-.75.443-.001.062-.433.238-.96.391-.527.153-.996.337-1.042.409-.1.156-2.515.67-3.151.67-.247 0-.528.078-.624.175-.475.474-8.831-.261-9.217-.811-.05-.072-.424-.228-.83-.347-.68-.199-2.483-1.111-2.678-1.355-.046-.057-.335-.248-.642-.425-.554-.317-3.067-2.722-3.257-3.116-.084-.173-.98-1.486-1.392-2.04-.25-.335-1.376-2.721-1.376-2.915 0-.11-.11-.436-.245-.724-.295-.633-.755-2.376-.755-2.861 0-.191-.071-.419-.158-.506-.526-.527-.558-10.517-.034-10.907.062-.047.249-.759.415-1.583.166-.823.361-1.573.434-1.666.073-.093.266-.582.429-1.086.163-.504.349-.954.413-1 .063-.046.25-.44.414-.875.165-.435.352-.792.416-.792.065 0 .261-.299.436-.664.175-.366.373-.666.439-.667.067-.001.234-.221.373-.488.215-.417 2.288-2.576 3.212-3.347.956-.797 3.376-2.05 4.531-2.346.466-.12.847-.27.847-.335 0-.101 1.074-.28 3.25-.542 1.28-.155 3.912-.087 5.691.146m207.142.074c.55.1 1.15.25 1.334.334.183.084.802.278 1.375.432.573.154 1.041.331 1.041.392 0 .062.375.247.834.412.458.165.833.35.833.412 0 .061.277.26.616.441.338.181.78.48.981.663.201.183.82.746 1.375 1.25s1.014 1.006 1.019 1.116c.005.109.145.296.312.416.166.12.448.48.625.801.177.321.382.628.455.682.142.105.576.872 1.029 1.818.154.321.423.884.598 1.25.175.367.402 1.004.505 1.417.102.412.245.787.317.833.145.094.668 2.972.668 3.682 0 .252.086.486.191.521.25.083.274 6.967.026 7.507-.095.205-.296 1.154-.446 2.108-.151.954-.335 1.817-.41 1.917-.075.1-.277.669-.449 1.265-.172.596-.361 1.121-.419 1.167-.059.046-.241.44-.406.875-.164.435-.352.792-.418.792-.065 0-.253.297-.417.661-.164.364-.438.788-.608.943-.171.154-.311.355-.311.446 0 .178-.151.35-1.638 1.866-1.238 1.262-1.787 1.75-1.968 1.751-.079 0-.358.184-.62.409-.261.225-.73.493-1.041.596-.311.103-.566.244-.566.314s-.319.227-.708.348c-.39.122-1.02.358-1.402.524-.381.167-1.374.395-2.208.509-.833.113-1.515.265-1.515.336 0 .072-1.238.13-2.75.13-1.723 0-2.75-.062-2.75-.167 0-.091-.217-.166-.483-.166-.613 0-3.074-.503-3.184-.651-.046-.062-.533-.259-1.083-.438-.55-.18-1.038-.373-1.084-.429-.046-.056-.346-.236-.666-.399-.321-.163-.621-.343-.667-.4-.046-.057-.398-.307-.782-.556-1.05-.68-3.273-2.946-3.997-4.075-.166-.258-.434-.614-.595-.792-.161-.178-.293-.416-.293-.53 0-.114-.096-.306-.213-.427-.275-.284-1.453-2.715-1.454-3.001-.001-.121-.11-.428-.243-.683-.134-.255-.366-1.08-.517-1.833-.152-.754-.361-1.55-.466-1.77-.127-.268-.19-1.817-.19-4.683 0-2.866.063-4.415.19-4.683.105-.22.319-1.038.475-1.817.156-.779.341-1.492.411-1.583.071-.092.261-.598.424-1.125.163-.527.353-.959.423-.959s.262-.375.427-.833c.164-.458.351-.833.414-.833s.239-.263.391-.584c.153-.321.349-.583.436-.583.088 0 .159-.086.159-.191 0-.367 3.329-3.976 3.667-3.976.063 0 .332-.187.599-.416.266-.229.574-.417.684-.417.11 0 .26-.099.333-.22.074-.121.471-.353.883-.515.412-.163.787-.349.834-.416.046-.066.533-.251 1.083-.411.55-.16 1.118-.354 1.263-.431.226-.121 1.17-.289 3.237-.578.867-.121 5.457.045 6.5.235"/><path fill="#0410c0" d="M22.026 57.582c.11.11 30.999.115 31.109.005.048-.048-6.95-.087-15.552-.087-8.601 0-15.602.037-15.557.082M33.7 69.7c-.273.273-.252.476.037.365.259-.099.499-.565.291-.565-.07 0-.218.09-.328.2"/></g></svg>