<svg xmlns="http://www.w3.org/2000/svg" role="img" viewBox="14.64 12.14 434.72 189.22"><title>Pluto logo</title><defs><style>.cls-2{fill:#23183a}</style></defs><path fill="#fff" d="M-11.71-7.4h491.87v234.44H-11.71z"/><path d="M23.44 191.9V66.2h17v14c4.87-9 15.71-16.09 30.3-16.09 26.94 0 41.34 20.77 41.34 47.14C112.1 138 96.58 159 70.2 159c-13.84 0-24.31-6.55-29.18-14.59v47.88l-17.58-.37zm44-112.23c-16.09 0-26.75 13.47-26.75 31.61 0 18.52 10.66 31.8 26.75 31.8S94 129.8 94 111.28c0-18.14-10.1-31.61-26.56-31.61zm67.11 76.5V20.56h17.58v135.8l-17.58-.19zm79.45 2.99c-20.95 0-33.67-15.71-33.67-36.1V66.2H198v54.06c0 12.34 5.62 23.19 20.39 23.19 14.22 0 21.33-9.35 21.33-23V66.2h17.58v73.51a165.89 165.89 0 0 0 .93 16.65h-16.88a69.14 69.14 0 0 1-.75-10.85c-4.86 9.16-16.08 13.65-26.6 13.65zm96.93-92.96h19.45v15.9h-19.45v47c0 8.23 3.37 12.34 12.53 12.34a28.08 28.08 0 0 0 6.92-.74v15a43.1 43.1 0 0 1-12 1.68c-15.34 0-25.06-9.35-25.06-25.62V82.1h-17.18V66.2H281c9.73 0 13.84-6 13.84-13.84V37.77h16.09z" class="cls-2"/><path fill="none" d="M364.61 84.34h50.5v50.5h-50.5z"/><path d="M391.55 62.83c29.18 0 49.94 20.39 49.94 47.89s-20.76 48.07-49.94 48.07-49.94-20.58-49.94-48.07 20.76-47.89 49.94-47.89zm33.1 47.33a33.11 33.11 0 1 0-33.1 33.1 33.16 33.16 0 0 0 33.1-33.1z" class="cls-2"/><path fill="#23103a" d="M300.08 176.93a3.8 3.8 0 0 0-3.74 1.87v-7.29h-2.24v17h2.24v-1.68a3.83 3.83 0 0 0 3.74 1.87c3.37 0 5.24-2.62 5.24-6s-1.68-5.77-5.24-5.77zm-.37 9.92c-1.87 0-3.37-1.5-3.37-4.12a3.56 3.56 0 0 1 3-3.93h.38c2.05 0 3.36 1.5 3.36 3.93s-1.32 4.12-3.37 4.12zm12.34-1.88l-3.55-7.85h-2.43l4.86 10.1-2.81 5.99h2.44l7.29-16.09h-2.43l-3.37 7.85zm12.95 4.31h2a1.68 1.68 0 0 0 1.68-1.69v-6h2.8a2.32 2.32 0 0 0 2.25-2.43v-1.13h-5.03v-4.11h5.61a2.08 2.08 0 0 0 2.06-2.06v-1.31H325zm18.1-13.84a5.73 5.73 0 0 0-3.74 1.3 5.81 5.81 0 0 0-1.68 3.37H341a1.33 1.33 0 0 1 .57-1.12 1.44 1.44 0 0 1 1.49-.37 3.53 3.53 0 0 1 1.5.37 1.45 1.45 0 0 1 .37 1.5v.37l-3.55.56a5.49 5.49 0 0 0-1.69.38 2.92 2.92 0 0 0-1.3.74 1.91 1.91 0 0 0-.94 1.13 5.35 5.35 0 0 0-.37 1.68 3.78 3.78 0 0 0 1.12 2.8 4.25 4.25 0 0 0 3 1.13 4.07 4.07 0 0 0 3.93-2.06v.37a1.64 1.64 0 0 0 1.68 1.5h1.5v-8.79a4.24 4.24 0 0 0-1.5-3.74 5.22 5.22 0 0 0-3.71-1.12zm1.87 8.23a3.44 3.44 0 0 1-.37 1.49 2.24 2.24 0 0 1-.94.94 2.77 2.77 0 0 1-1.31.37 1.39 1.39 0 0 1-1.12-.37 1.75 1.75 0 0 1-.19-1.87 2.66 2.66 0 0 1 1.13-.38l2.8-.56zm8.42-13.85a2.13 2.13 0 0 0-1.5.57 2.31 2.31 0 0 0-.75 1.49 1.94 1.94 0 0 0 2.06 2.06 2.16 2.16 0 0 0 1.5-.56 2.36 2.36 0 0 0 .75-1.5 1.69 1.69 0 0 0-.75-1.49 1.45 1.45 0 0 0-1.31-.57zm-1.68 19.46h1.68a1.68 1.68 0 0 0 1.68-1.69v-11.78h-3.55v13.47zM362 177.87l-.37-2.06h-3v13.47h1.87a1.68 1.68 0 0 0 1.68-1.69v-5.23a3 3 0 0 1 1.12-2.44 4.49 4.49 0 0 1 2.62-.93v-3.37a4.26 4.26 0 0 0-2.62.56 4.18 4.18 0 0 0-1.3 1.69zm20.19 5.98l-.18 1.5-.19-1.5-2.24-8h-3.18l-2.25 8-.19 1.5-.18-1.5-2.06-8H368l4.11 13.47h2.25A1.79 1.79 0 0 0 376 188l2.06-6.74 2.43 7.86h2.43a1.8 1.8 0 0 0 1.69-1.31l3.74-12.16h-3.74zm9.54-14.03a2.09 2.09 0 0 0-1.49.57 2.26 2.26 0 0 0-.75 1.49 1.72 1.72 0 0 0 .75 1.5 2.12 2.12 0 0 0 1.49.56 2.15 2.15 0 0 0 1.5-.56 2.36 2.36 0 0 0 .75-1.5 1.69 1.69 0 0 0-.75-1.49 2.11 2.11 0 0 0-1.5-.57zm-1.68 19.46h1.68a1.68 1.68 0 0 0 1.69-1.69v-11.78h-3.56v13.47zm14.03-13.84a4.92 4.92 0 0 0-2.25.56 5.56 5.56 0 0 0-1.49 1.49l-.19-1.87H397v13.47h1.87a1.71 1.71 0 0 0 1.68-1.87V182a3.78 3.78 0 0 1 .75-2.43 1.53 1.53 0 0 1 1.69-.75 2.12 2.12 0 0 1 1.49.56 2.18 2.18 0 0 1 .38 1.87v7.86h1.68a1.77 1.77 0 0 0 1.87-1.87v-6.94a6.72 6.72 0 0 0-1.12-3.74 4.72 4.72 0 0 0-3.21-1.12zm17.02 1.87a4 4 0 0 0-1.68-1.31 4.34 4.34 0 0 0-2.25-.38 6 6 0 0 0-4.49 2.06 7.06 7.06 0 0 0-1.87 5 7.58 7.58 0 0 0 .75 3.55 6.49 6.49 0 0 0 2.44 2.67 6.34 6.34 0 0 0 3.18.94 4.82 4.82 0 0 0 4.3-2.06v.37a1.86 1.86 0 0 0 1.87 1.31h1.5V170.2h-3.55zm0 5.23a4.12 4.12 0 0 1-1.12 2.81 3.21 3.21 0 0 1-4.87 0 4.24 4.24 0 0 1 0-5.43 3.06 3.06 0 0 1 2.44-1.12 5.37 5.37 0 0 1 1.68.38 2.48 2.48 0 0 1 1.12 1.31 3.11 3.11 0 0 1 .56 1.87v.18zm15.9 0a7 7 0 0 0-3.37-1.49c-.56-.19-1.31-.38-1.87-.56a.69.69 0 0 1-.37-.94 1.39 1.39 0 0 1 .37-.93c.19-.38.56-.38 1.12-.38a1.2 1.2 0 0 1 1.5 1.12v.38h3.37a3.74 3.74 0 0 0-1.5-3.18 5.74 5.74 0 0 0-3.55-1.12 4.64 4.64 0 0 0-3.74 1.3 3.85 3.85 0 0 0-1.31 3.18 3.66 3.66 0 0 0 1.12 2.62 6.69 6.69 0 0 0 3.18 1.31c.75.19 1.31.38 1.87.56a.84.84 0 0 1 .37 1.13 1.41 1.41 0 0 1-.37.93 2 2 0 0 1-1.31.38 4.37 4.37 0 0 1-1.5-.38l-.18-.37a1.93 1.93 0 0 0-1.5-.94h-2.24a3.94 3.94 0 0 0 2.05 3.37 6.72 6.72 0 0 0 3.74 1.12 4.08 4.08 0 0 0 2.06-.37 6.89 6.89 0 0 0 1.68-.75 2.53 2.53 0 0 0 1.13-1.31 7 7 0 0 0 .37-2.06 6.66 6.66 0 0 0-1.12-2.62z"/><path fill="#f9ac78" d="M413.24 93.14c-.18.18-.18.18-.18.37-.38.93-.94 1.68-1.31 2.81-.75 1.49.18 5.23-1.5 6.17-1.87 1.31-4.11-2.62-5.8-4.12s-4.86-.93-6.92-1.49c-1.87-.38-3.55-1.69-5.42-1.13-1.5.38-3.18 2.62-4.68 3 0-.94 0-1.69-.75-1.13-1.68 1.31-3.18 3-4.86 4.12-.19.19-.19-.37-.37 0-.19.19-2.44.19-2.44.75 0 1.87-.18 4.67-1.87 5.42-.18.19-.74-2.8-1.12-2.8s-1.87 1.87-2.06 1.68a16.22 16.22 0 0 0-4.48-3.55c-.94-.57-3.56 1.31-4.31.37a2.74 2.74 0 0 1-.56-.75 32.6 32.6 0 0 0-.93 7.3 27.68 27.68 0 1 0 55.36.37 24 24 0 0 0-5.8-17.39z"/><path fill="#ff6700" d="M379.39 102.49c0 1.87-.19 4.67-1.87 5.42-.19.19-.75-2.8-1.12-2.8s-1.87 1.87-2.06 1.49a12.9 12.9 0 0 0-4.49-3.36c-.94-.57-3.55 1.31-4.3.37a2.39 2.39 0 0 1-.56-.75 27.55 27.55 0 0 1 33.85-19.45 28.53 28.53 0 0 1 14.4 9.35c-.18.19-.18.19-.18.38-.38.93-.94 1.87-1.31 2.8-.75 1.5.18 5.24-1.5 6.17-1.87 1.31-4.11-2.61-5.8-4.11s-4.86-.75-6.92-1.5c-1.87-.37-3.55-1.68-5.42-1.12-1.5.37-3.18 2.62-4.68 3 0-.93 0-1.68-.75-1.12-1.68 1.31-3.18 3-4.86 4.12-.19.18-.19-.19-.37-.19 0 1.11-2.06.92-2.06 1.3zm28.99 12.72a6.2 6.2 0 0 0-5.61 1.68 6.74 6.74 0 0 0-4.68-3.74 6.46 6.46 0 0 0-7.67 4.86v.19c-1.49 7.11 7.67 15.71 8.05 16.09a1 1 0 0 0 .75.37h.78c.38-.19 12.16-4.68 13.66-11.6a6.56 6.56 0 0 0-5.24-7.85z"/></svg>