<svg xmlns="http://www.w3.org/2000/svg" role="img" viewBox="-8.94 -5.94 1400.88 547.88"><title>Polar Squad (member) logo</title><path fill="#010101" d="M441.24 162.773H88.9v-70.47h352.34zM18.428 21.845v352.353H441.24v70.471H18.428v70.471h493.283V303.728H88.899v-70.471h422.812V21.845zm709.891 170.498q18.25 0 29.948-11.489 11.69-11.495 11.697-29.752 0-17.86-11.762-29.491-11.75-11.613-29.883-11.62-18.134 0-29.687 11.554t-11.554 29.557q0 18.133 11.489 29.687 11.495 11.554 29.752 11.554M687.6 245.019h31.528q4.994 0 7.48 2.363 2.488 2.37 2.494 7.09 0 5.13-2.428 7.219c-1.619 1.41-4.491 2.102-8.603 2.102h-57.925c-3.499 0-6.162-.784-7.95-2.363-1.802-1.58-2.69-3.89-2.69-6.959q0-5.248 3.342-7.363 3.349-2.095 12.415-2.102h2.494V108.673h-2.494c-6.044 0-10.183-.692-12.415-2.102q-3.349-2.095-3.342-7.35 0-4.602 2.69-6.893 2.682-2.29 7.95-2.297h19.96c2.625 0 4.53.444 5.719 1.305a4.753 4.753 0 0 1 1.775 4.073v12.742a60.31 60.31 0 0 1 19.766-13.786 59.017 59.017 0 0 1 23.316-4.595q26.397 0 44.139 17.859t17.728 44.791q0 25.888-16.814 42.56-16.822 16.684-42.951 16.684a65.432 65.432 0 0 1-25.614-4.922 51.833 51.833 0 0 1-19.57-14.125v52.403zm195.329-48.864q20.229 0 33.16-12.781 12.944-12.787 12.937-32.598 0-19.798-13.003-32.73-13.002-12.904-33.107-12.924-20.111 0-33.042 12.925-12.944 12.924-12.938 32.729 0 19.935 12.873 32.663 12.904 12.71 33.12 12.716m68.956-45.314q0 28.12-19.177 45.98-19.172 17.859-49.779 17.859-30.47 0-49.648-17.86-19.19-17.859-19.178-45.98 0-28.1 19.178-45.913 19.171-17.8 49.648-17.794 30.47 0 49.714 17.859 19.25 17.879 19.243 45.849m51.397-92.482h-22.337q-12.748 0-15.953-2.036c-2.141-1.358-3.225-3.838-3.225-7.428q0-4.74 2.69-7.09 2.682-2.369 7.82-2.362h43.342a9.196 9.196 0 0 1 5.522 1.449 4.63 4.63 0 0 1 1.972 3.942v148.044h30.966q4.993 0 7.298 2.167c1.527 1.436 2.297 3.747 2.297 6.893 0 3.59-.744 6.07-2.232 7.415q-2.232 2.037-8.407 2.037h-81.228c-3.42 0-6.019-.783-7.82-2.363q-2.683-2.37-2.69-7.089 0-4.602 2.755-6.828 2.76-2.232 8.277-2.232h30.953V58.359zm167.39 94.975a95.901 95.901 0 0 0-13.98-3.485 82.618 82.618 0 0 0-13.46-1.123q-20.23 0-31.92 6.828-11.69 6.834-11.697 18.394a17.966 17.966 0 0 0 7.297 14.713q7.285 5.777 18.59 5.784a58.065 58.065 0 0 0 30.928-8.734q14.256-8.734 14.256-18.199v-14.178h-.013zm1.058 41.372a79.106 79.106 0 0 1-23.446 14.843 68.857 68.857 0 0 1-26.071 5.118q-19.583 0-31.593-10.901-12.024-10.908-12.024-28.382 0-20.757 15.953-32.18 15.96-11.436 44.857-11.436a120.129 120.129 0 0 1 15.366.992 128.318 128.318 0 0 1 15.888 3.08v-.913q0-15.098-7.22-22.324-7.225-7.226-22.467-7.22-10.242 0-22.86 5.51-12.61 5.522-16.684 5.522a7.775 7.775 0 0 1-6.305-3.081 12.27 12.27 0 0 1-2.494-7.95q0-7.755 14.517-13.134 14.51-5.385 37.116-5.391 23.127 0 34.935 11.762 11.828 11.75 11.828 34.74v59.504h6.436q9.321 0 12.48 1.971c2.102 1.319 3.16 3.669 3.16 7.09 0 3.158-.875 5.508-2.624 7.088s-4.374 2.363-7.886 2.363h-20.626a8.454 8.454 0 0 1-6.045-2.232 11.425 11.425 0 0 1-3.16-6.437l-1.03-8.002zm105.289-1.841h43.617c3.42 0 5.927.718 7.559 2.167q2.428 2.174 2.428 6.893c0 3.59-.77 6.07-2.298 7.415-1.527 1.358-4.36 2.037-8.473 2.037h-85.901q-5.131 0-7.755-2.363-2.624-2.37-2.624-7.089 0-4.602 2.69-6.828 2.682-2.232 8.341-2.232h22.86V108.53h-8.93q-12.748 0-15.888-2.024-3.153-2.017-3.16-7.376 0-4.563 2.56-6.854c1.71-1.514 4.308-2.284 7.82-2.284h29.947a8.859 8.859 0 0 1 5.392 1.383 4.697 4.697 0 0 1 1.84 4.008v22.337q12.475-15.626 26.006-23.25a58.466 58.466 0 0 1 29.165-7.625q11.69 0 18.917 4.7 7.226 4.7 7.22 12.141a11.975 11.975 0 0 1-3.617 8.577 10.874 10.874 0 0 1-7.95 3.747c-2.024 0-5.405-1.331-10.183-4.008q-7.168-3.994-12.807-4.008-10.242 0-21.606 7.311-11.358 7.305-25.157 23.081l-.013 54.479zM642.274 441.627v-23.381c0-3.851.718-6.619 2.167-8.277s3.786-2.493 7.023-2.493q5.385 0 8.538 7.35a38.223 38.223 0 0 0 3.812 6.697q5.522 7.089 16.293 11.37a63.981 63.981 0 0 0 23.773 4.27q13.923 0 22.337-5.653 8.4-5.64 8.407-14.844 0-9.32-6.762-13.263-6.776-3.937-23.186-3.943h-7.22q-26.788 0-40.848-9.321t-14.06-27.063q0-17.33 13.72-26.933 13.728-9.576 38.552-9.582a79.457 79.457 0 0 1 20.627 2.82q10.496 2.82 11.031 2.82 1.45 0 5.51-2.56a14.996 14.996 0 0 1 8.015-2.558 7.382 7.382 0 0 1 6.632 3.29q2.174 3.29 2.167 9.856v15.366q0 6.972-2.102 10.053c-1.397 2.062-3.63 3.08-6.697 3.08q-3.936 0-9.726-6.697a88.492 88.492 0 0 0-6.697-6.958 43.609 43.609 0 0 0-14.844-9.269 54.95 54.95 0 0 0-18.525-2.82q-12.356 0-19.896 5.444-7.558 5.464-7.558 13.864 0 8.284 7.741 11.828 7.755 3.545 33.369 4.073 27.317.666 39.935 9.518 12.611 8.87 12.611 27.389 0 17.722-13.916 28.368-13.924 10.634-37.573 10.64a112.55 112.55 0 0 1-16.684-1.384q-9.184-1.37-23.12-4.66a62.635 62.635 0 0 1-7.886 4.53 13.844 13.844 0 0 1-5.509 1.514 8.28 8.28 0 0 1-7.036-3.224c-1.606-2.128-2.416-5.222-2.416-9.256m226.27-21.215q-11.633 11.632-29.884 11.632t-29.817-11.423q-11.554-11.436-11.554-29.295 0-18.251 11.489-29.949 11.495-11.69 29.883-11.697 18.25 0 29.882 11.632t11.632 29.491q0 17.997-11.632 29.61m48.421 66.41q-3.29-2.096-12.22-2.102h-5.26V348.376h2.493c5.862 0 9.87-.692 12.024-2.102 2.14-1.397 3.224-3.851 3.224-7.363q0-4.72-2.493-6.958-2.487-2.233-7.742-2.233h-19.843c-2.624 0-4.53.444-5.718 1.319a4.753 4.753 0 0 0-1.776 4.073v12.742a63.523 63.523 0 0 0-19.96-13.786 58.246 58.246 0 0 0-23.121-4.596q-26.534 0-44.335 17.794-17.8 17.8-17.794 44.857 0 25.868 16.88 42.56 16.88 16.683 42.755 16.683a65.76 65.76 0 0 0 25.745-4.921 54.251 54.251 0 0 0 19.83-14.126v65.367a5.83 5.83 0 0 0 5.836 5.822h24.269q5.248 0 7.885-2.363 2.624-2.37 2.624-6.958-.02-5.268-3.303-7.363m51.228-84.205q0 16.547 6.958 24.165 6.972 7.618 22.076 7.624a35.59 35.59 0 0 0 24.504-9.073 29.212 29.212 0 0 0 10.183-22.768v-54.335h-18.003q-5.13 0-7.415-2.154-2.29-2.154-2.297-6.71 0-4.955 2.493-7.311 2.487-2.35 8.016-2.35h27.977q4.993 0 7.023 2.167 2.037 2.174 2.037 10.575v90.118h6.044c4.282 0 7.376.705 9.256 2.102 1.88 1.41 2.82 3.72 2.82 6.958q0 4.74-2.69 7.09c-1.8 1.579-4.399 2.362-7.82 2.362h-19.96a9.196 9.196 0 0 1-5.522-1.449 4.613 4.613 0 0 1-1.972-3.942v-8.93q-12.61 9.732-21.606 13.33a50.308 50.308 0 0 1-18.981 3.615q-21.678 0-32.507-11.501-10.83-11.515-10.836-34.792v-59.178h-2.755q-8.93 0-12.219-2.089c-2.193-1.396-3.277-3.825-3.277-7.31q0-4.563 2.559-6.841c1.71-1.515 4.36-2.285 7.95-2.285h19.831q4.602 0 6.37 1.84c1.176 1.228 1.776 3.944 1.776 8.147v62.925h-.013zm207.156-9.582a95.907 95.907 0 0 0-13.981-3.486 82.617 82.617 0 0 0-13.46-1.123q-20.229 0-31.92 6.828-11.69 6.834-11.697 18.395a17.966 17.966 0 0 0 7.298 14.713q7.284 5.776 18.59 5.783a58.065 58.065 0 0 0 30.927-8.734q14.256-8.734 14.256-18.198v-14.178zm1.058 41.371a79.106 79.106 0 0 1-23.447 14.844 68.906 68.906 0 0 1-26.07 5.117q-19.564 0-31.594-10.9-12.023-10.908-12.023-28.382 0-20.758 15.966-32.18 15.96-11.437 44.857-11.437a120.123 120.123 0 0 1 15.365.992 128.33 128.33 0 0 1 15.888 3.081v-.914q0-15.098-7.22-22.324-7.225-7.226-22.467-7.22-10.241 0-22.859 5.51-12.611 5.522-16.684 5.522a7.776 7.776 0 0 1-6.306-3.08 12.27 12.27 0 0 1-2.493-7.951q0-7.755 14.517-13.133 14.51-5.386 37.115-5.392 23.127 0 34.935 11.762 11.828 11.75 11.828 34.74v59.504h6.436q9.322 0 12.48 1.972c2.103 1.318 3.16 3.668 3.16 7.089 0 3.159-.874 5.509-2.624 7.088s-4.373 2.363-7.885 2.363h-20.627a8.454 8.454 0 0 1-6.044-2.232 11.508 11.508 0 0 1-3.16-6.436l-1.044-8.003zm68.578-42.298q0 18.133 11.697 29.687 11.69 11.573 29.687 11.554 18.133 0 29.817-12.024 11.691-12.024 11.698-30.536 0-18.25-11.632-30.078-11.613-11.828-29.883-11.815-18.525 0-29.948 11.958-11.436 11.946-11.436 31.254m86.045 58.982c-1.84 0-3.133-.457-3.877-1.383-.744-.914-1.123-2.69-1.123-5.314v-10.77a53.409 53.409 0 0 1-19.7 15.3 60.525 60.525 0 0 1-25.614 5.457q-24.83 0-41.567-17.676-16.743-17.664-16.75-43.943 0-27.18 17.86-45.249 17.86-18.055 44.53-18.068a59.082 59.082 0 0 1 24.296 4.804 50.687 50.687 0 0 1 18.525 14.126v-50.314h-6.958q-11.436 0-14.779-2.037-3.348-2.036-3.355-7.428c0-3.16.901-5.51 2.69-7.089s4.4-2.363 7.82-2.363h26.932c2.624 0 4.53.444 5.718 1.319a4.719 4.719 0 0 1 1.776 4.073V432.58h5.914c4.282 0 7.402.718 9.32 2.168 1.92 1.436 2.886 3.746 2.886 6.893a9.416 9.416 0 0 1-2.494 6.958 9.043 9.043 0 0 1-6.697 2.493h-25.353z"/></svg>