<svg xmlns="http://www.w3.org/2000/svg" role="img" viewBox="-5.00 -2.25 455.00 354.50"><title>Portus logo</title><style>svg {enable-background:new 0 0 448.5 351.1}</style><style>.st22{fill:#1c3e5a}.st25{fill:#faf9f6}.st27{fill:#0b1c2a}.st28{fill:#1d405b}</style><path d="M5.7 257.3c1.4-8.2 3.6-15.3 6.9-22.9 13.1-30.1 37-43.4 67.4-38.1 30.4 5.3 43.1 33.3 27.1 59.7-.9 1.4-2 2.7-1 5.8 25.7-13.3 45.1-2.5 62.6 18.4 1.5-5.7 2.7-10.3 3.9-14.9 1.3-5.2 3.1-10.4 9.9-9.2 6.6 1.1 4.6 5.9 4.2 9.9-.1 1.2-.4 3.8-.6 4.8.1 1.5-.6 3.5 1.3 4.1 2.3.7 2.2-1.4 2.6-2.8 1.7-6.2 5.3-11 10.7-14.2 3.3-2 6.9-2.8 10.6-.4 3.4 2.3 3.4 5.6 2.9 9.1-.3 1.7-1 3.3-1.1 5-.2 6-4.3 13.8 5 16.1 6.9 1.8 15.9-7.1 17.4-14.5 2.1-10.3 1.1-17.2-11.9-16.3-3.1.2-6.3-1.3-5.8-5.5.4-3.4 3.4-4.5 6.1-3.9 13.4 2.7 17-5.2 19.3-16.3 2.2-10.3 6.6-20 13.8-28 8.4-9.3 18.3-7.2 22.9 4.4 3.3 8.5 2.2 16.7-1.4 24.7-2.5 5.5-5.2 10.9-8.4 17.6H287c3.7 0 5.9 1.5 5.9 5.3 0 3.5-1.9 6-5.5 6.1-6.5.3-13 .7-19.4 0-8.9-1-12.9 5.3-14.4 11.4-1.9 8.5-2.3 17.5-.8 26.3 1.3 8.2 6.5 11.3 14 7.8 15-7.1 31.6-12.8 31.9-34.1 0-3.8 2.3-7.8 4.4-11.3 2.6-4.5 6.9-6.7 12.1-4.9 6.1 2.1 2.6 6.7 2.1 10.3-1.5 10.8-3.4 21.5-4.9 32.2-.5 3.3-1.2 7.5 3.2 8.4 3.6.7 6.4-2.1 7.9-5.3 1.4-3.1 2.5-6.3 3.2-9.6 1.7-8.3 3.3-16.7 4.7-25 1.2-7.1 3.6-12.8 12.1-11.5 9.9 1.5 6.1 9.1 5.5 14.5-.9 9.1-3.2 18.1-4.5 27.1-.5 3.2-1.3 7.3 1.9 9.5 3.3 2.3 6.5-.3 9.4-1.9 12.5-6.8 22.3-16.5 30.9-27.7 4.9-6.5 9.9-13 15.6-18.7 4.2-4.2 10.4-4.8 14.9-.5 4.6 4.3 1.2 9.1-2.3 12.4-4.9 4.7-5.1 9.6-3 15.7 1.8 5.4 2.3 11.3 3.5 17.3 9.5-.2 15.7-10.5 25.9-9.4v14.3c-12.1 6.8-24.4 13.5-38.4 15.5-9.8 1.4-21.5 4.1-27.7-4.7-5.7-8.1-9-5.2-14.6-1.9-6.8 3.9-14 7-22.2 5.9-6.9-.9-7.3-7.8-10.5-12.3-4.5 4.4-8.5 8.7-13.8 11.3-11.3 5.7-18.7 1.3-19.9-11.8-.5-2.1 1.3-5-1.1-6-1.1-.4-.7 2.6-1 4.1-8.3 5.9-17.2 10.8-26.7 14.3-10.3 3.7-17.9.9-22.9-8.9-2.8-5.5-4.4-11.7-6.5-17.7-24.4 12.9-31.7 8.5-37.7-12.4-.3-1.1-.9-2.8-1.6-3-1.4-.5-2.2 1.5-2.5 3-2.8 8.3-5 16.9-8.5 24.9-2.6 6-2.1 16.6-11.9 15-10.5-1.7-8.1-12-7.8-19.4.6-15.8-5.8-25.4-21.7-30.2 2.5 11.6 3 23-3 33.7-6.8 12.2-18.1 18.5-29 15.9-11.1-2.6-17.9-12.8-18.8-27.2-.8-12.8 2.6-24.2 10.7-34.8-7.5 4.2-14.1 9.7-21.9 10.8-11.1 1.5-12.9 7.6-12.6 17.3.5 22.9-4.1 47.8-28.8 53.1-3.3.7-6.9.8-10.2 0-13.9-3.3-18.6-17.9-22.2-30.9-1.3-4.7-2.6-8.8-3.3-14.2-2-13.3-1.8-27.3.5-40.7zm18.5 23c-.1 13.2-.4 25.8 4.6 37.7 3.9 9.2 11 10.4 16 2.6 7.7-12 7.1-25.9 7.1-39.5 0-7.8-8.6-6.3-12.3-10.3-.2-.2-.5-.4-.8-.6-4.2-3.6-5.1-8.5-3-12.9 2.5-5.2 6.4-1 9.5.2 3.9 1.6 5.9 1.6 6.3-3.8.6-7.7 1.4-15.7 7.3-21.7 4-4.1 9.1-5 14-2.5 4.7 2.4 2.8 7 1.9 11-1 4.3-2.2 8.5-3.1 12.9-.6 2.8-.7 5.2 3.8 4.7 9.5-1.1 19.9-10.2 21.2-19.4 1.5-10.3-3.7-18.8-14.2-23.2-19.1-8-37.5-1.8-48.1 16.5-8.9 15-11.1 31.6-10.2 48.3zm85.7 15.2c0 6.3.4 13.2 7.9 14.6 7.3 1.4 9.3-5.4 11.4-10.7 2.9-7.4 4.2-15.1 1.5-22.8-2.5-7.1-8.1-8.3-13.1-2.7-5.4 6.1-7.4 13.6-7.7 21.6zm284.2-7.8c-4.7 5.7-8.4 10.5-12.6 14.9-2.6 2.8-1.9 4.6.6 6.7 2.9 2.5 6.1 4.6 10.1 3.2 3.9-1.4 5.8-4.6 6.1-8.6.2-4.5.1-8.9-4.2-16.2zm-139.2-40c7.5-7.6 11.9-16.7 14.5-26.7.5-2.1 1.1-5-1.6-6.3-3.5-1.5-4.9 1.5-6 3.8-4.2 9.2-6.8 18.8-6.9 29.2z" class="st22"/><path fill="#f0f7f7" d="M341.1 6.5c0 44.3-.2 88.5.2 132.8.1 8.6-1.7 9.4-9.3 6.3-41-16.3-82.1-32.1-123.2-48-4.7-1.8-6.9-4.9-6.6-10.1.3-6.1.3-12.3 0-18.4-.3-5.7 2-8.2 7.3-10.3 38.5-15.1 76.9-30.5 115.4-45.9 3.4-1.4 7.6-1.5 8.1-6.4h8.1zM218.2 91.1c-1.5-.3-3-.1-3.2 1.5-.5 4.3 3.3 4.6 5.9 5.6 34.3 13.5 68.6 27.1 103 40.4 2.5 1 6.6 4.1 8.1.8 2-4.4-3.1-5-6-6.1-24.2-9.5-48.5-19-72.8-28.4-11.7-4.7-23.3-9.3-35-13.8z"/><path fill="#dcd7d1" d="M136.8 216.8c1-9.6 1.5-19.1 3.9-28.5 10.3-.1 20.6-.1 30.9-.2l-.1 1c.1 9.1.1 18.2.2 27.3-11.6.2-23.3.3-34.9.4z"/><path d="M171.7 216.5c-.1-9.1-.1-18.2-.2-27.3 10.2-.3 20.4-.6 30.6-1 1.3 9.6 2.7 19.3 4 28.9-11.6 0-23.1-.1-34.7-.1l.3-.5z" class="st25"/><path fill="#24445e" d="M202.2 188.2c-10.2.3-20.4-.4-30.6 0 0-9-.1-17.9-.1-26.9 0-.5 0-1 .2-1.5l26.2.6c1.4 9.3 2.8 18.6 4.3 27.8z"/><path d="M171.4 161.3c0 9 .1 17.9.1 26.9-10.3.1-20.6.1-30.9.2 1-8.8 1.9-17.7 2.9-26.5.7-.2 1.5-.5 2.2-.7 8.7 0 17.2.1 25.7.1zm-22.5-28.1c.5-12.2 3.2-23.2 2.1-35 6.8.3 13.6.6 20.5.9v34.3c-7.6.3-15-.5-22.6-.2z" class="st27"/><path d="M171.5 133.4V99.1c6.8-.2 13.6-.4 20.5-.7-1.9 11.6 2.9 22.8 1.9 34.3-7.5.2-15 .5-22.4.7 0-.3 0 .4 0 0z" class="st28"/><path fill="#e6dfd8" d="M148.9 133.2c7.6-.3 15 .5 22.6.2 0 .3.1-.3 0 0 0 8.8.1 17.6.1 26.4-.1.5-.2 1-.2 1.5-8.5-.1-19.3.6-27.9.5-.2-.6.5-.2.1-.7 1.3-8.9 3.5-19.6 5.3-27.9z"/><path d="M136.8 216.8l34.9-.3c0 6.7-.2 13.9-.2 20.5-7.6 0-14.9-.7-22.2-1.7-16.1-2.3-14.6-2.3-12.5-18.5z" class="st27"/><path d="M171.5 237c0-6.7.2-13.9.2-20.5 11.6 0 22.9.6 34.5.7 1.4 16.1 1.4 16-14.7 18.5-6.7 1.1-13.3 2.1-20 1.3z" class="st22"/><path d="M171.4 161.3c0-8.8.1-19.1.1-27.9 7.4-.2 14.9-.5 22.3-.7 2.2 9.1 3.6 18.4 4 27.8-8.7-.2-17.6 1-26.4.8z" class="st25"/><path fill="#c1d3d4" d="M192 98.4c-6.8.2-13.6.4-20.5.7-6.8-.3-13.6-.6-20.5-.9-.2-1.7.4-3.1 2-4h10.4c14.3.2 14.3.2 14.3-13.7 0-6-.1-12.1-.1-18.1 4.2 0 8.3 0 12.5-.1 0 12.1-1.8 24.3 1.9 36.1z"/><path fill="#c9e3e4" d="M163.4 94.3H153V62.5c3.4 0 6.9.1 10.3.1.1 10.5.1 21.1.1 31.7z"/><path fill="#172734" d="M163.4 62.5c-3.4 0-6.9-.1-10.3-.1-3.5-1.6-2.3-3.4-.3-5.3 7.1-6.5 30.3-6.3 37.2.4 1.6 1.5 2.7 3.2 0 4.8-4.2 0-8.3 0-12.5.1-4.6.1-9.4.1-14.1.1z"/><path d="M190 272.2c-.4 1.4-.3 3.5-2.6 2.8-1.9-.6-1.2-2.6-1.3-4.1 1.1 1.1 2.2 2 3.9 1.3zm104.1 38.7c-.7-.6-1.4-1.3-2.1-1.9.3-1.5 0-4.5 1-4.1 2.5 1 .7 3.9 1.1 6z" class="st28"/><path fill="#e0f4f7" d="M218.2 91.1c11.6 4.6 23.3 9.2 34.9 13.7 24.3 9.5 48.5 18.9 72.8 28.4 2.9 1.2 8.1 1.7 6 6.1-1.5 3.4-5.6.2-8.1-.8-34.4-13.3-68.7-26.8-103-40.4-2.7-1-6.4-1.4-5.9-5.6.3-1.5 1.8-1.8 3.3-1.4z"/><path fill="#ddece9" d="M163.4 62.5c4.7 0 9.4-.1 14.2-.1 0 6 .1 12.1.1 18.1 0 13.9 0 13.9-14.3 13.7V62.5z"/></svg>