<svg xmlns="http://www.w3.org/2000/svg" role="img" viewBox="-32.50 -32.50 1690.00 480.00"><title>Prefect (member) logo</title><defs><linearGradient id="a" x1="5925.28" x2="5924.89" y1="534.25" y2="533.85" gradientTransform="matrix(231.75 0 0 235.91 -1372961.36 -125777.07)" gradientUnits="userSpaceOnUse"><stop offset="0" stop-color="#b4c0c9"/><stop offset="1" stop-color="#94a5b2"/></linearGradient><linearGradient id="b" x1="6618.38" x2="6618.97" y1="304.86" y2="305.34" gradientTransform="matrix(231.6 0 0 513.83 -1527896.91 -155305.48)" gradientUnits="userSpaceOnUse"><stop offset="0" stop-color="#647989"/><stop offset="1" stop-color="#2f383e"/></linearGradient><linearGradient id="c" x1="6622.13" x2="6622.45" y1="304.28" y2="304.68" gradientTransform="matrix(454.75 0 0 346.97 -3006419.68 -104394.62)" gradientUnits="userSpaceOnUse"><stop offset="0" stop-color="#2edaff"/><stop offset="1" stop-color="#004bff"/></linearGradient></defs><path fill="#465968" fill-rule="evenodd" d="M387.32 296.38V118.87h103.32c47.32 0 64.77 15.84 64.77 57.81s-17.45 57.5-64.77 57.5H421.9v62.2zm34.58-92.72h65.53c24.84 0 33.3-6.64 33.3-27s-8.46-27.3-33.3-27.3H421.9zm158.14 92.72V118.87h101.28c45.4 0 62.1 15.63 62.1 56.42 0 34.48-11.88 50.64-42.82 54.82l51.6 66.27h-42.29l-50-65.2h-46.14v65.2zm33.83-95.39h64.67c23.23 0 31.16-6.64 31.16-25.49 0-19.37-8.25-26.23-31.16-26.23h-64.67zm154.82 95.39V118.87h153.75v30.51h-119.7v41.86h101.71v30.2H802.74v44.54h121.84v30.4zm184.48 0V118.87h155.78v30.51h-121v41.86h102.68v30.2H987.96v74.94zm176.33 0V118.87h153.75v30.51h-119.7v41.86h101.82v30.2h-101.82v44.54h121.84v30.4zm340.37-177.51h155.78v31h-64.78v146.46h-34.47V149.82h-128.27c-61.88 0-62-.54-62 57.81s0 58.36 62 58.36h55.89v30.4h-55.89c-96.46 0-96.46-5.78-96.46-88.76s-1.4-88.75 96.46-88.75z"/><path fill="url(#a)" fill-rule="evenodd" d="M258.2 193.49l-129.18-64.72v131.55l129.18-66.83z"/><path fill="#0d3958" fill-opacity=".2" fill-rule="evenodd" d="M145.47 251.8l-16.45-97.79v106.31l16.45-8.52zm96.17-66.67l-112.62-56.36v14.35l112.62 42.01z"/><path fill="url(#b)" fill-rule="evenodd" d="M4914.57 1570.06c.27-.16 118.66-57.55 118.76-57.61 1.62-1 2.54-1.24 2.59-4.09 0-.27-.05-223.41-.05-223.41-50.16 25.08-120.76 60.3-126.86 63.54-1.94 1.08-2.21 2-2.21 3.4v212.4c-.05 4.8.27 9.54 7.77 5.77z" transform="translate(-4906.8 -1156.18)"/><path fill="url(#c)" fill-rule="evenodd" d="M5165 1223.09v126.53s-241-120.55-249.34-124.86c-5.56-2.91-5.56-5.67 0-8.79 5.12-2.86 102.91-51.62 117.9-59.12 1.94-.86 2.54-.86 4.26-.16l124.76 62.51c1.78.87 2.32 1.73 2.42 3.89z" transform="translate(-4906.8 -1156.18)"/></svg>