<?xml version="1.0" encoding="UTF-8" standalone="yes"?>
<svg version="1.1" id="Layer_1" xmlns="http://www.w3.org/2000/svg" xmlns:xlink="http://www.w3.org/1999/xlink" x="0px" y="0px" viewBox="0.8000000000000114 -1.920000000000016 280.8 323.44" style="enable-background:new 0 0 278.8 317.7;" xml:space="preserve">
  <style type="text/css">
	.st0{fill:#FF0000;}
	.st1{fill:#010101;}
	.st2{fill:#F8F8F8;}
	.st3{fill:#FEFEFE;}
	.st4{fill:#15886A;}
	.st5{fill:none;}
	.st6{fill:#111111;}
	.st7{fill:#121212;}
	.st8{fill:#131313;}
	.st9{fill:#52D411;}
	.st10{fill:#4ED30C;}
	.st11{fill:#49D205;}
	.st12{fill:#4DD30A;}
	.st13{fill:#48D203;}
	.st14{fill:#60D824;}
	.st15{fill:#4AD205;}
	.st16{fill:#FDFDFD;}
	.st17{fill:#FCFEFB;}
	.st18{fill:#46D100;}
	.st19{fill:#FBFBFB;}
	.st20{fill:#E1F7D6;}
	.st21{fill:#EBF9E4;}
</style>
  <g>
    <path class="st5" d="M142.2,54.8c-0.3,0.3-0.7,0.6-1,0.9C141.5,55.5,141.8,55.2,142.2,54.8z"/>
    <path class="st6" d="M261.9,106.9c-2.8-3-6.3-5-10-6.7c-11.7-5.5-24.2-8.5-36.9-10.7c-7.2-1.3-14.5-2.1-21.7-3.1&#xA;&#x9;&#x9;c-2.4-0.3-4,0.8-4.2,3.2c-0.2,2.2,1,3.6,3.3,3.8c1.5,0.2,3,0.4,4.5,0.6c13.2,1.6,26.2,3.5,38.9,7.6c4.1,1.3,8.1,2.9,11.5,5.6&#xA;&#x9;&#x9;c4.3,3.4,4.2,6.8-0.1,10.2c-2.7,2.1-5.8,3.5-9,4.7c-13.3,4.8-27.1,6.8-41,8.6c-1.9,0.2-2.4-0.9-3.1-2&#xA;&#x9;&#x9;c-13.3-21.4-28.4-41.4-44.9-60.4c-1.5-1.7-1.5-2.6,0-4.3c6.4-6.8,12.8-13.6,19.6-20c8.5-8,17.1-15.7,27.2-21.6&#xA;&#x9;&#x9;c2.6-1.5,5.3-2.9,8.4-3.4c4.7-0.8,7,1,7.3,5.7c0.1,2.3-0.2,4.5-0.7,6.7c-3.1,12.6-9.5,23.8-15.7,35c-1.2,2.2-2.6,4.5,0.3,6.2&#xA;&#x9;&#x9;c2.8,1.6,4.4-0.5,5.7-2.7c4.8-8.6,9.4-17.3,13.1-26.4c3.5-8.5,6.7-17.2,6.9-26.6c0.1-5.5-1.8-9.8-7.5-11.7c-2,0-4,0-6.1,0&#xA;&#x9;&#x9;c-3.6,1.6-7.3,3-10.8,4.9C180.6,19,167.2,31.4,154,44.1c-3.8,3.6-7.7,7.1-11.8,10.7c-0.4,0.4-0.7,0.7-1,0.9c-0.6,0.5-1.1,1-1.7,1.5&#xA;&#x9;&#x9;c-6.6-7-14.2-14.9-22.3-22.3c-8.7-7.9-17.7-15.3-27.6-21.6c-5.5-3.5-11.5-6-17.6-8c-1.8,0-3.5,0-5.3,0c-5.4,2.3-7.2,6.6-6.9,12.1&#xA;&#x9;&#x9;c0.1,2,0.2,4,0.6,6c3.3,17.2,11.5,32.4,19.9,47.5c1.1,2,3,2.9,5.1,1.7c2.2-1.3,1.9-3.3,0.8-5.3C82.3,60.7,78.6,54,75.4,47&#xA;&#x9;&#x9;c-2.9-6.4-5.6-13-6.4-20.1c-0.7-6.7,2.8-9.5,9.2-7.4c5.2,1.7,9.8,4.6,14.1,7.9C107,38,119.6,51,131.9,64.3c1.3,1.4,1.2,2.3,0,3.7&#xA;&#x9;&#x9;c-16.7,19.2-31.9,39.4-45.3,61c-0.8,1.3-1.6,1.9-3.3,1.6c-11.8-1.4-23.5-3.3-34.9-6.6c-4-1.1-7.9-2.5-11.6-4.6&#xA;&#x9;&#x9;c-3-1.7-6.4-3.4-6.4-7.3c0-3.7,3.3-5.4,6.2-7c2.1-1.1,4.3-2.1,6.5-2.9c8-2.9,16.2-4.7,24.6-6c6.8-1.1,13.7-1.9,20.6-2.9&#xA;&#x9;&#x9;c2.5-0.3,3.6-1.7,3.3-4.2c-0.3-2.3-2-3-4.1-2.9c-0.9,0.1-1.8,0.1-2.6,0.2c-10.4,1.3-20.7,2.9-30.9,5.3&#xA;&#x9;&#x9;c-10.8,2.6-21.6,5.4-30.9,11.7c-9.9,6.6-9.8,14.1,0.2,20.7c1.4,0.9,2.8,1.7,4.3,2.4c6.5,3.4,13.5,5.6,20.5,7.6&#xA;&#x9;&#x9;c10.3,2.8,20.8,4.6,31.6,6.3c-0.8,1.5-1.5,2.7-2.1,3.9c-5.5,10.1-10.6,20.3-14.3,31.2c-2.2,6.5-4,13-3.5,20&#xA;&#x9;&#x9;c0.5,6.8,4.7,10.2,11.4,9.3c2.8-0.4,5.4-1.1,8-2.3c18.7-8.5,33.4-22.5,47.9-36.5c1.5-1.4,1.5-3.2,0-4.7c-1.4-1.5-3.1-1.7-4.8-0.4&#xA;&#x9;&#x9;c-1.3,1-2.4,2.2-3.6,3.3c-9.3,9.1-18.8,18-30,24.9c-3.1,1.9-6.3,3.7-10,4.3c-4.8,0.8-7.2-1.1-7.3-6c-0.1-3.3,0.7-6.5,1.7-9.6&#xA;&#x9;&#x9;c3.8-12.2,10.2-23.2,16.5-34.3c1-1.8,2.3-1.7,3.8-1.5c31.4,3.2,62.8,3.1,94.2,0c1.9-0.2,3,0.3,3.9,2c3.5,6.6,7.2,13,10.5,19.7&#xA;&#x9;&#x9;c3.4,6.9,6.6,13.9,7.2,21.8c0.6,7.6-2.7,9.9-9.9,7.3c-6.1-2.2-11.3-6.1-16.4-10c-8.4-6.3-15.9-13.7-23.4-21&#xA;&#x9;&#x9;c-1.7-1.7-3.7-2.4-5.6-0.5c-1.9,1.9-1.2,3.8,0.6,5.6c10.6,10.3,21.5,20.3,33.9,28.5c6.7,4.5,13.6,8.7,21.9,9.7&#xA;&#x9;&#x9;c5.6,0.7,9.2-1.9,10.5-7.4c1.1-4.4,0.3-8.8-0.7-13.1c-3-13.3-8.9-25.4-15.2-37.3c-1.2-2.2-2.7-4.2-3.3-6.8&#xA;&#x9;&#x9;c15.5-2.4,30.7-5.1,45.3-10.8c5.5-2.2,10.9-4.7,15.1-9.1C266.2,116.1,266.2,111.4,261.9,106.9z M96.8,132&#xA;&#x9;&#x9;c13.4-20.7,27.9-39.7,43.7-58c15.8,18.4,30.3,37.4,43.6,58C154.8,134.4,126.1,134.3,96.8,132z"/>
    <path class="st3" d="M117.2,35c8.1,7.3,15.7,15.2,22.3,22.3c0.6-0.5,1.1-1,1.7-1.5c0.3-0.3,0.7-0.6,1-0.9c4-3.6,8-7,11.8-10.7&#xA;&#x9;&#x9;c13.2-12.7,26.6-25.1,42.8-33.9c3.5-1.9,7.2-3.3,10.8-4.9c-45.2,0-90.4,0-135.7,0c6.2,2.1,12.1,4.5,17.6,8&#xA;&#x9;&#x9;C99.5,19.7,108.5,27.1,117.2,35z"/>
    <path class="st6" d="M118.5,315.5c7-1.2,11.6-6,11.7-12.9c0.3-12.1,0.3-24.2,0-36.3c-0.1-6.2-3.9-10.4-9.4-11.8&#xA;&#x9;&#x9;c-10.9-2.8-18.6,2.9-18.7,14.2c-0.1,9.5,0.2,18.9-0.1,28.4c-0.3,8.6,1.9,15.3,10.9,18.2 M121.1,301c0,3.1-1.3,5.4-4.9,5.4&#xA;&#x9;&#x9;c-3.7-0.1-4.7-2.4-4.8-5.5c-0.1-5.4,0-10.8,0-16.3s-0.1-10.8,0-16.3c0.1-4,1.8-5.9,4.9-5.8c3.6,0.1,4.8,2.5,4.8,5.6&#xA;&#x9;&#x9;C121.1,279.1,121.2,290,121.1,301z"/>
    <path class="st6" d="M275,293.5c0-0.9-0.3-1.3-1.3-1.5c-5.6-1.4-7.6,0.1-7.6,5.8c0,1.4,0,2.8-0.1,4.2c-0.4,3.7-3.6,5.5-6.9,4&#xA;&#x9;&#x9;c-2.5-1.2-2.6-3.6-2.6-5.8c0-9,0-17.9,0-26.9c0-2.3,0-4.5,0.2-6.8c0.2-2.8,2.1-3.9,4.7-3.9c2.6,0,4.3,1.4,4.6,4.1&#xA;&#x9;&#x9;c0.1,1.5,0.3,3.1,0.1,4.5c-0.4,3.1,0.9,3.8,3.8,3.7c5.2-0.2,5.2,0,5.2-5.2c0-1.3,0-2.5-0.1-3.8c-0.8-6.2-4-10-9.5-11.3&#xA;&#x9;&#x9;c-10.6-2.6-18.1,3-18.3,13.9c-0.2,9.5,0.2,18.9-0.1,28.4c-0.3,8.5,1.6,15.3,10.5,18.3c2.2,0.3,3.7,0.2,5.4,0.1&#xA;&#x9;&#x9;c0.5,0,0.9-0.1,1.2-0.2c6.5-1.1,9-4.2,10.4-10.3C275.4,301.1,274.9,297.3,275,293.5z"/>
    <path class="st6" d="M192.2,264.9c0-10.7,0-10.6-10.7-10.3c-1.9,0.1-2.5,0.6-2.8,2.5c-1.7,11.9-3.5,23.7-5.3,35.5&#xA;&#x9;&#x9;c-0.1,0.4-0.3,1.6-0.3,1.6s-0.1,0.1-0.5,0.2c-1.6-9.9-3.6-19.8-5.1-29.8c-1.5-10.2-1.5-10.1-11.9-10c-2,0-2.8,0.4-2.8,2.7&#xA;&#x9;&#x9;c0.1,18.1,0.1,36.1,0,54.2c0,3.2,1.1,3,3.3,3.1c2,0.1,5.1,1,5-3.1c-0.2-11.9-0.1-23.8-0.1-35.8c0.6,0.9,1,1.9,1.2,3&#xA;&#x9;&#x9;c1.8,11,3.6,21.9,5.4,32.8c0.2,1,0,2.5,1.1,2.6c2.5,0.3,5.1,0.5,7.5,0c1.7-0.4,1.4-2.4,1.6-3.8c0.4-3.5,0.7-6.4,1.2-9.5&#xA;&#x9;&#x9;c1.3-8.4,2.6-16.8,3.9-25.3c0.2,0,0.4,0,0.6,0.1c0,11.1,0,22.2,0,33.2c0,5.6,0,5.4,5.6,5.6c2.7,0.1,3.4-0.7,3.4-3.4&#xA;&#x9;&#x9;C192.1,295.7,192.2,280.3,192.2,264.9z"/>
    <path class="st6" d="M30.1,260.9c-1-6.3-1-6.3-7.9-6.3c-1.6,0-2,0.1-3.7-0.1c-1.6-0.1-3.3,0.6-3.5,2.1c-2.9,18.4-5.9,36.8-8.9,55.2&#xA;&#x9;&#x9;c-0.1,0.8-0.6,1.7,0.5,2.3c2.8,1.6,7.9,1.4,8.3-1.6c1-9.2,1.3-9,8.8-9.3c3.4-0.1,4.2,1.1,4.5,4.2c0.7,7,0.9,6.9,7.7,6.8&#xA;&#x9;&#x9;c2.2,0,2.7-0.4,2.3-2.7C35.4,294.8,32.8,277.8,30.1,260.9z M18.6,295.5c-1.3,0-1.1-2.2-1-3.3c1.2-8.3,2.5-16.6,3.8-24.9&#xA;&#x9;&#x9;c0.2,0,0.3-0.1,0.5-0.1c1,6.5,2,13,3,19.5c0.1,0.9,0.2,1.7,0.4,2.6C26.4,295.5,26.2,295.7,18.6,295.5z"/>
    <path class="st7" d="M82.4,256.9c0-1.9-0.6-2.3-2.4-2.3c-8.1,0.1-16.2,0-24.2,0c-1,0-2.2-0.4-2.5,1.4c-1.1,5.7-0.1,7.1,5.6,7.1&#xA;&#x9;&#x9;c0.4,0,0.8,0,1.1,0c2.6,0.1,3.1,0.8,3.1,3.2c-0.1,7.4-0.1,14.9-0.1,22.4c0,7.6,0.1,15.2,0,22.7c0,2.2,0.4,3,2.9,3c1.4,0,2.6,0,3,0&#xA;&#x9;&#x9;c3.1-0.1,3.7-0.8,3.7-3.7c-0.2-13.4-0.1-26.8-0.1-40.2c0-7.1,0-7.2,7.1-7.3c2.2,0,2.7-0.7,2.7-2.8C82.4,259,82.4,258.1,82.4,256.9z&#xA;&#x9;&#x9;"/>
    <path class="st8" d="M221.5,254.6c-0.8,0-1.9,0-2.6,0c-3.1-0.1-3.7,0.9-3.6,3.7c0.1,16.6,0.1,33.3,0.1,49.9c0,6.2,0,6,6.1,6.3&#xA;&#x9;&#x9;c3,0.1,3.5-0.9,3.5-3.6c-0.2-8.8-0.1-17.6-0.1-26.5s-0.1-17.6,0.1-26.5C224.9,255.3,224.2,254.6,221.5,254.6z"/>
    <path class="st9" d="M90.7,230.3c-1.4-0.1-2.7-0.2-4.1-0.3c-6.2-0.2-5.2-0.4-5.4,5.1c0,1,0,2,0,3c0,1-0.3,2.1,1.2,2.3&#xA;&#x9;&#x9;c1.5,0.2,1.5-0.8,1.6-1.9c0.2-2.4,2.2-1.7,3.3-1.7c1.2,0,3.2-0.6,3.3,2c0,1.2,0.3,2.1,1.7,1.8c1.3-0.2,0.8-1.4,0.9-2.1&#xA;&#x9;&#x9;c0.1-1.6,0.1-3.2,0.2-4.8C93.4,231.7,92.8,230.4,90.7,230.3z M87.3,234.9c-1.1,0-3,0.4-3.1-1.2c-0.1-1.8,1.9-1.2,3.2-1.3&#xA;&#x9;&#x9;c1.3,0.1,3.3-0.8,3.3,1.2C90.6,235.3,88.5,234.9,87.3,234.9z"/>
    <path class="st10" d="M172.5,232.5c0.1-0.7-0.1-1.3-0.9-1.4c-2.9-0.1-5.8-0.2-8.7-0.1c-1,0-0.9,1-1,1.7c-1.1,8,0.5,9.6,8.4,8.8&#xA;&#x9;&#x9;c0.9-0.1,1.9,0.1,2-1.1c0.1-1.5-1.1-1.3-2.1-1.4c-1.9-0.2-5.4,0.5-5.3-1c0.8-1.2,3.4-0.6,5.2-0.7c0.8-0.1,1.9,0.2,1.9-1.1&#xA;&#x9;&#x9;c0.1-1.4-1-1.2-1.8-1.2c-1.9-0.2-5.9,0.4-5.6-1c2.2-0.5,4.3-0.5,6.5-0.5C171.8,233.4,172.4,233.3,172.5,232.5z"/>
    <path class="st11" d="M120.8,238.8c1.9-4.7,0.1-8.4-5.1-8.5c-0.8,0-1.5,0-2.3,0c-4.2,0.1-5.1,1-5.2,5.1c-0.1,4.8,0.9,5.7,6.8,5.7&#xA;&#x9;&#x9;C117,240.8,119.7,241.4,120.8,238.8z M110.9,235.5c0-3.6,2.3-2.8,4.3-2.9c2.1-0.1,3.8-0.3,3.8,3c0,3.4-1.7,3.3-4.2,3.1&#xA;&#x9;&#x9;C112.6,238.9,110.9,238.8,110.9,235.5z"/>
    <path class="st12" d="M54.6,237.4c0.2,1-0.7,2.5,1,2.8c1.7,0.3,1.7-1,1.7-2.2c0-1.2,0.7-1.4,1.7-1.4c1.4,0,2.8,0,4.2-0.1&#xA;&#x9;&#x9;c2.2-0.1,3.1-1.3,3.2-3.4c0.1-2.2-1.2-3.2-3.2-3.4c-1.8-0.1-3.5,0.1-5.3-0.1c-2.6-0.3-3.7,0.6-3.4,3.3c0.1,0.7,0,1.5,0,2.3&#xA;&#x9;&#x9; M57.6,233.1c0.2-1.8,2-0.9,3.1-0.9c1.1,0,2.9-0.7,2.9,1.3c0,1.4-2,0.8-3.1,1C59.5,234.1,57.4,234.9,57.6,233.1z"/>
    <path class="st13" d="M190.7,233.6c2-0.2,4.1-0.7,5.9,0.4c0.7,0.4,0.6,2,2.1,1.6c0.8-0.2,0.8-0.9,0.7-1.5c-0.1-1.5-1-2.4-2.2-2.7&#xA;&#x9;&#x9;c-2.5-0.5-5-0.4-7.5-0.1c-1.2,0.2-1.9,1.1-2.3,2.3c-1.8,5.3,0.3,8.3,6.8,8.3c0.4,0,1.8,0,3.1-0.3c1.3-0.3,2.1-1.4,2.1-2.8&#xA;&#x9;&#x9;c0-0.4-0.2-1.1-0.5-1.3c-1.5-0.7-1.6,0.9-2.3,1.5c-1.7,1.2-3.9,0.8-5.8,0.4c-1.8-0.4-1-2.3-1.1-3.6&#xA;&#x9;&#x9;C189.6,234.9,189.6,233.7,190.7,233.6z"/>
    <path class="st14" d="M221.7,231.4c-0.5-0.1-1,0-1.5,0c0,0,0,0,0-0.1c-1.3,0-2.5,0-3.8,0c-0.8,0-1.9-0.2-2,1.1&#xA;&#x9;&#x9;c-0.1,1.5,0.9,1.7,2,1.5c2.4-0.3,2.7,1.1,2.5,3c-0.1,1.1,0,2.3,0,3.4c0,1,0.1,1.8,1.4,1.7c1-0.1,1.2-0.8,1.2-1.6&#xA;&#x9;&#x9;c0.1-1.5,0.1-3,0.2-4.5c0-0.7,0-1.5,1-1.7c1.2-0.3,3.8,0.9,3.3-1.6C225.6,230.4,223.2,231.7,221.7,231.4z"/>
    <path class="st15" d="M145.2,230.6c-1.6-0.1-1.3,1.1-1.4,2.1c-0.1,1.3,0,2.5-0.1,3.8c0,0.9,0.1,1.9-1.1,2.1&#xA;&#x9;&#x9;c-1.1,0.1-2.7,0.6-3.2-0.3c-0.6-1.2-0.9-2.5-2.5-1.7c-0.8,0.3-0.5,1.3-0.4,2.1c0.3,1.6,1.2,2.3,2.9,2.5c5.6,0.7,6.8-0.2,6.9-5.8&#xA;&#x9;&#x9;c0-0.9,0-1.8,0-2.6C146.2,231.8,146.5,230.7,145.2,230.6z"/>
    <path class="st3" d="M96.8,132c29.4,2.3,58.1,2.4,87.3-0.1c-13.3-20.6-27.8-39.6-43.6-58C124.7,92.3,110.2,111.3,96.8,132z&#xA;&#x9;&#x9; M143.2,96.3c6.6,7.4,12.7,15.3,18.7,23.3c1.6,2.2,1.6,3.2-1.5,3.4c-6.7,0.4-13.3,0.7-20,0.8c-6.5-0.3-13.1-0.7-19.6-0.9&#xA;&#x9;&#x9;c-2.9-0.1-3.3-1.1-1.6-3.3c5.9-8,12-15.8,18.6-23.3C139.6,94,141.1,94,143.2,96.3z"/>
    <path class="st16" d="M116.3,262.5c-3.1-0.1-4.9,1.8-4.9,5.8c-0.1,5.4,0,10.8,0,16.3s0,10.8,0,16.3c0,3.1,1.1,5.5,4.8,5.5&#xA;&#x9;&#x9;c3.7,0.1,4.9-2.3,4.9-5.4c0.1-11,0.1-21.9,0-32.9C121.1,265,119.8,262.6,116.3,262.5z"/>
    <path class="st17" d="M119,235.6c0-3.2-1.7-3-3.8-3c-2,0.1-4.3-0.7-4.3,2.9c0,3.3,1.7,3.4,4,3.2C117.3,238.5,119,238.9,119,235.6z"/>
    <path class="st18" d="M137.6,96.3c-6.6,7.4-12.7,15.3-18.6,23.3c-1.7,2.3-1.3,3.3,1.6,3.3c6.5,0.2,13.1,0.6,19.6,0.9&#xA;&#x9;&#x9;c6.7-0.2,13.4-0.4,20-0.8c3.1-0.2,3.1-1.2,1.5-3.4c-5.9-8-12-15.9-18.7-23.3C141.1,94,139.6,94,137.6,96.3z"/>
  </g>
</svg>