<svg xmlns="http://www.w3.org/2000/svg" role="img" viewBox="-8.25 53.00 416.00 138.75"><path fill="none" d="M0 0h400v245H0z" pointer-events="none"/><path fill="#ee985d" d="M391.892 77.205c4.383.074 8.095-3.556 8.105-7.94.119-4.378-3.468-8.106-7.962-8.161-4.407-.054-8.015 3.52-8.115 7.855-.102 4.45 3.425 8.17 7.972 8.246z" class="st0"/><path fill="#522768" d="M240.496 83.471c-3.583 0-6.516 2.932-6.516 6.516v34.02c0 10.466-8.484 18.95-18.95 18.95-10.465 0-18.95-8.484-18.95-18.95v-34.02c0-3.584-2.931-6.516-6.515-6.516-3.584 0-6.516 2.932-6.516 6.516v34.02c0 17.664 14.319 31.983 31.982 31.983 17.663 0 31.981-14.32 31.981-31.982v-34.02c0-3.585-2.932-6.517-6.516-6.517zm-76.691-21.998c-3.584 0-6.516 2.932-6.516 6.516v81.538c0 3.584 2.932 6.516 6.516 6.516s6.516-2.932 6.516-6.516V67.989c0-3.584-2.932-6.516-6.516-6.516zm228.157 21.998c-3.584 0-6.516 2.932-6.516 6.516v59.486c0 3.584 2.932 6.517 6.516 6.517s6.516-2.933 6.516-6.517V89.987c0-3.584-2.932-6.516-6.516-6.516zm-253.917 0c-3.584 0-6.516 2.932-6.516 6.516v34.02c0 10.466-8.484 18.95-18.95 18.95s-18.95-8.484-18.95-18.95v-34.02c0-3.584-2.932-6.516-6.516-6.516s-6.516 2.932-6.516 6.516v34.02c0 17.664 14.319 31.983 31.982 31.983 17.663 0 31.982-14.32 31.982-31.982v-34.02c0-3.585-2.932-6.517-6.516-6.517zm202.682 0c-10.407 0-19.625 4.994-25.465 12.691-5.84-7.697-15.059-12.69-25.466-12.69-17.663 0-31.982 14.318-31.982 31.981v34.02c0 3.584 2.932 6.517 6.516 6.517s6.516-2.933 6.516-6.516v-34.02c0-10.467 8.484-18.95 18.95-18.95 10.465 0 18.95 8.483 18.95 18.95v34.02c0 1.791.733 3.42 1.914 4.601s2.81 1.915 4.601 1.915a6.479 6.479 0 0 0 4.602-1.915 6.496 6.496 0 0 0 1.915-4.601v-34.02c0-10.467 8.484-18.95 18.95-18.95 10.465 0 18.95 8.483 18.95 18.95v34.02c0 3.583 2.931 6.516 6.515 6.516 3.584 0 6.516-2.933 6.516-6.516v-34.02c0-17.664-14.319-31.983-31.982-31.983zm-304.467 0C16.233 83.471 0 99.705 0 119.731v57.65c0 3.584 2.932 6.516 6.516 6.516s6.516-2.932 6.516-6.516v-57.65c0-12.829 10.4-23.228 23.227-23.228s23.227 10.4 23.227 23.227c0 12.828-10.399 23.227-23.227 23.227a6.516 6.516 0 1 0 0 13.033c20.026 0 36.26-16.234 36.26-36.26 0-20.025-16.234-36.259-36.26-36.259z" class="st1"/><path fill="#ee985d" d="M135.641 76.19c0-.03-.008-.057-.009-.087a3.003 3.003 0 0 0-.04-.396c-.249-2.865-2.626-5.121-5.555-5.121-.902 0-1.741.232-2.496.61-1.338-5.778-6.494-10.092-12.68-10.092-5.43 0-10.08 3.319-12.044 8.037a8.582 8.582 0 0 0-4.669-1.378 8.632 8.632 0 0 0-8.631 8.631c0 2.49 1.943 2.77 5.126 2.77h38.055c1.85 0 2.936-1.48 2.934-2.974a.18.18 0 0 1 .01 0z" class="st0"/></svg>