<svg xmlns="http://www.w3.org/2000/svg" role="img" viewBox="-54.30 -54.30 2026.10 2823.60"><title>Pure Storage (member) logo</title><g id="g10" transform="matrix(1.33333 0 0 -1.33333 0 2717.373)"><g id="g12" transform="scale(.1)"><g id="g14" transform="scale(1.25031)"><path id="path16" fill="#f0401e" fill-opacity="1" fill-rule="nonzero" stroke="none" d="M 5778.54,6576.47 H 3391.26 c -492.78,0 -952.11,265.13 -1198.4,691.43 L 184.355,10746.3 c -245.7712,426.9 -245.7712,956.9 -0.213,1383.3 l 2008.718,3478.6 c 246.08,427 705.4,692 1198.4,692 H 7407.8 c 492.57,0 951.67,-265 1198.25,-692 l 2008.35,-3478.3 c 246.1,-426.4 246.1,-956.7 0,-1383.6 L 10095,9918.43 C 9853.18,9499.3 9393.85,9234.42 8900.86,9234.42 H 6510.32 L 7817.27,11440 6608.39,13532.7 H 4190.04 l -1209.4,-2094.3 2797.9,-4861.93"/></g><path id="path18" fill="#201f1e" fill-opacity="1" fill-rule="nonzero" stroke="none" d="m 2690.44,4841.7 c 294.3,0 481.71,89.1 481.71,397.2 0,303.1 -160.66,387.8 -441.71,387.8 h -213.9 v -785 z M 2516.54,3263 H 1749.38 V 6229.1 H 2837.6 c 700.27,0 1123.8,-325.8 1123.8,-941.4 0,-691.2 -503.79,-1039 -1217.44,-1039 H 2516.54 V 3263"/><path id="path20" fill="#201f1e" fill-opacity="1" fill-rule="nonzero" stroke="none" d="M 5178.19,6229.1 V 4288.7 c 0,-338.9 173.9,-441.5 419.23,-441.5 231.96,0 396.9,138.4 396.9,419.2 v 1962.7 h 767.17 v -2052 c 0,-601.9 -481.57,-967.6 -1181.87,-967.6 -771.57,0 -1168.47,311.9 -1168.47,1034.8 v 1984.8 h 767.04"/><path id="path22" fill="#201f1e" fill-opacity="1" fill-rule="nonzero" stroke="none" d="m 10040,6229.1 h 1940.3 V 5560 H 10807 v -450.7 h 1007.8 V 4440.4 H 10807 v -508.6 h 1204.2 V 3263 H 10040 v 2966.1"/><path id="path24" fill="#201f1e" fill-opacity="1" fill-rule="nonzero" stroke="none" d="m 8064.58,4843.6 v 784.9 h 214.29 c 280.79,0 441.32,-84.7 441.32,-388 0,-307.6 -187.28,-396.9 -481.58,-396.9 z m 1187.57,-639.5 c -44.42,106.2 -115.06,190.4 -194.55,230.6 281.57,169.1 451.96,453.8 451.96,854.9 0,615.6 -423.65,941.3 -1123.93,941.3 H 7297.4 V 3264.8 h 767.18 v 985.8 h 197.41 c 103.12,-7.3 168.83,-63.9 214.56,-168.4 l 360.26,-815 h 820.55 l -405.21,936.9"/><path id="path26" fill="#201f1e" fill-opacity="1" fill-rule="nonzero" stroke="none" d="m 261.434,440.301 c 108.367,-73.399 356.554,-199.199 632.671,-199.199 234.125,0 489.235,73.5 489.235,429.898 0,279.5 -244.65,370.3 -524.078,447.3 -335.645,90.8 -664.137,216.6 -664.137,646.5 0,388 300.57,643.2 737.363,643.2 314.562,0 590.602,-146.9 754.962,-311 l -153.9,-185.3 c -181.52,157.1 -384.41,258.6 -604.601,258.6 -195.594,0 -447.246,-84 -447.246,-377.5 0,-276.1 237.66,-356.5 538.227,-447.4 321.64,-101.2 649.99,-223.7 649.99,-663.9 C 1669.92,244.602 1376.41,0 887.18,0 551.543,0 240.656,136.301 146.211,213.102 l 115.223,227.199"/><path id="path28" fill="#201f1e" fill-opacity="1" fill-rule="nonzero" stroke="none" d="M 3627.23,2366 V 2128.3 H 2921.34 V 41.9023 H 2645.23 V 2128.3 H 1953.1 V 2366 h 1674.13"/><path id="path30" fill="#201f1e" fill-opacity="1" fill-rule="nonzero" stroke="none" d="m 4767.93,234.102 c 506.78,0 664.21,478.898 664.21,954.098 0,412.4 -136.37,982.1 -667.74,982.1 -510.09,0 -698.98,-485.7 -698.98,-961.2 0,-461.198 125.83,-974.998 702.51,-974.998 z M 4739.94,0 c -597.54,0 -957.55,401.801 -957.55,1198.8 0,898.2 517.16,1209.2 992.62,1209.2 503.23,0 940.09,-318.1 940.09,-1209.2 C 5715.1,398.402 5337.7,0 4739.94,0"/><path id="path32" fill="#201f1e" fill-opacity="1" fill-rule="nonzero" stroke="none" d="m 8557.05,982.004 h 782.81 C 8944.99,2117.7 8944.99,2117.7 8944.99,2117.7 Z M 7969.83,41.9023 8787.71,2366 H 9116.2 L 9951.46,41.9023 H 9661.35 L 9406.31,758.402 H 8490.6 L 8242.47,41.9023 h -272.64"/><path id="path34" fill="#201f1e" fill-opacity="1" fill-rule="nonzero" stroke="none" d="M 11818.2,213.102 C 11626,83.7031 11349.8,0 11045.9,0 c -611.5,0 -989.1,387.801 -989.1,1198.8 0,904.9 524.3,1209.2 989.1,1209.2 237.6,0 541.8,-73.5 779.3,-377.5 L 11626,1873.1 c -153.7,181.7 -335.5,297.2 -583.5,297.2 -440.4,0 -702.6,-359.9 -702.6,-947.1 0,-629.298 223.8,-996.098 730.5,-996.098 181.8,0 387.9,62.898 471.7,122.402 V 1041.3 h -527.7 v 237.8 h 803.8 V 213.102"/><path id="path36" fill="#201f1e" fill-opacity="1" fill-rule="nonzero" stroke="none" d="m 12291.1,2366 h 1300 v -237.7 h -1023.9 v -782.9 h 880.6 v -237.5 h -880.6 V 279.504 h 1048.4 V 41.9023 H 12291.1 V 2366"/><path id="path38" fill="#201f1e" fill-opacity="1" fill-rule="nonzero" stroke="none" d="M 6762.09,1121.9 H 6412.6 v 1016.9 h 304.11 c 394.87,0 674.45,-45.4 674.45,-506.7 0,-374 -258.59,-510.2 -629.07,-510.2 z M 7418.12,771 c -52.82,116.902 -86.57,176.004 -159.57,212.703 256.37,114.097 415.79,342.697 415.79,690.397 0,454.4 -293.65,691.9 -782.96,691.9 H 6136.56 V 41.9023 H 6412.6 V 898.203 h 398.48 c 28.36,0 56.14,0.899 83.54,2.699 l -3.98,-1.5 c 143.21,0 209.52,-93.601 268.9,-219.3 L 7455.32,42.6016 H 7748.9 L 7418.12,771"/><path id="path40" fill="#201f1e" fill-opacity="1" fill-rule="nonzero" stroke="none" d="m 14095,2139.5 c 42.7,0 80.5,4.2 80.5,54.5 0,41.8 -41.1,46.9 -75.4,46.9 h -68.7 v -101.4 z m -63.6,-196.9 h -57 v 346.8 h 131.5 c 83.8,0 126.5,-29.3 126.5,-99.6 0,-62.9 -38.5,-88.8 -90.4,-94.7 l 97.2,-152.5 h -64.5 l -89.7,148.3 h -53.6 z m 62,438.2 c -135.7,0 -241.3,-106.4 -241.3,-258.9 0,-142.4 92.1,-258.9 241.3,-258.9 134,0 239.6,105.6 239.6,258.9 0,152.5 -105.6,258.9 -239.6,258.9 z m 0,-572.2 c -180.1,0 -308.3,134.9 -308.3,313.3 0,188.5 142.4,313.3 308.3,313.3 164.2,0 306.6,-124.8 306.6,-313.3 0,-188.5 -142.4,-313.3 -306.6,-313.3"/></g></g></svg>