<svg xmlns="http://www.w3.org/2000/svg" role="img" viewBox="108.35 -4.90 183.04 254.54"><style>svg {enable-background:new 0 0 1400 980}</style><defs><clipPath id="a"><path d="M297 782.84l2574-.043.01 398.159-2574 .044z"/></clipPath></defs><path fill="none" d="M0 0h400v245H0z" pointer-events="none"/><g fill-rule="evenodd" clip-path="url(#a)" transform="matrix(.29101 0 0 -.29101 113.383 245)"><path fill="#231f20" d="M516.05 307.587c0 9.596 0 7.68-9.603 7.68h-29.77c-9.123 0-7.686 1.429-9.123-7.68-1.922-12.492 2.88-8.65 15.844-7.687 1.443-13.922 1.443-28.815 0-45.135-.956-16.328-3.843-33.614 9.12-32.168 13.929 1.918 7.68 9.12 7.68 23.525V299.9c11.047 0 15.853-3.848 15.853 7.687m-102.271-60.99c-.482 17.285-.482 35.53 0 53.783.48 11.529 3.842 14.887-8.168 14.887-13.922 0-8.642-8.65-8.642-21.127v-32.375s-18.064 39.586-18.064 51.1c0 4.318-4.805 2.402-8.167 2.402-11.996 0-9.598-2.89-8.636-14.405 1.434-20.646.959-41.78.478-62.425-.478-12.487-3.838-14.405 9.12-14.405 11.529 0 7.205 5.762 7.205 16.328v24.227s14.436-32.06 16.716-35.781c2.279-3.721-1.057-4.774 9.99-4.774 13.925 0 9.12 10.086 8.168 22.565m-124.368 5.767h-12.483l4.325 23.047c.476 3.354 1.438 6.717 1.918 10.08.482-3.363.959-6.726 1.442-10.08 1.92-7.687 3.357-15.373 4.798-23.047m18.25-10.086c-4.325 19.692-9.124 39.85-13.923 59.54-2.88 11.515-.484 13.449-12.485 13.449-8.16 0-6.25-3.358-8.16-11.532-1.93-6.716-8.648-35.041-12.977-54.738-3.361-15.842-5.271-24.965.48-24.965 11.05-.955 11.53-2.881 12.015 7.205 0 2.4.953 4.799 1.438 7.2h18.238c.486-2.401.967-4.8 1.45-7.2 1.913-8.64 1.439-7.205 10.08-7.205 13.922 0 6.72 6.73 3.844 18.246m-126.126-1.486s-.963 41.336 0 67.275c.48 9.116 0 7.2-9.123 7.2-9.124 0-6.721-12.492-6.721-23.528 0-20.172-.96-40.818-.96-60.976 0-7.205-.961-6.731 6.24-6.731 4.196 0 39.387-1.213 41.87.084 2.483 1.303 3.349 12.254 2.13 15.584-1.212 3.328-33.436 1.092-33.436 1.092m-90.161 63.002c0 .34 33.41.674 33.548 1.014 2.566 6.447 1.354 13.34-5.492 13.34H81.286c-8.161 0-6.701-.584-6.721-7.688-.02-7.096-.266-74.937-.481-78.742-.215-3.817-1.922-7.686 4.327-7.686h6.243c8.154 0 6.236 0 6.236 7.686.75 0 1.33 31.63 1.33 31.63s19.383-.466 20.016.835c.63 1.3 5.295 14.12-6.663 14.582-11.96.476-13.34 1.047-13.34 1.047s-.304 23.982-.858 23.982"/><path fill="#38585f" d="M429.59 508.773c-2.842-14.666-5.202-24.598-11.35-36.422-7.094-13.25-12.772-28.383-25.546-17.502-9.457 7.564-17.977 15.134-24.598 24.59-7.096 9.939-14.192 22.238-19.39 31.695-8.045 14.192-5.677 16.085-20.337 19.87l-13.723 3.786c1.417 5.678 1.892 12.298 1.892 19.394v3.786l27.908 5.197s59.129-35.473 78.049-33.581c15.136.95 9.464-7.57 7.096-20.813"/><path fill="#8ed8f8" d="M423.913 659.667c8.52-17.501 26.022-110.692-4.729-115.415-6.62-1.424-16.559-1.424-28.85 1.412-7.098 1.899-15.617 7.096-24.125 12.775-14.192 8.988-18.927 12.298-35.48 11.349l-15.14-1.412c-.469 4.254-1.412 7.564-2.363 11.351 49.671 28.376 50.616 39.257 84.203 80.883 9.931 12.306 20.338 12.306 26.484-.943"/><path fill="#2b7e87" d="M346.808 697.982c17.034-2.841 29.809-6.152 39.74-9.937 15.135-7.564 13.24-7.564 4.26-19.39-8.046-10.881-15.143-21.287-21.287-33.111-8.047-14.192-7.571-20.345-22.238-27.91l-37.841-18.92c-2.836 5.205-6.146 8.983-9.456 10.882 16.552.943 29.795 8.039 29.795 26.485 0 12.774-7.096 27.908-16.554 38.315 2.362 12.774 8.046 23.18 14.19 29.333 6.149 6.147 11.359 5.196 19.39 4.253"/><path fill="#0095da" d="M277.273 700.35h29.808c15.135 0 16.077 2.836 9.931-10.88-2.836-6.622-5.678-13.718-8.519-20.34-4.255 3.786-8.984 6.622-13.719 8.04-5.196-1.892-10.405-5.203-15.128-9.464-2.842 7.096-5.684 14.192-8.995 20.813-5.197 12.307-7.565 11.357 6.622 11.83"/><path fill="#474396" d="M194.97 689.943c12.769 5.672 26.017 3.786 48.248 8.514 16.553 3.78 29.333-19.395 32.169-35.479-8.99-10.408-15.141-24.599-15.141-36.898 0-17.502 11.356-24.598 26.965-26.485-3.31-1.899-6.621-5.677-9.464-10.406l-39.732 19.863c-8.988 4.735-9.464 5.203-13.717 14.667-7.565 17.027-17.027 31.22-28.853 46.83-5.677 7.563-9.93 14.185-.474 19.394"/><path fill="#8ed8f8" d="M167.062 662.978c4.261 8.988 12.767 7.096 20.338-2.368 18.452-22.699 30.276-52.507 57.71-64.325 9.464-3.786 19.396-10.881 28.852-16.084-.943-3.786-1.887-7.571-2.836-11.825l-42.1.943c-17.027-7.564-18.914-17.97-31.694-21.287-13.242-2.836-23.649-4.254-29.796-2.368-26.49 8.996-11.83 98.868-.474 117.314"/><path fill="#356b5f" d="M174.632 469.509c-6.62 14.666-12.299 30.744-15.14 49.196-1.419 8.989-2.362 15.61 7.57 14.667 19.394-1.424 64.332 28.852 64.332 28.852l38.79-4.254v-3.786c0-7.095.942-13.716 1.891-19.87l-12.305-3.31c-21.28-5.203-27.903-38.315-40.2-55.817-6.147-8.99-14.192-17.027-24.126-18.921-15.616-3.785-14.19 0-20.812 13.243"/><path fill="#74418a" d="M297.143 401.866c21.756 10.412 40.683 44.468 40.683 72.377 0 25.067-14.667 35.005-34.055 37.366 3.31 3.311 6.146 7.571 8.039 13.242l26.966-7.095s19.388-49.19 46.822-75.207c13.248-12.773-3.31-18.92-11.35-29.328-16.084-20.343-39.733-31.693-58.66-37.845-17.502-6.147-18.914-13.242-18.445 4.734z"/><path fill="#1b607e" d="M284.37 369.704c-16.553 6.146-49.667 22.23-78.043 53.45-16.56 17.503-7.57 13.718 5.196 29.327 13.718 16.552 25.073 37.84 31.22 51.557 6.152 13.25 3.786 13.25 17.027 16.56l15.142 4.253c2.361-5.67 5.202-10.406 8.514-13.717-18.447-2.836-31.688-12.767-31.688-36.89 0-26.967 17.503-59.13 38.316-70.96.943-10.88-1.425-23.174-5.685-33.58"/></g><path fill="#f0401e" d="M200.3 146.152h-35.882c-7.407 0-14.31-3.985-18.012-10.392l-30.19-52.282c-3.693-6.417-3.693-14.383-.002-20.792l30.192-52.285C150.104 3.983 157.008 0 164.418 0h60.37A20.855 20.855 0 0 1 242.8 10.401l30.186 52.28c3.7 6.41 3.7 14.38 0 20.797L265.18 95.92c-3.635 6.3-10.539 10.281-17.949 10.281H211.3l19.643-33.15-18.17-31.455h-36.349l-18.178 31.478 42.054 73.077"/><path fill="#201f1e" d="M145.789 186.796c3.538 0 5.79-1.071 5.79-4.775 0-3.644-1.93-4.662-5.31-4.662h-2.57v9.437zm-2.09 18.978h-9.223v-35.657h13.082c8.418 0 13.51 3.917 13.51 11.317 0 8.31-6.057 12.49-14.636 12.49h-2.734v11.85m31.997-35.657v23.327c0 4.074 2.09 5.307 5.04 5.307 2.788 0 4.771-1.664 4.771-5.04v-23.594h9.222v24.668c0 7.236-5.789 11.632-14.207 11.632-9.276 0-14.047-3.75-14.047-12.44v-23.86h9.221m58.445 0h23.326v8.044H243.36v5.418h12.115v8.041H243.36v6.114h14.476v8.04H234.14v-35.657m-23.747 16.656v-9.436h2.577c3.375 0 5.305 1.019 5.305 4.665 0 3.698-2.252 4.771-5.79 4.771zm14.277 7.688c-.534-1.277-1.383-2.29-2.339-2.772 3.385-2.033 5.433-5.456 5.433-10.277 0-7.4-5.093-11.316-13.511-11.316H201.17v35.656h9.222v-11.85h2.374c1.24.088 2.03.768 2.579 2.024l4.33 9.798h9.865l-4.871-11.263m-108.08 45.246c1.302.882 4.286 2.395 7.605 2.395 2.815 0 5.882-.884 5.882-5.168 0-3.36-2.942-4.452-6.3-5.378-4.036-1.091-7.985-2.603-7.985-7.771 0-4.665 3.614-7.733 8.865-7.733 3.781 0 7.1 1.766 9.075 3.74l-1.85 2.227c-2.182-1.889-4.62-3.11-7.268-3.11-2.351 0-5.376 1.01-5.376 4.539 0 3.32 2.857 4.286 6.47 5.378 3.866 1.217 7.814 2.69 7.814 7.981 0 5.253-3.529 8.193-9.41 8.193-4.035 0-7.772-1.639-8.908-2.562l1.386-2.731m40.461-23.15v2.858h-8.486v25.081h-3.319v-25.081h-8.32v-2.858h20.125m13.713 25.629c6.092 0 7.985-5.757 7.985-11.47 0-4.957-1.64-11.806-8.027-11.806-6.132 0-8.403 5.839-8.403 11.555 0 5.544 1.513 11.72 8.445 11.72zm-.336 2.814c-7.184 0-11.512-4.83-11.512-14.411 0-10.798 6.217-14.537 11.933-14.537 6.05 0 11.301 3.824 11.301 14.537 0 9.622-4.536 14.411-11.722 14.411m45.887-11.805h9.41l-4.747-13.653zm-7.06 11.301l9.833-27.939h3.948l10.041 27.94h-3.487l-3.066-8.614h-11.008l-2.983 8.613h-3.278m46.263-2.058c-2.31 1.556-5.63 2.562-9.284 2.562-7.351 0-11.89-4.662-11.89-14.411 0-10.878 6.303-14.537 11.89-14.537 2.856 0 6.513.884 9.368 4.539l-2.394 1.892c-1.848-2.185-4.033-3.573-7.015-3.573-5.294 0-8.446 4.326-8.446 11.385 0 7.565 2.69 11.975 8.782 11.975 2.185 0 4.663-.756 5.67-1.472v-8.316h-6.344v-2.859h9.663v12.815m5.685-25.881h15.628v2.858h-12.309v9.411h10.586v2.855h-10.586v9.959h12.604v2.856h-15.923v-27.939m-66.466 14.956h-4.202V219.29h3.656c4.747 0 8.108.545 8.108 6.09 0 4.497-3.109 6.134-7.562 6.134zm7.886 4.218c-.635-1.405-1.04-2.115-1.918-2.556 3.082-1.372 4.998-4.12 4.998-8.3 0-5.463-3.53-8.318-9.412-8.318h-9.074v27.94h3.318v-10.295h4.79c.342 0 .676-.01 1.005-.032l-.048.018c1.722 0 2.519 1.125 3.233 2.636l3.555 7.664h3.53l-3.977-8.757m80.266-16.451c.513 0 .967-.05.967-.655 0-.502-.494-.564-.906-.564h-.826v1.22zm-.765 2.367h-.685v-4.169h1.58c1.008 0 1.521.352 1.521 1.198 0 .756-.462 1.067-1.086 1.138l1.168 1.833h-.775l-1.079-1.783h-.644zm.745-5.268c-1.63 0-2.9 1.28-2.9 3.113 0 1.712 1.107 3.112 2.9 3.112 1.611 0 2.88-1.27 2.88-3.112 0-1.834-1.269-3.113-2.88-3.113zm0 6.88c-2.165 0-3.706-1.623-3.706-3.767 0-2.266 1.712-3.767 3.706-3.767 1.974 0 3.686 1.5 3.686 3.767 0 2.266-1.712 3.766-3.686 3.766"/></svg>