<svg viewBox="-4.699999999999989 -1 208 41.6" xmlns="http://www.w3.org/2000/svg"><path d="m102.7 12.2c-1.3-1-1.8 3.9-4.4 3.9-3 0-4-13-6.3-13-.7 0-.8-.4-7.9 21.3-2.9 9 4.4 15.8 11.8 15.8 4.6 0 12.3-3 12.3-12.6 0-7.1-3.5-13.9-5.5-15.4zm-6.9 23.1c-3.7 0-6.7-3.1-6.7-7s3-7 6.7-7 6.7 3.1 6.7 7c0 3.8-3 7-6.7 7z" fill="#f05732"/><path d="m99.8 0c-.5 0-1.8 2.5-1.8 3.6 0 1.5 1 2 1.8 2s1.8-.5 1.8-2c-.1-1.1-1.4-3.6-1.8-3.6z" fill="#9e529f"/><path d="m0 39.5v-24.6h11.5c5.3 0 8.3 3.6 8.3 7.9s-3 7.9-8.3 7.9h-6.3v8.8zm14.4-16.7c0-2.1-1.6-3.3-3.7-3.3h-5.5v6.6h5.5c2.1 0 3.7-1.3 3.7-3.3zm20.8 16.7v-10.1l-9.4-14.5h6l6.1 9.8 6.1-9.8h5.9l-9.4 14.5v10.1zm28.1 0v-20h-7.2v-4.6h19.6v4.6h-7.2v20zm68.1 0-4.8-8.7h-3.8v8.7h-5.2v-24.6h11.4c5.1 0 8.3 3.4 8.3 7.9 0 4.3-2.8 6.7-5.4 7.3l5.6 9.4zm.5-16.7c0-2-1.6-3.3-3.7-3.3h-5.5v6.6h5.5c2.1 0 3.7-1.2 3.7-3.3zm13.7 4.4c0-7.6 5.7-12.7 13.1-12.7 5.4 0 8.5 2.9 10.3 6l-4.5 2.2c-1-2-3.2-3.6-5.8-3.6-4.5 0-7.7 3.4-7.7 8.1 0 4.6 3.2 8.1 7.7 8.1 2.5 0 4.7-1.6 5.8-3.6l4.5 2.2c-1.7 3.1-4.9 6-10.3 6-7.4 0-13.1-5.2-13.1-12.7zm48.9 12.3v-10.4h-11.6v10.4h-5.2v-24.6h5.2v9.7h11.6v-9.7h5.3v24.6z" fill="#333"/></svg>