<svg xmlns="http://www.w3.org/2000/svg" role="img" viewBox="-170.00 -170.00 8840.00 4800.00"><title>Qleet (member) logo</title><style>svg {fill-rule:evenodd;clip-rule:evenodd;stroke-linejoin:round;stroke-miterlimit:2}</style><path fill="url(#_Linear1)" d="M429.214 930.978s.447-.896 1.261-2.513c6.313-12.544 34.686-68.526 47.627-87.285 23.809-34.511 63.698-57.158 108.852-57.158 68.718 0 125.452 52.647 131.658 119.547-18.847.455-45.444.207-45.517.008-5.797-42.505-42.592-75.507-86.76-75.507-28.242 0-53.369 13.41-69.335 34.192-9.843 12.813-39.691 70.992-47.132 85.598-1.085 2.131-1.694 3.334-1.694 3.334l-38.96-20.216z" transform="matrix(-9.76944 0 0 -9.76945 8763.514 10230.906)"/><path fill="url(#_Linear2)" d="M477.056 840.673l-22.23 38.59-72.853-38.539c-13.141-7.906-28.534-12.455-44.983-12.455-48.193 0-87.32 39.05-87.32 87.149 0 48.1 39.127 87.152 87.32 87.152 28.241 0 52.95-13.294 68.915-34.076l-.067-.036 39.384 21c-23.809 34.512-63.698 57.162-108.851 57.162-72.862 0-132.017-58.973-132.017-131.607S263.509 783.41 336.371 783.41c28.374 0 56.264 13.095 84.865 27.701 27.188 13.884 55.82 29.562 55.82 29.562z" transform="matrix(-9.76944 0 0 -9.76945 8753.94 10224.927)"/><path fill="url(#_Linear3)" d="M406.324 968.376c-82.861-47.922-129.216-41.116-239.302-41.114v-44.484l89.991.006c67.086-.287 126.725 21.601 171.586 47.546-7.306 13.647-14.65 26.537-22.275 38.046z" transform="matrix(9.76944 0 0 9.76945 -256.861 -7653.427)"/><path fill="url(#_Linear4)" d="M353.413 389.855c-66.998.237-127.169-22.278-171.981-48.195l-38.96-20.22-73.177-38.716c-13.141-7.906-28.534-12.455-44.984-12.455-36.633 0-68.028 22.564-80.981 54.515h-47.659c14.434-57.075 66.312-99.374 128.021-99.374 28.375 0 56.265 13.095 84.866 27.701 27.188 13.884 95.276 50.457 95.276 50.457 57.581 33.302 97.769 40.51 153.873 41.808.525.012 1.052.024 1.58.035.472 3.666.715 7.403.715 11.197 0 11.77-2.343 22.999-6.589 33.247z" transform="matrix(9.76944 0 0 9.76945 2797.827 -2202.072)"/><path fill="url(#_Linear5)" d="M404.823 345.547l38.801-.171v44.484l-42.458-.003c2.96-12.31 5.074-28.896 3.657-44.31z" transform="matrix(9.76944 0 0 9.76945 2797.827 -2202.072)"/><g filter="url(#_Effect6)" transform="matrix(5.7792 -7.87674 -7.87673 -5.7792 7933.698 4569.263)"><path fill="url(#_Linear7)" d="M131.813 333.891c3.494-5.269 7.782-11.532 10.764-15.583 14.254 3.768 27.544 10.295 39.214 21.462-.459.828-8.129 11.972-11.289 16.873l-38.689-22.752z"/></g><g filter="url(#_Effect8)" transform="scale(9.76944 -9.76945) rotate(-32.971 -533.337 38.826)"><path fill="url(#_Linear9)" d="M136.458 335.552c.993-5.615 3.719-18.748 5.6-23.342 17.708 11.305 20.716 13.625 39.982 25.943-.458.828-2.081 10.01-1.564 16.356l-44.018-18.957z"/></g><g filter="url(#_Effect10)" transform="scale(-9.76944 -9.76945) rotate(63.593 117.83 -593.005)"><path fill="url(#_Linear11)" d="M134.197 337.62l9.279-18.685c10.867 9.663 23.766 17.721 38.062 22.983l-7.815 15.739-39.526-20.037z"/></g><g filter="url(#_Effect12)" transform="scale(9.76944 9.76945) rotate(-29.704 -169.164 165.502)"><path fill="url(#_Linear13)" d="M136.438 338.612c1.923-6.985 4.308-13.594 7.133-19.845 17.53 10.094 22.837 13.318 39.487 22.526-.484.982-3.993 10.993-4.881 17.285l-41.739-19.966z"/></g><path fill="url(#_Linear14)" d="M401.166 389.857c2.711-10.5 4.152-21.506 4.152-32.844" transform="matrix(9.76944 0 0 9.76945 2797.807 -2202.072)"/><path fill="url(#_Linear15)" d="M405.318 357.013c0-3.863-.167-7.687-.495-11.466" transform="matrix(9.76944 0 0 9.76945 2797.807 -2202.072)"/><g><g filter="url(#_Effect16)" transform="matrix(9.76944 0 0 9.76945 2797.807 -2202.072)"><path fill="url(#_Linear17)" d="M134.381 337.251l8.091-15.807 38.96 20.216-8.091 15.807-38.96-20.216z"/></g></g><g><g filter="url(#_Effect18)" transform="matrix(.1792 -9.76782 9.7678 .1792 938.605 3342.428)"><path fill="url(#_Linear19)" d="M133.405 337.147l8.682-16.775c12.428 7.491 25.302 14.749 38.942 21.606l-7.901 15.624-39.723-20.455z"/></g></g><g><g filter="url(#_Effect20)" transform="matrix(-9.7515 -.59176 .59175 -9.75152 5979.615 4004.51)"><path fill="url(#_Linear21)" d="M132.335 335.493c3.799-3.993 6.884-7.791 9.386-11.746l40.558 18.618c-.459.827-7.445 11.203-10.05 14.378l-39.894-21.25z"/></g></g><g><g filter="url(#_Effect22)" transform="matrix(-1.06713 9.711 -9.71097 -1.06713 7212.215 390.17)"><path fill="url(#_Linear23)" d="M136.502 338.077c1.81-3.774 4.149-10.884 6.541-15.833l40.252 17.985c-.459.828-5.802 13.556-7.303 17.615l-39.49-19.767z"/></g></g><g><path fill="#233644" fill-rule="nonzero" d="M2071.9747 4412.58677v-1129.3222h227.82971v936.19732h806.4231v193.12488H2071.9747z"/><path fill="#233644" fill-rule="nonzero" d="M4064.16092 3739.09761h686.16276v182.29155h-686.16276v301.163h808.80157v190.0346H3836.31384V3283.26458h1016.50977v190.05196h-788.66269v265.78108z"/><path fill="#233644" fill-rule="nonzero" d="M5858.77783 3739.09761h686.07595v182.29155h-686.07595v301.163h808.71476v190.0346H5630.9481V3283.26458h1016.4924v190.05196h-788.66268v265.78108z"/><path fill="#233644" fill-rule="nonzero" d="M8506.76224 3477.89986h-465.7983v934.6869h-227.11792v-934.6869h-465.78095v-194.63529h1158.69717v194.6353z"/><path fill="#233644" fill-rule="nonzero" d="M835.37827 4223.74954c-50.7465 16.75346-106.99646 25.20832-168.76726 25.20832-82.93397 0-155.3124-14.4618-217.10055-43.3333-61.7708-28.80207-110.69438-73.69788-146.7013-134.77423-36.09372-60.95482-54.1319-135.27769-54.1319-222.795 0-66.0069 10.31249-124.65269 30.9722-176.1978 20.55554-51.44093 49.53121-93.5416 86.84022-126.23255 37.309-32.69095 81.21522-57.46524 131.77075-74.23607 50.434-16.63193 106.57979-25.05206 168.35058-25.05206 82.93398 0 155.2256 14.42707 216.9964 43.31594 61.87495 28.7847 110.9027 73.8194 147.20476 135.17352 36.30206 61.28469 54.46177 135.69436 54.46177 223.22903 0 65.86801-10.34722 124.63534-30.90276 176.07627-3.95833 9.9132-9.72222 17.77777-14.30555 26.97915L768.36442 3811.7012l-126.02423 143.00338 268.59358 234.91304c-23.36804 13.54166-48.31594 25.15623-75.5555 34.13192zm517.67328 103.10758l-129.6527-114.2534c23.2118-30.92012 43.26386-65.22566 60.01732-103.1423 33.68054-76.4062 50.53817-163.57628 50.53817-261.40608 0-97.88188-16.85763-185.01724-50.53817-261.54497-33.80206-76.38884-80.72911-138.76728-140.98949-186.9096-60.27774-48.14234-130.55547-84.54856-210.88528-109.28813-80.31245-24.67012-168.66309-37.10067-264.93039-37.10067-96.37146 0-184.60057 12.43055-264.91302 37.10067-80.32981 24.73957-150.6249 61.1458-210.88528 109.28812-60.27774 48.14233-107.10063 110.52077-140.5902 186.9096C16.73297 3663.0381-.0205 3750.17347-.0205 3848.05535c0 97.8298 16.75347 184.99988 50.24303 261.40608 33.48956 76.52773 80.31245 138.78463 140.59019 186.92696 60.26037 48.21178 130.55547 84.618 210.88528 109.27077 80.31245 24.77429 168.54156 37.11803 264.91302 37.11803 96.2673 0 184.61794-12.34374 264.93039-37.11803 54.54857-16.71874 102.74299-40.93748 148.02074-68.5069l149.84365 131.04158 123.64576-141.33671z"/></g><defs><linearGradient id="_Linear1" x1="0" x2="1" y1="0" y2="0" gradientTransform="rotate(-164.679 427.794 474.648) scale(576.322)" gradientUnits="userSpaceOnUse"><stop offset="0" stop-color="#40b5e8"/><stop offset="1" stop-color="#2ab99f"/></linearGradient><linearGradient id="_Linear2" x1="0" x2="1" y1="0" y2="0" gradientTransform="rotate(-164.679 427.267 474.409) scale(576.322)" gradientUnits="userSpaceOnUse"><stop offset="0" stop-color="#40b5e8"/><stop offset="1" stop-color="#2ab99f"/></linearGradient><linearGradient id="_Linear3" x1="0" x2="1" y1="0" y2="0" gradientTransform="rotate(15.321 -2814.727 1167.129) scale(576.322)" gradientUnits="userSpaceOnUse"><stop offset="0" stop-color="#40b5e8"/><stop offset="1" stop-color="#2ab99f"/></linearGradient><linearGradient id="_Linear4" x1="0" x2="1" y1="0" y2="0" gradientTransform="rotate(15.321 -896.705 -274.252) scale(576.322)" gradientUnits="userSpaceOnUse"><stop offset="0" stop-color="#40b5e8"/><stop offset="1" stop-color="#2ab99f"/></linearGradient><linearGradient id="_Linear5" x1="0" x2="1" y1="0" y2="0" gradientTransform="rotate(15.321 -896.705 -274.252) scale(576.322)" gradientUnits="userSpaceOnUse"><stop offset="0" stop-color="#40b5e8"/><stop offset="1" stop-color="#2ab99f"/></linearGradient><linearGradient id="_Linear7" x1="0" x2="1" y1="0" y2="0" gradientTransform="rotate(124.176 .904 205.804) scale(24.7357)" gradientUnits="userSpaceOnUse"><stop offset="0" stop-color="#434343" stop-opacity=".6"/><stop offset=".58" stop-color="#434343" stop-opacity=".19"/><stop offset="1" stop-color="#434343" stop-opacity="0"/></linearGradient><linearGradient id="_Linear9" x1="0" x2="1" y1="0" y2="0" gradientTransform="rotate(122.343 -2.412 207.581) scale(23.9156)" gradientUnits="userSpaceOnUse"><stop offset="0" stop-color="#434343" stop-opacity=".6"/><stop offset=".58" stop-color="#434343" stop-opacity=".19"/><stop offset="1" stop-color="#434343" stop-opacity="0"/></linearGradient><linearGradient id="_Linear11" x1="0" x2="1" y1="0" y2="0" gradientTransform="rotate(116.407 -19.818 214.752) scale(16.01582)" gradientUnits="userSpaceOnUse"><stop offset="0" stop-color="#434343" stop-opacity=".6"/><stop offset=".56" stop-color="#434343" stop-opacity=".18"/><stop offset="1" stop-color="#434343" stop-opacity="0"/></linearGradient><linearGradient id="_Linear13" x1="0" x2="1" y1="0" y2="0" gradientTransform="rotate(114.39 -22.025 216.406) scale(20.79741)" gradientUnits="userSpaceOnUse"><stop offset="0" stop-color="#434343" stop-opacity=".6"/><stop offset=".56" stop-color="#434343" stop-opacity=".18"/><stop offset="1" stop-color="#434343" stop-opacity="0"/></linearGradient><linearGradient id="_Linear14" x1="0" x2="1" y1="0" y2="0" gradientTransform="translate(-145.656 244) scale(589.28)" gradientUnits="userSpaceOnUse"><stop offset="0" stop-color="#3bb6e8"/><stop offset="1" stop-color="#2ab99f"/></linearGradient><linearGradient id="_Linear15" x1="0" x2="1" y1="0" y2="0" gradientTransform="translate(-145.656 244) scale(589.28)" gradientUnits="userSpaceOnUse"><stop offset="0" stop-color="#3bb6e8"/><stop offset="1" stop-color="#2ab99f"/></linearGradient><linearGradient id="_Linear17" x1="0" x2="1" y1="0" y2="0" gradientTransform="rotate(116.873 -18.507 214.517) scale(19.6905)" gradientUnits="userSpaceOnUse"><stop offset="0" stop-color="#434343" stop-opacity=".6"/><stop offset=".56" stop-color="#434343" stop-opacity=".18"/><stop offset="1" stop-color="#434343" stop-opacity="0"/></linearGradient><linearGradient id="_Linear19" x1="0" x2="1" y1="0" y2="0" gradientTransform="rotate(116.873 -18.507 214.517) scale(19.6905)" gradientUnits="userSpaceOnUse"><stop offset="0" stop-color="#434343" stop-opacity=".6"/><stop offset=".56" stop-color="#434343" stop-opacity=".18"/><stop offset="1" stop-color="#434343" stop-opacity="0"/></linearGradient><linearGradient id="_Linear21" x1="0" x2="1" y1="0" y2="0" gradientTransform="rotate(116.601 -19.057 214.738) scale(19.69629)" gradientUnits="userSpaceOnUse"><stop offset="0" stop-color="#434343" stop-opacity=".6"/><stop offset=".58" stop-color="#434343" stop-opacity=".19"/><stop offset="1" stop-color="#434343" stop-opacity="0"/></linearGradient><linearGradient id="_Linear23" x1="0" x2="1" y1="0" y2="0" gradientTransform="rotate(116.601 -19.057 214.738) scale(19.69629)" gradientUnits="userSpaceOnUse"><stop offset="0" stop-color="#434343" stop-opacity=".6"/><stop offset=".58" stop-color="#434343" stop-opacity=".19"/><stop offset="1" stop-color="#434343" stop-opacity="0"/></linearGradient><filter id="_Effect6" width="50.49" height="38.847" x="131.557" y="318.052" filterUnits="userSpaceOnUse"><feGaussianBlur in="SourceGraphic" stdDeviation=".043"/></filter><filter id="_Effect8" width="46.094" height="42.811" x="136.202" y="311.954" filterUnits="userSpaceOnUse"><feGaussianBlur in="SourceGraphic" stdDeviation=".043"/></filter><filter id="_Effect10" width="47.853" height="39.234" x="133.941" y="318.679" filterUnits="userSpaceOnUse"><feGaussianBlur in="SourceGraphic" stdDeviation=".043"/></filter><filter id="_Effect12" width="47.132" height="40.323" x="136.182" y="318.511" filterUnits="userSpaceOnUse"><feGaussianBlur in="SourceGraphic" stdDeviation=".043"/></filter><filter id="_Effect16" width="47.563" height="36.535" x="134.125" y="321.188" filterUnits="userSpaceOnUse"><feGaussianBlur in="SourceGraphic" stdDeviation=".043"/></filter><filter id="_Effect18" width="48.136" height="37.742" x="133.149" y="320.116" filterUnits="userSpaceOnUse"><feGaussianBlur in="SourceGraphic" stdDeviation=".043"/></filter><filter id="_Effect20" width="50.456" height="33.508" x="132.079" y="323.491" filterUnits="userSpaceOnUse"><feGaussianBlur in="SourceGraphic" stdDeviation=".043"/></filter><filter id="_Effect22" width="47.305" height="36.112" x="136.246" y="321.988" filterUnits="userSpaceOnUse"><feGaussianBlur in="SourceGraphic" stdDeviation=".043"/></filter></defs></svg>