<svg xmlns="http://www.w3.org/2000/svg" role="img" viewBox="23.82 32.82 425.36 224.86"><title>QualitySoft (member) logo</title><style>svg {isolation:isolate}</style><defs><clipPath id="_clipPath_Gr96HqigANWMl6JhjswdlVBu5FwmSBpv"><path d="M0 0h486.907v273.72H0z"/></clipPath></defs><g fill="#29458D" clip-path="url(#_clipPath_Gr96HqigANWMl6JhjswdlVBu5FwmSBpv)"><path d="M212.141 134.887c19.067 0 34.251-12.695 38.039-31.699h-80.225c6.172 19.004 23.125 31.699 42.186 31.699z"/><path d="M277.32 103.188c-.205 8.371-2.057 15.805-5.308 22.453-5.127 10.551-11.447 13.29-19.189 13.29 0 0 3.65-6.872 3.594-6.742 8.063 0 11.248-4.56 11.878-11.124.349-3.381.444-9.277-.552-17.877h-7.682c-3.842 13.973-13.994 24.619-27.432 30.724l19.807-1.545-3.887 6.564-39.565.053c-24.575 0-45.212-14.423-51.095-35.796h-6.348v40.857h133.234v-40.857h-7.455zM167.555 90.712c-1.582-25.072 15.804-45.391 38.852-45.391 23.037 0 42.998 20.319 44.592 45.391.265 4.332-.034 8.511-.819 12.476h9.881c1.102-3.987 1.694-8.165 1.694-12.476 0-27.411-23.63-49.649-52.771-49.649-29.153 0-52.765 22.238-52.765 49.649 0 4.311.576 8.489 1.67 12.476h12.066c-1.294-3.965-2.124-8.144-2.4-12.476zm108.814-.011c-2.665-14.933-7.022-23.209-6.586-30.008.425-6.585 3.041-11.74 10.308-10.478-.05.146 3.136-7.462 3.136-7.462-7.743 0-13.383 1.687-17.166 12.274-3.572 9.966-3.146 22.025-.326 35.674.929 4.53 1.576 8.72 2.008 12.487h9.577c.1-4.123-.205-8.307-.951-12.487M67.087 168.796c-8.169-.566-15.398 2.875-20.707 9.176-8.8 13.925-8.72 37.485 7.436 46.388 4.918 2.688 10.669 3.248 16.321 2.504 22.363-5.003 27.738-38.407 11.407-52.877-4.169-3.247-9.261-5.107-14.457-5.191m2.495 60.84c-14.665 1.036-29.122-4.175-35.339-18.359-5.002-14.277-1.209-34.796 14.001-41.659 2.89-1.388 5.765-2.498 8.636-3.425 15.779-2.306 32.284 1.859 39.705 16.717 7.045 14.824 1.116 34.585-13.167 42.373-2.231 1.22-4.556 2.325-6.975 3.059 0 0-2 .964-6.861 1.294zm69.078-1.477v-7.046c-5.652 7.605-15.407 11.04-23.746 5.568-3.432-2.509-5.285-6.118-5.285-10.302v-30.424h7.232v31.356c1.855 10.476 17.63 9.553 20.679.368.385-1.488.753-3.064.753-4.547v-27.177h7.247v42.204h-6.88zm28.301-20.03c-6.509 1.477-9.374 7.982-6.128 13.732 3.983 6.956 13.922 2.608 17.168-2.69.932-4.171.754-8.99.184-13.536l-11.224 2.494zm11.224 14.288c-5.938 6.217-17.901 9.652-24.128 1.666-4.273-6.484-.828-14.477 5.855-17.62l16.504-3.614 1.769-1.402c.927-6.674-1.769-12.707-9.012-13.634-3.51-.184-6.381.748-9.068 2.782 0 0-3.262 3.628-3.817 3.628v-.203c-.735-1.855-.735-3.425.372-4.914 3.991-3.242 9.172-4.723 14.489-4.723 6.852 0 13.526 4.357 13.903 11.972v23.002c-.56 2.673.927 6.024 4.179 5.658.372 0 .913-.198 1.28-.198v1.586c-4.716 2.231-11.22 2.048-12.326-3.986m17.871-61.236h7.436v66.972h-7.436v-66.972zm15.856 24.788h7.595v42.19h-7.595v-42.19zm4.273-11.61c-2.329.093-4.377-1.671-4.461-3.978-.085-2.329 1.665-4.282 3.971-4.376 2.344-.085 4.282 1.666 4.368 3.991.102 2.315-1.582 4.255-3.878 4.363zm32.854 53.428c-6.034 1.845-14.011 2.236-16.532-4.726l-.551-3.985-.179-30.079h-5.934v-3.068h6.113v-9.26l6.305-3.054v12.314h9.846v3.248h-9.846v28.134c0 2.692.566 5.365 2.599 7.605 2.692 1.587 5.205 1.111 8.255.743l-.076 2.128m17.917 20.628v1.2h-6.411l10.768-21.334-17.798-42.585h8.338l12.9 32.933h.739l12.801-32.933h5.652l-26.989 62.719zm102.404-60.358c-12.917-1.208-16.716 12.948-15.828 22.97.663 8.152 6.284 17.428 15.624 15.632 11.576-1.46 14.748-19.241 10.812-29.106-1.835-5.273-5.32-8.649-10.608-9.496zm-16.005 36.875c-2.347-2.188-4.616-4.847-5.862-7.7-5.46-12.451.804-27.949 14.215-31.385 3.247-.786 6.487-1.02 9.549-.692 16.172 2.004 23.126 21.746 14.5 34.4-5.665 11.87-23.024 12.12-32.402 5.377m87.721 2.984c-6.024 1.844-13.991 2.235-16.491-4.725l-.573-3.987-.179-29.313h-5.94v-3.069h6.119v-10.025l6.305-3.053v13.078h9.842v3.247h-9.842v27.371c0 2.692.556 5.365 2.612 7.605 2.679 1.585 5.191 1.111 8.26.743l-.113 2.128m-26.44-53.364c-6.024-1.846-13.996-2.232-16.48 4.733l-.588 3.982-.171 3.812h-5.948v3.064h6.119v38.585h6.315v-38.585h9.836V186.9h-9.836v-1.868c0-2.683.55-5.371 2.606-7.602 2.674-1.579 5.196-1.105 8.255-.742l-.108-2.136M83.544 228.055s5.031-2.508 5.973-4.09l10.038-1.247-2.509 5.337H83.544zm219.715-2.527l2.145-3.369c5.281 3.369 10.839 4.452 15.625 4.452 3.76 0 7.276-.058 9.714-2.51 2.136-2.132 3.144-5.049 3.144-8.4 0-2.474-.707-4.701-2.024-6.677-1.215-1.704-3.36-3.667-6.194-5.907-3.454-2.485-8.537-6.165-15.041-11.045-3.04-2.225-5.181-4.287-6.287-5.991-1.224-1.722-1.736-3.854-1.736-6.428 0-4.029 1.628-7.37 4.983-10.024 3.248-2.654 8.085-4.382 12.085-4.382 14.27 0 19.418 3.605 19.418 3.605l-1.139 3.854c-11.732-4.978-11.671-4.593-19.196-4.593-3.031 0-5.84 1.299-7.568 3.097-1.821 1.882-2.281 3.473-2.281 6.127 0 2.659 1.524 5.139 4.677 7.45 2.019 1.549 5.073 3.854 9.243 6.941 4.16 3.172 7.304 5.478 9.341 7.027 5.276 4.108 8.024 8.565 8.024 13.53 0 4.62-1.403 8.862-4.173 12.443-2.396 3.068-8.863 5.012-15.192 5.007-9.596 0-17.568-4.207-17.568-4.207"/><path d="M83.568 227.98s5.055-2.523 6-4.1l10.076-1.256-2.517 5.356H83.568z"/></g></svg>