<svg xmlns="http://www.w3.org/2000/svg" role="img" viewBox="-3.99 30.51 207.74 38.74"><defs><style>.cls-1{fill:#f60}.cls-2{fill:#b8b8b8}</style></defs><g id="RabbitMQ_logo" data-name="RabbitMQ logo"><path id="Shape" d="M26.7 47.11h-8.78a1.43 1.43 0 0 1-1.24-1.43v-9.22A1.42 1.42 0 0 0 15.26 35h-3.07a1.42 1.42 0 0 0-1.42 1.42v9.31a1.45 1.45 0 0 1-1.31 1.33H7.15a1.44 1.44 0 0 1-1.24-1.33v-9.27A1.42 1.42 0 0 0 4.49 35H1.42A1.42 1.42 0 0 0 0 36.46v26.9a1.42 1.42 0 0 0 1.42 1.42h25.29a1.42 1.42 0 0 0 1.42-1.42V48.53a1.42 1.42 0 0 0-1.43-1.42zm-4 10.17a1.42 1.42 0 0 1-1.42 1.42h-3.12a1.42 1.42 0 0 1-1.42-1.42v-2.9A1.42 1.42 0 0 1 18.16 53h3.07a1.42 1.42 0 0 1 1.42 1.42z" class="cls-1"/><g id="Group"><path id="Shape-2" d="M48.59 64.81l-1.47-6.86a25.49 25.49 0 0 0-.7-2.72 5.94 5.94 0 0 0-1.05-2A4.24 4.24 0 0 0 43.61 52a8.18 8.18 0 0 0-2.86-.42h-3.09v13.23H34.3V35.1h7.36a16.5 16.5 0 0 1 3.54.38 8.91 8.91 0 0 1 3 1.25A6.53 6.53 0 0 1 50.34 39a7.19 7.19 0 0 1 .8 3.55 9.74 9.74 0 0 1-.38 2.85 5.94 5.94 0 0 1-1.13 2.12 6.52 6.52 0 0 1-1.88 1.5 11.24 11.24 0 0 1-2.64 1v.08a8 8 0 0 1 2.35 1 4.89 4.89 0 0 1 1.41 1.38 6.62 6.62 0 0 1 .81 1.84c.19.69.37 1.48.55 2.37L52 64.81zm-.82-21.86a5.34 5.34 0 0 0-.65-2.87 4 4 0 0 0-1.72-1.5A7.12 7.12 0 0 0 43 38c-.91-.06-1.84-.1-2.8-.1h-2.5v10.89h1.85a20.19 20.19 0 0 0 3-.22 8 8 0 0 0 2.65-.85 5 5 0 0 0 1.89-1.78 5.67 5.67 0 0 0 .68-3z" class="cls-1" data-name="Shape"/><path id="Shape-3" d="M67.45 64.81v-2.72h-.08a4.64 4.64 0 0 1-1.13 1.4 7.1 7.1 0 0 1-1.57 1 8.67 8.67 0 0 1-3.58.8 6.23 6.23 0 0 1-2.35-.41A4.58 4.58 0 0 1 57 63.72a5 5 0 0 1-1.06-1.81 7.2 7.2 0 0 1-.37-2.37 4.62 4.62 0 0 1 .46-2.1 5.53 5.53 0 0 1 1.23-1.63 7.72 7.72 0 0 1 1.78-1.21 11.86 11.86 0 0 1 2.09-.82 14.42 14.42 0 0 1 2.18-.46 15.62 15.62 0 0 1 2-.15h1a5.73 5.73 0 0 0 1-.12v-2.71a6 6 0 0 0-.38-2 3.13 3.13 0 0 0-1.13-1.46 4 4 0 0 0-2.32-.55 7.37 7.37 0 0 0-1.63.17 3.39 3.39 0 0 0-1.25.54 2.84 2.84 0 0 0-.85 1 4.72 4.72 0 0 0-.45 1.55h-3.23a5.17 5.17 0 0 1 .66-2.64 5.41 5.41 0 0 1 1.67-1.77 7.31 7.31 0 0 1 2.35-1 11.3 11.3 0 0 1 2.68-.32 7.38 7.38 0 0 1 5.18 1.58q1.69 1.58 1.69 5v14.37zm-1.81-9.29a11.5 11.5 0 0 0-2.15.22 8.25 8.25 0 0 0-2.18.73 5.18 5.18 0 0 0-1.69 1.33 3.11 3.11 0 0 0-.68 2 3 3 0 0 0 .78 2.2 2.74 2.74 0 0 0 2.09.84 4.49 4.49 0 0 0 1.5-.24 5.38 5.38 0 0 0 1.33-.66 5.75 5.75 0 0 0 1.13-1 5.28 5.28 0 0 0 .82-1.28c.17-.38.3-.73.41-1a6.21 6.21 0 0 0 .24-.95 6.81 6.81 0 0 0 .1-1v-1.15h-1.7z" class="cls-1" data-name="Shape"/><path id="Shape-4" d="M92.46 54.78a18.2 18.2 0 0 1-.46 3.91 9.93 9.93 0 0 1-1.38 3.36 7.22 7.22 0 0 1-2.53 2.35 7.87 7.87 0 0 1-3.9.88 8.78 8.78 0 0 1-3.63-.67 6 6 0 0 1-2.37-1.87A7.64 7.64 0 0 1 77 59.92a15.33 15.33 0 0 1-.39-3.55V35.1h2.92v12.61h.1a5 5 0 0 1 .82-1.64 5.58 5.58 0 0 1 1.28-1.21 5.9 5.9 0 0 1 1.62-.75 6.41 6.41 0 0 1 1.83-.26 6.56 6.56 0 0 1 2.58.47 5.87 5.87 0 0 1 1.92 1.3A7.37 7.37 0 0 1 91 47.51a11.44 11.44 0 0 1 .86 2.3 16.84 16.84 0 0 1 .45 2.49 20.36 20.36 0 0 1 .15 2.48zm-3.36-.08c0-.48 0-1-.07-1.61s-.14-1.21-.25-1.82a11.73 11.73 0 0 0-.5-1.82 6.35 6.35 0 0 0-.82-1.59 4 4 0 0 0-1.22-1.12 3.13 3.13 0 0 0-1.66-.43 3.41 3.41 0 0 0-1.79.46A4.74 4.74 0 0 0 81.45 48a7.13 7.13 0 0 0-.95 1.72 13.36 13.36 0 0 0-.6 2 16.92 16.92 0 0 0-.32 2q-.1 1-.1 1.72a19.72 19.72 0 0 0 .17 2.48 8.58 8.58 0 0 0 .66 2.42 4.75 4.75 0 0 0 1.41 1.84 3.8 3.8 0 0 0 2.43.72 4 4 0 0 0 1.78-.38 4.15 4.15 0 0 0 1.31-1 5.59 5.59 0 0 0 .9-1.48 10.77 10.77 0 0 0 .57-1.74 13.5 13.5 0 0 0 .3-1.8q.09-1 .09-1.8z" class="cls-1" data-name="Shape"/><path id="Shape-5" d="M113.17 54.78a18.2 18.2 0 0 1-.41 3.91 9.93 9.93 0 0 1-1.38 3.36 7.22 7.22 0 0 1-2.53 2.35 7.87 7.87 0 0 1-3.9.88 8.78 8.78 0 0 1-3.63-.67 6 6 0 0 1-2.37-1.87 7.64 7.64 0 0 1-1.28-2.83 15.33 15.33 0 0 1-.39-3.55V35.1h2.92v12.61h.1a5 5 0 0 1 .82-1.64 5.58 5.58 0 0 1 1.28-1.21 5.9 5.9 0 0 1 1.62-.75 6.41 6.41 0 0 1 1.83-.26 6.56 6.56 0 0 1 2.58.47 5.87 5.87 0 0 1 1.92 1.3 7.37 7.37 0 0 1 1.35 1.9 11.44 11.44 0 0 1 .86 2.3 16.84 16.84 0 0 1 .45 2.49 20.36 20.36 0 0 1 .16 2.47zm-3.36-.08c0-.48 0-1-.07-1.61s-.14-1.21-.25-1.82a11.73 11.73 0 0 0-.5-1.82 6.35 6.35 0 0 0-.82-1.59 4 4 0 0 0-1.22-1.12 3.13 3.13 0 0 0-1.66-.43 3.41 3.41 0 0 0-1.79.46 4.74 4.74 0 0 0-1.35 1.23 7.13 7.13 0 0 0-.95 1.72 13.36 13.36 0 0 0-.6 2 16.92 16.92 0 0 0-.32 2q-.1 1-.1 1.72a19.72 19.72 0 0 0 .17 2.48 8.58 8.58 0 0 0 .66 2.42 4.75 4.75 0 0 0 1.41 1.84 3.8 3.8 0 0 0 2.43.72 4 4 0 0 0 1.78-.38 4.15 4.15 0 0 0 1.31-1 5.59 5.59 0 0 0 .9-1.48 10.77 10.77 0 0 0 .57-1.74 13.5 13.5 0 0 0 .3-1.8q.09-1 .09-1.8z" class="cls-1" data-name="Shape"/><path id="Shape-6" d="M118.33 39v-3.9h3.87V39zm.46 25.84V44.31h2.92v20.5z" class="cls-1" data-name="Shape"/><path id="Shape-7" d="M133.26 46.76v12.62a3.71 3.71 0 0 0 .8 2.55 3.24 3.24 0 0 0 2.55.9 4.67 4.67 0 0 0 1-.1 8.05 8.05 0 0 0 1-.3v2.63c-.43.07-.86.13-1.3.17a12.28 12.28 0 0 1-1.3.06 10.28 10.28 0 0 1-2.51-.27 4.22 4.22 0 0 1-1.78-.9 3.68 3.68 0 0 1-1.06-1.63 7.77 7.77 0 0 1-.35-2.5V46.76H127V44.3h3.34v-4.77l2.92-1.85v6.62h5.53v2.46z" class="cls-1" data-name="Shape"/><path id="Shape-8" d="M167.46 64.89V38.75h-.08l-8.75 26.13h-3.32l-8.72-26.13h-.1v26.13h-3.01v-29.7h5.05l8.43 25.27h.08l8.45-25.27h4.98v29.71h-3.01z" class="cls-2" data-name="Shape"/><path id="Shape-9" d="M187 64.9a10.15 10.15 0 0 1-3.68-.62 9 9 0 0 1-2.8-1.7 10.07 10.07 0 0 1-2-2.53 15.27 15.27 0 0 1-1.32-3.1 20.5 20.5 0 0 1-.73-3.43 28.35 28.35 0 0 1-.22-3.52 33.57 33.57 0 0 1 .2-3.69 22.53 22.53 0 0 1 .67-3.55 15.36 15.36 0 0 1 1.27-3.18 9.42 9.42 0 0 1 2-2.55 9.05 9.05 0 0 1 2.89-1.7 11.22 11.22 0 0 1 3.9-.62 10.38 10.38 0 0 1 3.8.64 8.65 8.65 0 0 1 2.8 1.75 9.39 9.39 0 0 1 1.93 2.6 15.71 15.71 0 0 1 1.29 3.18 22 22 0 0 1 .62 3.52c.12 1.22.18 2.42.18 3.6 0 .57 0 1.23-.06 2s-.12 1.5-.22 2.3-.25 1.61-.44 2.42a14.47 14.47 0 0 1-.78 2.28 10.11 10.11 0 0 1-1.06 2 5 5 0 0 1-1.44 1.39l.08.08L200 62v2.9zm7.06-14.95c0-.77 0-1.62-.07-2.53a23.52 23.52 0 0 0-.32-2.75A16.74 16.74 0 0 0 193 42a8.42 8.42 0 0 0-1.23-2.29 5.91 5.91 0 0 0-1.88-1.6 5.57 5.57 0 0 0-2.67-.6 6.26 6.26 0 0 0-2.81.58 6 6 0 0 0-2 1.55 8.15 8.15 0 0 0-1.31 2.25 15.63 15.63 0 0 0-.76 2.66 22.83 22.83 0 0 0-.35 2.78c-.06.93-.08 1.8-.08 2.62s0 1.61.1 2.5a21.68 21.68 0 0 0 .38 2.69 15.52 15.52 0 0 0 .77 2.6 8.39 8.39 0 0 0 1.3 2.26 6 6 0 0 0 1.89 1.55 5.63 5.63 0 0 0 2.63.58 6.86 6.86 0 0 0 2.89-.55 5.78 5.78 0 0 0 2-1.47A7.09 7.09 0 0 0 193.1 58a13.5 13.5 0 0 0 .68-2.57 21.63 21.63 0 0 0 .27-2.75c.03-.98.05-1.88.05-2.73z" class="cls-2" data-name="Shape"/></g></g></svg>