<svg xmlns="http://www.w3.org/2000/svg" role="img" viewBox="-10.66 -10.66 554.32 185.32"><title>Rackspace Technology (KCSP) logo</title><path fill="#100f0d" d="M483.6719 135.59732l-.52265 2.613c-1.1613 5.6956-4.76388 9.2971-8.25046 9.2971-3.13725 0-4.47455-2.61353-4.47455-5.69465 0-5.57586 3.89457-13.18767 9.81842-13.18767 2.38394 0 3.71857 1.27863 3.77724 3.60244.05733 1.3365-.17066 2.339-.348 3.36978zm-2.1506-12.14396c-12.02504 0-18.18355 10.63467-18.18355 19.57964 0 5.05561 2.4986 9.99407 8.53979 9.99407 3.74924 0 7.13315-1.82755 9.4011-5.05032l-.54133 2.47593c-1.39063 6.56492-4.76121 8.6529-9.17577 8.6529-2.67193 0-5.80518-.69687-7.43448-1.68486l-1.04797 5.5181c1.95595.96299 5.0292 1.56818 8.34112 1.56818 3.57858 0 7.56781-.69738 10.56107-3.13847 3.22792-2.6666 4.81455-7.08002 5.87052-12.59607l2.55994-12.82621c.34932-1.57023.58132-3.31245.58132-4.88015 0-5.1128-3.54391-7.61274-9.47177-7.61274zm9.2051 39.48545c5.17854 2.3963 10.28507 1.33643 13.98765-5.2879v-.00885l18.91686-33.72258h-7.19982l-10.74507 21.052-2.60793-21.052h-7.08782l5.03987 27.69044-2.20528 4.42125c-1.98128 3.38793-5.4412 2.2812-7.05049 1.38955zM263.5494 116.81033h-6.57717l-1.44396 7.27835h-3.77324l-.98798 5.22653h3.77991l-2.44127 12.60275c-.408 2.08795-.58399 3.65458-.58399 5.22547 0 3.25192 2.03728 5.805 6.6785 5.805 1.6293 0 3.42792-.17031 4.4159-.57863v-.00104l1.01863-5.35972c-.77331.16666-1.73462.25306-2.70393.25306-1.79862 0-2.49727-.98638-2.49727-2.55874 0-1.21983.232-2.6718.52132-4.0051l2.20794-11.38305h6.33185l1.04397-5.22653h-6.33184zm78.49004 6.64303c-3.58124 0-6.87716 1.5729-9.40777 4.67802l2.54927-13.2966h-6.79316l-7.13982 37.53502h6.74116l2.5026-13.06057c1.21998-6.62957 5.10121-10.3404 8.17714-10.3404 2.67326 0 3.54657 1.67968 3.54657 4.06349 0 1.1009-.136 2.32488-.33332 3.37018l-3.03726 15.9673h6.73983l3.1586-16.49022c.29065-1.39583.49731-3.36911.49731-4.65201 0-5.33934-3.13859-7.77421-7.20115-7.77421zm39.15769 7.7742c0-5.33933-3.13726-7.7742-7.19982-7.7742-4.03457 0-7.70648 1.99582-10.32908 5.93052l1.04664-5.4644h-6.09718l-5.41186 28.45032h6.74116l2.5026-13.06057c1.21997-6.62957 5.10121-10.3404 8.17713-10.3404 2.67194 0 3.54658 1.67968 3.54658 4.06349 0 1.1009-.136 2.32488-.33332 3.37018l-3.0386 15.9673h6.74117l3.15992-16.49022c.28933-1.39583.49466-3.36911.49466-4.65201zm-97.20024-2.7238c2.14928 0 3.59724 1.10051 3.59724 2.90513 0 3.42179-4.47055 4.3519-11.43971 4.29096.81598-3.42271 3.60258-7.19608 7.84247-7.19608zm-7.7798 16.26253c-.64132-1.10664-.87332-3.02379-.75465-4.01083 10.91706.2324 18.52087-2.09475 18.52087-9.34657 0-4.76548-3.54125-7.95553-9.11978-7.95553-9.75308 0-16.0236 9.28883-16.0236 17.82355 0 6.9117 3.77458 11.72882 11.61572 11.72882 3.71857 0 7.85847-.95154 10.68773-2.65051l1.1573-6.08891c-2.30127 1.66089-5.60386 3.39991-10.27974 3.39991-2.67193 0-4.70388-.9869-5.80386-2.89993zm38.63103-21.2556c-10.45174 0-17.94222 8.3018-17.94222 18.17555 0 6.7357 4.3519 11.2622 11.43971 11.2622 3.74924 0 6.68384-.88124 8.33846-1.72496l1.1133-5.86813c-.9813.55212-3.76523 2.13488-7.59714 2.13488-3.77323 0-6.21317-2.38434-6.21317-6.61757 0-5.92225 4.12523-11.90384 10.62773-11.90384 2.52527 0 4.03723.69892 5.21054 1.31877l1.0693-5.62493c-.99197-.47759-3.35058-1.15197-6.04651-1.15197zm109.00394-8.67591l-7.13849 37.53502h6.74117l7.19048-37.53502zm14.99696 26.32907c0 3.8863 2.03195 6.62063 5.51453 6.62063 5.05587 0 8.42245-6.96755 8.42245-12.60741 0-2.89993-1.3333-6.5025-5.40253-6.5025-5.3972 0-8.53445 7.20501-8.53445 12.48928zm20.90348-6.04412c0 9.64656-6.6785 17.886-16.31826 17.886-7.13982 0-11.55305-4.93685-11.55305-11.66642 0-9.58416 6.6785-17.88595 16.31826-17.88595 7.60381 0 11.55305 5.4592 11.55305 11.66637zm-66.92233 6.04412c0 3.8863 2.03061 6.62063 5.51586 6.62063 5.05587 0 8.4198-6.96755 8.4198-12.60741 0-2.89993-1.3333-6.5025-5.4012-6.5025-5.3972 0-8.53446 7.20501-8.53446 12.48928zm20.90481-6.04412c0 9.64656-6.6785 17.886-16.32093 17.886-7.13715 0-11.55304-4.93685-11.55304-11.66642 0-9.58416 6.67983-17.88595 16.32093-17.88595 7.6038 0 11.55304 5.4592 11.55304 11.66637zm111.43188 12.0289l-.9933 5.22117h-.85065l.69465-3.65454-2.11862 2.47749h-.50799l-1.17597-2.48535-.69731 3.6624h-.84931l.9933-5.22117h.76799l1.41596 2.99206 2.55194-2.99206zm-6.37184 0l-.148.78278h-1.72262l-.84531 4.43839h-.84931l.84397-4.43839h-1.72929l.148-.78278zM186.17935 88.30157l6.81183-35.8335 14.02098 35.8335h21.26747l-14.50764-36.11776 26.402-30.8079h-21.59012l-25.47403 30.46937L202.96426.00845h-19.64084l-16.78625 88.29312zM27.5493 36.21327l2.81926-14.83736H12.9528L0 89.48021h19.77817l5.34094-28.07997c3.14898-16.55851 12.64875-23.18382 26.16814-21.13707l3.86244-20.31389c-12.17103-1.11064-23.02756 5.85319-27.60038 16.264zm302.54244 10.81227c0-3.14312-.74132-10.77627-7.98514-10.77627-7.36515 0-13.58366 8.391-15.99426 21.1192-.82398 4.3515-3.1346 17.41784 5.96385 17.41784 10.38774 0 18.01555-14.74443 18.01555-27.76077zm20.56482-1.49783c0 16.21413-7.78514 32.84024-21.8168 40.31979-5.1532 2.74833-10.08774 3.90204-14.37563 3.95043-7.02383 0-10.9624-2.625-13.20767-6.67436l-5.02254 26.5488h-19.7755l16.78624-88.29646h17.41823l-2.03595 10.71827c4.92121-7.15836 12.20903-11.94624 20.45682-11.94624 13.089 0 21.5728 9.91842 21.5728 25.37977zM92.54409 42.39339c-.2308-4.70615-2.68074-7.24302-7.07276-7.24302-9.3019 0-17.3605 16.0548-17.3533 27.21905.00267 6.97596 2.58807 11.31958 7.08636 11.31958 7.19462 0 13.3918-7.5238 15.52308-18.5418.72598-3.72377 1.94888-9.83562 1.81662-12.75381zm18.18488 8.58725l-7.1321 37.32093H84.70883l2.45513-12.84501c-2.64993 8.00553-9.10337 14.34137-19.9307 14.34137-13.14087 0-19.07979-11.66584-19.08659-23.34008-.00933-13.2626 5.20147-26.39614 13.92832-35.13085 7.31075-7.31382 16.74545-11.17906 27.29305-11.17906 8.02487.032 13.96059 2.35461 17.6809 6.8625 5.50559 6.67223 5.054 16.68705 3.68004 23.9702zm285.64512-8.58725c-.23066-4.70615-2.67993-7.24302-7.07316-7.24302-9.3011 0-17.35823 16.0548-17.35156 27.21905.00266 6.97596 2.58793 11.31958 7.08515 11.31958 7.19582 0 13.39167-7.5238 15.52495-18.5418.72531-3.72377 1.94795-9.83562 1.81462-12.75381zm18.18621 8.58725l-7.13182 37.32093h-18.88886l2.4546-12.84501c-2.64793 8.00553-9.10243 14.34137-19.93016 14.34137-13.141 0-19.07953-11.66584-19.08753-23.34008-.00933-13.2626 5.20254-26.39614 13.93032-35.13085 7.31049-7.31382 16.74492-11.17906 27.29132-11.17906 8.02647.032 13.96232 2.35461 17.6809 6.8625 5.50652 6.67223 5.05453 16.68705 3.68123 23.9702zm46.71083-30.69403c-24.78338 0-43.45758 18.09701-43.45758 42.09641 0 16.57399 11.01306 27.27692 28.09664 27.27692 7.30781 0 14.4103-1.3401 18.98352-3.56498l3.13059-16.53559c-6.11585 3.03273-10.89973 4.2775-16.54092 4.2775-6.24651 0-12.94901-3.59525-12.94901-13.6294 0-11.82463 8.38512-24.09566 22.4621-24.09566 4.26523 0 7.8358.84625 10.9144 2.59727l3.06392-16.07587c-3.54258-1.4653-8.67445-2.3466-13.70366-2.3466zm30.89923 27.8593c11.60505.09573 18.13288-1.07864 20.98214-3.8995 3.08526-3.06446 2.11862-9.63096-5.48386-9.63096-8.55445 0-14.00098 7.01396-15.49828 13.53046zm12.78102 26.09615c8.27046 0 15.42761-2.02342 23.23142-6.5561l-3.1666 16.64438c-9.42509 4.81134-20.49815 5.3348-24.82204 5.3348-18.39954 0-28.9166-10.23308-28.9166-28.0977 0-10.30134 3.7839-20.62402 10.3744-28.32076 7.23182-8.44819 17.34223-13.0974 28.46462-13.0974 13.91832 0 23.20342 8.0878 23.20342 20.07803 0 5.5452-1.80529 10.10548-5.35853 13.56886-6.64784 6.47904-23.03143 10.10975-37.95372 7.17955-.71198 8.4082 5.61853 13.26634 14.94363 13.26634zM157.44006 20.2866c-24.78404 0-43.45798 18.09701-43.45798 42.09641 0 16.57399 11.0132 27.27692 28.09703 27.27692 7.30649 0 14.41031-1.3401 18.98353-3.56498l3.13059-16.53559c-6.11585 3.03166-10.90106 4.2775-16.54092 4.2775-6.24785 0-12.94901-3.59525-12.94901-13.6294 0-11.82463 8.38512-24.09566 22.4621-24.09566 4.26523 0 7.8358.84625 10.9144 2.59727l3.06392-16.07587c-3.54258-1.4653-8.67445-2.3466-13.70366-2.3466zm121.94496 45.89685c0 6.15238-2.05329 11.29918-6.09585 15.30895-5.3772 5.33787-14.09965 8.2482-24.58739 8.16753-7.52648-.12507-15.13162-1.95462-19.43285-4.59789l2.86527-15.07775c4.55988 2.59167 12.52768 5.20773 18.4702 5.20773 4.89588 0 8.19313-2.25874 8.19313-5.88212 0-3.28378-2.31728-5.57852-8.23846-8.47538-9.3651-4.68322-14.05165-10.61947-14.05165-17.61623 0-13.76792 11.72637-23.07036 29.31927-23.07036 9.3091 0 15.36895 2.19328 18.7302 4.35056l-2.86127 15.04656c-2.66393-2.00102-9.4331-4.79322-16.81558-4.79322-5.12787 0-8.46778 2.14742-8.46778 5.74266 0 2.57914 2.55593 4.89001 7.96513 7.52635 7.0465 3.52124 15.00763 8.73418 15.00763 18.1626"/></svg>