<svg xmlns="http://www.w3.org/2000/svg" role="img" viewBox="-5.52 -5.52 274.79 287.04"><title>Raftt (member) logo</title><path fill="#031959" d="M134.179 274.395h17.63v-84.629c0-7.577 2.953-11.813 10.709-11.813h3.102v-14.289h-3.102c-21.657 0-28.339 10.65-28.339 25.714v85.017zm89.698-96.561h17.63v72.1c0 7.577 2.953 11.813 10.709 11.813h11.783v14.289h-11.783c-21.657 0-28.339-10.65-28.339-25.714v-72.488zm-44.894 0h17.63v72.1c0 7.577 2.953 11.813 10.709 11.813h4.803v14.289h-4.803c-21.657 0-28.339-10.65-28.339-25.714v-72.488zM0 199.222h17.779v75.173H0v-75.173z"/><path fill="#031959" fill-rule="evenodd" d="M94.9218 254.945h.3282v19.45h17.63v-45.014c0-19.778-9.546-30.994-31.9487-30.994-20.6129 0-30.8746 9.486-33.9173 25.027l17.0929 2.297c2.2671-8.979 7.5471-12.499 16.198-12.499 10.7091 0 14.9749 5.758 14.9749 16.318H72.191c-19.4197 0-27.981 10.232-27.981 24.401 0 14.826 10.0528 22.075 24.3715 22.075 13.3342.029 22.7308-7.249 26.3403-21.061zm.3282-12.23v2.476c0 9.396-7.9051 16.317-20.076 16.317-10.0528 0-13.5132-4.952-13.5132-10.381 0-5.28 4.5939-8.412 13.1851-8.412H95.25z" clip-rule="evenodd"/><path fill="#031959" d="M264 199.222h-22.492c0 9.098 7.577 16.496 16.973 16.496H264v-16.496zM41.763 215.718H17.7793c0-9.098 7.6068-16.496 16.9736-16.496h7.0101v16.496zm76.067-16.496h111.864v15.005H117.83v-15.005zM63 135.46c15.7521-6.031 34.1035-33.925 34.1035-67.2084C97.1035 30.5573 78.7066 3.30277 63 0h104.69v.03982C186.193 1.28022 201 31.345 201 68.2516c0 31.2061-10.586 59.0004-25.042 67.1354-2.614 1.097-5.176 2.179-8.024 2.538-4.85.393-9.012-.807-13.433-2.529-7.831-3.051-13.599-3.065-21.399.064-2.902 1.165-5.744 2.257-8.913 2.465-4.252 0-7.95-.958-11.809-2.58-8.196-3.442-11.582-3.416-21.4004.115-3.3485 1.205-7.6363 2.465-11.0478 2.465-5.3992.225-13.6869-1.607-16.9318-2.465z"/></svg>