<svg xmlns="http://www.w3.org/2000/svg" role="img" viewBox="-0.04 -0.74 32.58 38.58"><title>Razee logo</title><defs><linearGradient id="a" x1="22.48%" x2="78.48%" y1="85%" y2="15%"><stop offset="0%" stop-color="#BB8EFF"/><stop offset="100%" stop-color="#408BFC"/></linearGradient><linearGradient id="b" x1="12.833%" x2="87.333%" y1="68.667%" y2="31.333%"><stop offset="0%" stop-color="#BB8EFF"/><stop offset="100%" stop-color="#408BFC"/></linearGradient><linearGradient id="c" x1="-8.298%" x2="104.269%" y1="50%" y2="50%"><stop offset="0%" stop-color="#BB8EFF"/><stop offset="100%" stop-color="#408BFC"/></linearGradient></defs><g fill="none" fill-rule="evenodd"><path fill="#373737" fill-rule="nonzero" d="M1.708 37v-3.6h1.956L5.476 37h1.14l-1.92-3.696c1.092-.252 1.68-1.08 1.68-2.304 0-1.524-.876-2.376-2.34-2.376H.7V37h1.008zm2.328-4.464H1.708v-3.024h2.328c.792 0 1.26.432 1.26 1.2v.624c0 .768-.468 1.2-1.26 1.2zm5.832 4.608c.864 0 1.524-.396 1.788-1.152h.06c.072.576.36 1.008 1.068 1.008h.54v-.84h-.708v-3.408c0-1.308-.888-2.088-2.376-2.088-1.116 0-1.86.552-2.196 1.212l.576.54c.336-.564.828-.924 1.572-.924.984 0 1.464.48 1.464 1.356v.612h-1.224c-1.8 0-2.64.648-2.64 1.812 0 1.152.768 1.872 2.076 1.872zm.156-.816c-.744 0-1.224-.348-1.224-.96v-.252c0-.6.492-.936 1.584-.936h1.272v1.02c0 .636-.684 1.128-1.632 1.128zm8.82.672v-.84H15.16l3.588-4.632v-.72h-4.572v.84h3.408l-3.516 4.548V37h4.776zm3.744.144c1.164 0 2.052-.576 2.448-1.416l-.684-.492c-.324.684-.924 1.068-1.704 1.068-1.152 0-1.836-.804-1.836-1.872v-.288h4.452v-.456c0-1.752-1.02-3.024-2.676-3.024-1.68 0-2.784 1.272-2.784 3.24 0 1.968 1.104 3.24 2.784 3.24zm1.644-3.72h-3.42v-.084c0-1.08.732-1.872 1.776-1.872.984 0 1.644.732 1.644 1.824v.132zm4.944 3.72c1.164 0 2.052-.576 2.448-1.416l-.684-.492c-.324.684-.924 1.068-1.704 1.068-1.152 0-1.836-.804-1.836-1.872v-.288h4.452v-.456c0-1.752-1.02-3.024-2.676-3.024-1.68 0-2.784 1.272-2.784 3.24 0 1.968 1.104 3.24 2.784 3.24zm1.644-3.72H27.4v-.084c0-1.08.732-1.872 1.776-1.872.984 0 1.644.732 1.644 1.824v.132z"/><path fill="url(#a)" fill-rule="nonzero" d="M12 0v5h-2V0z"/><path fill="url(#b)" fill-rule="nonzero" d="M12 0H6l1.52 1.5L6 3h6z"/><path stroke="url(#c)" stroke-width="2" d="M18 8h-2a25.65 25.65 0 0 1 .88 3M18 8h5c2.67 4 7.2 13.4 4 19H13a10.06 10.06 0 0 0 1.72-2M18 8a4.32 4.32 0 0 0-1.5-3H9c1.16343 1.76992 1.52651 3.94842 1 6m0 0H4c2.94695 4.20142 2.94695 9.79858 0 14h10.75M10 11h6.88m-2.13 14c1.89-2.79 3.6-7.62 2.16-14"/></g></svg>