<svg xmlns="http://www.w3.org/2000/svg" role="img" viewBox="-14.17 -14.17 788.84 741.34"><title>ReadySpace (KCSP) logo</title><g><g><path fill="#d91920" d="m 3253.2,3715.67 c -1.26,108.31 -38.92,193.45 -113,255.37 -74.02,61.91 -176.87,93.48 -308.5,94.67 H 2260.14 V 3347.7 h 535.8 c 147.22,0.6 260.05,32.49 338.49,95.55 78.43,63.12 118,153.93 118.77,272.42 z m 1977.07,-579.92 v 360.75 c 0,573.28 -432.98,1095.85 -1074.84,1290.46 -415,159.87 -894.58,253.9 -1394.07,253.9 -529.92,0 -1032.52,-104.42 -1465.45,-282.78 C 700.82,4544.31 308.953,4044.5 308.953,3496.5 v -360.97 c -6.902,-693.95 793.807,-1191.97 836.647,-1218.08 467.71,-220.63 1020.68,-349.46 1615.76,-349.46 218.7,0 431.84,19.49 637.25,54.96 L 2863.8,3004.8 H 2260.14 V 2026.03 H 1831.5 v 2382.64 h 1032.3 c 269.26,-1.09 475.57,-61.48 618.92,-181.29 143.3,-119.86 215.63,-292.81 216.99,-518.9 0.65,-152.67 -33.74,-280.38 -103.12,-383.07 -69.45,-102.69 -177.97,-185.76 -325.52,-249.15 l 542.61,-1357.78 c 136.51,39.4 268.44,85.51 395.03,137.11 l 138.17,59.32 c 539.86,231.78 883.39,703.09 883.39,1220.84 z M 4244.35,5045.68 C 4977.58,4823.37 5504.03,4213.74 5504.03,3496.5 v -360.75 c 0,-646.52 -427.76,-1205.61 -1049.15,-1472.4 v -11.63 c -496.75,-227.19 -1075.57,-357.49 -1693.52,-357.49 -635.16,0 -1220.8,145.11 -1726.65,384.16 l -8.18,10.89 C 387.559,2026.11 35.1992,2509.48 35.1992,3135.75 v 360.75 c 0,685.07 480.2808,1271.97 1162.2908,1516.96 466.72,192.27 998.94,301.17 1563.87,301.17 532.55,0 1036.05,-96.77 1482.99,-268.95" transform="matrix(.13333 0 0 -.13333 0 713.333)"/><path fill="none" stroke="#d91920" stroke-miterlimit="3.864" stroke-width="54.955" d="m 3253.2,3715.67 c -1.26,108.31 -38.92,193.45 -113,255.37 -74.02,61.91 -176.87,93.48 -308.5,94.67 H 2260.14 V 3347.7 h 535.8 c 147.22,0.6 260.05,32.49 338.49,95.55 78.43,63.12 118,153.93 118.77,272.42 z" transform="matrix(.13333 0 0 -.13333 0 713.333)"/><path fill="none" stroke="#d91920" stroke-miterlimit="3.864" stroke-width="54.955" d="m 5230.27,3135.75 v 360.75 c 0,573.28 -432.98,1095.85 -1074.84,1290.46 -415,159.87 -894.58,253.9 -1394.07,253.9 -529.92,0 -1032.52,-104.42 -1465.45,-282.78 C 700.82,4544.31 308.953,4044.5 308.953,3496.5 v -360.97 c -6.902,-693.95 793.807,-1191.97 836.647,-1218.08 467.71,-220.63 1020.68,-349.46 1615.76,-349.46 218.7,0 431.84,19.49 637.25,54.96 L 2863.8,3004.8 H 2260.14 V 2026.03 H 1831.5 v 2382.64 h 1032.3 c 269.26,-1.09 475.57,-61.48 618.92,-181.29 143.3,-119.86 215.63,-292.81 216.99,-518.9 0.65,-152.67 -33.74,-280.38 -103.12,-383.07 -69.45,-102.69 -177.97,-185.76 -325.52,-249.15 l 542.61,-1357.78 c 136.51,39.4 268.44,85.51 395.03,137.11 l 138.17,59.32 c 539.86,231.78 883.39,703.09 883.39,1220.84 z" transform="matrix(.13333 0 0 -.13333 0 713.333)"/><path fill="none" stroke="#d91920" stroke-miterlimit="3.864" stroke-width="54.955" d="M 4244.35,5045.68 C 4977.58,4823.37 5504.03,4213.74 5504.03,3496.5 v -360.75 c 0,-646.52 -427.76,-1205.61 -1049.15,-1472.4 v -11.63 c -496.75,-227.19 -1075.57,-357.49 -1693.52,-357.49 -635.16,0 -1220.8,145.11 -1726.65,384.16 l -8.18,10.89 C 387.559,2026.11 35.1992,2509.48 35.1992,3135.75 v 360.75 c 0,685.07 480.2808,1271.97 1162.2908,1516.96 466.72,192.27 998.94,301.17 1563.87,301.17 532.55,0 1036.05,-96.77 1482.99,-268.95 z" transform="matrix(.13333 0 0 -.13333 0 713.333)"/><path fill="#d91920" d="M687.742 20.0547L551.781 345.918c75.539 39.926 110.067 99.262 110.067 187.742 0 138.121-75.543 206.102-229.828 206.102H216.203V20.0547H334.895V321.105H447.117L559.34 20.0547zM544.223 534.75c0-77.695-42.082-121.937-117.606-121.937h-91.722v235.226h91.722c78.766 0 117.606-37.769 117.606-113.289M1202.3 20.0547V117.16H904.496v225.512h229.824v94.953H904.496v207.168h293.494v94.969H785.805V20.0547H1202.3M1742.89 20.0547L1550.84 739.762h-133.8L1208.79 20.0547h113.29l44.24 180.1993h210.42L1622.05 20.0547zM1553 294.121h-162.94l82.01 329.106zM2307.08 390.16c0 228.735-114.38 349.602-330.17 349.602H1815.04V20.0547h170.49c73.37 0 126.25 11.8672 170.49 37.7695 96.02 56.1098 151.06 176.9568 151.06 332.3358zm-126.25-9.719c0-174.8-66.89-265.437-197.45-265.437h-49.64v529.789h49.64c129.47 0 197.45-90.633 197.45-264.352M2808.55 739.762H2695.26L2560.39 439.801 2428.74 739.762h-129.48l190.99-415.43V20.0547h118.69V324.332l199.61 415.43M3291.83 228.297c0 55.039-24.83 110.066-63.66 143.519-32.37 28.055-65.83 45.309-137.03 72.293-117.61 45.309-143.51 66.895-143.51 120.848 0 51.785 41 89.551 98.17 89.551 64.76 0 99.29-30.211 126.25-111.133l101.44 35.613c-36.7 120.848-104.66 173.715-223.35 173.715-128.41 0-219.04-84.164-219.04-202.859 0-58.266 23.74-111.133 64.73-146.746 34.53-30.215 52.87-38.84 152.15-76.61 91.7-34.527 121.92-63.648 121.92-117.605 0-63.664-45.31-103.594-118.69-103.594-76.61 0-124.08 44.242-143.51 132.723l-105.75-30.215c31.3-133.7892 114.38-200.68372 247.1-200.68372 146.75 0 242.78 87.39062 242.78 221.18372M3839.91 520.719c0 75.523-29.12 141.347-78.76 178.031-40.99 30.211-89.57 41.012-185.58 41.012H3397.52V20.0547h118.69V301.68h61.51c87.39 0 126.25 7.554 167.24 30.207 60.43 34.527 94.95 102.511 94.95 188.832zm-125.16 2.156c0-91.719-37.77-126.25-139.18-126.25h-59.36v251.414h59.36c59.33 0 74.45-3.246 94.95-18.344 28.05-20.496 44.23-60.422 44.23-106.82M4354.46 20.0547L4162.4 739.762H4028.6L3820.36 20.0547h113.29l44.24 180.1993h210.41l45.31-180.1993zm-189.9 274.0663h-162.93l82.01 329.106zM4880.88 506.691c-22.66 165.09-99.27 246.012-233.08 246.012-169.4 0-263.26-133.808-263.26-373.344 0-241.699 92.8-372.24572 263.26-372.24572 131.66 0 209.33 80.92192 232.01 239.53872l-110.07 15.098c-18.34-113.293-51.8-156.461-119.78-156.461-91.71 0-139.19 89.566-139.19 265.441 0 189.915 44.25 283.778 134.88 283.778 75.54 0 107.91-43.153 124.09-164l111.14 16.183M5394.37 20.0547V117.16h-297.81v225.512h229.83v94.953h-229.83v207.168h293.49v94.969H4977.87V20.0547h416.5M5558.32 744.109V721h-39.05V613.594h-27.45V721h-39.23v23.109h105.73M5660.77 744.109h39.22V613.594h-25.41v88.277c0 2.539.03 6.082.09 10.629.06 4.602.08 8.145.09 10.625l-24.71-109.531h-26.48l-24.52 109.531c0-2.48.02-6.023.09-10.625.06-4.547.08-8.09.09-10.629v-88.277h-25.42v130.515h39.67l23.73-102.625 23.56 102.625" transform="matrix(.13333 0 0 -.13333 0 713.333)"/></g></g></svg>