<svg xmlns="http://www.w3.org/2000/svg" role="img" viewBox="-3.83 68.42 407.16 107.91"><title>Red Hat (member) logo</title><style>svg {enable-background:new 0 0 1400 980}</style><path fill="none" d="M0 0h400v245H0z" pointer-events="none"/><path fill="#ee2435" d="M85.393 129.537c8.003 0 19.592-1.657 19.592-11.176a9.055 9.055 0 0 0-.199-2.19l-4.767-20.712c-1.105-4.553-2.07-6.623-10.072-10.624-6.209-3.172-19.73-8.415-23.73-8.415-3.726 0-4.828 4.828-9.244 4.828-4.276 0-7.45-3.587-11.45-3.587-3.863 0-6.348 2.621-8.279 8.003 0 0-5.381 15.175-6.07 17.382a3.996 3.996 0 0 0-.143 1.243c0 5.898 23.229 25.248 54.362 25.248m20.833-7.313c1.105 5.243 1.105 5.794 1.105 6.484 0 8.969-10.073 13.934-23.316 13.934-29.94 0-56.153-17.52-56.153-29.11a11.795 11.795 0 0 1 .965-4.69c-10.761.551-24.696 2.482-24.696 14.762 0 20.142 47.737 44.976 85.54 44.976 28.973 0 36.284-13.106 36.284-23.453 0-8.142-7.036-17.384-19.729-22.903" class="cls-1"/><path d="M106.226 122.224c1.105 5.243 1.105 5.794 1.105 6.484 0 8.969-10.073 13.934-23.316 13.934-29.94 0-56.153-17.52-56.153-29.11a11.795 11.795 0 0 1 .965-4.69l2.346-5.796a3.996 3.996 0 0 0-.142 1.243c0 5.898 23.229 25.248 54.362 25.248 8.003 0 19.592-1.657 19.592-11.176a9.055 9.055 0 0 0-.199-2.19zm268.618 13.271c0 7.606 4.578 11.308 12.923 11.308a33.429 33.429 0 0 0 7.607-1.077v-8.818a15.845 15.845 0 0 1-4.915.74c-3.432 0-4.71-1.076-4.71-4.307v-13.529h9.96v-9.086h-9.96v-11.51l-10.905 2.356v9.154h-7.202v9.086h7.202zm-33.884.202c0-2.356 2.356-3.5 5.923-3.5a27.363 27.363 0 0 1 6.462.807v4.577a13.76 13.76 0 0 1-6.798 1.683c-3.5 0-5.587-1.346-5.587-3.567m3.327 11.24a16.662 16.662 0 0 0 9.827-2.76v2.154h10.77v-22.817c0-8.683-5.857-13.461-15.616-13.461a39.622 39.622 0 0 0-16.625 3.903l3.904 8.01c4.173-1.75 7.673-2.827 10.769-2.827 4.51 0 6.798 1.75 6.798 5.317v1.75a31.616 31.616 0 0 0-8.077-1.01c-9.154 0-14.673 3.837-14.673 10.703 0 6.26 4.98 11.038 12.923 11.038m-59.163-.606H296.7V127.89h19.385v18.442h11.577V99.216h-11.577v18.106h-19.384V99.216h-11.577zm-44.115-17.836a9.016 9.016 0 0 1 9.356-9.02 11.031 11.031 0 0 1 7.538 2.76v12.452a10.476 10.476 0 0 1-7.538 2.827 9.056 9.056 0 0 1-9.356-9.02m17.029 17.837h10.77v-49.47l-10.905 2.355v13.394a18.347 18.347 0 1 0-9.423 34.193 16.058 16.058 0 0 0 9.558-3.097zm-49.403-27.327a7.875 7.875 0 0 1 7.471 5.654h-14.875a7.415 7.415 0 0 1 7.404-5.654m-18.375 9.558c0 10.366 8.48 18.442 19.384 18.442a21.365 21.365 0 0 0 14.875-5.384l-7.201-6.394a9.644 9.644 0 0 1-7.135 2.692 9.201 9.201 0 0 1-8.75-5.654h25.375v-2.692c0-11.308-7.606-19.452-17.971-19.452a18.289 18.289 0 0 0-18.577 18.442m-18.778-19.452c3.836 0 5.99 2.423 5.99 5.318s-2.154 5.317-5.99 5.317H160.04V109.11zm-23.02 37.221h11.578v-17.163h8.817l8.885 17.163h12.923l-10.366-18.846a14.255 14.255 0 0 0 8.885-13.26c0-8.48-6.664-15.009-16.625-15.009h-24.096z"/></svg>