<svg xmlns="http://www.w3.org/2000/svg" role="img" viewBox="-8.32 -8.32 432.90 123.65"><defs><style>.cls-1{fill:#a30000}.cls-2{fill:#c00}</style></defs><path d="M33.87 48.03l-18.72 6.82a54.41 54.41 0 0 0 1.48 8.88l17.79-6.48a34.89 34.89 0 0 1-.55-9.22m82.77-20.7a53.48 53.48 0 0 0-4.59-7.76l-18.72 6.82a34.81 34.81 0 0 1 5.5 7.41z" class="cls-1"/><path d="M75.44 22.02a34.57 34.57 0 0 1 10.11 7.21l18.73-6.81A53.52 53.52 0 0 0 7.35 57.73l18.7-6.86a34.7 34.7 0 0 1 49.36-28.85M17.8 63.3L.05 69.78a54.22 54.22 0 0 0 8.36 18.13l18.64-6.79a35 35 0 0 1-9.26-17.81m77.62-7.07a34.24 34.24 0 0 1-3.14 12 34.82 34.82 0 0 1-46.22 16.85 34.46 34.46 0 0 1-10.14-7.2L17.2 84.73a53.06 53.06 0 0 0 20.85 17.37 53.63 53.63 0 0 0 71.18-25.91 53 53 0 0 0 4.82-26.75z" class="cls-2"/><path d="M100.05 33.38l-17.79 6.48a34.93 34.93 0 0 1 4.36 19.59l18.69-6.79a54 54 0 0 0-5.26-19.28" class="cls-2"/><path fill="#820000" d="M33.8 51.8a34.18 34.18 0 0 1 .07-3.76l-18.72 6.81c.09 1.2.25 2.39.43 3.58zm80.12-29.4c-.59-1-1.2-1.9-1.85-2.82l-18.72 6.81a31.55 31.55 0 0 1 2.3 2.65z"/><path d="M17.2 84.73a53.29 53.29 0 0 0 4.76 5.78l20.34-7.42a34.41 34.41 0 0 1-6.42-5.17zm96.85-35.29l-18.68 6.79a34.25 34.25 0 0 1-1.58 8l20.34-7.42a53 53 0 0 0-.07-7.42" class="cls-1"/><path d="M151.42 42.92l-3.94-8.13h-2.69v8.13h-6.54v-24.1h10.8a16 16 0 0 1 3.84.43 8.17 8.17 0 0 1 3 1.36 6.08 6.08 0 0 1 1.91 2.43 8.86 8.86 0 0 1 .67 3.63 7.73 7.73 0 0 1-1.17 4.44 7.42 7.42 0 0 1-3.25 2.62l4.83 9.2h-7.49zm-.31-17.94a3 3 0 0 0-2.27-.72h-4v5.27h3.95a3.27 3.27 0 0 0 2.35-.69 2.69 2.69 0 0 0 .69-2 2.62 2.62 0 0 0-.72-1.86zm12.83 17.94v-24.1h18.46v5.61h-11.85v3.24h7.13v5.51h-7.13v4.13h12.09v5.61h-18.7zm44.02-6.45a8.69 8.69 0 0 1-2.48 3.75 10 10 0 0 1-4.08 2.07 22.27 22.27 0 0 1-5.63.64h-7.82V18.82h8.44a20.89 20.89 0 0 1 5.13.59 9.35 9.35 0 0 1 3.91 2 9.11 9.11 0 0 1 2.48 3.67 15.88 15.88 0 0 1 .88 5.68 17.26 17.26 0 0 1-.83 5.71zm-6.32-8.49a4.62 4.62 0 0 0-.95-2 3.85 3.85 0 0 0-1.72-1.12 8.22 8.22 0 0 0-2.62-.36h-1.65v12.71h1.45a9.4 9.4 0 0 0 2.65-.33 4 4 0 0 0 1.81-1.07 4.32 4.32 0 0 0 1-2 12.5 12.5 0 0 0 .31-3 12.23 12.23 0 0 0-.28-2.83zm38.93 14.94v-9.5h-7.52v9.51h-6.8V18.82h6.8v8.78h7.51v-8.78h6.82v24.1h-6.82zm28.31 0l-1.3-4.19h-7.23l-1.3 4.19h-7.16l8.75-24.11h6.75l8.75 24.11h-7.23zm-3.37-11.12q-.31-1.17-.55-2l-.43-1.55q-.19-.69-.33-1.26t-.24-1.26q-.1.62-.24 1.21t-.33 1.27l-.43 1.55-.55 2-.45 1.58h4zm24.25-7.16v18.28h-6.71V24.64h-6.75v-5.82h20.18v5.82h-6.75zm15.7-1.65a3 3 0 0 1-1.64 1.64 3.32 3.32 0 0 1-2.46 0 3 3 0 0 1-1.64-1.64 3.33 3.33 0 0 1 0-2.46 3 3 0 0 1 1.64-1.64 3.32 3.32 0 0 1 2.46 0 3 3 0 0 1 1.64 1.64 3.31 3.31 0 0 1 0 2.46zm-.46-2.26a2.51 2.51 0 0 0-1.38-1.38 2.79 2.79 0 0 0-2.06 0 2.52 2.52 0 0 0-1.38 1.38 2.78 2.78 0 0 0 0 2.06 2.53 2.53 0 0 0 1.38 1.38 2.79 2.79 0 0 0 2.06 0 2.52 2.52 0 0 0 1.38-1.38 2.78 2.78 0 0 0 0-2.06zm-1.2 1a1 1 0 0 1-.53.34l.7 1.37h-.68l-.66-1.31h-.65v1.31h-.58V20h1.48a1.48 1.48 0 0 1 .42.06 1 1 0 0 1 .35.19.89.89 0 0 1 .24.32 1.08 1.08 0 0 1 .09.46 1 1 0 0 1-.18.65zm-.53-1a.61.61 0 0 0-.39-.12h-.9v1h.9a.63.63 0 0 0 .39-.12.5.5 0 0 0 0-.76zM165.63 75.36a18 18 0 0 1-3.07 5.92 14.22 14.22 0 0 1-4.78 3.87 14.3 14.3 0 0 1-12.27 0 13.75 13.75 0 0 1-4.73-3.85 18 18 0 0 1-3-5.89 25.17 25.17 0 0 1-1.06-7.49 24.85 24.85 0 0 1 1.08-7.52 18.29 18.29 0 0 1 3-5.92 14 14 0 0 1 4.75-3.87 14.31 14.31 0 0 1 12.27 0 13.78 13.78 0 0 1 4.73 3.85 18.37 18.37 0 0 1 3 5.89 24.62 24.62 0 0 1 1.08 7.49 24.87 24.87 0 0 1-1 7.52zm-3.8-13.63a15.34 15.34 0 0 0-2.35-4.75 10.53 10.53 0 0 0-3.51-3 9.3 9.3 0 0 0-4.39-1.06 9 9 0 0 0-4.31 1.06 10.34 10.34 0 0 0-3.44 3 14.93 14.93 0 0 0-2.27 4.7 21.5 21.5 0 0 0-.83 6.17 20.89 20.89 0 0 0 .85 6.17 15.69 15.69 0 0 0 2.33 4.75 10.26 10.26 0 0 0 3.49 3 9.29 9.29 0 0 0 4.39 1.06 9.18 9.18 0 0 0 4.34-1.06 10.24 10.24 0 0 0 3.46-3 15 15 0 0 0 2.27-4.7 21.55 21.55 0 0 0 .83-6.17 20.9 20.9 0 0 0-.86-6.17zm38.54 3.66a9.83 9.83 0 0 1-2.51 3.51 10.56 10.56 0 0 1-3.87 2.14 16.26 16.26 0 0 1-5 .72h-8.74v14.21h-4V49.81h13.54a15.46 15.46 0 0 1 4.57.65 10 10 0 0 1 3.64 2 9.24 9.24 0 0 1 2.43 3.38 13.26 13.26 0 0 1-.06 9.55zm-5.09-10a7.89 7.89 0 0 0-5.68-1.89h-9.35v14.6h8.8q8.16 0 8.16-7.34a7.14 7.14 0 0 0-1.93-5.39zm14.42 30.59V49.81h21.85v3.67h-17.82v11.37h10.32v3.67h-10.32v13.79h18.6v3.67H209.7zm54.14 0l-15.79-24.75q-.31-.46-.67-1.11l-.72-1.29q-.36-.65-.7-1.21a8.51 8.51 0 0 1-.49-.93v29.29h-3.93V49.81h3.93l15.65 25.21q.31.47.67 1.11l.72 1.29q.36.65.7 1.21a8.45 8.45 0 0 1 .49.93V49.81h3.93v36.16h-3.82zm36.21-5.53a8.8 8.8 0 0 1-2.35 3.2 11.44 11.44 0 0 1-3.77 2.12 15.33 15.33 0 0 1-5.06.78 16.35 16.35 0 0 1-6.85-1.42 17.81 17.81 0 0 1-5.29-3.59l2.69-3a18.34 18.34 0 0 0 4.44 3.15 11.38 11.38 0 0 0 5.17 1.19 9 9 0 0 0 5.71-1.65 5.47 5.47 0 0 0 2.09-4.55 6.07 6.07 0 0 0-.41-2.27A5.05 5.05 0 0 0 295 72.5a13.42 13.42 0 0 0-2.66-1.73 33.84 33.84 0 0 0-4.13-1.73 36 36 0 0 1-4.93-2.09 13.4 13.4 0 0 1-3.2-2.27 7.35 7.35 0 0 1-1.76-2.71 10.15 10.15 0 0 1-.54-3.46 8.77 8.77 0 0 1 .83-3.87 8.61 8.61 0 0 1 2.3-2.92 10 10 0 0 1 3.57-1.83 16.22 16.22 0 0 1 4.62-.62 16.48 16.48 0 0 1 6.17 1 19.49 19.49 0 0 1 4.83 2.84l-2.58 3.15a16 16 0 0 0-4-2.51 12 12 0 0 0-4.73-.85 10.36 10.36 0 0 0-3.2.44 6.45 6.45 0 0 0-2.2 1.16 4.31 4.31 0 0 0-1.24 1.68 5.37 5.37 0 0 0-.39 2 6.25 6.25 0 0 0 .31 2 4.34 4.34 0 0 0 1.24 1.76 11.19 11.19 0 0 0 2.67 1.79 43.4 43.4 0 0 0 4.42 1.81 38 38 0 0 1 5 2.17 12.55 12.55 0 0 1 3.23 2.38 7.68 7.68 0 0 1 1.73 2.84 11.29 11.29 0 0 1 .52 3.57 9.94 9.94 0 0 1-.83 3.95zm32.76 5.53v-17h-18v17h-4V49.81h4v15.45h18V49.81h4v36.16h-4zm15.34 0V49.81h4v36.16h-4zm19.38-32.5v12h9.92v3.67h-9.92v16.84h-4V49.81h21.23v3.67h-17.2zm38.28 0v32.5h-4v-32.5h-10.67v-3.67h25.31v3.67h-10.64z"/></svg>