<svg xmlns="http://www.w3.org/2000/svg" role="img" viewBox="-12.75 -12.25 741.00 354.50"><title>Red Hat OpenShift Dedicated logo</title><path d="M263.39 220.68c-21.22 0-37.86-16.53-37.86-37.54s16.64-37.55 37.86-37.55 38 16.54 38 37.55-16.79 37.54-38 37.54zm0-65c-15.08 0-26.73 11.86-26.73 27.46s11.65 27.46 26.73 27.46 26.83-12 26.83-27.46-11.65-27.46-26.83-27.46zm48.35 10.92H322v5.1a24.14 24.14 0 0 1 16.22-5.93c15 0 26.73 12 26.73 27.25s-11.75 27.35-26.93 27.35a26.75 26.75 0 0 1-15.92-5.2v25.9h-10.4zm10.4 14.56v23.92c3.33 3.85 8.84 6.24 14.77 6.24 10.2 0 17.89-7.8 17.89-18.2s-7.8-18.3-17.89-18.3c-6.03 0-11.33 2.29-14.77 6.34zm78.32 39.32c-15.6 0-27.77-12-27.77-27.46 0-15.29 11.65-27.25 26.52-27.25 14.56 0 25.58 12.06 25.58 27.67v3H383a17.87 17.87 0 0 0 17.89 15.19 20.62 20.62 0 0 0 13.4-4.63l6.66 6.55a31.62 31.62 0 0 1-20.49 6.93zm-17.37-31.83h31.41c-1.56-8.11-7.8-14.14-15.5-14.14-8 0-14.35 5.72-15.91 14.14zm51.58-22.05h10.4v5.31a21.81 21.81 0 0 1 15.93-6.35c12.17 0 20.7 8.43 20.7 20.7v33.28h-10.4V188c0-8.32-5.1-13.42-13.1-13.42a15 15 0 0 0-13.11 6.87v38.06h-10.4zM495 199.78c7.9 7.7 16 11.44 25.06 11.44 10.51 0 17.68-5 17.68-12.17 0-6.45-4.16-9.67-14.76-11.44l-12.17-2c-13.31-2.19-19.87-8.43-19.87-18.93 0-12.69 10.61-20.91 26.84-20.91a48.88 48.88 0 0 1 29.33 9.88l-6 8.32c-7.9-6-15.7-8.94-23.81-8.94-9.47 0-15.81 4.37-15.81 10.81 0 5.93 3.64 8.74 13 10.3l11.7 1.86c15.39 2.5 22.36 8.84 22.36 20.18 0 13.42-11.65 22.36-29 22.36a43.88 43.88 0 0 1-31.2-13.1zm62.39-53.04l10.4-2.29v27.46a21.81 21.81 0 0 1 15.91-6.35c12.17 0 20.7 8.43 20.7 20.7v33.28H594V188c0-8.32-5.1-13.42-13.11-13.42a14.94 14.94 0 0 0-13.1 6.87v38.06h-10.4zm57.82 4.89a6.39 6.39 0 0 1 6.34-6.45 6.45 6.45 0 1 1 0 12.89 6.39 6.39 0 0 1-6.34-6.44zm11.55 67.91h-10.4V166.6h10.4zm20.17-52.94v-8c0-11 6.34-17.05 18-17.05a27.45 27.45 0 0 1 7.49.93v9.05a20.71 20.71 0 0 0-6.55-.93c-5.72 0-8.53 2.6-8.53 8.21v7.8h15.08v8.74h-15.09v44.2h-10.4v-44.2h-12.27v-8.75zm41.29 8.74H677v-8.74h11.24v-13.52l10.29-2.49v16h15.6v8.74h-15.6V204c0 5.41 2.19 7.39 7.8 7.39a20.43 20.43 0 0 0 7.6-1.25v8.74a34.72 34.72 0 0 1-9.88 1.56c-10.3 0-15.81-4.89-15.81-14zm-458.95 79.4h24c22.15 0 38.27 15.29 38.27 36.4s-16 36.4-38.27 36.4h-24zm8 7.28v58.24h16.43c16.85 0 29.75-12.58 29.75-29.12S270.56 262 253.71 262zm89.87 66.46a26.56 26.56 0 0 1-26.84-27c0-15 11.34-26.84 25.69-26.84 13.84 0 24.65 11.86 24.65 26.84v2.39H307.9c1.14 10.29 9.25 17.89 19.55 17.89 5.41 0 10.82-1.77 14.35-4.79l4.79 5.1a30.84 30.84 0 0 1-19.45 6.41zm-19-30.79H343c-1.36-9.26-8.53-16.33-17.16-16.33-9.1 0-16.28 6.76-17.74 16.33zM402.12 322a24.21 24.21 0 0 1-16.85 6.34c-14.66 0-26.21-11.75-26.21-26.93s11.44-26.84 26.32-26.84a26.26 26.26 0 0 1 16.62 5.96v-25.79l7.69-1.77v74.57h-7.59zm-16.12-.39a20.2 20.2 0 0 0 16-7.28v-25.79a20.61 20.61 0 0 0-16-7.18c-10.92 0-19.35 8.53-19.35 20s8.43 20.25 19.35 20.25zm35.46-61.36a5.22 5.22 0 0 1 5.2-5.2 5.15 5.15 0 0 1 5.2 5.2 5.22 5.22 0 0 1-5.2 5.2 5.28 5.28 0 0 1-5.2-5.2zm9.05 67.29h-7.7v-52.11h7.7zM483.13 315l4.79 5.2a29.15 29.15 0 0 1-20.18 8.32c-14.87 0-26.52-11.86-26.52-27s11.65-27.05 26.52-27.05a29.61 29.61 0 0 1 20.39 8.22l-4.89 5.62a21.4 21.4 0 0 0-15.39-6.76c-10.72 0-19 8.84-19 20 0 11.33 8.43 20.07 19.14 20.07 5.58-.11 10.67-2.3 15.14-6.62zm11.03-2.23c0-9.78 8-15.91 20.8-15.91a33.78 33.78 0 0 1 15.29 3.54v-6.87c0-8.32-4.79-12.58-13.84-12.58-5.09 0-10.09 1.35-16.33 4.57l-2.91-5.93c7.49-3.64 13.63-5.2 20-5.2 13.21 0 20.59 6.45 20.59 18.1v35.05h-7.48v-5.1a24.81 24.81 0 0 1-16.85 6c-11.43.04-19.27-6.31-19.27-15.67zm20.59 9.67c6.24 0 11.34-1.87 15.5-6v-9.77c-4.27-2.92-9-4.16-15.08-4.16-8.33 0-13.63 3.95-13.63 10.08 0 5.8 5.46 9.85 13.21 9.85zM555 282h-11.24v-6.56H555v-13.2l7.59-2v15.18h15.7V282h-15.7v31.93c0 5.61 2.29 7.8 8 7.8a18.58 18.58 0 0 0 7.59-1.36v6.76a29.42 29.42 0 0 1-9.15 1.36c-9 0-14-4.37-14-12.59zm54.29 46.48a26.56 26.56 0 0 1-26.84-27c0-15 11.34-26.84 25.69-26.84 13.83 0 24.65 11.86 24.65 26.84v2.39h-42.74c1.14 10.29 9.25 17.89 19.55 17.89 5.41 0 10.81-1.77 14.35-4.79l4.78 5.1a30.82 30.82 0 0 1-19.44 6.41zm-19-30.79h34.84c-1.35-9.26-8.52-16.33-17.16-16.33-9.09 0-16.26 6.76-17.72 16.33zM684.27 322a24.21 24.21 0 0 1-16.85 6.34c-14.66 0-26.21-11.75-26.21-26.93s11.44-26.84 26.31-26.84a26.24 26.24 0 0 1 16.64 5.93v-25.76l7.7-1.77v74.57h-7.59zm-16.12-.42a20.18 20.18 0 0 0 16-7.28v-25.76a20.59 20.59 0 0 0-16-7.18c-10.92 0-19.35 8.53-19.35 20s8.43 20.25 19.35 20.25z"/><path fill="#e00" d="M129 85c12.51 0 30.61-2.58 30.61-17.46a14 14 0 0 0-.31-3.42l-7.45-32.36c-1.72-7.12-3.23-10.35-15.73-16.6C126.39 10.19 105.26 2 99 2c-5.82 0-7.55 7.54-14.45 7.54-6.68 0-11.64-5.6-17.89-5.6-6 0-9.91 4.09-12.93 12.5 0 0-8.41 23.72-9.49 27.16a6.43 6.43 0 0 0-.24 1.94C44 54.76 80.33 85 129 85m32.55-11.42c1.73 8.19 1.73 9.05 1.73 10.13 0 14-15.74 21.77-36.43 21.77C80 105.47 39.08 78.1 39.08 60a18.45 18.45 0 0 1 1.51-7.33C23.77 53.52 2 56.54 2 75.72 2 107.2 76.59 146 135.65 146c45.28 0 56.7-20.48 56.7-36.65 0-12.72-11-27.16-30.83-35.78"/><path d="M161.52 73.57c1.73 8.19 1.73 9.05 1.73 10.13 0 14-15.74 21.77-36.43 21.77C80 105.47 39.08 78.1 39.08 60a18.45 18.45 0 0 1 1.51-7.33l3.66-9.06a6.43 6.43 0 0 0-.25 1.93C44 54.76 80.33 85 129 85c12.51 0 30.61-2.58 30.61-17.46a14 14 0 0 0-.31-3.42zM581.24 94.3c0 11.89 7.15 17.67 20.19 17.67a52.11 52.11 0 0 0 11.89-1.68V96.51a24.84 24.84 0 0 1-7.68 1.16c-5.37 0-7.36-1.68-7.36-6.73V69.8h15.56V55.6h-15.56v-18l-17 3.68V55.6H570v14.2h11.25zm-53 .32c0-3.68 3.69-5.47 9.26-5.47a43.12 43.12 0 0 1 10.1 1.26v7.15a21.51 21.51 0 0 1-10.6 2.63c-5.46 0-8.73-2.1-8.73-5.57m5.2 17.56c6 0 10.84-1.26 15.36-4.31v3.37h16.82V75.58c0-13.56-9.14-21-24.39-21-8.52 0-16.94 2-26 6.1l6.1 12.52c6.52-2.74 12-4.42 16.83-4.42 7 0 10.62 2.73 10.62 8.31v2.73a49.53 49.53 0 0 0-12.62-1.58c-14.31 0-22.93 6-22.93 16.73 0 9.78 7.78 17.24 20.19 17.24m-92.44-.94h18.09V82.42h30.29v28.82h18.09V37.62h-18.05v28.29h-30.29V37.62h-18.09zm-68.89-27.9c0-8 6.31-14.1 14.62-14.1a17.22 17.22 0 0 1 11.78 4.32V93a16.36 16.36 0 0 1-11.78 4.42c-8.2 0-14.62-6.1-14.62-14.09m26.61 27.87h16.83V33.94l-17 3.68v20.93a28.3 28.3 0 0 0-14.2-3.68c-16.19 0-28.92 12.51-28.92 28.5A28.25 28.25 0 0 0 383.8 112a25.12 25.12 0 0 0 14.93-4.83zm-77.19-42.7c5.36 0 9.88 3.47 11.67 8.83H310c1.68-5.57 5.89-8.83 11.57-8.83m-28.74 14.97c0 16.2 13.25 28.82 30.28 28.82 9.36 0 16.2-2.53 23.25-8.42l-11.26-10c-2.63 2.74-6.52 4.21-11.14 4.21a14.39 14.39 0 0 1-13.68-8.83h39.65v-4.2c0-17.67-11.88-30.39-28.08-30.39a28.57 28.57 0 0 0-29 28.81m-29.36-30.39c6 0 9.36 3.78 9.36 8.31s-3.37 8.31-9.36 8.31h-17.88V53.08zm-36 58.16h18.09V84.42h13.77l13.89 26.82h20.19l-16.2-29.45a22.27 22.27 0 0 0 13.88-20.72c0-13.25-10.41-23.45-26-23.45h-37.59z"/></svg>