<svg xmlns="http://www.w3.org/2000/svg" role="img" viewBox="-10.26 60.74 559.52 192.52"><title>Redis logo</title><style>svg {enable-background:new 0 0 540 304}</style><g transform="translate(-166.326 -222.113)"><path fill="#646567" d="M461.78 346.714c0 4.257-3.497 8.057-8.058 8.057-3.497 0-6.537.913-9.121 2.889-2.888 1.826-5.169 4.409-6.992 7.297-3.649 4.865-5.471 10.641-6.232 12.768v28.883c0 4.409-3.8 8.058-8.36 8.058-4.409 0-8.057-3.649-8.057-8.058v-59.894c0-4.409 3.648-7.905 8.057-7.905 4.561 0 8.36 3.497 8.36 7.905v1.065c.912-1.065 2.128-2.28 3.193-3.041 5.017-3.343 11.553-6.08 19.153-5.929 4.56 0 8.057 3.497 8.057 7.905zm-4.458 29.949c.153-20.674 16.266-38.003 37.091-38.003 19.762 0 35.419 14.745 36.637 35.266v.76c0 .305 0 1.063-.152 1.368-.458 3.649-3.649 6.082-7.906 6.082h-48.34c.76 3.497 2.431 7.448 5.169 10.033 3.193 3.649 9.273 6.383 14.592 6.839 5.472.455 12.009-.912 15.81-3.8 3.191-3.345 9.425-2.888 11.401-.458 1.976 2.13 3.496 6.691 0 9.881-7.45 6.839-16.418 10.033-27.212 10.033-20.824-.15-36.937-17.327-37.09-38.001zm16.57-7.449h43.019c-1.52-6.08-9.273-15.049-22.498-16.113-12.92.607-19.305 9.881-20.521 16.113zm134.599 37.245c0 4.409-3.649 8.21-8.21 8.21-4.104 0-7.296-2.888-8.057-6.537-5.776 3.951-13.072 6.537-20.674 6.537-20.521 0-36.939-17.33-36.939-37.852 0-20.827 16.418-38.156 36.939-38.156 7.45 0 14.745 2.431 20.369 6.384v-28.578c0-4.409 3.649-8.21 8.36-8.21 4.561 0 8.21 3.801 8.21 8.21v89.992h.002zm-36.939-51.229c-5.472 0-10.489 2.28-14.288 6.232-3.801 3.801-6.082 9.272-6.082 15.353 0 5.776 2.28 11.248 6.082 15.049 3.798 3.954 8.815 6.233 14.288 6.233 5.624 0 10.489-2.28 14.289-6.233 3.799-3.8 6.08-9.273 6.08-15.049 0-6.082-2.28-11.553-6.08-15.353-3.8-3.952-8.665-6.232-14.289-6.232zm65.865-35.572c0 4.561-3.496 8.36-8.21 8.36-4.561 0-8.208-3.799-8.208-8.36v-3.193a8.175 8.175 0 0 1 8.208-8.21c4.714 0 8.21 3.649 8.21 8.21v3.193zm0 27.515v59.285c0 4.561-3.496 8.21-8.21 8.21a8.174 8.174 0 0 1-8.208-8.21v-59.285c0-4.864 3.648-8.361 8.208-8.361 4.715-.001 8.21 3.496 8.21 8.361zm10.445 45.747c2.736-3.647 8.058-4.103 11.401-1.215 3.952 3.345 10.794 6.839 16.721 6.689 4.104 0 7.905-1.367 10.338-2.888 2.128-1.824 2.735-3.343 2.735-4.561 0-.76-.152-1.063-.455-1.521-.153-.455-.76-1.063-1.977-1.822-2.128-1.521-6.689-3.194-12.161-4.257h-.152c-4.714-.912-9.274-2.128-13.225-3.954-4.104-1.975-7.753-4.711-10.489-8.815-1.672-2.736-2.583-6.08-2.583-9.576 0-6.993 3.952-12.922 8.968-16.723 5.321-3.648 11.706-5.624 18.699-5.624 10.488 0 17.937 5.017 22.802 8.36 3.649 2.433 4.712 7.45 2.432 11.248-2.432 3.649-7.448 4.714-11.248 2.129-4.864-3.191-9.121-5.625-13.985-5.625-3.801 0-7.145 1.216-9.121 2.736-1.976 1.369-2.431 2.737-2.431 3.497 0 .607 0 .76.303 1.215.153.303.608.912 1.673 1.52 1.977 1.368 5.929 2.736 11.097 3.649l.152.153h.153c5.017.91 9.729 2.28 14.137 4.408 4.104 1.824 8.21 4.712 10.794 8.968 1.825 3.04 2.888 6.537 2.888 10.033 0 7.448-4.104 13.682-9.578 17.633-5.472 3.8-12.314 6.082-19.762 6.082-11.856-.152-20.977-5.624-27.058-10.488-3.347-2.737-3.802-7.907-1.068-11.251z"/><path fill="#a52116" d="M359.593 425.845c-10.679 5.566-65.999 28.312-77.776 34.451-11.777 6.142-18.32 6.082-27.624 1.634-9.304-4.448-68.174-28.227-78.778-33.296-5.301-2.534-8.087-4.671-8.087-6.691v-20.227s76.641-16.685 89.015-21.123c12.373-4.439 16.665-4.599 27.194-.742 10.53 3.857 73.489 15.217 83.896 19.028l-.005 19.94c.002 1.999-2.399 4.193-7.835 7.026z"/><path fill="#d92d21" d="M359.593 405.612c-10.679 5.564-65.999 28.312-77.776 34.451-11.777 6.142-18.32 6.082-27.624 1.634-9.305-4.445-68.174-28.229-78.778-33.296-10.605-5.069-10.827-8.558-.409-12.636 10.416-4.081 68.963-27.051 81.338-31.49 12.373-4.437 16.665-4.599 27.194-.741 10.53 3.857 65.52 25.745 75.926 29.556 10.408 3.815 10.808 6.956.129 12.522z"/><path fill="#a52116" d="M359.593 392.861c-10.679 5.566-65.999 28.312-77.776 34.453-11.777 6.139-18.32 6.079-27.624 1.632-9.305-4.445-68.174-28.227-78.778-33.296-5.301-2.534-8.087-4.669-8.087-6.689v-20.229s76.641-16.684 89.015-21.123c12.373-4.438 16.665-4.599 27.194-.742 10.53 3.857 73.489 15.215 83.896 19.027l-.005 19.942c.002 1.998-2.399 4.192-7.835 7.025z"/><path fill="#d92d21" d="M359.593 372.628c-10.679 5.566-65.999 28.312-77.776 34.453-11.777 6.139-18.32 6.079-27.624 1.632-9.305-4.445-68.174-28.228-78.778-33.296-10.605-5.068-10.827-8.557-.409-12.637 10.416-4.078 68.963-27.049 81.338-31.488 12.373-4.438 16.665-4.599 27.194-.742 10.53 3.857 65.52 25.744 75.926 29.556 10.408 3.814 10.808 6.956.129 12.522z"/><path fill="#a52116" d="M359.593 358.653c-10.679 5.566-65.999 28.313-77.776 34.454-11.777 6.139-18.32 6.079-27.624 1.632-9.305-4.445-68.174-28.228-78.778-33.296-5.301-2.534-8.087-4.67-8.087-6.689v-20.229s76.641-16.684 89.015-21.122c12.373-4.439 16.665-4.599 27.194-.742 10.53 3.857 73.489 15.215 83.896 19.027l-.005 19.941c.002 1.998-2.399 4.192-7.835 7.024z"/><path fill="#d92d21" d="M359.593 338.421c-10.679 5.566-65.999 28.313-77.776 34.453-11.777 6.139-18.32 6.079-27.624 1.633-9.304-4.447-68.174-28.228-78.778-33.296-10.605-5.068-10.827-8.558-.409-12.637 10.416-4.079 68.963-27.048 81.338-31.488 12.373-4.439 16.665-4.599 27.194-.741 10.53 3.857 65.52 25.744 75.926 29.556 10.408 3.811 10.808 6.954.129 12.52z"/><path fill="#fff" d="M293.602 318.941l-17.339 1.8-3.882 9.34-6.27-10.423-20.021-1.799 14.939-5.388-4.481-8.269 13.986 5.469 13.187-4.317-3.565 8.552zm-22.256 45.312l-32.361-13.422 46.371-7.117z"/><ellipse cx="226.481" cy="333.739" fill="#fff" rx="24.784" ry="9.607"/><path fill="#79170e" d="M314.093 321.493l27.444 10.846-27.42 10.834z"/><path fill="#ad2317" d="M283.732 333.504l30.361-12.011.024 21.68-2.976 1.165z"/></g></svg>