<svg xmlns="http://www.w3.org/2000/svg" role="img" viewBox="32.01 31.76 376.48 360.73"><style>svg {enable-background:new 0 0 437.7 431.5}</style><style>.st1,.st4{fill-rule:evenodd;clip-rule:evenodd;fill:#54476e}.st4{fill:#fff}.st5{fill:#ffb03f}.st6{fill:#ed9140}</style><path fill="#54476e" d="M85.8 383.4l-15.9-17.9c10-2 13.3-9.3 13.3-16.5 0-9.1-6.5-17.4-18.9-17.4h-25V384h9.9v-17.5h9.5L74 384h11.8v-.6zm-21.5-42.7c6.2 0 9 4.2 9 8.4s-2.7 8.4-9 8.4H49.2v-16.9h15.1zm50.4-10.2c-18.1 0-27 13.9-27 27.7 0 13.8 8.6 27.1 27 27.1s26.8-13.6 26.9-27.2c.2-13.7-8.8-27.6-26.9-27.6zm0 9c12.4 0 17.3 9.9 17.2 18.7-.1 8.6-4.8 17.9-17.2 17.9s-17-9.2-17.2-17.8c-.3-8.8 4.8-18.8 17.2-18.8zm58-9c-18.2 0-27 13.9-27 27.7 0 13.8 8.5 27.1 27 27.1 18.4 0 26.8-13.6 26.9-27.2.2-13.7-8.8-27.6-26.9-27.6zm0 9c12.4 0 17.3 9.9 17.2 18.7-.1 8.6-4.8 17.9-17.2 17.9-12.4 0-17-9.2-17.2-17.8-.3-8.8 4.8-18.8 17.2-18.8zm101.9-9c-18.1 0-27 13.9-27 27.7 0 13.8 8.6 27.1 27 27.1 18.5 0 26.8-13.6 26.9-27.2.2-13.7-8.8-27.6-26.9-27.6zm0 9c12.4 0 17.3 9.9 17.2 18.7-.1 8.6-4.8 17.9-17.2 17.9s-17-9.2-17.2-17.8c-.3-8.8 4.8-18.8 17.2-18.8zm68.8-7.9v30.1c0 9-4.7 14.5-12.8 14.5-8.2 0-13.6-5-13.6-14.5v-30.1h-9.8v30.1c0 15.8 10.7 23.5 23.3 23.5 13.2 0 22.7-8 22.7-23.5v-30.1h-9.8zM204.7 384h9.9v-23.4l22.2 23.4H249v-.6l-25.3-26.5 23.3-25.2v-.3h-12.3L214.6 354v-22.5h-9.9V384zm170.2 0h9.9v-43.6h16.6v-9h-43.2v9h16.7V384z"/><path d="M250.9 39c-2.1 3.6-4.5 7.2-7.6 9.8-6.3 5.3-14.7 5.7-22.5 5.3h-.4c-26.1 0-47.4 21.3-47.4 47.4v21l-1 .9c-11.8 10.3-16.5 24.8-16.5 40.2 0 17 6.5 35.3 15.9 50.4h-29.7c-9.2 0-15.8-5.1-18.3-13h-17v2.2c0 20.5 16.5 29.5 34.4 29.5h38l-7.9 28.9c-2 7.4-2.3 15.6 1.4 22.5 2.7 5.2 7.3 9 13 10.4 4 1 8.2.7 12-.8l2.4-1 1.3 2.2c.6 1 1.2 1.9 1.9 2.8 4.2 5.4 10.5 8.8 17.5 8.8s13.2-3.4 17.5-8.8c.7-.9 1.3-1.8 1.9-2.8l1.3-2.2 2.4 1c3.7 1.5 7.8 1.8 11.7.8 5.7-1.4 10.2-5.2 12.9-10.4 3.6-7 3.3-15.2 1.3-22.6l-7.9-28.9h38c17.9 0 34.4-9 34.4-29.5v-2.2h-17c-2.5 7.9-9.1 13-18.3 13h-29.7c9.4-15.1 15.9-33.3 15.9-50.4 0-15.4-4.6-29.8-16.5-40.2l-.4-.3 23.2-15c-3.7-10.2-19.3-23.9-28-28.4-1.3-2.7-2.8-5.1-4.5-7.3L258 71l.6-1.6c3.2-8.5-2.4-21.8-7.7-30.4" class="st1"/><path fill="#af6bd6" fill-rule="evenodd" d="M254 232.5l8.4 30.9c6.7 24.7-17.1 32.9-25.7 11.9 1.6 31.4-33.7 31.4-32.1 0-8.6 21-32.9 12.8-26.2-11.9l8.4-30.9h4.6c10.1 0 17.9 5.5 20.3 15.6H229c2.4-10.1 10.2-15.6 20.3-15.6h4.7zm6.2-106.3c10.8 7.5 17.5 19.5 17.5 37.3 0 13.6-4.7 28.5-12 41.7-1.9-1.3-4.6-1.3-8.3-1.9-2.2-.3-3.9-2.3-7.7-2.4-3.9-.1-5.7 2.2-7.8 2.4-4.4.5-6.9.2-8.9 2-1.3 1.2-2.1 3.6-2.3 5.4-.1 1.1-.2 2.2-.2 3.4 0 1.1-.1 2.1-.1 3.2-3.2 1.9-6 4.8-8.3 9.3l-1.7 3.2-1.7-3.2c-2.4-4.5-5.1-7.4-8.3-9.3 0-1.1 0-2.1-.1-3.2-.1-1.2-.1-2.3-.2-3.4-.2-1.8-1-4.1-2.3-5.4-1.9-1.8-4.5-1.5-8.9-2-2-.3-3.9-2.5-7.8-2.4-3.9.1-5.6 2-7.7 2.4-3.7.6-6.4.6-8.3 1.9-7.3-13.2-12-28.1-12-41.7 0-17.8 6.7-29.8 17.5-37.3l10.2-6.3c2.5-1.7 2.8-3.3-1.2-2.9l-9 .8v-16.3c0-21.9 17.9-39.8 39.8-39.8 0 0 24.8 1.2 29.6-9.7 4.6 8.8 2.2 16.2-2.5 20.5 3.5 1.6 6.8 5.5 9.1 10.2-9.2 12.2-9.2 32.5 3.6 43.5z" clip-rule="evenodd"/><path fill="#8c55b7" fill-rule="evenodd" d="M175.1 205.2c-7.3-13.2-12-28.1-12-41.7 0-17.8 6.7-29.8 17.5-37.3l10.2-6.3c2.5-1.7 2.8-3.3-1.2-2.9l-9 .8v-16.3c0-13.9 7.2-26.2 18.2-33.4-14.6 17-6 45.4 8.4 52.5-35.6 21.9-24.7 52.9-8.6 82.7-1.9-.4-3.8-2.4-7.4-2.4-3.9.1-5.6 2-7.7 2.4-3.8.6-6.5.6-8.4 1.9M250 52c4.6 8.8 2.2 16.2-2.5 20.5-2.3-1-3.7-1.4-5.7-1.9-.5-.1-1-.9-.1-1.5 5.3-3.5 8.7-8.6 8.3-17.1zm-28.2 246.8c-8.8.8-18-7.1-17.2-23.5-8.6 21-32.9 12.8-26.2-11.9l8.4-30.9h4.6c10.1 0 17.9 5.5 20.3 15.6h17v.2c-8.1 16.7-6.9 32.6-6.9 50.5z" clip-rule="evenodd"/><path d="M220.4 137.7c20.1 0 36.5 15.2 36.5 41 0 7.7-1.9 15.4-5 22.5-.7-.2-1.4-.3-2.2-.3-3.9-.1-5.7 2.2-7.8 2.4-4.4.5-6.9.2-8.9 2-1.3 1.2-2.1 3.6-2.3 5.4-.1 1.1-.2 2.2-.2 3.4 0 1.1-.1 2.1-.1 3.2-3.2 1.9-6 4.8-8.3 9.3l-1.7 3.2-1.7-3.2c-2.4-4.5-5.1-7.4-8.3-9.3 0-1.1 0-2.1-.1-3.2-.1-1.2-.1-2.3-.2-3.4-.2-1.8-1-4.1-2.3-5.4-1.9-1.8-4.5-1.5-8.9-2-2-.3-3.9-2.5-7.8-2.4-.8 0-1.6.1-2.2.3-3.1-7.1-5-14.8-5-22.5 0-25.7 16.3-41 36.5-41" class="st4"/><path d="M273.3 94.8c-4-3.6-8.4-6.7-12.8-9.2-3.5 6.4-4.8 12.5-4.6 17.8.2 6.5 2.5 11.8 5.3 15.2l22-12.8c-2.9-4-6.2-7.7-9.9-11" class="st5"/><path d="M256.6 109.2c.9 3.9 2.6 7.1 4.5 9.4l22-12.8c-8.5 2.5-17.6 3.6-26.5 3.4" class="st6"/><path fill="#ffce92" d="M278.3 102.8c-4-5.1-8.7-8.8-15.2-12.9-1.1 1.5-1.7 3.4-2.1 5.3 5.7 2.6 11.5 5.1 17.3 7.6"/><path d="M228.9 85.4c2.5 0 4.6 2 4.6 4.6 0 2.5-2 4.6-4.6 4.6-2.5 0-4.6-2-4.6-4.6 0-2.5 2-4.6 4.6-4.6" class="st4"/><path d="M193.4 208.2c-.6-.6-1.4-.9-2.3-.9-.8 0-1.6.3-2.2.9-.6.6-1 1.3-1 2.1 0 1.3-.1 2.5-.1 3.7v7.4c0 1.2 0 2.5.1 3.7 0 .8.4 1.6 1 2.1s1.4.9 2.3.9c.9 0 1.7-.4 2.3-.9.6-.6 1-1.3 1-2.1 0-1.3.1-2.5.1-3.7V214c0-1.2-.1-2.5-.1-3.7 0-.8-.4-1.6-1.1-2.1m-11.9.2h-.2c-.9.1-1.8.5-2.5 1.2s-1.2 1.5-1.3 2.5c-.1.9-.2 1.8-.2 2.7 0 .9-.1 1.8-.1 2.7v2.7c0 .8.1 1.7.1 2.7.1.9.6 1.8 1.3 2.4.7.7 1.6 1.1 2.6 1.2h.2c.7 0 1.3-.3 1.8-.8s.8-1.2.9-2v-9.1c0-1 0-2 .1-2.9v-.4c-.1-.8-.4-1.5-.9-2-.5-.6-1.1-.9-1.8-.9zm22 1.3c-.7-.7-1.6-1.2-2.5-1.2h-.2c-.7 0-1.3.3-1.7.8-.5.5-.8 1.3-.9 2.2v.4c0 1 .1 2 .1 3.1v6c0 1-.1 2.1-.1 3.1v.5c.1.9.4 1.6.9 2.1.4.5 1 .7 1.7.8h.2c.9-.1 1.8-.6 2.5-1.3.7-.7 1.3-1.7 1.4-2.7.1-.9.2-1.9.2-2.8 0-1 .1-1.9.1-2.8 0-.9 0-1.9-.1-2.8 0-.9-.1-1.8-.2-2.8-.2-1-.7-1.9-1.4-2.6z" class="st6"/><path d="M194.6 218.5c-.9 1.5-2.1 2.5-3.4 2.5-1.4 0-2.6-1-3.5-2.6v-4.3c0-1.2.1-2.5.1-3.7 0-.8.4-1.6 1-2.1s1.4-.9 2.2-.9c.9 0 1.7.4 2.3.9.6.6 1 1.3 1.1 2.1 0 1.3.1 2.5.1 3.7v3.7l.1.7zm-10.5-1.3c-.9 1.4-2 2.2-3.3 2.2-1.4 0-2.7-1.1-3.6-2.8 0-.6 0-1.3.1-1.9 0-.8.1-1.7.2-2.7.1-.9.6-1.8 1.3-2.5.7-.7 1.6-1.1 2.5-1.2h.2c.7 0 1.3.3 1.8.8s.8 1.2.9 2v.4c0 .9-.1 1.9-.1 2.9v2.8zm19.4-7.5c-.7-.7-1.6-1.2-2.5-1.2h-.2c-.7 0-1.3.3-1.7.8-.5.5-.8 1.3-.9 2.2v.4c0 1 .1 2 .1 3.1v1.9c.9 1.6 2.1 2.6 3.5 2.6 1.3 0 2.5-.9 3.4-2.5 0-.6 0-1.3-.1-1.9 0-.9-.1-1.8-.2-2.8-.2-1-.7-1.9-1.4-2.6z" class="st5"/><path d="M247.4 208.2c.6-.6 1.4-.9 2.3-.9.8 0 1.6.3 2.2.9.6.6 1 1.3 1 2.1 0 1.3.1 2.5.1 3.7v7.4c0 1.2 0 2.5-.1 3.7 0 .8-.4 1.6-1 2.1s-1.4.9-2.3.9c-.9 0-1.7-.4-2.3-.9-.6-.6-1-1.3-1-2.1 0-1.3-.1-2.5-.1-3.7V214c0-1.2.1-2.5.1-3.7 0-.8.4-1.6 1.1-2.1m11.9.2h.2c.9.1 1.8.5 2.5 1.2s1.2 1.5 1.3 2.5c.1.9.2 1.8.2 2.7 0 .9.1 1.8.1 2.7v2.7c0 .8-.1 1.7-.1 2.7-.1.9-.6 1.8-1.3 2.4-.7.7-1.6 1.1-2.6 1.2h-.2c-.7 0-1.3-.3-1.8-.8s-.8-1.2-.9-2v-9.1c0-1 0-2-.1-2.9v-.4c.1-.8.4-1.5.9-2 .5-.6 1.1-.9 1.8-.9zm-22 1.3c.7-.7 1.6-1.2 2.5-1.2h.2c.7 0 1.3.3 1.7.8.5.5.8 1.3.9 2.2v.4c0 1-.1 2-.1 3.1v6c0 1 0 2.1.1 3.1v.5c-.1.9-.4 1.6-.9 2.1-.4.5-1 .7-1.7.8h-.2c-.9-.1-1.8-.6-2.5-1.3-.7-.7-1.3-1.7-1.4-2.7-.1-.9-.2-1.9-.2-2.8 0-1-.1-1.9-.1-2.8 0-.9 0-1.9.1-2.8 0-.9.1-1.8.2-2.8.2-1 .7-1.9 1.4-2.6z" class="st6"/><path d="M246.2 218.5c.9 1.5 2.1 2.5 3.4 2.5 1.3 0 2.6-1 3.5-2.6v-4.3c0-1.2-.1-2.5-.1-3.7 0-.8-.4-1.6-1-2.1s-1.4-.9-2.2-.9c-.9 0-1.7.4-2.3.9-.6.6-1 1.3-1.1 2.1 0 1.3-.1 2.5-.1 3.7v3.7l-.1.7zm10.5-1.3c.9 1.4 2 2.2 3.3 2.2 1.4 0 2.7-1.1 3.6-2.8 0-.6 0-1.3-.1-1.9 0-.8-.1-1.7-.2-2.7-.1-.9-.6-1.8-1.3-2.5-.7-.7-1.6-1.1-2.5-1.2h-.2c-.7 0-1.3.3-1.8.8s-.8 1.2-.9 2v.4c0 .9.1 1.9.1 2.9v2.8zm-19.4-7.5c.7-.7 1.6-1.2 2.5-1.2h.2c.7 0 1.3.3 1.7.8.5.5.8 1.3.9 2.2v.4c0 1-.1 2-.1 3.1v1.9c-.9 1.6-2.1 2.6-3.5 2.6-1.3 0-2.5-.9-3.4-2.5 0-.6 0-1.3.1-1.9 0-.9.1-1.8.2-2.8.2-1 .7-1.9 1.4-2.6z" class="st5"/><circle cx="224.8" cy="94.2" r="11.9" class="st1"/><circle cx="228.7" cy="89.7" r="3.8" class="st4"/></svg>