<svg xmlns="http://www.w3.org/2000/svg" role="img" viewBox="68.48 -2.77 260.78 249.78"><title>Rookout (member) logo</title><path fill="none" d="M0 0h400v245H0z" pointer-events="none"/><defs><clipPath id="a"><path d="M0 0h400v245H0V0z"/></clipPath></defs><g clip-path="url(#a)" transform="translate(-46.136 -24.687) scale(1.22017)"><clipPath id="b"><path fill="#FFF" d="M75.746 0h248.508v245H75.746V0z"/></clipPath><g clip-path="url(#b)"><path fill="#54476E" d="M288.62 218.044h5.619v-24.74h9.454v-5.109h-24.526v5.109h9.453v24.74zm-96.681 0h5.621v-13.313l12.61 13.313h6.941v-.341L202.76 202.65l13.244-14.285v-.17h-6.983l-11.461 12.768v-12.768h-5.621v29.849zm78.785-29.765v17.075c0 5.106-2.64 8.218-7.282 8.218-4.641 0-7.707-2.853-7.707-8.218v-17.075h-5.577v17.075c0 8.979 6.088 13.329 13.242 13.329 7.494 0 12.902-4.514 12.902-13.329v-17.075h-5.578zm-39.077 4.472c7.026 0 9.836 5.623 9.752 10.644-.082 4.895-2.726 10.177-9.752 10.177-7.026 0-9.67-5.239-9.793-10.134-.126-5.021 2.767-10.687 9.793-10.687zm0-5.11c-10.304 0-15.33 7.877-15.33 15.712s4.856 15.373 15.33 15.373c10.476 0 15.205-7.71 15.287-15.415.083-7.79-5.025-15.67-15.287-15.67zm-57.844 5.11c7.025 0 9.836 5.622 9.749 10.644-.083 4.897-2.724 10.177-9.749 10.177-7.026 0-9.668-5.237-9.794-10.134-.129-5.024 2.768-10.687 9.794-10.687zm0-5.11c-10.305 0-15.329 7.877-15.329 15.712s4.853 15.373 15.329 15.373c10.475 0 15.202-7.708 15.286-15.415.086-7.792-5.025-15.67-15.286-15.67zm-32.945 5.11c7.026 0 9.837 5.622 9.751 10.644-.083 4.897-2.725 10.177-9.751 10.177s-9.669-5.238-9.793-10.134c-.129-5.024 2.767-10.687 9.793-10.687zm0-5.11c-10.304 0-15.329 7.877-15.329 15.712s4.855 15.373 15.329 15.373 15.202-7.708 15.287-15.415c.085-7.792-5.024-15.67-15.287-15.67zm-28.617 5.792c3.534 0 5.11 2.391 5.11 4.79 0 2.398-1.534 4.789-5.11 4.789h-8.558v-9.579h8.558zm12.221 24.227l-9.026-10.176c5.662-1.149 7.536-5.281 7.536-9.389 0-5.174-3.705-9.9-10.731-9.9h-14.18v29.849h5.622v-9.964h5.408l8.685 9.964h6.686v-.384z"/><path fill="#54476E" fill-rule="evenodd" d="M218.193 22.116c-1.216 2.043-2.563 4.097-4.303 5.571-3.554 3.009-8.364 3.226-12.803 2.995l-.098-.005h-.112c-14.815 0-26.922 12.105-26.922 26.922v11.919l-.587.514c-6.715 5.868-9.349 14.064-9.349 22.808 0 9.681 3.706 20.037 9.048 28.598h-16.844c-5.211 0-8.948-2.905-10.363-7.398h-9.681v1.223c0 11.623 9.388 16.74 19.559 16.74h21.577l-4.458 16.421c-1.139 4.197-1.283 8.853.789 12.793 1.542 2.932 4.17 5.103 7.399 5.906a11.14 11.14 0 0 0 6.821-.473l1.37-.546.746 1.272c.329.561.695 1.101 1.096 1.615 2.41 3.089 5.978 5.002 9.925 5.002 3.946 0 7.514-1.913 9.923-5.002a14.85 14.85 0 0 0 1.089-1.602l.747-1.268 1.367.543a10.91 10.91 0 0 0 6.662.472c3.214-.79 5.814-2.963 7.334-5.882 2.06-3.953 1.901-8.628.761-12.828l-4.459-16.423h21.592c10.172 0 19.556-5.117 19.556-16.74v-1.223h-9.677c-1.416 4.493-5.154 7.398-10.365 7.398h-16.846c5.343-8.561 9.048-18.917 9.048-28.598 0-8.744-2.634-16.94-9.349-22.808l-.219-.192 13.187-8.529c-2.127-5.811-10.965-13.588-15.908-16.133-.727-1.509-1.597-2.916-2.578-4.129l-.617-.765.346-.919c1.803-4.788-1.415-12.324-4.404-17.249z"/><path fill="#AF6BD6" fill-rule="evenodd" d="M223.477 71.677c6.126 4.256 9.937 11.073 9.937 21.164 0 7.707-2.673 16.184-6.826 23.652-1.062-.725-2.593-.719-4.708-1.052-1.239-.196-2.203-1.316-4.394-1.347-2.192-.031-3.238 1.235-4.401 1.377-2.487.307-3.939.098-5.038 1.143-.745.708-1.206 2.019-1.302 3.042-.057.599-.1 1.236-.129 1.906a41.39 41.39 0 0 0-.036 1.841c-1.819 1.08-3.388 2.735-4.735 5.252l-.966 1.809-.966-1.809c-1.357-2.537-2.924-4.196-4.739-5.276a41.877 41.877 0 0 0-.036-1.817 37.184 37.184 0 0 0-.128-1.906c-.097-1.023-.558-2.334-1.303-3.042-1.099-1.045-2.551-.836-5.038-1.143-1.162-.142-2.209-1.408-4.401-1.377-2.191.031-3.156 1.151-4.394 1.347-2.115.333-3.645.327-4.708 1.052-4.153-7.468-6.825-15.945-6.825-23.652 0-10.091 3.81-16.908 9.936-21.164l5.769-3.593c1.422-.943 1.587-1.856-.672-1.665l-5.097.431v-9.251c0-12.43 10.17-22.601 22.6-22.601 0 0 14.096.706 16.822-5.502 2.611 5.013 1.24 9.205-1.406 11.616 2.002.895 3.855 3.104 5.177 5.775-5.247 6.975-5.28 18.507 2.007 24.79zm-3.528 60.326l4.767 17.554c3.812 14.045-9.705 18.662-14.604 6.761.903 17.804-19.122 17.804-18.22 0-4.898 11.901-18.678 7.288-14.865-6.761l4.766-17.554h2.632c5.752 0 10.146 3.106 11.529 8.831h9.846c1.384-5.725 5.778-8.831 11.529-8.831h2.62z"/><path fill="#8C55B7" fill-rule="evenodd" d="M201.66 169.64c-4.989.427-10.24-4.011-9.768-13.322-4.899 11.9-18.679 7.288-14.864-6.76l4.765-17.555h2.632c5.751 0 10.146 3.106 11.529 8.831h9.661l-.007.09c-4.625 9.521-3.948 18.572-3.948 28.716zm16.039-140.144c2.611 5.013 1.24 9.205-1.406 11.616a18.803 18.803 0 0 0-3.258-1.067c-.295-.072-.581-.495-.044-.846 3.02-1.972 4.897-4.863 4.708-9.703zm-42.533 86.996c-4.152-7.468-6.826-15.944-6.826-23.652 0-10.09 3.811-16.908 9.937-21.163l5.769-3.593c1.422-.943 1.587-1.856-.671-1.666l-5.098.432v-9.251c0-7.909 4.116-14.9 10.312-18.942-8.299 9.65-3.403 25.778 4.791 29.803-20.226 12.432-14.004 30.039-4.908 46.977-1.087-.248-2.137-1.372-4.204-1.343-2.191.031-3.155 1.151-4.394 1.346-2.115.334-3.645.328-4.708 1.052"/><path fill="#FFF" fill-rule="evenodd" d="M200.877 78.198c11.438 0 20.71 8.646 20.71 23.28 0 4.353-1.086 8.746-2.833 12.769a5.763 5.763 0 0 0-1.268-.153c-2.192-.031-3.238 1.235-4.401 1.377-2.487.307-3.939.098-5.038 1.142-.746.708-1.206 2.02-1.302 3.043a36.047 36.047 0 0 0-.129 1.906c-.026.605-.036 1.22-.036 1.841-1.819 1.08-3.388 2.735-4.734 5.252l-.967 1.809-.967-1.809c-1.355-2.537-2.922-4.196-4.738-5.276a40.343 40.343 0 0 0-.164-3.723c-.097-1.023-.558-2.335-1.303-3.043-1.099-1.044-2.551-.835-5.037-1.142-1.163-.142-2.21-1.408-4.402-1.377a5.827 5.827 0 0 0-1.268.152c-1.747-4.023-2.832-8.415-2.832-12.768 0-14.634 9.272-23.28 20.709-23.28z"/><path fill="#FFB03F" d="M230.913 53.812c-2.275-2.049-4.766-3.822-7.286-5.2-1.996 3.633-2.708 7.072-2.621 10.081.105 3.691 1.407 6.72 2.991 8.634l12.5-7.258c-1.581-2.254-3.49-4.371-5.584-6.257z"/><path fill="#ED9140" d="M221.442 62.005c.527 2.197 1.475 4.018 2.555 5.322l12.5-7.259a50.933 50.933 0 0 1-15.055 1.937z"/><path fill="#FFCE92" d="M233.727 58.346c-2.268-2.873-4.939-5.008-8.644-7.299-.63.86-.986 1.904-1.199 3.03l9.843 4.269z"/><path fill="#FFF" fill-rule="evenodd" d="M205.683 48.509a2.597 2.597 0 1 1 0 5.195 2.597 2.597 0 1 1 0-5.195z"/><path fill="#ED9140" d="M191.272 119.038c-.408-.392-.926-.654-1.438-.687v-.001a1.398 1.398 0 0 0-1.091.446c-.292.306-.479.741-.513 1.241a2.373 2.373 0 0 0-.005.25 87.973 87.973 0 0 1 .049 3.465v.003a114.73 114.73 0 0 1-.07 3.464c-.004.085-.001.18.007.279v.003c.038.487.224.909.51 1.206.25.259.581.421.946.432.034.001.08 0 .136-.004v.001c.506-.047 1.021-.319 1.433-.72.423-.413.722-.951.779-1.511.053-.521.093-1.052.119-1.59a36.045 36.045 0 0 0 .011-3.2 33.03 33.03 0 0 0-.112-1.593c-.053-.557-.345-1.083-.761-1.484zm-12.474-.717c-.029-.002-.068 0-.113.001-.514.038-1.025.292-1.424.666-.407.38-.688.876-.736 1.394a35.675 35.675 0 0 0-.165 3.029c-.007.504-.006 1.009.008 1.516.013.483.039.982.082 1.506.042.511.32 1.002.725 1.377.404.376.926.63 1.453.667a1.477 1.477 0 0 0 1.134-.427c.29-.285.478-.688.512-1.151.005-.078.007-.148.006-.21a80.658 80.658 0 0 1-.025-1.648 127.877 127.877 0 0 1 .023-3.276c.011-.56.025-1.111.042-1.647.001-.062 0-.133-.004-.208a1.794 1.794 0 0 0-.51-1.156 1.475 1.475 0 0 0-1.008-.433zm6.772-.14a2.025 2.025 0 0 0-1.302-.522 1.93 1.93 0 0 0-1.266.5c-.346.315-.571.743-.584 1.207a197.44 197.44 0 0 0-.051 2.123 151.206 151.206 0 0 0-.021 4.235c.007.696.021 1.401.044 2.115.015.461.243.89.594 1.207.346.311.806.509 1.291.516a1.976 1.976 0 0 0 1.286-.512c.35-.316.577-.745.594-1.209.025-.718.045-1.424.059-2.112.016-.709.025-1.415.026-2.112a114.978 114.978 0 0 0-.072-4.225c-.017-.463-.246-.893-.598-1.211z"/><path fill="#FFB03F" d="M191.272 119.038c-.408-.392-.926-.654-1.438-.687v-.001a1.398 1.398 0 0 0-1.091.446c-.292.306-.479.741-.513 1.241a2.373 2.373 0 0 0-.005.25 87.973 87.973 0 0 1 .05 2.832c.51.91 1.203 1.47 1.969 1.47.745 0 1.424-.532 1.929-1.401a32.439 32.439 0 0 0-.028-1.073 33.03 33.03 0 0 0-.112-1.593c-.053-.557-.345-1.083-.761-1.484zm-11.014 4.287c-.496.788-1.142 1.264-1.847 1.264-.802 0-1.527-.616-2.042-1.605a35.675 35.675 0 0 1 .156-2.602c.048-.518.329-1.014.736-1.394.399-.374.91-.628 1.424-.666.045-.001.084-.003.113-.001.392.009.744.172 1.008.433.289.288.478.692.51 1.156.004.075.005.146.004.208a136.87 136.87 0 0 0-.062 3.207zm5.981.722c-.506.865-1.184 1.395-1.927 1.395-.766 0-1.462-.563-1.971-1.474l.001-.362c.003-.7.012-1.407.025-2.117.013-.699.03-1.408.051-2.123.013-.464.238-.892.584-1.207a1.93 1.93 0 0 1 1.266-.5c.489.009.953.209 1.302.522.352.318.581.748.598 1.211a114.978 114.978 0 0 1 .072 4.225l-.001.43z"/><path fill="#ED9140" d="M210.482 119.038c.408-.392.926-.654 1.437-.687v-.001c.046-.002.086-.003.115-.002.378.01.72.178.978.448.291.306.479.741.513 1.241.005.088.007.173.005.25a90.633 90.633 0 0 0-.05 3.465v.003a114.73 114.73 0 0 0 .07 3.464c.003.085.001.18-.007.279v.003c-.038.487-.225.909-.51 1.206a1.366 1.366 0 0 1-1.082.428v.001c-.506-.047-1.022-.319-1.433-.72-.423-.413-.721-.951-.779-1.511a31.163 31.163 0 0 1-.119-1.59 34.942 34.942 0 0 1-.01-3.2c.021-.501.058-1.032.111-1.593.053-.557.345-1.083.761-1.484zm12.474-.717c.029-.002.068 0 .113.001.514.038 1.026.292 1.425.666.406.38.687.876.736 1.394.051.534.088 1.038.114 1.513a38.34 38.34 0 0 1 .042 3.032c-.012.483-.038.982-.082 1.506-.043.511-.32 1.002-.725 1.377-.404.376-.927.63-1.452.667a1.486 1.486 0 0 1-1.136-.427 1.786 1.786 0 0 1-.51-1.151c-.007-.078-.009-.148-.007-.21.015-.541.022-1.092.026-1.648.003-.547.001-1.094-.004-1.639a137.463 137.463 0 0 0-.061-3.284 1.647 1.647 0 0 1 .004-.208c.032-.464.219-.868.508-1.156a1.48 1.48 0 0 1 1.009-.433zm-6.772-.14a2.025 2.025 0 0 1 1.302-.522c.481.005.93.197 1.265.5.349.315.572.743.585 1.207a174.525 174.525 0 0 1 .076 4.24 102.077 102.077 0 0 1-.048 4.233c-.015.461-.243.89-.593 1.207a1.995 1.995 0 0 1-1.292.516 1.972 1.972 0 0 1-1.285-.512c-.351-.316-.578-.745-.594-1.209-.025-.718-.046-1.424-.06-2.112a107.361 107.361 0 0 1 .045-6.337c.018-.463.247-.893.599-1.211z"/><path fill="#FFB03F" d="M210.482 119.038c.408-.392.926-.654 1.437-.687v-.001c.046-.002.086-.003.115-.002.378.01.72.178.978.448.291.306.479.741.513 1.241.005.088.007.173.005.25-.02.569-.034 1.148-.041 1.734a80.12 80.12 0 0 0-.009 1.098c-.51.91-1.205 1.47-1.969 1.47-.746 0-1.425-.532-1.931-1.401a30.607 30.607 0 0 1 .141-2.666c.053-.557.345-1.083.761-1.484zm11.014 4.287c.496.788 1.142 1.264 1.847 1.264.803 0 1.527-.616 2.042-1.605a47.17 47.17 0 0 0-.041-1.089 37.41 37.41 0 0 0-.114-1.513c-.049-.518-.33-1.014-.736-1.394-.399-.374-.911-.628-1.425-.666-.045-.001-.084-.003-.113-.001a1.48 1.48 0 0 0-1.009.433 1.792 1.792 0 0 0-.508 1.156 1.647 1.647 0 0 0-.004.208 137.463 137.463 0 0 1 .061 3.207zm-5.98.722c.505.865 1.182 1.395 1.927 1.395.765 0 1.461-.563 1.97-1.474l-.001-.362a174.525 174.525 0 0 0-.076-4.24c-.013-.464-.236-.892-.585-1.207a1.926 1.926 0 0 0-1.265-.5 2.025 2.025 0 0 0-1.302.522c-.352.318-.581.748-.599 1.211a111.068 111.068 0 0 0-.071 4.225l.002.43z"/><path fill="#54476E" fill-rule="evenodd" d="M210.146 53.476a6.76 6.76 0 1 1-13.521-.001 6.76 6.76 0 0 1 13.521.001z"/><path fill="#FFF" fill-rule="evenodd" d="M207.745 50.927a2.18 2.18 0 1 1-4.358 0 2.18 2.18 0 0 1 4.358 0z"/></g></g></svg>