<svg xmlns="http://www.w3.org/2000/svg" role="img" viewBox="79.20 60.70 420.10 457.60"><title>Roost Desktop logo</title><path fill="#3A0500" d="M372.904 477.751l-31.019-144.236-7.117-16.015-55.512 31.083-.969-1.03v2.063l-91.379 128.785 31.115-26.408 10.383 32.883 50.85-3.174 50.851 3.174 10.963-34.715z"/><path fill="#F68527" d="M287.055 202.02l-16.971 23.473 57.418 73.84 14.383 34.402-60.174 57.075 91.193 87.165 14.207-34.977z"/><path fill="#E2292A" d="M272.76 202.67l82.888 114.658-168.74 161.293-14.211-34.978z"/><path fill="#E2292A" d="M259.291 422.479c-8.326 14.811-45.084 80.2-46.631 82.898-1.744 3.046-.477 5.752 3.426 3.991 3.898-1.757 38.393-17.304 38.393-17.304h.02c1.521-16.265 5.715-61.043 6.686-71.588-.755.51-1.427 1.172-1.894 2.003z"/><path fill="#E94829" d="M278.289 418.214l.004.131c-4.037.244-12.605.774-13.996.945-1.027.122-2.139.527-3.113 1.187-.971 10.545-5.164 55.323-6.686 71.588l24.813-1.912v-71.875c-.637-.037-1.022-.064-1.022-.064z"/><path fill="#FCA326" d="M299.283 422.479c8.328 14.811 45.088 80.2 46.631 82.898 1.744 3.046.477 5.752-3.424 3.991-3.9-1.757-38.395-17.304-38.395-17.304h-.016c-1.525-16.265-5.719-61.043-6.693-71.588.759.51 1.43 1.172 1.897 2.003z"/><path fill="#F68527" d="M280.281 418.214v.131c4.039.244 12.605.774 13.992.945 1.029.122 2.143.527 3.113 1.187.975 10.545 5.168 55.323 6.693 71.588l-24.816-1.912v-71.875c.637-.037 1.018-.064 1.018-.064z"/><path fill="#3A0500" d="M169.139 200.582l100.091 13.342 50.559-6.525 12.16-14.827 16.018 4.004-3.612 7.654 48.985-6.319 4.449 26.689-117.439 14.679-105.873-8.003z"/><g fill="#58595B"><path d="M93.07 170.451c-1.445 0-2.634-.466-3.566-1.401-.937-.934-1.401-2.122-1.401-3.567V75.922c0-1.443.465-2.632 1.401-3.567.933-.934 2.121-1.401 3.566-1.401h23.823c6.199 0 11.721 1.296 16.562 3.886 4.842 2.592 8.642 6.201 11.402 10.829 2.759 4.63 4.141 9.959 4.141 15.989 0 6.625-1.783 12.379-5.351 17.262-3.567 4.885-8.325 8.344-14.269 10.383l20.894 33.505c1.273 2.039 1.507 3.822.7 5.351-.809 1.529-2.356 2.293-4.65 2.293-1.104 0-1.975-.211-2.611-.637-.637-.424-1.21-1.061-1.72-1.911L119.06 131.34c-.681.085-1.401.127-2.166.127H98.039v34.015c0 1.445-.468 2.633-1.401 3.567-.936.936-2.124 1.402-3.568 1.402zm4.969-48.538h18.854c4.332 0 8.174-.87 11.53-2.611 3.354-1.74 6.007-4.141 7.962-7.198 1.953-3.058 2.93-6.539 2.93-10.446 0-4.161-.977-7.835-2.93-11.02-1.955-3.185-4.608-5.669-7.962-7.453-3.356-1.784-7.198-2.675-11.53-2.675H98.039v41.403zm113.511 49.812c-7.39 0-14.186-1.274-20.384-3.822-6.201-2.548-11.573-6.115-16.116-10.702-4.544-4.586-8.069-9.979-10.573-16.179-2.507-6.199-3.759-12.995-3.759-20.384 0-7.303 1.252-14.056 3.759-20.256 2.504-6.198 6.029-11.593 10.573-16.179 4.543-4.586 9.915-8.153 16.116-10.702 6.198-2.548 12.994-3.822 20.384-3.822 7.304 0 14.056 1.274 20.256 3.822 6.199 2.548 11.594 6.115 16.18 10.702s8.132 9.981 10.638 16.179c2.504 6.201 3.758 12.953 3.758 20.256 0 7.389-1.254 14.185-3.758 20.384-2.506 6.201-6.052 11.593-10.638 16.179-4.586 4.586-9.98 8.154-16.18 10.702-6.201 2.548-12.952 3.822-20.256 3.822zm0-9.427c5.86 0 11.294-1.039 16.307-3.122 5.011-2.08 9.363-5.01 13.059-8.79 3.694-3.778 6.561-8.195 8.599-13.25 2.039-5.052 3.058-10.552 3.058-16.498 0-5.86-1.019-11.316-3.058-16.371-2.038-5.052-4.904-9.469-8.599-13.249-3.695-3.778-8.048-6.708-13.059-8.791-5.013-2.08-10.446-3.122-16.307-3.122-5.946 0-11.424 1.042-16.435 3.122-5.013 2.082-9.363 5.012-13.059 8.791-3.694 3.78-6.561 8.197-8.599 13.249-2.039 5.054-3.058 10.51-3.058 16.371 0 5.946 1.019 11.446 3.058 16.498 2.038 5.054 4.904 9.471 8.599 13.25 3.695 3.78 8.046 6.71 13.059 8.79 5.011 2.083 10.489 3.122 16.435 3.122z"/><path d="M274.101 171.725c-7.39 0-14.186-1.274-20.384-3.822-6.201-2.548-11.573-6.115-16.116-10.702-4.544-4.586-8.069-9.979-10.573-16.179-2.507-6.199-3.759-12.995-3.759-20.384 0-7.303 1.252-14.056 3.759-20.256 2.504-6.198 6.029-11.593 10.573-16.179 4.543-4.586 9.915-8.153 16.116-10.702 6.198-2.548 12.994-3.822 20.384-3.822 7.304 0 14.056 1.274 20.256 3.822 6.199 2.548 11.594 6.115 16.18 10.702s8.132 9.981 10.638 16.179c2.504 6.201 3.758 12.953 3.758 20.256 0 7.389-1.254 14.185-3.758 20.384-2.506 6.201-6.052 11.593-10.638 16.179-4.586 4.586-9.98 8.154-16.18 10.702-6.201 2.548-12.953 3.822-20.256 3.822zm0-9.427c5.86 0 11.294-1.039 16.307-3.122 5.011-2.08 9.363-5.01 13.059-8.79 3.694-3.778 6.561-8.195 8.599-13.25 2.039-5.052 3.058-10.552 3.058-16.498 0-5.86-1.019-11.316-3.058-16.371-2.038-5.052-4.904-9.469-8.599-13.249-3.695-3.778-8.048-6.708-13.059-8.791-5.013-2.08-10.446-3.122-16.307-3.122-5.946 0-11.424 1.042-16.435 3.122-5.013 2.082-9.363 5.012-13.059 8.791-3.694 3.78-6.561 8.197-8.599 13.249-2.039 5.054-3.058 10.51-3.058 16.371 0 5.946 1.019 11.446 3.058 16.498 2.038 5.054 4.904 9.471 8.599 13.25 3.695 3.78 8.046 6.71 13.059 8.79 5.011 2.083 10.488 3.122 16.435 3.122zm100.643 9.427c-8.153 0-15.352-1.74-21.594-5.223-6.243-3.481-10.682-8.11-13.313-13.886-.681-1.358-.7-2.612-.063-3.758s1.72-1.931 3.248-2.357c1.188-.338 2.357-.211 3.504.382 1.146.595 2.017 1.487 2.611 2.675 1.953 3.738 5.18 6.796 9.683 9.172 4.501 2.379 9.81 3.567 15.925 3.567 6.708 0 12.25-1.634 16.625-4.905 4.373-3.269 6.562-8.004 6.562-14.205 0-5.179-1.911-9.638-5.733-13.376-3.822-3.736-9.81-6.115-17.963-7.134-9.938-1.188-17.708-4.268-23.313-9.236-5.605-4.969-8.408-11.062-8.408-18.282 0-5.179 1.379-9.682 4.14-13.504 2.76-3.822 6.562-6.772 11.402-8.854 4.841-2.08 10.403-3.121 16.689-3.121 7.049 0 13.078 1.593 18.09 4.777 5.011 3.185 8.874 6.943 11.594 11.275.848 1.359 1.124 2.675.828 3.949-.299 1.274-1.041 2.251-2.229 2.93-1.274.595-2.57.681-3.886.255-1.318-.424-2.315-1.23-2.994-2.421-1.955-2.972-4.608-5.583-7.962-7.834-3.356-2.25-7.879-3.418-13.568-3.504-6.71 0-12.103 1.423-16.18 4.268-4.076 2.847-6.114 6.987-6.114 12.421 0 4.332 1.762 8.111 5.287 11.338 3.522 3.229 9.787 5.478 18.791 6.752 10.615 1.529 18.492 4.777 23.632 9.746 5.138 4.968 7.708 11.446 7.708 19.428 0 6.115-1.466 11.319-4.396 15.606-2.931 4.29-6.901 7.538-11.912 9.746-5.014 2.209-10.576 3.313-16.691 3.313zm76.31-1.274c-1.359 0-2.528-.488-3.504-1.465-.978-.976-1.465-2.144-1.465-3.503V79.999h-30.193c-1.359 0-2.464-.424-3.313-1.274-.85-.848-1.273-1.911-1.273-3.185 0-1.357.424-2.462 1.273-3.313.849-.848 1.953-1.274 3.313-1.274h70.451c1.357 0 2.462.426 3.313 1.274.848.85 1.273 1.955 1.273 3.313 0 1.274-.426 2.337-1.273 3.185-.851.85-1.955 1.274-3.313 1.274h-30.32v85.484c0 1.359-.468 2.528-1.401 3.503-.936.977-2.125 1.465-3.568 1.465z"/></g></svg>