<?xml version="1.0" encoding="UTF-8" standalone="yes"?>
<svg version="1.1" id="Layer_1" xmlns="http://www.w3.org/2000/svg" xmlns:xlink="http://www.w3.org/1999/xlink" x="0px" y="0px" viewBox="3.240000000000009 4.4199999999999875 351.52000000000004 238.16" style="enable-background:new 0 0 360 244;" xml:space="preserve">
  <style type="text/css">
	.st0{fill:#FF0000;}
</style>
  <g>
    <path d="M226,237.4c-5.7-1.1-11.4-2.4-16.5-5.3c-14.5-8.2-23.2-20.1-23.7-37.3c-0.6-19.2,8.9-32.6,24.8-41.3&#xA;&#x9;&#x9;c10.6-5.8,22.4-7.2,34.2-2.4c0.5,0.2,1,0.3,1.5,0.4c7.2,2,8.2,3.3,8.2,10.8c0,1.7,0,3.4,0,5.1c-0.1,3.4-1.2,4-4,2.1&#xA;&#x9;&#x9;c-6.6-4.5-13.7-7.4-21.9-6.9c-12.8,0.8-23.1,9.4-27,21.5c-2.9,9.2-1.3,17.7,3.4,25.6c4,6.9,10.5,11.2,18.4,12.9c10,2.2,19,0,27-6.5&#xA;&#x9;&#x9;c0.9-0.7,1.8-1.8,3.1-1.1c1.2,0.7,1,2,1,3.1c0,2.3,0,4.7,0,7c0,5.8-0.7,6.7-6.3,8.4c-4.4,1.4-8.8,2.9-13.3,3.8&#xA;&#x9;&#x9;C231.9,237.4,228.9,237.4,226,237.4z"/>
    <path d="M271,55c0-13.5,0-27.1,0-40.6c0-1.3-0.6-3.1,0.9-3.7c1.7-0.8,2.6,0.9,3.6,1.9c17.6,18.1,35.2,36.2,52.9,54.2&#xA;&#x9;&#x9;c1.2,1.2,2.2,3.6,4,2.9c1.5-0.6,0.6-3.1,0.7-4.7c0-15,0-30,0-45c0-4.7,0.5-5.3,5.3-5.3c9.4-0.1,9.4-0.1,9.4,9.3&#xA;&#x9;&#x9;c0,24.8,0,49.7,0,74.5c0,1.1,0,2.1-0.1,3.2c-0.1,1-0.3,1.9-1.4,2.2c-0.9,0.3-1.6-0.2-2.2-0.9c-13.3-13.6-26.5-27.3-39.8-40.9&#xA;&#x9;&#x9;c-5.3-5.4-10.6-10.9-15.9-16.4c-0.6-0.6-1.1-1.6-2-1.2c-1.1,0.4-0.7,1.7-0.7,2.5c0,15.9,0,31.7,0,47.6c0,5.1-0.5,5.6-5.6,5.6&#xA;&#x9;&#x9;c-10.6,0.1-9-0.2-9.1-8.8C271,79.3,271,67.2,271,55z"/>
    <path d="M43.9,193c0-12.4,0-24.7,0-37.1c0-5,1-5.8,5.9-6.1c10.2-0.4,20.4-0.1,30.3,2.1c13.7,3.1,23.8,11.4,28.8,24.7&#xA;&#x9;&#x9;c2.8,7.5,3.2,15.4,2.1,23.6c-1.3,9.2-5.2,16.7-11.6,23c-7.9,7.8-17.8,11.6-28.8,12.1c-7.4,0.3-14.8,0.1-22.2,0.1&#xA;&#x9;&#x9;c-3.9,0-4.5-0.7-4.5-4.7C43.9,218.2,43.9,205.6,43.9,193z M59.1,192.4c0,8,0,16.1,0,24.1c0,5,0.1,5.1,5.2,5&#xA;&#x9;&#x9;c2.4-0.1,4.8-0.6,7.2-0.6c7.9-0.1,14.1-3.6,18.9-9.5c8.1-9.8,8-20.8,3.5-31.8c-2.7-6.6-8.1-11-14.9-13.3c-5.2-1.7-10.5-2.1-16-2&#xA;&#x9;&#x9;c-3,0-4.1,0.9-4.1,4C59.2,176.4,59.1,184.4,59.1,192.4z"/>
    <path d="M120,57.8c0-12.6,0-25.2,0-37.7c0-4.7,0.7-5.2,5.3-5.4c8-0.3,16.1,0.2,24,1.3c8.7,1.3,17.7,8.8,19.4,18.1&#xA;&#x9;&#x9;c1.5,8,0.5,15.2-4.4,21.9c-2.7,3.6-6.2,5.7-10.2,7.2c-2,0.8-2.6,1.3-1.1,3.3c7.4,9.9,14.8,19.8,22.2,29.7c0.6,0.8,1.6,1.6,1,2.8&#xA;&#x9;&#x9;c-0.5,1.1-1.7,1.2-2.7,1.3c-3.6,0-7.2,0-10.8,0c-1.7,0-2.9-0.8-4.1-2.1c-2.6-3.1-4.5-6.6-6.8-9.9c-4.5-6.4-9.1-12.7-13.7-19&#xA;&#x9;&#x9;c-0.5-0.7-0.9-2.1-2-1.8c-1.3,0.4-0.8,1.8-0.8,2.8c0,8.5,0,16.9,0,25.4c0,4-0.5,4.5-4.5,4.7c-2.1,0.1-4.2,0.1-6.3,0&#xA;&#x9;&#x9;c-3.7-0.2-4.4-1-4.4-4.7C120,83,120,70.4,120,57.8z M135.3,40.9c0,3.2,0,6.3,0,9.5c0,1.3,0.1,2.8,1.9,2.6c3-0.3,6.2,0.2,9.1-0.8&#xA;&#x9;&#x9;c3.7-1.2,7.3-2.9,8.1-7.2c0.9-4.6,1.7-9.5-2.8-12.8c-4.3-3.2-9.5-3.8-14.8-3.2c-1.5,0.2-1.6,1.5-1.6,2.7&#xA;&#x9;&#x9;C135.3,34.7,135.3,37.8,135.3,40.9z"/>
    <path d="M283.8,217.3c0,4.8-0.1,9.5,0,14.3c0.1,2.9-1.2,4-4,4c-2.5-0.1-5.1,0-7.6,0c-2.4,0-3.5-1.2-3.6-3.5&#xA;&#x9;&#x9;c-0.1-0.9-0.1-1.9-0.1-2.9c0-24.1,0-48.2,0-72.3c0-6.3,0.6-7,6.8-7c8.4,0,8.4,0,8.4,8.5c0,6.6,0,13.1,0,19.7c0,0.8-0.3,1.9,0.7,2.2&#xA;&#x9;&#x9;c0.9,0.4,1.5-0.6,2.1-1.2c8.7-8.7,17.4-17.3,26-26.1c2.2-2.2,4.5-3.3,7.6-3.2c3.3,0.1,6.6,0,9.8,0.1c0.9,0,2,0,2.6,0.9&#xA;&#x9;&#x9;c0.6,1.2-0.3,2.1-1,2.8c-2.9,3-5.9,6-9,9c-8.5,8.4-17,16.7-25.6,25c-1.2,1.2-1,2,0,3.2c10.3,12.1,20.5,24.2,30.7,36.3&#xA;&#x9;&#x9;c1.5,1.8,3.1,3.5,4.6,5.3c1.4,1.7,0.9,2.9-1.1,3c-4.9,0.2-9.7,0.1-14.6,0c-1.6,0-2.5-1.5-3.4-2.6c-5.3-6.4-10.6-12.9-15.9-19.3&#xA;&#x9;&#x9;c-3.4-4.1-6.9-8.3-10.3-12.4c-0.5-0.6-1-1.5-2-1.2c-1,0.3-1,1.3-1,2.2C283.8,207.1,283.8,212.2,283.8,217.3&#xA;&#x9;&#x9;C283.8,217.3,283.8,217.3,283.8,217.3z"/>
    <path d="M252.7,46.7c0,7.9-0.2,15.9,0,23.8c0.3,13.5-9.5,25.7-22.3,29.7c-10,3.1-19.4,1.9-27.9-3.5c-9.1-5.7-14.3-14.4-14.5-25.3&#xA;&#x9;&#x9;c-0.3-17.5-0.1-35.1-0.1-52.6c0-2.9,1.2-4.1,4-4c2.3,0.1,4.7,0.1,7,0c3.1-0.1,3.9,1.6,3.9,4.4c-0.1,14.7-0.1,29.4,0,44.1&#xA;&#x9;&#x9;c0.1,4.6,0.2,9.2,1.5,13.8c1.3,4.3,3.9,7.2,7.8,9.1c8,3.9,18.5,1.5,22.7-5.2c2.2-3.5,3.3-7.5,3.3-11.7c0-16.2,0-32.4,0-48.5&#xA;&#x9;&#x9;c0-5.6,0.3-5.8,6-5.9c9.8,0,8.6-0.4,8.7,8.8C252.7,31.2,252.7,38.9,252.7,46.7z"/>
    <path d="M125.8,193.1c0-12.4,0-24.7,0-37.1c0-5.2,0.8-6,6.1-6c12.6,0,25.2,0,37.8,0c4.3,0,5.4,1.1,5.5,5.4c0.2,9.1,0.2,9.1-8.9,9.1&#xA;&#x9;&#x9;c-7.2,0-14.4,0.1-21.6,0c-2.7,0-3.9,0.8-3.7,3.6c0.2,3.6,0.2,7.2,0,10.8c-0.2,3.1,1.2,4,4.1,4c8.1-0.1,16.3-0.1,24.4,0&#xA;&#x9;&#x9;c3.8,0,4.4,0.6,4.4,4.4c0.1,9.7,0.1,8.5-8.3,8.5c-7,0-14,0.1-20.9,0c-2.7,0-3.8,0.9-3.8,3.7c0.1,6.2,0.1,12.5,0,18.7&#xA;&#x9;&#x9;c0,2.6,0.9,3.6,3.5,3.6c8.5-0.1,16.9-0.1,25.4,0c4.6,0,5.3,0.8,5.4,5.4c0.1,8.5,0.1,8.5-8.4,8.5c-11.7,0-23.5,0-35.2,0&#xA;&#x9;&#x9;c-5.5,0-5.8-0.3-5.8-5.7C125.8,217.6,125.8,205.3,125.8,193.1z"/>
    <path class="st0" d="M55,29.9c-9.1,0-18.2-0.1-27.3,0c-2.9,0-5-0.9-6.6-3.4c-3.2-4.8-6.5-9.6-9.8-14.4c-0.9-1.2-0.6-1.9,0.6-2.5&#xA;&#x9;&#x9;c1.3-0.6,2.6-0.7,4-0.7c18.2,0,36.4,0,54.6,0c2.6,0,4.4,0.8,5.8,3.1c3,4.6,6.1,9.1,9.2,13.7c0.6,0.9,1.5,2,0.9,3.2&#xA;&#x9;&#x9;c-0.6,1.3-2,1-3.1,1C73.8,29.9,64.4,29.9,55,29.9z"/>
    <path class="st0" d="M42.8,104.8c-9.5,0-19,0-28.6,0c-1.2,0-2.7,0.3-3.5-1c-0.8-1.4,0.8-2,1.4-2.9c3.1-4.8,6.4-9.5,9.5-14.2&#xA;&#x9;&#x9;c1-1.6,2.3-2.3,4.2-2.3c19.2,0,38.5,0,57.7,0c3.2,0,3.8,1.2,2.1,3.9c-3.2,4.8-6.5,9.6-9.7,14.5c-1.2,1.9-2.8,2-4.7,2&#xA;&#x9;&#x9;C61.8,104.8,52.3,104.8,42.8,104.8z"/>
    <path class="st0" d="M68.1,66.8c-9.5,0-19,0-28.5,0c-1.2,0-2.8,0.4-3.4-0.9c-0.6-1.3,0.8-2.1,1.4-3c4.1-5.9,4.1-5.9,0.2-12&#xA;&#x9;&#x9;c-1.6-2.4-1-3.8,1.9-3.7c19.3,0.7,38.7,0.1,58,0.3c1.6,0,2.9,0.5,3.7,2c0.3,0.5,0.6,0.9,0.9,1.3c4.3,6.8,4.2,6.7-0.3,13.4&#xA;&#x9;&#x9;c-1.4,2-3,2.7-5.3,2.7C87.1,66.8,77.6,66.8,68.1,66.8z"/>
  </g>
</svg>