<?xml version="1.0" encoding="UTF-8" standalone="yes"?>
<svg version="1.1" id="Layer_1" xmlns="http://www.w3.org/2000/svg" xmlns:xlink="http://www.w3.org/1999/xlink" x="0px" y="0px" viewBox="7 4 271 271" style="enable-background:new 0 0 282 282;" xml:space="preserve">
  <style type="text/css">
	.st0{fill:#0B5565;}
	.st1{fill:#27AAE0;}
	.st2{fill:#375C92;}
	.st3{fill:#8DC53E;}
	.st4{fill:#34A474;}
	.st5{enable-background:new    ;}
	.st6{fill:#003399;}
	.st7{fill:#0088D1;}
	.st8{fill:#4299D0;}
	.st9{fill:#252728;}
	.st10{fill:none;}
	.st11{fill:#E95028;}
	.st12{fill:#FB6D26;}
	.st13{fill:#FBA226;}
	.st14{fill:#E14329;}
	.st15{fill:#BC5A34;}
	.st16{fill:#FFFFFF;}
</style>
  <circle class="st0" cx="139.5" cy="139.5" r="135.5"/>
  <g>
    <path class="st10" d="M4.7,150.9c0.2,0.5,0.3,1,0.4,1.4C5.2,151.8,5.1,151.3,4.7,150.9z"/>
    <path class="st10" d="M274,126.4c-0.1-0.4-0.3-0.9-0.4-1.3C273.6,125.6,273.7,126,274,126.4z"/>
    <path class="st10" d="M127.1,4c-0.5,0.2-1,0.3-1.4,0.4C126.2,4.4,126.7,4.4,127.1,4z"/>
    <path class="st11" d="M163.1,92.9C163.1,92.9,163.1,92.9,163.1,92.9C163.1,92.9,163.1,92.9,163.1,92.9c-15.6-0.1-31.2-0.1-46.7-0.2&#xA;&#x9;&#x9;c0,0,0,0,0,0c-9.3,0-18.6,0-27.9,0c-1.4,0-2.8-0.3-4.1,0.6c7.5,9.8,15,19.6,22.5,29.3c9.6,12.3,19.3,24.6,28.9,36.9&#xA;&#x9;&#x9;c0.6,0.8,1.7,1.6,1.4,3c0,0,0,0,0,0c1.1,0.7,2,2.5,3.6,0.7c2.7-8.6,5.3-17.3,8-25.9C153.6,122.5,158.4,107.7,163.1,92.9z"/>
    <path class="st12" d="M195.1,93.5C195.1,93.5,195.1,93.5,195.1,93.5c-0.7-0.7-1.6-0.7-2.5-0.7c-9.7,0-19.4,0.1-29.2,0.1&#xA;&#x9;&#x9;c0.6,0.6,0.6,1.6,0.5,2.5c0,1.3-0.5,2.5-0.9,3.7c-5.8,17.8-11.7,35.5-17.3,53.4c-1.2,3.8-2.8,7.3-4.9,10.7c0.3-0.3,0.5-0.5,0.8-0.8&#xA;&#x9;&#x9;c17.1-21.8,34.1-43.6,51.2-65.4C193.7,95.9,194.4,94.6,195.1,93.5z"/>
    <path class="st12" d="M163.1,99.1c0.4-1.2,0.9-2.4,0.9-3.7c0-0.9,0.1-1.9-0.5-2.5c-0.1,0-0.2,0-0.4,0c0,0,0,0,0,0&#xA;&#x9;&#x9;c-4.8,14.8-9.5,29.6-14.2,44.4c-2.7,8.6-5.3,17.3-8,25.9c2.1-3.3,3.8-6.9,4.9-10.7C151.4,134.7,157.3,116.9,163.1,99.1z"/>
    <path class="st13" d="M83.9,93.3c-0.3,0-0.6,0-0.9,0c-2,6.2-4,12.3-6,18.5c-1.7,5.1-1.3,6,3.1,9.3c2.6,1.9,5.1,3.7,7.7,5.6&#xA;&#x9;&#x9;c16.5,11.9,33,23.8,49.5,35.7c0,0,0,0,0,0c-18.5-20.2-34-42.8-51.3-64.1C84.9,96.9,83,95.4,83.9,93.3z"/>
    <path class="st13" d="M135.9,159.5c-9.6-12.3-19.3-24.6-28.9-36.9c-7.6-9.7-15-19.5-22.5-29.3c0,0,0,0,0,0c-0.2,0-0.4,0-0.6,0&#xA;&#x9;&#x9;c-0.8,2,1,3.6,2.1,5c17.2,21.2,32.7,43.9,51.3,64.1C137.6,161.1,136.5,160.3,135.9,159.5z"/>
    <path class="st13" d="M201.1,120c2.3-1.7,3-3.9,2-6.7c-2.3-6.6-4.3-13.3-6.5-19.9c0,0,0,0,0,0c0,0,0,0,0,0c-0.3,0-0.6,0-0.9,0.1&#xA;&#x9;&#x9;c0.6,1.7-0.7,3.2-1.8,4.5c-7.5,9.5-14.8,19.1-22.3,28.5c-7.1,9-14.1,18-21.1,27c-2.6,3.3-5.6,6.2-8.9,8.8c0.6-0.2,1.3-0.2,1.8-0.6&#xA;&#x9;&#x9;C162.6,147.9,181.9,133.9,201.1,120z"/>
    <path class="st13" d="M150.5,153.5c7-9,14-18,21.1-27c7.5-9.5,14.8-19.1,22.3-28.5c1.1-1.3,2.4-2.8,1.8-4.5c-0.2,0-0.4,0-0.6,0&#xA;&#x9;&#x9;c0,0,0,0,0,0c0,0,0,0,0,0c-0.8,1.2-1.5,2.4-2.3,3.5c-17,21.8-34.1,43.6-51.2,65.4C145,159.8,147.9,156.9,150.5,153.5z"/>
    <path class="st14" d="M106.3,91.6c2.8,0,5.6-0.4,8.3,0.2c0.4-0.1,0.8-0.3,1.1-0.6c-4.4-13.9-8.9-27.8-13.4-41.6&#xA;&#x9;&#x9;c-0.4-1.3-1.1-2.4-2.6-2.4c-1.5,0-2.1,1.2-2.5,2.5c-4.5,14.1-9.1,28.2-13.6,42.3c0,0,0,0,0,0c0.7,0,1.4,0,2.1,0&#xA;&#x9;&#x9;C92.6,91.1,99.4,91.8,106.3,91.6z"/>
    <path class="st14" d="M114.6,91.8c-2.8-0.5-5.6-0.2-8.3-0.2c-6.9,0.1-13.7-0.5-20.6,0.3c8.7,0,17.4,0,26,0&#xA;&#x9;&#x9;C112.7,92,113.7,92.1,114.6,91.8z"/>
    <path class="st14" d="M165.4,91.7c9.5,0,19-0.6,28.5,0.2c0.6,0,1.3,0,1.9,0c0,0,0,0,0,0c-4.5-14.1-9.1-28.2-13.6-42.4&#xA;&#x9;&#x9;c-0.4-1.3-1-2.4-2.5-2.4c-1.5,0-2.2,1.1-2.6,2.4c-4.5,13.9-8.9,27.8-13.4,41.7c0.3,0.3,0.7,0.5,1,0.6&#xA;&#x9;&#x9;C165,91.7,165.2,91.7,165.4,91.7z"/>
    <path class="st14" d="M167.8,92c8.7,0,17.4,0,26.2,0c-9.5-0.8-19-0.2-28.5-0.2c-0.2,0-0.4,0-0.6,0.1C165.8,92.1,166.8,92,167.8,92z&#xA;&#x9;&#x9;"/>
    <path class="st15" d="M195.6,93.2c0.3-0.1,0.7,0,1,0.2c-0.2-0.5-0.5-1-0.7-1.4c0,0,0,0,0,0c-0.4,0.1-0.8,0.1-1.1,0.2&#xA;&#x9;&#x9;C195.1,92.5,195.4,92.8,195.6,93.2z"/>
    <path class="st15" d="M116.4,92.3c15.2,0.2,30.4,0,45.7,0.1c0.5,0,0.9,0.2,1.2,0.4c0.2-0.3,0.5-0.5,0.8-0.7&#xA;&#x9;&#x9;c-0.1-0.2-0.3-0.5-0.3-0.8c-1.1,1.1-2.6,0.8-4,0.8c-14.5,0-29,0-43.4,0C116.4,92.1,116.4,92.2,116.4,92.3&#xA;&#x9;&#x9;C116.4,92.3,116.4,92.3,116.4,92.3z"/>
    <path class="st15" d="M162.1,92.4c-15.2-0.1-30.4,0.1-45.7-0.1c0,0,0,0,0,0c0,0.2,0,0.3,0,0.5c15.6,0.1,31.2,0.1,46.7,0.2&#xA;&#x9;&#x9;c0,0,0,0,0,0c0-0.1,0.1-0.1,0.2-0.2C163,92.5,162.6,92.4,162.1,92.4z"/>
    <path class="st15" d="M194.8,92.1c-4.5,0.6-9,0.1-13.5,0.2c-4.9,0.1-9.8,0.1-14.8,0c-0.7,0-1.8,0.4-2.3-0.3&#xA;&#x9;&#x9;c-0.3,0.2-0.6,0.4-0.8,0.7c0.1,0.1,0.1,0.1,0.2,0.2c9.7-0.1,19.4-0.1,29.2-0.1c0.9,0,1.8,0,2.5,0.7c0.1-0.1,0.3-0.2,0.5-0.3&#xA;&#x9;&#x9;C195.4,92.8,195.1,92.5,194.8,92.1z"/>
    <path class="st15" d="M163.1,92.9c0.1,0,0.2,0,0.4,0c-0.1-0.1-0.1-0.1-0.2-0.2C163.3,92.8,163.2,92.8,163.1,92.9z"/>
    <path class="st15" d="M195.6,93.2c0,0.1,0.1,0.2,0.1,0.2c0.3,0,0.6,0,0.9-0.1c0,0,0,0,0,0C196.2,93.2,195.9,93.1,195.6,93.2z"/>
    <path class="st15" d="M195.1,93.5C195.1,93.5,195.1,93.5,195.1,93.5c0.2,0,0.4,0,0.6,0c0-0.1-0.1-0.2-0.1-0.2&#xA;&#x9;&#x9;C195.4,93.2,195.3,93.3,195.1,93.5z"/>
    <path class="st15" d="M164.8,91.8c-0.4-0.1-0.7-0.3-1-0.6c0.1,0.4,0.2,0.7,0.3,0.8C164.3,91.9,164.6,91.8,164.8,91.8z"/>
    <path class="st15" d="M194.7,92c0,0,0.1,0.1,0.1,0.1c0.4-0.1,0.8-0.1,1.1-0.2c-0.6,0-1.3,0-1.9,0C194.2,92,194.4,92,194.7,92z"/>
    <path class="st15" d="M166.5,92.3c4.9,0.1,9.8,0.1,14.8,0c4.5-0.1,9,0.4,13.5-0.2c0,0-0.1-0.1-0.1-0.1c-0.2,0-0.5,0-0.7-0.1&#xA;&#x9;&#x9;c-8.7,0-17.4,0-26.2,0c-1,0-2,0.1-3-0.2c-0.2,0.1-0.5,0.1-0.7,0.3C164.7,92.7,165.7,92.3,166.5,92.3z"/>
    <path class="st15" d="M84,93.1c0.2-0.3,0.4-0.7,0.7-1.1c0.1,0,0.1,0,0.2,0c-0.4,0-0.9-0.1-1.3-0.1c0,0,0,0,0,0&#xA;&#x9;&#x9;c-0.2,0.5-0.4,0.9-0.7,1.4C83.3,93.2,83.6,93.1,84,93.1z"/>
    <path class="st15" d="M115.5,92c0.2,0.1,0.5,0.1,0.7,0.2c0.1-0.1,0.1-0.2,0.2-0.2c-0.2-0.3-0.4-0.6-0.7-0.9c0,0,0,0,0,0&#xA;&#x9;&#x9;C115.8,91.5,115.7,91.8,115.5,92z"/>
    <path class="st15" d="M116.2,92.3C116.2,92.2,116.2,92.2,116.2,92.3c-0.2-0.1-0.4-0.2-0.7-0.3c-0.2,0.2-0.5,0.3-0.9,0.3&#xA;&#x9;&#x9;c-9.9-0.2-19.8,0.5-29.7-0.3c-0.1,0-0.1,0-0.2,0c-0.3,0.4-0.6,0.7-0.7,1.1c0.2,0,0.3,0.1,0.5,0.2c0,0,0,0,0,0&#xA;&#x9;&#x9;c1.3-0.9,2.7-0.6,4.1-0.6c9.3,0,18.6,0,27.9,0c0,0,0,0,0,0C116.2,92.6,116.1,92.4,116.2,92.3z"/>
    <path class="st15" d="M84,93.1c-0.4,0-0.7,0.1-1,0.3c0,0,0,0,0,0c0,0,0,0,0,0c0.3,0,0.6,0,0.9,0C83.9,93.3,83.9,93.2,84,93.1z"/>
    <path class="st15" d="M84,93.1c0,0.1-0.1,0.1-0.1,0.2c0.2,0,0.4,0,0.6,0c0,0,0,0,0,0c0,0,0,0,0,0C84.3,93.2,84.1,93.1,84,93.1z"/>
    <path class="st15" d="M115.5,92c0.2-0.2,0.2-0.5,0.2-0.8c0,0,0,0,0,0c-0.4,0.3-0.7,0.5-1.1,0.6C114.9,91.8,115.2,91.9,115.5,92z"/>
    <path class="st15" d="M85.7,92c-0.7,0-1.4,0-2.1,0c0.4,0,0.9,0.1,1.3,0.1C85.2,92,85.5,92,85.7,92z"/>
    <path class="st15" d="M114.6,92.3c0.4,0,0.7-0.1,0.9-0.3c-0.3-0.1-0.6-0.1-0.9-0.2c-0.9,0.3-1.9,0.2-2.9,0.2c-8.7,0-17.4,0-26,0&#xA;&#x9;&#x9;c-0.3,0-0.5,0.1-0.8,0.1C94.8,92.8,104.7,92.2,114.6,92.3z"/>
    <path class="st15" d="M116.2,92.2c0.1,0,0.1,0,0.2,0.1c0-0.1,0-0.1,0-0.2C116.3,92,116.3,92.1,116.2,92.2z"/>
    <path class="st15" d="M116.2,92.2C116.2,92.2,116.2,92.2,116.2,92.2c-0.1,0.2,0,0.4,0.2,0.5c0-0.2,0-0.3,0-0.5&#xA;&#x9;&#x9;C116.3,92.2,116.3,92.2,116.2,92.2z"/>
    <polygon class="st13" points="82.9,93.4 82.9,93.4 82.9,93.4 &#x9;"/>
    <polygon class="st15" points="82.9,93.4 82.9,93.4 82.9,93.4 &#x9;"/>
  </g>
  <g>
    <path class="st16" d="M61,180.1h10.3c7.6,0,11.4,4.4,11.4,13.2c0,2.6-0.4,4.8-1.2,6.7c-0.8,1.9-2.3,3.4-4.3,4.5l6.9,20.5h-6.8&#xA;&#x9;&#x9;l-6-19.2h-3.8V225H61V180.1z M67.5,200.2h3.7c1.1,0,2-0.2,2.7-0.5s1.2-0.8,1.5-1.4c0.4-0.6,0.6-1.3,0.7-2.2c0.1-0.9,0.2-1.9,0.2-3&#xA;&#x9;&#x9;s-0.1-2.1-0.2-3c-0.1-0.9-0.4-1.6-0.8-2.2c-0.4-0.6-1-1.1-1.7-1.4c-0.7-0.3-1.7-0.4-2.8-0.4h-3.3V200.2z"/>
    <path class="st16" d="M108.7,214.9c0,1.5-0.3,2.8-0.8,4.1c-0.5,1.3-1.3,2.4-2.2,3.3c-0.9,0.9-2.1,1.7-3.3,2.2&#xA;&#x9;&#x9;c-1.3,0.5-2.6,0.8-4,0.8c-1.4,0-2.8-0.3-4-0.8c-1.3-0.5-2.4-1.3-3.3-2.2c-0.9-0.9-1.7-2.1-2.2-3.3c-0.5-1.3-0.8-2.6-0.8-4.1v-34.8&#xA;&#x9;&#x9;h6.4v34.2c0,1.6,0.4,2.8,1.1,3.5c0.8,0.8,1.7,1.1,2.8,1.1s2.1-0.4,2.8-1.1c0.8-0.8,1.1-1.9,1.1-3.5v-34.2h6.4V214.9z"/>
    <path class="st16" d="M114.5,180.1h6.2l9.7,27.1h0.1v-27.1h6.4V225h-6.1l-9.8-27H121v27h-6.4V180.1z"/>
    <path class="st16" d="M142.5,180.1h6.2l9.7,27.1h0.1v-27.1h6.4V225h-6.1l-9.8-27H149v27h-6.4V180.1z"/>
    <path class="st16" d="M170.8,180.1H190v6.1h-12.7v13.2h11.1v6.1h-11.1v13.2H190v6.4h-19.2V180.1z"/>
    <path class="st16" d="M194.2,180.1h10.3c7.6,0,11.4,4.4,11.4,13.2c0,2.6-0.4,4.8-1.2,6.7c-0.8,1.9-2.3,3.4-4.3,4.5l6.9,20.5h-6.8&#xA;&#x9;&#x9;l-6-19.2h-3.8V225h-6.4V180.1z M200.6,200.2h3.7c1.1,0,2-0.2,2.7-0.5s1.2-0.8,1.5-1.4c0.4-0.6,0.6-1.3,0.7-2.2&#xA;&#x9;&#x9;c0.1-0.9,0.2-1.9,0.2-3s-0.1-2.1-0.2-3c-0.1-0.9-0.4-1.6-0.8-2.2c-0.4-0.6-1-1.1-1.7-1.4c-0.7-0.3-1.7-0.4-2.8-0.4h-3.3V200.2z"/>
  </g>
</svg>