<svg xmlns="http://www.w3.org/2000/svg" role="img" viewBox="62.47 68.97 703.56 135.56"><title>saltware (KCSP) logo</title><defs><clipPath id="a" clipPathUnits="userSpaceOnUse"><path d="M0 193.333h622V0H0z"/></clipPath></defs><g clip-path="url(#a)" transform="matrix(1.33333 0 0 -1.33333 0 257.777)"><path fill="#f5a020" d="M85.57 116.361c0-5.797-4.7-10.495-10.492-10.495-5.792 0-10.487 4.698-10.487 10.495 0 5.796 4.695 10.493 10.487 10.493s10.492-4.697 10.492-10.493m7.29-48.601c0-9.819-7.959-17.787-17.782-17.787-9.821 0-17.784 7.968-17.784 17.787 0 9.824 7.963 17.786 17.784 17.786 9.823 0 17.782-7.962 17.782-17.786m49.833 48.601c0-8.315-6.742-15.055-15.054-15.055-8.316 0-15.052 6.74-15.052 15.055 0 8.312 6.736 15.053 15.052 15.053 8.312 0 15.054-6.741 15.054-15.053m-.516-48.601c0-8.027-6.508-14.538-14.537-14.538-8.027 0-14.537 6.511-14.537 14.538 0 8.032 6.51 14.537 14.537 14.537 8.029 0 14.537-6.505 14.537-14.537"/><path fill="#221f20" d="M420.49 113.85l-12.255-34.606-13.362 33.172h-4.935l-13.165-32.944-11.788 34.378h-8.667l17.124-49.778h5.912l13.066 32.941 13.171-32.941h5.887l17.63 49.778zm33.423-42.501c-9.832 0-17.246 7.572-17.246 17.612 0 10.041 7.414 17.613 17.246 17.613 9.944 0 17.162-7.407 17.162-17.613 0-10.205-7.218-17.612-17.162-17.612m17.496 36.479c-4.531 4.403-10.711 6.881-17.641 6.881-14.445 0-25.337-11.069-25.337-25.748 0-14.678 10.892-25.747 25.337-25.747 6.904 0 13.066 2.463 17.593 6.84l.15-5.981h7.802v49.778h-7.725zm45.971 6.146h-6.594c-5.199 0-9.758-1.697-13.252-4.818l-.2 4.695h-7.53V64.073h8.201v27.671c0 8.455 5.07 14.136 12.617 14.136h6.758zm22.558-7.36c8.09 0 14.322-5.288 15.975-13.183H523.61c1.735 7.895 8.103 13.183 16.328 13.183m15.86-24.359l-.78-1.506c-3.132-6.047-8.487-9.377-15.08-9.377-8.431 0-14.985 5.737-16.477 14.004h40.772l.176 2.6c.027.407.047.888.047 1.29 0 14.504-10.54 25.442-24.518 25.442-14.226 0-24.953-11.041-24.953-25.683 0-14.715 10.727-25.811 24.953-25.811 10.101 0 18.219 5.344 22.858 15.048l1.91 3.993zM193.91 62.102c-13.534 0-21.76 7.148-21.917 17.91h16.464c0-3.631 2.528-5.303 5.773-5.303 2.5 0 4.874 1.272 4.874 3.84 0 2.867-3.761 3.682-8.531 4.472-7.702 1.249-17.909 3.572-17.909 15.618 0 9.954 8.483 16.38 21.208 16.38 12.646 0 20.843-6.725 21.038-16.791h-16.02c0 3.173-2.133 4.648-5.233 4.648-2.74 0-4.583-1.357-4.583-3.661 0-2.826 3.798-3.484 8.516-4.325 7.846-1.392 18.278-3.025 18.278-15.618 0-10.38-8.762-17.17-21.959-17.17zm66.53 26.471c0 6.446-4.709 11.288-11.117 11.288-6.444 0-11.116-4.842-11.116-11.288 0-6.487 4.709-11.323 11.116-11.323 6.408 0 11.117 4.836 11.117 11.323m16.269 24.87V63.782h-13.222l-1.466 3.508c-4.066-3.29-9.217-5.189-14.986-5.189-15.185 0-26.04 11.076-26.04 26.513 0 15.381 10.855 26.328 26.04 26.328 5.852 0 11.076-1.954 15.177-5.339l1.751 3.84zm10.765 17.883h17.105V63.73h-17.105zm61.351-52.619V63.729h-11.766c-10.986 0-17.662 6.713-17.662 17.749v18.742h-9.09v3.995l22.254 23.696h3.514v-14.52h12.477V100.22h-12.045V84.413c0-3.555 2.146-5.706 5.756-5.706z"/></g></svg>