<svg xmlns="http://www.w3.org/2000/svg" role="img" viewBox="-3.73 -3.60 187.33 105.83"><title>Samsung SDS (member) logo</title><path fill="#034ea2" d="M6.19 98.67C.81 98.67-.2 95.5 0 91.9h4.38c0 2 .09 3.66 2.48 3.66a2.08 2.08 0 0 0 2.19-2.36c0-3.75-8.76-4-8.76-10.17 0-3.25 1.56-5.85 6.85-5.85 4.24 0 6.34 1.91 6.05 6.25H9c0-1.55-.26-3.13-2-3.13a2 2 0 0 0-2.3 2.21c0 3.95 8.75 3.6 8.75 10.14 0 5.35-3.94 6.02-7.26 6.02zm8.64-.35l5.76-20.79h5.74L32 98.32h-4.61l-1.15-4.6h-5.93l-1.18 4.6zm8.38-16.79h-.05l-2 9h4.15zm10.57 16.79V77.53h7L44 91.67h.05l3.46-14.14h6.77v20.79h-4.2v-16l-4 16h-4.2l-3.8-16H38v16zm29.58.35C58 98.67 57 95.5 57.2 91.9h4.35c0 2 .08 3.66 2.47 3.66a2.08 2.08 0 0 0 2.19-2.36c0-3.75-8.75-4-8.75-10.17 0-3.25 1.55-5.85 6.85-5.85 4.24 0 6.34 1.91 6 6.25h-4.18c0-1.55-.26-3.13-2-3.13a2 2 0 0 0-2.25 2.21c0 3.95 8.76 3.6 8.76 10.14-.02 5.35-3.97 6.02-7.28 6.02zm24.28-21.14v14.75c0 3.11-1.76 6.39-7.06 6.39-4.78 0-7.08-2.48-7.08-6.39V77.53h4.35V92c0 2.56 1.09 3.57 2.68 3.57 1.9 0 2.76-1.27 2.76-3.57V77.53zm3.43 20.79V77.53h5.87l5.53 14.4h.06v-14.4h4.06v20.79h-5.73l-5.67-15.2h-.06v15.2zm28.54-14.4c0-1.93-.29-3.62-2.59-3.62-2.71 0-2.71 3.65-2.71 7.68 0 6.51.63 7.67 3.11 7.67a6.84 6.84 0 0 0 2.16-.41v-4.61h-2.36v-3.19h6.71V98a39.82 39.82 0 0 1-5.88.69c-7.31 0-8.15-3-8.15-10.92 0-5.24.26-10.57 7.38-10.57 4.26 0 6.91 2.39 6.65 6.74zm19.84 14.75c-5.39 0-6.39-3.17-6.16-6.77h4.35c0 2 .08 3.66 2.47 3.66a2.08 2.08 0 0 0 2.19-2.36c0-3.75-8.76-4-8.76-10.17 0-3.25 1.56-5.85 6.86-5.85 4.23 0 6.34 1.91 6 6.25h-4.24c0-1.55-.25-3.13-2-3.13a2 2 0 0 0-2.16 2.21c0 3.95 8.76 3.6 8.76 10.14-.05 5.35-4 6.02-7.31 6.02zm10.31-21.14H157c5.7 0 6.77 3.8 6.77 10.28 0 3.2.49 10.51-6.94 10.51h-7.09zm4.35 17.6h2.1c2.65 0 3.17-2 3.17-7.2 0-3.83 0-7.2-3-7.2h-2.25zm18.66 3.54c-5.38 0-6.39-3.17-6.16-6.77H171c0 2 .08 3.66 2.47 3.66a2.08 2.08 0 0 0 2.19-2.36c0-3.75-8.75-4-8.75-10.17 0-3.25 1.55-5.85 6.85-5.85 4.24 0 6.34 1.91 6.05 6.25h-4.23c0-1.55-.26-3.13-2-3.13a2 2 0 0 0-2.25 2.21c0 3.95 8.76 3.6 8.76 10.14-.09 5.35-4.01 6.02-7.32 6.02zM162 11.46C160 .14 126-3.39 86 3.57 69.2 6.49 54 10.8 42.24 15.66a5.66 5.66 0 0 1 4 1.27 3.54 3.54 0 0 1 1 2.61v1.13h-3.99v-1a1.24 1.24 0 0 0-1.37-1.34 1.22 1.22 0 0 0-1.34 1 1.94 1.94 0 0 0 0 .79c.42 1.71 6.24 2.77 6.88 5.94a7.66 7.66 0 0 1 0 2.53c-.36 2.55-2.6 3.53-5.46 3.53-4 0-5.6-1.89-5.6-4.48v-1.25h4.2v1.54a1.32 1.32 0 0 0 1.48 1.34 1.29 1.29 0 0 0 1.44-1 1.89 1.89 0 0 0 0-1.1c-.78-2-6.21-2.86-6.88-6a5.38 5.38 0 0 1 0-2.08 4.1 4.1 0 0 1 .32-1.09c-13.1 6.12-20.76 12.86-19.75 18.68 2 11.31 36 14.85 76 7.88 17.57-3.06 33.37-7.64 45.4-12.77h-.53c-2.73 0-5.18-1-5.43-3.82a8.5 8.5 0 0 1 0-1v-6.42c0-.28 0-.76.06-1 .32-2.7 2.46-3.82 5.43-3.82 2.28 0 5.1.66 5.4 3.83a7.35 7.35 0 0 1 0 .95v.6h-4v-.9a3.08 3.08 0 0 0-.05-.57 1.33 1.33 0 0 0-1.45-1.09 1.36 1.36 0 0 0-1.47 1.08 3.41 3.41 0 0 0-.06.71v7a3 3 0 0 0 0 .57 1.6 1.6 0 0 0 3 0 3.91 3.91 0 0 0 0-.57v-2.18H138v-2.33h5.51V28a4 4 0 0 1-.66 1.89C155.52 23.82 163 17.19 162 11.46zM58.28 31.52l-2-13.63h-.07l-2.06 13.63h-4.23l2.84-15.4h6.9l2.83 15.4zm20.33 0l-.09-13.37h-.07L76 31.52h-4l-2.47-13.37h-.08l-.09 13.37h-3.93l.34-15.4h6.33l1.84 11.44H74l1.84-11.44h6.32l.34 15.4zm18.51-3c-.41 3-3.33 3.5-5.4 3.5-3.43 0-5.55-1.46-5.55-4.44v-1.21h4.16v1.52a1.3 1.3 0 0 0 1.47 1.32 1.27 1.27 0 0 0 1.43-1 1.93 1.93 0 0 0 0-1.09c-.77-1.91-6.16-2.85-6.82-6a5.22 5.22 0 0 1 0-2.05c.46-2.82 3.16-3.4 5.34-3.4A5.82 5.82 0 0 1 95.9 17a3.51 3.51 0 0 1 .95 2.59v1.11H93v-1a1.24 1.24 0 0 0-1.36-1.33 1.21 1.21 0 0 0-1.34 1 1.89 1.89 0 0 0 0 .78c.42 1.7 6.19 2.75 6.82 5.88a7.47 7.47 0 0 1 0 2.5zm14.39-1.4v1c-.24 2.53-2 3.82-5.38 3.82s-5.15-1.29-5.39-3.82v-12h4v11.37a2.93 2.93 0 0 0 0 .57 1.48 1.48 0 0 0 2.84 0 2.84 2.84 0 0 0 0-.57V16.12h4zm17.11 4.23h-5.53l-3.71-12.19h-.06l.21 12.19h-3.85V16.12h5.75l3.43 11.72h.08l-.2-11.72h3.88z"/></svg>