<svg xmlns="http://www.w3.org/2000/svg" role="img" viewBox="-4.92 0.08 313.84 489.84"><style>svg {enable-background:new 0 0 303.91 485.22}</style><path d="M151.68 9.64C70.76 9.64 5.15 75.24 5.15 156.17S70.76 302.7 151.68 302.7c80.93 0 146.54-65.6 146.54-146.53S232.61 9.64 151.68 9.64zm0 239.38c-51.28 0-92.84-41.57-92.84-92.84 0-51.28 41.57-92.84 92.84-92.84 51.28 0 92.84 41.57 92.84 92.84.01 51.27-41.56 92.84-92.84 92.84zM4.93 477.99V335.61h31.32c7.12 0 13.38.67 18.79 2.02 5.4 1.34 10.14 3.45 14.2 6.33 4.06 2.87 7.14 6.75 9.25 11.63 2.11 4.88 3.16 10.72 3.16 17.52 0 2.95-.11 5.59-.32 7.91-.21 2.32-.7 4.97-1.46 7.95-.77 2.98-1.81 5.62-3.12 7.91-1.32 2.29-3.22 4.55-5.7 6.76s-5.41 4.06-8.78 5.54c8.54 27.11 15.98 50.05 22.31 68.82H54.76l-16.29-65.58h-4.75V478H4.93zm28.79-83.14h8.23c2.21 0 4.11-.74 5.7-2.21 1.58-1.47 2.73-3.35 3.44-5.62s1.21-4.35 1.5-6.25c.29-1.9.44-3.69.44-5.38s-.12-3.43-.36-5.22c-.24-1.79-.66-3.78-1.27-5.97s-1.61-3.98-3.01-5.38c-1.4-1.4-3.1-2.1-5.1-2.1h-9.57v38.13zm56.88 83.14V335.61h28.79v142.38H90.6zm40.38 0V335.53h20.72l31.25 74.51v-74.51h23.89v142.46H186.9l-31.17-79.02v79.02h-24.75zm84.64-44.54V383.3c0-33.64 14-50.47 42-50.47 5.91 0 11.17.78 15.78 2.33 4.61 1.56 8.48 3.71 11.59 6.45 3.11 2.74 5.67 6.12 7.67 10.12 2 4.01 3.45 8.36 4.35 13.05.9 4.7 1.34 9.86 1.34 15.5v8.38h-27.53v-9.97c0-2.48-.07-4.65-.2-6.53-.13-1.87-.46-3.96-.99-6.25s-1.24-4.18-2.14-5.66c-.9-1.48-2.19-2.72-3.88-3.72s-3.69-1.5-6.01-1.5c-8.81 0-13.21 7.01-13.21 21.04v61.46c0 13.97 4.4 20.96 13.21 20.96 8.75 0 13.13-7.25 13.13-21.75v-11.39h-16.29v-20.64h45.09v73.25h-19.78l-3.64-9.97c-2.43 3.8-5.88 6.87-10.36 9.21-4.48 2.35-9.1 3.52-13.84 3.52-5.12 0-9.77-.94-13.96-2.81-4.19-1.87-7.65-4.35-10.36-7.44-2.72-3.09-5-6.71-6.84-10.88a56.531 56.531 0 0 1-3.96-12.78 75.8 75.8 0 0 1-1.17-13.36z"/></svg>