<svg xmlns="http://www.w3.org/2000/svg" role="img" viewBox="-2.92 -2.92 151.71 84.33"><title>ScaleOps (member) logo</title><defs><clipPath id="a"><path fill="none" d="M0 0h145.992v78.633H0z" data-name="Rectangle 2560"/></clipPath></defs><g data-name="Group 5850"><g fill="#292834" clip-path="url(#a)" data-name="Group 5849"><path d="M0 72.848l.984-3.217a32.217 32.217 0 0 0 9.673 1.469c1.1 0 5.664-.048 5.664-2.04 0-1.2-1.632-1.3-5.616-1.512C5.881 67.279.624 66.991.624 62.382s5.232-5.472 9.457-5.472a41.248 41.248 0 0 1 8.593.984l-.744 3.289a38.22 38.22 0 0 0-8.449-.912c-.864 0-5.185.023-5.185 1.92 0 1.632 3.217 1.776 6.577 1.9 4.7.192 9.121.7 9.121 4.8 0 4.7-5.808 5.545-9.985 5.545A32.181 32.181 0 0 1 0 72.848" data-name="Path 3155"/><path d="M38.45 73.424a20.673 20.673 0 0 1-6.792 1.009c-7.009 0-9.985-2.809-9.985-6.673s2.976-6.649 9.985-6.649a20.711 20.711 0 0 1 6.792 1.008l-.672 3.145a23.543 23.543 0 0 0-6.1-.817c-4.872 0-6.336 1.393-6.336 3.313s1.467 3.34 6.339 3.34a23.605 23.605 0 0 0 6.1-.816z" data-name="Path 3156"/><path d="M58.417 74.072a15.833 15.833 0 0 1-2.952.361c-2.857 0-3-1.441-3.073-2.209-1.176 1.368-3.96 2.209-6.168 2.209-3.48 0-5.856-1.609-5.856-4.561 0-3.072 3.072-3.912 6.144-3.912a21.371 21.371 0 0 1 5.689.792c-.121-1.272-1.321-2.28-4.609-2.28a19.067 19.067 0 0 0-5.305.7l-1.151-3.144a22.417 22.417 0 0 1 6.456-.912c6.048 0 8.233 2.591 8.233 6.048v3.1c0 .456.168.864 1.176.864a7.344 7.344 0 0 0 1.416-.168zm-11.569-2.688c2.3 0 5.256-1.128 5.376-2.568v-.456h-5.9c-1.152 0-2.28.288-2.28 1.272 0 1.248 1.272 1.752 2.808 1.752" data-name="Path 3157"/><path d="M60.335 57.27l3.6-.359v17.161h-3.6z" data-name="Path 3158"/><path d="M69.744 69.007C70.3 70.4 71.928 71.1 75.24 71.1a29.192 29.192 0 0 0 6.721-.815l.672 3.143a25.012 25.012 0 0 1-7.273 1.009c-6.36 0-9.5-2.328-9.5-6.577 0-3.7 2.736-6.744 8.424-6.744 5.473 0 9.865 2.616 8.161 7.9zm-.072-2.4h9.145c.359-1.368-1.321-2.232-4.345-2.232-2.952 0-4.272.816-4.728 2.016z" data-name="Path 3159"/><path d="M96.264 56.911c7.417 0 11.281 3.767 11.281 8.761s-3.864 8.76-11.281 8.76-11.281-3.768-11.281-8.76 3.864-8.761 11.281-8.761m0 14.161c5.208 0 7.608-2.232 7.608-5.4s-2.4-5.4-7.608-5.4-7.609 2.232-7.609 5.4 2.4 5.4 7.609 5.4" data-name="Path 3160"/><path d="M113.279 72.248l.024 1.824v4.56h-3.6V61.639l3.48-.36.1.984.024.024a14.841 14.841 0 0 1 5.881-1.176c5.592 0 8.112 2.808 8.112 6.576 0 3.937-2.76 6.745-7.608 6.745a9.2 9.2 0 0 1-6.385-2.209zm.024-7.057v3.721c.144.864 2.952 2.183 5.929 2.183 3.1 0 4.392-1.416 4.392-3.383 0-1.873-1.152-3.265-4.8-3.265a26.8 26.8 0 0 0-5.521.744" data-name="Path 3161"/><path d="M129.455 70.088A33.539 33.539 0 0 0 137.3 71.1c1.3 0 5.016-.048 5.016-1.008 0-.744-2.232-.672-4.848-.72-3.768-.1-8.353-.456-8.353-3.984 0-4.032 5.232-4.273 8.089-4.273a45.658 45.658 0 0 1 7.681.72l-.577 3.313a39.926 39.926 0 0 0-7.752-.672c-2.329 0-3.769.191-3.769.935 0 .841 2.089.841 4.585.865 3.816.047 8.617.215 8.617 3.792 0 4.176-6.6 4.369-9.1 4.369a30.258 30.258 0 0 1-8.161-1.057z" data-name="Path 3162"/></g></g><path fill="#b8b7fd" d="M69.908 0v21.057l18.237 10.53v-21.06z" data-name="Path 3163"/><path fill="#ff507a" d="M69.907 0L51.67 10.527v21.06l18.237-10.53z" data-name="Path 3164"/><path fill="#5353e0" d="M51.668 31.588l18.24-10.53 18.237 10.53-18.237 10.53z" data-name="Path 3165"/><path fill="#5353e0" d="M51.668 31.588l18.24-10.53 18.237 10.53-18.237 10.53z" data-name="Path 3166"/><path fill="#b8b7fd" d="M88.146 0v10.528l9.119 5.265V5.263z" data-name="Path 3167"/><path fill="#ff507a" d="M88.145 0l-9.118 5.263v10.53l9.118-5.265z" data-name="Path 3168"/><path fill="#5353e0" d="M79.026 15.794l9.12-5.265 9.119 5.265-9.119 5.265z" data-name="Path 3169"/><path fill="#5353e0" d="M79.026 15.794l9.12-5.265 9.119 5.265-9.119 5.265z" data-name="Path 3170"/></svg>