<svg xmlns="http://www.w3.org/2000/svg" role="img" xmlns:xlink="http://www.w3.org/1999/xlink" viewBox="-21.78 -20.78 1132.56 283.56"><title>Scarf (member) logo</title><style>svg {enable-background:new 0 0 1090 245}</style><style>.st1{fill:#219ebc}.st3{display:none}.st4{display:inline;fill:#cecfcf}.st21{fill:#023047}</style><pattern id="New_Pattern" width="28.8" height="28.8" x="-461" y="-10" overflow="visible" patternUnits="userSpaceOnUse" viewBox=".7 -29.5 28.8 28.8"><path fill="none" d="M.7-29.5h28.8V-.7H.7z"/><circle cx="29.5" cy="-.7" r=".7" class="st1"/><circle cx="29.5" cy="-.7" r=".7" class="st1"/><path d="M15.1 0c.4 0 .7-.3.7-.7 0-.4-.3-.7-.7-.7-.4 0-.7.3-.7.7 0 .4.3.7.7.7z" class="st1"/><circle cx=".7" cy="-.7" r=".7" class="st1"/><circle cx=".7" cy="-.7" r=".7" class="st1"/><circle cx="29.5" cy="-.7" r=".7" class="st1"/><path d="M29.5-14.4c.4 0 .7-.3.7-.7 0-.4-.3-.7-.7-.7-.4 0-.7.3-.7.7 0 .4.3.7.7.7z" class="st1"/><circle cx="29.5" cy="-29.5" r=".7" class="st1"/><circle cx="29.5" cy="-.7" r=".7" class="st1"/><path d="M15.1 0c.4 0 .7-.3.7-.7 0-.4-.3-.7-.7-.7-.4 0-.7.3-.7.7 0 .4.3.7.7.7zm14.4-14.4c.4 0 .7-.3.7-.7 0-.4-.3-.7-.7-.7-.4 0-.7.3-.7.7 0 .4.3.7.7.7zm-14.4 0c.4 0 .7-.3.7-.7 0-.4-.3-.7-.7-.7-.4 0-.7.3-.7.7 0 .4.3.7.7.7zM7.9-7.2c.4 0 .7-.3.7-.7 0-.4-.3-.7-.7-.7-.4 0-.7.3-.7.7 0 .4.3.7.7.7zm14.4 0c.4 0 .7-.3.7-.7 0-.4-.3-.7-.7-.7-.4 0-.7.3-.7.7 0 .4.3.7.7.7zM7.9-21.6c.4 0 .7-.3.7-.7 0-.4-.3-.7-.7-.7-.4 0-.7.3-.7.7 0 .4.3.7.7.7zm14.4 0c.4 0 .7-.3.7-.7 0-.4-.3-.7-.7-.7-.4 0-.7.3-.7.7 0 .4.3.7.7.7z" class="st1"/><circle cx=".7" cy="-.7" r=".7" class="st1"/><path d="M.7-14.4c.4 0 .7-.3.7-.7 0-.4-.3-.7-.7-.7-.4 0-.7.3-.7.7 0 .4.3.7.7.7z" class="st1"/><g><circle cx="29.5" cy="-29.5" r=".7" class="st1"/><path d="M15.1-28.8c.4 0 .7-.3.7-.7 0-.4-.3-.7-.7-.7-.4 0-.7.3-.7.7 0 .4.3.7.7.7z" class="st1"/></g><circle cx=".7" cy="-29.5" r=".7" class="st1"/><g><circle cx=".7" cy="-.7" r=".7" class="st1"/><path d="M.7-14.4c.4 0 .7-.3.7-.7 0-.4-.3-.7-.7-.7-.4 0-.7.3-.7.7 0 .4.3.7.7.7z" class="st1"/><g><circle cx=".7" cy="-29.5" r=".7" class="st1"/></g></g><g><circle cx="29.5" cy="-29.5" r=".7" class="st1"/></g><g><circle cx="29.5" cy="-29.5" r=".7" class="st1"/><path d="M15.1-28.8c.4 0 .7-.3.7-.7 0-.4-.3-.7-.7-.7-.4 0-.7.3-.7.7 0 .4.3.7.7.7z" class="st1"/><g><circle cx=".7" cy="-29.5" r=".7" class="st1"/></g></g><g><circle cx=".7" cy="-29.5" r=".7" class="st1"/></g></pattern><pattern id="SVGID_1_" patternTransform="matrix(.8904 0 0 1.0336 -787.229 290.955)" xlink:href="#New_Pattern"/><g class="st3"><path d="M348.5-3747.7h-6.9c-.2 0-.3-.1-.3-.3v-91.4c0-.2.1-.3.3-.3h6.9c.2 0 .3.1.3.3v91.4c0 .1-.1.3-.3.3z" class="st4"/><linearGradient id="SVGID_2_" x1="345.041" x2="345.041" y1="-3747.733" y2="-3839.69" gradientUnits="userSpaceOnUse"><stop offset=".005"/><stop offset=".05" stop-color="#f5f5f5"/><stop offset=".95" stop-color="#fff"/><stop offset="1"/></linearGradient><path fill="url(#SVGID_2_)" d="M348.5-3747.7h-6.9c-.2 0-.3-.1-.3-.3v-91.4c0-.2.1-.3.3-.3h6.9c.2 0 .3.1.3.3v91.4c0 .1-.1.3-.3.3z" opacity=".64"/><linearGradient id="SVGID_3_" x1="341.575" x2="341.575" y1="-3747.733" y2="-3839.69" gradientUnits="userSpaceOnUse"><stop offset=".005" stop-color="#999"/><stop offset=".5" stop-color="#c7c7c7"/><stop offset="1" stop-color="#e6e6e6"/></linearGradient><path fill="url(#SVGID_3_)" d="M341.6-3747.7c-.2 0-.3-.1-.3-.3v-91.4c0-.2.1-.3.3-.3.2 0 .3.1.3.3v91.4c0 .1-.2.3-.3.3z"/><linearGradient id="SVGID_4_" x1="341.283" x2="341.868" y1="-3793.712" y2="-3793.712" gradientUnits="userSpaceOnUse"><stop offset="0" stop-color="#e6e6e6"/><stop offset=".301" stop-color="#e3e3e3"/><stop offset=".484" stop-color="#dbdbdb"/><stop offset=".634" stop-color="#ccc"/><stop offset=".768" stop-color="#b8b8b8"/><stop offset=".889" stop-color="#9e9e9e"/><stop offset=".996" stop-color="gray"/></linearGradient><path fill="url(#SVGID_4_)" d="M341.6-3747.7c-.2 0-.3-.1-.3-.3v-91.4c0-.2.1-.3.3-.3.2 0 .3.1.3.3v91.4c0 .1-.2.3-.3.3z" opacity=".6"/></g><g class="st3"><path d="M448.3-3967.9v-5.5c0-.1.1-.2.2-.2h73.1c.1 0 .2.1.2.2v5.5c0 .1-.1.2-.2.2h-73.1c-.1 0-.2-.1-.2-.2z" class="st4"/><linearGradient id="SVGID_5_" x1="-4704.128" x2="-4704.128" y1="-2654.474" y2="-2728.04" gradientTransform="rotate(90 -1469.816 -736.4)" gradientUnits="userSpaceOnUse"><stop offset=".005"/><stop offset=".05" stop-color="#f5f5f5"/><stop offset=".95" stop-color="#fff"/><stop offset="1"/></linearGradient><path fill="url(#SVGID_5_)" d="M448.3-3967.9v-5.5c0-.1.1-.2.2-.2h73.1c.1 0 .2.1.2.2v5.5c0 .1-.1.2-.2.2h-73.1c-.1 0-.2-.1-.2-.2z" opacity=".64"/><linearGradient id="SVGID_6_" x1="-4706.901" x2="-4706.901" y1="-2654.474" y2="-2728.04" gradientTransform="rotate(90 -1469.816 -736.4)" gradientUnits="userSpaceOnUse"><stop offset=".005" stop-color="#999"/><stop offset=".5" stop-color="#c7c7c7"/><stop offset="1" stop-color="#e6e6e6"/></linearGradient><path fill="url(#SVGID_6_)" d="M448.3-3973.5c0-.1.1-.2.2-.2h73.1c.1 0 .2.1.2.2s-.1.2-.2.2h-73.1c-.1 0-.2-.1-.2-.2z"/><linearGradient id="SVGID_7_" x1="-4707.135" x2="-4706.667" y1="-2691.257" y2="-2691.257" gradientTransform="rotate(90 -1469.816 -736.4)" gradientUnits="userSpaceOnUse"><stop offset="0" stop-color="#e6e6e6"/><stop offset=".301" stop-color="#e3e3e3"/><stop offset=".484" stop-color="#dbdbdb"/><stop offset=".634" stop-color="#ccc"/><stop offset=".768" stop-color="#b8b8b8"/><stop offset=".889" stop-color="#9e9e9e"/><stop offset=".996" stop-color="gray"/></linearGradient><path fill="url(#SVGID_7_)" d="M448.3-3973.5c0-.1.1-.2.2-.2h73.1c.1 0 .2.1.2.2s-.1.2-.2.2h-73.1c-.1 0-.2-.1-.2-.2z" opacity=".6"/></g><g class="st3"><path d="M548.3-3967.9v-5.5c0-.1.1-.2.2-.2h73.1c.1 0 .2.1.2.2v5.5c0 .1-.1.2-.2.2h-73.1c-.1 0-.2-.1-.2-.2z" class="st4"/><linearGradient id="SVGID_8_" x1="-4704.128" x2="-4704.128" y1="-2754.474" y2="-2828.04" gradientTransform="rotate(90 -1469.816 -736.4)" gradientUnits="userSpaceOnUse"><stop offset=".005"/><stop offset=".05" stop-color="#f5f5f5"/><stop offset=".95" stop-color="#fff"/><stop offset="1"/></linearGradient><path fill="url(#SVGID_8_)" d="M548.3-3967.9v-5.5c0-.1.1-.2.2-.2h73.1c.1 0 .2.1.2.2v5.5c0 .1-.1.2-.2.2h-73.1c-.1 0-.2-.1-.2-.2z" opacity=".64"/><linearGradient id="SVGID_9_" x1="-4706.901" x2="-4706.901" y1="-2754.474" y2="-2828.04" gradientTransform="rotate(90 -1469.816 -736.4)" gradientUnits="userSpaceOnUse"><stop offset=".005" stop-color="#999"/><stop offset=".5" stop-color="#c7c7c7"/><stop offset="1" stop-color="#e6e6e6"/></linearGradient><path fill="url(#SVGID_9_)" d="M548.3-3973.5c0-.1.1-.2.2-.2h73.1c.1 0 .2.1.2.2s-.1.2-.2.2h-73.1c-.1 0-.2-.1-.2-.2z"/><linearGradient id="SVGID_10_" x1="-4707.135" x2="-4706.667" y1="-2791.257" y2="-2791.257" gradientTransform="rotate(90 -1469.816 -736.4)" gradientUnits="userSpaceOnUse"><stop offset="0" stop-color="#e6e6e6"/><stop offset=".301" stop-color="#e3e3e3"/><stop offset=".484" stop-color="#dbdbdb"/><stop offset=".634" stop-color="#ccc"/><stop offset=".768" stop-color="#b8b8b8"/><stop offset=".889" stop-color="#9e9e9e"/><stop offset=".996" stop-color="gray"/></linearGradient><path fill="url(#SVGID_10_)" d="M548.3-3973.5c0-.1.1-.2.2-.2h73.1c.1 0 .2.1.2.2s-.1.2-.2.2h-73.1c-.1 0-.2-.1-.2-.2z" opacity=".6"/></g><g id="cam" class="st3"><linearGradient id="SVGID_11_" x1="378.809" x2="391.888" y1="-3147.37" y2="-3129.086" gradientUnits="userSpaceOnUse"><stop offset=".005"/><stop offset="1" stop-color="#121212"/></linearGradient><path fill="url(#SVGID_11_)" d="M395-3140.3c0 6.1-5 11.1-11.1 11.1s-11.1-5-11.1-11.1 5-11.1 11.1-11.1 11.1 5 11.1 11.1z"/><path fill="#080809" d="M392.6-3140.3c0 4.8-3.9 8.8-8.8 8.8-4.8 0-8.8-3.9-8.8-8.8 0-4.8 3.9-8.8 8.8-8.8s8.8 3.9 8.8 8.8z"/><linearGradient id="SVGID_12_" x1="382.639" x2="388.603" y1="-3143.221" y2="-3132.462" gradientUnits="userSpaceOnUse"><stop offset=".005" stop-color="#00306a"/><stop offset=".436" stop-color="#02050d"/><stop offset="1" stop-color="#002b3f"/></linearGradient><path fill="url(#SVGID_12_)" d="M390.2-3140.3c0 3.3-2.7 6-6 6s-6-2.7-6-6 2.7-6 6-6c3.4 0 6 2.7 6 6z"/><radialGradient id="SVGID_13_" cx="1091.242" cy="-3664.257" r="5.398" gradientTransform="matrix(.9843 0 0 .9864 -690.3 474.13)" gradientUnits="userSpaceOnUse"><stop offset=".578" stop-color="#083547"/><stop offset="1" stop-color="#000f26"/></radialGradient><path fill="url(#SVGID_13_)" d="M389.4-3140.3c0 3.1-2.5 5.6-5.6 5.6s-5.5-2.5-5.5-5.6c0-3.1 2.5-5.5 5.5-5.5s5.6 2.4 5.6 5.5z"/><path d="M385.7-3140.3c0 1-.8 1.9-1.9 1.9-1 0-1.8-.8-1.8-1.9 0-1 .8-1.8 1.8-1.8s1.9.8 1.9 1.8z"/><path fill="#fff" d="M386.1-3138.4c0 .4-.3.7-.7.7-.4 0-.6-.3-.6-.7 0-.4.3-.7.6-.7.4 0 .7.3.7.7zm-2.9-2.8c0 .3-.2.5-.5.5s-.5-.2-.5-.5.2-.5.5-.5c.3.1.5.3.5.5z" opacity=".5"/></g><path d="M420.1 203.6c-13.2 0-24.3-2.1-33.3-6.2-9-4.1-15.8-9.4-20.6-15.8-4.8-6.5-7.3-13.3-7.6-20.4 0-1.2.5-2.3 1.5-3.3s2.2-1.5 3.5-1.5h11.6c1.8 0 3.2.5 4.1 1.4.9.9 1.5 2 1.8 3.2.9 3.6 2.8 7.3 5.7 10.8 2.9 3.6 7 6.5 12.4 8.9 5.4 2.4 12.3 3.5 20.9 3.5 13.1 0 22.7-2.3 28.8-7 6.2-4.6 9.2-10.8 9.2-18.6 0-5.3-1.6-9.6-4.9-12.9-3.3-3.3-8.2-6.2-14.9-8.8-6.7-2.6-15.4-5.4-26-8.4-11.1-3.2-20.3-6.7-27.6-10.5-7.3-3.8-12.7-8.5-16.3-14.1-3.6-5.6-5.4-12.8-5.4-21.4 0-8.2 2.2-15.5 6.6-22 4.4-6.5 10.8-11.6 19.2-15.4 8.4-3.8 18.4-5.7 30.1-5.7 9.4 0 17.7 1.3 24.7 3.8 7.1 2.5 13 5.9 17.7 10 4.7 4.2 8.3 8.7 10.7 13.5 2.4 4.8 3.7 9.5 3.9 14 0 1.1-.4 2.1-1.1 3.1-.8 1-2 1.5-3.6 1.5H459c-1.1 0-2.2-.3-3.3-.9-1.1-.6-2-1.7-2.6-3.4-.9-6.2-4.4-11.5-10.5-15.7-6.1-4.3-14-6.4-23.7-6.4-9.9 0-17.9 1.9-24.1 5.7-6.2 3.8-9.2 9.7-9.2 17.8 0 5.2 1.4 9.5 4.3 12.9 2.9 3.4 7.4 6.4 13.7 9 6.2 2.6 14.4 5.3 24.4 8.2 12.2 3.3 22.1 6.9 29.9 10.6 7.8 3.7 13.5 8.4 17.2 13.9 3.7 5.6 5.6 12.7 5.6 21.3 0 9.6-2.5 17.8-7.5 24.5-5 6.8-12 11.9-21.1 15.5-9.1 3.5-19.7 5.3-32 5.3zm153.6 0c-14 0-25.6-2.6-34.8-7.8-9.2-5.2-16.2-12.4-20.9-21.7-4.7-9.3-7.3-20.1-7.8-32.4-.2-6.2-.2-12.9-.2-20.1 0-7.1.1-14 .2-20.5.5-12.3 3-23.1 7.8-32.4 4.7-9.3 11.7-16.5 20.9-21.7 9.2-5.2 20.8-7.8 34.8-7.8 10.5 0 19.7 1.4 27.6 4.3 7.9 2.9 14.5 6.8 19.7 11.6 5.2 4.9 9.2 10.3 12 16.3 2.7 6 4.3 12.2 4.6 18.6.2 1.4-.3 2.5-1.3 3.4-1 .9-2.2 1.4-3.5 1.4h-12.5c-1.4 0-2.5-.4-3.5-1.1-1-.8-1.7-2.1-2.2-4.1-2.6-11.9-7.4-20-14.5-24.4-7.1-4.4-15.8-6.6-26.3-6.6-12.3 0-22 3.5-29.2 10.4-7.1 6.9-10.9 18-11.4 33.2-.5 12.5-.5 25.2 0 38.3.5 15.2 4.3 26.3 11.4 33.2 7.1 6.9 16.9 10.4 29.2 10.4 10.5 0 19.3-2.2 26.3-6.6 7.1-4.4 11.9-12.5 14.5-24.4.5-2 1.2-3.3 2.2-4.1 1-.8 2.2-1.1 3.5-1.1h12.5c1.4 0 2.5.4 3.5 1.3 1 .8 1.4 1.9 1.3 3.3-.3 6.4-1.8 12.6-4.6 18.7-2.7 6.1-6.7 11.6-12 16.4-5.2 4.9-11.8 8.7-19.7 11.6-7.9 2.9-17.1 4.4-27.6 4.4zm87.8-2.3c-1.2 0-2.3-.5-3.2-1.4-.9-.9-1.4-2-1.4-3.2 0-.8.1-1.6.2-2.5l56.6-147.5c.6-1.5 1.4-2.7 2.5-3.6 1.1-.9 2.7-1.4 4.8-1.4h15.5c2.1 0 3.7.5 4.8 1.4 1.1.9 1.9 2.1 2.5 3.6l56.3 147.5c.3.9.5 1.8.5 2.5 0 1.2-.5 2.3-1.4 3.2-.9.9-2 1.4-3.2 1.4h-11.6c-1.8 0-3.2-.5-4-1.4-.8-.9-1.4-1.7-1.7-2.5L766.2 165h-74.8l-12.5 32.4c-.2.8-.7 1.6-1.6 2.5-.9.9-2.3 1.4-4.1 1.4h-11.7zm36.5-55.9h61.6l-30.8-81-30.8 81zm138 55.9c-1.7 0-3-.5-3.9-1.5-.9-1-1.4-2.2-1.4-3.8V47.1c0-1.7.5-3 1.4-4 .9-1 2.2-1.5 3.9-1.5h55.6c17.2 0 30.8 4 40.8 12.1 10 8.1 15 20 15 35.8 0 11.7-2.9 21.2-8.8 28.6-5.9 7.4-13.8 12.5-23.8 15.4l35.1 60.7c.5.9.7 1.8.7 2.5 0 1.2-.5 2.3-1.5 3.2-1 .9-2.1 1.4-3.3 1.4H935c-2.6 0-4.5-.7-5.7-2.1-1.2-1.4-2.3-2.7-3.2-4.1L893 137.2h-39.9V196c0 1.5-.5 2.8-1.5 3.8s-2.3 1.5-4 1.5H836zm17.1-83.5h37.6c11.4 0 19.9-2.4 25.5-7.2 5.6-4.8 8.4-11.9 8.4-21.3 0-9.3-2.8-16.3-8.3-21.2-5.6-4.9-14.1-7.3-25.7-7.3H853v57zM991 201.3c-1.7 0-3-.5-3.9-1.5-.9-1-1.4-2.2-1.4-3.8V47.1c0-1.7.5-3 1.4-4 .9-1 2.2-1.5 3.9-1.5h93c1.7 0 3 .5 4 1.5s1.5 2.3 1.5 4v9.1c0 1.7-.5 3-1.5 3.9-1 .9-2.3 1.4-4 1.4h-76.2v53.1h71.6c1.7 0 3 .5 4 1.5s1.5 2.3 1.5 4v9.1c0 1.5-.5 2.8-1.5 3.8s-2.3 1.5-4 1.5h-71.6v61.6c0 1.5-.5 2.8-1.5 3.8s-2.3 1.5-4 1.5H991z" class="st21"/><path id="XMLID_4_" d="M244.5 106.9V92.3c0-11-9-20-20-20h-91.1V28c0-3-2.4-5.4-5.4-5.4h-7.2V6.7c0-3-2.4-5.4-5.4-5.4-3 0-5.4 2.4-5.4 5.4v15.9H94.6V6.7c0-3-2.4-5.4-5.4-5.4-3 0-5.4 2.4-5.4 5.4v15.9H68.3V6.7c0-3-2.4-5.4-5.4-5.4-3 0-5.4 2.4-5.4 5.4v15.9H41.9V6.7c0-3-2.4-5.4-5.4-5.4-3 0-5.4 2.4-5.4 5.4v15.9H24c-3 0-5.4 2.4-5.4 5.4v44.5C8.4 73.4.4 81.9.4 92.3v14.6c0 5.7 2.4 10.9 6.3 14.6-3.9 3.6-6.3 8.8-6.3 14.6v14.6c0 11 9 20 20 20h91.1V215c0 3 2.4 5.4 5.4 5.4h7.2v15.9c0 3 2.4 5.4 5.4 5.4s5.4-2.4 5.4-5.4v-15.9h15.5v15.9c0 3 2.4 5.4 5.4 5.4 3 0 5.4-2.4 5.4-5.4v-15.9h15.5v15.9c0 3 2.4 5.4 5.4 5.4s5.4-2.4 5.4-5.4v-15.9H203v15.9c0 3 2.4 5.4 5.4 5.4s5.4-2.4 5.4-5.4v-15.9h7.2c3 0 5.4-2.4 5.4-5.4v-44.5c10.2-.9 18.1-9.5 18.1-19.9V136c0-5.7-2.4-10.9-6.3-14.6 3.9-3.6 6.3-8.8 6.3-14.5zM29.4 33.4h93.3v39H29.4v-39zm186.2 176.2h-93.4v-39h93.3l.1 39zm18.2-102.7c0 5.1-4.1 9.2-9.2 9.2h-53.8c-3 0-5.4 2.4-5.4 5.4 0 3 2.4 5.4 5.4 5.4h53.8c5.1 0 9.2 4.1 9.2 9.2v14.6c0 5.1-4.1 9.2-9.2 9.2H20.4c-5.1 0-9.2-4.1-9.2-9.2v-14.6c0-5.1 4.1-9.2 9.2-9.2h53.8c3 0 5.4-2.4 5.4-5.4 0-3-2.4-5.4-5.4-5.4H20.4c-5.1 0-9.2-4.1-9.2-9.2V92.3c0-5.1 4.1-9.2 9.2-9.2h204.2c5.1 0 9.2 4.1 9.2 9.2v14.6z" class="st21"/></svg>