<svg xmlns="http://www.w3.org/2000/svg" viewBox="22.14 17.14 252.72 117.72"><title>Scylla logo</title><path fill="#667AC4" fill-rule="evenodd" d="M145.928 32.933c-.071 5.355-4.41 9.534-9.843 9.48-5.309-.052-9.547-4.458-9.477-9.852.069-5.288 4.461-9.583 9.728-9.511 5.434.075 9.665 4.434 9.592 9.883z" clip-rule="evenodd"/><path fill="#3D3056" fill-rule="evenodd" d="M112.325 96.515c-1.548-1.286-3.221-1.68-5.08-1.086-.908.29-1.719.894-1.57 1.845.11.706.695 1.561 1.316 1.912 1.055.599 2.3.868 3.474 1.249 3.735 1.214 5.214 2.971 5.13 6.119-.088 3.311-2.08 5.712-5.608 6.536-3.665.855-7.04.234-10.061-2.365l3.353-3.698c1.376 1.393 2.958 2.22 4.94 1.901.501-.081 1.022-.227 1.462-.473 1.415-.793 1.535-2.4.187-3.303-.779-.521-1.719-.814-2.606-1.16-1.001-.391-2.052-.662-3.032-1.097-3.734-1.659-4.778-5.898-2.288-9.163 2.81-3.687 10.202-4.085 13.538-.658l-3.155 3.441zm32.536-2.551l-3.314 2.695c-1.312-.528-2.425-1.24-3.614-1.404-3.269-.45-5.942 1.388-6.695 4.616-.308 1.318-.325 2.797-.083 4.132.436 2.405 1.893 4.165 4.326 4.796 2.363.613 4.427-.024 5.993-2.084l3.857 2.872c-1.687 3.053-6.315 4.554-10.763 3.531-5.019-1.154-8.349-4.978-8.623-9.899-.32-5.75 2.273-10.027 7.126-11.754 4.531-1.612 9.569-.565 11.79 2.499z" clip-rule="evenodd"/><path fill="#3D3057" fill-rule="evenodd" d="M241.462 97.624l-5.886 15.229h-5.295l9.337-21.535h3.998c3.104 7.105 6.21 14.219 9.374 21.466h-5.424l-6.104-15.16z" clip-rule="evenodd"/><path fill="#4ABCD6" fill-rule="evenodd" d="M131.188 47.588c.035 4.044-3.247 7.377-7.343 7.458-3.973.079-7.443-3.345-7.454-7.354-.011-4.024 3.374-7.403 7.406-7.394 3.997.01 7.357 3.324 7.391 7.29z" clip-rule="evenodd"/><path fill="#4ABCD5" fill-rule="evenodd" d="M70.995 37.4c-4.032-.012-7.42-3.377-7.354-7.305.07-4.136 3.347-7.373 7.445-7.355 4.042.018 7.322 3.296 7.33 7.326.007 4.106-3.271 7.346-7.421 7.334z" clip-rule="evenodd"/><path fill="#3D3056" fill-rule="evenodd" d="M153.243 91.337h5.894l4.559 7.981 4.818-7.974h5.589c-.188.337-.331.638-.513.913-2.32 3.538-4.666 7.06-6.949 10.621-.34.529-.536 1.24-.551 1.873-.06 2.669-.025 5.34-.025 8.076h-4.791c0-1.475-.143-2.951.028-4.39.4-3.359-.553-6.186-2.637-8.841-1.769-2.252-3.194-4.773-4.768-7.179-.209-.317-.395-.651-.654-1.08z" clip-rule="evenodd"/><path fill="#3F3258" fill-rule="evenodd" d="M184.019 91.309h4.653v17.094h8.804v4.418h-13.457V91.309z" clip-rule="evenodd"/><path fill="#3E3157" fill-rule="evenodd" d="M208.369 91.342h4.697v17.065h8.806v4.43h-13.503V91.342z" clip-rule="evenodd"/><path fill="#677BC4" fill-rule="evenodd" d="M32.948 70.791c-3.295.003-5.877-2.549-5.886-5.82-.009-3.234 2.599-5.883 5.836-5.928 3.262-.045 5.947 2.642 5.937 5.939-.011 3.28-2.57 5.806-5.887 5.809z" clip-rule="evenodd"/><path fill="#57CC8A" fill-rule="evenodd" d="M119.491 59.319a5.855 5.855 0 0 1-5.831 5.893c-3.237.02-5.912-2.595-5.943-5.81-.033-3.283 2.621-5.946 5.922-5.943 3.269.003 5.841 2.579 5.852 5.86z" clip-rule="evenodd"/><path fill="#677BC4" fill-rule="evenodd" d="M77.983 45.467c.011 3.303-2.521 5.855-5.818 5.865-3.324.01-5.977-2.612-5.958-5.889.018-3.192 2.737-5.883 5.92-5.859a5.884 5.884 0 0 1 5.856 5.883z" clip-rule="evenodd"/><path fill="#3C2F56" fill-rule="evenodd" d="M109.661 69.277c-.006 2.627-2.078 4.678-4.72 4.672a4.674 4.674 0 0 1-4.687-4.716 4.714 4.714 0 0 1 4.731-4.694c2.6.012 4.682 2.122 4.676 4.738z" clip-rule="evenodd"/><path fill="#4BBCD6" fill-rule="evenodd" d="M42.951 78.295c-2.56.036-4.77-2.122-4.79-4.676-.02-2.526 2.181-4.75 4.717-4.767 2.555-.018 4.778 2.163 4.784 4.69.005 2.575-2.118 4.717-4.711 4.753z" clip-rule="evenodd"/><path fill="#677BC4" fill-rule="evenodd" d="M32.273 100.718c2.662.013 4.673 2.067 4.652 4.75-.02 2.563-2.097 4.621-4.675 4.632a4.688 4.688 0 0 1-4.72-4.716c.004-2.649 2.069-4.68 4.743-4.666z" clip-rule="evenodd"/><path fill="#57CC8A" fill-rule="evenodd" d="M77.731 58.623c.002 2.633-2.085 4.697-4.732 4.68a4.668 4.668 0 0 1-4.664-4.641c-.017-2.636 2.056-4.73 4.686-4.735 2.669-.006 4.709 2.029 4.71 4.696z" clip-rule="evenodd"/><path fill="#B297D1" fill-rule="evenodd" d="M270.663 110.128a3.999 3.999 0 0 1-4.005 4.053c-2.204-.002-4.138-1.88-4.118-4.001.02-2.172 1.927-4.103 4.053-4.104 2.178-.002 4.053 1.864 4.07 4.052z" clip-rule="evenodd"/><path fill="#3E3157" fill-rule="evenodd" d="M101.425 77.559c-.069 2.041-1.808 3.705-3.838 3.675-2.086-.031-3.828-1.835-3.751-3.886.077-2.043 1.816-3.708 3.841-3.676 2.089.033 3.818 1.827 3.748 3.887z" clip-rule="evenodd"/><path fill="#3C2F56" fill-rule="evenodd" d="M73.823 73.186c-2.088.011-3.761-1.599-3.8-3.657a3.762 3.762 0 0 1 3.754-3.836 3.736 3.736 0 0 1 3.795 3.789c-.015 2.069-1.658 3.693-3.749 3.704z" clip-rule="evenodd"/><path fill="#58CC8A" fill-rule="evenodd" d="M43.095 108.411c-2.101-.01-3.811-1.75-3.777-3.845.033-2.036 1.772-3.738 3.794-3.71 2.091.029 3.837 1.799 3.8 3.853-.036 2.017-1.784 3.712-3.817 3.702zm8.067-31.447c2.149.009 3.778 1.673 3.743 3.823-.033 2.082-1.668 3.66-3.788 3.656-2.077-.005-3.742-1.639-3.771-3.701-.028-2.093 1.683-3.787 3.816-3.778z" clip-rule="evenodd"/><path fill="#4BBCD6" fill-rule="evenodd" d="M54.381 123.5c2.074-.004 3.793 1.632 3.829 3.646.038 2.085-1.67 3.815-3.784 3.835-2.095.02-3.848-1.722-3.819-3.792.03-2.08 1.671-3.685 3.774-3.689z" clip-rule="evenodd"/><path fill="#3E3157" fill-rule="evenodd" d="M77.584 80.329c-.029 1.692-1.387 2.979-3.107 2.942-1.63-.035-2.96-1.376-2.96-2.986 0-1.643 1.418-3.048 3.064-3.037 1.66.012 3.033 1.421 3.003 3.081z" clip-rule="evenodd"/><path fill="#3D3057" fill-rule="evenodd" d="M50.962 103.934a2.981 2.981 0 0 1 2.995-3.054c1.678-.01 3.063 1.354 3.058 3.013-.004 1.594-1.343 2.96-2.957 3.016-1.646.057-3.065-1.306-3.096-2.975zm39.695-21.287c1.676-.007 3.06 1.368 3.046 3.026-.013 1.642-1.449 3.04-3.089 3.007-1.611-.032-2.954-1.379-2.981-2.99-.029-1.661 1.339-3.037 3.024-3.043z" clip-rule="evenodd"/><path fill="#3E3157" fill-rule="evenodd" d="M62.369 87.833c-.001 1.685-1.367 3.047-3.035 3.027a3.043 3.043 0 0 1-2.993-3.084c.026-1.634 1.338-2.922 2.991-2.935 1.722-.013 3.038 1.284 3.037 2.992zm15.228 39.564c-1.676-.026-3.037-1.436-2.981-3.087.056-1.661 1.48-2.984 3.152-2.928 1.637.056 2.902 1.386 2.89 3.04-.013 1.706-1.347 3.003-3.061 2.975z" clip-rule="evenodd"/><path fill="#58CC8A" fill-rule="evenodd" d="M64.542 119.052c-.011 1.635-1.324 2.985-2.928 3.012-1.655.028-3.082-1.354-3.096-3-.014-1.673 1.335-3.032 3.029-3.053 1.685-.02 3.006 1.321 2.995 3.041z" clip-rule="evenodd"/><path fill="#3F3258" fill-rule="evenodd" d="M83.623 110.918a2.383 2.383 0 0 1 2.435-2.41c1.333.017 2.43 1.152 2.393 2.479-.037 1.299-1.08 2.312-2.401 2.332-1.374.021-2.428-1.022-2.427-2.401z" clip-rule="evenodd"/><path fill="#3E3157" fill-rule="evenodd" d="M87.12 92.5a2.374 2.374 0 0 1-2.468 2.367c-1.292-.034-2.349-1.103-2.359-2.384-.01-1.335 1.082-2.423 2.436-2.428 1.348-.005 2.406 1.076 2.391 2.445z" clip-rule="evenodd"/><path fill="#3F3258" fill-rule="evenodd" d="M75.221 91.679c-1.362.013-2.456-1.059-2.453-2.401.003-1.331 1.13-2.441 2.458-2.422 1.271.019 2.366 1.098 2.402 2.367.038 1.328-1.056 2.444-2.407 2.456zm-5.31 20.51a2.423 2.423 0 0 1-2.419 2.445c-1.329.003-2.441-1.12-2.425-2.448.016-1.298 1.051-2.327 2.368-2.354 1.38-.028 2.462 1.001 2.476 2.357z" clip-rule="evenodd"/><path fill="#3E3157" fill-rule="evenodd" d="M60.61 103.241a2.402 2.402 0 0 1 2.442-2.409c1.331.026 2.433 1.173 2.391 2.486-.041 1.284-1.119 2.333-2.408 2.343a2.389 2.389 0 0 1-2.425-2.42z" clip-rule="evenodd"/><path fill="#3F3258" fill-rule="evenodd" d="M66.193 91.361c1.383-.006 2.419 1.036 2.406 2.418a2.387 2.387 0 0 1-2.458 2.388 2.42 2.42 0 0 1-2.36-2.378c-.018-1.361 1.035-2.422 2.412-2.428zm13.229 24.049c-.008 1.375-1.065 2.404-2.448 2.382a2.404 2.404 0 0 1-2.377-2.357c-.023-1.333 1.074-2.449 2.413-2.456 1.363-.006 2.419 1.059 2.412 2.431z" clip-rule="evenodd"/></svg>