<svg xmlns="http://www.w3.org/2000/svg" role="img" xmlns:xlink="http://www.w3.org/1999/xlink" viewBox="4.70 9.45 184.86 80.11"><title>seL4 logo</title><g display="inline"><defs><path id="a" d="M20.341 51.676c0-3.94 3.193-7.136 7.139-7.136 3.941 0 7.135 3.195 7.135 7.136 0 3.942-3.193 7.138-7.135 7.138-3.946 0-7.139-3.196-7.139-7.138m146.605-19.664v14.414h-11.26zm-60.357 2.37c0-2.214.154-2.843.283-3.142.178-.396.619-.872 1.734-.872.758 0 1.32.349 1.576.982.129.314.301.973.301 3.031v2.612h-3.895v-2.611zm18.855-21.295v33.388h-6.559c.066-.627.096-1.342.096-2.203v-.815h-7.934v2.271c0 1.523-.133 2.501-.424 3.082-.238.474-.77 1.039-1.947 1.039-.992 0-1.451-.457-1.662-.836-.162-.29-.377-.889-.377-2.731v-6.645h12.344v-3.183c0-2.635-.334-4.696-.998-6.123-.645-1.387-1.795-2.521-3.412-3.373-1.654-.865-3.793-1.304-6.367-1.304-2.096 0-3.975.366-5.576 1.085-1.561.701-2.695 1.717-3.373 3.018-.693 1.338-1.047 3.211-1.047 5.572v8.214c0 1.134.057 2.101.154 2.931h-3.564c.018-.334.039-.66.039-1.021 0-1.913-.396-3.374-1.178-4.344-.805-.999-2.568-2.104-5.244-3.28-2.129-.941-3.51-1.648-4.217-2.157-.773-.554-1.232-1.079-1.406-1.603-.154-.462-.229-1.14-.229-2.071 0-.766.176-1.368.529-1.79.373-.448.924-.675 1.629-.675.889 0 1.475.282 1.74.835.139.297.299.872.299 2.711v1.527h7.344v-1.634c0-1.362-.076-2.366-.232-2.986-.139-.562-.566-1.204-1.27-1.906-.713-.713-1.766-1.299-3.133-1.745-1.395-.453-3.117-.682-5.127-.682-2.018 0-3.807.281-5.318.836-1.457.533-2.494 1.287-3.084 2.244-.605.976-.91 2.552-.91 4.687 0 1.482.287 2.776.857 3.846.555 1.044 2.199 2.263 4.881 3.616 4.498 2.252 5.396 2.844 5.688 3.114.465.459.682 1.387.682 2.921 0 1.142-.17 1.868-.539 2.287-.375.427-.992.645-1.83.645-1.072 0-1.549-.542-1.762-.998-.16-.339-.371-1.038-.371-3.185v-2.329H75.29v1.904c0 .438.021.838.045 1.233h-7.027c-2.484-14.066-14.861-24.761-29.77-24.761-16.697 0-30.234 13.415-30.234 29.962 0 16.548 13.537 29.962 30.234 29.962 14.93 0 27.324-10.727 29.781-24.824l98.627.003v9.856h13.277v-9.856h5.898v-10.39h-5.898V19.409h-13.008l-22.697 27.066h-6.363V13.087z"/></defs><clipPath id="b"><use width="100%" height="100%" x="0" y="0" overflow="visible" xlink:href="#a"/></clipPath><radialGradient cx="-260.235" cy="697.833" r=".48" gradientTransform="matrix(140.2563 0 0 -140.2563 36596.844 97922.703)" gradientUnits="userSpaceOnUse"><stop offset="0" stop-color="#96ca4f"/><stop offset="1" stop-color="#58b947"/></radialGradient><path fill="#96ca4f" fill-opacity="1" d="M8.304 13.087h177.818v68.551H8.304z" clip-path="url(#b)"/></g><path d="M68.202 81.593l1.185-.14c.133.937.569 1.404 1.31 1.404.366 0 .654-.096.864-.287s.314-.429.314-.712c0-.167-.036-.308-.109-.425-.073-.116-.185-.212-.335-.287-.149-.075-.513-.2-1.09-.376-.516-.156-.895-.326-1.134-.509-.24-.183-.431-.423-.572-.722-.142-.298-.213-.618-.213-.961 0-.399.091-.759.272-1.079.182-.32.433-.561.752-.724.32-.163.715-.245 1.185-.245.706 0 1.258.191 1.654.575s.606.931.63 1.644l-1.215.065c-.053-.393-.168-.668-.345-.825-.177-.156-.428-.235-.754-.235-.327 0-.578.068-.755.205s-.265.306-.265.508c0 .2.08.367.24.503s.528.286 1.104.449c.609.177 1.05.362 1.321.558.271.195.479.446.622.754s.215.682.215 1.122c0 .636-.196 1.171-.587 1.604-.392.433-1.004.649-1.837.649-1.471 0-2.29-.837-2.457-2.513z"/><path d="M76.629 82.297l1.145.235c-.154.533-.393.929-.716 1.187-.324.258-.718.387-1.181.387-.645 0-1.142-.215-1.491-.646-.414-.5-.621-1.202-.621-2.103 0-.888.209-1.599.625-2.133.354-.451.81-.676 1.369-.676.623 0 1.111.23 1.465.69.406.527.609 1.305.609 2.333l-.005.16h-2.884c.007.421.102.748.283.979.182.23.401.346.659.346.372.001.619-.252.743-.759zm.059-1.424c-.01-.415-.099-.727-.265-.936-.167-.209-.365-.313-.595-.313-.243 0-.448.109-.615.326-.17.221-.253.529-.249.923h1.724z"/><path d="M82.564 80.238l-1.134.25c-.084-.557-.347-.834-.789-.834-.285 0-.515.12-.688.361-.175.241-.262.646-.262 1.218 0 .632.087 1.078.261 1.338.174.261.405.391.696.391.217 0 .396-.074.536-.222.141-.148.241-.411.301-.787l1.135.235c-.233 1.279-.905 1.919-2.015 1.919-.709 0-1.235-.271-1.579-.811-.343-.541-.515-1.191-.515-1.953 0-.911.194-1.604.583-2.08s.898-.713 1.528-.713c.511 0 .927.135 1.249.405.322.269.554.697.693 1.283z"/><path d="M86.288 83.981v-.794c-.159.288-.369.513-.628.675-.26.163-.531.244-.813.244-.286 0-.542-.075-.769-.225-.226-.15-.395-.363-.506-.64s-.167-.679-.167-1.206v-3.361h1.154v2.438c0 .696.017 1.139.052 1.327.035.188.112.334.231.437.12.104.265.155.434.155.193 0 .371-.067.533-.202.163-.135.271-.308.321-.52.052-.211.077-.677.077-1.396v-2.239h1.155v5.307h-1.074z"/><path d="M89.666 83.981h-1.154v-5.307h1.069v.754c.184-.353.348-.588.492-.705.146-.117.312-.175.503-.175.263 0 .515.088.754.265l-.359 1.225c-.19-.153-.37-.23-.54-.23-.16 0-.301.059-.422.178-.122.118-.209.333-.263.643-.054.311-.08.881-.08 1.711v1.641z"/><path d="M91.825 77.955v-1.299h1.154v1.299h-1.154zm0 6.026v-5.307h1.154v5.307h-1.154z"/><path d="M96.148 78.674v1.119h-.784v2.143c0 .464.011.732.034.806.047.134.142.2.285.2.106 0 .26-.045.46-.135l.1 1.089c-.267.14-.568.21-.904.21-.293 0-.528-.07-.705-.21-.177-.14-.295-.342-.354-.605-.047-.193-.07-.587-.07-1.181v-2.316h-.53v-1.119h.529V77.62l1.155-.82v1.875h.784z"/><path d="M96.403 78.674h1.229l1.037 3.77 1.017-3.77h1.195l-1.535 5.107-.296.994c-.13.373-.26.646-.388.82-.129.173-.292.307-.49.4-.199.093-.443.14-.733.14-.224 0-.442-.028-.656-.085l-.1-1.099c.18.043.342.065.485.065.22 0 .4-.073.542-.22.142-.146.258-.412.349-.798l-1.656-5.324z"/><path d="M101.006 83.981v-1.404h1.149v1.404h-1.149z"/><path d="M105.679 83.981v-7.326h1.949c.727 0 1.201.035 1.425.105.356.113.65.354.882.725.231.37.347.846.347 1.429 0 .53-.1.974-.3 1.332-.199.358-.449.61-.749.755s-.816.217-1.55.217h-.794v2.764h-1.21zm1.21-6.086v2.084h.671c.451 0 .757-.032.919-.095s.295-.178.398-.343c.104-.165.155-.368.155-.608 0-.244-.054-.449-.16-.616s-.239-.279-.396-.336c-.157-.057-.489-.085-.997-.085h-.59z"/><path d="M113.8 82.297l1.145.235c-.154.533-.393.929-.716 1.187-.324.258-.718.387-1.181.387-.645 0-1.142-.215-1.491-.646-.414-.5-.621-1.202-.621-2.103 0-.888.209-1.599.625-2.133.354-.451.81-.676 1.369-.676.623 0 1.111.23 1.465.69.406.527.609 1.305.609 2.333l-.005.16h-2.884c.007.421.102.748.283.979.182.23.401.346.659.346.372.001.619-.252.743-.759zm.059-1.424c-.01-.415-.099-.727-.265-.936-.167-.209-.365-.313-.595-.313-.243 0-.448.109-.615.326-.17.221-.253.529-.249.923h1.724z"/><path d="M117.043 83.981h-1.154v-5.307h1.069v.754c.184-.353.348-.588.492-.705.146-.117.312-.175.503-.175.263 0 .515.088.754.265l-.359 1.225c-.19-.153-.37-.23-.54-.23-.16 0-.301.059-.422.178-.122.118-.209.333-.263.643-.054.311-.08.881-.08 1.711v1.641z"/><path d="M118.696 78.674h.64v-.4c0-.483.046-.833.138-1.05.092-.216.241-.386.446-.51.205-.123.458-.185.759-.185.327 0 .647.06.962.18l-.15.975c-.187-.053-.365-.08-.535-.08-.163 0-.281.047-.354.141s-.109.278-.109.552v.377h.859v1.104h-.859v4.203h-1.155v-4.203h-.64v-1.104z"/><path d="M121.726 81.252c0-.521.104-.994.31-1.421.207-.427.477-.748.81-.961s.708-.32 1.125-.32c.699 0 1.249.274 1.648.823.4.549.6 1.191.6 1.925 0 .547-.104 1.042-.312 1.482-.209.44-.481.772-.82.994-.338.222-.709.333-1.111.333-.646 0-1.183-.247-1.609-.741-.429-.494-.641-1.199-.641-2.114zm1.179.076c0 .538.104.945.315 1.221.21.276.464.414.761.414.291 0 .54-.139.747-.416s.311-.687.311-1.228c0-.528-.105-.931-.315-1.208-.211-.277-.463-.417-.757-.417-.29 0-.54.139-.749.417s-.313.682-.313 1.217z"/><path d="M128.228 83.981h-1.154v-5.307h1.069v.754c.184-.353.348-.588.492-.705.146-.117.312-.175.503-.175.263 0 .515.088.754.265l-.359 1.225c-.19-.153-.37-.23-.54-.23-.16 0-.301.059-.422.178-.122.118-.209.333-.263.643-.054.311-.08.881-.08 1.711v1.641z"/><path d="M130.296 78.674h1.06v.725c.189-.283.398-.496.625-.637s.471-.212.734-.212c.28 0 .522.07.728.21.204.14.372.352.502.634.193-.283.4-.495.622-.634.222-.14.457-.21.707-.21.297 0 .553.071.768.212s.378.344.489.608c.111.263.168.668.168 1.215v3.396h-1.155v-3.037c0-.53-.046-.883-.14-1.058-.093-.175-.25-.263-.47-.263-.257 0-.463.123-.619.368-.157.246-.235.725-.235 1.438v2.552h-1.154v-2.912c0-.577-.032-.949-.095-1.116-.084-.22-.252-.33-.505-.33-.17 0-.327.057-.47.17-.144.113-.247.279-.311.498-.062.219-.095.588-.095 1.108v2.582h-1.154v-5.307z"/><path d="M138.707 80.288l-1.044-.229c.126-.537.336-.922.627-1.157.292-.235.711-.352 1.257-.352.486 0 .858.068 1.114.205.257.137.44.323.55.558.11.235.165.663.165 1.283l-.01 1.641c0 .46.019.803.055 1.028.037.225.105.464.205.718h-1.14l-.149-.58c-.197.233-.407.409-.633.527-.225.118-.464.177-.717.177-.423 0-.77-.143-1.039-.428-.271-.286-.405-.665-.405-1.139 0-.3.055-.562.165-.786s.265-.402.465-.536.52-.252.959-.355c.533-.123.905-.238 1.115-.345 0-.295-.021-.488-.062-.58-.042-.092-.119-.167-.23-.227-.111-.059-.269-.088-.472-.088-.207 0-.369.047-.487.14s-.216.269-.289.525zm1.54 1.145c-.147.06-.375.13-.686.21-.356.094-.589.197-.699.311s-.165.261-.165.441c0 .204.061.375.183.514.121.139.274.208.457.208.163 0 .325-.056.485-.167.159-.112.271-.245.332-.399.062-.153.093-.433.093-.837v-.281z"/><path d="M146.473 83.981h-1.154V81.27c0-.543-.021-.905-.064-1.085-.044-.18-.125-.319-.243-.416s-.252-.145-.402-.145c-.192 0-.368.062-.524.188-.156.125-.267.298-.33.518s-.095.635-.095 1.246v2.407h-1.154v-5.307h1.069v.774c.19-.3.404-.525.643-.675s.502-.225.792-.225c.336 0 .62.087.852.262.231.175.392.4.48.675.088.275.132.673.132 1.193v3.301z"/><path d="M151.44 80.238l-1.134.25c-.084-.557-.347-.834-.789-.834-.285 0-.515.12-.688.361-.175.241-.262.646-.262 1.218 0 .632.087 1.078.261 1.338.174.261.405.391.696.391.217 0 .396-.074.536-.222.141-.148.241-.411.301-.787l1.135.235c-.233 1.279-.905 1.919-2.015 1.919-.709 0-1.235-.271-1.579-.811-.343-.541-.515-1.191-.515-1.953 0-.911.194-1.604.583-2.08s.898-.713 1.528-.713c.511 0 .927.135 1.249.405.322.269.554.697.693 1.283z"/><path d="M154.839 82.297l1.145.235c-.154.533-.393.929-.716 1.187-.324.258-.718.387-1.181.387-.645 0-1.142-.215-1.491-.646-.414-.5-.621-1.202-.621-2.103 0-.888.209-1.599.625-2.133.354-.451.81-.676 1.369-.676.623 0 1.111.23 1.465.69.406.527.609 1.305.609 2.333l-.005.16h-2.884c.007.421.102.748.283.979.182.23.401.346.659.346.372.001.619-.252.743-.759zm.059-1.424c-.01-.415-.099-.727-.265-.936-.167-.209-.365-.313-.595-.313-.243 0-.448.109-.615.326-.17.221-.253.529-.249.923h1.724z"/><path d="M156.978 83.981v-1.404h1.149v1.404h-1.149z"/><path d="M161.65 83.981v-7.326h1.949c.727 0 1.201.035 1.425.105.356.113.65.354.882.725.231.37.347.846.347 1.429 0 .53-.1.974-.3 1.332-.199.358-.449.61-.749.755s-.816.217-1.55.217h-.794v2.764h-1.21zm1.21-6.086v2.084h.671c.451 0 .757-.032.919-.095s.295-.178.398-.343c.104-.165.155-.368.155-.608 0-.244-.054-.449-.16-.616s-.239-.279-.396-.336c-.157-.057-.489-.085-.997-.085h-.59z"/><path d="M168.347 83.981h-1.154v-5.307h1.069v.754c.184-.353.348-.588.492-.705.146-.117.312-.175.503-.175.263 0 .515.088.754.265l-.359 1.225c-.19-.153-.37-.23-.54-.23-.16 0-.301.059-.422.178-.122.118-.209.333-.263.643-.054.311-.08.881-.08 1.711v1.641z"/><path d="M170.236 81.252c0-.521.104-.994.31-1.421.207-.427.477-.748.81-.961s.708-.32 1.125-.32c.699 0 1.249.274 1.648.823.4.549.6 1.191.6 1.925 0 .547-.104 1.042-.312 1.482-.209.44-.481.772-.82.994-.338.222-.709.333-1.111.333-.646 0-1.183-.247-1.609-.741-.428-.494-.641-1.199-.641-2.114zm1.18.076c0 .538.104.945.315 1.221.21.276.464.414.761.414.291 0 .54-.139.747-.416s.311-.687.311-1.228c0-.528-.105-.931-.315-1.208-.211-.277-.463-.417-.757-.417-.29 0-.54.139-.749.417s-.313.682-.313 1.217z"/><path d="M175.363 81.252c0-.521.104-.994.31-1.421.207-.427.477-.748.81-.961s.708-.32 1.125-.32c.699 0 1.249.274 1.648.823.4.549.6 1.191.6 1.925 0 .547-.104 1.042-.312 1.482-.209.44-.481.772-.82.994-.338.222-.709.333-1.111.333-.646 0-1.183-.247-1.609-.741-.428-.494-.641-1.199-.641-2.114zm1.18.076c0 .538.104.945.315 1.221.21.276.464.414.761.414.291 0 .54-.139.747-.416s.311-.687.311-1.228c0-.528-.105-.931-.315-1.208-.211-.277-.463-.417-.757-.417-.29 0-.54.139-.749.417s-.313.682-.313 1.217z"/><path d="M180.256 78.674h.64v-.4c0-.483.046-.833.138-1.05.092-.216.241-.386.446-.51.205-.123.458-.185.759-.185.327 0 .647.06.962.18l-.15.975c-.187-.053-.365-.08-.535-.08-.163 0-.281.047-.354.141s-.109.278-.109.552v.377h.859v1.104h-.859v4.203h-1.155v-4.203h-.64v-1.104z"/><path d="M183.555 83.981v-1.404h1.149v1.404h-1.149z"/></svg>