<svg xmlns="http://www.w3.org/2000/svg" role="img" xmlns:xlink="http://www.w3.org/1999/xlink" viewBox="20.97 -5.03 357.56 521.56"><title>sealer logo</title><defs><linearGradient id="c" x1="0%" x2="64.279%" y1="0%" y2="76.604%" gradientUnits="objectBoundingBox"><stop offset="0" stop-color="#4287F0"/><stop offset="1" stop-color="#00B7EE"/></linearGradient><linearGradient id="d" x1="50%" x2="0%" y1="86.603%" y2="0%" gradientUnits="objectBoundingBox"><stop offset="0" stop-color="#557AF1"/><stop offset="1" stop-color="#00B7EE"/></linearGradient><linearGradient id="e" x1="0%" x2="1%" y1="100%" y2="0%" gradientUnits="objectBoundingBox"><stop offset="0" stop-color="#4784F1"/><stop offset="1" stop-color="#388EF0"/></linearGradient><path id="a" d="M0 0h338v390H0z"/></defs><g transform="translate(31 5)"><mask id="b" fill="#fff"><use xlink:href="#a"/></mask><g fill-rule="evenodd" mask="url(#b)"><path fill="url(#c)" d="M101.22 106.79l.15.25L169 68l110 63.5v57.74l59 34.07V97.5L169 0 30.17 80.09 0 97.5V131.2l59 34.06v-33.6l-.22-.37.22-.13V131h.28l41.94-24.21z" opacity="1"/><path fill="url(#d)" d="M278.78 93.02h-.27l-41.55 24.14-.09-.17L169 156.16 59 92.66v-58.6L0 0v126.66l169 97.5 140.02-80.78L338 126.66V92.11l-59.22-34.19v34.44l.22.37-.22.13v.16z" opacity="1" transform="translate(0 165.837)"/><path fill="url(#e)" d="M86.67 32.83L29.81 0 0 17.21v33.71l175.29 101.2 28.57-16.6v-34.9L86.61 32.92l.06-.09z" opacity="1" transform="translate(67 118.568)"/></g></g><path fill="#00b7ee" fill-rule="evenodd" d="M243.61 487.4V424h-19.42v62.68s0 6.03 1.65 10.62c0 0 1.64 4.6 5.54 7.15 0 0 3.89 2.55 10.58 2.55 0 0 3.18 0 5.65-.46 0 0 2.47-.46 4.01-1.07l-2.31-13.38s-.77.11-1.2.16c0 0-.44.05-.99.05 0 0-1.1 0-2.31-1.02 0 0-1.2-1.02-1.2-3.88zM34.18 464.53c0-5.51 3.02-9.7 3.02-9.7 3.02-4.18 8.45-6.48 8.45-6.48 5.43-2.3 12.67-2.3 12.67-2.3 7.46 0 12.89 2.3 12.89 2.3 5.43 2.3 9.49 5.15 9.49 5.15l-8.78 10.83c-3.29-2.15-6.53-3.53-6.53-3.53-3.23-1.37-6.42-1.37-6.42-1.37-6.58 0-6.58 4.18-6.58 4.18 0 2.55 3.68 3.93 3.68 3.93 3.67 1.38 8.5 3.01 8.5 3.01 3.95 1.33 7.73 3.42 7.73 3.42 3.79 2.1 6.26 5.41 6.26 5.41 2.47 3.32 2.47 8.63 2.47 8.63 0 5.31-2.97 9.65-2.97 9.65-2.96 4.34-8.72 6.84-8.72 6.84-5.76 2.5-14.31 2.5-14.31 2.5-6.04 0-12.68-2.25-12.68-2.25-6.63-2.24-11.35-5.92-11.35-5.92l8.67-11.33c8.55 6.13 15.79 6.13 15.79 6.13 3.84 0 5.6-1.23 5.6-1.23 1.75-1.22 1.75-3.37 1.75-3.37 0-1.73-1.75-2.96-1.75-2.96-1.76-1.22-4.61-2.3-4.61-2.3-2.85-1.07-6.03-2.19-6.03-2.19-3.73-1.43-7.46-3.57-7.46-3.57-3.73-2.15-6.26-5.41-6.26-5.41-2.52-3.27-2.52-8.07-2.52-8.07zm63.79-10.31s-4.22 3.98-6.69 9.65c0 0-2.47 5.66-2.47 12.71 0 0 0 9.59 4.23 16.38 0 0 4.22 6.79 11.41 10.42 0 0 7.18 3.62 16.07 3.62 0 0 5.48 0 11.52-1.74 0 0 6.03-1.73 10.86-4.9l-6.47-10.92s-6.7 3.68-13.17 3.68c0 0-5.92 0-10.09-2.66 0 0-4.17-2.65-5.49-8.57h36.64s.33-1.03.61-3.22c0 0 .27-2.2.27-4.54 0 0 0-7.97-2.96-14.35 0 0-2.96-6.38-8.89-10.05 0 0-5.92-3.68-14.92-3.68 0 0-5.7 0-10.97 2.09 0 0-5.26 2.1-9.49 6.08zm93.86 45.53l1.42 5.82h15.91V472.6s0-13.68-6.58-20.12c0 0-6.58-6.43-18.65-6.43 0 0-7.35 0-14.04 2.09 0 0-6.7 2.1-12.84 5.57l6.8 11.94s4.72-2.45 8.67-3.77c0 0 3.95-1.33 7.68-1.33 0 0 4.83 0 6.96 1.94 0 0 2.14 1.94 2.47 5.51 0 0-18.21 1.84-26.44 6.99 0 0-8.22 5.16-8.22 14.35 0 0 0 4.8 2.25 8.83 0 0 2.24 4.03 6.41 6.43 0 0 4.17 2.4 9.88 2.4 0 0 5.15 0 9.6-2.04 0 0 4.44-2.04 8.28-5.21h.44zm94.89-53.7c9 0 14.92 3.68 14.92 3.68 5.93 3.67 8.89 10.05 8.89 10.05 2.96 6.38 2.96 14.35 2.96 14.35 0 2.34-.27 4.54-.27 4.54-.28 2.19-.61 3.22-.61 3.22h-36.64c1.32 5.92 5.49 8.57 5.49 8.57 4.16 2.66 10.09 2.66 10.09 2.66 6.47 0 13.16-3.68 13.16-3.68l6.48 10.92c-4.83 3.17-10.87 4.9-10.87 4.9-6.03 1.74-11.51 1.74-11.51 1.74-8.89 0-16.08-3.62-16.08-3.62-7.18-3.63-11.41-10.42-11.41-10.42-4.22-6.79-4.22-16.38-4.22-16.38 0-7.05 2.47-12.71 2.47-12.71 2.47-5.67 6.69-9.65 6.69-9.65 4.23-3.98 9.49-6.08 9.49-6.08 5.27-2.09 10.97-2.09 10.97-2.09zm79.26.36c1.7.36 3.02.87 3.02.87l-3.29 15.62c-1.65-.41-3.18-.67-3.18-.67-1.54-.25-3.62-.25-3.62-.25-3.4 0-7.19 2.35-7.19 2.35-3.78 2.34-6.31 8.06-6.31 8.06v33.18H326v-58.09h15.9l1.32 10.11h.44c3.51-5.82 8.28-8.68 8.28-8.68 4.77-2.86 9.49-2.86 9.49-2.86 2.85 0 4.55.36 4.55.36zm-247.22 13.53s5.38 0 7.63 2.85c0 0 2.25 2.86 2.25 7.25h-21.29s.99-5.2 4.17-7.65c0 0 3.18-2.45 7.24-2.45zm168.29 0c-4.06 0-7.24 2.45-7.24 2.45-3.18 2.45-4.17 7.65-4.17 7.65h21.28c0-4.39-2.24-7.25-2.24-7.25-2.25-2.85-7.63-2.85-7.63-2.85zm-101.7 31.75s-2.19 1.22-5.15 1.22c0 0-3.07 0-4.88-1.22 0 0-1.81-1.23-1.81-3.78 0 0 0-3.06 3.51-5.41 0 0 3.51-2.35 12.61-3.47v9.29s-2.08 2.14-4.28 3.37z" opacity="1"/></svg>