<svg xmlns="http://www.w3.org/2000/svg" role="img" viewBox="-5.08 -5.58 550.16 158.66"><title>Sedai logo</title><style>svg {enable-background:new 0 0 546.9 149}</style><path fill="#2a3947" fill-rule="evenodd" d="M369.4 104.6c4.8 3 10.3 4.5 16.4 4.5 5 0 9.5-1.1 13.6-3 3.5-1.9 6.4-4.3 8.7-7.4v9h12.7V8.2h-12.7v42.6c-2.3-3.1-5.2-5.6-8.8-7.5-4-2.1-8.5-3.2-13.4-3.2-6.1 0-11.6 1.5-16.4 4.6-4.8 3-8.7 7.2-11.5 12.4-2.8 5.2-4.2 11.1-4.2 17.6 0 6.5 1.4 12.3 4.2 17.6 2.8 5.2 6.6 9.2 11.4 12.3zm29.5-10.4c-3.1 2-6.8 3-10.9 3s-7.9-.9-11.1-3c-3.2-2-5.7-4.7-7.6-8s-2.8-7.3-2.8-11.8c0-4.4.9-8.3 2.8-11.6 1.8-3.4 4.3-6.1 7.5-8 3.2-2 6.8-3 11-3s7.8 1 10.9 3 5.6 4.7 7.4 8c1.8 3.3 2.8 7.3 2.8 11.8 0 4.4-.9 8.3-2.7 11.6-1.7 3.4-4.2 6-7.3 8zm-154.3 14.9c-3.7 0-7.3-.5-10.5-1.5-3.3-1-6.3-2.4-9.2-4.2-2.8-1.8-5.2-4-7.3-6.5l8.1-8.1c2.4 3 5.2 5.2 8.4 6.6 3.2 1.4 6.7 2.2 10.6 2.2s6.9-.7 9.1-2c2.1-1.3 3.2-3.2 3.2-5.6s-.8-4.3-2.6-5.6c-1.7-1.3-4-2.5-6.6-3.3-2.2-.8-4.6-1.5-7-2.2-.5-.2-1-.3-1.5-.5-3-.9-5.9-2-8.6-3.4-2.7-1.4-4.9-3.3-6.6-5.7-1.7-2.4-2.6-5.6-2.6-9.6s1-7.5 3-10.4c2-3 4.7-5.1 8.2-6.8 3.5-1.6 7.7-2.4 12.6-2.4 5.2 0 9.8.9 13.9 2.8s7.3 4.5 9.9 8.2l-8.1 8.1c-1.8-2.4-4.2-4.3-6.9-5.6-2.8-1.3-5.9-2-9.3-2-3.6 0-6.4.6-8.3 1.9-1.9 1.3-2.9 3-2.9 5.2s.8 3.9 2.5 5.1c1.7 1.2 3.9 2.3 6.6 3.1 2.1.6 4.2 1.3 6.5 2l2.1.6c3 .9 5.8 2 8.5 3.5s4.9 3.5 6.6 6c1.7 2.5 2.6 5.8 2.6 9.9 0 6.2-2.2 11.1-6.6 14.8-4.5 3.6-10.4 5.4-17.8 5.4zm69.2 0c-6.6 0-12.6-1.5-17.8-4.5-5.3-3-9.4-7.1-12.5-12.3-3.1-5.2-4.6-11.1-4.6-17.7 0-6.5 1.5-12.3 4.5-17.6 3-5.2 7.1-9.3 12.3-12.3 5.2-3 10.9-4.5 17.3-4.5 6.1 0 11.6 1.4 16.2 4.2 4.7 2.8 8.4 6.6 11 11.6 2.7 4.9 3.9 10.5 3.9 16.7 0 .8-.1 1.7-.1 2.6v.4c-.1 1.1-.3 2.3-.6 3.7h-51.9c.4 2.6 1.2 4.9 2.4 7.1 1.8 3.5 4.5 6.2 8 8.1 3.5 1.9 7.4 2.9 11.8 2.9 3.7 0 7.1-.6 10.2-2 3.1-1.3 5.8-3.2 8-5.9l8.1 8.3c-3.2 3.7-7.1 6.6-11.6 8.5-4.5 1.7-9.4 2.7-14.6 2.7zm-20-46.8c-1 2-1.8 4.2-2.2 6.6H332c-.3-2.8-1.1-5.2-2.2-7.3-1.6-3.1-3.8-5.5-6.7-7.3-2.9-1.7-6.3-2.6-10.4-2.6-4.3 0-8 .9-11.3 2.8-3.3 1.8-5.8 4.4-7.6 7.8zm173.4 46.8c-6.1 0-11.6-1.5-16.4-4.5-4.9-3-8.8-7.1-11.6-12.3-2.8-5.2-4.2-11.1-4.2-17.6 0-6.5 1.4-12.3 4.2-17.6 2.8-5.2 6.7-9.4 11.6-12.4 4.9-3.1 10.4-4.6 16.5-4.6 5 0 9.5 1.1 13.5 3.2 3.5 1.9 6.3 4.3 8.6 7.4v-9.1H502v66.2h-12.7v-9c-2.2 3.1-5 5.5-8.5 7.3-3.9 1.9-8.5 3-13.6 3zm2.1-11.9c6.2 0 11.3-2.1 15.1-6.3 3.8-4.2 5.7-9.7 5.7-16.2 0-4.6-.8-8.5-2.6-11.9-1.7-3.4-4.2-6.1-7.3-8-3.2-1.9-6.8-2.9-11-2.9s-7.9 1-11.1 3c-3.2 2-5.7 4.7-7.5 8-1.8 3.4-2.8 7.3-2.8 11.6 0 4.4.9 8.4 2.8 11.8 1.8 3.4 4.4 6.1 7.6 8 3.2 2 6.9 2.9 11.1 2.9zm51.6-71.4c1.5 1.6 3.4 2.3 5.7 2.3 2.3 0 4.2-.8 5.7-2.3s2.3-3.5 2.3-5.8-.8-4.1-2.3-5.6c-1.5-1.6-3.4-2.3-5.7-2.3-2.3 0-4.2.8-5.7 2.3-1.5 1.6-2.3 3.4-2.3 5.6.1 2.3.9 4.2 2.3 5.8zm-.5 15.7v66.2H533V41.5h-12.6z" clip-rule="evenodd"/><linearGradient id="SVGID_1_" x1="92.212" x2="92.212" y1="-43.779" y2="93.222" gradientTransform="matrix(1 0 0 -1 0 98.443)" gradientUnits="userSpaceOnUse"><stop offset="0" stop-color="#66ddd7"/><stop offset="1" stop-color="#8a43ff"/></linearGradient><path fill="url(#SVGID_1_)" fill-rule="evenodd" d="M138.6 142.6c-3.7-.1-7.4-.6-10.9-1.7-2.9-.9-5.2-2.9-6.5-5.5-7-14.1-4.8-30.8 5.5-42.6 4.4-5 7.6-10.7 9.4-17 .8-2.5 1.3-5.2 1.6-7.8 1.1-9.5-.6-18.9-5.2-27.3-5.8-10.7-15.5-18.6-27.3-22.2-4.3-1.3-8.7-1.9-13-2-4.5 0-8.8.7-13 2C67.3 22 57.7 30 51.8 40.8c-4.5 8.4-6.3 17.9-5.2 27.3.3 2.6.9 5.2 1.6 7.8 1.9 6.3 5.1 12 9.4 17 10.3 11.8 12.5 28.4 5.5 42.5-1.3 2.7-3.8 4.7-6.6 5.6-3.5 1.1-7.2 1.7-10.9 1.7 1.1-.8 2-1.6 3-2.5 11.9-11.2 12-27.2.3-39.9-7.5-8.7-12.2-19.3-13.6-30.9-1.5-11.8.8-23.5 6.4-34C49.1 21.9 61.2 12 75.9 7.6 81.2 6 86.6 5.2 92 5.2h.3c5.5.1 10.9.8 16.2 2.4 14.6 4.4 26.7 14.3 34 27.7 5.7 10.5 7.9 22.3 6.4 34-1.4 11.5-6.2 22.2-13.7 30.9-11.6 12.6-11.5 28.6.4 39.8.9 1.1 1.9 1.9 3 2.6zm-38.2-36.2c.4 6.8 2.7 13.3 6.4 18.9-2-14.1 2.2-28.7 11.7-39.6 3.3-3.8 5.7-8.1 7.2-13 2.7-8.8 1.7-18.6-2.7-26.7-4.5-8.2-11.8-14.3-20.8-16.9-3.1-1-6.4-1.4-9.7-1.5h-.3c-3.3 0-6.6.5-9.7 1.5-9 2.7-16.4 8.7-20.8 16.9-4.3 8.1-5.3 17.9-2.7 26.7 1.5 4.8 3.9 9.2 7.2 13 9.5 10.9 13.7 25.5 11.7 39.6 3.7-5.6 5.9-12.1 6.4-18.9.5-10.4-2.9-20.4-9.7-28.2-6.5-7.4-7.7-18.2-3.1-26.9 3-5.5 8-9.6 14.1-11.5 2.2-.6 4.4-1 6.7-1 2.2.1 4.5.4 6.6 1 6 1.8 11.1 5.9 14.1 11.5 4.6 8.7 3.4 19.5-3.1 26.9-6.9 7.8-10.2 17.8-9.5 28.2zm38.7 14c4.8 0 9.4-2 12.4-5.7.8-.9 1.5-1.7 2.2-2.5 4.6-5.8 8.5-12.2 11.3-19 .6-1.5.6-3.1-.1-4.5-.6-1.5-2-2.6-3.5-3.1-.6-.2-1.1-.3-1.7-.3-2.3 0-4.3 1.3-5.2 3.4-2.4 5.9-5.7 11.3-9.7 16.3-.4.5-.8 1-1.3 1.6-.2.2-.4.4-.5.6-3.5 3.9-5.4 8.5-5.4 13 .5.2 1 .2 1.5.2zm3.9 11.9c3 2.9 7 4.5 11.3 4.5 3.8 0 7.4-1.3 10.4-3.6 1.4-1.1 2.7-2.4 3.8-3.8 1-1.1 1.9-2.2 2.7-3.2 2.4-3 4.7-6.2 6.8-9.5.9-1.4 1.1-3 .7-4.6-.4-1.6-1.5-2.8-2.9-3.6-.8-.4-1.7-.6-2.5-.6-2 0-3.8 1-4.9 2.7-1.8 2.9-3.8 5.7-6 8.4-.3.4-.6.8-1 1.1-.5.6-.9 1.1-1.5 1.7-4.6 5.3-11.1 8.5-18 9.2.3.6.7.9 1.1 1.3zm-97.7-11.9c-4.8 0-9.4-2-12.5-5.7-.8-.9-1.5-1.7-2.2-2.5-4.6-5.8-8.5-12.2-11.3-19-.6-1.5-.6-3.1.1-4.5.7-1.5 2-2.5 3.5-3.1.6-.2 1.1-.3 1.7-.3 2.3 0 4.3 1.3 5.2 3.4 2.4 5.9 5.7 11.3 9.7 16.3.5.7 1.1 1.4 1.8 2.2 3.6 3.9 5.5 8.5 5.5 13-.5.2-1 .2-1.5.2zm-25.5 12.8c3 2.3 6.7 3.6 10.4 3.6 4.2 0 8.2-1.6 11.2-4.5l1.1-1.1c-6.9-.7-13.4-3.9-18-9.2-.9-1-1.7-1.9-2.4-2.9-2.2-2.7-4.1-5.5-6-8.4-1.1-1.7-2.9-2.7-4.9-2.7-.9 0-1.7.3-2.5.6-1.4.8-2.4 2-2.9 3.6-.4 1.6-.2 3.2.7 4.6 2 3.2 4.3 6.5 6.7 9.5.8 1 1.7 2.1 2.7 3.2 1.3 1.3 2.6 2.6 3.9 3.7z" clip-rule="evenodd"/></svg>