<?xml version="1.0" encoding="UTF-8" standalone="yes"?>
<svg version="1.1" id="Layer_1" xmlns="http://www.w3.org/2000/svg" xmlns:xlink="http://www.w3.org/1999/xlink" x="0px" y="0px" viewBox="1.660000000000025 4.17999999999995 277.68 349.44" style="enable-background:new 0 0 282 354.1;" xml:space="preserve">
  <style type="text/css">
	.st0{fill:#0B5565;}
	.st1{fill:#27AAE0;}
	.st2{fill:#375C92;}
	.st3{fill:#8DC53E;}
	.st4{fill:#34A474;}
	.st5{enable-background:new    ;}
	.st6{fill:#003399;}
	.st7{fill:#0088D1;}
	.st8{fill:#4299D0;}
	.st9{fill:#252728;}
	.st10{fill:none;}
	.st11{fill:#E95028;}
	.st12{fill:#FB6D26;}
	.st13{fill:#FBA226;}
	.st14{fill:#E14329;}
	.st15{fill:#BC5A34;}
	.st16{fill:#FFFFFF;}
	.st17{fill:#8EB43F;}
	.st18{fill:#BF1919;}
</style>
  <g>
    <path class="st17" d="M177.9,126.4c8,20.3-1.9,43.3-22.2,51.3c-11.3,4.5-23.4,3.3-33.3-2l-45.9,45.9c-0.3,2-1,7.5-1,7.5l-4.9,26&#xA;&#x9;&#x9;c5.7,5,10.1,8.3,17.4,11.5c7.9,3.4,13.8,4.4,21.9,5l15.1-21.8l-0.8-0.3c11.1,1.8,22.4,1.8,33.5,0.1l-0.7,0.3l14.9,21.9&#xA;&#x9;&#x9;c7.6-0.5,13-1.2,20.4-4.2c8-3.1,12.9-6.6,19-11.9l-4.7-26.1l-0.8,0.3c9.2-6.7,17.2-14.7,23.8-23.7l-0.3,0.7l26,4.9&#xA;&#x9;&#x9;c5-5.7,8.3-10.1,11.5-17.4c3.4-7.9,4.4-13.8,5-21.9l-21.8-15.1l-0.3,0.8c1.8-11,1.8-22.2,0.2-33.2l0.2,0.5l21.9-14.9&#xA;&#x9;&#x9;c-0.5-7.6-1.2-13-4.2-20.4c-3.2-8-6.6-12.9-11.9-19l-26.1,4.7c0,0-6.4,1-8.5,1.3l-45.2,45.2C176.6,123.5,177.3,124.9,177.9,126.4"/>
  </g>
  <g>
    <path class="st18" d="M156.8,105.3c-20.3-8-43.3,1.9-51.3,22.2c-4.5,11.3-3.4,23.4,2,33.3l-45.9,45.9c-2,0.3-7.5,1-7.5,1l-26,4.9&#xA;&#x9;&#x9;c-5-5.7-8.3-10.1-11.5-17.4c-3.4-7.9-4.4-13.8-5-21.9l21.8-15.1l0.3,0.8c-1.8-11.1-1.8-22.4-0.1-33.5l-0.3,0.7l-21.9-14.9&#xA;&#x9;&#x9;c0.5-7.6,1.2-13,4.2-20.4c3.1-8,6.6-12.9,11.9-19l26.1,4.7l-0.3,0.8c6.7-9.2,14.7-17.2,23.7-23.8l-0.7,0.3l-4.9-26&#xA;&#x9;&#x9;c5.7-5,10.1-8.3,17.4-11.5c7.9-3.4,13.8-4.4,21.9-5l15.1,21.8l-0.8,0.3c11-1.8,22.2-1.8,33.3-0.2l-0.5-0.2l14.9-21.9&#xA;&#x9;&#x9;c7.6,0.5,13,1.2,20.4,4.2c8,3.1,12.9,6.6,19,11.9l-4.7,26.1c0,0-1,6.4-1.3,8.5L161,107.3C159.6,106.5,158.2,105.8,156.8,105.3"/>
  </g>
  <g>
    <path d="M15.4,329.8c0.4,0.8,1,1.5,1.7,2c0.7,0.5,1.5,0.9,2.5,1.1c0.9,0.2,1.9,0.4,2.9,0.4c0.7,0,1.4-0.1,2.2-0.2&#xA;&#x9;&#x9;c0.8-0.1,1.5-0.3,2.2-0.7c0.7-0.3,1.3-0.8,1.7-1.4c0.5-0.6,0.7-1.3,0.7-2.2c0-0.9-0.3-1.7-0.9-2.3c-0.6-0.6-1.4-1.1-2.4-1.5&#xA;&#x9;&#x9;s-2.1-0.7-3.3-1c-1.2-0.3-2.5-0.6-3.8-1c-1.3-0.3-2.6-0.7-3.8-1.2c-1.2-0.5-2.4-1.1-3.3-1.8c-1-0.8-1.8-1.7-2.4-2.8&#xA;&#x9;&#x9;c-0.6-1.1-0.9-2.5-0.9-4.1c0-1.8,0.4-3.4,1.2-4.7c0.8-1.3,1.8-2.4,3-3.3c1.2-0.9,2.7-1.5,4.2-2c1.6-0.4,3.1-0.6,4.7-0.6&#xA;&#x9;&#x9;c1.8,0,3.6,0.2,5.3,0.6c1.7,0.4,3.2,1.1,4.5,2c1.3,0.9,2.4,2.1,3.1,3.5c0.8,1.4,1.2,3.2,1.2,5.2h-7.5c-0.1-1-0.3-1.9-0.7-2.6&#xA;&#x9;&#x9;c-0.4-0.7-0.9-1.2-1.5-1.6c-0.6-0.4-1.3-0.7-2.1-0.8c-0.8-0.2-1.7-0.2-2.6-0.2c-0.6,0-1.2,0.1-1.9,0.2c-0.6,0.1-1.2,0.4-1.7,0.7&#xA;&#x9;&#x9;c-0.5,0.3-0.9,0.7-1.3,1.2c-0.3,0.5-0.5,1.1-0.5,1.9c0,0.7,0.1,1.2,0.4,1.7c0.3,0.4,0.8,0.8,1.5,1.2c0.8,0.4,1.8,0.7,3.2,1.1&#xA;&#x9;&#x9;c1.4,0.4,3.1,0.8,5.3,1.4c0.7,0.1,1.6,0.4,2.7,0.7c1.2,0.3,2.3,0.9,3.5,1.6c1.1,0.8,2.1,1.8,3,3c0.8,1.3,1.3,2.9,1.3,4.8&#xA;&#x9;&#x9;c0,1.6-0.3,3.1-0.9,4.5c-0.6,1.4-1.5,2.6-2.8,3.6c-1.2,1-2.8,1.8-4.6,2.3c-1.8,0.6-3.9,0.8-6.3,0.8c-1.9,0-3.8-0.2-5.6-0.7&#xA;&#x9;&#x9;c-1.8-0.5-3.4-1.2-4.8-2.2c-1.4-1-2.5-2.3-3.3-3.9c-0.8-1.6-1.2-3.4-1.2-5.6h7.5C14.7,328,15,329,15.4,329.8z"/>
    <path d="M48.1,332.4c1,1,2.6,1.5,4.5,1.5c1.4,0,2.6-0.4,3.6-1.1c1-0.7,1.6-1.4,1.9-2.2h6.1c-1,3-2.5,5.2-4.5,6.5&#xA;&#x9;&#x9;c-2,1.3-4.5,2-7.4,2c-2,0-3.8-0.3-5.4-1c-1.6-0.6-3-1.5-4.1-2.7c-1.1-1.2-2-2.6-2.6-4.2c-0.6-1.6-0.9-3.4-0.9-5.4&#xA;&#x9;&#x9;c0-1.9,0.3-3.7,0.9-5.3c0.6-1.6,1.5-3.1,2.7-4.3c1.1-1.2,2.5-2.1,4.1-2.8c1.6-0.7,3.3-1,5.3-1c2.2,0,4,0.4,5.7,1.3&#xA;&#x9;&#x9;c1.6,0.8,2.9,2,4,3.4c1,1.4,1.8,3,2.2,4.8c0.5,1.8,0.6,3.7,0.5,5.7H46.4C46.5,329.7,47.1,331.3,48.1,332.4z M56,319&#xA;&#x9;&#x9;c-0.8-0.9-2.1-1.4-3.8-1.4c-1.1,0-2,0.2-2.8,0.6c-0.7,0.4-1.3,0.8-1.8,1.4c-0.4,0.6-0.8,1.1-0.9,1.8c-0.2,0.6-0.3,1.2-0.3,1.7h11.4&#xA;&#x9;&#x9;C57.4,321.2,56.8,319.9,56,319z"/>
    <path d="M75.6,313v3.4h0.1c0.9-1.3,2-2.3,3.3-3c1.3-0.7,2.8-1.1,4.4-1.1c1.6,0,3.1,0.3,4.4,0.9c1.3,0.6,2.3,1.7,3,3.3&#xA;&#x9;&#x9;c0.8-1.1,1.8-2.1,3.1-2.9c1.3-0.9,2.8-1.3,4.6-1.3c1.3,0,2.6,0.2,3.7,0.5c1.1,0.3,2.1,0.9,2.9,1.6c0.8,0.7,1.5,1.7,1.9,2.8&#xA;&#x9;&#x9;c0.5,1.2,0.7,2.6,0.7,4.2v17h-7V324c0-0.9,0-1.7-0.1-2.4c-0.1-0.8-0.2-1.4-0.5-2s-0.7-1-1.3-1.3c-0.6-0.3-1.4-0.5-2.3-0.5&#xA;&#x9;&#x9;c-1,0-1.8,0.2-2.4,0.6c-0.6,0.4-1.1,0.9-1.4,1.5c-0.3,0.6-0.6,1.3-0.7,2.1c-0.1,0.8-0.2,1.5-0.2,2.3v14.2h-7v-14.3&#xA;&#x9;&#x9;c0-0.8,0-1.5,0-2.2s-0.2-1.4-0.4-2c-0.2-0.6-0.7-1.1-1.2-1.5c-0.6-0.4-1.4-0.6-2.5-0.6c-0.3,0-0.8,0.1-1.3,0.2s-1.1,0.4-1.6,0.8&#xA;&#x9;&#x9;c-0.5,0.4-0.9,1-1.3,1.8c-0.4,0.8-0.5,1.8-0.5,3v14.7h-7V313H75.6z"/>
    <path d="M114.3,316.8c0.7-1.1,1.6-1.9,2.8-2.6c1.1-0.7,2.4-1.1,3.8-1.4c1.4-0.3,2.8-0.4,4.2-0.4c1.3,0,2.6,0.1,3.9,0.3&#xA;&#x9;&#x9;c1.3,0.2,2.5,0.5,3.6,1.1c1.1,0.5,2,1.3,2.7,2.2c0.7,0.9,1,2.2,1,3.7v13.2c0,1.1,0.1,2.2,0.2,3.3c0.1,1,0.4,1.8,0.7,2.4H130&#xA;&#x9;&#x9;c-0.1-0.4-0.2-0.8-0.3-1.2c-0.1-0.4-0.1-0.8-0.2-1.3c-1.1,1.1-2.4,1.9-3.9,2.4c-1.5,0.5-3,0.7-4.6,0.7c-1.2,0-2.3-0.1-3.4-0.4&#xA;&#x9;&#x9;s-2-0.8-2.8-1.4c-0.8-0.6-1.4-1.4-1.8-2.4c-0.4-0.9-0.7-2.1-0.7-3.4c0-1.4,0.3-2.6,0.8-3.6c0.5-0.9,1.2-1.7,2-2.2&#xA;&#x9;&#x9;c0.8-0.6,1.7-1,2.8-1.3c1-0.3,2.1-0.5,3.1-0.7c1-0.2,2.1-0.3,3.1-0.4c1-0.1,1.9-0.2,2.7-0.4c0.8-0.2,1.4-0.5,1.9-0.9&#xA;&#x9;&#x9;c0.5-0.4,0.7-0.9,0.6-1.6c0-0.8-0.1-1.4-0.4-1.8c-0.2-0.4-0.6-0.8-1-1c-0.4-0.2-0.9-0.4-1.4-0.5c-0.5-0.1-1.1-0.1-1.7-0.1&#xA;&#x9;&#x9;c-1.4,0-2.5,0.3-3.2,0.9s-1.2,1.6-1.4,2.9h-7C113.2,319.2,113.6,317.9,114.3,316.8z M128.1,326.6c-0.4,0.1-0.9,0.3-1.4,0.4&#xA;&#x9;&#x9;c-0.5,0.1-1,0.2-1.6,0.2c-0.6,0.1-1.1,0.1-1.7,0.2c-0.5,0.1-1,0.2-1.5,0.4c-0.5,0.2-1,0.4-1.3,0.7c-0.4,0.3-0.7,0.6-0.9,1.1&#xA;&#x9;&#x9;c-0.2,0.4-0.3,1-0.3,1.6c0,0.6,0.1,1.1,0.3,1.6c0.2,0.4,0.5,0.8,0.9,1c0.4,0.2,0.9,0.4,1.4,0.5s1.1,0.1,1.6,0.1&#xA;&#x9;&#x9;c1.4,0,2.4-0.2,3.2-0.7c0.8-0.5,1.3-1,1.7-1.6c0.4-0.6,0.6-1.3,0.7-1.9c0.1-0.7,0.1-1.2,0.1-1.6V326&#xA;&#x9;&#x9;C128.9,326.3,128.5,326.5,128.1,326.6z"/>
    <path d="M148.2,313v3.2h0.1c0.9-1.4,1.9-2.4,3.2-3c1.3-0.6,2.8-0.9,4.3-0.9c2,0,3.7,0.4,5.2,1.1c1.4,0.8,2.6,1.8,3.6,3&#xA;&#x9;&#x9;c0.9,1.2,1.7,2.7,2.1,4.3c0.5,1.7,0.7,3.4,0.7,5.2c0,1.7-0.2,3.3-0.7,4.9c-0.5,1.6-1.2,3-2.1,4.2c-0.9,1.2-2.1,2.2-3.5,2.9&#xA;&#x9;&#x9;c-1.4,0.7-3,1.1-4.9,1.1c-1.6,0-3-0.3-4.3-1c-1.3-0.6-2.4-1.6-3.3-2.8h-0.1v12h-7V313H148.2z M157.3,333.2c0.8-0.5,1.4-1.1,1.9-1.8&#xA;&#x9;&#x9;c0.5-0.7,0.8-1.6,1-2.6s0.3-2,0.3-3c0-1-0.1-2-0.3-3c-0.2-1-0.6-1.9-1.1-2.6c-0.5-0.8-1.1-1.4-1.9-1.9c-0.8-0.5-1.7-0.7-2.8-0.7&#xA;&#x9;&#x9;c-1.1,0-2.1,0.2-2.9,0.7c-0.8,0.5-1.4,1.1-1.9,1.8c-0.5,0.8-0.8,1.6-1,2.6c-0.2,1-0.3,2-0.3,3c0,1,0.1,2,0.3,3s0.6,1.8,1,2.6&#xA;&#x9;&#x9;c0.5,0.7,1.1,1.3,1.9,1.8c0.8,0.5,1.7,0.7,2.9,0.7C155.6,333.9,156.5,333.6,157.3,333.2z"/>
    <path d="M178.6,303.4v13.2h0.1c0.9-1.5,2-2.5,3.4-3.2c1.4-0.7,2.7-1,4-1c1.9,0,3.4,0.3,4.6,0.8c1.2,0.5,2.1,1.2,2.8,2.1&#xA;&#x9;&#x9;c0.7,0.9,1.2,2,1.4,3.3c0.3,1.3,0.4,2.7,0.4,4.3v15.6h-7v-14.4c0-2.1-0.3-3.7-1-4.7s-1.8-1.5-3.5-1.5c-1.9,0-3.3,0.6-4.1,1.7&#xA;&#x9;&#x9;c-0.9,1.1-1.3,3-1.3,5.6v13.3h-7v-35.1H178.6z"/>
    <path d="M200.9,320.2c0.6-1.7,1.5-3.1,2.7-4.2c1.1-1.2,2.5-2.1,4.1-2.7c1.6-0.6,3.4-1,5.4-1c2,0,3.8,0.3,5.4,1&#xA;&#x9;&#x9;c1.6,0.6,3,1.5,4.2,2.7c1.1,1.2,2,2.6,2.7,4.2c0.6,1.7,0.9,3.5,0.9,5.5c0,2-0.3,3.9-0.9,5.5c-0.6,1.6-1.5,3-2.7,4.2&#xA;&#x9;&#x9;c-1.1,1.2-2.5,2.1-4.2,2.7c-1.6,0.6-3.4,0.9-5.4,0.9c-2,0-3.8-0.3-5.4-0.9c-1.6-0.6-3-1.5-4.1-2.7c-1.1-1.2-2-2.6-2.7-4.2&#xA;&#x9;&#x9;c-0.6-1.6-0.9-3.5-0.9-5.5C200,323.7,200.3,321.9,200.9,320.2z M207.2,328.7c0.2,1,0.5,1.8,1,2.6c0.5,0.8,1.1,1.4,1.9,1.8&#xA;&#x9;&#x9;c0.8,0.5,1.8,0.7,2.9,0.7c1.2,0,2.2-0.2,3-0.7c0.8-0.5,1.4-1.1,1.9-1.8c0.5-0.8,0.8-1.6,1-2.6c0.2-1,0.3-2,0.3-3s-0.1-2-0.3-3&#xA;&#x9;&#x9;c-0.2-1-0.5-1.9-1-2.6c-0.5-0.8-1.1-1.4-1.9-1.8c-0.8-0.5-1.8-0.7-3-0.7c-1.2,0-2.2,0.2-2.9,0.7c-0.8,0.5-1.4,1.1-1.9,1.8&#xA;&#x9;&#x9;c-0.5,0.8-0.8,1.6-1,2.6c-0.2,1-0.3,2-0.3,3S207.1,327.8,207.2,328.7z"/>
    <path d="M237.4,313v4.7h0.1c0.3-0.8,0.8-1.5,1.3-2.2c0.6-0.7,1.2-1.2,1.9-1.7c0.7-0.5,1.5-0.8,2.3-1.1c0.8-0.3,1.7-0.4,2.6-0.4&#xA;&#x9;&#x9;c0.5,0,1,0.1,1.5,0.2v6.5c-0.3-0.1-0.7-0.1-1.2-0.2c-0.5,0-0.9-0.1-1.3-0.1c-1.3,0-2.4,0.2-3.2,0.6c-0.9,0.4-1.6,1-2.1,1.7&#xA;&#x9;&#x9;s-0.9,1.6-1.2,2.6c-0.2,1-0.3,2-0.3,3.2v11.5h-7V313H237.4z"/>
    <path d="M256.5,332.4c1,1,2.6,1.5,4.5,1.5c1.4,0,2.6-0.4,3.6-1.1c1-0.7,1.6-1.4,1.9-2.2h6.1c-1,3-2.5,5.2-4.5,6.5&#xA;&#x9;&#x9;c-2,1.3-4.5,2-7.4,2c-2,0-3.8-0.3-5.4-1c-1.6-0.6-3-1.5-4.1-2.7c-1.1-1.2-2-2.6-2.6-4.2c-0.6-1.6-0.9-3.4-0.9-5.4&#xA;&#x9;&#x9;c0-1.9,0.3-3.7,0.9-5.3c0.6-1.6,1.5-3.1,2.7-4.3c1.1-1.2,2.5-2.1,4.1-2.8c1.6-0.7,3.3-1,5.3-1c2.2,0,4,0.4,5.7,1.3s2.9,2,4,3.4&#xA;&#x9;&#x9;c1,1.4,1.8,3,2.2,4.8c0.5,1.8,0.6,3.7,0.5,5.7h-18.3C254.9,329.7,255.4,331.3,256.5,332.4z M264.4,319c-0.8-0.9-2.1-1.4-3.8-1.4&#xA;&#x9;&#x9;c-1.1,0-2,0.2-2.8,0.6c-0.7,0.4-1.3,0.8-1.8,1.4c-0.4,0.6-0.8,1.1-0.9,1.8c-0.2,0.6-0.3,1.2-0.3,1.7h11.4&#xA;&#x9;&#x9;C265.8,321.2,265.2,319.9,264.4,319z"/>
  </g>
</svg>