<svg xmlns="http://www.w3.org/2000/svg" role="img" viewBox="-14.75 -14.75 767.00 672.50"><title>Semaphore logo</title><defs><clipPath id="a"><path fill="#fff" d="M0 0h737.56v459.89H0z" data-name="Rectangle 2216"/></clipPath></defs><g data-name="Group 5111"><g fill="#212121" data-name="Group 4065"><path d="M60.576 603.163c0 15.676-13.547 21.289-30 21.289-18.966 0-30.578-8.709-30.578-24h20.708c0 6.967 4.452 9.87 10.644 9.87 5.032 0 8.71-1.742 8.71-6.193 0-5.033-5.225-5.806-17.806-9.87-11.031-3.484-20.514-6.581-20.514-19.354 0-13.741 11.419-20.321 29.417-20.321 19.353 0 28.643 9.87 28.643 22.45H38.7c0-5.419-2.9-8.709-8.709-8.709-4.258 0-7.935 1.935-7.935 6 0 4.838 5.806 5.613 17.031 9.29 11.813 3.484 21.489 6.581 21.489 19.548z" data-name="Path 9092"/><path d="M91.159 594.646c.387 7.935 3.676 14.709 14.708 14.709 7.354 0 10.838-3.29 12.193-7.548h20.699c-1.935 12.58-13.741 22.643-32.707 22.643-23.224 0-35.8-14.515-35.8-35.03 0-19.353 12.193-35.03 35.223-35.03 20.709 0 34.256 14.128 34.256 30.385a48.647 48.647 0 0 1-.774 9.87zm0-12.193h27.868c0-8.516-5.612-13.934-13.548-13.934-8.325 0-14.32 5.032-14.32 13.934z" data-name="Path 9093"/><path d="M237.466 622.71v-35.8c0-8.9-3.1-14.322-10.258-14.322-6.386 0-11.225 4.064-11.225 16.838v33.288h-20.321v-36c0-8.9-2.9-14.128-9.871-14.128-6.386 0-11.419 4.064-11.419 17.225v32.9h-20.32v-66.384h20.321v9.677c2.9-6.193 9.871-11.225 19.16-11.225 11.612 0 17.418 5.225 20.127 12 3.484-6.967 11.031-12 20.709-12 19.353 0 23.224 13.16 23.224 27.095v40.836z" data-name="Path 9094"/><path d="M323.399 565.81c-3.1-6-11.807-11.225-20.322-11.225-19.16 0-32.32 15.1-32.32 34.836 0 19.934 13.16 34.836 32.32 34.836 8.515 0 17.031-5.032 20.322-11.032v9.289h21.1v-66.187h-21.1zm-15.872 40.642c-9.484 0-15.87-7.741-15.87-17.03 0-9.1 6.387-17.031 15.87-17.031s15.87 7.935 15.87 17.031c.002 9.289-6.385 17.03-15.87 17.03z" data-name="Path 9095"/><path d="M403.913 554.585c-8.711 0-17.23 5.032-20.324 11.225v-9.483h-21.1v86.9h21.1v-30c3.094 6 11.8 11.225 20.324 11.225 19.158 0 32.319-15.1 32.319-34.836 0-19.935-13.162-35.031-32.319-35.031zm-4.452 51.867c-9.678 0-16.065-7.741-16.065-17.03s6.387-17.031 16.065-17.031c9.287 0 15.674 7.741 15.674 17.031s-6.196 17.03-15.674 17.03z" data-name="Path 9096"/><path d="M510.158 562.132c-3.675-4.645-9.485-7.548-18-7.548-10.26 0-17.807 4.451-21.483 11.225v-30.191h-20.32v87.091h20.324v-33.291c0-10.258 4.259-16.838 12.772-16.838 8.9 0 11.613 6.58 11.613 16.063v34.062h20.323v-39.287c-.001-9.48-1.162-16.06-5.229-21.286z" data-name="Path 9097"/><path d="M527.768 589.42c0-18.966 13.938-35.03 36.773-35.03 23.224 0 36.963 16.063 36.963 35.03s-13.739 35.03-36.963 35.03c-22.836 0-36.773-15.867-36.773-35.03zm52.835 0c0-9.29-6.385-17.031-16.063-17.031-9.48 0-15.675 7.741-15.675 17.031s6.195 17.031 15.675 17.031c9.677.001 16.063-7.547 16.063-17.031z" data-name="Path 9098"/><path d="M662.667 575.487a24.072 24.072 0 0 0-7.36-.968c-11.613 0-19.158 6-19.158 22.257v25.933h-21.092v-66.382h21.092v10.838c3.094-6.193 11.03-11.806 20.323-11.806a13.022 13.022 0 0 1 6.386 1.161v18.967z" data-name="Path 9099"/><path d="M688.984 594.646c.39 7.935 3.675 14.709 14.711 14.709 7.354 0 10.839-3.29 12.19-7.548h20.707c-1.934 12.58-13.738 22.643-32.7 22.643-23.225 0-35.8-14.515-35.8-35.03 0-19.353 12.188-35.03 35.221-35.03 20.707 0 34.255 14.128 34.255 30.385a48.576 48.576 0 0 1-.775 9.87zm0-12.193h27.868c0-8.516-5.611-13.934-13.547-13.934-8.321 0-14.321 5.032-14.321 13.934z" data-name="Path 9100"/></g><g clip-path="url(#a)" data-name="Group 4066"><path fill="#f16332" d="M271.439 459.888a200.749 200.749 0 0 1-143.612-60.436L0 269.763l76.449-77.75 127.827 129.686a93.962 93.962 0 0 0 134.017 0L439.5 218.769a37.1 37.1 0 0 1 52.926 0l50.139 50.993-127.518 130a200.412 200.412 0 0 1-143.608 60.126z" data-name="Path 8855"/><path fill="#029d74" d="M661.113 268.5l-127.828-130a93.411 93.411 0 0 0-134.017 0L298.059 241.434a37.1 37.1 0 0 1-52.927 0l-50.14-50.993 127.827-130a200.844 200.844 0 0 1 287.223 0l127.828 130z" data-name="Path 8856"/></g></g></svg>