<svg xmlns="http://www.w3.org/2000/svg" role="img" viewBox="-26.66 -26.66 1386.32 1385.32"><path fill="#293055" d="M103.73 1090.659c8.564-5.507 20.807-8.267 36.72-8.267 18.967 0 35.265 3.601 48.882 10.788 13.612 7.193 16.907 8.983 39.53 29.167l40.563-46.839c-17.442-19.276-36.338-33.196-56.684-41.765-20.353-8.564-44.91-12.851-73.668-12.851-26.93 0-50.259 4.21-69.994 12.619-19.738 8.422-34.733 20.124-44.98 35.113-10.257 15-15.379 31.98-15.379 50.95 0 18.973 4.663 34.578 14.001 46.813 9.33 12.246 22.49 21.96 39.474 29.148 16.98 7.19 38.474 13.39 64.486 18.589 21.112 3.98 36.179 8.192 45.21 12.619 9.022 4.443 13.54 10.178 13.54 17.214 0 8.876-4.21 15.686-12.622 20.426-8.42 4.746-21.042 7.11-37.866 7.11-21.113 0-39.172-3.362-54.16-10.096-14.998-6.728-27.548-14.978-43.467-30.69L0 1281.598c15.607 17.44 34.117 30.367 55.536 38.779C76.951 1328.788 104.8 1333 139.073 1333c24.476 0 46.43-3.672 65.863-11.015 19.43-7.342 34.655-18.05 45.67-32.127 11.017-14.072 16.525-30.757 16.525-50.033 0-26.618-8.95-47.272-26.852-61.964-17.899-14.686-47.812-25.853-89.732-33.504-21.73-3.974-37.105-8.33-46.128-13.084-9.028-4.733-13.54-10.933-13.54-18.584 0-9.18 4.282-16.522 12.852-22.03m259.784 103.271c4.589-29.989 19.276-44.983 44.062-44.983 24.476 0 38.556 14.994 42.228 44.984zm44.521-99.6c-38.253 0-67.78 10.406-88.584 31.21-20.813 20.81-31.212 50.188-31.212 88.125 0 37.943 10.63 67.321 31.9 88.126C341.404 1322.6 372.079 1333 412.167 1333c26.922 0 49.64-5.119 68.158-15.378 18.51-10.247 30.982-25.16 37.408-44.75l-63.34-20.195c-2.453 8.26-7.272 14.535-14.458 18.816-7.192 4.293-16.451 6.427-27.768 6.427-13.47 0-24.255-3.359-32.359-10.098-8.11-6.722-13.39-17.282-15.835-31.669h156.514c1.528-6.726 2.294-15.296 2.294-25.7 0-36.722-9.866-65.248-29.602-85.604-19.738-20.346-48.123-30.518-85.143-30.518m297.417-.001c-18.058 0-33.814 4.055-47.276 12.16-13.469 8.11-23.869 20.275-31.212 36.491l-2.294-44.06h-69.764v229.49h78.025v-121.17c0-18.052 3.823-31.442 11.473-40.162 7.647-8.72 17.595-13.084 29.836-13.084 10.399 0 18.431 3.294 24.095 9.872 5.659 6.581 8.493 17.672 8.493 33.277v131.266h78.027v-152.843c0-26.004-7.193-46.047-21.572-60.124-14.387-14.071-33.663-21.112-57.83-21.112m198.736 56.91c6.117-3.364 14.686-5.048 25.702-5.048 14.072 0 26.167 2.452 36.263 7.344 10.097 4.896 18.817 12.699 26.161 23.406l40.388-39.47c-10.404-14.378-23.941-25.166-40.62-32.36-16.679-7.185-38.175-10.782-64.487-10.782-23.865 0-44.141 3.597-60.814 10.782-16.68 7.194-29.143 16.603-37.403 28.23-8.267 11.63-12.397 24.022-12.397 37.176 0 19.281 7.268 34.734 21.804 46.358 14.529 11.632 38.934 20.811 73.205 27.54 15.297 3.06 26.087 6.198 32.36 9.41 6.27 3.213 9.41 6.96 9.41 11.242 0 4.903-3.066 8.802-9.183 11.706-6.123 2.91-14.536 4.364-25.243 4.364-32.128 0-54.003-7.826-71.203-29.018l-37.117 40.491C833.052 1319.54 870.379 1333 923.008 1333c35.496 0 62.575-6.955 81.241-20.885 18.66-13.92 27.996-32.046 27.996-54.39 0-19.886-7.418-35.572-22.257-47.045-14.85-11.473-39.092-20.113-72.752-25.928-15.605-3.057-26.55-6.2-32.815-9.412-6.278-3.213-9.41-7.117-9.41-11.707 0-4.892 3.057-9.022 9.18-12.392m405.729 126.22c-7.957 0-13.465-2.133-16.521-6.425-3.062-4.281-4.591-11.626-4.591-22.03V1098.92h-78.028v135.38c-1.537 10.986-5.035 19.663-10.55 25.953-7.651 8.72-17.9 13.076-30.757 13.076-10.712 0-18.666-3.05-23.865-9.177-5.204-6.119-7.803-16.675-7.803-31.668V1098.92h-78.028v153.296c0 27.852 6.96 48.272 20.886 61.274 13.921 13.013 33.121 19.509 57.601 19.509 35.93 0 61.352-13.699 76.29-41.072 2.747 9.852 6.97 17.837 12.75 23.858 11.019 11.475 28.763 17.214 53.244 17.214 8.563 0 17.284-1.073 26.16-3.212 8.872-2.139 16.064-4.892 21.572-8.261l5.053-48.198c-8.266 2.755-16.069 4.132-23.413 4.132"/><path fill="#80ce54" d="M883.472 589.67c-65.708-41.849-140.852-62.875-216.044-62.875-75.19 0-150.335 21.026-216.041 62.873L331.2 469.484c96.985-71.192 213.653-109.64 336.228-109.64 122.577 0 239.245 38.448 336.23 109.641zm-368.323 63.763c46.092-25.504 98.146-39.061 152.279-39.061 54.136 0 106.19 13.555 152.28 39.061l-152.28 152.279zm152.279-529.576l171.173 171.174c-56.004-15.051-113.568-22.764-171.173-22.764-57.604 0-115.17 7.713-171.172 22.764zm464.741 340.892L667.428.007l-464.74 464.742c-.013.014-.025.022-.037.035v.003l464.777 464.777 464.779-464.777v-.003c-.012-.013-.024-.021-.038-.035"/></svg>