<svg xmlns="http://www.w3.org/2000/svg" role="img" viewBox="54.47 23.97 151.06 119.94"><title>ServiceMEME (KCSP) logo</title><defs><clipPath id="a" clipPathUnits="userSpaceOnUse"><path d="M0 130h195V0H0z"/></clipPath></defs><path fill="#e00a6b" fill-rule="evenodd" d="M129.99 26.97L110 46.96l4.682 4.683 19.99-19.99zm7.77 7.77l-19.992 19.99 4.683 4.683 19.99-19.99zm7.769 7.77L125.538 62.5l4.683 4.681 19.99-19.99zM132.93 70.316l19.992 19.99 4.682-4.684-19.992-19.989zm7.768-7.77l19.992 19.99 4.683-4.684-19.992-19.988zm7.769-7.77l19.992 19.99 4.682-4.685-19.992-19.988zm-18.457 58.438L150 93.223l-4.682-4.683-19.99 19.99zm-7.77-7.77l19.99-19.99-4.682-4.682-19.99 19.99zm-7.77-7.769l19.991-19.991-4.682-4.681-19.991 19.989zm12.6-27.807l-19.992-19.99-4.682 4.685 19.992 19.988zm-7.769 7.77l-19.993-19.99-4.681 4.685 19.992 19.988zm-7.768 7.77L91.54 65.418l-4.683 4.685L106.85 90.09z"/><g fill="#e00a6b" clip-path="url(#a)" transform="matrix(1.33333 0 0 -1.33333 0 173.333)"><path d="M50.882 31.27H49.45c-.13.587-.367 1.027-.733 1.284-.404.292-.991.44-1.743.44-.66 0-1.174-.11-1.54-.367-.404-.239-.606-.569-.606-.99 0-.404.257-.752.807-1.027.349-.165 1.009-.367 1.963-.624 1.137-.275 1.944-.57 2.439-.88.752-.477 1.137-1.12 1.137-1.944 0-1.945-1.34-2.935-4.017-2.935-2.494 0-3.851 1.1-4.071 3.283h1.43c.11-.752.386-1.284.789-1.614.403-.293 1.009-.44 1.816-.44 1.687 0 2.549.55 2.549 1.614 0 .532-.311.935-.898 1.229-.312.147-.991.348-2.018.605-1.12.275-1.907.55-2.348.844-.733.44-1.082 1.045-1.082 1.852 0 .807.349 1.43 1.064 1.907.66.478 1.54.716 2.604.716 2.348 0 3.632-.973 3.889-2.953m3.779.898c-.513-.55-.807-1.283-.898-2.219h5.923c-.182 2.036-1.19 3.045-2.989 3.045-.844 0-1.522-.275-2.036-.826m5.447.514c.698-.917 1.065-2.219 1.101-3.87h-7.483c.074-1.064.348-1.889.862-2.476.513-.587 1.23-.881 2.128-.881.77 0 1.412.202 1.888.587.405.33.716.826.954 1.486h1.468c-.22-.917-.642-1.651-1.284-2.238-.789-.696-1.798-1.063-3.026-1.063-1.358 0-2.458.459-3.265 1.338-.844.917-1.247 2.128-1.247 3.668 0 1.395.385 2.569 1.192 3.504.807.991 1.89 1.486 3.265 1.486 1.521 0 2.678-.514 3.447-1.541m8.145 1.32v-1.467a4.773 4.773 0 0 1-1.412.202c-.734 0-1.358-.312-1.853-.972-.513-.623-.752-1.375-.752-2.256v-5.026h-1.449v9.483h1.449v-1.651c.257.55.587.991.991 1.302a2.634 2.634 0 0 0 1.724.606c.513 0 .953-.074 1.302-.221m1.651-.036l2.715-7.648 2.714 7.648h1.614l-3.595-9.482h-1.486l-3.576 9.482zm10.07-9.483h-1.467v9.482h1.467zm.055 12.747c.22-.183.33-.44.33-.77 0-.312-.11-.568-.33-.788a1.123 1.123 0 0 0-.789-.313c-.311 0-.568.111-.788.313-.221.22-.312.476-.312.788 0 .33.091.587.312.77.22.22.477.312.788.312.313 0 .569-.092.789-.312m9.464-3.832c.733-.57 1.174-1.432 1.34-2.587h-1.449c-.129.734-.422 1.284-.88 1.65-.478.368-1.083.534-1.835.534-.917 0-1.65-.35-2.183-1.046-.514-.68-.77-1.596-.77-2.751 0-1.155.238-2.072.752-2.734.495-.66 1.228-1.008 2.182-1.008 1.614 0 2.55.826 2.77 2.458h1.468c-.22-1.21-.679-2.146-1.414-2.77-.714-.605-1.65-.917-2.824-.917-1.43 0-2.53.477-3.319 1.43-.752.899-1.119 2.073-1.119 3.522 0 1.449.367 2.623 1.12 3.54.806 1.009 1.925 1.504 3.337 1.504 1.174 0 2.11-.275 2.824-.825m4.88-1.23c-.514-.55-.807-1.283-.898-2.219h5.923c-.183 2.036-1.192 3.045-2.989 3.045-.844 0-1.522-.275-2.036-.826m5.447.514c.697-.917 1.064-2.219 1.101-3.87h-7.484c.074-1.064.35-1.889.863-2.476s1.228-.881 2.127-.881c.77 0 1.413.202 1.89.587.403.33.714.826.952 1.486h1.468c-.22-.917-.642-1.651-1.284-2.238-.788-.696-1.797-1.063-3.026-1.063-1.357 0-2.457.459-3.265 1.338-.844.917-1.247 2.128-1.247 3.668 0 1.395.386 2.569 1.192 3.504.807.991 1.89 1.486 3.265 1.486 1.522 0 2.678-.514 3.448-1.541m9.795-.257c.366.624.807 1.082 1.32 1.357.458.294 1.01.44 1.67.44.99 0 1.78-.311 2.402-.935.587-.641.9-1.504.9-2.586v-6.217h-1.469v5.979c0 .844-.183 1.467-.532 1.87-.366.44-.953.643-1.76.643-.624 0-1.156-.221-1.559-.697-.44-.477-.642-1.083-.642-1.853v-5.942h-1.468v5.979c0 1.688-.733 2.513-2.182 2.513-.679 0-1.229-.257-1.669-.808-.44-.514-.66-1.155-.66-1.907v-5.777h-1.468v9.482h1.468V32.7c.714 1.028 1.614 1.523 2.677 1.523 1.45 0 2.44-.587 2.972-1.798m10.328-.257c-.514-.55-.808-1.283-.899-2.219h5.924c-.183 2.036-1.192 3.045-2.99 3.045-.844 0-1.52-.275-2.035-.826m5.447.514c.697-.917 1.064-2.219 1.101-3.87h-7.484c.074-1.064.35-1.889.863-2.476.512-.587 1.228-.881 2.127-.881.77 0 1.412.202 1.89.587.403.33.714.826.952 1.486h1.468c-.22-.917-.642-1.651-1.284-2.238-.788-.696-1.797-1.063-3.026-1.063-1.358 0-2.457.459-3.265 1.338-.844.917-1.247 2.128-1.247 3.668 0 1.395.385 2.569 1.192 3.504.807.991 1.89 1.486 3.265 1.486 1.522 0 2.678-.514 3.448-1.541m9.796-.257c.366.624.807 1.082 1.32 1.357.458.294 1.009.44 1.669.44.99 0 1.78-.311 2.403-.935.587-.641.899-1.504.899-2.586v-6.217h-1.468v5.979c0 .844-.183 1.467-.532 1.87-.366.44-.953.643-1.761.643-.623 0-1.155-.221-1.558-.697-.441-.477-.642-1.083-.642-1.853v-5.942h-1.468v5.979c0 1.688-.733 2.513-2.182 2.513-.68 0-1.23-.257-1.67-.808-.44-.514-.66-1.155-.66-1.907v-5.777h-1.467v9.482h1.468V32.7c.714 1.028 1.614 1.523 2.677 1.523 1.45 0 2.44-.587 2.972-1.798m10.327-.257c-.514-.55-.808-1.283-.9-2.219h5.925c-.183 2.036-1.192 3.045-2.99 3.045-.844 0-1.521-.275-2.035-.826m5.447.514c.697-.917 1.064-2.219 1.1-3.87h-7.483c.074-1.064.349-1.889.863-2.476.512-.587 1.228-.881 2.127-.881.77 0 1.412.202 1.889.587.404.33.715.826.953 1.486h1.468c-.22-.917-.642-1.651-1.284-2.238-.79-.696-1.797-1.063-3.026-1.063-1.358 0-2.458.459-3.265 1.338-.844.917-1.247 2.128-1.247 3.668 0 1.395.385 2.569 1.192 3.504.807.991 1.889 1.486 3.265 1.486 1.522 0 2.678-.514 3.448-1.541"/></g></svg>