<svg xmlns="http://www.w3.org/2000/svg" role="img" viewBox="8.77 8.77 63.77 47.14"><title>Shipwright logo</title><path fill="#7c8fa4" d="M33.963 10.165c-.2315.019-.42832.0397-.59562.0648-.16729.025-.272.0249-.4895.1296-.21748.10473-.28278.18684-.40666.30204-.12388.11519-.26217.25615-.4214.42528-.31846.33827-.71564.78757-1.1687 1.3163-.90618 1.0575-2.0334 2.4312-3.1417 3.821-1.1083 1.3898-2.1969 2.7945-3.0261 3.9133-.41464.55943-.76371 1.0465-1.0226 1.4323-.12946.19289-.23604.35966-.32078.50609-.08475.14642-.15095.2282-.20469.4636s-.02934.33748-.01655.5062c.01262.16873.03624.3655.06916.5955.06584.46.16914 1.0505.29989 1.7346.26151 1.3682.6327 3.1063 1.0279 4.8398.39526 1.7335.81392 3.4602 1.1714 4.8064.17871.67315.34185 1.2502.48194 1.6932.07005.22153.13348.40877.19508.56635.06161.15758.08496.26058.23545.44939.15047.1888.24527.23375.38511.32893.13984.0952.30832.19934.5086.317.40055.2353.92651.5226 1.5427.84683 1.2323.64844 2.8216 1.441 4.4228 2.2126 1.6012.77157 3.2123 1.5207 4.4873 2.0805.6375.27989 1.1902.51286 1.6238.67952.2168.0833.40292.14957.56448.19964.16156.0501.25566.0964.49703.0964.24139.00003.33627-.0461.49785-.0962.16158-.05.34749-.11692.56432-.2002.43366-.16656.98604-.39874 1.6236-.6785 1.2752-.5595 2.8866-1.3083 4.488-2.0795 1.6014-.77123 3.1911-1.5636 4.4236-2.2118.61626-.32409 1.1427-.61146 1.5433-.84668.20031-.11761.36861-.22169.50847-.31684.13987-.0951.23491-.14061.38543-.32937s.173-.29118.23464-.44874c.0617-.15756.12568-.34438.19579-.56588.14021-.44301.30368-1.0199.48258-1.693.3578-1.3462.77645-3.0731 1.1722-4.8064s.76803-3.471 1.0299-4.839c.13095-.68403.23443-1.2753.30038-1.7353.033-.22999.0564-.42648.0693-.5952.0128-.16871.0369-.27058-.0168-.506-.0537-.23543-.11993-.31703-.20464-.46348-.0847-.14645-.19084-.31324-.32026-.50617-.25883-.38585-.60814-.87374-1.0227-1.4333-.82905-1.1191-1.9179-2.5233-3.0259-3.9135-1.108-1.3901-2.234-2.7645-3.1399-3.8222-.45299-.52888-.85048-.9777-1.1689-1.316-.1592-.16917-.29788-.31026-.42173-.42549-.12385-.11523-.18872-.19817-.40617-.30296-.32619-.15719-.466-.13168-.76321-.16373-.29721-.0321-.67155-.0587-1.1133-.082-.88355-.0466-2.0333-.0784-3.2936-.0969-2.5206-.037-5.4752-.0195-7.5626.0541-.69581.0245-1.2949.0548-1.7579.0929z" paint-order="markers fill stroke"/><path fill="#0e232e" d="M40.65097 12.88214v.00206c-1.27152-.00111-2.14752.4464-2.29957.60615-.08403.2283-.12743 2.07034-.13695 2.50317h-3.6885a.85007.85007 0 0 0-.84955.88055l.20464 5.33287c-1.48308.58655-2.59878 1.07745-2.59878 1.07745.25689.95873 1.14581 3.67872 1.85259 5.77578 1.03472-.41883 1.85206-.90277 1.85206-.90277l.75394-.49609c2.60752 2.10095 6.90607 2.49308 9.71247-.01963l.79684.50177s.98783.56126 2.14092 1.00043c.6222-2.06401 1.44604-4.9286 1.69549-5.85938 0 0-1.11576-.49122-2.5993-1.07796l.20464-5.33234a.85007.85007 0 0 0-.84954-.88055H43.1544c-.00944-.43285-.05187-2.27489-.1359-2.50317-.15207-.15976-1.02861-.60718-2.3001-.60615v-.00206c-.01165-.00016-.02204.00108-.0336.00103-.01158.00008-.02195-.0012-.03358-.00103zm-5.24213 4.81059H45.9611l-.14935 3.87874c-1.78332-.65092-3.71602-1.2634-4.95532-1.36216v-.0155c-.05756 0-.11461.00338-.17208.00568-.05752-.0024-.115-.00568-.1726-.00568v.0155c-1.239.09887-3.17046.7114-4.95372 1.36216z" color="#000" style="inline-size:0;isolation:auto;mix-blend-mode:normal;shape-margin:0;shape-padding:0;text-decoration-color:#000;text-decoration-line:none;text-decoration-style:solid;text-indent:0;text-orientation:mixed;text-transform:none"/><path fill="#fff" d="M45.37107 29.40013l-.5643.54673s-1.52744 1.50527-4.25603 1.41592c-2.7982-.09164-4.36504-1.45675-4.36504-1.45675l-.57049-.4904-.6289.41444s-2.50954 1.53271-4.43542 1.53271v2.00039c2.38826 0 4.28064-1.11627 4.96643-1.54872.68447.48249 2.24269 1.45738 4.96855 1.54665 2.77333.09083 4.3563-.99138 5.0585-1.5389.70093.43042 2.62593 1.54097 4.94183 1.54097v-2.00039c-1.79457 0-4.4513-1.54252-4.4513-1.54252zm0 4.49786c-1.3225 1.27864-3.7094 1.61764-4.82038 1.59886-1.77224-.06861-3.57527-.41404-4.93548-1.58336-1.53898.88487-3.52605 1.38968-5.06432 1.418v2.00038c2.38826 0 4.28064-.5871 4.96643-1.01956.68447.48246 2.24269 1.09359 4.96855 1.18286 2.77333.0908 4.3563-.62761 5.0585-1.1751.70093.4304 2.62593 1.0118 4.94183 1.0118v-2.00039c-1.76224-.1341-3.60464-.4782-5.1154-1.43349z" color="#000" style="inline-size:0;isolation:auto;mix-blend-mode:normal;shape-margin:0;shape-padding:0;text-decoration-color:#000;text-decoration-line:none;text-decoration-style:solid;text-indent:0;text-orientation:mixed;text-transform:none"/><g fill="#0e232e"><path d="M12.54643 54.7435c1.78704 0 2.65379-.89352 2.65379-1.93893 0-2.29639-3.6367-1.50115-3.6367-2.65378 0-.39315.3306-.71486 1.18842-.71486.55399 0 1.15263.16084 1.73342.49145l.44677-1.09902c-.5808-.36635-1.38498-.554-2.17127-.554-1.77816 0-2.6359.88458-2.6359 1.94788 0 2.32316 3.6367 1.51897 3.6367 2.6895 0 .38422-.34847.67015-1.20624.67015-.75057 0-1.53686-.26807-2.06404-.65228l-.49145 1.09015c.554.42889 1.55477.72373 2.54656.72373zm7.9345-6.36094v2.46618h-2.84145v-2.46618h-1.44754v6.2547h1.44754V52.0728h2.84146v2.56445h1.44753v-6.2547zm2.9308 6.25456h1.44753v-6.2547h-1.44753zm5.6384-6.25456h-2.7074v6.2547h1.44753V52.9127h1.25986c1.67094 0 2.71634-.86675 2.71634-2.2606 0-1.40287-1.0454-2.26955-2.71634-2.26955zm-.08043 3.35075h-1.17947v-2.17127h1.17947c.88457 0 1.33137.40208 1.33137 1.09014 0 .67908-.44677 1.0812-1.33137 1.0812zm11.82091-3.35075l-1.45648 4.43194-1.42964-4.43194h-1.34031l-1.4743 4.39615-1.41176-4.39615h-1.50115l2.0551 6.2547h1.54582l1.42069-4.23532 1.37603 4.23532h1.55476l2.04622-6.2547zm7.72907 6.25456l-1.40287-2.01044c.81314-.34847 1.2867-1.03653 1.2867-1.97471 0-1.40287-1.0454-2.26955-2.71634-2.26955h-2.7074v6.2547h1.44754v-1.74237h1.33137l1.20624 1.74237zm-1.58153-3.98515c0 .67908-.44676 1.09014-1.33136 1.09014H44.4273V49.5619h1.17948c.88457 0 1.33136.40208 1.33136 1.09014zm2.6094 3.98515h1.44754v-6.2547h-1.44754zm7.15702-1.3935c-.36635.19657-.73268.26806-1.12587.26806-1.1973 0-2.02832-.83096-2.02832-2.00149 0-1.18842.83096-2.00148 2.04622-2.00148.6344 0 1.16158.22338 1.61732.7059l.9293-.8578c-.6076-.7059-1.51897-1.08119-2.61806-1.08119-1.9926 0-3.44007 1.34926-3.44007 3.23457 0 1.88539 1.44753 3.23457 3.4133 3.23457.89352 0 1.84065-.277 2.52866-.79524v-2.5376h-1.32241zm6.952-4.86106v2.46618h-2.84146v-2.46618h-1.44753v6.2547h1.44753V52.0728h2.84146v2.56445h1.44754v-6.2547zm4.2263 6.25456h1.44753v-5.0753h2.00149v-1.17947H65.8813v1.17948h2.00149z" stroke-width="18.904"/></g></svg>