<svg xmlns="http://www.w3.org/2000/svg" role="img" viewBox="-4.53 -4.28 222.82 69.32"><title>Shopify logo</title><path fill="#95BF47" d="M46.3758 11.5534c-.0416-.303-.3063-.4711-.526-.4894-.218-.0183-4.4894-.0832-4.4894-.0832s-3.5723-3.46905-3.9252-3.82195c-.3528-.35289-1.042-.24636-1.31-.16646-.0033.00167-.6708.20808-1.7944.55598-.1881-.60924-.4645-1.35832-.859-2.11072-1.2717-2.42699-3.1344-3.7104-5.385-3.71372h-.0083c-.1565 0-.3113.01498-.4677.02829-.0666-.0799-.1332-.15813-.2031-.23471C26.4272.46881 25.1705-.04222 23.664.00273c-2.9064.08323-5.8011 2.18229-8.1482 5.911-1.6513 2.62341-2.9081 5.91937-3.2643 8.47117-3.33755 1.0337-5.67133 1.7561-5.72293 1.7728-1.68458.5293-1.73784.5809-1.95757 2.169C4.40787 19.5268 0 53.6113 0 53.6113L36.9392 60l16.0101-3.9801s-6.5319-44.1635-6.5735-44.4665zM32.4814 8.12099c-.8506.26301-1.8178.56264-2.8665.88724-.0216-1.47151-.1964-3.51897-.8822-5.28845 2.2056.41782 3.2909 2.91306 3.7487 4.40121zm-4.7991 1.48649c-1.9359.59922-4.0483 1.25342-6.1673 1.90932.5959-2.28219 1.7262-4.55437 3.1145-6.04419.516-.55431 1.2384-1.17188 2.094-1.52478.804 1.67792.9788 4.05331.9588 5.65965zm-3.9601-7.67049c.6825-.01498 1.2568.13484 1.7479.45777-.7857.40783-1.5448.99377-2.2572 1.75782-1.8461 1.98088-3.261 5.0554-3.8253 8.02172-1.7595.5443-3.4807 1.0787-5.0654 1.5681 1.0005-4.66925 4.9139-11.67557 9.4-11.80541z"/><path fill="#5E8E3E" d="M45.8514 11.0657c-.218-.0183-4.4894-.0832-4.4894-.0832s-3.5722-3.46906-3.9251-3.82195c-.1315-.13151-.3096-.19976-.4961-.22805l.0017 53.0659L52.951 56.02s-6.5319-44.1619-6.5735-44.4649c-.0417-.303-.308-.4711-.5261-.4894z"/><path fill="#fff" d="M28.0668 19.2972l-1.8593 6.9563s-2.0741-.9438-4.5327-.789c-3.6056.2281-3.6439 2.5019-3.6072 3.0729.1964 3.1111 8.3812 3.7903 8.8407 11.0779.3612 5.7329-3.0413 9.6547-7.9435 9.9643-5.8844.3712-9.12371-3.0995-9.12371-3.0995l1.24681-5.3034s3.2609 2.4603 5.871 2.2955c1.7046-.1082 2.3138-1.4948 2.2522-2.4753-.2563-4.0583-6.9214-3.8186-7.3425-10.487-.3546-5.6113 3.3309-11.2976 11.4624-11.8103 3.1328-.2014 4.7358.5976 4.7358.5976z"/><path d="M74.0322 33.8637c-1.8409-.9989-2.787-1.8409-2.787-2.9983 0-1.4727 1.3142-2.4188 3.3665-2.4188 2.389 0 4.5221.9989 4.5221.9989l1.6824-5.1545s-1.547-1.2102-6.1005-1.2102c-6.3367 0-10.7284 3.6289-10.7284 8.7306 0 2.8926 2.0506 5.1017 4.7863 6.6784 2.2091 1.2614 2.9983 2.1563 2.9983 3.4705 0 1.3671-1.1045 2.4716-3.1551 2.4716-3.0561 0-5.9421-1.5784-5.9421-1.5784l-1.788 5.1545s2.6664 1.7881 7.1522 1.7881c6.5216 0 11.2023-3.208 11.2023-8.9932-.0017-3.1006-2.3676-5.3097-5.209-6.9392zm25.9808-10.8341c-3.2082 0-5.7326 1.5256-7.6775 3.8387l-.1057-.0529 2.7869-14.567h-7.2579l-7.0466 37.0755h7.2579l2.4188-12.6733c.946-4.7863 3.4176-7.7301 5.7324-7.7301 1.6295 0 2.2619 1.1045 2.2619 2.6829 0 .9989-.1057 2.2091-.3154 3.208l-2.7341 14.5142h7.2583l2.839-14.9881c.316-1.5784.527-3.4704.527-4.7335-.003-4.1028-2.159-6.5744-5.945-6.5744zm22.35 0c-8.731 0-14.514 7.8887-14.514 16.6705 0 5.6267 3.47 10.1489 9.992 10.1489 8.572 0 14.357-7.6773 14.357-16.6705 0-5.2057-3.051-10.1489-9.835-10.1489zm-3.576 21.2471c-2.472 0-3.524-2.1034-3.524-4.7335 0-4.154 2.157-10.938 6.101-10.938 2.577 0 3.417 2.209 3.417 4.3653 0 4.4693-2.154 11.3062-5.994 11.3062zm31.975-21.2471c-4.899 0-7.679 4.3125-7.679 4.3125h-.104l.421-3.8915h-6.416c-.315 2.6301-.895 6.6256-1.472 9.6239l-5.049 26.5568h7.258l1.997-10.7284h.159s1.489.9461 4.26.9461c8.519 0 14.093-8.729 14.093-17.5653 0-4.8887-2.157-9.2541-7.468-9.2541zm-6.942 21.3511c-1.884 0-2.999-1.0517-2.999-1.0517l1.21-6.784c.842-4.5222 3.208-7.5205 5.733-7.5205 2.209 0 2.892 2.0506 2.892 3.9972 0 4.6806-2.787 11.359-6.836 11.359zm24.77-31.7641c-2.313 0-4.154 1.8409-4.154 4.2068 0 2.1563 1.367 3.629 3.418 3.629h.105c2.262 0 4.207-1.5256 4.26-4.2068 0-2.1035-1.42-3.629-3.629-3.629zm-10.149 36.7073h7.256l4.945-25.7148h-7.311l-4.89 25.7148zm30.66-25.7676h-5.049l.262-1.2102c.421-2.4716 1.894-4.6807 4.313-4.6807 1.291 0 2.313.3682 2.313.3682l1.42-5.6795s-1.262-.6307-3.945-.6307c-2.577 0-5.152.7363-7.099 2.4187-2.472 2.1035-3.629 5.1529-4.207 8.204l-.209 1.2102h-3.367l-1.052 5.4699h3.367l-3.839 20.2994h7.258l3.839-20.2994h4.996l.999-5.4699zm17.459.0529s-4.537 11.43-6.574 17.6693h-.106c-.138-2.0093-1.788-17.6693-1.788-17.6693h-7.626l4.367 23.6113c.106.5251.053.8421-.158 1.2102-.843 1.6296-2.262 3.208-3.945 4.3654-1.367.9988-2.892 1.6295-4.101 2.0505L188.627 61c1.473-.3153 4.522-1.5255 7.099-3.9443 3.314-3.1023 6.363-7.8886 9.518-14.4102l8.888-19.038h-7.572v.0017z"/></svg>