<?xml version="1.0" encoding="utf-8"?>
<!-- Generator: Adobe Illustrator 21.1.0, SVG Export Plug-In . SVG Version: 6.00 Build 0)  -->
<svg version="1.1" id="Layer_1" xmlns="http://www.w3.org/2000/svg" xmlns:xlink="http://www.w3.org/1999/xlink" x="0px" y="0px"
	 viewBox="0 0 428 136" style="enable-background:new 0 0 428 136;" xml:space="preserve">
<style type="text/css">
	.st0{fill:#5AA846;}
</style>
<path class="st0" d="M111.6,40.7c-14.1,0-25.8,12.9-25.8,28.5s11.6,28.4,25.8,28.4s25.8-12.8,25.8-28.4S125.8,40.7,111.6,40.7
	 M111.6,33.9c11.4,0.2,19.8,6.4,26.1,16l0.5-13.8v-1h6v63.7c0,19.6-15.1,35.6-33.8,35.6c-9.4,0-18.4-4.1-24.6-11.1l-0.6-0.6l0.6-0.7
	l3.6-3.8l0.6-0.6l0.6,0.6c5,5.7,12.2,9,19.8,9.1c14.8,0,27-12.9,27-28.5v-9.3c-5.4,9.2-15.1,15-25.8,15.4c-17.9,0-32.6-16-32.6-35.6
	S93.6,33.9,111.6,33.9"/>
<path class="st0" d="M29.2,33.9h3.5C40.1,34.7,47,38.3,51.9,44l0.6,0.8l-0.6,0.6l-3.7,3.5l-0.7,0.6l-0.6-0.6
	c-4.3-5.2-10.8-8.2-17.6-8.1c-8.7,0-16.1,5-16.1,10.7s4.5,8.1,17,11.9c-0.4,0,3.4,1.1,4.3,1.3c5.4,1.5,10.6,3.7,15.3,6.6
	c4.6,2.9,7.3,7.9,7.3,13.3c0,11.6-12.7,20.2-27.7,20.2c-12.5,0-22.5-4.7-27.5-11.9l-0.5-0.9l0.7-0.5l3.8-3.1l0.7-0.6l0.6,0.8
	c3.8,5.3,11.6,9.1,22.2,9.1c11.8,0,21-6.4,21-13s-4.8-9.1-18.7-13.4c-0.2,0-0.6,0-1.2-0.4c-0.6-0.4-0.9-0.2-1.2-0.4
	c-5.4-1.3-10.5-3.5-15.2-6.4c-4.5-2.6-7.2-7.5-7.2-12.7C7.1,39.1,19.1,34.1,29.2,33.9"/>
<path class="st0" d="M277.2,67.7h-28.4c-10.4,0-18.4,6.6-18.4,14.3c0,9.3,7.6,15.6,20.8,15.6c13.8,0,25.9-11.1,25.9-21.9v-8.1H277.2
	z M256.1,33.9c15.1,0,27.7,9.4,27.7,21.5v48.2h-5.9v-0.9l-0.5-11.3c-6,8.4-15.7,13.5-26.1,13.5c-16.6,0-27.7-9.4-27.7-22.8
	c0-12,11.4-21.5,25.1-21.5h28.4v-5.3c0-7.7-9.3-14.5-21-14.5c-7.2-0.1-14.3,1.9-20.4,5.7l-0.7,0.5l-0.5-0.8l-2.6-4.3l-0.5-0.8
	l0.7-0.5C239.2,36.1,247.6,33.7,256.1,33.9"/>
<path class="st0" d="M191.9,33.9c15.2,0,25.1,9.4,25.1,24.1v45.7h-6.8V57.8c0-10.8-6.8-17.1-18.4-17.1c-15.6,0-28.4,14.5-28.4,32.4
	v30.5h-6.5V35.1h6V36l0.5,16C168.8,41.2,179.8,34.3,191.9,33.9"/>
<rect x="64.7" y="35" class="st0" width="6.7" height="68.4"/>
<path class="st0" d="M302,4.3v92.1h0.2v7.2h-1c-3.4-0.1-6.1-2.9-6-6.3c0,0,0,0,0,0V4.3H302z"/>
<path class="st0" d="M67.8,9.5c3,0.1,5.3,2.6,5.3,5.5c0,3-2.3,5.4-5.3,5.5c-2.9-0.2-5.2-2.6-5.2-5.5C62.5,12.1,64.8,9.6,67.8,9.5
	C67.8,9.5,67.8,9.5,67.8,9.5"/>
<path class="st0" d="M373.5,2.3c8,0.1,15.3,4.5,18.9,11.6l0.5,0.8l-0.7,0.5l-4.2,2.6l-0.9,0.5l-0.5-0.9c-2.6-4.9-7.7-8-13.2-7.9
	c-8.6,0.2-15.4,7.4-15.2,16c0,0,0,0,0,0v9.5H378v7h-19.8v62.6h-6.8V42h-9.9v-7h9.9v-9.6C351.2,13,361.1,2.7,373.5,2.3"/>
<path class="st0" d="M418.4,48.6c2.1,0.1,4.2,0.8,5.9,2l0.7,0.5l-2.2,3c-1.3-0.7-2.8-0.7-4.1,0c-2,1.2-3.5,2.9-4.6,5l-22.9,39.5
	c-1.6,3.3-4.8,5.6-8.5,6.1c-2.6,0.3-5.2-0.4-7.4-1.8l-0.7-0.5l2.2-3c1.3,0.7,2.8,0.7,4.1,0c2-1.2,3.5-2.9,4.6-5l23-39.5
	c1.6-3.3,4.7-5.6,8.3-6.1L418.4,48.6z"/>
<path class="st0" d="M381.1,48.6c-2.1,0.1-4.2,0.8-5.9,2l-0.7,0.5l2.2,3c1.3-0.7,2.8-0.7,4.1,0c2,1.2,3.5,2.9,4.6,5l22.9,39.5
	c1.6,3.3,4.8,5.6,8.5,6.1c2.6,0.3,5.2-0.4,7.4-1.8l0.7-0.5l-2.2-3c-1.3,0.7-2.8,0.7-4.1,0c-2-1.2-3.6-2.9-4.6-5l-22.9-39.5
	c-1.6-3.3-4.8-5.6-8.5-6.1L381.1,48.6z"/>
</svg>
