<svg xmlns="http://www.w3.org/2000/svg" role="img" viewBox="-2.63 -3.13 292.50 89.75"><title>SignalFX logo</title><style>svg {enable-background:new 0 0 288 84}</style><style/><path fill="#59a200" d="M283.757 22.97h-11.44l-3.672 4.782v13.979z"/><path d="M268.645 41.731L254.211 22.97h-11.44l15.056 18.761-15.763 20.027h10.893L263.236 48.5l10.391 13.258h10.894l-15.876-20.027"/><path d="M244.787 11.529V4.043h-35.788v57.715h8.457V36.199h25.304v-7.325h-25.304V11.529zM36.611 33.693a21.512 21.512 0 0 0-5.476-3.025 97.182 97.182 0 0 0-5.913-2.025c-1.622-.54-3.158-1.07-4.566-1.576-1.402-.502-2.636-1.119-3.668-1.833a8.236 8.236 0 0 1-2.441-2.599c-.597-1.01-.9-2.292-.9-3.808 0-1.572.33-2.935.981-4.053a9.186 9.186 0 0 1 2.566-2.843 10.638 10.638 0 0 1 3.525-1.663 15.106 15.106 0 0 1 3.866-.518c2.378 0 4.548.495 6.448 1.471 1.901.978 3.426 2.248 4.531 3.774l.153.21 6.002-5.83-.143-.161c-1.794-2.012-4.19-3.637-7.12-4.831-2.927-1.192-6.112-1.796-9.467-1.796a27.95 27.95 0 0 0-7.135.938c-2.36.624-4.508 1.63-6.383 2.987a16.147 16.147 0 0 0-4.593 5.167C5.705 13.752 5.11 16.266 5.11 19.15c0 2.666.443 4.93 1.317 6.73.87 1.8 2.032 3.334 3.452 4.561a19.06 19.06 0 0 0 4.829 3.03 45.273 45.273 0 0 0 5.44 1.989 311.85 311.85 0 0 1 5.213 1.737c1.618.558 3.057 1.243 4.277 2.039 1.208.788 2.179 1.758 2.885 2.883.702 1.119 1.058 2.534 1.058 4.208 0 1.677-.344 3.122-1.022 4.296a9.6 9.6 0 0 1-2.648 2.964 11.184 11.184 0 0 1-3.608 1.744c-1.32.37-2.66.558-3.983.558-2.593 0-5.033-.616-7.253-1.832-2.224-1.218-4.02-2.827-5.34-4.782l-.14-.208L3 54.627l.137.172c2.225 2.767 5.071 4.885 8.46 6.294a27.36 27.36 0 0 0 10.561 2.12c2.54 0 5.052-.356 7.464-1.06 2.414-.704 4.576-1.792 6.424-3.233 1.85-1.442 3.355-3.291 4.471-5.495 1.116-2.207 1.682-4.84 1.682-7.826 0-2.882-.526-5.3-1.565-7.186-1.035-1.878-2.388-3.466-4.023-4.72zM48.324 22.97h8.053v38.788h-8.053zm47.115 5.845c-1.449-2.25-3.394-3.963-5.787-5.096a18.538 18.538 0 0 0-7.982-1.8c-2.93 0-5.628.536-8.017 1.596-2.39 1.058-4.456 2.518-6.14 4.34-1.685 1.82-3.007 3.98-3.928 6.422-.922 2.438-1.39 5.077-1.39 7.844 0 2.768.468 5.394 1.39 7.804.922 2.416 2.244 4.55 3.928 6.343 1.685 1.794 3.765 3.227 6.183 4.259 2.415 1.031 5.125 1.554 8.055 1.554 2.77 0 5.414-.578 7.86-1.72 2.312-1.078 4.188-2.638 5.585-4.641v4.438c0 1.963-.229 3.822-.68 5.523-.448 1.685-1.195 3.167-2.22 4.404-1.025 1.233-2.398 2.219-4.08 2.929-1.691.713-3.812 1.074-6.303 1.074-2.598 0-5.166-.565-7.632-1.678-2.467-1.115-4.551-2.62-6.193-4.474l-.174-.197-5.156 6.273.158.143c2.437 2.221 5.388 3.964 8.77 5.182 3.378 1.216 6.791 1.833 10.146 1.833 4 0 7.405-.605 10.12-1.799 2.714-1.194 4.945-2.806 6.633-4.792 1.685-1.986 2.897-4.3 3.604-6.88.703-2.572 1.06-5.3 1.06-8.107V22.97h-7.81v5.845zm-.596 8.048c.61 1.586.919 3.3.919 5.096 0 1.85-.31 3.606-.92 5.219-.606 1.606-1.478 3.023-2.59 4.212-1.11 1.187-2.478 2.135-4.063 2.82-1.585.685-3.357 1.032-5.265 1.032-1.96 0-3.73-.373-5.259-1.11a12.517 12.517 0 0 1-3.946-2.94 12.459 12.459 0 0 1-2.47-4.212 15.097 15.097 0 0 1-.84-5.02c0-1.801.283-3.532.84-5.144.555-1.609 1.386-3.025 2.468-4.209 1.084-1.186 2.411-2.148 3.945-2.86 1.532-.71 3.302-1.07 5.262-1.07 1.905 0 3.662.36 5.221 1.071 1.56.712 2.93 1.689 4.067 2.901a12.892 12.892 0 0 1 2.63 4.214zm46.887-10.255c-1.202-1.42-2.724-2.569-4.525-3.415-1.802-.846-3.983-1.275-6.485-1.275-1.414 0-2.795.194-4.107.575a14.478 14.478 0 0 0-6.53 3.985 11.591 11.591 0 0 0-1.84 2.563 82.713 82.713 0 0 0-.078-2.581c-.055-1.212-.082-2.32-.189-3.29l-.022-.2h-7.645l.022.244c.106 1.236.133 2.674.186 4.275.054 1.65.08 2.944.08 3.956v30.313h8.053V41.15c0-3.756.949-6.796 2.82-9.036 1.86-2.227 4.292-3.357 7.228-3.357 1.732 0 3.163.317 4.256.941a7.047 7.047 0 0 1 2.588 2.51c.63 1.05 1.07 2.275 1.306 3.642.24 1.387.36 2.87.36 4.41v21.498h8.053V37.753c0-2.166-.289-4.229-.859-6.13-.572-1.906-1.47-3.594-2.672-5.015zm43.203 31.394a73.085 73.085 0 0 1-.12-4.072V37.187c0-2.119-.332-4.13-.984-5.98-.656-1.855-1.652-3.488-2.962-4.852-1.311-1.365-3.012-2.459-5.055-3.249-2.04-.788-4.477-1.188-7.24-1.188-3.138 0-6.118.522-8.855 1.551-2.739 1.031-5.09 2.462-6.99 4.253l-.154.145 4.337 5.204.174-.174c1.267-1.266 2.863-2.326 4.743-3.147a14.941 14.941 0 0 1 6.018-1.235c2.791 0 5.057.677 6.735 2.013 1.661 1.324 2.503 3.401 2.503 6.174v.827a114.84 114.84 0 0 0-9.42.405c-3.189.271-6.092.86-8.628 1.75-2.558.898-4.657 2.225-6.238 3.943-1.596 1.733-2.406 4.11-2.406 7.068 0 2.242.46 4.158 1.366 5.695.904 1.533 2.056 2.781 3.425 3.711a13.999 13.999 0 0 0 4.56 2.014c1.655.407 3.265.613 4.786.613 2.935 0 5.515-.58 7.668-1.725 2.07-1.1 3.823-2.65 5.213-4.606.027 1.726.246 3.47.65 5.188l.041.173h7.337l-.065-.276c-.212-.899-.36-2.07-.44-3.48zm-7.85-14.524v1.797c0 3.163-.946 5.82-2.813 7.898-1.861 2.07-4.567 3.12-8.043 3.12-.955 0-1.892-.093-2.786-.278a7.11 7.11 0 0 1-2.431-.98 5.492 5.492 0 0 1-1.75-1.788c-.434-.714-.654-1.627-.654-2.714 0-1.544.52-2.794 1.543-3.716 1.048-.943 2.393-1.661 3.998-2.135 1.62-.478 3.456-.802 5.455-.962a73.702 73.702 0 0 1 5.846-.242h1.635zm15.5-40.754h8.053v59.033h-8.053zM48.329 10.657h8.043V18.7h-8.043z"/></svg>