<svg xmlns="http://www.w3.org/2000/svg" role="img" viewBox="35.95 -6.30 327.86 257.36"><title>SimpleNexus (supporter) logo</title><path fill="none" d="M0 0h400v245H0z" pointer-events="none"/><path fill="#4e738a" d="M242.872 74.256v98.999l42.873 24.752v-99z" class="st2"/><path fill="#a2d45e" d="M157.128 74.256l-42.864 24.752 42.864 24.743L200 99.008z" class="st3"/><path fill="#002a3a" d="M42.278 239.722l3.539-4.643c2.005 2.399 4.883 3.855 7.908 3.855 2.125 0 3.821-.985 3.821-2.639 0-1.302-1.105-2.082-2.519-2.716-1.808-.745-4.25-1.413-6.34-2.561-2.596-1.414-4.686-3.582-4.686-7.36 0-4.96 4.215-8.739 10.35-8.739 3.426 0 7.042 1.182 9.878 3.856l-3.23 4.84c-1.73-1.696-4.524-2.596-6.572-2.596-2.244 0-3.461 1.02-3.461 2.4 0 1.336 1.217 2.047 2.365 2.56 1.533.67 4.215 1.612 6.177 2.52 2.956 1.336 5.235 3.504 5.235 7.402 0 5.235-4.37 9.09-11.061 9.09-4.592.009-8.73-1.842-11.404-5.269zm36.567-24.323v29.087h-6.537v-29.087h6.537zm8.893 0h4.567l10.984 15.824 10.906-15.824h4.644v29.087h-6.494v-15.388l-7.908 11.301h-2.365l-7.908-11.3v15.387h-6.417v-29.087zm61.293 9.844c0 5.08-3.11 9.604-11.018 9.604h-4.172v9.648h-6.495v-29.088h11.138c7.591-.008 10.547 4.833 10.547 9.836zm-6.657-.086c0-2.004-1.414-3.778-3.855-3.778h-4.687v7.6h4.413c2.87 0 4.13-1.894 4.13-3.822zm13.109-9.758h6.537v22.867h14.488v6.22H155.49v-29.087zm27.793 0h20.314v6.066h-13.777v5.389h12.749v6.023h-12.749v5.552h13.734v6.057h-20.271v-29.087z" class="st0"/><path fill="#ee7623" d="M237.792 215.399v29.087h-4.687L218.9 227.642v16.844h-6.417v-29.087h4.412l14.523 17.007v-17.007h6.374zm9.09 0h20.314v6.066h-13.777v5.389h12.749v6.023h-12.749v5.552h13.734v6.057h-20.27v-29.087zm35.23 14.402l-8.507-14.402h7.513l5.192 9.484 5.51-9.484h7.599l-9.013 14.402 8.936 14.685h-7.514l-5.586-9.759-5.706 9.759h-7.6l9.176-14.685zm23.338 3.744V215.4h6.538v17.872c0 3.735 2.167 5.432 5.114 5.432 2.913 0 5.081-1.73 5.081-5.432V215.4h6.537v18.146c0 8.105-5.509 11.455-11.609 11.455-6.066 0-11.66-3.35-11.66-11.455zm29.799 6.177l3.538-4.643c2.005 2.399 4.884 3.855 7.908 3.855 2.125 0 3.821-.985 3.821-2.639 0-1.302-1.105-2.082-2.519-2.716-1.807-.745-4.25-1.413-6.34-2.561-2.596-1.414-4.686-3.582-4.686-7.36 0-4.96 4.215-8.739 10.35-8.739 3.426 0 7.042 1.182 9.878 3.856l-3.23 4.84c-1.73-1.696-4.524-2.596-6.571-2.596-2.245 0-3.462 1.02-3.462 2.4 0 1.336 1.217 2.047 2.365 2.56 1.534.67 4.215 1.612 6.177 2.52 2.956 1.336 5.235 3.504 5.235 7.402 0 5.235-4.37 9.09-11.06 9.09-4.593.009-8.731-1.842-11.404-5.269zm-92.377-214.97L200 49.504l85.745 49.504V49.504z" class="st1"/><path fill="#9fcfca" d="M200 0l-85.736 49.504v49.504l128.608-74.256z" class="st4"/><path fill="#31793d" d="M200 99.008l-85.736 49.495v49.504L200 148.503z" class="st5"/><path fill="#80bc00" d="M157.128 74.256l-42.864 24.752 21.436 12.371z" class="st6"/><path fill="#415364" d="M242.872 74.256l42.873 24.752h-42.873z" class="st7"/><path fill="#d15e14" d="M242.872 24.752L200 49.504l21.436 12.371z" class="st8"/></svg>