<svg viewBox="-5.50 -6.50 384.00 598.00" xmlns="http://www.w3.org/2000/svg"><title>Skipper</title><defs><style>.cls-3{fill:#3a2507}.cls-4{fill:#0e1015}.cls-17{fill:#725831}.cls-23{fill:#41341f}.cls-24{fill:#25211a}.cls-27{fill:#393430}.cls-32{fill:#564123}.cls-33{fill:#0f1213}.cls-44{fill:#847468}.cls-49{fill:#574a2f}.cls-57{fill:#cecccb}.cls-76{fill:#846e3b}.cls-79{fill:#0a1326}.cls-87{fill:#1a1713}.cls-97{fill:#a3a07d}.cls-103{fill:#080806}.cls-104{fill:#191511}.cls-147{fill:#493a21}</style></defs><path fill="#24190c" d="M62.743 99.653l16.66-2.9c9.63-1.36 19.28-2.52 28.74-4.93a21.49 21.49 0 0 1 7.31-.6c10 3.11 20.1 6.32 27.33 14.54 2.79 3.17 6.85 3 9.95 5.08 2 2.21 2.56 5.19 3.94 7.73 1.84 3.4 7.82 5.07 10.53 2.71 2.5-2.18 6.16-4.87 1.41-8.54s-11.11-3.33-16.24-6.12c-7.15-4.6-15.46-6.8-22.68-11.36-8-5.07-8.3-5.05-4.66-14.29 1.5-4.1.46-8.38.87-12.55.19-2 0-4.6 2.33-5 2-.32 2.3 2.29 3.12 3.79 2.68 5.87 2.63 13.15 8.88 17.18 5.14 8.82 12.58 14.22 22.87 15.41 7.41 2.72 15.48 4.13 21.14 10.42 3.14 8.14.59 16.05-6.72 21-4.84 4-9.6 3.53-15.47 1.42-8.86-3.18-18.17-6.65-27.84-2.22a8.4 8.4 0 0 1-4.48.17c-7.81-2.22-15.67-4-23.89-3.22a8.34 8.34 0 0 1-4.66-.47c-11.26-6.11-23.77-5.3-35.89-6.63-14-1.68-27.61-5.48-41.36-8.48-2.11-1.15-4.66-.07-6.82-1.53s-2.16-2.42 0-3.61l4.86-.57c5.15-.29 10.14-3.9 15.47-.81 4.55 2.62 9.81 2.71 14.71 4.05 16.84 1.8 33.63 4 46.64 7-10.54-.76-22.43-8.94-35.9-12.24-3.74-.91-3.46-2.84-.15-4.43z"/><path fill="#141311" d="M247.203 235.933c3.9 1 7.77 2 11.7 2.85 3 .63 3.93 2.76 4.14 5.35.37 4.54 2.81 6.24 7.16 5.71a24.309 24.309 0 0 1 2.69 0c11.1-.11 11.18-.14 14.11 10.78.87 3.25 2.37 5 5.93 5.05 3.35 0 6.68.81 10 .85 6.78.09 12.33 1.22 12.1 10-.08 3.24 2.63 4.24 5.47 4.75 6.37 1.14 12.73 2.4 19.09 3.61 1.1.88 3.53.5 3.14 2.78-.44 2.58-2.74 2.56-4.74 2.79-2.2.11-4.32-1-7.19-.6 1.09 6.14 4.66 10.47 8.69 14.52a2.25 2.25 0 0 0 2.4.85c1.3-.56 1.09-1.82.84-2.9-.7-3-2.54-5.8-1.55-9.11 3.87-4.25 5.3-.16 6.59 2.24 3.72 6.9 5.63 14.49 7.23 22.1.64 3 1.59 6 2 9.12-2.1 10.68-12.22 18.45-22.63 17.33a87.32 87.32 0 0 0-14.09-.33c-5.28.29-7.4-2-7.08-7.23.21-3.36.19-6.72.32-10.07.14-3.63 1.13-6.61 5.66-6.93-6.32-5.61-5.81-11.82.83-14.34 2.1-.1 3.42 2 5.66 2 .08-3.27-1-6.23-2.05-9.11-2.89-7.75-4.48-8.74-12.95-8.79-3.81 0-7.62.14-11.43-.12-2.27-.15-4.89-.41-5.4-3.06s2.28-2.84 3.94-3.75a23.067 23.067 0 0 1 2.51-1c.25-.22 0-.23-.63-.29-2.56-.23-6.42.88-7-2.19s3.51-3.32 5.77-4.5a2 2 0 0 0 1-.84c-6.33-2.44-13.86-.2-19.62-5.49-1.62-1.49-3.27 1.46-4.54 3-3.85 4.57-5.54 10.78-10.83 14.26-9.75.22-9.81.22-9.16-10.18.16-2.63-.44-4.73-2.47-6.4-1.78-5 .45-9.71 1.53-14.42 1-4.33-.19-6.88-4.38-8.3a78.54 78.54 0 0 1-7.66-2.55c-4.22-1.94-7.36-.73-9.79 3a28.14 28.14 0 0 0-6 7.79c-1 2.06-2.26 4-5 2a6.55 6.55 0 0 1-.41-6.4c3-6.18 4.73-12.86 8-18.92 2.37-2.06 4.07-3.68 6.26.81s7.77 3.13 11.84 4.28z"/><path d="M134.413 129.393c4.92-5.54 11.19-2.61 16.58-1.85 5.7.8 11.55 2.14 16.74 5.46 3.73 2.39 5.7-2.48 8.74-3.39 3.94 1.88 8.13.14 12.15.85a5.94 5.94 0 0 1 3.83 1.77c3.65 2.07 7.51-.6 11.83.64l-6.62 4.82c6.17 3.11 8.72 3.52 21.62 3.43-1.76 4.65-7.19 6.1-8.61 11l6.08 2.53-11.68 2.22c.7 3.91 4.72 4.5 7.24 7.56-3.46.67-6.13-.08-8.82-.55-1.46-.26-3.25-1.31-4.23.51-.78 1.46 0 3.08.91 4.37 2.47 3.32 5 6.59 8.19 10.75-5.3-.7-8.67-2.91-12-5.26-2.5-1.65-5.15-5.6-7.17.45-3.93 4-6.44.06-9.36-1.65a37.46 37.46 0 0 1-3.62-3.12c-8.23-4.67-15.13-2.77-22.86 6.32-3.11 3.82-5.86 7.85-7.11 12.71a17.22 17.22 0 0 1-1.88 4.29c-2.57 1.61-6 1.4-7.71 5-1.31 2.8-4.24 2.34-6.94.83-4-2.21-5.32-5.11-3.35-9.34 6.06-8.19 8.79-18.06 13.61-26.87a16.1 16.1 0 0 1 3.1-3.6c2.77-3.8 4.19-8.24 5.5-12.63 2.57-8.65-.52-13.45-9.46-15.36a24.204 24.204 0 0 1-3.25-.67 3.5 3.5 0 0 1-1.45-1.22z" class="cls-3"/><path d="M149.223 462.733l-2.65-.16c-1.94-4.6.64-8.71 1.56-12.94.71-3.28 2-6.44 2.24-9.82.09-1.41 1.37-3.36-.75-4.1a6.25 6.25 0 0 0-5.22.51 3 3 0 0 0-1.041 4.113l.041.067c5.82 7-2 10.6-3.94 15.42-1.39 3.38-5.18 2.41-7-1.62-2-4.48-.91-9.32-1.37-14 .93-21.52 5.47-42.45 10.1-63.36a7.64 7.64 0 0 1 2.62-4.55c4.3-1 5.18 1.64 4.88 4.95-.22 2.45-.65 4.87-.82 7.34-.32 4.86-.23 9.14 6.24 9.66 1.82.15 3.56 1.44 3.18 3.62s-2.21 2.64-4.14 2.74a13.85 13.85 0 0 0-3.35.23c-.93.28-1.64.84-1.55 1.89.06.71.69 1.06 1.31 1.36 3.39 1.63 7.77-.17 9.48-3.68 2.91-6 3.48-12.7 4-19 .6-6.79 3.18-13 3.79-19.63.94-2.9.41-4.87-3.11-5.07a32.94 32.94 0 0 1-9.86-2.15c-2.86-1.65-7-3.06-1.28-6.42 3.58-.86 7.05 0 10.44 1 4.5 1.31 7.24.34 7.94-4.75.45-3.27 1.6-6.43 2-9.73a20 20 0 0 1 .66-4.11c2.58-9.4 6.13-18.51 8.23-28 4-7 7.9-14 9.62-21.95.91-4.22 2-8.63-5-7.94a5.76 5.76 0 0 1-3.67-1.48c-2.2-1.67-3.6-4-5.17-6.22a40.23 40.23 0 0 1-4.09-7.66c-.82-2.08-1.76-4.31 1.1-5.74 4.65-.62 6 3.08 7.4 6.14 2.31 5 5.66 7 11 5 4.08-.31 9.21-3.32 10.36 4 0 2.64-1 5-1.63 7.53-2.57 6-1.93 12.69-4.15 18.76a198.12 198.12 0 0 0-11.8 40.19c-1.48 8.1-4.84 15.88-6.21 24-3 17.69-9 34.6-13 52-1.14 5-1.75 10.13-2.66 15.2-1 7.51-2.19 15-2.12 22.6.16 12.64-.76 13.56-12.61 15.76z" class="cls-4"/><path fill="#826842" d="M144.913 372.303c-5.15 13.87-6.34 28.58-9 43-1.59 8.53-3.28 17.11-2.91 25.89-1.29 3.41-.64 7-.5 10.42.16 4.17 2 7 7 6.85 2 0 5-.54 5.41 2.93-14.07.57-28.14 1.27-42.22 1.62-3 .08-8.27.78-4.9-5.48 6.81 2.77 6.81 2.63 8.31-4.12 3.2-14.44 5-29.16 8.58-43.52.65-2.61 1-5.3 3-7.38a18.92 18.92 0 0 1 3.65-3c2-1.25 3.82-4 6.41-2.38 2.23 1.44 2 4.43 1.76 6.87-.56 6.44-2.13 12.75-2.38 19.24 0 .9 1.52.27.62.25 0-.05-.57-.29-.55-.66.44-8.34 2.62-16.36 4.54-24.42 4.22-17.71 5.69-35.93 10.09-53.6.48-1.94.31-4.05 1.58-5.78 3.1-1.21 3.11 1.49 3.46 3.08a13.62 13.62 0 0 0 3.08 6.27c.49 8.43-.1 16.63-5.03 23.92z"/><path fill="#0d0b04" d="M88.593 323.843l2.76 3.81c2.28 4.08 5.85 7.16 8.46 11 2.45 3.61 6.07 3 9.61 2.22a24.54 24.54 0 0 0 6.82-2.52c7.52-4.12 12-2.21 12.89 7.2.76 7.7-.08 15.87-8.07 20.68a3.54 3.54 0 0 1-1.95-.26c-3.7-3-7.77-5.39-11.25-8.91s-9.47-2.73-14.49-3.18a9.54 9.54 0 0 1-3.18-.8c-8.61-4.05-9.44-3.9-15.63 3a5.6 5.6 0 0 1-2.61 1.42 8.19 8.19 0 0 1-8.47-4.78c1-5.44-3.13-9.85-3.08-15.1a6 6 0 0 1 1.87-3.47c6.37-4.48 11.32-10.83 18.53-14.24 3.48-.45 5.92 1.19 7.79 3.93z"/><path fill="#17191c" d="M202.003 267.343c-.88-8.65-6.6-1.27-9.6-2.9a2.41 2.41 0 0 1-.37-2.69c1.51-1.7 3.77-2.27 5.47-3.69 3.71-2.61 4-5.07 0-7.78a46.89 46.89 0 0 1-8.93-7.16c-2.05-2.28-3.86-4.91-1.27-7.72s5.36-.93 7.82.73 4.27 4.47 7.33 5.51c-3.5-3.75-7.86-6.48-11.59-9.92-2.53-2.33-5.21-4.92-1.16-8.31 5.7-.42 8.63 4.58 13.28 6.5-4-4.92-9.46-8.06-14.42-11.76-1.7-1.26-4-1.9-5.57-.28-1.92 2 .71 3.07 1.83 4.12 2 1.88 2.26 4.26 2.53 6.72-.05 2-.07 4-2.2 5-1.62-.18-1.66-1.63-2.17-2.71a15.001 15.001 0 0 1-.33 3.26c-.24 1.43 1 2.41 1.14 3.72-2.91 6.43-8.74 9.12-14.78 11.57-2.92.54-5.83.92-8.58-.71-1.35-1.55-.34-2.66.69-3.78a10.79 10.79 0 0 1 5-1.37c9-2.11 13.3-6 11.5-19.83-1.7-2.66-4-4.89-5.42-7.75-.61-1.61-1.82-2.92-2.39-4.53-1-2.8.13-3.61 2.81-2.7.78.43 1.69 1.37 2.31 1.21 8.79-2.26 16.78 2.12 25.14 2.8 9.63.78 19.28.79 28.53 4 3.25 1.12 7 2.58 6.42 6.67-1.05 7.91 3.91 9.83 9.86 11.24a12.49 12.49 0 0 1 2.38 1.13c-4.86-.78-11.48 3.54-13.6-5.29-.48-2-2.13 1.34-3.56 1.37-3.94-9.82-9.72-12.62-23-11.11-1 1.83.67 2.9 1.36 4.14 6.26 11.21 3.57 22.25-.79 33.11-1.37 3.27-1.08 7.81-5.67 9.19z"/><path fill="#a3a1a1" d="M105.723 91.613c2.56-1.25 5.21-2.35 4.24-6.14-.26-1-.16-2.65.48-3.22 6.26-5.6 2.66-9.29-2.51-12.2-15-8.44-14.13-23.72-16.57-37.6-.41-2.32 1.2-3.81 2.75-5.1q12.39-10.36 24.88-20.6c2.12-1.75 4.72-2.25 6.9-.73 13.73 9.56 29 17.92 31.36 37.07-5.39 2.17-6.39-4.7-10.54-5.11-5.4-8.22-12.16-14.81-21.36-18.81-3.53-1.53-6.22-1.51-9.3.83-4.48 3.4-8.61 7.22-13.07 10.64-1.45 1.11-2.9 2.57-2.69 4.46 1 9-.25 18.76 8 25.5 2.41 3.84 7.62 4.48 9.85 8.55 1.33 7.83-3.86 13.92-5.67 20.92-.88 3.43-4.14 2.51-6.75 1.54z"/><path fill="#9d9a9a" d="M147.743 38.003c4.85-1.45 5.12 5.66 9.51 5.08 5.28 15.1 17 24.73 28.71 34.61 7 5.9 13.91 12.28 18.47 20.17 3.82 6.61 3.83 14.55 1.61 22.08-1.6 5.42-7.67 3.85-11 6.64-2.86 1.44-5.39 3.44-8.26 4.9-3.48-.07-4.36-2.49-3.5-5 1.46-4.28.76-8.86 2.31-13.05.92-.52 1.85-.39 2.19.59 1.39 4 4.19 3.92 7.58 3.08 4-1 4.38-4.12 4.58-7.3s-.51-6.52-3-8.68c-9.59-8.44-19.44-16.59-27.83-26.29-.86-1-2.29-1.39-3.5-2-12.21-6.18-16.43-17.49-19-29.79a5.17 5.17 0 0 1 1.13-5.04z"/><path fill="#816231" d="M134.413 129.393a4 4 0 0 0 1.21.17c1.78 4.54-2 4.7-4.55 5.39-3.74 1-7.53-.1-11.3-.45-5.07-.47-10.36-1.53-14.34 3.13-10.71-.92-20.62 2-30.33 6.19a20 20 0 0 0-9.6 8 214.25 214.25 0 0 0-14 27.53c-1.9 4.4-.48 6.29 4.19 6.29 6.95 0 13.89-.08 20.84 0 2.83.05 5.91-.56 8.2 1.94-1 3.61-4.16 2.88-6.67 3-7.18.47-14.36-.18-21.53-.56 5.53.39 11.24-.08 16 3.6a5.28 5.28 0 0 1 .78 4.89c-3.13 1.66-.53 7.1-5.14 7.8-.65-11.94-.65-12-12.92-12.9-5.35-.38-10.72-.36-16.08-.49-3.85-.09-5.51-1.46-3.29-5.32 8.58-14.93 15.84-30.61 25.58-44.87a9.17 9.17 0 0 1 3.26-3.22c7.67-3.57 15.33-7.22 23.72-8.89 2.28 1 4.74 1.89 7.05.63 11.35-6.14 23.07-4.66 34.88-2z"/><path fill="#312818" d="M118.293 403.573a389.558 389.558 0 0 0-10.4 54.33c-.35 2.82-1.24 3.54-3.44 3.57-3 0-6.66 1-6.71-4 2-19.63 8.37-38.28 13-57.31.41-1.67 0-3.65 1.59-5 2.4-1.87 1.42-6.53 5.67-6.88 2.49 1.75 2.4 4.09 1.06 6.35-1.67 2.96-1.4 5.9-.77 8.94z"/><path fill="#c4bfc1" d="M359.703 350.643c-.59 2.06-2.34 1.82-3.85 1.83-22.17.06-44.3 2.3-66.53.29-11.95-1.08-24.05-.41-36.08-.53a1.52 1.52 0 0 1-.08-1.63c1.61-3.61-2.75-3.57-3.55-5.72-4.73-5.67-10.29-10.63-14.3-16.92 2.3-3.26 4.67-6.46 7-9.72 4.26.37 4.88 4.58 7.26 6.93 3.6 3.55 6.83 7.44 10.09 11.3 3.38 3.59 6.45 7.51 11 9.81 5.56 2 11.32 2.44 17.14 2.7 21 .92 41.94-.56 62.91 0 3.05.11 6.3-.59 8.99 1.66z"/><path fill="#282720" d="M64.233 352.233c2.28 2 4.44 4.3 7.91 4 .87 2.59-1.33 2.23-2.61 2.66-4.91 1.65-5.53 3.26-2.79 7.54 4.7 7.35 5.46 7.51 13.4 3 1.71-1 3.5-2.45 5.54-1 1.89 1.3 1.69 3.51 1.71 5.51a35.58 35.58 0 0 1-1.13 7.27c-.91 4.59.8 7.12 5.37 8.33 3.06.81 4.41.19 5.29-2.91s2.21-6.37 5.36-8.23c5-1.65 7.94 2.1 11.53 4.23 2.45 2.41 3 4.14-1.46 4.08a8.62 8.62 0 0 1-3.92-.48c-3.38.52-4.48 3-5.41 5.9-1.54 4.75-4.43 6.77-9.69 5-13.26-4.42-16.75-7.63-12.26-18.96a15.17 15.17 0 0 0 .5-2.77c-12.41 8.05-14.47 7.45-22.25-5.1-1.93-3.11-1.95-5.72-.32-8.66s3.12-5.86 2.77-9.36a1.57 1.57 0 0 1 2.46-.05z"/><path fill="#b0a9a1" d="M56.373 301.093c-1.2.54-2.43 1-3.61 1.63-1.53.77-2.65 1.94-1.78 3.73.74 1.52 2.15 1.2 3.47.67 1-.4 2.18-2.44 2.95 0a6.41 6.41 0 0 1-.29 3.9c-.56 1.5-1.62 1.95-2.91.36-.78-1-2-.83-3.08-.36-2.16.93-4.73 3-5.92-.83-1.07-3.45-4.95-7.16.1-10.63 4.23-2.5 8.22-9.75 7.6-14.34-.35-2.58.47-3.88 3-4.08 3.71-.29 8-3 10.4 2.4 1.16 2.62 1.14 5.72 3.24 8a2.43 2.43 0 0 0 2.74 1.21c-1.7 6.32-2.17 12.9-4.11 19.17a16.16 16.16 0 0 1-1.31 3.07c-1.11 2-2.63 4.47-5 3.37s-1.66-3.67-.36-5.81c2.82-4.63 0-8.62-2-12.45-.84-1.76-2.62-1.1-3.13.99z"/><path fill="#504222" d="M104.443 280.633a75.2 75.2 0 0 0 7.12 17.49c1.95 2.93.4 4.57-2.21 5.64-2.89 1.19-5.5 2.95-8.4 4.1a5.73 5.73 0 0 1-1.94.32c-1-.34-1.74-.87-1.33-2.11 1.24-3.67-.36-6.6-2.61-9.22-5.09-5.88-6.08-12.81-5.25-20.16.66-5.81 3.54-9.73 9.89-9.57a37.4 37.4 0 0 0 15.1-2.6c2-.8 3.92-1.49 5.09 1.08s-.11 4.3-2.44 5.32-5 2-7.48 3c-2.19 1.64-3.51-.51-5.16-1.19-2.66-1.09-5.31-1.88-7.88.18a13.07 13.07 0 0 0-1.52 12.68c1.51 3.73 4 6.68 7.46 9.85.82-3.47-.93-5.4-1.68-7.53a24.61 24.61 0 0 1-1.83-6.37c-.21-3 0-6.7 3.66-6.58 4.51.12-.62 4.07 1.41 5.67z"/><path fill="#6b6158" d="M149.223 462.733c11.07-.84 10.61-8.81 10.61-16.77a90 90 0 0 1 2.83-22.37c1.71 1.32 1.79 3.26 2 5.15.18 7.1-1.93 14-1.32 21.21.36 4.15 1.86 6.78 6.38 6.79 2.8-.37 5.43-1.41 8.45-.83 6.8 1.31 7.94.37 9.8-6.19.74-2.62.33-6.59 5.18-5.28 2.84 4.31-1.27 8.88.53 13.21 2.43 2.85 5.76 1.95 8.76 1.95 5.55 0 11.11.47 16.65-.37a8.82 8.82 0 0 1 2.22 0c5.24 1.08 10.61-.09 15.85 1 3.84 1.86 8.74-.71 12.18 2.85-4.27 1.87-8.87 1.14-13.17.9-28.98-1.64-57.97-.96-86.95-1.25z"/><path d="M68.213 206.423c2-1.37 1.34-3.49 1.39-5.35.06-2 1-2.07 2.45-1.36 2.91 2 1.31 5.57 2.86 8 2.38 2.39 5.48 3.62 8.31 5.31 1.68 1 4.62 1.15 3.68 4.41-2.52 2-5.13.67-7.71.24-.94-.13-1.87-.36-2.78-.57-2.49-.44-3.56.74-2.77 3 1.55 4.43 1.3 9.39 4.06 13.43 3.06 2.87 7.39 2.49 10.88 4.24 3.92 2.22 7.88 4.4 9.71 8.9-.64 1.37-1.94 1.64-3.23 1.91a24.9 24.9 0 0 0-14.54-6.21c-5.84-.45-8.94-3.88-10.41-8.87-1.89-6.41-3.05-13-4.86-19.49-.98-3.48 1.32-5.31 2.96-7.59z" class="cls-17"/><path fill="#3d3c3a" d="M359.703 350.643c-11 .14-22 .5-32.94.38-16.77-.19-33.59 1.58-50.32-1.09-3.06-.49-6.1-.72-8.44-3.05a3.21 3.21 0 0 1 4.027-2.096q.134.042.263.096c5.29 1.9 10.89.84 16.24 1.92 20.51-.22 41 1.26 61.53.67 4.43-.13 7.22-2 5.94-6.54-1.37-4.89 1.18-9.62-.2-14.37-1.71-10.6-3.92-21-9.17-30.57-1.72-3.12-1.79-3.08-4.29-1.87-3.12-.49-5-2.17-5.34-5.43 1.53-.39 3.62.9 4.48-1.05.25-.57-1.19-1.88-1.85-2.85 5.67-.89 7.65 3.54 9 7.3 6.09 17.29 10.56 35 12.14 53.35.11 1.73-.7 3.48-1.07 5.2z"/><path fill="#403219" d="M116.823 340.053c-1.87.72-3.69 1.61-5.61 2.14-8.89 2.47-10.89 1.76-15.37-6.59-1.44-2.69-4.82-4.3-4.49-7.95 4.3 3.68 7.21 9.81 14.49 8.2 4-4.72 2.23-9.23-.86-13.35-2.13-2.83-2-4.42 1.11-6.3a65.859 65.859 0 0 0 9.11-6.86c1.48-.88 1.85-3.37 4.23-3l2.79 5.59c.78 2 2.32 3.87 1.85 6.28a4 4 0 0 1-2.39 1c-8.07 1.83-8.14 2-5.5 9.29a2.4 2.4 0 0 1-.3 1.92 4.69 4.69 0 0 0-2.81 4.75c1.77-1 .28-5.11 4-4.29 2.34 3.12 1.66 6.16-.25 9.17z"/><path fill="#0b1835" d="M144.873 461.373c-.26-.32-.47-.88-.78-.94-13-2.43-14.89-5.64-11.11-19.27.52 4.19-.8 8.55 1 12.62.59 1.32 1 3.38 3.1 2.7 1.23-.39 2.71-1.75 2.25-3-1.95-5.26 2.56-5 5.07-6.09.37-1.71-.52-2.42-1.38-3.14-3.18-2.68-2.24-6.36-1.39-9.34s4.11-.28 5.71-1c8.08-3.4 5.29 1.3 4.83 5.52-.87 8-4.6 15.19-5.61 23.08-1 .3-1.4-.34-1.69-1.14z"/><path fill="#573909" d="M62.743 99.653c-.76 1.33-2.65 2.29.93 3.09 15.5 3.44 29.2 12.59 45.47 14.25-3 2.3-6.38 2.21-9.29 1.54a268.67 268.67 0 0 0-45.53-6.74c-.78 0-1.52-.79-2.27-1.21 3-3.06 7.21-.92 10.94-2.34-2.85-1.8-5.85-2.21-8.8-2.79-1.73-.34-3.87-.73-3.84-2.93 0-2.68 2.43-1.89 4.06-2 1.3-.12 2.66.25 3.89-.44z"/><path fill="#a1978a" d="M69.543 291.473c-4.72.48-3.15-3.59-3.91-5.74s-1.56-4.26-3.56-4.41c-2.6-.21-5 2.22-7.89 1.54-.72 3.37 2.66 5.42 2.7 9.09-1.66.58-6.87-1.86-4.3 4 .34.77-3.19 5.6-7.34 3.59.33-1.65 2.84-2.38 1.75-4.68-2.17-4.59 1.77-4.92 4.18-7.1 1.68-1.51-3.26-5.59-.73-9.18 1.54-2.18 2.95-2.55 4.88-.7 1.42 1.36 3.07 2.18 4.79.79 1.93-1.55 1.47-3.54.47-5.5-2.45-4.81-.6-9.13 1.66-13.34.66-1.23.48-3.57 2.77-3a3.53 3.53 0 0 1 2.17 2.32c.4 2.18-2.8.83-3 2.67 1.65 6.24-1.15 14.2 7 18 .73.33.37 1.6-.19 2.37.22 1.4-5.29 2.33-.09 4.44 2.09.75-1.69 2.88-1.36 4.84z"/><path d="M172.553 208.903c-1.71.33-3.09.81-1.21 2.73 1.22 1.24 2.32 2.53 2.12 4.44-3 .43-4.62-1.69-6.5-3.38-4.79-1.77-7-4.9-5.16-10.06 1.82-3.63 4.56-6.69 6.32-10.36 2.34-5.42 8.57-7.64 10.76-13.17 1.36-2.38 0-5.12 1-7.54 3.2-.33 4.34 6.13 8.52 2.58 2.76-1.16 1.47 2.23 2.89 2.57-5 2-11.21 3.11-8.06 11.07 1.06 2.68 2.06 5.4 1.85 8.17-3.23 1.1-5.25-7.5-8.41-1.3-2.21 4.27-11.74 7.07-4.12 14.25z" class="cls-23"/><path d="M253.373 351.013a1 1 0 0 0-.13 1.22c-2.85 18.85-1.89 37.88-2.67 56.83v2.68c0 13.73 0 13.73 12.18 17.33l-.8.84a9.88 9.88 0 0 1-4.48 1.12c-13.72.23-15.86-2.37-12.26-15.69 1.17-4.34 2.22-8.6 2-13.1v-6c0-10-.43-19.94-.1-29.89a82.252 82.252 0 0 1 1.49-11.08c-1.45 2.59-2.93 5.07-4.2 7.67-1 2-1.89 4.35-5 2.93-.67-6.78 2.67-12.35 5.42-18.11a10.49 10.49 0 0 1 2.41-1.91c4.67-1.3 6.03 1.19 6.14 5.16z" class="cls-24"/><path fill="#8f826d" d="M116.663 310.283a44.401 44.401 0 0 1-4.08 3.4c-5 3.26-10.47 5.83-4.31 13.22a5.68 5.68 0 0 1-2.42 9c2.63-5.54.67-10.13-2.77-14.58-2.29-3-4.14-6.27-6.41-9.26-1.91-2.51-1.67-4.37 1-5.94l1.66 1.64c1.15 1.53 1.38 3.57 3.84 6.08-2.32-2.58-2.65-4.57-3.84-6.08 3-2.3 5.89-4.81 9.69-5.55 2.53-.5 2.27-2.34 2.52-4 2 .38 4.41.18 5.13 2.9-1.08 2.98 2.67 6.06-.01 9.17z"/><path fill="#905d11" d="M105.723 91.613c3.53.64 6 .67 5.8-4.41-.18-5.4 5.58-9.3 4.84-15.19a27.27 27.27 0 0 1 .19-4.67c-1.33-2.74.72-4.43 1.95-6.39a11.15 11.15 0 0 1 2.33-2.18c2.79-2 5.79-3.08 8.43-.12 2.5 2.8 4 6.06 1 9.61l-2.19-3.93c-1.89 6.1 1.29 12.35-1.7 18-3.42-3.65-.49-8.87-3.44-13.19-1.55 2.19-.57 4.36-.55 6.34 0 2.81-.38 5.77-2.62 7.36-3.9 2.77-3.21 6.41-2.91 10.14-9.84-.49-19.33 2-28.92 3.52-2.83.46-5.67 1.13-8.54.27 8.47-3.35 17.68-2.78 26.33-5.16z"/><path d="M135.703 329.223c1.9-11.34.91-22.85 2.14-34.24 1-9 .83-9 9.7-12.26.15-2.87-2.21-4.21-3.72-6.07.5-3.36 2.34-4.85 5.77-4.11.71.54-.14-.22.56.34 8.82 7.07 8.83 7.83.23 15.07-4.45 2.81-5.71 7.15-5.82 12.06-.15 6.67 0 13.35-.11 20-.06 2.83.41 5.86-2 8.13-3.54-.86-2.5-3.78-2.54-6-.13-7.23 0-14.47 0-20.73-.26 8.27.57 17.5-.67 26.72-.3 2.2-.38 4.54-3 5.43-1.75-1.3-1.5-2.79-.54-4.34z" class="cls-27"/><path fill="#432d14" d="M166.913 245.433l-5.59.3c-4.77 2.56-9.87 1.85-14.94 1.55-2.74-1.11-4.72-.88-5 2.68-.17 2.22-.34 4.47-1.69 6.4-7.08 1-14.09 3.63-21.55 1.54.57-3.08 2.85-2.92 4.62-3.5a10.83 10.83 0 0 1 2-.58c3.61-1 8.63.38 9.21-5.6.7-4.19 1.06-8.43 1.75-12.59.45-2.7.17-6.78 5.06-6.16a6.58 6.58 0 0 1 2.36 1.93c2.42 3.29 3 7.77 6.58 10.3 3.55 1.47 7.26.36 10.88.69 2.41.34 5.4-.46 6.31 3.04z"/><path fill="#9d9489" d="M56.373 301.093c-3.34-2.9 1.09-3.58 1.84-4.46 1.41-1.67 2.89.32 3.08 1.83.68 5.45 4.88 10.84.44 16.49-.38.49.08 1.65.21 3.12a16.66 16.66 0 0 0 6.81-14.9c-.51-4.74.73-7.5 3.53-10.44 5.27 2.52 2.84 7.73 3.67 11.63.72 3.35-2.31 1.12-3.79 1.47-2.25.53-2.48 3.4-2.81 5.53-.64 4.16-1.67 7.86-6.41 9.15-1.61.44-3.22 2.75-4.73 1.19s-1.3-4.33.21-6.19c3.21-4 3.36-8 1.15-12.44a3.3 3.3 0 0 0-3.2-1.98z"/><path fill="#514121" d="M130.403 129.423c-9.36.86-19-3.5-28.15 1.33-2.12 1.11-4.51 1.72-6.65 2.82-3.57 1.84-5.89 1-7.13-2.83l8.59-3.8c-10.36-5.79-21.6-4-31.8-6.69 11.76-.23 23.4 0 34.64 4.41 2.94 1.16 6.58.72 9.9.7 7.16-.03 14.07.98 20.6 4.06z"/><path fill="#86693d" d="M95.513 271.393c5.65-4 10-.57 14.47 2.5-2.13 2-5.33 3.15-5.55 6.74-2-1.23-.07-3.31-1.17-5.11-3.22 1.5-2.82 4.32-2.21 6.7.76 3 2.22 5.8 3.36 8.69.85 2.17 3 4.67 0 6.45-2.63 1.53-4.19-1.27-5.18-2.91-1.71-2.82-4.77-4.77-5.38-8.28a13.87 13.87 0 0 0 1.66-14.78z"/><path d="M124.973 255.033c-1.14 2.16-3.75.61-5.41 2.16 7 2 13.48-1.35 20.15-.83-14.1 6.35-33.23 3-44.63-7.74a3.2 3.2 0 0 1 2.93-1.76 2.84 2.84 0 0 1 3.14-.57c7.57 3.95 15.98 5.56 23.82 8.74z" class="cls-32"/><path d="M146.393 247.283c4.69-3.28 10-1.07 14.94-1.55l-1.26 2.54c-3.48 2-8.92 2.85-5 9a9.65 9.65 0 0 0-1.19 5.83 63.209 63.209 0 0 0-3.78 9l-.63.65c-2.45.49-3.94 2.33-5.62 3.92-2.69-1-1.79-3.28-.76-4.25 7.98-7.56 5.27-16.37 3.3-25.14z" class="cls-33"/><path fill="#a67a23" d="M58.293 100.033c-1.75 2.29-4.84.17-7.23 2.53 4.79 1.37 9.28 2.64 13.76 3.95 1.5.44 3.3.94 2.71 3-.46 1.61-2.2 1.19-3.45 1.19-4 0-8-.09-12-.14-5.08-1-10.58-.31-14.94-4 4.54-3.46 8.95.86 12.79-.06-4.64-2.08-4.67-2.12-3.47-6.28a42.15 42.15 0 0 1 11.83-.19z"/><path fill="#c4941e" d="M46.433 100.263c-.5 7.07 5.55 3.74 8.76 5.47-.77 2.54-2.16 3.28-4.9 2.73-4.35-.87-8.79-1.26-13.19-1.86-4.95-3.19-10.13.54-15.14-.54 8.04-2.45 15.56-7.07 24.47-5.8z"/><path fill="#806b5a" d="M266.643 192.883c-2 2.94-4.91 3.64-8.26 3.13-2.89-.43-5.39-2.51-3.8-4.86 3.06-4.5-1.69-12.65 5.76-14.07 3.5-.67 7 3.23 7.87 7.65a2.54 2.54 0 0 1-2.47.84c-1.79.47-3.13-4.23-5.18-.43-.21 4.36 4.51 4.79 6.08 7.74z"/><path fill="#28241d" d="M88.593 323.843c-2.49-1.62-5-3.3-8.19-2.71-4.46-.44-6.4 3.5-9.3 5.6-3.42 2.48-6.52 5.43-10 7.85-2.11.6-4.58 2.35-5.24-1.65 5.73-6.66 13.26-11 20.74-15.11 6.06-3.35 9.7.56 11.99 6.02z"/><path d="M249.333 463.083c-4.11-1.35-8.57.67-12.61-1.33 5.41-3.12 11.88-2.3 17.63-4.85 2.48-1.09 4.09-.83 4.44-4.06.22-2 .66-4.45 2.44-6.08a1.43 1.43 0 0 1 1.7.16c0 1.32.13 2.66 0 4-.86 12.93-.86 12.93-13.6 12.16z" class="cls-24"/><path fill="#4b3018" d="M247.603 152.583c-.37 4 4.53 7.89.14 11.91-.75 3-2.24 4-4.91 1.85-1.51-1.21-2.91-2.54-4.44-3.74-3.23-2.23-4.36-5.12-2.73-8.85 2.23-.8 2.3 1.75 3.65 2.3 1.71.54 3-.52 4.4-1.14 1.49-.44 1.77-2.94 3.89-2.33z"/><path fill="#8e8277" d="M267.963 139.043c-2.58-2.36-2.16-5.51.2-6.77 3.32-1.79 5.95-5.94 10.52-4.61 3.5 1 4.68 3.75 4.16 7.27-2.35 1.69-5.22 2.29-7.62 1.12-3.93-1.88-5.56.27-7.26 2.99z"/><path fill="#493319" d="M267.963 139.043c.25-4-.76-9.24 6.32-4.55 2 1.36 5.66.36 8.55.44-1.43 2.52-1.39 6.14-5.16 6.92-2.33 1-3.19-1.89-5.14-2-1.53 1.66 2.67 5.1-1.79 5.84-3.5-1.12-2.29-4.24-2.78-6.65z"/><path fill="#b0a79d" d="M71.023 282.103c-6.49-4.33-8.61-10.62-8-18.08a7 7 0 0 1 1.13-2.25c.14 3 2.58 4.48 4.36 6.37s3.77 3.41 1.46 6.13c-1.69 2-1.73 3.13 1.18 4.15 1.8.62 1.36 2.49-.13 3.68z"/><path fill="#32280b" d="M64.233 352.233h-2.49l-5.7-9.32c-1.09-4.64.67-6.56 5.39-5.68-.04 5.19 6.57 9.13 2.8 15z"/><path fill="#50341b" d="M266.643 192.883c-3.76.07-5.65-3-8-5.05-1.81-1.6-.46-2.6 1.36-3 1.58-1.58 3.3-1.16 5.06-.37l3.17.3c1.63 3.11 2.01 6-1.59 8.12z"/><path d="M235.663 153.763c-.07 3.43.67 6.44 4.14 8-1.2 2.52.93 3.28 2.3 4.55 1.1 1 3.59 1 2.92 3.5-3.79 2.45-6.27.6-9.31-2s-3.49-4.84-2-8c.94-1.87.08-4.39 1.95-6.05z" class="cls-44"/><path fill="#5c4f37" d="M108.423 386.173a32.727 32.727 0 0 0 4.36-.34c3.7-.78-.4-1.64 0-2.48 3.1-1.88 4.07-6.68 8.75-6.41 1.68 4.7-.33 8.33-3.36 11.67-2.35 1.84-2.72 5.41-5.78 6.63.55-3.87 2.99-8.52-3.97-9.07z"/><path fill="#a89e98" d="M270.743 145.733c1.39-1.13 1-2.22 0-3.4-1.34-1.66-2.47-3.61-.09-5.1s3.35.92 4.57 2.41a20.94 20.94 0 0 0 2.44 2.22c-1.25 3.17-2.28 6.75-6.92 3.87z"/><path fill="#5a4d34" d="M61.433 337.253c-3.22.54-4.91 2.53-5.4 5.68-4.18-3.25-5.61-6.55-.19-10 1.71 2.91 3.71.26 5.57.3a1.88 1.88 0 0 1 1.64 1.6z"/><path fill="#aea7a3" d="M245.013 169.873a71.422 71.422 0 0 1-7-4.62c-3.77-3.16-.12-2.93 1.74-3.44 3.06-.34 3.56 6.91 7.94 2.69.63 2.54.18 4.57-2.68 5.37z"/><path d="M247.603 152.583c-1.33 1-.53 3.32-2.54 3.81-3.19-3.75-4.87-.63-6.77 1.49l-2.63-4.14c3.32-5.2 8.02-5.66 11.94-1.16z" class="cls-44"/><path d="M123.663 318.433l-1.44-6.47c3.85 4.25 5.41 9.76 8.07 14.67a3.48 3.48 0 0 1 .43 3.85c-5.87-1.95-5.74-7.42-7.06-12.05z" class="cls-49"/><path fill="#b2a68f" d="M130.383 330.643l-.08-4c1.66 1.16 2.71 3.58 5.4 2.6l-.08 4.06c.42 2.23.39 5.73-1.86 5.29-3.57-.71-4.39-4.35-3.38-7.95z"/><path fill="#d8d7d7" d="M188.073 131.063c-1.54-7.47 4.49-3.21 6.95-4.48-.49 2.06-2.84 3.26-2.6 5.65l-3.94-.14q-.57-.17-.56-.58t.15-.45z"/><path fill="#63533b" d="M191.253 176.723l-2.88-2.55c0-1.67-.86-4.44 1.06-4.6 3.06-.27 5.64 1.67 7 4.71-2.52-.84-6.36-4.54-5.18 2.44z"/><path d="M116.663 310.283c.43-2.31-.53-4.31-1.52-6.25s-.67-2.89 1.55-3c1.39 1.54 2.84 3.05 2.75 5.35-1.64.79-.75 3.37-2.78 3.9z" class="cls-49"/><path fill="#bbb8b4" d="M17.073 106.633c-.51 5.38 5.47 2.17 6.79 5.13a12.46 12.46 0 0 1-7.6-.85c-1.23-.54-3.49-.42-2.91-2.6.47-1.6 2.09-2.04 3.72-1.68z"/><path d="M262.783 429.073c2.36 5.93 1 11.9.16 17.86l-.49-.33a20.53 20.53 0 0 1-.12-17.09z" class="cls-24"/><path fill="#b9b1a4" d="M53.073 260.513c.95 3.53-.67 5-3.05 7-.95-3.79.63-5.23 3.05-7z"/><path fill="#cac6c7" d="M166.803 71.443c1 .5 2.28.76 3 1.54 8.84 10.15 19.17 18.68 29.25 27.51 3.55 3.11 4.07 13.29 1.17 16.5-2.68 3-7.09 2.63-10.6 2.68-4.15.06-1.53-4.28-2.54-6.44-1.15-1.17-2.7-1.72-4-2.62-5.8-5.08-13.47-6.24-20.11-9.57a56.9 56.9 0 0 1-15.31-9.9 6.9 6.9 0 0 0-1.43-5.61 4.48 4.48 0 0 1-.37-1.82c.38-2 1.75-2.54 3.54-2.56 1.43-.24 4 1.55 4.07 0 .23-6.69 4-5.1 8.18-4.5 3.36.52 3.11-3.71 5.15-5.21z"/><path fill="#c8941e" d="M116.863 92.963c-3.08-3.47-5.38-6.58.54-9.9 3.37-1.89 4.19-5.67 3.1-9.42-.59-2-.88-3.83.23-5.74.67-1.15 1.18-2.66 2.69-2.57 1.81.1 1.36 1.92 1.77 3.09 1.6 4.54.73 9.27 1.19 13.89-2.83 4.83-2.79 7.56 3.19 11.08 7.64 4.49 16.69 6 23.46 12 3.63 5.13 9.59 4.4 14.69 5.82 4.68 5.23 4.23 8-1.89 11.56-2.13-1.19-.1-3.89-1.88-5.26-1.73 1 .22 4.56-2.91 4.41-2.21-.11-3.43-1.85-4.44-3.63-1.3-2.29-2.12-4.93-4.57-6.4-4.82-.65-8.3-2.78-11.84-6.6-6.12-6.62-15.12-8.93-23.33-12.33z"/><path d="M130.293 68.263a13.13 13.13 0 0 0 .2-2.64c-1-7.75-2.87-8.77-9.71-5.24-11.06-.57-16.17-5.94-14.94-15.71.19-1.54.18-3.39 1.84-4.06 1.83-.74 2.72.93 3.73 2.09a29.93 29.93 0 0 0 13.5 8.91c5.15 1.71 8.61 4.48 8.61 10.47 0 7.9 5.48 14.12 6.94 21.6a3.06 3.06 0 0 1-.6 1.87c-7.79-3.22-6.94-11.22-9.57-17.29z" class="cls-57"/><path fill="#825609" d="M152.073 111.853c5.22.75 4.93 7.13 9.12 9 2.19-1.85-3-4.65.74-6a5.93 5.93 0 0 1 4.48.48c3.08 1.87-1.07 4.14-.12 6.83 3.92-3.2 4.24-6.38 1.62-10q.66-1.18 1.65-.26c2.74.43 4.33 2.6 3.35 4.67-1.43 3-2.8 7.06-7.09 7.24-5.27.22-10.37-.29-11.62-7.1-.35-1.67-1.44-3.23-2.13-4.86z"/><path fill="#463c35" d="M147.993 90.293a67 67 0 0 1 14.9 10.76c-10.68-.7-18.81-5.21-23-15.5a1.3 1.3 0 0 0-.09-.82c2.09-.71 3.25.92 4.68 1.85 1.27 1.12 2.98 1.85 3.51 3.71z"/><path fill="#625a53" d="M183.003 110.623c2.24-.51 3.81 0 4 2.62-2.59 4.41-.67 9.6-2.54 14.25-1 2.47 1.45 3.3 3.6 3.58a1.41 1.41 0 0 1 .41 1c-4-1-8.89 2.5-12-2.49 6.65-3.79 9.2-11.2 6.53-18.96z"/><path fill="#674106" d="M169.523 111.923l-1.65.26c-3.48-.86-7.28.5-10.56-1.41-2.08-1.21-4.59-2.24-4.28-5.41 5.28 2.74 12.17 1.42 16.49 6.56z"/><path fill="#826b41" d="M258.653 337.073c-6.25-5.44-10.88-12.32-16.42-18.39-4.33-1.78-6.53-6.35-10.79-8.22a2.37 2.37 0 0 1-.07-1.79c3.34-3.86 6.42-8 11.77-9.41 5.19-2.71 10.53-4.84 16.55-4.4 5.85-.29 11.52-1.64 17.43-2.85-5-1.26-11.44 1.43-13.92-5.59a2.8 2.8 0 0 1 1-1.64c3.78-5.83 7.46-11.72 11.38-17.46 2.19-3.21 4.9-5.55 7.18 0 1.08 2.6 3.16 2 5.07 2.23 5.43.77 10.86 1.59 17 2.49-3.09 4.54-8.47 3.3-11.7 7.18h12.28c-2.53 5-8.18 3.18-11.15 6.82 5.75 2.08 11.43 1.65 16.83 1 6.81-.8 11 1.49 13.47 7.72a50.75 50.75 0 0 1 3.86 16.24c-3.64-.56-4.8-3.88-7.48-4.94-3.52-1.87-5.14-.59-4.85 3.16.6 7.82-2 15.4-1.51 23.24.17 2.56.84 6.9-4.51 5.74a78.15 78.15 0 0 1-12.4-22.12c-1.87-5-1-5.94 4.57-5.67-1.61-4.48-11.54-8.07-15.3-5.51-2.6 1.77-1.74 4.32-1.45 6.73s1 5.15-1.36 6.86c-2.71 2-5-.13-7.37-1.34-4.26-2.19-8.6-8-12.48-6-3.21 1.65-.51 8.74-1.57 13.31-1.08 4.27 1.36 9.71-4.06 12.61z"/><path fill="#8a6e3f" d="M202.003 267.343c4.09-8.46 7.37-17.32 8.3-26.61a22.9 22.9 0 0 0-6.08-18.39c-.74-.78-1.92-1.38-1.41-2.72s1.81-1 2.87-1.14c7.51-.75 14.71 1 21.64 3.48 5 1.83 1.87 6.65 2.71 10-1.84 5.92-3.7 11.82-6.85 17.23a8.49 8.49 0 0 0-.86 7.08 22.4 22.4 0 0 1 5.27 9.19c1.18 10.59 1.19 10.61-8.92 13.91-2.89.95-5.52 3-8.83 2.21-2.92-1.64-.84-2.92.45-4 2.28-1.86 5.16-2.71 7.71-4.12 1.4-.77 2.88-1.71 2.28-3.62s-2.3-2.2-3.88-1.89c-4.69.93-10.13-.1-13.3 5a1.83 1.83 0 0 1-2.83.72z"/><path fill="#030404" d="M259.943 296.743c-6.41-1.09-11.43 3.43-17.35 4.31-6.44 3.1-9.38-1.39-12.41-5.7-.77-3-1.76-5.58-5.59-3.13-3.66-.95-6.83-3.31-10.68-3.7a4.78 4.78 0 0 1-2.2-1.83c-1.46-2.75-.09-4.07 2.41-4.92s5.24-.48 7.9-.4c7.07.21 10.37-2.81 11.12-9.9a6.64 6.64 0 0 1 .87-3.16c4.6-1.21 9.21-1 13.66-4.47 3.22-2.48 2 3.77 3.68 5.5.09.09.43 0 .63-.08a2.54 2.54 0 0 0 .56-.37c.23-.13.46-.25.68-.36 5.19-.26 4 3.55 3.92 6.4-.15 4.33-4.85 11.84 6 7.82a24.403 24.403 0 0 1 1.06 2.21 2.65 2.65 0 0 1-.12 1.13 2.4 2.4 0 0 0-.72 2.38c.5 2.36-4.43 4.1-.75 6.92.22.19-1.9.59-2.67 1.35z"/><path fill="#332c25" d="M309.923 337.383c4.87.73 4.07-3.06 3.92-5.52-.5-7.91 1.4-15.64 1.36-23.5 0-1.7-.42-3.87 2-4.46 1.83-.45 2.85.91 3.69 2.32-2.58 0-4.55.81-4.15 3.85.32 2.42-1.5 5.9 2.27 6.86 3.54.9 3.22 3.08 2.73 6.09-4.73-3.64-6.52-2.16-6.42 3.29.06 3.77.3 7.53-.57 11.36-.71 3.15 1.24 5.11 4.77 4.36 6-1.28 11.93-.33 17.89.58 5 .76 9.48.3 10.85-6a6.64 6.64 0 0 1 4.18-5c2.3-.88 3.79-2.37 3.37-5.08 2.1 5.91 2 12.16 2.62 18.28.36 3.49-1.92 4.75-5.1 4.62-15-.62-30 .92-45-.84-4.1-.48-8.7-1-13.09.47-2.17.72-4.88 1.22-6.93-.95-.71-3.73-5.36-3.06-7.39-7.38 10.02-.76 19.35-3.02 29-3.35z"/><path fill="#826941" d="M231.633 245.573c1.8-5.45 5-6.4 10.38-4.32 16.13 6.23 16.2 6 11.82 23.31a39.488 39.488 0 0 0-.6 4l-.1-.06c-.73.79-.32 2.46-1.64 2.66-1.68.25-1.45-1.25-1.58-2.27-.31-2.37.64-4.94-1.15-7.11-5.69 7.79-14.26 8.08-20.93.72-2.43-2.68-2.06-5.8-1.05-8.87s3.11-5.46 4.85-8.06z"/><path fill="#7f663f" d="M258.643 273.343c.56-4.57 1-8.54 1.55-12.5s2.32-6.67 7-6a15.998 15.998 0 0 0 2.67 0c2.89-.09 6.69-3.12 8.42.42 1.5 3.08-2.6 5.26-4.35 7.64a159.572 159.572 0 0 1-10.47 12.11c-1 1.1-2 2.94-3.68 2.41-2.42-.81-.71-3.16-1.14-4.08z"/><path fill="#7c673e" d="M336.993 288.723a13.22 13.22 0 0 1 5.34 5.43c-.47 3.55 2.57 6.18 2.54 9.61 0 1.56.25 3.33-1.44 4.17-1.38.69-2.63-.32-3.64-1.1-5.5-4.25-8.6-10.22-11.44-16.35-1-2.15.17-3 2.07-2.91a62.133 62.133 0 0 1 6.57 1.15z"/><path fill="#2b2824" d="M231.633 245.573a35.268 35.268 0 0 1-1.21 3.77c-4.72 10.61-3.47 13.68 7.65 17.47 3.59 1.23 6.68.11 8.1-3.72.75-2 .65-4.48 4.42-6.16 0 4-.11 7.6 0 11.15.16 3.92 1.62.51 2.5.38.2 2.09.25 4.43-2.3 4.8-1.76.26-1.57-1.76-1.61-3a37.33 37.33 0 0 0-.46-6.2c-3.57 6.48-8.77 6.3-14.43 4.47-3.91 1.19-5.89-1.76-8.26-3.86a17.56 17.56 0 0 1-3.73-8.33c4.29-2.61 4.21-8.94 9.33-10.77z"/><path fill="#828062" d="M124.973 255.033c-10.07.84-18.09-5.06-27-8.17l-9.47-8.05c1.53-2.25 1.2-6.23 5.07-6.3 4.15-.08 6.3 2.81 7.81 6.31a13.62 13.62 0 0 0 9.34 8c2.14.59 4.4 1.3 6-1.26-1.14-1.7-2.44-.07-3.64-.21-3.93-.46-4.46-2.4-2.56-5.49a31.08 31.08 0 0 1 2.22-2.51c2.57-3.34 4.67-6.63-1.47-8.53a2.32 2.32 0 0 1-1.6-3.16c2.82-1 1.2-3.94 2.46-5.62 1.42-1.54 3-2.88 4.53-4.37 4.14.44 3.06 4.24 4.2 6.6.39.8.45 1.47.05.66.76-.36.31-1.14.58-1.71a58.71 58.71 0 0 0-3.71-28.4 32.519 32.519 0 0 1-1.56-4.43c-.41-1.77-.85-3.66.84-5s3.43-.25 4.87.82a17.3 17.3 0 0 1 5.5 5.8c-2 4.68 1.06 6.95 4.57 8.3 4.16 1.6 4.7-2.22 5.44-4.78 1.51-5.25 4.49 1.44 6.23-.92 2.4 2.82.13 5-1.13 7.18-2.13 3.62-2.75 7.42-2.51 12.17 3.32-1.14 6.79-4.22 9.16.58 5.13 6.14 9.08 5.85 15.81-1.14 3.7 4.95 7.41 9.89 13.9 11.47 2.95 10.71-.46 20-12 22.51-2-1.73-4.63-.58-6.86-1.3-1.56-2.5-3.83-4.31-6-6.26-1.85-1.69-3.69-3.85-2.49-6.4 1.4-3 4.16-1.62 6.5-1.05 1 .24 1.85 1 3.32.81-3.05-3.86-9.2-3.53-11-8.94-.37-1.1-3.74 1.13-6.17.86-3.81-.43-1.54 2.92-1.91 4.59-.24 1.09-.23 2.2-1.16 3-2.77-1.66-2.92.52-3.18 2.26-.81 5.49-1.53 11-2.29 16.49-2.23 4.44-7.16 3.65-10.71 5.53z"/><path fill="#46320e" d="M104.773 137.503c-.33-3.68 1.42-5.37 5-5.3a93.55 93.55 0 0 1 13.9.9c4.16.7 9.45 2.58 11.9-3.54 13.09 0 18.48 6.94 14 19.13-1.48 4-1.52 9-5.71 11.84-1.53-1-1.4-3.3-3.48-4.39-2.14 1.05 1.15 4.51-1.94 5.2-2.1.47-3.95-.24-5.88-.71-.6-.15-1.18-.35-1.76-.55-3.06-.86-6-1.78-7.19-5.31-.91-2.61-3.69-3.16-5.9-4.08-4.93-2.06-8.94-5-11.06-10.09a5.37 5.37 0 0 1-1.88-3.1z"/><path fill="#c8b290" d="M127.453 190.053c-4.48 0-5.24-6-10.75-6 4.34 12.69 9.74 25 5.69 38.49-3.55-4.62-3.42-10.5-5.34-15.67-1.24-8.84-5.65-16.54-8.86-24.68 2.52-6.68 1.08-12.79-2.67-18.57-.73-1.13-1.56-2.21-2.2-3.39-1.34-2.48-4.17-5.64-1-7.7 3.49-2.26 5.47 1.19 6.84 4.17.9 1-2.75 1.13-.32 2.78 3.68 2.51 6.49 6 9.06 9.71a20.431 20.431 0 0 0 2.58 2.72c.36.29.9 1.09 1.28.21.2-.47-.4-1.13-.72-1.68-1.3-4.1-6.54-5.29-7.24-9.81a7.75 7.75 0 0 1 3.15-3.36c1.64-.59 3.06 0 4.44.79 3 3.61 6.74 1.57 10.24 1.29 2.71 2.28 7.14.31 9.36 3.79-.3 1-1.18 2.53-.79 3 3 3.67 1.32 4.91-2.43 5.51a3.17 3.17 0 0 0-2.73 3.32c1.03 6.86-3.97 10.61-7.59 15.08z"/><path fill="#9f9979" d="M147.923 213.173c-1.18-1.91-2.33-3.62-4.4-.74-1 1.4-2.22 3.7-4.08 2.6-1.64-1-1.47-3.39-1.35-5.52a21.37 21.37 0 0 1 4.25-12.48c.88-1.13.93-2.91 1.35-4.39l1.35-4a4.06 4.06 0 0 1 1.28 1.47c1.18 1.75-.52 5.87 3.43 5.19 3.41-.59 2.84-4 3-6.6 3.61-4.48 3.62.72 5.6 1.68 1.45-1.39 2.15-4.36 5.12-4.82l.65-.08c7.88-1 7.88-1 5 6.35a1.06 1.06 0 0 0 .4 1.15c-1.34 3.82-4.08 6.65-6.67 9.59-1.31 1.56-.78 3.43-.75 5.16.14 8.32-4.53 11.13-12.14 7.21a10.13 10.13 0 0 1-2.04-1.77z"/><path fill="#c9b796" d="M153.293 188.833c2.94 3.64 1.21 6.12-2.07 8.16-3.59 2.23-6 2-6-3 0-1.79-.12-3.58-.18-5.36.37-5.39 3.8-9.11 7-12.93 3.7-3.18 6.93-7.12 12.24-7.78 2.46 2 6.78.67 8.2 4.55-4.24 3-10.46 2.37-13.46 7.54-1.1 3.44-6.7 3.98-5.73 8.82z"/><path fill="#d5c8ad" d="M172.203 172.733c-2-2.77-6.9 0-8.1-4.24a14.15 14.15 0 0 1 13.33.69l2.42 2.38c1 2.56 2.3 5.1.58 7.86-2.13 3.32-5 2.09-7.88 1.38-5.57-2.44-2.94-5.26-.35-8.07z"/><path d="M140.993 163.103c-2.76-2.16-7.09-.44-9.36-3.79l6.75.88c1.65-2.14-4.3-3.61-.8-5.66a5.93 5.93 0 0 1 4.49-.42c3.19 1.18 1.32 4.22 1.84 6.42z" class="cls-76"/><path d="M177.433 169.173c-4.37-1.57-8.88-.47-13.33-.69-5.23.34-7.47 5.7-12 7.18 6.97-10.23 17.25-12.87 25.33-6.49z" class="cls-23"/><path fill="#826645" d="M162.893 429.413l-.22-5.82a182.271 182.271 0 0 1 9-39c3.71-10.4 4.14-21.84 7.26-32.59s6.23-21.54 8.22-32.52c1.72-9.49 5.48-18 9.23-26.71 2.77 2.87 1.08 5.93.11 8.75-2.75 8-5.35 16.1-6.23 24.59-.17 1.66-1.43 3.82.46 4.91 1.69 1 3.45-.54 4.83-1.54 5.21-3.81 11.21-6.5 15.73-11.28 1.36-1.44 2.86-2.88 5.14-2.75 2.62 3.44-.57 5.18-2.24 7.2-6.06 7.36-12.69 14.25-18.22 22.05-2.5 2.84-3.86 6.38-5.89 9.52-1.4 3-.9 6.19-.4 9.28 1.57 9.75 3.6 19.4 6 29 2.73 10.77 2.25 22 .35 32.73-1.11 6.25-.18 13-3.61 18.85-2.91 1.22-2.46 3.82-2.76 6.26-.88 7.26-4.68 9.9-11.42 7.34-3.12-1.19-5.11.26-7.53 1.16a7.2 7.2 0 0 1-1.72-5c.14-15.42-1-30.87.91-45.83-1.76 4.53-2.16 9.82-3.34 14.94-.48 2.44-.19 5.61-3.66 6.46z"/><path fill="#b39b76" d="M216.793 315.833a122 122 0 0 1-19.16 14.45 47.23 47.23 0 0 1-6 3c-3.53 1.51-4.57 1-3.85-3.39 1.6-9.77 3.52-19.39 7-28.68 1-2.67 2.29-5.44 1.55-8.5 1.56-6.29.83-13 3.87-19 3.18-6.48 9.4-6.84 15.4-7.69 3.12-.44 6.13-.07 7.27 3.18 1.29 3.68-1.61 4.91-4.44 6.12-3.43 1.46-7.1 2.56-9.84 5.31a23.18 23.18 0 0 0 3.85 5.94l1.52.85c11.7 3.11 12.49 5.07 8.14 20.14-1.43 2.95-.54 7.47-5.31 8.27z"/><path d="M144.913 372.303c.43-8.24 4.69-15.79 4.35-24.16-2.15-3.54-.05-6.86.69-10.17 1.11-4.94 2.32-9.86 3.51-14.79 2.72-7.12 1.86-14.56 2.07-21.91.08-3-.81-6.39 2.27-8.65 4.11 1.88 2.24 5.69 2.77 8.71.59 3.31-1.37 7.23 2.35 9.78a16.52 16.52 0 0 0 5.2 4c2.11.88 4.18 2 3.42 4.85-.65 2.4-2.82 2.47-4.84 2.61-1.07.08-2.22-.27-3.4.85 2.58 4.49 9.58 2.06 11.62 7.2l-.1 4.15c-4.64 3.61-10.11-1.55-14.78 1.33a1 1 0 0 0 .38 1.29c2.1 1.47 6.41 1.16 6.14 4.29-.33 3.81-4.49 2.62-7.12 2.94-3.17.38-4.27 3-6.09 4.85-2.58 1.47-2.58 1.47 1.33 4.05-.2 4.27 3.12 3.44 5.55 3.74 3.29.41 6.78.29 8 4.42a21.24 21.24 0 0 1-1.73 10.49c-2.1 5.36-1.46 11.07-2.57 16.55-1.06 5.22-2.77 10.22-4.2 15.25-1.21 4.26-5.79 1.71-8.83 2.13-1.79.25-4.21.9-5.31-1.57-.7-1.57 0-3 .76-4.45 1.25-2.27 3.16-2.17 5.21-1.45s4.52 1.57 4.74-1.31c.16-2.11-2.65-2.13-4.33-1.85-5.38.88-6.76-3.42-6-6.42 1-4-1.83-8.28 1.44-12.15 1.52-1.79-.52-3.64-2.5-4.6z" class="cls-79"/><path fill="#162a55" d="M174.933 330.643c-3.77-1.23-7.56-2.41-11.31-3.73-2.29-.8-4-2.35-3.33-5 .8-3.15 3-1.44 4.83-1.13s4.47 1.34 5.21-1.15c.88-3-2.42-2.65-4-3.24-2.37-.89-3.92-1.94-3.61-4.69.92-4.32.92-4.32 7.86-3.5-2.79-1.76-9.47 1.5-8.37-4.69s7-3.61 10.89-3.47c-.86-.45-2.2-.37-3.48-.63-3.16-.65-5.63-2.18-5.18-5.85.42-3.37 3.09-3.6 5.66-3 2.74.64 3.51-1.27 4.63-2.92 1.9-2.14 4.12-3.51 6.95-2s3 4.14 3 6.85a37.531 37.531 0 0 1-1.75 9.68c-.41 10.13-4.67 19.17-8 28.47z"/><path fill="#1e3153" d="M169.453 248.173c4.89-3.11 10-5.9 13.61-10.7-.19-1.54-.06-3 1.37-4 1.76-1.53 1.09-3.65 1.32-5.54 1.5-1.18-.62-6 4.06-4-2.5 3.58.26 5.59 2.6 7.08 3.78 2.42 6.55 6.19 10.89 7.84 2.38.91 2.93 2.68 1.48 4.84-2.09 3.11-3.35.34-4.66-.81-2.2-1.92-4.09-4.23-6.41-6-1.62-1.22-3.72-3.35-5.79-.66-1.59 2.06-.28 3.91 1.33 5.27 3.24 2.75 6.59 5.38 10 8 1.5 1.16 4.34 1.32 3.73 4s-1.45 5.37-5 5.4c-5-2.52-6.89-8.7-13-10.8 1.24 5.66 5.82 8.85 7.5 13.59q0 1.33-.05 2.66c-5.38 2.67-8.57.59-11-4.49-1.45-3-1.88-7.24-6.49-7.71-1.69-1.51-4.06-2.1-5.49-3.97z"/><path fill="#1d2e56" d="M182.973 302.173c-2.17-2.73-.12-5.44 0-8.17.07-2.52 1-5.5-1.74-7.26s-4.26 1.33-6.39 2.08c-3.73 2.42-7.15 1.95-8.53-2.33s3.4-4.22 6-5.78c-2.48-2.59-7-3.91-4.22-8.56 4.89-1.48 9.78-2.92 15-2.27 1.26.4 2.64 1.36 3.77 1.12 8.3-1.72 8.22 3.68 6.85 8.72-2.27 8.05-4.22 16.4-10.74 22.45z"/><path fill="#152753" d="M153.363 349.493c-.82-10.74 8.19-4.81 12.36-7.33-1-3.36-4.19-1.43-6.14-2.45-1.53-.8-3.63-1.16-3.23-3.57.35-2.15 2-2.59 4-2.84 5-.65 9.62 1.75 14.53 1.49-1.27 5.7-.47 13.22-5 16.43s-10.71-2.62-16.52-1.73z"/><path fill="#384964" d="M169.453 248.173c2.69.17 5.94-.4 5.42 4.06-1.72 5.12 3.09 8 4.15 12.21 1 1.45.55 2.49-.88 3.28-5.82-.07-6.05-6.12-9.43-8.8-2.08-1.93-4-1.63-5.49.63-1.12 1.7-2.07 3.43-4.52 3.13a5.83 5.83 0 0 1-4.13-4.94c-1.4-1.94-4.58-2.63-3-6.44 1.9-4.73 5.71-2.09 8.54-3z"/><path d="M148.953 419.913c-1.62-1.35-5.84 2.06-5.61-3 .19-4.16 1.63-7.45 6.95-6.73 3.39.46 7.18.27 7 5.15-.22 5.84-4.88 3.93-8.34 4.58z" class="cls-79"/><path fill="#1f2a3c" d="M158.743 261.753c1.93-.12 2-1.66 2.84-3 2-3.34 4.73-5.29 8.06-1.17-.38 2.09-6.36 1.81-2.45 5.69 2.84 2.82 4.49 8.83 10.34 4.09 1.24-.6 1.43-1.72 1.49-2.92l4 5.44c-4.57 2.73-9.59 3-14.72 2.72-3.05-3.74-9.08-4.85-9.56-10.85z"/><path fill="#0e1d3e" d="M168.193 361.713c-3.22-3.23-7.33-2.79-11.35-2.75-1.88 0-3.69-.28-4.44-2.29s.44-2.87 2.28-3.13c3.23.46 6.45 1.26 9.68 1.31 5.6.09 6.58 2.32 3.83 6.86z"/><path d="M130.383 330.643c1.42 2.19 1.06 5.17 3.16 7.1 1.89-1 .74-3.3 2.09-4.45 4.1-8.41 2.48-17.46 3-26.28.18-3-1-6.3 2.47-9.4 0 8.24-.07 15.78 0 23.31 0 2.38-.81 5 1.32 7 3.1 3.2 4.09 6.72 1.63 10.76-3 21.51-6.88 42.86-11.46 64.08-1.52 7.41-3.52 14.75-5.64 23.41-2-10.35 1.56-19.35.46-28.92l-9.12 6.28c-3.7-2-3.24-4.86-1.51-7.76 1.37-2.31 2.62-4.48 1.38-7.22 0-4.24 3.5-7.64 2.85-12-2.3-3.67 1.86-7.41-.12-11.09 5.27-5 7.09-11.56 7-18.34a15.39 15.39 0 0 0-4.3-9.73c-2.19-2.17-4.37 1.86-6.77 2.64-.43-3.15 1.29-6.59-1.25-9.46-.13-.64-.22-1.3-.4-1.93-.82-2.78-6.69-4.63-3.79-7.1s7.27-5.94 12.29-3.13z" class="cls-87"/><path fill="#ae9574" d="M144.073 338.703l-1.63-10.76c.09-9.84.12-19.68.28-29.52.09-5.63 1.39-10.61 7.68-12.48 7.57-2 8.27-.86 6.82 6.82-1.78 9.43-.79 19.13-1.88 28.67a6.3 6.3 0 0 1-.61 2.57c-.86 8.27-3.37 16.16-5.48 24.14-2.8.27-4-1-4-3.81.04-1.92.48-4.02-1.18-5.63z"/><path fill="#bca87c" d="M102.243 379.453c-1.21 2.38-2.78 4.66-3.54 7.18-1.17 3.87-1.95 6.71-7.35 4.74-4.9-1.78-8.59-3-7.08-9.51.93-4 3.76-9.71.72-12s-6.54 3.11-9.89 5.07a5 5 0 0 1-2.35 1c-1.63-.06-10.71-12.07-10-13.44 1.24-2.29.19-7.93 6-4.8 1.2.64 2.62-.06 3.35-1.45l1.6-1.19c3-2.12 5.68-4.77 9.69-5.34 2.42-.34 3.91-.29 4 2.52a6.34 6.34 0 0 1-2.78 1.76c-2 .86-3.58 2.11-2.71 4.57s2.86 3.78 5.24 3c3.49-1.08 5.84 0 8.32 2.39 3.17 3 7.93-.47 11.34 2.31a12.32 12.32 0 0 1 1 3.18c2.1 8.05 2.12 8.04-5.56 10.01z"/><path fill="#836747" d="M102.243 379.453c4.3-1.75 7.36-3.86 3.79-9.09-.72-1 0-3.07 0-4.64-1-1.51-.65-2.5 1.09-3 2.44 1.83 1.72 4.33 1.46 6.55 1.61-3 3.61-5.64 7.6-5.8 1.4.22 2.31 1.24 3.38 2a1.84 1.84 0 0 0 1.29 0c6.46 3.63-.54 7.4.12 11.09-1.76 3.45-3.91 6.44-8.24 6.77-3.76-.5-5.99-5.27-10.49-3.88z"/><path d="M119.603 365.503a2.35 2.35 0 0 1-2.8-.93c-3.81-2.76-4.82 2.54-7.63 2.67-2.17-1.18.2-4.55-2.62-5.4-2.21-.45-4-1.73-5.85-2.89-2.93-2-8.37-.86-8.21-6.64 5-.93 9.61 1.66 14.52 1.33.43 0 1.22 0 1.27.19 1.79 5.86 8.61 6.76 11.32 11.67z" class="cls-87"/><path fill="#775832" d="M63.073 334.843l-1.64-1.6a93.139 93.139 0 0 1 14.64-12.35c1.08-.76 3.15-3.84 4.31.25-5.97 4.3-10.59 10.34-17.31 13.7z"/><path fill="#4a412d" d="M92.493 352.293c1.38 4.76 6.9 2.66 9.35 5.65-7.27 2.37-11.06.83-14.44-5.85-1.68-3.29-4.07-1.5-6.12-.7-2.59 1-5 2.4-7.55 3.62 6.34-8.14 7.64-8.33 18.76-2.72z"/><path fill="#32425e" d="M189.823 224.003c-3-.32-2.3 3.08-4.06 4 0-2.38-.67-4.27-3-5.57-1.89-1.07-4.52-2.65-3.22-5.09s5.35-3.27 7-2.1c7.12 5.12 16.53 8.14 19.48 19.29-5.95-4.03-10.43-8.36-16.2-10.53z"/><path d="M192.463 261.783c-5.16-2.58-6.18-8.53-9.95-12.27-1.15-1.14-.36-2.52.89-3.34 1.59-1 3-.43 4.19.76 3.7 3.8 8.15 7 10.34 12.06-1.03 2.49-3.11 2.91-5.47 2.79z" class="cls-4"/><path fill="#999881" d="M178.913 222.923c-.13 1 .35 2.84-.89 2.75-3.41-.23-12.2-10.2-12.41-13.6.78-.9 1.61-1.07 2.5-.14l5.35 4.14z"/><path d="M184.443 233.533c0 1.48.08 3-1.37 4-5.65-3.65.37-7.28 0-11 1.92 2.07 1 4.64 1.37 7z" class="cls-33"/><path fill="#fbfbfb" d="M143.833 87.643l-4.07-2.92c-3.25-8-8.16-15.44-8.1-24.66 0-5.59-5-6.11-9-7.35-1.11-.35-3 1.2-3.62-.36-1.15-2.71-1.85-4.66-5.78-3.78-1 .22-3.15-4.67-4.92-7.44-2.49 12-.09 15.62 11 17.18.53.07.9 1.34 1.34 2l-1.54 1.49c-3.9 5.05-7.83 2.91-11.76 0-6.4-4.43-8.23-11-7.95-18.22.15-3.95-3.43-8.28-.16-11.62 6.12-6.23 12.6-12.45 20.47-16.2 3.6-1.72 7.73 2.55 11.32 4.47 7.4 3.95 13.43 9.55 16.58 17.67 1.84 13.72 5.55 26.37 19.06 33.44-.53 7.66-1.52 8.39-8.43 6-1.07-.36-2.12-.88-3 .09s-.51 2.05 0 3.06 1.87 1.93 1.26 3.57c-3 1.2-4.94-1.23-7.32-2-1.06-.82-2.23-1.52-3.27-.16-.77 1-.11 2 .59 2.84.38 2.34-.36 3.43-2.7 2.9z"/><path d="M107.483 61.913c3.93 1.26 7.85 3.12 11.76 0l-2.69 5.47c-4.69.92-6.37-3.14-9.07-5.47z" class="cls-57"/><path fill="#dfcbad" d="M108.663 158.003c-.93-1.24-1.78-2.54-2.8-3.69-.72-.82-1.75-1.9-2.85-1.18-1.42.94-.79 2.32 0 3.52 3.1 4.87 7.29 9.2 8 15.3.41 3.65 2.09 7.66-2.32 10.25-5.1-.95-6.53-6.33-10.51-8.64-1.3-1.54-2.71-3-4-4.51-3.08-3.46-6.15-4.59-9.26-.35 5.4-2.63 8.81-.33 10.89 4.94.83 2.09 2 4 2.76 6.16.85 3.05 2 6.64-1.41 8.39-4 2-8.54 2.31-12.62-.59-10.29 0-20.59.17-30.88 0-6.13-.09-7.17-1.78-4.59-7.46 4.35-9.57 9.07-18.95 14-28.24 3.79-7.12 10.18-9.84 17-12.07 8-2.63 16.07-6.67 24.81-2.36l2.3 1.61c.6 3.27-3.35 2-4.05 4.1 1.1 2.37 3.49 3.67 5.15 5.62 2.48 3.44 6.79 5.18 8.66 9.19-.05 1.84-1.23 2.49-2.85 2.67-2.51.37-4.83.51-5.43-2.66z"/><path d="M84.453 187.603c1.33-.12 2.65-.3 4-.33 9.5-.24 9.5-.23 8.11-9.13-1.29-5.09-1.1-5.47 2.62-5.33 4 2.26 6.19 6.39 9.49 9.39a44.37 44.37 0 0 1 9.58 24.19c1 2.91 1.27 5.21-3.07 3.88-3.32-2.37-3.31-6.5-5-9.72s-3.34-5.65-7.27-5.54c-7-.25-14.07.07-21.1-.2-2.47-.07-5 0-7.43.08a4.38 4.38 0 0 1-2-.62c-7.6-2.37-15.5-2.87-24.69-2.93 3-3.24 5.5-2.23 7.68-2.42 9.65-.81 19.48 1.48 29.08-1.32z" class="cls-17"/><path d="M72.333 194.283q.57-.15 1.15-.25l.88.77a19.75 19.75 0 0 1 .05 13.67l-.87.79c-2.35-2.89-.73-6.41-1.5-9.55q.16-2.72.29-5.43z" class="cls-97"/><path fill="#0c0d0e" d="M309.923 337.383a53.47 53.47 0 0 1-27.65 3.74c2.61 2.84 10.71.11 6 7-5.77-.7-11.91 1.49-17.35-2.26-.52-.36-2 .63-3 1l-9.34-9.64c3.38-7.62 2-15.75 2.47-23.67.14-2.17-.67-4.91 1.68-6.11 2.09-1.06 3.59 1.28 5.22 2.25 3.84 2.28 7.52 4.84 11.28 7.27 1.29.83 2.8 2.19 4.17.82.74-.74.71-2.51.61-3.78-1-12.36-1-12.36 11.65-10.74 8.6 1.1 9.22 1.93 8.26 11.84l-6-4.9c1.54 10.97 8.76 18.2 12 27.18z"/><path fill="#f4f3f4" d="M231.943 310.463c5.71 0 7.35 5 10.3 8.4 0 4.6-2.88 7.13-6.55 9.08-5.69-1.56-11.46-3-12-10.51a12 12 0 0 1 8.25-6.97z"/><path fill="#9a8764" d="M224.863 317.293c.41 6.79 7.6 6.71 10.82 10.65 5.77 4.61 10.31 10.38 15 16-.75 1.16-2.47 1.47-2.71 3.09l-1.58 1c-4.22-8.66-12.09-13.48-19.6-18.71-2.84-2-5.26-1.77-7.8.6-1.73 1.61-3.49 3.73-6.4 2.23 2-6.68 6.67-11.15 12.27-14.86z"/><path fill="#6c5f4e" d="M248.003 347.013c-.17-2 .87-2.87 2.71-3.09l6.9 6.3c-1.22 1.38-2.81.66-4.23.79-1.83-1.29-1.37-5.65-5.38-4z"/><path fill="#a79068" d="M95.513 271.393c8 2.75.67 8.34 2.18 12.45.83 2.25-1.35 3.49-3.87 2.32-1.75-5.18-1.48-10.14 1.69-14.77z"/><path d="M249.073 402.363c1.66 6.9-1.92 13.12-3 19.59-1.16 6.65 1.25 7.48 6.43 7.3 2-.07 4 .12 6.06.19 6.14 8.65 2.18 23.72-7 28.13-10 4.82-20.42 3.33-30.82 2.74l-.52.09-.52-.09c-4.09.6-7.89-.76-11.62-2s-5.77-4-6.5-7.89c-2.46-13.11-1.94-26.35-1.19-39.52.48-8.49 6.23-12.21 14.19-10.59a8.06 8.06 0 0 1 2.78 1.62c1.53 1.54 2.74 3.67 4.9 4.25 3.58 1 8.54 7.06 9.93-2.31.2-1.37 2.15-2.07 3.67-2.5 4.28.98 8.66 1.8 13.21.99z" class="cls-103"/><path d="M215.503 402.173c-8.63-2.12-13.55 1.62-13.52 10.75 0 12.25-.63 24.51 1.16 36.74.64 4.36 2.92 6.87 6.49 7.37s6.61 2.44 10 3.33c-8.83 2.38-17.83.91-26.75 1.09-1.32 0-1.61-1.33-1.7-2.5 1.61-4 1.81-8.18 2.1-12.42 1.07-15.51 4-30.86 3.75-46.48 0-3-1.16-5.62-2.12-8.33-1.13-3.2-1.66-6.18 2.46-7.67 4.73 1.12 6.68 6.33 11.27 7.67a14.06 14.06 0 0 1 3.44 3.29c1.06 2.36 4.06 3.87 3.42 7.16z" class="cls-104"/><path fill="#393535" d="M198.923 384.913c-4 .22-4.65 3.19-3.24 5.64 5.63 9.78 2.2 20.14 1.63 30-.6 10.55-2.33 21.17-3.46 31.76-.27 2.53-.68 4.85-2.68 6.6l1.29-14.84c-1.2-11.08 2.74-21.66 3.14-32.68.49-13.64-4.73-25.9-6.51-38.9-.64-4.65-1.42-9.28-2-13.94-.31-2.53-.1-5 2.67-6.33a13.49 13.49 0 0 1 5.09 4.64c2.24 8.73 5.06 17.33 5.37 26.46a2.68 2.68 0 0 1-1.3 1.59z"/><path fill="#b79878" d="M162.893 429.413c3.35-9.41 2.71-19.92 8.66-28.81-1.27 19.42-.33 38.82-.8 58.23-8.32-.07-9-1-9.44-9-.36-6.91 1.65-13.57 1.58-20.42z"/><path d="M220.673 460.313c8.76-1 17.64 1.25 26.38-2.57 10.48-4.57 15.08-12.18 12.5-23.77-.34-1.52-.72-3-1.08-4.54l3.87.07q.06 8.55.11 17.09c-2.39 4.36-1.7 9.43-3.19 15-2.74-4.23-5.62-4.65-9-1.8-4 3.37-9 .93-13.5 1.91-5.38-.47-10.89.72-16.09-1.39z" class="cls-104"/><path fill="#a2a081" d="M109.963 225.573a9 9 0 0 0 1.48 2.08c1.54 1.21 4.83-2.57 5.26 1.55.32 3.15 1.47 6.84-2.41 9a1.58 1.58 0 0 0-.51.44c-1.09 1.51-4.28 2.82-2.66 4.66 2.41 2.73 4.07-.73 6.33-2.44.77 2.34 3 4.33 1.33 6.59s-4.47 2.43-7.34 1.54c-4.86-1.51-9.07-3.61-11.36-8.56-3.59-7.77-4.13-7.81-9-1.93-.4.49-1.71.23-2.59.32-4.23-.93-8.74-.93-12.37-3.81 1.87-3.93-.35-7.78-.23-11.67.08-2.57-1.08-5.24.6-7.69l2.55.31c2.18 3.74 5.23 3.39 8.54 1.81a27 27 0 0 1 6.52 1.09 11.23 11.23 0 0 1 1.89.71c1.64.8 3.64 1.69 3.24 3.77s-2.68 2-4.43 2.24c-3.4.41-7.13-.38-10.51 3 6.19 1.32 11.78-.1 17.26.69 2.2.32 2.35-1.54 2.31-3.22-.05-2.15.08-4.18 3-4.16a3.81 3.81 0 0 1 3.1 3.68z"/><path d="M73.493 194.033c2.07-1.85 4.58-.87 6.91-1.08a124.18 124.18 0 0 1 14.67 8.67c9 5.8 9 10.74 0 15.69a7.37 7.37 0 0 1-7 .53l-.86-.59-13.64-8 .35-.4c2-4.79 1.4-9.56-.06-14.33z" class="cls-97"/><path fill="#d3c39f" d="M76.533 215.653c.82 5.2 1.69 10.39 2.44 15.59.3 2.06-.71 3.38-2.81 3.76-1.68-5.41-3.74-10.75-4.94-16.27-1.1-5.09 1.72-5.15 5.31-3.08z"/><path d="M87.403 218.503a10.08 10.08 0 0 0-1.15.58c-6.15 4.15-6.15 4.16-7.17-3.13l8.12 1.3-.06-.06q.64.33.55.8t-.29.51z" class="cls-97"/><path fill="#72502f" d="M115.573 330.593c-.31 3.55.88 7.86-4.76 8.71 2.8-2.29-3.39-9.12 4.75-8.7z"/><path fill="#c3b290" d="M172.223 179.423c2.74-.54 5.48 2.2 8.22 0-2.08 5.76-8.24 8.23-10.9 13.53-3.43-2.65 1.09-4.53.74-7.05-2.17.21-4.31 3.31-6.35.06a2.59 2.59 0 0 1-.34-2.64c1.86-3.52 6.12-1.77 8.63-3.9z"/><path fill="#605838" d="M168.073 211.933l-2.5.14c-2 3.68-3.75 7.45-9.1 6.55-3.68-.62-7.77-.38-8.59-5.43.87.19 1.75.36 2.62.59 9.4 2.44 10.43 1.73 10.92-7.68.07-1.36 0-2.72 1.4-3.55-2.68 5.62 3.52 6.26 5.25 9.38z"/><path fill="#e2cbac" d="M213.073 332.173a3.73 3.73 0 0 0 1.25-.36c9.31-7.09 9.36-7.17 19 .12 3.69 2.81 7 6.07 10.61 9a7.18 7.18 0 0 1 2.52 7.13l-6.61 17.67a2.67 2.67 0 0 1-.93 2.71c-8 4.52-12.4 3.86-16.72-3.06-1.68-2.69-3.19-2.8-5.27-1-4.85 4.14-8.87 3.23-12.28-1.85a6.6 6.6 0 0 0-4.85-3.2 7.88 7.88 0 0 1-5.91-3.89c-.09-4.81 4.09-7.61 5.5-11.72 4.43-4.02 7.61-9.55 13.69-11.55z"/><path d="M249.073 364.443v32.21c-3.63 0-3.12-3-3.79-5.12-1.19-3.82-2.08-7.86-6.59-9.37-3.23-2.9-4-5.83-.1-8.8 2.26-1.72 2.61-4.59 4.1-6.78 1.63-2.41 3.28-4.41 6.38-2.14z" class="cls-103"/><path fill="#181716" d="M249.073 364.443c-3.24-.38-4.76 1.15-5.69 4.23-.77 2.57-1.27 5.21-4.55 6.83-4.13 2 .08 4.18 1 6.22l-.78.71c-5.46-.14-6.39-3.25-5-7.73.9-2.8 2.76-5.11 4.31-7.57l1.33-1.4c5-4 5.87-10.36 9.37-15.73 3.59 4.96-.57 9.74.01 14.44zm-9.16 17.28c6.62.1 5.37 6.14 6.89 9.76.72 1.72.64 3.8 2.3 5.17q0 2.85-.07 5.71c-4.51 4.6-8.92 1.66-13.34-.18-1.27-.7-2.06-1.56-1-3 2.8-1.88 6.52 2.57 8.49-.59 1.45-2.33-1.94-5.18-1.44-8.17s-2.41-5.16-2.37-8.11z"/><path fill="#d0b799" d="M99.353 307.713c3.41 1.79 3.88 5.22 4.81 8.39-2.54-2.28-5.24-4.46-4.81-8.39z"/><path fill="#988267" d="M154.743 324.003a128.86 128.86 0 0 1 1.69-31.7c1.11-6.57-1.66-6.48-6-6.36 4.9-3.36 7.8-6.69.17-10.34-.68-.33-.77-1.88-1.14-2.87 2-3.13 1.32-8.47 7.1-8.36 1.47.69 2.85 1.77 3.09 3.27 1.33 8.4 2.88 16.86-1 25.07-1.86 4.94-.91 10.09-1.11 15.15-.25 5.49-.17 11.04-2.8 16.14z"/><path fill="#9e9a7d" d="M141.163 230.743a45.46 45.46 0 0 1-1.13-5.86c-.2-3.13 1.6-4.33 4.52-3a2.82 2.82 0 0 0 3.08-.53c3.93-2.86 6-1.6 6.22 2.92.08 1.46.24 2.05 1.75 1.89 5.73-.62 6.82 4.34 9.72 7.47-3.62 2.41-5.1-1.6-7.68-1.66-1.66 0-3.71-2.25-4.86-.27s.68 3.77 2.2 5.13 3.51 2.76 5.17 4.25c1 .94.32 2.05-.1 3.07-4-.28-8.21 1.26-12-1.33.94-1.48 2.89-.85 4.31-2.1-3.43-2.83-5.9-6.64-10.2-8.31z"/><path fill="#ccbe9b" d="M142.203 232.383c7.3-1 8.32 6.51 12.79 10.09l-6.9.32c-3.24-2.74-4.2-6.78-5.89-10.41z"/><path d="M124.973 255.023c2.92-3.1 7.67-2.66 10.71-5.53-1.26 6.32-6.27 5.36-10.71 5.53z" class="cls-32"/><path d="M158.633 292.673c0-7-.1-14.09.06-21.13.07-3.2-.74-5.62-3.87-6.89-1.32.43-1.63-.25-1.53-1.38-.24-2-5.82-5.23 1.28-5.51 2.22.47 2.44 3 4.17 4 2 4.62 8.92 5 9.54 10.87-.47 3.76 1.31 5.42 5 5.44 1.84 0 3 .84 2.83 2.88-.14 1.68-1.32 2-2.72 2.4-2.18.63-6.55-1.63-6 2.82.5 3.82 4.7 2.28 7.41 2.68 1.31 5.48-2.3 4-5 3.36-1.84-.43-3.6-1.25-4.19 1.42-.48 2.21 1 3.37 2.77 4 3.54 1.15 7.55.76 11 3.5-3.26 2.51-6.24.29-9.23 0-2.72-.23-6.75-1.35-6.84 2.94-.08 3.75 3.75 1.82 5.86 2.26s4.56-.72 6.16 1.78c-2.27 1.94-4.66 1.95-7.44 1.23-2.06-.53-4.67-1-5.17 2.41-2.73 1.5-4.08.88-4-2.43.04-5.57-.06-11.15-.09-16.65z" class="cls-4"/><path d="M153.293 263.263l1.53 1.38c-1.79 2.69-2.67 6-5.4 8-.35-3.76.18-7.22 3.87-9.38z" class="cls-27"/><path fill="#aea1a0" d="M265.073 184.443l-5.06.37c-.24-1.29-2.43-3 .09-3.76s3.86 1.39 4.97 3.39z"/><path fill="#bfbab9" d="M238.293 157.893c-.06-2.64-.24-5.72 3.26-5.94 2.37-.15 3.72 1.85 3.5 4.45-2.25.51-4.15 2.61-6.76 1.49z"/><path fill="#e6e6e7" d="M143.833 87.643l2.75-2.73c.93 1.67 6.92 2 1.4 5.38a6.87 6.87 0 0 1-4.15-2.65zm2.75-2.73c-1.88-1-3.84-2.62-1.9-4.57s3.51.06 4.59 1.88a2.49 2.49 0 0 0-2.69 2.69z"/><path fill="#0f0e0e" d="M213.073 332.173l-12.42 12c-2 1.38-3.91 1.74-5.84 0 4.35-8.15 11.51-14.06 17-21.31 1.72-2.27 4.47-3.82 5-7 2.7-2.13 1.7-5.88 3.65-8.34 2.13-1.11 2.65-3.56 4.23-5.11 2-2 4-5 7.28-2.64 2.74 2 2.46 5 .94 7.89-.31.59-.75 1.11-1.12 1.67a1.21 1.21 0 0 0 .17 1.16l-7.08 6.83z"/><path fill="#202122" d="M231.763 309.303v-.67c-.38-2.82 2.81-6.89-1.26-8.2-2.83-.91-4.47 2.89-6 5.26a3.91 3.91 0 0 1-4 1.8c.19-.87.32-1.76.57-2.61 3.53-12.06 3.54-12.06-7-17.44 4.4-.77 7.59 1.69 10.83 4 2 .58 4.39.21 5.45 2.66 4.36 1.84 5.73 8.95 12.27 6.93-5.06.91-5.92 7.27-10.86 8.27z"/><path fill="#b09a74" d="M257.223 301.173c-1.78 4.86-4.64 7.47-6.68 10.62-2.65 4.08-4.67 4.76-7.66 0-4.11-6.52-4.09-6.94 3.79-8.3 3.24-.55 6.4-1.4 10.55-2.32z"/><path fill="#2d261b" d="M259.943 296.743c1.18-3.63.33-8 4.1-10.66.94 4.31 4.69 3.44 7.5 3.76 3.45.39 7 .09 10.59 1.14-6.93 4.13-14.5 5.19-22.19 5.76z"/><path fill="#b19c75" d="M279.073 302.333c-.66 2.36 1 5-1.48 5.9-1.89.73-2.94-1.55-4.28-2.61-.35-.28-.67-.59-1-.9-1.9-1.84-6.31-2.54-4.67-6.09 1.41-3.07 5.74-2.4 8.53-2.48 4.99-.12 1.16 4.65 2.9 6.18z"/><path fill="#a59066" d="M287.583 294.253c1.86.15 4.29 0 4.19 2.79-.08 2.17-2.15 2.5-4 2.49-2 0-4.36-.11-4.29-2.81.08-2.23 2.19-2.38 4.1-2.47z"/><path fill="#a38e66" d="M295.503 295.733c4.33-2 6.91-1.92 10.33-.52-3.18 2.45-5.84 1.84-10.33.52z"/><path fill="#151414" d="M212.523 286.603c-2-1.54-6.24-1.58-3.85-5.94 5.48-.14 9.75-4.48 15.4-4.28 2 .07 2-2.06 2-3.65v-8.08c3.88-1.13 5 3.7 8.26 3.86 1.44 11.38-3 15.8-14.26 14.52-2.93-.35-7.25-2.21-7.55 3.57zm17.8 7.57l-5.45-2.66c1.87-.43.66-4.45 3.69-3.32s2.17 3.65 1.76 5.98z"/><path fill="#989573" d="M93.983 216.023c1.34-2.28 4.62-1.43 5.85-5.21 2.18-6.71-5.21-4.89-5.9-8.43 2.63-2.26 5-.45 7.45.47 3.07 1.17 4.3.43 3.41-2.94-.6-2.28-2.18-4.58 0-6.88 5.28.9 6.24 5.56 8.07 9.4 1 2.17 1.76 4.49 2.63 6.74 1.35 2.06 2.69 4.11 1.46 6.73.26 3.06-1.24 4.31-4.18 4.09-4.38-3.21-8.92-5.14-14.46-2.77a3.86 3.86 0 0 1-4.33-1.2z"/><path fill="#74592f" d="M93.983 216.023c2.18-.23 4.7.17 6.48-.8 6.23-3.4 9.77-.89 12.28 4.76-1.05 1.8 2.64 6-2.78 5.59l-2.79-2.73c-4.23-1.86-9-1.14-13.27-2.79-2.23-.28-4.52-.27-6.52-1.55a7 7 0 0 1-.26-1.31c2.34-.12 4.85.83 6.86-1.17z"/><path fill="#987b46" d="M116.923 215.883a11.56 11.56 0 0 1-1.46-6.73c3.34 1.49 2.49-1.2 2.76-2.77a50.13 50.13 0 0 1 4.16 16.12c-.57 1.63 1.75 3.24-.1 5.13-3-3.46-3.21-8.06-5.36-11.75z"/><path d="M107.283 149.903l-7.65-7c1.74-3.4 5.79-1.06 7.45-3.75 3.77 7.16 11.13 9.22 17.3 13.2 2.1 1.35 3.9 5.46 7.25 7-4 .11-.37 3.82-2.61 5.12l-8.22-5.13c-3.86-4.11-7.34-8.71-13.52-9.44z" class="cls-76"/><path fill="#6a5227" d="M141.133 142.953c3 .14 5.52.7 5.1 3.64-.5 3.49-3.66 4.23-6.6 4.35-2.23.09-2.45-1.18-1.4-3.09s-2.16-6.47 2.9-4.9z"/><path fill="#8c7542" d="M134.963 142.663c-5 5.41-8.68 10-13.45 3.91-1.38-1.78-4.37-4.12-2.33-6 5.44-4.84 9.78.39 15.78 2.09z"/><path fill="#8e7649" d="M108.663 158.003l5.32 2.68c2.78 3.09 7.17 4.73 8.36 9.26-1.44 2.43-1.44 2.43-5.56.14l-8.89-9.8c-1.08-1.21-1.68-2.26.77-2.28z"/><path fill="#5f4b20" d="M107.283 149.903c2.26-3 4.74-1 6.28.39 2.83 2.58 7.1 4.22 7.23 9-1.37-.28-2.33-1.82-4-1.3a28.59 28.59 0 0 1-9.51-8.09z"/><path fill="#a89165" d="M116.783 170.083c1.84-.65 3.77 2.51 5.56-.14 1.54 1.28 1.63 3 1.62 5.26-3.75-.03-5.4-2.66-7.18-5.12z"/><path fill="#5a3f18" d="M164.173 183.523l-.25 2.44c-4.25 1.56-2.75 7.2-6.12 9.21-3.86-.75 1-7-4.52-6.34-3.22-.71-3.72-2-1-4.23 1.87-1.55 3.55-3.32 5.32-5 4.25-2.19 6.73-1.36 6.57 3.92z"/><path fill="#927549" d="M164.173 183.523c-.84-3.59-3.49-4.12-6.59-3.91 3.27-5.69 8.3-7.66 14.62-6.88 1.46 1.77-.4 2.25-1.24 3-2.35 2.21-.52 2.91 1.26 3.65 1 1.87.7 3-1.71 2.73a9.37 9.37 0 0 0-6.34 1.41z"/><path fill="#2a2723" d="M194.823 344.103h5.84c-1.05 4.23-4.2 7.22-6.41 10.76a.9.9 0 0 1-.6 1.33c-2.55-.14-3.75-1.57-3.89-4 1.41-2.86 1.82-6.36 5.06-8.09z"/><path fill="#0d1116" d="M177.533 267.373c-.48 3.94-3.65 5.29-6.88 2.69-1.52-1.23-2.47-3.14-3.73-4.71-5.12-6.38-5.12-6.37 2.72-7.77 3.43 2.59 3.97 7.59 7.89 9.79z"/><path fill="#dbc2a1" d="M87.403 352.103c3.7 4.69 8.71 6.15 14.44 5.85l5.2 2.51c1.28.69 1.11 1.56.29 2.5l-1.26 2.77c-4.94 1.65-9.94 3.42-13.56-2.34-.77-1.23-1.49-1.12-2.72-.82-6.12 1.53-10.27-.28-10.4-4.85-.17-5.45 4.14-5.43 8.01-5.62z"/><path fill="#342c1e" d="M107.343 362.953l-.29-2.5c2.72.89 1.18 3.54 2.23 5.37 2.33-1.38 4.41-5.14 7.53-1.27-4.16-.23-5.27 4.19-9.06 5.94z"/><path fill="#a38962" d="M99.163 172.813c-3.66.41-1.94 3.45-2.62 5.33-.18-.13-.43-.22-.53-.4-5.24-9.45-5.24-9.45-15.58-5.69 2.25-4 4.65-8.35 8.21-8.24 4.93.13 7.99 4.79 10.52 9z"/><path fill="#888766" d="M104.763 193.023c-.78 4.44 5.67 9 1.49 12.43-3.32 2.73-7.26-3.44-11.66-3.08h-.67c-4.48-3.19-10.61-4-13.53-9.42z"/><path fill="#cec09c" d="M73.853 194.543c3 4.77 4.79 9.54.06 14.33l-.06-14.33z"/><path fill="#1b160c" d="M234.363 399.423l1.31 2.76c-.84 1.75-4.47 1.82-2.84 5.13 2.51 5.1-.71 5.05-3.82 3.52-4.24-2.09-9.88-2.08-12.17-7.42 1.39-1.6 3.62-1.1 5.25-2.11.44-.36.87-.72 1.27-1.11 3-3.94 6.54-3.85 10.42-1.49z"/><path d="M223.363 402.043c-1.73 2.57-4.31 1.09-6.51 1.37l-1.35-1.24c-1-2.44-4-3.53-4.26-6.48 5.83-1.33 8.12 4.14 12.12 6.35z" class="cls-147"/><path fill="#866d48" d="M223.363 402.043c-5.61.83-7.19-6-12.13-6.4l-2.78-2.77c-1.84-1.91-4.24-3.11-6.18-4.86-1.18-1.07-3.17-2.13-1.16-4.18 11.81-3.31 16.8-2.15 21.48 5-1.36 4.51 3.8 8.65.79 13.27z"/><path d="M200.473 384.823c2 3.31 6.92 3.79 8 8.05-4.41-1.19-7.85-3.52-9.54-8l.51-.42c.46-.28.81-.15 1.03.37z" class="cls-147"/><path fill="#bea783" d="M200.473 384.823a6.188 6.188 0 0 0-1-.33l-5.77-28.26.6-1.33c1.68 1 2.87 3 5.2 2.7 3.47-.51 5.14 1.29 6.73 4.17 2.37 4.29 5.33 5.58 9.48 1.26s6.37-3.57 8 1.83c1.73 5.78 7.32 6.64 14.84 2.27-.73 2.27-1.07 4.8-2.29 6.77-2.76 4.47-1.14 6.86 3.21 8.4 6.42 3.9 3.27 11.53 6.45 16.84 1.13 1.89-1.54 3.32-3.91 2.65-2.55-.71-5.05-1.57-7.57-2.37l.13-.14c-4.38-2.73-9.25-4.82-12.19-9.41-5.75-8.63-14.18-5.32-21.91-5.05z"/><path fill="#82815f" d="M93.913 220.053c4.43.92 9.85-2.92 13.27 2.79-4 .61-1.15 3.06-1.1 4.59.11 3.4-.43 4.56-4.57 4-6.36-.81-12.9-.21-19.8-.21 2.13-10.73 10.89-5.61 16.41-7.78.04-2.9-3.44-1.52-4.21-3.39z"/><path d="M222.303 389.873c4.7 2.31 9.31 4.74 12.19 9.41-4-.2-8.45-2.3-11.1 2.79a15.55 15.55 0 0 0-2.62-8.69c-1.47-2.16-.86-3.16 1.53-3.51z" class="cls-147"/><path d="M123.073 141.173c1 3 5 3 5 3s3-2 0-3a6.93 6.93 0 0 0-5 0z" class="cls-3"/><path id="path6315" fill="#f36d21" d="M119.073 21.173c-1.06-.44-2.73 2.1-3.74 4.73-.88 2.31-1.24 4.72-.2 5.15 4 1.67 10 0 10.57-1.34a3.08 3.08 0 0 0-.22-1.78l-.05-.15a12.31 12.31 0 0 0-6.36-6.61z"/><path d="M20.613 537.477q.7 4.94 2.746 7.384 3.744 4.451 12.832 4.45a27.585 27.585 0 0 0 8.837-1.174q6.441-2.248 6.441-8.361a6.163 6.163 0 0 0-3.155-5.527q-3.156-1.907-10.007-3.374l-7.804-1.71q-11.505-2.544-15.807-5.527-7.287-4.988-7.286-15.599a20.718 20.718 0 0 1 7.128-16.088q7.128-6.406 20.94-6.407 11.533 0 19.677 6.04 8.143 6.04 8.54 17.53H49.22q-.402-6.502-5.816-9.242a19.934 19.934 0 0 0-8.973-1.81q-5.967 0-9.526 2.348a7.426 7.426 0 0 0-3.559 6.553 6.182 6.182 0 0 0 3.51 5.77q2.255 1.272 9.576 2.983l12.65 2.984q8.315 1.955 12.465 5.232 6.445 5.086 6.446 14.719a20.682 20.682 0 0 1-7.638 16.406q-7.636 6.529-21.574 6.528-14.234 0-22.39-6.43-8.155-6.43-8.155-17.678zm54.671-49.585h13.692v38.884l17.578-20.106h17.33l-19.104 19.857 19.845 33.2h-16.962L94.75 536.953l-5.773 6.001v16.773H75.284zm70.172 12.177h-14.132v-12.862h14.132zm-14.132 6.356h14.132v53.302h-14.132zm72.453 5.722q6.521 6.895 6.521 20.245 0 14.083-6.374 21.467a20.689 20.689 0 0 1-16.414 7.384 17.208 17.208 0 0 1-10.631-3.18 20.537 20.537 0 0 1-4.528-5.133v27.775h-13.79v-74.28h13.35v7.873a22.427 22.427 0 0 1 4.823-5.476 17.796 17.796 0 0 1 11.123-3.57 21.08 21.08 0 0 1 15.92 6.895zM193.08 522.17q-2.842-4.743-9.214-4.743-7.658 0-10.522 7.189a26.99 26.99 0 0 0-1.483 9.681q0 9.292 4.986 13.057a11.446 11.446 0 0 0 7.016 2.201 10.201 10.201 0 0 0 8.969-4.499q3.087-4.499 3.088-11.98a20.812 20.812 0 0 0-2.84-10.906zm71.872-10.023q6.521 6.895 6.521 20.245 0 14.083-6.374 21.467a20.689 20.689 0 0 1-16.414 7.384 17.206 17.206 0 0 1-10.63-3.18 20.528 20.528 0 0 1-4.53-5.133v27.775h-13.79v-74.28h13.351v7.873a22.416 22.416 0 0 1 4.823-5.476 17.797 17.797 0 0 1 11.123-3.57 21.08 21.08 0 0 1 15.92 6.895zm-10.697 10.024q-2.841-4.743-9.212-4.743-7.659 0-10.524 7.189a27.001 27.001 0 0 0-1.482 9.681q0 9.292 4.986 13.057a11.444 11.444 0 0 0 7.017 2.201 10.2 10.2 0 0 0 8.967-4.499q3.088-4.499 3.09-11.98a20.812 20.812 0 0 0-2.842-10.906zm61.781-14.666a21.686 21.686 0 0 1 9.21 7.885 26.196 26.196 0 0 1 4.247 11.02 68.074 68.074 0 0 1 .459 10.579h-38.82q.323 8.02 5.573 11.247a14.158 14.158 0 0 0 7.684 2.005 10.827 10.827 0 0 0 10.608-6.114h14.228q-.564 4.745-5.167 9.634-7.162 7.775-20.053 7.775a29.057 29.057 0 0 1-18.775-6.558q-8.134-6.558-8.134-21.34 0-13.849 7.343-21.24 7.343-7.39 19.06-7.39a30.353 30.353 0 0 1 12.537 2.497zm-20.85 12.04a14.482 14.482 0 0 0-3.713 8.25h24.01q-.38-5.55-3.712-8.423a12.216 12.216 0 0 0-8.266-2.874q-5.365 0-8.319 3.046zm71.423-14.367c.179.017.578.042 1.198.073v14.28q-1.321-.147-2.348-.196-1.026-.048-1.662-.049-8.412 0-11.296 5.477-1.613 3.08-1.614 9.486v25.478h-14.034v-53.302h13.3v9.291q3.228-5.329 5.624-7.286a15.313 15.313 0 0 1 10.172-3.276c.26 0 .48.008.66.024z"/></svg>