<svg xmlns="http://www.w3.org/2000/svg" role="img" viewBox="-17.83 -17.83 927.16 574.16"><title>Skooner logo</title><defs><style>.cls-1{fill:#551a8b}</style></defs><g id="Layer_2" data-name="Layer 2"><g id="Layer_1-2" data-name="Layer 1"><path d="M445.77 0C311.3 0 202.29 109 202.29 243.48a243.16 243.16 0 0 0 13.14 79.08h156.4l-1.9-3c-9.64-15.15-24.62-50.6-25.54-53.82a1.33 1.33 0 0 1-.05-.21v-5.67a2.07 2.07 0 0 1 2.07-2.06h90.79v-21.15h-97.95a170.34 170.34 0 0 0 19.51-39.1c.09-.25.18-.5.26-.75.16-.46.31-.93.46-1.39s.4-1.18.59-1.77c0-.14.08-.29.13-.43.28-.9.57-1.8.84-2.71q2-6.63 3.43-13.48h72.73v-21.17h-45.12a1.39 1.39 0 0 1-.5-.09c0-.06.05-.12.08-.17h-.08a152.39 152.39 0 0 0 13.49-63.14v-2.47h.1v-.05h32.03V24.79L515.8 49l-61.45 19.43v21.45h32.07v.05h.1v2.47A152.39 152.39 0 0 0 500 155.55h-.08s.05.11.08.17a1.4 1.4 0 0 1-.51.09h-45.14V177h72.73q1.45 6.86 3.43 13.48c.27.91.55 1.81.84 2.71l.13.43c.19.59.39 1.18.59 1.77s.3.93.46 1.39c.08.25.17.5.26.75a170.34 170.34 0 0 0 19.51 39.1h-97.95v21.17h90.78a2.07 2.07 0 0 1 2.07 2.06v5.67a1.33 1.33 0 0 1-.05.21c-.92 3.22-15.9 38.67-25.54 53.82l-1.89 3h156.39a243.16 243.16 0 0 0 13.14-79.08C689.25 109 580.24 0 445.77 0zM55.64 538.77a146.29 146.29 0 0 1-19.16-1.38 174.36 174.36 0 0 1-20-3.81A108.71 108.71 0 0 1 0 528.15V492.6a118.76 118.76 0 0 0 25.05 9.23 102.48 102.48 0 0 0 24.82 3.47q12.93 0 19.86-4.39a13.73 13.73 0 0 0 6.92-12.24q0-6.69-4.84-10.27t-17.55-7.74l-7.16-2.31q-25.17-8.07-36-19.51T.23 418.48q0-23.09 16.51-36.36t45.14-13.28a119.86 119.86 0 0 1 17.66 1.39 140.54 140.54 0 0 1 17.55 3.69 64.73 64.73 0 0 1 13.27 5.08v35.56A68.09 68.09 0 0 0 97 408.32a117.51 117.51 0 0 0-16-4.38 73.85 73.85 0 0 0-14.31-1.62q-24 0-24 13.39a11.75 11.75 0 0 0 4.62 9.82Q52 429.1 64.19 433l6.69 2.08Q96.28 443 107.82 455t11.55 31.17q0 25.17-16.63 38.91t-47.1 13.69zm85.2-3.46V364h35.33q6.22 0 6.23 6.24v83.35L220 414.1h45.25l-43.41 42.71 48.26 78.5H224l-29.78-51.26-11.82 11.55v39.71zm195.33 2.77a72.75 72.75 0 0 1-33-7.39 57.23 57.23 0 0 1-23.43-21.24q-8.66-13.84-8.66-33.25 0-20.31 9-34.74a60.82 60.82 0 0 1 24.36-22.28 73.66 73.66 0 0 1 34.06-7.86 72.91 72.91 0 0 1 33 7.39A57.37 57.37 0 0 1 394.93 440q8.65 13.86 8.66 33.25 0 20.08-9 34.64a60.59 60.59 0 0 1-24.36 22.39 73.77 73.77 0 0 1-34.06 7.8zm1.83-33.25a20.54 20.54 0 0 0 16.64-7.83q6.47-7.85 6.47-21.7 0-15.46-6.81-23.09t-17.67-7.62a20.67 20.67 0 0 0-16.51 7.85q-6.57 7.86-6.58 21.71 0 15.47 6.81 23.08t17.65 7.6z" class="cls-1"/><path d="M439 538.08a72.75 72.75 0 0 1-33-7.39 57.23 57.23 0 0 1-23.43-21.24q-8.65-13.84-8.66-33.25 0-20.31 9-34.74a60.75 60.75 0 0 1 24.36-22.28 73.66 73.66 0 0 1 34.06-7.86 72.91 72.91 0 0 1 33 7.39A57.43 57.43 0 0 1 497.79 440q8.65 13.86 8.66 33.25 0 20.08-9 34.64a60.46 60.46 0 0 1-24.36 22.39 73.7 73.7 0 0 1-34.09 7.8zm1.85-33.25A20.54 20.54 0 0 0 457.5 497q6.47-7.85 6.47-21.7 0-15.46-6.82-23.09t-17.66-7.62a20.67 20.67 0 0 0-16.49 7.83q-6.57 7.86-6.58 21.71 0 15.47 6.81 23.08t17.65 7.62zM605 535.31v-69.26q0-21.48-16.86-21.48a25.59 25.59 0 0 0-15.47 5.08q-6.91 5.09-6.92 17.32v68.34h-41.54V414.1h32.09q6 0 6.24 5.77l.92 13.16a40 40 0 0 1 15.7-15.93 45 45 0 0 1 22.63-5.78q21.93 0 33.36 12.93t11.43 36.95v74.11zm59.82-59.8q0-19.62 8.54-34.05a59.27 59.27 0 0 1 22.86-22.28 64.16 64.16 0 0 1 31.4-7.86q27.48 0 42.48 15.36t15 42.83q0 5.08-.35 9.7c-.23 3.08-.5 5.69-.8 7.85h-76.42q3 10.15 11.66 14.77t22.75 4.62a91.69 91.69 0 0 0 19.74-2 93.51 93.51 0 0 0 18.12-6.12v32.09q-20.32 7.62-46.41 7.62-19.39 0-35-7a56 56 0 0 1-24.59-21q-8.98-13.97-8.98-34.53zm41.1-11.08H744q-1.15-12.24-5.42-17.78t-12.12-5.54a18.19 18.19 0 0 0-13.28 5.66q-5.65 5.66-7.26 17.66zm141.53 10.62v60.26h-41.56V414.1H838q6 0 6.23 5.77l1.16 18.7a43.63 43.63 0 0 1 14.43-18.82 35.7 35.7 0 0 1 21.59-6.81 41.88 41.88 0 0 1 10.16 1.16v36.24a78.31 78.31 0 0 0-7.85-1.15q-3-.22-6.7-.23-12.46 0-21 6t-8.57 20.09z" class="cls-1"/></g></g></svg>