<svg xmlns="http://www.w3.org/2000/svg" role="img" viewBox="-7.50 -4.00 624.00 194.00"><title>SlimToolkit logo</title><g fill="none" stroke-width="2"><path stroke="#38b9dc" d="M78.05 50.76l.24.74" vector-effect="non-scaling-stroke"/><path stroke="#258ab0" d="M78.29 51.5l-.08.25" vector-effect="non-scaling-stroke"/><path stroke="#66cae0" d="M78.21 51.75q-.61-.5-1.15-.19Q41.62 71.99 6.19 92.44q-.56.32-.69 1.27" vector-effect="non-scaling-stroke"/><path stroke="#31bfd5" d="M5.5 93.71q-.29.65-.96.54" vector-effect="non-scaling-stroke"/><path stroke="#1794c5" d="M151.71 93L81 52.29" vector-effect="non-scaling-stroke"/><path stroke="#1380b1" d="M81 52.29q-1.23-1.18-2.71-.79" vector-effect="non-scaling-stroke"/><path stroke="#45a5c8" d="M78.48 114q-.44 9.49-.18 18.98 0 .06.14.89.13.74-.48 1.38" vector-effect="non-scaling-stroke"/><path stroke="#4ec6da" d="M77.96 135.25q-.89-.25-2.52-1.19Q27.28 106.43 5.5 93.71" vector-effect="non-scaling-stroke"/><path stroke="#046599" d="M81 52.29l-1.76-.12a.57.46-88.6 0 0-.49.58L78.48 114" vector-effect="non-scaling-stroke"/><path stroke="#4291b5" d="M78.48 114l-.27-62.25" vector-effect="non-scaling-stroke"/><path stroke="#3ea2ce" d="M151.78 93.68l-73.31 42.06" vector-effect="non-scaling-stroke"/><path stroke="#109abe" d="M78 135.46l-.04-.21" vector-effect="non-scaling-stroke"/></g><path fill="#49c3db" d="M78.05 50.76l.24.74-.08.25q-.61-.5-1.15-.19Q41.62 71.99 6.19 92.44q-.56.32-.69 1.27-.29.65-.96.54L4.5 8.88q0-.9.78-.45l72.77 42.33z"/><path fill="#26afdd" d="M151.71 93L81 52.29q-1.23-1.18-2.71-.79l-.24-.74 73.02-42.25q.93-.54.93.53v82.21q0 1.26-.29 1.75z"/><circle cx="578.45" cy="31.74" r="4.42"/><path d="M466.81 57.33q2.95 1.54 7.14 1.05a.54.52-8.7 0 1 .59.42q.57 2.83 0 5.66a.65.62 3.3 0 1-.6.51q-17.22 1.18-15.99-16.12.01-.06.16-1.2.38-2.73-2.56-2.3a.52.42-5.8 0 1-.59-.39l-.11-5.24a.85.77 6.2 0 1 1.03-.75q2.36.52 2.21-1.41-.09-1.06-.09-1.13v-6.89a.97.9-89.7 0 1 .91-.97l4.9.05a.58.55-89.5 0 1 .54.58l.11 8.84a1.03 1.02.3 0 0 1.01 1.01l8.6.1a.57.54 0 0 1 .56.53l.06 5.04a.83.77-.3 0 1-.83.78h-8.84a.52.52 90 0 0-.52.52v7.49q0 2.61 2.31 3.82z"/><rect width="6.76" height="36.46" x="536.25" y="28.52" rx=".62"/><path d="M560.07 56.34a.63.61 50.1 0 0-1.03-.11q-1.83 2.35-3.3 4.25-1.25 1.6-1.1 3.7a.59.45 87.2 0 1-.43.62l-5.05.05a1.02.9 89.7 0 1-.91-1.02V29.39a.83.77-89.7 0 1 .78-.83l5.04.06a.58.52-89.5 0 1 .51.58l.11 21.25q.01 1.42.88.31l8.8-11.19a1.16.86-65.9 0 1 .8-.45l6.34.06q.57 0 .2.48l-7.42 9.38a1.3 1.22-41.4 0 0-.13 1.39l7.79 13.82a.36.36-19.9 0 1-.25.53q-3.23.56-6.46.05a1.08 1-8.7 0 1-.76-.51l-4.41-7.98zm34.98-10.03q-.06 2.4-.06 4.8-.01 3.33.79 4.65 1.76 2.93 6.98 2.35 2.23-.25 2.23 1.76l-.01 4.31a.65.6-5.1 0 1-.54.6q-10.23 1.78-14.63-6.11-1.29-2.32-1.46-6.12-.15-3.18-.27-6.37a.59.59 2.9 0 0-.51-.56l-1.88-.24a.66.55 4.7 0 1-.57-.56v-5.13a.65.56-4.6 0 1 .56-.57l1.88-.24a.62.57-3.6 0 0 .54-.56l.11-9.05a.78.75-89.6 0 1 .75-.77h5.37a.67.67 89.8 0 1 .67.67v9.17a.66.66 90 0 0 .66.66h8.04a1.13 1 0 0 1 1.13 1l-.02 4.95a.65.47-1.8 0 1-.62.48l-8.62.33a.56.54 89.5 0 0-.52.55zM489.7444 65.4258a13.79 13.33 92.6 0 1-12.6907-14.3805 13.79 13.33 92.6 0 1 13.9419-13.1711 13.79 13.33 92.6 0 1 12.6907 14.3805 13.79 13.33 92.6 0 1-13.9419 13.1711zm.7886-6.6579a7.08 6.59 88.6 0 0 6.415-7.2389 7.08 6.59 88.6 0 0-6.761-6.9169 7.08 6.59 88.6 0 0-6.415 7.2389 7.08 6.59 88.6 0 0 6.761 6.9169z"/><path d="M518.6218 65.4223a13.8 13.33 92.9 0 1-12.6147-14.4567 13.8 13.33 92.9 0 1 14.0111-13.1079 13.8 13.33 92.9 0 1 12.6147 14.4567 13.8 13.33 92.9 0 1-14.0111 13.1079zm.6959-6.6423a7.07 6.6 90.1 0 0 6.6123-7.0585 7.07 6.6 90.1 0 0-6.5877-7.0815 7.07 6.6 90.1 0 0-6.6123 7.0585 7.07 6.6 90.1 0 0 6.5877 7.0815z"/><rect width="6.76" height="26.26" x="575" y="38.75" rx=".59"/><rect width="19.5" height="98.78" x="271.75" y="43.23" fill="#263849" rx=".49"/><rect width="20.9" height="18.8" x="310.79" y="43.28" fill="#263849" rx="8.5"/><path fill="#263849" d="M220.09 126.73q4.91.66 9.72-.43 3.54-.81 5.46-3.4 1.82-2.44 1.73-5.76-.14-4.8-4.6-7.78-7.4-4.93-15.59-8.42-2.35-1-6.6-3.84-3.78-2.52-5.93-4.77-7.46-7.83-7.36-18.29.09-8.99 5.05-15.55 5.24-6.93 14.78-9.24 6.03-1.46 11.5-1.38 14.26.22 27.04 6.41a.56.53 24.4 0 1 .28.7l-5.73 13.88a.99.96 23.4 0 1-1.31.5q-10.19-4.64-20.53-5.11-4.68-.21-7.93 2.07-3.36 2.37-3.77 6.5-.51 5.06 4.26 8.62 3.35 2.49 19.63 10.37 2.54 1.23 7.56 5.45 8.61 7.24 8.67 18.68.08 15.63-13.17 22.81-5.02 2.72-11.84 3.75-17.96 2.71-34.59-4.31a1.7 1.6 12.2 0 1-1.04-1.52l.19-16.68a.34.32 13.6 0 1 .48-.28q11.27 5.36 23.64 7.02z"/><path fill="#005185" d="M81 52.29l-1.76-.12a.57.46-88.6 0 0-.49.58L78.48 114l-.27-62.25.08-.25q1.48-.39 2.71.79z"/><path fill="#83d1e4" d="M78.21 51.75l.27 62.25q-.44 9.49-.18 18.98 0 .06.14.89.13.74-.48 1.38-.89-.25-2.52-1.19Q27.28 106.43 5.5 93.71q.13-.95.69-1.27 35.43-20.45 70.87-40.88.54-.31 1.15.19z"/><path fill="#0779ac" d="M81 52.29L151.71 93l.07.68-73.31 42.06-.47-.28-.04-.21q.61-.64.48-1.38-.14-.83-.14-.89-.26-9.49.18-18.98l.27-61.25a.57.46-88.6 0 1 .49-.58l1.76.12z"/><path fill="#263849" d="M370.35 79.17q7.77-9.13 18.65-9.54 7.89-.3 13.69 2.18 5.45 2.33 8.75 7.26 1.46 2.18 2.98.04 4.01-5.66 11.04-7.87 11.58-3.63 22.29 1.01 5.17 2.24 8.19 7.56 3.27 5.77 3.28 14.69.03 23.12.03 46.82a.68.68 0 0 1-.68.68h-18.14a.68.68 0 0 1-.68-.68q0-21.57-.03-42.57 0-2.55-.49-5.04-1.49-7.67-9.23-8.46-5.73-.59-9.55 2.9-3.02 2.74-4.27 8.13Q415 101.38 415 108v33.34a.66.66-.2 0 1-.66.66h-17.99a.85.85 0 0 1-.85-.85q0-21.15.06-41.65.02-6.01-2.62-10.44-.95-1.58-2.76-2.58-1.39-.76-3.49-1.04-10.98-1.48-14.38 9.12-1.81 5.67-1.73 13.44.17 16.63.17 33.34a.66.66-.2 0 1-.66.66l-18.16-.06a.69.68 90 0 1-.68-.69V71.67a.67.66-90 0 1 .66-.67l13.54.05a.71.67-7.2 0 1 .66.48l2.06 7.09q.67 2.32 2.18.55z"/><rect width="19.5" height="71" x="311.5" y="71" fill="#263849" rx=".62"/><path fill="#18bacf" d="M5.5 93.71q21.78 12.72 69.94 40.35 1.63.94 2.52 1.19l.04.21q-.57.76-2.44 1.85Q40.41 157.85 5 177.94a.3.28-15.3 0 1-.44-.24l-.02-83.45q.67.11.96-.54z"/><path fill="#75caef" d="M151.78 93.68l.16 84.05q0 .7-.6.35l-72.87-42.34 73.31-42.06z"/></svg>