<svg xmlns="http://www.w3.org/2000/svg" role="img" viewBox="-19.60 -19.60 1019.20 198.20"><title>Smartiful (KCSP) logo</title><style>svg {isolation:isolate}</style><defs><clipPath id="_clipPath_o1klfQ7sK4JYxQqP5h0kqMcDwiNpqPay"><path d="M0 0h980.57v159.98H0z"/></clipPath></defs><g clip-path="url(#_clipPath_o1klfQ7sK4JYxQqP5h0kqMcDwiNpqPay)"><path fill="#1B5EAF" d="M144.43 25H36.17l2.12-3.47C46.487 8.147 61.056-.009 76.75 0H185l-2.1 3.47c-8.2 13.385-22.773 21.541-38.47 21.53zm-20.17 135H16l2.12-3.47c8.187-13.399 22.758-21.571 38.46-21.57h108.27l-2.12 3.46c-8.189 13.403-22.763 21.578-38.47 21.58zm13.82-92.53H21.21l2.29 3.47c8.84 13.4 24.57 21.57 41.5 21.57h116.89L179.6 89c-8.84-13.36-24.6-21.53-41.52-21.53z"/><path fill="#00A99D" d="M62.36 58.77H0l2.12-3.46c8.186-13.401 22.756-21.576 38.46-21.58h62.36l-2.12 3.47c-8.187 13.399-22.758 21.571-38.46 21.57zm93.9 67.47H93.9l2.1-3.47c8.191-13.394 22.759-21.565 38.46-21.57h62.36l-2.12 3.47c-8.184 13.393-22.745 21.564-38.44 21.57z"/><path fill="#1B5EAF" d="M264.46 57.59h62.15l-1.18-2.5c-4.115-8.662-12.84-14.19-22.43-14.21h-40.41c-20.24 0-24.49 10.59-24.49 19.47v21.19c0 13.09 7 19.19 22.14 19.19h41.34c7.69 0 7.69 4.3 7.69 5.72v17.79c0 4-1.28 6.56-7.69 6.56h-64.23l1.57 2.65c5.209 8.697 14.592 14.032 24.73 14.06h40c15.41 0 22.28-6.14 22.28-19.9v-21.87c0-13-7-19-22.14-19h-41.53c-6.69 0-7.55-3.14-7.55-5.87V63.73c0-4.53 5.04-6.14 9.75-6.14zm171.48-16.71h-62.63c-24.87 0-33.69 7.53-33.69 28.76v77.87h17.18V74.42c0-12 3.25-15.29 15.15-15.29H396v88.38h17.17V59.13h24.93c12.33 0 14.31 3.63 14.31 15.29v73.09h17V69.64c.07-21.23-8.71-28.76-33.47-28.76zm105.06 0h-29c-10.356.005-19.897 5.619-24.93 14.67l-1.44 2.6h56.66c11.47 0 15.15 3 15.15 12.33V88h-51.12c-15.52 0-21.85 5.4-21.85 18.63v20.74c0 14.71 5.92 20.18 21.85 20.18H564c7.83 0 10.61-1.73 10.61-11.45V69.64c.03-21.23-8.79-28.76-33.61-28.76zm12.61 90.77h-44.8c-5.47 0-7.7-2.07-7.7-7.13v-14.18c0-4.7 2.31-6.71 7.7-6.71h48.69v23.42c-.04 3.39-1.05 4.6-3.93 4.6h.04zm36.29-62.01v77.87h17.18V73.44c0-12 3.25-15.29 15.14-15.29h11.86c8.068.003 15.49-4.411 19.34-11.5l3.15-5.77h-33c-24.86 0-33.67 7.53-33.67 28.76zM708 57.87c8.664.028 16.462-5.248 19.66-13.3l1.48-3.69h-28.08V8.32h-17.17v32.56H668v17h15.9v61.44c0 21.35 7 28.2 28.75 28.2h15.65v-17h-15.6c-8.59 0-11.63-2.93-11.63-11.21V57.87H708zM759.93 7h-17.17v16.74H760V22 8.73L759.93 7zM742.9 40.88h17.04v106.63H742.9zm48.43-8.1v8.1h-16.05v17h16.05v89.64h17V57.87h7.5c9.139-.047 17.197-6 19.93-14.72l.7-2.27h-28.1v-8.1c0-8.27 3-11.2 11.63-11.2h16.81l.36-17h-17.22c-21.66.01-28.61 6.86-28.61 28.2zM932 114c0 12-3.29 15.29-15.29 15.29h-33.6c-12.33 0-14.3-3.63-14.3-15.29V40.88h-17.18v78c0 21.13 8.81 28.62 33.68 28.62h30c24.87 0 33.68-7.49 33.68-28.62v-78H932V114zM963.54 5.6h17.03v141.9h-17.03z"/></g></svg>