<svg xmlns="http://www.w3.org/2000/svg" role="img" xmlns:xlink="http://www.w3.org/1999/xlink" viewBox="-3.34 -3.34 173.55 162.05"><title>Soda Foundation logo</title><defs><linearGradient id="未命名漸層" x1="81.521" x2="166.558" y1="102.987" y2="102.987" gradientTransform="matrix(1 0 0 -1 0 155.89)" gradientUnits="userSpaceOnUse"><stop offset=".002" stop-color="#246cb5"/><stop offset=".239" stop-color="#2968b1"/><stop offset=".58" stop-color="#335da4"/><stop offset=".982" stop-color="#3d4c91"/><stop offset="1" stop-color="#3d4b90"/></linearGradient><linearGradient id="未命名漸層_2" x1="81.526" x2="164.369" y1="99.934" y2="99.934" gradientTransform="matrix(1 0 0 -1 0 155.89)" gradientUnits="userSpaceOnUse"><stop offset="0" stop-color="#243780"/><stop offset=".241" stop-color="#243981"/><stop offset=".453" stop-color="#253f86"/><stop offset=".655" stop-color="#25498e"/><stop offset=".849" stop-color="#25579b"/><stop offset=".999" stop-color="#2566a9"/></linearGradient><linearGradient id="未命名漸層_3" x1="-261.29" x2="-247.401" y1="134.669" y2="134.669" gradientTransform="matrix(1.021 -.0638 -.0976 -.9248 349.761 178.965)" xlink:href="#未命名漸層"/><linearGradient id="未命名漸層_4" x1="134.555" x2="142.216" y1="84.804" y2="95.238" xlink:href="#未命名漸層"/><linearGradient id="未命名漸層_5" x1="-92.14" x2="-77.268" y1="193.429" y2="193.429" gradientTransform="scale(1 -1) rotate(34.61 436.013 423.76)" gradientUnits="userSpaceOnUse"><stop offset="0" stop-color="#3588b3"/><stop offset=".214" stop-color="#3685b2"/><stop offset=".436" stop-color="#387eae"/><stop offset=".663" stop-color="#3b72a7"/><stop offset=".891" stop-color="#3f609e"/><stop offset="1" stop-color="#405698"/></linearGradient><linearGradient id="未命名漸層_6" x1="179.581" x2="260.279" y1="-116.817" y2="-116.817" gradientTransform="scale(1 -1) rotate(-12.035 415.559 532.619)" xlink:href="#未命名漸層_2"/><linearGradient id="未命名漸層_7" x1="88.274" x2="102.958" y1="113.435" y2="113.435" gradientTransform="matrix(1 0 0 -1 0 155.89)" gradientUnits="userSpaceOnUse"><stop offset="0" stop-color="#3e8fb5" stop-opacity=".3"/><stop offset=".124" stop-color="#499dbb" stop-opacity=".387"/><stop offset=".294" stop-color="#54acc0" stop-opacity=".506"/><stop offset=".481" stop-color="#5db6c3" stop-opacity=".637"/><stop offset=".696" stop-color="#61bcc5" stop-opacity=".787"/><stop offset="1" stop-color="#63bec6"/></linearGradient><linearGradient id="未命名漸層_8" x1="-203.2" x2="-198.474" y1="176.425" y2="184.611" gradientTransform="scale(1 -1) rotate(15.313 902.985 1192.758)" xlink:href="#未命名漸層_5"/><linearGradient id="未命名漸層_9" x1="-119.397" x2="-99.568" y1="110.272" y2="110.272" gradientTransform="scale(1 -1) rotate(7.441 1283.977 1202.903)" gradientUnits="userSpaceOnUse"><stop offset=".005" stop-color="#3588b3" stop-opacity=".2"/><stop offset=".285" stop-color="#4499ba" stop-opacity=".66"/><stop offset=".725" stop-color="#59b2c2" stop-opacity=".869"/><stop offset="1" stop-color="#63bec6"/></linearGradient><linearGradient id="未命名漸層_10" x1="88.253" x2="123.585" y1="88.957" y2="95.266" gradientTransform="matrix(1 0 0 -1 0 155.89)" gradientUnits="userSpaceOnUse"><stop offset=".005" stop-color="#3588b3" stop-opacity=".2"/><stop offset=".176" stop-color="#3f92b7" stop-opacity=".337"/><stop offset=".726" stop-color="#59b2c2" stop-opacity=".78"/><stop offset="1" stop-color="#63bec6"/></linearGradient><linearGradient id="未命名漸層_11" x1="91.364" x2="108.455" y1="85.976" y2="85.976" xlink:href="#未命名漸層_7"/><linearGradient id="未命名漸層_12" x1="48.339" x2="59.998" y1="131.636" y2="131.636" gradientTransform="matrix(1 0 0 -1 0 155.89)" gradientUnits="userSpaceOnUse"><stop offset="0" stop-color="#44448f"/><stop offset=".237" stop-color="#444690"/><stop offset=".42" stop-color="#434c93"/><stop offset=".584" stop-color="#425698"/><stop offset=".738" stop-color="#3f64a0"/><stop offset=".882" stop-color="#3b76aa"/><stop offset="1" stop-color="#3588b3"/></linearGradient><linearGradient id="未命名漸層_13" x1="-306.051" x2="-226.269" y1="-10.155" y2="-10.155" gradientTransform="scale(1 -1) rotate(15.765 -57.208 1104.61)" gradientUnits="userSpaceOnUse"><stop offset="0" stop-color="#3588b3"/><stop offset=".066" stop-color="#3782b0"/><stop offset=".501" stop-color="#40629e"/><stop offset=".825" stop-color="#434c93"/><stop offset="1" stop-color="#44448f"/></linearGradient><linearGradient id="未命名漸層_14" x1="-424.395" x2="-404.325" y1="281.758" y2="281.758" gradientTransform="scale(1 -1) rotate(27.808 492.515 965.293)" gradientUnits="userSpaceOnUse"><stop offset="0" stop-color="#3588b3"/><stop offset=".237" stop-color="#3686b2" stop-opacity=".976"/><stop offset=".42" stop-color="#3880af" stop-opacity=".958"/><stop offset=".584" stop-color="#3b77aa" stop-opacity=".942"/><stop offset=".738" stop-color="#3e69a2" stop-opacity=".926"/><stop offset=".882" stop-color="#425798" stop-opacity=".912"/><stop offset="1" stop-color="#44448f" stop-opacity=".9"/></linearGradient><linearGradient id="未命名漸層_15" x1="-403.568" x2="-326.815" y1="294.778" y2="294.778" gradientTransform="scale(1 -1) rotate(27.808 492.515 965.293)" gradientUnits="userSpaceOnUse"><stop offset="0" stop-color="#44448f"/><stop offset=".175" stop-color="#434c93" stop-opacity=".843"/><stop offset=".499" stop-color="#40629e" stop-opacity=".551"/><stop offset=".934" stop-color="#3782b0" stop-opacity=".159"/><stop offset="1" stop-color="#3588b3" stop-opacity=".1"/></linearGradient><linearGradient id="未命名漸層_16" x1="-380.573" x2="-356.088" y1="316.625" y2="316.625" gradientTransform="scale(1 -1) rotate(27.808 492.515 965.293)" xlink:href="#未命名漸層_13"/><linearGradient id="未命名漸層_17" x1="-1.033" x2="7.511" y1="117.563" y2="128.026" gradientTransform="scale(1 -1) rotate(15.297 554.665 213.613)" xlink:href="#未命名漸層_5"/><linearGradient id="未命名漸層_18" x1="-470.048" x2="-424.151" y1="327.744" y2="327.744" gradientTransform="scale(1 -1) rotate(30.805 421.59 1023.652)" xlink:href="#未命名漸層_15"/><style>.cls-6{fill:#fff}</style></defs><path fill="#3d3a39" d="M22.667 121.28a9.26861 9.26861 0 0 1-3.383 7.964 11.45091 11.45091 0 0 1-8.644 3.072 11.11942 11.11942 0 0 1-7.548-3.46 10.4747 10.4747 0 0 1-3.038-7.517h4.949v1.144a5.16152 5.16152 0 0 0 2.004 3.611 5.9335 5.9335 0 0 0 4.259 1.807 6.81247 6.81247 0 0 0 4.761-1.735 5.69889 5.69889 0 0 0 1.628-4.069q.0615-4.368-5.207-5.984l-4.191-1.269q-6.5745-1.9695-6.888-8.534a8.34062 8.34062 0 0 1 2.796-6.743 10.84026 10.84026 0 0 1 7.194-2.984 10.1794 10.1794 0 0 1 6.817 2.237 8.04135 8.04135 0 0 1 3.425 5.995v1.015H16.59v-.785a3.42552 3.42552 0 0 0-1.597-2.93 6.24115 6.24115 0 0 0-3.665-1.117 5.27967 5.27967 0 0 0-3.476 1.379 4.44485 4.44485 0 0 0-1.535 3.299q-.2505 3.6585 4.572 5.218l4.134 1.319q7.1445 2.3265 7.644 9.067zm47.604-6.861a16.92607 16.92607 0 0 1-5.606 12.678 17.78741 17.78741 0 0 1-13.311 5.1 17.76893 17.76893 0 0 1-12.622-5.368 16.90144 16.90144 0 0 1-5.168-12.349 17.09771 17.09771 0 0 1 5.575-12.797 17.69849 17.69849 0 0 1 13.28-5.101 18.05677 18.05677 0 0 1 12.653 5.459 16.94659 16.94659 0 0 1 5.199 12.378zm-4.76-.359a13.2263 13.2263 0 0 0-4.05-9.227 12.74066 12.74066 0 0 0-9.322-3.836 13.31293 13.31293 0 0 0-9.732 3.806 12.67625 12.67625 0 0 0-4.08 9.317 12.82945 12.82945 0 0 0 3.705 9.438 13.00441 13.00441 0 0 0 9.354 4.225 12.72259 12.72259 0 0 0 10.076-3.896 13.0512 13.0512 0 0 0 4.049-9.827zm101.223.299v17.061h-4.761v-5.309a18.43927 18.43927 0 0 1-26.768.656 16.88389 16.88389 0 0 1-5.178-12.35 17.092 17.092 0 0 1 5.575-12.796 17.57614 17.57614 0 0 1 13.342-5.041 18.34685 18.34685 0 0 1 12.778 5.459 15.94472 15.94472 0 0 1 5.012 12.32zm-4.761-.329a13.39905 13.39905 0 0 0-13.373-13.033 13.60027 13.60027 0 0 0-9.732 3.826 12.53557 12.53557 0 0 0-4.08 9.268 12.73932 12.73932 0 0 0 3.735 9.417 13.28985 13.28985 0 0 0 9.324 4.274 13.61582 13.61582 0 0 0 14.126-13.752zM4.386 145.625H1.521v9.472H.01V144.09a3.284 3.284 0 0 1 1.114-2.661 4.29177 4.29177 0 0 1 2.865-.938h.397v1.288h-.4a2.6344 2.6344 0 0 0-1.703.535 2.19962 2.19962 0 0 0-.761 1.526v.459h2.864zm20.27 4.072a5.37625 5.37625 0 0 1-1.78 4.026 5.65049 5.65049 0 0 1-4.227 1.62 5.63932 5.63932 0 0 1-4.008-1.705 5.52712 5.52712 0 0 1 .13-7.985 5.61421 5.61421 0 0 1 4.217-1.62 5.73872 5.73872 0 0 1 4.019 1.733 5.39081 5.39081 0 0 1 1.649 3.931zm-1.511-.114a4.20326 4.20326 0 0 0-1.286-2.93 4.0422 4.0422 0 0 0-2.96-1.218 4.2275 4.2275 0 0 0-3.091 1.208 4.02368 4.02368 0 0 0-1.296 2.959 4.07536 4.07536 0 0 0 1.176 2.997 4.13167 4.13167 0 0 0 2.971 1.342 4.04127 4.04127 0 0 0 3.2-1.237 4.14883 4.14883 0 0 0 1.286-3.121zm20.428.872a4.7213 4.7213 0 0 1-1.422 3.505 5.29863 5.29863 0 0 1-7.181 0 4.71749 4.71749 0 0 1-1.422-3.505v-6.156h1.512v6.34a3.09541 3.09541 0 0 0 1.05 2.345 3.56291 3.56291 0 0 0 4.902 0 3.09389 3.09389 0 0 0 1.05-2.345v-6.34h1.512v6.156zm19.057 4.642h-1.512v-6.309a3.11288 3.11288 0 0 0-1.05-2.349 3.56684 3.56684 0 0 0-4.922 0 3.1098 3.1098 0 0 0-1.05 2.349v6.309h-1.512v-6.157a4.6769 4.6769 0 0 1 1.432-3.495 5.32507 5.32507 0 0 1 7.182 0 4.674 4.674 0 0 1 1.433 3.495v6.157zm20.827-5.342a5.13953 5.13953 0 0 1-1.75 4.025 5.74337 5.74337 0 0 1-4.257 1.62 5.64111 5.64111 0 0 1-4.008-1.705 5.368 5.368 0 0 1-1.641-3.922 5.43164 5.43164 0 0 1 1.767-4.063 5.60476 5.60476 0 0 1 4.208-1.62 5.73031 5.73031 0 0 1 4.169 1.914v-5.438h1.512zm-1.512-.114a4.13127 4.13127 0 0 0-1.266-2.931 4.07019 4.07019 0 0 0-2.98-1.218 4.23869 4.23869 0 0 0-3.081 1.208 4.01491 4.01491 0 0 0-1.306 2.959 4.33511 4.33511 0 0 0 4.167 4.339 4.281 4.281 0 0 0 4.466-4.357zm22.12.038v5.418h-1.512v-1.686a5.85369 5.85369 0 0 1-8.501.208 5.36021 5.36021 0 0 1-1.645-3.922 5.42627 5.42627 0 0 1 1.771-4.063 5.58118 5.58118 0 0 1 4.237-1.601 5.82808 5.82808 0 0 1 4.058 1.733 5.05719 5.05719 0 0 1 1.592 3.913zm-1.511-.105a4.25452 4.25452 0 0 0-4.246-4.139 4.31943 4.31943 0 0 0-3.091 1.215 3.97877 3.97877 0 0 0-1.296 2.942 4.041 4.041 0 0 0 1.187 2.991 4.21809 4.21809 0 0 0 2.961 1.357 4.32113 4.32113 0 0 0 4.485-4.366zm14.601 5.75q-4.1385 0-4.138-3.354v-11.46h1.512v3.77h2.626v1.346h-2.626v6.1q0 2.406 2.626 2.406zm10.204-12.314h-1.512v-2.52h1.512zm0 12.087h-1.512v-10.798h1.512zm20.668-5.4a5.37625 5.37625 0 0 1-1.78 4.026 5.92615 5.92615 0 0 1-8.235-.085 5.52712 5.52712 0 0 1 .13-7.985 5.61421 5.61421 0 0 1 4.217-1.62 5.73872 5.73872 0 0 1 4.019 1.733 5.39081 5.39081 0 0 1 1.649 3.931zm-1.512-.114a4.20326 4.20326 0 0 0-1.286-2.93 4.0422 4.0422 0 0 0-2.96-1.218 4.2275 4.2275 0 0 0-3.091 1.208 4.02368 4.02368 0 0 0-1.296 2.959 4.07536 4.07536 0 0 0 1.176 2.997 4.13167 4.13167 0 0 0 2.971 1.342 4.04127 4.04127 0 0 0 3.2-1.237 4.1415 4.1415 0 0 0 1.286-3.121zm20.409 5.514h-1.512v-6.309a3.11288 3.11288 0 0 0-1.05-2.349 3.56684 3.56684 0 0 0-4.922 0 3.1098 3.1098 0 0 0-1.05 2.349v6.309h-1.512v-6.157a4.6769 4.6769 0 0 1 1.432-3.495 5.32507 5.32507 0 0 1 7.182 0 4.674 4.674 0 0 1 1.433 3.495v6.157zm-49.012-64.669a13.27659 13.27659 0 0 1-3.919-3.522v15.881a18.06055 18.06055 0 0 0-13.128-6.024 17.6353 17.6353 0 0 0-13.253 5.101 17.11373 17.11373 0 0 0-5.564 12.796 16.90306 16.90306 0 0 0 5.168 12.349 17.76813 17.76813 0 0 0 12.622 5.369 18.09379 18.09379 0 0 0 13.404-5.101 16.18556 16.18556 0 0 0 5.512-12.677V90.777a4.46392 4.46392 0 0 1-.842-.349zm-7.906 33.637a12.72054 12.72054 0 0 1-10.076 3.896 13.64933 13.64933 0 0 1-13.121-13.662 12.62276 12.62276 0 0 1 4.112-9.317 13.34412 13.34412 0 0 1 9.701-3.806 12.821 12.821 0 0 1 9.386 3.836 12.99146 12.99146 0 0 1 3.986 9.227 12.8419 12.8419 0 0 1-3.988 9.826z"/><path fill="url(#未命名漸層)" d="M165.913 60.861c-.4-.299-1.29-.361-1.541-.768-.197-.33-.074-.885-.082-1.246a2.323 2.323 0 0 0-.595-1.502 15.15475 15.15475 0 0 0-4.088-2.924 72.51283 72.51283 0 0 0-22.201-8.16c-4.273-3.963-8.807-7.848-14.882-8.197-2.561-.148-4.742-.246-4.848.611-.032.26.501.432 1.035.746a7.47133 7.47133 0 0 1 3.116 2.906c.253.557.701 2.248-5.531 3.531-7.463 1.535-24.146 11.195-30.95 16.242-6.805 5.049-2.854 5.93-.878 5.709s15.585-5.268 30.95-5.928c4.111-.176 11.561-.293 11.561-.293l.008-.02c4.701-.068 8.927.107 13.72.264 6.477.209 12.853 1.404 19.327 1.551a24.61757 24.61757 0 0 0 4.582-.197c.553-.094 1.763-.246 1.913-.945a1.33677 1.33677 0 0 0-.616-1.38z"/><path d="M84.313 62.908c-.258.207-.496.41-.713.602-.038.035-.073.068-.11.102a11.8996 11.8996 0 0 0-1.083 1.104.72209.72209 0 0 1-.049.057c-.137.164-.254.324-.354.471-.01.016-.019.029-.027.045a2.29876 2.29876 0 0 0-.451 1.186c2.215-.74 4.995-1.811 8.431-3.273a203.92465 203.92465 0 0 1 23.542-8.516c.013.012.021.025.034.039a44.431 44.431 0 0 1 7.383-1.699c.551-.063 1.053-.143 1.683-.229 1.278-.15 2.639-.268 4.095-.344.292-.01.608-.021.938-.033.097-.002.198-.006.295-.008.703-.02 1.479-.035 2.365-.045 15.593.008 18.157 5.018 26.89 7.113a23.98475 23.98475 0 0 0 4.599.795 8.54462 8.54462 0 0 0 2.298-.125c.085-.016.186-.043.29-.07a2.841 2.841 0 0 1-.077-1.23 2.323 2.323 0 0 0-.595-1.502 15.15475 15.15475 0 0 0-4.088-2.924c-1.656-.916-3.403-1.809-5.21-2.648a67.4296 67.4296 0 0 0-16.992-5.512h.001l-.006-.006a90.46029 90.46029 0 0 0-21.104-.396c-7.463 1.535-24.146 11.195-30.95 16.242-.321.24-.612.465-.888.686-.05.036-.101.079-.147.118z" style="isolation:isolate" fill="url(#未命名漸層_2)" opacity=".7"/><path fill="url(#未命名漸層_3)" d="M71.272 71.721c-1.115.295-1.966-.973-1.129-1.693a22.83481 22.83481 0 0 1 10.313-4.641c5.603-1.164 2.701 5.43.514 9.404a1.71416 1.71416 0 0 1-3.16-.719c0-.029.002-.064 0-.096.03-3.244-3.054-3.289-4.788-2.814-.666.18-1.244.424-1.75.559z"/><path fill="url(#未命名漸層_4)" d="M146.6 61.207a29.62569 29.62569 0 0 0-1.854 2.725 9.07629 9.07629 0 0 1-3.642 2.844c-1.436.674-6.118 2.537-4.665-1.002a20.5619 20.5619 0 0 0 1.202-5.617c2.923.316 6.133.189 8.959 1.05z"/><path d="M157.966 57.961c-.002.008 4.051 2.395 4.051 2.395a2.96994 2.96994 0 0 1-.759.568 3.00724 3.00724 0 0 1-2.207-.377A2.38044 2.38044 0 0 1 158.045 59a2.79508 2.79508 0 0 1-.079-1.039z" class="cls-6"/><path fill="url(#未命名漸層_5)" d="M139.13 57.537c-3.333 2.619-5.048 4.416-8.033 6.287a.55193.55193 0 0 0 .131.904c4.97 2.287 18.056-5.662 13.825-6.791-1.372-.365-4.884-1.218-5.923-.4z"/><path fill="url(#未命名漸層_6)" d="M49.105 56.193c7.813-7.166 17.421-12.822 27.952-14.041a42.40976 42.40976 0 0 1 22.093 3.676 56.01412 56.01412 0 0 1 18.103 13.389 46.87879 46.87879 0 0 1 6.771 9.25 11.48328 11.48328 0 0 1 1.815 4.971 9.44431 9.44431 0 0 1-1.534 5.533 7.96542 7.96542 0 0 1-.483.66 6.57313 6.57313 0 0 1 1.384 4.934 3.871 3.871 0 0 1-5.791 2.707c-2.865-1.566-4.53-4.473-6.476-6.971-5.374-6.902-13.405-11.215-21.544-14.424a119.0756 119.0756 0 0 0-34.961-7.967c-2.538-.184-9.751.475-7.366-1.684.012-.011.025-.023.037-.033z"/><path fill="url(#未命名漸層_7)" d="M101.264 49.154a1.60943 1.60943 0 0 0 1.66-1.93 15.29168 15.29168 0 0 0-6.89-9.531c-1.301-.709-7.942-3.316-7.756-1.002.184 2.262 4.938 3.26 4.409 8.039-.387 3.493 5.414 4.262 8.577 4.424z"/><path fill="url(#未命名漸層_8)" d="M104.23 70.998a18.63974 18.63974 0 0 1-1.172 1.766c-1.188 1.254-2.75 1.469-4.342 1.852-.816.193-2.887.609-2.645 1.85.344 1.76 5.207 2.082 6.448 2.121a22.22478 22.22478 0 0 0 6.074-.594c6.364-1.656 7.989-2.846 5.269-5.674.001-.001-9.599-1.315-9.632-1.321z"/><path fill="url(#未命名漸層_9)" d="M45.536 68.934c1.357.689 3.152-.588 4.122-1.914 1.843-2.531 4.572-6.867 3.449-10.205-1.747-5.188-13.805-4.748-19.018-2.332-3.509 1.629 2.516 2.32 5.346 3.027 2.806.703 3.972 2.912 4.376 5.592.24 1.59-.036 3.658.902 5.066a2.18934 2.18934 0 0 0 .823.766z"/><path fill="url(#未命名漸層_10)" d="M124.306 78.971a9.437 9.437 0 0 0 1.534-5.533 11.496 11.496 0 0 0-1.815-4.971q-.678-1.251-1.449-2.439c-.217-.342-.461-.664-.688-1-.304-.443-.598-.893-.918-1.326-.317-.432-.657-.846-.989-1.264-.253-.32-.495-.646-.755-.959-.351-.426-.718-.832-1.081-1.246-.239-.273-.472-.551-.715-.82a8.64 8.64 0 0 1-2.907.82l.017.055a12.9076 12.9076 0 0 1-4.128-.109c-.262-.045-.514-.102-.763-.156a11.36773 11.36773 0 0 1-7.601-9.766 11.25045 11.25045 0 0 1 .141-2.92h-.005c-.64-.346-1.292-.666-1.948-.982a11.36847 11.36847 0 0 0-6.201 11.113c.028.316.076.627.129.936 0 0-14.18-3.93-14.738-16.434-.789.039-1.579.094-2.366.184a40.41384 40.41384 0 0 0-10.085 2.561c-.199.074-.392.166-.59.244a28.13929 28.13929 0 0 0-1.917 13.832q3.0795.4335 6.133 1.029c.063.016.123.025.187.039 1.345.268 2.685.549 4.02.859.174.043.343.086.518.131 1.224.289 2.445.592 3.661.924.347.092.691.197 1.038.297 1.041.293 2.085.588 3.119.91.616.191 1.226.404 1.84.604.766.252 1.536.494 2.299.764 1.381.484 2.754.998 4.116 1.531 8.139 3.209 16.17 7.521 21.544 14.424 1.945 2.498 3.61 5.404 6.476 6.971a3.871 3.871 0 0 0 5.791-2.707 6.5743 6.5743 0 0 0-1.384-4.934c.17-.215.329-.434.48-.662z"/><circle cx="115.854" cy="72.508" r="2.145" class="cls-6"/><path fill="url(#未命名漸層_11)" d="M104.22 66.779c-5.206.32-8.2.941-12.532.752a.67558.67558 0 0 0-.499 1.004c3.435 5.793 20.942 5.676 17.445 1.572-1.133-1.33-2.789-3.431-4.414-3.328z"/><path fill="url(#未命名漸層_12)" d="M58.176 17.027a21.53789 21.53789 0 0 1-4.576 7.756c-1.782 2.145-3.535 4.511-5.445 6.533a.563.563 0 0 0 .394.952c4.091.144 7.169-1.883 9.836-4.838 2.48-2.748 4.157-7.438 1.829-10.669a1.12782 1.12782 0 0 0-2.038.266z"/><path fill="url(#未命名漸層_13)" d="M81.185 8.207a3.0738 3.0738 0 0 0-.585-1.752c-2.066-2.652-5.433.461-7.975-.66-1.438-.635-2.265-2.111-3.346-3.174A8.76584 8.76584 0 0 0 65.35.275c-3.063-.771-6.478.227-9.399 1.156-1.59.508-3.191 1.006-4.762 1.578C30.105 10.67 8.86 27.594 10.912 52.426a1.97339 1.97339 0 0 0 3.525 1.061c4.463-5.77 14.151-16.838 27.661-24.193 7.027-3.832 14.37-7.041 21.712-10.211 3.52-1.516 7.291-2.871 10.808-4.557a18.60776 18.60776 0 0 0 5.574-3.449 4.01447 4.01447 0 0 0 .993-2.87z"/><path fill="url(#未命名漸層_14)" d="M2.584 67.139A1.56585 1.56585 0 0 1 .125 65.34c1.08-2.514 3.923-7.631 10.541-12.572 6.532-4.873 6.701 6.291 6.238 13.273a2.34484 2.34484 0 0 1-4.498.76c-.02-.041-.037-.088-.057-.135-1.886-4.697-5.887-3.004-7.841-1.33-.751.639-1.351 1.32-1.924 1.803z"/><path fill="url(#未命名漸層_15)" d="M80.736 10.264a9.35074 9.35074 0 0 1-4.181 2.838c-4.297 1.732-9.467 1.875-13.986 2.637C44.17 18.83 28.265 29.201 19.01 45.453c-1.065 1.873-1.834 4.627-3.176 6.279 4.919-6.057 14.013-15.768 26.265-22.439 7.027-3.832 14.37-7.041 21.712-10.211 3.52-1.516 7.291-2.871 10.808-4.557a18.60776 18.60776 0 0 0 5.574-3.449 3.06721 3.06721 0 0 0 .543-.812z"/><path fill="url(#未命名漸層_16)" d="M45.563 6.322a17.16464 17.16464 0 0 0-9.202-1.387 21.47346 21.47346 0 0 0-11.398 5.406c-.422.389-4.511 4.865-1.799 4.646 2.451-.197 7.586-3.268 10.294-1.594 2.708 1.673 9.235-2.821 12.105-7.071z"/><path d="M58.924 7.383l.947-1.684.004.027c.05-.049 2.313 1.17 2.313 1.17s1.487-2.59 2.166-1.123c0 0 .79 2.072-2.435 2.598a5.11172 5.11172 0 0 1-2.995-.988z" class="cls-6"/><path fill="url(#未命名漸層_17)" d="M53.073 15.15a20.60871 20.60871 0 0 1-7.064 4.125c-2.53 1.006-5.225 2.135-7.822 2.941a.53213.53213 0 0 0-.121.967c5.353 3.268 17.62.568 16.815-7.295a1.06537 1.06537 0 0 0-1.808-.738z"/><path fill="url(#未命名漸層_18)" d="M45.979 10.641a60.15111 60.15111 0 0 0-18.613 6.174 52.02221 52.02221 0 0 0-13.13 17.416c2.572-2.504 5.188-4.961 7.91-7.309 10.821-9.326 23.417-14.533 30.996-17.059-2.065.692-4.983.432-7.163.778z"/><path d="M122.49 87.512a4.60819 4.60819 0 0 1-.764-.838c-.118-.17-.252-.336-.368-.521-.097-.199-.196-.404-.299-.615a3.395 3.395 0 0 1-.252-.676 6.2534 6.2534 0 0 1-.212-.73c-.054-.256-.109-.514-.165-.779q-.0555-.405-.127-.818c-.078-.563-.157-1.135-.236-1.707-.082-.576-.203-1.162-.317-1.734a10.65 10.65 0 0 0-.536-1.662 7.191 7.191 0 0 0-.77-1.451 9.313 9.313 0 0 0-.938-1.131c-.339-.309-.685-.551-.97-.773a4.74159 4.74159 0 0 0-.802-.455c-.459-.229-.722-.355-.722-.355s.221.191.608.523a6.58177 6.58177 0 0 1 .684.607c.226.252.481.539.76.852.217.361.509.707.719 1.133a8.62277 8.62277 0 0 1 .575 1.373 12.95447 12.95447 0 0 1 .411 1.551c.096.549.2 1.102.27 1.678.092.572.184 1.148.273 1.715a12.706 12.706 0 0 0 .401 1.684 5.09 5.09 0 0 0 .293.789 3.96774 3.96774 0 0 0 .361.723c.143.225.28.439.414.65.16.191.338.357.494.525a3.39368 3.39368 0 0 0 .824.666 4.21866 4.21866 0 0 0 .499-.121c-.035-.041-.072-.064-.108-.103z" class="cls-6"/></svg>