<svg xmlns="http://www.w3.org/2000/svg" role="img" xmlns:xlink="http://www.w3.org/1999/xlink" viewBox="-6.45 -6.45 335.66 279.41"><title>SOFATracer logo</title><defs><linearGradient id="a" x1="-434.54" x2="-432.52" y1="210.71" y2="212.7" gradientTransform="matrix(-34.75 0 0 34.75 -14859.01 -7133.8)" gradientUnits="userSpaceOnUse"><stop offset="0" stop-color="#5284ff"/><stop offset="1" stop-color="#fff"/></linearGradient><linearGradient id="b" x1="-419.64" x2="-419.84" y1="253.2" y2="257.64" gradientTransform="matrix(112 0 0 -112 47159.49 28627.09)" xlink:href="#a"/><linearGradient id="c" x1="-427.83" x2="-427.83" y1="265.74" y2="264.28" gradientTransform="matrix(50.23 29 28.87 -50.01 13986.67 25764.9)" gradientUnits="userSpaceOnUse"><stop offset="0" stop-color="#f89ea0"/><stop offset="1" stop-color="#f77174"/></linearGradient></defs><g data-name="图层 2"><g data-name="图层 1"><path fill="#414141" d="M0 252.56h21v7H0v7h28v-21H7v-7h21v-7H0v21zm201-13v7h21v3h-21v17h28v-27zm21 20h-14v-3h14zm14 7h26v-7h-18v-13h18v-7h-26v27zm33-27v27h26v-7h-18v-3h18v-17zm19 10h-11v-3h11zm-108-10h-7v27h7v-16h14v-7h-14v-4zm129 4v-4h-7v27h7v-16h14v-7h-14zm-274-12v35h28v-35zm21 29H42v-22h14zm42-14H77v-8h21v-7H70v35h7v-13h21v-7zm0 20h8l10-21 10 21h8l-18-36-18 36zm36-28h12v28h8v-28h12v-7h-32v7z"/><path fill="none" d="M54.76 0h222.47v222.47H54.76z"/><path fill="url(#a)" d="M268.09 198.58a10.43 10.43 0 0 1-14.75 14.74l-39.54-39.53A10.43 10.43 0 0 1 228.55 159z"/><path fill="url(#b)" d="M152.1 177.28a80 80 0 1 0-80-79.95 80 80 0 0 0 80 79.95zm0 17.39a97.34 97.34 0 1 1 97.33-97.34 97.34 97.34 0 0 1-97.33 97.34z"/><path fill="url(#c)" d="M130 144l17.15-29.71a1.74 1.74 0 0 0-.63-2.38l-3-1.74a1.75 1.75 0 0 0-2.38.64L124 140.56a38.11 38.11 0 0 1-15.38-23.42 64.55 64.55 0 0 0-14.82.47 3 3 0 0 1-2.14-1.71l-1.27-7.15c-.06-.36.42-1.22.73-1.27a74.34 74.34 0 0 1 16.77-.85 38 38 0 0 1 4.21-14.9l-9.1-5.24a1.73 1.73 0 0 1-.63-2.37l3.47-6a1.75 1.75 0 0 1 2.38-.64l9.89 5.71a37.91 37.91 0 0 1 12.71-8.94 74.86 74.86 0 0 1-10-18.27c-.11-.29.4-1.14.74-1.27l6.82-2.47a3 3 0 0 1 2.56 1 64.3 64.3 0 0 0 69.47 39.88 2.46 2.46 0 0 1 1.8 1.37c.3 1.7.73 4.14 1.3 7.34.07.42-.78 1.48-1.29 1.56a74.26 74.26 0 0 1-18.35.59 38.13 38.13 0 0 1-1.26 16.47l9.89 5.71a1.73 1.73 0 0 1 .63 2.37l-3.47 6a1.74 1.74 0 0 1-2.38.64l-9.06-5.23a38.15 38.15 0 0 1-11.71 11.68 74.79 74.79 0 0 1 6.32 12.66 2.2 2.2 0 0 1-.71 1.9l-7 2.54a2.43 2.43 0 0 1-2.08-.87A64.62 64.62 0 0 0 157 146a38.12 38.12 0 0 1-27-2zm32.78-94.9l2-.63a1 1 0 0 1 .79.32 21.71 21.71 0 0 0 21.64 12.43.85.85 0 0 1 .56.42l.5 2.14c0 .13-.22.42-.38.44a25.23 25.23 0 0 1-25.3-14.72c-.04-.09.1-.33.21-.36zm1.81 27.93c-10.8-6.24-17.73-14.15-16.89-15.15a22.6 22.6 0 0 1 38.71 21.76c-.41 1.44-10.99-.33-21.8-6.57z"/></g></g></svg>