<svg xmlns="http://www.w3.org/2000/svg" role="img" viewBox="-2.96 -2.96 153.79 65.79"><title>Sosivio logo</title><g clip-path="url(#clip0)"><path fill="#1C95FF" fill-rule="evenodd" d="M51.5771 41.147L41.2157 23.3411l-.0385-.0651 10.3999-5.992v23.863zm-17.1076 2.4462c4.8707-2.6196 8.172-7.6857 8.172-13.5038 0-.0684 0-.1361-.0026-.2055l8.1003 13.7093H34.4695zm-6.6049 13.8974V45.56h21.1538L27.8646 57.4906zm-1.0529-14.0417c-.3329 0-.6625-.011-.9876-.0351-7.0854-.494-12.6776-6.2676-12.6776-13.3153 0-2.0406.4689-3.9735 1.3076-5.7033.3163-.6542.6853-1.2802 1.1043-1.8712 2.4642-3.4913 6.5858-5.7785 11.2533-5.7785 4.6598 0 8.7734 2.2787 11.2378 5.7581.4319.6063.8115 1.2494 1.1331 1.9216.8308 1.7204 1.2927 3.6437 1.2927 5.6733 0 7.0264-5.5554 12.7853-12.6102 13.312-.347.0256-.6984.0384-1.0534.0384zm-.9877 14.0417L4.67103 45.56H25.824v11.9306zM11.1134 29.6711c-.0061.1395-.0079.2782-.0079.4178 0 5.818 3.3013 10.8842 8.1739 13.5037H2.88697l8.22643-13.9215zM2.11416 17.284l10.35164 5.9654-.0543.0917L2.11416 41.0357V17.284zM24.0114 3.70721L13.5555 21.4027 3.08286 15.5333 24.0114 3.70721zm2.7655-.54735c.0167-.02741.0561-.02741.0719 0L34.935 16.846c-2.3591-1.3745-5.1144-2.164-8.0607-2.164-3.0244 0-5.8498.8324-8.2501 2.2744l8.1527-13.79654zM50.4585 15.535L40.056 21.3788 29.6772 3.81421 50.4585 15.535zm2.3304-1.1319L27.6459.21858c-.0438-.02397-.0876-.04795-.1341-.06765-.4426-.20124-.9544-.20124-1.3996 0-.0447.0197-.0902.04367-.1349.06765L.8343 14.4031C.31812 14.6943 0 15.232 0 15.8144v28.3708c0 .1353.01753.2672.04995.3956.10254.4017.35931.7536.72213.9788.02103.0129.04119.0266.06222.0368l25.143 14.1846c.5171.292 1.1525.292 1.6686 0l25.143-14.1846c.021-.0102.0421-.0239.0622-.0368.3646-.2252.6205-.5789.7222-.9806.0324-.1284.0499-.2602.0499-.3938V15.8144c0-.5824-.3172-1.1201-.8343-1.4113z" clip-rule="evenodd"/></g><path fill="#002B80" d="M71.6246 33.9966c0-.7246-.2558-1.2831-.7673-1.6756-.504-.3925-1.4179-.7887-2.7418-1.1888-1.3239-.4-2.377-.8454-3.1593-1.336-1.4969-.9435-2.2453-2.1738-2.2453-3.6909 0-1.3285.5378-2.4229 1.6135-3.2833 1.0832-.8606 2.486-1.2908 4.2086-1.2908 1.1433 0 2.1626.2114 3.0577.6341.8952.4226 1.5985 1.0265 2.11 1.8114.5115.7774.7672 1.6417.7672 2.5927h-2.8433c0-.8604-.2708-1.5322-.8124-2.0152-.5341-.4907-1.3013-.736-2.3018-.736-.9327 0-1.6586.2001-2.1776.6001-.5115.4001-.7673.9586-.7673 1.6756 0 .6038.2783 1.1096.835 1.5172.5566.4 1.4743.7926 2.7531 1.1775 1.2787.3774 2.3055.8114 3.0803 1.3019.7747.4832 1.3426 1.0417 1.7037 1.6757.3611.6265.5416 1.3624.5416 2.2079 0 1.3737-.5265 2.4681-1.5796 3.2833-1.0456.8076-2.4673 1.2114-4.2651 1.2114-1.1885 0-2.2829-.2188-3.2834-.6567-.9929-.4452-1.7677-1.0567-2.3243-1.8341-.5491-.7775-.8237-1.6833-.8237-2.7172h2.8547c0 .9359.3084 1.6605.9252 2.1738.6168.5132 1.5006.7698 2.6515.7698.993 0 1.7376-.1999 2.2341-.6001.504-.4076.756-.9434.756-1.6077zm18.4705-3.5664c0 1.6154-.2783 3.0343-.835 4.2571-.5566 1.2152-1.354 2.1511-2.392 2.8078-1.0305.6492-2.219.9737-3.5654.9737-1.3315 0-2.5199-.3245-3.5655-.9737-1.0381-.6567-1.8429-1.5888-2.4146-2.7964-.5642-1.2077-.85-2.6003-.8576-4.1779v-.9285c0-1.6077.2821-3.0266.8463-4.257.5716-1.2302 1.3728-2.17 2.4032-2.8191 1.0381-.6567 2.2267-.985 3.5656-.985 1.3389 0 2.5237.3245 3.5542.9736 1.038.6416 1.8392 1.5701 2.4033 2.7853.5642 1.2077.8499 2.6154.8575 4.2231v.917zm-2.8546-.8604c0-1.8266-.346-3.2268-1.0381-4.2005-.6845-.9737-1.6586-1.4605-2.9223-1.4605-1.2336 0-2.2002.4868-2.8997 1.4605-.6921.9662-1.0457 2.3361-1.0607 4.1099v.951c0 1.8116.3498 3.2117 1.0493 4.2004.7071.9888 1.6851 1.4832 2.9337 1.4832 1.2637 0 2.234-.483 2.9109-1.4492.6845-.9661 1.0269-2.3776 1.0269-4.2344v-.8604zm14.2845 4.4268c0-.7246-.256-1.2831-.767-1.6756-.504-.3925-1.4182-.7887-2.7422-1.1888-1.3239-.4-2.3769-.8454-3.1591-1.336-1.4969-.9435-2.2455-2.1738-2.2455-3.6909 0-1.3285.538-2.4229 1.6135-3.2833 1.0832-.8606 2.486-1.2908 4.2087-1.2908 1.1434 0 2.1626.2114 3.0576.6341.895.4226 1.599 1.0265 2.11 1.8114.512.7774.767 1.6417.767 2.5927h-2.843c0-.8604-.271-1.5322-.812-2.0152-.535-.4907-1.3018-.736-2.3022-.736-.9327 0-1.6586.2001-2.1777.6001-.5114.4001-.7672.9586-.7672 1.6756 0 .6038.2783 1.1096.835 1.5172.5566.4 1.4743.7926 2.753 1.1775 1.2791.3774 2.3051.8114 3.0801 1.3019.775.4832 1.343 1.0417 1.704 1.6757.361.6265.542 1.3624.542 2.2079 0 1.3737-.527 2.4681-1.58 3.2833-1.046.8076-2.467 1.2114-4.265 1.2114-1.1886 0-2.2831-.2188-3.2835-.6567-.9928-.4452-1.7676-1.0567-2.3243-1.8341-.5492-.7775-.8237-1.6833-.8237-2.7172h2.8547c0 .9359.3083 1.6605.9251 2.1738.6168.5132 1.5007.7698 2.6517.7698.9928 0 1.737-.1999 2.234-.6001.504-.4076.756-.9434.756-1.6077zm8.372 4.2458h-2.843V21.7577h2.843v16.4847zm9.297-3.5891l4.175-12.8956h3.137l-5.913 16.4847h-2.764l-5.89-16.4847h3.126l4.129 12.8956zm12.186 3.5891h-2.843V21.7577h2.843v16.4847zM148 30.4302c0 1.6154-.278 3.0343-.835 4.2571-.556 1.2152-1.354 2.1511-2.392 2.8078-1.03.6492-2.219.9737-3.565.9737-1.331 0-2.52-.3245-3.566-.9737-1.038-.6567-1.843-1.5888-2.414-2.7964-.564-1.2077-.85-2.6003-.858-4.1779v-.9285c0-1.6077.282-3.0266.846-4.257.572-1.2302 1.373-2.17 2.404-2.8191 1.038-.6567 2.226-.985 3.565-.985s2.524.3245 3.554.9736c1.038.6416 1.84 1.5701 2.404 2.7853.564 1.2077.85 2.6154.857 4.2231v.917zm-2.854-.8604c0-1.8266-.346-3.2268-1.038-4.2005-.685-.9737-1.659-1.4605-2.923-1.4605-1.233 0-2.2.4868-2.899 1.4605-.693.9662-1.046 2.3361-1.061 4.1099v.951c0 1.8116.35 3.2117 1.049 4.2004.707.9888 1.685 1.4832 2.934 1.4832 1.264 0 2.234-.483 2.911-1.4492.684-.9661 1.027-2.3776 1.027-4.2344v-.8604z"/><defs><clipPath id="clip0"><path fill="#fff" d="M0 0h53.623v60H0z"/></clipPath></defs></svg>