<svg xmlns="http://www.w3.org/2000/svg" role="img" viewBox="-6.59 -6.59 342.42 276.42"><title>Spectro Cloud (KCSP) logo</title><path fill="#111" d="M5.2 252.1c-1.8-.8-3.1-1.8-3.9-2.9-.9-1.1-1.3-2-1.3-2.7 0-.4.1-.7.4-.9.3-.2.5-.3.8-.3h2.4c.2 0 .4 0 .5.1.1.1.3.2.5.5.9 1 1.8 1.9 2.9 2.5 1.1.6 2.5.9 4.3.9 2 0 3.6-.4 4.8-1.1 1.2-.7 1.8-1.8 1.8-3.2 0-.9-.3-1.7-.8-2.2-.5-.6-1.4-1.1-2.6-1.5-1.2-.4-3-.9-5.4-1.5-3.2-.7-5.5-1.7-6.9-3.1-1.3-1.3-2-3.1-2-5.2 0-1.4.4-2.7 1.2-4 .8-1.3 2-2.3 3.7-3.1 1.7-.8 3.6-1.2 5.8-1.2 2.4 0 4.4.4 6 1.2 1.7.8 2.9 1.7 3.8 2.7.8 1 1.3 1.9 1.3 2.6 0 .3-.1.6-.4.8-.2.2-.5.3-.9.3h-2.1c-.5 0-.9-.2-1.1-.6-.6-.7-1.2-1.3-1.6-1.7-.4-.4-1.1-.7-1.9-1-.8-.3-1.8-.4-3.1-.4-1.8 0-3.2.4-4.2 1.1-1 .8-1.5 1.8-1.5 3.1 0 .8.2 1.4.6 2 .4.5 1.2 1 2.4 1.5s2.9.9 5.2 1.4c3.5.7 6.1 1.8 7.5 3.2 1.5 1.4 2.2 3.2 2.2 5.3 0 1.6-.5 3.1-1.4 4.4-.9 1.3-2.3 2.3-4.1 3.1-1.8.7-4 1.1-6.5 1.1-2.4 0-4.6-.4-6.4-1.2zm24.3001 11c-.2-.2-.4-.5-.4-1v-37.2c0-.4.1-.7.4-1 .2-.2.6-.3.9-.3h2.4c.4 0 .7.1 1 .3.2.2.3.5.3 1v2.5c2.2-2.9 5.2-4.3 9.2-4.3 3.9 0 6.9 1.2 8.8 3.7 2 2.5 3 5.6 3.1 9.5 0 .4.1 1 .1 1.9 0 .9 0 1.5-.1 1.9-.1 3.8-1.1 7-3.1 9.5s-4.9 3.8-8.8 3.8c-4 0-7-1.4-9.1-4.3v13c0 .4-.1.7-.4.9-.2.2-.6.4-.9.4h-2.5c-.3 0-.6-.1-.9-.3zm18.7-16.7c1.2-1.7 1.9-3.9 2-6.6 0-.4.1-.9.1-1.6 0-7.2-2.7-10.8-8-10.8-2.6 0-4.6.9-5.9 2.6-1.3 1.7-2 3.8-2.1 6.1 0 .4-.1 1.1-.1 2.2s0 1.8.1 2.2c.1 2.3.8 4.2 2.2 5.9 1.4 1.7 3.3 2.5 5.9 2.5 2.6 0 4.5-.8 5.8-2.5zm15.4997 3.4c-2.3-2.4-3.5-5.6-3.8-9.7l-.1-1.9.1-1.8c.2-4 1.5-7.2 3.8-9.6 2.3-2.4 5.3-3.6 9.1-3.6 4.1 0 7.3 1.3 9.5 3.9 2.3 2.6 3.4 6.2 3.4 10.6v1c0 .4-.1.7-.4.9-.2.2-.6.4-.9.4h-19.4v.5c.1 2.4.9 4.5 2.2 6.2 1.4 1.7 3.2 2.6 5.5 2.6 1.8 0 3.2-.3 4.3-1 1.1-.7 1.9-1.4 2.5-2.2.3-.4.6-.7.8-.8.2-.1.5-.1 1-.1h2.5c.3 0 .6.1.9.3.2.2.4.4.4.7 0 .8-.5 1.8-1.5 3s-2.4 2.2-4.3 3c-1.8.8-4 1.3-6.4 1.3-3.9-.2-7-1.4-9.2-3.7zm16.9-13.7v-.1c0-2.6-.7-4.7-2.1-6.4-1.4-1.6-3.3-2.5-5.7-2.5-2.4 0-4.3.8-5.7 2.5-1.4 1.6-2.1 3.8-2.1 6.4v.2h15.6v-.1zm13.1003 13.8c-2.2-2.3-3.4-5.4-3.5-9.5l-.1-2.2.1-2.2c.1-4.1 1.3-7.2 3.5-9.5s5.4-3.4 9.3999-3.4c2.7 0 5 .5 6.8 1.4 1.8 1 3.2 2.1 4.1 3.6.9 1.4 1.4 2.8 1.5 4.3 0 .3-.1.6-.4.9-.3.3-.6.4-.9.4h-2.5c-.4 0-.7-.1-.8-.3-.2-.2-.4-.5-.6-.9-.7-1.8-1.6-3.1-2.8-3.9-1.2-.8-2.7-1.1-4.5-1.1-2.4 0-4.1999.7-5.5999 2.2-1.4 1.5-2.1 3.7-2.2 6.7l-.1 2 .1 2c.1 3 .9 5.2 2.2 6.7 1.4 1.5 3.1999 2.2 5.5999 2.2 1.8 0 3.3-.4 4.5-1.1 1.2-.8 2.1-2.1 2.7-3.9.2-.4.4-.8.6-.9.2-.2.5-.3.8-.3h2.5c.3 0 .6.1.9.4.3.3.4.6.4.9-.1 1.4-.6 2.8-1.5 4.2-.9 1.4-2.3 2.6-4.1 3.6-1.8 1-4.1 1.5-6.8 1.5-3.8999-.4-6.9999-1.5-9.2999-3.8zM123.6 243v-15h-4.4c-.4 0-.7-.1-.9-.3-.2-.2-.3-.5-.3-.9V225c0-.4.1-.7.3-.9.2-.2.5-.4.9-.4h4.4v-9.4c0-.4.1-.7.3-.9.2-.2.5-.4.9-.4h2.5c.4 0 .7.1.9.4.2.2.4.6.4.9v9.4h6.9c.4 0 .7.1.9.4.2.2.4.6.4.9v1.8c0 .4-.1.7-.4.9-.2.2-.6.3-.9.3h-6.9v14.6c0 1.9.3 3.3.9 4.3.6 1 1.7 1.5 3.2 1.5h3.4c.4 0 .7.1.9.4.2.2.3.6.3.9v1.8c0 .4-.1.7-.3.9-.2.2-.5.4-.9.4h-3.8c-5.8 0-8.7-3.3-8.7-9.8zm18.5 9.4c-.2-.2-.4-.5-.4-.9V225c0-.4.1-.7.4-1 .2-.3.5-.4.9-.4h2.4c.4 0 .7.1 1 .4.2.2.4.6.4 1v2.5c1.5-2.5 4.1-3.8 7.8-3.8h2.2c.4 0 .7.1 1 .3.2.2.3.5.3 1v2.1c0 .4-.1.7-.3.9-.2.2-.5.4-1 .4h-3.2c-2.1 0-3.7.6-4.8 1.8-1.2 1.2-1.8 2.8-1.8 4.9v16.5c0 .4-.1.7-.4.9-.3.2-.6.4-1 .4H143c-.4-.1-.7-.3-.9-.5zm21.3-2.6c-2.2-2.3-3.4-5.4-3.6-9.2l-.1-2.4.1-2.4c.1-3.8 1.4-6.9 3.6-9.2 2.3-2.3 5.4-3.5 9.4-3.5s7.2 1.2 9.4 3.5c2.3 2.3 3.5 5.4 3.6 9.2.1.8.1 1.6.1 2.4 0 .8 0 1.6-.1 2.4-.2 3.8-1.3 6.9-3.6 9.2-2.2 2.3-5.4 3.5-9.5 3.5-3.9 0-7-1.1-9.3-3.5zm15.2-3c1.4-1.5 2.2-3.7 2.3-6.5 0-.4.1-1.1.1-2.1s0-1.8-.1-2.1c-.1-2.8-.9-5-2.3-6.5s-3.3-2.3-5.7-2.3c-2.4 0-4.3.8-5.7 2.3-1.4 1.5-2.2 3.7-2.3 6.5l-.1 2.1.1 2.1c.1 2.8.9 5 2.3 6.5s3.3 2.3 5.7 2.3c2.4 0 4.3-.7 5.7-2.3zm27.2 3.1c-2.1-2.3-3.2-5.4-3.4-9.5l-.1-2.2.1-2.2c.1-4.1 1.2-7.2 3.4-9.5 2.1-2.3 5.1-3.4 9-3.4 2.5 0 4.6.4 6.3 1.3 1.7.9 3 2 3.9 3.4.9 1.4 1.3 2.8 1.4 4.2 0 .3-.1.6-.3.9-.3.2-.6.4-.9.4h-.8c-.4 0-.6-.1-.8-.3-.2-.2-.3-.5-.5-.9-.7-2.1-1.8-3.5-3.1-4.4-1.3-.9-3-1.3-5.1-1.3-2.7 0-4.8.8-6.4 2.4-1.6 1.6-2.4 4.1-2.5 7.5l-.1 2 .1 2c.1 3.4 1 5.9 2.5 7.5 1.6 1.6 3.7 2.4 6.4 2.4 2.1 0 3.8-.4 5.1-1.3 1.3-.9 2.4-2.3 3.1-4.4.2-.4.4-.8.5-.9.1-.1.4-.3.8-.3h.8c.3 0 .6.1.9.4.3.2.4.5.3.9-.1 1.5-.5 2.9-1.4 4.2-.9 1.4-2.2 2.5-3.9 3.4-1.7.9-3.8 1.3-6.3 1.3-3.8-.2-6.8-1.3-9-3.6zm27.3 2.5c-.2-.2-.3-.5-.3-.9v-37.3c0-.4.1-.7.3-.9.2-.2.5-.3.9-.3h1c.4 0 .7.1.9.3.2.2.3.5.3.9v37.3c0 .4-.1.7-.3.9-.2.2-.5.3-.9.3h-1c-.4.1-.7-.1-.9-.3zm13.1-2.6c-2.1-2.4-3.3-5.4-3.4-9.2l-.1-2.4.1-2.4c.1-3.8 1.2-6.8 3.4-9.2 2.1-2.4 5.2-3.6 9-3.6s6.9 1.2 9 3.6c2.1 2.4 3.3 5.4 3.4 9.2 0 .4.1 1.2.1 2.4s0 2-.1 2.4c-.1 3.8-1.2 6.8-3.4 9.2-2.1 2.4-5.2 3.6-9 3.6s-6.8-1.3-9-3.6zm15.5-2.3c1.6-1.7 2.5-4.1 2.6-7.3 0-.4.1-1.1.1-2.1s0-1.7-.1-2.1c-.1-3.1-1-5.6-2.6-7.3-1.6-1.7-3.8-2.5-6.4-2.5-2.7 0-4.8.8-6.4 2.5-1.6 1.7-2.5 4.1-2.6 7.3l-.1 2.1.1 2.1c.1 3.1 1 5.6 2.6 7.3 1.6 1.7 3.8 2.5 6.4 2.5 2.6.1 4.8-.8 6.4-2.5zm15.2 2.3c-1.9-2.3-2.9-5.3-2.9-9.1v-15.9c0-.4.1-.7.3-.9.2-.2.5-.3.9-.3h1c.4 0 .7.1.9.3.2.2.3.5.3.9v15.6c0 6.4 2.8 9.6 8.3 9.6 2.7 0 4.8-.8 6.4-2.5 1.6-1.7 2.4-4 2.4-7v-15.6c0-.4.1-.7.3-.9.2-.2.5-.3.9-.3h1c.4 0 .7.1.9.3.2.2.3.5.3.9v26.7c0 .4-.1.7-.3.9-.2.2-.5.3-.9.3h-1c-.4 0-.7-.1-.9-.3-.2-.2-.3-.5-.3-.9V249c-1.1 1.5-2.4 2.6-3.8 3.3-1.4.7-3.3 1.1-5.5 1.1-3.6-.1-6.4-1.2-8.3-3.6zm30.7-.4c-1.9-2.6-2.9-5.8-3.1-9.6l-.1-1.6.1-1.6c.1-3.8 1.1-7 3.1-9.6 1.9-2.6 4.9-3.9 8.9-3.9 4.1 0 7.2 1.5 9.4 4.4v-13.3c0-.4.1-.7.3-.9.2-.2.5-.3.9-.3h1c.4 0 .7.1.9.3.2.2.3.5.3.9v37.3c0 .4-.1.7-.3.9-.2.2-.5.3-.9.3h-1c-.4 0-.7-.1-.9-.3-.2-.2-.3-.5-.3-.9v-2.6c-2.2 3-5.3 4.4-9.4 4.4-4 0-7-1.3-8.9-3.9zm15.9-2.3c1.5-2 2.3-4.3 2.4-6.9 0-.4.1-1.1.1-2.2s0-1.8-.1-2.2c0-1.6-.4-3.1-1.1-4.6-.7-1.5-1.7-2.6-3-3.6-1.3-.9-3-1.4-5-1.4-3 0-5.2 1-6.6 2.9-1.4 1.9-2.2 4.4-2.3 7.4l-.1 1.6c0 3.5.7 6.3 2 8.5s3.7 3.3 6.9 3.3c3.1.2 5.3-.8 6.8-2.8z"/><path fill="url(#paint0_linear)" fill-rule="evenodd" d="M68.9004 85.8l17.4-9.8L170.5 123.8l64.9-37.9-83.2-48.3 18.3-10.1 102.4 58.8V37.9l-18.6 10.8L170.5 0l-66.7 38.2 83.8 48.2-16.9 9.6-15-8.5-86.7996-49.3v47.6z" clip-rule="evenodd"/><path fill="#00BCEB" fill-rule="evenodd" d="M68.9004 85.6001L170.5 144.2l102.4-57.7999V117.3l-102.4 58.6-101.5996-58.6V85.6001z" clip-rule="evenodd"/><defs><linearGradient id="paint0_linear" x1="170.876" x2="170.876" y1="120.978" y2="2.053" gradientUnits="userSpaceOnUse"><stop stop-color="#00BCEB"/><stop offset=".383" stop-color="#198AEF"/><stop offset="1" stop-color="#4432F5"/></linearGradient></defs></svg>