<svg xmlns="http://www.w3.org/2000/svg" role="img" viewBox="44.26 55.51 350.74 128.99"><title>Spin logo</title><path fill="#0D203F" d="M99.0419 72.2202c-2.9651 0-5.8579.2807-8.6693.7969-.1085.0181-.1989-.0634-.1989-.1721V62.6847c0-.2355-.1898-.4347-.4339-.4347H78.9191c-.235 0-.4339.1902-.4339.4347V76.757c0 .0634-.0362.1268-.0995.154-16.0638 7.7153-27.1648 24.169-27.1648 43.213s11.101 35.489 27.1648 43.213c.0633.028.0995.091.0995.154v14.073c0 .235.1898.434.4339.434h10.8207c.2351 0 .4339-.19.4339-.434v-10.17c0-.108.0995-.19.1989-.172 2.8114.516 5.7042.797 8.6693.797 26.4141 0 47.8211-21.444 47.8211-47.904 0-26.4603-21.416-47.8948-47.8211-47.8948zM62.4756 120.124c0-12.451 6.2375-23.4628 15.7384-30.0915.1175-.0815.2802 0 .2802.1449v59.8936c0 .145-.1627.226-.2802.145-9.5009-6.62-15.7384-17.64-15.7384-30.092zm40.6164 36.413c-4.3756.48-8.6062.172-12.5838-.788-.1989-.045-.3345-.227-.3345-.426V84.9342c0-.1992.1356-.3803.3345-.4256 2.7391-.6611 5.5957-1.0142 8.5427-1.0142 20.8911 0 37.7501 17.6406 36.5031 38.8396-1.04 17.676-14.889 32.274-32.453 34.203h-.009zm76.342-27.674c.198-.254.578-.208.741.063 3.706 6.448 10.332 9.799 17.221 9.799 6.888 0 11.074-2.572 11.074-7.453 0-4.084-3.101-5.415-7.35-6.475l-11.254-2.572c-7.793-1.775-13.913-6.121-13.913-15.439 0-10.1156 7.973-17.0431 19.843-17.0431 9.754 0 16.95 4.2924 21.307 10.3411.126.181.108.426-.045.58l-6.229 6.556c-.208.218-.569.172-.714-.09-2.712-4.791-7.404-8.3315-14.328-8.3315-5.578 0-9.483 2.6625-9.483 7.2805 0 3.994 3.01 5.234 7.087 6.212l10.369 2.482c9.564 2.218 15.151 6.655 15.151 16.064 0 10.831-9.483 16.952-21.533 16.952-10.405 0-18.993-4.147-23.82-11.075-.118-.163-.109-.389.018-.552l5.839-7.29.019-.009zm66.687-2.554v19.95c0 .253-.199.453-.452.453h-10.17c-.253 0-.452-.2-.452-.453V91.2553c0-.2536.199-.4528.452-.4528h20.276c14.175 0 22.41 6.3932 22.41 17.4865 0 11.093-8.235 17.577-22.41 17.577h-9.202c-.253 0-.452.199-.452.452v-.009zm9.211-9.508c7.974 0 12.051-2.662 12.051-8.521 0-5.859-4.077-8.431-12.051-8.431h-8.759c-.253 0-.452.199-.452.453v16.046c0 .254.199.453.452.453h8.759zm33.647 29.467v-8.766c0-.253.199-.453.452-.453h13.985c.253 0 .452-.199.452-.452v-35.67c0-.254-.199-.453-.452-.453h-13.985c-.253 0-.452-.199-.452-.453v-8.7657c0-.2536.199-.4528.452-.4528h40.028c.254 0 .452.1992.452.4528v8.7657c0 .254-.198.453-.452.453h-13.975c-.253 0-.452.199-.452.453v35.66c0 .254.199.453.452.453h13.975c.254 0 .452.199.452.453v8.766c0 .253-.198.453-.452.453h-40.028c-.253 0-.452-.2-.452-.453v.009zm89.242-18.926V91.2553c0-.2536.198-.4528.452-.4528h9.193c.253 0 .452.1992.452.4528v55.0037c0 .253-.199.453-.452.453h-9.474c-.162 0-.316-.091-.397-.236l-22.501-40.741c-.226-.407-.849-.244-.849.217v40.307c0 .253-.199.453-.452.453h-9.194c-.253 0-.452-.2-.452-.453V91.2553c0-.2536.199-.4528.452-.4528h12.394c.162 0 .316.0905.397.2354l19.581 36.5121c.226.417.85.254.85-.217v.009z"/></svg>