<svg viewBox="-10.94 42.06 984.88 457.88" xmlns="http://www.w3.org/2000/svg"><title>Spotinst Functions</title><path fill="#1488C5" d="M104.4 395.6c0 6.5-1.3 12.4-3.6 17.9s-5.8 10.1-10.1 14c-4.5 3.9-9.8 7.1-16.6 9.1-6.5 2.3-14.3 3.3-22.8 3.3-16.6 0-32.8-3.6-42.3-7.2V395h14.7c3.3 0 5.2 1.9 5.9 4.9.3 1.3.7 4.9 1.9 15.3 7.1 2 15.3 2 21.1 2 3.9 0 7.2-.6 9.8-1.3 2.9-1 4.9-2 6.8-3.6s3.2-2.9 3.9-4.9c.7-2 1-4.2 1-6.2 0-3.2-.7-5.5-2.6-7.5s-4.5-3.6-7.5-5.2c-3.2-1.6-6.5-2.9-10.4-3.9-3.9-1.3-8.1-2.6-12.3-3.9s-8.1-3.2-12-4.9c-3.9-1.9-7.5-4.2-10.7-7.1s-5.5-6.2-7.2-10.4-2.9-9.1-2.9-15c0-5.5 1-10.7 3.2-15.6s5.5-9.4 9.7-13 9.7-6.8 15.9-8.8 13.3-3.3 21.5-3.3c13 0 20.2 1.3 39 7.1h-.3v37.7H82.7c-3.3 0-5.2-1.9-5.9-4.9-.3-1.3-.7-4.5-1.9-14.6-3.3-1-9.7-1.9-15.6-1.9-6.2 0-11.1 1.3-14.9 3.9-3.6 2.6-5.5 6.2-5.5 10.7 0 2.9 1 5.2 2.9 7.2s4.2 3.3 7.2 4.9c3.2 1.6 6.5 3.2 10.4 4.2s7.8 2.3 12 3.6 8.4 3.2 12.3 4.9c3.9 1.9 7.2 3.9 10.4 6.8 3.2 2.6 5.5 5.8 7.2 9.7 2 3.9 3.1 8.2 3.1 13.7zm149.3-25.4c0 9.8-1.6 19.2-4.2 27.9-2.6 8.5-6.5 15.9-11.4 22.1s-11 11-17.9 14.6c-7.1 3.6-15 5.2-24 5.2-7.5 0-13.7-1-18.9-3.3s-10.1-5.5-14.3-9.7v28.9c3.3.6 5.9 1.3 7.8 1.6 1.9.3 3.2.3 3.9.6.7.3 1.3.3 1.6.3 4.5 1 6.5 3.9 6.5 8.4v15h-71.5v-15.3c0-4.5 2-7.2 6.5-8.4.3 0 .7-.3 1.6-.3.7 0 2-.3 3.9-.6s4.6-1 7.8-1.6V330.2c-3.2-.6-5.9-1-7.8-1.3s-3.2-.7-3.9-.7c-.7 0-1.3-.3-1.6-.3-4.5-1-6.5-3.6-6.5-8.1v-15.2h39.3c2 0 3.9.6 5.5 1.6s2.3 2.3 2.9 4.5l2.6 12.3c5.5-6.2 11.4-11 18.5-14.9s15-5.8 24.4-5.8c7.2 0 14 1.3 20.1 4.5 5.9 3.2 11.1 7.5 15.6 13.3s7.8 13 10.1 21.4c2.1 8.3 3.4 17.7 3.4 28.7zm-33.3.1c0-7.8-.6-14.6-1.9-20.1-1.3-5.5-3.2-9.7-5.5-13s-5.2-5.9-8.5-7.5-7.1-2.3-11.1-2.3c-6.8 0-12.4 1.3-17.2 4.2-4.6 2.9-9.1 6.8-13.3 12v59.8c3.6 4.5 7.8 7.5 12 9.4s8.8 2.6 13.7 2.6 9.4-.7 13.3-2.6c3.9-1.9 7.1-4.6 9.8-8.4 2.6-3.6 4.9-8.4 6.5-14 1.6-5.8 2.2-12.3 2.2-20.1zm134.7-62.8c8.1 3.2 15 7.5 20.8 13.6 5.8 5.9 9.8 13 13 21.5s4.6 17.9 4.6 28.3c0 10.7-1.6 20.1-4.6 28.6s-7.2 15.9-13 21.8-12.7 10.7-20.8 13.7c-8.1 3.2-17.2 4.6-27 4.6s-19.2-1.6-27.3-4.6c-8.1-3.2-15-7.8-20.8-13.7-5.8-5.9-10.4-13.3-13.6-21.8s-4.6-17.9-4.6-28.6c0-10.4 1.6-19.8 4.6-28.3 3.2-8.5 7.8-15.6 13.6-21.5s12.7-10.4 20.8-13.6c8.1-3.2 17.5-4.9 27.3-4.9s19.1 1.7 27 4.9zm-2.6 96.5c5.2-7.5 8.1-18.5 8.1-32.8s-2.9-25.3-8.1-32.8-13.3-11.4-24.4-11.4-19.5 3.9-25 11.4-8.4 18.8-8.4 33.1 2.9 25 8.4 32.5 13.7 11.1 25 11.1 19.2-3.6 24.4-11.1zM587 422.7V438h-71.5v-15.3c0-4.5 2-7.1 6.5-8.1.3 0 .7-.3 1.6-.3.7-.3 2-.6 3.9-.7s4.6-.7 7.8-1.3v-82c-3.2-.6-5.9-1-7.8-1.3-1.9-.3-3.2-.7-3.9-.7s-1.3-.3-1.6-.3c-4.5-1-6.5-3.6-6.5-8.1v-15.3h51.7v107.7c3.2.6 5.9 1 7.8 1.3 1.9.3 3.2.7 3.9.7s1.3.3 1.6.3c4.4 1.1 6.5 3.7 6.5 8.1zm-16.7-149.3c-1 2.3-2.6 4.6-4.5 6.5s-3.9 3.3-6.5 4.5c-2.6 1-5.2 1.6-8.1 1.6-2.9 0-5.5-.6-8.1-1.6s-4.5-2.6-6.2-4.5c-1.9-1.9-3.3-4.2-4.5-6.5-1-2.3-1.6-4.9-1.6-7.8s.6-5.5 1.6-8.1 2.6-4.6 4.5-6.5 3.6-3.2 6.2-4.2 5.2-1.9 8.1-1.9c2.9 0 5.5.7 8.1 1.9 2.6 1 4.6 2.3 6.5 4.2s3.3 3.9 4.5 6.5c1 2.6 1.9 5.2 1.9 8.1 0 2.8-.9 5.4-1.9 7.8zm181.9 149.3V438h-51.7v-84.8c0-8.1-2-14.6-5.8-18.9-3.6-4.5-9.4-6.8-16.9-6.8-5.5 0-10.7 1.3-15.6 3.9s-9.4 5.8-13.7 10.1v70.8c3.2.6 5.8 1 7.5 1.3s3.2.6 3.9.7 1.3.3 1.6.3c4.5 1 6.5 3.6 6.5 8.1V438h-71.2v-15.3c0-4.5 2-7.1 6.5-8.1.3 0 .7-.3 1.6-.3.7-.3 2-.6 3.9-.7 1.9-.3 4.5-.7 7.5-1.3v-82c-3.2-.6-5.8-1-7.5-1.3-1.9-.3-3.2-.7-3.9-.7-.7-.3-1.3-.3-1.6-.3-4.5-1-6.5-3.6-6.5-8.1v-15.3H636c4.2 0 6.8 2 8.1 5.9l2.3 10.4c2.6-2.9 5.2-5.2 8.4-7.5 2.9-2.3 6.2-4.2 9.7-5.8 3.5-1.6 6.8-3.2 10.7-3.9 3.9-.7 8.1-1.3 12.4-1.3 7.2 0 13.7 1 19.5 3.6 5.8 2.3 10.1 5.9 14 10.4 3.6 4.5 6.5 9.8 8.5 16.2 2 6.2 2.9 13 2.9 20.5v59.1c3.2.6 5.9 1 7.8 1.3 1.9.3 3.2.7 3.9.7s1.3.3 1.6.3c4.3 1.2 6.4 3.8 6.4 8.2zm105.9-27.1c0 6.5-1.3 12.4-3.6 17.9s-5.8 10.1-10.1 14c-4.5 3.9-9.8 7.1-16.6 9.1-6.5 2.3-14.3 3.3-22.8 3.3-16.6 0-32.8-3.6-42.3-7.2V395h15.2c3.3 0 5.2 1.9 5.9 4.9.3 1.3.7 4.9 1.9 15.3 7.1 2 15.3 2 21.1 2 3.9 0 7.2-.6 9.8-1.3 2.9-1 4.9-2 6.8-3.6 1.9-1.6 3.2-2.9 3.9-4.9s1-4.2 1-6.2c0-3.2-.7-5.5-2.6-7.5-1.9-2-4.5-3.6-7.5-5.2s-6.5-2.9-10.4-3.9c-3.9-1.3-8.1-2.6-12.3-3.9s-8.1-3.2-12-4.9c-3.9-1.9-7.5-4.2-10.7-7.1s-5.5-6.2-7.2-10.4-2.9-9.1-2.9-15c0-5.5 1-10.7 3.2-15.6 2-4.9 5.5-9.4 9.7-13s9.7-6.8 15.9-8.8 13.3-3.3 21.5-3.3c13 0 20.2 1.3 39 7.1h-.6v37.7h-14.9c-3.3 0-5.2-1.9-5.9-4.9-.3-1.3-.7-4.5-1.9-14.6-3.3-1-9.7-1.9-15.6-1.9-6.2 0-11.1 1.3-14.9 3.9-3.6 2.6-5.5 6.2-5.5 10.7 0 2.9 1 5.2 2.9 7.2s4.2 3.3 7.2 4.9 6.5 3.2 10.4 4.2 7.8 2.3 12 3.6c4.2 1.3 8.4 3.2 12.3 4.9 3.9 1.9 7.2 3.9 10.4 6.8 3.2 2.6 5.5 5.8 7.2 9.7 2 3.9 3 8.2 3 13.7zm35.8 34.6c-6.2-6.5-9.4-15.6-9.4-27v-74.4H871c-1.9 0-3.2-.7-4.5-1.9-1.3-1.2-2-2.6-2-4.9v-13l21.5-3.3 6.8-36.4c.3-1.9 1-2.9 2.3-3.9s3.2-1.6 4.9-1.6h16.6V306h35.1v22.8h-35.1V401c0 4.2 1 7.2 3.2 9.7 2 2.3 4.9 3.3 8.4 3.3 2 0 3.6 0 4.9-.6s2.3-1 3.3-1.6 2-1 2.9-1.6c.7-.6 1.3-.6 2-.6 1 0 2 0 2.6.6s1 1 1.9 2l9.7 15.6c-4.6 3.9-10.1 6.8-16.2 8.8-5.9 2-12.3 3.2-18.8 3.2-11.2.3-20.3-3.1-26.6-9.6zm-463.5 0c-6.2-6.5-9.4-15.6-9.4-27v-74.4h-13.6c-1.9 0-3.2-.7-4.5-1.9-1.3-1-2-2.6-2-4.9v-13l21.5-3.3 6.8-36.4c.3-1.9 1-2.9 2.3-3.9s3.2-1.6 4.9-1.6H453V306h35.1v22.8H453V401c0 4.2 1 7.2 3.2 9.7 2 2.3 4.9 3.3 8.4 3.3 2 0 3.6 0 4.9-.6s2.3-1 3.3-1.6 2-1 2.9-1.6c.7-.6 1.3-.6 2-.6 1 0 2 0 2.6.6s1 1 1.9 2l9.7 15.6c-4.6 3.9-10.1 6.8-16.2 8.8-5.9 2-12.3 3.2-18.8 3.2-11.2.3-20.3-3.1-26.5-9.6z"/><path fill="#1488C5" d="M472.5 395.9l6.5 12.6-18.9 9.8 9.8 18.9 18.9-9.8 6.5 12.6 10.7-33.5-33.5-10.6zm-77.6-225.3c-12.3-32.7-43.8-55.9-80.8-55.9-8.5 0-16.8 1.3-24.4 3.5-21.2-34-58.7-56.7-101.7-56.7-65 0-117.9 52-119.4 116.8C45 192 28.9 217.6 28.9 246.9c8.8-.1 17.6-.1 26.6 0 .1-25 17.5-46 40.9-51.3-.7-4.8-1.2-9.7-1.2-14.6 0-51.3 41.6-92.9 92.9-92.9 41.9 0 77.5 27.9 88.9 66.1 10.3-8.1 23.1-13 37.1-13 30.8 0 56.1 23.3 59.4 53h.4c28.2 0 51 22.1 52.8 49.9 8.8 0 17.8 0 26.6.1-1.5-35.2-25.6-64.7-58.4-73.6z"/></svg>