<svg xmlns="http://www.w3.org/2000/svg" viewBox="0.12 -2.88 357.76 299.76"><title>Spring Cloud Sleuth logo</title><style>svg {enable-background:new 0 0 360 300}</style><g><g><g><path fill="#6cb23f" d="M119.6 71c-6.3-3.3-12.7-6.4-19.8-7.4-3.3-.5-6.4-1.7-9.7-1.8-2.6-.1-3-1.5-1.7-3.6 2.5-4.1 5.3-7.9 8.4-11.6 16.9-20 37.9-33.4 63.4-39.3 8.8-2 17.7-3.3 26.7-3.2 23.6.4 45.6 6.6 65.2 20 5 3.4 10.1 7 14.4 11.5 3.2 3.4 3.6 3.3 6.2-.8 3-4.6 5.1-9.6 7.7-14.4.4-.8.6-2 1.7-1.9 1.1.1 1.3 1.2 1.6 2 4.2 12.3 7.9 24.6 11.1 37.2 2.5 9.8 4.8 19.6 6.2 29.6.2 1.8 1.2 2.9 3.1 3.6 19.5 7.5 33.9 20.6 42.1 39.9 7.1 16.6 7.6 33.8 2.3 51-4.6 15-13.7 27.2-26.2 36.5-12.3 9.1-26.3 13.9-41.7 13.9-63.7.1-127.5.1-191.2 0-25.9-.1-47.5-10.4-63.6-30.5-16.9-21.2-22-45.6-15.7-72.2 3.6-15.2 11.2-28.3 22.4-39.1 9.5-9.2 20.6-16.3 33.4-19.7 16.7-4.3 33.7-5.1 50.4.7.9.3 2 .4 3 .5.1-.4.2-.6.3-.9zm28.6 127c1.1.8 2.1.5 3.1.4 6.9-.9 13.9-.7 20.8-.3 12.9.8 25.7.5 38.6.5 15.3 0 30.3-2.2 44.6-7.7 9.9-3.8 18.3-9.8 24.8-18 12.2-15.5 16.7-33.8 17.3-53.2.5-15.1-1.9-29.9-4.6-44.7-2.4-13.3-6.4-26.2-10.4-39.1-.2-.7-.4-1.3-1.2-1.4-1-.1-1.4.6-1.8 1.3-2.7 3.9-5.2 8-8.4 11.6-5.5 6.2-11.9 11.4-18.6 16.4-12.7 9.4-26.8 15.5-42 18.6-11.2 2.3-22.8 2.7-34.3 3.1-15.7.6-30.6 4.1-43.8 13.2-10.3 7.1-17.6 16.6-22.2 28.2-3 7.6-3.4 15.4-3.3 23.5.2 12.6 5 22.9 14.9 30.7 2.4 1.9 4.8 2.5 7.9 2 16.4-3.1 32.6-7.1 48.7-11.8 11.5-3.4 22.6-7.8 32.8-14 13.9-8.5 26.9-18.2 37.6-30.8 7.1-8.5 14-17.1 18.3-27.4.5-1.3 1.3-2.4 1.9-3.6.7-1.2.9-2.6 2.7-3.8-1.3 7.6-3.3 14.4-6.2 20.8-5.2 11.3-11.6 21.8-19.7 31.4-7.4 8.8-15.6 16.4-24.5 23.4-15.1 11.9-32.7 18.4-51 23.6-7.4 1.8-14.9 3.7-22 7.1zm-22.4 1.8c-.1-4.6-4.6-9.3-8.8-9.2-4.8.1-9.6 5.2-9.5 9.8.1 4.6 4.7 8.8 9.6 8.8 5 .2 8.8-4 8.7-9.4z"/></g></g><g><path d="M22.3 275.7c0 1 .2 1.8.5 2.5s.8 1.2 1.4 1.7c.6.4 1.3.7 2 .9.8.2 1.6.3 2.5.3 1 0 1.8-.1 2.4-.3s1.2-.5 1.6-.9.7-.8.9-1.2c.2-.5.3-.9.3-1.4 0-1-.2-1.7-.6-2.1-.4-.5-.9-.8-1.4-1-.9-.3-1.9-.6-3.1-.9-1.2-.3-2.6-.7-4.4-1.1-1.1-.3-2-.6-2.7-1.1-.7-.5-1.3-1-1.7-1.5-.4-.6-.7-1.2-.9-1.8-.2-.6-.3-1.3-.3-1.9 0-1.3.3-2.4.8-3.3.5-.9 1.2-1.7 2.1-2.3.9-.6 1.8-1.1 2.9-1.3 1.1-.3 2.2-.4 3.3-.4 1.3 0 2.5.2 3.7.5 1.2.3 2.2.8 3 1.5s1.6 1.5 2.1 2.5.8 2.1.8 3.4h-4.4c-.1-1.6-.7-2.7-1.6-3.4s-2.2-1-3.7-1c-.5 0-1 .1-1.6.2-.5.1-1 .3-1.5.5-.4.2-.8.6-1.1 1-.3.4-.4.9-.4 1.6 0 .9.3 1.6.8 2.1s1.3.9 2.2 1.1c.1 0 .5.1 1.1.3.6.2 1.4.4 2.2.6.8.2 1.6.4 2.3.6.8.2 1.3.3 1.6.4.8.3 1.5.6 2.1 1 .6.4 1.1 1 1.5 1.5.4.6.7 1.2.9 1.8.2.7.3 1.3.3 2 0 1.4-.3 2.6-.9 3.6-.6 1-1.3 1.8-2.3 2.4-.9.6-2 1.1-3.2 1.4-1.2.3-2.4.4-3.6.4-1.4 0-2.8-.2-4-.5-1.3-.4-2.4-.9-3.3-1.6-.9-.7-1.7-1.7-2.2-2.8-.6-1.1-.9-2.5-.9-4h4.5zm19.4-9.8h3.8v2.5h.1c.6-1.1 1.3-1.8 2.3-2.3 1-.5 2.1-.7 3.3-.7 1.4 0 2.7.3 3.7.8 1.1.5 1.9 1.2 2.6 2.1.7.9 1.2 1.9 1.6 3.1.4 1.2.5 2.4.5 3.7 0 1.2-.2 2.4-.5 3.5s-.8 2.2-1.4 3-1.5 1.6-2.4 2.1c-1 .5-2.1.8-3.5.8-.6 0-1.2-.1-1.8-.2-.6-.1-1.1-.3-1.7-.5-.5-.2-1-.5-1.5-.9s-.8-.8-1.1-1.3h-.1v9h-4v-24.7zm13.9 9.1c0-.8-.1-1.6-.3-2.4-.2-.8-.5-1.5-.9-2-.4-.6-.9-1.1-1.6-1.4-.6-.4-1.4-.5-2.2-.5-1.7 0-2.9.6-3.8 1.8-.9 1.2-1.3 2.7-1.3 4.7 0 .9.1 1.8.3 2.5.2.8.6 1.5 1 2 .4.6 1 1 1.6 1.3.6.3 1.3.5 2.2.5.9 0 1.7-.2 2.3-.6s1.1-.9 1.6-1.5c.4-.6.7-1.3.9-2 .1-.9.2-1.6.2-2.4zm7.3-9.1h3.7v3.5h.1c.1-.5.3-1 .7-1.4.3-.5.7-.9 1.2-1.3s1-.7 1.6-.9c.6-.2 1.2-.3 1.8-.3h1c.2 0 .4 0 .5.1v3.9c-.3 0-.6-.1-.9-.1-.3 0-.6-.1-.9-.1-.7 0-1.3.1-1.9.4s-1.1.7-1.6 1.2c-.4.5-.8 1.2-1 1.9-.3.8-.4 1.7-.4 2.7v8.6h-4v-18.2zm12.5-6.9h4v3.8h-4V259zm0 6.9h4V284h-4v-18.1zm8.3 0h3.8v2.7l.1.1c.6-1 1.4-1.8 2.4-2.4 1-.6 2.1-.9 3.3-.9 2 0 3.5.5 4.7 1.5 1.1 1 1.7 2.6 1.7 4.6V284h-4v-11.4c0-1.4-.4-2.5-.9-3.1-.6-.6-1.4-1-2.6-1-.7 0-1.3.1-1.8.4-.5.2-1 .6-1.4 1-.4.4-.7.9-.9 1.5-.2.6-.3 1.2-.3 1.9V284h-4v-18.1zm36.8 17.1c0 2.7-.8 4.8-2.3 6.1-1.5 1.3-3.7 2-6.6 2-.9 0-1.8-.1-2.7-.3-.9-.2-1.8-.5-2.5-.9-.8-.4-1.4-1-1.9-1.8-.5-.7-.8-1.6-.9-2.7h4c.1.6.3 1 .6 1.4.3.3.6.6 1 .8s.8.3 1.3.4 1 .1 1.5.1c1.6 0 2.8-.4 3.5-1.2.7-.8 1.1-1.9 1.1-3.4v-2.8h-.1c-.6 1-1.3 1.8-2.3 2.3-1 .6-2 .8-3.1.8-1.4 0-2.7-.2-3.7-.8-1-.5-1.9-1.2-2.5-2.1s-1.1-1.9-1.5-3c-.3-1.1-.5-2.4-.5-3.7 0-1.2.2-2.4.6-3.5.4-1.1.9-2.1 1.6-2.9s1.6-1.5 2.6-2 2.2-.7 3.4-.7c1.1 0 2.2.2 3.1.7 1 .5 1.7 1.2 2.2 2.3h.1v-2.5h4V283zm-8.8-2.2c.9 0 1.6-.2 2.3-.5.6-.4 1.1-.8 1.5-1.4.4-.6.7-1.3.8-2 .2-.8.3-1.5.3-2.3 0-.8-.1-1.5-.3-2.2-.2-.7-.5-1.4-.9-1.9-.4-.6-.9-1-1.5-1.3-.6-.3-1.4-.5-2.2-.5-.9 0-1.6.2-2.2.6-.6.4-1.1.9-1.5 1.5-.4.6-.6 1.3-.8 2-.2.8-.2 1.5-.2 2.3s.1 1.5.3 2.2c.2.7.5 1.3.9 1.9.4.6.9 1 1.5 1.4.4.1 1.1.2 2 .2zm40-13.9c-.2-.7-.4-1.4-.8-2-.3-.6-.7-1.1-1.3-1.6-.5-.4-1.1-.8-1.8-1-.7-.2-1.5-.4-2.4-.4-1.3 0-2.5.3-3.4.8-1 .5-1.8 1.3-2.4 2.2-.6.9-1.1 1.9-1.3 3.1-.3 1.1-.4 2.3-.4 3.5 0 1.2.1 2.4.4 3.5.3 1.1.7 2.2 1.3 3.1.6.9 1.4 1.6 2.4 2.2 1 .5 2.1.8 3.4.8 1 0 1.8-.2 2.6-.5.7-.3 1.4-.8 1.9-1.4.5-.6 1-1.3 1.3-2.1.3-.8.5-1.6.6-2.6h4.3c-.1 1.5-.4 2.9-1 4.1-.5 1.2-1.3 2.3-2.2 3.2-.9.9-2 1.6-3.3 2.1-1.3.5-2.6.7-4.2.7-1.9 0-3.5-.3-5-1s-2.7-1.6-3.8-2.8c-1-1.2-1.8-2.6-2.4-4.2s-.8-3.3-.8-5.1c0-1.8.3-3.5.8-5 .5-1.6 1.3-3 2.4-4.2 1-1.2 2.3-2.1 3.8-2.8 1.5-.7 3.2-1 5-1 1.4 0 2.7.2 4 .6 1.2.4 2.3.9 3.3 1.7.9.7 1.7 1.6 2.3 2.7.6 1.1.9 2.3 1.1 3.6h-4.4zm7.9-7.9h4v25h-4v-25zm16.7 25.5c-1.4 0-2.7-.2-3.9-.7s-2.1-1.1-2.9-2c-.8-.8-1.4-1.8-1.8-3-.4-1.2-.6-2.5-.6-3.9s.2-2.6.6-3.8c.4-1.2 1-2.2 1.8-3 .8-.8 1.7-1.5 2.9-2s2.4-.7 3.9-.7c1.4 0 2.7.2 3.9.7 1.1.5 2.1 1.1 2.9 2 .8.8 1.4 1.8 1.8 3s.6 2.4.6 3.8-.2 2.7-.6 3.9-1 2.2-1.8 3-1.7 1.5-2.9 2c-1.2.4-2.5.7-3.9.7zm0-3.2c.9 0 1.7-.2 2.3-.6.7-.4 1.2-.9 1.6-1.5.4-.6.7-1.3.9-2 .2-.8.3-1.5.3-2.3 0-.8-.1-1.5-.3-2.3-.2-.8-.5-1.5-.9-2-.4-.6-1-1.1-1.6-1.5-.7-.4-1.4-.6-2.3-.6-.9 0-1.7.2-2.3.6-.7.4-1.2.9-1.6 1.5-.4.6-.7 1.3-.9 2s-.3 1.5-.3 2.3c0 .8.1 1.6.3 2.3.2.8.5 1.4.9 2 .4.6 1 1.1 1.6 1.5.6.4 1.4.6 2.3.6zm28.3 2.7h-3.9v-2.5h-.1c-.5.9-1.2 1.6-2.2 2.2-1 .5-2 .8-3 .8-2.4 0-4.1-.6-5.2-1.8-1.1-1.2-1.6-3-1.6-5.3v-11.5h4V277c0 1.6.3 2.7.9 3.4.6.7 1.5 1 2.6 1 .8 0 1.5-.1 2.1-.4.6-.3 1-.6 1.4-1 .4-.4.6-1 .8-1.6.2-.6.2-1.3.2-2v-10.5h4V284zm21.3 0h-3.8v-2.5h-.1c-.5 1-1.3 1.8-2.3 2.3-1 .5-2.1.7-3.3.7-1.4 0-2.7-.3-3.7-.8-1.1-.5-1.9-1.2-2.6-2s-1.2-1.9-1.6-3.1c-.3-1.2-.5-2.4-.5-3.8 0-1.6.2-3 .7-4.2.4-1.2 1-2.2 1.8-2.9.7-.8 1.6-1.3 2.5-1.7.9-.4 1.9-.5 2.9-.5.6 0 1.1.1 1.7.2.6.1 1.1.3 1.7.5.5.2 1 .5 1.5.9s.8.8 1.1 1.3h.1V259h4v25zm-14-8.9c0 .8.1 1.5.3 2.3.2.7.5 1.4.9 2 .4.6.9 1 1.6 1.4.6.3 1.4.5 2.2.5.9 0 1.7-.2 2.3-.6.6-.4 1.2-.9 1.6-1.5.4-.6.7-1.3.9-2 .2-.8.3-1.5.3-2.3 0-2-.4-3.6-1.3-4.7s-2.1-1.7-3.7-1.7c-.9 0-1.7.2-2.4.6-.6.4-1.2.9-1.6 1.5s-.7 1.3-.9 2.1c-.1.8-.2 1.6-.2 2.4zm31.5.6c0 1 .2 1.8.5 2.5s.8 1.2 1.4 1.7c.6.4 1.3.7 2 .9.8.2 1.6.3 2.5.3 1 0 1.8-.1 2.5-.3.7-.2 1.2-.5 1.6-.9s.7-.8.9-1.2c.2-.5.3-.9.3-1.4 0-1-.2-1.7-.6-2.1-.4-.5-.9-.8-1.4-1-.9-.3-1.9-.6-3.1-.9-1.2-.3-2.6-.7-4.4-1.1-1.1-.3-2-.6-2.7-1.1-.7-.5-1.3-1-1.7-1.5-.4-.6-.7-1.2-.9-1.8-.2-.6-.3-1.3-.3-1.9 0-1.3.3-2.4.8-3.3.5-.9 1.2-1.7 2.1-2.3s1.8-1.1 2.9-1.3c1.1-.3 2.2-.4 3.3-.4 1.3 0 2.5.2 3.7.5 1.2.3 2.2.8 3 1.5s1.6 1.5 2.1 2.5.8 2.1.8 3.4h-4.4c-.1-1.6-.7-2.7-1.6-3.4-1-.7-2.2-1-3.7-1-.5 0-1 .1-1.6.2-.5.1-1 .3-1.5.5-.4.2-.8.6-1.1 1s-.4.9-.4 1.6c0 .9.3 1.6.8 2.1s1.3.9 2.2 1.1c.1 0 .5.1 1.1.3.6.2 1.4.4 2.2.6.8.2 1.6.4 2.3.6.8.2 1.3.3 1.6.4.8.3 1.5.6 2.1 1 .6.4 1.1 1 1.5 1.5.4.6.7 1.2.9 1.8s.3 1.3.3 2c0 1.4-.3 2.6-.9 3.6-.6 1-1.3 1.8-2.3 2.4-.9.6-2 1.1-3.2 1.4-1.2.3-2.4.4-3.6.4-1.4 0-2.8-.2-4-.5-1.3-.4-2.4-.9-3.3-1.6-.9-.7-1.7-1.7-2.2-2.8-.6-1.1-.9-2.5-.9-4h4.4zm19.3-16.7h4v25h-4v-25zm11.5 17c0 .7.1 1.4.3 2 .2.7.5 1.2.9 1.7s.9.9 1.5 1.2c.6.3 1.3.4 2.2.4 1.2 0 2.1-.2 2.8-.8s1.2-1.3 1.6-2.3h3.8c-.2 1-.6 1.9-1.1 2.6-.5.8-1.1 1.4-1.9 1.9-.7.5-1.5.9-2.4 1.2-.9.3-1.8.4-2.8.4-1.4 0-2.7-.2-3.8-.7s-2-1.1-2.8-2c-.8-.8-1.3-1.8-1.7-3s-.6-2.5-.6-3.9c0-1.3.2-2.5.6-3.7.4-1.2 1-2.2 1.8-3 .8-.9 1.7-1.6 2.7-2.1 1.1-.5 2.3-.8 3.6-.8 1.4 0 2.7.3 3.8.9s2.1 1.4 2.8 2.4c.7 1 1.3 2.1 1.6 3.4.3 1.3.4 2.6.3 3.9h-13.2zm9.3-2.7c0-.6-.2-1.2-.4-1.8s-.5-1.1-.9-1.5c-.4-.4-.9-.8-1.4-1-.5-.3-1.2-.4-1.8-.4-.7 0-1.3.1-1.9.4-.6.2-1.1.6-1.5 1-.4.4-.7.9-1 1.5-.2.6-.4 1.2-.4 1.9h9.3zm22.9 10.7h-3.9v-2.5h-.1c-.5.9-1.2 1.6-2.2 2.2-1 .5-2 .8-3 .8-2.4 0-4.1-.6-5.2-1.8-1.1-1.2-1.6-3-1.6-5.3v-11.5h4V277c0 1.6.3 2.7.9 3.4.6.7 1.5 1 2.6 1 .8 0 1.5-.1 2.1-.4.6-.3 1-.6 1.4-1 .4-.4.6-1 .8-1.6.2-.6.2-1.3.2-2v-10.5h4V284zm2.4-18.1h3v-5.4h4v5.4h3.6v3h-3.6v9.7c0 .4 0 .8.1 1.1 0 .3.1.6.2.8.1.2.3.4.6.5.3.1.6.2 1 .2h.8c.2 0 .6-.1.8-.1v3.1c-.4 0-.9.1-1.3.1s-.9.1-1.3.1c-1 0-1.9-.1-2.5-.3-.6-.2-1.1-.5-1.5-.9-.4-.4-.6-.9-.7-1.5-.1-.6-.2-1.2-.2-2V269h-3v-3.1zm13.4-6.9h4v9.3h.1c.5-.8 1.2-1.5 2.2-2 1-.5 2-.8 3.2-.8 2 0 3.5.5 4.7 1.5 1.1 1 1.7 2.6 1.7 4.6V284h-4v-11.4c0-1.4-.3-2.5-.9-3.1-.6-.6-1.4-1-2.6-1-.7 0-1.3.1-1.8.4-.5.2-1 .6-1.4 1-.4.4-.7.9-.9 1.5-.2.6-.3 1.2-.3 1.9V284h-4v-25z"/></g></g></svg>