<svg viewBox="-0.60 -4.60 576.20 655.20" xmlns="http://www.w3.org/2000/svg"><title>sso</title><defs><style>.cls-2{fill:#5f4cd4}.cls-3{fill:#4a3ab1}.cls-4{fill:#756cd8}.cls-5{fill:#2b207e}</style></defs><path fill="#867eee" d="M149.767 14.07c9.656-3.447 18.866-2.475 27.327 3.288 5.655 3.853 7.233 9.511 5.07 16.142a37.843 37.843 0 0 1-6.997 11.91c-5.883 7.274-12.104 14.283-17.8 21.697-4.258 5.542-6.68 12.127-8.775 18.762-6.367 20.16-7.818 40.95-6.17 61.79 2.14 27.052 17.261 44.554 42.611 53.55a91.391 91.391 0 0 0 27.51 4.828c8.485.306 13.114-4.101 13.58-13.025.282-5.407-.647-10.296-4.243-14.978a80.2 80.2 0 0 1-16.469-43.003c-1.738-21.365 5.21-40.14 18.416-56.722a79.156 79.156 0 0 1 26.333-21.232c3.123 5.473 8.781 7.686 13.906 10.37 15.178 7.948 31.37 13.114 48.124 16.53a275.575 275.575 0 0 0 38.673 5.217c3.56.212 7.087.832 10.66.194a1.836 1.836 0 0 1 1.716.596c-1.942.905-1.863 2.016-.917 3.86 6.522 12.712 9.713 26.266 8.457 40.514-1.566 17.777-7.345 34.044-19.589 47.468-2.318 2.542-2.097 5.517-2.172 8.29-.183 6.738 1.403 12.689 7.203 14.763a15.091 15.091 0 0 0 5.2 1.13c19.995-.416 38.469-5.307 53.676-19.108 11.052-10.03 16.694-22.955 18.055-37.518a171.365 171.365 0 0 0-5.5-61.816c-3.623-13.185-11.228-23.782-20.095-33.775-4.314-4.863-8.59-9.776-11.89-15.466-5.832-10.056-3.446-18.425 7.035-23.36 8.48-3.991 17.081-3.582 25.656-.161.275 2.166 1.548 3.883 2.604 5.685 7.23 12.345 15.618 23.976 22.6 36.471 9.71 17.384 17.181 35.619 20.152 55.443 3.96 26.43-.83 51.23-14.18 74.392-10.456 18.144-24.737 32.843-41.009 45.767-4.286 3.404-8.714 6.614-13.315 9.576-1.782 1.148-2.158 2.148-.69 4.002 4.728 5.968 4.662 6.03 11.344 2.665a162.071 162.071 0 0 0 41.454-29.522c.554-.547.975-1.473 2.051-1.045.497.807 1.284.632 1.983.504 14.457-2.632 27.806-7.523 37.985-18.797 7.495-8.301 11.12-18.43 13.69-29.06 2.134-8.835 2.539-17.868 3.197-26.877.375-5.13.664-10.289 2.434-15.197 3.316-9.196 13.896-13.272 22.17-8.558-.01 1.985 1.099 3.595 1.804 5.336a122.612 122.612 0 0 1 9.214 38.156 82.231 82.231 0 0 1-2.922 28.355c-4.621 16.135-14.088 28.989-27.155 39.33-17.284 13.677-36.96 22.418-58.073 28.23a240.373 240.373 0 0 1-40.945 7.35c-2.262.216-2.402 1.049-1.495 2.816 1.97 3.837 3.953 7.67 5.556 11.683.387.967 1.018 1.863.836 2.987a4.876 4.876 0 0 0 .423 2.757c7.417 21.663 13.132 43.82 19.175 65.884 2.625 9.584 5.864 18.923 13.534 25.91 4.147 3.778 8.963 6.573 13.744 9.428 3.705 2.213 7.343 4.53 10.107 7.95 5.01 6.2 3.82 12.686-3.159 16.615-6.883 3.874-14.365 5.15-22.182 4.786-12.665-4.827-22.555-13.187-30.447-24.04-7.76-10.671-12.655-22.74-16.963-35.089-6.27-17.968-11.792-36.2-18.98-53.846-4.22-10.36-8.94-20.42-16.018-29.212a90.014 90.014 0 0 0-42.876-29.842c-1.924-.63-4.27-.802-4.967-3.345-.545-5.875-.103-11.758-.263-17.632-.088-3.26-.415-3.69-3.637-3.69-23.627.001-47.254-.14-70.867.078-1.65.333-1.331 1.658-1.337 2.763-.027 4.941.004 9.883-.017 14.825-.017 4.207-.12 4.315-4.102 5.404a97.946 97.946 0 0 0-33.371 15.964c-13.467 10.106-22.817 23.36-29.467 38.678-1.122 2.583-1.81 5.399-3.737 7.595-4.857 2.044-10.07 2.788-15.135 4.066-2.644.668-5.295 1.307-7.906 2.09-2.748.823-3.093 1.582-2.34 4.402A218.172 218.172 0 0 0 166.296 345a9.778 9.778 0 0 1 1.198 4.2 181.387 181.387 0 0 1-8.69 24.346c-4.044 9.4-8.892 18.35-15.722 26.111a73.415 73.415 0 0 1-24.95 18.37c-6.319-.123-12.531-.86-18.408-3.367a24.141 24.141 0 0 1-3.89-2.05c-6.32-4.2-7.273-10.244-2.493-16.134a33.388 33.388 0 0 1 11.435-8.756c14.69-7.172 22.233-19.388 26.174-34.712 5.199-20.216 10.63-40.38 17.117-60.236a159.116 159.116 0 0 1 1.882-5.348c.367-1.002.846-1.984-.27-2.83 2.628-5.028 4.755-10.296 7.4-15.318 1.42-2.7 1.173-3.13-1.954-3.386-7.022-.575-13.997-1.495-20.938-2.682-22.784-3.894-44.553-10.754-64.52-22.614-10.52-6.25-20.313-13.466-28.16-23.053a75.113 75.113 0 0 1-17.038-42.617c-1.564-19.32 3.411-37.246 10.872-54.723 7.41-4.042 17.516-1.085 21.924 6.405 3.176 5.398 3.991 11.414 4.712 17.483 1.508 12.693 2.522 25.429 4.803 38.05 2.41 13.335 9.821 22.21 21.826 27.643 8.128 3.679 16.568 6.303 25.588 6.597 1.535-.569 1.974.859 2.7 1.586 14.122 14.163 30.493 25.071 48.471 33.69 1.886.903 3.077.506 4.346-1.021a55.417 55.417 0 0 1 5.63-6.384c1.748-1.546 1.46-2.74-.438-3.932a172.408 172.408 0 0 1-18.88-14.248c-19.595-16.433-35.866-35.476-45.806-59.359a107.985 107.985 0 0 1-8.501-48.692c1.094-17.497 5.81-34.094 13.253-50.01 8.08-17.28 19.128-32.633 30.137-48.038 1.455-2.036 2.582-4.352 4.66-5.903z"/><path d="M166.868 349.561c-.99-4.626-3.188-8.822-4.838-13.203-2.507-6.656-4.19-13.55-6.408-20.283-.862-2.62.604-3.758 3.024-4.336 7.797-1.861 15.569-3.829 23.35-5.755 1.969-1.364 4.274-1.745 6.544-2.155 8.272-1.494 16.493-3.3 24.87-4.154 2.7-.897 5.544-.99 8.32-1.472 1.139-.198 2.303-.255 3.068-1.3 1-5.102.702-10.218.161-15.308a138.08 138.08 0 0 1-.227-18.55c.075-2.668 1.994-3.457 4.352-3.492 5.668-.084 11.337-.014 17.005-.038 1.05-.004 2.098-.007 3.147-.066a2.225 2.225 0 0 0 2.407-2.327c.034-.629.085-1.256.087-1.886.02-11.105 1.176-22.186.709-33.301a2.481 2.481 0 0 1 .325-1.812c24.631-.008 49.262.019 73.893-.077 2.5-.01 3.252.694 3.196 3.194-.152 6.733-.035 13.472-.024 20.208a7.228 7.228 0 0 1 .838 4.251c-.001 4.407.11 8.818-.042 13.22a5.328 5.328 0 0 0 3.213 5.484 71.87 71.87 0 0 1 21.673 17.467c2.304 2.79 2.414 10.68.171 13.096-6.854-.024-13.623-1.113-20.437-1.617-13.45-.996-26.907-1.023-40.374-.964-2.272.01-3.266 1.01-3.205 3.246.034 1.26-.011 2.525-.011 3.788q-.002 101.844-.023 203.687c-.001 2.053.511 4.246-.987 6.08a3.213 3.213 0 0 1-3.13-.964c-43.546-36.816-79.4-79.886-106.096-130.406-.292-.553-.49-1.156-.73-1.736-6.421-8.627-10.4-18.438-13.821-28.519z" class="cls-2"/><path d="M290.645 511.186q-.006-107.108-.074-214.216c-.004-2.911.782-3.742 3.684-3.678 8.514.19 17.054-.295 25.547.166 10.214.556 20.472.757 30.62 2.343 1.947.304 3.98.04 5.902.694a4.409 4.409 0 0 1 .859-.546c2.074-.554 4.012.125 5.968.651a7.713 7.713 0 0 1 3.986 3.844c6.8 11.897 11.912 24.534 16.81 37.303 5.04 13.134 9.44 26.537 15.703 39.181.887 1.79.987 3.376-.307 4.954a397.376 397.376 0 0 1-33.594 52.596 460.11 460.11 0 0 1-70.939 75.1c-1.221 1.038-2.356 2.157-4.165 1.608z" class="cls-3"/><path d="M363.239 89.984c-10.202 1.337-20.208-.651-30.272-1.742a215.83 215.83 0 0 1-31.454-5.854c-16.926-4.433-33.247-10.376-47.955-20.13-1.883-1.249-3.668-2.534-3.398-5.181q.056-20.829.137-41.657c.005-.973-.599-2.366.478-2.848 1.003-.448 1.834.774 2.656 1.362a176.577 176.577 0 0 0 17.53 11.217c1.097.603 1.824 1.02 2.769-.437 6.476-9.993 16.445-13.953 27.641-15.575a53.582 53.582 0 0 1 21.532 1.222c1.257 1.512 3.174 1.918 4.784 2.834 6.23 3.543 12.129 7.472 16.58 13.255a29.441 29.441 0 0 1 6.459 19.58c-.072 1.88.478 2.747 2.385 2.771a30.088 30.088 0 0 1 4.669.623c2.767.475 4.828.04 5.516-3.062-.102 4.232 2.482 4.772 5.957 4.662 5.712-.18 11.434-.049 18.088-.049l-24.102 39.01z" class="cls-2"/><path d="M149.767 14.07c-3.175 6.063-7.47 11.392-11.482 16.866-12.109 16.52-22.357 34.055-29.111 53.412a129.858 129.858 0 0 0-6.236 29.691c-1.78 17.399.998 34.043 7.125 50.204 4.566 12.043 11.252 22.917 19.137 33.117 13.034 16.857 28.942 30.513 46.404 42.502 3.112 2.136 3.075 2.076.532 4.758a82.12 82.12 0 0 0-6.45 7.298c-1.124 1.51-1.965 1.786-3.614.993-15.195-7.31-29.42-16.065-42.12-27.263-3.378-2.978-6.469-6.217-9.756-9.268-17.826-18.393-26.794-40.802-30.246-65.845-3.401-24.677-1.65-48.835 6.37-72.465 8.61-25.371 23.991-45.34 47.305-58.902a39.923 39.923 0 0 1 12.142-5.099zM459.37 218.239c-10.139 10.764-21.97 19.342-34.715 26.705-4.179 2.414-8.574 4.45-12.797 6.793-1.68.933-2.836 1.236-4.124-.657a32.586 32.586 0 0 0-4.54-5.195c-1.612-1.531-1.414-2.508.369-3.637a169.434 169.434 0 0 0 15.542-11.197 187.134 187.134 0 0 0 26.732-26.072 130.396 130.396 0 0 0 18.04-28.296 103.006 103.006 0 0 0 9.313-32.136c.614-5.406 1.463-10.815 1.182-16.253a142.087 142.087 0 0 0-5.802-34.846c-5.843-18.9-14.992-36.141-25.822-52.597-5.185-7.878-10.262-15.838-14.827-24.106-.491-.89-1.292-1.64.437-1.94 11.809 4.062 21.39 11.566 30.255 20.013 19.293 18.384 29.296 41.532 33.412 67.407a154.191 154.191 0 0 1-8.027 79.096 99.319 99.319 0 0 1-24.629 36.918zm-102.3 78.181l-.746.075a10.935 10.935 0 0 1-.024-2.513c1.75-7.871-3.307-12.36-8.383-16.748a72.847 72.847 0 0 0-16.593-11.18c-1.421-.666-1.557-1.743-1.547-3.084.047-6.507.04-13.014.051-19.522 4.673 1.868 9.484 3.337 14.09 5.421a87.915 87.915 0 0 1 40.945 37.276c8.976 15.665 14.23 32.872 20.138 49.814 5.21 14.94 9.48 30.242 16.628 44.465 7.972 15.865 19.4 28.293 35.587 36.04a17.853 17.853 0 0 1 2.074 1.363c-14.71.629-27.186-5.188-38.65-13.643a65.919 65.919 0 0 1-18.928-21.31c-.504-.915-.821-2.483-2.369-.992a6.259 6.259 0 0 0-.622-5.03c-6.14-12.412-10.451-25.571-15.408-38.461-4.963-12.906-10.057-25.723-16.975-37.742a10.051 10.051 0 0 0-3.079-3.457c-1.401-2.665-3.473-4.853-5.171-7.666-.903 2.461.342 4.877-1.019 6.894z" class="cls-4"/><path d="M35.342 120.202c1.097.705.353 1.472.038 2.18a115.137 115.137 0 0 0-9.805 34.597c-2.117 19.926 1.146 38.699 13.155 55.485 9.537 13.332 22.354 22.526 36.395 30.256a168.326 168.326 0 0 0 42.213 16.09 248.077 248.077 0 0 0 31.74 5.631c3.395.358 6.932.046 10.503 1.58-.9 1.849-1.865 3.777-2.78 5.729-1.694 3.611-3.43 7.205-4.989 10.875-.462 1.09-.934 1.834-2.133 1.969-35.861-4.503-70.41-12.89-99.91-35.243-19.066-14.446-31.728-33.236-36.01-57.058a88.197 88.197 0 0 1 11.247-62.211 23.526 23.526 0 0 1 10.336-9.88zm392.306 164.295c-2.709-5.438-5.437-10.867-8.115-16.32-.88-1.79.412-1.897 1.668-1.971a207.593 207.593 0 0 0 36.148-5.737c19.926-4.781 38.755-12.275 55.867-23.746 13.387-8.975 24.512-20.01 31.256-34.892a77.479 77.479 0 0 0 6.488-26.364c1.072-13.943-1.469-27.25-5.679-40.362a81.729 81.729 0 0 0-4.984-12.562c-.417-.81-1.455-1.954.531-2.289 6.671 3.199 10.401 9.098 13.449 15.354 15.537 31.9 12.104 69.962-11.161 97.695-12.227 14.574-27.516 24.91-44.704 32.635-22.546 10.131-46.333 15.585-70.764 18.56zm-260.78 65.064c1.989 4.223 4.04 8.417 5.95 12.675 2.301 5.128 4.43 10.336 7.759 14.93.158.217.08.605.112.914-1.86-1.648-2.027.354-2.478 1.257a68.298 68.298 0 0 1-14.297 19.4c-12.352 11.639-26.782 18.598-43.913 19.44a14.047 14.047 0 0 1-1.867-.149c.64-1.496 2.158-1.861 3.396-2.508a73.357 73.357 0 0 0 30.934-30.794c5.76-10.557 9.794-21.78 13.625-33.11.235-.693.518-1.37.779-2.055z" class="cls-4"/><path d="M363.296 46.362c-.025.945-.063 1.89-.072 2.834-.01 1.221-.47 1.575-1.77 1.39-3.2-.454-6.426-.716-9.645-1.014-1.374-.127-2.273-.207-2.08-2.19 1.06-10.838-3.552-19.287-11.57-26.132a64.416 64.416 0 0 0-14.837-9.375c-1-.463-.965-.537-.419-1.514 15.475 3.257 28.182 10.711 36.644 24.434a22.889 22.889 0 0 1 3.749 11.567z" class="cls-3"/><path d="M213.59 300.37c-4.489.741-8.986 1.436-13.465 2.237-6.05 1.083-12.086 2.248-18.128 3.377 3.83-8.75 7.574-17.526 13.006-25.476 13.084-19.15 31.248-30.958 53.369-36.961 2.998-.814 3.97-1.976 3.811-5.022-.266-5.143-.092-10.31-.056-15.465.007-1.001-.383-2.137.637-2.938q-.017 18.133-.036 36.265c-.005 4.133-.01 4.137-4.264 4.14q-8.987.006-17.975.001c-4.906 0-4.757.007-4.938 4.754-.38 9.977 1.042 19.906.659 29.875-.042 1.101.441 2.34-.63 3.256-1.238-1.445-.732-3.193-.779-4.82-.087-3.016.017-6.036-.328-9.188-3.913 5.156-8.895 9.518-10.882 15.964z" class="cls-4"/><path d="M258.67 126.943a7.501 7.501 0 0 1-7.85-7.906 7.58 7.58 0 0 1 8.072-7.725 7.816 7.816 0 1 1-.222 15.63zm64.795.164a8.006 8.006 0 1 1 8.068-8.076 8.511 8.511 0 0 1-8.068 8.076z" class="cls-5"/><path fill="#fdfdfe" d="M213.59 300.37c-1.643-.201-1.128-1.06-.588-1.928a117.65 117.65 0 0 1 12.579-16.776v16.747l-11.99 1.956z"/><path fill="#3b2c97" d="M316.995 275.633c3.718.01 5.883 2.038 5.816 5.45a5.851 5.851 0 0 1-5.566 5.326 5.778 5.778 0 0 1-5.763-5.767c.065-3.041 2.24-5.017 5.513-5.009zm-51.512 0c3.372.035 5.536 2.056 5.511 5.146a5.65 5.65 0 0 1-11.3.027c-.025-3.184 2.242-5.21 5.789-5.173zm-12.086 5.11c.016 3.52-1.937 5.62-5.271 5.667-3.393.048-5.448-1.981-5.505-5.435-.058-3.48 1.82-5.319 5.43-5.314 3.456.005 5.331 1.787 5.346 5.082zm29.406-5.11c3.352.026 5.4 2.176 5.303 5.57a5.631 5.631 0 0 1-5.577 5.207c-3.12-.062-5.907-2.712-5.634-5.565.262-2.733 2.64-5.807 5.908-5.212zm16.921.028c3.494-.016 5.414 1.729 5.463 4.965.055 3.671-1.978 5.822-5.467 5.784-3.344-.036-5.307-2.12-5.307-5.635 0-3.308 1.859-5.097 5.311-5.114zm29.392 5.283c.01-3.537 1.837-5.326 5.422-5.312 3.387.014 5.406 2.072 5.357 5.463a5.624 5.624 0 0 1-5.424 5.316c-3.381-.003-5.365-2.027-5.355-5.467z"/><path fill="#fafafd" d="M357.07 296.42a42.883 42.883 0 0 1-.09-9.34c2.568 3.746 5.74 6.038 6.28 10.112l-6.19-.772z"/><path d="M308.905 72.896c-6.695.067-11.428-4.47-11.32-9.765.02-1.04-.154-2.294 1.458-2.191 1.236.079 2.667.14 2.847 1.833.177 1.658.075 4.113 1.928 4.039 1.545-.062 1.127-2.78 1.719-4.269.637-1.603.363-2.876-1.667-3.194-1.502-.236-2.184-1.069-1.8-2.643a1.854 1.854 0 0 1 2.674-1.379c1.66.525 2.695.194 2.88-1.617.17-1.675 1.08-1.823 2.406-1.39 1.1.359 2.287.518 1.585 2.273-.647 1.615.193 2.567 1.835 2.87 1.311.24 2.136.842 1.721 2.35-.41 1.493-1.326 2.104-2.823 1.528-2.037-.783-2.69.226-2.779 2.05-.082 1.67-1.899 4.001-.453 4.758 1.603.84 2.717-1.63 3.805-2.992 1.123-1.408 2.64-.592 3.687-.072 1.166.578.124 1.705-.254 2.45a9.16 9.16 0 0 1-7.45 5.361z" class="cls-5"/><path d="M162.178 604.653q.807 6.781 3.495 9.634 4.75 5.085 17.568 5.085 7.529 0 11.966-2.23 4.436-2.228 4.436-6.69a7.212 7.212 0 0 0-3.574-6.513q-3.575-2.228-26.596-7.67-16.573-4.103-23.352-10.26-6.78-6.064-6.78-17.483 0-13.469 10.594-23.148 10.593-9.678 29.813-9.679 18.235 0 29.723 7.27 11.486 7.271 13.187 25.111h-25.423a15.026 15.026 0 0 0-2.773-7.76q-4.206-5.173-14.313-5.174-8.318 0-11.851 2.586-3.533 2.589-3.533 6.066a6.633 6.633 0 0 0 3.757 6.334q3.755 2.052 26.544 7.047 15.191 3.568 22.775 10.794a24.505 24.505 0 0 1 7.493 18.286q0 14.452-10.772 23.595-10.77 9.142-33.293 9.143-22.973 0-33.921-9.679-10.952-9.678-10.95-24.665zm101.602 0q.808 6.781 3.496 9.634 4.75 5.085 17.568 5.085 7.528 0 11.966-2.23 4.435-2.228 4.437-6.69a7.215 7.215 0 0 0-3.574-6.513q-3.574-2.228-26.597-7.67-16.573-4.103-23.352-10.26-6.78-6.064-6.78-17.483 0-13.469 10.594-23.148 10.593-9.678 29.813-9.679 18.237 0 29.722 7.27 11.488 7.271 13.188 25.111h-25.424a15.017 15.017 0 0 0-2.772-7.76q-4.207-5.173-14.313-5.174-8.318 0-11.851 2.586-3.533 2.589-3.533 6.066a6.633 6.633 0 0 0 3.757 6.334q3.755 2.052 26.544 7.047 15.19 3.568 22.775 10.794a24.51 24.51 0 0 1 7.493 18.286q0 14.452-10.772 23.595-10.77 9.142-33.293 9.143-22.973 0-33.921-9.679Q238 619.64 238 604.653zm162.976 19.149q-12.31 15.195-37.376 15.195-25.068 0-37.377-15.195-12.31-15.197-12.31-36.588 0-21.032 12.31-36.452 12.31-15.42 37.377-15.42 25.065 0 37.376 15.42 12.31 15.419 12.31 36.452 0 21.392-12.31 36.588zm-20.339-14.051q5.977-7.93 5.978-22.537 0-14.608-5.978-22.49-5.977-7.883-17.127-7.884-11.152 0-17.17 7.884-6.023 7.882-6.022 22.49 0 14.61 6.021 22.537 6.02 7.928 17.171 7.926 11.15 0 17.127-7.926z"/></svg>