<svg xmlns="http://www.w3.org/2000/svg" role="img" viewBox="-16.86 -16.86 876.72 188.22"><title>StackPulse (member) logo</title><defs><style>.cls-2{fill:#5be2b9}</style></defs><path fill="#828282" d="M161.53 97.8h7.72c1.66 14.07 12.42 23.18 28.43 23.18S226 113 226 99.18c0-9.25-7.31-17-19-18.63l-16.63-2.35C175.46 76.13 165 68.4 165 53.64c0-15.87 16-27.46 33.4-27.46 18.88 0 32.4 11.82 33.6 27.87h-7.31c-1.93-13.8-13-21-26.63-21-14.36 0-25.67 8.41-25.67 20.28 0 11.32 8.14 15.73 18.63 17.25L207.89 73c15.05 2 25.53 12.38 25.53 25.9 0 17.39-15.31 29-35.74 29-19.46-.02-35.33-12.16-36.15-30.1zm98.94 10.2V63.3h-16.28V57h16.28V38l6.9-1.66V57H289v6.3h-21.63V107c0 7.59 2.35 13.39 12.42 13.39a42.09 42.09 0 0 0 10.21-1.2v6.07a34.57 34.57 0 0 1-10.76 1.66c-13.53 0-18.77-7.87-18.77-18.92zm40.43-1.23c0-12.28 9.39-19.87 23.19-20.84l25.39-1.8v-6.07c0-11.59-8.42-16.56-19.05-16.56-10.35 0-18.9 5-19.59 15.32h-6.9c1-14.21 12.42-21.8 26.22-21.8 15.73 0 26.22 7.73 26.22 23.6v34.08c0 4.69.69 7.45 5.38 7.45a9.64 9.64 0 0 0 1.93-.13v6.07a13 13 0 0 1-3.31.41c-8.55 0-10.9-6.48-10.9-13.8-3.73 9.8-14.22 15.18-24.84 15.18-13.39 0-23.74-8.14-23.74-21.11zm48.58-12.7v-3.59L324.78 92c-10.63.69-16.84 6.49-16.84 14.63 0 9.66 7.45 14.9 17.25 14.9 17.39 0 24.29-14.07 24.29-27.46zm35.22 25.53c-7.31-7.31-9.93-16.42-9.93-28.15s2.48-21.11 9.93-28.29A29.27 29.27 0 0 1 405.54 55c14.63 0 25.81 9 27.46 23.32h-7.31c-1.52-9.52-9.38-16.56-20.15-16.56-6.76 0-12.14 2.21-15.87 5.93-6.48 6.49-7.86 14.63-7.86 23.74s1.51 17.11 8 23.6c3.73 3.72 9.11 5.93 15.87 5.93 10.76 0 18.63-7 20.15-16.56H433c-1.79 14.21-13 23.32-27.46 23.32-8.83.02-15.87-3.15-20.84-8.12zM452.87 26h7v72.9L498.55 57h8.83l-26.9 29 27.46 40h-8.56l-23.87-35-15.6 17.11V126h-7zm106.95 2.11C577.9 28.11 592 36.8 592 56s-14.1 27.86-32.18 27.86h-27.18V126h-7.18V28.11zM584.53 56c0-15.18-10.91-21-25.12-21h-26.77v42h26.77c14.21 0 25.12-5.84 25.12-21zm21.7 45.52V57h6.9v44.16c0 12 5.93 20 18.08 20 16 0 22.63-12.83 22.63-28.29V57h6.9v69h-6.35l-.55-13a24.57 24.57 0 0 1-23.05 14.9c-15.59-.02-24.56-10.9-24.56-26.38zm75.9 10.63V26H689v85.83c0 4.7 1.38 8.28 7.17 8.28a34.74 34.74 0 0 0 5.94-.41v6.3a21.77 21.77 0 0 1-6.21.83c-8.8-.05-13.77-4.61-13.77-14.68zm28.98-7.15h7c1.1 11.32 10.07 16.29 21.39 16.29s20-5 20-14.35c0-6.08-4.28-11.18-12.7-12.29l-13.39-1.79C721.87 91.31 714 85.79 714 75.3 714 63 725.87 55 738.85 55c14.9 0 25.66 8.55 26.08 21H758c-1-9.93-9.11-14.49-19.18-14.49S721 66.88 721 74.61c0 5.66 3 9.94 13.39 11.32l13.11 1.79c13 1.8 19 10.49 19 18.77 0 14.08-12.69 21.39-27 21.39-16.39 0-27.7-8.69-28.39-22.88zm79.62 13.22c-5.65-6.62-9.1-16-9.1-26.49 0-8.7 1.38-17.26 6.9-24.57A29.07 29.07 0 0 1 812.68 55c19 0 30.49 15.18 30.49 33.53 0 1.66 0 2.62-.13 4.56h-54.51c.27 15.31 9.24 28.15 24.7 28.15 10.9 0 19.46-7.18 21.11-16h7.18c-2.07 13-14.49 22.63-28.29 22.63-9.94.01-17.94-4.4-22.5-9.65zM836 86.9c-.28-13.11-8.42-25.4-23.32-25.4-14.63 0-23.74 11.87-24 25.4z"/><path d="M26.83 86.15l.34-.31.09-.07c.34-.31.64-.56.93-.79s.34-.25.52-.38.63-.43.94-.62l.55-.33c.31-.17.65-.34 1-.52h.11l.4-.19c.43-.18.88-.35 1.33-.5l.25-.09c.51-.16 1-.3 1.61-.42l.39-.07h.1c.43-.08.8-.13 1.15-.17l.53-.05h2.41c.32 0 .64 0 1 .07h.39c.47.07.9.14 1.31.23h.2c.37.08.73.18 1.09.28l.32.11h.08c.29.09.58.2.86.31l.43.18c.28.12.55.26.83.4h.07a2.69 2.69 0 0 1 .29.16c.42.23.79.46 1.13.69a16.15 16.15 0 0 1 4.94 5.46 21.45 21.45 0 0 1 1 2.15 24.62 24.62 0 0 1 1.17 3.58 45.2 45.2 0 0 1 1 5.84c.09.84.16 1.68.23 2.52a92.69 92.69 0 0 1 1-11.07 28.34 28.34 0 0 1 3.82-10.91c.26-.41.54-.82.9-1.29l.25-.32c.28-.35.57-.68.85-1l.15-.17c.33-.34.67-.67 1.06-1l.22-.19h.06c.3-.25.6-.49.91-.72l.21-.15c.38-.26.77-.51 1.16-.74l.21-.12h.05c.32-.18.66-.35 1-.51h.06l.26-.12c.43-.19.83-.36 1.23-.5l.17-.06c.35-.12.72-.23 1.1-.34l.34-.09c.41-.1.79-.18 1.16-.25H72c.38-.06.79-.12 1.26-.16H75.23c.44 0 .83 0 1.2.05H77c.34 0 .67.09 1 .15l.54.11 1 .25h.09l.36.1a13.27 13.27 0 0 1 1.37.51 15.56 15.56 0 0 1 5.81 4.34c.43-3.29.77-6.59 1-9.9a117.4 117.4 0 0 0-.63-22.49c-.16-1.21-.61-4.05-.65-4.26a77.27 77.27 0 0 0-5.6-18.57 49.17 49.17 0 0 0-4.72-8.48 34.61 34.61 0 0 0-9.82-10A34 34 0 0 0 49.26.11a36.83 36.83 0 0 0-7.57.21 51.41 51.41 0 0 0-15.54 4.47 46.1 46.1 0 0 0-14.63 10.26A54.86 54.86 0 0 0 3.94 26 30.56 30.56 0 0 0 .59 47a60.48 60.48 0 0 0 4.07 12.91c1 2.28 11.3 20.88 15.53 27.15.88 1.31 1.71 2.66 2.72 3.89.07.12.15.23.22.33a20.74 20.74 0 0 1 2.46-3.79 16.68 16.68 0 0 1 1.24-1.34zm29.56-56.48a5.56 5.56 0 0 1 5.53 2.45 7.78 7.78 0 0 1 .56.92c.71 2.38 1.28 4.8 1.77 7.23a5.81 5.81 0 0 1-11.31 2.56c-.32-1.06-1.24-5.06-1.44-6a5.75 5.75 0 0 1 4.89-7.16zm-16 3a6.31 6.31 0 0 1 6.81 4.76c.32 1.26.6 2.52.9 3.78 0 .17.57 2.18.7 3A6.3 6.3 0 0 1 38.53 50l-.66-.55a8.81 8.81 0 0 1-1.66-3.7C35.83 44 35.4 42.32 35 40.6a6.3 6.3 0 0 1 5.4-7.94z" class="cls-2"/><path fill="#24292e" d="M117 59.18a6.57 6.57 0 0 1-.43 2 6.57 6.57 0 0 0 .43-2z"/><path fill="none" d="M74.3 91.11a3.87 3.87 0 0 0-.42 1c-.06.17-.11.35-.16.52a24.31 24.31 0 0 0-.65 2.93c-.16 1-.26 2-.35 3s-.14 1.86-.19 2.78c0 .69-.07 1.37-.1 2.06.34-5.67.92-10.29 1.87-12.27z"/><path d="M117 58.14a7.43 7.43 0 0 0-.51-2 6.71 6.71 0 0 0-.46-.93l-.19-.27c-.13-.19-.26-.38-.4-.55l-.27-.28a6 6 0 0 0-.43-.44l-.33-.25c-.16-.12-.31-.25-.47-.36s-.26-.13-.38-.21-.33-.19-.5-.27-.29-.1-.43-.15l-.53-.2-.46-.1-.55-.11h-.49a6 6 0 0 0-.61 0 3.86 3.86 0 0 0-.6 0 6.07 6.07 0 0 0-1.14.24 11.16 11.16 0 0 0-2.58 1.3c-.4.25-.78.52-1.15.8a13 13 0 0 0-1.94 1.83 9.71 9.71 0 0 0-.79 1 10.28 10.28 0 0 0-1.18 2.34 11.43 11.43 0 0 0-.63 2.71c-.35 3.09-.48 6.19-.58 9.28 0 1-.05 2.07-.08 3.1-.07 3.2-.92 30.47-1.13 33.7-.1 1.61-.4 5.54-.43 5.9-.65 14.39-1.63 27.86-4.55 27.74-3.11-.13-3.53-12.5-2.88-27.88 0-1.16 0-13.85-.14-15.42s-.28-3.14-.5-4.71c-.18-1.25-.4-2.49-.68-3.71-.19-.82-.41-1.62-.66-2.42a24 24 0 0 0-1.44-3.49 13.57 13.57 0 0 0-6.72-6.56c-.35-.15-.72-.28-1.09-.4l-.37-.11-.81-.2-.43-.09-.82-.12H73.6c-.35 0-.69.08-1 .14h-.05q-.49.09-1 .21l-.29.08c-.3.08-.6.17-.9.28h-.14c-.34.13-.68.26-1 .42a2.06 2.06 0 0 0-.26.12q-.41.19-.81.42a2.39 2.39 0 0 0-.22.12 10.88 10.88 0 0 0-1 .61l-.21.15-.72.6-.23.2c-.29.26-.58.53-.86.83a1.66 1.66 0 0 0-.13.14c-.24.26-.48.53-.7.82l-.21.27c-.26.34-.52.69-.76 1.07a25.75 25.75 0 0 0-3.39 9.79c-.23 1.47-.39 2.94-.53 4.41 0 1.31-.1 2.68-.16 4.13-.18 4.27-.39 8.52-.7 12.15-.09 1.14-.19 2.29-.34 3.43-.06.42-.12.84-.19 1.27-.49 3.34-1.18 5.47-2.18 5.43-1.52-.07-2.16-4.18-2.27-10.27v-.39c-.28-3.91-.32-7.85-.75-11.76a39.82 39.82 0 0 0-.9-5.44 21.07 21.07 0 0 0-1-3.15 18.39 18.39 0 0 0-.99-1.93 13.3 13.3 0 0 0-4-4.46c-.28-.19-.58-.37-.88-.54l-.29-.15-.66-.31-.34-.15-.69-.25-.33-.11a9.12 9.12 0 0 0-.9-.23h-.14c-.35-.07-.71-.13-1.07-.18h-.32c-.26 0-.52-.06-.78-.07h-2.37c-.32 0-.64.09-.95.14l-.4.07c-.45.1-.9.21-1.34.35l-.16.06c-.38.13-.76.27-1.13.43l-.43.2-.84.42-.45.27c-.26.16-.51.33-.76.51l-.43.31a9.06 9.06 0 0 0-.75.64c-.12.1-.24.2-.35.31-.35.34-.69.7-1 1.08a21.17 21.17 0 0 0-3.85 7.76 62 62 0 0 0-1.6 8.21c-.13.92-.25 1.84-.39 2.77s-.27 1.9-.43 2.85a24.42 24.42 0 0 1-1.05 4.1c-.27.64-.58 1-1 1-1.39 0-2-4-2.14-9.75 0-.24-.31-8-.31-8.69a6.72 6.72 0 0 0-.13-1.35 6.2 6.2 0 0 0-.38-1.24 6.88 6.88 0 0 0-.6-1.14 7.08 7.08 0 0 0-.81-1 6.89 6.89 0 0 0-4.73-2.06H9.13l-.33.2-.3.08-.31.1-.29.11-.3.13-.28.13-.32.16-.26.15c-.1.06-.18.13-.27.19l-.25.18-.22.21-.23.21a2.5 2.5 0 0 0-.23.23l-.21.22-.21.26-.19.24c-.07.09-.13.19-.19.28l-.17.25-.17.31c0 .09-.09.17-.13.26s-.1.23-.15.34-.07.17-.11.26l-.12.38c0 .08 0 .16-.07.24s-.07.29-.1.44a1.6 1.6 0 0 1 0 .21c0 .22-.06.44-.07.67q-.12 1.74-.12 3.48v1.73c0 1.15.11 2.3.21 3.45.16 1.73.4 3.44.7 5.16A30.57 30.57 0 0 0 8 121.32a21.05 21.05 0 0 0 1.39 2.05 15 15 0 0 0 4.53 4c.36.2.73.39 1.12.57s.9.38 1.35.54l.44.13c.32.1.63.19.95.27l.5.11.94.16.48.06a10.84 10.84 0 0 0 1.13.06h1.67c.36 0 .71-.09 1.06-.16a10.12 10.12 0 0 0 1-.27l.28-.08c.29-.1.59-.2.87-.32l.16-.06c.34-.14.66-.3 1-.47a2 2 0 0 0 .25-.14c.26-.15.52-.3.77-.47l.21-.14c.3-.21.6-.44.89-.68l.19-.17q.34-.31.69-.66l.21-.21c.27-.29.53-.59.78-.91l.11-.15c.21-.28.42-.58.61-.89a2.9 2.9 0 0 0 .19-.29c.22-.37.44-.74.64-1.14a26.7 26.7 0 0 0 2.14-6.39c.59-2.7.94-5.44 1.32-8.18.07-.53.15-1.07.23-1.61.36-4.53 1-7.84 2-7.78s1.1 2.22 1 5.88c0 .64.22 4.26.27 5.43a99.2 99.2 0 0 0 .86 10.46c0 .37.11.75.18 1.12a29.75 29.75 0 0 0 1.08 4.4 21 21 0 0 0 1.33 3.14c2.83 5.33 7.25 8.07 13.31 8.08.34 0 .66 0 1-.06s.61 0 .9-.05.62-.11.92-.17.58-.08.85-.15a8.81 8.81 0 0 0 .87-.28c.26-.08.53-.15.78-.24s.52-.25.79-.38.51-.22.75-.36.49-.32.74-.49.46-.28.68-.44.49-.43.73-.64.4-.32.58-.5.57-.62.85-.95c.12-.13.24-.25.35-.39.38-.48.74-1 1.09-1.53a21.87 21.87 0 0 0 2.74-6.98 49.18 49.18 0 0 0 .84-5c.13-1.11.23-2.22.31-3.33 0-.56.19-3.36.23-4.2 0-1.14.78-14 .94-15a24.31 24.31 0 0 1 .65-2.93c0-.17.1-.35.16-.52a3.87 3.87 0 0 1 .42-1c.33-.68.7-1.07 1.12-1 1.89.08 1.81 6 1.41 15.32v11.24c0 5.43-.09 10.87.28 16.3a52.22 52.22 0 0 0 1.27 9 19.58 19.58 0 0 0 4.33 9c.35.38.71.73 1.07 1 .12.11.24.2.36.3s.51.42.77.6l.45.3c.24.16.49.31.74.45l.49.26c.26.12.51.24.77.34l.51.2a7.93 7.93 0 0 0 .83.25l.5.14c.32.07.65.12 1 .17l.4.06a11.39 11.39 0 0 0 1.44.07 14.93 14.93 0 0 0 1.62-.09 12.43 12.43 0 0 0 7.69-4c.3-.3.58-.61.85-.93a21.85 21.85 0 0 0 1.47-2c.22-.35.43-.7.64-1.06.4-.71.77-1.45 1.11-2.21s.65-1.52 1-2.31a72.86 72.86 0 0 0 3.43-14c1.16-7.29 2.76-35.89 2.92-42.85q.09-4.6.19-9.21c.08-3.07.17-6.14.3-9.21a7.74 7.74 0 0 1 .09-1c0-.16.06-.31.1-.46a3.56 3.56 0 0 1 .93-1.63 5.06 5.06 0 0 1 .41-.37 6.07 6.07 0 0 0 .77-.75 6 6 0 0 0 1.06-1.76 6.57 6.57 0 0 0 .43-2 7.25 7.25 0 0 0-.05-1.04z" class="cls-2"/></svg>