<svg xmlns="http://www.w3.org/2000/svg" role="img" viewBox="90.43 7.43 497.64 401.14"><title>StackStorm logo</title><path fill="#606062" d="M328.046 17.176L472.44 135.859V17.176zm-136.84 292.81h156.092l-156.092-122.34z" class="fil0"/><path fill="#f47a04" d="M479.63 182.772c-6.459-11.454-17.06-23.151-31.926-35.093L290.637 19.003c-10.6.122-19.252.731-25.832 1.706-6.702 1.097-13.404 2.925-20.228 5.605-17.425 7.068-30.95 17.547-40.698 31.56-9.627 13.891-14.5 30.22-14.5 48.985 0 6.823.974 14.134 2.924 21.933a98.272 98.272 0 0 0 7.798 21.568c4.265 7.92 11.21 17.18 21.202 27.66 9.992 10.967 23.518 23.518 40.699 37.652 17.425 14.866 35.459 29.123 54.224 42.892a2346.242 2346.242 0 0 0 29.854 21.568c8.408 5.97 22.664 15.963 42.648 29.854 7.555-.244 14.013-.61 19.253-1.097 4.752-.487 9.382-1.34 14.134-2.437 3.29-.73 7.312-2.071 12.064-4.143 17.06-6.945 30.463-17.546 40.333-31.925 9.87-14.379 14.866-30.463 14.866-48.253 0-14.5-3.29-27.539-9.87-39.359z" class="fil2"/><path fill="#636266" d="M371.996 359.295l-8-2.017c-4.163-1.04-7.09-2.471-8.91-4.292-1.822-1.821-2.667-4.293-2.667-7.415 0-4.097 1.366-7.284 4.097-9.56 2.732-2.277 6.634-3.383 11.643-3.383 5.333 0 9.43 1.3 12.357 3.967 2.927 2.667 4.423 6.374 4.553 11.253h6.374c-.065-6.57-2.146-11.643-6.179-15.285-4.032-3.642-9.626-5.464-16.78-5.464-6.764 0-12.163 1.692-16.195 5.009-4.033 3.317-6.05 7.74-6.05 13.268 0 5.008 1.367 8.91 4.033 11.642 2.667 2.797 7.48 5.074 14.504 6.83l6.505 1.626c6.374 1.626 10.601 3.447 12.748 5.528 2.146 2.016 3.187 5.008 3.187 8.91 0 4.228-1.496 7.48-4.553 9.887-3.057 2.406-7.22 3.577-12.553 3.577-6.049 0-10.732-1.496-14.114-4.423-3.317-2.991-5.008-7.154-5.073-12.487h-6.244v.455c0 7.09 2.211 12.553 6.569 16.39 4.358 3.838 10.667 5.724 18.797 5.724 7.284 0 13.008-1.756 17.17-5.269 4.163-3.512 6.31-8.325 6.31-14.439 0-5.333-1.561-9.496-4.748-12.487-3.187-3.057-8.716-5.529-16.586-7.48zm39.61-25.496h-5.724v14.114h-6.699v4.617h6.7v35.903c0 3.772.585 6.374 1.755 7.805 1.171 1.43 3.187 2.146 6.05 2.146 1.04 0 2.08-.065 3.251-.26a56.223 56.223 0 0 0 3.773-.78l-.065-4.553c-1.561.325-2.732.585-3.448.65-.715.13-1.43.13-2.016.13-1.366 0-2.276-.325-2.797-1.04-.52-.65-.78-2.082-.78-4.163v-35.903h9.106v-4.617h-9.106v-14.114zm50.667 54.244c-2.927 3.642-7.025 5.398-12.358 5.398-5.268 0-9.366-1.82-12.293-5.463-2.926-3.642-4.357-8.78-4.357-15.415 0-6.634 1.43-11.772 4.357-15.415 2.927-3.642 7.025-5.463 12.293-5.463 5.333 0 9.496 1.821 12.358 5.463 2.927 3.643 4.358 8.78 4.358 15.48 0 6.7-1.431 11.838-4.358 15.415zm-12.358-41.366c-7.154 0-12.748 2.276-16.65 6.764-3.968 4.553-5.92 10.927-5.92 19.187 0 8.195 1.952 14.57 5.92 19.057 3.967 4.488 9.496 6.764 16.65 6.764 7.22 0 12.813-2.276 16.78-6.764 3.968-4.488 5.92-10.862 5.92-19.057 0-8.26-2.017-14.634-5.984-19.187-3.968-4.553-9.561-6.764-16.78-6.764zm44.293 2.406c-2.537 1.626-4.488 4.098-5.919 7.415v-8.65h-5.528v49.236h5.854v-27.188c0-5.788 1.235-10.146 3.707-13.008 2.471-2.927 6.114-4.358 11.057-4.358h.715v-5.983h-.65c-3.707 0-6.764.845-9.301 2.471zm80.521 1.561c-2.667-2.666-6.634-4.032-11.968-4.032-3.512 0-6.634.845-9.366 2.471-2.731 1.626-4.878 4.033-6.504 7.22-.78-3.122-2.406-5.464-4.878-7.155-2.406-1.69-5.463-2.536-9.17-2.536-3.448 0-6.44.78-9.106 2.406-2.667 1.626-4.813 3.968-6.504 6.96v-8.13h-5.334v49.236h5.724v-30.44c0-4.422 1.366-8.065 4.032-10.796 2.667-2.732 6.18-4.098 10.472-4.098 3.512 0 6.114.976 7.805 2.992 1.69 1.951 2.536 5.008 2.536 9.106v33.3h5.724v-30.894c0-4.358 1.3-7.87 3.968-10.537 2.601-2.666 6.113-4.032 10.471-4.032 3.707 0 6.31.91 7.935 2.667 1.626 1.82 2.407 4.748 2.407 8.91v33.887h5.723V361.18c-.26-4.618-1.56-8.13-3.902-10.537z" class="fil1"/><path fill="#f47a04" d="M129.588 356.953c-6.634-1.69-10.927-3.382-13.008-5.008-2.081-1.626-3.122-3.772-3.122-6.374 0-2.536 1.17-4.683 3.512-6.439 2.342-1.756 5.399-2.602 9.106-2.602 4.488 0 8.065 1.106 10.732 3.317 2.666 2.212 4.162 5.204 4.357 9.106l10.797-.065c-.065-6.634-2.341-11.902-6.764-15.805-4.423-3.902-10.341-5.853-17.821-5.853-7.675 0-13.789 1.756-18.407 5.333s-6.96 8.195-6.96 13.854c0 5.333 1.562 9.56 4.749 12.683 3.122 3.122 8.52 5.658 16.195 7.674.65.13 1.691.39 2.992.716 6.179 1.496 10.146 3.057 11.967 4.748 1.106.976 1.952 2.146 2.667 3.577.716 1.366 1.04 2.602 1.04 3.708 0 2.731-1.235 5.073-3.707 6.959-2.471 1.886-5.658 2.797-9.56 2.797-5.139 0-9.236-1.236-12.228-3.643-2.992-2.471-4.683-5.853-5.008-10.276H100.06c.325 7.675 2.861 13.528 7.61 17.626 4.682 4.098 11.316 6.114 19.772 6.114 8.065 0 14.439-1.951 19.252-5.854 4.813-3.902 7.22-9.106 7.22-15.48 0-5.333-1.561-9.43-4.618-12.422-3.057-2.992-9.626-5.724-19.643-8.26zm46.57-23.545H165.62v13.79h-7.155v7.87h7.155v30.698c0 4.488.845 7.675 2.602 9.431 1.69 1.756 4.682 2.667 8.845 2.667 1.236 0 3.382-.13 6.374-.455.455 0 .846-.065 1.04-.065v-8.456l-2.08.065c-.196 0-.52 0-.976.065-.455 0-.78.066-1.106.066-1.626 0-2.732-.326-3.317-.911s-.91-1.821-.91-3.642v-29.399h8.325v-7.87h-8.326v-13.789zm45.723 44.944c0 3.447-1.3 6.309-3.902 8.52-2.602 2.212-5.854 3.317-9.756 3.317-2.602 0-4.618-.65-6.05-1.886-1.43-1.236-2.145-2.992-2.145-5.333 0-2.017.585-3.708 1.82-4.943 1.237-1.236 3.058-2.082 5.53-2.602.845-.13 2.146-.39 3.902-.65 4.878-.716 8.39-1.627 10.601-2.797v6.244zm13.399 11.382c-1.17 0-1.951-.325-2.407-.91-.455-.586-.65-1.822-.65-3.773v-24.78c0-4.879-1.691-8.586-5.073-11.058-3.382-2.471-8.39-3.707-15.025-3.707-6.309 0-11.317 1.431-14.96 4.358-3.642 2.862-5.463 6.83-5.463 11.772v.846h10.082v-.39c0-2.537.845-4.488 2.601-5.854 1.756-1.366 4.228-2.016 7.48-2.016 3.512 0 6.049.585 7.74 1.69 1.691 1.171 2.471 2.927 2.471 5.334 0 2.992-3.382 4.878-10.08 5.724-.456.065-.846.13-1.042.13-8.065 1.04-13.593 2.796-16.65 5.333-3.057 2.537-4.618 6.374-4.618 11.447 0 4.618 1.431 8.26 4.293 10.862 2.862 2.602 6.83 3.968 11.837 3.968 3.252 0 6.374-.716 9.236-2.147a20.713 20.713 0 0 0 7.35-6.114c.065 2.537.845 4.488 2.406 5.724 1.561 1.236 3.968 1.886 7.155 1.886a18.2 18.2 0 0 0 2.601-.195c.91-.13 1.822-.325 2.797-.585v-7.74c-.65.065-1.106.13-1.366.13h-.715zm37.854-3.057c-1.952 1.821-4.553 2.732-7.74 2.732-3.968 0-7.025-1.496-9.106-4.423-2.081-2.927-3.122-7.22-3.122-12.878 0-5.724 1.04-10.082 3.187-13.073 2.146-2.927 5.268-4.423 9.366-4.423 3.057 0 5.594.845 7.48 2.601 1.886 1.692 2.992 4.033 3.317 7.025h10.406c-.325-5.789-2.406-10.342-6.244-13.724-3.837-3.317-8.91-5.008-15.284-5.008-7.285 0-12.943 2.342-17.106 7.09-4.098 4.748-6.179 11.252-6.179 19.642 0 8.13 2.016 14.634 5.984 19.382 3.967 4.748 9.366 7.155 16.195 7.155 6.634 0 11.968-1.756 15.935-5.334 4.033-3.512 6.244-8.39 6.764-14.634h-10.276c-.455 3.382-1.691 5.984-3.642 7.805zm65.691-39.48h-12.943l-19.642 20.358v-38.634h-10.472v68.228h10.472v-16.65l7.089-7.22 13.529 23.87h12.292l-18.406-31.61z" class="fil2"/></svg>