<svg xmlns="http://www.w3.org/2000/svg" role="img" viewBox="-6.83 -5.83 589.16 176.16"><title>StackState logo</title><style>svg {enable-background:new 0 0 581.9 165.7}</style><style>.st54{fill:#14273c}.st55{fill:#609ec5}.st56{fill:#fe9f5d}.st57{fill:#fe6700}.st58{fill:#40a926}.st59{fill:#8ce762}.st60{fill:#247008}</style><g><path d="M86.1 7.7V21c0 1.1.3 1.7 1.3 2.3 12.5 7.6 25 15.3 37.6 22.9 2.8 1.7 5.7 3.5 8.6 5.2 1.2.7 1.6 1.5 1.6 2.8v53.6c0 1.1.4 1.8 1.3 2.3l11.4 6.9c1.1.7 1.3.6 1.9-.6 3.4-6.9 5.8-14.2 7-21.9.8-5.1 1.2-10.3.9-15.5-.5-10.1-2.8-19.8-7.1-28.9-3.3-7-7.5-13.4-12.8-19.1C125.3 17.6 110 9.6 92 7c-1.4-.2-2.8-.5-4.2-.5-.4 0-.9.1-1-.5h-.9c.4.5.2 1.1.2 1.7z" class="st54"/><path d="M85.8 21.6c0 .7.2 1.2.9 1.6 15.7 9.6 31.4 19.2 47.1 28.7.8.5 1 1 1 1.9v54.6c0 .8.2 1.3 1 1.8 4 2.4 8 4.8 11.9 7.3 1.3.8 1.3.8 2-.6 7.2-14.4 9.7-29.6 7.3-45.5-2.7-18.1-10.9-33.4-24.4-45.7-10.7-9.8-23.3-16-37.6-18.6-2.7-.5-5.5-.7-8.2-1.1.1.6.6.5 1 .5 1.4 0 2.8.3 4.2.5 18.1 2.6 33.3 10.6 45.7 24.1 5.3 5.7 9.5 12.1 12.8 19.1 4.3 9.2 6.6 18.8 7.1 28.9.2 5.2-.1 10.3-.9 15.5-1.2 7.6-3.6 14.9-7 21.9-.6 1.2-.8 1.3-1.9.6l-11.4-6.9c-.9-.5-1.3-1.2-1.3-2.3.1-3.4 0-6.8 0-10.2V54.3c0-1.3-.4-2.2-1.6-2.8-2.9-1.6-5.7-3.5-8.6-5.2-12.5-7.6-25-15.3-37.6-22.9-.9-.6-1.3-1.2-1.3-2.3V7.8c0-.6.1-1.2-.3-1.7.1 5.1.2 10.3.1 15.5z" class="st54"/><path d="M74.9 6.5c-5.3.5-10.5 1.5-15.6 3-7.8 2.4-15.1 6-21.8 10.6-3.4 2.4-6.6 5-9.6 8-5.4 5.4-10 11.4-13.6 18.2C10.2 53.9 7.4 62 6 70.6c-.9 5.7-1 11.4-.6 17.1.4 6.6 1.7 13 3.8 19.2 1.1 3.2 2.4 6.4 3.9 9.4.7 1.3.8 1.4 2 .6 3.6-2.2 7.2-4.4 10.9-6.6 1.1-.6 1.4-1.3 1.4-2.6V53.9c-.1-1.1.4-1.8 1.3-2.4L50.9 38C59 33.1 67 28.2 75.1 23.3c.9-.5 1.2-1.2 1.2-2.2V7.6c0-.6-.1-1.2.3-1.7h-.7c0 .7-.6.6-1 .6z" class="st55"/><path d="M64.3 7.8C45.9 12.1 31 21.8 19.8 37 8 52.9 3.3 70.9 5.3 90.7c.9 9.3 3.6 18.2 7.8 26.5.4.8.7 1 1.6.4 3.9-2.4 7.8-4.8 11.7-7.1 1-.6 1.4-1.2 1.4-2.4 0-18.1 0-36.2-.1-54.2 0-.9.3-1.4 1-1.9l14.4-8.7c11-6.7 21.9-13.4 32.9-20 .4-.3.8-.5.8-1.1 0-5.4-.1-10.8-.1-16.2-.4.5-.3 1.1-.3 1.7v13.5c0 1-.3 1.7-1.2 2.2C67.1 28.3 59 33.2 51 38.1L28.8 51.6c-1 .6-1.4 1.3-1.3 2.4v53.8c0 1.2-.4 1.9-1.4 2.6-3.6 2.2-7.2 4.4-10.9 6.6-1.2.8-1.3.7-2-.6-1.5-3.1-2.9-6.2-3.9-9.4-2.1-6.2-3.3-12.6-3.8-19.2C5 82 5.1 76.3 6 70.6c1.4-8.6 4.1-16.7 8.2-24.3 3.6-6.8 8.2-12.8 13.6-18.2 2.9-2.9 6.2-5.6 9.6-8 6.7-4.7 13.9-8.3 21.8-10.6C64.4 8 69.6 7 74.9 6.5c.4 0 .9.1 1-.5-.2.2-.5.2-.8.2-3.6.2-7.2.8-10.8 1.6z" class="st55"/><path d="M85.5 158.8h-8.4v.2h8.5c-.1-.1-.1-.1-.1-.2z" class="st56"/><path d="M77.1 158.8v.2c.1-.1.1-.1 0-.2zm8.4 0v.2c.1-.1.1-.1 0-.2.1 0 .1 0 0 0z" class="st56"/><path d="M84.5 158.4c.4 0 .8 0 1.1.3v-.1c1.8-.4 3.6-.4 5.5-.6 6.8-.9 13.3-2.6 19.6-5.2 7.4-3.1 14.1-7.2 20.2-12.4 4.6-3.9 8.7-8.3 12.2-13.2.8-1.1.8-1.2-.4-1.9-3.7-2.3-7.5-4.6-11.2-6.9-.8-.5-1.5-.5-2.4 0-12.6 7-25.1 14-37.7 21-2.8 1.5-5.6 3.1-8.3 4.7-1.1.7-2.1.7-3.3 0-5.2-3-10.5-5.9-15.7-8.8l-21.6-12c-3-1.7-6-3.3-8.9-5-.7-.4-1.4-.4-2.1 0-3.9 2.4-7.8 4.8-11.7 7.1-.8.5-.7.9-.2 1.6 4.8 6.6 10.4 12.2 17 17 8.2 5.9 17.1 10.1 26.9 12.5 4.2 1 8.5 1.7 12.8 1.9.3 0 .6 0 .9.2v.1c.3-.3.7-.3 1.1-.3h6.2z" class="st57"/><path d="M77.1 158.7c-.3-.2-.6-.2-.9-.2-4.3-.2-8.6-.9-12.8-1.9-9.8-2.4-18.8-6.5-26.9-12.5-6.5-4.8-12.2-10.4-17-17-.5-.7-.6-1.1.2-1.6 3.9-2.3 7.8-4.7 11.7-7.1.7-.4 1.3-.4 2.1 0 3 1.7 6 3.3 8.9 5l21.6 12c5.2 2.9 10.5 5.8 15.7 8.8 1.2.7 2.1.6 3.3 0 2.7-1.6 5.5-3.1 8.3-4.7 12.6-7 25.1-14 37.7-21 .9-.5 1.5-.5 2.4 0 3.7 2.3 7.5 4.6 11.2 6.9 1.2.7 1.2.7.4 1.9-3.5 4.9-7.6 9.3-12.2 13.2-6.1 5.2-12.8 9.3-20.2 12.4-6.3 2.6-12.8 4.3-19.6 5.2-1.8.2-3.7.2-5.5.6v.1l.1.1c2.9-.1 5.9-.4 8.8-1 20.5-3.7 36.9-14.1 49.3-30.9.6-.8.3-1.1-.4-1.5-4-2.4-8-4.9-12-7.3-.7-.5-1.3-.5-2 0-15.5 8.7-31.1 17.3-46.7 26-.9.5-1.6.5-2.5 0l-46.2-25.8c-1-.6-1.7-.6-2.7 0-3.9 2.5-7.8 4.8-11.7 7.2-.8.5-.9.8-.3 1.6 6.3 8.7 14.1 15.9 23.3 21.4 10.7 6.3 22.3 9.9 34.7 10.5-.1-.3-.1-.3-.1-.4z" class="st57"/><path d="M84.5 158.4h-6.2c-.4 0-.8 0-1.1.3v.1h8.4v-.1c-.3-.3-.7-.3-1.1-.3zm1 .4c.1 0 .1 0 0 0 .1 0 .1 0 0 0 .1 0 0 0 0 0zm-8.4-.1c0 .1 0 .1 0 0 0 .1 0 .1 0 0 .1.1 0 .1 0 0z" class="st57"/><path d="M39.3 59c10.6 6 21.3 11.9 32 17.8 3.4 1.9 6.8 3.6 10.1 5.7 3.3-1.8 6.6-3.7 9.8-5.5 5.2-2.9 10.4-5.8 15.7-8.8 4.5-2.5 9-5 13.4-7.4 1.9-1 3.8-2.1 5.6-3.1.4-.2.9-.4 1.3-.6-.3-.7-.9-.8-1.4-1.1-14.5-8.8-28.9-17.7-43.4-26.5-.8-.5-1.3-.5-2.1 0-14.9 9.1-29.7 18.2-44.6 27.2 1 1.1 2.4 1.6 3.6 2.3z" class="st58"/><path d="M231.7 82.2c-1.9-1.1-4-1.9-6-2.5-3.6-1.2-7.4-1.8-10.8-3.5-3-1.5-4.4-3.8-4.2-7.2.2-3.4 1.7-6 4.8-7.3 4.7-2 12.5-1.1 16.3 4.1.5.7.8.5 1.3.1 1.6-1.3 3.3-2.7 5-3.9.9-.6.9-1 .3-1.8-2-2.5-4.4-4.4-7.3-5.6-5.2-2.2-10.7-2.6-16.2-1.5-4.2.8-7.8 2.7-10.4 6-2.1 2.6-3.2 5.7-3.5 9-.5 5.5 1 10.2 5.5 13.6 3.3 2.6 7.2 3.7 11.1 4.9 2.8.8 5.6 1.4 8.2 2.8 2.8 1.5 4.3 3.8 4.1 7.1-.1 3.2-1.6 5.5-4.4 7-1.8 1-3.8 1.2-5.8 1.3-6.1.2-11.2-1.5-14.1-7.3-.3-.6-.6-.5-1-.1l-5.4 4.2c-.5.4-.6.8-.3 1.4 1.8 3.2 4.3 5.8 7.6 7.5 3.9 2 8.1 2.6 12.9 2.7 1 .1 2.5-.1 4-.3 4.1-.6 7.8-2 10.9-4.8 3.9-3.6 5.4-8.2 5.2-13.4-.2-5.8-3-9.8-7.8-12.5z" class="st55"/><path d="M426.8 82.5c-2.5-1.5-5.2-2.4-8-3.3-3.1-1-6.3-1.6-9.2-3-3-1.4-4.5-3.8-4.4-7.1.1-3.5 1.6-6.1 4.9-7.5 4.2-1.8 12.3-1.2 16.2 4.1.4.5.6.7 1.2.2 1.7-1.4 3.5-2.8 5.4-4.2.6-.5.5-.8.1-1.3-1.7-2.3-3.9-4.2-6.5-5.5-4.7-2.4-9.8-2.9-15-2.3-8.6.9-14.9 6-16 14.8-.8 6.4 1.1 11.6 6.7 15.2 2.5 1.6 5.3 2.6 8.2 3.5 3 .9 6.1 1.6 9 2.9 2 .9 3.6 2.2 4.4 4.3 1.7 4.4-.6 9.1-5.1 10.7-3.3 1.1-6.6 1-10 .3-3.7-.8-6.5-2.9-8.3-6.2-.2-.4-.5-.8-.7-1.3-2 1.6-4 3.1-6 4.6-.6.4-.7.8-.3 1.4 2.2 4 5.5 6.8 9.7 8.4 5.3 2 10.8 2.2 16.3 1.1 8.5-1.6 13.8-7.3 14.5-15.7.6-6.1-1.7-10.9-7.1-14.1z" class="st54"/><path d="M384.4 77.5c1.7-1.6 3.2-3.3 4.9-5.1h-10.2c-.5 0-.7.3-1 .6-3.3 3.2-6.6 6.5-9.9 9.7-1.9 1.9-3.8 3.8-6 5.9V53.3c0-1-.2-1.4-1.3-1.3-2.2.1-4.3.1-6.5 0-.7 0-1 .2-1 1v57.9c0 .8.2 1 1 1 2.2 0 4.4-.1 6.6 0 1 0 1.2-.3 1.2-1.3V99.9c0-.6.2-1.1.6-1.5 1.5-1.4 2.9-2.7 4.3-4.2.7-.7.9-.5 1.4.2 3.4 5.5 6.7 11 10.1 16.5.3.4.4 1 1.1 1h9.4c-.3-.6-.5-.9-.7-1.2-4.6-7.5-9.1-14.9-13.7-22.4-.3-.5-.7-.9 0-1.5 3.3-3 6.5-6.2 9.7-9.3z" class="st55"/><path d="M500.8 83.8c0-5.6-3.2-9.9-8.5-11.4-5-1.4-10-1.4-14.9.3-4.6 1.5-8.3 4.8-7.5 11.2.1.6.3.9.9.8 1.9 0 3.8-.1 5.6 0 1 0 1.3-.2 1.2-1.2-.1-2.5.8-3.6 3.2-4.4 2.3-.7 4.6-.7 7-.2 2.5.6 3.8 1.9 4.1 4.5.2 1.3.1 2.7.1 4 0 .5-.3.5-.7.6-2.1.2-4.1.4-6.2.7-3.6.4-7.2 1-10.5 2.6-3.7 1.7-6.2 4.4-6.7 8.5-.7 5.7 1.6 11.3 8.3 12.8 3.1.7 6.2.5 9.2-.5 2.7-.9 5-2.5 7.2-4.7v3.7c0 .7.2.9.9.9 2.1 0 4.2-.1 6.4 0 .8 0 1-.2 1-1-.1-9.1-.1-18.1-.1-27.2zm-10.3 19.6c-2.9 2-6 3.1-9.5 2.5-2.4-.4-3.6-1.5-4.1-3.6-.5-2.3.2-4.2 2.2-5.5 2.2-1.5 4.7-2 7.3-2.4 1.6-.3 3.3-.5 4.9-.7.6-.1.9 0 .8.7-.1 1.2 0 2.4 0 3.5 0 .8-.1 1.6 0 2.4.3 1.3-.4 2.3-1.6 3.1z" class="st54"/><path d="M306.1 83.3c-.1-5.2-3-9.1-8-10.7-5.1-1.6-10.3-1.6-15.4.1-4.7 1.6-8 4.8-7.5 10.9.1.8.3 1.1 1.1 1.1 1.8-.1 3.7-.1 5.5 0 .9 0 1.3-.2 1.2-1.2-.3-2.7 1.5-4 3.5-4.5 2-.6 4.1-.6 6.2-.2 3 .5 4.5 2.3 4.6 5.3V87c0 .6-.1.9-.8 1-2 .2-4 .4-6.1.6-3.4.4-6.8.9-10 2.4-4 1.8-6.8 4.6-7.3 9.2-.5 5.4 1.8 10.7 7.9 12.2 3.2.8 6.5.6 9.6-.4 2.7-.9 5-2.5 7.3-4.8v3.8c0 .7.1 1 .9 1h6.4c.7 0 .9-.2.9-.9.1-9.3.1-18.5 0-27.8zm-9.9 19.8c-2.9 2.1-6.1 3.3-9.8 2.7-2-.3-3.5-1.3-4-3.4-.6-2.3.2-4.4 2-5.7 2.3-1.6 5-2 7.6-2.5 1.5-.2 3-.4 4.5-.7.8-.1 1 .1.9.8v3.4c0 .9-.1 1.7 0 2.6.2 1.4-.3 2.1-1.2 2.8z" class="st55"/><path d="M566.7 75.7c-2.9-2.9-6.6-4-10.6-4.2-7-.3-13.3 2.5-16.4 9.3-3.5 7.5-3.4 15.1-.3 22.7 1.7 4.2 5 7 9.3 8.4 3.8 1.2 7.7 1.4 11.6.6 3.5-.7 6.6-2.1 9.3-4.4.7-.6.9-1 .2-1.9-1.1-1.3-2.1-2.8-3.1-4.2-.3-.5-.5-.6-1.1-.2-2.4 2-5.2 3-8.2 3.4-6.4.8-11.1-3-11.4-9.3 0-.8.1-1 .9-1h22.8c.7 0 1-.2 1.1-.9.4-2.5.5-5 .3-7.5-.1-4.1-1.4-7.8-4.4-10.8zM563.2 88c0 .6-.5.5-.9.5h-15.2c-.5 0-.9.1-.9-.7 0-6.4 5.9-10.7 12-8.6 4.1 1.4 5.3 5.3 5 8.8z" class="st54"/><path d="M80.7 103c.2.1.5.3.7.4l16.8-9.3 12.3-6.9c5.6-3.1 11.2-6.1 16.8-9.2-.3-.5-.8-.7-1.3-.9-2.2-1.5-4.6-2.6-6.7-4.2l-16.8 9.3L89 89.7c-2.5 1.4-5 2.9-7.6 4.1-2.1-.8-4-2-5.9-3.1-6.9-3.8-13.8-7.7-20.7-11.5-3.4-1.9-6.8-3.8-10.3-5.7-.3-.2-.7-.3-1.1-.5-2.6 1.6-5.2 3.2-7.8 4.7 1.2 1.1 2.6 1.7 4 2.4C53.3 87.8 67 95.4 80.7 103z" class="st58"/><path d="M38.4 100.5c7.3 4.1 14.5 8.1 21.8 12.1 7 3.9 14.1 7.8 21.1 11.7 2-.7 3.8-2 5.7-3 4.4-2.4 8.8-4.9 13.2-7.4 5.4-3 10.9-6.1 16.3-9.1 3.6-2 7.1-4 10.7-5.9-2.1-1.5-4.3-2.7-6.5-4.1-.5-.3-1.2-.4-1.4-1.1-4.8 2.7-9.6 5.3-14.4 8-5.8 3.3-11.6 6.6-17.5 9.8-2 1.1-3.9 2.4-6 3.2-1.4-.2-2.5-1.2-3.7-1.8-7.4-4.1-14.7-8.2-22.1-12.3-3.8-2.1-7.7-4.3-11.5-6.4l-.6-.3c-2.6 1.6-5.2 3.2-7.7 4.8.5 1.1 1.6 1.3 2.6 1.8z" class="st58"/><path d="M328.3 80.1c4.5-2 9.3-.6 12.1 3.5.4.5.6.8 1.2.3 1.6-1.2 3.2-2.4 4.9-3.5.6-.4.6-.7.3-1.3-1.3-2.2-3-4-5.3-5.3-4.5-2.5-9.4-2.9-14.3-1.9-4.8 1-8.3 3.7-10.6 8-2.1 3.8-2.7 8-2.7 12.9 0 1.8.2 4.2.8 6.6 1.5 5.9 4.6 10.5 10.6 12.5 4.7 1.5 9.5 1.4 14.2-.4 3.1-1.2 5.5-3.2 7.2-6.1.5-.8.4-1.2-.4-1.7-1.4-.9-2.8-1.9-4.1-3-.9-.7-1.3-.7-2 .3-2.2 3.1-5.4 4.2-9.2 3.8-3.8-.5-6.2-2.7-7.3-6.3-1.3-4.5-1.3-9 .2-13.5.7-2.1 2.1-3.9 4.4-4.9z" class="st55"/><path d="M462.5 104.5c0-.6-.2-.8-.8-.6-1.1.4-2.2.6-3.3.8-3.7.5-5.8-1.2-5.8-5V80.8c0-.7.2-.9.9-.9h7.8c.8 0 1.1-.1 1.1-1-.1-1.8-.1-3.7 0-5.5 0-.8-.2-1.1-1-1-2.5.1-5.1 0-7.6 0-.9 0-1.1-.3-1.1-1.1.1-3 0-6 0-9.1 0-.9-.3-1-1.1-.9-2.2.4-4.4.8-6.6 1.1-1 .1-1.2.5-1.1 1.4.1 2.5 0 5.1 0 7.6 0 .7-.1 1-.9 1-1.8.2-3.7.4-5.5.6-.7.1-1 .3-1 1.1.1 1.6 0 3.3 0 4.9 0 .6.2.8.8.8h5.2c1 0 1.4.2 1.4 1.3-.1 3.4 0 6.8 0 11 .1 3.2-.2 7.2.1 11.1.3 4.7 2.9 8.1 7.1 9.2 3.9 1 7.6.3 11.3-.8.5-.1.5-.5.5-.9-.2-2-.4-4.1-.4-6.2zm70.1-.7c-1.5.5-2.9.8-4.4 1-3.3.4-5.4-1.5-5.4-4.7V80.9c0-.7.2-1 .9-1 2.6.1 5.2 0 7.8 0 .8 0 1-.2 1-1-.1-1.8-.1-3.6 0-5.4 0-.8-.1-1.2-1.1-1.1-2.5.1-4.9 0-7.4.1-1 0-1.3-.2-1.3-1.3.1-3.3 0-6.6 0-9.9-2.6.4-5.1.9-7.5 1.2-1.1.1-1.3.6-1.3 1.6.1 2.5 0 4.9 0 7.4 0 .7-.1 1-.9 1.1-1.8.2-3.7.4-5.5.6-.7.1-.9.3-.9 1 .1 1.6 0 3.3 0 4.9 0 .7.2.9.8.9h5.4c.9 0 1.1.3 1.1 1.1V101c0 1.3.1 2.6.4 3.9.8 3.9 2.9 6.8 6.9 7.7 3.9.9 7.6.3 11.3-.8.4-.1.5-.3.5-.8-.2-2.5-.3-4.8-.4-7.2z" class="st54"/><path d="M267.8 104.6c0-.7-.2-.9-.9-.6-1.1.4-2.2.6-3.3.8-3.5.5-5.7-1.3-5.7-4.8V80.9c0-.9.3-1 1.1-1h7.6c.8 0 1-.2 1-1v-5.6c0-.7-.2-.9-.9-.9h-7.6c-.9 0-1.1-.2-1.1-1.1.1-3 0-6 0-9.1 0-.9-.3-1-1.1-.9-2.3.4-4.5.8-6.8 1.1-.7.1-.9.4-.9 1.1v7.9c0 .7-.2 1.1-.9 1.1-1.8.2-3.5.4-5.3.6-.7.1-1.1.3-1.1 1.1.1 1.6 0 3.2 0 4.8 0 .7.2.9.9.9h5.3c.9 0 1.1.2 1.1 1.1-.1 3.6 0 7.2 0 10.8v.8c.1 4-.3 7.9.3 11.9.5 3.3 2 6 5.2 7.4 4.4 1.9 8.7 1 13.1-.2.5-.1.5-.5.5-.9-.2-2.1-.4-4.2-.5-6.2z" class="st55"/><path d="M45.2 73.6c3.6 2 7.2 4 10.9 6 6 3.4 12 6.7 18.1 10 1.7.9 3.3 1.9 5 2.8.7.4 1.3.8 2.1.9V82.5c-1.9-.7-3.5-1.8-5.2-2.8-6.7-3.7-13.5-7.5-20.2-11.3-6.3-3.5-12.6-7.1-19-10.6-.5-.3-1.4-.3-1.2-1.3-.4.3-.3.7-.3 1.1v5.5c0 1.7-.5 3.6.2 5s2.8 1.7 4.2 2.6c1.2.7 2.6 1.2 3.6 2.2.8-.2 1.3.4 1.8.7z" class="st59"/><path d="M36.9 58c6.3 3.5 12.6 7.1 19 10.6 6.8 3.7 13.5 7.5 20.2 11.3 1.7 1 3.4 2.1 5.2 2.8v-.1c-3.3-2.1-6.7-3.8-10.1-5.7-10.6-6-21.3-11.9-32-17.8-1.2-.7-2.6-1.1-3.6-2.3-.1.8.8.9 1.3 1.2zm17.8 21.2c6.9 3.8 13.8 7.7 20.7 11.5 1.9 1.1 3.8 2.3 5.9 3.1v-.4c-.8-.1-1.4-.6-2.1-.9-1.7-.9-3.3-1.9-5-2.8-6-3.3-12-6.7-18.1-10-3.6-2-7.2-4.1-10.9-6-.5-.3-1.1-.8-1.8-.5.4.1.7.3 1.1.5 3.4 1.7 6.8 3.6 10.2 5.5zm-10.2 15c6.2 3.4 12.4 6.9 18.6 10.3 5.7 3.2 11.5 6.4 17.2 9.6.3.2.6.4 1 .3v-10.9c-2.4-1-4.5-2.4-6.7-3.6-6.7-3.7-13.4-7.4-20-11.2-6.1-3.4-12.2-6.7-18.2-10.1-.4-.2-.8-.4-.7-.9-.4.3-.2.7-.2 1.1v9.5c0 .8.2 1.2.9 1.6 2.4 1.3 4.8 2.5 7.1 4 .4-.2.7.1 1 .3z" class="st59"/><path d="M36.4 78.7c6 3.4 12.1 6.8 18.2 10.1 6.7 3.7 13.3 7.5 20 11.2 2.2 1.2 4.4 2.6 6.7 3.6v-.2c-.2-.1-.5-.3-.7-.4-13.7-7.6-27.4-15.2-41-22.8-1.4-.8-2.8-1.3-4-2.4 0 .6.5.7.8.9zm19.2 22c7.4 4.1 14.7 8.2 22.1 12.3 1.2.7 2.3 1.6 3.7 1.8v-.3c-.4 0-.7-.2-1-.3-5.7-3.2-11.5-6.4-17.2-9.6-6.2-3.4-12.4-6.9-18.6-10.3-.3-.2-.7-.5-1.1-.2l.6.3c3.8 2 7.6 4.1 11.5 6.3zm20 20.9c-7.5-4.2-15-8.3-22.5-12.5-5.6-3.1-11.2-6.2-16.7-9.3-.4-.2-1-.3-.7-1-.5.3-.2.7-.3 1.1v9.6c0 .8.3 1.2 1 1.5 12.1 6.7 24.1 13.4 36.1 20.1 2.9 1.6 5.8 3.4 8.8 4.8v-11.3c-2-.7-3.8-1.9-5.7-3z" class="st59"/><path d="M36.4 99.8c5.6 3.1 11.2 6.2 16.7 9.3 7.5 4.2 15 8.3 22.5 12.5 1.9 1 3.6 2.3 5.7 3v-.2c-7-3.9-14.1-7.8-21.1-11.7-7.3-4-14.6-8.1-21.8-12.1-.9-.5-2.1-.8-2.7-1.7-.3.5.3.7.7.9z" class="st59"/><path d="M127.2 99c-.2.5-.7.8-1.1 1-9.4 5.2-18.7 10.4-28.1 15.6-5.1 2.8-10.1 5.6-15.2 8.5-.4.2-.8.5-1.3.5.2.4.3.8.3 1.2v8.7c0 .5 0 1-.4 1.4.4-.2.8-.3 1.2-.5 5.7-3.2 11.4-6.4 17.1-9.5 8.9-5 17.8-9.9 26.7-14.9.4-.2.9-.3.9-1.1-.1-3.6-.1-7.3-.1-10.9z" class="st60"/><path d="M100.2 114c-4.4 2.5-8.8 5-13.2 7.4-1.9 1-3.7 2.3-5.7 3l.2.2c.5 0 .9-.3 1.3-.5 5.1-2.8 10.1-5.7 15.2-8.5 9.4-5.2 18.7-10.4 28.1-15.6.4-.2.9-.5 1.1-1-3.6 2-7.1 4-10.7 5.9-5.4 3.1-10.8 6.1-16.3 9.1zm-18.5 11.8c0-.4 0-.9-.3-1.2h-.1v11.3c.4-.4.4-.9.4-1.4v-8.7z" class="st60"/><path d="M81.3 124.6h.2c0-.1-.1-.1-.2-.2v.2zm44.9-45.7c-7.3 4.1-14.6 8.1-22 12.2-6.7 3.7-13.4 7.5-20.1 11.2-.9.5-1.6 1.1-2.6 1.3.3.4.3.8.3 1.3v8.4c0 .4 0 .7-.1 1 2.5-1.2 4.9-2.7 7.3-4 6-3.3 12-6.7 18.1-10.1 3.5-1.9 6.9-3.9 10.4-5.7.6-.3 1.1-.9 1.9-.7 2.5-1.4 5-2.7 7.5-4.1.4-.2.5-.5.5-.9V78c-.4.5-.8.7-1.2.9z" class="st60"/><path d="M98.2 94.1l-16.8 9.3.1.1c1-.2 1.8-.8 2.6-1.3 6.7-3.7 13.4-7.4 20.1-11.2 7.3-4.1 14.6-8.1 22-12.2.4-.2.9-.4 1.1-.9-5.6 3.1-11.2 6.1-16.8 9.2-4.1 2.4-8.2 4.7-12.3 7zm19.2.5c-3.5 1.9-6.9 3.8-10.4 5.7-6 3.3-12 6.7-18.1 10.1-2.4 1.3-4.8 2.8-7.3 4-.1.1-.1.3-.2.4 2.1-.8 4-2.1 6-3.2 5.9-3.2 11.7-6.5 17.5-9.8 4.8-2.7 9.6-5.3 14.4-8-.8-.2-1.3.4-1.9.8z" class="st60"/><path d="M81.6 114.4c.1-.3.1-.7.1-1V105c0-.4 0-.9-.3-1.3h-.1v10.9h.1c.1-.2.1-.2.2-.2zm-.1-10.8l-.1-.1v.2c0-.1 0-.1.1-.1z" class="st60"/><path d="M81.4 114.5c-.1.1-.1.2-.1.3.1-.1.2-.3.2-.4l-.1.1zm22.2-44.1c-6.6 3.7-13.1 7.3-19.7 11-.8.4-1.6 1-2.5 1.2.3.4.3.9.3 1.3v8.3c0 .4 0 .7-.1 1 2.1-.8 4-2.1 5.9-3.2 6.9-3.8 13.8-7.7 20.8-11.5 2.9-1.6 5.8-3.3 8.7-4.9.7-.4 1.3-1 2.2-.8 2.4-1.3 4.9-2.7 7.3-4 .4-.2.7-.4.7-1 0-3.6 0-7.1-.1-10.7-1 1-2.4 1.6-3.7 2.3-6.5 3.6-13.2 7.3-19.8 11z" class="st60"/><path d="M120.3 60.8c-4.5 2.5-9 5-13.4 7.4-5.2 2.9-10.4 5.8-15.7 8.8-3.3 1.8-6.6 3.7-9.8 5.5l.1.1c.9-.3 1.7-.8 2.5-1.2 6.6-3.7 13.1-7.3 19.7-11S117 63 123.6 59.3c1.3-.7 2.6-1.2 3.7-2.3-.4.2-.9.3-1.3.6-1.9 1.1-3.8 2.1-5.7 3.2zM117 73.7c-2.9 1.6-5.8 3.3-8.7 4.9-6.9 3.8-13.8 7.7-20.8 11.5-2 1.1-3.8 2.3-5.9 3.2-.1.2-.1.4-.3.5 2.6-1.2 5.1-2.8 7.6-4.1l13.5-7.5 16.8-9.3c-.9-.2-1.5.4-2.2.8z" class="st60"/><path d="M81.7 92.2v-8.3c0-.5 0-.9-.3-1.3h-.1v10.8c.1 0 .2-.1.3-.1.1-.4.1-.7.1-1.1zm-.3-9.6s0-.1 0 0c0-.1 0-.1 0 0 0-.1 0 0 0 0z" class="st60"/><path d="M81.3 93.4v.4c.1-.2.2-.3.3-.5-.1 0-.2.1-.3.1z" class="st60"/></g></svg>