<svg xmlns="http://www.w3.org/2000/svg" role="img" viewBox="-27.26 -27.26 1677.52 496.52"><title>Stacklet (member) logo</title><path fill="#D1581F" d="M201.187 5L5 135.756v63.605L38.2129 221.5 5 243.631v63.604l196.187 130.757V438l196.196-130.756v-63.605L364.17 221.5l33.213-22.131V135.765L201.187 5zm150.721 270.437l-34.333 22.874-116.388 77.572L50.4746 275.437l34.3328-22.874 116.3796 77.563 69.794-46.517v-62.101l46.594 31.047v.008l34.333 22.874zm-34.333-85l-116.388-77.563-82.047 54.681 46.595 31.054 35.452-23.626 69.786 46.509-69.786 46.516-69.785-46.508v-.008l-46.5946-31.055-34.3328-22.882 34.3328-22.883L201.187 67.1093 351.908 167.555l-34.333 22.882z"/><path d="M591.559 271.786c0-4.724-.989-8.81-2.951-12.259-1.97-3.44-5.812-6.742-11.518-9.888-5.714-3.146-14.175-6.497-25.398-10.044-9.654-3.146-18.834-6.718-27.54-10.706-8.714-3.988-16.447-8.662-23.191-14.023-6.744-5.361-12.065-11.613-15.948-18.747-3.891-7.135-5.837-15.479-5.837-25.024 0-12.201 3.474-22.809 10.414-31.815 6.941-9.005 16.488-16.017 28.652-21.035 12.155-5.018 26.068-7.527 41.722-7.527 15.949 0 29.878 2.779 41.797 8.344 11.91 5.565 21.212 13.362 27.915 23.406 6.695 10.043 10.047 21.656 10.047 34.846h-48.001c0-5.614-1.161-10.558-3.466-14.841-2.313-4.282-5.885-7.624-10.708-10.043-4.823-2.411-10.979-3.621-18.458-3.621-7.087 0-13.022 1.014-17.796 3.024-4.774 2.019-8.322 4.724-10.635 8.123-2.313 3.4-3.474 7.257-3.474 11.589 0 4.429 1.602 8.319 4.798 11.661 3.196 3.351 7.848 6.424 13.954 9.227 6.106 2.803 13.439 5.59 22.006 8.344 15.654 4.821 28.798 10.436 39.433 16.835 10.635 6.399 18.655 13.974 24.074 22.735 5.412 8.761 8.126 19.148 8.126 31.153 0 12.601-3.229 23.397-9.671 32.411-6.449 9.006-15.58 15.87-27.392 20.594-11.813 4.724-25.701 7.085-41.649 7.085-10.832 0-21.466-1.405-31.897-4.208-10.439-2.803-19.913-7.159-28.431-13.068-8.518-5.908-15.286-13.386-20.305-22.441s-7.529-19.785-7.529-32.182h48.148c0 6.301.907 11.613 2.73 15.944 1.823 4.331 4.479 7.853 7.978 10.558 3.491 2.705 7.725 4.65 12.703 5.835 4.97 1.185 10.504 1.774 16.611 1.774 7.185 0 13.022-.981 17.501-2.95 4.48-1.97 7.799-4.626 9.973-7.977 2.126-3.366 3.213-7.052 3.213-11.089zM749.8 202.39h-95.11v-33.514h95.11v33.514zm-26.73-72.929v148.376c0 4.233.539 7.51 1.626 9.815 1.079 2.312 2.829 3.914 5.24 4.797 2.412.882 5.485 1.324 9.229 1.324 2.657 0 4.995-.098 7.014-.295 2.019-.196 3.768-.441 5.24-.735v34.699c-3.842 1.382-7.929 2.411-12.254 3.098-4.332.686-9.155 1.029-14.477 1.029-9.842 0-18.335-1.626-25.471-4.87-7.137-3.245-12.654-8.442-16.537-15.577-3.891-7.134-5.837-16.41-5.837-27.826V129.461h46.227zM871.854 257.02h-22.447c-10.341 0-17.747 2.313-22.227 6.939-4.479 4.625-6.719 10.141-6.719 16.532 0 4.724 1.7 8.638 5.093 11.735 3.392 3.098 7.896 4.65 13.512 4.65 5.91 0 11.027-1.152 15.36-3.473 4.332-2.313 7.651-5.067 9.973-8.27 2.313-3.195 3.368-6.178 3.172-8.932l11.518 19.785c-1.578 3.939-3.671 7.976-6.278 12.103-2.608 4.135-5.886 7.976-9.826 11.515-3.94 3.546-8.714 6.423-14.322 8.638-5.608 2.214-12.262 3.318-19.938 3.318-10.046 0-19.202-2.044-27.466-6.13-8.265-4.086-14.845-9.741-19.717-16.982-4.872-7.232-7.308-15.576-7.308-25.023 0-16.631 6.18-29.576 18.532-38.827 12.351-9.251 30.94-13.876 55.75-13.876h23.036l.302 26.298zm-6.204-34.699c0-6.889-1.701-12.373-5.093-16.459-3.393-4.086-8.837-6.129-16.316-6.129-4.235 0-7.856.686-10.856 2.067-3.008 1.381-5.314 3.375-6.94 5.982-1.627 2.607-2.436 5.884-2.436 9.815h-46.08c0-9.741 2.828-18.477 8.493-26.208 5.657-7.723 13.635-13.901 23.927-18.527 10.284-4.625 22.423-6.938 36.401-6.938 12.499 0 23.657 2.092 33.45 6.276 9.793 4.184 17.551 10.485 23.257 18.894 5.706 8.418 8.567 18.927 8.567 31.521v66.293c0 9.742.564 17.35 1.7 22.809 1.128 5.459 2.73 10.265 4.798 14.4v2.509h-46.374c-2.166-4.626-3.793-10.412-4.872-17.35-1.087-6.938-1.626-14.048-1.626-21.338v-67.617zm147.02 72.195c4.92 0 9.2-.907 12.85-2.73 3.63-1.822 6.47-4.405 8.49-7.755 2.02-3.343 3.07-7.282 3.17-11.809h43.28c0 11.711-2.98 22.024-8.94 30.932-5.96 8.908-13.95 15.87-24 20.888-10.04 5.018-21.37 7.527-33.96 7.527-16.646 0-30.478-3.563-41.505-10.706-11.028-7.134-19.276-16.835-24.737-29.085-5.46-12.258-8.199-25.963-8.199-41.123v-3.694c0-15.257 2.73-29.011 8.199-41.27 5.469-12.258 13.685-21.95 24.663-29.085 10.979-7.134 24.736-10.706 41.269-10.706 13.3 0 24.96 2.534 35.01 7.601 10.04 5.075 17.92 12.332 23.63 21.779 5.71 9.447 8.57 20.815 8.57 34.103h-43.28c-.1-4.822-1.05-9.227-2.88-13.215-1.82-3.988-4.55-7.183-8.2-9.594-3.64-2.411-8.22-3.62-13.73-3.62-7.58 0-13.315 2.067-17.206 6.202s-6.523 9.521-7.905 16.165c-1.381 6.644-2.068 13.852-2.068 21.632v3.694c0 7.878.662 15.135 1.995 21.779 1.332 6.644 3.964 11.989 7.905 16.018 3.932 4.053 9.789 6.072 17.579 6.072zm140.07 34.107h-46.23V101.695h46.23v226.928zm32.05-79.14l-37.81 37.65-17.57-32.338 30.13-39.276 38.69-46.656h55.38l-68.82 80.62zm-24.22 6.497l32.64-26.576 64.98 99.219h-53.02l-44.6-72.643zm167.09 72.648h-46.22V101.847h46.22v226.781zm111.58 2.946c-16.94 0-31.44-3.514-43.5-10.559-12.07-7.036-21.3-16.41-27.7-28.129-6.4-11.711-9.59-24.606-9.59-38.679v-5.614c0-15.846 3-30.017 9.01-42.521 6-12.495 14.64-22.318 25.92-29.453 11.27-7.134 24.83-10.705 40.68-10.705 15.46 0 28.48 3.244 39.07 9.741 10.58 6.497 18.63 15.625 24.14 27.385 5.51 11.76 8.28 25.62 8.28 41.565v19.49H1377.5v-30.858h82.85v-3.694c-.1-5.312-1.09-9.97-2.95-13.95-1.87-3.988-4.75-7.085-8.64-9.3-3.89-2.215-8.89-3.318-14.99-3.318-7.29 0-13.05 2.043-17.28 6.129-4.24 4.086-7.26 9.545-9.09 16.386-1.82 6.84-2.73 14.538-2.73 23.103v5.614c0 7.976 1.48 14.963 4.43 20.962 2.96 6.007 7.24 10.706 12.85 14.097 5.62 3.392 12.36 5.091 20.24 5.091 7.38 0 14.34-1.348 20.89-4.061 6.55-2.705 12.18-7.061 16.91-13.068l21.86 25.694c-4.92 7.183-12.7 13.754-23.33 19.711-10.63 5.966-23.73 8.941-39.28 8.941zm178.14-129.184h-95.11v-33.514h95.11v33.514zm-26.73-72.929v148.376c0 4.233.54 7.51 1.63 9.815 1.08 2.312 2.83 3.914 5.24 4.797 2.41.882 5.48 1.324 9.23 1.324 2.65 0 4.99-.098 7.01-.295 2.02-.196 3.77-.441 5.24-.735v34.699c-3.84 1.382-7.93 2.411-12.25 3.098-4.34.686-9.16 1.029-14.48 1.029-9.84 0-18.34-1.626-25.47-4.87-7.14-3.245-12.66-8.442-16.54-15.577-3.89-7.134-5.84-16.41-5.84-27.826V129.461h46.23z"/></svg>