<svg viewBox="90.44 7.44 497.12 400.12" xmlns="http://www.w3.org/2000/svg"><title>StackStorm</title><path fill="#606062" d="M328.043 17.176l144.393 118.682V17.176zM191.206 309.982h156.09l-156.09-122.338z" class="fil0"/><path fill="#f47a04" d="M479.625 182.77c-6.458-11.454-17.06-23.151-31.925-35.093L290.636 19.004c-10.601.122-19.253.731-25.833 1.706-6.701 1.096-13.403 2.924-20.227 5.605-17.424 7.067-30.95 17.546-40.698 31.559-9.626 13.89-14.5 30.219-14.5 48.984 0 6.823.975 14.134 2.925 21.933a98.27 98.27 0 0 0 7.798 21.567c4.265 7.92 11.21 17.181 21.202 27.66 9.992 10.967 23.517 23.517 40.698 37.652 17.424 14.865 35.458 29.122 54.223 42.891 11.454 8.408 21.446 15.597 29.853 21.567s22.664 15.963 42.648 29.854c7.554-.244 14.012-.61 19.252-1.097 4.752-.487 9.382-1.34 14.135-2.437 3.29-.731 7.31-2.071 12.063-4.143 17.059-6.945 30.462-17.546 40.332-31.925s14.866-30.462 14.866-48.252c0-14.5-3.29-27.538-9.87-39.358z" class="fil2"/><path fill="#636266" d="M371.99 359.293l-8-2.016c-4.163-1.04-7.09-2.472-8.911-4.293s-2.667-4.292-2.667-7.414c0-4.098 1.366-7.285 4.098-9.561s6.634-3.382 11.642-3.382c5.333 0 9.43 1.3 12.358 3.967s4.422 6.374 4.552 11.252h6.374c-.065-6.569-2.146-11.642-6.178-15.284s-9.626-5.464-16.78-5.464c-6.765 0-12.163 1.691-16.196 5.008s-6.048 7.74-6.048 13.269c0 5.008 1.365 8.91 4.032 11.642 2.667 2.796 7.48 5.073 14.504 6.829l6.504 1.626c6.374 1.626 10.601 3.447 12.748 5.528 2.146 2.017 3.187 5.008 3.187 8.91 0 4.228-1.496 7.48-4.553 9.887s-7.22 3.577-12.553 3.577c-6.048 0-10.731-1.496-14.113-4.423-3.317-2.991-5.009-7.154-5.074-12.487h-6.243v.455c0 7.09 2.211 12.553 6.569 16.39s10.666 5.724 18.796 5.724c7.285 0 13.008-1.756 17.17-5.269s6.31-8.325 6.31-14.439c0-5.333-1.561-9.495-4.748-12.487-3.187-3.057-8.716-5.529-16.585-7.48zm39.609-25.496h-5.724v14.114h-6.699v4.618h6.7v35.902c0 3.772.585 6.374 1.755 7.805s3.187 2.146 6.049 2.146c1.04 0 2.081-.065 3.252-.26s2.407-.455 3.772-.78l-.065-4.553c-1.56.325-2.731.585-3.447.65-.715.13-1.43.13-2.016.13-1.366 0-2.276-.325-2.797-1.04-.52-.65-.78-2.082-.78-4.163v-35.902h9.105v-4.618H411.6v-14.114zm50.666 54.244c-2.927 3.642-7.024 5.398-12.358 5.398-5.268 0-9.365-1.821-12.292-5.463s-4.358-8.78-4.358-15.415 1.431-11.772 4.358-15.414 7.024-5.464 12.292-5.464c5.334 0 9.496 1.822 12.358 5.464 2.927 3.642 4.358 8.78 4.358 15.48s-1.431 11.837-4.358 15.414zm-12.358-41.366c-7.154 0-12.748 2.277-16.65 6.765-3.967 4.552-5.919 10.926-5.919 19.186 0 8.195 1.952 14.57 5.92 19.057s9.495 6.764 16.65 6.764c7.219 0 12.812-2.276 16.78-6.764s5.918-10.862 5.918-19.057c0-8.26-2.016-14.634-5.983-19.186s-9.561-6.765-16.78-6.765zm44.293 2.407c-2.537 1.626-4.488 4.097-5.92 7.414v-8.65h-5.527v49.235h5.853v-27.186c0-5.789 1.236-10.147 3.707-13.008 2.472-2.927 6.114-4.358 11.057-4.358h.716v-5.984h-.65c-3.708 0-6.765.846-9.301 2.472zm80.52 1.56c-2.668-2.666-6.635-4.032-11.968-4.032-3.512 0-6.634.846-9.366 2.472s-4.878 4.032-6.504 7.22c-.78-3.123-2.407-5.464-4.878-7.155-2.407-1.691-5.463-2.537-9.17-2.537-3.448 0-6.44.78-9.106 2.407s-4.813 3.967-6.504 6.96v-8.13h-5.334v49.234h5.724v-30.438c0-4.423 1.366-8.065 4.032-10.797s6.18-4.097 10.472-4.097c3.512 0 6.114.975 7.805 2.991 1.69 1.952 2.536 5.008 2.536 9.106v33.3h5.724v-30.894c0-4.357 1.3-7.87 3.967-10.536 2.602-2.667 6.114-4.033 10.472-4.033 3.707 0 6.309.911 7.935 2.667 1.626 1.821 2.406 4.748 2.406 8.91v33.886h5.724V361.18c-.26-4.618-1.561-8.13-3.903-10.536z" class="fil1"/><path fill="#f47a04" d="M129.585 356.952c-6.634-1.691-10.926-3.382-13.008-5.008s-3.122-3.773-3.122-6.374c0-2.537 1.171-4.683 3.513-6.44s5.398-2.6 9.105-2.6c4.488 0 8.065 1.105 10.732 3.316s4.162 5.203 4.357 9.106l10.797-.065c-.065-6.634-2.341-11.903-6.764-15.805s-10.341-5.854-17.821-5.854c-7.675 0-13.789 1.757-18.406 5.334s-6.96 8.195-6.96 13.853c0 5.334 1.561 9.561 4.748 12.683 3.122 3.122 8.52 5.659 16.195 7.675.65.13 1.691.39 2.992.715 6.179 1.496 10.146 3.057 11.967 4.748 1.106.976 1.952 2.146 2.667 3.577.716 1.366 1.04 2.602 1.04 3.708 0 2.731-1.235 5.073-3.707 6.959s-5.658 2.797-9.56 2.797c-5.139 0-9.236-1.236-12.228-3.643-2.992-2.471-4.683-5.853-5.008-10.276h-11.057c.325 7.675 2.862 13.528 7.61 17.626 4.683 4.097 11.317 6.114 19.772 6.114 8.065 0 14.439-1.952 19.252-5.854s7.22-9.106 7.22-15.48c0-5.333-1.562-9.43-4.619-12.422s-9.625-5.724-19.642-8.26zm46.569-23.545h-10.537v13.789h-7.154v7.87h7.154v30.698c0 4.488.846 7.675 2.602 9.431 1.691 1.756 4.683 2.667 8.846 2.667 1.235 0 3.382-.13 6.373-.455.456 0 .846-.065 1.041-.065v-8.456l-2.081.065c-.195 0-.52 0-.976.065-.455 0-.78.065-1.105.065-1.626 0-2.732-.325-3.318-.91s-.91-1.821-.91-3.642V355.13h8.325v-7.87h-8.325v-13.789zm45.723 44.943c0 3.447-1.3 6.309-3.902 8.52s-5.854 3.317-9.756 3.317c-2.602 0-4.618-.65-6.049-1.886s-2.146-2.992-2.146-5.333c0-2.017.585-3.708 1.82-4.943s3.058-2.082 5.53-2.602c.845-.13 2.145-.39 3.902-.65 4.878-.716 8.39-1.626 10.601-2.797v6.244zm13.398 11.382c-1.17 0-1.95-.325-2.406-.91s-.65-1.822-.65-3.773v-24.78c0-4.878-1.692-8.586-5.074-11.057s-8.39-3.707-15.024-3.707c-6.309 0-11.317 1.43-14.96 4.357-3.641 2.862-5.462 6.83-5.462 11.773v.845h10.08v-.39c0-2.537.846-4.488 2.602-5.854s4.228-2.016 7.48-2.016c3.512 0 6.049.585 7.74 1.691 1.69 1.17 2.471 2.927 2.471 5.333 0 2.992-3.382 4.878-10.081 5.724-.455.065-.846.13-1.04.13-8.066 1.04-13.594 2.797-16.65 5.333s-4.619 6.374-4.619 11.447c0 4.618 1.431 8.26 4.293 10.862s6.83 3.967 11.837 3.967c3.252 0 6.374-.715 9.236-2.146s5.333-3.447 7.35-6.114c.064 2.537.845 4.488 2.406 5.724s3.967 1.886 7.154 1.886c.846 0 1.691-.065 2.602-.195s1.821-.325 2.797-.585v-7.74c-.65.065-1.106.13-1.366.13h-.716zm37.854-3.057c-1.952 1.821-4.553 2.732-7.74 2.732-3.968 0-7.024-1.496-9.106-4.423s-3.122-7.22-3.122-12.878c0-5.723 1.041-10.081 3.187-13.073 2.147-2.927 5.269-4.423 9.366-4.423 3.057 0 5.593.846 7.48 2.602 1.886 1.69 2.991 4.032 3.317 7.024h10.406c-.325-5.788-2.406-10.341-6.244-13.723-3.837-3.317-8.91-5.008-15.284-5.008-7.285 0-12.943 2.341-17.106 7.089-4.097 4.748-6.178 11.252-6.178 19.642 0 8.13 2.016 14.634 5.983 19.382s9.366 7.154 16.195 7.154c6.634 0 11.968-1.756 15.935-5.333 4.032-3.512 6.244-8.39 6.764-14.634h-10.276c-.455 3.382-1.691 5.984-3.642 7.805zm65.69-39.48h-12.943l-19.642 20.358V328.92h-10.471v68.227h10.471v-16.65l7.09-7.22 13.528 23.87h12.292l-18.406-31.609z" class="fil2"/></svg>