<svg xmlns="http://www.w3.org/2000/svg" role="img" viewBox="-3.84 -3.84 172.17 199.42"><title>StarlingX logo</title><g fill-opacity="1" fill-rule="nonzero" stroke="none" transform="matrix(1.33333 0 0 -1.33333 0 192) scale(.1)"><path fill="#32266a" d="M55.3945 71.8906C35.1992 77.0703 30.1992 79.5703 30.1992 87.25v.3203c0 5.6797 5.1758 10.168 15.0156 10.168 9.8477 0 20.0196-4.3281 30.3672-11.5l13.3399 19.3637c-11.8477 9.507-26.3555 14.839-43.375 14.839-23.8477 0-40.87112-14.011-40.87112-35.2105v-.3203c0-23.1914 15.19142-29.6993 38.70312-35.6993 19.5156-5.0117 23.5234-8.3398 23.5234-14.8398v-.3516c0-6.8398-6.3476-11.0078-16.8554-11.0078-13.3438 0-24.3555 5.5196-34.8555 14.1797L.0039 19.0117C14.0234 6.5 31.8711.32031 49.5547.32031c25.1875 0 42.8711 13.01949 42.8711 36.19919v.3516c0 20.3477-13.3555 28.8398-37.0313 35.0195"/><path fill="#32266a" d="M135.715 95.0781h35.519V2h25.704v93.0781h35.531V118.77h-96.754V95.0781"/><path fill="#32266a" d="M304.922 50.8711l15.523 37.8672 15.516-37.8672zm4.004 68.7309L258.887 2h26.187l10.68 26.1797h49.375L355.805 2h26.851l-50.039 117.602h-23.691"/><path fill="#32266a" d="M503.855 78.5586c0-9.8281-7.167-16.5078-19.679-16.5078h-26.024v33.539h25.524c12.512 0 20.179-5.6796 20.179-16.6796zm26.028 1.332v.3399c0 11.0078-3.504 20.1915-10.012 26.6915-7.676 7.68-19.18 11.848-34.023 11.848h-53.379V2h25.683v37.3711h20.184L503.355 2h30.032l-28.524 41.6992c14.848 5.5117 25.02 17.3516 25.02 36.1914"/><path fill="#32266a" d="M610.535 118.77h-25.676V2h83.895v23.3516h-58.219V118.77"/><path fill="#32266a" d="M721.059 2h25.683v116.77h-25.683V2"/><path fill="#32266a" d="M886.078 46.8711L831.363 118.77h-23.691V2h25.351v74.2305L889.574 2h21.856v116.77h-25.352V46.8711"/><path fill="#32266a" d="M1026.64 47.0391h25.85V30.3594c-6.5-4.6797-14.84-7.0078-24.18-7.0078-20.69 0-35.376 15.6679-35.376 37.0273v.332c0 19.8594 14.846 36.3672 33.536 36.3672 13.51 0 21.51-4.3398 30.53-11.8476l16.17 19.5315c-12.17 10.347-24.85 16.008-45.87 16.008-35.37 0-61.21-27.1997-61.21-60.3911v-.3281C966.09 25.5313 991.098 0 1027.47 0c21.34 0 37.87 8.33984 49.87 18.5195v50.6993h-50.7V47.0391"/><path fill="#32266a" d="M1233.39 118.77h-29.18l-24.86-37.8716-24.36 37.8716h-30.01l39.03-57.3794L1123.31 2h29.18l26.35 40.0313L1205.05 2h30.01l-40.69 59.7188 39.02 57.0512"/><path fill="#6152ad" d="M584.566 1229.63L426.793 1440H0l371.176-494.906 213.39 284.536"/><path fill="#6152ad" d="M549.715 707.031l258.543-344.73h426.802L861.93 859.813c-81.973-85.961-201.328-145-312.215-152.782"/><path fill="#32266a" d="M293.414 454.395l228.371 304.484c1.098-.012 2.188-.024 3.289-.024 118.028 0 256.434 73.2 331.453 176.434L1090.2 1246.86c66.84 83.61 144.86 121.75 144.86 121.75-62.86 26.04-158.47 39.78-158.47 39.78C1039.67 1440 955.152 1440 955.152 1440c-146.925 0-216.691-93.07-216.691-93.07L416.34 917.434c191.555 1.179 230.062 30.781 347.25 182.406l24.512 33.11c24.531 33.18 63.347 52.73 104.597 52.73l-87.058-117.65C678.188 903.098 625.906 864.641 403.84 864.641c-9.297 0-18.199.093-26.918.238L0 362.301h92.4766c70.4534 0 156.4644 37.469 200.9374 92.094"/></g></svg>