<svg xmlns="http://www.w3.org/2000/svg" role="img" viewBox="-5.99 -5.99 311.74 158.24"><defs><style>.cls-1{fill:#0067ac}</style></defs><path d="M223.89 18.26c-.25-.15-6.23-4.09-18-8.49A158.3 158.3 0 0 0 151.51 0h-.25a158.28 158.28 0 0 0-54.37 9.77c-11.8 4.4-17.78 8.34-18 8.49s-.53.35-.8.52v.9c0 16 2.9 32 8.67 44.21a83.66 83.66 0 0 0 28.57 33c9.67 6.69 21.39 12.21 36.05 16.53h.07c14.67-4.32 26.38-9.84 36.06-16.53a83.82 83.82 0 0 0 28.57-33c5.71-12.21 8.6-28.21 8.61-44.21v-.9zm-35.15 55.56l-.37.35a66.495 66.495 0 0 1-4.11 3.71l-1.66-.2-1.23-.18c-.91-3.36-1.83-6.72-2.74-10l-.88-3.17-5 16c-.64 2-1.27 4.08-1.91 6.1a85.11 85.11 0 0 1-10.07 4.75c-.58-.56-1.23-1.12-1.88-1.68s-1.55-1.34-2.17-2l-.14-68a138.36 138.36 0 0 1 14.66 1.55c0 4.21.06 15.62.11 24.47l.09 17.13 1.85-6.9q2.48-9.18 4.89-18.44c1.59.32 3.31.66 4.87 1l.31 2.1q.62 4.17 1.22 8.32l1.66 11.2 1.26-3.89c.65-2 3.1-12.53 3.52-14.73.05-.36.11-.69.19-1l.14-.76a103.09 103.09 0 0 0 2-13.3c3 1 5.68 1.91 8.09 2.85 1.91.74 3.57 1.45 5.1 2.13-.71 10.35-2.89 19.61-6.31 26.82a57.64 57.64 0 0 1-7.73 11.63 52.02 52.02 0 0 1-3.76 4.14zm-76-4.84c5.69.77 11.63 1.27 17.63 1.49h1v-4.11l-.12-5.55h-.92c-5.06-.15-11.34-.61-17.24-1.26l-3.64-.37-1.93-.19c-2-.2-3.91-.44-4.43-.51a7.11 7.11 0 0 1-.39-.67l-.11-.17c-3.41-6.96-5.59-16.08-6.39-26.3 1.54-.71 3.22-1.42 5.13-2.17A144.34 144.34 0 0 1 146 19.41c0 .75 0 1.51.06 2.27v12.24h-1.15a118.37 118.37 0 0 0-30.82 5.1l-.87.27.22.89c.1.39.21.93.33 1.53s.28 1.42.45 2.15a15 15 0 0 0 .74 2.53l.21.51.55.07c.93.13 1.9.24 2.9.35a172.27 172.27 0 0 0 21 .43h1.62l1.63-.06h.84c.94 0 2-.08 2.12-.08h.3l.07 39.63c-.6.74-1.32 1.68-2 2.61l-.94 1.22a89.68 89.68 0 0 1-18.86-9.2 67.35 67.35 0 0 1-10.66-8.69l-1.45-4.25z" class="cls-1"/><g id="SW_WORDMARK" data-name="SW WORDMARK"><path d="M0 167.58h5.38a3.31 3.31 0 0 0 .15 1.1 1.23 1.23 0 0 0 .43.6 1.42 1.42 0 0 0 .74.25 7.41 7.41 0 0 0 1 .06h7.45a2.12 2.12 0 0 0 .74-.19 1.42 1.42 0 0 0 .52-.45 1.47 1.47 0 0 0 .19-.81 1.61 1.61 0 0 0-.2-.89 1.56 1.56 0 0 0-1-.49 12.78 12.78 0 0 0-2.28-.2H9a43.25 43.25 0 0 1-4.82-.22 6.89 6.89 0 0 1-2.73-.79 2.66 2.66 0 0 1-1.2-1.62 10.78 10.78 0 0 1-.25-2.74A15.74 15.74 0 0 1 .17 159a3.38 3.38 0 0 1 .83-1.81A4.73 4.73 0 0 1 3.13 156a14.29 14.29 0 0 1 4-.43h7.52a14.33 14.33 0 0 1 3.67.37 4.58 4.58 0 0 1 2 1.07 3.14 3.14 0 0 1 .88 1.64 10.33 10.33 0 0 1 .2 2.1v.56H16a5 5 0 0 0-.06-.83.91.91 0 0 0-.32-.55 1.58 1.58 0 0 0-.78-.32 7 7 0 0 0-1.46-.12h-6a3 3 0 0 0-1.49.33 1.11 1.11 0 0 0-.55 1 1.7 1.7 0 0 0 .19.9 1.27 1.27 0 0 0 .86.46 11.82 11.82 0 0 0 1.94.17h3.44c2.08 0 3.8 0 5.14.15a8.22 8.22 0 0 1 3.15.72 3.17 3.17 0 0 1 1.65 1.78 8.62 8.62 0 0 1 .44 3 9.21 9.21 0 0 1-.37 2.85 3 3 0 0 1-1.34 1.67 6.45 6.45 0 0 1-2.67.79 39.59 39.59 0 0 1-4.38.2H6.86a20 20 0 0 1-3.14-.21 5.92 5.92 0 0 1-2.13-.72 3.06 3.06 0 0 1-1.2-1.45 6.1 6.1 0 0 1-.39-2.34z" class="cls-1" transform="translate(0 -27.32)"/><path d="M24.58 128.44H45.1v4.36h-7.57v13.21h-5.38V132.8h-7.57v-4.36z" class="cls-1"/><path d="M53.16 155.76h7l9.65 17.56h-6l-1.66-3.1H51.24l-1.57 3.1h-6zm.09 10.67h6.9l-3.5-6.6zm20.45-10.67H90a7.81 7.81 0 0 1 2.57.37 3.7 3.7 0 0 1 2.45 2.7 8.84 8.84 0 0 1 .24 2.15v1.11a9.58 9.58 0 0 1-.12 1.58 3.34 3.34 0 0 1-.45 1.23 2.7 2.7 0 0 1-.92.92 5 5 0 0 1-1.52.58 7.59 7.59 0 0 1 1.14.33 2.53 2.53 0 0 1 .94.65 2.86 2.86 0 0 1 .62 1.13 5.44 5.44 0 0 1 .24 1.77v3h-5.44v-2.12a2.9 2.9 0 0 0-.47-1.91 2.22 2.22 0 0 0-1.73-.54h-8.46v4.57H73.7zm5.39 8.63H88a2.21 2.21 0 0 0 1.55-.44 2 2 0 0 0 .44-1.4V162c0-.78-.19-1.27-.59-1.51a4.06 4.06 0 0 0-1.88-.34h-8.43z" class="cls-1" transform="translate(0 -27.32)"/><path d="M100 128.44h5.38v6.46h2.53l6.79-6.46h7.33l-9.51 8.59 10.62 8.98h-7.61l-7.76-6.75h-2.39v6.75H100v-17.57z" class="cls-1"/><path d="M136.05 167.19a8.3 8.3 0 0 1 .2-1.76 2.29 2.29 0 0 1 1.75-1.83 7 7 0 0 1 1.86-.25 5.92 5.92 0 0 1-1-.73 2.38 2.38 0 0 1-.55-.73 3.17 3.17 0 0 1-.22-.94v-1.3a8.2 8.2 0 0 1 .21-2.06 2.2 2.2 0 0 1 .89-1.22 4.57 4.57 0 0 1 1.92-.6 29 29 0 0 1 3.31-.15h4.17a28.15 28.15 0 0 1 3.68.18 4.81 4.81 0 0 1 2.18.72 2.58 2.58 0 0 1 1 1.5 10.75 10.75 0 0 1 .25 2.51v1H151v-.84a1.15 1.15 0 0 0-.52-1.06 3.59 3.59 0 0 0-1.87-.35h-3.72a3.66 3.66 0 0 0-1.52.21.88.88 0 0 0-.39.86 2.81 2.81 0 0 0 0 .45 1 1 0 0 0 .16.34 1.57 1.57 0 0 0 .35.31 6.1 6.1 0 0 0 .62.36l8.76 4.51v-2.33h4.37v2.47a7.19 7.19 0 0 1-.07 1.18c0 .28-.08.56-.13.84l3.13 1.62-1.48 3.3-3.08-1.6a3 3 0 0 1-1.05 1 5.66 5.66 0 0 1-1.43.54 9.41 9.41 0 0 1-1.64.22c-.59 0-1.16.06-1.73.06h-7.25a15.53 15.53 0 0 1-2.68-.22 5.44 5.44 0 0 1-2.06-.79 3.71 3.71 0 0 1-1.32-1.53 5.41 5.41 0 0 1-.47-2.44zm15.19 2.55c.08 0 .12-.06.12-.15l-8.27-4.22a1.81 1.81 0 0 0-.8-.12 2.5 2.5 0 0 0-.55.05.86.86 0 0 0-.45.3 1.28 1.28 0 0 0-.32.66 5.34 5.34 0 0 0-.11 1.19 3.29 3.29 0 0 0 .16 1.14 1.58 1.58 0 0 0 .51.69 1.93 1.93 0 0 0 .82.36 6.58 6.58 0 0 0 1.18.1z" class="cls-1" transform="translate(0 -27.32)"/><path d="M171.29 128.44h5.27l3.73 12.9h.04l4.47-12.9h4.99l4.47 12.9h.05l3.73-12.9h5.27l-5.7 17.57h-6.19l-4.1-11.6h-.05l-4.1 11.6h-6.18l-5.7-17.57z" class="cls-1"/><path d="M211.49 155.76h7l9.66 17.56h-6l-1.67-3.1h-10.9l-1.58 3.1h-6zm.1 10.67h6.89l-3.49-6.6z" class="cls-1" transform="translate(0 -27.32)"/><path d="M234.34 139.89l-9.73-11.45h6.51l5.91 7.18 5.92-7.18h6.5l-9.73 11.45v6.12h-5.38v-6.12zm17.1-11.45h8.35l10.11 12.76h.05v-12.76h5.39v17.57h-8.35l-10.12-12.77h-.05v12.77h-5.38v-17.57zm29.04 0h19.2v4.08h-13.82v2.81h13.1v3.64h-13.1v2.81H300v4.23h-19.52v-17.57z" class="cls-1"/></g></svg>