<svg xmlns="http://www.w3.org/2000/svg" role="img" viewBox="-3.90 -3.40 215.80 69.30"><title>Stigg (member) logo</title><path fill="url(#paint0_linear_123_15781)" d="M45.3662 58.9901c-.3031.1512-6.086 2.6962-16.3136 2.2174-5.3284-.252-9.9497-1.2347-13.2326-2.1418l17.7024-20.5111c3.1567.8063 7.2224 1.5622 11.8438 1.789 10.2275.504 16.0104-2.0662 16.3135-2.2174L45.3662 59.0153v-.0252zM18.9261 19.5805C16.022 9.77853 17.1584 3.57984 17.2342 3.25227L.76914 24.0154c-.0505.3275-1.1869 6.5262 1.69196 16.3282 1.51519 5.09 3.56069 9.3485 5.2274 12.3218l15.7832-21.9978c-1.5152-2.8725-3.2324-6.6522-4.5456-11.0619v-.0252zm41.0364 2.167c-2.3233-7.8617-5.9598-13.68242-7.4497-15.89984L37.866 24.4689l2.7526 13.1785c1.6414.2268 3.2576.378 4.8991.4788.8333.0252 1.6667.0504 2.4748.0504 7.9295 0 12.3488-1.8646 12.8286-2.0914l1.1364-.504c.101-2.7214-.0758-7.5342-1.9698-13.8588l-.0252.0251zM50.7703 4.51217c-2.5-.93233-9.0153-3.07415-17.2226-3.47732-6.5911-.32757-11.3134.62995-13.9397 1.38589l-.2273 1.2095c-.0505.25198-1.0606 6.1231 1.6414 15.32036.4546 1.5623 1.0102 3.0993 1.6162 4.6364l13.4852-.4536L50.7956 4.53737l-.0253-.0252z"/><path fill="#1E1E1E" d="M99.896 41.2747c0 5.8139-5.1887 9.4081-13.07 9.4081-4.2191 0-7.6288-.7512-10.8955-2.3559.3701-2.1825.5884-4.3878.6534-6.6001 2.9764 1.7034 6.3477 2.6058 9.7817 2.6183 3.9418 0 5.9751-.9145 5.9751-2.8085.0654-1.8958-1.3781-2.7448-7.2897-3.8571-6.8297-1.3679-9.851-4.1782-9.851-9.1426 0-5.6166 5.1886-9.2781 13.07-9.2781 3.29-.0351 6.5548.5745 9.608 1.794l-1.3204 6.3068c-2.6033-1.1732-5.4301-1.7746-8.2881-1.7635-3.6775 0-5.5161.9145-5.5161 2.6838 0 1.5697 1.2469 2.2219 7.0273 3.3969 7.3573 1.5639 10.1153 4.3724 10.1153 9.5979zm17.293 2.4748c-2.955 0-5.322-1.5698-5.322-5.6816V26.5662h7.492l1.394-6.6634h-8.884v-9.4794a40.81392 40.81392 0 0 1-7.818 1.3975l-.063 27.5616c0 7.5123 4.531 11.3097 11.296 11.3097 1.352.0089 2.7-.1325 4.021-.4215l1.476-7.0504c-1.159.3759-2.373.5548-3.592.5292zm8.553 6.5176h7.882V19.9145h-7.882v30.3526zm3.973-42.76658a4.43876 4.43876 0 0 0-1.706.29214c-.543.20841-1.04.52179-1.461.92208a4.39014 4.39014 0 0 0-.992 1.41016c-.234.5306-.36 1.102-.37 1.6812-.011.5792.094 1.1548.308 1.6936.214.5387.533 1.03.939 1.4454.406.4154.891.7467 1.426.9748.536.2281 1.112.3484 1.694.3541 2.561.0153 4.443-1.7733 4.483-4.2607.031-.5829-.058-1.166-.261-1.7136-.203-.54757-.517-1.04816-.921-1.47111a4.32592 4.32592 0 0 0-1.431-.98864 4.336 4.336 0 0 0-1.708-.34481v.00538zm41.594 12.41978v25.6003c0 9.6687-6.569 16.3321-17.669 16.3321-3.978 0-8.39-.8759-11.348-2.5592 1.601-1.5921 3.049-3.3308 4.323-5.1931 2.008.6833 4.115 1.0318 6.237 1.0315 7.027 0 10.574-3.8571 10.574-8.7547v-.9795c-1.293 1.4862-2.899 2.672-4.703 3.4735a13.56707 13.56707 0 0 1-5.74 1.1653c-8.276 0-14.515-6.1341-14.515-15.2202 0-8.9502 6.83-15.5481 15.173-15.5481 4.334 0 8.078 1.5698 10.574 4.5088l.262-3.8571 6.832.0004zm-7.818 14.8947c0-4.8344-3.546-8.4919-8.408-8.4919-4.861 0-8.48 3.6548-8.48 8.4914 0 4.7021 3.549 8.3618 8.481 8.3618 1.111.0246 2.216-.1751 3.247-.5869 1.032-.4119 1.969-1.0274 2.755-1.8094.786-.782 1.404-1.7142 1.817-2.7405.414-1.0262.614-2.1251.588-3.2304v.0059zM208 19.915v25.6061c0 9.6687-6.569 16.332-17.668 16.332-3.979 0-8.39-.8759-11.347-2.5591a35.89334 35.89334 0 0 0 4.323-5.1932c2.007.6833 4.114 1.0319 6.235 1.0316 7.027 0 10.576-3.8571 10.576-8.7547v-.9795c-1.293 1.487-2.899 2.6732-4.704 3.4748-1.805.8016-3.764 1.199-5.741 1.164-8.274 0-14.515-6.1341-14.515-15.2202 0-8.9503 6.83-15.5481 15.173-15.5481 4.334 0 8.079 1.5697 10.575 4.5087l.262-3.8571L208 19.915zm-7.815 14.8946c0-4.8344-3.547-8.4919-8.408-8.4919-4.86 0-8.483 3.6566-8.483 8.491 0 4.702 3.546 8.3618 8.48 8.3618 1.112.0259 2.217-.1727 3.248-.5837 1.032-.4111 1.97-1.026 2.756-1.8077a8.18011 8.18011 0 0 0 1.818-2.74c.413-1.0262.613-2.1252.587-3.2304l.002.0009z"/><defs><linearGradient id="paint0_linear_123_15781" x1="-13.43" x2="81.441" y1="75.203" y2="-43.672" gradientUnits="userSpaceOnUse"><stop offset=".352" stop-color="#1E1E1E"/><stop offset="1" stop-color="#1E1E1E" stop-opacity="0"/></linearGradient></defs></svg>