<svg viewBox="-5.88 -3.88 409.76 95.76" xmlns="http://www.w3.org/2000/svg"><title>StreamSets</title><style>.st4,.st5{fill:#29b4e1;enable-background:new}.st5{fill:#039}.st6{fill:#96bace}</style><path d="M20.5 24c3.2.1 5.9 1.3 8.6 2.7 3.8 2.1 7.2 4.9 10.7 7.5 4.2 3.1 8.4 6.3 12.9 9 2.1 1.2 4.2 2.3 6.8 1.7 3.8-1 5.8-3.7 6.7-7.2 2-7.5-.2-14.3-4.3-20.6-1.6-2.4-3.5-4.5-6.3-5.6.8 1.1 1.6 2.1 2.3 3.2 2 3 3.6 6.2 3.8 9.8.1 2.6-.9 4.8-3.2 6.1-2 1.2-3.9.2-5.7-.7-.9-.5-1.7-1.1-2.6-1.7-2.6-1.9-4.9-4.2-7.3-6.3-4-3.6-8.3-6.8-13.5-8.5-4-1.3-7.9-1.4-11.4 1.3-5.7 4.4-7.4 10.7-7.5 17.6.7-1.2 1.2-2.5 1.9-3.6 1.9-3.1 4.5-4.8 8.1-4.7z" class="st4"/><path d="M56.3 78.3c-2.5-.1-4.9-.7-7-2.1-3.7-2.6-3.7-7 .1-9.4 3-1.9 6.3-3 9.7-4 5.2-1.5 10.3-3.4 14.7-6.6 4.3-3.1 7.3-6.9 6.7-12.6-.3-3.2-1.9-5.9-3.8-8.4-2.1-2.7-4.6-5.1-7.7-6.6 0 .3.1.4.3.6 5.1 6.1 4.5 11.4-1.7 16.2-4.1 3.1-8.8 4.9-13.5 6.9-5.7 2.5-11.6 4.7-16.9 8.2-4.1 2.6-4.9 7.1-2.3 11.3 1.4 2.3 3.4 4 5.7 5.4 5.2 2.9 10.8 4 16.6 3.5 2.7-.2 5.4-.9 7.7-2.6-2.9.3-5.7.3-8.6.2z" class="st4"/><path d="M38.7 81.4c-.8-.1-1.7.3-2.4-.4-3.8-1.2-5.7-4-6.6-7.7-1.3-5.3-.4-10.5.2-15.8.8-6.7 1.8-13.4 1.6-20.3-.1-3.6-2-5.9-5.4-7-1.9-.6-3.8-.7-5.6-.1-9.3 2.8-14.8 9.2-17.7 18.2-.4 1.4-.7 2.9-.4 4.4.4-.4.6-.9.8-1.4 1.6-3.6 3.3-7.1 6.4-9.7 2.2-1.9 4.7-2.9 7.6-1.7 2.8 1.2 2.9 3.8 2.8 6.3-.1 3.7-1.1 7.3-1.8 10.9-1.3 6-2.3 12.1-.5 18.2 1.3 4.7 4.3 7.9 9.4 8.8 5.2.9 10.2 0 14.8-2.5-1.1-.6-2.2 0-3.2-.2zm235.5-39c-.1-3.5-1.5-6.5-5-8-4.9-2.2-11-.8-14.5 3.2-.3.3-.5 1.5-1.3.3-2.7-4.4-6.9-4.9-11.5-4.2-2.8.4-4.9 2-6.8 4.4-.2-1.1-.5-1.8-.5-2.6-.2-2.2-1.8-1.3-3-1.5-1.5-.2-1.1 1-1.1 1.8V62c0 3-.4 2.7 2.8 2.7h.2c1.5.2 1.8-.4 1.8-1.8-.1-5.2 0-10.5 0-15.7 0-2.1.3-4.2 1.3-6.2 1.5-2.9 4.8-4.2 8.8-3.5 2.6.5 4.1 2.2 4.6 5.5.1.7.1 1.4.1 2.1v18c0 .5-.2 1.3.2 1.5 1.2.5 2.6.4 3.9.1.8-.2.4-1.2.5-1.8.1-5.9-.2-11.7.2-17.6.3-4 2.3-6.9 5.7-7.5 4.5-.8 7.4-.1 8.6 3.5.4 1.1.5 2.3.5 3.6v16.7c0 3.5 0 3.5 3.5 3.2.8-.1 1.1-.3 1.1-1.1 0-7.1.1-14.2-.1-21.3zm-157.7 2.2c-1.9-1-3.8-1.9-5.8-2.6-2-.7-3.9-1.4-5.7-2.5-3-1.9-4.1-4.4-3.2-7.6.7-2.5 3.1-4.2 6.4-4.4 3.4-.2 6.8.3 10 1.6 1 .4 1.6.4 1.8-.8.1-.4.3-.9.5-1.3.7-1.3.1-1.8-1.1-2.2-4.2-1.4-8.5-1.9-12.9-1.3-4.7.6-8.4 3.6-9.4 7.5-1.2 4.6.5 9 4.4 11.8 1.2.9 2.6 1.5 3.9 2.1 2.8 1.1 5.7 2 8.2 3.5 1.9 1.1 3.4 2.6 3.5 5 .2 4-1.5 6.5-5.5 7.3-4.7 1-9.4.2-13.9-1.3-.4-.1-.8-.6-1.3-.2-.8.7.1 4.4 1.1 4.8 3 1 6.1 1.3 9.4 1.2 2.6.1 5.3-.1 7.9-1.1 3.9-1.6 6.5-4.3 7-8.6.7-4.8-1-8.5-5.3-10.9z" class="st4"/><path d="M301.9 45.3c-2.2-1.4-4.6-2.4-7-3.3-2.2-.8-4.3-1.6-6.2-2.9-2.5-1.7-3-4.1-2.6-6.8.4-2.5 2.2-3.8 4.6-4.4 3.6-.9 7.1-.3 10.5.7 2.8.8 2.7.8 3.7-1.9.4-1 .2-1.4-.8-1.8-4.4-1.6-9-2.2-13.6-1.4-4.5.8-8 2.9-9.2 7.7-1.1 4.4.6 8.8 4.2 11.5 1.8 1.3 3.8 2.2 5.8 3 2.4.9 4.8 1.7 6.9 3 1.4.9 2.5 2 3 3.6 1.1 4.1-.9 7.5-5.2 8.4-4.7 1-9.4.4-13.9-1.2-1.6-.6-1.9-.1-1.7 1.3 0 .3.1.7 0 1-.3 1.5.5 2 1.7 2.4 2.8.8 5.8 1.1 8.7 1.1 4.9.1 8.2-.7 11-2.7 6.2-4.1 6.1-13.3.1-17.3zm25.2-11.6c-6.3-1.1-11.6 1.4-14.3 6.8-2.4 4.9-2.6 10-1.1 15.1 1.5 5.3 5.2 8.5 10.6 9.4 3.5.6 7.1.4 10.6-.7 3.4-1.1 2.5-.5 2.7-3.8 0-1-.2-1.3-1.2-.9-2.2.9-4.6 1.3-7 1.6-6.7.7-11-2.9-11.6-9.6-.1-1 .1-1.4 1.2-1.4 3.1.1 6.2 0 9.3 0h9.3c.9 0 1.3-.2 1.2-1.1-.1-1.4 0-2.9-.1-4.3-.5-5.8-4.3-10.2-9.6-11.1zm4.8 12c-.1.9-.7.7-1.3.7h-6.7c-2.2 0-4.5-.1-6.7 0-1.1 0-1.3-.4-1.2-1.4.7-5.1 4.6-8.2 9.6-7.6 3.8.5 6.8 4.6 6.3 8.3z" class="st5"/><path d="M182.8 33.5c-6.2-1-11.9 2.6-14.1 8.6-1.2 3.3-1.4 6.8-1.1 10.2.5 4.6 2.3 8.6 6.5 11 4.9 2.8 10.1 2.4 15.3 1.1 2.8-.7 2.9-1 2.8-3.9 0-1-.3-1.2-1.2-.8-2.2.9-4.5 1.2-6.9 1.6-6.4.9-11.2-3-11.7-9.4-.1-1.1.2-1.5 1.4-1.5 3 .1 6 0 9 0h6.4c4.5 0 4.5 0 4.3-4.6-.4-6.6-4.5-11.3-10.7-12.3zm4 13c-2.1-.1-4.3 0-6.4 0-2.2 0-4.4-.1-6.6 0-1.3 0-1.5-.4-1.2-1.6 1.1-4.9 3.8-7.4 8.3-7.4 4.1 0 6.7 2.2 7.3 6.3.1.3 0 .7.1 1 .5 1.4-.2 1.7-1.5 1.7zm28.1-12.8c-4-.7-7.8-.1-11.5 1.3-2.5 1-2.4 1-1.4 3.4.4.9.8 1.2 1.8.7 2.7-1.3 5.6-2 8.7-1.7 2.8.2 4.7 1.8 5.1 4.5.2 1.1.1 2.2.1 3.3.1.9-.4 1.2-1.3 1.2-1.9 0-3.8 0-5.7.1-3.1.2-6.1.7-8.8 2.2-3.1 1.7-4.4 4.4-4.3 7.9.1 3.5 1.5 6.2 4.8 7.7 4.1 1.9 10.3.9 13.6-2.2.6-.5.9-1.3 1.8-1.7.3 1.2.5 2.3.8 3.4.4 1.6 1.7.7 2.6.9 1 .1 1.1-.5 1.1-1.3 0-6.8.1-13.7-.1-20.5 0-5.4-2.6-8.4-7.3-9.2zm2.7 17.9v.9c.1 6.6-4.7 9.8-11.1 8.8-2.2-.3-3.5-1.8-3.9-4-.4-2.1.5-4.4 2.3-5.6 1.6-1.1 3.5-1.4 5.4-1.6 1.8-.2 3.6-.2 5.3-.4 1.6-.2 2.3.2 2 1.9z" class="st4"/><path d="M378.4 49.9c-1.9-1.2-3.9-1.9-5.9-2.7-2-.8-4.1-1.4-5.9-2.7-1.5-1.1-2.1-2.7-1.6-4.2.6-1.7 2.1-2.4 3.8-2.6 2.9-.5 5.7-.2 8.5.7 2.9.9 3 .9 3.9-2 .2-.7.1-.9-.5-1.1-4.9-1.8-9.8-2.4-14.9-.7-3 1.1-5.1 3.1-5.4 6.5-.3 3.5 1.4 5.8 4.3 7.4 2 1.1 4.1 1.8 6.2 2.7 1.9.8 3.8 1.5 5.3 2.8 2.3 2 1.9 5.3-.8 6.7-1 .5-2.2.8-3.3.9-3.6.3-7-.3-10.3-1.7-.4-.2-.8-.6-1.3-.2-.6.6.1 4.1.9 4.4 2.6 1.2 5.4 1.4 8.3 1.4 3.7 0 6.2-.5 8.3-1.7 5.4-3.3 5.6-10.6.4-13.9zm-22.5 11.4c-5.3.8-7.5-1-7.5-6.3v-7.3c0-2.8.1-5.5 0-8.3-.1-1.6.5-2 1.9-1.9 1.6.1 3.2 0 4.8 0 1.3 0 2.2.2 2.2-1.8 0-1.8-.7-1.9-2.1-1.9-1.8.1-3.6-.1-5.4 0-1.3.1-1.6-.4-1.5-1.6.1-1.3-.1-2.7 0-4 .1-1.4-.4-1.8-1.7-1.7-.9.1-1.2.4-1.4 1.2-.8 3.2-1.4 6.5-5.5 7.2-.4.1-.5.4-.6.8-.2 1.4.3 1.8 1.7 1.7 2.7-.1 2.7 0 2.7 2.7v16.2c.1 4.6 2 7.5 5.7 8.4 2.3.6 4.7.5 7-.1 1.9-.5.9-2.1.9-3.2.4-1.1-.7-.2-1.2-.1z" class="st5"/><path d="M140.6 61.3c-5.3.6-7.3-1.1-7.3-6.4V39.8c0-2.6-.3-2.3 2.3-2.4 1.8 0 3.6-.1 5.4 0 1.5.1 1.3-.8 1.3-1.8 0-.9.3-1.9-1.3-1.8-2.1.1-4.3 0-6.4 0-1 0-1.3-.3-1.3-1.3.1-1.6 0-3.2 0-4.8 0-.8-.3-1-1.1-1.1-1.8-.3-2 1-2.2 2.1-.6 2.9-1.5 5.4-4.8 6.1-.6.1-.8.5-.9 1.1-.2 1.7.9 1.5 2 1.5 2.3 0 2.3 0 2.3 2.3v15.9c0 3 .5 5.9 3.1 7.9 2.9 2.1 6.2 1.7 9.5 1.2 2-.3 1.2-2 1.2-3.1-.1-1.2-1.2-.3-1.8-.3zm22.9-27.8c-2.1-.2-4.2-.2-6.2.8-2.4 1.1-4 3-5.7 5.5-.2-1.8-.3-3.1-.4-4.4-.2-2.2-1.8-1.1-2.9-1.3-1.3-.2-1.1.8-1.1 1.6v27.8c0 1 .3 1.5 1.4 1.4.5-.1.9-.1 1.4 0 1.6.2 2.1-.4 2-2-.1-5.3-.1-10.7 0-16 .2-5.3 4.4-9.1 9.6-9 2.7.1 2.7.1 3.2-2.7.1-1.1-.2-1.6-1.3-1.7z" class="st4"/><path d="M11 67.3c.2-2.1.6-4.1 1.3-6 .8-2.5 1.6-4.9 1.7-7.5.1-1.7.2-3.5-1.6-4.4-1.8-.8-3.2.4-4.4 1.5-.3.3-.6.6-.8.9-3.4 4.4-4.6 9.4-3.5 14.8 1.4 6.8 6.3 10.7 12.1 13.7-3.9-3.6-5.2-8-4.8-13zm60.1-3.1c-2.1.8-4.3 1.1-6.5 1.7-2.3.6-4.7 1.3-6.6 2.9-1.7 1.4-1.5 3.2.3 4.4 1 .7 2.2 1 3.4 1.2 11.9 1.8 22.5-9.4 20.1-21.7-1.4 6.3-5.4 9.5-10.7 11.5zM27.2 8.8c1.8-.4 3.6-.4 5.5 0 4.3.9 7.6 3.5 10.4 6.7 1.8 1.9 3.5 4 5.8 5.4 1.4.9 3 2 4.6.9 1.8-1.2 1.3-3.2.8-4.9-1.4-4.7-4.5-8-8.7-10.2-7-3.6-13.5-1.6-20 2.1.6.2 1.1.1 1.6 0z" class="st5"/><path d="M36.3 81c1.4.4 2.9.1 4.4.2.4 0 1.1-.3 1.2.5.6-.1 1.2-.2 1.5-1.1-2.5.6-4.8.5-7.1.4z" class="st6"/><path d="M40.6 81.2c-1.5-.1-2.9.2-4.4-.2.7.7 1.6.3 2.4.4 1 .2 2.1-.4 3.1.4 0-.9-.6-.5-1.1-.6z" class="st6"/><path fill="#039" d="M384.9 31.8h5v.9h-2V38h-1.1v-5.2h-1.9v-1zm5.6 0h1.5l1.7 4.8 1.6-4.8h1.5V38h-1v-4.7l-1.7 4.7h-.9l-1.7-4.7V38h-1v-6.2z"/></svg>