<svg xmlns="http://www.w3.org/2000/svg" role="img" viewBox="-14.95 -6.95 829.40 709.40"><title>Strimzi logo</title><defs><clipPath id="a" clipPathUnits="userSpaceOnUse"><path d="M303.856 398.29c-5.979-7.665-76.496-24.775-132.823-50.154v-72.025L300 201.652l128.967 74.459v14.961c-21.435 4.168-48.369 8.136-81.695 11.016-113.441 9.803-8.402 32.212 39.215 72.386 47.618 40.175-158.259 52.26-158.259 52.26s84.031-17.671 75.628-28.444"/></clipPath><clipPath id="c" clipPathUnits="userSpaceOnUse"><path d="M0 524.999h600V0H0z"/></clipPath><linearGradient id="b" x1="0" x2="1" y1="0" y2="0" gradientTransform="scale(445.57887 -445.57887) rotate(64.94 1.077 -.149)" gradientUnits="userSpaceOnUse" spreadMethod="pad"><stop offset="0" stop-color="#fff"/><stop offset="1" stop-color="#54bad8"/></linearGradient></defs><path fill="#192c47" d="M400 9.018L206.397 120.794V344.35L400 456.125l193.604-111.776V120.794z"/><g clip-path="url(#a)" transform="matrix(1.33333 0 0 -1.33333 0 699.999)"><path fill="url(#b)" d="M303.856 398.29c-5.979-7.665-76.496-24.775-132.823-50.154v-72.025L300 201.652l128.967 74.459v14.961c-21.435 4.168-48.369 8.136-81.695 11.016-113.441 9.803-8.402 32.212 39.215 72.386 47.618 40.175-158.259 52.26-158.259 52.26s84.031-17.671 75.628-28.444"/></g><g fill="#192c47" clip-path="url(#c)" transform="matrix(1.33333 0 0 -1.33333 0 699.999)"><path d="M74.835 82.594c-1.6 1.878-3.663 3.404-6.2 4.579-2.536 1.174-5.495 1.762-8.877 1.762-2.631 0-5.002-.564-7.116-1.691-2.113-1.127-3.17-2.867-3.17-5.214 0-1.88.887-3.335 2.666-4.368 1.779-1.035 4.4-2.113 7.863-3.24 4.304-1.41 8.14-3.008 11.509-4.791 3.369-1.786 6.225-3.853 8.565-6.2 2.338-2.35 4.142-5.027 5.405-8.032 1.264-3.007 1.896-6.39 1.896-10.145 0-6.39-1.405-11.836-4.21-16.345-2.807-4.51-6.385-8.173-10.735-10.991-4.35-2.818-9.148-4.885-14.39-6.2-5.244-1.314-10.354-1.972-15.332-1.972-3.946 0-7.891.33-11.837.986A73.179 73.179 0 0 0 19.53 13.55a60.382 60.382 0 0 0-10.216 4.51C6.12 19.843 3.35 21.864 1 24.118L23.263 44.69c1.128-1.317 2.488-2.49 4.087-3.523a29.52 29.52 0 0 1 5.002-2.607 36.24 36.24 0 0 1 5.284-1.691c1.783-.422 3.428-.634 4.93-.634 3.289 0 5.919.539 7.893 1.62 1.972 1.079 2.959 2.654 2.959 4.72 0 1.692-.824 3.194-2.466 4.51-1.645 1.314-4.721 2.677-9.23 4.086-3.571 1.128-6.93 2.442-10.075 3.945-3.148 1.502-5.872 3.312-8.172 5.426-2.303 2.113-4.111 4.649-5.425 7.609-1.317 2.958-1.972 6.552-1.972 10.779 0 5.165 1.056 9.955 3.17 14.372 2.113 4.414 5.119 8.243 9.018 11.484 3.897 3.24 8.547 5.777 13.949 7.609 5.4 1.83 11.344 2.747 17.825 2.747 3.569 0 7.092-.306 10.568-.916 3.474-.612 6.764-1.457 9.864-2.536 3.099-1.081 5.964-2.373 8.594-3.875 2.629-1.504 4.838-3.194 6.623-5.073zm80.315 2.254l-12.68-72.284h-32.691l12.682 72.284H97.239l4.932 27.477h82.289l-4.933-27.477zm66.367-15.076c4.32 0 7.7.727 10.145 2.184 2.44 1.455 3.664 3.78 3.664 6.975 0 2.91-1.011 4.907-3.03 5.988-2.021 1.079-4.77 1.62-8.243 1.62h-6.058l-2.96-16.767zm7.186-57.208l-13.668 36.495h-3.945l-6.2-36.495h-31.422l17.613 99.76h41.004c5.447 0 10.378-.611 14.795-1.83 4.414-1.222 8.172-3.008 11.272-5.355 3.1-2.35 5.47-5.238 7.116-8.665 1.642-3.431 2.466-7.352 2.466-11.766 0-8.267-1.951-15.077-5.847-20.431-3.9-5.355-9.23-9.018-15.994-10.991l19.446-40.722zm41.144 0l17.613 99.76h32.831l-17.613-99.76zm139.636 0l11.132 57.77h-.845l-29.45-57.77h-22.968l-8.877 57.77h-.704l-8.596-57.77H318.74l17.613 99.76h41.567l8.736-54.67h.705l25.927 54.67H458.8l-17.613-99.76zm44.383 0l4.791 27.336 46.5 45.37h-36.919l4.791 27.055h79.33l-4.227-23.672-49.035-48.331h41.708l-4.931-27.758zm94.69 0l17.613 99.76h32.83l-17.613-99.76z"/></g></svg>