<svg xmlns="http://www.w3.org/2000/svg" role="img" viewBox="-1.98 -1.98 102.96 53.71"><title>STUNner logo</title><defs id="defs2"><clipPath id="clipPath275" clipPathUnits="userSpaceOnUse"><path id="rect277" fill="#000" stroke-width=".265" d="M139.097 -18.806H217.162V128.09699999999998H139.097z"/></clipPath><path id="rect821" d="M88.193 245.614H880.986V529.1610000000001H88.193z"/></defs><g id="layer1" display="inline" transform="translate(-99.715 -.594)"><g id="g582" transform="matrix(.42564 0 0 .41431 86.736 -19.985)"><path id="path111" fill="#0000d4" stroke-width=".265" d="m 183.45161,92.96774 c -3.07917,3.848968 -39.51338,21.32557 -44.44246,21.31797 C 134.08007,114.27811 97.69996,96.689185 94.632674,92.830735 91.565387,88.972285 82.63433,49.562653 83.738566,44.758848 84.842802,39.955043 110.08607,8.4009568 114.53032,6.2691597 c 4.44424,-2.1317971 44.85314,-2.0694657 49.29079,0.076032 4.43765,2.1454976 29.58345,33.7773095 30.67286,38.5844975 1.08941,4.807189 -7.96318,44.189082 -11.04236,48.038051 z" clip-path="url(#clipPath275)" display="inline" transform="translate(61.972 44.807) scale(1.03377)"/><path id="path279" fill="#06f" stroke-width=".265" d="m 183.45161,92.96774 c -3.07917,3.848968 -39.51338,21.32557 -44.44246,21.31797 C 134.08007,114.27811 97.69996,96.689185 94.632674,92.830735 91.565387,88.972285 82.63433,49.562653 83.738566,44.758848 84.842802,39.955043 110.08607,8.4009568 114.53032,6.2691597 c 4.44424,-2.1317971 44.85314,-2.0694657 49.29079,0.076032 4.43765,2.1454976 29.58345,33.7773095 30.67286,38.5844975 1.08941,4.807189 -7.96318,44.189082 -11.04236,48.038051 z" clip-path="url(#clipPath275)" display="inline" transform="matrix(-1.03377 0 0 1.03377 344.241 51.655)"/><g id="text819" fill="#1f386e" display="inline" transform="matrix(.21442 0 -.0431 .21853 27.819 30.907)" style="shape-inside:url(#rect821);shape-padding:7.58654"><path id="path484" d="m 101.39552,437.86265 h -0.89859 v -51.89392 h 3.81903 l -2.92044,-3.36973 h -0.89859 v -86.26522 h 142.42746 v 1.12325 l 10.78316,11.90639 v 50.77068 h -4.04369 l 4.04369,4.49298 v 85.14197 H 112.40332 Z m 53.01717,-82.22153 v -11.68175 h 85.36662 V 300.37746 H 103.86666 v 78.17786 h 77.50391 v 11.45709 h -77.50391 v 43.80656 h 135.91265 v -78.17785 z"/><path id="path486" d="m 411.86009,296.33378 v 1.34789 l 10.78316,11.68175 v 50.77068 h -40.88612 v 89.63495 h -64.24962 l -11.0078,-11.9064 h -0.89859 V 360.1341 h -31.67551 l -10.78315,-11.9064 h -0.8986 v -51.89392 z m -146.2465,4.26833 v 43.58191 h 43.35726 v 89.63495 h 58.63339 v -89.63495 h 40.88612 v -43.58191 z"/><path id="path488" d="m 587.53532,296.33378 v 1.34789 l 11.00781,11.68175 V 449.76905 H 441.06418 l -10.78316,-11.9064 h -0.89859 V 296.33378 h 64.92356 v 1.34789 l 11.0078,11.68175 v 76.60531 h 17.07332 v -89.63495 z m -61.77847,4.26833 v 89.63495 h -34.8206 V 300.60211 H 432.52751 V 433.81897 H 584.16559 V 300.60211 Z"/><path id="path490" d="m 682.33696,309.13877 17.97193,27.18253 v -40.21217 h 64.92356 v 1.3479 l 11.0078,11.68174 v 140.63028 h -63.35102 l -11.0078,-11.9064 h -0.4493 l -18.42122,-26.95788 v 38.86428 h -64.02496 l -10.78316,-11.9064 H 607.3042 V 296.10913 h 63.80031 l 1.7972,2.92044 z m 79.52575,124.6802 V 300.37746 h -58.18409 v 50.09673 l -33.922,-50.09673 h -59.30734 v 133.44151 h 58.40874 v -50.09673 l 33.922,50.09673 z"/></g><path id="path1122" fill="#5f8dd3" fill-opacity="1" stroke-width=".265" d="m 41.802472,109.53749 c -0.617003,2.86632 -1.234006,5.73264 -1.85101,8.59896 6.085417,0 12.170833,0 18.25625,0 0.005,2.0293 -0.93247,2.85767 -2.893838,2.38125 -5.291667,0 -10.583333,0 -15.875,0 -0.702434,3.26319 -1.40487,6.52639 -2.107304,9.78958 10.671527,0 21.343056,0 32.014583,0 1.234007,-5.73264 2.468014,-11.46527 3.70202,-17.19791 -6.614583,0 -13.229166,0 -19.843749,0 -0.005,-2.0293 0.932471,-2.85768 2.893838,-2.38125 5.820833,0 11.641666,0 17.4625,0 0.702435,-3.2632 1.404869,-6.52639 2.107304,-9.78959 -10.671526,0 -21.343056,0 -32.014582,0 -0.617004,2.86632 -1.234008,5.73264 -1.851012,8.59896 z" display="inline" transform="matrix(.91633 0 0 1 -3.033 -4.498)"/><path id="path1124" fill="#5f8dd3" fill-opacity="1" stroke-width=".265" d="m 80.435246,105.83333 c -0.351216,1.63159 -0.702434,3.26319 -1.053651,4.89479 3.439583,0 6.879167,0 10.31875,0 -1.404871,6.52639 -2.809739,13.05277 -4.214609,19.57916 4.674307,0 9.34861,0 14.022917,0 1.404867,-6.52639 2.809737,-13.05277 4.214607,-19.57916 3.175,0 6.35,0 9.525,0 0.70243,-3.2632 1.40487,-6.52639 2.10731,-9.78959 -11.28889,0 -22.577781,0 -33.86667,0 -0.351219,1.6316 -0.702435,3.2632 -1.053654,4.8948 z" display="inline" transform="matrix(.91633 0 0 1 -3.033 -4.498)"/><path id="path1126" fill="#5f8dd3" fill-opacity="1" stroke-width=".265" d="m 117.48627,115.62291 c -1.05364,4.89479 -2.10729,9.78958 -3.16095,14.68437 11.90625,0 23.8125,0 35.71875,0 2.1073,-9.78958 4.2146,-19.57916 6.32191,-29.36875 -4.6743,0 -9.34861,0 -14.02291,0 -1.40488,6.52639 -2.80974,13.05278 -4.21461,19.57917 -2.55764,0 -5.11528,0 -7.67292,0 1.40487,-6.52639 2.80974,-13.05278 4.21461,-19.57917 -4.67431,0 -9.34861,0 -14.02292,0 -1.05365,4.8948 -2.10731,9.78959 -3.16096,14.68438 z" display="inline" transform="matrix(.91633 0 0 1 -3.033 -4.498)"/><path id="path1128" fill="#5f8dd3" fill-opacity="1" stroke-width=".265" d="m 159.02586,115.62291 c -1.05365,4.89479 -2.1073,9.78958 -3.16096,14.68437 4.67051,0 9.34103,0 14.01155,0 0.79567,-3.47386 1.59135,-6.94772 2.38701,-10.42158 1.74478,3.42986 3.48972,6.85962 5.2348,10.28929 4.69456,0.0468 9.38906,0.0938 14.0835,0.14108 2.10793,-9.79251 4.21587,-19.58502 6.3238,-29.37754 -4.58249,0 -9.16498,0 -13.74748,0 -0.80279,3.50901 -1.60585,7.01801 -2.40918,10.52701 -1.78111,-3.50878 -3.56187,-7.01778 -5.34228,-10.52701 -4.73993,0 -9.47987,0 -14.2198,0 -1.05365,4.8948 -2.10731,9.78959 -3.16096,14.68438 z" display="inline" transform="matrix(.91633 0 0 1 -3.033 -4.498)"/><g id="g1222" transform="matrix(.94959 0 -.19725 1 13.569 -7.573)"><g id="text10283" fill="#1f386e" stroke-width=".265" display="inline" transform="translate(-24.22 16.856)" style="inline-size:66.1973"><path id="path493" d="m 231.29629,102.27767 2.032,3.0734 v -4.5466 h 7.3406 v 0.1524 l 1.2446,1.3208 v 15.9004 h -7.1628 l -1.2446,-1.3462 h -0.0508 l -2.0828,-3.048 v 4.3942 h -7.239 l -1.2192,-1.3462 h -0.1016 v -16.0274 h 7.2136 l 0.2032,0.3302 z m 8.9916,14.097 v -15.0876 h -6.5786 v 5.6642 l -3.8354,-5.6642 h -6.7056 v 15.0876 h 6.604 v -5.6642 l 3.8354,5.6642 z"/><path id="path495" d="m 243.08186,116.85727 h -0.1016 v -16.0274 h 16.129 v 0.127 l 1.2446,1.3462 v 5.7404 h -4.8514 l 0.4572,0.508 v 2.4384 h 3.1496 v 0.127 l 1.2446,1.3208 v 5.7404 h -16.0274 z m 6.9088,-5.4102 v -1.3208 h 4.3688 v -2.5908 h -4.3688 v -1.3208 h 8.7376 v -4.9276 h -15.367 v 15.0876 h 15.367 v -4.9276 z"/><path id="path497" d="m 269.90423,108.60227 h 1.9304 v -0.5842 h -1.9304 z m 9.2964,-7.7978 v 0.127 l 1.2446,1.3462 v 11.2014 h -2.5908 l 2.6924,4.699 h -8.1788 l -1.2192,-1.3462 h -0.0762 l -1.1684,-2.1082 v 3.4544 h -7.2136 l -1.2446,-1.3462 h -0.1016 v -16.0274 z m -10.922,8.2804 v -2.8956 h 3.937 v 2.8956 z m -6.5532,-7.8232 v 15.0876 h 6.5532 v -5.207 l 2.9718,5.207 h 7.3914 q -0.635,-1.0922 -1.3462,-2.3368 -0.6858,-1.27 -1.2954,-2.3368 h 2.8194 v -10.414 z"/></g><path id="path1201" fill="#fff" fill-opacity="1" stroke-width=".532" d="m 751.59574,475.25661 c 0,9.57758 0,19.15517 0,28.73275 8.51064,0 17.02128,0 25.53192,0 0,-6.97861 0,-13.95722 0,-20.93584 4.69883,6.96771 9.39741,13.93559 14.09574,20.90363 8.5993,0.0102 17.19858,0.0209 25.79788,0.0322 0,-19.14893 0,-38.29787 0,-57.44681 -8.51064,0 -17.02128,0 -25.53192,0 0,6.79542 0,13.59084 0,20.38626 -4.55613,-6.70684 -9.11238,-13.41361 -13.66876,-20.1203 -8.74162,-0.0949 -17.48324,-0.18978 -26.22486,-0.28466 0,9.57759 0,19.15517 0,28.73276 z" transform="scale(.26458)"/><path id="path1203" fill="#fff" fill-opacity="1" stroke-width=".532" d="m 828.19149,475.26596 c 0,9.57447 0,19.14893 0,28.7234 19.50355,0 39.00709,0 58.51064,0 0,-6.38298 0,-12.76596 0,-19.14893 -10.99291,0 -21.98582,0 -32.97873,0 -0.88819,-4.07969 0.63795,-5.74503 4.78724,-4.78724 3.90071,0 7.80142,0 11.70213,0 0,-3.36879 0,-6.73759 0,-10.10638 -5.49646,0 -10.99291,0 -16.48937,0 -0.88819,-4.07968 0.63795,-5.74503 4.78724,-4.78724 9.39716,0 18.79432,0 28.19149,0 0,-6.20567 0,-12.41134 0,-18.61702 -19.50355,0 -39.00709,0 -58.51064,0 0,9.57447 0,19.14894 0,28.72341 z" transform="scale(.26458)"/><path id="path1205" fill="#fff" fill-opacity="1" stroke-width=".532" d="m 897.34043,474.72989 c 0,9.57585 0,19.1517 0,28.72756 8.51063,0 17.02127,0 25.53191,0 0.006,-6.11702 0.0125,-12.23405 0.0187,-18.35107 3.45145,6.11308 6.90266,12.2263 10.35364,18.33964 9.48423,-0.0561 18.98134,0.14877 28.45745,-0.16726 -3.07683,-5.7629 -6.37382,-11.40697 -9.56304,-17.10855 3.54644,-0.1011 7.09289,-0.20222 10.63934,-0.30335 -0.0928,-13.19676 -0.18562,-26.39351 -0.27843,-39.59026 -21.71986,-0.0914 -43.43972,-0.18285 -65.15957,-0.27427 0,9.57585 0,19.1517 0,28.72756 z m 32.71276,-9.57032 c 2.63482,0.64533 8.45666,-1.89637 7.18085,2.65958 -0.78915,2.57964 1.93413,8.67172 -2.12766,7.97872 -4.07801,0 -8.15603,0 -12.23404,0 0,-3.5461 0,-7.0922 0,-10.6383 2.39362,0 4.78723,0 7.18085,0 z" transform="scale(.26458)"/></g></g></g></svg>