<svg xmlns="http://www.w3.org/2000/svg" role="img" viewBox="73.12 1.12 253.76 243.76"><defs><clipPath id="clip-path"><path d="M231.957 93.075l.085-.052a129.48 129.48 0 0 1 10.17-8.052c-16.015-27.218-38.385-36.276-48.107-39.044-22.629-6.913-38.731 3.984-38.731 3.984s42.835-19.56 76.583 43.164z" class="cls-1"/></clipPath><clipPath id="clip-path-2"><path d="M322.107 101.015a34.538 34.538 0 0 0-1.966-7.962l.042.018c-.115-.3-.248-.578-.37-.869l-.126-.289c-6.201-14.413-19.059-18.78-27.52-20.047-.346-.065-.673-.129-.968-.18a3.94 3.94 0 0 1-.141-.015l.048.048a38.915 38.915 0 0 0-7.055-.307l-.006.024c-11.117.44-20.548 4.924-24.81 7.309a59.498 59.498 0 0 0-6.432 3.83 84.598 84.598 0 0 0-2.92 1.996 55.033 55.033 0 0 0-1.904 1.406 89.344 89.344 0 0 0-4.071 3.305c-3.397 2.773-6.956 5.8-9.925 8.335.02.04.023-.044.043-.004-6.506 5.848-17.66 15.088-27.919 19.88-27.265 11.995-46.245.615-46.245.615l.029.104c-17.588-8.82-28.516-25.823-25.927-43.243 1.953-13.233 11.284-23.738 24.116-29.236-20.432 4.49-36.438 19.474-39.404 39.477-4.014 27.126 17.455 53.176 47.957 58.183a60.582 60.582 0 0 0 28.476-2.007c16.232-4.772 29.786-14.887 39.275-23.78.036-.034.072-.05.115-.093.782-.712 4.485-4.288 8.591-8.268 6.707-6.914 10.855-10.878 13.16-12.986 3.257-3.236 15.506-14.058 33.38-14.061l-.023.047s16.802-1.173 25.326 13.699a21.874 21.874 0 0 1 2.313 11.069c-.078 8.709-6.57 20.7-21.047 22.955a41.34 41.34 0 0 1-7.34.005 43.147 43.147 0 0 1-17.146-5.883c-9.905-6.514-16.483-15.866-18.608-19.155-2.58 3.057-6.571 6.975-8.132 8.481 1.176 1.498 13.538 16.823 31.924 22.357 4.97 1.352 15.693 3.206 26.634-1.712a30.73 30.73 0 0 0 11.307-8.907 30.276 30.276 0 0 0 4.295-6.675 34.305 34.305 0 0 0 2.974-17.464z" class="cls-1"/></clipPath><clipPath id="clip-path-3"><path d="M228.755 33.541l.046-.03c1.663-1.566 4.047-3.417 5.695-4.658-9.33-15.285-22.1-20.216-27.63-21.696-12.896-3.715-21.926 2.612-21.926 2.612s24.108-11.483 43.815 23.772z" class="cls-1"/></clipPath><clipPath id="clip-path-4"><path d="M279.941 37.221a19.805 19.805 0 0 0-1.19-4.495l.024.008c-.066-.165-.146-.325-.218-.486a3.524 3.524 0 0 0-.073-.164c-3.645-8.115-10.978-10.474-15.789-11.116-.195-.035-.38-.067-.55-.092a1.926 1.926 0 0 1-.082-.01l.03.03a21.6 21.6 0 0 0-4.003-.111v.014a32.557 32.557 0 0 0-13.997 4.37 33.71 33.71 0 0 0-3.614 2.228 47.27 47.27 0 0 0-1.637 1.16 28.22 28.22 0 0 0-1.066.814 46.156 46.156 0 0 0-2.28 1.911c-1.904 1.602-3.89 3.355-5.555 4.816.013.022.016-.024.026-.003-3.635 3.376-9.876 8.716-15.65 11.527-.456.21-.896.371-1.343.555a69.461 69.461 0 0 1 9.316 5.958 70.135 70.135 0 0 0 8.06-6.705c.02-.023.04-.03.066-.055.439-.41 2.503-2.474 4.798-4.765 3.738-3.982 6.056-6.268 7.343-7.484 1.817-1.866 8.663-8.11 18.797-8.277l-.012.027s9.515-.817 14.483 7.537a12.39 12.39 0 0 1 1.41 6.257 13.7 13.7 0 0 1-11.722 13.206 23.471 23.471 0 0 1-4.163.067 24.466 24.466 0 0 1-9.771-3.177 38.927 38.927 0 0 1-10.727-10.692c-1.437 1.756-3.661 4.015-4.532 4.884.68.836 7.83 9.413 18.304 12.384a22.87 22.87 0 0 0 15.084-1.213 17.434 17.434 0 0 0 6.33-5.154 17.082 17.082 0 0 0 2.372-3.824 19.522 19.522 0 0 0 1.531-9.93z" class="cls-1"/></clipPath><clipPath id="clip-path-5"><path d="M186.438 7.375c-11.545 2.73-20.485 11.37-21.984 22.739a25.397 25.397 0 0 0 .652 9.722c3.477-.538 7.432-1.027 11.477-1.272a21.013 21.013 0 0 1-3.552-14.396c.984-7.52 6.18-13.561 13.407-16.793z" class="cls-1"/></clipPath><clipPath id="clip-path-6"><path d="M122.685 121.428c-10.723 3.22-18.319-.146-18.319-.146l.023.059c-10.839-3.884-18.385-12.991-18.11-23.292.202-7.827 4.881-14.588 11.949-18.69-11.556 4.052-19.796 13.885-20.109 25.716-.42 16.042 13.89 29.66 31.964 30.421a35.424 35.424 0 0 0 16.4-3.175 43.945 43.945 0 0 0 3.65-1.79 68.14 68.14 0 0 1-7.448-9.103z" class="cls-1"/></clipPath><clipPath id="clip-path-7"><path d="M115.04 79.484c.281-1.076.576-2.06.865-2.937A27.584 27.584 0 0 0 96.95 81.98a27.275 27.275 0 0 1 18.09-2.496z" class="cls-1"/></clipPath><style>.cls-1{fill:none}.cls-4{fill:#4cace2}.cls-5{fill:#4eace2}.cls-6{fill:#50ade2}.cls-7{fill:#52aee2}.cls-8{fill:#53aee3}.cls-9{fill:#55afe3}.cls-10{fill:#56afe3}.cls-11{fill:#58b0e3}.cls-12{fill:#59b0e3}.cls-13{fill:#5bb1e4}.cls-14{fill:#5cb1e4}.cls-15{fill:#5eb2e4}.cls-16{fill:#5fb3e4}.cls-17{fill:#61b3e5}.cls-18{fill:#62b4e5}.cls-19{fill:#64b4e5}.cls-20{fill:#65b5e5}.cls-21{fill:#67b5e6}.cls-22{fill:#68b6e6}.cls-23{fill:#69b7e6}.cls-24{fill:#6bb7e6}.cls-25{fill:#6cb8e7}.cls-26{fill:#6eb8e7}.cls-27{fill:#6fb9e7}.cls-28{fill:#70bae7}.cls-29{fill:#72bae8}.cls-30{fill:#73bbe8}.cls-31{fill:#74bbe8}.cls-32{fill:#75bce8}.cls-33{fill:#77bce9}.cls-34{fill:#78bde9}.cls-35{fill:#79bee9}.cls-36{fill:#7bbee9}.cls-37{fill:#7cbfea}.cls-38{fill:#7dbfea}.cls-39{fill:#7fc0ea}.cls-40{fill:#80c1ea}.cls-41{fill:#81c1eb}.cls-42{fill:#82c2eb}.cls-43{fill:#84c2eb}.cls-44{fill:#85c3eb}.cls-45{fill:#86c4ec}.cls-46{fill:#87c4ec}.cls-47{fill:#88c5ec}.cls-48{fill:#8ac6ec}.cls-49{fill:#8bc6ed}.cls-50{fill:#8cc7ed}.cls-51{fill:#8dc7ed}.cls-52{fill:#8fc8ed}.cls-53{fill:#90c9ee}.cls-54{fill:#91c9ee}.cls-55{fill:#92caee}.cls-56{fill:#93caee}.cls-57{fill:#94cbef}.cls-58{fill:#96ccef}.cls-59{fill:#97ccef}.cls-60{fill:#98cdef}.cls-61{fill:#99cef0}.cls-62{fill:#9acef0}.cls-63{fill:#9bcff0}.cls-64{fill:#9ccff0}.cls-65{fill:#9ed0f1}.cls-66{fill:#9fd1f1}.cls-67{fill:#a0d1f1}.cls-68{fill:#a1d2f1}.cls-69{fill:#a2d3f2}.cls-70{fill:#a3d3f2}.cls-71{fill:#a4d4f2}.cls-72{fill:#a5d4f3}.cls-73{fill:#a6d5f3}.cls-74{fill:#a7d6f3}.cls-75{fill:#a9d6f3}.cls-76{fill:#aad7f4}.cls-77{fill:#abd8f4}.cls-78{fill:#acd8f4}.cls-79{fill:#add9f4}.cls-80{fill:#aed9f5}.cls-81{fill:#afdaf5}.cls-82{fill:#b0dbf5}.cls-83{fill:#b1dbf5}.cls-84{fill:#b2dcf6}.cls-85{fill:#b3dcf6}.cls-86{fill:#b4ddf6}.cls-87{fill:#b5def6}.cls-88{fill:#b6def7}.cls-89{fill:#b7dff7}.cls-90{fill:#b8e0f7}.cls-91{fill:#b9e0f7}.cls-92{fill:#bae1f8}.cls-93{fill:#bbe1f8}.cls-94{fill:#bce2f8}.cls-95{fill:#bde3f8}.cls-96{fill:#bee3f8}.cls-97{fill:#bfe4f9}.cls-98{fill:#c0e4f9}.cls-99{fill:#c1e5f9}.cls-100{fill:#c2e5f9}.cls-101{fill:#c3e6f9}.cls-102{fill:#c4e6fa}.cls-103{fill:#c5e7fa}.cls-104{fill:#c6e7fa}.cls-105{fill:#c7e8fa}.cls-106{fill:#c4e6f9}.cls-107{fill:#c1e4f9}.cls-108{fill:#c0e4f8}.cls-109{fill:#bfe3f8}.cls-110{fill:#bee2f8}.cls-111{fill:#bde1f7}.cls-112{fill:#bce1f7}.cls-113{fill:#bbe0f7}.cls-114{fill:#badff6}.cls-115{fill:#b9def6}.cls-116{fill:#b8def6}.cls-117{fill:#b7ddf5}.cls-118{fill:#b6dcf5}.cls-119{fill:#b5dbf5}.cls-120{fill:#b4dbf4}.cls-121{fill:#b3daf4}.cls-122{fill:#b2d9f4}.cls-123{fill:#b1d8f3}.cls-124{fill:#b0d8f3}.cls-125{fill:#afd7f3}.cls-126{fill:#aed6f2}.cls-127{fill:#add5f2}.cls-128{fill:#acd5f2}.cls-129{fill:#abd4f1}.cls-130{fill:#aad3f1}.cls-131{fill:#a9d2f1}.cls-132{fill:#a8d2f0}.cls-133{fill:#a7d1f0}.cls-134{fill:#a6d0f0}.cls-135{fill:#a5cfef}.cls-136{fill:#a4cfef}.cls-137{fill:#a3ceee}.cls-138{fill:#a2cdee}.cls-139{fill:#a1cdee}.cls-140{fill:#a0cced}.cls-141{fill:#9fcbed}.cls-143{fill:#9ecaed}.cls-144{fill:#9ccaec}.cls-145{fill:#9bc9ec}.cls-146{fill:#9ac8ec}.cls-147{fill:#99c7eb}.cls-148{fill:#98c7eb}.cls-149{fill:#97c6eb}.cls-150{fill:#96c5ea}.cls-151{fill:#95c4ea}.cls-152{fill:#94c4ea}.cls-153{fill:#93c3e9}.cls-154{fill:#91c2e9}.cls-155{fill:#90c2e9}.cls-156{fill:#8fc1e8}.cls-157{fill:#8ec0e8}.cls-158{fill:#8dbfe8}.cls-159{fill:#8cbfe7}.cls-160{fill:#8bbee7}.cls-161{fill:#8abde7}.cls-162{fill:#88bce6}.cls-163{fill:#87bce6}.cls-164{fill:#86bbe6}.cls-165{fill:#85bae5}.cls-166{fill:#84bae5}.cls-167{fill:#83b9e5}.cls-168{fill:#82b8e4}.cls-169{fill:#80b7e4}.cls-170{fill:#7fb7e3}.cls-171{fill:#7eb6e3}.cls-172{fill:#7db5e3}.cls-173{fill:#7cb5e2}.cls-174{fill:#7bb4e2}.cls-175{fill:#79b3e2}.cls-176{fill:#78b2e1}.cls-177{fill:#77b2e1}.cls-178{fill:#76b1e1}.cls-179{fill:#75b0e0}.cls-180{fill:#74b0e0}.cls-181{fill:#72afe0}.cls-182{fill:#71aedf}.cls-183{fill:#70aedf}.cls-184{fill:#6faddf}.cls-185{fill:#6eacde}.cls-186{fill:#6cacde}.cls-187{fill:#6babde}.cls-188{fill:#6aaadd}.cls-189{fill:#69aadd}.cls-190{fill:#67a9dd}.cls-191{fill:#66a8dc}.cls-192{fill:#65a7dc}.cls-193{fill:#64a7dc}.cls-194{fill:#63a6db}.cls-195{fill:#61a5db}.cls-196{fill:#60a5db}.cls-197{fill:#5fa4da}.cls-198{fill:#5da4da}.cls-199{fill:#5ca3da}.cls-200{fill:#5ba2d9}.cls-201{fill:#59a2d9}.cls-202{fill:#58a1d9}.cls-203{fill:#57a0d8}.cls-204{fill:#55a0d8}.cls-205{fill:#549fd8}.cls-206{fill:#539ed7}.cls-207{fill:#519ed7}.cls-208{fill:#509dd7}.cls-209{fill:#4e9cd6}.cls-210{fill:#4d9cd6}.cls-211{fill:#4b9bd6}.cls-212{fill:#4a9bd5}.cls-213{fill:#489ad5}.cls-214{fill:#4799d5}.cls-215{fill:#4599d4}.cls-216{fill:#4398d4}.cls-217{fill:#4297d4}.cls-218{fill:#4097d3}.cls-219{fill:#3e96d3}.cls-220{fill:#3c95d3}.cls-221{fill:#3b95d2}.cls-222{fill:#3994d2}.cls-223{fill:#3794d2}.cls-224{fill:#3593d1}.cls-225{fill:#3392d1}.cls-226{fill:#3092d1}.cls-227{fill:#2e91d0}.cls-228{fill:#2c91d0}.cls-229{fill:#2990d0}</style></defs><path fill="#0080b6" d="M110.98 177.754h2.914a1.966 1.966 0 0 1 1.657.6 3.322 3.322 0 0 1 .455 2.094v25.273a1.768 1.768 0 0 1-2.04 2.004h-3.423q-2.004.037-1.967-2.222v-24.982a3.282 3.282 0 0 1 .474-2.185 2.351 2.351 0 0 1 1.93-.582zm1.53 2.403h-.728c-.547-.01-.813.327-.802 1.02v9.687h2.622v-9.687q-.017-1.02-1.093-1.02zm.217 25.2q.947.055.875-1.165v-10.926h-2.622v10.926q.054 1.11 1.02 1.165zm7.138-27.677h19.447a1.717 1.717 0 0 1 1.893 1.967v2.987q.093 2.202-1.82 2.112h-10.634v2.185h6.555a1.386 1.386 0 0 1 1.02.436 9.398 9.398 0 0 0 .91-.928q.328-.366.547-.6a1.177 1.177 0 0 1 1.802-.129 1.399 1.399 0 0 1-.054 1.95 34.36 34.36 0 0 1-4.079 3.932h6.046a1.168 1.168 0 0 1 0 2.33h-9.178a43.872 43.872 0 0 1-4.442 2.55h9.322q2.185-.073 2.112 2.185v8.485q.126 2.459-2.404 2.33h-13.91q-2.495.127-2.404-2.622v-7.392a27.2 27.2 0 0 0-1.092.327q-1.001.31-1.384.402a1.343 1.343 0 0 1-1.694-.856 1.273 1.273 0 0 1 .965-1.622 48.704 48.704 0 0 0 10.197-3.786h-9.54a1.166 1.166 0 1 1 0-2.331h8.156v-2.403h-7.138q-.89-.057-.983-1.112.037-1.093.91-1.147h7.211v-2.184h-6.847q-1.382-.2-1.456-1.967v-2.987q-.054-2.202 1.966-2.112zm5.026 2.04h-3.86c-.484-.012-.728.303-.728.947v1.166q-.037.91.728.873h3.86zm11.945 24.399H123.07v2.039q-.036 1.093.947 1.057h12.09a.693.693 0 0 0 .73-.765zm-12.746-5.389q-1.037-.02-1.02 1.092v2.04h13.766v-2.331c0-.521-.218-.791-.656-.801zm7.793-19.01h-4.661v2.986h4.661zm-.51 11.872a27.64 27.64 0 0 0 3.059-2.403h-5.68v2.403zm2.84-11.872v2.986h3.861c.51.012.753-.303.728-.947v-1.164c.011-.609-.23-.9-.728-.875zm28.347-1.747v12.308h14.203a1.361 1.361 0 0 1 1.42 1.4 1.31 1.31 0 0 1-1.347 1.44h-10.633v11.508a2.5 2.5 0 0 0 .582 2.022 3.86 3.86 0 0 0 2.403.49h3.423a2.07 2.07 0 0 0 2.204-1.091 11.696 11.696 0 0 0 .564-4.625 1.407 1.407 0 0 1 1.475-1.42q1.438.053 1.512 1.346.036 5.337-1.038 6.974-.93 1.749-4.133 1.658h-4.808q-3.076.036-4.115-1.075-1.092-1.037-1.056-4.133v-11.653h-6.336q.18 7.608-2.13 10.961-2.17 3.497-8.795 5.826a1.597 1.597 0 0 1-2.058-1.038 1.468 1.468 0 0 1 .966-1.949q5.99-2.2 7.482-4.751 1.767-2.421 1.62-9.05h-8.812a1.309 1.309 0 0 1-1.347-1.44 1.36 1.36 0 0 1 1.42-1.4h14.349v-12.308q.073-1.274 1.492-1.367c.947.062 1.446.518 1.493 1.367zm-12.382 1.383a71.477 71.477 0 0 1 4.517 7.138 1.585 1.585 0 0 1-.474 2.276 1.517 1.517 0 0 1-1.238.09 1.877 1.877 0 0 1-.983-.91 57.633 57.633 0 0 0-4.443-6.991 1.457 1.457 0 0 1 .437-2.167 1.523 1.523 0 0 1 1.166-.182 1.917 1.917 0 0 1 1.018.746zm24.473 1.748a56.495 56.495 0 0 1-4.807 7.43 1.983 1.983 0 0 1-1.093.727 1.47 1.47 0 0 1-1.184-.253 1.454 1.454 0 0 1-.126-2.224 35.03 35.03 0 0 0 4.733-7.137 1.778 1.778 0 0 1 .875-.91 1.245 1.245 0 0 1 1.11.091 1.52 1.52 0 0 1 .692.983 1.97 1.97 0 0 1-.2 1.293zm46.569 6.337a1.39 1.39 0 1 1 0 2.767h-16.823a76.131 76.131 0 0 1-10.344 15.95q14.53 0 23.015-.874a44.908 44.908 0 0 0-4.588-7.21 1.556 1.556 0 0 1 .182-2.33 1.356 1.356 0 0 1 1.165-.165 2.295 2.295 0 0 1 1.128.82 71.979 71.979 0 0 1 6.92 11.762q.82 1.785-.4 2.586-1.439.529-2.294-1.201a8.693 8.693 0 0 0-.801-1.821q-5.665.583-11.8.8-3.059.11-6.555.147-3.442.037-7.866 0c-1.14.025-1.864-.245-2.166-.801q-.4-.86.71-2.078a71.522 71.522 0 0 0 10.56-15.585h-10.926a1.386 1.386 0 1 1 0-2.767zm-2.331-10.416a1.39 1.39 0 1 1 0 2.767h-25.783a1.439 1.439 0 0 1-1.549-1.328 1.29 1.29 0 0 1 1.33-1.439zm6.641 10.488h4.953a2.407 2.407 0 0 1 1.82.51 2.508 2.508 0 0 1 .51 1.82v15.587c0 .291.045.462.13.51.072.062.225.012.453-.146a15.612 15.612 0 0 0 2.986-3.205 1.521 1.521 0 0 1 2.26-.363 1.527 1.527 0 0 1 .6 1.056 1.725 1.725 0 0 1-.383 1.201 24.061 24.061 0 0 1-5.609 5.207c-1.187.62-2.069.783-2.638.493q-.858-.42-.857-2.24V191.52c.036-.815-.301-1.202-1.02-1.167h-3.205c-.774-.048-1.195-.52-1.254-1.42.06-.898.48-1.372 1.254-1.42zm4.662-10.197a33.598 33.598 0 0 1 4.296 5.536 1.486 1.486 0 0 1-.508 2.13 1.468 1.468 0 0 1-1.148.11 1.849 1.849 0 0 1-.965-.783 40.824 40.824 0 0 0-3.933-4.953 1.444 1.444 0 0 1 .055-2.131 1.583 1.583 0 0 1 1.13-.418 1.615 1.615 0 0 1 1.073.51zm19.737-.364v10.78h9.178a1.328 1.328 0 0 1 1.367 1.401c-.037.91-.467 1.39-1.295 1.439h-9.25v18.681q-.069 1.73-1.529 1.859-1.456-.127-1.53-1.859v-18.681h-9.249q-1.676-.053-1.874-1.365.035-1.403 1.655-1.475h9.468v-10.488a1.542 1.542 0 0 1 1.44-1.62q1.529 0 1.619 1.328zm18.59 7.576h21.34q2.785-.112 2.62 2.038v10.925a1.986 1.986 0 0 1-.399 1.457 2.07 2.07 0 0 1-1.493.365h-2.623v2.257h7.502a1.312 1.312 0 0 1 0 2.622h-7.502v5.863a1.46 1.46 0 0 1-2.913 0v-5.863h-9.54q-.438 6.156-8.158 7.466a1.668 1.668 0 0 1-2.003-1.093q-.22-1.312 1.274-1.676 5.771-1.108 5.972-4.697h-10.27c-.727-.048-1.105-.498-1.127-1.347a1.257 1.257 0 0 1 1.275-1.275h10.269v-2.257h-4.37q-2.608-.02-2.623-1.968v-10.779c-.108-1.445.811-2.123 2.769-2.038zm.51-6.483h8.375c.715.047 1.092.48 1.13 1.293a1.195 1.195 0 0 1-1.203 1.257h-3.568a7.248 7.248 0 0 1 .582 2.184c.06.692-.342 1.104-1.2 1.239q-1.408.054-1.641-.948a21.459 21.459 0 0 0-.654-2.475h-3.28a22.999 22.999 0 0 1-3.494 3.64 1.662 1.662 0 0 1-2.186-.035 1.224 1.224 0 0 1 .146-1.93 15.078 15.078 0 0 0 4.443-5.608 1.507 1.507 0 0 1 2.093-.564 1.26 1.26 0 0 1 .638.818 1.783 1.783 0 0 1-.181 1.129zm.364 8.813c-.719-.037-1.057.28-1.02.946v1.093h21.486v-1.238c.022-.546-.292-.813-.947-.8zm.144 10.269h19.375c.655.012.97-.255.947-.8v-1.166h-21.487v1.02q-.019.965 1.165.946zm-1.165-6.045v1.966h21.487v-1.966zm7.284 8.23v2.258h9.395v-2.257zm8.595-21.267h10.705c.715.047 1.093.48 1.13 1.293a1.194 1.194 0 0 1-1.202 1.257h-5.9a7.228 7.228 0 0 1 .583 2.184q.09 1.038-1.202 1.239-1.406.054-1.639-.948a21.728 21.728 0 0 0-.655-2.475h-3.278a18.87 18.87 0 0 1-2.476 2.766 1.696 1.696 0 0 1-2.222.055 1.363 1.363 0 0 1 .183-2.02 12.61 12.61 0 0 0 3.423-4.734 1.507 1.507 0 0 1 2.093-.564 1.256 1.256 0 0 1 .638.818 1.778 1.778 0 0 1-.181 1.129z"/><g clip-path="url(#clip-path)"><path d="M164.603 30.349l-9.231 12.1v-12.1h9.231zm.79 0l-10.021 13.137v-1.037l9.231-12.1h.79z" class="cls-4"/><path d="M166.185 30.349l-10.813 14.179v-1.042l10.021-13.137h.792z" class="cls-5"/><path d="M166.976 30.349L155.372 45.56v-1.032l10.813-14.179h.791z" class="cls-6"/><path d="M167.766 30.349l-12.394 16.253V45.56l11.604-15.211h.79z" class="cls-7"/><path d="M168.557 30.349l-13.185 17.285v-1.032l12.394-16.253h.791z" class="cls-8"/><path d="M169.349 30.349l-13.977 18.327v-1.042l13.185-17.285h.792z" class="cls-9"/><path d="M170.139 30.349l-14.767 19.359v-1.032l13.977-18.327h.79z" class="cls-10"/><path d="M170.93 30.349L155.372 50.75v-1.042l14.767-19.359h.791z" class="cls-11"/><path d="M171.721 30.349l-16.349 21.437V50.75l15.558-20.401h.791z" class="cls-12"/><path d="M172.512 30.349l-17.14 22.475v-1.038l16.349-21.437h.791z" class="cls-13"/><path d="M173.303 30.349l-17.521 22.977-.41-.31v-.192l17.14-22.475h.791z" class="cls-14"/><path d="M174.094 30.349l-17.816 23.356-.496-.379 17.521-22.977h.791z" class="cls-15"/><path d="M174.885 30.349L156.78 54.087l-.502-.382 17.816-23.356h.791z" class="cls-16"/><path d="M175.676 30.349l-18.395 24.123-.501-.385 18.105-23.738h.791z" class="cls-17"/><path d="M176.466 30.349l-18.688 24.5-.497-.377 18.395-24.123h.79z" class="cls-18"/><path d="M177.253 30.349L158.28 55.235l-.502-.386 18.688-24.5h.787z" class="cls-19"/><path d="M178.049 30.349l-19.268 25.267-.501-.381 18.973-24.886h.796z" class="cls-20"/><path d="M178.835 30.349l-19.557 25.647-.497-.38 19.268-25.267h.786z" class="cls-21"/><path d="M179.626 30.349L159.78 56.378l-.502-.382 19.557-25.647h.791z" class="cls-22"/><path d="M180.422 30.349l-20.141 26.409-.501-.38 19.846-26.029h.796z" class="cls-23"/><path d="M181.212 30.349L160.783 57.14l-.502-.382 20.141-26.409h.79z" class="cls-24"/><path d="M181.999 30.349L161.28 57.52l-.497-.38 20.429-26.791h.787z" class="cls-25"/><path d="M182.79 30.349l-21.009 27.553-.501-.382 20.719-27.171h.791z" class="cls-26"/><path d="M183.581 30.349l-21.303 27.933-.497-.38 21.009-27.553h.791z" class="cls-27"/><path d="M184.371 30.349l-21.592 28.315-.501-.382 21.303-27.933h.79z" class="cls-28"/><path d="M185.162 30.349l-21.881 28.696-.502-.381 21.592-28.315h.791z" class="cls-29"/><path d="M185.954 30.349l-22.171 29.082-.502-.386 21.881-28.696h.792z" class="cls-30"/><path d="M186.744 30.349l-22.465 29.457-.496-.375 22.171-29.082h.79z" class="cls-31"/><path d="M187.535 30.349l-22.754 29.844-.502-.387 22.465-29.457h.791z" class="cls-32"/><path d="M188.327 30.349l-23.045 30.22-.501-.376 22.754-29.844h.792z" class="cls-33"/><path d="M189.117 30.349l-23.338 30.605-.497-.385 23.045-30.22h.79z" class="cls-34"/><path d="M189.908 30.349l-23.627 30.987-.502-.382 23.338-30.605h.791z" class="cls-35"/><path d="M190.699 30.349l-23.916 31.368-.502-.381 23.627-30.987h.791z" class="cls-36"/><path d="M191.49 30.349l-24.21 31.749-.497-.381 23.916-31.368h.791z" class="cls-37"/><path d="M192.281 30.349l-24.5 32.129-.501-.38 24.21-31.749h.791z" class="cls-38"/><path d="M193.072 30.349l-24.79 32.511-.501-.382 24.5-32.129h.791z" class="cls-39"/><path d="M193.863 30.349l-25.084 32.892-.497-.381 24.79-32.511h.791z" class="cls-40"/><path d="M194.654 30.349L169.28 63.622l-.501-.381 25.084-32.892h.791z" class="cls-41"/><path d="M195.445 30.349l-25.662 33.654-.503-.381 25.374-33.273h.791z" class="cls-42"/><path d="M196.236 30.349l-25.957 34.035-.496-.381 25.662-33.654h.791z" class="cls-43"/><path d="M197.027 30.349l-26.246 34.416-.502-.381 25.957-34.035h.791z" class="cls-44"/><path d="M197.818 30.349l-26.536 34.802-.501-.386 26.246-34.416h.791z" class="cls-45"/><path d="M198.609 30.349l-26.83 35.178-.497-.376 26.536-34.802h.791z" class="cls-46"/><path d="M199.4 30.349l-27.12 35.564-.501-.386 26.83-35.178h.791z" class="cls-47"/><path d="M200.19 30.349l-27.408 35.944-.502-.38 27.12-35.564h.79z" class="cls-48"/><path d="M200.982 30.349l-27.698 36.326-.502-.382 27.408-35.944h.792z" class="cls-49"/><path d="M201.773 30.349l-27.992 36.706-.497-.38 27.698-36.326h.791z" class="cls-50"/><path d="M202.284 30.349l.178.135-28.18 36.953-.501-.382 27.992-36.706h.511z" class="cls-51"/><path d="M202.462 30.484l.497.386-28.18 36.947-.497-.38 28.18-36.953z" class="cls-52"/><path d="M202.959 30.87l.502.38-28.18 36.949-.502-.382 28.18-36.947z" class="cls-53"/><path d="M203.461 31.25l.496.382-28.175 36.947-.501-.38 28.18-36.949z" class="cls-54"/><path d="M175.824 68.612L203.913 31.6l.502.38-28.09 37.013z" class="cls-55"/><path d="M204.458 32.013l.502.381-28.18 36.948-.496-.381 28.174-36.948z" class="cls-56"/><path d="M204.96 32.394l.502.38-28.18 36.949-.502-.381 28.18-36.948z" class="cls-57"/><path d="M205.462 32.774l.497.382-28.176 36.947-.501-.38 28.18-36.949z" class="cls-58"/><path d="M205.959 33.156l.501.381-28.18 36.948-.497-.382 28.176-36.947z" class="cls-59"/><path d="M178.29 70.495l28.157-36.968.502.383-28.156 36.967z" class="cls-60"/><path d="M178.77 70.858l28.205-36.93.497.38-28.205 36.93z" class="cls-61"/><path d="M179.294 71.257l28.153-36.969.5.382-28.152 36.969z" class="cls-62"/><path d="M179.725 71.588l28.29-36.864.502.384-28.29 36.865z" class="cls-63"/><path d="M208.462 35.065l.497.377-28.175 36.952-.502-.38 28.18-36.949z" class="cls-64"/><path d="M208.959 35.442l.502.386-28.181 36.948-.496-.382 28.175-36.952z" class="cls-65"/><path d="M209.461 35.828l.501.376-28.18 36.952-.502-.38 28.181-36.948z" class="cls-66"/><path d="M181.632 73.038l28.48-36.718.497.385-28.48 36.718z" class="cls-67"/><path d="M182.294 73.546l28.154-36.965.501.382-28.153 36.965z" class="cls-68"/><path d="M210.96 36.971l.502.38L183.281 74.3l-.496-.382 28.175-36.947z" class="cls-69"/><path d="M211.462 37.351l.496.382-28.175 36.947-.502-.38 28.181-36.949z" class="cls-70"/><path d="M211.958 37.733l.502.38-28.18 36.948-.497-.381 28.175-36.947z" class="cls-71"/><path d="M184.292 75.07l28.156-36.967.501.382-28.156 36.966z" class="cls-72"/><path d="M212.962 38.495l.497.38-28.176 36.953-.501-.386 28.18-36.947z" class="cls-73"/><path d="M185.282 75.824l28.18-36.947.499.38-28.18 36.948z" class="cls-74"/><path d="M213.959 39.257l.502.381-28.18 36.952-.497-.386 28.175-36.947z" class="cls-75"/><path d="M214.461 39.638l.502.381-28.18 36.947-.502-.376 28.18-36.952z" class="cls-76"/><path d="M214.963 40.019l.497.38-28.175 36.953-.502-.386 28.18-36.947z" class="cls-77"/><path d="M215.46 40.399l.501.387-28.179 36.948-.497-.382 28.175-36.953z" class="cls-78"/><path d="M215.961 40.786l.502.376-28.18 36.953-.501-.381 28.179-36.948z" class="cls-79"/><path d="M216.463 41.162l.496.385-28.174 36.949-.502-.381 28.18-36.953z" class="cls-80"/><path d="M216.959 41.547l.502.381-28.18 36.948-.496-.38 28.174-36.949z" class="cls-81"/><path d="M189.304 78.894l28.135-36.983.501.381-28.135 36.983z" class="cls-82"/><path d="M217.963 42.31l.497.38-28.175 36.949-.503-.381 28.181-36.948z" class="cls-83"/><path d="M218.46 42.69l.501.381-28.18 36.949-.496-.381L218.46 42.69z" class="cls-84"/><path d="M218.961 43.071l.501.381L191.283 80.4l-.502-.38 28.18-36.949z" class="cls-85"/><path d="M191.225 80.355l28.296-36.859.499.383-28.296 36.859z" class="cls-86"/><path d="M219.96 43.834l.501.38-28.18 36.948-.497-.38 28.176-36.948z" class="cls-87"/><path d="M220.461 44.214l.502.382-28.18 36.952-.502-.386 28.18-36.948z" class="cls-88"/><path d="M220.963 44.596l.497.38-28.176 36.949-.501-.377 28.18-36.952z" class="cls-89"/><path d="M221.46 44.976l.502.381-28.181 36.954-.497-.386 28.176-36.949z" class="cls-90"/><path d="M221.962 45.357l.501.381-28.18 36.953-.502-.38 28.181-36.954z" class="cls-91"/><path d="M194.2 82.625l28.347-36.823.498.383-28.348 36.823z" class="cls-92"/><path d="M222.959 46.12l.502.386-28.175 36.947-.502-.38 28.175-36.953z" class="cls-93"/><path d="M223.461 46.506l.502.375-28.181 36.953-.496-.381 28.175-36.947z" class="cls-94"/><path d="M223.963 46.881l.502.387-28.181 36.947-.502-.381 28.181-36.953z" class="cls-95"/><path d="M224.465 47.268l.496.38-28.18 36.949-.497-.382 28.181-36.947z" class="cls-96"/><path d="M196.793 84.605l28.156-36.967.501.382-28.156 36.966z" class="cls-97"/><path d="M197.27 84.967l28.204-36.927.5.38-28.204 36.928z" class="cls-98"/><path d="M197.795 85.367l28.154-36.965.501.382-28.153 36.965z" class="cls-99"/><path d="M226.461 48.792l.501.38-28.18 36.949-.497-.382 28.176-36.947z" class="cls-100"/><path d="M198.794 86.13l28.156-36.967.502.382-28.156 36.966z" class="cls-101"/><path d="M199.257 86.48l28.233-36.905.499.381-28.233 36.905z" class="cls-102"/><path d="M227.961 49.935l.501.381-28.18 36.953-.497-.386 28.176-36.948z" class="cls-103"/><path d="M228.462 50.316l.502.38-28.18 36.949-.502-.376 28.18-36.953z" class="cls-104"/><path d="M228.964 50.696l.497.382-28.175 36.952-.502-.385 28.18-36.949zm.497.382l.693.53-28.174 36.953-.694-.531 28.175-36.952z" class="cls-105"/><path d="M202.044 88.612l28.046-37.053.698.53-28.046 37.052z" class="cls-104"/><path d="M230.855 52.138l.693.531-28.179 36.953-.695-.531 28.181-36.953z" class="cls-103"/><path d="M203.377 89.626l28.165-36.963.697.531-28.165 36.963z" class="cls-106"/><path d="M204.116 90.19l28.08-37.029.698.53-28.08 37.028z" class="cls-101"/><path d="M232.943 53.729l.695.532-28.181 36.953-.694-.532 28.18-36.953z" class="cls-100"/><path d="M205.446 91.205l28.201-36.937.695.53-28.201 36.938z" class="cls-107"/><path d="M234.332 54.791l.694.53-28.175 36.953-.699-.53 28.18-36.953z" class="cls-108"/><path d="M235.026 55.321l.694.531-28.175 36.953-.694-.531 28.175-36.953z" class="cls-109"/><path d="M235.72 55.852l.7.531-27.982 36.692h-.535l-.358-.27 28.175-36.953z" class="cls-110"/><path d="M236.42 56.383l.695.53-27.578 36.162h-1.099l27.982-36.692z" class="cls-111"/><path d="M237.115 56.913l.694.531-27.172 35.631h-1.1l27.578-36.162z" class="cls-112"/><path d="M237.809 57.444l.695.53-26.767 35.101h-1.1l27.172-35.631z" class="cls-113"/><path d="M238.504 57.974l.699.531-26.366 34.57h-1.1l26.767-35.101z" class="cls-114"/><path d="M239.203 58.505l.694.53-25.956 34.04h-1.104l26.366-34.57z" class="cls-115"/><path d="M239.897 59.035l.695.53-25.552 33.51h-1.099l25.956-34.04z" class="cls-116"/><path d="M240.592 59.565l.694.532-25.146 32.978h-1.1l25.552-33.51z" class="cls-117"/><path d="M241.286 60.097l.695.53-24.741 32.448h-1.1l25.146-32.978z" class="cls-118"/><path d="M241.981 60.627l.231.173v.97l-23.873 31.305h-1.099l24.741-32.448z" class="cls-119"/><path d="M242.212 63.212l-22.774 29.863h-1.099l23.873-31.305v1.442z" class="cls-120"/><path d="M242.212 64.658l-21.674 28.417h-1.1l22.774-29.863v1.446z" class="cls-121"/><path d="M242.212 66.096l-20.574 26.979h-1.1l21.674-28.417v1.438z" class="cls-122"/><path d="M242.212 67.543l-19.475 25.532h-1.099l20.574-26.979v1.447z" class="cls-123"/><path d="M242.212 68.985l-18.369 24.09h-1.106l19.475-25.532v1.442z" class="cls-124"/><path d="M242.212 70.427l-17.27 22.648h-1.099l18.369-24.09v1.442z" class="cls-125"/><path d="M242.212 71.869l-16.171 21.206h-1.099l17.27-22.648v1.442z" class="cls-126"/><path d="M242.212 73.311l-15.071 19.764h-1.1l16.171-21.206v1.442z" class="cls-127"/><path d="M242.212 74.753l-13.971 18.322h-1.1l15.071-19.764v1.442z" class="cls-128"/><path d="M242.212 76.195l-12.872 16.88h-1.099l13.971-18.322v1.442z" class="cls-129"/><path d="M242.212 77.641L230.44 93.075h-1.1l12.872-16.88v1.446z" class="cls-130"/><path d="M242.212 79.084l-10.668 13.991h-1.104l11.772-15.434v1.443z" class="cls-131"/><path d="M242.212 80.526l-9.568 12.549h-1.1l10.668-13.991v1.442z" class="cls-132"/><path d="M242.212 81.968l-8.469 11.107h-1.099l9.568-12.549v1.442z" class="cls-133"/><path d="M242.212 83.41l-7.369 9.665h-1.1l8.469-11.107v1.442z" class="cls-134"/><path d="M242.212 84.852l-6.269 8.223h-1.1l7.369-9.665v1.442z" class="cls-135"/><path d="M242.212 86.294l-5.17 6.781h-1.099l6.269-8.223v1.442z" class="cls-136"/><path d="M242.212 87.741l-4.07 5.334h-1.1l5.17-6.781v1.447z" class="cls-137"/><path d="M242.212 89.182l-2.97 3.893h-1.1l4.07-5.334v1.441z" class="cls-138"/><path d="M242.212 90.626l-1.871 2.449h-1.099l2.97-3.893v1.444z" class="cls-139"/><path d="M242.212 92.067l-.767 1.008h-1.104l1.871-2.449v1.441z" class="cls-140"/><path d="M241.445 93.075l.767-1.008v1.008h-.767z" class="cls-141"/></g><g clip-path="url(#clip-path-2)"><path d="M152.874 45.733l-38.212 50.105V45.733h38.212z" class="cls-4"/><path d="M153.664 45.733l-39.002 51.143v-1.038l38.212-50.105h.79z" class="cls-4"/><path d="M154.455 45.733l-39.793 52.179v-1.036l39.002-51.143h.791z" class="cls-5"/><path d="M155.246 45.733l-40.584 53.216v-1.037l39.793-52.179h.791z" class="cls-6"/><path d="M156.037 45.733l-41.375 54.254v-1.038l40.584-53.216h.791z" class="cls-7"/><path d="M156.828 45.733l-42.166 55.29v-1.036l41.375-54.254h.791z" class="cls-8"/><path d="M157.619 45.733l-42.957 56.328v-1.038l42.166-55.29h.791z" class="cls-9"/><path d="M158.41 45.733l-43.748 57.364v-1.036l42.957-56.328h.791z" class="cls-10"/><path d="M159.201 45.733l-44.539 58.401v-1.037l43.748-57.364h.791z" class="cls-11"/><path d="M159.992 45.733l-45.33 59.438v-1.037l44.539-58.401h.791z" class="cls-12"/><path d="M160.783 45.733l-46.121 60.474v-1.036l45.33-59.438h.791z" class="cls-13"/><path d="M161.574 45.733l-46.912 61.512v-1.038l46.121-60.474h.791z" class="cls-14"/><path d="M162.365 45.733l-47.703 62.548v-1.036l46.912-61.512h.791z" class="cls-15"/><path d="M163.156 45.733l-48.494 63.585v-1.037l47.703-62.548h.791z" class="cls-16"/><path d="M163.942 45.733l-49.28 64.623v-1.038l48.494-63.585h.786z" class="cls-17"/><path d="M164.733 45.733l-50.071 65.659v-1.036l49.28-64.623h.791z" class="cls-18"/><path d="M165.523 45.733l-50.861 66.701v-1.042l50.071-65.659h.79z" class="cls-19"/><path d="M166.315 45.733l-51.653 67.734v-1.033l50.861-66.701h.792z" class="cls-20"/><path d="M167.106 45.733l-52.444 68.77v-1.036l51.653-67.734h.791z" class="cls-21"/><path d="M167.896 45.733l-53.234 69.807v-1.037l52.444-68.77h.79z" class="cls-22"/><path d="M168.688 45.733l-54.026 70.849v-1.042l53.234-69.807h.792z" class="cls-23"/><path d="M169.479 45.733l-54.817 71.881v-1.032l54.026-70.849h.791z" class="cls-24"/><path d="M170.269 45.733l-55.607 72.918v-1.037l54.817-71.881h.79z" class="cls-25"/><path d="M171.06 45.733l-56.398 73.954v-1.036l55.607-72.918h.791z" class="cls-26"/><path d="M171.852 45.733l-57.19 74.996v-1.042l56.398-73.954h.792z" class="cls-27"/><path d="M172.642 45.733l-57.98 76.028v-1.032l57.19-74.996h.79z" class="cls-28"/><path d="M173.433 45.733l-58.771 77.07v-1.042l57.98-76.028h.791z" class="cls-29"/><path d="M174.224 45.733l-59.562 78.107v-1.037l58.771-77.07h.791z" class="cls-30"/><path d="M175.015 45.733l-60.353 79.144v-1.037l59.562-78.107h.791z" class="cls-31"/><path d="M175.806 45.733l-60.763 79.675-.381-.289v-.242l60.353-79.144h.791z" class="cls-32"/><path d="M176.597 45.733l-61.053 80.061-.501-.386 60.763-79.675h.791z" class="cls-33"/><path d="M177.388 45.733l-61.342 80.441-.502-.38 61.053-80.061h.791z" class="cls-34"/><path d="M178.179 45.733l-61.636 80.823-.497-.382 61.342-80.441h.791z" class="cls-35"/><path d="M178.97 45.733l-61.926 81.204-.501-.381 61.636-80.823h.791z" class="cls-36"/><path d="M179.761 45.733l-62.215 81.585-.502-.381 61.926-81.204h.791z" class="cls-37"/><path d="M180.552 45.733l-62.509 81.965-.497-.38 62.215-81.585h.791z" class="cls-38"/><path d="M181.343 45.733l-62.799 82.347-.501-.382 62.509-81.965h.791z" class="cls-39"/><path d="M182.134 45.733l-63.088 82.727-.502-.38 62.799-82.347h.791z" class="cls-40"/><path d="M182.925 45.733l-63.378 83.109-.501-.382 63.088-82.727h.791z" class="cls-41"/><path d="M183.716 45.733l-63.672 83.489-.497-.38 63.378-83.109h.791z" class="cls-42"/><path d="M184.507 45.733l-63.961 83.871-.502-.382 63.672-83.489h.791z" class="cls-43"/><path d="M185.298 45.733l-64.256 84.256-.496-.385 63.961-83.871h.791z" class="cls-44"/><path d="M186.088 45.733l-64.544 84.633-.502-.377 64.256-84.256h.79z" class="cls-45"/><path d="M186.879 45.733l-64.834 85.018-.501-.385 64.544-84.633h.791z" class="cls-46"/><path d="M187.67 45.733l-65.123 85.399-.502-.381 64.834-85.018h.791z" class="cls-47"/><path d="M188.461 45.733l-65.417 85.78-.497-.381 65.123-85.399h.791z" class="cls-48"/><path d="M189.252 45.733l-65.707 86.162-.501-.382 65.417-85.78h.791z" class="cls-49"/><path d="M190.043 45.733l-65.996 86.542-.502-.38 65.707-86.162h.791z" class="cls-50"/><path d="M190.834 45.733l-66.29 86.923-.497-.381 65.996-86.542h.791z" class="cls-51"/><path d="M191.625 45.733l-66.579 87.304-.502-.381 66.29-86.923h.791z" class="cls-52"/><path d="M192.416 45.733l-66.869 87.686-.501-.382 66.579-87.304h.791z" class="cls-53"/><path d="M193.207 45.733l-67.164 88.066-.496-.38 66.869-87.686h.791z" class="cls-54"/><path d="M193.998 45.733l-67.453 88.448-.502-.382 67.164-88.066h.791z" class="cls-55"/><path d="M194.789 45.733l-67.742 88.828-.502-.38 67.453-88.448h.791z" class="cls-56"/><path d="M195.58 45.733l-68.037 89.21-.496-.382 67.742-88.828h.791z" class="cls-57"/><path d="M196.371 45.733l-68.326 89.59-.502-.38 68.037-89.21h.791z" class="cls-58"/><path d="M197.162 45.733l-68.615 89.977-.502-.387 68.326-89.59h.791z" class="cls-59"/><path d="M197.953 45.733l-68.905 90.352-.501-.375 68.615-89.977h.791z" class="cls-60"/><path d="M198.743 45.733l-69.198 90.738-.497-.386 68.905-90.352h.79z" class="cls-61"/><path d="M199.535 45.733l-69.488 91.119-.502-.381 69.198-90.738h.792z" class="cls-62"/><path d="M200.326 45.733l-69.783 91.5-.496-.381 69.488-91.119h.791z" class="cls-63"/><path d="M201.117 45.733l-70.072 91.881-.502-.381 69.783-91.5h.791z" class="cls-64"/><path d="M201.908 45.733l-70.361 92.262-.502-.381 70.072-91.881h.791z" class="cls-65"/><path d="M202.699 45.733l-70.651 92.643-.501-.381 70.361-92.262h.791z" class="cls-66"/><path d="M203.489 45.733l-70.944 93.024-.497-.381 70.651-92.643h.79z" class="cls-67"/><path d="M204.281 45.733l-71.234 93.405-.502-.381 70.944-93.024h.792z" class="cls-68"/><path d="M205.072 45.733l-71.524 93.787-.501-.382 71.234-93.405h.791z" class="cls-69"/><path d="M205.862 45.733L134.045 139.9l-.497-.38 71.524-93.787h.79z" class="cls-70"/><path d="M206.653 45.733l-72.107 94.548-.501-.381 71.817-94.167h.791z" class="cls-71"/><path d="M207.439 45.733l-72.391 94.935-.502-.387 72.107-94.548h.786z" class="cls-72"/><path d="M208.23 45.733l-72.685 95.311-.497-.376 72.391-94.935h.791z" class="cls-73"/><path d="M209.021 45.733l-72.975 95.696-.501-.385 72.685-95.311h.791z" class="cls-74"/><path d="M209.812 45.733l-73.264 96.077-.502-.381 72.975-95.696h.791z" class="cls-75"/><path d="M210.603 45.733l-73.558 96.459-.497-.382 73.264-96.077h.791z" class="cls-76"/><path d="M211.394 45.733l-73.848 96.839-.501-.38 73.558-96.459h.791z" class="cls-77"/><path d="M212.185 45.733l-74.137 97.221-.502-.382 73.848-96.839h.791z" class="cls-78"/><path d="M212.976 45.733l-74.431 97.601-.497-.38 74.137-97.221h.791z" class="cls-79"/><path d="M213.767 45.733l-74.721 97.983-.501-.382 74.431-97.601h.791z" class="cls-80"/><path d="M214.558 45.733l-75.01 98.363-.502-.38 74.721-97.983h.791z" class="cls-81"/><path d="M215.349 45.733l-75.305 98.745-.496-.382 75.01-98.363h.791z" class="cls-82"/><path d="M216.14 45.733l-75.594 99.125-.502-.38 75.305-98.745h.791z" class="cls-83"/><path d="M216.931 45.733l-75.729 99.309h-.42l-.236-.184 75.594-99.125h.791z" class="cls-84"/><path d="M217.722 45.733l-75.734 99.309h-.786l75.729-99.309h.791z" class="cls-85"/><path d="M218.513 45.733l-75.729 99.309h-.796l75.734-99.309h.791z" class="cls-86"/><path d="M219.304 45.733l-75.729 99.309h-.791l75.729-99.309h.791z" class="cls-87"/><path d="M220.095 45.733l-75.729 99.309h-.791l75.729-99.309h.791z" class="cls-88"/><path d="M220.886 45.733l-75.734 99.309h-.786l75.729-99.309h.791z" class="cls-89"/><path d="M221.676 45.733l-75.728 99.309h-.796l75.734-99.309h.79z" class="cls-90"/><path d="M222.468 45.733l-75.734 99.309h-.786l75.728-99.309h.792z" class="cls-91"/><path d="M223.258 45.733l-75.734 99.309h-.79l75.734-99.309h.79z" class="cls-92"/><path d="M224.049 45.733l-75.729 99.309h-.796l75.734-99.309h.791z" class="cls-93"/><path d="M224.84 45.733l-75.733 99.309h-.791l75.733-99.309h.791z" class="cls-94"/><path d="M225.631 45.733l-75.734 99.309h-.79l75.733-99.309h.791z" class="cls-95"/><path d="M226.422 45.733l-75.733 99.309h-.792l75.734-99.309h.791z" class="cls-96"/><path d="M227.213 45.733l-75.733 99.309h-.791l75.733-99.309h.791z" class="cls-97"/><path d="M228.004 45.733l-75.734 99.309h-.79l75.733-99.309h.791z" class="cls-98"/><path d="M228.795 45.733l-75.734 99.309h-.791l75.734-99.309h.791z" class="cls-99"/><path d="M229.586 45.733l-75.733 99.309h-.792l75.734-99.309h.791z" class="cls-100"/><path d="M230.377 45.733l-75.734 99.309h-.79l75.733-99.309h.791z" class="cls-101"/><path d="M231.168 45.733l-75.734 99.309h-.791l75.734-99.309h.791z" class="cls-102"/><path d="M231.959 45.733l-75.734 99.309h-.791l75.734-99.309h.791z" class="cls-103"/><path d="M232.75 45.733l-75.734 99.309h-.791l75.734-99.309h.791z" class="cls-104"/><path d="M233.541 45.733l-75.734 99.309h-.791l75.734-99.309h.791z" class="cls-105"/><path d="M234.64 45.733l-75.733 99.309h-1.1l75.734-99.309h1.099z" class="cls-105"/><path d="M235.74 45.733l-75.734 99.309h-1.099l75.733-99.309h1.1z" class="cls-104"/><path d="M236.84 45.733l-75.734 99.309h-1.1l75.734-99.309h1.1z" class="cls-103"/><path d="M237.939 45.733l-75.728 99.309h-1.105l75.734-99.309h1.099z" class="cls-106"/><path d="M239.039 45.733l-75.729 99.309h-1.099l75.728-99.309h1.1z" class="cls-101"/><path d="M240.138 45.733l-75.728 99.309h-1.1l75.729-99.309h1.099z" class="cls-100"/><path d="M241.243 45.733l-75.734 99.309h-1.099l75.728-99.309h1.105z" class="cls-107"/><path d="M242.343 45.733l-75.734 99.309h-1.1l75.734-99.309h1.1z" class="cls-108"/><path d="M243.442 45.733l-75.734 99.309h-1.099l75.734-99.309h1.099z" class="cls-109"/><path d="M244.542 45.733l-75.734 99.309h-1.1l75.734-99.309h1.1z" class="cls-110"/><path d="M245.642 45.733l-75.734 99.309h-1.1l75.734-99.309h1.1z" class="cls-111"/><path d="M246.741 45.733l-75.734 99.309h-1.099l75.734-99.309h1.099z" class="cls-112"/><path d="M247.845 45.733l-75.733 99.309h-1.105l75.734-99.309h1.104z" class="cls-113"/><path d="M248.945 45.733l-75.733 99.309h-1.1l75.733-99.309h1.1z" class="cls-114"/><path d="M250.045 45.733l-75.734 99.309h-1.099l75.733-99.309h1.1z" class="cls-115"/><path d="M251.144 45.733l-75.733 99.309h-1.1l75.734-99.309h1.099z" class="cls-116"/><path d="M252.244 45.733l-75.734 99.309h-1.099l75.733-99.309h1.1z" class="cls-117"/><path d="M253.344 45.733l-75.734 99.309h-1.1l75.734-99.309h1.1z" class="cls-118"/><path d="M254.443 45.733l-75.734 99.309h-1.099l75.734-99.309h1.099z" class="cls-119"/><path d="M255.542 45.733l-75.728 99.309h-1.105l75.734-99.309h1.099z" class="cls-120"/><path d="M256.642 45.733l-75.728 99.309h-1.1l75.728-99.309h1.1z" class="cls-121"/><path d="M257.746 45.733l-75.733 99.309h-1.099l75.728-99.309h1.104z" class="cls-122"/><path d="M258.846 45.733l-75.733 99.309h-1.1l75.733-99.309h1.1z" class="cls-123"/><path d="M259.946 45.733l-75.734 99.309h-1.099l75.733-99.309h1.1z" class="cls-124"/><path d="M261.045 45.733l-75.733 99.309h-1.1l75.734-99.309h1.099z" class="cls-125"/><path d="M262.145 45.733l-75.733 99.309h-1.1l75.733-99.309h1.1z" class="cls-126"/><path d="M263.245 45.733l-75.734 99.309h-1.099l75.733-99.309h1.1z" class="cls-127"/><path d="M264.344 45.733l-75.733 99.309h-1.1l75.734-99.309h1.099z" class="cls-128"/><path d="M265.444 45.733l-75.729 99.309h-1.104l75.733-99.309h1.1z" class="cls-129"/><path d="M266.548 45.733l-75.733 99.309h-1.1l75.734-99.309h1.099z" class="cls-130"/><path d="M267.648 45.733l-75.733 99.309h-1.1l75.733-99.309h1.1z" class="cls-131"/><path d="M268.748 45.733l-75.734 99.309h-1.099l75.733-99.309h1.1z" class="cls-132"/><path d="M269.848 45.733l-75.734 99.309h-1.1l75.734-99.309h1.1z" class="cls-133"/><path d="M270.947 45.733l-75.734 99.309h-1.099l75.734-99.309h1.099z" class="cls-134"/><path d="M272.047 45.733l-75.734 99.309h-1.1l75.734-99.309h1.1z" class="cls-135"/><path d="M273.146 45.733l-75.728 99.309h-1.105l75.734-99.309h1.099z" class="cls-136"/><path d="M274.246 45.733l-75.729 99.309h-1.099l75.728-99.309h1.1z" class="cls-137"/><path d="M275.35 45.733l-75.733 99.309h-1.1l75.729-99.309h1.104z" class="cls-138"/><path d="M275.905 45.733l.343.261-75.531 99.048h-1.1l75.733-99.309h.555z" class="cls-139"/><path d="M276.248 45.994l.699.53-75.131 98.518h-1.099l75.531-99.048z" class="cls-140"/><path d="M276.947 46.524l.694.532-74.725 97.986h-1.1l75.131-98.518z" class="cls-141"/><path d="M277.641 47.056l.694.53-74.32 97.456h-1.099l74.725-97.986z" class="cls-143"/><path d="M278.335 47.586l.695.531-73.915 96.925h-1.1l74.32-97.456z" class="cls-144"/><path d="M279.03 48.117l.695.53-73.511 96.395h-1.099l73.915-96.925z" class="cls-145"/><path d="M279.725 48.647l.699.53-73.105 95.865h-1.105l73.511-96.395z" class="cls-146"/><path d="M280.424 49.177l.694.531-72.699 95.334h-1.1l73.105-95.865z" class="cls-147"/><path d="M281.118 49.708l.695.53-72.295 94.804h-1.099l72.699-95.334z" class="cls-148"/><path d="M281.813 50.238l.694.53-71.889 94.274h-1.1l72.295-94.804z" class="cls-149"/><path d="M282.507 50.768l.699.532-71.489 93.742h-1.099l71.889-94.274z" class="cls-150"/><path d="M283.206 51.3l.696.53-71.085 93.212h-1.1L283.206 51.3z" class="cls-151"/><path d="M283.902 51.83l.693.53-70.674 92.682h-1.104l71.085-93.212z" class="cls-152"/><path d="M284.595 52.36l.695.531-70.269 92.151h-1.1l70.674-92.682z" class="cls-153"/><path d="M285.29 52.891l.695.53-69.865 91.621h-1.099l70.269-92.151z" class="cls-154"/><path d="M285.985 53.421l.699.531-69.464 91.09h-1.1l69.865-91.621z" class="cls-155"/><path d="M286.684 53.952l.694.53-69.058 90.56h-1.1l69.464-91.09z" class="cls-156"/><path d="M287.378 54.482l.695.53-68.654 90.03h-1.099l69.058-90.56z" class="cls-157"/><path d="M288.073 55.012l.699.532-68.254 89.498h-1.099l68.654-90.03z" class="cls-158"/><path d="M288.772 55.544l.695.53-67.849 88.968h-1.1l68.254-89.498z" class="cls-159"/><path d="M289.467 56.074l.694.53-67.442 88.438h-1.101l67.849-88.968z" class="cls-160"/><path d="M290.161 56.604l.695.532-67.033 87.906h-1.104l67.442-88.438z" class="cls-161"/><path d="M290.856 57.136l.694.53-66.627 87.376h-1.1l67.033-87.906z" class="cls-162"/><path d="M291.55 57.666l.7.53-66.228 86.846h-1.099l66.627-87.376z" class="cls-163"/><path d="M292.25 58.196l.694.531-65.823 86.315h-1.099l66.228-86.846z" class="cls-164"/><path d="M292.944 58.727l.695.53-65.418 85.785h-1.1l65.823-86.315z" class="cls-165"/><path d="M293.639 59.257l.695.531-65.013 85.254h-1.1l65.418-85.785z" class="cls-166"/><path d="M294.334 59.788l.699.53-64.613 84.724h-1.099l65.013-85.254z" class="cls-167"/><path d="M295.033 60.318l.694.53-64.207 84.194h-1.1l64.613-84.724z" class="cls-168"/><path d="M295.727 60.848l.694.532-63.797 83.662h-1.104l64.207-84.194z" class="cls-169"/><path d="M296.421 61.38l.695.53-63.392 83.132h-1.1l63.797-83.662z" class="cls-170"/><path d="M297.116 61.91l.699.53-62.991 82.602h-1.1l63.392-83.132z" class="cls-171"/><path d="M297.815 62.44l.695.531-62.587 82.071h-1.099l62.991-82.602z" class="cls-172"/><path d="M298.51 62.971l.694.53-62.181 81.541h-1.1l62.587-82.071z" class="cls-173"/><path d="M299.204 63.501l.695.53-61.777 81.011h-1.099l62.181-81.541z" class="cls-174"/><path d="M299.899 64.031l.699.531-61.376 80.48h-1.1l61.777-81.011z" class="cls-175"/><path d="M300.598 64.562l.694.53-60.97 79.95h-1.1l61.376-80.48z" class="cls-176"/><path d="M301.292 65.092l.695.532-60.561 79.418h-1.104l60.97-79.95z" class="cls-177"/><path d="M301.987 65.624l.695.53-60.156 78.888h-1.1l60.561-79.418z" class="cls-178"/><path d="M302.682 66.154l.694.53-59.751 78.358h-1.099l60.156-78.888z" class="cls-179"/><path d="M303.376 66.684l.699.531-59.35 77.827h-1.1l59.751-78.358z" class="cls-180"/><path d="M304.075 67.215l.694.531-58.944 77.296h-1.1l59.35-77.827z" class="cls-181"/><path d="M304.769 67.746l.695.53-58.539 76.766h-1.1l58.944-77.296z" class="cls-182"/><path d="M305.464 68.276l.699.531-58.139 76.235h-1.099l58.539-76.766z" class="cls-183"/><path d="M306.163 68.807l.695.53-57.73 75.705h-1.104l58.139-76.235z" class="cls-184"/><path d="M306.858 69.337l.695.53-57.325 75.175h-1.1l57.73-75.705z" class="cls-185"/><path d="M307.553 69.867l.694.531-56.919 74.644h-1.1l57.325-75.175z" class="cls-186"/><path d="M308.247 70.398l.694.53-56.514 74.114h-1.099l56.919-74.644z" class="cls-187"/><path d="M308.941 70.928l.7.532-56.115 73.582h-1.099l56.514-74.114z" class="cls-188"/><path d="M309.641 71.46l.694.53-55.708 73.052h-1.101l56.115-73.582z" class="cls-189"/><path d="M310.335 71.99l.695.53-55.304 72.522h-1.099l55.708-73.052z" class="cls-190"/><path d="M311.03 72.52l.695.531-54.9 71.991h-1.099L311.03 72.52z" class="cls-191"/><path d="M311.725 73.051l.699.53-54.499 71.461h-1.1l54.9-71.991z" class="cls-192"/><path d="M312.424 73.581l.695.53-54.09 70.931h-1.104l54.499-71.461z" class="cls-193"/><path d="M313.119 74.111l.694.531-53.684 70.4h-1.1l54.09-70.931z" class="cls-194"/><path d="M313.813 74.642l.694.53-53.278 69.87h-1.1l53.684-70.4z" class="cls-195"/><path d="M314.507 75.172l.7.531-52.879 69.339h-1.099l53.278-69.87z" class="cls-196"/><path d="M315.207 75.703l.694.531-52.473 68.808h-1.1l52.879-69.339z" class="cls-197"/><path d="M315.901 76.234l.694.53-52.067 68.278h-1.1l52.473-68.808z" class="cls-198"/><path d="M316.595 76.764l.695.531-51.658 67.747h-1.104l52.067-68.278z" class="cls-199"/><path d="M317.29 77.295l.699.531-51.257 67.216h-1.1l51.658-67.747z" class="cls-200"/><path d="M317.989 77.826l.695.53-50.852 66.686h-1.1l51.257-67.216z" class="cls-201"/><path d="M318.684 78.356l.694.531-50.447 66.155h-1.099l50.852-66.686z" class="cls-202"/><path d="M319.378 78.887l.695.53-50.042 65.625h-1.1l50.447-66.155z" class="cls-203"/><path d="M320.073 79.417l.694.53-49.636 65.095h-1.1l50.042-65.625z" class="cls-204"/><path d="M320.767 79.947l.699.531-49.236 64.564h-1.099l49.636-65.095z" class="cls-205"/><path d="M321.466 80.478l.695.53-48.831 64.034h-1.1l49.236-64.564z" class="cls-206"/><path d="M322.161 81.008l.352.27v.714l-48.084 63.05h-1.099l48.831-64.034z" class="cls-207"/><path d="M322.513 83.439l-46.984 61.603h-1.1l48.084-63.05v1.447z" class="cls-208"/><path d="M322.513 84.881l-45.88 60.161h-1.104l46.984-61.603v1.442z" class="cls-209"/><path d="M322.513 86.323l-44.78 58.719h-1.1l45.88-60.161v1.442z" class="cls-210"/><path d="M322.513 87.765l-43.681 57.277h-1.099l44.78-58.719v1.442z" class="cls-211"/><path d="M322.513 89.208l-42.581 55.834h-1.1l43.681-57.277v1.443z" class="cls-212"/><path d="M322.513 90.65l-41.481 54.392h-1.1l42.581-55.834v1.442z" class="cls-213"/><path d="M322.513 92.091l-40.382 52.951h-1.099l41.481-54.392v1.441z" class="cls-214"/><path d="M322.513 93.537l-39.283 51.505h-1.099l40.382-52.951v1.446z" class="cls-215"/><path d="M322.513 94.98l-38.178 50.062h-1.105l39.283-51.505v1.443z" class="cls-216"/><path d="M322.513 96.422l-37.078 48.62h-1.1l38.178-50.062v1.442z" class="cls-217"/><path d="M322.513 97.864l-35.978 47.178h-1.1l37.078-48.62v1.442z" class="cls-218"/><path d="M322.513 99.306l-34.879 45.736h-1.099l35.978-47.178v1.442z" class="cls-219"/><path d="M322.513 100.754l-33.78 44.288h-1.099l34.879-45.736v1.448z" class="cls-220"/><path d="M322.513 102.191l-32.68 42.851h-1.1l33.78-44.288v1.437z" class="cls-221"/><path d="M322.513 103.637l-31.58 41.405h-1.1l32.68-42.851v1.446z" class="cls-222"/><path d="M322.513 105.078l-30.481 39.964h-1.099l31.58-41.405v1.441z" class="cls-223"/><path d="M322.513 106.522l-29.375 38.52h-1.106l30.481-39.964v1.444z" class="cls-224"/><path d="M322.513 107.963l-28.276 37.079h-1.099l29.375-38.52v1.441z" class="cls-225"/><path d="M322.513 109.405l-27.177 35.637h-1.099l28.276-37.079v1.442z" class="cls-226"/><path d="M322.513 110.847l-26.077 34.195h-1.1l27.177-35.637v1.442z" class="cls-227"/><path d="M322.513 112.29l-24.977 32.752h-1.1l26.077-34.195v1.443z" class="cls-228"/><path d="M322.513 113.737l-23.878 31.305h-1.099l24.977-32.752v1.447z" class="cls-229"/><path d="M298.635 145.042l23.878-31.305v31.305h-23.878z" class="cls-229"/></g><g clip-path="url(#clip-path-3)"><path d="M186.016-1.714L184.941.394v-.806l.66-1.302h.415z" class="cls-11"/><path d="M186.431-1.714l-1.49 2.918v-.81l1.075-2.108h.415z" class="cls-12"/><path d="M186.841-1.714l-1.9 3.723v-.805l1.49-2.918h.41z" class="cls-13"/><path d="M187.255-1.714l-2.314 4.534v-.811l1.9-3.723h.414z" class="cls-14"/><path d="M187.665-1.714l-2.724 5.345V2.82l2.314-4.534h.41z" class="cls-15"/><path d="M188.08-1.714l-3.139 6.149v-.804l2.724-5.345h.415z" class="cls-16"/><path d="M188.495-1.714l-3.554 6.96v-.811l3.139-6.149h.415z" class="cls-17"/><path d="M188.905-1.714l-3.964 7.766v-.806l3.554-6.96h.41z" class="cls-18"/><path d="M189.32-1.714l-4.379 8.575v-.809l3.964-7.766h.415z" class="cls-19"/><path d="M189.73-1.714l-4.789 9.386v-.811l4.379-8.575h.41z" class="cls-20"/><path d="M190.145-1.714l-5.204 10.191v-.805l4.789-9.386h.415z" class="cls-21"/><path d="M190.559-1.714l-5.618 11.001v-.81l5.204-10.191h.414z" class="cls-22"/><path d="M190.969-1.714l-6.028 11.807v-.806l5.618-11.001h.41z" class="cls-23"/><path d="M191.384-1.714l-6.443 12.617v-.81l6.028-11.807h.415z" class="cls-24"/><path d="M191.794-1.714l-6.853 13.427v-.81l6.443-12.617h.41z" class="cls-25"/><path d="M192.208-1.714l-7.267 14.233v-.806l6.853-13.427h.414z" class="cls-26"/><path d="M192.623-1.714l-7.682 15.043v-.81l7.267-14.233h.415z" class="cls-27"/><path d="M193.034-1.714l-8.016 15.694-.077-.039v-.612l7.682-15.043h.411z" class="cls-28"/><path d="M193.448-1.714l-8.102 15.863-.328-.169 8.016-15.694h.414z" class="cls-29"/><path d="M193.858-1.714l-8.184 16.032-.328-.169 8.102-15.863h.41z" class="cls-30"/><path d="M194.273-1.714l-8.271 16.195-.328-.163 8.184-16.032h.415z" class="cls-31"/><path d="M194.683-1.714L186.33 14.65l-.328-.169 8.271-16.195h.41z" class="cls-32"/><path d="M195.098-1.714l-8.441 16.534-.327-.17 8.353-16.364h.415z" class="cls-33"/><path d="M195.513-1.714l-8.527 16.697-.329-.163 8.441-16.534h.415z" class="cls-34"/><path d="M195.922-1.714l-8.613 16.866-.323-.169 8.527-16.697h.409z" class="cls-35"/><path d="M196.337-1.714l-8.701 17.035-.327-.169 8.613-16.866h.415z" class="cls-36"/><path d="M196.747-1.714l-8.783 17.199-.328-.164 8.701-17.035h.41z" class="cls-37"/><path d="M197.162-1.714l-8.869 17.368-.329-.169 8.783-17.199h.415z" class="cls-38"/><path d="M197.572-1.714l-8.951 17.536-.328-.168 8.869-17.368h.41z" class="cls-39"/><path d="M197.986-1.714l-9.038 17.7-.327-.164 8.951-17.536h.414z" class="cls-40"/><path d="M198.401-1.714l-9.124 17.869-.329-.169 9.038-17.7h.415z" class="cls-41"/><path d="M198.811-1.714l-9.207 18.038-.327-.169 9.124-17.869h.41z" class="cls-42"/><path d="M199.226-1.714l-9.294 18.202-.328-.164 9.207-18.038h.415z" class="cls-43"/><path d="M199.641-1.714l-9.381 18.371-.328-.169 9.294-18.202h.415z" class="cls-44"/><path d="M200.05-1.714l-9.467 18.54-.323-.169 9.381-18.371h.409z" class="cls-45"/><path d="M200.466-1.714l-9.555 18.703-.328-.163 9.467-18.54h.416z" class="cls-46"/><path d="M200.875-1.714l-9.636 18.872-.328-.169 9.555-18.703h.409z" class="cls-47"/><path d="M201.29-1.714l-9.723 19.041-.328-.169 9.636-18.872h.415z" class="cls-48"/><path d="M201.7-1.714l-9.805 19.205-.328-.164 9.723-19.041h.41z" class="cls-49"/><path d="M202.115-1.714l-9.891 19.374-.329-.169L201.7-1.714h.415z" class="cls-50"/><path d="M202.529-1.714l-9.978 19.543-.327-.169 9.891-19.374h.414z" class="cls-51"/><path d="M202.94-1.714l-10.061 19.707-.328-.164 9.978-19.543h.411z" class="cls-52"/><path d="M203.354-1.714l-10.152 19.875-.323-.168L202.94-1.714h.414z" class="cls-53"/><path d="M203.765-1.714L193.531 18.33l-.329-.169 10.152-19.875h.411z" class="cls-54"/><path d="M204.179-1.714l-10.321 20.208-.327-.164 10.234-20.044h.414z" class="cls-55"/><path d="M204.594-1.714l-10.408 20.377-.328-.169 10.321-20.208h.415z" class="cls-56"/><path d="M205.004-1.714l-10.49 20.546-.328-.169 10.408-20.377h.41z" class="cls-57"/><path d="M205.419-1.714l-10.577 20.709-.328-.163 10.49-20.546h.415z" class="cls-58"/><path d="M205.829-1.714L195.17 19.165l-.328-.17 10.577-20.709h.41z" class="cls-59"/><path d="M206.243-1.714l-10.745 21.048-.328-.169 10.659-20.879h.414z" class="cls-60"/><path d="M206.658-1.714l-10.832 21.211-.328-.163 10.745-21.048h.415z" class="cls-61"/><path d="M207.068-1.714l-10.914 21.38-.328-.169 10.832-21.211h.41z" class="cls-62"/><path d="M207.483-1.714l-11.006 21.549-.323-.169 10.914-21.38h.415z" class="cls-63"/><path d="M207.893-1.714l-11.088 21.712-.328-.163 11.006-21.549h.41z" class="cls-64"/><path d="M208.308-1.714l-11.175 21.881-.328-.169 11.088-21.712h.415z" class="cls-65"/><path d="M208.722-1.714l-11.261 22.051-.328-.17 11.175-21.881h.414z" class="cls-66"/><path d="M209.132-1.714L197.789 20.5l-.328-.163 11.261-22.051h.41z" class="cls-67"/><path d="M209.547-1.714l-11.43 22.383-.328-.169 11.343-22.214h.415z" class="cls-68"/><path d="M209.957-1.714l-11.512 22.552-.328-.169 11.43-22.383h.41z" class="cls-69"/><path d="M210.371-1.714l-11.599 22.716-.327-.164 11.512-22.552h.414z" class="cls-70"/><path d="M210.786-1.714l-11.69 22.884-.324-.168 11.599-22.716h.415z" class="cls-71"/><path d="M211.196-1.714l-11.772 23.053-.328-.169 11.69-22.884h.41z" class="cls-72"/><path d="M211.611-1.714l-11.859 23.218-.328-.165 11.772-23.053h.415z" class="cls-73"/><path d="M212.021-1.714l-11.942 23.386-.327-.168 11.859-23.218h.41z" class="cls-74"/><path d="M212.436-1.714l-12.029 23.555-.328-.169 11.942-23.386h.415z" class="cls-75"/><path d="M212.846-1.714l-12.111 23.72-.328-.165 12.029-23.555h.41z" class="cls-76"/><path d="M213.261-1.714l-12.197 23.888-.329-.168 12.111-23.72h.415z" class="cls-77"/><path d="M213.675-1.714l-12.283 24.057-.328-.169 12.197-23.888h.414z" class="cls-78"/><path d="M214.085-1.714l-12.366 24.222-.327-.165 12.283-24.057h.41z" class="cls-79"/><path d="M214.476-1.714l.019.01-12.448 24.379-.328-.167 12.366-24.222h.391z" class="cls-80"/><path d="M214.495-1.704l.328.169-12.452 24.38-.324-.17 12.448-24.379z" class="cls-81"/><path d="M214.823-1.535l.328.164-12.452 24.38-.328-.164 12.452-24.38z" class="cls-82"/><path d="M215.151-1.371l.324.169-12.449 24.379-.327-.168 12.452-24.38z" class="cls-83"/><path d="M215.475-1.202l.327.169-12.448 24.379-.328-.169 12.449-24.379z" class="cls-84"/><path d="M215.802-1.033l.328.163-12.447 24.38-.329-.164 12.448-24.379z" class="cls-85"/><path d="M216.13-.87l.328.169-12.448 24.379-.327-.168L216.13-.87z" class="cls-86"/><path d="M216.458-.701l.328.17-12.448 24.378-.328-.169L216.458-.701z" class="cls-87"/><path d="M216.786-.531l.328.162-12.448 24.381-.328-.165L216.786-.531z" class="cls-88"/><path d="M217.114-.369l.329.17L204.99 24.18l-.324-.168L217.114-.369z" class="cls-89"/><path d="M217.443-.199l.327.169-12.453 24.379-.327-.169L217.443-.199z" class="cls-90"/><path d="M217.77-.03l.328.163-12.453 24.38-.328-.164L217.77-.03z" class="cls-91"/><path d="M218.098.133l.328.169-12.453 24.38-.328-.169L218.098.133z" class="cls-92"/><path d="M218.426.302l.323.169-12.447 24.379-.329-.168L218.426.302z" class="cls-93"/><path d="M218.749.471l.328.164-12.448 24.38-.327-.165L218.749.471z" class="cls-94"/><path d="M206.595 24.998L219.11.653l.328.168-12.515 24.346z" class="cls-95"/><path d="M219.405.804l.328.169-12.448 24.379-.328-.169L219.405.804z" class="cls-96"/><path d="M219.733.973l.327.164-12.447 24.38-.328-.165L219.733.973z" class="cls-97"/><path d="M220.06 1.137l.329.169-12.448 24.38-.328-.169 12.447-24.38z" class="cls-98"/><path d="M220.389 1.306l.327.168-12.452 24.38-.323-.168 12.448-24.38z" class="cls-99"/><path d="M220.716 1.474l.329.164-12.453 24.38-.328-.164 12.452-24.38z" class="cls-100"/><path d="M221.045 1.638l.322.169-12.447 24.38-.328-.169 12.453-24.38z" class="cls-101"/><path d="M208.885 26.169l12.519-24.344.328.169-12.519 24.343z" class="cls-102"/><path d="M221.696 1.976l.328.163-12.449 24.381-.327-.165 12.448-24.379z" class="cls-103"/><path d="M222.024 2.139l.328.17-12.448 24.38-.329-.169 12.449-24.381z" class="cls-104"/><path d="M209.86 26.666l12.536-24.334.328.169-12.535 24.334z" class="cls-105"/><path d="M222.68 2.473l.458.236-12.453 24.38-.453-.233L222.68 2.473z" class="cls-105"/><path d="M210.684 27.086L223.142 2.71l.455.233-12.458 24.376z" class="cls-104"/><path d="M211.195 27.347l12.343-24.434.456.23-12.343 24.435z" class="cls-103"/><path d="M211.484 27.49l12.68-24.258.453.237-12.68 24.258z" class="cls-106"/><path d="M224.503 3.409l.453.23-12.448 24.375-.458-.231 12.453-24.374z" class="cls-101"/><path d="M224.956 3.639l.458.232-12.452 24.38-.454-.237 12.448-24.375z" class="cls-100"/><path d="M225.414 3.871l.454.231-12.449 24.38-.457-.231 12.452-24.38z" class="cls-107"/><path d="M213.465 28.506L225.822 4.08l.456.23-12.357 24.428z" class="cls-108"/><path d="M226.326 4.334l.453.232-12.448 24.384-.458-.236 12.453-24.38z" class="cls-109"/><path d="M214.286 28.925l12.54-24.335.454.235-12.54 24.335z" class="cls-110"/><path d="M214.797 29.187l12.429-24.391.455.232-12.43 24.39z" class="cls-111"/><path d="M227.691 5.034l.458.231-12.453 24.379-.454-.23 12.449-24.38z" class="cls-112"/><path d="M215.596 29.592L228.25 5.319l.452.236-12.654 24.273z" class="cls-113"/><path d="M216.161 29.884l12.428-24.388.456.232-12.428 24.388z" class="cls-114"/><path d="M229.055 5.732l.459.233-12.448 24.378-.459-.231 12.448-24.38z" class="cls-115"/><path d="M217.06 30.34l12.458-24.373.454.231-12.459 24.374z" class="cls-116"/><path d="M217.586 30.611l12.313-24.45.457.23-12.314 24.45z" class="cls-117"/><path d="M217.97 30.808l12.457-24.38.456.233-12.456 24.38z" class="cls-118"/><path d="M218.379 31.016l12.553-24.33.455.235-12.553 24.33z" class="cls-119"/><path d="M218.896 31.279l12.43-24.39.456.232-12.431 24.39z" class="cls-120"/><path d="M219.38 31.526l12.371-24.42.456.232-12.371 24.419z" class="cls-121"/><path d="M232.248 7.359l.454.236-12.453 24.374-.454-.232 12.453-24.378z" class="cls-122"/><path d="M220.261 31.977l12.428-24.39.456.233-12.428 24.39z" class="cls-123"/><path d="M233.155 7.826l.458.231-12.447 24.38-.459-.231 12.448-24.38z" class="cls-124"/><path d="M221.161 32.435L233.619 8.06l.453.232-12.458 24.375z" class="cls-125"/><path d="M234.067 8.289l.429.222v.068l-12.424 24.326-.454-.237 12.449-24.379z" class="cls-126"/><path d="M234.496 9.703L222.53 33.137l-.458-.232 12.424-24.326v1.124z" class="cls-127"/><path d="M234.496 10.825l-11.512 22.543-.454-.231 11.966-23.434v1.122z" class="cls-128"/><path d="M234.496 11.95L223.47 33.541h-.144l-.342-.173 11.512-22.543v1.125z" class="cls-129"/><path d="M234.496 13.073l-10.452 20.468h-.574l11.026-21.591v1.123z" class="cls-130"/><path d="M234.496 14.197l-9.878 19.344h-.574l10.452-20.468v1.124z" class="cls-131"/><path d="M234.496 15.321l-9.304 18.22h-.574l9.878-19.344v1.124z" class="cls-132"/><path d="M234.496 16.449l-8.73 17.092h-.574l9.304-18.22v1.128z" class="cls-133"/><path d="M234.496 17.573l-8.156 15.968h-.574l8.73-17.092v1.124z" class="cls-134"/><path d="M234.496 18.697l-7.582 14.844h-.574l8.156-15.968v1.124z" class="cls-135"/><path d="M234.496 19.82l-7.008 13.721h-.574l7.582-14.844v1.123z" class="cls-136"/><path d="M234.496 20.949l-6.434 12.592h-.574l7.008-13.721v1.129z" class="cls-137"/><path d="M234.496 22.073l-5.855 11.468h-.579l6.434-12.592v1.124z" class="cls-138"/><path d="M234.496 23.196l-5.286 10.345h-.569l5.855-11.468v1.123z" class="cls-139"/><path d="M234.496 24.32l-4.707 9.221h-.579l5.286-10.345v1.124z" class="cls-140"/><path d="M234.496 25.443l-4.134 8.098h-.573l4.707-9.221v1.123z" class="cls-141"/><path d="M234.496 26.567l-3.559 6.974h-.575l4.134-8.098v1.124z" class="cls-143"/><path d="M234.496 27.696l-2.985 5.845h-.574l3.559-6.974v1.129z" class="cls-144"/><path d="M234.496 28.819l-2.411 4.722h-.574l2.985-5.845v1.123z" class="cls-145"/><path d="M234.496 29.944l-1.838 3.597h-.573l2.411-4.722v1.125z" class="cls-146"/><path d="M234.496 31.068l-1.264 2.473h-.574l1.838-3.597v1.124z" class="cls-147"/><path d="M234.496 32.191l-.69 1.35h-.574l1.264-2.473v1.123z" class="cls-148"/><path d="M234.496 33.32l-.116.221h-.574l.69-1.35v1.129z" class="cls-149"/><path d="M234.38 33.541l.116-.221v.221h-.116z" class="cls-150"/></g><g clip-path="url(#clip-path-4)"><path d="M212.99 20.631l-.014.038v-.038h.014z" class="cls-104"/><path d="M213.405 20.631l-.429.843v-.805l.014-.038h.415z" class="cls-105"/><path d="M213.98 20.631l-1.004 1.972v-1.129l.429-.843h.575z" class="cls-105"/><path d="M214.553 20.631l-1.577 3.097v-1.125l1.004-1.972h.573z" class="cls-104"/><path d="M215.127 20.631l-2.151 4.219v-1.122l1.577-3.097h.574z" class="cls-103"/><path d="M215.701 20.631l-2.725 5.344V24.85l2.151-4.219h.574z" class="cls-106"/><path d="M216.275 20.631l-3.299 6.467v-1.123l2.725-5.344h.574z" class="cls-101"/><path d="M216.848 20.631l-3.872 7.591v-1.124l3.299-6.467h.573z" class="cls-100"/><path d="M217.422 20.631l-4.446 8.715v-1.124l3.872-7.591h.574z" class="cls-107"/><path d="M217.997 20.631l-5.021 9.842v-1.127l4.446-8.715h.575z" class="cls-108"/><path d="M218.571 20.631l-5.595 10.967v-1.125l5.021-9.842h.574z" class="cls-109"/><path d="M219.15 20.631l-6.174 12.091v-1.124l5.595-10.967h.579z" class="cls-110"/><path d="M219.723 20.631l-6.747 13.214v-1.123l6.174-12.091h.573z" class="cls-111"/><path d="M220.297 20.631l-7.321 14.338v-1.124l6.747-13.214h.574z" class="cls-112"/><path d="M220.871 20.631l-7.895 15.467v-1.129l7.321-14.338h.574z" class="cls-113"/><path d="M221.445 20.631l-8.469 16.59v-1.123l7.895-15.467h.574z" class="cls-114"/><path d="M222.019 20.631l-9.043 17.714v-1.124l8.469-16.59h.574z" class="cls-115"/><path d="M222.593 20.631l-9.617 18.837v-1.123l9.043-17.714h.574z" class="cls-116"/><path d="M223.167 20.631l-10.191 19.961v-1.124l9.617-18.837h.574z" class="cls-117"/><path d="M223.74 20.631l-10.764 21.086v-1.125l10.191-19.961h.573z" class="cls-118"/><path d="M224.314 20.631L212.976 42.84v-1.123l10.764-21.086h.574z" class="cls-119"/><path d="M224.889 20.631l-11.913 23.337V42.84l11.338-22.209h.575z" class="cls-120"/><path d="M225.462 20.631l-12.486 24.461v-1.124l11.913-23.337h.573z" class="cls-121"/><path d="M226.036 20.631l-13.06 25.585v-1.124l12.486-24.461h.574z" class="cls-122"/><path d="M226.615 20.631L212.976 47.34v-1.124l13.06-25.585h.579z" class="cls-123"/><path d="M227.189 20.631l-14.213 27.833V47.34l13.639-26.709h.574z" class="cls-124"/><path d="M227.763 20.631l-14.787 28.961v-1.128l14.213-27.833h.574z" class="cls-125"/><path d="M228.336 20.631l-15.36 30.085v-1.124l14.787-28.961h.573z" class="cls-126"/><path d="M228.911 20.631L212.976 51.84v-1.124l15.36-30.085h.575z" class="cls-127"/><path d="M229.485 20.631l-16.181 31.685-.328-.167v-.309l15.935-31.209h.574z" class="cls-128"/><path d="M230.058 20.631l-16.301 31.917-.453-.232 16.181-31.685h.573z" class="cls-129"/><path d="M230.632 20.631l-16.417 32.154-.458-.237 16.301-31.917h.574z" class="cls-130"/><path d="M231.206 20.631l-16.538 32.385-.453-.231 16.417-32.154h.574z" class="cls-131"/><path d="M231.781 20.631l-16.654 32.616-.459-.231 16.538-32.385h.575z" class="cls-132"/><path d="M232.355 20.631L215.58 53.48l-.453-.233 16.654-32.616h.574z" class="cls-133"/><path d="M232.929 20.631l-16.89 33.079-.459-.23 16.775-32.849h.574z" class="cls-134"/><path d="M233.503 20.631l-17.011 33.316-.453-.237 16.89-33.079h.574z" class="cls-135"/><path d="M234.081 20.631L216.95 54.179l-.458-.232 17.011-33.316h.578z" class="cls-136"/><path d="M234.655 20.631l-17.252 33.78-.453-.232 17.131-33.548h.574z" class="cls-137"/><path d="M235.229 20.631l-17.372 34.015-.454-.235 17.252-33.78h.574z" class="cls-138"/><path d="M235.803 20.631l-17.488 34.247-.458-.232 17.372-34.015h.574z" class="cls-139"/><path d="M236.377 20.631L218.768 55.11l-.453-.232 17.488-34.247h.574z" class="cls-140"/><path d="M236.951 20.631l-17.724 34.71-.459-.231 17.609-34.479h.574z" class="cls-141"/><path d="M237.524 20.631L219.68 55.572l-.453-.231 17.724-34.71h.573z" class="cls-143"/><path d="M238.098 20.631l-17.96 35.174-.458-.233 17.844-34.941h.574z" class="cls-144"/><path d="M238.673 20.631L220.592 56.04l-.454-.235 17.96-35.174h.575z" class="cls-145"/><path d="M239.246 20.631L221.05 56.272l-.458-.232 18.081-35.409h.573z" class="cls-146"/><path d="M239.82 20.631l-18.317 35.873-.453-.232 18.196-35.641h.574z" class="cls-147"/><path d="M240.394 20.631L221.956 56.74l-.453-.236 18.317-35.873h.574z" class="cls-148"/><path d="M240.968 20.631l-18.554 36.34-.458-.231 18.438-36.109h.574z" class="cls-149"/><path d="M241.542 20.631l-18.674 36.571-.454-.231 18.554-36.34h.574z" class="cls-150"/><path d="M242.12 20.631l-18.794 36.802-.458-.231 18.674-36.571h.578z" class="cls-151"/><path d="M242.694 20.631L223.78 57.666l-.454-.233 18.794-36.802h.574z" class="cls-152"/><path d="M243.268 20.631l-19.03 37.266-.458-.231 18.914-37.035h.574z" class="cls-153"/><path d="M243.842 20.631l-19.151 37.503-.453-.237 19.03-37.266h.574z" class="cls-154"/><path d="M244.416 20.631L225.15 58.364l-.459-.23 19.151-37.503h.574z" class="cls-155"/><path d="M244.99 20.631l-19.388 37.966-.452-.233 19.266-37.733h.574z" class="cls-156"/><path d="M245.564 20.631l-19.508 38.202-.454-.236 19.388-37.966h.574z" class="cls-157"/><path d="M246.138 20.631l-19.6 38.385h-.12l-.362-.183 19.508-38.202h.574z" class="cls-158"/><path d="M246.712 20.631l-19.6 38.385h-.574l19.6-38.385h.574z" class="cls-159"/><path d="M247.286 20.631l-19.6 38.385h-.574l19.6-38.385h.574z" class="cls-160"/><path d="M247.859 20.631l-19.6 38.385h-.573l19.6-38.385h.573z" class="cls-161"/><path d="M248.433 20.631l-19.6 38.385h-.574l19.6-38.385h.574z" class="cls-162"/><path d="M249.013 20.631l-19.605 38.385h-.575l19.6-38.385h.58z" class="cls-163"/><path d="M249.581 20.631l-19.6 38.385h-.573l19.605-38.385h.568z" class="cls-164"/><path d="M250.161 20.631L230.56 59.016h-.579l19.6-38.385h.58z" class="cls-165"/><path d="M250.734 20.631l-19.605 38.385h-.569l19.601-38.385h.573z" class="cls-166"/><path d="M251.308 20.631l-19.6 38.385h-.579l19.605-38.385h.574z" class="cls-167"/><path d="M251.882 20.631l-19.6 38.385h-.574l19.6-38.385h.574z" class="cls-168"/><path d="M252.456 20.631l-19.601 38.385h-.573l19.6-38.385h.574z" class="cls-169"/><path d="M253.03 20.631l-19.6 38.385h-.575l19.601-38.385h.574z" class="cls-170"/><path d="M253.604 20.631l-19.6 38.385h-.574l19.6-38.385h.574z" class="cls-171"/><path d="M254.178 20.631l-19.6 38.385h-.574l19.6-38.385h.574z" class="cls-172"/><path d="M254.752 20.631l-19.601 38.385h-.573l19.6-38.385h.574z" class="cls-173"/><path d="M255.326 20.631l-19.6 38.385h-.575l19.601-38.385h.574z" class="cls-174"/><path d="M255.9 20.631l-19.6 38.385h-.574l19.6-38.385h.574z" class="cls-175"/><path d="M256.473 20.631l-19.599 38.385h-.574l19.6-38.385h.573z" class="cls-176"/><path d="M257.047 20.631l-19.599 38.385h-.574l19.599-38.385h.574z" class="cls-177"/><path d="M257.626 20.631l-19.604 38.385h-.574l19.599-38.385h.579z" class="cls-178"/><path d="M258.2 20.631l-19.606 38.385h-.572l19.604-38.385h.574z" class="cls-179"/><path d="M258.774 20.631l-19.6 38.385h-.58L258.2 20.631h.574z" class="cls-180"/><path d="M259.348 20.631l-19.6 38.385h-.574l19.6-38.385h.574z" class="cls-181"/><path d="M259.922 20.631l-19.6 38.385h-.574l19.6-38.385h.574z" class="cls-182"/><path d="M260.496 20.631l-19.6 38.385h-.574l19.6-38.385h.574z" class="cls-183"/><path d="M261.07 20.631l-19.601 38.385h-.573l19.6-38.385h.574z" class="cls-184"/><path d="M261.643 20.631l-19.6 38.385h-.574l19.601-38.385h.573z" class="cls-185"/><path d="M262.217 20.631l-19.6 38.385h-.574l19.6-38.385h.574z" class="cls-186"/><path d="M262.791 20.631l-19.6 38.385h-.574l19.6-38.385h.574z" class="cls-187"/><path d="M263.366 20.631l-19.601 38.385h-.574l19.6-38.385h.575z" class="cls-188"/><path d="M263.94 20.631l-19.601 38.385h-.574l19.601-38.385h.574z" class="cls-189"/><path d="M264.514 20.631l-19.601 38.385h-.574l19.601-38.385h.574z" class="cls-190"/><path d="M265.092 20.631l-19.605 38.385h-.574l19.601-38.385h.578z" class="cls-191"/><path d="M265.661 20.631l-19.6 38.385h-.574l19.605-38.385h.569z" class="cls-192"/><path d="M266.24 20.631l-19.601 38.385h-.578l19.6-38.385h.579z" class="cls-193"/><path d="M266.814 20.631l-19.601 38.385h-.574l19.601-38.385h.574z" class="cls-194"/><path d="M267.388 20.631l-19.601 38.385h-.574l19.601-38.385h.574z" class="cls-195"/><path d="M267.962 20.631l-19.601 38.385h-.574l19.601-38.385h.574z" class="cls-196"/><path d="M268.535 20.631l-19.6 38.385h-.574l19.601-38.385h.573z" class="cls-197"/><path d="M269.109 20.631l-19.6 38.385h-.574l19.6-38.385h.574z" class="cls-198"/><path d="M269.683 20.631l-19.6 38.385h-.574l19.6-38.385h.574z" class="cls-199"/><path d="M270.257 20.631l-19.6 38.385h-.574l19.6-38.385h.574z" class="cls-200"/><path d="M270.831 20.631l-19.6 38.385h-.574l19.6-38.385h.574z" class="cls-201"/><path d="M271.405 20.631l-19.6 38.385h-.574l19.6-38.385h.574z" class="cls-202"/><path d="M271.979 20.631l-19.601 38.385h-.573l19.6-38.385h.574z" class="cls-203"/><path d="M272.558 20.631l-19.606 38.385h-.574l19.601-38.385h.579z" class="cls-204"/><path d="M273.127 20.631l-19.601 38.385h-.574l19.606-38.385h.569z" class="cls-205"/><path d="M273.705 20.631l-19.599 38.385h-.58l19.601-38.385h.578z" class="cls-206"/><path d="M273.739 20.631l.429.216-19.493 38.169h-.569l19.599-38.385h.034z" class="cls-207"/><path d="M274.168 20.847l.454.237-19.369 37.932h-.578l19.493-38.169z" class="cls-208"/><path d="M274.622 21.084l.454.232-19.249 37.7h-.574l19.369-37.932z" class="cls-209"/><path d="M275.076 21.316l.457.23-19.132 37.47h-.574l19.249-37.7z" class="cls-210"/><path d="M275.533 21.546l.454.237-19.012 37.233h-.574l19.132-37.47z" class="cls-211"/><path d="M275.987 21.783l.458.232-18.896 37.001h-.574l19.012-37.233z" class="cls-212"/><path d="M276.445 22.015l.453.231-18.775 36.77h-.574l18.896-37.001z" class="cls-213"/><path d="M276.898 22.246l.458.231-18.659 36.539h-.574l18.775-36.77z" class="cls-214"/><path d="M277.356 22.477l.454.233-18.539 36.306h-.574l18.659-36.539z" class="cls-215"/><path d="M277.81 22.71l.458.231-18.423 36.075h-.574L277.81 22.71z" class="cls-216"/><path d="M278.268 22.941l.453.236-18.302 35.839h-.574l18.423-36.075z" class="cls-217"/><path d="M278.721 23.177l.454.232-18.182 35.607h-.574l18.302-35.839z" class="cls-218"/><path d="M279.175 23.409l.458.231-18.062 35.376h-.578l18.182-35.607z" class="cls-219"/><path d="M279.633 23.64l.453.236-17.941 35.14h-.574l18.062-35.376z" class="cls-220"/><path d="M280.086 23.876l.121.058v.834l-17.488 34.248h-.574l17.941-35.14z" class="cls-221"/><path d="M280.207 25.892l-16.914 33.124h-.574l17.488-34.248v1.124z" class="cls-222"/><path d="M280.207 27.021l-16.34 31.995h-.574l16.914-33.124v1.129z" class="cls-223"/><path d="M280.207 28.144l-15.766 30.872h-.574l16.34-31.995v1.123z" class="cls-224"/><path d="M280.207 29.269l-15.192 29.747h-.574l15.766-30.872v1.125z" class="cls-225"/><path d="M280.207 30.393l-14.618 28.623h-.574l15.192-29.747v1.124z" class="cls-226"/><path d="M280.207 31.522l-14.045 27.494h-.573l14.618-28.623v1.129z" class="cls-227"/><path d="M280.207 32.644l-13.471 26.372h-.574l14.045-27.494v1.122z" class="cls-228"/><path d="M280.207 33.768L267.31 59.016h-.574l13.471-26.372v1.124z" class="cls-229"/><path d="M267.31 59.016l12.897-25.248v25.248H267.31z" class="cls-229"/></g><g clip-path="url(#clip-path-5)"><path d="M178.073 7.373l-14.054 27.524V7.373h14.054zm.415 0l-14.469 28.334v-.805l14.054-27.529h.415z" class="cls-4"/><path d="M178.898 7.373l-14.879 29.144v-.81l14.469-28.334h.41z" class="cls-5"/><path d="M179.312 7.373l-15.293 29.95v-.806l14.879-29.144h.414z" class="cls-6"/><path d="M179.727 7.373l-15.708 30.759v-.809l15.293-29.95h.415z" class="cls-7"/><path d="M180.137 7.373l-16.118 31.57v-.811l15.708-30.759h.41z" class="cls-8"/><path d="M180.552 7.373l-16.533 32.375v-.805l16.118-31.57h.415z" class="cls-9"/><path d="M180.962 7.373l-16.576 32.462h-.367v-.087l16.533-32.375h.41z" class="cls-10"/><path d="M181.376 7.373L164.8 39.835h-.414l16.576-32.462h.414z" class="cls-11"/><path d="M181.786 7.373L165.21 39.835h-.41l16.576-32.462h.41z" class="cls-12"/><path d="M182.201 7.373l-16.576 32.462h-.415l16.576-32.462h.415z" class="cls-13"/><path d="M182.611 7.373l-16.576 32.462h-.41l16.576-32.462h.41z" class="cls-14"/><path d="M183.026 7.373L166.45 39.835h-.415l16.576-32.462h.415z" class="cls-15"/><path d="M183.441 7.373L166.86 39.835h-.41l16.576-32.462h.415z" class="cls-16"/><path d="M183.851 7.373l-16.577 32.462h-.414l16.581-32.462h.41z" class="cls-17"/><path d="M184.266 7.373l-16.577 32.462h-.415l16.577-32.462h.415z" class="cls-18"/><path d="M184.675 7.373l-16.576 32.462h-.41l16.577-32.462h.409z" class="cls-19"/><path d="M185.09 7.373l-16.576 32.462h-.415l16.576-32.462h.415z" class="cls-20"/><path d="M185.505 7.373l-16.581 32.462h-.41L185.09 7.373h.415z" class="cls-21"/><path d="M185.915 7.373l-16.576 32.462h-.415l16.581-32.462h.41z" class="cls-22"/><path d="M186.33 7.373l-16.577 32.462h-.414l16.576-32.462h.415z" class="cls-23"/><path d="M186.44 7.971l-16.276 31.864h-.411L186.33 7.373h.11v.598z" class="cls-24"/><path d="M186.44 8.776l-15.862 31.059h-.414L186.44 7.971v.805z" class="cls-25"/><path d="M186.44 9.581l-15.452 30.254h-.41L186.44 8.776v.805z" class="cls-26"/><path d="M186.44 10.392l-15.037 29.443h-.415L186.44 9.581v.811z" class="cls-27"/><path d="M186.44 11.201l-14.623 28.634h-.414l15.037-29.443v.809z" class="cls-28"/><path d="M186.44 12.007l-14.213 27.828h-.41l14.623-28.634v.806z" class="cls-29"/><path d="M186.44 12.818l-13.798 27.017h-.415l14.213-27.828v.811z" class="cls-30"/><path d="M186.44 13.624l-13.388 26.211h-.41l13.798-27.017v.806z" class="cls-31"/><path d="M186.44 14.433l-12.973 25.402h-.415l13.388-26.211v.809z" class="cls-32"/><path d="M186.44 15.244l-12.563 24.591h-.41l12.973-25.402v.811z" class="cls-33"/><path d="M186.44 16.049l-12.148 23.786h-.415l12.563-24.591v.805z" class="cls-34"/><path d="M186.44 16.859l-11.738 22.976h-.41l12.148-23.786v.81z" class="cls-35"/><path d="M186.44 17.664l-11.324 22.171h-.414l11.738-22.976v.805z" class="cls-36"/><path d="M186.44 18.474l-10.908 21.361h-.416l11.324-22.171v.81z" class="cls-37"/><path d="M186.44 19.285l-10.499 20.55h-.409l10.908-21.361v.811z" class="cls-38"/><path d="M186.44 20.091l-10.084 19.744h-.415l10.499-20.55v.806z" class="cls-39"/><path d="M186.44 20.901l-9.674 18.934h-.41l10.084-19.744v.81z" class="cls-40"/><path d="M186.44 21.707l-9.259 18.128h-.415l9.674-18.934v.806z" class="cls-41"/><path d="M186.44 22.516l-8.845 17.319h-.414l9.259-18.128v.809z" class="cls-42"/><path d="M186.44 23.327l-8.435 16.508h-.41l8.845-17.319v.811z" class="cls-43"/><path d="M186.44 24.132l-8.02 15.703h-.415l8.435-16.508v.805z" class="cls-44"/><path d="M186.44 24.942l-7.61 14.893h-.41l8.02-15.703v.81z" class="cls-45"/><path d="M186.44 25.748l-7.195 14.087h-.415l7.61-14.893v.806z" class="cls-46"/><path d="M186.44 26.559l-6.785 13.276h-.41l7.195-14.087v.811z" class="cls-47"/><path d="M186.44 27.368l-6.371 12.467h-.414l6.785-13.276v.809z" class="cls-48"/><path d="M186.44 28.174l-5.956 11.661h-.415l6.371-12.467v.806z" class="cls-49"/><path d="M186.44 28.98l-5.546 10.855h-.41l5.956-11.661v.806z" class="cls-50"/><path d="M186.44 29.789l-5.131 10.046h-.415l5.546-10.855v.809z" class="cls-51"/><path d="M186.44 30.6l-4.716 9.235h-.415l5.131-10.046v.811z" class="cls-52"/><path d="M186.44 31.409l-4.306 8.426h-.41l4.716-9.235v.809z" class="cls-53"/><path d="M186.44 32.215l-3.892 7.62h-.414l4.306-8.426v.806z" class="cls-54"/><path d="M186.44 33.026l-3.481 6.809h-.411l3.892-7.62v.811z" class="cls-55"/><path d="M186.44 33.831l-3.067 6.004h-.414l3.481-6.809v.805z" class="cls-56"/><path d="M186.44 34.641l-2.657 5.194h-.41l3.067-6.004v.81z" class="cls-57"/><path d="M186.44 35.451l-2.243 4.384h-.414l2.657-5.194v.81z" class="cls-58"/><path d="M186.44 36.257l-1.832 3.578h-.411l2.243-4.384v.806z" class="cls-59"/><path d="M186.44 37.062l-1.418 2.773h-.414l1.832-3.578v.805z" class="cls-60"/><path d="M186.44 37.872l-1.003 1.963h-.415l1.418-2.773v.81z" class="cls-61"/><path d="M186.44 38.682l-.593 1.153h-.41l1.003-1.963v.81z" class="cls-62"/><path d="M186.44 39.487l-.178.348h-.415l.593-1.153v.805z" class="cls-63"/><path d="M186.262 39.835l.178-.348v.348h-.178z" class="cls-64"/></g><g clip-path="url(#clip-path-6)"><path d="M89.284 79.358l-11.585 33.896V79.358h11.585z" class="cls-4"/><path d="M89.853 79.358l-12.154 35.564v-1.668l11.585-33.896h.569z" class="cls-4"/><path d="M90.422 79.358l-12.723 37.229v-1.665l12.154-35.564h.569z" class="cls-5"/><path d="M90.991 79.358L77.699 118.25v-1.663l12.723-37.229h.569z" class="cls-6"/><path d="M91.56 79.358l-13.861 40.561v-1.669l13.292-38.892h.569z" class="cls-7"/><path d="M92.129 79.358l-14.43 42.231v-1.67L91.56 79.358h.569z" class="cls-8"/><path d="M92.698 79.358l-14.999 43.899v-1.668l14.43-42.231h.569z" class="cls-9"/><path d="M93.267 79.358l-15.568 45.563v-1.664l14.999-43.899h.569z" class="cls-10"/><path d="M93.841 79.358l-16.142 47.227v-1.664l15.568-45.563h.574z" class="cls-11"/><path d="M94.41 79.358l-16.711 48.896v-1.669l16.142-47.227h.569z" class="cls-12"/><path d="M94.979 79.358l-17.28 50.564v-1.668L94.41 79.358h.569z" class="cls-13"/><path d="M95.549 79.358l-17.85 52.228v-1.664l17.28-50.564h.57z" class="cls-14"/><path d="M96.118 79.358l-18.173 53.178-.246-.083v-.867l17.85-52.228h.569z" class="cls-15"/><path d="M96.687 79.358l-18.231 53.351-.511-.173 18.173-53.178h.569z" class="cls-16"/><path d="M97.256 79.358l-18.293 53.525-.507-.174 18.231-53.351h.569z" class="cls-17"/><path d="M97.825 79.358l-18.351 53.703-.511-.178 18.293-53.525h.569z" class="cls-18"/><path d="M98.394 79.358l-18.409 53.876-.511-.173 18.351-53.703h.569z" class="cls-19"/><path d="M98.963 79.358l-18.471 54.051-.507-.175 18.409-53.876h.569z" class="cls-20"/><path d="M99.533 79.358l-18.53 54.224-.511-.173 18.471-54.051h.57z" class="cls-21"/><path d="M100.106 79.358l-18.592 54.398-.511-.174 18.53-54.224h.573z" class="cls-22"/><path d="M100.676 79.358l-18.65 54.576-.512-.178 18.592-54.398h.57z" class="cls-23"/><path d="M101.245 79.358l-18.708 54.75-.511-.174 18.65-54.576h.569z" class="cls-24"/><path d="M101.813 79.358l-18.77 54.923-.506-.173 18.708-54.75h.568z" class="cls-25"/><path d="M102.382 79.358l-18.828 55.097-.511-.174 18.77-54.923h.569z" class="cls-26"/><path d="M102.952 79.358l-18.887 55.27-.511-.173 18.828-55.097h.57z" class="cls-27"/><path d="M103.521 79.358l-18.949 55.444-.507-.174 18.887-55.27h.569z" class="cls-28"/><path d="M104.09 79.358l-19.007 55.618-.511-.174 18.949-55.444h.569z" class="cls-29"/><path d="M104.664 79.358l-19.07 55.792-.511-.174 19.007-55.618h.574z" class="cls-30"/><path d="M105.233 79.358l-19.128 55.965-.511-.173 19.07-55.792h.569z" class="cls-31"/><path d="M105.802 79.358l-19.186 56.143-.511-.178 19.128-55.965h.569z" class="cls-32"/><path d="M105.865 79.358l.453.155-19.195 56.162-.507-.174 19.186-56.143h.063z" class="cls-33"/><path d="M106.318 79.513l.506.174-19.156 56.061h-.328l-.217-.073 19.195-56.162z" class="cls-34"/><path d="M106.824 79.687l.512.178-19.099 55.883h-.569l19.156-56.061z" class="cls-35"/><path d="M107.336 79.865l.511.175-19.041 55.708h-.569l19.099-55.883z" class="cls-36"/><path d="M107.847 80.04l.511.172-18.983 55.536h-.569l19.041-55.708z" class="cls-37"/><path d="M108.358 80.212l.511.173-18.925 55.363h-.569l18.983-55.536z" class="cls-38"/><path d="M108.869 80.385l.507.174-18.857 55.189h-.575l18.925-55.363z" class="cls-39"/><path d="M109.376 80.559l.511.18-18.799 55.009h-.569l18.857-55.189z" class="cls-40"/><path d="M109.887 80.739l.511.173-18.742 54.836h-.568l18.799-55.009z" class="cls-41"/><path d="M110.398 80.912l.507.174-18.679 54.662h-.57l18.742-54.836z" class="cls-42"/><path d="M110.905 81.086l.511.173-18.621 54.489h-.569l18.679-54.662z" class="cls-43"/><path d="M111.416 81.259l.511.174-18.563 54.315h-.569l18.621-54.489z" class="cls-44"/><path d="M111.927 81.433l.511.174-18.505 54.141h-.569l18.563-54.315z" class="cls-45"/><path d="M112.438 81.607l.512.172-18.448 53.969h-.569l18.505-54.141z" class="cls-46"/><path d="M112.95 81.779l.506.174-18.38 53.795h-.574l18.448-53.969z" class="cls-47"/><path d="M113.456 81.953l.511.174-18.322 53.621h-.569l18.38-53.795z" class="cls-48"/><path d="M113.967 82.127l.511.179-18.264 53.442h-.569l18.322-53.621z" class="cls-49"/><path d="M114.478 82.306l.507.173-18.202 53.269h-.569l18.264-53.442z" class="cls-50"/><path d="M114.985 82.479l.511.175-18.144 53.094h-.569l18.202-53.269z" class="cls-51"/><path d="M115.496 82.654l.512.173-18.086 52.921h-.57l18.144-53.094z" class="cls-52"/><path d="M116.008 82.827l.511.174-18.028 52.747h-.569l18.086-52.921z" class="cls-53"/><path d="M116.519 83.001l.511.178-17.97 52.569h-.569l18.028-52.747z" class="cls-54"/><path d="M117.03 83.179l.506.174-17.907 52.395h-.569l17.97-52.569z" class="cls-55"/><path d="M117.536 83.353l.511.173-17.849 52.222h-.569l17.907-52.395z" class="cls-56"/><path d="M118.047 83.526l.511.174-17.791 52.048h-.569l17.849-52.222z" class="cls-57"/><path d="M118.558 83.7l.507.173-17.724 51.875h-.574L118.558 83.7z" class="cls-58"/><path d="M119.065 83.873l.511.174-17.666 51.701h-.569l17.724-51.875z" class="cls-59"/><path d="M119.576 84.047l.511.174-17.608 51.527h-.569l17.666-51.701z" class="cls-60"/><path d="M120.087 84.221l.511.174-17.549 51.353h-.57l17.608-51.527z" class="cls-61"/><path d="M120.598 84.395l.512.172-17.493 51.181h-.568l17.549-51.353z" class="cls-62"/><path d="M121.11 84.567l.506.179-17.43 51.002h-.569l17.493-51.181z" class="cls-63"/><path d="M121.616 84.746l.512.174-17.373 50.828h-.569l17.43-51.002z" class="cls-64"/><path d="M122.128 84.92l.511.173-17.314 50.655h-.57l17.373-50.828z" class="cls-65"/><path d="M122.639 85.093l.506.175-17.251 50.48h-.569l17.314-50.655z" class="cls-66"/><path d="M123.145 85.268l.511.173-17.188 50.307h-.574l17.251-50.48z" class="cls-67"/><path d="M123.656 85.441l.511.174-17.13 50.133h-.569l17.188-50.307z" class="cls-68"/><path d="M124.167 85.615l.512.178-17.073 49.955h-.569l17.13-50.133z" class="cls-69"/><path d="M124.679 85.793l.511.173-17.015 49.782h-.569l17.073-49.955z" class="cls-70"/><path d="M125.19 85.966l.507.174-16.953 49.608h-.569l17.015-49.782z" class="cls-71"/><path d="M125.697 86.14l.511.174-16.895 49.434h-.569l16.953-49.608z" class="cls-72"/><path d="M126.208 86.314l.511.173-16.837 49.261h-.569l16.895-49.434z" class="cls-73"/><path d="M126.719 86.487l.506.174-16.774 49.087h-.569l16.837-49.261z" class="cls-74"/><path d="M127.225 86.661l.512.174-16.716 48.913h-.57l16.774-49.087z" class="cls-75"/><path d="M127.737 86.835l.511.173-16.658 48.74h-.569l16.716-48.913z" class="cls-76"/><path d="M128.248 87.008l.511.179-16.601 48.561h-.568l16.658-48.74z" class="cls-77"/><path d="M128.759 87.187l.511.173-16.538 48.388h-.574l16.601-48.561z" class="cls-78"/><path d="M129.27 87.36l.506.174-16.475 48.214h-.569L129.27 87.36z" class="cls-79"/><path d="M129.776 87.534l.358.12v.506l-16.263 47.588h-.57l16.475-48.214z" class="cls-80"/><path d="M130.134 89.829l-15.694 45.919h-.569l16.263-47.588v1.669z" class="cls-81"/><path d="M130.134 91.493l-15.125 44.255h-.569l15.694-45.919v1.664z" class="cls-82"/><path d="M130.134 93.161l-14.556 42.587h-.569l15.125-44.255v1.668z" class="cls-83"/><path d="M130.134 94.831l-13.987 40.917h-.569l14.556-42.587v1.67z" class="cls-84"/><path d="M130.134 96.494l-13.418 39.254h-.569l13.987-40.917v1.663z" class="cls-85"/><path d="M130.134 98.163l-12.849 37.585h-.569l13.418-39.254v1.669z" class="cls-86"/><path d="M130.134 99.827l-12.274 35.921h-.575l12.849-37.585v1.664z" class="cls-87"/><path d="M130.134 101.496l-11.706 34.252h-.568l12.274-35.921v1.669z" class="cls-88"/><path d="M130.134 103.164l-11.137 32.584h-.569l11.706-34.252v1.668z" class="cls-89"/><path d="M130.134 104.829l-10.567 30.919h-.57l11.137-32.584v1.665z" class="cls-90"/><path d="M130.134 106.498l-9.998 29.25h-.569l10.567-30.919v1.669z" class="cls-91"/><path d="M130.134 108.161l-9.429 27.587h-.569l9.998-29.25v1.663z" class="cls-92"/><path d="M130.134 109.83l-8.86 25.918h-.569l9.429-27.587v1.669z" class="cls-93"/><path d="M130.134 111.499l-8.291 24.249h-.569l8.86-25.918v1.669z" class="cls-94"/><path d="M130.134 113.163l-7.722 22.585h-.569l8.291-24.249v1.664z" class="cls-95"/><path d="M130.134 114.826l-7.153 20.922h-.569l7.722-22.585v1.663z" class="cls-96"/><path d="M130.134 116.495l-6.584 19.253h-.569l7.153-20.922v1.669z" class="cls-97"/><path d="M130.134 118.164l-6.01 17.584h-.574l6.584-19.253v1.669z" class="cls-98"/><path d="M130.134 119.828l-5.441 15.92h-.569l6.01-17.584v1.664z" class="cls-99"/><path d="M130.134 121.496l-4.872 14.252h-.569l5.441-15.92v1.668z" class="cls-100"/><path d="M130.134 123.16l-4.302 12.588h-.57l4.872-14.252v1.664z" class="cls-101"/><path d="M130.134 124.829l-3.734 10.919h-.568l4.302-12.588v1.669z" class="cls-102"/><path d="M130.134 126.497l-3.164 9.251h-.57l3.734-10.919v1.668z" class="cls-103"/><path d="M130.134 128.161l-2.595 7.587h-.569l3.164-9.251v1.664z" class="cls-104"/><path d="M130.134 129.83l-2.026 5.918h-.569l2.595-7.587v1.669z" class="cls-105"/><path d="M130.134 132.145l-1.231 3.603h-.795l2.026-5.922v2.319z" class="cls-105"/><path d="M130.134 134.465l-.439 1.283h-.792l1.231-3.603v2.32z" class="cls-104"/><path d="M129.695 135.748l.439-1.283v1.283h-.439z" class="cls-103"/></g><g clip-path="url(#clip-path-7)"><path d="M97.362 75.718l-.41 1.2v-1.2h.41z" class="cls-15"/><path d="M97.932 75.718l-.98 2.869v-1.669l.41-1.2h.57z" class="cls-16"/><path d="M98.5 75.718l-1.548 4.537v-1.668l.98-2.869h.568z" class="cls-17"/><path d="M99.069 75.718l-2.117 6.207v-1.67l1.548-4.537h.569z" class="cls-18"/><path d="M99.638 75.718l-2.136 6.26h-.55v-.053l2.117-6.207h.569z" class="cls-19"/><path d="M100.208 75.718l-2.137 6.26h-.569l2.136-6.26h.57z" class="cls-20"/><path d="M100.781 75.718l-2.141 6.26h-.569l2.137-6.26h.573z" class="cls-21"/><path d="M101.351 75.718l-2.142 6.26h-.569l2.141-6.26h.57z" class="cls-22"/><path d="M101.92 75.718l-2.142 6.26h-.569l2.142-6.26h.569z" class="cls-23"/><path d="M102.489 75.718l-2.142 6.26h-.569l2.142-6.26h.569z" class="cls-24"/><path d="M103.058 75.718l-2.141 6.26h-.57l2.142-6.26h.569z" class="cls-25"/><path d="M103.627 75.718l-2.137 6.26h-.573l2.141-6.26h.569z" class="cls-26"/><path d="M104.196 75.718l-2.136 6.26h-.57l2.137-6.26h.569z" class="cls-27"/><path d="M104.765 75.718l-2.136 6.26h-.569l2.136-6.26h.569z" class="cls-28"/><path d="M105.339 75.718l-2.142 6.26h-.568l2.136-6.26h.574z" class="cls-29"/><path d="M105.908 75.718l-2.141 6.26h-.57l2.142-6.26h.569z" class="cls-30"/><path d="M106.477 75.718l-2.141 6.26h-.569l2.141-6.26h.569z" class="cls-31"/><path d="M107.047 75.718l-2.142 6.26h-.569l2.141-6.26h.57z" class="cls-32"/><path d="M107.615 75.718l-2.141 6.26h-.569l2.142-6.26h.568z" class="cls-33"/><path d="M108.184 75.718l-2.141 6.26h-.569l2.141-6.26h.569z" class="cls-34"/><path d="M108.754 75.718l-2.142 6.26h-.569l2.141-6.26h.57z" class="cls-35"/><path d="M109.323 75.718l-2.137 6.26h-.574l2.142-6.26h.569z" class="cls-36"/><path d="M109.892 75.718l-2.136 6.26h-.57l2.137-6.26h.569z" class="cls-37"/><path d="M110.461 75.718l-2.137 6.26h-.568l2.136-6.26h.569z" class="cls-38"/><path d="M111.035 75.718l-2.142 6.26h-.569l2.137-6.26h.574z" class="cls-39"/><path d="M111.604 75.718l-2.141 6.26h-.57l2.142-6.26h.569z" class="cls-40"/><path d="M112.173 75.718l-2.141 6.26h-.569l2.141-6.26h.569z" class="cls-41"/><path d="M112.742 75.718l-2.141 6.26h-.569l2.141-6.26h.569z" class="cls-42"/><path d="M113.311 75.718l-2.141 6.26h-.569l2.141-6.26h.569z" class="cls-43"/><path d="M113.88 75.718l-2.136 6.26h-.574l2.141-6.26h.569z" class="cls-44"/><path d="M114.45 75.718l-2.137 6.26h-.569l2.136-6.26h.57z" class="cls-45"/><path d="M115.019 75.718l-2.137 6.26h-.569l2.137-6.26h.569z" class="cls-46"/><path d="M115.593 75.718l-2.142 6.26h-.569l2.137-6.26h.574z" class="cls-47"/><path d="M115.906 76.465l-1.886 5.513h-.569l2.142-6.26h.313v.747z" class="cls-48"/><path d="M115.906 78.129l-1.317 3.849h-.569l1.886-5.513v1.664z" class="cls-49"/><path d="M115.906 79.797l-.748 2.181h-.569l1.317-3.849v1.668z" class="cls-50"/><path d="M115.906 81.462l-.178.516h-.57l.748-2.181v1.665z" class="cls-51"/><path d="M115.728 81.978l.178-.516v.516h-.178z" class="cls-52"/></g><path fill="#727171" d="M111.275 222.68q2.961.173 3.29 1.535a.704.704 0 0 1-.693.732 1.6 1.6 0 0 1-.769-.294 3.1 3.1 0 0 0-1.866-.548q-1.992.128-2.12 1.903.282 1.725 2.66 2.23a4.082 4.082 0 0 1 3.666 3.766q-.302 3.986-4.498 4.187-3.411-.173-3.73-1.553c.019-.566.25-.86.695-.878a1.89 1.89 0 0 1 .767.33 4.066 4.066 0 0 0 2.268.73 2.63 2.63 0 0 0 2.743-2.743q-.31-1.91-2.78-2.395a3.9 3.9 0 0 1-3.547-3.565q.438-3.191 3.914-3.438zm5.631 9.58v-5.339a.797.797 0 0 1 .841-.877q.787.028.804.877v5.266q.01 2.627 2.305 2.633 2.304 0 2.303-2.633v-5.266a.797.797 0 0 1 .841-.877q.787.028.805.877v5.34q-.082 3.81-3.949 3.93-3.868-.116-3.95-3.93zm18.213-5.412v8.557q-.192 4.492-4.463 4.7-3.235-.3-3.839-1.827c.037-.496.268-.75.695-.769a2.187 2.187 0 0 1 .95.401 3.979 3.979 0 0 0 2.305.77q2.587-.064 2.706-3.019v-.841h-.037a2.821 2.821 0 0 1-2.523 1.371q-4.07-.263-4.39-5.063.33-4.812 4.39-5.084a3.383 3.383 0 0 1 2.523 1.243h.037v-.439c.019-.512.31-.78.877-.804a.753.753 0 0 1 .769.804zm-6.95 4.28q.175 3.572 2.744 3.692 2.587-.11 2.743-3.692-.146-3.558-2.743-3.657-2.578.116-2.743 3.657zm8.741 0q.33-4.812 4.389-5.084 4.059.274 4.388 5.084-.32 4.8-4.388 5.063-4.068-.263-4.389-5.063zm1.646 0q.173 3.572 2.743 3.692 2.587-.11 2.742-3.692-.146-3.557-2.742-3.657-2.579.116-2.743 3.657zm8.851 4.241v-8.448a.797.797 0 0 1 .841-.877q.785.028.803.877v.404l.038.036a3.38 3.38 0 0 1 2.78-1.317q3.326.247 3.437 3.766v5.559a.75.75 0 0 1-.805.822.778.778 0 0 1-.84-.822v-5.449a2.309 2.309 0 1 0-4.61 0v5.449a.75.75 0 0 1-.803.822.777.777 0 0 1-.84-.822zm16.018-5.925q.293 5.147 4.058 5.376a4.898 4.898 0 0 0 2.69-.832 2.264 2.264 0 0 1 .895-.374c.42.018.64.273.657.767q-.566 1.628-4.242 1.81-5.439-.316-5.85-6.747.421-6.445 5.961-6.765 3.108.165 3.84 1.938c-.031.506-.25.773-.66.805a1.504 1.504 0 0 1-.812-.43 3.358 3.358 0 0 0-2.368-.887q-3.896.2-4.169 5.339zm11.446-6.911v12.836a.75.75 0 0 1-.805.822.778.778 0 0 1-.84-.822v-12.836a.796.796 0 0 1 .84-.878c.525.02.793.31.805.878zm1.719 8.595q.328-4.812 4.388-5.084 4.06.274 4.388 5.084-.32 4.8-4.388 5.063-4.068-.263-4.388-5.063zm1.646 0q.173 3.572 2.742 3.692 2.587-.11 2.743-3.692-.146-3.557-2.743-3.657-2.578.116-2.742 3.657zm8.85 1.132v-5.339a.796.796 0 0 1 .841-.877q.786.028.804.877v5.266q.008 2.627 2.304 2.633 2.306 0 2.305-2.633v-5.266a.797.797 0 0 1 .84-.877c.525.018.793.31.805.877v5.34q-.082 3.81-3.95 3.93-3.866-.116-3.949-3.93zm16.566 3.109v-.511h-.036a2.648 2.648 0 0 1-2.633 1.333q-3.95-.28-4.279-5.063.328-4.793 4.279-5.084a3.211 3.211 0 0 1 2.633 1.353h.036v-4.864a.798.798 0 0 1 .842-.878c.524.02.792.31.804.878v12.836a.75.75 0 0 1-.804.822.78.78 0 0 1-.842-.822zm.183-4.241q-.146-3.557-2.742-3.657-2.58.116-2.744 3.657.174 3.572 2.744 3.692 2.587-.11 2.742-3.692zm9.655-1.684q.293 5.147 4.06 5.376a4.903 4.903 0 0 0 2.688-.832 2.271 2.271 0 0 1 .896-.374c.421.018.64.273.657.767q-.566 1.628-4.241 1.81-5.439-.316-5.852-6.747.42-6.445 5.96-6.765 3.109.165 3.842 1.938c-.032.506-.251.773-.66.805a1.506 1.506 0 0 1-.813-.43 3.358 3.358 0 0 0-2.368-.887q-3.894.2-4.169 5.339zm9.362 1.684q.331-4.812 4.39-5.084 4.059.274 4.388 5.084-.32 4.8-4.389 5.063-4.07-.263-4.389-5.063zm1.646 0q.174 3.572 2.743 3.692 2.588-.11 2.743-3.692-.146-3.557-2.743-3.657-2.578.116-2.743 3.657zm14.739 4.241v-5.595q-.065-2.24-2.122-2.303-2.047.08-2.12 2.303v5.595a.75.75 0 0 1-.805.822.779.779 0 0 1-.842-.822v-8.448a.797.797 0 0 1 .842-.877q.787.028.805.877v.293l.036.036a2.874 2.874 0 0 1 2.523-1.206 3.075 3.075 0 0 1 2.743 1.682 3.393 3.393 0 0 1 3.035-1.682q3.356.255 3.475 3.766v5.559a.778.778 0 0 1-.842.822.75.75 0 0 1-.804-.822v-5.595a2.059 2.059 0 0 0-2.157-2.303q-2.02.072-2.085 2.303v5.595a.841.841 0 0 1-1.682 0zm9.801 3.859v-12.307a.797.797 0 0 1 .841-.877q.785.028.805.877v.476h.036a2.76 2.76 0 0 1 2.67-1.353q3.922.283 4.242 5.084-.32 4.789-4.242 5.063a3.253 3.253 0 0 1-2.67-1.296h-.036v4.333q-.02.85-.805.877a.797.797 0 0 1-.84-.877zm1.498-8.1q.156 3.582 2.707 3.692 2.588-.11 2.744-3.692-.147-3.557-2.744-3.657-2.549.108-2.707 3.657zm8.815 1.132v-5.339a.796.796 0 0 1 .841-.877q.785.028.803.877v5.266q.01 2.627 2.304 2.633 2.305 0 2.305-2.633v-5.266a.797.797 0 0 1 .84-.877q.789.028.805.877v5.34q-.082 3.81-3.95 3.93-3.866-.116-3.948-3.93zm10.605-6.108v-2.156q.018-.85.804-.877a.796.796 0 0 1 .841.877v2.156h.658c.554.007.836.251.842.733q-.018.687-.842.695h-.658v7.789a.778.778 0 0 1-.84.822.749.749 0 0 1-.805-.822v-7.789h-.695q-.795-.008-.805-.695c0-.49.269-.733.805-.733zm4.132-2.449a1.006 1.006 0 1 1 2.012 0 1.006 1.006 0 0 1-2.012 0zm1.828 3.218v8.448a.75.75 0 0 1-.803.822.777.777 0 0 1-.84-.822v-8.448a.796.796 0 0 1 .84-.877q.786.028.803.877zm2.159 8.448v-8.448a.797.797 0 0 1 .841-.877q.786.028.805.877v.404l.036.036a3.384 3.384 0 0 1 2.78-1.317q3.327.247 3.437 3.766v5.559a.75.75 0 0 1-.805.822.779.779 0 0 1-.841-.822v-5.449a2.308 2.308 0 1 0-4.607 0v5.449a.75.75 0 0 1-.805.822.778.778 0 0 1-.841-.822zm18.212-8.521v8.557q-.19 4.492-4.462 4.7-3.236-.3-3.84-1.827c.037-.496.27-.75.695-.769a2.194 2.194 0 0 1 .952.401 3.977 3.977 0 0 0 2.304.77q2.587-.064 2.706-3.019v-.841h-.036a2.822 2.822 0 0 1-2.524 1.371q-4.07-.263-4.39-5.063.33-4.812 4.39-5.084a3.387 3.387 0 0 1 2.524 1.243h.036v-.439q.027-.768.878-.804a.752.752 0 0 1 .767.804zm-6.949 4.28q.175 3.572 2.744 3.692 2.586-.11 2.743-3.692-.147-3.558-2.743-3.657-2.578.116-2.744 3.657z"/></svg>