<svg viewBox="22.86 16.86 1463.28 1126.28" xmlns="http://www.w3.org/2000/svg"><title>Sumo Logic</title><style>.st81{fill:#2ba1e5}.st82{fill:#323633}</style><path fill="none" d="M807 928.5c0-32.9.1-65.8 0-98.7v98.7c0 25.6.1 51.3 0 76.9v-76.9zm-433.6 38.6c0-15.1.3-30.2.1-45.4.2 15.1-.1 30.3-.1 45.4 0 20.4.1 40.8 0 61.2.1-20.4 0-40.8 0-61.2zm800.8 58c-.2-16.1.1-32.3.1-48.4v-43.4 43.4c0 16.1-.3 32.3-.1 48.4z"/><path d="M532.8 51.4c-58.9 24.7-97.1 66.2-97.8 132.3-1.4 126.4-1 252.9-.2 379.3.5 75.9 61.8 135.7 137.9 135.8 121.2.3 242.3.2 363.5 0 76.4-.1 137.8-58.2 138.6-134.9 1.5-127.1 1.2-254.2 0-381.3-.5-51.1-25.6-89.6-69-116.8-14-8.8-51.9-15.9-68.8-16.8-137.6-7.2-279-2-375-2-3.1 0-26.8 3.4-29.2 4.4zm99.1 279.4c25-.3 50.1-.6 75.1.1 12.2.4 16.3-4.4 16.1-16.1-.4-25.7-.4-51.4 0-77.1.4-26.8 15.5-44.3 37.7-44.3 23.1 0 38.7 17.9 39.1 45 .2 11.9 0 23.7 0 38.5 2.6 15.1-8.4 38.1 4.6 50.1 11.7 10.9 34 2.6 51.6 3.4 13.8.6 27.7-.3 41.5.3 21.3 1 37.8 18.2 37.5 38.2-.3 20-16.9 38-37.4 38.6-27 .8-54 .8-81 .1-12.9-.3-17.5 4.2-17 17.2.8 25 .4 50.1.2 75.1-.2 28.3-14.6 45.2-38.2 45.4-23.2.2-38.1-16.9-38.6-45.4-.4-25-.7-50.1.1-75.1.4-12.8-3.7-17.6-16.8-17.2-25 .8-50.1.4-75.1.1-27.3-.3-42.8-14.6-42.5-38.4.4-23 17-38.2 43.1-38.5z" class="st81"/><path d="M606.7 927.5c-1.1-30.5-19.6-52.8-45.6-56.5-20.4-2.9-40.9-2.2-58.8 10.2-7.8 5.4-13.6 6.2-22.4.2-25.3-17.3-69.8-15-95.2 3.1-8.2 5.8-11.9 13-11.5 23.4.1 2.5.1 4.9.2 7.4 0 2.2.1 4.3.1 6.5.2 15.1-.1 30.2-.1 45.4 0 20.4.1 40.8 0 61.2-.1 11.1.4 23.2 14.8 22.9 13.2-.2 13.5-11.8 13.5-22.2-.1-32.9 0-65.8 0-98.7 0-26.5 5-31.8 31.1-33.1 29.3-1.5 41.9 8.6 43.4 37.9 1.4 27.6-.1 55.3.9 82.9.4 12.5-6.4 32.8 14.2 32.7 18.7-.1 12.9-19.6 13.2-31.7.7-29.6.1-59.2.3-88.9.1-21.6 7.1-29.4 28.5-32.3 30.2-4.1 45.3 8.1 45.8 38.5.6 32.2.3 64.5.3 96.8 0 9.8 3.6 17.7 13.8 18.3 10.7.5 14.4-7.4 14.3-17.2-.3-35.7.5-71.3-.8-106.8z" class="st82"/><path d="M1174.2 1025.1c-.2-16.1.1-32.3.1-48.4v-43.4c0-44.6-6.3-52.8-49.7-61.7-9.5-2-19.6-1.5-29.5-1.4-37.1.4-64.3 27-65.8 64.4-.6 15.8-.6 31.6-.2 47.4.8 32.2 15.9 53.1 45.9 63.8 18.1 6.5 36 5.1 53.8-1.6 4.4-1.7 10.5-4.7 14.5.5 3 3.9.7 8.8-.8 13.2-6.3 18.2-19.6 27.8-38.2 29.1-15 1.1-30.2 1.5-45.2-1.8-9.2-2-16.1 2.3-17.7 11.1-1.7 9 5 12.6 12.9 14 9.7 1.7 19.4 4.9 29.1 5 53.4.3 92.5-23.2 90.9-83.4 0-2.2 0-4.5-.1-6.8zm-52.8-4.9c-45.9 8.9-64.4-6-65.3-52.4-.1-5.9-.2-11.9 0-17.8 1.2-47.9 37.6-68.9 80.6-47.1 7.3 3.7 9.1 8.9 9.2 15.7.2 13.8.1 27.6.1 41.5h.1c0 9.9-1.1 19.9.2 29.6 2.8 19.8-8 27.3-24.9 30.5z" class="st81"/><path d="M779.6 934.2c-2.4-34.2-29.6-61.3-63.7-63.9-41.9-3.2-73.2 16.4-81.9 51.8-6 24.6-5.9 49.5-.8 74.3 6.4 31.1 26.7 49.4 56.6 55.9 29.1 6.3 54.8-2.2 74.3-25.3 15.9-18.9 17-41.9 15.5-65.2.1-9.2.6-18.5 0-27.6zm-27.4 27h-.5c0 8.5.7 17.1-.1 25.5-2.2 21.1-17.6 37.1-37.4 39.7-24.9 3.2-44.1-7.2-51.8-29-7.4-21-6.4-42.9-2.5-64.1 4.8-26 23.8-38.8 50-36.8 25.8 2 40.8 17.8 42.3 45 .3 6.6 0 13.1 0 19.7z" class="st82"/><path d="M946 870.3c-42.5-3.1-74.9 16.1-83.4 49.6-6.6 25.8-7.5 51.7-1.1 77.9 10 40.9 52.1 65.6 92.6 53.7 38.3-11.2 54.3-36.6 55.2-86.4-.7-11.1-1.1-22.3-2.1-33.4-2.8-31.9-30.1-59.2-61.2-61.4zm32.2 122.9c-4.8 21-21.1 33.2-42.7 33.7-24.4.5-39.1-9.6-45.6-32-6.1-20.6-5.7-41.6-1.6-62.3 4.9-24.9 22.9-37.5 48.4-36.2 25.2 1.3 40.8 16.1 43.6 42 .8 7.1.1 14.4.1 21.6.5 0 1.1.1 1.6.1-1.1 11.1-1.3 22.4-3.8 33.1z" class="st81"/><path d="M342.1 955.6h-.2c0-22.4.1-44.8-.1-67.2-.1-8.9-4-16.1-13.5-16.2-8.7-.2-12.1 7.1-13.1 14.7-.7 5.2-.6 10.5-.7 15.8-.1 32.3 0 64.5 0 96.8 0 6.5 1.4 14.2-5.6 17.8-18.7 9.7-38.6 13.3-58.9 6.1-19.8-7-25.1-23.8-25.4-42.7-.4-29.6-.2-59.3-.2-88.9 0-10.1-1.9-19.7-14-19.4-10.4.3-13.8 9.2-13.8 18.5 0 33.6-1.1 67.2 1 100.7 2.1 33.3 20.4 53.3 52.8 60.5 29 6.4 56-1.4 81.5-15.3 8.7-4.8 10.3-12.9 10.2-21.9-.1-19.8 0-39.5 0-59.3zm-202.5-3.1c-11.8-3.9-24.1-6.2-35.9-10.1-11-3.6-20.7-8.9-19.5-23.3 1.2-14.6 11-19.3 23.5-22.3 15.3-3.8 28.3 2.4 41.7 8 8 3.4 15.7 4.3 20.3-4.9 4.6-9.3-1.4-14.5-8.5-19.1-14.5-9.3-30.6-11.4-47.2-10.7-32.1 1.4-54.8 19.8-57.2 46.1-2.5 27.7 12.8 46 45.7 54.5 10.8 2.8 21.7 4.9 32.2 8.5 11.2 3.9 19.7 10.7 17.8 24.6-1.9 13.9-10.7 20.4-23.6 22.6-19.6 3.4-38 .1-54.2-11.8-7.8-5.7-14.9-5.3-20.4 2.5-6.1 8.6-.8 15 5.9 19.9 15.8 11.7 33.9 16.8 56.8 17.2 3.3-.3 9.9-.3 16.3-1.7 29.5-6.2 45.8-23.8 47-50.1 1.1-26.3-9.5-39.6-40.7-49.9z" class="st82"/><path d="M1395 991.9c-10.8-6.2-16.7 3-21.4 11.2-10.7 18.4-26.3 26.5-47.7 23.3-20.9-3.2-31.4-16.5-37.4-35.7-4.3-13.7-3-27.4-2.9-41.1.3-26.3 11.8-44.9 30.2-50.4 24.1-7.1 41.7-.3 58.4 23.4 5.6 7.9 12.6 13.1 21.5 8 9.1-5.2 7.7-13.7 3.4-22.5-15.6-32.1-57.9-47.9-93-34.2-35.3 13.7-48.1 36.6-47.8 85.6 0 7.9-.6 15.8.1 23.7 3.3 36.6 25 62 59.2 69.9 30.3 7 65.2-7.9 80.1-33.8 5.7-10 9.2-20.6-2.7-27.4zM820.4 810.4c-12.6-.7-13.5 9.7-13.5 19.5.1 32.9 0 65.8 0 98.7 0 25.6.1 51.3 0 76.9 0 8.5-.1 17.1-.1 25.6-.1 10.1 1.5 20.1 13.2 20.3 11.6.3 14.4-9.6 14.4-19.6.1-67.1 0-134.2.1-201.3 0-10.1-3-19.5-14.1-20.1zm398.4 61.7c-10.4.4-12.2 10.2-12.2 19.3v71c0 23.7.1 47.3-.1 71-.1 9.5 2.4 18.4 13 18.4 10.2 0 14.1-9 14.2-18.2.3-47.3.3-94.7 0-142 0-9.8-3.6-19.9-14.9-19.5zm2.3-61.2c-11-1-17.3 6.4-17.8 16.6-.4 10 6.6 15.8 16 16.5 10.3.8 15.3-5.6 16.6-15.3-.3-9.9-5-17-14.8-17.8z" class="st81"/><g id="zns4l3_1_"><path d="M1427.3 822.2c2.1-.1 4.3-.3 6.4 0 .2 0 .4.1.6.1 8.4 1.2 14.9 5.4 19.7 12.4 2.5 3.7 3.9 7.8 4.7 12.1v8.4c-.1.6-.3 1.2-.4 1.9-1.6 7.5-5.5 13.4-11.6 17.9-3.6 2.7-7.7 4.2-12.1 4.9h-7.9c-.5-.1-1.1-.2-1.6-.4-9.2-2-15.8-7.3-20-15.7-1.6-3.1-2.4-6.5-2.9-10v-6.1c.1-.4.2-.8.2-1.2 1.3-8.4 5.5-15 12.5-19.9 3.6-2.4 7.8-4.1 12.4-4.4zm26.8 28.9c0-4-.5-6.5-2.3-10.6-4.1-9.5-14.7-15.4-24.6-13.8-15.1 2.4-24.4 18.8-18.8 33.1 4.5 11.4 15.8 17.8 27.2 15.3 10.5-2.4 18.4-12.5 18.5-24z" class="st81"/><path d="M1419.1 850.5v-13.9c0-1.2.4-1.6 1.6-1.6 5.2.2 10.4-.3 15.5.3 3.7.4 5.9 2.6 6.5 6.2.5 3.3.1 6.3-2.8 8.4-.7.5-.8.9.1 1.4 1.7 1 2.3 2.6 2.4 4.5 0 1.7.1 3.4.2 5.1.1 1.2.3 2.4 1.1 3.5.8 1 .4 1.6-.8 1.7h-.1c-3.8-.1-3.8.7-4.6-3.8-.3-1.6-.1-3.2-.1-4.8-.1-3.2-1.1-4.5-4.3-4.7-3-.2-6.1-.1-9.2-.1-1 0-1.1.6-1.1 1.4v10.1c0 1.8-.1 1.9-2 1.9h-.6c-1.7 0-1.8-.1-1.8-1.8v-13.8zm10.4-1.4h4.5c1.9-.1 3.5-.8 4.2-2.6.7-2 .9-4.2-.6-6-1-1.3-2.6-1.5-4-1.6-2.9-.1-5.8 0-8.7 0-.8 0-1.3.3-1.3 1.2v7.9c0 .9.4 1.2 1.2 1.2 1.5-.1 3.1-.1 4.7-.1z" class="st81"/></g></svg>