<svg xmlns="http://www.w3.org/2000/svg" role="img" viewBox="-3.60 -3.60 187.20 48.08"><defs><radialGradient id="a" cx=".156" cy=".148" r=".995" gradientTransform="matrix(.667 .74 -.741 .68 .162 -.068)" gradientUnits="objectBoundingBox"><stop offset="0" stop-color="#e2007f"/><stop offset=".145" stop-color="#db0083"/><stop offset=".347" stop-color="#c9008d"/><stop offset=".585" stop-color="#ab009d"/><stop offset=".846" stop-color="#8200b5"/><stop offset="1" stop-color="#6600c4"/></radialGradient></defs><path fill="rgba(0,0,0,.8)" fill-rule="evenodd" d="M120.938 20.697v-.028a4.729 4.729 0 0 1 4.809-4.778 5.059 5.059 0 0 1 3.583 1.254l-1.039 1.227a3.677 3.677 0 0 0-2.612-.99 3.137 3.137 0 0 0-3.024 3.257v.029a3.1 3.1 0 0 0 3.167 3.3 3.837 3.837 0 0 0 2.251-.7V21.54h-2.383v-1.413h3.969v3.883a5.992 5.992 0 0 1-3.889 1.437 4.6 4.6 0 0 1-4.834-4.75zm-53.622.672V16.05h1.638v5.253c0 1.714.893 2.622 2.359 2.622s2.345-.857 2.345-2.559v-5.318h1.638v5.238c0 2.758-1.575 4.143-4.015 4.143s-3.969-1.385-3.969-4.069zm-13.059 2.574l.985-1.162a4.337 4.337 0 0 0 2.944 1.2c1.013 0 1.652-.475 1.652-1.162v-.026c0-.66-.372-1.016-2.1-1.413-1.982-.474-3.1-1.056-3.1-2.758v-.026c0-1.583 1.334-2.679 3.184-2.679a5.191 5.191 0 0 1 3.385 1.163l-.881 1.23a4.259 4.259 0 0 0-2.532-.948c-.956 0-1.518.488-1.518 1.1v.028c0 .715.43 1.033 2.228 1.453 1.976.477 2.984 1.175 2.984 2.707v.028c0 1.731-1.369 2.758-3.328 2.758a5.776 5.776 0 0 1-3.889-1.475zm98.789 1.347h-1.73l-.945-2.231h-4.41l-.956 2.236h-1.678l4.1-9.307h1.518l4.107 9.307zm-43.62 0h-1.638v-9.239h4.158a3.779 3.779 0 0 1 2.692.924 2.8 2.8 0 0 1 .773 2v.028a2.774 2.774 0 0 1-2.211 2.8l2.52 3.5h-1.942l-2.291-3.218h-2.05v3.225zm-26.02 0h-1.638v-9.239h3.677c2.188 0 3.545 1.227 3.545 3.088v.027c0 2.071-1.678 3.154-3.729 3.154h-1.85v2.97zm96.595-7.736h-2.957v7.735h-1.653v-7.735h-2.958v-1.5h7.568zm-78.384-.052h-5.276v2.408h4.675v1.453H96.34v2.486h5.342v1.453h-6.981v-9.247h6.913v1.455zm58.647 7.791h-1.611v-9.238h1.518l4.994 6.388v-6.394h1.613v9.239h-1.377l-5.141-6.571v6.571zm-22.555 0h-1.639v-9.238h1.639zm12.062-3.669l-1.612-3.7-1.6 3.7h3.21zm-64.46-.766c1.239 0 2.01-.687 2.01-1.649v-.028c0-1.084-.785-1.651-2.01-1.651h-1.9v3.325h1.9zm26.512-.224c1.172 0 1.919-.607 1.919-1.544v-.028c0-.987-.72-1.527-1.932-1.527h-2.383v3.1h2.4z"/><path fill="url(#a)" d="M18640.4 22917.891a20.431 20.431 0 0 1 11.828-26.5 20.832 20.832 0 0 1 21.094 3.689 45.632 45.632 0 0 0-10.3 2.676 40.994 40.994 0 0 0-13.676 8.307 1.186 1.186 0 0 0-1.082-.109 1.168 1.168 0 0 0-.672 1.514.877.877 0 0 0 .172.293c-2.705 3.193-3.822 6.424-2.779 9.105 2.273 5.848 14.049 6.773 26.291 2.066a47.309 47.309 0 0 0 8.7-4.393 20.518 20.518 0 0 1-12.818 15.08 20.758 20.758 0 0 1-26.752-11.725zm5.381-1.824c-.908-2.324.076-5.15 2.424-7.953a1.167 1.167 0 0 0 .932.033 1.153 1.153 0 0 0 .674-1.514 1.238 1.238 0 0 0-.074-.166 40.167 40.167 0 0 1 13.484-8.174 45.91 45.91 0 0 1 10.643-2.717 20.919 20.919 0 0 1 1.658 1.717 31.165 31.165 0 0 0-11.816 2.232c-9.186 3.527-15.258 9.951-13.543 14.344.633 1.645 2.238 2.75 4.488 3.344a1.736 1.736 0 0 0 .133.535 1.946 1.946 0 0 0 3.648-.059 31.537 31.537 0 0 0 11.477-2.25 30.616 30.616 0 0 0 10.418-6.389 22.35 22.35 0 0 1-.021 3.563 46.483 46.483 0 0 1-9.537 4.949 41.822 41.822 0 0 1-14.564 2.98c-5.305.001-9.266-1.522-10.426-4.476zm12.6.242a1.943 1.943 0 0 0-3.373-.369c-2.072-.482-3.521-1.443-4.08-2.865-1.508-3.873 4.281-9.711 12.967-13.031a29.969 29.969 0 0 1 12.07-2.215 20.216 20.216 0 0 1 1.4 2.014c-2.684-1.02-7.379-.627-12.26 1.232a21.984 21.984 0 0 0-8.979 5.875 1.47 1.47 0 0 0-1.025 0 1.39 1.39 0 0 0-.8 1.809 1.255 1.255 0 0 0 .5.645 2.9 2.9 0 0 0 .092 1.68c1.141 2.936 7.545 3.2 14.332.594 5.139-1.957 9-5.008 10.078-7.645a20.47 20.47 0 0 1 .816 3.27 29.025 29.025 0 0 1-10.746 6.77 31.4 31.4 0 0 1-10.883 2.238zm-2.648-6.02a1.567 1.567 0 0 1-.131-.645 1.381 1.381 0 0 0 .523-.094 1.4 1.4 0 0 0 .8-1.812 1.358 1.358 0 0 0-.316-.477c1.549-1.957 4.732-4.1 8.721-5.631 6.221-2.383 12.035-2.383 12.984 0 .932 2.4-3.355 6.258-9.6 8.658a24.866 24.866 0 0 1-8.48 1.787c-2.351.001-4.034-.595-4.504-1.786zm9.779-7.42a3.349 3.349 0 0 0-1.934 4.352 3.417 3.417 0 0 0 4.4 1.922 3.368 3.368 0 0 0 1.934-4.357 3.427 3.427 0 0 0-4.4-1.916z" transform="translate(-18639 -22890)"/><path fill="#d10088" d="M59.321 37.068a3.934 3.934 0 0 0 3.366-1.632l-.629-.459a3.239 3.239 0 0 1-2.737 1.323 3.522 3.522 0 0 1-3.621-3.737 3.522 3.522 0 0 1 3.621-3.74 3.239 3.239 0 0 1 2.737 1.326l.629-.459a3.893 3.893 0 0 0-3.366-1.632 4.325 4.325 0 0 0-4.488 4.505 4.335 4.335 0 0 0 4.488 4.505zm10.217 0a4.323 4.323 0 0 0 4.437-4.505 4.323 4.323 0 0 0-4.437-4.505 4.323 4.323 0 0 0-4.438 4.505 4.323 4.323 0 0 0 4.438 4.505zm0-.765a3.52 3.52 0 0 1-3.57-3.74 3.52 3.52 0 0 1 3.57-3.74 3.52 3.52 0 0 1 3.57 3.74 3.52 3.52 0 0 1-3.57 3.737zm12.393-8.245a3.663 3.663 0 0 0-3.519 1.989v-1.921H77.6V37h.85v-4.726a3.166 3.166 0 0 1 3.366-3.451c1.8 0 2.873 1.054 2.873 3.06V37h.85v-5.185c-.004-2.482-1.449-3.757-3.608-3.757zm12.138 7.786a2.04 2.04 0 0 1-1.377.493c-1.088 0-1.649-.629-1.649-1.768v-5.712h2.822v-.731h-2.822v-1.938h-.85v1.938h-1.632v.731h1.632v5.8a2.2 2.2 0 0 0 2.414 2.411 2.693 2.693 0 0 0 1.819-.629zm4.522-5.78v-1.938h-.816V37h.85v-4.624c0-2.193 1.173-3.5 3.145-3.5.068 0 .136.017.2.017v-.833a3.37 3.37 0 0 0-3.379 2.004zm10.1 7a4.323 4.323 0 0 0 4.437-4.505 4.323 4.323 0 0 0-4.437-4.505 4.323 4.323 0 0 0-4.437 4.505 4.323 4.323 0 0 0 4.435 4.509zm0-.765a3.52 3.52 0 0 1-3.57-3.74 3.52 3.52 0 0 1 3.57-3.74 3.52 3.52 0 0 1 3.57 3.74 3.52 3.52 0 0 1-3.572 3.741zm8.058.7h.85V24.386h-.85z"/></svg>