<svg xmlns="http://www.w3.org/2000/svg" role="img" viewBox="-2.24 24.51 402.74 195.74"><title>SUSE (member) logo</title><defs><style>.cls-2{fill:#80c455}</style></defs><path fill="#231f20" d="M300.168 187.746c0 12.108-9.87 22.977-24.167 22.977h-45.05V193.85h45.144a6.155 6.155 0 0 0 6.132-6.104c0-3.9-2.429-6.262-7.232-7.013-.257-.044-27.594-4.011-27.85-4.048-14.564-2.248-20.92-13.212-20.92-23.806 0-12.11 9.868-22.975 24.17-22.975h45.056v16.868H250.3a6.15 6.15 0 0 0-6.13 6.107c0 3.899 2.437 6.256 7.227 7.017.261.041 27.6 4.006 27.853 4.044 14.56 2.244 20.918 13.216 20.918 23.806zm-96.544-57.875v48.077a18.18 18.18 0 1 1-36.36 0V129.87h-17.51v47.07a35.686 35.686 0 1 0 71.373 0v-47.07zm189.32 75.328a5.585 5.585 0 1 0-5.602 5.524 5.506 5.506 0 0 0 5.601-5.524zm-1.154.006a4.382 4.382 0 0 1-4.444 4.405 4.393 4.393 0 1 1 4.444-4.405zm-2.038-1.027c0-1.088-.815-1.734-2.089-1.734h-2.367v5.254h1.174v-1.69h.932l1.135 1.69h1.369l-1.3-1.881a1.635 1.635 0 0 0 1.146-1.64zm-1.186.07c0 .448-.322.766-.913.766h-1.183v-1.544h1.154c.58 0 .942.262.942.778zm-24.499-57.476c6.689-.201 13.726-5.336 13.726-15.377v-1.49h-48.848c-14.302 0-24.171 10.864-24.171 22.974v34.867c0 12.108 9.87 22.977 24.17 22.977h48.849v-1.494c0-10.036-7.037-15.157-13.724-15.362v-.016h-35.222a6.152 6.152 0 0 1-6.128-6.105c0-3.9 2.558-7.013 7.228-7.013h15.258c13.435-.091 21.175-8.32 23.609-17.723h-36.712a10.83 10.83 0 0 0-9.381 5.24v-15.37a6.147 6.147 0 0 1 6.126-6.107zM124.431 163.94c-.257-.038-27.589-4.003-27.854-4.044-4.802-.761-7.226-3.118-7.226-7.017a6.148 6.148 0 0 1 6.126-6.107h45.153v-16.868H95.576c-14.302 0-24.172 10.865-24.172 22.975 0 10.594 6.362 21.558 20.918 23.806.253.037 27.594 4.004 27.857 4.048 4.8.751 7.23 3.114 7.23 7.013a6.156 6.156 0 0 1-6.14 6.105H88.275v.016c-6.687.206-13.724 5.326-13.724 15.362v1.494h46.633c14.296 0 24.164-10.869 24.164-22.977 0-10.59-6.352-21.562-20.917-23.806z"/><path d="M169.8 34.74l-.128 7.128c-3.16-1.053-26.12-8.469-47.642-9.222-18.249-.64-43.168-1.508-78.385 20.135l-1.04.652c-16.564 10.332-28 23.072-33.979 37.887-1.88 4.659-4.401 15.173-1.904 25.064a38.593 38.593 0 0 0 5.8 12.56 37.737 37.737 0 0 0 27.432 15.602c15.606 1.39 27.43-5.62 31.633-18.74 2.893-9.058 0-22.344-11.079-29.125-9.009-5.522-18.71-4.26-24.324-.55a16.232 16.232 0 0 0-7.595 13.782 15.159 15.159 0 0 0 14.603 15 17.421 17.421 0 0 0 5.533-.954 8.458 8.458 0 0 0 2.113-.94l.23-.144.144-.084-.057.023a4.962 4.962 0 0 0 2.23-4.1 5.234 5.234 0 0 0-.198-1.372 4.962 4.962 0 0 0-5.701-3.507l-.341.068-.466.152-.675.226a12.264 12.264 0 0 1-2.663.38 4.941 4.941 0 0 1-4.21-4.92v-.044a5.712 5.712 0 0 1 .885-2.923c1.08-1.702 4.054-3.376 8.074-3.021 5.266.452 9.067 3.152 11.581 8.25a14.187 14.187 0 0 1-1.57 14.845c-3.284 4.24-9.11 6.036-16.873 5.195a23.118 23.118 0 0 1-18.15-12.378c-3.623-6.846-3.822-14.974-.514-21.218 7.926-14.95 22.883-14.8 31.089-13.381 11.652 2.014 29.331 12.468 35.96 36.667h16.134c-1.994-6.172-3.146-24.03 15.014-24.03 19.908 0 22.428 14.02 28.063 24.03h17.09c-4.494-6.438-7.654-13.603-6.653-19.625 1.472-8.887 8.554-8.09 18.343-6.977 3.193.365 6.839.784 10.606.868 10.505.064 20.038-1.87 27.019-4.922 4.516-1.974 7.399-3.277 9.208-4.914a5.365 5.365 0 0 0 1.33-2.35l.244-.628c.297-.753.68-2.372.904-3.237.463-1.787-1.114-.84-1.114-.84-3.058 1.839-10.728 5.34-17.897 5.481-8.885.183-26.796-8.938-28.666-9.91l-.175-.21-3.706-8.77c12.894 8.494 23.581 13.186 31.77 13.915 9.114.813 16.217-4.162 19.254-6.282.32-.22 1.528-1.03 1.246-2.009-1.193-4.14-5.28-18.002-8.686-21.521a14.448 14.448 0 0 0-3.402-2.958c-13.03-7.595-43.942-12.182-45.394-12.392a.262.262 0 0 0-.344.288zm21.232 25.566a13.222 13.222 0 0 1 13.672-12.76 13.233 13.233 0 0 1 8.573 22.903 13.094 13.094 0 0 1-9.484 3.544 13.271 13.271 0 0 1-12.76-13.687z" class="cls-2"/><path d="M204.595 51.445a9.203 9.203 0 0 0-9.526 8.884 9.231 9.231 0 0 0 15.521 7.09 9.122 9.122 0 0 0 2.917-6.425 9.245 9.245 0 0 0-8.912-9.549zm1.513 10.086c-2.269 0-4.091-1.225-4.091-2.727 0-1.51 1.822-2.734 4.091-2.734 2.261 0 4.097 1.225 4.097 2.734 0 1.502-1.836 2.727-4.097 2.727z" class="cls-2"/></svg>