<svg xmlns="http://www.w3.org/2000/svg" role="img" viewBox="-1.63 -2.63 293.02 67.02"><style>svg{enable-background:new 0 0 290.6 61}</style><style>.st0{fill:#375592}</style><g id="Sylabs.io-v5" transform="translate(-137 -2894)"><g id="Footer" transform="translate(0 2848)"><g id="Logo" transform="translate(137 46.694)"><g id="Group-3"><path id="Sylabs.io" d="M85.6 46.4c-5.3 0-10.6-1.9-14.8-5.6l4.5-5.5c3.1 2.6 6.4 4.3 10.4 4.3 3.1 0 5-1.3 5-3.3v-.1c0-2-1.2-3-7-4.5-7-1.8-11.5-3.8-11.5-10.7v-.1c0-6.4 5.1-10.6 12.2-10.6 5.1 0 9.4 1.6 12.9 4.5l-4 5.8c-3.1-2.2-6.1-3.5-9.1-3.5-2.9 0-4.5 1.4-4.5 3.1v.1c0 2.3 1.5 3.1 7.5 4.6 7.1 1.9 11.1 4.4 11.1 10.5v.1c.1 7-5.2 10.9-12.7 10.9zm29.6-9.1L121 19h7.9l-10.3 27.5c-2 5.5-4.2 7.5-8.8 7.5-2.7 0-4.8-.7-6.7-1.9l2.5-5.5c1 .6 2.2 1.1 3.2 1.1 1.3 0 2-.4 2.6-1.8l-10.5-27h8l6.3 18.4zm18.6 8.6V9.3h7.6v36.6h-7.6zm22.2.5c-5 0-9.2-2.9-9.2-8.2v-.1c0-5.9 4.4-8.6 10.8-8.6 2.7 0 4.6.5 6.5 1.1v-.5c0-3.2-1.9-4.9-5.7-4.9-2.9 0-4.9.6-7.4 1.5l-1.9-5.8c2.9-1.3 5.8-2.2 10.4-2.2 4.1 0 7.1 1.1 9 3 2 2 2.9 5 2.9 8.6v15.6h-7.3V43c-1.9 2-4.4 3.4-8.1 3.4zm2.3-5.3c3.5 0 5.9-2 5.9-4.7V35c-1.3-.6-3-1-4.8-1-3.2 0-5.2 1.3-5.2 3.7v.1c0 2.1 1.7 3.3 4.1 3.3zm35.5 5.3c-4 0-6.5-1.9-8.3-4v3.5h-7.6V9.3h7.6v13.6c1.8-2.5 4.4-4.4 8.3-4.4 6.2 0 12.1 4.9 12.1 13.9v.1c0 9-5.8 13.9-12.1 13.9zm-1.9-6.5c3.5 0 6.5-2.9 6.5-7.4v-.1c0-4.5-3-7.4-6.5-7.4s-6.5 3-6.5 7.4v.1c0 4.5 2.9 7.4 6.5 7.4zm29 6.5c-3.7 0-7.9-1.3-11.4-4.1l3.2-5c2.9 2.1 5.9 3.2 8.4 3.2 2.2 0 3.2-.8 3.2-2v-.1c0-1.7-2.6-2.2-5.5-3.1-3.7-1.1-8-2.9-8-8.1v-.1c0-5.5 4.4-8.5 9.8-8.5 3.4 0 7.1 1.2 10 3.1l-2.9 5.3c-2.6-1.6-5.3-2.5-7.2-2.5-1.8 0-2.8.8-2.8 1.9v.1c0 1.5 2.5 2.2 5.4 3.2 3.7 1.3 8.1 3.1 8.1 8v.1c-.1 5.9-4.6 8.6-10.3 8.6zm16.3-.5v-4.3h3.3v4.3h-3.3zm12-32.3v-3.4h3v3.4h-3zm.3 32.3V20.3h2.4v25.6h-2.4zm23.3.6c-7.5 0-13-6.1-13-13.3v-.1c0-7.2 5.5-13.4 13.1-13.4 7.5 0 13 6.1 13 13.3v.1c0 7.2-5.5 13.4-13.1 13.4zm.1-2.3c6 0 10.4-5 10.4-11v-.1c0-6.2-4.6-11.1-10.5-11.1-6 0-10.4 5-10.4 11v.1c.1 6.2 4.7 11.1 10.5 11.1z" class="st0"/><path id="Combined-Shape" d="M30.3 58.2C15.9 57.4 4.5 45.5 4.2 30.9h11.7c.3 8.1 6.5 14.7 14.5 15.5v11.8zm2.9.1V46.5c8.1-.6 14.6-7.3 14.9-15.6h11.7c-.4 14.8-12.1 26.7-26.6 27.4zm-2.9-56v11.8C22.9 14.8 17 20.6 16 28H4.2C5.3 14.1 16.4 3.1 30.3 2.3zm2.9 0C47.2 2.9 58.5 14 59.6 28H47.9c-1-7.5-7.1-13.4-14.7-14V2.3z" class="st0"/></g></g></g></g></svg>