<svg xmlns="http://www.w3.org/2000/svg" role="img" viewBox="0.88 87.13 395.98 70.73"><title>Synadia Communications (member) logo</title><path fill="none" d="M-1.806.795h400v245h-400z"/><path fill="#414042" d="M85.582 128.517l9.577-.931q.864 4.822 3.508 7.083a10.604 10.604 0 0 0 7.133 2.262q4.755 0 7.166-2.013a5.985 5.985 0 0 0 2.41-4.705 4.435 4.435 0 0 0-1.014-2.942 8.106 8.106 0 0 0-3.54-2.112q-1.73-.599-7.882-2.129-7.914-1.961-11.106-4.821a12.684 12.684 0 0 1-4.489-9.81 12.528 12.528 0 0 1 2.111-6.966 13.224 13.224 0 0 1 6.085-4.938 24.391 24.391 0 0 1 9.594-1.696q9.178 0 13.816 4.024a14.204 14.204 0 0 1 4.872 10.74l-9.843.433a8.36 8.36 0 0 0-2.71-5.404q-2.079-1.645-6.235-1.646a11.246 11.246 0 0 0-6.717 1.762 3.55 3.55 0 0 0-1.563 3.026 3.741 3.741 0 0 0 1.464 2.96q1.861 1.564 9.044 3.259a47.755 47.755 0 0 1 10.624 3.508 13.695 13.695 0 0 1 5.387 4.954 15.346 15.346 0 0 1-.383 15.612 13.947 13.947 0 0 1-6.584 5.437 27.62 27.62 0 0 1-10.607 1.78q-9.245 0-14.199-4.274-4.955-4.272-5.919-12.453zm60.719 15.861v-20.516l-17.856-28.231h11.538l11.472 19.286 11.24-19.286h11.338l-17.923 28.298v20.449zm32.72 0V95.63h9.576l19.952 32.554V95.63h9.144v48.747h-9.876l-19.652-31.789v31.789zm93.039 0h-10.707l-4.256-11.072H237.61l-4.023 11.072h-10.442l18.988-48.747h10.407zm-18.123-19.285l-6.716-18.09-6.584 18.09zm23.311-29.463h17.99a35.136 35.136 0 0 1 9.277.932 16.312 16.312 0 0 1 7.349 4.489 21.311 21.311 0 0 1 4.655 7.897 35.994 35.994 0 0 1 1.596 11.522 32.05 32.05 0 0 1-1.496 10.375 21.5 21.5 0 0 1-5.22 8.612 17.296 17.296 0 0 1-6.917 3.89 29.779 29.779 0 0 1-8.713 1.03h-18.521zm9.843 8.247v32.288h7.348a26.812 26.812 0 0 0 5.952-.465 9.087 9.087 0 0 0 3.974-2.03 10.322 10.322 0 0 0 2.577-4.704 31.795 31.795 0 0 0 .998-8.928 29.124 29.124 0 0 0-.998-8.68 11.155 11.155 0 0 0-2.793-4.72 9.369 9.369 0 0 0-4.555-2.295 44.667 44.667 0 0 0-8.08-.466zm39.071 40.501V95.63h9.843v48.747zm63.178 0h-10.706l-4.257-11.072H354.89l-4.023 11.072h-10.441l18.987-48.747h10.407zm-18.122-19.285l-6.717-18.09-6.584 18.09z"/><path fill="#47a0dd" d="M47.221 111.537c5.414.002 10.83.075 16.242-.03a5.178 5.178 0 0 1 5.346 3.26 37.418 37.418 0 0 1 3.13 22.393c-1.272 7.259-7.13 12.078-15.498 12.898-8.806.863-17.643.238-26.466.388a2.376 2.376 0 0 1-2.738-2.746c.018-.75.027-1.5-.01-2.249-.103-2.127.875-2.95 3.01-2.926 6.829.076 13.66.039 20.49.013a23.141 23.141 0 0 0 3.475-.27c6.721-1.051 9.781-4.579 9.717-11.382a33.076 33.076 0 0 0-1.455-9.088c-.547-1.848-1.578-2.448-3.453-2.433-9.245.07-18.491.04-27.737.019-1.295-.003-2.955.384-3.605-1.052a7.953 7.953 0 0 1-.055-5.856c.402-1.183 1.64-.931 2.615-.934q8.496-.021 16.992-.005z"/><path fill="#36789d" d="M33.994 135.075c-5.244 0-10.491-.096-15.733.034-3.294.083-5.277-1.323-6.496-4.327a38.495 38.495 0 0 1-2.724-20.773c.983-6.255 4.68-10.329 10.64-12.358a27.245 27.245 0 0 1 8.593-1.396c7.492-.062 14.985.02 22.476-.055 2.124-.022 2.956.696 2.93 2.903-.056 4.985.037 4.986-5.06 4.986-6.16 0-12.32-.022-18.48.018a24.085 24.085 0 0 0-4.213.375c-5.706 1.057-8.494 4.252-8.79 10.1a31.047 31.047 0 0 0 1.407 10.087c.547 1.926 1.63 2.59 3.623 2.573 9.323-.084 18.647-.05 27.97-.021 1.191.003 2.908-.448 3.269 1.047a9.756 9.756 0 0 1-.167 6.117c-.387.905-1.607.686-2.512.687q-8.367.013-16.733.003z"/></svg>