<svg xmlns="http://www.w3.org/2000/svg" role="img" xmlns:xlink="http://www.w3.org/1999/xlink" viewBox="-1.95 -2.20 218.66 72.41"><path fill="#AFCA00" d="M9.136 37.054l6.916 6.916-6.915 6.916-6.917-6.915zm17.641-17.606l6.914 6.914-6.915 6.915-6.914-6.914zm-8.635-8.618l6.916 6.914-6.915 6.916-6.915-6.915zm-.185 17.438l6.916 6.914-6.915 6.916-6.916-6.915zm-8.62-8.653l6.916 6.916-6.916 6.916-6.916-6.916zm26.261-8.985l6.915 6.915L35.6 24.46l-6.916-6.914zm-1.679-1.714l-6.917 6.915-6.915-6.916L27.004 2zM17.742 45.705l6.914 6.915-6.914 6.915-6.915-6.915zM35.38 28.07l6.915 6.915-6.914 6.916-6.916-6.915zm-8.803 8.815l6.915 6.914-6.915 6.915-6.915-6.915zM44.216 19.25l6.915 6.916-6.915 6.914-6.915-6.916z"/><defs><path id="a" d="M2.223 2.003h210.479v64.049H2.223z"/></defs><clipPath id="b"><use overflow="visible" xlink:href="#a"/></clipPath><path d="M122.622 55.854a16.26 16.26 0 0 1 .071-1.924c-1.474 0-3.562.071-5.521.071h-5.343v-3.17c0-1.188 0-2.375-.071-3.646 1.033.083 2.138.083 4.382.083 1.946 0 3.858 0 5.271.071v-3.931c-.677.071-3.646.071-5.011.071h-4.605v-6.043h4.902c1.615 0 5.046 0 6.149.07v-4.154h-16.159c.071 2.469.179 6.85.179 12.597 0 4.749-.072 8.977-.144 12.074h15.946c0-.559-.071-1.722-.071-2.279m64.934-8.985c-.153-3.017-1.294-4.273-3.752-4.273-2.457 0-3.834 1.627-3.94 4.273h7.692zm4.63.367v2.541l-12.217.249c.142 2.803 1.828 4.607 5.663 4.607a10.875 10.875 0 0 0 5.198-1.282h.216c.065 1.102.188 2.198.366 3.288a10.557 10.557 0 0 1-6.885 2.243 8.963 8.963 0 0 1-9.428-9.213c0-6.376 4.084-10.936 9.284-10.936 4.381 0 7.848 3.277 7.848 8.501m20.21 4.729v-6.411c-.214-4.12-2.517-6.768-6.222-6.768-1.815 0-3.432.878-5.746 3.419h-.119a13.847 13.847 0 0 0-.51-2.873h-4.05c.227 2.291.262 7.324.262 10.613 0 2.755-.083 5.676-.189 8.312h5.283c-.119-2.207-.178-5.08-.178-7.433 0-.818 0-5.2-.072-5.723a4.385 4.385 0 0 1 3.562-1.947c1.993 0 2.944.819 3.135 3.206.07.914.118 2.873.118 4.119 0 2.47 0 5.593-.18 7.766h5.191a104.11 104.11 0 0 1-.179-6.411m-44.059-12.419a29.623 29.623 0 0 1-1.578 6.114 65.504 65.504 0 0 0-2.174 7.123h-.153c-.284-1.246-.56-1.946-2.138-6.778a110.439 110.439 0 0 1-1.946-6.399h-5.402c.807 2.292 1.912 5.2 3.562 9.499a645.871 645.871 0 0 1 3.562 9.391h4.308c.771-2.279 2.065-5.604 3.562-9.391 1.627-4.275 2.577-6.958 3.491-9.499h-5.07m-27.841 7.457h7.692c-.153-3.017-1.293-4.275-3.763-4.275s-3.823 1.627-3.942 4.275m-4.784 2.79c0-6.376 4.097-10.936 9.284-10.936 4.369 0 7.85 3.276 7.85 8.501v2.54l-12.218.25c.143 2.802 1.827 4.605 5.676 4.605a10.816 10.816 0 0 0 5.188-1.282h.228c.063 1.103.187 2.2.366 3.289a10.578 10.578 0 0 1-6.887 2.244c-4.942.264-9.164-3.529-9.429-8.474a7.917 7.917 0 0 1-.009-.739m-6.293 8.549h2.647c-.179-1.982-.215-7.325-.215-10.092 0-8.109 0-11.947.189-15.105h-5.235c.19 3.17.226 6.96.226 15.283 0 2.375-.071 8.074-.262 9.914h2.65" clip-path="url(#b)"/><defs><path id="c" d="M2.223 2.003h210.479v64.049H2.223z"/></defs><clipPath id="d"><use overflow="visible" xlink:href="#c"/></clipPath><path fill="#AFCA00" d="M97.689 47.46l-2.658-.831c-1.734-.546-2.138-.95-2.138-1.947s.688-1.805 3.205-1.805a9.721 9.721 0 0 1 4.524 1.104h.189c.044-1.238.203-2.472.476-3.681a7.968 7.968 0 0 0-5.082-1.591c-4.951 0-8.18 3.134-8.18 6.625 0 2.173 1.364 3.646 3.562 4.393l2.908.962c1.793.582 2.375 1.188 2.375 2.065 0 1.283-.926 1.947-3.17 1.947a11.212 11.212 0 0 1-4.868-1.259h-.178a28.303 28.303 0 0 1-.451 3.836 9.364 9.364 0 0 0 5.343 1.591c5.081 0 8.18-3.087 8.18-6.603.083-2.075-.985-3.762-4.037-4.806m-16.205-8.179c-.368 1.84-1.033 4.167-1.912 7.04a491.413 491.413 0 0 0-1.733 5.64h-.179c-.962-2.375-3.682-9.498-4.679-12.68h-5.567c.581 1.626 5.782 13.7 7.871 18.448 0 .18-.51 1.51-.688 2.02-.558 1.579-1.033 1.924-2.47 1.924-.961.024-1.923-.04-2.873-.189 0 1.188-.071 2.943-.178 3.905a8.094 8.094 0 0 0 3.087.665c3.17 0 5.675-1.733 7.183-6.197l3.158-9.271c1.365-3.99 2.766-8.074 3.977-11.314h-2.373c-.653 0-2.078.06-2.624.023v-.014zm-20.731 5.198l-3.467-1.104c-2.374-.772-3.122-1.438-3.122-2.873 0-1.698 1.092-2.909 4.855-2.909 1.984.064 3.933.554 5.71 1.438.076-1.438.26-2.864.548-4.274a10.698 10.698 0 0 0-6.009-1.888c-5.936 0-10.317 3.729-10.317 8.311a6.02 6.02 0 0 0 4.643 5.747l3.562 1.188c2.694.843 3.561 1.731 3.561 3.062 0 1.912-1.318 3.017-4.559 3.017a13.493 13.493 0 0 1-6.316-1.627 41.425 41.425 0 0 1-.368 4.382 11.115 11.115 0 0 0 6.411 1.981c6.221 0 10.08-4.084 10.08-8.216.049-2.626-1.305-4.94-5.212-6.235" clip-path="url(#d)"/></svg>