<svg xmlns="http://www.w3.org/2000/svg" role="img" viewBox="-12.28 -12.28 638.56 245.06"><title>Sysdig (member) logo</title><path fill="#4d4e56" d="M262.29 175.308c0 8.001-2.746 14.094-8.234 18.28-5.024 3.908-11.817 5.861-20.375 5.861-11.816 0-22.514-3.768-32.096-11.302l9.071-13.956c8.185 5.954 16.048 8.93 23.584 8.93 5.952 0 8.93-1.858 8.93-5.58v-.28c0-2.044-1.534-3.768-4.605-5.163-1.117-.465-4.744-1.626-10.884-3.49-14.885-4.37-22.328-11.861-22.328-22.465v-.28c0-7.348 2.698-13.209 8.094-17.584 5.024-4.092 11.442-6.14 19.257-6.14 10.048 0 19.35 2.886 27.91 8.653l-8.094 14.65c-7.91-4.649-14.653-6.975-20.235-6.975-5.21 0-7.814 1.723-7.814 5.162v.28c0 1.863 1.536 3.536 4.605 5.024 1.208.56 4.745 1.863 10.607 3.907 6.882 2.327 11.952 4.745 15.209 7.257 4.93 3.907 7.397 8.886 7.397 14.932v.279m51.581 24.56c-2.885 7.721-6.094 13.118-9.629 16.188-3.721 3.161-8.7 4.744-14.932 4.744-6.698 0-12.977-1.723-18.838-5.163l7.117-15.35c3.255 1.953 6.279 2.93 9.07 2.93 3.349 0 5.814-1.628 7.397-4.885l-29.306-75.076h22.468l17.024 50.935 16.327-50.935h22.048l-28.747 76.612m88.504-24.56c0 8.001-2.745 14.094-8.233 18.28-5.024 3.908-11.817 5.861-20.375 5.861-11.816 0-22.514-3.768-32.096-11.302l9.071-13.956c8.185 5.954 16.048 8.93 23.584 8.93 5.953 0 8.93-1.858 8.93-5.58v-.28c0-2.044-1.534-3.768-4.605-5.163-1.116-.465-4.744-1.626-10.884-3.49-14.885-4.37-22.328-11.861-22.328-22.465v-.28c0-7.348 2.698-13.209 8.094-17.584 5.024-4.092 11.444-6.14 19.257-6.14 10.048 0 19.35 2.886 27.91 8.653l-8.094 14.65c-7.91-4.649-14.653-6.975-20.235-6.975-5.209 0-7.814 1.723-7.814 5.162v.28c0 1.863 1.536 3.536 4.606 5.024 1.207.56 4.744 1.863 10.606 3.907 6.882 2.327 11.952 4.745 15.209 7.257 4.93 3.907 7.397 8.886 7.397 14.932v.279m65.002-14.793c0-6.046-1.768-11.023-5.302-14.931-3.444-3.813-7.724-5.721-12.84-5.721-5.117 0-9.397 1.861-12.837 5.58-3.63 3.91-5.443 8.933-5.443 15.072v.28c0 6.048 1.814 11.024 5.443 14.93 3.44 3.816 7.72 5.723 12.837 5.723 5.116 0 9.396-1.907 12.84-5.723 3.534-3.906 5.302-8.882 5.302-14.93zm-.279 37.538v-6.557c-5.955 5.301-13.724 7.953-23.305 7.953-9.304 0-17.164-3.3-23.584-9.908-6.976-7.257-10.466-16.837-10.466-28.746v-.28c0-11.907 3.442-21.49 10.327-28.746 6.42-6.605 14.325-9.908 23.723-9.908 9.302 0 17.07 2.326 23.305 6.977V96.184h21.21v101.87h-21.21m34.607-.001v-74.797h21.213v74.797zm-.558-83.03V96.184h22.328v18.839h-22.328m92.276 41.724c0-5.023-1.768-9.162-5.301-12.419-3.444-3.256-7.77-4.885-12.979-4.885-5.212 0-9.538 1.629-12.978 4.885-3.443 3.257-5.163 7.396-5.163 12.419v.28c0 5.117 1.72 9.304 5.163 12.56 3.44 3.164 7.766 4.744 12.978 4.744 5.21 0 9.535-1.627 12.979-4.884 3.533-3.255 5.301-7.396 5.301-12.42zm20.934 24.421c0 13.864-3.49 23.955-10.467 30.283-6.697 6.14-17.119 9.21-31.259 9.21-12.189 0-23.213-2.606-33.073-7.816l7.256-17.302c8.096 4.557 16.513 6.838 25.26 6.838 14.233 0 21.35-5.862 21.35-17.585v-.836c-6.698 5.303-14.84 7.954-24.42 7.954-9.211 0-16.934-3.022-23.166-9.071-6.697-6.511-10.047-15.118-10.047-25.816v-.28c0-10.695 3.395-19.303 10.186-25.815 6.232-6.047 13.908-9.071 23.026-9.071 9.303 0 17.351 2.326 24.142 6.977v-5.582h21.212v57.912"/><path fill="#0dadca" d="M112.632 197.703c-19.674 0-36.823-9.705-47.098-27.498-4.146-7.182-14.838-26.222-15.376-27.188a7.205 7.205 0 0 1 2.789-9.801 7.204 7.204 0 0 1 9.8 2.787c.132.236 11.177 19.909 15.269 26.994 10.148 17.579 28.733 24.294 49.717 17.95a7.207 7.207 0 1 1 4.168 13.798c-6.583 1.987-13.054 2.958-19.269 2.958"/><path fill="#0dadca" d="M142.341 208.37h.02zm-28.146 12.19c-27.472 0-53.114-12.855-66.016-35.203l-29.488-51.074a7.203 7.203 0 0 1 2.637-9.843l20.086-11.597a7.205 7.205 0 0 1 9.843 2.638 7.204 7.204 0 0 1-2.637 9.842l-13.845 7.994 25.884 44.835c14.033 24.304 47.396 34.44 78.018 23.87 24.462-21.234 32.368-55.195 18.336-79.5l-24.778-42.917a7.206 7.206 0 1 1 12.48-7.208l24.78 42.919c17.662 30.593 7.98 72.97-22.52 98.57a7.191 7.191 0 0 1-2.17 1.254 89.579 89.579 0 0 1-30.61 5.42"/><path fill="#0dadca" d="M112.03 174.336c-11.382 0-21.028-7.577-25.928-16.064L.967 10.815a7.207 7.207 0 0 1 12.48-7.208l85.136 147.458c2.322 4.021 8.904 10.921 17.186 8.249a7.207 7.207 0 0 1 4.42 13.717 26.5 26.5 0 0 1-8.159 1.305M93.595 98.244a7.215 7.215 0 0 1-6.24-3.603l-23.89-41.378a7.206 7.206 0 1 1 12.48-7.206l20.288 35.138 12.903-7.451a7.204 7.204 0 0 1 9.843 2.637 7.204 7.204 0 0 1-2.637 9.843L97.198 97.278a7.204 7.204 0 0 1-3.603.966"/></svg>