<svg xmlns="http://www.w3.org/2000/svg" role="img" viewBox="2.70 1.95 249.86 53.11"><title>T-Systems (KCSP) logo</title><style>svg {enable-background:new 0 0 255.1 56.7}</style><style>.st0{fill:#e20074}</style><path d="M7.6 29.7v-7h7v7h-7zm21.3 0v-7H36v7h-7.1zm21.1 0v-7h7v7h-7zm21 0v-7h7v7h-7z" class="st0"/><path d="M35.6 6.8H7.9L7.6 19l1.8.3c.3-3.6 1.3-6.3 2.8-8 1.6-1.8 3.9-2.8 6.7-2.9V34c0 2.2-.3 3.7-1 4.3-.6.6-1.5.9-2.8 1h-2v2h17.1v-2h-2c-1.3-.1-2.3-.5-2.8-1-.7-.7-1-2.1-1-4.3V8.4c2.9.1 5.1 1 6.8 2.9 1.5 1.7 2.5 4.4 2.8 8l2-.3-.4-12.2z" class="st0"/><g><path d="M101.7 19c-.6-3-1.4-5.2-2.3-6.6-1.5-2.3-3.5-3.4-5.9-3.4-1.4 0-2.7.4-3.7 1.3-1.2 1.1-1.8 2.5-1.8 4.2 0 1.9.7 3.3 2 4.4.8.7 2.3 1.4 4.6 2.2 3.3 1.2 5.6 2.2 6.7 3 2.4 1.8 3.6 4.3 3.6 7.5 0 3-1 5.6-3 7.6-1.8 1.9-4.1 2.9-6.8 2.9-1.4 0-2.8-.3-4-.8-.5-.2-1.4-.7-2.6-1.4-.4-.2-.8-.4-1.1-.4-.5 0-.9.2-1.2.7-.2.2-.4.6-.7 1.1H84v-12h1.6c.6 3.1 1.4 5.4 2.4 7 1.7 2.7 4 4.1 6.8 4.1 1.6 0 3-.5 4.1-1.4 1.4-1.2 2.1-2.9 2.1-5.1 0-2.6-1.1-4.5-3.2-5.7-.7-.4-2.6-1.1-5.6-2.1-2.2-.7-3.9-1.7-5.1-2.8-1.8-1.6-2.7-3.8-2.7-6.6 0-3 1-5.4 3-7.2C89 8 91 7.3 93.3 7.3c1.3 0 2.5.2 3.7.7.5.2 1.3.6 2.4 1.3.3.2.6.3.9.3.5 0 1-.5 1.5-1.6h1.4v11h-1.5zm4.6-.6h10.4V20h-.9c-1.4 0-2 .4-2 1.1 0 .3.1.8.3 1.4l5 13.1 4.3-12.1c.3-.8.5-1.5.5-2 0-1-.7-1.4-2.2-1.4h-1.1v-1.6h8.2v1.6h-.5c-.6 0-1.1.2-1.5.7-.3.3-.6.9-.8 1.6l-8.3 22.2c-.8 2.1-1.6 3.6-2.6 4.5-1 .9-2.2 1.4-3.6 1.4-1.2 0-2.2-.3-3.1-1-1-.9-1.5-1.9-1.5-3.2 0-.8.2-1.5.7-2 .5-.6 1.2-.9 2-.9.9 0 1.6.3 2.1 1 .3.4.4.9.4 1.4 0 .7-.3 1.4-.8 1.9-.3.3-.8.5-1.3.6.4.4.9.6 1.5.6 1 0 1.8-.4 2.5-1.1.7-.7 1.4-2.2 2.2-4.4l.5-1.6-6.7-18.6c-.5-1.4-1-2.3-1.4-2.6-.4-.4-1.1-.6-1.9-.6h-.4v-1.6zm37.6 0v7.3h-1.5c-.8-4.2-2.8-6.3-5.8-6.3-1.1 0-2 .3-2.7 1-.7.7-1.1 1.5-1.1 2.5 0 1.1.5 2 1.5 2.7.5.3 1.4.7 2.7 1.1 2.8.9 4.6 1.7 5.6 2.4 1.8 1.4 2.7 3.2 2.7 5.4 0 2.3-.8 4.1-2.4 5.6-1.3 1.2-3 1.8-5.1 1.8-1.2 0-2.3-.2-3.3-.6-.4-.2-1.2-.6-2.3-1.2-.2-.1-.5-.2-.6-.2-.3 0-.6.5-.9 1.6h-1.4V33h1.4c.6 2.1 1.2 3.6 1.9 4.5.6.9 1.3 1.5 2.2 2 1 .5 2 .8 3 .8 1.3 0 2.3-.4 3-1.3.7-.8 1.1-1.8 1.1-2.8 0-1.5-.7-2.7-2.1-3.5-.7-.5-2.2-1.1-4.4-1.8-1.5-.5-2.7-1.1-3.6-1.8-1.5-1.1-2.2-2.8-2.2-4.9 0-1.9.7-3.5 2.1-4.7 1.2-1.1 2.8-1.6 4.7-1.6 1.6 0 3.2.4 4.7 1.3.3.2.6.3.7.3.3 0 .6-.4.7-1.1h1.4zm9.8 1.7v13.8c0 1.8.1 3.1.4 3.9.4 1.3 1.2 1.9 2.4 1.9 1.1 0 1.9-.6 2.4-1.7s.7-2.4.7-3.9v-.7h1.7v.9c0 2.3-.5 4.1-1.4 5.5-.9 1.3-2.4 2-4.5 2-2 0-3.4-.6-4.3-1.7-.7-.8-1.1-1.9-1.3-3.1-.1-.9-.1-2-.1-3.2V20.1h-3.6v-1.4c2.3-.6 3.9-1.5 4.7-2.7.8-1.3 1.4-3.4 1.7-6.2h1.4v8.7h6.7v1.7h-6.9zm27.3 9.6h-13.7c0 3.2.4 5.6 1 7.2.9 2.2 2.5 3.3 4.7 3.3 1.7 0 3.2-.7 4.3-2.1.6-.7 1.3-1.8 1.9-3.1l1.5.8c-2.1 4.2-4.9 6.3-8.5 6.3-2.6 0-4.8-.9-6.4-2.7-2.1-2.2-3.1-5.5-3.1-9.7 0-3.9 1-7 3.1-9.3 1.6-1.8 3.6-2.8 5.9-2.8 3.4 0 6 1.7 7.7 5.2 1 1.9 1.5 4.2 1.6 6.9zm-4.6-1.7c0-2-.2-3.7-.7-5-.8-2.3-2.1-3.5-3.8-3.5-1.9 0-3.3 1.4-4.1 4.3-.3 1.2-.5 2.6-.5 4.2h9.1zm33.5 13.4V27.3c0-2.9-.2-4.8-.6-5.6-.6-1.1-1.4-1.7-2.6-1.7-1.4 0-2.5.8-3.4 2.4-.5.8-.8 1.8-.9 2.8-.1.7-.2 2.2-.2 4.3v6.3c0 1.8.2 3 .6 3.4.3.4 1 .6 1.9.6h.7v1.5H198V28.1c0-2.3 0-3.7-.1-4.4-.3-2.4-1.4-3.6-3.1-3.6-1.4 0-2.5.8-3.3 2.4-.4.8-.7 1.6-.8 2.4-.2.9-.2 2.4-.2 4.6v6.3c0 1.9.2 3 .6 3.4.4.4 1 .6 2 .6h.7v1.5H183v-1.5h.8c.9 0 1.5-.2 1.9-.6.4-.5.6-1.6.6-3.4V23.9c0-1.8-.2-2.9-.6-3.4-.4-.4-1-.6-1.9-.6h-.6v-1.6l7-.3v4.1c.3-.8.8-1.6 1.4-2.2 1.3-1.4 2.8-2 4.5-2 2.7 0 4.6 1.5 5.8 4.5 1.5-3 3.5-4.5 6.2-4.5 2.2 0 3.9.9 5.1 2.6.6.9.9 2 1.1 3.1.1.9.2 2 .2 3.1v9c0 1.8.2 3 .6 3.4.3.4 1 .6 1.9.6h.6v1.5h-7.7zm24.3-23v7.3h-1.5c-.8-4.2-2.8-6.3-5.8-6.3-1.1 0-2 .3-2.7 1-.7.7-1.1 1.5-1.1 2.5 0 1.1.5 2 1.5 2.7.5.3 1.4.7 2.7 1.1 2.8.9 4.6 1.7 5.6 2.4 1.8 1.4 2.7 3.2 2.7 5.4 0 2.3-.8 4.1-2.4 5.6-1.3 1.2-3 1.8-5.1 1.8-1.2 0-2.3-.2-3.3-.6-.4-.2-1.2-.6-2.3-1.2-.2-.1-.5-.2-.6-.2-.3 0-.6.5-.9 1.6h-1.4V33h1.4c.6 2.1 1.2 3.6 1.9 4.5.6.9 1.3 1.5 2.2 2 1 .5 2 .8 3 .8 1.3 0 2.3-.4 3-1.3.7-.8 1-1.8 1-2.8 0-1.5-.7-2.7-2.1-3.5-.7-.5-2.2-1.1-4.4-1.8-1.5-.5-2.7-1.1-3.6-1.8-1.5-1.1-2.2-2.8-2.2-4.9 0-1.9.7-3.5 2.1-4.7 1.2-1.1 2.8-1.6 4.7-1.6 1.6 0 3.2.4 4.7 1.3.3.2.6.3.7.3.3 0 .6-.4.7-1.1h1.5zm6.7 11.3v-7h7v7h-7z" class="st0"/></g></svg>