<svg xmlns="http://www.w3.org/2000/svg" role="img" viewBox="91.08 44.08 489.84 142.34"><title>Teamsun (member) logo</title><style>svg {enable-background:new 0 0 672.65 231.08}</style><style>.st1{fill:#b01f24}</style><path fill="#404952" d="M446.49 147.84c0 3.79-2.28 6.8-3.79 9.08-1.51-3.78-2.27-9.08-3.03-15.12h15.12v-5.3h-2.25v-3.02h-9.84c0 1.5 0 2.26.74 3.02h-3.77c0-1.51-.76-2.28-.76-3.78h-9.08v3.78h-31.01v24.21c0 4.56-.75 6.8-3.02 7.56v8.34s12.09.76 12.09-15.13v-5.3h12.13v15.13h-5.31v4.54h14.38v-24.97H407.9v-9.08h21.94c2.29 21.95 6.83 34.05 25.74 34.81v-6.82c-3.78-.76-6.81-2.27-9.07-5.3 9.07-9.08 9.07-16.65 9.07-16.65h-9.09zm-82.48 8.33h21.95v-5.29h-24.22c.76-3.04.76-6.8.76-10.6h23.46v-5.29h-57.51v5.29h23.45c0 2.27.76 6.06 0 10.6h-23.45v5.29h21.17c-2.27 6.06-8.32 12.86-21.94 13.62v6.82s20.43.76 29.5-12.86c9.85 13.62 29.53 12.86 29.53 12.86v-6.82c-12.86-.76-19.67-6.81-22.7-13.62zm-58.27 3.8h10.59v-5.33h-10.59v-9.82h11.36v-4.55h-11.36v-7.55h-10.58v7.55h-3.04c0-2.25.77-3.78 0-6.79h-7.56c.75 5.28-.76 9.07-3.79 10.59v-10.59h-21.19v31.79c0 2.25 0 3.76-2.28 5.28v6.82c7.57-1.52 9.84-5.31 9.84-12.1v-3.8h5.29v10.59h-3.02v4.55h48.44v-4.55h-12.12v-12.09zm-33.29-3.8h-5.29v-6.04h5.29v6.04zm0-11.35h-5.29v-6.06h5.29v6.06zm22.71 9.82h-12.87v5.33h12.87v12.09h-14.38v-20.44c4.54-1.5 7.58-3.79 9.07-6.8h5.31v9.82zm-68.86-3.01c7.56-.75 19.67-3 21.93-15.88h-9.83s-.77 7.57-12.1 9.08v-11.34h-9.84v25.72H249v-5.29h-22.7v-2.29zm-20.43 8.34V141.8c1.51-2.26 2.27-4.53 3.01-8.31h-9.07s-.76 4.54-3.78 7.55c-1.52 1.51-3.79 3.04-6.8 3.04v6.8s3.01 0 6.8-1.51v10.6h9.84zm18.91 0h-11.35v3.78h-22.7v5.28h22.7v7.58h11.35v-7.58H249v-5.28h-24.22z"/><path d="M529.71 106.24L500.2 70.68h-37.07v28.75c0 6.04-6.06 11.34-15.89 11.34-9.84 0-16.65-5.3-16.65-11.34V70.68h-57.51c-12.87 0-21.18 5.29-21.18 14.36 0 8.33 8.31 13.63 21.18 13.63h13.64c6.05 0 9.08 3.77 9.08 6.8 0 3.04-3.02 6.06-9.08 6.06h-40.11V70.68h-15.9l-21.94 37.84-21.19-37.84H271.7v41.61h-6.06L243.7 70.68h-18.92l-22.7 41.61h-24.22c-4.53 0-9.06-2.26-9.06-6.05v-7.56h31.02V91.1H168.8v-6.05c0-1.5.75-3.01 2.27-3.78h-17.4c0 1.51-.76 2.27-.76 3.78v21.19c0 6.82 8.32 14.38 21.18 14.38h40.12l5.28-10.59h28.76l5.32 10.59h32.52V94.9l15.14 25.72h15.89l15.13-25.72v25.72h58.26c14.39 0 21.95-7.56 21.95-15.14 0-7.55-5.29-15.13-22.7-15.13h-13.61c-4.54 0-8.33-3.01-8.33-5.3 0-3.01 3.79-5.3 8.33-5.3h40.1v19.69c0 12.85 12.86 21.18 31.79 20.42 18.92 0 29.5-6.8 29.5-20.42V78.99h15.14l34.05 40.86h17.4V70.68h-14.38v35.56zm-295.85-4.55h-9.09l9.09-17.39 9.83 17.39h-9.83z" class="st1"/><path d="M490.37 81.27h-7.56v38.59h14.36V88.83l-6.03-7.56zm-278.46-2.28l4.55-8.31H100.69v8.31h18.91v40.87h17.41V78.99h47.67zm352.34-25.28c-4.23 0-7.68 3.45-7.68 7.69s3.45 7.69 7.68 7.69c2.36 0 4.45-1.06 5.86-2.72h.03v-.02c1.14-1.35 1.82-3.07 1.82-4.96-.01-4.23-3.46-7.68-7.71-7.68zm-4.34 12.35c-1.24-1.16-2.03-2.83-2.03-4.66 0-1.86.79-3.52 2.03-4.68v9.34zm4.34 1.69c-.98 0-1.93-.24-2.76-.61v-5.16h1.78c.38 0 .66.02.82.06.24.04.49.12.7.26.26.11.5.34.81.66.28.32.64.76 1.1 1.36l1.51 2.04c-1.06.89-2.45 1.39-3.96 1.39zm-2.76-6.9v-3.3h3.65c.85 0 1.48.16 1.88.46.4.32.62.7.62 1.16 0 .32-.12.62-.32.88-.19.28-.5.49-.89.62-.39.12-.96.18-1.65.18h-3.29zm7.84 4.41l-1.18-1.57c-.41-.54-.83-.98-1.28-1.33-.21-.14-.51-.32-.93-.47 1.11-.15 1.93-.44 2.47-.94.55-.47.8-1.06.8-1.78 0-.55-.15-1.04-.47-1.5-.34-.44-.77-.75-1.3-.94-.56-.18-1.33-.26-2.37-.26h-4.86c1.1-.9 2.51-1.44 4.03-1.44 3.54 0 6.4 2.83 6.4 6.37 0 1.46-.5 2.79-1.31 3.86z" class="st1"/></svg>