<?xml version="1.0" encoding="utf-8"?>
<!-- Generator: Adobe Illustrator 21.1.0, SVG Export Plug-In . SVG Version: 6.00 Build 0)  -->
<svg version="1.1" id="Layer_1" xmlns="http://www.w3.org/2000/svg" xmlns:xlink="http://www.w3.org/1999/xlink" x="0px" y="0px"
	 viewBox="0 0 288 222" style="enable-background:new 0 0 288 222;" xml:space="preserve">
<style type="text/css">
	.st0{fill:#00A1FF;}
	.st1{fill:#00C4D6;}
	.st2{fill:#006EFF;}
</style>
<g>
	<g>
		<path d="M197.7,200.6c0-0.2-0.2-0.3-0.4-0.2c-2.5,2.8-6.3,5-11,5c-7.1,0-11.7-4.9-11.7-12.5c0-7.7,4.4-12.5,11.4-12.5
			c4.1,0,8.3,1.9,10.9,4.6c0.2,0.2,0.4,0,0.4-0.2V181c-2.9-2.6-7-4.2-11.3-4.2c-4.4,0-8.2,1.6-10.8,4.5s-4,6.9-4,11.7
			c0,9.7,6.1,16.2,15.1,16.2c4.3,0,8.5-1.6,11.4-4.3L197.7,200.6L197.7,200.6z"/>
		<polygon points="4.7,177.6 4.7,181 15.3,181 15.3,208.3 18.9,208.3 18.9,181 29.6,181 29.6,177.6 		"/>
		<path d="M279,188.1c-1.9-2.1-5.1-2.8-7.3-2.8c-3.1,0-5.8,1.1-7.7,3.2c-2,2.1-3,5.1-3,8.5c0,8.2,5.4,11.8,10.8,11.8
			c3.1,0,5.7-1.1,7.3-3.1v2.6h3.6v-30.8H279V188.1z M278.9,197.1c0,4.2-2.4,8.4-7.1,8.4c-3.5,0-7.3-2.6-7.3-8.3c0-4.2,2.2-8.7,7-8.7
			C277,188.6,278.9,193.2,278.9,197.1z"/>
		<rect x="202.5" y="177.7" width="3.7" height="30.7"/>
		<path d="M95.6,202.7c0-0.2-0.2-0.3-0.4-0.2c-2.4,2.2-5.9,3-7.4,3c-4.9,0-8.1-3.3-8.1-8.4s3.2-8.4,8.1-8.4c1.5,0,4.9,0.4,7.4,2.6
			c0.2,0.1,0.3,0,0.3-0.2v-3.4c-1.5-0.9-4.7-2.4-8-2.4c-6.8,0-11.4,4.7-11.4,11.8s4.6,11.8,11.4,11.8c2.8,0,5.6-0.8,8-2.4
			L95.6,202.7L95.6,202.7z"/>
		<path d="M47.5,202c0-0.2-0.3-0.3-0.4-0.1c-1.6,2.1-5.6,3.9-7.9,3.9c-2.3,0-4.5-0.7-5.6-2c-1.4-1.5-2.2-3.5-2.2-5.6h17.2v-0.3
			c0-4.9-0.8-7.6-3-9.8c-1.8-1.8-4.2-2.8-7.2-2.8c-6.4,0-10.6,4.6-10.6,11.7c0.2,7.4,4.5,11.8,11.3,11.8c3.3,0,6-1.1,8.5-3.3
			L47.5,202L47.5,202z M45.1,195H31.4v-0.1c0.2-1.9,1-3.6,2.5-4.9c1.2-1,2.8-1.5,4.4-1.5C42.3,188.5,44.9,191,45.1,195L45.1,195z"/>
		<path d="M253.1,197.3c0,6.1-3.5,8.3-6.6,8.3c-2.9,0-6.1-2-6.1-5.8v-13.9H237v13.9c0,5.4,3.8,9.2,9.4,9.2c3.1,0,5.4-1,7-3v2.4h3.3
			v-22.5h-3.5L253.1,197.3L253.1,197.3z"/>
		<path d="M63,185.3c-2.8,0-5.2,0.9-6.8,2.7v-2.1h-3.5v22.5h3.5v-12.9c0-2.1,0.7-3.9,1.8-5.1c1.3-1.2,2.8-1.8,4.8-1.7
			c2.8,0.1,5.6,1.9,5.6,5.9v13.8H72v-14c0-2.8-0.9-5.1-2.6-6.7C67.9,186.1,65.6,185.3,63,185.3z"/>
		<path d="M118.7,202c0-0.2-0.3-0.3-0.4-0.1c-1.6,2.1-5.6,3.9-7.9,3.9s-4.5-0.7-5.6-2c-1.4-1.5-2.2-3.5-2.2-5.6h17.2v-0.3
			c0-4.9-0.8-7.6-3-9.8c-1.8-1.8-4.2-2.8-7.2-2.8c-6.4,0-10.6,4.6-10.6,11.7c0.2,7.4,4.5,11.8,11.3,11.8c3.3,0,6-1.1,8.5-3.3
			L118.7,202L118.7,202z M116.3,195h-13.7v-0.1c0.2-1.9,1-3.6,2.5-4.9c1.2-1,2.8-1.5,4.4-1.5C113.4,188.5,116,191,116.3,195
			L116.3,195z"/>
		<path d="M134.1,185.3c-2.8,0-5.2,0.9-6.8,2.7v-2.1h-3.5v22.5h3.5v-12.9c0-2.1,0.7-3.9,1.8-5.1c1.3-1.2,2.8-1.8,4.8-1.7
			c2.8,0.1,5.6,1.9,5.6,5.9v13.8h3.5v-14c0-2.8-0.9-5.1-2.6-6.7C139,186.1,136.8,185.3,134.1,185.3z"/>
		<path d="M154.7,208.7c2.1-0.1,4.6-1,4.6-1v-3.4c0-0.2-0.2-0.3-0.3-0.2c-0.9,0.3-2.8,0.9-3.8,1c-0.4,0.1-0.7,0.1-0.9-0.1
			c-0.2-0.2-0.2-0.3-0.2-0.7v-15.1h6.5v-3.3h-6.5v-6.1h-3.7v6h-3.7v3.3h3.7v15.5c0,1.3,0.4,2.4,1.2,3.1
			C152.4,208.3,153.5,208.7,154.7,208.7z"/>
		<path d="M222.1,185.3c-6.5,0-10.9,4.7-10.9,11.8c0,7,4.4,11.8,10.9,11.8s10.9-4.7,10.9-11.8C233,190.1,228.6,185.3,222.1,185.3z
			 M214.5,197.1L214.5,197.1c0-5,3-8.3,7.5-8.3s7.5,3.4,7.5,8.4s-3,8.4-7.5,8.4C217.6,205.5,214.5,202.1,214.5,197.1z"/>
	</g>
	<g>
		<path class="st0" d="M227.9,79.4c-8.1-8.3-19.4-13.5-32-13.5c-10.8,0-20.2,3.8-28.4,10.4c-3.6,2.9-7.3,6.3-12,10.9
			c-2.4,2.2-70,68-70,68c3.6,0.5,8.4,0.6,12.8,0.7c4.1,0,81.9,0,85.2,0c6.5,0,10.8,0,15.4-0.3c10.5-0.8,20.4-4.6,28.4-12.5
			C245,125.6,245.3,97.2,227.9,79.4 M214.9,130.5c-3.5,3.4-9.6,7.3-19.7,7.7c-4.7,0.2-10.1,0.2-12.7,0.2h-54.3
			c19.7-19.2,37-36,38.9-37.8c1.8-1.7,5.8-5.6,9.3-8.7c7.7-6.8,14.5-8.3,19.3-8.2c7.6,0.1,14.5,3.2,19.5,8.2
			C225.9,102.6,225.7,119.9,214.9,130.5"/>
		<path class="st1" d="M118.7,75.2c-8-5.9-16.9-9.3-27-9.3c-12.6,0-23.9,5.2-32,13.5c-17.4,17.8-17.2,46.2,0.7,63.7
			c7.2,7.1,15.8,10.8,25,12.2l17.5-16.9c-2.9,0-6.8-0.1-10.4-0.2c-10.1-0.3-16.3-4.2-19.7-7.7c-10.8-10.6-11.1-27.9-0.5-38.7
			c4.9-5,11.9-8.1,19.5-8.2c4.8,0,11.2,1.3,18.6,7.5c3.5,2.9,11.2,9.7,14.6,12.8c0.2,0.2,0.4,0.2,0.6,0l12-11.8
			c0.2-0.2,0.2-0.5,0-0.6C131.7,86.1,123.6,78.9,118.7,75.2"/>
		<path class="st2" d="M200.6,55.8c-8.3-23.4-30.7-40.2-56.8-40.2c-30.2,0-55.1,22.1-59.6,50.9c2.5-0.4,4.9-0.6,7.5-0.6
			c3.6,0,7,0.4,10.1,1.2c0.1,0,0.1,0,0.2,0c4.1-19.4,21.3-33.9,41.7-33.9c17.1,0,32,10.3,38.7,24.8c0.1,0.2,0.3,0.3,0.5,0.3
			c5.1-1.4,11.1-2.2,17-1.7C200.5,56.6,200.7,56.3,200.6,55.8"/>
	</g>
</g>
</svg>
