<svg xmlns="http://www.w3.org/2000/svg" role="img" xmlns:xlink="http://www.w3.org/1999/xlink" viewBox="-3.72 -3.97 206.18 76.18"><title>Tensor Security logo</title><defs><linearGradient id="a" x1="19.02" x2="41.99" y1="6.21" y2="5.2" gradientUnits="userSpaceOnUse"><stop offset="0" stop-color="#2ca6e0"/><stop offset="1" stop-color="#036eb7"/></linearGradient><linearGradient id="b" x1="40.88" x2="55.06" y1="5.56" y2="5.56" xlink:href="#a"/><linearGradient id="c" x1="27.01" x2="26.74" y1="8.02" y2="14.48" xlink:href="#a"/><linearGradient id="d" x1="55.2" x2="55.1" y1="5.69" y2="12.12" xlink:href="#a"/><linearGradient id="e" x1="41.27" x2="41" y1="3.87" y2="10.7" gradientUnits="userSpaceOnUse"><stop offset=".04" stop-color="#2ca6e0"/><stop offset="1" stop-color="#036eb7"/></linearGradient><linearGradient id="f" x1="15.27" x2="39.46" y1="38.17" y2="37.98" xlink:href="#a"/><linearGradient id="g" x1="40.88" x2="65.42" y1="37.97" y2="37.97" xlink:href="#a"/></defs><g data-name="图层 2"><g data-name="图层 1"><path fill="#231815" d="M93 57.4v-12h-3.95v-1.61h9.45v1.61h-3.94v12zm11-3.17l1.52.21a4.3 4.3 0 0 1-1.33 2.35 4.07 4.07 0 0 1-5.47-.5 5.68 5.68 0 0 1-1.11-3.74 6 6 0 0 1 1.12-3.86 3.6 3.6 0 0 1 2.91-1.37 3.49 3.49 0 0 1 2.83 1.35 5.83 5.83 0 0 1 1.1 3.78v.45h-6.46a4.12 4.12 0 0 0 .8 2.49 2.3 2.3 0 0 0 1.81.86 2 2 0 0 0 1.37-.48 3.29 3.29 0 0 0 .91-1.54zm-4.8-2.71h4.8a3.63 3.63 0 0 0-.55-1.86 2.16 2.16 0 0 0-1.81-1 2.19 2.19 0 0 0-1.7.77 3.28 3.28 0 0 0-.75 2.09zm8.14 5.88v-9.86h1.32v1.4a3 3 0 0 1 2.75-1.62 3.23 3.23 0 0 1 1.43.32 2.21 2.21 0 0 1 1 .84 3.54 3.54 0 0 1 .46 1.23 11.72 11.72 0 0 1 .08 1.63v6.06h-1.48v-6a5.15 5.15 0 0 0-.17-1.52 1.6 1.6 0 0 0-.61-.81 1.75 1.75 0 0 0-1-.3 2.17 2.17 0 0 0-1.61.68 3.6 3.6 0 0 0-.68 2.57v5.38zm8.66-2.94l1.45-.26a2.42 2.42 0 0 0 .67 1.52 2.2 2.2 0 0 0 1.56.53 2.12 2.12 0 0 0 1.5-.47 1.5 1.5 0 0 0 .49-1.1 1.05 1.05 0 0 0-.44-.89 5.64 5.64 0 0 0-1.49-.57 12.18 12.18 0 0 1-2.23-.8 2.33 2.33 0 0 1-1-.94 2.8 2.8 0 0 1-.32-1.32 2.76 2.76 0 0 1 .27-1.22 2.46 2.46 0 0 1 .72-.93 2.69 2.69 0 0 1 .93-.49 4 4 0 0 1 1.26-.2 4.54 4.54 0 0 1 1.79.33 2.5 2.5 0 0 1 1.13.91 3.88 3.88 0 0 1 .5 1.53l-1.43.22a1.86 1.86 0 0 0-.56-1.19 1.9 1.9 0 0 0-1.32-.43 2.18 2.18 0 0 0-1.44.38 1.17 1.17 0 0 0-.43.9 1 1 0 0 0 .18.58 1.3 1.3 0 0 0 .56.45q.21.09 1.29.42a17.58 17.58 0 0 1 2.17.78 2.25 2.25 0 0 1 1 .87 2.75 2.75 0 0 1 .35 1.43 3.08 3.08 0 0 1-.43 1.58 2.84 2.84 0 0 1-1.23 1.14 4 4 0 0 1-1.82.4 3.68 3.68 0 0 1-2.57-.8 3.89 3.89 0 0 1-1.11-2.36zm8.38-1.99a5.46 5.46 0 0 1 1.34-4 3.73 3.73 0 0 1 2.71-1.1 3.62 3.62 0 0 1 2.91 1.33 5.49 5.49 0 0 1 1.13 3.68 7.17 7.17 0 0 1-.5 3 3.82 3.82 0 0 1-3.54 2.3 3.64 3.64 0 0 1-2.93-1.33 5.78 5.78 0 0 1-1.12-3.88zm1.51 0a4.66 4.66 0 0 0 .72 2.84 2.23 2.23 0 0 0 3.64 0 4.73 4.73 0 0 0 .72-2.88 4.42 4.42 0 0 0-.73-2.77 2.22 2.22 0 0 0-3.63 0 4.63 4.63 0 0 0-.72 2.81zm8.28 4.93v-9.86h1.32V49a4.29 4.29 0 0 1 .93-1.39 1.5 1.5 0 0 1 .94-.33 2.6 2.6 0 0 1 1.5.54l-.5 1.55a1.93 1.93 0 0 0-1.07-.36 1.31 1.31 0 0 0-.87.33 1.84 1.84 0 0 0-.54.91 7.44 7.44 0 0 0-.24 2v5.15zm5.21-4.4l1.49-.15a4.17 4.17 0 0 0 .49 1.67 2.79 2.79 0 0 0 1.2 1.06 4.29 4.29 0 0 0 3.43.1 2.16 2.16 0 0 0 1-.84 2.09 2.09 0 0 0 .34-1.16 2 2 0 0 0-.32-1.12 2.48 2.48 0 0 0-1.08-.81 19.31 19.31 0 0 0-2.12-.66 9.84 9.84 0 0 1-2.3-.85 3.3 3.3 0 0 1-1.69-3 3.78 3.78 0 0 1 .51-1.92 3.26 3.26 0 0 1 1.5-1.36 5 5 0 0 1 2.18-.47 5.23 5.23 0 0 1 2.34.49 3.44 3.44 0 0 1 1.56 1.43 4.5 4.5 0 0 1 .58 2.15l-1.51.13a2.56 2.56 0 0 0-2.9-2.61 3.05 3.05 0 0 0-2.09.6 1.9 1.9 0 0 0-.65 1.44 1.66 1.66 0 0 0 .46 1.21 6 6 0 0 0 2.38 1 15.16 15.16 0 0 1 2.64.86 3.82 3.82 0 0 1 1.54 1.39 3.76 3.76 0 0 1 .49 1.94 4.1 4.1 0 0 1-.54 2 3.85 3.85 0 0 1-1.57 1.5 4.92 4.92 0 0 1-2.29.53 6.13 6.13 0 0 1-2.72-.54 3.93 3.93 0 0 1-1.73-1.54 5.08 5.08 0 0 1-.62-2.47zm17.37 1.23l1.51.21a4.35 4.35 0 0 1-1.32 2.35 4.08 4.08 0 0 1-5.48-.5 5.68 5.68 0 0 1-1.11-3.74 6 6 0 0 1 1.12-3.86 3.6 3.6 0 0 1 2.91-1.37 3.47 3.47 0 0 1 2.83 1.35 5.83 5.83 0 0 1 1.1 3.78v.45h-6.44a4.19 4.19 0 0 0 .81 2.49 2.26 2.26 0 0 0 1.8.86 2.07 2.07 0 0 0 1.38-.48 3.29 3.29 0 0 0 .89-1.54zm-4.81-2.71h4.83a3.63 3.63 0 0 0-.56-1.86 2.15 2.15 0 0 0-1.81-1 2.21 2.21 0 0 0-1.7.77 3.34 3.34 0 0 0-.76 2.09zm13.79 2.27l1.44.21a4.43 4.43 0 0 1-1.17 2.66 3.24 3.24 0 0 1-2.38 1 3.5 3.5 0 0 1-2.85-1.32 5.86 5.86 0 0 1-1.08-3.79 7.71 7.71 0 0 1 .47-2.8 3.5 3.5 0 0 1 1.41-1.79 3.75 3.75 0 0 1 2.06-.6 3.31 3.31 0 0 1 2.3.81 3.85 3.85 0 0 1 1.07 2.27l-1.42.25a2.78 2.78 0 0 0-.72-1.5 1.74 1.74 0 0 0-1.25-.5 2.17 2.17 0 0 0-1.79.91 4.74 4.74 0 0 0-.69 2.86 5 5 0 0 0 .66 2.89 2.08 2.08 0 0 0 1.74.9 1.9 1.9 0 0 0 1.44-.6 3.19 3.19 0 0 0 .76-1.86zm8.35 3.61V56a3.06 3.06 0 0 1-2.74 1.67 3.12 3.12 0 0 1-1.42-.33 2.38 2.38 0 0 1-1-.84 3.56 3.56 0 0 1-.45-1.24 9.64 9.64 0 0 1-.09-1.56v-6.16h1.47V53a12.87 12.87 0 0 0 .08 1.76 1.83 1.83 0 0 0 .59 1 1.67 1.67 0 0 0 1.11.37 2.23 2.23 0 0 0 1.23-.38 2.08 2.08 0 0 0 .82-1 5.93 5.93 0 0 0 .24-1.93v-5.28h1.46v9.86zm3.59 0v-9.86H179V49a4.13 4.13 0 0 1 .94-1.39 1.48 1.48 0 0 1 .94-.33 2.6 2.6 0 0 1 1.5.54l-.5 1.55a1.94 1.94 0 0 0-1.08-.36 1.27 1.27 0 0 0-.86.33 1.78 1.78 0 0 0-.55.91 7.44 7.44 0 0 0-.24 2v5.15zm5.57-11.69v-1.92h1.46v1.92zm0 11.69v-9.86h1.46v9.86zm6.88-1.5l.21 1.48a4.72 4.72 0 0 1-1.1.15 2.3 2.3 0 0 1-1.24-.29 1.47 1.47 0 0 1-.61-.76 6.68 6.68 0 0 1-.18-2v-5.64h-1.08v-1.3h1.08V45.1l1.45-1v3.44h1.47v1.3h-1.47v5.77a3.25 3.25 0 0 0 .08.91.64.64 0 0 0 .25.33.88.88 0 0 0 .5.12 3.51 3.51 0 0 0 .64-.07zm1.37 5.29l-.16-1.56a2.76 2.76 0 0 0 .83.14 1.45 1.45 0 0 0 .78-.18 1.34 1.34 0 0 0 .48-.52 8.38 8.38 0 0 0 .45-1.24l.13-.41-3.28-9.88h1.58l1.8 5.71c.23.72.44 1.49.62 2.28.17-.76.37-1.51.61-2.24l1.84-5.75h1.46l-3.28 10a22.15 22.15 0 0 1-.82 2.23 3.13 3.13 0 0 1-.9 1.21 1.88 1.88 0 0 1-1.2.39 2.51 2.51 0 0 1-.94-.18zM98.43 26.14c-.87.31-1.73.58-2.63.88v6.81c0 1.46-.28 2.22-1.13 2.69s-2 .6-3.81.6a11.34 11.34 0 0 0-.86-2.85h2.3c.3 0 .47-.09.47-.44V28l-2.36.79-.85-3.12c.9-.25 2-.55 3.21-.91v-4.85H90v-3h2.83v-5.2h3v5.18H98v3h-2.2v3.93l2.06-.63zm11.29 1.79a16.56 16.56 0 0 0 5.62 5.16 12.15 12.15 0 0 0-2.16 2.52 19.86 19.86 0 0 1-5.11-5.51V37H105v-6.85a17 17 0 0 1-6 5.63 14.12 14.12 0 0 0-2-2.47 14.9 14.9 0 0 0 6.29-5.38h-4.64V25H105v-2.7h3.1V25h6.45v2.91zm-3.76-10a22.5 22.5 0 0 1-5.52 6.26 19.2 19.2 0 0 0-2.23-2.31 15.39 15.39 0 0 0 4.86-4.88zm-4.62.63h-2.63V13h15.65v5.4h-2.78v-2.66h-10.24zm8-1.87a36.58 36.58 0 0 1 5.19 5.46L112 23.92a32.31 32.31 0 0 0-5-5.63zm25.43 15.6a57.6 57.6 0 0 1 7.58 2.86l-2.72 2.19a45.33 45.33 0 0 0-7.9-3.23l1.75-1.82h-8l2.52 1.79a32.62 32.62 0 0 1-8.29 3.29 21.13 21.13 0 0 0-2.22-2.22 29.67 29.67 0 0 0 7.63-2.86h-7.49V29.6h3.65V17.52h6.56q.12-.57.24-1.23h-9.71v-2.72h10.1c0-.68.14-1.34.16-1.92l3.43.33-.27 1.59h9.58v2.72h-10.1c-.11.44-.17.85-.25 1.23h7.47V29.6h3.54v2.69zm-10.32-12.73v1.18h10.76v-1.18zm10.76 3h-10.76v1h10.76zm-10.76 2.85v1.09h10.76v-1.07zm0 4.17h10.76v-1.24h-10.76zm29.04-.36a29.79 29.79 0 0 0-1.65-3v11.12h-3.15v-9.88a25.83 25.83 0 0 1-3 5.44 18.53 18.53 0 0 0-1.51-3.1 26.06 26.06 0 0 0 4.06-7.36h-3.71v-3.05h4.15v-3.1c-1.07.16-2.09.33-3.1.44a10.29 10.29 0 0 0-.88-2.53 41.09 41.09 0 0 0 8.85-2.2l1.84 2.67a24 24 0 0 1-3.55 1v3.76h3.63v3.05h-3.63v.22c.8.77 3 3.35 3.57 4zM167 30.4v6.92h-3.21V31l-8.29 1.42-.5-3.12 8.81-1.51V11.71H167v15.53l2.72-.46.52 3zm-6.89-3.82a25.18 25.18 0 0 0-4.36-4.2l2.09-1.86a24.54 24.54 0 0 1 4.5 4zm.72-7.24a20.56 20.56 0 0 0-4.09-4.12l2.14-1.87a22.3 22.3 0 0 1 4.23 4zm20.66 7.02c-1 .28-2 .55-2.94.8v6.56c0 1.59-.3 2.36-1.24 2.88a9 9 0 0 1-4.14.58 14.9 14.9 0 0 0-.93-3h2.55c.36 0 .52-.13.52-.55V28l-2.66.66-.85-3.1c1-.2 2.19-.47 3.51-.8v-4.82h-3.16v-3h3.16v-5.23h3.24v5.21h2.69v3h-2.69V24l2.52-.63zm15.2-3.7a20.07 20.07 0 0 1-5.1 9.11 18.5 18.5 0 0 0 6.34 2.77 14.29 14.29 0 0 0-2.09 2.83 19.38 19.38 0 0 1-6.84-3.46 25.21 25.21 0 0 1-7.22 3.38 13.45 13.45 0 0 0-1.76-3 20.84 20.84 0 0 0 6.56-2.69 21.58 21.58 0 0 1-3.9-6.53l.83-.25h-1.43v-2.9h5.41v-3.3h-5.9v-3h5.9v-3.94h3.24v3.92h6.15v3h-6.15v3.3H194l.58-.14zm-10.81 2.19a15.67 15.67 0 0 0 3.24 4.86 15.14 15.14 0 0 0 3.43-4.86z"/><path fill="url(#a)" d="M26.7 0h14.18v11.12H26.7z"/><path fill="url(#b)" d="M40.88 0h14.18v11.12H40.88z"/><path fill="url(#c)" d="M19.61 7.26h14.18v16.03H19.61z"/><path fill="url(#d)" d="M47.97 7.26h14.18v16.03H47.97z"/><path fill="url(#e)" d="M33.79 3.93h14.18V23.3H33.79z"/><path fill="url(#f)" d="M40.88 7.63L16.34 19.74l1.54 21.61s4.34 19.08 23 27V7.63z"/><path fill="url(#g)" d="M40.88 7.63v60.68c18.65-7.88 23-27 23-27l1.58-21.58z"/><path fill="#171c61" d="M5.84 57.47C4.59 60.4 0 61.13 0 61.13h11.68s-4.59-.73-5.84-3.66zm11.68 0c-1.25 2.93-5.84 3.66-5.84 3.66h11.68s-4.59-.73-5.84-3.66zm11.68 0c-1.25 2.93-5.84 3.66-5.84 3.66H35s-4.55-.73-5.8-3.66zm11.68 0C39.63 60.4 35 61.13 35 61.13h11.72s-4.59-.73-5.84-3.66zm11.68 0c-1.25 2.93-5.84 3.66-5.84 3.66H58.4s-4.59-.73-5.84-3.66zm11.68 0C63 60.4 58.4 61.13 58.4 61.13h11.68s-4.59-.73-5.84-3.66zm11.68 0c-1.25 2.93-5.84 3.66-5.84 3.66h11.68s-4.59-.73-5.84-3.66zM59.3 15.5L40.87 7.63 22.44 15.5c-4.78 1.83-7.1-.54-7.1-.54l1.48 11.5s.79-7.54 4.76-8.75l16.59-4.92 2.7 29.94 2.7-29.94 16.59 4.92c4 1.21 4.76 8.75 4.76 8.75L66.4 15s-2.32 2.33-7.1.5z"/></g></g></svg>