<?xml version="1.0" encoding="UTF-8"?>
<svg width="350px" height="350px" viewBox="0 0 350 350" version="1.1" xmlns="http://www.w3.org/2000/svg" xmlns:xlink="http://www.w3.org/1999/xlink">
    <!-- Generator: Sketch 43.1 (39012) - http://www.bohemiancoding.com/sketch -->
    <title>Artboard</title>
    <desc>Created with Sketch.</desc>
    <defs></defs>
    <g id="Page-1" stroke="none" stroke-width="1" fill="none" fill-rule="evenodd">
        <g id="Artboard">
            <g id="Terraform_VerticalLogo_FullColor" transform="translate(22.000000, 25.000000)">
                <path d="M7.6173913,232.878261 L7.6173913,227.347826 L2.60869565,227.347826 L2.60869565,232.852174 L0,232.852174 L0,219.626087 L2.60869565,219.626087 L2.60869565,225.182609 L7.6173913,225.182609 L7.6173913,219.626087 L10.226087,219.626087 L10.226087,232.878261 L7.6173913,232.878261 Z M19.6434783,232.878261 L17.6086957,232.878261 L17.426087,232.173913 C16.5324551,232.725038 15.5020719,233.014268 14.4521739,233.008696 C12.626087,233.008696 11.8434783,231.808696 11.8434783,230.165217 C11.8434783,228.521739 12.7304348,227.556522 14.7391304,227.556522 L17.1391304,227.556522 L17.1391304,226.565217 C17.1391304,225.495652 16.826087,225.130435 15.2347826,225.130435 C14.3059727,225.137166 13.3799658,225.233261 12.4695652,225.417391 L12.1565217,223.591304 C13.2962204,223.282735 14.471446,223.124869 15.6521739,223.121739 C18.7826087,223.121739 19.6956522,224.191304 19.6956522,226.565217 L19.6434783,232.878261 Z M17.0347826,229.278261 L15.3130435,229.278261 C14.5043478,229.278261 14.2695652,229.486957 14.2695652,230.217391 C14.2695652,230.947826 14.5043478,231.182609 15.2608696,231.182609 C15.9179311,231.172472 16.5626215,231.002345 17.1391304,230.686957 L17.0347826,229.278261 Z M24.8608696,233.086957 C23.6927136,233.070402 22.5330125,232.885904 21.4173913,232.53913 L21.7565217,230.713043 C22.725513,230.980638 23.7252179,231.120948 24.7304348,231.130435 C25.826087,231.130435 26.0086957,230.895652 26.0086957,230.165217 C26.0086957,229.434783 26.0086957,229.278261 24.2608696,228.913043 C21.8347826,228.33913 21.6521739,227.765217 21.6521739,225.913043 C21.6521739,224.06087 22.5391304,223.147826 25.3826087,223.147826 C26.383363,223.151248 27.3806906,223.264978 28.3565217,223.486957 L28.1217391,225.391304 C27.2172209,225.226837 26.3015739,225.130912 25.3826087,225.104348 C24.2869565,225.104348 24.1043478,225.33913 24.1043478,225.93913 C24.1043478,226.53913 24.1043478,226.773913 25.5130435,227.086957 C28.3043478,227.791304 28.5652174,228.156522 28.5652174,230.113043 C28.5652174,232.069565 27.8869565,233.06087 24.8869565,233.06087 L24.8608696,233.086957 Z M36.2869565,232.878261 L36.2869565,226.2 C36.2869565,225.678261 36.0521739,225.443478 35.4782609,225.443478 C34.5645318,225.54157 33.6785576,225.816222 32.8695652,226.252174 L32.8695652,232.878261 L30.2608696,232.878261 L30.2608696,219.443478 L32.8695652,219.808696 L32.8695652,224.034783 C34.0097869,223.478591 35.2539241,223.167557 36.5217391,223.121739 C38.1652174,223.121739 38.7652174,224.243478 38.7652174,225.93913 L38.7652174,232.878261 L36.2869565,232.878261 Z M40.8782609,221.973913 L40.8782609,219.626087 L43.4869565,219.626087 L43.4869565,221.973913 L40.8782609,221.973913 Z M40.8782609,232.878261 L40.8782609,223.304348 L43.4869565,223.304348 L43.4869565,232.878261 L40.8782609,232.878261 Z M45.3652174,223.408696 C45.3652174,221.008696 46.826087,219.626087 50.2173913,219.626087 C51.4652331,219.629114 52.7084468,219.777949 53.9217391,220.069565 L53.6347826,222.208696 C52.5362268,221.962363 51.4195393,221.805329 50.2956522,221.73913 C48.5217391,221.73913 47.9478261,222.33913 47.9478261,223.721739 L47.9478261,228.756522 C47.9478261,230.13913 48.5217391,230.73913 50.2956522,230.73913 C51.4159953,230.715917 52.532649,230.602507 53.6347826,230.4 L53.9217391,232.53913 C52.7084468,232.830747 51.4652331,232.979582 50.2173913,232.982609 C46.826087,232.982609 45.3652174,231.6 45.3652174,229.2 L45.3652174,223.408696 Z M59.426087,233.086957 C56.0086957,233.086957 55.0956522,231.286957 55.0956522,229.330435 L55.0956522,226.956522 C55.0956522,225 56.0086957,223.2 59.426087,223.2 C62.8434783,223.2 63.7565217,225 63.7565217,226.956522 L63.7565217,229.382609 C63.7565217,231.26087 62.8434783,233.06087 59.426087,233.06087 L59.426087,233.086957 Z M59.426087,225.26087 C58.0956522,225.26087 57.573913,225.834783 57.573913,226.904348 L57.573913,229.513043 C57.573913,230.582609 58.0956522,231.156522 59.426087,231.156522 C60.7565217,231.156522 61.2782609,230.582609 61.2782609,229.513043 L61.2782609,226.904348 C61.2782609,225.730435 60.7565217,225.156522 59.426087,225.156522 L59.426087,225.26087 Z M70.773913,225.417391 C69.8711086,225.812609 68.9991134,226.274766 68.1652174,226.8 L68.1652174,232.956522 L65.5565217,232.956522 L65.5565217,223.304348 L67.826087,223.304348 L67.826087,224.347826 C68.6386546,223.820823 69.5153456,223.400011 70.4347826,223.095652 L70.773913,225.417391 Z M80.8695652,229.565217 C81.0078295,230.47904 80.7095081,231.404809 80.063717,232.065976 C79.4179259,232.727143 78.4994308,233.047162 77.5826087,232.930435 C76.7060843,232.914972 75.8328402,232.818915 74.973913,232.643478 L74.973913,236.556522 L72.3652174,236.921739 L72.3652174,223.304348 L74.3478261,223.304348 L74.5826087,224.113043 C75.5043511,223.458879 76.6088891,223.111999 77.7391304,223.121739 C79.7478261,223.121739 80.8173913,224.269565 80.8173913,226.434783 L80.8695652,229.565217 Z M74.9217391,230.634783 C75.6506635,230.793426 76.3932903,230.880794 77.1391304,230.895652 C78.026087,230.895652 78.3913043,230.478261 78.3913043,229.617391 L78.3913043,226.382609 C78.3913043,225.6 78.0782609,225.156522 77.1652174,225.156522 C76.3498973,225.183953 75.568068,225.487486 74.9478261,226.017391 L74.9217391,230.634783 Z" id="Shape" fill="#000000" fill-rule="nonzero"></path>
                <polygon id="Shape" fill="#000000" fill-rule="nonzero" points="15.2086957 252.86087 0 252.86087 0 243.782609 40.7217391 243.782609 40.7217391 252.86087 25.5130435 252.86087 25.5130435 298.252174 15.2086957 298.252174"></polygon>
                <path d="M50.1130435,290.869565 C54.2444912,290.849869 58.3501217,290.216881 62.2956522,288.991304 L63.8608696,296.504348 C59.172355,298.221778 54.2192487,299.104685 49.226087,299.113043 C36.7043478,299.113043 32.373913,293.295652 32.373913,283.747826 L32.373913,273.313043 C32.373913,264.886957 36.1304348,257.66087 48.8869565,257.66087 C61.6434783,257.66087 64.5391304,265.095652 64.5391304,273.678261 L64.5391304,282.182609 L42.3652174,282.182609 L42.3652174,284.217391 C42.3652174,288.991304 44.0608696,290.869565 50.1130435,290.869565 Z M42.2869565,274.095652 L54.9652174,274.095652 L54.9652174,272.13913 C54.9652174,268.382609 53.8173913,265.773913 48.9130435,265.773913 C44.0086957,265.773913 42.2869565,268.382609 42.2869565,272.13913 L42.2869565,274.095652 Z" id="Shape" fill="#000000" fill-rule="nonzero"></path>
                <path d="M91.173913,266.765217 C87.5521849,268.435005 84.0637149,270.379828 80.7391304,272.582609 L80.7391304,298.252174 L70.6434783,298.252174 L70.6434783,258.417391 L79.0695652,258.417391 L79.7217391,262.826087 C82.956606,260.637662 86.4648617,258.883534 90.1565217,257.608696 L91.173913,266.765217 Z" id="Shape" fill="#000000" fill-rule="nonzero"></path>
                <path d="M115.53913,266.765217 C111.917402,268.435005 108.428932,270.379828 105.104348,272.582609 L105.104348,298.252174 L95.0086957,298.252174 L95.0086957,258.417391 L103.434783,258.417391 L104.086957,262.826087 C107.321823,260.637662 110.830079,258.883534 114.521739,257.608696 L115.53913,266.765217 Z" id="Shape" fill="#000000" fill-rule="nonzero"></path>
                <path d="M148.878261,298.226087 L140.713043,298.226087 L139.982609,295.617391 C136.457463,297.909853 132.344127,299.132981 128.13913,299.13913 C120.86087,299.13913 117.704348,294.156522 117.704348,287.295652 C117.704348,279.208696 121.226087,276.104348 129.313043,276.104348 L138.886957,276.104348 L138.886957,271.930435 C138.886957,267.521739 137.66087,265.956522 131.295652,265.956522 C127.585714,265.996311 123.889056,266.407051 120.26087,267.182609 L119.034783,259.591304 C123.479135,258.362674 128.067244,257.731041 132.678261,257.713043 C145.2,257.713043 148.878261,262.121739 148.878261,272.113043 L148.878261,298.226087 Z M138.913043,283.173913 L131.556522,283.173913 C128.295652,283.173913 127.382609,284.06087 127.382609,287.086957 C127.382609,290.113043 128.269565,291.104348 131.4,291.104348 C134.035733,291.069538 136.619986,290.369637 138.913043,289.069565 L138.913043,283.173913 Z" id="Shape" fill="#000000" fill-rule="nonzero"></path>
                <path d="M179.556522,249.33913 C177.678195,248.934753 175.764616,248.716308 173.843478,248.686957 C169.930435,248.686957 169.356522,250.408696 169.356522,253.434783 L169.356522,258.417391 L179.478261,258.417391 L178.904348,266.243478 L169.330435,266.243478 L169.330435,298.121739 L159.365217,298.121739 L159.365217,266.347826 L152.973913,266.347826 L152.973913,258.521739 L159.33913,258.521739 L159.33913,252.86087 C159.33913,244.591304 163.173913,240.521739 172.017391,240.521739 C174.917384,240.508601 177.805375,240.894836 180.6,241.669565 L179.556522,249.33913 Z" id="Shape" fill="#000000" fill-rule="nonzero"></path>
                <path d="M199.017391,299.06087 C185.373913,299.06087 181.695652,291.547826 181.695652,283.408696 L181.695652,273.33913 C181.695652,265.173913 185.373913,257.686957 199.017391,257.686957 C212.66087,257.686957 216.365217,265.2 216.365217,273.33913 L216.365217,283.408696 C216.33913,291.521739 212.66087,299.06087 199.017391,299.06087 Z M199.017391,266.113043 C193.8,266.113043 191.66087,268.486957 191.66087,272.973913 L191.66087,283.695652 C191.66087,288.182609 193.695652,290.556522 199.017391,290.556522 C204.33913,290.556522 206.373913,288.182609 206.373913,283.695652 L206.373913,272.973913 C206.373913,268.46087 204.313043,266.086957 199.017391,266.086957 L199.017391,266.113043 Z" id="Shape" fill="#000000" fill-rule="nonzero"></path>
                <path d="M242.008696,266.765217 C238.386968,268.435005 234.898498,270.379828 231.573913,272.582609 L231.573913,298.252174 L221.504348,298.252174 L221.504348,258.417391 L229.930435,258.417391 L230.582609,262.826087 C233.817476,260.637662 237.325731,258.883534 241.017391,257.608696 L242.008696,266.765217 Z" id="Shape" fill="#000000" fill-rule="nonzero"></path>
                <path d="M269.4,298.226087 L269.4,270.443478 C269.4,268.330435 268.513043,267.26087 266.217391,267.26087 C262.548484,267.670716 258.999682,268.815205 255.782609,270.626087 L255.782609,298.252174 L245.869565,298.252174 L245.869565,258.417391 L253.46087,258.417391 L254.452174,261.782609 C259.41682,259.297147 264.845672,257.875517 270.391304,257.608696 C273.537947,257.317845 276.533875,259.013457 277.904348,261.86087 C282.878662,259.316175 288.340259,257.866272 293.921739,257.608696 C300.547826,257.608696 302.921739,262.278261 302.921739,269.373913 L302.921739,298.226087 L292.956522,298.226087 L292.956522,270.443478 C292.956522,268.330435 292.069565,267.26087 289.773913,267.26087 C286.09848,267.640024 282.543568,268.786483 279.33913,270.626087 L279.33913,298.252174 L269.4,298.226087 Z" id="Shape" fill="#000000" fill-rule="nonzero"></path>
                <polygon id="Shape" fill="#5C4EE5" points="123.86087 35.5826087 179.06087 67.4608696 179.06087 131.217391 123.86087 99.3391304"></polygon>
                <polygon id="Shape" fill="#4040B2" points="185.113043 67.4608696 185.113043 131.217391 240.33913 99.3391304 240.33913 35.5826087"></polygon>
                <polygon id="Shape" fill="#5C4EE5" points="62.6086957 0 62.6086957 63.7565217 117.808696 95.6347826 117.808696 31.8782609"></polygon>
                <polygon id="Shape" fill="#5C4EE5" points="123.86087 170.06087 179.06087 201.93913 179.06087 138.626087 179.06087 138.208696 123.86087 106.330435"></polygon>
            </g>
        </g>
    </g>
</svg>