<svg xmlns="http://www.w3.org/2000/svg" role="img" xmlns:xlink="http://www.w3.org/1999/xlink" viewBox="36.45 -3.80 327.86 245.86"><defs><clipPath id="a"><path d="M297 782.84l2574-.043.01 398.159-2574 .044z"/></clipPath></defs><path fill="none" d="M0 0h400v245H0z" pointer-events="none"/><g clip-path="url(#a)" transform="matrix(.71324 0 0 -.71324 113.917 245)"><path fill="#0b8bb3" d="M117.019 326.912s12.063-64.528-2.124-189.263c35.67 2.118 73.247 1.657 83.996-8.248 0 0-13.67 132.177-84.25 214.102 0 0 1.489-5.977 2.378-16.594z"/><path fill="#0b8bb3" d="M197.031 124.963s-23.604 20.516-155.565.088c0 0 69.058 5.878 105.677 4.053 30.608-1.527 47.111-7.298 49.548-15.364 0 0 7.23 6.19.34 11.223"/><path fill="#9acce8" d="M116.602 285.643l.005.89-.436-.852c-4.645-40.114-22.57-97.685-74.79-156.325 0 0 32.008 5.479 66.874 7.867 1.91 13.168 10.35 76.272 8.347 148.42"/><path fill="#0b8bb3" d="M30.2 56.928l-8.065 21.817L14.8 56.928zM1.692 35.294l20.17 58.117h.731l22-58.117h-6.6L31.67 51.98H13.52L8.017 35.294zm48.172 57.107h5.042l14.118-27.956 14.39 28.05h4.855v-57.2H82.22v43.082L69.847 55.371h-2.475l-11.55 22.731V35.294h-5.958zm49.042-57.107V92.4h7.424c0-.426-.136-.914-.412-1.464a3.66 3.66 0 0 1-.412-1.65V35.294zm17.233 57.107h7.06c.06-.062.09-.15.09-.274 0-.184-.075-.428-.23-.73-.15-.31-.257-.705-.318-1.196V67.926h22.366v24.475h7.054c.064-.062.092-.15.092-.274 0-.245-.092-.504-.27-.778a2.368 2.368 0 0 1-.367-.962V35.205h-6.603v27.407H122.74V35.294h-6.602zm68.979-35.473l-8.068 21.817-7.33-21.817zM156.61 35.294l20.167 58.117h.736l21.996-58.117h-6.6l-6.323 16.686h-18.153l-5.497-16.686zm47.162 0V92.4h6.235l24.013-42.347v42.44h6.786c0-.367-.11-.764-.322-1.192a2.797 2.797 0 0 1-.32-1.282V35.294h-5.04l-25.21 44.915V35.294z"/></g><g clip-path="url(#a)" transform="matrix(.71324 0 0 -.71324 113.917 245)"><path fill="#0b8bb3" d="M117.019 326.912s12.063-64.528-2.124-189.263c35.67 2.118 73.247 1.657 83.996-8.248 0 0-13.67 132.177-84.25 214.102 0 0 1.489-5.977 2.378-16.594z"/><path fill="#0b8bb3" d="M197.031 124.963s-23.604 20.516-155.565.088c0 0 69.058 5.878 105.677 4.053 30.608-1.527 47.111-7.298 49.548-15.364 0 0 7.23 6.19.34 11.223"/><path fill="#9acce8" d="M116.602 285.643l.005.89-.436-.852c-4.645-40.114-22.57-97.685-74.79-156.325 0 0 32.008 5.479 66.874 7.867 1.91 13.168 10.35 76.272 8.347 148.42"/><path fill="#0b8bb3" d="M30.2 56.928l-8.065 21.817L14.8 56.928zM1.692 35.294l20.17 58.117h.731l22-58.117h-6.6L31.67 51.98H13.52L8.017 35.294zm48.172 57.107h5.042l14.118-27.956 14.39 28.05h4.855v-57.2H82.22v43.082L69.847 55.371h-2.475l-11.55 22.731V35.294h-5.958zm49.042-57.107V92.4h7.424c0-.426-.136-.914-.412-1.464a3.66 3.66 0 0 1-.412-1.65V35.294zm17.233 57.107h7.06c.06-.062.09-.15.09-.274 0-.184-.075-.428-.23-.73-.15-.31-.257-.705-.318-1.196V67.926h22.366v24.475h7.054c.064-.062.092-.15.092-.274 0-.245-.092-.504-.27-.778a2.368 2.368 0 0 1-.367-.962V35.205h-6.603v27.407H122.74V35.294h-6.602zm68.979-35.473l-8.068 21.817-7.33-21.817zM156.61 35.294l20.167 58.117h.736l21.996-58.117h-6.6l-6.323 16.686h-18.153l-5.497-16.686zm47.162 0V92.4h6.235l24.013-42.347v42.44h6.786c0-.367-.11-.764-.322-1.192a2.797 2.797 0 0 1-.32-1.282V35.294h-5.04l-25.21 44.915V35.294z"/></g><g clip-path="url(#a)" transform="matrix(.41157 0 0 -.41157 26.751 245)"><path fill="#808184" fill-rule="evenodd" d="M300.764 305.537c0 12.702-6.938 21.309-18.91 21.309H269.45v-42.41h13.373c11.435 0 17.94 8.506 17.94 21.1m20.168.21c0-21.937-14.92-36.844-39.401-36.844h-31.82v73.586h32.573c23.946 0 38.648-14.907 38.648-36.742m61.406 36.741l-.108-15.326h-36.672v-16.374h33.866v-15.326h-33.866v-26.558h-19.738v73.584zm22.613-36.845c0-11.967 9.598-21.204 20.815-21.204 11.327 0 20.386 9.237 20.386 21.204s-9.059 20.994-20.386 20.994c-11.323 0-20.815-9.027-20.815-20.994m61.477.104c0-21.518-17.47-37.683-40.876-37.683-23.405 0-40.877 16.165-40.877 37.683 0 21.416 17.472 37.266 40.877 37.266 23.406 0 40.876-15.956 40.876-37.266m24.622 36.741v-57.209h32.034v-16.375h-51.771v73.584zm86.718-73.584l-19.631 28.447-9.707-10.497v-17.95h-19.74v73.583h19.74v-30.86l28.366 30.86h22.866l-28.042-30.44 29.768-43.143z"/><path fill="#808184" fill-rule="evenodd" d="M633.85 327.686c-4.746 0-7.874-1.678-7.874-5.038 0-12.177 39.799-5.248 39.799-31.7 0-15.012-13.59-22.675-30.417-22.675-9.101 0-19.132 2.683-27.054 6.708-3.061 1.558-5.257 3.03-7.784 5.049l7.659 15.01c7.766-6.508 19.522-11.126 27.397-11.126 5.824 0 9.49 2.099 9.49 5.983 0 12.49-39.798 4.934-39.798 30.966 0 13.752 11.97 22.465 30.198 22.465 11.109 0 22.326-3.36 30.199-8.294l-7.442-15.221c-7.98 4.41-18.12 7.873-24.373 7.873m53.709-50.49c0-5.354-3.881-9.133-9.274-9.133-5.393 0-9.167 3.779-9.167 9.133 0 5.354 3.774 9.027 9.167 9.027s9.274-3.673 9.274-9.027"/><path fill="#119981" fill-rule="evenodd" d="M222.448 288.783v11.536h-17.926c-6.965 0-10.445-2.44-10.445-7.59 0-5.013 3.759-8.27 10.166-8.27 8.743 0 12.502-1.227 18.205 4.324m-41.673 49.372c9.574 3.588 19.62 5.26 29.872 5.26 20.748 0 32.865-9.758 33.003-26.564v-47.705h-21.202s-16.671-.243-26.837-.243c-9.693 0-23.205 8.648-23.205 22.064 0 13.96 8.583 21.954 27.242 22.227h22.8v.81c0 9.624-8.04 10.98-17.51 10.98-6.264 0-16.065-2.034-24.14-5.828z"/><path fill="#808184" d="M155.316 339.323h6.321v-1.181h-2.482v-6.628h-1.367v6.628h-2.472zm8.301 0h1.925l2.155-6.113h.022l2.1 6.113h1.902v-7.809h-1.3v6.026h-.023l-2.166-6.026h-1.126l-2.165 6.026h-.022v-6.026h-1.302z"/></g><g transform="translate(-60.016 -25.282) scale(1.52929)"><defs><path id="b" d="M116 5h98v70h-98V5z"/></defs><clipPath id="c"><use overflow="visible" xlink:href="#b"/></clipPath><g clip-path="url(#c)"><defs><path id="d" d="M130.684 18.299H558.51V78.38H130.684V18.299z"/></defs><clipPath id="e"><use overflow="visible" xlink:href="#d"/></clipPath><path fill="#231F20" d="M157.129 18.353c1.2.101 3.077.693 4.495 1.933 1.505 1.46 1.846 3.68 1.322 5.687-.471 1.803-.995 2.728-2.829 3.973-1.849 1.251-4.086 1.15-4.086 1.15v7.772l3.782 3.06-3.782 3.055v10.59s3.79-2.17 6.137-7.039c0 0 .102-.259.319-.761.211 1.302.09 3.934-1.381 7.321-1.113 2.553-3.131 5.01-5.67 6.408-4.492 2.491-7.859 2.728-11.472 1.984-4.224-.874-8.065-3.246-10.683-7.394-1.843-2.908-2.666-6.307-2.593-9.959.146-7.169 5.481-13.351 11.638-15.656.749-.287 1.045-.462 2.111-.563-.487.332-1.054.766-1.75 1.223-1.984 1.296-3.683 3.894-4.407 5.895l11.951-5.337v16.71l-9.64 4.836c1.102 1.516 4.438 3.827 7.29 4.142 4.858.541 7.704-1.578 7.704-1.578V44.982l-3.762-3.055 3.768-3.049v-7.783c-2.054-.248-4.548-.919-6.008-1.285-2.142-.524-9.288-2.536-10.412-2.7-1.121-.169-2.508-.118-3.345.631-.837.761-1.356 2.091-.998 3.286.2.676.665 1.071 1.02 1.46 0 0-.417-.034-1.164-.485-1.35-.806-2.376-2.39-2.5-4.34-.158-2.564.899-4.864 3.01-6.419 1.832-1.184 3.908-1.933 6.323-1.589 3.517.496 8.251 2.485 12.464 3.5 1.632.395 2.897.524 4.047-.141.533-.383 1.477-1.381.704-2.7-.896-1.556-2.615-1.51-4.075-1.787 1.258-.263 1.531-.263 2.472-.173zm-14.208 33.223V35.435l-4.852 2.17s-1.24 2.767-1.023 6.786c.172 3.139 1.93 6.904 3.28 8.471l2.595-1.286" clip-path="url(#e)"/><path fill="#231F20" d="M203.485 34.646s-3.663 2.22-6.124 3.691c-2.463 1.46-5.765 3.072-5.765 3.072v15.397l-2.204 1.77.29.338 2.147-1.725 6.738 6.081L210.273 54l-.282-.338-6.464 5.078-5.318-4.976v-1.86l10.68-7.851-5.404-9.407zm.154 12.72l-5.43 3.979V38.112l5.43 9.254m-30.833 21.693c1.533.383 4.246.592 7.515-1.048 3.618-1.809 5.438-5.653 5.413-9.598l.155-5.58V40.626l2.314-1.77-.27-.338-2.274 1.713-5.258-5.844-6.74 5.794v-19.67l-8.423 6.504c.375.242 1.567.462 1.603 2.136V56.71l-3.567 2.649.242.366 1.725-1.285 4.799 4.464 7.546-6.013-.273-.338-1.773 1.403-1.879-1.865.02-15.352 2.198-1.871 3.28 4.075s-.003 9.936.006 13.239c-.028 3.517-.037 7.907-1.888 10.021-1.851 2.134-2.592 2.298-4.471 2.856m52.402-1.386c-3.018-.35-4.283-2.176-4.249-3.618.022-.918.862-2.733 2.694-2.981 1.834-.259 3.711.603 5.289 2.469l6.969-7.699-.332-.304-1.874 2.096c-1.899-2.164-4.602-3.528-7.285-3.922V30.25l18.097 32.97s.175.377.919.377c.637 0 .482-.518.482-.518l-.003-33.173c1.477-.068 3.717-.873 4.81-1.995 3.486-3.579 2.06-7.49 1.674-7.862-.209 1.708-1.524 3.421-3.714 3.438-2.874 0-4.624-2.119-4.624-2.119l-6.966 7.935.332.304 1.998-2.283c2.435 2.237 4.213 2.457 6.053 2.581l-.003 19.241-13.425-24.38c-1.215-2.018-3.06-3.787-5.966-3.81-3.333-.022-5.72 2.919-6.008 5.45-.318 2.863.037 3.517.037 3.517s.49-3.179 2.46-3.156c1.77.028 2.694 1.657 3.399 2.88v7.067c-1.821.118-6.574.333-6.865 5.275-.023 1.837 1.121 3.765 2.119 4.413 1.285.845 2.294.834 2.294.834s-1.544-.817-1.082-2.446c.411-1.449 3.432-1.685 3.539-1.077v9.97c-1.451-.023-6.104.135-8.2 4.12-1.263 2.418-1.189 5.112.161 7.006 1.101 1.55 3.37 3.528 7.27 2.864m38.222-33.027s-3.66 2.22-6.123 3.691c-2.46 1.46-5.765 3.072-5.765 3.072v15.397l-2.201 1.77.29.338 2.15-1.725 6.735 6.081L270.219 54l-.276-.338-6.47 5.078-5.315-4.976v-1.86l10.677-7.851-5.405-9.407zm.158 12.72l-5.43 3.979V38.112l5.43 9.254m16.203 16.023l-5.74-4.768-2.519 1.832-.254-.366 2.564-1.865V44.887c.124-5.489-5.03-4.131-4.748-9.953.118-2.559 2.598-4.498 3.849-5.14 1.339-.676 2.787-.676 2.787-.676s-2.35 1.471-1.778 3.584c.879 3.252 6.445 3.551 6.552 7.879v15.127l4.106 3.291 1.079-.846V41.776l-2.212-2.192 5.706-5.05 5.211 4.616-1.99 2.153V55.81l4.881 4.03.871-.558v-17.46l-2.223-2.074 5.717-5.23 5.346 4.419 2.136-1.888.284.332-4.802 4.221v14.242l-12.295 7.575-6.29-4.977-6.238 4.947m43.087-33.691c0-2.406-.978-3.748-2.562-3.793-2.285-.045-2.829 3.167-2.829 3.167s-.412-2.48 1.666-4.734c1.169-1.251 3.345-3.021 6.752-2.204 3.514.851 4.512 3.584 4.512 5.991v33.212s1.33.158 2.243.361c1.06.214 2.06.502 2.06.502V22.151h.437v5.405l7.211-5.811 5.283 4.7 2.463-2.136.282.338-2.576 2.215v30.885c-.127 2.018-.454 4.064-2.356 5.247-4.241 2.508-9.361-.389-13.923-1.048-3.384-.507-8.696-1.144-10.029 1.956-.437 1.026-.406 2.598 1.13 3.624 3.08 2.063 16.801-3.455 21.507-1.268 4.289 2.001 4.272 5.163 3.612 7.327-1.116 4.08-6.258 4.796-6.258 4.796s2.514-1.465 1.798-3.883c-.363-1.223-1.192-1.567-3.889-1.268-5.878.671-12.909 3.517-17.632 1.539-2.435-1.014-4.153-4.058-3.99-7.045.124-4.306 5.089-5.996 5.089-5.996V45.811c-.144-.631-2.796-.473-3.373.699-.879 1.769 1.096 2.575 1.096 2.575s-1.637.254-3.012-1.33c-.668-.778-2.066-3.483-.248-5.997 1.491-2.068 3.28-2.429 5.537-2.671v-9.389h-.001zm12.278 32.626s2.093.547 3.618-.699c1.696-1.397 1.513-3.359 1.513-3.359V45.895s-.978-1.268-2.542-1.268c-1.561 0-2.59 1.313-2.59 1.313v16.384h.001zm5.131-32.474l-3.46-3.038-1.671 1.313v11.463s1.028 1.302 2.59 1.302c1.564 0 2.542-1.251 2.542-1.251V29.85h-.001zm0 10.477s-.989 1.127-2.547 1.127c-1.561 0-2.584-1.133-2.584-1.133v4.881s1.023-1.127 2.584-1.127c1.558 0 2.547 1.071 2.547 1.071v-4.819"/></g></g><g transform="translate(-60.016 -25.282) scale(1.52929)"><defs><path id="f" d="M64 56h212v85H64V56z"/></defs><clipPath id="g"><use overflow="visible" xlink:href="#f"/></clipPath><g clip-path="url(#g)"><defs><path id="h" d="M-18.922 70.632h427.826v60.081H-18.922V70.632z"/></defs><clipPath id="i"><use overflow="visible" xlink:href="#h"/></clipPath><path fill="#231F20" d="M7.523 70.685c1.2.101 3.077.693 4.495 1.933 1.505 1.46 1.846 3.68 1.322 5.687-.471 1.803-.995 2.728-2.829 3.973-1.849 1.251-4.086 1.15-4.086 1.15V91.2l3.782 3.06-3.782 3.055v10.59s3.79-2.17 6.137-7.039c0 0 .102-.259.319-.761.211 1.302.09 3.934-1.381 7.321-1.113 2.553-3.131 5.01-5.67 6.408-4.492 2.491-7.859 2.728-11.472 1.984-4.224-.874-8.065-3.246-10.683-7.394-1.843-2.908-2.666-6.307-2.593-9.959.146-7.169 5.481-13.351 11.638-15.656.749-.287 1.045-.462 2.111-.563-.487.332-1.054.766-1.75 1.223-1.984 1.296-3.683 3.894-4.407 5.895L.625 84.027v16.71l-9.64 4.836c1.102 1.516 4.438 3.827 7.29 4.142 4.858.541 7.704-1.578 7.704-1.578V97.315L2.217 94.26l3.768-3.049v-7.783c-2.054-.248-4.548-.919-6.008-1.285-2.142-.524-9.288-2.536-10.412-2.7-1.121-.169-2.508-.118-3.345.631-.837.761-1.356 2.091-.998 3.286.2.676.665 1.071 1.02 1.46 0 0-.417-.034-1.164-.485-1.35-.806-2.376-2.39-2.5-4.34-.158-2.564.899-4.864 3.01-6.419 1.832-1.184 3.908-1.933 6.323-1.589 3.517.496 8.251 2.485 12.464 3.5 1.632.395 2.897.524 4.047-.141.533-.383 1.477-1.381.704-2.7-.896-1.556-2.615-1.51-4.075-1.787 1.258-.264 1.531-.264 2.472-.174zm-14.208 33.224V87.768l-4.852 2.17s-1.24 2.767-1.023 6.786c.172 3.139 1.93 6.904 3.28 8.471l2.595-1.286" clip-path="url(#i)"/><path fill="#231F20" d="M53.879 86.979s-3.663 2.22-6.124 3.691c-2.463 1.46-5.765 3.072-5.765 3.072v15.397l-2.204 1.77.29.338 2.147-1.725 6.738 6.081 11.706-9.271-.282-.338-6.464 5.078-5.318-4.976v-1.86l10.68-7.851-5.404-9.406zm.154 12.72l-5.43 3.979V90.445l5.43 9.254M23.2 121.391c1.533.383 4.246.592 7.515-1.048 3.618-1.809 5.438-5.653 5.413-9.598l.155-5.58V92.958l2.314-1.77-.27-.338-2.274 1.713-5.258-5.844-6.74 5.794V72.844l-8.423 6.504c.375.242 1.567.462 1.603 2.136v27.559l-3.567 2.649.242.366 1.725-1.285 4.799 4.464 7.546-6.013-.273-.338-1.773 1.403-1.879-1.865.02-15.352 2.198-1.871 3.28 4.075s-.003 9.936.006 13.239c-.028 3.517-.037 7.907-1.888 10.021-1.851 2.134-2.592 2.298-4.471 2.855m52.402-1.386c-3.018-.35-4.283-2.176-4.249-3.618.022-.918.862-2.733 2.694-2.981 1.834-.259 3.711.603 5.289 2.469l6.969-7.699-.332-.304-1.874 2.096c-1.899-2.164-4.602-3.528-7.285-3.922V82.583l18.097 32.97s.175.377.919.377c.637 0 .482-.518.482-.518l-.003-33.173c1.477-.068 3.717-.873 4.81-1.995 3.486-3.579 2.06-7.49 1.674-7.862-.209 1.708-1.525 3.421-3.714 3.438-2.874 0-4.624-2.119-4.624-2.119l-6.966 7.935.332.304 1.998-2.283c2.435 2.237 4.213 2.457 6.053 2.581l-.003 19.241-13.425-24.38c-1.215-2.018-3.06-3.787-5.966-3.81-3.333-.022-5.72 2.919-6.008 5.45-.318 2.863.037 3.517.037 3.517s.49-3.179 2.46-3.156c1.77.028 2.694 1.657 3.399 2.88v7.067c-1.821.118-6.574.333-6.864 5.275-.023 1.837 1.121 3.765 2.119 4.413 1.285.845 2.294.834 2.294.834s-1.544-.817-1.082-2.446c.411-1.449 3.432-1.685 3.539-1.077v9.97c-1.451-.023-6.104.135-8.2 4.12-1.263 2.418-1.189 5.112.161 7.006 1.1 1.55 3.369 3.528 7.269 2.863m38.222-33.026s-3.66 2.22-6.123 3.691c-2.46 1.46-5.765 3.072-5.765 3.072v15.397l-2.201 1.77.29.338 2.15-1.725 6.735 6.081 11.703-9.271-.276-.338-6.47 5.078-5.315-4.976v-1.86l10.677-7.851-5.405-9.406zm.158 12.72l-5.43 3.979V90.445l5.43 9.254m16.203 16.023l-5.74-4.768-2.519 1.832-.254-.366 2.564-1.865V97.219c.124-5.489-5.03-4.131-4.748-9.953.118-2.559 2.598-4.498 3.849-5.14 1.339-.676 2.787-.676 2.787-.676s-2.35 1.471-1.778 3.584c.879 3.252 6.445 3.551 6.552 7.879v15.127l4.106 3.291 1.079-.846V94.108l-2.212-2.192 5.706-5.05 5.211 4.616-1.99 2.153v14.507l4.881 4.03.871-.558v-17.46l-2.223-2.074 5.717-5.23 5.346 4.419 2.136-1.888.284.332-4.802 4.221v14.242l-12.295 7.575-6.29-4.977-6.238 4.948m196.55-22.296l.286.333 2.204-1.9 3.27 3.709v12.714l-1.59 1.455 5.098 5.759 5.238-5.151-2.153-2.226V92.727l1.301-1.037 3.613 4.227v12.681l-1.353 1.353 4.802 5.41 5.13-5.146-1.884-1.978-.055-15.448 1.391-1.127 3.771 4.154v12.624l-1.241 1.229 5.304 5.782 7.119-6.566-.306-.332-1.723 1.606-2.655-2.953v-14.4l2.557-1.944-.262-.35-2.56 1.945-4.848-5.428-6.919 5.473-4.86-5.281-6.683 5.236-4.891-5.208-7.101 6.177"/><path fill="#231F20" d="M312.244 93.032l.288.332 1.859-1.617 2.92 3.454v14.541l-2.063 1.798.294.332 2.153-1.837 4.7 5.416 6.784-6.053-.28-.332-1.997 1.753-2.816-3.235v-14.22l2.366-2.051-.283-.327-2.247 1.927-4.943-5.754-6.735 5.873"/><defs><path id="j" d="M-18.922 70.632h427.826v60.081H-18.922V70.632z"/></defs><clipPath id="k"><use overflow="visible" xlink:href="#j"/></clipPath><path fill="#231F20" d="M314.2 80.988l5.11-4.684 4.156 4.61-5.131 4.667-4.135-4.593m-6.876-10.303c1.2.101 3.076.693 4.499 1.933 1.498 1.46 1.841 3.68 1.319 5.687-.467 1.803-.993 2.728-2.831 3.973-1.847 1.251-4.086 1.15-4.086 1.15V91.2l3.783 3.06-3.783 3.055v10.59s3.794-2.17 6.138-7.039c0 0 .101-.259.32-.761.211 1.302.092 3.934-1.379 7.321-1.117 2.553-3.134 5.01-5.67 6.408-4.493 2.497-7.857 2.728-11.47 1.984-4.23-.874-8.062-3.246-10.691-7.394-1.835-2.908-2.663-6.307-2.591-9.959.147-7.169 5.483-13.351 11.643-15.656.75-.287 1.047-.462 2.109-.563-.491.332-1.056.766-1.749 1.223-1.982 1.296-3.685 3.894-4.406 5.895l11.946-5.337v16.71l-9.635 4.836c1.102 1.516 4.435 3.827 7.292 4.142 4.853.541 7.699-1.578 7.699-1.578V97.315l-3.766-3.055 3.766-3.049v-7.783c-2.052-.248-4.542-.919-5.996-1.285-2.141-.524-9.3-2.536-10.417-2.7-1.12-.169-2.508-.118-3.347.631-.834.761-1.353 2.091-1.001 3.286.208.676.669 1.071 1.024 1.46 0 0-.415-.034-1.16-.485-1.353-.806-2.381-2.39-2.502-4.34-.159-2.564.9-4.864 3.007-6.419 1.838-1.184 3.913-1.933 6.325-1.589 3.518.502 8.25 2.485 12.466 3.5 1.636.395 2.897.524 4.048-.141.528-.383 1.475-1.381.698-2.7-.892-1.556-2.617-1.51-4.069-1.787 1.249-.264 1.526-.264 2.467-.174zm-14.203 33.224V87.768l-4.856 2.17s-1.241 2.761-1.027 6.786c.182 3.139 1.933 6.904 3.281 8.471l2.602-1.286" clip-path="url(#k)"/><path fill="#231F20" d="M222.586 93.342l2.065-1.905.293.333-2.006 1.865v15.194s-3.824 2.023-6.49 3.528c-2.663 1.499-5.509 3.274-5.509 3.274l-7.011-5.906-1.854 1.606-.299-.327 1.947-1.696V92.964h.028s3.302-1.494 6.095-3.066a853.681 853.681 0 0 0 5.283-3.032l7.458 6.476zm-12.21 13.385l5.92 5.36v-16.4l-5.92-5.484v16.524m25.995-14.93l4.45-4.548s.609.541 1.183.817c.327.158 1.674.857 2.908.175.671-.361.767-.462 1.499-1.161.158 3.539-1.544 6.03-3.664 7.062-.868.417-3.398 1.223-6.047-2.001v16.35l2.818 2.485 2.35-1.944.271.344-7.366 6.143-5.602-5.095-2.02 1.899-.33-.355 3.069-2.767.028-14.112-2.356-3.122-2.026 1.787-.29-.327 7.135-6.414 3.99 4.784m18.765 6.809l8.234-11.971s1.088 1.279 2.981 1.781c2.57.671 4.814-1.809 4.814-1.809-.43 3.201-2.052 6.842-5.406 7.394-2.959.49-5.703-1.803-5.703-1.803l-.536.817 11.431 17.268 2.288-2.006.291.332-7.839 6.859-10.555-16.862"/><path fill="#231F20" d="M248.339 82.617c0-2.581-1.06-4.171-2.446-4.058l8.984-6.307v35.698l2.367 2.497 1.798-1.55.282.327-7.236 6.323-4.898-4.61-1.961 1.73-.316-.338 3.427-2.976V82.617m-75.068-.587c0-2.406-.978-3.748-2.562-3.793-2.285-.045-2.829 3.167-2.829 3.167s-.412-2.48 1.666-4.734c1.169-1.251 3.345-3.021 6.752-2.204 3.514.851 4.512 3.584 4.512 5.991v33.212s1.33.158 2.243.361c1.06.214 2.06.502 2.06.502V74.484h.437v5.405l7.211-5.811 5.283 4.7 2.463-2.136.282.338-2.576 2.215v30.885c-.127 2.018-.454 4.064-2.356 5.247-4.241 2.508-9.361-.389-13.923-1.048-3.384-.507-8.696-1.144-10.029 1.956-.437 1.026-.406 2.598 1.13 3.624 3.08 2.063 16.801-3.455 21.507-1.268 4.289 2.001 4.272 5.163 3.612 7.327-1.116 4.08-6.259 4.796-6.259 4.796s2.514-1.465 1.798-3.883c-.363-1.223-1.192-1.567-3.889-1.268-5.878.671-12.909 3.517-17.632 1.539-2.435-1.014-4.153-4.058-3.99-7.045.124-4.306 5.089-5.996 5.089-5.996V98.143c-.144-.631-2.796-.473-3.373.699-.879 1.769 1.096 2.575 1.096 2.575s-1.637.254-3.012-1.33c-.668-.778-2.066-3.483-.248-5.997 1.491-2.068 3.28-2.429 5.537-2.671V82.03zm12.278 32.626s2.093.547 3.618-.699c1.696-1.397 1.513-3.359 1.513-3.359v-12.37s-.978-1.268-2.542-1.268c-1.561 0-2.59 1.313-2.59 1.313v16.383h.001zm5.131-32.473l-3.46-3.038-1.671 1.313v11.463s1.028 1.302 2.59 1.302c1.564 0 2.542-1.251 2.542-1.251v-9.789h-.001zm0 10.477s-.989 1.127-2.547 1.127c-1.561 0-2.584-1.133-2.584-1.133v4.881s1.023-1.127 2.584-1.127c1.558 0 2.547 1.071 2.547 1.071V92.66"/></g></g><g transform="translate(-60.016 -25.282) scale(1.52929)"><defs><path id="l" d="M106 112h168v72H106v-72z"/></defs><clipPath id="m"><use overflow="visible" xlink:href="#l"/></clipPath><g clip-path="url(#m)"><path fill="#231F20" d="M210.044 140.198s-3.665 2.22-6.123 3.691c-2.467 1.46-5.771 3.072-5.771 3.072v15.397l-2.196 1.77.291.338 2.144-1.725 6.738 6.081 11.701-9.271-.277-.338-6.464 5.078-5.321-4.976v-1.86l10.677-7.851-5.399-9.406zm.156 12.72l-5.434 3.979v-13.233l5.434 9.254m-55.106-6.272l.286.332 2.204-1.899 3.269 3.708v12.715l-1.59 1.454 5.099 5.76 5.238-5.151-2.153-2.227v-15.391l1.301-1.037 3.613 4.227v12.68l-1.353 1.353 4.801 5.411 5.131-5.146-1.884-1.978-.055-15.448 1.391-1.127 3.771 4.153v12.625l-1.241 1.228 5.304 5.783 7.119-6.566-.306-.333-1.723 1.606-2.655-2.953v-14.399l2.557-1.945-.263-.349-2.559 1.944-4.848-5.427-6.919 5.472-4.86-5.28-6.683 5.235-4.891-5.207-7.101 6.177"/><path fill="#231F20" d="M140.603 146.251l.288.333 1.858-1.618 2.921 3.455v14.541l-2.064 1.797.295.333 2.152-1.837 4.701 5.416 6.784-6.053-.28-.333-1.997 1.753-2.816-3.235v-14.219l2.366-2.052-.283-.327-2.248 1.928-4.943-5.754-6.734 5.872"/><defs><path id="n" d="M-190.563 123.851h427.826v60.081h-427.826v-60.081z"/></defs><clipPath id="o"><use overflow="visible" xlink:href="#n"/></clipPath><path fill="#231F20" d="M142.559 134.207l5.11-4.683 4.155 4.61-5.13 4.667-4.135-4.594m-6.876-10.302c1.2.101 3.076.693 4.499 1.933 1.498 1.46 1.841 3.68 1.319 5.687-.467 1.803-.993 2.728-2.831 3.973-1.847 1.251-4.086 1.15-4.086 1.15v7.772l3.783 3.06-3.783 3.055v10.59s3.794-2.17 6.138-7.039c0 0 .101-.259.32-.761.211 1.302.092 3.934-1.379 7.321-1.117 2.553-3.134 5.01-5.67 6.408-4.493 2.497-7.857 2.728-11.47 1.984-4.23-.874-8.062-3.246-10.691-7.394-1.835-2.908-2.663-6.307-2.591-9.959.147-7.169 5.483-13.351 11.643-15.656.75-.287 1.047-.462 2.109-.564-.491.332-1.056.766-1.749 1.223-1.982 1.296-3.685 3.894-4.406 5.895l11.946-5.337v16.71l-9.635 4.836c1.102 1.516 4.435 3.827 7.292 4.142 4.854.541 7.699-1.578 7.699-1.578v-10.821l-3.766-3.055 3.766-3.049v-7.783c-2.052-.248-4.542-.919-5.996-1.285-2.141-.524-9.3-2.536-10.417-2.7-1.12-.169-2.508-.118-3.347.631-.834.761-1.353 2.091-1.001 3.286.208.676.669 1.071 1.024 1.46 0 0-.416-.034-1.16-.485-1.353-.806-2.381-2.39-2.502-4.34-.159-2.564.9-4.864 3.007-6.419 1.838-1.184 3.913-1.933 6.325-1.589 3.518.502 8.25 2.485 12.466 3.5 1.636.395 2.897.524 4.049-.141.528-.383 1.475-1.381.698-2.7-.892-1.556-2.617-1.51-4.069-1.787 1.248-.264 1.525-.264 2.466-.174zm-14.203 33.223v-16.141l-4.856 2.17s-1.241 2.761-1.027 6.786c.182 3.139 1.933 6.904 3.281 8.471l2.602-1.286m101.586 13.684c-.782.225-4.147-.586-4.954-4.08-.788-3.404 1.573-5.709 5.142-9.339l-4.21-3.849v-7.355s3.093-1.556 5.523-3.066c2.43-1.527 4.908-3.167 4.908-3.167s1.815 2.288 3.867 2.102c3.2-.282 3.053-2.807 2.952-3.398.554.969 2.017 3.877-3.619 10.37l4.588 3.703v9.558s-5.327 2.767-10.365 6.448c0 0-2.811-3.517-5.258-1.843-1.644 1.132-.888 3.06 1.426 3.916zm-3.962-7.366s2.418-4.001 6.573-3.139c3.988.828 5.376 5.038 5.376 5.038v-9.699l-2.785-2.424c-3.055 3.072-8.485 7.513-9.164 10.224zm6.167-20.266v7.642l2.548 2.215s5.529-4.424 7.534-8.522c0 0-2.484 3.37-5.823 2.339-2.805-.856-4.259-3.674-4.259-3.674" clip-path="url(#o)"/><path fill="#231F20" d="M50.944 146.561l2.065-1.905.293.333-2.006 1.865v15.194s-3.824 2.023-6.49 3.528c-2.663 1.499-5.509 3.274-5.509 3.274l-7.011-5.906-1.854 1.606-.299-.327 1.947-1.696v-16.344h.028s3.302-1.494 6.095-3.066a853.681 853.681 0 0 0 5.283-3.032l7.458 6.476zm-12.21 13.385l5.92 5.36v-16.4l-5.92-5.484v16.524m25.996-14.929l4.45-4.548s.609.541 1.183.817c.327.158 1.674.857 2.908.175.671-.361.767-.462 1.499-1.161.158 3.539-1.544 6.03-3.664 7.062-.868.417-3.398 1.223-6.047-2.001v16.35l2.818 2.485 2.35-1.944.271.344-7.366 6.143-5.602-5.095-2.02 1.899-.33-.355 3.069-2.767.028-14.112-2.356-3.122-2.026 1.787-.29-.327 7.135-6.414 3.99 4.784m18.764 6.808l8.234-11.971s1.088 1.279 2.981 1.781c2.57.671 4.814-1.809 4.814-1.809-.43 3.201-2.052 6.842-5.406 7.394-2.959.49-5.703-1.803-5.703-1.803l-.536.817 11.431 17.268 2.288-2.006.291.332-7.839 6.859-10.555-16.862"/><path fill="#231F20" d="M76.698 135.836c0-2.581-1.06-4.171-2.446-4.058l8.984-6.307v35.698l2.367 2.497 1.798-1.55.282.327-7.236 6.323-4.898-4.61-1.961 1.73-.316-.338 3.427-2.976v-26.736m-75.068-.586c0-2.406-.978-3.748-2.562-3.793-2.285-.045-2.829 3.167-2.829 3.167s-.412-2.48 1.666-4.734c1.169-1.251 3.345-3.021 6.752-2.204 3.514.851 4.512 3.584 4.512 5.991v33.212s1.33.158 2.243.361c1.06.214 2.06.502 2.06.502v-40.049h.437v5.405l7.211-5.811 5.283 4.7 2.463-2.136.282.338-2.576 2.215V163.3c-.127 2.018-.454 4.064-2.356 5.247-4.241 2.508-9.361-.389-13.923-1.048-3.384-.507-8.696-1.144-10.029 1.956-.437 1.026-.406 2.598 1.13 3.624 3.08 2.063 16.801-3.455 21.507-1.268 4.289 2.001 4.272 5.163 3.612 7.327-1.116 4.08-6.259 4.796-6.259 4.796s2.514-1.465 1.798-3.883c-.363-1.223-1.192-1.567-3.889-1.268-5.878.671-12.909 3.517-17.632 1.539-2.435-1.014-4.153-4.058-3.99-7.045.124-4.306 5.089-5.996 5.089-5.996v-15.916c-.144-.631-2.796-.473-3.373.699-.879 1.769 1.096 2.575 1.096 2.575s-1.637.254-3.012-1.33c-.668-.778-2.066-3.483-.248-5.997 1.491-2.068 3.28-2.429 5.537-2.671v-9.391zm12.277 32.626s2.093.547 3.618-.699c1.696-1.397 1.513-3.359 1.513-3.359v-12.371s-.978-1.268-2.542-1.268c-1.561 0-2.59 1.313-2.59 1.313v16.384h.001zm5.132-32.474l-3.46-3.038-1.671 1.313v11.463s1.028 1.302 2.59 1.302c1.564 0 2.542-1.251 2.542-1.251v-9.789h-.001zm0 10.477s-.989 1.127-2.547 1.127c-1.561 0-2.584-1.133-2.584-1.133v4.881s1.023-1.127 2.584-1.127c1.558 0 2.547 1.071 2.547 1.071v-4.819"/></g></g></svg>