<svg xmlns="http://www.w3.org/2000/svg" role="img" viewBox="-2.42 -2.42 125.97 103.22"><title>ThreatMapper logo</title><defs id="defs147"><path id="rect13379" d="M-14.344 -26.939H164.086V126.65100000000001H-14.344z"/></defs><style id="style95" type="text/css"/><g id="g120"><linearGradient id="SVGID_1_" x1="39.356" x2="39.356" y1=".723" y2="70.88" gradientUnits="userSpaceOnUse"><stop id="stop97" offset="0" stop-color="#16c7f3"/><stop id="stop99" offset="1" stop-color="#1f72b3"/></linearGradient><path id="polygon102" fill="url(#SVGID_1_)" d="M34.4 17.3L39 22.5 63.5 53.1 60.6 56.7 33.2 22.5 28.6 17.3 13.4 17.3 18 22.5 53 66.3 60.6 75.8 68.2 66.3 71.1 62.7 78.7 53.1 71.1 43.6 54.2 22.5 46.9 13.3 43.6 9.2 36.3 0 21 0 15.3 0 0 0 10.1 13.3 25.4 13.3 31.1 13.3z"/><g id="g118"><linearGradient id="SVGID_00000040559873967293563990000010313427330174422680_" x1="91.809" x2="91.809" y1=".723" y2="70.88" gradientUnits="userSpaceOnUse"><stop id="stop104" offset="0" stop-color="#16c7f3"/><stop id="stop106" offset="1" stop-color="#1f72b3"/></linearGradient><path id="polygon109" fill="url(#SVGID_00000040559873967293563990000010313427330174422680_)" d="M76.4 17.5L91.9 36.7 103.2 22.5 107.2 17.5z"/><linearGradient id="SVGID_00000068655785444952865200000007087109414417739179_" x1="81.583" x2="81.583" y1=".723" y2="70.88" gradientUnits="userSpaceOnUse"><stop id="stop111" offset="0" stop-color="#16c7f3"/><stop id="stop113" offset="1" stop-color="#1f72b3"/></linearGradient><path id="polygon116" fill="url(#SVGID_00000068655785444952865200000007087109414417739179_)" d="M60 22.5L74 40 81.6 49.5 89.2 40 89.3 39.9 71.2 17.5 67.9 13.4 73.1 13.4 110.5 13.4 110.6 13.3 113.8 9.2 121.2 0 105.9 0 57.2 0 42 0 49.4 9.2 52.6 13.3z"/></g></g><g id="text621"><path id="path14900" d="M 5.7782298,94.113281 H 4.1522532 V 82.6875 H 0.13565164 V 81.263672 H 9.7684641 V 82.6875 H 5.7782298 Z"/><path id="path14902" d="m 18.082917,94.113281 v -6.169922 q 0,-1.177734 -0.527343,-1.749023 -0.518555,-0.580078 -1.634766,-0.580078 -1.467774,0 -2.15332,0.817383 -0.676758,0.817382 -0.676758,2.698242 v 4.983398 H 11.508699 V 80.4375 h 1.582031 v 4.007812 q 0,0.791016 -0.08789,1.353516 h 0.105469 q 0.430664,-0.703125 1.22168,-1.098633 0.791015,-0.395508 1.784179,-0.395508 1.757813,0 2.645508,0.84375 0.887695,0.834961 0.887695,2.680665 v 6.284179 z"/><path id="path14904" d="m 27.15323,84.287109 q 0.641601,0 1.133789,0.105469 l -0.19336,1.458984 q -0.536132,-0.123046 -1.045898,-0.123046 -0.764648,0 -1.423828,0.421875 -0.650391,0.421875 -1.019531,1.168945 -0.369141,0.738281 -0.369141,1.643555 v 5.15039 H 22.65323 v -9.65039 h 1.300781 l 0.175781,1.766601 h 0.07031 q 0.553711,-0.958008 1.30957,-1.450195 0.755859,-0.492188 1.643555,-0.492188 z"/><path id="path14906" d="m 34.035066,94.289062 q -2.170899,0 -3.410157,-1.30957 -1.230468,-1.318359 -1.230468,-3.621094 0,-2.320312 1.151367,-3.691406 1.151367,-1.379883 3.111328,-1.379883 1.819336,0 2.900391,1.177735 1.081054,1.168945 1.081054,3.172851 v 0.958008 h -6.609375 q 0.04395,1.643555 0.834961,2.496094 0.791016,0.852539 2.241211,0.852539 0.773438,0 1.467774,-0.131836 0.694336,-0.140625 1.625976,-0.536133 v 1.388672 q -0.799804,0.342773 -1.502929,0.483398 -0.703125,0.140625 -1.661133,0.140625 z m -0.395508,-8.70996 q -1.133789,0 -1.792969,0.729492 -0.65918,0.729492 -0.782226,2.030273 h 4.913086 q -0.01758,-1.353515 -0.624024,-2.05664 -0.606445,-0.703125 -1.713867,-0.703125 z"/><path id="path14908" d="m 46.049714,94.113281 -0.307617,-1.371094 h -0.07031 q -0.720703,0.905274 -1.441406,1.230469 -0.711914,0.316406 -1.801758,0.316406 -1.423828,0 -2.232421,-0.74707 -0.808594,-0.74707 -0.808594,-2.109375 0,-2.935547 4.631836,-3.076172 l 1.634765,-0.06152 v -0.571289 q 0,-1.098633 -0.474609,-1.617188 -0.474609,-0.527343 -1.520508,-0.527343 -0.764648,0 -1.450195,0.228515 -0.676758,0.228516 -1.274414,0.509766 l -0.483399,-1.186524 q 0.729493,-0.386718 1.590821,-0.606445 0.861328,-0.219727 1.705078,-0.219727 1.749023,0 2.601562,0.773438 0.852539,0.773437 0.852539,2.460937 v 6.574219 z m -3.260742,-1.098633 q 1.327148,0 2.083008,-0.711914 0.764648,-0.720703 0.764648,-2.039062 v -0.870117 l -1.423828,0.06152 q -1.661133,0.06152 -2.425781,0.527344 -0.75586,0.46582 -0.75586,1.467773 0,0.75586 0.457032,1.160157 0.46582,0.404296 1.300781,0.404296 z"/><path id="path14910" d="m 53.406159,92.99707 q 0.307618,0 0.720704,-0.06152 0.413086,-0.06152 0.624023,-0.140625 v 1.21289 q -0.219727,0.09668 -0.685547,0.184571 -0.457031,0.09668 -0.93164,0.09668 -2.830079,0 -2.830079,-2.979492 V 85.693359 H 48.941316 V 84.9375 l 1.379883,-0.632813 0.632812,-2.05664 h 0.94043 v 2.214844 h 2.786133 v 1.230468 h -2.786133 v 5.572266 q 0,0.834961 0.395508,1.283203 0.404296,0.448242 1.11621,0.448242 z"/><path id="path14912" d="M 62.573152,94.113281 58.336824,82.845703 h -0.07031 q 0.131836,1.40625 0.131836,3.47168 v 7.795898 H 56.904206 V 81.263672 h 2.390625 l 3.963868,10.529297 h 0.07031 l 4.03418,-10.529297 h 2.373047 v 12.849609 h -1.59961 v -7.901367 q 0,-1.318359 0.123047,-3.348633 h -0.07031 l -4.289063,11.25 z"/><path id="path14914" d="m 78.99112,94.113281 -0.307617,-1.371094 h -0.07031 q -0.720703,0.905274 -1.441407,1.230469 -0.711914,0.316406 -1.801757,0.316406 -1.423828,0 -2.232422,-0.74707 -0.808594,-0.74707 -0.808594,-2.109375 0,-2.935547 4.631836,-3.076172 l 1.634766,-0.06152 v -0.571289 q 0,-1.098633 -0.47461,-1.617188 -0.474609,-0.527343 -1.520508,-0.527343 -0.764648,0 -1.450195,0.228515 -0.676758,0.228516 -1.274414,0.509766 l -0.483398,-1.186524 q 0.729492,-0.386718 1.59082,-0.606445 0.861328,-0.219727 1.705078,-0.219727 1.749023,0 2.601563,0.773438 0.852539,0.773437 0.852539,2.460937 v 6.574219 z m -3.260742,-1.098633 q 1.327149,0 2.083008,-0.711914 0.764648,-0.720703 0.764648,-2.039062 v -0.870117 l -1.423828,0.06152 q -1.661132,0.06152 -2.425781,0.527344 -0.755859,0.46582 -0.755859,1.467773 0,0.75586 0.457031,1.160157 0.46582,0.404296 1.300781,0.404296 z"/><path id="path14916" d="m 87.692292,94.289062 q -1.942383,0 -2.988281,-1.39746 h -0.105469 l 0.03516,0.360351 q 0.07031,0.685547 0.07031,1.22168 V 98.4375 H 83.12198 V 84.462891 h 1.300781 l 0.210938,1.318359 h 0.07031 q 0.5625,-0.791016 1.300781,-1.142578 0.738282,-0.351563 1.705078,-0.351563 1.88086,0 2.917969,1.309571 1.045899,1.300781 1.045899,3.673828 0,2.364258 -1.045899,3.691406 -1.045898,1.327148 -2.935547,1.327148 z M 87.42862,85.614258 q -1.432617,0 -2.074218,0.808594 -0.632813,0.808593 -0.650391,2.540039 v 0.307617 q 0,1.959961 0.650391,2.838867 0.65039,0.870117 2.109375,0.870117 1.21289,0 1.889648,-0.984375 0.685547,-0.984375 0.685547,-2.742187 0,-1.766602 -0.685547,-2.698243 -0.676758,-0.940429 -1.924805,-0.940429 z"/><path id="path14918" d="m 98.766511,94.289062 q -1.942383,0 -2.988281,-1.39746 h -0.105469 l 0.03516,0.360351 q 0.07031,0.685547 0.07031,1.22168 V 98.4375 H 94.196199 V 84.462891 h 1.300781 l 0.210937,1.318359 h 0.07031 q 0.5625,-0.791016 1.300781,-1.142578 0.738281,-0.351563 1.705078,-0.351563 1.880861,0 2.917971,1.309571 1.0459,1.300781 1.0459,3.673828 0,2.364258 -1.0459,3.691406 -1.0459,1.327148 -2.935549,1.327148 z m -0.263672,-8.674804 q -1.432617,0 -2.074219,0.808594 -0.632812,0.808593 -0.65039,2.540039 v 0.307617 q 0,1.959961 0.65039,2.838867 0.650391,0.870117 2.109375,0.870117 1.212891,0 1.889645,-0.984375 0.68555,-0.984375 0.68555,-2.742187 0,-1.766602 -0.68555,-2.698243 -0.676754,-0.940429 -1.924801,-0.940429 z"/><path id="path14920" d="m 109.37491,94.289062 q -2.1709,0 -3.41016,-1.30957 -1.23047,-1.318359 -1.23047,-3.621094 0,-2.320312 1.15137,-3.691406 1.15137,-1.379883 3.11133,-1.379883 1.81934,0 2.90039,1.177735 1.08106,1.168945 1.08106,3.172851 v 0.958008 h -6.60938 q 0.0439,1.643555 0.83496,2.496094 0.79102,0.852539 2.24121,0.852539 0.77344,0 1.46778,-0.131836 0.69433,-0.140625 1.62597,-0.536133 v 1.388672 q -0.7998,0.342773 -1.50293,0.483398 -0.70312,0.140625 -1.66113,0.140625 z m -0.39551,-8.70996 q -1.13379,0 -1.79297,0.729492 -0.65918,0.729492 -0.78222,2.030273 h 4.91308 q -0.0176,-1.353515 -0.62402,-2.05664 -0.60645,-0.703125 -1.71387,-0.703125 z"/><path id="path14922" d="m 119.93057,84.287109 q 0.64161,0 1.13379,0.105469 l -0.19336,1.458984 q -0.53613,-0.123046 -1.0459,-0.123046 -0.76464,0 -1.42382,0.421875 -0.65039,0.421875 -1.01953,1.168945 -0.36915,0.738281 -0.36915,1.643555 v 5.15039 h -1.58203 v -9.65039 h 1.30078 l 0.17579,1.766601 h 0.0703 q 0.55371,-0.958008 1.30957,-1.450195 0.75586,-0.492188 1.64355,-0.492188 z"/></g></svg>