<svg xmlns="http://www.w3.org/2000/svg" role="img" viewBox="-19.98 -19.98 1038.96 871.96"><title>Tigera logo</title><path fill="#f99d1f" d="M861.556 353.507c-16.117 20.621-31.66 34.63-53.411 46.838 11.039-14.93 15.447-33.135 15.332-53.66-69.893 0-124.876 48.428-98.927 142.602 14.833-1.169 23.265-11.94 31.046-23.687.824 13.415-2.395 28.267-12.112 45.266l6.324 15.332c-18.014 13.97-44.442 40.073-65.887 32.464-56.362-70.544-144.576-89.957-259.831-14.584 8.24-21.368 13.856-37.754 31.832-54.637-21.081-.844-61.077 5.059-91.721 23.303.939-79.82 9.237-163.376 38.329-266.27-54.906 100.67-81.698 218.225-108.988 360.291-29.226-134.15-51.189-227.846-31.028-381.372-58.26 11.134-123.016 52.434-174.952 86.757 62.323-88.156 196.704-183.27 255.232-201.725-28.306 49.196-46.474 117.23-50.843 172.73l26.313-2.607c-10.56 24.722-21.503 82.407-21.445 130.318 7.838-51.035 31.947-118.934 56.209-161.92l-32.196 3.258c18.206-69.011 61.613-137.122 99.272-160.119 14.871-5.75 35.492-7.8 50.46-7.072-4.408 28.881-26.486 175.777-15.332 243.58.383-72.633 32.963-276.35 59.41-328.593 42.008 39.843 49.501 58.24 65.159 93.522 83.23 4.906 148.026 46.666 208.758 96.55a18.244 18.244 0 0 1-9.448 11.5c16.232 6.247 55.98 30.337 71.349 44.231 20.065 18.11 45.995 42.162 58.682 58.337L885.3 344.385l-10.962-34.707 21.828-3.948-29.072-.402 11.748 42.353-17.248 5.884zM744.232 247.05L721.867 217l-60.253-18.685 35.128 31.046 20.908-1.188z"/><path d="M156.305 700.415v34.075H98.39v98.16H57.992v-98.16H0v-34.075h156.305zm22.806 0h40.303V832.65h-40.303zm198.85 44.238q-.67-12.418-12.572-12.974-6.707-.345-27.233-.345l-25.124.115c-8.47.153-14.488 1.437-18.091 3.833-4.101 2.798-6.401 8.317-6.804 16.558-.306 4.848-.44 9.582-.44 14.258a114.281 114.281 0 0 0 .862 16.328q1.572 14.393 13.243 15.466a123.56 123.56 0 0 0 15.197.67h16.06l27.424-.114q18.283-.115 18.609-11.844v-4.293h-50.307v-27.137h90.724v4.734q0 33.902-1.207 42.622a33.078 33.078 0 0 1-8.835 17.727 29.934 29.934 0 0 1-17.42 9.256 99.474 99.474 0 0 1-14.853 1.917q-17.554 1.303-47.087 1.207l-28.095-.23c-11.997-.153-20.793-1.054-26.485-2.74a33.078 33.078 0 0 1-20.717-15.754q-6.152-10.492-6.918-30.394-.575-15.907-.575-31.756-.115-6.707.115-9.812a50.518 50.518 0 0 1 2.856-15.657q7.282-22.576 34.074-26.83a109.338 109.338 0 0 1 14.335-1.649q10.387-.46 33.327-.555 28.996 0 43.886.46 41.702.958 42.469 38.022v8.911zm66.347-44.238h145.88v30.913H484.784v18.052h99.52v28.747h-99.501v23.706h106.535v30.817H444.404V700.415h-.096zm335.167 67.823q4.446-8.202 4.446-24.569a98.988 98.988 0 0 0-2.108-19.72 31.434 31.434 0 0 0-3.718-9.256q-6.726-11.499-25.24-13.415a159.061 159.061 0 0 0-16.442-.863H619.72V832.65h40.399v-32.867h64.009c8.164-.077 13.358 1.36 15.542 4.331q2.932 3.737 2.933 16.366l.345 12.266h40.303v-16.252c0-11.46-1.323-19.452-3.948-23.879q-3.968-6.707-20.66-11.326c10.905-3.239 17.861-7.55 20.832-13.05zm-41.893-4.388a21.791 21.791 0 0 1-8.356 1.552c-4.542.23-8.835.23-12.783.23h-56.42V734.49l55.328-.02 11.767.346c6.094.076 10.157 1.054 12.227 2.97 2.855 2.472 4.178 6.382 4.178 11.767-.077 7.723-2.109 12.38-5.941 14.297zm189.286-63.435h-51.226L802.53 832.65h45.745l11.92-22.672v-.115h81.718v.115l12.342 22.672H1000zm-1.38 78.728l-.101-.192H876.4l-.106.192v-.192h.106l25.018-44.96 23.969 44.96h.102z"/><path d="M876.294 777.559l.106-.192h-.106v.192zm49.195 0v-.192h-.102l.102.192z"/></svg>