<svg xmlns="http://www.w3.org/2000/svg" role="img" viewBox="1.69 1.69 796.12 395.62"><title>TL Consulting Group (member) logo</title><style>svg {enable-background:new 0 0 800 400}</style><style>.st0{fill:#006ab6}</style><path d="M140.4 183.4c-28 41-52.7 90.9-67.1 150.4 25.2 24.5 57.4 41.5 93.3 48.5-28-78.3-32.9-144.3-26.2-198.9z" class="st0"/><path d="M173.5 107.6c29.8-26.3 64.6-51.5 105.2-73.2-20.3-9.5-42.7-15.4-66.5-16.8-18.4 29.7-30.7 60-38.7 90zm30.4-90.2h-2.6C99.6 17.4 17.1 99.9 17.1 201.6c0 32.4 8.4 62.7 23.1 89.3 19.6-47.1 55.3-106.8 111.7-162.7 14.2-49.7 36.6-86.3 52-110.8z" class="st0"/><path d="M276.8 47.7c17.5 5.1 48.3 18 68.3 38.7-15.2-19.1-34-35-55.7-46.9-3.5 2.4-7.7 5-12.6 8.2z" class="st0"/><path d="M216.9 163.6h-41.5l4.4-22.6H289l-4.4 22.6h-41.7l-24 127.1h-26.1l24.1-127.1z"/><path d="M254.4 178.1h25.9l-24.2 127.1h58.8l-4.2 22.6H226l28.4-149.7z" class="st0"/><path d="M365.4 280.6c-4.7 2.1-12.1 4-21.4 4-21 0-33.6-13.1-33.6-34.3 0-15.6 6.3-30.5 17.7-39.9 8.4-7.2 19.1-11.2 31.2-11.2 9.3 0 15.6 2.3 18 4l-3.3 8.2c-3-1.9-8.9-3.5-16.3-3.5-8.6 0-17.3 3.3-23.8 9.3-7.7 7.2-12.6 18.9-12.6 31.5 0 14.9 6.8 27 25.2 27 6.3 0 13.1-1.2 17.7-3.5l1.2 8.4zm60.9-33.3c0 18.4-13.1 37.3-32.9 37.3-14.9 0-23.3-11-23.3-24.5 0-19.6 13.8-37.8 32.9-37.8 16.1.3 23.3 12.4 23.3 25zm-45.7 12.6c0 9.8 5.4 16.8 14 16.8 12.1 0 21.2-15.4 21.2-29.4 0-7-3.3-16.6-14-16.6-12.8 0-21.2 15.7-21.2 29.2zm48.5 23.5l7.9-42.2c1.4-6.5 2.1-12.4 2.8-17.3h9.1l-1.4 11.7h.2c5.4-8.4 13.3-13.1 21.9-13.1 7.2 0 15.2 4 15.2 16.6 0 2.6-.5 6.3-1.2 9.6l-6.5 34.7h-10.3l6.5-34.3c.5-2.3.9-5.1.9-7.7 0-6.1-2.3-10.5-9.3-10.5-7.2 0-17.5 8.6-20.3 23.5l-5.4 28.9h-10.1zm58.7-10.5c2.8 1.6 7.9 3.7 12.8 3.7 7 0 11.2-4.4 11.2-9.8 0-4.7-2.1-7.5-8.2-11-7-3.7-10.7-9.1-10.7-15.2 0-10.5 8.9-18.4 21.4-18.4 5.4 0 10.3 1.4 12.4 3l-2.8 7.7c-2.1-1.2-5.8-2.8-10.3-2.8-6.1 0-10.5 3.7-10.5 8.9 0 4.2 2.8 7 8.2 10 6.5 3.7 11.2 8.9 11.2 15.6 0 12.6-10.3 19.6-22.8 19.6-6.3 0-12.1-1.9-14.7-4l2.8-7.3zm96.8-48.9l-7.9 42.2c-1.2 6.5-2.1 12.4-2.8 17.3h-9.3l1.6-11.2h-.2c-5.4 7.7-13.1 12.6-21 12.6-7.7 0-15.6-3.7-15.6-17.3 0-2.8.5-6.1 1.2-10l6.3-33.6h10.3l-6.3 33.1c-.7 3.3-1.2 6.1-1.2 8.6 0 6.1 2.6 10.3 9.6 10.3 7.5 0 16.8-8.6 19.4-21.7l5.8-30.5h10.3v.2zm0 59.4l16.6-87.2h10.3l-16.8 87.2h-10.1zm51.5-75.5l-3 16.1h14.2l-1.6 7.9h-14.2l-5.6 28.9c-.7 3.3-1.2 6.3-1.2 9.6 0 3.5 1.6 5.6 5.6 5.6 1.6 0 3.5-.2 4.9-.5l-.5 7.9c-1.9.7-4.9 1.2-7.9 1.2-9.1 0-12.6-5.6-12.6-11.7 0-3.5.5-7 1.2-11.2l5.8-30.1h-8.6l1.6-7.9h8.4l2.6-13.3 10.9-2.5zm9.3 75.5l11.4-59.5h10.3l-11.4 59.5h-10.3zm13.3-76.2c0-4 3-7 6.8-7s6.1 2.8 6.1 6.3c-.2 4-3 7-7 7-3.5.2-5.9-2.6-5.9-6.3zm7 76.2l7.9-42.2c1.4-6.5 2.1-12.4 2.8-17.3h9.1l-1.4 11.7h.2c5.4-8.4 13.3-13.1 21.9-13.1 7.2 0 15.2 4 15.2 16.6 0 2.6-.5 6.3-1.2 9.6l-6.5 34.7h-10.3l6.5-34.3c.5-2.3.9-5.1.9-7.7 0-6.1-2.3-10.5-9.3-10.5-7.2 0-17.5 8.6-20.3 23.5l-5.4 28.9h-10.1zm60.6 13.6c3.5 2.1 9.6 4 15.6 4 10 0 17.7-5.1 21.4-21.2l1.9-8.9h-.5c-5.1 8.4-12.4 12.6-20.8 12.6-11.9 0-18-10-18-20.8-.2-20.1 14.7-40.1 37.8-40.1 7 0 14.5 1.9 19.1 4.2l-9.1 49.2c-2.6 12.6-5.8 21.2-12.1 26.6-5.8 5.1-14 6.5-20.8 6.5-7.2 0-14-1.6-17.7-4.2l3.2-7.9zm45.7-64.2c-1.9-.9-5.6-1.9-9.8-1.9-14.9 0-25.2 15.4-25.2 30.3 0 6.5 2.3 14.2 11.4 14.2 8.6 0 17.5-11 19.8-22.8l3.8-19.8z"/><g><path d="M610.5 328c-2.1.9-6.1 1.9-10.5 1.9-5.1 0-9.3-1.4-12.1-4.7-2.8-3-3.7-7.2-3.7-10.7 0-6.1 2.6-12.6 7.2-16.8 4-3.5 9.3-5.4 15.2-5.4 4.7 0 7.7.9 8.6 1.6l-1.4 3.7c-1.9-.9-4.4-1.6-7.7-1.6-4.4 0-8.4 1.6-11.4 4.4-3.5 3.3-5.6 8.4-5.6 13.5 0 7.2 3.5 11.9 11.9 11.9 2.1 0 4.2-.5 5.6-.9l2.1-11h-7.5l.7-3.7h11.9l-3.3 17.8zm5.1 1.6l3.3-17c.7-3.5 1.2-7 1.4-9.3h4c-.2 1.9-.5 3.7-.7 5.8h.2c1.6-3.7 4.7-6.3 8.2-6.3h1.2l-.9 4.4h-1.2c-4 0-7.5 4.7-8.6 11l-2.1 11.7h-4.7v-.3zm41.7-16.1c0 8.2-5.8 16.6-14.7 16.6-6.5 0-10.3-4.9-10.3-11 0-8.6 6.1-16.8 14.7-16.8 7.3 0 10.3 5.6 10.3 11.2zm-20.3 5.6c0 4.4 2.3 7.5 6.3 7.5 5.4 0 9.3-7 9.3-13.1 0-3-1.4-7.5-6.3-7.5-5.3.1-9.3 7-9.3 13.1zm47.8-16.1l-3.5 18.9c-.5 3-.9 5.6-1.2 7.7H676l.7-4.9c-2.3 3.5-5.8 5.6-9.3 5.6s-7-1.6-7-7.7c0-1.2.2-2.8.5-4.4l2.8-14.9h4.7l-2.8 14.7c-.2 1.4-.5 2.8-.5 4 0 2.8 1.2 4.7 4.2 4.7 3.3 0 7.5-3.7 8.6-9.8l2.6-13.5h4.4v-.4zm-.9 37.3l5.4-28c.5-3.3 1.2-6.8 1.4-9.3h4.2l-.7 4.9c2.3-3.5 5.8-5.6 9.6-5.6 5.8 0 8.2 4.7 8.2 9.6 0 9.3-6.8 18.2-15.6 18.2-2.8 0-4.7-.7-5.8-1.2l-2.1 11.4h-4.6zm7.5-15.1c1.2.9 2.8 1.4 5.1 1.4 5.8 0 10.7-7.2 10.7-14.2 0-2.8-1.2-6.1-5.1-6.1-3.5 0-8.2 4.2-9.3 11.4l-1.4 7.5z"/></g></svg>