<svg xmlns="http://www.w3.org/2000/svg" role="img" viewBox="3.92 11.93 370.15 419.90"><title>Topaz logo</title><path d="M37.8867 365.165V360.708C37.8867 360.126 38.178 359.82 38.7606 359.791H89.7933C90.3759 359.791 90.6672 360.096 90.6672 360.708V365.165C90.6672 365.747 90.3759 366.053 89.7933 366.082H67.8597V421.572C67.8597 422.154 67.5684 422.446 66.9859 422.446H60.6942C60.1116 422.446 59.8203 422.154 59.8203 421.572V366.082H38.7606C38.178 366.053 37.8867 365.747 37.8867 365.165zM104.212 415.105C98.7939 409.309 96.085 401.313 96.085 391.118 96.085 380.923 98.7939 372.942 104.212 367.175 109.659 361.378 116.635 358.48 125.14 358.48 133.675 358.48 140.651 361.378 146.069 367.175 151.516 372.942 154.24 380.923 154.24 391.118 154.24 401.313 151.516 409.309 146.069 415.105 140.651 420.902 133.675 423.8 125.14 423.8 116.635 423.8 109.659 420.902 104.212 415.105zM140.171 371.413C136.18 366.956 131.17 364.728 125.14 364.728 119.14 364.728 114.13 366.956 110.11 371.413 106.12 375.84 104.124 382.409 104.124 391.118 104.124 399.827 106.12 406.41 110.11 410.867 114.13 415.295 119.14 417.508 125.14 417.508 131.17 417.508 136.18 415.295 140.171 410.867 144.19 406.41 146.2 399.827 146.2 391.118 146.2 382.409 144.19 375.84 140.171 371.413zM168.614 421.572V360.708C168.614 360.126 168.906 359.82 169.488 359.791H195.442C202.898 359.791 208.637 361.582 212.656 365.165 216.705 368.748 218.73 373.976 218.73 380.85 218.73 387.696 216.705 392.909 212.656 396.492 208.637 400.075 202.898 401.866 195.442 401.866H176.654V421.572C176.654 422.154 176.363 422.446 175.78 422.446H169.488C168.906 422.446 168.614 422.154 168.614 421.572zM176.654 395.618H195.442C200.16 395.618 203.874 394.395 206.583 391.948 209.292 389.501 210.647 385.802 210.647 380.85 210.647 375.899 209.292 372.199 206.583 369.753 203.874 367.306 200.16 366.082 195.442 366.082H176.654V395.618zM223.317 421.572L247.042 362.5C247.77 360.723 249.11 359.82 251.062 359.791H253.771C255.752 359.791 257.092 360.694 257.791 362.5L281.516 421.572C281.603 421.746 281.647 421.878 281.647 421.965 281.647 422.285 281.355 422.446 280.773 422.446H274.35C273.767 422.446 273.316 422.154 272.996 421.572L266.748 406.323H238.085L231.837 421.572C231.546 422.154 231.095 422.446 230.483 422.446H224.06C223.507 422.446 223.23 422.285 223.23 421.965 223.201 421.878 223.23 421.746 223.317 421.572zM240.357 400.075H264.519L252.416 370.102 240.357 400.075zM288.725 421.572V418.426C288.725 417.232 289.482 415.586 290.997 413.489L327.655 366.082H289.642C289.031 366.082 288.725 365.776 288.725 365.165V360.708C288.725 360.096 289.031 359.791 289.642 359.791H336.612C337.223 359.791 337.529 360.096 337.529 360.708V363.854C337.529 365.048 336.772 366.679 335.257 368.748L298.512 416.198H336.612C337.223 416.198 337.529 416.489 337.529 417.071V421.572C337.529 422.154 337.223 422.446 336.612 422.446H289.642C289.031 422.446 288.725 422.154 288.725 421.572z"/><path fill="#61A1DC" d="M188.995 100.745L256.149 168.271L188.995 235.797L121.841 168.271L188.995 100.745Z"/><path fill="#6AB5FA" d="M186.615 96.3706L117.485 165.884H41.5293L186.612 20.0026 186.615 96.3706zM117.487 170.67L186.618 240.183V316.551L41.5371 170.67H117.487z"/><path fill="#0B4781" d="M191.377 240.18L260.507 170.667H336.46L191.38 316.548L191.377 240.18Z"/><path fill="#147ADB" d="M260.505 165.881L191.375 96.3681V20L336.455 165.881H260.505Z"/><path fill="#1C5286" d="M253.228 242.192C244.667 251.383 227.965 250.493 216.974 240.987C205.957 231.463 203.762 217.844 211.156 209.885C215.039 205.995 236.388 186.578 252.729 164.337C269.985 142.806 282.231 118.45 289.066 121.096C295.734 123.351 295.754 154.225 285.651 182.671C276.72 211.579 257.664 238.059 253.228 242.192Z"/><path fill="#1C60A1" d="M233.092 201.606C241.66 198.777 286.337 177.852 287.447 177.251C286.888 179.062 286.289 180.872 285.65 182.672C276.718 211.58 257.663 238.059 253.227 242.192C244.666 251.383 227.964 250.493 216.973 240.986C212.824 237.4 209.928 233.233 208.322 229.006C208.744 226.954 209.472 209.404 233.092 201.606Z"/><path fill="#1D6EBA" d="M261.241 266.426C249.685 271.348 234.785 263.751 228.602 250.6C222.402 237.424 225.927 224.086 235.916 219.816C241.043 217.839 268.439 208.767 292.405 195.077C316.918 182.41 338.001 165.128 343.172 170.321C348.349 175.09 335.828 203.312 315.043 225.203C295.141 247.992 266.973 264.45 261.241 266.426Z"/><path fill="#227FD7" d="M311.544 201.758C310.256 205.405 308.804 209.065 307.178 212.67C295.897 240.744 274.726 265.566 269.965 269.319C260.676 277.775 244.105 275.512 233.934 265.133C223.738 254.736 222.671 240.982 230.695 233.658C231.492 232.982 307.296 203.817 311.544 201.758Z"/><path fill="#3990E0" d="M252.084 288.241C239.526 288.048 228.991 275.058 228.677 260.53C228.359 245.971 236.995 235.213 247.857 235.364C253.345 235.639 282.066 238.466 309.523 235.682C337.068 234.055 363.35 226.817 365.969 233.663C368.765 240.123 345.867 260.834 317.986 272.404C290.549 285.152 258.125 288.762 252.084 288.241Z"/><path fill="#1C5286" d="M124.973 242.192C133.534 251.383 150.236 250.493 161.227 240.987C172.244 231.463 174.439 217.844 167.045 209.885C163.162 205.995 141.813 186.578 125.472 164.337C108.216 142.806 95.97 118.45 89.135 121.096C82.4668 123.351 82.4467 154.225 92.5498 182.671C101.482 211.579 120.537 238.059 124.973 242.192Z"/><path fill="#1C60A1" d="M145.11 201.606C136.542 198.777 91.8645 177.852 90.7549 177.251C91.3139 179.062 91.9123 180.872 92.5515 182.672C101.483 211.58 120.538 238.059 124.975 242.192C133.536 251.383 150.238 250.493 161.229 240.986C165.377 237.4 168.274 233.233 169.879 229.006C169.458 226.954 168.73 209.404 145.11 201.606Z"/><path fill="#1D6EBA" d="M116.961 266.426C128.517 271.348 143.418 263.751 149.6 250.6C155.8 237.424 152.275 224.086 142.286 219.816C137.159 217.839 109.763 208.767 85.7976 195.077C61.2837 182.41 40.2011 165.128 35.0306 170.321C29.8532 175.09 42.3741 203.312 63.1592 225.203C83.0616 247.992 111.23 264.45 116.961 266.426Z"/><path fill="#227FD7" d="M65.834 201.758C67.1222 205.405 68.5741 209.065 70.1998 212.67C81.4814 240.744 102.653 265.566 107.414 269.319C116.703 277.774 133.274 275.512 143.445 265.133C153.641 254.735 154.707 240.981 146.683 233.657C145.886 232.981 70.0819 203.817 65.834 201.758Z"/><path fill="#3990E0" d="M126.117 288.241C138.675 288.048 149.211 275.058 149.524 260.53C149.842 245.971 141.207 235.213 130.345 235.364C124.857 235.639 96.1359 238.466 68.6784 235.683C41.133 234.055 14.8501 226.817 12.2317 233.663C9.43543 240.123 32.3333 260.834 60.2142 272.404C87.6531 285.152 120.077 288.762 126.117 288.241Z"/><path fill="#6BB1F2" d="M277.433 270.783C277.433 319.567 237.885 326.029 189.102 326.029C140.318 326.029 100.771 319.567 100.771 270.783C100.771 222 140.317 176.209 189.101 176.209C237.885 176.209 277.433 222 277.433 270.783Z"/><path fill="#D5EBFF" d="M172.206 199.972C164.658 202.574 158.043 206.612 152.543 211.974C150.399 214.064 146.967 214.021 144.876 211.876C142.786 209.732 142.83 206.3 144.974 204.21C151.628 197.723 159.601 192.849 168.671 189.72C171.502 188.744 174.592 190.246 175.563 193.078C176.872 196.889 172.988 199.702 172.206 199.972Z"/><path d="M134.164 259.532C139.68 259.532 144.152 255.06 144.152 249.544 144.152 244.028 139.68 239.557 134.164 239.557 128.648 239.557 124.177 244.028 124.177 249.544 124.177 255.06 128.648 259.532 134.164 259.532zM245.282 259.532C250.798 259.532 255.27 255.06 255.27 249.544 255.27 244.028 250.798 239.557 245.282 239.557 239.766 239.557 235.295 244.028 235.295 249.544 235.295 255.06 239.766 259.532 245.282 259.532zM188.122 290.424C194.918 290.424 201.209 289.441 206.996 287.477 212.783 285.513 218.145 282.619 223.082 278.797L226.666 284.053C221.622 288.194 215.809 291.512 209.226 294.007 202.696 296.555 195.661 297.83 188.122 297.83 180.583 297.83 173.522 296.555 166.939 294.007 160.409 291.512 154.622 288.194 149.578 284.053L153.162 278.797C158.099 282.619 163.461 285.513 169.248 287.477 175.035 289.441 181.326 290.424 188.122 290.424z"/></svg>