<svg xmlns="http://www.w3.org/2000/svg" role="img" viewBox="-6.88 -6.88 357.50 143.25"><title>Traefik logo</title><g fill="#000" fill-rule="nonzero"><path d="M55.5001 14c5.03398 0 9.5087 3.5535 9.5087 7.9306 0 4.3769-4.2606 7.9306-9.5087 7.9306-.60046 0-1.38419-.09839-2.3512-.29516a3.16729 3.16729 0 0 0-2.19845.35114L16.85821 49.3222c-.76082.43306-1.02683 1.4014-.59413 2.16287a1.58545 1.58545 0 0 0 .60184.59898L53.82275 72.8469c.95946.53904 2.1296.54151 3.09133.00653l37.1571-20.66933c.76504-.42556 1.04052-1.39125.6153-2.15692a1.58548 1.58548 0 0 0-.6029-.60885l-11.59324-6.58592c-.96066-.54574-2.1359-.55155-3.10191-.01535l-12.239 6.79347c-.30872.17137-.51196.48146-.54953.82796l-.0063.1167c0 4.3769-4.2606 7.9306-9.5087 7.9306-5.2481 0-9.5089-3.5537-9.5089-7.9306 0-4.3771 4.2608-7.9306 9.5089-7.9306.19497 0 .41884.01056.67162.0317l.40083.0396.44419.05546a3.16734 3.16734 0 0 0 1.96411-.3691l18.09958-10.04549c1.386-.76928 3.05915-.79473 4.46308-.07909l.18972.10219 25.27453 14.35826c3.16891 1.80023 3.20531 6.3279.13338 8.19798l-.17064.09933-16.90728 9.4044c-.76505.42554-1.04056 1.39122-.61537 2.1569a1.58542 1.58542 0 0 0 .64753.63329l16.74653 8.8151c3.3241 1.74971 3.40398 6.48463.1408 8.34566l-50.85831 29.0051c-1.4601.83272-3.25098.83212-4.71053-.00157L2.42974 84.48944C-.83733 82.6233-.7476 77.87886 2.5877 76.1378l16.92918-8.838c.77603-.40514 1.07698-1.36319.67218-2.13986a1.58552 1.58552 0 0 0-.62941-.64957l-17.1325-9.62459c-3.16853-1.7801-3.23725-6.29103-.19168-8.18525l.16921-.10069 42.07716-23.94857c.66614-.37913 1.17068-.98584 1.42344-1.7057l.05393-.16845C47.4362 16.3756 50.7973 14 55.5001 14zm23.47874 58.42053L58.20006 84.3769l-.19086.1041c-1.41263.72898-3.10155.7017-4.49452-.0843L32.8022 72.71068c-.93166-.52565-2.06491-.54356-3.01261-.04761L17.8503 78.91105c-.7743.4052-1.0746 1.36346-.67074 2.14033a1.58417 1.58417 0 0 0 .61823.6442l36.4776 20.88721c.97085.55591 2.16209.5563 3.1333.00102l36.79266-21.03577c.75875-.43381 1.02333-1.40261.59096-2.16388a1.58362 1.58362 0 0 0-.6378-.61866l-12.13029-6.4008c-.95779-.5054-2.10664-.48433-3.0454.05583z"/><path d="M156.408 86.056c2.73067 0 5.14133.672 7.232 2.016 2.09067 1.344 3.712 3.232 4.864 5.664 1.152 2.432 1.728 5.26933 1.728 8.512 0 3.2-.576 6.00533-1.728 8.416-1.152 2.41067-2.77333 4.27733-4.864 5.6-2.09067 1.32267-4.50133 1.984-7.232 1.984-2.60267 0-4.832-.576-6.688-1.728-1.856-1.152-3.25333-2.816-4.192-4.992v16.64l-.0055.171c-.02567.38733-.14117.693-.3465.917-.23467.256-.56533.384-.992.384-.896 0-1.344-.49067-1.344-1.472V87.592l.00718-.17763c.02874-.34482.14368-.62694.34482-.84637.23467-.256.56533-.384.992-.384s.75733.128.992.384c.23467.256.352.59733.352 1.024v5.056l.1704-.37127c.93425-1.95233 2.27478-3.46057 4.0216-4.52473 1.856-1.13067 4.08533-1.696 6.688-1.696zm107.456.064c.46933 0 .832.256 1.088.768l12.352 27.84.128-.32 12.16-27.328.06711-.14311c.25748-.50193.64045-.75289 1.14889-.75289.34133 0 .64.11733.896.352s.384.544.384.928c0 .128-.04267.32-.128.576l-18.368 40.704-.08064.14592c-.25344.41472-.61056.62208-1.07136.62208-.34133 0-.62933-.10667-.864-.32-.23467-.21333-.352-.49067-.352-.832l.128-.512 4.608-10.112-13.44-29.696-.04608-.14592c-.05461-.18432-.08192-.32768-.08192-.43008 0-.384.14933-.704.448-.96s.64-.384 1.024-.384zm-52.288-.064c2.73067 0 5.14133.66133 7.232 1.984 2.09067 1.32267 3.712 3.2 4.864 5.632 1.152 2.432 1.728 5.248 1.728 8.448 0 3.24267-.576 6.08-1.728 8.512-1.152 2.432-2.77333 4.30933-4.864 5.632-2.09067 1.32267-4.50133 1.984-7.232 1.984s-5.14133-.66133-7.232-1.984c-2.09067-1.32267-3.712-3.2-4.864-5.632-1.152-2.432-1.728-5.26933-1.728-8.512 0-3.2.576-6.016 1.728-8.448 1.152-2.432 2.77333-4.30933 4.864-5.632 2.09067-1.32267 4.50133-1.984 7.232-1.984zm-18.56.128l.1845.0045c.413.021.7035.1155.8715.2835.192.192.288.48.288.864 0 .72533-.448 1.152-1.344 1.28l-1.92.192-.37007.03994c-2.9311.35225-5.15441 1.49094-6.66993 3.41606-1.57867 2.00533-2.368 4.30933-2.368 6.912v17.472l-.0055.171c-.02567.38733-.14117.693-.3465.917-.23467.256-.56533.384-.992.384s-.75733-.128-.992-.384c-.23467-.256-.352-.61867-.352-1.088V87.656l.00465-.16808c.0496-.86928.49606-1.30392 1.33935-1.30392.384 0 .704.128.96.384s.384.61867.384 1.088v4.608l.15635-.30193c1.86436-3.47753 5.14024-5.38222 9.82765-5.71407l.896-.064h.448zm64.128 0c.34133 0 .65067.128.928.384.27733.256.416.576.416.96s-.14933.74667-.448 1.088l-11.392 13.312 11.712 13.632.11886.1476c.21943.29779.32914.61126.32914.9404 0 .384-.128.704-.384.96s-.55467.384-.896.384c-.384 0-.74667-.192-1.088-.576l-11.52-13.504-11.456 13.504-.144.135c-.336.294-.672.441-1.008.441-.34133 0-.64-.128-.896-.384s-.384-.576-.384-.96.14933-.74667.448-1.088l11.712-13.632-11.328-13.312-.11886-.1476c-.21943-.29779-.32914-.61126-.32914-.9404 0-.384.128-.704.384-.96s.55467-.384.896-.384c.384 0 .74667.192 1.088.576l11.136 13.184 11.136-13.184.129-.135c.30333-.294.623-.441.959-.441zm-45.568 2.496c-3.41333 0-6.09067 1.184-8.032 3.552-1.94133 2.368-2.912 5.664-2.912 9.888 0 4.352.94933 7.69067 2.848 10.016 1.89867 2.32533 4.576 3.488 8.032 3.488 3.54133 0 6.26133-1.16267 8.16-3.488s2.848-5.664 2.848-10.016c0-4.224-.97067-7.52-2.912-9.888-1.94133-2.368-4.61867-3.552-8.032-3.552zm-55.168 0c-3.49867 0-6.18667 1.16267-8.064 3.488-1.87733 2.32533-2.816 5.64267-2.816 9.952s.93867 7.63733 2.816 9.984c1.87733 2.34667 4.544 3.52 8 3.52 3.456 0 6.144-1.16267 8.064-3.488s2.88-5.62133 2.88-9.888c0-4.26667-.96-7.59467-2.88-9.984s-4.58667-3.584-8-3.584zM312.6663 0c1.06076 0 1.9742.35417 2.74033 1.06237.74253.66108 1.13856 1.55347 1.18807 2.6772l.0053.24433V38.968l20.11205-18.13946c.58473-.49708 1.20536-.77053 1.86191-.82025L338.79414 20c.94502 0 1.77195.36344 2.48078 1.09019.73829.72683 1.10745 1.54084 1.1075 2.44202-.00004.74621-.29784 1.43131-.8934 2.05532l-.1698.16866-16.08078 14.17245 17.58697 18.22795c.64969.66865.97459 1.42451.97459 2.26759 0 .9303-.38397 1.75884-1.15179 2.48563C341.90984 63.6366 341.0534 64 340.07883 64c-.95986 0-1.79236-.35094-2.49752-1.05281l-.16046-.1682L316.6 40.976v18.99584c0 1.1568-.35937 2.0951-1.07806 2.81489l-.1595.1509C314.56683 63.64588 313.62392 64 312.5337 64c-1.09024 0-2.01843-.33937-2.78453-1.0181-.71504-.66104-1.0964-1.57914-1.14406-2.7543l-.00511-.25576V3.9839c0-1.2394.39778-2.21323 1.19337-2.92153C310.61841.35417 311.57605 0 312.6663 0zm-16 19.2c1.06076 0 1.9742.36729 2.74033 1.10172.74253.68556 1.13856 1.611 1.18807 2.77635l.0053.25339v36.49118c0 1.28535-.41254 2.31056-1.23757 3.07564-.7956.73448-1.7385 1.10172-2.82873 1.10172-1.09024 0-2.01843-.35194-2.78453-1.05581-.71504-.68552-1.0964-1.63762-1.14406-2.85632l-.00511-.26523V23.33146c0-1.2853.39778-2.29521 1.19337-3.02974.82504-.73443 1.78268-1.10172 2.87293-1.10172zM285.91892 0l-.00092.003.05257.00211C287.43754.09326 288.6 1.31088 288.6 2.8c0 1.46262-1.12146 2.66332-2.55141 2.78912l-.17292.01088h-4.15135c-1.23966.00006-2.20542.11676-2.8973.3501-.6919.2043-1.31172.76097-1.85945 1.51948-.51894.72945-.70633 2.11472-.90811 3.5151-.16146 1.2799-.24756 2.9918-.25831 5.13573l-.00115.46602-.001 2.61257L283 19.2c1.32548 0 2.4 1.07452 2.4 2.4S284.32548 24 283 24l-7.2-.001v35.97284c0 1.1568-.35937 2.0951-1.07806 2.81489l-.1595.1509C273.76683 63.64588 272.82392 64 271.7337 64c-1.09024 0-2.01842-.33937-2.78453-1.0181-.71504-.66104-1.0964-1.57914-1.14406-2.7543l-.00511-.25576V23.999l-6.4.001c-1.32548 0-2.4-1.07452-2.4-2.4s1.07452-2.4 2.4-2.4l6.399-.001.001-4.75699c0-5.2224 1.09548-8.92773 3.28649-11.11597 2.11272-2.1381 5.00284-3.24543 8.67037-3.3218L280.16756 0h5.75136zm-47.25366 19.2c4.168 0 8.04221 1.07407 10.93014 3.02422 2.2906 1.54682 4.15144 3.92966 4.90316 6.27865.43163 1.3487.49724 1.84707.50134 3.80603.0022 1.2189-.03075 2.04107-.09762 2.422-.67586 3.85018-2.28571 6.5175-5.07997 8.4168-2.24795 1.52794-5.07118 2.422-8.7636 2.77514-1.85874.17777-5.25837.16098-7.46072-.03692-1.86911-.1679-4.16426-.46335-5.14337-.66202-.81956-.16634-3.62605-.64268-3.64915-.61936-.01018.01045-.14372.86361-.29672 1.89638-.24428 1.649-.27889 2.06046-.28401 3.37711l.00024.64639c.00625.79381.04279 1.04298.17188 1.54495.51092 1.98663 1.63685 3.31553 3.67957 4.34288 2.00948 1.01064 4.11605 1.44798 7.29905 1.5154 1.4092.03014 2.13087.00913 3.0125-.08574 2.13723-.23036 3.11112-.48311 5.95059-1.54424.70721-.26433 1.42896-.50483 1.60389-.53448.37487-.06354 1.074.06767 1.48147.2781.73547.3797 1.3534 1.39237 1.34954 2.21158-.0042.95705-.3218 1.53674-1.2539 2.29061-2.22867 1.80254-5.07426 2.90796-8.4711 3.29081-1.21128.13655-3.9768.15667-5.31262.03875-3.76189-.33215-6.37369-.98622-8.76057-2.19375-1.86243-.94222-3.2834-2.11113-4.3447-3.57405-.20863-.28758-.39212-.53906-.46227-.63382l-.02998-.0398c-.00999-.01104-.1833.1966-.38522.46134-.8925 1.17032-2.2573 2.42824-3.59106 3.3098-1.92548 1.27268-4.6897 2.24357-7.48674 2.62968-.83414.1151-3.60169.21006-4.31136.14788-4.90198-.4296-8.64776-1.9327-11.37222-4.56347-2.7719-2.67667-3.96129-6.16633-3.4919-10.2454.54016-4.69407 2.7345-8.00892 6.58178-9.94277 2.96517-1.49048 5.92324-2.05744 10.74057-2.0586 3.4227-.00147 6.2907.28344 10.66495 1.05706 1.08162.1913 2.01806.34791 2.08098.34804.0915 0 .16406-.34993.36252-1.74902.35908-2.53137.42344-3.40484.32561-4.41885-.11387-1.18035-.26248-1.74255-.70237-2.6573-1.13496-2.36006-3.82917-3.80404-8.1556-4.371-1.23731-.16214-4.09297-.18483-5.33246-.04244-2.07664.23867-3.23548.54277-5.81991 1.52715-1.51203.57593-1.51894.57771-2.12207.54172-1.03684-.06176-1.74466-.53896-2.19866-1.48224-.18696-.38844-.21984-.5488-.21985-1.0722 0-.78573.2013-1.20286.90224-1.86939 1.57184-1.49473 4.2169-2.76764 6.88656-3.31417 1.7094-.34994 2.55086-.42351 4.803-.42 2.33039.00619 3.8205.1374 5.89144.52887 3.4446.65104 6.06012 1.7986 8.03238 3.5241.5852.51197 1.46763 1.51964 1.84575 2.10764.11557.17974.23462.3268.26456.3268.02995 0 .22112-.21595.42486-.47984 2.98643-3.86845 8.01628-6.05808 13.90915-6.055zm-50.08919 0c.99674 0 1.77547.35842 2.33618 1.07512.5918.7168.88775 1.553.88775 2.50863 0 .89597-.2648 1.67245-.7943 2.32943-.52956.6272-1.29272.94077-2.28946.94073-4.20515.00004-7.0758 1.0453-9.41197 3.13578-2.24973 2.04039-3.4494 4.74928-3.50372 8.12668L175.8 59.82264c0 1.28535-.41254 2.31056-1.23757 3.07564-.7956.73448-1.7385 1.10172-2.82873 1.10172-1.09024 0-2.01843-.35194-2.78453-1.05581-.73665-.70623-1.11914-1.69541-1.14747-2.96753l-.0017-.15402V23.33146c0-1.2853.39778-2.29521 1.19337-3.02974.82504-.73443 1.78268-1.10172 2.87293-1.10172 1.06076 0 1.9742.36729 2.74033 1.10172.76374.70515 1.1609 1.66408 1.19146 2.87682l.00191.15292V28.962l.11654-.3899c.81227-2.60314 2.33087-4.78643 4.55582-6.5499 2.36732-1.88142 4.80188-2.8222 8.10371-2.8222zM147.34033 6.4c.9812 0 1.82982.3178 2.54586.95341.74252.6621 1.11381 1.5493 1.11381 2.6616l-.001 9.18399 8.801.001c1.27025 0 2.31002.98684 2.39446 2.23568L162.2 21.6c0 1.27025-.98684 2.31002-2.23568 2.39446L159.8 24l-8.801-.001.001 23.41457.00115.46602c.01075 2.14393.09685 3.85584.2583 5.13573.2018 1.40038.38918 2.78565.90812 3.5151.54772.75851 1.16754 1.31518 1.85945 1.51947.62898.21214 1.48431.32787 2.566.3472l.3313.00291h4.15135c1.51166.04135 2.72433 1.27906 2.72433 2.8 0 1.43185-1.07476 2.61267-2.46157 2.77976l-.16786.01513-.05257.00211.00092.003h-5.75135l-.4107-.00424c-3.66754-.07637-6.55766-1.1837-8.67038-3.3218-2.12461-2.12193-3.2191-5.67039-3.28347-10.64539L143 49.558l-.001-25.55899L137.4 24c-1.27025 0-2.31002-.98684-2.39446-2.23568L135 21.6c0-1.27025.98684-2.31002 2.23568-2.39446L137.4 19.2l5.765-.001.635-9.18398c0-1.16528.34475-2.06573 1.03426-2.70134.68949-.60912 1.52485-.91368 2.50607-.91368zm60.12098 36.6312c-2.97841.17088-4.1926.43718-5.98084 1.31185-.9161.44806-1.5484.93431-2.0487 1.57538-.71776.91982-1.15099 1.83387-1.45297 3.0655-.21975.89625-.24218 3.24299-.03822 3.9991.34358 1.27365.75145 1.99452 1.66859 2.94903 1.25585 1.30698 2.9114 2.17887 4.96492 2.61485 1.05005.22295 1.01898.22078 2.77714.19367 1.27573-.01984 1.75303-.05653 2.27492-.17486 2.21557-.50289 4.18997-1.6364 5.6233-3.22825 1.30744-1.452 2.37982-3.62727 2.97-6.0244.33267-1.3513.88567-5.11217.76308-5.18972-.04837-.03067-.34062-.07907-.64935-.1077-.23156-.02164-.78448-.08678-1.36998-.16084l-.392-.05032a93.139 93.139 0 0 1-.19368-.02543c-4.5551-.60338-7.34958-.8378-8.91621-.74786zm27.7814-18.04593c-1.62214.30467-2.99332.86-4.20265 1.70199-2.23427 1.55562-3.77622 3.90058-4.63486 7.04853-.33727 1.2365-.42718 1.7111-.72788 3.8425l-.27738 1.96611.37156.04213c1.1222.1281 3.65275.4435 5.12238.63851.92458.12268 2.0593.25359 2.5216.29096 1.23363.09969 3.37018.09879 4.72241.00446l.32075-.02552v.00042c1.84551-.16763 2.98028-.46256 4.37452-1.13682 1.15958-.56085 1.83356-1.13405 2.47135-2.10185.93897-1.42488 1.3046-2.77332 1.2954-4.77676-.00689-1.42796-.12445-2.02198-.60333-3.04714-1.06998-2.29049-3.58351-3.93115-6.88012-4.49087-.82262-.13964-3.03055-.11484-3.87375.04335zM296.64102 0c1.42221 0 2.57093.39282 3.44616 1.17828.8752.76023 1.31282 1.7738 1.31282 3.04072 0 1.24168-.43762 2.25526-1.31282 3.04073C299.21195 8.01996 298.04956 8.4 296.6 8.4c-1.44958 0-2.61198-.38004-3.48718-1.14027C292.2376 6.47426 291.8 5.46068 291.8 4.219c0-1.24157.4376-2.25515 1.31282-3.04072C294.01538.39282 295.19144 0 296.64102 0z"/></g></svg>