<svg xmlns="http://www.w3.org/2000/svg" role="img" viewBox="-9.59 72.66 420.94 84.69"><defs><clipPath id="a"><path d="M0 2834.65h2834.65V0H0z"/></clipPath></defs><path fill="none" d="M0 0h400v245H0z" pointer-events="none"/><path fill="#c8171e" d="M7.672 97.546l36.897.727-3.347 7.21h-12.45l-9.276 23.596h-11.7l8.413-23.29-12.26-.306z"/><g fill="#c8171e" clip-path="url(#a)" transform="matrix(.1749 0 0 -.1749 -36.86 380.02)"><path d="M495.817 1609.382l182.39-5.572s41.402-57.335-67.695-90.777l-.783-4.782s13.207 7.62 23.897-23.88c9.733-28.778 11.924-39.829 11.924-39.829h-76.465l-19.895 56.544 14.33 36.634s44.618-1.597 49.356 22.288c4.82 23.897-16.942 16.716-21.998 17.541-5.055.784-35.31-.825-35.31-.825l-54.175-136.155h-74.041zm167.256-165.629h70.877l92.373 121.839-3.187-117.064h72.488l-11.947 150.518h-87.61zm322.501 152.109l82.048 3.184 36.629-87.623 31.85 83.638h65.303l-56.534-143.344h-83.606l-35.05 77.247-31.848-77.247-69.3-3.189zm207.093-96.362h66.071s-3.182-28.65 36.653-25.083c39.796 3.58 34.24 21.894 32.648 25.084-1.605 3.184-17.542 10.342-60.518 15.142-43.017 4.764-43.017 31.043-38.226 38.207 4.758 7.158 22.306 46.196 139.348 43.012 0 0 58.127 3.974 53.37-39.828l-69.298-4.782s6.367 19.122-12.75 19.122c-19.086 0-42.982-2.4-42.982-11.941 0-9.557 22.285-11.957 51.767-16.738 29.432-4.765 56.532-12.73 54.942-31.852-1.592-19.098-27.1-57.317-129.02-61.315-101.912-3.985-83.636 46.976-82.005 50.973m267.566 96.538h64.496l-11.156-83.813 145.739 198.3-11.145-198.3 55.724 83.813h64.519l-97.153-147.51h-80.43l3.084 97.947-167.914-227.77zm263.589-147.511l70.08-.223 90.755 118.884v-118.66h70.876l-12.727 150.517h-87.595zm324.103 156.09l173.592 3.992s15.918-3.992 18.317-27.889c2.399-23.88-27.896-60.507-75.674-70.065 0 0 23.906-1.622 34.249-70.878h-78.035s-11.155 48.567-17.51 60.49l13.52 39.044s44.588-.808 50.178 23.095c5.589 23.898-62.106 14.317-62.106 14.317l-50.192-132.97h-70.072z"/><path d="M202.666 1348.058s1180.215 189.27 2318.33 0c0 0-1379.934 136.67-2318.33 0m2132.964 188.106l15.764 40.203s48.93 13.708 50.877-16.686c1.972-30.394-56.844-23.517-66.64-23.517m102.484 78.012c-6.393 0-142.568-5.565-142.568-5.565l-66.883-168.833 68.508-3.202 25.488 61.327s32.417-2.154 61.95 1.422c47.322 5.724 81.378 37.604 88.554 71.048 7.16 33.437-28.696 43.802-35.049 43.802"/></g></svg>