<svg xmlns="http://www.w3.org/2000/svg" role="img" viewBox="-5.99 -5.99 311.74 111.74"><title>Trend Micro (member) logo</title><path d="M83 14h1v1h-1zm-2 7h1v1h-1zM22 41h1v1h-1zM9 59h1v1H9zm-2 8h1v1H7zm64 1h1v1h-1zm-15 1h1v1h-1zm10 3h1v1h-1zm-15 9h1v1h-1z" fill="#f4bec0"/><path d="M76 17h1v1h-1zm6 5h1v1h-1zm2 5h1v1h-1zm2 24h1v1h-1zm-74 2h1v1h-1zm61 2h1v1h-1zm6 5h1v1h-1zm-6 6h1v1h-1zM36 86h1v1h-1z" fill="#fbe6e7"/><path d="M171 23h1v1h-1zm112 1h1v1h-1zm-107 1h1v1h-1zm109 0h1v1h-1zm-50 1h1v1h-1zm-65 4h1v1h-1zm69 3h1v1h-1zm52 0h1v1h-1zm-9 1h1v1h-1zm-42 1h1v1h-1zm-61 1h1v1h-1zm53 2h1v1h-1zm51 0h1v1h-1zm-105 1h1v1h-1zm55 1h1v1h-1zm10 0h1v1h-1zm1 2h1v1h-1zm39 0h1v1h-1zm-109 1h1v1h-1zm-9 1h1v1h-1zm1 2h1v1h-1zm116 0h1v1h-1zm-45 1h1v1h-1zm1 2h1v1h-1zm52 0h1v1h-1zm-1 2h1v1h-1zm-120 2h1v1h-1zm117 1h1v1h-1zm-116 2h1v1h-1zm72 0h1v1h-1zm40 0h1v1h-1zm-132 1h1v1h-1zm8 0h1v1h-1zm22 0h1v1h-1zm34 0h1v1h-1zm63 0h1v1h-1zm21 6h1v1h-1zm-95 2h1v1h-1zm71 0h1v1h-1zm5 0h1v1h-1zm-84 1h1v1h-1zm87 0h1v1h-1zm-150 1h1v1h-1zm138 0h1v1h-1zm-77 1h1v1h-1zm15 1h1v1h-1zm77 0h1v1h-1zm-17 1h1v1h-1zm6 0h1v1h-1zm-77 1h1v1h-1zm76 0h1v1h-1zm8 1h1v1h-1zm-34 1h1v1h-1zm-118 1h1v1h-1zm5 2h1v1h-1zm63 3h1v1h-1zm42 0h1v1h-1zm-106 1h1v1h-1zm65 0h1v1h-1zm70 0h1v1h-1zm-22 1h1v1h-1zm39 0h1v1h-1zm-92 1h1v1h-1zm14 0h1v1h-1zm-13 1h1v1h-1zm53 0h1v1h-1zm-115 1h1v1h-1zm73 0h1v1h-1zm77 0h1v1h-1zm-84 1h1v1h-1zm4 0h1v1h-1zm74 0h1v1h-1zm2 0h1v1h-1z"/><path d="M101 49h1v1h-1zm0 1h1v1h-1zM0 59h1v1H0z" fill="#ea8085"/><path d="M81 13h1v1h-1zm3 1h1v1h-1zm7 29h1v1h-1zM74 53h1v1h-1zM7 75h1v1H7z" fill="#e4656a"/><path d="M68 13h1v1h-1zm15 11h1v1h-1zM29 36h1v1h-1zM11 46h1v1h-1zm-3 3h1v1H8zm5 2h1v1h-1zm67 8h1v1h-1zm-12 1h1v1h-1z" fill="#f8d6d7"/><path d="M58 16h1v1h-1zm24 25h1v1h-1zm8 3h1v1h-1zm-1 2h1v1h-1zm-61 3h7v1h-7zm7 0h1v1h-1zM22 62h1v1h-1zM7 69h1v1H7zm0 1h1v1H7zm60 1h1v1h-1zM19 86h1v1h-1zm7 1h2v1h-2zm2 0h1v1h-1z" fill="#fae2e3"/><path fill="#fbe3e3" d="M93 23h1v1h-1z"/><path d="M13 49h1v1h-1zm64 13h1v1h-1zM8 63h1v1H8zm68 0h1v1h-1zm-1 1h1v1h-1zm-14 2h1v1h-1zM29 77h1v1h-1z" fill="#fdf2f3"/><path fill="#f5c4c6" d="M14 84h1v1h-1z"/><path d="M44 0h1v1h-1zm12 0h1v1h-1zM22 8h1v1h-1zm67 39h1v1h-1zM60 66h1v1h-1z" fill="#e66d72"/><path d="M59 16h1v1h-1zm0 51h1v1h-1zM7 73h1v1H7zm30 13h1v1h-1zm-14 1h1v1h-1z" fill="#f2b5b8"/><path d="M117 23h25v1h-25zm25 0h1v1h-1zm9 0h15v1h-15zm15 0h1v1h-1zm24 0h22v1h-22zm22 0h1v1h-1zm13 0h7v1h-7zm7 0h1v1h-1zm14 0h5v1h-5zm5 0h1v1h-1zm13 0h10v1h-10zm10 0h1v1h-1zm-22 1h1v32h-1zm-83 5h1v1h-1zm10 3h1v1h-1zm61 4h1v1h-1zm-8 1h1v1h-1zm-58 8h1v1h-1zm1 2h1v1h-1zm1 2h1v1h-1zm1 2h1v1h-1zm20 0h16v1h-16zm16 0h1v1h-1zm58 0h3v1h-3zm3 0h1v1h-1zm1 0h1v1h-1zm-97 2h1v1h-1zm107 1h1v1h-1zm-106 1h1v1h-1zm73 1h1v1h-1zm37 2h3v1h-3zm3 0h1v1h-1zm7 0h1v1h-1zm-8 1h1v1h-1zm6 3h1v1h-1zm2 2h1v1h-1zm-167 5h1v1h-1zm65 1h1v1h-1zm75 2h1v1h-1zm-138 2h1v1h-1zm-10 1h1v1h-1zm0 1h1v7h-1zm9 2h1v1h-1zm63 0h1v1h-1zm72 0h1v1h-1zm-75 3h1v1h-1zm82 0h1v1h-1zm-143 1h1v1h-1zm-8 1h1v1h-1z" fill="#060808"/><path d="M179 31h1v1h-1zm-10 6h1v1h-1zm75 6h1v1h-1zm-77 4h1v1h-1zm112 22h1v1h-1zm-75 2h1v1h-1zm-69 1h1v1h-1z" fill="#040608"/><path d="M3 67h1v1H3zm14 20h1v1h-1zm22 11h1v1h-1zm22 0h1v1h-1zm-15 1h1v1h-1z" fill="#dc333a"/><path d="M75 93h1v1h-1zm-32 6h1v1h-1z" fill="#e2555a"/><path d="M43 0h1v1h-1zm14 0h1v1h-1zm14 4h1v1h-1z" fill="#e87c82"/><path d="M14 45h1v1h-1zm15 1h1v1h-1zm-4 8h1v1h-1zm59 0h1v1h-1zm-12 2h1v1h-1zm-49 3h1v1h-1z" fill="#f9dbdc"/><path fill="#e56d72" d="M100 58h1v1h-1z"/><path fill="#e4666b" d="M4 29h1v1H4z"/><path d="M75 17h1v1h-1zm8 20h1v1h-1zm10 0h1v1h-1zm-11 3h1v1h-1zM52 71h1v1h-1zm-28 3h1v1h-1zm23 9h1v1h-1z" fill="#ea8589"/><path d="M97 31h1v1h-1zm2 6h1v1h-1z" fill="#e66e72"/><path d="M100 57h1v1h-1zm-1 5h1v1h-1zM2 65h1v1H2zm95 3h1v1h-1z" fill="#e35e61"/><path d="M59 15h1v1h-1zm20 4h1v1h-1zm12 23h1v1h-1zm-55 7h1v1h-1zm-10 3h1v1h-1zm10 25h1v1h-1zm-6 10h1v1h-1z" fill="#f6c8ca"/><path d="M93 25h1v1h-1zm0 10h1v1h-1zM77 50h1v1h-1zm-66 5h1v1h-1zm67 6h1v1h-1zm-12 1h1v1h-1zm8 3h1v1h-1zm-16 3h1v1h-1zm-9 5h1v1h-1z" fill="#fcedee"/><path d="M27 38h1v1h-1zm41 32h1v1h-1zm-4 3h1v1h-1z" fill="snow"/><path d="M30 43h1v1h-1zM9 47h1v1H9zm70 0h1v1h-1zM8 76h1v1H8zm50 1h1v1h-1zm-15 7h1v1h-1z" fill="#fcf0f0"/><path d="M30 44h1v2h-1zm0 2h7v1h-7zm7 0h1v1h-1zm38 6h1v1h-1zm-52 8h1v1h-1zm25 13h1v1h-1zm-5 2h1v1h-1z" fill="#eb8c90"/><path d="M93 77h1v1h-1zM18 89h1v1h-1z" fill="red"/><path d="M90 81h1v1h-1zM76 93h1v1h-1zm-6 3h1v1h-1zm-30 3h1v1h-1zm20 0h1v1h-1z" fill="#db3737"/><path d="M67 2h1v1h-1zm17 10h1v1h-1zM5 26h1v1H5zm92 4h1v1h-1z" fill="#f2aaae"/><path d="M63 1h1v1h-1zM31 3h1v1h-1z" fill="#ee969a"/><path d="M28 5h1v1h-1zm46 1h1v1h-1zm-17 9h1v1h-1zm6 1h1v1h-1zm15 3h1v1h-1zm-34 2h1v1h-1zm50 13h1v1h-1zm-12 5h1v1h-1zm-6 11h1v1h-1z" fill="#db2f36"/><path d="M67 13h1v1h-1zm17 20h1v1h-1zm-59 6h1v1h-1zm-2 34h1v1h-1zm12 4h1v1h-1zm-4 10h1v1h-1z" fill="#f2b2b5"/><path d="M96 29h1v1h-1zM1 38h1v1H1zm99 5h1v1h-1z" fill="#e2565c"/><path d="M0 42h1v1H0zm0 15h1v1H0zm1 5h1v1H1zm2 6h1v1H3z" fill="#e5696d"/><path d="M18 43h1v1h-1zm-8 3h1v1h-1zm44 24h1v1h-1zM22 87h1v1h-1z" fill="#ed9598"/><path d="M47 0h1v1h-1zm6 0h1v1h-1zm23 7h1v1h-1zm7 5h1v1h-1z" fill="#df4249"/><path d="M62 16h1v1h-1zm21 20h1v1h-1zm-56 1h1v1h-1zM9 46h1v1H9zm68 17h1v1h-1zm-1 1h1v1h-1zm-1 1h1v1h-1zm-53 3h1v1h-1zm46 3h1v1h-1zm-23 3h1v1h-1zm-17 2h1v1h-1z" fill="#df494f"/><path d="M0 53h1v1H0zm100 1h1v1h-1zM1 60h1v1H1zm87 22h1v1h-1zm-72 4h1v1h-1zm5 4h1v1h-1zm55 2h1v1h-1z" fill="#da2c33"/><path d="M87 84h1v1h-1zm-2 2h1v1h-1z" fill="#e3656c"/><path d="M83 87h1v1h-1zm-59 5h1v1h-1zm30 7h1v1h-1z" fill="#db2f38"/><path d="M69 96h1v1h-1zm-27 3h1v1h-1zm16 0h1v1h-1z" fill="#e35a60"/><path d="M23 7h1v1h-1zm-3 2h1v1h-1zm66 5h1v1h-1zm13 22h1v1h-1z" fill="#ee9698"/><path d="M37 1h1v1h-1zm40 6h1v1h-1zm3 2h1v1h-1z" fill="#ed9799"/><path d="M80 13h1v1h-1zm4 19h1v1h-1zm3 18h1v1h-1zm-2 3h1v1h-1zM70 69h1v1h-1zm-38 8h2v1h-2zm2 0h1v1h-1z" fill="#efa0a3"/><path d="M62 14h1v1h-1zm-7 3h1v1h-1zm-4 1h1v1h-1zm27 30h1v1h-1zm-54 9h1v1h-1zm22 17h1v1h-1zm-21 1h1v1h-1zm16 10h1v1h-1z" fill="#f0a9ac"/><path d="M279 23h1v1h-1zm-163 6h1v1h-1zm97 0h1v1h-1zm-43 7h1v1h-1zm66 9h1v1h-1zm16 12h1v1h-1zm34 15h1v1h-1zm-90 4h1v1h-1zm85 2h1v1h-1zm-89 2h1v1h-1zm16 0h1v1h-1zm-88 4h1v1h-1zm79 1h1v1h-1z" fill="#000b0b"/><path d="M100 55h1v1h-1zm-8 22h1v1h-1zm-3 4h1v1h-1zM65 97h1v1h-1z" fill="#dd3a41"/><path d="M40 0h1v1h-1zm30 3h1v1h-1zm6 3h1v1h-1zm25 41h1v1h-1z" fill="#fdd"/><g fill="#fff"><path d="M30 3h1v1h-1zm-6 3h1v1h-1zm-6 4h1v1h-1zm64 0h1v1h-1zm-12 3h7v2h-7zm7 0h1v4h-1z"/><path d="M64 14h17v1H64zm17 0h1v6h-1zm-19 1h2v1h-2zm2 0h1v1h-1z"/><path d="M68 15h16v1H68zm16 0h1v11h-1z"/><path d="M75 16h11v1H75zm11 0h1v34h-1zm2 0h1v1h-1z"/><path d="M77 17h10v1H77zm10 0h1v31h-1zm1 0h1v1h-1zm1 0h1v1h-1zm-79 1h1v1h-1z"/><path d="M79 18h9v1h-9zm9 0h1v29h-1zm1 0h1v1h-1zm1 0h1v1h-1z"/><path d="M80 19h9v1h-9zm9 0h1v26h-1zm1 0h1v1h-1z"/><path d="M81 20h9v1h-9zm9 0h1v23h-1zm1 0h1v1h-1zm-9 1h8v1h-8zm10 0h1v1h-1z"/><path d="M83 22h8v1h-8zm8 0h1v19h-1zm1 0h1v1h-1zm1 0h1v1h-1z"/><path d="M83 23h9v1h-9zm9 0h1v15h-1zm-7 1h7v17h-7z"/><path d="M84 26h9v1h-9zm9 0h1v8h-1zm0 8h1v1h-1zm-63 2h3v2h-3zm3 0h1v1h-1zm51 0h8v5h-8z"/><path d="M29 37h3v3h-3z"/><path d="M28 38h4v2h-4zm4 0h1v1h-1zm60 0h1v1h-1z"/><path d="M26 39h5v3h-5z"/><path d="M25 40h6v2h-6zm6 0h1v1h-1zm52 0h8v3h-8z"/><path d="M23 41h7v3h-7zm68 0h1v1h-1z"/><path d="M22 42h8v2h-8zm8 0h1v1h-1zm52 0h8v3h-8z"/><path d="M20 43h9v5h-9zm70 0h1v1h-1z"/><path d="M18 44h11v4H18zm11 0h1v1h-1zm52 0h8v3h-8z"/><path d="M15 45h13v3H15zm74 0h1v1h-1z"/><path d="M12 46h16v2H12zm68 0h8v2h-8z"/><path d="M10 47h26v1H10zm26 0h1v1h-1zm52 0h1v1h-1zM9 48h27v1H9zm27 0h1v1h-1zm43 0h8v2h-8zm8 0h1v1h-1zm-73 1h12v4H14zm12 0h1v2h-1z"/><path d="M78 49h8v2h-8zm8 1h1v1h-1zm-60 1h1v1h-1zm51 0h8v2h-8zm8 0h1v1h-1zm-72 1h12v3H13z"/><path d="M76 52h8v2h-8zm-51 1h1v1h-1zm59 0h1v1h-1zm-72 1h12v4H12zm63 0h8v2h-8zm8 0h1v1h-1zm-59 1h1v1h-1z"/><path d="M74 55h8v2h-8zm-63 1h12v5H11z"/><path d="M73 56h9v1h-9zm9 0h1v1h-1zm-10 1h9v1h-9zm9 0h1v1h-1zm-71 1h13v3H10zm13 0h1v1h-1zm48 0h9v1h-9zm9 0h1v1h-1zm-10 1h9v1h-9zm9 0h1v1h-1zm-10 1h9v1h-9zm9 0h1v1h-1zM9 61h13v16H9zm13 0h1v1h-1zm46 0h9v1h-9zm9 0h1v1h-1zm-10 1h9v1h-9zm9 0h1v1h-1zm-10 1h9v1h-9zm9 0h1v1h-1z"/><path d="M8 64h13v11H8zm56 0h10v1H64zm10 0h1v1h-1zm-11 1h10v1H63zm10 0h1v1h-1zm-11 1h10v1H62zm10 0h1v1h-1zm-12 1h11v1H60zm11 0h1v1h-1zm-12 1h11v1H59zm11 0h1v1h-1zm-13 1h12v1H57zm12 0h1v1h-1zm-13 1h11v1H56zm11 0h1v1h-1zm-13 1h12v1H54zm12 0h1v1h-1zm-14 1h13v1H52zm13 0h1v1h-1zm-43 1h1v13h-1zm28 0h13v1H50zm13 0h1v1h-1zm-40 1h1v12h-1zm25 0h14v1H48zm14 0h1v1h-1z"/><path d="M8 75h16v1H8zm16 0h1v11h-1zm21 0h15v1H45zm15 0h1v1h-1zm-35 1h1v10h-1zm17 0h17v1H42zm17 0h1v1h-1z"/><path d="M9 77h19v1H9zm19 0h1v9h-1zm10 0h19v1H38zm19 0h1v1h-1zM9 78h1v1H9z"/><path d="M10 78h45v1H10zm45 0h1v1h-1zM9 79h1v1H9zm1 0h44v1H10zm44 0h1v1h-1zm-44 1h1v1h-1zm1 0h41v1H11zm41 0h1v1h-1zm-41 1h1v1h-1zm1 0h38v1H12zm38 0h1v1h-1zm-39 1h1v1h-1zm1 0h1v1h-1zm1 0h34v1H13zm34 0h1v1h-1zm-34 1h1v1h-1zm1 0h31v1H14zm31 0h1v1h-1zm-30 1h27v1H15zm27 0h1v1h-1zm-25 1h22v1H17zm22 0h1v1h-1zm-19 1h15v1H20zm15 0h1v1h-1z"/></g><path d="M9 20h1v1H9zm89 13h1v1h-1zM0 41h1v1H0z" fill="#eb878b"/><path d="M168 23h1v1h-1zm7 2h1v1h-1zm64 9h1v1h-1zm44 1h1v1h-1zm8 0h1v1h-1zm-113 3h1v1h-1zm113 0h1v1h-1zm-115 3h1v1h-1zm115 3h1v1h-1zm-9 3h1v1h-1zm8 0h1v1h-1zm-11 3h1v1h-1zm10 0h1v1h-1zm7 11h1v1h-1zm-2 3h1v1h-1zm-98 2h1v1h-1zm35 0h1v1h-1zm50 0h1v1h-1zm4 4h1v1h-1zm-17 2h1v1h-1zm-26 1h1v1h-1zm-112 3h1v1h-1zm106 1h1v1h-1zm7 0h1v1h-1zm-51 2h1v1h-1zm89 0h1v1h-1zm-83 2h1v1h-1zm8 1h1v1h-1z" fill="#050707"/><path d="M143 29h1v1h-1zm36 0h1v1h-1zm112 17h1v1h-1zm-7 9h1v1h-1zm-8 2h1v1h-1zm17 2h1v1h-1zm-18 6h1v1h-1zm-155 1h1v1h-1zm83 4h1v1h-1zm-75 1h1v1h-1zm112 2h1v1h-1zm-44 1h1v1h-1zm50 1h1v1h-1zm37 8h1v1h-1zm-82 2h1v1h-1z" fill="#090909"/><path fill="#e35f66" d="M91 79h1v1h-1z"/><g fill="#d71921"><path d="M41 1h18v13H41zm18 0h1v13h-1z"/><path d="M37 2h26v11H37zm26 0h1v11h-1z"/><path d="M34 3h32v9H34zm32 0h1v9h-1z"/><path d="M31 4h38v8H31zm38 0h1v8h-1z"/><path d="M29 5h42v6H29zm42 0h1v6h-1z"/><path d="M27 6h46v5H27zm46 0h1v5h-1z"/><path d="M25 7h50v4H25zm50 0h1v4h-1z"/><path d="M24 8h52v3H24zm52 0h1v3h-1z"/><path d="M22 9h56v2H22zm56 0h1v3h-1z"/><path d="M21 10h58v1H21zm58 0h1v2h-1z"/><path d="M19 11h62v1H19zm62 0h1v1h-1zm-63 1h51v1H18zm51 0h1v1h-1zm9 0h4v1h-4zm4 0h1v1h-1zm-65 1h46v1H17zm46 0h1v1h-1zm20 0h1v1h-1zm-67 1h43v1H16zm43 0h1v1h-1zm-44 1h41v1H15zm41 0h1v1h-1zm-42 1h39v1H14zm39 0h1v1h-1zm12 0h3v43h-3zm3 0h1v42h-1zm-55 1h38v1H13zm38 0h1v1h-1z"/><path d="M58 17h15v37H58zm15 0h1v36h-1zm-61 1h37v1H12zm37 0h1v53h-1z"/><path d="M55 18h20v34H55zm20 0h1v33h-1zm-64 1h36v1H11zm36 0h1v53h-1z"/><path d="M52 19h25v30H52zm25 0h1v29h-1zm-66 1h34v1H11zm34 0h1v53h-1z"/><path d="M50 20h28v28H50zm28 0h1v26h-1zm-68 1h33v13H10zm33 0h1v53h-1z"/><path d="M48 21h31v25H48zm31 0h1v23h-1zM9 22h32v12H9z"/><path d="M46 22h34v22H46zm34 0h1v21h-1z"/><path d="M8 23h73v11H8zm73 0h1v17h-1zm1 1h1v14h-1z"/><path d="M7 25h75v9H7z"/><path d="M6 27h77v7H6zm77 0h1v7h-1z"/><path d="M5 29h78v5H5zm90 0h1v42h-1z"/><path d="M4 31h79v3H4zm92 0h1v38h-1z"/><path d="M3 33h80v1H3zm94 0h1v33h-1zM3 34h80v1H3zm80 0h1v1h-1zM3 35h25v1H3zm25 0h1v1h-1zm7 0h47v5H35zm59 0h3v34h-3zM2 36h25v1H2zm25 0h1v1h-1zm71 0h1v27h-1zM2 37h24v1H2zm24 0h1v1h-1z"/><path d="M34 37h48v3H34zM2 38h23v1H2zm23 0h1v1h-1zm57 0h1v1h-1zM2 39h21v1H2zm21 0h1v1h-1zm70 0h5v27h-5zM1 40h21v1H1zm21 0h1v1h-1zm11 0h48v3H33zm48 0h1v1h-1zm18 0h1v19h-1zM1 41h19v1H1zm19 0h1v1h-1zM1 42h17v1H1zm17 0h1v1h-1z"/><path d="M32 42h48v2H32zm60 0h7v21h-7zM1 43h15v1H1zm15 0h1v1h-1zm64 0h1v1h-1zM1 44h13v1H1zm13 0h1v1h-1zm17 0h48v1H31zm48 0h1v1h-1zM1 45h10v1H1zm10 0h1v1h-1zm20 0h47v1H31z"/><path d="M91 45h8v18h-8zM1 46h7v2H1zm7 0h1v1H8zm31 0h39v2H39zm39 0h1v1h-1z"/><path d="M38 47h39v2H38zm52 0h10v12H90zm10 0h1v5h-1zM0 48h7v2H0zm7 0h1v14H7zm70 0h1v1h-1z"/><path d="M89 48h11v11H89zm-51 1h38v2H38zm38 0h1v1h-1zM0 50h12v1H0zm12 0h1v1h-1z"/><path d="M28 50h47v2H28zm60 0h12v9H88zM1 51h10v3H1zm10 0h1v1h-1zm64 0h1v1h-1zm-64 1h1v1h-1zm16 0h47v1H27zm47 0h1v1h-1z"/><path d="M87 52h13v7H87zm13 0h1v1h-1zm-73 1h46v1H27zm46 0h1v1h-1z"/><path d="M86 53h13v10H86zM1 54h9v2H1zm9 0h1v1h-1zm17 0h45v1H27zm45 0h1v1h-1zm-46 1h45v1H26zm45 0h1v1h-1z"/><path d="M85 55h14v8H85zM1 56h8v3H1zm8 0h1v1H9zm17 0h44v1H26zm44 0h1v1h-1z"/><path d="M84 56h15v7H84zm-59 1h44v1H25zm44 0h1v1h-1z"/><path d="M83 57h16v6H83zm-58 1h43v1H25zm43 0h1v1h-1zM1 59h7v1H1zm7 0h1v1H8zm16 0h43v1H24zm43 0h1v1h-1z"/><path d="M82 59h17v4H82zm17 0h1v1h-1zM2 60h5v3H2zm22 0h42v1H24zm42 0h1v1h-1z"/><path d="M81 60h17v6H81zm-57 1h41v1H24zm41 0h1v1h-1z"/><path d="M80 61h18v5H80zM7 62h1v1H7zm16 0h41v1H23zm41 0h1v1h-1z"/><path d="M79 62h19v4H79zM2 63h4v1H2zm4 0h1v9H6zm17 0h40v1H23zm40 0h1v1h-1z"/><path d="M78 63h20v3H78zm20 0h1v1h-1zM3 64h3v2H3zm20 0h38v1H23zm38 0h1v1h-1z"/><path d="M77 64h20v5H77zm-54 1h37v1H23zm37 0h1v1h-1z"/><path d="M76 65h21v4H76zM3 66h3v1H3zm20 0h36v1H23zm36 0h1v1h-1z"/><path d="M75 66h22v3H75zm22 0h1v1h-1zM4 67h2v1H4zm19 0h34v1H23zm34 0h1v1h-1z"/><path d="M74 67h22v4H74zM4 68h2v1H4zm19 0h33v1H23zm33 0h1v1h-1z"/><path d="M73 68h23v3H73zM5 69h1v1H5zm18 0h31v1H23zm31 0h1v1h-1z"/><path d="M72 69h24v2H72zm24 0h1v1h-1zM5 70h1v1H5zm18 0h29v1H23zm29 0h1v1h-1z"/><path d="M70 70h25v3H70zm-47 1h27v1H23zm27 0h1v1h-1z"/><path d="M69 71h26v2H69zm26 0h1v1h-1zM6 72h1v1H6zm18 0h24v1H24zm24 0h1v1h-1z"/><path d="M68 72h26v2H68zm-44 1h22v1H24zm22 0h1v1h-1z"/><path d="M67 73h27v1H67zm27 0h1v1h-1zm-69 1h19v1H25zm19 0h1v1h-1zm21 0h28v2H65zm28 0h1v1h-1zm-66 1h14v1H27zm14 0h1v1h-1z"/><path d="M64 75h28v2H64zm-34 1h7v1h-7zm7 0h1v1h-1z"/><path d="M62 76h30v1H62zm30 0h1v1h-1zm-31 1h30v2H61zm30 0h1v1h-1z"/><path d="M59 78h31v2H59z"/><path d="M57 79h33v1H57zm33 0h1v1h-1zm-35 1h34v1H55zm34 0h1v1h-1zm-36 1h35v1H53zm35 0h1v1h-1zm-37 1h36v1H51zm36 0h1v1h-1zm-38 1h37v1H49zm37 0h1v1h-1zm-39 1h38v1H47zm38 0h1v1h-1zm-41 1h40v1H44zm40 0h1v1h-1zm-44 1h43v1H40zm43 0h1v1h-1zm-65 1h1v1h-1zm1 0h1v1h-1zm17 0h46v1H36zm46 0h1v1h-1zm-63 1h62v1H19zm62 0h1v1h-1zm-60 1h59v1H21zm59 0h1v1h-1zm-58 1h56v1H22zm56 0h1v1h-1zm-55 1h54v1H23zm54 0h1v1h-1zm-52 1h50v1H25zm50 0h1v1h-1zm-48 1h46v1H27zm46 0h1v1h-1zm-44 1h42v1H29zm42 0h1v1h-1zm-40 1h38v1H31zm38 0h1v1h-1zm-36 1h34v1H33zm34 0h1v1h-1zm-30 1h27v1H37zm27 0h1v1h-1zm-23 1h19v1H41zm19 0h1v1h-1zm-11 1h3v1h-3zm3 0h1v1h-1z"/></g><path d="M143 23h1v1h-1zm24 0h1v1h-1zm57 0h1v1h-1zm39 0h1v1h-1zm12 0h1v1h-1zm-30 21h1v1h-1zm-8 2h1v1h-1zm8 21h1v1h-1zm-49 5h1v1h-1zm39 1h1v1h-1z" fill="#040609"/><path d="M94 75h1v1h-1zM67 97h1v1h-1z" fill="#e45560"/><path fill="#e76f72" d="M7 76h1v1H7z"/><path d="M70 4h1v1h-1zm9 5h1v1h-1zm-64 5h1v1h-1zm-1 1h1v1h-1zm-1 1h1v1h-1zM2 35h1v1H2z" fill="#dc373e"/><path fill="#ec9093" d="M58 0h1v1h-1z"/><path fill="#e87d82" d="M27 5h1v1h-1z"/><path d="M169 23h1v1h-1zm114 13h1v1h-1zm-45 33h1v1h-1zm3 4h1v1h-1zm45 0h1v1h-1zm-10 8h1v1h-1zm5 3h1v1h-1z" fill="#030707"/><path d="M84 28h1v1h-1zm-50 7h1v1h-1zm59 1h1v1h-1zM27 50h1v1h-1zm54 8h1v1h-1zM8 62h1v1H8zm47 17h1v1h-1z" fill="#f3babd"/><path fill="#e8797e" d="M100 41h1v1h-1z"/><path fill="#f8d9db" d="M8 77h1v1H8z"/><path fill="#df5860" d="M83 88h1v1h-1z"/><path d="M46 0h1v1h-1zm8 0h1v1h-1zm7 1h1v1h-1zM17 12h1v1h-1z" fill="#e14f55"/><path d="M48 0h1v1h-1zm4 0h1v1h-1zm24 12h1v1h-1zM61 65h1v1h-1zM20 87h1v1h-1z" fill="#dd393f"/><path d="M48 19h1v1h-1zm46 14h1v1h-1zM45 84h1v1h-1zm-11 3h1v1h-1z" fill="#e2555b"/><path d="M93 38h1v1h-1zm-9 17h1v1h-1zm-61 6h1v1h-1zm56 0h1v1h-1zm-5 5h1v1h-1zm-10 8h1v1h-1zm-8 5h1v1h-1zm-17 7h1v1h-1z" fill="#de3f46"/><path d="M73 94h1v1h-1zm-35 4h1v1h-1zm24 0h1v1h-1z" fill="#e15055"/><path d="M45 0h1v1h-1zm10 0h1v1h-1zM35 2h1v1h-1zm-3 1h1v1h-1zm36 0h1v1h-1z" fill="#e35d62"/><path d="M233 23h1v1h-1zm49 1h1v1h-1zm-105 2h1v1h-1zm60 4h1v1h-1zm-66 1h1v1h-1zm119 0h1v1h-1zm-8 2h1v1h-1zm-124 4h1v1h-1zm125 0h1v1h-1zm-2 11h1v1h-1zm-41 4h1v1h-1zm-107 5h1v1h-1zm38 0h1v1h-1zm18 0h1v1h-1zm108 4h1v1h-1zm-19 4h1v1h-1zm-31 6h1v1h-1zm21 0h1v1h-1zm4 3h1v1h-1zm-147 1h1v1h-1zm5 0h1v1h-1zm142 1h1v1h-1zm-28 2h1v1h-1zm29 1h1v1h-1zm-33 1h1v1h-1zm-101 4h1v1h-1zm103 0h1v1h-1z" fill="#070707"/><path d="M245 23h1v1h-1zm38 20h1v1h-1zm-3 6h1v1h-1zm-153 8h5v1h-5zm5 0h1v1h-1zm19 0h6v1h-6zm6 0h1v1h-1zm15 0h7v1h-7zm7 0h1v1h-1zm11 0h23v1h-23zm23 0h1v1h-1zm12 0h4v1h-4zm4 0h1v1h-1zm15 0h7v1h-7zm7 0h1v1h-1zm13 0h10v1h-10zm10 0h1v1h-1zm19 1h1v1h-1zm-154 9h1v16h-1zm144 0h1v1h-1zm1 1h1v1h-1zm-6 1h1v1h-1zm-70 3h1v1h-1zm-79 3h1v1h-1zm10 8h1v1h-1z" fill="#05050b"/><path d="M287 27h1v1h-1zm-109 1h1v1h-1zm-10 1h1v1h-1zm28 0h1v1h-1zm42 3h1v1h-1zm3 6h1v1h-1zm-68 5h1v1h-1zm118 0h1v1h-1zm-51 8h1v1h-1zm48 7h1v1h-1zm-87 7h1v1h-1zm45 3h1v1h-1zm-48 1h1v1h-1zm74 4h1v1h-1zm-26 1h1v1h-1zm-112 1h1v1h-1zm-4 2h1v1h-1zm156 0h1v1h-1zm-94 1h1v1h-1zm3 5h1v1h-1zm47 0h1v1h-1zm-114 1h1v1h-1zm68 0h1v1h-1zm1 0h1v1h-1z" fill="#040707"/><path d="M171 35h1v1h-1zm-3 2h1v1h-1zm130 25h1v1h-1zm-54 4h1v1h-1zm-3 16h1v1h-1z" fill="#050909"/><path d="M37 47h1v1h-1zm51 1h1v1h-1zm-17 9h1v1h-1zm-1 1h1v1h-1zm-1 1h1v1h-1zm-9 17h1v1h-1zM24 87h1v1h-1z" fill="#f7cdcf"/><path fill="#eea4a8" d="M14 14h1v1h-1z"/><path d="M126 29h1v1h-1zm70 1h1v6h-1zm93 0h1v1h-1zm-117 3h1v1h-1zm59 2h1v1h-1zm-35 1h1v1h-1zm1 6h14v1h-14zm14 0h1v1h-1zm-15 1h1v7h-1zm87 2h1v1h-1zm-115 4h1v1h-1zm28 1h1v1h-1zm74 18h1v1h-1zm4 1h1v1h-1zm-66 2h1v1h-1zm-74 2h1v1h-1zm110 3h1v1h-1zm41 3h1v1h-1zm-158 2h1v1h-1zm75 0h1v1h-1z" fill="#050608"/><path d="M12 52h1v1h-1zm-4 9h1v1H8zm56 2h1v1h-1zM7 65h1v1H7z" fill="#e77277"/><path d="M15 13h1v1h-1zm-2 2h1v1h-1zM4 28h1v1H4zm-3 8h1v1H1z" fill="#ed9b9f"/><path d="M98 32h1v1h-1zm1 3h1v1h-1zm1 4h1v1h-1z" fill="#faa"/><path d="M291 34h1v1h-1zM168 50h1v1h-1zm123 14h1v1h-1zm-15 1h1v1h-1zm-4 1h1v1h-1zm-30 4h1v1h-1z" fill="#05050a"/><path d="M28 37h1v1h-1zm-4 3h1v1h-1zm7 1h1v1h-1zm20 31h1v1h-1zm-14 5h1v1h-1zm3 8h1v1h-1z" fill="#fbe9ea"/><path d="M0 58h1v1H0zm98 8h1v1h-1z" fill="#e77276"/><path fill="#e77077" d="M99 63h1v1h-1z"/><path d="M19 89h1v1h-1zm10 6h1v1h-1z" fill="#e3555b"/><path d="M34 2h1v1h-1zm32 0h1v1h-1zM25 6h1v1h-1z" fill="#ea8689"/><path d="M174 24h1v1h-1zm62 4h1v1h-1zm53 1h1v1h-1zM167 48h1v1h-1zm121 4h1v1h-1zm-1 1h1v1h-1zm-93 14h1v1h-1zm83 2h1v1h-1zm9 9h1v1h-1zm-80 5h1v1h-1zm66 1h1v1h-1z" fill="#000d0d"/><path d="M94 27h1v1h-1zm-60 9h1v1h-1zm5 40h1v1h-1zm3 9h1v1h-1z" fill="#e35b61"/><path d="M94 29h1v2h-1zm0 2h1v1h-1zM25 55h1v1h-1zm-3 9h1v1h-1zm28 8h1v1h-1zM33 87h1v1h-1z" fill="#e97d82"/><path d="M97 69h1v1h-1zM5 73h1v1H5zm79 14h1v1h-1z" fill="#e66a73"/><path fill="#e46268" d="M15 85h1v1h-1z"/><path d="M81 89h1v1h-1zm-54 5h1v1h-1zm44 1h1v1h-1zm-14 4h1v1h-1z" fill="#e15258"/><path d="M61 14h1v2h-1zm0 2h1v1h-1zm21 7h1v1h-1zM33 38h1v1h-1zm-10 2h1v1h-1z" fill="#e5676d"/><path d="M58 15h1v1h-1zm19 3h1v1h-1zm6 7h1v1h-1zM8 48h1v1H8zm2 8h1v1h-1zm28 30h1v1h-1z" fill="#e87a7f"/><path d="M67 15h1v1h-1zM19 43h1v1h-1zm10 2h1v1h-1zm45 9h1v1h-1zm9 1h1v1h-1zm-59 1h1v1h-1z" fill="#fdf5f5"/><path d="M150 23h1v1h-1zm128 7h1v1h-1zm3 2h1v1h-1zm-122 5h7v1h-7zm7 0h1v1h-1zm8 7h1v1h-1zm1 2h1v1h-1zm1 2h1v1h-1zm1 2h1v1h-1zm1 2h1v1h-1zm1 2h1v1h-1zm62 0h1v1h-1zm-61 2h1v1h-1zm115 6h1v1h-1zm-168 5h1v1h-1zm73 2h1v1h-1zm47 1h1v1h-1zm-116 1h1v1h-1zm73 1h1v1h-1zm32 1h3v1h-3zm3 0h1v1h-1zm-43 2h1v1h-1zm81 10h1v1h-1z" fill="#000010"/><path d="M73 5h1v1h-1zm8 5h1v1h-1zm-71 9h1v1h-1z" fill="#e8767a"/><path d="M276 23h1v1h-1zm-133 1h1v4h-1zm30 0h1v1h-1zm51 0h1v32h-1zm39 0h1v32h-1zm21 1h1v1h-1zm-49 2h1v1h-1zm-92 1h1v1h-1zm92 0h1v1h-1zm1 1h1v1h-1zm35 0h3v1h-3zm3 0h1v1h-1zm2 0h1v1h-1zm-150 1h1v26h-1zm7 0h1v26h-1zm146 0h1v1h-1zm11 2h1v1h-1zm-60 3h1v21h-1zm4 5h1v1h-1zm-75 3h5v1h-5zm5 0h1v1h-1zm9 1h1v1h-1zm1 2h1v1h-1zm1 2h1v1h-1zm107 0h1v1h-1zm8 0h1v1h-1zm-114 2h1v1h-1zm20 1h1v1h-1zm-19 1h1v1h-1zm-7 1h1v1h-1zm71 0h1v1h-1zm-63 1h1v1h-1zm64 1h1v1h-1zm40 0h1v1h-1zm-156 1h1v1h-1zm7 0h1v1h-1zm46 0h1v1h-1zm45 0h1v1h-1zm6 0h1v1h-1zm33 0h1v1h-1zm15 0h1v1h-1zm2 0h1v1h-1zm14 2h1v1h-1zm-4 2h1v3h-1zm8 1h1v1h-1zm1 0h1v2h-1zm-9 2h1v1h-1zm9 0h1v1h-1zm-178 3h4v1h-4zm4 0h1v1h-1zm9 0h4v1h-4zm4 0h1v1h-1zm27 0h1v1h-1zm1 0h1v1h-1zm31 0h1v1h-1zm35 0h8v1h-8zm8 0h1v1h-1zm34 0h1v1h-1zm-110 1h1v16h-1zm3 0h1v16h-1zm64 0h1v16h-1zm40 0h1v1h-1zm-77 1h1v1h-1zm89 0h1v1h-1zm-156 1h1v1h-1zm66 0h1v1h-1zm42 0h1v1h-1zm0 1h1v2h-1zm-111 2h1v2h-1zm111 0h1v1h-1zm-100 1h1v10h-1zm-11 1h1v1h-1zm158 1h1v1h-1zm-47 3h1v5h-1zm-27 1h1v1h-1zm-1 2h1v1h-1zm38 0h1v1h-1zm-110 2h1v1h-1zm29 0h1v1h-1zm3 0h1v1h-1zm64 0h1v1h-1zm4 0h1v1h-1zm-37 1h1v1h-1z" fill="#050709"/><path d="M94 28h1v1h-1zM26 38h1v1h-1zm6 2h1v1h-1zm58 5h1v1h-1zm-11 1h1v1h-1zM69 70h1v1h-1zm-10 7h1v1h-1z" fill="#e7757a"/><path d="M31 42h1v1h-1zm-9 28h1v1h-1zm43 3h1v1h-1z" fill="#e98185"/><path d="M100 59h1v1h-1zM2 66h1v1H2zm94 5h1v1h-1zm-1 2h1v1h-1z" fill="#e87177"/><path d="M89 82h1v1h-1zm-73 5h1v1h-1zm63 4h1v1h-1zm-5 3h1v1h-1zm-2 1h1v1h-1zm-39 2h1v1h-1z" fill="#df5960"/><path d="M85 14h1v1h-1zm-28 3h1v1h-1zm17 0h1v1h-1zm9 9h1v1h-1zM28 36h1v1h-1zm-11 7h1v1h-1zm55 12h1v1h-1zm8 5h1v1h-1zm-7 7h1v1h-1zm-50 5h1v1h-1z" fill="#dc3139"/><path d="M33 3h1v1h-1zm37 9h1v1h-1zm7 0h1v1h-1zM4 30h1v1H4zm27 13h1v1h-1zM8 47h1v1H8zm2 8h1v1h-1zm88 9h1v1h-1zm-26 4h1v1h-1zm-21 3h1v1h-1zm34 14h1v1h-1zm-59 8h1v1h-1z" fill="#d9232b"/><path d="M73 12h1v1h-1zm-23 6h1v1h-1zm3 0h1v1h-1zm12 44h1v1h-1zm-43 4h1v1h-1zm32 14h1v1h-1zm-2 1h1v1h-1z" fill="#e15056"/><path d="M178 27h1v1h-1zm102 4h1v1h-1zm-49 5h1v1h-1zm-64 1h1v1h-1zm-41 20h1v1h-1zm117 0h1v1h-1zm55 1h1v1h-1zm-2 2h1v1h-1zm-98 5h1v1h-1zm7 1h1v1h-1zm-13 4h1v1h-1zm55 2h1v1h-1zm-2 4h1v1h-1zm29 4h1v1h-1z" fill="#0a0a0a"/><path fill="#e1555a" d="M39 1h1v1h-1z"/><path d="M29 4h1v1h-1zm46 2h1v1h-1zm-56 4h1v1h-1z" fill="#e88084"/><path d="M65 13h1v1h-1zM37 48h1v1h-1zm40 1h1v1h-1zm-64 1h1v1h-1zm-4 8h1v1H9zm13 7h1v1h-1z" fill="#e46066"/><path d="M85 13h1v1h-1zm2 2h1v1h-1zm8 11h1v1h-1zm5 14h1v1h-1z" fill="#ed9699"/><path d="M150 24h1v32h-1zm-33 5h8v1h-8zm8 0h1v1h-1zm9 0h8v1h-8zm8 0h1v1h-1zm17 0h7v1h-7zm7 0h1v1h-1zm31 0h15v1h-15zm15 0h1v1h-1zm29 8h1v1h-1zm37 13h1v1h-1zm-64 1h1v1h-1zm-64 5h1v1h-1zm125 1h1v1h-1zM120 67h1v16h-1zm81 2h1v1h-1zm75 0h1v1h-1zm-34 3h1v1h-1zm30 3h1v1h-1zm-146 4h1v1h-1zm158 3h1v1h-1zm-164 1h1v1h-1zm7 0h1v1h-1z" fill="#080808"/><path d="M3 31h1v1H3zm-2 6h1v1H1z" fill="#e77278"/><path d="M0 44h1v1H0zm0 11h1v1H0zm100 1h1v1h-1zM1 61h1v1H1zm95 9h1v1h-1z" fill="#e04c52"/><path d="M15 44h1v1h-1zm73 5h1v1h-1zm-61 2h1v1h-1zm-3 7h1v1h-1zm66 22h1v1h-1zM22 91h1v1h-1z" fill="#e04c53"/><path d="M40 1h1v1h-1zm24 12h1v1h-1zm5 3h1v1h-1zM19 42h1v1h-1zm48 18h1v1h-1zM47 73h1v1h-1zm11 5h1v1h-1zm-10 5h1v1h-1z" fill="#db2d34"/><path fill="#e2555c" d="M6 74h1v1H6z"/><path d="M67 3h1v1h-1zm-47 7h1v1h-1zm34 6h1v1h-1zm-10 6h1v1h-1zM6 26h1v1H6zm93 13h1v1h-1zM0 47h1v1H0zm11 6h1v1h-1zm74 1h1v1h-1zM4 69h1v1H4zm45 3h1v1h-1zm44 3h1v1h-1zm-2 3h1v1h-1zm-5 6h1v1h-1zm-12 9h1v1h-1zm-46 1h1v1h-1z" fill="#d82028"/><path d="M12 16h1v1h-1zM0 40h1v1H0z" fill="#ec9ca1"/><path d="M55 16h1v1h-1zm16 0h1v1h-1zm-15 1h1v1h-1zm38 15h1v1h-1zM83 56h1v1h-1zM57 68h1v1h-1zM21 87h1v1h-1z" fill="#e56a70"/><path d="M80 20h1v1h-1zM16 44h1v1h-1zm15 33h1v1h-1zm18 5h1v1h-1z" fill="#f1aeb1"/><path fill="#e04b51" d="M99 38h1v1h-1z"/><path d="M32 39h1v1h-1zm12 36h1v1h-1zM25 87h1v1h-1zm4 0h1v1h-1z" fill="#f9dfe0"/><path d="M86 85h1v1h-1zm-66 5h1v1h-1zm3 2h1v1h-1z" fill="#e46168"/><path d="M33 2h1v1h-1zM16 12h1v1h-1zm-8 9h1v1H8zm86 3h1v1h-1z" fill="#f3b4b4"/><path d="M31 96h1v1h-1zm6 2h1v1h-1zm26 0h1v1h-1z" fill="#e45b61"/><path d="M65 2h1v1h-1zm17 9h1v1h-1zm-71 7h1v1h-1zm-3 4h1v1H8zm87 5h1v1h-1zM0 43h1v1H0zm0 13h1v1H0zm4 14h1v1H4zm1 2h1v1H5z" fill="#e2595f"/><path d="M78 8h1v1h-1zm-60 3h1v1h-1z" fill="#e46469"/><path d="M79 13h1v1h-1zm4 25h1v1h-1zm-2 5h1v1h-1zM7 72h1v1H7zm23 5h1v1h-1zm23 3h1v1h-1zm-37 5h1v1h-1z" fill="#f6cbcd"/><path d="M50 19h1v1h-1zm31 23h1v1h-1zm-1 2h1v1h-1zm6 8h1v1h-1zm-60 1h1v1h-1zm-4 16h1v1h-1z" fill="#e35e63"/><path d="M99 61h1v1h-1zm-4 11h1v1h-1z" fill="#de4248"/><path d="M49 0h2v1h-2zm2 0h1v1h-1zM26 6h1v1h-1zm45 6h1v1h-1zm13 1h1v1h-1zm-36 7h1v1h-1zM21 41h1v1h-1z" fill="#dc353c"/><path d="M73 16h1v1h-1zm11 18h1v1h-1zm-51 3h1v1h-1zm47 8h1v1h-1zM62 65h1v1h-1zm10 2h1v1h-1zM7 68h1v1H7zm56 6h1v1h-1zm-22 2h1v1h-1z" fill="#f7d2d4"/><path d="M252 23h1v1h-1zm26 0h1v1h-1zm-120 7h1v6h-1zm0 6h1v1h-1zm76 5h1v1h-1zm-76 3h1v12h-1zm56 8h1v4h-1zm-56 4h1v1h-1zm56 0h1v1h-1zm81 2h1v1h-1zm1 6h1v1h-1zm-97 1h1v1h-1zm-67 3h1v1h-1zm75 0h1v1h-1zm29 1h1v1h-1zm1 0h1v1h-1zm-32 3h2v1h-2zm2 0h1v1h-1zm-74 7h1v1h-1zm135 0h1v1h-1zm-23 1h1v1h-1zm-45 1h1v1h-1zm69 0h1v1h-1zm-137 2h1v1h-1z" fill="#040808"/><path d="M6 25h1v1H6zm-4 9h1v1H2zm98 8h1v1h-1z" fill="#e4696e"/><path d="M96 28h1v1h-1zM2 33h1v1H2z" fill="#ec9396"/><path d="M84 29h1v1h-1zM22 63h1v1h-1zm41 1h1v1h-1zm-6 14h1v1h-1zm-13 6h1v1h-1z" fill="#efa4a7"/><path d="M63 14h1v1h-1zm22 1h1v1h-1zm-31 2h1v1h-1zm38 22h1v1h-1zM10 57h1v1h-1zm57 4h1v1h-1zM7 71h1v1H7zm39 12h1v1h-1z" fill="#fae0e2"/><path d="M77 8h1v1h-1zM54 18h1v1h-1zm41 10h1v1h-1zM81 41h1v1h-1zm-2 4h1v1h-1zm-42 4h1v1h-1zm-25 2h1v1h-1zm14 3h1v1h-1zM5 71h1v1H5zm61 2h1v1h-1zm-6 4h1v1h-1zm-14 7h1v1h-1zm-26 5h1v1h-1zm16 8h1v1h-1zm4 1h1v1h-1zm8 1h1v1h-1z" fill="#d71a22"/><path d="M72 12h1v1h-1zm3 0h1v1h-1zm-2 42h1v1h-1zM22 67h1v1h-1z" fill="#de434a"/><path d="M52 17h1v1h-1zm42 9h1v1h-1zm-2 15h1v1h-1zm-80 4h1v1h-1zm54 16h1v1h-1zm-11 8h1v1h-1zm-13 6h1v1h-1z" fill="#dd3b42"/><path d="M101 48h1v1h-1zm0 3h1v1h-1zM3 69h1v1H3z" fill="#e6848c"/><path d="M100 60h1v1h-1zm-1 4h1v1h-1zm-1 3h1v1h-1zM82 89h1v1h-1zm-58 4h1v1h-1zm6 3h1v1h-1z" fill="#df4040"/><path d="M72 4h1v1h-1zm2 1h1v1h-1zm5 3h1v1h-1zM3 30h1v1H3zm10 54h1v1h-1z" fill="#f2b5bc"/><path fill="#e87b80" d="M86 15h1v1h-1z"/><path d="M94 25h1v1h-1zM5 27h1v1H5zm93 7h1v1h-1z" fill="#e46166"/><path d="M98 65h1v1h-1zm-4 9h1v1h-1zM44 99h1v1h-1zm12 0h1v1h-1z" fill="#e04b52"/><path d="M41 99h1v1h-1zm18 0h1v1h-1z" fill="#e25258"/><path d="M21 8h1v1h-1zm-4 3h1v1h-1zm-6 6h1v1h-1zm-5 7h1v1H6z" fill="#f5b8b8"/><path d="M69 13h1v1h-1zm9 0h1v1h-1zm-12 2h1v1h-1zm12 3h1v1h-1zM31 35h2v1h-2zm2 0h1v1h-1zM9 49h3v1H9zm3 0h1v1h-1zm41 22h1v1h-1zm-27 5h1v1h-1z" fill="#fcf1f1"/><path d="M53 17h1v1h-1zm-1 1h1v1h-1zM20 42h1v1h-1zM7 66h1v1H7zm25 21h1v1h-1z" fill="#ee9c9f"/><path d="M234 25h1v1h-1zm47 31h1v1h-1zm8 3h1v1h-1zm3 0h1v1h-1zm-1 1h1v3h-1zm0 3h1v1h-1zm-85 4h1v1h-1zm-79 1h1v1h-1zm112 1h1v1h-1zm1 0h1v1h-1zm32 8h1v1h-1zm-69 3h1v1h-1zm-2 1h1v1h-1z" fill="#06060a"/><path d="M84 31h1v1h-1zm8 9h1v1h-1zM62 75h1v1h-1zm-22 1h1v1h-1z" fill="#ec9296"/><path d="M84 35h1v1h-1zm-63 7h1v1h-1zm-4 2h1v1h-1zM9 60h1v1H9zm56 3h1v1h-1zm-10 7h1v1h-1zm-33 2h1v1h-1zm25 2h1v1h-1zm1 8h1v1h-1z" fill="#fefafa"/><path d="M60 1h1v1h-1zm12 4h1v1h-1zm10 8h1v1h-1zm16 22h1v1h-1zM78 47h1v1h-1zM58 67h1v1h-1zm-20 9h1v1h-1zm-3 11h1v1h-1z" fill="#da2a32"/><path d="M24 7h1v1h-1zm50 5h1v1h-1zm-4 4h1v1h-1zm-58 1h1v1h-1zm34 3h1v1h-1zm54 24h1v1h-1zM78 62h1v1h-1zM7 64h1v1H7zm54 12h1v1h-1zm-11 6h1v1h-1zm-33 4h1v1h-1zm1 2h1v1h-1zm60 3h1v1h-1z" fill="#df454c"/><path d="M66 13h1v1h-1zm-6 3h1v1h-1zM13 45h1v1h-1zm-2 9h1v1h-1zM7 74h1v1H7z" fill="#eb898d"/><path d="M65 15h1v1h-1zm26 6h1v1h-1zM61 75h1v1h-1zm-5 3h1v1h-1z" fill="#fefbfc"/><path d="M72 16h1v1h-1zm12 14h1v1h-1zm-2 27h1v1h-1zM27 76h1v1h-1zm-9 10h1v1h-1z" fill="#ed999d"/><path d="M189 23h1v1h-1zm24 0h1v1h-1zm64 0h1v1h-1zm-32 1h1v19h-1zm36 0h1v1h-1zm-11 5h1v1h-1zm-91 1h1v1h-1zm91 0h1v20h-1zm10 0h1v1h-1zm1 1h1v1h-1zm-102 3h1v1h-1zm33 3h1v4h-1zm21 2h1v1h-1zm-56 1h1v1h-1zm65 0h1v1h-1zm-30 1h1v1h-1zm31 0h1v1h-1zm-68 1h1v1h-1zm116 0h1v1h-1zm-46 1h1v1h-1zm-79 2h1v1h-1zm73 4h1v1h-1zm50 0h1v1h-1zm-19 1h1v1h-1zm-101 1h1v1h-1zm107 0h1v1h-1zm-107 1h1v1h-1zm73 2h1v1h-1zm53 7h1v1h-1zm2 3h1v1h-1zm-55 2h1v1h-1zm31 0h1v1h-1zm7 0h1v1h-1zm-78 3h1v1h-1zm67 0h1v1h-1zm-137 1h1v1h-1zm141 0h1v1h-1zm8 0h1v1h-1zm0 1h1v1h-1zm-153 1h1v1h-1zm-3 1h1v1h-1zm3 0h1v1h-1zm-3 1h1v1h-1zm161 0h1v2h-1zm-43 2h1v1h-1zm39 0h1v1h-1zm4 0h1v1h-1zm-160 1h1v1h-1zm111 0h1v1h-1zm1 0h1v1h-1zm44 0h1v1h-1zm-156 1h1v1h-1zm4 0h1v1h-1zm109 0h1v1h-1zm-35 1h1v1h-1zm-7 1h1v1h-1zm83 0h1v1h-1zm5 0h1v1h-1zm-86 1h1v1h-1zm75 0h1v1h-1zm4 0h1v1h-1zm6 0h1v1h-1zm-157 1h1v1h-1zm119 0h1v1h-1zm25 1h1v1h-1zm-147 1h1v1h-1zm156 0h1v1h-1z" fill="#050808"/><path d="M93 76h1v1h-1zM25 93h1v1h-1zm9 4h1v1h-1zm32 0h1v1h-1z" fill="#e2585e"/><path d="M64 2h1v1h-1zM29 35h1v1h-1zm58 16h1v1h-1zM0 52h1v1H0zm70 5h1v1h-1zm-1 1h1v1h-1zm-1 1h1v1h-1zm13 0h1v1h-1zm6 24h1v1h-1zm-3 3h1v1h-1zm-14 9h1v1h-1zm-17 4h1v1h-1z" fill="#d9252c"/><path d="M42 0h1v1h-1zm27 3h1v1h-1zM7 23h1v1H7z" fill="#ec8c8f"/><path d="M36 2h1v1h-1zm24 12h1v1h-1zm-14 7h1v1h-1zm35 1h1v1h-1zM24 39h1v1h-1zm14 7h1v1h-1zM25 56h1v1h-1zm46 0h1v1h-1zM8 60h1v1H8zm89 7h1v1h-1zm-44 3h1v1h-1zm14 2h1v1h-1zm-41 3h1v1h-1zm53 15h1v1h-1zm-49 5h1v1h-1zm17 4h1v1h-1z" fill="#da2830"/><path d="M80 10h1v1h-1zm-16 6h1v1h-1zm12 2h1v1h-1zm3 2h1v1h-1zM5 28h1v1H5zm91 2h1v1h-1zm-13 5h1v1h-1zm-51 6h1v1h-1zm58 5h1v1h-1zm10 0h1v1h-1zm0 7h1v1h-1zm-1 7h1v1h-1zm-37 4h1v1h-1zM6 73h1v1H6zm57 2h1v1h-1zM43 85h1v1h-1zm29 9h1v1h-1z" fill="#d81d25"/><path d="M56 16h1v1h-1zM30 35h1v1h-1zm46 16h1v1h-1zM22 71h1v1h-1z" fill="#f5c3c5"/><path fill="#f9dadb" d="M87 16h1v1h-1z"/><g fill="#050708"><path d="M117 24h25v4h-25zm25 0h1v4h-1zm9 0h19v4h-19zm19 0h1v4h-1zm1 0h1v1h-1zm1 0h1v1h-1zm17 0h1v32h-1zm1 0h22v4h-22zm22 0h1v4h-1zm1 0h1v4h-1zm12 0h7v9h-7zm7 0h1v11h-1zm1 0h1v1h-1zm13 0h5v32h-5zm5 0h1v32h-1zm13 0h15v4h-15zm15 0h1v5h-1zm-108 1h2v4h-2zm2 0h1v17h-1zm1 0h1v1h-1zm59 0h1v12h-1zm47 0h2v4h-2zm2 0h1v6h-1zm-108 1h1v15h-1zm1 0h1v15h-1zm1 0h1v1h-1zm58 0h1v1h-1zm49 0h1v7h-1zm1 0h1v13h-1zm1 0h1v1h-1zm-109 1h1v13h-1zm58 0h1v12h-1zm51 0h1v26h-1zm1 0h1v1h-1zm-169 1h25v1h-25zm25 0h1v1h-1z"/><path d="M151 28h26v1h-26zm26 0h1v10h-1zm13 0h22v1h-22zm22 0h1v1h-1zm1 0h1v1h-1zm51 0h22v1h-22zm22 0h1v24h-1zm1 0h1v1h-1zm-160 1h5v27h-5zm5 0h1v27h-1zm1 0h1v1h-1zm18 0h6v27h-6zm6 0h1v27h-1zm14 0h6v1h-6zm7 0h1v1h-1zm12 0h5v27h-5zm5 0h1v27h-1zm40 0h1v12h-1zm29 0h5v27h-5zm5 0h1v27h-1zm8 0h1v1h-1zm1 0h1v1h-1z"/><path d="M279 29h8v1h-8zm8 0h1v22h-1zm-116 1h1v1h-1zm1 0h6v1h-6zm6 0h1v5h-1zm58 0h1v1h-1z"/><path d="M281 30h7v1h-7zm7 0h1v20h-1zm-116 1h6v1h-6zm64 0h1v11h-1zm46 0h6v1h-6zm7 0h1v1h-1zm-117 1h1v1h-1zm65 0h1v12h-1zm45 0h1v1h-1zm7 0h1v16h-1z"/><path d="M225 33h12v1h-12zm13 0h1v1h-1zm45 0h6v1h-6zm-58 1h5v22h-5zm5 0h8v1h-8zm8 0h1v12h-1zm45 0h1v1h-1zm7 0h1v12h-1zm-118 1h6v3h-6zm6 0h1v1h-1zm54 0h6v1h-6zm7 0h1v1h-1zm-68 1h1v1h-1zm7 0h1v1h-1zm54 0h1v1h-1zm7 0h1v12h-1zm52 0h1v1h-1zm-121 1h1v1h-1z"/><path d="M171 37h6v3h-6zm7 0h1v1h-1zm18 0h15v4h-15zm15 0h1v4h-1zm22 0h6v1h-6zm7 0h1v1h-1z"/><path d="M158 38h19v2h-19zm19 0h1v1h-1zm63 0h1v12h-1z"/><path d="M234 39h7v1h-7zm7 0h1v12h-1zm43 0h6v9h-6zm7 0h1v1h-1zm-133 1h18v1h-18zm18 0h1v1h-1zm115 0h1v1h-1zm-133 1h17v1h-17zm17 0h1v1h-1zm21 0h15v1h-15zm15 0h1v1h-1z"/><path d="M235 41h7v1h-7zm7 0h1v12h-1zm49 0h1v1h-1zm-133 1h15v1h-15zm15 0h1v1h-1zm1 0h1v1h-1zm22 0h1v1h-1zm40 0h6v1h-6zm-78 1h1v1h-1zm7 0h1v1h-1zm1 0h6v1h-6zm6 0h1v13h-1zm64 0h1v1h-1zm7 0h1v12h-1zm-77 1h1v1h-1zm1 0h5v1h-5zm69 0h1v1h-1z"/><path d="M237 44h6v1h-6zm7 0h1v1h-1zm-77 1h6v1h-6zm6 0h1v11h-1zm64 0h1v1h-1zm7 0h7v11h-7zm-77 1h1v1h-1zm1 0h5v1h-5z"/><path d="M238 46h13v1h-13zm45 0h1v1h-1zm7 0h1v1h-1zm-122 1h6v1h-6zm6 0h1v9h-1zm64 0h1v1h-1zm45 0h6v3h-6zm-115 1h1v1h-1zm1 0h5v2h-5zm70 0h12v1h-12zm50 0h1v1h-1zm-114 1h1v7h-1z"/><path d="M282 49h6v2h-6zm-113 1h6v1h-6zm71 0h11v1h-11zm40 0h1v1h-1z"/><path d="M281 50h7v1h-7zm7 0h1v1h-1zm-118 1h6v1h-6zm6 0h1v5h-1zm65 0h10v1h-10zm36 0h1v1h-1zm1 0h9v1h-9zm9 0h1v1h-1zm-117 1h6v1h-6zm26 0h17v4h-17zm17 0h1v4h-1zm28 0h1v1h-1zm29 0h16v1h-16zm16 0h1v1h-1zm1 0h1v1h-1z"/><path d="M171 53h6v2h-6zm6 0h1v3h-1zm65 0h9v1h-9zm28 0h15v1h-15zm15 0h1v1h-1zm1 0h1v1h-1zm-116 1h1v1h-1zm100 0h13v1h-13zm13 0h1v1h-1zm1 0h1v1h-1z"/><path d="M171 55h7v1h-7zm7 0h1v1h-1zm65 0h8v1h-8zm27 0h11v1h-11zm11 0h1v1h-1zm2 0h1v1h-1zm-156 1h5v1h-5zm5 0h1v1h-1zm19 0h6v1h-6zm6 0h1v1h-1zm14 0h1v1h-1zm1 0h6v1h-6zm6 0h1v1h-1zm11 0h1v1h-1zm1 0h23v1h-23zm23 0h1v1h-1zm12 0h4v1h-4zm4 0h1v1h-1zm14 0h1v1h-1zm1 0h7v1h-7zm7 0h1v1h-1zm13 0h13v1h-13zm13 0h1v1h-1zm2 0h1v1h-1zm15 3h1v4h-1zm1 0h1v1h-1zm4 0h1v1h-1zm0 1h1v1h-1zm-3 2h1v1h-1zm-2 1h1v1h-1zm3 0h1v1h-1zm-171 3h1v1h-1zm38 0h1v1h-1zm3 0h1v1h-1zm31 0h4v2h-4zm4 0h1v2h-1zm1 0h1v1h-1zm1 0h1v1h-1zm37 0h1v1h-1zm2 0h1v1h-1zm32 0h3v2h-3zm3 0h1v2h-1zm1 0h1v1h-1zm-158 1h4v2h-4zm4 0h1v4h-1zm1 0h1v1h-1zm7 0h1v1h-1zm1 0h4v2h-4zm4 0h1v16h-1zm27 0h1v16h-1zm1 0h1v16h-1zm29 0h1v1h-1z"/><path d="M196 67h8v1h-8zm8 0h1v2h-1zm1 0h1v1h-1zm27 0h12v1h-12zm12 0h1v8h-1zm28 0h1v1h-1zm1 0h8v1h-8zm8 0h1v2h-1zm1 0h1v1h-1zm-156 1h1v7h-1zm7 0h5v1h-5z"/><path d="M195 68h10v1h-10zm10 0h1v3h-1zm1 0h1v1h-1zm26 0h13v1h-13zm13 0h1v6h-1zm26 0h11v1h-11zm11 0h1v3h-1zm-161 1h5v1h-5zm12 0h5v1h-5zm61 0h3v1h-3zm3 0h1v1h-1zm6 0h1v1h-1z"/><path d="M204 69h2v1h-2zm2 0h1v2h-1zm1 0h1v1h-1zm25 0h2v14h-2zm2 0h1v14h-1zm8 0h1v1h-1zm1 0h2v1h-2zm3 0h1v1h-1zm24 0h3v1h-3zm3 0h1v1h-1zm7 0h1v1h-1zm1 0h2v1h-2zm2 0h1v12h-1zm1 0h1v1h-1zm-163 1h2v13h-2zm2 0h3v1h-3zm4 0h1v1h-1zm6 0h1v5h-1zm1 0h4v1h-4zm59 0h1v1h-1zm1 0h2v11h-2zm2 0h1v1h-1zm8 0h1v1h-1zm3 0h1v1h-1zm36 0h2v5h-2zm3 0h1v1h-1zm24 0h2v11h-2zm2 0h1v1h-1zm12 0h1v10h-1zm-161 1h4v1h-4zm4 0h1v8h-1zm5 0h1v1h-1zm2 0h4v1h-4z"/><path d="M193 71h2v8h-2zm3 0h1v1h-1zm9 0h2v1h-2zm2 0h1v1h-1zm39 0h1v1h-1zm23 0h2v8h-2zm13 0h2v1h-2zm3 0h1v1h-1zm-162 1h1v11h-1zm9 0h1v7h-1zm2 0h1v1h-1zm2 0h2v11h-2zm110 0h1v1h-1zm36 0h1v1h-1zm3 0h1v6h-1zm-154 1h1v1h-1zm61 0h1v1h-1zm54 0h1v1h-1zm22 0h1v1h-1zm14 0h1v1h-1zm-154 1h1v1h-1zm3 0h1v1h-1zm61 0h1v2h-1zm43 0h10v1h-10zm10 0h1v1h-1zm23 0h1v1h-1zm14 0h1v1h-1zm-156 1h2v1h-2zm2 0h1v8h-1z"/><path d="M131 75h2v4h-2zm2 0h1v1h-1zm102 0h9v1h-9zm9 0h1v1h-1zm24 0h1v1h-1zm-135 1h1v1h-1zm59 0h1v1h-1zm43 0h7v1h-7zm7 0h1v6h-1zm26 0h1v1h-1zm-135 1h1v1h-1zm59 0h1v1h-1zm48 0h2v1h-2zm28 0h1v1h-1zm-139 1h1v1h-1zm111 0h2v1h-2zm3 0h1v1h-1zm29 0h1v1h-1zm10 0h1v1h-1zm3 0h1v1h-1zm-158 1h5v1h-5zm5 0h1v1h-1zm61 0h2v1h-2zm12 0h2v2h-2zm2 0h1v1h-1zm33 0h1v1h-1z"/><path d="M241 79h2v1h-2zm2 0h1v4h-1zm26 0h2v1h-2zm3 0h1v1h-1zm10 0h2v2h-2zm-155 1h1v1h-1zm2 0h2v3h-2zm2 0h1v3h-1zm1 0h1v1h-1zm61 0h1v1h-1zm3 0h1v3h-1zm8 0h2v2h-2zm3 0h1v1h-1z"/><path d="M241 80h3v1h-3zm3 0h1v3h-1zm25 0h1v1h-1zm3 0h1v2h-1zm1 0h1v1h-1zm8 0h1v1h-1zm3 0h1v1h-1zm-152 1h1v1h-1zm62 0h3v1h-3zm3 0h1v2h-1zm6 0h1v1h-1zm3 0h1v1h-1zm35 0h1v1h-1z"/><path d="M270 81h3v1h-3zm3 0h1v2h-1zm7 0h3v1h-3zm3 0h1v1h-1zm-89 1h1v1h-1zm1 0h10v1h-10zm10 0h1v1h-1zm37 0h3v1h-3zm3 0h1v1h-1z"/><path d="M271 82h11v1h-11zm11 0h1v1h-1zm-161 1h2v1h-2zm2 0h1v1h-1zm5 0h3v1h-3zm3 0h1v1h-1zm5 0h2v1h-2zm2 0h1v1h-1zm27 0h1v1h-1zm1 0h1v1h-1zm30 0h8v1h-8zm8 0h1v1h-1zm1 0h1v1h-1zm27 0h2v1h-2zm2 0h1v1h-1zm9 0h2v1h-2zm2 0h1v1h-1zm1 0h1v1h-1zm26 0h1v1h-1zm1 0h8v1h-8zm8 0h1v1h-1zm1 0h1v1h-1zm-161 1h2v1h-2zm2 0h1v1h-1zm6 0h1v1h-1zm1 0h1v1h-1zm1 0h1v1h-1zm5 0h2v1h-2zm2 0h1v1h-1zm27 0h1v1h-1zm1 0h1v1h-1zm33 0h2v1h-2zm2 0h1v1h-1zm1 0h1v1h-1zm1 0h1v1h-1zm29 0h2v1h-2zm2 0h1v1h-1zm9 0h3v1h-3zm3 0h1v1h-1zm28 0h1v1h-1zm1 0h1v1h-1zm1 0h2v1h-2zm2 0h1v1h-1z"/></g><path d="M288 28h1v1h-1zm-109 7h1v1h-1zm63 4h1v1h-1zm-30 3h1v1h-1zm27 8h1v1h-1zm-69 5h1v1h-1zm107 10h1v1h-1zm-78 4h1v1h-1zm-3 4h1v1h-1zm0 4h1v1h-1zm8 1h1v1h-1zm73 3h1v1h-1z" fill="#040909"/><path d="M41 0h1v1h-1zm18 0h1v1h-1z" fill="#f2b6b6"/><path d="M80 90h1v1h-1zm-3 2h1v1h-1z" fill="#e25d61"/><path d="M170 23h1v1h-1zm116 3h1v1h-1zm-119 3h1v1h-1zm68 14h1v1h-1zm-11 14h1v1h-1zm6 0h1v1h-1zm33 0h1v1h-1zm25 2h1v1h-1zm-86 6h1v1h-1zm-63 1h1v1h-1zm141 4h1v1h-1zm-80 15h1v1h-1z" fill="#060606"/><path d="M60 0h1v1h-1zM36 1h1v1h-1zM8 78h1v1H8zm4 5h1v1h-1z" fill="#fff2f2"/><path fill="#f3bcc0" d="M93 24h1v1h-1z"/><path d="M1 63h1v1H1zm3 8h1v1H4zm88 7h1v1h-1zm-4 5h1v1h-1zm-74 2h1v1h-1zm1 1h1v1h-1z" fill="#e56d71"/><path d="M21 91h1v1h-1zm5 3h1v1h-1zm2 1h1v1h-1zm8 3h1v1h-1zm28 0h1v1h-1z" fill="#e04747"/><path d="M9 21h1v1H9zm-2 3h1v1H7zm90 8h1v1h-1zM1 39h1v1H1zm99 6h1v1h-1zM0 46h1v1H0zm2 18h1v1H2z" fill="#db3037"/><path d="M64 1h1v1h-1zM28 4h1v1h-1zm-2 1h1v1h-1zm57 6h1v1h-1z" fill="#f6caca"/><path d="M30 4h1v1h-1zm-9 5h1v1h-1zm-5 4h1v1h-1zM3 32h1v1H3zM0 45h1v1H0zm0 9h1v1H0zm82 34h1v1h-1zm-50 8h1v1h-1zm36 0h1v1h-1zm-33 1h1v1h-1zm10 2h1v1h-1zm10 0h1v1h-1z" fill="#de3d44"/><path d="M23 8h1v1h-1zm28 11h1v1h-1zm-41 1h1v1h-1zm70 1h1v1h-1zM33 39h1v1h-1zm58 5h1v1h-1zM0 51h1v1H0zm9 6h1v1H9zm73 1h1v1h-1zM7 63h1v1H7zm64 6h1v1h-1zm-42 7h1v1h-1z" fill="#d71b23"/><path d="M82 14h1v1h-1zm-22 1h1v1h-1zm-3 1h1v1h-1zm17 0h1v1h-1zm9 23h1v1h-1zM27 49h1v1h-1zm60 0h1v1h-1zm-2 3h1v1h-1zm-10 1h1v1h-1z" fill="#fffdfd"/><path d="M116 23h1v1h-1zm42 6h1v1h-1zm125 15h1v1h-1zm8 1h1v1h-1zm-53 3h1v1h-1zm52 16h1v1h-1zm-90 1h1v1h-1zm75 4h1v1h-1zm-67 1h1v1h-1zm-77 2h1v1h-1zm4 12h1v1h-1zm69 0h1v1h-1zm27 0h1v1h-1zm4 0h1v1h-1zm12 0h1v1h-1z" fill="#060609"/><path d="M116 24h1v4h-1zm0 4h1v1h-1zm159 1h1v1h-1zm-96 4h1v1h-1zm91 18h1v1h-1zm28 8h1v1h-1zm-2 4h1v1h-1zm-163 3h1v1h-1zm108 3h1v1h-1zm-49 2h1v1h-1zm-63 5h1v1h-1zm106 1h1v1h-1zm-30 1h2v1h-2zm2 0h1v1h-1zm1 0h1v1h-1zm36 1h1v1h-1zm26 3h1v1h-1zm3 2h1v1h-1z" fill="#040709"/><path d="M280 24h1v1h-1zm-110 5h1v1h-1zm2 5h1v1h-1zm71 8h1v1h-1zm38 7h1v1h-1zm-36 26h1v1h-1zm-119 1h1v1h-1zm113 1h1v1h-1zm44 5h1v1h-1zm-4 2h1v1h-1z" fill="#040708"/><path d="M38 1h1v1h-1zm24 0h1v1h-1z" fill="#e7767b"/><path d="M101 52h1v1h-1zM6 75h1v1H6zm11 13h1v1h-1z" fill="#e9646f"/><path d="M283 25h1v1h-1zm-106 2h1v1h-1zm111 2h1v1h-1zm-51 2h1v1h-1zm53 2h1v1h-1zm1 4h1v1h-1zm-58 1h1v1h-1zm-56 1h1v1h-1zm58 3h1v1h-1zm53 9h1v1h-1zm2 8h1v1h-1zm5 1h1v1h-1zm3 0h1v1h-1zm-29 10h1v1h-1zm3 1h1v1h-1zm-147 1h1v1h-1zm67 0h1v1h-1zm-63 5h1v1h-1zm67 2h1v1h-1zm83 2h1v1h-1zm-115 3h1v1h-1zm3 0h1v1h-1z" fill="#060708"/></svg>