<svg xmlns="http://www.w3.org/2000/svg" role="img" viewBox="-15.99 -15.99 831.48 238.98"><title>TrilioVault for Kubernetes logo</title><g fill-opacity="1" fill-rule="nonzero" stroke="none" transform="matrix(1.33333 0 0 -1.33333 0 207.173) scale(.1)"><path fill="#2f3844" d="M0 1297.86v-222.4h358.785V53.082H591.23V1075.46h358.754v222.4H0"/><path fill="#2f3844" d="M1425.99 726.828h208.86c149.89 0 207.16 89.27 207.16 180.227 0 94.335-62.31 176.845-181.91 176.845h-234.11zm153.26-207.207h-153.26V53.0586h-229.1V1297.84h463.21c284.69 0 417.76-186.99 417.76-389.098 0-151.629-79.18-303.207-261.12-362.164l313.32-493.5194h-272.87L1579.25 519.621"/><path fill="#2f3844" d="M2653.42 53.0391h-230.76V1297.81h230.76V53.0391"/><path fill="#2f3844" d="M3036.78 1297.84h230.78V273.719h640.05V53.0703h-870.83V1297.84"/><path fill="#2f3844" d="M4393.24 53.0391h-230.78V1297.81h230.78V53.0391"/><path fill="#69c32f" d="M5342.01 89.7383c155.66 0 299.7 58.8127 405.67 165.5237 107.12 107.929 165.53 255.347 164.42 415.156 0 326.855-250.41 582.882-570.09 582.882h-65.52v-45.07h65.52c294.44 0 525.04-236.3 525.04-537.988 1.08-147.781-52.69-283.902-151.35-383.254-97.44-98.136-230.16-152.199-373.69-152.199-299.33 0-525.02 230.262-525.02 535.652 0 133.539 46.18 260.469 130.19 357.969l-32.15 32.12c-92.3-105.889-143.08-244.253-143.08-390.089 0-331.05 245.06-580.7027 570.06-580.7027"/><path fill="#69c32f" d="M5342.03 0c179.61 0 345.89 67.8203 468.18 191 123.65 124.5 191.03 294.691 189.76 479.23 0 375.48-287.55 670.96-654.66 672.72l-24.25.1v210.71L5015 1228.97l306.06-324.798V1118.5h20.97c245.12 0 437.15-196.812 437.15-448.066.89-123.153-43.88-236.524-126.04-319.184-81.09-81.711-191.58-126.711-311.11-126.711-249.24 0-437.17 191.781-437.17 446.09 0 109.441 37.43 213.891 105.5 294.609l-32.13 32.121c-76.39-89.187-118.41-205.043-118.41-326.73 0-280 207.31-491.129 482.21-491.129 131.6 0 253.45 49.738 343.11 140.02 90.61 91.281 139.98 215.96 139.06 351.082 0 276.402-211.81 492.918-482.17 492.948h-66v-145.92l-199.16 211.34 199.16 211.35v-142.34h66c343.68 0 612.9-275.8 612.9-627.925 1.24-172.465-61.49-331.356-176.67-447.305-113.82-114.602-268.72-177.7109-436.23-177.7109-349.41 0-612.91 268.8009-612.91 625.2189 0 157.617 54.98 307.055 154.9 421.312l-32.05 32.03c-108.29-122.73-167.87-283.53-167.87-453.342C4684.1 288.172 4966.95 0 5342.03 0"/></g></svg>