<svg xmlns="http://www.w3.org/2000/svg" role="img" viewBox="-4.18 -4.18 134.86 217.36"><title>Trivy logo</title><defs><clipPath id="clip-path" transform="translate(-51.1 -47.13)"><path fill="#08b1d5" stroke="#fff" stroke-miterlimit="10" stroke-width="1.73" d="M115.01 191.42l-62.18-35.89V83.72l62.18 35.9v71.8z"/></clipPath><clipPath id="clip-path-2" transform="translate(-51.1 -47.13)"><path fill="#0d819b" stroke="#fff" stroke-miterlimit="10" stroke-width="1.73" d="M114.45 191.42l62.18-35.89V83.72l-62.18 35.9v71.8z"/></clipPath><style>.cls-6{stroke:#fff;stroke-miterlimit:10;stroke-width:1.73px;fill:none}</style></defs><path fill="#464547" d="M18.23 190.93v-14.37h-2.42a2.34 2.34 0 0 1-2.37-2.37 2.37 2.37 0 0 1 2.18-2.32l2.71-.25.35-3.56a2.82 2.82 0 0 1 2.76-2.76 2.72 2.72 0 0 1 2.72 2.76v3.56h5a2.5 2.5 0 1 1 0 5h-5v14.25c0 2.12.79 3 3 3a11 11 0 0 0 2.32-.25 6.1 6.1 0 0 1 .94-.14 2.43 2.43 0 0 1 2.48 2.39 2.49 2.49 0 0 1-1.63 2.33 11.07 11.07 0 0 1-4.69.93c-5.98-.01-8.35-2.92-8.35-8.2zm18.91 5.38v-22.52a2.56 2.56 0 0 1 2.57-2.61 2.64 2.64 0 0 1 2.57 2.22l.24 1.77c1.14-1.48 3.56-4 6.77-4 1.83 0 3.36 1 3.36 3a2.72 2.72 0 0 1-2.67 2.91c-.39 0-1-.1-1.58-.1a6.66 6.66 0 0 0-5.33 2.89v16.49a3 3 0 0 1-5.93 0zm18.66-31.16a3.66 3.66 0 1 1 3.66 3.61 3.55 3.55 0 0 1-3.66-3.61zm.75 31.16v-22.17a3 3 0 0 1 5.92 0v22.17a3 3 0 1 1-5.92 0zm17.77.39l-7-21.38a3.85 3.85 0 0 1-.25-1.18 2.87 2.87 0 0 1 3-3 2.78 2.78 0 0 1 2.87 2.27l5.08 17.46h.2l5.09-17.43a2.76 2.76 0 0 1 2.86-2.27 2.87 2.87 0 0 1 3 3 3.8 3.8 0 0 1-.24 1.18l-7 21.38a2.79 2.79 0 0 1-2.86 2.18h-1.88a2.79 2.79 0 0 1-2.87-2.21zm23.7 9.88a3.16 3.16 0 0 1 .15-1l2.32-7a2.76 2.76 0 0 1-1.58-1.93l-6.87-21.38a4.12 4.12 0 0 1-.24-1.18 2.87 2.87 0 0 1 3-3 2.76 2.76 0 0 1 2.86 2.27l5.05 17.51h.2l5.08-17.43a2.78 2.78 0 0 1 2.87-2.27 2.87 2.87 0 0 1 3 3 3.85 3.85 0 0 1-.25 1.18l-10.27 32a2.72 2.72 0 0 1-2.62 1.93 2.69 2.69 0 0 1-2.7-2.7z"/><path fill="#08b1d5" d="M63.91 144.29L1.73 108.4V36.58l62.18 35.91v71.8z"/><g clip-path="url(#clip-path)"><path d="M19.9 46.71c0 .08 0 .15-.07.23-9.35 31.36 11.43 65.24 46.42 75.66" class="cls-6"/><path d="M70.15 102.87c-27.06-5.56-40-30.31-33.81-51.15 0-.07 0-.14.08-.22" class="cls-6"/></g><path d="M63.91 144.29L1.73 108.4V36.58l62.18 35.91v71.8z" class="cls-6"/><path fill="#f69421" d="M63.36 72.16l61.61-35.58L63.36 1 1.73 36.59l61.63 35.57z"/><path d="M63.36 72.16l61.61-35.58L63.36 1 1.73 36.59l61.63 35.57z" class="cls-6"/><path fill="#0d819b" d="M63.35 144.29l62.18-35.89V36.58L63.35 72.49v71.8z"/><g clip-path="url(#clip-path-2)"><path d="M107.37 46.71a2.09 2.09 0 0 0 .08.23c9.34 31.36-11.44 65.24-46.42 75.66" class="cls-6"/><path d="M57.11 102.87c31.26-6.68 40-30.31 33.81-51.15 0-.07-.05-.14-.07-.22" class="cls-6"/></g><path d="M63.35 144.29l62.18-35.89V36.58L63.35 72.49v71.8z" class="cls-6"/><path d="M92.02 56.79c-.3-.66-.63-1.3-1-1.94a30.79 30.79 0 0 0-13.53-13C62.35 34.47 43.9 40.81 35 55.99" class="cls-6"/><path d="M107.68 48c-.46-.84-1.38-1.74-1.88-2.55a48.67 48.67 0 0 0-20.14-18.58c-23.85-11.63-52.5-2.51-65.85 20.31" class="cls-6"/><path fill="#f0df36" stroke="#fff" stroke-miterlimit="10" stroke-width="1.73" d="M52.11 64.87a1.1 1.1 0 0 0 0 .38v.5c-.39 7.07 3.79 13.58 10.76 16.72l.15.07h.1c8.57-4.18 12-9.78 11.53-17.23v-.18c-.09-.2-.19-.4-.29-.6a12 12 0 0 0-5.35-5.2c-5.93-2.89-13.18-.38-16.82 5.58"/></svg>