<svg xmlns="http://www.w3.org/2000/svg" role="img" viewBox="21.38 60.63 356.98 281.98"><title>Twistlock logo</title><style>svg {enable-background:new 0 0 400 400}</style><style>.st0{fill:#001746}.st1{fill:#6118ff}</style><g><g><g><g><path d="M45.7 334.6h11.7v-44.5h17.5v-11.2H28.4v11.2h17.4v44.5z" class="st0"/></g><g><path d="M133.9 334.6h11.3v-38.8h-11.3v38.8zm5.5-56.8c-3.6 0-6.6 3-6.6 6.7s3 6.7 6.6 6.7c3.7 0 6.8-3 6.8-6.7s-3-6.7-6.8-6.7z" class="st0"/></g><g><path d="M150.1 324.1c.5 4.2 4.4 11.7 16.3 11.7 7.4 0 15.4-4.1 15.4-13 0-6.1-4.3-10.5-11.9-12l-5.3-1c-2.2-.4-3.4-1.7-3.4-3.4 0-2.2 2-3.9 4.7-3.9 3.3 0 5.5 1.8 6 4.8l9.2-1.7c-.5-4.3-4.3-11-15.4-11-8.4 0-14.8 5.5-14.8 12.7 0 4.2 2 9.7 11.5 11.8l4.5 1c2.8.6 4.2 1.8 4.2 3.7 0 1.9-1.6 3.9-5 3.9-4.4 0-6.3-2.7-6.6-5.3l-9.4 1.7z" class="st0"/></g><g><path d="M183.2 305.6h7V323c0 7.7 4.8 12.3 12.8 12.3 3.2 0 5.1-.6 5.9-1V325c-.8.1-1.7.3-2.8.3-2.1 0-4.8-.5-4.8-4.6v-15.2h7.7v-9.8h-7.7v-11.6h-11.1v11.6h-7v9.9z" class="st0"/></g><g><path d="M214.8 334.6h11.3v-55.7h-11.3v55.7z" class="st0"/></g><g><path d="M252 294.6c-11.8 0-20.6 8.8-20.6 20.5 0 11.8 8.9 20.6 20.6 20.6 11.8 0 20.6-8.9 20.6-20.6 0-11.9-8.7-20.5-20.6-20.5zm0 30.9c-4.5 0-9.3-3.2-9.3-10.3 0-7.1 4.7-10.2 9.3-10.2s9.3 3.2 9.3 10.2c0 7.1-4.7 10.3-9.3 10.3z" class="st0"/></g><g><path d="M297.1 294.6c-11.7 0-20.5 8.9-20.5 20.6 0 11.7 9 20.5 20.9 20.5 10.2 0 16.5-6.5 18.4-13.1l-9.9-3c-1 2.9-3.7 5.8-8.5 5.8-5.7 0-9.7-4.2-9.7-10.2 0-6.2 3.8-10.3 9.5-10.3 5.5 0 7.6 3.8 8.2 5.8l10-3c-2.5-9.7-11.5-13.1-18.4-13.1z" class="st0"/></g><g><path d="M345.3 334.6h13.8L343.6 312l15-16.2h-14.5l-12.6 14v-30.9h-11.3v55.7h11.3v-9.5l4.4-4.7 9.4 14.2z" class="st0"/></g><path d="M88.9 334.6l8.3-25.1 8.4 25.1h11.8l12-38.8h-11.6l-6.5 23-7.6-23H91.2l-7.7 22.9-6.4-22.9H64.7l12.2 38.8z" class="st0"/></g><g><path d="M364.1 296.7v4h-1v-4h-1.5v-.9h4v.9h-1.5zm6.7 4v-3.4l-1.4 3.4h-.8l-1.4-3.4v3.4h-.9v-4.9h1.2l1.5 3.5 1.4-3.5h1.3v4.9h-.9z" class="st0"/></g></g><g><g><path d="M285.8 148.7v-29.8L260 133.7v29.9zM260 169.4v27.7l24.1-13.9z" class="st1"/><path d="M256.8 135.7l-25.9 14.9v67.3l-29.1 16.8v29.8l84-48.5v-30l-29 16.8zm-84.3-22.4l24.2-14-24.2-14z" class="st1"/><path d="M170.9 147.8l58.3-33.7 29.1 16.8 25.9-14.9-84.1-48.5-26 15 29.1 16.8-58.1 33.5zm-27.3 83l24.1-13.9-24.1-13.9z" class="st1"/><path d="M198.4 201l-58.2-33.6v-33.6l-1.7-1-24.2-13.9V216l26 15v-33.7l58.1 33.6z" class="st1"/><path d="M198.5 234.7l-25.9-15v29.9l25.9 15zm-55-69.2l25.8 14.9v-29.8l-25.8-14.9zM116 116l25.8 14.9 26-15-25.9-14.9zm110 67.2l-25.8-14.8-25.9 14.9 25.8 14.9zm-27.6-17.6v-29.9l-25.8 14.9v29.9zm56.7-32.7l-25.9-15-25.8 14.9 25.9 15zm-53.4 32.5l25.9 15v-29.8l-25.9-15zm0 35.6v29.9l25.9-14.9v-29.9z" class="st1"/></g></g></g></svg>