<svg xmlns="http://www.w3.org/2000/svg" viewBox="-1.52 -1.52 279.04 339.04"><title>Typhoon logo</title><style>svg {enable-background:new 0 0 276 336.3}</style><style>.st33{fill:#fefefe}</style><g><g><path d="M130.9 253.1c-6.9-13-13.8-26-20.6-39-.1-.1.1-.3.2-1.1 11.2 1.7 22.4 3.4 33.6 5.2 30 4.7 60 9.4 90 14 7.7 1.2 11.9-2 12.2-8.8.2-5-2.2-8.2-7.3-9-17.9-2.9-35.9-5.7-53.8-8.5-.1-1.9 1.5-2.3 2.5-3.2 25.8-22.5 51.6-44.9 77.4-67.3 2.3-2 4.5-4.2 6.8-6.3v-5.2c-1.1-1.6-1.9-3.3-3.2-4.7-3.7-4.1-8.1-4.3-12.3-.7-11.9 10.3-23.8 20.6-36.4 31.6-.7-9.5-1.4-18.1-2-26.8-2.2-34.3-4.4-68.6-6.6-102.8-.4-6.6-3.7-10.1-9.5-10-6 .1-9.5 4-9.1 10.7 1.2 18.9 2.5 37.7 3.7 56.8-.6-.1-1.2.1-1.5-.2C162.1 53.5 129.4 29.2 96.7 5h-5.2c-1.1.8-2.4 1.5-3.4 2.4-5.3 4.6-5.1 10.7.5 14.9 12.8 9.5 25.7 18.9 38.5 28.4 1.3 1 2.6 2 4.5 3.5-18 6-35.4 11.7-52.7 17.5C57.1 79 35.3 86.3 13.4 93.4 10 94.5 7.2 96.1 5 98.8v6.3c4.5 7.9 6.2 8.5 15 5.6 15.1-5 30.2-10 46.2-15.3-5.5 12.6-10.6 24.4-15.7 36.2-10.1 23.2-20.2 46.3-30.3 69.4-2.8 6.4-1.4 10.8 4.2 13.3s9.9.6 12.7-5.8c6.6-15.2 13.3-30.4 19.9-45.7.7-1.6 1.4-3.1 2.5-5.3 8.1 15.4 15.9 30.1 23.7 44.8 10.8 20.3 21.5 40.7 32.2 61.1 1.3 2.5 2.8 4.7 5.2 6.2h6.3c8.2-5.6 8.7-7.7 4-16.5zM78.1 136.2c.1-32.4 26.7-59 59-59.1 32.5-.1 59.3 26.6 59.4 59.2.1 32.6-26.6 59.3-59.2 59.3s-59.2-26.8-59.2-59.4z"/></g><g><path d="M196.5 136.3c-.1-32.6-26.9-59.3-59.4-59.2-32.3.1-58.9 26.7-59 59.1-.1 32.6 26.5 59.4 59.1 59.4 32.7 0 59.4-26.7 59.3-59.3zm-100.9.4c-.1-23.3 18.6-42.1 41.8-42.1 23 0 41.6 18.7 41.6 41.7 0 23.1-18.5 41.7-41.5 41.7-23.2.1-41.8-18.3-41.9-41.3z" class="st33"/></g><g><path fill="#2296f3" d="M179 136.3c0-23-18.6-41.7-41.6-41.7-23.2 0-41.9 18.7-41.8 42.1.1 23.1 18.7 41.5 41.9 41.4 23.1-.1 41.5-18.6 41.5-41.8zm-72.9-.3c.1-17.1 14.2-31 31.4-31 17.4 0 31.3 14.2 31.2 31.7-.1 17.1-14.1 30.9-31.4 30.9-17.5 0-31.4-14.1-31.2-31.6z"/></g><g><path d="M168.6 136.7c.1-17.5-13.8-31.6-31.2-31.7-17.2 0-31.2 13.8-31.4 31-.1 17.5 13.7 31.6 31.2 31.6 17.3.1 31.3-13.7 31.4-30.9z" class="st33"/></g></g><g><path d="M29.7 290.4v-7.2h31.7v7.2H49.8v31.5h-8.5v-31.5H29.7z"/><path d="M69.3 330.3c-1.5 1-3.5 1.5-6.2 1.5-.8 0-1.6 0-2.4-.1-.8-.1-1.6-.1-2.4-.2v-6.3c.7.1 1.5.1 2.2.2.8.1 1.5.1 2.3.1 1-.1 1.8-.5 2.2-1.2.5-.7.7-1.4.7-2.3 0-.6-.1-1.2-.3-1.7L55.6 294H64l6.3 19.2h.1l6.1-19.2h8l-11.7 31.5c-.8 2.2-2 3.8-3.5 4.8zm25.1-36.4v3.6h.1c.9-1.5 2.1-2.6 3.6-3.3 1.4-.7 3-1 4.8-1 2.2 0 4.1.4 5.7 1.2 1.6.8 2.9 1.9 4 3.3 1 1.4 1.8 3 2.3 4.8s.8 3.7.8 5.7c0 1.9-.3 3.7-.8 5.4s-1.3 3.3-2.3 4.6c-1 1.3-2.3 2.4-3.8 3.2-1.5.8-3.3 1.2-5.4 1.2-1.7 0-3.3-.4-4.8-1.1-1.5-.7-2.7-1.7-3.6-3.1h-.1v13.3h-7.7v-37.8h7.2zm10 22.2c.8-.5 1.5-1.2 2.1-2 .5-.8.9-1.8 1.1-2.8.2-1.1.3-2.2.3-3.3 0-1.1-.1-2.2-.4-3.3-.2-1.1-.6-2-1.2-2.9-.5-.8-1.2-1.5-2.1-2.1-.8-.5-1.9-.8-3.1-.8-1.3 0-2.3.3-3.2.8-.8.5-1.5 1.2-2.1 2-.5.8-.9 1.8-1.1 2.9-.2 1.1-.3 2.2-.3 3.4 0 1.1.1 2.2.4 3.3.2 1.1.6 2 1.1 2.8.5.8 1.2 1.5 2.1 2 .9.5 1.9.8 3.1.8 1.4 0 2.5-.3 3.3-.8zm23.5-32.9v14.6h.2c1-1.6 2.2-2.8 3.7-3.5 1.5-.7 3-1.1 4.4-1.1 2.1 0 3.7.3 5.1.8 1.3.6 2.4 1.3 3.1 2.3.8 1 1.3 2.2 1.6 3.6.3 1.4.5 3 .5 4.7v17.2h-7.7V306c0-2.3-.4-4-1.1-5.2-.7-1.1-2-1.7-3.8-1.7-2.1 0-3.6.6-4.6 1.9-.9 1.2-1.4 3.3-1.4 6.2v14.7h-7.7v-38.7h7.7zm24.6 18.7c.7-1.8 1.7-3.4 2.9-4.7 1.3-1.3 2.8-2.3 4.6-3 1.8-.7 3.8-1.1 6-1.1s4.2.4 6 1.1c1.8.7 3.3 1.7 4.6 3 1.3 1.3 2.2 2.8 2.9 4.7.7 1.8 1 3.9 1 6.1 0 2.2-.3 4.3-1 6.1-.7 1.8-1.7 3.4-2.9 4.6-1.3 1.3-2.8 2.3-4.6 3-1.8.7-3.8 1-6 1s-4.2-.3-6-1c-1.8-.7-3.3-1.7-4.6-3-1.3-1.3-2.2-2.8-2.9-4.6-.7-1.8-1-3.8-1-6.1s.3-4.3 1-6.1zm7 9.3c.2 1.1.6 2 1.1 2.9.5.8 1.2 1.5 2.1 2 .9.5 2 .8 3.3.8 1.3 0 2.4-.3 3.3-.8.9-.5 1.6-1.2 2.1-2s.9-1.8 1.1-2.9c.2-1.1.3-2.2.3-3.3 0-1.1-.1-2.2-.3-3.3-.2-1.1-.6-2-1.1-2.9-.5-.8-1.2-1.5-2.1-2-.9-.5-2-.8-3.3-.8-1.3 0-2.4.3-3.3.8-.9.5-1.6 1.2-2.1 2s-.9 1.8-1.1 2.9c-.2 1.1-.3 2.2-.3 3.3 0 1.2.1 2.3.3 3.3zm26.1-9.3c.7-1.8 1.7-3.4 2.9-4.7 1.3-1.3 2.8-2.3 4.6-3 1.8-.7 3.8-1.1 6-1.1s4.2.4 6 1.1c1.8.7 3.3 1.7 4.6 3 1.3 1.3 2.2 2.8 2.9 4.7.7 1.8 1 3.9 1 6.1 0 2.2-.3 4.3-1 6.1-.7 1.8-1.7 3.4-2.9 4.6-1.3 1.3-2.8 2.3-4.6 3-1.8.7-3.8 1-6 1s-4.2-.3-6-1c-1.8-.7-3.3-1.7-4.6-3-1.3-1.3-2.2-2.8-2.9-4.6-.7-1.8-1-3.8-1-6.1s.3-4.3 1-6.1zm7 9.3c.2 1.1.6 2 1.1 2.9.5.8 1.2 1.5 2.1 2 .9.5 2 .8 3.3.8 1.3 0 2.4-.3 3.3-.8.9-.5 1.6-1.2 2.1-2s.9-1.8 1.1-2.9c.2-1.1.3-2.2.3-3.3 0-1.1-.1-2.2-.3-3.3-.2-1.1-.6-2-1.1-2.9-.5-.8-1.2-1.5-2.1-2-.9-.5-2-.8-3.3-.8-1.3 0-2.4.3-3.3.8-.9.5-1.6 1.2-2.1 2s-.9 1.8-1.1 2.9c-.2 1.1-.3 2.2-.3 3.3 0 1.2.1 2.3.3 3.3zm33.3-17.3v3.9h.2c1-1.6 2.2-2.8 3.8-3.5 1.6-.7 3.1-1.1 4.8-1.1 2.1 0 3.7.3 5.1.8 1.3.6 2.4 1.3 3.1 2.3.8 1 1.3 2.2 1.6 3.6.3 1.4.5 3 .5 4.7v17.2h-7.7V306c0-2.3-.4-4-1.1-5.2-.7-1.1-2-1.7-3.8-1.7-2.1 0-3.6.6-4.6 1.9-.9 1.2-1.4 3.3-1.4 6.2v14.7h-7.7v-28h7.2z"/></g></svg>