<svg xmlns="http://www.w3.org/2000/svg" role="img" viewBox="-5.67 -5.67 294.84 105.34"><title>UMB (KCSP) logo</title><path fill="#ffd400" d="M283.54 93.05c0 .66-.44 1.09-1.31 1.09H1.32A1.22 1.22 0 0 1 0 93.05V78.38c0-.66.44-1.1 1.32-1.1h280.91a1.23 1.23 0 0 1 1.31 1.1v14.67z" data-name="Balken Pantone C"/><path d="M72.48 0c-4 0-6.57.87-7.67 2.18a.81.81 0 0 0-.22.66V37c0 7.22-5.25 12.92-21.67 12.92S21.24 44.44 21.24 37V2.84a.81.81 0 0 0-.22-.66C19.93.87 17.3 0 13.36 0S6.79.87 5.7 2.18a.81.81 0 0 0-.22.66V37c0 15.11 10.29 26.27 37.44 26.27S80.36 52.11 80.36 37V2.84a.81.81 0 0 0-.22-.66C79.26.87 76.42 0 72.48 0zm111.88 1.31c-4.82-2-12.48-.22-15.77 3.28l-26 24.53-26.11-24.75C113.2.87 105.54-.88 100.7 1.09a1.21 1.21 0 0 0-.66 1.09v57.59a.81.81 0 0 0 .22.66c1.1 1.31 3.72 2.18 7.66 2.18s6.57-.87 7.67-2.18a.81.81 0 0 0 .22-.66V24.3l24.08 22.77a3.52 3.52 0 0 0 5 .22l24.08-22.77v35.47a.78.78 0 0 0 .22.65c1.1 1.32 3.72 2.19 7.66 2.19h.22c3.94 0 6.57-.87 7.67-2.19a.8.8 0 0 0 .21-.65V2.4a1.2 1.2 0 0 0-.59-1.09zm88.89 28.02a19.53 19.53 0 0 0 2.85-10.29c0-10.29-7.45-18.17-17.08-18.17h-53a1.23 1.23 0 0 0-1.32 1.1v58.24c0 .65.44 1.09 1.31 1.09h56c9.64 0 17.08-7.66 17.08-18.17a18.34 18.34 0 0 0-5.84-13.8zm-53-15.54h37.45c4.16 0 4.37 4.6 4.37 5.47s-.21 5.48-4.37 5.48h-37.43zm40.5 35h-40.5V37.87h40.5c4.16 0 4.38 4.6 4.38 5.48s-.2 5.47-4.36 5.47z"/></svg>