<svg xmlns="http://www.w3.org/2000/svg" role="img" viewBox="-1.71 -1.71 72.29 88.79"><path fill="#255389" d="M52.803 85.084h4.467v-7.841h.984c.563 0 1.26.06 1.653.668l3.635 5.626c.802 1.242 1.3 1.547 2.813 1.547h2.226v-3.762h-.116c-.843 0-1.653-.168-1.98-.669l-3.281-5.04c0-.003 1.043-1.524 1.168-1.711l4.537-6.752H63.95l-3.658 5.662c-.386.562-1.124.668-1.687.668H57.27V62.157c0-1.653-.74-2.04-2.392-2.04h-3.176v3.798h.328c.492 0 .773.246.773.774zm-8.97-2.39c0 1.687.703 2.39 2.356 2.39h3.176v-3.762h-.327c-.493 0-.774-.282-.774-.774V69.542c0-1.653-.703-2.392-2.356-2.392h-3.176v3.798h.328c.492 0 .773.246.773.774zm-21.489 2.39h4.431v-8.228c0-.844.105-1.653.351-2.391.634-2.145 2.427-3.658 4.818-3.658 2.25 0 2.813 1.477 2.813 3.658v8.228c0 1.688.704 2.391 2.392 2.391h3.175v-3.762h-.327c-.492 0-.774-.282-.774-.774V73.55c0-4.747-2.286-6.822-6.26-6.822-3.621 0-5.555 2.216-6.329 3.728h-.07s.07-.387.07-.774v-.527c0-1.266-.774-2.005-2.356-2.005h-3.035v3.798h.328c.492 0 .773.246.773.774zm-21.243-6.4c0 4.888 2.357 6.822 6.19 6.822 3.094 0 5.344-1.863 6.188-3.727h.07s-.034.387-.034.809v.492c0 1.266.808 2.004 2.355 2.004h3.036v-3.762h-.328c-.492 0-.773-.282-.773-.774V67.15h-4.466v8.229c0 3.2-1.794 6.048-5.029 6.048-2.215 0-2.778-1.477-2.778-3.657v-8.263c0-1.618-.703-2.357-2.356-2.357H0v3.798h.328c.492 0 .773.246.773.774z"/><path fill="#259fd7" d="M44.044 64.232h3.868v-4.115h-3.868z"/><path fill="#255389" fill-rule="evenodd" d="M50.814 3.316a13.368 13.368 0 0 1 4.003 3.602c2.751 3.7 3.621 8.607 2.722 13.09l-.351 1.597-1.22 3.345-1.65-2.257-.172 1.353c1.682 2.587 1.847 6.144-.038 8.68-2.268 3.05-5.807 4.148-9.387 4.02.214 1.076.346 2.196.366 3.31 1.745.469 3.67 1.18 4.022 2.504 1.658 6.24 3.34 5.494 3.771 7.865.607 3.328-6 5.43-9.732 4.091-1.934-.693-2.387-2.952-2.386-5.547a7.58 7.58 0 0 1-1.177.505l.073.32c.234 1.045.488 2.086.755 3.123a67.49 67.49 0 0 0 .838 3.014c.076.246.177.594.29.923l.16.405c.032.08.069.176.11.255l.13.182.299.825.02.282a2.868 2.868 0 0 1-.467 1.774c-1.085 1.667-3.66 2.067-5.505 2.227-2.24.194-4.62-.139-6.094-2.034a5.211 5.211 0 0 1-.848-1.606 5.614 5.614 0 0 1-.074-.243l-.035-.127c-1.036-.007-1.918-.164-2.635-.468l-.036.266-.009.06-.01.075a2.866 2.866 0 0 1-.946 1.759c-1.339 1.2-3.834 1.4-5.552 1.291-2.116-.133-4.796-.835-5.724-2.975-.987-2.279.126-4.816 1.303-6.79.671-1.126 1.438-2.147 2.157-3.226l.002-.006c.035-.123.07-.26.107-.411-3.757 2.26-7.026 2.158-10.341.743 1.661-1.425 2.387-2.149 3.867-3.767-1.35-.08-2.703-.184-4.053-.276 2.118-2.574 4.015-4.194 3.91-9.085-.045-2.106.184-4.415 1.6-6.09 1.273-1.506 3.106-2.04 5.022-2.04 1.98 0 3.705.868 5.106 2.151-.825-3.585-.93-8.2.913-12.646-1.797-2.534-2.662-5.764-2.413-8.84.096-1.178.25-2.747.86-3.934a4.4 4.4 0 0 1 .217-.374c.411-.629.986-1.665 2.376-1.84.932-.119 2.607 2 3.003 2.754l.018.036c.171.342.474.612.833.741C32.077 2.05 37.342-.164 42.347.01l4.366.152-1.217 1.364c.835.113 1.651.29 2.443.533z"/><path fill="#b6d1e2" d="M40.778 42.17c.027-.155.053-.31.076-.466l.117-.781c1.68.323 3.287.74 4.234 1 2.462.677 2.559 1.282 2.969 2.971 1.043 4.294 2.896 4.924 2.756 6.142-.095.832-1.524 1.52-2.146 1.79-.836.363-2.152.656-3.072.656-4.292 0-2.93-4.628-3.338-7.108-.247-.966-1.621-1.157-2.507-1.426l.014-.043-.026-.01c.343-.927.74-1.704.923-2.724"/><path fill="#fff" d="M43 41.36c.742.18 1.726.431 2.205.563 2.462.678 2.559 1.282 2.969 2.971.964 3.973 2.623 4.81 2.755 5.877-1.084-.984-2.823-.579-4.483.515-.757.5-1.73.32-1.935-1.457-.28-2.447.137-4.214.065-4.905-.125-1.2-1.025-.794-3.85-1.451.618-.444 1.24-1.283 2.274-2.113"/><path fill="#b6d1e2" d="M26.49 45.887c1.096.26 4.504.654 5.648.722-.05-.004-.098-.005-.147-.008.03.214.056.389.081.508.068.332.244 1.363.214 2.204-.065 1.816-.352 3.902.317 5.67.59 1.56-1.214 1.72-3.098 1.759-2.697.055-3.473-.799-2.913-3.376.282-1.296.909-2.547.976-3.084.12-.966-.933-2.38-1.078-4.395"/><path fill="#fff" d="M32.221 48.068c.002.103.068 1.145.065 1.244-.061 1.705-.318 3.646.203 5.34l-1.56.087c-1.967.11-1.028-.088-.788-2.17.101-.883.14-1.358.087-2.241-.074-1.218-.105-1.19-.38-2.378.833.049 1.259.2 2.373.118"/><path fill="#fff" d="M50.775 13.129c1.292 2.725 1.593 5.612 1.63 7.072.015.66 0 1.434-.101 2.074l-.295 2.32h.004l.154.201c1.48 1.929 1.746 4.755.296 6.706-2.367 3.184-6.604 3.723-10.556 2.802.669 2.601.377 5.466-.341 8.035-.594 2.125-1.705 4.188-3.754 5.207l-.61.302.043.326c.207 1.547 2.112 9.44 2.866 10.488l.105.29a.823.823 0 0 1-.142.507c-.619.952-2.982 1.217-3.963 1.302-1.486.13-3.302.033-4.298-1.25-1.632-2.098.006-5.41.337-8.188.086-.724-.18-1.618-.144-2.367a4.401 4.401 0 0 0-.006-.525l-.59-.03c-1.82-.094-3.676-.418-5.402-1.013l-.324-.111c-.112.893-.301 3.343-.274 4.236.056 1.85-2.103 3.316-.921 6.673l.045.128-.018.136a.846.846 0 0 1-.285.51c-1.342 1.204-7.102 1.155-8.025-.974-1.06-2.445 2.17-6.352 3.453-8.316.588-1.775 1.173-5.477.131-7.152l-.015-.025-.013-.027c-.766-1.576-.894-3.284-.596-4.996.261-1.504.858-2.921 2.233-3.716 1.52-.878 3.625-.735 5.321-.659 1.508.071 9.36.906 8.067-1.682-1.266-1.963-3.384-7.53-3.845-11.866-1.65-.072-3.163-.972-4.311-2.132-2.217-2.24-3.336-5.602-3.082-8.73.057-.713.253-3.415 1.175-3.722l.088-.03.093.001c.518.002 1.02.725 1.24 1.144a3.556 3.556 0 0 0 2.283 1.849c2.612.722 5.356 1.717 6.563 4.315 2.812-3.613 12.531-5.576 15.784.887"/><path fill="#fff" d="M30.206 19.46c-1.362-.262-2.6-1.06-3.575-2.045-2.217-2.24-3.336-5.602-3.082-8.73.052-.644.217-2.911.928-3.57-1.274 2.729 3.272 9.917 7.561 12.375-.384.44-.676.872-.867 1.963-.322 0-.644.002-.965.007"/><path fill="#b6d1e2" d="M24.489 58.186l.045.129-.018.135a.846.846 0 0 1-.284.51c-1.343 1.204-7.103 1.155-8.026-.973-1.06-2.446 2.17-6.353 3.452-8.317.59-1.775 1.173-5.477.132-7.152l-.015-.025-.013-.027c-.766-1.576-.894-3.284-.596-4.997.261-1.502.858-2.92 2.233-3.714.246-.142.507-.258.78-.351l.158.075c-2.345 2.093-3.184 5.8-.751 10.453.692 1.323.84.884.404 2.333-.392 1.3.185 3.77-.146 4.85-.65 2.128-3.45 3.29-4.139 5.525-.418 1.356.663 1.74 2.218 1.597 1.73-.159 3.952-1.959 4.566-.051m15.307-.171c.118.298.225.522.315.647l.105.29a.82.82 0 0 1-.142.507c-.619.952-2.982 1.217-3.963 1.302-1.486.129-3.302.032-4.298-1.25-1.632-2.098.006-5.41.337-8.188.086-.724-.18-1.618-.144-2.367.08-1.685-.183-1.822-.164-3.14.803 1.706 1.928 4.8 1.883 6.518-.039 1.484-1.007 2.569-1.105 4.752-.073 1.651.725 2.01 1.81 1.896 1.736-.183 4.298-1.798 5.366-.967zm10.979-44.886c1.292 2.725 1.593 5.612 1.63 7.072.015.66 0 1.434-.101 2.074l-.295 2.32h.004l.154.201c1.48 1.929 1.746 4.755.296 6.706-2.367 3.184-6.604 3.723-10.556 2.802.088.344.16.693.216 1.045l-4.006-2.262c12.57 3.731 17.031-8.355 7.873-7.344-1.402.154-2.888.66-3.64.79-.6.103-.684-.108-.15-.542.655-.531 2.159-1.255 3.923-1.55.526-.088 1.037-.15 1.525-.187 1.842-4.886 1.914-7.068-.755-10.094l2.905-2.518c.367.437.697.93.977 1.487"/><path fill="#b6d1e2" d="M32.242 48.465c-2.222-.114-4.505-.253-6.557-1.188.037-1.225-.102-1.814-.477-2.242.942.333 1.122.902 1.282 1.383 1.652.547 3.845.741 5.497.714.005.462.25.87.255 1.333m9.665-14.16c2.246 6.03 1.403 13.199-4.704 13.543l-.318-1.66c3.243-1.574 3.265-8.184 1.232-13.1.843.567 2.652.973 3.79 1.217m1.599-22.358c-2.088-.752-7.932.342-8.686.226.358.672.685 1.842.906 3.15 2.539-1.788 4.925-2.622 7.876-2.622 1.206 2.526 5.544 2.006 5.544-.691 0-1.385-1.268-2.596-2.832-2.705-1.564-.11-2.832.923-2.832 2.307 0 .113.008.224.024.335"/><path fill="#27679a" d="M31.962 13.131c-1.708-2.368-5.319-2.102-6.603-4.046-.482-.73-.505.28-.449 1.04.234 3.153 1.692 6.927 5.288 7.657 2.897.588 3.206-2.651 1.764-4.65"/><path fill="#259fd7" d="M19.64 41.882l.335 1.132-.01.025c-1.568 3.622-5.223 4.97-8.67 5.029 2.027-1.5 4.514-3.73 4.818-6.403-.862 1.282-3.457 1.71-4.568 1.634 1.644-2.822 1.853-4.042 1.782-7.359-.072-3.357.67-6.035 4.572-6.035 1.944 0 3.55 1.223 4.713 2.679l.519.65-.794.245c-1.922.595-2.724 2.104-3.055 4.01-.26 1.495-.184 2.993.359 4.393"/><path fill="#2585c8" d="M19.64 41.882l.335 1.132-.01.025c-1.568 3.622-5.223 4.97-8.67 5.029 2.027-1.5 4.514-3.73 4.818-6.403-.862 1.282-3.457 1.71-4.568 1.634 6.291-3.361 2.353-7.666 5.196-10.243 1.102-.999 2.6-.089 3.81 1.516-.693.749-1.068 1.76-1.27 2.918-.259 1.494-.183 2.992.36 4.392"/><path fill="#259fd7" d="M30.715 19.411l.456.042.054.455c.58 4.82 2.474 10.054 5.491 13.868l.883 1.117c-2.065-.3-3.25-.466-5.018-1.826-.059 1.731.673 4.076 1.428 5.511-2.237-.86-4.195-2.26-5.363-4.589-.174.837-.345 1.43-.496 2.25-3.642-4.648-5.059-12.212-1.875-19.203 1.21 1.017 2.317 1.85 4.44 2.375m20.203-.996c.614-.593.676-2.326.625-3.32 1.34 1.404 3.173 2.831 3.92 4.82 1.84-8.27-3.27-17.898-14.524-16.32.563-.715.728-.854 1.337-1.536-5.157-.18-10.152 2.473-12.692 6.209 2.05.826 3.918 1.772 5.139 3.748l.097.157.171.07c1.677.681 4.143 2.652 5.791 3.954.02-1.533-.3-3.138-.611-4.083 3.418-.456 8.535 1.086 10.747 6.301"/><path fill="#2585c8" d="M30.715 19.411l.456.042.054.455c.58 4.821 2.474 10.054 5.491 13.868l.883 1.116c-2.064-.3-3.25-.465-5.018-1.825-.059 1.731.673 4.076 1.428 5.511-2.237-.86-4.195-2.26-5.363-4.589-.174.837-.345 1.43-.496 2.25-2.029-2.589-3.366-6.082-3.603-9.876 3.79 7.764 5.518-1.656 3.892-7.796a9.83 9.83 0 0 0 2.276.844m24.748.504c-.621-5.249-2.788-9.045-5.494-10.586-1.398-.797-.073 4.36-.364 3.984-1.739-2.245-9.208-5.705-11.89-5.112-1.592.352 1.554 3.403.56 2.835-1.617-.924-3.834-1.936-6.597-1.802 1.2.661 2.257 1.507 3.045 2.782l.097.157.171.07c1.677.681 4.143 2.652 5.791 3.954.02-1.533-.3-3.138-.611-4.083 3.418-.456 8.535 1.086 10.747 6.301.614-.593.676-2.326.625-3.32 1.34 1.404 3.173 2.831 3.92 4.82"/><path fill="#fff" d="M45.092 10.273a6.64 6.64 0 0 0 2.78 1.32c-.212.75-.535 1.602-.729 2.17-1.165.34-2.77-.546-3.104-1.507.355-.687.743-1.425 1.053-1.983m3.613-2.652c-.377-.063-.936-.236-1.554-.69.99-1.382 1.494-1.671 1.68-1.73.028.78-.023 1.6-.126 2.42m-.16.907l.025.004a27.61 27.61 0 0 1-.46 2.17c-.55-.095-1.557-.384-2.554-1.25.4-.692.758-1.273 1.075-1.758a4.979 4.979 0 0 0 1.914.834"/><path fill="#b6d1e2" d="M46.337 11.064c.59.289 1.126.445 1.534.53-.21.749-.534 1.601-.728 2.168-.577.17-1.26.037-1.845-.255zM48.83 5.2l-.924 2.173c.31.14.584.211.8.248.103-.821.153-1.64.124-2.42m-1.28 3.011l-.855 2.01a5.058 5.058 0 0 0 1.414.48c.176-.694.336-1.427.461-2.17-.008-.003-.017-.004-.025-.005a4.648 4.648 0 0 1-.996-.315"/><path fill="#4d4d4d" d="M35.388 12.034c.005.011.01.022.017.033l-.019-.034.002.001"/><path fill="#b6d1e2" fill-rule="evenodd" d="M39.253 31.46c.253 1.583 1.728 1.918 3.034.857-.942.056-2.396-.243-3.034-.856"/><path fill="#27679a" d="M35.751 27.4c-.11.29-.414.242-.403-.085.006-.197.043-.362.102-.497.169-.38.519-.531.915-.467.18.029.367.102.548.212.276.169.232.49-.102.421a1.312 1.312 0 0 0-.543 0c.049.043.096.092.14.146 2.085 2.538 4.744 4.182 9.266 3.604.429-.055.306.256.156.317-4.084 1.666-8.091-.305-9.849-3.783-.022-.045-.034-.089-.046-.127a.612.612 0 0 0-.184.258"/><path fill="#27679a" fill-rule="evenodd" d="M42.285 20.199c1.078 0 2.04 1.098 2.15 2.452.111 1.354-.672 2.452-1.75 2.452-1.077 0-2.04-1.098-2.15-2.452-.11-1.354.673-2.452 1.75-2.452"/><path fill="#fff" fill-rule="evenodd" d="M42.171 20.937c-.238-.13-.564.03-.728.362-.164.33-.104.705.134.836s.564-.03.728-.361c.164-.33.104-.705-.134-.837"/><path fill="#27679a" fill-rule="evenodd" d="M50.27 20.59c-.746 0-1.412.855-1.488 1.911-.077 1.056.466 1.912 1.21 1.912.745 0 1.411-.856 1.488-1.912.076-1.056-.466-1.911-1.21-1.911"/><path fill="#fff" fill-rule="evenodd" d="M50.06 21.223c-.139-.136-.387-.064-.554.162-.169.226-.193.52-.056.657.137.136.385.063.554-.162.168-.226.193-.52.055-.657"/></svg>