<svg xmlns="http://www.w3.org/2000/svg" role="img" viewBox="-20.80 -20.80 1081.60 458.60"><title>UPMC Enterprises (member) logo</title><g fill="#692469" fill-opacity="1" fill-rule="nonzero" stroke="none" transform="matrix(1.33333 0 0 -1.33333 0 417.173) scale(.1)"><path d="M4667.92 1995.4c78.19 0 150.1 13.6 215.83 40.79 65.68 27.19 129.14 75.88 190.31 146.14l76.46-118.95c-82.69-63.46-168.51-110.19-257.44-140.19-88.94-30-185.51-45.03-289.73-45.03-100.84 0-191.75 14.73-272.73 44.18-81 29.44-149.82 70.79-206.46 124.05-56.66 53.23-100.26 117.25-130.84 192.01-30.59 74.78-45.88 158.04-45.88 249.8 0 97.41 16.4 185.48 49.27 264.24 32.86 78.72 79.57 146.14 140.2 202.21 60.59 56.08 134.24 99.12 220.9 129.15 86.66 30 183.79 45.03 291.42 45.03 160.86 0 319.48-30.59 475.8-91.76v-254.89h-49.27c-22.68 83.82-72.5 144.99-149.53 183.52-77.06 38.5-171.08 57.77-282.09 57.77-64.57 0-123.77-9.34-177.58-28.04-53.81-18.69-100.55-47.31-140.18-85.81-39.67-38.52-70.53-87.24-92.62-146.14-22.09-58.92-33.14-128.59-33.14-209.01 0-92.91 11.62-174.17 34.84-243.84 23.21-69.68 55.49-128.04 96.86-175.03 41.35-47.02 90.62-82.15 147.83-105.36 57.21-23.24 119.81-34.84 187.77-34.84zm-2346.7-90.06v50.98c21.51 2.26 41.05 5.1 58.63 8.5 17.55 3.39 32.55 8.49 45.03 15.29 12.45 6.8 22.64 16.14 30.58 28.04 7.92 11.89 13.02 27.46 15.3 46.73l95.16 863.24c0 24.9-1.7 46.15-5.1 63.72-3.4 17.55-9.35 31.44-17.84 41.63-8.5 10.2-20.98 17.55-37.38 22.09-16.44 4.51-37.12 7.36-62.03 8.5v50.98h331.36l365.35-890.43 384.03 890.43h367.05v-50.98c-26.07-1.14-47.03-5.1-62.87-11.9-15.88-6.79-28.34-17.28-37.38-31.43-9.08-14.18-15.29-32.58-18.69-55.23-3.4-22.68-5.1-49.86-5.1-81.56 0-269.63 3.94-474.4 11.89-614.3 7.91-139.92 12.45-212.69 13.6-218.35 5.64-28.33 17.54-48.16 35.68-59.48 18.11-11.34 47.58-19.84 88.36-25.49v-50.98h-491.09v50.98c28.3 1.11 50.97 5.1 67.97 11.89 16.99 6.8 30 17.26 39.08 31.44 9.06 14.16 15.29 32.85 18.69 56.08 3.4 23.21 5.1 51.83 5.1 85.82 0 75.88-.3 146.13-.84 210.71-.59 64.57-1.16 126.59-1.7 186.07-.59 59.47-1.7 117.51-3.4 174.17-1.7 56.64-3.15 113.86-4.26 171.63l-414.62-978.79h-79.87l-394.23 902.32-73.07-701.8c-2.28-24.93-3.13-45.88-2.55-62.87.56-17 4.25-31.45 11.05-43.34 6.79-11.89 17.84-21.24 33.14-28.04 15.29-6.79 36.53-11.89 63.72-15.29v-50.98zm-567.56 577.76c5.66 0 11.6-.3 17.84-.85 6.21-.59 12.16-.85 17.85-.85 57.77 0 108.75 8.49 152.93 25.49 44.18 16.99 81.27 40.49 111.3 70.52 30.01 30 52.68 65.13 67.98 105.36 15.29 40.19 22.94 83.53 22.94 129.99 0 73.63-21.54 130.55-64.58 170.78-43.06 40.2-105.35 60.32-186.92 60.32-50.98 0-86.96-8.79-107.9-26.33-20.98-17.58-31.44-46.74-31.44-87.52zm-246.39 621.94h92.61c22.09 0 46.43.26 73.06.85 26.61.56 53.53.84 80.72.84 62.29 0 131.4.57 207.31 1.7 137.06 1.12 240.16-27.76 309.27-86.66 69.09-58.92 103.66-138.78 103.66-239.59-2.28-72.52-22.67-136.54-61.18-192.03-16.99-23.79-38.52-47.31-64.57-70.51-26.07-23.24-58.62-43.93-97.71-62.03-39.08-18.13-84.96-32.58-137.64-43.33-52.68-10.78-114.14-16.14-184.37-16.14h-74.77v-287.18c0-27.19 1.7-50.42 5.1-69.67 3.4-19.28 9.61-34.84 18.69-46.74 9.05-11.89 22.09-20.97 39.08-27.18 17-6.25 39.09-9.94 66.28-11.05v-50.98h-482.6v50.98c27.19 1.11 49.55 4.8 67.12 11.05 17.55 6.21 30.85 15.55 39.94 28.03 9.05 12.45 15.29 28.61 18.69 48.44 3.4 19.8 5.09 44.44 5.09 73.92v251.49l1.7-5.1v540.37c0 54.38-9.93 92.03-29.73 113.01-19.84 20.94-57.51 31.43-113.01 31.43h-71.37c-36.27-2.28-64.01-8.23-83.26-17.84-19.28-9.64-33.43-25.78-42.48-48.43-6.8-16.99-11.05-42.48-12.75-76.47-1.7-33.98-2.84-76.47-3.4-127.44-.58-50.98-.85-110.46-.85-178.43 0-67.97-1.7-144.44-5.09-229.4-6.8-168.82-51.27-293.13-133.4-373-82.144-79.86-207.043-119.79-374.691-119.79-168.813 0-299.071 42.48-390.832 127.44-91.758 84.97-137.645 210.71-137.645 377.24v506.39c0 30.59-.847 55.78-2.547 75.62-1.699 19.81-6.797 35.69-15.293 47.58-8.496 11.89-21.2418 20.95-38.234 27.19-16.9922 6.21-40.2227 11.04-69.67191 14.44v50.98H499.59v-50.98c-29.473-2.29-52.676-6.8-69.672-13.6-16.992-6.79-30.031-16.99-39.082-30.58-9.082-13.6-15.031-31.17-17.844-52.68-2.84-21.53-4.246-47.58-4.246-78.16v-513.19c0-130.29 24.637-229.14 73.922-296.52 49.273-67.42 128.293-101.12 237.043-101.12 58.894 0 113.004 9.35 162.285 28.04 49.277 18.69 91.473 46.74 126.598 84.12 23.789 24.91 42.186 52.68 55.226 83.27 13.01 30.58 22.64 64.57 28.89 101.95 6.21 37.39 10.19 78.43 11.89 123.2 1.7 44.74 2.55 93.72 2.55 146.99 0 138.2-.85 243.85-2.55 316.91-1.7 73.08-8.78 121.5-21.24 145.29-10.2 19.25-25.23 32.85-45.032 40.79-19.832 7.91-46.726 13-80.715 15.29v50.98h589.657"/><path d="M832.645 1565.04l10.199-276.98h-45.879c-13.598 81.56-45.324 137.9-95.164 169.07-49.863 31.14-124.629 46.73-224.305 46.73-38.527 0-80.449-1.7-125.75-5.1v-470.69c15.856-1.14 31.442-1.7 46.734-1.7h43.333c39.64 0 73.332 1.7 101.109 5.1 27.742 3.4 50.125 10.19 67.117 20.39 16.996 10.19 29.742 25.49 38.238 45.88 8.496 20.39 13.301 47.57 14.442 81.56h52.676V786.77h-52.676c-2.285 37.378-7.09 66.832-14.442 88.359-7.382 21.5-18.984 37.652-34.839 48.43-15.875 10.75-37.122 17.839-63.719 21.242-26.633 3.398-59.211 5.09-97.711 5.09h-46.731c-16.433 0-34.277-.582-53.531-1.692V570.961c0-54.379 12.457-92.051 37.391-113.012 24.902-20.98 70.785-31.429 137.64-31.429 101.957 0 179.536 18.691 232.801 56.07 53.235 37.39 87.781 101.379 103.652 192.019h50.985l-22.09-309.269H0v50.98c27.1875 1.11 49.5391 4.801 67.1172 11.051 17.5508 6.211 30.8555 15.551 39.9338 28.027 9.058 12.454 15.297 28.614 18.695 48.442 3.399 19.801 5.098 44.441 5.098 73.922v785.058c0 27.19-1.992 50.13-5.946 68.82-3.984 18.69-10.781 33.99-20.394 45.88-9.6368 11.9-22.9415 20.67-39.9337 26.34-16.9922 5.66-38.5273 9.06-64.5703 10.19v50.99h832.645"/><path d="M1474.97 365.34v50.98c38.5 1.11 63.99 8.762 76.47 22.942 12.45 14.148 18.69 39.359 18.69 75.617v353.453c0 45.289-10.54 79.566-31.62 102.797-21.08 23.223-51.01 34.841-89.72 34.841-26.23 0-53.58-6.521-82.04-19.54-28.49-13.039-59.82-32.02-93.99-56.93V519.98c0-39.671 6.5-66.851 19.54-81.57 13.01-14.738 37.65-22.09 73.92-22.09v-50.98H985.574v50.98c36.246 1.11 60.886 8.762 73.926 22.942 13 14.148 19.54 39.359 19.54 75.617v418.019c0 21.512-2.84 37.09-8.5 46.731-5.68 9.621-18.13 14.441-37.38 14.441-13.59 0-28.89-1.699-45.887-5.09v49.28l282.087 95.16.02-132.55c60.38 43.05 114.2 78.73 161.49 107.06 47.26 28.3 92.56 42.48 135.86 42.48 67.42 0 117.12-24.64 149.11-73.91 32-49.28 48.01-118.109 48.01-206.469v-356.84c0-36.269 5.94-60.91 17.84-73.929 11.9-13.043 35.39-20.68 70.52-22.942v-50.98h-377.24"/><path d="M2394.28 474.09l-1.7-1.699c-49.86-35.121-94.89-64.301-135.09-87.512-40.22-23.199-78.46-34.828-114.7-34.828-32.87 0-61.76 8.5-86.66 25.488-21.54 14.711-41.08 38.231-58.63 70.52-17.57 32.281-26.34 79.023-26.34 140.191v457.11h-130.84v49.28l324.56 266.79v-227.71h249.8l-27.19-88.36h-222.61V584.551c0-63.449 19.25-98.559 57.78-105.36 9.05-2.269 15.85-3.402 20.39-3.402 15.85 0 32.84 5.102 50.98 15.301 18.1 10.199 39.64 24.351 64.57 42.492l8.49-13.602 27.19-45.89"/><path d="M2644.06 839.449h290.58c1.12 12.449 1.7 23.781 1.7 33.981v22.09c0 64.57-12.75 110.72-38.23 138.5-25.49 27.74-60.91 41.63-106.21 41.63-45.32 0-81.3-18.14-107.91-54.38-26.63-36.27-39.93-95.161-39.93-176.731zm486-411.238c-43.07-28.332-86.96-48.422-131.7-60.32-44.76-11.891-93.19-17.84-145.28-17.84-134.83 0-238.49 35.39-310.98 106.199-72.51 70.789-108.75 166.238-108.75 286.332 0 62.289 10.19 118.367 30.59 168.227 20.39 49.839 47.58 92.611 81.56 128.301 33.99 35.69 73.07 63.14 117.25 82.42 44.19 19.24 90.07 28.88 137.65 28.88 105.35 0 187.48-29.47 246.39-88.36 58.89-58.91 88.37-141.628 88.37-248.089v-44.18h-489.4c7.91-121.242 35.4-209.312 82.42-264.242 46.99-54.957 107.9-82.418 182.67-82.418 37.38 0 69.38 5.649 96.01 16.988 26.6 11.321 51.83 32.282 75.62 62.879l47.58-74.777"/><path d="M3221.81 365.34v50.98c36.24 1.11 60.88 8.762 73.92 22.942 13.01 14.148 19.54 39.359 19.54 75.617v418.019c0 21.512-2.84 37.09-8.5 46.731-5.68 9.621-18.13 14.441-37.38 14.441-13.59 0-28.89-1.699-45.88-5.09v50.98l282.07 93.46 3.4-200.522c37.38 71.372 75.04 125.462 113.01 162.292 37.95 36.79 79.57 55.22 124.9 55.22 14.71 0 35.1-5.1 61.17-15.29v-249.8h-37.38c-7.95 23.789-22.09 40.789-42.48 50.981-20.39 10.199-43.07 15.289-67.97 15.289-29.47 0-56.37-9.078-80.72-27.18-24.38-18.14-47.87-45.328-70.53-81.57V519.98c0-39.671 6.5-66.851 19.55-81.57 13.01-14.738 37.66-22.09 73.93-22.09v-50.98h-380.65"/><path d="M4297.46 419.719c67.96 0 121.49 22.351 160.58 67.121 39.08 44.742 58.63 111.308 58.63 199.672 0 50.968-6.54 96.859-19.55 137.636-13.03 40.782-30.58 75.622-52.68 104.5-22.09 28.891-48.43 50.981-79.02 66.274-30.58 15.308-63.45 22.948-98.55 22.948-43.07 0-86.67-15.3-130.85-45.89V482.59c26.05-21.531 51.83-37.379 77.32-47.578 25.49-10.192 53.53-15.293 84.12-15.293zM3848.84 0v50.9805c36.24 1.1406 60.88 8.2304 73.92 21.2383 13.02 13.0429 19.55 35.9802 19.55 68.8202v790.16c0 41.91-16.44 62.871-49.29 62.871-9.08 0-23.79-1.699-44.18-5.09v49.28l283.78 95.16v-83.26c45.3 27.19 88.08 50.68 128.3 70.52 40.2 19.8 79.02 29.73 116.4 29.73 48.7 0 93.47-9.34 134.25-28.04 40.78-18.69 75.61-44.47 104.5-77.31 28.89-32.87 51.25-72.521 67.12-118.951 15.86-46.468 23.79-96.859 23.79-151.238 0-62.32-9.92-119.539-29.74-171.633-19.83-52.117-47.87-96.847-84.11-134.238-36.27-37.391-79.6-66.57-129.99-87.512-50.43-20.949-106.21-31.437-167.38-31.437-26.08 0-52.42 2.289-79.02 6.801-26.63 4.539-53.53 10.75-80.72 18.687v-234.5c0-32.84 6.5-55.7773 19.54-68.8202 13.02-13.0079 37.66-20.0977 73.93-21.2383V0h-380.65"/><path d="M4764.74 365.34v50.98c36.24 1.11 60.88 8.762 73.92 22.942 13.01 14.148 19.55 39.359 19.55 75.617v418.019c0 21.512-2.84 37.09-8.51 46.731-5.67 9.621-18.12 14.441-37.38 14.441-13.59 0-28.89-1.699-45.88-5.09v50.98l282.08 93.46 3.4-200.522c37.38 71.372 75.04 125.462 113.01 162.292 37.94 36.79 79.57 55.22 124.89 55.22 14.71 0 35.11-5.1 61.17-15.29v-249.8h-37.38c-7.94 23.789-22.09 40.789-42.48 50.981-20.39 10.199-43.07 15.289-67.97 15.289-29.47 0-56.37-9.078-80.71-27.18-24.38-18.14-47.88-45.328-70.53-81.57V519.98c0-39.671 6.5-66.851 19.54-81.57 13.02-14.738 37.66-22.09 73.93-22.09v-50.98h-380.65"/><path d="M5587.19 1522.55c32.84 0 60.32-11.04 82.41-33.13 22.09-22.09 33.14-49.57 33.14-82.42 0-32.87-11.63-60.32-34.83-82.41-23.24-22.09-50.13-33.13-80.72-33.13-14.73 0-29.18 3.1-43.33 9.34-14.18 6.21-26.63 14.71-37.38 25.49-10.78 10.75-19.28 23.2-25.5 37.38-6.23 14.15-9.34 28.6-9.34 43.33 0 30.59 11.31 57.48 33.99 80.72 22.65 23.21 49.83 34.83 81.56 34.83zm100.26-389.13l3.39-613.44c0-38.519 6.51-65.429 19.55-80.718 13.01-15.293 37.65-22.942 73.92-22.942v-50.98h-380.64v50.98c36.24 1.11 60.88 8.762 73.91 22.942 13.02 14.148 19.55 39.359 19.55 75.617v418.019c0 21.512-2.84 37.09-8.5 46.731-5.68 9.621-18.13 14.441-37.38 14.441-13.6 0-28.89-1.699-45.88-5.09v49.28l282.08 95.16"/><path d="M5848.87 591.352h52.68c9.06-63.461 30.3-108.762 63.73-135.954 33.4-27.187 77.31-40.777 131.69-40.777 44.18 0 80.13 8.5 107.91 25.488 27.74 16.993 41.63 41.352 41.63 73.082 0 20.391-3.99 37.09-11.9 50.118-7.94 13.011-18.98 24.64-33.13 34.839-14.18 10.192-31.73 20.09-52.69 29.731-20.96 9.609-45.03 21.242-72.21 34.84-37.39 19.242-69.67 38.23-96.86 56.922-27.19 18.691-49.86 38.238-67.97 58.629-18.13 20.39-31.74 42.48-40.79 66.269-9.07 23.793-13.59 50.391-13.59 79.871 0 67.961 24.64 122.61 73.92 163.98 49.28 41.34 116.96 62.02 203.06 62.02 35.11 0 70.79-3.13 107.06-9.34 36.24-6.24 73.62-15.03 112.15-26.34l6.8-198.82h-42.48c-13.6 62.289-34.84 105.92-63.72 130.85-28.89 24.9-67.12 37.38-114.71 37.38-39.67 0-71.37-7.64-95.16-22.94-23.79-15.29-35.68-38.82-35.68-70.52 0-20.391 3.66-36.828 11.04-49.282 7.36-12.476 18.4-23.789 33.14-33.988 14.71-10.191 32.84-20.39 54.37-30.578 21.52-10.203 46.45-23.793 74.78-40.781 32.84-19.281 61.73-37.121 86.66-53.531 24.9-16.43 45.88-34.282 62.87-53.528 16.99-19.273 30-40.523 39.08-63.722 9.05-23.239 13.6-50.719 13.6-82.418 0-74.762-26.64-132.27-79.87-172.481-53.26-40.223-132.54-60.32-237.9-60.32-36.27 0-73.36 4.25-111.3 12.738-37.97 8.5-73.92 20.66-107.91 36.543l1.7 192.02"/><path d="M6684.92 839.449h290.57c1.12 12.449 1.7 23.781 1.7 33.981v22.09c0 64.57-12.74 110.72-38.23 138.5-25.49 27.74-60.91 41.63-106.2 41.63-45.32 0-81.31-18.14-107.91-54.38-26.63-36.27-39.93-95.161-39.93-176.731zm485.99-411.238c-43.06-28.332-86.95-48.422-131.7-60.32-44.76-11.891-93.19-17.84-145.28-17.84-134.83 0-238.49 35.39-310.97 106.199-72.52 70.789-108.76 166.238-108.76 286.332 0 62.289 10.2 118.367 30.59 168.227 20.39 49.839 47.59 92.611 81.57 128.301 33.99 35.69 73.07 63.14 117.25 82.42 44.18 19.24 90.06 28.88 137.64 28.88 105.36 0 187.48-29.47 246.4-88.36 58.89-58.91 88.36-141.628 88.36-248.089v-44.18h-489.39c7.91-121.242 35.39-209.312 82.41-264.242 47-54.957 107.91-82.418 182.67-82.418 37.39 0 69.38 5.649 96.01 16.988 26.61 11.321 51.84 32.282 75.62 62.879l47.58-74.777"/><path d="M7267.76 591.352h52.67c9.07-63.461 30.31-108.762 63.74-135.954 33.39-27.187 77.31-40.777 131.68-40.777 44.18 0 80.14 8.5 107.91 25.488 27.75 16.993 41.64 41.352 41.64 73.082 0 20.391-3.99 37.09-11.9 50.118-7.94 13.011-18.98 24.64-33.13 34.839-14.18 10.192-31.73 20.09-52.69 29.731-20.97 9.609-45.03 21.242-72.22 34.84-37.38 19.242-69.66 38.23-96.85 56.922-27.19 18.691-49.86 38.238-67.97 58.629-18.14 20.39-31.74 42.48-40.79 66.269-9.07 23.793-13.6 50.391-13.6 79.871 0 67.961 24.64 122.61 73.93 163.98 49.28 41.34 116.95 62.02 203.06 62.02 35.1 0 70.79-3.13 107.06-9.34 36.24-6.24 73.62-15.03 112.15-26.34l6.79-198.82h-42.48c-13.59 62.289-34.83 105.92-63.72 130.85-28.88 24.9-67.12 37.38-114.71 37.38-39.66 0-71.36-7.64-95.15-22.94-23.79-15.29-35.68-38.82-35.68-70.52 0-20.391 3.66-36.828 11.04-49.282 7.35-12.476 18.4-23.789 33.13-33.988 14.71-10.191 32.85-20.39 54.38-30.578 21.51-10.203 46.45-23.793 74.78-40.781 32.84-19.281 61.72-37.121 86.66-53.531 24.9-16.43 45.87-34.282 62.87-53.528 16.99-19.273 30-40.523 39.08-63.722 9.05-23.239 13.59-50.719 13.59-82.418 0-74.762-26.63-132.27-79.86-172.481-53.26-40.223-132.54-60.32-237.9-60.32-36.27 0-73.36 4.25-111.3 12.738-37.97 8.5-73.93 20.66-107.91 36.543l1.7 192.02"/></g></svg>