<svg xmlns="http://www.w3.org/2000/svg" role="img" viewBox="-113.30 -108.30 5631.60 2181.60"><title>Uturn Data Solutions (member) logo</title><style>svg {shape-rendering:geometricPrecision;text-rendering:geometricPrecision;image-rendering:optimizeQuality;fill-rule:evenodd;clip-rule:evenodd}</style><path fill="#8cc1de" d="M1066.5-.5h14c143.86 4.83683 236.36 76.1702 277.5 214 6.35 24.746 11.18 49.746 14.5 75 129.5 34.085 195.83 118.252 199 252.5-.95 84.221-33.95 152.555-99 205-26.24 19.445-55.57 31.778-88 37-30.97 1.816-61.97 2.983-93 3.5v-93c22.01.008 44.01-.492 66-1.5 20.61.017 39.28-5.983 56-18 36.15-27.102 57.32-63.269 63.5-108.5 9.54-109.769-39.96-173.269-148.5-190.5-16.38-.629-32.71-1.463-49-2.5-.33-2.667-.67-5.333-1-8 7.28-63.193-3.22-123.193-31.5-180-30.08-52.156-75.24-81.989-135.5-89.5-40.72-5.9689-80.38-1.9689-119 12-44.188 19.188-77.022 50.354-98.5 93.5-9.304 18.577-16.637 37.91-22 58-3.728 21.372-7.562 42.705-11.5 64a2160.5126 2160.5126 0 0 0-58-22.5c-34.243-9.847-67.243-6.847-99 9-27.783 17.018-43.95 41.851-48.5 74.5-2.373 15.25-3.039 30.584-2 46 1.986 17.378 4.153 34.711 6.5 52-1 .333-2 .667-3 1-26.89-3.658-53.89-5.158-81-4.5-27.217 1.961-52.217 10.294-75 25-23.218 19.268-35.718 44.102-37.5 74.5-1.686 41.464 15.147 72.964 50.5 94.5 18.245 10.748 37.911 17.082 59 19 122.33 1.305 244.663 2.138 367 2.5v93c-120.996-1.002-241.996-1.835-363-2.5-59.506-2.85-110.673-24.683-153.5-65.5-47.716-52.524-63.382-113.524-47-183 17.487-66.817 58.654-111.984 123.5-135.5 20.158-6.865 40.825-11.365 62-13.5 9.114-92.593 58.114-152.093 147-178.5 27.738-6.48 55.738-7.98 84-4.5 23.827-71.642 67.827-127.1425 132-166.5 44.386-24.095 91.72-36.59497 142-37.5z" opacity=".99"/><path fill="#176dab" d="M651.5 1967.5h-73c-123.838-6.22-237.171-43.72-340-112.5-91.391-65.89-156.8913-151.72-196.5-257.5-25.9232-68.45-40.08989-139.12-42.5-212v-959c1.45982-13.3 8.79316-21.466 22-24.5 50-.667 100-.667 150 0 11.279 2.945 18.112 10.112 20.5 21.5.333 313.333.667 626.67 1 940-1.603 123.22 41.231 227.72 128.5 313.5 67.738 59.69 146.738 95.35 237 107 148.203 15.74 270.37-32.76 366.5-145.5 50.212-60.91 79.21-130.91 87-210 2-18.62 3.33-37.29 4-56 .5-246 .67-492 .5-738-20.379.44-40.712-.06-61-1.5-13.682-6.364-18.515-16.864-14.5-31.5 51.274-78.271 102.94-156.271 155-234 13.27-11.175 25.94-10.509 38 2l153 231c5.15 18.144-1.35 29.311-19.5 33.5-18.33.5-36.66.667-55 .5-.47 261.345-1.97 522.68-4.5 784-12.71 168.25-81.88 307.75-207.5 418.5-101.855 81.24-218.188 124.74-349 130.5z" opacity=".994"/><path fill="#176dab" d="M1792.5 490.5c48.67-.167 97.33 0 146 .5 11.27 2.937 18.1 10.103 20.5 21.5.33 90.667.67 181.333 1 272 2.94 9.943 9.44 16.109 19.5 18.5 99.33.333 198.67.667 298 1 11.83 2.5 19 9.667 21.5 21.5.67 36.667.67 73.333 0 110-1.86 10.192-7.69 17.025-17.5 20.5-101.3 1.32-202.64 1.987-304 2-8.9 3.235-14.73 9.402-17.5 18.5-.4 206.67-.74 413.34-1 620-1.51 41.46 8.49 79.79 30 115 21.07 28.14 48.57 47.31 82.5 57.5 26.46 7.52 53.46 11.52 81 12 43.18 1.53 86.18-.64 129-6.5 13.47.97 21.97 7.97 25.5 21 .67 40.33.67 80.67 0 121-2.23 9.24-7.73 15.74-16.5 19.5-46.51 9.4-93.51 13.9-141 13.5-39.22.11-78.22-2.72-117-8.5-130.15-23.15-211.98-98.65-245.5-226.5-7.62-34.92-11.95-70.26-13-106-.97-211.7-1.97-423.37-3-635-3.33-7.993-9.16-13.159-17.5-15.5-62.33-.333-124.67-.667-187-1-11.1-1.769-18.6-7.935-22.5-18.5-.67-38.667-.67-77.333 0-116 2.4-8.737 7.9-14.571 16.5-17.5 63.96-1.319 127.96-1.986 192-2 10.5-2.5 17-9 19.5-19.5.33-90.667.67-181.333 1-272 2.91-10.411 9.41-17.411 19.5-21z" opacity=".994"/><path fill="#176dab" d="M4092.5 772.5c51.96-3.171 102.96 2.329 153 16.5 12.47 1.811 20.64 8.644 24.5 20.5.67 45 .67 90 0 135-3.86 12.193-12.2 18.86-25 20-72.59-19.542-145.75-22.042-219.5-7.5-93.44 21.797-161.94 75.3-205.5 160.5-14.48 32.25-24.15 65.92-29 101-6.21 49.13-9.04 98.46-8.5 148 3.01 182 5.51 364 7.5 546-3.5 11.17-11 17.67-22.5 19.5-47.33.67-94.67.67-142 0-13.83-1.83-21.67-9.67-23.5-23.5-2.57-357.51-5.41-715.01-8.5-1072.5-1.14-10.708 2.19-19.708 10-27 3.57-2.637 7.57-4.303 12-5 43.05-.978 86.05-.645 129 1 8.85 3.197 14.35 9.363 16.5 18.5.05 25.374.71 50.708 2 76 8.57 17.189 21.4 21.356 38.5 12.5 78.24-85.119 175.24-131.619 291-139.5z" opacity=".995"/><path fill="#176dab" d="M5410.5 1323.5v585c-2.16 13.65-10.16 21.49-24 23.5-47.33.67-94.67.67-142 0-11.5-1.83-19-8.33-22.5-19.5-.04-197.01-.71-394.01-2-591-1.29-56.33-9.29-111.66-24-166-35.2-114.53-112.03-181.359-230.5-200.5-74.62-11.73-144.96.603-211 37-57.59 36.44-97.25 87.1-119 152-16.02 52.97-24.86 107.14-26.5 162.5-1.09 30.99-1.75 61.99-2 93-.33 171.33-.67 342.67-1 514-3.83 10.51-11.33 16.68-22.5 18.5-46.67.67-93.33.67-140 0-11.5-1.83-19-8.33-22.5-19.5-3.22-344.66-6.06-689.33-8.5-1034-.14-19.716.36-39.382 1.5-59 3.89-8.371 10.39-13.537 19.5-15.5 43.67-.667 87.33-.667 131 0 10.19 1.856 17.03 7.689 20.5 17.5.97 23.361 1.97 46.694 3 70 6.55 13.298 17.05 18.131 31.5 14.5l6-3c60.44-64.228 134.44-103.895 222-119 69.63-11.946 139.3-12.279 209-1 108.26 20.055 195.1 73.888 260.5 161.5 38.61 57.78 63.94 121.12 76 190 10.97 62.67 16.8 125.67 17.5 189z" opacity=".995"/><path fill="#176dab" d="M2464.5 803.5c48.67-.167 97.33 0 146 .5 10.62 1.951 17.45 8.118 20.5 18.5.33 178 .67 356 1 534-.67 62.93 4.99 125.26 17 187 35.75 156.89 134.25 236.89 295.5 240 93.75 1.7 169.92-33.64 228.5-106 35.81-50.32 57.81-106.32 66-168 4.27-30.85 6.6-61.85 7-93 .33-197.67.67-395.33 1-593 3.25-10.247 10.08-16.747 20.5-19.5 48.67-.667 97.33-.667 146 0 12.72 2.721 19.89 10.555 21.5 23.5 2.62 356.5 5.45 713 8.5 1069.5 1.51 11.16-1.49 20.83-9 29-4.44 3.37-9.44 5.37-15 6-40.33.67-80.67.67-121 0-11.5-1.83-19-8.33-22.5-19.5-.33-20-.67-40-1-60-5.29-18.39-17.12-24.89-35.5-19.5-9.6 7.6-18.6 15.93-27 25-70.34 59.14-151.68 92.48-244 100-72.89 7.96-144.56 1.96-215-18-131.4-45.07-220.9-132.9-268.5-263.5-18.78-55.55-30.78-112.55-36-171-2.49-25.95-4.15-51.95-5-78-.67-201.67-.67-403.33 0-605 3.22-10.34 10.05-16.673 20.5-19z" opacity=".996"/></svg>