<svg xmlns="http://www.w3.org/2000/svg" role="img" viewBox="186.42 431.92 420.16 145.41"><title>UWS (member) logo</title><defs><clipPath id="a" clipPathUnits="userSpaceOnUse"><path d="M0 841.89h595.28V0H0z"/></clipPath></defs><g clip-path="url(#a)" transform="matrix(1.33333 0 0 -1.33333 0 1122.52)"><path fill="#f08300" fill-opacity="1" fill-rule="nonzero" stroke="none" d="M223.282 510.271c-1.756-.357-2.983-.457-3.297-.471-.457 0-1.285.057-2.784.442-.799.2-1.627.015-2.27-.471-.642-.5-1.027-1.27-1.027-2.083v-48.261c0-22.324-8.293-33.172-25.379-33.172-9.663 0-16.458 2.569-20.654 7.693-3.476 4.968-5.232 13.018-5.232 23.923v49.817c0 .756-.328 1.469-.899 1.969-.557.514-1.299.742-2.07.643-2.769-.358-4.567-.457-5.438-.5-.4 0-2.269.057-5.267.5-.757.099-1.527-.114-2.113-.614-.57-.514-.913-1.242-.913-1.998v-51.901c0-14.573 3.34-24.722 10.192-31.003 7.222-6.651 17.25-10.034 29.797-10.034 11.704 0 21.838 3.654 29.375 10.634 7.293 7.28 11.148 17.971 11.148 30.917v51.387c0 .785-.357 1.541-.971 2.041-.614.499-1.413.685-2.198.542"/><path fill="#f08300" fill-opacity="1" fill-rule="nonzero" stroke="none" d="M397.024 467.592c-3.341 1.285-6.566 2.698-9.778 4.125-3.269 1.428-6.537 2.869-9.62 4.025-6.052 3.269-8.994 7.609-8.994 13.261 0 3.454 1.272 6.409 3.727 8.864 2.883 2.413 5.98 3.54 9.72 3.54 6.352 0 10.819-3.211 13.66-9.806.414-.971 1.37-1.599 2.413-1.599h1.041c1.171 0 2.198.771 2.527 1.884 1.084 3.598 2.169 6.424 2.883 8.308.315.842.571 1.499.729 1.984.341.999.042 2.112-.743 2.811-5.082 4.497-11.976 6.881-19.926 6.881-8.878 0-16.23-2.284-21.768-6.723-6.48-4.71-9.906-11.734-9.906-20.298 0-9.278 4.11-16.343 12.347-21.039 6.637-3.312 13.332-6.381 19.198-8.822 6.081-3.04 8.921-7.237 8.921-13.203 0-3.054-.771-7.465-4.568-11.262-2.712-3.183-6.223-4.782-10.448-4.782-7.565 0-13.632 3.897-19.056 12.276-.485.756-1.313 1.213-2.212 1.213h-1.043c-1.341 0-2.468-1.013-2.611-2.355-.5-4.568-1.542-8.051-2.484-10.848-.314-.956-.072-1.998.642-2.712 2.727-2.727 6.395-4.868 11.077-6.395l1.156-.3c3.74-.957 7.28-1.87 10.906-1.87 9.663 0 17.999 2.941 24.094 8.493 6.765 6.181 10.191 14.174 10.191 23.738 0 8.664-4.025 15.715-12.075 20.611"/><path fill="#f08300" fill-opacity="1" fill-rule="nonzero" stroke="none" d="M358.027 506.603c.386.871.286 1.898-.299 2.669-.571.771-1.527 1.156-2.484 1.028-2.612-.385-4.097-.485-4.468-.5-.499-.157-1.556.057-4.067.486-1.342.242-2.57-.557-2.955-1.828l-18.143-59.622-.941-2.883c-.671-2.041-1.342-4.125-2.084-6.166l-10.72 32.545c-5.382 16.271-9.364 28.362-11.862 36.155-.4 1.285-1.713 2.07-3.04 1.784-1.756-.356-2.984-.456-3.297-.471-.515 0-1.456.072-3.426.471-1.342.257-2.741-.57-3.083-1.941-2.042-8.15-10.092-32.23-22.767-68.129l-8.993 28.277-7.765 25.835c-.642 2.598-1.299 4.939-1.87 7.009-.785 2.769-1.413 5.038-1.713 6.794-.228 1.384-1.527 2.327-2.897 2.184-4.254-.471-5.795-.5-5.924-.5-.099 0-2.027.015-5.324.5-.928.128-1.813-.214-2.398-.914-.585-.685-.771-1.641-.5-2.498l22.867-71.697c2.655-7.466 4.182-13.218 5.11-16.887.3-1.184 1.37-1.998 2.555-1.998.143 0 .3.015.443.043 2.469.414 3.497.471 4.025.485h.014c.343-.028 1.713-.114 3.897-.485 1.27-.2 2.512.528 2.94 1.741l22.853 66.674c6.994-21.982 12.747-39.724 17.214-53.584l4.225-13.047c.4-1.241 1.656-1.984 2.94-1.784 2.57.428 3.583.485 3.712.485.128 0 1.541-.028 4.253-.485 1.271-.214 2.513.528 2.927 1.756l24.365 72.069c2.141 5.909 4.197 10.976 6.68 16.429"/><path fill="#f08300" fill-opacity="1" fill-rule="nonzero" stroke="none" d="M448.339 428.781c-.386 3.397-.828 7.465-1.499 12.161-.1.729-.728 1.256-1.456 1.256h-.528c-.528 0-1.028-.285-1.285-.756-1.426-2.64-2.754-4.939-3.924-6.966-.743-1.299-1.428-2.469-2.028-3.554-.414.785-.842 1.613-1.313 2.498-1.256 2.383-2.697 5.096-4.14 7.979-.242.5-.756.799-1.312.799h-1.042c-.4 0-.771-.156-1.029-.428-.27.272-.628.428-1.042.428h-12.974c-.8 0-1.456-.656-1.456-1.456v-1.556c0-.456.2-.87.556-1.155.358-.271.828-.372 1.256-.271 1.414.356 2.57.442 3.898.47v-14.616c0-.813.656-1.471 1.456-1.471h2.069c.814 0 1.47.658 1.47 1.471v14.602c1.128-.029 2.355-.114 3.269-.428.299-.086.614-.086.899 0-.199-2.084-.571-4.625-.985-7.566-.285-1.955-.599-4.096-.899-6.422-.057-.415.071-.843.343-1.157.285-.314.685-.5 1.098-.5h1.556c.814 0 1.471.658 1.471 1.471 0 1.527 0 2.969.513 5.709 0 .843.058 1.685.129 2.498 1.884-3.383 2.555-5.024 2.869-5.852l1.556-2.584c.528-.884 1.97-.884 2.498 0 .943 1.542 2.056 3.655 3.454 6.31.358.656.714 1.341 1.1 2.069.028-.585.07-1.227.113-1.898.101-1.799.215-3.911.401-6.366.056-.757.699-1.357 1.455-1.357h2.598c.428 0 .827.186 1.099.5.285.314.414.742.357 1.157-.185 1.469-.371 3.126-.571 4.981"/></g></svg>