<svg xmlns="http://www.w3.org/2000/svg" role="img" viewBox="101.02 100.02 804.96 585.46"><title>VMware Application Catalog logo</title><defs><clipPath id="a" clipPathUnits="userSpaceOnUse"><path d="M0 589.051h755.395V0H0z"/></clipPath><clipPath id="b" clipPathUnits="userSpaceOnUse"><path d="M0 589.051h755.395V0H0z"/></clipPath></defs><g transform="matrix(1.33333 0 0 -1.33333 0 785.401)"><path fill="#000" fill-opacity="1" fill-rule="nonzero" stroke="none" d="M668.119 321.127H87.722v5.562h580.397z"/><g clip-path="url(#a)"><path fill="#000" fill-opacity="1" fill-rule="nonzero" stroke="none" d="M338.085 420.664l-24.767 70.534c-.319.979-.793 2.262-.793 3.386 0 3.061 2.531 5.964 6.14 5.964 3.158 0 5.215-2.093 6.173-5.153l20.52-60.78 20.663 60.949c.946 2.891 2.839 4.984 5.986 4.984h.638c3.323 0 5.369-2.093 6.315-4.984l20.499-60.949 20.85 61.095c.792 2.588 2.519 4.838 5.842 4.838 3.466 0 5.997-2.734 5.997-5.806 0-1.125-.484-2.407-.792-3.387l-24.933-70.691c-1.276-3.69-3.785-5.626-6.634-5.626h-.462c-3.169 0-5.535 1.936-6.646 5.626l-20.344 59.935-20.521-59.935c-1.1-3.69-3.476-5.626-6.623-5.626h-.33c-2.993 0-5.513 1.936-6.778 5.626"/><path fill="#000" fill-opacity="1" fill-rule="nonzero" stroke="none" d="M518.648 494.399c0 3.397 2.685 6.312 5.997 6.312 3.487 0 6.172-2.746 6.172-6.312v-14.312c6.008 13.907 19.31 20.466 28.134 20.466 3.653 0 6.019-2.757 6.019-6.3 0-3.398-2.212-5.818-5.392-6.313-15.811-1.935-28.761-14.064-28.761-38.153v-28.341c0-3.398-2.531-6.29-6.007-6.29-3.477 0-6.162 2.756-6.162 6.29z"/><path fill="#000" fill-opacity="1" fill-rule="nonzero" stroke="none" d="M627.72 462.204c-1.243 15.043-9.616 28.15-25.56 28.15-13.94 0-24.481-11.982-25.999-28.15zm-23.7-47.841c-21.995 0-39.962 17.44-39.962 43.037v.337c0 23.819 16.262 43.025 38.41 43.025 23.69 0 37.179-19.983 37.179-41.911 0-3.376-2.652-5.772-5.578-5.772h-57.908c1.683-17.912 13.907-27.993 28.178-27.993 9.913 0 17.175 4.005 23.073 9.609.924.787 2.013 1.428 3.411 1.428 2.937 0 5.259-2.408 5.259-5.288 0-1.429-.616-2.88-1.859-3.983-7.581-7.516-16.571-12.489-30.203-12.489"/><path fill="#000" fill-opacity="1" fill-rule="nonzero" stroke="none" d="M492.414 446.711v8.055c-5.997 1.778-14.04 3.556-23.964 3.556-15.272 0-23.799-6.773-23.799-17.237v-.327c0-10.474 9.462-16.595 20.498-16.595 14.964 0 27.265 9.35 27.265 22.548m-60.053-6.448v.327c0 17.563 14.193 26.925 34.824 26.925 10.408 0 17.813-1.452 25.086-3.556v2.903c0 14.987-9.011 22.727-24.283 22.727-8.208 0-12.973-1.069-18.969-3.791-.781-.338-1.574-.495-2.201-.495-2.827 0-5.358 2.418-5.358 5.321 0 2.566 1.089 4.163 3.312 5.165 8.021 3.555 14.072 4.748 24.47 4.748 11.498 0 20.333-3.05 26.308-9.181 5.523-5.649 8.362-13.704 8.362-24.336v-45.985c0-3.532-2.52-6.121-5.854-6.121-3.443 0-5.787 2.589-5.787 5.806v7.944c-5.689-7.584-15.151-14.346-29.466-14.346-15.139 0-30.444 8.867-30.444 25.945"/><path fill="#000" fill-opacity="1" fill-rule="nonzero" stroke="none" d="M117.304 495.318c-2.674 5.985-9.264 8.697-15.426 5.896-6.162-2.802-8.439-9.801-5.644-15.786l25.856-57.483c4.071-9.012 8.351-13.726 16.394-13.726 8.605 0 12.345 5.141 16.405 13.726 0 0 22.556 50.225 22.787 50.754.231.529.958 2.15 3.246 2.138 1.948-.022 3.576-1.597 3.576-3.712v-49.124c0-7.572 4.104-13.782 12.004-13.782 7.9 0 12.169 6.21 12.169 13.782v40.19c0 7.741 5.425 12.77 12.829 12.77 7.405 0 12.335-5.198 12.335-12.77v-40.19c0-7.572 4.115-13.782 12.004-13.782 7.889 0 12.18 6.21 12.18 13.782v40.19c0 7.741 5.413 12.77 12.818 12.77 7.394 0 12.334-5.198 12.334-12.77v-40.19c0-7.572 4.115-13.782 12.015-13.782 7.878 0 12.169 6.21 12.169 13.782v45.737c0 16.809-13.214 28.589-29.124 28.589-15.888 0-25.846-11.24-25.846-11.24-5.281 7.009-12.576 11.229-24.91 11.229-13.027 0-24.415-11.229-24.415-11.229-5.293 7.009-14.304 11.229-21.764 11.229-11.542 0-20.707-5.187-26.296-18.261l-16.516-39.807z"/><path fill="#000" fill-opacity="1" fill-rule="nonzero" stroke="none" d="M658.853 490.406v.034c0 4.612-3.499 8.415-8.153 8.415-4.61 0-8.164-3.859-8.164-8.449v-.056c0-4.614 3.51-8.405 8.164-8.405 4.61 0 8.153 3.859 8.153 8.461m-18.221-.068v.068c0 5.626 4.456 10.362 10.068 10.362 5.688 0 10.089-4.692 10.089-10.317v-.045c0-5.648-4.456-10.385-10.089-10.385-5.689 0-10.068 4.68-10.068 10.317"/><path fill="#000" fill-opacity="1" fill-rule="nonzero" stroke="none" d="M651.18 490.736c1.045 0 1.628.562 1.628 1.406v.034c0 .934-.627 1.428-1.672 1.428h-2.135v-2.868zm-4.335 3.746c0 .619.484 1.103 1.089 1.103h3.367c1.254 0 2.234-.36 2.85-1.024.55-.551.847-1.339.847-2.273v-.034c0-1.563-.77-2.531-1.948-3.026l1.486-1.856c.209-.282.341-.507.341-.844 0-.608-.495-1.013-1.012-1.013-.484 0-.804.248-1.057.563l-2.09 2.711h-1.717v-2.182c0-.608-.462-1.092-1.067-1.092s-1.089.484-1.089 1.092z"/></g><path fill="#000" fill-opacity="1" fill-rule="nonzero" stroke="none" d="M221.55 198.219l-10.36 24.124-10.36-24.124zm2.812-6.512h-26.344l-4.514-10.582h-8.288l21.83 50.838h8.288l21.83-50.838h-8.289z"/><g clip-path="url(#b)"><path fill="#000" fill-opacity="1" fill-rule="nonzero" stroke="none" d="M268.36 188.34c1.825 1.159 3.244 2.787 4.256 4.884 1.01 2.096 1.517 4.452 1.517 7.067 0 2.614-.507 4.958-1.517 7.03-1.012 2.072-2.431 3.687-4.256 4.847-1.825 1.158-3.873 1.739-6.141 1.739-2.27 0-4.304-.581-6.105-1.739-1.802-1.16-3.207-2.775-4.219-4.847-1.012-2.072-1.516-4.416-1.516-7.03 0-2.615.504-4.971 1.516-7.067 1.012-2.097 2.417-3.725 4.219-4.884 1.801-1.159 3.835-1.739 6.105-1.739 2.268 0 4.316.58 6.141 1.739m4.589 29.378c2.664-1.702 4.761-4.069 6.29-7.104 1.528-3.034 2.294-6.475 2.294-10.323 0-3.847-.766-7.302-2.294-10.36-1.529-3.06-3.626-5.439-6.29-7.141s-5.674-2.553-9.028-2.553c-2.862 0-5.465.655-7.807 1.961-2.344 1.307-4.256 3.145-5.735 5.513v-19.313h-7.326v50.985h7.326v-6.512c1.528 2.319 3.452 4.131 5.772 5.439 2.318 1.306 4.908 1.962 7.77 1.962 3.354 0 6.364-.852 9.028-2.554"/><path fill="#000" fill-opacity="1" fill-rule="nonzero" stroke="none" d="M314.374 188.34c1.825 1.159 3.243 2.787 4.255 4.884 1.011 2.096 1.517 4.452 1.517 7.067 0 2.614-.506 4.958-1.517 7.03-1.012 2.072-2.43 3.687-4.255 4.847-1.825 1.158-3.873 1.739-6.142 1.739s-4.304-.581-6.105-1.739c-1.801-1.16-3.207-2.775-4.218-4.847-1.012-2.072-1.516-4.416-1.516-7.03 0-2.615.504-4.971 1.516-7.067 1.011-2.097 2.417-3.725 4.218-4.884 1.801-1.159 3.836-1.739 6.105-1.739 2.269 0 4.317.58 6.142 1.739m4.589 29.378c2.664-1.702 4.76-4.069 6.289-7.104 1.529-3.034 2.295-6.475 2.295-10.323 0-3.847-.766-7.302-2.295-10.36-1.529-3.06-3.625-5.439-6.289-7.141-2.664-1.702-5.674-2.553-9.029-2.553-2.862 0-5.464.655-7.807 1.961-2.344 1.307-4.255 3.145-5.734 5.513v-19.313h-7.327v50.985h7.327v-6.512c1.528 2.319 3.452 4.131 5.771 5.439 2.318 1.306 4.908 1.962 7.77 1.962 3.355 0 6.365-.852 9.029-2.554"/><path fill="#000" fill-opacity="1" fill-rule="nonzero" stroke="none" d="M335.16 232.851h7.326v-51.726h-7.326z"/><path fill="#000" fill-opacity="1" fill-rule="nonzero" stroke="none" d="M352.327 219.383h7.325v-38.258h-7.325zm.554 7.696c-.864.888-1.294 1.924-1.294 3.107 0 1.185.43 2.208 1.294 3.072.863.862 1.912 1.295 3.146 1.295 1.184 0 2.207-.433 3.07-1.295.864-.864 1.295-1.887 1.295-3.072 0-1.183-.431-2.219-1.295-3.107-.863-.888-1.886-1.332-3.07-1.332-1.234 0-2.283.444-3.146 1.332"/><path fill="#000" fill-opacity="1" fill-rule="nonzero" stroke="none" d="M376.68 182.975c-3.084 1.825-5.551 4.279-7.4 7.363-1.85 3.083-2.776 6.402-2.776 9.953 0 3.552.926 6.857 2.776 9.916 1.849 3.059 4.329 5.5 7.437 7.327 3.108 1.824 6.438 2.738 9.989 2.738 2.713 0 5.266-.519 7.66-1.555 2.392-1.036 4.55-2.491 6.475-4.366l-4.958-4.588c-1.184 1.282-2.579 2.294-4.182 3.034-1.603.74-3.268 1.111-4.995 1.111-2.269 0-4.39-.618-6.364-1.851-1.973-1.233-3.54-2.898-4.698-4.995-1.159-2.097-1.739-4.354-1.739-6.771 0-2.467.58-4.749 1.739-6.844 1.158-2.098 2.725-3.763 4.698-4.995 1.974-1.235 4.095-1.851 6.364-1.851 1.777 0 3.479.382 5.107 1.147 1.628.765 3.058 1.813 4.292 3.145l4.958-4.514c-1.924-1.924-4.108-3.429-6.549-4.513-2.442-1.085-5.045-1.628-7.808-1.628-3.601 0-6.944.912-10.026 2.737"/><path fill="#000" fill-opacity="1" fill-rule="nonzero" stroke="none" d="M427.035 187.896c2.17 1.258 3.552 2.996 4.144 5.217v5.105c-3.256.987-6.734 1.481-10.434 1.481-2.615 0-4.836-.666-6.66-1.998-1.825-1.332-2.738-3.01-2.738-5.033 0-2.023.801-3.638 2.405-4.846 1.602-1.21 3.663-1.814 6.179-1.814 2.564 0 4.932.629 7.104 1.888m7.104 28.009c2.812-2.912 4.218-6.784 4.218-11.618v-23.162h-7.178v5.179c-1.382-1.924-3.232-3.416-5.55-4.476-2.32-1.061-4.712-1.591-7.178-1.591-4.096 0-7.475 1.109-10.138 3.33-2.664 2.22-3.996 5.18-3.996 8.88 0 2.466.677 4.673 2.034 6.623 1.357 1.948 3.207 3.452 5.551 4.514 2.342 1.06 4.921 1.59 7.733 1.59 3.65 0 7.498-.691 11.544-2.072v1.185c0 2.811-.766 5.167-2.294 7.066-1.53 1.899-4.046 2.85-7.548 2.85-3.01 0-6.586-1.062-10.73-3.182l-2.738 5.401c5.13 2.565 9.965 3.849 14.504 3.849 5.032 0 8.954-1.456 11.766-4.366"/><path fill="#000" fill-opacity="1" fill-rule="nonzero" stroke="none" d="M466.135 182.975c-1.036-.839-2.232-1.505-3.589-1.998-1.357-.492-2.726-.739-4.107-.739-2.96 0-5.377.973-7.252 2.923-1.875 1.948-2.812 4.451-2.812 7.51v22.496h-5.698v6.216h5.698v10.508h7.178v-10.508h9.028v-6.216h-9.028V191.19c0-1.332.394-2.431 1.185-3.293.788-.864 1.725-1.296 2.811-1.296.788 0 1.528.136 2.22.407.69.271 1.232.604 1.628.999z"/><path fill="#000" fill-opacity="1" fill-rule="nonzero" stroke="none" d="M471.471 219.383h7.326v-38.258h-7.326zm.555 7.696c-.863.888-1.295 1.924-1.295 3.107 0 1.185.432 2.208 1.295 3.072.862.862 1.911 1.295 3.145 1.295 1.184 0 2.208-.433 3.071-1.295.863-.864 1.295-1.887 1.295-3.072 0-1.183-.432-2.219-1.295-3.107-.863-.888-1.887-1.332-3.071-1.332-1.234 0-2.283.444-3.145 1.332"/><path fill="#000" fill-opacity="1" fill-rule="nonzero" stroke="none" d="M512.213 188.451c1.948 1.232 3.502 2.897 4.662 4.995 1.158 2.096 1.739 4.377 1.739 6.845 0 2.466-.581 4.747-1.739 6.845-1.16 2.096-2.714 3.749-4.662 4.958-1.949 1.209-4.083 1.813-6.401 1.813-2.32 0-4.452-.604-6.401-1.813-1.95-1.209-3.504-2.862-4.662-4.958-1.16-2.098-1.739-4.379-1.739-6.845 0-2.468.579-4.749 1.739-6.845 1.158-2.098 2.712-3.763 4.662-4.995 1.949-1.234 4.081-1.851 6.401-1.851 2.318 0 4.452.617 6.401 1.851m-16.428-5.513c-3.084 1.8-5.539 4.242-7.363 7.325-1.826 3.084-2.738 6.426-2.738 10.028 0 3.6.912 6.931 2.738 9.99 1.824 3.058 4.279 5.487 7.363 7.289 3.082 1.8 6.425 2.701 10.027 2.701 3.6 0 6.943-.901 10.027-2.701 3.083-1.802 5.537-4.231 7.363-7.289 1.824-3.059 2.738-6.39 2.738-9.99 0-3.602-.914-6.944-2.738-10.028-1.826-3.083-4.28-5.525-7.363-7.325-3.084-1.801-6.427-2.701-10.027-2.701-3.602 0-6.945.9-10.027 2.701"/><path fill="#000" fill-opacity="1" fill-rule="nonzero" stroke="none" d="M559.965 218.42c2.171-1.233 3.86-2.973 5.069-5.217 1.208-2.245 1.813-4.823 1.813-7.733v-24.346h-7.104v23.088c0 2.86-.814 5.191-2.442 6.993-1.628 1.8-3.749 2.701-6.363 2.701-1.925 0-3.701-.407-5.328-1.221-1.628-.814-2.913-1.912-3.849-3.293-.938-1.381-1.405-2.886-1.405-4.514v-23.754h-7.327v38.258h7.327v-5.624c1.133 1.924 2.798 3.49 4.995 4.699 2.194 1.208 4.599 1.814 7.215 1.814 2.761 0 5.228-.619 7.399-1.851"/><path fill="#000" fill-opacity="1" fill-rule="nonzero" stroke="none" d="M246.435 101.826c-4.047 2.393-7.278 5.611-9.695 9.657-2.417 4.044-3.625 8.41-3.625 13.098 0 4.686 1.208 9.039 3.625 13.06 2.417 4.021 5.648 7.227 9.695 9.621 4.044 2.392 8.386 3.588 13.023 3.588 3.601 0 7.03-.702 10.286-2.108 3.256-1.406 6.092-3.367 8.51-5.883L273 137.827c-1.776 1.924-3.836 3.428-6.178 4.514-2.344 1.085-4.799 1.628-7.364 1.628-3.305 0-6.4-.888-9.287-2.664-2.886-1.776-5.179-4.144-6.882-7.104-1.702-2.96-2.553-6.168-2.553-9.62 0-3.454.851-6.673 2.553-9.657 1.703-2.986 3.996-5.366 6.882-7.141 2.887-1.776 5.982-2.664 9.287-2.664 2.565 0 5.02.542 7.364 1.628 2.342 1.085 4.402 2.59 6.178 4.514l5.254-5.033c-2.467-2.515-5.328-4.476-8.584-5.882-3.255-1.406-6.66-2.109-10.212-2.109-4.637 0-8.979 1.195-13.023 3.589"/><path fill="#000" fill-opacity="1" fill-rule="nonzero" stroke="none" d="M305.398 105.897c2.17 1.258 3.551 2.996 4.144 5.217v5.105c-3.257.987-6.735 1.481-10.435 1.481-2.615 0-4.835-.666-6.66-1.998-1.825-1.332-2.737-3.01-2.737-5.033 0-2.023.801-3.638 2.405-4.846 1.601-1.21 3.662-1.814 6.179-1.814 2.564 0 4.932.629 7.104 1.888m7.104 28.009c2.812-2.912 4.217-6.784 4.217-11.618V99.126h-7.177v5.179c-1.382-1.924-3.232-3.416-5.55-4.476-2.321-1.061-4.712-1.591-7.178-1.591-4.096 0-7.475 1.109-10.139 3.33-2.664 2.22-3.996 5.18-3.996 8.88 0 2.466.678 4.673 2.035 6.623 1.357 1.948 3.206 3.452 5.55 4.514 2.343 1.06 4.921 1.59 7.734 1.59 3.65 0 7.498-.691 11.544-2.072v1.185c0 2.811-.766 5.167-2.294 7.066-1.53 1.899-4.046 2.85-7.549 2.85-3.01 0-6.586-1.062-10.73-3.182l-2.737 5.401c5.13 2.565 9.964 3.849 14.504 3.849 5.031 0 8.953-1.456 11.766-4.366"/><path fill="#000" fill-opacity="1" fill-rule="nonzero" stroke="none" d="M344.498 100.975c-1.035-.839-2.232-1.505-3.588-1.998-1.357-.492-2.726-.739-4.107-.739-2.96 0-5.378.973-7.252 2.923-1.875 1.948-2.813 4.451-2.813 7.51v22.496h-5.697v6.216h5.697v10.508h7.178v-10.508h9.029v-6.216h-9.029V109.19c0-1.332.394-2.431 1.185-3.293.788-.864 1.725-1.296 2.811-1.296.789 0 1.529.136 2.221.407.689.271 1.232.604 1.628.999z"/><path fill="#000" fill-opacity="1" fill-rule="nonzero" stroke="none" d="M369.532 105.897c2.17 1.258 3.552 2.996 4.144 5.217v5.105c-3.256.987-6.735 1.481-10.434 1.481-2.615 0-4.836-.666-6.66-1.998-1.826-1.332-2.738-3.01-2.738-5.033 0-2.023.801-3.638 2.405-4.846 1.602-1.21 3.663-1.814 6.179-1.814 2.564 0 4.933.629 7.104 1.888m7.104 28.009c2.812-2.912 4.217-6.784 4.217-11.618V99.126h-7.177v5.179c-1.381-1.924-3.232-3.416-5.55-4.476-2.32-1.061-4.712-1.591-7.178-1.591-4.096 0-7.474 1.109-10.138 3.33-2.664 2.22-3.996 5.18-3.996 8.88 0 2.466.678 4.673 2.035 6.623 1.356 1.948 3.205 3.452 5.549 4.514 2.344 1.06 4.922 1.59 7.734 1.59 3.65 0 7.499-.691 11.544-2.072v1.185c0 2.811-.766 5.167-2.294 7.066-1.53 1.899-4.046 2.85-7.548 2.85-3.01 0-6.586-1.062-10.731-3.182l-2.737 5.401c5.13 2.565 9.964 3.849 14.504 3.849 5.032 0 8.954-1.456 11.766-4.366"/><path fill="#000" fill-opacity="1" fill-rule="nonzero" stroke="none" d="M390.258 150.851h7.326V99.125h-7.326z"/><path fill="#000" fill-opacity="1" fill-rule="nonzero" stroke="none" d="M431.304 106.451c1.948 1.232 3.502 2.897 4.662 4.995 1.158 2.096 1.739 4.377 1.739 6.845 0 2.466-.581 4.747-1.739 6.845-1.16 2.096-2.714 3.749-4.662 4.958-1.949 1.209-4.083 1.813-6.401 1.813-2.32 0-4.453-.604-6.401-1.813-1.95-1.209-3.504-2.862-4.662-4.958-1.16-2.098-1.739-4.379-1.739-6.845 0-2.468.579-4.749 1.739-6.845 1.158-2.098 2.712-3.763 4.662-4.995 1.948-1.234 4.081-1.851 6.401-1.851 2.318 0 4.452.617 6.401 1.851m-16.428-5.513c-3.084 1.8-5.539 4.242-7.363 7.325-1.826 3.084-2.738 6.426-2.738 10.028 0 3.6.912 6.931 2.738 9.99 1.824 3.058 4.279 5.487 7.363 7.289 3.082 1.8 6.425 2.701 10.027 2.701 3.6 0 6.943-.901 10.027-2.701 3.083-1.802 5.537-4.231 7.363-7.289 1.824-3.059 2.738-6.39 2.738-9.99 0-3.602-.914-6.944-2.738-10.028-1.826-3.083-4.28-5.525-7.363-7.325-3.084-1.801-6.427-2.701-10.027-2.701-3.602 0-6.945.9-10.027 2.701"/><path fill="#000" fill-opacity="1" fill-rule="nonzero" stroke="none" d="M477.168 111.594c2.171 2.194 3.257 5.044 3.257 8.547 0 3.453-1.086 6.277-3.257 8.473-2.171 2.195-4.983 3.293-8.436 3.293-3.355 0-6.13-1.098-8.325-3.293-2.195-2.196-3.293-5.02-3.293-8.473 0-3.453 1.098-6.29 3.293-8.51 2.195-2.22 4.97-3.33 8.325-3.33 3.453 0 6.265 1.098 8.436 3.293m10.582 25.789v-34.187c0-3.256-.826-6.155-2.478-8.696-1.654-2.54-3.948-4.525-6.882-5.957-2.936-1.43-6.279-2.145-10.028-2.145-3.107 0-6.081.468-8.917 1.405-2.837.937-5.192 2.172-7.066 3.7l2.886 5.476c1.38-1.331 3.144-2.367 5.291-3.108 2.145-.74 4.402-1.11 6.77-1.11 4.095 0 7.301.937 9.62 2.812 2.319 1.875 3.479 4.464 3.479 7.77v5.55c-1.53-2.22-3.454-3.935-5.773-5.143-2.319-1.209-4.883-1.813-7.696-1.813-3.355 0-6.351.777-8.99 2.331-2.64 1.555-4.712 3.712-6.217 6.475-1.505 2.762-2.257 5.895-2.257 9.398s.752 6.635 2.257 9.398c1.505 2.763 3.577 4.909 6.217 6.438 2.639 1.529 5.635 2.295 8.99 2.295 2.813 0 5.39-.618 7.733-1.851s4.255-2.935 5.736-5.105v6.067z"/><path fill="#000" fill-opacity="1" fill-rule="nonzero" stroke="none" d="M507.51 150.063h2.571l3.959-6.733 3.918 6.733h2.612V137.82h-2.612v7.795l-3.918-6.775-3.959 6.775v-7.795h-2.571zm-8.365-2.448h-3.51v2.448h9.631v-2.448h-3.51v-9.795h-2.611z"/></g></g></svg>