<svg xmlns="http://www.w3.org/2000/svg" role="img" xmlns:xlink="http://www.w3.org/1999/xlink" viewBox="-12.35 -12.35 642.20 321.20"><title>Vald logo</title><defs><linearGradient id="a" x1="121.56" x2="254.18" y1="57.56" y2="57.56" gradientUnits="userSpaceOnUse"><stop offset="0" stop-color="#00bab1"/><stop offset="1" stop-color="#006076"/></linearGradient><linearGradient id="b" x1="0" x2="147.8" y1="112.28" y2="112.28" xlink:href="#a"/><linearGradient id="c" x1=".25" x2="230.58" y1="221.29" y2="221.29" xlink:href="#a"/><linearGradient id="d" x1="178.54" x2="302.06" y1="163.34" y2="163.34" xlink:href="#a"/></defs><path fill="#303030" d="M371.07 196.54l-30-94.45h26.57l18 69.89h1l17.72-69.89h25.19l-29.62 94.45zm81.93 1.11c-14.46 0-24.43-8.37-24.43-22.42 0-13.49 9.34-22.07 26.58-22.07h17.09V147c0-6-3.74-9.34-10-9.34s-10 3.46-10.31 8.51h-20.71c.42-12 7.82-24.64 31.28-24.64 17.71 0 31.55 7.48 31.55 25.74v49.27h-20.83v-8.85h-1c-2.46 5.12-8.41 9.96-19.22 9.96zm19.24-25.19v-7.26H461c-6.85 0-10.59 3.32-10.59 8.3 0 5.81 5 8.72 10.17 8.72 6.28 0 11.61-3.88 11.61-9.76zm37.81-75.35h22.21v99.43h-22.21zm84.42 36.74h1V97.11h22.21v99.43h-22.1v-11.62h-.9c-3.18 7.61-10.86 12.38-21 12.38-17.23 0-27.47-12.87-27.47-34.8v-5.95c0-21.73 10.45-34.74 27.47-34.74 10.07 0 17.75 4.84 20.79 12.04zM569 157.24v4.7c0 12.25 5.53 18.2 13.08 18.2 8 0 13.42-6.15 13.42-18.13v-4.77c0-11.69-5.47-18.2-13.49-18.2-7.47-.04-13.01 6.02-13.01 18.2z"/><path fill="url(#a)" d="M130.91 67.08l6.82 11.5 3.44 5.73 3.49 5.69c2.32 3.79 4.66 7.54 7.15 11a52.45 52.45 0 0 0 8.23 9.38 22.12 22.12 0 0 0 7.67 3.89 26.07 26.07 0 0 0 2.85.56 19.53 19.53 0 0 0 5.6.06 53 53 0 0 0 11.94-3.78c4-1.69 7.87-3.7 11.84-5.74s7.9-4.12 11.83-6.22l11.79-6.33 23.57-12.73 7.05-3.83L210.73 0l-30 52.72L150.7 0l-29.14 51.19z"/><path fill="url(#b)" d="M0 221.76l7.41-4.5c7.64-4.64 15.34-9.17 23-13.76s15.41-9.06 23.1-13.6l23.13-13.55 23.08-13.6 11.51-6.82 5.77-3.43 5.72-3.49c3.79-2.33 7.55-4.66 11-7.16a52.45 52.45 0 0 0 9.38-8.23 24.11 24.11 0 0 0 4.45-9.74c.12-.89.2-1.78.24-2.66a20.35 20.35 0 0 0 0-2.25v-.52c0-.2-.06-.44-.09-.66l-.1-.67v-.17l-.06-.29a42.88 42.88 0 0 0-1.27-4.89 78.88 78.88 0 0 0-3.89-9.63c-1.5-3.18-3.16-6.4-4.81-9.61s-3.32-6.42-5-9.62l-5-9.37-1.91-3.36c-2.2-3.9-4.36-7.82-6.52-11.73l-6.45-11.76-6.42-11.78-6.41-11.85c-3.59-6.75-7.21-13.49-10.79-20.25l-67.2 118h27.9z"/><path fill="url(#c)" d="M222.43 240.22l-6.83-11.54-6.76-11.58q-6.75-11.59-13.41-23.24l-1.62-2.86-5.74-9.56q-2.81-4.62-5.66-9.25c-1.89-3.08-3.79-6.16-5.74-9.09a78.59 78.59 0 0 0-6.23-8.31c-.56-.64-1.14-1.26-1.72-1.87l-.85-.84c-.29-.29-.66-.61-1-.92a20.6 20.6 0 0 0-3.73-2.66 28.34 28.34 0 0 0-4.49-2 28.26 28.26 0 0 0-4.79-.6h-2.77l-.65.09-.68.1h-.17l-.3.07a40.68 40.68 0 0 0-4.88 1.26 79.19 79.19 0 0 0-9.63 3.89c-3.19 1.5-6.41 3.16-9.62 4.82s-6.42 3.31-9.62 5l-9.36 5-3.37 1.92c-3.89 2.2-7.82 4.35-11.73 6.51L79.31 181l-11.77 6.43-11.82 6.37c-7.89 4.2-15.72 8.45-23.66 12.61s-15.8 8.36-23.74 12.48l-8.07 4.22h70.56V295a1.7 1.7 0 0 0 1.7 1.7h36.31a1.7 1.7 0 0 0 1.7-1.7v-71.9h20.33V295a1.69 1.69 0 0 0 1.69 1.7h36.32a1.7 1.7 0 0 0 1.69-1.7v-71.9h20.33V295a1.7 1.7 0 0 0 1.69 1.7h36.32a1.7 1.7 0 0 0 1.69-1.7v-41.1z"/><path fill="url(#d)" d="M279.53 120.85l-22.82-40.08-6.95 4.06q-11.59 6.74-23.24 13.41l-2.89 1.61-9.55 5.75q-4.64 2.81-9.26 5.66c-3.08 1.89-6.16 3.79-9.09 5.74a77.24 77.24 0 0 0-8.31 6.23c-.64.55-1.25 1.13-1.86 1.71l-.85.86c-.29.29-.61.65-.92 1a21.11 21.11 0 0 0-2.66 3.73c-.46.83-.86 1.7-1.24 2.58a31 31 0 0 0-1.12 4.81 19.61 19.61 0 0 0-.06 5.61 52.41 52.41 0 0 0 3.79 11.93c1.68 3.95 3.69 7.87 5.74 11.85s4.11 7.89 6.21 11.83l6.33 11.79 12.73 23.57 12.8 23.5q2.13 3.94 4.27 7.89v-22.8h71.48l-50.44-102.24z"/></svg>