<svg xmlns="http://www.w3.org/2000/svg" role="img" viewBox="116.90 1051.90 2761.20 893.70"><title>vamp.io logo</title><path fill="#FF405E" d="M1031.687 1162.167c-19.815-35.662-61.427-55.47-114.926-55.47H300.547c-53.491 0-95.101 19.808-114.916 55.47-19.815 35.673-17.83 81.241 9.908 126.816l309.097 532.983c27.739 45.581 63.399 71.336 105.012 71.336 41.606 0 79.252-25.755 105.018-71.336l309.086-532.983c25.766-47.558 29.72-91.143 7.935-126.816zm-798.503 25.766c9.907-17.832 35.67-27.739 67.363-27.739h404.211c33.678 0 57.453 9.907 67.361 27.739 9.907 17.831 5.945 43.584-9.908 73.306l-17.829 31.701c-9.902-5.94-21.793-7.924-33.684-7.924H401.602c-53.492 0-95.105 19.815-114.916 55.475l-43.594-79.252c-15.847-27.738-19.816-55.475-9.908-73.306zm376.464 340.79s-1.983-1.971-3.961-3.967l-75.298-130.76-27.736-47.554c-1.984-1.983-1.984-3.967-1.984-5.951H718.623v1.984L613.61 1524.756c-1.978 0-3.962 1.996-3.962 3.967zm57.454 267.491c-15.847 27.744-37.639 45.563-57.454 45.563-19.814 0-41.613-15.848-57.459-45.563l-213.986-370.52c-9.907-21.791-9.907-43.59-1.983-57.452 9.907-17.844 35.66-27.751 67.366-27.751h43.593c0 11.891 3.957 21.799 9.904 33.689l154.549 267.484c27.731 45.569 63.406 71.322 105.007 71.322l-49.537 83.228zm309.097-534.975l-210.025 362.589c-15.846 21.806-33.677 33.684-51.508 33.684-19.815 0-41.613-15.847-57.472-45.567l-21.786-37.651c9.907-5.94 17.831-13.856 23.769-25.755L809.766 1287c27.737-45.575 29.722-91.144 9.907-126.806h97.088c33.685 0 57.459 9.907 67.361 27.739 11.891 17.831 7.935 45.568-7.923 73.306z"/><g fill="#183B4D" transform="translate(51 13)"><path d="M1149.812 1369.104h69.345l93.126 239.746 89.165-239.746h63.402l-122.845 313.065h-65.389z"/><path d="M1898.779 1369.104h55.475v49.535h1.971c1.99-3.96 3.969-9.905 9.908-15.845 5.957-5.951 11.898-11.891 21.803-17.832 7.918-5.951 17.826-11.891 29.723-15.858 11.881-3.956 23.783-5.94 37.633-5.94 23.783 0 43.598 3.957 59.445 13.864 15.863 9.907 29.723 23.782 39.627 43.597 9.908-19.815 23.783-33.69 43.598-43.597 17.836-9.907 37.65-13.864 55.469-13.864 23.783 0 43.598 3.957 59.445 11.891 15.865 7.924 27.744 17.831 35.68 31.693 7.91 13.876 13.855 27.746 17.818 43.592 3.969 15.847 3.969 33.689 3.969 51.508v182.293h-59.438v-174.356c0-11.88 0-23.784-1.979-33.69-1.99-11.88-3.967-19.814-9.908-29.717-3.969-7.923-11.898-15.853-19.814-19.814-7.928-5.938-19.809-7.924-35.678-7.924-27.729 0-49.531 7.924-61.416 25.761-11.881 17.831-17.838 39.63-17.838 67.355v170.413h-59.443v-164.455c0-15.865 0-27.744-1.971-41.619-1.973-11.88-3.969-23.771-9.908-31.694-3.969-9.905-11.879-15.851-19.814-21.797-7.936-5.947-19.814-7.924-33.689-7.924-9.906 0-19.814 1.977-29.717 5.946-9.906 3.962-17.824 9.9-25.752 17.83-7.938 7.923-13.877 19.809-17.844 31.7-3.949 13.875-5.939 27.75-5.939 45.567v162.479h-59.443v-309.098h-1.973z"/><path d="M2447.621 1369.104h59.443v45.575h1.971c11.887-15.853 27.752-29.717 47.566-39.624s39.623-13.875 61.416-13.875c23.775 0 45.568 3.968 65.375 11.892 19.814 7.924 35.662 19.814 49.537 35.662 13.875 15.853 23.783 31.698 31.719 51.514 7.91 19.814 11.879 41.601 11.879 63.411 0 23.777-3.969 45.568-11.879 65.378-7.936 19.813-17.844 37.656-31.719 51.508-13.875 13.874-29.723 25.778-49.537 33.689-19.807 7.935-41.6 11.904-65.375 11.904-21.793 0-43.598-3.97-63.412-13.877s-35.662-21.81-45.57-37.657h-1.971v126.816h-59.443v-392.316zm162.459 47.552c-15.848 0-29.721 1.983-43.572 7.931-11.902 5.938-23.783 13.868-31.717 21.791-7.912 9.902-15.848 21.794-19.811 33.685-3.967 13.875-7.916 27.75-7.916 43.597 0 15.846 1.971 29.715 7.916 43.59 3.963 13.858 11.898 25.755 19.811 33.672 7.934 9.907 19.814 17.838 31.717 21.806 11.881 5.938 27.725 7.911 43.572 7.911 15.865 0 29.723-1.973 43.598-7.911 11.896-5.94 23.777-13.877 31.711-21.806 7.912-9.908 15.848-21.791 19.816-33.672 3.943-13.875 7.91-27.744 7.91-43.59 0-15.847-1.971-29.722-7.91-43.597-3.969-13.875-11.904-25.755-19.816-33.685-7.934-9.907-19.814-17.829-31.711-21.791-13.875-3.962-27.733-7.931-43.598-7.931z"/><path d="M1647.141 1692.076c45.563 0 91.131-19.814 116.908-53.504v43.597h53.48v-317.021h-53.48v47.546c-25.777-31.698-71.346-53.497-116.908-53.497-87.189 0-156.539 73.312-156.539 164.462-1.971 93.127 69.349 168.417 156.539 168.417zm7.929-275.42c57.447-1.977 103.016 49.531 103.016 110.965 0 61.416-45.568 110.951-103.016 110.951-65.402 0-103.035-49.535-103.035-110.951 0-61.433 39.631-110.965 103.035-110.965z"/></g></svg>