<svg xmlns="http://www.w3.org/2000/svg" viewBox="9.88 19.88 266.24 253.24"><title>Vamp logo</title><style>svg {enable-background:new 0 0 288 288}</style><style>.st0{fill:#fefefe}</style><g><path d="M143.8 17.1c45.5 0 90.9 0 136.4-.1 3 0 3.5.6 3.5 3.5-.1 83.7-.1 167.5 0 251.2 0 3-.6 3.5-3.5 3.5-90.9-.1-181.9-.1-272.8 0-3 0-3.5-.6-3.5-3.5.1-83.7.1-167.5 0-251.2 0-3 .6-3.5 3.5-3.5 45.4.1 90.9.1 136.4.1z" class="st0"/><path fill="#fe3f5d" d="M144.1 25.6h49.6c2.9 0 5.7.1 8.5.8 11.3 2.9 16.3 11.9 12.6 23-2.3 6.8-6.4 12.5-9.9 18.5-14.4 24.9-29 49.6-43.5 74.4-.9 1.5-1.8 3-2.9 4.3-8 10.2-20.4 10.4-28.6.3-4.8-5.9-8-12.9-11.8-19.5-14-24.1-27.9-48.2-41.9-72.3-2-3.4-3.5-7-3.8-10.9-.9-10.1 6.8-18.2 18.3-18.4 17.8-.3 35.6-.1 53.5-.1-.1 0-.1 0-.1-.1z"/><path fill="#183b4e" d="M142.3 212c10.9-10.6 21.9-10.1 31.3.7 3.2-4.8 7.7-7.6 13.4-8.1 11.7-1.2 19.4 4.6 20.4 16.4.9 10.6.3 21.3.5 31.9 0 1.9-.7 2.5-2.5 2.5h-3c-4.2.1-4.5-.7-4.3-4.2.3-8.5.3-17 0-25.5-.3-10.3-7.4-15-16.2-10.9-5 2.3-6.2 7-6.4 11.9-.3 7.9-.4 15.8 0 23.7.2 4.5-1.6 4.9-5.4 5.1-4.5.2-4.8-1.8-4.7-5.3.2-8.5.1-17-.1-25.5-.1-3.9-.8-7.8-4.8-10-5.1-2.9-12.1-.7-15.3 4.7-1.9 3.2-2.4 6.7-2.4 10.4 0 7-.3 14.1.1 21.1.3 4.5-2 4.3-5.1 4.4-3.2.1-4.9-.2-4.8-4.2.3-13.8.2-27.6 0-41.4-.1-3.6 1.2-4.3 4.4-4.2 3 .1 5.3-.5 4.8 4.2 0 .5.1 1 .1 2.3zm87.5 38.8c0 4.8-.2 9.1.1 13.5.2 3.8-1 3.8-4.2 4.1-1.1.1-2.4 0-3 0-3 .1-3.6-1-3.5-3.7.1-14.2 0-28.5 0-42.7 0-4.5.2-8.9 0-13.4-.1-2.8.9-3.6 3.5-3.3.8.1 1.7 0 2.6 0 4.6 0 4.6 0 4.8 5.2 6.9-6.6 15.1-7.2 23.5-5.6 5.5 1 9.8 4.4 13.4 8.8 6.8 8.5 6.6 27.4-1.7 35.6-7.3 7.2-21.1 12-35.5 1.5zm-118.3-39.4c.1-.4-.1-1.6-.1-2 .2-1.5-.6-3.3 1.2-3.9 2-.7 4.5-.4 6.8-.1 1.5.1 1.1 2.1 1.1 3.2.1 14.5-.1 29 .1 43.5 0 3.1-.6 3.4-3.1 3.4-2.4 0-6.3 1.1-5.7-3.4.1-.7 0-1.4 0-3-7.1 6.7-15.1 8.8-23.9 7.1-5.8-1.2-10.4-4.6-14-9.4-7.7-10.3-6.9-25.3 1.8-34.5 9.4-10 22-10.4 35.8-.9zm-70.7 31.3C45.1 231.4 49 221 53 210.5c.6-1.7 1.3-4.1 2.5-5 2.1-1.6 5.8-1.4 8.8-.6 1.8.5.3 2.8-.1 3.8-4.8 12.4-9.7 24.9-14.6 37.3-.5 1.5-1 2.5-1.2 3.2-1.6 5.6-4 6.8-9.1 6.3-2.9-.3-4.5-.7-5.6-3.8-5.5-14.2-11.3-28.2-17.2-42.3-1.2-2.8-1.3-4.1 2.3-3.9 9.2.4 6.6-1.7 10.3 7 2.1 4.9 3.8 9.9 5.8 14.8 1.8 4.8 3.7 9.6 5.9 15.4z"/><path d="M190.3 34.1c3.2.2 7-.4 10.7.5 5.2 1.3 7.6 5.2 6.4 10.4-.6 2.7-1.7 5.2-3.1 7.5-11 18.9-21.9 37.8-32.9 56.7-5.6 9.6-13.2 9.4-19.2 0-2.3-3.7-3.6-6.2-.5-11 9.1-14 16.9-28.7 25.2-43.2 3.4-6 5.3-12.1 2.6-18.9-.8-2 0-2.1 1.6-2.1 3 .2 5.9.1 9.2.1zm-28.3 91c-3 5.2-5.5 10-8.5 14.6-6 9.3-13.2 9.2-18.9-.4-8.7-14.9-17.4-29.8-26-44.7-3-5.2-6.2-10.4-9.1-15.7-4.6-8.4-.8-14.8 8.7-15.4 5.3-.3 8.7.3 11.7 6.2 7.5 14.9 16.5 29 24.8 43.4 3.8 6.6 9.2 10.9 17.3 12zM90.4 63.9c-3-5.5-6.9-10.3-8.8-16.2-2.6-8.2.9-13.3 9.6-13.5 5.3-.2 10.6 0 16 0h53.1c2.2 0 4.3.2 6.4.9 4.2 1.4 6.3 5.1 5.5 9.5-.3 1.4-.7 2.8-1.3 4.1-1 2.2-2 4.6-3.5 6.4-1.9 2.4-4.2-.1-6.3-.1-17.4.2-34.8 0-52.2.2-8 0-11.5 1.8-18.5 8.7z" class="st0"/><path fill="#fefdfe" d="M144.2 63h15.5c2.3 0 2.8.7 1.6 2.8-5.2 8.9-10.3 17.9-15.4 26.9-1.1 2-2 2.7-3.4.2-5.1-9.1-10.4-18.2-15.6-27.3-1.4-2.5-.1-2.6 1.8-2.6h15.5z"/><path d="M245.2 247c-9.1 0-15.1-6.5-15.4-16-.4-11.4 7.8-17.1 15.2-17.2 9.1-.1 16.3 7.3 16.2 16.5-.2 9.8-6.8 16.7-16 16.7zM78.9 230.6c0-10 6.7-17.2 15.9-17.2 8.8 0 16.1 7.8 16.1 17.2 0 9.5-7.3 17.2-16.2 17.2-9.3 0-15.8-7.1-15.8-17.2z" class="st0"/></g></svg>