<?xml version="1.0" encoding="utf-8"?>
<!-- Generator: Adobe Illustrator 21.1.0, SVG Export Plug-In . SVG Version: 6.00 Build 0)  -->
<svg version="1.1" id="Layer_1" xmlns="http://www.w3.org/2000/svg" xmlns:xlink="http://www.w3.org/1999/xlink" x="0px" y="0px"
	 viewBox="9.860000000000014 20.120000000000005 267.28000000000003 253.76000000000002" style="enable-background:new 0 0 288 288;" xml:space="preserve">
<style type="text/css">
	.st0{fill:#FEFEFE;}
	.st1{fill:#FE3F5D;}
	.st2{fill:#183B4E;}
	.st3{fill:#FEFDFE;}
</style>
<g>
	<path class="st0" d="M143.8,17.1c45.5,0,90.9,0,136.4-0.1c3,0,3.5,0.6,3.5,3.5c-0.1,83.7-0.1,167.5,0,251.2c0,3-0.6,3.5-3.5,3.5
		c-90.9-0.1-181.9-0.1-272.8,0c-3,0-3.5-0.6-3.5-3.5c0.1-83.7,0.1-167.5,0-251.2c0-3,0.6-3.5,3.5-3.5
		C52.8,17.1,98.3,17.1,143.8,17.1z"/>
	<path class="st1" d="M144.1,25.6c16.5,0,33.1,0,49.6,0c2.9,0,5.7,0.1,8.5,0.8c11.3,2.9,16.3,11.9,12.6,23
		c-2.3,6.8-6.4,12.5-9.9,18.5c-14.4,24.9-29,49.6-43.5,74.4c-0.9,1.5-1.8,3-2.9,4.3c-8,10.2-20.4,10.4-28.6,0.3
		c-4.8-5.9-8-12.9-11.8-19.5c-14-24.1-27.9-48.2-41.9-72.3c-2-3.4-3.5-7-3.8-10.9c-0.9-10.1,6.8-18.2,18.3-18.4
		c17.8-0.3,35.6-0.1,53.5-0.1C144.1,25.7,144.1,25.7,144.1,25.6z"/>
	<path class="st2" d="M142.3,212c10.9-10.6,21.9-10.1,31.3,0.7c3.2-4.8,7.7-7.6,13.4-8.1c11.7-1.2,19.4,4.6,20.4,16.4
		c0.9,10.6,0.3,21.3,0.5,31.9c0,1.9-0.7,2.5-2.5,2.5c-1,0-2.1,0-3,0c-4.2,0.1-4.5-0.7-4.3-4.2c0.3-8.5,0.3-17,0-25.5
		c-0.3-10.3-7.4-15-16.2-10.9c-5,2.3-6.2,7-6.4,11.9c-0.3,7.9-0.4,15.8,0,23.7c0.2,4.5-1.6,4.9-5.4,5.1c-4.5,0.2-4.8-1.8-4.7-5.3
		c0.2-8.5,0.1-17-0.1-25.5c-0.1-3.9-0.8-7.8-4.8-10c-5.1-2.9-12.1-0.7-15.3,4.7c-1.9,3.2-2.4,6.7-2.4,10.4c0,7-0.3,14.1,0.1,21.1
		c0.3,4.5-2,4.3-5.1,4.4c-3.2,0.1-4.9-0.2-4.8-4.2c0.3-13.8,0.2-27.6,0-41.4c-0.1-3.6,1.2-4.3,4.4-4.2c3,0.1,5.3-0.5,4.8,4.2
		C142.2,210.2,142.3,210.7,142.3,212z"/>
	<path class="st2" d="M229.8,250.8c0,4.8-0.2,9.1,0.1,13.5c0.2,3.8-1,3.8-4.2,4.1c-1.1,0.1-2.4,0-3,0c-3,0.1-3.6-1-3.5-3.7
		c0.1-14.2,0-28.5,0-42.7c0-4.5,0.2-8.9,0-13.4c-0.1-2.8,0.9-3.6,3.5-3.3c0.8,0.1,1.7,0,2.6,0c4.6,0,4.6,0,4.8,5.2
		c6.9-6.6,15.1-7.2,23.5-5.6c5.5,1,9.8,4.4,13.4,8.8c6.8,8.5,6.6,27.4-1.7,35.6C258,256.5,244.2,261.3,229.8,250.8z"/>
	<path class="st2" d="M111.5,211.4c0.1-0.4-0.1-1.6-0.1-2c0.2-1.5-0.6-3.3,1.2-3.9c2-0.7,4.5-0.4,6.8-0.1c1.5,0.1,1.1,2.1,1.1,3.2
		c0.1,14.5-0.1,29,0.1,43.5c0,3.1-0.6,3.4-3.1,3.4c-2.4,0-6.3,1.1-5.7-3.4c0.1-0.7,0-1.4,0-3c-7.1,6.7-15.1,8.8-23.9,7.1
		c-5.8-1.2-10.4-4.6-14-9.4c-7.7-10.3-6.9-25.3,1.8-34.5C85.1,202.3,97.7,201.9,111.5,211.4z"/>
	<path class="st2" d="M40.8,242.7C45.1,231.4,49,221,53,210.5c0.6-1.7,1.3-4.1,2.5-5c2.1-1.6,5.8-1.4,8.8-0.6
		c1.8,0.5,0.3,2.8-0.1,3.8c-4.8,12.4-9.7,24.9-14.6,37.3c-0.5,1.5-1,2.5-1.2,3.2c-1.6,5.6-4,6.8-9.1,6.3c-2.9-0.3-4.5-0.7-5.6-3.8
		c-5.5-14.2-11.3-28.2-17.2-42.3c-1.2-2.8-1.3-4.1,2.3-3.9c9.2,0.4,6.6-1.7,10.3,7c2.1,4.9,3.8,9.9,5.8,14.8
		C36.7,232.1,38.6,236.9,40.8,242.7z"/>
	<path class="st0" d="M190.3,34.1c3.2,0.2,7-0.4,10.7,0.5c5.2,1.3,7.6,5.2,6.4,10.4c-0.6,2.7-1.7,5.2-3.1,7.5
		c-11,18.9-21.9,37.8-32.9,56.7c-5.6,9.6-13.2,9.4-19.2,0c-2.3-3.7-3.6-6.2-0.5-11c9.1-14,16.9-28.7,25.2-43.2
		c3.4-6,5.3-12.1,2.6-18.9c-0.8-2,0-2.1,1.6-2.1C184.1,34.2,187,34.1,190.3,34.1z"/>
	<path class="st0" d="M162,125.1c-3,5.2-5.5,10-8.5,14.6c-6,9.3-13.2,9.2-18.9-0.4c-8.7-14.9-17.4-29.8-26-44.7
		c-3-5.2-6.2-10.4-9.1-15.7c-4.6-8.4-0.8-14.8,8.7-15.4c5.3-0.3,8.7,0.3,11.7,6.2c7.5,14.9,16.5,29,24.8,43.4
		C148.5,119.7,153.9,124,162,125.1z"/>
	<path class="st0" d="M90.4,63.9c-3-5.5-6.9-10.3-8.8-16.2c-2.6-8.2,0.9-13.3,9.6-13.5c5.3-0.2,10.6,0,16,0c17.7,0,35.4,0,53.1,0
		c2.2,0,4.3,0.2,6.4,0.9c4.2,1.4,6.3,5.1,5.5,9.5c-0.3,1.4-0.7,2.8-1.3,4.1c-1,2.2-2,4.6-3.5,6.4c-1.9,2.4-4.2-0.1-6.3-0.1
		c-17.4,0.2-34.8,0-52.2,0.2C100.9,55.2,97.4,57,90.4,63.9z"/>
	<path class="st3" d="M144.2,63c5.2,0,10.3,0,15.5,0c2.3,0,2.8,0.7,1.6,2.8c-5.2,8.9-10.3,17.9-15.4,26.9c-1.1,2-2,2.7-3.4,0.2
		c-5.1-9.1-10.4-18.2-15.6-27.3c-1.4-2.5-0.1-2.6,1.8-2.6C133.9,63,139.1,63,144.2,63z"/>
	<path class="st0" d="M245.2,247c-9.1,0-15.1-6.5-15.4-16c-0.4-11.4,7.8-17.1,15.2-17.2c9.1-0.1,16.3,7.3,16.2,16.5
		C261,240.1,254.4,247,245.2,247z"/>
	<path class="st0" d="M78.9,230.6c0-10,6.7-17.2,15.9-17.2c8.8,0,16.1,7.8,16.1,17.2c0,9.5-7.3,17.2-16.2,17.2
		C85.4,247.8,78.9,240.7,78.9,230.6z"/>
</g>
</svg>
