<svg xmlns="http://www.w3.org/2000/svg" role="img" viewBox="-2.00 -2.00 103.87 71.62"><title>vcluster logo</title><path fill="#0C1F6C" d="M7.22805 67.3794L0 55.0752h4.57961l2.81397 5.7383 2.48292-5.7383h4.3037L7.33841 67.3794h-.11036zm19.05035-1.3242c-.5333.423-1.2047.7633-2.0139 1.0208-.7909.2574-1.5725.3862-2.345.3862-2.0599 0-3.7152-.561-4.9658-1.6829-1.2323-1.1219-1.8484-2.6852-1.8484-4.6899 0-1.3427.3035-2.483.9104-3.421.6069-.9563 1.3978-1.6828 2.3726-2.1794.9931-.4966 2.0323-.7449 3.1174-.7449 1.0851 0 2.0231.1471 2.814.4414.8092.2943 1.4989.6805 2.0691 1.1587l-1.876 2.4829c-.2575-.2023-.6161-.4046-1.0759-.6069-.4414-.2207-.9656-.3311-1.5726-.3311-.7908 0-1.4713.3035-2.0415.9104-.5701.5886-.8552 1.3519-.8552 2.2899 0 .9012.2943 1.6644.8828 2.2898.607.6253 1.407.9379 2.4002.9379.846 0 1.5449-.2299 2.0967-.6897l1.9311 2.4278zm2.9662-16.2769h3.8623v17.3528h-3.8623V49.7783zm11.7298 17.9322c-1.0851 0-1.9955-.3311-2.7312-.9932-.7357-.6805-1.1219-1.5541-1.1587-2.6209v-9.0212h3.8623v7.5867c.0368.5333.1748.9656.4138 1.2966.2391.3127.6438.469 1.2139.469.8644 0 1.5449-.4138 2.0415-1.2415.4966-.846.7449-1.9127.7449-3.2002v-4.9106h3.8623v12.0559h-3.5036L45.4437 65.2c-.4047.754-.984 1.361-1.7381 1.8208-.754.4598-1.6644.6897-2.7312.6897zm16.1386-.3311c-.9932 0-1.922-.1747-2.7864-.5242-.8461-.3494-1.5633-.8368-2.1519-1.4621l1.6001-2.1243c.5886.5334 1.1311.9196 1.6277 1.1587.515.2207.9748.3311 1.3794.3311.4782 0 .8736-.0736 1.1863-.2207.3127-.1472.469-.3863.469-.7173 0-.3127-.1288-.561-.3862-.7449-.2391-.1839-.5518-.3311-.938-.4414-.3863-.1288-.8001-.2575-1.2415-.3863-1.1035-.3494-1.9036-.8552-2.4002-1.5173-.4781-.6805-.7172-1.4162-.7172-2.207 0-.607.1563-1.2139.469-1.8208.331-.6254.846-1.1403 1.5449-1.545.7173-.423 1.6369-.6345 2.7588-.6345 1.0115 0 1.8668.1012 2.5657.3035.6989.2023 1.361.5333 1.9863.9931l-1.4622 2.2623c-.3494-.2759-.7448-.5058-1.1862-.6897-.4231-.2024-.8185-.3127-1.1863-.3311-.4966-.0184-.8828.0736-1.1587.2759-.2759.1839-.4138.4046-.4138.6621-.0184.3494.1103.6253.3862.8276.2943.2024.6621.3587 1.1035.469.4414.1104.8736.2391 1.2966.3863.8645.2942 1.5542.7173 2.0691 1.269.515.5334.7725 1.2507.7725 2.1519 0 .7357-.1931 1.4346-.5793 2.0967-.3679.6437-.938 1.1679-1.7105 1.5725-.7541.4046-1.7197.6069-2.8967.6069zm38.0039-12.3042l.3035 2.7588c.3494-.6989.8276-1.2967 1.4346-1.7933.6069-.5149 1.2046-.9012 1.7932-1.1586.5885-.2759 1.0391-.4139 1.3518-.4139l-.1931 3.8624c-.9012-.1104-1.6737.0367-2.3174.4414-.6437.4046-1.1403.938-1.4898 1.6001-.3494.6621-.5241 1.3426-.5241 2.0415v4.7175h-3.8348V55.0752h3.4761z"/><path fill="#0C1F6C" fill-rule="evenodd" d="M76.2868 61.2736c.06-2.2191 1.3636-6.1503 5.8175-6.4172 6.1076-.366 6.4074 5.4514 6.4674 6.7108l-8.5373.8398c.04.5597.5345 1.3735 2.0699 1.8053 1.5353.4318 2.9187-.1399 3.4185-.4798l1.7392 2.8188c-1.1395.5997-3.9583 1.6193-6.1173.8996-2.6989-.8996-4.6877-3.0048-4.8579-6.1773zm3.7086-.9526l5.3926-.3553c.04-.7197-.7745-2.4035-2.9934-2.2235-1.5554.1261-2.3991 1.3793-2.3992 2.5788z" clip-rule="evenodd"/><path fill="#0C1F6C" d="M71.129 49.8018h-3.7783v5.0977h-1.8592v2.9388h1.8592c-.02.7197.012 2.123.06 6.0573.0479 3.9343 4.3981 4.0583 6.5971 3.1187v-2.8788c-2.0425 1.3276-2.8788-2.0692-2.8788-4.5053v-1.7919h2.8788v-2.9388H71.129v-5.0977zM50.0527 8.79133L44.982.00749 26.8683 0l23.1649 40.1825L73.0482 0 55.0736.00749l-5.0209 8.78384z"/><path fill="#FF7521" d="M61.9051 19.4547L73.0481 0H55.0737l-1.6141 2.8306 8.4455 16.6241zM50.0328 8.75254L44.9831 0H26.8683l23.1649 40.1825 8.621-15.0516-8.6214-16.37836z"/></svg>