<svg xmlns="http://www.w3.org/2000/svg" role="img" viewBox="86.98 86.98 911.04 229.04"><title>Verizon Communications (member) logo</title><defs><clipPath id="a" clipPathUnits="userSpaceOnUse"><path d="M0 302.579h814.177V0H0z"/></clipPath></defs><path fill="#d52b1e" d="M961.546 104.667l-47.754 102.409-18.046-38.86h-19.51l29.632 63.545h15.768l59.267-127.094z"/><g clip-path="url(#a)" transform="matrix(1.33333 0 0 -1.33333 0 403.439)"><path d="M340.538 210.172h29.115v-25.778h-29.115zM111.51 81.469h30.412l33.012 94.948h-29.116l-18.545-61.011h-.371l-18.545 61.011H78.5zm106.817 76.962c10.199 0 17.246-7.606 18.359-18.732h-38.758c2.226 11.314 8.344 18.732 20.399 18.732m1.484-58.79c-12.796 0-20.584 8.347-22.069 21.14h68.431c.185 20.403-5.194 36.722-16.506 46.921-7.973 7.418-18.545 11.498-31.897 11.498-28.557 0-48.401-21.697-48.401-50.071 0-28.559 18.916-50.441 50.257-50.441 11.869 0 21.326 3.152 29.115 8.531 8.346 5.746 14.28 14.094 15.948 22.437h-27.817c-2.781-6.304-8.531-10.015-17.061-10.015m53.223-18.172h28.93v43.578c0 19.845 11.869 28.561 30.043 26.149h.556v25.036c-1.484.556-3.152.742-5.933.742-11.313 0-18.916-5.192-25.408-16.319h-.557v15.762h-27.631zm67.504 0h29.115v94.948h-29.115zm37.094 0h81.226v22.808h-45.99v.559l43.951 49.329v22.252h-79.187v-22.809h44.508v-.556l-44.508-49.7zm132.596 18.359c-13.725 0-20.956 11.496-20.956 28.93 0 17.618 7.231 28.931 20.956 28.931 13.722 0 21.326-11.313 21.326-28.931 0-17.434-7.604-28.93-21.326-28.93m.185 79.187c-30.228 0-50.441-21.698-50.441-50.257 0-28.375 20.213-50.258 50.441-50.258 30.229 0 50.441 21.883 50.441 50.258 0 28.559-20.212 50.257-50.441 50.257m56.748-97.546h28.93v52.851c0 12.056 7.047 20.587 17.431 20.587 10.014 0 15.207-7.049 15.207-17.063V81.469h28.93v61.937c0 20.958-12.609 35.794-33.01 35.794-12.98 0-22.068-5.564-28.929-15.763h-.557v12.98h-28.002z"/></g></svg>