<svg xmlns="http://www.w3.org/2000/svg" role="img" viewBox="9.96 7.71 391.82 182.57"><title>Vermiculus Financial Technology (supporter) logo</title><defs id="defs6"><clipPath id="clipPath18" clipPathUnits="userSpaceOnUse"><path id="path16" d="M 0,150.078 H 313.423 V 0 H 0 Z"/></clipPath></defs><g id="g10" transform="matrix(1.33333 0 0 -1.33333 0 200.104)"><g id="g12"><g id="g14" clip-path="url(#clipPath18)"><g id="g20" transform="translate(64.138 45.164)"><path id="path22" fill="#1d1d1b" fill-opacity="1" fill-rule="nonzero" stroke="none" d="m 0,0 h 5.709 l 4.455,-9.973 c 0.913,-2.094 1.903,-5.52 2.017,-5.862 0.038,0.19 0.99,3.654 1.979,5.862 L 18.5,0 h 5.177 L 12.333,-26.113 H 11.8 Z"/></g><g id="g24" transform="translate(91.314 45.164)"><path id="path26" fill="#1d1d1b" fill-opacity="1" fill-rule="nonzero" stroke="none" d="M 0,0 H 17.13 V -4.682 H 5.33 v -5.938 h 10.391 v -4.568 H 5.33 v -6.015 h 12.333 v -4.682 l -17.663,0 z"/></g><g id="g28" transform="translate(123.364 32.754)"><path id="path30" fill="#1d1d1b" fill-opacity="1" fill-rule="nonzero" stroke="none" d="M 0,0 C 2.627,0 4.302,1.028 4.302,3.882 4.302,6.775 2.55,7.727 0,7.727 H -4.111 V 0 Z m -9.44,12.409 h 9.592 c 5.291,0 9.631,-2.474 9.631,-8.527 0,-3.921 -2.055,-6.395 -5.063,-7.575 l 5.9,-9.783 H 4.529 l -5.252,8.984 h -3.388 v -8.984 H -9.44 Z"/></g><g id="g32" transform="translate(137.865 45.43)"><path id="path34" fill="#1d1d1b" fill-opacity="1" fill-rule="nonzero" stroke="none" d="M 0,0 H 0.419 L 13.171,-14.008 25.734,0 h 0.456 v -26.151 h -5.139 v 9.707 c 0,1.751 0.19,4.529 0.19,4.529 0,0 -1.56,-2.284 -2.779,-3.654 l -5.138,-5.748 h -0.495 l -5.139,5.748 c -1.218,1.37 -2.779,3.654 -2.779,3.654 0,0 0.19,-2.778 0.19,-4.529 v -9.707 H 0 Z"/></g><path id="path36" fill="#1d1d1b" fill-opacity="1" fill-rule="nonzero" stroke="none" d="M 169.572,45.164 H 174.9 V 19.279 h -5.328 z"/><g id="g38" transform="translate(179.506 32.221)"><path id="path40" fill="#1d1d1b" fill-opacity="1" fill-rule="nonzero" stroke="none" d="m 0,0 c 0,7.651 5.9,13.247 13.322,13.247 4.683,0 8.032,-1.675 10.355,-5.291 L 19.604,5.063 C 18.386,7.042 16.292,8.451 13.322,8.451 8.641,8.451 5.481,4.834 5.481,0 c 0,-4.834 3.16,-8.527 7.841,-8.527 3.351,0 5.216,1.599 6.662,3.807 l 4.15,-2.855 c -2.246,-3.502 -5.824,-5.71 -10.812,-5.71 C 5.9,-13.285 0,-7.651 0,0"/></g><g id="g42" transform="translate(207.481 28.643)"><path id="path44" fill="#1d1d1b" fill-opacity="1" fill-rule="nonzero" stroke="none" d="M 0,0 V 16.521 H 5.329 V 0.304 c 0,-3.768 1.637,-5.214 5.177,-5.214 3.502,0 5.101,1.446 5.101,5.214 v 16.217 h 5.33 V 0 c 0,-6.547 -4.531,-9.707 -10.431,-9.707 C 4.529,-9.707 0,-6.547 0,0"/></g><g id="g46" transform="translate(233.706 45.164)"><path id="path48" fill="#1d1d1b" fill-opacity="1" fill-rule="nonzero" stroke="none" d="m 0,0 h 5.33 v -21.203 h 11.724 v -4.682 l -17.054,0 z"/></g><g id="g50" transform="translate(253.539 28.49)"><path id="path52" fill="#1d1d1b" fill-opacity="1" fill-rule="nonzero" stroke="none" d="M 0,0 V 16.521 H 5.329 V 0.304 c 0,-3.768 1.637,-5.214 5.178,-5.214 3.501,0 5.1,1.446 5.1,5.214 v 16.217 h 5.33 V 0 c 0,-6.547 -4.531,-9.707 -10.43,-9.707 C 4.529,-9.707 0,-6.547 0,0"/></g><g id="g54" transform="translate(277.328 24.227)"><path id="path56" fill="#1d1d1b" fill-opacity="1" fill-rule="nonzero" stroke="none" d="m 0,0 4.34,2.512 c 1.141,-1.865 2.626,-3.236 5.253,-3.236 2.208,0 3.616,1.104 3.616,2.627 0,1.827 -1.446,2.474 -3.883,3.54 L 7.994,6.014 c -3.845,1.637 -6.395,3.693 -6.395,8.032 0,3.997 3.046,7.042 7.803,7.042 3.388,0 5.825,-1.18 7.577,-4.263 l -4.15,-2.665 c -0.914,1.637 -1.903,2.284 -3.427,2.284 -1.56,0 -2.549,-0.989 -2.549,-2.284 0,-1.598 0.989,-2.245 3.273,-3.235 l 1.332,-0.571 c 4.53,-1.941 7.081,-3.921 7.081,-8.375 0,-4.796 -3.768,-7.423 -8.832,-7.423 C 4.759,-5.444 1.561,-3.083 0,0"/></g><g id="g58" transform="translate(36.514 111.931)"><path id="path60" fill="#d51224" fill-opacity="1" fill-rule="nonzero" stroke="none" d="m 0,0 c -0.707,-2.558 -1.175,-5.137 -0.589,-7.159 0.558,-1.996 1.967,-3.349 3.816,-4.574 1.829,-1.227 4.022,-2.23 6.265,-3.255 l 3.444,-1.526 c 1.169,-0.506 2.341,-1.045 3.521,-1.603 1.187,-0.545 2.367,-1.142 3.547,-1.775 1.186,-0.62 2.357,-1.307 3.515,-2.048 2.316,-1.474 4.574,-3.245 6.514,-5.468 1.912,-2.221 3.463,-5.001 3.966,-7.974 0.751,-3.39 -0.287,-6.593 -0.984,-8.406 -0.697,-1.814 -3.073,-4.221 -3.073,-4.221 0,0 1.251,2.556 1.555,4.5 0.304,1.943 -0.6,4.908 -1.592,6.88 -0.982,1.975 -2.388,3.599 -4.11,5.009 -3.429,2.841 -7.868,4.92 -12.393,7.17 -1.139,0.56 -2.294,1.122 -3.445,1.731 -1.16,0.592 -2.323,1.215 -3.479,1.897 -2.317,1.346 -4.648,2.886 -6.754,4.994 -1.03,1.067 -2.018,2.29 -2.702,3.761 -0.718,1.438 -1.045,3.131 -0.928,4.697 0.105,1.577 0.649,2.989 1.347,4.2 C -1.858,-1.952 -0.973,-0.914 0,0"/></g><g id="g62" transform="translate(43.616 138.538)"><path id="path64" fill="#d51224" fill-opacity="1" fill-rule="nonzero" stroke="none" d="M 0,0 C -0.518,-1.271 -0.935,-2.537 -1.161,-3.765 -1.373,-5 -1.364,-6.181 -1.135,-7.254 c 0.475,-2.143 1.816,-3.913 3.483,-5.59 1.653,-1.683 3.644,-3.218 5.66,-4.795 l 3.097,-2.37 c 1.051,-0.792 2.094,-1.616 3.139,-2.461 1.053,-0.835 2.089,-1.712 3.113,-2.626 1.034,-0.903 2.036,-1.865 3.013,-2.873 1.957,-2.009 3.787,-4.258 5.256,-6.828 1.44,-2.57 2.495,-5.506 2.668,-8.518 0.178,-4.262 -1.229,-7.512 -1.734,-8.447 -0.909,-1.679 -2.726,-3.09 -3.275,-3.648 0,0 1.588,2.261 1.819,4.045 0.15,1.146 -0.151,5.087 -0.923,7.301 -0.764,2.216 -1.946,4.207 -3.427,6.05 -2.95,3.701 -6.868,6.884 -10.868,10.233 -1.004,0.836 -2.024,1.676 -3.028,2.557 -1.016,0.868 -2.028,1.764 -3.021,2.71 -1.995,1.878 -3.95,3.926 -5.609,6.391 -0.806,1.245 -1.549,2.592 -2.047,4.084 -0.5,1.487 -0.736,3.128 -0.563,4.706 0.179,1.579 0.736,3.043 1.522,4.262 C -2.072,-1.847 -1.081,-0.842 0,0"/></g><g id="g66" transform="translate(13.914 16.448)"><path id="path68" fill="#d51224" fill-opacity="1" fill-rule="nonzero" stroke="none" d="m 0,0 c 0.265,-0.111 6.669,-3.326 11.703,-2.05 7.121,1.803 10.244,6.55 11.494,8.684 1.262,2.131 2.087,4.51 2.689,6.996 0.605,2.49 0.989,5.096 1.498,7.766 0.512,2.664 1.145,5.435 2.357,8.107 1.194,2.667 3.008,5.176 5.264,7.111 0.556,0.494 1.143,0.943 1.738,1.377 0.585,0.441 1.178,0.873 1.801,1.275 1.244,0.805 2.586,1.503 3.979,2.057 2.792,1.131 5.734,1.578 8.24,2.076 2.537,0.488 4.611,1.122 6.31,2.33 0.857,0.59 1.636,1.304 2.368,2.113 0.734,0.817 1.415,1.709 2.019,2.569 0.58,0.885 1.081,1.77 1.476,2.689 0.418,0.908 0.735,1.846 0.949,2.837 0.473,1.965 0.597,4.153 0.44,6.518 -0.162,2.365 -0.591,4.867 -1.024,7.486 -0.217,1.311 -1.734,10.02 -0.539,12.819 0.446,1.478 1.29,2.8 2.332,3.837 1.038,1.047 2.263,1.834 3.557,2.4 0.648,0.282 1.313,0.515 2,0.681 0.696,0.153 1.372,0.292 2.188,0.17 0.862,-0.129 0.866,-0.739 -0.06,-0.812 -0.406,-0.032 -1.06,-0.053 -2.051,-0.544 C 70.143,88.259 69.839,88.074 69.304,87.743 68.238,87.076 67.289,86.248 66.557,85.3 65.069,83.392 64.675,81.025 65.398,78.765 66.613,76.177 68.959,71.294 69.537,70.06 70.693,67.595 78.104,53.933 69.62,44.604 59.845,33.857 47.816,38.31 40.908,35.091 34,31.871 31.697,23.141 31.095,20.601 30.487,18.061 29.973,15.405 29.197,12.744 28.425,10.089 27.007,6.775 25.434,4.379 23.877,1.978 19.377,-3.538 10.115,-3.539 c -4.403,0 -10.433,3.03 -10.433,3.03 C -1.066,-0.099 -0.864,0.36 0,0"/></g></g></g></g></svg>