<svg id="Layer_1" data-name="Layer 1" xmlns="http://www.w3.org/2000/svg" viewBox="-4.4863300000000095 -6.41998000000001 368.16 412.88"><defs><style>.cls-1{fill:#f16827;}.cls-2{fill:none;}.cls-3{fill:#284e64;}.cls-4{fill:#f48029;}.cls-5{fill:#f89a2e;}.cls-6{fill:#f89921;}.cls-7{fill:#f4ae5c;}.cls-8{fill:#cd4e27;}.cls-9{fill:#f16938;}</style></defs><title>vitess-stacked-color</title><path class="cls-1" d="M80.93337,379.24411l.79537,3.53376h.26476l.75106-3.40084,14.00535-47.00655H110.3565L88.48827,396.6946H75.23505L53.41059,332.37048H67.01772Z"/><path class="cls-1" d="M129.17619,337.45121H116.27636v-9.67515h12.89983Zm0,59.24339H116.27636V348.89377h12.89983Z"/><path class="cls-1" d="M155.24279,337.18591v11.70786h8.08442v9.05593h-8.08442v24.34295a5.555,5.555,0,0,0,1.17035,3.97575,4.111,4.111,0,0,0,3.07124,1.193,12.35314,12.35314,0,0,0,1.76688-.11022,14.79,14.79,0,0,0,1.72257-.37607l1.06013,9.32177a26.16467,26.16467,0,0,1-3.77691.99421,22.56562,22.56562,0,0,1-3.99844.33176q-6.67038,0-10.27167-3.66776-3.60022-3.66667-3.59968-11.61817V357.9497H135.4062v-9.05593h6.98106V337.18591Z"/><path class="cls-1" d="M191.99927,397.62289q-10.692,0-16.69943-6.56069-6.009-6.56177-6.00847-16.89827v-1.768q0-10.73419,5.83124-17.58234,5.83231-6.84706,16.037-6.80384,9.6303,0,14.778,5.89825,5.14663,5.89716,5.14718,15.88137v6.67092H182.58889l-.13184.26584a12.90511,12.90511,0,0,0,2.98154,7.9515q2.673,3.04908,7.92988,3.04854a26.54242,26.54242,0,0,0,7.35605-.8829,30.0119,30.0119,0,0,0,6.25162-2.69517l3.48945,7.9515a23.93713,23.93713,0,0,1-7.77535,3.93252A34.48565,34.48565,0,0,1,191.99927,397.62289Zm-.83967-39.67319a7.16373,7.16373,0,0,0-5.98577,2.67356,13.39871,13.39871,0,0,0-2.54064,7.09021l.08862.22045h15.72792v-.97151a11.167,11.167,0,0,0-1.72365-6.605Q195.003,357.95024,191.1596,357.9497Z"/><path class="cls-1" d="M244.43829,383.44139a4.45037,4.45037,0,0,0-2.05433-3.64507q-2.0538-1.52373-7.62081-2.67247-8.39349-1.67934-12.74531-5.08126a11.09326,11.09326,0,0,1-4.35181-9.23316,13.17251,13.17251,0,0,1,5.2131-10.47051q5.2131-4.328,13.87243-4.32913,9.05485,0,14.51218,4.32913a12.65244,12.65244,0,0,1,5.2358,10.77958l-.08861.26584H243.952a6.25638,6.25638,0,0,0-1.8555-4.68358,8.67513,8.67513,0,0,0-10.249-.26476,4.8076,4.8076,0,0,0-1.81119,3.7996,4.29129,4.29129,0,0,0,1.87711,3.60076q1.8771,1.39081,7.62081,2.49524,8.79063,1.7685,13.09976,5.19149a11.38688,11.38688,0,0,1,4.30643,9.432,12.61776,12.61776,0,0,1-5.52217,10.55913q-5.52272,4.10758-14.5781,4.10867-9.54278,0-15.0871-4.83811-5.5454-4.837-5.2801-11.02274l.08861-.26476H228.357q.13291,3.84337,2.519,5.56648a10.3931,10.3931,0,0,0,6.22893,1.72257,8.86079,8.86079,0,0,0,5.45625-1.43511A4.65936,4.65936,0,0,0,244.43829,383.44139Z"/><path class="cls-1" d="M291.09146,383.44139a4.45034,4.45034,0,0,0-2.05433-3.64507q-2.0538-1.52373-7.62082-2.67247-8.39348-1.67934-12.7453-5.08126a11.09327,11.09327,0,0,1-4.35182-9.23316,13.17252,13.17252,0,0,1,5.21311-10.47051q5.2131-4.328,13.87243-4.32913,9.05484,0,14.51218,4.32913a12.65244,12.65244,0,0,1,5.2358,10.77958l-.08862.26584H290.60517a6.25638,6.25638,0,0,0-1.8555-4.68358,8.67515,8.67515,0,0,0-10.249-.26476,4.80762,4.80762,0,0,0-1.81118,3.7996,4.2913,4.2913,0,0,0,1.8771,3.60076q1.87711,1.39081,7.62082,2.49524,8.79063,1.7685,13.09976,5.19149a11.38688,11.38688,0,0,1,4.30643,9.432,12.61777,12.61777,0,0,1-5.52218,10.55913q-5.5227,4.10758-14.5781,4.10867-9.54276,0-15.08709-4.83811-5.54541-4.837-5.2801-11.02274l.08861-.26476h11.7954q.13293,3.84337,2.519,5.56648a10.39308,10.39308,0,0,0,6.22892,1.72257,8.8608,8.8608,0,0,0,5.45626-1.43511A4.65936,4.65936,0,0,0,291.09146,383.44139Z"/><polygon class="cls-2" points="64.131 114.91 64.122 114.92 64.122 114.92 64.131 114.91 64.131 114.91"/><polygon class="cls-3" points="202.216 198.197 202.249 198.026 213.558 131.813 202.216 198.197"/><polygon class="cls-3" points="283.901 131.656 247.198 197.988 177.813 323.677 177.816 323.682 247.214 197.972 283.918 131.649 324.016 58.915 283.901 131.656 283.901 131.656"/><polygon class="cls-3" points="285.155 1.552 273.374 23.082 285.161 1.552 285.155 1.552"/><polygon class="cls-3" points="64.131 114.91 109.126 66.621 64.131 114.91 64.131 114.91"/><polygon class="cls-3" points="73.709 132.399 73.709 132.399 123.399 92.927 73.709 132.399"/><polygon class="cls-3" points="73.709 132.399 70.375 126.321 73.701 132.399 109.056 197.297 114.796 207.882 109.051 197.283 73.709 132.399"/><polygon class="cls-3" points="86.105 109.377 109.126 66.621 123.399 92.927 151.074 143.976 123.415 92.92 109.131 66.6 73.551 1.552 73.543 1.552 109.126 66.621 86.105 109.377"/><polygon class="cls-3" points="189.675 215.037 189.838 215.338 196.5 227.585 189.675 215.037"/><polygon class="cls-3" points="236.705 89.875 213.546 131.799 187.785 179.236 213.558 131.813 236.705 89.875"/><polygon class="cls-1" points="144.368 262.436 177.806 323.691 196.208 229.086 144.368 262.436"/><polygon class="cls-4" points="196.5 227.585 189.838 215.338 166.997 173.348 144.368 262.436 196.208 229.086 196.5 227.585"/><polygon class="cls-5" points="109.051 197.283 114.796 207.882 144.368 262.436 166.997 173.348 109.051 197.283"/><polygon class="cls-1" points="109.051 197.283 166.997 173.348 151.074 143.976 123.399 92.927 109.051 197.283"/><polygon class="cls-6" points="202.216 198.197 213.558 131.813 187.785 179.236 178.997 195.407 189.675 215.037 196.5 227.585 202.216 198.197"/><polygon class="cls-5" points="73.709 132.399 109.051 197.283 123.399 92.927 73.709 132.399"/><polygon class="cls-4" points="247.198 197.988 283.901 131.656 202.249 198.026 247.198 197.988"/><polygon class="cls-7" points="109.126 66.621 86.105 109.377 73.709 132.399 123.399 92.927 109.126 66.621"/><polygon class="cls-7" points="202.249 198.026 249.302 67.05 236.705 89.875 213.558 131.813 202.249 198.026"/><polygon class="cls-8" points="73.709 132.399 86.105 109.377 109.126 66.621 64.131 114.91 64.122 114.92 70.375 126.321 73.709 132.399 73.709 132.399"/><polygon class="cls-9" points="283.901 131.656 249.302 67.05 249.302 67.05 202.249 198.026 283.901 131.656"/><polygon class="cls-9" points="64.131 114.91 109.126 66.621 73.543 1.552 73.539 1.543 73.539 1.543 64.122 114.92 64.131 114.91"/><polygon class="cls-5" points="283.901 131.656 285.165 1.552 285.165 1.543 285.161 1.552 273.374 23.082 249.302 67.05 249.302 67.05 283.901 131.656 283.901 131.656"/><polygon class="cls-5" points="73.539 1.543 2.751 1.543 64.122 114.92 64.122 114.92 73.539 1.543"/><polygon class="cls-8" points="285.165 1.543 285.165 1.552 283.901 131.656 324.016 58.915 355.655 1.543 285.165 1.543"/><polygon class="cls-8" points="202.249 198.026 202.216 198.197 196.5 227.585 196.208 229.086 177.806 323.691 177.813 323.677 247.198 197.988 202.249 198.026"/></svg>