<svg xmlns="http://www.w3.org/2000/svg" role="img" viewBox="-6.88 10.87 410.02 208.77"><title>Wallarm (member) logo</title><path fill="none" d="M0 0h400v245H0z" pointer-events="none"/><defs><clipPath id="a"><path d="M0 595.276h595.276V0H0z"/></clipPath></defs><path fill="#ff6000" d="M360.223 70.525V33.253l-74.537 33.116V18.746L210.29 52.24v75.39l74.54-33.113v21.813l74.477-33.088v13.24l35.82-15.908V55.022z"/><path fill="#1d252c" d="M65.7 191.77l12.273-41.133H91.72l-19.659 60.454h-12.27l-13.408-41.023L32.86 211.09H20.589L1.158 150.637h14.09l12.045 41.133 13.294-41.36h11.705zm89.888-64.087h13.75v82.953h-13.75zm23.717 0h13.75v82.953h-13.75z"/><g clip-path="url(#a)" transform="matrix(1.0085 0 0 -1.0085 -101.867 458.131)"><path fill="#1d252c" d="M374.55 245.411h-13.634v59.493h13.634v-13.408c3.719 8.901 10.59 14.986 21.07 14.535v-14.423h-.788c-11.944 0-20.282-7.772-20.282-23.548zm97.723 60.734c12.96 0 20.845-8.226 20.845-22.761V245.41h-13.634v33.804c0 9.465-4.393 14.535-12.055 14.535-7.436 0-12.733-5.182-12.733-14.761V245.41h-13.632v33.916c0 9.24-4.508 14.423-12.058 14.423-7.548 0-12.732-5.633-12.732-14.875V245.41H402.64v59.493h13.634v-9.013c3.831 5.296 9.014 10.254 18.142 10.254 8.563 0 14.534-4.17 17.69-10.477 4.845 6.308 11.153 10.477 20.167 10.477m-132.06-39.21c0-7.437-6.76-12.507-15.774-12.507-6.424 0-11.494 3.154-11.494 8.787v.228c0 6.085 5.07 9.577 13.634 9.577 5.296 0 10.142-1.015 13.634-2.368zm-12.957 38.874c-7.294 0-12.736-1.152-17.769-2.97v-12.453c4.97 1.982 9.684 3.253 15.853 3.253 9.466 0 14.65-4.506 14.65-12.733v-1.464c-4.62 1.464-9.24 2.479-16.452 2.479-13.858 0-24.113-6.31-24.113-19.158v-.223c0-11.944 9.915-18.366 21.182-18.366 9.015 0 15.211 3.72 19.268 8.56v-7.322h13.521v35.27c0 15.885-8.564 25.127-26.14 25.127m-93.457-38.874c0-7.437-6.76-12.507-15.774-12.507-6.424 0-11.495 3.154-11.495 8.787v.228c0 6.085 5.07 9.577 13.635 9.577 5.296 0 10.14-1.015 13.634-2.368zm-12.96 38.874c-7.705 0-13.337-1.297-18.612-3.296v-12.464c5.287 2.174 10.18 3.59 16.699 3.59 9.464 0 14.648-4.506 14.648-12.733v-1.464c-4.62 1.464-9.238 2.479-16.45 2.479-13.86 0-24.113-6.31-24.113-19.158v-.223c0-11.944 9.915-18.366 21.182-18.366 9.015 0 15.21 3.72 19.268 8.56v-7.322h13.52v35.27c0 15.885-8.563 25.127-26.141 25.127"/></g></svg>