<svg xmlns="http://www.w3.org/2000/svg" role="img" viewBox="-4.11 85.39 408.72 77.22"><path fill="#1fa6df" d="M41.554 154.75c-3.628.07-7.224-.168-10.581-1.725a1.797 1.797 0 0 0-1.542.171 27.098 27.098 0 0 1-13.988 1.317c-6.952-1.154-11.194-6.206-11.58-13.313-.24-4.39.753-8.613 1.475-12.875.934-5.512 1.94-11.012 2.894-16.521.388-2.244.823-2.646 3.096-2.653 1.807-.005 3.614-.013 5.42.002 1.859.016 2.297.507 1.986 2.284-.83 4.753-1.72 9.495-2.518 14.253-.664 3.956-1.63 7.867-1.85 11.89-.318 5.82 1.454 7.683 7.311 7.732 1.265.01 2.53 0 3.793.054.714.03 1.04-.204 1.169-.945q2.826-16.328 5.693-32.648c.38-2.194.803-2.614 2.981-2.622 2.033-.008 4.066-.028 6.097.01 1.467.027 1.926.637 1.671 2.086q-2.885 16.385-5.784 32.766c-.162.911-.147 1.442 1.039 1.364 1.71-.112 3.43-.04 5.145-.104a7.829 7.829 0 0 0 7.403-4.978 38.873 38.873 0 0 0 2.327-9.149q1.78-10.055 3.544-20.114a2.012 2.012 0 0 1 2.12-1.87c2.259-.018 4.518-.036 6.775.011 1.262.027 1.739.622 1.517 1.824-1.61 8.733-2.925 17.521-4.75 26.215a30.216 30.216 0 0 1-3.134 8.47c-3.155 5.698-8.101 8.534-14.48 9.056-1.077.088-2.166.012-3.249.012zm298.926-46.13a46.973 46.973 0 0 1 6.214.393c.741.087 1.05-.124 1.179-.873.704-4.088 1.463-8.167 2.18-12.253.357-2.025.82-2.455 2.828-2.459 2.033-.004 4.066-.018 6.099.005 1.505.017 1.949.527 1.69 2.018q-2.506 14.394-5.046 28.781c-1.5 8.527-3.045 17.046-4.485 25.583a3.26 3.26 0 0 1-2.757 3.016 69.687 69.687 0 0 1-18.114 1.968c-8.024-.29-13.477-5.565-14.166-13.566-.36-4.17.68-8.158 1.287-12.206a34.621 34.621 0 0 1 2.562-9.086c2.893-6.453 7.972-9.934 14.858-10.984a39.656 39.656 0 0 1 5.671-.337zm-13.998 30.022c-.042 5.383 1.625 7.217 6.113 7.52a46.107 46.107 0 0 0 7.826-.331c.665-.068.894-.35.996-1.002.355-2.272.788-4.531 1.187-6.796q1.676-9.527 3.356-19.053c.154-.866.015-1.291-1.014-1.376-2.162-.18-4.322-.317-6.49-.317-4.99 0-7.826 1.92-9.296 6.654a83.558 83.558 0 0 0-2.678 14.701zm-67.209 5.447c-2.267-2.287-4.45-4.49-6.634-6.691-.37-.374-.242-.849-.245-1.286-.016-2.439-.045-4.878-.003-7.315a1.12 1.12 0 0 0-.98-1.316q-4.124-1.06-8.222-2.22a1.296 1.296 0 0 0-1.61.626c-.383.639.343.826.628 1.128a88.783 88.783 0 0 0 3.73 3.74c.573.538.537.87-.015 1.39-1.282 1.207-2.545 2.44-3.735 3.735-.64.696-1.024.55-1.595-.057-1.237-1.315-2.532-2.576-3.824-3.838-.249-.243-.473-.796-.967-.344-.352.322-.821.6-.652 1.225.805 2.956 1.619 5.91 2.387 8.876.189.728.701.577 1.168.581 2.573.025 5.147.06 7.72.035a2.247 2.247 0 0 1 1.782.734 246.76 246.76 0 0 0 5.955 5.922c.65.62.661.935-.066 1.501a20.902 20.902 0 0 1-11.514 4.229c-3.346.264-6.69.204-9.838-1.202-5.371-2.4-8.014-6.733-8.775-12.417-.547-4.082.579-7.973 1.255-11.917a33.708 33.708 0 0 1 3.342-10.376c3.07-5.726 7.932-8.85 14.24-9.84a24.596 24.596 0 0 1 10.741.341 14.35 14.35 0 0 1 10.323 13.035c.323 4.354-.794 8.508-1.54 12.716a29.841 29.841 0 0 1-3.056 9.005zM88.782 154.813a20.003 20.003 0 0 1-7.613-.915c-5.674-1.993-8.548-6.18-9.25-12.022-.528-4.383.568-8.61 1.24-12.876a31.752 31.752 0 0 1 3.135-10.018 18.386 18.386 0 0 1 14.565-9.997c7.076-.967 14.033-.033 20.894 1.75 1.608.418 1.824.874 1.55 2.429q-3.211 18.241-6.41 36.485c-.4 2.291-.728 2.688-2.984 3.215a67.285 67.285 0 0 1-15.127 1.949zm7.197-37.534c-7.914-.528-10.412 3.542-11.838 9.523a44.875 44.875 0 0 0-.737 3.986c-.444 3.073-1.261 6.102-1.155 9.241.131 3.865 1.941 5.793 5.783 6.123a46.032 46.032 0 0 0 8.224-.326c.722-.068.836-.471.937-1.06.767-4.438 1.564-8.872 2.346-13.308.712-4.037 1.396-8.078 2.135-12.11.2-1.088.197-1.741-1.242-1.814-1.482-.075-2.968-.172-4.453-.255zm51.803 36.948c-1.084 0-2.168.01-3.252-.002-1.494-.016-1.944-.532-1.686-2.017q1.443-8.329 2.919-16.652c.657-3.73 1.347-7.454 1.97-11.189a14.479 14.479 0 0 0 .16-2.969c-.096-2.26-1.046-3.426-3.266-3.815a28.776 28.776 0 0 0-7.69-.073 4.758 4.758 0 0 0-4.277 3.77 71.676 71.676 0 0 0-1.647 8.215c-1.356 7.543-2.674 15.092-4.03 22.635-.303 1.686-.854 2.093-2.578 2.096q-3.049.006-6.097 0c-1.66-.005-2.143-.54-1.864-2.123q1.53-8.657 3.087-17.309c.81-4.525 1.408-9.093 2.539-13.555.944-3.727 2.373-7.215 5.61-9.618a15.326 15.326 0 0 1 7.678-2.736 48.846 48.846 0 0 1 11.488-.094c9.097 1.159 12.404 8.507 11.348 15.523-1.397 9.27-3.147 18.488-4.762 27.725-.298 1.708-.924 2.183-2.67 2.187-.993.003-1.987 0-2.98.001zm138.098.634a16.545 16.545 0 0 1-8.1-1.852c-4.806-2.501-6.857-6.694-7.154-11.918-.228-4.014.755-7.889 1.417-11.794 1.01-5.955 2.11-11.895 3.168-17.841.33-1.858.82-2.294 2.683-2.304q2.913-.016 5.825 0c1.91.01 2.36.51 2.034 2.368-.834 4.751-1.747 9.488-2.537 14.245-.708 4.267-1.763 8.48-2.065 12.81a17.32 17.32 0 0 0 .044 2.84 4.304 4.304 0 0 0 3.794 4.132 14.032 14.032 0 0 0 5.38-.043 7.177 7.177 0 0 0 5.173-4.173 28.67 28.67 0 0 0 2.165-8.066c1.3-7.278 2.571-14.561 3.87-21.84.326-1.832.87-2.266 2.727-2.273 2.123-.009 4.246-.027 6.367.014 1.24.023 1.762.619 1.55 1.816-1.66 9.364-3.172 18.76-5.085 28.073-1.226 5.972-4.359 10.854-10.063 13.69-2.76 1.372-5.842 2.002-11.193 2.116zm88.644-.026a57.3 57.3 0 0 1-12.753-1.417c-1.61-.39-1.933-.836-1.689-2.494.198-1.337.512-2.656.73-3.991a1.73 1.73 0 0 1 2.146-1.548c4.038.473 8.092.696 12.15.86a13.423 13.423 0 0 0 4.421-.462 3.902 3.902 0 0 0 1.65-6.674 35.829 35.829 0 0 0-4.792-3.53c-2.026-1.435-4.098-2.805-6.13-4.23a11.689 11.689 0 0 1-5.225-12.084c.758-4.997 3.908-7.953 8.559-9.505 4.255-1.42 8.635-1.268 13.01-.969a52.1 52.1 0 0 1 8.553 1.288c1.68.401 2.007.865 1.752 2.578a66.058 66.058 0 0 1-.642 3.595c-.36 1.746-.873 2.103-2.635 1.86a85.78 85.78 0 0 0-12.553-.828 7.941 7.941 0 0 0-3.689.698 2.954 2.954 0 0 0-.844 4.946 16.707 16.707 0 0 0 2.429 1.937c2.669 1.855 5.322 3.736 8.056 5.491 4.627 2.97 6.912 7.034 6.064 12.586-.864 5.651-4.34 9.022-9.619 10.77a26.094 26.094 0 0 1-8.95 1.123zm-190.356-8.989a54.303 54.303 0 0 0 7.423-.455c1.452-.174 1.953.364 1.69 1.774-.305 1.639-.648 3.27-.95 4.91a1.74 1.74 0 0 1-1.299 1.573c-5.819 1.202-11.695 2.195-17.463.008-5.946-2.255-9.543-8.27-8.836-15.124.609-5.906 1.47-11.827 3.663-17.417 3.14-8.005 9.444-12.303 18.046-12.465a46.879 46.879 0 0 1 11.302.868c1.84.416 2.06.788 1.702 2.636-.274 1.416-.493 2.843-.782 4.255-.279 1.366-.93 1.853-2.3 1.666a80.185 80.185 0 0 0-9.452-.52c-4.111-.075-6.79 2.005-8.451 5.603-1.498 3.242-1.772 6.785-2.445 10.226-.527 2.695-1.147 5.387-.59 8.173a4.824 4.824 0 0 0 4.818 4.277c1.305.067 2.616.012 3.924.012zm21.922 8.381c-.949 0-1.897.002-2.845 0-1.888-.005-2.313-.476-1.997-2.381.464-2.8.987-5.591 1.48-8.387l7.164-40.608c.438-2.485.875-4.97 1.332-7.453.28-1.516.82-1.957 2.396-1.968q3.182-.02 6.365.001c1.586.011 2.047.54 1.776 2.075q-2.08 11.782-4.182 23.56-2.895 16.375-5.772 32.753c-.35 1.985-.835 2.406-2.874 2.408h-2.844z"/></svg>