<svg xmlns="http://www.w3.org/2000/svg" role="img" viewBox="-1.88 -2.38 149.63 47.76"><title>wapm logo</title><path fill="#231044" d="M48 12.5925c1.0123 0 1.9726-.0076 2.9316.0127.0863.0013.2144.175.2461.2892.3438 1.2406.6723 2.4863 1.0059 3.7308.8512 3.1713 1.7037 6.3427 2.5574 9.514.0355.1307.0761.2601.1421.4846.0659-.1776.1053-.2651.1319-.3565 1.2762-4.3891 2.5498-8.7808 3.8272-13.1699.1776-.6089.0698-.4973.6736-.5036.5607-.0064 1.1201-.0051 1.6808 0 .6064.0063.4909-.0901.6571.482.7979 2.7477 1.5882 5.4979 2.3823 8.2468.4833 1.6744.9654 3.3476 1.45 5.0221.0202.0711.0469.1396.0989.2918.0951-.3235.1738-.5747.2423-.8284 1.1556-4.3029 2.3113-8.6057 3.4618-12.9111.0558-.2106.1294-.3172.3781-.3121.8346.0177 1.6693.0063 2.504.0076.0825 0 .1662.0101.2893.019-.0229.118-.0355.2182-.0635.3146-1.6338 5.782-3.2702 11.5615-4.8952 17.346-.0812.288-.2005.378-.4973.3704-.9083-.0215-1.8178-.0165-2.7261-.0025-.2461.0038-.3374-.0774-.4059-.3159-1.1848-4.1202-2.3811-8.2366-3.576-12.353-.0343-.1167-.0698-.2334-.1814-.3539-.1332.4478-.269.8943-.3996 1.3434-1.1075 3.8018-2.2149 7.6023-3.3147 11.4066-.0609.2119-.1586.2766-.3768.2741-.9514-.0127-1.9028-.0127-2.8529 0-.2258.0025-.3083-.0812-.3666-.2867-1.6415-5.8137-3.2868-11.6249-4.9296-17.4361-.0253-.0888-.0418-.1801-.0748-.326zm53.39 5.1782h2.744v1.3839c.022.0153.043.0305.066.0457.911-1.2723 2.174-1.7899 3.684-1.7772 1.541.0127 2.749.6444 3.575 1.9827.053-.0419.091-.0609.114-.0926.919-1.3142 2.218-1.8724 3.781-1.885 1.732-.014 3.164.5924 4.124 2.0943.607.9463.808 2.0119.812 3.1181.008 2.5688 0 5.1363.009 7.7051.001.2473-.091.2993-.316.2955-.708-.0126-1.417-.0177-2.125.0026-.278.0076-.357-.0685-.356-.3514.011-2.4305.014-4.8623 0-7.2928-.003-.4288-.041-.8715-.156-1.2825-.315-1.1252-1.21-1.7341-2.409-1.6999-1.393.0394-2.357.855-2.613 2.2568-.083.4541-.109.9235-.112 1.3865-.011 2.1882-.005 4.3752-.005 6.5634v.3907c-.131.0089-.222.0216-.315.0216-.707.0012-1.417-.0127-2.124.0076-.286.0076-.356-.085-.354-.359.01-2.3988.011-4.7989 0-7.1977-.003-.4402-.022-.8956-.127-1.3193-.363-1.4525-1.784-2.1248-3.286-1.5793-1.041.378-1.564 1.1823-1.754 2.2237-.075.4123-.093.8398-.095 1.261-.009 2.1983-.009 4.3967.001 6.5951.001.2829-.066.3856-.368.3767-.79-.0215-1.58-.0076-2.394-.0076-.001-4.299-.001-8.5639-.001-12.8667zm-17.9079 1.7187v-1.7163h2.749v12.8376h-2.7464v-1.7646c-.1066.099-.1624.1408-.2068.1941-1.1594 1.3992-2.6829 1.9574-4.4602 1.9155-3.1776-.0761-5.7223-2.5485-6.1612-5.6564-.3489-2.466.3399-4.5997 2.1945-6.3084 2.1159-1.9472 5.5955-2.1096 7.728-.3628.3069.2511.5746.5467.9031.8613zm-4.0631 8.8202c2.3316-.0039 4.0632-1.7595 4.0644-4.119.0013-2.3519-1.743-4.1189-4.0669-4.1215-2.3405-.0025-4.0923 1.7747-4.0796 4.1393.0139 2.362 1.7493 4.105 4.0821 4.1012zm46.07-2.9278c.361 1.441 1.184 2.4051 2.56 2.7946 1.868.5289 3.559.2537 4.906-1.3422.739.4313 1.482.8652 2.313 1.3498-.404.4287-.746.855-1.151 1.2114-1.13.9958-2.482 1.4614-3.97 1.5464-1.733.0989-3.371-.217-4.821-1.228-1.483-1.0338-2.341-2.4749-2.633-4.2432-.329-1.984.024-3.8374 1.242-5.4687 1.056-1.4144 2.497-2.2085 4.235-2.4825 1.382-.2182 2.724-.1028 3.99.5188 1.938.9514 3.052 2.546 3.518 4.6213.178.8004.196 1.6098.104 2.4267-.03.2588-.132.2994-.358.2994-3.172-.0064-6.343-.0038-9.514-.0038h-.421zm7.483-2.2974c.089-1.5374-1.615-3.0812-3.472-3.1421-2.403-.0787-3.775 1.5298-3.987 3.1421h7.459zm-41.9788 3.5001c.0837.165.1522.3172.2372.4593.6152 1.0313 1.5857 1.3903 2.7185 1.3522.4643-.0152.9577-.1027 1.3776-.2905.9286-.4148.9996-1.5704.1142-2.0588-.5924-.3273-1.2686-.5049-1.9143-.7332-.6571-.2322-1.3345-.4085-1.9789-.6698-1.6529-.6685-2.4495-1.7417-2.4254-3.2792.0254-1.6808.8651-2.8707 2.4001-3.4783 2.1032-.8322 4.1227-.6419 5.9431.7941.4668.3691.8283.8372 1.1226 1.4169-.7725.4339-1.5311.8601-2.3151 1.3003-.0685-.1066-.1268-.1903-.1801-.2778-.6787-1.11-2.3379-1.5388-3.4745-.8981-.8576.4845-.9223 1.5285-.0723 2.0157.5315.3044 1.1467.4706 1.7328.6761.7675.2677 1.5616.4643 2.31.7738 2.3316.9641 3.0496 3.6686 1.5007 5.6082-.6762.8474-1.6085 1.2838-2.65 1.4969-1.507.3082-2.9874.2334-4.4069-.4047-1.0059-.4516-1.7658-1.1785-2.2948-2.1489-.1142-.2106-.1002-.3235.1243-.4465.6292-.3451 1.2445-.7167 1.8673-1.077.0799-.0444.1662-.0812.2639-.1307zM138.3 30.6348V17.7756h2.756v1.9371c.884-1.5197 2.223-2.1629 3.944-2.1895v3.0001c-.159 0-.322-.0076-.486.0013-1.134.0634-2.136.4059-2.829 1.3738-.412.5759-.6 1.2368-.606 1.9358-.018 2.1235-.013 4.2458-.018 6.3693-.001.4326-.001.4326-.425.4326-.767-.0013-1.536-.0013-2.336-.0013z"/><path fill="#4946DD" d="M11.7507 16.8006v.118c0 1.3862-.8996 1.9909-2.00561 1.3518-1.10604-.639-2.00562-2.2809-2.00562-3.6671v-.118L1 10.592v21.875l17.5 10.1019v-21.875l-6.7493-3.8933z"/><path fill="#4946DD" d="M20.5007 11.752v.118c0 1.3862-.8996 1.9908-2.0056 1.3518-1.1061-.6391-2.0056-2.2809-2.0056-3.66714v-.11798L9.75 5.54834v7.82586l10.7163 6.1889v14.0491l6.7837 3.9179v-21.875l-6.7493-3.9031z"/><path fill="#4946DD" d="M29.2507 6.70857v.11797c0 1.38624-.8996 1.99088-2.0056 1.35183-1.1061-.63904-2.0056-2.2809-2.0056-3.66713v-.11798L18.5.5v7.82584l10.7163 6.18886v14.0492L36 32.4817v-21.875l-6.7493-3.89813z"/></svg>