<svg xmlns="http://www.w3.org/2000/svg" role="img" viewBox="-1.66 -1.78 83.69 99.06"><title>wapm logo</title><path fill="#362B90" d="M65.3366 14.0334C65.3366 14.1209 65.3366 14.2084 65.3366 14.2958C65.3366 17.3792 63.3541 18.724 60.9167 17.3026C58.4792 15.8812 56.4967 12.2294 56.4967 9.14605C56.4967 9.05858 56.4967 8.97111 56.4967 8.88364L41.6444 0.224121L4.66016 29.6684V66.92L63.9405 69.3528L80.2105 22.6929L65.3366 14.0334Z"/><path fill="#4946DD" d="M24.0574 38.0901C24.0574 38.1775 24.0574 38.265 24.0574 38.3525C24.0574 41.4358 22.0749 42.7806 19.6375 41.3593C17.2 39.9379 15.2175 36.286 15.2175 33.2027C15.2175 33.1152 15.2175 33.0278 15.2175 32.9403L0.365234 24.2808V72.9359L38.9313 95.4047V46.7496L24.0574 38.0901Z"/><path fill="#4038B7" d="M41.6975.222408L56.5688 8.80277 15.2833 32.8602.412071 24.2798 41.6975.222408zM65.3381 14.0583L80.2094 22.6387 38.924 46.6961 24.0527 38.1158 65.3381 14.0583z"/><path fill="#362B90" d="M80.2053 71.2542L80.207 22.6406L38.9216 46.698L38.9198 95.3116L80.2053 71.2542Z"/></svg>