<svg xmlns="http://www.w3.org/2000/svg" role="img" viewBox="3.30 1.05 297.41 413.66"><title>Wavefront logo</title><style>svg {enable-background:new 0 0 303 420}</style><style/><path fill="#39ace2" d="M90.1 61.1l-77 19.7v155.1l77-20.2m24-137.2v131.1l77.5-19.7v-131m-77.5 275.7l77.5-19.7V214l-77.5 19.7m-24 5.9l-77 19.7v77.5l77-19.7M215.7 28.8v155.1l77-19.7V9.2m-77 275.7l77-19.7v-77.5l-77 19.7"/><g><path d="M37 406.4l-5.3-21.2h-.1l-5.2 21.2h-6.9l-8.2-31.1h6.8l4.9 21.2h.1l5.4-21.2h6.4l5.3 21.4h.1l5.1-21.4h6.7l-8.4 31.1H37zm33.8-31.1l11.6 31.1h-7.1l-2.4-6.9H61.4l-2.4 6.9h-6.9l11.8-31.1h6.9zm.4 19.1L67.3 383h-.1l-4.1 11.4h8.1zm19.8 12l-10.1-31.1h7l6.9 21.9h.2l7-21.9h7.1l-10.3 31.1H91zm45.1-31.1v5.8h-16.4v6.7h15.1v5.3h-15.1v7.6h16.8v5.8h-23.6v-31.1h23.2zm27.9 0v5.8h-15v7.2h13v5.3h-13v12.9h-6.8v-31.1H164zm21.8 0c1.4 0 2.7.2 3.8.7 1.1.5 2.1 1.1 2.9 1.9.8.8 1.4 1.7 1.8 2.7.4 1 .6 2.1.6 3.3 0 1.8-.4 3.4-1.2 4.7-.8 1.3-2 2.4-3.8 3.1v.1c.8.2 1.5.6 2.1 1.1.6.5 1 1 1.4 1.7.3.7.6 1.4.8 2.2.2.8.3 1.6.3 2.4 0 .5.1 1.1.1 1.7 0 .7.1 1.4.2 2 .1.7.2 1.4.3 2 .2.6.4 1.2.7 1.6H189c-.4-1-.6-2.2-.7-3.5-.1-1.4-.2-2.7-.4-3.9-.2-1.6-.7-2.8-1.5-3.6-.8-.8-2-1.1-3.7-1.1h-6.8v12.2h-6.8v-31.1h16.7zm-2.4 14.1c1.6 0 2.7-.3 3.5-1 .8-.7 1.2-1.8 1.2-3.4 0-1.5-.4-2.6-1.2-3.3-.8-.7-2-1-3.5-1h-7.5v8.8h7.5zm17.9-4.9c.7-2 1.7-3.7 3-5.2s2.9-2.6 4.8-3.5c1.9-.8 4-1.3 6.4-1.3 2.4 0 4.6.4 6.4 1.3 1.9.8 3.5 2 4.8 3.5s2.3 3.2 3 5.2 1 4.1 1 6.5c0 2.3-.3 4.4-1 6.3s-1.7 3.7-3 5.1c-1.3 1.5-2.9 2.6-4.8 3.4-1.9.8-4 1.2-6.4 1.2-2.4 0-4.5-.4-6.4-1.2-1.9-.8-3.5-2-4.8-3.4-1.3-1.5-2.3-3.2-3-5.1-.7-2-1-4.1-1-6.3 0-2.4.3-4.5 1-6.5zm6.3 10.3c.3 1.2.8 2.3 1.5 3.3s1.5 1.8 2.6 2.4c1.1.6 2.4.9 3.9.9s2.8-.3 3.9-.9c1.1-.6 1.9-1.4 2.6-2.4.7-1 1.2-2.1 1.5-3.3.3-1.2.5-2.5.5-3.8 0-1.4-.2-2.7-.5-4-.3-1.3-.8-2.4-1.5-3.4s-1.5-1.8-2.6-2.4c-1.1-.6-2.4-.9-3.9-.9s-2.8.3-3.9.9c-1.1.6-1.9 1.4-2.6 2.4-.7 1-1.2 2.1-1.5 3.4-.3 1.3-.5 2.6-.5 4 0 1.3.1 2.5.5 3.8zm35.8-19.5l13 20.9h.1v-20.9h6.4v31.1H256l-12.9-20.8h-.1v20.8h-6.4v-31.1h6.8zm24.1 5.7v-5.8H293v5.8h-9.3v25.4h-6.8V381h-9.4z"/></g></svg>