<svg xmlns="http://www.w3.org/2000/svg" role="img" viewBox="-12.43 -12.43 646.36 163.36"><title>WeWork (member) logo</title><g fill="#232324"><path d="M62.105 68.123c-2.887-.57-6.244-.76-9.954-.76-6.715 0-10.66.803-10.66 2.867 0 1.15.622 3.442 1.897 6.23 2.903 6.647 11.265 23.708 14.84 29.76 2.886-5.12 9.988-18.773 10.994-22.587.655-2.474.655-4.135.655-5.673 0-3.03-3.592-9.105-7.772-9.837zm5.631-7.815c13.17 0 23.544-.197 36.907-.612 2.29.211 2.098 5.879.644 6.657l-3.096.538c-4.835.965-7.713 1.913-7.713 2.888 0 1.536.386 2.633 1.636 5.86 3.811 9.122 9.602 21.399 14.234 30.507 5.003-10.962 8.302-20.245 11.618-29.028 1.275-3.37 1.887-6.05 1.887-7.391 0-.95-1.678-1.888-5.261-2.618l-3.51-.756c-1.276-1.394-1.276-5.86.824-6.657 6.898.36 11.851.555 17.096.555 6.051-.014 11.474-.218 16.04-.603 1.873.799 2.306 4.925.655 6.655l-2.937.554c-6.867 1.327-8.31 3.247-11.659 10.261-9.56 19.331-19.11 40.217-27.824 60.307-1.276 1.144-2.753 1.354-4.834 1.354-2.082.014-3.525-.21-4.801-1.318-4.382-10.232-15.267-32.422-21.536-44.508-5.373 9.836-17.837 35.09-22.646 44.539-1.242 1.145-2.703 1.328-4.784 1.361-2.114 0-3.542-.216-4.801-1.343-10.056-21.393-20.311-43.174-30.502-62.88-2.944-5.5-5.034-6.28-8.594-7.213L.985 66.5c-1.409-1.54-1.409-5.658.672-6.681 8.544.377 15.225.544 23.98.544l42.099-.054"/><path d="M183.303 82.736c2.87 0 6.245-.386 8.537-1.711 1.03-.57 1.46-2.466 1.46-4.382-.01-6.233-4.023-10.39-11.09-10.39-8.727.034-16.257 7.622-16.257 13.647 0 2.669 2.896 2.879 9.611 2.836zm-13.764 8.362c-4.802 0-5.222.392-5.222 3.42 0 14.212 10.039 28.038 29.443 27.994 5.817 0 13.781-1.106 19.388-9.869 2.268-.388 5.405 1.15 5.405 4.373-8.493 16.13-23.937 21.621-36.458 21.636-28.168.05-43.36-17.936-43.418-38.61 0-23.885 18.91-42.475 44.978-42.51 21.713-.034 33.372 12.672 33.389 27.27 0 3.55-.999 6.227-7.505 6.243l-40 .053m110.033-23.259c-2.903-.555-6.236-.747-9.987-.73-6.708 0-10.66.747-10.66 2.818 0 1.14.688 3.46 1.947 6.245 2.888 6.649 11.265 23.696 14.807 29.762 2.92-5.11 10.002-18.75 10.985-22.559.639-2.468.639-4.163.639-5.708 0-2.995-3.542-9.115-7.731-9.828zm5.641-7.806c13.11-.018 23.576-.215 36.907-.612 2.272.201 2.07 5.842.575 6.672l-3.09.537c-4.805.975-7.71 1.907-7.71 2.86 0 1.53.437 2.628 1.67 5.86 3.778 9.14 9.634 21.421 14.228 30.529 4.994-11.012 8.316-20.29 11.63-29.058 1.236-3.402 1.906-6.044 1.906-7.372 0-.98-1.71-1.896-5.253-2.642l-3.527-.755c-1.274-1.344-1.274-5.857.816-6.654 6.874.383 11.875.551 17.11.532 6.029 0 11.45-.182 16.033-.56 1.897.787 2.31 4.935.657 6.63l-2.93.606c-6.874 1.293-8.32 3.197-11.66 10.215-9.566 19.346-19.135 40.26-27.864 60.327-1.243 1.155-2.711 1.346-4.818 1.346-2.048 0-3.544-.191-4.776-1.346-4.357-10.22-15.268-32.397-21.528-44.515-5.432 9.878-17.861 35.123-22.67 44.582-1.251 1.134-2.686 1.354-4.775 1.354-2.116 0-3.543-.209-4.801-1.354-10.03-21.392-20.347-43.188-30.535-62.896-2.945-5.482-5.02-6.23-8.561-7.176l-3.743-.94c-1.477-1.495-1.51-5.7.604-6.632 8.537.36 15.21.54 23.988.528l42.117-.066"/><path d="M386.67 95.184c.05 19.866 6.965 34.497 19.027 34.468 11.851-.031 15.844-12.328 15.587-29.39-.21-18.397-6.06-34.328-17.921-34.328-9.256.048-16.71 8.611-16.694 29.25zm-30.015 4.195c-.235-27.1 23.317-42.124 47.901-42.124 24.59-.017 46.759 13.564 46.764 40.287.043 27.714-22.263 40.807-47.897 40.85-24.827.036-46.531-12.852-46.768-39.013"/><path d="M456.297 85.438c-.022-7.604-.022-9.883-3.984-12.169l-2.954-1.67c-1.46-1.176-1.46-4.54 0-5.707 9.609-2.495 23.98-7.61 30.458-11.399 1.644 0 2.922.575 3.735 1.713-.397 3.81-.813 6.42-.813 8.143 0 1.314.416 1.904 2.072 2.281 5.641-3.257 11.641-9.494 20.421-9.518 5.657 0 11.49 3.978 11.49 11.155.033 8.744-6.655 12.356-13.313 12.356-2.926 0-5.446-1.125-8.138-3.407-4.819-3.61-6.69-3.797-7.918-3.797-2.945.017-4.002 4.181-3.994 11.399l.034 29.217c.058 13.242.904 14.79 7.774 15.318l6.672.553c1.652 1.141 1.669 5.517-.194 6.633-10.057-.354-18.349-.542-28.152-.542-8.572.037-17.726.213-24.626.616-1.836-1.119-1.878-5.482-.216-6.639l3.976-.37c6.884-.596 7.708-2.285 7.67-15.56V85.439"/><path d="M520.121 30.152c-.017-7.62-.017-9.66-4.23-11.899l-3.543-1.898c-1.459-1.13-1.459-4.554 0-5.716 8.58-1.914 21.235-6.48 31.905-10.634 1.232 0 2.742.327 3.538 1.3-.378 7.77-.592 15.707-.592 27.69l.065 59.49c0 2.118.637 2.686 2.945 2.686 3.519 0 7.916-.947 12.103-5.318l8.705-9.345c3.962-4.337 5.012-6.404 5.012-7.563 0-.948-2.09-1.71-3.996-1.853l-5.181-.774c-1.887-1.684-1.71-5.871.395-6.639l4.996-.031c9.82 0 27.129-.975 39.416-2.653 2.094.915 2.317 5.07.872 6.612l-6.664 1.302c-3.954.806-8.379 2.696-13.983 6.69-7.89 5.498-11.063 8.311-13.96 11.021-1.05 1.125-1.26 1.894-1.26 2.467 0 .57.415 1.69 1.488 3.213 3.737 6.045 22.14 31.81 27.38 36.177 2.92 2.45 6.85 3.389 12.285 4.312l3.107.597c1.652 1.302 1.241 5.874-.805 6.611-6.455-.357-14.176-.55-26.252-.55-12.342 0-19.862.234-25.704.62-2.08-.932-2.47-4.918-.807-6.605l2.737-.613c2.067-.387 3.308-.763 3.308-1.474 0-.811-1.897-3.803-3.55-6.088l-14.856-20.464c-1.435-2.087-3.112-2.853-5.228-2.853-1.428 0-2.503.974-2.479 4.583l.012 10.97c.015 13.304.836 14.813 8.2 15.527l3.297.412c1.679 1.115 1.714 5.514-.218 6.622-6.655-.361-15.411-.548-25.006-.548-9.541.012-18.152.223-25.437.608-1.896-1.11-1.896-5.484-.25-6.615l3.993-.396c7.502-.737 8.36-2.281 8.342-15.578l-.1-83.403"/></g></svg>