<svg xmlns="http://www.w3.org/2000/svg" role="img" viewBox="-11.23 -10.73 921.96 888.96"><defs><style>.cls-2{fill:#32324b}</style></defs><path id="fagger" fill="#556991" d="M146.308 700.543h-30.13v112.083H96.654V700.543H73.996V683.91h22.658v-21.694c0-18.319 11.329-29.406 31.576-29.406 8.437 0 19.765.482 19.765.482v16.873c-1.205 0-10.364-.241-13.739-.241-10.365 0-18.078 1.205-18.078 14.703v19.283h30.13zm40.736 112.083h-19.765v-178.37h19.765zm112.003-50.136v-14.703s-27.96 3.615-42.182 5.785c-13.74 1.928-24.827 6.508-24.827 21.693 0 12.775 8.677 22.417 26.273 22.417 24.345 0 40.736-13.98 40.736-35.192zm-53.029-23.38c12.293-2.411 53.029-7.232 53.029-7.232v-6.99c0-17.837-7.713-26.274-30.371-26.274-24.345 0-31.094 11.088-32.058 24.104h-19.766c0-16.631 9.401-40.494 51.342-40.494 44.11 0 50.618 22.899 50.618 43.387v66.286c0 6.026.241 15.667 1.688 20.73h-20.007s-.482-6.99-.482-17.356c-6.267 8.196-18.8 19.043-45.074 19.043-24.827 0-43.387-14.463-43.387-38.567 0-26.755 21.452-33.986 34.468-36.638zm97.059 6.025c0-41.7 24.586-62.911 54.957-62.911 21.935 0 35.433 10.364 39.771 20.247v-18.56h19.525v127.992c0 24.827-12.052 48.69-57.368 48.69-33.745 0-54.234-13.498-54.957-41.94h20.006c0 14.703 10.365 25.55 35.433 25.55 28.925 0 37.12-13.258 37.12-34.47v-22.416c-4.338 9.883-18.319 20.247-40.253 20.247-30.371 0-54.234-20.729-54.234-62.429zm94.487-.24c0-32.782-14.462-45.798-37.602-45.798-20.488 0-36.879 11.57-36.879 45.556s16.39 46.039 36.88 46.039c23.14 0 37.601-13.017 37.601-45.798zm43.548.24c0-41.7 24.586-62.911 54.957-62.911 21.935 0 35.433 10.364 39.772 20.247v-18.56h19.524v127.992c0 24.827-12.052 48.69-57.367 48.69-33.746 0-54.234-13.498-54.957-41.94h20.006c0 14.703 10.365 25.55 35.433 25.55 28.924 0 37.12-13.258 37.12-34.47v-22.416c-4.339 9.883-18.32 20.247-40.254 20.247-30.37 0-54.234-20.729-54.234-62.429zm94.488-.24c0-32.782-14.463-45.798-37.602-45.798-20.489 0-36.88 11.57-36.88 45.556s16.391 46.039 36.88 46.039c23.14 0 37.602-13.017 37.602-45.798zm137.794 23.38l20.007.241c-2.652 22.658-18.32 45.798-55.199 45.798-34.227 0-59.054-23.381-59.054-65.804 0-40.013 24.586-66.286 58.813-66.286 36.156 0 56.163 26.996 56.163 69.42h-94.729c.482 24.344 10.606 46.038 39.048 46.038 20.97 0 33.264-13.016 34.951-29.407zm-73.276-32.3h72.553c-1.928-27.237-17.596-37.12-35.192-37.12-19.765 0-34.95 13.258-37.36 37.12zm186.243-31.817h-8.677c-23.14 0-39.29 7.955-39.29 38.326v70.142H758.63V683.911h19.525v22.176c8.436-16.391 25.55-22.176 39.048-22.176h9.16z"/><path d="M356.236 257.434L582.958 54.917a222.005 222.005 0 0 0-60.066-33.701L356.236 170.08zm-65.148-29.161l-61.42 54.863a221.121 221.121 0 0 0 26.665 63.536l34.755-31.045z" class="cls-2"/><path fill="#00d2ff" d="M477.504 61.758V9.73a222.564 222.564 0 0 0-65.148.186v110.036zm0 306.03V149.113l-65.148 58.193v242.542a222.015 222.015 0 0 0 72.148-.96l174.46-155.835a221.368 221.368 0 0 0 7.026-93.63z"/><path fill="#ff4b19" d="M477.504 303.587l174.78-156.12a222.198 222.198 0 0 0-33.595-57.347L477.504 216.233zm-65.148-29.161l-56.12 50.129V26.188a222.732 222.732 0 0 0-65.148 43.793v319.8a223.08 223.08 0 0 0 49.432 36.166l71.836-64.167z"/><path d="M180.003 577.458l31.136-116.833h41.81l-46.257 162.5h-49.225l-27.577-109.42-27.577 109.42H53.088L6.83 460.625h41.81l31.136 116.833 30.84-116.833h38.548zm227.155-7.71c-4.744 32.322-29.653 55.452-72.354 55.452-45.369 0-78.877-27.282-78.877-82.435 0-55.451 34.695-84.215 78.877-84.215 48.928 0 74.727 35.881 74.727 83.917v8.6H297.44c0 18.09 7.414 40.92 36.77 40.92 16.31 0 29.06-8.005 32.323-23.127zm-40.031-47.443c-1.484-22.538-16.013-30.84-32.619-30.84-18.978 0-33.508 11.563-35.584 30.84zm162.086-4.448v-5.635c0-12.751-5.338-21.055-29.356-21.055-29.95 0-30.84 16.608-30.84 22.242H430.47c0-24.02 10.081-54.86 70.574-54.86 57.823 0 68.202 28.765 68.202 52.19v89.552a117.148 117.148 0 0 0 .89 16.013l1.186 6.82H530.4v-16.308c-11.564 11.563-27.577 18.384-50.41 18.384-32.026 0-56.34-18.682-56.34-51.004 0-37.361 35.287-45.369 49.52-47.74zm0 30.543l-15.716 2.37c-8.6 1.483-18.978 2.966-25.205 4.152-6.82 1.187-12.751 2.67-17.199 6.227a16.059 16.059 0 0 0-6.227 13.343c0 4.746 1.78 19.573 24.02 19.573 13.046 0 24.61-4.744 30.838-10.973 8.007-8.005 9.49-18.088 9.49-26.095zm155.09 74.725h-54.265l-53.375-162.5h43.886l37.363 124.248 37.66-124.248h42.7zm206.687-53.377c-4.743 32.322-29.651 55.452-72.352 55.452-45.37 0-78.877-27.282-78.877-82.435 0-55.451 34.694-84.215 78.877-84.215 48.927 0 74.726 35.881 74.726 83.917v8.6H781.275c0 18.09 7.413 40.92 36.77 40.92 16.31 0 29.06-8.005 32.322-23.127zm-40.03-47.443c-1.484-22.538-16.013-30.84-32.618-30.84-18.978 0-33.509 11.563-35.584 30.84z" class="cls-2"/></svg>