<svg xmlns="http://www.w3.org/2000/svg" role="img" viewBox="5.04 -14.96 1141.92 565.92"><title>Wind River Cloud Platform logo</title><defs><style>.cls-1{fill:none}.cls-2{fill:#c11d2b}.cls-3{fill:#070707}</style></defs><path d="M320.55273 287.62835c4.339.95508 8.48713-1.06 11.49341-4.50073 2.47022-2.82721 3.41175-6.3711 3.71149-10.05494 2.33313-28.67315.70038-57.39868.85315-86.09661.0285-5.34961-.36542-11.238-3.53613-16.26856-3.03241-4.8111-7.76465-6.85333-12.71991-5.72156-4.87262 1.113-2.41877 6.16767-2.4646 9.38391-.24488 17.18085-.11542 34.367-.11658 51.55133 0 17.51477-.14606 35.03186.13654 52.54206.0499 3.09814-2.625 8.00561 2.64263 9.1651zM1037.334 526.661h6.71a34.82623 34.82623 0 0 0-6.71 0zm-49.85945-17.69354c-2.97247-16.54889-6.16718-33.05786-9.19312-49.59735-.53589-2.9289-.35254-6.39319-4.69165-6.08319-4.77667.34137-3.2063 4.25073-3.22192 6.84454-.11707 19.49689-.37225 39.00226.103 58.48816.13031 5.34149-1.20453 7.43249-4.97766 8.04138h30.8345c-5.88288-1.08319-6.58808-5.08282-8.85315-17.69354zm83.92486 9.11932q-7.57928-51.33031-15.26709-102.64459c-.17846-1.19568-.53784-2.3645-.98657-4.29144-2.72 3.59088-1.60986 6.76147-1.6167 9.67828-.07641 32.36151-.2063 64.72516.13819 97.08331.05078 4.77-.6316 7.81214-3.71485 8.74866h25.96607c-4.56714-.9-3.97632-4.8996-4.51905-8.57422zm30.82129.36182c.65576-32.34918.33545-64.71808.38159-97.07953a37.71389 37.71389 0 0 0-.82824-9.59729c-3.91028 6.95331-3.43909 14.79785-4.64478 22.19251-4.61267 28.28808-8.74743 56.654-13.03735 84.99456-.5 3.30347-.10388 6.85419-4.05261 7.70215h26.26709c-2.62452-.67157-4.19556-2.792-4.0857-8.2124zm10.20166 8.2124h2.65479a15.76076 15.76076 0 0 0-2.65479 0zM501.97351 404.8687c0 5.92139-.048 11.8432.01129 17.764.08759 8.74341 3.74909 10.7323 11.50208 6.33783a13.362 13.362 0 0 0 6.91168-10.23962 88.62206 88.62206 0 0 0-.20117-27.49591c-1.03162-6.08826-4.49646-9.98578-10.51258-11.75544-5.23315-1.53936-8.19268-.83618-7.8059 5.65644.3905 6.556.08609 13.15342.0946 19.7327zm447.61792-232.88201c7.37726-.15979 11.6665-4.3191 12.34113-11.55707.634-6.80249-5.23005-12.66712-13.3534-12.86664-6.14441.55463-10.45025 4.53308-11.24829 11.68994-.73877 6.62592 5.34986 12.88348 12.26056 12.73377zm-505.992 43.70861c2.97656 1.61676 6.44629-.144 9.26184-1.8761 11.8609-7.297 11.797-39.41381-.04322-46.82959a13.81006 13.81006 0 0 0-2.62127-1.3399c-4.90644-1.75867-8.27808-1.61291-7.861 5.21155.40014 6.54992.08648 13.14337.08282 19.71771 0 5.91687-.08386 11.83545.03937 17.74976.05296 2.53906-1.23251 6.07714 1.14146 7.36657z" class="cls-1"/><path d="M848.34839 206.12035c-6.24683 3.74274-7.9209 9.773-4.26013 16.21765 3.63434 6.398 9.71783 8.38642 16.07361 4.79425 3.96423-2.2406 6.37994-1.34069 9.6903.58814q29.94351 17.44693 60.08478 34.55316c4.17279 2.36279 7.19391 4.83246 8.14838 10.03412 1.07745 5.87152 5.87719 8.96265 11.54022 9.13318 6.29138.18945 11.11749-3.53272 12.06079-9.64319.751-4.865 3.63074-6.51294 7.08789-8.49835 15.45453-8.87537 30.63818-18.253 46.36365-26.61426 8.94757-4.75739 16.79816-15.11072 27.99957-8.15949 6.84424.29419 10.60974-2.453 12.64746-7.57965 2.07471-5.21966.95789-10.42218-3.40906-13.33886-4.32971-2.89173-4.979-6.15229-4.94885-10.70942q.23346-35.18077-.00537-70.36364c-.02881-4.24073.69165-7.34864 4.46631-10.06366 5.196-3.73743 6.43-9.32056 3.228-14.93567-3.2981-5.78394-8.87574-8.8421-15.04053-5.56549-4.88928 2.59875-8.02588.76617-11.731-1.369-20.29706-11.69672-40.54571-23.47949-60.94281-34.99921-4.25464-2.40283-5.46863-5.2077-5.65393-10.1297-.28955-7.69073-5.29724-12.02832-13.257-11.23169-7.28692.72931-11.62854 5.41132-10.97674 12.61109.39862 4.40252-.54 6.4635-4.20136 8.52991q-31.8966 18.00172-63.55383 36.426c-3.41589 1.9881-5.93329 2.64691-9.81189.52826-5.99927-3.2771-11.764-1.58026-15.4505 4.30127-3.93775 6.28247-2.77191 12.38769 3.346 16.397 3.95056 2.58887 4.88733 5.4765 4.862 9.77478-.13855 23.454-.09986 46.90949-.00544 70.36395.01545 3.82999-.49023 6.63566-4.35052 8.94852zm9.4751-79.63342c.05017-10.47211 5.22961-13.31952 14.15747-8.06665 16.21985 9.54321 32.4151 19.1286 48.67822 28.59753 1.75952 1.02442 4.09485 3.76483 5.88562.80909 1.69153-2.792-1.5166-3.88068-3.3465-4.97492-16.43023-9.82538-32.91589-19.558-49.36956-29.34436-9.73945-5.79279-9.84919-8.57471-.435-14.02777q31.28457-18.12112 62.65026-36.10211c8.39581-4.80042 11.0935-3.22388 11.13079 6.37274.07056 18.17462-.11816 36.35181.15467 54.52258.05194 3.45832-2.36817 9.67993 2.83886 9.77991 4.162.08 2.10975-5.99622 2.1474-9.25684.21375-18.503.03718-37.01007.12854-55.51513.04676-9.46906 2.93207-11.0423 11.23176-6.26886q31.33895 18.02416 62.61254 36.16192c8.37684 4.88159 8.48975 12.15857.20118 16.94525-15.14765 8.74787-30.51886 17.11078-45.60614 25.95936-2.7472 1.61126-8.96692 2.54675-6.94519 6.46612 2.37677 4.60779 6.29986-.54877 8.94928-1.99091 15.942-8.67773 31.60522-17.86517 47.45324-26.7182 8.63489-4.82367 11.94055-2.81848 11.97779 7.21058q.12854 34.69739.00329 69.39556c-.03357 10.949-5.07446 13.5799-14.79773 7.86078-14.79846-8.70434-29.55707-17.47656-44.39343-26.11554-2.93591-1.70953-5.64728-4.74121-9.81378-3.07794-.062 5.21033 4.41852 5.63593 7.20605 7.31909 14.97974 9.04511 30.15882 17.75934 45.1922 26.71668 9.10645 5.42584 9.08386 10.21582.02149 15.47766q-29.12477 16.9109-58.3216 33.69727c-9.12066 5.243-14.8786 1.89105-14.951-8.83393-.12054-17.84375.02857-35.68933-.10308-53.5329-.01722-2.32605 1.51293-6.44152-2.03595-6.56372-4.2948-.14782-3.02912 4.29535-3.04859 6.92456-.12958 17.51313-.00513 35.028-.07941 52.54187-.0498 11.7403-5.30658 14.74909-15.36145 8.93384q-28.71762-16.60877-57.4273-33.23144c-10.73151-6.20545-10.91822-10.24524-.44519-16.25843 16.03418-9.20617 32.18554-18.20813 48.25915-27.34619 2.15534-1.22534 6.05255-2.29571 4.177-5.42438-1.91491-3.19427-4.739.04145-6.76849 1.17194-16.43555 9.15509-32.7619 18.5058-49.1546 27.7381-9.09931 5.12482-12.617 3.06659-12.65576-7.56531q-.12806-35.19315.00295-70.3869zM729.895 215.7976c3.43726 1.205 7.18872-.57276 9.89691-3.25311 7.319-7.24384 7.18317-16.536 6.77319-25.83374-.35864-8.13056-1.51178-16.16138-9.59539-20.42621-4.86951-2.56922-9.72718-3.52759-9.10633 5.14721.44715 6.24659.08722 12.55085.08966 18.82935 0 5.61761-.24908 11.25085.101 16.84656.18589 2.97186-2.2084 7.2705 1.84096 8.68994zm-55.13047 247.93585c3.7882 1.02985 5.913-.49738 5.14532-5.39148-2.73694-17.449-5.00934-34.97082-7.45752-52.46509q-1.00964-.13952-2.01929-.27893c-2.49664 18.01831-5.76294 35.97791-7.14282 54.0813-.62604 8.21307 7.49408 2.97205 11.47431 4.0542zM577.24664 526.661h18.06513c-6.02198-.01514-12.04389-.02759-18.06513 0zm109.88013-11.9975c-.07806-2.29437-.62048-4.56988-.88629-6.86139-1.92938-16.63348-1.9422-16.13348-18.327-16.72131-7.37542-.26459-9.925 2.24219-10.25689 9.037a71.28913 71.28913 0 0 1-1.913 13.66766c-1.0509 4.22394 1.59766 10.88941-3.41 12.26758-.91449.25171-1.85468.44391-2.80567.60791h41.76056c-3.08511-1.82362-3.97458-6.49604-4.16171-11.99745zm291.03516-86.2677a14.16593 14.16593 0 0 0 8.19561-8.13244 45.03649 45.03649 0 0 0 .13013-32.77661 13.13552 13.13552 0 0 0-7.96875-8.32026c-4.90131-1.71319-9.04163-2.75933-8.33215 5.19825.55462 6.22046.1112 12.52984.11487 18.79968 0 6.59985.48889 13.24585-.12879 19.78735-.70636 7.47974 2.6109 7.61723 7.98908 5.44403zM125.27032 526.661h29.54352c-9.82484-.42938-19.69555-.287-29.54352 0zm613.38813 0h5.35321a22.40015 22.40015 0 0 0-5.35321 0z" class="cls-1"/><path d="M871.23639 302.89275c5.31689 6.73371 11.658 10.09845 20.36969 9.96967 19.15832-.28327 38.32373-.08783 57.48627-.09979s38.32873-.23682 57.4859.08441c9.342.15667 16.189-2.97559 22.076-10.49768 23.39746-29.89551 47.16858-59.50037 70.99121-89.05976 5.58581-6.93078 7.57483-13.953 5.46765-22.87439q-13.30335-56.32387-25.764-112.84546c-1.88476-8.47174-6.3562-13.934-14.18689-17.64318-34.30285-16.24823-68.55987-32.60212-102.59985-49.39081-8.79749-4.33887-16.38477-4.553-25.26007-.16724q-51.024 25.21371-102.546 49.41535c-8.194 3.8742-12.67963 9.51385-14.63086 18.38824-8.00476 36.40588-16.12116 72.79559-24.964 109.00391-2.69361 11.02948-.93762 19.45721 6.25824 28.24743 23.62951 28.86455 46.69812 58.19019 69.81671 87.4693zm-18.532-176.0849c.02533-4.29828-.91144-7.18591-4.862-9.77478-6.11792-4.00928-7.28376-10.1145-3.346-16.397 3.68646-5.88153 9.45123-7.57837 15.4505-4.30127 3.8786 2.11865 6.396 1.45984 9.81189-.52826q31.655-18.42352 63.55383-36.426c3.66138-2.06641 4.6-4.12739 4.20136-8.52991-.6518-7.19977 3.68982-11.88178 10.97674-12.61109 7.95978-.79663 12.96747 3.541 13.257 11.23169.1853 4.922 1.39929 7.72687 5.65393 10.1297 20.3971 11.51972 40.64575 23.30249 60.94281 34.99921 3.70508 2.13519 6.84168 3.96777 11.731 1.369 6.16479-3.27661 11.74243-.21845 15.04053 5.56549 3.202 5.61511 1.968 11.19824-3.228 14.93567-3.77466 2.715-4.49512 5.82293-4.46631 10.06366q.23694 35.18077.00537 70.36364c-.03015 4.55713.61914 7.81769 4.94885 10.70942 4.367 2.91668 5.48377 8.1192 3.40906 13.33886-2.03772 5.12665-5.80322 7.87384-12.64746 7.57965-11.20141-6.95123-19.052 3.4021-27.99957 8.15949-15.72547 8.36127-30.90912 17.73889-46.36365 26.61426-3.45715 1.98541-6.33691 3.63336-7.08789 8.49835-.9433 6.11047-5.76941 9.83264-12.06079 9.64319-5.663-.17053-10.46277-3.26166-11.54022-9.13318-.95447-5.20166-3.97559-7.67133-8.14838-10.03412q-30.15699-17.07519-60.08482-34.55313c-3.31036-1.92883-5.72607-2.82874-9.6903-.58814-6.35578 3.59217-12.43927 1.60376-16.07361-4.79425-3.66077-6.4447-1.9867-12.47491 4.26013-16.21765 3.86029-2.31286 4.366-5.11853 4.35058-8.94855-.09442-23.45446-.13311-46.90997.00544-70.36395z" class="cls-2"/><path d="M1044.044 526.661h5.90844c3.08325-.93652 3.76563-3.9787 3.71485-8.74866-.34449-32.35815-.2146-64.7218-.13819-97.08331.00684-2.91681-1.10327-6.0874 1.6167-9.67828.44873 1.92694.80811 3.09576.98657 4.29144q7.66133 51.31824 15.26709 102.64459c.54273 3.67462-.04809 7.6742 4.51905 8.57422h4.12085c3.94873-.848 3.55261-4.39868 4.05261-7.70215 4.28992-28.34051 8.42468-56.70648 13.03735-84.99456 1.20569-7.39466.7345-15.2392 4.64478-22.19251a37.71389 37.71389 0 0 1 .82824 9.59729c-.04614 32.36145.27417 64.73035-.38159 97.07953-.10986 5.42041 1.46118 7.54083 4.0857 8.2124h6.116a15.76076 15.76076 0 0 1 2.65479 0h6.25317c2.29224-.64618 3.89527-2.68469 3.82227-8.2987-.62744-48.20435-.25952-96.42164-.25952-144.63416 0-20.805-.009-20.42218-21.07056-20.91675-7.635-.17932-9.92554 2.2768-11.15247 9.60767-4.021 24.02289-8.98181 47.88849-13.58142 71.81463q-1.18469.03067-2.3695.06128c-3.68738-19.26153-7.43457-38.51178-11.04676-57.78741-4.58838-24.48431-4.53564-24.26868-28.95923-23.65851-5.89648.14728-6.98962 2.16736-6.97241 7.51343q.25856 79.748.00659 159.49713c-.01062 3.764.59913 6.14923 3.30762 6.80139h4.27905a34.82623 34.82623 0 0 1 6.70993 0zM50.80194 305.21343c.9176 7.2547 3.61127 8.704 9.88892 8.17658 5.64184-.47394 11.1131 1.64062 12.15-8.00055 2.74268-25.50006 8.59271-59.23853 12.48505-86.22712 3.18792 12.8797 3.71386 22.54755 4.61157 29.37049 2.53687 19.28192 5.85468 38.4685 8.04449 57.78552 1.1178 9.86029 7.85145 6.26605 13.07288 7.02887 5.80988.84882 8.05347-1.37042 8.76477-7.33582 2.535-21.25958 5.67139-42.44726 8.546-63.66674 4.29236-31.68457 8.467-63.3855 12.90942-95.04889.52668-3.754.11908-6.20185-1.78863-7.29352h-18.167c-2.23151 1.20361-3.10437 3.9104-3.46955 8.00531-1.75531 19.68317-4.3139 39.29492-6.5802 58.93213-1.06073 9.191-2.17151 18.37628-3.25958 27.56409L95.6156 148.42132c-.42694-3.847-.76868-7.1131-3.536-8.41907H79.72119c-2.597.65918-4.46741 2.5564-4.8258 8.2207l-13.14484 80.25629c-2.66107-24.252-5.35809-47.79822-7.79431-71.37134-1.23163-11.91754-1.58716-15.85-6.51843-17.10565H31.216c-1.90167.74823-2.35052 2.49823-1.78 6.53278q11.2092 79.26654 21.36594 158.6784zm161.2879 8.10687c6.64734.64777 10.7414.13971 10.52277-8.96032-.69745-29.03406-.25861-58.0954-.25861-87.96985 3.50745 1.9165 3.43183 4.37591 4.01154 6.48059q10.49652 38.11011 20.97931 76.22388c4.12536 14.92828 4.15881 14.67651 19.67987 14.35022 5.14038-.1081 6.98968-1.49585 6.8006-6.75568-.35572-9.89374-.11133-19.80914-.11127-29.71552.00024-42.92773-.15765-85.85662.16443-128.78186.03235-4.3042-.70154-7.01037-2.88739-8.18951h-17.22681c-2.86041 1.47143-3.96063 4.92078-3.7702 10.92645.83685 26.39087.31891 52.82514.29138 79.24207a52.23062 52.23062 0 0 1-.618 5.72882 14.26967 14.26967 0 0 1-3.37683-6.48517q-11.59039-41.896-23.1358-83.80444c-.78327-2.85437-1.92145-4.5896-3.28388-5.60773h-18.94486c-2.624 1.18188-1.34235 5.53064-1.34876 8.14313-.12659 52.17346.24725 104.35119-.35058 156.51812-.13501 11.78614 7.03225 8.08857 12.86309 8.6568zm91.1355.09638c8.17511-.86225 16.47907-.46063 24.6709-1.21588 17.91864-1.65216 28.00189-10.93128 31.77838-28.61652a149.12066 149.12066 0 0 0 3.3794-30.36395c.158-27.9773 2.26031-56.05445-3.386-83.77295-3.59259-17.63623-11.67493-25.15436-29.44379-28.64435a53.43856 53.43856 0 0 0-5.98163-.80078h-28.20378c-2.45416 1.01507-3.385 3.44049-3.305 8.05212.45214 26.05445.17822 52.12146.17486 78.18372-.00336 25.7323.38837 51.474-.22357 77.19183-.20411 8.57965 2.58851 10.82538 10.54023 9.98676zm14.54822-87.49549c.00116-17.18432-.1283-34.37048.11658-51.55133.04583-3.21624-2.408-8.27093 2.4646-9.38391 4.95526-1.13177 9.6875.91046 12.71991 5.72156 3.17071 5.03052 3.56463 10.91895 3.53613 16.26856-.15277 28.69793 1.48 57.42346-.85315 86.09661-.29974 3.68384-1.24127 7.22773-3.71149 10.05494-3.00628 3.44073-7.15442 5.45581-11.49341 4.50073-5.26763-1.15949-2.59271-6.067-2.64263-9.1651-.2826-17.5102-.13654-35.02725-.13654-52.54206zm99.25885-.17511q-.00174 35.65668-.00116 71.31342c.00006 16.47052.00787 16.08954 16.86267 16.42944 7.11578.1435 8.83954-2.11175 8.67877-8.93029-.45123-19.13831-.22021-38.29474-.07373-57.44257.01941-2.53552-1.82086-6.51233 2.97376-6.99469 4.8706-.48993 4.69592 3.37061 5.28509 6.61987q4.498 24.80575 9.14917 49.58344c3.32965 17.55224 3.38825 17.19085 21.14972 17.1618 6.43775-.01056 6.62012-2.14813 5.55744-7.35834-4.67627-22.92724-9.04194-45.91833-13.42243-68.9049-.59125-3.103-2.4198-6.51941.30054-9.40552 12.24933-12.99567 12.54547-29.09943 12.06988-45.44519-.742-25.49933-13.049-39.83508-36.30017-42.3703h-28.52868c-2.97394 1.32709-4.14856 4.53082-3.963 10.47674.78227 25.06739.26335 50.1753.26213 75.26709zm25.38623-35.16708c.00366-6.57434.31732-13.16779-.08282-19.71771-.41712-6.82446 2.95452-6.97022 7.861-5.21155a13.81006 13.81006 0 0 1 2.62127 1.3399c11.84021 7.41578 11.90412 39.5326.04322 46.82959-2.81555 1.73212-6.28528 3.49286-9.26184 1.8761-2.374-1.28943-1.0885-4.82751-1.14142-7.36657-.12327-5.91434-.03941-11.83292-.03941-17.74976zm260.03503 35.22989q-.00485 35.65851-.00183 71.317c.00367 16.41137.01648 16.037 16.9394 16.35949 7.07855.13489 8.88366-2.05792 8.72058-8.91571-.45508-19.139-.23059-38.29651-.06531-57.44494.02154-2.4936-1.96137-6.56922 2.88983-7.00336 4.795-.42908 4.62085 3.381 5.20544 6.686 3.04273 17.20117 6.31763 34.36133 9.34424 51.56519 2.63849 14.998 2.5683 14.42206 18.05933 15.15735 8.95215.42486 9.52142-2.878 8.00195-10.15943-4.6427-22.24884-8.83838-44.59149-13.11773-66.91491-.5979-3.11945-1.936-6.28223.76367-9.37561 14.59857-16.72705 13.01556-36.66187 9.97693-56.3277-2.20368-14.26221-10.37909-24.79877-24.93781-29.16785a43.88293 43.88293 0 0 0-8.30133-1.58209h-30.25458c-2.55786 1.07556-3.51825 3.64044-3.41821 8.55072.52476 25.74254.19861 51.50255.19543 77.25585zm25.60041-18.70123c-.3501-5.59571-.101-11.22895-.101-16.84656-.00244-6.2785.35749-12.58276-.08966-18.82935-.62085-8.6748 4.23682-7.71643 9.10633-5.14721 8.08361 4.26483 9.23675 12.29565 9.59539 20.42621.41 9.29772.54578 18.5899-6.77319 25.83374-2.70819 2.68035-6.45965 4.45806-9.89691 3.25311-4.0494-1.41944-1.65511-5.71808-1.84096-8.68994zm242.41681 311.51196c-.47528-19.4859-.2201-38.99127-.103-58.48816.01562-2.59381-1.55475-6.50317 3.22192-6.84454 4.33911-.31 4.15576 3.15429 4.69165 6.08319 3.02594 16.53949 6.22065 33.04846 9.19312 49.59735 2.26507 12.61072 2.97027 16.61035 8.85315 17.69354h14.984c3.56842-.50177 4.16375-2.14337 3.19305-6.78235-4.859-23.22516-9.19983-46.55926-13.63733-69.87109-.59051-3.10205-2.39752-6.457.458-9.37775 13.15509-13.45495 13.08783-30.44452 11.993-47.31689-1.76636-27.22223-16.52582-40.46643-43.65234-40.30371-5.619.03375-11.28852.47442-16.84455-.11823-6.81665-.72711-8.23327 2.03455-8.15374 8.35889.32855 26.10284.13763 52.2121.13513 78.319q-.004 35.1947-.00281 70.38946c-.00018 13.28882.00464 16.07135 8.16248 16.70264h12.53058c3.77316-.60886 5.108-2.69986 4.97769-8.04135zm-.16925-115.4552c-.00367-6.26984.43975-12.57922-.11487-18.79968-.70948-7.95758 3.43084-6.91144 8.33215-5.19825a13.13552 13.13552 0 0 1 7.96875 8.32026 45.03649 45.03649 0 0 1-.13013 32.77661 14.16593 14.16593 0 0 1-8.19561 8.13244c-5.37818 2.17316-8.69544 2.03571-7.98908-5.444.61768-6.54153.12879-13.18753.12879-19.78738zM652.33362 526.05309c5.00769-1.37817 2.35913-8.04364 3.41-12.26758a71.28913 71.28913 0 0 0 1.913-13.66766c.33191-6.79486 2.88147-9.30164 10.25689-9.037 16.38477.58783 16.39759.08783 18.327 16.72131.26581 2.29151.80823 4.567.88629 6.86139.18713 5.50141 1.0766 10.17383 4.16174 11.9975H704.14c9.35218-.2091 8.989-1.71033 7.32032-12.6015q-10.61811-69.30615-20.96088-138.6543c-3.313-22.47412-3.06781-22.11493-25.45831-22.60266-7.78772-.16968-9.75452 2.46131-10.70593 9.70374-3.17151 24.14349-7.24994 48.16687-10.88752 72.25042-4.18084 27.6803-8.337 55.36506-12.27282 83.08063-.39881 2.80811-2.89685 7.685 1.553 8.43671.84661.143 1.70617.27148 2.57269.387H649.528c.95094-.16409 1.89113-.35629 2.80562-.608zm10.9566-66.37384c1.37988-18.10339 4.64618-36.063 7.14282-54.0813q1.00965.13944 2.01929.27893c2.44818 17.49427 4.72058 35.01606 7.45752 52.46509.76764 4.8941-1.35712 6.42133-5.14532 5.39148-3.98023-1.08215-12.10035 4.15887-11.47431-4.0542zM565.3736 307.25982c.2929 1.89465-.31043 4.9591 1.83227 5.15527 7.17725.65711 14.50195 1.34052 21.61139.56281 5.27063-.5766 3.522-6.63813 4.04443-9.93866q11.66886-73.7223 22.52906-147.57215c1.68383-11.312 2.04706-14.45074-3.50745-15.46484h-15.35474c-2.95 1.07489-3.96661 3.63745-4.45867 8.15118-2.10743 19.33185-4.94971 38.58405-7.537 57.863-1.51367 11.27979-3.08808 22.55139-4.63519 33.82666q-1.11-.01372-2.2201-.02753-5.75728-42.08057-11.52289-84.15985c-1.35058-9.78943-1.95214-14.0086-5.418-15.6535h-18.3163c-2.30566.8855-2.5567 2.7995-2.04114 6.09961q12.58686 80.56498 24.99433 161.158zm-63.2262 210.81482c-.49237-17.81732.01886-35.6604-.27826-53.48633-.09094-5.457.75592-7.54706 7.122-8.3634 18.4837-2.37043 30.4295-13.2096 35.23224-31.41626a80.9208 80.9208 0 0 0 .9566-36.2757c-4.50708-23.3775-19.867-35.59967-43.90869-35.5163-5.61456.01953-11.27289.43994-16.83246-.11371-6.55414-.6527-8.29333 1.67231-8.201 8.16187.37116 26.08069.15357 52.16974.15009 78.25574q-.00522 35.16649-.00354 70.33307c-.00012 14.24286.01422 16.478 9.57373 17.00738h11.00726c4.0422-.66174 5.3359-3.02 5.18203-8.58636zm7.53741-138.5951c6.01612 1.76966 9.481 5.66718 10.51258 11.75544a88.62206 88.62206 0 0 1 .20117 27.49591 13.362 13.362 0 0 1-6.91168 10.23962c-7.753 4.39447-11.41449 2.40558-11.50208-6.33783-.05926-5.92078-.01129-11.84259-.01129-17.764-.00854-6.57928.2959-13.17669-.0946-19.73272-.38678-6.4926 2.57275-7.19578 7.8059-5.65642zm127.74897-66.06604c12.54657-.35437 25.11078-.02246 37.6665-.12939 15.15894-.12909 12.98932 2.00427 13.10883-13.08258.10424-13.15735.01825-13.156-13.0152-13.13324-4.6261.00806-9.27789-.30182-13.87177.08368-5.40753.45379-6.69366-1.86969-6.51172-6.877.34772-9.56811.9018-19.2434-.11206-28.71563-1.1322-10.57776 2.7331-14.14777 12.77924-12.35437 8.76624 1.56482 11.8797-1.6081 11.39337-10.95771-.85187-16.38171-.2323-16.71862-16.3833-16.71112-6.0885.00281-8.14551-1.66461-7.70264-7.82684.54328-7.55933.12629-15.18762.126-22.78613-.00061-15.04938-.00018-15.04938 14.81677-15.03552 19.37818.01818 19.09192.02435 18.66925-19.49714-.08117-3.74664-.99871-5.58734-2.91961-6.38824h-52.84011c-2.11151.98907-2.642 3.25256-2.63184 6.825q.22733 79.78345-.02935 159.56751c-.02222 5.85161 2.04467 7.17156 7.45764 7.01872zm178.09668 204.83228c-.32819-19.8114.04547-39.634-.23133-59.447-.07782-5.57654.70661-8.19751 7.35743-8.17206 16.59906.0636 16.59991-.32306 16.443-17.34717a23.03072 23.03072 0 0 1 .01929-2.9704c.52136-4.28991-1.31293-5.70886-5.61151-5.782-5.80848-.09875-13.91974 2.86218-16.8379-1.47577-2.949-4.38379-1.07946-12.03235-1.24554-18.25275-.08813-3.30047-.01575-6.60522-.01727-9.908-.00739-16.224-.00757-16.224 16.71386-16.2398 19.07587-.01807 18.78779-.01325 18.47522-18.77991-.09954-5.97852-2.27813-7.06055-7.57122-6.95917-15.19043.2909-30.39856.39063-45.58222-.04364-6.21326-.17773-7.7594 1.79535-7.68292 7.84278.33 26.088.14111 52.18261.13879 78.27478q-.00338 35.175-.00244 70.34991c-.00018 13.81818.00611 16.67328 8.30615 17.3255h12.49421c4.16994-.74556 4.9174-3.40444 4.8344-8.4153zm-71.5188 8.41522h7.33334c3.36591-1.16107 4.36047-4.64252 4.29089-10.58417-.50262-42.9306-.07025-85.87139-.394-128.80542-.05261-6.96881 1.8172-8.9627 8.80127-8.79193 15.90814.38886 15.91712.007 15.855-16.07122a30.56614 30.56614 0 0 1 .02606-3.96009c.57825-4.5296-1.70849-5.5191-5.77618-5.49261-20.811.13543-41.62353.04083-62.4353.084-2.47864.00513-5.7602-.781-5.72614 3.38568.05646 6.90027-1.62756 14.70411 1.06244 20.41224 2.15662 4.57635 10.28784 1.9176 15.61389 1.60845 7.03687-.40838 7.97937 2.59321 7.89423 8.60938-.30829 21.79413-.12146 43.59528-.121 65.39386.00055 22.12872.191 44.26025-.12793 66.3844-.06165 4.27191.57824 7.02 3.43811 7.82739h4.91211a22.40015 22.40015 0 0 1 5.35321.00004zm-589.19782 0h10.89575c4.45087-.939 6.06183-4.05774 5.95783-11.30188-.13825-9.62738-1.94775-14.13312-12.31384-12.284-3.51722.62738-7.29535-.30579-10.86.174-8.62048 1.16034-11.74548-1.33863-11.60058-10.93146.61785-40.89655.26049-81.80786.25946-122.71375-.00043-16.71222-.0149-16.25573-16.379-16.79187-7.61579-.24951-9.29065 2.05628-9.15527 9.36921.47613 25.72235.185 51.45892.18078 77.19006-.00415 26.39093.23023 52.78534-.16846 79.17035-.07928 5.25018 1.14209 7.51172 4.85706 8.11932h8.78271c9.84801-.28698 19.71872-.42936 29.54356.00002zm440.49793 0h20.54761c1.568-.116 2.94921-.63745 3.03961-2.745.26745-6.23926 1.53528-13.13135-.60822-18.573-1.95209-4.95587-8.85052-1.5033-13.51349-2.08a44.31071 44.31071 0 0 0-10.87182-.002c-6.60675.83209-8.90754-.98987-8.83307-8.33362.42151-41.578.20282-83.16241.20251-124.74457-.00012-17.53747-.00464-17.1438-17.88244-17.37249-6.98859-.08942-7.91517 2.55481-7.85163 8.538.27716 26.06836.11914 52.1413.12055 78.21265q.0021 39.60213.01843 79.20428c.004 3.33936-1.09406 7.18909 3.42944 7.89569h14.13739c6.02124-.02753 12.04315-.01508 18.06513.00006zM502.60315 295.82c-.00305 17.86371-.00073 17.45679 17.629 17.66 7.11938.082 7.92517-2.71222 7.86163-8.69677-.27734-26.10315-.11926-52.21094-.12158-78.317s-.26288-52.21655.16992-78.31549c.07227-4.35645-.69434-7-2.90674-8.1485h-19.55319c-2.42859 1.25665-3.30145 4.17126-3.26105 9.09643.40125 48.90433.19037 97.81367.18201 146.72133zm-347.68292-69.28943c.00439 26.38281.18719 52.76788-.13391 79.14679-.07331 6.023 1.444 8.59442 7.66888 7.69177a26.59617 26.59617 0 0 1 7.89728-.00073c8.44287 1.34924 10.19458-2.38568 10.13617-10.32868-.35871-48.80554-.17377-97.61517-.17743-146.4234-.001-12.18444-.01911-15.54626-6.03455-16.61407h-16.0072c-2.913 1.10156-3.55878 3.7381-3.49683 8.37109.34858 26.04834.14313 52.10419.14759 78.15723z" class="cls-3"/><path d="M870.47632 204.43914c16.3927-9.2323 32.71905-18.583 49.1546-27.7381 2.02954-1.13049 4.85358-4.36621 6.76849-1.17194 1.87555 3.12867-2.02166 4.199-4.177 5.42438-16.07361 9.13806-32.225 18.14-48.25915 27.34619-10.473 6.01319-10.28632 10.053.44519 16.25843q28.71907 16.60638 57.4273 33.23144c10.05487 5.81525 15.31165 2.80646 15.36145-8.93384.07428-17.51385-.05017-35.02874.07941-52.54187.01947-2.62921-1.24621-7.07238 3.04859-6.92456 3.54888.1222 2.01873 4.23767 2.03595 6.56372.13165 17.84357-.01746 35.68915.10308 53.5329.07239 10.725 5.83033 14.077 14.951 8.83393q29.19772-16.78455 58.3216-33.69727c9.06237-5.26184 9.085-10.05182-.02149-15.47766-15.03338-8.95734-30.21246-17.67157-45.1922-26.71668-2.78753-1.68316-7.268-2.10876-7.20605-7.31909 4.1665-1.66327 6.87787 1.36841 9.81378 3.07794 14.83636 8.639 29.595 17.4112 44.39343 26.11554 9.72327 5.71912 14.76416 3.08826 14.79773-7.86078q.10658-34.69756-.00329-69.39556c-.03724-10.02906-3.3429-12.03425-11.97779-7.21058-15.848 8.853-31.51129 18.04047-47.45324 26.7182-2.64942 1.44214-6.57251 6.5987-8.94928 1.99091-2.02173-3.91937 4.198-4.85486 6.94519-6.46612 15.08728-8.84858 30.45849-17.21149 45.60614-25.95936 8.28857-4.78668 8.17566-12.06366-.20118-16.94525Q995.053 80.97183 963.676 63.01214c-8.29969-4.77344-11.185-3.2002-11.23176 6.26886-.09136 18.50506.08521 37.01214-.12854 55.51513-.03765 3.26062 2.01459 9.3368-2.1474 9.25684-5.207-.1-2.78692-6.32159-2.83886-9.77991-.27283-18.17077-.08411-36.348-.15467-54.52258-.03729-9.59662-2.735-11.17316-11.13079-6.37274q-31.38565 17.94543-62.65027 36.10211c-9.41419 5.45306-9.30445 8.235.435 14.02777 16.45367 9.78632 32.93933 19.519 49.36956 29.34436 1.8299 1.09424 5.038 2.18292 3.3465 4.97492-1.79077 2.95574-4.1261.21533-5.88562-.80909-16.26312-9.46893-32.45837-19.05432-48.67822-28.59753-8.92786-5.25287-14.1073-2.40546-14.15747 8.06665q-.16855 35.19278-.00293 70.3869c.03878 10.6319 3.55647 12.69017 12.65579 7.56531zm66.85455-45.18622c.798-7.15686 5.10388-11.13531 11.24829-11.68994 8.12335.19952 13.98743 6.06415 13.3534 12.86664-.67463 7.238-4.96387 11.39728-12.34113 11.55707-6.9107.14971-12.99933-6.10785-12.26056-12.73377z" class="cls-2"/><path fill="#fff" d="M35.59033 139.46606a12.9948 12.9948 0 0 0-4.37433.53619h16.22181c-2.51624-.64069-6.2204-.58637-11.84748-.53619zm98.5658.07043a22.40861 22.40861 0 0 1-6.92066-.01032c-2.63269-.44134-4.53375-.26953-5.91607.47608h18.167c-1.1692-.66907-2.89979-.83063-5.33027-.46576zm-46.87549-.06042c-2.72455.28656-5.39423-.02344-7.55945.52618h12.3584a8.98189 8.98189 0 0 0-4.79895-.52618zm116.88536.37805a5.41582 5.41582 0 0 0-3.23993.14813h18.94482c-4.29563-3.21014-10.84245.77618-15.70489-.14813zm60.89052-.29291a8.97347 8.97347 0 0 1-2.96491-.00226c-3.68609-.65027-6.40167-.5473-8.32733.4433h17.22681c-1.35999-.73364-3.27881-.87958-5.93457-.44104zm36.59503-.07416a12.53684 12.53684 0 0 0-5.61273.5152h28.20379c-7.52453-.61188-15.08581.05658-22.59106-.5152zm140.5871.10547c-4.62268-.04608-9.30408.45978-13.85694-.10577-3.30542-.41059-5.81671-.30188-7.64843.5155H449.262c-2.24149-.24439-4.57889-.38538-7.02335-.40973zm269.53802-.12897a13.42464 13.42464 0 0 0-6.10022.5387H735.931c-8.014-.80025-16.137.09882-24.15433-.5387zm-166.1568-.02826a10.68409 10.68409 0 0 0-3.19946.567h18.31635c-2.71039-1.28642-7.17218-.9987-15.11689-.567zm55.89661-.03296a13.69437 13.69437 0 0 0-4.98792.59992h15.35474a79.42654 79.42654 0 0 0-10.36682-.59992zm79.19652.10467c-7.25158.36218-14.53473.09094-21.80432.08844s-14.56781.39435-21.8-.12622a9.08938 9.08938 0 0 0-4.47137.53308h52.84009a11.27481 11.27481 0 0 0-4.7644-.4953zm-161.40911.03437a23.35777 23.35777 0 0 1-6.92474-.0086c-2.98157-.46393-5.15167-.33014-6.697.46948h19.55316c-1.37191-.71225-3.29689-.85266-5.93142-.46088zM163.2879 139.391a13.52772 13.52772 0 0 0-5.01843.61121h16.0072a84.90743 84.90743 0 0 0-10.98877-.61121z"/><path d="M418.957 381.59344c-4.16681-16.98938-13.02838-25.59913-30.46588-27.70966-8.47614-1.02594-17.1745-.14-25.682-1.00586-8.44616-.85962-11.34448 1.38684-11.0791 10.56213.73493 25.41047.25464 50.856.2533 76.28772-.00134 26.42255.17541 52.84717-.13507 79.26606-.07093 6.03369 1.494 8.32446 7.7312 7.80224 8.86627-.74231 17.83777-.33008 26.68042-1.23315 19.77453-2.01947 28.94214-10.11817 32.83844-29.72235 5.31433-26.73926 3.77038-53.87427 3.22058-80.88526-.22689-11.15155-.66679-22.37378-3.36189-33.36187zm-23.85831 104.03863a22.84116 22.84116 0 0 1-3.2373 10.283c-2.879 4.56775-7.701 5.54456-12.21808 4.56451-4.55572-.9884-2.1922-5.55932-2.22839-8.43469-.22077-17.51184-.11023-35.02783-.11023-52.54242.01117-17.18414-.17194-34.37188.176-51.549.06439-3.17914-3.10663-8.58325 3.42005-9.42132 5.39789-.69306 10.01178 1.37237 12.0158 6.6679a39.59507 39.59507 0 0 1 2.83252 12.47284c.91348 29.32211 2.06704 58.65767-.65037 87.95918zM926.5119 383.07488c-.94507-18.5509-13.51526-30.9024-30.295-32.07007-18.40021-1.28051-30.73077 8.1333-35.24719 27.36151a65.88871 65.88871 0 0 0-1.57843 14.6648c-.138 31.0061-.0409 62.01306-.09259 93.01959-.01331 7.99329.92443 15.77167 4.21759 23.13574 8.02453 17.94483 28.1889 25.01819 45.44738 15.72272 11.86267-6.38928 17.22223-17.25128 17.67823-30.05865.64483-18.11469.16339-36.26935.16339-54.407l-.07794-.001c.00002-19.12618.75618-38.29086-.21544-57.36764zM902.12775 490.35c-.03168 6.19842-.84223 13.08282-8.6828 13.03558-7.67688-.0462-8.73517-6.75366-8.73987-13.03986q-.03735-50.5145.01935-101.029a24.685 24.685 0 0 1 .43524-5.90948c1.12366-4.492 3.65094-8.06525 8.72961-7.81006 4.5503.22864 7.27307 3.55 7.59772 7.8349.572 7.54913.57947 15.14789.64111 22.72729.09131 11.22474.02368 22.45075.02368 33.67621.0055 16.83818.06196 33.67662-.02404 50.51442zM221.03607 351.533c-22.73425-4.10992-39.70227 10.214-40.696 35.31653-.691 17.456-.133 34.96149-.133 52.44488h-.05884c0 17.15387-.42267 34.32135.12641 51.45765.48761 15.22039 5.0954 28.88061 20.66858 35.25073 23.89837 9.77557 46.50921-6.66882 47.05615-34.92926.66369-34.29505.50378-68.61719.03277-102.91858-.26896-19.58501-11.40629-33.80358-26.99607-36.62195zm1.52851 139.53107c.00146 6.028-1.11109 12.30652-8.27778 12.32886-7.51989.02349-9.04473-6.38111-9.05944-12.76569-.03888-16.83716-.01319-33.67462-.01319-50.5119l-.03106-.00043c0-17.16608-.04761-34.3324.02478-51.49823.02673-6.329 1.48645-12.84656 9.01831-12.84949 7.09924-.0028 8.34729 6.19153 8.34307 12.28034q-.03597 51.50821-.00469 103.01655zm94.91925-138.22448c-7.44294-.22925-10.11029 1.36493-9.968 9.53845.54 31.01544.221 62.0459.21417 93.07068-.00275 12.54175.067 25.08478-.0885 37.62482-.0672 5.42273-2.15942 10.20843-8.22229 10.44031-6.20538.23736-7.83716-5.05085-9.07471-9.97071-.309-1.22863.08173-2.62317.083-3.94146q.05428-59.90314.09143-119.80622c.01031-17.02081-.002-16.70483-17.13336-16.94934-6.44135-.092-8.34271 1.63928-8.219 8.17206.4123 21.77557.15607 43.56372.15607 65.34717h.04218c0 21.78314-.57489 43.58526.14245 65.34472.9411 28.54816 23.55646 44.70465 47.345 33.99231 15.89844-7.15948 20.29669-21.73889 20.40729-37.66656.2749-39.60431.0874-79.21173.08734-118.81793-.0001-16.27089-.00974-15.88996-15.86307-16.3783zM87.53955 467.233a24.91331 24.91331 0 0 1-6.91913-.00738c-6.02875-.83838-8.22741 1.34558-7.80908 7.609.43683 6.53979-.13763 13.16839-.5705 19.73834-.34826 5.28729-3.31542 8.83844-8.72106 8.96875-6.057.14581-8.5694-4.14588-9.4134-9.48383a51.05657 51.05657 0 0 1-.39141-7.90344q-.03581-46.5454.00048-93.09082a59.02333 59.02333 0 0 1 .38123-7.9068c.73907-5.42047 3.36517-9.69525 9.32178-9.55432 5.25854.12433 8.311 3.6582 8.78936 8.96722.384 4.2605.69025 8.54334.71479 12.81812.08673 15.12475.03521 15.12457 15.34149 14.78906a13.48434 13.48434 0 0 1 1.97949.00226c4.9195.62482 6.23352-1.76495 6.00647-6.34119-.34314-6.91559.18939-13.88135-.28229-20.78259-1.33892-19.59088-13.47827-32.85779-30.74139-34.05157-19.21954-1.32911-31.54657 8.50378-35.53339 29.33862-3.75146 19.60486-.37335 39.50836-1.80194 59.24646 1.42908 20.39136-1.95526 40.94842 2.00031 61.20874 3.2832 16.81653 15.23309 27.31665 31.13452 28.3208 15.024.94867 28.17432-9.34393 33.33429-25.80182 2.84234-9.06567 1.015-18.36786 1.93231-27.4978.71613-7.12781-1.92748-9.5762-8.75293-8.58581z" class="cls-3"/></svg>