<svg xmlns="http://www.w3.org/2000/svg" role="img" viewBox="-11.88 -11.88 617.76 224.26"><title>Windmill Engineering (member) logo</title><circle cx="494.11" cy="100.39" r="100.39" fill="#30b34a"/><path fill="#fff" d="M484.93 105.2h-38.29a4.38 4.38 0 0 0-4.38 4.38v38.28a4.37 4.37 0 0 0 4.38 4.37h1.57a4.39 4.39 0 0 0 2.28-.64l36.71-22.4a4.38 4.38 0 0 0 2.09-3.74v-15.87a4.38 4.38 0 0 0-4.36-4.38zm0-56.66h-38.29a4.37 4.37 0 0 0-4.38 4.37v1.57a4.36 4.36 0 0 0 .64 2.28l22.41 36.71a4.38 4.38 0 0 0 3.74 2.1h15.88a4.38 4.38 0 0 0 4.37-4.38V52.91a4.37 4.37 0 0 0-4.37-4.37zm56.66 0h-1.57a4.39 4.39 0 0 0-2.28.64l-36.71 22.4a4.38 4.38 0 0 0-2.1 3.74v15.87a4.38 4.38 0 0 0 4.37 4.38h38.28a4.38 4.38 0 0 0 4.35-4.38V52.91a4.37 4.37 0 0 0-4.35-4.37zm-18.66 58.76a4.38 4.38 0 0 0-3.73-2.1h-15.9a4.38 4.38 0 0 0-4.37 4.38v38.28a4.37 4.37 0 0 0 4.37 4.37h38.28a4.37 4.37 0 0 0 4.38-4.37v-1.57a4.36 4.36 0 0 0-.64-2.28z"/><path fill="#231f20" d="M117.72 95.56h-3.73l-5.79-18.75-5.68 18.75h-3.78l-4.59-25.69v-.69h3.27l3.67 22.94 5.45-18.23h3.55l5.39 18.23 3.67-22.94h3.21v.69zm27.06.57c-5 0-7.85-3-7.85-8.14V72.05h-9.35v-2.87h12.73v19.16a4.52 4.52 0 0 0 4.87 4.81 11.41 11.41 0 0 0 6.37-2.23h.74l1.21 2.4a15 15 0 0 1-8.72 2.81zm-6.42-39.68a3.44 3.44 0 1 1-3.61 3.44 3.46 3.46 0 0 1 3.61-3.44zm41.69 39.11V78.47c0-4.41-2.3-6.82-5.91-6.82-2.81 0-6.31 1.38-9.12 3.1v20.81h-3.32V69.18h1.77l.81 2.93c2.63-1.72 6.48-3.5 10.15-3.5 5.73 0 8.94 3.44 8.94 10.15v16.8zm35.43-40.83v40.89h-2l-.75-3.62a11.31 11.31 0 0 1-8.66 4.18c-7.23 0-11.41-5.5-11.41-13.53 0-8.71 4.93-14 11.75-14a11.52 11.52 0 0 1 7.74 3V54.73zM196.1 82.49c0 6.08 2.87 10.6 8.43 10.6a10.57 10.57 0 0 0 7.62-3.84v-14.5a11.23 11.23 0 0 0-7.34-3.1c-4.98 0-8.71 4.01-8.71 10.84zm51.03 13.07V75.89c0-2.69-1.72-4.36-3.84-4.36a8 8 0 0 0-5.1 2.47v21.56h-2.87V76c0-2.81-1.66-4.42-3.73-4.42a7.87 7.87 0 0 0-5.1 2.47v21.51h-3.1V69.18h1.54l.57 2.41a9.31 9.31 0 0 1 6.37-3 5.59 5.59 0 0 1 5.27 3.21 9.45 9.45 0 0 1 6.83-3.21c3.95 0 6.25 2.69 6.25 7.28v19.69zm26.09.57c-5 0-7.86-3-7.86-8.14V72.05h-9.34v-2.87h12.73v19.16a4.52 4.52 0 0 0 4.87 4.81 11.41 11.41 0 0 0 6.37-2.23h.74l1.21 2.4a15 15 0 0 1-8.72 2.81zm-6.42-39.68a3.44 3.44 0 1 1 0 6.88 3.38 3.38 0 0 1-3.61-3.44 3.45 3.45 0 0 1 3.61-3.44zm37.13 39.68c-4.81 0-7.74-3-7.74-8.08V57.6h-8.6v-2.87h12v33.61a4.48 4.48 0 0 0 4.81 4.81 12.13 12.13 0 0 0 6.83-2.23h.7l1.31 2.4a17.56 17.56 0 0 1-9.31 2.81zm32.13 0c-4.81 0-7.74-3-7.74-8.08V57.6h-8.6v-2.87h12v33.61a4.48 4.48 0 0 0 4.81 4.81 12.13 12.13 0 0 0 6.83-2.23h.68l1.32 2.4a17.56 17.56 0 0 1-9.3 2.81zM3.38 140.17c.06 6.54 3.73 10.44 9.35 10.44a14.47 14.47 0 0 0 8.26-2.7h.74l1.32 2.41a18.56 18.56 0 0 1-10.2 3.15C5.16 153.47 0 148.31 0 140.05c0-9 5.79-14.1 12.56-14.1s11.37 5.45 11.37 12.61v1.61zm.06-2.41h17.2c0-4.76-3.38-9-8.2-9s-8.71 4.13-9 9zm48.17 15.14v-17.09c0-4.41-2.3-6.82-5.91-6.82-2.81 0-6.31 1.37-9.12 3.09v20.82h-3.32v-26.38h1.78l.8 2.93c2.64-1.72 6.48-3.5 10.15-3.5 5.73 0 8.94 3.44 8.94 10.15v16.8zm32.11.29v-4.48a10.51 10.51 0 0 1-8.2 4c-6.37 0-11.41-4.7-11.41-12.84 0-8.38 4.64-13.88 11.75-13.88a12.47 12.47 0 0 1 8.66 3.5l.86-2.93h1.66v26.26c0 7.12-4.58 11.24-11.41 11.24-4 0-7.91-1.43-10-3.26l1.3-2.45h.75a11.51 11.51 0 0 0 7.68 2.75c5.09 0 8.36-3.21 8.36-7.91zm-16.17-13.54c0 6.08 3.32 10.15 8.6 10.15 3.32 0 6-2.12 7.57-3.9V132a11.1 11.1 0 0 0-7.46-3.1c-5.44.03-8.71 4.68-8.71 10.75zm45.12 13.82c-5 0-7.85-3-7.85-8.14v-15.94h-9.35v-2.87h12.73v19.15a4.53 4.53 0 0 0 4.87 4.82 11.41 11.41 0 0 0 6.37-2.23h.74l1.21 2.4a15 15 0 0 1-8.72 2.81zm-6.42-39.68a3.44 3.44 0 1 1 0 6.88 3.39 3.39 0 0 1-3.61-3.44 3.46 3.46 0 0 1 3.61-3.44zm41.68 39.11v-17.09c0-4.41-2.3-6.82-5.91-6.82-2.81 0-6.31 1.37-9.12 3.09v20.82h-3.32v-26.38h1.77l.81 2.93c2.64-1.72 6.48-3.5 10.15-3.5 5.73 0 8.94 3.44 8.94 10.15v16.8zm16-12.73c.06 6.54 3.73 10.44 9.35 10.44a14.47 14.47 0 0 0 8.26-2.7h.74l1.32 2.41a18.59 18.59 0 0 1-10.21 3.15c-7.68 0-12.84-5.16-12.84-13.42 0-9 5.79-14.1 12.56-14.1s11.41 5.45 11.41 12.61v1.61zm.06-2.41h17.2c0-4.76-3.38-9-8.2-9s-8.71 4.13-9 9zm32.05 2.41c.06 6.54 3.73 10.44 9.35 10.44a14.47 14.47 0 0 0 8.26-2.7h.74l1.32 2.41a18.59 18.59 0 0 1-10.21 3.15c-7.68 0-12.84-5.16-12.84-13.42 0-9 5.79-14.1 12.56-14.1s11.41 5.45 11.41 12.61v1.61zm.06-2.41h17.2c0-4.76-3.38-9-8.2-9s-8.71 4.13-9 9zm54.13-7.34h-.75a14.41 14.41 0 0 0-5.84-1.26c-3.39 0-6.43 1.83-9.64 6.14v17.6h-3.32v-23.51h-7.34v-2.87h8.94l.86 5.85c2.64-3.78 6.31-6.42 10.67-6.42a16.68 16.68 0 0 1 6.42 1.2zm22.99 23.05c-5 0-7.86-3-7.86-8.14v-15.94h-9.34v-2.87h12.73v19.15a4.53 4.53 0 0 0 4.87 4.82 11.41 11.41 0 0 0 6.37-2.23h.74l1.21 2.4a15 15 0 0 1-8.72 2.81zm-6.42-39.68a3.44 3.44 0 1 1 0 6.88 3.38 3.38 0 0 1-3.61-3.44 3.45 3.45 0 0 1 3.61-3.44zm41.68 39.11v-17.09c0-4.41-2.29-6.82-5.9-6.82-2.81 0-6.31 1.37-9.12 3.09v20.82h-3.32v-26.38h1.79l.81 2.93c2.63-1.72 6.48-3.5 10.15-3.5 5.73 0 8.94 3.44 8.94 10.15v16.8zm32.11.29v-4.48a10.47 10.47 0 0 1-8.2 4c-6.36 0-11.41-4.7-11.41-12.84 0-8.38 4.65-13.88 11.76-13.88a12.49 12.49 0 0 1 8.66 3.5l.86-2.93h1.67v26.26c0 7.12-4.59 11.24-11.41 11.24-4 0-7.91-1.43-10-3.26l1.32-2.41h.75a11.47 11.47 0 0 0 7.68 2.75c5.06-.04 8.32-3.25 8.32-7.95zm-16.17-13.54c0 6.08 3.33 10.15 8.61 10.15 3.32 0 6-2.12 7.56-3.9V132a11.08 11.08 0 0 0-7.45-3.1c-5.45.03-8.72 4.68-8.72 10.75z" opacity=".6"/></svg>