<svg xmlns="http://www.w3.org/2000/svg" role="img" viewBox="8.12 64.12 1189.76 456.76"><title>Witc logo</title><path fill="#654fef" fill-rule="evenodd" d="M275.828 242.879h4.181l71.334 249.539h73.947l100.077-377.052h-81.525l-58.269 265.739h-4.181l-70.028-265.739h-66.631l-68.721 265.739h-4.181l-58.792-265.739H30.992l99.816 377.052h74.469zm297.631 249.539H649.5V204.207h-76.041v288.211zm38.15-328.451c27.174 0 44.943-15.939 44.943-38.411 0-22.732-17.769-38.41-44.943-38.41-27.437 0-44.944 15.678-44.944 38.41 0 22.472 17.507 38.411 44.944 38.411zm123.036-28.22v71.334H689.7v59.837h44.943v147.633c0 56.179 27.7 78.912 97.725 78.912a212.3 212.3 0 0 0 38.149-3.4v-58.005a185.28 185.28 0 0 1-22.471 1.045c-25.869 0-37.366-11.5-37.366-36.581v-129.6h59.837v-59.841h-59.835v-71.334h-76.037zm440.785 170.1c-6.27-65.586-52-107.916-128.3-107.916-90.147 0-140.839 54.088-140.839 149.723 0 96.68 50.953 151.03 140.839 151.03 74.99 0 122.03-41.546 128.3-106.087h-71.08c-5.74 28.482-26.13 43.637-57.22 43.637-40.76 0-64.018-31.094-64.018-88.58 0-56.7 23-87.273 64.018-87.273 32.4 0 52 18.029 57.22 45.466h71.08z"/></svg>