<svg xmlns="http://www.w3.org/2000/svg" role="img" viewBox="-19.98 -20.98 1038.96 590.96"><title>x-cellent (KCSP) logo</title><path fill="#2761ab" stroke="#fff" stroke-miterlimit="3.864" stroke-width=".16" d="M532.80404 5.78017c5.69149 1.80531 11.21665 3.70684 16.37479 5.93092-1.55989 4.77458-3.15499 9.67997-4.71489 14.45455-4.96635-1.89198-10.2648-3.59221-15.63346-5.03079 1.36812-5.10669 2.57051-10.11718 3.97356-15.35468h0zm-20.62202 12.01678c-5.97189-.7582-12.0139-1.25444-18.29217-1.39287.61756-5.44801 1.36589-10.86107 1.98375-16.30908 6.54021.20955 13.07118.97633 19.40058 1.97041-.97537 5.21179-1.98596 10.5547-3.09213 15.73154h0zm-37.11111-.82137c-6.78563.7077-13.64172 1.67735-20.56768 2.90925-.33401-5.56261-.50198-11.22142-.66993-16.87992 7.51997-1.35289 14.63776-2.25268 21.91201-2.68924-.22555 5.5531-.48453 11.2373-.6744 16.65991h0zm-41.60088 8.07944c-7.20691 2.27935-14.6501 4.91618-22.16283 7.81497-1.3208-5.54642-2.47552-11.18841-3.72619-16.99677 7.97595-3.05563 16.10873-5.64771 24.00563-7.88261.56038 5.76361 1.15632 11.39671 1.88339 17.06441h0zm-44.5644 18.09217c-7.75876 3.81509-15.65755 8.15436-23.40013 12.95624-2.34252-5.39909-4.8511-10.70232-7.32474-16.13666 8.50234-5.01936 16.73324-9.5501 25.25212-13.583 1.84468 5.68675 3.59314 11.20745 5.47275 16.76342h0zm-46.1478 28.19248c-7.85721 5.75375-15.65343 11.80438-23.29283 18.31823-3.67095-4.63234-7.43778-9.43075-11.33509-14.26405 8.4344-6.86216 16.76372-13.33123 25.24988-19.33741 3.23343 5.21687 6.2405 10.23242 9.37804 15.28323h0zm-45.43535 38.62843c-7.42223 7.27365-14.68789 15.01051-21.66563 23.24488-5.1651-3.76967-10.33051-7.53938-15.32925-11.40463 7.64192-8.61825 15.60672-16.86913 23.76335-24.78793 4.43074 4.41486 8.89635 8.69889 13.23151 12.94768h0zm-41.74405 47.89756c-6.52434 8.63699-12.76072 17.7718-18.73576 26.97678-6.37194-2.40886-12.61241-4.7825-18.98435-7.19139 6.48243-10.05175 13.32267-19.86667 20.45026-29.18436 5.89948 3.12485 11.66753 6.2138 17.26985 9.39897h0zm-35.22008 54.97816c-5.25941 9.67743-10.03018 19.626-14.44314 29.8111-7.22058-.81217-14.572-1.65893-21.88882-2.63716 4.8857-10.90044 9.99747-21.59959 15.76455-32.12348 6.97487 1.72848 13.85417 3.29091 20.56741 4.94954h0zm-25.82078 59.18057c-3.55695 10.13369-6.38938 20.18069-8.95987 30.29785l-.035.13004c-7.80768.85535-15.61534 1.71039-23.42299 2.56541l.035-.13005c2.61494-10.80709 5.72772-21.90185 9.49549-32.82101 7.56191.0605 15.25498.15875 22.88707-.0412h0zm-14.71395 59.63049c-1.41733 10.00509-2.46793 19.6876-2.88957 29.1177-7.96673 2.4965-16.19509 4.92284-24.16182 7.41937.33495-10.15495 1.33381-20.69314 2.96198-31.48403 8.01814-1.64054 16.07157-3.4125 24.08941-5.05304h0zm-2.85147 56.2129c.57468 8.8551 1.74341 17.58829 3.31441 25.86807-7.79371 3.94654-15.55247 7.76163-23.31125 11.57705-1.8234-8.90877-3.27979-18.14009-3.90557-27.85087 8.17723-3.28233 16.18841-6.46877 23.90241-9.59425h0zm9.1726 49.04978c2.4711 7.53842 5.30956 14.75458 8.71604 21.42116-7.2187 4.94252-14.30659 9.91967-21.39418 14.89745-3.6938-7.16473-7.11677-14.81777-9.84029-22.98547 7.63684-4.40946 15.17845-8.98497 22.51843-13.33314h0zm19.35646 39.84955c4.2107 5.75946 8.49186 11.25698 13.21056 16.16999-6.14553 5.65088-12.42189 11.26684-18.69857 16.88279-5.33783-5.21938-10.14258-10.85726-14.64091-17.11457 6.76498-5.34481 13.36361-10.5934 20.12892-15.93821h0zm27.69053 29.17165c5.09492 4.03132 10.7582 7.51367 16.36049 10.69884-5.22891 5.89663-10.3267 11.82818-15.59056 17.85562-6.29224-3.22962-12.21711-6.78182-18.06263-11.15477 5.88329-5.72104 11.50496-11.51259 17.2927-17.39969h0zm33.36142 18.48173c6.01411 2.17267 12.2644 3.98781 18.48867 5.37466-4.14621 6.04649-8.25724 11.96186-12.2022 17.78132-7.1152-1.2046-13.79348-2.99403-20.23527-5.14098 4.70503-6.03696 9.27895-12.10885 13.94878-18.015h0zm36.98917 8.08612c6.43511.60167 12.84415.77533 19.62061.62611-3.22009 5.73312-6.30907 11.50115-9.36343 17.13839-7.10854.341-14.11165.28893-21.0449-.0318 3.55217-5.92456 7.23552-11.81454 10.78772-17.73941h0zm38.72018-.99251c6.52367-.77818 13.18771-2.07994 19.7911-3.67887-2.12792 5.32416-4.25642 10.64771-6.38433 15.97187-7.06628 1.75514-14.19354 3.21407-21.08458 4.31453 2.59114-5.48039 5.21717-11.09221 7.67781-16.60753h0zm38.75513-8.98274c6.44681-2.06152 12.83272-4.42055 19.45483-7.13709h0c-1.26269 4.71392-2.56094 9.55835-3.82363 14.2723h0c-6.98946 3.03912-13.74273 5.7204-20.52135 7.97403 1.59482-4.9057 3.25977-10.07271 4.89015-15.10924h0zm37.71527-15.57659c6.16843-3.1185 12.24126-6.40336 18.2182-9.85396-.43274 4.23452-.99659 8.43379-1.42936 12.66828-6.3443 3.77351-12.78386 7.38096-19.45074 10.78711.93091-4.52218 1.73099-9.07926 2.66193-13.60143h0zm35.56422-20.64359c5.68934-3.94844 11.41388-8.02865 17.00731-12.14314.13665 3.68492.1745 7.2041.34541 10.75821-5.86457 4.60343-11.79008 8.91001-17.97784 13.14611.2319-4.0075.4286-7.88449.62512-11.76118h0zm32.77532-24.89905c5.27082-4.48218 10.44545-9.13006 15.48962-13.8132.73851 3.00483 1.47735 6.00933 2.08502 8.97923-5.31527 5.17146-10.82203 10.01114-16.29412 14.71998-.40676-3.1966-.90902-6.55893-1.28052-9.88601h0zm29.83589-28.0728c4.81713-4.88413 9.3723-9.83842 13.99796-15.05496 1.00998 2.51652 2.186 4.9362 3.23122 7.32158-4.69584 5.47816-9.48724 10.79028-14.54089 16.03189-.80868-2.74258-1.78374-5.3899-2.68829-8.29851h0zm26.6161-30.19815c4.19767-5.19051 8.13341-10.45119 12.13901-15.9738 1.57831 1.9666 3.0607 3.76716 4.50787 5.6985-4.17163 5.6185-8.34359 11.237-12.77717 16.78501-1.24651-2.15804-2.62353-4.35167-3.86971-6.50971h0zm23.25662-31.80026c3.54267-5.36577 7.02469-11.02904 10.47151-16.56085 1.75385 1.31158 3.50742 2.62383 5.26096 3.93574-3.38613 5.82868-7.06947 11.71863-10.84834 17.44223-1.68342-1.57386-3.33188-3.27851-4.88411-4.81712h0zm19.75554-32.87849c3.05406-5.63724 5.97727-11.30972 8.76968-17.01711 2.02472.82329 4.08466 1.51544 6.10969 2.33871-2.86259 5.96935-5.85566 11.90344-9.11101 17.76735-1.95454-1.08489-3.77857-2.13487-5.76836-3.08895h0zm16.31637-33.65988c2.49526-5.64643 4.72856-11.36336 6.86628-17.24632 2.29617.33465 4.59205.66929 6.79262.83787-2.30346 5.97855-4.60694 11.95742-7.20758 17.99692-2.0952-.56134-4.2253-.9922-6.45132-1.58847h0zm12.73657-33.91702c1.80561-5.69122 3.47981-11.41734 4.95332-16.91678 2.47142-.32004 4.94318-.64008 7.41491-.96043-1.61384 6.0233-3.48933 11.97614-5.36543 17.92895-2.36602-.0731-4.63679.0318-7.0028-.0508h0zm-51.7666-252.02272c4.85205 2.84354 9.40689 5.74804 13.72557 9.01004-2.14474 4.33737-4.158 8.70969-6.17161 13.08198-4.09193-3.06101-8.4198-5.76455-12.98419-8.11024 1.8221-4.7041 3.64361-9.4085 5.43023-13.98178h0zm25.49339 19.03957c3.78558 3.6808 7.27398 7.42223 10.6925 11.42558-2.43209 3.83923-4.69805 7.58256-6.96407 11.3259-3.22677-3.67125-6.61926-7.24664-10.34418-10.63057 2.20536-4.04019 4.41072-8.0804 6.61575-12.12091h0zm19.79461 23.54777c2.92007 4.29104 5.50834 8.77352 8.02676 13.51792-2.51875 3.11438-5.07242 6.35954-7.6261 9.60473-2.32601-4.41232-4.88854-8.46711-7.74826-12.46097 2.49301-3.54234 4.85459-7.11931 7.3476-10.66168h0zm14.47233 27.17396c2.09012 4.7698 3.97923 9.76697 5.57151 14.82443-2.67529 2.65113-5.3502 5.30259-7.89465 7.98929-1.66216-4.79587-3.35952-9.4609-5.38898-13.93418 2.64956-3.07912 5.26388-6.0271 7.7121-8.87954h0zm9.693 29.82223c1.12868 5.21431 2.25807 10.42864 3.05499 15.83471-2.66573 2.09267-5.3315 4.185-8.03249 6.40844-.73594-5.10922-1.76939-10.15749-2.96861-15.10987 2.60475-2.38951 5.341-4.74377 7.94611-7.13328h0zm4.95746 31.78152c.50003 5.46706.83406 11.02967.8363 16.78373-2.65657 1.53386-5.2172 3.23343-7.87342 4.76729-.0731-5.49277-.47658-10.79346-.91597-15.96331 2.63081-1.96152 5.35751-3.757 7.95309-5.58771h0zm.75565 33.32205c-.42578 5.78009-.85187 11.56021-1.44402 17.43588-2.51588 1.01029-5.03208 2.01994-7.71398 3.12579.52162-5.61406.87755-11.13222 1.1979-16.51958 2.62164-1.40272 5.20765-2.6743 7.9601-4.04209h0zm-3.603 34.39963c-1.02014 5.9017-2.03995 11.80341-3.35662 17.76544-2.50668.45119-4.91745 1.06808-7.45937 1.65037 1.28174-5.83152 2.32729-11.30524 3.14611-16.97995 2.57684-.71277 5.05779-1.59195 7.66988-2.43586z"/><path fill="#262425" fill-rule="evenodd" d="M968.23337 423.22723l6.15954-.34608c0 1.75769.26988 3.25599.80546 4.49551.53724 1.23919 1.52751 2.25329 2.97118 3.04196 1.44368.78868 3.12804 1.18301 5.05304 1.18301 2.68608 0 4.70028-.54069 6.04333-1.62146 1.34268-1.08111 2.0139-2.35395 2.0139-3.81796 0-1.05855-.40163-2.06059-1.2046-3.00641-.8255-.94585-2.83909-2.10853-6.04108-3.4887-3.20201-1.37986-5.25626-2.35077-6.16241-2.91308-1.51766-.92296-2.66127-2.00851-3.43122-3.25723-.76995-1.24874-1.15474-2.68288-1.15474-4.30277 0-2.83562 1.12301-5.26577 3.36899-7.29079 2.24603-2.02533 5.38987-3.03785 9.43234-3.03785 4.49137 0 7.91053 1.04173 10.25749 3.12484 2.34697 2.08314 3.56551 4.82508 3.65541 8.22551l-5.9519.4153c-.0889-2.17204-.85091-3.89163-2.28443-5.15876-1.43353-1.26716-3.46043-1.90056-6.08109-1.90056-2.10566 0-3.74112.48578-4.90572 1.45733-1.16459.97122-1.74689 2.02184-1.74689 3.15151s.50198 2.12408 1.50623 2.98261c.66898.58768 2.4019 1.48684 5.19812 2.69812 4.6536 2.01931 7.58794 3.61316 8.80273 4.78187 1.93482 1.865 2.90226 4.13483 2.90226 6.80945 0 1.77577-.54452 3.51758-1.63383 5.22543-1.08939 1.70783-2.75149 3.07308-4.98639 4.09577-2.23488 1.02265-4.86887 1.53383-7.90164 1.53383-4.13292 0-7.64826-1.02489-10.54578-3.07531-2.89721-2.05106-4.27673-5.38609-4.13833-10.00509zm-12.69527.13843l5.94774.55372c-.85789 2.94768-2.82797 5.74964-5.91027 8.40521-3.0823 2.65558-6.75739 3.98304-11.02523 3.98304-2.66447 0-5.1089-.61278-7.333-1.83833-2.22378-1.22555-3.91733-3.00767-5.08032-5.34639-1.16269-2.33871-1.74435-5.00351-1.74435-7.99467 0-3.91258.90899-7.70702 2.72636-11.38401 1.81738-3.67666 4.17103-6.40907 7.06092-8.19691 2.88989-1.78786 6.01664-2.68194 9.38025-2.68194 4.28974 0 7.71557 1.32494 10.27814 3.97481 2.56251 2.64986 3.84366 6.26493 3.84366 10.84583 0 1.75133-.15875 3.54742-.47244 5.38863h-26.51864c-.0919.69944-.1397 1.33096-.1397 1.89451 0 3.3617.77534 5.92807 2.32664 7.69909 1.55101 1.77102 3.44713 2.65652 5.68835 2.65652 2.106 0 4.17801-.68293 6.21603-2.04882 2.03773-1.36589 3.62302-3.33599 4.75459-5.91029zm-17.86323-8.99734h20.22953c.0317-.62802.0317-1.07633.0317-1.34524 0-3.04961-.76929-5.38705-2.30826-7.01266-1.53858-1.62591-3.51852-2.43871-5.93945-2.43871-2.62482 0-5.01781.89693-7.17872 2.6905-2.16091 1.79355-3.77318 4.49582-4.83648 8.10611zm-15.14896-21.45481l1.45133-6.92089h6.07821l-1.45004 6.92089h-6.0795zm-8.93003 42.63308l7.52322-35.91984h6.08047l-7.52416 35.91984h-6.07953zm-38.80939 3.25279l6.2265.55372c-.0444 1.40368.12395 2.45652.50676 3.1585.38227.70231.98933 1.24587 1.82149 1.63101 1.10236.49815 2.53078.74707 4.28532.74707 3.6884 0 6.3424-.95822 7.96229-2.87432 1.05695-1.28525 2.03518-4.08149 2.93498-8.38838l.60863-2.90673c-3.17404 3.21755-6.55098 4.82634-10.13018 4.82634-3.62398 0-6.65736-1.33414-9.09927-4.00241-2.4422-2.66798-3.6633-6.44527-3.6633-11.33194 0-4.03066.96136-7.73496 2.88417-11.11253 1.92243-3.37758 4.21101-5.92775 6.86498-7.65018 2.65434-1.72276 5.38673-2.58415 8.19755-2.58415 4.70031 0 8.32109 2.19457 10.86234 6.5837l1.26208-5.82233h5.66549l-7.30159 34.67397c-.78803 3.81446-1.82372 6.78817-3.10734 8.92081-1.28369 2.13297-3.06805 3.78621-5.3534 4.96-2.28537 1.17381-4.92537 1.76056-7.92007 1.76056-2.88225 0-5.36482-.37245-7.44791-1.11761-2.08314-.74518-3.63699-1.83452-4.66155-3.26868-1.02428-1.43384-1.5364-3.07659-1.5364-4.92792 0-.56452.0477-1.17381.1397-1.8285zm7.68192-19.12562c0 2.45778.238 4.30658.71154 5.54643.67785 1.7361 1.64338 3.06071 2.89657 3.97351 1.25347.91314 2.64763 1.3697 4.18339 1.3697 2.00978 0 4.00841-.70421 5.99569-2.11232 1.9872-1.40843 3.59599-3.58872 4.82662-6.54052 1.23066-2.95182 1.84598-5.76835 1.84598-8.44933 0-2.95657-.81852-5.30925-2.45588-7.05838-1.63704-1.7491-3.66399-2.62349-6.08048-2.62349-1.49004 0-2.9353.40005-4.33513 1.20045-1.40018.80011-2.70447 2.0174-3.91258 3.65223-1.20843 1.6348-2.12281 3.5906-2.74417 5.86772-.62103 2.27712-.93155 4.00178-.93155 5.174zm-44.76125 2.23076c0-6.99358 2.06025-12.78449 6.18108-17.37269 3.40079-3.77762 7.85942-5.66645 13.37667-5.66645 4.3234 0 7.80829 1.34938 10.45432 4.04783 2.64605 2.69843 3.96911 6.34144 3.96911 10.92965 0 4.11512-.83312 7.94355-2.49939 11.48559-1.66655 3.54173-4.03671 6.25731-7.11073 8.14613-3.07404 1.8888-6.311 2.83305-9.71077 2.83305-2.79274 0-5.33211-.59563-7.61782-1.7872-2.28567-1.1919-4.03096-2.87846-5.23556-5.06002-1.20463-2.18154-1.80691-4.69996-1.80691-7.55589zm6.09028-.60325c0 3.37757.81503 5.93853 2.44508 7.68321 1.63005 1.74466 3.70143 2.61715 6.21474 2.61715 1.31354 0 2.61527-.26352 3.90592-.79375 1.2903-.52926 2.49048-1.33414 3.59983-2.41491 1.10935-1.08045 2.05486-2.31331 2.83589-3.69762.78108-1.38461 1.40943-2.87623 1.88441-4.47453.70198-2.22918 1.05313-4.36787 1.05313-6.41702 0-3.24199-.82072-5.75787-2.46223-7.54763-1.64148-1.78974-3.70747-2.68446-6.19731-2.68446-1.925 0-3.67984.45593-5.26478 1.3681-1.58496.91186-3.01689 2.2457-4.29644 4.00148-1.2792 1.75578-2.2187 3.79921-2.81845 6.12934-.59977 2.33046-.89979 4.40724-.89979 6.23064zm-22.9858 14.24532l10.34131-49.55397h6.07857l-10.34134 49.55397h-6.07854zm-37.05015-13.64207c0-6.99358 2.06058-12.78449 6.18111-17.37269 3.40076-3.77762 7.85974-5.66645 13.37695-5.66645 4.32342 0 7.808 1.34938 10.45436 4.04783 2.64605 2.69843 3.96907 6.34144 3.96907 10.92965 0 4.11512-.83312 7.94355-2.49967 11.48559-1.66625 3.54173-4.03671 6.25731-7.11045 8.14613-3.07404 1.8888-6.31095 2.83305-9.71106 2.83305-2.79276 0-5.33211-.59563-7.61781-1.7872-2.2857-1.1919-4.03069-2.87846-5.23529-5.06002-1.2049-2.18154-1.80721-4.69996-1.80721-7.55589zm6.09063-.60325c0 3.37757.81471 5.93853 2.44476 7.68321 1.63005 1.74466 3.70173 2.61715 6.21476 2.61715 1.31349 0 2.61557-.26352 3.9059-.79375 1.29063-.52926 2.49048-1.33414 3.60013-2.41491 1.10935-1.08045 2.05456-2.31331 2.83592-3.69762.78105-1.38461 1.40907-2.87623 1.88405-4.47453.70231-2.22918 1.05347-4.36787 1.05347-6.41702 0-3.24199-.82073-5.75787-2.46221-7.54763-1.64181-1.78974-3.70745-2.68446-6.19762-2.68446-1.92469 0-3.67984.45593-5.2648 1.3681-1.58463.91186-3.01689 2.2457-4.29612 4.00148-1.2792 1.75578-2.219 3.79921-2.81877 6.12934-.59975 2.33046-.89947 4.40724-.89947 6.23064zm-45.73062 14.24532l7.52446-35.91984h5.58327l-1.29985 6.27636c2.43744-2.45111 4.71553-4.23674 6.8342-5.35718 2.11869-1.12015 4.28308-1.68055 6.49259-1.68055 2.93845 0 5.24478.79154 6.91928 2.37427 1.6742 1.58276 2.51143 3.69668 2.51143 6.34177 0 1.32652-.31115 3.41791-.93439 6.27445l-4.85205 21.69072h-6.07821l5.03904-22.71719c.50039-2.20505.75058-3.83668.75058-4.89429 0-1.19317-.41974-2.16091-1.25888-2.90353-.83917-.74265-2.05169-1.11379-3.63762-1.11379-3.19597 0-6.04108 1.12268-8.53537 3.36868-2.49462 2.24567-4.32787 6.09696-5.50008 11.55449l-3.47981 16.70563h-6.07854zm-38.46334 0l10.38134-49.55397h6.07857l-3.98941 19.04213c2.23996-2.20218 4.32436-3.78113 6.25383-4.73647 1.92914-.95505 3.91385-1.4329 5.95411-1.4329 2.92733 0 5.20066.78296 6.81959 2.34824 1.61895 1.56561 2.42827 3.63221 2.42827 6.20016 0 1.26111-.3823 3.57983-1.1462 6.95677l-4.69236 21.17604h-6.07951l4.78537-21.70469c.6855-3.15055 1.0284-5.13112 1.0284-5.94138 0-1.17001-.39751-2.12632-1.19223-2.86894-.79502-.74265-1.9431-1.11379-3.44488-1.11379-2.16406 0-4.22912.57912-6.19475 1.73736-1.96566 1.15791-3.50585 2.74351-4.62058 4.75647-1.11509 2.01265-2.13645 5.25688-3.06419 9.73267l-3.22581 15.4023h-6.07951zm-9.89678-13.08073l6.15952.62294c-1.53386 4.47422-3.717 7.79591-6.5488 9.96508-2.83178 2.16917-6.05281 3.25375-9.66313 3.25375-3.90402 0-7.06851-1.25921-9.49424-3.77763-2.4254-2.51872-3.63826-6.0379-3.63826-10.55817 0-3.91255.77788-7.75782 2.33363-11.53608 1.55578-3.77793 3.7824-6.65068 6.68025-8.61855 2.89782-1.96787 6.20714-2.95182 9.92762-2.95182 3.8557 0 6.91072 1.08809 9.16592 3.26361 2.25489 2.17582 3.38265 5.05588 3.38265 8.64047l-6.02139.41529c-.0317-2.27585-.68296-4.05609-1.98153-5.34037-1.29889-1.28461-3.00958-1.92659-5.13272-1.92659-2.46127 0-4.59518.77564-6.40176 2.32664-1.80658 1.55098-3.22391 3.9059-4.25167 7.06407-1.02743 3.1585-1.54145 6.19922-1.54145 9.1218 0 3.05659.67691 5.34959 2.03104 6.87804 1.35382 1.52875 3.02354 2.29329 5.00889 2.29329 1.98596 0 3.88748-.75278 5.70359-2.2587 1.81641-1.50559 3.24359-3.79795 4.28181-6.87707zm-36.84888.8998l5.94776.55372c-.85819 2.94768-2.82827 5.74964-5.91057 8.40521-3.08233 2.65558-6.75739 3.98304-11.02526 3.98304-2.66447 0-5.10857-.61278-7.33265-1.83833-2.2241-1.22555-3.91763-3.00767-5.08034-5.34639-1.16302-2.33871-1.74433-5.00351-1.74433-7.99467 0-3.91258.90869-7.70702 2.72607-11.38401 1.81768-3.67666 4.17099-6.40907 7.06089-8.19691 2.88989-1.78786 6.01664-2.68194 9.38057-2.68194 4.28944 0 7.71558 1.32494 10.27781 3.97481 2.56257 2.64986 3.844 6.26493 3.844 10.84583 0 1.75133-.15875 3.54742-.47277 5.38863h-26.51862c-.0919.69944-.1397 1.33096-.1397 1.89451 0 3.3617.77564 5.92807 2.32665 7.69909 1.55098 1.77102 3.44737 2.65652 5.68865 2.65652 2.10567 0 4.17768-.68293 6.21573-2.04882 2.03802-1.36589 3.62299-3.33599 4.75489-5.91029zm-17.86354-8.99734h20.22956c.0318-.62802.0351-1.07633.0351-1.34524 0-3.04961-.76962-5.38705-2.30823-7.01266-1.53892-1.62591-3.51885-2.43871-5.93948-2.43871-2.6251 0-5.01778.89693-7.17867 2.6905-2.16127 1.79355-3.77318 4.49582-4.83683 8.10611zm-13.48904 16.22335l-1.0144 5.00128c-1.46401.38417-2.88324.57658-4.25736.57658-2.42604 0-4.35741-.5985-5.79406-1.79515-1.07923-.9033-1.61895-2.13394-1.61895-3.6919 0-.79027.2921-2.60765.87818-5.45246l4.36025-20.89694h-4.84476l.96904-4.70633h4.84443l1.86025-8.79826 6.99866-4.21324-2.76861 13.0115h6.02142l-1.03823 4.70633h-5.95187l-4.15263 19.87396c-.51626 2.52827-.77435 4.04084-.77435 4.53741 0 .72231.20955 1.27539.62418 1.65893.41593.38354 1.09665.57532 2.04247.57532 1.35192 0 2.55718-.13031 3.61636-.38703zM3.73063 252.54477l38.65574 58.9758L0 375.65576h42.38637l24.3682-39.52887 24.05069 39.52887h42.78325l-41.83075-63.42081 22.30445-35.24261-20.55819-24.44757h-4.92126l-21.11382 37.94136-21.82819-37.94136H3.73063z"/><path fill="#2761ab" fill-rule="evenodd" d="M96.7584 252.54477l18.73256 22.22507 14.28754-22.22507H96.7584z"/><path fill="#262425" fill-rule="evenodd" d="M141.23203 325.54362v-15.87187h55.55154v15.87187h-55.55154zm645.61082 44.64033V268.99957h15.87187v17.45938h.39688c3.04198-7.40699 8.00198-12.56542 14.87969-15.47533 5.81979-2.38092 14.48312-3.57125 25.98999-3.57125h25.59345c28.04008 0 42.06028 11.44116 42.06028 34.32346v68.44812h-17.06219v-64.28188c0-8.46521-2.05009-14.41708-6.15032-17.85595-5.42292-4.49708-15.80581-6.74562-31.14842-6.74562h-4.3647c-19.5752 0-32.63653 2.1822-39.18373 6.5472-6.54687 4.36467-9.82063 12.63146-9.82063 24.8v57.53625h-17.06217zm-43.93642-61.50438v-6.74562c0-13.75574-11.8377-20.63345-35.51311-20.63345h-24.99809c-13.62333 0-22.65055 1.71928-27.08126 5.15845-4.43104 3.43884-7.04313 10.84583-7.83689 22.22062h95.42935zM630.41491 330.3055V308.283c0-16.53354 5.22447-27.90833 15.67345-34.125 7.40697-4.49708 18.71541-6.74563 33.92594-6.74563h27.37902c17.06219 0 29.62728 2.7775 37.69564 8.33283 9.91967 6.87801 14.87969 18.71571 14.87969 35.51375v11.30875H647.47708v6.34875c0 11.2427 3.10836 18.91416 9.32473 23.01467 5.81976 3.96782 16.33476 5.95188 31.54529 5.95188h23.41094c11.24238 0 18.97988-1.12426 23.2125-3.3728 4.76154-2.51304 7.40696-7.47304 7.93592-14.88h17.06219v1.98405c0 11.11032-4.49708 19.04657-13.49125 23.80812-8.06802 4.23262-20.56707 6.34875-37.49686 6.34875h-30.94999c-14.28469 0-24.99812-2.24854-32.14062-6.74562-10.31659-6.48114-15.47499-18.05438-15.47499-34.72zm-46.74533 39.87845v-143.6422h17.06217v143.6422h-17.06217zm-53.6891 0v-143.6422h17.06189v143.6422h-17.06189zm-46.31737-61.50438v-6.74562c0-13.75574-11.83768-20.63345-35.51311-20.63345h-24.99812c-13.62333 0-22.65049 1.71928-27.0812 5.15845-4.43105 3.43884-7.04347 10.84583-7.83689 22.22062h95.42935zM371.17159 330.3055V308.283c0-16.53354 5.22447-27.90833 15.67345-34.125 7.40699-4.49708 18.71538-6.74563 33.92591-6.74563H448.15c17.06189 0 29.6273 2.7775 37.69533 8.33283 9.91998 6.87801 14.88 18.71571 14.88 35.51375v11.30875H388.23379v6.34875c0 11.2427 3.10833 18.91416 9.32467 23.01467 5.81979 3.96782 16.33481 5.95188 31.54529 5.95188h23.41097c11.24235 0 18.97988-1.12426 23.21247-3.3728 4.76157-2.51304 7.40669-7.47304 7.93592-14.88h17.06222v1.98405c0 11.11032-4.49711 19.04657-13.49127 23.80812-8.06803 4.23262-20.56708 6.34875-37.49686 6.34875h-30.95032c-14.28435 0-24.99777-2.24854-32.14027-6.74562-10.31657-6.48114-15.47499-18.05438-15.47499-34.72zm-146.7518.595V308.283c0-16.53354 5.3569-27.90833 16.07032-34.125 7.53907-4.49708 19.11231-6.74563 34.71967-6.74563h28.56906c29.49523 0 44.24282 11.44116 44.24282 34.32346v2.77749h-15.8719v-2.38095c0-7.93592-2.57905-13.49125-7.73747-16.66562-4.23262-2.7775-11.04426-4.16625-20.435-4.16625h-31.34686c-9.9197 0-17.12824 1.45479-21.62532 4.3647-6.34875 4.10021-9.52312 11.83801-9.52312 23.2128v21.22907c0 10.58134 3.17437 18.05438 9.52312 22.41905 5.29053 3.57125 13.62333 5.35688 24.99812 5.35688h28.76782c19.44281 0 29.16434-7.07614 29.16434-21.22875v-3.3728h15.87189v2.97592c0 12.82991-3.43919 21.95646-10.3169 27.37938-6.87768 5.42291-18.25247 8.13437-34.12436 8.13437h-38.48904c-28.30488 0-42.45719-13.62363-42.45719-40.87062zM979.397 375.15411c-9.95716 0-17.03011-2.63178-22.58922-8.27154-5.55944-5.64008-7.95848-13.27377-7.95848-25.45501l.1872-52.95057h-22.1762V274.4117h22.1762l-.24765-44.27995 17.31304-.0318.0605 44.3009h32.94674v14.06529h-32.94674l.18415 43.537c0 5.48291-.21286 9.20339-.0317 12.17108.19354 2.968.93726 5.74232 2.22888 8.3236 1.09754 2.2568 2.87364 3.95002 5.32891 5.07938 2.4552 1.12934 5.78233 1.69419 9.98192 1.69419 2.97181 0 5.84647-.44641 8.62429-1.33922 2.7775-.89281 4.77997-1.63673 6.00776-2.23203h1.06649v16.34622c-3.42682.96931-6.90183 1.72784-10.42546 2.27551-3.52362.54771-6.77138.82139-9.74316.82139z"/></svg>