<svg xmlns="http://www.w3.org/2000/svg" role="img" viewBox="131.37 241.62 435.76 155.51"><title>Xenit (member) logo</title><style>svg {enable-background:new 0 0 698.8 639}</style><path d="M323.2 324.1c-.1-.1-.2-.1-.3-.1 0 0-.1 0-.1.1l-15.6 21.8c-.1.1-.3.2-.4.2h-7.6c-.2 0-.2-.1-.1-.2l19.7-27.4c.1-.1.1-.3 0-.5L301 293.2c-.1-.1 0-.2.1-.2h7.6c.2 0 .3.1.5.2l13.6 19c.1.1.2.1.3.1 0 0 .1 0 .1-.1l13.6-19c.1-.1.3-.2.4-.2h7.6c.2 0 .2.1.1.2L327.2 318c-.1.1-.1.3 0 .5l19.7 27.4c.1.1 0 .2-.1.2h-7.6c-.2 0-.3-.1-.4-.2l-15.6-21.8zm42.5-30.8c0-.2.1-.3.3-.4h33c.2 0 .3.1.3.3v5.9c0 .2-.1.3-.3.3h-26.3c-.2 0-.3.1-.3.3v15c0 .2.1.3.3.3h22.9c.2 0 .3.1.3.3v6.1c0 .2-.1.3-.3.3h-22.9c-.2 0-.3.1-.3.3v17.3c0 .2.1.3.3.3h25.6c.2 0 .3.1.3.3v6c0 .2-.1.3-.3.3H366c-.1 0-.3-.1-.3-.2v-52.7zm61.9 11c-.1-.1-.2-.1-.2 0v41.4c0 .2-.1.3-.3.3H421c-.2 0-.3-.1-.3-.3v-52.5c0-.2.1-.3.3-.3h6.8c.2 0 .3.1.4.2l28 41.5c.1.1.2.1.2 0v-41.5c0-.2.1-.3.3-.3h6.1c.2 0 .3.1.3.3v52.5c0 .2-.1.3-.3.3h-6.6c-.2 0-.3-.1-.4-.2l-28.2-41.4zm63.5-11.4h6.1c.2 0 .3.1.3.3v52.5c0 .2-.1.3-.3.3h-6.1c-.2 0-.3-.1-.3-.3v-52.5c0-.1.1-.3.3-.3zm43.9 6.9c0-.2-.1-.3-.3-.3H518c-.2 0-.3-.1-.3-.3v-6c0-.2.1-.3.3-.3h40.5c.2 0 .3.1.3.3v6c0 .2-.1.3-.3.3H542c-.2 0-.3.1-.3.3v46c0 .2-.1.3-.3.3h-6.2c-.2 0-.3-.1-.3-.3l.1-46z"/><path fill="#02d45f" d="M258.3 281.1l-51.8-29.9c-3.1-1.6-6.7-1.6-9.8 0l-51.8 29.9c-2.9 1.9-4.8 5-4.9 8.5v59.8c.1 3.5 2 6.6 4.9 8.5l51.8 29.9c3.1 1.6 6.7 1.6 9.8 0l51.8-29.9c2.9-1.9 4.8-5 4.9-8.5v-59.8c-.1-3.5-1.9-6.6-4.9-8.5zm-60.1 99.6L148.4 352c-.8-.6-1.4-1.5-1.5-2.6v-57.5l51.3 29.6v59.2zm0-67.2l-47.8-27.6 47.8-27.6v55.2zm6.9 67.2v-55.2l47.8 27.6-47.8 27.6zm51.3-33.6l-51.3-29.6v-59.2l49.8 28.7c.8.6 1.4 1.5 1.5 2.6v57.5z"/></svg>