<svg xmlns="http://www.w3.org/2000/svg" role="img" viewBox="-14.99 -14.99 779.48 479.48"><title>Yovily (member) logo</title><style>svg {enable-background:new 0 0 750 450}</style><style>.st3{fill-rule:evenodd;clip-rule:evenodd;fill:#29abe2}</style><path fill="#f7931e" d="M0 0h750v450H0z"/><path fill="#fff" d="M160.1 314.3l2.2-5.4-30-75.5c-1.8-4.3-2.8-7.5-2.8-9.5 0-2.1.5-4 1.6-5.8 1.1-1.8 2.5-3.2 4.4-4.3 1.9-1.1 3.8-1.6 5.8-1.6 3.5 0 6.2 1.1 7.9 3.3s3.4 5.4 4.7 9.6l20.6 60 19.5-55.8c1.5-4.5 2.9-8.1 4.2-10.6 1.2-2.6 2.6-4.3 4-5.2 1.4-.9 3.4-1.3 5.9-1.3 1.8 0 3.6.5 5.3 1.5s3 2.3 3.9 4c.9 1.7 1.4 3.4 1.4 5.3-.2 1.1-.6 2.7-1.2 4.8-.5 2.1-1.2 4.2-2 6.3l-31.8 83.2c-2.7 7.3-5.4 13.1-8 17.2-2.6 4.2-6.1 7.4-10.4 9.6-4.3 2.2-10.1 3.3-17.4 3.3-7.1 0-12.5-.8-16.1-2.3-3.6-1.5-5.4-4.4-5.4-8.5 0-2.8.8-5 2.5-6.5s4.2-2.3 7.5-2.3c1.3 0 2.6.2 3.8.5 1.5.4 2.9.5 4 .5 2.8 0 5-.4 6.6-1.2s3-2.3 4.3-4.3c1.8-2 3.3-5 5-9zm151.6-52.5c0 7.3-1.1 14-3.4 20.1-2.3 6.1-5.5 11.4-9.8 15.8-4.3 4.4-9.4 7.8-15.3 10.1s-12.6 3.5-20.1 3.5c-7.4 0-14-1.2-19.9-3.6-5.9-2.4-11-5.8-15.3-10.2-4.3-4.4-7.6-9.7-9.8-15.7-2.2-6-3.3-12.7-3.3-20 0-7.4 1.1-14.1 3.4-20.3 2.3-6.1 5.5-11.4 9.7-15.7 4.2-4.3 9.3-7.7 15.3-10s12.6-3.5 19.9-3.5c7.4 0 14.1 1.2 20.1 3.6 6 2.4 11.2 5.8 15.4 10.2 4.3 4.4 7.5 9.6 9.8 15.7 2.2 6 3.3 12.7 3.3 20zm-24.4 0c0-9.9-2.2-17.7-6.6-23.2s-10.2-8.3-17.6-8.3c-4.8 0-9 1.2-12.6 3.7-3.6 2.5-6.4 6.1-8.4 10.9s-2.9 10.4-2.9 16.9c0 6.4 1 11.9 2.9 16.7 1.9 4.8 4.7 8.4 8.3 10.9 3.6 2.5 7.8 3.8 12.7 3.8 7.4 0 13.3-2.8 17.6-8.3 4.4-5.6 6.6-13.3 6.6-23.1zm44.7-34.4l19.7 55.3 21.2-57.7c1.7-4.6 3.3-7.9 4.9-9.9 1.6-1.9 4-2.9 7.3-2.9 3.1 0 5.7 1 7.9 3.1s3.3 4.5 3.3 7.2c0 1.1-.2 2.3-.6 3.7-.4 1.4-.8 2.8-1.3 4-.5 1.2-1.1 2.7-1.7 4.3l-23.4 58c-.7 1.7-1.5 3.8-2.5 6.3-1 2.6-2.2 4.7-3.5 6.6-1.3 1.8-2.9 3.2-4.7 4.2s-4.1 1.5-6.8 1.5c-3.5 0-6.2-.8-8.3-2.4-2.1-1.6-3.6-3.3-4.5-5.2-1-1.9-2.6-5.6-5-11.1L310.8 235c-.5-1.4-1.1-2.9-1.7-4.3-.6-1.4-1-2.9-1.4-4.4-.4-1.5-.6-2.8-.6-3.8 0-1.7.5-3.3 1.5-5 1-1.6 2.4-3 4.2-4 1.8-1 3.7-1.6 5.8-1.6 4 0 6.8 1.2 8.3 3.5 1.6 2.7 3.2 6.6 5.1 12zm80.4-26.5c-3.4 0-6.3-1-8.7-3.1-2.4-2.1-3.6-5-3.6-8.8 0-3.4 1.2-6.3 3.7-8.5s5.3-3.3 8.6-3.3c3.2 0 5.9 1 8.4 3 2.4 2 3.7 5 3.7 8.8 0 3.7-1.2 6.7-3.6 8.8-2.4 2.1-5.2 3.1-8.5 3.1zm12.1 25.2v70.4c0 4.9-1.2 8.6-3.5 11.1s-5.3 3.7-8.8 3.7-6.5-1.3-8.7-3.8c-2.2-2.6-3.3-6.2-3.3-11v-69.7c0-4.8 1.1-8.4 3.3-10.9 2.2-2.4 5.1-3.7 8.7-3.7s6.5 1.2 8.8 3.7c2.3 2.5 3.5 5.9 3.5 10.2zm11.4 70.4V190.8c0-4.9 1.1-8.6 3.3-11.1 2.2-2.5 5.1-3.7 8.8-3.7 3.7 0 6.7 1.2 8.9 3.7 2.3 2.5 3.4 6.2 3.4 11.1v105.6c0 4.9-1.1 8.6-3.4 11.1s-5.2 3.7-8.9 3.7c-3.6 0-6.5-1.3-8.7-3.8-2.3-2.5-3.4-6.1-3.4-10.9zm58.3 17.8l2.2-5.4-30-75.5c-1.8-4.3-2.8-7.5-2.8-9.5 0-2.1.5-4 1.6-5.8 1.1-1.8 2.5-3.2 4.4-4.3 1.9-1.1 3.8-1.6 5.8-1.6 3.5 0 6.2 1.1 7.9 3.3s3.4 5.4 4.7 9.6l20.6 60 19.5-55.8c1.5-4.5 2.9-8.1 4.2-10.6 1.2-2.6 2.6-4.3 4-5.2 1.4-.9 3.4-1.3 5.9-1.3 1.8 0 3.6.5 5.3 1.5s3 2.3 3.9 4c.9 1.7 1.4 3.4 1.4 5.3-.2 1.1-.6 2.7-1.2 4.8-.5 2.1-1.2 4.2-2 6.3l-31.8 83.2c-2.7 7.3-5.4 13.1-8 17.2-2.6 4.2-6.1 7.4-10.4 9.6-4.3 2.2-10.1 3.3-17.4 3.3-7.1 0-12.5-.8-16.1-2.3-3.6-1.5-5.4-4.4-5.4-8.5 0-2.8.8-5 2.5-6.5s4.2-2.3 7.5-2.3c1.3 0 2.6.2 3.8.5 1.5.4 2.9.5 4 .5 2.8 0 5-.4 6.6-1.2s3-2.3 4.3-4.3c1.9-2 3.4-5 5-9z"/><path fill="#fff" fill-rule="evenodd" d="M594.8 233.1h1.3c.3.6.8.4 1.3.4 18.9 1.2 32.2 17.6 29.2 36.4-.9 5.7-3.4 10.6-7.3 14.9-6.6-6.8-14.4-10.4-23.7-10.3-9.3.1-17 3.9-23.3 10.7-3.9-4.3-6.3-9-7.5-14.5-.2-.8 0-1.8-.8-2.5v-7.6c.7-.3.5-1 .6-1.5 2.8-13.7 12.8-23.1 26.6-25.4 1-.1 2.4.4 3.6-.6z" clip-rule="evenodd"/><path d="M592.2 301.8c-1.5-.9-3.2-.8-4.8-1.3-5.7-1.7-10.6-4.6-14.6-8.9 11.1-13.8 34-15 46.7-.5-3.8 4.3-8.5 7.2-13.9 9.1-2 .7-4.3.7-6.2 1.6h-1.7c-1-.7-2-.6-3 0h-2.5z" class="st3"/><path fill="#809fc5" fill-rule="evenodd" d="M594.8 301.8c1-.6 2-.7 3 0h-3z" clip-rule="evenodd"/><circle cx="412.5" cy="187.5" r="15.5" class="st3"/></svg>