<?xml version="1.0" encoding="utf-8"?>
<!-- Generator: Adobe Illustrator 21.0.0, SVG Export Plug-In . SVG Version: 6.00 Build 0)  -->
<svg version="1.1" id="Layer_1" xmlns="http://www.w3.org/2000/svg" xmlns:xlink="http://www.w3.org/1999/xlink" x="0px" y="0px"
	 viewBox="-3.3600000000000136 -0.8800000000000026 174.72 45.760000000000005" style="enable-background:new 0 0 168 44;" xml:space="preserve">
<style type="text/css">
	.st0{clip-path:url(#SVGID_2_);fill:#D40000;}
	.st1{clip-path:url(#SVGID_2_);fill:#FFFFFF;}
</style>
<g>
	<g>
		<defs>
			<rect id="SVGID_1_" y="0" width="168" height="44"/>
		</defs>
		<clipPath id="SVGID_2_">
			<use xlink:href="#SVGID_1_"  style="overflow:visible;"/>
		</clipPath>
		<rect x="0" y="0" class="st0" width="168" height="44"/>
		<polygon class="st1" points="7.2,6.7 31.5,6.7 31.5,9.9 11.9,33.8 32,33.8 32,37.3 6.7,37.3 6.7,34.1 26.3,10.2 7.2,10.2 		"/>
		<path class="st1" d="M48.4,10.8L42.7,26h11.4L48.4,10.8z M46,6.7h4.7l11.8,30.6h-4.3l-2.8-7.8H41.4l-2.8,7.8h-4.4L46,6.7z"/>
		<path class="st1" d="M71.2,22.7v11.2h6.7c2.3,0,3.9-0.5,5-1.4c1.1-0.9,1.6-2.3,1.6-4.2c0-1.9-0.5-3.3-1.6-4.2
			c-1.1-0.9-2.8-1.4-5-1.4H71.2z M71.2,10.1v9.2h6.2c2,0,3.6-0.4,4.6-1.1c1-0.8,1.5-1.9,1.5-3.5c0-1.5-0.5-2.7-1.5-3.5
			c-1-0.8-2.5-1.1-4.6-1.1H71.2z M67,6.7h10.7c3.2,0,5.6,0.7,7.4,2c1.7,1.3,2.6,3.2,2.6,5.6c0,1.9-0.4,3.4-1.3,4.5
			c-0.9,1.1-2.2,1.8-3.9,2.1c2.1,0.4,3.7,1.3,4.8,2.7c1.1,1.4,1.7,3.1,1.7,5.2c0,2.7-0.9,4.8-2.8,6.3c-1.9,1.5-4.5,2.2-8,2.2H67V6.7
			z"/>
		<path class="st1" d="M99.9,22.7v11.2h6.7c2.2,0,3.9-0.5,5-1.4c1.1-0.9,1.6-2.3,1.6-4.2c0-1.9-0.5-3.3-1.6-4.2
			c-1.1-0.9-2.8-1.4-5-1.4H99.9z M99.9,10.1v9.2h6.2c2,0,3.6-0.4,4.6-1.1c1-0.8,1.5-1.9,1.5-3.5c0-1.5-0.5-2.7-1.5-3.5
			c-1-0.8-2.5-1.1-4.6-1.1H99.9z M95.7,6.7h10.7c3.2,0,5.6,0.7,7.4,2c1.7,1.3,2.6,3.2,2.6,5.6c0,1.9-0.4,3.4-1.3,4.5
			c-0.9,1.1-2.2,1.8-3.9,2.1c2.1,0.4,3.7,1.3,4.8,2.7c1.1,1.4,1.7,3.1,1.7,5.2c0,2.7-0.9,4.8-2.8,6.3c-1.9,1.5-4.5,2.2-8,2.2H95.7
			V6.7z"/>
		<polygon class="st1" points="136.4,6.7 141,6.7 148.3,17.7 155.7,6.7 160.1,6.7 150.5,21 161.3,37.3 156.7,37.3 148.2,24.5 
			139.7,37.3 135.2,37.3 146,21.1 		"/>
		<rect x="124.3" y="6.7" class="st1" width="4.2" height="30.6"/>
	</g>
</g>
</svg>
