<svg xmlns="http://www.w3.org/2000/svg" role="img" viewBox="-3.00 -2.87 155.87 105.25"><title>Zafin (member) logo</title><g fill-rule="nonzero" fill="none"><path d="M61.797 63.757l9.956-17.7h-9.988v-3.943h15.15l-.029 3.928-9.932 17.717h9.925v3.804H61.791l.006-3.806" fill="#383838"/><path d="M87.56746 57.83385h5.01743L91.49404 53.518c-.7997-3.10866-1.05449-4.6815-1.30886-6.29092h-.07274c-.25437 1.6458-.54532 3.25543-1.38139 6.29092l-1.16359 4.31584zm.40006-15.58096h4.65374l7.16235 25.31025h-4.72648l-1.5998-6.25454h-6.83504l-1.67234 6.25454h-4.4721l7.48967-25.31025z" fill="#383838"/><path d="M104.073 42.253h12.87v3.767h-8.507v6.474h6.798v3.694h-6.762v11.375h-4.399v-25.31" fill="#383838"/><path d="M122.035 67.551h4.435V42.253h-4.435z" fill="#383838"/><path d="M133.70454 42.25289h4.2539l6.10786 12.80137c.94538 2.04826 1.78165 4.31563 2.32677 6.03502h.03657c-.18184-1.60942-.4728-4.42601-.4728-6.9495V42.2529h4.03548v25.31025h-4.47169l-5.67165-12.07004c-1.3816-2.88935-1.96328-4.7183-2.54498-6.51045h-.07273c.18163 1.49987.47258 4.4256.47258 7.4615v11.11899h-3.9993V42.25289" fill="#383838"/><path d="M16.888 99.488L.425 82.926l16.463-16.562 16.463 16.562-16.463 16.562" fill="#383838"/><path d="M.425 16.678L16.888.117l16.463 16.561v33.124L.425 16.678" fill="#D6BF6F"/><path fill="#959595" d="M33.088 49.842L16.544 33.228 0 49.842V83.07l16.544-16.615v.001l16.544-16.614"/></g></svg>