<svg xmlns="http://www.w3.org/2000/svg" role="img" viewBox="-9.71 -8.71 816.92 174.92"><title>ZEDEDA, Inc. (member) logo</title><defs><style>.cls-1{fill:#ff5100}</style></defs><path d="M568.41587 7.41756h-37.56076v23.95783h37.56076c27.8165 0 49.7394 19.89264 49.7394 47.71077 0 27.81652-21.9229 47.71957-49.7394 47.71957h-37.56076v23.95011h37.56076c41.21743 0 75.32293-30.6555 75.32293-71.66968 0-41.21222-34.1055-71.6686-75.32293-71.6686zm-237.73329 0h-37.56146v23.95783h37.56146c27.81489 0 49.74228 19.89264 49.74228 47.71077 0 27.81652-21.92739 47.71957-49.74228 47.71957h-37.56146v23.95011h37.56146c41.21761 0 75.32223-30.6555 75.32223-71.66968 0-41.21222-34.10462-71.6686-75.32223-71.6686zM718.837 7.418l-74.428 143.336h27.617l46.282-94.886 45.875 94.886H792L718.837 7.418zM159.613 67.13h109.242v23.942H159.613zm0-59.712h109.242V31.36H159.613zM6 7.418h129.351V31.36H6zm153.613 119.398h109.242v23.938H159.613zm237.58039 23.93984H506.628v-23.9519h-89.27372a95.388 95.388 0 0 1-20.16089 23.9519zM429.55845 91.06h77.00289V67.12386h-76.99661a84.68565 84.68565 0 0 1-.00628 23.9361zM506.628 7.41756H397.253a95.14845 95.14845 0 0 1 20.1354 23.93772h89.2396zM6 126.814h129.44v23.942H6z" class="cls-1"/><path d="M6 126.814v.078l.076-.078H6z" class="cls-1"/><path fill="#96262c" d="M39.906 126.814l95.456-95.454h-34.034L6 126.814h33.906z"/></svg>