<?xml version="1.0" encoding="utf-8"?>
<!-- Generator: Adobe Illustrator 16.0.4, SVG Export Plug-In . SVG Version: 6.00 Build 0)  -->
<!DOCTYPE svg PUBLIC "-//W3C//DTD SVG 1.1//EN" "http://www.w3.org/Graphics/SVG/1.1/DTD/svg11.dtd">
<svg version="1.1" xmlns="http://www.w3.org/2000/svg" xmlns:xlink="http://www.w3.org/1999/xlink" x="0px" y="0px"
	 width="385.481px" height="259.487px" viewBox="19.839 21.233000000000004 347.36 222.56" enable-background="new 0 0 385.481 259.487"
	 xml:space="preserve">
<g id="Layer_2">
	<path id="Fill-70" fill="#282F37" d="M39.734,209.092c-1.635,0-3.087,0.361-4.361,1.085c-1.272,0.724-2.271,1.743-2.993,3.064
		c-0.724,1.318-1.083,2.845-1.083,4.571c0,1.729,0.353,3.253,1.06,4.572c0.707,1.32,1.682,2.35,2.923,3.089
		c1.242,0.739,2.664,1.106,4.267,1.106c1.602,0,3.047-0.267,4.337-0.801c1.288-0.535,2.355-1.305,3.205-2.31l2.498,2.545
		c-1.13,1.415-2.57,2.499-4.314,3.253c-1.743,0.755-3.717,1.131-5.916,1.131c-2.419,0-4.573-0.533-6.458-1.603
		c-1.886-1.067-3.354-2.554-4.406-4.455c-1.055-1.901-1.58-4.077-1.58-6.528c0-2.45,0.525-4.635,1.58-6.552
		c1.052-1.917,2.521-3.411,4.406-4.48c1.886-1.067,4.04-1.602,6.458-1.602c2.104,0,3.999,0.323,5.681,0.967
		c1.681,0.644,3.088,1.579,4.22,2.805l-2.405,3.018C44.874,210.051,42.5,209.092,39.734,209.092"/>
	<path id="Fill-71" fill="#282F37" d="M61.961,210.129c-1.272,0.753-2.262,1.799-2.97,3.136c-0.707,1.334-1.06,2.852-1.06,4.548
		c0,1.728,0.353,3.269,1.06,4.62c0.708,1.352,1.697,2.396,2.97,3.135s2.727,1.107,4.361,1.107c1.602,0,3.039-0.369,4.314-1.107
		c1.271-0.738,2.262-1.783,2.969-3.135c0.707-1.352,1.06-2.893,1.06-4.62c0-1.696-0.353-3.214-1.06-4.548
		c-0.708-1.337-1.698-2.383-2.969-3.136c-1.275-0.753-2.712-1.132-4.314-1.132C64.688,208.998,63.233,209.376,61.961,210.129
		 M72.944,206.781c1.934,1.069,3.442,2.557,4.526,4.456c1.084,1.901,1.626,4.077,1.626,6.529c0,2.451-0.542,4.635-1.626,6.552
		c-1.084,1.916-2.593,3.411-4.526,4.479c-1.933,1.068-4.14,1.603-6.622,1.603c-2.514,0-4.738-0.534-6.672-1.603
		c-1.932-1.067-3.441-2.554-4.524-4.454c-1.083-1.902-1.626-4.092-1.626-6.576c0-2.452,0.543-4.628,1.626-6.529
		c1.083-1.899,2.593-3.387,4.524-4.456c1.934-1.066,4.158-1.602,6.672-1.602C68.805,205.179,71.012,205.714,72.944,206.781"/>
	<path id="Fill-72" fill="#282F37" d="M107.145,207.749c1.665,1.713,2.497,4.078,2.497,7.096v15.413h-4.383v-14.235
		c0-2.104-0.589-3.747-1.767-4.925c-1.179-1.181-2.806-1.769-4.88-1.769c-2.231,0.03-4.046,0.745-5.444,2.145
		c-1.4,1.398-2.192,3.212-2.381,5.444v13.34h-4.384v-24.936h4.384v5.278c1.664-3.551,4.823-5.356,9.475-5.421
		C103.184,205.179,105.478,206.037,107.145,207.749"/>
	<path id="Fill-73" fill="#282F37" d="M132.034,228.608c-1.917,1.226-3.865,1.839-5.845,1.839c-1.98,0-3.583-0.589-4.808-1.769
		c-1.228-1.179-1.839-2.961-1.839-5.35v-13.812h-3.535v-3.348h3.535v-6.693h4.432v6.693h7.635v3.348h-7.635v13.011
		c0,1.382,0.25,2.372,0.752,2.969c0.503,0.599,1.257,0.895,2.263,0.895c1.195,0,2.482-0.391,3.866-1.177L132.034,228.608z"/>
	<path id="Fill-74" fill="#282F37" d="M151.15,225.331c1.429-0.988,2.285-2.3,2.57-3.936v-2.497h-7.308
		c-1.979,0-3.449,0.3-4.408,0.896c-0.959,0.597-1.438,1.539-1.438,2.828c0,1.288,0.487,2.31,1.462,3.063
		c0.973,0.754,2.277,1.133,3.912,1.133C147.983,226.818,149.72,226.321,151.15,225.331L151.15,225.331z M153.766,230.257v-3.488
		c-1.854,2.451-4.761,3.678-8.721,3.678c-1.728,0-3.246-0.33-4.549-0.99c-1.304-0.66-2.31-1.569-3.017-2.734
		c-0.707-1.161-1.06-2.467-1.06-3.913c0-2.23,0.825-3.999,2.474-5.302c1.652-1.304,3.952-1.972,6.906-2.005h7.921v-1.178
		c0-1.76-0.543-3.119-1.628-4.077c-1.084-0.959-2.664-1.439-4.736-1.439c-2.516,0-5.077,0.896-7.686,2.688l-1.839-3.016
		c1.792-1.164,3.449-2.003,4.975-2.523c1.524-0.519,3.338-0.777,5.445-0.777c3.111,0,5.515,0.763,7.212,2.288
		c1.698,1.522,2.562,3.651,2.594,6.386l0.046,16.404H153.766z"/>
	<path id="Fill-75" fill="#282F37" d="M167.105,230.257h4.384v-24.936h-4.384V230.257z M171.23,196.175
		c0.52,0.535,0.778,1.211,0.778,2.027c0,0.818-0.258,1.493-0.778,2.027c-0.519,0.535-1.172,0.802-1.956,0.802
		c-0.786,0-1.437-0.267-1.957-0.802c-0.518-0.534-0.778-1.209-0.778-2.027c0-0.816,0.26-1.492,0.778-2.027
		c0.52-0.534,1.17-0.801,1.957-0.801C170.059,195.375,170.711,195.641,171.23,196.175L171.23,196.175z"/>
	<path id="Fill-76" fill="#282F37" d="M201.943,207.749c1.665,1.713,2.497,4.078,2.497,7.096v15.413h-4.383v-14.235
		c0-2.104-0.589-3.747-1.768-4.925c-1.18-1.181-2.805-1.769-4.879-1.769c-2.233,0.03-4.047,0.745-5.444,2.145
		c-1.401,1.398-2.193,3.212-2.381,5.444v13.34H181.2v-24.936h4.385v5.278c1.664-3.551,4.823-5.356,9.474-5.421
		C197.983,205.179,200.277,206.037,201.943,207.749"/>
	<path id="Fill-77" fill="#282F37" d="M231.216,216.117c-0.125-2.264-0.88-4.047-2.263-5.352c-1.384-1.304-3.205-1.957-5.468-1.957
		c-2.2,0-4.031,0.661-5.492,1.98s-2.334,3.096-2.617,5.328H231.216z M232.207,208.598c1.979,2.277,2.97,5.444,2.97,9.498
		c0,0.629-0.016,1.102-0.048,1.414h-19.705c0.347,2.231,1.281,4.007,2.805,5.327c1.526,1.32,3.403,1.98,5.635,1.98
		c1.476,0,2.853-0.268,4.125-0.802c1.271-0.535,2.38-1.29,3.323-2.264l2.403,2.498c-1.225,1.319-2.703,2.343-4.431,3.065
		c-1.729,0.724-3.646,1.083-5.751,1.083c-2.452,0-4.627-0.526-6.529-1.578c-1.9-1.053-3.379-2.538-4.431-4.455
		c-1.054-1.917-1.579-4.102-1.579-6.553c0-2.45,0.525-4.626,1.579-6.529c1.052-1.899,2.521-3.395,4.409-4.479
		c1.885-1.084,4.037-1.626,6.457-1.626C227.303,205.179,230.226,206.319,232.207,208.598L232.207,208.598z"/>
	<path id="Fill-78" fill="#282F37" d="M250.214,206.618c1.508-0.927,3.298-1.406,5.373-1.438v4.244
		c-2.545-0.096-4.604,0.564-6.175,1.979s-2.467,3.316-2.688,5.704v13.153h-4.383v-24.938h4.383v5.373
		C247.542,208.903,248.705,207.545,250.214,206.618"/>
	<path id="Fill-79" fill="#00F4CB" d="M275.268,209.329c-1.241-0.378-2.427-0.566-3.559-0.566c-1.321,0-2.381,0.243-3.183,0.73
		c-0.801,0.488-1.202,1.233-1.202,2.24c0,1.006,0.449,1.768,1.345,2.286c0.895,0.518,2.255,1.045,4.077,1.578
		c1.729,0.503,3.141,1.006,4.243,1.51c1.1,0.502,2.034,1.242,2.805,2.216c0.771,0.975,1.154,2.262,1.154,3.866
		c0,2.354-0.889,4.146-2.663,5.372c-1.776,1.225-3.983,1.838-6.622,1.838c-1.856,0-3.655-0.296-5.399-0.896
		c-1.744-0.596-3.213-1.442-4.407-2.544l1.65-3.205c1.036,0.943,2.317,1.696,3.841,2.264c1.524,0.563,3.011,0.847,4.456,0.847
		c1.444,0,2.607-0.267,3.487-0.801c0.88-0.535,1.32-1.352,1.32-2.451c0-1.132-0.465-1.979-1.391-2.546
		c-0.927-0.565-2.333-1.132-4.22-1.696c-1.665-0.471-3.025-0.952-4.075-1.438c-1.056-0.487-1.951-1.202-2.688-2.146
		c-0.738-0.941-1.107-2.169-1.107-3.677c0-2.325,0.848-4.069,2.545-5.233c1.697-1.161,3.817-1.743,6.364-1.743
		c1.509,0,2.994,0.212,4.454,0.636c1.462,0.425,2.727,0.998,3.796,1.721l-1.604,3.348
		C277.649,210.208,276.509,209.705,275.268,209.329"/>
	<path id="Fill-80" fill="#00F4CB" d="M308.951,207.749c1.665,1.713,2.497,4.078,2.497,7.096v15.413h-4.384v-14.235
		c0-2.104-0.59-3.747-1.768-4.925c-1.18-1.181-2.805-1.769-4.879-1.769c-2.42,0.03-4.337,0.848-5.751,2.45
		c-1.414,1.604-2.121,3.677-2.121,6.224v12.255h-4.385V195.28h4.385v15.415c1.666-3.613,4.838-5.451,9.521-5.516
		C304.991,205.179,307.284,206.037,308.951,207.749"/>
	<path id="Fill-81" fill="#00F4CB" d="M320.453,230.257h4.383v-24.936h-4.383V230.257z M324.577,196.175
		c0.519,0.535,0.777,1.211,0.777,2.027c0,0.818-0.259,1.493-0.777,2.027c-0.52,0.535-1.173,0.802-1.956,0.802
		c-0.787,0-1.438-0.267-1.956-0.802c-0.519-0.534-0.779-1.209-0.779-2.027c0-0.816,0.261-1.492,0.779-2.027
		c0.518-0.534,1.169-0.801,1.956-0.801C323.404,195.375,324.057,195.641,324.577,196.175L324.577,196.175z"/>
	<path id="Fill-82" fill="#00F4CB" d="M351.87,225.45c1.271-0.753,2.262-1.808,2.97-3.157c0.707-1.352,1.062-2.878,1.062-4.574
		c0-1.665-0.362-3.174-1.084-4.524c-0.724-1.352-1.715-2.405-2.97-3.158c-1.259-0.755-2.688-1.132-4.291-1.132
		c-1.603,0-3.041,0.377-4.312,1.132c-1.273,0.753-2.271,1.807-2.993,3.158c-0.725,1.351-1.084,2.859-1.084,4.524
		c0,1.729,0.359,3.262,1.084,4.595c0.722,1.338,1.72,2.384,2.993,3.137c1.271,0.755,2.71,1.131,4.312,1.131
		C349.16,226.581,350.597,226.205,351.87,225.45 M354.627,206.782c1.821,1.068,3.236,2.563,4.243,4.479
		c1.005,1.917,1.508,4.116,1.508,6.6c0,2.45-0.494,4.626-1.484,6.527c-0.989,1.902-2.389,3.381-4.196,4.433
		c-1.808,1.053-3.873,1.578-6.198,1.578c-2.107,0-3.96-0.439-5.563-1.319c-1.603-0.88-2.86-2.137-3.77-3.771v14.096h-4.386v-34.082
		h4.386v4.948c0.909-1.635,2.159-2.889,3.747-3.771c1.587-0.88,3.416-1.32,5.49-1.32
		C350.731,205.179,352.804,205.714,354.627,206.782"/>
</g>
<g id="Layer_3">
	<path id="Fill-83" fill="#00F4CB" d="M233.599,74.052c-0.255-0.47-0.59-0.935-1.291-1.289l-9.995-5.771
		c-0.141-0.082-0.289-0.14-0.44-0.18c-0.053-0.013-0.103-0.013-0.156-0.02c-0.102-0.018-0.204-0.037-0.309-0.036
		c-0.006,0-0.013-0.001-0.02-0.001v0.005c-0.29,0.007-0.581,0.08-0.843,0.231l-22.486,12.983l-0.021-0.036l-1.816,1.047
		c-2.188,1.264-4.881,1.264-7.069,0l-9.829-5.673c-1.177-0.682-1.177-2.382,0-3.062l9.829-5.673c2.188-1.264,4.881-1.264,7.069,0
		l2.368,1.368c0.548,0.314,1.221,0.314,1.768,0l9.152-5.286c1.179-0.681,1.179-2.381,0-3.062l-13.288-7.673
		c-2.188-1.261-4.881-1.261-7.069,0L156.601,70.72c-2.358,1.361-2.358,4.762,0,6.122l32.551,18.796c2.188,1.262,4.881,1.262,7.069,0
		l25.167-14.532v1.764v31.336l-8.088,4.684l-17.079,9.889c-0.548,0.314-1.125,0.551-1.72,0.71c-0.596,0.157-1.205,0.237-1.815,0.237
		c-1.221,0-2.44-0.316-3.534-0.947l-23.399-13.511c-1.094-0.631-1.767-1.797-1.767-3.06V92.913c0-0.63-0.337-1.215-0.884-1.529
		l-9.153-5.287c-1.178-0.679-2.65,0.171-2.65,1.532v31.904c0,1.264,0.673,2.43,1.768,3.063l36.085,20.835
		c1.08,0.622,2.284,0.935,3.487,0.941v0.002c0.009,0,0.017,0,0.024,0c0.173,0,0.343-0.018,0.517-0.03
		c0.134-0.011,0.269-0.011,0.4-0.024c0.185-0.024,0.362-0.067,0.541-0.107c0.122-0.023,0.248-0.037,0.368-0.073
		c0.194-0.049,0.383-0.122,0.572-0.19c0.104-0.037,0.211-0.062,0.312-0.103c0.29-0.118,0.572-0.257,0.848-0.415l31.128-17.976
		l4.937-2.8c1.107-0.629,1.79-1.803,1.79-3.075v-0.376V75.822C234.076,75.189,233.907,74.582,233.599,74.052"/>
	<path id="Fill-84" fill="#282F37" d="M196.221,41.202c-1.068-0.619-2.259-0.928-3.453-0.942c-1.195,0.014-2.386,0.324-3.456,0.942
		l-43.607,25.177c-1.172,0.677-2.103,1.661-2.715,2.816c-0.53,1.002-0.819,2.133-0.819,3.305v50.355
		c0,2.524,1.346,4.861,3.534,6.121l43.607,25.178c1.085,0.626,2.296,0.938,3.506,0.946c1.21-0.008,2.419-0.32,3.506-0.946
		l43.414-25.066c2.187-1.26,3.534-3.597,3.534-6.119v-14.552c0-0.631,0.335-1.214,0.884-1.531l9.243-5.336
		c1.179-0.679,2.651,0.169,2.651,1.531v27.101c0,1.175-0.303,2.303-0.837,3.309c-0.134,0.67-0.862,1.46-1.891,2.264
		c-0.023,0.02-0.05,0.037-0.076,0.061c-2.61,2.027-6.931,4.127-7.695,4.568l-49.228,28.422c-1.122,0.646-2.377,0.957-3.628,0.941
		v0.002c-0.004,0-0.011-0.002-0.02-0.002c-0.011,0-0.026,0.002-0.036,0.002v-0.005c-1.152-0.032-2.296-0.344-3.328-0.938
		l-56.296-32.503c-2.186-1.264-3.534-3.597-3.534-6.121V65.175c0-1.135,0.142-2.291,0.642-3.27c0.069-0.253,0.75-1.502,2.155-2.529
		c0.53-0.356,1.467-0.838,2.346-1.344l54.527-31.481c1.119-0.644,2.37-0.956,3.616-0.941c1.247-0.015,2.496,0.297,3.613,0.941
		l50.314,29.048c0.116,0.069,0.205,0.154,0.302,0.233l0.639,0.364c1.712,0.909,4.392,2.29,5.841,3.395
		c0.041,0.03,0.082,0.059,0.124,0.089c0.016,0.013,0.039,0.029,0.055,0.042c0.053,0.042,0.09,0.085,0.138,0.13
		c0.532,0.446,0.984,0.971,1.34,1.558c0.007,0.007,0.017,0.018,0.023,0.026l-0.004,0.002c0.576,0.967,0.898,2.083,0.898,3.249V88.49
		c0,0.631-0.336,1.214-0.884,1.53l-9.244,5.339c-1.179,0.679-2.65-0.171-2.65-1.532V72.362c0-2.531-1.354-4.865-3.543-6.127
		L196.221,41.202z"/>
</g>
</svg>
