<svg id="Layer_1" data-name="Layer 1" xmlns="http://www.w3.org/2000/svg" viewBox="0 0 288 288"><defs><style>.cls-1{fill:#fff;}.cls-2{fill:#020202;}.cls-3{fill:#4e96d1;}.cls-4{fill:#aadac8;}.cls-5{fill:#c8e9f2;}.cls-6{fill:#345eac;}.cls-7{fill:#3b76bb;}.cls-8{fill:#80d1e2;}.cls-9{fill:#9dcdeb;}.cls-10{fill:#feec24;}.cls-11{fill:#62c8d3;}.cls-12{fill:#71c380;}.cls-13{fill:#93d0af;}.cls-14{fill:#4cb748;}.cls-15{fill:#81c998;}.cls-16{fill:#2881a1;}</style></defs><title>qr-code-landscape</title><path class="cls-1" d="M1.29462,1V286.70538H287V1Z"/><path class="cls-2" d="M32.18168,31.88707V85.93944H86.23405V31.88707H32.18168m61.77414,0V47.3306h7.72177v7.72177H93.95582V85.93944h7.72177v7.72177h7.72177V85.93944h7.72177V101.383h7.72177v7.72177h-7.72177v15.44353h-7.72177V132.27h-7.72177v15.44353h7.72177V132.27h7.72177v-7.72177h5.40524c.69419-1.6401.67643-1.62234,2.31653-2.31653v-5.40524h7.72177V101.383h-7.72177V85.93944h7.72177V78.21767h-7.72177v7.72177h-7.72177V78.21767h-7.72177V55.05237h7.72177V47.3306h7.72177V39.60884h7.72177V55.05237h-7.72177v7.72177h-7.72177V70.4959h23.1653v38.60884h7.72177V70.4959h15.44353v7.72177H155.73v7.72177h7.72177V78.21767h7.72177v7.72177h7.72177v23.1653H186.617v7.72177h7.72177v7.72177H180.43961v15.44353H186.617V132.27h7.72177v7.72177h7.72177v7.72177h7.72177v7.72177h7.72177v7.72177h7.72177v-7.72177H217.5041v-7.72177h-7.72177v-7.72177h7.72177V124.54827h30.88707V109.10474h7.72177V93.66121H240.6694V101.383h7.72177v7.72177H240.6694v7.72177h-7.72177v-7.72177h-7.72177V101.383h7.72177V93.66121h-23.1653V101.383h7.72177v7.72177h7.72177v7.72177H209.78233v-7.72177h-7.72177V101.383H186.617V93.66121h7.72177V70.4959H178.89526V62.77414H186.617V55.05237H171.17349V47.3306h-7.72177V39.60884H155.73V31.88707h-7.72177v7.72177h-7.72177V31.88707H124.84289v7.72177h-7.72177V31.88707H93.95582m92.66121,0V47.3306h7.72177V31.88707H186.617m15.44353,0V85.93944h54.05237V31.88707Z"/><path class="cls-1" d="M39.90345,39.60884V78.21767H78.51229V39.60884H39.90345m61.77414,0V47.3306h7.72177V39.60884h-7.72177m108.10474,0V78.21767h38.60884V39.60884Z"/><path class="cls-2" d="M47.62522,47.3306V70.4959h23.1653V47.3306Z"/><path class="cls-1" d="M140.28642,47.3306v7.72177h-7.72177v7.72177h38.60884V55.05237h-7.72177V47.3306Z"/><path class="cls-2" d="M217.5041,47.3306V70.4959h23.1653V47.3306Z"/><path class="cls-1" d="M101.67759,78.21767v7.72177h7.72177V78.21767h-7.72177m77.21767,0v7.72177H186.617V78.21767Z"/><path class="cls-2" d="M55.347,93.66121V101.383H32.18168v15.44353h7.72177v-7.72177h7.72177v30.88707H55.347V101.383h7.72177v7.72177h7.72177V101.383H63.06875V93.66121H55.347m23.1653,0V101.383h7.72177v7.72177H78.51229v7.72177h7.72177v-7.72177h7.72177v15.44353H63.06875V132.27h23.1653v7.72177H63.06875v15.44353h7.72177v-7.72177h23.1653v-23.1653h7.72177V109.10474H93.95582V101.383H86.23405V93.66121H78.51229m84.93944,0V101.383H155.73v7.72177h7.72177V101.383h7.72177V93.66121Z"/><path class="cls-1" d="M194.33879,109.10474v7.72177h7.72177v-7.72177Z"/><path class="cls-2" d="M140.28642,116.82651v5.40524h23.1653v-5.40524h-23.1653m30.88707,0v5.40524h7.72177v-5.40524h-7.72177M32.18168,124.54827v38.60884h7.72177v-7.72177h7.72177v-7.72177H39.90345v-23.1653Z"/><path class="cls-1" d="M194.33879,124.54827V132.27h7.72177v7.72177h7.72177V132.27h-7.72177v-7.72177Z"/><path class="cls-3" d="M131.79248,131.49786c3.84081,1.61154,8.98659.77218,13.127.77218C141.07868,130.6585,135.93289,131.49786,131.79248,131.49786Z"/><path class="cls-4" d="M144.91948,131.49786c3.84081,1.61154,8.98659.77218,13.127.77218C154.20568,130.6585,149.0599,131.49786,144.91948,131.49786Z"/><path class="cls-3" d="M158.04649,131.49786c3.84081,1.61154,8.98659.77218,13.127.77218C167.33269,130.6585,162.1869,131.49786,158.04649,131.49786Z"/><path class="cls-5" d="M171.17349,131.49786v13.127A20.29738,20.29738,0,0,0,171.17349,131.49786Z"/><path class="cls-6" d="M131.79248,132.27v12.35483h5.40524V136.9031h6.94959V132.27Z"/><path class="cls-7" d="M144.14731,132.27v4.63306A5.14714,5.14714,0,0,0,144.14731,132.27Z"/><path class="cls-8" d="M144.91948,132.27v4.63306h13.127V132.27Z"/><path class="cls-7" d="M158.04649,132.27v4.63306A5.14714,5.14714,0,0,0,158.04649,132.27Z"/><path class="cls-6" d="M158.81867,132.27v4.63306h6.94959v7.72177h5.40524V132.27Z"/><path class="cls-2" d="M225.22586,132.27v7.72177h7.72177V132.27h-7.72177m15.44353,0v15.44353h7.72177v7.72177h7.72177V139.99181h-7.72177V132.27Z"/><path class="cls-9" d="M137.19772,136.9031c2.44239,1.02468,5.08555.77218,7.72177.77218C142.47709,136.6506,139.83393,136.9031,137.19772,136.9031Z"/><path class="cls-5" d="M144.91948,136.9031c3.84081,1.61154,8.98659.77218,13.127.77218C154.20568,136.06374,149.0599,136.9031,144.91948,136.9031Z"/><path class="cls-9" d="M158.04649,136.9031c2.44239,1.02468,5.08555.77218,7.72177.77218C163.32587,136.6506,160.6827,136.9031,158.04649,136.9031Z"/><path class="cls-1" d="M137.19772,137.67528V156.9797c2.84006-1.30112,5.46315-4.72726,8.49394-5.31489,3.176-.61542,5.07475,3.4022,7.72177,4.43693,4.23076,1.65477,7.41908-1.06639,12.35483,1.65014V137.67528Z"/><path class="cls-10" d="M156.61641,140.80028c-4.42843,2.40688-.76445,9.26612,3.63233,6.877C164.67717,145.27041,161.01319,138.41039,156.61641,140.80028Z"/><path class="cls-11" d="M131.79248,144.62487a13.19259,13.19259,0,0,0,5.40524.77218,13.19259,13.19259,0,0,0-5.40524-.77218m33.97578,0a13.19259,13.19259,0,0,0,5.40524.77218A13.19259,13.19259,0,0,0,165.76826,144.62487Z"/><path class="cls-8" d="M131.79248,145.397v12.35483h6.17741c-.97139-4.07864-.77218-8.18508-.77218-12.35483h-5.40524m33.97578,0v12.35483h5.40524V145.397Z"/><path class="cls-2" d="M180.43961,147.71358v7.72177h13.89918v-7.72177Z"/><path class="cls-4" d="M145.69166,150.03011l.77218.77218Z"/><path class="cls-12" d="M146.46384,150.03011l.77218.77218Z"/><path class="cls-13" d="M144.91948,150.80228l.77218.77218Z"/><path class="cls-14" d="M137.19772,165.47364h28.57054c-.00078-4.23693.16525-9.56881-5.406-10.24138-2.15359-.26023-4.03848,1.54127-6.17664.8494-2.68254-.86793-4.06551-4.13115-6.94959-4.59831C139.722,150.26561,137.1985,160.29156,137.19772,165.47364Z"/><path class="cls-12" d="M144.14731,151.57446l.77218.77218Z"/><path class="cls-4" d="M141.83078,153.11881l.77218.77218Z"/><path class="cls-13" d="M141.0586,153.891l.77218.77218Z"/><path class="cls-12" d="M159.33371,154.14812c-.34362.34362.47179.30038.51426.25792C160.1916,154.06241,159.37618,154.10565,159.33371,154.14812Z"/><path class="cls-15" d="M140.28642,154.66317l.77218.77218Z"/><path class="cls-12" d="M158.04649,154.66317l.77218.77218Z"/><path class="cls-13" d="M161.1352,154.66317l.77218.77218Z"/><path class="cls-2" d="M78.51229,155.43534v7.72177H55.347v7.72177H47.62522v7.72177H55.347v-7.72177H70.79052v7.72177H63.06875v7.72177H55.347v7.72177H86.23405v-7.72177H70.79052v-7.72177h23.1653V163.15711h7.72177v7.72177h7.72177v7.72177h-7.72177v15.44353H93.95582v7.72177h7.72177v7.72177h15.44353V232.653h7.72177v7.72177H109.39936v15.44353h30.88707v-7.72177h-7.72177V232.653h7.72177v7.72177h7.72177v7.72177H155.73v7.72177h15.44353v-7.72177H186.617v-7.72177h7.72177V232.653h15.44353v-7.72177h7.72177v15.44353H202.06056v15.44353h7.72177v-7.72177h7.72177v7.72177h15.44353v-7.72177H217.5041v-7.72177h15.44353V232.653h7.72177v-7.72177h7.72177v15.44353H240.6694v15.44353h7.72177V240.37478h7.72177V224.93125h-7.72177v-7.72177h7.72177v-7.72177h-7.72177v-7.72177h7.72177V163.15711H240.6694v15.44353h7.72177v15.44353H240.6694v-7.72177h-7.72177v-7.72177H217.5041v-7.72177h-7.72177v7.72177h7.72177v7.72177H186.617v7.72177h-46.3306v15.44353h7.72177v7.72177H155.73v23.1653h-7.72177V232.653h-7.72177V217.20948h-7.72177v-7.72177H117.12112v-7.72177h15.44353v-7.72177H117.12112v-7.72177h-7.72177v-7.72177h7.72177v-7.72177h-7.72177v-7.72177h7.72177v-7.72177h-7.72177v7.72177h-7.72177v-7.72177Z"/><path class="cls-12" d="M161.90737,155.43534l.77218.77218Z"/><path class="cls-13" d="M155.73,156.20752l.77218.77218Z"/><path class="cls-4" d="M163.45173,156.20752l.77218.77218Z"/><path class="cls-13" d="M154.18561,156.9797l.77218.77218Z"/><path class="cls-12" d="M154.95778,156.9797l.77218.77218Z"/><path class="cls-15" d="M164.2239,156.9797l.77218.77218Z"/><path class="cls-3" d="M131.79248,157.75187a13.19259,13.19259,0,0,0,5.40524.77218,13.19259,13.19259,0,0,0-5.40524-.77218m33.97578,0a13.19259,13.19259,0,0,0,5.40524.77218A13.19259,13.19259,0,0,0,165.76826,157.75187Z"/><path class="cls-6" d="M131.79248,158.524v12.35483h12.35483v-4.63306h-6.94959V158.524h-5.40524m33.97578,0v7.72177h-6.94959v4.63306h12.35483V158.524Z"/><path class="cls-1" d="M78.51229,163.15711v7.72177h7.72177v-7.72177Z"/><path class="cls-2" d="M180.43961,163.15711v7.72177h13.89918v7.72177h7.72177v-7.72177h-7.72177v-7.72177Z"/><path class="cls-16" d="M137.19772,165.47364c2.44239,1.02468,5.08555.77218,7.72177.77218C142.47709,165.22114,139.83393,165.47364,137.19772,165.47364Z"/><path class="cls-11" d="M144.91948,165.47364c3.84081,1.61154,8.98659.77218,13.127.77218C154.20568,164.63428,149.0599,165.47364,144.91948,165.47364Z"/><path class="cls-16" d="M158.04649,165.47364c2.44239,1.02468,5.08555.77218,7.72177.77218C163.32587,165.22114,160.6827,165.47364,158.04649,165.47364Z"/><path class="cls-7" d="M144.14731,166.24582v4.63306A5.14714,5.14714,0,0,0,144.14731,166.24582Z"/><path class="cls-8" d="M144.91948,166.24582v4.63306h13.127v-4.63306Z"/><path class="cls-7" d="M158.04649,166.24582v4.63306A5.14714,5.14714,0,0,0,158.04649,166.24582Z"/><path class="cls-2" d="M32.18168,170.87888v7.72177h7.72177v-7.72177Z"/><path class="cls-9" d="M131.79248,170.87888c3.84081,1.61154,8.98659.77218,13.127.77218C141.07868,170.03952,135.93289,170.87888,131.79248,170.87888Z"/><path class="cls-5" d="M144.91948,170.87888c3.84081,1.61154,8.98659.77218,13.127.77218C154.20568,170.03952,149.0599,170.87888,144.91948,170.87888Z"/><path class="cls-9" d="M158.04649,170.87888c3.84081,1.61154,8.98659.77218,13.127.77218C167.33269,170.03952,162.1869,170.87888,158.04649,170.87888Z"/><path class="cls-2" d="M124.84289,180.145v6.17741h15.44353V180.145H124.84289m30.88707,0v6.17741h23.1653V180.145H155.73M32.18168,186.32241v7.72177h7.72177v-7.72177Z"/><path class="cls-1" d="M225.22586,186.32241v15.44353H240.6694v-7.72177h-7.72177v-7.72177h-7.72177m-123.54827,7.72177v7.72177h15.44353v-7.72177H101.67759m92.66121,0v23.1653h23.1653v-23.1653Z"/><path class="cls-2" d="M32.18168,201.76595v54.05237H86.23405V201.76595Z"/><path class="cls-1" d="M148.00819,201.76595v7.72177h30.88707v7.72177h-7.72177v7.72177h-7.72177v23.1653h7.72177v-7.72177h7.72177V224.93125H186.617v-23.1653Z"/><path class="cls-2" d="M202.06056,201.76595v7.72177h7.72177v-7.72177Z"/><path class="cls-1" d="M39.90345,209.48771v38.60884H78.51229V209.48771H39.90345m185.32241,0v7.72177h7.72177v7.72177h-7.72177V232.653h7.72177v-7.72177h7.72177v-7.72177h-7.72177v-7.72177Z"/><path class="cls-2" d="M47.62522,217.20948v23.1653h23.1653v-23.1653H47.62522m54.05237,0v7.72177H93.95582V232.653h15.44353V217.20948Z"/></svg>