<?xml version="1.0" encoding="utf-8"?>
<!-- Generator: Adobe Illustrator 22.1.0, SVG Export Plug-In . SVG Version: 6.00 Build 0)  -->
<svg version="1.1" id="Layer_1" xmlns="http://www.w3.org/2000/svg" xmlns:xlink="http://www.w3.org/1999/xlink" x="0px" y="0px"
	 viewBox="79.67999999999995 111.60000000000002 640.64 176.8" style="enable-background:new 0 0 800 400;" xml:space="preserve">
<style type="text/css">
	.st0{clip-path:url(#SVGID_2_);}
	.st1{clip-path:url(#SVGID_2_);fill:#ED1B36;}
	.st2{clip-path:url(#SVGID_2_);fill:#44C8F5;}
	.st3{clip-path:url(#SVGID_2_);fill:#64BC42;}
</style>
<g>
	<defs>
		<rect id="SVGID_1_" width="800" height="400"/>
	</defs>
	<clipPath id="SVGID_2_">
		<use xlink:href="#SVGID_1_"  style="overflow:visible;"/>
	</clipPath>
	<path class="st0" d="M633.8,224.4c0-15.3,12.4-29.5,28.2-29.5c20.8,0,27.4,14.2,28.4,29.5H633.8z M689.6,250.7
		c-0.6,7.4-10.1,19.5-26.2,19.5c-19.6,0-29.5-11.9-29.5-32.5H708c0-35-14.4-57.6-43.7-57.6c-33.6,0-48.7,24.4-48.7,55
		c0,28.5,16.9,49.5,45.4,49.5c16.3,0,22.9-3.8,27.6-6.8c12.8-8.3,17.5-22.3,18.1-27H689.6z M602.6,146h-17.1v135.7h17.1V146z
		 M567.2,182.9h-17.1v98.8h17.1V182.9z M541.8,196.7v-13.8h-17.1v-12.3c0-7.9,2.7-11.5,10.1-11.5c2.1,0,4.9,0.2,7,0.4v-14.9
		c-2.7-0.2-5.2-0.4-7.8-0.4c-16.7,0-26.4,6.8-26.4,21.7v17h-14v13.8h14v85h17.1v-85H541.8z M485.6,182.9h-17.1v98.8h17.1V182.9z
		 M459.2,196.7v-13.8h-16.3v-27.6h-17.1v27.6H412v13.8h13.8v65.2c0,11.9,3.7,21.2,20.6,21.2c1.7,0,6.6-0.8,12.8-1.3v-13h-6
		c-3.5,0-10.3,0-10.3-7.7v-64.2H459.2z M406.8,211c0-4.9-2.5-31-38.8-31c-20,0-38.5,9.8-38.5,31.6c0,13.6,9.3,20.6,23.5,24l19.8,4.7
		c14.6,3.6,20.2,6.2,20.2,14.2c0,11-11.1,15.7-23.3,15.7c-24.1,0-26.4-12.5-27-20.2h-16.5c0.6,11.9,3.5,34.6,43.7,34.6
		c22.9,0,40.2-12.3,40.2-32.7c0-13.4-7.4-21-28.5-26.1l-17.1-4.2c-13.2-3.2-18.4-5.1-18.4-13.2c0-12.3,15-14,20.2-14
		c21.6,0,23.9,10.4,24.1,16.6H406.8z M294.4,247.5c0,13.2-15.5,23.2-31.5,23.2c-12.8,0-18.4-6.4-18.4-17.2
		c0-12.5,13.4-14.9,21.8-16.1c21.2-2.6,25.4-4.2,28.2-6.2V247.5z M247.6,212.9c1.2-7.6,3.9-19.1,23.3-19.1
		c16.1,0,23.9,5.7,23.9,16.1c0,9.8-4.9,11.3-8.9,11.7l-28.2,3.4c-28.4,3.4-30.9,22.7-30.9,31c0,17,13.2,28.5,31.8,28.5
		c19.8,0,30.1-9.1,36.7-16.1c0.6,7.6,2.9,15.1,18.1,15.1c3.9,0,6.4-1.1,9.3-1.9v-12.1c-1.9,0.4-4.1,0.8-5.6,0.8
		c-3.5,0-5.6-1.7-5.6-5.9v-56.9c0-25.3-29.5-27.6-37.7-27.6c-25.1,0-41.2,9.3-41.9,32.9H247.6z M214.5,146h-17.1v135.7h17.1V146z
		 M110.3,224.4c0-15.3,12.4-29.5,28.2-29.5c20.8,0,27.4,14.2,28.4,29.5H110.3z M166,250.7c-0.6,7.4-10.1,19.5-26.2,19.5
		c-19.6,0-29.5-11.9-29.5-32.5h74.2c0-35-14.4-57.6-43.7-57.6c-33.6,0-48.7,24.4-48.7,55c0,28.5,16.9,49.5,45.4,49.5
		c16.3,0,22.9-3.8,27.6-6.8c12.8-8.3,17.5-22.3,18.1-27H166z"/>
	<path class="st1" d="M558,173.6c6.7,0,12.1-5.4,12.1-12.1c0-6.7-5.4-12.1-12.1-12.1c-6.7,0-12.1,5.4-12.1,12.1
		C545.9,168.2,551.3,173.6,558,173.6"/>
	<path class="st2" d="M475.9,173.6c6.7,0,12.1-5.4,12.1-12.1c0-6.7-5.4-12.1-12.1-12.1c-6.7,0-12.1,5.4-12.1,12.1
		C463.8,168.2,469.2,173.6,475.9,173.6"/>
	<path class="st3" d="M517.4,139.7c6.7,0,12.1-5.4,12.1-12.1c0-6.7-5.4-12.1-12.1-12.1c-6.7,0-12.1,5.4-12.1,12.1
		C505.3,134.2,510.8,139.7,517.4,139.7"/>
</g>
</svg>
