<?xml version="1.0" encoding="utf-8"?>
<!-- Generator: Adobe Illustrator 26.1.0, SVG Export Plug-In . SVG Version: 6.00 Build 0)  -->
<svg version="1.1" id="Layer_1" xmlns="http://www.w3.org/2000/svg" xmlns:xlink="http://www.w3.org/1999/xlink" x="0px" y="0px"
	 viewBox="0 0 210.3 210.3" style="enable-background:new 0 0 210.3 210.3;" xml:space="preserve">
<style type="text/css">
	.st0{fill:#D2E4F4;}
	.st1{fill:#43AF5A;}
	.st2{fill:#FED147;}
	.st3{fill:#0086FF;}
	.st4{fill:#93EAFF;}
</style>
<g>
	<path class="st0" d="M177.7,71.7V33.1h-38.4H97.1l-25.3,0.2l-0.2-0.2H33.3v38.2l0.2,0.3L33.3,97v39.5c14.9-12,29.7-24,44.5-36.1
		c3-2.4,4.9-2.4,7.7,0.4c10.8,11.2,22.1,22,33.1,33.1c2.3,2.4,4.2,2.4,6.7,0.4c6-4.8,12.3-9.3,18.2-14.2c3.2-2.6,5.6-2.5,8.8-0.1
		c8.4,6.3,16.8,12.4,25.3,18.5l0.2-24.8V71.7z M141.1,90.7c-12.3,0-22.1-9.7-22.3-22.1c-0.2-12.2,9.7-22.1,22.2-22.1
		c12.4-0.1,22.1,9.7,22.1,22.2C163.1,80.7,153,90.7,141.1,90.7z"/>
	<path class="st1" d="M139.2,177.4l0.2,0.2h38.2v-38.3l-0.2-0.2l0-0.5c-8.5-6.1-16.9-12.3-25.3-18.5c-3.2-2.4-5.6-2.5-8.8,0.1
		c-5.9,4.9-12.2,9.4-18.2,14.2c-2.5,2-4.4,2-6.7-0.4c-11-11.1-22.2-21.9-33.1-33.1c-2.7-2.8-4.7-2.8-7.7-0.4
		c-14.8,12.1-29.6,24.1-44.5,36.1v2.6v38.6h38.4h42.1L139.2,177.4l0,11.9v10.3h0v-10.3V177.4z"/>
	<path class="st2" d="M141,46.5c-12.5,0-22.5,10-22.2,22.1c0.2,12.4,10.1,22.1,22.3,22.1c11.9,0,22-10.1,22-22
		C163.1,56.2,153.4,46.4,141,46.5z"/>
	<polygon class="st3" points="71.8,189.3 71.8,177.6 33.3,177.6 33.3,139 30.1,139 24.1,139 16.2,139 10.8,139 4.4,139 4.4,206.4 
		71.8,206.4 71.8,199.6 	"/>
	<polygon class="st3" points="206.6,139 204.2,139 192.1,139 191,139 178.2,139 177.5,139 177.7,139.3 177.7,177.6 139.5,177.6 
		139.2,177.4 139.2,189.3 139.2,199.7 139.2,206.4 206.6,206.4 206.6,139 	"/>
	<polygon class="st3" points="16.2,71.7 24.2,71.7 33.5,71.7 33.3,71.3 33.3,33.1 71.5,33.1 71.8,33.3 71.8,19.8 71.8,13.4 
		71.8,6.2 71.8,4.2 4.4,4.2 4.4,71.7 10.8,71.7 	"/>
	<polygon class="st3" points="139.2,13.4 139.2,19.7 139.2,33.1 177.7,33.1 177.7,71.7 191.1,71.7 192.1,71.7 204.2,71.7 
		206.6,71.7 206.6,4.2 139.2,4.2 139.2,6.2 	"/>
	<polygon class="st4" points="71.8,13.4 71.8,19.8 71.8,33.3 97.1,33.1 139.2,33.1 139.2,19.7 139.2,13.4 139.2,6.2 139.2,4.2 
		71.8,4.2 71.8,6.2 	"/>
	<polygon class="st4" points="139.2,177.4 113.8,177.6 71.8,177.6 71.8,189.3 71.8,199.6 71.8,206.4 139.2,206.4 139.2,199.7 
		139.2,189.3 	"/>
	<polygon class="st4" points="192.1,71.7 191.1,71.7 177.7,71.7 177.7,113.7 177.5,138.5 177.5,139 178.2,139 191,139 192.1,139 
		204.2,139 206.6,139 206.6,71.7 204.2,71.7 	"/>
	<polygon class="st4" points="16.2,139 24.1,139 30.1,139 33.3,139 33.3,136.5 33.3,97 33.5,71.7 24.2,71.7 16.2,71.7 10.8,71.7 
		4.4,71.7 4.4,139 10.8,139 	"/>
</g>
</svg>
