<svg xmlns="http://www.w3.org/2000/svg" role="img" viewBox="2.71 -1.79 925.08 237.08"><style>svg {enable-background:new 0 0 922.3 219.1}</style><style>.st3{fill:#446ca9}.st5{fill:#76c4d5}.st7{fill:#333}</style><path fill="#d2e4f4" d="M31.7 24.4h160.6V185H31.7z"/><g id="gPSyY2_9_"><path fill="#43af5a" d="M26.7 106.2V31.1c0-9.5 3.8-13.3 13.3-13.3h150.5c9 0 12.7 3.6 12.8 12.6.1 50.3.1 100.6 0 150.9 0 9.1-4.1 13.1-13.3 13.1-50.2.1-100.3 0-150.5 0-8.6 0-12.8-4.3-12.8-12.8v-75.4zm88.4-76c-23.7 0-47.4.1-71-.1-3.6 0-5.2.8-5.2 4.8.1 34.1.1 68.1.1 102.2 0 1.5-.7 3.5 1.2 4.2 1.6.7 2.6-1 3.7-1.8 14.7-11.9 29.4-23.7 44-35.7 2.7-2.2 4.5-2.2 7 .4 9.9 10.2 20.2 20.1 30.2 30.2 2.1 2.2 3.8 2.2 6.1.4 5.5-4.4 11.2-8.5 16.6-13 2.9-2.4 5.1-2.3 8-.1 10 7.5 20.1 14.8 30.3 22.1 1.2.9 2.4 2.7 4.1 1.9 1.7-.8 1.1-2.8 1.1-4.4 0-35.4 0-70.8.1-106.1 0-4.1-1.2-5.2-5.2-5.2-23.7.2-47.4.2-71.1.2z"/><path fill="#fed147" d="M145.6 54.6c11.3-.1 20.2 8.9 20.2 20.3 0 10.9-9.2 20.1-20.1 20.1-11.2 0-20.2-8.9-20.4-20.2-.2-11.1 8.9-20.2 20.3-20.2z"/></g><g id="XMLID_148_"><g id="XMLID_154_"><path id="XMLID_158_" d="M47.3 139.1H20.9v61.5h61.5v-26.3H47.3z" class="st3"/><path id="XMLID_157_" d="M179.1 139.3v35h-34.9l-.2-.2v26.5h61.5v-61.5h-26.6z" class="st3"/><path id="XMLID_156_" d="M20.9 77.6h26.6l-.2-.3V42.4h34.9l.2.2V16H20.9z" class="st3"/><path id="XMLID_155_" fill="#33669a" d="M144 16v26.4h35.1v35.2h26.4V16z"/></g><g id="XMLID_149_"><path id="XMLID_153_" d="M105.5 42.4H144V16H82.4v26.6" class="st5"/><path id="XMLID_152_" d="M120.8 174.3H82.4v26.3H144v-26.5" class="st5"/><path id="XMLID_151_" d="M178.9 139.1h26.6V77.6h-26.4V116" class="st5"/><path id="XMLID_150_" d="M47.5 77.6H20.9v61.5h26.4v-38.4" class="st5"/></g></g><path d="M235.5 106.6h10.2v80.9h50.8v9.4h-61v-90.3zm73.1 70.9v-.3c0-14.3 11.6-21.8 28.5-21.8 8.5 0 14.4 1.2 20.4 2.8v-2.1c0-11.9-7.2-18.1-19.7-18.1-7.9 0-14.1 1.9-20.2 4.8l-3-8.1c7.4-3.4 14.4-5.7 24.2-5.7 9.4 0 16.8 2.6 21.5 7.4 4.6 4.6 7 11.1 7 19.6v40.7h-9.8v-9.9c-4.6 5.9-12.3 11.3-24 11.3-12.5.2-24.9-6.9-24.9-20.6zm49-5.1v-6.2c-4.9-1.4-11.3-2.8-19.5-2.8-12.4 0-19.5 5.4-19.5 13.4v.3c0 8.4 7.7 13.3 16.8 13.3 12.3-.1 22.2-7.5 22.2-18zm30.7-42.2h9.9v11.6c4.4-7.2 11.3-13 22.8-13 16.1 0 25.5 10.8 25.5 26.7v41.4h-9.9V158c0-12.4-6.7-20.1-18.4-20.1-11.5 0-20 8.4-20 20.9V197h-9.9v-66.8zm75.5 33.5v-.3c0-21.8 15.9-34.7 31.9-34.7 12.4 0 20.4 6.7 25.5 14.2v-40.2h9.9v94.1h-9.9v-13.4c-5.4 8-13.3 14.8-25.5 14.8-16 .1-31.9-12.6-31.9-34.5zm57.8-.1v-.3c0-15.3-11.7-25.7-24.1-25.7-12.9 0-23.5 9.5-23.5 25.7v.3c0 15.7 10.8 25.8 23.5 25.8 12.4 0 24.1-10.5 24.1-25.8zm26.2 24.7l5-7.1c7.2 5.4 15.2 8.5 23.1 8.5 8 0 13.8-4.1 13.8-10.6v-.3c0-6.7-7.9-9.3-16.6-11.7-10.4-3-22.1-6.6-22.1-18.8v-.3c0-11.5 9.5-19.1 22.7-19.1 8.1 0 17.2 2.8 24 7.4l-4.5 7.5c-6.2-4-13.3-6.4-19.7-6.4-7.9 0-12.9 4.1-12.9 9.7v.3c0 6.3 8.3 8.8 17.2 11.5 10.3 3.1 21.4 7.1 21.4 19.1v.3c0 12.6-10.4 20-23.7 20-9.7-.2-20.2-3.9-27.7-10zm65.6-24.5v-.3c0-18.8 14.7-34.8 34.2-34.8 12.6 0 20.5 5.3 26.7 11.9l-6.6 7c-5.3-5.5-11.2-10.1-20.2-10.1-13.5 0-23.9 11.5-23.9 25.8v.3c0 14.4 10.6 25.9 24.5 25.9 8.5 0 15.1-4.3 20.4-9.9l6.3 5.9c-6.7 7.5-14.7 12.9-27.2 12.9-19.5 0-34.2-15.9-34.2-34.6zm72.8 13.7v-.3c0-14.3 11.6-21.8 28.5-21.8 8.5 0 14.4 1.2 20.4 2.8v-2.1c0-11.9-7.2-18.1-19.7-18.1-7.9 0-14.1 1.9-20.2 4.8l-3-8.1c7.4-3.4 14.4-5.7 24.2-5.7 9.4 0 16.8 2.6 21.5 7.4 4.6 4.6 7 11.1 7 19.6v40.7H735v-9.9c-4.6 5.9-12.2 11.3-24 11.3-12.5.2-24.8-6.9-24.8-20.6zm49-5.1v-6.2c-4.9-1.4-11.3-2.8-19.5-2.8-12.4 0-19.5 5.4-19.5 13.4v.3c0 8.4 7.7 13.3 16.8 13.3 12.2-.1 22.2-7.5 22.2-18zm30.6-42.2h9.9v13.4c5.4-8 13.3-14.8 25.5-14.8 16 0 31.9 12.6 31.9 34.6v.3c0 21.8-15.7 34.7-31.9 34.7-12.4 0-20.4-6.7-25.5-14.2v33.4h-9.9v-87.4zm57.2 33.5v-.3c0-15.7-10.8-25.8-23.5-25.8-12.4 0-24.1 10.4-24.1 25.7v.3c0 15.5 11.7 25.8 24.1 25.8 12.9 0 23.5-9.6 23.5-25.7zm57.9 26.1c9.2 0 15.6-3.7 21-9.4l6.2 5.5c-6.7 7.5-14.8 12.5-27.5 12.5-18.3 0-33.3-14.1-33.3-34.8 0-19.3 13.5-34.8 32-34.8 19.7 0 31.1 15.7 31.1 35.3 0 .9 0 1.9-.1 3.5h-52.9c1.4 14 11.7 22.2 23.5 22.2zm19.4-30.2c-1.2-12.1-8.1-22.4-21.3-22.4-11.5 0-20.2 9.5-21.7 22.4h43z" class="st7"/><path id="XMLID_193_" d="M262.1 73.7c6.9 0 12.5-2.7 16.9-8.2l9 9.3c-7.1 8-15.5 12-25.2 12s-17.6-3.1-23.9-9.2c-6.3-6.1-9.4-13.8-9.4-23.1s3.2-17.1 9.6-23.3c6.4-6.2 14.2-9.3 23.4-9.3 10.3 0 18.9 3.9 25.9 11.8l-8.7 9.9c-4.4-5.5-9.9-8.3-16.5-8.3-5.3 0-9.8 1.7-13.5 5.2-3.7 3.4-5.6 8.1-5.6 13.9s1.8 10.5 5.3 14.1c3.4 3.4 7.7 5.2 12.7 5.2z" class="st7"/><path id="XMLID_180_" d="M299 86.1V23.3h14v50.3h26.8v12.5H299z" class="st7"/><path id="XMLID_177_" d="M401.2 77.4c-6.3 6.2-14.2 9.3-23.4 9.3-9.3 0-17.1-3.1-23.4-9.3-6.3-6.2-9.5-13.9-9.5-23.1s3.2-16.9 9.5-23.1 14.2-9.3 23.4-9.3c9.3 0 17.1 3.1 23.4 9.3s9.5 13.9 9.5 23.1-3.2 16.9-9.5 23.1zm-4.8-23.1c0-5.6-1.8-10.4-5.4-14.3-3.6-4-8-5.9-13.2-5.9s-9.7 2-13.2 5.9c-3.6 4-5.4 8.7-5.4 14.3s1.8 10.4 5.4 14.3 8 5.9 13.2 5.9 9.7-2 13.2-5.9c3.6-3.9 5.4-8.7 5.4-14.3z" class="st7"/><path id="XMLID_175_" d="M439.2 69.9c2.3 2.9 5.5 4.4 9.4 4.4 4 0 7.1-1.5 9.4-4.4s3.5-6.9 3.5-11.9V23.3h14v35.1c0 9.1-2.5 16.1-7.5 21-5 4.9-11.5 7.3-19.3 7.3s-14.3-2.5-19.4-7.4-7.6-11.9-7.6-20.9V23.3h14V58c-.1 5 1.1 9 3.5 11.9z" class="st7"/><path id="XMLID_172_" d="M537.9 31.5c6 5.5 9 13.1 9 22.9s-2.9 17.5-8.8 23.2c-5.8 5.7-14.7 8.5-26.7 8.5H490V23.3h22.2c11.2 0 19.8 2.8 25.7 8.2zm-10.2 37.3c3.4-3.2 5.2-7.9 5.2-14.1s-1.7-10.9-5.2-14.2c-3.4-3.3-8.7-5-15.9-5H504v38.2h8.9c6.4 0 11.3-1.6 14.8-4.9z" class="st7"/><path id="XMLID_170_" d="M626.7 23.3h14v62.8h-14l-29.9-39.3v39.3h-14V23.3h13.1l30.8 40.4V23.3z" class="st7"/><path id="XMLID_167_" d="M700.9 86.1L695 72.5h-26.3l-5.8 13.6H648l27.1-62.8h13.6l27.1 62.8h-14.9zm-19-44.1L674 60.2h15.7L681.9 42z" class="st7"/><path id="XMLID_165_" d="M745.1 35.4v50.7h-14V35.4h-17.8V23.3h49.6v12.1h-17.8z" class="st7"/><path id="XMLID_163_" d="M773.1 23.3h14v62.8h-14V23.3z" class="st7"/><path id="XMLID_161_" d="M825.7 63.3l16-40h15.2l-25.2 62.8h-11.9l-25.2-62.8h15.2l15.9 40z" class="st7"/><path id="XMLID_159_" d="M909.6 23.3v12.5h-31.3v12.9h28.1v11.9h-28.1v13h32.2V86h-46.3V23.3h45.4z" class="st7"/></svg>