<?xml version="1.0" encoding="UTF-8"?>
<svg enable-background="new 0 0 200 200" version="1.1" viewBox="0 0 200 200" xml:space="preserve" xmlns="http://www.w3.org/2000/svg">
<style type="text/css">
	.st0{fill:none;}
	.st1{fill:#020202;}
	.st2{fill:#D2E4F4;}
	.st3{fill:#44AF59;}
	.st4{fill:#FED247;}
	.st5{fill:#456DAA;}
	.st6{fill:#34679A;}
	.st7{fill:#77C4D5;}
</style>
	<polygon class="st0" points="61.46 67.528 55.554 67.528 49.647 67.528 49.647 73.435 55.554 73.435 55.554 79.342 61.46 79.342 61.46 73.435 67.367 73.435 67.367 67.528"/>
	<rect class="st0" x="108.72" y="150.23" width="5.9069" height="5.9069"/>
	<polygon class="st0" points="26.019 108.88 26.019 102.97 20.112 102.97 20.112 108.88 20.112 114.78 26.019 114.78 26.019 114.78 31.926 114.78 31.926 108.88"/>
	<path class="st0" d="m20.407 179.46v6.1e-5h28.944v-28.944h-28.944v28.944zm5.6116-23.332h17.721v17.721h-17.721v-17.721z"/>
	<rect class="st0" x="114.62" y="37.993" width="5.9069" height="5.9069"/>
	<path class="st0" d="m20.407 49.512h28.944v-28.944h-28.944v28.944zm5.6116-23.332h17.721v17.721h-17.721v-17.721z"/>
	<rect class="st0" x="85.088" y="61.621" width="5.9069" height="5.9069"/>
	<polygon class="st0" points="96.902 132.5 102.81 132.5 102.81 126.6 102.81 121.09 91.663 121.09 85.088 121.09 85.088 126.6 90.995 126.6 90.995 132.5 90.995 138.41 96.902 138.41"/>
	<rect class="st0" x="96.902" y="138.41" width="5.9069" height="5.9069"/>
	<rect class="st0" x="114.62" y="49.807" width="5.9069" height="5.9069"/>
	<polygon class="st0" points="96.902 49.807 102.81 49.807 102.81 55.714 108.72 55.714 108.72 49.807 108.72 43.9 102.81 43.9 102.81 37.993 96.902 37.993 96.902 43.9"/>
	<polygon class="st0" points="108.72 61.621 102.81 61.621 96.902 61.621 96.902 67.528 102.81 67.528 108.72 67.528 114.62 67.528 114.62 61.621"/>
	<polygon class="st0" points="90.995 55.714 90.995 61.621 96.902 61.621 96.902 55.714 96.902 49.807 90.995 49.807"/>
	<polygon class="st0" points="173.69 102.97 167.79 102.97 167.79 108.88 161.88 108.88 161.88 114.78 167.79 114.78 173.69 114.78 173.69 108.88"/>
	<rect class="st0" x="155.97" y="73.435" width="5.9069" height="5.9069"/>
	<path class="st0" d="m150.36 49.512h28.944v-28.944h-28.944v28.944zm5.6116-23.332h17.721v17.721h-17.721v-17.721z"/>
	<path class="st0" d="m155.97 144.32v-5.9069h-17.721v17.721h17.721v-11.814zm-5.9069 5.9069h-5.9069v-5.9069h5.9069v5.9069z"/>
	<polygon class="st1" points="90.995 14.366 85.088 14.366 79.181 14.366 73.274 14.366 73.274 20.273 79.181 20.273 85.088 20.273 90.995 20.273 96.902 20.273 96.902 14.366"/>
	<rect class="st1" x="126.44" y="14.366" width="5.9069" height="5.9069"/>
	<path class="st1" d="m120.53 26.18v-11.814h-5.9069v17.721h-5.9069v-5.9069h-5.9069v-5.9069h-5.9069v5.9069h-5.9069v5.9069h5.9069v5.9069h5.9069v5.9069h5.9069v11.814h-5.9069v-5.9069h-5.9069v11.814h17.721v5.9069h5.9069v-11.814h-5.9069v-5.9069h5.9069v5.9069h5.9069v-23.628h-5.9069v-5.9069zm0 17.721h-5.9069v-5.9069h5.9069v5.9069z"/>
	<rect class="st1" x="126.44" y="26.18" width="5.9069" height="5.9069"/>
	<polygon class="st1" points="138.25 26.18 138.25 20.273 138.25 14.366 132.34 14.366 132.34 20.273 132.34 26.18 132.34 32.087 138.25 32.087"/>
	<polygon class="st1" points="79.181 32.087 79.181 26.18 73.274 26.18 67.367 26.18 67.367 20.273 61.46 20.273 61.46 26.18 61.46 32.087 61.46 37.993 61.46 43.9 61.46 49.807 61.46 55.714 67.367 55.714 67.367 49.807 67.367 43.9 67.367 37.993 67.367 32.087 73.274 32.087 73.274 37.993 73.274 43.9 79.181 43.9 79.181 37.993 85.088 37.993 85.088 32.087"/>
	<polygon class="st1" points="79.181 49.807 73.274 49.807 73.274 55.714 73.274 61.621 79.181 61.621 79.181 55.714"/>
	<polygon class="st1" points="90.995 55.714 90.995 49.807 96.902 49.807 96.902 43.9 96.902 37.993 90.995 37.993 85.088 37.993 85.088 43.9 85.088 49.807 85.088 55.714 85.088 61.621 90.995 61.621"/>
	<rect class="st1" x="126.44" y="55.714" width="5.9069" height="5.9069"/>
	<polygon class="st1" points="61.46 61.621 55.554 61.621 49.647 61.621 43.74 61.621 43.74 67.528 43.74 73.435 43.74 79.342 37.833 79.342 37.833 73.435 37.833 67.528 31.926 67.528 31.926 61.621 26.019 61.621 26.019 67.528 26.019 73.435 26.019 79.342 31.926 79.342 31.926 85.249 37.833 85.249 43.74 85.249 49.647 85.249 49.647 79.342 55.554 79.342 55.554 73.435 49.647 73.435 49.647 67.528 55.554 67.528 61.46 67.528 67.367 67.528 67.367 73.435 73.274 73.435 73.274 67.528 73.274 61.621 67.367 61.621"/>
	<polygon class="st1" points="179.6 61.621 173.69 61.621 167.79 61.621 161.88 61.621 155.97 61.621 150.06 61.621 150.06 67.528 150.06 73.435 150.06 79.342 144.16 79.342 144.16 85.249 150.06 85.249 155.97 85.249 161.88 85.249 161.88 79.342 155.97 79.342 155.97 73.435 161.88 73.435 161.88 79.342 167.79 79.342 167.79 73.435 167.79 67.528 173.69 67.528 173.69 73.435 179.6 73.435 179.6 79.342 185.51 79.342 185.51 73.435 185.51 67.528 179.6 67.528"/>
	<rect class="st1" x="14.205" y="67.528" width="5.9069" height="5.9069"/>
	<polygon class="st1" points="102.81 67.528 96.902 67.528 96.902 61.621 90.995 61.621 90.995 67.528 85.088 67.528 85.088 61.621 79.181 61.621 79.181 67.528 79.181 73.435 85.088 73.435 85.088 77.333 90.995 77.333 91.663 77.333 96.902 77.333 102.81 77.333 106.26 77.333 108.72 77.333 114.62 77.333 120.53 77.333 120.53 73.435 114.62 73.435 114.62 67.528 108.72 67.528"/>
	<rect class="st1" x="61.46" y="73.435" width="5.9069" height="5.9069"/>
	<polygon class="st1" points="138.25 73.435 138.25 67.528 144.16 67.528 144.16 61.621 138.25 61.621 138.25 55.714 138.25 49.807 132.34 49.807 132.34 55.714 132.34 61.621 132.34 67.528 132.34 73.435 132.34 79.342 132.34 85.249 138.25 85.249 138.25 79.342 144.16 79.342 144.16 73.435"/>
	<rect class="st1" x="55.554" y="79.342" width="5.9069" height="5.9069"/>
	<rect class="st1" x="126.44" y="79.342" width="5.9069" height="5.9069"/>
	<rect class="st1" x="49.647" y="85.249" width="5.9069" height="5.9069"/>
	<rect class="st1" x="173.69" y="85.249" width="5.9069" height="5.9069"/>
	<polygon class="st1" points="67.367 97.063 67.367 91.156 67.367 85.249 61.46 85.249 61.46 91.156 55.554 91.156 55.554 97.063 61.46 97.063"/>
	<polygon class="st1" points="77.085 91.156 73.274 91.156 73.274 97.063 77.085 97.063 77.085 91.911"/>
	<polygon class="st1" points="120.84 97.063 120.84 102.97 126.44 102.97 126.44 108.88 126.44 114.78 132.34 114.78 132.34 108.88 132.34 102.97 132.34 97.063 132.34 91.156 126.44 91.156 120.84 91.156 120.84 91.911"/>
	<polygon class="st1" points="179.6 97.063 179.6 102.97 173.69 102.97 173.69 108.88 173.69 114.78 179.6 114.78 179.6 120.69 179.6 126.6 185.51 126.6 185.51 120.69 185.51 114.78 185.51 108.88 185.51 102.97 185.51 97.063 185.51 91.156 179.6 91.156"/>
	<polygon class="st1" points="167.79 102.97 173.69 102.97 173.69 97.063 167.79 97.063 167.79 91.156 167.79 85.249 161.88 85.249 161.88 91.156 161.88 97.063 161.88 102.97 161.88 108.88 167.79 108.88"/>
	<polygon class="st1" points="73.274 114.78 73.274 108.88 73.274 102.97 67.367 102.97 61.46 102.97 61.46 108.88 61.46 114.78 61.46 120.69 67.367 120.69 67.367 114.78"/>
	<polygon class="st1" points="155.97 108.88 150.06 108.88 144.16 108.88 144.16 102.97 150.06 102.97 150.06 97.063 150.06 91.156 150.06 85.249 144.16 85.249 138.25 85.249 132.34 85.249 132.34 91.156 138.25 91.156 144.16 91.156 144.16 97.063 138.25 97.063 138.25 102.97 138.25 108.88 138.25 114.78 138.25 120.69 144.16 120.69 144.16 114.78 150.06 114.78 155.97 114.78 161.88 114.78 161.88 108.88"/>
	<polygon class="st1" points="26.019 114.78 20.112 114.78 20.112 120.69 14.205 120.69 14.205 126.6 20.112 126.6 26.019 126.6 26.019 126.6 31.926 126.6 31.926 132.5 26.019 132.5 26.019 132.5 20.112 132.5 14.205 132.5 14.205 138.41 20.112 138.41 26.019 138.41 26.019 138.41 31.926 138.41 37.833 138.41 37.833 132.5 37.833 126.6 37.833 120.69 31.926 120.69 31.926 114.78 26.019 114.78"/>
	<path class="st1" d="m161.88 114.78v11.814h-23.628v5.9069h-5.9069v35.442h5.9069v-5.9069h11.814v5.9069h5.9069v5.9069h5.9069v-17.721h5.9069v-5.9069h5.9069v-5.9069h-5.9069v-23.628h5.9069v-5.9069h-11.814zm-11.814 41.348h-11.814v-17.721h17.721v17.721h-5.9069z"/>
	<rect class="st1" x="67.367" y="120.69" width="5.9069" height="5.9069"/>
	<polygon class="st1" points="102.81 121.09 102.81 126.6 102.81 132.5 96.902 132.5 96.902 138.41 102.81 138.41 102.81 144.32 96.902 144.32 96.902 150.23 90.995 150.23 85.088 150.23 79.181 150.23 79.181 156.13 85.088 156.13 85.088 162.04 85.088 167.95 85.088 173.85 90.995 173.85 96.902 173.85 96.902 167.95 96.902 162.04 90.995 162.04 90.995 156.13 96.902 156.13 102.81 156.13 102.81 162.04 102.81 167.95 102.81 173.85 108.72 173.85 114.62 173.85 120.53 173.85 120.53 167.95 114.62 167.95 108.72 167.95 108.72 162.04 114.62 162.04 114.62 156.13 108.72 156.13 108.72 150.23 114.62 150.23 114.62 156.13 120.53 156.13 126.44 156.13 126.44 162.04 126.44 167.95 132.34 167.95 132.34 162.04 132.34 156.13 132.34 150.23 126.44 150.23 120.53 150.23 120.53 144.32 114.62 144.32 108.72 144.32 108.72 138.41 114.62 138.41 114.62 132.5 108.72 132.5 108.72 126.6 108.72 121.09 106.26 121.09"/>
	<polygon class="st1" points="120.53 121.09 114.62 121.09 114.62 126.6 120.53 126.6 126.44 126.6 132.34 126.6 132.34 120.69 126.44 120.69 120.84 120.69 120.84 121.09"/>
	<polygon class="st1" points="90.995 126.6 85.088 126.6 85.088 121.09 79.181 121.09 79.181 126.6 79.181 132.5 85.088 132.5 85.088 138.41 90.995 138.41 90.995 132.5"/>
	<polygon class="st1" points="173.69 132.5 173.69 138.41 179.6 138.41 179.6 144.32 179.6 150.23 179.6 156.13 185.51 156.13 185.51 150.23 185.51 144.32 185.51 138.41 185.51 132.5 179.6 132.5 179.6 126.6 173.69 126.6"/>
	<polygon class="st1" points="120.53 132.5 120.53 138.41 126.44 138.41 126.44 144.32 132.34 144.32 132.34 138.41 132.34 132.5 126.44 132.5"/>
	<polygon class="st1" points="73.274 138.41 67.367 138.41 67.367 132.5 61.46 132.5 55.554 132.5 49.647 132.5 49.647 126.6 55.554 126.6 55.554 120.69 49.647 120.69 49.647 114.78 55.554 114.78 55.554 108.88 49.647 108.88 49.647 102.97 55.554 102.97 55.554 97.063 49.647 97.063 43.74 97.063 43.74 91.156 43.74 85.249 37.833 85.249 31.926 85.249 26.019 85.249 26.019 91.156 31.926 91.156 31.926 97.063 26.019 97.063 26.019 97.063 20.112 97.063 20.112 91.156 20.112 85.249 14.205 85.249 14.205 91.156 14.205 97.063 14.205 102.97 14.205 108.88 14.205 114.78 20.112 114.78 20.112 108.88 20.112 102.97 26.019 102.97 26.019 108.88 31.926 108.88 31.926 114.78 37.833 114.78 43.74 114.78 43.74 120.69 43.74 126.6 43.74 132.5 43.74 138.41 49.647 138.41 55.554 138.41 61.46 138.41 61.46 144.32 61.46 150.23 61.46 156.13 67.367 156.13 73.274 156.13 73.274 150.23 67.367 150.23 67.367 144.32 73.274 144.32 79.181 144.32 85.088 144.32 85.088 138.41 79.181 138.41"/>
	<rect class="st1" x="90.995" y="138.41" width="5.9069" height="5.9069"/>
	<rect class="st1" x="144.16" y="144.32" width="5.9069" height="5.9069"/>
	<rect class="st1" x="73.274" y="162.04" width="5.9069" height="5.9069"/>
	<polygon class="st1" points="179.6 162.04 173.69 162.04 167.79 162.04 167.79 167.95 167.79 173.85 173.69 173.85 179.6 173.85 185.51 173.85 185.51 167.95 179.6 167.95"/>
	<polygon class="st1" points="61.46 167.95 61.46 173.85 67.367 173.85 73.274 173.85 73.274 167.95 67.367 167.95"/>
	<rect class="st1" x="138.25" y="167.95" width="5.9069" height="5.9069"/>
	<polygon class="st1" points="73.274 173.85 67.367 173.85 67.367 179.76 73.274 179.76 73.274 185.67 79.181 185.67 79.181 179.76 73.274 179.76"/>
	<rect class="st1" x="85.088" y="173.85" width="5.9069" height="5.9069"/>
	<polygon class="st1" points="120.53 179.76 114.62 179.76 114.62 173.85 108.72 173.85 108.72 179.76 102.81 179.76 102.81 173.85 96.902 173.85 96.902 179.76 96.902 179.76 96.902 185.67 102.81 185.67 108.72 185.67 108.72 179.76 114.62 179.76 114.62 185.67 120.53 185.67 126.44 185.67 126.44 179.76 126.44 179.76 126.44 173.85 120.53 173.85"/>
	<polygon class="st1" points="161.88 179.76 155.97 179.76 150.06 179.76 150.06 173.85 144.16 173.85 138.25 173.85 138.25 179.76 138.25 179.76 138.25 185.67 144.16 185.67 144.16 179.76 150.06 179.76 150.06 185.67 155.97 185.67 161.88 185.67 167.79 185.67 167.79 179.76 167.79 179.76 167.79 173.85 161.88 173.85"/>
	<rect class="st1" x="179.6" y="179.76" width="5.9069" height="5.9069"/>
	<path class="st1" d="m55.554 14.366h-41.349v41.349h41.349v-41.349zm-6.2023 35.146h-28.944v-28.944h28.944v28.944z"/>
	<path class="st1" d="m179.3 14.366h-35.146v41.349h41.349v-41.349h-6.2023zm0 35.146h-28.944v-28.944h28.944v28.944z"/>
	<path class="st1" d="m14.205 144.32v41.349h41.349v-41.349h-41.349zm35.146 35.146v6.1e-5h-28.944v-28.944h28.944v28.944z"/>
	<rect class="st1" x="26.019" y="26.18" width="17.721" height="17.721"/>
	<rect class="st1" x="155.97" y="26.18" width="17.721" height="17.721"/>
	<rect class="st1" x="26.019" y="156.13" width="17.721" height="17.721"/>
	<path class="st2" d="m91.663 83.634l-0.044373-0.044373h-8.2765v8.2765l0.044373 0.044373-0.044373 5.4807v8.5588c0.58319-0.47131 1.1627-0.94489 1.7457-1.4155 0.64465-0.52045 1.286-1.0447 1.9301-1.5651 1.3271-1.0723 2.6537-2.1469 3.9768-3.2246 0.66528-0.54193 1.3358-1.0768 1.9996-1.6215 0.64349-0.53247 1.0651-0.51031 1.6642 0.088806 2.352 2.4186 4.7706 4.7484 7.1448 7.167 0.36475 0.36475 0.66309 0.46936 1.0052 0.34357 0.1366-0.050232 0.27881-0.12811 0.43707-0.25476 1.0618-0.84589 2.1457-1.6573 3.2067-2.4985 0.24707-0.19592 0.49982-0.38458 0.74292-0.58575 0.55298-0.46375 1.0067-0.52039 1.5202-0.26184 0.12531 0.06311 0.25317 0.13959 0.38806 0.23969 0.2749 0.20557 0.55365 0.4035 0.82916 0.60791 1.5312 1.1362 3.067 2.2632 4.6085 3.3787l0.027344-3.3787 0.015686-1.9393v-17.441h-17.44l-5.4807 0.044372zm14.976 2.6624c1.3289-0.0177 2.5886 0.4942 3.5172 1.4227 0.90869 0.90869 1.405 2.1266 1.4228 3.4366 4.883e-4 0.038269 0.010254 0.074463 0.0099487 0.11285 0 1.948-1.198 3.6647-2.8735 4.4645-0.63049 0.30096-1.3226 0.48254-2.0527 0.48254-1.5683 0-2.9385-0.71326-3.8542-1.8234-0.69946-0.8479-1.1409-1.9211-1.1609-3.1221-6.714e-4 -0.038757 0.0091553-0.075806 0.0094604-0.11444 0.0081177-1.1254 0.41821-2.188 1.1515-3.0544 0.076172-0.089966 0.13708-0.18909 0.22034-0.27448 0.95154-0.97552 2.2335-1.519 3.6102-1.5303z"/>
	<path class="st3" d="m109.1 102.36c-0.13489-0.1001-0.26276-0.17657-0.38806-0.23969-0.51355-0.25854-0.96722-0.2019-1.5202 0.26184-0.2431 0.20117-0.49585 0.38983-0.74292 0.58575-1.061 0.84119-2.1449 1.6526-3.2067 2.4985-0.15826 0.12665-0.30048 0.20453-0.43707 0.25476-0.3421 0.12579-0.64044 0.021179-1.0052-0.34357-2.3742-2.4186-4.7928-4.7484-7.1448-7.167-0.59912-0.59912-1.0207-0.62128-1.6642-0.088806-0.66382 0.54468-1.3344 1.0795-1.9996 1.6215-1.3231 1.0778-2.6497 2.1523-3.9768 3.2246-0.6441 0.52039-1.2855 1.0446-1.9301 1.5651-0.58301 0.47064-1.1625 0.94421-1.7457 1.4155v8.8817h17.441l2.0259-0.016418 3.4548-0.027954 0.044434 0.044373h8.2764v-8.2765l-0.044312-0.044373 0.0012817-0.16266c-1.5415-1.1155-3.0773-2.2425-4.6085-3.3787-0.27551-0.20441-0.55426-0.40234-0.82916-0.60791z"/>
	<path class="st4" d="m101.66 91.156c-3.052e-4 0.038635-0.010132 0.075684-0.0094604 0.11444 0.02002 1.2009 0.46149 2.2742 1.1609 3.1221 0.91577 1.1102 2.2859 1.8234 3.8542 1.8234 0.73004 0 1.4222-0.18158 2.0527-0.48254 1.6755-0.7998 2.8735-2.5165 2.8735-4.4645 3.052e-4 -0.038391-0.0094604-0.074585-0.0099487-0.11285-0.017761-1.3099-0.5141-2.5279-1.4228-3.4366-0.92859-0.92847-2.1883-1.4404-3.5172-1.4227-1.3768 0.011292-2.6587 0.55481-3.6102 1.5303-0.083252 0.085388-0.14416 0.18451-0.22034 0.27448-0.73328 0.86646-1.1434 1.929-1.1515 3.0544z"/>
	<polygon class="st5" points="91.663 121.09 91.663 114.83 90.995 114.83 85.088 114.83 83.342 114.83 83.342 108.88 83.342 106.51 79.181 106.51 77.085 106.51 77.085 121.09 79.181 121.09 85.088 121.09"/>
	<polygon class="st5" points="114.54 106.51 114.58 106.56 114.58 108.88 114.58 114.78 114.58 114.83 108.72 114.83 106.31 114.83 106.26 114.79 106.26 120.69 106.26 121.09 108.72 121.09 114.62 121.09 120.53 121.09 120.84 121.09 120.84 120.69 120.84 106.51 114.62 106.51"/>
	<polygon class="st5" points="79.181 91.911 83.387 91.911 83.342 91.866 83.342 91.156 83.342 85.249 83.342 85.249 83.342 83.59 85.088 83.59 91.619 83.59 91.663 83.634 91.663 79.342 91.663 77.333 90.995 77.333 85.088 77.333 77.085 77.333 77.085 91.156 77.085 91.911"/>
	<polygon class="st6" points="108.72 77.333 106.26 77.333 106.26 79.342 106.26 83.59 108.72 83.59 114.58 83.59 114.58 85.249 114.58 91.156 114.58 91.911 114.62 91.911 120.53 91.911 120.84 91.911 120.84 91.156 120.84 77.333 120.53 77.333 114.62 77.333"/>
	<polygon class="st7" points="91.663 83.634 97.144 83.59 106.26 83.59 106.26 79.342 106.26 77.333 102.81 77.333 96.902 77.333 91.663 77.333 91.663 79.342"/>
	<polygon class="st7" points="100.78 114.83 97.921 114.83 91.663 114.83 91.663 121.09 102.81 121.09 106.26 121.09 106.26 120.69 106.26 114.79 102.81 114.82"/>
	<polygon class="st7" points="120.84 91.911 120.53 91.911 114.62 91.911 114.58 91.911 114.58 97.063 114.58 98.168 114.58 101.03 114.57 102.97 114.54 106.35 114.54 106.51 114.62 106.51 120.84 106.51 120.84 102.97 120.84 97.063"/>
	<polygon class="st7" points="83.342 106.51 83.342 105.95 83.342 102.97 83.342 97.391 83.387 91.911 79.181 91.911 77.085 91.911 77.085 97.063 77.085 106.51 79.181 106.51"/>
</svg>
