<svg id="Layer_1" data-name="Layer 1" xmlns="http://www.w3.org/2000/svg" viewBox="0 0 612 118"><defs><style>.cls-1{fill:none;}.cls-2{fill:#fd0d1d;}.cls-3{fill:#ce0000;}.cls-4{fill:#010101;}.cls-5{fill:#d52c3e;}.cls-6{fill:#d23247;}.cls-7{fill:#7e0000;}.cls-8{fill:#d14646;}</style></defs><title>redpoint</title><path class="cls-1" d="M82.19489,17.92987c-.65155.07477-.95367.64508-1.35425,1.04846-1.20959,1.2182-2.40283,2.45215-3.6004,3.68188,1.751-1.532,3.51086-3.0271,5.21088-4.53857A.84878.84878,0,0,0,82.19489,17.92987Z"/><path class="cls-1" d="M10.04633,94.60229c.0072.01837.00031.02588.0036.04138a.69327.69327,0,0,1,.08069.03107C10.21661,94.59644,9.96533,94.39581,10.04633,94.60229Z"/><path class="cls-2" d="M153.4278,75.87c-1.16486-6.4928-2.36475-12.97931-3.54944-19.46851-1.65381-1.76367-.96912-4.17419-1.69006-6.19775-.00537-.0152.32635-.15033.50067-.23047l-.00006-.00079a61.31044,61.31044,0,0,0-1.6438-9.44141,2.093,2.093,0,0,1-1.58429-2.17957c.02777-2.22693.01849-4.45435.02448-6.682l-.00006-.00067c-.08423-.78516-.12531-1.57782-.25952-2.35437q-2.05527-11.8927-4.1366-23.78088h-.3974c-1.43994,1.03723-2.85065,2.118-4.32428,3.1048Q117.05914,21.56781,97.73175,34.46851c-.25818.314-.52515.61511-.79749.90833a11.9106,11.9106,0,0,1-5.92181,3.69128l-.00049-.00018.00067.00116c1.9165,4.02429,3.32056,8.27338,4.86279,12.42719,1.33447,3.594,2.66986,7.22894,4.01019,10.82849C101.84113,67.57611,104.00781,72.75543,106,78c1.90582,5.01733,3.911,9.99695,5.87988,14.99023.548,1.38965.45349,2.26874-1.40045,2.0036a1.60552,1.60552,0,0,0-1.499.26672l-.00018.00079c1.84882-.01282,3.69763-.03595,5.54651-.03674q19.86429-.00833,39.72864-.01324c2.57086-.0022,2.5686-.03925,2.12262-2.558C155.38763,87.06012,154.43091,81.46088,153.4278,75.87Z"/><path class="cls-3" d="M110.47943,94.99384c1.85394.26514,1.94843-.614,1.40045-2.0036C109.911,87.99695,107.90582,83.01733,106,78c-1.99219-5.24457-4.15887-10.42389-6.11438-15.67523-1.34033-3.59955-2.67572-7.2345-4.01019-10.82849-1.54224-4.15381-2.94629-8.40289-4.86279-12.42719l-.00067-.00116a.69082.69082,0,0,0-.16156-.04846.68079.68079,0,0,0-.19653-.059c-3.42413,1.90961-6.34186,4.56775-9.80853,6.45282-2.73682,1.48828-5.09406,3.65869-7.76886,5.28058-4.07819,2.4729-7.73694,5.55035-11.8656,7.95111-2.52692,1.4693-4.81964,3.33618-7.31213,4.87079C49.90765,65.973,46.26056,68.925,42.25031,71.37213c-2.08167,1.27032-4.13556,2.71613-6.20013,4.03827-4.28033,2.741-8.16418,6.05774-12.662,8.48218-2.86584,1.5448-5.0271,4.22693-8.04291,5.5141-2.54535,1.08643-4.06573,3.42548-6.48273,4.38312.16107.91394.76239.72626,1.18738.85388-.0033-.0155.0036-.023-.0036-.04138-.081-.20648.17029-.00586.08429.07245a.48581.48581,0,0,1,.22192.17548A4.42839,4.42839,0,0,1,7.697,94.65533c-.02277-.01025-.046-.01343-.06866-.02429l-.00061.00018-.47668-.0705v.79492q49.52774-.01044,99.05548-.02393c.92462-.00031,1.84918-.0459,2.77283-.07037l.00116-.00079A1.60552,1.60552,0,0,1,110.47943,94.99384Z"/><path d="M400.27905,48.087c-8.6839-3.7796-16.79346-1.82953-23.7168,5.58777-.72607-5.44525-1.51837-6.12109-7.16809-6.11664-2.18591.00171-4.37189-.01068-6.55768.00769-1.51178.0127-3.54065-.51385-4.40125.25275-1.03094.91821-.30444,2.99274-.32465,4.56219-.0517,4.01361-.01721,4.014,3.9129,4.02539,3.11035.009,3.51941.4187,3.51984,3.56622q.00284,19.67322-.00507,39.34644c-.0014,1.777.5802,4.0802-.30261,5.187-.93524,1.17261-3.341.25024-5.09778.38855a.86328.86328,0,0,1-.19849-.00067c-1.09827-.17072-1.485.23792-1.44629,1.39484.08179,2.44708.00745,4.89935-.00287,7.34949H384.324c-.00018-1.19232.01074-2.38483-.0033-3.577-.01935-1.64691.57654-3.851-.25317-4.79462-.96692-1.09979-3.22467-.258-4.91736-.37012a.89154.89154,0,0,0-.19849.00073c-1.07281.173-1.46-.18866-1.4552-1.3587.01862-4.48663.19153-8.975-.1524-13.60883,9.08435,10.86432,27.11786,7.21155,32.803-5.76526a31.80258,31.80258,0,0,0,.18115-25.6004A18.68584,18.68584,0,0,0,400.27905,48.087Zm-.93817,30.83746c-1.94855,4.40131-5.32343,7.11127-10.22308,7.23071-4.74963.11584-8.20953-2.30963-10.17181-6.56738a18.62444,18.62444,0,0,1,.3844-17.29218c2.12616-3.98517,5.6933-5.721,10.15778-5.56586,4.47937.15564,7.5351,2.5575,9.47369,6.4278a16.11377,16.11377,0,0,1,1.66608,8.45972A14.787,14.787,0,0,1,399.34088,78.92444Z"/><path d="M601.34155,85.56714c-6.30444.05481-9.5625-3.14093-9.58752-9.44342-.02393-6.02295.04956-12.04687-.04437-18.06842-.02289-1.46613.45056-1.7348,1.77789-1.68024,2.5769.106,5.16278-.01978,7.74188.05548,1.05023.03064,1.35181-.28687,1.31342-1.32294-.07843-2.115-.07068-4.23627-.005-6.35205.02979-.95709-.26306-1.23962-1.22229-1.21747-2.7121.06262-5.428-.02759-8.13977.04364-1.12634.0296-1.47729-.31415-1.45251-1.45276.07336-3.3739-.00275-6.751.05353-10.12555.01746-1.04529-.17462-1.519-1.37836-1.48328-2.97577.08844-5.9574.08081-8.93359.00061-1.05743-.0285-1.35217.28168-1.3252,1.30829.06458,2.44708.021,4.897.02216,7.34583.00214,4.384.00244,4.384-4.47406,4.38385-3.26337-.00012-3.27209-.00006-3.25519,3.20764.00934,1.78052-.62219,4.104.25836,5.19958,1.02966,1.281,3.46252.42572,5.26886.38818,1.50293-.03125,1.86487.38678,1.84552,1.869-.08636,6.61755-.06293,13.23706-.03021,19.85559.0412,8.3324,3.7005,13.75787,11.04767,16.20221a25.10993,25.10993,0,0,0,12.49219,1.07471v-9.9361C602.65717,85.47076,601.99969,85.5614,601.34155,85.56714Z"/><path d="M240.67255,85.837c-2.53064.28046-4.20044-.8136-5.37946-3.12756-2.037-3.99823-4.32611-7.86737-6.4671-11.8136a11.74478,11.74478,0,0,0-3.65826-4.35956c10.44849-4.18341,13.55261-13.2561,12.03961-22.80591-1.33411-8.42047-8.37714-14.36957-17.94238-14.63275-11.51129-.31665-23.03564-.15125-34.55414-.22394-.98907-.00623-1.43237.22827-1.39612,1.32031.07477,2.24866.08466,4.50342.00562,6.75165-.03986,1.13385.47162,1.32324,1.42194,1.29706,1.72015-.04736,3.444.02521,5.16327-.03607.973-.03467,1.40051.17865,1.39813,1.29175q-.04916,22.6431.00439,45.28632c.00189.89191-.25824,1.11432-1.10156,1.087-1.78583-.05792-3.57648.02753-5.36169-.03882-1.056-.03918-1.57916.18927-1.52972,1.40369.08893,2.18127.0899,4.37109.00549,6.55261-.04529,1.16827.41144,1.46753,1.48865,1.46429q12.61249-.03818,25.22528-.00043c.96558.00214,1.42694-.25018,1.38916-1.34875-.07733-2.24811-.06531-4.50281.0116-6.75128.03754-1.09851-.418-1.34912-1.40216-1.31458-1.6532.058-3.313-.04645-4.96393.03809-1.03729.0531-1.3631-.25269-1.33521-1.312.07324-2.77887.0105-5.561.03009-8.34155.01434-2.04089-.71564-4.80927.31934-5.93085,1.19208-1.29187,3.99182-.25848,6.08539-.41284,2.8606-.21088,4.7132,1.1142,6.04279,3.57892,3.13373,5.8089,6.36737,11.564,9.56042,17.34082a7.49929,7.49929,0,0,0,6.23175,4.25891c3.11133.28094,6.21381.05548,9.31519.20178.99365.04681,1.24817-.36188,1.22913-1.27332-.04425-2.11774-.12457-4.24475.02258-6.35315C242.67969,86.0708,242.10614,85.67816,240.67255,85.837Zm-25.2453-25.99457c-3.49268.19708-7.006.004-10.50891.05743-1.03778.01581-1.18127-.4621-1.17285-1.31982.03064-3.10681.01208-6.21411.01208-9.32123h.01013q0-4.56143.00226-9.12292c.0011-.63818-.18036-1.371.90167-1.34613,4.028.09277,8.09363-.37091,12.07764.30139,6.58868,1.11176,8.46771,4.59045,8.38721,10.26233C225.04358,55.89709,221.57465,59.49561,215.42725,59.84247Z"/><path d="M350.19318,86.21863c-3.3067-.0094-3.62628-.32452-3.62634-3.59131q-.00064-26.02377-.002-52.04749c-.00012-.87445.30029-1.76752-1.27563-1.73767-5.56036.10529-11.124.061-16.6861.0249-.9859-.00641-1.44672.21405-1.41034,1.30945.07031,2.11664.07446,4.239.00293,6.35547-.03662,1.08282.37567,1.35773,1.38684,1.313,1.65222-.07294,3.31024-.00433,4.96539-.02692.66827-.00909,1.146.0556,1.14172.92242-.0224,4.52118-.01044,9.04248-.01044,13.96454a17.94757,17.94757,0,0,0-4.52289-4.08722c-7.70264-4.54083-22.18774-2.89337-28.01868,9.21869-3.31665,6.88934-3.69092,14.161-1.99084,21.48352,1.88794,8.13135,6.3042,14.38007,14.85773,16.36023,8.06915,1.868,15.18494.08514,20.37708-7.27032.04358.52655.07947.829.092,1.13251.14557,3.51239,1.41657,5.08008,4.9317,5.53564a49.43138,49.43138,0,0,0,6.3382.157c1.976-.00037,4.61322.67548,5.75372-.32324,1.30658-1.1441.36053-3.84552.41052-5.86731C352.97748,86.22778,352.92432,86.22644,350.19318,86.21863ZM332.63562,80.9071a11.14081,11.14081,0,0,1-18.054,1.174c-4.33276-5.53394-4.32587-15.62866.01447-21.175a10.82418,10.82418,0,0,1,18.11755,1.40082,19.45743,19.45743,0,0,1,2.27606,9.16058A18.45946,18.45946,0,0,1,332.63562,80.9071Z"/><path d="M565.80981,86.21429c-2.67554-.00006-2.62762-.0011-2.68567-2.67786-.17212-7.93677.50885-15.894-.38239-23.809-.548-4.86652-2.45453-9.13458-7.03406-11.50732-4.61578-2.39148-9.54871-2.37677-14.47571-1.04-4.91351,1.33307-8.5852,4.38733-11.57574,9.20074,0-1.44287.01038-2.26971-.00177-3.09625-.05634-3.84283-1.76013-5.65149-5.52417-5.70544-4.03845-.05786-8.07843.0058-12.11737-.03217-.89014-.00836-1.322.15564-1.28827,1.18286.07172,2.18292.05719,4.37067.00293,6.55457-.0213.85876.22809,1.17847,1.11108,1.1366,1.32135-.06262,2.648-.01471,3.97241-.013a2.06428,2.06428,0,0,1,2.36761,2.27716c-.00177,8.80695-.02551,17.614-.01044,26.421.00153.87524-.30524,1.14929-1.15112,1.12134-1.52136-.05023-3.04791.03827-4.56763-.03156-.97278-.04474-1.26257.3244-1.24164,1.25342.04932,2.18414.05652,4.37091.00623,6.55493-.02246.97961.38422,1.23779,1.29327,1.23529q11.62115-.03177,23.24255.01038c.98657.00464,1.234-.34332,1.20966-1.26794-.0575-2.18372-.06268-4.37109-.002-6.55457.026-.93359-.2229-1.28632-1.20471-1.23456-1.51892.08-3.04645-.017-4.56744.03943-.78644.02924-1.03967-.23712-1.00964-1.00964.19781-5.08557-.52466-10.21643.41937-15.25574,1.0705-5.71387,3.84479-10.26062,9.75177-12.12823,5.05768-1.599,9.024.12494,10.28143,4.41266a19.29107,19.29107,0,0,1,.62909,5.4931c-.01526,8.5423.02429,17.08484-.03766,25.62671-.01019,1.4057.22125,1.94666,1.80646,1.89484,3.96857-.12976,7.9447-.01727,11.91766-.0274,1.57837-.00409,3.65863.52283,4.60461-.27118,1.12061-.94049.33411-3.09778.35992-4.72168C569.9726,86.215,569.92938,86.21436,565.80981,86.21429Z"/><path d="M440.06512,46.8833a24.697,24.697,0,0,0-20.05127,30.1153c2.41327,10.71405,11.90289,19.18054,25.68451,19.35175a50.381,50.381,0,0,0,6.09412-.6106c18.16028-3.366,26.4679-25.43976,14.80652-39.75629C459.7301,47.55066,450.48792,45.14709,440.06512,46.8833Zm5.47968,39.23828c-7.93018-.123-13.929-6.45111-13.94812-14.71405-.01935-8.34308,5.98419-14.71521,14.02582-14.887,7.69836-.16449,14.087,6.5791,14.07623,14.85828C459.688,79.67615,453.3833,86.2431,445.5448,86.12158Z"/><path d="M266.25769,46.72791C254.77417,48.9386,247.65308,57.23029,246.75226,68.975c-1.22693,15.99554,10.32062,27.15533,24.44116,27.32544a32.14333,32.14333,0,0,0,19.19482-5.69067c1.05823-.728,1.13275-1.28833.50043-2.33649-1.15839-1.9201-2.22345-3.90222-3.22144-5.91107-.51447-1.0354-.92053-1.12915-1.90143-.47021a24.74267,24.74267,0,0,1-11.36212,4.24445A13.9235,13.9235,0,0,1,259.2251,75.33984c-.31818-1.44739-.389-2.39,1.74695-2.30145,4.75928.19714,9.53241.06152,14.29987.06128q5.66135-.00046,11.32275-.00031c5.65167,0,5.65167,0,5.48486-5.70227C291.663,53.15619,280.26373,44.03156,266.25769,46.72791ZM279.14587,65.932q-9.80255.00888-19.60468.00488c-.03217-5.23053,4.99945-10.07648,10.65594-10.3194,5.28363-.22693,9.08588,3.84033,9.51587,10.2027A2.9232,2.9232,0,0,1,279.14587,65.932Z"/><path d="M503.92169,86.59009c-.87463-1.12482-3.10278-.42383-4.70746-.31909-1.63251.10651-1.7829-.535-1.766-1.90131.07117-5.76031.03009-11.522.03217-17.28314.00208-5.95984-.01068-11.91968.014-17.87946.00433-1.05-.07166-1.70184-1.458-1.68188-5.56134.0799-11.12488.066-16.68671.00629-1.13531-.01221-1.27313.43945-1.24548,1.38788q.08981,3.07663-.00214,6.15735c-.03046.97992.16956,1.43634,1.28168,1.35345,1.38293-.10309,2.79437.10352,4.1662-.05664,1.66217-.19409,1.8963.52319,1.88318,1.97583-.067,7.41608-.01056,14.83319-.04547,22.24969-.00861,1.82556.78552,4.25861-.34192,5.30048-.981.90662-3.39148.35931-5.16315.28473-1.17773-.04962-1.42914.374-1.386,1.4516.07928,1.9834.1001,3.9765-.00653,5.9574-.06909,1.283.28687,1.68475,1.62225,1.67181,6.75378-.06543,13.50854-.02344,20.263-.02063,3.85309.00159,3.86694.00024,3.84668-3.84772C504.21326,89.75189,504.73663,87.63818,503.92169,86.59009Z"/><path class="cls-4" d="M485.28882,38.1109c-.0304,1.08673.3717,1.361,1.37329,1.31714,1.51892-.06659,3.043-.0174,4.56482-.01489,1.6543.0025,3.31036-.04364,4.96222.02057.92584.036,1.30414-.23285,1.28772-1.20734q-.0683-4.068-.00012-8.1377c.01526-.9541-.32581-1.24133-1.271-1.22528q-4.76285.08093-9.52789.00739c-.97766-.01392-1.422.192-1.38965,1.301Q485.40366,34.13864,485.28882,38.1109Z"/><path class="cls-5" d="M147.04511,40.53107a43.064,43.064,0,0,0-1.55981-8.86157c-.006,2.22766.0033,4.45508-.02448,6.682A2.093,2.093,0,0,0,147.04511,40.53107Z"/><path class="cls-6" d="M149.87836,56.40149a24.04981,24.04981,0,0,0-1.18921-6.42828l-.00018.00006c-.17432.08014-.506.21527-.50067.23047C148.90924,52.22729,148.22455,54.63782,149.87836,56.40149Z"/><path class="cls-7" d="M90.63654,38.42963l-.00946-.28882h.00006c-2.702-7.09308-5.404-14.18616-7.76373-20.38062-.13495.121-.27649.24066-.41229.36145-1.7,1.51147-3.45984,3.00659-5.21088,4.53857-1.8653,1.6319-3.7135,3.30713-5.44525,5.0954Q44.035,56.42169,16.474,85.28027c-2.97131,3.09534-5.89868,6.23291-8.84595,9.35071l.00024.00006c.02271.01086.0459.014.06866.02429a4.42839,4.42839,0,0,0,2.65558.19489.48581.48581,0,0,0-.22192-.17548.69327.69327,0,0,0-.08069-.03107c-.425-.12762-1.02631.06006-1.18738-.85388,2.417-.95764,3.93738-3.29669,6.48273-4.38312,3.01581-1.28717,5.17706-3.9693,8.04291-5.5141,4.4978-2.42444,8.38165-5.74115,12.662-8.48218,2.06458-1.32214,4.11847-2.76794,6.20013-4.03827,4.01025-2.44714,7.65735-5.39911,11.64844-7.85638,2.49249-1.53461,4.78522-3.40149,7.31213-4.87079,4.12866-2.40076,7.78741-5.47821,11.8656-7.95111,2.6748-1.62189,5.032-3.7923,7.76886-5.28058,3.46667-1.88507,6.3844-4.54321,9.80853-6.45282l-.00525-.16052Z"/><path class="cls-8" d="M90.62714,38.14081h-.00006l.00946.28882.01208.3703.00525.16052a.68079.68079,0,0,1,.19653.059.69082.69082,0,0,1,.16156.04846l.00049.00018a11.9106,11.9106,0,0,0,5.92181-3.69128c.27234-.29321.53931-.5943.79749-.90833-1.92731.819-3.46991,2.24194-5.22455,3.33234C91.91791,38.16705,91.38837,38.76489,90.62714,38.14081Z"/></svg>