<?xml version="1.0" encoding="UTF-8"?>
<svg   viewBox="173.92000000000007 66.5 680.16 858" version="1.1" xmlns="http://www.w3.org/2000/svg" xmlns:xlink="http://www.w3.org/1999/xlink">
    <!-- Generator: Sketch 49.3 (51167) - http://www.bohemiancoding.com/sketch -->
    <title>square - event gateway</title>
    <desc>Created with Sketch.</desc>
    <defs></defs>
    <g id="square---event-gateway" stroke="none" stroke-width="1" fill="none" fill-rule="evenodd">
        <g id="logo" transform="translate(397.000000, 224.000000)"></g>
        <g id="event-gateway-copy" transform="translate(210.000000, 83.000000)" fill="#F15953">
            <path d="M447.596474,319.419837 L604,319.419837 L302,0 L0,319.419837 L156.389955,319.419837 L102.204115,440.999839 L302.190323,321.367271 L501.795239,441 L447.596474,319.419837 Z M438.276138,298.502897 L333.806889,64.1271467 L555.421904,298.502897 L438.276138,298.502897 Z M48.5771267,298.502897 L270.179055,64.1271467 L165.709805,298.502897 L48.5771267,298.502897 Z M302,44.2437438 L415.325087,298.502252 L415.229602,298.502252 L424.426664,319.419192 L424.644938,319.419192 L455.619931,388.911054 L302,296.908575 L148.380877,388.911699 L302,44.2437438 Z" id="gateways"></path>
        </g>
        <path d="M187.808938,829.65 C187.808938,806.02 204.128938,786.47 231.668938,786.47 C249.858938,786.47 257.338938,799.56 257.338938,799.56 L258.018938,788 L275.358938,788 L275.868938,884.56 C275.868938,891.7 270.428938,907.51 247.308938,907.34 L205.998938,907.34 L205.998938,890.34 C205.998938,890.34 229.628938,890.51 246.968938,890.51 C257.338938,890.51 258.358938,884.05 258.528938,877.76 L258.528938,861.27 C258.528938,861.27 248.838938,874.36 230.478938,874.36 C198.518938,874.36 187.808938,850.39 187.808938,829.65 Z M230.818938,856.51 C249.858938,856.51 258.018938,844.95 258.018938,830.33 C258.018938,815.2 250.878938,803.81 231.838938,803.81 C214.498938,803.81 206.678938,815.03 206.678938,829.65 C206.678938,844.95 213.308938,856.51 230.818938,856.51 Z M369.757813,873 L353.437813,873 L352.247813,861.27 C352.247813,861.27 343.747813,874.02 324.537813,874.02 C301.247813,874.02 291.217813,858.04 291.217813,845.29 C291.217813,832.71 302.267813,819.62 322.157813,819.62 C337.457813,819.62 349.527813,819.45 352.247813,819.45 C352.247813,819.45 353.947813,803.3 334.907813,803.3 C318.927813,803.3 304.477813,808.06 304.477813,808.06 L299.377813,791.57 C299.377813,791.57 320.287813,786.3 332.697813,786.3 C355.307813,786.3 369.757813,798.03 369.757813,823.87 L369.757813,873 Z M326.747813,858.04 C343.747813,858.04 352.757813,847.33 352.757813,847.33 L352.757813,834.92 C352.757813,834.92 341.877813,834.75 325.557813,834.75 C313.997813,834.75 309.747813,839 309.747813,845.29 C309.747813,852.26 315.187813,858.04 326.747813,858.04 Z M380.516688,804.83 L380.516688,788 L400.916688,788 L400.916688,764.88 L419.106688,764.88 L419.106688,788 L451.916688,788 L451.916688,804.83 L419.106688,804.83 L419.106688,840.02 C419.106688,847.16 419.616688,855.15 429.136688,855.15 L451.916688,855.15 L451.916688,873 L424.206688,873 C404.826688,873 401.426688,854.47 400.916688,848.86 L400.916688,804.83 L380.516688,804.83 Z M507.895563,786.47 C547.845563,786.47 546.485563,827.1 546.485563,827.1 L546.485563,836.96 L483.585563,836.96 C483.585563,847.33 492.255563,858.21 509.425563,858.21 C522.855563,858.21 537.475563,852.43 537.475563,852.43 L541.895563,867.56 C541.895563,867.56 525.405563,874.36 508.745563,874.36 C469.815563,874.36 465.395563,841.55 465.395563,830.16 C465.395563,818.09 471.855563,786.47 507.895563,786.47 Z M529.315563,821.83 C529.315563,821.83 530.505563,803.3 507.895563,803.3 C485.795563,803.3 483.755563,821.83 483.755563,821.83 L529.315563,821.83 Z M640.034437,788 L658.054437,788 L643.944437,873 L620.994437,873 L608.414437,809.08 L608.244437,808.91 L608.074437,809.08 L595.494437,873 L572.544437,873 L558.434437,788 L576.454437,788 L584.614437,852.26 L597.704437,788.34 L597.534437,788 L618.954437,788 L618.784437,788.34 L631.874437,852.26 L640.034437,788 Z M746.333312,873 L730.013312,873 L728.823312,861.27 C728.823312,861.27 720.323312,874.02 701.113312,874.02 C677.823312,874.02 667.793312,858.04 667.793312,845.29 C667.793312,832.71 678.843312,819.62 698.733312,819.62 C714.033312,819.62 726.103312,819.45 728.823312,819.45 C728.823312,819.45 730.523312,803.3 711.483312,803.3 C695.503312,803.3 681.053312,808.06 681.053312,808.06 L675.953312,791.57 C675.953312,791.57 696.863312,786.3 709.273312,786.3 C731.883312,786.3 746.333312,798.03 746.333312,823.87 L746.333312,873 Z M703.323312,858.04 C720.323312,858.04 729.333312,847.33 729.333312,847.33 L729.333312,834.92 C729.333312,834.92 718.453312,834.75 702.133312,834.75 C690.573312,834.75 686.323312,839 686.323312,845.29 C686.323312,852.26 691.763312,858.04 703.323312,858.04 Z M800.272187,855.66 L821.692187,788 L840.732187,788 L801.122187,907 L765.252187,907 L765.252187,888.81 L788.032187,888.98 L791.262187,879.46 L755.222187,788 L775.622187,788 L800.272187,855.66 Z" id="gateway" fill="#000000"></path>
        <path d="M373.174633,676.43 C373.174633,676.43 373.174633,676.43 373.174633,676.43 Z M373.174642,676.43 L377.594642,691.56 C377.594642,691.56 361.104642,698.36 344.444642,698.36 C305.514642,698.36 301.094642,665.55 301.094642,654.16 C301.094642,642.09 307.554642,610.47 343.594642,610.47 C383.544642,610.47 382.184642,651.1 382.184642,651.1 L382.184642,660.96 L319.284642,660.96 C319.284642,671.33 327.954642,682.21 345.124642,682.21 C358.548508,682.21 373.161287,676.435279 373.174633,676.430004 L373.174642,676.43 Z M365.014642,645.83 C365.014642,645.83 366.204642,627.3 343.594642,627.3 C321.494642,627.3 319.454642,645.83 319.454642,645.83 L365.014642,645.83 Z M424.696785,680.51 L447.136785,612 L465.326785,612 L438.296785,697 L411.266785,697 L385.426785,612 L404.636785,612 L424.696785,680.51 Z M512.258928,610.47 C552.208928,610.47 550.848928,651.1 550.848928,651.1 L550.848928,660.96 L487.948928,660.96 C487.948928,671.33 496.618928,682.21 513.788928,682.21 C527.218928,682.21 541.838928,676.43 541.838928,676.43 L546.258928,691.56 C546.258928,691.56 529.768928,698.36 513.108928,698.36 C474.178928,698.36 469.758928,665.55 469.758928,654.16 C469.758928,642.09 476.218928,610.47 512.258928,610.47 Z M533.678928,645.83 C533.678928,645.83 534.868928,627.3 512.258928,627.3 C490.158928,627.3 488.118928,645.83 488.118928,645.83 L533.678928,645.83 Z M608.831072,610.98 C632.121072,610.98 641.471072,622.03 641.471072,649.57 L641.471072,697 L623.621072,697 C623.451072,677.79 623.621072,656.03 623.621072,648.72 C623.621072,638.01 621.581072,627.98 605.431072,627.98 C592.171072,627.98 582.311072,640.05 582.311072,654.33 L582.311072,697 L563.951072,697 L563.951072,612 L580.951072,612 L581.971072,625.94 C581.971072,625.94 589.451072,610.98 608.831072,610.98 Z M650.833215,628.83 L650.833215,612 L671.233215,612 L671.233215,588.88 L689.423215,588.88 L689.423215,612 L722.233215,612 L722.233215,628.83 L689.423215,628.83 L689.423215,664.02 C689.423215,671.16 689.933215,679.15 699.453215,679.15 L722.233215,679.15 L722.233215,697 L694.523215,697 C675.143215,697 671.743215,678.47 671.233215,672.86 L671.233215,628.83 L650.833215,628.83 Z" id="event" fill="#000000"></path>
    </g>
</svg>