<?xml version="1.0" encoding="utf-8"?>
<!-- Generator: Adobe Illustrator 16.0.0, SVG Export Plug-In . SVG Version: 6.00 Build 0)  -->
<!DOCTYPE svg PUBLIC "-//W3C//DTD SVG 1.1//EN" "http://www.w3.org/Graphics/SVG/1.1/DTD/svg11.dtd">
<svg version="1.1" id="图层_1" xmlns="http://www.w3.org/2000/svg" xmlns:xlink="http://www.w3.org/1999/xlink" x="0px" y="0px"
	 width="331.095px" height="253.608px" viewBox="-6.715000000000032 -1.4680000000000177 344.24 252.72" enable-background="new 0 0 331.095 253.608"
	 xml:space="preserve">
<g>
	<path fill="#595757" d="M74.106,152.902c1.273,0,2.234,0.33,2.885,0.992c0.232,0.25,0.506,0.371,0.816,0.371
		c0.313,0,0.59-0.117,0.84-0.359c0.244-0.236,0.369-0.514,0.369-0.828c0-0.297-0.115-0.57-0.35-0.816
		c-1.105-1.133-2.629-1.695-4.561-1.695c-1.91,0-3.408,0.557-4.51,1.672c-1.098,1.119-1.645,2.633-1.645,4.541
		c0,1.752,0.586,3.227,1.752,4.412s2.637,1.785,4.402,1.785c1.779,0,3.207-0.494,4.287-1.48c0.258-0.248,0.387-0.531,0.387-0.855
		c0-0.316-0.117-0.59-0.357-0.83c-0.242-0.242-0.52-0.363-0.828-0.363c-0.289,0-0.547,0.113-0.779,0.334
		c-0.623,0.57-1.527,0.859-2.709,0.859c-1.102,0-2.014-0.365-2.738-1.094c-0.719-0.727-1.076-1.648-1.076-2.768
		C70.292,154.197,71.562,152.902,74.106,152.902z"/>
	<path fill="#595757" d="M289.572,152.724c1.207,0,2.164,0.383,2.863,1.135c0.232,0.271,0.514,0.406,0.84,0.406
		c0.313,0,0.59-0.117,0.832-0.359c0.248-0.236,0.373-0.514,0.373-0.828c0-0.283-0.109-0.551-0.33-0.795
		c-1.156-1.264-2.68-1.893-4.578-1.893c-1.912,0-3.412,0.588-4.508,1.764c-1.098,1.174-1.645,2.717-1.645,4.625
		c0,1.74,0.578,3.209,1.748,4.404c1.17,1.193,2.637,1.793,4.404,1.793c1.516,0,2.859-0.488,4.016-1.463
		c1.154-0.973,1.732-2.137,1.732-3.484v-1.732h-5.068c-0.373,0-0.662,0.107-0.863,0.336c-0.201,0.23-0.303,0.504-0.303,0.828
		c0,0.311,0.102,0.584,0.303,0.818c0.201,0.236,0.49,0.352,0.863,0.352h2.613c-0.197,0.533-0.58,0.988-1.15,1.363
		c-0.627,0.428-1.334,0.646-2.143,0.646c-1.121,0-2.029-0.371-2.748-1.105c-0.715-0.734-1.068-1.652-1.068-2.756
		c0-1.271,0.316-2.266,0.963-2.977C287.363,153.085,288.311,152.724,289.572,152.724z"/>
	<path fill="#595757" d="M42.382,153.023c0.379,0,0.664-0.113,0.869-0.344c0.197-0.229,0.301-0.506,0.301-0.826
		c0-0.314-0.104-0.586-0.301-0.816c-0.205-0.236-0.49-0.355-0.869-0.355h-7.303v12.156h7.303c0.379,0,0.664-0.113,0.869-0.342
		c0.197-0.227,0.301-0.502,0.301-0.83c0-0.309-0.104-0.582-0.301-0.816c-0.205-0.232-0.49-0.346-0.869-0.346h-4.967v-3.314h3.018
		c0.379,0,0.668-0.115,0.869-0.342s0.301-0.504,0.301-0.828c0-0.311-0.1-0.584-0.301-0.816c-0.201-0.236-0.49-0.352-0.869-0.352
		h-3.018v-1.828H42.382z"/>
	<path fill="#595757" d="M214.998,150.994c-0.234-0.207-0.508-0.313-0.816-0.313c-0.313,0-0.586,0.105-0.82,0.313
		c-0.232,0.207-0.35,0.492-0.35,0.859v10.984h7.709c0.365,0,0.656-0.113,0.859-0.342c0.205-0.227,0.314-0.502,0.314-0.83
		c0-0.309-0.109-0.582-0.314-0.816c-0.203-0.232-0.494-0.346-0.859-0.346h-5.373v-8.65
		C215.348,151.486,215.23,151.201,214.998,150.994z"/>
	<path fill="#595757" d="M9.292,150.681H1.17c-0.361,0-0.65,0.119-0.859,0.355C0.105,151.267,0,151.539,0,151.853
		c0,0.32,0.105,0.598,0.311,0.826c0.209,0.23,0.498,0.344,0.859,0.344h3.074v8.643c0,0.379,0.117,0.67,0.346,0.871
		c0.226,0.201,0.503,0.301,0.825,0.301c0.313,0,0.582-0.1,0.818-0.301c0.234-0.201,0.354-0.492,0.354-0.871v-8.643h2.705
		c0.375,0,0.664-0.113,0.865-0.344c0.201-0.229,0.301-0.506,0.301-0.826c0-0.314-0.1-0.586-0.301-0.816
		C9.956,150.8,9.667,150.681,9.292,150.681z"/>
	<path fill="#595757" d="M140.853,162.8c0.324,0,0.602-0.102,0.832-0.305c0.225-0.191,0.338-0.488,0.338-0.855v-6.029l8.471,7.189
		v-10.947c0-0.367-0.111-0.652-0.35-0.859c-0.232-0.207-0.506-0.313-0.814-0.313c-0.326,0-0.604,0.105-0.828,0.313
		s-0.342,0.492-0.342,0.859v5.279l-8.473-6.451v10.951c0,0.375,0.117,0.664,0.35,0.863C140.272,162.699,140.542,162.8,140.853,162.8
		z"/>
	<path fill="#595757" d="M105.563,150.994c-0.232-0.207-0.506-0.313-0.816-0.313c-0.324,0-0.602,0.105-0.832,0.313
		c-0.225,0.207-0.336,0.492-0.336,0.859v9.813c0,0.379,0.111,0.67,0.336,0.871c0.23,0.201,0.508,0.301,0.832,0.301
		c0.311,0,0.584-0.1,0.816-0.301c0.234-0.201,0.35-0.492,0.35-0.871v-4.303h5.961v4.303c0,0.379,0.125,0.67,0.373,0.881
		c0.205,0.195,0.471,0.291,0.797,0.291c0.309,0,0.582-0.1,0.82-0.301c0.232-0.201,0.35-0.492,0.35-0.871v-9.813
		c0-0.367-0.117-0.652-0.35-0.859c-0.238-0.207-0.512-0.313-0.82-0.313c-0.326,0-0.592,0.1-0.797,0.295
		c-0.248,0.221-0.373,0.51-0.373,0.877v3.174h-5.961v-3.174C105.913,151.486,105.798,151.201,105.563,150.994z"/>
	<path fill="#595757" d="M330.726,151.025c-0.25-0.227-0.527-0.344-0.836-0.344c-0.379,0-0.688,0.17-0.938,0.51l-3.258,4.664
		l-3.168-4.648c-0.236-0.348-0.547-0.525-0.936-0.525c-0.311,0-0.592,0.117-0.836,0.344c-0.246,0.229-0.371,0.504-0.371,0.828
		c0,0.221,0.072,0.438,0.213,0.662l3.971,5.822v3.328c0,0.379,0.121,0.67,0.359,0.871c0.225,0.201,0.502,0.301,0.814,0.301
		c0.311,0,0.58-0.1,0.816-0.301s0.35-0.492,0.35-0.871v-3.445l3.971-5.688c0.145-0.221,0.217-0.447,0.217-0.68
		C331.095,151.529,330.976,151.253,330.726,151.025z"/>
	<path fill="#595757" d="M187.832,156.779c0-1.883-0.531-3.387-1.596-4.518c-1.064-1.133-2.523-1.695-4.385-1.695
		c-1.881,0-3.353,0.563-4.409,1.684c-1.057,1.125-1.592,2.633-1.592,4.529c0,1.857,0.535,3.344,1.604,4.461
		c1.09,1.156,2.552,1.736,4.397,1.736c1.869,0,3.348-0.566,4.426-1.697C187.314,160.162,187.832,158.664,187.832,156.779z
		 M181.852,160.64c-1.193,0-2.102-0.346-2.725-1.027c-0.628-0.678-0.937-1.625-0.937-2.834c0-2.582,1.222-3.877,3.661-3.877
		c2.432,0,3.645,1.295,3.645,3.877C185.496,159.355,184.283,160.64,181.852,160.64z"/>
	<path fill="#595757" d="M252.412,150.566c-1.881,0-3.352,0.563-4.408,1.684c-1.059,1.125-1.588,2.633-1.588,4.529
		c0,1.857,0.533,3.344,1.6,4.461c1.088,1.156,2.555,1.736,4.396,1.736c1.869,0,3.344-0.566,4.426-1.697
		c1.041-1.117,1.559-2.615,1.559-4.5c0-1.883-0.535-3.387-1.6-4.518C255.732,151.128,254.273,150.566,252.412,150.566z
		 M252.412,160.64c-1.189,0-2.098-0.346-2.721-1.027c-0.627-0.678-0.938-1.625-0.938-2.834c0-2.582,1.219-3.877,3.658-3.877
		c2.432,0,3.645,1.295,3.645,3.877C256.057,159.355,254.844,160.64,252.412,160.64z"/>
	<linearGradient id="SVGID_1_" gradientUnits="userSpaceOnUse" x1="19.5381" y1="70.7036" x2="134.5869" y2="70.7036">
		<stop  offset="0.2903" style="stop-color:#5DCEFD"/>
		<stop  offset="0.7366" style="stop-color:#7FBFFE"/>
		<stop  offset="1" style="stop-color:#6BADFD"/>
	</linearGradient>
	<polygon fill="url(#SVGID_1_)" points="126.44,108.63 97.599,92.118 57.849,114.875 56.663,114.191 38.886,103.925 38.886,103.625 
		38.886,48.458 58.069,59.589 58.069,92.64 88.081,75.462 97.599,70.012 107.116,75.462 134.587,91.188 134.587,37.484 77.06,4.263 
		19.538,37.484 19.538,103.925 77.06,137.144 	"/>
	<path fill="#6FB7FD" d="M150.212,67.458c0.021,0.667,0.029,1.202,0.029,1.594c0,1.364-0.057,3.222-0.178,5.559
		c2.172-0.038,4.176-0.061,6.037-0.061c1.781,0,3.658,0.022,5.607,0.061c0-0.746,0.02-1.403,0.061-1.947l0.168-3.672
		c0.02-0.412,0.064-0.916,0.125-1.533c-1.676,0.04-3.625,0.061-5.855,0.061C154.593,67.519,152.593,67.499,150.212,67.458z"/>
	<path fill="#6FB7FD" d="M149.786,78.367c-0.051,3.883-0.123,7.295-0.225,10.229c-0.104,2.938-0.213,5.611-0.346,8.031
		c-0.133,2.432-0.262,4.42-0.398,5.975c-0.137,1.553-0.35,3.541-0.623,5.943c2.727-0.039,4.916-0.061,6.588-0.061
		c1.701,0,3.719,0.021,6.068,0.061c0-2.008,0.037-5.814,0.109-11.412c0.041-3.15,0.141-6.135,0.285-8.951
		c0.145-2.826,0.395-6.094,0.725-9.814c-2.621,0.039-4.631,0.061-6.037,0.061C154.401,78.427,152.354,78.406,149.786,78.367z"/>
	<path fill="#6FB7FD" d="M182.145,108.089c1.592-0.313,3.078-0.855,4.445-1.643c1.379-0.791,2.393-1.768,3.078-2.936
		c0.676-1.182,1.021-2.463,1.021-3.865c0-0.918-0.152-1.809-0.453-2.645c-0.314-0.836-0.756-1.623-1.332-2.361
		c-0.586-0.734-1.422-1.541-2.535-2.41c-0.664-0.535-1.596-1.211-2.777-2.037c-1.186-0.828-1.922-1.355-2.234-1.588
		c-0.307-0.221-0.555-0.441-0.768-0.666c-0.201-0.211-0.346-0.424-0.426-0.615c-0.076-0.199-0.121-0.398-0.121-0.623
		c0-0.646,0.357-1.131,1.049-1.443c0.699-0.314,1.828-0.475,3.385-0.475c2.211,0,4.506,0.475,6.889,1.422l-0.475-8.314
		c-4.256-0.703-7.758-1.057-10.49-1.057c-2.624,0-4.847,0.32-6.671,0.957c-1.816,0.646-3.195,1.676-4.137,3.086
		c-0.939,1.422-1.402,2.945-1.402,4.584c0,0.926,0.16,1.822,0.482,2.691c0.334,0.867,0.799,1.676,1.426,2.418
		c0.623,0.752,1.541,1.607,2.781,2.576c1.23,0.967,2.658,2.039,4.27,3.221c0.723,0.533,1.197,0.947,1.398,1.262
		c0.218,0.301,0.317,0.615,0.317,0.924c0,0.357-0.145,0.699-0.417,1.029c-0.27,0.346-0.717,0.598-1.307,0.779
		c-0.607,0.174-1.395,0.264-2.352,0.264c-1.17,0-2.443-0.182-3.822-0.549c-1.375-0.361-3.023-0.924-4.936-1.672l0.229,2.131
		c0.182,1.672,0.314,2.986,0.395,3.945c0.068,0.957,0.152,1.865,0.232,2.73c2.287,0.494,4.289,0.84,6.01,1.041
		c1.729,0.195,3.162,0.293,4.313,0.293C178.906,108.544,180.549,108.392,182.145,108.089z"/>
	<path fill="#6FB7FD" d="M199.182,103.238c0.973,1.23,2.166,2.258,3.594,3.088c1.436,0.828,3.131,1.402,5.1,1.736
		c1.979,0.32,4.133,0.482,6.48,0.482c1.586,0,3.162-0.068,4.727-0.225c1.555-0.15,3.471-0.443,5.758-0.896
		c0.732-4.531,1.227-7.396,1.477-8.578c-2.441,0.729-4.498,1.246-6.162,1.557c-1.668,0.301-3.15,0.453-4.449,0.453
		c-2.182,0-4.035-0.504-5.555-1.502c-1.52-1.01-2.275-2.572-2.275-4.695c0-0.262,0.008-0.545,0.029-0.855l20.723-0.029
		c0.252-1.383,0.385-2.633,0.385-3.754c0-1.896-0.301-3.66-0.9-5.297c-0.602-1.633-1.611-3.096-3.037-4.398
		c-1.412-1.301-3.148-2.221-5.186-2.734c-2.033-0.527-4.176-0.788-6.426-0.788c-2.172,0-4.289,0.28-6.359,0.86
		c-2.07,0.572-3.895,1.533-5.475,2.893c-1.6,1.363-2.889,3.252-3.895,5.662c-1,2.408-1.502,4.881-1.502,7.404
		c0,1.785,0.252,3.533,0.756,5.225C197.494,100.542,198.213,102.005,199.182,103.238z M208.551,87.435
		c0.141-0.441,0.361-0.906,0.654-1.381c0.295-0.463,0.668-0.891,1.109-1.25c0.443-0.365,0.938-0.648,1.496-0.83
		c0.547-0.189,1.117-0.281,1.699-0.281c0.854,0,1.617,0.17,2.295,0.504c0.684,0.332,1.211,0.867,1.572,1.596
		c0.361,0.727,0.547,1.605,0.547,2.631c0,0.234-0.012,0.527-0.029,0.857h-9.762C208.277,88.494,208.418,87.878,208.551,87.435z"/>
	<path fill="#6FB7FD" d="M264.643,108.544c0.137-2.049,0.27-3.789,0.389-5.207c0.133-1.41,0.223-2.592,0.283-3.541
		c-1.299,0.141-2.393,0.217-3.281,0.264c-0.887,0.037-2.467,0.078-4.75,0.119c-2.271,0.039-3.795,0.061-4.574,0.061l-3.246-0.029
		c2.877-2.6,5.336-4.947,7.395-7.033c2.15-2.207,4.035-4.35,5.67-6.416c1.113-1.381,2.031-2.775,2.787-4.199
		c0.586-1.141,0.988-2.137,1.213-2.986c0.213-0.889,0.318-1.787,0.318-2.694c0-1.37-0.375-2.662-1.119-3.853
		c-0.758-1.193-1.877-2.238-3.367-3.127c-1.504-0.896-3.199-1.535-5.084-1.909c-1.896-0.373-3.879-0.564-5.945-0.564
		c-4.541,0-9.393,0.433-14.58,1.301c-0.334,2.403-0.584,4.026-0.764,4.875l-0.768,4.224c2.641-0.664,4.723-1.117,6.254-1.358
		c1.521-0.234,2.977-0.354,4.359-0.354c1.006,0,1.898,0.093,2.693,0.262c0.783,0.181,1.451,0.414,2.01,0.714
		c0.543,0.295,0.957,0.66,1.205,1.08c0.254,0.426,0.391,0.92,0.391,1.496c0,0.434-0.084,0.859-0.238,1.27
		c-0.225,0.588-0.662,1.332-1.334,2.211c-1.17,1.502-2.6,3.148-4.313,4.941c-2.15,2.254-4.613,4.652-7.387,7.217
		c-1.717,1.574-3.602,3.197-5.65,4.873c-0.08,1.594-0.141,3.158-0.189,4.682c-0.053,1.533-0.117,2.752-0.193,3.684
		c4.471-0.039,9.947-0.061,16.406-0.061C254.598,108.484,259.734,108.505,264.643,108.544z"/>
	<rect x="301.973" y="75.891" fill="#6FB7FD" width="4.818" height="4.813"/>
	<rect x="291.896" y="72.033" fill="#6FB7FD" width="7.588" height="7.586"/>
	<rect x="300.795" y="66.799" fill="#6FB7FD" width="5.748" height="5.743"/>
	<path fill="#6FB7FD" d="M272.793,104.865c1.648,1.418,3.518,2.406,5.611,2.975c1.76,0.469,3.822,0.705,6.152,0.705
		c3.229,0,6.531-0.414,9.912-1.229l0.832-5.16c0.418-2.289,0.662-3.875,0.771-4.734c-1.133,0.43-2.078,0.736-2.814,0.914
		c-0.75,0.188-1.619,0.352-2.619,0.504c-0.988,0.143-1.861,0.221-2.588,0.221c-1.443,0-2.766-0.273-3.98-0.836
		c-1.197-0.563-2.078-1.4-2.615-2.52c-0.551-1.113-0.824-2.5-0.824-4.162c0-1.631,0.305-3.074,0.912-4.309
		c0.615-1.227,1.563-2.176,2.838-2.84c1.281-0.646,2.777-0.977,4.473-0.977c2.367,0,5.084,0.537,8.158,1.607l-0.199-2.873
		l-0.072-1.156h-6.834v-6.89c-1.301-0.114-2.588-0.166-3.861-0.166c-2.609,0-4.973,0.272-7.135,0.825
		c-2.146,0.537-4.111,1.616-5.863,3.223c-1.766,1.598-3.1,3.637-4,6.111c-0.904,2.467-1.354,5.041-1.354,7.707
		c0,2.895,0.461,5.527,1.387,7.857C269.852,101.669,271.094,103.398,272.793,104.865z"/>
	<rect x="308.359" y="71.803" fill="#6FB7FD" width="3.198" height="3.207"/>
	<polygon fill="#3F4244" points="158.19,189.859 105.204,189.859 105.204,197.636 154.41,197.636 	"/>
	<polygon fill="#3F4244" points="124.742,217.06 156.409,217.06 160.063,209.315 103.332,209.315 103.332,217.06 114.052,217.06 
		103.734,239.185 103.734,246.029 142.457,246.06 146.095,238.347 115.23,238.347 	"/>
	<polygon fill="#3F4244" points="143.301,220.873 149.622,246.498 160.093,246.498 153.523,220.873 	"/>
	<path fill="#3F4244" d="M184.821,245.952h43.445l9.475-8.295v-18.032h-53.762L184.821,245.952z M194.026,235.966h29.924v-5.807
		h-29.924v-4.361h33.637v10.566l-4.014,3.656h-29.623V235.966z"/>
	<path fill="#3F4244" d="M213.009,217.22l-9.121-10.136h5.189l2.797-6.019h-8.633v-3.073h5.836l3.012-6.205h-17.203l1.26-2.671
		h-9.246l-4.852,10.29l9.246-0.058l0.645-1.356h2.088v3.073h-11.061v6.019h10.232l-10.969,10.574h11.184l5.1-4.888l4.332,4.764
		l10.164,0.026v0.098h15.98l9.215-8.108v-18.805h-25.195V217.22z M222.198,196.951h6.758l0.033,14.225l-6.791,0.061V196.951z"/>
	<polygon fill="#3F4244" points="271.644,190.017 260.45,206.592 270.872,206.592 277.69,196.216 299.386,196.216 306.286,206.562 
		316.626,206.562 305.431,190.017 	"/>
	<polygon fill="#3F4244" points="260.976,217.314 313.353,217.314 316.534,210.748 260.976,210.748 	"/>
	<path fill="#3F4244" d="M262.028,245.607h44.883l8.166-7.191v-16.668h-53.049V245.607z M272.315,228.285h32.445v7.307l-3.102,2.824
		h-29.344V228.285z"/>
	<polygon fill="#3F4244" points="43.571,209.818 32.991,209.818 24.429,215.994 35.69,215.994 	"/>
	<polygon fill="#3F4244" points="81.335,203.148 81.335,195.451 49.454,195.451 49.454,193.623 79.214,193.623 81.044,190.083 
		49.454,190.083 49.454,188.842 48.46,188.842 39.894,188.842 39.089,188.842 39.089,195.451 25.296,195.451 25.296,205.318 
		35.69,205.318 35.69,200.167 71.003,200.167 71.003,206.591 	"/>
	<polygon fill="#3F4244" points="40.903,223.314 54.339,215.652 66.286,223.034 80.868,223.034 59.923,209.164 48.724,209.164 
		25.948,223.314 	"/>
	<rect x="37.026" y="203.148" fill="#3F4244" width="32.766" height="4.344"/>
	<polygon fill="#3F4244" points="64.112,209.164 71.653,215.994 82.171,215.994 74.198,209.164 	"/>
	<path fill="#3F4244" d="M25.208,246.089h50.006l6.283-6.299v-14.303H25.208V246.089z M35.542,240.132h31.836v-3.539H35.542v-1.949
		h31.836v-3.539H35.542v-2.174H71.13v11.057l-3.158,2.877l-1.967-0.002H35.542V240.132z"/>
</g>
</svg>
